<svg xmlns="http://www.w3.org/2000/svg" width="512" height="512" viewBox="0 0 384 384" xmlns:v="https://vecta.io/nano"><path fill="#92807a" d="M144.99 153.68c2.52-.48 5.07-.79 7.64-.88.97.8 1.9 1.67 2.98 2.32 1.37-.15 2.68-.58 4.02-.89 3.8.22 7.58.54 11.35 1.07l.98 1.6c-3.02.05-6.05.04-9.06.24-1.72.37-4.6.26-4.79 2.59-.14 4.68.66 9.34.85 14.01l3.08.56-.59 3.19c-1.28-.3-2.55-.58-3.83-.84-.06-2.43-.28-4.85-.6-7.25-.49-3.99-1.16-7.95-2.09-11.85-3.3-1.32-6.38-3.31-9.94-3.87m6.36 1.4c.35 3.25 2.93-1.64 0 0m10.32.03c-.22 1.4 2.17 1.59 2.81.64.25-1.42-2.2-1.67-2.81-.64z"/><path fill="#645d5c" opacity=".95" d="M152.63 152.8c2.43-.13 4.76.59 7 1.43-1.34.31-2.65.74-4.02.89-1.08-.65-2.01-1.52-2.98-2.32z"/><path fill="#d6cbc5" d="M135.55 156.02l9.44-2.34c3.56.56 6.64 2.55 9.94 3.87.93 3.9 1.6 7.86 2.09 11.85a107.43 107.43 0 0 0-3.78 6.27 179.95 179.95 0 0 1-10.08-1.77c-1.4-5.01-2.67-10.16-2.09-15.41 2.19-.61 4.36-1.33 6.5-2.1-3.96-.9-8.01-.33-12.02-.37z"/><path d="M214.91 154.57c5.99-1.56 12.18-.33 18.17.61-2.02-.08-4.03-.08-6.04-.12 4.75 2 9.54 4.98 11.07 10.24l.06 2.29.03 1.35c-4.28-8.69-13.72-14.17-23.29-14.37zm35.4 3.67l3.95-1.87c.69 2.08 1.57 4.27.88 6.49-.12 1.97-2.53 1.78-3.87 2.35l-.96-6.97z" fill="#424049"/><path fill="#63463c" d="M95.29 155.16c3.92-.25 7.78.44 11.43 1.87.85.76 1.69 1.54 2.49 2.36l-2.45 3.62c-3.16-.52-6.36-.91-9.57-.92l-2.57-2.3.1-1.96.57-2.67z"/><path fill="#e7e0d6" d="M151.35 155.08c2.93-1.64.35 3.25 0 0z"/><path fill="#efe8e9" opacity=".98" d="M161.67 155.11c.61-1.03 3.06-.78 2.81.64-.64.95-3.03.76-2.81-.64z"/><path fill="#4e4947" d="M170.98 155.3c2.78.02 5.49 1.02 6.13 4.04l-10.85.11-.25 1.8-1.91-2.47-1.2-1.64 9.06-.24-.98-1.6z"/><path fill="#888386" d="M202.55 162.16c4.11-2.55 8.07-5.36 12.36-7.59 9.57.2 19.01 5.68 23.29 14.37 0-.34-.02-1.01-.03-1.35 2.46-.24 4.35-1.8 5.96-3.54-.67-1.01-1.31-2.01-2.01-2.98l3.23-1.57 1.88 3.61 1.64 3.06.7 1.35c.38 3.02.72 6.07.72 9.12-1.52 1.4-1.06 3.31-.6 5.08l.55 2.7 5.96-1.07.55 11.96-1.3-1.08c-.63-2.15-.9-4.38-1.22-6.58l-.48 6.24c-3.49-4.57-5.6-10.43-10.69-13.56 3.02 6.09 7.37 11.46 9.7 17.9l-5.31-1.65c-2.14-3.83-4.79-7.35-7.51-10.79-1.62-2.75.42-4.91 2.5-6.57l-3.19-5.47c-.54 3.33-.93 6.9-3.19 9.59-1.07 1.81-3.29 3.32-3.31 5.55 1.47 2.58 3.62 4.68 5.34 7.1l-.06 6.27c-.88-.81-1.75-1.63-2.58-2.48-.72-.84-1.41-1.7-2.08-2.57l-2.34-3.03c2.49-.83-.43-3.55-1.16-1.06a69.95 69.95 0 0 0-2.19-1.66l.33-1.94 1.36 1.13c-.25-5.49 6.08-7.96 7.06-13.16.48-3.15.42-6.61-1.7-9.2-4.96-6.7-13.08-12.73-21.88-10.68-2.89 1.6-5.62 3.47-8.56 4.99l-1.74-.44m43.33 11.92l.35 4.2c1.38-1.57 2.18-3.51 2.74-5.5l-3.09 1.3z"/><path fill="#ae765a" d="M227.04 155.06l6.04.12c2.5.29 4.67 1.71 6.56 3.29-.92 2.16-1.53 4.46-1.53 6.83-1.53-5.26-6.32-8.24-11.07-10.24z"/><path d="M248.43 157.64c2.37-1.23 4.98-1.88 7.57-2.48l1.11 15.18-1.45-2.98-6.79-1.19-1.64-3.06c.32-1.84.55-3.71 1.2-5.47m1.88.6l.96 6.97c1.34-.57 3.75-.38 3.87-2.35.69-2.22-.19-4.41-.88-6.49l-3.95 1.87zm-13.88 56.33l1.53-1.77c-.6 2.47-1.01 5.34-3.28 6.9-2.55 2.27-6.13 2.05-9.3 2.4l.23-.72c3.99-1.58 8.04-3.4 10.82-6.81z" fill="#171514"/><path d="M256 155.16l2.18-.48c-.05 4.1.37 8.19 1 12.24-.83 2.35-.83 4.96.62 7.08-.25 6.99 2.79 13.49 2.92 20.42l-3.65.5c.11-5.3.51-10.66-.76-15.86l-.1-.64c.15-2.5.05-5.04-.93-7.38l-.17-.7c-.22-5.07-.73-10.12-1.11-15.18zm-3.48 56.24l2.38-1.67c-1.57 2.16-3.22 4.26-5.04 6.21-2.55 2.72-5.07 5.47-7.79 8.02-3.48 3.09-6.63 6.52-9.68 10.03 2.44-3.74 5.7-6.79 8.79-9.97 1.14-.94 1.46-2.39 1.56-3.79l.19.92c3.34-3.11 6.35-6.55 9.59-9.75zm8.86 31.83l2.25-1.12c.86 7.32 1.46 14.68 2.63 21.96l-.94.53-.94-.65c-1.73-6.8-.99-14-3-20.72z" fill="#9b9a9d"/><path d="M258.18 154.68c1.25 4.71 1.61 9.6 2.39 14.41.37 5.27-1.23 11.45 2.29 15.96 1.48 2.26 4.42 1.91 6.75 2.42l.75 6.14c2.07.15 4.14.38 6.22.57.2 9.23 2.31 18.29 2.36 27.52l-.02 5.21-3.32 1.41.74 2.88.3 1.23-1.27 3.82-1.44-9.25c-1.99 2.65-1.8 5.92-1.58 9.04l-.82.51c-.45-2.59-.78-5.22-1.54-7.74l2.31-1.68c1.87-4.04 1.76-8.87-.35-12.8-.3 3.4.15 6.91-.93 10.21l-.49-.91c-.69-2.34-1-4.77-1.1-7.2 3.27-4.59 4.01-10.58 1.35-15.66-.67 3.45.06 6.96-.21 10.43l-1.7 1.05c-.6-6-.43-12.01.7-17.94l-5.1-.09c.1 2.16.19 4.32.44 6.47.11 5.27.2 10.56-.71 15.77h-4.43l-5.32.03-.7 4.52c-1.71-1.33-2.84-3.21-3.89-5.07 1.82-1.95 3.47-4.05 5.04-6.21-.81.54-1.6 1.1-2.38 1.67l-.48-6.51c.76 1.32 1.6 2.59 2.44 3.86.69-3.2.83-6.5.3-9.74 1.16.9 2.29 1.87 3.59 2.6 1.53.03 3.03-.32 4.55-.55l-.85-5.27-5.03.19-.29-.67-.55-11.96 1.8.4.31-4.69c1.27 5.2.87 10.56.76 15.86l3.65-.5c-.13-6.93-3.17-13.43-2.92-20.42.61-2.35.48-4.9-.62-7.08-.63-4.05-1.05-8.14-1-12.24m17.08 57.24c1.36-3.92.14-8.15-.58-12.08-2.05 3.6-1.7 8.59.58 12.08m-14.17-10.25c.24 3.53.03 7.26 1.31 10.6l1.25.82c-.32-3.51-.45-7.07-1.18-10.53l-1.38-.89m-.96 11.74c.59-3.9.27-7.93-1.15-11.62-1.34 3.72-.97 8.25 1.15 11.62m14.47 1.35c.28 3.16-.37 7.89 3 9.51.04-3.01-.11-6.02-.15-9.03l-2.85-.48zm6.46.23c8.75 5.84 16.87 12.58 25.57 18.49 1.67 12.28-3.26 25.36-13.11 33.01-4.52 3.77-10.34 5.26-15.89 6.78.44-1.24.11-2.24-.98-2.99 14.33-.38 25.37-13.4 27.77-26.81.52-3.98 2.2-9.4-1.81-12.11-7.1-5.56-14.61-10.6-21.55-16.37zm-15.74 49.61l.94-.53 1.05-.59c.49 4.49.99 8.99 1.24 13.5-1.58-.64-3.11-1.38-4.7-1.96 1.01-.77 1.02-2.34.04-3.14l1.76-.5c.03-2.27-.19-4.52-.33-6.78z" fill="#25292e"/><path fill="#82726d" d="M124.45 157.87l11.1-1.85c4.01.04 8.06-.53 12.02.37-2.14.77-4.31 1.49-6.5 2.1-.58 5.25.69 10.4 2.09 15.41l.9 3.46-3.1-.16c-.27-1.14-.51-2.29-.74-3.43-.3-3-.59-6-1.03-8.98-.3-1.98-.78-3.91-1.22-5.85-3.89.33-7.8.65-11.63 1.44l-.54.68-2.9 3.67-1.9-3.62c-2.6-.36-5.22-.57-7.83-.8-.38 3.07-.74 6.22-.05 9.28.83 1.31 1.73 2.57 2.56 3.88a62.24 62.24 0 0 1 1.53 2.92l-3.47-.09c-2.29-.25-4.6-.44-6.87-.81l-.75-1.78 1.13-.16 1.98-.37 1.23-.68c.1-4.35 1.17-9.18-1.25-13.11-.8-.82-1.64-1.6-2.49-2.36 3.32.39 6.65.67 9.99.72l1.82 2.84 5.92-2.72z"/><path fill="#cfc4bd" d="M158.11 159.73c.19-2.33 3.07-2.22 4.79-2.59l1.2 1.64c-.08 3.31-.5 6.59-.87 9.87l-1.19 5.65-3.08-.56c-.19-4.67-.99-9.33-.85-14.01z"/><path fill="#484e52" d="M212.85 157.61c8.8-2.05 16.92 3.98 21.88 10.68 2.12 2.59 2.18 6.05 1.7 9.2-3.35-.37-6.7-.64-10.07-.79l1.53-4.11c-2.43-.43-4.43.92-6.15 2.46-2.25-.15-4.5-.32-6.75-.32l-.91.05c2.09-3.94 4.36-7.79 5.95-11.96-3.42.65-6.69 1.99-9.37 4.23l-.15-1.88c2.11-1.53 4.1-3.22 5.94-5.07l-2.36-.23 1.68-1.8-2.92-.46m19.39 13.64c.55.55.55.55 0 0z"/><path fill="#afa9a8" opacity=".96" d="M116.71 157.75l7.74.12-5.92 2.72-1.82-2.84z"/><path fill="#3c3f3f" d="M204.29 162.6c2.94-1.52 5.67-3.39 8.56-4.99l2.92.46-1.68 1.8c-1.51 1.53-2.86 3.26-3.58 5.3l.15 1.88c-3.11 3.05-5.2 6.9-7.28 10.68l-.94 1.63c-2.09-1.9-5.15-3.44-5.78-6.41.17-4.69 4.24-7.75 7.63-10.35z"/><path fill="#d3c8c2" d="M126.34 160.38c3.83-.79 7.74-1.11 11.63-1.44.44 1.94.92 3.87 1.22 5.85-.04 2.71.34 5.81-1.29 8.16-2.59 1.54-5.93.84-8.61-.12-4.72-1.72-3.33-7.84-3.49-11.77l.54-.68z"/><path fill="#a29992" d="M164.1 158.78l1.91 2.47c-.43 4.15-.79 8.3-1.4 12.42 1.75-1.6 3.6-3.15 5.77-4.18l3.21-1.28 4.65 1.98-3.39 5.57c-3.51-.38-7.18-.54-10.41 1.11-.17-2.77-.75-5.49-1.21-8.22.37-3.28.79-6.56.87-9.87z"/><path fill="#ccc0b8" d="M166.26 159.45l10.85-.11 6.24.39c-3.71 1.35-7.71 2.29-10.93 4.66-1.05 1.52-1.45 3.37-2.04 5.1-2.17 1.03-4.02 2.58-5.77 4.18.61-4.12.97-8.27 1.4-12.42l.25-1.8z"/><path fill="#4b3221" d="M186.29 159.7c2.23-.25 4.44-.77 6.69-.79 3.2.39 6.05 2.04 8.89 3.44-3.45 1.11-7.09 1.24-10.67 1.67-2.43.69-4.79 1.62-7.01 2.81a50.47 50.47 0 0 0-2.7 2.35c-1.18 1.73-2.24 3.56-3.12 5.46-.85 1.88-1.53 3.84-2.07 5.83-.39 1.39-.73 2.8-1.08 4.2-.77 3.11-1.66 6.32-3.77 8.82-2.61 3.68-7.7 1.17-11.41 1.48 1.28-6.08 3.98-11.85 4.4-18.1 3.23-1.65 6.9-1.49 10.41-1.11l3.39-5.57-4.65-1.98c4.74-1.95 9.34-4.53 12.7-8.51z"/><path fill="#eba582" d="M238.11 165.3c0-2.37.61-4.67 1.53-6.83l2.48 2.6 2.01 2.98c-1.61 1.74-3.5 3.3-5.96 3.54l-.06-2.29z"/><path fill="#9b7a72" d="M94.62 159.79l2.57 2.3c3.21.01 6.41.4 9.57.92l1.49 6.73c-3.31-.69-6.64-1.36-10.01-1.63-1.11-1.88-2.32-3.69-3.59-5.46l-.03-2.86z"/><path fill="#cec4bc" d="M106.76 163.01l2.45-3.62c2.42 3.93 1.35 8.76 1.25 13.11l-1.23.68-.98-3.44c-.57-2.22-1.02-4.48-1.49-6.73z"/><path fill="#d9cec9" d="M113.17 160.31l7.83.8c.63 3.19 1.02 6.43 1.17 9.68l-9.05-1.2c-.69-3.06-.33-6.21.05-9.28z"/><path fill="#c88e72" d="M183.35 159.73l2.94-.03c-3.36 3.98-7.96 6.56-12.7 8.51l-3.21 1.28c.59-1.73.99-3.58 2.04-5.1 3.22-2.37 7.22-3.31 10.93-4.66z"/><path fill="#8f8c8b" d="M214.09 159.87l2.36.23c-1.84 1.85-3.83 3.54-5.94 5.07.72-2.04 2.07-3.77 3.58-5.3z"/><path fill="#a8958f" d="M121 161.11l1.9 3.62 2.9-3.67c.16 3.93-1.23 10.05 3.49 11.77 2.68.96 6.02 1.66 8.61.12 1.63-2.35 1.25-5.45 1.29-8.16.44 2.98.73 5.98 1.03 8.98l-.3 1.59c-3.62-.26-7.23-.75-10.86-.71-1.88-1.17-3.66-3.58-6.14-2.76l-7.24 1.58c-.83-1.31-1.73-2.57-2.56-3.88l9.05 1.2c-.15-3.25-.54-6.49-1.17-9.68z"/><path fill="#a7968f" d="M201.87 162.35l.68-.19 1.74.44c-3.39 2.6-7.46 5.66-7.63 10.35.63 2.97 3.69 4.51 5.78 6.41l.1 1.45-2.62 1.47-.62-.51c-3.47-2.48-5.43-6.32-7.05-10.14 1.93-2.01 3.52-4.3 4.95-6.68-5.24 2.11-8.85 6.53-12.48 10.65-1.28-2.03-2.38-4.18-3.23-6.42a50.47 50.47 0 0 1 2.7-2.35l1.15 3.11 6.43-2.98-.57-2.94c3.58-.43 7.22-.56 10.67-1.67z"/><path d="M94.65 162.65l3.59 5.46-3.32-.01-.27-5.45zm169.82 31.57l5.1.09c-1.13 5.93-1.3 11.94-.7 17.94l1.7-1.05c.27-3.47-.46-6.98.21-10.43 2.66 5.08 1.92 11.07-1.35 15.66l-2.24.11c-.27-1.86-.55-3.73-.74-5.6-.19-3.45-.73-6.88-1.54-10.25-.25-2.15-.34-4.31-.44-6.47z" fill="#f8f8f9"/><path fill="#858185" d="M210.66 167.05c2.68-2.24 5.95-3.58 9.37-4.23-1.59 4.17-3.86 8.02-5.95 11.96l-3.78 6.69c.13-5.01 4.27-9.26 3.15-14.29-4.04 3.55-6.3 8.5-7.56 13.63l4.19 1.49c.41 1.37.79 2.75 1.16 4.14-1.55-.67-3.22-1.12-4.62-2.09-1.65-1.87-2.29-4.37-3.24-6.62 2.08-3.78 4.17-7.63 7.28-10.68z"/><path fill="#74635d" d="M184.19 166.83c2.22-1.19 4.58-2.12 7.01-2.81l.57 2.94-6.43 2.98-1.15-3.11z"/><path fill="#766961" d="M184.72 175.6c3.63-4.12 7.24-8.54 12.48-10.65-1.43 2.38-3.02 4.67-4.95 6.68-2.17 2.31-4.28 4.73-5.7 7.59l-2.25.69-1.73-2.38c-1.96 1.66-3.43 3.76-4.27 6.19l3.55 1.71c-.15.32-.46.94-.61 1.25-1.77-.46-3.5-1.03-5.21-1.67l-.81-.34 1.08-4.2c2.12-1.31 2.54-3.52 2.07-5.83.88-1.9 1.94-3.73 3.12-5.46.85 2.24 1.95 4.39 3.23 6.42z"/><path fill="#535357" opacity=".9" d="M259.18 166.92c1.1 2.18 1.23 4.73.62 7.08-1.45-2.12-1.45-4.73-.62-7.08z"/><path fill="#65473e" d="M94.92 168.1l3.32.01c3.37.27 6.7.94 10.01 1.63l.98 3.44-1.98.37c-3.28-2.09-7.23-1.1-10.84-.81l-1.22-1.71-.27-2.93z"/><path fill="#c5c0c0" d="M205.89 180.81c1.26-5.13 3.52-10.08 7.56-13.63 1.12 5.03-3.02 9.28-3.15 14.29l-.22.83-4.19-1.49z"/><path d="M249.57 167.52c2.71 5.05 4.44 10.55 6.63 15.83l-5.96 1.07-.55-2.7c.31-1.68.56-3.37.6-5.08 0-3.05-.34-6.1-.72-9.12zm-93.89 65.89c-1.22-2.86-.38-5.97.12-8.88.96 3.87 1.14 8.07 3.12 11.6 3.21 3.52 8.21 4.42 12.4 6.29-6.42.86-13.28-2.93-15.64-9.01z" fill="#716c6c"/><path fill="#685d58" opacity=".94" d="M163.23 168.65l1.21 8.22c-.42 6.25-3.12 12.02-4.4 18.1l-.76.28c-.04-4.25.73-8.44 2.41-12.34-.13-.46-.41-1.37-.55-1.82l-1.17-.91c-2.01.3-4 .76-6.01 1.11l-.84-.16-1.52-.45c3.32-2.9 4.79-7.04 5.42-11.28.32 2.4.54 4.82.6 7.25v2.31c1.96-.1 3.93-.27 5.79-.95l-1.96-.52a112.02 112.02 0 0 1 .59-3.19l1.19-5.65z"/><path fill="#ada29d" d="M153.24 175.67l3.78-6.27c-.63 4.24-2.1 8.38-5.42 11.28l-2.38-.68.49-3-9.06 2.23-2.73-.04-.83-.12-10.62-1.99c4.74-1.71 9.66-.11 14.49.12l3.1.16-.9-3.46a179.95 179.95 0 0 0 10.08 1.77z"/><path fill="#28211d" opacity=".7" d="M95.19 171.03l1.22 1.71c3.61-.29 7.56-1.28 10.84.81l-1.13.16c-3.51-.87-7.12-.48-10.65.03l-.28-2.71z"/><path fill="#69605d" d="M122.92 171.89c2.48-.82 4.26 1.59 6.14 2.76l-6.97.47.83-3.23z"/><path fill="#c0c5cc" d="M232.24 171.25c.55.55.55.55 0 0z"/><path fill="#212021" opacity=".71" d="M257.28 171.04c.98 2.34 1.08 4.88.93 7.38-1.72-2.12-1.89-4.9-.93-7.38z"/><path fill="#8b8382" d="M115.68 173.47l7.24-1.58-.83 3.23 6.97-.47c3.63-.04 7.24.45 10.86.71l.3-1.59.74 3.43c-4.83-.23-9.75-1.83-14.49-.12-3.1-.14-6.17-.51-9.26-.69a62.24 62.24 0 0 0-1.53-2.92z"/><path fill="#e2a07e" d="M186.55 179.22c1.42-2.86 3.53-5.28 5.7-7.59 1.62 3.82 3.58 7.66 7.05 10.14-1.73 2.04-3.4 4.13-4.89 6.35-4.46 6.08-3.46 14.07-4.78 21.12-1.56-2.01-3.22-3.94-4.8-5.94 2.31-3.47 4.22-7.21 5.35-11.24a14.79 14.79 0 0 0-8.46.5c1.36-1.93 2.97-3.72 3.92-5.9.71-2.41.62-4.96.91-7.44z"/><path d="M221.74 175.05c1.72-1.54 3.72-2.89 6.15-2.46l-1.53 4.11c3.37.15 6.72.42 10.07.79-.98 5.2-7.31 7.67-7.06 13.16l-1.36-1.13c-2.08-1.56-4.63-2.24-7.09-2.91l-7.14-2.08c.24-3.29.74-6.54 1.21-9.8 2.25 0 4.5.17 6.75.32zm9.13 84.43l.88-1.82c6.97 9.76 19.09 17.51 31.46 14.39l-.01 2.77c-3.72-.32-7.48-.17-11.17-.8-4.58-.8-8.77-2.95-12.79-5.18-3.03-2.89-5.98-5.91-8.37-9.36z" fill="#3a3d3e"/><path fill="#cdc6c7" d="M245.88 174.08l3.09-1.3c-.56 1.99-1.36 3.93-2.74 5.5l-.35-4.2z"/><path fill="#6b5b57" d="M239.25 173.75l3.19 5.47c-2.08 1.66-4.12 3.82-2.5 6.57-1.24-.91-2.57-1.67-3.88-2.45 2.26-2.69 2.65-6.26 3.19-9.59z"/><path d="M176.3 180.47c.54-1.99 1.22-3.95 2.07-5.83.47 2.31.05 4.52-2.07 5.83zm14.05 41.81l1.91-1.51 5.65 4.96c1.35 1.91 2.48 3.96 3.59 6.02-1.71-1.12-3.52-2.09-5.3-3.1l-3.53-1.8c-1.82 2.81-3.78 5.55-5.95 8.11-.81-.75-1.65-1.45-2.33-2.32a44.55 44.55 0 0 1 2.27-2.07c1.85-1.49 3.3-3.39 4.62-5.34-2.4.51-4.78 1.1-7.16 1.71 2.1-1.52 4.19-3.06 6.23-4.66z" fill="#c7bbb4"/><path fill="#757174" d="M210.3 181.47l3.78-6.69.91-.05-1.21 9.8-.12 2.79c1.06 1.43 2.16 2.91 2.59 4.67-3.98-.37-7.02-3.11-10.64-4.4-2.34.17-4.19 1.96-6.17 3.08-.22 3.4-.84 6.77-1.76 10.05-.39 1.59-.79 3.19-.83 4.84.78 1.02 1.77 1.85 2.69 2.73.33 2.22.36 5.32 2.9 6.2 4.57.2 7.93-3.64 9.82-7.4l1.66 1.83 1.39-1.73.39-.44 2.44 1.13.62 3.08c2.54-1.91 4.81-4.22 6.25-7.09l.19-1.5.49-3.87c.89 2.65 1.57 5.36 2.03 8.13.26.34.77 1.04 1.03 1.39.78-3.99 1.44-8.1.5-12.13l-2.99-1.15-1.63-.3c-.99-2.72-2.38-5.27-3.71-7.83 2.46.67 5.01 1.35 7.09 2.91l-.33 1.94a69.95 69.95 0 0 1 2.19 1.66l1.16 1.06c.8.98 1.57 2.01 2.34 3.03l-1.53.9c-.07 3.77-.43 7.53-1.02 11.26 3.02-2.33 4.21-5.93 4.63-9.59.83.85 1.7 1.67 2.58 2.48.11 4.75-2.8 8.65-5.24 12.45l3.64-.14c-2.78 3.41-6.83 5.23-10.82 6.81.58-2.86 2.31-5.23 4.16-7.41-4.19 2.86-8.9 4.82-13.84 5.94-2.56.37-4.02 2.61-5.56 4.43-.59-1.13-1.22-2.23-1.85-3.33l2.07-1.9c-1.22-.46-2.46-.88-3.7-1.27l.92 3.69c-1.53 1.16-3.99 2.08-3.55 4.46.91 6.2 6.11 10.85 11.69 13.15l1.45-2.27 1.7 1.13c.43 2.76 1.07 5.48 1.82 8.16l-1.63.71c-4.73-4.65-10.39-8.32-14.47-13.62l-3.56 1.97c-.56 4.9-.48 10.12-3.34 14.38-3.04 3.72-6.94 7.2-11.95 7.68-3.6.98-6.6-1.56-9.18-3.67 2.88-.33 5.96.14 8.66-1.12 3.14-2.42 3.13-6.74 3.21-10.33-4.61.92-9.16 2.12-13.82 2.74 2.5-.77 4.93-1.72 7.36-2.68-1.82-.05-3.65-.1-5.47-.07l4-2.22c2.75-.41 5.72-.9 6.98-3.76l1.47-1.95c1.15 2.2 2.43 4.53 2.23 7.11-.12 5.28-3.73 9.49-5.65 14.18 4.98-.83 7.8-5.34 10.56-9.08 1.9-2.38 1.98-5.51 1.78-8.41-.79-1.89-1.66-3.73-2.52-5.58l-.53-1.35 1.15-2.44c1.78 1.01 3.59 1.98 5.3 3.1-1.11-2.06-2.24-4.11-3.59-6.02l1.87-3.94c-2.31-3.1-4.97-5.92-7.99-8.33l.46-.51 3.82-4.04-4.23-1.18c.84-1.08.87-2.12.08-3.11-1.62-.14-.94 2.15-.79 3.08l-1.5 1.54c1.32-7.05.32-15.04 4.78-21.12 3.24.29 5.82-1.6 7.83-3.93l-2.32-1.91 2.62-1.47-.1-1.45.94-1.63c.95 2.25 1.59 4.75 3.24 6.62 1.4.97 3.07 1.42 4.62 2.09l-1.16-4.14.22-.83z"/><path opacity=".58" d="M113.74 176.3l3.47.09 9.26.69c3.55.58 7.09 1.29 10.62 1.99-7.75-1.15-15.82-.31-23.35-2.77zm165.2 45.4c3.96 3.17 2.76 8.46 1.42 12.62l-1.47-5.78c-1.05-2.29-2.85 1.4-2.55 2.66l-.74-2.88 3.32-1.41.02-5.21z" fill="#020202"/><path fill="#c9c2c0" d="M140.65 179.23l9.06-2.23-.49 3c-2.84-.41-5.71-.59-8.57-.77z"/><path d="M157.62 178.96v-2.31l3.83.84 1.96.52c-1.86.68-3.83.85-5.79.95zm8.87 33.33c2.03-2.82 3.89-6.51 7.63-7.23 1.66-.57 2.81.96 3.98 1.84 2.91 4.49 6.46 8.5 9.73 12.72l2.52 2.66c-2.04 1.6-4.13 3.14-6.23 4.66 2.38-.61 4.76-1.2 7.16-1.71-1.32 1.95-2.77 3.85-4.62 5.34l-10.6 3.54c-1.75-.49-3.48-1.01-5.24-1.43l4.17-5.33c-2.52.21-4.99.72-7.4 1.47l.05 4.05c2.16 5.28 8.88 4.43 13.09 7.06-1.35.7-2.66 1.48-4 2.22-1.8.14-3.6.25-5.41.27-4.19-1.87-9.19-2.77-12.4-6.29-1.98-3.53-2.16-7.73-3.12-11.6l.99-6.77 3.08-1.73 1.75-1c-.41 4.51-.23 9.05.15 13.57 2.55 1.37 5.93 1.13 7.22-1.85.2-3.18-1.01-6.24-1.58-9.33l-3.38.79c-.05-2.01-.02-4.02.09-6.02l2.37.1z" fill="#fefdfc"/><path fill="#b7b1b3" d="M249.69 181.72c-.46-1.77-.92-3.68.6-5.08-.04 1.71-.29 3.4-.6 5.08z"/><path fill="#8e7e77" d="M178.3 183.72c.84-2.43 2.31-4.53 4.27-6.19l1.73 2.38-2.45 5.52-3.55-1.71z"/><path opacity=".87" d="M137.92 179.19l2.73.04 8.57.77 2.38.68 1.52.45c-5.12-.21-10.22-.73-15.2-1.94zm85.2 63.66c2.32-2.85 4.92-5.51 8.07-7.45-1.63 1.98-3.55 3.76-4.77 6.03-.71 2.95 1.03 5.74 3.22 7.56-.25.36-.77 1.07-1.02 1.42a29.53 29.53 0 0 0 .34.84c.89 2.15 1.86 4.27 2.79 6.41l-.88 1.82c-3.34-4.34-4.72-9.75-7.53-14.4l-2.42 1.08c-.75-2.68-1.39-5.4-1.82-8.16l.66.44c1.15 1.44 2.26 2.92 3.36 4.41z" fill="#202327"/><path fill="#60514b" d="M184.3 179.91l2.25-.69c-.29 2.48-.2 5.03-.91 7.44-.95 2.18-2.56 3.97-3.92 5.9l-3.77 1.12c-.16-2.97-.54-5.99-1.92-8.67l5.21 1.67.61-1.25 2.45-5.52z"/><path fill="#373331" opacity=".88" d="M153.96 181.29l6.01-1.11 1.17.91c-1.4.05-2.71.6-3.95 1.19l-3.23-.99z"/><path fill="#0d0c0b" opacity=".57" d="M157.19 182.28c1.24-.59 2.55-1.14 3.95-1.19l.55 1.82c-1.53.4-3.06-.15-4.5-.63z"/><path fill="#7a6964" d="M243.06 180.33c5.09 3.13 7.2 8.99 10.69 13.56l.48-6.24c.32 2.2.59 4.43 1.22 6.58l1.3 1.08.29.67-2.61.07.35 2.96c.53 3.24.39 6.54-.3 9.74-.84-1.27-1.68-2.54-2.44-3.86l-4.59-8.31 5.31 1.65c-2.33-6.44-6.68-11.81-9.7-17.9z"/><path fill="#b27d67" d="M199.3 181.77l.62.51 2.32 1.91c-2.01 2.33-4.59 4.22-7.83 3.93 1.49-2.22 3.16-4.31 4.89-6.35z"/><path fill="#010101" opacity=".78" d="M236.06 183.34l3.88 2.45c2.72 3.44 5.37 6.96 7.51 10.79l4.59 8.31c.21 2.17.32 4.34.48 6.51-3.24 3.2-6.25 6.64-9.59 9.75l-.19-.92-1.06-4.44c2.49-1.02 5.1-2.54 6.07-5.2.51-1.8.02-3.69-.13-5.51-4.14-1.91-7.29-5.19-9.53-9.09-1.72-2.42-3.87-4.52-5.34-7.1.02-2.23 2.24-3.74 3.31-5.55z"/><path fill="#7f797d" d="M175.22 184.67l.81.34c1.38 2.68 1.76 5.7 1.92 8.67l3.77-1.12c.49 2.65.82 5.32.98 8.01.16 4.97 4.38 8.36 6.46 12.58-3.19-2.87-6.1-6.03-9.04-9.14l-2.13 2.01c.12-4.22-1.39-8.17-4.38-11.16-.56 1.65-1.08 3.32-1.73 4.94-2.11-1.21-4.14-3.14-6.72-3.04-1.52 1.71-1.66 4.09-2.19 6.22l7.26-1.28-5.72 5.94c-2.32 2.3-3.63 5.33-4.64 8.39l-3.08 1.73-.7.38 4.97-10.11c-3.87-.61-8.63-1.9-11.81 1.18-1.7 2.43-1.81 5.58-2.76 8.32-1.97-2.53-3.01-5.8-2.03-8.96 1.44-7.14 8.39-11.26 14.82-13.32l.76-.28c3.71-.31 8.8 2.2 11.41-1.48 2.11-2.5 3-5.71 3.77-8.82m-20.69 15.6c-3.44.86-5.19 4.23-6.89 7.03 4.39-.31 7.58-3.66 11.7-4.79 2.39-.59 2.6-3.45 3.56-5.31l-3.53-.25c-1.24 1.6-2.88 2.79-4.84 3.32z"/><path fill="#949194" d="M213.78 184.53l7.14 2.08 3.71 7.83c-.89 2.18 2.38 2.77 1.63.3l2.99 1.15c.94 4.03.28 8.14-.5 12.13l-1.03-1.39c-.46-2.77-1.14-5.48-2.03-8.13l-.49 3.87c-.47-1.87-1.01-3.79-2.1-5.41-1.63-.94-3.61-.91-5.42-1.28l-1.71-1.69.28-2c-.43-1.76-1.53-3.24-2.59-4.67.02-.93.07-1.86.12-2.79z"/><path fill="#a1a0a2" d="M199.44 190.67c1.98-1.12 3.83-2.91 6.17-3.08 3.62 1.29 6.66 4.03 10.64 4.4-.08.67-.19 1.34-.28 2l1.71 1.69-4.06-.72c-.11 1.33-.21 2.66-.38 3.99l-.38 1.71-4.65-1.23-.1 3.64c2.71.77 5.19 2.14 7.2 4.12l-1.39 1.73-1.66-1.83c-1.89 3.76-5.25 7.6-9.82 7.4-2.54-.88-2.57-3.98-2.9-6.2l.66-2.19-2.52-5.38c.92-3.28 1.54-6.65 1.76-10.05m1.68 2.96c-1.07.83.15 2.93 1.38 2.15 1.06-.83-.17-2.91-1.38-2.15z"/><path fill="#fcb68e" d="M181.72 192.56a14.79 14.79 0 0 1 8.46-.5c-1.13 4.03-3.04 7.77-5.35 11.24l-2.13-2.73c-.16-2.69-.49-5.36-.98-8.01z"/><path fill="#ece3de" d="M229.87 193.12c.73-2.49 3.65.23 1.16 1.06l-1.16-1.06z"/><path fill="#e0dbd6" d="M201.12 193.63c1.21-.76 2.44 1.32 1.38 2.15-1.23.78-2.45-1.32-1.38-2.15z"/><path fill="#d8d3c8" d="M224.63 194.44l1.63.3c.75 2.47-2.52 1.88-1.63-.3z"/><path fill="#dfd4cc" d="M173.61 194.86c2.99 2.99 4.5 6.94 4.38 11.16l.11.88c-1.17-.88-2.32-2.41-3.98-1.84-3.74.72-5.6 4.41-7.63 7.23l-2.37-.1c.1-1.52.24-3.04.39-4.55l5.72-5.94c.57-.62 1.12-1.25 1.65-1.9.65-1.62 1.17-3.29 1.73-4.94z"/><path fill="#b3afb4" d="M213.62 194.96l4.06.72c1.81.37 3.79.34 5.42 1.28 1.09 1.62 1.63 3.54 2.1 5.41l-.19 1.5-3.83-2.16c-2.41-1.5-5.11-2.5-7.94-2.76l.38-3.99z"/><path fill="#615e60" d="M238.09 195.99c2.24 3.9 5.39 7.18 9.53 9.09l-1.51 1.97-4.81 1.45-.47 7.56-.71.24-.57-6.66a38.89 38.89 0 0 1-1.59 3.16l-1.53 1.77-3.64.14c2.44-3.8 5.35-7.7 5.24-12.45.08-2.09.07-4.18.06-6.27z"/><path fill="#100e0d" d="M254.43 196.05l2.61-.07 5.03-.19.85 5.27c-1.52.23-3.02.58-4.55.55-1.3-.73-2.43-1.7-3.59-2.6l-.35-2.96z"/><path d="M154.53 200.27c1.96-.53 3.6-1.72 4.84-3.32l3.53.25c-.96 1.86-1.17 4.72-3.56 5.31-4.12 1.13-7.31 4.48-11.7 4.79 1.7-2.8 3.45-6.17 6.89-7.03zm120.07 14.49l2.85.48.15 9.03c-3.37-1.62-2.72-6.35-3-9.51z" fill="#bcb7bd"/><path d="M165.16 196.76c2.58-.1 4.61 1.83 6.72 3.04l-1.65 1.9-7.26 1.28c.53-2.13.67-4.51 2.19-6.22zm72.8 16.04l1.59-3.16.57 6.66c-2.56 3.4-5.36 7.27-9.95 7.81-3.23.16-6.45-.16-9.65-.45 1.52-.77 3.17-1.28 4.86-1.56 3.17-.35 6.75-.13 9.3-2.4 2.27-1.56 2.68-4.43 3.28-6.9z" fill="#b8b4b9"/><path fill="#4a4545" d="M231.84 198.11l1.53-.9 2.08 2.57c-.42 3.66-1.61 7.26-4.63 9.59.59-3.73.95-7.49 1.02-11.26z"/><path d="M208.21 199.43l4.65 1.23.38-1.71c2.83.26 5.53 1.26 7.94 2.76l-5.48 5.04-.39.44c-2.01-1.98-4.49-3.35-7.2-4.12l.1-3.64zm63.74 14.9c2.11 3.93 2.22 8.76.35 12.8l-1.28-2.59c1.08-3.3.63-6.81.93-10.21z" fill="#e4dee2"/><path d="M275.26 211.92c-2.28-3.49-2.63-8.48-.58-12.08.72 3.93 1.94 8.16.58 12.08zm-15.13 1.49c-2.12-3.37-2.49-7.9-1.15-11.62 1.42 3.69 1.74 7.72 1.15 11.62zm-.36 3.05h4.43c-.29 2.98-.04 5.98.03 8.96l-1.95-7.95c-.79 2.73-.96 5.58-1.36 8.38-.67-3.09-.97-6.24-1.15-9.39zm12.58 19.58c-.22-3.12-.41-6.39 1.58-9.04l1.44 9.25-2.96 1.73-.06-1.94zm3.5 34.3l.8-.06c1.09.75 1.42 1.75.98 2.99l-2.71-.18a12.91 12.91 0 0 1 .93-2.75z" fill="#cfced1"/><path d="M189.16 213.15c-2.08-4.22-6.3-7.61-6.46-12.58l2.13 2.73 4.8 5.94c.9 1.21 1.76 2.46 2.62 3.71l-.46.51c-1.68 1.8-2.93 3.93-3.96 6.16-3.27-4.22-6.82-8.23-9.73-12.72l-.11-.88 2.13-2.01c2.94 3.11 5.85 6.27 9.04 9.14zm71.93-11.48l1.38.89c.73 3.46.86 7.02 1.18 10.53l-1.25-.82c-1.28-3.34-1.07-7.07-1.31-10.6z" fill="#beb8b9"/><path fill="#efeae5" d="M196.85 205.56c.04-1.65.44-3.25.83-4.84l2.52 5.38-.66 2.19c-.92-.88-1.91-1.71-2.69-2.73z"/><path fill="#5f4a43" d="M264.91 200.69c.81 3.37 1.35 6.8 1.54 10.25-1.64 8.47 2.02 16.58 2.07 24.96l-.9 5.27c-.68-4.6-.55-9.43-2.55-13.73-1.45 4.11-.24 8.4.12 12.57l2.12 23.47-1.05.59c-1.17-7.28-1.77-14.64-2.63-21.96l-2.25 1.12-.78-1.82.57-2.48 2.13-.47c-.27-3.56-.55-7.12-1.19-10.63-2.48-2.63-5.42-4.74-8.36-6.82l.7-4.52 5.32-.03c.18 3.15.48 6.3 1.15 9.39.4-2.8.57-5.65 1.36-8.38.78 2.61 1.3 5.3 1.95 7.95-.07-2.98-.32-5.98-.03-8.96.91-5.21.82-10.5.71-15.77z"/><path fill="#aaa4a9" d="M221.18 201.71l3.83 2.16c-1.44 2.87-3.71 5.18-6.25 7.09l-.62-3.08-2.44-1.13c1.67-1.85 3.58-3.45 5.48-5.04z"/><path fill="#d4ccc4" d="M191.13 207.7c-.15-.93-.83-3.22.79-3.08.79.99.76 2.03-.08 3.11l-.71-.03z"/><path fill="#363239" d="M247.62 205.08c.15 1.82.64 3.71.13 5.51-.97 2.66-3.58 4.18-6.07 5.2l-.85.27.47-7.56 4.81-1.45 1.51-1.97z"/><path fill="#c3bbb5" d="M159.87 216.03c1.01-3.06 2.32-6.09 4.64-8.39l-.39 4.55-.09 6.02.7 9.26-2.96 1.13c-.38-4.52-.56-9.06-.15-13.57l-1.75 1z"/><path fill="#918d8d" d="M191.13 207.7l.71.03 4.23 1.18-3.82 4.04-2.62-3.71 1.5-1.54z"/><path fill="#b4b3b7" d="M268.52 235.9c-.05-8.38-3.71-16.49-2.07-24.96.19 1.87.47 3.74.74 5.6l2.24-.11c.1 2.43.41 4.86 1.1 7.2l-3.12 1.46c.87 1.23 1.76 2.45 2.58 3.72.76 2.52 1.09 5.15 1.54 7.74-1.02-.17-2.02-.39-3.01-.65z"/><path fill="#817e84" d="M187.83 219.62c1.03-2.23 2.28-4.36 3.96-6.16 3.02 2.41 5.68 5.23 7.99 8.33l-1.87 3.94c-1.72-1.83-3.7-3.39-5.65-4.96l-1.91 1.51-2.52-2.66z"/><path fill="#5f5956" d="M215.93 219.91c4.94-1.12 9.65-3.08 13.84-5.94-1.85 2.18-3.58 4.55-4.16 7.41l-.23.72c-1.69.28-3.34.79-4.86 1.56-2.91 2.19-6.18 4.46-7.09 8.21-1.02-2.51-1.87-5.09-3.06-7.53 1.54-1.82 3-4.06 5.56-4.43z"/><path opacity=".76" d="M249.86 215.94c1.05 1.86 2.18 3.74 3.89 5.07 2.94 2.08 5.88 4.19 8.36 6.82l-4.09.92c-.39-1.37-.83-2.72-1.27-4.07-1.85 2.58-4.85 5.01-4.37 8.52.27 6.17.95 12.31 1.74 18.43l6.91.13c-.15-3.16-.34-6.32-.64-9.46l.21-.89.78 1.82c2.01 6.72 1.27 13.92 3 20.72-2.95-2.85-2.23-7.42-2.9-11.13-3.8.24-6.89 2.9-10.4 3.69-7.27-2.22-15.07-2.22-22.12-5.26a29.53 29.53 0 0 1-.34-.84l1.02-1.42c5.76 3.02 12.35 4.62 18.79 3.07-1.32-4.64-3.14-9.19-3.36-14.06-.28-4.81-1.39-9.51-3-14.04 2.72-2.55 5.24-5.3 7.79-8.02z"/><path fill="#eae4e2" d="M164.03 218.21l3.38-.79c.57 3.09 1.78 6.15 1.58 9.33-1.29 2.98-4.67 3.22-7.22 1.85l2.96-1.13-.7-9.26z"/><path fill="#998f93" d="M156.09 218.14l.7-.38-.99 6.77c-.5 2.91-1.34 6.02-.12 8.88 2.36 6.08 9.22 9.87 15.64 9.01 1.81-.02 3.61-.13 5.41-.27 1.82-.03 3.65.02 5.47.07-2.43.96-4.86 1.91-7.36 2.68-3.98.81-8.05.03-11.82-1.32l-1-.39c-2.94-1.53-6.61.18-9.25-2.13l3.12-1.85-.88-.88c-1.19-3.75-2.61-7.46-3.11-11.38-.45-3.03 1.6-5.62 2.96-8.14a48.21 48.21 0 0 0 1.23-.67z"/><path fill="#fbf8f5" d="M206.89 217.84l3.7 1.27-2.07 1.9-.71.52-.92-3.69z"/><path fill="#6a5552" d="M146.55 225.55c2-3.1 4.73-5.63 8.31-6.74-1.36 2.52-3.41 5.11-2.96 8.14.5 3.92 1.92 7.63 3.11 11.38-5.63-1.7-6.63-8.02-8.46-12.78z"/><path fill="#aeacb0" d="M207.81 221.53l.71-.52 1.85 3.33c1.19 2.44 2.04 5.02 3.06 7.53 1.19 1.76 2.47 3.48 3.97 5l-1.45 2.27c-5.58-2.3-10.78-6.95-11.69-13.15-.44-2.38 2.02-3.3 3.55-4.46m-.48 1.37c-.56 1.39-2.46 2.75-1.5 4.35.93 2.44 2.7 4.42 4.83 5.88-.83-3.46-.51-7.62-3.33-10.23z"/><path fill="#fbf7f8" d="M207.33 222.9c2.82 2.61 2.5 6.77 3.33 10.23-2.13-1.46-3.9-3.44-4.83-5.88-.96-1.6.94-2.96 1.5-4.35z"/><path fill="#020202" opacity=".55" d="M213.43 231.87c.91-3.75 4.18-6.02 7.09-8.21 3.2.29 6.42.61 9.65.45-3.46.61-7.14.29-10.44 1.58-3.56 3.41-.57 8.69.03 12.75l-.66-.44-1.7-1.13c-1.5-1.52-2.78-3.24-3.97-5z"/><path fill="#efeef0" d="M267.41 225.09l3.12-1.46.49.91 1.28 2.59-2.31 1.68-2.58-3.72z"/><path fill="#b37052" d="M144.72 232.35c-1.28-2.45.35-4.9 1.83-6.8 1.83 4.76 2.83 11.08 8.46 12.78l.88.88-3.12 1.85c-2.94-2.63-6.12-5.21-8.05-8.71z"/><path fill="#e4dcd9" d="M167.59 228.82c2.41-.75 4.88-1.26 7.4-1.47l-4.17 5.33-3.18.19-.05-4.05z"/><path d="M192.67 226.85l3.53 1.8-1.15 2.44c-2.05.84-4.13 1.72-5.87 3.13l-1.47 1.95-3.23-.71-1.34 2.45-7.08-3.8 10.6-3.54a44.55 44.55 0 0 0-2.27 2.07c.68.87 1.52 1.57 2.33 2.32 2.17-2.56 4.13-5.3 5.95-8.11zm1.44 10.23l1.47-4.64 2.52 5.58-3.99-.94z" fill="#f1e9e7"/><path fill="#5c5c60" d="M258.02 228.75l4.09-.92c.64 3.51.92 7.07 1.19 10.63l-2.13.47-.57 2.48-.21.89c-1.24-4.44-1.23-9.1-2.37-13.55z"/><path fill="#b7b6ba" d="M265.07 227.44c2 4.3 1.87 9.13 2.55 13.73.68 7.95 2.6 15.81 2.26 23.83-.03 4.12 1.55 8.06 1.46 12.19l-2.79-.21c-.25-4.51-.75-9.01-1.24-13.5-.55-7.83-1.33-15.65-2.12-23.47-.36-4.17-1.57-8.46-.12-12.57z"/><path fill="#abaaae" d="M276.34 231.2c-.3-1.26 1.5-4.95 2.55-2.66-.59 1.38-1.33 2.7-2.25 3.89l-.3-1.23z"/><path fill="#616165" opacity=".9" d="M276.64 232.43c.92-1.19 1.66-2.51 2.25-3.89.68 2.7 1 5.52.46 8.28-1.27-1.22-2.08-2.77-2.71-4.39z"/><path fill="#9d979f" d="M189.18 234.22c1.74-1.41 3.82-2.29 5.87-3.13l.53 1.35-1.47 4.64 3.99.94c.2 2.9.12 6.03-1.78 8.41-2.76 3.74-5.58 8.25-10.56 9.08 1.92-4.69 5.53-8.9 5.65-14.18.2-2.58-1.08-4.91-2.23-7.11z"/><path fill="#b5a598" d="M167.64 232.87l3.18-.19 5.24 1.43c2.45 1.09 4.78 2.42 7.08 3.8l1.34-2.45 3.23.71c-1.26 2.86-4.23 3.35-6.98 3.76-4.21-2.63-10.93-1.78-13.09-7.06z"/><path fill="#181b25" d="M267.62 241.17l.9-5.27 3.01.65.82-.51.06 1.94 2.96-1.73-1.02 4.11-3.59.84.77 7.21c.9 7.37.34 15.34 4.32 21.93a12.91 12.91 0 0 0-.93 2.75l-1.27 3.87-2.31.23c.09-4.13-1.49-8.07-1.46-12.19.34-8.02-1.58-15.88-2.26-23.83z"/><path fill="#1b1817" opacity=".35" d="M159.03 244.35c-.82.48-3.81-.74-1.94-1.5 1.65-.09 3.3.08 4.93.34l1 .39a34.24 34.24 0 0 1-3.99.77z"/><path fill="#a2a1a6" opacity=".95" d="M263.21 272.05l.68-.17c.98.8.97 2.37-.04 3.14l-.65-.2.01-2.77z"/></svg>