<svg xmlns="http://www.w3.org/2000/svg" width="512" height="512" viewBox="0 0 384 384" xmlns:v="https://vecta.io/nano"><path fill="#1e1c1a" d="M238.7 117.13c1.7.52 3.52 1.02 4.75 2.41 6.38 6.38 8.88 15.54 9.61 24.3l-1.94-.34c-.53 4.36-.19 8.77-.66 13.13-.73 2.15-2.45 3.78-3.74 5.61l4.35.86-.44 1.55 2.38 2.57c-1.09 2.97-4.41 4.4-5.05 7.61-.07-.99-1.15-2.08-2.07-1.18-1.18 1.13.17 2.65 1.19 3.3-1 2.56-1.85 5.18-3.2 7.58l-.52.89c-1.1-.68-2.19-1.36-3.22-2.13 1.11-2 2.27-4.01 2.95-6.21.45-1.97.72-3.96 1-5.95.74-2.07-1.52-3.3-3.28-2.94-6.56-1.25-12.99-3.65-18.54-7.41-2.15-1.42-4.49-2.53-6.93-3.31 1.16-4.19 4.15-7.51 6.07-11.35 1.13-2.58 1.06-5.43.87-8.17 5.74 3.97 12.1 6.97 17.72 11.15l2.7 4.63-3.7-.38c1.95 2.33 3.44 4.98 4.76 7.71.5 1.44 2.57.65 2.81-.6 1.6-2.54 2.13-5.56 2.52-8.49 1-8.62.26-17.66-3.5-25.57-1.64-3.54-4.54-6.23-6.89-9.27m-10.96 38.91l2.98-1.37.36-3.94c-2.04 1.07-3.06 3.09-3.34 5.31m6.85-.48l.69 4.36 2.6-4.64-3.29.28z"/><path d="M225.89 130.66c3.04-2.41 5.88-5.05 8.52-7.89-2.13 3.28-4.92 6.22-8.52 7.89zM183.1 146.1c5.29-2.99 13.19-5.14 17.48.63-4.35 1.54-7.51 4.93-10.52 8.24-1.97-2.34-4.29-4.37-6.88-6l1.19-3.24-1.27.37zm68.02-2.6l1.94.34c.33 6.47-.57 12.96-1.99 19.26l-4.35-.86c1.29-1.83 3.01-3.46 3.74-5.61.47-4.36.13-8.77.66-13.13z" fill="#4d555b"/><path fill="#1f242e" d="M166.02 127.24c4.84-.09 9.74-.3 14.53.47 5.55 1.9 9.85 6.16 15.09 8.68 3.31 1.48 6.82-.54 9.75-2.02-.87 1.43-1.29 3.23-2.61 4.31-1.64.38-3.32.55-4.98.8l4.78 3.16.6 1.9c-3.24-.12-5.61-2.53-8.19-4.18-5.06-3.69-10.91-6.02-16.59-8.55-1.89-.81-3.97-.85-5.98-1.03l1.01 3.41-3.1.94.48-1.94-5.16-3.28.37-2.67z"/><path fill="#6b6665" d="M172.42 130.78c2.01.18 4.09.22 5.98 1.03 5.68 2.53 11.53 4.86 16.59 8.55-1.98.07-3.97.11-5.95.04-3.44-1.26-7.09-.78-10.65-.65l1.44-2.6-.35-2.33c-.97-.97-1.99-1.88-3.02-2.77-.99.75-1.97 1.5-3.03 2.14l-1.01-3.41m13.65 5.5c-1.5 3.05 3.28.16 0 0z"/><path opacity=".73" d="M231.1 130.84c4.16 1.51 7.27 4.89 9.12 8.84 3.53 6.57 3.24 14.16 3.54 21.38-1.32-2.73-2.81-5.38-4.76-7.71l3.7.38-2.7-4.63c-.46-3.04-.75-6.17-2.02-9.01-1.51-3.6-4.44-6.29-6.88-9.25z"/><path fill="#d97" d="M176.46 132.05l3.02 2.77c-1.46.28-1.28 2.74.35 2.33l-1.44 2.6-.87-.01-1.64-.82c-2.68-1.26-5.68-1.56-8.34-2.86l2.79-.93 3.1-.94c1.06-.64 2.04-1.39 3.03-2.14z"/><path fill="#5c5d5f" d="M205.39 134.37l.54-.4c.13 2.82.77 5.67.38 8.5-.79 1.21-1.78 2.27-2.7 3.38l-.43-1.31-.6-1.9-4.78-3.16 4.98-.8c1.32-1.08 1.74-2.88 2.61-4.31z"/><path fill="#0e0e0f" d="M205.93 133.97l3.38 1.82-1.94 1.69c1.9 2.75 2.54 6.16 4.65 8.79.6-2.74-.11-5.45-.87-8.07 1.82.01 3.67-.11 5.47.22 1.83.32 1.97 2.51 2.8 3.83l-4.39 3.44c-2.81 2.41-5.24 5.21-7.99 7.69-1.13-2.52-2.41-4.97-3.43-7.53.92-1.11 1.91-2.17 2.7-3.38.39-2.83-.25-5.68-.38-8.5z"/><path fill="#202631" d="M220.09 135.33l1.99-1.79.2 4.41c.19 2.74.26 5.59-.87 8.17l-1.99-3.87c-.83-1.32-.97-3.51-2.8-3.83-1.8-.33-3.65-.21-5.47-.22.76 2.62 1.47 5.33.87 8.07-2.11-2.63-2.75-6.04-4.65-8.79l1.94-1.69c3.58-.4 7.18-.72 10.78-.46z"/><path fill="#fbf4eb" d="M179.48 134.82l.35 2.33c-1.63.41-1.81-2.05-.35-2.33z"/><path fill="#b27355" d="M160.9 144.89c-.43-4.34 2.78-7.55 6.64-8.83 2.66 1.3 5.66 1.6 8.34 2.86-6.54 3.05-8.92 10.35-9.95 16.95-1.75-2.72-2.89-5.77-3.98-8.8l-1.05-2.18z"/><path d="M186.07 136.28c3.28.16-1.5 3.05 0 0zm3.11 30.97c.61.62.61.62 0 0zm14.21 7.17l.38.2-.38-.2zm-4.14 11.88c.54.54.54.54 0 0zm-49.05 33.92c.58.57.58.57 0 0z" fill="#fff"/><path fill="#8a888b" d="M165.93 155.87c1.03-6.6 3.41-13.9 9.95-16.95l1.64.82c-3.77 2.03-7.34 5.02-8.59 9.27-.95 2.59-.41 5.36.14 7.96 4.63-7.51 11.24-14.16 19.97-16.57 1.98.07 3.97.03 5.95-.04 2.58 1.65 4.95 4.06 8.19 4.18.1.33.32.98.43 1.31 1.02 2.56 2.3 5.01 3.43 7.53 2.75-2.48 5.18-5.28 7.99-7.69l1.56.21-3.14 4.54 2.35 1.81c-2.98 5.56-5.43 11.93-3.56 18.28 5.57.96 11.08 2.41 16.07 5.15-1.62-2.42-3.25-5.03-5.96-6.34-4.19-1.95-6.29-6.66-6.87-11.02 2 1.61 4.06 3.16 6.18 4.62.98 2.01 2.3 3.82 4.05 5.23.88.84 1.8 1.65 2.77 2.39l.85-1.52c.7 1.27 1.43 2.54 2.32 3.71l2.94 2.18-1.88 2.41-.57-.47c-.98-.74-1.98-1.44-2.98-2.14.8 2.38 1.62 4.76 2.56 7.1l-2.18 1.84c1.03 3.59.65 7.29-.82 10.71-.94-.56-1.89-1.08-2.84-1.61-.43-1.44-.94-2.85-1.49-4.24-1.26-3.5-2-7.99-6.31-8.86l-.3 4.95a124.24 124.24 0 0 0-5.35-4.37l-1.83 5.94a124.45 124.45 0 0 1-1.27-5.32c-1.85-.24-4.08.56-4.51 2.55-.14 2.3 0 4.62-.28 6.92 2.22.68 4.5.51 6.56-.61l1.02.84-.51 1.01c-1.34 2.12-1.72 4.61-2.47 6.96-1.67 2.09-4.66 2.35-7.04 3.24-1.5-1.55-3.02-3.19-3.57-5.33-1.18-4.12-3.03-8.45-1.92-12.8l.11-.26.21-.38c.83.98 2.19 2.69 3.64 1.82 1.03-1.85-1.86-2.86-3.27-2.43l.83-8.37c1.77-.19 3.67-.68 5.26.39.1.05.29.15.38.2l.39.21c-.6 1.25-1.24 2.49-1.89 3.71 2.19.04 4.39.13 6.56.49l.13-1.57 2.12.83.26-1.69-2.41-1.67c1.43-.57 2.91-1.04 4.38-1.53l-7.81-.99c-1.44-2.99-2.46-6.19-2.55-9.53.56-2.33 1.59-4.52 2.05-6.87-.01-3.57-2.28-6.62-4.42-9.28-4.29-5.77-12.19-3.62-17.48-.63-5.92 3.61-11.52 9.02-12.16 16.32l-1.86-2.31-3.15-4.24M205.95 168l2.73-1.37c.41-2.38.65-4.78.65-7.19-3.47.76-4.14 5.58-3.38 8.56m1.27 1.34c-1.45.95.01 3.67 1.53 2.42 1.44-.95-.04-3.6-1.53-2.42m6.89 2.99c-1.54 2.98 3.32.15 0 0m2.22.92c.54.54.54.54 0 0m1.72 3.09l.92 1.55a45.35 45.35 0 0 1 6.12 2.64l-.57-1.85c-2.22-.6-4.38-1.39-6.47-2.34m-18.8 9.96c.54.54.54.54 0 0m1.88 5.08c-1.87-.16-2.34 2.45-.81 3.29 1.81 1.07 2.31-2.92.81-3.29z"/><path fill="#373a39" d="M178.39 139.75c3.56-.13 7.21-.61 10.65.65-8.73 2.41-15.34 9.06-19.97 16.57-.55-2.6-1.09-5.37-.14-7.96 1.25-4.25 4.82-7.24 8.59-9.27l.87.01z"/><path fill="#625656" d="M215.03 145.69l4.39-3.44 1.99 3.87c-1.92 3.84-4.91 7.16-6.07 11.35l.14.85c.58 4.36 2.68 9.07 6.87 11.02 2.71 1.31 4.34 3.92 5.96 6.34-4.99-2.74-10.5-4.19-16.07-5.15-1.87-6.35.58-12.72 3.56-18.28l-2.35-1.81 3.14-4.54-1.56-.21z"/><path fill="#44261b" opacity=".61" d="M160.9 144.89l1.05 2.18-1.05-2.18z"/><path fill="#3f4343" d="M170.94 162.42c.64-7.3 6.24-12.71 12.16-16.32l1.27-.37-1.19 3.24c2.59 1.63 4.91 3.66 6.88 6 3.01-3.31 6.17-6.7 10.52-8.24 2.14 2.66 4.41 5.71 4.42 9.28-.46 2.35-1.49 4.54-2.05 6.87-.38 1.53-.68 3.08-1.06 4.61-8.65.04-14.92 6.8-22.43 9.99-2.85 1.35-5.42-1.36-6.13-3.93-.93-3.25-1.29-6.64-2.27-9.89-.31 3.03-.38 6.09-.96 9.08.24-4.23.24-8.55-1.02-12.63l1.86 2.31m20.24-5.18c.53.54.53.54 0 0m-2 10.01c.61.62.61.62 0 0z"/><path fill="#555354" d="M227.74 156.04c.28-2.22 1.3-4.24 3.34-5.31l-.36 3.94-2.98 1.37z"/><path d="M234.59 155.56l3.29-.28-2.6 4.64-.69-4.36zm-30.23 60.65c-.09-2.56-.27-5.3.97-7.64.78 5.12 2.86 10.76 7.55 13.5-.48-4.59-4.98-8.07-3.97-12.85l2.79 2.32 1.19-1.32c-.6 6.52 4.65 11.02 7.05 16.55-1.9-.24-3.88-.17-5.67-.9-3.13-1.42-4.44-5.29-7.88-6.17-.68-1.16-1.42-2.29-2.03-3.49z" fill="#949093"/><path fill="#afadb0" d="M191.18 157.24c.53.54.53.54 0 0z"/><path fill="#010101" opacity=".75" d="M215.34 157.47c2.44.78 4.78 1.89 6.93 3.31 5.55 3.76 11.98 6.16 18.54 7.41-.1 1.72 1.57 3.26 3.28 2.94-.28 1.99-.55 3.98-1 5.95a77.46 77.46 0 0 0-.15-4.05c-2.91.89-4.01 3.71-5.09 6.26-.78-1.34-1.61-2.66-2.6-3.86l.41-3.25-4.01.57c-.89-1.17-1.62-2.44-2.32-3.71l-1.39-2.16c-1.43-2.21-3.75-3.42-6.28-3.94-2.12-1.46-4.18-3.01-6.18-4.62l-.14-.85z"/><path fill="#fdf9fa" d="M205.95 168c-.76-2.98-.09-7.8 3.38-8.56 0 2.41-.24 4.81-.65 7.19l-2.73 1.37z"/><path fill="#726e70" d="M201.89 167.49l1.06-4.61c.09 3.34 1.11 6.54 2.55 9.53l7.81.99-4.38 1.53-2.23 1.34-2.54-1.44-.39-.21-.38-.2c-1.59-1.07-3.49-.58-5.26-.39l-.83 8.37-.37.61-.21.38-.11.26c-1.11 4.35.74 8.68 1.92 12.8.55 2.14 2.07 3.78 3.57 5.33 2.38-.89 5.37-1.15 7.04-3.24.75-2.35 1.13-4.84 2.47-6.96l.52 2.66.3 1.19c2.61.24 5.2.62 7.72 1.37 2.07-1.6 3.01-4.02 3.65-6.47l.59-1.8c.55 1.39 1.06 2.8 1.49 4.24l2.84 1.61.74 1.26c1.49-1.21 3.56-2.08 4.23-4 .24-2.05-.07-4.11-.25-6.15.38-2.96-.35-5.85-1.3-8.62l.57.47c2.55 3.33 4.92 7.34 4.47 11.69-.63 3.51-2.64 6.6-3.15 10.14l-.24 1.57c1.12.69 2.25 1.36 3.42 1.98l-2.59-.11c-3.03.48-5.74 1.95-8.51 3.18-1.05-.28-2.1-.54-3.16-.77-2.54.36-5.12.92-7.29 2.34-.95.93-1.86 1.89-2.77 2.86l-1.19 1.32-2.79-2.32c-.86-.72-1.73-1.41-2.64-2.06l-.94 1.41c-1.24 2.34-1.06 5.08-.97 7.64l-1.16-2.35c-.74-1.68-1.41-3.38-2.09-5.08-2.31 1.66-4.7 3.21-7.2 4.57l-2.83-.43-.87-3.81 1.78-2.22c3.04.36 6.1.6 9.16.63-2.3-1.92-4.98-3.41-6.97-5.67-1.92-3.09-2.9-6.64-4.3-9.97.62-1.1 1.13-2.26 1.6-3.44 2.16-1.03.91-3.8-.7-4.7.69-3.86 1.66-7.75 4.08-10.92 2.58-1.42 5.32-2.82 7.03-5.33z"/><path fill="#515155" opacity=".97" d="M221.66 162.94c2.53.52 4.85 1.73 6.28 3.94l-2.23 1.29c-1.75-1.41-3.07-3.22-4.05-5.23z"/><path fill="#a6978f" d="M171.06 163.66c.98 3.25 1.34 6.64 2.27 9.89.71 2.57 3.28 5.28 6.13 3.93 7.51-3.19 13.78-9.95 22.43-9.99-1.71 2.51-4.45 3.91-7.03 5.33-3.03 1.49-5.93 3.22-8.78 5.02-2.4 1.34-4.98 2.28-7.57 3.16l-4.51-1.08c-.57-.99-1.18-1.94-1.77-2.91l-.71-1.17-.97 3.97-5.47 1.86-.03-3.55c1.4-2.04 3.22-3.73 5.05-5.38.58-2.99.65-6.05.96-9.08z"/><path d="M225.71 168.17l2.23-1.29 1.39 2.16-.85 1.52c-.97-.74-1.89-1.55-2.77-2.39zm-24.58 23.21c1.5.37 1 4.36-.81 3.29-1.53-.84-1.06-3.45.81-3.29zm14.53 15.98l1.96.31 1.55 4.74.27-4.68c1.96 1.37 3.21 3.42 4.43 5.43-.65 3.04-.31 6.16 1.23 8.89l-3.14 5.28-2.02-.56c-2.4-5.53-7.65-10.03-7.05-16.55.91-.97 1.82-1.93 2.77-2.86z" fill="#fdfbfa"/><path fill="#060706" opacity=".38" d="M240.81 168.19c1.76-.36 4.02.87 3.28 2.94-1.71.32-3.38-1.22-3.28-2.94z"/><path d="M207.22 169.34c1.49-1.18 2.97 1.47 1.53 2.42-1.52 1.25-2.98-1.47-1.53-2.42zm21.82 53.02l2.02.59c1.56 6.19-3.28 10.89-7.11 14.97-1.27 1.37-3.03 2.26-4.93 2.16-4.36-.01-8.72-.41-13.03-.97l-1.09-.98c-1.05-1.93-2-3.91-2.94-5.89 3.61 1.31 7.26 2.54 10.96 3.62l4.14-3.06a76.21 76.21 0 0 0 2.78 1.06l2.13-1.85c3.2-2.52 5.5-5.93 7.07-9.65z" fill="#fffefe"/><path fill="#e1dedd" d="M214.11 172.33c3.32.15-1.54 2.98 0 0z"/><path fill="#c08365" d="M186.08 177.84c2.85-1.8 5.75-3.53 8.78-5.02-2.42 3.17-3.39 7.06-4.08 10.92-.59 1.57-.65 3.46.7 4.7-.47 1.18-.98 2.34-1.6 3.44-1.92 2.17-4.33 4.25-4.8 7.28-.63 2.56.78 4.96 1.7 7.27l-1.62-.14c-4.06-2.38-3.07-7.35-3.05-11.28.19-2.36-2.24-3.63-3.46-5.33-1.98-3.03-3.32-6.41-4.65-9.76l4.51 1.08c-.08 2.08-.39 4.22.15 6.27 2.62 2.63 6.53 2.97 9.99 3.66-.71-4.39-1.6-8.75-2.57-13.09z"/><path fill="#f9f0eb" d="M216.33 173.25c.54.54.54.54 0 0z"/><path fill="#494a4d" d="M245.89 173.65c.92-.9 2 .19 2.07 1.18l-.88 2.12c-1.02-.65-2.37-2.17-1.19-3.3z"/><path d="M206.7 176.27l2.23-1.34 2.41 1.67-.26 1.69-2.12-.83-.13 1.57c-2.17-.36-4.37-.45-6.56-.49l1.89-3.71 2.54 1.44zm1.94 11.4c2.11-.87 4.18-1.96 6.46-2.32 2 .78 4.92 2.38 4.06 4.99l-.97.02-6.07.21-1.02-.84-2.46-2.06zm-2.37 19.49l2.64 2.06c-1.01 4.78 3.49 8.26 3.97 12.85-4.69-2.74-6.77-8.38-7.55-13.5l.94-1.41zm33.15 4.44l1.97-2.18 1.21 1.95 2.52.5c-.84.68-1.54 2.02-2.82 1.68-1.01-.57-1.94-1.28-2.88-1.95zm-83.33 13.43c1.44-1.07 3.7-2.04 5.29-.74-.19 1.5-2.72.75-3.79 1.05l-1.5-.31z" fill="#f2ecf0"/><path d="M229.16 174.73l2.98 2.14c.95 2.77 1.68 5.66 1.3 8.62l-1.72-3.66-2.56-7.1zm-11.11 1.61c2.09.95 4.25 1.74 6.47 2.34l.57 1.85a45.35 45.35 0 0 0-6.12-2.64l-.92-1.55zm-30.82 38.13l2.37-1c3.61 3.76 6.58 8.61 6.59 13.97-2.03-3.08-3.78-6.34-5.91-9.35-.98-1.24-2.02-2.43-3.05-3.62zm12.92-.35l3.05-.26 1.16 2.35c.61 1.2 1.35 2.33 2.03 3.49 1.93 4.3 4.34 8.48 8.05 11.51-4.77 2.43-9.9-.9-14.62-1.95.5-2.84-1.94-4.75-3.14-7.02-1.32-1.98-1.23-4.43-1.34-6.7l4.81-1.42z" fill="#f6f2f0"/><path fill="#656262" d="M234.59 174.93l.66.5c.99 1.2 1.82 2.52 2.6 3.86l2.29 4c1.03.77 2.12 1.45 3.22 2.13-2.56 4.96-4.78 10.22-9.33 13.75.51-3.54 2.52-6.63 3.15-10.14.45-4.35-1.92-8.36-4.47-11.69l1.88-2.41z"/><path fill="#452b1d" d="M171.52 175.84l.71 1.17c.9 4.69.89 9.48 1.45 14.21.12 1.29.28 2.58.49 3.87.25 1.6.54 3.2.83 4.8.33 1.89.65 3.78 1.08 5.65.48 1.86 1.12 3.67 1.77 5.48.42 1.71 1.56 3.12 3.11 3.94 1.96 1.3 3.72 2.88 5.3 4.62l-4.79-.44c-1.87-1.17-3.69-2.42-5.48-3.7-.06-2.77-.1-6.02-2.4-7.96-1.57-.28-3.16-.28-4.74-.34l-.75-3.4c-.45-1.92-.93-3.83-1.53-5.7-5.33-5.37-2.4-13.4-1.52-19.92l.03 3.55 5.47-1.86.97-3.97z"/><path fill="#715f5a" d="M172.23 177.01l1.77 2.91c1.33 3.35 2.67 6.73 4.65 9.76.08 1.39.09 2.77.13 4.16l-2.67-1.04c-.3-1.48-1.11-2.75-2.03-3.91l-.4 2.33c-.56-4.73-.55-9.52-1.45-14.21z"/><path fill="#e39f7e" d="M178.51 181c2.59-.88 5.17-1.82 7.57-3.16.97 4.34 1.86 8.7 2.57 13.09-3.46-.69-7.37-1.03-9.99-3.66-.54-2.05-.23-4.19-.15-6.27z"/><path d="M212.43 180.25l5.35 4.37.3-4.95c4.31.87 5.05 5.36 6.31 8.86l-.59 1.8c-1.55-.01-3.1-.02-4.64.01.86-2.61-2.06-4.21-4.06-4.99-2.28.36-4.35 1.45-6.46 2.32l2.46 2.06c-2.06 1.12-4.34 1.29-6.56.61.28-2.3.14-4.62.28-6.92.43-1.99 2.66-2.79 4.51-2.55a124.45 124.45 0 0 0 1.27 5.32l1.83-5.94zM108.8 207.93c.6-1.55 1.49-2.95 2.46-4.28.22 2.97-.33 5.91-1.78 8.53l-.68-4.25z" fill="#b7b6b9"/><path fill="#c7c0c0" d="M197.3 182.4c1.41-.43 4.3.58 3.27 2.43-1.45.87-2.81-.84-3.64-1.82l.37-.61z"/><path fill="#55504e" d="M229.54 183.67l2.18-1.84 1.72 3.66c.18 2.04.49 4.1.25 6.15-.67 1.92-2.74 2.79-4.23 4l-.74-1.26c1.47-3.42 1.85-7.12.82-10.71z"/><path fill="#fffdf4" d="M196.61 183.65c.03-.06.08-.19.11-.26l-.11.26z"/><path fill="#f5b491" d="M254.08 187.21c2.36-1.71 4.71-3.59 7.49-4.58-.03 1.7-.24 3.4-.1 5.11.93 1.93 2.27 3.62 3.45 5.4l-1.37 3.06c-1.8-2.86-4.35-5.15-7.59-6.24l-4.15 2.8c.56-1.91 1.09-3.91 2.27-5.55z"/><path fill="#f2ede7" d="M190.78 183.74c1.61.9 2.86 3.67.7 4.7-1.35-1.24-1.29-3.13-.7-4.7z"/><path opacity=".76" d="M243.36 185.42l.52-.89c1.9 2.9 3.74 6 4.42 9.45-1.3 4.07-5.2 6.68-6.43 10.82l-4.66-2.08c-1.17-.62-2.3-1.29-3.42-1.98l.24-1.57c4.55-3.53 6.77-8.79 9.33-13.75z"/><path fill="#9c8e89" d="M174.08 188.89c.92 1.16 1.73 2.43 2.03 3.91l.17.79-2.11 1.5-.49-3.87.4-2.33z"/><path fill="#493d3d" d="M178.78 193.84l-.13-4.16c1.22 1.7 3.65 2.97 3.46 5.33-.02 3.93-1.01 8.9 3.05 11.28l-.62 2.46-4.72-1.48c-.27-4.78-2.59-9.05-3.54-13.68l-.17-.79 2.67 1.04z"/><path fill="#bbb5bb" d="M212.12 190.57l6.07-.21c-1.86 1.53-3.86 2.89-6.06 3.88l-.52-2.66.51-1.01z"/><path fill="#908b90" d="M218.19 190.36l.97-.02 4.64-.01c-.64 2.45-1.58 4.87-3.65 6.47-2.52-.75-5.11-1.13-7.72-1.37l-.3-1.19c2.2-.99 4.2-2.35 6.06-3.88z"/><path fill="#cabeb9" d="M251.81 192.76l4.15-2.8c3.24 1.09 5.79 3.38 7.59 6.24-1.75 3.79-4.83 6.66-7.25 9.99l-6.87-1.53-1.59-3.49c2.29-2.27 3.26-5.35 3.97-8.41z"/><path fill="#e09d7c" d="M185.08 199.16c.47-3.03 2.88-5.11 4.8-7.28 1.4 3.33 2.38 6.88 4.3 9.97 1.99 2.26 4.67 3.75 6.97 5.67-3.06-.03-6.12-.27-9.16-.63a100.74 100.74 0 0 0-5.21-.46c-.92-2.31-2.33-4.71-1.7-7.27z"/><path fill="#625858" d="M174.17 195.09l2.11-1.5c.95 4.63 3.27 8.9 3.54 13.68l4.72 1.48.62-2.46 1.62.14a100.74 100.74 0 0 1 5.21.46l-1.78 2.22.87 3.81-1.48.55-2.37 1c1.03 1.19 2.07 2.38 3.05 3.62-1.92 1.7-4.32 3.2-5.13 5.77-1.48 4.35-1.05 9.02-1.29 13.53-2-4.02-1.67-8.55-1.22-12.87l-2.13-.41c-2.82-1.12-5.85-1.1-8.82-.77l-1.94-.57c3.1-2.43 1.91-6.46 1.26-9.72l4.19 7.74 6.27-1.65 4.79.44c-1.58-1.74-3.34-3.32-5.3-4.62.74-2.06-.77-4.49-3.11-3.94-.65-1.81-1.29-3.62-1.77-5.48l1.85-4.87-2.93-.78-.83-4.8z"/><path fill="#ccc2bd" d="M159.03 198.74l5.83-.54c-1.91 2.14-1.87 5.13-2.09 7.82-.21 4.53-.42 9.07-1.12 13.56l-3.85 1.7c-2.95-.99-7.22-1.46-8.06-5.06-.97-4.32.91-8.56 2.45-12.5 2.35-1.57 4.57-3.31 6.84-4.98z"/><path fill="#93827d" d="M164.86 198.2l1.71-.16 1.53 5.7-1.97-.28c-2.28 5.35-.43 10.95-.15 16.45l-2.26-.3-2 2.51-3.92-.84 3.85-1.7c.7-4.49.91-9.03 1.12-13.56.22-2.69.18-5.68 2.09-7.82z"/><path fill="#888380" d="M127.89 200.77c10.42-.06 20.76-1.26 31.14-2.03-2.27 1.67-4.49 3.41-6.84 4.98l-1.32-1.13c-4.36.25-8.98.36-12.99 2.25-1.82 2.2-.76 5.39-.94 8.01l-2.09 1.16-1.9-1.29.17-1.64c.37-3.34 1.2-7.28-1.92-9.6l-3.31-.71z"/><path d="M175 199.89l2.93.78-1.85 4.87-1.08-5.65zm-50.32 12.22c2.91.96 6.1 1.36 8.44-1.03l-.17 1.64-.3 3.03-5.37.06-2.6-3.7z" fill="#afa49d"/><path fill="#584239" d="M111.99 202.8c4.73-.46 9.46-1 14.16-1.83l-2.06 1.96-2.95 2.27c-2.55.07-5.09.21-7.62.4-.62 1.96-1.05 3.97-1.23 6.02 2.52.02 5.04-.07 7.55-.26l3.52 4.69a86.79 86.79 0 0 1-.27 3.21c-3.09.34-6.19-.18-9.1-1.22-3.46-2.13-6.76-5.75-5.19-10.11.2 1.42.42 2.83.68 4.25 1.45-2.62 2-5.56 1.78-8.53.19-.21.55-.64.73-.85z"/><path fill="#8c8686" opacity=".96" d="M126.15 200.97l1.74-.2 3.31.71-2.11 2.02-3.32-.43-1.68-.14 2.06-1.96z"/><path d="M131.2 201.48c3.12 2.32 2.29 6.26 1.92 9.6-2.34 2.39-5.53 1.99-8.44 1.03-.72-3.72 1.58-6.58 4.41-8.61l2.11-2.02zm6.68 3.36c4.01-1.89 8.63-2 12.99-2.25-2.21 3.1-2.88 6.86-2.94 10.61-3.14 3.05-7.5.63-10.99-.35.18-2.62-.88-5.81.94-8.01z" fill="#d3c9c3"/><path fill="#888288" d="M241.87 204.8c2.59.34 4.21-2.14 5.97-3.63l1.59 3.49 6.87 1.53c-1.13 2.15-2.37 4.26-4.08 6l-3.72-5.81-3.56-.22c.9 3.24 2.92 5.93 4.94 8.55-.35 3.02-.3 6.1-1.1 9.05-.71 2.61-3.34 3.87-5.53 5.02l.64-2.82c.43-1.72 1.42-3.58.55-5.33-.71-1.48-2.07-2.47-3.2-3.6l-.37 1.95-4.13-4.48c-2.2-2.01-5.23-2.25-8.05-1.8l-1.02.07-.06-.76.39-2.18c1.76-.4 3.96-.04 5.38-1.28.64-1.92.88-3.95 1.24-5.94l2.59.11 4.66 2.08m-5.68.51c-.97 1.83-.77 3.77.1 5.6 2.71-.65 4.46-2.96 3.69-5.79l-3.79.19m3.23 6.29l2.88 1.95c1.28.34 1.98-1 2.82-1.68l-2.52-.5-1.21-1.95-1.97 2.18z"/><path fill="#aca6ab" d="M226.11 205.79c2.77-1.23 5.48-2.7 8.51-3.18-.36 1.99-.6 4.02-1.24 5.94-1.42 1.24-3.62.88-5.38 1.28l-.39 2.18-1.5-6.22m3.02 1.08c1.07 2.26 3.17-.25 4.52-.9-1.31-1.35-4.71-1.54-4.52.9z"/><path fill="#c6bab2" d="M124.09 202.93l1.68.14c-3.25 3.64-2.84 8.47-2.41 12.98l-3.52-4.69 1.3-6.16 2.95-2.27z"/><path fill="#716a68" d="M125.77 203.07l3.32.43c-2.83 2.03-5.13 4.89-4.41 8.61l2.6 3.7 5.37-.06.3-3.03 1.9 1.29c3.52 2.86 8.1 3.44 12.41 4.25l.67-5.06c.06-3.75.73-7.51 2.94-10.61l1.32 1.13c-1.54 3.94-3.42 8.18-2.45 12.5.84 3.6 5.11 4.07 8.06 5.06 1.3.31 2.61.57 3.92.84l2-2.51 2.26.3c.78 1.47 2.29 2.23 3.77 2.86l1.94.57c2.16.7 4.41 1.16 6.7 1.07-3.19.47-6.4.85-9.6 1.26-3.73.32-7.51.42-11.2-.33 1.07-.3 3.6.45 3.79-1.05-1.59-1.3-3.85-.33-5.29.74-6.61-1.19-12.49-4.88-19.17-5.77-4.58-.71-9.25-.7-13.83 0a86.79 86.79 0 0 0 .27-3.21c-.43-4.51-.84-9.34 2.41-12.98m24.43 17.15c.58.57.58.57 0 0z"/><path fill="#cbc0bb" d="M166.13 203.46l1.97.28.75 3.4c.42 2.06 1.22 4.03 2.16 5.91.65 3.26 1.84 7.29-1.26 9.72-1.48-.63-2.99-1.39-3.77-2.86-.28-5.5-2.13-11.1.15-16.45z"/><path fill="#9e7e79" d="M113.52 205.6l7.62-.4-1.3 6.16-7.55.26c.18-2.05.61-4.06 1.23-6.02z"/><path fill="#baafa5" d="M215.66 207.36c2.17-1.42 4.75-1.98 7.29-2.34l-1.03 1.99 5.93 7.93-.18-2.17 1.02-.07c2.71 2.76 2.32 6.7 2.37 10.25l-2.02-.59c-1.57 3.72-3.87 7.13-7.07 9.65.63-1.38 1.2-2.77 1.79-4.16l-1.8-.52c1.02-1.77 2.03-3.56 3.14-5.28 1.55-1.12 3.19-2.12 4.82-3.12-2.19-1.73-4.39-3.5-6.05-5.77-1.22-2.01-2.47-4.06-4.43-5.43l-.27 4.68-1.55-4.74c-.49-.07-1.47-.23-1.96-.31z"/><path fill="#e9e2e0" d="M222.95 205.02l3.16.77 1.5 6.22.06.76.18 2.17-5.93-7.93 1.03-1.99z"/><path fill="#e7e0e5" d="M229.13 206.87c-.19-2.44 3.21-2.25 4.52-.9-1.35.65-3.45 3.16-4.52.9z"/><path fill="#b8b3b8" d="M236.19 205.31l3.79-.19c.77 2.83-.98 5.14-3.69 5.79-.87-1.83-1.07-3.77-.1-5.6z"/><path fill="#d6cac4" d="M244.94 206.16l3.56.22 3.72 5.81-2.34 2.52c-2.02-2.62-4.04-5.31-4.94-8.55z"/><path fill="#a19791" d="M168.85 207.14c1.58.06 3.17.06 4.74.34 2.3 1.94 2.34 5.19 2.4 7.96l5.48 3.7-6.27 1.65-4.19-7.74c-.94-1.88-1.74-3.85-2.16-5.91z"/><path fill="#908d93" d="M193.91 213.35c2.5-1.36 4.89-2.91 7.2-4.57l2.09 5.08-3.05.26-6.24-.77z"/><path fill="#998c87" d="M177.85 211.02c2.34-.55 3.85 1.88 3.11 3.94-1.55-.82-2.69-2.23-3.11-3.94z"/><path fill="#6f696b" d="M228.69 212.7c2.82-.45 5.85-.21 8.05 1.8l-.73.39c-3.85 1.08-2.53 5.82-3.12 8.82l-1.83-.76c-.05-3.55.34-7.49-2.37-10.25z"/><path fill="#b0a59f" d="M134.85 214.01l2.09-1.16c3.49.98 7.85 3.4 10.99.35-.18 1.69-.43 3.37-.67 5.06-4.31-.81-8.89-1.39-12.41-4.25z"/><path fill="#baaea4" d="M189.6 213.47l1.48-.55 2.83.43 6.24.77-4.81 1.42c.11 2.27.02 4.72 1.34 6.7 1.2 2.27 3.64 4.18 3.14 7.02 4.72 1.05 9.85 4.38 14.62 1.95a40.55 40.55 0 0 0 2.62 1.59l-4.14 3.06c-3.7-1.08-7.35-2.31-10.96-3.62.94 1.98 1.89 3.96 2.94 5.89-2.36-2.12-4.72-4.24-6.9-6.55-.57-.78-1.19-1.5-1.87-2.16l.06-1.98c-.01-5.36-2.98-10.21-6.59-13.97z"/><path fill="#dfd6d2" d="M223.87 213.16c1.66 2.27 3.86 4.04 6.05 5.77l-4.82 3.12c-1.54-2.73-1.88-5.85-1.23-8.89z"/><path fill="#99959c" d="M232.89 223.71c.59-3-.73-7.74 3.12-8.82l-1.34 8.84c-1.13 4.42 1.13 9.73-2.65 13.26-2.94 2.05-5.65 4.4-8.68 6.32-6.07 2.04-12.89.35-17.35-4.2 4.31.56 8.67.96 13.03.97 1.9.1 3.66-.79 4.93-2.16 3.83-4.08 8.67-8.78 7.11-14.97l1.83.76z"/><path fill="#d3c8c1" d="M236.01 214.89l.73-.39 4.13 4.48c-.28 1.76-.47 3.54-.53 5.32l-5.67-.57 1.34-8.84z"/><path fill="#393637" d="M241.24 217.03c1.13 1.13 2.49 2.12 3.2 3.6.87 1.75-.12 3.61-.55 5.33l.17-1.69-3.19 1.9-.53-1.87c.06-1.78.25-3.56.53-5.32l.37-1.95z"/><path fill="#948f97" d="M190.28 218.09c2.13 3.01 3.88 6.27 5.91 9.35l-.06 1.98c-1.07.43-1.79 1.19-2.17 2.27-1.27 3.24-3.59 7.23-1.2 10.52 2.3 1.83 5.05 2.98 7.45 4.67-2.37.35-4.79.89-7.18.44-2.45-.83-4.36-2.63-6.34-4.2.47-2.11-.47-4.46-2.69-5.03l-.14-.7c.24-4.51-.19-9.18 1.29-13.53.81-2.57 3.21-4.07 5.13-5.77z"/><path fill="#6a6766" d="M206.39 219.7c3.44.88 4.75 4.75 7.88 6.17 1.79.73 3.77.66 5.67.9.67.17 1.34.36 2.02.56l1.8.52-1.79 4.16-2.13 1.85a76.21 76.21 0 0 1-2.78-1.06 40.55 40.55 0 0 1-2.62-1.59c-3.71-3.03-6.12-7.21-8.05-11.51z"/><path fill="#aaa4a8" d="M171.69 223.34c2.97-.33 6-.35 8.82.77l-2.12.3c-2.29.09-4.54-.37-6.7-1.07z"/><path fill="#746b68" d="M232.02 236.99c3.78-3.53 1.52-8.84 2.65-13.26 1.88.22 3.78.43 5.67.57l.53 1.87-1.04.83c-1.67 1.12-2.47 3-2.93 4.88-.59 1.38-1.26 2.72-1.91 4.08-1 .32-1.99.67-2.97 1.03z"/><path fill="#2b2624" opacity=".6" d="M236.9 231.88c.46-1.88 1.26-3.76 2.93-4.88.64 2.19-.61 4.53-2.93 4.88z"/><path fill="#1e1c1e" opacity=".6" d="M193.96 231.69c.38-1.08 1.1-1.84 2.17-2.27.68.66 1.3 1.38 1.87 2.16a7.8 7.8 0 0 1-4.04.11z"/><path fill="#545254" opacity=".83" d="M184 238.09c2.22.57 3.16 2.92 2.69 5.03-1.77-1.08-2.52-3.05-2.69-5.03z"/></svg>