<svg xmlns="http://www.w3.org/2000/svg" width="512" height="512" viewBox="0 0 384 384" xmlns:v="https://vecta.io/nano"><path fill="#252830" d="M215.91 127.8c3.63-.28 7.27-.22 10.89-.06 4.58 7.58 8.8 15.36 13.18 23.06l-1.12 2.21 2.11 4.2-2.83 1.56c-.28-2.6-.68-5.2-1.47-7.7l-.42-.72c-2.95-5.35-6.09-11.32-12.3-13.38l3.3-.16c-1.49-3.46-4.33-5.93-7.89-7.08l2.5 7.09-1.4-.12-2.23-1.24.05 2.87-3.09-.83c4.55-1.73 1.48-6.51.72-9.7z"/><path fill="#464249" d="M219.36 129.73c3.56 1.15 6.4 3.62 7.89 7.08l-3.3.16-2.09-.15-2.5-7.09z"/><path fill="#8d6f5c" d="M204.05 137.11c2.87-1.53 6.27-1.03 9.25-.12l-7.15-.29c2.75 1.55 5.46 3.25 7.59 5.61-5.8-.45-11.62.02-17.28 1.34 2.5-2.2 4.69-4.83 7.59-6.54z"/><path fill="#787173" d="M218.28 138.33l-.05-2.87 2.23 1.24 7.45 6.12-6.59 3.29 4.93-1.67.15 6.86 2-7.86.99 1.25c.97 2.5 1.71 5.12 1.85 7.81.43-1.31-1.5-3.66-2.39-1.76.13 1.2.82 2.03 2.06 2.47l1.92 2.41 3.84-4.55c.79 2.5 1.19 5.1 1.47 7.7l-1.25 5.2c-5.96-3.61-12.08-7.3-15.92-13.33-.94-1.16-1.92-2.29-2.88-3.44-.17-.2-.51-.62-.68-.83 2.14-2.11.63-5.41.87-8.04z"/><path fill="#eba47e" d="M206.15 136.7l7.15.29 1.89.51 3.09.83c-.24 2.63 1.27 5.93-.87 8.04l-3.67-4.06c-2.13-2.36-4.84-4.06-7.59-5.61z"/><path fill="#3b3d3c" d="M196.46 143.65c5.66-1.32 11.48-1.79 17.28-1.34 1.25 1.33 2.45 2.7 3.67 4.06l.68.83.16.72c-7.84-2.38-16.4-2.52-24.12.43l-1.32-1.46c1.18-1.12 2.41-2.18 3.65-3.24z"/><path d="M221.32 146.11l6.59-3.29.49.62-2 7.86-.15-6.86-4.93 1.67zm-16.54 29.02c.72-4.65 1.55-9.86 5.93-12.53-.64 4.19-1.46 8.36-1.68 12.61-1.42.05-2.84.01-4.25-.08z" fill="#ded7da"/><path fill="#676261" d="M229.39 144.69c2.18 2.01 4.55 3.79 6.86 5.66l.42.72-3.84 4.55-1.92-2.41.33-.71c-.14-2.69-.88-5.31-1.85-7.81z"/><path fill="#b7a8a2" d="M194.13 148.35c7.72-2.95 16.28-2.81 24.12-.43l.52 2.66c-4.16-.91-8.29-2.09-12.55-2.43-5.53-.25-10.84 1.66-15.47 4.55.43-1.54.86-3.08 1.37-4.59l.69-1.22 1.32 1.46z"/><path fill="#4d5458" d="M218.09 147.2l2.88 3.44-.46 2.15-5.83 2.39 4.84.4-1.95 3.11c-2.66-1.38-5.56-1.03-7.85.87l-2.04 1.31.77-1.32 6.06-6.78-5.8 3.01-2.93-1.71 1.57-4.77-1.13-1.15c4.26.34 8.39 1.52 12.55 2.43l-.52-2.66-.16-.72z"/><path fill="#3f4343" d="M189.49 154.75c.7-2.28 1.46-4.56 2.63-6.64l-1.37 4.59c4.63-2.89 9.94-4.8 15.47-4.55l1.13 1.15-1.57 4.77 2.93 1.71-.26 3.77-.77 1.32c-1.78 3.04-3.62 6.04-5.28 9.15-.51 2.58-.67 5.22-.88 7.84l-.91-2.95c-4.85-.42-10.13.49-14.6-1.88-3.13-6.33 2.75-12.09 3.48-18.28m13.11 8.38c.13 1.44.77 1.69 1.92.76-.14-1.45-.78-1.71-1.92-.76z"/><path fill="#ada7ab" d="M228.85 150.74c.89-1.9 2.82.45 2.39 1.76l-.33.71c-1.24-.44-1.93-1.27-2.06-2.47z"/><path fill="#8c7f7f" d="M220.51 152.79l.46-2.15c3.84 6.03 9.96 9.72 15.92 13.33l1.32.98-3.05 2.13c-2.73-2.31-5.8-4.14-8.98-5.74-.54 2.03-1.04 4.08-1.67 6.09-.92 2.48-1.97 4.91-2.94 7.37-2.22.91-4.45 1.81-6.73 2.54l-.77.07c3.76-3.14 7.87-6.58 8.83-11.66 1.47-4.48-.52-8.95-2.39-12.96z"/><path fill="#292c33" d="M238.86 153.01l1.12-2.21 5.96 2.7c-1.41 1.47-2.67 3.07-3.94 4.66l4.98-1.07c-1.07 4.53-3.64 8.49-4.9 12.95a29.97 29.97 0 0 0-3.87-5.09l-1.32-.98c.44-1.73.91-3.45 1.25-5.2l2.83-1.56-2.11-4.2z"/><path fill="#4c5154" opacity=".97" d="M245.94 153.5l3-2.31.98 1.22-2.94 4.68-4.98 1.07 3.94-4.66z"/><path fill="#918f8e" d="M208.71 155.78l5.8-3.01-6.06 6.78.26-3.77z"/><path fill="#3b3d3e" d="M214.68 155.18l5.83-2.39c1.87 4.01 3.86 8.48 2.39 12.96-.96 5.08-5.07 8.52-8.83 11.66l-1.86.16c0-3.3-.3-6.67.59-9.89 1.05-3.25 3.04-6.08 4.77-8.99l1.95-3.11-4.84-.4z"/><path fill="#1c1d1f" d="M246.98 157.09c.86-1.64 1.9-3.16 2.94-4.68l3.54 5.22 6.16-.27c1.82 3.31 3.18 6.9 5.46 9.92 3.86 1.17 7.95.92 11.93 1.21 7.06.14 14.1.86 21.17.78 8.27 14.88 5.33 34.83-6.66 46.87l-2.44-2.1c7.08-7.52 11.5-17.65 11.35-28.05.07-5.54-1.62-10.88-3.62-15.97-10.28-.82-20.59-1.19-30.88-1.6 3.65 7.09 8.21 13.68 11.57 20.94-.19 1.25-.36 2.51-.46 3.78l-3.48-2c-2.17-4.29-5.37-7.93-8.84-11.21l2.66-5.72-3.44 2.54c-1.57-2.92-3.26-5.77-4.84-8.68-.82-2.23-1.04-4.61-1.16-6.96-2.94 3.02-6.59 5.19-10.53 6.62l.95 5.4c-.57.86-1.14 1.71-1.66 2.6-.67 1.49-1.17 3.04-1.59 4.61-2.95-2.38-4.83-5.72-5.28-9.49l3.19 2.38-.94-3.19c1.26-4.46 3.83-8.42 4.9-12.95m14.25 9.06c-1.31.68-1.31 1.36.01 2.02 1.3-.69 1.3-1.36-.01-2.02z"/><path fill="#ad9c93" d="M189.49 154.75c-.73 6.19-6.61 11.95-3.48 18.28 4.47 2.37 9.75 1.46 14.6 1.88l-1.54 3.22c-2.35-.04-4.7-.06-7.04-.22-2.16-.3-4.28-.79-6.39-1.28l-3.63-3.81.71-2.52-3.9-.07c1.45-2.13 2.88-4.27 4.2-6.48l.45-.65-4.67-.63 6.3-.98c1.48-2.24 3-4.45 4.39-6.74z"/><path fill="#7a7679" d="M209.72 159.56c2.29-1.9 5.19-2.25 7.85-.87-1.73 2.91-3.72 5.74-4.77 8.99-.89 3.22-.59 6.59-.59 9.89l1.86-.16.77-.07c4.71 1.47 9.37 3.51 13.02 6.92 1.15 1.37 2.23 2.8 3.2 4.31-.92 4.98-1.45 10.02-2.21 15.02 2.26-2.6 4.11-5.58 4.85-8.98.46-1.58.95-3.15 1.51-4.7l1.62.28c.19 6.9-3.92 12.74-4.88 19.38-1.25.86-2.53 1.65-3.78 2.5-1.71-3.82-3.59-7.77-3.48-12.07l2.02-.96c.3-3.2 1.49-6.66.17-9.74-4.14-5.47-9.99-10.47-17.26-10.4a54.67 54.67 0 0 0 7.64 3.46c-.19 1.84.22 4.23-1.77 5.24-2.65-1.73-4.54-4.47-7.35-5.96-2.89-.78-6.55-.9-8.92 1.19-2.38 3.24-2.21 7.56-2.37 11.39-2.09-.09-2.35 3.81.04 2.68-.3 4.23 1.31 8.21 3.89 11.48l3.15-2.26 1.06-.88 4.22-.5-4.51-3.26 4.1.33.82-4.04.84.33c.47.67.93 1.35 1.37 2.05l1.65.99c1.58.93 3.22 1.88 5.07 2.16 1.5-.94 2.69-2.3 3.94-3.53-.05 3.35.42 6.68.89 10-4.15 2.02-8.69 3.01-13.31 2.83l1.38 6.3.42 2.01.58 3.2c2.71 1.22 5.45 2.5 8.4 3.02 1.7 3.72 3.16 7.55 4.77 11.31-3.18 3.3-2.63 8.8-6.46 11.71-2.49 3.09-6.61 3.56-10.25 2.62 3.11-2.35 6.51-4.75 7.1-8.93l-2.9-.69-.47-5.91-.04-1.11a56.96 56.96 0 0 0-8.05 5.46l-.51-1.44c1.29-2.34 3.21-4.47 3.71-7.15-.55-2.29-1.98-4.22-3.09-6.25-1.74-2.96-2.87-6.31-5.2-8.88-.9-2.69-2.11-5.64-5.29-6.07l.71-2.65-3.19-1.85-1.58-8.76c1.42.72 2.42-1.66.79-2.04l-.72-.47-1.38-.88.53-3.28.45-2.35 1.12-5.34c2.97-1.65 5.87-3.51 8.17-6.05l1.54-3.22.91 2.95c.21-2.62.37-5.26.88-7.84.75 1.72 1.51 3.44 2.38 5.11 1.41.09 2.83.13 4.25.08 2.53-5.05 3.58-10.64 5.1-16.03l-4.41.38m-4.15 52.57c-.92 1.7 2.93 3.08 3.15 1.08-.26-1.32-2.15-2.02-3.15-1.08m-2.32 5.03c.16.26.46.77.61 1.03.95 6.66 5.39 13.55 12.39 14.87-1.81-3.28-4.28-6.24-5.39-9.87-.74-2.21-1.22-4.7-3.26-6.13l-.5-1.84-3.85 1.94m11.12 9.15c-1.04 1.34 1.22 3.23 2.42 2.1.99-1.33-1.23-3.23-2.42-2.1m3.99 5.09c-1.15 1.17.7 3.5 2.03 2.37 1.15-1.18-.69-3.48-2.03-2.37m-3.13 3.18l1.8 6.34 3.92-2.05c-.63-1.36-1.21-2.74-2-4.01-1.23-.22-2.48-.23-3.72-.28z"/><path fill="#8f8c91" d="M209.72 159.56l4.41-.38c-1.52 5.39-2.57 10.98-5.1 16.03.22-4.25 1.04-8.42 1.68-12.61-4.38 2.67-5.21 7.88-5.93 12.53-.87-1.67-1.63-3.39-2.38-5.11 1.66-3.11 3.5-6.11 5.28-9.15l2.04-1.31z"/><path fill="#706b69" d="M147.14 169.28c7.47-1.46 13.42-7 21.02-8.01l-2.03.49.93 3.03c-3.29 1.55-7.72 2.37-9.32 6.04-1.6 4.64 1.25 9.1 4.1 12.54.98 1.33 1.9 2.71 2.79 4.1-6.56.11-13.1-.79-19.67-.57l.3-6.6a70.14 70.14 0 0 1 1.42.95c3.44 2.46 7.71 2.6 11.78 2.72-2.31-4.7-2.81-9.97-2.14-15.11l-9.44 3.5c-1.48.27-2.99.33-4.49.29l-.58-1.97 5.33-1.4z"/><path fill="#9b8e89" d="M168.16 161.27c1.91-.4 3.86-.57 5.81-.63-1.72 1.79-3.4 3.61-4.79 5.67l1.16.95 3.57 2.81c.98 2.39.24 4.93-.19 7.35l-4.69.13-1.34 9.78-3.06.14-2.79-4.1 5.33-.36c.62-6.04 1.18-12.22-.11-18.22l-.93-3.03 2.03-.49z"/><path fill="#777274" d="M173.97 160.64c3.7.4 7.4.84 11.13.85l-6.3.98 4.67.63-.45.65c-1.19.66-2.4 1.28-3.56 1.98-1.65-.73-3.28-1.59-5.09-1.8-1.45.98-2.72 2.19-4.03 3.33l-1.16-.95c1.39-2.06 3.07-3.88 4.79-5.67z"/><path fill="#232731" d="M247.41 167.73c3.94-1.43 7.59-3.6 10.53-6.62.12 2.35.34 4.73 1.16 6.96-2.13 1.27-4.09 2.78-5.92 4.45l3.26.82.46-2.8c2.69 2.69 5.61 5.62 5.66 9.69-2.33-1.94-4.51-4.06-6.6-6.25l2.56 7.41c-2.86-2.95-5.6-6.02-8.53-8.9 1.4 3.55 3.27 6.89 5.46 10.01 3.92 5.52 6.02 12.13 10.32 17.41l2.61-2.29 2.64.91c.29 4.81 3.15 8.88 5.75 12.74 1.52 2.34 3.7 4.13 6.16 5.41 2.17-.57 4.23-1.49 6.15-2.64l2.44 2.1c-2.74 2.66-4.3 6.12-5.93 9.49-2.28 1.36-5.08 1.49-7.47 2.64-4.03 1.85-7.62 4.64-11.96 5.8-7.51 2.38-15.83.99-22.67-2.7-4.14-2.25-7.1-6.01-10.69-8.96l-1.13-.89c-1.16.5-2.29 1.06-3.41 1.64l1.69-2.6c-1.9-1.12-3.81-2.21-5.77-3.21.68-1.06 1.36-2.12 2.09-3.15.35 3.98 3.63 6.67 7.41 7.3l1.06-.11 2.81 3.14c.65.73 1.32 1.45 2.02 2.14 10.22 10.58 29.15 7.97 37.41-3.73 1.29-.96.64-2.63-.4-3.49-2.33-2.24-5.01-4.17-6.73-6.97-.61-1-1.17-2.02-1.76-3.02-3.48-5.6-8.18-10.35-11.19-16.28-2.42-4.81-6.24-8.65-10.58-11.75.5-1.86.51-3.79.38-5.7.52-.89 1.09-1.74 1.66-2.6l-.95-5.4z"/><path opacity=".76" d="M226.18 161.34c3.18 1.6 6.25 3.43 8.98 5.74l4.67 3.77c.45 3.77 2.33 7.11 5.28 9.49-.86 3.85-2.01 7.63-3.57 11.26-4.01-5.53-8.95-10.3-12.93-15.87l-.43-1.16c-.95-2.51-2.28-4.86-3.67-7.14.63-2.01 1.13-4.06 1.67-6.09zm-4.34 65.29c-2.89-1.88-.43-4.91.84-6.99l.76 4.15 2.77.45-4.37 2.39z"/><path fill="#7a7c7d" d="M202.6 163.13c1.14-.95 1.78-.69 1.92.76-1.15.93-1.79.68-1.92-.76z"/><path d="M170.34 167.26l4.03-3.33c1.81.21 3.44 1.07 5.09 1.8-1.95 1.32-3.79 2.78-5.55 4.34l-3.57-2.81zm59.47 14.86l5.4 7.79-1.51 4.7c-.71-2.09-1.54-4.13-2.64-6.04-.97-1.51-2.05-2.94-3.2-4.31l1.95-2.14z" fill="#d7cdc6"/><path fill="#4c2c1c" d="M179.46 165.73l3.56-1.98-4.2 6.48c-1.04 1.63-1.94 3.36-2.6 5.19-.62 2.03-.93 4.14-1.19 6.25l-.55 4.97c-.2 2.31-.26 4.63-.22 6.95-.4 1.7.16 2.24 1.66 1.61 3.04-3.68 3.22-8.67 3.56-13.21l1.44 3.99c.44 1.5 1.04 2.98 1.2 4.55-1 1.68-2.37 3.09-3.52 4.65-.55 1.5-.99 3.03-1.44 4.56l-3.28-3.16-2.41 8.28c-1.92-1.15-3.73-2.47-5.39-3.97.2-2.4.23-4.82.32-7.23.09-2.24.9-4.34 1.8-6.36l-.51.03 1.34-9.78 4.69-.13c.43-2.42 1.17-4.96.19-7.35 1.76-1.56 3.6-3.02 5.55-4.34z"/><path fill="#ccc2bc" d="M157.74 170.83c1.6-3.67 6.03-4.49 9.32-6.04 1.29 6 .73 12.18.11 18.22l-5.33.36c-2.85-3.44-5.7-7.9-4.1-12.54z"/><path fill="#5d504e" opacity=".98" d="M238.21 164.95a29.97 29.97 0 0 1 3.87 5.09l.94 3.19-3.19-2.38-4.67-3.77 3.05-2.13z"/><path fill="#58595e" d="M261.23 166.15c1.31.66 1.31 1.33.01 2.02-1.32-.66-1.32-1.34-.01-2.02z"/><path fill="#c78c6e" d="M221.57 174.8l2.94-7.37c1.39 2.28 2.72 4.63 3.67 7.14l-3.06 3.51-3.55-3.28z"/><path fill="#60453c" d="M124.56 173.54c4.68-3.06 10.43-4.67 16.03-4.23-1.02 1.49-1.97 3.03-2.82 4.62l-1.1-1.49c-1.35.7-2.69 1.42-4.07 2.06-2.09.44-4.21.75-6.32 1.08l.02 4.68c2.1.34 4.2.68 6.28 1.15 1.63.93 3.21 1.97 4.79 2.99-1-2.39-1.9-4.81-2.66-7.29l2.22 2.79c.93 1.17 1.97 2.25 3.03 3.31l1.36 1.33-1.56 2.34-2.66-.24c-3.46-.75-7.01-.74-10.47-1.4-4.54-1.61-6.25-8.75-2.07-11.7z"/><path fill="#cdc4be" d="M140.59 169.31c2.18.19 4.38.27 6.55-.03l-5.33 1.4.58 1.97c.61 3.03.9 6.11 1.25 9.18l-3.68 1.38-3.03-3.31c.16-2 .43-4 .84-5.97.85-1.59 1.8-3.13 2.82-4.62z"/><path fill="#c6bcb7" d="M146.88 172.36c3.17-1.09 6.3-2.32 9.44-3.5-.67 5.14-.17 10.41 2.14 15.11-4.07-.12-8.34-.26-11.78-2.72l.2-8.89z"/><path fill="#2b3343" d="M253.18 172.52c1.83-1.67 3.79-3.18 5.92-4.45l4.84 8.68 3.44-2.54-2.66 5.72c3.47 3.28 6.67 6.92 8.84 11.21.61 1.81 1.14 3.65 1.71 5.47l-4.11-.78-.14 2.7-2.64-.91-2.61 2.29c-4.3-5.28-6.4-11.89-10.32-17.41-2.19-3.12-4.06-6.46-5.46-10.01 2.93 2.88 5.67 5.95 8.53 8.9-.81-2.49-1.67-4.95-2.56-7.41 2.09 2.19 4.27 4.31 6.6 6.25-.05-4.07-2.97-7-5.66-9.69l-.46 2.8-3.26-.82m9.63 9.8l2.41 6.57 3.47-.9-3.16-5.56-2.72-.11m6.47 9.83c-.53 1.62.01 2.18 1.64 1.68.53-1.64-.02-2.2-1.64-1.68z"/><path fill="#72625c" d="M176.22 175.42c.66-1.83 1.56-3.56 2.6-5.19l3.9.07-.71 2.52c-1.24 4.26-1.76 8.75-1.09 13.16-.46-1.34-.96-2.66-1.44-3.99-.34 4.54-.52 9.53-3.56 13.21-1.5.63-2.06.09-1.66-1.61 1.57-2.22 2.02-4.7.22-6.95.14-1.66.33-3.32.55-4.97 1.79-1.75 2.14-3.97 1.19-6.25z"/><path fill="#c5bab1" d="M132.6 174.5l4.07-2.06 1.1 1.49c-.41 1.97-.68 3.97-.84 5.97l-2.22-2.79c.76 2.48 1.66 4.9 2.66 7.29l-4.79-2.99.02-6.91z"/><path fill="#95827c" d="M142.39 172.65c1.5.04 3.01-.02 4.49-.29l-.2 8.89-1.42-.95-.3 6.6c-1.74.03-3.47.04-5.2-.02l1.56-2.34-1.36-1.33 3.68-1.38-1.25-9.18z"/><path fill="#c08161" d="M182.01 172.82l3.63 3.81c-1.71 1.68-4.07 3.52-3.54 6.25.43 3.9 4.44 5.54 7.68 6.64l-.45 2.35c-4.17.01-7.9 2.07-9.82 5.83-.32-.84-.62-1.68-.91-2.52 1.15-1.56 2.52-2.97 3.52-4.65-.16-1.57-.76-3.05-1.2-4.55-.67-4.41-.15-8.9 1.09-13.16z"/><path fill="#070707" opacity=".67" d="M274.71 173.33c8.07 8.62 6.3 21.83 1.82 31.77l-2.07-3.46c2.2-2.32 2.58-5.45 2.58-8.5.1-1.27.27-2.53.46-3.78 1.62-5.58-.82-10.93-2.79-16.03z"/><path fill="#95726a" d="M126.28 175.58l6.32-1.08-.02 6.91-6.28-1.15-.02-4.68z"/><path fill="#656161" d="M214.84 177.34c2.28-.73 4.51-1.63 6.73-2.54l3.55 3.28 3.06-3.51.43 1.16c1.36 6.98 8.4 10.29 11.34 16.43 1.89 2.14 1.87 4.88.98 7.45-1.22 1.26-2.42 2.55-3.44 3.97-1.54 2.25-3.17 4.53-5.54 5.99.96-6.64 5.07-12.48 4.88-19.38l-1.62-.28c-1.89-2.54-3.58-5.21-5.4-7.79l-1.95 2.14c-3.65-3.41-8.31-5.45-13.02-6.92z"/><path fill="#ad9d98" d="M176.22 175.42c.95 2.28.6 4.5-1.19 6.25.26-2.11.57-4.22 1.19-6.25z"/><path d="M246.7 175.73c.13 1.91.12 3.84-.38 5.7-1.62 4.09-2.55 8.39-3.37 12.69l-1.41-2.52c1.56-3.63 2.71-7.41 3.57-11.26.42-1.57.92-3.12 1.59-4.61zm-39.85 11.78l1.94 4.84 2.28.79c.45 2.46 1.03 4.9 1.94 7.24l.47.76-1.65-.99-1.37-2.05-.84-.33-2.37-.75-2.8 1.73c.38-2.45.94-4.88 1.82-7.19l.58-4.05z" fill="#c5c2c5"/><path fill="#df9c7b" d="M182.1 182.88c-.53-2.73 1.83-4.57 3.54-6.25l6.39 1.28-1.13 6.27-1.12 5.34c-3.24-1.1-7.25-2.74-7.68-6.64z"/><path fill="#b98167" d="M192.03 177.91l7.04.22c-2.3 2.54-5.2 4.4-8.17 6.05l1.13-6.27z"/><path d="M209.62 178.9c7.27-.07 13.12 4.93 17.26 10.4 1.32 3.08.13 6.54-.17 9.74l-2.02.96v-4.04c-2.13-3.13-4.7-5.91-7.06-8.87l-.52 3.9-4.96-3.58-1.73 1.61.5 3.21.15.91-2.28-.79-1.94-4.84-.58 4.05c-.88 2.31-1.44 4.74-1.82 7.19l2.8-1.73 2.37.75-.82 4.04-4.1-.33 4.51 3.26-4.22.5c-.14-1.32-.78-1.89-1.9-1.69-.5 1.03-.22 1.89.84 2.57l-3.15 2.26c-2.58-3.27-4.19-7.25-3.89-11.48l-.04-2.68c.16-3.83-.01-8.15 2.37-11.39 2.37-2.09 6.03-1.97 8.92-1.19 2.81 1.49 4.7 4.23 7.35 5.96 1.99-1.01 1.58-3.4 1.77-5.24a54.67 54.67 0 0 1-7.64-3.46m-10.47 10.58c-.94 1.15-.69 1.8.75 1.95.93-1.16.68-1.81-.75-1.95zm-14.24 62.79c4.21-.31 8.43-.82 12.54-1.8-3.79 2.4-8.23 2.69-12.54 1.8z" fill="#99979a"/><path opacity=".75" d="M242.95 194.12c.82-4.3 1.75-8.6 3.37-12.69 4.34 3.1 8.16 6.94 10.58 11.75-.53 1.36-2.07 2.74-1.14 4.26 2.54 5.1 5.94 9.72 8.73 14.69l3.6-2.67 1.76 3.02c-1.51 2.03-2.86 4.17-4.18 6.32-3.78.82-7.33 2.34-10.74 4.12-4.75 2.49-10.22 2.64-15.36 3.75-.7-.69-1.37-1.41-2.02-2.14 5.18-.15 10.61-.24 15.33-2.68 3.06-1.47 5.26-4.14 7.47-6.63-2.87-2.65-5.73-5.37-7.9-8.66-2.86-4.38-6.86-7.9-9.5-12.44z"/><path fill="#1b2029" d="M262.81 182.32l2.72.11 3.16 5.56-3.47.9-2.41-6.57z"/><path fill="#211f1e" opacity=".45" d="M137.1 186.64l2.66.24 5.2.02c6.57-.22 13.11.68 19.67.57 1.02-.03 2.04-.07 3.06-.14l.51-.03c-.9 2.02-1.71 4.12-1.8 6.36l-2.12 1.33 1.42-6.2c-9.44-2.11-19.21-.01-28.6-2.15z"/><path fill="#a79791" d="M174.48 186.64c1.8 2.25 1.35 4.73-.22 6.95l.22-6.95z"/><path fill="#bfbcc0" d="M212.15 187.41l4.96 3.58.52-3.9c2.36 2.96 4.93 5.74 7.06 8.87l-1.57.19-4.12.36.62-2.33-8.7-1.95-.5-3.21 1.73-1.61z"/><path fill="#ece4df" d="M199.15 189.48c1.43.14 1.68.79.75 1.95-1.44-.15-1.69-.8-.75-1.95z"/><path fill="#494545" d="M231.06 188.57c1.1 1.91 1.93 3.95 2.64 6.04-.74 3.4-2.59 6.38-4.85 8.98.76-5 1.29-10.04 2.21-15.02z"/><path fill="#e7a381" d="M179.51 197.7c1.92-3.76 5.65-5.82 9.82-5.83l-.53 3.28 1.38.88.72.47-.78.29-1.92.73c-.39 2.76-.44 5.55-.48 8.33-.93-.26-1.86-.51-2.79-.73-1.86-2.43-3.77-4.84-5.42-7.42z"/><path d="M210.92 192.23l8.7 1.95-.62 2.33c-2.19.97-4.1 2.42-5.99 3.87-.91-2.34-1.49-4.78-1.94-7.24l-.15-.91zm-7.67 24.93l3.85-1.94.5 1.84 2.05 9.45c-2.24-2.55-4.08-5.4-5.79-8.32l-.61-1.03z" fill="#f1eaee"/><path fill="#222327" opacity=".66" d="M269.28 192.15c1.62-.52 2.17.04 1.64 1.68-1.63.5-2.17-.06-1.64-1.68z"/><path fill="#664a42" d="M166.4 193.66l-.32 7.23-.15 1.84.58 2.51.49 2.08c-2.19-1.11-4.78-1.95-6.23-4.06-.62-1.62-.84-3.36-1.17-5.05l4.68-3.22 2.12-1.33z"/><path fill="#f6efe8" d="M196.89 196.9c-2.39 1.13-2.13-2.77-.04-2.68l.04 2.68z"/><path fill="#6b6365" d="M177.16 199.74l1.44-4.56.91 2.52c1.65 2.58 3.56 4.99 5.42 7.42l-1.54-.36 2.16 4.18-3.18-.07-4.29-2.24-3.52-1.76.38 3.47-5.89.93 3.44-4.04c-1.99-.02-3.99-.02-5.98.01l-.58-2.51.15-1.84c1.66 1.5 3.47 2.82 5.39 3.97l2.41-8.28 3.28 3.16z"/><path fill="#9b979c" d="M219 196.51l4.12-.36-.63 3.62c-1.25 1.23-2.44 2.59-3.94 3.53-1.85-.28-3.49-1.23-5.07-2.16l-.47-.76c1.89-1.45 3.8-2.9 5.99-3.87z"/><path fill="#686063" d="M223.12 196.15l1.57-.19V200c-.11 4.3 1.77 8.25 3.48 12.07l-1.9 2.13c-.73 1.03-1.41 2.09-2.09 3.15l-1.5 2.29c-1.27 2.08-3.73 5.11-.84 6.99-.24.13-.74.38-.99.5-2.95-.52-5.69-1.8-8.4-3.02l-.58-3.2c2.19.38 4.41.57 6.63.67-2.14-1.39-4.52-2.33-7.05-2.68l-1.38-6.3c4.62.18 9.16-.81 13.31-2.83-.47-3.32-.94-6.65-.89-10 .17-1.22.38-2.42.63-3.62z"/><path fill="#0f121a" d="M271.02 198.53l.14-2.7 3.3 5.81 2.07 3.46c2.32 3.75 4.55 7.57 6.4 11.58-2.46-1.28-4.64-3.07-6.16-5.41-2.6-3.86-5.46-7.93-5.75-12.74z"/><path fill="#ce9275" d="M188.2 197.52l1.92-.73-.01 1.75 1.58 8.76-3.97-1.45.48-8.33z"/><path fill="#ece6df" d="M190.12 196.79l.78-.29c1.63.38.63 2.76-.79 2.04l.01-1.75z"/><path fill="#393a3b" opacity=".36" d="M237.49 203.58c1.02-1.42 2.22-2.71 3.44-3.97-1.82 7.32-3.42 14.74-6.19 21.78l-1.06.11c1.39-5.94 3.97-11.71 3.81-17.92z"/><path fill="#e8e3e1" d="M203.09 203.55c1.12-.2 1.76.37 1.9 1.69l-1.06.88c-1.06-.68-1.34-1.54-.84-2.57z"/><path fill="#7a777e" d="M166.51 205.24l5.98-.01-3.44 4.04 5.89-.93c-.03 4.03-.87 7.99-1.62 11.94-.3 1.73-.59 3.46-.76 5.2l-.09.9-2.52-3.44c-3.29 1.55-7.61 3.05-8.49 7.08.17 3.05 1.5 5.88 2.14 8.84-2.31-1.35-5.06-2.63-6.11-5.29-3.83-8.98 1.42-20.01 10.06-23.95l-.55-2.3-.49-2.08m.97 5.7c.5 2.52 1.09 5.02 1.81 7.48 1.02-.94 2.36-1.64 3.03-2.9.19-1.82-.15-3.65-.32-5.46l-4.52.88m-9.31 20.27c3.18-3.36 5.56-7.41 6.58-11.94l2.36.21c-.43-1.97-.9-3.94-1.41-5.9-4.93 4.33-7.02 11.25-7.53 17.63z"/><path d="M174.56 204.87l3.52 1.76c.02 4.81-1.38 9.42-3.28 13.79l-1.48-.14c.75-3.95 1.59-7.91 1.62-11.94l-.38-3.47zm4.12 8.69c.7-1.68 2.51-2.02 4.1-1.61l4.29 1.93c3.95 1.83 8.16 3.01 12.39 3.99 2.33 2.57 3.46 5.92 5.2 8.88-1.96 3.13-3.82 6.33-5.53 9.61-2.93.54-5.82 1.28-8.71 1.99l-.75 3.26-.25.92c-.83-2.86-1.67-5.73-2.88-8.45-.88-1.46-1.82-2.88-2.74-4.31l-.41 5.93c-2.69-3.13-5.97-6.03-7.49-9.96-.08-4.16.97-8.44 2.78-12.18z" fill="#fcf9f8"/><path fill="#939096" d="M183.39 204.76l1.54.36 2.79.73 3.97 1.45 3.19 1.85-.71 2.65-5.96-1.67 1.45 4.19-2.59-.44-4.29-1.93-.41-3.08 3.18.07-2.16-4.18z"/><path fill="#bbaea3" d="M178.08 206.63l4.29 2.24.41 3.08c-1.59-.41-3.4-.07-4.1 1.61-1.81 3.74-2.86 8.02-2.78 12.18 1.52 3.93 4.8 6.83 7.49 9.96l.41-5.93 2.74 4.31c-.84 2.34-2.03 5.41-5.12 4.83-2.79-3.22-4.89-6.96-7.47-10.34-.48-1.02-.94-2.05-1.39-3.09.17-1.74.46-3.47.76-5.2l1.48.14c1.9-4.37 3.3-8.98 3.28-13.79z"/><path fill="#aba6ad" d="M167.48 210.94l4.52-.88c.17 1.81.51 3.64.32 5.46-.67 1.26-2.01 1.96-3.03 2.9l-1.81-7.48z"/><path fill="#c6bfc1" d="M188.21 210.13l5.96 1.67c3.18.43 4.39 3.38 5.29 6.07-4.23-.98-8.44-2.16-12.39-3.99l2.59.44-1.45-4.19z"/><path fill="#f0ebe6" d="M205.57 212.13c1-.94 2.89-.24 3.15 1.08-.22 2-4.07.62-3.15-1.08z"/><path fill="#b8b2b8" d="M158.17 231.21c.51-6.38 2.6-13.3 7.53-17.63.51 1.96.98 3.93 1.41 5.9l-2.36-.21c-1.02 4.53-3.4 8.58-6.58 11.94z"/><path d="M207.6 217.06c2.04 1.43 2.52 3.92 3.26 6.13 1.11 3.63 3.58 6.59 5.39 9.87-7-1.32-11.44-8.21-12.39-14.87 1.71 2.92 3.55 5.77 5.79 8.32-.56-3.18-1.27-6.33-2.05-9.45zm-24.24 31.51c-3.52-1.23-5.53-4.45-7.07-7.62 2.72 2.11 5.15 4.7 8.27 6.25 3.06.66 6.2-.08 9.28-.27l3.23.46c-4.28 1.78-9.28 3.51-13.71 1.18z" fill="#a8a4ab"/><path fill="#bbb0ac" d="M211.45 218.9c2.53.35 4.91 1.29 7.05 2.68-2.22-.1-4.44-.29-6.63-.67l-.42-2.01z"/><path fill="#cbb4ad" d="M228.26 223.16l3.41-1.64 1.13.89c-3.3 3.48-1.86 8.27-1.93 12.56l-5.25 3.47-4.77-11.31c.25-.12.75-.37.99-.5 1.47-.77 2.91-1.6 4.37-2.39l2.05-1.08z"/><path fill="#896d6c" d="M172.47 226.38l.09-.9 1.39 3.09c-.66 4.32-.54 8.84 2.34 12.38 1.54 3.17 3.55 6.39 7.07 7.62 4.43 2.33 9.43.6 13.71-1.18l-3.23-.46c2.59-.67 5.13-1.56 7.56-2.68.93-1.34 1.78-2.72 2.64-4.1l.51 1.44a56.96 56.96 0 0 1 8.05-5.46l.04 1.11-2.85 2.08-.03 3.59 3.35.24-3.52 1.57-.87-4.67c-2.82 3.02-5.56 6.13-8.53 9.02l-1.2.74-1.54.66c-4.11.98-8.33 1.49-12.54 1.8-4.82-.79-10.93-2.56-12.02-8.09-1.22-5.82-.4-11.89-.42-17.8z"/><path fill="#c9c3c8" d="M214.37 226.31c1.19-1.13 3.41.77 2.42 2.1-1.2 1.13-3.46-.76-2.42-2.1z"/><path fill="#d2c7c2" d="M204.66 226.75c1.11 2.03 2.54 3.96 3.09 6.25-.5 2.68-2.42 4.81-3.71 7.15l-2.64 4.1.37-5.24-1.45.45 2.61-3.68-3.8.58c1.71-3.28 3.57-6.48 5.53-9.61z"/><path fill="#fefdfd" d="M173.95 228.57c2.58 3.38 4.68 7.12 7.47 10.34 3.09.58 4.28-2.49 5.12-4.83 1.21 2.72 2.05 5.59 2.88 8.45l.25-.92c3.59-.49 7.23-.91 10.65-2.15.36-.12 1.09-.34 1.45-.45-.09 1.75-.23 3.49-.37 5.24-2.43 1.12-4.97 2.01-7.56 2.68-3.08.19-6.22.93-9.28.27-3.12-1.55-5.55-4.14-8.27-6.25-2.88-3.54-3-8.06-2.34-12.38z"/><path fill="#b7b1b6" d="M218.36 231.4c1.34-1.11 3.18 1.19 2.03 2.37-1.33 1.13-3.18-1.2-2.03-2.37z"/><path fill="#635e5e" d="M215.23 234.58c1.24.05 2.49.06 3.72.28.79 1.27 1.37 2.65 2 4.01l-3.92 2.05-1.8-6.34z"/><path fill="#b2a396" d="M190.42 238.35l8.71-1.99 3.8-.58-2.61 3.68c-3.42 1.24-7.06 1.66-10.65 2.15l.75-3.26z"/><path fill="#b5a9a5" d="M209.79 239.32l2.85-2.08.47 5.91-3.35-.24.03-3.59z"/><path fill="#615856" opacity=".92" d="M200.19 249.07c2.97-2.89 5.71-6 8.53-9.02l.87 4.67c-3.06 1.6-6.19 3.07-9.4 4.35z"/></svg>