<svg xmlns="http://www.w3.org/2000/svg" width="512" height="512" viewBox="0 0 384 384" xmlns:v="https://vecta.io/nano"><path fill="#1b1715" opacity=".98" d="M238.68 117.02c2.13.78 4.33 1.68 5.78 3.52 5.67 6.46 8.01 15.14 8.56 23.56-.65-1.49-1.38-2.95-2.1-4.41-.38 4.57-.65 9.17-1.76 13.64.71-8.81.5-18.05-3.26-26.22-1.67-3.85-4.71-6.8-7.22-10.09z"/><path d="M225.94 130.72c2.99-2.47 5.85-5.11 8.48-7.96-2.15 3.3-5.1 5.97-8.48 7.96zm-42.92 15.33c3.71-2.32 8.08-3.02 12.34-3.59 1.68 1.47 3.37 2.93 5.15 4.28-4.24 1.58-7.78 4.48-10.45 8.09a120.31 120.31 0 0 0-6.66-5.92l.75-3.42-1.13.56z" fill="#4d555b"/><path d="M165.98 127.24c4.85-.04 9.75-.32 14.55.5 6.49 2.23 11.36 7.64 17.98 9.66l.22 2.69c1.73 1.24 3.72 2.42 4.44 4.57-3.04-.7-5.6-2.51-8.12-4.24-6.83-4.6-14.46-8.45-22.62-9.91.2 1.15.47 2.29.8 3.41-.97.38-1.95.74-2.94 1.08l.55-1.81-5.24-3.28.38-2.67zm26.53 106.39c1-1.7 2.29-3.18 3.63-4.6l4.76 5.11c-1.53-1.08-3.1-2.14-4.85-2.8-1.25.64-2.38 1.48-3.54 2.29z" fill="#1f242e"/><path fill="#6b6664" d="M172.43 130.51c8.16 1.46 15.79 5.31 22.62 9.91l-1.55.02c-1.5.01-3-.01-4.5-.01-2.88-.67-5.83-1.12-8.8-.93l.13-4.31-.58-.5c-.99-.79-1.91-1.74-3.08-2.26-1.2.37-2.29 1-3.44 1.49-.33-1.12-.6-2.26-.8-3.41m13.64 5.78c-1.52 3.03 3.28.18 0 0z"/><path opacity=".73" d="M231.14 130.71c4.21 1.93 7.63 5.33 9.39 9.64 3.32 6.48 2.73 13.88 3.27 20.9-1.28-2.81-2.95-5.42-4.72-7.94l3.64.44-2.65-4.64c-.59-3.28-.92-6.69-2.44-9.71-1.62-3.27-4.25-5.85-6.49-8.69z"/><path fill="#d59574" d="M173.23 133.92c1.15-.49 2.24-1.12 3.44-1.49 1.17.52 2.09 1.47 3.08 2.26-1.17.66-1.41 1.55-.7 2.66l-2.63 1.45c-2.01-.29-4.04-.73-6.09-.55-3.04 1.99-4.89 5.3-7.45 7.82.16-1.83.04-3.75.69-5.5 1.45-2.24 3.71-3.79 5.87-5.27l.85-.3c.99-.34 1.97-.7 2.94-1.08z"/><path fill="#1d2129" opacity=".92" d="M199.22 137.68l6.11-3.39-2.5 4.92-3.61-1.53z"/><path fill="#5c5d5f" d="M205.33 134.29l.59-.38c.23 2.64.73 5.3.44 7.95-.6 1.52-1.69 2.77-2.62 4.09l-.57-1.29c-.72-2.15-2.71-3.33-4.44-4.57l-.22-2.69.71.28 3.61 1.53 2.5-4.92z"/><path fill="#0c0d0e" d="M205.92 133.91l3.4 1.74-1.83 1.89c1.34 3.01 2.8 5.98 4.59 8.74.18-2.76-.13-5.52-.75-8.21 2.17.23 4.53-.05 6.52.96.56 1.09.97 2.25 1.41 3.4l-3.22 2.52c-3.28 2.49-6.01 5.59-9.01 8.39-1.16-2.43-2.28-4.89-3.29-7.39.93-1.32 2.02-2.57 2.62-4.09.29-2.65-.21-5.31-.44-7.95z"/><path fill="#202731" d="M209.32 135.65c4.25-.66 9.29.84 12.84-2.04l.1 4.34c.03 2.02-.05 4.04-.27 6.05l-2.73-1.57c-.44-1.15-.85-2.31-1.41-3.4-1.99-1.01-4.35-.73-6.52-.96.62 2.69.93 5.45.75 8.21-1.79-2.76-3.25-5.73-4.59-8.74l1.83-1.89z"/><path fill="#946149" opacity=".94" d="M160.83 142.16c1.15-3.81 5.08-5.77 8.61-6.86-2.16 1.48-4.42 3.03-5.87 5.27-.65 1.75-.53 3.67-.69 5.5 2.56-2.52 4.41-5.83 7.45-7.82 2.05-.18 4.08.26 6.09.55-2.62 1.53-5.57 2.7-7.64 5-2.01 2.69-2.47 6.16-2.97 9.39-.93-2.65-.5-5.46 0-8.14-1.03 1.52-2.09 3.02-3.17 4.51-.82-2.4-1.83-4.83-1.81-7.4z"/><path fill="#fbf3eb" d="M179.75 134.69l.58.5-1.28 2.16c-.71-1.11-.47-2 .7-2.66z"/><path fill="#ac9b92" d="M180.33 135.19l-.13 4.31c-8.33.64-13.92 9.86-11.22 17.62 4.86-7.38 11.34-14.07 20.02-16.69l4.5.01 1.86 2.02c-4.26.57-8.63 1.27-12.34 3.59-6.06 3.33-11.52 8.88-11.97 16.13l-1.87-2.03-.99-1.21c-.9-1.87-1.77-3.77-2.38-5.75.5-3.23.96-6.7 2.97-9.39 2.07-2.3 5.02-3.47 7.64-5l2.63-1.45 1.28-2.16z"/><path d="M186.07 136.29c3.28.18-1.52 3.03 0 0zm3.1 30.97c.61.61.61.61 0 0z" fill="#fff"/><path fill="#1e1c1a" d="M222.26 137.95c5.8 3.93 12.12 7.05 17.81 11.16l2.65 4.64-3.64-.44c1.77 2.52 3.44 5.13 4.72 7.94l.48 1.08c1.23-1.09 2.42-2.21 3.49-3.45l-1.01 3.56 4.35.8c.22 1.78 1.31 3.41 1.24 5.21-1.48 2.21-3.46 4.07-4.67 6.47a75.51 75.51 0 0 1 .38-1.43l-2.75.54 1.67 3.26c-.8 2.52-1.89 4.94-3.13 7.28l-.46.84c-1.08-.7-2.15-1.4-3.18-2.17 1.08-1.99 2.19-3.99 2.81-6.18.49-1.95.82-3.93 1.13-5.91.68-2.04-1.67-3.16-3.34-3.05-6.13-.97-12.03-3.26-17.29-6.53-2.63-1.64-5.37-3.09-8.26-4.19 1.87-4.65 5.06-8.64 6.73-13.38.22-2.01.3-4.03.27-6.05m5.4 18.09l3.09-1.39.28-4.01c-1.84 1.29-2.92 3.21-3.37 5.4m6.78-.14l.89 4.02 2.52-4.76c-1.14.22-2.28.46-3.41.74z"/><path fill="#373a39" d="M180.2 139.5c2.97-.19 5.92.26 8.8.93-8.68 2.62-15.16 9.31-20.02 16.69-2.7-7.76 2.89-16.98 11.22-17.62z"/><path fill="#868385" d="M193.5 140.44l1.55-.02c2.52 1.73 5.08 3.54 8.12 4.24l.57 1.29 3.29 7.39c3-2.8 5.73-5.9 9.01-8.39l1.61.04c-1.31 1.82-2.69 3.6-4.06 5.37l2.13 1.93c-2.77 5.61-5.17 11.84-3.5 18.16 5.6.94 11.05 2.59 16.14 5.12-2.29-3.81-6.08-6.12-9.45-8.83l2.38-4 .54.38c1.18 1.74 2.42 3.45 3.86 4.99.79.93 1.76 1.69 2.75 2.41l.9-1.53c.73 1.27 1.48 2.53 2.36 3.7.95.77 1.92 1.52 2.9 2.27l-1.85 2.4-.54-.48c-1.01-.78-2.06-1.51-3.1-2.24.79 2.38 1.61 4.75 2.53 7.08-3.02 3.72-.58 8.92-3 13-2.13-1.48-3.75-3.57-4.35-6.12-.85-3.7-2.01-7.92-6.16-9.05l-.33 5.04-5.2-4.31-2.48 5.92c-.01-1.74-.03-3.48.04-5.21.48-1.64 1.06-3.24 1.64-4.84l-3.21-1.71c1.57-.2 3.14-.49 4.71-.76-2.71-.56-5.57-.7-8.09-1.91-1.73-2.59-2.04-5.81-2.2-8.84.59-2.58 1.66-5.07 1.86-7.72-.27-3.27-2.33-6.04-4.36-8.47-1.78-1.35-3.47-2.81-5.15-4.28l-1.86-2.02m12.31 27.65l2.95-1.44a76.89 76.89 0 0 0 .68-7.42c-3.67 1.07-4.1 5.64-3.63 8.86m1.4 1.31c-1.51.96.05 3.59 1.55 2.36 1.52-.96-.08-3.53-1.55-2.36m6.93 2.96c-1.58 2.97 3.31.18 0 0m2.19.89c.54.54.54.54 0 0m1.46 3.16c2.1 1.93 4.76 3 7.31 4.17l-.58-2.14c-2.24-.7-4.47-1.42-6.73-2.03z"/><path fill="#363945" d="M250.92 139.69l2.1 4.41c.63 6.44-.67 12.85-1.91 19.14l-4.35-.8 1.01-3.56c.54-1.83 1-3.69 1.39-5.55 1.11-4.47 1.38-9.07 1.76-13.64z"/><path fill="#625756" d="M216.04 144.95l3.22-2.52 2.73 1.57c-1.67 4.74-4.86 8.73-6.73 13.38l.19.78c.63 3.04 1.84 5.93 3.46 8.58 3.37 2.71 7.16 5.02 9.45 8.83-5.09-2.53-10.54-4.18-16.14-5.12-1.67-6.32.73-12.55 3.5-18.16l-2.13-1.93 4.06-5.37-1.61-.04z"/><path fill="#5b4439" opacity=".89" d="M162.64 149.56l3.17-4.51c-.5 2.68-.93 5.49 0 8.14.61 1.98 1.48 3.88 2.38 5.75-2.46-2.73-4.39-5.89-5.55-9.38z"/><path fill="#3f4343" d="M171.05 162.18c.45-7.25 5.91-12.8 11.97-16.13l1.13-.56-.75 3.42a120.31 120.31 0 0 1 6.66 5.92c2.67-3.61 6.21-6.51 10.45-8.09 2.03 2.43 4.09 5.2 4.36 8.47-.2 2.65-1.27 5.14-1.86 7.72l-1.19 4.48c-7.23.36-13.09 4.87-19.02 8.47-2.34 1.36-6.02 3.22-8 .32-2.53-3.68-2.52-8.4-3.69-12.59-.37 3.01-.64 6.03-.92 9.05.1-4.19.08-8.44-1.01-12.51l1.87 2.03m20.14-4.93c.54.53.54.53 0 0m-2.02 10.01c.61.61.61.61 0 0z"/><path fill="#545354" d="M227.66 156.04c.45-2.19 1.53-4.11 3.37-5.4l-.28 4.01-3.09 1.39z"/><path d="M234.44 155.9l3.41-.74-2.52 4.76-.89-4.02zm-47.84 64.9l4.58-1.31 4.88 7.93.08 1.61c-1.34 1.42-2.63 2.9-3.63 4.6-.23 2.76-1.77 6.08.3 8.49 2.24 1.97 5.03 3.14 7.47 4.83-7.19 2.55-14.59-2.5-16.53-9.48 1.25-3.23.34-6.68.65-10.02.38-2.32 1.37-4.47 2.2-6.65z" fill="#948f95"/><path fill="#aeadb0" d="M191.19 157.25c.54.53.54.53 0 0z"/><path fill="#010101" opacity=".75" d="M215.26 157.38c2.89 1.1 5.63 2.55 8.26 4.19 5.26 3.27 11.16 5.56 17.29 6.53-.13 1.76 1.55 3.43 3.34 3.05-.31 1.98-.64 3.96-1.13 5.91a95.35 95.35 0 0 0-.12-4.14c-2.57 1.32-4.02 3.78-5.13 6.33-.78-1.31-1.59-2.6-2.54-3.78l.39-3.28-3.92.5c-.88-1.17-1.63-2.43-2.36-3.7l-1.4-2.05c-1.42-2.12-3.7-3.22-6.11-3.82l-.54-.38c-2.03-1.42-3.96-2.98-5.84-4.58l-.19-.78z"/><path fill="#b0836d" opacity=".98" d="M218.91 166.74c-1.62-2.65-2.83-5.54-3.46-8.58l5.84 4.58-2.38 4z"/><path fill="#fdf9fa" d="M205.81 168.09c-.47-3.22-.04-7.79 3.63-8.86l-.68 7.42-2.95 1.44z"/><path fill="#726e70" d="M201.82 167.41l1.19-4.48c.16 3.03.47 6.25 2.2 8.84 2.52 1.21 5.38 1.35 8.09 1.91l-4.71.76-9.95-.46c.22 5.13-3.68 10.06-1.49 15.08.92 2.73 1.31 5.59 1.82 8.42.76 2.31 2.76 5.05 5.55 3.98 4.28-.68 5.48-5.23 7.39-8.43l.24.95.44 1.26c2.55.64 5.18 1.29 7.83 1.1 2.21-1.14 2.64-3.99 3.45-6.12l.42-1.62c.6 2.55 2.22 4.64 4.35 6.12l1.06.94c1.27-1.06 2.57-2.09 3.66-3.34.69-2.22.26-4.57.14-6.84.09-2.93-.45-5.81-1.29-8.6l.54.48c2.47 3.33 4.96 7.32 4.35 11.65-.77 3.46-2.21 6.72-3 10.17l-.37 1.5c1.14.7 2.3 1.36 3.46 2.02l-2.65-.07c-2.92.69-5.68 1.9-8.48 2.96a68.39 68.39 0 0 0-3.18-.31c-2.4.22-4.78.84-6.91 1.99-1.09.97-2.14 1.97-3.17 3l-1.15 1.17-2.86-2.23a137.52 137.52 0 0 0-2.75-2.17l-.62 1.57c-1.09 2.37-1.39 5-1.06 7.58l-1.12-2.29c-.75-1.66-1.44-3.35-2.14-5.02a198.29 198.29 0 0 1-7.24 4.48l-3.06-.36c.11-2.05.37-4.1.87-6.1 3.12.34 6.26.47 9.4.41-2.85-2.18-6.34-3.96-7.92-7.36-2.44-5.05-4.15-10.43-5.19-15.93l1.71 1.97c.74.68 1.5 2.44 2.74 1.84 1.04-1.67-.79-4.56-2.56-2.57a88.51 88.51 0 0 1 3.79-11.76c3.06-1.51 6.18-3.22 8.18-6.09z"/><path fill="#535256" opacity=".97" d="M221.83 163.12c2.41.6 4.69 1.7 6.11 3.82l-2.25 1.17c-1.44-1.54-2.68-3.25-3.86-4.99z"/><path fill="#a6958e" d="M171.11 163.61c1.17 4.19 1.16 8.91 3.69 12.59 1.98 2.9 5.66 1.04 8-.32 5.93-3.6 11.79-8.11 19.02-8.47-2 2.87-5.12 4.58-8.18 6.09-1.47.85-3.12 1.54-4.22 2.89-1.12 2.08-1.47 4.46-2.04 6.72l-.48-5.06-12.1 3.88-2.51-4.9-.55-1.25-1.21 4.02-5.51 1.85.26-3.43c.96-2.35 3.07-3.93 4.91-5.56l.92-9.05z"/><path d="M225.69 168.11l2.25-1.17 1.4 2.05-.9 1.53c-.99-.72-1.96-1.48-2.75-2.41zm-12.89 42.16l3.17-3 3.32 4.98.58-4.85c2.63 2.8 4.45 6.31 4 10.26l3.27-.07c-1.45 3.38-3.21 6.63-5.18 9.75a50.64 50.64 0 0 0-1.97-.46c-2.56-5.48-7.42-10.14-7.19-16.61z" fill="#fdf9f9"/><path fill="#060706" opacity=".38" d="M240.81 168.1c1.67-.11 4.02 1.01 3.34 3.05-1.79.38-3.47-1.29-3.34-3.05z"/><path d="M207.21 169.4c1.47-1.17 3.07 1.4 1.55 2.36-1.5 1.23-3.06-1.4-1.55-2.36zm14.82 62.69c3.31-2.85 5.59-6.62 7.91-10.27l1.58 7.34c-3.34 3.44-5.8 7.9-9.93 10.47-5.11 1.18-10.46-.06-15.62-.53l-1.06-.97c-1.07-1.95-2.05-3.94-3.04-5.92 3.62 1.35 7.29 2.53 11 3.62l4.17-2.79c1.73.55 3.76.66 4.99-.95z" fill="#fffefe"/><path fill="#e1dedd" d="M214.14 172.36c3.31.18-1.58 2.97 0 0z"/><path fill="#f9f0eb" d="M216.33 173.25c.54.54.54.54 0 0z"/><path d="M245.31 174.03l2.75-.54-.38 1.43-.7 2.37-1.67-3.26zM229 213.22c4.92-2.56 10.54 1.22 14.02 4.67l-2.11.99c-1.59-1.52-3.25-2.95-4.95-4.34l-2.13 1.2c-.62 2.88-1.3 5.75-1.76 8.66-.97-3.74-1.21-7.71-3.07-11.18z" fill="#666267"/><path fill="#db9978" d="M189.42 176.39c1.1-1.35 2.75-2.04 4.22-2.89a88.51 88.51 0 0 0-3.79 11.76l-.18.73-1.71-1.97c1.04 5.5 2.75 10.88 5.19 15.93 1.58 3.4 5.07 5.18 7.92 7.36-3.14.06-6.28-.07-9.4-.41l-6.24-.63c-1.06-1.18-2.39-2.21-3.02-3.69-.77-2.87.14-5.8.79-8.59-1.49-1.43-3.02-2.83-4.46-4.32l-3.94-7.74 12.1-3.88.48 5.06c.57-2.26.92-4.64 2.04-6.72z"/><path fill="#969398" d="M198.64 173.98l9.95.46 3.21 1.71-1.64 4.84c-1.59.37-3.3.48-4.73 1.31-.74 2.84-.47 5.81-.5 8.72l-3.3.47c-2.47-.15-2.5 2.7-.85 3.86l-1.81 2.13c-.51-2.83-.9-5.69-1.82-8.42-2.19-5.02 1.71-9.95 1.49-15.08m3.35 4.83c2.14-.18 4.26-.62 6.32-1.25-2.32-1.43-4.82-1.1-6.32 1.25z"/><path d="M229.11 174.64l3.1 2.24c.84 2.79 1.38 5.67 1.29 8.6l-1.86-3.76-2.53-7.08zm-27.12 4.17c1.5-2.35 4-2.68 6.32-1.25-2.06.63-4.18 1.07-6.32 1.25zm15.8-2.4l6.73 2.03.58 2.14c-2.55-1.17-5.21-2.24-7.31-4.17zm5.09 28.87l3.18.31.88 3.68 1.32 4.33-1.01.52-4.88-7.14.51-1.7zm-35.65 9.37l2.39-1.14c3.53 3.81 6.56 8.52 6.44 13.91-1.5-2.72-3.16-5.34-4.88-7.93-1.18-1.72-2.55-3.3-3.95-4.84zm12.9-.65l3.11-.1 1.12 2.29c.6 1.19 1.32 2.33 1.99 3.49 2.04 4.29 4.28 8.62 8.05 11.67-4.19 1.45-8.59.03-12.61-1.32-1.53-.34-1.88-2.05-2.56-3.23-1.46-3.4-4.31-6.51-3.91-10.44 1.16-1.46 3.14-1.77 4.81-2.36z" fill="#f6f2f0"/><path fill="#656261" d="M234.6 174.96l.63.51c.95 1.18 1.76 2.47 2.54 3.78l2.44 3.99 3.18 2.17c-2.44 5.01-5 10.06-9.29 13.77.79-3.45 2.23-6.71 3-10.17.61-4.33-1.88-8.32-4.35-11.65l1.85-2.4z"/><path fill="#462b1d" d="M171.74 175.78l.55 1.25c.71 4.72.91 9.49 1.44 14.23.09 1.23.2 2.47.33 3.7.5 5.48 1.52 10.93 3.75 15.99.46 1.73 1.54 3.31 3.25 4.01 2.16 1.1 3.93 2.79 5.3 4.78-1.97-.35-3.93-.71-5.86-1.21-1.36-.88-2.8-1.69-3.95-2.85-1.18-2.64-.56-6.15-2.94-8.18-1.54-.31-3.11-.32-4.67-.42l-.79-3.35c-.48-1.88-1.03-3.74-1.71-5.55-4.86-5.64-2.73-13.48-1.16-19.96-.11 1.14-.19 2.28-.26 3.43l5.51-1.85 1.21-4.02z"/><path fill="#705b54" d="M172.29 177.03l2.51 4.9 3.94 7.74.16 4.09-2.81-.73c-.54-1.48-1.23-2.9-1.96-4.28l-.4 2.51c-.53-4.74-.73-9.51-1.44-14.23z"/><path d="M212.6 180.28l5.2 4.31.33-5.04c4.15 1.13 5.31 5.35 6.16 9.05l-.42 1.62-4.54.28c.05-2.52-1.75-4.65-4.24-5.03-2.64.21-5.03 1.52-7.45 2.5 3.35 1.66 7 2.77 10.78 2.6-2.09 1.13-4.14 2.35-6.27 3.41l-.24-.95-.53-2.62-6.45.61c.03-2.91-.24-5.88.5-8.72 1.43-.83 3.14-.94 4.73-1.31-.07 1.73-.05 3.47-.04 5.21l2.48-5.92zm-103.75 27.7c.64-1.52 1.52-2.91 2.35-4.32l-.36 6.36-1.7 1.89-.29-3.93zm61.89 16.84c2.76-2.11 6.26-1.82 9.51-1.54l-4.41 1.4-5.1.14z" fill="#b7b5b7"/><path fill="#55504e" d="M228.64 194.72c2.42-4.08-.02-9.28 3-13 .59 1.27 1.21 2.52 1.86 3.76.12 2.27.55 4.62-.14 6.84-1.09 1.25-2.39 2.28-3.66 3.34l-1.06-.94z"/><path fill="#f5b491" d="M254.62 186.7l6.9-4.28-.04 5.32c.89 1.96 2.29 3.63 3.48 5.42l-1.39 2.99c-1.88-2.76-4.44-4.95-7.53-6.25l-4.25 2.86c.69-2.1 1.17-4.49 2.83-6.06z"/><path fill="#f2ede7" d="M189.85 185.26c1.77-1.99 3.6.9 2.56 2.57-1.24.6-2-1.16-2.74-1.84l.18-.73z"/><path d="M207.64 187.97c2.42-.98 4.81-2.29 7.45-2.5 2.49.38 4.29 2.51 4.24 5.03l-.91.07c-3.78.17-7.43-.94-10.78-2.6zm-1.6 19.07l2.75 2.17c-.21 4.71 3.03 8.52 4.11 12.94-4.53-3-6.82-8.31-7.48-13.54l.62-1.57zm-49.88 17.95l5.85-1.42-1.96 2.11-3.89-.69z" fill="#f2ecf0"/><path opacity=".76" d="M243.39 185.41l.46-.84c1.87 2.91 3.88 5.93 4.42 9.41-1.61 3.99-4.89 7.04-6.48 11.07l-.55.24c-1.32-.91-2.64-1.83-4.05-2.59l-3.46-2.02c.1-.37.28-1.12.37-1.5 4.29-3.71 6.85-8.76 9.29-13.77zm-131.64 17.25l11.52-1.45.11.86c-3.72 1.48-7.76 1.3-11.63.59z"/><path fill="#9c8f89" d="M174.13 188.75c.73 1.38 1.42 2.8 1.96 4.28l.25.83-2.28 1.1-.33-3.7.4-2.51z"/><path fill="#493d39" d="M178.9 193.76l-.16-4.09 4.46 4.32c-.65 2.79-1.56 5.72-.79 8.59.63 1.48 1.96 2.51 3.02 3.69l-.6 2.46-5.09-1.11c-.61-4.71-2.08-9.22-3.4-13.76l-.25-.83 2.81.73z"/><path fill="#8a888b" d="M204.93 191.02l6.45-.61.53 2.62c-1.91 3.2-3.11 7.75-7.39 8.43-2.79 1.07-4.79-1.67-5.55-3.98l1.81-2.13c1.07-.98 1.19-2.53.85-3.86l3.3-.47z"/><path fill="#908b90" d="M218.42 190.57l.91-.07 4.54-.28c-.81 2.13-1.24 4.98-3.45 6.12-2.65.19-5.28-.46-7.83-1.1l-.44-1.26 6.27-3.41z"/><path fill="#cabeb9" d="M251.79 192.76l4.25-2.86c3.09 1.3 5.65 3.49 7.53 6.25-1.75 3.81-4.85 6.69-7.21 10.07-2.3-.47-4.83-.43-6.89-1.66-.69-1.03-1.2-2.16-1.73-3.27 2.28-2.33 3.32-5.43 4.05-8.53z"/><path fill="#dcd6d3" d="M200.78 195.35c-1.65-1.16-1.62-4.01.85-3.86.34 1.33.22 2.88-.85 3.86z"/><path fill="#665e60" d="M174.06 194.96l2.28-1.1c1.32 4.54 2.79 9.05 3.4 13.76l5.09 1.11.6-2.46c2.08.17 4.16.4 6.24.63-.5 2-.76 4.05-.87 6.1l-1.18.51c-.81.37-1.6.75-2.39 1.14 1.4 1.54 2.77 3.12 3.95 4.84l-4.58 1.31c-.83 2.18-1.82 4.33-2.2 6.65-.31 3.34.6 6.79-.65 10.02-1.89-4.09-1.55-8.68-1.04-13.02l-6.87.23c1.49-.41 2.95-.9 4.41-1.4-3.25-.28-6.75-.57-9.51 1.54l-1.98 1.01c-2.9.13-5.83.25-8.71-.15l1.96-2.11c-1.97.42-3.91.9-5.85 1.42-2.44-.36-4.8-1.16-7.09-2.06 2.12-2.23 5.08-2.53 7.96-2.02l.86.23a69.15 69.15 0 0 0 3.51.87c1.4-1.1 2.95-2.01 4.66-2.55a98.08 98.08 0 0 0 1.39 3.42 78.78 78.78 0 0 0 4.49-2.02c-.22-2.63-.47-5.27-.93-7.87 1.31 2.49 2.54 5.06 4.26 7.31 1.94.28 3.6-.94 5.23-1.77 1.93.5 3.89.86 5.86 1.21-1.37-1.99-3.14-3.68-5.3-4.78.58-2.09-.99-4.34-3.25-4.01-2.23-5.06-3.25-10.51-3.75-15.99z"/><path fill="#95847f" d="M161 198.45l5.44-.27c.68 1.81 1.23 3.67 1.71 5.55l-2.12-.23c-1.65 5.22-.81 10.68.03 15.96-1.71.54-3.26 1.45-4.66 2.55a69.15 69.15 0 0 1-3.51-.87l3.76-1.57c.66-6.15 1.51-12.33 1.42-18.53-.02-1.36-.71-2.22-2.07-2.59z"/><path fill="#8d847f" d="M142.25 200.27c5.6-.68 11.22-1.14 16.84-1.65-2.75 2-5.61 4.07-7.44 6.99-2.09 3.47-1.98 7.72-1.63 11.61-.52-2.54-1.21-5.04-1.76-7.57.18-2.61 1.21-5.05 2.17-7.45-4.17.87-8.62.83-12.53 2.65-1.89 2.8-.9 6.54-.84 9.72l.12.89c-1.28-.51-2.58-.97-3.88-1.41-.07-1.4-.11-2.79-.12-4.19.32-2.82.01-5.64-.89-8.32l9.96-1.27z"/><path fill="#ccc2bd" d="M159.09 198.62l1.91-.17c1.36.37 2.05 1.23 2.07 2.59.09 6.2-.76 12.38-1.42 18.53l-3.76 1.57-.86-.23c-2.32-.82-4.58-1.82-6.85-2.77l-.16-.92c-.35-3.89-.46-8.14 1.63-11.61 1.83-2.92 4.69-4.99 7.44-6.99z"/><path fill="#786f6f" d="M123.27 201.21c6.29-.92 12.66-.52 18.98-.94-3.31.49-6.64.84-9.96 1.27-2.9 1.59-5.92 3.54-7.36 6.63-.44 1.75.42 3.48.9 5.13.51.98 1.04 1.95 1.58 2.92 2.03-.52 4.01-1.24 5.89-2.17 1.3.44 2.6.9 3.88 1.41 3.36 1.44 6.91 2.35 10.47 3.19l.26-4.25c.09-1.59.2-3.17.35-4.75l1.76 7.57.16.92-3.49 3.88c-7.45-3-15.66-4.07-23.6-2.76-.13-1.44-.28-2.87-.34-4.3-.05-3.89 1.6-7.72.83-11.58l-.2-1.31-.11-.86z"/><path fill="#d3c8c2" d="M124.93 208.17c1.44-3.09 4.46-5.04 7.36-6.63.9 2.68 1.21 5.5.89 8.32l-1.75 2.72-5.6.72c-.48-1.65-1.34-3.38-.9-5.13z"/><path fill="#847973" d="M241.79 205.05a14.8 14.8 0 0 0 5.95-3.76c.53 1.11 1.04 2.24 1.73 3.27 2.06 1.23 4.59 1.19 6.89 1.66-1.67 3.36-3.9 6.41-6.71 8.91l.1-1.54a63.61 63.61 0 0 1 1.47-3.26c-1.47-2.48-3.34-5.11-6.62-4.21-1.17-.01-2.31-.32-3.36-.83l.55-.24z"/><path fill="#6c4a43" d="M111.75 202.66c3.87.71 7.91.89 11.63-.59l.2 1.31c-.95.75-1.92 1.46-2.92 2.14-2.21.42-4.59.38-6.65 1.38-.71 1.07-1.38 2.17-1.99 3.31 2.57.67 5.22.97 7.87 1.12a89.65 89.65 0 0 0 1.5 2.67c-3.78-.52-8.11-.53-10.55-3.98.16-2.12.25-4.24.36-6.36l.55-1z"/><path fill="#d2c8c3" d="M137.9 204.85c3.91-1.82 8.36-1.78 12.53-2.65-.96 2.4-1.99 4.84-2.17 7.45-.15 1.58-.26 3.16-.35 4.75-3.49 1.46-7.25.32-10.85.17-.06-3.18-1.05-6.92.84-9.72z"/><path fill="#aea8ad" d="M226.06 205.59c2.8-1.06 5.56-2.27 8.48-2.96l-1.02 6.12-6.58.52-.88-3.68m3.11 1.27c.95 2.46 3.11-.49 4.56-.96-1.37-.96-4.78-1.55-4.56.96z"/><path fill="#cbc0bb" d="M166.03 203.5l2.12.23.79 3.35c.53 2.02 1.26 3.98 2.07 5.91.46 2.6.71 5.24.93 7.87l-4.49 2.02-1.39-3.42c-.84-5.28-1.68-10.74-.03-15.96z"/><path fill="#8f8a90" d="M234.54 202.63l2.65.07c1.41.76 2.73 1.68 4.05 2.59 1.05.51 2.19.82 3.36.83 1.33 2.73 3.01 5.29 5.15 7.47l-.1 1.54c-.18 2.87-.03 5.82-.87 8.61-.75 2.48-3.31 3.67-5.24 5.1l.25-2.43c1.31-2.86 1.15-5.97-.77-8.52-3.48-3.45-9.1-7.23-14.02-4.67l-.74.38c-.47-1.43-.92-2.87-1.32-4.33l6.58-.52 1.02-6.12m1.81 3.06c.13 1.5.34 3 .61 4.49 2.45-.61 3.08-2.77 2.98-5.04l-3.59.55m5.81 6.38c-.51 1.63.06 2.17 1.69 1.64.5-1.63-.06-2.17-1.69-1.64z"/><path fill="#baaea6" d="M120.66 205.52l2.92-2.14c.77 3.86-.88 7.69-.83 11.58l-1.36-.96a89.65 89.65 0 0 1-1.5-2.67l.77-5.81z"/><path fill="#c0b5ad" d="M215.97 207.27c2.13-1.15 4.51-1.77 6.91-1.99l-.51 1.7 4.88 7.14 1.01-.52.74-.38c1.86 3.47 2.1 7.44 3.07 11.18.17 1.6.34 3.32-.55 4.76l-1.58-7.34c-2.32 3.65-4.6 7.42-7.91 10.27.61-1.41 1.17-2.84 1.74-4.26l-1.81-.49c1.97-3.12 3.73-6.37 5.18-9.75l-3.27.07c.45-3.95-1.37-7.46-4-10.26l-.58 4.85-3.32-4.98z"/><path fill="#e7e0e5" d="M229.17 206.86c-.22-2.51 3.19-1.92 4.56-.96-1.45.47-3.61 3.42-4.56.96z"/><path fill="#c6c0c5" d="M236.35 205.69l3.59-.55c.1 2.27-.53 4.43-2.98 5.04l-.61-4.49z"/><path fill="#d6cbc4" d="M244.6 206.12c3.28-.9 5.15 1.73 6.62 4.21l-1.47 3.26c-2.14-2.18-3.82-4.74-5.15-7.47z"/><path fill="#a0817c" d="M114.01 206.9c2.06-1 4.44-.96 6.65-1.38l-.77 5.81c-2.65-.15-5.3-.45-7.87-1.12.61-1.14 1.28-2.24 1.99-3.31z"/><path fill="#9c928d" d="M168.94 207.08c1.56.1 3.13.11 4.67.42 2.38 2.03 1.76 5.54 2.94 8.18 1.15 1.16 2.59 1.97 3.95 2.85-1.63.83-3.29 2.05-5.23 1.77-1.72-2.25-2.95-4.82-4.26-7.31-.81-1.93-1.54-3.89-2.07-5.91z"/><path fill="#594239" d="M113.97 218.05c-3.45-2.11-6.63-5.76-5.12-10.07l.29 3.93 1.7-1.89c2.44 3.45 6.77 3.46 10.55 3.98l1.36.96c.06 1.43.21 2.86.34 4.3-3.1.32-6.2-.18-9.12-1.21z"/><path fill="#908d93" d="M193.86 213.36l7.24-4.48 2.14 5.02-3.11.1c-2.1-.1-4.18-.36-6.27-.64z"/><path fill="#949093" d="M204.36 216.19c-.33-2.58-.03-5.21 1.06-7.58.66 5.23 2.95 10.54 7.48 13.54-1.08-4.42-4.32-8.23-4.11-12.94l2.86 2.23 1.15-1.17c-.23 6.47 4.63 11.13 7.19 16.61-2.28-.53-4.86-.4-6.77-1.92-2.26-1.81-4.29-3.93-6.87-5.28-.67-1.16-1.39-2.3-1.99-3.49z"/><path fill="#ada29c" d="M131.43 212.58l1.75-2.72.12 4.19c-1.88.93-3.86 1.65-5.89 2.17l-1.58-2.92 5.6-.72z"/><path fill="#998c87" d="M177.81 210.95c2.26-.33 3.83 1.92 3.25 4.01-1.71-.7-2.79-2.28-3.25-4.01z"/><path fill="#c8c2c8" d="M242.16 212.07c1.63-.53 2.19.01 1.69 1.64-1.63.53-2.2-.01-1.69-1.64z"/><path fill="#beafa4" d="M189.62 213.51l1.18-.51 3.06.36 6.27.64c-1.67.59-3.65.9-4.81 2.36-.4 3.93 2.45 7.04 3.91 10.44.68 1.18 1.03 2.89 2.56 3.23 4.02 1.35 8.42 2.77 12.61 1.32.86.59 1.74 1.15 2.64 1.69l-4.17 2.79c-3.71-1.09-7.38-2.27-11-3.62l3.04 5.92c-1.38-1.29-2.71-2.63-4.01-3.99l-4.76-5.11-.08-1.61c.12-5.39-2.91-10.1-6.44-13.91z"/><path fill="#a99f9a" d="M137.06 214.57c3.6.15 7.36 1.29 10.85-.17l-.26 4.25c-3.56-.84-7.11-1.75-10.47-3.19l-.12-.89z"/><path fill="#999397" d="M233.83 215.74l2.13-1.2-1.27 9.21c-.8 4.46.62 9.6-2.55 13.38-3.8 2.22-6.87 5.85-11.35 6.76-3.24.92-6.61.01-9.67-1.09a31.41 31.41 0 0 1-5.15-3.7c5.16.47 10.51 1.71 15.62.53 4.13-2.57 6.59-7.03 9.93-10.47.89-1.44.72-3.16.55-4.76.46-2.91 1.14-5.78 1.76-8.66z"/><path fill="#d3c8c1" d="M235.96 214.54l4.95 4.34-.48 5.38-5.74-.51 1.27-9.21z"/><path fill="#8e8886" opacity=".95" d="M150.18 218.14l6.85 2.77c-2.88-.51-5.84-.21-7.96 2.02l-2.38-.91 3.49-3.88z"/><path fill="#393637" d="M240.91 218.88l2.11-.99c1.92 2.55 2.08 5.66.77 8.52l.2-2.21-3.21 2.12-.35-2.06c.07-1.8.28-3.59.48-5.38z"/><path fill="#6c6868" d="M206.35 219.68c2.58 1.35 4.61 3.47 6.87 5.28 1.91 1.52 4.49 1.39 6.77 1.92l1.97.46 1.81.49-1.74 4.26c-1.23 1.61-3.26 1.5-4.99.95l-2.64-1.69c-3.77-3.05-6.01-7.38-8.05-11.67z"/><path fill="#746b68" d="M232.14 237.13c3.17-3.78 1.75-8.92 2.55-13.38l5.74.51.35 2.06-.92.64c-1.82 1.03-2.39 3.14-2.93 5.01-.77 2.38-2.54 4.13-4.79 5.16z"/><path fill="#2b2625" opacity=".6" d="M236.93 231.97c.54-1.87 1.11-3.98 2.93-5.01.58 2.2-.68 4.48-2.93 5.01z"/></svg>