<svg xmlns="http://www.w3.org/2000/svg" width="512" height="512" viewBox="0 0 384 384" xmlns:v="https://vecta.io/nano"><path fill="#22252a" opacity=".98" d="M205.8 112.66c2.35.5 4.76 1.28 6.29 3.26 5.52 6.21 7.95 14.51 9.31 22.55-1.18.6-2.34 1.22-3.49 1.87-.72-6.56-2.18-13.15-5.21-19.04-1.69-3.33-4.51-5.84-6.9-8.64z"/><path fill="#2c323e" d="M205.38 115.7c-1.58 7.25-6.3 13.3-8.97 20.15 3.18 1.36 6.26 2.95 9.45 4.29l-1.94 1.18c-.1 3.44-.52 6.87-1.09 10.27-1.54-.31-3.09-.58-4.64-.83 1.65-2.84 3.18-6.79.6-9.58-2.73-2.46-6.94-.88-8.33 2.26l-1.89-.48-1.13-.47a59.67 59.67 0 0 0-5.38-1.66l2.36-3.44c4.6 1.85 10.53.24 12.69-4.45 2.76-5.74 5.85-11.34 8.27-17.24z"/><path opacity=".71" d="M204.18 125.55c2.11.85 4.44 1.5 6.03 3.24 3.47 3.61 4.49 8.82 7.81 12.57-1.01.67-1.98 1.4-2.93 2.15l-.85-.34c-1.28-3.26-2.06-6.7-3.59-9.85-1.52-3.07-4.19-5.3-6.47-7.77z"/><path fill="#303844" d="M148.45 138.56c6.26-.49 12.63-1.93 18.87-.61l-2.43 4.23c-2.58-1.87-5.64-2.82-8.69-3.6l2.65 2.99c-2.32.46-4.71.9-6.71 2.22l-4.65-2.75.96-2.48z"/><path fill="#1b1b1a" d="M167.32 137.95c2.78 1.04 5.44 2.37 8.17 3.56-3.38 1.49-7.05 1.3-10.6.67l2.43-4.23z"/><path fill="#9c8b85" d="M156.2 138.58c3.05.78 6.11 1.73 8.69 3.6l2.25 1.43c-3.47 2.37-6.95 5.45-7.6 9.86-1.02 3.97 1.04 7.7 3.23 10.86 2.42-9.57 7.84-19.35 17.34-23.34l1.95-.16a59.67 59.67 0 0 1 5.38 1.66c-4.93.92-9.98 2.39-13.51 6.18-3.81 4.27-7.67 9.2-8.37 15.05.63 5.3 2.72 10.53 5.81 14.88 1.62 2.19 4.93 2.83 6.92.75 4.29-3.36 7.35-8.06 11.88-11.16 2.64-2.03 5.87-3.39 7.99-6.03 1.14-2.92.06-6.13-.38-9.08 1.17 1.33 2.44 2.59 3.88 3.64-.22 3.2-.14 6.41-.55 9.59-1.77.9-3.76 1.34-5.45 2.4-1.23 1.2-2.02 2.76-2.96 4.19l-.65-.07c-2.37-.71-4.06 1.58-4.61 3.59-.54 2.59.09 5.23.38 7.82l-2.67-6.32c-3.24 2.62-6.76 4.87-10.49 6.7l.12 2.43-1.52-1.47a81.78 81.78 0 0 1-3.29-4.37l-7.82 2.75-.06-3.02c.71-2.48 3.05-3.97 4.4-6.08-.02-4.14-3.76-7.1-6.94-9.18-.7-3.52-1.91-7.02-1.7-10.64.6-3.76 2.03-7.31 3.32-10.86l-2.32-2.61-2.65-2.99z"/><path d="M217.91 140.34l3.49-1.87.84 6.51-4.94 5.12-1.6-3.66 4.08-5.36-1.76.28-.11-1.02zm30.55 67.87l1.66-5.89 2.03 2.76c.67 2.06 1.18 4.17 1.7 6.27l-1.53.93-1.03-4.62c-1.79 4.6-2.14 10.12-5.95 13.64 1.24-3.37 1.97-6.9 2.63-10.42l.49-2.67zm-42.06 15.6l.63.62c1.8 1.95 4.37 2.75 6.74 3.77 1.92 1.12 3.63 2.56 5.25 4.08-3.88-1.63-7.53-3.91-11.79-4.44-.47 3.05-.81 6.14-.59 9.24-2.39-4.1-3.08-9.2-.24-13.27z" fill="#4b484a"/><path fill="#0b0a0b" d="M190.46 143.44c1.39-3.14 5.6-4.72 8.33-2.26 2.58 2.79 1.05 6.74-.6 9.58l-1.02-1.23.76-6.33-5.63.55-1.84-.31z"/><path fill="#161515" d="M205.86 140.14l8.38 3.03.85.34-9.69 8.67-2.57-.59c.57-3.4.99-6.83 1.09-10.27l1.94-1.18z"/><path fill="#363a39" d="M175.49 141.51l4.62-.52c-9.5 3.99-14.92 13.77-17.34 23.34-2.19-3.16-4.25-6.89-3.23-10.86.65-4.41 4.13-7.49 7.6-9.86l-2.25-1.43c3.55.63 7.22.82 10.6-.67z"/><path fill="#868183" d="M218.02 141.36l1.76-.28-4.08 5.36 1.6 3.66c-1.35 1.91-2.5 3.95-3.67 5.97 2.73 2.7 5.72 5.85 9.98 5.16 1.93.45 3.84.99 5.75 1.56l-3.76.13 8.51 5.16.63 3.5-2.12.5c-1.25-.85-2.53-1.65-3.72-2.58-3.53-2.71-7.21-5.41-11.47-6.82-2.22-.77-3.49 2.01-5.06 3.09 4.7 1.61 9.48 2.93 14.23 4.4l-2.3 1.94.84 2.07-6.26-1.94c1.15 2.98 4.13 3.67 7.01 3.96 1.07-2.05 2.24-4.05 3.46-6.01 1.06 2.04 2.71 4.19 1.96 6.63-.98 4.37.03 9.03-1.96 13.19l-1.93-.14c-.23-2.65-.54-5.3-.84-7.94-.24-.22-.72-.68-.96-.91-1.46-1.36-2.89-2.77-4.49-3.96-1.31-.74-2.52.74-3.68 1.17l-3.64-.88-1.31 1.83c-.23-2.74.66-5.36 1.83-7.79-.8-2.26-1.47-5.76-4.55-5.57-1.29-.27-2.12.22-2.49 1.47.7 1.07 1.62 1.13 2.75.18.15 1.58.34 3.16.53 4.74l-1.89-1.85-6.44 3.2-2.12-3.64c1.35-.76 2.67-1.63 3.59-2.9.69-3.25-.02-6.6 0-9.88a37.63 37.63 0 0 1 1.69-4.96l9.69-8.67c.95-.75 1.92-1.48 2.93-2.15m-10.93 15.93c-.91 2.51-.77 5.23-.92 7.86 4.27-1.31 4.06-6.08 4.56-9.71-1.2.61-2.82.68-3.64 1.85z"/><path fill="#bf7d5c" d="M152.14 143.79c2-1.32 4.39-1.76 6.71-2.22l2.32 2.61c-1.29 3.55-2.72 7.1-3.32 10.86-.21 3.62 1 7.12 1.7 10.64-4.22-2.35-8.06-5.33-11.47-8.74-1.43-1.53-3.06-3.61-2.19-5.82 1.21-3.06 3.89-5.17 6.25-7.33z"/><path fill="#4b5459" d="M187.44 142.49l1.13.47 2.46 2.47-2.53 8.18c-1.59-.06-3.18-.19-4.74-.47l-.18-.03.18.42.13 3.13c-3.52-2.47-8.5-3.36-9.96-7.99 3.53-3.79 8.58-5.26 13.51-6.18m-3.21 7.75c.58.58.58.58 0 0z"/><path fill="#e4a583" d="M191.03 145.43l-2.46-2.47 1.89.48 1.84.31 4.87 5.78 1.02 1.23 4.64.83 2.57.59a37.63 37.63 0 0 0-1.69 4.96l-2.05-.42c-1.44-1.05-2.71-2.31-3.88-3.64-1.82-2.91-4.31-5.28-6.75-7.65z"/><path fill="#34363a" d="M192.3 143.75c1.89-.08 3.76-.31 5.63-.55l-.76 6.33-4.87-5.78z"/><path fill="#202023" d="M217.3 150.1c1.55-1.79 3.26-3.44 4.94-5.12.28 3.7.86 7.52-.42 11.11l5.76 1.41-2.64 2.42 5.4.76c-2.26-.08-4.51.2-6.73.55-4.26.69-7.25-2.46-9.98-5.16 1.17-2.02 2.32-4.06 3.67-5.97z"/><path d="M188.5 153.61l2.53-8.18c2.44 2.37 4.93 4.74 6.75 7.65.44 2.95 1.52 6.16.38 9.08-2.12 2.64-5.35 4-7.99 6.03-4.53 3.1-7.59 7.8-11.88 11.16-1.99 2.08-5.3 1.44-6.92-.75-3.09-4.35-5.18-9.58-5.81-14.88.7-5.85 4.56-10.78 8.37-15.05 1.46 4.63 6.44 5.52 9.96 7.99l-.13-3.13v-.39c1.56.28 3.15.41 4.74.47m-1.25 13.67c.55.55.55.55 0 0m-4.06.95c.57.56.57.56 0 0zm-29.6 62.26c1.98-.67 3.99-1.31 6.07-1.6l6.55-.06c-4.43.71-8.8 2.36-13.35 1.72l.73-.06z" fill="#3e4243"/><path fill="#e9eff7" d="M184.23 150.24c.58.58.58.58 0 0z"/><path d="M183.58 153.11l.18.03v.39l-.18-.42zm61.68 58.15c.53.53.53.53 0 0z" fill="#fff"/><path d="M207.09 157.29c.82-1.17 2.44-1.24 3.64-1.85-.5 3.63-.29 8.4-4.56 9.71.15-2.63.01-5.35.92-7.86zM97.82 210.91l1 5.48v2.16l-3.26-.29.2-3.59.58-1.51 1.48-2.25zm65.68 16.55l9.45-.07-4.12 1.11-2.62.33-6.55.06 3.84-1.43zm-17.97 2.4c2.21-.36 4.43-.09 6.54.64l-6.54-.64z" fill="#eae3e6"/><path fill="#635e5d" d="M201.66 156.72l2.05.42c-.02 3.28.69 6.63 0 9.88-.92 1.27-2.24 2.14-3.59 2.9l-.59 2.12c-2.19.75-4.51 1.29-6.83.86.94-1.43 1.73-2.99 2.96-4.19 1.69-1.06 3.68-1.5 5.45-2.4.41-3.18.33-6.39.55-9.59z"/><path fill="#d8d1d2" d="M223.61 161.23c2.22-.35 4.47-.63 6.73-.55l.91.12-.05 2.56-1.84-.57-5.75-1.56z"/><path fill="#a7a1a3" d="M231.25 160.8c4.6 1.54 6.19 6.4 9.62 9.32l.6.54-3.46 5.43c-.57-3.47-1.11-7.03-2.87-10.13-1.26-.95-2.57-1.83-3.94-2.6l.05-2.56z"/><path fill="#686564" d="M212.37 165.77c1.57-1.08 2.84-3.86 5.06-3.09 4.26 1.41 7.94 4.11 11.47 6.82l.45.69c-1.22 1.96-2.39 3.96-3.46 6.01l-.75-2.02-.84-2.07 2.3-1.94c-4.75-1.47-9.53-2.79-14.23-4.4z"/><path fill="#393432" d="M225.6 162.92l3.76-.13 1.84.57c1.37.77 2.68 1.65 3.94 2.6l-1.03 2.12-8.51-5.16z"/><path fill="#eaa888" d="M254.79 166.66c1.65-2.39 4.82-2.8 7.29-3.98 1.06 2.68 3.15 4.63 5.12 6.64.07 2.65-1.02 5.22-1.88 7.7.09-2.02 1.29-5.05-1.14-6.12-3.45-1.2-6.93.54-9.55 2.73-.09-2.33-.38-4.69.16-6.97z"/><path fill="#8b8a8d" d="M209.78 165.82c3.08-.19 3.75 3.31 4.55 5.57-1.17 2.43-2.06 5.05-1.83 7.79l-1.11 1.63-.77-4.07c-1.64.81-3.66 1.16-4.87 2.62-.66 2.57-.09 5.24.09 7.83l4.86-.82 3.39-.46-.98 1.29c-1.53 2.21-3.28 4.31-5.76 5.49l4.02.77c-2.08 2.47-5.81 4.04-8.79 2.18-3.93-1.93-3.33-6.89-3.75-10.53l3.2.66c-.62-2.83-1.29-5.68-1.24-8.6 1.55-1.49 4.03-1.24 5.99-1.85l.52-2.83 2.02 1.45 1.25-1.73-.53-4.74-.26-1.65m-8.53 22.74c-.84 1.39 1.46 4.29 2.27 1.89 1.29-1.7-.95-3.32-2.27-1.89m2.12 4.55c.12 3.31 3.02-1.51 0 0z"/><path fill="#fbf7f4" d="M207.29 167.29c.37-1.25 1.2-1.74 2.49-1.47l.26 1.65c-1.13.95-2.05.89-2.75-.18z"/><path fill="#6a6463" d="M235.14 165.96c1.76 3.1 2.3 6.66 2.87 10.13l3.46-5.43.54.5c-.35 4.29-.5 8.59-.14 12.89l-1.52 4.8 3.48 1.39c-2.87-.62-6.12-.67-7.79 2.17l-3.62 3.95a39.07 39.07 0 0 1-2.18 1.44c-1.58.9-3.21 1.72-4.91 2.37l.65-3.53-2.8-.41c.38-2.23.79-4.46 1.31-6.67.32-1.35.62-2.71.87-4.08.17-1.48.21-2.97.26-4.46l.96.91.84 7.94 1.93.14c1.99-4.16.98-8.82 1.96-13.19 1.66 2.13 3.34 4.25 5.12 6.28-.01-4-1.52-7.79-3.81-11.02.71-.18 1.41-.34 2.12-.5l-.63-3.5 1.03-2.12m-7.51 30.22c2.97-.31 6.07-1.74 5.71-5.25a18.14 18.14 0 0 0-5.71 5.25z"/><path fill="#bdc0bd" d="M187.25 167.28c.55.55.55.55 0 0z"/><path fill="#cccccb" d="M183.19 168.23c.57.56.57.56 0 0z"/><path d="M228.9 169.5c1.19.93 2.47 1.73 3.72 2.58 2.29 3.23 3.8 7.02 3.81 11.02-1.78-2.03-3.46-4.15-5.12-6.28.75-2.44-.9-4.59-1.96-6.63l-.45-.69zm19.92 18.19c2.43 0 5.37-1 7.35.9.55 2.78.18 5.63-.28 8.39l-.53.71c-2.82-2.27-5.52-4.7-8.08-7.26l1.54-2.74zm-9.59 5.32c.39-2.12 2.95-1.39 4.48-1.73l-.98 4.79c-1.33-.8-2.9-1.52-3.5-3.06z" fill="#ded3cd"/><path d="M200.12 169.92l2.12 3.64 6.44-3.2 1.89 1.85-1.25 1.73-2.02-1.45-.52 2.83c-1.96.61-4.44.36-5.99 1.85-.05 2.92.62 5.77 1.24 8.6l-3.2-.66-1.86-2.05c1.32-3.45 4.38-7.24 2.56-11.02l.59-2.12zm18.76 2.32l6.26 1.94.75 2.02c-2.88-.29-5.86-.98-7.01-3.96zm-17.86 62.67c0-1.29 1.72-1.29 2.54-1.88l1.49 3.86-1.3 2.16c-.94-1.36-2.15-2.58-2.73-4.14z" fill="#c6c4ca"/><path fill="#010101" opacity=".79" d="M240.87 170.12c3.81-.34 7.99 1.2 9.48 4.97-.22 5.52-4.99 9.97-3.9 15.67-.88-.13-1.76-.33-2.62-.52l-3.48-1.39 1.52-4.8c1.12-2.94 3.02-5.72 3.08-8.95-.02-1.83-1.84-2.77-2.94-3.94l-.54-.5-.6-.54z"/><path fill="#c3b8b2" d="M254.63 173.63c2.62-2.19 6.1-3.93 9.55-2.73 2.43 1.07 1.23 4.1 1.14 6.12-1.63 3.56-3.61 7-4.43 10.87l.41-2.27c-3.54.23-7.02-.58-9.87-2.77l.45-.77 1.41-1.99c.6-2.12 1.18-4.26 1.34-6.46z"/><path fill="#484649" d="M242.01 171.16c1.1 1.17 2.92 2.11 2.94 3.94-.06 3.23-1.96 6.01-3.08 8.95-.36-4.3-.21-8.6.14-12.89z"/><path fill="#e19d7c" d="M187.44 176.42c.55-2.01 2.24-4.3 4.61-3.59-1.31 3.72-2.43 7.69-1.13 11.61l.15.91c-.62.58-1.27 1.13-1.91 1.68 2.26 4.96 4.84 10.06 9.32 13.4 1.76 1.23 3.29 2.85 3.7 5.05l-4.41 1.23c-1.54.36-3.08.7-4.64.88-2.41-.9-5.14-2.26-5.65-5.06-.35-3.35.17-6.71.53-10.04-3.41-.56-6.82-1.16-10.07-2.36l-3.16-3.08-.12-2.43c3.73-1.83 7.25-4.08 10.49-6.7l2.67 6.32c-.29-2.59-.92-5.23-.38-7.82z"/><path fill="#757172" d="M192.7 172.9c2.32.43 4.64-.11 6.83-.86 1.82 3.78-1.24 7.57-2.56 11.02l1.86 2.05c.42 3.64-.18 8.6 3.75 10.53 2.98 1.86 6.71.29 8.79-2.18l-4.02-.77c2.48-1.18 4.23-3.28 5.76-5.49.07 1.07.17 2.13.31 3.2.31.11.92.34 1.23.46 2.01.67 4.01 1.62 6.16 1.7 1.48-.64 2.6-1.85 3.68-3-.52 2.21-.93 4.44-1.31 6.67l2.8.41-.65 3.53c-1.82.5-3.67.92-5.5 1.38-1.37.34-2.72.71-4.08 1.08l-2.11 4.38-.88 1.85c-1.09-1.55-2.18-3.11-3.34-4.61-.79-1.03-1.65-1.08-2.59-.15-.73.63-1.44 1.28-2.16 1.93 1.3 2.97 2.05 6.13 2.96 9.23-.92-1.02-1.87-2.02-2.84-2.98-2.1-1.04-4.44-.25-6.53.38l-2.5-3.16 2.01-2.79 4.41-1.23c-.41-2.2-1.94-3.82-3.7-5.05-4.48-3.34-7.06-8.44-9.32-13.4.64-.55 1.29-1.1 1.91-1.68 2.15-1.65 1.8-4.47 1.78-6.85-1.01 1.84-1.64 3.86-1.93 5.94-1.3-3.92-.18-7.89 1.13-11.61l.65.07z"/><path d="M217.45 178.23c1.16-.43 2.37-1.91 3.68-1.17 1.6 1.19 3.03 2.6 4.49 3.96l-.26 4.46c-3.96.91-7.88 2.31-10.71 5.38l-1.23-.46c-.14-1.07-.24-2.13-.31-3.2l.98-1.29c2.39-.29 4.8-.24 7.2-.25-1.25-1.2-2.14-3.05-3.79-3.66-2.42.17-4.81.64-7.24.69.68 1.12.59 2.43.44 3.68-1.63.24-3.25.53-4.86.82-.18-2.59-.75-5.26-.09-7.83 1.21-1.46 3.23-1.81 4.87-2.62l.77 4.07c.36-.55.73-1.09 1.11-1.63l1.31-1.83 3.64.88zM116.57 224.4c8.72-.95 17.34 1.12 25.69 3.37 2.25.85 4.4-.32 6.39-1.25 2.31-1.09 4.71-1.98 7.17-2.67l-.3 2.54-6.72.83c1.67.99 3.25 2.1 4.79 3.27l-.73.06-.79-.05c-2.11-.73-4.33-1-6.54-.64-6.53-.9-12.74-3.4-19.31-4.06-3.24-.3-6.47-.71-9.65-1.4z" fill="#b7b2b7"/><path d="M190.92 184.44c.29-2.08.92-4.1 1.93-5.94.02 2.38.37 5.2-1.78 6.85l-.15-.91zm10.33 4.12c1.32-1.43 3.56.19 2.27 1.89-.81 2.4-3.11-.5-2.27-1.89zm24.12 11.78c3.35 1.09 5.56 3.65 6.16 7.12l1.71-1.98 3.03 1.54-2.62 4.76-1.91 6.91c-1.77-.24-3.24-1.32-4.57-2.44l-.31 4.56-6.15.51-1.67-2.59c-2.55-3.52-4.23-7.56-5.4-11.72l2.11-4.38 4.08-1.08c2.68.17 4.48 2.2 6.16 4.06l-.62-5.27zm-18.15 6.9l1.97.39c1.96 3.57 4.07 7.14 4.92 11.18-3.19-3.26-5.71-7.14-6.89-11.57zm-12.49 8.71l2.3-2.22c4.79 1.86 8.73 5.63 10 10.7l-.63-.62c-2.36-2.5-4.72-5.01-7.42-7.14-1.41-.31-2.83-.51-4.25-.72z" fill="#fcf9f7"/><path fill="#47413e" opacity=".64" d="M251.88 182.08l1.41-1.99-1.41 1.99z"/><path fill="#452e1f" d="M161.83 200.85c-1.75-6.55-2.27-13.47.26-19.91l.06 3.02 7.82-2.75a81.78 81.78 0 0 0 3.29 4.37l.28 3.71c.15 2.32.46 4.63.86 6.92.39 2.25.75 4.51 1.33 6.73a76.87 76.87 0 0 0 1.3 3.59c.58 1.43 1.19 2.86 1.88 4.26a48.46 48.46 0 0 0 3.16 4.63c1.9 1.27 3.88 2.4 5.85 3.56 1.16.75 2.37.83 3.65.23 1.74 1.64 3.08 3.71 2.84 6.21l-7.99-1.46c-3.38-3.94-7.96-6.52-12.74-8.37l4.49-1c-1.09-2.06-1.5-4.77-3.5-6.16-3.09-.49-6.23-.5-9.35-.66-.23-1.72-.62-3.53-1.83-4.85-2.23-.62-4.57-.69-6.86-.86l5.2-1.21z"/><path fill="#efe9ee" d="M210.26 182.69c2.43-.05 4.82-.52 7.24-.69 1.65.61 2.54 2.46 3.79 3.66-2.4.01-4.81-.04-7.2.25l-3.39.46c.15-1.25.24-2.56-.44-3.68z"/><path fill="#80756f" d="M248.82 187.69l2.61-4.84c2.85 2.19 6.33 3 9.87 2.77l-.41 2.27c-.76 3.46-2.77 6.42-5 9.09.46-2.76.83-5.61.28-8.39-1.98-1.9-4.92-.9-7.35-.9z"/><path fill="#8a868b" d="M214.65 190.86c2.83-3.07 6.75-4.47 10.71-5.38-.25 1.37-.55 2.73-.87 4.08-1.08 1.15-2.2 2.36-3.68 3-2.15-.08-4.15-1.03-6.16-1.7z"/><path fill="#61544f" d="M173.26 185.58l1.52 1.47 3.16 3.08 2.15 2.15c-.46 3.76.14 7.56 1.38 11.12-.68 2.61-.53 5.27 2.34 6.37l.37-2.15.6-3.48c2.15 2.34 5.04 4.11 8.35 3.45 1.56-.18 3.1-.52 4.64-.88l-2.01 2.79 2.5 3.16c-.3.27-.92.8-1.23 1.07-.78.72-1.54 1.47-2.3 2.22 1.42.21 2.84.41 4.25.72-3.23 5.12-3.01 11.27-2.73 17.06-1.19-2.62-1.92-5.42-1.84-8.31.24-2.5-1.1-4.57-2.84-6.21-.73-1.23-3.01-1.91-3.65-.23-1.97-1.16-3.95-2.29-5.85-3.56l1.85-2.56-5.01-2.07c-.69-1.4-1.3-2.83-1.88-4.26l1.98-6.57-3.28 2.98c-.58-2.22-.94-4.48-1.33-6.73.55-1.08 1.14-2.14 1.55-3.28-.17-1.49-1.62-2.45-2.41-3.64l-.28-3.71z"/><path fill="#9c979e" d="M236.04 192.41c1.67-2.84 4.92-2.79 7.79-2.17l2.62.52.83-.33c2.56 2.56 5.26 4.99 8.08 7.26l.14 2.64c-.3 1.35-.64 2.69-.96 4.04l-2.39.71a46.66 46.66 0 0 0-2.03-2.76c-3.87-2.87-9.83-6.17-14.29-2.67l-1.91 1.2c-1.2-1.05-2.44-2.05-3.68-3.05a39.07 39.07 0 0 0 2.18-1.44c1.56.95 3.41.93 4.97-.01l-1.35-3.94m3.19.6c.6 1.54 2.17 2.26 3.5 3.06.25-1.61.64-3.2.98-4.79-1.53.34-4.09-.39-4.48 1.73z"/><path fill="#9d8e89" d="M173.54 189.29c.79 1.19 2.24 2.15 2.41 3.64-.41 1.14-1 2.2-1.55 3.28-.4-2.29-.71-4.6-.86-6.92z"/><path fill="#ae7157" d="M177.94 190.13c3.25 1.2 6.66 1.8 10.07 2.36-.36 3.33-.88 6.69-.53 10.04.51 2.8 3.24 4.16 5.65 5.06-3.31.66-6.2-1.11-8.35-3.45-.38-2.85-.69-5.72-1.33-8.52-.95-1.28-2.23-2.25-3.36-3.34l-2.15-2.15z"/><path fill="#9d9797" d="M227.63 196.18a18.14 18.14 0 0 1 5.71-5.25c.36 3.51-2.74 4.94-5.71 5.25z"/><path fill="#4f3a35" d="M181.47 203.4c-1.24-3.56-1.84-7.36-1.38-11.12 1.13 1.09 2.41 2.06 3.36 3.34.64 2.8.95 5.67 1.33 8.52l-.6 3.48c-.87-1.43-1.82-2.81-2.71-4.22z"/><path fill="#f9f3ee" d="M203.37 193.11c3.02-1.51.12 3.31 0 0z"/><path fill="#c1bbc0" d="M232.42 196.36l3.62-3.95 1.35 3.94c-1.56.94-3.41.96-4.97.01z"/><path fill="#736e73" d="M235.83 199.65c4.46-3.5 10.42-.2 14.29 2.67-.62 1.94-1.2 3.9-1.66 5.89-.29-1.52-.57-3.06-1.17-4.49-1.15-1.84-3.51-1.87-5.43-1.97l-2.17 1.09.8 8.53-2.61-2.77c.51-3.25-1.57-5.86-3.96-7.75l1.91-1.2z"/><path fill="#beb5ab" d="M225.33 200.17c1.7-.65 3.33-1.47 4.91-2.37l3.68 3.05c2.39 1.89 4.47 4.5 3.96 7.75l-1.02 4.56-3.21-1.38 2.62-4.76-3.03-1.54-1.71 1.98c-.6-3.47-2.81-6.03-6.16-7.12l.62 5.27c-1.68-1.86-3.48-3.89-6.16-4.06l5.5-1.38z"/><path d="M175.73 202.94l3.28-2.98-1.98 6.57-1.3-3.59zm57.92 8.84l3.21 1.38c-.77 2.89-2.01 5.63-3.17 8.39l-1.95-2.86 1.91-6.91z" fill="#b3a497"/><path fill="#767175" opacity=".95" d="M254.54 204.37l.96-4.04c1.14 3.76 1.65 8.15-1.65 11.02-.52-2.1-1.03-4.21-1.7-6.27l2.39-.71z"/><path fill="#0e0e0d" opacity=".42" d="M147.94 203.11c2.08-1.53 4.7-1.69 7.08-.78-2.21 1.09-4.69 1.23-7.08.78z"/><path fill="#736b69" d="M155.02 202.33l1.61-.27c2.29.17 4.63.24 6.86.86 1.21 1.32 1.6 3.13 1.83 4.85-.54 5.54.89 10.92 1.6 16.36l-1.6-.23-.15-.84-2.84-15.84 1.26-2.22-4.8-.98c-.36 2.67-.77 5.33-1.24 7.99l-1.32-3.15-1.48-3.65c-4.25-1.03-8.64-1.25-13-1l6.19-1.1c2.39.45 4.87.31 7.08-.78z"/><path fill="#968f92" d="M239.69 202.84l2.17-1.09c.49 2.24-.08 5.29 2.16 6.71 1.23.94 2.6 1.66 3.95 2.42-.66 3.52-1.39 7.05-2.63 10.42-2.6 2.53-4.13 5.87-6.4 8.66-3.69 4.17-9.77 5.31-15.04 4.12-1.67-.48-3.28-1.12-4.88-1.8 4.71-.2 9.43-.85 13.87-2.46 3.78-1.1 4.91-5.32 6.48-8.45 1.63-3.1 1.59-6.63 1.12-10l-.8-8.53m5.57 8.42c.53.53.53.53 0 0z"/><path fill="#d5c9c2" d="M241.86 201.75c1.92.1 4.28.13 5.43 1.97.6 1.43.88 2.97 1.17 4.49l-.49 2.67c-1.35-.76-2.72-1.48-3.95-2.42-2.24-1.42-1.67-4.47-2.16-6.71z"/><path fill="#ece6e3" d="M206.83 204.1c.94-.93 1.8-.88 2.59.15-.03 1.89-2.59 1.58-2.59-.15z"/><path fill="#d1c6c0" d="M116.12 206.65c8.63.39 17.13-1.17 25.63-2.44 4.36-.25 8.75-.03 13 1l1.48 3.65c1.47 4.94.32 10.04-.41 14.99-2.46.69-4.86 1.58-7.17 2.67-2.45-1.18-6.92-.95-7.1-4.52-.25-5.51 1.61-10.83 3.18-16.03-6.51.25-12.91 2.19-19.45 1.49-3.05-.27-6.09-.76-9.16-.81z"/><path fill="#9e8c87" d="M158.79 204.02l4.8.98-1.26 2.22-2.89-1.63c-1.14 6.62-.37 13.38 1.29 19.84l4.44-2.37.15.84c-1.09 1.14-2.24 2.23-3.38 3.32-1.34-1.02-2.51-2.24-3.74-3.38l-2.38.01c.73-4.95 1.88-10.05.41-14.99.42 1.05.87 2.1 1.32 3.15.47-2.66.88-5.32 1.24-7.99z"/><path fill="#9c8d87" d="M183.81 209.77c-2.87-1.1-3.02-3.76-2.34-6.37l2.71 4.22-.37 2.15z"/><path fill="#949094" d="M204.67 206.03l2.16-1.93c0 1.73 2.56 2.04 2.59.15l3.34 4.61.88-1.85c1.17 4.16 2.85 8.2 5.4 11.72l-1.01 3.53-5.72-1.91-.49 2.72-.99-.92c-1.15-2.26-2.17-4.58-3.2-6.89-.91-3.1-1.66-6.26-2.96-9.23m2.55 1.21c1.18 4.43 3.7 8.31 6.89 11.57-.85-4.04-2.96-7.61-4.92-11.18l-1.97-.39z"/><path fill="#665b56" d="M125.28 207.46c6.54.7 12.94-1.24 19.45-1.49-1.57 5.2-3.43 10.52-3.18 16.03.18 3.57 4.65 3.34 7.1 4.52-1.99.93-4.14 2.1-6.39 1.25-8.35-2.25-16.97-4.32-25.69-3.37 3.18.69 6.41 1.1 9.65 1.4-4.07-.16-8.14-.07-12.21-.06l.65-1.46-2.83-.54c-.54-4.86-.15-9.72.5-14.54-1.33 1.11-2.63 2.25-3.8 3.54-2.33-.03-4.66-.14-6.99-.32l-2.72 3.97-1-5.48-1.48 2.25.39-3.08c3.36.13 7.29 1.32 10.14-1.09 2.69-1.85 6.16-1.67 9.25-2.34 3.07.05 6.11.54 9.16.81m2.18 2.13c-.76.74-1.08 1.64-.96 2.69-1.13-.75-2.24-1.52-3.33-2.32l-2.94-.17 1.66-2.02c-4.48.34-9.27 4.22-8.72 9.05-.05 2.07.4 4.1.79 6.13 3.25-.46 7.59 1.02 9.68-2.3l2.5-.39.37 2.28c4.1 1.07 8.28 1.77 12.49 2.26l.2-3.67c.99-4.52 1.34-9.14 1.82-13.73-4.48.96-9.1 1.12-13.56 2.19z"/><path fill="#ccc1b9" d="M160.73 225.43c-1.66-6.46-2.43-13.22-1.29-19.84l2.89 1.63c.81 5.3 1.89 10.56 2.84 15.84l-4.44 2.37z"/><path fill="#d5cac4" d="M127.46 209.59c4.46-1.07 9.08-1.23 13.56-2.19-.48 4.59-.83 9.21-1.82 13.73-4.37.41-8.78.16-13.06-.87.62-2.62.62-5.32.36-7.98-.12-1.05.2-1.95.96-2.69z"/><path fill="#d3c9c2" d="M113.17 216.82c-.55-4.83 4.24-8.71 8.72-9.05l-1.66 2.02 2.94.17c.03 3.9-.62 7.75-1.53 11.53-2.39-.48-4.8-.87-7.23-1.15l-1.24-3.52z"/><path fill="#c6bab4" d="M166.92 224.13c-.71-5.44-2.14-10.82-1.6-16.36.46 1.49.45 3.22 1.44 4.49 1.53 1.35 3.53 1.98 5.39 2.76l-.18 1.6-1.44 1.26.39 3.99-1.64 2.42c-.79-.04-1.57-.09-2.36-.16z"/><path fill="#958c87" d="M165.32 207.77l9.35.66c2 1.39 2.41 4.1 3.5 6.16l-4.49 1-1.53-.57c-1.86-.78-3.86-1.41-5.39-2.76-.99-1.27-.98-3-1.44-4.49z"/><path fill="#fefefe" d="M236.86 213.16l1.02-4.56 2.61 2.77c.47 3.37.51 6.9-1.12 10-1.57 3.13-2.7 7.35-6.48 8.45-4.44 1.61-9.16 2.26-13.87 2.46-1.62-1.52-3.33-2.96-5.25-4.08l2.27-1.19c2.08 1.84 4.81 2.47 7.45 1.49 1.48-.42 3.05-.76 4.31-1.7.58-1.41.88-2.9 1.25-4.37l4.64-.88c1.16-2.76 2.4-5.5 3.17-8.39z"/><path fill="#c2b8b2" d="M108.53 212.74c1.17-1.29 2.47-2.43 3.8-3.54-.65 4.82-1.04 9.68-.5 14.54l2.83.54-.65 1.46-2.84.26-2.29.31c.95-2.76-.06-5.53-.7-8.23a50.04 50.04 0 0 1 .35-5.34z"/><path fill="#a5928d" d="M123.17 209.96l3.33 2.32c.26 2.66.26 5.36-.36 7.98l-2.5.39c-2.09 3.32-6.43 1.84-9.68 2.3-.39-2.03-.84-4.06-.79-6.13l1.24 3.52 7.23 1.15c.91-3.78 1.56-7.63 1.53-11.53z"/><path fill="#928681" d="M178.91 210.79l5.01 2.07-1.85 2.56a48.46 48.46 0 0 1-3.16-4.63z"/><path fill="#cbbfbb" d="M198.26 212.66c2.09-.63 4.43-1.42 6.53-.38-.03 1.57-.37 3.21.13 4.75 1.03 2.57 3.78 3.64 5.91 5.12l.99.92 4.22 3.94-2.27 1.19c-2.37-1.02-4.94-1.82-6.74-3.77-1.27-5.07-5.21-8.84-10-10.7l1.23-1.07z"/><path fill="#9e7f77" d="M101.54 212.42l6.99.32a50.04 50.04 0 0 0-.35 5.34c-3.1.38-6.23.67-9.36.47v-2.16l2.72-3.97z"/><path fill="#e0d9d5" d="M204.92 217.03c-.5-1.54-.16-3.18-.13-4.75l2.84 2.98 3.2 6.89c-2.13-1.48-4.88-2.55-5.91-5.12z"/><path fill="#a26e59" d="M172.15 215.02l1.53.57c4.78 1.85 9.36 4.43 12.74 8.37l-1.77-.3c-4.31-2.15-9.96-2.58-12.68-7.04l.18-1.6z"/><path fill="#d5ccc8" d="M227.17 216.25c1.33 1.12 2.8 2.2 4.57 2.44l1.95 2.86-4.64.88c-.37 1.47-.67 2.96-1.25 4.37-1.26.94-2.83 1.28-4.31 1.7-.77-2.45-1.58-4.9-2.78-7.18l6.15-.51.31-4.56z"/><path fill="#8e7f78" d="M170.53 217.88l1.44-1.26c2.72 4.46 8.37 4.89 12.68 7.04-2.11.27-4.22.59-6.35.76-3.01.05-6.01-.03-9.02-.13l1.64-2.42-.39-3.99z"/><path fill="#908c93" d="M198.98 216.67c2.7 2.13 5.06 4.64 7.42 7.14-2.84 4.07-2.15 9.17.24 13.27 1.62 3.53 5.95 3.34 9.22 3.76l-.39 1.85c-4.8 2.14-10.25 1.08-14.41-1.96-.97-1.23-1.89-2.51-2.81-3.78l-1.5-1.85-.5-1.37c-.28-5.79-.5-11.94 2.73-17.06m-1.21 10.4c-.15 1.28-.76 2.81.41 3.83 1.68.32 2.96-1.09 4.34-1.79l-4.75-2.04m3.25 7.84c.58 1.56 1.79 2.78 2.73 4.14l1.3-2.16-1.49-3.86c-.82.59-2.54.59-2.54 1.88z"/><path fill="#564137" d="M95.56 218.26l3.26.29c3.13.2 6.26-.09 9.36-.47.64 2.7 1.65 5.47.7 8.23l2.29-.31c-4.62 1.12-9.31 2.01-14.08 1.88-.94-3.12-1.82-6.33-1.53-9.62z"/><path fill="#a1938d" d="M187.92 218.98c.64-1.68 2.92-1 3.65.23-1.28.6-2.49.52-3.65-.23z"/><path fill="#6c686a" d="M218.03 222.26l1.01-3.53 1.67 2.59c1.2 2.28 2.01 4.73 2.78 7.18-2.64.98-5.37.35-7.45-1.49l-4.22-3.94.49-2.72 5.72 1.91z"/><path fill="#b1a7a2" d="M126.14 220.26c4.28 1.03 8.69 1.28 13.06.87l-.2 3.67c-4.21-.49-8.39-1.19-12.49-2.26l-.37-2.28z"/><path fill="#7f6e6a" d="M155.82 223.85l2.38-.01 3.74 3.38 1.56.24-3.84 1.43c-2.08.29-4.09.93-6.07 1.6-1.54-1.17-3.12-2.28-4.79-3.27l6.72-.83.3-2.54z"/><path fill="#484342" d="M165.32 223.9l1.6.23 2.36.16 9.02.13c-1.41 4.09-5.84 4.15-9.47 4.08l4.12-1.11c-3.15.08-6.3-.02-9.45.07l-1.56-.24c1.14-1.09 2.29-2.18 3.38-3.32z"/><path fill="#aca7ae" d="M197.77 227.07l4.75 2.04c-1.38.7-2.66 2.11-4.34 1.79-1.17-1.02-.56-2.55-.41-3.83z"/><path fill="#272627" opacity=".56" d="M196.75 235.1l1.5 1.85-1.5-1.85z"/></svg>