<svg xmlns="http://www.w3.org/2000/svg" width="512" height="512" viewBox="0 0 384 384" xmlns:v="https://vecta.io/nano"><path fill="#21201f" d="M250.55 122.51c1.42-1.14 2.53.59 3.53 1.41 5.56 5.8 8.32 13.88 8.75 21.81-1.5 6.4-2.55 13.04-2.02 19.63-.33 1.86-.82 3.69-1.4 5.49l2.37 1.77c-2.19 3.78-5.59 6.73-7.41 10.74-2.07 4.36-4.64 8.52-8.09 11.93-3.2 3.13-7.15 5.79-11.83 5.56a52.4 52.4 0 0 0 4.46-5.84l.27 2.05c2.34-1.39 4.55-3.05 6.15-5.28 3.93-5.2 6.52-11.48 6.42-18.08a66.63 66.63 0 0 1-4.01-.55c-2.8-1.24-5.32-3.05-8.2-4.12-7.41-2.29-12.73-8.55-20.18-10.81-.3-1.15-.64-2.28-.99-3.4-.34 1.74-.65 3.5-.89 5.26l-1.48-1.65-1.2-1.34 2.54-3.14c2.73-2.99 4.44-7.89 1.13-11.13l-.81 2c-3.21 2.11-6.26 4.43-9.36 6.69-.62-3.85 2.46-6.58 4.98-8.96l-1.8-4.5c-1.02 3.24-2.46 6.32-4.36 9.14l-3.11-1.96c-.76-2.14-1.15-4.68-3.1-6.13-4.72-3.65-10.23-6.12-15.77-8.24l-3.39-1.15-1.52 3.03-.74-.37-7.21-5.59c.94-1.16 1.95-2.58 3.67-2.25 3.82.03 7.72.18 11.41 1.24 5.93 2.74 10.38 7.8 16.13 10.83 3.3 1.89 6.44-.99 9.39-2.19 2.2.79 4.17 2.65 6.67 2.15 3.15-.57 6.18.37 9.2 1.12 7.67-4.37 14.41-10.32 21.8-15.17m-4.13 3.86c-5.77 4.28-11.74 8.29-17.43 12.69 5.74 5.31 13.15 8.51 18.62 14.15l-.15 1.55 2.71 2.73-4.46-.63c1.27 1.8 2.71 3.46 4.25 5.03-1.81-.59-3.64-1.12-5.48-1.6 1.49 2.3 3.99 3.51 6.36 4.68.94 1.31 2.42 2.04 3.74 2.89 5.4-7.62 5.69-17.51 4.78-26.47-1-6.16-3.14-12.57-7.7-17.03-1.82-1.09-3.7 1.16-5.24 2.01M215.14 137l-1.1 2 3.98.9c.07-1.78-1.56-2.28-2.88-2.9m-9.16 1.09l-1.09 2.27 4.34 1.45-.27-2.67-2.98-1.05m17.91 13.26c2.93-.26 3.52-3.14 4.07-5.51-1.98 1.31-3.28 3.3-4.07 5.51m10.11 6.67c1.86-1.22 3.22-2.99 4.13-5-2.37.7-3.54 2.73-4.13 5m7.38.41l-.03 3.68c2.11-.82 2.86-2.96 3.59-4.9l-3.56 1.22z"/><path fill="#a7988f" d="M181.75 129.71l3.39 1.15 2.17 6.95-2.56.63c-8.03.78-14.53 8.64-12.9 16.75 5.09-7.27 12.57-12.85 21.35-14.69 4.11-1.53 7.09 2.11 10.06 4.28l-1-.26c-7.21-2.52-15.26-.32-21.15 4.26-3.89 2.92-8.13 6.77-7.49 12.17.34 5.3-.87 12.79 4.69 15.8 4.16.34 7.58-2.57 11.09-4.34 3.05-1.53 6.31-2.57 9.62-3.37l.29 2.46-4.43 2.4-7.89 3.76c-2.29 1.06-4.68 1.89-7.16 2.34-1.66-.29-3.3-.65-4.95-1l-1.13-1.93-1.4-2.13-1.69 4.63-4.82 1.15c.32-1.57.63-3.14 1.02-4.7 1.32-1.7 3.02-3.06 4.32-4.77 2.23-5.9 1.28-12.44-1.55-17.97.47-3.58.4-7.77 3.09-10.54 2.52-2.29 5.62-3.81 8.54-5.51 1.28-.07 2.57-.17 3.85-.27l1.35-.68-1.32-1.06-4.91-2.48 1.52-3.03z"/><path fill="#686363" d="M185.14 130.86c5.54 2.12 11.05 4.59 15.77 8.24 1.95 1.45 2.34 3.99 3.1 6.13l-.75-.45c-2.97-2.17-5.95-5.81-10.06-4.28-2.78-.85-5.59-1.57-8.45-2.06l2.56-.63c-.67-2.33-1.38-4.66-2.17-6.95m7.17 5.43c.58.58.58.58 0 0z"/><path fill="#cb825e" d="M167.63 137.81c2.77-2.45 6.16-4.02 9.75-4.82-.73.79-1.43 1.6-2.13 2.41l5.05 1.72c-1.92-.1-3.96-.41-5.78.39-2.61 2.07-4.45 4.92-6.55 7.47l-.34-7.17z"/><path fill="#e29e7a" d="M177.38 132.99l2.11-.62.74.37 4.91 2.48-.03 1.74-3.85.27-.96-.11-5.05-1.72 2.13-2.41z"/><path fill="#fdf7ee" d="M185.14 135.22l1.32 1.06-1.35.68.03-1.74z"/><path fill="#010101" opacity=".71" d="M239.32 134.67c3.94 1.43 6.95 4.52 8.74 8.26 3.76 6.71 3.38 14.64 2.78 22.04-2.37-1.17-4.87-2.38-6.36-4.68 1.84.48 3.67 1.01 5.48 1.6-1.54-1.57-2.98-3.23-4.25-5.03l4.46.63-2.71-2.73.15-1.55c1.33-7.31-3.43-13.66-8.29-18.54z"/><path fill="#fff" d="M192.31 136.29c.58.58.58.58 0 0z"/><path fill="#855a45" opacity=".97" d="M174.52 137.51c1.82-.8 3.86-.49 5.78-.39l.96.11c-2.92 1.7-6.02 3.22-8.54 5.51-2.69 2.77-2.62 6.96-3.09 10.54l-.55-1.37c.52-1.49.03-3.08-1.3-3.94-.62-3.35-1.69-6.89-.15-10.16l.34 7.17c2.1-2.55 3.94-5.4 6.55-7.47z"/><path fill="#494a4c" d="M215.14 137c1.32.62 2.95 1.12 2.88 2.9l-3.98-.9 1.1-2z"/><path fill="#525356" d="M205.98 138.09l2.98 1.05.27 2.67-4.34-1.45 1.09-2.27z"/><path fill="#7d7b7e" d="M211.48 138.05l1.8 4.5c-2.52 2.38-5.6 5.11-4.98 8.96 3.1-2.26 6.15-4.58 9.36-6.69-.7 2.06-1.75 3.98-3 5.76l2.68 3.37-2.54 3.14 1.2 1.34c-.95.6-1.87 1.26-2.75 1.96-.03 1.19.15 2.38.29 3.56l-.65.13c-.46 1.23-.78 2.5-1 3.8l.35 3.44c5.62.9 10.79 3.25 16.09 5.17l1.83 4.42c-1.08-.12-2.16-.25-3.24-.41-3.18-1.59-6.23-3.45-9.52-4.82l-.58 7.3c-2.32-1.21-4.56-2.7-6-4.93-.65-.93-1.27-1.86-1.88-2.8-2.84.74-5.68 1.41-8.54 2.05l-1.5-1.72a23.32 23.32 0 0 0 .41-4.08l-.29-2.46 2.84-.67c.7-5.28 2.99-10.11 5.83-14.54l-5.43-9.31 1 .26.75.45 3.11 1.96c1.9-2.82 3.34-5.9 4.36-9.14m-6.1 24.29c-.87 2.42-1.34 5.61 1.13 7.26l2.24-.82.12-.71c1.34-4.31 2.15-8.77 2.86-13.22-2.94 1.63-5.12 4.39-6.35 7.49m2.95 8.02c-1.67-.55-3.42 2.21-1.25 2.77 1.69.7 3.33-2.26 1.25-2.77z"/><path fill="#373a39" d="M171.85 155.19c-1.63-8.11 4.87-15.97 12.9-16.75 2.86.49 5.67 1.21 8.45 2.06-8.78 1.84-16.26 7.42-21.35 14.69z"/><path fill="#464c4e" d="M181.11 148.78c5.89-4.58 13.94-6.78 21.15-4.26 1.76 3.13 3.66 6.18 5.43 9.31-2.84 4.43-5.13 9.26-5.83 14.54l-2.84.67c-3.31.8-6.57 1.84-9.62 3.37l.92-4.68-1.91-1.62c.13-3.72.03-7.85 3.14-10.51l-.11-1.9-4.49-.61-.28-.04c-.52-1.14-1.01-2.28-1.48-3.43l-4.08-.84m12.09 10.41c.55.56.55.56 0 0m-1.12 4.97c-1.55 3.02 3.3.19 0 0z"/><path d="M218.47 142.82c3.31 3.24 1.6 8.14-1.13 11.13l-2.68-3.37c1.25-1.78 2.3-3.7 3-5.76l.81-2zm-32.6 93.4c.73-3.64 2.79-6.79 5.15-9.58a37.97 37.97 0 0 0 1.78 4.16c-5.75 1.29-8.26 9.98-3.09 13.52-1-.41-2.02-.79-3.04-1.15-.28-2.12-.57-4.23-.76-6.35l-.04-.6z" fill="#4a4748"/><path fill="#565456" d="M223.89 151.35c.79-2.21 2.09-4.2 4.07-5.51-.55 2.37-1.14 5.25-4.07 5.51z"/><path d="M260.81 165.36c-.53-6.59.52-13.23 2.02-19.63.89 6.62-.37 13.24-2.02 19.63zm-65.93 8.54l4.43-2.4a23.32 23.32 0 0 1-.41 4.08l-.71 2.59c-.18 1.29-.2 2.6-.24 3.91l-.98 2.79-1.14 3.06c1.58 3.82 1.9 8.03 3.47 11.84 1.23 2.48 4.32 1.63 6.46 1.18 1.59-.25 2.84-1.31 3.76-2.59l-4.5-.92c1.35-.5 2.75-.93 3.98-1.69.53-1.16.67-2.43.85-3.67l-.14-.78 1.06 1.21c.47 1.29.87 2.6 1.27 3.92a110.54 110.54 0 0 1 7.7 1.09l3.51-5.29 1.46-2.08-1.73-4.23c2.03-.19 4.07-.41 6.1-.68l-2.16-4.74c1.08.16 2.16.29 3.24.41l1.21 2.8c-1.05 5.24-1.34 10.67-3.98 15.47 3.2-2.27 5.52-5.43 6.85-9.11.72-1.38 1.53-2.71 2.29-4.07 1.49 5.42-1.7 10.09-3.35 14.98-1.81 2.21-.04 4.42 1.85 5.79-1.3 1.47-2.6 2.94-4 4.32l.49-2.34-5.12.2-1.63-.18.36-.77c2.02-.96 4.1-1.79 6.17-2.65l-4.39-3.06-6.67 3.14 4.16 2.24c-1.41-.19-2.83-.28-4.25-.31-2.3.05-4.95-.11-6.57 1.84l-.65 1.76-1.39 3.92-3.26-4.09c-.11-.31-.31-.94-.42-1.25l-.17-.61-3.73 1.51c.34 7.25 5.24 13.89 11.74 16.93l2.42-2.42 1.2 1.94c.85 1.67 1.52 3.42 2.19 5.17l-1.99 3.03c-5.35-1.01-8.94-5.47-11.56-9.9-2.08-3.68-4.3-7.3-5.95-11.21-.98-2.46-1.8-4.97-2.61-7.49l-2.47.35c-4.16-3.67-6.15-8.99-7.07-14.33l-.12-1.66.82-.01.63-1.48.11-1.58a10.35 10.35 0 0 0 .21-3.09c-.57-3.95 1.17-7.63 3.37-10.79z" fill="#747172"/><path fill="#3a2d26" opacity=".79" d="M167.78 147.97c1.33.86 1.82 2.45 1.3 3.94-1.36-.85-1.79-2.47-1.3-3.94z"/><path fill="#3d4041" d="M181.11 148.78l4.08.84 1.48 3.43v.01l.28.03 4.49.61.11 1.9c-3.11 2.66-3.01 6.79-3.14 10.51l1.91 1.62-.92 4.68c-3.51 1.77-6.93 4.68-11.09 4.34-5.56-3.01-4.35-10.5-4.69-15.8-.64-5.4 3.6-9.25 7.49-12.17z"/><path fill="#d2d3d0" d="M186.67 153.05l.28.04c-.07 0-.21-.02-.28-.03v-.01z"/><path d="M234 158.02c.59-2.27 1.76-4.3 4.13-5-.91 2.01-2.27 3.78-4.13 5zm-2.97 53.07l4-4.32 4.49 2.31 1.55.76c1.31-.74 2.57-1.57 3.75-2.52.63 1.28 1.21 2.6 2.03 3.78 2.5 1.24 5.37.28 7.97-.06-2.56 2.77-4.67 5.9-7.22 8.68-1.16 3.08-1.28 6.43-2.39 9.52-1.04 2.55-3.8 3.57-6.15 4.53.51-1.36 1.07-2.69 1.6-4.04 2.37-3.45-1-6.84-3.09-9.42-2.38-3.06-6.52-3.3-10.03-3.99l-.16 1.42-2.17-2.69c-.62-2.04-.68-4.18-.44-6.28l1.63.18c.89 1.85 2.54 3.19 4.63 2.14m3.19-.71c-.3 1.26-1.04 2.56-.48 3.86 1.51 1.07 2.82-.81 4.15-1.37l-.17-2.62-3.5.13m8.92 1.6c.63 2.15 1.83 4.07 3.68 5.37-.69-2.12-1.41-4.46-3.68-5.37m-4.86 5.74c1.48 1.26 2.98 2.49 4.57 3.62-.46-1.66-.89-3.37-1.82-4.83l-2.75 1.21z" fill="#8a848a"/><path fill="#b1acaf" d="M205.38 162.34c1.23-3.1 3.41-5.86 6.35-7.49-.71 4.45-1.52 8.91-2.86 13.22-.06-2.58-.46-5.14-.95-7.66-2.11 2.66-2.23 6.02-1.41 9.19-2.47-1.65-2-4.84-1.13-7.26z"/><path fill="#9a7f75" d="M218.37 154.82l.99 3.4c.48 5.05 4.62 8.31 7.2 12.32.95 1.57 2.66 2.33 4.26 3.07 1.55 1.12 3.02 2.35 4.35 3.73l-2.23 2.37c-1.34-1.73-2.56-3.99-5.01-4.17-4.67-4.16-10.24-8.62-10.45-15.46.24-1.76.55-3.52.89-5.26z"/><path d="M241.38 158.43l3.56-1.22c-.73 1.94-1.48 4.08-3.59 4.9l.03-3.68zm-30.61 34.08c3.03.68 5.97-.49 8.79-1.47l3.69 1.19-3.51 5.29-7.7-1.09-1.27-3.92z" fill="#959097"/><path opacity=".76" d="M219.36 158.22c7.45 2.26 12.77 8.52 20.18 10.81 2.88 1.07 5.4 2.88 8.2 4.12.44 1.45 1.17 2.9 1.06 4.45-3.2 2.54-4.84 6.31-6.57 9.88l-2.15-2.99c.78-2.37 1.41-4.77 1.98-7.19-3.72-1.31-7.45-2.59-11.24-3.69-1.6-.74-3.31-1.5-4.26-3.07-2.58-4.01-6.72-7.27-7.2-12.32z"/><path fill="#cdc9c5" d="M193.2 159.19c.55.56.55.56 0 0z"/><path fill="#cb9479" d="M213.25 160.39c.88-.7 1.8-1.36 2.75-1.96l-.49 5.13-1.97.39c-.14-1.18-.32-2.37-.29-3.56z"/><path fill="#685e5b" d="M216 158.43l1.48 1.65c.21 6.84 5.78 11.3 10.45 15.46l.4.95c-5.3-1.92-10.47-4.27-16.09-5.17l-.35-3.44 1.78 2.66 3.18.69c-.72-2.68-1.74-5.35-3.96-7.15l.65-.13 1.97-.39c.24-1.7.36-3.42.49-5.13z"/><path fill="#f6f2f0" d="M206.51 169.6c-.82-3.17-.7-6.53 1.41-9.19.49 2.52.89 5.08.95 7.66l-.12.71-2.24.82z"/><path fill="#dddedd" d="M192.08 164.16c3.3.19-1.55 3.02 0 0z"/><path fill="#42352c" d="M211.89 167.88c.22-1.3.54-2.57 1-3.8 2.22 1.8 3.24 4.47 3.96 7.15l-3.18-.69-1.78-2.66z"/><path fill="#eeebe5" d="M208.33 170.36c2.08.51.44 3.47-1.25 2.77-2.17-.56-.42-3.32 1.25-2.77z"/><path fill="#c18062" d="M186.99 177.66l7.89-3.76c-2.2 3.16-3.94 6.84-3.37 10.79-2.06-.23-2.26 3-.21 3.09-.02.4-.08 1.19-.11 1.58l-.84-.02-.61 1.51.12 1.66c-4.96 2.02-7.75 7.95-5.1 12.84l-1.45.44c-3.76-4.62 1.08-11.11-3.43-15.3-2.62-3.36-3.76-7.49-5-11.49l4.95 1c-.35 2.11-1.48 4.42-.48 6.51 1.85 2.83 5.41 3.23 8.46 3.64a144.92 144.92 0 0 0-.82-12.49z"/><path fill="#472a1c" d="M172.35 174.94l1.4 2.13c-.42 3.69-.45 7.42-.03 11.11l.55 6.27.47 5.26c.2 1.79.45 3.59.75 5.38.72 4.3 2.19 8.83 6.37 10.94l-5.54 1.39c1.36 1.59 2.86 3.07 4.44 4.46-2.61-.12-5.21-.08-7.81-.15.91-.65 1.83-1.28 2.76-1.91l-1.16-5.27c.83-1.82.87-3.82.08-5.67l-.96-1.38c-1.59-.32-3.19-.58-4.78-.84-.56-3.2-.94-6.44-1.87-9.56-2.47-3.19-2.7-7.27-2.12-11.13.6-3.31.14-6.96 1.96-9.95-.39 1.56-.7 3.13-1.02 4.7l4.82-1.15 1.69-4.63z"/><path fill="#b4b2b1" d="M200.4 177.3l8.54-2.05 1.88 2.8-2.02.21-.42 2.59c-3.54-.26-7.02-1.07-10.19-2.68l.71-2.59 1.5 1.72z"/><path fill="#c1bebc" d="M227.93 175.54c2.45.18 3.67 2.44 5.01 4.17 1.27 2.02 3.31 3.8 3.59 6.29l-2.29 4.07-2.87-6.36-1.21-2.8-1.83-4.42-.4-.95z"/><path fill="#919093" d="M217.4 175.68c3.29 1.37 6.34 3.23 9.52 4.82l2.16 4.74c-2.03.27-4.07.49-6.1.68-.89-1.94-2.74-3-4.59-3.84l-2.17 3.81c-.98-.57-1.73-2.33-3.02-1.88-1.32 1.06-2.1 2.63-3.16 3.93l-1.35-5.68-2.51-.3.37 5.6-3.52 3.66c2.27.34 4.53.66 6.82.86-.18 1.24-.32 2.51-.85 3.67-1.23.76-2.63 1.19-3.98 1.69l4.5.92c-.92 1.28-2.17 2.34-3.76 2.59-2.14.45-5.23 1.3-6.46-1.18-1.57-3.81-1.89-8.02-3.47-11.84l1.14-3.06c.53.76 1.37 2.11 2.49 1.58.87-1.55-.95-3.02-1.51-4.37.04-1.31.06-2.62.24-3.91 3.17 1.61 6.65 2.42 10.19 2.68l.42-2.59 2.02-.21c1.44 2.23 3.68 3.72 6 4.93l.58-7.3m-17.79 17.52c-1.24.85-.35 3.36 1.24 2.9 1.71-.61.33-3.53-1.24-2.9z"/><path fill="#685c5a" d="M173.75 177.07l1.13 1.93c1.24 4 2.38 8.13 5 11.49-4.28 3.9-2.19 9.97-.93 14.76.62 2.09 2.97 1.1 4.36.54l1.45-.44c2.87.45 5.64 1.36 8.48 1.99-1.29.33-2.56.71-3.82 1.08l-1.56 4.31c-1.48.51-2.93 1.12-4.37 1.73l2.1-.03 1.63 2.72c-3.31 2.09-5.87 5.19-6.53 9.14l-.67 3.06c-.11 2.43-.22 4.9-1.19 7.18-1.12-4.13-.65-8.44-.18-12.62-4.22.33-8.43.9-12.67.85l-3.01-.58c1.63-.1 3.67-.01 4.27-1.92-2.7-.09-5.41.08-7.95 1.04-5.49-1.29-10.32-4.44-15.82-5.71-3.48-.78-7.07-1-10.63-.95 2-.17 3.99-.44 5.99-.69l-.73-4.61 2.99 1.58c3.08 1.66 6.47 2.61 9.95 2.9.33-3.01.6-6.04 1.15-9.02l.83 2.48c.25 3.1.73 6.19 1.62 9.18 2.5.41 4.96.98 7.43 1.51 2.34 1.21 4.34-.32 5.92-1.98 1.28 1.68 2.61 3.66 4.96 3.74l7.81.15c-1.58-1.39-3.08-2.87-4.44-4.46l5.54-1.39c-4.18-2.11-5.65-6.64-6.37-10.94l1.73-1.32.24-2.61-2.72-1.45-.47-5.26c.53-1.08 1.93-1.96 1.69-3.28a32.79 32.79 0 0 0-2.24-2.99c-.42-3.69-.39-7.42.03-11.11z"/><path fill="#e39f7d" d="M179.83 180c2.48-.45 4.87-1.28 7.16-2.34a144.92 144.92 0 0 1 .82 12.49c-3.05-.41-6.61-.81-8.46-3.64-1-2.09.13-4.4.48-6.51z"/><path fill="#5f5c5c" d="M232.94 179.71l2.23-2.37 4.91 7.15 2.15 2.99-1.32 2.85-2 4.68a52.4 52.4 0 0 1-4.46 5.84l-1.27.13c1.65-4.89 4.84-9.56 3.35-14.98-.28-2.49-2.32-4.27-3.59-6.29z"/><path d="M197.95 182.08c.56 1.35 2.38 2.82 1.51 4.37-1.12.53-1.96-.82-2.49-1.58l.98-2.79zM192.82 216c2.93-1.17 6.1-1.48 9.19-2.02 1.65 3.91 3.87 7.53 5.95 11.21 2.62 4.43 6.21 8.89 11.56 9.9l1.99-3.03c1.58-2.43 3.05-4.93 4.6-7.38.56 2.41.99 4.85 1.31 7.31-3.14 3.9-6.38 8.09-10.88 10.47-4.95.62-9.85-1.18-14.81-1.29-1.6-1.7-3.15-3.45-4.73-5.18l.5-2.85c3.77 1.48 7.3 3.77 11.32 4.5 1.83-.9 1.55-3.71 2.24-5.46l-4.76-2.37 2.45 4.25c-4.3-.92-8.5-2.29-12.52-4.09-1.05-4.64-4.7-9.07-3.41-13.97z" fill="#fdfafa"/><path fill="#b7b5b8" d="M206.18 181.96l2.51.3 1.35 5.68-2.16 1.29 1.83 2.07.14.78-6.82-.86 3.52-3.66-.37-5.6z"/><path fill="#c2bcc2" d="M218.39 182.08c1.85.84 3.7 1.9 4.59 3.84l1.73 4.23-1.46 2.08-3.69-1.19c-.97-1.8-2.05-3.55-3.34-5.15l2.17-3.81z"/><path fill="#e8e2e7" d="M210.04 187.94c1.06-1.3 1.84-2.87 3.16-3.93 1.29-.45 2.04 1.31 3.02 1.88 1.29 1.6 2.37 3.35 3.34 5.15-2.82.98-5.76 2.15-8.79 1.47l-1.06-1.21-1.83-2.07 2.16-1.29z"/><path fill="#514b49" d="M227.39 199.18c2.64-4.8 2.93-10.23 3.98-15.47l2.87 6.36c-1.33 3.68-3.65 6.84-6.85 9.11z"/><path fill="#fffefb" d="M191.3 187.78c-2.05-.09-1.85-3.32.21-3.09a10.35 10.35 0 0 1-.21 3.09z"/><path fill="#9d8e89" d="M174.27 194.45l-.55-6.27a32.79 32.79 0 0 1 2.24 2.99c.24 1.32-1.16 2.2-1.69 3.28z"/><path fill="#f8f2ed" d="M190.35 189.34l.84.02-.63 1.48-.82.01.61-1.51z"/><path fill="#030303" opacity=".74" d="M240.91 190.33l4.42 1.45c-1.6 2.23-3.81 3.89-6.15 5.28l-.27-2.05 2-4.68z"/><path fill="#f9b693" d="M249.69 198.12c1.47-4.5 6.04-6.61 9.91-8.67l-.36 3.99c-.44 2.87 1.75 5.16 2.89 7.59l-1.54 3.03c-1.31-2.81-3.24-5.26-5.64-7.21l-5.26 1.27z"/><path fill="#483b37" d="M178.95 205.25c-1.26-4.79-3.35-10.86.93-14.76 4.51 4.19-.33 10.68 3.43 15.3-1.39.56-3.74 1.55-4.36-.54z"/><path fill="#e09d7b" d="M184.76 205.35c-2.65-4.89.14-10.82 5.1-12.84.92 5.34 2.91 10.66 7.07 14.33l-.74.1-2.95.4c-2.84-.63-5.61-1.54-8.48-1.99z"/><path fill="#d4cecb" d="M199.61 193.2c1.57-.63 2.95 2.29 1.24 2.9-1.59.46-2.48-2.05-1.24-2.9z"/><path fill="#010000" opacity=".76" d="M234.45 200.85c4.68.23 8.63-2.43 11.83-5.56-.11 2.08.47 4.42-.74 6.28-1.77 2.69-4.07 4.96-6.02 7.51l-4.49-2.31c-1.89-1.37-3.66-3.58-1.85-5.79l1.27-.13z"/><path fill="#93817d" d="M162.96 197.58l4.06-.48c.93 3.12 1.31 6.36 1.87 9.56l-1.39 2.54c.65 2.88 1.24 5.87.49 8.79-1.58 1.66-3.58 3.19-5.92 1.98l2.52-.2c-.23-7.36 1.02-14.62 2.66-21.77l-4.29-.42z"/><path fill="#ccc1bb" d="M249.69 198.12l5.26-1.27c2.4 1.95 4.33 4.4 5.64 7.21-1.63 2.56-3.71 4.77-5.77 6.98-2.6.34-5.47 1.3-7.97.06-.82-1.18-1.4-2.5-2.03-3.78 2.73-2.38 3.61-5.95 4.87-9.2z"/><path fill="#86817f" d="M133.55 198.95c9.54-.1 19.04-.86 28.56-1.36-3.72 3.3-7.54 6.78-9.09 11.69l-.83-2.48c.56-2 1.37-3.92 2.24-5.81-4.02.63-8.55.09-12.09 2.35-1.75 2.77-.91 6.43-1.25 9.58l-2.99-1.58.73 4.61c-2 .25-3.99.52-5.99.69l-.83.03-1.91-.57 1.96-2.58c1.28-.16 2.59-.27 3.84-.6 1.9-3.48 2.42-7.5 3.42-11.29l-1.04-1.97-4.73-.71z"/><path fill="#cac0bb" d="M162.11 197.59l.85-.01 4.29.42c-1.64 7.15-2.89 14.41-2.66 21.77l-2.52.2c-2.47-.53-4.93-1.1-7.43-1.51-.89-2.99-1.37-6.08-1.62-9.18 1.55-4.91 5.37-8.39 9.09-11.69z"/><path fill="#594339" d="M120.24 200.49c4.13-.24 8.22-.85 12.3-1.45l2.42 2.94c-2.31.88-4.99 2.34-5.33 5.06.44 2.28 1.53 4.36 2.43 6.48l-1.96 2.58 1.91.57-4.85.27c-4.22-.78-8.49-2.32-11.53-5.48l1.39-2.97c2.55 1.86 5.69 2.3 8.76 2.34l3.82 2.59c-.42-2.03-1.1-4.04-1.02-6.13.44-2.03 1.5-3.85 2.34-5.73l-2.98.24c-3.71.39-7.49 1.27-11.19.26 1.05-.74 2.14-1.57 3.49-1.57z"/><path fill="#a29c9b" opacity=".96" d="M132.54 199.04l1.01-.09 4.73.71 1.04 1.97-4.36.35-2.42-2.94z"/><path fill="#9b8c87" d="M174.74 199.71l2.72 1.45-.24 2.61-1.73 1.32-.75-5.38z"/><path fill="#8e6e66" d="M116.75 202.06c3.7 1.01 7.48.13 11.19-.26-1.67 2.72-2.28 5.86-2.16 9.03-3.07-.04-6.21-.48-8.76-2.34l-1.39 2.97c-1.39-3.16-.76-6.59 1.12-9.4z"/><path fill="#ccc2bc" d="M142.34 203.34c3.54-2.26 8.07-1.72 12.09-2.35-.87 1.89-1.68 3.81-2.24 5.81-.55 2.98-.82 6.01-1.15 9.02-3.48-.29-6.87-1.24-9.95-2.9.34-3.15-.5-6.81 1.25-9.58z"/><path fill="#b7aba4" d="M127.94 201.8l2.98-.24c-.84 1.88-1.9 3.7-2.34 5.73-.08 2.09.6 4.1 1.02 6.13l-3.82-2.59c-.12-3.17.49-6.31 2.16-9.03z"/><path fill="#d0c5c0" d="M129.63 207.04c.34-2.72 3.02-4.18 5.33-5.06l4.36-.35c-1 3.79-1.52 7.81-3.42 11.29-1.25.33-2.56.44-3.84.6-.9-2.12-1.99-4.2-2.43-6.48z"/><path fill="#635d5d" d="M220.24 205.43l6.67-3.14 4.39 3.06-6.17 2.65-.73-.33-4.16-2.24z"/><path fill="#bdb1a9" d="M196.93 206.84l2.47-.35 2.61 7.49c-3.09.54-6.26.85-9.19 2.02-1.29 4.9 2.36 9.33 3.41 13.97 4.02 1.8 8.22 3.17 12.52 4.09l-2.45-4.25 4.76 2.37c-.69 1.75-.41 4.56-2.24 5.46-4.02-.73-7.55-3.02-11.32-4.5l-.5 2.85c-1.49-1.65-2.93-3.37-4.2-5.19a37.97 37.97 0 0 1-1.78-4.16c-.29-1-.53-2.01-.8-3.01 2.08-3.47.19-7.29-2.97-9.24l-1.66.04-2.1.03c1.44-.61 2.89-1.22 4.37-1.73 3.41.05 7.73 3.03 10.51.22-.4-2.11-1.29-4.08-2.18-6.01l.74-.1z"/><path fill="#c5bab6" d="M167.5 209.2l1.39-2.54 4.78.84.96 1.38-5.78.25c1.65 2.05 3.59 3.85 5.7 5.42l1.16 5.27-2.76 1.91c-2.35-.08-3.68-2.06-4.96-3.74.75-2.92.16-5.91-.49-8.79z"/><path fill="#7c797d" d="M193.24 207.34l2.95-.4c.89 1.93 1.78 3.9 2.18 6.01-2.78 2.81-7.1-.17-10.51-.22l1.56-4.31 3.82-1.08z"/><path fill="#beb3a9" d="M213.58 209.2c1.62-1.95 4.27-1.79 6.57-1.84.45 3.62 2.39 6.74 4.3 9.75l.76-2.06c.7.91 1.45 1.79 2.17 2.69 1.51 3.33.48 7.02.79 10.53-.23 1.24-.47 2.49-.75 3.72-.32-2.46-.75-4.9-1.31-7.31l-4.6 7.38c-.67-1.75-1.34-3.5-2.19-5.17 2.33-1.75 4.81-3.3 7.41-4.62l-5.09-2.08c-.22-2.71-.35-5.62-2.03-7.89-1.34-2.03-3.91-2.4-6.03-3.1z"/><path fill="#ede6e4" d="M220.15 207.36c1.42.03 2.84.12 4.25.31l.73.33-.36.77c-.24 2.1-.18 4.24.44 6.28l-.76 2.06c-1.91-3.01-3.85-6.13-4.3-9.75z"/><path fill="#968b86" d="M168.85 209.13l5.78-.25c.79 1.85.75 3.85-.08 5.67-2.11-1.57-4.05-3.37-5.7-5.42z"/><path fill="#a5a3a5" d="M203.96 210.44l3.73-1.51.17.61c-.42 1.99-1.38 3.95-1.21 6.03.71 2.07 2.12 3.79 3.32 5.59l1.58-2.17c-1.79-2.42-3.23-5.13-3.27-8.2l3.26 4.09 1.39-3.92c-.93 5.32 2.39 9.85 5.19 13.99l-2.42 2.42c-6.5-3.04-11.4-9.68-11.74-16.93z"/><path d="M213.58 209.2c2.12.7 4.69 1.07 6.03 3.1 1.68 2.27 1.81 5.18 2.03 7.89l5.09 2.08c-2.6 1.32-5.08 2.87-7.41 4.62l-1.2-1.94c-2.8-4.14-6.12-8.67-5.19-13.99l.65-1.76zm-6.93 6.37c-.17-2.08.79-4.04 1.21-6.03l.42 1.25c.04 3.07 1.48 5.78 3.27 8.2l-1.58 2.17c-1.2-1.8-2.61-3.52-3.32-5.59zm36.49-3.59c2.27.91 2.99 3.25 3.68 5.37-1.85-1.3-3.05-3.22-3.68-5.37z" fill="#f6f0ef"/><path fill="#e8e2e6" d="M226.4 208.95l5.12-.2-.49 2.34c-2.09 1.05-3.74-.29-4.63-2.14z"/><path d="M234.22 210.38l3.5-.13.17 2.62c-1.33.56-2.64 2.44-4.15 1.37-.56-1.3.18-2.6.48-3.86zm-74.93 12.92c2.54-.96 5.25-1.13 7.95-1.04-.6 1.91-2.64 1.82-4.27 1.92l-3.68-.88z" fill="#d3cdd2"/><path fill="#ece5e4" d="M185.59 214.43l1.66-.04c3.16 1.95 5.05 5.77 2.97 9.24a63.42 63.42 0 0 0-3-6.48l-1.63-2.72z"/><path fill="#413e40" d="M227.54 216.32c3.51.69 7.65.93 10.03 3.99 2.09 2.58 5.46 5.97 3.09 9.42l.43-2.39c-1.64 1.33-3.32 2.59-4.99 3.88.33-3.16 1.08-6.42.34-9.56-1.01-.88-2.22-1.47-3.42-2.02l-1.9-.53c-.84 3.1-1.86 6.14-2.95 9.16-.31-3.51.72-7.2-.79-10.53l.16-1.42z"/><path fill="#928e95" d="M187.22 217.15a63.42 63.42 0 0 1 3 6.48l.8 3.01c-2.36 2.79-4.42 5.94-5.15 9.58-1.42-.18-4.37.48-3.48 2.44 1.43 1.17 2.86-.73 3.52-1.84.19 2.12.48 4.23.76 6.35 1.02.36 2.04.74 3.04 1.15 1.55.9 3.07 1.84 4.53 2.88-3.13.71-6.41.51-9.28-.98-3.05-2.46-5.42-5.78-6.13-9.69.97-2.28 1.08-4.75 1.19-7.18 1.78.27 3.56.5 5.34.7-1.42-1.41-3-2.66-4.67-3.76.66-3.95 3.22-7.05 6.53-9.14m-4.98 16.96c-2.48 1.2.99 2.86 2.02 1.21 1.06-1.25-1.23-1.85-2.02-1.21z"/><path fill="#b9b4b9" d="M238.28 217.72l2.75-1.21c.93 1.46 1.36 3.17 1.82 4.83-1.59-1.13-3.09-2.36-4.57-3.62z"/><path fill="#99969c" d="M231.12 219.11l1.9.53-1.61 8.64c-1.83 4.16-1.21 9.24-4.26 12.83-4.34 1.95-8.1 5.76-13.15 5.61-4.74.33-9.21-2.06-12.27-5.55 4.96.11 9.86 1.91 14.81 1.29 4.5-2.38 7.74-6.57 10.88-10.47.28-1.23.52-2.48.75-3.72 1.09-3.02 2.11-6.06 2.95-9.16z"/><path fill="#d2c7c0" d="M233.02 219.64c1.2.55 2.41 1.14 3.42 2.02.74 3.14-.01 6.4-.34 9.56l-.57.47-4.12-3.41c.76-2.83 1.08-5.76 1.61-8.64z"/><path fill="#b0abb1" d="M180.02 229.35l.67-3.06c1.67 1.1 3.25 2.35 4.67 3.76l-5.34-.7z"/><path fill="#736966" d="M227.15 241.11c3.05-3.59 2.43-8.67 4.26-12.83l4.12 3.41-.48.41c-1.72 1.03-2.79 2.75-3.26 4.67-1.05 1.91-2.61 3.49-4.64 4.34z"/><path fill="#282322" opacity=".57" d="M231.79 236.77c.47-1.92 1.54-3.64 3.26-4.67.21 2.16-.78 4.58-3.26 4.67z"/><path fill="#bdb8be" d="M182.24 234.11c.79-.64 3.08-.04 2.02 1.21-1.03 1.65-4.5-.01-2.02-1.21z"/><path fill="#b8b2b8" d="M182.39 238.66c-.89-1.96 2.06-2.62 3.48-2.44l.04.6c-.66 1.11-2.09 3.01-3.52 1.84z"/></svg>