<svg xmlns="http://www.w3.org/2000/svg" width="512" height="512" viewBox="0 0 384 384" xmlns:v="https://vecta.io/nano"><path fill="#282624" opacity=".94" d="M230.64 136.94c2.62-.48 5.28-.87 7.96-.89 1.32 4.65 3.3 9.09 4.64 13.73-1.92-1.2-3.89-2.31-5.92-3.31 2-2.01 2.34-5.1.26-7.21-.88-1.64-2.75-.8-4.17-.68l1.5 6.62c-1.2-.83-2.34-1.74-3.46-2.67l-.81-5.59z"/><path d="M238.6 136.05l1.92.11.42.77c1.13 4.6 2.81 9.03 5.01 13.22l.22.6c-.3 2 .33 4.02 1.96 5.29l.8 2 .6 2.34 3.66 4.16-1.42 1.04c-.35-.03-1.03-.1-1.38-.14-1.16-1.68-2.15-3.47-3.05-5.3l-1.02-2.09-.32-.62c.47-2.13-.3-4.32-2.16-5.51l-.6-2.14c-1.34-4.64-3.32-9.08-4.64-13.73zm15.61 47.76c1.63 3.31 2.92 6.77 3.81 10.35-1.47-1.91-2.86-3.89-4.26-5.85-1.34 2.37-2.61 4.79-3.77 7.26-1.68 3.65-3.36 7.31-5.46 10.75-2.49 4.1-4.12 8.64-6.46 12.82 1.7-5.15 4.6-9.78 6.61-14.81 1.5-3.39 3.06-6.76 4.73-10.08 1.87-3.35 3.82-6.7 4.8-10.44zm-88.19 21.14c2.27-.53 4.59-.82 6.92-.95-.46 4.37-2.45 8.37-4.22 12.32l-.44.39c-3.02-1.01-6.18-.4-9.2.29.47-1.48.86-2.99 1.26-4.5l2.89.86-.44-6.35c-4.59 3.56-8.5 8.07-10.43 13.63l3.91-.25-1.55 1.76c-.64 2.92-.32 5.94.17 8.86-1.7-1.34-3.42-2.81-4.32-4.83.07-3.78.45-7.56 1.23-11.25 1.99-3.51 4.65-6.79 8.26-8.72 1.41-.33 2.82-.6 4.24-.9.62 2.33 1.26 4.67 1.98 6.99 2.27-1.72 3.49-4.24 3.79-7.04-1.35-.13-2.7-.24-4.05-.31z" fill="#8b878d"/><path d="M240.94 136.93c2.44 4.08 3.96 8.61 5.01 13.22-2.2-4.19-3.88-8.62-5.01-13.22zm32.44 77.72l2.75-1.43-1.45 1.7 1.89 4.63 1.2 3.37c1.5 3.92 2.79 7.92 4.42 11.79l-2.57 1.7c-1.65-6.04-4.58-11.61-6.66-17.5.1-1.43.26-2.85.42-4.26z" fill="#12151d"/><path fill="#434048" d="M233.41 138.58c1.42-.12 3.29-.96 4.17.68 2.08 2.11 1.74 5.2-.26 7.21l-2.41-1.27-1.5-6.62z"/><path fill="#8b6550" d="M209.57 145.1c4.47-2.05 9.61-4.89 14.41-2.02l-3.65-.15 3.37 5.35c-4.62-1.4-9.36-2.42-14.13-3.18z"/><path fill="#eba580" d="M220.33 142.93l3.65.15c1.25.49 2.45 1.08 3.63 1.73l1.53.94-1.16 7.29-.52.58-3.76-5.34-3.37-5.35z"/><path fill="#a99e9e" d="M230.48 144.22l.49-.11c.16 1.59.48 3.19.33 4.8-.68 1.66-2.18 2.8-3.32 4.13l1.16-7.29 1.34-1.53z"/><path fill="#817c7d" d="M230.97 144.11c3.37 2.15 5.79 5.57 8.36 8.6 1.9 4.22 2.07 8.9.87 13.33l6.44-1.09c.09 1.83.32 3.66.54 5.48-2.45-.27-4.9-.61-7.35-.95l6.16 7.29-2.18 2.67c-3.48-4.11-7.62-7.57-12.08-10.56l-2.68 5.77c-1.01.24-2.01.49-3 .77 1.32-2.7 2.36-5.55 2.84-8.52-.1-2.56-.43-5.11-.72-7.66l-.41-3.4-.3-2.22.52-.58c1.14-1.33 2.64-2.47 3.32-4.13.15-1.61-.17-3.21-.33-4.8m5.61 16.06c.76-2.57 1.3-5.26 1.07-7.96-1.4 2.33-3.07 5.48-1.07 7.96m2.53-.7c-1.18.83.14 2.99 1.31 1.84 1.16-.84-.13-2.98-1.31-1.84z"/><path fill="#3e403e" d="M201.61 148.74c2.47-1.59 5.19-2.7 7.96-3.64 4.77.76 9.51 1.78 14.13 3.18 1.22 1.8 2.49 3.57 3.76 5.34l.3 2.22c-2.57-2.08-5.18-4.26-8.36-5.33-5.71-1.99-11.85-1.61-17.79-1.77z"/><path fill="#a5928a" d="M191.88 160.1c3.83-3.26 6.62-7.47 9.73-11.36 5.94.16 12.08-.22 17.79 1.77 3.18 1.07 5.79 3.25 8.36 5.33l.41 3.4c-2.84-2.3-5.82-4.4-8.93-6.29-3.39 2.56-6.79 5.17-9.64 8.34-1.07-4.77 4.86-6.22 7.73-8.67-6.41-1.79-15.11-3.11-19.54 3.17-3.65 4.85-9.77 10.15-7.74 16.87 2.83 2.59 6.87 2.89 10.42 3.85l.48 3.33c-2.13 1.85-4.39 3.54-6.8 4.99l-.31-2.04 1.5-3.3c-3.73-1.65-7.18-3.85-10.19-6.61 1.18-2.95 2.05-6.01 2.91-9.06l3.82-3.72z"/><path fill="#3e4141" d="M197.79 155.79c4.43-6.28 13.13-4.96 19.54-3.17-2.87 2.45-8.8 3.9-7.73 8.67l.02.91c-3.14 3.37-5.26 7.47-7 11.7-.69.89-1.42 1.75-2.15 2.61-3.55-.96-7.59-1.26-10.42-3.85-2.03-6.72 4.09-12.02 7.74-16.87z"/><path fill="#1e1f20" opacity=".63" d="M246.17 150.75c1.65 1.25 2.43 3.25 1.96 5.29-1.63-1.27-2.26-3.29-1.96-5.29z"/><path d="M236.58 160.17c-2-2.48-.33-5.63 1.07-7.96.23 2.7-.31 5.39-1.07 7.96zm-31.5 16.61c.8-5.13 3.09-10.11 7.5-13.09-1.12 4.4-2.68 8.69-3.25 13.21-1.42.03-2.84-.02-4.25-.12z" fill="#ccc7cb"/><path fill="#2e2e2f" opacity=".8" d="M243.84 151.92c1.86 1.19 2.63 3.38 2.16 5.51a7.49 7.49 0 0 1-2.16-5.51z"/><path fill="#474d53" d="M209.6 161.29c2.85-3.17 6.25-5.78 9.64-8.34 3.11 1.89 6.09 3.99 8.93 6.29.29 2.55.62 5.1.72 7.66-3.39-.61-6.84-.15-9.6 2.04l-1.36-4.75-2.26.35c.88-1.65 1.67-3.36 2.43-5.07a18.38 18.38 0 0 0-8.48 2.73l-.02-.91z"/><path fill="#6b6766" d="M239.33 152.71l5.68 7.46a4.23 4.23 0 0 0 2.07 1.68l-.44 3.1-6.44 1.09c1.2-4.43 1.03-9.11-.87-13.33z"/><path d="M156.92 159.02c3.94-.69 7.98-.71 11.96-.42-4.21.65-8.32 1.83-12.5 2.66l.54-2.24zm8.88 3.79c1.36-1.35 3.28-1.9 4.89-.57 3.2 1.68.52 5.28 0 7.8-.8 2.22-1.44 4.49-1.92 6.81l-.85 3.77c-1.63-2.01-2.79-4.35-3.28-6.89 1.54-3.45 1.36-7.25 1.16-10.92z" fill="#d7ccc6"/><path fill="#151514" opacity=".54" d="M246.32 158.05l1.02 2.09-.26 1.71a4.23 4.23 0 0 1-2.07-1.68l1.31-2.12z"/><path fill="#101111" opacity=".55" d="M248.93 158.04l.6 2.34-.6-2.34z"/><path fill="#6b6261" d="M136.22 165.21c7.24-.82 13.62-4.73 20.7-6.19l-.54 2.24c4.18-.83 8.29-2.01 12.5-2.66 6.24.83 12.6.87 18.71 2.52-1.51 1.48-3.12 2.91-5.08 3.77-2.43-.59-4.88-1.26-7.39-1.22-1.82 1.9-2.27 4.64-3.2 7.02l-1.23-.65c.52-2.52 3.2-6.12 0-7.8-1.61-1.33-3.53-.78-4.89.57-.67.55-1.32 1.13-1.97 1.71l-2.03-2.95c-1.61.35-3.22.72-4.82 1.13-2.28.54-4.53 1.2-6.79 1.83-1.3 4.65-.91 9.64 1.58 13.84l2.78 5.16c-2.04-1.41-3.99-2.95-5.85-4.57-.45-4.55-.92-9.1-1.1-13.67-4.04.93-8.29 1.6-11.84 3.9l-2.94 1.86-.05-2.55-4.44-1.38 1.08-1.27 6.81-.64m35.4-4.6c2.89.49 6.03 1.26 8.77-.21-2.88-.48-6.01-1.14-8.77.21z"/><path fill="#979497" d="M209.62 162.2a18.38 18.38 0 0 1 8.48-2.73l-2.43 5.07c-2.93 4.65-4.9 10.23-3.48 15.74 2.58.39 5.17.82 7.71 1.45.67 4.57 4.7 7.02 7.67 10.03 1.57 3.46.45 7.59-1.47 10.7l-1.27-5.08c-2.54 2.99-3.4 7.32-6.98 9.37l-.98-2.93-3.19-1.1 6.53-5.12 2.37 1.64.14-6.78c-3.28-.37-6.56-.82-9.77-1.55-.99 1.79-1.94 3.61-2.86 5.44l-1.41-6.17-2.13-.56c.19 1.58.62 3.18.46 4.78-1.18 1.59-2.75 2.83-4.2 4.18 1.95.21 3.91.41 5.84.81l2.51.36h.84l-.18 2.89c-2.56 3.96-5.9 7.55-10.71 8.54-1.43-2.23-2.57-4.63-3.22-7.2 1.19-.26 2.89-.67 3.09-2.12-.72-1.59-2.77-.01-3.46.85l-1.38-1.99c1.82 1.75 2.22-2.08.07-.83.41-4.55 1.13-9.1 2.35-13.51.87-2.97 4.75-2.68 7.23-2.86 3.86-.4 5.93 3.94 9.75 3.89-1.37-3.66-4.87-5.21-8.25-6.46-3.04-.98-3.43-4.56-4.67-7.05 1.74-4.23 3.86-8.33 7-11.7m-4.54 14.58c1.41.1 2.83.15 4.25.12.57-4.52 2.13-8.81 3.25-13.21-4.41 2.98-6.7 7.96-7.5 13.09m-4.97 13.7c-.91 1.17-.67 1.84.74 2 .91-1.17.66-1.84-.74-2m3.46 16.66c.15 1.42.8 1.67 1.96.75-.16-1.43-.81-1.68-1.96-.75z"/><path fill="#b7b1b5" d="M239.11 159.47c1.18-1.14 2.47 1 1.31 1.84-1.17 1.15-2.49-1.01-1.31-1.84z"/><path fill="#bfbabb" opacity=".98" d="M171.62 160.61c2.76-1.35 5.89-.69 8.77-.21-2.74 1.47-5.88.7-8.77.21z"/><path fill="#482e1e" d="M187.59 161.12c1.45-.25 2.88-.6 4.29-1.02l-3.82 3.72-4.8 2.78-3.39 2.57c-1.7 2.8-3.08 5.78-4.19 8.85l-.17.79c-.67 3.7-1.08 7.45-1.25 11.2l-.04 1.57c-1.42 4.24-3.36 8.29-5.39 12.27-1.75-1.41-3.47-2.88-4.68-4.78-1.41-4.33-1.31-9.2 1.69-12.85.93-1.77 1.6-3.66 2.08-5.6l.85-3.77 5.34-.21c.61-2.61.48-5.48 1.77-7.89 1.73-1.95 4.39-2.66 6.63-3.86 1.96-.86 3.57-2.29 5.08-3.77z"/><path fill="#5d5a5e" d="M247.34 160.14c.9 1.83 1.89 3.62 3.05 5.3l1.38.14 3.94.42c-.9 4.02-.93 8.14-.77 12.23-1.52-1.96-3-3.94-4.42-5.96a151.95 151.95 0 0 1-.8 6.72l-3.06-3.89c1.69 3.61 3.22 7.29 4.24 11.16-1.31-1.1-2.6-2.21-3.83-3.39-1.11-1.12-2.19-2.27-3.26-3.43l2.18-2.67c-1.99-2.49-4.09-4.87-6.16-7.29l7.35.95c-.22-1.82-.45-3.65-.54-5.48l.44-3.1.26-1.71z"/><path fill="#a19692" d="M156.98 162.7l4.82-1.13 2.03 2.95 1.97-1.71c.2 3.67.38 7.47-1.16 10.92-1.96 3.48-1.32 7.54-1.42 11.35-7.84.03-15.59-1.52-23.44-1.35-3.71-.18-7.44-.32-11.16-.06l.89-.3 1.91-.54a48.88 48.88 0 0 1 4.67-.46l11.96.08c-1.02-.49-2.05-.97-3.1-1.4l3.75-2.09c1.86 1.62 3.81 3.16 5.85 4.57l-2.78-5.16c3.15 1.32 6.36 2.52 9.61 3.58 1.66-6.26.66-12.75.48-19.12l-4.88-.13z"/><path fill="#d2c7c2" d="M150.19 164.53l6.79-1.83 4.88.13c.18 6.37 1.18 12.86-.48 19.12-3.25-1.06-6.46-2.26-9.61-3.58-2.49-4.2-2.88-9.19-1.58-13.84z"/><path fill="#61453b" d="M108.89 175.99c-2.21-6.38 4.86-10.8 10.29-11.4 5.69.02 11.33 1.72 17.04.62-2.27.26-4.54.45-6.81.64-1.93.01-3.85-.02-5.77-.04l-.02 1.9-3.58 3.09c-3.6-.37-7.23-.15-10.78.54-.15 1.55-.29 3.1-.37 4.65z"/><path fill="#b4aba4" d="M171.92 170.69c.93-2.38 1.38-5.12 3.2-7.02 2.51-.04 4.96.63 7.39 1.22-2.24 1.2-4.9 1.91-6.63 3.86-1.29 2.41-1.16 5.28-1.77 7.89l-5.34.21c.48-2.32 1.12-4.59 1.92-6.81l1.23.65z"/><path fill="#6f5e59" d="M183.26 166.6l4.8-2.78-2.91 9.06c-1.91 4.5-2.7 9.4-2.37 14.27-.36-2.6-.97-5.15-1.57-7.69l-.25-1.13c-.97 1.23-2.09 2.39-2.74 3.84.36 1.48 1.07 2.85 1.71 4.23-.51 2.1-2.05 3.65-3.79 4.82.23-1.31-.25-2.59-.76-3.76a24.04 24.04 0 0 0-1.12 2.55c.17-3.75.58-7.5 1.25-11.2.78 2.91 3.56.5 2.64-1.54-.52-1.5-1.97.12-2.47.75 1.11-3.07 2.49-6.05 4.19-8.85l.38 3.52 2.99.61a136.09 136.09 0 0 0 .02-6.7z"/><path fill="#393b3b" d="M215.67 164.54l2.26-.35 1.36 4.75c2.76-2.19 6.21-2.65 9.6-2.04-.48 2.97-1.52 5.82-2.84 8.52l-4.6 4.44 5.57 2.97 1.74 3.17c-2.74-1.83-5.64-3.5-8.86-4.27-2.54-.63-5.13-1.06-7.71-1.45-1.42-5.51.55-11.09 3.48-15.74z"/><path fill="#222327" d="M253.19 164.54l6.68-.39 2.62 6.35c2.02.28 4.37-.33 6.14.84 2.07 3.92 2.28 8.64 4.79 12.35 1.44 1.18 3.33 1.58 5.06 2.16 9.29 2.57 18.43 5.67 27.82 7.84 1.56 5.22 2.59 10.66 2.1 16.14-.77.75-1.53 1.52-2.28 2.31.34-5.84.6-12-1.71-17.51-1.78-1.66-4.37-1.98-6.6-2.74-7.92-2.02-15.6-4.87-23.57-6.68 1.71 6.94 4.7 13.45 7.12 20.14l.11 3.4-1.76.09-2.58.08-3.03-8.2 3.2-.66c-.71-2.61-1.51-5.2-2.33-7.77-1.88 1.03-3.96 1.85-6.08 1l.31-.91c1.18-1.33 2.45-2.58 3.73-3.83-.92-3.68-2.26-7.23-3.87-10.65l-3.26 3.37-4.04-6.15-3.53 1.96c2.12 6.25 5.15 12.21 6.43 18.72.96 6.78 4.41 12.83 8.27 18.36-.22-2.34-.5-4.68-.42-7.03.06-.41.2-1.24.27-1.66.82 1.71 1.7 3.39 2.56 5.09l1.98-.81.39 2.57a80.81 80.81 0 0 1-1.58.9l-2.75 1.43-.42 4.26c-1.01-2.51-2.24-4.91-3.62-7.23-.39 1.57-.55 3.2-.2 4.8-3.52-.59-3.6-5.36-5.22-7.92l-3.24-.48-.79-2.34c-1.09-5.1-5.53-8.02-9.9-10.17 1.16-2.47 2.43-4.89 3.77-7.26l4.26 5.85c-.89-3.58-2.18-7.04-3.81-10.35-.98 3.74-2.93 7.09-4.8 10.44-1.25-3.68-2.02-7.5-2.34-11.38 1.23 1.18 2.52 2.29 3.83 3.39-1.02-3.87-2.55-7.55-4.24-11.16l3.06 3.89a151.95 151.95 0 0 0 .8-6.72c1.42 2.02 2.9 4 4.42 5.96-.16-4.09-.13-8.21.77-12.23l-3.94-.42 1.42-1.04m3.07 18.92c.9 3.77 2.39 7.42 4.56 10.65-.78-3.78-1.4-8.06-4.56-10.65m2.55 13.27c-.1 3.27.43 7.58 4.03 8.8-.87-3.11-1.54-6.53-4.03-8.8m18.67 6.86c-.83 1.06.03 3.03 1.39 3.09 1.81-.58.23-4.04-1.39-3.09m-11.19 4.7c-1 .97-.56 3.15.9 3.4 2.1-.25 1.08-4.5-.9-3.4z"/><path fill="#cdc2bd" d="M135.76 169.19c3.55-2.3 7.8-2.97 11.84-3.9.18 4.57.65 9.12 1.1 13.67l-3.75 2.09c-2.8-.57-5.64-1.23-8.03-2.89-.16-3.02-.56-6.01-1.16-8.97z"/><path fill="#766d6f" d="M123.64 165.81l5.77.04-1.08 1.27c-1.72 2.25-4.11 4.66-3.6 7.76.61 1.76 2.08 3.03 3.29 4.39l3.4 3.56-1.91.54c-1.74-.02-3.48-.12-5.21-.34l-.85-2.89c-.59-4.13.08-8.29.17-12.43l.02-1.9z"/><path fill="#978c86" d="M179.87 169.17l3.39-2.57-.02 6.7-2.99-.61-.38-3.52z"/><path d="M120.04 170.8l3.58-3.09c-.09 4.14-.76 8.3-.17 12.43l-1.03-.16-1.2-2.27c-.52-2.28-.85-4.6-1.18-6.91zm56.09 31.93l.75.44c1.43 1.94 2.51 4.1 3.68 6.2l-5.94.94 1.51-7.58z" fill="#c9bcb3"/><path fill="#d1c6c2" d="M124.73 174.88c-.51-3.1 1.88-5.51 3.6-7.76l4.44 1.38.05 2.55-.02 7.35-4.78.87c-1.21-1.36-2.68-2.63-3.29-4.39z"/><path opacity=".76" d="M229.05 174.65l2.68-5.77c4.46 2.99 8.6 6.45 12.08 10.56l3.26 3.43c.32 3.88 1.09 7.7 2.34 11.38-1.67 3.32-3.23 6.69-4.73 10.08-.97-1.63-1.94-3.27-2.82-4.95-.99-2.32-1.82-4.7-2.92-6.96-1.77-2.69-4.3-4.72-6.73-6.76l-1.31-1.15-.01-.74c-.14-3.12-.9-6.16-1.84-9.12z"/><path fill="#a0807a" d="M109.26 171.34c3.55-.69 7.18-.91 10.78-.54.33 2.31.66 4.63 1.18 6.91-3.38-.7-6.72-1.61-9.87-3.01l-1.67 3.98-.79-2.69c.08-1.55.22-3.1.37-4.65z"/><path fill="#9b8983" d="M132.82 171.05l2.94-1.86c.6 2.96 1 5.95 1.16 8.97l-1.8-.62-1.63 4.3 2.6.53-4.67.46-3.4-3.56 4.78-.87.02-7.35z"/><path fill="#de9b7b" d="M185.15 172.88c3.01 2.76 6.46 4.96 10.19 6.61l-1.5 3.3c-2.44 4.83-5.08 9.97-4.28 15.57-.55 1.72 1.4 4.84 2.24 1.8-.35 2.68-.86 5.33-1.34 7.99-1.64-1.3-3.47-2.3-5.24-3.37a36.61 36.61 0 0 1-3.92-5.74c-.73-2.21-1.24-4.49-1.72-6.76 1.12-.9 2.27-1.77 3.41-2.65l-.21-2.48c-.33-4.87.46-9.77 2.37-14.27z"/><path fill="#69483f" d="M111.35 174.7c3.15 1.4 6.49 2.31 9.87 3.01l1.2 2.27c-3.34-.05-7.33-1.4-10.1 1.15-.95-.74-1.82-1.57-2.64-2.45l1.67-3.98z"/><path fill="#776c68" d="M163.22 185.08c.1-3.81-.54-7.87 1.42-11.35.49 2.54 1.65 4.88 3.28 6.89-.48 1.94-1.15 3.83-2.08 5.6-8.7-.67-17.41-1.28-26.06-2.49 7.85-.17 15.6 1.38 23.44 1.35z"/><path fill="#767275" d="M200.47 176.51l2.15-2.61c1.24 2.49 1.63 6.07 4.67 7.05 3.38 1.25 6.88 2.8 8.25 6.46-3.82.05-5.89-4.29-9.75-3.89-2.48.18-6.36-.11-7.23 2.86-1.22 4.41-1.94 8.96-2.35 13.51l-.07.83 1.38 1.99.37 1.27c.65 2.57 1.79 4.97 3.22 7.2 4.81-.99 8.15-4.58 10.71-8.54l1.86.08c1.07.35 2.13.72 3.19 1.1l.98 2.93c3.58-2.05 4.44-6.38 6.98-9.37l1.27 5.08c1.92-3.11 3.04-7.24 1.47-10.7-2.97-3.01-7-5.46-7.67-10.03 3.22.77 6.12 2.44 8.86 4.27l-1.74-3.17c1.28.35 2.57.64 3.87.94l.01.74c-.94 1.14-1.94 2.23-2.93 3.33 1.14 1.31 2.29 2.62 3.37 3.99-.25 4.2-.62 8.39-.64 12.6 1.49-2.3 2.89-4.66 4.12-7.11 1.86-4.07-.85-8.1-2.61-11.66 2.43 2.04 4.96 4.07 6.73 6.76-1.43 2.5-2.04 5.33-2.5 8.15-.47 3.44-2.68 6.24-4.37 9.17l3.18.25c-1.87 1.79-3.91 3.39-5.82 5.13l-3.95 1.14a131.19 131.19 0 0 1 3.02-6.48c-4.95 3.35-10.58 5.67-16.61 5.9-.34 2.64-.34 5.31.03 7.95l6.12-3.5c-.78 1.96-1.6 3.92-2.27 5.92.31 2.51.55 5.06 1.42 7.45l-.96-.07c-5.17-3.49-6.86-9.68-8.35-15.35l-2.66.54c-1.2 1.01-2.31 2.13-3.41 3.26-.56-.92-1.15-1.81-1.73-2.7l-4.47.81-.73-.4c0-1.8.03-3.61.22-5.4l1.86-.66c-1.58-1.2-3.18-2.38-4.8-3.53l-1.7-1.85c.48-2.66.99-5.31 1.34-7.99-.24-1.18-.98-1.78-2.24-1.8-.8-5.6 1.84-10.74 4.28-15.57l.31 2.04c2.41-1.45 4.67-3.14 6.8-4.99l-.48-3.33m4.21 37.67c.95 1 1.91 2.02 3.11 2.74a23.65 23.65 0 0 0 1.65-2.95 94.18 94.18 0 0 0-4.76.21z"/><path fill="#b68267" d="M226.05 175.42l3-.77c.94 2.96 1.7 6 1.84 9.12l-3.87-.94c-1.91-.88-3.74-1.93-5.57-2.97l4.6-4.44z"/><path fill="#a1a2a5" d="M258.23 177.08l3.53-1.96 4.04 6.15c1.65 3.52 2.74 7.28 3.4 11.11l-.31.91-1.62 4.62-2.61-2.11c-1.28-6.51-4.31-12.47-6.43-18.72m4.82 4.61c.58 3.53 1.79 6.9 2.94 10.28l2.11-1.04c-1.01-3.4-2.06-7.02-5.05-9.24z"/><path fill="#aa9c95" d="M175.68 178.02c.5-.63 1.95-2.25 2.47-.75.92 2.04-1.86 4.45-2.64 1.54l.17-.79z"/><path fill="#5d5654" d="M135.12 177.54l1.8.62c2.39 1.66 5.23 2.32 8.03 2.89l3.1 1.4c-3.99.01-7.97 0-11.96-.08l-2.6-.53a74.38 74.38 0 0 1 1.63-4.3z"/><path fill="#545459" d="M265.8 181.27l3.26-3.37c1.61 3.42 2.95 6.97 3.87 10.65-1.28 1.25-2.55 2.5-3.73 3.83-.66-3.83-1.75-7.59-3.4-11.11z"/><path fill="#39302b" opacity=".94" d="M112.32 181.13c2.77-2.55 6.76-1.2 10.1-1.15l1.03.16c.25.97.55 1.93.85 2.89-3.93-.98-7.95-1.51-11.98-1.9z"/><path fill="#988983" d="M178.22 182.17c.65-1.45 1.77-2.61 2.74-3.84l.25 1.13c-.29 2.34-.72 4.65-1.28 6.94-.64-1.38-1.35-2.75-1.71-4.23z"/><path fill="#4a3a36" d="M181.21 179.46l1.57 7.69.21 2.48-3.41 2.65c-1.22 1.67-2.08 3.55-2.98 5.4l-1.91-5.63 1.45-.83c1.74-1.17 3.28-2.72 3.79-4.82.56-2.29.99-4.6 1.28-6.94z"/><path d="M263.05 181.69c2.99 2.22 4.04 5.84 5.05 9.24l-2.11 1.04c-1.15-3.38-2.36-6.75-2.94-10.28zm43.07 30.45l2.28-2.31c-.46 5.82-1.96 11.63-4.85 16.74-3.87 7.14-10.42 12.3-17.34 16.29-.43 1.61-.92 3.23-1.73 4.7-2.18-3.45-3.82-7.21-4.86-11.15l2.57-1.7c.85 1.39 1.8 2.71 2.76 4.04 11.83-3.44 18.45-15.35 21.17-26.61z" fill="#272931"/><path d="M256.26 183.46c3.16 2.59 3.78 6.87 4.56 10.65-2.17-3.23-3.66-6.88-4.56-10.65zm-74.96 15.58a36.61 36.61 0 0 0 3.92 5.74c1.67 2.49 4.29 3.98 6.94 5.22l4.8 3.53-1.86.66c-3.17-1.46-6.15-3.31-9.16-5.06l-3.09 2.96c-.82-.87-1.58-1.77-2.29-2.72-1.17-2.1-2.25-4.26-3.68-6.2l2.67-.58 1.75-3.55z" fill="#837f85"/><path fill="#9a9897" d="M227.97 187.84l2.93-3.33 1.31 1.15c1.76 3.56 4.47 7.59 2.61 11.66-1.12-1.86-2.21-3.73-3.48-5.49-1.08-1.37-2.23-2.68-3.37-3.99z"/><path fill="#b6a9a2" d="M175.38 187.46c.51 1.17.99 2.45.76 3.76l-1.45.83-.47-.47.04-1.57a24.04 24.04 0 0 1 1.12-2.55z"/><path fill="#f3eeeb" d="M200.11 190.48c1.4.16 1.65.83.74 2-1.41-.16-1.65-.83-.74-2z"/><path d="M206.55 189.62l2.13.56 1.41 6.17 2.86-5.44c3.21.73 6.49 1.18 9.77 1.55l-.14 6.78-2.37-1.64c-2.26-1.77-5.13-2.22-7.91-2.41l-.3 4.56h-.84c1.73-2.88-3.26-3.63-2.51-.36-1.93-.4-3.89-.6-5.84-.81 1.45-1.35 3.02-2.59 4.2-4.18.16-1.6-.27-3.2-.46-4.78zm61.98 14.28l4.24-1.87.01 3.44-.27 1.66-3.98-3.23z" fill="#b7b5b9"/><path fill="#71676a" d="M174.22 191.58l.47.47c.75 1.84 1.33 3.74 1.91 5.63.9-1.85 1.76-3.73 2.98-5.4l1.72 6.76-1.75 3.55-2.67.58-.75-.44-3.41-1.78.22 3.05c-2.33.13-4.65.42-6.92.95l-1.72.36-4.24.9 4.65-2.34-.56-4.8c1.21 1.9 2.93 3.37 4.68 4.78 2.03-3.98 3.97-8.03 5.39-12.27z"/><path fill="#444041" d="M231.34 191.83c1.27 1.76 2.36 3.63 3.48 5.49-1.23 2.45-2.63 4.81-4.12 7.11.02-4.21.39-8.4.64-12.6z"/><path fill="#4c4d53" d="M268.89 193.29c2.12.85 4.2.03 6.08-1l2.33 7.77-3.2.66 3.03 8.2.19.83-1.98.81-2.56-5.09-.01-3.44-4.24 1.87 3.98 3.23c-.08 2.35.2 4.69.42 7.03-3.86-5.53-7.31-11.58-8.27-18.36l2.61 2.11 1.62-4.62z"/><path d="M238.94 192.42c1.1 2.26 1.93 4.64 2.92 6.96-2.13 3.57-4.24 7.18-6.61 10.61l-3.18-.25c1.69-2.93 3.9-5.73 4.37-9.17.46-2.82 1.07-5.65 2.5-8.15zm30.2 24.06c-.35-1.6-.19-3.23.2-4.8 1.38 2.32 2.61 4.72 3.62 7.23 2.08 5.89 5.01 11.46 6.66 17.5 1.04 3.94 2.68 7.7 4.86 11.15a85.59 85.59 0 0 1-3.18.09c-1.17-4.03-2.57-7.99-4.08-11.9-2.58-6.47-4.64-13.19-8.08-19.27z" fill="#615e5f"/><path fill="#030304" opacity=".57" d="M280.43 192.47c3.26 4.47 3.23 10.27 2.67 15.54-.58 5.33-3.37 10.02-5.33 14.91l-1.2-3.37c2.17-3.16 3.38-6.86 3.14-10.71l1.76-.09-.11-3.4c.17-4.32-.45-8.6-.93-12.88z"/><path fill="#f1eaee" d="M212.3 195.19c2.78.19 5.65.64 7.91 2.41l-6.53 5.12-1.86-.08.18-2.89.3-4.56z"/><path opacity=".75" d="M249.99 195.57c4.37 2.15 8.81 5.07 9.9 10.17l-3.98 3.4c2.21 6.61 4.8 13.09 7.28 19.61 1.78-.53 3.55-1.11 5.3-1.75l-.48-2.96a51.65 51.65 0 0 1 2.06 5.26c-3.04.58-5.14 2.83-6.8 5.28-3.43.13-6.85.53-10.18 1.41-5.34 1.35-10.86.61-16.29.61a69.5 69.5 0 0 1-1.35-2.14c4.52 1.05 9.24 2.05 13.86 1.02 3.4-.6 6.29-2.59 9.06-4.54-5.91-7.48-8.3-16.9-13.84-24.62 2.1-3.44 3.78-7.1 5.46-10.75z"/><path fill="#f2edeb" d="M208.65 199.39c-.75-3.27 4.24-2.52 2.51.36l-2.51-.36z"/><path fill="#64656a" d="M258.81 196.73c2.49 2.27 3.16 5.69 4.03 8.8-3.6-1.22-4.13-5.53-4.03-8.8z"/><path fill="#f2ece6" d="M189.56 198.36c1.26.02 2 .62 2.24 1.8-.84 3.04-2.79-.08-2.24-1.8z"/><path fill="#fffffb" d="M196.21 199.89c2.15-1.25 1.75 2.58-.07.83l.07-.83z"/><path fill="#fefbfa" d="M172.72 200.95l3.41 1.78-1.51 7.58 5.94-.94c.71.95 1.47 1.85 2.29 2.72 3.97 2.56 8 5.03 12.03 7.5l.73.4 2.08 1.22-3.85 5.69 5.37-3.65c-.38 4.54-2.92 8.28-6.56 10.87l3.46.68c-2.06.75-4.11 1.5-6.21 2.13-3.19.27-6.54-.11-9.57 1.1l.59 2.06c2.81.56 5.71.42 8.55.09 1.68.11 3.05 1.05 4.31 2.09-2.6 2.19-5.72 3.7-9.15 3.94-3.53-.41-7.21-.19-10.6-1.36-2.98-1.96-4.54-5.38-6.77-8.06-.95-3.04-1.53-6.2-1.25-9.39l.48-2.89 2.31.14c1.05 4.29 1.64 9.15 5.19 12.21 1.83-.46 3.99-1.15 4.51-3.23.28-2.07-.54-4.08-.94-6.08l-3.25 4.11c-1.35-3.44-3.74-6.63-4.12-10.37 1.13-3.48 2.86-6.75 3.86-10.29-1.65 1.9-3.37 3.74-5.33 5.32 1.77-3.95 3.76-7.95 4.22-12.32l-.22-3.05z"/><path fill="#d7cfcc" d="M197.52 202.71c.69-.86 2.74-2.44 3.46-.85-.2 1.45-1.9 1.86-3.09 2.12l-.37-1.27z"/><path fill="#5f6066" d="M277.48 203.59c1.62-.95 3.2 2.51 1.39 3.09-1.36-.06-2.22-2.03-1.39-3.09z"/><path fill="#b4b0b6" d="M164.3 205.31l1.72-.36 4.05.31c-.3 2.8-1.52 5.32-3.79 7.04l-1.98-6.99z"/><path d="M185.22 204.78l5.24 3.37 1.7 1.85c-2.65-1.24-5.27-2.73-6.94-5.22zm40.26 11.48l3.95-1.14c-1.34 1.77-2.7 3.57-4.51 4.88l-1.28.26 1.84-4zm-20.26 2.36l2.66-.54c1.49 5.67 3.18 11.86 8.35 15.35-3.75.43-6.11-2.89-8.11-5.51-2.06-2.65-2.38-6.1-2.9-9.3z" fill="#f2edef"/><path fill="#b9b4ba" d="M152.36 220.64c1.93-5.56 5.84-10.07 10.43-13.63l.44 6.35-2.89-.86c-.4 1.51-.79 3.02-1.26 4.5l-1.01 2.17-1.8 1.22c-1.3.11-2.61.18-3.91.25z"/><path fill="#e0d9dd" d="M203.57 207.14c1.15-.93 1.8-.68 1.96.75-1.16.92-1.81.67-1.96-.75z"/><path fill="#44464b" d="M260.68 208.08l3.24.48c1.62 2.56 1.7 7.33 5.22 7.92 3.44 6.08 5.5 12.8 8.08 19.27l-2.51 1.63c-2.43-2.11-3.84-5.01-4.64-8.08a51.65 51.65 0 0 0-2.06-5.26c-2.73-5.19-5.83-10.22-7.33-15.96z"/><path fill="#616369" d="M266.29 208.29c1.98-1.1 3 3.15.9 3.4-1.46-.25-1.9-2.43-.9-3.4z"/><path fill="#bdb7b9" d="M182.85 212.09l3.09-2.96c3.01 1.75 5.99 3.6 9.16 5.06-.19 1.79-.22 3.6-.22 5.4l-12.03-7.5z"/><path fill="#5d5856" d="M211.89 215.68c6.03-.23 11.66-2.55 16.61-5.9a131.19 131.19 0 0 0-3.02 6.48l-1.84 4a58.03 58.03 0 0 0 1.28-.26l-1.43 1.09-7.72 4.96c.67-2 1.49-3.96 2.27-5.92l-6.12 3.5c-.37-2.64-.37-5.31-.03-7.95z"/><path fill="#baafa5" d="M168.72 216.32c1.96-1.58 3.68-3.42 5.33-5.32-1 3.54-2.73 6.81-3.86 10.29.38 3.74 2.77 6.93 4.12 10.37.03 1.74-.16 3.47-.32 5.2-3.55-3.06-4.14-7.92-5.19-12.21l-2.31-.14c.41-2.64.97-5.26 1.79-7.8l.44-.39z"/><path fill="#f5f3f1" d="M204.68 214.18l4.76-.21a23.65 23.65 0 0 1-1.65 2.95c-1.2-.72-2.16-1.74-3.11-2.74z"/><path fill="#474649" opacity=".73" d="M150.57 226.18c-.78-3.76-.98-7.91 1.23-11.25-.78 3.69-1.16 7.47-1.23 11.25z"/><path fill="#59565a" opacity=".87" d="M159.08 217c3.02-.69 6.18-1.3 9.2-.29-.82 2.54-1.38 5.16-1.79 7.8l-.48 2.89-1.06-.67.96-7.01c.23-1.5-.39-2.14-1.84-1.92l-6 1.37 1.01-2.17z"/><path fill="#0d0c0d" opacity=".61" d="M164.07 217.8c1.45-.22 2.07.42 1.84 1.92-1.3.03-1.92-.61-1.84-1.92z"/><path fill="#cfc4be" d="M195.61 219.99l4.47-.81 1.73 2.7c.68 1.72 1.47 3.47 1.56 5.34-.32 2.4-1.61 4.53-2.59 6.71-1.38 3.35-3.88 6-6.65 8.26l-.35.08c-1.26-1.04-2.63-1.98-4.31-2.09 1.87-.62 3.69-1.35 5.53-2.06-1.7-.42-3.4-.85-5.1-1.19 2.1-.63 4.15-1.38 6.21-2.13l-3.46-.68c3.64-2.59 6.18-6.33 6.56-10.87l-5.37 3.65 3.85-5.69-2.08-1.22z"/><path fill="#8d898e" d="M201.81 221.88l3.41-3.26c.52 3.2.84 6.65 2.9 9.3 2 2.62 4.36 5.94 8.11 5.51l.96.07-2.57 3.27 2.03 2.77-4.26.26.84 6.33-1.17 2.88-.98 2.18c-2.2 1.9-4.43 3.86-7.1 5.07-2.5.35-5-.11-7.43-.66 2.6-1.86 5.54-3.21 8.01-5.27 1.59-5.76-.33-11.73-3.78-16.4.98-2.18 2.27-4.31 2.59-6.71-.09-1.87-.88-3.62-1.56-5.34m5.2 17.1c1.78.31 3.59.41 5.39.19l-2.37-3.74c-1.06 1.14-2.07 2.32-3.02 3.55m1.17 5.11c-.54 1.62.01 2.18 1.64 1.69.54-1.63-.01-2.19-1.64-1.69z"/><path fill="#303132" opacity=".36" d="M231.06 230.59c2.01-3.36 3.91-6.79 6.16-10-1.03 3.56-2.38 7.02-3.76 10.46l-2.4-.46z"/><path fill="#4b4747" opacity=".73" d="M154.89 231.01c-.49-2.92-.81-5.94-.17-8.86l.83 9.41-.66-.55z"/><path fill="#9a949a" d="M164.95 226.73l1.06.67c-.28 3.19.3 6.35 1.25 9.39-.16 4.53 3.05 8.31 7.09 10 3.24 1.32 7.58 2.35 10.28-.58 3.43-.24 6.55-1.75 9.15-3.94l.35-.08c2.89-.41 5.58-1.54 8.16-2.86-2.49 2.94-5.52 5.39-8.96 7.14-4.23 2.25-8.9 3.32-13.44 4.68-2.67.82-5.33-.14-7.83-1.03-2.07-2.96-4.6-5.65-6.11-8.97-1.47-3.96-1.35-8.28-1.32-12.44l.32-1.98z"/><path fill="#dcd5d2" d="M174.31 231.66l3.25-4.11c.4 2 1.22 4.01.94 6.08-.52 2.08-2.68 2.77-4.51 3.23l.32-5.2z"/><path fill="#755746" d="M161.5 243.4c-1.31-5.09-.02-10.52 3.13-14.69-.03 4.16-.15 8.48 1.32 12.44 1.51 3.32 4.04 6.01 6.11 8.97-3.86-1.53-8.19-3.1-10.56-6.72z"/><path fill="#2b3039" d="M231.06 230.59l2.4.46 1.99 3.41 1.35 2.14c5.88 8.93 17.21 14.52 27.87 12.1 4.98-.67 9.11-3.68 12.92-6.74-.89-1.57-1.75-3.16-2.88-4.58l2.51-1.63c1.51 3.91 2.91 7.87 4.08 11.9-6.35-.46-11.99 3.27-18.26 3.45-6.2.18-12.49-1.31-17.9-4.35-6.41-3.59-10.81-9.74-14.08-16.16z"/><path fill="#635f5e" d="M217.19 233.5l3.35 4.29-.25 4.86-5.16-1.36-1.9 4.84-.84-6.33 4.26-.26-2.03-2.77 2.57-3.27z"/><path fill="#605957" d="M200.78 233.93c3.45 4.67 5.37 10.64 3.78 16.4l-.33-6.24c-3.62.86-7.27 1.57-10.9 2.38 3.44-1.75 6.47-4.2 8.96-7.14-2.58 1.32-5.27 2.45-8.16 2.86 2.77-2.26 5.27-4.91 6.65-8.26z"/><path fill="#b3adb4" d="M207.01 238.98l3.02-3.55 2.37 3.74c-1.8.22-3.61.12-5.39-.19z"/><path fill="#7b797e" d="M174.35 246.79c-4.04-1.69-7.25-5.47-7.09-10 2.23 2.68 3.79 6.1 6.77 8.06 3.39 1.17 7.07.95 10.6 1.36-2.7 2.93-7.04 1.9-10.28.58z"/><path fill="#a89687" d="M180.33 238.03c3.03-1.21 6.38-.83 9.57-1.1l5.1 1.19-5.53 2.06c-2.84.33-5.74.47-8.55-.09l-.59-2.06z"/><path fill="#c8c2c8" d="M208.18 244.09c1.63-.5 2.18.06 1.64 1.69-1.63.49-2.18-.07-1.64-1.69z"/><path fill="#3c393b" opacity=".69" d="M211.08 251.19l.98-2.18-.98 2.18z"/></svg>