<svg xmlns="http://www.w3.org/2000/svg" width="512" height="512" viewBox="0 0 384 384" xmlns:v="https://vecta.io/nano"><path fill="#1a1b21" d="M198.02 123.9c3.8-2.34 8.64-1.02 12.56.33 6.08 5.01 9.84 12.22 15.64 17.51 1.82 1.76 4.48 1.63 6.82 1.88-2.43.39-4.88.54-7.33.61l4.33 5-4.4 2.11c-.03-2.55-.4-5.16-1.58-7.45-1.36-1.89-3.31-3.23-5.06-4.72-1.95-3.1-4.76-5.46-7.81-7.43-.81-3.82-4.81-4.64-8-5.59a92.86 92.86 0 0 0-1.17 3.17c-1.5-1.69-2.79-3.53-4-5.42z"/><path fill="#3a373b" d="M203.19 126.15c3.19.95 7.19 1.77 8 5.59l-3.44 1.03-.71.12-2.71-2.19-1.36 1.27-.95.03v-2.68l1.17-3.17z"/><path fill="#9f9593" d="M202.97 131.97l1.36-1.27 2.71 2.19.64 7.24-2.51-.12c-.45-2.43-1-4.85-1.88-7.16l-.32-.88z"/><path fill="#332017" opacity=".38" d="M190.82 133.77c3.29-2.23 7.46-1.5 11.2-1.77l.95-.03.32.88c-4.16.24-8.35.17-12.47.92z"/><path fill="#131313" opacity=".46" d="M207.75 132.77l3.44-1.03c3.05 1.97 5.86 4.33 7.81 7.43-1.43-.69-2.88-1.33-4.29-2.06-1.92-2.02-4.43-3.28-6.96-4.34z"/><path fill="#e6a27e" d="M190.82 133.77c4.12-.75 8.31-.68 12.47-.92.88 2.31 1.43 4.73 1.88 7.16l-1.01-.08a75.22 75.22 0 0 0-2.64-.97c-1.13-1.45-2.18-3.36-4.22-3.55-3.55-1.11-6.59 1.42-9.46 3.08l-.01-1.44c.75-1.29 1.79-2.39 2.99-3.28z"/><path fill="#7b7676" d="M207.04 132.89l.71-.12c2.53 1.06 5.04 2.32 6.96 4.34.94 2.62 2.55 4.9 4.05 7.22.33 2.65-1.8 4.64-3.49 6.38-1.19-3.27-4.08-5.2-6.87-6.99l-4.24-3.79 1.01.08 2.51.12-.64-7.24m6.25 6.63c-.9 1.18-.65 1.85.74 2.03.9-1.18.66-1.85-.74-2.03z"/><path fill="#91705f" d="M187.84 138.49c2.87-1.66 5.91-4.19 9.46-3.08 2.04.19 3.09 2.1 4.22 3.55-7.11-.1-14.86 2.97-17.48 10.1l1.66-.27c-.88 1.02-1.71 2.08-2.57 3.12l.22 2.18c.01 2.78-.93 5.43-2.16 7.89l-1.04.29c.56-3.11 1.52-6.15 1.82-9.3.49-5.72 3.15-10.96 5.86-15.92l.01 1.44z"/><path fill="#625d5c" d="M214.71 137.11l4.29 2.06c1.75 1.49 3.7 2.83 5.06 4.72 1.18 2.29 1.55 4.9 1.58 7.45-.38 3 1.71 5.32 3.28 7.63l-1.96.26-7.97-3.94-.47 2.81-.44-.76c-1.86-2.25-4.76-2.75-7.5-2.16l4.69-4.47c1.69-1.74 3.82-3.73 3.49-6.38-1.5-2.32-3.11-4.6-4.05-7.22z"/><path fill="#3b3d3b" d="M184.04 149.06c2.62-7.13 10.37-10.2 17.48-10.1a75.22 75.22 0 0 1 2.64.97c1.42 1.26 2.78 2.58 4.24 3.79-7.85-2.06-16.14.71-22.7 5.07-.41.06-1.24.2-1.66.27z"/><path fill="#dcd7d3" d="M213.29 139.52c1.4.18 1.64.85.74 2.03-1.39-.18-1.64-.85-.74-2.03z"/><path fill="#2e3237" d="M235.44 141.23l.71.78-2.11 7.41c-2.18 1.03-4.19 2.37-6 3.96l4.97 1.83-2.23 5.37-2.88-.16-.94-1.19 1.96-.26c-1.57-2.31-3.66-4.63-3.28-7.63l4.4-2.11-4.33-5c2.45-.07 4.9-.22 7.33-.61l2.4-2.39z"/><path fill="#b7a8a1" d="M185.7 148.79c6.56-4.36 14.85-7.13 22.7-5.07 2.79 1.79 5.68 3.72 6.87 6.99l-4.69 4.47c-.96.31-1.92.62-2.9.86 1.87-2.26 5.03-4.12 5.62-7.04-4.8-3.8-11.76-3.94-17.51-2.53-4.79 1.2-9.64 3.33-12.44 7.62l-.22-2.18 2.57-3.12z"/><path fill="#1a1b1f" d="M236.15 142.01c1.54 1.49 3.04 3.1 4.96 4.09 2.05.34 4.28-.19 6.23.62 1.95 1.63 3.34 3.8 4.84 5.83 10.38-1.43 20.54-4.19 30.75-6.51 6.26 6.98 8.36 16.78 7.76 25.94-.3 8.45-3.81 16.4-8.33 23.41-1.73 2.24-1.4 5.17-1.85 7.8l-4.37-5.92 3.24-.29c-2.35-1.21-5.29-1.18-7.26-3.07-3.45-3.24-7.69-6.57-7.66-11.79 2.41 1.53 4.63 3.37 6.38 5.63 1.78 2.14 3.58 4.26 5.44 6.34 5.42-2.77 7.87-8.7 9.71-14.15 3.34-10.76 2.61-23.21-3.97-32.63-6.34.68-12.44 2.61-18.68 3.82-3.44.65-6.85 1.43-10.15 2.59 4.95 6.12 10.94 11.52 14.86 18.4.22 1.22.4 2.45.58 3.68l-3.91-1.05c.12-2.07-.55-4.12-.19-6.18l-2.89 3.54c-1.6-1.52-3.51-2.83-4.61-4.78-.27-1.36-.11-2.76-.09-4.13-1.71 1.53-3.46 3.03-5.23 4.5-3.06-3.29-4.96-7.39-6.83-11.43-2.57.98-5.18 1.85-7.81 2.64.79 2.08 2.01 3.95 3.46 5.62-1.51.69-3.02 1.38-4.48 2.17-3.54-.82-6.34-3.2-8.15-6.28l2.88.16c.7-1.81 1.45-3.6 2.23-5.37l-4.97-1.83c1.81-1.59 3.82-2.93 6-3.96.6-2.5 1.39-4.94 2.11-7.41z"/><path fill="#4d555a" d="M195.79 146.47c5.75-1.41 12.71-1.27 17.51 2.53-.59 2.92-3.75 4.78-5.62 7.04l-.71.03c-1.56.04-3.11 0-4.67-.02-.96-1.44-2.04-2.88-3.63-3.66l-.2-.2-1.25-2.18 1.14-3.18-2.57-.36m5.46 3.79c.55.56.55.56 0 0z"/><path fill="#3f4344" d="M183.35 154.09c2.8-4.29 7.65-6.42 12.44-7.62l2.57.36-1.14 3.18 1.25 2.18.05.1c.04.03.11.07.15.1 1.59.78 2.67 2.22 3.63 3.66 1.56.02 3.11.06 4.67.02l.97 2.79c-1.17 1.21-2.25 2.5-3.2 3.89-2.44 3-2.36 7.08-4.1 10.42-6.34-1.22-12.95 3.3-18.98.31-2.25-3.43-1.07-7.75-.47-11.5 1.23-2.46 2.17-5.11 2.16-7.89m14.87 5.13c.62.61.62.61 0 0z"/><path fill="#ced5da" d="M201.25 150.26c.55.56.55.56 0 0z"/><path fill="#fdfffd" d="M198.47 152.19l.2.2c-.04-.03-.11-.07-.15-.1l-.05-.1z"/><path d="M207.68 156.04l2.9-.86c2.74-.59 5.64-.09 7.5 2.16l-.65.66c-3.4 2.92-7.07 8.03-4.43 12.51l.81 1.64c-.55.8-1.07 1.63-1.59 2.45l2.22 1.42c-.04 1.55-.63 3.59-2.59 3.39-4.24-.35-8.42-1.37-12.71-1.27-2.55 4.58-2.07 10-3.68 14.88-.89 1.01-.14 3.11 1.36 2.17.18 3.28.57 6.69 2.33 9.56.53.82.95 2.1 2.18 1.91 4.02-.83 7.94-3.82 8.04-8.25l2.23.21 2.05.77c2.09.82 4.22 1.51 6.36 2.18 1.21-1.93 2.12-4.04 2.68-6.25.3-1.52.46-3.05.48-4.59l1.49-.27c-.06 2.71-.42 5.58 1.02 8.04 2.85-3.53 3.86-9.63 0-12.81-3.22-3.02-5.98-6.48-8.88-9.8 2.32-.25 4.61-.74 6.89-1.24-.07-1.6-.1-3.19-.11-4.78l.72-2.2c1.34 2.03 2.45 4.21 3.48 6.42 1.05 3.64 4.22 5.74 7.17 7.76l.35-2.64c.18-1.15.39-2.29.62-3.43l.54 3.46-.05 1.72c-.54 3.92 2.63 6.8 4.32 9.99-1.61 2.64-4.57 4.2-5.72 7.15-1.24 2.47-2.13 5.14-2.33 7.91-1.59.37-3.02 1.42-3.51 3.03-1.22 2.61-2.39 5.24-3.46 7.92l-4.71-.56c4 1.43 7.8 3.59 10.6 6.86.94 2.68 2.09 5.28 3.51 7.74l2.62-.26c-1.24 1-3.26 1.66-3.49 3.46-.43 2.86-1.01 5.76-2.95 8.03.52-5.08 2.08-11.08-1.52-15.43l-.16-.86a66.5 66.5 0 0 1-.23-2.43c-1.63-1.1-3.24-2.22-4.95-3.19-2.46-1-5.02-1.73-7.56-2.49l.75-2.11a190.66 190.66 0 0 0 5.8-1.07c-2.96-2.34-6.84-1.64-10.32-1.64-.59 2.28-1.06 4.65-.5 6.99.57 1.7 1.31 3.34 2.13 4.95l1.15.45c5.64 1.65 11.29 6.17 11.52 12.46-3.87 1.31-6.74 4.37-10.3 6.27.67-1.51 2-3.04 1.73-4.75-3.36-2.44-6.29-5.38-9.14-8.37l-1.79-2.03.08-1.72c2.97 1.74 6.01 3.36 9.25 4.56-1.1-2.21-2.4-4.3-3.73-6.36-2.29-3.37-2.66-7.66-5.18-10.9l-1.44-2.12-2.31 1.41c-.9.98-1.72 2.02-2.58 3.03-.93-2.22-1.99-4.41-3.45-6.33-2.15-2.93-5.18-4.99-8.28-6.78-.82-3.28-1.27-6.7-.46-10.03l.85 3.34c1.11-2.21.39-4.69-.32-6.9-.31-1.02-.67-2.01-.98-3.02 2.65-3.65 4.6-7.79 7.86-10.98l2.2-.78 1.23-2.23c1.74-3.34 1.66-7.42 4.1-10.42-.66 2.58-1.65 5.22-1.43 7.92 1.52 2.08 2.85 4.35 4.64 6.2 1.55.62 3.23.78 4.86 1.06-1.16-1.45-2.35-2.87-3.55-4.28 1.2-5.53 2.87-10.95 3.66-16.56-1.68.56-3.35 1.11-4.98 1.77l-.97-2.79.71-.03m21.41 23.92c-.38 4.88 3.41 8.48 4.61 12.97 2.38-4.73-.8-10.09-4.61-12.97m-12.81 27.4c.56.56.56.56 0 0m-9.24 2.88c-1.58 2.98 3.31.23 0 0m14.14 22.01c-.98 1.32 1.32 2.8 2.29 1.63.96-1.32-1.32-2.81-2.29-1.63zm-22.41 15.5c3.77-.72 7.09-2.82 10.7-4.05-1.57 3.58-5.6 4.84-9.11 5.65-4.27.92-8.44-1.46-11.47-4.27l2-.15c2.46 1.28 4.92 3.37 7.88 2.82z" fill="#716d6e"/><path opacity=".76" d="M218.99 155.29l7.97 3.94.94 1.19c1.81 3.08 4.61 5.46 8.15 6.28.53 3.01.43 6.09-.13 9.08-.23 1.14-.44 2.28-.62 3.43-2.45-1.8-4.89-3.62-7.52-5.12-1.03-2.21-2.14-4.39-3.48-6.42-2.15-3.06-5.28-5.64-5.78-9.57l.47-2.81z"/><path fill="#010101" opacity=".7" d="M264.36 154.66c5.6 3.87 7.91 10.87 8.34 17.39.44 5.32-1.26 10.47-1.86 15.7-1.75-2.26-3.97-4.1-6.38-5.63l-.59-3.45 4.31 1.9c-1.16-1.93-2.41-3.82-3.46-5.82l3.91 1.05-.58-3.68 2.44.83c.27-6.7-2.52-12.83-6.13-18.29z"/><path fill="#2b2f37" d="M237.07 158.91l7.81-2.64c1.87 4.04 3.77 8.14 6.83 11.43 1.77-1.47 3.52-2.97 5.23-4.5-.02 1.37-.18 2.77.09 4.13 1.1 1.95 3.01 3.26 4.61 4.78l2.89-3.54c-.36 2.06.31 4.11.19 6.18 1.05 2 2.3 3.89 3.46 5.82l-4.31-1.9.59 3.45c-.03 5.22 4.21 8.55 7.66 11.79 1.97 1.89 4.91 1.86 7.26 3.07l-3.24.29 4.37 5.92-4.1 1.26c-.89-2.15-1.4-4.98-4.01-5.63-2.26-1-4.53-1.95-6.72-3.08-1.14-1.13-2.2-2.32-3.25-3.52-3.17-3.97-7.66-6.55-11-10.35-3.71-4.96-7.94-10.02-13.86-12.34l.25-3.22-1.77.39c1.46-.79 2.97-1.48 4.48-2.17-1.45-1.67-2.67-3.54-3.46-5.62M259.34 175l-1.05 1.28c.88 3.37 4.86-2.1 1.05-1.28z"/><path fill="#a29d9f" d="M207.94 158.86l4.98-1.77c-.79 5.61-2.46 11.03-3.66 16.56l3.55 4.28c-1.63-.28-3.31-.44-4.86-1.06-1.79-1.85-3.12-4.12-4.64-6.2-.22-2.7.77-5.34 1.43-7.92.95-1.39 2.03-2.68 3.2-3.89m-2.62 11.49c-.74 1.71 1.48 1.57 2.49 1.79l2.02-10.07c-3.04 1.7-3.95 5.09-4.51 8.28z"/><path fill="#3a3b3b" d="M213 170.51c-2.64-4.48 1.03-9.59 4.43-12.51-.22 4.53-1.3 9.07-4.43 12.51z"/><path fill="#d59879" d="M217.43 158l.65-.66.44.76c.5 3.93 3.63 6.51 5.78 9.57l-.72 2.2-1.77 1.87-4.65-2.26c-1.12.88-2.27 1.73-3.35 2.67l-.81-1.64c3.13-3.44 4.21-7.98 4.43-12.51z"/><path fill="#fff" d="M198.22 159.22c.62.61.62.61 0 0z"/><path fill="#a8968e" d="M177.64 162.98l2.51-.71 1.04-.29c-.6 3.75-1.78 8.07.47 11.5 6.03 2.99 12.64-1.53 18.98-.31l-1.23 2.23-2.2.78-8.12 1.45c-3.89.71-8.93.81-10.52-3.65-.56-3.64-1.46-7.3-.93-11z"/><path d="M205.32 170.35c.56-3.19 1.47-6.58 4.51-8.28-.61 3.37-1.39 6.71-2.02 10.07-1.01-.22-3.23-.08-2.49-1.79zm-15.52 23.39l.53-3.56c.71 2.21 1.43 4.69.32 6.9l-.85-3.34zm-13.63 15.49l3.73.35 2.09.46-1.34 1.19c1.75 4.38.96 9.02-.68 13.29-.81-4.34.01-8.99-1.74-13.12-.68-.74-1.37-1.46-2.06-2.17zm7.02 19.16c.32-5.33-1.74-11.56 2.69-15.7 1.55 1.03 3.23 1.86 5.02 2.42 3.79-.17 7.73-.33 11.09 1.77.59 4.58 3.05 8.58 5.91 12.1l1.79 2.03c-1.6 3.31-5.02 4.82-8.11 6.38l-1.34-1.44.37-3.85-3.79 3.7-4.63-4.66c.54 1.77 1.05 3.56 1.54 5.35-4.04-1.86-7.88-4.5-10.54-8.1z" fill="#fbf6f5"/><path fill="#695f60" d="M166.65 169.69c3.43-2.59 6.79-5.45 10.99-6.71-.53 3.7.37 7.36.93 11-.03 3.34-.26 6.68-.04 10.02 1.24 6.53-4.7 13.13-.87 19.26l1.29-3.47c2.34 1.86 4.6 3.82 7.06 5.52-1.73 1.82-3.63 3.59-6.11 4.27l-3.73-.35 2.06 2.17-2.97 1.48c-.82-6.62-1.39-13.28-1.34-19.96l2.55-1.19c-.6-1.47-1.32-2.9-2.25-4.19l.18-5.14c.78-.82 1.62-1.59 2.27-2.53-.4-1.16-.92-2.27-1.41-3.39.91-2.64 1.66-5.33 2.24-8.06l-2.83-.28c-3.36 1.22-6.42 3.12-9.68 4.57-1.74.81-3.43 1.74-5.06 2.76-.99-.41-1.97-.83-2.92-1.29l-.15-1.69c3.35-.54 7.03-.55 9.79-2.8z"/><path d="M236.05 166.7l1.77-.39-.25 3.22-1.11 9.71-.54-3.46c.56-2.99.66-6.07.13-9.08zm-52.82 65.39c2.91 2.96 5.51 6.4 9.12 8.55 2.57.74 3.69-2.01 4.87-3.68 1.29 1.39 2.5 2.86 3.59 4.42l3.08-1.26c3.16-1.4 5.92-3.48 8.64-5.57 1.6 3.46-.93 6.65-3.06 9.15-3.61 1.23-6.93 3.33-10.7 4.05-2.96.55-5.42-1.54-7.88-2.82-3.05-1.83-5.98-3.96-8.09-6.88l-.37-1.62.8-4.34z" fill="#fefefe"/><path fill="#9c948e" d="M164.99 172.71c3.26-1.45 6.32-3.35 9.68-4.57-1.11 3.32-1.4 6.83-2.3 10.2-1.83-.23-3.66-.41-5.49-.6l-.13 2.21c-.67-2.4-1.16-4.84-1.76-7.24z"/><path fill="#4a2a1b" d="M174.67 168.14l2.83.28c-.58 2.73-1.33 5.42-2.24 8.06-.55 1.92-.76 3.92-.86 5.92l-.18 5.14-.3 5.38c-.05 6.68.52 13.34 1.34 19.96l-1.39-.93c-.52-2.3-1.14-4.57-1.83-6.82-1.89.48-3.68 1.23-5.24 2.4l.34-2.68c.28-2.24.2-4.5.18-6.74a96.34 96.34 0 0 1 0-3.4c.03-1.86.13-3.72.24-5.57l.48-9.83 4.33-.97c.9-3.37 1.19-6.88 2.3-10.2z"/><path d="M217.16 169.48l4.65 2.26 1.77-1.87.11 4.78-6.89 1.24-2.36.13-2.22-1.42 1.59-2.45 3.35-2.67zm-77.12 11.86c.99-5.81 7.97-6.4 12.56-7.88-.42 1.1-.84 2.21-1.21 3.33l-2.75.75c-3.14.57-6.05 1.89-8.6 3.8z" fill="#4d403b"/><path opacity=".76" d="M237.57 169.53c5.92 2.32 10.15 7.38 13.86 12.34 1.5 4.57 5.32 7.78 8.4 11.31.82 1.13 2.21-.05 2.6-.96 1.05 1.2 2.11 2.39 3.25 3.52-1.51 1.07-1.15 3.11-1.45 4.71-6.44 2.77-10.37 9.33-17.18 11.35l-1.99-.95c4.29-2.05 8.41-4.91 10.68-9.23.54-1.2 1.84-2.64.74-3.92-2.53-1.87-5.39-3.3-7.58-5.59-3.93-4-9.23-6.46-12.49-11.15l.05-1.72c.34-3.24.88-6.46 1.11-9.71z"/><path fill="#876057" d="M152.6 173.46l2.93-.67c-.9 2.92-2.78 5.41-3.8 8.28-.31 2.17 1.84 3.31 3.28 4.46l2.5 1.69-1.58 1.97-1.33-.83c-4.44-3.09-9.71-4.55-14.8-6.2l.24-.82c2.55-1.91 5.46-3.23 8.6-3.8 0 2.77-.21 5.77 1.75 8.01.3-2.93.33-5.89 1-8.76.37-1.12.79-2.23 1.21-3.33z"/><path fill="#c5bcb5" d="M155.53 172.79l1.33-.3.15 1.69-.42 9.67-1.58 1.68c-1.44-1.15-3.59-2.29-3.28-4.46 1.02-2.87 2.9-5.36 3.8-8.28z"/><path fill="#bab0ac" d="M159.93 175.47c1.63-1.02 3.32-1.95 5.06-2.76l1.76 7.24.33 6.14c-3.07.02-5.76-1.28-7.88-3.45.63-2.34.72-4.77.73-7.17z"/><path fill="#8d7e77" d="M156.59 183.85c-.04-3.23.32-6.45.42-9.67l2.92 1.29c-.01 2.4-.1 4.83-.73 7.17l-.24 1.02c.56 2.03 1.47 3.93 2.29 5.86-1.78.07-3.61.3-5.32-.33l1.58-1.97-2.5-1.69 1.58-1.68z"/><path fill="#da9778" d="M178.53 184c-.22-3.34.01-6.68.04-10.02 1.59 4.46 6.63 4.36 10.52 3.65 0 3.17-.39 6.38.26 9.53.31 1.01.67 2 .98 3.02-.15 1.19-.36 2.37-.53 3.56-.81 3.33-.36 6.75.46 10.03l.66 3.16c-1.65-.52-3.3-1.01-4.91-1.62-2.46-1.7-4.72-3.66-7.06-5.52.84-2.82 2.37-5.34 3.8-7.88-1.13-2.78-3.05-5.15-4.22-7.91z"/><path fill="#6f6e75" d="M259.34 175c3.81-.82-.17 4.65-1.05 1.28l1.05-1.28z"/><path fill="#cb8c6e" d="M189.09 177.63l8.12-1.45c-3.26 3.19-5.21 7.33-7.86 10.98-.65-3.15-.26-6.36-.26-9.53z"/><path fill="#929093" d="M214.44 176.02l2.36-.13c2.9 3.32 5.66 6.78 8.88 9.8 3.86 3.18 2.85 9.28 0 12.81-1.44-2.46-1.08-5.33-1.02-8.04l-1.49.27c-.97-2.94-3.31-5.01-5.87-6.58l-.49 4.48c-1.73-1.43-3.63-2.64-5.54-3.8l-.12 5.13-2.7 1.2c.19-3.47.62-6.92 1.45-10.29-2.54 2.22-4.71 4.82-6.49 7.69l3.53 1.26c-1.23 1.57-5.49 3.15-3.6 5.32 1.98.25 4 .12 5.98.42 1.29.44 1.52 2.07 2.28 3.06-.55-.06-1.67-.16-2.23-.21-.1 4.43-4.02 7.42-8.04 8.25-1.23.19-1.65-1.09-2.18-1.91-1.76-2.87-2.15-6.28-2.33-9.56l-1.36-2.17c1.61-4.88 1.13-10.3 3.68-14.88 4.29-.1 8.47.92 12.71 1.27 1.96.2 2.55-1.84 2.59-3.39m-15.18 15.09c.19 3.32 2.97-1.57 0 0m-.21 6.11c-1.72.31-.96 2.99.66 2.44 1.63-.32.9-2.92-.66-2.44z"/><path fill="#b5a9a1" d="M148.64 177.54l2.75-.75c-.67 2.87-.7 5.83-1 8.76-1.96-2.24-1.75-5.24-1.75-8.01z"/><path fill="#605857" d="M166.88 177.74l5.49.6-4.33.97-.48 9.83-6.31.38c-.82-1.93-1.73-3.83-2.29-5.86l.24-1.02c2.12 2.17 4.81 3.47 7.88 3.45l-.33-6.14.13-2.21z"/><path d="M174.4 182.4c.1-2 .31-4 .86-5.92l1.41 3.39c-.65.94-1.49 1.71-2.27 2.53zm67.92 29.98l2.74-1.53 1.99.95c-1.06 1.67-2.35 3.35-2.39 5.44l.78 2.63 1.05 4.01-3.56 3.89-1.94 1.36-3.26 1.61-2.62.26c-1.42-2.46-2.57-5.06-3.51-7.74 2.45-4.61 6.39-8.1 10.72-10.88z" fill="#cbbcb5"/><path fill="#d2cec4" d="M229.09 179.96c3.81 2.88 6.99 8.24 4.61 12.97-1.2-4.49-4.99-8.09-4.61-12.97z"/><path fill="#b5b3b7" d="M203.41 188.56c1.78-2.87 3.95-5.47 6.49-7.69-.83 3.37-1.26 6.82-1.45 10.29l-.27 2.27c1.94.22 3.66 1.11 5.11 2.38 1.26-.24 2.51-.49 3.75-.77-1.18 1.4-2.27 2.88-3.39 4.35l-2.05-.77c-.76-.99-.99-2.62-2.28-3.06-1.98-.3-4-.17-5.98-.42-1.89-2.17 2.37-3.75 3.6-5.32l-3.53-1.26z"/><path fill="#4a3932" d="M139.8 182.16c5.09 1.65 10.36 3.11 14.8 6.2-3.28-.15-6.56.13-9.83.28-2.38-1.5-4.33-3.68-4.97-6.48z"/><path fill="#4b352c" d="M177.66 203.26c-3.83-6.13 2.11-12.73.87-19.26 1.17 2.76 3.09 5.13 4.22 7.91-1.43 2.54-2.96 5.06-3.8 7.88l-1.29 3.47z"/><path fill="#bbb7b8" d="M217.3 184.15c2.56 1.57 4.9 3.64 5.87 6.58-.02 1.54-.18 3.07-.48 4.59l-2.3-1.67c-2.63-2.17-5.94-3.11-9.24-3.69l.12-5.13c1.91 1.16 3.81 2.37 5.54 3.8l.49-4.48z"/><path fill="#a49690" d="M174.22 187.54c.93 1.29 1.65 2.72 2.25 4.19l-2.55 1.19.3-5.38z"/><path fill="#f7f1f5" d="M211.15 189.96c3.3.58 6.61 1.52 9.24 3.69l-3.35 1.39-3.75.77c-1.45-1.27-3.17-2.16-5.11-2.38l.27-2.27 2.7-1.2z"/><path fill="#fdf7f1" d="M199.26 191.11c2.97-1.57.19 3.32 0 0z"/><path fill="#575353" d="M240.73 190.95c1.4 4.65-2.8 8.2-4.91 11.86-1.86 2.2-1.48 5.2-1.74 7.86l-1.58-.21-.89-.99c.69-1.05 1.04-2.2 1.07-3.46.2-2.77 1.09-5.44 2.33-7.91 1.15-2.95 4.11-4.51 5.72-7.15z"/><path fill="#e8e1d8" d="M195.46 193.02l1.36 2.17c-1.5.94-2.25-1.16-1.36-2.17z"/><path fill="#664f46" d="M146.21 195.55c4.57-.11 9.05-.97 13.59-1.39l.22.72-3.51.02-.19 2.79c-2.88-.07-6.91-.68-7.99 2.87-1.64 2.89.96 5.49 3.11 7.12l1.64-1.58 1.39 1.44c.25 1.25.36 2.53.5 3.8l2.88-.22-.58-4.94c2.57 2.56 5.58 4.76 9.23 5.43l.94-2.05c1.02 1.77 2.25 3.4 3.76 4.78-.32 1.23-.91 2.37-1.82 3.27-1.65-2.03-3.56-4.04-6.17-4.74-4.15-1.13-8.67-.83-12.53-2.96-3.4-1.21-7.42-1.74-9.8-4.76-2.54-3.82.93-9.46 5.33-9.6z"/><path fill="#938e93" d="M217.04 195.04l3.35-1.39 2.3 1.67c-.56 2.21-1.47 4.32-2.68 6.25l-6.36-2.18 3.39-4.35z"/><path fill="#958d88" d="M156.51 194.9l3.51-.02.99-.02-.65 4.14 1.26-.19c-.88 2.56-2.3 5.63-.59 8.17 1.41 1.18 3.14 1.91 4.77 2.77l1.34-4.9-.34 2.68c1.56-1.17 3.35-1.92 5.24-2.4l1.83 6.82c-.93.75-1.81 1.56-2.67 2.39-1.51-1.38-2.74-3.01-3.76-4.78l-.94 2.05c-3.65-.67-6.66-2.87-9.23-5.43l.58 4.94-2.88.22c-.14-1.27-.25-2.55-.5-3.8 1.58-2.75 2.53-5.8 3.1-8.91-1.82.42-3.98.27-5.35 1.75-.32 1.95.17 3.91.86 5.72l-1.64 1.58c-2.15-1.63-4.75-4.23-3.11-7.12 1.08-3.55 5.11-2.94 7.99-2.87l.19-2.79z"/><path fill="#605a58" d="M161.01 194.86l6.31-.15v3.4l-5.7.7-1.26.19.65-4.14z"/><path fill="#d5cdc9" d="M199.05 197.22c1.56-.48 2.29 2.12.66 2.44-1.62.55-2.38-2.13-.66-2.44z"/><path fill="#c1b8b4" d="M161.62 198.81l5.7-.7-.18 6.74-1.34 4.9c-1.63-.86-3.36-1.59-4.77-2.77-1.71-2.54-.29-5.61.59-8.17z"/><path fill="#c7bdb7" d="M152.22 200.38c1.37-1.48 3.53-1.33 5.35-1.75-.57 3.11-1.52 6.16-3.1 8.91l-1.39-1.44c-.69-1.81-1.18-3.77-.86-5.72z"/><path fill="#222327" d="M272.4 198.82c2.61.65 3.12 3.48 4.01 5.63-4.96 4.38-9.3 9.75-15.52 12.41-4.81 2.37-10.29 2.15-15.45 3.01l-.78-2.63c12.14 1.8 24.44-6.73 27.74-18.42z"/><path fill="#87848a" d="M190.26 203.77c3.1 1.79 6.13 3.85 8.28 6.78l-5.52-.08-1.25 1.35 2.94 1.89-3.81 1.4c-1.79-.56-3.47-1.39-5.02-2.42l-3.89-2.65-2.09-.46c2.48-.68 4.38-2.45 6.11-4.27 1.61.61 3.26 1.1 4.91 1.62l-.66-3.16z"/><path fill="#1a1919" opacity=".39" d="M229.17 209.04c.49-1.61 1.92-2.66 3.51-3.03-.03 1.26-.38 2.41-1.07 3.46l-2.44-.43z"/><path fill="#fff4ed" d="M216.28 207.36c.56.56.56.56 0 0z"/><path fill="#010101" opacity=".76" d="M229.17 209.04l2.44.43.89.99 1.58.21c1.85 2.61 5.51 1.48 8.24 1.71-4.33 2.78-8.27 6.27-10.72 10.88-2.8-3.27-6.6-5.43-10.6-6.86l4.71.56c1.07-2.68 2.24-5.31 3.46-7.92z"/><path fill="#c3b8b2" d="M181.99 210.04l3.89 2.65c-4.43 4.14-2.37 10.37-2.69 15.7 2.66 3.6 6.5 6.24 10.54 8.1l-1.54-5.35 4.63 4.66 3.79-3.7-.37 3.85 1.34 1.44-.54 1.79 2.85.94c-1.02.44-2.05.85-3.08 1.26-1.09-1.56-2.3-3.03-3.59-4.42-1.18 1.67-2.3 4.42-4.87 3.68-3.61-2.15-6.21-5.59-9.12-8.55l-.8 4.34-.16-.72c-.53-3.78-1.78-7.41-2.3-11.19 1.64-4.27 2.43-8.91.68-13.29l1.34-1.19z"/><path fill="#cdc6c9" d="M193.02 210.47l5.52.08c1.46 1.92 2.52 4.11 3.45 6.33-3.36-2.1-7.3-1.94-11.09-1.77l3.81-1.4-2.94-1.89 1.25-1.35z"/><path fill="#fffffb" d="M207.04 210.24c3.31.23-1.58 2.98 0 0z"/><path fill="#79757c" d="M178.23 211.4c1.75 4.13.93 8.78 1.74 13.12.52 3.78 1.77 7.41 2.3 11.19-1.25-2.35-2.31-4.79-3.34-7.23-4.07-.77-6.27 3.2-8.45 5.85.5-3.73.91-8.2 4.39-10.44 1.12-1.18 3.46-1.84 3.02-3.85-.1-1.94-1.09-5.18-3.57-4.73-7.28 5.17-8.91 15.14-6.79 23.32l2.22-3.45c.36.92.75 1.83 1.15 2.74.93 1.95 2.3 3.63 3.55 5.38l-2.06 1.19-5.37-3.64c-4.42-7.09-3.64-17.29 2.36-23.24.91-.9 1.5-2.04 1.82-3.27.86-.83 1.74-1.64 2.67-2.39l1.39.93c1-.47 1.98-.98 2.97-1.48z"/><path fill="#dbd5d8" d="M204.57 213.85l2.31-1.41 1.44 2.12c.29 3.64 1.57 7.07 2.62 10.54-4.33-1.88-6.54-6.71-6.37-11.25z"/><path fill="#c2b6af" d="M213.1 213.01c3.48 0 7.36-.7 10.32 1.64l-5.8 1.07-.75 2.11c2.54.76 5.1 1.49 7.56 2.49-.85 1.25-1.55 2.6-2.42 3.84l-4.92-3.74-.91 1.76c.05-2.2.04-4.4.03-6.6-2.42.28-3.77 2.02-3.61 4.42-.56-2.34-.09-4.71.5-6.99m6.44 7.14c-1.02 1.97 3.15 3.02 3.38.88-.23-1.47-2.44-1.93-3.38-.88z"/><path fill="#a3a0a4" d="M201.99 216.88l2.58-3.03c-.17 4.54 2.04 9.37 6.37 11.25-1.05-3.47-2.33-6.9-2.62-10.54 2.52 3.24 2.89 7.53 5.18 10.9 1.33 2.06 2.63 4.15 3.73 6.36-3.24-1.2-6.28-2.82-9.25-4.56l-.08 1.72c-2.86-3.52-5.32-7.52-5.91-12.1z"/><path fill="#a39ea6" d="M167.53 238.63c-2.12-8.18-.49-18.15 6.79-23.32 2.48-.45 3.47 2.79 3.57 4.73.44 2.01-1.9 2.67-3.02 3.85-3.48 2.24-3.89 6.71-4.39 10.44a33.45 33.45 0 0 0 .42 3.59c-.4-.91-.79-1.82-1.15-2.74l-2.22 3.45z"/><path fill="#eae4e2" d="M212.6 220c-.16-2.4 1.19-4.14 3.61-4.42l-.03 6.6-.3 3.22-1.15-.45c-.82-1.61-1.56-3.25-2.13-4.95z"/><path fill="#948f95" d="M217.09 220.42l4.92 3.74 2.42-3.84c1.71.97 3.32 2.09 4.95 3.19l.23 2.43c-1.19-.72-2.18-2.3-3.73-2.06-1.52 2.83 2.09 2.63 3.89 2.92 3.6 4.35 2.04 10.35 1.52 15.43-.25.84-.48 1.7-.69 2.56-2.48 1.17-5.08 2.12-7.83 2.32 1.89-2.9 4.52-5.58 4.63-9.25-.23-6.29-5.88-10.81-11.52-12.46l.3-3.22.91-1.76z"/><path fill="#e9e2e7" d="M219.54 220.15c.94-1.05 3.15-.59 3.38.88-.23 2.14-4.4 1.09-3.38-.88z"/><path fill="#c0bac0" d="M225.88 223.88c1.55-.24 2.54 1.34 3.73 2.06l.16.86c-1.8-.29-5.41-.09-3.89-2.92z"/><path fill="#474340" opacity=".57" d="M240.99 229.13l1.94-1.36-1.94 1.36z"/><path fill="#928e8f" d="M209.69 231.01c2.85 2.99 5.78 5.93 9.14 8.37.27 1.71-1.06 3.24-1.73 4.75-3.14 1.7-5.75 4.16-8.66 6.2-5.7 1.51-11.86 1.93-17.51-.09l-1.92-1.42c-3.18-2.84-5.44-6.54-6.21-10.77 2.11 2.92 5.04 5.05 8.09 6.88l-2 .15c3.03 2.81 7.2 5.19 11.47 4.27 3.51-.81 7.54-2.07 9.11-5.65 2.13-2.5 4.66-5.69 3.06-9.15-2.72 2.09-5.48 4.17-8.64 5.57l-2.85-.94.54-1.79c3.09-1.56 6.51-3.07 8.11-6.38z"/><path fill="#b7ada6" d="M221.18 232.25c.97-1.18 3.25.31 2.29 1.63-.97 1.17-3.27-.31-2.29-1.63z"/><path fill="#453937" opacity=".62" d="M189.01 248.82l1.92 1.42-1.92-1.42z"/></svg>