<svg xmlns="http://www.w3.org/2000/svg" width="512" height="512" viewBox="0 0 384 384" xmlns:v="https://vecta.io/nano"><path fill="#3e3c42" d="M236.1 142.58c3.32-.93 6.69-1.76 10.12-2.2l.51 1.47-2.58-.73c1.73 5.64 3.56 11.26 4.87 17.02-1.27-2.63-2.77-5.49-5.87-6.22-3.13-.86-5.8-2.86-6.33-6.25l-.72-3.09z"/><path d="M244.15 141.12l2.58.73.27.81c.54 4.65 2.03 9.1 3.75 13.43l.23.8a61.35 61.35 0 0 0 2.62 9.41l.25.76c.94 3.16 2.28 6.18 3.66 9.18l.06.77c-.37 1.32-.79 2.62-1.18 3.94l-2.25-7.43c-.84-2.61-1.82-5.16-2.67-7.76l-2-6-.45-1.62c-1.31-5.76-3.14-11.38-4.87-17.02zm-79.07 61.96c1.24-1.61 2.98.24 4.43.5l-1.91 5.06-3.45.13c.28-1.88-.03-3.99.93-5.69z" fill="#bab6ba"/><path d="M247 142.66c1.87 4.28 3.25 8.78 3.75 13.43-1.72-4.33-3.21-8.78-3.75-13.43zm4.47 23.1l2.67 7.76c-2.54-.58-3.93-2.47-4.26-4.97l1.59-2.79zm5.15 3.81c2.2.85 4.57.84 6.89.95l2.31 6.81 5.99-.14c1.06 4.91 2.35 9.76 3.63 14.61 5.03 2.49 10.3 4.46 15.48 6.59 5.56 2.23 10.97 4.91 16.82 6.33 5.11 16.2-1.77 35.87-17.02 43.99-4.11 2.02-7.18 5.39-10.08 8.83.28-3.18.19-6.43-.92-9.45-3.37-9.39-6.73-18.81-9.02-28.53l3.09 1.64-1.59-3.74c.05-1.78.21-3.56.57-5.3 1.33 2.5 2.78 4.94 4.01 7.49.62-3.52-.58-6.92-1.56-10.24 1.45-1.8 3.95-3.58 2.84-6.2-.65-2.03-1.27-5.63-4.11-5.11 0 3 .56 5.96.96 8.92-1.72-4.04-3.17-8.19-4.39-12.41l4.02 1.57c-.29-3.77-1.37-7.4-2.59-10.96a31.87 31.87 0 0 1-4.33.65c-1.17-1.73-1.71-3.79-2.41-5.73l-2.09.47-2.05.51-1.04.3c1.27 7.65 3.5 15.13 6.14 22.4l-5.14-1.95-1.88 1.6c1 2.99 2.08 5.95 3.44 8.8l.05-3.15c.69 1.01 1.41 2 2.14 2.99l2.77-1.79-.42 3.46c-1.26 1.35-1.68 3.81.2 4.86l-.98 2.3-1.59-6.75-3.98-.14a80.41 80.41 0 0 0-.99-3.22c-.87-1.97-1.92-3.87-3.2-5.6-.5-3.49-1.44-6.88-2.53-10.22 1.83 1.71 3.69 3.39 5.6 5.03-.54-3.78-1.28-7.58-2.89-11.08-3.12 2.66-3.81 7.31-6.6 10.39-.45-3.18-.53-6.4-.18-9.59.95.85 1.95 1.64 2.95 2.44-.81-3.7-2.01-7.29-3.32-10.83l3.08 1.81c-.42-2.88-.87-5.76-1.16-8.66 1.74 2.74 3.15 5.66 4.46 8.62 2.91-.86 1.69-3.9 1.57-6.13l-.06-.77c.55-1.54 1.16-3.04 1.77-4.55l-2.66-2.12m1.62 18.66c.38 3.99 1.05 8.26 3.88 11.33-.26-4.02-.98-8.31-3.88-11.33m18.19 5.02c1.3 6.41 3.49 12.6 5.17 18.92.03 2.17.04 4.42-.93 6.43l-2.06-3.24c-.42 1.75-.64 3.54-1.02 5.3-1.09.48-2.15 1-3.23 1.5l.49 2.88 1.91 5.85c2.33 5.56 2.67 12.14 6.55 16.93 6.35.02 11.28-4.88 15.31-9.23 7.68-9.06 10.33-21.91 7.43-33.36-9.88-3.97-19.58-8.42-29.62-11.98m1.18 17.93c-.03 1.81 1.45 3.02 2.43 4.37.09-2.27.08-4.53 0-6.8-.85.77-1.66 1.58-2.43 2.43m7.55 38.08c-1.59 2.96 3.35.23 0 0z" fill="#1e2026"/><path fill="#9e7159" d="M214.75 147.06c4.39-.97 9.25-3.23 13.49-.5.54 2.81 1.14 5.6 1.94 8.35-3.71-4.83-9.74-6.62-15.43-7.85z"/><path fill="#3c3e3c" d="M205.7 149.76c2.87-1.31 5.94-2.15 9.05-2.7 5.69 1.23 11.72 3.02 15.43 7.85l.79 2.62c.21.83.39 1.65.57 2.49-2.27-2.94-5.03-5.62-8.47-7.12-5.45-2.47-11.51-2.71-17.37-3.14z"/><path fill="#e9a682" d="M228.24 146.56l5.39 2.61c.39 1.45.89 2.89.96 4.41-.97 1.51-2.34 2.71-3.62 3.95l-.79-2.62c-.8-2.75-1.4-5.54-1.94-8.35z"/><path fill="#7b7779" d="M234.29 148.47l1.44-1.3c3.22 4.46 6.97 8.57 9.57 13.46-.59 2.19.68 4.34 3.01 4.59l1.01 1.28.56 2.05c.33 2.5 1.72 4.39 4.26 4.97.81 2.45 1.53 4.94 2.25 7.43l1.18-3.94c.12 2.23 1.34 5.27-1.57 6.13-1.31-2.96-2.72-5.88-4.46-8.62.29 2.9.74 5.78 1.16 8.66l-3.08-1.81c1.31 3.54 2.51 7.13 3.32 10.83-1-.8-2-1.59-2.95-2.44-2.71-3.23-5.13-6.7-7.93-9.86 1.91 1.74 4.26 2.88 6.72 3.63-3.07-4.92-6.92-9.32-11.06-13.35-1.19-1.34-3.1-1.02-4.68-1.12-.51-3.01-.89-6.05-1.5-9.04l-.57-2.49c1.28-1.24 2.65-2.44 3.62-3.95-.07-1.52-.57-2.96-.96-4.41l.66-.7m5.94 11.77c-1.66.18-2.15 3.32-.31 3.56 1.65-.17 2.14-3.31.31-3.56m1.99 4.05c-1.48.97.09 3.57 1.58 2.37 1.46-.98-.1-3.59-1.58-2.37z"/><path fill="#a08687" d="M194.41 160.13c4.47-2.62 7.72-6.71 11.29-10.37 5.86.43 11.92.67 17.37 3.14 3.44 1.5 6.2 4.18 8.47 7.12.61 2.99.99 6.03 1.5 9.04 1.58.1 3.49-.22 4.68 1.12 4.14 4.03 7.99 8.43 11.06 13.35-2.46-.75-4.81-1.89-6.72-3.63-2.62-2.69-5.47-5.14-8.38-7.51-1.11 1.83-2.4 3.61-3.07 5.67-.07 3.84.87 7.79 3.36 10.8 1.15 2.71 2.05 5.52 2.96 8.31l-2.24 1.18-2.84-6 .05-.66c.35-1.63-.55-3.15-1.72-4.19l-1.19-1.27c-1.55-1.64-3.13-3.23-4.73-4.82 3.46-3.18 6.28-7.12 7.37-11.76.77-9.39-8.86-15.39-17.11-16.43-3.4-.72-7.32-1.22-10.34.93-3.99 2.94-7.42 6.65-10.41 10.6-1.55 2.38-3.54 6.05-1.16 8.55 2.92 2.3 6.68 3.21 9.66 5.45l-.81 1.71c-1.81-.13-3.62-.31-5.41-.57-3.9-1.66-6.75-4.92-8.16-8.88 1.46-2.16 2.28-4.7 1.76-7.31 1.65-1.1 3.17-2.38 4.76-3.57z"/><path fill="#3c4040" d="M204.18 154.15c3.02-2.15 6.94-1.65 10.34-.93l1.53 1.2c-2.44 2.25-5.26 4.3-6.63 7.43l.06 2.16c-2.4 2.6-4.73 5.47-5.77 8.92-.52 1.93-.92 3.89-1.44 5.82-2.98-2.24-6.74-3.15-9.66-5.45-2.38-2.5-.39-6.17 1.16-8.55 2.99-3.95 6.42-7.66 10.41-10.6z"/><path fill="#464d53" d="M214.52 153.22c8.25 1.04 17.88 7.04 17.11 16.43-5.86.26-11.73-.22-17.59.2.56-1.66 1.2-3.28 1.79-4.92l4.86-.9-2.3-5.13c-1.89.8-3.78 1.61-5.59 2.58a50.96 50.96 0 0 0-3.32 2.53l-.06-2.16c2.65-2.15 5.31-4.31 8.11-6.29l-1.48-1.14-1.53-1.2z"/><path d="M216.05 154.42l1.48 1.14c-2.8 1.98-5.46 4.14-8.11 6.29 1.37-3.13 4.19-5.18 6.63-7.43zm-100.12 13.93l2.1-2.82.96 3.29c.06 3.15-.05 6.32-.45 9.45l-2.65-3.47.04-6.45z" fill="#d0c4bc"/><path d="M152.71 157.88l2.13-.45c.88-.03 3.42-.05 2.62 1.48-1.5 1.28-3.6.16-4.75-1.03zm116.05 51.96l4.76-.95-.75 3.27c-.36 1.74-.52 3.52-.57 5.3l-3.44-7.62z" fill="#eeedf0"/><path fill="#8d8381" d="M154.84 157.43l9.33-.74c.33 1.3 1.21 1.8 2.64 1.49 2.13-.11 4.26 0 6.38.23l-4.35 1.25-1.71.48c-1.15.49-2.27 1.07-3.34 1.72l-2.4 1.65-1.76-2.6-7.81 1.11 1.35-2.34-6.41.93 2.5 2.03-2.63.87-4.18-1.97 2.05 2.56c-3.78.48-7.66.78-11.22 2.23-.94 2.99-.53 6.18-.72 9.26-1.43 1.13-1.62 3.01-2.13 4.63l6.53-.97c2.83-.42 5.69-.6 8.53-.95l.29-1.25c1.21 1.47 2.62 2.82 4.36 3.65 1.25.31 2.52.56 3.79.82l-6.24 1.27-4.94.17c-6.09-.86-12.23-.75-18.34-.42 2.57-.43 5.18-.39 7.76-.66l-6.02-.25-.27-2.88 3.65-1.48c-.21-3.74-.49-7.47-.83-11.19-2.03.1-4.08.08-6.08.48-1.15 1.42-1.95 3.08-2.85 4.66l-.78-2.4-.96-3.29c.3-.43.92-1.27 1.23-1.7 4.67-.07 9.35-.09 13.99-.67 6.7-.93 12.85-3.98 19.46-5.28 1.15 1.19 3.25 2.31 4.75 1.03.8-1.53-1.74-1.51-2.62-1.48z"/><path fill="#3b3838" opacity=".69" d="M164.17 156.69c1.41-.32 2.29.17 2.64 1.49-1.43.31-2.31-.19-2.64-1.49z"/><path opacity=".76" d="M250.98 156.89c1.32 2.99 2.21 6.16 2.62 9.41a61.35 61.35 0 0 1-2.62-9.41zm-1.51 2.87l2 6-1.59 2.79-.56-2.05.15-6.74zm-18.86 18.3c.67-2.06 1.96-3.84 3.07-5.67 2.91 2.37 5.76 4.82 8.38 7.51 2.8 3.16 5.22 6.63 7.93 9.86-.35 3.19-.27 6.41.18 9.59-1.98 3.26-3.82 6.61-5.52 10.03-.97-2.59-1.89-5.2-2.65-7.85-.52-1.84-.99-3.68-1.59-5.49-1.48-2.93-3.94-5.13-6.44-7.18-2.49-3.01-3.43-6.96-3.36-10.8zm-124.07 1.21c3.96-.71 7.98-.93 12-1l-.43 2.79c-3.76-1.16-7.63-1.86-11.57-1.79z"/><path d="M173.19 158.41l4.33.42c-2.85.6-5.76.9-8.68.83l4.35-1.25zm87.88 22.71l2.05-.51c2.74 2.57 1.73 6.54 2.29 9.86.23 3.69 2.56 6.65 4.34 9.72l-.33.72-1.6 3.32c-2.43-7.65-4.62-15.38-6.75-23.11z" fill="#e0dee1"/><path d="M168.84 159.66c2.92.07 5.83-.23 8.68-.83 1.14.07 2.27.23 3.39.47l4.28 2.67-9.12.76-3.67.21-1.74 2.16-.46-.8c-.93-1.46-2-2.82-3.07-4.16l1.71-.48zm85.01 7.4l2.77 2.51 2.66 2.12-1.77 4.55c-1.38-3-2.72-6.02-3.66-9.18z" fill="#676161"/><path fill="#483020" d="M180.91 159.3c4.38 1.53 8.96 1.61 13.5.83-1.59 1.19-3.11 2.47-4.76 3.57-2.46 1.18-5.11 2.02-7.36 3.59-2.42 1.86-3.67 4.77-4.82 7.51-.53 1.4-1 2.83-1.34 4.3-.49 2.03-.8 4.1-1.05 6.18-.86 5.72-2.99 11.15-6.04 16.06l-4.13-.07-1.91-3.25c-1.35-3.85-1.88-8.83 1.36-11.91l1.01-.14.85.16-.3-3.9 2.92-5.53 5.88-.23c1.05-2.53 1.99-5.27.52-7.86l1.41-1.12c3.48-1.28 6.92-2.67 10.15-4.5l-1.61-1.02c-1.41-.92-2.81-1.85-4.28-2.67z"/><path fill="#6e6c6e" d="M212.8 161.48c1.81-.97 3.7-1.78 5.59-2.58l2.3 5.13-4.86.9.97-2.73-4-.72z"/><path fill="#5d5856" d="M146.76 160.61l6.41-.93-1.35 2.34-2.56.62-2.5-2.03z"/><path fill="#d3c8c2" d="M163.79 161.86c1.07-.65 2.19-1.23 3.34-1.72l3.07 4.16c-1.94 4.75-2.6 9.89-4.31 14.71-1.07-.93-2.18-1.82-3.11-2.88l-.73-3.37c1.16-3.52 1.78-7.19 1.74-10.9z"/><path fill="#bbb5b7" d="M240.23 160.24c1.83.25 1.34 3.39-.31 3.56-1.84-.24-1.35-3.38.31-3.56z"/><path fill="#d3c9c3" d="M151.82 162.02c2.58-.53 5.2-.83 7.81-1.11.76 6.32.76 12.7.02 19.02-3.7-.75-7.36-1.64-10.99-2.66-2.07-4.28-2.67-9.07-2.03-13.76a62.22 62.22 0 0 1 2.63-.87l2.56-.62z"/><path fill="#a69d99" d="M159.63 160.91l1.76 2.6 2.4-1.65c.04 3.71-.58 7.38-1.74 10.9-1.29 3.43-.83 7.62-2.76 10.66-3.7 1.26-7.78-.49-11.6-.63 2.09-.38 4.16-.85 6.24-1.27l-3.79-.82-1.48-3.43c3.63 1.02 7.29 1.91 10.99 2.66.74-6.32.74-12.7-.02-19.02z"/><path fill="#464344" opacity=".87" d="M245.3 160.63c1.36 1.26 2.37 2.84 3.01 4.59-2.33-.25-3.6-2.4-3.01-4.59z"/><path d="M103.64 168.72c2.1-3.67 5.71-7.21 10.31-6.49 6.4.83 12.83 1.88 19.3.93-4.64.58-9.32.6-13.99.67l-1.23 1.7-2.1 2.82-7.39.14-1.87 3.14-1.1-2.79-1.93-.12zm38.81-7.18l4.18 1.97c-.64 4.69-.04 9.48 2.03 13.76l1.48 3.43c-1.74-.83-3.15-2.18-4.36-3.65-.3-4.33-.6-8.66-1.28-12.95-.67-.87-1.36-1.71-2.05-2.56z" fill="#62463c"/><path fill="#a99b93" d="M176.07 162.73l9.12-.76 1.61 1.02c-3.23 1.83-6.67 3.22-10.15 4.5l-.58-4.76z"/><path fill="#8a878b" d="M209.48 164.01l3.32-2.53 4 .72-.97 2.73-1.79 4.92c-1.17 3.65-1.44 7.5-1.66 11.31 1.97.58 3.94 1.17 5.9 1.83-.9.25-3.23.53-2.58 1.94 1.41.75 2.84-.55 3.71-1.55l4.47 1.48c.28 1.79.59 3.59 1.19 5.31l.59.56c-3.06.79-6.54 3.4-9.57 1.17-1.64-1.56-3.16-3.24-4.82-4.77l2.07-3.15c-2.57-.82-5.36-1.26-7.62-2.8-1.85-2.29-1.81-5.46-2.01-8.25 1.04-3.45 3.37-6.32 5.77-8.92m-4.34 13.71l3.04 1.3c2.11-4.53 3.81-9.27 4.72-14.2-4.98 2.37-6.53 7.99-7.76 12.9z"/><path fill="#d8ccc5" d="M172.4 162.94l3.67-.21.58 4.76-1.41 1.12-4.42 2.63-.16-6.14 1.74-2.16z"/><path fill="#cec4bf" d="M133.28 166.33c3.56-1.45 7.44-1.75 11.22-2.23.68 4.29.98 8.62 1.28 12.95l-.29 1.25c-2.84.35-5.7.53-8.53.95l-4.4-3.66c.19-3.08-.22-6.27.72-9.26z"/><path fill="#736665" d="M182.29 167.29c2.25-1.57 4.9-2.41 7.36-3.59.52 2.61-.3 5.15-1.76 7.31l-3.24 5.86c-1.67 5.46-.67 11.77-4.64 16.39l.81 2.9.63 2c-1.33 1.78-2.94 3.35-4.79 4.58l-2.01-3.16c1.21-4.68 1.52-9.56.43-14.3.25-2.08.56-4.15 1.05-6.18l.19 2.14c1.69-1.84 2.34-4.14 1.15-6.44 1.15-2.74 2.4-5.65 4.82-7.51z"/><path fill="#b5afb3" d="M242.22 164.29c1.48-1.22 3.04 1.39 1.58 2.37-1.49 1.2-3.06-1.4-1.58-2.37z"/><path fill="#a09690" d="M165.89 179.01c1.71-4.82 2.37-9.96 4.31-14.71l.46.8c.15 2.04.15 4.09.16 6.14 1.49-.86 2.98-1.7 4.42-2.63 1.47 2.59.53 5.33-.52 7.86l-5.88.23-2.92 5.53-2.24-1.76-.9-4.34c.93 1.06 2.04 1.95 3.11 2.88z"/><path fill="#c7c2c6" d="M205.14 177.72c1.23-4.91 2.78-10.53 7.76-12.9-.91 4.93-2.61 9.67-4.72 14.2l-3.04-1.3z"/><path fill="#d1c8c0" d="M122.62 166.56c2-.4 4.05-.38 6.08-.48.34 3.72.62 7.45.83 11.19l-3.65 1.48c-2.97-1.62-5.27-4.2-6.11-7.53.9-1.58 1.7-3.24 2.85-4.66z"/><path fill="#a1817c" d="M103.64 168.72l1.93.12 1.1 2.79 1.87-3.14 7.39-.14-.04 6.45c-3.78-.16-8.68-2.43-11.28 1.55-.65-2.49-.95-5.06-.97-7.63z"/><path fill="#746d6d" d="M118.99 168.82l.78 2.4c.84 3.33 3.14 5.91 6.11 7.53l.27 2.88-8.04-.57.43-2.79c.4-3.13.51-6.3.45-9.45z"/><path fill="#393b3b" d="M214.04 169.85c5.86-.42 11.73.06 17.59-.2-1.09 4.64-3.91 8.58-7.37 11.76l4.73 4.82-2.97.06-.95 3.88c-.6-1.72-.91-3.52-1.19-5.31l-4.47-1.48-1.13-.39c-1.96-.66-3.93-1.25-5.9-1.83.22-3.81.49-7.66 1.66-11.31z"/><path fill="#e09d7c" d="M187.89 171.01c1.41 3.96 4.26 7.22 8.16 8.88-1.01 1.85-2.01 3.72-2.92 5.63-.77 1.6-1.49 3.23-2.14 4.88-1.9-1.89-4.01-3.7-5.27-6.11-1.06-2.31-1.03-4.93-1.07-7.42.89-2.05 2.13-3.93 3.24-5.86z"/><path fill="#67463e" d="M104.61 176.35c2.6-3.98 7.5-1.71 11.28-1.55l2.65 3.47c-4.02.07-8.04.29-12 1-.66-.97-1.32-1.93-1.93-2.92z"/><path fill="#756a68" d="M159.29 183.42c1.93-3.04 1.47-7.23 2.76-10.66a96.18 96.18 0 0 0 .73 3.37l.9 4.34 2.24 1.76.3 3.9-.85-.16c-7.42-1.82-15.12-1.68-22.62-3.01 1.65-.03 3.3-.1 4.94-.17 3.82.14 7.9 1.89 11.6.63z"/><path fill="#777374" d="M202.27 178.75l1.44-5.82c.2 2.79.16 5.96 2.01 8.25 2.26 1.54 5.05 1.98 7.62 2.8l-2.07 3.15c-3.22-3.44-9.04-3.83-12.62-.78-1.4 4.23-.02 9.27-3.21 12.92 1.59 4.04 2.82 8.36 5.48 11.84 1.88 1.02 4.19-.33 5.96-1.14 2.73-1.14 2.96-4.36 3.71-6.83l1.69 1.37-.08 2.08 4.9-1.78.6 3.24a14.56 14.56 0 0 0 6.79-8.21l.35.48 2.63 5.01c1.96-4.39 3.23-10.81-1.27-14.11l-.54-.49-.59-.56.95-3.88 2.97-.06c.29.32.89.95 1.19 1.27-1.83 1.52-.46 4.17 1.72 4.19l-.05.66c-.78 3.73-1.4 7.5-1.58 11.31l1.84 1.56 2.58-6.87 2.24-1.18c-.91-2.79-1.81-5.6-2.96-8.31 2.5 2.05 4.96 4.25 6.44 7.18l-7.64 14.5 2.62.6a131.73 131.73 0 0 0-3.1 4.71l-2.7.12-3.32.05 2.37-5.06c-4.98 3.16-10.52 5.34-16.36 6.28l-.67 6.42 4.31-1.23c-1.09 2.4-2.16 4.82-3.16 7.26-1.39-2.85-2.44-5.85-3.93-8.66-.43-1.13-1.64-1.55-2.61-2.08l-2.75 1.17c.59 7.28 5.79 13.12 12.1 16.3l.12-3.96.56.52c1.52 1.95 2.89 4.01 4.19 6.12-.75 1.27-.83 2.58-.24 3.93l-1.42.73c-2.94-2.04-5.43-4.62-8.06-7.02.67 8-3.08 17.28-11.17 20.02-2.82 1.38-5.92.18-8.6-.9 2.07-2.36 5.53-2.59 8.24-3.89l-.52 3.75c6.09-4.5 11.72-12.87 7.88-20.49-.79-1.61-1.73-3.14-2.63-4.67-.52-.89-1.02-1.79-1.47-2.7-.24-1.01-.44-2.02-.62-3.04l-.63-4.31-6.67-3.84c.59-1.02 1.15-2.07 1.6-3.16-1.15-2.03-3.29-3.2-5.08-4.59l-.92-5.4c.49.02 1.47.04 1.97.05-1.02-2.47-2.15-4.93-2.71-7.56.42-1.9.96-3.77 1.6-5.61.65-1.65 1.37-3.28 2.14-4.88 3.31-.6 6.39-2.25 8.33-5.06l.81-1.71m3.21 36.46c.7 1.46 2 2.42 3.33 3.28l.31-3.64-3.64.36z"/><path d="M177.47 174.8c1.19 2.3.54 4.6-1.15 6.44l-.19-2.14c.34-1.47.81-2.9 1.34-4.3zm-12.14 41.55l2.62-4.24c-.49 2.92-.62 5.92-.09 8.85l3.39 8.65c-.18 1.93-.63 3.82-1.05 5.71-2.14-4.46-3.48-9.25-4.77-14.01l-.1-4.96z" fill="#bdaea3"/><path fill="#6a615e" d="M130.43 180.22c.51-1.62.7-3.5 2.13-4.63l4.4 3.66-6.53.97z"/><path fill="#b67658" d="M180.01 193.26c3.97-4.62 2.97-10.93 4.64-16.39.04 2.49.01 5.11 1.07 7.42 1.26 2.41 3.37 4.22 5.27 6.11-.64 1.84-1.18 3.71-1.6 5.61-.36-1.66-.68-3.32-1-4.98-1.89.1-3.81.09-5.64.59-1.69.85-1.56 2.96-1.93 4.54l-.81-2.9z"/><path fill="#c4876a" d="M196.05 179.89l5.41.57c-1.94 2.81-5.02 4.46-8.33 5.06l2.92-5.63z"/><path fill="#76767a" d="M263.12 180.61l2.09-.47c.7 1.94 1.24 4 2.41 5.73a31.87 31.87 0 0 0 4.33-.65c1.22 3.56 2.3 7.19 2.59 10.96l-4.02-1.57c1.22 4.22 2.67 8.37 4.39 12.41-.4-2.96-.96-5.92-.96-8.92 2.84-.52 3.46 3.08 4.11 5.11 1.11 2.62-1.39 4.4-2.84 6.2.98 3.32 2.18 6.72 1.56 10.24-1.23-2.55-2.68-4.99-4.01-7.49l.75-3.27-4.76.95c-.91-1.99-1.78-3.99-2.59-6.02-2.64-7.27-4.87-14.75-6.14-22.4l1.04-.3c2.13 7.73 4.32 15.46 6.75 23.11l1.6-3.32c.23 2.91.47 6.31 3.43 7.78-.58-2.98-1.58-5.87-3.1-8.5-1.78-3.07-4.11-6.03-4.34-9.72-.56-3.32.45-7.29-2.29-9.86z"/><path fill="#d1c9c5" d="M218.28 182.99l1.13.39c-.87 1-2.3 2.3-3.71 1.55-.65-1.41 1.68-1.69 2.58-1.94z"/><path fill="#9a989a" d="M198.65 186.35c3.58-3.05 9.4-2.66 12.62.78 1.66 1.53 3.18 3.21 4.82 4.77l-3.5.15-.43 3.9-.24 1.77-2.44-.65c-.11-1.99-.27-3.97-.42-5.96l-2.72-.47 1.21 4.49c-1.68 1.23-3.39 2.43-4.91 3.86 2.59 1.51 5.49 2.43 7.95 4.15-.75 2.47-.98 5.69-3.71 6.83-1.77.81-4.08 2.16-5.96 1.14-2.66-3.48-3.89-7.8-5.48-11.84 3.19-3.65 1.81-8.69 3.21-12.92m5.77.19c-.57 1.03-1.04 2.1-1.53 3.17 1.24-.3 2.5-.59 3.71-1.02.84-1.2-1.12-2.23-2.18-2.15m-4.13 6.94c-1.07.86.28 2.87 1.46 2.07 1.05-.88-.28-2.9-1.46-2.07m4.85 13.75c-1.34.63-1.37 1.3-.08 2.01 1.34-.63 1.37-1.3.08-2.01z"/><path fill="#817e83" d="M169.04 201.34c3.05-4.91 5.18-10.34 6.04-16.06 1.09 4.74.78 9.62-.43 14.3l-1.44.85c-1.07 4.16-3.04 8.01-5.26 11.68l-2.62 4.24-3.04-1.76c-3.44.64-7.73 1.12-9.64 4.5-.54 2.82-.24 5.71-.37 8.57-4.82-3.16-5.01-9.62-3.07-14.5 2.89-5.91 8.48-10.07 14.69-12.01l-.9-3.13c.61 1.1 1.26 2.17 1.91 3.25l4.13.07m-3.96 1.74c-.96 1.7-.65 3.81-.93 5.69l3.45-.13 1.91-5.06c-1.45-.26-3.19-2.11-4.43-.5m-6.43 1.91c-.13 2.31.96 4.29 2.5 5.95.7-2.21 1.33-4.43 1.93-6.67l-4.43.72m-7.64 12.25c2.8-1.81 5.33-4 7.76-6.28l-1.59-3.02c-2.84 2.51-5.49 5.43-6.17 9.3z"/><path d="M204.42 186.54c1.06-.08 3.02.95 2.18 2.15-1.21.43-2.47.72-3.71 1.02l1.53-3.17zm27.48 5.15c-2.18-.02-3.55-2.67-1.72-4.19 1.17 1.04 2.07 2.56 1.72 4.19zm-58.34 18.73c1.23-1.94 3.86-1.66 5.83-2.18.69 1.05 1.45 2.05 2.27 3.02 3.37 2.84 6.93 5.46 10.56 7.96l2.78 1.8c-1.32 2.26-2.69 4.48-4.09 6.69 1.87-1.25 3.75-2.48 5.67-3.65-.84 3.9-2.79 7.42-5.54 10.31l4.12-.01c1.45-2.81 2.7-5.72 3.79-8.68l2.88-.86c.18 1.02.38 2.03.62 3.04-1.55 1.55-3.11 3.09-4.49 4.8a33.03 33.03 0 0 0-1.6 2.44l-3.75.44-.12 2.86c-4.52-1.61-9.31-2.12-14.05-2.61 1.19-1.79 2.33-3.62 3.47-5.43-2.02.55-4.53.67-5.86 2.51-.63 2.22-.55 4.56-.67 6.84l4.84.32c3.49.49 7.29-.85 10.49 1.1l-.8.57c-2.29 1.74-4.74 3.82-7.84 3.47-4.46-.32-9.44-.33-13.23-3.02-2.85-3.13-4.44-7.2-5.93-11.11-1.41-3.48 1.29-6.66 2.52-9.73 1.29 4.76 2.63 9.55 4.77 14.01 1.61-.75 3.54-1.13 4.75-2.52.36-2.27.27-4.58.29-6.87l-3.99 3.68c-1.07-2.91-2.36-5.73-3.39-8.65 2-3.46 3.45-7.23 5.7-10.54z" fill="#fefcfb"/><path fill="#55392d" d="M250.17 199.35c2.79-3.08 3.48-7.73 6.6-10.39 1.61 3.5 2.35 7.3 2.89 11.08-1.91-1.64-3.77-3.32-5.6-5.03 1.09 3.34 2.03 6.73 2.53 10.22-1.65-1.36-3.34-2.66-5.01-3.98l-6.93 10.33-2.54 3.46 2.54-5.66c1.7-3.42 3.54-6.77 5.52-10.03z"/><path fill="#8a898d" d="M258.24 188.23c2.9 3.02 3.62 7.31 3.88 11.33-2.83-3.07-3.5-7.34-3.88-11.33z"/><path fill="#f4af88" d="M182.75 191.62c1.83-.5 3.75-.49 5.64-.59l1 4.98c.56 2.63 1.69 5.09 2.71 7.56l-1.97-.05.92 5.4c-4.07-2.68-7.62-6.25-9.6-10.76l-.63-2c.37-1.58.24-3.69 1.93-4.54z"/><path fill="#bab7bc" d="M206.34 190.64l2.72.47.42 5.96.14 3.27 3.18-.96-.06 4.14c2.86-1.57 5.47-3.56 7.54-6.09l-8.12-1.48.43-3.9 3.5-.15c3.03 2.23 6.51-.38 9.57-1.17l.54.49c-1.01 1.54-2.17 3.02-2.86 4.74.29 1.52.91 2.94 1.5 4.36l-.35-.48c-4.55-.08-8.11 3.24-12.21 4.67l-1.69-1.37c-2.46-1.72-5.36-2.64-7.95-4.15 1.52-1.43 3.23-2.63 4.91-3.86l-1.21-4.49z"/><path fill="#949194" d="M223.34 195.96c.69-1.72 1.85-3.2 2.86-4.74 4.5 3.3 3.23 9.72 1.27 14.11l-2.63-5.01c-.59-1.42-1.21-2.84-1.5-4.36z"/><path fill="#e1dcd7" d="M200.29 193.48c1.18-.83 2.51 1.19 1.46 2.07-1.18.8-2.53-1.21-1.46-2.07z"/><path fill="#524e4d" d="M230.27 203.66c.18-3.81.8-7.58 1.58-11.31.9 2.02 1.89 4 2.84 6l-2.58 6.87-1.84-1.56z"/><path d="M212.16 195.95l8.12 1.48c-2.07 2.53-4.68 4.52-7.54 6.09l.06-4.14-3.18.96-.14-3.27 2.44.65.24-1.77zm17.43 20.02l2.7-.12c-.83 1.21-1.61 2.48-2.66 3.52-.07.05-.21.17-.28.23-1.35.92-2.85 1.6-4.37 2.19l-3.07-.07c2.85-1.49 5.85-2.97 7.68-5.75zm-27.67 17.61l2-3.02 2.63 4.67-4.63-1.65z" fill="#f1eaee"/><path fill="#5d595a" d="M240.41 196.04l1.59 5.49c-2.35 3.1-4.47 6.37-6.61 9.61l-2.62-.6c2.42-4.9 5.12-9.65 7.64-14.5z"/><path fill="#8a8387" d="M181.45 198.16c1.98 4.51 5.53 8.08 9.6 10.76 1.79 1.39 3.93 2.56 5.08 4.59-.45 1.09-1.01 2.14-1.6 3.16l6.67 3.84-6.2.51-2.78-1.8c.22-1.58.49-3.15.48-4.74-2.15-2.34-4.99-3.86-7.62-5.58l-3.42 2.36c-.82-.97-1.58-1.97-2.27-3.02-.94-1.82-1.75-3.71-2.73-5.5 1.85-1.23 3.46-2.8 4.79-4.58z"/><path fill="#969196" d="M212.28 204.51c4.1-1.43 7.66-4.75 12.21-4.67a14.56 14.56 0 0 1-6.79 8.21l-.6-3.24-4.9 1.78.08-2.08z"/><path fill="#f0e5dd" d="M173.21 200.43l1.44-.85 2.01 3.16 2.73 5.5c-1.97.52-4.6.24-5.83 2.18-2.25 3.31-3.7 7.08-5.7 10.54-.53-2.93-.4-5.93.09-8.85 2.22-3.67 4.19-7.52 5.26-11.68z"/><path opacity=".75" d="M244.65 211.58c2.39-3.38 4.59-6.91 6.93-10.33l5.01 3.98c1.28 1.73 2.33 3.63 3.2 5.6l-4.4 4.54c2.02 6.84 3.81 13.77 6.32 20.46l5.47-1.22c-.57-2.88-1.31-5.75-2.47-8.45l1.9.82c1.86 5.96 3.32 12.05 5.62 17.86-2.14-2.7-3.47-5.9-4.72-9.08-2.53 1.7-4.9 3.62-7.06 5.78-8.32-.25-16.63.47-24.96.08l-1.22-2.31c3.88.64 7.74 1.72 11.71 1.68 3.7-.01 7.01-1.87 10.28-3.38-4.98-8.18-7.03-17.65-11.61-26.03z"/><path fill="#414244" d="M269.42 200.91l.33-.72c1.52 2.63 2.52 5.52 3.1 8.5-2.96-1.47-3.2-4.87-3.43-7.78z"/><path d="M259.15 203.47l1.88-1.6 1.61 7.25-.05 3.15c-1.36-2.85-2.44-5.81-3.44-8.8zm-55.68 16.65l2.75-1.17c-.85 4.16.32 8.23 3.37 11.18-.16-3.04-.36-6.08-.76-9.1 1.49 2.81 2.54 5.81 3.93 8.66.95.95 1.94 1.85 2.93 2.77l-.12 3.96c-6.31-3.18-11.51-9.02-12.1-16.3z" fill="#aeabac"/><path fill="#4b4d53" d="M261.03 201.87l5.14 1.95 2.59 6.02 3.44 7.62 1.59 3.74-3.09-1.64-2.03-1.1c.7 8.45 4.22 16.25 6.22 24.41l-.63.74c-2.81-5.89-4.55-12.2-6.53-18.4l-1.12 1.77-1.9-.82c-1.73-3.9-2.81-8.02-3.93-12.11l3.98.14 1.59 6.75.98-2.3c1.01-1.52.56-3.36-.2-4.86l.42-3.46-2.77 1.79-2.14-2.99c-.6-2.4-1.13-4.82-1.61-7.25z"/><path fill="#020203" opacity=".53" d="M281.58 201.22c2.72 4.77 2.45 10.5 1.39 15.71-1.09 5.04-3.96 9.4-6.21 13.96l-1.91-5.85 2.21 1.06c1.24-2.49 2.51-4.96 3.61-7.5.97-2.01.96-4.26.93-6.43-.05-3.65-.16-7.3-.02-10.95z"/><path fill="#aeaab1" d="M158.65 204.99l4.43-.72-1.93 6.67c-1.54-1.66-2.63-3.64-2.5-5.95z"/><path fill="#e3dcde" d="M205.14 207.23c1.29.71 1.26 1.38-.08 2.01-1.29-.71-1.26-1.38.08-2.01z"/><path fill="#cac3c9" d="M151.01 217.24c.68-3.87 3.33-6.79 6.17-9.3l1.59 3.02c-2.43 2.28-4.96 4.47-7.76 6.28z"/><path fill="#c0babc" d="M181.66 211.26l3.42-2.36c2.63 1.72 5.47 3.24 7.62 5.58.01 1.59-.26 3.16-.48 4.74-3.63-2.5-7.19-5.12-10.56-7.96z"/><path fill="#737277" d="M277.61 211.18l2.43-2.43v6.8c-.98-1.35-2.46-2.56-2.43-4.37z"/><path fill="#5f5a57" d="M212.28 217.24c5.84-.94 11.38-3.12 16.36-6.28l-2.37 5.06 3.32-.05c-1.83 2.78-4.83 4.26-7.68 5.75l3.07.07c-1.63.66-3.24 1.35-4.8 2.14-2.27 1.29-4.45 2.7-6.68 4.05.89 1.68 1.77 3.36 2.75 5l-.56-.52-2.93-2.77c1-2.44 2.07-4.86 3.16-7.26l-4.31 1.23.67-6.42z"/><path fill="#828288" d="M267.33 218.64c-1.88-1.05-1.46-3.51-.2-4.86.76 1.5 1.21 3.34.2 4.86z"/><path fill="#938c92" d="M162.29 214.59l3.04 1.76.1 4.96c-1.23 3.07-3.93 6.25-2.52 9.73 1.49 3.91 3.08 7.98 5.93 11.11 3.79 2.69 8.77 2.7 13.23 3.02 3.1.35 5.55-1.73 7.84-3.47l1.78.95c1.81-.73 3.61-1.51 5.51-2 .98.8 1.51 1.96 2.15 3.03-6.3.36-11.83 3.52-17.86 4.9-5.03.49-10.56 2.33-15.23-.48-1.37-3.54-3.17-6.9-5.22-10.08-.74-3.7-.65-7.51.05-11.2 1.48-3.84 3.97-8.38 1.2-12.23z"/><path fill="#fbfaf8" d="M205.48 215.21l3.64-.36-.31 3.64c-1.33-.86-2.63-1.82-3.33-3.28z"/><path d="M231.05 232.94c3.34-5.31 6.28-10.86 9.91-15.98-2.89 5.71-6.54 10.98-9.61 16.59l-.3-.61zm-33.09-.28c1.24 2.88 2.63 5.73 3.35 8.79.7 2.95-.14 5.94-.66 8.84l-1.19-6.13-.11-.48c-.64-1.07-1.17-2.23-2.15-3.03-1.9.49-3.7 1.27-5.51 2l-1.78-.95.8-.57 4.67-2.66.98-3.37 1.6-2.44z" fill="#6d686b"/><path fill="#77767b" d="M268.67 218.46l2.03 1.1c2.29 9.72 5.65 19.14 9.02 28.53 1.11 3.02 1.2 6.27.92 9.45l-1.15-.36c-2.05-4.59-3.17-9.51-4.6-14.31-2-8.16-5.52-15.96-6.22-24.41z"/><path fill="#fffefe" d="M206.22 218.95c.97.53 2.18.95 2.61 2.08l.76 9.1c-3.05-2.95-4.22-7.02-3.37-11.18z"/><path fill="#423f3f" opacity=".69" d="M229.35 219.6l.28-.23c-.07.05-.21.17-.28.23z"/><path fill="#cec1bb" d="M195 221.02l6.2-.51.63 4.31-2.88.86c-1.09 2.96-2.34 5.87-3.79 8.68l-4.12.01c2.75-2.89 4.7-6.41 5.54-10.31-1.92 1.17-3.8 2.4-5.67 3.65 1.4-2.21 2.77-4.43 4.09-6.69z"/><path fill="#65666b" d="M266.61 226.98l1.12-1.77c1.98 6.2 3.72 12.51 6.53 18.4l-1.58 1.87-.45-.64c-2.3-5.81-3.76-11.9-5.62-17.86z"/><path fill="#ded7d3" d="M171.25 229.61l3.99-3.68c-.02 2.29.07 4.6-.29 6.87-1.21 1.39-3.14 1.77-4.75 2.52l1.05-5.71z"/><path fill="#5e3732" opacity=".93" d="M156.51 234.42c.43-3.09 2.33-5.57 4.58-7.6-.7 3.69-.79 7.5-.05 11.2-1.46-1.26-3-2.43-4.53-3.6z"/><path fill="#99959c" d="M202.45 227.86l1.47 2.7-2 3.02 4.63 1.65c3.84 7.62-1.79 15.99-7.88 20.49l.52-3.75c.4-2.59.51-5.21.27-7.81.43 2.04.82 4.08 1.19 6.13.52-2.9 1.36-5.89.66-8.84-.72-3.06-2.11-5.91-3.35-8.79 1.38-1.71 2.94-3.25 4.49-4.8z"/><path fill="#e4dcd8" d="M176.05 232.87c1.33-1.84 3.84-1.96 5.86-2.51l-3.47 5.43-1.88 2.89 3.66 1.35-4.84-.32c.12-2.28.04-4.62.67-6.84z"/><path fill="#25272e" d="M229.49 236.84l1.56-3.9.3.61 2.92 5.76 1.22 2.31c3.04 5.48 8.1 9.66 13.73 12.29 7.81 3.63 17.59 3.03 24.6-2.11 2.62-1.37-.13-4.58-1.14-6.32l1.58-1.87.63-.74c1.43 4.8 2.55 9.72 4.6 14.31-1.8-.52-3.61-.99-5.45-1.3 1.17-1.04-.73-3.5-1.33-1.45l.59 1.59c-11.58 4.23-25.53 1.82-34.37-6.96-3.87-3.5-5.82-8.52-9.44-12.22z"/><path fill="#8a5a49" d="M156.51 234.42l4.53 3.6c2.05 3.18 3.85 6.54 5.22 10.08l-6.37-3.14c-1.48-1.57-3.1-3.1-4.02-5.08-.3-1.84.32-3.67.64-5.46z"/><path fill="#baab9e" d="M192.61 235.54l3.75-.44-.98 3.37-4.67 2.66c-3.2-1.95-7-.61-10.49-1.1l-3.66-1.35 1.88-2.89c4.74.49 9.53 1 14.05 2.61l.12-2.86z"/><path fill="#343233" opacity=".75" d="M220.44 239.1c.96 1.05 1.45 3.31-.24 3.93-.59-1.35-.51-2.66.24-3.93z"/><path fill="#99999d" d="M285.16 249.26c3.35.23-1.59 2.96 0 0z"/><path fill="#7d7d83" d="M272.71 254.43c.6-2.05 2.5.41 1.33 1.45l-.74.14-.59-1.59z"/></svg>