<svg xmlns="http://www.w3.org/2000/svg" width="512" height="512" viewBox="0 0 384 384" xmlns:v="https://vecta.io/nano"><path fill="#1b1c1e" d="M189.13 122.6c4.41-.48 9.08-.55 13.27 1.09 3.17 2.04 5.6 4.98 8.19 7.68-.2 1.7-.3 3.4-.35 5.11-1.08-.56-2.19-1.07-3.28-1.61-.83-.75-1.66-1.5-2.43-2.3-1.25-1.72-2.1-3.92-4.07-4.96-3.02-1.5-6.46-1.65-9.76-1.96-.58-.99-1.07-2.02-1.57-3.05z"/><path fill="#363434" d="M190.7 125.65c3.3.31 6.74.46 9.76 1.96 1.97 1.04 2.82 3.24 4.07 4.96-2.84-.57-5.38-1.97-7.77-3.53l-1.91 1.81-4.15-5.2z"/><path fill="#787373" d="M194.85 130.85l1.91-1.81c2.39 1.56 4.93 2.96 7.77 3.53l2.43 2.3 4.72 7.41-.71 4.15c-2.7-2.76-6.41-4-10.18-4.38l3.23-.11c-1.9-1.05-3.8-2.1-5.75-3.04l-.54-5.25-2.29-2.17-.59-.63m11.34 6.52c-1.57 2.97 3.33.17 0 0z"/><path fill="#84543d" opacity=".73" d="M185.86 132.65c1.15-1.09 2.82-.92 4.18-.36-1.15.9-3 1.64-4.18.36z"/><path fill="#e6a07c" d="M190.04 132.29l5.4-.81 2.29 2.17.54 5.25c-1.66-.4-3.33-.69-5.02-.88l.25-2.39c-1.77-.36-3.53-.82-5.33-.86-2.81.85-4.9 3.04-7.1 4.87l-.14-3.63c1.57-1.22 3.26-2.27 4.93-3.36 1.18 1.28 3.03.54 4.18-.36z"/><path fill="#2f3033" d="M210.24 136.48l.35-5.11c3.04 2.99 5.74 6.61 9.69 8.48 2.79 1.35 5.57-.69 8.07-1.76l5.01 4.28-.96 1.57c-3.97 1.08-7.29 3.55-10.23 6.34l5.09 2.21c-1.2 1.42-1.97 4.07-4.26 3.76a19.53 19.53 0 0 1-2.86-.3l-.68-.59 1.51-.82c-.84-7.12-4.16-14.53-10.73-18.06z"/><path fill="#91694f" d="M181.07 139.64c2.2-1.83 4.29-4.02 7.1-4.87 1.8.04 3.56.5 5.33.86l-.25 2.39c-5.73 1.12-10.17 5.08-13.68 9.52l-.68-3.78c.45-2.64 1.09-5.25 2.04-7.75l.14 3.63z"/><path fill="#635e5f" d="M206.96 134.87l3.28 1.61c6.57 3.53 9.89 10.94 10.73 18.06l-1.51.82c-1.71.67-2.85 2.09-3.57 3.73l-.65 1.3c-1.31 1.72-2.76 3.32-4.2 4.92 1.34-3.36 2.78-6.69 4.24-10.01l-4.18-.97 4.46-4.63c-1.57-1.03-3.12-2.09-4.59-3.27l.71-4.15-4.72-7.41z"/><path fill="#161519" opacity=".97" d="M270.96 136.74l2.69-.56c4.45 5.23 7.62 11.62 8.35 18.51-1.85 7.82-2.04 16.03-4.88 23.61-.57 2.08-2.61 3.08-4.2 4.29 3.95-7.21 6.84-15.24 6.56-23.57-.13-8.05-2.25-16.76-8.52-22.28z"/><path fill="#d6cfc7" d="M206.19 137.37c3.33.17-1.57 2.97 0 0z"/><path fill="#393c3b" d="M179.57 147.54c3.51-4.44 7.95-8.4 13.68-9.52 1.69.19 3.36.48 5.02.88 1.95.94 3.85 1.99 5.75 3.04l-3.23.11c-7.76-.16-14.99 3.54-20.66 8.6l-.56-3.11z"/><path fill="#171718" d="M245.07 146.72c7.72-2.72 15.49-5.34 22.97-8.67l1.78.44c-8.27 2.73-16.56 5.52-24.49 9.13a439.61 439.61 0 0 1 16.74 16.43l.11 3.92-3.15-1.18c-2.39-1.03-4.87-2.17-6.61-4.16-.98-2.27-.89-4.81-1.17-7.22l-1.57 4.29c-2.65-2.53-5.39-4.95-8.22-7.27l.6-7.8c-1.32 2.45-2.3 5.17-4.22 7.23-2.28 1.97-4.96 3.39-7.43 5.09l2.03 2.26-1.09 2.12-.9 1.71c-3.78-1.83-7.29-4.17-10.31-7.09a19.53 19.53 0 0 0 2.86.3c2.29.31 3.06-2.34 4.26-3.76l-5.09-2.21c2.94-2.79 6.26-5.26 10.23-6.34l.96-1.57 5.72-1.05a169.61 169.61 0 0 1 5.99 5.4z"/><path fill="#8c888a" d="M180.13 150.65c5.67-5.06 12.9-8.76 20.66-8.6 3.77.38 7.48 1.62 10.18 4.38 1.47 1.18 3.02 2.24 4.59 3.27l-4.46 4.63 4.18.97-4.24 10.01c1.44-1.6 2.89-3.2 4.2-4.92-.06 2.13-.01 4.27.01 6.4-1.21 1.11-2.53 2.13-3.53 3.44-.18 1.3 0 2.61.07 3.91l1.03.08c3.9.41 7.59 1.85 11.06 3.62l-.87 3.45c-.32.86-.93 3.41.73 3.03.71-1.08.66-2.16-.15-3.24l4.88-1.87 1.73 4.56-3.63-1.59c.56 2.73 1.36 5.41 1.88 8.15.48 2.62-.64 5.16-1.33 7.64l-2.55-1.36.05-6.02c-.3.05-.9.13-1.2.17l-.78.08c-.35-1.77-.59-3.57-1.2-5.28-1-1.17-2.51-1.71-3.81-2.46l-1.13 2.97-3.8-.3-1.74-.2-.72 3.99c-1.56-2.95-.26-5.97.95-8.76a23.16 23.16 0 0 0 .79-2.7c-.9-.85-1.94-1.54-2.99-2.18.4-2.15-2.41-3.62-3.07-1.09-3.5-2.08-3.65-6.31-2.97-9.9 1.31-3.25 3.24-6.2 5-9.21 1.17-1.89 2.53-3.67 3.48-5.69-3.82-6.35-12.73-5.68-18.93-3.93-5.79 1.71-10.84 5.45-13.58 10.91a93.25 93.25 0 0 1-.84-3.18c-.53-3.37.34-6.74.81-10.07l.68 3.78.56 3.11m25.19 19.32c.01 1.33 1.52 1.65 2.39 2.29l2.67-12.19c-3.55 1.9-5.34 5.98-5.06 9.9z"/><path fill="#4d5559" d="M192.5 146.1c6.2-1.75 15.11-2.42 18.93 3.93-.95 2.02-2.31 3.8-3.48 5.69-2.5-.81-5.1-1.31-7.72-1.5l.69 5.01-5.58 1.34c.91-2.23 1.8-4.47 2.57-6.75-2.7-1.86-4.74-4.46-5.41-7.72z"/><path fill="#2c2d30" d="M237.84 151.86c1.92-2.06 2.9-4.78 4.22-7.23l-.6 7.8c2.83 2.32 5.57 4.74 8.22 7.27l1.57-4.29c.28 2.41.19 4.95 1.17 7.22 1.74 1.99 4.22 3.13 6.61 4.16l1.69 3.37 1.47 2.12c-1.85-.43-3.63-1.07-5.41-1.7l2.91 4.43c.78 3.5 2.73 6.58 5.86 8.42 3.67 2.43 6.98 5.44 9.14 9.34-4.52 2.31-7.58 6.39-10.73 10.21-3.41 4.18-8.77 5.91-12.59 9.61a19.6 19.6 0 0 1 .03-4.96c2.28-.5 4.47-1.36 6.45-2.61 5.8-2.81 8.7-8.83 12.14-13.93l-2.9-1.37c-2.29-1.09-4.69-1.92-7-2.96-.87-.68-1.71-1.39-2.51-2.14-1.54-1.51-3.03-3.09-4.81-4.31-7.64-4.51-12.77-12.25-20.83-16.14-.18-.95-.39-1.9-.59-2.84l1.09-2.12-2.03-2.26c2.47-1.7 5.15-3.12 7.43-5.09m7.82 13.53c2.17-.65 3.6-2.35 4.59-4.31-2.12.75-4.03 1.99-4.59 4.31m9.51 2.9c-1.54-.05-1.95 2.7-.23 2.71 1.52.04 1.93-2.68.23-2.71z"/><path fill="#3f4343" d="M178.92 157.01c2.74-5.46 7.79-9.2 13.58-10.91.67 3.26 2.71 5.86 5.41 7.72-.77 2.28-1.66 4.52-2.57 6.75l5.58-1.34-.69-5.01c2.62.19 5.22.69 7.72 1.5-1.76 3.01-3.69 5.96-5 9.21-.68 2.27-1.13 4.61-1.76 6.9-6.65-.87-12.55 3.41-19.11 3.19-2.34.18-3.31-2.38-3.71-4.26-.53-4.41 1.06-8.84.13-13.25l-.42-3.68a93.25 93.25 0 0 0 .84 3.18m17.32 7.25c.54.55.54.55 0 0m-.01 4.95c.56.56.56.56 0 0z"/><path fill="#030202" opacity=".69" d="M258.99 148.48c8.51 7.58 8.33 20.15 5.97 30.4-1.65-1.43-3.48-2.63-5.27-3.87l-2.91-4.43c1.78.63 3.56 1.27 5.41 1.7 1.51.7 2.48-1.78 1.26-2.62-1.03-.59-1.94-.42-2.73.5l-1.69-3.37 3.15 1.18-.11-3.92 1.99 1.91c-.09-6.22-2.71-11.87-5.07-17.48z"/><path fill="#010101" opacity=".76" d="M215.89 159.09c.72-1.64 1.86-3.06 3.57-3.73l.68.59c3.02 2.92 6.53 5.26 10.31 7.09.18 4.51.53 9.09-.2 13.57-3.39-2.99-4.74-7.48-7.45-11a43 43 0 0 0-1.31-1.71c-1.72-1.77-3.66-3.3-5.6-4.81z"/><path fill="#2b2d30" d="M277.12 178.3c2.84-7.58 3.03-15.79 4.88-23.61 1.9 10.97-1.27 22.09-6.56 31.66l-4.17-2.48 1.65-1.28c1.59-1.21 3.63-2.21 4.2-4.29z"/><path fill="#aa8c84" d="M178.5 157.51c.93 4.41-.66 8.84-.13 13.25.4 1.88 1.37 4.44 3.71 4.26 6.56.22 12.46-4.06 19.11-3.19-2.13 2.7-5.13 4.5-7.47 6.98-2.15 2.04-.66 5.15-.38 7.64l-4.05-.42c-.11-2.64-.42-5.26-.68-7.88-3.71-.02-7.65-.41-11.04 1.4-1.26.84-2.48 1.74-3.71 2.62.98-4.5 2.8-8.96 1.45-13.62.86-3.74 2.12-7.36 3.19-11.04z"/><path fill="#f5eef0" d="M205.32 169.97c-.28-3.92 1.51-8 5.06-9.9l-2.67 12.19c-.87-.64-2.38-.96-2.39-2.29z"/><path fill="#d99c7b" d="M215.24 160.39l.65-1.3 5.6 4.81-2.27 5.46-3.97-2.57-.01-6.4z"/><path d="M230.45 163.04l.9-1.71.59 2.84c-.61 4.44-.45 8.95-.38 13.42-.46-.31-.89-.63-1.31-.98.73-4.48.38-9.06.2-13.57zm-2.28 15.41l1.41 1.02c2.21 2.7 3.06 6.17 3.08 9.61l-2.46-5.31c-.62-1.51-1.17-3.04-1.73-4.56l-.3-.76zm-48.71 32.66l3.32-.25c1.84 5.03 2.24 10.4 1.21 15.65l-.5-1.93c-.67-3.3-1.13-6.66-2.09-9.89-.6-1.22-1.27-2.4-1.94-3.58zm7.62 15.31c-.39-4.05-2.75-10.11 2.11-12.27 3.43 1.11 7.04.75 10.53.17 1.02 2.5 2.23 4.94 3.79 7.15 2.32 3.4 4.32 7.1 7.38 9.91l.57.55-3.56 3.68c-1.25-1.84-1.52-4.92-3.95-5.53-.73 2.24-1.13 4.56-1.55 6.87l3.14 1.32c3.71.45 6.99-1.73 10.43-2.73l2.48 2.07c-3.13 3.59-7.15 6.33-11.44 8.36-4.55 2.22-9.23-.96-13.36-2.7-3.31-1.35-4.73-4.82-6.46-7.67l1.05-2.4c3.47 2.89 6.89 6.21 11.45 7.24 1.26-1.34 2.73-3.05 2-5.04-1.03-1.9-2.85-3.19-4.39-4.65l-.15 4.6-1.79-.79c-3.54-1.68-8.16-3.54-8.28-8.14z" fill="#fdf9f9"/><path fill="#5a5b5f" d="M245.66 165.39c.56-2.32 2.47-3.56 4.59-4.31-.99 1.96-2.42 3.66-4.59 4.31z"/><path fill="#b3b2af" d="M196.24 164.26c.54.55.54.55 0 0z"/><path fill="#635b58" d="M221.49 163.9l1.31 1.71c-.1 2.82-.33 5.81.96 8.42.96 1.91 2.79 3.12 4.41 4.42l.3.76-4.88 1.87-.58.21.87-3.45c-3.47-1.77-7.16-3.21-11.06-3.62 2.98-.3 5.72-1.75 6.4-4.86l2.27-5.46z"/><path fill="#716d6f" d="M201.19 171.83l1.76-6.9c-.68 3.59-.53 7.82 2.97 9.9.89.66 1.91 1.02 3.07 1.09 1.05.64 2.09 1.33 2.99 2.18a23.16 23.16 0 0 1-.79 2.7l-1.17-2.95c-3.44-.35-6.92-1.05-10.39-.64-1.66 1.58-2.19 3.95-2.54 6.13-.77 5.78-.32 11.68.95 17.35.81 2.19 2.46 5.75 5.36 4.43 4.05-1 5.97-4.89 6.05-8.81l2.26 2.9c2.81-.32 5.62.09 8.33.84 1.33-2.23 2.48-4.61 2.97-7.19l.41-2.1 1.2-.17-.05 6.02 2.55 1.36c.69-2.48 1.81-5.02 1.33-7.64-.52-2.74-1.32-5.42-1.88-8.15l3.63 1.59c.78 1.79 1.66 3.53 2.46 5.31l.18 2.23 2.59-.19c.27-4.6-1.88-9.22-5.85-11.65l-1.41-1.02c-1.62-1.3-3.45-2.51-4.41-4.42-1.29-2.61-1.06-5.6-.96-8.42 2.71 3.52 4.06 8.01 7.45 11 .42.35.85.67 1.31.98l.78.49c3.58 2.82 5.7 6.94 8.16 10.67-1.85 5.2-6.86 8.88-6.96 14.76-1.04 1.02-1.97 2.14-2.89 3.25 2.65 1.59 5.39 3.03 8.16 4.4l-9.3-3.32c-.3 2.74-.06 5.52 1.18 8.02l-2.35 1.1-4.49-1.38c-1.52-.52-3.02-1.12-4.51-1.73 2.12-1.53 4.42-2.79 6.77-3.93-3.82.11-7.75-.33-11.46.73-1.8 1.19-2.25 3.66-3.31 5.45-.83-1.74-2.06-3.25-3.55-4.46-1.57.64-3.12 1.36-4.61 2.18l-1.53 1.26c-.55-1.68-1.19-3.34-1.81-4.99l-5.96-.29 4.28-1.69-5.36-.98c-2.59-4.27-2.89-9.29-1.85-14.08.24-1.49.39-3.07-.14-4.52l-1.58 1.3.06-3.8 4.05.42c-.28-2.49-1.77-5.6.38-7.64 2.34-2.48 5.34-4.28 7.47-6.98m-6.07 20.29c-1.54 3 3.32.17 0 0m12.1 17.13c.54.54.54.54 0 0z"/><path opacity=".76" d="M231.56 177.59c-.07-4.47-.23-8.98.38-13.42 8.06 3.89 13.19 11.63 20.83 16.14l-2.58-.48c2.12 1.83 4 6.45 7.39 4.79.8.75 1.64 1.46 2.51 2.14.09 1.55.31 3.12.11 4.68-1.17 1.46-2.8 2.45-4.18 3.69-3.06 2.58-5.18 6.11-8.45 8.46-2.71 1.94-5.79 3.23-8.76 4.71l3.37 2.41c-.27.36-.83 1.07-1.11 1.43-2.27 1.88-4.67 3.59-7.04 5.33-1.11-.56-2.22-1.1-3.34-1.61-1.24-2.5-1.48-5.28-1.18-8.02l9.3 3.32c-2.77-1.37-5.51-2.81-8.16-4.4.92-1.11 1.85-2.23 2.89-3.25 1.65-.63 3.36-1.14 5.06-1.64l.08 4.25c6.98-2.71 12.76-8.41 14.55-15.8-7.25-3.59-13.49-8.89-20.89-12.24l-.78-.49z"/><path fill="#4e3f37" d="M211.72 170.23c1-1.31 2.32-2.33 3.53-3.44l3.97 2.57c-.68 3.11-3.42 4.56-6.4 4.86l-1.03-.08c-.07-1.3-.25-2.61-.07-3.91z"/><path fill="#807e85" d="M255.17 168.29c1.7.03 1.29 2.75-.23 2.71-1.72-.01-1.31-2.76.23-2.71z"/><path fill="#4a2a1b" d="M171.19 171.68l4.12-3.13c1.35 4.66-.47 9.12-1.45 13.62.02 1.81.13 3.61.26 5.42l.11 6.82c-.04 3.12-.29 6.31.43 9.37 1.08 3.93 2.26 7.83 3.03 11.84a99.02 99.02 0 0 1-4.48-1.93c1.57-2.32.25-4.91-.42-7.27l-4.25-.13-.43-5.28-.37-5.18c-5.25.07-10.5.33-15.76.12-1.35-.05-2.7-.05-4.05 0a105.88 105.88 0 0 0-3.13 1.16c-2.98.29-5.97.08-8.95-.02 10.22-2.43 20.72-.86 31.07-1.85l-.53-4.24c-2.76-.87-5.59-1.55-8.49-1.58l6.03-.46 3.54 1.45c-.13-3.25-.15-6.49-.07-9.74 1.52-.94 3.35-1.57 4.51-2.98.53-1.43.83-2.92 1.2-4.39l-1.92-1.62z"/><path fill="#cbc9cb" d="M196.23 169.21c.56.56.56.56 0 0z"/><path fill="#a99f99" d="M170 172.67l1.19-.99 1.92 1.62-1.2 4.39c-1.16 1.41-2.99 2.04-4.51 2.98l-1.98 1c.61-3.39 2.3-6.45 4.58-9z"/><path fill="#776c66" opacity=".96" d="M163.52 174.05c2.14-.57 4.33-.91 6.48-1.38-2.28 2.55-3.97 5.61-4.58 9l1.98-1c-.08 3.25-.06 6.49.07 9.74l-3.54-1.45c-1.75-.82-3.47-1.71-5.18-2.59l.11-5.17c1.72 2.13 3.82 3.92 6.14 5.4-.89-4-.81-8.09-.67-12.15l-.81-.4z"/><path fill="#eee8e2" d="M205.92 174.83c.66-2.53 3.47-1.06 3.07 1.09-1.16-.07-2.18-.43-3.07-1.09z"/><path fill="#755249" d="M163.52 174.05l.81.4c-1.67 2.02-3.75 3.61-5.76 5.27-2.05 1.39-.7 4.24-.62 6.24-2.44-.18-4.89-.11-7.33.04-.48-1.77-1.46-3.8-.23-5.49 1.58-2.67 4.8-3.52 7.49-4.64 1.4.61 2.44.24 3.14-1.12l2.5-.7z"/><path fill="#cec4bc" d="M164.33 174.45c-.14 4.06-.22 8.15.67 12.15-2.32-1.48-4.42-3.27-6.14-5.4l-.11 5.17-.8-.41c-.08-2-1.43-4.85.62-6.24 2.01-1.66 4.09-3.25 5.76-5.27z"/><path fill="#281f1d" opacity=".66" d="M157.88 175.87c.8-1.06 1.85-1.43 3.14-1.12-.7 1.36-1.74 1.73-3.14 1.12z"/><path fill="#101112" d="M259.69 175.01l5.27 3.87c1.99 1.8 3.96 3.66 6.31 4.99l4.17 2.48c.1 2.16.35 4.44-.75 6.42-2.16-3.9-5.47-6.91-9.14-9.34-3.13-1.84-5.08-4.92-5.86-8.42z"/><path fill="#9f9c9e" d="M199.63 177.21c3.47-.41 6.95.29 10.39.64l1.17 2.95c-1.21 2.79-2.51 5.81-.95 8.76l-3.17 1.64 2.97 3.2-7.38.1c-1.35 2.2-2.9 4.27-4.62 6.19-1.27-5.67-1.72-11.57-.95-17.35.35-2.18.88-4.55 2.54-6.13m-1.35 19.85c.08 3.33 3.01-1.51 0 0z"/><path fill="#df9c7b" d="M177.57 179.55c3.39-1.81 7.33-1.42 11.04-1.4.26 2.62.57 5.24.68 7.88.01 1.26-.03 2.53-.06 3.8-.28 1.36.6 2.56 1.72 3.22-1.04 4.79-.74 9.81 1.85 14.08l-1.91-.38a33.5 33.5 0 0 1-5.16-1.79c-1.78-.92-3.49-1.95-5.17-3.03 1.43-3.76 3.31-7.32 5.43-10.73l-7.39-5.91-1.03-5.74z"/><path fill="#a9a6a4" d="M229.58 179.47c3.97 2.43 6.12 7.05 5.85 11.65l-2.59.19-.18-2.23c-.02-3.44-.87-6.91-3.08-9.61z"/><path fill="#72605b" d="M173.86 182.17l3.71-2.62 1.03 5.74.27 1.45c-.81 4.54-1.99 9.01-2.98 13.52-1.26.74-1.27 2.23-1.23 3.52-.72-3.06-.47-6.25-.43-9.37.6-1.14 1.24-2.26 1.88-3.39l-1.99-3.43c-.13-1.81-.24-3.61-.26-5.42m2.39 3.11c.54.54.54.54 0 0z"/><path fill="#d2cec2" d="M223.01 181.29l.58-.21c.81 1.08.86 2.16.15 3.24-1.66.38-1.05-2.17-.73-3.03z"/><path fill="#b1adaf" d="M217.63 183.1c1.3.75 2.81 1.29 3.81 2.46.61 1.71.85 3.51 1.2 5.28-4.31 1.31-7.21-2.45-9.94-5.07 1.26.12 2.53.2 3.8.3l1.13-2.97z"/><path fill="#432d26" d="M150.62 186c2.44-.15 4.89-.22 7.33-.04l.8.41 5.18 2.59-6.03.46c-2.9.24-5.45-1.31-7.28-3.42z"/><path fill="#dbd0c4" d="M176.25 185.28c.54.54.54.54 0 0z"/><path fill="#a96d51" d="M178.6 185.29l7.39 5.91c-2.12 3.41-4 6.97-5.43 10.73l-.66-.45c.02-3.15 1.17-6.14 1.44-9.25-.52-1.95-1.65-3.67-2.47-5.49-.06-.37-.2-1.09-.27-1.45z"/><path d="M210.96 185.57l1.74.2c2.73 2.62 5.63 6.38 9.94 5.07l.78-.08-.41 2.1c-3.86.53-7.58 1.76-10.97 3.67l-2-2.13-2.97-3.2 3.17-1.64.72-3.99zm11.19 32.92l1.7-2.91 4.49 1.38-1.13 1.29-5.06.24z" fill="#ece5e9"/><path fill="#41332f" d="M175.89 200.26c.99-4.51 2.17-8.98 2.98-13.52.82 1.82 1.95 3.54 2.47 5.49-.27 3.11-1.42 6.1-1.44 9.25l-.1 4.61c-1.14-1.31-2.27-2.62-3.29-4.02l-.62-1.81z"/><path fill="#a2938f" d="M174.12 187.59l1.99 3.43-1.88 3.39-.11-6.82z"/><path fill="#f1ece5" d="M189.23 189.83l1.58-1.3c.53 1.45.38 3.03.14 4.52-1.12-.66-2-1.86-1.72-3.22z"/><path fill="#524f4f" opacity=".92" d="M233.54 203.51c.1-5.88 5.11-9.56 6.96-14.76.26 1.31 1.01 2.69.52 4.03-1.47 4.17-4.28 7.74-7.48 10.73z"/><path fill="#101111" opacity=".92" d="M267.09 189.72l2.9 1.37c-3.44 5.1-6.34 11.12-12.14 13.93 4.25-4.32 7.07-9.69 9.24-15.3z"/><path fill="#dddbd7" d="M195.12 192.12c3.32.17-1.54 3 0 0z"/><path fill="#8e8a8f" d="M212.04 196.53c3.39-1.91 7.11-3.14 10.97-3.67-.49 2.58-1.64 4.96-2.97 7.19-2.71-.75-5.52-1.16-8.33-.84l-2.26-2.9c-.08 3.92-2 7.81-6.05 8.81-2.9 1.32-4.55-2.24-5.36-4.43 1.72-1.92 3.27-3.99 4.62-6.19l7.38-.1 2 2.13z"/><path fill="#8c7b75" d="M144.8 197.11l3.13-1.16 1.75 1.67c-2.04 1.71-4.55 3.12-5.83 5.54-.62 2.8 2.11 4.33 3.98 5.75 1.65-3.96 3.29-7.94 4.47-12.07.32.84.66 1.67 1.01 2.51l2.63-.45c-3.14 2.68-3.07 6.78-2.51 10.53 2.46.82 4.94 1.64 7.33 2.69l.01.96c-4.08-.97-7.77-2.99-11.01-5.63l1.06 5.81-4.63-.44-.12-2.83c-1.83-.7-3.66-1.43-5.46-2.19 1.3-2.99 2.27-6.13 2.64-9.38a32.48 32.48 0 0 1 1.55-1.31z"/><path fill="#cac0bb" d="M147.93 195.95h4.05l.32.89c-1.18 4.13-2.82 8.11-4.47 12.07-1.87-1.42-4.6-2.95-3.98-5.75 1.28-2.42 3.79-3.83 5.83-5.54l-1.75-1.67z"/><path fill="#6f6a69" d="M151.98 195.95c5.26.21 10.51-.05 15.76-.12l.37 5.18-1.42-1.21-2.59.16c-2.51-1.37-5.39-1.55-8.16-1.06l-2.63.45-1.01-2.51-.32-.89z"/><path fill="#7f5a53" d="M130.4 204.53c.45-3.12 1.88-6.92 5.45-7.44l8.95.02-1.55 1.31c-3.38 2.06-3.33 5.93-2.64 9.38-3.29-1.42-6.67-2.68-10.21-3.27z"/><path fill="#f7f3ef" d="M198.28 197.06c3.01-1.51.08 3.33 0 0z"/><path fill="#c6bdb8" d="M155.94 198.9c2.77-.49 5.65-.31 8.16 1.06-2.79 3.44-3.42 7.87-3.34 12.16-2.39-1.05-4.87-1.87-7.33-2.69-.56-3.75-.63-7.85 2.51-10.53z"/><path fill="#b6a9a2" d="M140.61 207.8c-.69-3.45-.74-7.32 2.64-9.38-.37 3.25-1.34 6.39-2.64 9.38z"/><path fill="#bdb4af" d="M164.1 199.96l2.59-.16 1.42 1.21.43 5.28 4.25.13c.67 2.36 1.99 4.95.42 7.27l-2.36 3.74c-3.03-1.46-7.1-2.48-8.21-6.1-.94-3.83.7-7.65 1.46-11.37z"/><path fill="#a79a96" d="M174.66 203.78c-.04-1.29-.03-2.78 1.23-3.52l.62 1.81-1.85 1.71z"/><path fill="#645c5d" d="M160.76 212.12c-.08-4.29.55-8.72 3.34-12.16-.76 3.72-2.4 7.54-1.46 11.37 1.11 3.62 5.18 4.64 8.21 6.1.79-1.24 1.61-2.47 2.36-3.74a99.02 99.02 0 0 0 4.48 1.93c-.77-4.01-1.95-7.91-3.03-11.84l1.85-1.71c1.02 1.4 2.15 2.71 3.29 4.02l.1-4.61.66.45c1.68 1.08 3.39 2.11 5.17 3.03-.7 1.94-1.34 3.89-1.96 5.86l-.99.04-3.32.25c.67 1.18 1.34 2.36 1.94 3.58-5.7 1.66-9.15 6.86-10.51 12.37-1.51 4.49-1.66 9.42.14 13.86-4.1-5.53-2.31-12.87-.63-18.95-6.47-3.02-12.08-8.54-19.58-8.71l-1.06-5.81c3.24 2.64 6.93 4.66 11.01 5.63l-.01-.96z"/><path fill="#5b443a" d="M130.4 204.53c3.54.59 6.92 1.85 10.21 3.27 1.8.76 3.63 1.49 5.46 2.19l.12 2.83c-1.41-.2-2.81-.44-4.2-.67-4.38-1.54-9.81-2.69-11.59-7.62z"/><path fill="#f6b38f" d="M242.18 210.71c2.67-3.06 6.29-5.03 9.69-7.14l-.47 4.06a19.6 19.6 0 0 0-.03 4.96l1.58 4.36-2.46 3.02c.35-4.17-1.66-7.86-4.42-10.82-1.81 1.16-3.64 2.29-5.38 3.55l.38-.56 1.11-1.43z"/><path fill="#79767a" d="M185.73 204.96a33.5 33.5 0 0 0 5.16 1.79c.62 1.38 1.29 2.75 1.71 4.21-.96 1.24-2.22 2.19-3.41 3.19-1.62-1.39-3.41-2.6-5.42-3.33l1.96-5.86z"/><path fill="#b2adaf" d="M190.89 206.75l1.91.38 5.36.98-4.28 1.69 5.96.29 1.81 4.99 1.86 6.39c-1.56-2.21-2.77-4.65-3.79-7.15-3.49.58-7.1.94-10.53-.17 1.19-1 2.45-1.95 3.41-3.19-.42-1.46-1.09-2.83-1.71-4.21z"/><path fill="#e9ddd5" d="M207.22 209.25c.54.54.54.54 0 0z"/><path fill="#cfc3bd" d="M240.69 212.7l5.38-3.55c2.76 2.96 4.77 6.65 4.42 10.82-1.93 1.99-4.21 3.57-6.44 5.21l-4.31-.84-3.9-4.92c1.88-2.05 3.38-4.38 4.85-6.72z"/><path fill="#bab0a7" d="M214.65 210.65c3.71-1.06 7.64-.62 11.46-.73-2.35 1.14-4.65 2.4-6.77 3.93 1.49.61 2.99 1.21 4.51 1.73l-1.7 2.91 5.06-.24-1.75 2.2-5.88-2.06.74 4.11c.43 2.17.93 4.32 1.41 6.48l-2.89.1c-1.29-1.8-2.6-3.59-3.76-5.47.02-2.73-.1-5.45-.28-8.17l-3.46.66c1.06-1.79 1.51-4.26 3.31-5.45m.63 3.41c1.49 3.56 2.42 7.31 3.21 11.08.93-4.05 1.42-8.26.65-12.38l-3.86 1.3z"/><path fill="#c1b4ab" d="M182.78 210.86l.99-.04c2.01.73 3.8 1.94 5.42 3.33-4.86 2.16-2.5 8.22-2.11 12.27.12 4.6 4.74 6.46 8.28 8.14 1.9 1.58 3.21 3.7 4.33 5.88-4.56-1.03-7.98-4.35-11.45-7.24l-1.05 2.4-.36.85c-.7-3.38-1.98-6.6-2.84-9.94 1.03-5.25.63-10.62-1.21-15.65z"/><path d="M203.18 213.82c1.49-.82 3.04-1.54 4.61-2.18 1.03 4.95 3.12 9.56 4.88 14.27-5.08-2.16-6.64-7.87-9.49-12.09zm27.39 11.53l2.91-2.22 2.15 8.83-1.38-.89-3.68-5.72z" fill="#cbc6ca"/><path fill="#8e8c8d" d="M207.79 211.64c1.49 1.21 2.72 2.72 3.55 4.46l3.74 7.51 3.76 5.47 2.89-.1c-1.82.62-3.62 1.7-5.59 1.54-2.63-.52-4.96-1.92-7.35-3.05l2.1 3.91c-3.06-2.81-5.06-6.51-7.38-9.91-.71-2.1-1.27-4.25-1.86-6.39.39-.31 1.15-.95 1.53-1.26 2.85 4.22 4.41 9.93 9.49 12.09-1.76-4.71-3.85-9.32-4.88-14.27z"/><path fill="#f1eae8" d="M215.28 214.06l3.86-1.3c.77 4.12.28 8.33-.65 12.38-.79-3.77-1.72-7.52-3.21-11.08z"/><path fill="#98949b" d="M181.4 214.69c.96 3.23 1.42 6.59 2.09 9.89-2.39 1.85-4.97 3.68-6.44 6.41-1.44 2.72-1.82 5.83-2.35 8.82l2.24 2.06 4.24 4.04c-4.18.69-8.06-1.38-10.15-4.99-1.8-4.44-1.65-9.37-.14-13.86 1.36-5.51 4.81-10.71 10.51-12.37z"/><path fill="#e5ddda" d="M211.34 216.1l3.46-.66.28 8.17c-1.46-2.4-2.54-4.99-3.74-7.51z"/><path fill="#868186" d="M228.34 216.96l2.35-1.1 3.34 1.61 1.81 1.95 3.9 4.92-2.39-.43c-.38 2.34-.51 4.86 1.37 6.64l-.46 5.46-1.18 2.11-2.23 3.04c-1.92.89-3.94 1.54-5.96 2.13 1.58-2.99 3.65-5.9 3.71-9.42-3.1 2.46-5.95 5.25-9.39 7.25-2.33 1-4.16 2.72-5.36 4.94-2.28 2.51-5.83 2.8-8.86 3.84-4.16 1.31-8.96 1.25-12.75-1.1-4.54-2.8-7.36-7.56-9.41-12.35l.36-.85c1.73 2.85 3.15 6.32 6.46 7.67 4.13 1.74 8.81 4.92 13.36 2.7 4.29-2.03 8.31-4.77 11.44-8.36 2.46-4 4.38-8.4 7.86-11.68l-5.99-3.43-.74-4.11 5.88 2.06a93.74 93.74 0 0 1 1.75-2.2l1.13-1.29m.69 1.68l-.93 5.28c1.75-.68 3.49-1.39 5.22-2.12-.6-2.01-2.44-2.7-4.29-3.16m1.54 6.71a142.6 142.6 0 0 1 3.68 5.72l1.38.89c-.61-2.97-1.34-5.91-2.15-8.83l-2.91 2.22m-6.83 14.97c1.64-2.92 2.23-6.24 2.02-9.56-3.33 1.6-4.77 6.81-2.02 9.56z"/><path fill="#b7b1b7" d="M229.03 218.64c1.85.46 3.69 1.15 4.29 3.16l-5.22 2.12.93-5.28z"/><path fill="#64605f" d="M220.32 222.5l5.99 3.43c-3.48 3.28-5.4 7.68-7.86 11.68l-2.48-2.07c-1.49-1.23-3.03-2.39-4.51-3.61l-.57-.55c-.74-1.29-1.41-2.6-2.1-3.91 2.39 1.13 4.72 2.53 7.35 3.05 1.97.16 3.77-.92 5.59-1.54l-1.41-6.48z"/><path fill="#766c69" d="M237.35 223.91l2.39.43 4.31.84c-2.03 1.52-3.68 3.46-5.33 5.37-1.88-1.78-1.75-4.3-1.37-6.64z"/><path fill="#635f63" opacity=".92" d="M177.05 230.99c1.47-2.73 4.05-4.56 6.44-6.41l.5 1.93c.86 3.34 2.14 6.56 2.84 9.94-.95-1.85-1.96-3.67-2.85-5.56-.2-1.5-2.24-2.83-3.19-1.12-3.09 3.18-6.54 7.57-3.85 12.1l-2.24-2.06c.53-2.99.91-6.1 2.35-8.82z"/><path fill="#1c1b1c" opacity=".71" d="M180.79 229.77c.95-1.71 2.99-.38 3.19 1.12-1.28.21-2.34-.17-3.19-1.12z"/><path fill="#e4dcd9" d="M203.95 230.08c2.43.61 2.7 3.69 3.95 5.53l-2.36 2.66-3.14-1.32 1.55-6.87z"/><path fill="#dcd4d1" d="M197.3 230.75c1.54 1.46 3.36 2.75 4.39 4.65.73 1.99-.74 3.7-2 5.04-1.12-2.18-2.43-4.3-4.33-5.88l1.79.79.15-4.6z"/><path fill="#b9ada6" d="M223.74 240.32c-2.75-2.75-1.31-7.96 2.02-9.56.21 3.32-.38 6.64-2.02 9.56z"/><path fill="#a79586" d="M211.46 231.93l4.51 3.61c-3.44 1-6.72 3.18-10.43 2.73.77-.9 1.55-1.79 2.36-2.66l3.56-3.68z"/><path fill="#2c2a2c" opacity=".55" d="M237.08 238.12l1.18-2.11-1.18 2.11z"/><path fill="#4a4340" opacity=".8" d="M217.85 246.06c1.2-2.22 3.03-3.94 5.36-4.94l-5.36 4.94z"/></svg>