<svg xmlns="http://www.w3.org/2000/svg" width="512" height="512" viewBox="0 0 384 384" xmlns:v="https://vecta.io/nano"><path d="M240.47 147.75c3.55-1.14 7.18-2.04 10.86-2.64 1.37 6 3.22 11.97 3.34 18.17-1.57-5.86-2.48-11.9-4.5-17.63l-1.01.36c-2.08.79-4.11 1.73-5.93 3.02.39 2.31 1.23 4.51 1.99 6.72 1.7-1.14 3.37-2.33 4.92-3.66.85 4.71 2.22 9.31 2.83 14.06-.62-1.99-1.26-3.98-2.08-5.89-1.19-3.73-6.02-3.34-8.52-5.77-.94-2.15-1.33-4.48-1.9-6.74zm11.72 38l1.23 2.04.63-.25 2.85-1.31 2.7.69c1.22 2.13 1.99 4.49 1.86 6.96l-1.7-.53-6.07-.21-1.5-7.39z" fill="#131312"/><path fill="#424048" d="M243.23 149.03c1.82-1.29 3.85-2.23 5.93-3.02l.98 6.08c-1.55 1.33-3.22 2.52-4.92 3.66-.76-2.21-1.6-4.41-1.99-6.72z"/><path d="M249.16 146.01l1.01-.36c2.02 5.73 2.93 11.77 4.5 17.63l.1 1.87c-.28 1.37.17 2.31 1.35 2.82l-.22.88c-.54 1.22-.38 2.32.49 3.29l.5.66 1.8 4.12-2.05.47c-1.03-2.12-1.88-4.32-2.6-6.56l.09-.76c.42-1.29.09-2.33-.99-3.12l-.17-.8c-.61-4.75-1.98-9.35-2.83-14.06-.38-2.02-.72-4.04-.98-6.08zM206.08 174c2-3.25 3.67-7.81 7.92-8.43-1.12 5.87-5.03 11.17-4.4 17.33l-3.79-1.43 1.95-.67c-1.57-1.85-3.23-4.41-1.68-6.8zm68.72 30.58l1.88-.4c.69 2.86 2.04 6.14.32 8.9l-2.2-8.5z" fill="#c4c0c2"/><path d="M222.69 148.76c3.46-.69 7.2-.47 10.11 1.71-.17 2.49-.21 5 .17 7.48-2.57-3.94-6.99-5.97-10.28-9.19zm-70.97 85.15l1.83-.15c1.84 3.49 3.79 7.4 7.82 8.73.39 1.26.53 2.58.69 3.89-4.47-2.83-11.61-6.03-10.34-12.47z" fill="#a16e54"/><path d="M213.82 149.85c1.68-.69 3.52-.85 5.32-.53-1.39 1.58-3.64 1.71-5.32.53zm27.12 23.45c3.41 2.31 5.91 5.63 8.97 8.35 1.29 1.02 1.78 2.61 2.28 4.1l1.5 7.39c-.09 1.73-.3 3.46-.51 5.19l-2.16-3.36c-2.04-2.97-4.19-5.86-6.12-8.9 1.03.95 2.1 1.85 3.17 2.77l2.74-.88c-3.08-5.03-7.22-9.36-9.87-14.66z" fill="#786864"/><path d="M219.14 149.32l3.55-.56c3.29 3.22 7.71 5.25 10.28 9.19l1.35 2.43.53 1.04c-.18.87-.34 1.75-.46 2.64-4.87-9.58-16.23-13.03-26.31-12.3 1.84-.83 3.78-1.4 5.74-1.91 1.68 1.18 3.93 1.05 5.32-.53zm12.25 84.77c.65-2.79 2.64-4.9 4.78-6.66-1.72 2.12-3.34 4.33-4.78 6.66z" fill="#404140"/><path fill="#eda882" d="M232.97 157.95c-.38-2.48-.34-4.99-.17-7.48l3.52 2.51 1.13.95-3.13 6.45-1.35-2.43z"/><path fill="#af9c94" d="M197.8 160.25c3.84-2.29 7.17-5.3 10.28-8.49 10.08-.73 21.44 2.72 26.31 12.3l.5 9.69-1.59-.81c.68-4.24-.66-8.49-3.7-11.52-3.58-3.45-7.91-6.33-12.94-6.95-4.33-.99-9.19-.76-12.42 2.67-4.46 4.3-11.54 8.4-10.88 15.5 1.82 3.13 5.6 4.16 8.68 5.64-.88 2.02-1.6 4.19-3.08 5.86-1.42 1.19-3.27 1.61-4.98 2.17l3.48-5.77c-3.56-2.14-6.57-5.06-8.53-8.73 1.5-2.18 2.84-4.46 4.08-6.8l-4.26-.36c3.15-1.17 6.22-2.57 9.05-4.4z"/><path fill="#837f81" d="M236.32 152.98l3.04-1.58 5.14 7.21c.98 3.16 1.55 6.42 2.27 9.64-2.91-1.07-2.78 3.97.08 2.77l-.49 3.34 7.11.01-.21 3.6 3.38-.58 2.05-.47c1.62 3.1 1.27 6.65.91 10l-2.7-.69c-.45-2.92-1.31-5.78-3.11-8.17-.31 3.16-.07 6.33.26 9.48l-.63.25-1.23-2.04c-.5-1.49-.99-3.08-2.28-4.1-3.06-2.72-5.56-6.04-8.97-8.35 2.65 5.3 6.79 9.63 9.87 14.66l-2.74.88-3.17-2.77c-3.09-3.88-6.67-7.32-10.57-10.37l-1.11-1.21.08-1.55 1.59.81-.5-9.69c.12-.89.28-1.77.46-2.64 1.6-1.71 3.38-3.23 5.19-4.71-.85-.95-1.7-1.89-2.59-2.78l-1.13-.95m4.67 14.7l2.12 1.5c.38-1.84.74-3.7 1.05-5.55a19.16 19.16 0 0 0-3.17 4.05z"/><path fill="#3d4040" d="M204.24 157.14c3.23-3.43 8.09-3.66 12.42-2.67l-1.93 2.08c-1.98 1.85-3.91 3.77-5.57 5.92l1.19.86.63.4c-4.26 3.95-7.06 9.11-8.94 14.55-3.08-1.48-6.86-2.51-8.68-5.64-.66-7.1 6.42-11.2 10.88-15.5z"/><path fill="#aca09f" d="M237.45 153.93l2.59 2.78c-1.81 1.48-3.59 3-5.19 4.71l-.53-1.04 3.13-6.45z"/><path d="M216.66 154.47c5.03.62 9.36 3.5 12.94 6.95l-2.45 7.14c-3.03-.66-6.03-1.54-8.79-3 0-1.56-.04-3.12-.08-4.68-2.52.73-5 1.59-7.3 2.85l-.63-.4 6.43-6.36-2.05-.42 1.93-2.08zm55.87 50.68l2.27-.57 2.2 8.5-1.77 3.44c-.53 2.09-.75 4.24-.92 6.39l-1.54 4.84-2.99-3c-.99-1.72-1.86-4.69-4.37-4.17l-.19-.8 3.02-3.16 3.08 6.61 2.93-9.2c.1-3.05-.95-5.98-1.72-8.88z" fill="#4e5257"/><path d="M148.45 156.89l6.89-1.12-2.59 2.17c-1.46-.21-2.87-.68-4.3-1.05zm16.78-.23l4.59.59 4.35 1.45h-8.05l-.89-2.04zm106.2 36.02c-.34-1.2.7-1.99 1.32-2.84 1.21 3.79 2.19 7.68 2.72 11.63-2.64-2.11-3.34-5.67-4.04-8.79zm-59.25 4.09c3.01-.21 5.83.99 8.51 2.21-2.13 2.12-4.42 4.1-6.88 5.84l-.64.46-.4-4.67-3.18 1.3c-.37-1.49-.83-2.96-1.41-4.39l3.44.82.56-1.57z" fill="#e8e2e6"/><path fill="#837a79" d="M155.34 155.77c3.34-.48 6.65.18 9.89.89l.89 2.04.27.65-4.38.85-1.98 1.14-3.17-2.44-4.82.47-.78-.04c-3.48-.64-7.11-.46-9.56 2.43-4.33 1.21-9.14 1.37-12.8 4.3l-3.46-.48-.93-2.4 1.41-1.34c1.74-.28 3.48-.47 5.22-.71 5.91-.84 11.43-3.3 17.31-4.24 1.43.37 2.84.84 4.3 1.05.89-.7 1.75-1.42 2.59-2.17z"/><path fill="#675e5c" d="M169.82 157.25c4.7.37 10.37-.13 13.62 4.05-3.28.1-6.54.41-9.82.34l-3.66-.19c-.97 3.55-1.87 7.15-1.85 10.86.14 1.35.35 2.7.58 4.05-1.69 3.11-3.89 5.91-6.55 8.25-3.37-.65-6.76-1.19-10.16-1.63 1.99-.42 4.32-.56 5.85-2.06 1.2-2.96 1.66-6.16 2.45-9.24l.05.75c.27 2.67.71 5.31 1.14 7.96 2.35-.16 3.73-1.61 3.77-3.98.51-5.63 3.92-11.57 1.15-17.06l-.27-.65c2.68.1 5.36.08 8.05 0-1.44-.51-2.89-1.02-4.35-1.45z"/><path d="M209.16 162.47c1.66-2.15 3.59-4.07 5.57-5.92l2.05.42-6.43 6.36-1.19-.86zm-48.83 9.96l4.91 3.98c-.04 2.37-1.42 3.82-3.77 3.98l-1.14-7.96z" fill="#b0a39c"/><path d="M141.7 161.76c2.45-2.89 6.08-3.07 9.56-2.43-2.32.85-5.01 1.33-6.74 3.21-1.02 4.21.18 8.56 1.37 12.61.83 1.62 1.77 3.2 2.71 4.77l-4.65.25c.14-2.05.17-4.12-.18-6.16-.78-4.07-1.38-8.16-2.07-12.25zm10.02 72.15c1.52-4.81 4.72-8.65 8.51-11.86l-.46 2-.38.74c-3.88 5.56-1.22 12.52 1.98 17.7-4.03-1.33-5.98-5.24-7.82-8.73l-1.83.15z" fill="#664a47"/><path fill="#a59791" d="M152.04 159.37l4.82-.47 3.17 2.44 1.98-1.14c-.12 3.88-.79 7.71-1.73 11.48-.79 3.08-1.25 6.28-2.45 9.24-1.53 1.5-3.86 1.64-5.85 2.06l-17.7-2.19-3.71-.64c3.11-1.01 6.39-1.2 9.63-.76-3.96-1.26-7.76-2.94-11.37-4.97-2.68 2.1-6.3 3.61-9.29 1.08l6.52-.93c.03-3 .04-6.04-.62-8.99l3.46.48c.95 3.02 1.53 6.21 3.03 9.03 3.53 2.55 9.02 2.64 11.84-1.08.35 2.04.32 4.11.18 6.16l4.65-.25c-.94-1.57-1.88-3.15-2.71-4.77 3.37 2.58 7.53 3.53 11.7 3.78 1.28-6.21 1.51-12.58.25-18.81l-5.8-.75z"/><path fill="#d4c8c2" d="M162.01 160.2c1.44-.37 2.91-.61 4.38-.85 2.77 5.49-.64 11.43-1.15 17.06l-4.91-3.98-.05-.75c.94-3.77 1.61-7.6 1.73-11.48z"/><path fill="#493020" d="M187.11 161.23c3.26-1.91 7.13-2.43 10.69-.98-2.83 1.83-5.9 3.23-9.05 4.4-1.62.59-3.22 1.24-4.76 2.03-1.09.8-2.14 1.64-3.15 2.53-1.09 1.65-2.03 3.38-2.85 5.18-.87 2-1.49 4.1-1.96 6.24-.33 1.55-.59 3.13-.8 4.71a44.8 44.8 0 0 1-5.63 13.93l-10.38.61c.81-.47 1.63-.9 2.47-1.31-.61-4.62-1.41-9.82 1.84-13.71l-1.39-.25c2.66-2.34 4.86-5.14 6.55-8.25 2.13-.12 4.28-.19 6.42-.26 1.22-2.69 1.03-5.57.72-8.4 3.85-1.99 7.98-3.54 11.28-6.47z"/><path fill="#706b6b" d="M244.5 158.61c3.5 4.95 5.68 10.68 8.97 15.76-2.37.04-4.74.04-7.11-.01l.49-3.34-.08-2.77c-.72-3.22-1.29-6.48-2.27-9.64z"/><path fill="#63473d" d="M100.05 166.8c.78-2.77 2.31-5.72 5.13-6.82 3.58-.84 7.15.54 10.66 1.13-.53.76-1.05 1.52-1.55 2.3a124.79 124.79 0 0 0-2.31 3.65c-2.66-.38-5.31-.7-7.97-.99l.26 6.37 8.75.37c.63 1.31 1.33 2.59 1.99 3.9l.11 2.38c-1.46-.94-2.74-2.21-4.38-2.83-2.74-.21-5.44.46-8.13.91-.59-.85-1.14-1.72-1.64-2.62 1.75-2.38 1.76-5.26 1.18-8.02l-2.1.27z"/><path fill="#d6cbc5" d="M144.52 162.54c1.73-1.88 4.42-2.36 6.74-3.21l.78.04 5.8.75c1.26 6.23 1.03 12.6-.25 18.81-4.17-.25-8.33-1.2-11.7-3.78-1.19-4.05-2.39-8.4-1.37-12.61z"/><path fill="#726c69" d="M115.84 161.11c5.06.79 10.22.48 15.3.02l-5.22.71c-3.33 1.16-8.38 2.24-8.61 6.54-.56 2.63.82 5.03 2.23 7.12 2.99 2.53 6.61 1.02 9.29-1.08 3.61 2.03 7.41 3.71 11.37 4.97-3.24-.44-6.52-.25-9.63.76-5.17 0-10.33-.42-15.45-1.06l-.11-2.38c.05-4.41 1.8-9.28-.72-13.3.5-.78 1.02-1.54 1.55-2.3m1.67 1.1c.14 1.42.8 1.68 1.97.77-.15-1.42-.81-1.68-1.97-.77z"/><path fill="#d7ccc4" d="M169.96 161.45l3.66.19c.73 2.85.68 6.18-1.47 8.43-1.24.93-2.67 1.54-4.04 2.24-.02-3.71.88-7.31 1.85-10.86z"/><path fill="#b6a196" d="M173.62 161.64c3.28.07 6.54-.24 9.82-.34l3.67-.07c-3.3 2.93-7.43 4.48-11.28 6.47.31 2.83.5 5.71-.72 8.4l-6.42.26c-.23-1.35-.44-2.7-.58-4.05 1.37-.7 2.8-1.31 4.04-2.24 2.15-2.25 2.2-5.58 1.47-8.43z"/><path fill="#797577" d="M210.98 163.73c2.3-1.26 4.78-2.12 7.3-2.85l.08 4.68c.84 3.64-2.66 5.42-4.43 7.95-1.24 2.63-.52 5.63-.4 8.41 4.94 1.09 9.79 2.68 14.24 5.12l-1.59-3.33 4.24 3.06-1.99 3.45c1.14 1.21 2.28 2.42 3.36 3.7-.62.74-1.22 1.48-1.81 2.24 2.09 3.61.72 7.56-.38 11.24 3.33-1.66 4.58-5.21 5.77-8.47l1.87-1.3.57 1.78 2.61-.84-.5 2.13c-4.06 2.13-4.82 7.08-6.89 10.77l2.13.31.07 2.33-2.69 2.67c-1.21.01-2.42.04-3.63.14l-2.32.19c.56-1.26 1.24-2.47 1.6-3.8-.75-1.86-1.96-3.48-2.99-5.18-.42 2.03-.64 4.13-1.47 6.04-3.59 2.82-8.32 3.36-12.73 3.43l2.03 13.39c-2.62-3.6-3.04-8.29-5.77-11.84l-1.36 1.75c-1.03 1.34-1.97 2.74-2.89 4.15-1.85-1.36-3.67-2.79-5.73-3.83-1.23-.18-2.46-.29-3.68-.45l-2.44-.77c.03-6.45 2.58-13.42-.7-19.46-.93-5.06.44-10.15 3.52-14.23 1.71-.56 3.56-.98 4.98-2.17 1.48-1.67 2.2-3.84 3.08-5.86 1.88-5.44 4.68-10.6 8.94-14.55m-4.9 10.27c-1.55 2.39.11 4.95 1.68 6.8l-1.95.67 3.79 1.43c-.63-6.16 3.28-11.46 4.4-17.33-4.25.62-5.92 5.18-7.92 8.43m7.17 9.63l.93 3.12 3.76-.16c.24 1.4.44 2.82.79 4.2l-1.06 2.93-.54-.24-1.31-4.19-3.13 1.05c-2.22-4.35-9.17-6.42-12.41-2.04-2.7 4-1.72 9.31-4.17 13.48 2.08 3.68 2.77 8.27 6.27 11 2.19-1.23 4.75-1.92 6.7-3.54.94-1.89 1.3-4.02 1.86-6.05l2.23 2.09.64-.46c4.56-.58 8.56-2.93 12.75-4.63l-2.7-2.4c.86-2.27 1.62-4.58 2.26-6.93l-1.69.46c-2.08-2.47-4.16-5.53-7.48-6.3l-.33-.84-1.07-.23-.7.64-1.6-.96m5.27 21.59c-1.05 1.81 2.8 2.97 3.03.93-.15-1.34-2.14-1.9-3.03-.93m-2.99 8.97c-.73 1.24 1.44 2.32 2.25 1.33.73-1.26-1.43-2.36-2.25-1.33m-8.18 1.9c-1.95.46-1.09 3.42.78 2.89 1.97-.37 1.13-3.66-.78-2.89z"/><path fill="#bebab6" opacity=".97" d="M117.51 162.21c1.16-.91 1.82-.65 1.97.77-1.17.91-1.83.65-1.97-.77z"/><path d="M117.31 168.38c.23-4.3 5.28-5.38 8.61-6.54l-1.41 1.34.93 2.4c.66 2.95.65 5.99.62 8.99l-6.52.93c-1.41-2.09-2.79-4.49-2.23-7.12zm115.23 48.4l2.69-2.67v.9c-1.55 6.26-8.46 8.41-14.21 8l1.75-1.96c3.65-.27 7.46-1.17 9.77-4.27z" fill="#d3c9c4"/><path fill="#d1c6c1" d="M128.9 166.06c3.66-2.93 8.47-3.09 12.8-4.3l2.07 12.25c-2.82 3.72-8.31 3.63-11.84 1.08-1.5-2.82-2.08-6.01-3.03-9.03z"/><path d="M229.6 161.42c3.04 3.03 4.38 7.28 3.7 11.52l-.08 1.55c-2.05 3.29-4.48 6.32-7.04 9.22l1.59 3.33c-4.45-2.44-9.3-4.03-14.24-5.12-.12-2.78-.84-5.78.4-8.41 1.77-2.53 5.27-4.31 4.43-7.95 2.76 1.46 5.76 2.34 8.79 3l2.45-7.14zm11.31 59.85c-1.53-1.83.15-4.74 2.5-3.63l-2.5 3.63z" fill="#3c4040"/><path fill="#d0c6bd" d="M114.29 163.41c2.52 4.02.77 8.89.72 13.3l-1.99-3.9c-.44-1.9-.73-3.83-1.04-5.75a124.79 124.79 0 0 1 2.31-3.65z"/><path fill="#bdb7b8" d="M240.99 167.68a19.16 19.16 0 0 1 3.17-4.05l-1.05 5.55-2.12-1.5z"/><path fill="#6e6664" d="M183.99 166.68c1.54-.79 3.14-1.44 4.76-2.03l4.26.36c-1.24 2.34-2.58 4.62-4.08 6.8-2.11 3-3.73 6.29-5.2 9.64-.66.99-1.36 1.95-2.05 2.92.06-1.39-2.29-3.39-3.02-1.44.2 1.43 1.06 2.13 2.58 2.08-.92 1.39-1.8 2.81-2.68 4.22l-1.41-3.35.04 8.75 3.52-3.31c.27 1.93.56 3.85.96 5.77l.44 1.82c-1.74.73-3.49 1.45-5.3 1.99l-.69.2-2.44-3.49c1.58-3.93 3.42-8.07 1.55-12.27.21-1.58.47-3.16.8-4.71l2.61-2.07c-.1-1.41-.4-2.79-.65-4.17.82-1.8 1.76-3.53 2.85-5.18l2.98 6.04 3.22-5.66-2.87.11-.18-3.02m-3.67 12.48c-.53 1.63.02 2.18 1.65 1.65.53-1.64-.02-2.18-1.65-1.65z"/><path fill="#323335" opacity=".73" d="M254.77 165.15c1.38.46 1.83 1.4 1.35 2.82-1.18-.51-1.63-1.45-1.35-2.82z"/><path d="M100.05 166.8l2.1-.27c.58 2.76.57 5.64-1.18 8.02-.65-2.53-.85-5.15-.92-7.75zm64.42 33.36c1.49.4 3 .69 4.52.92l-1.25 4.58-3.6.16.33-5.66zm113.77 16.29c1.99-1.09 2.75 3.27.76 3.52-1.48-.32-1.74-2.56-.76-3.52z" fill="#c0bbbf"/><path fill="#a0817b" d="M104.01 166.07l7.97.99 1.04 5.75-8.75-.37-.26-6.37z"/><path d="M180.84 169.21l3.15-2.53.18 3.02 2.87-.11-3.22 5.66-2.98-6.04zm-6.99 62.65c1.62-1.13 3.47-1.87 5.25-2.69l-4.28 5.17c4.56 1.48 9.38 2.19 14.17 1.72 1.57-.12 3.14-.29 4.72-.44-1.5 3.41-4.91 5.15-8.04 6.79l-1.56.68c.95-1.23 1.83-2.5 2.74-3.77-4.67.75-9.39.16-13.78-1.56.21-1.97.31-3.97.78-5.9z" fill="#baaea4"/><path fill="#363636" opacity=".8" d="M253.14 166.95c1.08.79 1.41 1.83.99 3.12-1.29-.72-1.63-1.76-.99-3.12z"/><path fill="#b8b2b6" d="M246.85 171.02c-2.86 1.2-2.99-3.84-.08-2.77l.08 2.77z"/><path d="M255.9 168.85c1.22 1.01 1.39 2.1.49 3.29-.87-.97-1.03-2.07-.49-3.29zm.99 3.95c2.29 2.68 5.63 3.69 9.08 3.52.55 2.05.99 4.15 1.79 6.13 1.8 1.12 4.15.59 6.18.89.93 5.12 1.32 10.45 3.38 15.28 2.49 2.34 5.85 3.42 8.76 5.16l-8.38-3.45c.35 2.57.72 5.15 1.22 7.7.55 5.75 4.69 12.02 1.35 17.52l-1.78-4.48-1.5 3.21c-.2-2.66-.68-5.3-1.76-7.76.54-1.17 1.17-2.3 1.77-3.44 1.72-2.76.37-6.04-.32-8.9l-1.88.4-2.27.57-1.13-4.23-2.94.61c-1.78-5.27-.81-10.89-1.26-16.33l-5 .34c.64 6.98 3.15 13.62 3.74 20.6.44 3.55 1.07 7.11 2.3 10.48-1.03 1.04-2.05 2.07-3.02 3.16l.19.8c1.92 6.22 3.57 12.51 4.89 18.88-2.34-2.46-2.67-6.05-4.34-8.92.17 7.36 2.28 14.53 4.46 21.51-2.82-1.82-2.85-5.39-3.41-8.33-.41-2.34-1.01-4.64-1.69-6.91-.51-1.82-1.15-3.6-1.79-5.37.78-3.95.67-7.99.54-11.99l-3.54.52c-.46-1.53-1-3.03-1.47-4.55l-.54-2.27c-.17-1.83-.26-3.68-.25-5.52l1.24-.33c.39 3.51.81 7.26 3.3 9.99.01-2.29-.13-4.57-.3-6.85 1.03 2.01 2.08 4.01 3.26 5.94-.3-3-.96-5.94-1.72-8.85l-3.67-.44 4.29-1.22c-.52-.74-1.02-1.49-1.52-2.24-1.11-3.13-1.65-6.43-1.69-9.75.13-2.47-.64-4.83-1.86-6.96.36-3.35.71-6.9-.91-10l-1.8-4.12m14.54 19.88c.7 3.12 1.4 6.68 4.04 8.79-.53-3.95-1.51-7.84-2.72-11.63-.62.85-1.66 1.64-1.32 2.84m-2.88-1.69c-.57 3.52-.06 7.47 2.86 9.88-.35-3.32.21-7.69-2.86-9.88m9.69 25.46c-.98.96-.72 3.2.76 3.52 1.99-.25 1.23-4.61-.76-3.52z" fill="#262c35"/><path d="M254.04 170.83c.72 2.24 1.57 4.44 2.6 6.56l-3.38.58.21-3.6.57-3.54zm-3.02 24.14l2.16 3.36c1.38 2.29 3.29 4.26 5.7 5.46a35.78 35.78 0 0 0 4.27-.16l1.52 2.24-4.29 1.22-.87.21-1.24.33c-.01 1.84.08 3.69.25 5.52l-2.17-1.77c.17-1.79 1.6-4.04-.06-5.49l-2.2-2.23.83 6.53-4.15-3.38 2.9-5.05-3.19 2.55.54-9.34z" fill="#1f1a1a"/><path fill="#de9b7b" d="M183.73 181.45c1.47-3.35 3.09-6.64 5.2-9.64 1.96 3.67 4.97 6.59 8.53 8.73l-3.48 5.77c-3.08 4.08-4.45 9.17-3.52 14.23l-.13 7.87c-1.6-1.41-3.21-2.81-4.88-4.14 1.7-3.95 2.97-8.07 3.59-12.33-1.8.04-3.83-.58-5.45.47-1.67.92-1.53 3.06-1.92 4.68-.4-1.92-.69-3.84-.96-5.77a169.88 169.88 0 0 1 3.83-3.28l-.81-6.59z"/><path fill="#a3938d" d="M176.03 180.63c.47-2.14 1.09-4.24 1.96-6.24l.65 4.17-2.61 2.07z"/><path fill="#9e918f" d="M226.18 183.71c2.56-2.9 4.99-5.93 7.04-9.22l1.11 1.21c-1.26 2.97-3.37 5.88-2.72 9.29-.13 2.26 2 3.51 3.3 5.03l2.33 7.61-1.87 1.3c-1.16-1.7-2.31-3.4-3.58-5.01-1.08-1.28-2.22-2.49-3.36-3.7l1.99-3.45-4.24-3.06m4.09 6.55c.53.54.53.54 0 0z"/><path opacity=".76" d="M102.61 177.17c2.69-.45 5.39-1.12 8.13-.91 1.64.62 2.92 1.89 4.38 2.83 5.12.64 10.28 1.06 15.45 1.06l3.71.64c-8.44-.48-17.9.95-25.35-3.9l-3.24.83c-1.03-.16-2.05-.35-3.08-.55zm131.72-1.47c3.9 3.05 7.48 6.49 10.57 10.37 1.93 3.04 4.08 5.93 6.12 8.9-.24 3.11-.37 6.23-.54 9.34-1.81 3.49-4.13 6.68-6.18 10.02-.44-3.3-1.33-6.67-4.01-8.88 3.8-5.46-1.25-11.82-5.38-15.43-1.3-1.52-3.43-2.77-3.3-5.03-.65-3.41 1.46-6.32 2.72-9.29z"/><path fill="#b8aaa2" d="M180.32 179.16c1.63-.53 2.18.01 1.65 1.65-1.63.53-2.18-.02-1.65-1.65z"/><path fill="#45484f" d="M254.05 187.54c-.33-3.15-.57-6.32-.26-9.48 1.8 2.39 2.66 5.25 3.11 8.17l-2.85 1.31z"/><path fill="#a3958e" d="M178.66 182.93c.73-1.95 3.08.05 3.02 1.44l-.44.64c-1.52.05-2.38-.65-2.58-2.08z"/><path fill="#54322e" d="M181.68 184.37l2.05-2.92.81 6.59-3.83 3.28-3.52 3.31-.04-8.75 1.41 3.35 2.68-4.22.44-.64z"/><path fill="#959295" d="M213.25 183.63l1.6.96 2.1.43c3.32.77 5.4 3.83 7.48 6.3l-1.24 3.61c-2.05-.68-4.08-1.8-4.46-4.14-.35-1.38-.55-2.8-.79-4.2l-3.76.16-.93-3.12z"/><path fill="#ede4e3" d="M214.85 184.59l.7-.64 1.07.23.33.84-2.1-.43z"/><path d="M262.2 185.54l5-.34c.45 5.44-.52 11.06 1.26 16.33 1.38 1.78 1.35 3.71.17 5.57l-2.69-.96c-.59-6.98-3.1-13.62-3.74-20.6zm-2.44 7.81l1.7.53c.04 3.32.58 6.62 1.69 9.75a35.78 35.78 0 0 1-4.27.16c-.87-3.33-1.71-6.7-1.7-10.16 1.52 2.84 1.64 6.4 3.49 9 1.18-3-.69-6.22-.91-9.28z" fill="#e2e1e3"/><path d="M169.6 199.27a44.8 44.8 0 0 0 5.63-13.93c1.87 4.2.03 8.34-1.55 12.27-1.16 4.69-3.67 8.82-6.55 12.65l-.95-.11c-3.5-.64-7.07-.21-10.35 1.16l4.26 1.34c-3.37-.58-7.48.34-9.27 3.5-.63 2.68-.46 5.46-.66 8.2-2.3-2.16-4.38-5.03-3.73-8.37.2-7.58 6.69-12.76 12.79-16.1 3.46-.13 6.92-.42 10.38-.61m-5.13.89l-.33 5.66 3.6-.16 1.25-4.58c-1.52-.23-3.03-.52-4.52-.92m-5.82 2.42l-1.07 1.58c-3.8 3-7.12 6.65-9.36 10.98 3.46-1.87 6.4-4.49 9.24-7.17l.7-1.69 2.62 1.24 1.8-5.49-3.93.55zm101.88 17.39l3.54-.52c.13 4 .24 8.04-.54 11.99-1.4-3.71-1.98-7.65-3-11.47z" fill="#8c888e"/><path fill="#9f9c9f" d="M200.28 188.3c3.24-4.38 10.19-2.31 12.41 2.04l3.13-1.05 1.31 4.19-3.38-1.51-1.57 4.8-.56 1.57-3.44-.82c.58 1.43 1.04 2.9 1.41 4.39l3.18-1.3.4 4.67-2.23-2.09c-.56 2.03-.92 4.16-1.86 6.05-1.95 1.62-4.51 2.31-6.7 3.54-3.5-2.73-4.19-7.32-6.27-11 2.45-4.17 1.47-9.48 4.17-13.48z"/><path fill="#fffffa" d="M230.27 190.26c.53.54.53.54 0 0z"/><path fill="#595653" d="M234.91 190.02c4.13 3.61 9.18 9.97 5.38 15.43-2.28 2.85-4.03 6.06-5.06 9.56v-.9l-.07-2.33-2.13-.31c2.07-3.69 2.83-8.64 6.89-10.77l.5-2.13-2.61.84-.57-1.78c-.82-2.53-1.52-5.09-2.33-7.61z"/><path fill="#fab58d" d="M183.59 192.41c1.62-1.05 3.65-.43 5.45-.47-.62 4.26-1.89 8.38-3.59 12.33l-2.08-1.59a83.29 83.29 0 0 1-1.26-3.77l-.44-1.82c.39-1.62.25-3.76 1.92-4.68z"/><path d="M218.73 190.79c.38 2.34 2.41 3.46 4.46 4.14l1.24-3.61 1.69-.46-2.26 6.93 2.7 2.4c-4.19 1.7-8.19 4.05-12.75 4.63 2.46-1.74 4.75-3.72 6.88-5.84-2.68-1.22-5.5-2.42-8.51-2.21l1.57-4.8 3.38 1.51.54.24 1.06-2.93zm56.5 25.73c1.08 2.46 1.56 5.1 1.76 7.76l-.57 2.81-2.11-4.18c.17-2.15.39-4.3.92-6.39z" fill="#b7b3b7"/><path fill="#b8b7bc" d="M268.55 190.99c3.07 2.19 2.51 6.56 2.86 9.88-2.92-2.41-3.43-6.36-2.86-9.88z"/><path d="M253.69 193.14l6.07.21c.22 3.06 2.09 6.28.91 9.28-1.85-2.6-1.97-6.16-3.49-9-.01 3.46.83 6.83 1.7 10.16-2.41-1.2-4.32-3.17-5.7-5.46.21-1.73.42-3.46.51-5.19zm-24.78 23.78l3.63-.14c-2.31 3.1-6.12 4-9.77 4.27 1.59-1.96 3.74-3.38 6.14-4.13z" fill="#413e40"/><path fill="#474244" d="M229.98 196.16l1.81-2.24 3.58 5.01c-1.19 3.26-2.44 6.81-5.77 8.47 1.1-3.68 2.47-7.63.38-11.24z"/><path d="M167.13 210.26c2.88-3.83 5.39-7.96 6.55-12.65l2.44 3.49c-1.91 4.47-5.26 8.03-9.03 11.01l.04-1.85zm-.27 6.48c2.42-4.33 5.23-8.77 9.85-11.02 3.47 6 9.93 9.18 14.45 14.28l2.44.77c-1.07 2.42-2.79 4.44-4.68 6.25 1.82-.59 3.65-1.15 5.49-1.68-1.16 4.14-4.54 6.69-8.35 8.25l2.93 2.47c-4.79.47-9.61-.24-14.17-1.72l4.28-5.17c-1.78.82-3.63 1.56-5.25 2.69-.47 1.93-.57 3.93-.78 5.9 4.39 1.72 9.11 2.31 13.78 1.56l-2.74 3.77c-4.09 2.34-8.85.79-13.1-.2-2.52-.73-5.54-1.43-6.78-4.02-2.37-4.4-3.58-9.29-4.84-14.08l.38-.74c1-1.41 2.06-2.79 2.97-4.26l1.88-.4c-.18 4.28.32 8.55 1.55 12.65l6.36-.73c.04-2.2.04-4.39.01-6.59-.68 1.84-1.53 3.6-2.46 5.33-.65-1.3-1.35-2.59-1.85-3.96.52-1.64 1.49-3.08 2.34-4.57l-3.09 1.66c-.32-2.1-1.79-4.4-.62-6.44zm32.5 15.7l2.18-.15 1.82 2.35a36.04 36.04 0 0 1-3.98.59l-.02-2.79z" fill="#fefcfb"/><path fill="#838186" d="M176.81 200.9c1.81-.54 3.56-1.26 5.3-1.99l1.26 3.77c1.33 4.01 4.62 6.84 7.15 10.08-1.96-1.34-3.78-2.92-5.95-3.92-1.34.01-2.65.37-3.96.61-1.36-2.81-2.54-5.7-3.8-8.55z"/><path fill="#b9b3b1" d="M176.12 201.1l.69-.2 3.8 8.55c1.31-.24 2.62-.6 3.96-.61 2.17 1 3.99 2.58 5.95 3.92-2.53-3.24-5.82-6.07-7.15-10.08l2.08 1.59c1.67 1.33 3.28 2.73 4.88 4.14l.13-7.87c3.28 6.04.73 13.01.7 19.46-4.52-5.1-10.98-8.28-14.45-14.28-4.62 2.25-7.43 6.69-9.85 11.02-1.17 2.04.3 4.34.62 6.44l3.09-1.66c-.85 1.49-1.82 2.93-2.34 4.57.5 1.37 1.2 2.66 1.85 3.96.93-1.73 1.78-3.49 2.46-5.33.03 2.2.03 4.39-.01 6.59l-6.36.73c-1.23-4.1-1.73-8.37-1.55-12.65l-1.88.4c1.01-3.26 1.89-6.58 3.44-9.64l.95.11-.04 1.85c3.77-2.98 7.12-6.54 9.03-11.01z"/><path d="M268.46 201.53l2.94-.61 1.13 4.23c.77 2.9 1.82 5.83 1.72 8.88-.81 3.12-2.06 6.1-2.93 9.2l-3.08-6.61c-1.23-3.37-1.86-6.93-2.3-10.48l2.69.96c1.18-1.86 1.21-3.79-.17-5.57m4.49 12.65c-.31-3.01-.97-5.99-2.18-8.77-1.53 2.63-1.25 8.06 2.18 8.77m-4.02.7c.65 1.14.79 2.73 2 3.47 2.09.05 2.37-1.99 2.47-3.62l-4.47.15zm-9.42-7.58l.87-.21 3.67.44c.76 2.91 1.42 5.85 1.72 8.85l-3.26-5.94.3 6.85c-2.49-2.73-2.91-6.48-3.3-9.99z" fill="#a2a0a4"/><path d="M158.65 202.58l3.93-.55-1.8 5.49-2.62-1.24-.7 1.69c-2.84 2.68-5.78 5.3-9.24 7.17 2.24-4.33 5.56-7.98 9.36-10.98l1.07-1.58zm111.51 57.53c1.53-.11 1.82 1.91 1.5 3.03l-1.45.12c-.78-.77-1.46-2.63-.05-3.15z" fill="#c1bdc2"/><path d="M250.48 204.31l3.19-2.55-2.9 5.05c-1.88 2.96-4.06 5.71-6.35 8.36l-.12-.84c2.05-3.34 4.37-6.53 6.18-10.02zm15.48 26.23c1.67 2.87 2 6.46 4.34 8.92l1.4 6.34-.53 6.93-.75-.68c-2.18-6.98-4.29-14.15-4.46-21.51z" fill="#76777a"/><path fill="#5d4136" d="M254.09 203.66l2.2 2.23c1.66 1.45.23 3.7.06 5.49l-1.43-1.19c-.44-2.16-.65-4.34-.83-6.53z"/><path fill="#aaa4a9" d="M218.52 205.22c.89-.97 2.88-.41 3.03.93-.23 2.04-4.08.88-3.03-.93z"/><path fill="#4f4f51" d="M272.95 214.18c-3.43-.71-3.71-6.14-2.18-8.77 1.21 2.78 1.87 5.76 2.18 8.77z"/><path fill="#1a1d25" d="M289.95 206.15c6.25 2.62 12.05 6.19 18.38 8.64 3.02 13.42-1.28 28.63-12 37.54-3.69 3.24-8.34 4.96-12.64 7.2-2.18.92-3.03 3.29-4.48 4.98l-.93.04c-.28-4.14-.37-8.36-1.58-12.35-2.94-8.98-5-18.22-6.92-27.45l2.99 3c.53-1.61 1.08-3.21 1.54-4.84.66 1.41 1.38 2.8 2.11 4.18-1.4 1.29-2.77 2.74-2.4 4.81.54 2.4 1.18 4.79 1.75 7.19 1.74 5.57 1.76 12.08 5.56 16.75 3.7.5 7.14-1.41 10.14-3.33 8.4-5.48 13.92-14.83 15.23-24.71.53-4.24 1.08-8.84-.69-12.86-4.95-3.6-10.97-5.38-16.06-8.79m-7.68 50.94c-.51 1.63.04 2.21 1.65 1.74.5-1.65-.05-2.23-1.65-1.74z"/><path opacity=".75" d="M250.77 206.81l4.15 3.38 1.43 1.19 2.17 1.77.54 2.27c-1.73 2.47-4.77 4.94-3.77 8.31 1.1 5.89 2.6 11.69 3.83 17.56l6.16-.16.04-4.32c.68 2.27 1.28 4.57 1.69 6.91-3.56-2.12-6.56 1.23-9.1 3.36-3.66-.66-7.39-.83-11.1-.6-4.48.27-8.88-.79-13.34-.95-.59-1.13-1.12-2.29-1.62-3.46 6.77 2.43 15.82 6.1 21.72-.04-1.42-3.76-3.67-7.21-4.45-11.2-.91-4.45-2.43-8.73-4.22-12.9-.19-.92-.35-1.84-.48-2.76 2.29-2.65 4.47-5.4 6.35-8.36z"/><path fill="#635d5a" d="M223.73 214.17c.83-1.91 1.05-4.01 1.47-6.04 1.03 1.7 2.24 3.32 2.99 5.18-.36 1.33-1.04 2.54-1.6 3.8l2.32-.19c-2.4.75-4.55 2.17-6.14 4.13l-1.75 1.96-.94.83c-2.05 1.79-4.26 3.39-6.43 5.03l2.06 4.59-.58-.53-2.1-1.94L211 217.6c4.41-.07 9.14-.61 12.73-3.43z"/><path fill="#656266" d="M155.83 211.31c3.28-1.37 6.85-1.8 10.35-1.16-1.55 3.06-2.43 6.38-3.44 9.64-.91 1.47-1.97 2.85-2.97 4.26l.46-2c.74-2.91 1.44-5.85 1.74-8.86l-1.88-.54c-1.43-.42-2.85-.88-4.26-1.34z"/><path fill="#c0b7b5" d="M215.53 214.19c.82-1.03 2.98.07 2.25 1.33-.81.99-2.98-.09-2.25-1.33z"/><path fill="#f3f2f4" d="M268.93 214.88l4.47-.15c-.1 1.63-.38 3.67-2.47 3.62-1.21-.74-1.35-2.33-2-3.47z"/><path fill="#fff" d="M207.35 216.09c1.91-.77 2.75 2.52.78 2.89-1.87.53-2.73-2.43-.78-2.89z"/><path fill="#d8cdc8" d="M193.6 220.77l3.68.45-2.66 4.8c2.1-.28 4.23-.03 5.97 1.3l-.83 2.87-4.83 3.36-1.22 2.07-4.72.44-2.93-2.47c3.81-1.56 7.19-4.11 8.35-8.25-1.84.53-3.67 1.09-5.49 1.68 1.89-1.81 3.61-3.83 4.68-6.25z"/><path fill="#e3dee1" d="M205.9 220.9l1.36-1.75c1.48 3.89 2.63 7.93 2.78 12.12-3.12-2.52-4.09-6.52-4.14-10.37z"/><path fill="#c8bbb7" d="M207.26 219.15c2.73 3.55 3.15 8.24 5.77 11.84l2.1 1.94c.55 1.48 1.04 2.98 1.53 4.48-5.26-2.22-8.92-6.67-12.6-10.83l-3.47.74c-1.74-1.33-3.87-1.58-5.97-1.3l2.66-4.8c2.06 1.04 3.88 2.47 5.73 3.83.92-1.41 1.86-2.81 2.89-4.15.05 3.85 1.02 7.85 4.14 10.37-.15-4.19-1.3-8.23-2.78-12.12z"/><path fill="#868689" d="M265.41 220.58c2.51-.52 3.38 2.45 4.37 4.17 1.92 9.23 3.98 18.47 6.92 27.45 1.21 3.99 1.3 8.21 1.58 12.35l-2.14-.26c-1.77-6.09-3.05-12.31-4.44-18.49-.35-2.14-.91-4.23-1.4-6.34-1.32-6.37-2.97-12.66-4.89-18.88z"/><path fill="#939095" d="M161.37 242.49c-3.2-5.18-5.86-12.14-1.98-17.7 1.26 4.79 2.47 9.68 4.84 14.08 1.24 2.59 4.26 3.29 6.78 4.02 4.25.99 9.01 2.54 13.1.2l1.56-.68c.37.15 1.11.47 1.47.63l.15 1.96c-6.95 3.17-14.63 2.84-22.07 2.58-1.14-.14-2.15-.72-3.16-1.2-.16-1.31-.3-2.63-.69-3.89z"/><path fill="#6e6b6e" d="M200.59 227.32l3.47-.74c3.68 4.16 7.34 8.61 12.6 10.83l-1.53-4.48.58.53c3.39 2.98 5.92 7.09 5.02 11.78-5.45-2.31-8.83-7.53-13.87-10.51.31 3.87.82 7.91-.73 11.6-2.14 4.7-5.54 9.41-10.78 10.81-2.92 1.18-6.08.21-8.7-1.22l-.75-1.19c2.34-.57 4.77-.82 7.03-1.69 3.16-2.07 2.6-6.35 2.68-9.6-2.82.23-5.65.6-8.32 1.56l-.15-1.96-1.47-.63c3.13-1.64 6.54-3.38 8.04-6.79l1.22-2.07c1.32 3.43 3.46 6.83 3.18 10.64-.51 4.06-2.56 7.69-3.99 11.46 5.28-2.49 8.86-7.64 10.4-13.15-.01-2.64-1.11-5.19-1.16-7.86l-1.82-2.35-1.78-2.1.83-2.87z"/><path fill="#9c969e" d="M194.93 233.55c1.5-1.28 3.17-2.32 4.83-3.36l1.78 2.1-2.18.15.02 2.79a36.04 36.04 0 0 0 3.98-.59c.05 2.67 1.15 5.22 1.16 7.86-1.54 5.51-5.12 10.66-10.4 13.15 1.43-3.77 3.48-7.4 3.99-11.46.28-3.81-1.86-7.21-3.18-10.64z"/><path fill="#252628" d="M229.01 241.59c-1.66-2.11-3.65-4.04-4.63-6.59l2.51 2.74 2.78-1.7 1.05 3.08 1.13 2.95 1.62 3.46c4.99 9.31 14.82 16.32 25.52 16.68 4.88.29 9.41-1.75 13.64-3.95-.5-1.85-1.03-3.68-1.46-5.53.14-2.31.39-4.62.53-6.93 1.39 6.18 2.67 12.4 4.44 18.49l-4.48-1.15c.32-1.12.03-3.14-1.5-3.03-1.41.52-.73 2.38.05 3.15-5.45.57-11.02 1.08-16.44-.05-8.22-1.61-15.6-6.76-20.17-13.75-1.67-2.54-2.95-5.31-4.59-7.87z"/><path fill="#9d9ca0" d="M282.27 257.09c1.6-.49 2.15.09 1.65 1.74-1.61.47-2.16-.11-1.65-1.74z"/></svg>