<svg xmlns="http://www.w3.org/2000/svg" width="512" height="512" viewBox="0 0 384 384" xmlns:v="https://vecta.io/nano"><path fill="#1b1a19" d="M219.61 113.25c1.78.36 3.63.85 4.89 2.27 6 5.8 8.55 14.2 9.69 22.26-.59 5.51-1.28 11.17.4 16.57l-.11 3.64 3.98 2.36-5.03 4.69 1.31 2.95-2.29-.73-.19 2.93c-3.18-1.9-5.99-4.32-8.97-6.49-2.84-2.07-6.17-3.68-8.28-6.59-.74-.86-.06-2.02.02-2.98 4.02-2.54 5.3-7.27 7.1-11.36l2.43 1.37c1.78 2.4 3.11 5.09 4.49 7.73l.89 1.52c2.09-8.24 1.1-17.09-1.17-25.19-1.46-5.83-5.14-10.64-9.16-14.95z"/><path opacity=".72" d="M215.12 126.65c2.65.79 5.34 1.89 7 4.22 4.98 5.84 5.9 13.7 6.93 21-1.38-2.64-2.71-5.33-4.49-7.73-.51-3.14-.95-6.37-2.46-9.22-1.53-3.35-4.42-5.74-6.98-8.27z"/><path fill="#2a3340" d="M154.56 133.58c6.13-.81 12.61-1.75 18.63.16l-1.77 3.28c.86.65 1.69 1.33 2.57 1.96-1.67-.44-3.35-.84-4.99-1.37-1.47-.77-2.79-2.04-4.46-2.31-1.59 1.03-2.74 2.59-4.06 3.92l-1.12.39c-1.61-1.4-3.3-2.69-4.99-3.99l.19-2.04z"/><path fill="#1b1a18" d="M173.19 133.74c3.82 1.63 7.51 3.56 11.3 5.27l-1.63 1.66-.74.41-4.63-1.06-3.5-1.04c-.88-.63-1.71-1.31-2.57-1.96l1.77-3.28z"/><path fill="#c38b74" d="M160.48 139.22c1.32-1.33 2.47-2.89 4.06-3.92 1.67.27 2.99 1.54 4.46 2.31-1.99 1.48-.06 3.56 1.81 3.67l1.33.47c-2.8 1.05-5.67 2.5-7.23 5.19-2.3 3.35-2.15 7.56-2.33 11.43l-1.61-.53-1.45-.57c-.46-2.92-.63-6.18.97-8.8 1.93-2.52 4.53-4.43 6.86-6.56l.76-.46c-2.66-.23-5.56-.27-7.63-2.23z"/><path fill="#29313d" d="M184.49 139.01c3.25-.28 6.41-1.28 8.63-3.79 4.53 2.36 9.07-.44 13.73-.53 1.35 1.18 2.75 2.33 4.22 3.38a134.19 134.19 0 0 0 .86 9.37c-1.87 1.79-3.67 3.65-5.36 5.61l-4.39-1.08c-.19-.24-.58-.7-.78-.94 5.15-.7 8.79-8.23 4.39-11.83-2.66-2.33-5.53 1.22-8.36 1.17-1.28-.86-2.38-1.95-3.53-2.96.58 2.2 1.16 4.4 2 6.51-3.81-2.62-8.45-3.72-13.04-3.25.4-.42 1.22-1.25 1.63-1.66z"/><path fill="#070808" d="M195.9 143.92c-.84-2.11-1.42-4.31-2-6.51 1.15 1.01 2.25 2.1 3.53 2.96 2.83.05 5.7-3.5 8.36-1.17 4.4 3.6.76 11.13-4.39 11.83l-2.59-3.53c2.14-.12 4.26-.35 6.4-.56l-.03-4.99c-1.71-.17-3.74-1.32-5.27-.04-1.1 1.21-1.46 2.88-2.12 4.34l-1.89-2.33z"/><path d="M170.81 141.28c-1.87-.11-3.8-2.19-1.81-3.67.9 1.05 1.43 2.35 1.81 3.67zm61.94 78.64c.8-1.94 1.86-3.77 3.14-5.43l1.3 1.96c1.3 5.51-2.02 10.44-5 14.73-.98 1.26-2.01 2.72-3.66 3.1-4.81 1.08-9.78 1.39-14.69 1.16l-3.82-5.33c2.69.27 5.38.64 8.07.95 1.41.15 2.84.21 4.26.22 1.12-2.24 2.28-4.93 5.11-5.24 3.04-.5 4.19-3.65 5.29-6.12z" fill="#fffefe"/><path d="M169 137.61l4.99 1.37 3.5 1.04-5.35 1.73-1.33-.47c-.38-1.32-.91-2.62-1.81-3.67zm77.75 58.55c1.53-2.79 3.49-5.3 5.39-7.84-.09 1.79-.47 4.16 1.48 5.16 3 1.7 6.14-.53 8.28-2.57l-1.92 4c-1.5.88-2.24 2.52-1.92 4.23l-2.88 4.03c-.08-2.86.77-6.59-1.96-8.51l-5.78 1.34-.69.16z" fill="#817670"/><path fill="#171716" d="M211.07 138.07l7.93 3.14-1.5 1.49-5.57 4.74-.86-9.37z"/><path d="M234.19 137.78c.9 5.48.73 11.05.4 16.57-1.68-5.4-.99-11.06-.4-16.57zm-39.83 7.74c2.77 2.36 4.92 5.36 6.43 8.66.6 4.15 1.03 9.63-3.71 11.46-3.53 1.86-7.18 3.58-10.19 6.25-2.96 2.46-5.5 5.62-9.14 7.11-2.63 1.08-5.56-.9-6.46-3.39-1.66-4.35-3.24-8.87-3.55-13.54.66-5.55 4.83-9.78 8.53-13.62 1.06 1.81 1.44 3.87 1.77 5.91l1.01-.36c.05-.02.15-.05.2-.07 1.28-.31 2.53-1.51 3.89-1 1.48.86 2.47 2.34 3.63 3.55l1.86-1.13-.83-2.13 3.81-1.17c.96-2.16 1.87-4.34 2.75-6.53m-12.13 11.73c-.68.94.43 2.94 1.64 2.27.99-.94-.48-2.92-1.64-2.27m3.02 9.83c.12 3.32 3.02-1.51 0 0z" fill="#3e4242"/><path fill="#ca825f" d="M159.36 139.61l1.12-.39c2.07 1.96 4.97 2 7.63 2.23l-.76.46c-2.47.48-5.88-.48-7.46 2.04-1.65 2.66-2.45 5.73-3.53 8.65l-3.73-1.15c-3.45-5.23 2.46-9.85 6.73-11.84z"/><path fill="#373a39" d="M177.49 140.02l4.63 1.06c-7.81 3.96-14.2 11.07-16.5 19.61-.99-.81-1.98-1.61-3.04-2.32.18-3.87.03-8.08 2.33-11.43 1.56-2.69 4.43-4.14 7.23-5.19l5.35-1.73z"/><path fill="#9c8d88" d="M182.86 140.67c4.59-.47 9.23.63 13.04 3.25l1.89 2.33 1.02 1.25c.89 1.16 1.72 2.36 2.59 3.53l.78.94-1.39 2.21c-1.51-3.3-3.66-6.3-6.43-8.66-1.81-1.33-3.81-2.91-6.2-2.73-4.46.44-8.64 2.61-11.89 5.66-3.7 3.84-7.87 8.07-8.53 13.62.31 4.67 1.89 9.19 3.55 13.54.9 2.49 3.83 4.47 6.46 3.39 3.64-1.49 6.18-4.65 9.14-7.11 3.01-2.67 6.66-4.39 10.19-6.25l2.39 2.31c-2.27 1.47-4.47 3.04-6.73 4.53-1.4 1.02-3.29 1.58-4.26 3.09-1 2.7-.69 5.65-.81 8.48l-1.85-5.95c-3.85 2.15-7.86 4.06-12.19 5-.54-.67-1.11-1.31-1.69-1.93-2.94-1.36-6.22 1.37-9.2 1.89.12-3.87 2.82-6.5 5.05-9.33.57-4.49-1.5-8.69-4.78-11.64-.71-1.4-1.34-2.84-2.04-4.25l1.61.53c1.06.71 2.05 1.51 3.04 2.32 2.3-8.54 8.69-15.65 16.5-19.61l.74-.41z"/><path fill="#2b2b30" d="M199.91 141.91c1.53-1.28 3.56-.13 5.27.04l.03 4.99-6.4.56-1.02-1.25c.66-1.46 1.02-3.13 2.12-4.34z"/><path fill="#5c5857" d="M219 141.21c1.07.46 2.11.99 3.13 1.56-1.8 4.09-3.08 8.82-7.1 11.36.54-1.93.26-3.94.32-5.91.69-1.85 1.76-3.56 2.15-5.52l1.5-1.49z"/><path fill="#9d694f" d="M159.89 143.95c1.58-2.52 4.99-1.56 7.46-2.04-2.33 2.13-4.93 4.04-6.86 6.56-1.6 2.62-1.43 5.88-.97 8.8l1.45.57 2.04 4.25-4.91-3.01-1.18-2.07-4.29-5.56 3.73 1.15c1.08-2.92 1.88-5.99 3.53-8.65z"/><path fill="#4b5358" d="M188.16 142.79c2.39-.18 4.39 1.4 6.2 2.73l-2.75 6.53-3.81 1.17.83 2.13-1.86 1.13c-1.16-1.21-2.15-2.69-3.63-3.55-1.36-.51-2.61.69-3.89 1l-.2.07-1.01.36c-.33-2.04-.71-4.1-1.77-5.91 3.25-3.05 7.43-5.22 11.89-5.66z"/><path fill="#848082" d="M217.5 142.7c-.39 1.96-1.46 3.67-2.15 5.52-.06 1.97.22 3.98-.32 5.91-.08.96-.76 2.12-.02 2.98 2.11 2.91 5.44 4.52 8.28 6.59 2.98 2.17 5.79 4.59 8.97 6.49l.19-2.93 2.29.73c.51 1.37.92 2.77 1.32 4.18l-3.4 2.1c-1.19-1.06-2.5-1.95-3.86-2.77-5.85-4.01-11.83-7.99-16.62-13.29 0 3.1-1.38 6.72.45 9.52 4.33 1.42 8.54 3.18 12.94 4.37l-1.41 2.06 1 1.63c-2.09-.66-4.2-1.23-6.3-1.81l1.59 3.63-1.95.25-.89 2.7-4.4-2.25-1.81 4.7c-2.26-3.47-.27-7.41 1.4-10.64-2.82.8-5.72.34-8.59.34-2.33.83-3.91 2.97-5.7 4.58.2-1.58.42-3.16.92-4.67l1.92-1.42 4.31-.56a197.48 197.48 0 0 0-2.31-9.61c-1.15 2.38-2.05 4.96-3.88 6.92l-2.39-2.31c4.74-1.83 4.31-7.31 3.71-11.46l2.42 3.05 3.36-4.18c1.69-1.96 3.49-3.82 5.36-5.61 1.78-1.67 3.7-3.17 5.57-4.74m-11.88 22.41l2.4.5c1.91.17 1.52-2.16 1.76-3.4l2.92-10.32c-4.4 2.58-9.58 7.71-7.08 13.22m1.77 3.1c-1.4 1.29.86 3.66 2.15 2.17 1.48-1.33-.81-3.66-2.15-2.17z"/><path fill="#c4937a" d="M202.18 151.97l4.39 1.08-3.36 4.18-2.42-3.05 1.39-2.21z"/><path fill="#a7a3a8" d="M205.62 165.11c-2.5-5.51 2.68-10.64 7.08-13.22-.87 3.47-1.97 6.88-2.92 10.32-.28-1.65-.83-3.23-1.66-4.68-1.09 2.44-1.76 5.02-2.5 7.58z"/><path fill="#ebeaeb" d="M179.05 154l.2-.07-.2.07z"/><path fill="#1e1713" opacity=".52" d="M156.92 157.01l1.18 2.07-1.18-2.07z"/><path d="M182.23 157.25c1.16-.65 2.63 1.33 1.64 2.27-1.21.67-2.32-1.33-1.64-2.27zm25.89.28c.83 1.45 1.38 3.03 1.66 4.68-.24 1.24.15 3.57-1.76 3.4l-2.4-.5c.74-2.56 1.41-5.14 2.5-7.58zm9.99 45.96l.84-.27 4.88 6.74-1.22-6.58c3.7 1.47 5.72 4.92 5.85 8.82l5.05-.64c-1.38 1.71-2.62 3.55-3.45 5.6-1.08 2.42-2.09 4.87-3.08 7.32-1.03-1.71-2.29-3.27-3.69-4.68l-.75 4.63-1.69-.07-1.66-2.57c-2.73-4.16-5.25-8.61-5.62-13.68l4.54-4.62z" fill="#fefbfa"/><path fill="#68625f" d="M212.18 158.21c4.79 5.3 10.77 9.28 16.62 13.29.38 1.07.79 2.14 1.21 3.2l-2.62-.06-1.52 1.47-.71-.32-1-1.63 1.41-2.06c-4.4-1.19-8.61-2.95-12.94-4.37-1.83-2.8-.45-6.42-.45-9.52z"/><path fill="#716d6e" d="M199.47 167.95c1.83-1.96 2.73-4.54 3.88-6.92l2.31 9.61-4.31.56-1.92 1.42c-.5 1.51-.72 3.09-.92 4.67-.37 1.63-.83 3.24-1.36 4.83-.5 1.07-.64 2.19-.41 3.34 1.02 5.3 1.87 11.63 7.21 14.37 2.15-1.01 4.63-1.67 6.24-3.53.66-2.03.81-4.17 1.11-6.27l1.92 3.89c2.2-.47 4.44-.15 6.2 1.36 4.04-1 4.76-5.57 6.36-8.77l1.52 4.52c1.02-1.41 2.35-2.7 2.92-4.38-.69-2.9-1.36-5.81-1.46-8.8l2.49-.41c.49 1.1.99 2.22 1.43 3.36-.58 3.86-1.58 7.65-2.11 11.52 2.67-.76 4.02-3.14 4.86-5.6 2.8-4.33-.72-8.68-2.77-12.45l3.4-2.1c.57 2.89 2.21 5.33 3.85 7.71 4.15 4.79-.01 10.23-2.58 14.58l5.58 1.61c-3.38-.58-7.52-1.57-10.05 1.48l-1.99 1.61c-.82.54-1.65 1.06-2.51 1.54-2.88 1.67-6.22 1.89-9.41 2.52l-.84.27c-1.31.53-2.85.73-3.92 1.72-.69 1.74-1 3.6-1.39 5.43a65.22 65.22 0 0 0-4.07-4.4l-.8-.82c-.26.14-.8.4-1.07.53l-2.43 1.32c.32 2.29.59 4.6 1.04 6.88L203 213c-2.64-.56-5.35-.45-8.02-.29l-1.2-3.71c1.1-.64 2.21-1.29 3.34-1.88l4.98-1.53c-.69-.83-1.37-1.68-2.29-2.26-6.59-3.53-8.68-11.25-11.69-17.55l2.19-.59 1.71-.46a47.88 47.88 0 0 1 1.4-2.77c.82-.7 1.67-1.35 2.51-2.02l-4.15-4.2.96-3.26 6.73-4.53m18.78 33.2c.55.55.55.55 0 0z"/><path fill="#a6a5a5" d="M185.25 167.08c3.02-1.51.12 3.32 0 0z"/><path fill="#f4f0eb" d="M207.39 168.21c1.34-1.49 3.63.84 2.15 2.17-1.29 1.49-3.55-.88-2.15-2.17z"/><path fill="#dcd8c8" d="M199.43 172.62l1.92-1.42-1.92 1.42z"/><path fill="#cecac0" d="M228.8 171.5c1.36.82 2.67 1.71 3.86 2.77 2.05 3.77 5.57 8.12 2.77 12.45-1-1.93-1.95-3.9-2.75-5.92-.44-1.14-.94-2.26-1.43-3.36l-1.24-2.74c-.42-1.06-.83-2.13-1.21-3.2z"/><path fill="#f0ad8c" d="M255.57 174.59c2.13-1.6 4.61-2.69 7.07-3.71.31 3.34 2.37 5.92 4.64 8.22l-.92 2.96c-2.5-2.09-5.64-3.95-9.02-3.25-1.26.88-2.16 2.15-3.07 3.36.18-2.55-.02-5.28 1.3-7.58z"/><path fill="#a8a6a8" d="M204.21 172.71c2.87 0 5.77.46 8.59-.34-1.67 3.23-3.66 7.17-1.4 10.64.63-1.55 1.21-3.13 1.81-4.7l4.4 2.25.89-2.7 1.95-.25-1.59-3.63 6.3 1.81.71.32-.47 2.35c-.98-.37-1.99-.67-2.97-1.04a82.49 82.49 0 0 1 1.92 7.93l.2 1c-.86.39-1.7.81-2.53 1.27-2.34-2.31-4.81-4.48-7.49-6.37l-3.19 2.93-2.57-1.71-.14 4.01 2.47 1.69c-3.17 1.18-6.57 1.14-9.87.75l-2.17-4.98c-.33-.93-.97-1.53-1.91-1.82.53-1.59.99-3.2 1.36-4.83 1.79-1.61 3.37-3.75 5.7-4.58m-3.35 10.46c.48 1.74 1.15 3.43 2.14 4.95.81-.82 1.58-1.68 2.37-2.52l-2.26-.02-.06-3.83-2.19 1.42z"/><path fill="#db9979" d="M188.48 175.57c.97-1.51 2.86-2.07 4.26-3.09l-.96 3.26c-.61 2-1.21 4.02-1.42 6.11l-.05 3.34-2.19.59c3.01 6.3 5.1 14.02 11.69 17.55.92.58 1.6 1.43 2.29 2.26l-4.98 1.53c-3.25.24-6.53.41-9.78.13-1.1-.65-2.86-1.01-2.83-2.62-.47-3.14-.04-6.34-.5-9.48-.94-1.78-3.14-2.4-4.68-3.58-2-2.75-3.75-5.68-5.7-8.47 4.33-.94 8.34-2.85 12.19-5l1.85 5.95c.12-2.83-.19-5.78.81-8.48z"/><path d="M227.39 174.64l2.62.06 1.24 2.74-2.49.41c.1 2.99.77 5.9 1.46 8.8-.57 1.68-1.9 2.97-2.92 4.38l-1.52-4.52c-1.6 3.2-2.32 7.77-6.36 8.77-1.76-1.51-4-1.83-6.2-1.36l-1.92-3.89c-.3 2.1-.45 4.24-1.11 6.27-1.61 1.86-4.09 2.52-6.24 3.53-5.34-2.74-6.19-9.07-7.21-14.37.87-.35 1.65-.85 2.32-1.52.75 1.65 1.46 3.31 2.17 4.98 3.3.39 6.7.43 9.87-.75l1.64-.54.12 1.08.43 3.63c2.76-.75 4.9-2.67 6.96-4.56l1.77-.16c.83-.46 1.67-.88 2.53-1.27 2.19.48 1.27-2.87-.2-1a82.49 82.49 0 0 0-1.92-7.93c.98.37 1.99.67 2.97 1.04l.47-2.35 1.52-1.47m-26.78 15.51c-1.26.92-.45 3.74 1.32 3.03 1.91-.73.41-3.77-1.32-3.03zm-72.07 31.96l8.38.46c4.13 1.07 8.21 2.33 12.29 3.55l.97 1.89c-7.01-1.42-13.78-3.8-20.75-5.39l-.89-.51z" fill="#8a888c"/><path fill="#928885" d="M190.36 181.85c.21-2.09.81-4.11 1.42-6.11l4.15 4.2-2.51 2.02-3.06-.11z"/><path opacity=".76" d="M239.91 179.88c1.69-1.64 3.64-2.98 5.74-4.04 1.6 2.32 3.89 4.36 4.58 7.17-1 4.85-5.21 8.44-5.5 13.53l-1.82-.47-5.58-1.61c2.57-4.35 6.73-9.79 2.58-14.58z"/><path fill="#c7bbb6" d="M257.34 178.81c3.38-.7 6.52 1.16 9.02 3.25l-1.21 3.9-1.43 1.9-1.82 3.05c-2.14 2.04-5.28 4.27-8.28 2.57-1.95-1-1.57-3.37-1.48-5.16 1.06-1.92 1.67-4.03 2.13-6.15.91-1.21 1.81-2.48 3.07-3.36z"/><path fill="#452d1f" d="M162.74 183.06c2.98-.52 6.26-3.25 9.2-1.89.68 3.29 1.07 6.64 1.64 9.95l.72 4.19c.41 2.67.75 5.35 1.3 7.99l.47 1.66c.79 2.19 1.5 4.42 2.52 6.52a36.65 36.65 0 0 0 3.01 3.8c2.45 2.44 5.69 3.81 8.82 5.15l-.51 3.57-2.77-1.59-1.9-1.03c-3.29-1.83-7.07-2.8-9.87-5.43.61-.96 1.29-1.88 1.76-2.92-.55-1.91-1.68-3.59-2.61-5.33-1.92 0-3.84 0-5.76-.01-2.36-2.75-3.62-7.14-7.67-7.74l2.47-.8c-2.38-5.06-3.02-10.85-.82-16.09z"/><path fill="#645652" d="M171.94 181.17l1.69 1.93c1.95 2.79 3.7 5.72 5.7 8.47l.45 3.22-3.03-.01c2.22 4.05 4.09 8.27 6.18 12.38.64 1.74 2.66 1.97 4.12 2.71.04-.88.16-1.75.29-2.62 3.25.28 6.53.11 9.78-.13-1.13.59-2.24 1.24-3.34 1.88l1.2 3.71-4.28 3.74 2.43-.74 1.95 1.85c-1.68 1.84-3.25 3.88-3.68 6.4l-.22.86c-.94 4.08-.23 8.25.79 12.25-2.36-3.93-2.94-8.61-2.06-13.07l.51-3.57c-3.13-1.34-6.37-2.71-8.82-5.15.11-1.21.55-2.51-.16-3.62a19.48 19.48 0 0 0-2.85-.18c-1.02-2.1-1.73-4.33-2.52-6.52 1.39-.02 2.67-1.52 2.01-2.88-.77-1.82-2.63-.13-2.48 1.22-.55-2.64-.89-5.32-1.3-7.99 1.69-1.51 1.94-3.46.95-5.46l-1.67 1.27c-.57-3.31-.96-6.66-1.64-9.95z"/><path fill="#f7f2eb" d="M190.36 181.85l3.06.11-1.4 2.77-1.71.46.05-3.34z"/><path fill="#efe9ed" d="M211.34 184.18l3.19-2.93c2.68 1.89 5.15 4.06 7.49 6.37l-1.77.16c-2.49.11-4.96.39-7.39.93l-.12-1.08-1.64.54-2.47-1.69.14-4.01 2.57 1.71z"/><path fill="#514c4b" d="M230.57 192.32c.53-3.87 1.53-7.66 2.11-11.52.8 2.02 1.75 3.99 2.75 5.92-.84 2.46-2.19 4.84-4.86 5.6z"/><path fill="#f2ece8" d="M197.15 182.12c.94.29 1.58.89 1.91 1.82-.67.67-1.45 1.17-2.32 1.52-.23-1.15-.09-2.27.41-3.34z"/><path fill="#949295" d="M200.86 183.17l2.19-1.42.06 3.83 2.26.02-2.37 2.52c-.99-1.52-1.66-3.21-2.14-4.95z"/><path fill="#fffff9" d="M224.35 185.35c1.47-1.87 2.39 1.48.2 1l-.2-1z"/><path fill="#45403e" opacity=".53" d="M263.72 187.86l1.43-1.9-1.43 1.9z"/><path fill="#aea9b0" d="M212.86 188.71c2.43-.54 4.9-.82 7.39-.93-2.06 1.89-4.2 3.81-6.96 4.56l-.43-3.63z"/><path fill="#a49590" d="M173.58 191.12l1.67-1.27c.99 2 .74 3.95-.95 5.46l-.72-4.19z"/><path d="M200.61 190.15c1.73-.74 3.23 2.3 1.32 3.03-1.77.71-2.58-2.11-1.32-3.03zM203 213l2.47 1.15c1.89 4.36 4.07 8.74 7.36 12.24l.7.67c-2.46.69-5.01.76-7.49.15.4-3.1-2.43-4.93-3.96-7.21-1.29-1.53-1.5-3.57-1.85-5.46L203 213zm-9.87 2.71c1.01-.19 2.15-.67 3.12-.05 3.57 1.98 5.2 6.01 6.11 9.78l-7.28-7.88-1.95-1.85z" fill="#f1ebea"/><path d="M179.33 191.57c1.54 1.18 3.74 1.8 4.68 3.58.46 3.14.03 6.34.5 9.48-.03 1.61 1.73 1.97 2.83 2.62l-.29 2.62c-1.46-.74-3.48-.97-4.12-2.71-2.09-4.11-3.96-8.33-6.18-12.38l3.03.01-.45-3.22zm-34.39 12.65l3.12.62c-3.15 4.3-4.49 9.82-3.96 15.08.09 3.56 4.29 3.58 6.85 4.23l-1.37 1.56-.37.41-12.29-3.55 2.45-.66 2.63-.2.37-3.79c.39-3.76 1.09-7.49 1.99-11.16l.58-2.54z" fill="#4d3c37"/><path fill="#8f8b90" d="M232.86 197.55c2.53-3.05 6.67-2.06 10.05-1.48.46.11 1.37.35 1.82.47l2.02-.38.69-.16c.26 3.63 2.92 6.18 5.69 8.2 1.32-3.09.93-6.39.09-9.54 2.73 1.92 1.88 5.65 1.96 8.51-3.68 4.38 1.07 11.36-4.21 15.05-.4-2.71 0-5.93-2.11-8.02-2.55-2.61-5.68-4.8-9.23-5.76-2.6-.69-5.18.47-7.68 1.02l-3.59-4.76c.86-.48 1.69-1 2.51-1.54l.81 2.52 3.69-.24.35-3.02-2.86-.87m5.18.76c.61 1.24 1.29 2.45 2.08 3.6 1.75-1.06 2.74-2.79 2.77-4.85a62.72 62.72 0 0 0-4.85 1.25m7.25 4.89c-.53 1.61.03 2.16 1.67 1.64.52-1.62-.03-2.17-1.67-1.64z"/><path d="M247.44 196l5.78-1.34c.84 3.15 1.23 6.45-.09 9.54-2.77-2.02-5.43-4.57-5.69-8.2zm-9.4 2.31l4.85-1.25c-.03 2.06-1.02 3.79-2.77 4.85-.79-1.15-1.47-2.36-2.08-3.6z" fill="#dbd0cb"/><path fill="#403936" opacity=".75" d="M258.06 199.14c-.32-1.71.42-3.35 1.92-4.23.54 1.74-.31 3.46-1.92 4.23z"/><path d="M230.87 199.16l1.99-1.61 2.86.87-.35 3.02-3.69.24-.81-2.52zm-24.01 6.79l1.07-.53.8.82c.47 5.22 3.96 9.27 6.09 13.86-6.2-1.63-7.46-8.69-7.96-14.15zm-40.15 19.68l6.2-.45-1.93 1.78-1.77.14-5.2-.32 2.7-1.15z" fill="#eee7eb"/><path fill="#7e7371" d="M147.9 201.79c4.4-.53 8.82-1.02 13.19-1.84 4.05.6 5.31 4.99 7.67 7.74-.16 1.43-.31 2.86-.37 4.3 0 2.28.19 4.55.37 6.82l-2.05 6.82-2.7 1.15 5.2.32c-5.09.71-10.16 2.1-15.34 1.32-.85-1.6-2.54-2.5-4.29-2.71l1.37-1.56.88.1c2.12.24 4.25.37 6.39.41l1.36-3.53c.81.66 1.7 1.22 2.49 1.92l1.39 1.63 3.96-2.58c-.93-6.13-1.32-12.42-3.44-18.28-3.61 1.08-2.7 5.38-3.38 8.25-2.97-.6-1.36-4.62-2.17-6.81-.4-4.02-5.42-3.29-8.3-3.44l-2.23-.03z"/><path fill="#a3958f" d="M175.6 203.3c-.15-1.35 1.71-3.04 2.48-1.22.66 1.36-.62 2.86-2.01 2.88l-.47-1.66z"/><path fill="#efe3de" d="M218.25 201.15c.55.55.55.55 0 0z"/><path fill="#c8bdb5" d="M218.95 203.22c3.19-.63 6.53-.85 9.41-2.52l3.59 4.76c2.36 2.52 4.19 5.43 3.94 9.03-1.28 1.66-2.34 3.49-3.14 5.43l.28-6-2.97 3.24c.83-2.05 2.07-3.89 3.45-5.6l-5.05.64c-.13-3.9-2.15-7.35-5.85-8.82l1.22 6.58c-1.58-2.28-3.18-4.55-4.88-6.74z"/><path fill="#948a88" d="M119.97 203.33c9.35 1.1 18.65-.53 27.93-1.54l2.23.03-2.07 3.02-3.12-.62-.58 2.54c-4.55-1.08-9.21-.31-13.6 1.06a45.93 45.93 0 0 0-.55 3.11c-.25 2.66-.25 5.33-.26 8-1.27-.69-2.5-1.42-3.75-2.14.26-3.11.38-6.23.54-9.34l-5.78-.5 1.22-2.52 5.94-.25c-2.72-.33-5.44-.55-8.15-.85z"/><path fill="#cfc4bf" d="M150.13 201.82c2.88.15 7.9-.58 8.3 3.44.81 2.19-.8 6.21 2.17 6.81.68-2.87-.23-7.17 3.38-8.25 2.12 5.86 2.51 12.15 3.44 18.28l-3.96 2.58-1.39-1.63c.38-3.61-.07-7.35-2.66-10.08-.76 3.49-1.36 7.01-1.87 10.54l-5.71.74-.88-.1c-2.56-.65-6.76-.67-6.85-4.23-.53-5.26.81-10.78 3.96-15.08l2.07-3.02z"/><path fill="#645f61" d="M231.95 205.46c2.5-.55 5.08-1.71 7.68-1.02 3.55.96 6.68 3.15 9.23 5.76 2.11 2.09 1.71 5.31 2.11 8.02l-1.54.91-.96-4.28c-3.32 4.15-3.39 10.35-8.04 13.51 1.92-3.74 1.65-8.05 2.41-12.09 1.03-1.03 2.93-1.68 2.8-3.42.24-2.17-1.37-3.86-2.37-5.59-1.98-.38-3.97-.23-5.77.71-.01 2.83-.19 5.66-.31 8.48l-1.3-1.96c.25-3.6-1.58-6.51-3.94-9.03z"/><path fill="#ccc6cc" d="M245.29 203.2c1.64-.53 2.19.02 1.67 1.64-1.64.52-2.2-.03-1.67-1.64z"/><path fill="#8c8b91" d="M214.19 205.21c1.07-.99 2.61-1.19 3.92-1.72l-4.54 4.62c.37 5.07 2.89 9.52 5.62 13.68l-1.32 2.7-4.54-1-.5 2.9c-3.29-3.5-5.47-7.88-7.36-12.24-.45-2.28-.72-4.59-1.04-6.88l2.43-1.32c.5 5.46 1.76 12.52 7.96 14.15-2.13-4.59-5.62-8.64-6.09-13.86a65.22 65.22 0 0 1 4.07 4.4c.39-1.83.7-3.69 1.39-5.43z"/><path fill="#281f1b" opacity=".77" d="M103.59 207.35c3.38-.14 6.73-.67 9.79-2.17l-.6 2.75c-3.03.12-6.5 1.4-9.19-.58z"/><path fill="#756562" d="M113.38 205.18c2.91-.49 5.86-.59 8.8-.75l-1.22 2.52c-1.43 1.88-3.91 3.43-3.72 6.09-.18 2.4.88 4.61 1.86 6.73 2.5-.45 6.14.07 7.1-2.98l3.75 2.14c3.01 1.35 6.22 2.2 9.42 2.98l-2.45.66-8.38-.46c-4.22-.56-8.94-1.6-12.85.65l-.79.23-2.62.15 1.96-2.69c2.39-4.12 1.19-9.23 2.29-13.74-1.35 1.06-2.69 2.12-4.08 3.11-2.85.58-5.76.81-8.66.82l-2.08-3.17 1.88-.12c2.69 1.98 6.16.7 9.19.58l.6-2.75z"/><path fill="#d5cbc5" d="M130.76 207.82c4.39-1.37 9.05-2.14 13.6-1.06-.9 3.67-1.6 7.4-1.99 11.16-3.01-.3-6.14-.22-9.02-1.24-2.2-.98-2.54-3.7-3.14-5.75a45.93 45.93 0 0 1 .55-3.11z"/><path fill="#bfb3ac" d="M112.45 209.82l4.08-3.11c-1.1 4.51.1 9.62-2.29 13.74l-1.22-2.4c-.45-2.72-.53-5.48-.57-8.23z"/><path fill="#d3c8c2" d="M120.96 206.95l5.78.5-.54 9.34c-.96 3.05-4.6 2.53-7.1 2.98-.98-2.12-2.04-4.33-1.86-6.73-.19-2.66 2.29-4.21 3.72-6.09z"/><path fill="#978d88" d="M168.76 207.69l5.76.01c.93 1.74 2.06 3.42 2.61 5.33-.47 1.04-1.15 1.96-1.76 2.92 2.8 2.63 6.58 3.6 9.87 5.43-3.84 1.47-7.99 1.51-12.02.98.39-2.71 1.46-5.84-.27-8.31-1.24-1.17-3.02-1.45-4.56-2.06.06-1.44.21-2.87.37-4.3z"/><path fill="#928f91" d="M237.5 207.97c1.8-.94 3.79-1.09 5.77-.71l-3.46.77c-.57 3.23.23 6.33 3.03 8.24-.76 4.04-.49 8.35-2.41 12.09-3.95 3.74-7.13 8.53-12.49 10.43-4.93.34-9.97-.52-14.1-3.35 4.91.23 9.88-.08 14.69-1.16 1.65-.38 2.68-1.84 3.66-3.1 2.98-4.29 6.3-9.22 5-14.73.12-2.82.3-5.65.31-8.48z"/><path d="M100.06 216.07c-.06-2.96.59-5.85 1.65-8.6l2.08 3.17c-1.5.92-1.1 2.78-1.24 4.25l-2.49 1.18zm15.63 6.69c3.91-2.25 8.63-1.21 12.85-.65l.89.51c-4.58.06-9.17-.2-13.74.14zm76.37 5.26a44.03 44.03 0 0 1 4.95 1.06l-1.42 2.71c.78.54 1.87.84 2.18 1.85 1.33 3.11 2.29 6.38 2.96 9.7-2.99-1.99-5.85-4.98-5.64-8.83-2.28-1.41-2.94-3.97-3.03-6.49z" fill="#b5b0b6"/><path fill="#d5c9c3" d="M239.81 208.03l3.46-.77c1 1.73 2.61 3.42 2.37 5.59.13 1.74-1.77 2.39-2.8 3.42-2.8-1.91-3.6-5.01-3.03-8.24z"/><path fill="#a4837d" d="M103.79 210.64c2.9-.01 5.81-.24 8.66-.82.04 2.75.12 5.51.57 8.23l-.74-1.4-.82-1.45-7.07-.28-.6-4.28z"/><path fill="#765750" d="M102.55 214.89c.14-1.47-.26-3.33 1.24-4.25l.6 4.28 7.07.28.82 1.45a51.33 51.33 0 0 1-7.7 1.08l-2.03-2.84z"/><path fill="#bcb0ac" d="M130.21 210.93c.6 2.05.94 4.77 3.14 5.75 2.88 1.02 6.01.94 9.02 1.24l-.37 3.79-2.63.2c-3.2-.78-6.41-1.63-9.42-2.98l.26-8z"/><path fill="#968a86" d="M178.59 211.48a19.48 19.48 0 0 1 2.85.18c.71 1.11.27 2.41.16 3.62a36.65 36.65 0 0 1-3.01-3.8z"/><path fill="#c9bdb8" d="M168.39 211.99c1.54.61 3.32.89 4.56 2.06 1.73 2.47.66 5.6.27 8.31l-3.02-.31-1.44-3.24-.37-6.82z"/><path fill="#beb5ae" d="M194.98 212.71c2.67-.16 5.38-.27 8.02.29l-2.77 1.54c.35 1.89.56 3.93 1.85 5.46 1.53 2.28 4.36 4.11 3.96 7.21 2.48.61 5.03.54 7.49-.15l4.56 4-8.07-.95 3.82 5.33c-3.05-1.84-6.05-3.8-8.77-6.1-.98-1.25-1.85-2.58-2.71-3.9-.91-3.77-2.54-7.8-6.11-9.78-.97-.62-2.11-.14-3.12.05l-2.43.74c1.41-1.27 2.84-2.51 4.28-3.74z"/><path fill="#998884" d="M159.41 212.97c2.59 2.73 3.04 6.47 2.66 10.08-.79-.7-1.68-1.26-2.49-1.92l-1.36 3.53c-2.14-.04-4.27-.17-6.39-.41 1.91-.21 3.81-.48 5.71-.74.51-3.53 1.11-7.05 1.87-10.54z"/><path fill="#b1a193" d="M230.06 217.16l2.97-3.24-.28 6c-1.1 2.47-2.25 5.62-5.29 6.12l-.48-1.56 3.08-7.32z"/><path fill="#564037" d="M100.06 216.07l2.49-1.18 2.03 2.84a51.33 51.33 0 0 0 7.7-1.08l.74 1.4 1.22 2.4-1.96 2.69 2.62-.15c-4.3 1.62-9.28 2.05-13.19-.79-.68-2.01-1.31-4.04-1.65-6.13z"/><path fill="#807b81" d="M191.4 223.96c.43-2.52 2-4.56 3.68-6.4 2.5 2.56 4.83 5.27 7.28 7.88.86 1.32 1.73 2.65 2.71 3.9l-3.49 1.09c-.71 3.21-1.88 6.88.03 9.91 2.26 2.04 5.5 2.45 8.2 3.74-6.44 5.04-15.2-.39-17.84-7.01-1.02-4-1.73-8.17-.79-12.25 2.45 1.16 5.07 1.93 7.79 2.11-.46-1.42-.26-3.35-1.72-4.21-1.88-1.49-4.02.61-5.85 1.24m.66 4.06c.09 2.52.75 5.08 3.03 6.49-.21 3.85 2.65 6.84 5.64 8.83-.67-3.32-1.63-6.59-2.96-9.7-.31-1.01-1.4-1.31-2.18-1.85.45-.92.91-1.83 1.42-2.71a44.03 44.03 0 0 0-4.95-1.06z"/><path fill="#564f4d" d="M166.71 225.63l2.05-6.82 1.44 3.24 3.02.31c4.03.53 8.18.49 12.02-.98.64.33 1.27.68 1.9 1.03-1.91.43-3.77 1.08-5.43 2.15-3.15 2.15-7.07 2.14-10.73 2.4l1.93-1.78c-2.07.14-4.14.23-6.2.45z"/><path fill="#dcd4d2" d="M223.29 219.8c1.4 1.41 2.66 2.97 3.69 4.68l.48 1.56c-2.83.31-3.99 3-5.11 5.24-.21-2.36-.48-4.76-1.5-6.92l1.69.07.75-4.63z"/><path fill="#a29ca4" d="M191.4 223.96c1.83-.63 3.97-2.73 5.85-1.24 1.46.86 1.26 2.79 1.72 4.21-2.72-.18-5.34-.95-7.79-2.11l.22-.86z"/><path fill="#686463" d="M217.87 224.49l1.32-2.7 1.66 2.57c1.02 2.16 1.29 4.56 1.5 6.92l-4.26-.22-4.56-4-.7-.67.5-2.9 4.54 1z"/><path fill="#d8d2d4" opacity=".97" d="M149.21 226.12l.37-.41c1.75.21 3.44 1.11 4.29 2.71a21.6 21.6 0 0 1-3.69-.41l-.97-1.89z"/></svg>