<svg xmlns="http://www.w3.org/2000/svg" width="512" height="512" viewBox="0 0 384 384" xmlns:v="https://vecta.io/nano"><path fill="#9c8c87" d="M129.8 156.89c5.41-1.32 10.77-2.88 16.31-3.57l-2.26.76 1.92 1.72c-3.53.22-7.01.89-10.5 1.38l2.74 1.63c-4.13.43-8.39.59-12.31 2.06-1.23 3.38-.61 7.39.63 10.71 3.51 2.54 8.16 2.01 12.26 2.11.3-2.83.56-5.65.7-8.48.21-2.5.74-4.96 1.41-7.37.07 2.6.02 5.21-.15 7.82-.53 3.77-.77 7.58-1.23 11.36l-5.75.04 3.52 1.76c-7.73-1.18-15.5-2.05-23.29-2.75 4.89-2.6 10.27-.79 15.46-.9a165.67 165.67 0 0 0-4.95-3.89c-3.14 1.67-7.95 3.48-10.35-.29 2.67-.14 5.34-.19 8.01-.22.54-4.23-.56-8.37-2.74-11.99 4.68-.01 9.39-.27 13.94-1.45l-3.37-.44z"/><path fill="#d5cac4" d="M146.11 153.32l2.49-.4c3.27 1.93 5.87 4.75 8.92 6.97.76-1.45 1.33-2.99 2.2-4.38 1.54-1.26 3.71-.85 5.56-.93l3.22.39c-2.44 2-5.62 1.26-8.49 1.14l4.47 2.92c-.06 6.87-2.86 13.24-3.93 19.94l-2.23-.2c.06-3.23.02-6.47-.11-9.7l-2.52.67-.44 3.23c-1.74.93-3.41 2.72-5.56 2.3-3-.33-5.6-2.04-7.65-4.17-.53-1.8-1.03-3.62-1.49-5.44.17-2.61.22-5.22.15-7.82l6.21-1.07c-.28-.25-.86-.73-1.14-.97l-1.92-1.72 2.26-.76m10.18 7.49c-.36 2.46-.51 4.96-.32 7.45 3.04-1.18 3.5-4.34 2.99-7.21l-2.67-.24z"/><path fill="#857671" d="M148.6 152.92c5.66-1.05 11.1 1.2 16.68 1.66-1.85.08-4.02-.33-5.56.93-.87 1.39-1.44 2.93-2.2 4.38-3.05-2.22-5.65-5.04-8.92-6.97z"/><path fill="#3d3f3d" d="M215.96 154.66c3.99-.73 8.1-.54 12.08.24 3.3 2.31 6.93 4.5 9.16 7.97 1.17 1.6.41 3.63.34 5.43-3.75-8.32-13.02-12.44-21.58-13.64z"/><path fill="#61453b" d="M94.31 155.51c4.98-2.36 9.83 1.25 14.85 1.48l-2.93-.2 2.02 2.52-1.19 3.01c-4.16-.66-10.1 1.46-12.36-3.32l-.39-3.49z"/><path d="M168.5 154.97c3.42.21 7.35.44 8.76 4.18-3.48-.13-6.96.14-10.44.16l-.92-.07c-.99 5.62-1.79 11.28-1.97 16.99l2.59-4 3.41 3.44c-1.31.12-2.7.07-3.9.68-1.76 1.89-2.84 4.31-4.07 6.56l-6.39-1.53.45-2.82 2.3.21 2.23.2c1.07-6.7 3.87-13.07 3.93-19.94l-4.47-2.92c2.87.12 6.05.86 8.49-1.14zm-33.23 2.21c3.49-.49 6.97-1.16 10.5-1.38l1.14.97-6.21 1.07c-.67 2.41-1.2 4.87-1.41 7.37-.31-2.16-.72-4.3-1.28-6.4-.91-.57-1.82-1.1-2.74-1.63z" fill="#504942"/><path fill="#a6968e" d="M202.01 162.44c4.86-2.22 9.13-5.51 13.95-7.78 8.56 1.2 17.83 5.32 21.58 13.64.63 1.34 1.37 2.61 2.16 3.87-.89 3.87-1.69 7.85-3.6 11.38-.23.38-.7 1.12-.94 1.5l-1.18-.91c.78-1.88 1.68-3.72 2.44-5.61 1.49-4 .45-8.46-2.36-11.59-3.62-4.13-8.26-8.02-13.7-9.22-3.4 2-5.97 5.08-8.95 7.6l-1.43-.75c2.29-2.4 4.7-4.68 7.08-6.99-4.49-.53-8 2.69-11.58 4.86-3.79 2.49-8.37 5.53-8.61 10.56.52 3.09 3.62 4.59 5.86 6.34-.44.93-.85 1.88-1.25 2.84l-1.12-.11c-4.37-1.87-6.23-6.37-8-10.43 1.92-1.95 3.58-4.13 5.1-6.41l-4.47 1.87-2.06-2.99c3.69-.56 7.54-.32 11.08-1.67z"/><path fill="#a57158" d="M228.04 154.9c3.78.62 8.01.66 10.99 3.45-.53 3.51-.43 7.08.11 10.58.15 1.08.34 2.16.56 3.24-.79-1.26-1.53-2.53-2.16-3.87.07-1.8.83-3.83-.34-5.43-2.23-3.47-5.86-5.66-9.16-7.97z"/><path d="M94.54 168.38c-.11-4.29.06-8.58-.23-12.87l.39 3.49c.71 3.13 1.87 6.14 2.84 9.19l-2.89.92-.11-.73zm175.71 33.9l1.45-.11.48 8.59-1.22 1.11-.05-.82-.66-8.77zm-12.33 1.67l1.31-1.01c.77 3.42 1.14 6.93.72 10.43-.98-3.07-1.66-6.22-2.03-9.42zm13.7 15.09l.72-3.38 1.13 8.66-1.64-.42-.21-4.86zm-63.51 2.35l.67-.27c.46 4.23 1.77 8.29 2.69 12.43-5.13-.81-8.99-9.17-3.36-12.16zm64.33 15.43c-.28-3.13-.11-6.3 1.23-9.2l.9 4.59.31 5.01-2.44-.4zm2.42 34.75l1.8-.19.16 2.82-1.68-.03-.28-2.6z" fill="#dedade"/><path fill="#3f3e46" d="M252.74 156.9l4.34-1 .12 6.02c-1.41 1.86-3.17 3.42-5.12 4.69-1.44-3.23-1.38-6.76.66-9.71z"/><path d="M257.08 155.9l1.36-.27.2 5.25c1.07 7.91 1.03 15.92 2.39 23.8l-1.4 1.79c-.52-2.82-.98-5.65-1.28-8.5l-.07-.85c-.15-5.08-.87-10.12-1.08-15.2-.1-2.01-.13-4.01-.12-6.02zm-43.62 38.45c3.4-.45 4.96 3.18 7.06 5.18l3.55-1.56c-.05 2.37-.27 4.77-1.34 6.93l-1.33-2.13c-1.84-2.49-5.03-2.91-7.82-3.58l-.12-4.84z" fill="#bab7bc"/><path fill="#22272f" d="M259.46 156.44c.7 7.49 1.07 15 1.46 22.51.02 3.21 1.63 5.99 3.37 8.58l5.44.61.79 6.34 6.17.42c.58 5.34.55 10.74 1.22 16.07.09 3.28 3.31 4.81 5.52 6.64 7 5.01 13.54 10.64 20.71 15.42 1.04.75 2.52 1.43 2.42 2.97.96 10.8-3.09 22.06-10.99 29.54-5.05 4.98-11.93 7.34-18.75 8.66l-.16-2.82c17.47-1.01 29.89-19.68 27.81-36.3-.92-2.14-3.31-3.18-5.01-4.66-7.04-4.97-13.37-10.97-20.85-15.3-.13 4.18.46 8.33.77 12.49l-3.59.3-1.22 4.3c-.22-1.54-.55-3.07-.9-4.59l.73-2.14 3.6-1.07a99.66 99.66 0 0 0-.54-7.73l-1.96-.89c-.95-.73-3.28-.64-2.95-2.24.69-.58 1.41-1.12 2.16-1.63l1.53-1.07c-.01-3.16-.57-6.29-1.47-9.31l-4.05-1.02-1.17-4.98c-1.71-1.16-3.62-.78-5.38-.01 1.48 5.74 1.61 11.67 1.38 17.56l-.39 1.85-1.41-.89c-.48-3.92-.74-7.86-1.27-11.77l.02-.85.06-5.47c.44-3.85.01-7.71-1.53-11.28-1.36-7.88-1.32-15.89-2.39-23.8a59.83 59.83 0 0 1 .82-4.44z"/><path fill="#8e8886" d="M106.23 156.79l2.93.2 3.96.38c1.9.53 3.74 1.29 5.44 2.33l-5.45.86-1.39 7.01c-.37 2.31-1.26 4.56-3.38 5.78l.21-1.89c1.67-3.78 2.63-8.74-.3-12.15-.65-.86-1.34-1.69-2.02-2.52z"/><path fill="#d6ccc6" d="M113.12 157.37c5.55.29 11.18.56 16.68-.48l3.37.44c-4.55 1.18-9.26 1.44-13.94 1.45 2.18 3.62 3.28 7.76 2.74 11.99-2.67.03-5.34.08-8.01.22-.77-1.12-1.5-2.27-2.24-3.42l1.39-7.01a166.84 166.84 0 0 0 5.45-.86c-1.7-1.04-3.54-1.8-5.44-2.33z"/><path fill="#3c3f3e" d="M205.48 162.44c3.58-2.17 7.09-5.39 11.58-4.86-2.38 2.31-4.79 4.59-7.08 6.99l1.43.75.69.35c-2.65 2.27-4.71 5.11-6.32 8.18l-1.21 2.04c-.64 1.14-1.26 2.28-1.84 3.45-2.24-1.75-5.34-3.25-5.86-6.34.24-5.03 4.82-8.07 8.61-10.56z"/><path fill="#494f53" d="M220.36 157.72c5.44 1.2 10.08 5.09 13.7 9.22 2.81 3.13 3.85 7.59 2.36 11.59-3.95-1.18-7.44-3.42-10.4-6.25-2.1 1.33-4.43 2.68-6.95 1.6l1.85-2.31c.05-.06.15-.16.19-.21h-.04l-5.24.34c1.46-2.57 3.19-5.01 4.25-7.79l-1.18-1.11c-2.39.62-4.58 1.82-6.8 2.87l-.69-.35c2.98-2.52 5.55-5.6 8.95-7.6z"/><path fill="#171413" d="M248.48 158.46l4.26-1.56c-2.04 2.95-2.1 6.48-.66 9.71 1.95-1.27 3.71-2.83 5.12-4.69.21 5.08.93 10.12 1.08 15.2-.67-2.89-1.3-5.8-1.87-8.71l-6.09-1.26-.14 1.52c-1.48-2.96-3.35-5.73-5.68-8.08l1.23-.69 2.29 3.07.46-4.51z"/><path fill="#9b7b73" d="M94.7 159c2.26 4.78 8.2 2.66 12.36 3.32.05 2.71.5 5.4 1.2 8.01-2.96-2.54-7.1-1.94-10.72-2.14-.97-3.05-2.13-6.06-2.84-9.19z"/><path fill="#d3c8c2" d="M125.7 160.87c3.92-1.47 8.18-1.63 12.31-2.06.56 2.1.97 4.24 1.28 6.4-.14 2.83-.4 5.65-.7 8.48-4.1-.1-8.75.43-12.26-2.11-1.24-3.32-1.86-7.33-.63-10.71z"/><path fill="#d0c4bd" d="M165.9 159.24l.92.07 4.44.69c-1.56 4.09-2.11 8.61-4.74 12.23l-2.59 4c.18-5.71.98-11.37 1.97-16.99z"/><path fill="#a89f98" d="M166.82 159.31c3.48-.02 6.96-.29 10.44-.16 1.73.09 3.46.25 5.19.38l-1.02.16c-3.75.72-9.2.71-10.5 5.19.03 1.63.12 3.26.21 4.88l2.49-1.11 4.61 1.4c-1.14 1.82-1.92 3.98-3.58 5.41-1.57.19-3.15.14-4.73.21l-3.41-3.44c2.63-3.62 3.18-8.14 4.74-12.23l-4.44-.69z"/><path fill="#4b3221" d="M186.19 159.67c2.26-.27 4.5-.84 6.8-.85 3.23.54 6.11 2.21 9.02 3.62-3.54 1.35-7.39 1.11-11.08 1.67-2.06.64-4.06 1.45-5.96 2.45-1.13.83-2.23 1.7-3.29 2.61-1.28 1.72-2.39 3.56-3.32 5.49-.87 1.89-1.57 3.87-2.1 5.89-.39 1.43-.73 2.88-1.07 4.33-.8 3.91-2.19 8.07-5.62 10.44-3.08.55-6.22-.21-9.3-.47l-.49-6.09c.22-2.11 1.26-3.99 2.18-5.85 1.23-2.25 2.31-4.67 4.07-6.56 1.2-.61 2.59-.56 3.9-.68 1.58-.07 3.16-.02 4.73-.21 1.66-1.43 2.44-3.59 3.58-5.41l-4.61-1.4c4-3.28 9.44-4.55 12.56-8.98z"/><path fill="#eba883" d="M239.14 168.93c-.54-3.5-.64-7.07-.11-10.58 1.44 1.17 2.84 2.4 4.28 3.59.02 1.2.09 2.41.16 3.62l-4.33 3.37z"/><path fill="#d0c5bc" d="M107.06 162.32l1.19-3.01c2.93 3.41 1.97 8.37.3 12.15l-.29-1.13c-.7-2.61-1.15-5.3-1.2-8.01z"/><path fill="#c6b5ab" d="M170.93 164.88c1.3-4.48 6.75-4.47 10.5-5.19-3.56 1.62-7.01 3.45-10.5 5.19z"/><path fill="#c78d73" d="M181.43 159.69l1.02-.16 3.74.14c-3.12 4.43-8.56 5.7-12.56 8.98l-2.49 1.11-.21-4.88c3.49-1.74 6.94-3.57 10.5-5.19z"/><path fill="#a7958f" d="M156.29 160.81l2.67.24c.51 2.87.05 6.03-2.99 7.21-.19-2.49-.04-4.99.32-7.45z"/><path fill="#858183" d="M244.5 160.59c2.33 2.35 4.2 5.12 5.68 8.08l.55 1.22c-.53 2.66-.67 5.4-.05 8.06-2.42-.17-2.52 2.94-1.28 4.34l1.14 2.4 5.36 1.13.73 2.33c.48 2.8 1.09 5.82-.7 8.33l-1.73-8.68-.4 6.37c-3.5-4.22-6.17-9.04-9.69-13.23-2.17-2.52-3.52-5.6-4.41-8.77-.22-1.08-.41-2.16-.56-3.24l4.33-3.37-.16-3.62 1.19-1.35m1.5 17.34c2.57-.1 2.18-3.16 2.82-4.95-1.42 1.35-2.66 2.91-2.82 4.95z"/><path fill="#777375" d="M212.1 165.67c2.22-1.05 4.41-2.25 6.8-2.87l1.18 1.11c-1.06 2.78-2.79 5.22-4.25 7.79-2.32 3.95-2.78 8.61-1.94 13.05 4.6.47 9.12 1.68 13.17 3.97 2.1-1.81 4.34-3.5 6.92-4.58l1.18.91c-1.15 1.63-1.89 3.48-2.39 5.4l-4.45.78c1.2 1.53 2.38 3.08 3.66 4.56l-.41 13.4c3.26-2.25 3.24-6.39 3.65-9.92l1.83.27-2.93-7.84a24.27 24.27 0 0 1 4.92 5.86c-.31 2.63-.38 5.31-1.04 7.89-.97 2.76-2.8 5.1-4.28 7.6l2.53 1.74c-2.83 3.2-6.64 5.18-10.59 6.66.39-2.47 1.81-4.54 3.26-6.51-4.38 1.8-8.34 5.72-13.39 4.91l2-1.25-1.28-1.3 1.52-1.45-3.38.68.18 3.3c-.88.94-1.81 1.85-2.54 2.93.2 3.8 1.26 7.51 1.58 11.3l.22-1.54c2.05 2.15 4.13 4.28 6.02 6.59.24.5.7 1.52.93 2.02-.01 1.89-.09 3.77-.16 5.65-1.1-.22-2.16-.62-2.98-1.39-4.59-3.88-9.46-7.54-13.05-12.43-1.25.96-2.88 1.62-3.68 3.04-.91 3.85-.49 8.05-2.42 11.64-2.78 4.75-7.37 8.46-12.75 9.84-3.52.26-7.05-1.1-9.13-4.01 2.6-.16 5.21-.2 7.83-.3l1.66 2.17c5.8-3.7 13.01-9.46 11.04-17.26-.53-2.02-1.34-3.94-2.19-5.83l-.4-.98 1.54-2.62c1.72 1.02 3.38 2.14 5.06 3.24-1.28-2.32-2.58-4.62-4.12-6.77l2.6-2.97c-3.73-3.97-6.75-8.52-10.1-12.8.11-4.94 1.73-9.8 1.16-14.75l3.91-6.3c2.42-.24 5.31-.57 6.63-2.93.19-1.05.2-2.13.25-3.19.4-.96.81-1.91 1.25-2.84.58-1.17 1.2-2.31 1.84-3.45.39 2.65.28 5.52 1.64 7.91 1.3.68 2.7 1.15 4.08 1.67 1.04-6.36 3.91-12.18 5.57-18.34-.18-.32-.54-.94-.73-1.25-3.69 1.89-6.5 5.04-9.35 7.97 1.61-3.07 3.67-5.91 6.32-8.18m1.28 20.15l1.46 2.06-1.46.96c1.53.38 3.31.69 4.37-.81-.53-1.9-2.87-1.61-4.37-2.21m-12.24 4.27c-2.3 2.95-2.89 6.98-2.63 10.64l-2.23 4.12 2.71 3.57c.61 2.6 1.82 4.98 3.32 7.17 2.69-1.25 5.37-2.54 7.97-3.97.33-1.86.96-3.67 2.5-4.88l.52 3.97c1.16-1.22 2.48-2.37 4.25-2.44l.95 2.32 3.2-.74c1.37-2.48 2.59-5.15 4.88-6.93.65 1.68 1.27 3.38 1.85 5.09-.15-4.32 2.44-9.31-.33-13.16-.58 2.39-.86 4.83-1.13 7.27-3.14-1.31-.89-4.45-.79-6.83-2.36-2-3.84-5.02-6.84-6.21-.98 1.39-1.5 3.65-3.34 4.11-2.72-1.26-4.77-3.53-7.29-5.1-2.61-.37-5.47.4-7.57 2m6.97 31.3c-5.63 2.99-1.77 11.35 3.36 12.16-.92-4.14-2.23-8.2-2.69-12.43 1.42-.36 1.55-2.54.09-2.93-1.91-.51-2.71 2.8-.76 3.2z"/><path fill="#6f6662" d="M184.97 166.56c1.9-1 3.9-1.81 5.96-2.45l2.06 2.99 4.47-1.87c-1.52 2.28-3.18 4.46-5.1 6.41-2.13 2.17-4.07 4.53-5.82 7.01l-.43.59c-2.49 3.08-4.82 6.28-6.89 9.67l2.32 2.35.4 1.44.42 2.11-2.62 3.61-3.42-.64-1.64-2.3 2.88-6.5-2.37-4.1 1.07-4.33c.97-.87 2.27-1.49 2.88-2.69-.21-1.09-.47-2.15-.78-3.2.93-1.93 2.04-3.77 3.32-5.49l2.84 6.11c2.22-2.31 4.44-4.62 6.54-7.04l-5.95 1.6-.14-3.28m-2.65 11.86c-1.1-.11-2.49 1.24-1.71 2.29 1.33 1.17 3.74-1.72 1.71-2.29m-3.7 3.65c-.96 1.29 1.11 3.24 2.38 2.32 1.06-1.31-1.1-3.36-2.38-2.32z"/><path fill="#6e5e56" d="M139.32 177.02c.46-3.78.7-7.59 1.23-11.36.46 1.82.96 3.64 1.49 5.44l1.7 5.94-4.42-.02z"/><path fill="#999599" d="M205.78 173.85c2.85-2.93 5.66-6.08 9.35-7.97.19.31.55.93.73 1.25-1.66 6.16-4.53 11.98-5.57 18.34-1.38-.52-2.78-.99-4.08-1.67-1.36-2.39-1.25-5.26-1.64-7.91l1.21-2.04m.54 7.07l2.6 1.31c1.69-4.6 3.96-8.98 5.17-13.74-5.08 1.8-6.52 7.76-7.77 12.43z"/><path fill="#b1a39b" d="M181.68 169.17l3.29-2.61.14 3.28 5.95-1.6-6.54 7.04-2.84-6.11z"/><path fill="#5c3f37" d="M94.65 169.11l2.89-.92c3.62.2 7.76-.4 10.72 2.14l.29 1.13-.21 1.89-2.2 1.5c-2.76-3.27-7.01-2.19-10.73-1.89l-.76-3.85z"/><path fill="#7f7a7c" d="M108.34 173.35c2.12-1.22 3.01-3.47 3.38-5.78l2.24 3.42c2.4 3.77 7.21 1.96 10.35.29a165.67 165.67 0 0 1 4.95 3.89c-5.19.11-10.57-1.7-15.46.9-2.57-.26-5.21-.34-7.66-1.22l2.2-1.5z"/><path fill="#7c6f6a" d="M155.69 169.74l2.52-.67.11 9.7-2.3-.21-.45 2.82-1.51-.35-5.22-1.12 5.83-3.15.58-3.79.44-3.23z"/><path d="M206.32 180.92c1.25-4.67 2.69-10.63 7.77-12.43-1.21 4.76-3.48 9.14-5.17 13.74l-2.6-1.31zm8.07 35.61l3.38-.68-1.52 1.45 1.28 1.3-2 1.25-.96-.02-.18-3.3z" fill="#c0bcbe"/><path fill="#716c6b" d="M250.73 169.89c2.35 5.11 3.97 10.53 6.58 15.53-.24.9-.46 1.82-.68 2.73l-.73-2.33-5.36-1.13-1.14-2.4c1.42-.92 1.76-2.81 1.28-4.34-.62-2.66-.48-5.4.05-8.06z"/><path fill="#aea49f" d="M142.04 171.1c2.05 2.13 4.65 3.84 7.65 4.17 2.15.42 3.82-1.37 5.56-2.3l-.58 3.79-5.83 3.15-10.02-.73-1.73-.36-3.52-1.76 5.75-.04 4.42.02-1.7-5.94m5.19 6.05c-.5 1.38-.03 1.86 1.39 1.44.5-1.39.04-1.87-1.39-1.44z"/><path fill="#3c4040" d="M215.83 171.7l5.24-.34-.15.21-1.85 2.31c2.52 1.08 4.85-.27 6.95-1.6 2.96 2.83 6.45 5.07 10.4 6.25-.76 1.89-1.66 3.73-2.44 5.61-2.58 1.08-4.82 2.77-6.92 4.58-4.05-2.29-8.57-3.5-13.17-3.97-.84-4.44-.38-9.1 1.94-13.05z"/><path fill="#cacccc" d="M221.07 171.36h.04c-.04.05-.14.15-.19.21l.15-.21z"/><path fill="#e4a17f" d="M186.54 178.65c1.75-2.48 3.69-4.84 5.82-7.01 1.77 4.06 3.63 8.56 8 10.43-2.59 1.36-4.3 3.78-5.76 6.23l-3.91 6.3c-1.85-3.23-5.71-3.47-8.75-1.9l-.4-1.44c2.33-.79 4.68-1.52 7.05-2.23-.88-3.42-1.43-6.91-2.05-10.38z"/><path fill="#77655e" d="M239.7 172.17c.89 3.17 2.24 6.25 4.41 8.77 3.52 4.19 6.19 9.01 9.69 13.23l.4-6.37c.49 2.91 1.06 5.8 1.73 8.68-2.04 2.71-.52 5.77 1.46 7.99l-.95 1.07-1.23-1.54-.85 5.22c-.73-1.06-1.47-2.12-2.15-3.21l-4.53-8.71 2.13 1.51 2.25-.84c-2.14-6.32-5.78-11.99-9.98-17.13l-2.43 1.79.1 3.36c-1.18-.88-2.41-1.66-3.65-2.44 1.91-3.53 2.71-7.51 3.6-11.38z"/><path d="M246 177.93c.16-2.04 1.4-3.6 2.82-4.95-.64 1.79-.25 4.85-2.82 4.95zm-47.49 22.8l.53 4.3 2.98-2.28-3.03 5.67-2.71-3.57 2.23-4.12zm-32.48 12.44c2.21-4.32 5.69-8.05 10.61-9.04 2.64 6 7.7 10.37 11.36 15.72a69.53 69.53 0 0 0 2.37 2.15c-2.36 1.48-4.57 3.2-6.74 4.95l6.71-1.29c-1.34 1.92-2.36 4.41-4.73 5.26-3.09 1.36-6.3 2.45-9.58 3.3l-7.25-2.36-1.62 2.75c4.01 2.99 9.33 2.67 13.39 5.37l-1.93.76c-5.82 3.37-12.12-.39-17.4-3.02-3.59-1.59-3.89-5.89-4.65-9.23-.83-3.6-.71-7.32-.13-10.94 1.73-1.12 3.27-2.49 4.79-3.87-.04 4.56.08 9.13.23 13.7l2.31.99c1.37.18 2.9.41 4.09-.49 1.06-1.93.76-4.18.76-6.27l-4.39 3.69c0-4.47-.81-8.92-.42-13.38l2.22 1.25zm27.51 22.82l1.41-3.74c.85 1.89 1.66 3.81 2.19 5.83l-3.6-2.09z" fill="#fefcfb"/><path fill="#afa099" d="M178.36 174.66l.78 3.2c-.61 1.2-1.91 1.82-2.88 2.69.53-2.02 1.23-4 2.1-5.89z"/><path fill="#f2f0ef" d="M147.23 177.15c1.43-.43 1.89.05 1.39 1.44-1.42.42-1.89-.06-1.39-1.44z"/><path fill="#b2a49d" d="M182.32 178.42c2.03.57-.38 3.46-1.71 2.29-.78-1.05.61-2.4 1.71-2.29z"/><path fill="#bbb5b8" d="M249.4 182.29c-1.24-1.4-1.14-4.51 1.28-4.34.48 1.53.14 3.42-1.28 4.34z"/><path d="M258.35 177.97l1.28 8.5c-.84 2.72-1.03 5.56-.9 8.4l3.83 1.09-.06 5.47-3.27 1.51-1.31 1.01-.53.52c-1.98-2.22-3.5-5.28-1.46-7.99 1.79-2.51 1.18-5.53.7-8.33l.68-2.73c.64-2.44.96-4.94 1.04-7.45zm11.17 38.9l2.1 2.17.21 4.86-1.6-.41c-1.17-1.99-.84-4.42-.71-6.62z" fill="#120f0f"/><path fill="#2b2927" opacity=".62" d="M138.82 179.18l10.02.73 5.22 1.12c-5.13-.04-10.28-.44-15.24-1.85z"/><path fill="#53302b" d="M179.22 188.91c2.07-3.39 4.4-6.59 6.89-9.67-.96 4.19-1.51 8.72-4.57 12.02-.76-.8-1.54-1.58-2.32-2.35z"/><path fill="#aa6b4f" d="M186.11 179.24l.43-.59c.62 3.47 1.17 6.96 2.05 10.38-2.37.71-4.72 1.44-7.05 2.23 3.06-3.3 3.61-7.83 4.57-12.02z"/><path fill="#9a8c8d" d="M239.65 182.63l2.43-1.79c4.2 5.14 7.84 10.81 9.98 17.13l-2.25.84-2.13-1.51c-2.41-3.93-4.96-7.78-7.93-11.31l-.1-3.36z"/><path fill="#b2a59d" d="M178.62 182.07c1.28-1.04 3.44 1.01 2.38 2.32-1.27.92-3.34-1.03-2.38-2.32z"/><path fill="#b07c66" d="M200.36 182.07l1.12.11c-.05 1.06-.06 2.14-.25 3.19-1.32 2.36-4.21 2.69-6.63 2.93 1.46-2.45 3.17-4.87 5.76-6.23z"/><path fill="#010101" opacity=".78" d="M236.1 183.55l3.65 2.44c2.97 3.53 5.52 7.38 7.93 11.31l4.53 8.71c.11 2.04.11 4.08.1 6.12-3.31 3.33-6.82 6.5-9.82 10.12l-1.35-5.72-.08-.59c5.51.18 9.63-5.5 7.66-10.67-3.67-1.94-7.82-3.71-9.68-7.71a24.27 24.27 0 0 0-4.92-5.86l-1.35-1.25c.5-1.92 1.24-3.77 2.39-5.4l.94-1.5z"/><path fill="#928b92" d="M175.19 184.88l2.37 4.1-2.88 6.5-.95.32c-1.3 4.51-5.06 7.41-8.28 10.53-3.91-.88-7.93-1.07-11.92-.96a80.09 80.09 0 0 0 1.82-2.71l2.46-.23-1.61-3.09c-2.67.96-5.5 2.18-6.36 5.17l2.42 1.68a29.07 29.07 0 0 0-2.2 1.63c-.95.97-1.77 2.05-2.61 3.11-.98 1.06-.97 2.12.02 3.15l-1.7 2.72c-1.09-2.64-2.63-5.52-1.46-8.41 1.45-7.27 8.46-11.49 15.06-13.43.07-2.07.12-4.15.41-6.2.13 2.03.32 4.06.49 6.09 3.08.26 6.22 1.02 9.3.47 3.43-2.37 4.82-6.53 5.62-10.44m-16.76 11.66c-.32 2.37.02 4.75 1.45 6.73 1.02-2.02 1.93-4.08 2.77-6.17l-4.22-.56m6.25-.15c-.61 2.14-1.14 4.29-1.54 6.48 3.01.21 5.28-1.59 6.94-3.9-1.38-1.63-3.18-2.8-5.4-2.58z"/><path fill="#929294" d="M261.03 184.68c1.54 3.57 1.97 7.43 1.53 11.28l-3.83-1.09c-.13-2.84.06-5.68.9-8.4l1.4-1.79z"/><path d="M213.38 185.82c1.5.6 3.84.31 4.37 2.21-1.06 1.5-2.84 1.19-4.37.81l1.46-.96-1.46-2.06zM190.37 222l.77-.47.02 4.72 4.93 2.4-1.54 2.62-4.62 2.27c-.94.75-1.83 1.56-2.67 2.42l-2.23-.53-2.25 2.62-6.75-3.83c3.28-.85 6.49-1.94 9.58-3.3 2.37-.85 3.39-3.34 4.73-5.26l-6.71 1.29c2.17-1.75 4.38-3.47 6.74-4.95z" fill="#e5ddda"/><path fill="#9d9b9e" d="M201.14 190.09c2.1-1.6 4.96-2.37 7.57-2 2.52 1.57 4.57 3.84 7.29 5.1 1.84-.46 2.36-2.72 3.34-4.11 3 1.19 4.48 4.21 6.84 6.21-.1 2.38-2.35 5.52.79 6.83l1.13-7.27c2.77 3.85.18 8.84.33 13.16-.58-1.71-1.2-3.41-1.85-5.09-2.29 1.78-3.51 4.45-4.88 6.93l-3.2.74-.95-2.32c-1.77.07-3.09 1.22-4.25 2.44l-.52-3.97c-1.54 1.21-2.17 3.02-2.5 4.88-2.6 1.43-5.28 2.72-7.97 3.97-1.5-2.19-2.71-4.57-3.32-7.17l3.03-5.67-2.98 2.28-.53-4.3c-.26-3.66.33-7.69 2.63-10.64m7.65.9c-.65 2.33-.39 4.72.22 7.03-2.07 1.47-4 3.19-5.23 5.46 1.61-.08 3.23-.21 4.83-.39l1.04 2.9.51-2.27c1.69.9 3.3 1.93 4.85 3.08l4.65-3.59.06 3.13 1.68-3.57 1.33 2.13c1.07-2.16 1.29-4.56 1.34-6.93l-3.55 1.56c-2.1-2-3.66-5.63-7.06-5.18 0 1.61.04 3.22.12 4.84-.97.63-1.96 1.24-2.95 1.83-.2-2.91-.55-6.09 2-8.16l-2.3-.47-1.54-1.4z"/><path fill="#aca8a5" d="M228.32 191.23l4.45-.78 1.35 1.25 2.93 7.84-1.83-.27-3.24-3.48-3.66-4.56z"/><path fill="#fab38b" d="M181.94 192.7c3.04-1.57 6.9-1.33 8.75 1.9.57 4.95-1.05 9.81-1.16 14.75-1.76-2.18-3.77-4.19-5.16-6.65-1.24-2.45-1.47-5.24-2.01-7.89l-.42-2.11z"/><path d="M208.79 190.99l1.54 1.4 2.3.47c-2.55 2.07-2.2 5.25-2 8.16l-.47 2.7-.51 2.27-1.04-2.9-4.83.39c1.23-2.27 3.16-3.99 5.23-5.46-.61-2.31-.87-4.7-.22-7.03zm50.26 25.76l2.34.03.1 9.58c-2.38-2.57-1.63-6.43-2.44-9.61z" fill="#bfbdc0"/><path fill="#f9f4f2" d="M173.73 195.8l.95-.32 1.64 2.3-.27.61-1.72 2.96 2.31 2.78c-4.92.99-8.4 4.72-10.61 9.04l-2.22-1.25c.17-1.5.38-2.98.64-4.45l1-1.14c3.22-3.12 6.98-6.02 8.28-10.53z"/><path d="M182.36 194.81c.54 2.65.77 5.44 2.01 7.89 1.39 2.46 3.4 4.47 5.16 6.65 3.35 4.28 6.37 8.83 10.1 12.8l-2.6 2.97c-1.64-1.62-3.4-3.55-5.89-3.59l-.77.47a69.53 69.53 0 0 1-2.37-2.15c.44-1.57 1.01-3.13 1.18-4.76-1.46-3.36-4.28-5.93-6.8-8.51-1.12-.91-2.65-2.85-4.02-1.2-.1-2.52-.99-4.87-2.31-6.99l.27-.61 3.42.64 2.62-3.61zm69.95 17.32l1.05.43-4.4 5.14c-2.13 2.35-4.44 4.53-6.73 6.71l-1.76 1.8 2.02-3.96c3-3.62 6.51-6.79 9.82-10.12z" fill="#868389"/><path fill="#efeff0" d="M264.17 195.53c1.76-.77 3.67-1.15 5.38.01-1.29 4.82-1.55 9.84-.73 14.76l1.59 2.04c-.26 1.52-.59 3.02-.89 4.53-.13 2.2-.46 4.63.71 6.62l1.63 2.81c-1.96 3.62-1.92 7.75-1.24 11.7-1.57-1.75-2.18-4.06-3.08-6.17.18-6.32.15-12.71-1.99-18.74.23-5.89.1-11.82-1.38-17.56z"/><path fill="#bdb9be" d="M158.43 196.54l4.22.56-2.77 6.17c-1.43-1.98-1.77-4.36-1.45-6.73z"/><path fill="#c0bbbf" d="M164.68 196.39c2.22-.22 4.02.95 5.4 2.58-1.66 2.31-3.93 4.11-6.94 3.9.4-2.19.93-4.34 1.54-6.48z"/><path fill="#494444" d="M231.98 195.79l3.24 3.48c-.41 3.53-.39 7.67-3.65 9.92l.41-13.4z"/><path d="M269.55 195.54l1.17 4.98 4.05 1.02c-1.59 3.32-.82 6.96-.06 10.38-.75.51-1.47 1.05-2.16 1.63-.33 1.6 2 1.51 2.95 2.24-.6 3.06-.31 6.21 1.41 8.88.31-2.65.52-5.32.55-7.99a99.66 99.66 0 0 1 .54 7.73l-3.6 1.07-.73 2.14c-1.34 2.9-1.51 6.07-1.23 9.2l2.44.4-.81 2.21-3.45-1.43c-.68-3.95-.72-8.08 1.24-11.7-.56-.93-1.1-1.87-1.63-2.81l1.6.41 1.64.42-1.13-8.66a63.35 63.35 0 0 0-.72 3.38l-2.1-2.17.89-4.53.55-.47 1.22-1.11c.02-2.87-.26-5.73-.48-8.59l-1.45.11.66 8.77-2.09-.75c-.82-4.92-.56-9.94.73-14.76zm-30.51 2.02c1.86 4 6.01 5.77 9.68 7.71-2 1.96-4.62 2.95-7.29 3.58-.26 2.35-.44 4.72-.37 7.09l.08.59-.85.51c-.12-2.8-.26-5.59-.5-8.37-.59 1.38-1.16 2.77-1.7 4.17l-1.84 1.95-2.53-1.74c1.48-2.5 3.31-4.84 4.28-7.6.66-2.58.73-5.26 1.04-7.89m1.25 8.68c.55.55.55.55 0 0zm-86.76-.87c3.99-.11 8.01.08 11.92.96l-1 1.14c-1.06.98-2.19 1.9-3.31 2.82l.09 3.39c-1.52 1.38-3.06 2.75-4.79 3.87l-.72.36c1.17-2.33 2.45-4.6 3.68-6.9.63-1.22 1.21-2.47 1.79-3.72l-4.22-.58c-2.34.07-4.67.46-6.91 1.11a29.07 29.07 0 0 1 2.2-1.63l1.27-.82z" fill="#5d5f63"/><path fill="#c0bbc1" d="M149.84 204.51c.86-2.99 3.69-4.21 6.36-5.17l1.61 3.09-2.46.23-1.82 2.71-1.27.82-2.42-1.68z"/><path d="M174.33 201.35l1.72-2.96c1.32 2.12 2.21 4.47 2.31 6.99 1.37-1.65 2.9.29 4.02 1.2 2.52 2.58 5.34 5.15 6.8 8.51-.17 1.63-.74 3.19-1.18 4.76-3.66-5.35-8.72-9.72-11.36-15.72-.73-.96-1.52-1.87-2.31-2.78zm87.77 11.84c-.09-3.59-1.97-7.69.38-10.91.53 3.91.79 7.85 1.27 11.77l-1.65-.86zm-24.01-.35l1.7-4.17.5 8.37c-2.65 2.82-5.1 6.34-9.2 7.1-3.54.22-7.11.2-10.64-.12 1.44-1.14 3.19-1.74 5.02-1.84 3.2-.36 6.87-.04 9.53-2.21 2.19-1.72 2.53-4.61 3.09-7.13z" fill="#b5b0b4"/><path fill="#ebe5e9" d="M213.58 199.19c2.79.67 5.98 1.09 7.82 3.58l-1.68 3.57-.06-3.13-4.65 3.59c-1.55-1.15-3.16-2.18-4.85-3.08l.47-2.7 2.95-1.83z"/><path fill="#464142" d="M259.23 202.94l3.27-1.51-.02.85c-2.35 3.22-.47 7.32-.38 10.91-2.91.69-6.01.73-8.74-.63l-1.05-.43c.01-2.04.01-4.08-.1-6.12.68 1.09 1.42 2.15 2.15 3.21l.85-5.22 1.23 1.54.95-1.07.53-.52c.37 3.2 1.05 6.35 2.03 9.42.42-3.5.05-7.01-.72-10.43z"/><path fill="#b3b2b6" d="M274.71 211.92c-.76-3.42-1.53-7.06.06-10.38.9 3.02 1.46 6.15 1.47 9.31l-1.53 1.07z"/><path fill="#383339" d="M248.72 205.27c1.97 5.17-2.15 10.85-7.66 10.67-.07-2.37.11-4.74.37-7.09 2.67-.63 5.29-1.62 7.29-3.58z"/><path fill="#e8dcd5" d="M240.29 206.24c.55.55.55.55 0 0z"/><path fill="#181719" opacity=".58" d="M156.97 206.71l4.22.58-1.79 3.72-2.43-4.3z"/><path fill="#bbaea2" d="M161.14 210.29l3.31-2.82-.64 4.45c-.39 4.46.42 8.91.42 13.38l-.46 3.07-2.31-.99c-.15-4.57-.27-9.14-.23-13.7l-.09-3.39z"/><path fill="#363638" d="M268.82 210.3l2.09.75.05.82-.55.47-1.59-2.04z"/><path fill="#333131" opacity=".61" d="M147.47 214.08c-.99-1.03-1-2.09-.02-3.15.9 1 .91 2.06.02 3.15z"/><path d="M253.36 212.56c2.73 1.36 5.83 1.32 8.74.63l1.65.86 1.41.89-.88 4.32-.25-2.65-1.93.14-.71.03a45.65 45.65 0 0 1-2.34-.03c-1.85-.34-3.67-.83-5.49-1.31.15 2.58.52 5.16 1.19 7.66-2.3-1.36-4.11-3.35-5.79-5.4l4.4-5.14zm-17.11 2.23l1.84-1.95c-.56 2.52-.9 5.41-3.09 7.13-2.66 2.17-6.33 1.85-9.53 2.21l.19-.73c3.95-1.48 7.76-3.46 10.59-6.66z" fill="#1c1513"/><path fill="#4b4040" d="M265.55 213.09c2.14 6.03 2.17 12.42 1.99 18.74-1.19-1.01-2.35-2.04-3.5-3.08.27 12.01 2.14 23.94 2.89 35.93l-1.69 1c-.56-7.99-.53-16.15-2.9-23.87-.2 7.81.52 15.64 1.9 23.32-.41-.21-1.22-.65-1.62-.87a49.45 49.45 0 0 1-.51-2.96c-.19-6.12.11-12.44-2.05-18.28 2.66-4.34 2.94-9.41 1.77-14.26-1.81 1.67-2.75 3.94-2.94 6.38-.21-1.63-.47-3.26-.75-4.87-.2-1.93-.31-3.85-.4-5.78l-2.99-1.39c-.67-2.5-1.04-5.08-1.19-7.66 1.82.48 3.64.97 5.49 1.31.81 3.18.06 7.04 2.44 9.61.12-3.2-.07-6.39-.1-9.58l.71-.03 1.79 9.44c.35-2.29.4-4.61.39-6.93.26-1.45.57-2.88.88-4.32l.39-1.85z"/><path fill="#5b5552" d="M215.53 219.85c5.05.81 9.01-3.11 13.39-4.91-1.45 1.97-2.87 4.04-3.26 6.51l-.19.73c-1.83.1-3.58.7-5.02 1.84-2.89 2.18-6.77 4.36-6.62 8.5l-.22 1.54c-.32-3.79-1.38-7.5-1.58-11.3.73-1.08 1.66-1.99 2.54-2.93l.96.02z"/><path d="M262.1 216.75l1.93-.14.25 2.65c.01 2.32-.04 4.64-.39 6.93l-1.79-9.44zm-3.21 18.39c.19-2.44 1.13-4.71 2.94-6.38 1.17 4.85.89 9.92-1.77 14.26-.52-2.61-.85-5.25-1.17-7.88m1.45-2.59c-.68 1.35-.98 4.22.55 4.93.8-1.31.91-4.27-.55-4.93zm3.7-3.8l3.5 3.08c-.33 1.71-.76 3.42-.73 5.17.62 9.68 2.64 19.24 2.68 28.96.07 4.22 1.44 8.34.91 12.59l-2.19-.45c-.59-4.46-.86-8.95-1.28-13.42-.75-11.99-2.62-23.92-2.89-35.93z" fill="#b5b4b7"/><path fill="#b5b3b7" d="M276.91 224.67c-1.72-2.67-2.01-5.82-1.41-8.88l1.96.89c-.03 2.67-.24 5.34-.55 7.99z"/><path fill="#998d95" d="M151.21 220.07l4.51-2.16.72-.36c-.58 3.62-.7 7.34.13 10.94.76 3.34 1.06 7.64 4.65 9.23 5.28 2.63 11.58 6.39 17.4 3.02l3.49 1.61-2.28 1.43c-5.4 1.28-11.17 1.58-16.52-.12-3.87-1.32-8.55-.39-11.68-3.5l3.83-1.08-.6-.9c-1.22-3.47-2.61-6.91-3.35-10.52-.55-2.77.53-5.48 1.15-8.13l-1.45.54z"/><path fill="#faf8f7" d="M208.11 221.39c-1.95-.4-1.15-3.71.76-3.2 1.46.39 1.33 2.57-.09 2.93l-.67.27z"/><path opacity=".76" d="M242.23 224.41l6.73-6.71c1.68 2.05 3.49 4.04 5.79 5.4l2.99 1.39.4 5.78-1.47-5.23c-1.57 2.33-3.81 4.4-4.59 7.14.18 6.71.65 13.44 1.73 20.07l6.61.14c0-3.13-.02-6.27-.36-9.37 2.16 5.84 1.86 12.16 2.05 18.28-.49-2.55-.94-5.11-1.34-7.67-3.48.61-6.76 1.94-9.75 3.82-5.21-2.55-11.13-2.32-16.61-3.93a28.12 28.12 0 0 0-5.75-.98c-.54-1.36-.97-2.76-1.38-4.15 3.58 1.6 7.01 3.62 10.86 4.53 3.27.82 6.65.15 9.93-.27-1.25-4.38-3.03-8.66-3.37-13.25-.39-5.06-1.39-10.04-2.47-14.99z"/><path fill="#6c5753" d="M145.82 225.46c1.66-1.91 3.06-4.23 5.39-5.39l1.45-.54c-.62 2.65-1.7 5.36-1.15 8.13.74 3.61 2.13 7.05 3.35 10.52-5.59-1.75-6.85-8.05-9.04-12.72z"/><path fill="#cdc1bb" d="M191.14 221.53c2.49.04 4.25 1.97 5.89 3.59 1.54 2.15 2.84 4.45 4.12 6.77l-5.06-3.24c-1.59-.9-3.26-1.66-4.93-2.4l-.02-4.72z"/><path fill="#ded7d4" d="M164.23 225.3l4.39-3.69c0 2.09.3 4.34-.76 6.27-1.19.9-2.72.67-4.09.49l.46-3.07z"/><path fill="#020202" opacity=".31" d="M274.88 237.22l2.03-3.18.51 2.44-.15.97c-.03 3.97-3.29 6.43-6.11 8.65l-.16-3.49c1.16-.91 2.43-1.8 3.07-3.18l.81-2.21z"/><path fill="#b47052" d="M143.85 230.91c-.74-2.07.95-3.83 1.97-5.45 2.19 4.67 3.45 10.97 9.04 12.72l.6.9-3.83 1.08c-2.94-2.73-6.27-5.42-7.78-9.25z"/><path fill="#2b2b2e" opacity=".65" d="M274.57 232.21l1.22-4.3 1.12 6.13-2.03 3.18-.31-5.01z"/><path fill="#929195" opacity=".94" d="M275.79 227.91l3.59-.3.1 1.7-2.06 7.17-.51-2.44-1.12-6.13z"/><path d="M277.42 236.48l2.06-7.17c.77 2.69.82 5.47.33 8.21l-2.54-.07.15-.97zm-17.08-3.93c1.46.66 1.35 3.62.55 4.93-1.53-.71-1.23-3.58-.55-4.93zm7.2-.72c.9 2.11 1.51 4.42 3.08 6.17l3.45 1.43c-.64 1.38-1.91 2.27-3.07 3.18l.16 3.49c.14 8.61.57 17.35 3.7 25.47l.28 2.6c-1.4 1.64-2.78 3.36-4.74 4.38.53-4.25-.84-8.37-.91-12.59-.04-9.72-2.06-19.28-2.68-28.96-.03-1.75.4-3.46.73-5.17z" fill="#1a1d24"/><path fill="#313236" d="M223.2 243.63c3.36-4.63 7.23-9.18 12.21-12.1-3.53 3.29-6.98 6.68-9.95 10.49l1.82 6.37c.41 1.39.84 2.79 1.38 4.15 4.26 10.14 13.39 18.2 24.21 20.56 4.12 1.17 8.3-.1 12.3-1.09-.03-2.11-.09-4.23.07-6.33l1.69-1c.42 4.47.69 8.96 1.28 13.42-1.48-.7-2.89-1.53-4.34-2.26.72-1.44.41-2.46-.96-3.05-1.32.6-1.55 1.57-.68 2.92-4.23-.33-8.52-.29-12.64-1.39-6.56-1.75-12.39-5.75-16.76-10.88-4.56-5.24-6.45-12.02-9.58-18.07l-2.63 1.41.16-5.65c.79.85 1.61 1.67 2.42 2.5z"/><path fill="#b5a597" d="M167.16 234.61l1.62-2.75 7.25 2.36c2.36 1.07 4.56 2.44 6.75 3.83l2.25-2.62 2.23.53-1.11 2.55-5.6 1.47c-4.06-2.7-9.38-2.38-13.39-5.37z"/><path d="M189.93 233.54l4.62-2.27.4.98-1.41 3.74 3.6 2.09c1.97 7.8-5.24 13.56-11.04 17.26l-1.66-2.17 2.63-2.22c3.91-2.86 3.25-8.36 6.23-11.89l-2.63-.56-.74-4.96zm72.41 8.27c2.37 7.72 2.34 15.88 2.9 23.87l-1-.55c-1.38-7.68-2.1-15.51-1.9-23.32z" fill="#a6a1a8"/><path fill="#756f72" d="M187.26 235.96c.84-.86 1.73-1.67 2.67-2.42l.74 4.96 2.63.56c-2.98 3.53-2.32 9.03-6.23 11.89.56-2.92.88-5.88 1.08-8.84-2.78.51-5.55 1.1-8.32 1.67l2.28-1.43-3.49-1.61 1.93-.76c1.84-.58 3.72-1.02 5.6-1.47l1.11-2.55z"/><path fill="#919095" opacity=".91" d="M262.23 275.71c-.87-1.35-.64-2.32.68-2.92 1.37.59 1.68 1.61.96 3.05l-1.64-.13z"/></svg>