<svg xmlns="http://www.w3.org/2000/svg" width="512" height="512" viewBox="0 0 384 384" xmlns:v="https://vecta.io/nano"><path fill="#4e4b48" opacity=".96" d="M213.9 153.54c3.61-.73 7.34-.99 11-.46 5.01 2.03 9.92 5.14 12.31 10.18l.28 2.52-.96.65c-4.45-8.19-13.76-12.01-22.63-12.89z"/><path fill="#a87359" d="M224.9 153.08c4.48.5 9.48.05 13.08 3.3-.35 2.28-.65 4.58-.77 6.88-2.39-5.04-7.3-8.15-12.31-10.18z"/><path fill="#171412" d="M247.16 155.41c2.33-1.23 4.9-1.91 7.44-2.6.54 6.8 1.75 13.53 2.34 20.32l-2.21-7.86-6.82-1.23-.79-.18-.84-2.61c.19-1.94-.07-4.07.88-5.84m2.02.85c.32 2.04.49 4.15 1.36 6.06a15.68 15.68 0 0 0 2.9.39c.7-2.85 1.2-6-1.19-8.22l-3.07 1.77z"/><path d="M254.6 152.81l1.78.33 2.35 16.93.1.85c.2 2.77.47 5.54 1.11 8.25l.34 1.55-1.65 2.78-1.4-8.62-.29-1.75c-.59-6.79-1.8-13.52-2.34-20.32zM204 201.73c1.47-2.65 4.12-3.94 7.13-3.59l-.49 1.82c-.28.84-.52 1.7-.72 2.58-1.24.58-2.43 1.26-3.56 2.02l-2.36-2.83zm70.81 10.35l1.95.53c1 2.69 1.1 5.61 1.71 8.4l-2.77.98c-.37-3.3-1.08-6.58-.89-9.91zm.29 23.66c-3.53-2.64-3.41-7.96-.54-11.02a188.21 188.21 0 0 1 1.32 6.69l-.78 4.33zm-11.22 36.63c-.78-3 3.77-2.8 2.27.1l-2.27-.1z" fill="#c1bec1"/><path d="M256.38 153.14l.91.22c1.1 5.5 1.56 11.11 1.44 16.71-.9-5.62-1.54-11.29-2.35-16.93zm-.66 40.55c2.45.1 4.87.44 7.3.73 1.36 5.95 2.05 12.04 2.32 18.14l-.7 2.58-2.1-1.51c-.01 3.23.44 6.44 1.3 9.56l-1.23.17a61.24 61.24 0 0 0-1.3-9.63l-3.33 1.25-.31 6.36c-3.22-1.62-6.23-3.81-7.39-7.41 1.02-1.37 1.96-2.81 2.86-4.26 1.85-.11 3.48.8 4.97 1.79l.85-1.45 1.47 1.5c.1-3.41.01-6.85-.69-10.19l-1.68-.66-1.92-.7-1.22 3.2c-.16-3.16-.38-6.33-.26-9.5l1.06.03m5.06 5.89c-.08 3.94.7 7.84 1.29 11.73 2.24-.95 1.35-3.52 1.27-5.38-.42-2.24-.02-5.29-2.56-6.35m-7.07 13.51c.33 2.57-.05 6.21 3.42 6.51l.01-5.62-3.43-.89z" fill="#151211"/><path fill="#d6cbc5" d="M143.6 154.85l8.16-1.25 4.42 4.99c-.01 3.69.26 7.4 1.13 11 2.99-2.34 2.16-6.23 1.74-9.48l.95-3.29c1.61.83 3.27 1.59 4.76 2.64.76 4.73-1.02 9.4-1.96 13.98-1.45-.98-2.84-2.05-4.21-3.14l-1.79.24-.37 2.49c-1.31 1.11-2.47 2.65-4.18 3.11-3.58.31-7.14-1.28-9.42-4.03-1.34-4.16-1.57-8.55-1.61-12.89l6.94-1.8c-.92-.64-1.86-1.24-2.85-1.74l-1.71-.83z"/><path fill="#67605d" d="M151.76 153.6c3.11-.41 6.29-.13 9.09 1.37 2.52 2.24 5.72 2.13 8.65.8 2.55.2 5.09.61 7.61 1l1.09 2.88-9.36.65-1.88-.12c-.93 4.9-1.7 9.84-1.99 14.83l2.31-2.87.95 2.67c1.64.35 3.27.7 4.93.97-2.71.54-7.26-.49-8.18 2.97-1.65 5.75-4.34 11.39-4.06 17.51l-.82-.02c-1.09-4.73.04-9.6 2.83-13.52-5.07.02-10.04-1.04-14.97-2.07l1.8-.18c1.89-.61 3.99-.85 5.61-2.09.55-1.74.77-3.56 1.06-5.35l.37-2.49 1.79-.24-.11 8.2 2.44 1.55 1.88-6.61c.94-4.58 2.72-9.25 1.96-13.98-1.49-1.05-3.15-1.81-4.76-2.64l-.95 3.29c-.97-.49-1.93-1-2.87-1.52-1.59-1.56-3.01-3.28-4.42-4.99m10.52 24.7c.58.58.58.58 0 0z"/><path fill="#847f81" d="M210.54 155.8l3.36-2.26c8.87.88 18.18 4.7 22.63 12.89l.96-.65c1.61-.65 3.64-.97 4.56-2.63 1.26-1.3-.29-2.73-.86-3.95l3.12-1.56 1.97 3.61.84 2.61c1.08 3.67 1.85 7.42 2.71 11.15-2.5-.21-2.48 2.89-1.38 4.36l1.07 2.73c2.29.46 4.57.98 6.82 1.63-.13 3.32.15 6.69-.62 9.96l-1.06-.03c.05-2.76-.68-5.44-1.46-8.06-.12 1.72-.18 3.44-.25 5.16-1.8-2.3-3.87-4.38-6.1-6.25 1.55 3.81 3.34 7.53 5.06 11.27l-4.21-.45c-3.02-5.05-6.81-9.58-10.79-13.89-1.51 1.48-3.12 2.89-4.3 4.66-.38 2.28 1.39 4.04 2.5 5.82.81 2.18 1.44 4.42 2.03 6.66l-1.33 2.03c-1.68-2.43-3.61-4.67-5.97-6.45.33 2.29.85 4.55 1.16 6.85.4 2.73-1.04 5.24-1.87 7.73-1.26-2.36-2.5-4.74-3.93-7-.04.07-.11.21-.15.28-.2-1.35-.46-2.69-.73-4.02l2.2-4.86 3.49.17c1.58.53 2.11-1.59 1.06-2.47-.79-1.4-1.54-2.82-2.28-4.24 2.69-2.79 5.23-5.78 6.9-9.3 1.16-3.94.08-8.24-2.69-11.24-4.59-5.16-10.83-10.29-18.2-9.38l-3.76-.2-.5-.68m34.42 20.39c2.94-.61 2.54-4.13 3.16-6.38-2.23 1.45-3.66 3.63-3.16 6.38z"/><path fill="#a79791" d="M128.2 158.26c5.22-.72 10.23-2.44 15.4-3.41l1.71.83c-3.04 1.06-6.1 2.05-9.19 2.93l3 1.23a152.49 152.49 0 0 1-8.79.77c-3.07-.31-6.14-.61-9.22-.76l2.23 4.52 2.46-.51 1.83 8.63c2.2.86 4.4 1.75 6.64 2.51l-2.93.32c-1.95-.75-3.78-1.81-5.81-2.33-2.82.03-5.52 1.3-8.36 1.03-1.85-.34-2.65-2.27-3.63-3.64l9.31 1.27c.08-3.09-.24-6.16-.87-9.18l-5.61-1.69c3.61-2.09 7.81-2.12 11.83-2.52z"/><path d="M160.85 154.97l8.65.8c-2.93 1.33-6.13 1.44-8.65-.8zm45.2 66.83l2.93 1.24c1 3.43 1.81 7 1.11 10.58-1.83-2.5-3.99-4.84-5.24-7.7.25-1.41.76-2.76 1.2-4.12z" fill="#ece7e9"/><path fill="#494752" d="M249.18 156.26l3.07-1.77c2.39 2.22 1.89 5.37 1.19 8.22a15.68 15.68 0 0 1-2.9-.39c-.87-1.91-1.04-4.02-1.36-6.06z"/><path fill="#5f453c" d="M97.11 156.18c3.68-.19 7.31.42 10.83 1.46l1.24 2.97a109.76 109.76 0 0 0-1.08 3.52c-3.48-.97-7.23-1.88-10.66-.17-.24-.68-.5-1.34-.76-2l-.56 7.59-.43-.96c-.68-4.2-.01-8.44 1.42-12.41z"/><path d="M136.12 158.61l9.19-2.93c.99.5 1.93 1.1 2.85 1.74l-6.94 1.8c.04 4.34.27 8.73 1.61 12.89.57 1.92 1.19 3.84 1.81 5.75l-3.26.03c-.17-3.05-.53-6.08-.96-9.1-.35-3-.86-5.97-1.3-8.95l-3-1.23zm47.55 23.05l.6 7.23-2.29 1.51-3.58 2.34-1.7-2 .42-3.78 3.58-.34 1.48-2.42 1.49-2.54z" fill="#584f4d"/><path fill="#a6948c" d="M201.87 161.4c2.97-1.73 5.85-3.63 8.67-5.6l.5.68c-4.71 5.21-12.95 7.41-15.04 14.74-.83 4.14 4.03 6.06 6.73 8.13-1.04 1.07-2.18 2.05-3.31 3.03-3.79-2.83-6.7-6.7-7.42-11.47 1.18-1.42 2.3-2.88 3.41-4.36l-3-.29-1.56-2.13c3.74-.56 7.61-.93 11.02-2.73z"/><path fill="#3c3f3f" d="M211.04 156.48l3.76.2 2.37.84c-3.08 1.34-5.46 3.73-7.37 6.43l2.4.97c-3.87 3.64-7.14 7.93-8.84 13.03l-.63 1.4c-2.7-2.07-7.56-3.99-6.73-8.13 2.09-7.33 10.33-9.53 15.04-14.74z"/><path fill="#484e53" d="M214.8 156.68c7.37-.91 13.61 4.22 18.2 9.38 2.77 3 3.85 7.3 2.69 11.24-4.97-.24-8.83-3.31-11.88-6.96l-1.99 2.93c-1.81.06-4.07-.61-5.43.98-1.76 1.87-2.23 4.51-3.05 6.85l-.74-2.54c.66-6.23 5.32-10.73 7.51-16.35-2.45.45-4.89.97-7.33 1.52 1.81-1.93 3.6-3.88 5.31-5.9l-.92-.31-2.37-.84z"/><path fill="#eca681" d="M237.21 163.26c.12-2.3.42-4.6.77-6.88l3.21 2.82c.57 1.22 2.12 2.65.86 3.95-.92 1.66-2.95 1.98-4.56 2.63l-.28-2.52z"/><path fill="#66615f" d="M107.94 157.64c6.67 1.27 13.52 1.13 20.26.62-4.02.4-8.22.43-11.83 2.52l-2.82 1.02c-.14 2.85-.25 5.72-.01 8.58.98 1.37 1.78 3.3 3.63 3.64 2.84.27 5.54-1 8.36-1.03 2.03.52 3.86 1.58 5.81 2.33-4.44.75-8.92.1-13.3-.67l.92 2.78-2.75-.28-7.13-1.13.96-2.14 2.17-.11c-.63-4.1-.7-8.26-.59-12.4l-2.44-.76-1.24-2.97m4.62 1.51c.15 1.42.81 1.67 1.98.76-.16-1.42-.82-1.67-1.98-.76z"/><path fill="#878487" d="M209.8 163.95c1.91-2.7 4.29-5.09 7.37-6.43l.92.31-5.31 5.9 7.33-1.52c-2.19 5.62-6.85 10.12-7.51 16.35-.34 1.8-.99 3.64-.69 5.49.96.82 2.07 1.43 3.14 2.12.59 1.15 2.88 1.62 2.84-.18 1.67.6 3.42 1.13 4.89 2.16.88 1.44.99 3.18 1.19 4.82l-.08 1.87-5.1-3.65c-3.65-2.43-7.38-4.74-11.13-7.02-2.37-1.26-3.15-3.99-4.3-6.22 1.7-5.1 4.97-9.39 8.84-13.03l-2.4-.97m-3.7 16.85l2.92.36c1.98-4.43 4.14-8.83 5.21-13.59-5.56 1.66-7.43 8.09-8.13 13.23z"/><path fill="#c2bdbd" opacity=".98" d="M112.56 159.15c1.16-.91 1.82-.66 1.98.76-1.17.91-1.83.66-1.98-.76z"/><path fill="#a7948e" d="M156.18 158.59l2.87 1.52c.42 3.25 1.25 7.14-1.74 9.48-.87-3.6-1.14-7.31-1.13-11z"/><path fill="#4a3120" d="M186.42 160.1c5.17-1.9 10.47-.35 15.45 1.3-3.41 1.8-7.28 2.17-11.02 2.73-2.33.57-4.58 1.45-6.64 2.66-.89.75-1.75 1.53-2.58 2.33-1.33 1.72-2.49 3.56-3.49 5.48-.77 1.87-1.43 3.78-1.98 5.73-.4 1.55-.72 3.12-1.06 4.69-.57 4.34-2.67 8.21-5.37 11.59a234.93 234.93 0 0 0-8.81-.35c-.28-6.12 2.41-11.76 4.06-17.51.92-3.46 5.47-2.43 8.18-2.97l1.82.16 2.89-5.55-1.63-.66-2.58-1.24c4.56-2.3 9.18-4.64 12.76-8.39z"/><path fill="#887b76" d="M121.11 159.85l9.22.76-3.57 1.08-.96 2.17-2.46.51-2.23-4.52z"/><path fill="#d3c8c2" d="M130.33 160.61l8.79-.77 1.3 8.95-.88 5.67-5.27.54-6.64-2.51-1.83-8.63.96-2.17 3.57-1.08z"/><path fill="#d3c7c0" d="M166.96 160.18l1.88.12 3.49.45c-1.27 3.95-2.34 8.12-5.05 11.39-.75.97-1.53 1.92-2.31 2.87.29-4.99 1.06-9.93 1.99-14.83z"/><path fill="#a79e96" d="M168.84 160.3l9.36-.65 5.37.54c-3.1 1.4-6.3 2.59-9.28 4.21-1.87.89-1.78 3.27-2.48 4.96 1.47.1 2.95.23 4.43.37l1.63.66-2.89 5.55-1.82-.16c-1.66-.27-3.29-.62-4.93-.97l-.95-2.67c2.71-3.27 3.78-7.44 5.05-11.39l-3.49-.45z"/><path fill="#c68c71" d="M183.57 160.19l2.85-.09c-3.58 3.75-8.2 6.09-12.76 8.39l2.58 1.24-4.43-.37c.7-1.69.61-4.07 2.48-4.96 2.98-1.62 6.18-2.81 9.28-4.21z"/><path fill="#cec3ba" d="M109.18 160.61l2.44.76c-.11 4.14-.04 8.3.59 12.4l-2.17.11-.88-3.27c-.52-2.13-.89-4.3-1.06-6.48a109.76 109.76 0 0 1 1.08-3.52z"/><path fill="#d9cec8" d="M113.55 161.8l2.82-1.02 5.61 1.69c.63 3.02.95 6.09.87 9.18l-9.31-1.27c-.24-2.86-.13-5.73.01-8.58z"/><path d="M96.68 161.96l.76 2 1.3 4.33-1.24 1.8-1.24.34-.14-.88.56-7.59zm171.79 62.57c.17-1.32.52-2.59.83-3.88l2.62 1.58-.11 3.96-.58.87a34.92 34.92 0 0 1-2.76-2.53z" fill="#fcfcfd"/><path fill="#9d7c76" d="M97.44 163.96c3.43-1.71 7.18-.8 10.66.17.17 2.18.54 4.35 1.06 6.48-3.48-.75-7-1.34-10.42-2.32-.41-1.46-.83-2.9-1.3-4.33z"/><path fill="#71615a" d="M184.21 166.79c2.06-1.21 4.31-2.09 6.64-2.66l1.56 2.13 3 .29-3.41 4.36c-1.84 2.26-3.87 4.42-5.26 7-1.57 3.45-2.08 7.24-2.47 10.98l-.6-7.23-.27-4.02c-2.18 1.16-3.8 3-4.99 5.14l1.53 2.12 2.24-.7-1.48 2.42-3.58.34-2.02-1.94c.34-1.57.66-3.14 1.06-4.69l2.84-1.78-.86-3.95c1-1.92 2.16-3.76 3.49-5.48.84 2.13 1.73 4.24 2.68 6.33l5.72-7.1-5.6 1.81-.22-3.37z"/><path fill="#6f6a6b" d="M247.12 163.86l.79.18c3.42 5.82 5.34 12.36 8.48 18.33l-.05 1.36c-2.25-.65-4.53-1.17-6.82-1.63l-1.07-2.73c1.31-.97 1.96-2.81 1.38-4.36-.86-3.73-1.63-7.48-2.71-11.15z"/><path fill="#c9bcb5" d="M181.63 169.12l2.58-2.33.22 3.37 5.6-1.81-5.72 7.1-2.68-6.33z"/><path fill="#63453d" d="M97.5 170.09l1.24-1.8c3.42.98 6.94 1.57 10.42 2.32l.88 3.27-.96 2.14 7.13 1.13c-2.6-.31-5.21-.45-7.82-.51l-1.73-2.66-.48-.7c-3.15-.19-6.28.38-9.34 1.07l-.58-3.92c.31-.08.93-.26 1.24-.34z"/><path fill="#c3bec2" d="M206.1 180.8c.7-5.14 2.57-11.57 8.13-13.23-1.07 4.76-3.23 9.16-5.21 13.59l-2.92-.36z"/><path fill="#928b8a" d="M140.42 168.79l.96 9.1-5.79.19 4.58 1.87-8-1.14-7.94-1.09-5.27-.29-.92-2.78c4.38.77 8.86 1.42 13.3.67l2.93-.32 5.27-.54.88-5.67z"/><path fill="#b3a7a0" d="M158.59 170.3l4.21 3.14-1.88 6.61-2.44-1.55.11-8.2z"/><path d="M223.81 170.34c3.05 3.65 6.91 6.72 11.88 6.96-1.67 3.52-4.21 6.51-6.9 9.3-4.97-.28-9.8-1.51-14.57-2.83l-.88-2.67c.82-2.34 1.29-4.98 3.05-6.85 1.36-1.59 3.62-.92 5.43-.98l1.99-2.93zm60.26 43.74c4.43 2.73 8.84 5.56 12.88 8.85-4.46-2.69-8.83-5.57-12.88-8.85z" fill="#3b3e3e"/><path fill="#bdb6b9" d="M244.96 176.19c-.5-2.75.93-4.93 3.16-6.38-.62 2.25-.22 5.77-3.16 6.38z"/><path fill="#e7a381" d="M192 170.91c.72 4.77 3.63 8.64 7.42 11.47-3.73 3.21-7.26 7.15-8.56 12.01-.71 4.86-.5 9.81-1.06 14.7-2.28-2.95-4.83-5.67-7.29-8.46-.1-1.18-.16-2.36-.22-3.53l-.31-6.7 6.95-.82c-1.11-3.8-2.04-7.69-2.19-11.67 1.39-2.58 3.42-4.74 5.26-7z"/><g fill="#1e2229"><path d="M258.83 170.92c.53 2.72.84 5.48 1.11 8.25-.64-2.71-.91-5.48-1.11-8.25z"/><path d="M257.23 174.88l1.4 8.62c-.22 2.6-.67 5.26-.01 7.83-.14 1.56 2.03 2.67 2.98 1.3 1.53-3.37-.26-7.02-.9-10.4 2.54 1.77 5.55 2.55 8.56 3.09l.71 6.24 6.43.34c.21 5.58.33 11.28 2.08 16.65 1.35 3.25.38 6.77.66 10.16.08 2.14.28 4.27.38 6.4l-2.35-.83-.74 4.45-.55 2.68a188.21 188.21 0 0 0-1.32-6.69c-2.87 3.06-2.99 8.38.54 11.02l-.29 1.77-3.29 1.58c.39 2.16.8 4.31 1.05 6.5.7 7.43 1.04 15.09 4.24 21.98 18.24-.71 31.01-20.31 28.58-37.5-1.04-2.26-3.53-3.41-5.3-5.05 2.47 1.48 4.93 2.99 7.47 4.38.41 6.86.01 13.94-2.87 20.29-3.89 9.53-12.21 17.22-22.31 19.63-4.14.71-6.85 4.09-10.56 5.67.5-1.49.87-3.02 1.15-4.57 1.4-4.97-.46-9.88-1.91-14.59-.92-4.54-1.48-9.14-2.12-13.73a260.31 260.31 0 0 1-1.18-11.5l3.26 4.64c.89-2.66.64-5.47.21-8.18l.58-.87c3.95-4.09 2.81-10.24-.03-14.59 1.09-.79 2.12-1.66 3.12-2.56 1.9-3.19.06-7.13-.43-10.5l-3.5-1.02c-.68-2.35-1.64-4.64-3.36-6.41a53.9 53.9 0 0 0-3.39 2.15l-1.2 1.16c-2.43-.29-4.85-.63-7.3-.73.77-3.27.49-6.64.62-9.96a61.78 61.78 0 0 0 .05-1.36c.39-2.48.77-4.97.84-7.49m17.58 37.2c-.19 3.33.52 6.61.89 9.91l2.77-.98c-.61-2.79-.71-5.71-1.71-8.4l-1.95-.53m2.48 55.95c-.5 1.67.04 2.25 1.62 1.76.51-1.68-.03-2.27-1.62-1.76z"/></g><path fill="#9f9692" d="M142.83 172.11c2.28 2.75 5.84 4.34 9.42 4.03 1.71-.46 2.87-2 4.18-3.11-.29 1.79-.51 3.61-1.06 5.35-1.62 1.24-3.72 1.48-5.61 2.09 1.34-2.76-3.12-2.39-1.8.18-2.61-.14-5.22-.25-7.79-.7-1.55-.58-3.07-1.23-4.58-1.87l5.79-.19 3.26-.03-1.81-5.75z"/><path fill="#191511" opacity=".49" d="M96.84 174.35c3.06-.69 6.19-1.26 9.34-1.07l.48.7-9.82.37z"/><path d="M176.16 180.33c.55-1.95 1.21-3.86 1.98-5.73l.86 3.95-2.84 1.78zm13.86 40.51c2.84.65 5.74 1.4 8.04 3.3 1.6 2.25 3.02 4.62 4.4 7.01l-5.04-2.62-3.94-2.24c-1.74 2.83-3.53 5.69-4.48 8.9l-1.03 3.15-7.13 2.78-.07-2.42c-4.51.05-9.47-.72-12.43-4.5l3.24-1.44c2.72.85 5.47 1.6 8.16 2.57 1.69.88 3.32 1.89 4.96 2.87.81-1.87 1.26-3.86 1.19-5.9 3.37-2.13 5.65-5.41 7.17-9.03l-3.04-2.43z" fill="#bbb0a6"/><path fill="#b4aeb3" d="M248.45 179.37c-1.1-1.47-1.12-4.57 1.38-4.36.58 1.55-.07 3.39-1.38 4.36z"/><path fill="#141313" opacity=".44" d="M116.76 178.49c2.46-.46 4.95-.82 7.47-.77 2.67.19 5.3.68 7.94 1.09-5.14-.16-10.29.11-15.41-.32z"/><path fill="#ebe5e2" d="M147.96 180.65c-1.32-2.57 3.14-2.94 1.8-.18l-1.8.18z"/><path d="M162.28 178.3c.58.58.58.58 0 0zm44.98 39.96c.97-1.36 3.67.04 2.47 1.56-.98 1.39-3.66-.05-2.47-1.56z" fill="#fffffd"/><path fill="#ab9c94" d="M178.41 182.78c1.19-2.14 2.81-3.98 4.99-5.14l.27 4.02-1.49 2.54-2.24.7-1.53-2.12z"/><path fill="#b57456" d="M184.27 188.89c.39-3.74.9-7.53 2.47-10.98.15 3.98 1.08 7.87 2.19 11.67l-6.95.82 2.29-1.51z"/><path fill="#767274" d="M202.73 179.35l.63-1.4c1.15 2.23 1.93 4.96 4.3 6.22 3.75 2.28 7.48 4.59 11.13 7.02l-1.15 2.69c-3.08-1.99-5.85-4.44-9.07-6.18-2.85-1.1-5.86.3-8.65 1-.55 4.11-1.56 8.14-2.21 12.24-.62 2.48.33 4.91 1.27 7.17 1 2.37 2.15 4.67 3.28 6.98 3.9-1.74 8.29-3.79 9.22-8.43l2.25 1.28c2.81-.2 5.61.17 8.32.9.7-1.85 1.45-3.68 2.32-5.45l.68-1.37.15-.28c1.43 2.26 2.67 4.64 3.93 7 1.28-.51 2.81-.68 3.83-1.68 1.19-2.04 1.84-4.33 2.85-6.45l1.33-2.03c-.59-2.24-1.22-4.48-2.03-6.66 1.41 1.61 2.86 3.18 4.08 4.94-.61 5.82-2.65 11.38-5.84 16.27l2.06 2.05a54.23 54.23 0 0 1-7.18 4.19l-1.85-.1 2.48-5.22c-5.26 2.68-10.73 5.29-16.77 5.33-.26 1.57-.56 3.14-.89 4.69-.56-.25-1.66-.77-2.22-1.03l-2.93-1.24c-.44 1.36-.95 2.71-1.2 4.12 1.25 2.86 3.41 5.2 5.24 7.7 1.68 2.6 4.23 4.43 7.13 5.49-.76-1.73-1.54-3.44-2.41-5.11a112.49 112.49 0 0 1 3.34 2.39c1.37 3.29 2.43 6.71 2.75 10.27-6.3-3.35-11.28-8.69-16.22-13.74-3.8 3.35-1.85 8.88-3.64 13.14-2.35 5.69-7.42 10.16-13.41 11.7-3.23-.05-6.41-1.13-8.48-3.73 2.74-.56 5.87-.04 8.32-1.63 2.72-2.66 2.73-6.76 2.72-10.3-1.65.36-3.29.73-4.93 1.16l-4.42-2.14 7.13-2.78 1.03-3.15.8-.66c3.63 3.85 3.88 10.13 1.22 14.58-1.24 2.22-2.71 4.31-3.98 6.52 4.98-1.29 8.44-5.59 10.99-9.8 1.54-2.24 1.2-5.01.77-7.52-.29-2.09-.91-4.13-2.01-5.94l-1.29-2.21 1.92-1.63c1.66.91 3.35 1.77 5.04 2.62-1.38-2.39-2.8-4.76-4.4-7.01l1.69-3.23c-2.22-2.67-4.68-5.12-7.11-7.6l-2.84-4.22c.56-4.89.35-9.84 1.06-14.7 1.3-4.86 4.83-8.8 8.56-12.01 1.13-.98 2.27-1.96 3.31-3.03m-11.25 22.43c-.2 2.43-.13 4.88-.05 7.32.77-2.38 1.47-5.03.05-7.32m15.78 16.48c-1.19 1.51 1.49 2.95 2.47 1.56 1.2-1.52-1.5-2.92-2.47-1.56z"/><path fill="#736f6e" d="M211.91 184.05c-.3-1.85.35-3.69.69-5.49l.74 2.54.88 2.67c4.77 1.32 9.6 2.55 14.57 2.83l2.28 4.24-1.06 2.47-3.49-.17-2.55-.17c-.2-1.64-.31-3.38-1.19-4.82-1.47-1.03-3.22-1.56-4.89-2.16l-2.84.18c-1.07-.69-2.18-1.3-3.14-2.12z"/><path d="M260.28 180.72l.42 1.51c.64 3.38 2.43 7.03.9 10.4-.95 1.37-3.12.26-2.98-1.3-.66-2.57-.21-5.23.01-7.83l1.65-2.78zm3.17 57.89c3.16 7.5 3.07 15.86 3.68 23.85l-.87-.45c-1.75-7.66-3.02-15.53-2.81-23.4z" fill="#a3a2a5"/><path opacity=".78" d="M232.61 186.1c1.18-1.77 2.79-3.18 4.3-4.66 3.98 4.31 7.77 8.84 10.79 13.89a124.77 124.77 0 0 1 6.07 10.91c-.49 1.19-1.03 2.37-1.61 3.53-2.73 3.36-5.81 6.41-8.43 9.86l-2.05-5.98c2.41-2.1 4.77-5.72 2.46-8.75-1.72-2.64-3.35-5.33-4.95-8.04-1.22-1.76-2.67-3.33-4.08-4.94-1.11-1.78-2.88-3.54-2.5-5.82z"/><path d="M175.1 185.02l2.02 1.94-.42 3.78c-1.35 1.46-2.61 3.08-3.04 5.06-.67 4.87-4.52 8.1-7.54 11.6l-.89-.37c-4.16-1.94-8.8-1.23-12.48 1.37-1.37.75-2.68 1.59-3.94 2.51-1.06 2.28-1.73 4.71-2.29 7.16-2.48-2.67-2.5-6.6-1.2-9.83 1.3-4.79 5.71-7.6 9.57-10.23 1.4.58 2.42.18 3.07-1.19l2.14-.58.82.02a234.93 234.93 0 0 1 8.81.35c2.7-3.38 4.8-7.25 5.37-11.59m-10.29 12.25l-1.41 5.98c2.64-.57 4.93-1.97 6.58-4.1a31.63 31.63 0 0 0-5.17-1.88m-7.26 1.7a14.61 14.61 0 0 0 2.36 5.37c1.05-2.08 1.97-4.22 2.78-6.4l-5.14 1.03m-7.94 6.27c.93.84 1.78 2.24 3.26 1.77 1.8-.55 1.95-2.67 2.69-4.1-2.49-1.39-4.3.74-5.95 2.33zm94.12 14.39c2.62-3.45 5.7-6.5 8.43-9.86l.98-.1c-.9 1.45-1.84 2.89-2.86 4.26-2.32 3-5.01 5.69-7.71 8.35-3.96 4.02-7.61 8.34-11.21 12.68 3.43-5.64 8.66-9.89 12.37-15.33z" fill="#959199"/><path fill="#807271" d="M246.85 184.51c2.23 1.87 4.3 3.95 6.1 6.25l.25-5.16c.78 2.62 1.51 5.3 1.46 8.06-.12 3.17.1 6.34.26 9.5l-1.15 3.08a124.77 124.77 0 0 0-6.07-10.91l4.21.45c-1.72-3.74-3.51-7.46-5.06-11.27z"/><path fill="#ddd4d1" d="M215.05 186.17l2.84-.18c.04 1.8-2.25 1.33-2.84.18z"/><path fill="#a3a1a3" d="M199.92 188.7c2.79-.7 5.8-2.1 8.65-1 3.22 1.74 5.99 4.19 9.07 6.18l1.15-2.69c1.73 1.18 3.41 2.42 5.1 3.65l.08-1.87 2.55.17-2.2 4.86c-1.28.24-2.56.44-3.82.74-1.77-1.59-3.49-3.22-5.2-4.87-.97 1.18-1.85 2.45-2.2 3.96.03 2.86.16 5.72.28 8.58 2.73-1.48 5.37-3.14 7.93-4.9l3.06 1.88c-.87 1.77-1.62 3.6-2.32 5.45-2.71-.73-5.51-1.1-8.32-.9l-2.25-1.28c-.93 4.64-5.32 6.69-9.22 8.43-1.13-2.31-2.28-4.61-3.28-6.98l2.26-3.51-2.47.04-1.06-3.7c.65-4.1 1.66-8.13 2.21-12.24m1.29 4.59c-1.49.25-1.27 2.83.05 3.18 1.49-.2 1.3-2.89-.05-3.18m2.79 8.44l2.36 2.83c1.13-.76 2.32-1.44 3.56-2.02 1.62 3.33 3.85-2.49.72-2.58l.49-1.82c-3.01-.35-5.66.94-7.13 3.59m4.2 4.37c-1.31.73-1.3 1.41.02 2.02 1.3-.72 1.29-1.4-.02-2.02z"/><path d="M178.4 192.74l3.58-2.34.31 6.7c-1.73 1.32-3.76 2.11-5.94 2.25l-1.17-1.61-1.52-1.94c.43-1.98 1.69-3.6 3.04-5.06l1.7 2zm-21.57 41.53c-1.04-2.49-.38-5.21-.16-7.78 1.44 3.79 1.94 8.09 4.37 11.42 2.84 2.19 6.41 3.11 9.56 4.75-5.8 1.07-11.75-3.01-13.77-8.39z" fill="#706d71"/><path fill="#dad2cb" d="M230.01 193.31l1.06-2.47c1.05.88.52 3-1.06 2.47z"/><path fill="#f4f4f5" d="M264.22 193.26l3.39-2.15c1.94 6.9-1.33 14.9 3.35 21.1-1.75.88-2.3 2.87-3.09 4.51-1.71-7.76-1.09-15.88-3.65-23.46z"/><path d="M267.61 191.11c1.72 1.77 2.68 4.06 3.36 6.41l3.5 1.02c-1.53 3.38-1.11 7.21.43 10.5-1 .9-2.03 1.77-3.12 2.56l-.82.61c-4.68-6.2-1.41-14.2-3.35-21.1m2.33 7.47c-.13 3.7.3 7.53 2.05 10.86.34-3.67.72-7.96-2.05-10.86zm-30.75-1.72l4.95 8.04c-2.64 2.07-4.93 4.8-4.52 8.41l-1.28-3.66-1.17 4.31-1.76 1.22-2.06-2.05c3.19-4.89 5.23-10.45 5.84-16.27z" fill="#5b5958"/><path fill="#ded7d2" d="M201.21 193.29c1.35.29 1.54 2.98.05 3.18-1.32-.35-1.54-2.93-.05-3.18z"/><path fill="#9f9da2" d="M263.02 194.42l1.2-1.16c2.56 7.58 1.94 15.7 3.65 23.46.79-1.64 1.34-3.63 3.09-4.51l.82-.61c2.84 4.35 3.98 10.5.03 14.59.07-1.32.11-2.64.11-3.96-.1-2.64-.13-5.31-.72-7.9l-.91-.08c-.39 2.12-.56 4.28-.99 6.4-.31 1.29-.66 2.56-.83 3.88a34.92 34.92 0 0 0 2.76 2.53c.43 2.71.68 5.52-.21 8.18l-3.26-4.64a260.31 260.31 0 0 0 1.18 11.5c-.92-2.13-2.06-4.14-3.16-6.18-.98-3.3-1.57-6.73-1.19-10.17 1.31.97 2.6 1.98 3.89 2.99-1.58-5.28-2.61-10.7-3.14-16.18-.27-6.1-.96-12.19-2.32-18.14z"/><path d="M213.1 197.83c.35-1.51 1.23-2.78 2.2-3.96l5.2 4.87 3.82-.74.73 4.02-.68 1.37-3.06-1.88c-2.58-1.55-5.4-2.63-8.21-3.68zm47.68 1.75c2.54 1.06 2.14 4.11 2.56 6.35.08 1.86.97 4.43-1.27 5.38-.59-3.89-1.37-7.79-1.29-11.73z" fill="#bbb8bd"/><path fill="#544f4f" d="M229.84 194.16c2.36 1.78 4.29 4.02 5.97 6.45-1.01 2.12-1.66 4.41-2.85 6.45-1.02 1-2.55 1.17-3.83 1.68.83-2.49 2.27-5 1.87-7.73l-1.16-6.85z"/><path fill="#fefcfb" d="M166.12 207.4c3.02-3.5 6.87-6.73 7.54-11.6l1.52 1.94a165.94 165.94 0 0 0-2.3 6.83l5.26 2.24c1.15 2.28 3 4.08 4.73 5.92 1.78 2.55 3.53 5.17 5.93 7.19l1.22.92c1.02.79 2.03 1.61 3.04 2.43-1.52 3.62-3.8 6.9-7.17 9.03l-2.79-.69-3.36 3.72c-2.69-.97-5.44-1.72-8.16-2.57 1.4-1.54 2.6-3.24 3.72-4.98-1.97.44-4.25.4-5.88 1.76-.54 1.5-.81 3.08-1.08 4.66 2.96 3.78 7.92 4.55 12.43 4.5l.07 2.42c-3.22 1.47-6.75 1.75-10.24 1.54-3.15-1.64-6.72-2.56-9.56-4.75-2.43-3.33-2.93-7.63-4.37-11.42.22-2.63.57-5.24.9-7.86 1.33-.89 2.64-1.81 3.95-2.74.1 4.69.75 9.34 1.51 13.96 2.19.46 4.94.86 6.3-1.43.63-2.14.57-4.4.71-6.61-1.41 1.5-2.78 3.03-4.13 4.59-.9-4.19-1.51-8.46-1.72-12.74 3.19-2.3 5.69-5.39 7.72-8.73-1.99 1.35-3.92 2.77-5.86 4.18.01-.42.05-1.28.07-1.71z"/><path fill="#383638" opacity=".65" d="M154.89 198.01c.74-1.09 1.77-1.49 3.07-1.19-.65 1.37-1.67 1.77-3.07 1.19z"/><path d="M164.81 197.27a31.63 31.63 0 0 1 5.17 1.88c-1.65 2.13-3.94 3.53-6.58 4.1l1.41-5.98zm105.13 1.31c2.77 2.9 2.39 7.19 2.05 10.86-1.75-3.33-2.18-7.16-2.05-10.86zm-11.88 2.08l1.68.66c.7 3.34.79 6.78.69 10.19l-1.47-1.5c-.47-3.1-.72-6.23-.9-9.35z" fill="#cec8cc"/><path fill="#807e84" d="M182.29 197.1l.22 3.53c.46 4.28 3.49 7.62 6.23 10.68.97 1.19 2.49 1.59 3.9 2 2.43 2.48 4.89 4.93 7.11 7.6l-1.69 3.23c-2.3-1.9-5.2-2.65-8.04-3.3l-1.22-.92 1.1-5c-1.96-2.43-3.8-5-6.13-7.09-1.81-1.52-3.85-2.74-5.89-3.9-.31-1.59-.81-3.14-1.53-4.58 2.18-.14 4.21-.93 5.94-2.25z"/><path fill="#b0abb2" d="M157.55 198.97l5.14-1.03c-.81 2.18-1.73 4.32-2.78 6.4a14.61 14.61 0 0 1-2.36-5.37z"/><path fill="#e2d6cd" d="M175.18 197.74l1.17 1.61c.72 1.44 1.22 2.99 1.53 4.58l.26 2.88-5.26-2.24 2.3-6.83z"/><path d="M213.1 197.83c2.81 1.05 5.63 2.13 8.21 3.68l-7.93 4.9-.28-8.58zm61.8 11.21c-1.54-3.29-1.96-7.12-.43-10.5.49 3.37 2.33 7.31.43 10.5z" fill="#ece6ea"/><path fill="#fbf9f7" d="M210.64 199.96c3.13.09.9 5.91-.72 2.58l.72-2.58z"/><path fill="#4d4749" d="M256.14 199.96l1.92.7.9 9.35-.85 1.45c-1.49-.99-3.12-1.9-4.97-1.79l-.98.1 1.61-3.53 1.15-3.08 1.22-3.2z"/><path fill="#bbb2b1" d="M188.74 211.31c-2.74-3.06-5.77-6.4-6.23-10.68 2.46 2.79 5.01 5.51 7.29 8.46.98 1.39 1.89 2.82 2.84 4.22-1.41-.41-2.93-.81-3.9-2z"/><path d="M198.98 208.11c-.94-2.26-1.89-4.69-1.27-7.17l1.06 3.7 2.47-.04-2.26 3.51zm-7.5-6.33c1.42 2.29.72 4.94-.05 7.32l.05-7.32zm2 24.51l3.94 2.24-1.92 1.63-5.7 4.37-.8.66c.95-3.21 2.74-6.07 4.48-8.9z" fill="#fdf9f9"/><path fill="#fff" d="M225.05 202.02l.15-.28-.15.28z"/><path fill="#b3aeb4" d="M149.61 205.24c1.65-1.59 3.46-3.72 5.95-2.33-.74 1.43-.89 3.55-2.69 4.1-1.48.47-2.33-.93-3.26-1.77z"/><path fill="#aca8aa" d="M177.88 203.93c2.04 1.16 4.08 2.38 5.89 3.9l-1.38.28.48 4.62c-1.73-1.84-3.58-3.64-4.73-5.92l-.26-2.88z"/><path fill="#bbaea3" d="M166.05 209.11l5.86-4.18c-2.03 3.34-4.53 6.43-7.72 8.73.21 4.28.82 8.55 1.72 12.74l-2.88 3.45c-.76-4.62-1.41-9.27-1.51-13.96-.08-3.38 1.86-6.22 3.71-8.86l.89.37-.07 1.71z"/><path fill="#363238" d="M244.14 204.9c2.31 3.03-.05 6.65-2.46 8.75l-1.72.76-.34-1.1c-.41-3.61 1.88-6.34 4.52-8.41z"/><path fill="#6e6c71" d="M152.75 208.4c3.68-2.6 8.32-3.31 12.48-1.37-1.85 2.64-3.79 5.48-3.71 8.86l-3.95 2.74-.61.42 4.15-9.8c-2.75-.56-5.55-.93-8.36-.85z"/><path fill="#f8f5f1" d="M208.2 206.1c1.31.62 1.32 1.3.02 2.02-1.32-.61-1.33-1.29-.02-2.02z"/><path fill="#c4bebf" d="M182.39 208.11l1.38-.28c2.33 2.09 4.17 4.66 6.13 7.09l-1.1 5c-2.4-2.02-4.15-4.64-5.93-7.19l-.48-4.62z"/><path d="M238.34 209.65l1.28 3.66.34 1.1c-1.94 2.57-3.18 5.79-5.98 7.6-2.87 1.99-6.53 1.77-9.85 1.74-1.14-.42-2.26-.89-3.38-1.35l4.95-.48c2.5-.27 5.22-.31 7.39-1.76 2.16-1.4 3.29-3.84 4.08-6.2l1.17-4.31zm27.44 26.27l3.16 6.18c.64 4.59 1.2 9.19 2.12 13.73.01 4.91-.76 10.15 1.91 14.59-.28 1.55-.65 3.08-1.15 4.57l-.84.35c-2.45-13.02-3.82-26.24-5.2-39.42z" fill="#b7b6b9"/><path fill="#514d4d" opacity=".76" d="M146.52 218.07c.56-2.45 1.23-4.88 2.29-7.16l-1.3 8.53-.99-1.37z"/><path fill="#64473c" d="M253.71 213.09l3.43.89-.01 5.62c-3.47-.3-3.09-3.94-3.42-6.51z"/><path d="M265.34 212.56c.53 5.48 1.56 10.9 3.14 16.18l-3.89-2.99c-.38 3.44.21 6.87 1.19 10.17 1.38 13.18 2.75 26.4 5.2 39.42-1.62-.94-3.16-2.01-4.83-2.87 1.5-2.9-3.05-3.1-2.27-.1-4.97.05-10.06.21-14.82-1.45-6.34-1.9-11.6-6.15-16.02-10.94-4.27-5.41-5.28-12.82-10.48-17.55l-1.66 4.23c-.32-3.56-1.38-6.98-2.75-10.27-.46-3.1-.98-6.21-2.06-9.17.42-.45.86-.89 1.31-1.31.65 5.91 2.89 11.51 6.48 16.24l2.82-3.04.91 5.06.16.92a62.76 62.76 0 0 0 1.98 5.01c4.26 9.93 13.25 17.85 23.91 20.07 4.7 1.21 9.44-.15 13.84-1.79l-.37-5.92c-.61-7.99-.52-16.35-3.68-23.85-.21 7.87 1.06 15.74 2.81 23.4l-1.67-.86c-.99-3.12-1.24-6.41-1.43-9.66a60.53 60.53 0 0 0-.56-4.64c-.37-2.18-.89-4.33-1.43-6.47 1.05-1.75 2.34-3.44 2.82-5.45.13-2.7-.62-5.33-1.04-7.96l-4.13.05-.97-4.39c1.57.29 3.16.58 4.76.73l1.23-.17.99-.21c.04-2.62-.13-5.23-.19-7.84l.7-2.58zm-29.93 2.62l1.76-1.22c-.79 2.36-1.92 4.8-4.08 6.2-2.17 1.45-4.89 1.49-7.39 1.76l2.53-2.55a54.23 54.23 0 0 0 7.18-4.19zm34.88-.93l.91.08c.59 2.59.62 5.26.72 7.9l-2.62-1.58.99-6.4z" fill="#292b2f"/><path fill="#605a57" d="M212.09 219.38c6.04-.04 11.51-2.65 16.77-5.33l-2.48 5.22 1.85.1a60.84 60.84 0 0 0-2.53 2.55l-4.95.48 3.38 1.35c-2.35.34-4.64 1.04-6.73 2.16-.45.42-.89.86-1.31 1.31-2.36 1.67-1.96 4.37-1.28 6.78-1.84-3.04-3.22-6.37-3.61-9.93.33-1.55.63-3.12.89-4.69z"/><path opacity=".14" d="M214.81 234c-.68-2.41-1.08-5.11 1.28-6.78 1.08 2.96 1.6 6.07 2.06 9.17l-3.34-2.39z"/><path opacity=".75" d="M242.57 222.28c2.7-2.66 5.39-5.35 7.71-8.35 1.16 3.6 4.17 5.79 7.39 7.41a57.1 57.1 0 0 1 .18 1.29c-3.51 1.46-5.07 5.7-4.69 9.28.42 5.81 1.33 11.57 1.99 17.36 2.75.11 6.46 1.06 7.45-2.42a60.53 60.53 0 0 1 .56 4.64c-3.84-.92-7.18 1.31-10.23 3.29-7.49-2.69-15.69-1.89-23.18-4.68a62.76 62.76 0 0 1-1.98-5.01c5.89 5.29 14.34 7.79 21.97 5-1.42-4.31-3.25-8.53-3.69-13.09-.48-5.04-1.68-9.99-3.48-14.72z"/><path fill="#636366" d="M257.98 214.98l3.33-1.25a61.24 61.24 0 0 1 1.3 9.63c-1.6-.15-3.19-.44-4.76-.73l-.18-1.29.31-6.36z"/><path fill="#969598" d="M262.54 213.63l2.1 1.51.19 7.84-.99.21c-.86-3.12-1.31-6.33-1.3-9.56z"/><path fill="#94888d" d="M155.85 219.83l1.11-.78.61-.42-.9 7.86c-.22 2.57-.88 5.29.16 7.78 2.02 5.38 7.97 9.46 13.77 8.39 3.49.21 7.02-.07 10.24-1.54l4.42 2.14c-2.67.69-5.31 1.49-8.02 2.02-3.45.25-6.92.25-10.36-.12l-1.73-.34c-2.66-.63-5.4-.85-8.12-1.14-1.25-.52-2.32-1.36-3.39-2.17l4.26-.68-1.86-1.61c-1.18-4.08-2.96-8.04-3.49-12.28.22-2.66 2.02-4.86 3.3-7.11z"/><path fill="#070708" opacity=".57" d="M279.14 218.71c5.08 4.02 2.53 10.94.78 16.01-.32-3.19-.31-6.4-.4-9.61l-.38-6.4z"/><path fill="#6b5652" d="M147.28 227.64c1.97-3.47 4.86-6.27 8.57-7.81-1.28 2.25-3.08 4.45-3.3 7.11.53 4.24 2.31 8.2 3.49 12.28-4.85-2.1-6.41-7.33-8.76-11.58z"/><path fill="#e2dbd8" d="M165.91 226.4l4.13-4.59c-.14 2.21-.08 4.47-.71 6.61-1.36 2.29-4.11 1.89-6.3 1.43l2.88-3.45z"/><path fill="#a19ea1" d="M208.98 223.04l2.22 1.03c.39 3.56 1.77 6.89 3.61 9.93.87 1.67 1.65 3.38 2.41 5.11-2.9-1.06-5.45-2.89-7.13-5.49.7-3.58-.11-7.15-1.11-10.58z"/><path fill="#848487" d="M277.17 224.28l2.35.83.4 9.61a30.42 30.42 0 0 1-3.49-5.99l.74-4.45z"/><path fill="#696a71" d="M258.82 227.02l4.13-.05c.42 2.63 1.17 5.26 1.04 7.96-.48 2.01-1.77 3.7-2.82 5.45-1.24-4.37-1.34-8.95-2.35-13.36z"/><path fill="#b37052" d="M147.28 227.64c2.35 4.25 3.91 9.48 8.76 11.58l1.86 1.61-4.26.68c-2.84-2.6-6.21-5-7.76-8.64-.75-1.89.61-3.63 1.4-5.23z"/><path fill="#e3dbd8" d="M169.42 229.54c1.63-1.36 3.91-1.32 5.88-1.76-1.12 1.74-2.32 3.44-3.72 4.98l-3.24 1.44c.27-1.58.54-3.16 1.08-4.66z"/><path fill="#e2dad7" d="M183.1 231.61l2.79.69c.07 2.04-.38 4.03-1.19 5.9l-4.96-2.87 3.36-3.72z"/><path fill="#9e99a1" d="M189.8 234.53l5.7-4.37 1.29 2.21c-.55 1.26-1.52 2.48-1.33 3.93l3.34 2.01c.43 2.51.77 5.28-.77 7.52-2.55 4.21-6.01 8.51-10.99 9.8 1.27-2.21 2.74-4.3 3.98-6.52 2.66-4.45 2.41-10.73-1.22-14.58z"/><path fill="#f1eaef" d="M195.46 236.3c-.19-1.45.78-2.67 1.33-3.93 1.1 1.81 1.72 3.85 2.01 5.94l-3.34-2.01z"/><path fill="#221d1d" opacity=".39" d="M157.03 243.68l8.12 1.14c-2.72-.22-5.55-.06-8.12-1.14z"/><path fill="#4a474a" opacity=".65" d="M166.88 245.16c3.44.37 6.91.37 10.36.12-3.42.77-6.97.72-10.36-.12z"/><path fill="#565860" d="M271.06 255.83c1.45 4.71 3.31 9.62 1.91 14.59-2.67-4.44-1.9-9.68-1.91-14.59z"/><path fill="#b5b4b7" d="M277.29 268.03c1.59-.51 2.13.08 1.62 1.76-1.58.49-2.12-.09-1.62-1.76z"/></svg>