<svg xmlns="http://www.w3.org/2000/svg" width="512" height="512" viewBox="0 0 384 384" xmlns:v="https://vecta.io/nano"><path fill="#1b1d21" d="M207.27 124.78c4.37-.02 10.35-1.49 13.24 2.78 4.56 6.18 8.95 12.53 13.01 19.06-.04 2.42 1.35 4.38 2.83 6.16-1.3.93-2.61 1.85-3.96 2.7-.42-4.17-.92-8.89-4.82-11.35-1.15-4.73-5.21-7.66-9.15-10.02-.22-1.45.22-3.34-1.2-4.29-1.71-1.22-3.88-1.43-5.85-1.97l1.01 3.85c-.37.07-1.1.22-1.46.3-1.75-2.11-3.01-4.57-3.65-7.22z"/><path fill="#434047" d="M211.37 127.85c1.97.54 4.14.75 5.85 1.97 1.42.95.98 2.84 1.2 4.29l-3.9.56-2.53-1.83-2.22 1.98 1.15-2.82 1.46-.3-1.01-3.85z"/><path fill="#837f7f" d="M209.77 134.82l2.22-1.98 2.53 1.83 3.39 2.66 1.52.84.68-.46 2.01 2.33.1 5.18 2.84.41-.19 4.76c-3.44-1.12-5.19-4.35-7.54-6.81-1.38-.61-2.9.33-4.27.6l-2.15-1.58 1.45-3.65-2.59-4.13z"/><path fill="#e9a37e" d="M195.63 136.57c3.94-3.48 9.42-2.22 14.14-1.75l2.59 4.13-1.45 3.65-3.2-2.4c-1.43-1.28-2.55-3.12-4.43-3.74-2.55-.17-5.1.38-7.65.11z"/><path fill="#8f644f" d="M186.89 149.32c2.3-4.62 5.42-8.81 8.74-12.75 2.55.27 5.1-.28 7.65-.11 1.88.62 3 2.46 4.43 3.74-4.45-.03-9.23-.12-13.16 2.32-2.51 1.36-4.14 3.79-5.7 6.09l-1.96.71z"/><path fill="#363334" opacity=".84" d="M217.91 137.33l2.2.38-.68.46-1.52-.84z"/><path fill="#3c3e3c" d="M194.55 142.52c3.93-2.44 8.71-2.35 13.16-2.32l3.2 2.4 2.15 1.58-2.2.85c-7.54-1.82-15.19.37-22.01 3.58 1.56-2.3 3.19-4.73 5.7-6.09z"/><path fill="#696364" d="M222.12 140.04c1.72 1.49 3.61 2.76 5.45 4.09 3.9 2.46 4.4 7.18 4.82 11.35-1.86.26-3.74.37-5.62.33l-6.43-1.89-.83 2.5c-2.79 3.36-5.38 6.9-7.43 10.76.8-3.18 2.14-6.19 3.1-9.32-2.22-2.03-5.07 1.07-7.38 1.79l-1.51-.37 1.42-1.75c2.35-1.48 4.82-3.12 5.65-5.95l2.09-1.57 1.73-1.25c-2.08-1.29-4.16-2.59-6.32-3.73l2.2-.85c1.37-.27 2.89-1.21 4.27-.6 2.35 2.46 4.1 5.69 7.54 6.81l.19-4.76-2.84-.41-.1-5.18z"/><path fill="#b0a29b" d="M188.85 148.61c6.82-3.21 14.47-5.4 22.01-3.58 2.16 1.14 4.24 2.44 6.32 3.73l-1.73 1.25c-5.29-3.13-11.75-4.05-17.69-2.4-3.84.65-7.57 2.39-9.99 5.53l-1.02-3.14.14-.68 1.96-.71z"/><path fill="#363b40" d="M233.52 146.62c3.23 1.39 6.69 1.26 9.74-.48l-3.14 7.6c-3.3.96-6.35 2.65-8.62 5.27-1.57-1.07-3.11-2.19-4.73-3.2 1.88.04 3.76-.07 5.62-.33 1.35-.85 2.66-1.77 3.96-2.7-1.48-1.78-2.87-3.74-2.83-6.16z"/><path fill="#1a191c" d="M243.26 146.14l4.11 5.41h6.54l5.09 8.1c10.91-.06 21.78-1.4 32.63-2.43 7.2 11.2 7.93 25.88 2.49 37.95-2.71 6.8-8.98 11.74-10.17 19.21-.88-2.32-1.31-4.77-1.14-7.24-2.93-1.16-6.09-2.27-8.07-4.88-2.93-3.6-6.69-7.35-6.29-12.39 1.89 1.51 3.73 3.09 5.36 4.89 2.13 3.75 4.47 7.39 7.24 10.71 6.98-3.83 10.55-11.47 12.65-18.81 2.32-9.46 1.5-19.9-3.51-28.39-10 .39-20 1.21-29.93 2.41 3.67 6.29 8.65 11.7 12.17 18.07l-3.5-.09-1.16.03-1.66.49c-2.75-3.1-4.33-7-3.34-11.16-1.99-3.07-4.32-5.93-7.24-8.15 1.25 3.74 4.12 6.52 6.45 9.59-2.43.32-3.61-1.99-5-3.51-1.3-1.58-2.95-2.81-4.57-4.03l1.26-6.43c-1.79 1.91-3.43 4.02-5.6 5.52-2.06 1.17-4.44 1.57-6.7 2.19l3.27 5.33-4.98 3.76c-2.79-1.6-4.45-4.41-5.68-7.28.9.37 1.81.72 2.72 1.06.55-2.59 1.02-5.24.87-7.9-1.57.47-3.06 1.18-4.55 1.84l-1.52-1c2.27-2.62 5.32-4.31 8.62-5.27l3.14-7.6z"/><path fill="#4d5559" d="M197.76 147.61c5.94-1.65 12.4-.73 17.69 2.4l-2.09 1.57c-2.31 1.55-4.07 3.7-5.65 5.95l-1.42 1.75c-.85-1.63-1.46-3.36-2.07-5.09l-3.68.05c-.04-2.54.79-4.91 3.11-6.22l-5.89-.41z"/><path fill="#3e4243" d="M187.77 153.14c2.42-3.14 6.15-4.88 9.99-5.53 1.96.1 3.93.28 5.89.41-2.32 1.31-3.15 3.68-3.11 6.22l3.68-.05c.61 1.73 1.22 3.46 2.07 5.09l1.51.37c-1.95 2.57-3.91 5.2-5.24 8.16-.64 2.21-.91 4.5-1.35 6.75-5.53-1.67-11.37.87-16.82-.88-2.36-2.07-2.08-5.66-1.25-8.38 1.35-4.12 3.13-8.09 4.63-12.16m10.49 16.1c.55.54.55.54 0 0z"/><path fill="#aa948d" d="M182.31 161.33c2.47-3.29 3.75-7.31 4.44-11.33l1.02 3.14c-1.5 4.07-3.28 8.04-4.63 12.16-.83 2.72-1.11 6.31 1.25 8.38 5.45 1.75 11.29-.79 16.82.88-3.21 3.72-7.21 6.61-11.04 9.63.42-1.93.93-3.84 1.44-5.74-4.12-.7-9.37-.75-11.33-5.21l-.52-4.81.16-1.44-4.59 1.14 2-4.14-5.86.48 1.58-2.21c3.06-.53 6.21-.34 9.26-.93z"/><path d="M207.71 157.53c1.58-2.25 3.34-4.4 5.65-5.95-.83 2.83-3.3 4.47-5.65 5.95zm-16.76 52.49c2.92 1.01 5.9 1.84 8.95 2.35l1.28 4.44-5.15-.37-.57 5.73-.49-6.73c-2.35-.18-4.72-.32-7.01-.9l2.99-4.52z" fill="#b9b4b6"/><path fill="#8d807f" d="M220.34 153.92l6.43 1.89 4.73 3.2 1.52 1c-2.31 1.71-4.96.21-7.27-.65l-3.31-1.48-.31 6.65-2.16 1.52-.46-9.63.83-2.5z"/><path fill="#262b36" d="M248.07 161.01c2.17-1.5 3.81-3.61 5.6-5.52l-1.26 6.43c1.62 1.22 3.27 2.45 4.57 4.03 1.39 1.52 2.57 3.83 5 3.51-2.33-3.07-5.2-5.85-6.45-9.59 2.92 2.22 5.25 5.08 7.24 8.15-.99 4.16.59 8.06 3.34 11.16-1.53 1.7-2.87 3.56-4.15 5.46 3.03-1.05 5.25-3.35 6.97-5.98l3.5.09 1.7 3.12-.88 1.76-3.55-1.38 2.43 6.32-3.87-1.9.19 3.2c-.4 5.04 3.36 8.79 6.29 12.39 1.98 2.61 5.14 3.72 8.07 4.88-.17 2.47.26 4.92 1.14 7.24l-3.52 1.03c-.91-2.14-1.85-4.42-3.97-5.63-2.54-1.7-5.24-3.16-7.6-5.11-.84-.94-1.63-1.93-2.37-2.94-3.57-5.67-9.03-9.76-12.73-15.34-2.94-4.44-5.96-9.52-11.69-10.52.37-1.72.68-3.46.93-5.2a37.77 37.77 0 0 0-1.58 2.76l-1.76-1.14 4.98-3.76-3.27-5.33c2.26-.62 4.64-1.02 6.7-2.19m15.65 25.19c.96.5 1.9 1.04 2.91 1.44 1.54-1.01 2.27-2.72 2.83-4.41l-5.74 2.97z"/><path fill="#888486" d="M207.8 159.65c2.31-.72 5.16-3.82 7.38-1.79l-3.1 9.32-.64 2.63-.03 6.33 3.27.97c1.48 2.68 2.42 5.64 2.53 8.71l-4.03.69-1.47-1.32-2.28 7.23c-1.07-3.68-.05-7.42.76-11.02l-2.93 1.82a107.35 107.35 0 0 1 .72-3.57l.87-1.4c1.02-.92 1.38-3.64-.66-3.33-1.55.45-.89 2.36-.02 3.14-1.54-.49-3.1-.97-4.52-1.74-1.07-2.7-1.07-5.66-1.09-8.51 1.33-2.96 3.29-5.59 5.24-8.16m-1.8 15.29l2.35-1.4c.56-3.23 1.33-6.42 2.42-9.51l-1.03-2.11c-3.42 3.24-6.12 8.4-3.74 13.02z"/><path fill="#393a3a" d="M212.08 167.18c2.05-3.86 4.64-7.4 7.43-10.76.17 3.21.43 6.41.46 9.63-1.74 2.74-3.73 5.31-6.06 7.58l-2.47-3.82.64-2.63z"/><path opacity=".76" d="M222.44 157.88l3.31 1.48 8.23 5.65c1.23 2.87 2.89 5.68 5.68 7.28l1.76 1.14c-.79 5.02-1.63 10.03-2.62 15.01-1.92-2.32-4.04-4.46-6.32-6.42-2.01-1.69-3.49-3.91-4.33-6.4-.61-1.84-1.15-3.7-1.87-5.5-1.29-1.94-2.73-3.76-4.15-5.59l.31-6.65z"/><path fill="#3f383a" d="M233.02 160.01l4.55-1.84c.15 2.66-.32 5.31-.87 7.9l-2.72-1.06c-2.88-1.67-5.48-3.77-8.23-5.65 2.31.86 4.96 2.36 7.27.65z"/><path fill="#686261" d="M150.74 170.96c8.6.48 14.15-7.58 22.31-8.7l-1.58 2.21 5.86-.48-2 4.14-1.36 1.98c-.44-1.44-.95-2.85-1.43-4.27-3.93 1.34-9.37 2.69-10.1 7.54-.5 3.89.7 9.91 5.53 10.14a130.63 130.63 0 0 1-.58 5.59l-.99-.09c-4.87-.6-9.78-.76-14.68-.57-.32-1.82-3.07-1.85-3.54-.11l-2.38-.89-2.77-2.09c-.42-3.63-.34-7.29.12-10.91 1.3-.9 2.53-1.89 3.8-2.83-.33 3.08-2.42 5.5-3.36 8.37.11 3.26 3.89 3.98 6.26 5.17l1.07-3 1.95.61c3.11 1.37 6.4 2.3 9.83 2.33-1.07-4.7-1.61-9.48-1.85-14.29-3.12 1.02-6.18 2.26-8.95 4.06a76.18 76.18 0 0 0-1.16-3.91z"/><path fill="#d8d2d6" d="M206 174.94c-2.38-4.62.32-9.78 3.74-13.02l1.03 2.11c-1.09 3.09-1.86 6.28-2.42 9.51l-2.35 1.4z"/><path fill="#010101" opacity=".48" d="M270.17 163.49c2.53 2.08 4.56 4.76 5.5 7.93 2.48 7.55 2.66 16.49-1.86 23.34-1.63-1.8-3.47-3.38-5.36-4.89l-.19-3.2 3.87 1.9-2.43-6.32 3.55 1.38.88-1.76c2.05-6.46-1.89-12.5-3.96-18.38z"/><path fill="#cc9273" d="M219.97 166.05l2.16-1.52 4.15 5.59-2.33 4.79-4.65-3.28-5.82 3.54.43-1.54c2.33-2.27 4.32-4.84 6.06-7.58z"/><path fill="#c6bcb6" d="M162.44 173.38c.73-4.85 6.17-6.2 10.1-7.54-.68 3.45-1.95 6.74-3.76 9.75l4.86-.75-.91 2.62-4.32.83-.44 5.23c-4.83-.23-6.03-6.25-5.53-10.14z"/><path fill="#908680" d="M172.54 165.84l1.43 4.27c.18 1.58.09 3.19-.33 4.73l-4.86.75c1.81-3.01 3.08-6.3 3.76-9.75z"/><path fill="#4b2b1c" d="M175.33 168.13l4.59-1.14-.16 1.44c-1.59 2.1-3.15 4.28-3.9 6.84l-1.36 4.56c-.21 2.22-.21 4.45-.14 6.68l-.14 6.97c-.16 4.29-.92 8.52-1.61 12.76-1.55-.83-3.16-1.54-4.57-2.59-1.34-3.13-1.16-6.64-1.2-9.97.14-1.53.35-3.05.55-4.57a130.63 130.63 0 0 0 .58-5.59l.44-5.23 4.32-.83.91-2.62c.42-1.54.51-3.15.33-4.73l1.36-1.98z"/><path fill="#747173" d="M201.21 174.56l1.35-6.75c.02 2.85.02 5.81 1.09 8.51 1.42.77 2.98 1.25 4.52 1.74l.68.19-.87 1.4-.4.49c-3.03-.41-7.33-2.62-9.49.67-1.24 4.26-1.44 8.78-2.87 13.01l.59 2.12c1.4 4.14 2.14 8.67 5.31 11.94 2.31-1.35 4.87-2.43 6.79-4.35.88-1.59 1.08-3.44 1.54-5.17.39.18 1.17.56 1.56.75l2.56 1.19c1.74.75 3.49 1.53 5.37 1.86 1.43-.45 2.36-1.74 3.48-2.67l-.17 8.51c-2.95 1.39-5.86 3.98-9.36 3.03-1.14.1-2.76-.91-3.46.4.28 2.32 1.06 4.53 1.78 6.74.58 1.64 1.17 3.27 1.86 4.86 2.47 3.86 6.23 7.02 7.26 11.68l-3.93-.61c.62 1.84 1.29 3.68 1.62 5.6-1.85 1.82-4.14 3.09-6.34 4.44-.02-2.58.71-5.06 1.81-7.38-1.5 1.15-3.03 2.26-4.49 3.46 1.04-3.03 2.84-6.73-.29-9.15-3.65-4.06-6.28-8.95-7.53-14.26l-1.28-4.44c-2.39-2.39-5.62-3.94-7.52-6.79-.54-2.67-.42-5.42-.96-8.09-.22-1.75-.43-3.73-1.98-4.84.08-2.83.2-5.67.73-8.46 3.83-3.02 7.83-5.91 11.04-9.63m4.31 36.6c-.96 1.33 1.39 2.74 2.32 1.54 1.01-1.38-1.37-2.73-2.32-1.54m-2.3 6.97c2.29 6.27 6.53 12.26 13.07 14.57-.43-2.53-1.93-4.57-3.55-6.45-2.75-2.93-1.56-7.81-4.82-10.38-.31-.93-.81-1.77-1.49-2.5-1.27 1.39-3.98 2.44-3.21 4.76z"/><path fill="#6e6160" d="M175.86 175.27c.75-2.56 2.31-4.74 3.9-6.84l.52 4.81c.11 3.84-.11 7.69-.54 11.5-.96 4.11-2.83 7.93-3.83 12.03-.62 2.2.66 4.29 1.36 6.31l1.57-4.48c1.5 1.5 2.99 3.02 4.58 4.43l-3.39 5.28-.79-.42c-1.6-.17-3.22-.21-4.83-.24l1.83 1.55-4.12 2.39c.13-1.79.25-3.58.49-5.35.69-4.24 1.45-8.47 1.61-12.76.68-.88 1.33-1.8 1.93-2.73-.44-1.48-1.17-2.84-1.79-4.24-.07-2.23-.07-4.46.14-6.68l1.82 2.55c.48-2.38.39-4.82-.46-7.11z"/><path fill="#c0bfb7" d="M198.26 169.24c.55.54.55.54 0 0z"/><path fill="#5d5957" d="M211.41 176.14l.03-6.33 2.47 3.82-.43 1.54 5.82-3.54 4.65 3.28 2.33-4.79c.72 1.8 1.26 3.66 1.87 5.5l-1.59 2.51 2.23 4.82-3.23-1.28-1.95 2.83c-1.35-1.74-2.35-3.74-3.77-5.42-1.58-.98-3.42-1.39-5.16-1.97l-3.27-.97z"/><path fill="#604239" d="M130.46 179.45c2.79-6.48 10.95-7.38 17.09-8.26l-.6.43c-1.27.94-2.5 1.93-3.8 2.83l-2.55 1.2c-3.51.91-6.83 2.35-10.14 3.8z"/><path fill="#c7bdb7" d="M147.55 171.19l1.56-.14c.34 3.73.02 7.69 1.81 11.11l-1.07 3c-2.37-1.19-6.15-1.91-6.26-5.17.94-2.87 3.03-5.29 3.36-8.37l.6-.43z"/><path fill="#918079" d="M149.11 171.05l1.63-.09 1.16 3.91c.73 2.57.94 5.24.97 7.9l-1.95-.61c-1.79-3.42-1.47-7.38-1.81-11.11z"/><path fill="#c1b8b2" d="M151.9 174.87c2.77-1.8 5.83-3.04 8.95-4.06.24 4.81.78 9.59 1.85 14.29-3.43-.03-6.72-.96-9.83-2.33-.03-2.66-.24-5.33-.97-7.9z"/><path d="M241.42 173.43l1.58-2.76-.93 5.2c-.78 3.91-1.48 7.83-2.54 11.67-.03 1.11.05 2.2.23 3.3-.31-.81-.62-1.61-.96-2.4.99-4.98 1.83-9.99 2.62-15.01zm-29.86 17.36c2.8.84 5.54 1.96 7.89 3.74l-2.37 1.43-4.65 2.12c-.89-2.33-1.24-4.81-.87-7.29zm4.46 31.15l5.34 2.36c-1.67 1.98-3.86 2.12-6.02.85l.68-3.21z" fill="#f5f0f3"/><path fill="#dc9a79" d="M180.28 173.24c1.96 4.46 7.21 4.51 11.33 5.21-.51 1.9-1.02 3.81-1.44 5.74-.53 2.79-.65 5.63-.73 8.46-.09 1.52-.19 3.04-.15 4.57-.02 3.28.11 6.57.33 9.85-2.12-1.27-4.25-2.52-6.2-4.04-1.59-1.41-3.08-2.93-4.58-4.43 1.03-2.86 3.05-5.18 4.58-7.77-.84-2.24-2.39-4.11-3.68-6.09.43-3.81.65-7.66.54-11.5z"/><path fill="#b4a79f" d="M140.6 175.65l2.55-1.2c-.46 3.62-.54 7.28-.12 10.91l-2.34-1.49c-.37-2.73-.37-5.49-.09-8.22z"/><path fill="#b7b4ae" d="M208.19 174.92c2.04-.31 1.68 2.41.66 3.33l-.68-.19c-.87-.78-1.53-2.69.02-3.14z"/><path fill="#8a635c" d="M130.46 179.45c3.31-1.45 6.63-2.89 10.14-3.8-.28 2.73-.28 5.49.09 8.22-2.86-.76-5.99-.88-8.34 1.21-.86-1.79-1.48-3.69-1.89-5.63z"/><path fill="#a2928c" d="M174.5 179.83l1.36-4.56c.85 2.29.94 4.73.46 7.11l-1.82-2.55z"/><path fill="#9c989a" d="M226.56 178.13l1.59-2.51c.84 2.49 2.32 4.71 4.33 6.4 1.1 3.79 2.65 7.45 3.58 11.3l-2.45.97-2.1-4.61c-1.21-2.06-3.06-3.61-4.88-5.1 1.07 4.99 1.83 10.13.87 15.21l-2.44-.88c-.3-2.71-.66-5.42-1.15-8.11l-.61 2.12c-.59-1.44-1.22-2.85-1.85-4.26l-2.53-.47-1.05-1.68-2.26 2.17-2.43-2.17 4.03-.69c-.11-3.07-1.05-6.03-2.53-8.71 1.74.58 3.58.99 5.16 1.97 1.42 1.68 2.42 3.68 3.77 5.42l1.95-2.83 3.23 1.28-2.23-4.82m3.57 5.2c-1.99.62-.12 4.35 1.58 3.37.82-1.18-.13-3.28-1.58-3.37z"/><path opacity=".75" d="M242.07 175.87c5.73 1 8.75 6.08 11.69 10.52.06 1.89.05 3.93 1.28 5.5 2.55 3.73 5.46 7.21 8.09 10.89l3.36-1.05c.74 1.01 1.53 2 2.37 2.94l-1.86.71c-.65 1.66-.62 4.09-2.6 4.78-3.38 1.54-6.64 3.35-9.68 5.5-4.47 3.13-10.01 3.77-15.15 5.17l-.98-.59 1.58-2.04c7.98.11 15.53-4.28 19.33-11.29-7.35-5.71-12.99-13.22-19.97-19.37 1.06-3.84 1.76-7.76 2.54-11.67z"/><path fill="#939194" d="M198.09 180.81c2.16-3.29 6.46-1.08 9.49-.67l-1.82 2.27-2.08-1.4-2.85 2.99 5.76.66c-.08 2.17-1.3 3.78-3.33 4.58l3.19 1.13-4.04 5.88c2.61.34 5.25.55 7.88.39l.72 2.47-1.56-.75c-.46 1.73-.66 3.58-1.54 5.17-1.92 1.92-4.48 3-6.79 4.35-3.17-3.27-3.91-7.8-5.31-11.94 2.28-.49 1.23-4.45-.59-2.12 1.43-4.23 1.63-8.75 2.87-13.01m.62 16.92l-.47 4.14 2.55-1.9-2.08-2.24z"/><path fill="#484b54" d="M266.11 179.18l1.66-.49 1.16-.03c-1.72 2.63-3.94 4.93-6.97 5.98 1.28-1.9 2.62-3.76 4.15-5.46z"/><path fill="#b7b4b8" d="M207.58 180.14l.4-.49-.72 3.57 2.93-1.82c-.81 3.6-1.83 7.34-.76 11.02.86-2.38 1.6-4.8 2.28-7.23l1.47 1.32 2.43 2.17 2.26-2.17 1.05 1.68 2.53.47 1.85 4.26-.92 3.7-2.93-2.09c-2.35-1.78-5.09-2.9-7.89-3.74-.37 2.48-.02 4.96.87 7.29l4.65-2.12c-1.22 1.4-2.36 2.88-3.51 4.34l-2.56-1.19-.72-2.47c-2.63.16-5.27-.05-7.88-.39 1.31-1.99 2.67-3.94 4.04-5.88l-3.19-1.13c2.03-.8 3.25-2.41 3.33-4.58l-5.76-.66 2.85-2.99 2.08 1.4 1.82-2.27m.81 12.94c-.45 1.39.02 1.89 1.42 1.49.45-1.42-.02-1.92-1.42-1.49z"/><path fill="#6c6767" d="M232.48 182.02c2.28 1.96 4.4 4.1 6.32 6.42l.96 2.4 1.63 4.21c-1.84 3.44-4.21 6.7-4.99 10.59-.78 3.48-1.33 7.01-1.9 10.52l-.7-.42c.64-3.36 1.43-6.7 1.86-10.1-2.2 1.38-4.39 2.78-6.45 4.37-2.16 3-4.26 6.13-5.51 9.63-.64 1.78.49 3.5.96 5.17l2.25-.43c.63 3.95 1.65 7.89 3.77 11.33-1.79 1.37-1.81 3.8-2.47 5.77-.88 3.83-3.75 6.94-7.15 8.76 2.79-3.51 5.61-7.4 5.77-12.07.25-5.03-.93-10.97-5.47-13.87-1.73-.88-3.52-1.66-5.34-2.36l-1.22-.39-.24-2.98 6.73-.28c-1.71-.9-3.4-1.95-5.31-2.34-1.93-.38-3.29 1.33-4.77 2.22-.72-2.21-1.5-4.42-1.78-6.74.7-1.31 2.32-.3 3.46-.4 3.5.95 6.41-1.64 9.36-3.03l.17-8.51-.04-2.87.92-3.7.61-2.12c.49 2.69.85 5.4 1.15 8.11l2.44.88c.96-5.08.2-10.22-.87-15.21 1.82 1.49 3.67 3.04 4.88 5.1-.8 2.84-1.31 5.74-1.66 8.67l1.64 1.51 2.12-5.57 2.45-.97c-.93-3.85-2.48-7.51-3.58-11.3z"/><path fill="#584037" d="M132.35 185.08c2.35-2.09 5.48-1.97 8.34-1.21l2.34 1.49 2.77 2.09c-4.54-.26-9.81 1.19-13.45-2.37z"/><path fill="#e5e1d8" d="M230.13 183.33c1.45.09 2.4 2.19 1.58 3.37-1.7.98-3.57-2.75-1.58-3.37z"/><path fill="#53565d" d="M263.72 186.2l5.74-2.97c-.56 1.69-1.29 3.4-2.83 4.41-1.01-.4-1.95-.94-2.91-1.44z"/><path fill="#573932" d="M175.91 196.77c1-4.1 2.87-7.92 3.83-12.03 1.29 1.98 2.84 3.85 3.68 6.09-1.53 2.59-3.55 4.91-4.58 7.77-.55 1.49-1.05 2.99-1.57 4.48-.7-2.02-1.98-4.11-1.36-6.31z"/><path fill="#beb7bb" d="M148.18 188.34c.47-1.74 3.22-1.71 3.54.11-1.21.27-2.39.24-3.54-.11z"/><path fill="#a2948e" d="M174.36 186.51c.62 1.4 1.35 2.76 1.79 4.24l-1.93 2.73.14-6.97z"/><path fill="#514c4b" d="M229.85 198.35c.35-2.93.86-5.83 1.66-8.67l2.1 4.61-2.12 5.57-1.64-1.51z"/><path fill="#fdf8f2" d="M189.44 192.65c1.55 1.11 1.76 3.09 1.98 4.84l-2.13-.27c-.04-1.53.06-3.05.15-4.57z"/><path fill="#eeeae6" d="M195.22 193.82c1.82-2.33 2.87 1.63.59 2.12l-.59-2.12z"/><path fill="#fffcfb" d="M208.39 193.08c1.4-.43 1.87.07 1.42 1.49-1.4.4-1.87-.1-1.42-1.49z"/><path fill="#614841" d="M154.35 195.2c3.6-1.15 7.47-.39 11.17-.87l-1.18 1.55c-3.25.28-7.14 1.39-7.61 5.21-.71 3.26 2.68 4.78 5.21 5.54l1.42.54-.32 2.9c-4.11-1.82-9.08-2.47-12.23-5.91-2.69-3.15.13-7.8 3.54-8.96z"/><path fill="#837c79" d="M165.52 194.33l1.32-.65c.04 3.33-.14 6.84 1.2 9.97 1.41 1.05 3.02 1.76 4.57 2.59-.24 1.77-.36 3.56-.49 5.35l4.12-2.39.61.56c.07 4.5-.31 9-.33 13.5-.23 3.02.82 5.9 1.55 8.79l-.4 5.23c-.83-3.5-1.81-6.97-2.38-10.53.44-1.72-1.86-2.65-2.76-1.13-2.63 2.1-6.01 3.93-6.93 7.43.42 3.17 2.31 5.88 3.47 8.81-5.45-.77-8.61-5.78-9.14-10.91-.36-7.57 3.62-14.84 9.76-19.18-2.22-.56-4.47-1.01-6.65-1.7l.32-2.9 1.17-9.53c-1.41.93-2.85 1.82-4.13 2.92-.17 2.13.8 4.12 1.54 6.07-2.53-.76-5.92-2.28-5.21-5.54.47-3.82 4.36-4.93 7.61-5.21l1.18-1.55m4.5 18.81c-.24 2.81.15 7.35 3.7 7.68 2.03-2.13.68-5.19.2-7.66a507.02 507.02 0 0 1-3.9-.02m-6.92 12.89c-1.04 3.22-.71 6.64.04 9.88 2.4-4.57 3.31-10.17 7.2-13.81-.61-2.02-1.26-4.01-1.94-6-3.29 2.27-4.13 6.37-5.3 9.93z"/><path fill="#948f93" d="M217.08 195.96l2.37-1.43 2.93 2.09.04 2.87c-1.12.93-2.05 2.22-3.48 2.67-1.88-.33-3.63-1.11-5.37-1.86l3.51-4.34z"/><path fill="#838185" d="M189.29 197.22l2.13.27c.54 2.67.42 5.42.96 8.09 1.9 2.85 5.13 4.4 7.52 6.79-3.05-.51-6.03-1.34-8.95-2.35l-2.99 4.52c-.95-.69-1.87-1.4-2.78-2.14-1.7-1.39-3.36-2.82-5.15-4.09 1.16-1.74 2.28-3.51 3.39-5.28 1.95 1.52 4.08 2.77 6.2 4.04-.22-3.28-.35-6.57-.33-9.85z"/><path fill="#c3b9b2" d="M160.4 200.56c1.28-1.1 2.72-1.99 4.13-2.92l-1.17 9.53-1.42-.54c-.74-1.95-1.71-3.94-1.54-6.07z"/><path d="M198.71 197.73l2.08 2.24-2.55 1.9.47-4.14zm-24.3 9.92l4.83.24c.67 5.31-.18 10.63-2.72 15.37.02-4.5.4-9 .33-13.5l-.61-.56-1.83-1.55zm6.48 7.15c.59-1.87 2.69-2 4.29-2.4l2.78 2.14c2.29.58 4.66.72 7.01.9l.49 6.73.57-5.73 5.15.37c1.25 5.31 3.88 10.2 7.53 14.26-3.52 3.76-8.43 5.57-13.27 6.93l1.02-6.11c-1.59 1.26-3.21 2.49-4.61 3.94-2.52-.47-5.51-.17-7.39-2.23-2.13-2.25-5.03-4.6-4.96-7.98.04-3.62.05-7.4 1.39-10.82zm25.54-1.43c.68.73 1.18 1.57 1.49 2.5l1.7 9.47c-4.37-2.42-3.2-7.83-3.19-11.97z" fill="#fcf8f7"/><path fill="#c2b4a7" d="M179.24 207.89l.79.42c1.79 1.27 3.45 2.7 5.15 4.09-1.6.4-3.7.53-4.29 2.4-1.34 3.42-1.35 7.2-1.39 10.82-.07 3.38 2.83 5.73 4.96 7.98 1.88 2.06 4.87 1.76 7.39 2.23-1.45 1.72-2.62 4.91-5.46 4.02-2.94-2.39-4.81-5.77-7.1-8.73l-1.22.93c-.73-2.89-1.78-5.77-1.55-8.79 2.54-4.74 3.39-10.06 2.72-15.37z"/><path fill="#020202" opacity=".76" d="M223.7 219.64c1.25-3.5 3.35-6.63 5.51-9.63.5 3.82-.46 7.93 1.46 11.47l-3.76 2.9-2.25.43c-.47-1.67-1.6-3.39-.96-5.17z"/><path fill="#22242a" d="M276.46 209.78c2.12 1.21 3.06 3.49 3.97 5.63-5.73 2.71-10.02 7.86-16.14 9.88-8.41 3.27-17.71 1.29-25.53-2.64l-.12 8.23c.08-3.83-.52-7.61-1.56-11.28l-4.08.09c.23-.17.68-.52.9-.69-.07-1.09-.13-2.17-.1-3.26l.7.42 2.48.89c-.36 1.27.41 2.67 1.61 3.19.24.15.73.44.98.59 8.19 6.68 20.34 5.21 28.48-.76 3.76-2.53 6.05-6.54 8.41-10.29z"/><path fill="#ede9e4" d="M205.52 211.16c.95-1.19 3.33.16 2.32 1.54-.93 1.2-3.28-.21-2.32-1.54z"/><path fill="#a6a1a8" d="M170.02 213.14l3.9.02c.48 2.47 1.83 5.53-.2 7.66-3.55-.33-3.94-4.87-3.7-7.68z"/><path fill="#aba7ad" d="M203.22 218.13c-.77-2.32 1.94-3.37 3.21-4.76-.01 4.14-1.18 9.55 3.19 11.97l-1.7-9.47c3.26 2.57 2.07 7.45 4.82 10.38 1.62 1.88 3.12 3.92 3.55 6.45-6.54-2.31-10.78-8.3-13.07-14.57z"/><path fill="#aea9af" d="M163.1 226.03c1.17-3.56 2.01-7.66 5.3-9.93.68 1.99 1.33 3.98 1.94 6-3.89 3.64-4.8 9.24-7.2 13.81-.75-3.24-1.08-6.66-.04-9.88z"/><path fill="#c9beba" d="M211.21 218.17c1.48-.89 2.84-2.6 4.77-2.22 1.91.39 3.6 1.44 5.31 2.34l-6.73.28.24 2.98-1.73 1.48-1.86-4.86z"/><path fill="#bf8876" opacity=".92" d="M236.98 217.05c1.32-.2 2.39.19 3.19 1.15l-1.58 2.04c-1.2-.52-1.97-1.92-1.61-3.19z"/><path fill="#ccbcb5" d="M230.67 221.48l2.33-1.79 4.08-.09c1.04 3.67 1.64 7.45 1.56 11.28-2.54 1.79-5.16 3.48-7.96 4.83-2.12-3.44-3.14-7.38-3.77-11.33l3.76-2.9z"/><path fill="#9c989e" d="M214.8 221.55l1.22.39-.68 3.21c2.16 1.27 4.35 1.13 6.02-.85 4.54 2.9 5.72 8.84 5.47 13.87-.16 4.67-2.98 8.56-5.77 12.07-1.66.1-3.31.15-4.96.16l1.98-2.07c1.17-.94 2.63-1.6 3.51-2.85.74-3.61-.44-7.27-1.26-10.77-1.03-4.66-4.79-7.82-7.26-11.68l1.73-1.48z"/><path fill="#201f20" opacity=".83" d="M172.53 225.62c.9-1.52 3.2-.59 2.76 1.13l-2.76-1.13z"/><path fill="#fefefe" d="M179.29 231.12c2.29 2.96 4.16 6.34 7.1 8.73 2.84.89 4.01-2.3 5.46-4.02 1.4-1.45 3.02-2.68 4.61-3.94l-1.02 6.11-.59 3.78c4.91-.64 9.57-2.49 13.41-5.64l-1.37 6.63c-4.97 2.89-10.72 5.36-16.56 4.86-4.81-2.19-8.5-6.17-12.55-9.47l-.11-.88.4-5.23 1.22-.93z"/><path fill="#b9ab9d" d="M208.71 231.07c3.13 2.42 1.33 6.12.29 9.15l-2.11 2.55 1.37-6.63c-3.84 3.15-8.5 5-13.41 5.64l.59-3.78c4.84-1.36 9.75-3.17 13.27-6.93z"/><path fill="#545053" d="M216.4 234.1l3.93.61c.82 3.5 2 7.16 1.26 10.77-.88 1.25-2.34 1.91-3.51 2.85 1.9-2.02 3.01-4.57 3.41-7.3-4.86 1-8.64 4.4-13.04 6.47-3.04 1.47-5.63 3.77-8.78 5.01-2.98.26-5.98-.01-8.95-.33 8 .85 14.52-4.16 20.96-8.04 2.2-1.35 4.49-2.62 6.34-4.44-.33-1.92-1-3.76-1.62-5.6z"/><path fill="#948d94" d="M209 240.22l4.49-3.46c-1.1 2.32-1.83 4.8-1.81 7.38-6.44 3.88-12.96 8.89-20.96 8.04-3.36-.31-6.51-1.66-9.32-3.49-1.96-3.21-3.4-6.74-3.62-10.53 4.05 3.3 7.74 7.28 12.55 9.47 5.84.5 11.59-1.97 16.56-4.86.72-.83 1.41-1.69 2.11-2.55z"/></svg>