<svg xmlns="http://www.w3.org/2000/svg" width="512" height="512" viewBox="0 0 384 384" xmlns:v="https://vecta.io/nano"><path fill="#1d1b1c" d="M181.27 123.24c4.36-1.07 9.03-.08 13.29 1.07 5.89 3.23 10.15 8.68 15.63 12.49 2.3 1.65 5.31 1.18 7.98 1.43-.99 3.1-1.87 6.24-3.12 9.24l-1.56 1.12c-2.43-3.87-3.64-8.81-7.68-11.42-3.53-2.49-7.3-4.64-10.81-7.17-3.46-2.98-8.06-3.84-12.5-3.17-.96-1.02-2.39-2.12-1.23-3.59m30.52 15.57c.11 2.72 2.4 3.78 4.73 4.3.11-2.9-2.23-3.99-4.73-4.3z"/><path fill="#353333" opacity=".95" d="M182.5 126.83c4.44-.67 9.04.19 12.5 3.17l-2.53.67-4.49-1.66-.81 2.04c-1.58-1.39-3.16-2.77-4.67-4.22z"/><path fill="#181618" opacity=".98" d="M261.14 128.73l1.3-.74c7.13 5.71 10 15.06 10.68 23.86l-1.63-.38c.13 5.2-.33 10.52-2.5 15.32l-.34-1.03c.36-5.25 1.88-10.44 1.26-15.73-.49-7.4-3.01-14.76-7.93-20.4l-.84-.9z"/><path d="M187.98 129.01l4.49 1.66.24 2.53.24 3.11-1.16 2.03-4.71-1.34 4.57-.07c-.99-2.05-2.22-3.99-3.99-5.44l-.49-.44.81-2.04zm51.96 33.07c.67-2.23 1.79-4.37 3.96-5.44a17.16 17.16 0 0 1-3.96 5.44zm-43.85 49.13l4.3-1.68 1.59 4.68-5.11.47-.78-3.47z" fill="#a6a1a5"/><path fill="#262524" d="M237.07 141.76c8.03-4.32 16.32-8.19 24.07-13.03l.84.9c-8.53 3.84-16.81 8.27-24.81 13.11 6.09 5.31 12.76 9.95 18.44 15.71l-.24 3.13-2.79.09c1.48 1.98 3 3.92 4.55 5.84a158.16 158.16 0 0 0-6.42-2.53c2.23 2.32 4.65 4.45 7.28 6.32l5.1 3.84c2.15-2.94 4-6.09 5.56-9.38l.34 1.03.23 2.9 1.74-.7c-.85 2.99-1.83 5.96-2.9 8.88.25 1.28.54 2.55.63 3.86-1.52 2.41-4.01 3.98-5.67 6.28-2.57 3.46-4.87 7.13-6.89 10.94l.17-2.87-7.18 4.38c2.64-2.83 5.27-5.73 7.27-9.08 1.87-3.13 2.58-6.75 3.57-10.22l-4.69-1.68a24.14 24.14 0 0 1-4.23-2.4c-1.83-1.69-4.06-2.81-6.43-3.49-6.28-4.14-11.65-9.52-18.34-13.06-.3-1.22-2.32-2.2-2.58-.39-1.92-1.78-4.12-3.2-6.37-4.51 4.01-6.06 1.68-13.55 3.03-20.28l4.89 3.53 1.93 1.34-2.41 8.08-2.88-7.66c-.91 3.79-1.09 7.69-.95 11.57 3.54.45 7.13-.16 10.12-2.19-.22 1.16 1.16 2.44 2.12 1.33.93-.9.03-2.22-1.03-2.41 1.09-2.94 1.63-6.04 2.19-9.11l2.74 1.93m2.87 20.32a17.16 17.16 0 0 0 3.96-5.44c-2.17 1.07-3.29 3.21-3.96 5.44m6.93 4.99c2.28-1.25 3.62-3.45 4.3-5.9-2.01 1.51-3.67 3.42-4.3 5.9z"/><path fill="#5d5959" d="M192.47 130.67L195 130c3.51 2.53 7.28 4.68 10.81 7.17 4.04 2.61 5.25 7.55 7.68 11.42-2.59 1.5-4.49-1.18-6.29-2.67-1.24-3.18-2.77-6.63-6.09-8.1l-1.14-2.18c-2.24-1.27-4.76-1.92-7.26-2.44l-.24-2.53z"/><path fill="#dc9672" d="M173.44 137.68c3.16-4.71 9.11-5.35 14.22-6.19 1.77 1.45 3 3.39 3.99 5.44-1.53.05-3.05.08-4.57.07-2.17-.33-4.41-1.04-6.6-.6-2.5 1.38-4.38 3.58-6.41 5.52l-.63-4.24z"/><path fill="#777272" d="M192.71 133.2c2.5.52 5.02 1.17 7.26 2.44-1.68.71-.21 2.55 1.14 2.18 3.32 1.47 4.85 4.92 6.09 8.1l.37 1.27c-2.29-1.01-4.53-2.1-6.79-3.16l3.78-.3c-2.91-2.75-7.16-1.97-10.8-2.09l4.43-1.38-5.69-1.72-.71-.2.79-.28.37-1.75-.24-3.11z"/><path fill="#6d5041" d="M180.48 136.4c2.19-.44 4.43.27 6.6.6l4.71 1.34.71.2-7.15-.11c-6.9-.81-10.17 6.37-11.85 11.84-.42-4.19-.54-8.41-.06-12.59l.63 4.24c2.03-1.94 3.91-4.14 6.41-5.52z"/><path fill="#f5ebdf" d="M191.79 138.34l1.16-2.03-.37 1.75-.79.28z"/><path fill="#dbd3cc" d="M201.11 137.82c-1.35.37-2.82-1.47-1.14-2.18l1.14 2.18z"/><path fill="#565253" d="M218.17 138.23c.67-1 1.42-1.94 2.18-2.88-1.35 6.73.98 14.22-3.03 20.28l-2.12 2.5-.78 1.34c.43-1.98.78-3.97 1.18-5.95l-3.24-.73c1.53-1.89 3.05-3.78 4.49-5.75l-1.8.43c1.25-3 2.13-6.14 3.12-9.24z"/><path fill="#a99790" d="M173.5 150.27c1.68-5.47 4.95-12.65 11.85-11.84-2.7 1.84-5.72 3.47-7.62 6.22-1.57 2.24-1.81 5.05-2.3 7.66 5.37-4.69 11.19-9.18 18.33-10.67 3.64.12 7.89-.66 10.8 2.09l-3.78.3c-3.95-.03-7.97.22-11.65 1.73-5.26 2.7-12.23 5.79-12.62 12.59-.38 5.23-1.54 11.06 1.18 15.83 1.4 2.83 4.89 1.46 7.23.85 5.11-1.93 10.08-4.61 15.69-4.7-1.16 2.3-3.38 3.63-5.54 4.84-5.61 3.82-12.69 2.69-18.67 5.35-.89.89-1.74 1.82-2.59 2.75.77-5.09.63-10.21.01-15.3.54-3.65 1.13-7.29 1.44-10.96l-1.3-2.02-.46-4.72z"/><path fill="#0c0e10" d="M225.24 138.88c3.05-.4 6.44-1.13 9.09.95-.56 3.07-1.1 6.17-2.19 9.11l-1.09 1.08c-2.99 2.03-6.58 2.64-10.12 2.19-.14-3.88.04-7.78.95-11.57 1.03 2.52 1.95 5.09 2.88 7.66l2.41-8.08-1.93-1.34z"/><path fill="#373a39" d="M177.73 144.65c1.9-2.75 4.92-4.38 7.62-6.22l7.15.11 5.69 1.72-4.43 1.38c-7.14 1.49-12.96 5.98-18.33 10.67.49-2.61.73-5.42 2.3-7.66z"/><path fill="#45464a" d="M211.79 138.81c2.5.31 4.84 1.4 4.73 4.3-2.33-.52-4.62-1.58-4.73-4.3z"/><path fill="#040404" opacity=".71" d="M248.15 139.82c2.82 1.77 5.58 3.84 7.17 6.85 4.4 7.39 4.63 16.44 2.67 24.63-2.63-1.87-5.05-4-7.28-6.32a158.16 158.16 0 0 1 6.42 2.53c-1.55-1.92-3.07-3.86-4.55-5.84l2.79-.09.24-3.13c1.46-7.27-3.23-13.32-7.46-18.63z"/><path fill="#4d545a" d="M189.13 145.76c3.68-1.51 7.7-1.76 11.65-1.73l6.79 3.16.78 2.95-4.65.18.66 2.62c-.72.63-1.43 1.27-2.13 1.93l-3.95-2a3.14 3.14 0 0 1-.25-.14l.01.03a188.27 188.27 0 0 1 1.13 5.75l-3.42-1.11-2.76-4.48-3.84-1.16-.02-6m7.08 9.47c.59.59.59.59 0 0z"/><path fill="#3f4343" d="M176.51 158.35c.39-6.8 7.36-9.89 12.62-12.59l.02 6 3.84 1.16 2.76 4.48 3.42 1.11-1.13-5.75.24.11 3.95 2c.7-.66 1.41-1.3 2.13-1.93l-.66-2.62 4.65-.18c1.28 5.23-4.23 9.01-5.42 13.83-.78 2.12-1.46 4.27-2.32 6.36-5.61.09-10.58 2.77-15.69 4.7-2.34.61-5.83 1.98-7.23-.85-2.72-4.77-1.56-10.6-1.18-15.83z"/><path fill="#8b8689" d="M207.57 147.19l-.37-1.27c1.8 1.49 3.7 4.17 6.29 2.67l1.56-1.12 1.8-.43-4.49 5.75 3.24.73-1.18 5.95-1.66 5.18c-.77 2.5-.86 5.14-.66 7.73l4.57 1.13c4.12 1.33 7.91 3.47 11.76 5.39-1.77-2.7-3.53-5.42-5.42-8.03l.67-1.6c.86-1.96 1.72-3.93 2.44-5.94.08 3.17-.35 6.57 1.01 9.54 1.74 2.18 4.49 3.18 6.87 4.49l-.95 3.76c-.69-.65-1.39-1.27-2.1-1.87l-2.05-1.68c.34 1.69.7 3.4 1.21 5.06l-2.5-.41c1.4 5.07 2.83 10.87-.63 15.49l-2.31-6.59 2.66-1.21-4.63-.53c-.17-3.2.45-6.37 1.86-9.25l-5.7-1-2.11 5.69-5.4-2.4-.28 2.22-.65-.41c-2.12-2.51.66-4.74 1.89-6.87-1.36-1.54-3.28-2.35-5.23-2.85 1.03-.72 2.01-1.49 2.99-2.26l-2.73-.66-1.98 2.64c-1.73-3.13-2.95-6.63-2.43-10.26 1.19-4.82 6.7-8.6 5.42-13.83-.24-.99-.51-1.97-.78-2.95m-2.46 22.59l3.42-.04c.04-2.76.18-5.51.28-8.27-3.56.84-2.99 5.48-3.7 8.31z"/><path fill="#5a595b" d="M232.14 148.94c1.06.19 1.96 1.51 1.03 2.41-.96 1.11-2.34-.17-2.12-1.33l1.09-1.08z"/><path d="M271.49 151.47l1.63.38c.23 5.78-.65 11.56-2.16 17.14l-1.74.7-.23-2.9c2.17-4.8 2.63-10.12 2.5-15.32zm-70.88 18.86l2.32-6.36c-.52 3.63.7 7.13 2.43 10.26l1.72.28c1.95.5 3.87 1.31 5.23 2.85-4.68-.66-9.37-1.23-14.1-1.29-.49 3.26-1.16 6.49-1.78 9.74-.98 4.54.59 9.1 1.88 13.42.83 1.65 1.74 3.26 2.59 4.91 2.45-.85 5.14-1.35 7.27-2.92 1.32-2.22 1.87-4.79 2.41-7.28.41 1.28.87 2.54 1.33 3.81l1.16-.76c2.04.81 4.03 1.88 6.24 2.1 2.82-1.45 3.38-5.09 4.77-7.7l.59-.27 2.31 6.59c.28.76.59 1.5.91 2.24 1.77-1.93 3.86-3.69 5.03-6.07.42-2.43-.04-4.9-.24-7.33-.09-2.52-.4-5.1-1.73-7.3.71.6 1.41 1.22 2.1 1.87 2.04 2.13 4.12 4.68 4.09 7.81.26 5.29-3.16 9.66-5.18 14.28l-.98 2.12-1.19 2.68c-2.54.42-5.06.93-7.56 1.53l1.47 1.59.69.73-2.25-.07-.52-2.44-3.25.1c-1.97.05-3.94.19-5.9.36-.05 1.9-.16 3.81-.09 5.72-1.79-.82-2.86-2.57-3.5-4.36l.13-1.65-5.27 2.3c.51 2.19.87 4.46 1.86 6.51 2.02 3.79 4.29 8 8.44 9.77 1.59.79 3.1-.6 4.57-1.07 1.75 2.34 1.6 5.36 1.82 8.12l-2.28.5-5.46-.07c.32-3.3-1.99-5.66-3.94-7.99-2.75-4.18-5.28-8.57-6.77-13.38l-1.59-4.68-.8-2.43-4.61.01c-4.08-5.14-5.48-11.77-5.93-18.16.33-5.1 3.1-9.72 6.02-13.78 2.16-1.21 4.38-2.54 5.54-4.84m-10.44 15.84c.13 3.34 3-1.51 0 0m-.04 2.35c-.9.84-.06 3.14 1.29 2.41.87-.8-.04-3.09-1.29-2.41m17.94 14.81c-1.55 3 3.31.17 0 0m11.33.77c.16 3.31 2.99-1.55 0 0z" fill="#726e6f"/><path fill="#f6fdff" d="M198.03 152.73a3.14 3.14 0 0 0 .25.14l-.24-.11-.01-.03z"/><path fill="#352f2d" opacity=".56" d="M173.96 154.99l1.3 2.02-1.3-2.02z"/><path d="M196.21 155.23c.59.59.59.59 0 0zm6.08 44.06c.55.54.55.54 0 0z" fill="#fff"/><path fill="#040302" opacity=".76" d="M215.2 158.13l2.12-2.5c2.25 1.31 4.45 2.73 6.37 4.51l.65.59-.44 6.41-3.24-4.32-1.57-1.6-3.89-3.09z"/><path fill="#df9f7e" d="M214.42 159.47l.78-1.34 3.89 3.09-1.61 5.36-4.72-1.93 1.66-5.18z"/><path fill="#9c9da2" opacity=".93" d="M223.69 160.14c.26-1.81 2.28-.83 2.58.39l-1.93.2-.65-.59z"/><path fill="#473931" d="M219.09 161.22l1.57 1.6-.83 3.93c-.86 2.34-2 4.56-3.16 6.76l-4.57-1.13c-.2-2.59-.11-5.23.66-7.73l4.72 1.93 1.61-5.36z"/><path fill="#5a5555" opacity=".82" d="M224.34 160.73l1.93-.2-.15 2.8-2.44 5.94.22-2.13.44-6.41z"/><path opacity=".75" d="M226.27 160.53c6.69 3.54 12.06 8.92 18.34 13.06 2.09 1.79 4.17 3.62 6.38 5.27l.05-1.78a24.14 24.14 0 0 0 4.23 2.4c-.11 1.83.26 3.99-1.22 5.4-4.51 4.75-8 10.33-12.5 15.09l2.37 3.44c-3.65.84-7.38 1.19-11.03 2.01 4.04.93 8.2.81 12.29.27l-.92 3.53c-.9 1.87-2.38 3.37-3.65 4.98-2.84-.43-5.42-1.7-8-2.88-.69-1.96-1.34-3.93-1.63-5.99l.98-2.12c2.64-1.78 5-3.97 6.76-6.63 5.93-1.63 8.17-7.79 9.4-13.19-4.53-1.87-8.67-4.71-13.52-5.74l-.6-.29c-2.38-1.31-5.13-2.31-6.87-4.49-1.36-2.97-.93-6.37-1.01-9.54l.15-2.8z"/><path d="M246.87 167.07c.63-2.48 2.29-4.39 4.3-5.9-.68 2.45-2.02 4.65-4.3 5.9zm-54.91 39.84l3.02.2 4.61-.01.8 2.43-4.3 1.68.78 3.47-4.5.41-1.39-1.41c2.34-1.78 2.04-4.38.98-6.77z" fill="#939096"/><path d="M205.11 169.78c.71-2.83.14-7.47 3.7-8.31l-.28 8.27-3.42.04zm-22.45 43.68c1.55.48 3.48.79 4.2 2.49 1.8 3.56 1.25 7.7 1.1 11.55l-.61-1.97c-.9-2.97-1.79-5.95-2.92-8.84a45.7 45.7 0 0 0-1.77-3.23zm14.21 1.22l5.11-.47c1.49 4.81 4.02 9.2 6.77 13.38l-1.72 6.04-6.17-3.57 2.53 5.29-1.28-.46c-3.34-1.45-7.35-2.09-9.91-4.85-2.28-4.46-2.76-9.58-2.92-14.51l3.09-.44c1.49-.17 2.99-.29 4.5-.41z" fill="#faf6f4"/><path fill="#ad7c64" opacity=".97" d="M219.83 166.75l.83-3.93 3.24 4.32-.22 2.13-.67 1.6-3.18-4.12z"/><path fill="#6a6260" d="M219.83 166.75l3.18 4.12 5.42 8.03c-3.85-1.92-7.64-4.06-11.76-5.39 1.16-2.2 2.3-4.42 3.16-6.76z"/><path d="M170.13 172.61l3.69-4.64c.62 5.09.76 10.21-.01 15.3-.02 1.42.02 2.85.07 4.28.08 2.33.22 4.67.35 7.01l.3 7.63.27 1.54c1.13 4.35 3.08 8.43 5.65 12.11l-2.05 1.87-3.24-2.86c-.41-2.83-.92-5.65-1.45-8.46l-5.07.22c-.09-2.34-.36-4.67-.52-7l-.2-2.82c-5.37-.06-10.75.16-16.12.42 5.07-.53 10.15-.92 15.25-1.03-.59-3.65-1.97-7.03-5.24-9.02l4.37.36c.44-2.13.67-4.4 1.88-6.26 1.17-1.05 2.55-1.82 3.87-2.67l.8-5.36-2.6-.62zm73.79 30.8l3.2-1.06-2.86 6.87.92-3.53c-4.09.54-8.25.66-12.29-.27 3.65-.82 7.38-1.17 11.03-2.01z" fill="#492b1b"/><path d="M207.34 171.59l2.73.66-2.99 2.26-1.72-.28 1.98-2.64zm8.21 41.24a13.51 13.51 0 0 1 2.64 9.85l-2.35.55c-.8-1.29-1.46-2.64-2.08-4l1.79-6.4z" fill="#fefcfb"/><path fill="#aaa19a" d="M168.08 175.11l2.05-2.5 2.6.62-.8 5.36-6.6 1.35 2.75-4.83z"/><path fill="#070706" opacity=".39" d="M244.61 173.59c2.37.68 4.6 1.8 6.43 3.49l-.05 1.78-6.38-5.27z"/><path fill="#6e4f46" d="M160.27 181.54c1.77-2.96 5.36-4.11 7.81-6.43-.95 1.59-1.83 3.22-2.75 4.83l6.6-1.35c-1.32.85-2.7 1.62-3.87 2.67-1.21 1.86-1.44 4.13-1.88 6.26l-4.37-.36c-1.31-1.53-2.76-3.59-1.54-5.62z"/><path fill="#da9778" d="M176.4 180.52c5.98-2.66 13.06-1.53 18.67-5.35-2.92 4.06-5.69 8.68-6.02 13.78.45 6.39 1.85 13.02 5.93 18.16l-3.02-.2c-1.6-.29-3.17-.68-4.74-1.11-1.62-.45-3.25-.86-4.89-1.24-2.41-3.6-1.06-7.75.02-11.53-1.11-1.53-2.22-3.05-3.25-4.63-1.06-2.57-1.85-5.24-2.7-7.88z"/><path fill="#99979b" d="M198.21 176.07c4.73.06 9.42.63 14.1 1.29-1.23 2.13-4.01 4.36-1.89 6.87.61 1.26 1.25 2.5 1.9 3.74l-1.47 1.32-2.33-.32c.28-4 .02-8.06-1.71-11.74-.42 2.84-.48 5.72-.49 8.59.12 2.63-1.61 4.75-3 6.8-.57.81-1.14 1.62-1.66 2.46-2.06-2.42-3.98 1.24-1.71 2.63l-1.64 1.52c-1.29-4.32-2.86-8.88-1.88-13.42.62-3.25 1.29-6.48 1.78-9.74m.86 9.19c-1.54 2.99 3.32.14 0 0z"/><path fill="#adabb0" d="M206.32 185.82c.01-2.87.07-5.75.49-8.59 1.73 3.68 1.99 7.74 1.71 11.74-.44 3.02 2.86 4.23 5.35 4.22 2.21-.16 4.34-.82 6.49-1.33-2.64-2.95-5.84-5.31-9.29-7.22l.28-2.22 5.4 2.4 2.11-5.69 5.7 1c-1.41 2.88-2.03 6.05-1.86 9.25l4.63.53-2.66 1.21-.59.27c-4.02 1.1-7.81 2.9-11.01 5.6l-1.16.76-1.33-3.81-.18-.73-7.08-.59c1.39-2.05 3.12-4.17 3-6.8z"/><path fill="#eae6dc" d="M228.9 177.57l2.05 1.68c1.33 2.2 1.64 4.78 1.73 7.3l-2.57-3.92c-.51-1.66-.87-3.37-1.21-5.06z"/><path fill="#5f5c5b" d="M234 177.36l.6.29c2.27 4.08 5.49 7.77 6.74 12.32-.51 2.33-1.61 4.47-2.62 6.61-1.76 2.66-4.12 4.85-6.76 6.63 2.02-4.62 5.44-8.99 5.18-14.28.03-3.13-2.05-5.68-4.09-7.81l.95-3.76z"/><path fill="#6e5f5b" d="M173.81 183.27l2.59-2.75 2.7 7.88c-1.35 4.54-1.62 9.28-1.98 13.98-.07-2-2.3-2.22-2.59-.19-.16-2.54-.19-5.09-.3-7.63.63-1.16 1.3-2.29 1.81-3.5-.6-1.24-1.4-2.37-2.16-3.51-.05-1.43-.09-2.86-.07-4.28z"/><path fill="#585353" d="M227.61 182.22l2.5.41 2.57 3.92c.2 2.43.66 4.9.24 7.33-1.17 2.38-3.26 4.14-5.03 6.07l-.91-2.24c3.46-4.62 2.03-10.42.63-15.49z"/><path fill="#fff9f4" d="M199.07 185.26c3.32.14-1.54 2.99 0 0z"/><path d="M210.42 184.23l.65.41c3.45 1.91 6.65 4.27 9.29 7.22-2.15.51-4.28 1.17-6.49 1.33-2.49.01-5.79-1.2-5.35-4.22l2.33.32 1.47-1.32-1.9-3.74zm-45.31 36.63l8.15 1.47-5.41.51-.89-.08-1.85-1.9z" fill="#eee8ec"/><path fill="#dedbd9" d="M190.17 186.17c3-1.51.13 3.34 0 0z"/><path fill="#a2948e" d="M173.88 187.55l2.16 3.51c-.51 1.21-1.18 2.34-1.81 3.5l-.35-7.01z"/><path fill="#fefcfa" d="M190.13 188.52c1.25-.68 2.16 1.61 1.29 2.41-1.35.73-2.19-1.57-1.29-2.41z"/><path fill="#453631" d="M177.12 202.38c.36-4.7.63-9.44 1.98-13.98 1.03 1.58 2.14 3.1 3.25 4.63-1.08 3.78-2.43 7.93-.02 11.53-2.08 1.28-4 .58-5.32-1.36l.11-.82z"/><path fill="#8d898e" d="M213.07 196.99c3.2-2.7 6.99-4.5 11.01-5.6-1.39 2.61-1.95 6.25-4.77 7.7-2.21-.22-4.2-1.29-6.24-2.1z"/><path fill="#8c898b" d="M201.66 195.08l1.66-2.46 7.08.59.18.73c-.54 2.49-1.09 5.06-2.41 7.28-2.13 1.57-4.82 2.07-7.27 2.92l-2.59-4.91 1.64-1.52a7.43 7.43 0 0 0 1.71-2.63m.63 4.21c.55.54.55.54 0 0z"/><path fill="#e4ddd8" d="M199.95 197.71c-2.27-1.39-.35-5.05 1.71-2.63a7.43 7.43 0 0 1-1.71 2.63z"/><path fill="#f9b592" d="M249.12 200.46l7.18-4.38-.17 2.87c-2.62 4.36 3.59 8.34.78 12.53-1.98-4.17-5.11-7.64-9.33-9.58l1.54-1.44z"/><path fill="#7e716b" opacity=".98" d="M136.56 198.11l3.42-.79 1.54 2.39c-1.87 1.59-4.2 2.95-5.21 5.3.43 1.77 1.19 3.44 1.82 5.16l-2.07 1.76-1.84-1.7c.83-3.7 1.47-7.45 2.12-11.19l.22-.93z"/><path fill="#ccc2bc" d="M139.98 197.32l4.36-.03c.56 4.73-1.02 9.28-2.34 13.75l-3.45.38a61.15 61.15 0 0 1-.42-1.25c-.63-1.72-1.39-3.39-1.82-5.16 1.01-2.35 3.34-3.71 5.21-5.3l-1.54-2.39z"/><path fill="#847b79" d="M144.34 197.29l7.46-.08c5.37-.26 10.75-.48 16.12-.42l.2 2.82c-2.19-.21-4.78-.84-6.48 1.02-4.15 3.18-4.07 8.8-3.92 13.51-.62-2.06-1.14-4.15-1.56-6.26.22-2.76 1.27-5.36 2.25-7.92-2.92.19-5.9.07-8.75.81-2.2.63-2.22 3.36-2.97 5.12l-1.33 4.25c-.45 1.29-.93 2.56-1.41 3.84l-4.18.82-.94.01-1.1-.99c.29-.8.57-1.59.82-2.4l3.45-.38c1.32-4.47 2.9-9.02 2.34-13.75z"/><path fill="#85645d" d="M122.4 202.86c1.22-1.68 2.41-3.86 4.67-4.22 3.15-.41 6.34-.05 9.49-.53l-.22.93c-1.12 1.38-2.4 2.64-3.35 4.15-.78 1.85-.26 3.93-.07 5.86-3.28-1.07-6.63-1.89-9.98-2.73l-.54-3.46z"/><path fill="#c6bcb7" d="M161.64 200.63c1.7-1.86 4.29-1.23 6.48-1.02l.52 7c-.28 3.57-.91 7.1-1.43 10.64l-2.22 1.38a24.82 24.82 0 0 1-7.27-4.49c-.15-4.71-.23-10.33 3.92-13.51z"/><path fill="#b6aaa2" d="M132.99 203.19c.95-1.51 2.23-2.77 3.35-4.15-.65 3.74-1.29 7.49-2.12 11.19a72.74 72.74 0 0 1-1.3-1.18c-.19-1.93-.71-4.01.07-5.86z"/><path fill="#d1c8c3" d="M149.66 200.77c2.85-.74 5.83-.62 8.75-.81-.98 2.56-2.03 5.16-2.25 7.92l-.17 2.2-2.81.42-2.5-3.77-2.2 1.88-1.79-2.72c.75-1.76.77-4.49 2.97-5.12z"/><path fill="#ae9f98" d="M174.53 202.19c.29-2.03 2.52-1.81 2.59.19l-.11.82-2.21.53-.27-1.54z"/><path fill="#d0c3be" d="M247.12 202.35l.46-.45c4.22 1.94 7.35 5.41 9.33 9.58-2.36 3.23-5.6 5.6-8.62 8.16-2.97-1.19-5.86-2.71-7.68-5.44 1.27-1.61 2.75-3.11 3.65-4.98 1.13-2.21 1.98-4.55 2.86-6.87z"/><path fill="#594339" d="M123.52 209.47c-1.71-1.76-1.24-4.4-1.12-6.61l.54 3.46c3.35.84 6.7 1.66 9.98 2.73a72.74 72.74 0 0 0 1.3 1.18l1.84 1.7 2.07-1.76.42 1.25c-.25.81-.53 1.6-.82 2.4l1.1.99c-2.6-.07-5.17-.47-7.69-1.05-2.63-1.24-5.54-2.17-7.62-4.29z"/><path fill="#665e5f" d="M174.8 203.73l2.21-.53c1.32 1.94 3.24 2.64 5.32 1.36l4.89 1.24-.38 5.8-5.98 1.34 1.8.52 1.77 3.23c-9.33 2.77-10.66 14.12-9.66 22.35-1.87-4.86-1.37-10.11-.76-15.15l-6.16-1.05c1.8-.13 3.61-.32 5.41-.51-2.7-.61-5.42-1.06-8.15-1.47l1.85 1.9-1.85-.19c-5.07-1.42-9.36-4.66-14.31-6.39-3.53-1.24-7.33-1.39-11.03-1.38 1.39-.25 2.79-.53 4.18-.82l1.41-3.84c3.14 2.24 6.75 3.65 10.45 4.7l.18-4.76.17-2.2c.42 2.11.94 4.2 1.56 6.26a24.82 24.82 0 0 0 7.27 4.49c2.12-.13 4.24-.37 6.35-.58 1.23.66 2.44 1.34 3.72 1.9 1.27-.49 2.3-1.4 3.34-2.24l2.05-1.87c-2.57-3.68-4.52-7.76-5.65-12.11z"/><path fill="#e8dfd8" d="M208.07 203.33c3.31.17-1.55 3 0 0z"/><path fill="#dbd5d6" d="M219.4 204.1c2.99-1.55.16 3.31 0 0z"/><path fill="#635b5c" d="M229.79 208.01l1.19-2.68c.29 2.06.94 4.03 1.63 5.99-2.97-.22-5.94-.09-8.91-.19l-1.47-1.59 7.56-1.53z"/><path fill="#b2a7a3" d="M146.69 205.89l1.79 2.72 2.2-1.88 2.5 3.77 2.81-.42-.18 4.76c-3.7-1.05-7.31-2.46-10.45-4.7l1.33-4.25z"/><path fill="#90837e" d="M168.64 206.61l5.07-.22 1.45 8.46-3.09-.54-.73 3.74-6.35.58 2.22-1.38c.52-3.54 1.15-7.07 1.43-10.64z"/><path fill="#7c7679" d="M187.22 205.8l4.74 1.11c1.06 2.39 1.36 4.99-.98 6.77l-4.14-2.08.38-5.8z"/><path fill="#cabdb7" d="M212.47 209.81l5.9-.36c0 4.27 2.37 8.02 2.77 12.2a23.97 23.97 0 0 1-2.95 1.03 13.51 13.51 0 0 0-2.64-9.85l-1.79 6.4c-.54-1.21-1.04-2.43-1.38-3.7-.07-1.91.04-3.82.09-5.72z"/><path fill="#e3dbd7" d="M218.37 209.45l3.25-.1.52 2.44c.31 2.02.4 4.07.59 6.11l.05 1.49.02.87c-1.17 5.24 1.91 10.64-.48 15.69l-.49-6.14-1.4 5.34c-.22-2.76-.07-5.78-1.82-8.12l-2.77-3.8 2.35-.55a23.97 23.97 0 0 0 2.95-1.03c-.4-4.18-2.77-7.93-2.77-12.2z"/><path fill="#c0bdc1" d="M203.74 211.82l5.27-2.3-.13 1.65c-.54 4.2 1.59 8.06 2.53 12.04-2.02-1.52-4.03-3.07-5.81-4.88-.99-2.05-1.35-4.32-1.86-6.51z"/><path fill="#9c999d" d="M211.41 223.21c-.94-3.98-3.07-7.84-2.53-12.04.64 1.79 1.71 3.54 3.5 4.36.34 1.27.84 2.49 1.38 3.7.62 1.36 1.28 2.71 2.08 4 .89 1.28 1.86 2.52 2.77 3.8-1.47.47-2.98 1.86-4.57 1.07-4.15-1.77-6.42-5.98-8.44-9.77 1.78 1.81 3.79 3.36 5.81 4.88z"/><path fill="#898489" d="M223.7 211.13l8.91.19c2.58 1.18 5.16 2.45 8 2.88 1.82 2.73 4.71 4.25 7.68 5.44l-1.06 1.57c-1.65-.01-3.36 1.08-3.47 2.84l-1.5 8.08c-1.36 3.49-4.39 5.74-7.96 6.65.94-2.22 2.03-4.37 2.99-6.58.04-1.48-.22-3.02-1.15-4.22-3.09-4.54-8.33-6.89-13.36-8.59l-.05-1.49-.04-2.12c2.25.29 4.5.6 6.74.99l.58-4.56-1.97-.15-1.76-.09-1.89-.11-.69-.73m8.16 3.03l-.82 5.67 4.43-2.32.24-2.28-3.85-1.07z"/><path fill="#bbaea2" d="M180.86 212.94l5.98-1.34 4.14 2.08 1.39 1.41-3.09.44c.16 4.93.64 10.05 2.92 14.51 2.56 2.76 6.57 3.4 9.91 4.85 1.15 1.38 2.18 2.85 3.21 4.32-4.97-.76-9.18-3.61-13.39-6.14a8.36 8.36 0 0 1-3.97-5.57c.15-3.85.7-7.99-1.1-11.55-.72-1.7-2.65-2.01-4.2-2.49l-1.8-.52z"/><path fill="#afa9af" d="M222.14 211.79l2.25.07 1.89.11-1.83 2.55 4.42.39-.83-2.85 1.97.15-.58 4.56-6.74-.99.04 2.12-.59-6.11z"/><path fill="#e2dbe0" d="M226.28 211.97l1.76.09.83 2.85-4.42-.39 1.83-2.55z"/><path fill="#c2b6b2" d="M172.07 214.31l3.09.54 3.24 2.86c-1.04.84-2.07 1.75-3.34 2.24-1.28-.56-2.49-1.24-3.72-1.9l.73-3.74z"/><path fill="#bbb6bc" d="M231.86 214.16l3.85 1.07-.24 2.28-4.43 2.32.82-5.67z"/><path fill="#979399" d="M184.43 216.69c1.13 2.89 2.02 5.87 2.92 8.84-5.51 3.35-7.96 10.31-5.88 16.39l6.02 4.85c-4.01 1.14-7.89-.51-10.43-3.67l-.7-1.66-.86-.17-.73-2.23c-1-8.23.33-19.58 9.66-22.35z"/><path fill="#3c3b3e" d="M222.78 219.39c5.03 1.7 10.27 4.05 13.36 8.59.93 1.2 1.19 2.74 1.15 4.22-2.55 1.04-4.86 2.57-7 4.28.87-3.58 3.75-7.94.43-11.09-.82-.87-1.7-1.71-2.55-2.54-1.29 2.78-2.57 5.57-4.04 8.27.4-2.68.95-5.33 1.58-7.96l-2.91-2.9-.02-.87z"/><path fill="#9a979e" d="M222.8 220.26l2.91 2.9-1.58 7.96 4.04-8.27 2.55 2.54c-1.78 2.17-3.21 4.61-4.07 7.29-1.39 4.3-3.12 8.49-5.52 12.33-4.35 1.43-8.42 4.31-13.19 3.85-6.19-.02-10.91-4.76-14.14-9.56 5.01 3.53 11.06 5.34 17.15 5.66-1.72.71-3.47 1.32-5.22 1.92 4.41.26 9.12-.52 12.37-3.77 1.21-.88 1.05-2.48 1.28-3.79a55.39 55.39 0 0 0 2.94-3.37c2.39-5.05-.69-10.45.48-15.69z"/><path fill="#49423f" opacity=".8" d="M243.76 224.05c.11-1.76 1.82-2.85 3.47-2.84-.6 1.42-1.65 3.17-3.47 2.84z"/><path fill="#635f65" d="M181.47 241.92c-2.08-6.08.37-13.04 5.88-16.39l.61 1.97a8.36 8.36 0 0 0 3.97 5.57c.66 2.07 1.31 4.13 1.87 6.23-2.24-3.13-4.38-6.33-6.83-9.3-3.92 2.69-6.19 7.14-5.5 11.92z"/><path fill="#cbc0ba" d="M226.65 232.68c.86-2.68 2.29-5.12 4.07-7.29 3.32 3.15.44 7.51-.43 11.09l-3.64-3.8z"/><path fill="#e2dbd8" d="M208.75 227.59c1.95 2.33 4.26 4.69 3.94 7.99l5.46.07c-3.42 1.53-7.18 2.24-10.6.31l-2.23 3.25c-1.03-1.47-2.06-2.94-3.21-4.32l1.28.46-2.53-5.29 6.17 3.57 1.72-6.04z"/><path fill="#fefefe" d="M220.43 235.15l1.4-5.34.49 6.14-2.94 3.37c-2.63 2.13-5.23 4.42-8.43 5.64-6.09-.32-12.14-2.13-17.15-5.66-.56-2.1-1.21-4.16-1.87-6.23 4.21 2.53 8.42 5.38 13.39 6.14l2.23-3.25c3.42 1.93 7.18 1.22 10.6-.31l2.28-.5z"/><path fill="#675f5e" d="M221.13 245.01c2.4-3.84 4.13-8.03 5.52-12.33l3.64 3.8c-3.04 2.84-5.23 6.81-9.16 8.53z"/><path fill="#757277" d="M210.95 244.96c3.2-1.22 5.8-3.51 8.43-5.64-.23 1.31-.07 2.91-1.28 3.79-3.25 3.25-7.96 4.03-12.37 3.77 1.75-.6 3.5-1.21 5.22-1.92z"/><path fill="#454243" opacity=".74" d="M175.5 241.27l.86.17.7 1.66-1.56-1.83z"/></svg>