<svg xmlns="http://www.w3.org/2000/svg" width="512" height="512" viewBox="0 0 384 384" xmlns:v="https://vecta.io/nano"><path fill="#1f2126" opacity=".55" d="M301.32 136.39c8.54-5.92 17.77-10.85 25.81-17.48 6.83 2.44 13.31 6.34 17.86 12.08 2.93 3.95 5.02 8.44 7.1 12.87l-.32.78-1.01 2.49c-1.22-2.83-2.08-5.81-3.46-8.57-3.77-7.2-9.85-13.23-17.26-16.64-1.35-.59-2.99-1.13-4.28-.12-5.39 3.16-10.42 6.92-15.78 10.14-6.04 3.59-11.57 8.05-17.98 11.02 2.61-2.84 6.16-4.45 9.32-6.57z"/><path fill="#9d8381" d="M213.55 134.63c4.11-.99 8.05-2.88 12.32-3.08 3.14.39 6.81 1.14 8.42 4.22l-3.5 2.26-1.22.72c1.53 1.97 3.13 3.91 4.42 6.05l1 6.09-1.64-.96-1.42-.8-1.04-5.92c-2.9.05-5.83.35-8.71-.08-1.36-.7-2.41-1.82-3.59-2.76-3.17-3.14-7.81-3.25-11.99-3.32 1.93-1.72 4.57-1.82 6.95-2.42m10.19 5.38c-.06 1.71 2.16 1.41 3.16 2.15l.73-4.63 3.23-2.04c-1.15-.58-2.27-1.3-3.56-1.49-1.52 1.77-2.86 3.77-3.56 6.01z"/><path fill="#ccc4c4" d="M223.74 140.01c.7-2.24 2.04-4.24 3.56-6.01 1.29.19 2.41.91 3.56 1.49l-3.23 2.04-.73 4.63c-1-.74-3.22-.44-3.16-2.15z"/><path fill="#656667" d="M234.29 135.77c2.34 1.53 4.89 2.7 7.56 3.52 4.32 1.45 8.87 2 13.21 3.38-1.23.13-2.46.28-3.69.45l.19 3.19c-7.05-2.43-14-5.14-20.77-8.28l3.5-2.26m13.77 6.41l-.33.83.34.84.83.34.82-.36.34-.84-.34-.83-.83-.34-.83.36z"/><path fill="#726f6e" d="M203.08 139.22c.13-1.82 2.06-2.2 3.52-2.17 4.18.07 8.82.18 11.99 3.32l-.09 2.41-.29 2.16-4.19-.93-.71-.17a44.37 44.37 0 0 0-1.97-3.24c-2.8-.55-5.67-.41-8.51-.53l.25-.85z"/><path fill="#2f343d" d="M229.57 138.75l1.22-.72c6.77 3.14 13.72 5.85 20.77 8.28a42.18 42.18 0 0 0 3.36 1.04c4.45 1.21 9.33.58 13.48 2.89l-.93 1.39c-.33.13-1 .38-1.34.5l1.79 2.86c-.52-.01-1.56-.01-2.08-.01-2.14.02-4.27.11-6.4.19l-.02 2.81-4.45 1.07.3-.86c.84-2.45 3.22-5.19.99-7.59a39.47 39.47 0 0 0-2.31-1.59c-4.41-1.1-8.71-2.53-12.99-4.02-2.24-.86-4.66-.53-6.97-.19-1.29-2.14-2.89-4.08-4.42-6.05z"/><path fill="#3e4141" d="M197.37 139.36l5.71-.14-.25.85-1.65-.05c3.54 1.74 5.84 5.34 6.57 9.13.08 2.37-.68 4.67-1.52 6.86-3.17 2.54-6.78 4.68-9.2 8.03-1.38 1.99-2.67 4.03-3.92 6.11.31-1.73.47-3.5.99-5.18 1.06-1.94 2.83-3.36 4.37-4.91 1.03-1.02 2.1-2.01 2.91-3.21-.41-1.1-.97-2.13-1.46-3.19 1.58-.91 2.9-2.19 4.15-3.51-2.75.75-5.43 1.75-8.08 2.81-1.92-4.21-5.64-7.06-9.23-9.77 3.25-.59 6.55-.68 9.84-.56l.77-3.27z"/><path fill="#353536" opacity=".62" d="M241.85 139.29c5.5-.54 10.71 1.36 15.77 3.23 1.65.83 3.42.01 5.07-.43l1.41.6-2.34 2.72-1.7-.78c-1.63-.74-3.28-1.45-5-1.96-4.34-1.38-8.89-1.93-13.21-3.38z"/><path fill="#ae9d96" d="M201.18 140.02l1.65.05c2.84.12 5.71-.02 8.51.53l1.97 3.24-7.13-1.83 3.93 3.36c.44 3.47.26 6.97-.06 10.45-1.28-.21-2.58-.26-3.82.19.84-2.19 1.6-4.49 1.52-6.86-.73-3.79-3.03-7.39-6.57-9.13z"/><path fill="#de9c7b" d="M218.59 140.37c1.18.94 2.23 2.06 3.59 2.76 2.88.43 5.81.13 8.71.08l1.04 5.92c-2.89-1.66-7.24-4.25-9.94-.88-.62 2.47.03 5.03.3 7.51 3.09.08 6.7 1 9.33-1.14.96-1.39 1.24-3.1 1.73-4.69l1.64.96 1.17.81-.29 6.65c-4.98-.64-9.54 1.8-14.3 2.76-1.01-6.13-.38-12.55-3.07-18.33l.09-2.41z"/><path fill="#59626d" d="M261.95 141.72c4.89-.52 10.79-.73 14.19 3.54-3.82.47-7.59-.45-11.22-1.55l-1.02 2.2c4.94 1.28 10.04 2.26 14.54 4.79 2.79 1.6 5.81 2.75 8.97 3.36a73.15 73.15 0 0 0-3.35 1.13c-.95.45-1.85.99-2.68 1.62 2.77 1.45 5.69 2.56 8.65 3.59l1.29 1.32c-1.13-.11-2.23-.01-3.31.31-1.32-.44-2.62-.9-3.96-1.26-2.53-1-3.48-3.75-4.86-5.85l-.72-1.16c-3.22-.97-6.4-2.17-8.96-4.42-.28.22-.83.67-1.11.9-4.15-2.31-9.03-1.68-13.48-2.89 2.06-.12 3.99-.95 5.14-2.72l1.7.78 2.34-2.72-1.41-.6-.74-.37z"/><path fill="#aea099" d="M176.89 144.2c2.72-2.18 6.81-2.68 9.87-1.01 3.59 2.71 7.31 5.56 9.23 9.77 2.65-1.06 5.33-2.06 8.08-2.81-1.25 1.32-2.57 2.6-4.15 3.51-1.9 1.01-3.85 1.93-5.78 2.87l-.27-.55c-1.84-5.39-6.39-9.99-12.18-10.8-1.59-.39-3.18-.78-4.8-.98z"/><path fill="#3c3639" d="M206.18 142.01l7.13 1.83.71.17c1.57 2.76 3.66 5.19 6.08 7.23l-1.89-6.3.29-2.16c2.69 5.78 2.06 12.2 3.07 18.33.46 2.09-1.24 3.6-2.49 4.99-2-1.9-4.5-3.11-7.09-3.96l2.23-.65c1.71-.61 3.83-1.09 4.68-2.89 1-1.84.16-3.93-.36-5.77-1.42-3.6-4.19-7.39-8.43-7.46-1.36-1.06-2.62-2.24-3.93-3.36z"/><path fill="#979491" d="M248.06 142.18l.83-.36.83.34.34.83-.34.84-.82.36-.83-.34-.34-.84.33-.83z"/><path fill="#a8a5a1" d="M251.37 143.12l3.69-.45c1.72.51 3.37 1.22 5 1.96-1.15 1.77-3.08 2.6-5.14 2.72l-3.36-1.04-.19-3.19z"/><path fill="#0b0b0d" opacity=".39" d="M281.91 143.02c1.77.42 3.46 1.09 5.09 1.88l4.3-1.77-2.47 3.71-3.72-.25c-1.18-.98-3.33-1.77-3.2-3.57z"/><path fill="#454949" d="M174.85 147.79c-.2-1.46.72-2.96 2.04-3.59 1.62.2 3.21.59 4.8.98-.35 1.74-.89 3.48-.89 5.27.26 2.29 1.15 4.47 1.45 6.77l.01.27c-.02 1.24-.26 2.45-.44 3.67l-.34.46.28-.04 5-.95c-1.44 3.86-3.28 7.55-5.05 11.26l-6.6.6c-1.43.12-2.86.3-4.29.45l-2.76.2c.99-3.23 1.74-6.62 3.73-9.41 1.9-2.67 3.69-5.53 4.27-8.81.63-2.45-.64-4.8-1.21-7.13m2.43 8.48v.46h.46v-.46h-.46m1.96 1.99v.45h.45v-.45h-.45m-2.95 2.01l-.01.44.45.01v-.45h-.44m.27 2.96c-.21 1.44 2.26 1.49 2.88.53.21-1.43-2.26-1.48-2.88-.53m-3.29 1.04v.45h.45v-.45h-.45m7.02 1.02l-.01.45h.45l.01-.45h-.45z"/><path fill="#be8262" d="M214.02 144.01l4.19.93 1.89 6.3c-2.42-2.04-4.51-4.47-6.08-7.23z"/><path fill="#848083" d="M233.99 144.8c2.31-.34 4.73-.67 6.97.19 4.28 1.49 8.58 2.92 12.99 4.02-2.15.27-4.3.57-6.41 1.05l1.28 1.08c1.02 2.45 4.12 2.26 6.32 2.63l1.12-3.17c2.23 2.4-.15 5.14-.99 7.59l-.36-3.15c-2.42.19-4.83.55-7.2 1.05l-.84-2.21c-2.11-.09-4.22-.13-6.33-.07.32 2.51 1.42 4.84 3.45 6.41-2.68.05-5.41.02-7.94-.99l1-.56 3.75-1.79c-1.09-2.1-2.57-3.98-4.64-5.18l-1.17-.81c-.39-2.02-.64-4.06-1-6.09m3.37-.11c.17 1.72 0 3.64 1.11 5.1l-.37.66.31.91.88.44.87-.32.26-.73c1.15.14 2.31.22 3.47.26-1.42-2.79-3.32-5.5-6.53-6.32z"/><path fill="#9ba19e" d="M264.92 143.71c3.63 1.1 7.4 2.02 11.22 1.55l1.76-.08c2.62 2.16 5.17 4.83 8.8 5 4.22.28 7.87 2.54 11.47 4.55 1.09-.18 2.19-.33 3.29-.46 1.2-.16 2.43.15 3.44.82l1.82 2.25c-1.26-.48-2.54-.9-3.81-1.33l-1.4 1.74-.51 1.16c3.14 1.18 6.16 2.65 9.26 3.95-5.09.21-9.69-2.22-14.22-4.18-2.89-1.51-5.39-3.88-8.63-4.62-3.16-.61-6.18-1.76-8.97-3.36-4.5-2.53-9.6-3.51-14.54-4.79l1.02-2.2m33.3 12.22c-1.78.41-.71 2.99.86 2.26 1.78-.41.7-3-.86-2.26z"/><path fill="#566065" d="M181.69 145.18c5.79.81 10.34 5.41 12.18 10.8-2.23 1.77-4.5 3.51-7.11 4.65-1.65.39-3.33.68-5 .95l.06-.42c.18-1.22.42-2.43.44-3.67 0-.06-.01-.2-.01-.27-.3-2.3-1.19-4.48-1.45-6.77 0-1.79.54-3.53.89-5.27z"/><path fill="#f8b288" d="M210.11 145.37c4.24.07 7.01 3.86 8.43 7.46-.13 1.73-.34 3.45-.52 5.17-2.65.59-5.35.82-8.05.97l.08-3.15c.32-3.48.5-6.98.06-10.45z"/><path fill="#aea8a6" d="M237.36 144.69c3.21.82 5.11 3.53 6.53 6.32l-3.47-.26-1.95-.96c-1.11-1.46-.94-3.38-1.11-5.1z"/><path fill="#262726" opacity=".97" d="M277.9 145.18c2.35.71 4.74 1.31 7.21 1.41l3.72.25c1.66 1.47 3.09 3.43 5.33 4.06 2.57.79 5.31 1.4 7.3 3.37l-3.29.46c-3.6-2.01-7.25-4.27-11.47-4.55-3.63-.17-6.18-2.84-8.8-5z"/><path fill="#3f434d" opacity=".98" d="M350.76 147.13l1.01-2.49 1.19 3.4c.71 6.61 1.3 13.34.1 19.94l-.28.78a103.88 103.88 0 0 1-1.49 3.42l-2.4-.72c1.35-4.7 2.39-9.54 2.53-14.45.11-3.31-.6-6.58-.66-9.88z"/><path fill="#fbb892" d="M221.99 148.25c2.7-3.37 7.05-.78 9.94.88l1.42.8c-.49 1.59-.77 3.3-1.73 4.69-2.63 2.14-6.24 1.22-9.33 1.14-.27-2.48-.92-5.04-.3-7.51z"/><path fill="#363939" d="M172.31 150.32c.55-1.12 1.63-1.74 2.54-2.53.57 2.33 1.84 4.68 1.21 7.13-.58 3.28-2.37 6.14-4.27 8.81-1.99 2.79-2.74 6.18-3.73 9.41-1.67.03-3.33-.02-5-.07.99-4.56 3.5-8.58 4.6-13.09.76-3.55 2.84-6.58 4.65-9.66z"/><path fill="#131416" opacity=".53" d="M352.96 148.04c.65 1.39 1.43 2.76 1.47 4.35.47 5.19.77 10.7-1.37 15.59 1.2-6.6.61-13.33-.1-19.94z"/><path fill="#a39e9c" d="M247.54 150.06c2.11-.48 4.26-.78 6.41-1.05l2.31 1.59-1.12 3.17c-2.2-.37-5.3-.18-6.32-2.63l-1.28-1.08z"/><path fill="#262a30" d="M268.4 150.24l1.11-.9c2.56 2.25 5.74 3.45 8.96 4.42l.72 1.16-3.16.11-8.56-3.4.93-1.39z"/><path fill="#e7e1da" d="M238.47 149.79l1.95.96-.26.73-.87.32-.88-.44-.31-.91.37-.66z"/><path fill="#c4b7b3" d="M236.16 151.7c2.07 1.2 3.55 3.08 4.64 5.18l-3.75 1.79-1.18-.32.29-6.65z"/><path fill="#686e75" d="M266.13 152.13l1.34-.5 8.56 3.4 1.87 1.21-.59 1.99c-3.03-1.35-6.13-2.58-9.39-3.24l-1.79-2.86z"/><path fill="#c78c6c" d="M218.54 152.83c.52 1.84 1.36 3.93.36 5.77-.85 1.8-2.97 2.28-4.68 2.89l-4.2-.69-.05-1.83c2.7-.15 5.4-.38 8.05-.97l.52-5.17z"/><path fill="#636063" d="M194.14 156.53l5.78-2.87 1.46 3.19c-.81 1.2-1.88 2.19-2.91 3.21l-1.09-1.99c-1.14-.37-2.26-.85-3.24-1.54z"/><path fill="#6f5d57" d="M240.54 153.81l6.33.07.84 2.21.5 1.89-.48 1.73-2.89.84-.85-.33c-2.03-1.57-3.13-3.9-3.45-6.41z"/><path fill="#464c56" d="M287.41 154.06c3.24.74 5.74 3.11 8.63 4.62l-1.17 2.31 1.08 2.29-.89-.06 3.8 2.84c-1.23-.39-2.47-.78-3.76-.94-.88.65-1.79 1.25-2.73 1.8-3.45 1.08-6.94-.33-10.4-.56-.84-.8-1.53-1.74-2.14-2.72 3.18.3 6.34.87 9.48 1.46a36.21 36.21 0 0 0-1.3-3.07c1.08-.32 2.18-.42 3.31-.31l-1.29-1.32.77-3.08c-2.22-.78-4.46-1.53-6.74-2.13a73.15 73.15 0 0 1 3.35-1.13z"/><path fill="#98857c" d="M206.23 156.01c1.24-.45 2.54-.4 3.82-.19l-.08 3.15.05 1.83-.94-.25-.67-2.69c-2.17 1.54-4.11 3.36-5.92 5.3l-.8.15-4.66.73c2.42-3.35 6.03-5.49 9.2-8.03z"/><path fill="#95898b" d="M247.71 156.09c2.37-.5 4.78-.86 7.2-1.05l.36 3.15-.3.86c-2.32.22-4.64-.12-6.76-1.07l-.5-1.89z"/><path fill="#2a2929" d="M259.44 155.17l6.4-.19.87 3.19c2.77 2.17 5.98 3.72 9.31 4.83 1.26.27 2.54.45 3.81.64.61.98 1.3 1.92 2.14 2.72 3.46.23 6.95 1.64 10.4.56l1.84.52-1.2 1.58c3.02 1.59 6.25 2.84 9.67 3.25l1.25 1.96c-3.23-.73-6.49-1.3-9.74-1.9l-.16 2.77c-4.84-1.52-9.12-4.79-14.31-5.08l-.8 1.42-.39.67c-.9-1.57-1.38-3.62-3.09-4.54-2.27-1.26-4.8-1.98-7.31-2.59-2.54-.55-5.17-.53-7.66-1.26l-.37-.72-1.43-3.19c-2.58-.17-5.2-.16-7.73.45-2.01.3-4.21 1.66-6.1.29l2.89-.84.48-1.73c2.12.95 4.44 1.29 6.76 1.07 1.49-.33 2.97-.7 4.45-1.07l.02-2.81z"/><path fill="#191c20" d="M265.84 154.98l2.08.01c3.26.66 6.36 1.89 9.39 3.24l-.86 3.05c-2.87-2.01-6.3-2.82-9.74-3.11-.31-1.06-.6-2.13-.87-3.19z"/><path fill="#363a42" d="M276.03 155.03l3.16-.11c1.38 2.1 2.33 4.85 4.86 5.85l3.96 1.26 1.3 3.07-9.48-1.46-3.81-.64.43-1.72.86-3.05.59-1.99-1.87-1.21z"/><path fill="#1a1c20" d="M281.38 156.81c.83-.63 1.73-1.17 2.68-1.62l6.74 2.13-.77 3.08c-2.96-1.03-5.88-2.14-8.65-3.59z"/><path fill="#43464c" d="M304.9 155.09c3.28.54 5.71 3 8.3 4.88 1.14 1.89 1.56 4.08 1.91 6.22-1.72-.63-3.49-1.17-5.33-1.3-4.62-.46-9.2-1.3-13.83-1.61l-1.08-2.29 1.17-2.31c4.53 1.96 9.13 4.39 14.22 4.18l2.25.04c-1.25-1.22-2.56-2.37-3.87-3.52-.66-.66-1.3-1.34-1.92-2.04l-1.82-2.25z"/><path fill="#fafbfa" d="M177.28 156.27h.46v.46h-.46v-.46z"/><path fill="#7b797b" d="M186.76 160.63c2.61-1.14 4.88-2.88 7.11-4.65l.27.55c.98.69 2.1 1.17 3.24 1.54l1.09 1.99c-1.54 1.55-3.31 2.97-4.37 4.91-.52 1.68-.68 3.45-.99 5.18l-.35.72-1.28 2.66 3 .97 1.02.73a27.53 27.53 0 0 0-3.84.44c1.38.91 2.93 1.53 4.26 2.52-2.53-.14-5.06-.64-7.33-1.83-.16-6.1 3.74-11.12 6.31-16.33-1.85.58-4.09.8-5.3 2.52-2.93 3.65-5.02 8.51-3.8 13.23.43 1.77 2.41 2.36 3.81 3.2 1.05.39 2.12.75 3.19 1.1l-.64 3.96c2-1.19 3.98-2.42 5.89-3.76 2.31.2 4.6.69 6.81 1.41l-2.2 3.34-3.97-1.4c-1.22 1.49-2.19 3.16-3.4 4.67l-4.5-3.5c.83-1.23.58-2.13-.77-2.68-2.86-1.22-5.78-2.34-8.82-2.97.94-1.58 1.86-3.18 2.74-4.79l-2.18-.61c-2.17-.62-4.39-1.11-6.65-1.26l6.6-.6c1.77-3.71 3.61-7.4 5.05-11.26z"/><path fill="#27292a" d="M298.22 155.93c1.56-.74 2.64 1.85.86 2.26-1.57.73-2.64-1.85-.86-2.26z"/><path fill="#85898a" d="M301.51 157.75l1.4-1.74 3.81 1.33 1.92 2.04-7.13-1.63z"/><path fill="#a7aab2" d="M182.25 157.22l.01.27-.01-.27z"/><path fill="#8c908f" d="M179.24 158.26h.45v.45h-.45v-.45z"/><path fill="#49382e" d="M202.49 163.16c1.81-1.94 3.75-3.76 5.92-5.3l.67 2.69a28.39 28.39 0 0 1-.67 4.21l-.32 1.59-5.6-3.19z"/><path fill="#4a505b" d="M266.71 158.17c3.44.29 6.87 1.1 9.74 3.11-.1.43-.32 1.29-.43 1.72-3.33-1.11-6.54-2.66-9.31-4.83z"/><path fill="#242526" opacity=".81" d="M301 158.91l.51-1.16 7.13 1.63 3.87 3.52-2.25-.04c-3.1-1.3-6.12-2.77-9.26-3.95z"/><path fill="#9c8d86" d="M167.66 159.98c-1.1 4.51-3.61 8.53-4.6 13.09 1.67.05 3.33.1 5 .07l2.76-.2 2.19 2.79c-1.06.4-2.11.78-3.18 1.14-1.55.06-3.11.02-4.65-.12l-2.9-.96c-.02-1.85-.05-3.69.01-5.53.26-4 2.39-7.67 5.37-10.28z"/><path fill="#818383" d="M176.29 160.27h.44v.45l-.45-.01.01-.44z"/><path fill="#f0e9e7" d="M189.6 162.55c1.21-1.72 3.45-1.94 5.3-2.52-2.57 5.21-6.47 10.23-6.31 16.33l1.02 2.62c-1.4-.84-3.38-1.43-3.81-3.2-1.22-4.72.87-9.58 3.8-13.23z"/><path fill="#020202" opacity=".31" d="M250.94 160.26c2.53-.61 5.15-.62 7.73-.45l1.43 3.19c-3.1-.57-6.94-.04-9.16-2.74z"/><path fill="#646a70" d="M313.2 159.97l3.55 1.14-.74 3.03c6.46 3.01 13.33 5.04 19.76 8.1 2.41 2.15 4.98 4.25 8.18 5.1l.15 2.35c-1.22.1-2.44.38-3.66.22-2.02-.95-3.72-2.44-5.61-3.59l1.7-1.5c-1.98-.7-4.44-2.34-6-.05a104.83 104.83 0 0 1-1.62-.58l.74-1.68c-1.67-1.21-3.53-2.12-5.22-3.3-3.34-.11-6.58-1.07-9.32-3.02-.35-2.14-.77-4.33-1.91-6.22z"/><path fill="#aaaea9" d="M181.48 161.62l.34-.46-.06.42-.28.04z"/><path fill="#946955" d="M208.41 164.76a28.39 28.39 0 0 0 .67-4.21l.94.25 4.2.69-2.23.65c2.59.85 5.09 2.06 7.09 3.96l.46.4c-3-.93-6.15-.92-9.25-.96l-1.88-.78z"/><path fill="#6e706f" d="M176.56 163.23c.62-.95 3.09-.9 2.88.53-.62.96-3.09.91-2.88-.53z"/><path fill="#d89c7c" d="M197.03 164.04l4.66-.73c.16 2.35 1.06 4.52 2.42 6.44l-2.24 1.99-1.99-1.19c-.84-.43-1.67-.88-2.6-1.05-.88.63-1.68 1.37-2.49 2.08l-2.03-.71.35-.72 3.92-6.11z"/><path fill="#b57d62" d="M201.69 163.31l.8-.15 5.6 3.19.35 1.4c1.45 4.42 4.35 8.58 3.83 13.44-4.18-2.65-5.65-7.47-8.16-11.44-1.36-1.92-2.26-4.09-2.42-6.44z"/><path fill="#8a9095" d="M295.06 163.22l.89.06c4.63.31 9.21 1.15 13.83 1.61 1.84.13 3.61.67 5.33 1.3 2.74 1.95 5.98 2.91 9.32 3.02 1.69 1.18 3.55 2.09 5.22 3.3l-.74 1.68c-7.05-2.78-14.02-5.81-21.31-7.93-1.77-.27-3.44.34-5 1.12-1.25-.42-2.5-.86-3.74-1.32-1.31-.89-2.56-1.87-3.8-2.84z"/><path fill="#999c9a" d="M173.27 164.27h.45v.45h-.45v-.45z"/><path fill="#8e8e8c" d="M180.29 165.29h.45l-.01.45h-.45l.01-.45z"/><path fill="#9f8c82" d="M208.09 166.35l.32-1.59 1.88.78c1.15 2.02 2.09 4.15 3.11 6.25l-4.96-4.04-.35-1.4z"/><path fill="#aa7e66" d="M210.29 165.54c3.1.04 6.25.03 9.25.96l.76.23-6.46 5.65-.44-.59-3.11-6.25z"/><path opacity=".06" d="M268.13 164.98c2.51.61 5.04 1.33 7.31 2.59 1.71.92 2.19 2.97 3.09 4.54l-1.37 2.12c-1.95.51-2.4-1.24-2.97-2.66-2.12-1.52-4.65-2.62-6.28-4.71l.22-1.88z"/><path fill="#1d2023" d="M292.37 166.92c.94-.55 1.85-1.15 2.73-1.8 1.29.16 2.53.55 3.76.94l3.74 1.32c1.56-.78 3.23-1.39 5-1.12.55 1.89 1 3.92.09 5.8-4.52-1.46-8.9-3.34-13.48-4.62l-1.84-.52z"/><path opacity=".11" d="M220.3 166.73c2.78-.49 5.16 1.43 7.83 1.79 2.04.29 4.11.31 6.18.45-1.47 4.48-3.32 8.83-4.67 13.36-2.97.75-5.21 2.97-7.74 4.58-1.42 2.46-2.34 5.19-2.14 8.07l-1.55-2.21c-.37-1.98-.64-3.98-.91-5.97l-.23-1.72c-1.27-4.18-2.58-8.36-3.23-12.7 2.12-1.92 4.22-3.87 6.46-5.65z"/><path fill="#2f3238" d="M307.6 166.26c7.29 2.12 14.26 5.15 21.31 7.93l1.62.58 4.3 1.55c1.89 1.15 3.59 2.64 5.61 3.59 1.22.16 2.44-.12 3.66-.22 1.96 1.41 3.64 3.17 5.08 5.11l2.39-3.08c-.34 1.44-.64 2.88-.95 4.32-2.94.02-5.79-.69-8.38-2.06-3.72-1.66-7.96-1.01-11.76-2.38-6.22-2.25-12.46-4.49-18.43-7.36l-1.6 4.56-5.22-2.83-.39-.51c1.13-.54 2.32-.92 3.56-1.16l-.97-1.47.26-.77c.91-1.88.46-3.91-.09-5.8z"/><path fill="#615755" d="M208.44 167.75c1.54 1.47 3.29 2.71 4.96 4.04l.44.59c.65 4.34 1.96 8.52 3.23 12.7l-3.03 1.16-2.18-3.89.41-1.16c.52-4.86-2.38-9.02-3.83-13.44z"/><path fill="#51545a" d="M293.01 169.02l1.2-1.58c4.58 1.28 8.96 3.16 13.48 4.62l-.26.77-4.75-.56c-3.42-.41-6.65-1.66-9.67-3.25z"/><path fill="#5c4c44" d="M194.79 171.58l2.49-2.08c.93.17 1.76.62 2.6 1.05l1.22 5.65c-2.25-.39-4.39-1.22-6.62-1.7l-3-.97 1.28-2.66 2.03.71z"/><path fill="#16181a" opacity=".73" d="M351.29 172.18l1.49-3.42c.3 3.73-.43 7.48-2.9 10.4-1.66-.67-3.37-1.17-5.1-1.61 1.13-1.8 1.97-3.76 3.12-5.54-.19 1.48-.31 2.97-.41 4.46 1.77-.97 3.18-2.32 3.8-4.29z"/><path fill="#605857" d="M161.46 170.19l.83.07-.01 5.53 2.9.96c-1.51 1.86-3.73 3.63-3.6 6.26-.42 3.31 1.77 6.01 2.87 8.93-1.48 3.49-5.27 6.18-4.67 10.34.2 1.88.46 3.75.71 5.63l-1.47 1.44-.64-.33-2.27-1-.21 2.81c-3.1.99-6.09 2.36-8.65 4.39l2.25-3.51c1.95-.47 3.9-.95 5.8-1.59.15-3.66-.33-7.44.75-10.98.65-2.98 4.72-2.87 5.64-5.65.81-1.81-.05-3.77-.24-5.6-1.27-5.85-.11-11.81.01-17.7z"/><path fill="#665c5a" d="M201.87 171.74l2.24-1.99c2.51 3.97 3.98 8.79 8.16 11.44l-.41 1.16-.94 2.48-2.07-.64c-1.67.35-3.32.76-4.96 1.21l-1.23-.37 2.2-3.34c-2.21-.72-4.5-1.21-6.81-1.41l-.76-2.02-1.37-.07c-1.33-.99-2.88-1.61-4.26-2.52a27.53 27.53 0 0 1 3.84-.44l-1.02-.73c2.23.48 4.37 1.31 6.62 1.7l-1.22-5.65 1.99 1.19m.39 5.55v.44h.45v-.45l-.45.01z"/><path fill="#50555c" opacity=".95" d="M348.01 171.2l.88.26 2.4.72c-.62 1.97-2.03 3.32-3.8 4.29l.41-4.46.11-.81z"/><path fill="#b09f99" d="M170.82 172.94l4.29-.45c2.26.15 4.48.64 6.65 1.26-1.42 1.07-2.91 2.05-4.59 2.62l-4.16-.64-2.19-2.79z"/><path fill="#424346" opacity=".51" d="M278.53 172.11l.39-.67 2.12 4.72c1.3 2.84 2.26 5.84 2.83 8.92.56 4.42 2.06 8.63 4.1 12.59.87 5.53 2.76 10.83 3.94 16.3l-.82 1c-1.62-4.44-1.81-9.54-4.93-13.32-.48-4.91-1.75-9.7-3.49-14.31-1-2.32-2.65-4.4-2.7-6.99-.6-2.19-1.87-4.08-2.81-6.12l1.37-2.12z"/><path fill="#595c62" d="M294.19 172.33l9.74 1.9.91 1.23.39.51c-3.43-.07-6.93.31-10.29-.58l-.91-.29.16-2.77z"/><path fill="#1a1b1d" opacity=".69" d="M302.68 172.27l4.75.56.97 1.47c-1.24.24-2.43.62-3.56 1.16l-.91-1.23-1.25-1.96z"/><path fill="#333537" opacity=".67" d="M335.77 172.24c3.4.33 5.72 3.04 8.18 5.1-3.2-.85-5.77-2.95-8.18-5.1z"/><path fill="#757a7d" d="M330.53 174.77c1.56-2.29 4.02-.65 6 .05l-1.7 1.5-4.3-1.55z"/><path fill="#6b6867" d="M181.76 173.75l2.18.61-2.74 4.79-2.96.48-.87 2.23-5.71 1.55-2.26.77.21-4.89.22-2.42 3.18-1.14c-1.04 1.65-1.81 3.44-2.42 5.29 2.36-1.3 4.5-2.94 6.58-4.65 1.68-.57 3.17-1.55 4.59-2.62z"/><path fill="#c68a6e" d="M173.01 175.73l4.16.64c-2.08 1.71-4.22 3.35-6.58 4.65.61-1.85 1.38-3.64 2.42-5.29z"/><path fill="#948f8f" d="M188.59 176.36c2.27 1.19 4.8 1.69 7.33 1.83l1.37.07.76 2.02-5.89 3.76.64-3.96-3.19-1.1-1.02-2.62z"/><path fill="#c3886c" d="M165.18 176.75c1.54.14 3.1.18 4.65.12l-.22 2.42-2.62-1.21c-1.92 2.41-2.91 5.36-2.97 8.43l2.81 1.81.09 3.88-.01.75-.11 3.65c-2.55.96-4.05 3.19-5.49 5.36l-1.53.32c-.6-4.16 3.19-6.85 4.67-10.34-1.1-2.92-3.29-5.62-2.87-8.93-.13-2.63 2.09-4.4 3.6-6.26z"/><path fill="#9b8d88" d="M202.26 177.29l.45-.01v.45h-.45v-.44z"/><path fill="#858a8f" d="M343.95 177.34l.83.21c1.73.44 3.44.94 5.1 1.61l2.55 1.37-.86 1.19-2.39 3.08c-1.44-1.94-3.12-3.7-5.08-5.11l-.15-2.35z"/><path fill="#d49375" d="M166.99 178.08l2.62 1.21-.21 4.89 2.26-.77 1.88 3-1.8 2.05c-.91-.88-1.92-1.73-2.24-3.01l-2.67 2.87-2.81-1.81c.06-3.07 1.05-6.02 2.97-8.43z"/><path fill="#9f9ca0" d="M178.24 179.63l2.96-.48c3.04.63 5.96 1.75 8.82 2.97-.65 1.12-.4 2.01.77 2.68l4.5 3.5 3.4-4.67 3.97 1.4 1.23.37-.76 1.72c-.76 1.36-.52 2.4.72 3.13l3.23.04.47 2.19-4.53-.55-1.13 3.25.01 1.72-2.73.88.64-1.48-1.39-1.19c-1.72-1.18-3.55-2.18-5.38-3.17l-2.84 1.54-1.23-1.62.77-5.84c-1.67.32-3.39.49-4.98 1.13-2.07 1.34-3.1 3.71-4.86 5.38-.79-.28-1.56-.6-2.31-.97l3.12 5.16-1.18.56-3.46 1.77c.04-3.29-.66-6.65.25-9.88.64-2.38 1.15-4.83 1.05-7.31l.87-2.23m2.75 2.65c.36.83.82 1.59 1.39 2.28 1.74.27 4.05-.86 5.26.91l1.19-.71c-1.1-1.36-2.04-3.23-3.99-3.42-1.31.19-2.58.59-3.85.94m-1.95 2.08c-.47 1.38 0 1.87 1.42 1.49.47-1.38-.01-1.88-1.42-1.49m.23 3.9v.46h.45v-.45l-.45-.01m11.3.97c.16 1.41.82 1.66 2 .76-.16-1.41-.83-1.66-2-.76z"/><path fill="#111214" opacity=".71" d="M352.43 180.53l1.3-.65c-.48 2.24-1.2 4.43-2.08 6.54-1.54.49-3.35.51-4.63 1.58-1.9 2.83-2.87 6.21-5.15 8.81 1.21-3.04 2.39-6.1 3.21-9.28-1.15.7-2.43 1.11-3.72 1.46.48-1.64 1.03-3.28.88-5.01 2.59 1.37 5.44 2.08 8.38 2.06l.95-4.32a88.66 88.66 0 0 1 .86-1.19z"/><path fill="#dad6da" d="M180.99 182.28l3.85-.94c1.95.19 2.89 2.06 3.99 3.42l-1.19.71c-1.21-1.77-3.52-.64-5.26-.91-.57-.69-1.03-1.45-1.39-2.28z"/><path fill="#7e7c80" d="M171.66 183.41c1.87-.63 3.79-1.1 5.71-1.55.1 2.48-.41 4.93-1.05 7.31-.91 3.23-.21 6.59-.25 9.88l-.15 3.49-.12 1.67c-2.46-2.89-2.65-6.94-4.75-10.06l-2.17 1.08h-.01c.03.08.08.23.11.31.72 1.84 1.58 3.62 2.16 5.52l-3.34.36a65.38 65.38 0 0 1-1-4.82l.11-3.65c.9.93 3.15.91 3.08-.76-.5-1.35-2.27-.58-3.07.01-.01-1.3-.05-2.59-.09-3.88.87-.98 1.76-1.93 2.67-2.87.32 1.28 1.33 2.13 2.24 3.01l1.8-2.05-1.88-3m2.63.81v.45h.45v-.45h-.45m-5.2 4.1l-.4.72.41.71h.83l.41-.72-.42-.71h-.83m5.17 4.95v.46h.45v-.46h-.45z"/><path fill="#c2beb7" d="M190.02 182.12c1.35.55 1.6 1.45.77 2.68-1.17-.67-1.42-1.56-.77-2.68z"/><path fill="#7d7676" d="M210.92 184.83l.94-2.48 2.18 3.89 3.03-1.16.23 1.72-2.47 13.06c-.44 2.43-2.26 4.2-3.75 6.03l1.28 1.5-1.36 2.33c-1.84 2.33-3.93 4.43-6.01 6.53l1.01 3.14-2.62 4.23-.75-4.88-3.1.6.76-1.09 3.69-5.74 2.44.91c.01-2.64-1.54-4.69-3.55-6.24l3.84-1.65 1.04 1.22.79-.1.41-.64-.78-1.19-.58-.43c1.28-1.31 2.69-2.53 3.7-4.06.75-2.84.78-5.92 2.3-8.51l-.62.03c.76-1.08-.11-3.45-1.61-2.36l-.51 1.51-1.3-1.9.79-2.84.58-1.43z"/><path fill="#bbb7af" d="M174.29 184.22h.45v.45h-.45v-.45z"/><path fill="#c6c4bf" d="M179.04 184.36c1.41-.39 1.89.11 1.42 1.49-1.42.38-1.89-.11-1.42-1.49z"/><path fill="#817e7e" d="M203.89 185.4l4.96-1.21 1.49 2.07-.79 2.84-3.09-1.26.62 2.45-3.23-.04c1.7-.63 1.14-3.41-.72-3.13l.76-1.72z"/><path fill="#d2cec6" d="M208.85 184.19l2.07.64-.58 1.43-1.49-2.07z"/><path fill="#b1aeb1" d="M184.76 187.15c1.59-.64 3.31-.81 4.98-1.13l-.77 5.84-1.23.41c-2.23.28-3.82 1.72-5.02 3.53l-3.18 2.43-.01-.95 1.18-.56-3.12-5.16c.75.37 1.52.69 2.31.97 1.76-1.67 2.79-4.04 4.86-5.38z"/><path fill="#c0bdb4" d="M203.13 187.12c1.86-.28 2.42 2.5.72 3.13-1.24-.73-1.48-1.77-.72-3.13z"/><path fill="#776a67" d="M217.3 186.8l.91 5.97c.27 1.99.79 4.01.47 6.03-.89 2.27-2.44 4.25-3.05 6.64l-1.98 7.49-.45-.55-2.2-2.66 1.36-2.33-1.28-1.5c1.49-1.83 3.31-3.6 3.75-6.03l2.47-13.06m-.95 12.49v.45h.45v-.45h-.45z"/><path fill="#cec7c0" d="M169.09 188.32h.83l.42.71-.41.72h-.83l-.41-.71.4-.72z"/><path fill="#fff" d="M179.27 188.26l.45.01v.45h-.45v-.46z"/><path fill="#5f5a59" d="M206.46 187.84l3.09 1.26 1.3 1.9.52.64 1.6.21.62-.03c-1.52 2.59-1.55 5.67-2.3 8.51-1.01 1.53-2.42 2.75-3.7 4.06l-1.76-1.35c1.75-3.23 3-6.93 1.72-10.56l-.47-2.19-.62-2.45z"/><path fill="#383d47" opacity=".98" d="M341.36 188.99c1.29-.35 2.57-.76 3.72-1.46-.82 3.18-2 6.24-3.21 9.28-4.44 10.7-15.11 17-25.61 20.6-4.56 1.8-9.54 1.28-14.32 1.25-4.05-.03-7.92-1.33-11.68-2.71a39.01 39.01 0 0 0 .83-.98l.82-1c9.08 5.33 20.56 3.86 29.73-.49 7.33-3.93 13.4-10.07 17.49-17.29 1.18-2.25 1.55-4.79 2.23-7.2z"/><path fill="#e3dedc" d="M190.57 189.23c1.17-.9 1.84-.65 2 .76-1.18.9-1.84.65-2-.76z"/><path fill="#dcd8cf" d="M211.36 189.49c1.5-1.09 2.37 1.28 1.61 2.36l-1.6-.21-.52-.64.51-1.51z"/><path fill="#d0c8c1" d="M166.92 192.2c.8-.59 2.57-1.36 3.07-.01.07 1.67-2.18 1.69-3.08.76l.01-.75z"/><path fill="#c4c1c4" d="M182.72 195.8c1.2-1.81 2.79-3.25 5.02-3.53l-.74 1.56 1.88 2.72-.16.73-6-1.48z"/><path fill="#ebe5ea" d="M188.97 191.86l1.23 1.62 2.84-1.54 5.38 3.17c-2.61 2.25-5.94.99-8.99.85l-.55.59-1.88-2.72.74-1.56 1.23-.41z"/><path fill="#878487" d="M203.02 191.93l4.53.55c1.28 3.63.03 7.33-1.72 10.56-1.7-1.33-2.11-3.47-2.56-5.45-1.35 2.07-2.97 4-3.91 6.3-.53 1.99.01 4.07.16 6.08l-5.58.94c-.99-.8-2.11-1.16-3.38-1.1l-.02-1.8 1.76-1.19.24 2.82c2.4-.73 3.85-2.61 4.75-4.86l-2.13-.61a79.37 79.37 0 0 0-.38-1.47 48.43 48.43 0 0 1-2.87.75c-.54-.79-1.1-1.57-1.66-2.34 3.12-.68 6.19-1.63 8.92-3.33.9-.33 1.81-.61 2.73-.88.3-.22.89-.67 1.19-.9l-.4-.7-.8-.12 1.13-3.25z"/><path fill="#e5d8d3" d="M174.26 193.27h.45v.46h-.45v-.46z"/><path fill="#696769" d="M168.88 195.23l2.17-1.08c2.1 3.12 2.29 7.17 4.75 10.06 1.13 1.29 2.38 2.45 3.5 3.75-3.38 1.28-6.51-1.45-9.37-2.89-.84-1.14-1.52-2.38-2.13-3.65l3.34-.36c-.58-1.9-1.44-3.68-2.16-5.52l-.1-.31z"/><path fill="#f2e9db" d="M168.87 195.23h.01l.1.31-.11-.31z"/><path fill="#bdb7bd" d="M189.43 195.96c3.05.14 6.38 1.4 8.99-.85l1.39 1.19-.64 1.48c-2.73 1.7-5.8 2.65-8.92 3.33l-.82-5.15z"/><path fill="#d0c7c1" d="M201.89 195.18l.8.12.4.7-1.19.9-.01-1.72z"/><path fill="#908e91" d="M179.54 198.23l3.18-2.43 6 1.48c-.75 2.8-1.11 5.96-3.14 8.18-1.95 1.13-4.08 1.96-6.28 2.5l-3.5-3.75.12-1.67c2.43-.03 3.8-2 3.62-4.31m-.26 5.05l-.01.45h.46v-.45h-.45m4.11-.11c-.82-.01-2.87 1.31-1.41 1.98 1.2.16 2.26-.17 3.2-.97 1.15-1.11-1.15-1.38-1.79-1.01z"/><path fill="#787577" d="M188.88 196.55l.55-.59.82 5.15 1.66 2.34-3.89.37c-.34 2.27-1.14 4.98.78 6.8l.36.53-3.67.84 1.71 7.81c.69-.89 1.43-1.73 1.99-2.71l-.69 5.7-.43 4.21c-1.92-4.13-3.09-8.55-4.25-12.95l-.74.19c-1.94.4-3.9.68-5.86.96l-.78-4.75-2.52-.47c-1.37-1.61-2.74-3.22-3.99-4.91 2.86 1.44 5.99 4.17 9.37 2.89 2.2-.54 4.33-1.37 6.28-2.5 2.03-2.22 2.39-5.38 3.14-8.18l.16-.73m-5.76 14.5c-1.31.71-1.32 1.39-.01 2.03 1.31-.71 1.31-1.39.01-2.03z"/><path fill="#e5a17f" d="M161.31 201.96c1.44-2.17 2.94-4.4 5.49-5.36l1 4.82c.61 1.27 1.29 2.51 2.13 3.65l3.99 4.91-7.93-1.99c-1.68-1.92-3.15-4-4.68-6.03z"/><path fill="#c5bfbf" d="M176.07 199.05l3.46-1.77.01.95c.18 2.31-1.19 4.28-3.62 4.31l.15-3.49z"/><path fill="#6b6668" d="M199.36 203.89c.94-2.3 2.56-4.23 3.91-6.3.45 1.98.86 4.12 2.56 5.45l1.76 1.35.58.43-1.46.71-3.84 1.65c2.01 1.55 3.56 3.6 3.55 6.24l-2.44-.91-3.69 5.74-7.99-1.44-.96-2.73c-1.01.76-1.67 1.86-2.15 3.01-.56.98-1.3 1.82-1.99 2.71-.43-2.63-1.08-5.22-1.71-7.81l3.67-.84c1.59.19 3.2.06 4.78-.24l5.58-.94c-.15-2.01-.69-4.09-.16-6.08z"/><path fill="#c2b9b4" d="M216.35 199.29h.45v.45h-.45v-.45z"/><path fill="#797373" d="M159.78 202.28l1.53-.32 4.68 6.03.24 3.94-2.96 1.98-4.25-4.56 1.47-1.44-.71-5.63z"/><path fill="#69676a" d="M191.91 203.45l2.87-.75.38 1.47 2.13.61c-.9 2.25-2.35 4.13-4.75 4.86l-.24-2.82-1.76 1.19.02 1.8-1.76.81c-1.92-1.82-1.12-4.53-.78-6.8l3.89-.37z"/><path fill="#fffffa" d="M179.28 203.28h.45v.45h-.46l.01-.45z"/><path fill="#c9c4c4" d="M183.39 203.17c.64-.37 2.94-.1 1.79 1.01-.94.8-2 1.13-3.2.97-1.46-.67.59-1.99 1.41-1.98z"/><path fill="#a09b9a" d="M206.71 205.53l1.46-.71.78 1.19-.41.64-.79.1-1.04-1.22z"/><path fill="#e4dedc" d="M156.11 208.02l2.27 1c-.04 4.74-.99 9.39-2.03 13.99-.73-4.02-.67-8.12-.45-12.18l.21-2.81z"/><path fill="#928a90" d="M165.99 207.99c2.59.83 5.25 1.45 7.93 1.99l2.52.47.78 4.75 5.86-.96c-1.09 1.02-3.19 1.82-2.64 3.67.58 3.43 2.39 6.48 3.68 9.68l-1.33 1.69c-2.54-2.84-3.8-6.44-5.13-9.93-1-2.41-4.1-1.89-6.01-3.1.82-.76 1.54-1.6 2.15-2.53l-6.72-.71a75.56 75.56 0 0 1 4.26 2.66c-3.02 1.19-6.01.12-8.76-1.29l.69-.47 2.96-1.98a52.05 52.05 0 0 1-.24-3.94z"/><path fill="#d2cac2" d="M158.38 209.02l.64.33c1.54 1.4 2.9 2.98 4.25 4.56l-.69.47c-4.15 1.81-3.56 6.8-3.55 10.54.18 1.68.22 3.46 1.04 4.98 1.07.86 2.3 1.46 3.52 2.05l2.45 5.07 2.02-3.15c.73 1.31 1.4 2.66 2.06 4.02-1.35 1.06-2.75 2.04-4.13 3.05-1.99-3.04-3.97-6.1-6.28-8.91.18 2.7.48 5.4 1.08 8.06-2.61-4.26-1.71-9.65-3.77-14.17a27.18 27.18 0 0 1-.67-2.91c1.04-4.6 1.99-9.25 2.03-13.99z"/><path fill="#aea5a4" d="M188.8 210.62l1.76-.81c1.27-.06 2.39.3 3.38 1.1-1.58.3-3.19.43-4.78.24l-.36-.53z"/><path fill="#b4826a" d="M211 209.72l2.2 2.66-1.47 1.32-5.73 5.69-1.01-3.14 6.01-6.53z"/><path fill="#767278" d="M147.25 215.22c2.56-2.03 5.55-3.4 8.65-4.39-.22 4.06-.28 8.16.45 12.18a27.18 27.18 0 0 0 .67 2.91l-1.85-.71c-1.96 1.2-4.07 2.11-6.21 2.94l-.01-.97c.07-2.35 2.17-4.77.9-7.05-.81-1.1-1.74-3.47-3.15-1.6-2.26 4.16-2.4 9.07-2.82 13.7l-1.46-.71c-.58-5.64.07-12.5 4.83-16.3m2.64.84c-.03 2.32 1.81 3.94 3.29 5.48l1.45-2.72c-.01-2.33-1.53-4.22-2.84-6-.67 1.04-1.54 2.02-1.9 3.24z"/><path fill="#aca6a5" d="M183.12 211.05c1.3.64 1.3 1.32-.01 2.03-1.31-.64-1.3-1.32.01-2.03z"/><path fill="#928e96" d="M149.89 216.06c.36-1.22 1.23-2.2 1.9-3.24 1.31 1.78 2.83 3.67 2.84 6l-1.45 2.72c-1.48-1.54-3.32-3.16-3.29-5.48z"/><path fill="#fdfbfa" d="M167.08 213.01l6.72.71c-.61.93-1.33 1.77-2.15 2.53 1.91 1.21 5.01.69 6.01 3.1 1.33 3.49 2.59 7.09 5.13 9.93l2.59 3.61-.85 2.49-5.48 1.7.36-3.37c-.97-.01-1.93.04-2.89.14.11 1.52.37 3.03.71 4.52l-2.69.55c-.09-1.68 1.06-5.18-1.52-5.1-1.05 1.3-1.93 2.72-2.9 4.07-.66-1.36-1.33-2.71-2.06-4.02-2.56-3.38-5.04-7.13-9.03-8.95-.01-3.74-.6-8.73 3.55-10.54 2.75 1.41 5.74 2.48 8.76 1.29a75.56 75.56 0 0 0-4.26-2.66m.88 3.94c.42 4.05-.35 8.79 1.99 12.27l.86-.39c.51-3.97-.79-7.89-.93-11.85l-1.92-.03m7.26 11.24c-1.24-.25-2.69 1.29-1.85 2.44 1.43 1.46 3.95-1.7 1.85-2.44z"/><path fill="#cec8cc" d="M183.08 214.24l.74-.19c1.16 4.4 2.33 8.82 4.25 12.95l-2 3.23a81.51 81.51 0 0 1-1.95-2.64c-1.29-3.2-3.1-6.25-3.68-9.68-.55-1.85 1.55-2.65 2.64-3.67z"/><path fill="#d9cfcb" d="M189.19 217.09c.48-1.15 1.14-2.25 2.15-3.01l.96 2.73 7.99 1.44-.76 1.09c-2.22.46-4.5.56-6.72.98l-1.85 2.5c3.01.69 6.94.51 8.18 3.98-2.87-.02-5.76-.42-8.42-1.55l-2.22-2.46c.12-1.91.39-3.81.69-5.7z"/><path fill="#332519" d="M206 219.39c1.8-2 3.73-3.87 5.73-5.69-1.89 4.11-3.83 8.23-5.3 12.51 1.22 3.46 3.28 6.8 2.99 10.63-.25 2.67-.23 5.65-1.67 7.97l-.6.39c.69-3.67 1.67-7.41 1.13-11.17-.52-3.05-2.53-5.5-3.97-8.14l-.93-2.27 2.62-4.23z"/><path fill="#ebe4e1" d="M167.96 216.95l1.92.03c.14 3.96 1.44 7.88.93 11.85l-.86.39c-2.34-3.48-1.57-8.22-1.99-12.27z"/><path fill="#9a959d" d="M146.7 218.53c1.41-1.87 2.34.5 3.15 1.6 1.27 2.28-.83 4.7-.9 7.05-1.03-.91-2.13-1.72-3.27-2.49l-.51 4.31 2.77.11-.4 1.87c-.24 2.09.36 4.12 1.01 6.09l-1.99 1.39-1.35-2.72-1.14-1.76-.19-1.75c.42-4.63.56-9.54 2.82-13.7z"/><path fill="#595050" d="M199.53 219.34l3.1-.6c.1 1.65.58 3.24.75 4.88l.93 2.27c-3.9-1.74-7.54-3.99-11.5-5.57 2.22-.42 4.5-.52 6.72-.98z"/><path fill="#8a8488" d="M190.96 222.82a32.26 32.26 0 0 0 1.85-2.5c3.96 1.58 7.6 3.83 11.5 5.57 1.44 2.64 3.45 5.09 3.97 8.14.54 3.76-.44 7.5-1.13 11.17-2.23.97-4.64 1.37-7.04 1.57v-2.54l-2.74-2.53 1.61.32c1.29-1.93 1.18-4.12.46-6.22l-4.28 1.92 1.25-3.63c-2.04-2.86-3.78-5.91-5.69-8.84 2.66 1.13 5.55 1.53 8.42 1.55-1.24-3.47-5.17-3.29-8.18-3.98m9.28 4.36l-1.02 2.74c1.2.75 2.4 1.5 3.65 2.17 2.56-1.99-1.14-3.77-2.63-4.91m2.57 8.56c.13 2.32.29 4.77 2.04 6.48.18-1.8.39-3.58.62-5.36l-2.66-1.12z"/><path fill="#63605e" d="M188.07 227l.43-4.21 2.22 2.46c1.91 2.93 3.65 5.98 5.69 8.84l-1.25 3.63 4.28-1.92c.72 2.1.83 4.29-.46 6.22l-1.61-.32-1.65-1.4-1.88 1.38c-.29 2.67-.67 5.41-2.45 7.54.01-2.64.21-5.27.44-7.9l-1.29-.11c-.48-1.04-.95-2.08-1.47-3.09-.22-.37-.65-1.12-.86-1.5l-2.83-3.73c-.88-1.19-1.74-2.4-2.59-3.61l1.33-1.69a81.51 81.51 0 0 0 1.95 2.64c1.56 2.23 3.83 3.78 6.31 4.84-.39-3.16-2.15-5.82-4.31-8.07z"/><path fill="#a9a3a9" d="M145.68 224.69c1.14.77 2.24 1.58 3.27 2.49l.01.97v1.08l-1.02-.12-2.77-.11.51-4.31z"/><path fill="#eae5e3" d="M159.03 224.92c3.99 1.82 6.47 5.57 9.03 8.95l-2.02 3.15-2.45-5.07c-1.22-.59-2.45-1.19-3.52-2.05-.82-1.52-.86-3.3-1.04-4.98z"/><path fill="#9a989a" d="M188.07 227c2.16 2.25 3.92 4.91 4.31 8.07-2.48-1.06-4.75-2.61-6.31-4.84l2-3.23z"/><path fill="#b7b2b8" d="M200.24 227.18c1.49 1.14 5.19 2.92 2.63 4.91l-3.65-2.17 1.02-2.74z"/><path fill="#ece5e1" d="M175.22 228.19c2.1.74-.42 3.9-1.85 2.44-.84-1.15.61-2.69 1.85-2.44z"/><path fill="#6a6565" opacity=".82" d="M148.55 237.07c-.65-1.97-1.25-4-1.01-6.09l2.69 6.21c-.35 1.05-1.07 1.72-2.16 2.01l-2.11-.31.6-.43 1.99-1.39z"/><path fill="#fefefe" d="M159.71 232.03c2.31 2.81 4.29 5.87 6.28 8.91 2.7-.18 5.64-1.77 8.05.15l.32 1.5c3.18-.65 6.41-1.3 9.39-2.64 1.52-1.07 2.97-2.22 4.46-3.33.21.38.64 1.13.86 1.5.24 3-1.83 5.21-4.2 6.68l-6.9 2.19c-2.56.26-5.25.84-7.77.03-2.69-1.19-5.05-2.99-7.47-4.64l-.49-.55-1.45-1.74c-.6-2.66-.9-5.36-1.08-8.06z"/><path fill="#beb1a6" d="M176.52 233.85c.96-.1 1.92-.15 2.89-.14l-.36 3.37 5.48-1.7.85-2.49 2.83 3.73-4.46 3.33-3.03.14-.26-2.24-3.23.52c-.34-1.49-.6-3-.71-4.52z"/><path fill="#434144" opacity=".68" d="M144.07 233.98l1.14 1.76-.91-.03-.58-.9.35-.83z"/><path fill="#e0d9d6" d="M170.12 237.89l2.9-4.07c2.58-.08 1.43 3.42 1.52 5.1l-.5 2.17c-2.41-1.92-5.35-.33-8.05-.15l4.13-3.05z"/><path fill="#ada8ae" d="M202.81 235.74l2.66 1.12-.62 5.36c-1.75-1.71-1.91-4.16-2.04-6.48z"/><path fill="#3c3a38" opacity=".49" d="M150.23 237.19l1.52 1.23-.11 2.23-2.18.1-1.39-1.55c1.09-.29 1.81-.96 2.16-2.01z"/><path fill="#a08d7f" d="M177.23 238.37l3.23-.52.26 2.24 3.03-.14c-2.98 1.34-6.21 1.99-9.39 2.64l-.32-1.5.5-2.17 2.69-.55z"/><path fill="#9b9398" d="M189.07 238.12l1.47 3.09 1.29.11-.44 7.9-2.13.3-1.09-2.85c-3.43 1.67-6.62 3.79-10.04 5.46-1.91 1.02-4.11.32-6.14.18l1.53-1.7c-4.33-1.65-8.05-4.49-10.79-8.23 2.42 1.65 4.78 3.45 7.47 4.64 2.52.81 5.21.23 7.77-.03-1.4.76-2.96 1.18-4.28 2.08 4.51.78 8.87-.69 12.62-3.14l-1.44-1.13c2.37-1.47 4.44-3.68 4.2-6.68z"/><path fill="#c4b8b3" d="M193.84 241.68l1.88-1.38 1.65 1.4 2.74 2.53v2.54l-2.13 2.3 2.14 2.7c-1.06.85-1.94 1.98-3.2 2.55-1.95.43-3.94-.07-5.89-.27l.1-1.68.26-3.15c1.78-2.13 2.16-4.87 2.45-7.54z"/><path fill="#867670" d="M162.24 241.83l.49.55c2.74 3.74 6.46 6.58 10.79 8.23l-1.53 1.7c2.03.14 4.23.84 6.14-.18 3.42-1.67 6.61-3.79 10.04-5.46l1.09 2.85 2.13-.3-.26 3.15c-3.25 2.13-7.29 1.04-10.91 1.79-2.85.21-6.31 1.5-8.66-.8-2.3-2.03-4.9-3.69-7.21-5.7-1.68-1.47-1.81-3.79-2.11-5.83z"/><path fill="#848186" d="M177.97 246.99l6.9-2.19 1.44 1.13c-3.75 2.45-8.11 3.92-12.62 3.14 1.32-.9 2.88-1.32 4.28-2.08z"/><path fill="#7d787e" d="M200.11 246.77c2.4-.2 4.81-.6 7.04-1.57l.6-.39c-1.26 3.54-4.53 5.29-7.63 6.96l-2.14-2.7 2.13-2.3z"/></svg>