<svg xmlns="http://www.w3.org/2000/svg" width="512" height="512" viewBox="0 0 384 384" xmlns:v="https://vecta.io/nano"><path fill="#1d2126" opacity=".78" d="M225.3 108.26l1.53-1.32c1.72 5.01 4.21 9.75 5.45 14.93-3.23-4-4.81-9.01-6.98-13.61z"/><path fill="#4e545b" opacity=".96" d="M226.83 106.94l1.9.31c3.26 5.67 5.29 11.94 7.81 17.96l.27.75c.92 2.72 1.9 5.45 3.43 7.91-.36 2.1-1.02 4.25-.63 6.39.96 1.44 2.19 2.68 3.28 4.01l-1.94.95-2.12-1.16c-2.11-3.85-.48-8.16-1.02-12.27l-1.15 2.46c-1.1-4.25-3.09-8.19-4.38-12.38-1.24-5.18-3.73-9.92-5.45-14.93z"/><path fill="#1a1c1d" d="M228.73 107.25l3.96 1-.07 1.29c-.23 1.96-.16 4.09 1.62 5.34l3.57-1.52c1.13 1.98 1.59 4.18 1.64 6.45l-3.14 1.38.23 4.02c-2.52-6.02-4.55-12.29-7.81-17.96z"/><path fill="#4b4c56" d="M234.24 114.88c-1.78-1.25-1.85-3.38-1.62-5.34l.88.72 2 .96 2.31 2.14c-1.16.58-2.38 1.02-3.57 1.52z"/><path fill="#0f1011" opacity=".6" d="M233.5 110.26l.85-.43 1.01.5.14.89-2-.96z"/><path fill="#47505c" d="M236.81 125.96c1.66 2.26 3 4.73 4.25 7.23l5.61-.86 1.5 4.34-3.83-.28-.42 2.64-3.68-5.16c-1.53-2.46-2.51-5.19-3.43-7.91z"/><path fill="#0f0f0e" opacity=".64" d="M213.99 133.79c1.33-1.24 2.61-2.58 4.21-3.49 2.84.75 7.01 1.62 7.45 5.1-3.69-1.49-7.69-2.32-11.66-1.61z"/><path fill="#313844" d="M237.81 131.79c.54 4.11-1.09 8.42 1.02 12.27l-1.36 1.69-.53.68-6.87-3.78 2.1-3.6 2.9-.95c.5-1.29 1.01-2.58 1.59-3.85l1.15-2.46z"/><path fill="#868485" d="M213.99 133.79c3.97-.71 7.97.12 11.66 1.61 2.15 1.17 5.38 1.24 6.52 3.65-.67 1.22-1.4 2.4-2.1 3.6-1.2 2.03-2.29 4.12-3.33 6.23-.89-.4-1.78-.78-2.67-1.14-2.48-1.62-4.86-3.39-7.32-5.04l.16-6.22c-1.79 1.25-3.37 2.76-4.79 4.42l.95 2.87-2.25.11c-.79-1.29-1.51-2.63-2.22-3.96l1.76-3.51 1.02-2.16 2.61-.46m5.2 2.79c-.95 1.14-.7 1.78.75 1.92.94-1.14.69-1.78-.75-1.92m8.07 3.74l.01.45h.45v-.46l-.46.01z"/><path fill="#727980" d="M240.24 133.87l3.68 5.16 4.23 6.54c-.14 3.61.21 7.21.74 10.78l-4.43-1.98c-.85-3.32-.95-6.75-1.57-10.1-1.09-1.33-2.32-2.57-3.28-4.01-.39-2.14.27-4.29.63-6.39m4.9 14.76c-.78 1.19.06 3.91 1.66 3.78.79-1.2-.09-3.86-1.66-3.78z"/><path fill="#523b30" opacity=".59" d="M190.76 140.93c6.54-1.44 13.72-.78 19.6-4.52-.57 1.18-1.17 2.34-1.76 3.51-1.5.02-3 .06-4.49.16-2.09.21-4.17.58-6.26.83-2.04.11-4.08.08-6.12.03l-.97-.01z"/><path fill="#adaaa3" d="M219.19 136.58c1.44.14 1.69.78.75 1.92-1.45-.14-1.7-.78-.75-1.92z"/><path fill="#191c21" d="M244.34 136.39l3.83.28c1.27 2.47 2.56 5.08 2.36 7.95-.4 3.25 1.15 6.1 3.48 8.26 2.37 1.78 1.76 4.72 1.95 7.27 1.7 2.93 4.4 5.17 6.25 8.03l-4.55 2.26c.3 2.47 1.19 4.75 3.26 6.26a180.17 180.17 0 0 0-.85-5.67c1.27 1.36 2.57 2.7 3.78 4.12l.69 1.95c.68 2.27 1.56 4.5 3.14 6.32-.31 1.06-.7 2.09-1.18 3.08l-.8 1.25c.96 6.12 4.99 11.23 6.2 17.31-4.6-6.87-6.22-15.19-10.24-22.38l-2.51-.46c1.4 4.03 2.98 7.99 4.59 11.94 1.65 4 2.91 8.2 5.2 11.9 1.33 2.3 3.03 4.47 3.65 7.11.59 2.45.81 4.96 1.1 7.46l4.18.5c-1.05-3.44-2.66-6.69-3.53-10.17-.45-3.3-.22-6.7-1.32-9.9l.72-1.89c2.13 4.56 2.71 9.59 2.36 14.57 1.97-.46 3.94-.92 5.88-1.5l.1.91-1.51.04-.35.65.31.69 1.5.3c-.81 2.72-1.78 5.49-3.64 7.7-1.59 1.56-3.92 1.24-5.93 1.16-2.91-.25-5.74.57-8.56 1.18 1.41-.94 2.76-1.96 4.03-3.07l.49-.68-.63-.71-.88-.05-1.55.07 4.06-2.51c-2.09-5.88-5.19-11.31-7.59-17.06l-1.54-3.66c-1.18-2.59-2.52-5.1-3.9-7.59l-1.35-2.48-.09-1.79c-1.53-4.82-2.89-9.95-6.46-13.73.97-.56 1.96-1.08 3-1.51l2.15 5.07c.7 1.68 2.1 2.91 3.36 4.17-.03-3.46-1.19-6.74-3.15-9.56l.24-.67 1.21-3.08c.78-2.18.47-4.5-.71-6.47-2.51-4.5-3.8-9.57-6.44-13.99-1.35-2.22-2.79-4.39-4.23-6.54l.42-2.64z"/><path fill="#a19b9b" d="M212.12 140.9c1.42-1.66 3-3.17 4.79-4.42l-.16 6.22-.09 4.17-3.59-3.1-.95-2.87z"/><path fill="#a06f55" d="M197.85 140.91l6.26-.83 3.72 4.99-1.84.83-4.06-2.21-4.08-2.78z"/><path fill="#d69876" d="M204.11 140.08l4.49-.16 2.22 3.96 3.07 4.5-.23 2.39-3.23 1.3c-.72-2.38-1.52-4.76-2.6-7l-3.72-4.99z"/><path fill="#f5eee2" d="M227.26 140.32l.46-.01v.46h-.45l-.01-.45z"/><path fill="#393d3c" d="M175.61 143.02c4.94-1.33 10.05-1.88 15.15-2.09l.97.01c3.07.68 6.33 1.74 7.92 4.7-1.7 1.45-3.46 2.86-4.87 4.61-2.49-2.61-5.17-5.24-8.62-6.54-3.33-1.43-7.04-.97-10.55-.69z"/><path fill="#868486" d="M191.73 140.94l6.12-.03 4.08 2.78 1.4 11.44-2.73 2.62-1.42.59c1.19-3.11 2.1-6.35 2.14-9.7-2.02.67-4.51.83-5.9 2.65.08 1.75.85 3.47.58 5.22-.83 2.21-2.23 4.17-3.01 6.4-1.03 3.15-2.07 6.37-2.18 9.7 1.2 2.5 4.4 2.47 6.73 3.1 4.07.58 7.92 2.08 11.41 4.24-.36-1.19-.73-2.38-1-3.59l.63-.95 2.26.22 2.92 4.59 4.87 9.43-3.27 2.67.06-2.64c.33-4.12-1.88-7.71-4.97-10.22.16 1.43.33 2.86.57 4.28l-2.75-.58c1.04 2.45 2.33 4.85 2.78 7.5.11 2.61-.83 5.11-1.4 7.62l-2.02-.91-.71-8.24-1.88 1.56c-2.07-3.76-2.62-8.29-5.42-11.64l-.43 1.35c-1.48.02-2.96-.05-4.44-.11l-2.15-2.63 1.53-.67.19-.74-.45-.54-.77.04-.96 1.34-6.17-1.08c-1.3-2.84-2.37-5.78-3.08-8.83 1.56-4.09 3.53-8.11 6.55-11.34.07-.08.22-.23.29-.31l.82-.79c1.73-1.17 3.08-2.76 4.23-4.49 1.41-1.75 3.17-3.16 4.87-4.61-1.59-2.96-4.85-4.02-7.92-4.7m-5.89 30.93l3.04.07c.8-4.81 2.4-9.41 3.84-14.04-4.76 2.84-7.74 8.4-6.88 13.97m10.42 5.29l-.02.83.71.42.73-.4.01-.82-.71-.43-.72.4m9 3.2l-.54.61.24.85c-1.27.61-.59 2.89.4 3.53 1.31-.33.97-2.47.27-3.27l.58-.63-.18-.86-.77-.23z"/><path fill="#9f8f89" d="M169.07 147.1c1.88-1.73 3.91-3.68 6.54-4.08l3.42 1.3-5.02 1.57c-2.69 1.14-5.61 2.67-6.61 5.64-2.67 7.24-4.52 14.93-4.36 22.69 2.72-.21 5.43-.5 8.12-.94l1.72-.26 2.33 3.21-3.32.68a82.35 82.35 0 0 1-4.95.82l-4.21.47-.73-2.55c-.61-2.14-1.48-4.36-1.04-6.62.73-3.76 2.5-7.21 3.41-10.92 1.1-3.81 1.6-8.18 4.7-11.01z"/><path fill="#a39792" d="M175.61 143.02c3.51-.28 7.22-.74 10.55.69 3.45 1.3 6.13 3.93 8.62 6.54-1.15 1.73-2.5 3.32-4.23 4.49l1.31-3.87c-1.59-1.6-3.04-3.52-5.19-4.4-2.46-.99-5.08-1.48-7.64-2.15l-3.42-1.3z"/><path fill="#776e6d" d="M210.82 143.88l2.25-.11 3.59 3.1.09-4.17 7.32 5.04-7.32.91-2.86-.27-3.07-4.5z"/><path fill="#221e1e" d="M230.07 142.65l6.87 3.78c.67 3.39 2.07 6.55 3.4 9.72l-1.99 1.16c-.93-2.87-2.49-5.47-4.42-7.77.56 3.01 1.39 6 2.98 8.65 1.96 1.31 4.41 2.08 5.92 3.97 1.79 3.22 3.12 6.68 4.81 9.96 1.02 2.93 2.1 5.85 3.52 8.62l-2.19 1.32c-.7-1.56-1.49-3.07-2.25-4.59-.59-1.22-1.14-2.45-1.7-3.68l-3.48 4.18c-1.57-3.69-2.73-7.55-4.79-11.01l-.37-.77c-1.46-3.02-2.36-6.27-3.21-9.5-4.41-.49-8.87-.54-13.28-.01-.28 2.51-.72 5.01-1.38 7.45l-.43-.67c-1.91-3.24-3.97-6.45-6.89-8.89l-.76-2.5 3.23-1.3c.59 2.38 1.56 4.64 2.53 6.89l2.58-3.9c2.17.42 4.36.83 6.58.87l2.93-.53c-.39-1.51-.77-3.01-1.23-4.5l-.31-.72c1.04-2.11 2.13-4.2 3.33-6.23m8.98 19.2c.65 2.72 1.24 5.45 1.58 8.23l2.49.07c-.17-1.88-.17-3.79-.69-5.61-.77-1.26-2.25-1.82-3.38-2.69z"/><path fill="#4a5051" d="M179.03 144.32c2.56.67 5.18 1.16 7.64 2.15 2.15.88 3.6 2.8 5.19 4.4l-1.31 3.87-.82.79-.29.31c-3.02 3.23-4.99 7.25-6.55 11.34l-1.75 4.91c-2.76.25-5.52.53-8.26.93l-1.72.26 2.59-4.98-2.26-2.8c2.11-2.09 4.8-4.26 4.73-7.54.6-3.22-1.77-5.71-3.54-8.06l1.33-4.01c1.65-.6 3.32-1.12 5.02-1.57m-.76 6.93v.45h.45v-.45h-.45m7.97.02l-.01.45h.45l.01-.45h-.45m2.07-.01v.45h.45v-.45h-.45m-1.01 2.03v.45h.45v-.45h-.45m-2.04.93v.45h.45v-.45h-.45m-.97 2.05l.01.45h.45l-.01-.45h-.45m-7.04 1.04v.45h.45v-.45h-.45m6.06.94v.45l.45-.01v-.44h-.45m-6.05.98v.45h.46l-.01-.45h-.45z"/><path fill="#eca880" d="M203.33 155.13l-1.4-11.44 4.06 2.21 2.11 5.05-4.77 4.18z"/><path fill="#272a2f" d="M238.83 144.06l2.12 1.16c.81 3.02 1.85 5.98 3.04 8.87l-1.6.9c-1.05-3.36-2.58-6.58-4.92-9.24l1.36-1.69z"/><path fill="#39404b" d="M242.89 144.27c.62 3.35.72 6.78 1.57 10.1.71 1.24 1.5 2.44 2.27 3.65l-2.59 1.18c1 2.81 2.17 5.68 4.78 7.38-.2-2.19-.44-4.38-.94-6.51l1.62-1.81c.43 2.24.47 4.91 2.5 6.39l-3.47 3.41 5.46 1.05-.24.67c-.38 1.77-.41 3.59-.21 5.39-.75-1.68-1.45-3.38-2.15-5.07-1.04.43-2.03.95-3 1.51l-.85.51c-1.69-3.28-3.02-6.74-4.81-9.96-1.51-1.89-3.96-2.66-5.92-3.97l1.44-.88 1.99-1.16 2.05-1.16 1.6-.9c-1.19-2.89-2.23-5.85-3.04-8.87l1.94-.95z"/><path fill="#775543" d="M205.99 145.9l1.84-.83c1.08 2.24 1.88 4.62 2.6 7l.76 2.5-7.21 4.35 1.34 1.12 4.58 4.96-3.69-1.93-1.93-1.03-4.42-2.62.74-1.67 7.18-3.28.32-3.52c-.61-1.72-1.35-3.39-2.11-5.05z"/><path fill="#65676c" d="M254.01 152.88c-2.33-2.16-3.88-5.01-3.48-8.26l3.4 2.6 1.79 1.53-1.71 4.13z"/><path fill="#383b3c" d="M167.4 151.53c1-2.97 3.92-4.5 6.61-5.64l-1.33 4.01c1.77 2.35 4.14 4.84 3.54 8.06.07 3.28-2.62 5.45-4.73 7.54l2.26 2.8-2.59 4.98-8.12.94c-.16-7.76 1.69-15.45 4.36-22.69z"/><path fill="#626972" d="M236.94 146.43l.53-.68c2.34 2.66 3.87 5.88 4.92 9.24l-2.05 1.16c-1.33-3.17-2.73-6.33-3.4-9.72z"/><path fill="#545c65" d="M248.15 145.57c2.64 4.42 3.93 9.49 6.44 13.99 1.18 1.97 1.49 4.29.71 6.47l-3.2-1.38c-2.03-1.48-2.07-4.15-2.5-6.39l-1.62 1.81-1.25-2.05c-.77-1.21-1.56-2.41-2.27-3.65l4.43 1.98c-.53-3.57-.88-7.17-.74-10.78z"/><path fill="#715146" d="M253.93 147.22l2.3.19c.54 2.2 1.15 4.47 2.87 6.07l.42.5c2.05 2.43 4.66 4.48 6.14 7.36 1.32 3.65.64 7.67-.13 11.38l-1.68 2.43c-1.21-1.42-2.51-2.76-3.78-4.12l.85 5.67c-2.07-1.51-2.96-3.79-3.26-6.26l4.55-2.26c-1.85-2.86-4.55-5.1-6.25-8.03-.19-2.55.42-5.49-1.95-7.27l1.71-4.13-1.79-1.53z"/><path fill="#b1a099" d="M213.89 148.38l2.86.27 2.02 5.11-2.58 3.9c-.97-2.25-1.94-4.51-2.53-6.89l.23-2.39z"/><path fill="#67554f" d="M216.75 148.65c2.45-.16 4.88-.59 7.32-.91l2.67 1.14.31.72-4.01.6 2.31 4.43c-2.22-.04-4.41-.45-6.58-.87l-2.02-5.11z"/><path fill="#555c64" d="M245.14 148.63c1.57-.08 2.45 2.58 1.66 3.78-1.6.13-2.44-2.59-1.66-3.78z"/><path fill="#575556" d="M195.42 151.29c1.39-1.82 3.88-1.98 5.9-2.65-.04 3.35-.95 6.59-2.14 9.7l1.42-.59-.74 1.67-2.9 1.62c-1.8 1.67-2.98 3.88-3.97 6.1v-4.23c.78-2.23 2.18-4.19 3.01-6.4.27-1.75-.5-3.47-.58-5.22z"/><path fill="#8e8080" d="M223.04 150.2l4.01-.6 1.23 4.5-2.93.53-2.31-4.43z"/><path fill="#61666f" d="M233.93 149.54c1.93 2.3 3.49 4.9 4.42 7.77l-1.44.88c-1.59-2.65-2.42-5.64-2.98-8.65z"/><path fill="#babcbd" d="M178.27 151.25h.45v.45h-.45v-.45z"/><path fill="#979fa8" d="M186.24 151.27h.45l-.01.45h-.45l.01-.45z"/><path fill="#9aa3ad" d="M188.31 151.26h.45v.45h-.45v-.45z"/><path fill="#ab795d" d="M203.33 155.13l4.77-4.18-.32 3.52-7.18 3.28 2.73-2.62z"/><path fill="#1a1e24" opacity=".58" d="M258.76 152.02c5.97.17 11.78 1.63 17.63 2.66l27.28 4.64c.82 2.64 1.71 5.27 2.12 8.01 1.31 8.19.59 16.6-1.96 24.48l-.69 2.26-2.27-1.33c4.29-10.05 5.83-22.15.64-32.17l-33.89-6.39c-2.67-.63-5.41-.58-8.1-.2l-.42-.5-.34-1.46z"/><path fill="#a3a9b2" d="M187.3 153.29h.45v.45h-.45v-.45z"/><path fill="#9aa0a3" d="M185.26 154.22h.45v.45h-.45v-.45z"/><path fill="#d5cbc7" d="M189.44 155.84l.29-.31-.29.31z"/><path fill="#a17c6e" d="M203.98 158.92l7.21-4.35c2.92 2.44 4.98 5.65 6.89 8.89-.91 1.45-1.81 2.9-2.65 4.39-.75 3.8-.12 7.78-1.45 11.49l-.22.88-2.92-4.59 2.47-1.74c-.42-3.23-.42-6.49-.65-9.74-.07-2.49-2.02-4.3-3.36-6.21l-3.98 2.1-1.34-1.12z"/><path fill="#949a9f" d="M184.29 156.27h.45l.01.45h-.45l-.01-.45z"/><path fill="#c8c8c8" d="M177.25 157.31h.45v.45h-.45v-.45z"/><path fill="#8f9093" d="M183.31 158.25h.45v.44l-.45.01v-.45z"/><path fill="#dad4d8" d="M185.84 171.87c-.86-5.57 2.12-11.13 6.88-13.97-1.44 4.63-3.04 9.23-3.84 14.04l-3.04-.07z"/><path fill="#d19575" d="M205.32 160.04l3.98-2.1c1.34 1.91 3.29 3.72 3.36 6.21l.65 9.74-2.47 1.74-2.26-.22c-.76-3.67-2.18-7.16-3.53-10.64l1.16-1.7 3.69 1.93c-1.49-1.69-2.97-3.38-4.58-4.96z"/><path fill="#1c1e22" d="M244.14 159.2l2.59-1.18 1.25 2.05c.5 2.13.74 4.32.94 6.51-2.61-1.7-3.78-4.57-4.78-7.38z"/><path fill="#b4b1b5" d="M177.26 159.23h.45l.01.45h-.46v-.45z"/><path fill="#b68368" d="M196.96 161.04l2.9-1.62 4.42 2.62c-2.45.24-4.91.21-7.36-.07l.04-.93z"/><path fill="#a5948d" d="M192.99 167.14c.99-2.22 2.17-4.43 3.97-6.1l-.04.93-.08 2.65c-.5 1.76-1.15 3.48-1.79 5.2l-2.03-.14-.03-2.54z"/><path fill="#e0a07e" d="M196.92 161.97c2.45.28 4.91.31 7.36.07l1.93 1.03-1.16 1.7-3.37 4.32-4.84-4.47.08-2.65z"/><path fill="#454950" d="M239.05 161.85c1.13.87 2.61 1.43 3.38 2.69.52 1.82.52 3.73.69 5.61l-2.49-.07c-.34-2.78-.93-5.51-1.58-8.23z"/><path fill="#665c58" d="M190.81 172.61c.11-3.33 1.15-6.55 2.18-9.7v4.23l.03 2.54 2.03.14c1.95 2.36 4.66 3.77 7.63 4.41l-1-5.14 3.37-4.32c1.35 3.48 2.77 6.97 3.53 10.64l-.63.95c.27 1.21.64 2.4 1 3.59-3.49-2.16-7.34-3.66-11.41-4.24-2.33-.63-5.53-.6-6.73-3.1z"/><path opacity=".05" d="M218.08 163.46l.43.67c4.43 6.02 5.8 13.5 8.57 20.3-1.74 6.14-5.66 11.41-7.01 17.69-1.15.95-2.34 1.86-3.52 2.77.94-2.72 2.13-5.35 3.4-7.93.79-1.82 1.89-3.78 1.37-5.83-.52-2.1-1.58-4.01-2.46-5.96l2.26-5.96-2.86 3.85-2.83-15.21c.84-1.49 1.74-2.94 2.65-4.39z"/><path fill="#5c4c44" d="M195.05 169.82l1.79-5.2 4.84 4.47 1 5.14c-2.97-.64-5.68-2.05-7.63-4.41z"/><path fill="#72787e" d="M248.63 168.06l3.47-3.41 3.2 1.38-1.21 3.08-5.46-1.05z"/><path fill="#726e68" d="M181.14 172.09l1.75-4.91c.71 3.05 1.78 5.99 3.08 8.83l6.17 1.08.46.57 2.15 2.63 4.44.11c-.49 2.49-.7 5.03-.67 7.57l-3.52-3.44-2.57-3.16-2.4-2.44-1.48.48-.2-.01c-1.07-.3-2.11-.75-3.15-1.15-1.79-.29-3.58.05-5.27.63l-.79.26-.09 1.75-2.91 2.31-1.61-.32-3.49.99c.41-2.3.62-4.63.85-6.96l3.32-.68 4.8-1.02 1.13-3.12z"/><path fill="#585a5d" opacity=".67" d="M227.08 184.43c2.38-6.39 4.57-13.15 9.3-18.24l.37.77c-1.08 7.45-5.63 13.74-8.91 20.36-2.58 4.67-4.78 9.54-7.19 14.29l-.58.51c1.35-6.28 5.27-11.55 7.01-17.69z"/><path fill="#0c0d0e" opacity=".59" d="M305.79 167.33l.86-.11c.31 6.42.83 12.93-.38 19.29-.32 1.96-1.36 3.67-2.44 5.3 2.55-7.88 3.27-16.29 1.96-24.48z"/><path fill="#2b2320" opacity=".48" d="M213.98 179.34c1.33-3.71.7-7.69 1.45-11.49 1.03 5.05 1.96 10.12 2.83 15.21l2.86-3.85-2.26 5.96c-1.23-2.7-1.95-5.58-2.66-8.45l-.39 4.19-1.83-1.57z"/><path fill="#5e6268" d="M253.64 175.17c-.2-1.8-.17-3.62.21-5.39 1.96 2.82 3.12 6.1 3.15 9.56-1.26-1.26-2.66-2.49-3.36-4.17z"/><path fill="#bfafa6" d="M172.88 173.02l8.26-.93-1.13 3.12-4.8 1.02-2.33-3.21z"/><path fill="#616267" d="M247.64 172.12l.85-.51c3.57 3.78 4.93 8.91 6.46 13.73l-2.19-1.43-1.6-3.17c-1.42-2.77-2.5-5.69-3.52-8.62z"/><path fill="#0f0e0f" opacity=".36" d="M263.85 175.15l1.68-2.43c.92 1.92 1.71 3.9 2.2 5.98l-3.19-1.6-.69-1.95z"/><path fill="#383a3f" opacity=".98" d="M241.54 177.97l3.48-4.18 1.7 3.68-.57 1.51c-.51 1.36-.91 2.76-1.28 4.17l-2.31-3.43-1.02-1.75z"/><path fill="#5e4842" d="M162 175.65l.73 2.55.34 5.68c.32 3.24 3.08 5.64 3.6 8.8-1.05 1.86-2.58 3.37-3.98 4.95l-.24-2.35c.3-2.62 1.2-5.25.44-7.87-.89-3.85-1.44-7.81-.89-11.76z"/><path fill="#c3bdb7" d="M192.14 177.09l.96-1.34.77-.04.45.54-.19.74-1.53.67-.46-.57z"/><path fill="#d69576" d="M166.94 177.73l4.95-.82-.85 6.96-1.47 5.04-.21.84c-2.01-1.58-4.99-2.95-5.12-5.87.27-2.26 1.69-4.16 2.7-6.15z"/><path fill="#ebe1de" d="M196.26 177.16l.72-.4.71.43-.01.82-.73.4-.71-.42.02-.83z"/><path fill="#5e5754" opacity=".9" d="M216.2 176.72c.71 2.87 1.43 5.75 2.66 8.45.88 1.95 1.94 3.86 2.46 5.96.52 2.05-.58 4.01-1.37 5.83-1.27 2.58-2.46 5.21-3.4 7.93l3.52-2.77.58-.51-1.59 3.01-1.22 1.65c-1.66 2.06-2.9 4.4-4.16 6.71l-.97-3.29 1.21-2.72a358.23 358.23 0 0 1 4.55-12.62c.66-1.5.7-3.16.16-4.7-1.56-3.18-3.29-6.26-4.87-9.43l.22-.88 1.83 1.57.39-4.19z"/><path fill="#3e4248" opacity=".89" d="M264.54 177.1l3.19 1.6-.05 4.72c-1.58-1.82-2.46-4.05-3.14-6.32z"/><path fill="#b87e63" d="M162.73 178.2l4.21-.47c-1.01 1.99-2.43 3.89-2.7 6.15.13 2.92 3.11 4.29 5.12 5.87-.35 1.63-.6 3.28-.8 4.94-2.69 1.58-4.49 4.11-5.02 7.19l-.85-4.25c1.4-1.58 2.93-3.09 3.98-4.95-.52-3.16-3.28-5.56-3.6-8.8-.21-1.89-.21-3.79-.34-5.68z"/><path fill="#7f7c80" d="M179.93 178.88c1.69-.58 3.48-.92 5.27-.63l-.4.77-.41.76c-1.47 1.09-3.11 2-4.3 3.41-1.39 2.41-1.59 5.27-2.11 7.96l-.59.59.26 1.65 1.61 5.43.54 2.45.69 3.35c-2.57-1.79-3.25-4.96-4.57-7.6-1.12-2.36-3.01-4.2-4.7-6.15l.82-.24.36-.72-.49-.6-.81.19-.43.74-1.1-1.33 1.47-5.04 3.49-.99-.45 1.47.56.44.72-.22.78-1.37 2.91-2.31 1.15-1.22-.27-.79z"/><path fill="#a1a0a2" d="M185.2 178.25l3.15 1.15a1.34 1.34 0 0 1 .2.01l1.48-.48 2.4 2.44-2.93 2 2.65.18-1.62 6.18-4.92 3.17.67 2.49-3.16 1.06-1.77.57-2.09 1.8-1.61-5.43.76-1.5-.43-.74c.52-2.69.72-5.55 2.11-7.96 1.19-1.41 2.83-2.32 4.3-3.41l-1.42 3.27 4.16.8-2.33-4.83.4-.77m-4.62 7.78c-1.3.54-.9 3.17.65 2.82 1.39-.51.94-3.25-.65-2.82m2.71 4.25l-.01.45h.45l.01-.45h-.45z"/><path fill="#646468" opacity=".93" d="M246.15 178.98l.57-1.51 2.25 4.59 1.63 4.43-2.88-3.39c-.64-1.33-1.17-2.7-1.57-4.12z"/><path fill="#c2beb3" d="M179.14 179.14l.79-.26.27.79-1.15 1.22.09-1.75z"/><path fill="#aca7ad" d="M199.62 179.05c2.8 3.35 3.35 7.88 5.42 11.64l.1 1.6.01.4-.03.66-1.58.06c-1.58-.83-3.1-1.74-4.7-2.53l-.32-2.91c-.03-2.54.18-5.08.67-7.57.1-.34.32-1.01.43-1.35z"/><path fill="#2d2d2f" opacity=".73" d="M244.87 183.15l1.28-4.17c.4 1.42.93 2.79 1.57 4.12l-1.01 2.67-1.84-2.62z"/><path fill="#d3d1d3" d="M184.39 179.78l.41-.76 2.33 4.83-4.16-.8 1.42-3.27z"/><path fill="#f2f2ee" d="M188.35 179.4l.2.01c-.05-.01-.15-.01-.2-.01z"/><path fill="#45423f" d="M205.26 180.36l.77.23.18.86-.58.63-.67-.26-.24-.85.54-.61z"/><path fill="#d5d1c7" d="M210.45 179.46c3.09 2.51 5.3 6.1 4.97 10.22-1.54-1.93-3.08-3.86-4.4-5.94-.24-1.42-.41-2.85-.57-4.28z"/><path fill="#292b30" opacity=".97" d="M248.97 182.06l2.19-1.32 1.6 3.17c-.39 1.53.52 3.3 2.28 3.22l1.35 2.48-3.4 1.28-2.39-4.4-1.63-4.43z"/><path fill="#979598" d="M189.5 183.37l2.93-2 2.57 3.16-1.04 5.61-1.35 1.23-1.93-.91-.15-.73 1.62-6.18-2.65-.18z"/><path fill="#bcbaad" d="M205.36 185.35c-.99-.64-1.67-2.92-.4-3.53l.67.26c.7.8 1.04 2.94-.27 3.27z"/><path fill="#525760" d="M259.15 182.22l2.51.46c4.02 7.19 5.64 15.51 10.24 22.38-1.21-6.08-5.24-11.19-6.2-17.31l.8-1.25c.81 1.21 1.61 2.42 2.37 3.66l3.01 7 1.14 3.9c1.1 3.2.87 6.6 1.32 9.9.87 3.48 2.48 6.73 3.53 10.17l-4.18-.5c-.29-2.5-.51-5.01-1.1-7.46-.62-2.64-2.32-4.81-3.65-7.11-2.29-3.7-3.55-7.9-5.2-11.9-1.61-3.95-3.19-7.91-4.59-11.94z"/><path fill="#afaba3" d="M174.53 182.88l1.61.32-.78 1.37-.72.22-.56-.44.45-1.47z"/><path fill="#5b5655" d="M208.27 183.16l2.75.58c1.32 2.08 2.86 4.01 4.4 5.94l-.06 2.64c-.44 2.61-1.63 5.01-3.25 7.08l-2.46-1.12c.57-2.51 1.51-5.01 1.4-7.62-.45-2.65-1.74-5.05-2.78-7.5z"/><path fill="#202122" opacity=".63" d="M252.76 183.91l2.19 1.43.09 1.79c-1.76.08-2.67-1.69-2.28-3.22z"/><path fill="#c5c1c6" d="M193.96 190.14l1.04-5.61 3.52 3.44.32 2.91-4.88-.74z"/><path fill="#cac4c1" d="M180.58 186.03c1.59-.43 2.04 2.31.65 2.82-1.55.35-1.95-2.28-.65-2.82z"/><path fill="#716e6e" d="M169.36 189.75l.21-.84 1.1 1.33.55.63c1.69 1.95 3.58 3.79 4.7 6.15 1.32 2.64 2 5.81 4.57 7.6l1.39.84 5.24 2.18.39 3.17.01 1.79-4.39 2.49-1.42-2.89-1.71-2.85-8.39-1.08 3.14.1-3.33-7.08 2.8 1.02-.04-2.55c-2.32-1.13-4.52-2.63-5.62-5.07l.8-4.94m1.67 3.78c-.91 1.16-.66 1.81.76 1.97.92-1.16.67-1.82-.76-1.97z"/><path fill="#bcb5af" d="M171.1 189.5l.81-.19.49.6-.36.72-.82.24-.55-.63.43-.74z"/><path fill="#6e696a" d="M205.04 190.69l1.88-1.56.71 8.24 2.02.91 2.46 1.12-4.19 5.32-.94.9-.22-3.04-2.04.22c-.2-2.09-.17-4.19 0-6.28l.4-3.17.03-.66-.01-.4-.1-1.6z"/><path d="M183.29 190.28h.45l-.01.45h-.45l.01-.45zm21.85 2.01l.01.4-.01-.4zm-34.11 1.24c1.43.15 1.68.81.76 1.97-1.42-.16-1.67-.81-.76-1.97z" fill="#fff"/><path fill="#d0cdcf" d="M185.61 192.9l4.92-3.17.15.73 1.19 3.53c-1.9.29-3.76.81-5.59 1.4l-.67-2.49z"/><path fill="#e6e0e4" d="M192.61 191.37l1.35-1.23 4.88.74 4.7 2.53-.84.04-9.41.4-1.42.14-1.19-3.53 1.93.91z"/><path fill="#7c7676" d="M218.63 189.65c.54 1.54.5 3.2-.16 4.7a358.23 358.23 0 0 0-4.55 12.62l-4.83.03 1.14-2.87-2.31.59 4.19-5.32c1.62-2.07 2.81-4.47 3.25-7.08l3.27-2.67z"/><path fill="#0d0e0f" opacity=".54" d="M268.87 190.16c1.48 2.11 2.42 4.51 3.01 7l-3.01-7z"/><path fill="#fffbf8" d="M177.39 191.74l.59-.59.43.74-.76 1.5-.26-1.65z"/><path fill="#8e8d91" d="M191.87 193.99l1.42-.14-.51 1.97c-.56 1.99-1.05 4.01-1.18 6.08l-2.35 1.25.76-2.18-2.39 1.5-3.4-2.36 1.68 4.59a42.47 42.47 0 0 1-4.02.76l-1.39-.84-.69-3.35 1.99.3 1.33-5.12 3.16-1.06c1.83-.59 3.69-1.11 5.59-1.4z"/><path fill="#c6c0c6" d="M193.29 193.85l9.41-.4c-2.37 2.93-5.96 4.05-9.56 4.49l-.36-2.12.51-1.97z"/><path fill="#343a44" d="M300.87 192.74l2.27 1.33c-2.2 5.66-5.89 10.62-10.32 14.74-2.18 1.97-4.39 4.11-7.23 5.06l-1.49.4-2.07.56.05-1.68-.1-.91c8.36-4.04 14.66-11.36 18.89-19.5z"/><path fill="#8d898d" d="M193.14 197.94c3.6-.44 7.19-1.56 9.56-4.49l.84-.04 1.58-.06-.4 3.17c-1.17 1.71-2.46 3.33-3.75 4.95h-1.65l-.8-1.95 1.2-1.16-.46-.58-1.21.99c-1.29 1.19-2.67 2.26-4.05 3.33l-.86-4.16z"/><path fill="#5e5756" d="M158.37 197.25l4.08-1.97.24 2.35.85 4.25 2.38 2.94-3.89 4.04c-.7 0-2.1-.02-2.8-.03l.07.87-.28 8.42c-1.09-1.99-2.43-3.82-3.8-5.62-2.72 3.89-6.6 7.59-6.73 12.65-.27 2.59-.52 5.19-.61 7.8.28 1.66.67 3.3 1.19 4.9-2.03-2.37-3.9-5.29-3.56-8.55.5-5.12 1.69-10.62 5.44-14.4 1.91-2.04 4.56-3.09 7.07-4.18.43-4.48.35-8.98.35-13.47z"/><path fill="#e29f7e" d="M163.54 201.88c.53-3.08 2.33-5.61 5.02-7.19 1.1 2.44 3.3 3.94 5.62 5.07l.04 2.55-2.8-1.02 3.33 7.08-3.14-.1-.88-.12-4.81-3.33-2.38-2.94z"/><path fill="#c6bfbe" d="M181.35 197.02l1.77-.57-1.33 5.12-1.99-.3-.54-2.45 2.09-1.8z"/><path fill="#6e676b" d="M191.6 201.9c.13-2.07.62-4.09 1.18-6.08l.36 2.12.86 4.16 4.05-3.33.47.75.8 1.95h1.65l.12 4.04-5.31 1.61-.8.24.19 1.83.28.92-3.4.46 2.03 1.7 8.92-.81c2.61-.43 4.41-2.6 6.09-4.46l4.83-.03-1.21 2.72c-2.04 2.26-4.36 4.54-4.64 7.76l-.24 2.74-1.63.13-.38-2.42-3.28-.09 1.56-.73c-3.11-1.19-6.4-1.76-9.71-1.99l-.58 4.07c-1.09-2.8-3.04-5.52-2.68-8.67l.47-8.59m1.72 6.39v.45h.45v-.45h-.45z"/><path fill="#777373" d="M200.97 201.47l3.75-4.95c-.17 2.09-.2 4.19 0 6.28l.72 4.2c-3.06 1.77-6.47 2.81-9.99 3.11l-.28-.92.96-1.34-.35-.73 5.31-1.61-.12-4.04m-3.64 5.77v.45l.45.01v-.45l-.45-.01z"/><path fill="#bbb5b9" d="M198.05 198.77l1.21-.99.46.58-1.2 1.16-.47-.75z"/><path fill="#b2adaf" d="M184.22 200.11l3.4 2.36 2.39-1.5-.76 2.18-3.35 1.55-1.68-4.59z"/><path fill="#7e797b" d="M191.6 201.9l-.47 8.59c-.36 3.15 1.59 5.87 2.68 8.67l-.03.87-.12 3.24-.51-.55c-1.7-4.06-3.54-8.05-5.64-11.91l-.39-3.17c-1.77-.69-3.53-1.38-5.24-2.18a42.47 42.47 0 0 0 4.02-.76c1.13-.49 2.25-1 3.35-1.55l2.35-1.25z"/><path fill="#5d5857" d="M204.72 202.8l2.04-.22.22 3.04.94-.9 2.31-.59-1.14 2.87c-1.68 1.86-3.48 4.03-6.09 4.46-2.95.53-5.94.58-8.92.81l-2.03-1.7 3.4-.46c3.52-.3 6.93-1.34 9.99-3.11-.27-1.4-.54-2.79-.72-4.2z"/><path fill="#7c777b" d="M162.03 208.86l3.89-4.04c1.54 1.2 3.16 2.28 4.81 3.33.58 1.11 1.16 2.25 1.36 3.5-.9 1.44-2.09 2.66-3.19 3.95l-1.47-1-5.4-5.74z"/><path fill="#33373e" opacity=".97" d="M217.84 206.27l1.22-1.65c1.18 4.18 3.39 7.98 6.57 10.95a57.93 57.93 0 0 0 2.23 2.2c4.21 3.81 9.39 6.83 15.11 7.48 4.56.47 9.23.32 13.71-.67 3.17-.71 5.91-2.53 8.68-4.15.39-.01 1.16-.05 1.55-.07l-.22.71.44.63.8.1c-1.27 1.11-2.62 2.13-4.03 3.07-4.99 3.34-11.2 2.75-16.89 2.51-10.01-.51-19.49-5.78-25.67-13.61-.74-1.22-1.41-2.47-2.02-3.75-.57-1.22-1.03-2.49-1.48-3.75z"/><path fill="#b1aaa6" d="M194.98 207.36l.8-.24.35.73-.96 1.34-.19-1.83z"/><path fill="#d8cdca" d="M197.33 207.24l.45.01v.45l-.45-.01v-.45z"/><path fill="#99969a" d="M170.73 208.15l.88.12 8.39 1.08-2.1 2.07 3.81.78 1.42 2.89 4.39-2.49.3 8.49-2.88-1.8-.04 1.71-2.87-5.37-3.97 1.56-1.85-1.03 1.39-3.28c-1.53 1.14-3.01 2.37-4.74 3.21-1.34.03-2.66-.24-3.96-.49 1.1-1.29 2.29-2.51 3.19-3.95-.2-1.25-.78-2.39-1.36-3.5z"/><path fill="#a89e91" d="M193.32 208.29h.45v.45h-.45v-.45z"/><path fill="#bfb1a7" d="M159.23 208.83l2.8.03 5.4 5.74-4.13.86c-.52 3.42-.65 6.89-.25 10.33l-2.13 1.46-1.28-2.5.6-1.46c.85-2.68 1.82-5.44 1.72-8.29-.51-1.93-1.74-3.56-2.66-5.3l-.07-.87z"/><path fill="#d8d3d3" d="M159.3 209.7c.92 1.74 2.15 3.37 2.66 5.3.1 2.85-.87 5.61-1.72 8.29l-.84-.56-.38-4.61c-.05-2.81.16-5.62.28-8.42z"/><path fill="#b6b1b4" d="M177.9 211.42l2.1-2.07 1.71 2.85-3.81-.78z"/><path fill="#a57b67" opacity=".97" d="M208.07 217.45c.28-3.22 2.6-5.5 4.64-7.76l.97 3.29c-.29.9-.83 1.61-1.62 2.14l-3.99 2.33z"/><path fill="#020202" opacity=".51" d="M216.54 210.44l2.78-.42 2.02 3.75c-2.12-.31-4.11-1.13-4.8-3.33z"/><path fill="#f4edf1" d="M187.51 210.81c2.1 3.86 3.94 7.85 5.64 11.91l1.43 4.32-3.45-1.09c-1.15-1.59-2.22-3.24-3.31-4.86-.31-2.82-.32-5.66-.3-8.49l-.01-1.79z"/><path fill="#918d94" d="M148.49 225.15c.13-5.06 4.01-8.76 6.73-12.65 1.37 1.8 2.71 3.63 3.8 5.62.1 1.53.21 3.07.38 4.61-1.72.43-3.45.88-5.04 1.68-.68 1.48-.92 3.1-1.19 4.7l-.11.72c-1.07-1.96-2.67-3.52-4.57-4.68z"/><path fill="#fefcfc" d="M172.86 216.09c1.73-.84 3.21-2.07 4.74-3.21l-1.39 3.28 1.85 1.03 3.97-1.56 2.87 5.37c1.81 3.97 5.01 7.01 7.61 10.45 2.18 2.64.7 6.24.4 9.26-.81.76-1.32 1.75-2.14 2.5-4.54 2.14-9.27 3.86-14.07 5.32-4.12-2.45-8.21-5.17-11.34-8.86-1.69-1.85-1.41-4.51-1.69-6.82 2.43 2.25 4.53 4.8 6.55 7.41 1.92.59 3.73-.38 5.45-1.11l3.03 1.63c2.98 1.2 6.21.06 8.89-1.36 2.18-1.22 3.17-3.66 4.43-5.69-4.02.78-8.01 2.04-11.38 4.41-.93-1.76-1.83-3.54-2.71-5.32l-2.89 2.82c-1.91-1.59-4.05-2.88-6.37-3.77l-.59-1.81-.96-3.17-4.07-1.1c-.4-3.44-.27-6.91.25-10.33l4.13-.86 1.47 1c1.3.25 2.62.52 3.96.49m-.92.59c-.03 4.06-.03 8.34 2.11 11.97 1.55-3.61.57-7.65-.41-11.28l-1.7-.69m6.17 11.49l-.35.83.35.83.83.34.83-.35.35-.83-.35-.82-.83-.35-.83.35m3.13 5.06l-.35.83.34.83.83.35.83-.35.35-.83-.34-.83-.83-.34-.83.34z"/><path fill="#696f79" d="M280.57 213.19l1.51-.04-.05 1.68-1.5-.3-.31-.69.35-.65z"/><path fill="#090909" opacity=".45" d="M284.1 214.27l1.49-.4.38.61-1 1.31-.8-.17-.36-.66.29-.69z"/><path fill="#dacec9" d="M194.39 215.09c3.31.23 6.6.8 9.71 1.99l-1.56.73c-3.01.32-5.99.97-8.76 2.22l.03-.87.58-4.07z"/><path fill="#35271d" d="M208.07 217.45l3.99-2.33-2.22 8.86c1.6 2.82 3.78 5.6 3.79 9.01.15 3.19.29 6.43-.24 9.61-.38 2.17-2.47 3.32-3.96 4.7 2.26-3.95 3.98-8.44 3.37-13.06-.07-3.19-2-5.81-3.68-8.36-.58-1.86-1.01-3.77-1.29-5.69l.24-2.74z"/><path fill="#ece4e2" d="M171.94 216.68l1.7.69c.98 3.63 1.96 7.67.41 11.28-2.14-3.63-2.14-7.91-2.11-11.97z"/><path fill="#686263" d="M202.54 217.81l3.28.09.38 2.42 1.63-.13c.28 1.92.71 3.83 1.29 5.69l-6.87-3.12c-2.04-.75-4.16-1.22-6.28-1.66l2.25 3.79c2.29 2.82 4.65 5.69 5.91 9.17.16 1.25.26 2.5.37 3.76-.38 1.23-.8 2.44-1.21 3.66a99.24 99.24 0 0 1-2.8-2.61c-.63-.64-1.24-1.28-1.84-1.93-2.11.91-4.23 1.98-5.74 3.77.3-3.02 1.78-6.62-.4-9.26-2.6-3.44-5.8-6.48-7.61-10.45l.04-1.71a65.96 65.96 0 0 1 2.88 1.8l3.31 4.86c1.94 2.61 4.48 4.97 7.71 5.82 2.01-.86-.32-2.59-.83-3.78-1.33-1.68-2.86-3.19-4.35-4.72l.12-3.24c2.77-1.25 5.75-1.9 8.76-2.22z"/><path fill="#5a5d63" d="M266.91 220.36l.88.05.63.71-.49.68-.8-.1-.44-.63.22-.71z"/><path fill="#e2d9de" d="M195.97 221.1c2.12.44 4.24.91 6.28 1.66l.25 2.17-4.28-.04c-.82-1.23-1.54-2.51-2.25-3.79z"/><path fill="#68656a" opacity=".94" d="M154.36 224.41c1.59-.8 3.32-1.25 5.04-1.68l.84.56-.6 1.46c-1.66 2.06-4.15 3.18-6.47 4.36.27-1.6.51-3.22 1.19-4.7z"/><path fill="#9d9a9d" d="M193.15 222.72l.51.55 4.35 4.72c-1.48-.18-2.04.39-1.68 1.7 1.31.33 1.87-.23 1.68-1.7.51 1.19 2.84 2.92.83 3.78-3.23-.85-5.77-3.21-7.71-5.82l3.45 1.09-1.43-4.32z"/><path fill="#8e8990" d="M202.25 222.76l6.87 3.12-.63 3.14-4.25-3.24.71 3.14 3.43.89c2.05.94 2.73 3.11 3.35 5.09l-1.32 1.01-2.41-1.87-1.1 1.5-2.77-1.48c-1.26-3.48-3.62-6.35-5.91-9.17l4.28.04-.25-2.17m4.92 8.64c-.42 1.4.06 1.87 1.47 1.41.42-1.41-.07-1.88-1.47-1.41z"/><path fill="#a59fa5" d="M147.88 232.95l.61-7.8c1.9 1.16 3.5 2.72 4.57 4.68l-1.3 2.29-3.88.83z"/><path fill="#dbd5d4" opacity=".97" d="M163.05 225.79l4.07 1.1.96 3.17-2.17 2.23-3.71-3.34-1.28-1.7 2.13-1.46z"/><path fill="#bbb5bc" d="M204.24 225.78l4.25 3.24-.11.79-3.43-.89-.71-3.14z"/><path fill="#7d787c" d="M209.12 225.88c1.68 2.55 3.61 5.17 3.68 8.36.61 4.62-1.11 9.11-3.37 13.06-1.24.96-2.83 1.27-4.26 1.84l-1.54.58-.89-2.37 2.98-3.63c-.44-1.96-.9-3.92-1.22-5.9-.11-1.26-.21-2.51-.37-3.76l2.77 1.48c.4 2.84.86 5.68 1.47 8.5 1.24-2.54 1.93-5.3 2.04-8.13l1.32-1.01c-.62-1.98-1.3-4.15-3.35-5.09l.11-.79a83.02 83.02 0 0 1 .63-3.14z"/><path fill="#e8e1dc" d="M178.11 228.17l.83-.35.83.35.35.82-.35.83-.83.35-.83-.34-.35-.83.35-.83z"/><path fill="#d1cfca" d="M196.33 229.69c-.36-1.31.2-1.88 1.68-1.7.19 1.47-.37 2.03-1.68 1.7z"/><path fill="#979094" d="M162.2 228.95l3.71 3.34 2.17-2.23.59 1.81-1.46 2.15 5.73 5.43-2.72.81c-2.02-2.61-4.12-5.16-6.55-7.41.28 2.31 0 4.97 1.69 6.82 3.13 3.69 7.22 6.41 11.34 8.86 4 1.46 8.31.16 11.82-1.95 1.32-.67 1.82-2.05 2.25-3.37.82-.75 1.33-1.74 2.14-2.5 1.51-1.79 3.63-2.86 5.74-3.77.6.65 1.21 1.29 1.84 1.93-.94 1.24-1.82 2.54-2.51 3.95l-1.85-.85c-.61 3.33-1.68 6.57-3.29 9.56l.23-5.61c-3.48 1.67-6.92 3.72-9.18 6.95-3.22-1.73-6.84-2.39-10.24-3.6-3.41-1.24-5.55-4.38-7.78-7.05-3.11-3.68-3.47-8.67-3.67-13.27z"/><path fill="#afa8af" d="M207.17 231.4c1.4-.47 1.89 0 1.47 1.41-1.41.46-1.89-.01-1.47-1.41z"/><path fill="#888388" d="M147.88 232.95l3.88-.83 1.24 5.89-3.45 1.18-.48-1.34c-.52-1.6-.91-3.24-1.19-4.9z"/><path fill="#e0d8d5" d="M168.67 231.87c2.32.89 4.46 2.18 6.37 3.77l2.89-2.82 2.71 5.32-1.94 2.64-3.03-1.63c-1.72.73-3.53 1.7-5.45 1.11l2.72-.81-5.73-5.43 1.46-2.15z"/><path fill="#dfd6d0" d="M181.24 233.23l.83-.34.83.34.34.83-.35.83-.83.35-.83-.35-.34-.83.35-.83z"/><path fill="#b4a598" d="M180.64 238.14c3.37-2.37 7.36-3.63 11.38-4.41-1.26 2.03-2.25 4.47-4.43 5.69-2.68 1.42-5.91 2.56-8.89 1.36.63-.89 1.26-1.78 1.94-2.64z"/><path fill="#a39ea4" d="M206.9 235.54l1.1-1.5 2.41 1.87c-.11 2.83-.8 5.59-2.04 8.13l-1.47-8.5z"/><path fill="#8a8583" opacity=".88" d="M149.55 239.19l3.45-1.18.83-.28 1.37 3.7c-1.95-.56-3.83-1.33-5.65-2.24z"/><path fill="#c3b7b2" d="M203.29 241.48l1.21-3.66 1.22 5.9-2.98 3.63.89 2.37-2.89 2.7c-1.56.15-3.12-.11-4.66-.24l1.9-9.36c.69-1.41 1.57-2.71 2.51-3.95l2.8 2.61z"/><path fill="#a6958e" d="M165.87 242.22c2.23 2.67 4.37 5.81 7.78 7.05 3.4 1.21 7.02 1.87 10.24 3.6l.03.86c-2.72.76-5.86 1.53-8.44-.08-2.69-1.6-5.33-3.34-7.64-5.45-1.7-1.49-1.47-3.98-1.97-5.98z"/><path fill="#82726d" d="M196.13 241.97l1.85.85-1.9 9.36c1.54.13 3.1.39 4.66.24 1.02-.83 1.91-1.81 2.89-2.7l1.54-.58c-1.05 1.57-1.88 3.49-3.68 4.36-2.24.42-4.49-.25-6.72-.48-3.63-.62-7.26.31-10.85.71l-.03-.86c2.26-3.23 5.7-5.28 9.18-6.95l-.23 5.61c1.61-2.99 2.68-6.23 3.29-9.56z"/><path fill="#868388" d="M176.7 248.53c4.8-1.46 9.53-3.18 14.07-5.32-.43 1.32-.93 2.7-2.25 3.37-3.51 2.11-7.82 3.41-11.82 1.95z"/></svg>