<svg xmlns="http://www.w3.org/2000/svg" width="512" height="512" viewBox="0 0 384 384" xmlns:v="https://vecta.io/nano"><path fill="#36383c" d="M304.4 158.29c8.51-7.21 17.13-14.35 25.03-22.25 15.28 1.48 29.92 13.27 32.3 28.86-.68 4.53-.41 9.12-.72 13.68-1.8 1.21-.29 3.75 1.58 2.5.14 1.08.31 2.16.48 3.24-1.1.27-2.21.52-3.32.76l-1.84-.08c-5.75-.37-11.49-1.09-17.01-2.78l10.14.4 6.78.23c3.14-6.25 3.38-13.58 1.72-20.28-2.97-10.41-11.38-18.7-21.23-22.81-2.6-1.03-5.33-2.02-8.15-1.92-2.98 1.22-5.26 3.6-7.64 5.69-5.63 5.16-11.71 9.91-16.87 15.52.82 2.68 2.68 4.87 4.5 6.93l-1.59.1c-1.58-2-3.32-3.88-5.32-5.46l-2.76 3.37 3.29 2.13c-2.5-.14-5.07-.82-7.54-.16-2.02.93-3.63 2.52-5.31 3.94-.79-1.45-1.45-2.99-2.47-4.3-3.4-2.14-7.58-2.65-10.97-4.85l-.59-.4 5.77-1.14-.83 2.63c3.31 1.24 6.44 3.03 9.9 3.83 4.29.2 8.15-2.18 10.75-5.45a49.9 49.9 0 0 1 1.92-1.93z"/><path fill="#373939" d="M194.91 141.72c1.43-.73 3.01-1.24 4.63-.99 4.56.48 9.14.62 13.7 1.01l-2.21.83c3.56.92 7.53 1.42 10.33 4.04 2.71 2.53 4.79 6.27 4.14 10.08-.53 3.03-1.53 6.01-3.09 8.68-1.14 1.98-3.32 2.93-5.18 4.1.31-3.24.64-6.47.75-9.72l-1.58.67c-1.32 3.16-1.26 6.83-3.24 9.73-1.85 2.92-4.8 4.94-7.98 6.17-2.09-.14-4.17-.39-6.25-.63 1.21-2.55 2.43-5.25 4.7-7.05 2.76-2.24 5.96-3.85 8.98-5.71-.63-.93-1.26-1.86-1.83-2.83l.09-1.19c2.13-.44 4.19-1.14 6.19-2-1.79-5.27-5.43-9.74-9.9-12.99-3.51-2.59-8.11-2.36-12.25-2.2z"/><path fill="#ab9b93" d="M181.71 150.81c4.49-2.9 8.67-6.26 13.2-9.09 4.14-.16 8.74-.39 12.25 2.2 4.47 3.25 8.11 7.72 9.9 12.99-2 .86-4.06 1.56-6.19 2l.11-.88 2.51-1.4c-1.3-4.71-5.18-8.05-9.01-10.77-2.59-1.61-5.62-3.16-8.75-2.37-4.11 1.06-7.1 4.32-10.27 6.92-3.74 3.16-7.51 7.24-7.56 12.44 1.26 2.59 4.47 3.18 6.76 4.58 1.59.86 3.11 1.85 4.63 2.84-.79.88-1.55 1.79-2.3 2.7l-2.43-3.07h-2.51c-4-1.16-6.49-4.6-8.39-8.07 2.61-3.72 3.95-8.55 8.05-11.02z"/><path fill="#a08f88" d="M211.03 142.57l2.21-.83c3.6.85 7.04 2.26 10.62 3.21 1.93 3.77 4.1 7.75 3.44 12.16-.34 2.03-.85 4.04-1.41 6.03l-.76 1.37c2.7-.42 5.43-.75 8.15-1.11-3.17.76-6.5 1.02-9.51 2.29-1.23 1.2-2.15 2.67-3.14 4.06l-3.05 1c-1.57.55-3.12 1.18-4.61 1.93-1.16 1.81-2.14 3.73-3.09 5.66-1.84.25-3.68.54-5.51.88l-1.38-1.96 2.19-.94c3.18-1.23 6.13-3.25 7.98-6.17 1.98-2.9 1.92-6.57 3.24-9.73l1.58-.67c-.11 3.25-.44 6.48-.75 9.72 1.86-1.17 4.04-2.12 5.18-4.1 1.56-2.67 2.56-5.65 3.09-8.68.65-3.81-1.43-7.55-4.14-10.08-2.8-2.62-6.77-3.12-10.33-4.04z"/><path fill="#3d403f" d="M195.73 143.49c3.13-.79 6.16.76 8.75 2.37-2.09 2.18-4.95 2.99-7.89 3.03l-1.92 8.64-3.06-.2.52 2.22c-2.56 2.57-5.05 5.18-7.47 7.88-2.29-1.4-5.5-1.99-6.76-4.58.05-5.2 3.82-9.28 7.56-12.44 3.17-2.6 6.16-5.86 10.27-6.92m-2.48 10.77v.45h.45v-.45h-.45z"/><path fill="#58514f" opacity=".75" d="M244.91 146.02l4.17-1.73c1.99.11 3.62 1.47 5.33 2.38 2.56 1.65 5.43 2.7 8.2 3.93 2.46 1.07 4.32 3.06 6.36 4.72-3.55-1.96-7.15-3.83-10.84-5.5-2.15-1.05-4.39-1.88-6.73-2.34l-2.23-1.16-1.61-.81c-1.62 2.27-2 5.09-2.37 7.79.04-2.08-.05-4.14-.19-6.21l-.09-1.07z"/><path fill="#9c6f58" d="M223.86 144.95c2.1.38 4.22.63 6.35.82 1.3 2.15 2.85 4.29 3.29 6.82.23 1.94-.05 3.89-.2 5.82l-2.05-2.39-3.19-4.09-.76 5.18c.66-4.41-1.51-8.39-3.44-12.16m3.95 1.76c1.02 2.69 2.43 5.23 4.39 7.36-.16-3.07-1.72-5.8-4.39-7.36z"/><path fill="#4b4f51" d="M204.48 145.86c3.83 2.72 7.71 6.06 9.01 10.77l-2.51 1.4-4.33 1.2c-.15.04-.43.13-.57.17-4.45 1.33-9.24 2.64-12.27 6.44a142.92 142.92 0 0 0-3.07 2.96l-1.45 1.47c-1.52-.99-3.04-1.98-4.63-2.84 2.42-2.7 4.91-5.31 7.47-7.88l-.52-2.22 3.06.2c.74-2.86 1.36-5.74 1.92-8.64 2.94-.04 5.8-.85 7.89-3.03m2.81 8.24v.82l.72.41.72-.41v-.82l-.72-.41-.72.41m-2 1.15v.45h.45v-.45h-.45m-3.99 2.02l-.01.45.46.01v-.46h-.45m2.98-.01v.45l.45-.01v-.44h-.45m-12.02 7.01l-.01.45.45.01.01-.45-.45-.01z"/><path fill="#e6a07d" d="M230.21 145.77c4.89.34 9.81.62 14.7.25l.09 1.07-4.81.48c-.06 2.38.23 4.76.87 7.05l4.02-.37-.21 1.7-.21 1.49c-.86 1.47-1.76 2.92-2.65 4.37l-.8-.12-.71-1.15a197 197 0 0 1-7.52 1.58l.32-3.71c.15-1.93.43-3.88.2-5.82-.44-2.53-1.99-4.67-3.29-6.82z"/><path fill="#beb8ba" d="M245.19 153.3c.37-2.7.75-5.52 2.37-7.79l1.61.81-1.37 3.55 1.81 1.27-.68 1.34-2.08 4.01-1.98-.54.21-1.7.11-.95z"/><path fill="#d18c69" d="M227.81 146.71c2.67 1.56 4.23 4.29 4.39 7.36-1.96-2.13-3.37-4.67-4.39-7.36z"/><path fill="#fbb28b" d="M240.19 147.57l4.81-.48.19 6.21-.11.95-4.02.37c-.64-2.29-.93-4.67-.87-7.05z"/><path fill="#928f8f" d="M247.8 149.87l1.37-3.55 2.23 1.16-1.79 3.66-1.81-1.27z"/><path fill="#a7a4a6" d="M251.4 147.48c2.34.46 4.58 1.29 6.73 2.34l-.1 1.87-1.73 2.41-.94-3.08c-.74 2.44-1.88 4.91-4.47 5.83l-.46.26-1.5-4.63.68-1.34 1.79-3.66z"/><path fill="#888588" d="M258.13 149.82c3.69 1.67 7.29 3.54 10.84 5.5l1.5.88c-1.28 1.28-2.59 2.52-3.92 3.74l1.71 1.58c.21 2.16.66 4.36 2.14 6.05 3.19 2.69 7.71 1.93 11.07 0-2.49-.83-5.05-.05-7.51.47 1.54-.98 3.74-1.45 4.59-3.21-.23-1.39-.68-2.73-1.07-4.08 3.39 2.2 7.57 2.71 10.97 4.85 1.02 1.31 1.68 2.85 2.47 4.3l.35.65-4.68.09 1.84 1.97.61.48c-3.21-.81-6.51-1.26-9.82-1.36l-.17 2.96-.06.87-.9 1.95-.73 1.6-.24-2.34-4.23-.84c1.11-.4 2.21-.82 3.31-1.26-1.75-1.35-3.73-2.39-5.91-2.81l-.27-2.42c-.24-.23-.71-.7-.95-.94-2.58-1.77-3.52-4.76-4.33-7.63l.25-1.66-.72-.18-.35 1.54c.13 3.07-2 5.28-4.27 7.01-1.24-.47-2.47-.96-3.67-1.5-1.62-1.13-3.1-2.41-4.54-3.74.33-1.86.33-3.77-.55-5.49 2.59-.92 3.73-3.39 4.47-5.83l.94 3.08-2.06 2.81 3.26 2.49c.43-2.55.55-5.13.53-7.71l.1-1.87m2.22 2.55c-1.11.63-1.67 2.87-.21 3.41 2.09.34 2.48-4.07.21-3.41m1.62 5.94l-.41.72.42.72.83-.01.4-.72-.42-.71h-.82m-6.81 3.95l-.34.83.35.83.83.33.83-.34.34-.84-.35-.83-.83-.33-.83.35m27.83 3.83c-.31 3.23 4.39 2.62 4.17-.2l-4.17.2m-9.21 4.3c1.43 1.56 2.75 3.21 4.28 4.67l.3-4c2.65-.04 5.3-.02 7.96.05l-.62-1.77c-4-1.39-7.9 1.05-11.92 1.05z"/><path fill="#da9874" d="M228.06 151.93l3.19 4.09c-.19 1.77-.27 3.59-.79 5.31-.97 1.53-3.06 1.27-4.57 1.81l1.41-6.03.76-5.18z"/><path fill="#726f73" d="M246.85 156.49l2.08-4.01 1.5 4.63.15.43.31-.69c.88 1.72.88 3.63.55 5.49l-5.06 1.28-.86.24-1.91.6c-1.31 1.81-3 3.25-5.29 3.53l.05-2.54 3.34-1.73-.5-2.03.8.12 6.08.49-3.43-4.86.21-1.49 1.98.54z"/><path fill="#d3cdcf" d="M256.3 154.1l1.73-2.41c.02 2.58-.1 5.16-.53 7.71l-3.26-2.49 2.06-2.81z"/><path fill="#a3a19f" d="M260.35 152.37c2.27-.66 1.88 3.75-.21 3.41-1.46-.54-.9-2.78.21-3.41z"/><path fill="#000001" opacity=".4" d="M285.17 156.9c1.32-1.65 2.55-3.39 4.19-4.75 5.6-.04 10.4 3.4 15.04 6.14a49.9 49.9 0 0 0-1.92 1.93c-3.42-2.62-7.07-5.51-11.51-5.94-2.16.14-3.92 1.68-5.8 2.62z"/><path fill="#757b78" d="M193.25 154.26h.45v.45h-.45v-.45z"/><path fill="#abb3b8" d="M207.29 154.1l.72-.41.72.41v.82l-.72.41-.72-.41v-.82z"/><path fill="#888e92" d="M205.29 155.25h.45v.45h-.45v-.45z"/><path fill="#2c2a25" d="M231.25 156.02l2.05 2.39-.32 3.71 7.52-1.58.71 1.15.5 2.03-3.34 1.73-.05 2.54c2.29-.28 3.98-1.72 5.29-3.53l1.91-.6c.99 2.18 2.12 4.31 3.38 6.34-4.54-.61-9.11-1.03-13.68-1.23.16-2 .41-3.99.64-5.99l-2.58.42-8.15 1.11.76-1.37c1.51-.54 3.6-.28 4.57-1.81.52-1.72.6-3.54.79-5.31z"/><path fill="#989594" d="M270.47 156.2c2.24 1.22 4.36 2.65 6.42 4.15l.59.4c-2.21 2.42-4.5 4.78-7.08 6.82-1.48-1.69-1.93-3.89-2.14-6.05l-1.71-1.58 3.92-3.74z"/><path fill="#c6c7c7" d="M201.3 157.27h.45v.46l-.46-.01.01-.45z"/><path fill="#848b8e" d="M204.28 157.26h.45v.44l-.45.01v-.45z"/><path fill="#fffff5" d="M250.43 157.11l.46-.26-.31.69-.15-.43z"/><path fill="#737073" d="M206.65 159.23l4.33-1.2-.11.88-.09 1.19 1.83 2.83c-3.02 1.86-6.22 3.47-8.98 5.71-2.27 1.8-3.49 4.5-4.7 7.05 2.08.24 4.16.49 6.25.63l-2.19.94 1.38 1.96c1.4 2.05 2.91 4.03 4.49 5.95l-.3 2.53c-2.13-2.07-4.31-4.12-6.81-5.73-2.73-1.72-5.74-3.23-7.47-6.09l.41-.74.49-.63c2.31-3.2 5.01-6.12 8.14-8.54l3.06-2.39c-1.64-.6-3.38-1.78-5.17-1.04-2.54.91-4.95 2.16-7.4 3.3 3.03-3.8 7.82-5.11 12.27-6.44l.57-.17z"/><path fill="#baada7" d="M242.01 161.81l2.65-4.37 3.43 4.86-6.08-.49z"/><path fill="#dad0c6" d="M261.97 158.31h.82l.42.71-.4.72-.83.01-.42-.72.41-.72z"/><path fill="#e1e4e8" d="M206.08 159.4l.57-.17-.57.17z"/><path fill="#b9b1ae" d="M264.27 159.03l.72.18-.25 1.66-.82-.3.35-1.54z"/><path fill="#706a6c" d="M259.65 167.58c2.27-1.73 4.4-3.94 4.27-7.01l.82.3c.81 2.87 1.75 5.86 4.33 7.63l-1.83 2.07-7.59-2.99z"/><path fill="#c0bec0" d="M270.4 167.57c2.58-2.04 4.87-4.4 7.08-6.82l1.07 4.08c-.85 1.76-3.05 2.23-4.59 3.21 2.46-.52 5.02-1.3 7.51-.47-3.36 1.93-7.88 2.69-11.07 0z"/><path fill="#de9c7b" d="M169.63 168.85c.83-2.6 2.52-4.78 4.03-7.02 1.9 3.47 4.39 6.91 8.39 8.07l-7.09 6.51-2.13 1.85c-2.45-2.52-3.29-5.97-3.2-9.41z"/><path fill="#939091" d="M201.21 162.54c1.79-.74 3.53.44 5.17 1.04l-3.06 2.39c-1.57-.15-3.36-1.12-4.8-.09-2.7 1.8-4.54 4.56-6.61 6.99l3.27 1.64-.49.63-3.47 1.19 1.46 2.74 1.6-3.19c1.73 2.86 4.74 4.37 7.47 6.09-.5 3.16 1.39 5.76 3.13 8.18l1.6 1.88-2.81 4.01c-.68 1.14-1.29 2.33-1.85 3.54l-3.31-1.44c-.35-3.06-2.5-5.3-4.5-7.43l-4.21 2.26c.33-1.91.79-3.81.84-5.76-.69-.78-1.47-1.47-2.22-2.18l-2.32 2.84-.76-3.13-2.24 1.93-1.71 1.49.46-2.34-.17-1.7-.83-.04-1.65-.08c.84-1.62.98-3.44.84-5.23 2.84-1.12 6.02-1.46 8.61-3.15 2.27-1.49 1.83-4.49 2.09-6.82l3.07-2.96 7.4-3.3m-16.59 18.26c.24 1.87 1.48 3.6 3.56 3.35l-.07-3.3-3.49-.05m8.34-.23l.75 2.77c-1.84-1.21-2.86 2.82-.81 2.95 1.33 1.84 2.99 3.39 4.65 4.92.63 1.11 1.36 2.18 2.52 2.8-.19-1.68-.48-3.34-.88-4.97l1.16-2.6c-1.93.14-3.8-.27-5.11-1.78.71-.92 1.37-1.87 1.97-2.86l.32.71 1.47.58c1.79-.54-.36-3.23-1.46-1.9l-4.58-.62z"/><path fill="#635550" d="M246.38 163.62l5.06-1.28c1.44 1.33 2.92 2.61 4.54 3.74l-3.46 1.32-6.14-3.78z"/><path fill="#d2c9c2" d="M255.16 162.26l.83-.35.83.33.35.83-.34.84-.83.34-.83-.33-.35-.83.34-.83z"/><path opacity=".75" d="M233.28 163.4l2.58-.42-.64 5.99.03.86.12 1.74c8.46 1.68 17.12 1.92 25.65 3.15 2.87.29 5.29 1.92 7.46 3.72l.13 5.3 7.26 1.56.58 5.33 7.68.37-.56 2.79c-5.28.33-10.51-.6-15.75-.96 2.21 5.51 6.39 9.85 9.11 15.08-4.67-4.74-6.98-11.33-11.88-15.83-3.9-1.47-8.34-.79-12.45-1.48l-1.19-3.73c-1.58-.77-3.15-1.55-4.67-2.43-.27-1.79-.04-4.29-2.29-4.82-6.02-1.63-12.33-1.69-18.51-2.2l-1.24-.7-.99-.59a158.64 158.64 0 0 0 1.52-6.17l-2.89.62-.85 1.65-.86-2.48c.99-1.39 1.91-2.86 3.14-4.06 3.01-1.27 6.34-1.53 9.51-2.29m-.53 8.88c.22 1.03.52 2.03.91 3.02 4.29 1.31 8.82 1.6 13.29 1.62l-.45-1.58c-4.42-1.62-9.15-2.17-13.75-3.06z"/><path fill="#999a9a" d="M192.26 164.27l.45.01-.01.45-.45-.01.01-.45z"/><path fill="#1d1b1b" opacity=".8" d="M245.52 163.86l.86-.24 6.14 3.78c4.34 2.55 9.64 5.31 14.72 3.17a90.14 90.14 0 0 0 1.83-2.07l.95.94.27 2.42c-7.2 1-14.3-.66-21.39-1.66-1.26-2.03-2.39-4.16-3.38-6.34z"/><path fill="#dcd6d8" d="M198.52 165.88c1.44-1.03 3.23-.06 4.8.09-3.13 2.42-5.83 5.34-8.14 8.54l-3.27-1.64c2.07-2.43 3.91-5.19 6.61-6.99z"/><path fill="#464950" opacity=".91" d="M361.01 178.58c.31-4.56.04-9.15.72-13.68 1.25 4.51 1.7 9.31.12 13.81l-.84-.13z"/><path fill="#aca9a9" d="M282.99 166.09l4.17-.2c.22 2.82-4.48 3.43-4.17.2z"/><path fill="#7e5f54" d="M290.92 169.9c1.68-1.42 3.29-3.01 5.31-3.94 2.47-.66 5.04.02 7.54.16 1.59.18 3.19.07 4.79-.04l1.59-.1c1.5 1.08 3.14 1.99 4.47 3.29.97 1.33 1.15 3.04 1.67 4.57l-1.78.66c-1.05-1.35-1.91-2.87-3.24-3.95-2.82-1.25-5.86.04-8.36 1.4-1.91.96-3.77 2.34-5.99 2.34-2.67.06-5.31-.52-7.88-1.2l-.61-.48c2.95.2 5.91.21 8.86.16-1.94-.91-3.94-1.68-6.02-2.22l-.35-.65z"/><path fill="#bb7f64" d="M168.9 171.13l.73-2.28c-.09 3.44.75 6.89 3.2 9.41l-2.65 2.42-3.09-1.88c1.99-2.05 1.47-5.08 1.81-7.67z"/><path fill="#756e6d" d="M182.05 169.9h2.51l2.43 3.07 2.3-2.7 1.45-1.47c-.26 2.33.18 5.33-2.09 6.82-2.59 1.69-5.77 2.03-8.61 3.15l-3.11 1.11-1.97-3.47 7.09-6.51z"/><path fill="#adb0af" d="M235.22 168.97c4.57.2 9.14.62 13.68 1.23 7.09 1 14.19 2.66 21.39 1.66 2.18.42 4.16 1.46 5.91 2.81-1.1.44-2.2.86-3.31 1.26-12.37-3.1-25.3-2.83-37.64-6.1l-.03-.86z"/><path fill="#3f4042" d="M273.78 170.39c4.02 0 7.92-2.44 11.92-1.05.15.45.46 1.33.62 1.77-2.66-.07-5.31-.09-7.96-.05l-.3 4c-1.53-1.46-2.85-3.11-4.28-4.67z"/><path fill="#352519" d="M217.58 170.75l3.05-1 .86 2.48c.43 1.45 1.23 2.76 2.22 3.9l.99.59c-1.43 1.15-2.19 4.42-4.36 3.65-1.37-3.06-1.98-6.38-2.76-9.62z"/><path fill="#070503" opacity=".39" d="M222.34 170.58l2.89-.62-1.52 6.17c-.99-1.14-1.79-2.45-2.22-3.9l.85-1.65z"/><path fill="#2d3139" d="M235.25 169.83c12.34 3.27 25.27 3 37.64 6.1l4.23.84.24 2.34.09 2.27c2.96.49 5.82 1.39 8.61 2.48l-2.83 3.64.98.2c3.68 1.07 7.43 1.95 11.22 2.6-.08-1.33-.15-2.67-.15-4l.43-1.43.2-.75a40.81 40.81 0 0 0-3.22-2.21 101.44 101.44 0 0 0 2.88-.74c1.51 1.97 3.33 3.75 5.68 4.7-.73.96-1.45 1.92-2.13 2.92l-1.18 2.06c3.48.6 7.6 2.62 10.78.17l-.08-.83-.34-2.53c4.89-1.88 9.22 2.72 14.15 1.85l-1.55-3.32c1.53.89 2.98 1.91 4.43 2.94-1.4 1.91-2.68 4.17-5.01 5.06-2.3.74-4.76.65-7.15.75l-2.92-.11c-5.1-.93-10.15-2.48-15.39-2.09 2.5 5.74 6.14 10.87 9.92 15.82l.96 1.88c.44 1.18.82 2.37 1.25 3.56l-2.53-2.28-.98-1.86c-3.04-6.26-7.18-11.89-10.55-17.97-2.91-.46-5.85-.78-8.8-.89l-7.68-.37-.58-5.33-7.26-1.56-.13-5.3c-2.17-1.8-4.59-3.43-7.46-3.72-8.53-1.23-17.19-1.47-25.65-3.15l-.12-1.74m76.83 20.33l-.05 1.84.15 1.05.18.84.94.38.74-.48c1.61.88 3.01-.4 4.36-1.15l2.51.2-.29-1.73c-2.8-.66-5.69-.73-8.54-.95z"/><path fill="#ceced0" d="M286.59 170.64l4.68-.09c2.08.54 4.08 1.31 6.02 2.22-2.95.05-5.91.04-8.86-.16l-1.84-1.97z"/><path fill="#3d312d" d="M302.91 171.95c2.5-1.36 5.54-2.65 8.36-1.4 1.33 1.08 2.19 2.6 3.24 3.95l-.98.43-2.11-.58c-2.77-1.02-5.59-1.94-8.51-2.4z"/><path fill="#686161" d="M167.3 175.19l1.6-4.06c-.34 2.59.18 5.62-1.81 7.67-1.45 1.83-3.22 3.6-3.62 6l-.96 4.33-1.87-4.52-2.97.12-1.75-1.56-2.99 1.68-1.88-2.77c2.06.52 4.54 1 6.2-.72 2.94-2.67 6.11-5.17 10.05-6.17z"/><path fill="#766760" d="M212.97 172.68c1.49-.75 3.04-1.38 4.61-1.93.78 3.24 1.39 6.56 2.76 9.62 2.17.77 2.93-2.5 4.36-3.65l1.24.7c2.41 2.51 5.29 5.1 5.89 8.71.54 2.84-.95 5.46-1.79 8.08-2.83.52-5.72.34-8.48-.46a61.96 61.96 0 0 0 2.53-1.08c1.51-.83 2.96-1.76 4.34-2.8.88-1.6 2.08-3.47 1.25-5.35-.81-2.67-3.88-3.09-6.19-3.66l-.64 1.27c-.84 1.64-1.45 3.39-1.6 5.23l-.16 1.59c-.12 1.71-1.16 2.97-2.49 3.92l-1.43-1.76c1.1-4.15 1.26-8.57.32-12.77-.51-2.5-2.81-3.98-4.52-5.66m14.32 19.43v.83l.72.4.71-.41v-.83l-.72-.4-.71.41z"/><path fill="#c4c7c7" d="M279.22 171.73c3.31.1 6.61.55 9.82 1.36 2.57.68 5.21 1.26 7.88 1.2 2.22 0 4.08-1.38 5.99-2.34 2.92.46 5.74 1.38 8.51 2.4l-1.19 2.4c4.65.26 9.27.95 13.84 1.85l-.58.6c-14.86-1.07-29.63-2.92-44.44-4.51l.17-2.96m22.67 2.44c2.01 1.83 4.81 1.83 7.37 1.82-1.88-2.05-4.86-1.72-7.37-1.82z"/><path fill="#c3896d" d="M212.97 172.68c1.71 1.68 4.01 3.16 4.52 5.66.94 4.2.78 8.62-.32 12.77-.54 1.19-1.1 2.36-1.68 3.53-1.2-1.65-2.87-3.4-2.54-5.63.46-2.47 1.83-4.63 2.95-6.84l-4.8.31-1.22-4.14c.95-1.93 1.93-3.85 3.09-5.66z"/><path fill="#79797b" d="M301.89 174.17c2.51.1 5.49-.23 7.37 1.82-2.56.01-5.36.01-7.37-1.82z"/><path fill="#a1a2a5" opacity=".96" d="M314.51 174.5l1.78-.66c3.55.31 7.11.78 10.55 1.76l-.38.38c-4.33.31-8.78.36-12.93-1.05l.98-.43z"/><path fill="#d4cfc9" d="M191.22 176.33l3.47-1.19-.41.74-1.6 3.19-1.46-2.74z"/><path fill="#777c80" d="M279.05 174.69c14.81 1.59 29.58 3.44 44.44 4.51l3.14.25c4.29.84 8.88.6 12.86 2.65-5.21.11-10.29-1.45-15.5-1.16-5.91.19-11.88.81-17.73-.31-3.75-.75-7.53-1.24-11.31-1.73l-.7-.12c-5.13-.81-10.55-.71-15.26-3.22l.06-.87z"/><path fill="#727577" d="M311.42 174.35l2.11.58c4.15 1.41 8.6 1.36 12.93 1.05-.81.86-1.59 1.75-2.39 2.62-4.57-.9-9.19-1.59-13.84-1.85l1.19-2.4z"/><path fill="#36373b" opacity=".76" d="M326.84 175.6c4.82 2.47 10.42 1.86 15.45 3.64-4.23.05-8.42-.46-12.62-.89-1.16-.21-2.07.65-3.04 1.1l-3.14-.25.58-.6 2.39-2.62.38-.38z"/><path fill="#bdbcbf" d="M278.09 177.51l.9-1.95c4.71 2.51 10.13 2.41 15.26 3.22-.93-.35-3.78.37-2.11 1.58 1.28.23 2.21-.26 2.81-1.46 3.78.49 7.56.98 11.31 1.73 5.85 1.12 11.82.5 17.73.31 5.21-.29 10.29 1.27 15.5 1.16-3.98-2.05-8.57-1.81-12.86-2.65.97-.45 1.88-1.31 3.04-1.1 4.2.43 8.39.94 12.62.89a82.59 82.59 0 0 0 3.53.16c1.11 1.71 3.14 2.23 5.01 2.66l.21.56-10.14-.4c5.52 1.69 11.26 2.41 17.01 2.78l.69 2.59c-4.09-1.24-8.38-1.29-12.61-1.46-7.03-.32-13.88-2.45-20.94-2.29-3.87.09-7.74-.04-11.61-.09 2.15 1.66 4.86 2 7.46 2.44l1.55 3.32c-4.93.87-9.26-3.73-14.15-1.85l.34 2.53c-3.12-.77-6.32-1.2-9.52-1.4.68-1 1.4-1.96 2.13-2.92l2.39.31c-.56-.72-1.09-1.44-1.62-2.16l.98-1.03a80.5 80.5 0 0 0 6.24 2.14l-.21-1.88c-2.65-1.15-5.56-1.41-8.35-2l-1.81-1.07-3.3.99-2.88.74c-2.66-.16-5.57 0-7.81-1.71-2.04-1.42-4.3-2.45-6.79-2.69m31.76 4.31l-.02 3.37h3.4l-.06-3.33-3.32-.04m-5.4 5.34c.17 1.4.85 1.65 2.02.76-.18-1.41-.85-1.66-2.02-.76z"/><path fill="#858286" d="M172.83 178.26l2.13-1.85 1.97 3.47 3.11-1.11c.14 1.79 0 3.61-.84 5.23l-2.1 4.02c-.84-.68-1.69-.75-2.57-.2-1.03 1.12.65 1.94 1.53 2.25a30.92 30.92 0 0 1 1.77 2.72l-1.61 1.57.08 2.83c.96-.66 1.89-1.37 2.75-2.16l3.01.2 6.36 2.28-.08 4.29 11.79.2c-1.72 3.33-3.67 6.52-5.83 9.57l1.65 2.39c-4.48-.65-9.59.6-13.33-2.64a64.56 64.56 0 0 0 1.15-1.19c1.27-2.26 3.54-.81 5.31-.1l3.75-1.99-1.97-1.5.44-2.46-4.32-.74.46-5.63c-1.39 2.17-2.61 4.53-4.54 6.28-2.1 1.45-4.63 2.02-7.01 2.82-1.39-2.81-3.07-5.51-3.95-8.52-.33-2.46.7-4.89.33-7.35-.27-1.6-.79-3.13-1.25-4.68l-.2-.82-1.56-.73-1.26-.73c.66-1.14 1.39-2.24 2.18-3.3.85-.84 1.74-1.63 2.65-2.42m2.39 3.03v.45h.45v-.45h-.45m-.9 14.27c-.94.61-.97 3.12.48 2.91.93-.62.96-3.12-.48-2.91m2.93 3.43l-.06 3.78 5.84-.14-3.51-2.04.06-2.8-2.33 1.2z"/><path fill="#4a3a32" d="M204.37 179.22l5.51-.88 1.22 4.14-2.24 2.69-4.49-5.95z"/><path fill="#e0dfe1" d="M278.09 177.51c2.49.24 4.75 1.27 6.79 2.69 2.24 1.71 5.15 1.55 7.81 1.71l3.22 2.21-.2.75c-3.24-.01-6.53-.05-9.65-1.01-2.79-1.09-5.65-1.99-8.61-2.48l-.09-2.27.73-1.6z"/><path fill="#efab85" d="M163.47 184.8c.4-2.4 2.17-4.17 3.62-6l3.09 1.88c-.79 1.06-1.52 2.16-2.18 3.3l-.63 2.03 1.46 2.37-1.71.34-3.38.72-.27-4.64z"/><path fill="#dcdae0" d="M292.14 180.36c-1.67-1.21 1.18-1.93 2.11-1.58l.7.12c-.6 1.2-1.53 1.69-2.81 1.46z"/><path fill="#232526" opacity=".64" d="M345.82 179.4c2.09-.34 4.78.07 5.01 2.66-1.87-.43-3.9-.95-5.01-2.66z"/><path fill="#c3c3c7" opacity=".97" d="M362.59 181.08c-1.87 1.25-3.38-1.29-1.58-2.5l.84.13.74 2.37z"/><path d="M295.57 181.17l3.3-.99 1.81 1.07 2.32 1.74-.98 1.03 1.62 2.16-2.39-.31c-2.35-.95-4.17-2.73-5.68-4.7zm-94 19.4l.09-.38-.09.38zm-24.32 8.97l.82-.01-.54.34-.28-.33z" fill="#fff"/><path fill="#8a868d" d="M136.73 182.91c4.41-2.49 9.64-2.58 14.32-.83l1.88 2.77c-3.97 2.91-7.44 6.58-9.57 11.07-.66-1.1-.9-2.96-2.49-3.04-2.63-.54-5.32-.27-7.97-.13 1.26-1.33 2.88-2.41 3.7-4.09.37-1.89.17-3.84.13-5.75z"/><path fill="#dbd1cc" d="M175.22 181.29h.45v.45h-.45v-.45z"/><path fill="#d6d3d4" d="M184.62 180.8l3.49.05.07 3.3c-2.08.25-3.32-1.48-3.56-3.35z"/><path fill="#767475" d="M192.96 180.57l4.58.62-.33.61c-.6.99-1.26 1.94-1.97 2.86 1.31 1.51 3.18 1.92 5.11 1.78l-1.16 2.6-1.64 2.17c-1.66-1.53-3.32-3.08-4.65-4.92.95-.81 1.22-1.79.81-2.95l-.75-2.77z"/><path fill="#cdc7c5" d="M197.54 181.19c1.1-1.33 3.25 1.36 1.46 1.9l-1.47-.58-.32-.71.33-.61z"/><path fill="#95888a" d="M223.49 180.86c2.31.57 5.38.99 6.19 3.66.83 1.88-.37 3.75-1.25 5.35-2.02-.31-4.01.12-5.86.94l-1.48-1.86.16-1.59 3.94-1.79-2.34-3.44.64-1.27z"/><path fill="#707073" d="M300.68 181.25c2.79.59 5.7.85 8.35 2l.21 1.88-6.24-2.14-2.32-1.74z"/><path fill="#716c6a" d="M201.75 181.97c2.5 1.61 4.68 3.66 6.81 5.73l.3-2.53 2.24-2.69 4.8-.31c-1.12 2.21-2.49 4.37-2.95 6.84-.33 2.23 1.34 3.98 2.54 5.63l2.58 3.16-1.12 3.41-2.83-.46-1.32-4.32-1.43-4.45-1.13 5.01-1.95-.14-4.62-.81 2.81-4.01c1.96-1.27-.2-4.02-1.6-1.88-1.74-2.42-3.63-5.02-3.13-8.18m6.52 13.36v.45h.45v-.45h-.45z"/><path fill="#fbfbfc" d="M309.85 181.82l3.32.04.06 3.33h-3.4l.02-3.37z"/><path fill="#979399" d="M130.94 186.98c1.7-1.66 3.72-2.93 5.79-4.07.04 1.91.24 3.86-.13 5.75-.82 1.68-2.44 2.76-3.7 4.09-2.2 2.62-2.68 6.1-3.59 9.29-.91-.81-2.11-1.5-2.35-2.8.75-4.25 2.05-8.4 3.98-12.26z"/><path fill="#fefbfa" d="M152.93 184.85l2.99-1.68-3.93 6.62 4.17 1.54c.51 1.91 1.14 3.81 2.19 5.5l3.87 6.23 2.53 4.93 4.41 2.72c-.83 3.73-2.99 7.15-6.19 9.3-3.52-1.02-6.83.54-9.84 2.23l-1.87-1.38 1.28-3.94c-1.22.91-2.44 1.84-3.72 2.68l-1.64-2.34 3.8-2.87a28.97 28.97 0 0 0-5.61-1.68l-.22-5.59-3.17 2.82c.64-2.26 1.41-4.48 2.34-6.63l-2.22.03c-.01-1.74-.03-3.47.05-5.2l1.21-2.22c2.13-4.49 5.6-8.16 9.57-11.07m6.41 17.52c-1.37.3-3.15 1.79-2.8 3.3 1.54.74 4.53-2.23 2.8-3.3z"/><path fill="#d9cdc3" d="M155.92 183.17l1.75 1.56c-.38 2.22-.87 4.43-1.51 6.6l-4.17-1.54 3.93-6.62z"/><path fill="#d5d0c6" d="M192.9 186.29c-2.05-.13-1.03-4.16.81-2.95.41 1.16.14 2.14-.81 2.95z"/><path fill="#d4cbcd" d="M222.85 182.13l2.34 3.44-3.94 1.79c.15-1.84.76-3.59 1.6-5.23z"/><path fill="#24272e" d="M313.44 183.75c3.87.05 7.74.18 11.61.09 7.06-.16 13.91 1.97 20.94 2.29 4.23.17 8.52.22 12.61 1.46 1.89.41 3.81.59 5.75.72.23-2.71-2.7-2.72-4.6-3.23l3.32-.76 2.71 1.08c-.3 1.73-.51 3.48-1.09 5.14-.83 1.04-2.17 1.45-3.26 2.15-2.51 6.2-4.27 12.88-8.44 18.25-7.5 10.35-20.23 16.75-33.03 16.41-2.03-.15-4.38.19-6.13-1.04-2.59-3.91-4.63-8.17-6.84-12.31 3.14 3.38 4.99 7.77 8.31 10.95 5.6 1.3 11.39-.27 16.81-1.74 10.42-2.9 18.61-11.23 22.98-20.92 1.56-3.51 1.4-7.41 1.03-11.14-6.52-.71-13.1-1.07-19.53-2.44-3.35-.52-6.84-1.51-10.2-.66l-1.06 1.08c-1.45-1.03-2.9-2.05-4.43-2.94-2.6-.44-5.31-.78-7.46-2.44m43.83 10.29c-1.18 1.48 1.46 2.98 2.44 1.58 1.2-1.5-1.46-3-2.44-1.58z"/><path fill="#88848a" d="M157.67 184.73l2.97-.12 1.87 4.52 2.74 5.13 1.99-3.48 2.53 1.3-3.34 5.58c1.43 1.97 3.51 3.78 3.66 6.36l1.01 6.79 2.59-.21 2.29 1.14-1.92.34-1.83.31-.05.82c-.33 4.59-.14 9.2.29 13.78.08 3.62 2.36 6.58 3.36 9.95-1.62 4.62-5.69 8.35-10.4 9.66-2.8.8-5.73.08-8.46-.65l-1.2-.9c4.02-1.26 8.14-2.14 12.31-2.72l-1.86-2.57 1.09-3.63c.98-3.85.9-8.51-2.12-11.47 2.23-2.11 4.53-4.55 4-7.91-2.02 1.79-3.77 3.86-5.72 5.72-1.14.05-2.25-.24-3.35-.43l2.85-2.03c3.2-2.15 5.36-5.57 6.19-9.3.24-1.16.43-2.33.62-3.49-.9-.89-1.81-1.78-2.67-2.71-.58-.88-1.11-1.8-1.62-2.72-1.38-2.62-2.9-5.16-4.58-7.6l-2.56 2.64c-1.05-1.69-1.68-3.59-2.19-5.5.64-2.17 1.13-4.38 1.51-6.6m12.01 51.42c-.75 1.65 2.78 2.46 2.96.69-.27-1.24-2.14-1.54-2.96-.69m-1.31 2.17c-1.21.92.17 3.3 1.52 2.3 1.21-.93-.17-3.31-1.52-2.3z"/><path fill="#6f6d6f" d="M168 183.98l1.26.73.89 1.49.87.06 1.25 4.68c.37 2.46-.66 4.89-.33 7.35.88 3.01 2.56 5.71 3.95 8.52 2.38-.8 4.91-1.37 7.01-2.82 1.93-1.75 3.15-4.11 4.54-6.28l-.46 5.63 4.32.74-.44 2.46 1.97 1.5-3.75 1.99c-1.77-.71-4.04-2.16-5.31.1-.55-1.34-2.47-1.15-3.15-.05l-2.55-.55-.82.01-3.56 1.06-2.59.21c-.47-2.25-.77-4.51-1.01-6.79-.15-2.58-2.23-4.39-3.66-6.36l3.34-5.58-2.53-1.3-.12-2.06 1.71-.34-1.46-2.37.63-2.03z"/><path fill="#a6a3a8" d="M179.2 184l1.65.08-.21.82.44.75.77.17-.46 2.34 1.71-1.49 3.39 3.34-3.84 2.78-.59 2.44c-1-.12-2.01-.17-3.01-.2l-1.22-2.24-1.77-2.72 1.04-2.05 2.1-4.02z"/><path fill="#fffffc" d="M180.85 184.08l.83.04.17 1.7-.77-.17-.44-.75.21-.82z"/><path fill="#68696d" d="M286.06 183.86c3.12.96 6.41 1 9.65 1.01l-.43 1.43c-3.74.02-7.44.51-11.07 1.4l-.98-.2 2.83-3.64z"/><path fill="#af8675" d="M162.51 189.13l.96-4.33.27 4.64 3.38-.72.12 2.06-1.99 3.48-2.74-5.13z"/><path fill="#eae6e1" d="M169.26 184.71l1.56.73.2.82-.87-.06-.89-1.49z"/><path fill="#b6b1b7" d="M183.1 186.67l2.24-1.93.76 3.13 2.32-2.84 2.22 2.18c-.05 1.95-.51 3.85-.84 5.76l4.21-2.26c2 2.13 4.15 4.37 4.5 7.43l3.31 1.44-.16.61-.09.38-.13.6-1.31.83-11.79-.2.08-4.29-6.36-2.28.59-2.44 3.84-2.78-3.39-3.34m3.42 6.4c-1.16 1.25.75 3.74 2.19 2.56 1.3-1.28-.74-3.82-2.19-2.56m4.48.78l-1.27 3.04c2.14 1.55 4.59 2.63 7.29 2.21-1.26-2.5-3.62-4.01-6.02-5.25m4.26 6.39v.45h.45v-.45h-.45z"/><path fill="#cccbcf" d="M357.91 185l1.84.08c1.9.51 4.83.52 4.6 3.23-1.94-.13-3.86-.31-5.75-.72l-.69-2.59z"/><path fill="#9d9ca0" d="M284.21 187.7c3.63-.89 7.33-1.38 11.07-1.4 0 1.33.07 2.67.15 4-3.79-.65-7.54-1.53-11.22-2.6z"/><path fill="#434244" opacity=".65" d="M126.96 199.24c-1.42-4.48.68-9.2 3.98-12.26-1.93 3.86-3.23 8.01-3.98 12.26z"/><path fill="#d2c9c6" d="M174.53 187.82c.88-.55 1.73-.48 2.57.2l-1.04 2.05c-.88-.31-2.56-1.13-1.53-2.25z"/><path fill="#383a3d" d="M304.45 187.16c1.17-.9 1.84-.65 2.02.76-1.17.89-1.85.64-2.02-.76z"/><path fill="#a19da2" d="M197.55 191.21l1.64-2.17c.4 1.63.69 3.29.88 4.97-1.16-.62-1.89-1.69-2.52-2.8z"/><path fill="#524e4d" d="M204.88 190.15c1.4-2.14 3.56.61 1.6 1.88l-1.6-1.88z"/><path fill="#5a4d4b" opacity=".89" d="M221.09 188.95l1.48 1.86 1.52 1.86-2.53 1.08-2.11.77-1.38 3.28-2.58-3.16 1.68-3.53 1.43 1.76c1.33-.95 2.37-2.21 2.49-3.92z"/><path fill="#c3b7b1" d="M222.57 190.81c1.85-.82 3.84-1.25 5.86-.94-1.38 1.04-2.83 1.97-4.34 2.8l-1.52-1.86z"/><path fill="#99979b" d="M297.94 190.85l1.18-2.06c3.2.2 6.4.63 9.52 1.4l.08.83c-3.18 2.45-7.3.43-10.78-.17z"/><path fill="#949398" opacity=".94" d="M312.08 190.16c2.85.22 5.74.29 8.54.95l.29 1.73-2.51-.2-6.37-.64.05-1.84z"/><path fill="#bebcb7" d="M211.37 191.98l1.43 4.45c-.02 3.23.46 6.81-1.65 9.55l-1.33-.89.04-.79.38-7.31c.29-1.69.71-3.35 1.13-5.01z"/><path fill="#ccbeb6" d="M227.29 192.11l.71-.41.72.4v.83l-.71.41-.72-.4v-.83z"/><path fill="#6e6e72" d="M312.03 192l6.37.64c-1.35.75-2.75 2.03-4.36 1.15l-1.16-1-.7.26-.15-1.05z"/><path fill="#d2cdca" d="M176.22 194.36l1.61-1.57 1.22 2.24c-.86.79-1.79 1.5-2.75 2.16l-.08-2.83z"/><path fill="#f1edee" d="M186.52 193.07c1.45-1.26 3.49 1.28 2.19 2.56-1.44 1.18-3.35-1.31-2.19-2.56z"/><path fill="#9f9ea1" d="M312.18 193.05l.7-.26 1.16 1-.74.48-.94-.38-.18-.84z"/><path fill="#ada8ac" d="M158.35 196.83l2.56-2.64c1.68 2.44 3.2 4.98 4.58 7.6l-3.27 1.27c-1.12-2.18-2.5-4.21-3.87-6.23z"/><path fill="#e1dbe0" d="M191 193.85c2.4 1.24 4.76 2.75 6.02 5.25-2.7.42-5.15-.66-7.29-2.21l1.27-3.04z"/><path fill="#9f9fa3" opacity=".98" d="M357.27 194.04c.98-1.42 3.64.08 2.44 1.58-.98 1.4-3.62-.1-2.44-1.58z"/><path fill="#bbb6b8" d="M174.32 195.56c1.44-.21 1.41 2.29.48 2.91-1.45.21-1.42-2.3-.48-2.91z"/><path fill="#c8bebb" d="M208.27 195.33h.45v.45h-.45v-.45z"/><path fill="#000001" opacity=".46" d="M310.25 194.83l2.92.11c-.92 5.79-3.74 11-7.43 15.5l-.96-1.88c1.85-2.13 3.91-4.23 4.82-6.96.66-2.19.55-4.51.65-6.77z"/><path fill="#848085" d="M201.82 199.58l1.85-3.54 4.62.81-1.12 2.44c-1.4 3.62-3.19 7.2-6.33 9.64-.22-2.61.05-5.22.6-7.76l.13-.6.09-.38.16-.61z"/><path fill="#5b5756" d="M208.29 196.85l1.95.14-.38 7.31c-1.68-1.2-2.86-2.87-2.69-5.01l1.12-2.44z"/><path fill="#7d7879" d="M211.15 205.98c2.11-2.74 1.63-6.32 1.65-9.55l1.32 4.32 2.83.46-.27 4.82-1.79-4.29c-1.68 3.01-2.55 6.62-5.26 8.93-1.56 1.43-3.06 2.92-4.53 4.43l-1.85 1.25c-1.79.13-3.59.2-5.38.27l.4-1.62.69-.27 2.32-.99c1.83-.88 3.51-2.09 4.85-3.62 1.32-1.61 2.57-3.28 3.69-5.03l1.33.89z"/><path fill="#d9d1cd" d="M139.08 202.48c1.1-1.39 2.13-2.84 3.07-4.34l-.05 5.2 2.22-.03c-.93 2.15-1.7 4.37-2.34 6.63l3.17-2.82.22 5.59a28.97 28.97 0 0 1 5.61 1.68l-3.8 2.87 1.64 2.34-2.7.17-.28 2.16-1.06-.81-1.29-4.45c-1.34-1.05-2.77-2-3.87-3.3-.23-3.64.6-7.34-.54-10.89z"/><path fill="#beb9b9" d="M177.25 198.99l2.33-1.2-.06 2.8 3.51 2.04-5.84.14.06-3.78z"/><path fill="#675f5f" d="M200.84 208.93c3.14-2.44 4.93-6.02 6.33-9.64-.17 2.14 1.01 3.81 2.69 5.01l-.04.79c-1.12 1.75-2.37 3.42-3.69 5.03-2.79.57-5.51 1.38-8.22 2.23a42.66 42.66 0 0 1 3.37 1.39l-2.32.99a88.71 88.71 0 0 0-3.01-.77l-1.65-2.39c2.16-3.05 4.11-6.24 5.83-9.57.32-.21.98-.62 1.31-.83-.55 2.54-.82 5.15-.6 7.76z"/><path fill="#faf0ef" d="M195.26 200.24h.45v.45h-.45v-.45z"/><path fill="#eee5dd" d="M159.34 202.37c1.73 1.07-1.26 4.04-2.8 3.3-.35-1.51 1.43-3 2.8-3.3z"/><path fill="#c9c3c5" d="M165.49 201.79l1.62 2.72-2.36 3.48-2.53-4.93 3.27-1.27z"/><path fill="#5e5a5a" d="M209.63 210.67c2.71-2.31 3.58-5.92 5.26-8.93.62 1.41 1.26 2.83 1.79 4.29l-.25 1.48c-2.69 3.83-6.96 6.18-11.33 7.59 1.47-1.51 2.97-3 4.53-4.43z"/><path fill="#fffefe" d="M139.08 202.48c1.14 3.55.31 7.25.54 10.89 1.1 1.3 2.53 2.25 3.87 3.3.42 1.48.81 2.98 1.29 4.45l1.06.81 3.18 2.23c2.08 1.57 4.35 3 7.02 3.26l.67 1.65a186.08 186.08 0 0 1-7.79 1.31c-3.94-2.33-8.62-4.16-11.23-8.11-2.34-5.36-2.69-11.67-.71-17.2a65.88 65.88 0 0 1 2.1-2.59z"/><path fill="#8d8b93" d="M134.95 208.76c.54-1.3 1.23-2.53 2.03-3.69-1.98 5.53-1.63 11.84.71 17.2 2.61 3.95 7.29 5.78 11.23 8.11 2.69 1.09 5.57 1.55 8.45 1.79 2.82.25 5.65.38 8.49.45l1.45 3.51c-.34 1.22-.72 2.42-1.09 3.63l1.86 2.57c-4.17.58-8.29 1.46-12.31 2.72l-.69-1.63c2.2-.1 4.44-.03 6.62-.47 3.09-1.46 3.84-5.11 4.62-8.1-7.8 0-15.88 1.16-23.3-1.93-3.16-3.4-7.65-6.28-8.53-11.17-.48-4.32.21-8.67.46-12.99z"/><path fill="#999499" d="M164.75 207.99l2.36-3.48 2.67 2.71-.62 3.49-4.41-2.72z"/><path fill="#aeabae" d="M173.69 210.6l3.56-1.06.28.33.8 1-1.74 1.62-3.24 2.98c-1.15 2.73-.53 5.79-.48 8.66l2.84-.8 1.07 2.8.86-4.41c0 4.19.36 8.38.18 12.57-2.7-1.64-4.03-4.58-5.35-7.3-.43-4.58-.62-9.19-.29-13.78l.82.15 1.06-1.28 1.92-.34-2.29-1.14z"/><path fill="#b3aba4" d="M180.62 210.08c.68-1.1 2.6-1.29 3.15.05l-1.15 1.19-2-1.24z"/><path fill="#575251" d="M177.53 209.87l.54-.34 2.55.55 2 1.24c3.74 3.24 8.85 1.99 13.33 2.64l3.01.77-.69.27-8.16 2.15c1.08 1.47 2.26 2.86 3.68 4.02a29.49 29.49 0 0 0-4.28-.47c-2.51.31-5.31.63-7.06-1.63l1.32-3.93-2.71-.22c-.97 2.81-1.56 5.75-1.5 8.73 1.31 1.42 1.95 3.16 1.18 5.03-1.06 4.17-.46 8.61-1.93 12.69-1.53.21-3.27 0-4.54 1.06-2.9 2.14-5.67 4.59-9.15 5.76-2.82-.22-5.79-.52-8.15-2.24 2.73.73 5.66 1.45 8.46.65 4.71-1.31 8.78-5.04 10.4-9.66-1-3.37-3.28-6.33-3.36-9.95 1.32 2.72 2.65 5.66 5.35 7.3.18-4.19-.18-8.38-.18-12.57.49-3.16 1.13-6.29 1.81-9.41l-1.12-1.44-.8-1z"/><path fill="#938f8f" d="M197.91 212.35l8.22-2.23c-1.34 1.53-3.02 2.74-4.85 3.62l-3.37-1.39z"/><path opacity=".41" d="M278.04 210.14c1.65 2 2.99 4.36 5.15 5.88 7.25 1.29 14.76-1.46 20.29-6.16l.98 1.86c-6.07 5.26-14.28 7.74-22.24 6.33-1.52-2.57-2.95-5.19-4.18-7.91z"/><path fill="#948f92" d="M178.33 210.87l1.12 1.44-1.81 9.41-.86 4.41-1.07-2.8c-.63-3.63-.07-7.32.88-10.84l1.74-1.62z"/><path fill="#f0e8e3" d="M172.23 212.39l1.83-.31-1.06 1.28-.82-.15.05-.82z"/><path fill="#dcd7da" d="M173.35 215.47c.99-1.09 2.15-2 3.24-2.98-.95 3.52-1.51 7.21-.88 10.84l-2.84.8c-.05-2.87-.67-5.93.48-8.66z"/><path fill="#777174" d="M181.06 214.92l2.71.22-1.32 3.93c1.75 2.26 4.55 1.94 7.06 1.63l-4.61 5.25-4.16 2.73c.77-1.87.13-3.61-1.18-5.03-.06-2.98.53-5.92 1.5-8.73z"/><path fill="#6a5f5c" d="M190.11 217.15l8.16-2.15-.4 1.62 5.38-.27c-2.21 3.04-5.08 5.53-8.54 7.05a93.75 93.75 0 0 1-.42-1.79l-.5-.44c-1.42-1.16-2.6-2.55-3.68-4.02z"/><path fill="#a18c7c" d="M148.82 219.6l3.72-2.68-1.28 3.94 1.87 1.38 1.26.85-5.37 1.07-3.18-2.23.28-2.16 2.7-.17z"/><path fill="#ebe2e3" d="M163.47 222.47l5.72-5.72c.53 3.36-1.77 5.8-4 7.91l-4.52-.48.51 3.19-2.07 2.56-1.74 2.24c-2.88-.24-5.76-.7-8.45-1.79l7.79-1.31-.67-1.65 3.51-1.41c-1.52-1.31-3.26-2.31-5.16-2.92l-1.26-.85c3.01-1.69 6.32-3.25 9.84-2.23l-2.85 2.03c1.1.19 2.21.48 3.35.43z"/><path fill="#8d6c5e" d="M189.51 220.7a29.49 29.49 0 0 1 4.28.47l.5.44.42 1.79-2.71 1.25c-2.34.57-4.73.88-7.1 1.3l4.61-5.25z"/><path fill="#c2b6aa" d="M154.39 223.09c1.9.61 3.64 1.61 5.16 2.92l-3.51 1.41c-2.67-.26-4.94-1.69-7.02-3.26l5.37-1.07z"/><path fill="#bbb0a7" d="M160.67 224.18l4.52.48-.56 5.05-5.52.22 2.07-2.56-.51-3.19z"/><path fill="#676262" d="M165.19 224.66c3.02 2.96 3.1 7.62 2.12 11.47l-1.45-3.51c-2.84-.07-5.67-.2-8.49-.45l1.74-2.24 5.52-.22.56-5.05z"/><path fill="#98939a" d="M169.68 236.15c.82-.85 2.69-.55 2.96.69-.18 1.77-3.71.96-2.96-.69z"/><path fill="#b6b0b7" d="M168.37 238.32c1.35-1.01 2.73 1.37 1.52 2.3-1.35 1-2.73-1.38-1.52-2.3z"/></svg>