<svg xmlns="http://www.w3.org/2000/svg" width="512" height="512" viewBox="0 0 384 384" xmlns:v="https://vecta.io/nano"><path fill="#353639" opacity=".51" d="M328.3 125.34c1.1-1.23 1.98-3.2 3.89-3.2 6.77-.26 13.34 2.17 19.25 5.26 3.48 1.96 7.3 4.14 8.91 8.01l.77 1.5c-5.4-4.06-10.55-8.77-17.09-10.88-4-1.27-8.34-2.65-12.54-1.66-2.47 1.53-4.13 4.01-5.9 6.25-6.35 8.64-13.62 16.58-19.74 25.4l-.86-.92c1.71-3.19 4.41-5.68 6.63-8.51 5.57-7.08 11.45-13.91 16.68-21.25z"/><path fill="#737376" opacity=".82" d="M360.35 135.41c2.98 1.68 5.39 4.25 6.95 7.28 3.52 7.78 5.41 16.22 5.63 24.75l-2.45 1.13c-.49-5.89-.45-11.91-2.26-17.6-1.49-5.09-4.43-9.55-7.1-14.06l-.77-1.5z"/><path fill="#9c8582" d="M217.45 136.37c3.18-.33 6.28.88 9.05 2.32 1.04 2.22 1.85 4.55 2.24 6.97l-4.12.5-.18 2.32-.21 1.81-4.89-3.85c1.54-2.36 2.11-5.11 2.1-7.89l-4.76 5.88-1.15 1.04-2.67-1.2c-2.04-1.72-4.17-3.35-6.38-4.85 3.55-1.35 7.15-2.73 10.97-3.05z"/><path fill="#7f7d80" d="M205.75 138.92l.73.5c2.21 1.5 4.34 3.13 6.38 4.85l.63 1.41c-2.82-1.44-5.83-3.01-9.1-2.28l-5.77.66 3.49-4.4 1.87.43c.94 1.25 1.51 1.14 1.73-.33l.04-.84z"/><path fill="#d3caca" d="M216.68 144.43l4.76-5.88c.01 2.78-.56 5.53-2.1 7.89l-2.66-2.01z"/><path fill="#4b3a33" opacity=".72" d="M226.5 138.69c1.43 1.57 3.31 3.11 3.29 5.44.32 2.48-1.14 4.65-2.2 6.76l2.65 1.7-1.31.38-2.4.82-2.69-2.24.39-1.26.21-1.81 4.33-.16-.03-2.66c-.39-2.42-1.2-4.75-2.24-6.97z"/><path fill="#474c4d" d="M188.88 142.89c4.53-.46 9.03-1.42 13.23-3.23-1.24 1.4-2.38 2.89-3.49 4.4-.82.11-1.64.24-2.45.37-1.54-.61-3.11-1.13-4.67-1.66l-.24 1.7c-.88 4.26-1.93 8.48-2.65 12.78-.65 3.92-1.55 7.8-2.57 11.65l-.93 2.64c-2.56-.03-5.12.02-7.67.02-1.53-.21-3.04-.46-4.54-.73.68-2.39 1.31-4.92 3-6.82 2.44-2.89 5.63-5.23 7.23-8.75 1.91-4.13 3.59-8.36 5.75-12.37m-4.61 14.38v.46h.45v-.46h-.45m1.03 4.04v.45h.45v-.45h-.45m-5.07 2.78v.83l.72.41.72-.42-.01-.82-.71-.41-.72.41z"/><path fill="#bcb6b1" opacity=".96" d="M203.98 140.09l.77-.58.96.25c-.22 1.47-.79 1.58-1.73.33z"/><path fill="#b4aeab" d="M204.39 143.4c3.27-.73 6.28.84 9.1 2.28l-.63-1.41 2.67 1.2-2.36 2.1c-3.25-.6-6.13-2.28-8.78-4.17z"/><path fill="#363a3a" d="M175.18 157.02c2.86-6.16 8.86-9.71 13.7-14.13-2.16 4.01-3.84 8.24-5.75 12.37-1.6 3.52-4.79 5.86-7.23 8.75-1.69 1.9-2.32 4.43-3 6.82l-5.66-1.09 1.33-2.29c2.35-3.39 4.7-6.77 6.61-10.43z"/><path fill="#a29792" d="M191.5 142.77l4.67 1.66c1.41 1.7 2.66 3.54 3.71 5.48l1.9 4.26-4.5 2.01 1.58-3.27c-2.2-3.11-4.84-5.85-7.6-8.44l.24-1.7z"/><path fill="#343638" opacity=".65" d="M367.3 142.69c1.45 1.95 2.77 4.04 3.46 6.4 2.1 6.85 2.64 14.05 3.18 21.16-4.24.55-8.56.43-12.73-.56-8.4-2.02-17.06-.64-25.58-1.06l-1.03-3.3-5.37-1.33c2 .28 4.03.39 6.05.53l1.06 3.26c6.9.48 13.82-.08 20.7.52 4.46.33 9.2 2.83 13.44.26l2.45-1.13c-.22-8.53-2.11-16.97-5.63-24.75z"/><path fill="#3d4141" d="M196.17 144.43l2.45-.37 5.77-.66c2.65 1.89 5.53 3.57 8.78 4.17l2.88.62c.48 2.18 1.25 4.4 1.01 6.67-1.14 5.22-5.78 9.67-11.25 9.9-1.51-1.01-2.91-2.15-4.34-3.27l3.11-4.44-2.4-1.95 5.98-3.77-8.28-1.42c-1.05-1.94-2.3-3.78-3.71-5.48m14.09 6.85v.45h.45v-.45h-.45m-2 8.99l.01.45.45-.01-.01-.45-.45.01z"/><path fill="#586167" d="M191.26 144.47c2.76 2.59 5.4 5.33 7.6 8.44l-1.58 3.27-4.66-2.63c.66 1.48 1.33 2.95 1.9 4.47-.04.13-.13.39-.17.52l-1.71 1.36-4.03-2.65c.72-4.3 1.77-8.52 2.65-12.78m-1 8.76v.45h.45v-.45h-.45z"/><path fill="#8b6f6c" d="M215.53 145.47l1.15-1.04 2.66 2.01 4.89 3.85-.39 1.26-3.33 2.02c-.72-2.33-2-4.6-4.46-5.38l-2.88-.62 2.36-2.1z"/><path fill="#b8a8a2" d="M224.62 146.16l4.12-.5.03 2.66-4.33.16.18-2.32z"/><path fill="#b09f97" d="M216.05 148.19c2.46.78 3.74 3.05 4.46 5.38-.87 2.67-1.99 5.24-3.12 7.81a47.72 47.72 0 0 1-6.33 4.22l-6.26 1.63c-2.42.83-3.05 3.15-3.23 5.45l-1.59.55-4.5 1.66.38-1.33c1.97-2.41 4.25-4.96 4.09-8.31l5.86-.49c5.47-.23 10.11-4.68 11.25-9.9.24-2.27-.53-4.49-1.01-6.67z"/><path fill="#8e888e" d="M199.88 149.91l8.28 1.42-5.98 3.77 2.4 1.95-3.11 4.44 4.34 3.27-5.86.49-.1-2.67c-1.43 1.7-3.19 3.26-3.95 5.41-.29 1.84-.08 3.71-.04 5.57l-.38 1.33-.59 1.32 2.53 1.32c-1.23.55-2.5 2.29-3.86 1.04-1.05-1.57-1.76-3.33-2.56-5.03l.03-5.48-1.99 4.84-2.7-.85-.3-3.15c1.02-3.85 1.92-7.73 2.57-11.65l4.03 2.65 1.71-1.36.28-.22-.11-.3c-.57-1.52-1.24-2.99-1.9-4.47l4.66 2.63 4.5-2.01-1.9-4.26m-7.81 15.18c-1.31.68-1.3 1.36.01 2.02 1.31-.69 1.3-1.36-.01-2.02z"/><path fill="#999b9f" d="M210.26 151.28h.45v.45h-.45v-.45z"/><path fill="#969595" d="M247.15 153.52c.04-1.54 1.65-2.45 2.99-2.74 3.41.06 6.47 1.84 9.5 3.23l-.81.12c-1.97.22-4 .14-5.92.7-2.16.87-3.79 2.62-5.59 4.03l-.55.43c.03-1.93.14-3.86.38-5.77z"/><path fill="#f6b087" d="M220.51 153.57l3.33-2.02c1.95 3.94 3.32 8.19 3.59 12.6-.55 1.31-1.16 2.6-1.97 3.77-2.96.55-5.93-.3-8.83-.78.22-1.92.43-3.85.76-5.76 1.13-2.57 2.25-5.14 3.12-7.81z"/><path fill="#916751" opacity=".88" d="M223.84 151.55l2.69 2.24 3.29 6.41-.89-7.23 1.31-.38c3.03.07 5.91 1.17 8.9 1.56 2.68.44 5.37-.15 8.01-.63-.24 1.91-.35 3.84-.38 5.77l.17 1.96-.59-3.52-.49-2.74c-4.55-.27-9.11-.33-13.67-.15l-.88 3.58-.67 2.58-2.11.48-1.1 2.67c-.27-4.41-1.64-8.66-3.59-12.6z"/><path fill="#a9b0b6" d="M190.26 153.23h.45v.45h-.45v-.45z"/><path fill="#c58868" d="M226.53 153.79l2.4-.82.89 7.23-3.29-6.41z"/><path fill="#bfbbb9" d="M247.32 158.86c1.8-1.41 3.43-3.16 5.59-4.03 1.92-.56 3.95-.48 5.92-.7-3.11 2.47-6.86 4.33-9.06 7.77l-2.45-3.04z"/><path fill="#908d90" d="M258.83 154.13l.81-.12c2.15-.59 4.32.06 6.24 1.07 3.16 1.53 6.28 3.2 9.65 4.24l-6.14 1.17c.43 2.58.77 5.17.98 7.78-4.5-1-9.13-1.17-13.71-1.51l-2.4-.19-.59 4.31c-1.77-.03-3.53-.06-5.28-.19l-.31-.77 4.88-.05.47-2.87-4.24-3.24-2.12-1.58-.13-.93-.17-1.96.55-.43c.83.99 1.64 2.02 2.45 3.04 2.2-3.44 5.95-5.3 9.06-7.77m2.68 6.46l2.52-1.66-1.43-3.09c-1.21 1.37-1.86 2.97-1.09 4.75m-7.29.31l2.95 5.59.19-2.91c3.58-.73 6.77 1.26 9.93 2.6l.43-3.76c-1.96.27-4.21 1.23-6.02-.02-1.07-1.27-1.83-2.76-2.65-4.19l-.13 2.8-2.56-2.56-2.14 2.45m-2.04-.1c-1.26.47-.76 2.86.66 2.43 1.25-.48.75-2.87-.66-2.43z"/><path fill="#f2ab83" d="M232.19 154.84c4.56-.18 9.12-.12 13.67.15l.49 2.74c-5.02.12-10.03.37-15.04.69l.88-3.58z"/><path fill="#4f4d4b" opacity=".69" d="M265.88 155.08c4.09.91 8.13 2.09 11.94 3.86l2.57 1.11c-1.62-.27-3.25-.47-4.86-.73-3.37-1.04-6.49-2.71-9.65-4.24z"/><path fill="#262623" d="M304.59 154.69l.4.41.86.92-.4.5-4.82 5.72 7.82-.19-3.44 1.95 1.56 2.26c-3.4-1.33-6.88-3.09-10.65-2.67-4.82.49-9.64 1.22-14.5.92l.09-.91c1.77-.88 3.71-1.37 5.63-1.8 3.76.45 7.76 1.42 11.45.09 2.76-1.64 4.22-4.66 6-7.2z"/><path fill="#c6c2bc" d="M261.51 160.59c-.77-1.78-.12-3.38 1.09-4.75l1.43 3.09-2.52 1.66z"/><path fill="#736964" opacity=".84" d="M169.53 161.66c1.24-2.19 3.6-3.35 5.65-4.64-1.91 3.66-4.26 7.04-6.61 10.43.36-1.93.59-3.87.96-5.79z"/><path fill="#edeae5" d="M184.27 157.27h.45v.46h-.45v-.46z"/><path fill="#febc97" d="M231.31 158.42c5.01-.32 10.02-.57 15.04-.69l.59 3.52.13.93c-2.13 2.07-4.05 5-7.17 5.5-3.79-.15-6.74-2.93-9.72-4.95l.46-1.73.67-2.58z"/><path fill="#d1d7db" d="M194.35 158.54l.17-.52.11.3-.28.22z"/><path fill="#f3eae4" d="M254.22 160.9l2.14-2.45 2.56 2.56.13-2.8c.82 1.43 1.58 2.92 2.65 4.19 1.81 1.25 4.06.29 6.02.02l-.43 3.76c-3.16-1.34-6.35-3.33-9.93-2.6l-.19 2.91-2.95-5.59z"/><path fill="#e2dbd7" d="M269.39 160.49l6.14-1.17-4.45 3.39 4.33.57-.06 1.9-.15 1.82-2.26 2.52-2.57-1.25-.98-7.78z"/><path fill="#818181" d="M208.26 160.27l.45-.01.01.45-.45.01-.01-.45z"/><path fill="#e2ded9" d="M252.18 160.8c1.41-.44 1.91 1.95.66 2.43-1.42.43-1.92-1.96-.66-2.43z"/><path fill="#b6b2b2" d="M275.53 159.32l4.86.73 1.86.53c-1.89 2.08-4.28 3.61-6.9 4.6l.06-1.9-4.33-.57 4.45-3.39z"/><path fill="#63666c" d="M282.25 160.58l4.89 1.22c-1.92.43-3.86.92-5.63 1.8-4.01 5.08-4.63 12.44-2.7 18.49l-2.94.1-.48-5.5-2.79-1.88c1.23-2.46 2.23-5.07 2.6-7.81.06-.61.11-1.21.15-1.82 2.62-.99 5.01-2.52 6.9-4.6z"/><path fill="#909291" d="M185.3 161.31h.45v.45h-.45v-.45z"/><path fill="#5e473e" d="M211.06 165.6a47.72 47.72 0 0 0 6.33-4.22l-.76 5.76c2.9.48 5.87 1.33 8.83.78.81-1.17 1.42-2.46 1.97-3.77l1.1-2.67 2.11-.48-.46 1.73c-.59 2.19-1.15 4.39-1.44 6.64l.24.75c-3.7.3-7.49-.04-11.13.8-2.22 1.48-1.46 4.47-1.33 6.69.77 4.79 1.46 9.6 1.6 14.46a39.55 39.55 0 0 0-4.61-8.75c.43-2.8 1.14-5.62.93-8.47-.57-3.26-2.21-6.19-3.38-9.25z"/><path fill="#614b42" opacity=".78" d="M163.6 175.41c1.33-4.83 3.24-9.52 5.93-13.75-.37 1.92-.6 3.86-.96 5.79l-1.33 2.29c-.57 1.01-1.13 2.02-1.64 3.06-1.26 3.16-2.27 6.63-1.55 10.06.33 2.47 1.31 4.89 1.15 7.41-.79 1.12-1.81 2.05-2.78 3.01.73-5.94-.41-12.04 1.18-17.87z"/><path fill="#e6a885" d="M247.07 162.18l2.12 1.58-1.4 5.37c-6.33-.89-12.71.03-19.05.24.29-2.25.85-4.45 1.44-6.64 2.98 2.02 5.93 4.8 9.72 4.95 3.12-.5 5.04-3.43 7.17-5.5z"/><path fill="#6d7378" d="M308.45 162.05l3.63.69c2.98 1.42 5.79 3.36 7.66 6.14l.12.83-8.25-1.49.22 1.34c-2.23-1.63-4.94-.96-7.41-.43-1.96-.13-3.93-.12-5.87.23-5.8 1.11-11.61-.85-17.46-.22l.33-4.63c4.86.3 9.68-.43 14.5-.92 3.77-.42 7.25 1.34 10.65 2.67l-1.56-2.26 3.44-1.95z"/><path fill="#2a2b28" d="M312.08 162.74c4.31-.15 8.67-.52 12.94.38-.96.15-1.91.34-2.85.56-1.19.6-2.32 1.3-3.45 2l8.55.33 5.14.66-3 1.63-3.14-.22c-2.2.1-4.37.43-6.53.8-1.87-2.78-4.68-4.72-7.66-6.14z"/><path fill="#4c4a4a" d="M195.9 167.99c.76-2.15 2.52-3.71 3.95-5.41l.1 2.67c.16 3.35-2.12 5.9-4.09 8.31-.04-1.86-.25-3.73.04-5.57z"/><path fill="#7a7d80" d="M322.17 163.68l2.85-.56 4.21.88 5.37 1.33 1.03 3.3c8.52.42 17.18-.96 25.58 1.06 4.17.99 8.49 1.11 12.73.56l3.12-.35-.1 1.06-6.15.43 3.56 4.53-2.63.22c-1.19-.73-2.36-1.5-3.61-2.11-2.24-1.08-4.73-1.44-7.2-1.38-7.68.16-15.35-.45-23.04-.31-3.12.13-6.12-.81-8.91-2.11l-.92 3.92c-1.7-.53-3.37-1.1-5.05-1.66l.04 2.5-2.76.04-.43-5.32-.12-.83c2.16-.37 4.33-.7 6.53-.8-1.93.77-3.71 1.81-5.46 2.9 3.03-.26 6.03-1 8.6-2.68 1.01-.53 2-1.08 3-1.63l-5.14-.66c-1.73-.72-3.41-1.54-5.1-2.33z"/><path fill="#b2b4b2" d="M180.23 164.09l.72-.41.71.41.01.82-.72.42-.72-.41v-.83z"/><path fill="#ccbfb9" d="M249.19 163.76l4.24 3.24-.47 2.87-4.88.05-.29-.79 1.4-5.37z"/><path fill="#32343c" d="M278.81 182.09c-1.93-6.05-1.31-13.41 2.7-18.49l-.09.91c-.14 1.54-.23 3.08-.33 4.63 5.85-.63 11.66 1.33 17.46.22l1.4 3.2c-4.97.18-9.9-.54-14.85-.77-2.1-.19-3.96.91-5.75 1.81 6.67 3.05 14.07 1.25 21.05 2.53l-2.36 1.63c-3.51.28-7.01.75-10.43 1.58 2.49.3 5 .57 7.51.69l.31 2.61-4.36 1.55c-2.25.73-4.61 1.59-7.01 1.19-2.01-.6-3.75-1.87-5.25-3.29z"/><path fill="#939599" d="M318.72 165.68l3.45-2 5.1 2.33-8.55-.33z"/><path fill="#faf7f8" d="M192.07 165.09c1.31.66 1.32 1.33.01 2.02-1.31-.66-1.32-1.34-.01-2.02z"/><path fill="#9e6c53" d="M204.8 167.23l6.26-1.63c1.17 3.06 2.81 5.99 3.38 9.25.21 2.85-.5 5.67-.93 8.47l-.43-.59c-1.71-2.4-3.19-4.95-4.7-7.47-2.86-.43-5.66-1.13-8.4-2.03l1.59-.55 3.72-1.54c-.02-1.32-.3-2.62-.49-3.91z"/><path fill="#404248" d="M254.26 166.57l2.4.19.4 6.05c3.88-.06 7.78.19 11.66-.23 1.89-.1 2.98-1.87 4.22-3.06l2.26-2.52c-.37 2.74-1.37 5.35-2.6 7.81-2.77.89-5.73.66-8.6.68-7.8-.2-15.61.18-23.4-.26a155.35 155.35 0 0 1 .46-4.84c2.44-.01 4.88.17 7.33.3 1.75.13 3.51.16 5.28.19l.59-4.31z"/><path fill="#6d5e58" d="M256.66 166.76c4.58.34 9.21.51 13.71 1.51l2.57 1.25c-1.24 1.19-2.33 2.96-4.22 3.06-3.88.42-7.78.17-11.66.23-.1-2.02-.25-4.04-.4-6.05m5.95 2.39l-1 1.61c3.23.42 6.5.46 9.74.14-2.6-1.44-5.77-3.05-8.74-1.75z"/><path fill="#494e57" d="M304.42 169.13c2.47-.53 5.18-1.2 7.41.43l-.22-1.34 8.25 1.49.43 5.32-1.87-.3c-1.29-1.06-2.67-2.05-4.31-2.46-3.02-.02-6.04.09-9.05.16l-.64-3.3z"/><path fill="#d59b7c" d="M201.57 172.68c.18-2.3.81-4.62 3.23-5.45.19 1.29.47 2.59.49 3.91-1.19.63-2.46 1.09-3.72 1.54z"/><path fill="#7b5644" opacity=".92" d="M228.74 169.37c6.34-.21 12.72-1.13 19.05-.24l.29.79.31.77c-2.45-.13-4.89-.31-7.33-.3-4.02.49-8.21 1.51-12.08-.27l-.24-.75z"/><path fill="#4d535c" d="M298.55 169.36c1.94-.35 3.91-.36 5.87-.23l.64 3.3-5.11.13-1.4-3.2z"/><path fill="#bababd" d="M326.27 168.08l3.14.22c-2.57 1.68-5.57 2.42-8.6 2.68 1.75-1.09 3.53-2.13 5.46-2.9z"/><path fill="#7c797a" d="M185.11 171.54l.93-2.64.3 3.15 2.7.85 1.96.64c.8 1.7 1.51 3.46 2.56 5.03 1.36 1.25 2.63-.49 3.86-1.04 3.61 1.84 7.06 3.99 10.43 6.23l-1.78 3.38-.62-.37a171.04 171.04 0 0 0-6.41-3.69c.31 1.24.62 2.49.99 3.72l-4.56 1.49-2.23-2.13c-.6 2.03-1.2 4.05-1.89 6.05l-1.12.07c.17-2.73 1.16-5.3 2.07-7.84.09-.98.07-1.95-.04-2.92-1.99-2.4-5.23-3.62-8.31-3.47-2.19.33-3.99 1.76-5.92 2.73-2.14.4-4.31.64-6.48.83.23-1.13.42-2.27.62-3.4 2.58-.37 4.95-1.48 7.2-2.75l3.26-1.05.51-2.51-6.54-.34h.84l7.67-.02m3.48 3.58c-1.05 1.3 1.22 2.86 2.16 1.56 1.05-1.31-1.22-2.87-2.16-1.56z"/><path fill="#f3eeec" d="M189.04 172.9l1.99-4.84-.03 5.48-1.96-.64z"/><path fill="#968989" d="M262.61 169.15c2.97-1.3 6.14.31 8.74 1.75-3.24.32-6.51.28-9.74-.14l1-1.61z"/><path fill="#988680" d="M165.6 172.8l1.64-3.06 5.66 1.09 4.54.73h-.84c-.42 0-1.28-.01-1.7-.01l2.27 3.79-4.25-.34c1.13-.91 1.21-3.57-.75-3.22-1.53.48-.76 2.33.02 3.13l-1.72-.36-4.87-1.75z"/><path fill="#555660" d="M328.98 170.23c2.79 1.3 5.79 2.24 8.91 2.11 7.69-.14 15.36.47 23.04.31 2.47-.06 4.96.3 7.2 1.38-4.08.01-8.08.98-12.13 1.39-3.99.42-7.99-.17-11.98-.26-5.05-.14-10.11-.22-15.14-.77l-.82-.24.92-3.92z"/><path fill="#0d0d0e" d="M377.06 169.9c.46 2.08.96 4.29.35 6.4-.99.83-2.09 1.51-3.17 2.22-1.36 6.14-1.4 12.67-4.3 18.39 1.41-5.27 2.17-10.68 2.84-16.08l-2.95-1.45c-2.36-1.41-5.11-2-7.84-1.69 3.24-.58 6.48-1.18 9.75-1.55l2.63-.22 2.19-.14.4-4.82.1-1.06z"/><path fill="#70727b" d="M285.1 171.79c4.95.23 9.88.95 14.85.77l5.11-.13 9.05-.16.07 3.9-.72-.11c-3.35-.76-6.85-.71-10.03.72-1.01-.24-2.02-.46-3.03-.65-6.98-1.28-14.38.52-21.05-2.53 1.79-.9 3.65-2 5.75-1.81m18.24 2.55v.45h.45l-.01-.45h-.44z"/><path fill="#a4a5a9" d="M370.81 171.39l6.15-.43-.4 4.82-2.19.14-3.56-4.53z"/><path fill="#af9e95" d="M172.19 174.91c-.78-.8-1.55-2.65-.02-3.13 1.96-.35 1.88 2.31.75 3.22l-.73-.09z"/><path fill="#b8a79f" d="M174.9 171.55l1.7.01 6.54.34-.51 2.51-3.26 1.05-2.2-.12-2.27-3.79z"/><path fill="#8a8b90" d="M314.11 172.27c1.64.41 3.02 1.4 4.31 2.46l-.12 2.11-4.12-.67-.07-3.9z"/><path fill="#a4a6a9" d="M323.01 172.49l5.05 1.66.82.24-4.93.53-.9.07-.04-2.5z"/><path fill="#b37c62" d="M164.05 182.86c-.72-3.43.29-6.9 1.55-10.06 1.61.61 3.22 1.23 4.87 1.75-1.83 1.53-4 2.83-5.22 4.95-.49 1.54-.57 3.33.17 4.81 1 1.19 2.24 2.13 3.43 3.12-.51 1.37-.93 2.78-1.28 4.21-2.31 1.56-4.58 3.19-6.77 4.91l-.28-.73.7-1.36 1.2-1.18c.97-.96 1.99-1.89 2.78-3.01.16-2.52-.82-4.94-1.15-7.41z"/><path fill="#5b5351" d="M199.98 173.23c2.74.9 5.54 1.6 8.4 2.03l4.7 7.47-5.76-2.93 1.82 4.82-1.29-.86c-3.37-2.24-6.82-4.39-10.43-6.23l-2.53-1.32.59-1.32c1.47-.63 2.98-1.16 4.5-1.66z"/><path fill="#a8a8ad" d="M303.34 174.34h.44l.01.45h-.45v-.45z"/><path fill="#42444a" d="M328.88 174.39c5.03.55 10.09.63 15.14.77 3.99.09 7.99.68 11.98.26 4.05-.41 8.05-1.38 12.13-1.39 1.25.61 2.42 1.38 3.61 2.11-3.27.37-6.51.97-9.75 1.55-8.45 1.89-17.12.5-25.66 1.24l-.91.06-.89-1.4c-.88.11-1.77.2-2.65.28l-1.44.01-7.17-.04.68-2.92 4.93-.53m15.85 3.17c5.14.69 10.36.63 15.51.03-5.13-.84-10.39-1.1-15.51-.03z"/><path fill="#d09072" d="M165.25 179.5c1.22-2.12 3.39-3.42 5.22-4.95l1.72.36.73.09 4.25.34 2.2.12c-2.25 1.27-4.62 2.38-7.2 2.75l-.62 3.4-2.7 5.82c-1.19-.99-2.43-1.93-3.43-3.12-.74-1.48-.66-3.27-.17-4.81z"/><path fill="#d6cfc5" d="M188.59 175.12c.94-1.31 3.21.25 2.16 1.56-.94 1.3-3.21-.26-2.16-1.56z"/><path fill="#131415" d="M303.43 176.78c3.18-1.43 6.68-1.48 10.03-.72-1.25.69-2.44 1.65-3.89 1.86-2.1-.04-4.11-.68-6.14-1.14z"/><path fill="#3c3e43" d="M318.42 174.73l1.87.3 2.76-.04.9-.07-.68 2.92-3.13.12-1.84-1.12.12-2.11z"/><path fill="#3c3f46" d="M300.4 176.13l3.03.65c2.03.46 4.04 1.1 6.14 1.14 1.45-.21 2.64-1.17 3.89-1.86l.72.11 4.12.67 1.84 1.12-2.06 2.18-5.01 5.09c-3.66.28-7.34.22-11 .19-.86-.23-1.72-.44-2.58-.64-2.77-.61-5.61-.54-8.42-.59l4.36-1.55-.31-2.61 4.92.05-2-2.32 2.36-1.63m4.39 2.91c-.42 1.42 1.98 1.89 2.44.64.42-1.42-1.98-1.9-2.44-.64m5.98-.05c-.44 1.42 1.96 1.9 2.45.67.43-1.42-1.97-1.91-2.45-.67m-4.53 4.2l.01.83.72.4.71-.42-.01-.82-.71-.41-.72.42z"/><path fill="#8e8e93" d="M320.14 177.96l3.13-.12 7.17.04-1.32.94c-2.59.83-5.31 1.16-8.02 1.26l-3.02.06 2.06-2.18z"/><path fill="#7a7a7e" d="M331.88 177.87l2.65-.28.89 1.4-.59 3-5.38.46-4.71-.95 6.1-.72c1.13-.62 1.48-1.59 1.04-2.91z"/><path fill="#53565c" d="M344.73 177.56c5.12-1.07 10.38-.81 15.51.03-5.15.6-10.37.66-15.51-.03z"/><path fill="#918e91" d="M178.03 180.78c1.93-.97 3.73-2.4 5.92-2.73 3.08-.15 6.32 1.07 8.31 3.47.11.97.13 1.94.04 2.92-1.45-.73-2.79-1.65-4.03-2.7-.12 1.62-.15 3.28-.63 4.85-1.36.48-2.77.74-4.17 1.05l3.11 2.67c-1.42 1.4-3.22 2.63-3.79 4.65 2.25 1.21 4.87 1.38 7.31.7l.6-.15.89 4.97c3.83-1.07 7.72-1.9 11.68-2.31a35.68 35.68 0 0 0-3.13 5.64l-.9.06c-2.93.05-5.84-.21-8.75-.46l-.92-5.46c-.45 1.41-.9 2.82-1.28 4.26-2.6 1.84-5.09 3.83-7.68 5.68-1.38-1.49-2.79-2.94-4.12-4.48l.83-1.57c1.26-2 2.48-4.13 2.29-6.58l-1.83 2.52-1.02.32-.65-4.63c1.2-1.18 1.13-2.2-.21-3.06l1.96-1.58 2.56 1.13c.52-2.33.9-4.69 1.39-7.03l-2.84.92a45.93 45.93 0 0 0 .28-2.63l-1.22-.44m5.04.31l1.69 4.57c1.49-1.54 2.23-3.51 2.56-5.59l-4.25 1.02m-2.76 12.16v.45l.45-.01v-.45l-.45.01m1.36 5.79l-1.12 3.57a92.32 92.32 0 0 0 1.29 1.64l2.35-1.49-2.52-3.72z"/><path fill="#5e626d" d="M287.61 179.34c3.42-.83 6.92-1.3 10.43-1.58l2 2.32-4.92-.05c-2.51-.12-5.02-.39-7.51-.69z"/><path fill="#363638" opacity=".61" d="M330.44 177.88l1.44-.01c.44 1.32.09 2.29-1.04 2.91a3.05 3.05 0 0 1-1.72-1.96l1.32-.94z"/><path fill="#7f8088" d="M304.79 179.04c.46-1.26 2.86-.78 2.44.64-.46 1.25-2.86.78-2.44-.64z"/><path fill="#777982" d="M310.77 178.99c.48-1.24 2.88-.75 2.45.67-.49 1.23-2.89.75-2.45-.67z"/><path fill="#545559" opacity=".98" d="M321.1 180.08c2.71-.1 5.43-.43 8.02-1.26a3.05 3.05 0 0 0 1.72 1.96l-6.1.72-1.91 2.84-4.05-.1 2.32-4.16z"/><path fill="#36332d" d="M335.42 178.99l.91-.06-.96 3.4c-6.95 2.1-14.19 2.91-21.44 2.86l-.86.04c1.72-1.64 3.35-3.38 5.01-5.09l3.02-.06-2.32 4.16 4.05.1c2.28-.32 4.48-1.03 6.62-1.89 1.79-.1 3.58-.29 5.38-.46l.59-3z"/><path fill="#c7c5c8" d="M183.07 181.09l4.25-1.02c-.33 2.08-1.07 4.05-2.56 5.59l-1.69-4.57z"/><path fill="#7a7576" d="M207.32 179.8l5.76 2.93.43.59a39.55 39.55 0 0 1 4.61 8.75l.09 1.53c-1.65 5.34-4.22 10.35-7.32 14.98l3.18-1.35c-.23 1.64-.45 3.27-.75 4.9-.16 1.3-1.37 2.08-2.09 3.07l.74-3.69c-1.98 1.12-4.02 2.16-5.79 3.6-1.88 1.49-2.56 3.9-3.45 6.02l-1.35 3.59c-1.47-1.42-2.97-2.83-4.66-3.99l.95-1.73c-3.07-.82-6.18-1.49-9.31-2.02l-.92 5.82-.65 3.42-1.36-2.67c-1.44-3.19-1.7-6.71-1.9-10.16l-3.73.4-2.43.26-.82-4.88-3.33-1.32-1.64-2.52c2.86 1.29 5.9 2.23 9.03 2.56 2.59-1.85 5.08-3.84 7.68-5.68-.47 2.21-.78 4.45-1.1 6.69l5-.08c-.95 2.43 2.34 2.42 2.54.25 1.28-1.92 2.81-3.65 4.51-5.2l.9-.06c-.22 1.78-.33 3.56-.46 5.34 3.72-1.52 7.25-3.48 10.48-5.87 1.6-.77 2.26-2.55 2.23-4.23l.17-1.56c.69.73 1.47 1.36 2.34 1.9.42-1.76.06-4.2-2.17-4.29.03-.45.11-1.36.15-1.81 2.51-3.04-.19-6.54-2.01-9.1-.3 2.61-.53 5.23-.65 7.86l-.75-.36-3.24-1.6-1.43 6.69a7.22 7.22 0 0 0-1.99-2.02l1.02-2.46.99-2.18a15.28 15.28 0 0 0 1.25-2.98c.56-1.14 1.17-2.26 1.78-3.38l1.29.86-1.82-4.82m-11.9 31.82c-3.29.56-6.57-.3-9.79-.9l.6 6.84c1.55-1.25 2.99-2.76 4.9-3.44 2.85-.2 5.67.67 8.53.47 2.83-.84 4.64-3.35 6.52-5.45-3.61.7-7.13 1.83-10.76 2.48m-12.27-1.53c-1.31.68-1.31 1.36 0 2.03 1.31-.69 1.3-1.37 0-2.03z"/><path fill="#99989d" d="M369.83 179.38l2.95 1.45c-.67 5.4-1.43 10.81-2.84 16.08-1.81 5.86-5.33 11.08-9.8 15.24-2.14 1.85-4.01 4.5-6.97 4.98l-1.42.25c6.71-4.5 12.27-10.72 15.35-18.24 2.81-6.19 2.84-13.11 2.73-19.76z"/><path fill="#7e7c80" d="M171.55 181.61l6.48-.83 1.22.44-.28 2.63-1.11 4.98-1.96 1.58c-1.17 1-1.1 2.02.21 3.06l.65 4.63.56 3.74-.83 1.57c-2.57-3.85-2.84-8.64-4.9-12.72l-2.8-1.78c.4 1.7.79 3.41 1.3 5.09.46 1.53 1.06 3.02 1.31 4.6-.65 1.09-1.57 1.97-2.4 2.92-.89-3.22-1.27-6.55-1.43-9.88.35-1.43.77-2.84 1.28-4.21.88-1.95 1.88-3.85 2.7-5.82z"/><path fill="#bebfc1" d="M188.27 181.74c1.24 1.05 2.58 1.97 4.03 2.7-.91 2.54-1.9 5.11-2.07 7.84 1.74 1.96 3.73 3.68 5.79 5.29l-4.43 2.91-.89-4.97c.04-1.29-.5-2.11-1.61-2.45-1.69.53-.07 2.43 1.01 2.6-2.44.68-5.06.51-7.31-.7.57-2.02 2.37-3.25 3.79-4.65l-3.11-2.67 4.17-1.05c.48-1.57.51-3.23.63-4.85z"/><path fill="#9e9ea2" d="M322.83 184.34l1.91-2.84 4.71.95c-2.14.86-4.34 1.57-6.62 1.89z"/><path fill="#c0bbba" d="M178.97 183.85l2.84-.92-1.39 7.03-2.56-1.13 1.11-4.98z"/><path fill="#8f8c90" d="M199.04 183.08l6.41 3.69-1.35 1.15-.08.92.8 1.28-.99 2.18-3.8-5.5-.99-3.72z"/><path fill="#716f72" d="M306.24 183.19l.72-.42.71.41.01.82-.71.42-.72-.4-.01-.83z"/><path fill="#3a3b3d" opacity=".39" d="M299.49 184.78l2.58.64c2.53 4.53 6.22 8.2 9.56 12.12 3.95 5.97 8.66 11.39 12.59 17.37-3.81-2.57-6.21-6.55-9.09-10.03-5.57-6.41-10.65-13.23-15.64-20.1z"/><path fill="#aeaaa6" d="M210.87 184.19c1.82 2.56 4.52 6.06 2.01 9.1l-2.66-1.24.65-7.86z"/><path fill="#b9b6ba" d="M193.24 186.16l2.23 2.13 1.79 4.43-5.91-.51 1.89-6.05z"/><path fill="#a8a5a7" d="M195.47 188.29l4.56-1.49c1.14 1.92 2.46 3.71 3.8 5.5l-1.02 2.46c-.59 1.09-.51 2.55.46 3.41-3.96.41-7.85 1.24-11.68 2.31l4.43-2.91 2.62-1.7-1.38-3.15c-.63-1.47-1.21-2.95-1.79-4.43z"/><path fill="#cdcbc0" d="M204.1 187.92l1.35-1.15.62.37a15.28 15.28 0 0 1-1.25 2.98l-.8-1.28.08-.92z"/><path fill="#e3dbd3" d="M168.79 188.91l2.8 1.78-1.5 3.31-1.3-5.09z"/><path fill="#8e8a8d" d="M206.23 190.09l3.24 1.6c-.6 4.04-1.84 8.09-4.93 10.95.01-1.71.03-3.43.13-5.13l.13-.73 1.43-6.69z"/><path fill="#686568" d="M171.59 190.69c2.06 4.08 2.33 8.87 4.9 12.72 1.33 1.54 2.74 2.99 4.12 4.48-3.13-.33-6.17-1.27-9.03-2.56-.89-1.26-1.78-2.51-2.58-3.81.83-.95 1.75-1.83 2.4-2.92-.25-1.58-.85-3.07-1.31-4.6l1.5-3.31z"/><path fill="#ede8e5" d="M176.11 193.47c-1.31-1.04-1.38-2.06-.21-3.06 1.34.86 1.41 1.88.21 3.06z"/><path fill="#e8a582" d="M160.8 196.55l6.77-4.91c.16 3.33.54 6.66 1.43 9.88l2.58 3.81 1.64 2.52-8.8-3.55c-1.07-2.65-2.46-5.15-3.62-7.75z"/><path fill="#efe8ed" d="M190.23 192.28l1.12-.07 5.91.51 1.38 3.15-2.62 1.7c-2.06-1.61-4.05-3.33-5.79-5.29z"/><path fill="#6a6567" d="M209.47 191.69l.75.36 2.66 1.24-.15 1.81-.17 2.39-.17 1.56c-1.68.57-3.41 2.41-2.23 4.23-3.23 2.39-6.76 4.35-10.48 5.87.13-1.78.24-3.56.46-5.34a35.68 35.68 0 0 1 3.13-5.64l1.4-.66c-.1 1.7-.12 3.42-.13 5.13 3.09-2.86 4.33-6.91 4.93-10.95z"/><path fill="#605a5b" d="M154.63 204.66c1.54-4.03 1.14-8.74 3.99-12.27l2.6 2.07-.7 1.36c-.82 2.89-.67 5.92-.81 8.9l-1.55-.06-2.43-.19.65 2.96-.85.13a59.24 59.24 0 0 1-3.51.28l-3.52.12c2.09-.98 4.35-1.77 6.13-3.3z"/><path fill="#e3dad9" d="M180.31 193.25l.45-.01v.45l-.45.01v-.45z"/><path fill="#fffdfd" d="M189.09 193.06c1.11.34 1.65 1.16 1.61 2.45l-.6.15c-1.08-.17-2.7-2.07-1.01-2.6z"/><path fill="#c0bbb2" d="M212.73 195.1c2.23.09 2.59 2.53 2.17 4.29-.87-.54-1.65-1.17-2.34-1.9l.17-2.39z"/><path fill="#5d5a59" d="M218.21 193.6c1.6 2.14 2.4 5.17.83 7.57-2.07 3.56-4.1 7.16-5.72 10.96.3-1.63.52-3.26.75-4.9l-3.18 1.35c3.1-4.63 5.67-9.64 7.32-14.98z"/><path fill="#d5ccc4" d="M202.81 194.76a7.22 7.22 0 0 1 1.99 2.02l-.13.73-1.4.66c-.97-.86-1.05-2.32-.46-3.41z"/><path fill="#777274" d="M159.71 204.72c.14-2.98-.01-6.01.81-8.9l.28.73 3.62 7.75 1.03 4.44-3.26 1.32-4.03-5.4 1.55.06z"/><path fill="#cdc7c5" d="M179.61 195.26c.19 2.45-1.03 4.58-2.29 6.58l-.56-3.74 1.02-.32 1.83-2.52z"/><path fill="#6b696b" d="M188.29 202.21l1.28-4.26.92 5.46 8.75.46c-1.7 1.55-3.23 3.28-4.51 5.2l-2.54-.25-5 .08 1.1-6.69z"/><path fill="#c1bcbc" d="M181.67 199.04l2.52 3.72-2.35 1.49-1.29-1.64 1.12-3.57z"/><path fill="#4a4645" d="M210.16 203.28c-1.18-1.82.55-3.66 2.23-4.23.03 1.68-.63 3.46-2.23 4.23z"/><path fill="#d1c5bb" d="M155.73 204.47l2.43.19 4.03 5.4-.59.24c-1.33.96-3.18 1.65-3.61 3.42-1.1 3.6-1.51 7.37-2.39 11.03l-1.3-4.9 2.17-1.09-2.8.06.48-5.82 1.6 2.62c.85-2.65 1.4-5.45.63-8.19l-.65-2.96z"/><path fill="#8c8a8d" d="M164.42 204.3l8.8 3.55 3.33 1.32.82 4.88 2.43-.26 2.03 11.12.44 3.75-.66-.51-.53-.59c-2.63-2.55-3.41-6.21-4.12-9.64l-.44-2.04-5.53-1.64c.98-.84 1.99-1.64 3-2.44l-7.08-1.81-1.6 3.28c-1.21-1.02-2.47-1.99-3.71-2.97l.59-.24 3.26-1.32c-.31-1.49-.62-2.98-1.03-4.44z"/><path fill="#757279" d="M152.02 207.84l3.51-.28c-.56 1.79-1.03 3.6-1.38 5.44l-.48 5.82 2.8-.06-2.17 1.09-8.06 3.73c1.35-3.54 2.21-7.34 1.21-11.08l-4.05-.24c1.57-1.36 3.3-2.52 5.18-3.4.17 3.16 1.09 6.21 2.56 9.01 1.54-3.15 1.71-6.66.88-10.03z"/><path fill="#938f97" d="M148.5 207.96l3.52-.12c.83 3.37.66 6.88-.88 10.03-1.47-2.8-2.39-5.85-2.56-9.01l-.08-.9z"/><path fill="#e8e3e2" d="M155.53 207.56l.85-.13c.77 2.74.22 5.54-.63 8.19l-1.6-2.62c.35-1.84.82-3.65 1.38-5.44z"/><path fill="#afa6a4" d="M192.19 208.82l2.54.25c-.2 2.17-3.49 2.18-2.54-.25z"/><path fill="#625d5c" d="M195.42 211.62c3.63-.65 7.15-1.78 10.76-2.48-1.88 2.1-3.69 4.61-6.52 5.45-2.86.2-5.68-.67-8.53-.47-1.91.68-3.35 2.19-4.9 3.44l-.6-6.84c3.22.6 6.5 1.46 9.79.9z"/><path fill="#fdfaf9" d="M157.99 213.72c.43-1.77 2.28-2.46 3.61-3.42l3.71 2.97c1.65 2.21 1.3 5 .98 7.56 1.22-2.14 2.61-4.19 4.23-6.05l-.46 7.43 3.06-5.66 3.84 1.37c.71 3.43 1.49 7.09 4.12 9.64a139.03 139.03 0 0 0-3.22 7.29l-2.44-.06-1.06-2.61c-1.17 1.39-2.35 2.77-3.46 4.21-.01-1.72-.12-3.45-.21-5.17l-4.53 2.37-3.41-5.85-2.36.17-.44-.85-4.57-1.29.22-1.02c.88-3.66 1.29-7.43 2.39-11.03z"/><path fill="#9f9b9f" d="M166.91 209.99l7.08 1.81-3 2.44-.47.54c-1.62 1.86-3.01 3.91-4.23 6.05.32-2.56.67-5.35-.98-7.56l1.6-3.28z"/><path fill="#eee8e1" d="M183.15 210.09c1.3.66 1.31 1.34 0 2.03-1.31-.67-1.31-1.35 0-2.03z"/><path fill="#8f8b92" d="M143.4 212.26l4.05.24c1 3.74.14 7.54-1.21 11.08l-4.04-1.98-.28 4.24 2.49.5c.66 3.29 1.54 6.53 2.34 9.78-1.8-1.05-3.88-1.9-5.1-3.69-2.3-3.42-2.78-7.82-1.9-11.79.65-3.02 2.28-5.67 3.65-8.38z"/><path fill="#b38168" d="M206.18 215.11c1.77-1.44 3.81-2.48 5.79-3.6l-.74 3.69-.97 1.13c-2.25 1.98-4.86 3.48-7.53 4.8.89-2.12 1.57-4.53 3.45-6.02z"/><path fill="#dbd5d8" d="M179.8 213.79l3.73-.4c.2 3.45.46 6.97 1.9 10.16l-1.21 2.37-2.39-1.01c-.58-3.73-1.37-7.41-2.03-11.12z"/><path fill="#ddd4d1" d="M170.99 214.24l5.53 1.64.44 2.04-3.84-1.37-3.06 5.66.46-7.43.47-.54z"/><path fill="#3d3d3f" opacity=".8" d="M324.22 214.91c2.06 2.62 4.11 5.42 7.02 7.15 7.2 1.61 13.91-2.44 20.51-4.68a59.83 59.83 0 0 1 1.42-.25c-5.91 5.89-14.79 6.74-22.67 7.62-2.28-3.15-4.51-6.36-6.28-9.84z"/><path fill="#36271a" d="M202.73 221.13c2.67-1.32 5.28-2.82 7.53-4.8-1.08 4.72-3.43 8.97-6.48 12.68.82 2.46 1.7 4.99 1.3 7.62l-.05.84c-.78-3.59-1.71-7.41-4.34-10.13-2.05-2.2-4.26-4.29-5.84-6.87l1.87.26c1.69 1.16 3.19 2.57 4.66 3.99l1.35-3.59z"/><path fill="#daced0" d="M188.36 216.98l9.31 2.02-.95 1.73-1.87-.26c-2.16-.4-4.17.44-5.98 1.53l7.45 4.31-5.06 1.76c-1.17-1.83-2.49-3.56-3.82-5.27l.92-5.82z"/><path fill="#756e72" d="M188.87 222c1.81-1.09 3.82-1.93 5.98-1.53 1.58 2.58 3.79 4.67 5.84 6.87 2.63 2.72 3.56 6.54 4.34 10.13l-.03 1.75-3.11-5.75c-1.45-2.67-3.16-5.27-5.57-7.16-2.44-1.52-4.98-2.86-7.45-4.31z"/><path fill="#a49ea3" d="M142.2 221.6l4.04 1.98-1.83 2.76-2.49-.5.28-4.24z"/><path fill="#646062" d="M186.79 226.22l.65-3.42 3.82 5.27.89 1.85 2.86 7.69-3.02-.18.27 4.61-2.54-1.16-1.16-.49-3.09-1.18c.24-4.06-1.28-7.97-3.86-11.06l.66.51c2.5 1.68 5.05 3.29 7.66 4.8-.94-2.46-1.95-4.89-3.14-7.24z"/><path fill="#a6a3a6" d="M185.43 223.55l1.36 2.67c1.19 2.35 2.2 4.78 3.14 7.24l-7.66-4.8-.44-3.75 2.39 1.01 1.21-2.37z"/><path fill="#cac0ba" d="M155.38 225.77l4.57 1.29.44.85c.99 3.11 2.17 6.16 3.54 9.12l-2.53-.17c-2.16-2.83-3.9-5.97-5.36-9.21l-.66-1.88z"/><path fill="#959197" d="M196.32 226.31c2.41 1.89 4.12 4.49 5.57 7.16l-2.05 4.24-1.68.52-3.72-8.44-2.29.13-.89-1.85 5.06-1.76m.62 2.59c.63 1.8.91 4.49 3.46 4.22-.69-1.75-2.01-3.09-3.46-4.22z"/><path fill="#ded6d4" d="M160.39 227.91l2.36-.17 3.41 5.85 4.53-2.37.21 5.17-.85 3.4 3.2.62c-3.43.74-5.19-2.49-6.89-4.81l-2.57 3.08-2.39-1.82 2.53.17c-1.37-2.96-2.55-6.01-3.54-9.12z"/><path fill="#fefefe" d="M156.04 227.65c1.46 3.24 3.2 6.38 5.36 9.21l2.39 1.82 2.57-3.08c1.7 2.32 3.46 5.55 6.89 4.81 3.97-.05 7.66-1.92 10.64-4.43 0 1.72.07 3.45.14 5.18-4.23 3.35-9.8 4.4-15.08 4.3-3.8.01-7.01-2.33-9.8-4.65-1.06-1.99-2.12-3.99-3.04-6.04-1.07-2.25-.37-4.79-.07-7.12z"/><path fill="#e6dcd9" d="M181.08 227.56l.53.59c2.58 3.09 4.1 7 3.86 11.06l-1.44 1.95-.14-5.18.03-.9-6.06-.23a139.03 139.03 0 0 1 3.22-7.29z"/><path fill="#817c80" d="M192.15 229.92l2.29-.13 3.72 8.44c-.28 1.67 2.68 3.44 2.62.94l-.94-1.46 2.05-4.24 3.11 5.75 1.3 2.86.12.26-1.35.49-.4.18c-1.39.75-2.64 1.7-3.94 2.56-1.95-.53-3.87-1.19-5.65-2.15l-.07-5.81c-.77-2.63-1.79-5.17-2.86-7.69m6.93 11.24l-.34.82.34.84.83.34.83-.34.34-.83-.34-.83-.83-.35-.83.35z"/><path fill="#c4bec4" d="M196.94 228.9c1.45 1.13 2.77 2.47 3.46 4.22-2.55.27-2.83-2.42-3.46-4.22z"/><path fill="#c0b3a7" d="M170.9 236.39l3.46-4.21 1.06 2.61 2.44.06 6.06.23-.03.9c-2.98 2.51-6.67 4.38-10.64 4.43l-3.2-.62.85-3.4m-.19 1.88c.99.5 2.04.83 3.13 1.01 1.37-.46 2.41-1.51 3.53-2.38-2.29.04-4.6.32-6.66 1.37z"/><path fill="#7a5f56" opacity=".77" d="M156.11 234.77l3.04 6.04c.86 1.77 1.61 3.58 2.3 5.43l-1.37-.3c-1.24-.2-2-1.35-2.3-2.48-.86-2.83-1.18-5.79-1.67-8.69z"/><path fill="#a39182" d="M170.71 238.27c2.06-1.05 4.37-1.33 6.66-1.37-1.12.87-2.16 1.92-3.53 2.38-1.09-.18-2.14-.51-3.13-1.01z"/><path fill="#4d484c" d="M191.99 237.43l3.02.18.07 5.81-2.82-1.38-.27-4.61z"/><path fill="#a78c81" opacity=".91" d="M205.03 237.47l.05-.84 2.96 2.7-1.74 2.75-1.3-2.86.03-1.75z"/><path fill="#bbb5bb" d="M198.16 238.23l1.68-.52.94 1.46c.06 2.5-2.9.73-2.62-.94z"/><path fill="#928a8d" d="M185.47 239.21l3.09 1.18 1.16.49-1.42 5.27-.97-3.63-3.55 7.63-1.22-3.37c-5.39 2.13-10.76 4.74-16.67 4.87-2.02-1.83-3.87-3.81-5.81-5.71l1.37.3c-.69-1.85-1.44-3.66-2.3-5.43 2.79 2.32 6 4.66 9.8 4.65 5.28.1 10.85-.95 15.08-4.3l1.44-1.95z"/><path fill="#c4b8b3" d="M189.72 240.88l2.54 1.16 2.82 1.38c1.78.96 3.7 1.62 5.65 2.15-2.88 1.6-5.98 2.72-9.02 3.95l2.52 2.76c-1.15.88-2.28 1.81-3.55 2.52-2.32.41-4.49-.85-6.61-1.57 1.6-2.23 3.4-4.41 4.23-7.08l1.42-5.27z"/><path fill="#ada7ae" d="M199.08 241.16l.83-.35.83.35.34.83-.34.83-.83.34-.83-.34-.34-.84.34-.82z"/><path fill="#7a7479" d="M200.73 245.57l3.94-2.56.4-.18 1.35-.49c-.19 1.59.15 3.64-1.45 4.63-3.23 2.39-7.16 3.55-10.74 5.31l-2.52-2.76c3.04-1.23 6.14-2.35 9.02-3.95z"/><path fill="#c1b5ac" d="M204.67 243.01l.4-.18-.4.18z"/><path fill="#84736e" d="M187.33 242.52l.97 3.63c-.83 2.67-2.63 4.85-4.23 7.08-4.35-.67-8.74-.5-13.12-.4-1.78.12-3.45-.53-5.06-1.18 5.91-.13 11.28-2.74 16.67-4.87l1.22 3.37 3.55-7.63z"/></svg>