<svg xmlns="http://www.w3.org/2000/svg" width="119.351" height="110" viewBox="0 0 89.513 82.5" xmlns:v="https://vecta.io/nano"><path fill="#484846" d="M23.979 23.742c-.35-.196-.692.194-.897.623-.551 1.111-.668 2.563-.827 3.913.32-1.496.635-3.034 1.286-4.26.309.258.665.488.822 1.029.556 1.65.704 3.547.889 5.375.321 3.051.309 6.155.359 9.24l-3.956-.133-.034-1.999-.179 1.908c-5.121-.158-10.243-.228-15.364-.046.034-1.219.079-2.436.179-3.643.982.036 1.966.017 2.947.093l.064 1.365.045-1.386c3.293-.027 6.586-.006 9.878-.163 1.411-.137 2.833.021 4.236-.311-1.274-.232-2.558-.226-3.837-.256-2.412-.123-4.824-.209-7.236-.194-1.017-.008-2.034.03-3.05-.034-.108-2.033-.235-4.084-.615-6.041-.143-.67-.314-1.38-.675-1.823-.287-.363-.725-.279-.977.127-.252.391-.406.911-.537 1.426-.299 1.232-.445 2.538-.596 3.831-.238.046-.476.097-.715.154l.116.046.516.196-.096 2.214c-1.873.216-3.753.11-5.626.359.705.152 1.415.209 2.124.216 1.138.011 2.274.106 3.411.142l-.036 3.685c-2.133-.023-4.265.034-6.398.093-.942.025-1.887-.049-2.825.142.383.123.761.279 1.139.431-1.059-.089-2.117-.216-3.18-.18l.264.412c3.664.129 7.328.074 10.99.199l.085 2.89.016.56c.041 1.768.231 3.52.491 5.236.15.909.308 1.826.58 2.662.153.429.343.883.644 1.059.321.131.658-.177.817-.623.387-.989.512-2.168.601-3.307-.254 1.105-.416 2.322-.898 3.243-.109.209-.324.435-.48.209-.468-.638-.617-1.659-.773-2.569-.281-1.963-.4-3.981-.441-5.992 1.174-.082 2.355.042 3.522-.232-1.189-.209-2.386-.254-3.58-.222-.034-.974-.043-1.948-.041-2.92 1.724.002 3.444.184 5.168.137l4.721-.023c1.812-.118 3.627-.196 5.441-.148l.003 4.143c-.984.112-1.975.146-2.946.461.982-.019 1.965-.027 2.946.061.179 2.931.295 5.918.894 8.726.191.805.409 1.644.819 2.229.281.399.721.452 1.038.133.296-.3.489-.79.654-1.272.455-1.399.697-2.943.872-4.486.17-1.46.293-2.937.345-4.422 2.112.516 4.171 1.445 6.223 2.373 1.297.581 2.563 1.314 3.831 2.035-.817-.811-1.72-1.346-2.608-1.916-2.4-1.513-4.901-2.609-7.453-3.218.168-1.707.159-3.438.188-5.16a10.01 10.01 0 0 0 1.799-.224c-.594-.171-1.199-.177-1.802-.205-.059-3.831-.214-7.682-.781-11.416-.187-1.223-.412-2.457-.836-3.526-.17-.414-.372-.837-.668-1.027M7.677 27.283c.955 2.254 1.216 5.018 1.399 7.668l-2.772-.046c.042-.712.042-1.439.175-2.128.377-.175.772-.196 1.16-.235-.384-.057-.767-.127-1.148-.209.108-1.312.242-2.641.584-3.854.135-.478.377-.832.602-1.196m17.926 12.865c-.014 1.665-.021 3.334-.137 4.993-1.188-.285-2.383-.501-3.585-.511-.128-1.384-.155-2.781-.189-4.175 1.306-.046 2.605-.268 3.911-.306m-.172 5.627c-.187 2.823-.324 5.717-1.031 8.356-.15.577-.43 1.023-.718 1.428-.299-.526-.601-1.078-.744-1.766-.588-2.776-.846-5.694-1.097-8.589 1.209-.059 2.399.306 3.59.57z"/><path fill="#3b3b3b" d="M71.017 26.041l-4.897-.222c1.042.289 2.1.186 3.148.338 2.821.3 5.654.663 8.415 1.686l5.715 2.246c.468.194.942.359 1.419.482-1.206-.841-2.482-1.386-3.741-1.976-3.272-1.517-6.665-2.257-10.059-2.554z"/><path fill="#3a3a3a" d="M57.23 25.804c-2.224.013-4.45-.078-6.673.087l-2.78.213c-2.525.319-5.053.666-7.551 1.346-2.312.621-4.625 1.369-6.832 2.673l2.543-.97c4.189-1.435 8.461-2.096 12.729-2.586 1.702-.249 3.41-.317 5.116-.478 1.151-.04 2.301-.099 3.448-.285z"/><path fill="#464646" d="M66.011 27.687c-2.034-.154-4.074-.232-6.11-.097 1.106.304 2.23.308 3.346.448l5.222.661 5.781 1.082c3.908 1.084 7.772 2.538 11.604 4.173.698.311 1.399.615 2.113.826-1.098-.788-2.265-1.27-3.403-1.868-4.463-2.267-9.045-4.059-13.716-4.718-1.612-.163-3.219-.503-4.837-.507z"/><path fill="#fef9e2" d="M45.2 29.763c-.75.454-1.532.784-2.334.856-1.223.125-2.442.338-3.649.672-.552.139-1.061.562-1.614.704-.195-.053-.371-.209-.551-.336l-.154.15c-.372 2.273-.12 4.644-.271 6.956-.166 2.607.339 5.278-.159 7.837.608 1.037 1.501 1.297 2.296 1.766.406.228.839.262 1.262.342.581.106 1.132.448 1.712.566l4.797.767c.71.161 1.427.074 2.141.099.915.055 1.832-.03 2.745-.127.688-.074 1.285-.864 1.991-.725.701.046 1.328.583 1.995.856.708.277 1.427-.093 2.083-.499.398-.222.811-.543 1.243-.404.605.19 1.177.636 1.8.668.683.036 1.361-.133 2.042-.171.764-.046 1.526-.165 2.286-.281.911-.144 1.827.144 2.737-.04.957-.177 1.912-.418 2.877-.431 1.009.002 1.99-.429 2.992-.532.851-.076 1.644-.615 2.476-.841l1.568-.414c.541-.112 1.107-.027 1.62-.378a7.71 7.71 0 0 1 3.307-1.278c.48-.044.882-.488 1.299-.82.362-.296.765-.41 1.159-.545.953-.319 1.887-.786 2.793-1.359l-.126-.427-4.381 2.001-5.255 2.123c-1.407.522-2.841.849-4.266 1.219-.71.213-1.42.444-2.141.541l-4.58.518-3.69.315c-1.232.015-2.475.308-3.699-.046-.819-.266-1.664-.207-2.466.171-.804.359-1.656.338-2.462.011-.786-.393-1.619-.469-2.43-.264l-.097.338c-1.048.33-2.121.165-3.183.216-1.03.04-2.062-.011-3.083-.262-.697-.07-1.389-.224-2.082-.374-1.06-.184-2.121-.378-3.165-.731-.565-.148-1.123-.359-1.681-.577l-1.837-.535-.02-7.173.046-7.099c1.061-.287 2.107-.704 3.163-1.044l4.801-1.187.502-.224-.359-.566z"/><path fill="#fbeac3" d="M52.091 30.338c-.571-.165-1.152-.232-1.732-.222-.964.023-1.929-.004-2.893.015-.637.017-1.286-.087-1.907.199l-.502.224 4.776-.19 2.258-.025z"/><path d="M37.861 30.812a14.13 14.13 0 0 0-1.216.775c-2.205 1.576-4.571 2.552-6.971 2.935a4.95 4.95 0 0 0 2.92-.19c1.486-.594 2.891-1.602 4.304-2.523l.154-.15.81-.847zM84.423 47.52c-1.197.281-2.347.909-3.526 1.323l-5.045 1.95c-2.991.997-6.043 1.388-9.085 1.737-1.005.127-2.02.068-3.016.361 1.765.044 3.526-.142 5.289-.22 2.338-.237 4.682-.522 6.981-1.285 2.182-.568 4.31-1.568 6.406-2.675a14.29 14.29 0 0 0 1.995-1.192z" fill="#424242"/><path fill="#9e8033" d="M57.267 30.452c-.889-.146-1.785-.125-2.675-.015l-.259.655c-.709.004-1.418.002-2.127-.019l.018-.742-.134.006c-.752.053-1.506.049-2.258.025-1.593-.049-3.185.059-4.776.19l-4.801 1.187-3.163 1.044-.046 7.099.02 7.173 1.837.535c-.188-.256-.37-.568-.617-.666-.331-.123-.673-.116-1.013-.139l-.034-11.98c.016-.524.007-1.084.174-1.551.347-.298.742-.397 1.12-.535.973-.311 1.923-.826 2.916-.957 1.353-.175 2.675-.746 4.036-.807 1.71-.241 3.427-.173 5.141-.192.544.015 1.084.156 1.608.387.747.319 1.52.414 2.288.497l.062-.718.083.873c.321-.444.654-1.001 1.103-1.031.646.013 1.216.579 1.844.744.659.18 1.33.186 1.992.313l.041-.516.147-.065c1.33-.581 2.705-.015 4.054-.268l-1.182-.275c-.99-.11-1.986-.042-2.976-.169l-.241.573-1.986-.042-.197-.613z"/><path fill="#deca99" d="M66.41 30.866c-1.248-.03-2.493-.357-3.743-.163l1.182.275c1.745-.199 3.476.285 5.218.315l-.512-.161c-.706-.224-1.428-.241-2.146-.266z"/><path fill="#fefbe4" d="M72.972 31.433l-3.568-.604c-.296-.042-.573.15-.848.304l.512.161c2.036.311 4.081.579 6.09 1.219 1.374.435 2.772.706 4.124 1.316.744.338 1.499.619 2.261.839-.807-1.253-1.973-1.561-3.046-1.735-1.024-.125-2.006-.653-3.017-.906-.83-.266-1.664-.49-2.508-.594z"/><path d="M342.83 467.39c4.77-.78 9.11-3.46 14.02-3.52 3.42.14 5.95 2.78 8.39 4.88-2.28 14.62-2.6 29.47-2.33 44.24.54 11.42-.14 23.01 2.52 34.22-3.28 1.46-6.67 3.32-10.38 3.01-4.91-.54-9.38-2.89-14.24-3.63-4.34-.68-8.74-.47-13.11-.38l.65-41.2c.01-12.05.1-24.11-.67-36.14 5.04-.6 10.14-.63 15.15-1.48m3.51 3.88c2.79.97 5.66 1.94 8.64 1.93 2.89-.12 5.69-.96 8.42-1.85-5.55-1.77-11.49-1.83-17.06-.08m1.92 12.09c4.78 1.19 9.92 1.61 14.45-.68-4.81-1.05-9.9-1.53-14.45.68m-2.04 59.65c5.63 1.88 11.64 1.68 17.34.29-2.09-1.01-4.21-2.14-6.57-2.33-3.7-.24-7.29.91-10.77 2.04zm37.52-77.34c3.99-1.09 8.09-1.76 12.23-1.83 13.03.09 26.09-.23 39.09.91 10.35.29 20.4 2.99 30.69 3.82 7.55.62 14.77 3.06 22.17 4.53 2.88.65 5.88 1.12 8.52 2.53 1.27 2.21 1.2 4.86 1.32 7.34l-.26 56.7c-2.58.11-5.18.08-7.7.66-1.88.46-3.26 1.94-4.69 3.15-4.24 1.03-8.48 2.03-12.78 2.73l-22.84 1.32-1.23 2.14c-5.27.71-10.53 1.44-15.83 1.77-16.17-1.98-32.74 2.1-48.72-2.1l-.34-.76-1.03-2.26c-5.27-.38-10.55-.58-15.81-1.1.57-19.73 1.14-39.49.36-59.23-.18-5.99.15-12.01-.55-17.97 5.84-.39 11.72-.84 17.4-2.35m30.94 2.76c-9.02.56-18.2.58-26.94 3.19l1.99.39-1.69 2.08c3.61 1.64 7.3 3.08 11.05 4.36-2 .55-4 1.1-5.96 1.77l.47.03c-3.32.34-6.58 1.06-9.85 1.67 7.36 1.12 14.83.51 22.23.91 5.61.29 11.23.6 16.81 1.25 11.01 1.3 22.09 1.85 33.12 2.93 9.34.96 18.75.92 28.08 2.02 4.12.5 8.28.55 12.43.35l-2-.49 2.06-6.1c-7.8-4.48-16.91-5.5-25.31-8.41-18.56-3.74-37.47-7.35-56.49-5.95m35.18 68.16l-21.61 2.58c-14.8 1.15-29.68 1.56-44.41 3.53 9.59 1.93 19.37 2.59 29.12 3.3 19.3 1.36 38.56-1.79 57.37-5.82 8.15-2.2 16.7-3.64 24.02-8.08-14.92.33-29.73 2.45-44.49 4.49zm-135.81-56.61l8.43-1.89c-.8 12.28-.21 24.6-.46 36.9-.29 8.86 1.78 17.71.21 26.53l-60.83-5.92c-15.67-1.85-31.44-2.99-46.97-5.86-25.99-4.03-51.58-10.16-77.19-16.04-8.67-2.09-17.4-3.99-25.89-6.77 2.08-.98 4.19-1.92 6.37-2.67 1.45.12 2.9.32 4.35.49l2.39.29c-1.58.51-3.13 1.1-4.68 1.69 9.75.04 19.4-1.49 29.11-2.17l82.29-9.6c19.33-2.76 38.73-5.05 58.12-7.35 9.55-1.25 19.29-.73 28.74-2.73l3.81-.8c-2.51-1.54-5.14-2.85-7.8-4.1z" transform="matrix(-.13151 0 0 .211286 102.69997 -67.237926)" fill="#b77e17"/><path fill="#ad7e26" d="M69.068 31.293c-1.743-.03-3.473-.513-5.218-.315-1.349.254-2.725-.313-4.054.268l.256 6.941-.059 6.222c-.068 1.498-.07 3.038-.402 4.464l-.038.19c1.224.355 2.467.061 3.699.046 1.232-.027 2.462-.175 3.69-.315l2.223-.408 4.499-.651 4.266-1.219 5.255-2.123 4.381-2.001c.341-.161.686-.294 1.011-.526.571-.408.918-1.523.756-2.497-.151-.805-.614-1.329-1.095-1.561l-3.655-1.733a11.31 11.31 0 0 1-1.473-.657c-.517-.277-1.031-.579-1.566-.752-.761-.22-1.516-.501-2.261-.839-1.352-.611-2.75-.881-4.124-1.316-2.009-.64-4.054-.909-6.09-1.219m-3.443.37c1.182-.055 2.355.18 3.524.444 1.069.209 2.152.133 3.221.332.906.129 1.794.465 2.699.6.988.12 1.906.782 2.883.997 1.978.505 3.872 1.589 5.823 2.28.642.294 1.26.729 1.92.93.811.235 1.49 1.073 2.297 1.325.229.123.502.144.683.423.156.642.151 1.479-.135 2.028-.259.37-.621.439-.94.602-.672.258-1.319.653-1.97 1.021l-.326-.414c.683-.452 1.387-.849 2-1.528-.492.285-1.009.456-1.495.769-1.135.706-2.299 1.287-3.467 1.834-2.525 1.304-5.108 2.318-7.726 2.994-2.292.587-4.612.782-6.923 1.09-1.875.123-3.753.104-5.63.04-.684.027-1.373.038-2.046-.184l.308-.068c-.206-1.864.066-3.733.028-5.605l-.06-7.796c-.011-.72.06-1.437.199-2.119.565-.112 1.131-.226 1.702-.245 1.147-.051 2.287.235 3.434.251z"/><path fill="#663600" d="M54.584 30.93l-.062.718c-.092 1.259-.049 2.531-.072 3.797-.103 4.171-.028 8.346.047 12.514l.045.587.034.319.066-.486c.35-2.369.26-4.817.331-7.23.036-3.121-.007-6.258-.306-9.347l-.083-.873z"/><path fill="#613300" d="M59.795 31.247l-.147.065-.041.516-.088 7.636.085 8.705-.005.482-.009.224c.333-1.426.334-2.966.402-4.464l.059-6.222-.256-6.941z"/><path fill="#b48013" d="M65.625 31.663c-1.147-.017-2.287-.302-3.434-.251-.571.019-1.136.133-1.702.245-.138.682-.209 1.399-.199 2.119l1.109.399c-.35.264-.696.541-1.026.866l.501.169c.615.03 1.226-.104 1.839-.175.881-.112 1.766-.089 2.65-.057l4.183.317c1.757.224 3.505.606 5.254.947l.627-.805c-2.33-.663-4.684-1.088-7.036-1.485-1.128-.23-2.261-.382-3.394-.52-.83-.095-1.653-.315-2.484-.412-.709-.063-1.423-.118-2.117-.374.738-.154 1.481-.18 2.224-.148 2.269-.053 4.541-.097 6.803.226l4.64.763c3.079.773 6.106 2.02 9.076 3.533 1.378.676 2.733 1.471 4.081 2.286.287.158.564.357.838.564l-.754.832c-.613.678-1.318 1.075-2 1.528l.326.414c.651-.368 1.298-.763 1.97-1.021.32-.163.681-.232.94-.602.287-.549.292-1.386.135-2.028-.18-.279-.454-.3-.683-.423-.807-.251-1.486-1.09-2.297-1.325-.66-.201-1.278-.636-1.92-.93-1.952-.691-3.845-1.775-5.823-2.28-.977-.216-1.895-.877-2.883-.997-.905-.135-1.792-.471-2.699-.6-1.069-.199-2.152-.123-3.221-.332-1.169-.264-2.342-.499-3.524-.444z"/><path d="M414.68 468.43c19.02-1.4 37.93 2.21 56.49 5.95l.79 6.16c-16.37-1.48-32.54-4.66-48.97-5.57-11.09-.99-22.31-.76-33.26-2.96l-1.99-.39c8.74-2.61 17.92-2.63 26.94-3.19zm-161.64 4.68c17.2-1.53 34.48-1.32 51.73-1.07l.81 2.47c-6.32.46-12.58 1.5-18.89 1.95-8.62.65-17.23 1.37-25.81 2.46-17.88 1.88-35.78 3.89-53.5 7.03-17.59 2.88-34.92 7.11-52.34 10.82l-6.29-3.33c22.58-7.16 45.6-13.06 69.01-16.72 11.68-1.85 23.51-2.54 35.28-3.61z" transform="matrix(-.13151 0 0 .211286 102.69997 -67.237926)" fill="#dab11f"/><path fill="#dcad2e" d="M57.153 32.335c-.733-.37-1.514-.357-2.244.017.359.188.727.366 1.107.391.392.002.769-.203 1.136-.408z"/><path fill="#d8a332" d="M62.62 32.498c-.743-.032-1.486-.006-2.224.148.694.256 1.408.311 2.117.374l.107-.522z"/><path fill="#b1820e" d="M51.447 32.491c-1.44.465-2.916.416-4.374.625-2.161.192-4.287.864-6.44 1.177-1.073.196-2.142.471-3.225.475l.271 1.289c1.453-.509 2.941-.697 4.411-1.04 2.929-.68 5.893-.788 8.848-.786l.062-.006a10 10 0 0 0-.784-.374 13.33 13.33 0 0 0 1.453-.921l-.222-.439z"/><path fill="#daaf2a" d="M40.736 32.992c-1.105.615-2.303.83-3.329 1.777 1.082-.004 2.152-.279 3.225-.475l.104-1.302z"/><path fill="#fbe263" d="M50.938 34.232c-2.955-.002-5.919.106-8.848.786-1.47.342-2.958.53-4.411 1.04l-.263.104c.546.042 1.093.032 1.635-.074 1.227-.232 2.464-.224 3.693-.427l4.356-.619c.734-.137 1.473-.203 2.211-.264.973-.085 1.956.044 2.923-.192-.43-.129-.859-.281-1.295-.353z"/><path fill="#f6cd5e" d="M56.9 34.889c-.598-.467-1.268-.366-1.9-.144.596.484 1.272.395 1.9.144z"/><path fill="#f4e55d" d="M69.546 35.295c-1.39-.235-2.788-.245-4.183-.317l-.709.809 7.643 1.553 10.822 2.028c1.277.144 2.546.467 3.828.458l-.615-.357c-.897-.192-1.771-.573-2.655-.875-1.377-.488-2.768-.86-4.161-1.221-1.562-.467-3.142-.778-4.716-1.132l-5.254-.947z"/><path fill="#fce165" d="M65.363 34.978c-.884-.032-1.769-.055-2.65.057-.613.072-1.223.205-1.839.175 1.243.423 2.524.313 3.78.577l.709-.809z"/><path fill="#e9d9ab" d="M84.582 36.077c-.427-.499-.955-.647-1.473-.657a11.31 11.31 0 0 0 1.473.657z"/><path fill="#af8608" d="M82.311 37.723l-6.883-2.286-.627.805 4.716 1.132 4.161 1.221c.884.302 1.758.682 2.655.875l.314-.061c-1.43-.661-2.879-1.202-4.336-1.686z"/><path fill="#d9b02a" d="M87.219 39.305l-4.081-2.286-.827.704 4.336 1.686.572-.104z"/><path fill="#714404" d="M88.056 39.869c-1.117.587-2.265.989-3.405 1.43-3.368 1.242-6.733 2.538-10.151 3.389-2.042.606-4.116.847-6.177 1.238-2.663.48-5.334.824-8 1.251l-.308.068c.673.222 1.362.211 2.046.184 1.877.063 3.755.082 5.63-.04 2.311-.308 4.63-.503 6.923-1.09 2.618-.676 5.201-1.69 7.726-2.994 1.168-.547 2.332-1.128 3.467-1.834.487-.313 1.003-.484 1.495-.769a13.75 13.75 0 0 0 .754-.832z"/><path d="M738.43 509.88l83.57-.94 16.19-.13 1.06 13.67-.06 1.94-101.41-.86.65-13.68zm-150.88 25c9.06-1.25 18.11-2.98 27.3-2.7-1.91 13.7-3.87 27.51-8.34 40.65-1.09 3.26-3.39 5.87-5.66 8.36-2.19-1.92-4.32-4.03-5.46-6.76-5.38-12.49-6.42-26.19-7.84-39.55z" transform="matrix(-.13151 0 0 .211286 102.69997 -67.237926)" fill="#fffffe"/><path fill="#454543" d="M92.818 41.129l-1.892 2.66c-1.235 1.635-2.551 3.104-3.877 4.543-1.94 1.969-3.873 4.014-6.015 5.384-1.176.813-2.395 1.449-3.631 1.978-2.028.851-4.09 1.528-6.18 1.811l-2.88.465c1.265.076 2.532-.046 3.789-.275 2.312-.357 4.6-1.073 6.836-2.083 2.533-1.128 4.908-3.009 7.152-5.183 1.769-1.802 3.464-3.818 4.967-6.17.622-.976 1.255-1.952 1.732-3.129z"/><path fill="#363636" d="M34.338 43.601c-2.091-.659-4.233-.78-6.359-.672 2.095.602 4.233.788 6.359.672z"/><path fill="#704404" d="M43.539 46.136c-1.941-.431-3.889-.879-5.851-.949.963.938 2.087 1.242 3.159 1.707 2.474.851 5.007 1.517 7.545 1.23 1.282-.15 2.568-.289 3.83-.697-1.937-.416-3.894-.503-5.84-.746l-2.842-.545z"/><path fill="#936109" d="M57.169 47.492c-.458-.239-.93-.482-1.416-.431-.31.04-.589.279-.864.492.75.294 1.54.336 2.28-.061z"/><path fill="#d2bb83" d="M73.663 47.738l-4.499.651c-.744.076-1.482.26-2.223.408 1.532-.038 3.055-.315 4.58-.518.721-.097 1.431-.327 2.141-.541z"/><path fill="#a97e2d" d="M54.498 47.959l-2.079.232-.135.478c.752-.095 1.507-.068 2.259-.123l-.045-.587z"/><path fill="#a17e39" d="M59.604 48.169c-.575-.019-1.153-.063-1.724.08-.639.156-1.227.653-1.873.767-.488.065-.934-.327-1.365-.636l-.066.486.047.38c.806.327 1.658.349 2.462-.011.209-.224.397-.547.656-.602.617-.123 1.239-.015 1.857.017l.005-.482z"/><path fill="#b49354" d="M43.588 48.447l-3.004-.279c1.044.353 2.105.547 3.165.731l-.162-.452z"/><path fill="#dac794" d="M59.599 48.65c-.618-.032-1.24-.139-1.857-.017-.259.055-.447.378-.656.602.802-.378 1.647-.437 2.466-.171l.038-.19z"/><path fill="#dbc596" d="M54.577 48.866l-.034-.319-2.259.123-.045.161-.045.152c.811-.205 1.644-.129 2.43.264l-.047-.38z"/><path fill="#b5934f" d="M52.238 48.83c-2.102.887-4.281.025-6.407.444 1.021.251 2.053.302 3.083.262 1.061-.051 2.134.114 3.183-.216l.097-.338z"/><path fill="#9c9c9b" d="M77.551 50.729l-5.725 2.159c-1.518.48-3.063.632-4.6.854-.959.133-1.929.055-2.877.357a9.05 9.05 0 0 0 1.986.044c1.533-.116 3.069-.256 4.59-.6 1.444-.387 2.883-.851 4.285-1.538.792-.366 1.593-.714 2.342-1.276z"/><path fill="#414141" d="M48.517 54.277c-.663-.085-1.328-.137-1.994-.129 3.714.778 7.465.951 11.205 1.139.972.093 1.948.169 2.921.07-.747-.163-1.501-.19-2.253-.264-3.29-.353-6.586-.532-9.879-.816z"/></svg>