<?xml version="1.0" encoding="UTF-8" standalone="no"?>
<svg
   xmlns:dc="http://purl.org/dc/elements/1.1/"
   xmlns:cc="http://creativecommons.org/ns#"
   xmlns:rdf="http://www.w3.org/1999/02/22-rdf-syntax-ns#"
   xmlns:svg="http://www.w3.org/2000/svg"
   xmlns="http://www.w3.org/2000/svg"
   xmlns:sodipodi="http://sodipodi.sourceforge.net/DTD/sodipodi-0.dtd"
   xmlns:inkscape="http://www.inkscape.org/namespaces/inkscape"
   width="89.513451pt"
   height="82.499992pt"
   viewBox="0 0 89.51345 82.499992"
   version="1.1"
   id="svg334"
   sodipodi:docname="BULLET SPEED.svg"
   inkscape:version="1.0.2 (e86c870879, 2021-01-15, custom)">
  <metadata
     id="metadata340">
    <rdf:RDF>
      <cc:Work
         rdf:about="">
        <dc:format>image/svg+xml</dc:format>
        <dc:type
           rdf:resource="http://purl.org/dc/dcmitype/StillImage" />
        <dc:title />
      </cc:Work>
    </rdf:RDF>
  </metadata>
  <defs
     id="defs338" />
  <sodipodi:namedview
     pagecolor="#ffffff"
     bordercolor="#666666"
     borderopacity="1"
     objecttolerance="10"
     gridtolerance="10"
     guidetolerance="10"
     inkscape:pageopacity="0"
     inkscape:pageshadow="2"
     inkscape:window-width="1920"
     inkscape:window-height="1017"
     id="namedview336"
     showgrid="false"
     inkscape:zoom="4.6289063"
     inkscape:cx="43.355483"
     inkscape:cy="49.709314"
     inkscape:window-x="-8"
     inkscape:window-y="-8"
     inkscape:window-maximized="1"
     inkscape:current-layer="svg334"
     inkscape:document-rotation="0" />
  <g
     id="#484846ff"
     transform="matrix(-0.13151026,0,0,0.21128643,102.69997,-67.237926)">
    <path
       fill="#484846"
       opacity="1"
       d="m 598.59,430.6 c 2.66,-0.93 5.26,0.92 6.82,2.95 4.19,5.26 5.08,12.13 6.29,18.52 -2.43,-7.08 -4.83,-14.36 -9.78,-20.16 -2.35,1.22 -5.06,2.31 -6.25,4.87 -4.23,7.81 -5.35,16.79 -6.76,25.44 -2.44,14.44 -2.35,29.13 -2.73,43.73 10.03,-0.33 20.06,-0.43 30.08,-0.63 0.07,-3.16 0.15,-6.31 0.26,-9.46 0.5,3 0.92,6.01 1.36,9.03 38.94,-0.75 77.89,-1.08 116.83,-0.22 -0.26,-5.77 -0.6,-11.53 -1.36,-17.24 -7.47,0.17 -14.95,0.08 -22.41,0.44 -0.16,2.15 -0.32,4.3 -0.49,6.46 -0.13,-2.2 -0.24,-4.38 -0.34,-6.56 -25.04,-0.13 -50.08,-0.03 -75.11,-0.77 -10.73,-0.65 -21.54,0.1 -32.21,-1.47 9.69,-1.1 19.45,-1.07 29.18,-1.21 18.34,-0.58 36.68,-0.99 55.02,-0.92 7.73,-0.04 15.47,0.14 23.19,-0.16 0.82,-9.62 1.79,-19.33 4.68,-28.59 1.09,-3.17 2.39,-6.53 5.13,-8.63 2.18,-1.72 5.51,-1.32 7.43,0.6 1.92,1.85 3.09,4.31 4.08,6.75 2.27,5.83 3.38,12.01 4.53,18.13 1.81,0.22 3.62,0.46 5.44,0.73 l -0.88,0.22 c -1.31,0.31 -2.62,0.62 -3.92,0.93 0.22,3.49 0.5,6.98 0.73,10.48 14.24,1.02 28.54,0.52 42.78,1.7 -5.36,0.72 -10.76,0.99 -16.15,1.02 -8.65,0.05 -17.29,0.5 -25.94,0.67 0.2,5.81 0.4,11.62 0.27,17.44 16.22,-0.11 32.43,0.16 48.65,0.44 7.16,0.12 14.35,-0.23 21.48,0.67 -2.91,0.58 -5.79,1.32 -8.66,2.04 8.05,-0.42 16.1,-1.02 24.18,-0.85 -0.68,0.64 -1.35,1.29 -2.01,1.95 -27.86,0.61 -55.72,0.35 -83.57,0.94 -0.15,4.56 -0.42,9.12 -0.65,13.68 -0.05,0.88 -0.09,1.76 -0.12,2.65 -0.31,8.37 -1.76,16.66 -3.73,24.78 -1.14,4.3 -2.34,8.64 -4.41,12.6 -1.16,2.03 -2.61,4.18 -4.9,5.01 -2.44,0.62 -5,-0.84 -6.21,-2.95 -2.94,-4.68 -3.89,-10.26 -4.57,-15.65 1.93,5.23 3.16,10.99 6.83,15.35 0.83,0.99 2.46,2.06 3.65,0.99 3.56,-3.02 4.69,-7.85 5.88,-12.16 2.14,-9.29 3.04,-18.84 3.35,-28.36 -8.93,-0.39 -17.91,0.2 -26.78,-1.1 9.04,-0.99 18.14,-1.2 27.22,-1.05 0.26,-4.61 0.33,-9.22 0.31,-13.82 -13.11,0.01 -26.19,0.87 -39.3,0.65 -11.96,-0.01 -23.93,0.08 -35.9,-0.11 -13.78,-0.56 -27.58,-0.93 -41.37,-0.7 -0.15,6.53 -0.16,13.07 -0.02,19.61 7.48,0.53 15.02,0.69 22.4,2.18 -7.47,-0.09 -14.94,-0.13 -22.4,0.29 -1.36,13.87 -2.24,28.01 -6.8,41.3 -1.45,3.81 -3.11,7.78 -6.23,10.55 -2.14,1.89 -5.48,2.14 -7.89,0.63 -2.25,-1.42 -3.72,-3.74 -4.97,-6.02 -3.46,-6.62 -5.3,-13.93 -6.63,-21.23 -1.29,-6.91 -2.23,-13.9 -2.62,-20.93 -16.06,2.44 -31.72,6.84 -47.32,11.23 -9.86,2.75 -19.49,6.22 -29.13,9.63 6.21,-3.84 13.08,-6.37 19.83,-9.07 18.25,-7.16 37.27,-12.35 56.67,-15.23 -1.28,-8.08 -1.21,-16.27 -1.43,-24.42 -4.57,-0.12 -9.15,-0.42 -13.68,-1.06 4.52,-0.81 9.12,-0.84 13.7,-0.97 0.45,-18.13 1.63,-36.36 5.94,-54.03 1.42,-5.79 3.13,-11.63 6.36,-16.69 1.29,-1.96 2.83,-3.96 5.08,-4.86 m 123.96,16.76 c -7.26,10.67 -9.25,23.75 -10.64,36.29 7.02,-0.13 14.05,-0.04 21.08,-0.22 -0.32,-3.37 -0.32,-6.81 -1.33,-10.07 -2.87,-0.83 -5.87,-0.93 -8.82,-1.11 2.92,-0.27 5.83,-0.6 8.73,-0.99 -0.82,-6.21 -1.84,-12.5 -4.44,-18.24 -1.03,-2.26 -2.87,-3.94 -4.58,-5.66 m -136.31,60.89 c 0.11,7.88 0.16,15.78 1.04,23.63 9.03,-1.35 18.12,-2.37 27.26,-2.42 0.97,-6.55 1.18,-13.16 1.44,-19.76 -9.93,-0.22 -19.81,-1.27 -29.74,-1.45 m 1.31,26.63 c 1.42,13.36 2.46,27.06 7.84,39.55 1.14,2.73 3.27,4.84 5.46,6.76 2.27,-2.49 4.57,-5.1 5.66,-8.36 4.47,-13.14 6.43,-26.95 8.34,-40.65 -9.19,-0.28 -18.24,1.45 -27.3,2.7 z"
       id="path181" />
  </g>
  <g
     id="#3b3b3bff"
     transform="matrix(-0.13151026,0,0,0.21128643,102.69997,-67.237926)">
    <path
       fill="#3b3b3b"
       opacity="1"
       d="m 240.92,441.48 c 12.42,-0.29 24.81,-1.25 37.24,-1.05 -7.92,1.37 -15.97,0.88 -23.94,1.6 -21.45,1.42 -42.99,3.14 -63.99,7.98 -14.54,3.31 -29.01,6.9 -43.46,10.63 -3.56,0.92 -7.16,1.7 -10.79,2.28 9.17,-3.98 18.87,-6.56 28.45,-9.35 24.88,-7.18 50.68,-10.68 76.49,-12.09 z"
       id="path184" />
  </g>
  <g
     id="#3a3a3aff"
     transform="matrix(-0.13151026,0,0,0.21128643,102.69997,-67.237926)">
    <path
       fill="#3a3a3a"
       opacity="1"
       d="m 345.75,440.36 c 16.91,0.06 33.84,-0.37 50.74,0.41 7.04,0.51 14.09,0.63 21.14,1.01 19.2,1.51 38.42,3.15 57.42,6.37 17.58,2.94 35.17,6.48 51.95,12.65 -6.49,-1.36 -12.87,-3.17 -19.34,-4.59 -31.85,-6.79 -64.34,-9.92 -96.79,-12.24 -12.94,-1.18 -25.93,-1.5 -38.9,-2.26 -8.75,-0.19 -17.5,-0.47 -26.22,-1.35 z"
       id="path187" />
  </g>
  <g
     id="#464646ff"
     transform="matrix(-0.13151026,0,0,0.21128643,102.69997,-67.237926)">
    <path
       fill="#464646"
       opacity="1"
       d="m 278.98,449.27 c 15.47,-0.73 30.98,-1.1 46.46,-0.46 -8.41,1.44 -16.96,1.46 -25.44,2.12 -13.25,0.91 -26.51,1.63 -39.71,3.13 -14.65,1.7 -29.39,2.75 -43.96,5.12 -29.72,5.13 -59.1,12.01 -88.24,19.75 -5.31,1.47 -10.64,2.91 -16.07,3.91 8.35,-3.73 17.22,-6.01 25.88,-8.84 33.94,-10.73 68.78,-19.21 104.3,-22.33 12.26,-0.77 24.48,-2.38 36.78,-2.4 z"
       id="path190" />
  </g>
  <g
     id="#fef9e2ff"
     transform="matrix(-0.13151026,0,0,0.21128643,102.69997,-67.237926)">
    <path
       fill="#fef9e2"
       opacity="1"
       d="m 437.23,459.1 c 5.7,2.15 11.65,3.71 17.75,4.05 9.3,0.59 18.57,1.6 27.75,3.18 4.2,0.66 8.07,2.66 12.27,3.33 1.48,-0.25 2.82,-0.99 4.19,-1.59 0.29,0.18 0.88,0.54 1.17,0.71 2.83,10.76 0.91,21.98 2.06,32.92 1.26,12.34 -2.58,24.98 1.21,37.09 -4.62,4.91 -11.41,6.14 -17.46,8.36 -3.09,1.08 -6.38,1.24 -9.6,1.62 -4.42,0.5 -8.61,2.12 -13.02,2.68 -12.14,1.37 -24.38,1.87 -36.48,3.63 -5.4,0.76 -10.85,0.35 -16.28,0.47 -6.96,0.26 -13.93,-0.14 -20.87,-0.6 -5.23,-0.35 -9.77,-4.09 -15.14,-3.43 -5.33,0.22 -10.1,2.76 -15.17,4.05 -5.38,1.31 -10.85,-0.44 -15.84,-2.36 -3.03,-1.05 -6.17,-2.57 -9.45,-1.91 -4.6,0.9 -8.95,3.01 -13.69,3.16 -5.19,0.17 -10.35,-0.63 -15.53,-0.81 -5.81,-0.22 -11.6,-0.78 -17.38,-1.33 -6.93,-0.68 -13.89,0.68 -20.81,-0.19 -7.28,-0.84 -14.54,-1.98 -21.88,-2.04 -7.67,0.01 -15.13,-2.03 -22.75,-2.52 -6.47,-0.36 -12.5,-2.91 -18.83,-3.98 -3.97,-0.69 -7.92,-1.47 -11.92,-1.96 -4.11,-0.53 -8.42,-0.13 -12.32,-1.79 -7.98,-3.38 -16.53,-5.31 -25.15,-6.05 -3.65,-0.21 -6.71,-2.31 -9.88,-3.88 -2.75,-1.4 -5.82,-1.94 -8.81,-2.58 -7.25,-1.51 -14.35,-3.72 -21.24,-6.43 0.24,-0.51 0.72,-1.52 0.96,-2.02 11.08,3.23 22.1,6.69 33.31,9.47 13.36,3.18 26.65,6.64 39.96,10.05 10.7,2.47 21.6,4.02 32.44,5.77 5.4,1.01 10.8,2.1 16.28,2.56 11.6,0.96 23.18,2.27 34.83,2.45 9.34,0.66 18.69,1.36 28.06,1.49 9.37,0.07 18.82,1.46 28.13,-0.22 6.23,-1.26 12.65,-0.98 18.75,0.81 6.11,1.7 12.59,1.6 18.72,0.05 5.98,-1.86 12.31,-2.22 18.48,-1.25 0.19,0.4 0.55,1.2 0.74,1.6 7.97,1.56 16.13,0.78 24.2,1.02 7.83,0.19 15.68,-0.05 23.44,-1.24 5.3,-0.33 10.56,-1.06 15.83,-1.77 8.06,-0.87 16.13,-1.79 24.07,-3.46 4.3,-0.7 8.54,-1.7 12.78,-2.73 4.63,-0.95 9.33,-1.58 13.97,-2.53 0.25,-11.31 0.06,-22.63 0.15,-33.95 -0.08,-11.2 0.26,-22.41 -0.35,-33.6 -8.07,-1.36 -16.02,-3.33 -24.05,-4.94 -12.12,-2.18 -24.35,-3.7 -36.51,-5.62 -1.29,-0.34 -2.55,-0.72 -3.82,-1.06 0.9,-0.9 1.82,-1.79 2.73,-2.68 z"
       id="path196" />
  </g>
  <g
     id="#fbeac3ff"
     transform="matrix(-0.13151026,0,0,0.21128643,102.69997,-67.237926)">
    <path
       fill="#fbeac3"
       opacity="1"
       d="m 384.83,461.82 c 4.34,-0.78 8.76,-1.1 13.17,-1.05 7.33,0.11 14.67,-0.02 22,0.07 4.84,0.08 9.78,-0.41 14.5,0.94 1.27,0.34 2.53,0.72 3.82,1.06 -12.1,-0.62 -24.21,-1.13 -36.32,-0.9 -5.72,0.11 -11.45,0.13 -17.17,-0.12 z"
       id="path199" />
  </g>
  <path
     fill="#424242"
     opacity="1"
     d="m 37.861465,30.81165 c -0.411626,0.232408 -0.816678,0.492299 -1.216469,0.775422 -2.205427,1.576197 -4.571298,2.55234 -6.971359,2.934768 0.970546,0.226088 1.964763,0.173269 2.919527,-0.190159 1.486067,-0.593715 2.890596,-1.601552 4.304332,-2.52276 0.03814,-0.03593 0.115728,-0.111977 0.153867,-0.150007 0.274855,-0.270446 0.544452,-0.555684 0.810102,-0.847264 z"
     id="path204"
     style="stroke-width:0.166693" />
  <path
     fill="#424242"
     opacity="1"
     d="m 84.422673,47.520181 c -1.196743,0.281013 -2.347458,0.908533 -3.52579,1.322654 -1.679386,0.667665 -3.366663,1.278283 -5.044733,1.950174 -2.990545,0.997271 -6.042898,1.388151 -9.08473,1.736775 -1.004738,0.126777 -2.019997,0.0676 -3.015529,0.361299 1.764867,0.04437 3.525789,-0.141564 5.289342,-0.219741 2.338252,-0.23663 4.681765,-0.521877 6.980565,-1.284622 2.181755,-0.56836 4.309591,-1.567743 6.405865,-2.674885 0.678593,-0.33806 1.346665,-0.724713 1.99501,-1.191654 z"
     id="path206"
     style="stroke-width:0.166693" />
  <g
     id="#9e8033ff"
     transform="matrix(-0.13151026,0,0,0.21128643,102.69997,-67.237926)">
    <path
       fill="#9e8033"
       opacity="1"
       d="m 345.47,462.36 c 6.76,-0.69 13.57,-0.59 20.34,-0.07 0.65,1.03 1.31,2.06 1.97,3.1 5.39,0.02 10.78,0.01 16.17,-0.09 -0.04,-0.88 -0.11,-2.63 -0.14,-3.51 l 1.02,0.03 c 5.72,0.25 11.45,0.23 17.17,0.12 12.11,-0.23 24.22,0.28 36.32,0.9 12.16,1.92 24.39,3.44 36.51,5.62 8.03,1.61 15.98,3.58 24.05,4.94 0.61,11.19 0.27,22.4 0.35,33.6 -0.09,11.32 0.1,22.64 -0.15,33.95 -4.64,0.95 -9.34,1.58 -13.97,2.53 1.43,-1.21 2.81,-2.69 4.69,-3.15 2.52,-0.58 5.12,-0.55 7.7,-0.66 0.27,-18.9 0.04,-37.8 0.26,-56.7 -0.12,-2.48 -0.05,-5.13 -1.32,-7.34 -2.64,-1.41 -5.64,-1.88 -8.52,-2.53 -7.4,-1.47 -14.62,-3.91 -22.17,-4.53 -10.29,-0.83 -20.34,-3.53 -30.69,-3.82 -13,-1.14 -26.06,-0.82 -39.09,-0.91 -4.14,0.07 -8.24,0.74 -12.23,1.83 -5.68,1.51 -11.56,1.96 -17.4,2.35 -0.15,-1.15 -0.31,-2.27 -0.47,-3.4 -0.22,1.37 -0.43,2.75 -0.63,4.13 -2.44,-2.1 -4.97,-4.74 -8.39,-4.88 -4.91,0.06 -9.25,2.74 -14.02,3.52 -5.01,0.85 -10.11,0.88 -15.15,1.48 -0.08,-0.82 -0.19,-1.64 -0.31,-2.44 -0.28,-0.08 -0.84,-0.23 -1.12,-0.31 -10.11,-2.75 -20.57,-0.07 -30.83,-1.27 3,-0.37 5.98,-0.93 8.99,-1.3 7.53,-0.52 15.1,-0.2 22.63,-0.8 0.61,0.9 1.22,1.8 1.83,2.71 5.04,-0.03 10.07,-0.07 15.1,-0.2 0.5,-0.97 1,-1.94 1.5,-2.9 z"
       id="path209" />
  </g>
  <g
     id="#deca99ff"
     transform="matrix(-0.13151026,0,0,0.21128643,102.69997,-67.237926)">
    <path
       fill="#deca99"
       opacity="1"
       d="m 275.95,464.32 c 9.49,-0.14 18.96,-1.69 28.46,-0.77 -3.01,0.37 -5.99,0.93 -8.99,1.3 -13.27,-0.94 -26.43,1.35 -39.68,1.49 1.29,-0.25 2.59,-0.5 3.89,-0.76 5.37,-1.06 10.86,-1.14 16.32,-1.26 z"
       id="path212" />
  </g>
  <g
     id="#fefbe4ff"
     transform="matrix(-0.13151026,0,0,0.21128643,102.69997,-67.237926)">
    <path
       fill="#fefbe4"
       opacity="1"
       d="m 226.05,467 c 9.04,-0.98 18.04,-2.44 27.13,-2.86 2.25,-0.2 4.36,0.71 6.45,1.44 -1.3,0.26 -2.6,0.51 -3.89,0.76 -15.48,1.47 -31.03,2.74 -46.31,5.77 -10.45,2.06 -21.08,3.34 -31.36,6.23 -5.66,1.6 -11.4,2.93 -17.19,3.97 6.14,-5.93 15,-7.39 23.16,-8.21 7.79,-0.59 15.25,-3.09 22.94,-4.29 6.31,-1.26 12.65,-2.32 19.07,-2.81 z"
       id="path215" />
  </g>
  <g
     id="#b77e17ff"
     transform="matrix(-0.13151026,0,0,0.21128643,102.69997,-67.237926)">
    <path
       fill="#b77e17"
       opacity="1"
       d="m 342.83,467.39 c 4.77,-0.78 9.11,-3.46 14.02,-3.52 3.42,0.14 5.95,2.78 8.39,4.88 -2.28,14.62 -2.6,29.47 -2.33,44.24 0.54,11.42 -0.14,23.01 2.52,34.22 -3.28,1.46 -6.67,3.32 -10.38,3.01 -4.91,-0.54 -9.38,-2.89 -14.24,-3.63 -4.34,-0.68 -8.74,-0.47 -13.11,-0.38 0.4,-13.73 0.83,-27.46 0.65,-41.2 0.01,-12.05 0.1,-24.11 -0.67,-36.14 5.04,-0.6 10.14,-0.63 15.15,-1.48 m 3.51,3.88 c 2.79,0.97 5.66,1.94 8.64,1.93 2.89,-0.12 5.69,-0.96 8.42,-1.85 -5.55,-1.77 -11.49,-1.83 -17.06,-0.08 m 1.92,12.09 c 4.78,1.19 9.92,1.61 14.45,-0.68 -4.81,-1.05 -9.9,-1.53 -14.45,0.68 m -2.04,59.65 c 5.63,1.88 11.64,1.68 17.34,0.29 -2.09,-1.01 -4.21,-2.14 -6.57,-2.33 -3.7,-0.24 -7.29,0.91 -10.77,2.04 z"
       id="path218" />
    <path
       fill="#b77e17"
       opacity="1"
       d="m 383.74,465.67 c 3.99,-1.09 8.09,-1.76 12.23,-1.83 13.03,0.09 26.09,-0.23 39.09,0.91 10.35,0.29 20.4,2.99 30.69,3.82 7.55,0.62 14.77,3.06 22.17,4.53 2.88,0.65 5.88,1.12 8.52,2.53 1.27,2.21 1.2,4.86 1.32,7.34 -0.22,18.9 0.01,37.8 -0.26,56.7 -2.58,0.11 -5.18,0.08 -7.7,0.66 -1.88,0.46 -3.26,1.94 -4.69,3.15 -4.24,1.03 -8.48,2.03 -12.78,2.73 -7.61,0.43 -15.23,0.78 -22.84,1.32 -0.31,0.53 -0.93,1.61 -1.23,2.14 -5.27,0.71 -10.53,1.44 -15.83,1.77 -16.17,-1.98 -32.74,2.1 -48.72,-2.1 l -0.34,-0.76 c -0.26,-0.56 -0.77,-1.69 -1.03,-2.26 -5.27,-0.38 -10.55,-0.58 -15.81,-1.1 0.57,-19.73 1.14,-39.49 0.36,-59.23 -0.18,-5.99 0.15,-12.01 -0.55,-17.97 5.84,-0.39 11.72,-0.84 17.4,-2.35 m 30.94,2.76 c -9.02,0.56 -18.2,0.58 -26.94,3.19 0.5,0.1 1.49,0.29 1.99,0.39 -0.57,0.69 -1.13,1.38 -1.69,2.08 3.61,1.64 7.3,3.08 11.05,4.36 -2,0.55 -4,1.1 -5.96,1.77 l 0.47,0.03 c -3.32,0.34 -6.58,1.06 -9.85,1.67 7.36,1.12 14.83,0.51 22.23,0.91 5.61,0.29 11.23,0.6 16.81,1.25 11.01,1.3 22.09,1.85 33.12,2.93 9.34,0.96 18.75,0.92 28.08,2.02 4.12,0.5 8.28,0.55 12.43,0.35 -0.5,-0.12 -1.5,-0.37 -2,-0.49 0.68,-2.04 1.37,-4.07 2.06,-6.1 -7.8,-4.48 -16.91,-5.5 -25.31,-8.41 -18.56,-3.74 -37.47,-7.35 -56.49,-5.95 m 35.18,68.16 c -7.22,0.76 -14.42,1.67 -21.61,2.58 -14.8,1.15 -29.68,1.56 -44.41,3.53 9.59,1.93 19.37,2.59 29.12,3.3 19.3,1.36 38.56,-1.79 57.37,-5.82 8.15,-2.2 16.7,-3.64 24.02,-8.08 -14.92,0.33 -29.73,2.45 -44.49,4.49 z"
       id="path220" />
    <path
       fill="#b77e17"
       opacity="1"
       d="m 314.05,479.98 c 2.8,-0.67 5.61,-1.33 8.43,-1.89 -0.8,12.28 -0.21,24.6 -0.46,36.9 -0.29,8.86 1.78,17.71 0.21,26.53 -20.27,-2.02 -40.58,-3.65 -60.83,-5.92 -15.67,-1.85 -31.44,-2.99 -46.97,-5.86 -25.99,-4.03 -51.58,-10.16 -77.19,-16.04 -8.67,-2.09 -17.4,-3.99 -25.89,-6.77 2.08,-0.98 4.19,-1.92 6.37,-2.67 1.45,0.12 2.9,0.32 4.35,0.49 0.6,0.07 1.79,0.22 2.39,0.29 -1.58,0.51 -3.13,1.1 -4.68,1.69 9.75,0.04 19.4,-1.49 29.11,-2.17 27.47,-2.83 54.84,-6.53 82.29,-9.6 19.33,-2.76 38.73,-5.05 58.12,-7.35 9.55,-1.25 19.29,-0.73 28.74,-2.73 1.27,-0.25 2.54,-0.52 3.81,-0.8 -2.51,-1.54 -5.14,-2.85 -7.8,-4.1 z"
       id="path222" />
  </g>
  <g
     id="#ad7e26ff"
     transform="matrix(-0.13151026,0,0,0.21128643,102.69997,-67.237926)">
    <path
       fill="#ad7e26"
       opacity="1"
       d="m 255.74,466.34 c 13.25,-0.14 26.41,-2.43 39.68,-1.49 10.26,1.2 20.72,-1.48 30.83,1.27 -0.23,10.98 -2.16,21.86 -1.95,32.85 0.14,9.82 -0.32,19.65 0.45,29.45 0.52,7.09 0.53,14.38 3.06,21.13 l 0.29,0.9 c -9.31,1.68 -18.76,0.29 -28.13,0.22 -9.37,-0.13 -18.72,-0.83 -28.06,-1.49 -5.63,-0.7 -11.24,-1.57 -16.9,-1.93 -11.43,-0.74 -22.8,-2.15 -34.21,-3.08 -10.84,-1.75 -21.74,-3.3 -32.44,-5.77 -13.31,-3.41 -26.6,-6.87 -39.96,-10.05 -11.21,-2.78 -22.23,-6.24 -33.31,-9.47 -2.59,-0.76 -5.22,-1.39 -7.69,-2.49 -4.34,-1.93 -6.98,-7.21 -5.75,-11.82 1.15,-3.81 4.67,-6.29 8.33,-7.39 9.22,-2.86 18.43,-5.8 27.79,-8.2 3.77,-0.88 7.53,-1.86 11.2,-3.11 3.93,-1.31 7.84,-2.74 11.91,-3.56 5.79,-1.04 11.53,-2.37 17.19,-3.97 10.28,-2.89 20.91,-4.17 31.36,-6.23 15.28,-3.03 30.83,-4.3 46.31,-5.77 m 26.18,1.75 c -8.99,-0.26 -17.91,0.85 -26.8,2.1 -8.13,0.99 -16.36,0.63 -24.49,1.57 -6.89,0.61 -13.64,2.2 -20.52,2.84 -7.51,0.57 -14.49,3.7 -21.92,4.72 -15.04,2.39 -29.44,7.52 -44.28,10.79 -4.88,1.39 -9.58,3.45 -14.6,4.4 -6.17,1.11 -11.33,5.08 -17.47,6.27 -1.74,0.58 -3.82,0.68 -5.19,2 -1.19,3.04 -1.15,7 1.03,9.6 1.97,1.75 4.72,2.08 7.15,2.85 5.11,1.22 10.03,3.09 14.98,4.83 0.83,-0.66 1.65,-1.31 2.48,-1.96 -5.19,-2.14 -10.55,-4.02 -15.21,-7.23 3.74,1.35 7.67,2.16 11.37,3.64 8.63,3.34 17.48,6.09 26.36,8.68 19.2,6.17 38.84,10.97 58.75,14.17 17.43,2.78 35.07,3.7 52.64,5.16 14.26,0.58 28.54,0.49 42.81,0.19 5.2,0.13 10.44,0.18 15.56,-0.87 -0.59,-0.08 -1.76,-0.24 -2.34,-0.32 1.57,-8.82 -0.5,-17.67 -0.21,-26.53 0.25,-12.3 -0.34,-24.62 0.46,-36.9 0.08,-3.41 -0.46,-6.8 -1.51,-10.03 -4.3,-0.53 -8.6,-1.07 -12.94,-1.16 -8.72,-0.24 -17.39,1.11 -26.11,1.19 z"
       id="path225" />
  </g>
  <g
     id="#663600ff"
     transform="matrix(-0.13151026,0,0,0.21128643,102.69997,-67.237926)">
    <path
       fill="#663600"
       opacity="1"
       d="m 365.87,464.62 c 0.16,1.13 0.32,2.25 0.47,3.4 0.7,5.96 0.37,11.98 0.55,17.97 0.78,19.74 0.21,39.5 -0.36,59.23 -0.08,0.7 -0.25,2.09 -0.34,2.78 -0.06,0.38 -0.19,1.13 -0.26,1.51 -0.12,-0.58 -0.37,-1.72 -0.5,-2.3 -2.66,-11.21 -1.98,-22.8 -2.52,-34.22 -0.27,-14.77 0.05,-29.62 2.33,-44.24 0.2,-1.38 0.41,-2.76 0.63,-4.13 z"
       id="path228" />
  </g>
  <g
     id="#613300ff"
     transform="matrix(-0.13151026,0,0,0.21128643,102.69997,-67.237926)">
    <path
       fill="#613300"
       opacity="1"
       d="m 326.25,466.12 c 0.28,0.08 0.84,0.23 1.12,0.31 0.12,0.8 0.23,1.62 0.31,2.44 0.77,12.03 0.68,24.09 0.67,36.14 0.18,13.74 -0.25,27.47 -0.65,41.2 0.01,0.57 0.03,1.71 0.04,2.28 l 0.07,1.06 c -2.53,-6.75 -2.54,-14.04 -3.06,-21.13 -0.77,-9.8 -0.31,-19.63 -0.45,-29.45 -0.21,-10.99 1.72,-21.87 1.95,-32.85 z"
       id="path231" />
  </g>
  <g
     id="#b48013ff"
     transform="matrix(-0.13151026,0,0,0.21128643,102.69997,-67.237926)">
    <path
       fill="#b48013"
       opacity="1"
       d="m 281.92,468.09 c 8.72,-0.08 17.39,-1.43 26.11,-1.19 4.34,0.09 8.64,0.63 12.94,1.16 1.05,3.23 1.59,6.62 1.51,10.03 -2.82,0.56 -5.63,1.22 -8.43,1.89 2.66,1.25 5.29,2.56 7.8,4.1 -1.27,0.28 -2.54,0.55 -3.81,0.8 -4.68,0.14 -9.32,-0.49 -13.98,-0.83 -6.7,-0.53 -13.43,-0.42 -20.15,-0.27 -10.61,0.34 -21.24,0.39 -31.81,1.5 -13.36,1.06 -26.65,2.87 -39.95,4.48 -1.59,-1.27 -3.18,-2.54 -4.77,-3.81 17.72,-3.14 35.62,-5.15 53.5,-7.03 8.58,-1.09 17.19,-1.81 25.81,-2.46 6.31,-0.45 12.57,-1.49 18.89,-1.95 5.39,-0.3 10.82,-0.56 16.1,-1.77 -5.61,-0.73 -11.26,-0.85 -16.91,-0.7 -17.25,-0.25 -34.53,-0.46 -51.73,1.07 -11.77,1.07 -23.6,1.76 -35.28,3.61 -23.41,3.66 -46.43,9.56 -69.01,16.72 -10.48,3.2 -20.78,6.96 -31.03,10.82 -2.18,0.75 -4.29,1.69 -6.37,2.67 1.87,1.36 3.75,2.72 5.73,3.94 4.66,3.21 10.02,5.09 15.21,7.23 -0.83,0.65 -1.65,1.3 -2.48,1.96 -4.95,-1.74 -9.87,-3.61 -14.98,-4.83 -2.43,-0.77 -5.18,-1.1 -7.15,-2.85 -2.18,-2.6 -2.22,-6.56 -1.03,-9.6 1.37,-1.32 3.45,-1.42 5.19,-2 6.14,-1.19 11.3,-5.16 17.47,-6.27 5.02,-0.95 9.72,-3.01 14.6,-4.4 14.84,-3.27 29.24,-8.4 44.28,-10.79 7.43,-1.02 14.41,-4.15 21.92,-4.72 6.88,-0.64 13.63,-2.23 20.52,-2.84 8.13,-0.94 16.36,-0.58 24.49,-1.57 8.89,-1.25 17.81,-2.36 26.8,-2.1 z"
       id="path234" />
  </g>
  <g
     id="#dab11fff"
     transform="matrix(-0.13151026,0,0,0.21128643,102.69997,-67.237926)">
    <path
       fill="#dab11f"
       opacity="1"
       d="m 414.68,468.43 c 19.02,-1.4 37.93,2.21 56.49,5.95 0.27,2.05 0.54,4.1 0.79,6.16 -16.37,-1.48 -32.54,-4.66 -48.97,-5.57 -11.09,-0.99 -22.31,-0.76 -33.26,-2.96 -0.5,-0.1 -1.49,-0.29 -1.99,-0.39 8.74,-2.61 17.92,-2.63 26.94,-3.19 z"
       id="path237" />
    <path
       fill="#dab11f"
       opacity="1"
       d="m 253.04,473.11 c 17.2,-1.53 34.48,-1.32 51.73,-1.07 0.2,0.62 0.6,1.85 0.81,2.47 -6.32,0.46 -12.58,1.5 -18.89,1.95 -8.62,0.65 -17.23,1.37 -25.81,2.46 -17.88,1.88 -35.78,3.89 -53.5,7.03 -17.59,2.88 -34.92,7.11 -52.34,10.82 -2.1,-1.11 -4.19,-2.22 -6.29,-3.33 22.58,-7.16 45.6,-13.06 69.01,-16.72 11.68,-1.85 23.51,-2.54 35.28,-3.61 z"
       id="path239" />
  </g>
  <g
     id="#dcad2eff"
     transform="matrix(-0.13151026,0,0,0.21128643,102.69997,-67.237926)">
    <path
       fill="#dcad2e"
       opacity="1"
       d="m 346.34,471.27 c 5.57,-1.75 11.51,-1.69 17.06,0.08 -2.73,0.89 -5.53,1.73 -8.42,1.85 -2.98,0.01 -5.85,-0.96 -8.64,-1.93 z"
       id="path242" />
  </g>
  <g
     id="#d8a332ff"
     transform="matrix(-0.13151026,0,0,0.21128643,102.69997,-67.237926)">
    <path
       fill="#d8a332"
       opacity="1"
       d="m 304.77,472.04 c 5.65,-0.15 11.3,-0.03 16.91,0.7 -5.28,1.21 -10.71,1.47 -16.1,1.77 -0.21,-0.62 -0.61,-1.85 -0.81,-2.47 z"
       id="path248" />
  </g>
  <g
     id="#b1820eff"
     transform="matrix(-0.13151026,0,0,0.21128643,102.69997,-67.237926)">
    <path
       fill="#b1820e"
       opacity="1"
       d="m 389.73,472.01 c 10.95,2.2 22.17,1.97 33.26,2.96 16.43,0.91 32.6,4.09 48.97,5.57 8.16,0.93 16.29,2.23 24.52,2.25 -0.69,2.03 -1.38,4.06 -2.06,6.1 -11.05,-2.41 -22.36,-3.3 -33.54,-4.92 -22.27,-3.22 -44.81,-3.73 -67.28,-3.72 l -0.47,-0.03 c 1.96,-0.67 3.96,-1.22 5.96,-1.77 -3.75,-1.28 -7.44,-2.72 -11.05,-4.36 0.56,-0.7 1.12,-1.39 1.69,-2.08 z"
       id="path251" />
  </g>
  <g
     id="#daaf2aff"
     transform="matrix(-0.13151026,0,0,0.21128643,102.69997,-67.237926)">
    <path
       fill="#daaf2a"
       opacity="1"
       d="m 471.17,474.38 c 8.4,2.91 17.51,3.93 25.31,8.41 -8.23,-0.02 -16.36,-1.32 -24.52,-2.25 -0.25,-2.06 -0.52,-4.11 -0.79,-6.16 z"
       id="path254" />
  </g>
  <g
     id="#fbe263ff"
     transform="matrix(-0.13151026,0,0,0.21128643,102.69997,-67.237926)">
    <path
       fill="#fbe263"
       opacity="1"
       d="m 393.6,480.25 c 22.47,-0.01 45.01,0.5 67.28,3.72 11.18,1.62 22.49,2.51 33.54,4.92 0.5,0.12 1.5,0.37 2,0.49 -4.15,0.2 -8.31,0.15 -12.43,-0.35 -9.33,-1.1 -18.74,-1.06 -28.08,-2.02 -11.03,-1.08 -22.11,-1.63 -33.12,-2.93 -5.58,-0.65 -11.2,-0.96 -16.81,-1.25 -7.4,-0.4 -14.87,0.21 -22.23,-0.91 3.27,-0.61 6.53,-1.33 9.85,-1.67 z"
       id="path257" />
  </g>
  <g
     id="#f6cd5eff"
     transform="matrix(-0.13151026,0,0,0.21128643,102.69997,-67.237926)">
    <path
       fill="#f6cd5e"
       opacity="1"
       d="m 348.26,483.36 c 4.55,-2.21 9.64,-1.73 14.45,-0.68 -4.53,2.29 -9.67,1.87 -14.45,0.68 z"
       id="path260" />
  </g>
  <g
     id="#f4e55dff"
     transform="matrix(-0.13151026,0,0,0.21128643,102.69997,-67.237926)">
    <path
       fill="#f4e55d"
       opacity="1"
       d="m 252.1,485.28 c 10.57,-1.11 21.2,-1.16 31.81,-1.5 1.79,1.27 3.59,2.55 5.39,3.83 -19.39,2.3 -38.79,4.59 -58.12,7.35 -27.45,3.07 -54.82,6.77 -82.29,9.6 -9.71,0.68 -19.36,2.21 -29.11,2.17 1.55,-0.59 3.1,-1.18 4.68,-1.69 6.82,-0.91 13.47,-2.71 20.19,-4.14 10.47,-2.31 21.05,-4.07 31.64,-5.78 11.88,-2.21 23.89,-3.68 35.86,-5.36 13.3,-1.61 26.59,-3.42 39.95,-4.48 z"
       id="path263" />
  </g>
  <g
     id="#fce165ff"
     transform="matrix(-0.13151026,0,0,0.21128643,102.69997,-67.237926)">
    <path
       fill="#fce165"
       opacity="1"
       d="m 283.91,483.78 c 6.72,-0.15 13.45,-0.26 20.15,0.27 4.66,0.34 9.3,0.97 13.98,0.83 -9.45,2 -19.19,1.48 -28.74,2.73 -1.8,-1.28 -3.6,-2.56 -5.39,-3.83 z"
       id="path266" />
  </g>
  <g
     id="#e9d9abff"
     transform="matrix(-0.13151026,0,0,0.21128643,102.69997,-67.237926)">
    <path
       fill="#e9d9ab"
       opacity="1"
       d="m 137.77,488.98 c 3.25,-2.36 7.26,-3.06 11.2,-3.11 -3.67,1.25 -7.43,2.23 -11.2,3.11 z"
       id="path269" />
  </g>
  <g
     id="#af8608ff"
     transform="matrix(-0.13151026,0,0,0.21128643,102.69997,-67.237926)">
    <path
       fill="#af8608"
       opacity="1"
       d="m 155.04,496.77 c 17.42,-3.71 34.75,-7.94 52.34,-10.82 1.59,1.27 3.18,2.54 4.77,3.81 -11.97,1.68 -23.98,3.15 -35.86,5.36 -10.59,1.71 -21.17,3.47 -31.64,5.78 -6.72,1.43 -13.37,3.23 -20.19,4.14 -0.6,-0.07 -1.79,-0.22 -2.39,-0.29 10.87,-3.13 21.89,-5.69 32.97,-7.98 z"
       id="path272" />
  </g>
  <g
     id="#d9b02aff"
     transform="matrix(-0.13151026,0,0,0.21128643,102.69997,-67.237926)">
    <path
       fill="#d9b02a"
       opacity="1"
       d="m 117.72,504.26 c 10.25,-3.86 20.55,-7.62 31.03,-10.82 2.1,1.11 4.19,2.22 6.29,3.33 -11.08,2.29 -22.1,4.85 -32.97,7.98 -1.45,-0.17 -2.9,-0.37 -4.35,-0.49 z"
       id="path275" />
  </g>
  <g
     id="#714404ff"
     transform="matrix(-0.13151026,0,0,0.21128643,102.69997,-67.237926)">
    <path
       fill="#714404"
       opacity="1"
       d="m 111.35,506.93 c 8.49,2.78 17.22,4.68 25.89,6.77 25.61,5.88 51.2,12.01 77.19,16.04 15.53,2.87 31.3,4.01 46.97,5.86 20.25,2.27 40.56,3.9 60.83,5.92 0.58,0.08 1.75,0.24 2.34,0.32 -5.12,1.05 -10.36,1 -15.56,0.87 -14.27,0.3 -28.55,0.39 -42.81,-0.19 -17.57,-1.46 -35.21,-2.38 -52.64,-5.16 -19.91,-3.2 -39.55,-8 -58.75,-14.17 -8.88,-2.59 -17.73,-5.34 -26.36,-8.68 -3.7,-1.48 -7.63,-2.29 -11.37,-3.64 -1.98,-1.22 -3.86,-2.58 -5.73,-3.94 z"
       id="path281" />
  </g>
  <g
     id="#fffffeff"
     transform="matrix(-0.13151026,0,0,0.21128643,102.69997,-67.237926)">
    <path
       fill="#fffffe"
       opacity="1"
       d="m 738.43,509.88 c 27.85,-0.59 55.71,-0.33 83.57,-0.94 5.39,-0.12 10.79,-0.11 16.19,-0.13 0.33,4.55 0.78,9.11 1.06,13.67 -0.02,0.49 -0.05,1.46 -0.06,1.94 -33.8,-0.36 -67.6,-1.08 -101.41,-0.86 0.23,-4.56 0.5,-9.12 0.65,-13.68 z"
       id="path284" />
    <path
       fill="#fffffe"
       opacity="1"
       d="m 587.55,534.88 c 9.06,-1.25 18.11,-2.98 27.3,-2.7 -1.91,13.7 -3.87,27.51 -8.34,40.65 -1.09,3.26 -3.39,5.87 -5.66,8.36 -2.19,-1.92 -4.32,-4.03 -5.46,-6.76 -5.38,-12.49 -6.42,-26.19 -7.84,-39.55 z"
       id="path286" />
  </g>
  <g
     id="#454543ff"
     transform="matrix(-0.13151026,0,0,0.21128643,102.69997,-67.237926)">
    <path
       fill="#454543"
       opacity="1"
       d="m 75.14,512.89 c 4.98,3.99 9.45,8.55 14.39,12.59 9.39,7.74 19.4,14.69 29.48,21.5 14.75,9.32 29.45,19 45.74,25.48 8.94,3.85 18.21,6.86 27.61,9.36 15.42,4.03 31.1,7.23 46.99,8.57 7.29,0.9 14.62,1.23 21.9,2.2 -9.62,0.36 -19.25,-0.22 -28.81,-1.3 -17.58,-1.69 -34.98,-5.08 -51.98,-9.86 -19.26,-5.34 -37.32,-14.24 -54.38,-24.53 -13.45,-8.53 -26.34,-18.07 -37.77,-29.2 -4.73,-4.62 -9.54,-9.24 -13.17,-14.81 z"
       id="path295" />
  </g>
  <g
     id="#363636ff"
     transform="matrix(-0.13151026,0,0,0.21128643,102.69997,-67.237926)">
    <path
       fill="#363636"
       opacity="1"
       d="m 519.82,524.59 c 15.9,-3.12 32.19,-3.69 48.35,-3.18 -15.93,2.85 -32.19,3.73 -48.35,3.18 z"
       id="path298" />
  </g>
  <g
     id="#704404ff"
     transform="matrix(-0.13151026,0,0,0.21128643,102.69997,-67.237926)">
    <path
       fill="#704404"
       opacity="1"
       d="m 449.86,536.59 c 14.76,-2.04 29.57,-4.16 44.49,-4.49 -7.32,4.44 -15.87,5.88 -24.02,8.08 -18.81,4.03 -38.07,7.18 -57.37,5.82 -9.75,-0.71 -19.53,-1.37 -29.12,-3.3 14.73,-1.97 29.61,-2.38 44.41,-3.53 7.19,-0.91 14.39,-1.82 21.61,-2.58 z"
       id="path301" />
  </g>
  <g
     id="#936109ff"
     transform="matrix(-0.13151026,0,0,0.21128643,102.69997,-67.237926)">
    <path
       fill="#936109"
       opacity="1"
       d="m 346.22,543.01 c 3.48,-1.13 7.07,-2.28 10.77,-2.04 2.36,0.19 4.48,1.32 6.57,2.33 -5.7,1.39 -11.71,1.59 -17.34,-0.29 z"
       id="path304" />
  </g>
  <g
     id="#d2bb83ff"
     transform="matrix(-0.13151026,0,0,0.21128643,102.69997,-67.237926)">
    <path
       fill="#d2bb83"
       opacity="1"
       d="m 220.8,544.17 c 11.41,0.93 22.78,2.34 34.21,3.08 5.66,0.36 11.27,1.23 16.9,1.93 -11.65,-0.18 -23.23,-1.49 -34.83,-2.45 -5.48,-0.46 -10.88,-1.55 -16.28,-2.56 z"
       id="path307" />
  </g>
  <g
     id="#a97e2dff"
     transform="matrix(-0.13151026,0,0,0.21128643,102.69997,-67.237926)">
    <path
       fill="#a97e2d"
       opacity="1"
       d="m 366.53,545.22 c 5.26,0.52 10.54,0.72 15.81,1.1 0.26,0.57 0.77,1.7 1.03,2.26 -5.72,-0.45 -11.46,-0.32 -17.18,-0.58 0.09,-0.69 0.26,-2.08 0.34,-2.78 z"
       id="path310" />
  </g>
  <g
     id="#a17e39ff"
     transform="matrix(-0.13151026,0,0,0.21128643,102.69997,-67.237926)">
    <path
       fill="#a17e39"
       opacity="1"
       d="m 327.7,546.21 c 4.37,-0.09 8.77,-0.3 13.11,0.38 4.86,0.74 9.33,3.09 14.24,3.63 3.71,0.31 7.1,-1.55 10.38,-3.01 0.13,0.58 0.38,1.72 0.5,2.3 -0.09,0.45 -0.27,1.35 -0.36,1.8 -6.13,1.55 -12.61,1.65 -18.72,-0.05 -1.59,-1.06 -3.02,-2.59 -4.99,-2.85 -4.69,-0.58 -9.42,-0.07 -14.12,0.08 -0.01,-0.57 -0.03,-1.71 -0.04,-2.28 z"
       id="path313" />
  </g>
  <g
     id="#b49354ff"
     transform="matrix(-0.13151026,0,0,0.21128643,102.69997,-67.237926)">
    <path
       fill="#b49354"
       opacity="1"
       d="m 449.49,547.53 c 7.61,-0.54 15.23,-0.89 22.84,-1.32 -7.94,1.67 -16.01,2.59 -24.07,3.46 0.3,-0.53 0.92,-1.61 1.23,-2.14 z"
       id="path316" />
  </g>
  <g
     id="#dac794ff"
     transform="matrix(-0.13151026,0,0,0.21128643,102.69997,-67.237926)">
    <path
       fill="#dac794"
       opacity="1"
       d="m 327.74,548.49 c 4.7,-0.15 9.43,-0.66 14.12,-0.08 1.97,0.26 3.4,1.79 4.99,2.85 -6.1,-1.79 -12.52,-2.07 -18.75,-0.81 l -0.29,-0.9 z"
       id="path319" />
  </g>
  <g
     id="#dbc596ff"
     transform="matrix(-0.13151026,0,0,0.21128643,102.69997,-67.237926)">
    <path
       fill="#dbc596"
       opacity="1"
       d="m 365.93,549.51 c 0.07,-0.38 0.2,-1.13 0.26,-1.51 5.72,0.26 11.46,0.13 17.18,0.58 l 0.34,0.76 0.34,0.72 c -6.17,-0.97 -12.5,-0.61 -18.48,1.25 0.09,-0.45 0.27,-1.35 0.36,-1.8 z"
       id="path322" />
  </g>
  <g
     id="#b5934fff"
     transform="matrix(-0.13151026,0,0,0.21128643,102.69997,-67.237926)">
    <path
       fill="#b5934f"
       opacity="1"
       d="m 383.71,549.34 c 15.98,4.2 32.55,0.12 48.72,2.1 -7.76,1.19 -15.61,1.43 -23.44,1.24 -8.07,-0.24 -16.23,0.54 -24.2,-1.02 -0.19,-0.4 -0.55,-1.2 -0.74,-1.6 z"
       id="path325" />
  </g>
  <g
     id="#9c9c9bff"
     transform="matrix(-0.13151026,0,0,0.21128643,98.579111,-67.237926)">
    <path
       fill="#9c9c9b"
       opacity="1"
       d="m 159.9,558.33 c 14.55,3.23 28.82,7.72 43.53,10.22 11.54,2.27 23.29,2.99 34.98,4.04 7.29,0.63 14.67,0.26 21.88,1.69 -5.02,0.41 -10.07,0.49 -15.1,0.21 -11.66,-0.55 -23.34,-1.21 -34.9,-2.84 -10.98,-1.83 -21.92,-4.03 -32.58,-7.28 -6.02,-1.73 -12.11,-3.38 -17.81,-6.04 z"
       id="path328" />
  </g>
  <g
     id="#414141ff"
     transform="matrix(-0.13151026,0,0,0.21128643,102.69997,-67.237926)">
    <path
       fill="#414141"
       opacity="1"
       d="m 412.01,575.12 c 5.04,-0.4 10.1,-0.65 15.16,-0.61 -28.24,3.68 -56.76,4.5 -85.2,5.39 -7.39,0.44 -14.81,0.8 -22.21,0.33 5.68,-0.77 11.41,-0.9 17.13,-1.25 25.02,-1.67 50.08,-2.52 75.12,-3.86 z"
       id="path331" />
  </g>
</svg>
