<svg xmlns="http://www.w3.org/2000/svg" width="257.011" height="103.133" xmlns:v="https://vecta.io/nano"><path d="M57.414 1.841C40.867 3.685 16.875 18.513 5.919 35.662c17.597-6.3 58.821-13.322 60.159-13.097l13.377-5.932c0 0 1.7-17.438-22.041-14.792z" fill="#fd5"/><path d="M137.702 85.958l-3.542-.663C98.877 79.98 47.403 56.351 58.668 34.158c4.122-8.12 15.724-9.285 15.724-9.285v-8.562H45.228L20.357 32.163c6.198-1.218 11.49-.979 14.119.548 6.093 3.537 1.971 11.255-8.601 8.521-19.907-5.147-24.37 14.47-13.798 21.867l3.594 18.344 63.963 19.761 58.106-.01z" fill="red"/><path d="M114.628 85.805C86.061 77.55 51.659 60.232 49.26 42.518c-1.165-8.602 0-17.847 17.382-24.359l-2.44-1.951c-13.088-3.523-27.276-.569-37.297 7.767l-11.236 9.346c.153-.048.299-.105.454-.15 7.973-2.307 15.141-2.327 18.355-.461 6.093 3.537 1.971 11.255-8.601 8.521-19.907-5.147-24.37 14.47-13.798 21.867l1.567 7.999 31.757-9.346c3.897 4.564 8.974 8.868 15.221 12.765a2.31 2.31 0 0 0 1.225.345c.68 0 1.35-.288 1.768-.827.677-.876.437-2.078-.539-2.687-9.2-5.738-15.67-12.404-19.271-19.467-.489-.958-.021-2.095 1.013-2.596 1.062-.515 2.351-.093 2.877.882 10.175 18.844 44.907 33.328 65.614 39.311.22.062.441.092.659.092.909 0 1.753-.52 2.046-1.338.365-1.013-.257-2.1-1.387-2.428z" fill="#ffd42a"/><path d="M82.187 15.105c-2.549-1.668-9.901-4.568-16.97-4.568a55.7 55.7 0 0 0-17.181 2.698c10.525.962 21.968 6.515 26.938 13.204 6.026 8.11 18.636-3.859 7.213-11.335z" fill="#f95"/><path d="M38.24 66.636s25.823 31.997 97.298 32.629c1.185.011 2.154.866 2.154 1.929h0c0 1.071-.968 1.939-2.162 1.939H48.454c-9.731 0-22.937-3.859-31.18-13.506-6.896-8.071-4.301-23.153-4.301-23.153z" fill="#d40000"/><path d="M135.636 99.274H71.079c-17.472 0-29.969-5.336-38.016-12.377-2.972-2.6-.805-7.144 3.346-7.125h.04c3.969 0 7.781-2.355 9.573-6.039-5.331-4.134-7.736-7.099-7.736-7.099l-25.266-.161s-2.596 15.081 4.301 23.153c8.243 9.647 21.449 13.506 31.18 13.506h87.077c1.194 0 2.162-.868 2.162-1.939 0-1.047-.943-1.884-2.103-1.919z" fill="#f60"/><path d="M126.385 92.61a2.36 2.36 0 0 1-.455-.043l-3.758-.791c-1.152-.26-1.849-1.309-1.559-2.342s1.465-1.66 2.611-1.4l3.611.761c1.16.224 1.899 1.249 1.649 2.291-.216.906-1.109 1.524-2.1 1.524zM71.479 80.062a2.33 2.33 0 0 1-.991-.219l-2.852-1.387c-1.034-.524-1.399-1.701-.815-2.629s1.898-1.257 2.929-.733l2.724 1.327c1.053.492 1.463 1.658.914 2.602-.383.662-1.133 1.038-1.909 1.038z" fill="#fea"/><path d="M29.932 41.788c-1.222-.011-2.568-.171-4.057-.556-19.907-5.147-24.37 14.47-13.798 21.867l1.567 7.999 21.419-6.304a113.14 113.14 0 0 1-2.737-6.036c-2.672-6.394-3.201-12.032-2.394-16.97zm21.64-27.406c-6.868 0-13.507 2.21-18.713 6.229L16.825 32.99c6.96-1.908 13.2-2.06 16.637-.727 7.34-12.258 22.518-17.881 22.518-17.881z" fill="#f60"/><path d="M8.852 68.244c-3.075 11.391 8.422 21.384 8.422 21.384s-6.149-9.596-1.478-16.52c3.091-4.582 9.408-5.547 16.531 1.085 5.429 5.054 12.876-2.101 9.431-7.514 3.116.515 6.314-.489 6.696-3.098 1.404-9.572-34.047-15.917-39.602 4.663z" fill="#e8faff"/><path d="M15.796 73.107c3.091-4.582 9.408-5.547 16.531 1.085 5.429 5.054 12.876-2.101 9.431-7.514-6.385-7.76-22.468-8.645-27.978-.203-5.726 8.773-.806 18.008 3.494 23.153 0 0-6.149-9.596-1.478-16.52z" fill="#ffe680"/><path d="M112.3 95.697l-4.077-.581c-1.1-.167-2.14.495-2.326 1.477s.554 1.912 1.653 2.078l4.152.592a2.2 2.2 0 0 0 .302.02c.982 0 1.843-.642 1.993-1.536.165-.985-.594-1.903-1.696-2.051zm23.682-11.567c-13.258-1.538-29.524-6.294-43.512-12.725-15.246-7.008-26.326-15.184-31.2-23.021-3.181-5.115-3.634-9.984-1.346-14.472 1.457-2.859 4.122-4.894 7.921-6.048a21.96 21.96 0 0 1 4.933-.881l.524.678c1.655 2.219 4.012 3.41 6.641 3.41a9.33 9.33 0 0 0 1.829-.186c3.915-.788 7.183-3.967 7.769-7.56.612-3.746-1.699-7.23-6.34-9.557a48.7 48.7 0 0 0-1.551-.74c-.347-1.521-1.835-6.391-7.138-9.75C69.362.014 62.294-.817 53.501.806 41.61 3 29.874 9.23 17.626 19.85c-.8.694-.819 1.835-.043 2.549.396.364.922.547 1.448.547.506 0 1.013-.169 1.405-.509C32.117 12.31 43.2 6.388 54.317 4.337c7.62-1.406 13.611-.785 17.808 1.847a12.75 12.75 0 0 1 4.543 4.891 44.13 44.13 0 0 0-2.278-.676c-1.069-.287-2.192.257-2.511 1.211s.288 1.959 1.355 2.244c2.695.72 5.383 1.748 7.992 3.056 3.195 1.603 4.69 3.64 4.322 5.892-.343 2.102-2.392 4.106-4.663 4.563-1.704.343-3.126-.231-4.226-1.706-3.779-5.065-9.006-9.122-14.72-11.424a30.58 30.58 0 0 0-4.16-1.344c2.37-.314 4.811-.439 7.305-.316 1.113.058 2.064-.706 2.126-1.7s-.79-1.845-1.903-1.9c-11.027-.55-22.805 3.186-34.054 10.796-7.069 4.782-11.813 9.626-13.276 11.197a55.33 55.33 0 0 0-8.954 2.935c1.624-1.885 3.596-4.047 5.889-6.329.744-.741.676-1.881-.153-2.546s-2.105-.604-2.849.137C4.63 32.409.549 38.355.301 38.72c-.415.6-.412 1.389.077 1.998.649.809 1.91.995 2.816.414 5.441-3.488 11.884-6.027 18.144-7.15 3.925-.704 9.404-1.008 11.932.454 1.679.971 2.322 2.359 1.678 3.622-.868 1.703-3.879 2.872-8.649 1.643-4.903-1.262-9.276-1.255-12.996.021-3.346 1.148-5.981 3.282-7.619 6.172-1.63 2.875-2.134 6.272-1.42 9.564.645 2.969 2.249 5.615 4.568 7.581a18.71 18.71 0 0 0-2.125 4.949c-1.384 5.107-.252 10.73 3.275 16.263 2.61 4.094 5.603 6.706 5.729 6.815.392.339.898.508 1.403.508.527 0 1.054-.184 1.449-.548.775-.715.755-1.857-.045-2.549-.107-.093-10.669-9.382-7.889-19.639 1.351-4.984 4.675-8.533 9.88-10.548 4.358-1.687 9.903-2.148 15.211-1.264 6.36 1.059 11.044 3.912 10.664 6.495-.098.664-.372 1.127-.839 1.415-.593.366-1.525.462-2.491.258a1.81 1.81 0 0 0-.177-.029c-.71-.862-1.625-1.641-2.74-2.306-.927-.552-2.18-.329-2.798.5s-.368 1.948.56 2.5c2.51 1.496 2.811 3.284 2.621 4.521-.261 1.7-1.631 3.278-3.256 3.751-1.258.366-2.47.021-3.599-1.027-4.47-4.145-9.986-5.95-14.395-4.712-2.923.821-4.876 2.847-5.359 5.559-.175.983.575 1.908 1.676 2.064s2.135-.514 2.31-1.497c.303-1.705 1.572-2.402 2.584-2.686 3.518-.988 7.736 1.415 10.28 3.774 1.607 1.49 3.552 2.272 5.55 2.272a7.88 7.88 0 0 0 2.206-.319c2.079-.606 3.841-2.007 4.927-3.791 1.878 1.788 5.11 4.482 10.122 7.508 7.95 4.8 22.183 11.441 44.835 15.822a2.25 2.25 0 0 0 .429.041c.929 0 1.766-.577 1.97-1.422.236-.973-.456-1.933-1.545-2.144C77.409 89.35 63.72 83.015 56.082 78.445c-8.208-4.911-11.365-8.886-11.427-8.965-.022-.029-.047-.055-.071-.083-.009-.171-.025-.341-.046-.509 1.219-.073 2.359-.405 3.297-.983 1.42-.875 2.301-2.228 2.549-3.913.371-2.522-1.055-4.991-4.016-6.953-2.48-1.643-5.999-2.906-9.909-3.558-8.914-1.484-19.223.218-25.292 6.543-3.343-3.195-4.212-8.393-1.884-12.499 1.257-2.218 5.324-7.081 15.899-4.358 7.081 1.823 11.852-.501 13.439-3.613 1.488-2.919.219-6.192-3.158-8.144-2.376-1.374-6.29-1.891-10.955-1.497 2.25-2.065 5.405-4.718 9.262-7.319 2.842-1.917 6.303-3.956 10.218-5.695.012-.004.024-.006.036-.011 5.173-1.785 10.795-1.565 16.258.636 3.448 1.389 6.704 3.517 9.494 6.169-4.076.675-10.448 2.692-13.523 8.725-2.847 5.587-2.346 11.548 1.491 17.718 11.279 18.137 50.012 34.357 77.72 37.57a2.26 2.26 0 0 0 .262.015c.999 0 1.866-.663 1.998-1.571.143-.986-.637-1.891-1.742-2.019zM47.743 45.197c-1.059.309-1.638 1.327-1.292 2.273l.959 2.346c.317.702 1.073 1.129 1.872 1.129a2.23 2.23 0 0 0 .755-.131c1.033-.373 1.533-1.423 1.116-2.347l-.865-2.116c-.346-.946-1.486-1.464-2.544-1.154zm9.322-21.863c.92-.558 1.161-1.676.539-2.5s-1.878-1.043-2.801-.486c-.445.268-10.88 6.716-9.98 19.749.066.956.954 1.692 2.012 1.692a2.22 2.22 0 0 0 .126-.004c1.112-.061 1.958-.917 1.89-1.91-.754-10.913 7.838-16.31 8.215-16.541zm-10.661 69.38l-3.623-1.649c-.974-.484-2.202-.17-2.744.7s-.19 1.968.784 2.452l3.88 1.766a2.21 2.21 0 0 0 .85.169c.76 0 1.489-.386 1.83-1.043.471-.903.033-1.975-.978-2.396zm-10.632-5.805c-6.894-4.852-9.703-9.496-9.731-9.542-.519-.879-1.737-1.216-2.722-.754s-1.367 1.553-.848 2.435c.126.215 3.184 5.332 10.804 10.695.37.261.81.387 1.247.387.597 0 1.188-.236 1.586-.687.69-.782.539-1.916-.337-2.532z"/><path d="M205.237 1.841c14.921 1.844 36.557 16.672 46.437 33.821-15.868-6.3-53.043-13.322-54.249-13.097l-12.063-5.932c0 0-1.533-17.438 19.876-14.792z" fill="#fd5"/><path d="M132.834 85.958s1.344-.353 3.195-.663c31.818-5.316 78.235-28.945 68.077-51.138-3.717-8.12-14.18-9.285-14.18-9.285v-8.562h26.299l22.428 15.852c-5.589-1.218-10.361-.979-12.732.548-5.494 3.537-1.778 11.255 7.756 8.521 17.952-5.147 21.976 14.47 12.443 21.867l-3.241 18.344-57.68 19.761-52.399-.01z" fill="red"/><path d="M153.642 85.805c25.76-8.255 56.784-25.573 58.947-43.286 1.05-8.602 0-17.847-15.674-24.359l2.2-1.951c11.802-3.523 24.597-.569 33.634 7.767l10.133 9.346c-.138-.048-.27-.105-.409-.15-7.19-2.307-13.654-2.327-16.552-.461-5.494 3.537-1.778 11.255 7.756 8.521 17.952-5.147 21.976 14.47 12.443 21.867l-1.413 7.999-28.637-9.346c-3.514 4.564-8.092 8.868-13.726 12.765-.337.234-.723.345-1.105.345a1.94 1.94 0 0 1-1.594-.827c-.611-.876-.394-2.078.486-2.687 8.296-5.738 14.131-12.404 17.378-19.467.441-.958.019-2.095-.913-2.596-.958-.515-2.12-.093-2.594.882-9.175 18.844-40.496 33.328-59.169 39.311a1.98 1.98 0 0 1-.595.092c-.82 0-1.581-.52-1.845-1.338a1.93 1.93 0 0 1 1.251-2.428z" fill="#ffd42a"/><path d="M182.896 15.105c2.299-1.668 8.928-4.568 15.303-4.568a45.74 45.74 0 0 1 15.493 2.698c-9.491.962-19.81 6.515-24.292 13.204-5.434 8.11-16.806-3.859-6.504-11.335z" fill="#f95"/><path d="M222.527 66.636s-23.287 31.997-87.741 32.629c-1.069.011-1.942.866-1.942 1.929h0c0 1.071.873 1.939 1.949 1.939h78.524c8.775 0 20.684-3.859 28.117-13.506 6.219-8.071 3.878-23.153 3.878-23.153z" fill="#d40000"/><path d="M134.901 99.275h58.109c15.727 0 26.975-5.336 34.218-12.377 2.675-2.6.725-7.144-3.012-7.125h-.036c-3.572 0-7.004-2.355-8.617-6.039 4.798-4.134 6.963-7.099 6.963-7.099l22.743-.161s2.336 15.081-3.871 23.153c-7.42 9.647-19.307 13.506-28.065 13.506h-78.379c-1.075 0-1.946-.868-1.946-1.939 0-1.047.849-1.884 1.893-1.919z" fill="#f60"/><g transform="matrix(-.242598 0 0 .2404 257.01076 -9.976043)"><path d="M469.791 426.732a7.82 7.82 0 0 1-1.69-.18c-4.477-.964-9.141-2.069-13.968-3.292-4.281-1.082-6.873-5.447-5.796-9.742 1.077-4.311 5.445-6.905 9.707-5.823 4.641 1.176 9.117 2.234 13.422 3.166 4.313.933 7.06 5.196 6.131 9.531a8 8 0 0 1-7.806 6.34zm-204.094-52.199a7.89 7.89 0 0 1-3.684-.909c-3.602-1.881-7.134-3.809-10.6-5.769-3.844-2.179-5.199-7.077-3.029-10.934 2.17-3.864 7.056-5.228 10.889-3.049 3.31 1.881 6.686 3.715 10.124 5.518 3.915 2.046 5.437 6.897 3.396 10.824a7.98 7.98 0 0 1-7.096 4.319z" fill="#fea"/><path d="M111.263 215.323c-4.544-.047-9.545-.71-15.08-2.311-73.999-21.409-90.588 60.193-51.29 90.959l5.825 33.272 79.619-26.222c-3.513-8.05-6.922-16.398-10.175-25.108-9.933-26.597-11.899-50.048-8.899-70.59zm80.439-114.002c-25.529 0-50.209 9.194-69.559 25.912L62.54 178.729c25.87-7.935 49.065-8.569 61.842-3.025 27.286-50.991 83.704-74.383 83.704-74.383z" fill="#f60"/></g><path d="M249.028 68.244c2.773 11.391-7.595 21.384-7.595 21.384s5.545-9.596 1.333-16.52c-2.787-4.582-8.484-5.547-14.907 1.085-4.895 5.054-11.611-2.101-8.505-7.514-2.81.515-5.694-.489-6.038-3.098-1.266-9.572 30.702-15.917 35.712 4.663z" fill="#e8faff"/><path d="M242.767 73.107c-2.787-4.582-8.484-5.547-14.907 1.085-4.895 5.054-11.611-2.101-8.505-7.514 5.758-7.76 20.261-8.645 25.23-.203 5.164 8.773.727 18.008-3.151 23.153 0 0 5.545-9.596 1.333-16.52z" fill="#ffe680"/><path d="M155.742 95.697l3.676-.581c.992-.167 1.93.495 2.098 1.477s-.5 1.912-1.49 2.078l-3.744.592a1.79 1.79 0 0 1-.272.02c-.885 0-1.662-.642-1.797-1.536-.149-.985.536-1.903 1.53-2.051zM134.386 84.13c11.955-1.538 26.624-6.294 39.238-12.725 13.749-7.008 23.74-15.184 28.135-23.021 2.868-5.115 3.277-9.984 1.214-14.472-1.314-2.859-3.717-4.894-7.143-6.048a18.05 18.05 0 0 0-4.448-.881l-.473.678c-1.493 2.219-3.618 3.41-5.989 3.41a7.57 7.57 0 0 1-1.649-.186c-3.531-.788-6.477-3.967-7.006-7.56-.552-3.746 1.532-7.23 5.717-9.557a42.16 42.16 0 0 1 1.399-.74c.313-1.521 1.655-6.391 6.437-9.75 4.643-3.261 11.018-4.093 18.947-2.47C219.488 3 230.071 9.23 241.116 19.85a1.79 1.79 0 0 1 .039 2.549 1.82 1.82 0 0 1-2.573.038c-10.534-10.129-20.528-16.05-30.553-18.101-6.871-1.406-12.274-.785-16.059 1.847-2.109 1.467-3.363 3.346-4.096 4.891a37.31 37.31 0 0 1 2.054-.676 1.82 1.82 0 0 1 2.264 1.211 1.8 1.8 0 0 1-1.222 2.244c-2.43.72-4.854 1.748-7.207 3.056-2.881 1.603-4.229 3.64-3.897 5.892.31 2.102 2.157 4.106 4.205 4.563 1.536.343 2.819-.231 3.811-1.706 3.408-5.065 8.122-9.122 13.274-11.424a25.7 25.7 0 0 1 3.752-1.344 32.89 32.89 0 0 0-6.587-.316 1.81 1.81 0 0 1-1.917-1.7 1.81 1.81 0 0 1 1.716-1.9c9.944-.55 20.565 3.186 30.709 10.796 6.374 4.782 10.652 9.626 11.972 11.197 2.617.678 5.349 1.653 8.074 2.935-1.464-1.885-3.243-4.047-5.311-6.329a1.79 1.79 0 0 1 .138-2.546 1.83 1.83 0 0 1 2.569.137c6.565 7.244 10.245 13.19 10.469 13.555a1.79 1.79 0 0 1-.07 1.998 1.83 1.83 0 0 1-2.539.414c-4.906-3.488-10.717-6.027-16.362-7.15-3.539-.704-8.48-1.008-10.76.454-1.514.971-2.094 2.359-1.513 3.622.783 1.703 3.498 2.872 7.8 1.643 4.422-1.262 8.365-1.255 11.72.021 3.017 1.148 5.393 3.282 6.871 6.172 1.47 2.875 1.925 6.272 1.28 9.564-.581 2.969-2.028 5.615-4.12 7.581.817 1.47 1.468 3.116 1.916 4.949 1.248 5.107.227 10.73-2.953 16.263-2.353 4.094-5.052 6.706-5.166 6.815a1.82 1.82 0 0 1-1.266.508c-.475 0-.95-.184-1.307-.548a1.79 1.79 0 0 1 .041-2.549c.096-.093 9.621-9.382 7.114-19.639-1.218-4.984-4.216-8.533-8.909-10.548-3.93-1.687-8.93-2.148-13.717-1.264-5.735 1.059-9.96 3.912-9.617 6.495.088.664.336 1.127.757 1.415.535.366 1.375.462 2.246.258.053-.013.107-.022.16-.029.64-.862 1.465-1.641 2.471-2.306a1.83 1.83 0 0 1 2.523.5c.557.828.332 1.948-.505 2.5-2.264 1.496-2.535 3.284-2.363 4.521.236 1.7 1.47 3.278 2.936 3.751 1.135.366 2.227.021 3.246-1.027 4.031-4.145 9.005-5.95 12.981-4.712 2.636.821 4.397 2.847 4.832 5.559.158.983-.519 1.908-1.511 2.064a1.82 1.82 0 0 1-2.083-1.497c-.274-1.705-1.418-2.402-2.33-2.686-3.172-.988-6.976 1.415-9.27 3.774-1.45 1.49-3.203 2.272-5.005 2.272a6.46 6.46 0 0 1-1.99-.319c-1.875-.606-3.464-2.007-4.443-3.791-1.693 1.788-4.608 4.482-9.128 7.508-7.169 4.8-20.004 11.441-40.431 15.822a1.84 1.84 0 0 1-.387.041c-.838 0-1.592-.577-1.777-1.422-.213-.973.411-1.933 1.393-2.144 19.696-4.224 32.041-10.559 38.928-15.129 7.401-4.911 10.248-8.886 10.305-8.965.02-.029.042-.055.064-.083.008-.171.022-.341.042-.509-1.099-.073-2.127-.405-2.973-.983-1.28-.875-2.075-2.228-2.299-3.913-.335-2.522.951-4.991 3.622-6.953 2.236-1.643 5.409-2.906 8.936-3.558 8.039-1.484 17.335.218 22.808 6.543 3.015-3.195 3.798-8.393 1.699-12.499-1.134-2.218-4.801-7.081-14.337-4.358-6.386 1.823-10.688-.501-12.119-3.613-1.342-2.919-.197-6.191 2.848-8.144 2.142-1.374 5.672-1.891 9.879-1.497-2.029-2.065-4.875-4.718-8.352-7.319-2.563-1.917-5.684-3.956-9.214-5.695-.011-.004-.022-.006-.032-.011-4.665-1.785-9.734-1.565-14.661.636-3.109 1.389-6.045 3.517-8.562 6.169 3.676.675 9.422 2.692 12.195 8.725 2.568 5.587 2.115 11.548-1.345 17.718-10.171 18.137-45.099 34.357-70.086 37.57a1.84 1.84 0 0 1-.237.015c-.901 0-1.683-.663-1.802-1.571-.129-.986.574-1.891 1.571-2.019zm79.571-38.933a1.8 1.8 0 0 1 1.165 2.273l-.865 2.346a1.82 1.82 0 0 1-1.688 1.129 1.83 1.83 0 0 1-.68-.132c-.932-.373-1.382-1.423-1.006-2.347l.78-2.116c.312-.946 1.34-1.464 2.294-1.154zm-8.406-21.863c-.829-.558-1.047-1.676-.486-2.5a1.83 1.83 0 0 1 2.526-.486c.401.268 9.812 6.716 9 19.749-.06.956-.861 1.692-1.814 1.692a1.56 1.56 0 0 1-.114-.004 1.81 1.81 0 0 1-1.704-1.91c.68-10.913-7.068-16.31-7.408-16.541zm9.614 69.38l3.267-1.649a1.83 1.83 0 0 1 2.474.7c.488.87.172 1.968-.707 2.452l-3.499 1.766a1.82 1.82 0 0 1-2.418-.874c-.424-.903-.03-1.975.882-2.396zm9.588-5.805c6.217-4.852 8.75-9.496 8.775-9.542a1.83 1.83 0 0 1 2.455-.754c.89.463 1.232 1.553.765 2.435-.114.215-2.871 5.332-9.743 10.695a1.82 1.82 0 0 1-1.125.387c-.538 0-1.072-.236-1.431-.687a1.79 1.79 0 0 1 .304-2.532z"/><rect width="25.148" height="3.801" x="121.807" y="99.286" ry="1.9" fill="#f60"/><rect width="6.252" height="3.424" x="140.317" y="61.359" ry="1.712" transform="matrix(.986775 .162098 -.135365 .990796 0 0)"/></svg>