<svg xmlns="http://www.w3.org/2000/svg" xmlns:xlink="http://www.w3.org/1999/xlink" width="750.682" height="835.99" viewBox="0 0 198.618 221.189" xmlns:v="https://vecta.io/nano"><path d="M-140.872 52.149c-12.506 0-23.757 5.675-31.569 14.72-6.922 8.015-11.019 18.878-11.019 30.58.103 29.036 35.712 77.51 70 79 35.155-2.038 69.424-54.759 70-79 0-12.307-2.862-23.623-10.432-31.76-7.75-8.331-18.54-13.497-30.473-13.497-10.822 0-21.569 4.252-29.095 11.258-7.533-7.031-16.568-11.3-27.412-11.3z" fill="red" fill-rule="evenodd"/><path d="M96.802 189.504c.867.906 2.047 1.41 3.283 1.41s2.416-.503 3.283-1.41l58.988-61.168c24.6-25.503 7.12-69.563-27.865-69.563-21.009 0-30.65 15.8-34.407 18.751-3.775-2.964-13.354-18.751-34.407-18.751-34.874 0-52.569 43.946-27.859 69.563z" fill="#f44336"/><g fill="#0f0"><path d="M-53.022-13.353v25h-25v10h25v25h10v-25h25v-10h-25v-25zm311.507-16.519h10v60h-10z"/><path d="M233.485-4.872h60v10h-60z"/></g><g fill="green"><path d="M253.545 41.888h12v62h-12z"/><path d="M228.545 66.888h62v12h-62zM20.597 29.521v19.97H.627v9.586h19.97v19.97h9.586v-19.97h19.97v-9.586h-19.97v-19.97z"/></g><path d="M21.396 30.32v19.97H1.426v7.988h19.97v19.97h7.988v-19.97h19.97V50.29h-19.97V30.32z" fill="#0f0"/><use xlink:href="#B" fill="green"/><use xlink:href="#C" fill="#0f0"/><path d="M88.347 7.483v19.97h-19.97v9.586h19.97v19.97h9.586v-19.97h19.97v-9.586h-19.97V7.483z" fill="green"/><path d="M89.146 8.282v19.97h-19.97v7.988h19.97v19.97h7.988V36.24h19.97v-7.988h-19.97V8.282z" fill="#0f0"/><use xlink:href="#B" x="-5.234" y="123.711" fill="green"/><use xlink:href="#C" x="-5.234" y="123.711" fill="#0f0"/><use xlink:href="#B" x="-124.261" y="128.713" fill="green"/><use xlink:href="#C" x="-124.261" y="128.714" fill="#0f0"/><defs ><path id="B" d="M161.311 16.036v19.97h-19.97v9.586h19.97v19.97h9.586v-19.97h19.97v-9.586h-19.97v-19.97z"/><path id="C" d="M162.11 16.834v19.97h-19.97v7.988h19.97v19.97h7.988v-19.97h19.97v-7.988h-19.97v-19.97z"/></defs></svg>