<svg xmlns="http://www.w3.org/2000/svg" width="682.667" height="682.667" viewBox="0 0 512 512" xmlns:v="https://vecta.io/nano"><path fill="#83817f" d="M291.53 185.86c4.83-3.44 11.6-1.4 14.64 3.42-1.18.57-2.35 1.84-3.77 1.19-3.74-1.25-7.25-3.09-10.87-4.61z"/><path fill="#494a49" d="M278.77 194.14c1.88-5.52 8.24-6.05 12.76-8.28 3.62 1.52 7.13 3.36 10.87 4.61 1.42.65 2.59-.62 3.77-1.19 2.98 4.44 6.17 8.78 9.96 12.58 1.58 1.36 1.44 3.57 1.91 5.42-2.2 1.34-3.96 3.24-4.05 5.95-1.6-.73-3.97-.72-4.71-2.6-.19-1.98 0-3.98-.02-5.97-1.35-3.46-4.83-5.19-7.61-7.33-4.31-3.29-9.44-5.38-14.7-6.6-3.2-.78-5.81 1.67-8.18 3.41z"/><path fill="#656769" d="M278.77 194.14c2.37-1.74 4.98-4.19 8.18-3.41 5.26 1.22 10.39 3.31 14.7 6.6 2.78 2.14 6.26 3.87 7.61 7.33l-1.94.44c-6-2.34-10.24-7.57-16.1-10.12l-1.6 3.03 4.35 1.99-3.02-.1c-4.41-.06-8.16-2.68-12.22-4.06l.04-1.7z"/><path fill="#8c8d90" d="M291.22 194.98c5.86 2.55 10.1 7.78 16.1 10.12.35 1.74.48 3.52.23 5.28-3.58-4.53-8.63-7.57-13.58-10.38-1.44-.69-2.9-1.34-4.35-1.99l1.6-3.03z"/><path fill="#2f2b27" d="M278.73 195.84c4.06 1.38 7.81 4 12.22 4.06l-1.24 2.33c2.94 3.13 6.34 5.79 9.89 8.18 2.05 1.53 4.74 1.16 7.04 2.01 2.22 1.59 2.95 4.38 3.95 6.77l-1.74 1.35-2.3-.64.08-2.61c-1.89-.76-3.78-1.49-5.63-2.32-5.41-3.57-10.04-8.3-15.93-11.12-1.75-1.29-2.1-3.49-2.7-5.43l-3.54-.87-.1-1.71z"/><path fill="#5d5a55" d="M271.65 209.99c-.3-5.3 3.61-9.14 7.18-12.44l3.54.87c.6 1.94.95 4.14 2.7 5.43-2.04.62-4.08 1.21-6.07 1.93-2.61 1.11-5.02 2.62-7.35 4.21z"/><path fill="#615a52" d="M290.95 199.9l3.02.1c4.95 2.81 10 5.85 13.58 10.38.25-1.76.12-3.54-.23-5.28l1.94-.44c.02 1.99-.17 3.99.02 5.97.74 1.88 3.11 1.87 4.71 2.6-.22 2.42-1.35 4.6-3.4 5.96-1-2.39-1.73-5.18-3.95-6.77-2.3-.85-4.99-.48-7.04-2.01-3.55-2.39-6.95-5.05-9.89-8.18l1.24-2.33z"/><path fill="#6e7066" d="M279 205.78l6.07-1.93c5.89 2.82 10.52 7.55 15.93 11.12 3.07 2.95 1.46 7.13 1.41 10.82-.06 2.71-.17 5.43-.6 8.11-2.16-1.11-4.07-2.6-5.78-4.31 3.7-2.87 5.38-8.97 2.19-12.78-3.08-1.75-6.84-1.81-9.89-3.68l.98-3.61c-3.66-.71-6.56-3.49-10.31-3.74z"/><path fill="#8d8e85" d="M271.65 209.99c2.33-1.59 4.74-3.1 7.35-4.21 3.75.25 6.65 3.03 10.31 3.74l-.98 3.61c3.05 1.87 6.81 1.93 9.89 3.68 3.19 3.81 1.51 9.91-2.19 12.78-3.87-3.94-8.74-6.72-13.95-8.47 5.02 5.02 10.83 9.15 16.5 13.39l-.15 2.71c-4.03-.49-6.38-4.14-9.85-5.8-4.28-2.11-8.19-5-12.79-6.4-5.44-1.63-10.8-3.56-16.41-4.52l-.08-2.29c3.22-1.28 6.61-.03 9.88.34 4.02.48 7.86 1.91 11.88 2.41-3.16-2.07-6.6-3.69-9.55-6.07l-3.29.8c1.14-1.9 2.23-3.83 3.43-5.7z"/><path fill="#d3a082" d="M313.99 213.23c.09-2.71 1.85-4.61 4.05-5.95l1.81 2.7 1.34 1.96 18.9 28.13 1.18 3.9c-2.93 3.4-8.04 4.9-11.51 1.37-4.45-4.59-9.15-8.92-13.91-13.17l-3.59-3.34c-2.06-1.94-3.98-4.01-5.83-6.14l.12-2.79 2.3.64 1.74-1.35c2.05-1.36 3.18-3.54 3.4-5.96z"/><path fill="#626462" d="M252.29 211.5c6.35-2.24 13.26 1.89 19.36-1.51-1.2 1.87-2.29 3.8-3.43 5.7l3.29-.8c2.95 2.38 6.39 4 9.55 6.07-4.02-.5-7.86-1.93-11.88-2.41-3.27-.37-6.66-1.62-9.88-.34l.08 2.29c5.61.96 10.97 2.89 16.41 4.52 4.6 1.4 8.51 4.29 12.79 6.4 3.47 1.66 5.82 5.31 9.85 5.8l.15-2.71c3.62 2.07 4.91 6.18 6.67 9.69l-1.29 1.85-4.93-3.02c-3.57-4.53-8.08-8.3-13.33-10.72l-.26 5.51c-4.64 2.01-9.8 1.8-14.61 3.12-1.64.43-2.19 2.24-3.11 3.46 3.1-.33 6.21-.59 9.34-.71 3.89.31 7.03-3.13 11-1.9-3.19 1.78-6.08 4.02-8.69 6.56l-2.1-.58c-3.86-1.05-7.88-.95-11.83-.7l-1.03.05-2.52-4.58c1.8-1.38 3.66-2.67 5.46-4.05-3.4-.58-6.75.67-9.67 2.3-3.03 1.86-5.31 4.82-8.72 6.06 3.23-5.22 8.84-8.27 14.52-10.14l.11-2.23c-2.16.06-4.35-.29-5.97-1.85 6.94-1.38 13.26 2.57 19.13 5.67 1.19 1.12 3.85-.17 2.73-1.82-1.97-1.53-4.23-2.62-6.24-4.08-1.63-1.06-3.22-2.66-5.32-2.38-5.08.45-10.19.65-15.27.07l-.09-2.95c2.71-.19 5.41-.43 8.11-.7-.09-1.19.55-2.67-.4-3.63-1.72-1.28-3.92-1.58-5.93-2.13a14.57 14.57 0 0 1-3.37-5.52c-6.1-.83-12.23-1.49-18.24-2.81 6.5.03 13.29 1.5 19.56-.85z"/><path fill="#664c3a" opacity=".67" d="M319.85 209.98l1.34 1.96-1.34-1.96z"/><path fill="#81837a" d="M222.07 213.89c3.67-.33 6.93-3.28 10.66-1.54 6.01 1.32 12.14 1.98 18.24 2.81a14.57 14.57 0 0 0 3.37 5.52c-4.7 2.18-10.74 3.47-13.19 8.56.35 1.6 1.16 3.05 1.85 4.52-.6 1.57-1.32 3.11-1.72 4.76 1.12 1.42 2.32 2.82 2.69 4.66-1.68.01-3.3-.43-4.92-.8-1.51 2.28-1.99 5.14-3.28 7.56l-1.52-2.91c-.96 4.99-1.36 10.08-2.51 15.04-.3-.57-.92-1.69-1.23-2.25l3.29-19.65-4.99-1.54c-2.16.65-4.1 1.82-5.97 3.05-1.27-1.74-2.26-3.68-2.55-5.83-.62-4.02-2.31-8.06-1.35-12.16.64-3.38 1.81-6.63 3.13-9.8m6.02 1.33c-.29 6.02-2.07 11.86-2.08 17.89 3.18.57 3.69-2.71 4.02-5.02l2.35 2.92-.31.87a40.37 40.37 0 0 0 4.5.8c1.32-2.03 2.55-4.13 4.06-6.02 1.74-2.15 4.49-3.35 5.69-5.94.09-.96.2-1.92.32-2.87l-3.83 1.05.12-.8-1.47-.05c.39-.73.79-1.46 1.22-2.17-1.52-.53-3.1-.02-4.64.13-3.34.58-6.67-.29-9.95-.79z"/><path fill="#5f605e" d="M160.94 215.23c2.08-.65 4.29-1.61 6.42-.55 5.26 2.26 11.35.74 16.44 3.51 2.31 1.5 5.02.45 7.52.11-2.71 1.06-5.76 1.33-8.28 2.75-.91 2.17-1 4.56-1.29 6.87-.36 3.11.27 6.21 1.02 9.22-2.1.62-4.19 1.34-6.37 1.53-1.19-1.02-2-2.39-2.93-3.62-1.95 1.5-2.82 3.74-1.71 6.05-1.57-.02-3.14-.09-4.7-.22l1.55-1.07-4.96-4.74c-4.4-.06-8.83.52-13.21-.05l-.31-.85c4.79-.69 9.66-.03 14.43-.91.91-1.65.92-3.54 1-5.36 2.03 2.35 2.63 6.31 6.15 6.87.82-.97 1.67-1.9 2.38-2.95.04-3.06-2.23-6.01-.81-9.03-2.68 1.16-5.25 2.65-8.07 3.43-1.23-.52-2.35-1.26-3.51-1.88 3.09-2.16 6.52-3.75 10.16-4.72l-1.5 2.73c2.75-.28 5.14-1.55 6.63-3.92-4.36-1.01-8.86-1.21-13.2-2.31l-2.85-.89z"/><path fill="#5f615f" d="M197.82 216.76c7.6-3.56 16.16-2.2 24.25-2.87-1.32 3.17-2.49 6.42-3.13 9.8-.96 4.1.73 8.14 1.35 12.16.29 2.15 1.28 4.09 2.55 5.83 1.87-1.23 3.81-2.4 5.97-3.05-2.08 6.03-.46 13-3.95 18.51-.18-4.26.27-8.51.34-12.77-3.7-1.66-6.46-4.63-9.64-7.02-2.54-.61-5.29.93-7.73-.26l-5.62-2.45c-.99 1.93-1.87 3.99-3.47 5.51-.64-4.14.01-8.31-.08-12.47-.01-3.65-.46-7.29-.84-10.92z"/><path fill="#62615c" d="M148.16 215.18c4.25.23 8.55.72 12.78.05.95.27 1.89.59 2.85.89-.77 1.65.21 3.22.84 4.72-2.49-.48-4.97-1.11-7.51-1.36-2.82-.25-5.52.86-8.31.97-1.24-.59-1.4-2.3-2.11-3.38l1.46-1.89z"/><path fill="#6c6b67" d="M228.09 215.22c3.28.5 6.61 1.37 9.95.79 1.54-.15 3.12-.66 4.64-.13l-1.22 2.17-.27.75 1.62.1 3.83-1.05-.32 2.87c-2.03-.39-4.62-1.86-6.1.38-2.77 3.15-6.6 5.72-7.84 9.91-.77-.99-1.56-1.96-2.35-2.92-.33 2.31-.84 5.59-4.02 5.02.01-6.03 1.79-11.87 2.08-17.89z"/><path fill="#575750" d="M301 214.97l5.63 2.32-.08 2.61-.12 2.79 5.83 6.14c-2.24-1.41-4.58-2.65-6.96-3.79-1.14 4.26.89 8.32 2.74 12.04 1.57 3.19 4.85 5 7.92 6.5-2.02.4-4.3.17-6.08 1.35-1.58 1.03-1 3.17-1.39 4.75l-.44.18c-1.31-1.33-2.63-2.65-4.09-3.81l1.29-1.85c-1.76-3.51-3.05-7.62-6.67-9.69-5.67-4.24-11.48-8.37-16.5-13.39 5.21 1.75 10.08 4.53 13.95 8.47 1.71 1.71 3.62 3.2 5.78 4.31.43-2.68.54-5.4.6-8.11.05-3.69 1.66-7.87-1.41-10.82z"/><path fill="#3d3f3f" d="M138.95 225.05c1.33-3.8 5.6-4.86 7.75-7.98.71 1.08.87 2.79 2.11 3.38 2.79-.11 5.49-1.22 8.31-.97 2.54.25 5.02.88 7.51 1.36-.63-1.5-1.61-3.07-.84-4.72 4.34 1.1 8.84 1.3 13.2 2.31-1.49 2.37-3.88 3.64-6.63 3.92l1.5-2.73c-3.64.97-7.07 2.56-10.16 4.72-3.81-.56-7.64.02-11.33.98-2.24.68-4.41-.58-6.65-.65-1.59.1-3.18.25-4.77.38z"/><path fill="#8b8d85" d="M191.32 218.3l6.5-1.54c.38 3.63.83 7.27.84 10.92-2.75 3.12-1.86 7.43-2.66 11.2-1.27-.88-2.79-1.52-3.72-2.78-.84-1.67-1.12-3.58-2.08-5.18-1.33-.74-2.75-1.28-4.07-2.02-.66-1.14-.91-2.44-1.28-3.68l-3.1 2.7c.29-2.31.38-4.7 1.29-6.87 2.52-1.42 5.57-1.69 8.28-2.75z"/><path fill="#fcfafa" d="M241.46 218.05l1.47.05-.12.8-1.62-.1.27-.75z"/><path fill="#484b49" d="M240.22 221.1c1.48-2.24 4.07-.77 6.1-.38-1.2 2.59-3.95 3.79-5.69 5.94-1.51 1.89-2.74 3.99-4.06 6.02a40.37 40.37 0 0 1-4.5-.8l.31-.87c1.24-4.19 5.07-6.76 7.84-9.91z"/><path fill="#595957" d="M241.15 229.24c2.45-5.09 8.49-6.38 13.19-8.56 2.01.55 4.21.85 5.93 2.13.95.96.31 2.44.4 3.63l-8.11.7.09 2.95-2.41 2.78 1.9-.04-1.44 1.72-4.89-1.14c-.62 2.15.66 3.98 1.8 5.68-1.12 4.52-2.75 8.89-4.27 13.28-1.37 4.13-4.09 7.58-6.06 11.41 2.76 3.67 2.45 9.69 7.38 11.38l-1.11-5.63c2.23 2.17 4.32 4.48 6.58 6.63 1.15-3.5-2.63-6.36-1.54-9.87.72-3.19-.37-6.34-.95-9.45l-1.71 3.15c1.54-4.29-.25-9.56 3.03-13.14.25 2.8-.38 5.57-.55 8.36 3.58-5.14 8.77-8.68 13.48-12.67l2.52 4.58c-3.27.32-7.29 1.05-8.78 4.41-3.92 6.56-4.72 14.99-.98 21.81 2.6 6.63 11.11 5.97 16.84 4.81 2.6-.29 5.19-.62 7.77-1.03 2.89 2.02 5.11 4.84 5.65 8.4l-5.12.54 3.54 2.27-1.12 4.41c3.65.52 7.34.57 11.03.62-2.72 1.13-5.75.66-8.55 1.4-1.87.65-2.75 2.52-3.78 4.05 3.4 1.01 6.61 2.63 8.96 5.36-1.92 1.1-4 1.91-6.13 2.5l-4.4 1.02c.8 3.01 3.93 4.33 6.02 6.32-.73 1.65-1.42 3.33-2 5.04l-1.75-.44c-1.14-1.95-2.3-3.89-3.83-5.55l-3.93-3.56.33-3.63c-1.09-.36-2.18-.7-3.28-1.01 2.04-.54 4.02-1.46 5.07-3.39-4.07-.23-8.3.24-12.16-1.34-3.47-1.41-7.15-2.1-10.7-3.23-5.83-1.97-9.4-7.37-14.54-10.45-3.47-2.08-6.86-4.28-10.24-6.49l.51 4.12-2.21-.9c-3.03-5.22-6.09-11.88-2.56-17.64l3.41 2.71c.19 2.61.03 6.26 3.41 6.76-.04-3.43-1.29-6.65-1.83-10 .27-1.78.95-3.46 1.45-5.19l1.23 2.25c1.15-4.96 1.55-10.05 2.51-15.04l1.52 2.91c1.29-2.42 1.77-5.28 3.28-7.56 1.62.37 3.24.81 4.92.8-.37-1.84-1.57-3.24-2.69-4.66.4-1.65 1.12-3.19 1.72-4.76-.69-1.47-1.5-2.92-1.85-4.52m-6.72 25.25c-.69 1.71-.28 3.62-.31 5.41h2.66l2.96-9.87c-1.84 1.4-3.71 2.79-5.31 4.46m-.6 17.67c2.17 2.54 4.12 5.24 5.91 8.06 4.13 4.8 10.3 7.03 16.45 7.76-.08-.44-.26-1.32-.35-1.76 1.27 1.7 1.73 4.33 4.12 4.85 4.13 1.24 8.46 1.7 12.75 2.06l-1.44-2.77 2.71-1.05c-1.91-.6-4.87.5-6.06-1.31 3.07-.41 6.18-.38 9.27-.11l-1.83 1.64 2.42.95-2.51 2.39 5.19-.01c-.29-1.66.09-3.74-1.41-4.91-2.41-2.87-6.44-2.87-9.58-4.52-.59 1.19-.39 3.81-2.36 3.45-3.03-.38-7.82.43-8.38-3.72l4.07-1.74c-2.86-1.78-6.85-.34-9.33-2.97-1.6-1.79-4.52-1.78-5.62.53 2.03 2.42 4.8 3.98 7.06 6.15-3.32-.98-6.67-2.37-8.95-5.1-3.74-4.74-8.19-8.83-12.23-13.3-.99 1.61-1.34 3.95.1 5.43z"/><path fill="#6a6d70" d="M165.21 226.22c2.82-.78 5.39-2.27 8.07-3.43-1.42 3.02.85 5.97.81 9.03-.71 1.05-1.56 1.98-2.38 2.95-3.52-.56-4.12-4.52-6.15-6.87-.08 1.82-.09 3.71-1 5.36-.37-1.58-.29-3.32-1.09-4.76-4.88-.19-9.55 1.66-14.37 2.14.33 1.18.65 2.36 1.03 3.53l.31.85-1.83-.38c-1.16-.35-2.31-.76-3.49-1.05.7-1.45-.15-2.97-1.15-4l-.25-4.92c2.24.07 4.41 1.33 6.65.65 3.69-.96 7.52-1.54 11.33-.98 1.16.62 2.28 1.36 3.51 1.88z"/><path fill="#50555b" d="M138.95 225.05l4.77-.38.25 4.92c-1.86 1.32-1.41 4.23 1.15 4 1.18.29 2.33.7 3.49 1.05-.94 1.23-1.03 2.81-1.3 4.27-2.4-.96-4.91-1.6-7.49-1.7-.92-3.98-1.86-8.09-.87-12.16z"/><path fill="#7d7e77" d="M181.75 227.92l3.1-2.7c.37 1.24.62 2.54 1.28 3.68l4.07 2.02c.96 1.6 1.24 3.51 2.08 5.18.93 1.26 2.45 1.9 3.72 2.78.8-3.77-.09-8.08 2.66-11.2.09 4.16-.56 8.33.08 12.47l-4.11.12c-2.79-.6-5.63-.81-8.45-1.1-1.15-.66-2.28-1.35-3.41-2.03-.75-3.01-1.38-6.11-1.02-9.22z"/><path fill="#010000" opacity=".76" d="M305.3 225.04c2.38 1.14 4.72 2.38 6.96 3.79l3.59 3.34-4.63-2.2c3.07 3.83 5.84 7.88 8.34 12.11-1.18.54-2.28 1.35-3.6 1.5-3.07-1.5-6.35-3.31-7.92-6.5-1.85-3.72-3.88-7.78-2.74-12.04z"/><path fill="#8d8d91" d="M149.1 230.64c4.82-.48 9.49-2.33 14.37-2.14.8 1.44.72 3.18 1.09 4.76-4.77.88-9.64.22-14.43.91-.38-1.17-.7-2.35-1.03-3.53z"/><path fill="#9b968d" d="M252.65 230.09c5.08.58 10.19.38 15.27-.07 2.1-.28 3.69 1.32 5.32 2.38 2.01 1.46 4.27 2.55 6.24 4.08 1.12 1.65-1.54 2.94-2.73 1.82-5.87-3.1-12.19-7.05-19.13-5.67-1.83.11-3.66.14-5.48.2l-1.9.04 2.41-2.78z"/><path fill="#9a999c" d="M145.12 233.59c-2.56.23-3.01-2.68-1.15-4 1 1.03 1.85 2.55 1.15 4z"/><path fill="#414240" d="M252.14 232.83l5.48-.2c1.62 1.56 3.81 1.91 5.97 1.85l-.11 2.23c-5.68 1.87-11.29 4.92-14.52 10.14-3.28 3.58-1.49 8.85-3.03 13.14l-.94 1.88c-.81-1.35-1.66-2.68-2.58-3.95-.04 3.9.39 7.78 1.14 11.61l1.11 5.63c-4.93-1.69-4.62-7.71-7.38-11.38 1.97-3.83 4.69-7.28 6.06-11.41 1.52-4.39 3.15-8.76 4.27-13.28-1.14-1.7-2.42-3.53-1.8-5.68l4.89 1.14 1.44-1.72z"/><path fill="#545654" d="M285.7 232.31c5.25 2.42 9.76 6.19 13.33 10.72-3.64-.55-7.32-.83-10.97-1.24-3.97-1.23-7.11 2.21-11 1.9-3.13.12-6.24.38-9.34.71.92-1.22 1.47-3.03 3.11-3.46 4.81-1.32 9.97-1.11 14.61-3.12l.26-5.51z"/><path fill="#40403e" d="M147.31 238.91c.27-1.46.36-3.04 1.3-4.27l1.83.38c4.38.57 8.81-.01 13.21.05l4.96 4.74-1.55 1.07c-5.12-.81-10.32-.71-15.46-.07-3.63-.2-7.29.03-10.91-.42l-.87-3.18c2.58.1 5.09.74 7.49 1.7z"/><path fill="#4a4947" d="M171.76 241.1c-1.11-2.31-.24-4.55 1.71-6.05.93 1.23 1.74 2.6 2.93 3.62 2.18-.19 4.27-.91 6.37-1.53l3.41 2.03c-4.7 1.34-9.55 1.91-14.42 1.93z"/><path fill="#474847" d="M198.74 240.15c1.6-1.52 2.48-3.58 3.47-5.51l5.62 2.45c2.44 1.19 5.19-.35 7.73.26 3.18 2.39 5.94 5.36 9.64 7.02-10.05.4-20.04-1.52-29.78-3.8l-.79-.3 4.11-.12z"/><path fill="#7c7d7c" d="M257.68 240.79c2.92-1.63 6.27-2.88 9.67-2.3l-5.46 4.05c-4.71 3.99-9.9 7.53-13.48 12.67.17-2.79.8-5.56.55-8.36 3.41-1.24 5.69-4.2 8.72-6.06z"/><path fill="#020201" opacity=".75" d="M171.76 241.1c4.87-.02 9.72-.59 14.42-1.93 2.82.29 5.66.5 8.45 1.1l.79.3c-3.45.3-6.73 1.76-10.2 1.78-6.71-.79-13.48-.61-20.22-.69-4.47-.16-9.19 1.21-13.4-.85 5.14-.64 10.34-.74 15.46.07 1.56.13 3.13.2 4.7.22z"/><path fill="#424441" d="M228.81 238.63l4.99 1.54-3.29 19.65c-.5 1.73-1.18 3.41-1.45 5.19.54 3.35 1.79 6.57 1.83 10-3.38-.5-3.22-4.15-3.41-6.76l-3.41-2.71c.21-2.1.21-4.21.25-6.31l.54-2.09c3.49-5.51 1.87-12.48 3.95-18.51z"/><path fill="#5f5f5d" d="M340.09 240.07c3.18 4.2 8.52 5.99 11.53 10.32 2.93 3.84 4.56 8.45 6.28 12.92 1.02 2.54-.39 5.85-3.13 6.55-3.29.8-3.74 4.54-5.17 7.07-3.93-1.42-8.45-3.33-10.12-7.48.74-1.47 1.66-2.9 2.07-4.51-.54-4.12-3.59-7.3-6.55-9.96l-1.32-1.26.35-.74c1.14-1.44-.68-3.35-2.24-2.95a34.76 34.76 0 0 0-2.03-4.69c3.47 3.53 8.58 2.03 11.51-1.37l-1.18-3.9z"/><path fill="#83827c" d="M288.06 241.79c3.65.41 7.33.69 10.97 1.24 1.62 1.04 3.29 2 4.93 3.02 1.46 1.16 2.78 2.48 4.09 3.81-1.89.62-3.8 1.13-5.72 1.66-.17 5.88 1.09 11.92-.75 17.65-.69-5.04-.46-10.14-.84-15.2l-1.03 1.34c-1.39-3.23-2.13-7.72-6.15-8.67-2.5-.68-5.87-2.52-7.98-.17-1.21 1.1-2.31 2.35-3.65 3.3-.87-.46-1.72-.93-2.56-1.42 2.61-2.54 5.5-4.78 8.69-6.56z"/><path fill="#64656f" d="M319.56 242.08l2.38 1.01c.83 3.49 1.81 6.95 2.51 10.47-5.04-1.44-6.2-7.76-11.27-9.04.28 4.43 2.98 8.01 5.44 11.5-1.32 2.22-3.8 3.33-5.34 5.29-.15 1.7-.1 3.45.37 5.1 1.82 2.03 4.35.67 6.42-.08l2.75-.52 2.15.33c-.05 2.42.78 5.13-.66 7.29-2.23 2.7-.36 6.55-2.81 9.2-2.79-.55-5.63-.41-8.45-.4-2.33-.28-3.81-2.31-4.94-4.16-1.53-2.62-4.41-3.85-6.83-5.45l.3-3.45c1.84-5.73.58-11.77.75-17.65 1.92-.53 3.83-1.04 5.72-1.66l.44-.18c.39-1.58-.19-3.72 1.39-4.75 1.78-1.18 4.06-.95 6.08-1.35 1.32-.15 2.42-.96 3.6-1.5m-11.32 33.16c.57.57.57.57 0 0m11.18 1.83c-.92 1.33 1.34 2.76 2.29 1.57.98-1.33-1.37-2.85-2.29-1.57z"/><path fill="#4c533b" d="M321.94 243.09c1.22 1.09 2.26 2.37 3.33 3.6l-.67 3.89c1.72 1.73 3.96 3.59 3.5 6.33-.1 3.41-4.63 3.6-6.12 6.11.23.94.51 1.87.84 2.79l-2.75.52c-.63-2.44-.7-4.99-.04-7.43l.17-.79c1.26 1.12 2.74 2 4.47 2.07l-.1-3.49-.01-.38-.11-2.75c-.7-3.52-1.68-6.98-2.51-10.47z"/><path fill="#98968f" d="M285.58 246.47c2.11-2.35 5.48-.51 7.98.17 4.02.95 4.76 5.44 6.15 8.67-.19 2.26-.51 4.51-1.03 6.72-4.73-2.51-10.09-1.06-15.05-2.39-.07-.02-.22-.04-.29-.05-2.84-.36-5.85-.2-8.31 1.41l.93 4.13c6.1.13 12.19-.46 18.29-.02-2.26 1.82-5.26 1.46-7.97 1.61-.49 1.39-.46 3.15-1.55 4.21-3.59 1.7-7.71 1.02-11.53.88-4.7-.18-9.49-1.05-13.58-3.47-1.9-3.36-1.89-7.78-.62-11.39 1.01-2.77 4.54-1.41 6.77-1.64l.59-4.99c3.56-1.16 7.23-1.9 10.91-2.55l2.1.58c.84.49 1.69.96 2.56 1.42 1.34-.95 2.44-2.2 3.65-3.3z"/><path fill="#6c7186" d="M313.18 244.52c5.07 1.28 6.23 7.6 11.27 9.04l.11 2.75a4.82 4.82 0 0 1 .01.38l.1 3.49c-1.73-.07-3.21-.95-4.47-2.07-.57-1.43-3.28-.71-1.82.73l1.65.06c-.66 2.44-.59 4.99.04 7.43-2.07.75-4.6 2.11-6.42.08-.47-1.65-.52-3.4-.37-5.1 1.54-1.96 4.02-3.07 5.34-5.29-2.46-3.49-5.16-7.07-5.44-11.5m.82 16.47a13.05 13.05 0 0 0-.14 4.14c2.91.94 2.98-5.45.14-4.14z"/><path fill="#73726c" d="M255.63 251.53c1.49-3.36 5.51-4.09 8.78-4.41l1.03-.05c-1.69 1.21-3.75 1.73-5.49 2.83-2.42 2.24-4.66 5.28-4.4 8.75.11 3.32.26 6.67 1.01 9.91 1.07 2.92 3.46 5.28 6.11 6.82 2.88 1.13 6.21.89 8.82 2.77-5.73 1.16-14.24 1.82-16.84-4.81-3.74-6.82-2.94-15.25.98-21.81z"/><path fill="#88857e" d="M265.44 247.07c3.95-.25 7.97-.35 11.83.7-3.68.65-7.35 1.39-10.91 2.55l-.59 4.99c-2.23.23-5.76-1.13-6.77 1.64-1.27 3.61-1.28 8.03.62 11.39 4.09 2.42 8.88 3.29 13.58 3.47 3.82.14 7.94.82 11.53-.88 1.09-1.06 1.06-2.82 1.55-4.21 2.71-.15 5.71.21 7.97-1.61l.81-.82c1.54.46 3.11.84 4.69 1.2-.33 2.17-.77 4.33-.81 6.53.15 1.85 2 3.43 1.43 5.31-4.1.87-8.28 1.34-12.44 1.81-3.15.7-5.58-2.12-8.67-2.02-2.58.41-5.17.74-7.77 1.03-2.61-1.88-5.94-1.64-8.82-2.77-2.65-1.54-5.04-3.9-6.11-6.82-.75-3.24-.9-6.59-1.01-9.91-.26-3.47 1.98-6.51 4.4-8.75 1.74-1.1 3.8-1.62 5.49-2.83z"/><path opacity=".76" d="M325.27 246.69c2.71 2.72 5.55 5.35 7.69 8.57.8 3.03 2.97 6.2 1.9 9.37-2.08 2.19-4.74 3.84-6.38 6.45-.79-1.9-1.38-4.14-3.51-4.94l-2.15-.33c-.33-.92-.61-1.85-.84-2.79 1.49-2.51 6.02-2.7 6.12-6.11.46-2.74-1.78-4.6-3.5-6.33l.67-3.89z"/><path fill="#77746e" d="M234.43 254.49c1.6-1.67 3.47-3.06 5.31-4.46-1.05 3.27-2.02 6.57-2.96 9.87h-2.66c.03-1.79-.38-3.7.31-5.41z"/><path fill="#242526" opacity=".87" d="M331.79 250.03c1.56-.4 3.38 1.51 2.24 2.95-1.58.05-2.11-1.69-2.24-2.95z"/><path fill="#73716a" d="M299.71 255.31l1.03-1.34c.38 5.06.15 10.16.84 15.2l-.3 3.45c2.42 1.6 5.3 2.83 6.83 5.45-2.04 2.37-4.48 4.35-7.16 5.94-3.68.64-7.41.86-11.11 1.3l4.19 3.88-.79 4.17c-3.69-.05-7.38-.1-11.03-.62l1.12-4.41-3.54-2.27 5.12-.54c-.54-3.56-2.76-6.38-5.65-8.4 3.09-.1 5.52 2.72 8.67 2.02 4.16-.47 8.34-.94 12.44-1.81.57-1.88-1.28-3.46-1.43-5.31.04-2.2.48-4.36.81-6.53-1.58-.36-3.15-.74-4.69-1.2l.41-.41.26-.2c.97-.58 1.95-1.13 2.95-1.65.52-2.21.84-4.46 1.03-6.72m-16.49 35.9c.55.55.55.55 0 0z"/><path fill="#323232" d="M335 254.98c2.96 2.66 6.01 5.84 6.55 9.96-.41 1.61-1.33 3.04-2.07 4.51-2.06-4.66-1.49-10.12-4.48-14.47z"/><path d="M324.57 256.69l-.01-.38.01.38zm-41.23 2.9l.29.05-.29-.05zm-3.07 3.6c.54.55.54.55 0 0zm3.95.02c.55.54.55.54 0 0zm24.02 12.03c.57.57.57.57 0 0z" fill="#fff"/><path fill="#797b7a" d="M245.93 259.99l1.71-3.15c.58 3.11 1.67 6.26.95 9.45-1.09 3.51 2.69 6.37 1.54 9.87l-6.58-6.63c-.75-3.83-1.18-7.71-1.14-11.61.92 1.27 1.77 2.6 2.58 3.95l.94-1.88z"/><path fill="#bdc0c8" d="M318.38 258.84c-1.46-1.44 1.25-2.16 1.82-.73l-.17.79-1.65-.06z"/><path fill="#7b8191" d="M275.03 261c2.46-1.61 5.47-1.77 8.31-1.41l.29.05c4.96 1.33 10.32-.12 15.05 2.39-1 .52-1.98 1.07-2.95 1.65a5.88 5.88 0 0 1-.26.2l-.41.41-.81.82c-6.1-.44-12.19.15-18.29.02l-.93-4.13m5.24 2.19c.54.55.54.55 0 0m3.95.02c.55.54.55.54 0 0m8.03.04c.55.54.55.54 0 0z"/><path fill="#e4e3e6" d="M314 260.99c2.84-1.31 2.77 5.08-.14 4.14a13.05 13.05 0 0 1 .14-4.14z"/><path fill="#fcfdff" d="M292.25 263.25c.55.54.55.54 0 0z"/><path fill="#f1f2f5" d="M295.47 263.88l.26-.2-.26.2z"/><path fill="#495335" d="M324.97 266.14c2.13.8 2.72 3.04 3.51 4.94l-3.96 5.19c-.06 2.38.9 5.32-1.11 7.16-1.32 1.75-3.63 1.09-5.48 1.11l3.57-1.91c2.45-2.65.58-6.5 2.81-9.2 1.44-2.16.61-4.87.66-7.29z"/><path fill="#78756f" d="M233.83 272.16c-1.44-1.48-1.09-3.82-.1-5.43 4.04 4.47 8.49 8.56 12.23 13.3 2.28 2.73 5.63 4.12 8.95 5.1l.93 1.09.35 1.76c-6.15-.73-12.32-2.96-16.45-7.76-1.79-2.82-3.74-5.52-5.91-8.06z"/><path fill="#3c3f42" d="M247.85 278.98c1.1-2.31 4.02-2.32 5.62-.53 2.48 2.63 6.47 1.19 9.33 2.97l-4.07 1.74c.56 4.15 5.35 3.34 8.38 3.72 1.97.36 1.77-2.26 2.36-3.45 3.14 1.65 7.17 1.65 9.58 4.52 1.5 1.17 1.12 3.25 1.41 4.91-1.73-.01-3.46 0-5.19.01l2.51-2.39-2.42-.95 1.83-1.64c-3.09-.27-6.2-.3-9.27.11 1.19 1.81 4.15.71 6.06 1.31l-2.71 1.05 1.44 2.77c-4.29-.36-8.62-.82-12.75-2.06-2.39-.52-2.85-3.15-4.12-4.85l-.93-1.09c-2.26-2.17-5.03-3.73-7.06-6.15z"/><path d="M319.42 277.07c.92-1.28 3.27.24 2.29 1.57-.95 1.19-3.21-.24-2.29-1.57zm-24.84 21.97c2.1.06 4.17.47 6.15 1.2l.02 4.44-6.29.04-.77-4.08.89-1.6z" fill="#e7ffff"/><path fill="#565354" d="M308.11 278.07c1.13 1.85 2.61 3.88 4.94 4.16 2.82-.01 5.66-.15 8.45.4l-3.57 1.91-1.4.1-1.18 1.17-3.85-.52c-1.16 4.09-1.99 10.23-7.58 10 1.34-1.32 2.65-2.68 3.9-4.08-.96-1.67-1.89-3.36-2.8-5.05-2.34.77-4.73 2.09-7.25 1.36 1-1.22 2.03-2.42 3.18-3.51 2.68-1.59 5.12-3.57 7.16-5.94z"/><path fill="#86837c" d="M228.33 279.96l10.24 6.49c5.14 3.08 8.71 8.48 14.54 10.45 3.55 1.13 7.23 1.82 10.7 3.23 3.86 1.58 8.09 1.11 12.16 1.34-1.05 1.93-3.03 2.85-5.07 3.39-7.24-1.24-14.63-2.28-21.44-5.18-4.51-3.49-9.46-6.36-14.34-9.29-2.27-1.92-4.12-4.28-6.28-6.31l-.51-4.12z"/><path fill="#535453" d="M226.63 283.18l2.21.9 6.28 6.31c-8.01 1.56-10.46 11.33-9.23 18.31.78 1.64 2.32 2.64 3.75 3.66 1.78 1.99 3.6 3.95 5.61 5.71-.78 1.25-1.44 2.57-1.86 3.99 1.82 1.41 3.68 2.81 5.7 3.93-3.76-.09-7.68-.16-10.83-2.49-.8 1.55-1.71 3.04-2.71 4.48 2.06 2.08 5.31 1.9 7.63 3.62-1.8.32-3.6.62-5.41.83-3.69-.02-7.39.19-11.08-.1-2.63-.44-5.11.77-7.68 1.04-3.47-1.37-6.62-3.6-9.32-6.13-3.65-5.83-1.51-13.12 2.24-18.29 3.3-.91 6.98-.72 9.85-2.88 1.53-.87 2.97-1.99 3.52-3.73 1.15-2.97 3.05-5.58 5.66-7.41 2.08-1.22 4.63-2.05 6.05-4.1.64-2.52-.08-5.13-.38-7.65m-6.69 24.79c.14 3.7 5 7.69 8.77 5.97-2.62-2.22-4.89-6.81-8.77-5.97m-19 5.99c1.14 5.91.67 13.49 6.12 17.33l2.77-1.26c-1.81-2.81-4.67-5.37-4.71-8.94-.12-4.03-.18-8.21 1.45-11.98-2.3.89-6.18 1.49-5.63 4.85z"/><path fill="#494942" d="M289.84 285.31c3.7-.44 7.43-.66 11.11-1.3-1.15 1.09-2.18 2.29-3.18 3.51 2.52.73 4.91-.59 7.25-1.36l2.8 5.05c-1.25 1.4-2.56 2.76-3.9 4.08l-3.14.12-1.59-1.04-2.54 2.5c-.72.7-1.42 1.42-2.07 2.17-.23.4-.67 1.2-.89 1.6a53.21 53.21 0 0 1-3.82 3.53c-2.35-2.73-5.56-4.35-8.96-5.36 1.03-1.53 1.91-3.4 3.78-4.05 2.8-.74 5.83-.27 8.55-1.4l.79-4.17-4.19-3.88z"/><path fill="#8d8d8d" d="M311.5 285.29l3.85.52c-.54 3.36-1.65 6.6-3.25 9.61-2.14 1.03-4.23 2.89-6.76 2.44-1.84-.1-3.16-1.44-4.56-2.45l3.14-.12c5.59.23 6.42-5.91 7.58-10z"/><path fill="#696a62" d="M225.89 308.7c-1.23-6.98 1.22-16.75 9.23-18.31 4.88 2.93 9.83 5.8 14.34 9.29l-1.59.85-2.57-.02-.01 5.28c-1.35-.19-2.67-.51-3.96-.93.19-2.49.31-4.99.45-7.48-1.69-1.52-3.65-2.68-5.85-3.28.47 2.26 1.08 4.49 1.79 6.68-3.25.15-6.5.45-9.67 1.23 1.69 2.54 3.59 5.27 6.57 6.36 2.28.6 4.67.61 6.97 1.15 2.27.95 4.21 2.53 6.32 3.8 3.37-2.09 5.18-5.67 6.45-9.29 3.25.77 6.53 1.47 9.64 2.75-1.55 2.44-3.18 4.94-3.62 7.86-1.44 1.03-2.9 2.06-4.16 3.32-4.36-.91-8.08-3.52-12.29-4.86-5.9-1.88-11.85-3.8-18.04-4.4z"/><path fill="#eae6ea" d="M283.22 291.21c.55.55.55.55 0 0z"/><path fill="#7c7d74" d="M235.93 294.1c2.2.6 4.16 1.76 5.85 3.28l-.45 7.48c1.29.42 2.61.74 3.96.93l.01-5.28 2.57.02 6.49 3.5c-1.27 3.62-3.08 7.2-6.45 9.29-2.11-1.27-4.05-2.85-6.32-3.8-2.3-.54-4.69-.55-6.97-1.15-2.98-1.09-4.88-3.82-6.57-6.36 3.17-.78 6.42-1.08 9.67-1.23-.71-2.19-1.32-4.42-1.79-6.68z"/><path opacity=".75" d="M299.19 294.37l1.59 1.04c1.4 1.01 2.72 2.35 4.56 2.45 2.53.45 4.62-1.41 6.76-2.44 2 2.74 3.48 5.85 3.01 9.35l-3.24.37-1.7.27c-2.26-1.92-4.42-3.97-6.92-5.57l-6.6-2.97 2.54-2.5z"/><path fill="#020202" opacity=".79" d="M215.19 296.14c1.86-.65 3.84-.81 5.77-1.21-2.61 1.83-4.51 4.44-5.66 7.41-.55 1.74-1.99 2.86-3.52 3.73.32-3.49.93-7.26 3.41-9.93z"/><path fill="#909685" d="M294.58 299.04l2.07-2.17 6.6 2.97c.43 2.89.08 6.33 2.46 8.48 2.2 2.24 4.13 4.72 5.55 7.54l-3.21.91-1.83-2.09-3.18.21.7-1.77-9.62-1.86a24.41 24.41 0 0 0-1.18 4.69c-3.15-3.01-6.26-6.07-9.2-9.28 2.13-.59 4.21-1.4 6.13-2.5a53.21 53.21 0 0 0 3.82-3.53l.77 4.08c2.09.02 4.19.01 6.29-.04l-.02-4.44c-1.98-.73-4.05-1.14-6.15-1.2z"/><path fill="#51514f" d="M247.87 300.53l1.59-.85c6.81 2.9 14.2 3.94 21.44 5.18 1.1.31 2.19.65 3.28 1.01l-.33 3.63 3.93 3.56-2.97.19c2.38 3.08 5.41 5.72 6.84 9.44-4.92.87-9.05 4.12-14.03 4.76-4.07.72-8.22.32-12.14-.91l-.69-.16.36-3.24c2.35-.23 5.72.51 6.9-2.17 1.61-2.22-.67-4.41-1.67-6.33.44-2.92 2.07-5.42 3.62-7.86-3.11-1.28-6.39-1.98-9.64-2.75-2.25-.99-4.36-2.28-6.49-3.5z"/><path fill="#4d4c51" d="M303.25 299.84c2.5 1.6 4.66 3.65 6.92 5.57l1.7-.27c.04 3.11-.88 6.75 1.02 9.47 2.87 1.31 6.16 1.65 9.28 1.27l2.61-.44 1.68-.31.63-7.27c2.76 2.55 2.57 6.34 1.64 9.68l-4.72 2.29c5.26 5.46 10.84 10.62 15.99 16.18 2.97 2.94 2.06 8.52-1.99 10.01l.15-1.59c.11-1.01.24-2.02.38-3.02a771.97 771.97 0 0 0-19.84-20.22c-1.02-.76-.92-1.93-.62-3.01l-5.44-.69-1.38-1.63c-1.42-2.82-3.35-5.3-5.55-7.54-2.38-2.15-2.03-5.59-2.46-8.48z"/><path fill="#69696c" d="M311.87 305.14l3.24-.37c3.57 2.53 8.21 1.2 11.98 3.09l-.63 7.27-1.68.31c.78-1.96 1.24-4.04.94-6.16-1.6.04-3.18.28-4.71.72l-.55 2.93 1.71 2.95c-3.12.38-6.41.04-9.28-1.27-1.9-2.72-.98-6.36-1.02-9.47z"/><path fill="#9ba28c" d="M279.34 307.69l4.4-1.02c2.94 3.21 6.05 6.27 9.2 9.28 3.9 3.87 9.08 6.23 12.52 10.58 2.52 3.16 5.47 5.95 8.82 8.23.67 1.48 1.28 3 1.9 4.51l-2.29-.51-1.76 2.41c-2.72-1.88-5.82-.91-8.31.8l-3.49 1.23c-4.27-4.86-10.65-6.23-16.49-8.25l.27-2.4 5.01 1.18.61-3.38c-1.82-1.07-3.7-2.02-5.6-2.92.83-1.31 2.5-.97 3.81-1.08 2.65-.01 5.3-.17 7.93-.6-1.75-5.1-7-7.9-10.51-11.74-2.09-1.99-5.22-3.31-6.02-6.32z"/><path fill="#76787a" d="M219.94 307.97c3.88-.84 6.15 3.75 8.77 5.97-3.77 1.72-8.63-2.27-8.77-5.97z"/><path fill="#7e7e7f" d="M200.94 313.96c-.55-3.36 3.33-3.96 5.63-4.85-1.63 3.77-1.57 7.95-1.45 11.98.04 3.57 2.9 6.13 4.71 8.94l-2.77 1.26c-5.45-3.84-4.98-11.42-6.12-17.33z"/><path fill="#3d3730" d="M225.89 308.7c6.19.6 12.14 2.52 18.04 4.4 4.21 1.34 7.93 3.95 12.29 4.86-1.13 1.62-2.17 3.3-3.19 4.99a46.81 46.81 0 0 1-5.14-.9l.34-3.6c-4.77-3.04-10.09-5.67-15.84-5.87l-2.75-.22c-1.43-1.02-2.97-2.02-3.75-3.66z"/><path fill="#ffe845" d="M321.01 310c1.53-.44 3.11-.68 4.71-.72.3 2.12-.16 4.2-.94 6.16l-2.61.44-1.71-2.95.55-2.93z"/><path fill="#5f5e65" d="M294.12 311.26l9.62 1.86-.7 1.77c-1.67 3.42 2.98 5.14 5.64 5.51 4.46.28 6.8 4.41 9.75 7.17 1.87 1.96 4.52 3.99 3.74 7.07a124.91 124.91 0 0 0-3.79 2.04c-1.34-.72-2.74-1.3-4.1-1.92-3.35-2.28-6.3-5.07-8.82-8.23-3.44-4.35-8.62-6.71-12.52-10.58a24.41 24.41 0 0 1 1.18-4.69z"/><path fill="#919296" d="M229.64 312.36l2.75.22c4.77 3.69 9.51 7.91 15.5 9.47a46.81 46.81 0 0 0 5.14.9l2.12.19-.36 3.24c-6.41-.69-12.36-3.21-18-6.2l-3.4 1.88c.42-1.42 1.08-2.74 1.86-3.99-2.01-1.76-3.83-3.72-5.61-5.71z"/><path fill="#67625c" d="M232.39 312.58c5.75.2 11.07 2.83 15.84 5.87l-.34 3.6c-5.99-1.56-10.73-5.78-15.5-9.47z"/><path fill="#66666a" d="M274.81 313.25l2.97-.19c1.53 1.66 2.69 3.6 3.83 5.55l1.75.44c.58-1.71 1.27-3.39 2-5.04 3.51 3.84 8.76 6.64 10.51 11.74-2.63.43-5.28.59-7.93.6-1.31.11-2.98-.23-3.81 1.08 1.9.9 3.78 1.85 5.6 2.92l-.61 3.38-5.01-1.18-.27 2.4c-3.57-2.89-1.46-8.28-2.19-12.26-1.43-3.72-4.46-6.36-6.84-9.44z"/><path fill="#a5ad90" d="M303.04 314.89l3.18-.21 1.83 2.09 3.21-.91 1.38 1.63c3.21 3.43 7.05 6.17 10.43 9.42 2.36 1.9 1.64 5.23 2.02 7.89 2.63.46 5.85.1 7.78 2.35 2.08 2.17 3.71 4.73 5.29 7.28l-.15 1.59-1.99 1.03c-2.79-.63-6.11-.54-8.14-2.88a121.23 121.23 0 0 0-.45-3.83c-2.71-1.96-6.6-1.12-9.05-3.66a124.91 124.91 0 0 1 3.79-2.04c.78-3.08-1.87-5.11-3.74-7.07-2.95-2.76-5.29-6.89-9.75-7.17-2.66-.37-7.31-2.09-5.64-5.51z"/><path fill="#b68365" d="M256.22 317.96c1.26-1.26 2.72-2.29 4.16-3.32 1 1.92 3.28 4.11 1.67 6.33-1.18 2.68-4.55 1.94-6.9 2.17l-2.12-.19 3.19-4.99z"/><path fill="#82857f" d="M312.64 317.49l5.44.69c-.3 1.08-.4 2.25.62 3.01a771.97 771.97 0 0 1 19.84 20.22l-.38 3.02c-1.58-2.55-3.21-5.11-5.29-7.28-1.93-2.25-5.15-1.89-7.78-2.35-.38-2.66.34-5.99-2.02-7.89-3.38-3.25-7.22-5.99-10.43-9.42z"/><path fill="#686969" d="M233.39 322.06l3.4-1.88c5.64 2.99 11.59 5.51 18 6.2l.69.16-2.6 2.45c-4.88.88-9.44-1.07-13.79-3-2.02-1.12-3.88-2.52-5.7-3.93z"/><path fill="#3e3d39" d="M228.26 323.5c3.15 2.33 7.07 2.4 10.83 2.49 4.35 1.93 8.91 3.88 13.79 3-2.89.93-5.91 1.32-8.9 1.78-5.37.77-10.73 2.5-16.21 1.66 1.81-.21 3.61-.51 5.41-.83-2.32-1.72-5.57-1.54-7.63-3.62 1-1.44 1.91-2.93 2.71-4.48z"/><path fill="#8c9284" d="M314.28 334.76l4.1 1.92c2.45 2.54 6.34 1.7 9.05 3.66-2.02.06-4.07.3-5.73 1.56 1.2 1.33 2.49 2.59 3.85 3.75l2.33-1.48c2.03 2.34 5.35 2.25 8.14 2.88-2.97.61-6.25.29-8.84 2.11-2.55.15-5.1.09-7.64-.02-.13-1.65-.19-3.33-.61-4.94-1.06-.65-2.28-.96-3.42-1.42l-3.38-1.61 1.76-2.41 2.29.51-1.9-4.51z"/><path fill="#4d4e51" d="M303.82 341.97c2.49-1.71 5.59-2.68 8.31-.8l3.38 1.61-1.23 2.01c-3.31-1.51-6.87-2.34-10.46-2.82z"/><path fill="#545355" d="M321.7 341.9c1.66-1.26 3.71-1.5 5.73-1.56l.45 3.83-2.33 1.48c-1.36-1.16-2.65-2.42-3.85-3.75z"/><path fill="#707175" d="M303.82 341.97c3.59.48 7.15 1.31 10.46 2.82l1.23-2.01c1.14.46 2.36.77 3.42 1.42.42 1.61.48 3.29.61 4.94 2.54.11 5.09.17 7.64.02l-.66.38c-2.11.22-4.24.24-6.36.3l-1.81 3.52c-3.44.6-6.71 1.88-10.14 2.5-4.82-2.43-6.48-7.86-7.88-12.66l3.49-1.23z"/></svg>