<svg xmlns="http://www.w3.org/2000/svg" width="682.667" height="682.667" viewBox="0 0 512 512" xmlns:v="https://vecta.io/nano"><path fill="#464847" d="M298.89 189.07c1.98-.7 4.11-.85 6.18-.47l-6.76 1.14c4.29 2.61 8.76 4.91 13.29 7.09l.26-2.7c2.43 4.43 5.15 8.71 8.41 12.58 1.63 1.88 1.94 4.41 2.74 6.68-2.64.81-5.05 2.33-5.8 5.14-2.16-1.25-4.07-2.86-5.58-4.84l.59-2.15c.18-1.57 1.35-3.5.25-4.91-6.32-7.4-15.04-12.92-24.77-14.36 3.6-1.48 7.51-1.95 11.19-3.2z"/><path fill="#7a7976" d="M298.31 189.74l6.76-1.14c2.79 1.06 5.06 3.14 6.79 5.53l-.26 2.7c-4.53-2.18-9-4.48-13.29-7.09z"/><path fill="#626566" d="M283.51 196.01l4.19-3.74c9.73 1.44 18.45 6.96 24.77 14.36 1.1 1.41-.07 3.34-.25 4.91-3.68-4.88-8.92-8.17-13.3-12.35-2.66-3.11-6.76-.28-9.78.68l-.78-.4c-1.67-1.08-3.25-2.29-4.85-3.46z"/><path fill="#5d5a55" d="M283.76 199.78l-.25-3.77 4.85 3.46c-1.05 2.94.2 5.69 2.67 7.42l-4.07.23c-4.03.4-7.9 1.79-11.35 3.89.4-5.07 4.52-8.27 8.15-11.23z"/><path fill="#989a9e" d="M289.14 199.87c3.02-.96 7.12-3.79 9.78-.68 4.38 4.18 9.62 7.47 13.3 12.35l-.59 2.15-1.55-.3c-2.29-4.38-6.56-7.11-10.31-10.11-1.73-1.46-4.1-1.33-6.19-1.74-1.52-.43-3-1.03-4.44-1.67z"/><path d="M291.03 206.89c-2.47-1.73-3.72-4.48-2.67-7.42l.78.4c1.44.64 2.92 1.24 4.44 1.67.16 4.44 4.13 7.06 6.96 9.92 2.65 2.65 6.19 3.99 9.48 5.63 2.6 1.01 2.72 4.19 3.67 6.43l-.83.44c-3.13-1.73-5.69-4.29-8.76-6.12-4.54-3.43-8.66-7.37-13.07-10.95zm28.46 103.75c1.38 2.83 1.18 6.02 1.11 9.08l-3.48 1.4.53-2.61 1.84-7.87z" fill="#2c2b28"/><path fill="#615a52" d="M293.58 201.54c2.09.41 4.46.28 6.19 1.74 3.75 3 8.02 5.73 10.31 10.11.51.09 1.03.2 1.55.3 1.51 1.98 3.42 3.59 5.58 4.84-.81 1.9-1.81 3.76-3.52 4.99-.95-2.24-1.07-5.42-3.67-6.43-3.29-1.64-6.83-2.98-9.48-5.63-2.83-2.86-6.8-5.48-6.96-9.92z"/><path fill="#8c8d85" d="M275.61 211.01c3.45-2.1 7.32-3.49 11.35-3.89 2.23 2.19 4.07 4.73 5.63 7.44 2.17 4.29 8.74 3.94 10.32 8.68 1.21 3.97-2.34 6.94-4.89 9.35-2.85-3.24-6.16-6.16-10.33-7.53 3.16 5.39 8.78 8.56 12.81 13.2-3.38.93-5.5-2.11-7.87-3.89-2.41-2-5.29-3.27-8.06-4.64-6.86-4.22-14.84-5.77-22.11-9.03l-.31-2.6c5.39.43 10.69 1.86 16.13 1.71-2.18-1.23-4.43-2.32-6.69-3.37 1.33-1.81 2.62-3.66 4.02-5.43z"/><path fill="#6f7066" d="M286.96 207.12l4.07-.23c4.41 3.58 8.53 7.52 13.07 10.95.79 1.82 1.79 3.74 1.37 5.79-.75 4.54-.71 9.25-2.36 13.6-1.77-1.47-3.49-2.99-5.09-4.64 2.55-2.41 6.1-5.38 4.89-9.35-1.58-4.74-8.15-4.39-10.32-8.68-1.56-2.71-3.4-5.25-5.63-7.44z"/><path fill="#85877f" d="M218.28 212.14c3.06-.37 5.93-2.47 9.08-1.66l3.43.65 9.54 1.23c-3.5 4.91-9.78 2.26-14.65 1.75-.11 7.18-2.98 14.04-2.59 21.25.33 2.33-1.5 4.01-2.76 5.72-2.55-5.35-3.6-11.28-3.75-17.17.07-3.98 1.21-7.84 1.7-11.77z"/><path fill="#5f605e" d="M156.57 211.57c3.26-.96 6.24 1.45 9.46 1.61 4.74.87 10.83-.28 13.9 4.36-1.09 2.65-1.83 5.46-1.85 8.34.06 3.13.33 6.25.58 9.36-1.83.55-3.66 1.23-5.58 1.43-1.68-.49-3.13-1.56-4.75-2.21-1.8 1.73-3.88 4.89-6.77 3.34-.43-1.5-.7-3.05-.91-4.6-6.04-1.26-12.18-.26-18.27-.56l-.17 3.67c-1.96-2.56-4.49-4.7-7.91-4.77-.41-2.53-.83-5.06-.94-7.63 4.55-3.57 10.35-2.51 15.68-2.68-3.34 2.65-7.57 3.95-10.7 6.9-2.18 2.16 2.26 4.36 2.86 1.3l.33-.48c1.7 1.23 3.47 2.76 5.72 2.56 4.47-.13 8.9-.88 13.38-.97l.48-4.73-.66-2.26c-2.7-1.36-5.73-1.84-8.64-2.53 5.07-.52 9.94-2.07 14.72-3.76l.34 2.89c2.26-.94 4.41-2.16 6.31-3.72-4.6-1.22-9.31-2.01-14.05-2.42l-4.54-.36 2.48 3.21c-4.72-.52-9.42.28-14.03 1.23a63.43 63.43 0 0 0-3.95-3.38l1.12-2.59c5.44.15 11.06 1.19 16.36-.55m8.33 18.65c1.43 1.01 3.22 1.26 4.87 1.74-.04-2.92.86-6.63-2.1-8.46l1.12-2.47c-3.67 1.41-5.48 5.58-3.89 9.19z"/><path fill="#60625f" d="M230.79 211.13c7.68.11 15.45 1.21 23.03-.5l-.43 2.65c3.55.36 7.06-.37 10.3-1.83 4 .34 8.25 2.06 11.92-.44-1.4 1.77-2.69 3.62-4.02 5.43 2.26 1.05 4.51 2.14 6.69 3.37-5.44.15-10.74-1.28-16.13-1.71l.31 2.6c7.27 3.26 15.25 4.81 22.11 9.03.43 1.94 1.88 3.26 3.56 4.2l-1.28 5.8c-2.32.39-4.64.77-6.97 1.06l3.14-3.95c-1.05.04-2.1.09-3.14.18-3.47-3.47-8.01-6.79-13.19-6.28-3.91.34-7.81-.09-11.69-.48-1.67-.21-1.94 1.73-2.32 2.89l-6.22.75c.89 2.02 2.7 4.1 1.86 6.44-2.04 6.17-4.57 12.28-8.15 17.74l-1.36-1.65-2.98 3.41-3.6-.41c.58-4.17 1.08-8.35 1.89-12.49l1.65 2.88c1.43-3.27 2.94-6.5 4.6-9.65l2.01 2.96 1.42-2.03-2.12-2.55c.49-1.65 1.09-3.28 1.29-4.99.02-2.13-1.99-4.63.1-6.37 4.47-4.6 11.5-4.59 16.82-7.84-2.55-.5-5.11-.94-7.67-1.37l1.23-3.18c-4.85-1.21-9.85-.16-13.71 3.05l3.34 1.92c-3.03 2.77-6.09 5.52-9.4 7.96l.12-2.57-1.9.03c-1.79 3.52-4.12 6.8-5.33 10.58-.6 1.48 1.03 2.33 1.87 3.24-.08 6.2-1.36 12.31-3.11 18.24l-.17-7.55a114.29 114.29 0 0 0-.16-5.56c-2.3-.58-4.59-1.24-6.94-1.59-1.01-2.65-1.48-5.87-3.84-7.72-4.92-2.12-10.4-2.46-15.69-2.8-.7 1.75-1.39 3.51-2.2 5.22-.36.16-1.1.47-1.46.62l-.08-2.74c-.11-3.36.91-6.6 1.13-9.93-.09-3.6-1.02-7.11-1.46-10.67 7.55-3.2 15.87-1.96 23.82-2.39-.49 3.93-1.63 7.79-1.7 11.77.15 5.89 1.2 11.82 3.75 17.17 1.26-1.71 3.09-3.39 2.76-5.72-.39-7.21 2.48-14.07 2.59-21.25 4.87.51 11.15 3.16 14.65-1.75-3.18-.39-6.38-.66-9.54-1.23z"/><path fill="#807d7a" opacity=".97" d="M253.82 210.63c3.32-.23 6.62.19 9.87.82-3.24 1.46-6.75 2.19-10.3 1.83l.43-2.65z"/><path fill="#0f0f0e" opacity=".55" d="M154.59 213.65l4.54.36 2.02 3.55-4.08-.7-2.48-3.21z"/><path fill="#3c3c3b" d="M159.13 214.01c4.74.41 9.45 1.2 14.05 2.42-1.9 1.56-4.05 2.78-6.31 3.72l-.34-2.89c-4.78 1.69-9.65 3.24-14.72 3.76l-2.77.21c-5.33.17-11.13-.89-15.68 2.68.3-3.87 3.43-6.42 5.73-9.2a63.43 63.43 0 0 1 3.95 3.38c4.61-.95 9.31-1.75 14.03-1.23 1.36.2 2.72.46 4.08.7l-2.02-3.55z"/><path fill="#7d7e75" d="M239.74 217.85c3.86-3.21 8.86-4.26 13.71-3.05l-1.23 3.18 7.67 1.37c-5.32 3.25-12.35 3.24-16.82 7.84-2.09 1.74-.08 4.24-.1 6.37-.2 1.71-.8 3.34-1.29 4.99l2.12 2.55-1.42 2.03-2.01-2.96c-1.66 3.15-3.17 6.38-4.6 9.65l-1.65-2.88c-.81 4.14-1.31 8.32-1.89 12.49-.61.25-1.22.51-1.82.78.96-7.05 2.75-13.96 3.5-21.04l-5.47-.16c-.84-.91-2.47-1.76-1.87-3.24 1.21-3.78 3.54-7.06 5.33-10.58.48 0 1.43-.02 1.9-.03l-.12 2.57-.76 3.52a18.94 18.94 0 0 0 3.8 1.44c2.93-4.44 6.6-8.3 10.39-12.02a137.9 137.9 0 0 0-4.03-.9l-3.34-1.92z"/><path fill="#d5a283" d="M317.21 218.53c.75-2.81 3.16-4.33 5.8-5.14 1.18 2.57 2.61 5.01 3.94 7.5l1.24 2.03c5.38 8.58 9.73 17.78 15.48 26.12-.75 1.72-1.23 3.94-3.24 4.63-2.87 1.61-5.99-.28-8.64-1.43-4.65-5.62-9.64-10.94-15.06-15.82-2.62-2.84-5.33-5.6-8.23-8.15.68-2.11 2.4-3.45 4.36-4.31l.83-.44c1.71-1.23 2.71-3.09 3.52-4.99z"/><path fill="#8b8e85" d="M179.93 217.54c4.85-.99 9.74-1.79 14.53-3.01.44 3.56 1.37 7.07 1.46 10.67-.22 3.33-1.24 6.57-1.13 9.93l-3.57.68c-1.61-2.37-2.95-4.98-4.99-7.02-2.51-1.47-5.41-2.05-8.15-2.91.02-2.88.76-5.69 1.85-8.34z"/><path fill="#58564f" d="M304.1 217.84c3.07 1.83 5.63 4.39 8.76 6.12-1.96.86-3.68 2.2-4.36 4.31-1.79 3.91-1.14 8.24.83 11.94-.81 2.66-2.7 4.69-4.77 6.44.35-3.42-1.58-6.26-4.06-8.39-4.03-4.64-9.65-7.81-12.81-13.2 4.17 1.37 7.48 4.29 10.33 7.53 1.6 1.65 3.32 3.17 5.09 4.64 1.65-4.35 1.61-9.06 2.36-13.6.42-2.05-.58-3.97-1.37-5.79z"/><path fill="#494b4a" d="M243.08 219.77l4.03.9c-3.79 3.72-7.46 7.58-10.39 12.02a18.94 18.94 0 0 1-3.8-1.44l.76-3.52c3.31-2.44 6.37-5.19 9.4-7.96z"/><path fill="#6b6f73" d="M149.04 221.23l2.77-.21c2.91.69 5.94 1.17 8.64 2.53l.66 2.26c-4.72-2.11-9.69-.03-14.49.53-1.98.17-3.93.88-5.09 2.61l-.33.48c-.75-.88-1.7-1.32-2.86-1.3 3.13-2.95 7.36-4.25 10.7-6.9z"/><path fill="#8c8b8f" d="M164.9 230.22c-1.59-3.61.22-7.78 3.89-9.19l-1.12 2.47c2.96 1.83 2.06 5.54 2.1 8.46-1.65-.48-3.44-.73-4.87-1.74z"/><path fill="#6f4f3d" opacity=".72" d="M326.95 220.89l1.24 2.03-1.24-2.03z"/><path fill="#96959a" d="M146.62 226.34c4.8-.56 9.77-2.64 14.49-.53-.13 1.58-.31 3.15-.48 4.73-4.48.09-8.91.84-13.38.97-2.25.2-4.02-1.33-5.72-2.56 1.16-1.73 3.11-2.44 5.09-2.61z"/><path fill="#7b7d75" d="M178.08 225.88c2.74.86 5.64 1.44 8.15 2.91 2.04 2.04 3.38 4.65 4.99 7.02l3.57-.68.08 2.74-2.54.76-10.1-1.51-3.57-1.88-.58-9.36z"/><path fill="#9e9c9f" d="M138.34 228.13c1.16-.02 2.11.42 2.86 1.3-.6 3.06-5.04.86-2.86-1.3z"/><path fill="#98958c" d="M255 230.26c3.88.39 7.78.82 11.69.48 5.18-.51 9.72 2.81 13.19 6.28l-.51 1.93c-1.96-.49-3.92-.99-5.81-1.71-4.54-2.6-9.5-4.76-14.86-4.35-2.01-.02-4.02.09-6.02.26.38-1.16.65-3.1 2.32-2.89z"/><path fill="#010101" opacity=".76" d="M309.33 240.21c-1.97-3.7-2.62-8.03-.83-11.94 2.9 2.55 5.61 5.31 8.23 8.15.25 2.72 1.31 5.25 2.52 7.67-3.7.53-8.31.11-9.92-3.88z"/><path fill="#78746a" d="M284.57 229.73c2.77 1.37 5.65 2.64 8.06 4.64 2.37 1.78 4.49 4.82 7.87 3.89 2.48 2.13 4.41 4.97 4.06 8.39l-.67.64-3.86-2.36c-4.04-3.59-7.14-8.25-11.9-11-1.68-.94-3.13-2.26-3.56-4.2z"/><path fill="#40403e" d="M135.75 238.38c-.66-2.24-1.21-4.52-1.45-6.84 3.42.07 5.95 2.21 7.91 4.77l.17-3.67c6.09.3 12.23-.7 18.27.56.21 1.55.48 3.1.91 4.6 2.89 1.55 4.97-1.61 6.77-3.34 1.62.65 3.07 1.72 4.75 2.21 1.92-.2 3.75-.88 5.58-1.43l3.57 1.88c-6.87 1.72-13.98 1.49-21 1.45-4.57-.82-9.22-1.06-13.85-.67-3.88.06-7.75.41-11.63.48z"/><path fill="#4b4d4b" d="M198.53 232.03c5.29.34 10.77.68 15.69 2.8 2.36 1.85 2.83 5.07 3.84 7.72-9.03.49-17.81-1.93-26.57-3.7l.84-.22 2.54-.76 1.46-.62c.81-1.71 1.5-3.47 2.2-5.22z"/><path fill="#414342" d="M246.46 233.9l6.22-.75 6.02-.26c2.28 1.67 4.76 3.04 7.39 4.09-2.56 1.06-5.07 2.25-7.43 3.69-3.46 2.3-7.67 4.3-9.59 8.18-1.28 4.46-1.53 9.29-4.23 13.25l-1.91-5.35c-.48 4.3-.22 8.63.41 12.9.12 1.65.15 3.3.17 4.95-3.47-3.33-3.73-8.45-6.06-12.48l2.72-4.04c3.58-5.46 6.11-11.57 8.15-17.74.84-2.34-.97-4.42-1.86-6.44z"/><path fill="#5d5f5c" d="M258.7 232.89c5.36-.41 10.32 1.75 14.86 4.35-.88 1.07-1.3 2.84-2.85 3.13-1.05-.43-2.03-1-3.02-1.53-3.05.45-6.07 1.04-9.03 1.83 2.36-1.44 4.87-2.63 7.43-3.69-2.63-1.05-5.11-2.42-7.39-4.09z"/><path fill="#575755" d="M288.13 233.93c4.76 2.75 7.86 7.41 11.9 11-4.54-.97-9.19-1.46-13.83-1.37-4.01.98-8.04 1.92-12.2 1.86-2.09-.16-3.75 1.16-5.41 2.22l-5.51 1.24c-2.23.64-4.99.76-6.43 2.85-4.14 5.81-5.41 13.73-2.85 20.46 1.11 2.86 2.29 6.55 5.69 7.32 5.44 1.37 11.21.94 16.63-.29l2.55-.63c3.15 1.69 5.82 4.2 6.47 7.86l-7.19-.13 5.68 3.69-1.61 3.2c2.04.81 4.08 1.62 6.18 2.3-2.53.48-5.27.73-7.41 2.31-1.12 1.09-1.48 2.71-2.15 4.09l3.49 1.06c1.21 1.23 2.51 2.37 3.98 3.29-3.12.24-6.3.28-9.29 1.32-1.29.54-2.56 1.13-3.83 1.72 1.3 1.67 2.61 3.32 3.99 4.93l-.21 1.92-2.74.35c2.63 3.53 5.76 6.81 7.37 10.99l-.9-.04c-2.62-3.06-4.84-6.88-9.03-7.95-.08 1.71-.12 3.44-.27 5.16-3.5-.75-6.7 1.11-10.03 1.81-3.43.8-6.97.73-10.46.84l-.81-.37 2.14-2.86-3.31-1.16.86-1.49c2.31.59 4.39-.38 5.54-2.45.18-4.26 2.17-8.02 4.88-11.22-2.38-1.39-4.97-2.35-7.58-3.19-2.36-1.18-4.47-2.77-6.64-4.24l3.05-.15c7.57 2.68 15.59 6.26 23.78 4.72l.13-2.35c-8.82-.06-17.28-3.17-24.79-7.63-3.98-2.55-6.48-6.82-10.51-9.32-2.74-2.07-6.43-3.36-7.96-6.67-1.53-3.12-3.44-6.04-5.24-9.01-.13 3.69.48 7.39 2.23 10.67l-1.53 4.68c-.25-6.62-4.88-13.21-1.57-19.72l2.65.97 4.38-6.31c.6-.27 1.21-.53 1.82-.78 1.2.11 2.4.26 3.6.41l2.98-3.41 1.36 1.65-2.72 4.04c2.33 4.03 2.59 9.15 6.06 12.48-.02-1.65-.05-3.3-.17-4.95 2.08 2.91 4.37 5.66 6.56 8.49l1.15-2.2c-3.36-5.43-2.49-11.95-2.32-18 1.44-5.64 7.03-8.63 11.2-12.13 1.6-1.7 3.72.06 5.45.58 1.88-1.5 3.66-3.22 5.89-4.21 2.76-.96 5.73-1 8.61-1.39 2.33-.29 4.65-.67 6.97-1.06l1.28-5.8m-55.16 30.97c-1.4 3.99 1.75 7.32 3.48 10.61 4.79 6.58 11.38 12.63 19.85 13.56l-.55-1.85c1.5 1.79 2.24 4.54 4.77 5.17 3.72 1.25 7.78 2.75 11.69 1.4l-3.45-1.03c2.63-1.49 5.15-3.45 8.29-3.59l-.43-1.89-1.7-.44c.83-.5 1.65-1.02 2.45-1.58l-3.3-2.44c-.55 1.15-1.08 2.31-1.59 3.49-1.15-.32-2.06.76-3.06 1.13-2.66 1.83-6.08.81-8.92.02-2.12-2.22-3.18-5.43-5.92-7.03-1.63-1.06-3.65-1.06-5.51-1.33l.32 2.48 3.92 3.17c-2.56-.92-5.47-1.5-7.27-3.74-4.23-5.46-8.39-11.02-13.07-16.11m33.87 48.08c.69 2.61 2.83 4.24 5.26 5.16-.61-2.68-2.63-4.52-5.26-5.16z"/><path fill="#767777" d="M279.88 237.02l3.14-.18-3.14 3.95c-2.88.39-5.85.43-8.61 1.39-2.23.99-4.01 2.71-5.89 4.21-1.73-.52-3.85-2.28-5.45-.58-4.17 3.5-9.76 6.49-11.2 12.13-.17 6.05-1.04 12.57 2.32 18l-1.15 2.2c-2.19-2.83-4.48-5.58-6.56-8.49-.63-4.27-.89-8.6-.41-12.9l1.91 5.35c2.7-3.96 2.95-8.79 4.23-13.25 1.92-3.88 6.13-5.88 9.59-8.18 2.96-.79 5.98-1.38 9.03-1.83.99.53 1.97 1.1 3.02 1.53 1.55-.29 1.97-2.06 2.85-3.13 1.89.72 3.85 1.22 5.81 1.71l.51-1.93z"/><path fill="#020202" opacity=".75" d="M161.23 238.57c7.02.04 14.13.27 21-1.45 3.38.42 6.73 1 10.1 1.51l-.84.22c-2.85.47-5.68 1.14-8.56 1.26-8.61-.68-17.27-.51-25.91-.44-3.25-.2-7.4 1.42-9.64-1.77 4.63-.39 9.28-.15 13.85.67z"/><path fill="#424443" d="M228.44 239.01l5.47.16c-.75 7.08-2.54 13.99-3.5 21.04l-4.38 6.31-2.65-.97c1.34-4.77 1.12-9.79.95-14.69l.83-1.16.17 7.55c1.75-5.93 3.03-12.04 3.11-18.24z"/><path fill="#414247" opacity=".95" d="M309.33 240.21c1.61 3.99 6.22 4.41 9.92 3.88 1.79.01 3.88.09 5 1.75 1.91 1.92.93 4.83.97 7.22l-1.27-.77c-.45-1.4-.78-2.84-1.1-4.28-.24-1.11-.66-2.82-2.1-2.77-4.27-.12-8.56.26-12.7 1.33l1.74 5.19-2.21-1.78c-1.2-.94-2.42-1.85-3.69-2.69l.67-.64c2.07-1.75 3.96-3.78 4.77-6.44z"/><path fill="#6a6c6b" d="M274 245.42c4.16.06 8.19-.88 12.2-1.86l-1.91 4.72c-3.05 1.29-6.45.99-9.69 1.07-2.02-.52-4-1.15-6.01-1.71 1.66-1.06 3.32-2.38 5.41-2.22z"/><path fill="#81817a" d="M286.2 243.56c4.64-.09 9.29.4 13.83 1.37l3.86 2.36c1.27.84 2.49 1.75 3.69 2.69l-4.91 2.67c.41 3.26.47 6.55-.09 9.8-.45-1.83-.84-3.68-1.19-5.52l-1.03 3.41-1.03-9.72c-2.9-1.48-5.74-3.2-8.91-4.01-2.19-.57-4.15.99-6.13 1.67l1.91-4.72z"/><path fill="#6a6b6e" d="M308.05 246.57c4.14-1.07 8.43-1.45 12.7-1.33-2.89 1.25.31 3.04 2.1 2.77.32 1.44.65 2.88 1.1 4.28l1.27.77 1.16.65c-.41 2.52-.77 5.05-1.11 7.58l-4.92 1.01-.33 3.68-.2 2.88c-4.87 2.67-10.35 1.38-15.57 1.38-2.02-.24-2.72 2.64-1.38 3.81 1.51 1.5 3.28 2.7 4.98 3.98l-1.1 4.28c-4.63 3.34-10.34 4.04-15.89 4.16 1.44 2.16 4.33 4.27 3.12 7.21-1.5 1.49-3.84 1.4-5.78 1.83-2.1-.68-4.14-1.49-6.18-2.3l1.61-3.2-5.68-3.69 7.19.13c-.65-3.66-3.32-6.17-6.47-7.86 1.39-.28 2.8-.92 4.23-.69 1.2.91 2.18 2.08 3.45 2.92 5.18.14 10.21-1.43 15.23-2.53-1.75-3.94-2.38-8.31-1.16-12.51.48-1.51.33-3.09.02-4.61l-.08-.83c.31-1.15.67-2.28 1.03-3.41.35 1.84.74 3.69 1.19 5.52.56-3.25.5-6.54.09-9.8l4.91-2.67 2.21 1.78-1.74-5.19m12.19 2.67c.55.56.55.56 0 0m-1.79 9.92c-.44 1.39.05 1.87 1.45 1.43.44-1.41-.05-1.89-1.45-1.43m-4.26 2.21c.24 1.77.49 3.54.85 5.3.64-1.45 1.16-2.93 1.61-4.44l-2.46-.86z"/><path d="M320.75 245.24c1.44-.05 1.86 1.66 2.1 2.77-1.79.27-4.99-1.52-2.1-2.77zm-6.56 16.13l2.46.86c-.45 1.51-.97 2.99-1.61 4.44l-.85-5.3zm-36.32 3.39c1.91-1.03 4.02-1.61 6.21-1.47-1.87 1.15-4.05 1.58-6.21 1.47zm10.64 39.75l4.69-3.93.62 5.44-5.31-1.51z" fill="#ecffff"/><path fill="#97968e" d="M284.29 248.28c1.98-.68 3.94-2.24 6.13-1.67 3.17.81 6.01 2.53 8.91 4.01l1.03 9.72.08.83c-2.26.92-4.7 1.26-7.1.77-5.75-.94-11.58-.85-17.37-.67l.35 5.24c3.7-.03 7.36-.54 11.04-.89l.29.01c2.24.27 4.45.76 6.7 1.04-2.31.68-4.92 1.15-6.56 3.07-1.77 1.64-3.26 4.2-6.01 4.06-4.16.07-8.25-.95-12.38-1.3-3.37-.43-7.17-.67-9.73-3.17-1.57-3.52-1.46-7.88.2-11.35 2.37-1.71 5.12-2.89 7.15-5.06 1.94-2.21 4.84-2.95 7.58-3.57 3.24-.08 6.64.22 9.69-1.07z"/><path fill="#87857e" d="M263.08 248.88l5.51-1.24 6.01 1.71c-2.74.62-5.64 1.36-7.58 3.57-2.03 2.17-4.78 3.35-7.15 5.06-1.66 3.47-1.77 7.83-.2 11.35 2.56 2.5 6.36 2.74 9.73 3.17 4.13.35 8.22 1.37 12.38 1.3 2.75.14 4.24-2.42 6.01-4.06 1.64-1.92 4.25-2.39 6.56-3.07l5.54-.82.53-.07c-1.22 4.2-.59 8.57 1.16 12.51-5.02 1.1-10.05 2.67-15.23 2.53-1.27-.84-2.25-2.01-3.45-2.92-1.43-.23-2.84.41-4.23.69l-2.55.63c-3.08-.5-6.14-1.1-9.24-1.45-6.14-.06-10.74-6.12-11.2-11.86-.19-3.45.05-6.97 1.04-10.29 1.06-3.03 3.88-4.92 6.36-6.74z"/><path fill="#73736d" d="M256.65 251.73c1.44-2.09 4.2-2.21 6.43-2.85-2.48 1.82-5.3 3.71-6.36 6.74-.99 3.32-1.23 6.84-1.04 10.29.46 5.74 5.06 11.8 11.2 11.86 3.1.35 6.16.95 9.24 1.45-5.42 1.23-11.19 1.66-16.63.29-3.4-.77-4.58-4.46-5.69-7.32-2.56-6.73-1.29-14.65 2.85-20.46z"/><path fill="#f1eef6" d="M320.24 249.24c.55.56.55.56 0 0z"/><path fill="#5f5e5d" d="M343.67 249.04c2.08 2.71 5.01 4.54 7.5 6.82 4.29 4.5 6.09 10.64 7.84 16.44 1.09 3.02-1.41 5.74-4.12 6.66-2.51.85-3.71 3.3-5.1 5.34-3.64-.99-7.56-2.43-9.45-5.97.91-2.51 2.49-5.01 2.23-7.77-1.55-5.23-4.89-9.76-8.72-13.56l-2.06-4.76c2.65 1.15 5.77 3.04 8.64 1.43 2.01-.69 2.49-2.91 3.24-4.63z"/><path fill="#48503a" d="M326.38 253.71l2.16 1.24-.2 3.76c.01 3.47-6.04 3.51-5.48 6.95 1.89 2.03 5.46 3.14 5.54 6.35.37 2.65-2.49 3.95-3.84 5.83l.19 1.32c.13 1.7 1 3.67-.38 5.1-.93 1.5-2.83 1.65-4.35 2.14l1.46-2.99 1.92-4.25-1.51-1.09-.67-.46c1.24-.93 2.5-1.85 3.54-3 1.14-1.89.52-4.21.41-6.28l-2.33-.47-2.82-1.88.33-3.68 4.92-1.01 1.11-7.58z"/><path opacity=".76" d="M328.54 254.95c3.78 3.13 5.97 7.78 7.02 12.5.34 1.68.6 3.83-1 4.99-2.97 2.65-6.45 4.63-9.81 6.72l-.19-1.32c1.35-1.88 4.21-3.18 3.84-5.83-.08-3.21-3.65-4.32-5.54-6.35-.56-3.44 5.49-3.48 5.48-6.95.13-1.25.15-2.51.2-3.76z"/><path fill="#3b3b3a" d="M333.85 257c3.83 3.8 7.17 8.33 8.72 13.56.26 2.76-1.32 5.26-2.23 7.77-1.94-3.93-.24-8.53-2.22-12.42-1.38-2.99-3.08-5.83-4.27-8.91z"/><path fill="#b7bac3" d="M318.45 259.16c1.4-.46 1.89.02 1.45 1.43-1.4.44-1.89-.04-1.45-1.43z"/><path fill="#78808f" d="M275.97 261.27c5.79-.18 11.62-.27 17.37.67 2.4.49 4.84.15 7.1-.77-2.3.68-2.22 3.33-.55 4.68-1.86.24-3.7.53-5.54.82-2.25-.28-4.46-.77-6.7-1.04-.08 0-.22-.01-.29-.01-3.68.35-7.34.86-11.04.89l-.35-5.24m1.9 3.49c2.16.11 4.34-.32 6.21-1.47-2.19-.14-4.3.44-6.21 1.47m14.43-.76c.17 3.32 2.99-1.51 0 0m2.91.26c.54.53.54.53 0 0z"/><path fill="#414345" d="M300.44 261.17c.31 1.52.46 3.1-.02 4.61l-.53.07c-1.67-1.35-1.75-4 .55-4.68z"/><path fill="#e8ebec" d="M292.3 264c2.99-1.51.17 3.32 0 0z"/><path fill="#ededf1" d="M295.21 264.26c.54.53.54.53 0 0z"/><path fill="#7e7b73" d="M232.97 264.9c4.68 5.09 8.84 10.65 13.07 16.11 1.8 2.24 4.71 2.82 7.27 3.74.9.72 1.79 1.49 2.44 2.47l.55 1.85c-8.47-.93-15.06-6.98-19.85-13.56-1.73-3.29-4.88-6.62-3.48-10.61z"/><path fill="#fff" d="M287.36 265.62l.29.01-.29-.01z"/><path fill="#58595b" d="M320.02 265.98l2.82 1.88c-1.85 1.88-4.04 3.36-6.25 4.8-3.07 1.84-4.33 5.38-5.8 8.45 3.29 1.77 7.03 2.09 10.69 2.3l-1.46 2.99-1.81-.23-2.32-.29 1.99-1.74c-3.83.53-8.01.93-11.13-1.83l1.1-4.28c-1.7-1.28-3.47-2.48-4.98-3.98-1.34-1.17-.64-4.05 1.38-3.81 5.22 0 10.7 1.29 15.57-1.38l.2-2.88z"/><path fill="#64677d" d="M322.84 267.86l2.33.47c.11 2.07.73 4.39-.41 6.28-1.04 1.15-2.3 2.07-3.54 3-1.56.24-1.1 3.2.46 2.04l.21-1.58 1.51 1.09c-.54 1.46-1.21 2.86-1.92 4.25-3.66-.21-7.4-.53-10.69-2.3 1.47-3.07 2.73-6.61 5.8-8.45 2.21-1.44 4.4-2.92 6.25-4.8z"/><path fill="#86827a" d="M226.48 280.59c-1.75-3.28-2.36-6.98-2.23-10.67 1.8 2.97 3.71 5.89 5.24 9.01 1.53 3.31 5.22 4.6 7.96 6.67 4.03 2.5 6.53 6.77 10.51 9.32 7.51 4.46 15.97 7.57 24.79 7.63l-.13 2.35c-8.19 1.54-16.21-2.04-23.78-4.72-5.97-3.77-11.55-8.15-16.91-12.73-2.07-2.07-3.87-4.4-5.45-6.86z"/><path fill="#b3b6bf" d="M321.68 279.65c-1.56 1.16-2.02-1.8-.46-2.04l.67.46-.21 1.58z"/><path fill="#3a3c3d" d="M249.07 279.1c1.86.27 3.88.27 5.51 1.33 2.74 1.6 3.8 4.81 5.92 7.03 2.84.79 6.26 1.81 8.92-.02 1-.37 1.91-1.45 3.06-1.13l2.44.53 1.7.44.43 1.89c-3.14.14-5.66 2.1-8.29 3.59l3.45 1.03c-3.91 1.35-7.97-.15-11.69-1.4-2.53-.63-3.27-3.38-4.77-5.17-.65-.98-1.54-1.75-2.44-2.47l-3.92-3.17-.32-2.48z"/><path fill="#4b4d4b" d="M226.48 280.59c1.58 2.46 3.38 4.79 5.45 6.86-3.95 1.74-6.33 5.36-8.12 9.11-1.22.64-2.43 1.3-3.63 1.98.67-2.38 1.05-4.88.21-7.27l-.28-1.24c1.76-1.39 4.28-2.37 4.84-4.76l1.53-4.68z"/><path fill="#4a4a43" d="M290.86 286.47c5.55-.12 11.26-.82 15.89-4.16 3.12 2.76 7.3 2.36 11.13 1.83l-1.99 1.74c-2.76 1.97-3.17 5.55-4.83 8.29-1.71 1.6-4.15 2.1-6.25 3.04l-2.77-2.76c-1.48.69-2.95 1.39-4.39 2.16-1.11.89-2.13 1.88-3.17 2.84l-1.28 1.13-4.69 3.93c-.78.62-1.58 1.19-2.4 1.75-1.47-.92-2.77-2.06-3.98-3.29l-3.49-1.06c.67-1.38 1.03-3 2.15-4.09 2.14-1.58 4.88-1.83 7.41-2.31 1.94-.43 4.28-.34 5.78-1.83 1.21-2.94-1.68-5.05-3.12-7.21z"/><path fill="#944c4d" d="M274.07 282.82l3.3 2.44-2.45 1.58-2.44-.53 1.59-3.49z"/><path fill="#7f7f7f" d="M311.06 294.17c1.66-2.74 2.07-6.32 4.83-8.29l2.32.29c-1.21 4.68-1.74 10.45-6.21 13.27-2.51-.31-5.09-.74-7.19-2.23 2.1-.94 4.54-1.44 6.25-3.04z"/><path fill="#676962" d="M223.81 296.56c1.79-3.75 4.17-7.37 8.12-9.11 5.36 4.58 10.94 8.96 16.91 12.73l-3.05.15-3.24.02-1 4.52-1.88-1.54.04-6.97a116.78 116.78 0 0 0-6.4-5.13l-.62 5.7c-2.94 1.03-6.02.73-8.88-.37z"/><path fill="#010101" opacity=".77" d="M211.24 293.39c2.94-1.17 6.23-1.49 8.87-3.36l.28 1.24c-2.92 1.66-6 3.37-7.6 6.47-1.17 2.33-3.32 3.81-5.68 4.77.58-3.29 1.59-6.79 4.13-9.12z"/><path fill="#797a72" d="M233.31 291.23l6.4 5.13-.04 6.97 1.88 1.54 1-4.52 3.24-.02c2.17 1.47 4.28 3.06 6.64 4.24-2.22 3.58-5.2 6.6-8.69 8.95-4.54-2.54-9.6-3.83-14.35-5.88-.98-1-1.88-2.07-2.95-2.97-1.28-.04-2.55.21-3.82.38l1.19-8.49c2.86 1.1 5.94 1.4 8.88.37l.62-5.7z"/><path fill="#5b5b58" d="M212.79 297.74c1.6-3.1 4.68-4.81 7.6-6.47.84 2.39.46 4.89-.21 7.27l3.63-1.98-1.19 8.49c1.27-.17 2.54-.42 3.82-.38 1.07.9 1.97 1.97 2.95 2.97-2.48-.29-4.97-.39-7.46-.35-1.7-.96-3.5-1.73-5.29-2.49.49 4.02 3.74 6.51 6.92 8.49-.08 1.66-.07 3.33-.09 5.01-2.91-1.55-5.12-4.05-7.88-5.78-2.73-.44-5.5-.18-8.25-.16.67-3.46 2.39-6.55 4.5-9.32-2.22 1.71-4.59 3.21-6.84 4.88-2.29 1.5-2.79 4.4-3.45 6.85-.21 1.14-.67 2.56.28 3.53 2.71 3.51 6.23 6.34 10.09 8.5-3.14.35-6.26.91-9.28 1.85l-1.65.47c-3.34-3.02-8.69-5.05-9.05-10.18-1.36-5.24 2.08-10 4.9-14.07 3.41-.87 7.14-.49 10.27-2.36 2.36-.96 4.51-2.44 5.68-4.77m-16.7 10.54c.09 3.6.57 7.19.45 10.8 3.42-3.36 2.89-8.76 4-13.12-1.43.78-3.74.71-4.45 2.32m4.7 19.08l2.23-1.47c-1.12-1.67-1.74-4.17-4.08-4.43-2.22 1.98.5 4.34 1.85 5.9z"/><path opacity=".85" d="M294.48 299.45l3.17-2.84c3.11 2.24 7 2.7 10.51 4.04.3 2.36.32 4.76.77 7.11a21.01 21.01 0 0 0 3.23 1.05c-2.3-.34-4.34-1.42-6.31-2.58l-2.45 1.58a167.47 167.47 0 0 0-6.46-6.05l-2.46-2.31z"/><path fill="#909686" d="M293.2 300.58l1.28-1.13 2.46 2.31c-1.18 6.31 3.38 11.27 6.15 16.43-2.37-.74-4.61-1.8-6.77-2.99-2.84-1.54-6.03-2.18-9.15-2.85l-2.53 3.92c-2.5-3-5.13-5.87-7.82-8.69 2.99-1.04 6.17-1.08 9.29-1.32.82-.56 1.62-1.13 2.4-1.75 1.75.56 3.52 1.05 5.31 1.51-.17-1.82-.36-3.63-.62-5.44z"/><path fill="#514f54" d="M296.94 301.76l6.46 6.05 1.07 9.13c4.37.74 8.76 1.32 13.18 1.57a100.27 100.27 0 0 0-.53 2.61l-3.1 1.27c4.13 6.34 9.22 11.98 13.53 18.19 1.71 2.02.84 4.78.74 7.16l-2.54 1.54c-.23-2.9-1.19-5.73-3.08-7.98-3.91-4.76-7.1-10.13-11.62-14.36l-7.96-8.75c-2.77-5.16-7.33-10.12-6.15-16.43z"/><path fill="#505151" d="M205 307.92l6.84-4.88c-2.11 2.77-3.83 5.86-4.5 9.32 2.75-.02 5.52-.28 8.25.16 2.76 1.73 4.97 4.23 7.88 5.78.02-1.68.01-3.35.09-5.01a80.74 80.74 0 0 1 .96-3.47l1.94.39c1.14 2.41 3.06 4.28 5.03 6.02l-1.05 5.08c1.79 1.33 3.59 2.67 5.47 3.89-4.04-1-8.13-1.92-11.95-3.63-.91 1.38-1.8 2.76-2.66 4.17l5.8 4c-8.13-.7-16.31-2.2-24.46-1.09 3.02-.94 6.14-1.5 9.28-1.85-3.86-2.16-7.38-4.99-10.09-8.5-.95-.97-.49-2.39-.28-3.53.66-2.45 1.16-5.35 3.45-6.85z"/><path fill="#777a7b" d="M216.64 304.8l5.29 2.49 2.59 2.53-.96 3.47c-3.18-1.98-6.43-4.47-6.92-8.49z"/><path fill="#686960" d="M243.74 313.52c3.49-2.35 6.47-5.37 8.69-8.95 2.61.84 5.2 1.8 7.58 3.19-2.71 3.2-4.7 6.96-4.88 11.22l-1.02-3.12a83.8 83.8 0 0 0-2.26 1.97c-2.75-1.34-5.43-2.83-8.11-4.31z"/><path fill="#878687" d="M196.09 308.28c.71-1.61 3.02-1.54 4.45-2.32-1.11 4.36-.58 9.76-4 13.12.12-3.61-.36-7.2-.45-10.8z"/><path fill="#69686b" d="M303.4 307.81l2.45-1.58c1.97 1.16 4.01 2.24 6.31 2.58 2.47.49 5.04.67 7.33 1.83l-1.84 7.87c-4.42-.25-8.81-.83-13.18-1.57a147.48 147.48 0 0 1-1.07-9.13m8.43 5.15l-.03 4.4 5.37.01c.07-1.83 1.26-4.04-.32-5.55-1.81-.63-3.41.53-5.02 1.14z"/><path fill="#3d3d37" d="M221.93 307.29c2.49-.04 4.98.06 7.46.35 4.75 2.05 9.81 3.34 14.35 5.88 2.68 1.48 5.36 2.97 8.11 4.31-.82 1.16-1.55 2.38-2.26 3.6-.21.38-.65 1.12-.86 1.49l-4.64-1.73.26-3.64c-4.26-3.13-8.85-6.16-14.26-6.71l-3.63-.63a110.85 110.85 0 0 1-1.94-.39l-2.59-2.53z"/><path fill="#9da38d" d="M272.99 309.3l3.83-1.72c2.69 2.82 5.32 5.69 7.82 8.69 3.71 4.64 8.15 8.67 11.56 13.55 2.55 3.66 5.73 6.79 8.89 9.91-2.04.97-3.98 2.15-5.93 3.3l-1.99-1.23c-2.17-.46-4.38-.6-6.58-.61l-.38 3.36-2.47 1.83c-3.54-6.05-10.36-8.12-16.51-10.4l1.95-1.48c1.73.05 3.5.29 5.2-.16.21-1.14.32-2.3.43-3.45-1.84-.9-3.59-1.98-5.14-3.32 2.27-.17 4.56-.21 6.83-.12l.9.04c1.56-.16 4.02.6 4.49-1.48-2.07-4.53-5.75-8.02-8.91-11.78-1.38-1.61-2.69-3.26-3.99-4.93z"/><path fill="#8b8c8f" d="M226.46 310.21l3.63.63c3.86 4.38 8.42 8.38 14 10.35 1.53.6 3.08 1.17 4.64 1.73l3.31 1.16-2.14 2.86c-5.72-2.37-11.37-4.9-16.79-7.9l-2.67 2.27 1.05-5.08c-1.97-1.74-3.89-3.61-5.03-6.02z"/><path fill="#67615a" d="M230.09 310.84c5.41.55 10 3.58 14.26 6.71l-.26 3.64c-5.58-1.97-10.14-5.97-14-10.35z"/><path fill="#59585f" d="M287.17 312.35c3.12.67 6.31 1.31 9.15 2.85l-2.86 2.23c1.82 5.32 8.74 4.18 11.5 8.6 2.65 3.48 5.85 6.96 6.21 11.55l-4.89 1.69-1.19.46c-3.16-3.12-6.34-6.25-8.89-9.91-3.41-4.88-7.85-8.91-11.56-13.55l2.53-3.92z"/><path fill="#ffe64b" d="M311.83 312.96c1.61-.61 3.21-1.77 5.02-1.14 1.58 1.51.39 3.72.32 5.55-1.79.02-3.58.01-5.37-.01l.03-4.4z"/><path fill="#747378" d="M266.84 312.98c2.63.64 4.65 2.48 5.26 5.16-2.43-.92-4.57-2.55-5.26-5.16z"/><path fill="#636266" d="M276.98 314.23c3.16 3.76 6.84 7.25 8.91 11.78-.47 2.08-2.93 1.32-4.49 1.48-1.61-4.18-4.74-7.46-7.37-10.99l2.74-.35.21-1.92z"/><path fill="#a5ae92" d="M296.32 315.2c2.16 1.19 4.4 2.25 6.77 2.99 2.57 2.99 5.28 5.85 7.96 8.75 2.21 3.31 2.84 7.29 3.07 11.2 2.2.47 4.9.37 6.41 2.35 2.37 2.67 3.02 6.3 3.91 9.65l-2.42 1c-2.69-.2-5.34-.75-7.92-1.52.45-1.71.92-3.41 1.22-5.15-.43-.82-.89-1.62-1.35-2.42-2.8-.13-5.69-.62-7.69-2.78 1.62-.59 3.25-1.14 4.89-1.69-.36-4.59-3.56-8.07-6.21-11.55-2.76-4.42-9.68-3.28-11.5-8.6l2.86-2.23z"/><path fill="#967059" d="M251.85 317.83l2.26-1.97 1.02 3.12c-1.15 2.07-3.23 3.04-5.54 2.45l2.26-3.6z"/><path fill="#666768" d="M230.44 321.31l2.67-2.27c5.42 3 11.07 5.53 16.79 7.9l.81.37c-.98.49-1.97.96-2.96 1.42-4.31.53-8.18-1.61-11.84-3.53-1.88-1.22-3.68-2.56-5.47-3.89z"/><path fill="#6b6b6f" d="M271.47 319.5c4.19 1.07 6.41 4.89 9.03 7.95-2.27-.09-4.56-.05-6.83.12 1.55 1.34 3.3 2.42 5.14 3.32-.11 1.15-.22 2.31-.43 3.45-1.7.45-3.47.21-5.2.16l-1.95 1.48c-1.34-3.67-.35-7.57-.03-11.32.15-1.72.19-3.45.27-5.16z"/><path fill="#3f3f3c" d="M223.96 321.57c3.82 1.71 7.91 2.63 11.95 3.63 3.66 1.92 7.53 4.06 11.84 3.53l-2.23.76c-6.81.05-13.56 1.44-20.38 1.09-5.1-.74-10.24-1.14-15.39-1.39-2.92-.11-5.87.66-8.76-.07l1.65-.47c8.15-1.11 16.33.39 24.46 1.09l-5.8-4c.86-1.41 1.75-2.79 2.66-4.17z"/><path fill="#7a7979" d="M200.79 327.36c-1.35-1.56-4.07-3.92-1.85-5.9 2.34.26 2.96 2.76 4.08 4.43l-2.23 1.47z"/><path fill="#818580" d="M311.05 326.94c4.52 4.23 7.71 9.6 11.62 14.36 1.89 2.25 2.85 5.08 3.08 7.98l-1.31.86c-.89-3.35-1.54-6.98-3.91-9.65-1.51-1.98-4.21-1.88-6.41-2.35-.23-3.91-.86-7.89-3.07-11.2z"/><path fill="#8c9182" d="M305.09 339.73l1.19-.46c2 2.16 4.89 2.65 7.69 2.78l1.35 2.42a8.13 8.13 0 0 0-6.18.4c1.3 2.49 4.03 4.73 3.63 7.77-2.19.32-4.41.39-6.62.48l-.44-6.92-3.2.38-3.35-3.55 5.93-3.3z"/><path fill="#7e7e83" d="M290.59 341.19c2.2.01 4.41.15 6.58.61l-4.52 1.99c3.21 1.16 6.65 2.26 8.85 5.05l-1.78 3.85c-3.18-.68-6.38-1.21-9.59-1.62l1.57-5.19-1.49-1.33.38-3.36z"/><path fill="#4f4f51" d="M292.65 343.79l4.52-1.99 1.99 1.23 3.35 3.55-1.01 2.26c-2.2-2.79-5.64-3.89-8.85-5.05z"/><path fill="#454347" d="M309.14 344.87a8.13 8.13 0 0 1 6.18-.4c-.3 1.74-.77 3.44-1.22 5.15 2.58.77 5.23 1.32 7.92 1.52-5.35.83-10.57 2.31-15.94 2.97l.07-.99c2.21-.09 4.43-.16 6.62-.48.4-3.04-2.33-5.28-3.63-7.77z"/><path fill="#6a6b70" d="M290.21 344.55l1.49 1.33-1.57 5.19 9.59 1.62 1.78-3.85 1.01-2.26 3.2-.38.44 6.92-.07.99-.25 2.02c-3.9.63-7.72 2.14-11.67 2.18-3.6-3.03-4.89-7.69-6.42-11.93l2.47-1.83z"/></svg>