<svg xmlns="http://www.w3.org/2000/svg" width="682.667" height="682.667" viewBox="0 0 512 512" xmlns:v="https://vecta.io/nano"><path fill="#696867" opacity=".97" d="M250.76 181.91c3.58-7.8 13.55-17.38 21.52-8.94-.42 5.21-7.03 7.58-9.6 2.3-4.63 2.11-7.58 6.75-11.64 9.78l-.28-3.14z"/><path fill="#535351" d="M272.28 172.97c5.5 4.89 14.02 6.56 17.49 13.63-.07 4.98 6.09 10.87 1.04 15.43-.78-3.9-4.78-6.18-8-3.26-7.14-.58-14.21-2.93-20.87-5.62 8.77-2.47 18.31-.93 26.16 3-.65-10.9-12.74-9.93-20.94-11.12-.38 4.95-4.55 4.33-7.79 6.46-3.8 3.7 4.3 5.14 6.87 6.17-8.52-1.15-14.23 8.82-14.82 16.25.9 3.42-3.08 3.66-5.48 3.45l-2.24-1.79c11.6-3.65 3.86-16.58 8.82-24.4-1.58-2.87-3.97-5.73-1.76-9.26l.28 3.14c4.06-3.03 7.01-7.67 11.64-9.78 2.57 5.28 9.18 2.91 9.6-2.3z"/><path fill="#7a7c7d" d="M267.16 185.03c8.2 1.19 20.29.22 20.94 11.12-7.85-3.93-17.39-5.47-26.16-3l-2.57-1.66c3.24-2.13 7.41-1.51 7.79-6.46z"/><path fill="#bd8e71" d="M290.81 202.03c5.05-4.56-1.11-10.45-1.04-15.43 10.27 6.5 18.91 15.44 29.58 21.27-.18 3.06-1.5 5.84-3.39 8.21-2.38-.07-4.7-.65-7.02-1.1-5.69-3.07-11.77-5.34-17.99-7.08a79.47 79.47 0 0 0-1.41-1.17l-.35-2.46c.56-.73 1.1-1.48 1.62-2.24z"/><path fill="#36332f" d="M266.24 197.66c-2.57-1.03-10.67-2.47-6.87-6.17l2.57 1.66c6.66 2.69 13.73 5.04 20.87 5.62 3.22-2.92 7.22-.64 8 3.26-.52.76-1.06 1.51-1.62 2.24-5.72-3.49-12.97-3.51-19.34-5.37a80.96 80.96 0 0 0-3.61-1.24z"/><path fill="#7c7c74" d="M251.42 213.91c.59-7.43 6.3-17.4 14.82-16.25a80.96 80.96 0 0 1 3.61 1.24c1.24 5.97 8.57 3.62 12.96 4.28 1.94 4.03 2.95 8.54 4.12 12.87 1.27 3.52-3.16.29-4.85.08 2.52-4.37.95-11.12-4.76-10.75-4.68 2.35-12.07-3.1-14.25 3.67-5.68 5.91 3.53 3.26 7.2 4.48l-3.54.7c8.53 3.65 21.6 2.76 26.39 11.81-5.96.18-11.12-3.52-16.78-4.45-3.43 1.02-6.22-1.39-9.33-2.24-7.41.67-14.69 1.96-22.11 2.39.25-1.49.65-2.93 1.04-4.38 2.4.21 6.38-.03 5.48-3.45z"/><path fill="#61615e" d="M269.85 198.9c6.37 1.86 13.62 1.88 19.34 5.37l.35 2.46c-2.49 8.05 6.57 10.32 9.57 16.24 1.01 2.69 4.7.63 6.2 2.86-1.6 2.74-1.44 7.66-5.31 8.15-1.83-.09-1.99 1.51-2.23 2.92-3.96-.33-8.06-1.67-11.92-.29-5.08 1.22-8.44 6.41-14.07 5.83l-1.61-.19c-4.59-.78-9.55-1.17-13.91.81-7.77 9.92-3.12 30.51 11.76 29.91 4.47 1.26 10.94-3.69 14.08 1.14 1.14 4.61 1.65 8.8-3.35 4.62 3.79-2.44.66-3.84-2.57-3.72-1.02 2.32-.45 5-4.02 4.78.01-3.57-7.69-6.35-5.59-1.41 1.83 4.21-4.07 1.29-6.43 1.97-3.83-1.67 4.45-4.2 1.2-6.68-3.73-3.11-7.23-.5-7.82 3.17-3.98-.92-6.64-5.18-8.81-8.47.48-2.14-5.32-8.58.2-7.52-1.99 5.31.74 7.5 5.04 8.13-1.69-2.88-.11-11.11-5.04-8.13-.26-7.79-2.23-17.2 6.1-21.97-.52 4.93-7.43 9.17-3.91 14.34 2.26-9.14 11.72-12.59 15.97-20.36-2.17-.02-4.18.72-6.04 1.76-.63-3.61-5.73-.45-8.32-1.31 5.3-3.79 12.28-1.87 18.33-2.36 10.46-1.38 4.18.6 1.87 1.6 2.6 1.57 10.41 2.67 9.96-1.23-5.84-2.23-12.16-2.65-17.94-4.93-5.2.86-9.98 3.55-14.79 5.58-1.56.69-1.25 1.12.93 1.31-2.68 1.93-5.57 4.45-9.02 2.6-.4-2.71 4.58-1.71 3.55-4.54-1.28-2.96 4.93-5.46.67-7.38-3.11-.29-2.55-3.19-2.18-5.83 1.06-1.03 2.33-1.81 3.61-2.56l2.24 1.79c-.39 1.45-.79 2.89-1.04 4.38 7.42-.43 14.7-1.72 22.11-2.39 3.11.85 5.9 3.26 9.33 2.24 5.66.93 10.82 4.63 16.78 4.45-4.79-9.05-17.86-8.16-26.39-11.81l3.54-.7c3.98.62 7.96 1.41 11.81 2.6 1.69.21 6.12 3.44 4.85-.08-1.17-4.33-2.18-8.84-4.12-12.87-4.39-.66-11.72 1.69-12.96-4.28z"/><path fill="#8d8e85" d="M263.07 209.05c2.18-6.77 9.57-1.32 14.25-3.67 5.71-.37 7.28 6.38 4.76 10.75-3.85-1.19-7.83-1.98-11.81-2.6-3.67-1.22-12.88 1.43-7.2-4.48z"/><path fill="#040404" opacity=".75" d="M299.11 222.97c-3-5.92-12.06-8.19-9.57-16.24l1.41 1.17c5.6 4.23 11.28 11.89 19.45 9.22 3.01 2.41 5.85 5.03 8.76 7.57 1.34 2.54 2.95 4.92 4.64 7.25-1.34 1.2-2.64 2.46-3.92 3.72-3.45.91-7.06 1.54-10.55.15-1.61-3.22-2.11-6.9-4.02-9.98-1.5-2.23-5.19-.17-6.2-2.86z"/><path fill="#696967" opacity=".98" d="M319.35 207.87c6.5-.15 11.47 5.01 16.03 8.92-1.04 4.81-10.21 5.11-9.47-.75-1.41-1.68-.78-7.36-4.47-5.84-1.05 2.58-1.68 6.82-5.48 5.88 1.89-2.37 3.21-5.15 3.39-8.21z"/><path fill="#575755" d="M321.44 210.2c3.69-1.52 3.06 4.16 4.47 5.84-.74 5.86 8.43 5.56 9.47.75 10.66 6.34-1.7 14.63.35 23.31-2.85.08-5.03-1.92-6.98-3.72-2.65-4.3-4.5-9.7-9.59-11.69-2.91-2.54-5.75-5.16-8.76-7.57l-1.46-2.14c2.32.45 4.64 1.03 7.02 1.1 3.8.94 4.43-3.3 5.48-5.88z"/><path fill="#4b4c4a" d="M238.83 219.83l1.26-1.7c-.37 2.64-.93 5.54 2.18 5.83 4.26 1.92-1.95 4.42-.67 7.38 1.03 2.83-3.95 1.83-3.55 4.54 3.45 1.85 6.34-.67 9.02-2.6l1.64.03c2.59.86 7.69-2.3 8.32 1.31-2.16 1.19-4.18 2.62-6.02 4.26-8.33 4.77-6.36 14.18-6.1 21.97-5.52-1.06.28 5.38-.2 7.52 2.17 3.29 4.83 7.55 8.81 8.47.59-3.67 4.09-6.28 7.82-3.17 3.25 2.48-5.03 5.01-1.2 6.68 2.36-.68 8.26 2.24 6.43-1.97-2.1-4.94 5.6-2.16 5.59 1.41 3.57.22 3-2.46 4.02-4.78 3.23-.12 6.36 1.28 2.57 3.72-5.33 2.14.28 2.69 3.15 3.57.73 2.88-3.27 2.52-5.04 3.09 1.42.57 2.88 1.06 4.33 1.58 3.02 6.57-9.89 7.21-8.97.21-9.05 3.86-12.96-5.69-20.4-6.19-4.96-5.29-14.9-4.98-17.71-11.75 7.72-3.4 1.55-14.01 5.85-20.25 1.63-2.64 2.72-7.42-1-8.78-4.87-.62-4.08-6.77-8.87-6.59-.01-1.95.47-3.86.73-5.79-7.08.49-8.66 10.63-4.06 13.68 8.94-3.76 4.17 6.89 5.05 11.28-.68 5.3-.65 10.65-1.03 15.98-1.64 3-4.47-.92-6.75-.98-1.15 5.02.83 9.71 3.18 13.97 3.6 1.45.07-3.92 2.26-5.24 1.78-1.5 4.16-6.85 5.48-.53 1.36 5.16 9.73 5.14 9.11 11.05-4.38.51-12.06-6.75-10.16 1.85-4.51-5.78-11.5-7.52-18.11-9.66-1.88-7.2-2.92-17.76 6.47-19.35 5.92.92 1.61-8.45 2.74-11.99.74-2.92-2.35-1.06-3.9-1.08-2.39-6.91-3.28-14.2-2.03-21.34 3.73-1.95 7.71-3.36 11.68-4.7 2.67-.28 6.36 1.6 8.08-.94z"/><path fill="#575754" d="M203.23 226.17c2.2-.96 4.57-1.47 6.81-.28a8.53 8.53 0 0 0 3.04 1.77c-10 3.05-8.63 14.95-.97 19.29-5.35-2.6-9.2 4.17-14.12 1.04-6.96-3.48-4.35-10.88-3.19-16.8-2.27-2.62-6.03 1.79-9.07.14 2.95-1.66 5.97-3.19 9.1-4.47 2.8-.1 5.74.42 8.4-.69z"/><path fill="#363635" opacity=".95" d="M319.16 224.69c5.09 1.99 6.94 7.39 9.59 11.69-1.9-1.18-3.62-2.64-4.95-4.44-1.69-2.33-3.3-4.71-4.64-7.25z"/><path fill="#232423" opacity=".5" d="M210.04 225.89l7.09.22c-1.25.76-2.64 1.24-4.05 1.55a8.53 8.53 0 0 1-3.04-1.77z"/><path fill="#75766f" d="M217.13 226.11l1.94-.64c-1.25 7.14-.36 14.43 2.03 21.34-2.97.67-6 .6-8.99.14-7.66-4.34-9.03-16.24.97-19.29 1.41-.31 2.8-.79 4.05-1.55z"/><path fill="#85837d" d="M246.14 231.97c4.81-2.03 9.59-4.72 14.79-5.58 5.78 2.28 12.1 2.7 17.94 4.93.45 3.9-7.36 2.8-9.96 1.23 2.31-1 8.59-2.98-1.87-1.6-6.05.49-13.03-1.43-18.33 2.36l-1.64-.03c-2.18-.19-2.49-.62-.93-1.31z"/><path fill="#474949" opacity=".96" d="M305.31 225.83c1.91 3.08 2.41 6.76 4.02 9.98 3.49 1.39 7.1.76 10.55-.15 4.31 2.06 3.34 6.57 4.28 10.22-3.65.77-4.63-.04-2.27-3.01-.47-8.82-11.96-6.55-16.42-1.76l-7.7-4.21c.24-1.41.4-3.01 2.23-2.92 3.87-.49 3.71-5.41 5.31-8.15z"/><path fill="#76746e" d="M226.76 241.51c-4.6-3.05-3.02-13.19 4.06-13.68-.26 1.93-.74 3.84-.73 5.79 4.79-.18 4 5.97 8.87 6.59 1.25 4.1-1.88 6.32-3.1 9.6-7.33 1.24.41 16.22-3.82 20.17l-.23-17.19c-.88-4.39 3.89-15.04-5.05-11.28z"/><path fill="#3f4041" opacity=".97" d="M185.73 231.33c3.04 1.65 6.8-2.76 9.07-.14-1.16 5.92-3.77 13.32 3.19 16.8 4.92 3.13 8.77-3.64 14.12-1.04 2.99.46 6.02.53 8.99-.14 1.55.02 4.64-1.84 3.9 1.08-8.3.85-16.34 4.01-24.78 2.96-3.81-.98-7.67-.66-11.51-.2-3.25.17-6.47.4-9.72.44-2.82-1.91-4.61-5.01-4.93-8.38-1.14-7.26 5.85-9.93 11.67-11.38m-6.52 3.81c-1.93 1.58-.61 4.77-2.69 6.22 1.23 1.75 2.42 9.52 7.61 8.66-1.45-2.32-4.9-3.84-3.59-7.02-.71-2.35 2.03-8.48-1.33-7.86z"/><path fill="#7c7d7d" d="M257.03 234.62c1.86-1.04 3.87-1.78 6.04-1.76-4.25 7.77-13.71 11.22-15.97 20.36-3.52-5.17 3.39-9.41 3.91-14.34 1.84-1.64 3.86-3.07 6.02-4.26z"/><path fill="#606163" d="M179.21 235.14c3.36-.62.62 5.51 1.33 7.86-1.31 3.18 2.14 4.7 3.59 7.02-5.19.86-6.38-6.91-7.61-8.66 2.08-1.45.76-4.64 2.69-6.22z"/><path fill="#85847f" d="M285.85 236.61c3.86-1.38 7.96-.04 11.92.29l7.7 4.21c.25 1.54.48 3.09.54 4.66-11.35-4.18-1.12 9.94-7.73 11.45-.08-2.32 2.14-9.41-.54-6.02-.69-3.22.34-6.75-1.01-9.83-3.54-1.78-8.41-1.28-10.88-4.76z"/><path fill="#81817d" d="M271.78 242.44c5.63.58 8.99-4.61 14.07-5.83-.72 7.58-8.26 8.3-14.07 5.83z"/><path fill="#96958e" d="M285.85 236.61c2.47 3.48 7.34 2.98 10.88 4.76 1.35 3.08.32 6.61 1.01 9.83.02 1.81-.09 4.83-2.61 4.63-7.01-.35-13.99-1.2-21.01-1.38-2.04 10.11 9.62 2.39 14.96 5.39 4.72 1.07-.65 1.08-3.63 1.55-3.14 9.56-15.78 4.09-22.67 3.8-8.7-.72-7.68-14.46-.46-16.89 1.13-3.7 4.36-5.16 7.85-6.05.41.04 1.21.14 1.61.19 5.81 2.47 13.35 1.75 14.07-5.83z"/><path fill="#676870" d="M305.47 241.11c4.46-4.79 15.95-7.06 16.42 1.76-2.36 2.97-1.38 3.78 2.27 3.01-.41 3.02.19 8.2-4.01 8.39-3.89.16-3.44 7.23.75 5.68 1.27-.07 2.39.22 3.36.88-.93 3.05.61 8.2-3.89 8.52 2.96 3.63-.25 6.95-3.29 9.13-2.09-3.52-9.02-.79-9.53-7.28-4.85 6.23-12.17 8.03-19.75 8.06 3.16 1.99 6.47 3.54 3.99 7.78-3.55-.04-7.06 0-10.6-.07-1.45-.52-2.91-1.01-4.33-1.58 1.77-.57 5.77-.21 5.04-3.09-2.87-.88-8.48-1.43-3.15-3.57 5 4.18 4.49-.01 3.35-4.62 6.34-.85 12.86-1.26 18.97-3.27-1.02-2.21-7.02-5.86-2.35-7.29 4.69 2.58.3-10.08.26-3.5.85 4.53-5.22-3.74-3.85-4.22 2.52.2 2.63-2.82 2.61-4.63 2.68-3.39.46 3.7.54 6.02 6.61-1.51-3.62-15.63 7.73-11.45-.06-1.57-.29-3.12-.54-4.66m6.63 12.97c-1.99 1.87-.25 8.07 2.93 4.98 4.32-1.52-1.15-3.82-2.93-4.98z"/><path fill="#62615e" d="M238.96 240.21c3.72 1.36 2.63 6.14 1 8.78-4.3 6.24 1.87 16.85-5.85 20.25 2.81 6.77 12.75 6.46 17.71 11.75 7.44.5 11.35 10.05 20.4 6.19-.92 7 11.99 6.36 8.97-.21l10.6.07c5.18 1.06 6.46 5.84 3.14 9.73 7.22-2.53 5.85 4.13 1.6 1.85-8.78 3.1-.01-7.24-6.25-6.54-.71 3-1.63 5.66-5.19 3.97.66-2.29 3.2-6.67-3.9-2.76-10.9 2.03-22.45 2.93-32.87-1.69-2.58-.83-9.65-4.08-8.33 1.3-1.82-1.64-3.63-3.39-6.09-4.01-1.9-8.6 5.78-1.34 10.16-1.85.62-5.91-7.75-5.89-9.11-11.05-1.32-6.32-3.7-.97-5.48.53-2.19 1.32 1.34 6.69-2.26 5.24-2.35-4.26-4.33-8.95-3.18-13.97 2.28.06 5.11 3.98 6.75.98.38-5.33.35-10.68 1.03-15.98l.23 17.19c4.23-3.95-3.51-18.93 3.82-20.17 1.22-3.28 4.35-5.5 3.1-9.6z"/><path fill="#82817e" d="M256.26 243.06c4.36-1.98 9.32-1.59 13.91-.81-3.49.89-6.72 2.35-7.85 6.05-7.22 2.43-8.24 16.17.46 16.89 6.89.29 19.53 5.76 22.67-3.8 2.98-.47 8.35-.48 3.63-1.55-5.34-3-17 4.72-14.96-5.39 7.02.18 14 1.03 21.01 1.38-1.37.48 4.7 8.75 3.85 4.22.04-6.58 4.43 6.08-.26 3.5-4.67 1.43 1.33 5.08 2.35 7.29-6.11 2.01-12.63 2.42-18.97 3.27-3.14-4.83-9.61.12-14.08-1.14-14.88.6-19.53-19.99-11.76-29.91m31.08 14.18c2.47 3.31 4.9-2.27 0 0z"/><path fill="#3d3e3e" opacity=".91" d="M324.16 245.88c.94 1.35 3.14 2.65 2.28 4.52-.32 4.67-7.3 4.11-5.54 9.55-4.19 1.55-4.64-5.52-.75-5.68 4.2-.19 3.6-5.37 4.01-8.39z"/><path fill="#181714" opacity=".59" d="M188.71 250.65c3.84-.46 7.7-.78 11.51.2-3.84.14-7.69-.03-11.51-.2z"/><path fill="#e3e1e5" d="M312.1 254.08c1.78 1.16 7.25 3.46 2.93 4.98-3.18 3.09-4.92-3.11-2.93-4.98z"/><path fill="#d2d6dc" d="M287.34 257.24c4.9-2.27 2.47 3.31 0 0z"/><path fill="#313232" opacity=".96" d="M198.84 266.14c2.33-11.42 15.29-7.85 23.42-6.26-9.39 1.59-8.35 12.15-6.47 19.35-6.38-3.29-16.48-4.21-16.95-13.09m7.41-6.93c-4.38 3.07-7.17 10.85-1.3 13.93-1.72-5-1.52-10.67 4.02-13.1 2.82-1.68-1.52-1-2.72-.83z"/><path fill="#616060" d="M206.25 259.21c1.2-.17 5.54-.85 2.72.83-5.54 2.43-5.74 8.1-4.02 13.1-5.87-3.08-3.08-10.86 1.3-13.93z"/><path fill="#828282" d="M244.91 260.85c4.93-2.98 3.35 5.25 5.04 8.13-4.3-.63-7.03-2.82-5.04-8.13z"/><path fill="#393c38" opacity=".9" d="M324.26 260.83c4.07 2.49 1.59 6.8-.7 9.57-.03 2.32.48 4.69-.45 6.93-1.88 1.08-3.88 1.98-6.03 1.15 3.04-2.18 6.25-5.5 3.29-9.13 4.5-.32 2.96-5.47 3.89-8.52z"/><path fill="#4a4a4c" d="M287.8 279.26c7.58-.03 14.9-1.83 19.75-8.06.51 6.49 7.44 3.76 9.53 7.28-3.43.26-9.21-2.27-10.01 2.36 2.2 1.25 4.53 2.25 6.85 3.25 1.33 4.67 4.04 10.75-1.03 14.11-2.26 1.53-2.69-.18-2.95-2.21-4.06 2.34-6.98 6.79-9.43 10.79-2.05-.86-4.12-1.96-6.31-.8.62-7.24-9.41-4.15-13.06-1.11-.04-9.49-12.78-1.71-18.13-3.84-.44-4.91 8.34-.75 11.26-2.74l10.82-2.24c3.56 1.69 4.48-.97 5.19-3.97 6.24-.7-2.53 9.64 6.25 6.54 4.25 2.28 5.62-4.38-1.6-1.85 3.32-3.89 2.04-8.67-3.14-9.73 2.48-4.24-.83-5.79-3.99-7.78z"/><path fill="#0a0a0a" opacity=".76" d="M335.24 276.16c10.12-3.68 4.28 11.74 15.95 6.03l-5.41 1.9c-6.27 3.92-3.78-6.76-8.77-7.5l-1.29 2.24c-.75 1.52-.54 3.92-2.6 4.32l-1.86-.32c-3.51-1.06-6.96-1.02-10.35.11l-2.29 1.35a184.59 184.59 0 0 0-4.7-.2c-2.32-1-4.65-2-6.85-3.25.8-4.63 6.58-2.1 10.01-2.36 2.15.83 4.15-.07 6.03-1.15.96.04 1.93.07 2.89-.13l9.24-1.04z"/><path fill="#888993" d="M335.72 278.83l1.29-2.24c.89 2.43 1.82 4.89 2.07 7.49-3.11.4-3.33-3.02-3.36-5.25z"/><path fill="#515157" d="M337.01 276.59c4.99.74 2.5 11.42 8.77 7.5-.39 3.78 2.56 6.13 4.4 8.97-4.99-.81-9.7-3.31-14.85-3.03-.81-2.27-1.49-4.58-2.21-6.88 2.06-.4 1.85-2.8 2.6-4.32.03 2.23.25 5.65 3.36 5.25-.25-2.6-1.18-5.06-2.07-7.49z"/><path fill="#222226" opacity=".59" d="M356.96 281.99c1.44-2.24 5.47-2.61 7.15-.28l-7.15.28z"/><path fill="#4b4e47" opacity=".84" d="M320.91 282.94c3.39-1.13 6.84-1.17 10.35-.11-3.48-.02-6.89.03-10.35.11z"/><path fill="#888c81" d="M351.19 282.19l2.58-.01 3.86 1.83c-.54 2.32-.28 5.68 2.43 6.44-2.65 2.44-16.26 4.04-4.24 3.17 13.79 1.25 27.5 4.04 41.14 6.52l1.03 2.19c-3.45 3.41-8.56 4.66-12.77 6.91-9.22-2.32-18.71-1.72-28.09-1.03-1.96.56-4.94.3-5.47 2.79-1.1-.52-2.21-1.04-3.41-1.23-2.74-.46-5.44-.69-8.18-.77 3.02-5.18-3.75-1.5-6.38-.86l-1.03-1.15c.48-4.44 9.01-.29 8.35-4.92-4.03-.56-8.09-1-12.15-1.11l-6.9.06c-5.4 2.16-5.69-1.23-9.07-2.82 5.07-3.36 2.36-9.44 1.03-14.11l4.7.2c1.7.36 3.42.6 5.15.73l1.57 6.22c-1.31 1.06-5.8 1.51-3.22 3.5 4.3-1.75 9.73-1.44 13.21-4.71 5.15-.28 9.86 2.22 14.85 3.03-1.84-2.84-4.79-5.19-4.4-8.97l5.41-1.9m-14.83 11.2c-2.54 3.1-9.01-.79-11.57 3.35 4.95-1.57 10.71 7.61 14.6 1.49 10.58 1.71 21.07 2.34 31.55 4.77 3.73-.7.84-3.48-1.59-3.45-7.58.44-14.77-4.31-22.47-2.92-5.17 2.94-5.71-4.11-10.52-3.24m42.85 10.75c-3.49 3.2 3.8 1.53 5.77 1.8.92-3.4-3.82-1.63-5.77-1.8z"/><path fill="#505156" d="M353.77 282.18l3.19-.19 7.15-.28c.84.93 1.48 2.02 1.9 3.21-.75 5.19 5.61 5.26 9.17 5.05 1.2.49 2.43.93 3.66 1.36 1.18 1.11 2.87 1.05 4.29.44l11.87 2.1c2.2 1.4 2.09 3.95 1.96 6.27-13.64-2.48-27.35-5.27-41.14-6.52-12.02.87 1.59-.73 4.24-3.17 3.76-1.61 1.81-9.86-2.43-6.44-1.31-.57-2.59-1.2-3.86-1.83z"/><path fill="#9ca39f" d="M318.62 284.29l2.29-1.35 10.35-.11 1.86.32 2.21 6.88c-3.48 3.27-8.91 2.96-13.21 4.71-2.58-1.99 1.91-2.44 3.22-3.5 2.61-.95 7.84-.99 6.63-5.04-2.31-1.63-5.54-2.33-8.2-1.18-1.73-.13-3.45-.37-5.15-.73z"/><path fill="#e5b952" d="M357.63 284.01c4.24-3.42 6.19 4.83 2.43 6.44-2.71-.76-2.97-4.12-2.43-6.44z"/><path fill="#b4f2fe" d="M323.77 285.02c2.66-1.15 5.89-.45 8.2 1.18 1.21 4.05-4.02 4.09-6.63 5.04l-1.57-6.22z"/><path fill="#0b0c0c" opacity=".71" d="M366.01 284.92c2.42 2.76 6.99 1.88 9.17 5.05-3.56.21-9.92.14-9.17-5.05z"/><path fill="#50504e" opacity=".98" d="M233.9 288.89c2.46.62 4.27 2.37 6.09 4.01 2.64 1.22 5.38 2.2 8.16 3.09-5.61 3.72-7.64 16.83 1.05 18.96-1.88.76-3.76 1.61-5.32 2.93 3.19 1.61 6.83-.33 10.04.83-3.2 3.17 1.96 4.62-.19 7.54 1.45.83 2.97 1.51 4.52 2.14-2 1.62-7.76.22-5.49 3.77.6 4.44 6.68 1.53 8.78 4.92-4.95 1.92-9.85 4.6-14.83 5.85 1.79-2.3 9.1-8.46-.23-5.28-3.69 1.08-6.46-1.83-8.36-4.56-.51-2.52-1.48-4.9-2.37-7.29 1.39-4.35-1.08-3.42-3.96-1.83.59-3.76 7.29-2.54 5.75-6.58-1.86-6.23.65-11.99 3.55-17.39-1.38-4.18-4.79-7.44-7.19-11.11z"/><path fill="#807d75" d="M239.99 292.9c-1.32-5.38 5.75-2.13 8.33-1.3 10.42 4.62 21.97 3.72 32.87 1.69 7.1-3.91 4.56.47 3.9 2.76l-10.82 2.24c-8.82.32-17.5-.72-26.12-2.3-2.78-.89-5.52-1.87-8.16-3.09z"/><path fill="#1f1f22" opacity=".58" d="M378.84 291.33c1.38-.71 3.19-.86 4.29.44-1.42.61-3.11.67-4.29-.44z"/><path fill="#676769" d="M336.36 293.39c4.81-.87 5.35 6.18 10.52 3.24 7.7-1.39 14.89 3.36 22.47 2.92 2.43-.03 5.32 2.75 1.59 3.45-10.48-2.43-20.97-3.06-31.55-4.77-3.89 6.12-9.65-3.06-14.6-1.49 2.56-4.14 9.03-.25 11.57-3.35z"/><path fill="#28292b" opacity=".9" d="M395 293.87c4.88-.5 6.79 5.6 2.99 8.46l-1.03-2.19c.13-2.32.24-4.87-1.96-6.27z"/><path fill="#6e6f67" d="M248.15 295.99c8.62 1.58 17.3 2.62 26.12 2.3-2.92 1.99-11.7-2.17-11.26 2.74 5.35 2.13 18.09-5.65 18.13 3.84-.84 1.27-1.7 2.55-2.38 3.92-2.62 4.19 4.94.6 7.22 1.14-2.43 1.68-6.34 1.1-8.01 3.64-9.27 2.74-19.25-.8-28.77 1.38-8.69-2.13-6.66-15.24-1.05-18.96z"/><path fill="#585755" opacity=".98" d="M300.51 306.78c2.45-4 5.37-8.45 9.43-10.79.26 2.03.69 3.74 2.95 2.21 3.38 1.59 3.67 4.98 9.07 2.82l.27 5.22c-5.44 8.25-16.42 12.82-26.33 11.75 4-.88 8.06-6.47 3.16-9.1-3.01-3.39-6.67.61-10.29 0l3.58-1.89 1.85-1.02c2.19-1.16 4.26-.06 6.31.8z"/><path fill="#0c0b0b" opacity=".74" d="M281.14 304.87c3.65-3.04 13.68-6.13 13.06 1.11l-1.85 1.02c-2.55-5.13-9.67.54-13.59 1.79.68-1.37 1.54-2.65 2.38-3.92z"/><path fill="#262526" opacity=".53" d="M321.96 301.02l6.9-.06.46.7c-4.33-.91-6.73.63-7.09 4.58l-.27-5.22z"/><path fill="#676965" opacity=".98" d="M328.86 300.96c4.06.11 8.12.55 12.15 1.11.66 4.63-7.87.48-8.35 4.92-1.15-1.76-2.13-3.62-3.34-5.33l-.46-.7z"/><path fill="#484748" d="M379.21 304.14c1.95.17 6.69-1.6 5.77 1.8-1.97-.27-9.26 1.4-5.77-1.8z"/><path fill="#565755" opacity=".94" d="M333.69 308.14c2.63-.64 9.4-4.32 6.38.86l-3.32.32a6.46 6.46 0 0 1-3.06-1.18z"/><path fill="#b38367" d="M288.77 308.89c3.62.61 7.28-3.39 10.29 0 4.9 2.63.84 8.22-3.16 9.1-5.97 3.18-11.73 6.77-17.96 9.46-1.28-3.09 5.07-6.73.32-9.71.14-1.4.41-2.87-.29-4.17 1.67-2.54 5.58-1.96 8.01-3.64.92-.37 1.85-.71 2.79-1.04z"/><path fill="#646567" opacity=".96" d="M357.13 308.21c9.38-.69 18.87-1.29 28.09 1.03-6.45-.81-6.47 3.15-5.43 7.38-6.34 4.17-13.63 6.3-20.56 1.38-.81-1.62-1.19-3.9-3.3-4.25 2.47-.63 5.08-1.08 7.3-2.43-3.12.21-10.29-4.16-10.16.92l-1.41-1.24c.53-2.49 3.51-2.23 5.47-2.79m13.89 3.81c-1.09 7.32 7.32-1.09 0 0z"/><path fill="#2f2f2d" opacity=".52" d="M336.75 309.32l3.32-.32c2.74.08 5.44.31 8.18.77a73.56 73.56 0 0 1-11.5-.45z"/><path fill="#b9b7be" d="M371.02 312.02c7.32-1.09-1.09 7.32 0 0z"/><path fill="#3a3833" d="M249.2 314.95c9.52-2.18 19.5 1.36 28.77-1.38.7 1.3.43 2.77.29 4.17-7.5 2.81-16.65-4.7-23.62 1.24l-.72-.27c-3.21-1.16-6.85.78-10.04-.83 1.56-1.32 3.44-2.17 5.32-2.93z"/><path fill="#615d5a" d="M254.64 318.98c6.97-5.94 16.12 1.57 23.62-1.24 4.75 2.98-1.6 6.62-.32 9.71l-4.78 2.62c-3.73-3.77-10.04-1.93-14.91-1.68-1.55-.63-3.07-1.31-4.52-2.14 5.93-6.16 21.68 3.72 22.3-6.35-6.7 1.96-15.53 3.69-21.39-.92z"/><path fill="#818285" d="M253.73 326.25c2.15-2.92-3.01-4.37.19-7.54l.72.27c5.86 4.61 14.69 2.88 21.39.92-.62 10.07-16.37.19-22.3 6.35z"/><path fill="#646363" opacity=".97" d="M231.79 323.97c2.88-1.59 5.35-2.52 3.96 1.83-.81 2.59-1.17 6.85 2.37 7.29 1.9 2.73 4.67 5.64 8.36 4.56 9.33-3.18 2.02 2.98.23 5.28-2.62-.08-5.19-.39-7.67-1.17l-3.01-2.03c-1.51-5.16-5.93-10.19-4.24-15.76z"/><path fill="#908e91" d="M238.12 333.09c-3.54-.44-3.18-4.7-2.37-7.29.89 2.39 1.86 4.77 2.37 7.29z"/><path fill="#3e3d3b" opacity=".97" d="M258.25 328.39c4.87-.25 11.18-2.09 14.91 1.68-3.28 2-5.71 5.07-9.05 6.98l-2.57.03c-2.1-3.39-8.18-.48-8.78-4.92-2.27-3.55 3.49-2.15 5.49-3.77z"/></svg>