<svg xmlns="http://www.w3.org/2000/svg" width="682.667" height="682.667" viewBox="0 0 512 512" xmlns:v="https://vecta.io/nano"><path fill="#27282c" d="M411.84 148.59c3.71-.97 8.39-.04 10.31 3.59.92 2.1-.73 3.92-1.94 5.45l-1.21-4.78c-.25-1.5-.95-2.81-2.31-3.56l-2.51-.44-2.34-.26z"/><path fill="#9da09e" d="M402.79 152.55a13.69 13.69 0 0 1 9.05-3.96l2.34.26c-1.75 3.23-4.78 5.47-6.79 8.52-3.13 3.99-5.46 8.79-9.68 11.78-2.6 1.72-3.19 5.11-5.56 7.07.8-2.89 1.72-5.75 2.72-8.58-1.78 1.45-3.43 3.07-4.64 5.03-.49-.09-1.46-.29-1.95-.39l-3.06 2.69-.33-2.42c-1.45-.13-2.9-.26-4.35-.3 3.52-4.61 7.36-8.98 11.32-13.22 1.36-.39 2.88-1.57 2.38-3.18l.76-.24c1.52.69 3.01 1.47 4.49 2.26 1.22-1.69 2.3-3.49 3.3-5.32m-7.72 12.36l1.92 1.24c3.5-2.61 6.14-6.26 8.42-9.95-4.59 1.07-8.17 4.67-10.34 8.71z"/><path fill="#b2b8aa" d="M414.18 148.85l2.51.44c-4.5 6.56-9.19 13.03-15.01 18.49-1.64 1.19-.5 3.32-1.17 4.9-1.5 2.97-5.44 2.6-7.56 4.93l1.52 2.46c-1.63.34-3.69.05-4.75 1.59-4.15 4.75-7.84 9.96-12.65 14.08-1 .83-1.96 1.68-2.87 2.59l-2.45.15c2.97-4.53 7.52-7.66 10.77-11.96 2.84-3.77 6.27-7.01 9.63-10.3 2.37-1.96 2.96-5.35 5.56-7.07 4.22-2.99 6.55-7.79 9.68-11.78 2.01-3.05 5.04-5.29 6.79-8.52z"/><path fill="#a1a4b0" d="M416.69 149.29c1.36.75 2.06 2.06 2.31 3.56-3.05 7.2-9.31 12.13-14.01 18.17-4.92 6.17-10.61 11.7-15.29 18.07-1.99 2.7-4.91 4.59-6.72 7.41-.69.93.03 1.96.45 2.83.75.99 1.54 1.95 2.34 2.92-.37 1.93-1.42 3.59-2.85 4.92-2.44-1.62-4.76-3.41-7.03-5.26.86-1.99 1.8-3.95 2.71-5.92l-1.53-.25c4.81-4.12 8.5-9.33 12.65-14.08 1.06-1.54 3.12-1.25 4.75-1.59l-1.52-2.46c2.12-2.33 6.06-1.96 7.56-4.93.67-1.58-.47-3.71 1.17-4.9 5.82-5.46 10.51-11.93 15.01-18.49z"/><path fill="#6b716d" opacity=".93" d="M395 155.61l7.79-3.06c-1 1.83-2.08 3.63-3.3 5.32l-4.49-2.26z"/><path fill="#57585d" d="M404.99 171.02c4.7-6.04 10.96-10.97 14.01-18.17l1.21 4.78c-4 4.87-8.93 9.21-11.18 15.27l4.82-.64-.04.78c-1.85.8-3.74 1.51-5.62 2.23l-1.95-1.81c-2.02 1.83-3.66 4.03-5.1 6.35l4.29-1.48c-1.12 2-2.43 3.91-4.08 5.51l-.84-1.59c-2.58 1.99-4.61 4.57-7.11 6.65-3.34 2.9-5.98 6.48-8.81 9.85l-1.16.58c-.42-.87-1.14-1.9-.45-2.83 1.81-2.82 4.73-4.71 6.72-7.41 4.68-6.37 10.37-11.9 15.29-18.07z"/><path fill="#262729" opacity=".66" d="M391.86 159.03c.16-1.38.82-2.97 2.38-3.18.5 1.61-1.02 2.79-2.38 3.18z"/><path fill="#686c6c" d="M395.07 164.91c2.17-4.04 5.75-7.64 10.34-8.71-2.28 3.69-4.92 7.34-8.42 9.95l-1.92-1.24z"/><path fill="#808082" d="M390.23 172.67c1.21-1.96 2.86-3.58 4.64-5.03l-2.72 8.58c-3.36 3.29-6.79 6.53-9.63 10.3-3.25 4.3-7.8 7.43-10.77 11.96l2.45-.15c-1.74 1.9-3.43 3.84-5.12 5.79 2.39-.32 4.7-1.03 6.81-2.21 2.27 1.85 4.59 3.64 7.03 5.26-2.7 2.2-5.52 4.27-7.97 6.76l-1.41-.05c-1.41-.88-3.27.15-2.76 1.89-2.59-.11-3.97-2.46-4.6-4.68l1.65-.32.27-.85-.99-1.43-.29-2.25-2.11 2.28c-6.1.29-7.62 6.88-10.18 11.23l-5.44.42c4.54-6.32 10.33-11.61 14.88-17.94 2.74-2.36 5.52-4.7 7.66-7.65 5.81-7.62 13.4-13.8 18.6-21.91z"/><path opacity=".75" d="M372.4 173.48c1.7-1.33 3.85-.73 5.82-.67-3.8 4.98-7.72 9.88-12.07 14.39-2.26 2.31-3.53 5.31-4.86 8.2-.42 1.48-2 1.71-3.21 2.19-.82-1.41-1.58-2.85-2.37-4.26-1.35 1.59-3.41 3.11-3.31 5.43 1.49 2.24 3.36 4.18 5.01 6.31-2.37 3.61-5.42 6.65-8.3 9.84-4.51 2-8.99 4.26-12.83 7.39-2.38 1.87-3.04 4.93-3.6 7.74l4.33-2.45c0 .33-.01.98-.02 1.31-1.4 1.66-2.71 3.39-3.96 5.17l-3.67.92 2.78-3.24c-1.7-.32-3.42-.47-5.13-.5-.73-1.85-1.37-3.74-2.16-5.56 2.98-2.18 5.62-4.81 7.78-7.81-1.48-1.92-2.88-3.9-4.21-5.91.97-1.11 2.03-2.14 3.19-3.06 1.46 1.41 2.96 2.79 4.48 4.15 2.06-3.26 3.29-7.02 5.77-10 1.94-.63 4.29-.87 5.56-2.67 1.12-1.56 1.19-3.58 1.7-5.37 3.6-4.98 8.01-9.26 11.98-13.92 2.96-3.6 7.48-5.16 11.3-7.62z"/><path fill="#737a6e" d="M378.22 172.81l2.32-.56 4.35.3.33 2.42c-4.45 4.66-9.24 9.06-12.96 14.35-2.92 3.94-6.63 7.23-9.37 11.31-1.8-.68-3.56-1.54-4.81-3.04 1.21-.48 2.79-.71 3.21-2.19 1.33-2.89 2.6-5.89 4.86-8.2 4.35-4.51 8.27-9.41 12.07-14.39z"/><path fill="#bac3ad" d="M385.22 174.97l3.06-2.69 1.95.39c-5.2 8.11-12.79 14.29-18.6 21.91-2.14 2.95-4.92 5.29-7.66 7.65l-1.08-1.6c2.74-4.08 6.45-7.37 9.37-11.31 3.72-5.29 8.51-9.69 12.96-14.35z"/><path fill="#848489" d="M401.14 179.81c1.44-2.32 3.08-4.52 5.1-6.35l1.95 1.81 5.62-2.23c-.19 2.15.38 4.77-1.41 6.39-3.25 3.11-5.75 6.91-9.11 9.91-1.66-.85-3.45.15-4.24 1.68-2.88 3.11-5.87 6.32-9.79 8.11-1.39.79-3.26 1.26-3.49 3.12l-2.34-2.92 1.16-.58c5.26.55 9.28-3.75 11.51-8.03 1.27-2.63 3.18-4.85 5.25-6.88 1.65-1.6 2.96-3.51 4.08-5.51l-4.29 1.48m2.93 3.02l1.9 1.63 2.51-2.48a82.07 82.07 0 0 0-.86-1.61c-1.51-1.56-2.9 1.32-3.55 2.46z"/><path fill="#dedce3" d="M404.07 182.83c.65-1.14 2.04-4.02 3.55-2.46l.86 1.61-2.51 2.48-1.9-1.63z"/><path fill="#404043" opacity=".96" d="M393.4 188.9c2.5-2.08 4.53-4.66 7.11-6.65l.84 1.59c-2.07 2.03-3.98 4.25-5.25 6.88l-2.7-1.82z"/><path fill="#424544" d="M218.95 184.72c6.42-.37 12.86-.23 19.27-.84l-2.24.99c-3.35 1.04-6.02 3.32-8.95 5.11-3.2 1.26-6.93 1.12-9.73 3.37-1.14 1.1-2.63.71-4 .44l.14-5.74c-3.18-.17-6.37-.29-9.55.02 2.32-.62 4.73-.65 7.11-.87 2.84-.16 5.1-2.36 7.95-2.48z"/><path fill="#6b6e6e" d="M238.22 183.88c2.52-.6 4.83.4 6.74 1.99-6.69 1.2-10.97 7.22-17.39 9.1 1.53-2.13 3.33-4.05 5.17-5.92l-1.52.08c1.69-1.31 3.21-2.8 4.76-4.26l2.24-.99z"/><path fill="#555756" d="M227.03 189.98c2.93-1.79 5.6-4.07 8.95-5.11-1.55 1.46-3.07 2.95-4.76 4.26-1.73 1.26-3.58 2.5-4.77 4.33.15 1.55.63 3.05 1.04 4.54-1.14 1.48-2.33 2.92-3.52 4.36-2.58.37-5.18.66-7.78.84l2.39-5.48c-2.27 1.49-4.42 3.2-5.99 5.44.56 2.41.77 4.88 1.03 7.33l.85.83c2.96-.66 5.46-2.54 8.34-3.45-.45 7.29.86 15.23 6.64 20.28-.47.58-.93 1.18-1.38 1.78-1.17-1.96-2.49-3.83-3.98-5.56l-3.05.32c-1.12-.05-2.23-.15-3.33-.29-3.09-2.74-4.7-6.5-6-10.32-.49-1.78-2.41-1.97-3.92-2.24-5.5-1.13-5.95-7.57-7.43-11.92-.71 2.9-1.76 6.15-.31 9.01 1.68 3.04 4.55 5.13 7.1 7.39-2.03-.23-4.07-.43-6.08-.76-3.06-1.84-6.6-1.18-9.98-1.33-2.54-1.5-3.87-4.35-5.75-6.53-2.33-2.61-1.85-6.39-1.3-9.56.54-3.1 3.73-4.37 5.85-6.25-.86 6.04-1.94 12.27-.92 18.33l4.06-.33c-.04-3.98-2.73-7.63-2.06-11.61 1.88-2.75 4.47-4.95 6.06-7.91l-3.9-1.76c3.63.34 7.29.94 10.76-.54 3.18-.31 6.37-.19 9.55-.02-.08 1.91-.12 3.82-.14 5.74 1.37.27 2.86.66 4-.44 2.8-2.25 6.53-2.11 9.73-3.37z"/><path fill="#97999e" d="M227.57 194.97c6.42-1.88 10.7-7.9 17.39-9.1l1.28.81c-1.36.74-2.74 1.47-4.04 2.32l-2.26 1.73c-4.25 2.45-8.58 5.26-10.16 10.21-1.58 1-3.16 2.02-4.84 2.87l-.97-1.45 3.52-4.36c-.41-1.49-.89-2.99-1.04-4.54 1.19-1.83 3.04-3.07 4.77-4.33l1.52-.08c-1.84 1.87-3.64 3.79-5.17 5.92z"/><path fill="#636461" d="M246.24 186.68c3.8 1.44 7.96 1.95 11.45 4.16-2.47 1.96-4.97 4.02-6.46 6.87 1.91 1.54 3.88 3.02 6.01 4.26 2.97.29 5.87-.49 8.81-.77 3.43-.34 6.51 1.87 9.94 1.64 2.84-.03 5.89-.58 8.46.99l-1.23 5.73c-2.48-.78-5.09-1.94-7.65-.79 1.54 2.35 3.95 3.69 6.7 4.06l.57 3.38c1.73.85 3.45 1.74 5.14 2.69-1.94.45-3.9.87-5.89 1.03l1.72-1.91c-4.53-1.16-9.27-1.01-13.77.18 1.04.63 2.1 1.26 3.18 1.85a17.87 17.87 0 0 1-6.54-.82c1.62-1.36 3.36-2.57 5.15-3.71l-1.12-1.33c-3.3.2-5.32 2.7-5.9 5.78l-.08-1.68c-7.92 1.39-14.95 5.59-21.68 9.78-4.71 2.84-5.25 8.67-8.08 12.92-1.17 1.59-1.58 3.5-1.13 5.43l2.75-.19c-.12 2.46-2.4 3.53-4.54 3.95-1.69-1.07-.04-2.78.29-4.16-.59-1.67-1.35-3.29-1.6-5.05.54-1.63 1.49-3.08 2.32-4.57l-5.57 2.65c-.86 3.15-1.79 6.44-4.4 8.63l-1.32-2.59c-1.04-5.96 3.07-10.69 6.3-15.16-.72 1.64-.9 3.44-.31 5.16 4.99-4.43 9.97-8.93 14.18-14.13 2.71-3.57 7.18-4.83 10.73-7.33 5.36-3.75 11.94-4.8 18.22-6.06-3.78-3.42-9.2-2.56-13.69-1.31-4.65 1.37-8.36 5.87-13.56 5.04 2.76-2.04 5.78-3.68 8.81-5.27 1.24-.71 2.43-1.48 3.62-2.26-2.81-3.31-7.48-4.31-9.98-7.98h1.63c-1.92-2.2-3.74-4.48-5.52-6.79 1.3-.85 2.68-1.58 4.04-2.32z"/><path fill="#818180" d="M189.89 191.89l3.24-3.28 3.9 1.76c-1.59 2.96-4.18 5.16-6.06 7.91-.67 3.98 2.02 7.63 2.06 11.61l-4.06.33c-1.02-6.06.06-12.29.92-18.33z"/><path fill="#373631" d="M242.2 189l5.52 6.79h-1.63c-2.01-.27-3.52 1.18-4.97 2.32-5.31 4.57-12.04 6.87-18.31 9.76-2.88.91-5.38 2.79-8.34 3.45 2.55-3.66 6.03-6.59 10.47-7.51 1.68-.85 3.26-1.87 4.84-2.87 4.56-1.15 8.62-3.67 11.87-7.04l-1.71-3.17 2.26-1.73z"/><path fill="#242426" opacity=".51" d="M399.05 191.02c.79-1.53 2.58-2.53 4.24-1.68-1.03 1.22-2.59 2.23-4.24 1.68z"/><path fill="#59554f" d="M229.78 200.94c1.58-4.95 5.91-7.76 10.16-10.21l1.71 3.17c-3.25 3.37-7.31 5.89-11.87 7.04z"/><path fill="#434340" d="M257.69 190.84c.04 3.71-.24 7.42-.45 11.13-2.13-1.24-4.1-2.72-6.01-4.26 1.49-2.85 3.99-4.91 6.46-6.87z"/><path fill="#9fa19e" d="M352.4 198.76c-.1-2.32 1.96-3.84 3.31-5.43l2.37 4.26c1.25 1.5 3.01 2.36 4.81 3.04l1.08 1.6c-4.55 6.33-10.34 11.62-14.88 17.94l5.44-.42c2.56-4.35 4.08-10.94 10.18-11.23-.32 2.63.43 5.16 1.5 7.54-1.83 3.21-4.62 5.66-7.42 7.99l-2.62-.51 1.26-3.88c-1.48 1.67-2.94 3.37-4.63 4.84-1.75 1.26-3.51 2.51-5.05 4.03-1.22-.53-2.47-.97-3.71-1.42-.7-4.52 3.33-7.53 4.64-11.51l.43-.69c2.88-3.19 5.93-6.23 8.3-9.84-1.65-2.13-3.52-4.07-5.01-6.31z"/><path fill="#818179" d="M241.12 198.11c1.45-1.14 2.96-2.59 4.97-2.32 2.5 3.67 7.17 4.67 9.98 7.98-1.19.78-2.38 1.55-3.62 2.26-1.4-2.38-2.46-5.6-5.42-6.42-4.7 2.02-8.2 6.06-12.03 9.35-2.76 2.27-1.94 6.23-.9 9.15 3.39-1.97 6.32-4.59 9.54-6.81 5.2.83 8.91-3.67 13.56-5.04 4.49-1.25 9.91-2.11 13.69 1.31-6.28 1.26-12.86 2.31-18.22 6.06-3.55 2.5-8.02 3.76-10.73 7.33-4.21 5.2-9.19 9.7-14.18 14.13-.59-1.72-.41-3.52.31-5.16.45-.6.91-1.2 1.38-1.78-5.78-5.05-7.09-12.99-6.64-20.28 6.27-2.89 13-5.19 18.31-9.76z"/><path opacity=".52" d="M341.86 203.06c2.32-2.77 4.84-5.37 7.26-8.04-.51 1.79-.58 3.81-1.7 5.37-1.27 1.8-3.62 2.04-5.56 2.67z"/><path fill="#4b4c4e" d="M374.2 198.33c.91-.91 1.87-1.76 2.87-2.59l1.53.25-2.71 5.92c-2.11 1.18-4.42 1.89-6.81 2.21l5.12-5.79z"/><path fill="#6b6c6e" d="M212.59 203.16c1.57-2.24 3.72-3.95 5.99-5.44l-2.39 5.48 7.78-.84.97 1.45c-4.44.92-7.92 3.85-10.47 7.51l-.85-.83c-.26-2.45-.47-4.92-1.03-7.33z"/><path fill="#94958d" d="M235 208.96c3.83-3.29 7.33-7.33 12.03-9.35 2.96.82 4.02 4.04 5.42 6.42-3.03 1.59-6.05 3.23-8.81 5.27-3.22 2.22-6.15 4.84-9.54 6.81-1.04-2.92-1.86-6.88.9-9.15z"/><path fill="#9d7057" d="M200.05 208.93c-1.45-2.86-.4-6.11.31-9.01 1.48 4.35 1.93 10.79 7.43 11.92l-.64 4.48c-2.55-2.26-5.42-4.35-7.1-7.39z"/><path fill="#585953" d="M284.45 203.83c3.84 2.74 7.02 6.31 10.93 8.96 3.73.72 7.55 1.46 10.75 3.69 1.65 1.04 3.25 2.16 4.87 3.26l-1.03-6.78c1.72-2.1 4.57-2.03 6.99-1.52l-5.11 1.45c3.81 3.04 3.99 8.24 7.08 11.72-.15.21-.47.61-.62.82-2.99.12-5.99.17-8.95.67.39 2.7 1.53 5.2 2.54 7.71l-1.71.42c-1.46-2.13-2.53-4.49-3.51-6.87.17-1.27.59-2.56.37-3.85-2.76-3.17-7.2-3.91-11.16-4.33 1.53 1.76 3.17 3.44 5.03 4.85-4.11-.99-8.32-.4-12.48-.34-1.32-.49-2.61-1.02-3.91-1.53-3.88 4.69-12.1 5.25-15.87.1l-3.52-.14-.3-1.38-.03-.77c.58-3.08 2.6-5.58 5.9-5.78l1.12 1.33c-1.79 1.14-3.53 2.35-5.15 3.71a17.87 17.87 0 0 0 6.54.82l8.87-.12c1.99-.16 3.95-.58 5.89-1.03-1.69-.95-3.41-1.84-5.14-2.69l-.57-3.38c-2.75-.37-5.16-1.71-6.7-4.06 2.56-1.15 5.17.01 7.65.79l1.23-5.73z"/><path fill="#58585a" d="M364.71 208.52l2.11-2.28.29 2.25-.93 2.6c.63 2.22 2.01 4.57 4.6 4.68 1.23 0 2.15-.63 2.76-1.89l1.41.05c-2.15 2.36-5.61 2.94-7.57 5.48-2.54 3.11-5.2 6.11-8.16 8.82l-1.82-2.97 1.39-1.21c2.8-2.33 5.59-4.78 7.42-7.99-1.07-2.38-1.82-4.91-1.5-7.54z"/><path fill="#c5c5cb" d="M366.18 211.09l.93-2.6.99 1.43-.27.85-1.65.32z"/><path fill="#464644" d="M207.79 211.84c1.51.27 3.43.46 3.92 2.24 1.3 3.82 2.91 7.58 6 10.32-4.94-.25-8.82-3.6-10.56-8.08l.64-4.48z"/><path fill="#8c8c8d" d="M311.85 212.89l5.11-1.45 2.13 1.58c-.69 1.21-.45 2.25.72 3.14l1.32 3.99-2.2 4.46c-3.09-3.48-3.27-8.68-7.08-11.72z"/><path fill="#373836" opacity=".93" d="M306.13 216.48c1.35-1.09 2.6-2.3 3.84-3.52l1.03 6.78-4.87-3.26z"/><path fill="#cfced8" d="M370.78 215.77c-.51-1.74 1.35-2.77 2.76-1.89-.61 1.26-1.53 1.89-2.76 1.89z"/><path fill="#5c6063" d="M336.28 222.3c3.84-3.13 8.32-5.39 12.83-7.39l-.43.69c-2.75 3.03-5.5 6.07-8.02 9.3-1.18 1.37-2.43 2.68-3.67 4 .01-.33.02-.98.02-1.31l-4.33 2.45c.56-2.81 1.22-5.87 3.6-7.74z"/><path opacity=".75" d="M201.07 215.56l6.08.76c1.74 4.48 5.62 7.83 10.56 8.08 1.1.14 2.21.24 3.33.29 1.24 1.56 2 3.41 2.19 5.4-3.15-4.51-8.84-5.51-13.97-5.7-4.68.32-7.29-4.93-8.19-8.83z"/><path fill="#727375" d="M340.66 224.9c2.52-3.23 5.27-6.27 8.02-9.3-1.31 3.98-5.34 6.99-4.64 11.51 1.24.45 2.49.89 3.71 1.42 1.52 1.17 2.98 2.44 4.43 3.7 1.38-.72 2.87-1.6 3.27-3.24.53-2.01-1.64-3.13-2.65-4.49 1.69-1.47 3.15-3.17 4.63-4.84l-1.26 3.88 2.62.51-1.39 1.21 1.82 2.97-1.2 1.71c-2.5 3.22-4.6 6.72-6.89 10.09l-4.69-1.26-4.44 3.19c1.03-1.52 1.82-3.19 2.58-4.86.96-.49 2.46-.55 2.5-1.92-1.38-1.96-3.22-3.56-4.54-5.55-.65-1.58-.98-3.27-1.88-4.73z"/><path fill="#878684" d="M270.04 218.2c4.5-1.19 9.24-1.34 13.77-.18l-1.72 1.91-8.87.12c-1.08-.59-2.14-1.22-3.18-1.85z"/><path fill="#928f87" d="M243.05 228.07c6.73-4.19 13.76-8.39 21.68-9.78l.08 1.68.03.77c-9.77 1.81-17.97 8.27-24.73 15.24a119.32 119.32 0 0 1 2.94-7.91z"/><path fill="#737472" d="M295.89 219.18c3.96.42 8.4 1.16 11.16 4.33.22 1.29-.2 2.58-.37 3.85l-5.76-3.33c-1.86-1.41-3.5-3.09-5.03-4.85z"/><path fill="#66697a" d="M321.13 220.15c.57 2.24 2.19 3.9 3.72 5.54l2.16 5.56c1.71.03 3.43.18 5.13.5l-2.78 3.24 3.67-.92-.42.57-2.92 3.58-2.7-4.84-1.66 7.08c-1.44.33-3.92-.27-4.18 1.75-.44 2.89-.29 5.82-.39 8.74-1.63-.25-3.37-.16-4.86-.91-1.71-1.33-1.23-3.71-1.19-5.58.37.8 1.81 3 2.55 1.32.76-1.63-1.02-3.28-2.49-2.1-.63-.88-1.23-1.8-2.03-2.53-2.9-.23-5.8.04-8.7.12l-.81-5.69 6.96-1.35 1.71-.42c-1.01-2.51-2.15-5.01-2.54-7.71 2.96-.5 5.96-.55 8.95-.67l.62-.82c.82-1.44 1.53-2.95 2.2-4.46m.08 8.08c.54.54.54.54 0 0z"/><path fill="#6c6d6a" d="M240.11 235.98c6.76-6.97 14.96-13.43 24.73-15.24.08.34.23 1.04.3 1.38 1.17.07 2.35.1 3.52.14 3.77 5.15 11.99 4.59 15.87-.1l3.91 1.53c-2.99 2.34-5.85 4.84-8.48 7.58-4.26-.2-8.48-1-12.75-.99l-10.5.13c-1.1 8.69-2.32 19.46 4.97 25.91 3.17 3.31 7.91 3.26 12.11 2.74l-2.82 1.86 5.29.27c-4.4.71-8.9.67-13.3 0-1.32-.4-2.64-.81-3.98-1.14-2.3-4.57-5.74-8.78-6.15-14.07-1.12-5.18.84-10.21 1.47-15.29 1.78-1.7 3.53-3.48 4.77-5.63-5.85.83-9.47 5.94-12.62 10.41-1.41 2.07-.71 4.65-.51 6.95l1.84-.33c.54 4.04.83 8.15 1.94 12.1.63 2.64 3.28 3.88 5.38 5.2 1.77 2.26 2.56 5.04 2.72 7.88-3.48-.15-7.46-2.06-8.37-5.69-1.06-3.34-1.17-7-2.85-10.13-.97-.78-2.26-.98-3.4-1.41-.94-5.2.55-10.33 1.33-15.44-3.72 2.96-6.55 7.07-7.94 11.63l-2.75.19c-.45-1.93-.04-3.84 1.13-5.43 2.83-4.25 3.37-10.08 8.08-12.92a119.32 119.32 0 0 0-2.94 7.91z"/><path fill="#87867e" d="M288.44 223.69c4.16-.06 8.37-.65 12.48.34l5.76 3.33c.98 2.38 2.05 4.74 3.51 6.87-2.3.57-4.63.97-6.96 1.35.23 1.9.49 3.8.81 5.69l.74 4.77c-.5.1-1.51.28-2.01.37-.08-.04-.23-.13-.31-.18l-.99-2.16c-.69-1.48-1.55-2.87-2.39-4.26 1.2-4.06 1.26-8.85-1.83-12.11-3.11-1.34-6.6-.91-9.87-.51-1.86 2.09-3.06 5.59-6.31 5.67l-1.11-1.59c2.63-2.74 5.49-5.24 8.48-7.58z"/><path fill="#444642" d="M221.04 224.69l3.05-.32c1.49 1.73 2.81 3.6 3.98 5.56-3.23 4.47-7.34 9.2-6.3 15.16-1.49-5.07 1.47-9.94 1.46-15-.19-1.99-.95-3.84-2.19-5.4z"/><path fill="#8f9092" d="M246.45 235.47c3.15-4.47 6.77-9.58 12.62-10.41-1.24 2.15-2.99 3.93-4.77 5.63-3.25 3.03-6.01 6.86-6.52 11.4l-1.84.33c-.2-2.3-.9-4.88.51-6.95z"/><path fill="#a3a4a7" d="M340.66 224.9c.9 1.46 1.23 3.15 1.88 4.73 1.32 1.99 3.16 3.59 4.54 5.55-.04 1.37-1.54 1.43-2.5 1.92-.76 1.67-1.55 3.34-2.58 4.86-4.31 2.82-5.99 7.93-9.38 11.6-1.52 1.51-2.14 3.53-2.55 5.57-1.56 2.05-3.39 3.86-5.16 5.73.91-2.4.87-4.99 1.21-7.49 1.06-2.23 3.79-3.82 3.28-6.59l-.79-1.45c1.41.59 2.84 1.12 4.27 1.66l-1-4.44c2.89-3.84 6.42-7.59 6.82-12.64-2.08-.49-4.17-.14-6.09.73l.42-.57c1.25-1.78 2.56-3.51 3.96-5.17 1.24-1.32 2.49-2.63 3.67-4m-.6 15.11l2.12-1.13c.71-1.82-1.04-2.56-2.37-3.19-2.13.62-.74 3.22.25 4.32z"/><path d="M347.75 228.53c1.54-1.52 3.3-2.77 5.05-4.03 1.01 1.36 3.18 2.48 2.65 4.49-.4 1.64-1.89 2.52-3.27 3.24l-4.43-3.7zm-32.98 15.15c1.47-1.18 3.25.47 2.49 2.1-.74 1.68-2.18-.52-2.55-1.32l.06-.78z" fill="#d9ffff"/><path fill="#9b9990" d="M287.38 227.19c3.27-.4 6.76-.83 9.87.51 3.09 3.26 3.03 8.05 1.83 12.11.84 1.39 1.7 2.78 2.39 4.26l-3.49.61c-3.35-.43-6.67.13-10 .44-3.51.31-6.97-1.56-10.44-.79l-.64 1.65-.87-2.06 1.62-3.27c-1.26-1.08-2.42-2.39-3.99-3-1.37-.09-2.69.4-4.02.65.84-1.68 1.44-3.55 2.82-4.88 2.8-.74 5.74-.42 8.61-.56 3.25-.08 4.45-3.58 6.31-5.67z"/><path fill="#e4e0eb" d="M321.21 228.23c.54.54.54.54 0 0z"/><path fill="#817f78" d="M256.71 230.41l10.5-.13c-3.17.48-6.6 2-7.51 5.37-1.33 5.14-1.22 10.89.72 15.85 1.88 2.15 5.03 2.69 7.73 3.25 4.9.54 9.82 1.29 14.77 1.17 2.65.03 4.29-2.27 6.16-3.77 1.63-1.57 3.91-2.03 5.94-2.86-3.33-1.11-6.89-.67-10.33-.68l-.37.04c-2.11.3-4.23.56-6.36.43l-.43-1.36-.13-.42-.5-1.32.64-1.65c3.47-.77 6.93 1.1 10.44.79 3.33-.31 6.65-.87 10-.44 1.11 1.95 2.42 3.8 3.22 5.92.78 2.94-.08 5.98-.74 8.86-4.38.99-8.75 2.8-13.3 2.57-3.57-.95-7.22-1.75-10.9-.84-1.77-.04-3.53-.16-5.29-.27l2.82-1.86c-4.2.52-8.94.57-12.11-2.74-7.29-6.45-6.07-17.22-4.97-25.91z"/><path fill="#918f88" d="M267.21 230.28c4.27-.01 8.49.79 12.75.99.27.4.83 1.19 1.11 1.59-2.87.14-5.81-.18-8.61.56-1.38 1.33-1.98 3.2-2.82 4.88 1.33-.25 2.65-.74 4.02-.65 1.57.61 2.73 1.92 3.99 3l-1.62 3.27.87 2.06.5 1.32c.03.11.1.32.13.42l.43 1.36c2.13.13 4.25-.13 6.36-.43l.37-.04c3.44.01 7-.43 10.33.68-2.03.83-4.31 1.29-5.94 2.86-1.87 1.5-3.51 3.8-6.16 3.77-4.95.12-9.87-.63-14.77-1.17-2.7-.56-5.85-1.1-7.73-3.25-1.94-4.96-2.05-10.71-.72-15.85.91-3.37 4.34-4.89 7.51-5.37z"/><path fill="#454447" d="M351.13 240.03c2.29-3.37 4.39-6.87 6.89-10.09-.17 5.06-2.14 9.91-5.14 13.94-2.33 2.32-5.01 4.31-6.85 7.09.26-1.64.42-3.3.58-4.94-3.25.9-5.48 3.49-7.63 5.91-2.53 2.9-5.75 5.04-8.91 7.19.41-2.04 1.03-4.06 2.55-5.57 3.39-3.67 5.07-8.78 9.38-11.6 1.46-1.1 2.95-2.14 4.44-3.19l4.69 1.26z"/><path fill="#544e48" d="M247.78 242.09c.51-4.54 3.27-8.37 6.52-11.4-.63 5.08-2.59 10.11-1.47 15.29.41 5.29 3.85 9.5 6.15 14.07-1.29-.25-2.59-.42-3.88-.66-2.1-1.32-4.75-2.56-5.38-5.2-1.11-3.95-1.4-8.06-1.94-12.1z"/><path fill="#b7bbc7" d="M332.61 234.64c1.92-.87 4.01-1.22 6.09-.73-.4 5.05-3.93 8.8-6.82 12.64-1.15-.57-2.34-1.05-3.55-1.46l-.55 2.77c-.89-1.6-1.58-3.29-2.26-4.98 1.53-1.43 2.86-3.04 4.17-4.66l2.92-3.58z"/><path fill="#5c5b59" d="M326.99 233.38l2.7 4.84c-1.31 1.62-2.64 3.23-4.17 4.66-2.83 1.85-2.6 5.49-3.33 8.43-2.6 1.29-6.02 1.71-7.59 4.42-.87 1.34-1.56 2.79-2.28 4.21.98 1.11 1.84 2.64 3.51 2.71 2.58.43 5.62 1.21 7.82-.72l-1-5.36c1.77-2.33 3.28-4.84 4.61-7.44l2.14 1.65c.51 2.77-2.22 4.36-3.28 6.59-.34 2.5-.3 5.09-1.21 7.49-1.58 3-3.98 5.34-6.63 7.4-3.09 3.05.44 6.8 1.72 9.82l-1.76.3c-2.74.35-4.7 2.5-6.9 3.96l.3-.9c1.51-3.23-.19-6.64-1.43-9.65-1-2.36-2.46-4.63-4.89-5.7-1.8 1.97-3.45 4.06-5.01 6.22-2.6 3.59-6.25 6.2-9.67 8.95-3.83 2.69-8.58 3.99-11.82 7.51 4.94 1.68 7.74 6.06 11.25 9.56 2.6-1.29 5.32-2.3 8.08-3.21-2.25 2.97-4.18 6.15-6.17 9.29-3.75-1.95-8.51-3.71-9.72-8.24-.73-3.54-4.05-5.53-6.39-7.97-4.05 1.44-8.42 1.86-12.48.17-1.91-.58-3.81-1.18-5.68-1.88 3.77-.31 7.63-.99 10.95-2.88 1.33-.57 1.06-2.23 1.36-3.37-5.63-2.32-12.34 1.26-17.46-2.93l2.48-2.34 2.62.3 1.94 1.93c3.18-.02 6.4.28 9.53-.36 3.42-1.1 6.13-3.61 8.9-5.78l-3.85-1.19c2.39-1.52 5.27-1.04 7.95-.88l-2.88 2.04 3.83-.56c3.63-.38 7.35-.54 10.92.41-4.62 2.99-8.6 7.05-13.8 9.05-4.46 1.98-8.61 4.68-12.1 8.08 3.66-.14 7.53-.22 10.77-2.16 4.31-2.59 9.03-4.7 12.59-8.35 5.11-5.19 9.83-10.76 14.11-16.65l-1.25-3.89c-1.66.95-4.39 1.26-4.52 3.61-.31 3.02-2.17 5.45-4.12 7.65-1.51-.9-3.13-1.56-4.65-2.4-.45-1.17-.73-2.39-1.04-3.59 2.14-.42 4.27-.85 6.39-1.37-2.7-.36-5.42-.52-8.15-.59l-2.23 4.3c-1.81.18-3.62.35-5.43.38-.84-.41-1.5-1.02-1.98-1.84 2.12-.66 4.25-1.25 6.38-1.85-1.62-1-3.39-2.39-5.41-1.67-1.84.14-1.91 2.32-2.58 3.61-2.58-1.17-4.97-2.95-7.89-3.17 1.43 3.83 5.89 3.8 9.14 5.11l-1.86 1.39c-3.4-.59-6.85-.73-10.29-.69-3.06.11-5.09-2.62-5.95-5.24 1.67-.23 3.34-.57 4.91-1.19a62.66 62.66 0 0 0-2.08-2.22c4.4.67 8.9.71 13.3 0 3.68-.91 7.33-.11 10.9.84 4.55.23 8.92-1.58 13.3-2.57.66-2.88 1.52-5.92.74-8.86-.8-2.12-2.11-3.97-3.22-5.92l3.49-.61.99 2.16.1.21.21-.03 2.01-.37-.74-4.77c2.9-.08 5.8-.35 8.7-.12.8.73 1.4 1.65 2.03 2.53l-.06.78c-.04 1.87-.52 4.25 1.19 5.58 1.49.75 3.23.66 4.86.91.1-2.92-.05-5.85.39-8.74.26-2.02 2.74-1.42 4.18-1.75.47-2.38 1.02-4.74 1.66-7.08z"/><path fill="#414241" d="M236.59 246.23c1.39-4.56 4.22-8.67 7.94-11.63-.78 5.11-2.27 10.24-1.33 15.44 1.14.43 2.43.63 3.4 1.41 1.68 3.13 1.79 6.79 2.85 10.13.91 3.63 4.89 5.54 8.37 5.69-.16-2.84-.95-5.62-2.72-7.88 1.29.24 2.59.41 3.88.66 1.34.33 2.66.74 3.98 1.14a62.66 62.66 0 0 1 2.08 2.22c-1.57.62-3.24.96-4.91 1.19.86 2.62 2.89 5.35 5.95 5.24 3.44-.04 6.89.1 10.29.69l1.86-1.39c-3.25-1.31-7.71-1.28-9.14-5.11 2.92.22 5.31 2 7.89 3.17.67-1.29.74-3.47 2.58-3.61 2.02-.72 3.79.67 5.41 1.67l-6.38 1.85c.48.82 1.14 1.43 1.98 1.84 1.47.67 2.97 1.3 4.46 1.94l-1.95 3.58c-1.28.15-2.56.36-3.83.56l2.88-2.04c-2.68-.16-5.56-.64-7.95.88-5.25 2.53-11.32 2.6-16.52 5.4l-2.62-.3c-1.49-.26-2.95-.58-4.41-.9.12-2.41.69-4.97-.41-7.23-2.4-5.36-5.1-10.68-8.96-15.15-1.3-1.31-2.38-3.38-4.46-3.42-1.66.02-3.17.83-4.73 1.27l-1.43-.25c.37 5.69 1.9 11.18 3.57 16.59.43 3.21-2.67 4.1-5.21 3.57-1.06-6.55-2.55-13.02-3.69-19.56l-.21 10.4c-.87-5.52-.68-11.17-2.01-16.61 2.61-2.19 3.54-5.48 4.4-8.63l5.57-2.65c-.83 1.49-1.78 2.94-2.32 4.57.25 1.76 1.01 3.38 1.6 5.05-.33 1.38-1.98 3.09-.29 4.16 2.14-.42 4.42-1.49 4.54-3.95z"/><path fill="#686b78" d="M340.06 240.01c-.99-1.1-2.38-3.7-.25-4.32 1.33.63 3.08 1.37 2.37 3.19l-2.12 1.13z"/><path fill="#63657b" d="M322.19 251.31c.73-2.94.5-6.58 3.33-8.43l2.26 4.98.83 1.47.79 1.45-2.14-1.65c-1.33 2.6-2.84 5.11-4.61 7.44l1 5.36c-2.2 1.93-5.24 1.15-7.82.72-1.67-.07-2.53-1.6-3.51-2.71l2.28-4.21c1.57-2.71 4.99-3.13 7.59-4.42z"/><path fill="#d5d3de" d="M328.33 245.09c1.21.41 2.4.89 3.55 1.46l1 4.44-4.27-1.66-.83-1.47.55-2.77z"/><path d="M302.46 246.23l.31.18-.21.03-.1-.21zm-24.93 1.49l-.13-.42.13.42zm6.79.93l.37-.04-.37.04z" fill="#fff"/><path fill="#d4a081" d="M338.98 251.94c2.15-2.42 4.38-5.01 7.63-5.91l-.58 4.94-3.08 5.88c-1.54 1.81-2.43 4-2.79 6.33-3.54 8.3-7.46 16.42-11.19 24.63l-.96 2.37c-2.34-1.03-4.63-2.32-6.24-4.36-.61-1.24-1.17-2.5-1.77-3.74-1.28-3.02-4.81-6.77-1.72-9.82 2.65-2.06 5.05-4.4 6.63-7.4 1.77-1.87 3.6-3.68 5.16-5.73 3.16-2.15 6.38-4.29 8.91-7.19z"/><path d="M232.07 253.54c1.56-.44 3.07-1.25 4.73-1.27 2.08.04 3.16 2.11 4.46 3.42l-3.21-.34c2.74 5.44 5.33 10.97 8.46 16.2 1.09 1.98 2.71 4.1 1.83 6.48-2.45-1.36-4.67-3.29-5.36-6.11a8.65 8.65 0 0 0-4.84-5.93c.35 1.23.71 2.47 1.16 3.68l-3.11 2.09c-2.06-5.9-3.05-12.08-4.12-18.22zm-81 48.33c5.12.23 10.06-1.18 15.08-1.84 1.31-.34 2.44.37 3.1 1.47-3.41.85-6.93.99-10.4 1.4-4.87.23-9.68 4.51-14.32 1.03 2.05-1.05 4.25-1.77 6.54-2.06z" fill="#5f5d58"/><path fill="#7a7a73" d="M230.64 253.29l1.43.25c1.07 6.14 2.06 12.32 4.12 18.22l3.11-2.09c1.34 2.37 2.52 4.82 3.52 7.36l-3.63 2.19c1.74 2.71 3.62 5.33 5.16 8.18-2.68-2.04-4.89-4.59-6.85-7.3-2.65-2.76-2.65-6.68-3.29-10.22-1.67-5.41-3.2-10.9-3.57-16.59z"/><path fill="#5c5e58" d="M225.31 253.89l3.69 19.56c-4.17-.26-8.27-1.16-12.22-2.5 2.65-.36 5.32-.49 7.98-.52.38-2.03.51-4.09.34-6.14-.01-3.47.14-6.93.21-10.4z"/><path fill="#4e4f4d" d="M238.05 255.35l3.21.34c3.86 4.47 6.56 9.79 8.96 15.15 1.1 2.26.53 4.82.41 7.23l4.41.9c-.84.77-1.66 1.55-2.48 2.34 5.12 4.19 11.83.61 17.46 2.93-.3 1.14-.03 2.8-1.36 3.37-3.32 1.89-7.18 2.57-10.95 2.88-6.41-2.48-11.2-7.85-14.89-13.46-1-2.54-2.18-4.99-3.52-7.36-.45-1.21-.81-2.45-1.16-3.68a8.65 8.65 0 0 1 4.84 5.93c.69 2.82 2.91 4.75 5.36 6.11.88-2.38-.74-4.5-1.83-6.48-3.13-5.23-5.72-10.76-8.46-16.2z"/><path fill="#7c5742" opacity=".81" d="M340.16 263.18c.36-2.33 1.25-4.52 2.79-6.33-.81 2.16-1.74 4.28-2.79 6.33z"/><path fill="#85817a" d="M299.8 264.57c.13-2.35 2.86-2.66 4.52-3.61l1.25 3.89c-4.28 5.89-9 11.46-14.11 16.65-3.56 3.65-8.28 5.76-12.59 8.35-3.24 1.94-7.11 2.02-10.77 2.16 3.49-3.4 7.64-6.1 12.1-8.08 5.2-2 9.18-6.06 13.8-9.05-3.57-.95-7.29-.79-10.92-.41l1.95-3.58-4.46-1.94c1.81-.03 3.62-.2 5.43-.38l2.23-4.3c2.73.07 5.45.23 8.15.59-2.12.52-4.25.95-6.39 1.37.31 1.2.59 2.42 1.04 3.59 1.52.84 3.14 1.5 4.65 2.4 1.95-2.2 3.81-4.63 4.12-7.65z"/><path fill="#6b6a65" d="M234.21 269.88c.64 3.54.64 7.46 3.29 10.22-1.35.31-3.38-.05-3.52 1.86 2.14 5.09 6.43 9.84 12.07 10.87 1.77-2.11-.27-3.93-1.7-5.43-1.54-2.85-3.42-5.47-5.16-8.18l3.63-2.19c3.69 5.61 8.48 10.98 14.89 13.46 1.87.7 3.77 1.3 5.68 1.88l-5.05 5.8 1.31-4.78c-3.08-.64-6.17-1.12-9.27-1.56 1.35 1.56 2.55 3.24 3.55 5.05-3.29.78-6.82 1.44-10.12.38-2.4-.99-4.2-2.99-6.52-4.09-1.87-.36-3.78 0-5.66.08l.89 3c-3.99-1.77-5.81-5.92-5.9-10.09l3.5 2.41 1.63-1.71c-.79-2.07-1.82-4.04-3.01-5.9l-3.09.41c.51 6.71-3.99 12.19-4.19 18.77 4.53-.47 9.28-2.15 13.65-.02l-1.47 1.81c-2.91.25-5.86.47-8.66 1.36-1.64.37-3.21 1.23-4.91 1.19-2.6-.57-5.16-1.39-7.83-1.56.57-2.34.95-4.72 1.04-7.13l.11-4.91c1.27 2.39 3.53 3.81 6.3 3 1.25-6.85.91-13.9-.09-20.76-1.84.52-3.83.84-5.41 1.99-1.36 2.71-1.61 5.82-1.79 8.8l-3.16-1.62c2.14-2.68 3.39-5.98 1.8-9.28-4.26-.27-8.56-.44-12.78.27 6.11-1.15 12.39-1.2 18.52-2.33 3.95 1.34 8.05 2.24 12.22 2.5 2.54.53 5.64-.36 5.21-3.57z"/><path fill="#787a71" d="M300.31 276.31c1.56-2.16 3.21-4.25 5.01-6.22 2.43 1.07 3.89 3.34 4.89 5.7 1.24 3.01 2.94 6.42 1.43 9.65-4.67.62-8.1 4.17-12.34 5.91-3 1.08-2.58 6.23-6.08 6.34-2.61-.02-3.27-2.89-3.08-5 2.34-.66 5.19-1.07 6.08-3.72-1.79-1.35-3.65-2.58-5.58-3.71 3.42-2.75 7.07-5.36 9.67-8.95z"/><path fill="#5e5f5e" d="M198.26 273.28c4.22-.71 8.52-.54 12.78-.27 1.59 3.3.34 6.6-1.8 9.28l3.16 1.62c.56 2.28 1.09 4.6.99 6.97l-.11 4.91c-2.6-.53-5.21-.12-7.74.51-4.93 1.28-10.58-.57-14.9 2.79.21-4.52 2.74-8.54 2.83-13.07.19-3.68.2-7.76-2.54-10.59 1.73-.42 3.42-.99 5.11-1.55l2.22-.6z"/><path fill="#86877f" d="M214.19 275.11c1.58-1.15 3.57-1.47 5.41-1.99 1 6.86 1.34 13.91.09 20.76-2.77.81-5.03-.61-6.3-3 .1-2.37-.43-4.69-.99-6.97.18-2.98.43-6.09 1.79-8.8z"/><path fill="#040404" opacity=".75" d="M175.75 274.83c3.23-1.26 6.39 1.01 9.66.6 3.55-.45 7.08-1.06 10.63-1.55-1.69.56-3.38 1.13-5.11 1.55-2.75.6-5.53 1.09-8.3 1.61l-4.79.68c-3.31.34-6.52-.72-9.8-.84-2.89.71-5.79 1.7-8.77.85-5.5-1.09-10.98.79-16.5.51l.69-2.99c5.51.03 10.98 1.16 16.5.64 5.26-.51 10.67.55 15.79-1.06z"/><path fill="#7d7973" d="M274.18 273.87l3.85 1.19c-2.77 2.17-5.48 4.68-8.9 5.78-3.13.64-6.35.34-9.53.36l-1.94-1.93c5.2-2.8 11.27-2.87 16.52-5.4z"/><path fill="#707169" d="M182.63 277.04l8.3-1.61c2.74 2.83 2.73 6.91 2.54 10.59-.09 4.53-2.62 8.55-2.83 13.07l-1.97 1.37c-3.78-.91-7.69-1.1-11.52-1.76l-3.12-.95c-.1-1.97-.16-3.94-.14-5.91l.02-.94c4.48 3.09 9.96 7.38 15.67 4.82 1.44-5.73 1.56-11.69 1.12-17.56-2.72.11-5.8.9-8.07-1.12z"/><path fill="#3f4040" d="M142.77 278.24c5.52.28 11-1.6 16.5-.51-3.23 1.23-6.43 2.56-9.78 3.43-4.33-.76-8.75-.77-13.1-1.4-2.62-.46-5.19.37-7.66 1.18l.41-3.02c4.54-.74 9.08.36 13.63.32z"/><path fill="#616260" d="M159.27 277.73c2.98.85 5.88-.14 8.77-.85 3.28.12 6.49 1.18 9.8.84-1.11.51-2.23 1.05-3.21 1.81-1.12 3.67-.47 7.59-.72 11.37l-.02.94c-2.19 1.27-4.29 3.96-7.1 3.12-3.41-.81-6.91-.25-10.36-.14l-.95-2.76a69.68 69.68 0 0 0 .65-2.24c.26-3.18.33-6.36.59-9.53l-5.63 1.43-1.6-.56c3.35-.87 6.55-2.2 9.78-3.43m1.61 6c-1.12 2.01-.58 4.47-.64 6.68 1.34.4 3.16 1.69 4.21.1 1.73-2.43.87-5.49.22-8.12-1.33.14-2.99-.01-3.79 1.34z"/><path fill="#85887f" d="M177.84 277.72l4.79-.68c2.27 2.02 5.35 1.23 8.07 1.12.44 5.87.32 11.83-1.12 17.56-5.71 2.56-11.19-1.73-15.67-4.82.25-3.78-.4-7.7.72-11.37.98-.76 2.1-1.3 3.21-1.81z"/><path fill="#6e7174" d="M128.73 280.94c2.47-.81 5.04-1.64 7.66-1.18 4.35.63 8.77.64 13.1 1.4l1.6.56c-1.99.67-3.97 1.62-6.11 1.67-1.35-.43-2.57-1.17-3.89-1.64-1.78.42-3.11 1.84-3.61 3.57-.17 1.04-.29 2.09-.42 3.13 6 1.6 12.25 1.11 18.39 1.31l.68.06a69.68 69.68 0 0 1-.65 2.24c-4.45-1.07-9.04-.82-13.56-.54-2.87-.8-5.49-2.24-8.1-3.63.82-1.38.56-2.39-.77-3.02-1.33.55-1.64 1.51-.94 2.9-1.43.35-2.84.77-4.24 1.18l.86-8.01z"/><path fill="#7d8083" d="M151.09 281.72l5.63-1.43-.59 9.53-.68-.06-1.7-3.17c-5.38-.86-10.81-1.65-16.27-1.27.5-1.73 1.83-3.15 3.61-3.57 1.32.47 2.54 1.21 3.89 1.64 2.14-.05 4.12-1 6.11-1.67z"/><path fill="#414140" d="M233.98 281.96c.14-1.91 2.17-1.55 3.52-1.86 1.96 2.71 4.17 5.26 6.85 7.3 1.43 1.5 3.47 3.32 1.7 5.43-5.64-1.03-9.93-5.78-12.07-10.87z"/><path fill="#55544f" d="M225.65 281.37l3.09-.41c1.19 1.86 2.22 3.83 3.01 5.9l-1.63 1.71-3.5-2.41c.09 4.17 1.91 8.32 5.9 10.09l-.89-3c1.88-.08 3.79-.44 5.66-.08 2.32 1.1 4.12 3.1 6.52 4.09 3.3 1.06 6.83.4 10.12-.38-1-1.81-2.2-3.49-3.55-5.05 3.1.44 6.19.92 9.27 1.56l-1.31 4.78 5.05-5.8c4.06 1.69 8.43 1.27 12.48-.17 2.34 2.44 5.66 4.43 6.39 7.97-2.45-1.83-5.79-5.3-8.92-2.79-3.34 2.36-7.25 3.45-11.29 3.74l1.9-2.14c-4.42.05-9.12-.37-13.11 1.91 3.11.43 6.27.64 9.42.49-4.49.67-9.05.65-13.57.39-3.04-.51-6.06.16-8.98.93-4.17 1.11-8.49.58-12.73.59 2.8-.89 5.75-1.11 8.66-1.36l1.47-1.81c-4.37-2.13-9.12-.45-13.65.02.2-6.58 4.7-12.06 4.19-18.77z"/><path fill="#949397" d="M160.88 283.73c.8-1.35 2.46-1.2 3.79-1.34.65 2.63 1.51 5.69-.22 8.12-1.05 1.59-2.87.3-4.21-.1.06-2.21-.48-4.67.64-6.68z"/><path fill="#292926" d="M311.34 286.34c2.2-1.46 4.16-3.61 6.9-3.96l-2.17 5.63c-2.23.53-4.91.6-6.33 2.7-3.56 4.51-7.93 8.47-10.33 13.8-1.21 3.18-4.9 3.69-7.78 4.48l.35-.58c1.99-3.14 3.92-6.32 6.17-9.29 4.66-3.98 8.59-8.73 13.19-12.78z"/><path fill="#87888a" d="M318.24 282.38l1.76-.3 1.77 3.74c-1.56 1.04-3.59 1.72-4.56 3.42-.7 2.94.01 6.43-2.21 8.83-3.6 4.36-7.98 7.99-11.55 12.38l-3.57-3.18c7.75-3.87 13.78-10.92 16.19-19.26a176.11 176.11 0 0 0 2.17-5.63z"/><path fill="#9d9ba0" d="M132.11 287.77c-.7-1.39-.39-2.35.94-2.9 1.33.63 1.59 1.64.77 3.02l-1.71-.12z"/><path fill="#9c9b9f" d="M137.48 285.32c5.46-.38 10.89.41 16.27 1.27l1.7 3.17c-6.14-.2-12.39.29-18.39-1.31l.42-3.13z"/><path fill="#6a6c64" d="M278.82 292.77c3.24-3.52 7.99-4.82 11.82-7.51 1.93 1.13 3.79 2.36 5.58 3.71-.89 2.65-3.74 3.06-6.08 3.72-.19 2.11.47 4.98 3.08 5 3.5-.11 3.08-5.26 6.08-6.34 4.24-1.74 7.67-5.29 12.34-5.91l-.3.9c-4.6 4.05-8.53 8.8-13.19 12.78-2.76.91-5.48 1.92-8.08 3.21-3.51-3.5-6.31-7.88-11.25-9.56z"/><path fill="#5e5b55" d="M317.21 289.24c.97-1.7 3-2.38 4.56-3.42 1.61 2.04 3.9 3.33 6.24 4.36l-.18.78c-.65 2.58-1.28 5.76-4.44 6.13l-.65-7.09c-2.74 2.94-3.46 6.98-5.45 10.34-2.73 3.23-5.62 6.36-8.63 9.34-3.87 2.68-8.34 4.4-12.79 5.86-2.06-1.05-3.97-2.36-5.78-3.8l1.54-2.75c2.88-.79 6.57-1.3 7.78-4.48 2.4-5.33 6.77-9.29 10.33-13.8 1.42-2.1 4.1-2.17 6.33-2.7-2.41 8.34-8.44 15.39-16.19 19.26l3.57 3.18c3.57-4.39 7.95-8.02 11.55-12.38 2.22-2.4 1.51-5.89 2.21-8.83z"/><path fill="#505358" d="M127.87 288.95l4.24-1.18 1.71.12c2.61 1.39 5.23 2.83 8.1 3.63-4.91.18-9.45 2.49-14.4 2.46a139.97 139.97 0 0 1 .35-5.03z"/><path fill="#3a3a3b" d="M317.29 300.34c1.99-3.36 2.71-7.4 5.45-10.34l.65 7.09c3.16-.37 3.79-3.55 4.44-6.13-.26 1.9.21 4.15-1.24 5.68-2.58 3.14-4.39 6.8-6.35 10.34-4.67 1.02-7.42 5.83-12.43 5.98l-.84 1.85c1.65.56 3.32 1.08 5.01 1.56-5.37-.19-10.82.29-16.11-.83 4.45-1.46 8.92-3.18 12.79-5.86 3.01-2.98 5.9-6.11 8.63-9.34z"/><path fill="#424140" d="M127.52 293.98c4.95.03 9.49-2.28 14.4-2.46 4.52-.28 9.11-.53 13.56.54l.95 2.76c3.45-.11 6.95-.67 10.36.14 2.81.84 4.91-1.85 7.1-3.12-.02 1.97.04 3.94.14 5.91l3.12.95c-3.06-.71-5.47 1.33-7.9 2.8-.66-1.1-1.79-1.81-3.1-1.47-5.02.66-9.96 2.07-15.08 1.84l.62-2.66c-1.45.54-2.91 1.08-4.33 1.71-2.41-.91-4.77-2.16-7.37-2.39-1.75.61-3.33 1.64-5.11 2.15-1.86-.12-3.65-.69-5.46-1.12l-1.98-3.7.08-1.88z"/><path fill="#4a4b4a" d="M205.54 296.3c2.53-.63 5.14-1.04 7.74-.51-.09 2.41-.47 4.79-1.04 7.13-7.85-.48-16.17.9-23.57-2.46l1.97-1.37c4.32-3.36 9.97-1.51 14.9-2.79z"/><path fill="#524f4c" d="M134.88 300.68c1.78-.51 3.36-1.54 5.11-2.15 2.6.23 4.96 1.48 7.37 2.39-4.87 4.18-11.38 3.55-17.35 3.96-.17-1.78-.3-3.56-.59-5.32 1.81.43 3.6 1 5.46 1.12z"/><path fill="#7c7976" d="M250.84 300.89c3.99-2.28 8.69-1.86 13.11-1.91l-1.9 2.14-1.79.26c-3.15.15-6.31-.06-9.42-.49z"/><path fill="#5d5c5b" d="M307.81 312.96c5.01-.15 7.76-4.96 12.43-5.98-1.1 4.3-4.3 7.56-8.26 9.39-1.69-.48-3.36-1-5.01-1.56l.84-1.85z"/></svg>