<svg xmlns="http://www.w3.org/2000/svg" width="682.667" height="682.667" viewBox="0 0 512 512" xmlns:v="https://vecta.io/nano"><path fill="#61615f" d="M222.85 172.57c3.09-1.18 6.05.18 8.87 1.38 3.6.67 7.33.53 10.88 1.56-2.73 1.92-5.42 3.94-7.55 6.53-4.58-2.94-9.67-.67-14.26.87l-1.35 4.31-.64-3.45c-.77 1.33-1.97 2.53-2.23 4.09.31 1.23.8 2.4 1.22 3.59l-.48 1.14-3.5.57c-.77-6.44-1.14-15.35 5.72-18.68l-.68 5.79c3.1-1.76 6.68-3.28 8.3-6.7l-4.3-1z"/><path d="M219.53 174.48l3.32-1.91 4.3 1c-1.62 3.42-5.2 4.94-8.3 6.7l.68-5.79zm119.96 104.28c-.35-3.55 2.34-5.75 5.47-6.65-1.44 2.47-2.64 5.48-5.47 6.65z" fill="#888785"/><path fill="#464846" d="M242.6 175.51c5.76.88 10.85 3.79 16.09 6.11-2.02.51-4.04 1.04-6.09 1.44-5.21.06-10.44-.24-15.62.43l-1.93-1.45c2.13-2.59 4.82-4.61 7.55-6.53z"/><path fill="#505251" d="M220.79 182.91c4.59-1.54 9.68-3.81 14.26-.87l1.93 1.45c5.18-.67 10.41-.37 15.62-.43-3.39.81-6.72 2.01-9.47 4.21-.32-.04-.95-.13-1.27-.18-4.44-.09-9.52.49-12.49 4.21-1.36 2.17-1.34 4.85-1.74 7.32l4.94-.59c2.42.4 4.84.89 7.31 1-5 5.87-4.91 13.93-3.79 21.12l.19 2.08c-1.18.95-2.32 1.97-3.51 2.91-.96.29-1.92.56-2.89.81 1.19-3.41 3.11-6.83 2.88-10.54-2.07-2.96-5.26-4.85-8.17-6.88-.26-3.31-.11-6.74-1.22-9.91-2.49-2.92-7.36-2.05-9.56-5.46l3.5-.57.48-1.14c.59-1.4 1.18-2.79 1.65-4.23.48-1.43.92-2.87 1.35-4.31z"/><path fill="#747676" d="M258.69 181.62l1.38.54c1.13 1.06 2.16 2.21 3.17 3.39-5.01.7-9.88 2.11-14.83 3.13-1.92.61-3.66-.56-5.28-1.41 2.75-2.2 6.08-3.4 9.47-4.21 2.05-.4 4.07-.93 6.09-1.44z"/><path fill="#312e29" d="M260.07 182.16l6.35 2.64-.36 8.37-.05 1.94c-7.23.15-14.08 2.74-21.23 3.55l-4.9.37c-2.47-.11-4.89-.6-7.31-1l5.35-2.65a129.41 129.41 0 0 1 5.57.04c5.03.43 10.17-.2 14.86-2.1 1.87-1.04 2.58-3.28 3.75-4.96 1.14.06 2.28.03 3.42-.07-.75-.93-1.51-1.84-2.28-2.74-1.01-1.18-2.04-2.33-3.17-3.39z"/><path fill="#8b8a8c" d="M216.57 187.86c.26-1.56 1.46-2.76 2.23-4.09l.64 3.45c-.47 1.44-1.06 2.83-1.65 4.23l-1.22-3.59z"/><path fill="#c59275" d="M266.42 184.8l6.53 2.51c2.94 1.06 7.69 1.66 7.69 5.69.15 3.75-3.78 4.99-6.81 5.26l-.87-.19-5.52-1.55-1.38-3.35.36-8.37z"/><path fill="#9a9b9f" d="M248.41 188.68c4.95-1.02 9.82-2.43 14.83-3.13l2.28 2.74c-1.14.1-2.28.13-3.42.07-6.67.16-14.16 1.63-18.61 7.06a129.41 129.41 0 0 0-5.57-.04c2.07-1.36 3.98-2.94 5.9-4.49l-1.96-3.8 1.27.18c1.62.85 3.36 2.02 5.28 1.41z"/><path fill="#696a68" d="M272.95 187.31c3.67-.04 7.23-1.48 10.92-.97 6.14.77 11.83 3.63 16.65 7.43l-.42 4.95c-1.31-1.74-2.65-3.46-4.02-5.15l-6.74 4.33c1.36 1.21 2.85 2.32 3.92 3.82.54 1.34-.19 2.81-.23 4.2-1.84-.46-3.67-.95-5.48-1.47-1.08-2.84-.78-5.75.4-8.48-.26-2.4-2.52-4.13-3.83-6.06-1.3 4.24-3.07 8.76-7.7 10.25l-2.59-1.9c3.03-.27 6.96-1.51 6.81-5.26 0-4.03-4.75-4.63-7.69-5.69z"/><path fill="#5d5f61" d="M229.37 191.3c2.97-3.72 8.05-4.3 12.49-4.21l1.96 3.8c-1.92 1.55-3.83 3.13-5.9 4.49-1.81.83-3.58 1.75-5.35 2.65l-4.94.59c.4-2.47.38-5.15 1.74-7.32z"/><path fill="#5e5851" d="M243.49 195.42c4.45-5.43 11.94-6.9 18.61-7.06-1.17 1.68-1.88 3.92-3.75 4.96-4.69 1.9-9.83 2.53-14.86 2.1z"/><path fill="#4d4c49" d="M284.12 189.91c1.31 1.93 3.57 3.66 3.83 6.06-1.18 2.73-1.48 5.64-.4 8.48l5.48 1.47c.04-1.39.77-2.86.23-4.2-1.07-1.5-2.56-2.61-3.92-3.82l6.74-4.33 4.02 5.15.42-4.95c.63 4.26-1.17 8.3-1.7 12.46.06 1.93.67 3.8.98 5.71-2.57.68-4.92-.21-6.89-1.84-6.55-3.28-12.37-8.01-19.51-10.01a95.07 95.07 0 0 1-2.48-1.89l2.04-.13.87.19a90.12 90.12 0 0 1 2.59 1.9c4.63-1.49 6.4-6.01 7.7-10.25z"/><path fill="#626360" d="M266.06 193.17l1.38 3.35 5.52 1.55-2.04.13-3 .2 2.72 4.2c2.8 4.39 8.83 2.33 12.52 5.29 2.3 1.51 4.53 4.51 7.61 3l3.46 1.85-1.71 4.72c-1.8.13-3.65.16-5.35.85.62 2.36 1.77 4.54 2.63 6.82-1.57.46-3.15.93-4.78 1.01-5.22-2.1-11.56-3.3-16.46.22l-3.44.34 4.15 4.81a83.35 83.35 0 0 0 10.95-.09l1.97-3.46c1.93.74 3.86 1.48 5.84 2.09l-.85.28c-3.28 1.12-5.02 4.24-7.49 6.4-2.77.62-5.62.35-8.42.25-4.69-.76-9.69-1.52-14.29.08-2.53 3.12-2.77 7.49-4.8 10.95l.05-9.26c2.45-2.52 4.84-5.09 6.92-7.93-3.39-2.16-5.88 1.47-8.58 3.04-2.79-.05-5.57.38-8.1 1.61 2.36-2.03 4.62-4.34 7.6-5.42 4.06-1.54 8.42-2.04 12.5-3.5 1.32-.21 1.78-1.5 2.65-2.33-5.06.3-10.3.38-15.14 1.98-5.13 3.64-9.35 8.42-13.91 12.73l1.63 1.3c-1.14 1.58-2.69 2.81-4.73 2.69 1.46-2.69 1.47-5.72.96-8.65l4.52-3.51-.33-1.18c-2.97 1.2-6.11 1.78-9.28 2.1l-.46-3.96 1.4-1.77c.97-.25 1.93-.52 2.89-.81l1.23 2.25c5.9-4.07 12.5-7.13 19.2-9.62 10.66-2.18 21.66-4.74 32.53-2.44l1.29-1.68c-6.95 1.11-12.99-4.87-19.96-3.19-6.12 1.37-12.67 1.25-18.32 4.25-4.31 2.23-8.51 4.7-12.46 7.52l-.19-2.08c2.06-4.86 8.07-4.43 12.07-6.73 5.21-2.62 10.81-4.49 16.68-4.79a116.5 116.5 0 0 0 7.19-.87c-2.94-4.13-6.22-8.13-10.17-11.32-3.52.92-6.51 3.24-10.05 4.07-2.45-.11-4.69-1.23-7.03-1.85 7.15-.81 14-3.4 21.23-3.55l.05-1.94z"/><path fill="#7d7e76" d="M251.81 200.51c3.54-.83 6.53-3.15 10.05-4.07 3.95 3.19 7.23 7.19 10.17 11.32a116.5 116.5 0 0 1-7.19.87l2-.96c-1.06-2.55-1.54-6.23-4.82-6.78-5.47-1.38-10.17 3.2-15.42 4.06-.78 2.49-1.26 5.05-1.53 7.65l3.09.82c-4 2.3-10.01 1.87-12.07 6.73-1.12-7.19-1.21-15.25 3.79-21.12 1.63-.09 3.27-.24 4.9-.37 2.34.62 4.58 1.74 7.03 1.85z"/><path fill="#8f9087" d="M246.6 204.95c5.25-.86 9.95-5.44 15.42-4.06 3.28.55 3.76 4.23 4.82 6.78l-2 .96c-5.87.3-11.47 2.17-16.68 4.79l-3.09-.82c.27-2.6.75-5.16 1.53-7.65z"/><path fill="#020201" opacity=".76" d="M273.4 200.09c7.14 2 12.96 6.73 19.51 10.01l-2.14.79c-3.08 1.51-5.31-1.49-7.61-3-3.69-2.96-9.72-.9-12.52-5.29l2.76-2.51z"/><path fill="#8b887f" d="M267.06 210.46c6.97-1.68 13.01 4.3 19.96 3.19l-1.29 1.68c-10.87-2.3-21.87.26-32.53 2.44-6.7 2.49-13.3 5.55-19.2 9.62l-1.23-2.25c1.19-.94 2.33-1.96 3.51-2.91 3.95-2.82 8.15-5.29 12.46-7.52 5.65-3 12.2-2.88 18.32-4.25z"/><path fill="#54554f" d="M294.23 212.74l6.52 3.55-2.67.04c3.21 3.81 6 8.07 6.7 13.12-2.71-.77-5.48-1.32-8.27-1.69l.15 2.31c-2.88-.19-5.76-.09-8.63-.02-1.98-.61-3.91-1.35-5.84-2.09l-1.97 3.46a83.35 83.35 0 0 1-10.95.09l-4.15-4.81 3.44-.34c5.47.8 10.99.33 16.46-.22 1.63-.08 3.21-.55 4.78-1.01-.86-2.28-2.01-4.46-2.63-6.82 1.7-.69 3.55-.72 5.35-.85l1.71-4.72z"/><path fill="#989798" d="M298.08 216.33l2.67-.04 1.42.55 2.13 1.05c1.27 2.19 2.11 4.58 2.82 7-.73 1.51-.45 3.29.85 4.4l.2.91c-1.15-.18-2.27-.45-3.39-.75-.7-5.05-3.49-9.31-6.7-13.12z"/><path fill="#3b3b3c" opacity=".66" d="M302.17 216.84l2.13 1.05-2.13-1.05z"/><path fill="#898d8d" d="M409.26 224.32c5.35-2.64 11.13-5.13 17.18-5.17l-.35 1.25-1.13 3.18c-3.85 1.74-7.56 3.79-11.49 5.35-4.81 1.93-8.76 5.84-14.05 6.54-3.86.38-6.59 3.34-9.92 4.94-2.16.91-4.04-.94-5.76-1.95-.66 1.9-1.34 3.8-2.16 5.64-1.49-1.08-3-2.11-4.63-2.95l1.74-5.32c1.64-.68 3.31-1.32 5-1.89 2.11-.67 4.23-1.36 6.29-2.18l-3.23-1.86 6.57-2.84 5.59-2.08 2.06-1.24c1.68-.47 3.37-.93 5.09-1.31l-1.43 1.85c-.68.86-1.35 1.73-1.99 2.61a30.79 30.79 0 0 0 6.62-2.57z"/><path fill="#2e2d32" d="M426.44 219.15c1.12.69 2.84.87 3.38 2.25 1.29 1.99.06 4.29-.3 6.37l-2.48-1.74-.95-5.63.35-1.25z"/><path fill="#5b5d6a" d="M424.96 223.58l1.13-3.18.95 5.63c-8.97 3.56-17.55 7.94-26.35 11.85-4.72 1.95-9.9 3.39-13.53 7.21-2.45 2.61-5.8 4.14-9.37 4.36l1.35-1.85c.83-1.15 1.66-2.31 2.44-3.5.82-1.84 1.5-3.74 2.16-5.64 1.72 1.01 3.6 2.86 5.76 1.95 3.33-1.6 6.06-4.56 9.92-4.94 5.29-.7 9.24-4.61 14.05-6.54 3.93-1.56 7.64-3.61 11.49-5.35z"/><path fill="#98948c" d="M250.08 226.2c4.84-1.6 10.08-1.68 15.14-1.98-.87.83-1.33 2.12-2.65 2.33-4.08 1.46-8.44 1.96-12.5 3.5-2.98 1.08-5.24 3.39-7.6 5.42-1.7 1.44-3.23 3.06-4.67 4.76l-1.63-1.3c4.56-4.31 8.78-9.09 13.91-12.73z"/><path fill="#81817f" d="M268.56 226.36c4.9-3.52 11.24-2.32 16.46-.22-5.47.55-10.99 1.02-16.46.22z"/><path fill="#3c3e43" opacity=".71" d="M398.91 224.98l2.06-1.24-2.06 1.24z"/><path fill="#323433" opacity=".66" d="M402.64 226.89l1.99-2.61 4.63.04a30.79 30.79 0 0 1-6.62 2.57z"/><path fill="#414242" opacity=".69" d="M307.12 224.89a4.56 4.56 0 0 1 .85 4.4c-1.3-1.11-1.58-2.89-.85-4.4z"/><path opacity=".75" d="M380.04 229.99c4.17-1.87 8.57-4.12 13.28-2.93l-6.57 2.84c-1.68.76-2.41 2.44-3.06 4.04-1.69.57-3.36 1.21-5 1.89-2.53 1.05-5.11 1.97-7.56 3.17-2.01 1.22-3.96 2.52-6.01 3.67l-7-8.07c5.25-.74 10.25-2.51 14.9-5.06l1.98 2.47 5.04-2.02z"/><path fill="#7f8277" d="M427.04 226.03l2.48 1.74c-3.87 2.18-7.15 5.25-11.09 7.31-2.87-.39-6.05-.03-8.18 2.13-1.08 1.98-1.25 4.3-1.74 6.47l-1.97.26-.22-3.04c-1.46.69-2.93 1.38-4.31 2.21l-1.32-5.23c8.8-3.91 17.38-8.29 26.35-11.85z"/><path fill="#424342" d="M223.96 236.01c1-3.01 2.46-5.86 4.52-8.29l.46 3.96c3.17-.32 6.31-.9 9.28-2.1l.33 1.18-4.52 3.51c.51 2.93.5 5.96-.96 8.65 2.04.12 3.59-1.11 4.73-2.69 1.44-1.7 2.97-3.32 4.67-4.76 2.53-1.23 5.31-1.66 8.1-1.61l-2.54 2.23c-3.92 3.7-4.76 9.23-5.82 14.25-.69-2.1-1.48-4.15-2.2-6.22-2.52-.05-4.98.52-7.16 1.79l-1.9.91c-.2 8.47 1.72 16.79 1.93 25.24-1.85-.21-3.7-.47-5.53-.79-.27-4.18-.25-8.38-.85-12.53-.45 1.94-.6 3.94-1.1 5.88l-.67.18c.05-4.96.1-9.93-.08-14.89-.08-4.4-2.09-8.7-.95-13.1.06 2.39.27 4.78.46 7.17l4.39-.92c-.46-3.32-1.03-6.62-1.76-9.89-.96.94-1.92 1.87-2.83 2.84z"/><path fill="#54596d" d="M296.51 227.76c2.79.37 5.56.92 8.27 1.69l3.39.75 8.91.25.93.15-1.66 3.18-4.35-1.8c1.2 4.89 2.92 9.63 4.59 14.38l-.26.04c-2.94 1.05-3.4-2.31-4.63-4.14-.96-1.65-2.85-2.41-4.34-3.48-1.29-5.03-6.15-7.33-10.7-8.71l-.15-2.31z"/><path fill="#818282" d="M250.57 233.86c2.7-1.57 5.19-5.2 8.58-3.04-2.08 2.84-4.47 5.41-6.92 7.93-1.74 1.86-3.47 3.83-4.34 6.27-.65 1.68-1.23 3.39-1.84 5.09.12-4.73.91-9.41 1.98-14.02a59.55 59.55 0 0 1 2.54-2.23z"/><path fill="#83827c" d="M288.03 230.05l8.63.02c4.55 1.38 9.41 3.68 10.7 8.71l-1.52 2.43-5.58.65.87 4.02 1.24 5.29-2.28.61-.41-5.73-1.06 2.22c-.38-2.03-1.16-4.09-.79-6.16.77-1.66 1.96-3.08 3.04-4.54-3.84-2.93-8.48-4.38-13.25-4.79l-.44-2.45.85-.28z"/><path fill="#444c2e" d="M317.08 230.45c1.81.14 4.05-.58 5.42.97 1.98 1.83 1.08 4.81 1.23 7.2 1.8 1.93 3.98 4.23 3.05 7.13-.23 2.42-3.16 2.62-4.89 3.54l-.73.31-.41 4.34-1.96-.45c-.02-1.35-.11-2.74.31-4.04 1.42-.79 2.96-1.31 4.46-1.91l.14-3.81.03-.31.56-2.25-2.57-2.2c1.07-3.31-.49-6.95-3.71-8.37l-.93-.15z"/><path fill="#525457" opacity=".95" d="M383.69 233.94c.65-1.6 1.38-3.28 3.06-4.04l3.23 1.86-6.29 2.18z"/><path fill="#96948d" d="M279.69 236.73c2.47-2.16 4.21-5.28 7.49-6.4l.44 2.45c4.77.41 9.41 1.86 13.25 4.79-1.08 1.46-2.27 2.88-3.04 4.54-.37 2.07.41 4.13.79 6.16-.66 2.05-2.6 2.62-4.57 2.58-1.98-.02-3.98-.44-5.94-.09-1.73 1.01-3.26 2.34-4.88 3.53l1.29-3.45c1.18-1.06-.81-3.34-1.5-1.49l.74 1.44c-3.08-.31-6.16-.62-9.25-.76l.79 2.29a5.16 5.16 0 0 1 .1.42l.35 2.33c5.83.46 11.67-.53 17.5.02-2.25.93-4.82 1.03-6.85 2.46-2.06 1.28-3.69 3.65-6.37 3.49-7.21.22-14.53-.41-21.34-2.88-1.29-4.02-2.22-8.62-.12-12.54 1.06-1.11 2.43-1.84 3.71-2.65l.74-3.96c2.72-.76 5.46-1.51 8.25-2.03 2.8.1 5.65.37 8.42-.25z"/><path fill="#6a6d80" d="M318.01 230.6c3.22 1.42 4.78 5.06 3.71 8.37l2.57 2.2-.56 2.25c0 .08-.02.23-.03.31l-.14 3.81c-1.5.6-3.04 1.12-4.46 1.91-.42 1.3-.33 2.69-.31 4.04l1.96.45 4.51 1.12c-.93 3.06-2.66 5.76-4.93 7.99l.94 5.35c-1.38.44-2.78.91-4.25.9l-3.69-.88.99-6.86 6.18-4.68c-3.04-.16-6.31-.22-8.67-2.43l3.34-.61c-.13-1.97-.31-4.02-1.78-5.5-3.22-3.29-8.1-2.53-12.26-2.46l-.87-4.02 5.58-.65 1.52-2.43c1.49 1.07 3.38 1.83 4.34 3.48 1.23 1.83 1.69 5.19 4.63 4.14h.24l.02-.04c-1.67-4.75-3.39-9.49-4.59-14.38l4.35 1.8 1.66-3.18z"/><path fill="#777972" d="M223.96 236.01l2.83-2.84c.73 3.27 1.3 6.57 1.76 9.89l-4.39.92c-.19-2.39-.4-4.78-.46-7.17l.26-.8z"/><path fill="#5b5b65" d="M410.25 237.21c2.13-2.16 5.31-2.52 8.18-2.13-2.7 1.61-5.51 3.03-8.45 4.17 1.89.44 3.45 1.53 4.68 3.02l-7.51 3.48-2.85 2.36a23.85 23.85 0 0 0-2.92-.12l.29-1.83-6.45 1.67-1.98-1.77c3.08-.51 6.38-.64 8.77-2.95 1.38-.83 2.85-1.52 4.31-2.21l.22 3.04 1.97-.26c.49-2.17.66-4.49 1.74-6.47z"/><path fill="#7f8182" d="M355.57 235.44l2.55-.84c2.37 2.65 4.65 5.39 7 8.07 2.05-1.15 4-2.45 6.01-3.67 1.75 1.15 3.63 2.32 5.82 2.15.61 2.19 1.34 4.34 2.19 6.45-.46.61-.9 1.23-1.35 1.85l-6.76.55c-2.39-.58-1.9 3.08.17 1.55-.23 1.32-.54 2.62-.85 3.92l3.21-.19 2.71.63.89.27c-4.31 1.17-9.04.89-13.03 3.1-3.73 1.93-7.53 3.72-11.49 5.14-.32 2.34-.67 4.71-1.67 6.87l-1.31-5.15-10.03 3.45c-.3-.5-.88-1.51-1.17-2.02l-3.34.75-2.34-.9-.26-3.31-5.66 4.87c-1.37-1.35-2.54-2.87-3.68-4.41l1.41-1.49 4.52 1.8c.57-1.17 1.28-2.31 1.55-3.6-.63-.95-1.4-1.8-2.14-2.66l-.46-.52c1.51-.31 3.03-.61 4.52-1.01.8 3.88 4.02 6.45 6.57 9.22l1.86-1.44c-1.54-3.21-3.24-6.34-5.17-9.33 1.47-.78 2.93-1.6 4.45-2.33l-1.82 3.64 4.16-.35.96 1.54 2.69 4.58c-.86 1.08-1.61 2.23-2.34 3.39 4.37-2 8.28-4.88 12.07-7.81l1.63-2.55c-1.62-1.26-3.33-2.42-5.18-3.3-2.76-1.1-5.78-.87-8.66-.61 4.8-2.44 10.17-3.88 14.55-7.08l2.11-1.83c-1.13-2.77-2.66-5.37-4.89-7.39m11.52 8.82c-.57 1.62-.02 2.16 1.65 1.62.54-1.62-.01-2.16-1.65-1.62z"/><path fill="#6b6b69" d="M242.21 250.34c1.06-5.02 1.9-10.55 5.82-14.25-1.07 4.61-1.86 9.29-1.98 14.02l1.84-5.09c-.46 3.75-.86 7.74.82 11.28 1.38 2.66 1.26 5.66.94 8.54 1.67-.12 3.33-.3 4.99-.48-2.59-4.76-3.5-10.37-2.55-15.7 1.63 1.84 2.33 4.2 2.88 6.55.83 3.77 3.37 7.07 6.58 9.16 3.37 1.45 7.01 2.13 10.51 3.22-5.08.72-10.21.14-15.2-.95l-2.19-.65c.72 2.42 1.17 4.92 1.36 7.44-4.19-1.51-8.14-4.51-9.99-8.62-.75-4.46-.11-9.06-1.11-13.51l-2.95 1.03.23-1.99z"/><path fill="#84817a" d="M256.98 237.06c4.6-1.6 9.6-.84 14.29-.08-2.79.52-5.53 1.27-8.25 2.03l-.74 3.96c-1.28.81-2.65 1.54-3.71 2.65-2.1 3.92-1.17 8.52.12 12.54 6.81 2.47 14.13 3.1 21.34 2.88 2.68.16 4.31-2.21 6.37-3.49 2.03-1.43 4.6-1.53 6.85-2.46-5.83-.55-11.67.44-17.5-.02l-.35-2.33a5.16 5.16 0 0 0-.1-.42l-.79-2.29c3.09.14 6.17.45 9.25.76l.76.05-1.29 3.45c1.62-1.19 3.15-2.52 4.88-3.53 1.96-.35 3.96.07 5.94.09 1.46 1.58 3.28 2.99 4.1 5.03.54 2.46.02 4.99-.16 7.46.43 0 1.29.02 1.73.03l2.6.75c-5.91 2.68-12.3 4.41-18.84 4.19l-.29-2.21-4.21.69c-2.3.34-4.6.64-6.92.8-3.5-1.09-7.14-1.77-10.51-3.22-3.21-2.09-5.75-5.39-6.58-9.16-.55-2.35-1.25-4.71-2.88-6.55l.09-.65c2.03-3.46 2.27-7.83 4.8-10.95m33.27 15.2c.54.55.54.55 0 0m-10.96.94c.55.55.55.55 0 0z"/><path opacity=".76" d="M352.64 240.72c2.4-.59 2.28-3.39 2.93-5.28-.16 3.33 1.22 6.38 2.78 9.22-4.38 3.2-9.75 4.64-14.55 7.08-1.19.47-2.36.95-3.51 1.47-1.52.73-2.98 1.55-4.45 2.33a60.5 60.5 0 0 1-3.26 1.55c-1.49.4-3.01.7-4.52 1.01l-2.8-3.04c-1.48-.48-3-.8-4.51-1.12l.41-4.34.73-.31-.01 3.18c4.18-.99 8.14-2.67 11.95-4.64a213.3 213.3 0 0 1-1.7-7.49l3.7-1.29c1.12 2.33 2.44 4.55 3.62 6.85 4.27-2.05 8.75-3.55 13.19-5.18z"/><path fill="#b1b0ba" d="M355.57 235.44c2.23 2.02 3.76 4.62 4.89 7.39l-2.11 1.83c-1.56-2.84-2.94-5.89-2.78-9.22z"/><path fill="#555959" opacity=".95" d="M371.13 239c2.45-1.2 5.03-2.12 7.56-3.17l-1.74 5.32c-2.19.17-4.07-1-5.82-2.15z"/><path fill="#9ca28d" d="M387.16 245.09c3.63-3.82 8.81-5.26 13.53-7.21l1.32 5.23c-2.39 2.31-5.69 2.44-8.77 2.95-6.41 3.38-13.17 6.05-19.68 9.22l-3.21.19c.31-1.3.62-2.6.85-3.92l-.17-1.55 6.76-.55c3.57-.22 6.92-1.75 9.37-4.36z"/><path fill="#58534c" d="M247.89 245.02c.87-2.44 2.6-4.41 4.34-6.27l-.05 9.26-.09.65c-.95 5.33-.04 10.94 2.55 15.7l-4.99.48c.32-2.88.44-5.88-.94-8.54-1.68-3.54-1.28-7.53-.82-11.28z"/><path fill="#d9ae5e" d="M376.95 241.15c1.63.84 3.14 1.87 4.63 2.95l-2.44 3.5c-.85-2.11-1.58-4.26-2.19-6.45z"/><path d="M323.7 243.73l.03-.31-.03.31zm-48.4 8.59a5.16 5.16 0 0 1 .1.42 5.16 5.16 0 0 0-.1-.42z" fill="#fff"/><path fill="#7f7f84" d="M407.15 245.75c2.43-1.31 5-2.33 7.51-3.48l2.04 2.16c-2.22 4.81-7.21 7.04-11.77 9.04-1.87-1.27-4.23-.77-5.67.86-7.22 2-14.66 2.35-22.1 1.85l-.89-.27c3.87-1.06 7.88-.67 11.83-.59 2.79.25 5-1.74 7.18-3.16 2.02-1.41 4.02-2.85 6.1-4.17a23.85 23.85 0 0 1 2.92.12c1.76.45 3.59.79 5.38.23-.55-1.17-1.39-2.04-2.53-2.59z"/><path fill="#3a3b3b" d="M232.85 245.91c2.18-1.27 4.64-1.84 7.16-1.79l2.2 6.22-.23 1.99 2.95-1.03c1 4.45.36 9.05 1.11 13.51 1.85 4.11 5.8 7.11 9.99 8.62-.19-2.52-.64-5.02-1.36-7.44l2.19.65c1.24.65 2.46 1.35 3.68 2.05-.54 1.34-1.22 2.67-1.44 4.12.35 1.59 1.85 2.44 3.29 2.87 5.22 1.55 10.86 2.61 16.2.98l.35 2.24-8.15.31-.49 2.01c-1.84-2.28-4.62-2.25-7.21-1.52-2.81-1.27-5.69-2.73-8.87-2.41-3.38.32-6.54-.98-9.55-2.35-.21-8.63-1.44-17.49-5.47-25.23-1.71-1.86-4.12-2.76-6.35-3.8z"/><path fill="#b6b7bd" d="M367.09 244.26c1.64-.54 2.19 0 1.65 1.62-1.67.54-2.22 0-1.65-1.62z"/><path fill="#626264" d="M301.13 245.88c4.16-.07 9.04-.83 12.26 2.46-.57 2.03-1.06 4.07-1.56 6.11 2.36 2.21 5.63 2.27 8.67 2.43-1.95 1.69-4.04 3.22-6.18 4.68a198.67 198.67 0 0 0-.99 6.86l3.69.88c-1.54.39-3.05.94-4.64 1.07-1.12-1.05-2.02-2.29-2.97-3.48a26.44 26.44 0 0 0 2.44-7.41c-2.86-.06-5.81-.44-8.62.31-1.56.7-2.41 2.35-3.51 3.58l-1.73-.03c.18-2.47.7-5 .16-7.46-.82-2.04-2.64-3.45-4.1-5.03 1.97.04 3.91-.53 4.57-2.58l1.06-2.22.41 5.73 2.28-.61-1.24-5.29z"/><path fill="#75766f" d="M230.95 246.82l1.9-.91c2.23 1.04 4.64 1.94 6.35 3.8l-4.57 2.75-1.78-2.39c.21 6.52.62 13.04 1.74 19.47l5.93 1.29c-.83-2.45-1.87-4.82-3.01-7.13l1.56-2.05c1.15 4.13 4.1 8.8 1.4 12.94-1.86 2.81-2.08 6.15-1.62 9.41-1.25-1.98-2.47-4.03-4.18-5.65-1.26.17-2.53.36-3.77.65 1.03 5.29 5.01 9.47 5.37 14.97 2.86-.48 5.62-1.46 8.09-2.98 1.39 1.47 2.89 2.83 4.38 4.22l-1.34.63c-1.3-1.62-4.72-1.6-4.45 1.06-4.27 1.1-7.73-2.04-11.79-2.64-1.86-2.61-4-5.07-5.36-7.99-1.49-3.95-1.51-8.27-1.22-12.42 1.48 2.18 3.01 4.34 4.67 6.4.26-3.14-1.05-6.03-1.9-8.98 1.83.32 3.68.58 5.53.79-.21-8.45-2.13-16.77-1.93-25.24z"/><path fill="#e6e2ea" d="M316.33 246.4l.26-.04-.02.04h-.24z"/><path fill="#3d3e41" opacity=".9" d="M395.22 247.83l6.45-1.67-.29 1.83-6.1 4.17-2.95-3.45 2.89-.88z"/><path fill="#d0ced6" d="M404.3 248.11l2.85-2.36c1.14.55 1.98 1.42 2.53 2.59-1.79.56-3.62.22-5.38-.23z"/><path fill="#d1d5da" d="M283.02 249.35c.69-1.85 2.68.43 1.5 1.49l-.76-.05-.74-1.44z"/><path fill="#eae9eb" d="M313.39 248.34c1.47 1.48 1.65 3.53 1.78 5.5l-3.34.61 1.56-6.11z"/><path fill="#605c57" d="M232.85 250.07l1.78 2.39 4.57-2.75c-.94 3.92-1.07 8.01-.13 11.94l-1.56 2.05c1.14 2.31 2.18 4.68 3.01 7.13l-5.93-1.29c-1.12-6.43-1.53-12.95-1.74-19.47z"/><path fill="#4a4a49" d="M239.2 249.71c4.03 7.74 5.26 16.6 5.47 25.23 3.01 1.37 6.17 2.67 9.55 2.35 3.18-.32 6.06 1.14 8.87 2.41-6.68.02-13.31-1.16-20-.93l.96 1.92c1.67 4.67 7.51 4.28 11.39 5.97l.42 2.91c-2.81.09-5.68.43-8.45-.24-2.3-.71-4.34-2.05-6.45-3.17 1.11 1.62 2.2 3.27 3.4 4.83-2.47 1.52-5.23 2.5-8.09 2.98-.36-5.5-4.34-9.68-5.37-14.97 1.24-.29 2.51-.48 3.77-.65 1.71 1.62 2.93 3.67 4.18 5.65-.46-3.26-.24-6.6 1.62-9.41 2.7-4.14-.25-8.81-1.4-12.94-.94-3.93-.81-8.02.13-11.94z"/><path fill="#dcdce4" d="M371.2 251.55c-2.07 1.53-2.56-2.13-.17-1.55l.17 1.55z"/><path fill="#a4a99a" d="M343.8 251.74c2.88-.26 5.9-.49 8.66.61l-.28 5.22 3.83.63c-3.79 2.93-7.7 5.81-12.07 7.81.73-1.16 1.48-2.31 2.34-3.39 2.15-1.49 6.53-2.89 4.68-6.3-1.06-2.78-4.4-1.02-6.54-.98l-.83 2.7-.96-1.54-4.16.35 1.82-3.64c1.15-.52 2.32-1 3.51-1.47z"/><path fill="#f6f6fd" d="M290.25 252.26c.54.55.54.55 0 0z"/><path fill="#f6f9f9" d="M279.29 253.2c.55.55.55.55 0 0z"/><path fill="#5a5b64" d="M352.46 252.35c1.85.88 3.56 2.04 5.18 3.3l-1.63 2.55-3.83-.63.28-5.22z"/><path fill="#46474b" opacity=".91" d="M399.26 254.33c1.44-1.63 3.8-2.13 5.67-.86-1.71 1.07-3.74 1.08-5.67.86z"/><path fill="#545460" d="M325.26 255.06l2.8 3.04.46.52-3.93 4.46-1.41 1.49c1.14 1.54 2.31 3.06 3.68 4.41l5.66-4.87.26 3.31 2.34.9c-3.78 1.04-6.88 3.5-10.21 5.43l-.95-3.38c-3.04 1.95-6.39 3.53-10.05 3.72.99-1.63 2.02-3.23 3.11-4.79 1.47.01 2.87-.46 4.25-.9l-.94-5.35c2.27-2.23 4-4.93 4.93-7.99z"/><path fill="#97ecfc" d="M344.42 255.34c2.14-.04 5.48-1.8 6.54.98 1.85 3.41-2.53 4.81-4.68 6.3l-2.69-4.58.83-2.7m2.53 4.75l2.41-.95c1.91-.42.21-2.53-.4-3.36-2.77-.4-1.9 2.57-2.01 4.31z"/><path fill="#b0b0b2" d="M332.58 257.09l3.26-1.55c1.93 2.99 3.63 6.12 5.17 9.33l-1.86 1.44c-2.55-2.77-5.77-5.34-6.57-9.22z"/><path fill="#efffff" d="M346.95 260.09c.11-1.74-.76-4.71 2.01-4.31.61.83 2.31 2.94.4 3.36l-2.41.95z"/><path fill="#5c5d5c" d="M225.4 264.62c.5-1.94.65-3.94 1.1-5.88.6 4.15.58 8.35.85 12.53.85 2.95 2.16 5.84 1.9 8.98-1.66-2.06-3.19-4.22-4.67-6.4-.29 4.15-.27 8.47 1.22 12.42 1.36 2.92 3.5 5.38 5.36 7.99l-2.88-.03c-1.81-2.09-3.27-5.31-6.43-5.4-3.47-.25-6.56-1.9-9.8-3-2.51.82-4.28 2.97-6.26 4.61-6.46-2.37-13.41-.64-19.88.8-1.6-.32-3.21-.64-4.78-1.05 4.5-1.28 9.38-1.09 13.65-3.2-2.36-1.9-5.36-2.5-8.05-3.76-1.6-1.61-1.89-4.05-2.66-6.11l-2.45.07-.81 7.03c-3-2.41-5.6-5.6-9.47-6.59-2.94-.84-5.84-2.31-8.93-2.25-2.48 1.11-2.04 4.54-2.94 6.73-.98-1.75-1.79-3.58-2.66-5.38l-3.7-.88c.53-3.08.86-6.42 2.85-8.97 2.31-1.63 5.26-1.13 7.92-1.31l-.4 3.7c4.43-.57 8.84.19 13.26.44 2.28-.52 3.89-2.43 5.6-3.88 7.29-1.08 14.47.57 21.66 1.45 6.94-.48 13.77-1.99 20.73-2.48l.67-.18m-31.07 5.74c-3.09 2.83-2.43 7.71-.74 11.14 2.29 4.37 7.51 6.07 12.14 6.44.91-6.31 1.33-12.7 3.07-18.87-4.73-1.49-10.03-.77-14.47 1.29z"/><path fill="#575756" d="M303.23 259.79c2.81-.75 5.76-.37 8.62-.31a26.44 26.44 0 0 1-2.44 7.41c.95 1.19 1.85 2.43 2.97 3.48 1.59-.13 3.1-.68 4.64-1.07l-3.11 4.79-3.24-.59-1.22 7.99c-1.35-.05-2.97-1.29-4.11-.09-1.1 1.07-1.79 2.48-2.57 3.8l6.29.72c-2.38 2.69-5.7 4.96-6.33 8.74-1.22 1.24-2.39 2.54-3.57 3.82-2.3-3.38-2.02-7.71-3.4-11.45-4.97 1.66-9.16 5-14.13 6.67-5.91 2.43-12.38 2.61-18.53 4.15 2.88 3.1 3.92 7.17 5 11.13 2.79 2.04 6.69 1.65 10.03 1.92-4.08 2.24-6.93 6.97-12.11 6.6l-.67-.66c-2.45-3.77-3.65-8.13-3.99-12.57-.02-2.09-2.03-3.06-3.69-3.69-3.89-1.4-7.32-4.56-11.73-3.8.36-.24 1.09-.7 1.46-.94l1.34-.63c-1.49-1.39-2.99-2.75-4.38-4.22-1.2-1.56-2.29-3.21-3.4-4.83 2.11 1.12 4.15 2.46 6.45 3.17 2.77.67 5.64.33 8.45.24l-.42-2.91c-3.88-1.69-9.72-1.3-11.39-5.97 6.32-.55 11.36 5.04 17.69 3.91 2.84-.37 5.61-1.22 8.28-2.26l.28-1.12c.13-.5.37-1.51.49-2.01l8.15-.31-.35-2.24c-5.34 1.63-10.98.57-16.2-.98-1.44-.43-2.94-1.28-3.29-2.87.22-1.45.9-2.78 1.44-4.12l-3.68-2.05c4.99 1.09 10.12 1.67 15.2.95 2.32-.16 4.62-.46 6.92-.8 1.91 1.71 3.6 3.66 4.99 5.81l-4.46 1.45-1.65.46c1.72 1.07 3.63 1.78 5.38 2.82-.17.96-.34 1.93-.46 2.91l-.05.33.32.08c2.81.68 5.69.95 8.55 1.31-4.65 2.01-9.4 3.77-14.04 5.81-8.07 3.86-17.41 2.43-25.66 5.73 3.91 2.84 8.96 2.44 13.49 1.94 6.63-.96 13.36-2.42 19.18-5.88l12.01-7.06c2.96-1.57 4.27-4.8 5.89-7.53-1.3-.28-2.61-.61-3.95-.48-2 1.35-3.52 3.26-5.13 5.03l-1.57-2.29-2.84-4.1c3.9-.7 7.94-.97 11.67-2.39 3.32-1.3 5.62-4.16 7.57-7.01-1.97-.18-3.99-.17-5.9.39l-2.6-.75c1.1-1.23 1.95-2.88 3.51-3.58z"/><path fill="#9ca0ab" d="M324.59 263.08l3.93-4.46 2.14 2.66c-.27 1.29-.98 2.43-1.55 3.6l-4.52-1.8z"/><path fill="#65625b" d="M302.32 264.12c1.91-.56 3.93-.57 5.9-.39-1.95 2.85-4.25 5.71-7.57 7.01-3.73 1.42-7.77 1.69-11.67 2.39l2.84 4.1-1.64 2.66-2.09-6.67 2.67-2.3-4.99.19-1.28 4.49c-1.65-.56-3.29-1.12-4.98-1.55 1.5-.44 2.98-.95 4.46-1.45-1.39-2.15-3.08-4.1-4.99-5.81l4.21-.69.29 2.21c6.54.22 12.93-1.51 18.84-4.19z"/><path fill="#404140" d="M163.88 265.57c6.15-.16 12.32-.3 18.46.26-1.71 1.45-3.32 3.36-5.6 3.88-4.42-.25-8.83-1.01-13.26-.44l.4-3.7z"/><path fill="#525150" d="M339.63 269.59c3.36-1.1 6.7-2.26 10.03-3.45l1.31 5.15c-2.48 4.24-5.31 8.41-9.26 11.42-2.78 2.29-6.21 3.52-9.28 5.34.25-2.35.24-5.13-2.23-6.32-2.86-2.54-6.42-.42-9.13 1.16 1.57-1.54 2.67-3.53 2.36-5.78-2.79 1.29-5.55 2.66-8.32 4 2.73-3.16 5.39-6.64 9.8-7.36 3.33-1.93 6.43-4.39 10.21-5.43 1.1-.28 2.22-.51 3.34-.75l1.17 2.02m-.14 9.17c2.83-1.17 4.03-4.18 5.47-6.65-3.13.9-5.82 3.1-5.47 6.65z"/><path fill="#7d8078" d="M194.33 270.36c4.44-2.06 9.74-2.78 14.47-1.29-1.74 6.17-2.16 12.56-3.07 18.87-4.63-.37-9.85-2.07-12.14-6.44-1.69-3.43-2.35-8.31.74-11.14z"/><path fill="#a2a391" d="M313.91 274.09c3.66-.19 7.01-1.77 10.05-3.72l.95 3.38c-4.41.72-7.07 4.2-9.8 7.36l-3.18 1.55c-1.43.15-2.12.95-2.05 2.4-.21.21-.62.64-.82.86-2.09-.28-4.19-.5-6.29-.72.78-1.32 1.47-2.73 2.57-3.8 1.14-1.2 2.76.04 4.11.09.53-2.65.91-5.32 1.22-7.99l3.24.59z"/><path fill="#837f78" d="M285.77 271.11l4.99-.19-2.67 2.3 2.09 6.67 1.64-2.66 1.57 2.29c1.61-1.77 3.13-3.68 5.13-5.03 1.34-.13 2.65.2 3.95.48-1.62 2.73-2.93 5.96-5.89 7.53-4.04 2.29-8.03 4.66-12.01 7.06-5.82 3.46-12.55 4.92-19.18 5.88-4.53.5-9.58.9-13.49-1.94 8.25-3.3 17.59-1.87 25.66-5.73 4.64-2.04 9.39-3.8 14.04-5.81-2.86-.36-5.74-.63-8.55-1.31-.07-.1-.2-.31-.27-.41.12-.98.29-1.95.46-2.91-1.75-1.04-3.66-1.75-5.38-2.82l1.65-.46c1.69.43 3.33.99 4.98 1.55l1.28-4.49z"/><path fill="#454644" d="M162.41 275.38c3.09-.06 5.99 1.41 8.93 2.25 3.87.99 6.47 4.18 9.47 6.59l.81-7.03 2.45-.07c.77 2.06 1.06 4.5 2.66 6.11 2.69 1.26 5.69 1.86 8.05 3.76-4.27 2.11-9.15 1.92-13.65 3.2 1.57.41 3.18.73 4.78 1.05-2.42.9-4.9.14-7.26-.51-3.86-1.14-8.3.9-11.76-1.55-3.62-2.51-7.9-3.92-11.29-6.76-2.07-1.52-2.12-4.27-2.49-6.57l3.7.88c.87 1.8 1.68 3.63 2.66 5.38.9-2.19.46-5.62 2.94-6.73z"/><path fill="#79756e" d="M243.09 278.77c6.69-.23 13.32.95 20 .93 2.59-.73 5.37-.76 7.21 1.52l-.28 1.12c-2.67 1.04-5.44 1.89-8.28 2.26-6.33 1.13-11.37-4.46-17.69-3.91l-.96-1.92z"/><path fill="#eeebef" d="M282.78 280.24l.27.41-.32-.08.05-.33z"/><path fill="#cb9777" d="M321.07 282.89c2.71-1.58 6.27-3.7 9.13-1.16 2.47 1.19 2.48 3.97 2.23 6.32-4.05 3.05-7.16 7.12-10.55 10.85l-14.28 15.48a6.5 6.5 0 0 1-.26.27l-.86 1.13-2.41-1.14.42-4.72c.89-3.58-.91-6.7-3.38-9.15-.66-.77-1.33-1.51-1.95-2.29l3.57-3.82c6.28-3.66 12.45-7.5 18.34-11.77z"/><path fill="#232422" opacity=".74" d="M309.88 285.06c-.07-1.45.62-2.25 2.05-2.4-.01 1.36-.69 2.16-2.05 2.4z"/><path fill="#494b4a" d="M205.79 290.44c1.98-1.64 3.75-3.79 6.26-4.61 3.24 1.1 6.33 2.75 9.8 3 3.16.09 4.62 3.31 6.43 5.4-4.48.02-8.94-.41-13.39-.89-3.08-.81-6.07-1.93-9.1-2.9z"/><path fill="#71736a" d="M281.63 293.7c4.97-1.67 9.16-5.01 14.13-6.67 1.38 3.74 1.1 8.07 3.4 11.45.62.78 1.29 1.52 1.95 2.29-7.67 3.35-15.51 6.32-22.98 10.13-3.34-.27-7.24.12-10.03-1.92-1.08-3.96-2.12-8.03-5-11.13 6.15-1.54 12.62-1.72 18.53-4.15z"/><path fill="#d9d8d9" opacity=".89" d="M242.95 296.9c-.27-2.66 3.15-2.68 4.45-1.06l-1.46.94-2.99.12z"/><path fill="#302c27" d="M278.13 310.9c7.47-3.81 15.31-6.78 22.98-10.13-.4 2.1-.18 4.79-2.22 6.11-2.59.74-5.4.19-7.97 1.1-4.81 1.76-9.12 4.59-13.23 7.6-3.02 2.27-6.88 2.65-10.53 2.92l-.24 3.88-.03 1.71c-.44-2.18-.63-4.39-.87-6.59 5.18.37 8.03-4.36 12.11-6.6z"/><path fill="#615c56" d="M301.11 300.77c2.47 2.45 4.27 5.57 3.38 9.15-1.91-.67-3.86-.52-5.5.7l-.86-1.77c-5.09 5.02-12.03 7.39-18.89 8.8l.66 4.27c-1.14-.77-2.32-2.16-3.82-1.73-3.05.75-6.02 1.85-9.16 2.19l.24-3.88c3.65-.27 7.51-.65 10.53-2.92 4.11-3.01 8.42-5.84 13.23-7.6 2.57-.91 5.38-.36 7.97-1.1 2.04-1.32 1.82-4.01 2.22-6.11z"/><path fill="#909096" d="M279.24 317.65c6.86-1.41 13.8-3.78 18.89-8.8l.86 1.77.43.93c-4 2.79-8.33 5.05-12.86 6.85-2.36.9-4.58 2.19-6.31 4.05l-.35-.53c-.26-1.43-.45-2.85-.66-4.27z"/><path fill="#3d3d3d" d="M298.99 310.62c1.64-1.22 3.59-1.37 5.5-.7l-.42 4.72 2.41 1.14c-1.3 2.2-2.15 4.81-4.31 6.36-4.18 3.39-8.24 6.94-11.81 10.97l-.77-3.93c-1.25.27-2.49.55-3.71.94-1.33-1.57-2.7-3.09-4.11-4.58-.04-.26-.11-.79-.14-1.05 5.52-2.32 11.35-4.21 16.33-7.6 1.89-1.15 1.79-3.45 1.46-5.34l-.43-.93z"/><path fill="#606062" d="M286.56 318.4c4.53-1.8 8.86-4.06 12.86-6.85.33 1.89.43 4.19-1.46 5.34-4.98 3.39-10.81 5.28-16.33 7.6l-1.38-2.04c1.73-1.86 3.95-3.15 6.31-4.05z"/><path fill="#4a3327" opacity=".65" d="M307.34 314.65l.26-.27a6.5 6.5 0 0 1-.26.27z"/><path fill="#4d4c4b" d="M266.92 322.38c3.14-.34 6.11-1.44 9.16-2.19 1.5-.43 2.68.96 3.82 1.73l.35.53 1.38 2.04.14 1.05 4.11 4.58c-3 1.63-6.38 2.03-9.74 1.98l.35 2.29c-3.44-3.18-7.07-6.32-9.6-10.3 0-.43.02-1.28.03-1.71z"/><path fill="#737171" d="M285.88 330.12c1.22-.39 2.46-.67 3.71-.94l.77 3.93c-1.56 1.33-3.25 2.57-5.16 3.36-3.05.2-6.17-.27-8.71-2.08l-.35-2.29c3.36.05 6.74-.35 9.74-1.98z"/></svg>