<svg xmlns="http://www.w3.org/2000/svg" width="682.667" height="682.667" viewBox="0 0 512 512" xmlns:v="https://vecta.io/nano"><path fill="#62625e" d="M208.15 178.52c1.85-.26 3.55.48 5.16 1.28l4.23 1.84c1.12.87.86 2.5 1.22 3.75-2.51.55-4.77 1.75-6.19 3.96l-6.46-.47-1.35 1.83c-.88 1.3-1.86 2.58-2.3 4.1-.06 1.67.94 3.15 1.47 4.69l-1.11 1.28-3.06-1.59c-3.25-5.65-2.81-14.69 3.99-17.41l-.5 6.09c2.49-1.65 5.14-3.4 6.51-6.16.44-1.39-.87-2.25-1.61-3.19z"/><path fill="#868583" d="M203.75 181.78l4.4-3.26c.74.94 2.05 1.8 1.61 3.19-1.37 2.76-4.02 4.51-6.51 6.16l.5-6.09z"/><path fill="#454745" d="M216.65 179.83c4.95-.84 9.97-.22 14.95-.45 6.89.66 13.67 2.23 20.5 3.4-4.63-.57-8.89 1.38-13.07 3.03-3.84 1.1-7.97.02-11.7 1.56-1.12.35-2.25.62-3.4.82-.78-3.19 1.72-5.29 3.76-7.26-3.62-.83-7.33-1.16-11.04-1.1z"/><path fill="#525351" d="M213.31 179.8l3.34.03c3.71-.06 7.42.27 11.04 1.1-2.04 1.97-4.54 4.07-3.76 7.26 1.15-.2 2.28-.47 3.4-.82 3.73-1.54 7.86-.46 11.7-1.56l-.08.63a85.03 85.03 0 0 1-4.91 2.8c-2.47 1.25-5.19 1.83-7.83 2.61-3.19.97-5.31 3.76-7.41 6.17 1.52 1.89 1.23 4.28.79 6.5l3.28-.85c2.65-.24 5.3-.43 7.91-.94-2.51 6.31-2.37 13.39.5 19.55l1.09 2.95c-.72.68-1.4 1.39-2.05 2.14-1.41 1.97-2.71 4.26-5.24 4.9 1.35-2.91 1.92-6.11 2.15-9.29.18-2.58-2.4-3.84-4.21-5.07-1.95-1.33-4.06-2.54-5.59-4.37-1.8-2.63-2.35-6.33-5.62-7.66-2.89-2.14-6.58-1.91-9.89-2.84-1.02-1.09-1.57-2.51-2.16-3.85l3.06 1.59 1.11-1.28c1.99-2.51.84-5.88.83-8.79l1.35-1.83c2.15.19 4.3.34 6.46.47 1.42-2.21 3.68-3.41 6.19-3.96-.36-1.25-.1-2.88-1.22-3.75-1.38-.69-2.82-1.22-4.23-1.84z"/><path fill="#707273" d="M239.03 185.81c4.18-1.65 8.44-3.6 13.07-3.03.76.68 1.52 1.38 2.27 2.1-5.65.36-10.21 4.22-15.7 5.07l.28-3.51.08-.63z"/><path fill="#2f3138" d="M422.12 183.68c3.87-1.54 9.48 1.94 8.08 6.38-1.36.46-2.71.95-4.05 1.45l-.28-3.57-.34-3.3-2.51-.97-.9.01z"/><path fill="#646461" d="M255.57 186.01c7.8-3.67 17.63-1.43 24.08 3.98l-4.96.81-3.61 4.38c-1.95-1.94-3.76-4.16-6.38-5.21-.27 3.42-1.52 6.59-4.43 8.58 1.67 3.46 5.44 4.9 9.05 5.27.09-2.73.89-5.35 2.68-7.46 3.57 1.84 2.55 6.75 5.49 9.21 1.29 1.92 3.48 2.48 5.61 1.69l3.06-.61c1.32 1.81 2.33 3.81 2.83 6-2.46.18-4.96.25-7.3 1.1 1.26 2.6 3.45 4.4 6.46 4.24l-3.59 2.32 2.46 2.5-3.69.18c-3.74-2.41-8.34-2.18-12.49-1.13l2.15 2.06c-2.79-.21-5.5-.93-8.21-1.59-4.19-1.07-8.2.96-12.06 2.3-2.16.83-4.48 1.37-6.44 2.63-2.52 2.54-4.52 5.53-6.67 8.37-.96 1.01-.88 2.41-.91 3.69-.78 2.62-2.26 4.96-4.39 6.68-.64-2-1.48-3.98-1.65-6.09.71-2.91 4.01-5.41 2.49-8.58-1.93.59-4.17.76-5.71 2.19-2.13 4.01-2.18 9.05-5.66 12.36-2.82-4.32-.91-9.51 1.3-13.61 2.53-.64 3.83-2.93 5.24-4.9l-.27 3.4c5.06-3.91 10.52-7.28 15.59-11.19 3.37-2.75 7.74-3.5 11.56-5.37 5.25-2.67 11.36-2.51 16.77-4.73-2.23-1.76-5.28-1.27-7.92-1.65-3.21-.59-6.04 1.2-8.92 2.26-3.44 1.33-7.16 1.93-10.39 3.77-5.38 3.01-9.54 7.63-14.37 11.37l-1.09-2.95c2.02-3.11 5.44-4.34 8.58-5.94 6.54-5.09 14.37-7.88 22.1-10.55-2.21-4.43-6.58-9.76-12.12-7.29-2.48.68-4.76 1.88-6.95 3.19l-4.17-.85c6.11-1.63 11.25-5.89 17.54-6.81.89 1.07 1.86 2.06 2.82 3.06 1.13-.94 2.54-1.73 3.08-3.19.38-2.45-1.33-5.66-4.09-5.5-1.63.36-2.97 1.41-4.38 2.23-.72-.79-1.47-1.53-2.22-2.27l-1.46 1.17-3.85.27c3-1.57 6.28-2.5 9.41-3.79z"/><path fill="#989b9e" d="M411.33 187.48c3.31-1.98 7.08-2.89 10.79-3.8l.9-.01c-4.26 5.06-11.56 6.82-14.26 13.3 3.62-.99 5.98-4.4 9.75-5.04 1.16-3.4 4.23-5.33 7.02-7.29l.34 3.3c-10.57 10.31-23.24 18.02-34.74 27.17-1.43.93-2.96 1.72-4.28 2.79-1.55 2.35-1.94 5.23-2.77 7.87a27.83 27.83 0 0 1-1.65.63c-1.06-1.93-2.17-3.83-3.31-5.7l1.47-3.53-1.6-1.54c4.09-3.59 8.55-6.71 13.15-9.61 1.98-1.05 2.91-3.12 3.8-5.05-1.23.48-2.46.96-3.65 1.52-1.34-.41-2.7-.74-4.06-1.04l.2-1.71.65-.55c1.99-1.29 3.95-2.62 5.9-3.98l1.86-1.47c2.6-1.92 5.23-3.82 8.12-5.29-.32 1.43-.63 2.87-1.1 4.25-.54 1.4-.94 2.85-1.04 4.34 2.59-.95 5.14-2.2 7.08-4.23 1.55-1.31 1.12-3.54 1.43-5.33m-12.21 16.71l3.2-1.81 2.04 1.81c1.37-2.3 1.35-5.18 3.22-7.24-3.43 1.61-6.9 3.59-8.46 7.24z"/><path fill="#b1b8a9" d="M423.02 183.67l2.51.97c-2.79 1.96-5.86 3.89-7.02 7.29-3.77.64-6.13 4.05-9.75 5.04 2.7-6.48 10-8.24 14.26-13.3z"/><path d="M238.67 189.95c5.49-.85 10.05-4.71 15.7-5.07l1.2 1.13c-3.13 1.29-6.41 2.22-9.41 3.79-4.38 1.81-8.12 4.77-10.9 8.6l-2.23.75-2.92-.16c1.47-1.49 3.07-2.85 4.42-4.44.59-1.72-.32-3.57-.49-5.31a85.03 85.03 0 0 0 4.91-2.8 99.68 99.68 0 0 0-.28 3.51zm55.98 121.54c4.64-2.94 9.4-6.01 12.29-10.83l2.38 1.06c-2.48 5.88-8.5 8.68-13.25 12.41-1.85 1.64-4.7 2.2-6.41.03l2.24-2.06.77-.06c.71-.01 1.37-.19 1.98-.55z" fill="#848588"/><path fill="#33322e" d="M251.47 188.36l2.22 2.27 2.57 3.4c-6.29.92-11.43 5.18-17.54 6.81l-7.94 1.89c-2.61.51-5.26.7-7.91.94 2.7-2.86 6.53-3.59 10.16-4.52l2.23-.75c5.17-1.04 10.47-2.32 14.88-5.35 1.46-.73.01-2.45-.13-3.52l1.46-1.17z"/><path fill="#c59373" d="M253.69 190.63c1.41-.82 2.75-1.87 4.38-2.23 2.76-.16 4.47 3.05 4.09 5.5-.54 1.46-1.95 2.25-3.08 3.19l-2.82-3.06-2.57-3.4z"/><path fill="#636667" d="M403.86 192.7c2.14-2.18 4.75-3.84 7.47-5.22-.31 1.79.12 4.02-1.43 5.33-1.94 2.03-4.49 3.28-7.08 4.23.1-1.49.5-2.94 1.04-4.34z"/><path fill="#717275" d="M391.13 215.11c11.5-9.15 24.17-16.86 34.74-27.17l.28 3.57 4.05-1.45c-3.39 5.68-10 8.33-14.55 12.97-1.31.33-3.86.9-3.21 2.75 1.11.75 2.5-.26 3.34-1.01l.05 1.03-1.89 1.52c-.97 1.77 1.88 1.44 2.13.14l3.59 1.59c-1.08 6.17-7.66 8.2-11.6 12.2-1.16-.73-2.22-.54-3.15.55-6.14 3.04-11.89 7.49-19.1 7.26l-.21-1.41.24-.34c4.72.54 9.92-.75 12.73-4.86.42-2.11-1.58-3.58-2.47-5.27-2.3 1.64-4.6 3.3-6.74 5.15-1.71 1.21-3.46 2.39-5.28 3.44.83-2.64 1.22-5.52 2.77-7.87 1.32-1.07 2.85-1.86 4.28-2.79m16.88.81c1.13.56 2.35.94 3.64.85l1.16-2.7c-1.94-1.68-3.68.3-4.8 1.85z"/><path fill="#5c5e60" d="M226.21 191.85c2.64-.78 5.36-1.36 7.83-2.61.17 1.74 1.08 3.59.49 5.31-1.35 1.59-2.95 2.95-4.42 4.44l2.92.16c-3.63.93-7.46 1.66-10.16 4.52l-3.28.85c.44-2.22.73-4.61-.79-6.5 2.1-2.41 4.22-5.2 7.41-6.17z"/><path fill="#5d564f" d="M246.16 189.8l3.85-.27c.14 1.07 1.59 2.79.13 3.52-4.41 3.03-9.71 4.31-14.88 5.35 2.78-3.83 6.52-6.79 10.9-8.6z"/><path fill="#4c4b48" d="M264.7 189.97c2.62 1.05 4.43 3.27 6.38 5.21l3.61-4.38 4.96-.81c.62 4.38-1.18 8.62-1.44 12.96.49 2.37 2.58 3.91 4.89 4.31-2.13.79-4.32.23-5.61-1.69-2.94-2.46-1.92-7.37-5.49-9.21-1.79 2.11-2.59 4.73-2.68 7.46-3.61-.37-7.38-1.81-9.05-5.27 2.91-1.99 4.16-5.16 4.43-8.58z"/><path fill="#838384" d="M202.46 194.81c.44-1.52 1.42-2.8 2.3-4.1.01 2.91 1.16 6.28-.83 8.79-.53-1.54-1.53-3.02-1.47-4.69z"/><path fill="#3f4146" opacity=".72" d="M394.98 195.21l1.86-1.47-1.86 1.47z"/><path fill="#afb5ad" d="M399.12 204.19c1.56-3.65 5.03-5.63 8.46-7.24-1.87 2.06-1.85 4.94-3.22 7.24l-2.04-1.81-3.2 1.81z"/><path fill="#8f9087" d="M249.84 198.5c5.54-2.47 9.91 2.86 12.12 7.29-7.73 2.67-15.56 5.46-22.1 10.55-.69-3.24-1.16-6.53-1.23-9.84 3.2-1.54 6.64-2.5 9.86-3.97 1.72-.57 1.04-2.7 1.35-4.03z"/><path fill="#7e8077" d="M242.89 201.69c2.19-1.31 4.47-2.51 6.95-3.19-.31 1.33.37 3.46-1.35 4.03-3.22 1.47-6.66 2.43-9.86 3.97.07 3.31.54 6.6 1.23 9.84-3.14 1.6-6.56 2.83-8.58 5.94-2.87-6.16-3.01-13.24-.5-19.55 2.65-.59 5.28-1.29 7.94-1.89 1.39.26 2.78.56 4.17.85z"/><path opacity=".75" d="M372.46 206.19c5.03-3.4 10.08-7.81 16.62-7l-.65.55c-5.82 5.52-12.47 10.03-18.55 15.24l-4.96 4.74c-1.81-1.22-3.33-2.78-4.77-4.4a31.77 31.77 0 0 0-1.79-1.51c4.43-4.59 9.95-8.16 15.56-11.16l-1.46 3.54z"/><path fill="#7b7e7b" d="M369.88 214.98c6.08-5.21 12.73-9.72 18.55-15.24l-.2 1.71c1.36.3 2.72.63 4.06 1.04l-20.57 15.13-1.84-2.64z"/><path fill="#adb5a3" d="M392.29 202.49l3.65-1.52c-.89 1.93-1.82 4-3.8 5.05-4.6 2.9-9.06 6.02-13.15 9.61-1.86 1.65-3.51 3.52-5.05 5.46l-2.22-3.47c6.78-5.16 13.75-10.03 20.57-15.13z"/><path fill="#333432" opacity=".66" d="M412.44 205.78c-.65-1.85 1.9-2.42 3.21-2.75l.13 1.74c-.84.75-2.23 1.76-3.34 1.01z"/><path opacity=".74" d="M211.81 205.88c3.27 1.33 3.82 5.03 5.62 7.66 1.53 1.83 3.64 3.04 5.59 4.37l-5.13-.87c-4.87-1.25-5.7-6.92-6.08-11.16zm97.66 76.19l.99-2.54 4.89 1.24-4.87 3.49-1.01-2.19z" fill="#020202"/><path fill="#202022" opacity=".62" d="M413.94 207.32l1.89-1.52.24 1.66c-.25 1.3-3.1 1.63-2.13-.14z"/><path fill="#8f8c84" d="M257.13 210.09c2.88-1.06 5.71-2.85 8.92-2.26 2.64.38 5.69-.11 7.92 1.65-5.41 2.22-11.52 2.06-16.77 4.73-3.82 1.87-8.19 2.62-11.56 5.37-5.07 3.91-10.53 7.28-15.59 11.19l.27-3.4c.65-.75 1.33-1.46 2.05-2.14 4.83-3.74 8.99-8.36 14.37-11.37 3.23-1.84 6.95-2.44 10.39-3.77z"/><path fill="#555750" d="M286.16 206.65c6 1.09 8.62 7.38 12.96 10.99 2.46-2.77 5.98-5.14 9.85-3.88l-4.91 1.24 1.5 1.42c1.01 3.07-.5 6.3.18 9.45-4.16-1.56-8.51-2.48-12.79-3.59-1.71-.37-2.73-1.9-3.94-3l-.83 3.15c3.38 1.03 7.12 1.65 9.7 4.29l-1 .43c-3.28-.09-6.56-.02-9.82.29-1.28-1.1-2.72-1.99-4.34-2.46l-1.27 3.72c-3.35.11-6.82.7-10.1-.17-2-1.39-3.83-3.17-6.37-3.48l-.16-1.91-.04-.81c2.71.66 5.42 1.38 8.21 1.59 3.46-.01 6.91-.47 10.34-.93l3.69-.18-2.46-2.5 3.59-2.32c-3.01.16-5.2-1.64-6.46-4.24 2.34-.85 4.84-.92 7.3-1.1-.5-2.19-1.51-4.19-2.83-6z"/><path d="M408.01 215.92c1.12-1.55 2.86-3.53 4.8-1.85l-1.16 2.7c-1.29.09-2.51-.29-3.64-.85zm-49.65-2.11l1.79 1.51-2.14 1.43 3.62 6.02-1.47 1.7c-1.58-2.59-3.52-5.07-4.02-8.15l2.22-2.51zm-11.55 28.31a37.91 37.91 0 0 0 5.86-2.61c.89 1.61 2.36 3.18 2.07 5.18-.96 1.32-2.49 2.07-3.77 3.03-1.85-1.5-3.09-3.52-4.16-5.6zm-24.19 5.61l2.17-.53-.03 3.2-2.6-.01.46-2.66zm4.71 9.98c1.84 1.61 1.37 4.1 1.45 6.27l-3.19-3.85 1.74-2.42z" fill="#ebffff"/><path fill="#909092" d="M304.06 215l4.91-1.24c4.51 2.55 5.56 7.97 6.36 12.65l-4.64.15-.64-5.61c.11-2.74-2.42-3.63-4.49-4.53l-1.5-1.42z"/><path fill="#838587" d="M364.92 219.72l4.96-4.74 1.84 2.64 2.22 3.47c.85 1.66 2.25 2.75 4.17 2.1l3.04 3.61-.98 3.36-6.21 4.07c.61-.76 1.12-2.42-.12-2.86-1.42-.21-2.17 1.33-2.52 2.45-2.12-1.65-3.39-4.11-5.4-5.88l.39 6.68-4.79 3.86c-1.92 1.59-4.38-.1-6.49-.33 2.75-1.34 5.95-1.85 8.35-3.85 1.85-1.63 1.61-4.32 1.86-6.54-5.98 2.33-9.02 10.13-16.3 9.29 3.82-4.3 9.52-6.31 13.15-10.83l-1.62-.36-.31-1.39 1.47-1.7-3.62-6.02 2.14-1.43c1.44 1.62 2.96 3.18 4.77 4.4m5.47 1.41c-1.19 1.38 1.29 2.65 2.16 1.35 1.22-1.39-1.31-2.69-2.16-1.35m-2.11 5.97c-.52 1.41-.07 1.89 1.34 1.43.51-1.43.06-1.9-1.34-1.43z"/><path opacity=".75" d="M339.95 229.23c4.85-4.96 10.56-8.9 16.19-12.91.5 3.08 2.44 5.56 4.02 8.15l.31 1.39c-5.44 3.4-10.88 6.84-15.87 10.9-3.93 3.01-8.44 5.33-11.61 9.24l-3.24 2.1-2.97-1.8c.96-2.65 1.5-5.5.46-8.21 2.85-1.22 5.4-3.02 7.66-5.13-1.01-1.96-2.15-3.87-2.89-5.94.01-1.63 1.87-2.28 2.85-3.29 1.52 1.99 3.19 3.87 5.09 5.5zm-179.94 40.95c8.86.44 17.76.04 26.6-.48 4.46 1.36 9.08 1.21 13.66.61-2.54.6-5.07 1.23-7.65 1.57a114.28 114.28 0 0 0-7.64.81c-7.37-2.65-15.45-2.19-23.01-.7-6.38-.08-12.78-.23-19.16-.57 5.77-.04 11.41-1.79 17.2-1.24z"/><path fill="#545751" d="M373.94 221.09c1.54-1.94 3.19-3.81 5.05-5.46l1.6 1.54-1.47 3.53-1.01 2.49c-1.92.65-3.32-.44-4.17-2.1z"/><path fill="#727271" d="M305.56 216.42c2.07.9 4.6 1.79 4.49 4.53l-2.69-.03 1.37 6.56-4.7 2.31c-2.43-.75-4.83-1.6-7.15-2.64l1-.43c-2.58-2.64-6.32-3.26-9.7-4.29l.83-3.15c1.21 1.1 2.23 2.63 3.94 3 4.28 1.11 8.63 2.03 12.79 3.59-.68-3.15.83-6.38-.18-9.45z"/><path fill="#8a8986" d="M270.84 221.86c4.15-1.05 8.75-1.28 12.49 1.13-3.43.46-6.88.92-10.34.93l-2.15-2.06z"/><path fill="#54566a" d="M307.36 220.92l2.69.03.64 5.61 4.64-.15c.87.53 1.78 1.01 2.8 1.23l-.66 2.82-5.11-1.64c-.17 3.22.55 8.16-3.89 8.58-1.01-2.76-1.59-6.11-4.44-7.61l4.7-2.31-1.37-6.56z"/><path fill="#535955" d="M370.39 221.13c.85-1.34 3.38-.04 2.16 1.35-.87 1.3-3.35.03-2.16-1.35z"/><path fill="#bf9b63" d="M378.11 223.19l1.01-2.49 3.31 5.7-1.28.4-3.04-3.61z"/><path fill="#2b2b2d" opacity=".6" d="M404.91 221.8c.93-1.09 1.99-1.28 3.15-.55-.93 1.11-1.99 1.29-3.15.55z"/><path fill="#939089" d="M252.72 224.63c3.86-1.34 7.87-3.37 12.06-2.3l.04.81c-6.75 2.82-14.42 4.33-19.87 9.53-2.15 2.16-4.21 4.4-6.25 6.65.03-1.28-.05-2.68.91-3.69 2.15-2.84 4.15-5.83 6.67-8.37 1.96-1.26 4.28-1.8 6.44-2.63z"/><path fill="#4a494d" opacity=".91" d="M384.08 225.77c1.82-1.05 3.57-2.23 5.28-3.44l-3.52 4.98-.24.34.21 1.41c-1.9.27-3.79.62-5.64 1.1l.98-3.36 1.28-.4 1.65-.63z"/><path fill="#696b68" d="M244.95 232.67c5.45-5.2 13.12-6.71 19.87-9.53l.16 1.91c2.54.31 4.37 2.09 6.37 3.48 3.28.87 6.75.28 10.1.17l1.27-3.72c1.62.47 3.06 1.36 4.34 2.46-3.37 1.7-5.7 4.72-8.08 7.54-2.88-.62-5.81-.99-8.73-1.33-4.68-.82-9.39.04-14 .83-1.91 6.58-2.45 13.87-.05 20.4 2.3 5.43 8 8.44 13.75 8.37l-3.12 1.8a70.14 70.14 0 0 1-4.58.2c-2.22-.89-4.37-1.91-6.55-2.87l1.26 8.55c-3.39-1.53-7.37-3.09-9.15-6.57-.91-4.69-.84-9.61-2.79-14.07l-2.75 2.53.14-1.49c.89-4.63-.07-9.96 3.4-13.7.28 2.39.48 4.8.51 7.21.51-.66 1-1.33 1.49-2 1.2 5.01-1.26 12.23 4.37 15.12 1-4.9-.46-9.86.05-14.79.29-2.81.9-5.58 1.1-8.4 2.3-2.18 4.62-4.4 6.11-7.23-2.57.88-5.48 1.41-7.41 3.48-1.78 1.87-3.56 3.72-5.48 5.44.32-1.14.6-2.29.89-3.43l-2.49-.36z"/><path fill="#a6aba1" d="M344.6 236.76c4.99-4.06 10.43-7.5 15.87-10.9l1.62.36c-3.63 4.52-9.33 6.53-13.15 10.83 7.28.84 10.32-6.96 16.3-9.29-.25 2.22-.01 4.91-1.86 6.54-2.4 2-5.6 2.51-8.35 3.85l-2.36 1.36a37.91 37.91 0 0 1-5.86 2.61c-1.23.24-2.46.43-3.69.62.44-2.01.93-4 1.48-5.98z"/><path fill="#848585" d="M252.03 231.02c1.93-2.07 4.84-2.6 7.41-3.48-1.49 2.83-3.81 5.05-6.11 7.23-2.47 2.21-4.19 5.06-5.52 8.07l-1.49 2c-.03-2.41-.23-4.82-.51-7.21l.74-1.17c1.92-1.72 3.7-3.57 5.48-5.44z"/><path fill="#85847d" d="M287.06 227.44c3.26-.31 6.54-.38 9.82-.29 2.32 1.04 4.72 1.89 7.15 2.64 2.85 1.5 3.43 4.85 4.44 7.61l-6.13 2.06-.05 4.85.33 2.96 4.44 1.37-6.32 1.29-.94-3.01c-.65-1.65-1.82-3.23-1.64-5.08.19-2.31 1.69-4.2 2.77-6.14-3.81-3.63-9.13-6.92-14.6-5.35-1.68 1.94-1.95 5.29-4.94 5.83l-2.41-1.2c2.38-2.82 4.71-5.84 8.08-7.54z"/><path fill="#66697b" d="M318.13 227.64c1.8-.13 3.96-.76 5.21 1.01 2.13 1.82 1.04 4.82 1.04 7.22l1.98 2.15-1.57 3.12c-.81 2.76-4.87 2.3-5.31 5.27-.67 2.89 1.13 6.3-1.38 8.62-1.57-.73-3.16-1.46-4.52-2.56l.05-1.34c3.27.39 2.08-3.08 2.33-5.11l-2.25.96c-.62-1.24-.95-2.79-2.13-3.62-3.12-.13-6.21.56-9.29.95-.07-1.62-.01-3.23.05-4.85l6.13-2.06c4.44-.42 3.72-5.36 3.89-8.58l5.11 1.64.66-2.82z"/><path fill="#c5c6cc" d="M368.28 227.1c1.4-.47 1.85 0 1.34 1.43-1.41.46-1.86-.02-1.34-1.43z"/><path fill="#7b7d7f" d="M365.92 227.94c2.01 1.77 3.28 4.23 5.4 5.88l2.64.41c-2.83 1.28-4.86 3.61-6.92 5.84-3.29 3.49-8.98 4.91-9.99 10.18l-1.39-2.93c-3.08 2.3-5.79 5.18-9.27 6.88-2.35-.14-4.72-.01-6.68 1.46-5.66 2.42-8.41 8.42-13.81 11.24l-.6 3.43c-2.34 1.07-4.4 2.67-6.76 3.7l-.72-.15c1.23-.78-.12-3.88-1.04-1.9l.36 1.75c-2.75-.32-3.12-3.19-2.41-5.36 2.88.19 6.55 1.83 8.74-.89 2.22-2.04 1.26-5.28 1.46-7.93l.66.58c1.1 1.25 2.14 2.56 3.19 3.85-.08-2.17.39-4.66-1.45-6.27.22-.32.64-.97.85-1.29 2.66-.6 5.18-1.99 6.85-4.18.57-1.65.8-3.39 1.14-5.09 2.96 1.57 5.62 4.64 9.21 4.4-.51-3.73-4.13-6.44-5.01-10.22-2.44 1.6-4.87 3.19-7.38 4.67 3.17-3.91 7.68-6.23 11.61-9.24-.55 1.98-1.04 3.97-1.48 5.98l3.69-.62c1.07 2.08 2.31 4.1 4.16 5.6 1.28-.96 2.81-1.71 3.77-3.03.29-2-1.18-3.57-2.07-5.18l2.36-1.36c2.11.23 4.57 1.92 6.49.33 1.7-1.16 3.22-2.54 4.79-3.86-.18-2.23-.34-4.45-.39-6.68z"/><path fill="#999890" d="M286.33 230.35c5.47-1.57 10.79 1.72 14.6 5.35-1.08 1.94-2.58 3.83-2.77 6.14-.18 1.85.99 3.43 1.64 5.08l-.71.05c-1.43-.47-2.95-.28-4.17.6-6.72.39-13.43.23-20.13-.36l-.19-1.17c.33-.75.68-1.49 1.04-2.23-1.39-.84-3.07-1.37-4.15-2.62-.36-1.25-.24-2.57-.3-3.85 3.31-1.03 6.78-1 10.2-1.16 2.99-.54 3.26-3.89 4.94-5.83z"/><path fill="#434442" d="M229.44 233.52c1.54-1.43 3.78-1.6 5.71-2.19 1.52 3.17-1.78 5.67-2.49 8.58.17 2.11 1.01 4.09 1.65 6.09 2.13-1.72 3.61-4.06 4.39-6.68l6.25-6.65 2.49.36-.89 3.43-.74 1.17c-3.47 3.74-2.51 9.07-3.4 13.7-.89-1.63-1.84-3.22-2.77-4.81-2.91.13-5.77.99-7.92 3.04-.72 1.04-1.04 2.18-.97 3.43.15 6.62 2.69 12.93 2.75 19.55-1.84.07-3.68.07-5.5-.18-.5-5.29-.35-10.9-3.16-15.64-.31-3.62-.31-7.28-1.06-10.84 3.48-3.31 3.53-8.35 5.66-12.36m-.17 10.73c.56.55.56.55 0 0z"/><path fill="#c3c2ca" d="M371.32 233.82c.35-1.12 1.1-2.66 2.52-2.45 1.24.44.73 2.1.12 2.86l-2.64-.41z"/><path fill="#827f78" d="M256.25 234.48c4.61-.79 9.32-1.65 14-.83-2.86.54-5.92.7-8.53 2.08-4.26 5.18-5.1 12.79-2.35 18.86 2.8 2.78 6.81 4.11 10.72 4.02 4.5 0 9.1 1.2 13.52.04 1.85-1.12 3.18-2.88 4.95-4.1 3.28-.89 6.74-1.1 9.87-2.53 1.95 3.12.62 6.98 1.97 10.32-6.18 2.34-13.11 4.27-19.6 1.98-4.66.04-9.3.64-13.97.73 1.05-.58 2.09-1.19 3.12-1.8-5.75.07-11.45-2.94-13.75-8.37-2.4-6.53-1.86-13.82.05-20.4z"/><path fill="#918f88" d="M261.72 235.73c2.61-1.38 5.67-1.54 8.53-2.08l8.73 1.33 2.41 1.2c-3.42.16-6.89.13-10.2 1.16.06 1.28-.06 2.6.3 3.85 1.08 1.25 2.76 1.78 4.15 2.62-.36.74-.71 1.48-1.04 2.23l.19 1.17c.48 1.75 1.09 3.47 1.69 5.19 7.31.57 14.62-.81 21.95-.38-3.13 1.43-6.59 1.64-9.87 2.53-1.77 1.22-3.1 2.98-4.95 4.1-4.42 1.16-9.02-.04-13.52-.04-3.91.09-7.92-1.24-10.72-4.02-2.75-6.07-1.91-13.68 2.35-18.86z"/><path fill="#554f49" d="M253.33 234.77c-.2 2.82-.81 5.59-1.1 8.4-.51 4.93.95 9.89-.05 14.79-5.63-2.89-3.17-10.11-4.37-15.12 1.33-3.01 3.05-5.86 5.52-8.07z"/><path fill="#484e38" d="M326.36 238.02l.88.07c1.04 2.71.5 5.56-.46 8.21-1.18-1.5-1.62-3.35-1.99-5.16l1.57-3.12z"/><path fill="#606162" d="M319.48 246.41c.44-2.97 4.5-2.51 5.31-5.27.37 1.81.81 3.66 1.99 5.16l2.97 1.8-3.37 2.99 1.8 5.33-.85 1.29-1.74 2.42-.66-.58c-1.15-.28-2.31-.09-3.45.09.54 1.82 1.08 3.68.93 5.6l-1.4 1.79c-3.41.41-7.15.92-10.38-.48-3.45-2.86 1.33-6.41 2.37-9.34-3.59-.4-7.2-.35-10.78.09l.16 3.31 5.6 1.47-4.19 4.2.89 4.82-2.1-3.07c-3.59 1.77-5.43 5.52-7.84 8.52l-3.27-1.85-2.05 2.24c-.24-2.62-.5-5.24-.85-7.84 2.18-.14 4.36-.35 6.52-.68-3.28-.28-6.57-.31-9.86-.3l-4.43-3.8c6.49 2.29 13.42.36 19.6-1.98-1.35-3.34-.02-7.2-1.97-10.32-.63-1.23-1.27-2.44-1.95-3.63l2.61-1.42.71-.05c.35.98.65 1.99.94 3.01l6.32-1.29-4.44-1.37c-.13-.99-.24-1.97-.33-2.96 3.08-.39 6.17-1.08 9.29-.95 1.18.83 1.51 2.38 2.13 3.62 0 1.38-.02 2.76-.08 4.15l-.05 1.34c1.36 1.1 2.95 1.83 4.52 2.56 2.51-2.32.71-5.73 1.38-8.62m3.14 1.32l-.46 2.66c.86-.01 1.73-.01 2.6.01l.03-3.2-2.17.53m-.34 7.5c.54.54.54.54 0 0z"/><path fill="#aeb1bb" d="M332.99 246l7.38-4.67c.88 3.78 4.5 6.49 5.01 10.22-3.59.24-6.25-2.83-9.21-4.4-.34 1.7-.57 3.44-1.14 5.09-1.67 2.19-4.19 3.58-6.85 4.18l-1.8-5.33c1.1-1.02 2.2-2.05 3.37-2.99 1.06-.73 2.15-1.41 3.24-2.1z"/><path fill="#c5c1c4" d="M229.27 244.25c.56.55.56.55 0 0z"/><path fill="#3d3e3e" d="M231.72 249.56c2.15-2.05 5.01-2.91 7.92-3.04l2.77 4.81-.14 1.49 2.75-2.53c1.95 4.46 1.88 9.38 2.79 14.07 1.78 3.48 5.76 5.04 9.15 6.57l-1.26-8.55c2.18.96 4.33 1.98 6.55 2.87l-3.06 2.87c.67 2.29 1.99 4.88 4.68 5.08 4.75.38 9.81 1.55 14.31-.59 1.49.62 1.51 2.45 2.01 3.76-3.5.02-7.19-.48-10.44 1.13l-2.57.63c-2.62-.52-5.37-2.22-8.02-.89-3.4 1.67-7.18.98-10.81 1.02-1.45-.04-2.59-1.15-3.79-1.83l.76-.73c.8-.73 1.61-1.45 2.43-2.15-1.99-7.38-4.1-14.92-8.33-21.38l-1.62-2.12-6.08-.49z"/><path fill="#dcdadf" d="M313.71 246.98l2.25-.96c-.25 2.03.94 5.5-2.33 5.11l.08-4.15z"/><path fill="#7b8291" d="M274.79 247.21c6.7.59 13.41.75 20.13.36l1.56.82c.68 1.19 1.32 2.4 1.95 3.63-7.33-.43-14.64.95-21.95.38-.6-1.72-1.21-3.44-1.69-5.19z"/><path fill="#e7e9ea" d="M294.92 247.57c1.22-.88 2.74-1.07 4.17-.6l-2.61 1.42-1.56-.82z"/><path fill="#525152" d="M346.39 254.2c3.48-1.7 6.19-4.58 9.27-6.88l1.39 2.93c-1.84 5.99-4.62 12.2-10.04 15.76-2.58 1.61-4.88 3.63-6.81 5.97 1.87-3.33-1.15-7.67-4.92-6.76-3.17 1.32-5.89 3.5-8.95 5.05l-1.03.06.6-3.43c5.4-2.82 8.15-8.82 13.81-11.24 1.96-1.47 4.33-1.6 6.68-1.46z"/><path fill="#6e6d68" d="M230.75 252.99c-.07-1.25.25-2.39.97-3.43 1.94 7.26 1.59 14.99 4.32 22.06l3.04-1.7c2.06 3.28 2.93 7.07 2.72 10.93l-3-2.6c1.63 4.18 4.09 8.72 8.66 10.18 2.04 1.04 5.17 1.04 5.89 3.66a145.97 145.97 0 0 1-6.28-.05c1.97 1.25 3.86 2.71 5.02 4.79-2.71.16-5.75.91-8.18-.74-5.4-3.12-10.32-7.22-16.41-8.98.22 3.21.51 6.41.84 9.62 4.49-.35 10.52-2.96 13.87 1.26-3.02.4-6.3-.2-9.06 1.35l-1.55.76c-3.67.58-6.82-2.01-10.44-2.2l-.77-2.94c.75-3.03-1.46-5.38-2.44-8.03-.12-1.77.1-3.54.21-5.3 1.08 2.38 1.82 4.93 3.18 7.18 1.22 1.02 2.9.86 4.38 1.08-.42-6.52 1-13.21-.96-19.57l1.73 1.83 1.51.21c1.82.25 3.66.25 5.5.18-.06-6.62-2.6-12.93-2.75-19.55m1.74 26.51c.47 6.25 5.7 11.28 11.36 13.31.69-.81 1.36-1.63 1.99-2.47-3.78-3.06-7.07-6.66-9.39-10.96a65.2 65.2 0 0 0-3.96.12z"/><path fill="#625f5b" d="M231.72 249.56l6.08.49 1.62 2.12-2.11 1.8c2.39 7.35 5.63 14.38 8.01 21.73l-.76.73c-3.58-2.68-2.46-8.57-6.58-10.63.31 1.39.64 2.77 1.1 4.12l-3.04 1.7c-2.73-7.07-2.38-14.8-4.32-22.06z"/><path fill="#4f504c" d="M239.42 252.17c4.23 6.46 6.34 14 8.33 21.38-.82.7-1.63 1.42-2.43 2.15-2.38-7.35-5.62-14.38-8.01-21.73l2.11-1.8z"/><path fill="#d2cfdb" d="M322.28 255.23c.54.54.54.54 0 0z"/><path fill="#5e605e" d="M224.84 256.72c2.81 4.74 2.66 10.35 3.16 15.64l-1.51-.21-1.73-1.83c-.99-1-2.77-1.7-3.87-.48-1.93 3.61-2.55 7.75-2.73 11.79-.11 1.76-.33 3.53-.21 5.3.98 2.65 3.19 5 2.44 8.03-1.16-1.34-2.36-2.63-3.58-3.9-3.14.47-6.41.91-9.43-.4-3.88-1.64-8.36.7-9.82 4.52-3.84-.82-7.72-1.46-11.6-2.08-1.08-.61-2.14-1.26-3.2-1.9l-.68-4.33c4.66 2.4 9.12 6.51 14.78 5.01.28-3.47.32-6.95.21-10.43l1.98 1.08c-.42-3.28-.39-6.61.42-9.82-2.04-.64-4.07.16-6.07.53l-.78-1.36c2.58-.34 5.11-.97 7.65-1.57 8.27-1.8 16.7-2.39 25.1-3.08l-.53-10.51z"/><path fill="#575654" d="M302.22 257.3c3.58-.44 7.19-.49 10.78-.09-1.04 2.93-5.82 6.48-2.37 9.34 3.23 1.4 6.97.89 10.38.48l.8-.13.6-1.66c.15-1.92-.39-3.78-.93-5.6 1.14-.18 2.3-.37 3.45-.09-.2 2.65.76 5.89-1.46 7.93-2.19 2.72-5.86 1.08-8.74.89-.71 2.17-.34 5.04 2.41 5.36l.68.15.72.15c-.11 1.21-.1 2.43.22 3.61l-1.36 1.45c-.65-1.53-1.24-3.81-3.38-3.5-2.26-.17-2.9 2.29-3.56 3.94l-.99 2.54 1.01 2.19c.76 3.12.34 6.34.35 9.52l-1.3 2.3c-2.06-.71-4.27-.68-6.37-.1.97-.93 2.56-1.68 2.55-3.22.11-3.71-1.37-7.24-2.78-10.6-.68-1.14-.97-3.05-2.66-2.92-3.06 1.87-4.96 5.15-8.09 6.93-3.45 1.92-6.85 3.95-10.44 5.59-3.57 1.65-7.77 2.07-10.76 4.82 1.68 1.1 3.5 2.04 5.01 3.4 1.12 2.03 1.82 4.27 2.67 6.43 3.15.35 6.33.28 9.48-.13-2.67 1.84-4.73 4.4-5.85 7.45l-4.36-.3c-4.37-3.26-5.83-8.49-8.32-13.04-3.89-.16-7.73.56-11.6.82-4.47.35-8.51-2.17-12.95-2.03-3.97.04-7.94-.07-11.91.16 2.76-1.55 6.04-.95 9.06-1.35-3.35-4.22-9.38-1.61-13.87-1.26-.33-3.21-.62-6.41-.84-9.62 6.09 1.76 11.01 5.86 16.41 8.98 2.43 1.65 5.47.9 8.18.74-1.16-2.08-3.05-3.54-5.02-4.79a145.97 145.97 0 0 0 6.28.05c-.72-2.62-3.85-2.62-5.89-3.66-4.57-1.46-7.03-6-8.66-10.18l3 2.6c.21-3.86-.66-7.65-2.72-10.93-.46-1.35-.79-2.73-1.1-4.12 4.12 2.06 3 7.95 6.58 10.63 1.2.68 2.34 1.79 3.79 1.83 3.63-.04 7.41.65 10.81-1.02 2.65-1.33 5.4.37 8.02.89-4.67.47-9.57.04-13.84 2.4-.51 2.33 2.93 1.76 4.34 2.27 5.17 1.44 10.5-.02 15.04-2.6.51-.51.98-1.05 1.41-1.63-1.46-.39-2.92-.75-4.38-1.07 3.25-1.61 6.94-1.11 10.44-1.13-.5-1.31-.52-3.14-2.01-3.76-4.5 2.14-9.56.97-14.31.59-2.69-.2-4.01-2.79-4.68-5.08l3.06-2.87a70.14 70.14 0 0 0 4.58-.2c4.67-.09 9.31-.69 13.97-.73l4.43 3.8.55 4.16-4.77-.16 3.19 2.14c-.12 1.06-.23 2.13-.31 3.21l.39.05.44.07c2.59.58 5.23.9 7.87 1.19-4.78 1.96-9.1 4.77-13.6 7.24-6.28 2.63-13.3 3.45-19.08 7.27 6.24 3.28 13-.34 18.97-2.47 8.08-2.83 13.92-9.34 20.56-14.41 2.01-1.49 3.72-3.33 5.24-5.31l-.89-4.82 4.19-4.2-5.6-1.47-.16-3.31m-55.97 25.95c.55.54.55.54 0 0z"/><path fill="#dedae0" d="M321.01 267.03l1.4-1.79-.6 1.66-.8.13z"/><path fill="#d09b7c" d="M326.33 270.27c3.06-1.55 5.78-3.73 8.95-5.05 3.77-.91 6.79 3.43 4.92 6.76-4.04 5.1-7.37 10.71-10.99 16.1l-1.5 1.81-.48 1.31-1.55 1.8c-.16.29-.47.89-.62 1.18-2.25.38-3.73 2.43-3.09 4.7a71 71 0 0 0-3.89 5.82c-2.41-1.41-3.93-3.67-4.16-6.45l-.68-3.52-2.41-.95c-.01-3.18.41-6.4-.35-9.52 1.6-1.2 3.24-2.33 4.87-3.49.7-.53 1.38-1.09 2.05-1.68l1.36-1.45c2.68-2.29 5.37-4.6 7.57-7.37z"/><path fill="#85817a" d="M285.23 268.12l9.86.3-6.52.68.85 7.84 2.05-2.24 3.27 1.85c2.41-3 4.25-6.75 7.84-8.52l2.1 3.07c-1.52 1.98-3.23 3.82-5.24 5.31-6.64 5.07-12.48 11.58-20.56 14.41-5.97 2.13-12.73 5.75-18.97 2.47 5.78-3.82 12.8-4.64 19.08-7.27 4.5-2.47 8.82-5.28 13.6-7.24-2.64-.29-5.28-.61-7.87-1.19-.11-.02-.33-.06-.44-.07l-.39-.05c.08-1.08.19-2.15.31-3.21l-3.19-2.14 4.77.16c-.16-1.39-.35-2.78-.55-4.16z"/><path fill="#898a82" d="M220.89 269.84c1.1-1.22 2.88-.52 3.87.48 1.96 6.36.54 13.05.96 19.57-1.48-.22-3.16-.06-4.38-1.08-1.36-2.25-2.1-4.8-3.18-7.18.18-4.04.8-8.18 2.73-11.79z"/><path fill="#322a21" opacity=".53" d="M318.54 274.03c2.36-1.03 4.42-2.63 6.76-3.7l1.03-.06c-2.2 2.77-4.89 5.08-7.57 7.37-.32-1.18-.33-2.4-.22-3.61z"/><path fill="#505253" d="M140.81 271.85l2-.43c6.38.34 12.78.49 19.16.57 7.56-1.49 15.64-1.95 23.01.7l-2.07.94c-3.65-1.28-7.56-.93-11.35-1.28-2.09-.37-3.86.87-5.63 1.73-5.66 3.13-11.83-.73-17.61 1.11l-1.59-2.63c-3.04.19-3.63 3.24-3.68 5.72l-.04 3.43c1.52-.27 3.12-.8 4.63-.18 2.95 1.18 6.2.11 9.15 1.31 3.22 1.01 6.44 2.02 9.71 2.82 2.28.74 4.22-1.24 6.36-1.7l2.57 2.83a51.54 51.54 0 0 0 6.55-.77l.1.85c.19 1.45.44 2.89.68 4.33l3.2 1.9c-4.03 2.07-8.54 2.51-12.98 2.87-3.51.1-6.8 2.75-10.31 1.36-4.67-1.71-9.63-.54-14.45-.6-.88-.81-1.52-1.84-2.25-2.76 3.45-1 6.98-2.23 10.62-1.63 2.45.37 4.91.03 7.25-.74a27.63 27.63 0 0 0 .14.81c-.6.95-1.22 1.89-1.85 2.83l5.08-.68c4.97-.41 9.87-1.35 14.82-1.99-4.04-1.31-8-3.45-12.38-3.03-4.03.47-7.1-2.92-11.01-3.18-4.15-.35-8.42-.13-12.35-1.73l-.25 2.93-6.69-.25c-1.76-5.09-.51-10.64 1.46-15.46z"/><path fill="#c5c6c9" d="M316.78 271.98c.92-1.98 2.27 1.12 1.04 1.9l-.68-.15-.36-1.75z"/><path fill="#61615f" d="M165.93 274.08c1.77-.86 3.54-2.1 5.63-1.73 3.79.35 7.7 0 11.35 1.28-1.41 3.98-1.23 8.24-.93 12.39a51.54 51.54 0 0 1-6.55.77l-2.57-2.83c1.58-3.27.43-7-2.42-9.14-1.44-.53-3-.62-4.51-.74z"/><path fill="#81847b" d="M184.98 272.69l7.64-.81.78 1.36c2-.37 4.03-1.17 6.07-.53-.81 3.21-.84 6.54-.42 9.82l-1.98-1.08c.11 3.48.07 6.96-.21 10.43-5.66 1.5-10.12-2.61-14.78-5.01l-.1-.85c-.3-4.15-.48-8.41.93-12.39l2.07-.94z"/><path fill="#6d6c6a" d="M143.05 278.28c.05-2.48.64-5.53 3.68-5.72l1.59 2.63c5.78-1.84 11.95 2.02 17.61-1.11 1.51.12 3.07.21 4.51.74 2.85 2.14 4 5.87 2.42 9.14-2.14.46-4.08 2.44-6.36 1.7-3.27-.8-6.49-1.81-9.71-2.82 2.64.19 5.27-.24 7.73-1.2l.41-3.11c-4.73-.09-9.48-1.01-14.19-.25-2.55.37-5.14.28-7.69 0z"/><path fill="#87897f" d="M314.02 275.59c2.14-.31 2.73 1.97 3.38 3.5l-2.05 1.68-4.89-1.24c.66-1.65 1.3-4.11 3.56-3.94z"/><path fill="#8b8c90" d="M150.74 278.28c4.71-.76 9.46.16 14.19.25l-.41 3.11c-2.46.96-5.09 1.39-7.73 1.2-2.95-1.2-6.2-.13-9.15-1.31-1.51-.62-3.11-.09-4.63.18l.04-3.43c2.55.28 5.14.37 7.69 0z"/><path fill="#f8f5f9" d="M284.28 277.52c.11.01.33.05.44.07l-.44-.07z"/><path fill="#7a7771" d="M253.34 280.53c4.27-2.36 9.17-1.93 13.84-2.4l2.57-.63c1.46.32 2.92.68 4.38 1.07-.43.58-.9 1.12-1.41 1.63-4.54 2.58-9.87 4.04-15.04 2.6-1.41-.51-4.85.06-4.34-2.27z"/><path fill="#40413f" d="M232.49 279.5l3.96-.12c2.32 4.3 5.61 7.9 9.39 10.96-.63.84-1.3 1.66-1.99 2.47-5.66-2.03-10.89-7.06-11.36-13.31z"/><path fill="#73746b" d="M292.18 286.17c3.13-1.78 5.03-5.06 8.09-6.93 1.69-.13 1.98 1.78 2.66 2.92 1.41 3.36 2.89 6.89 2.78 10.6.01 1.54-1.58 2.29-2.55 3.22-5.24 3.08-10.13 6.7-15.02 10.3-3.15.41-6.33.48-9.48.13-.85-2.16-1.55-4.4-2.67-6.43-1.51-1.36-3.33-2.3-5.01-3.4 2.99-2.75 7.19-3.17 10.76-4.82 3.59-1.64 6.99-3.67 10.44-5.59z"/><path fill="#d2cfd2" d="M246.25 283.25c.55.54.55.54 0 0z"/><path fill="#3f3f3d" d="M146.29 284.63c3.93 1.6 8.2 1.38 12.35 1.73 3.91.26 6.98 3.65 11.01 3.18 4.38-.42 8.34 1.72 12.38 3.03-4.95.64-9.85 1.58-14.82 1.99l.35-2.63-3.58.48a27.63 27.63 0 0 1-.14-.81c-2.34.77-4.8 1.11-7.25.74-3.64-.6-7.17.63-10.62 1.63-2.34-2.09-5.42-3.55-6.62-6.66 2.23.05 4.46.14 6.69.25l.25-2.93z"/><path fill="#5b3f30" opacity=".69" d="M327.71 289.89l1.5-1.81-1.5 1.81z"/><path fill="#4c4c4b" d="M197.56 295.18c1.46-3.82 5.94-6.16 9.82-4.52 3.02 1.31 6.29.87 9.43.4 1.22 1.27 2.42 2.56 3.58 3.9.24.98.5 1.96.77 2.94-7.92-.04-16.12.35-23.6-2.72z"/><path fill="#513b2d" opacity=".66" d="M325.68 293l1.55-1.8-1.55 1.8z"/><path fill="#161514" opacity=".64" d="M163.98 292.41l3.58-.48-.35 2.63-5.08.68 1.85-2.83z"/><path fill="#7e7976" d="M310.83 293.78l2.41.95.68 3.52-4.94-1.21.55-.96 1.3-2.3z"/><path fill="#674939" opacity=".75" d="M321.97 298.88c-.64-2.27.84-4.32 3.09-4.7-.37 1.94-1.43 3.61-3.09 4.7z"/><path fill="#2e2d2a" d="M303.16 295.98c2.1-.58 4.31-.61 6.37.1l-.55.96c-2.38 2.88-6.48 2.55-9.39 4.54-3.58 2.45-7.26 4.9-10.03 8.29 1.02.73 2.05 1.48 3.11 2.17l-.77.06c-4.72.01-8.83 2.61-13.34 3.64a17.88 17.88 0 0 0-.63-2.31l4.36.3c1.12-3.05 3.18-5.61 5.85-7.45 4.89-3.6 9.78-7.22 15.02-10.3z"/><path fill="#5e5b56" d="M308.98 297.04a51.57 51.57 0 0 0 4.94 1.21c.23 2.78 1.75 5.04 4.16 6.45-.34 2.59-1.06 5.14-3.28 6.77-2.52-1.78-.95-5.18-1.06-7.73l-4.42-2.02-2.38-1.06c-2.89 4.82-7.65 7.89-12.29 10.83-.61.36-1.27.54-1.98.55-1.06-.69-2.09-1.44-3.11-2.17 2.77-3.39 6.45-5.84 10.03-8.29 2.91-1.99 7.01-1.66 9.39-4.54z"/><path fill="#5e5f61" d="M296.07 314.13c4.75-3.73 10.77-6.53 13.25-12.41.13 2.51 1.33 5.67-.98 7.58-4.25 3.82-9.28 6.65-13.78 10.17-2.9-1.75-5.81-4.06-9.43-3.31l-.34 2.65 2.92 1.89-5.22 1.6c-2.24-1.51-4.07-3.72-3.93-6.56 4.51-1.03 8.62-3.63 13.34-3.64l-2.24 2.06c1.71 2.17 4.56 1.61 6.41-.03z"/><path fill="#383939" d="M309.32 301.72l4.42 2.02c.11 2.55-1.46 5.95 1.06 7.73-3.19 3.58-6.24 7.34-8.58 11.54l-1.48-2.89-4.56 2.07c-1.9-.87-3.8-1.71-5.62-2.72 4.5-3.52 9.53-6.35 13.78-10.17 2.31-1.91 1.11-5.07.98-7.58z"/><path fill="#494948" d="M285.13 316.16c3.62-.75 6.53 1.56 9.43 3.31 1.82 1.01 3.72 1.85 5.62 2.72-2.66 1.27-5.26 2.69-7.59 4.49-3.31-1.61-6.85-2.68-10.1-4.38l5.22-1.6-2.92-1.89.34-2.65z"/><path fill="#696665" d="M300.18 322.19l4.56-2.07 1.48 2.89-.42.67c-3.34 3.42-8.75 5.73-13.21 3 2.33-1.8 4.93-3.22 7.59-4.49z"/></svg>