<svg xmlns="http://www.w3.org/2000/svg" width="682.667" height="682.667" viewBox="0 0 512 512" xmlns:v="https://vecta.io/nano"><path fill="#414140" opacity=".68" d="M270 172.87c2.07-1.66 4.92-1.52 7.13-.23-2.34.59-4.76.66-7.13.23z"/><path fill="#898786" d="M268.6 173.7l1.4-.83c2.37.43 4.79.36 7.13-.23l.74.32-.4 3.42-5.14.69-3.88-.47.15-2.9z"/><path fill="#656461" d="M277.87 172.96c1.59.78 3.03 1.82 4.33 3.03l.32 3.84c-2.82.26-5.65.4-8.47.21l-1.72-2.97 5.14-.69.4-3.42z"/><path fill="#505250" d="M260.06 183.05c2.4-3.47 5.25-6.69 8.54-9.35l-.15 2.9 3.88.47 1.72 2.97c2.82.19 5.65.05 8.47-.21l-.32-3.84c3.8 3.55 8.16 6.43 12.4 9.44 1.75 1.1 2.35 3.16 3.28 4.89-1.4 3.91 1.34 7.62 1 11.51-.96 3.25-4.05 5.5-4.54 8.93-.25 3.08.11 6.24 1.67 8.96.87 2.54 1.46 5.18 1.74 7.86l-1.33.69c-7.32-6.82-17.31-9.01-26.34-12.57-.13-.26-.4-.76-.54-1.02 5.72.71 11.48 1.86 16.51 4.8 2 1.02 4.12 1.78 6.26 2.45.1-5.88-1.74-11.52-2.99-17.2 2.38.54 5.56 3.56 7.23.34-1.22-1.69-2.48-3.33-3.87-4.88-.11-1.72-.1-3.45-.06-5.18-.11-1.22.31-2.9-1.12-3.47-5.1-2.75-10.8-4.16-16.33-5.74-2.93-.62-6-1.38-8.98-.68-2.58.83-4.59 2.76-6.73 4.33-.22-2.12-.81-4.54.6-6.4z"/><path fill="#5e6162" d="M259.46 189.45c2.14-1.57 4.15-3.5 6.73-4.33 2.98-.7 6.05.06 8.98.68l-2.68 1.38 1.03 2.05-1.76 1.81-4.59.32 4.07 2.73-5.6-1.29c-1.92-.47-3.87-.78-5.82-1.06l-.36-2.29z"/><path fill="#6d6f6f" d="M275.17 185.8c5.53 1.58 11.23 2.99 16.33 5.74 1.43.57 1.01 2.25 1.12 3.47-6.45-1.65-12.67-4.04-19.1-5.78l-1.03-2.05 2.68-1.38z"/><path fill="#98999d" d="M273.52 189.23c6.43 1.74 12.65 4.13 19.1 5.78-.04 1.73-.05 3.46.06 5.18-1.19-1.81-2.3-4.01-4.68-4.35-5.28-1.3-11.04-4.69-16.28-1.44l-.48-.31-4.07-2.73 4.59-.32 1.76-1.81z"/><path fill="#ce9a7c" d="M298.88 201.83c.34-3.89-2.4-7.6-1-11.51 9.25 8.07 17.91 16.82 27.38 24.62.99 1.71 2.28 4.04.55 5.75-2.39 3.07-6.59 2.1-9.86 1.52-4.12-2.69-8.43-5.07-12.77-7.39-2.79-1.68-5.78-2.98-8.84-4.06.49-3.43 3.58-5.68 4.54-8.93z"/><path fill="#595652" d="M259.82 191.74l5.82 1.06-.28 2.81 4.62 2.42c-3.23.47-5.78 2.6-8.04 4.8-2.82 2.5-4.63 5.86-6.11 9.27-1.59 4.05-6.23 4.6-9.92 5.51l.64-1.75-1.61.06c4.15-1.82 9.18-3.56 11.17-8.01-.16-5.64.41-11.4 3.71-16.17z"/><path fill="#312d28" d="M265.36 195.61l.28-2.81 5.6 1.29.48.31c4.3 3.61 9.63 5.7 15.08 6.85 2.02.34 3.97-.54 5.88-1.06 1.39 1.55 2.65 3.19 3.87 4.88-1.67 3.22-4.85.2-7.23-.34-6.69-1.49-13.06-4.02-19.34-6.7-1.6-.7-3.12-1.55-4.62-2.42z"/><path fill="#605a53" d="M271.72 194.4c5.24-3.25 11 .14 16.28 1.44 2.38.34 3.49 2.54 4.68 4.35-1.91.52-3.86 1.4-5.88 1.06-5.45-1.15-10.78-3.24-15.08-6.85z"/><path fill="#6f7067" d="M261.94 202.83c2.26-2.2 4.81-4.33 8.04-4.8 6.28 2.68 12.65 5.21 19.34 6.7 1.25 5.68 3.09 11.32 2.99 17.2-2.14-.67-4.26-1.43-6.26-2.45 1.23-2.65 2.24-5.46 2.09-8.42-.38-2.86-2.71-5.02-5.55-5.29-2.12-.01-4.2.47-6.28.78-1.38-1.8-1.86-5.09-4.56-5.24-3.34-.49-6.73.23-9.81 1.52z"/><path fill="#81837a" d="M261.94 202.83c3.08-1.29 6.47-2.01 9.81-1.52 2.7.15 3.18 3.44 4.56 5.24 2.08-.31 4.16-.79 6.28-.78 2.84.27 5.17 2.43 5.55 5.29-5.97-.47-11.64-4.11-17.7-2.6-2.51 1.2-1.61 4.19-.9 6.22l.54 1.02c9.03 3.56 19.02 5.75 26.34 12.57-1.15.2-2.32.06-3.43-.28-8.44-2.41-16.63-5.9-25.39-7.06-6.29-.37-12.6-.42-18.89-.54.27-1.44.96-2.93 2.64-3.02 4.27-.94 8.74-.92 12.83-2.64-2.3-1.82-5.1-2.3-7.93-1.76-.1-.22-.32-.66-.42-.87 1.48-3.41 3.29-6.77 6.11-9.27z"/><path fill="#93948b" d="M270.44 208.46c6.06-1.51 11.73 2.13 17.7 2.6.15 2.96-.86 5.77-2.09 8.42-5.03-2.94-10.79-4.09-16.51-4.8-.71-2.03-1.61-5.02.9-6.22z"/><path opacity=".76" d="M296.01 219.72c-1.56-2.72-1.92-5.88-1.67-8.96 3.06 1.08 6.05 2.38 8.84 4.06l-6.13-1.68c2.88 2.72 5.83 5.36 8.91 7.85 4.44 3.77 10.34 4.88 15.35 7.66 2.04 1.58 3.93 3.34 5.86 5.06.44 2.01.88 4.02 1.46 5.99-1.65 1.65-3.2 3.42-4.63 5.28.25-3.29-1.08-8.03-5.29-7.11-2.84.15-6.24 1.2-8.61-.93-1.16-2.26-1.44-4.93-2.9-7.02-2.1-1.53-4.8-2.43-6.05-4.89-1.22-2.2-3.03-3.96-5.14-5.31z"/><path fill="#656562" d="M245.91 217.61c3.69-.91 8.33-1.46 9.92-5.51l.42.87c2.83-.54 5.63-.06 7.93 1.76-4.09 1.72-8.56 1.7-12.83 2.64-1.68.09-2.37 1.58-2.64 3.02 6.29.12 12.6.17 18.89.54 8.76 1.16 16.95 4.65 25.39 7.06 1.11.34 2.28.48 3.43.28l1.33-.69c-.28-2.68-.87-5.32-1.74-7.86 2.11 1.35 3.92 3.11 5.14 5.31l-2.92 5.88c2.36-.62 4.72-1.78 7.21-1.43 1 2.88-1.89 6.75-5.1 6.48-3.06.39-4.71-2.77-7.12-4.05-3.66-1.95-7.51-3.53-11.12-5.56l-3.1 1.89c1.17 1.79 2.59 3.4 4.12 4.89l-1.29 1.68c-4.41.6-8.86.35-13.27.78l-1.4 3.33c4.34.29 8.73.38 13.02-.47l2.39-2.32 2.78 1.34c-2.54 2.32-5.19 4.52-7.8 6.77-.97-.17-1.93-.31-2.9-.44-5.94-1.46-12.86-1.65-18.19 1.7-5.03 8.09-4.14 20.86 4.3 26.44 3.39 1.21 7.12 1.19 10.55 2.4-5.77 1.53-11.84.5-17.37-1.41-1.39-1.2-1.93-3.06-2.68-4.66-.09-4.1-.76-8.17-.59-12.26.62-4.27 2.8-8.09 4.33-12.08 2.77-3.76 6.4-6.73 10.01-9.65l-3.62-.73c-4.44-.73-8.99-.47-13.37.54-1.96.37-3.94.68-5.91.96l-2.19-1.53c1.26-.56 2.58-1.02 3.74-1.78.62-1.28.91-2.69 1.31-4.05l5.69-1.43.04-2.63c-3.35-.48-7.32-.41-9.21-3.79l4.42-2.23m5.91 13.12c7.19-.28 14.25 1.42 21.43 1.16-1.8-1.94-4.54-2.34-6.86-3.34-4.81-2.72-9.9.78-14.57 2.18z"/><path fill="#585957" d="M325.26 214.94c2.86 1.15 5.89 1.92 8.53 3.55-2.61 2.4.01 6.39.42 9.3 1.82.79 3.7 1.47 5.62 1.99l2.59-3.75c1.85 2.48 4.52 4.78 4.91 7.99.4 3.12-2.92 4.62-4.12 7.08-.91 2.48-.94 5.17-1.63 7.71-2.13 1.95-4.32-1.12-5.96-2.34-2.03-4.7-4.14-9.68-8.45-12.76-1.93-1.72-3.82-3.48-5.86-5.06-2.04-1.93-3.67-4.22-5.36-6.44 3.27.58 7.47 1.55 9.86-1.52 1.73-1.71.44-4.04-.55-5.75m7.04 13.22c-1.08 1.27-2.11 2.59-3.11 3.93.93 2.06 2.24 4.16 4.61 4.71l1.85-1.9c-.36-2.55-1.03-5.27-3.35-6.74z"/><path fill="#7f7c73" d="M238.11 219.04c2.39-.78 4.49-2.2 6.83-3.12l1.61-.06-.64 1.75-4.42 2.23c-5.26 2.45-10.66 6.82-10.94 13.08 3.26.05 6.44.91 8.12 3.93 1 1.14 2.06 2.22 3.1 3.34-1.61 2.52-3.07 5.13-4.77 7.59-1.33 1.31-3.74 2.03-3.81 4.19-.32 2.6-.17 5.23-.08 7.84-.29 2.85.6 6.49-1.77 8.64-.34-9.2.55-18.36 1.35-27.51-1.78-.11-3.56-.13-5.34-.02-2.95-1.45-1.95-4.97-.71-7.26 2.05-3.86 3.12-8.17 5.2-12 1.81-1.4 4.17-1.79 6.27-2.62z"/><path fill="#5a5c5b" d="M212.63 223.48c7.91-3.99 16.81-4.34 25.48-4.44-2.1.83-4.46 1.22-6.27 2.62-2.08 3.83-3.15 8.14-5.2 12-1.24 2.29-2.24 5.81.71 7.26.12 7.07.17 14.34-2.18 21.1l-.58-2.96c-2.35.46-4.77 1.31-6.19 3.37-2.59 3.16-1.18 7.43-.73 11.05-4.01-1.56-6.17-6.3-4.53-10.33 1.36-4.86 7.24-5.31 11.44-5.76.28-1.71.56-3.42.75-5.13.33-2.94.74-5.94.17-8.87-.14-1.64-2.12-1.59-3.25-2.23-2.67-.87-4.82-3.07-7.74-3.16l-.83 4.6c-2.05-6.15-2.02-12.77-1.05-19.12z"/><path fill="#6f6f6e" d="M334.21 227.79c-.41-2.91-3.03-6.9-.42-9.3 3.13 2.19 6.16 4.59 8.63 7.54l-2.59 3.75c-1.92-.52-3.8-1.2-5.62-1.99z"/><path fill="#4b4d4b" d="M230.55 232.92c.28-6.26 5.68-10.63 10.94-13.08 1.89 3.38 5.86 3.31 9.21 3.79l-.04 2.63-5.69 1.43c-.4 1.36-.69 2.77-1.31 4.05-1.16.76-2.48 1.22-3.74 1.78l2.19 1.53c1.97-.28 3.95-.59 5.91-.96-.8 1.05-1.55 2.14-2.49 3.07-2.29.21-4.58-.19-6.86-.31-1.68-3.02-4.86-3.88-8.12-3.93z"/><path fill="#5e5e5b" d="M191.43 223.81c1.4-.39 2.83-1.14 4.31-.64 4 1.01 8.08 1.73 12.22 1.75-3.18 1.09-6.66 2.74-7.98 6.06-.45 3.29-.5 6.7.05 9.98.93 1.64 2.58 2.69 4.02 3.86-3.29-.22-6.98 0-9.78-2.01-3.13-4.11-1.34-9.47-.85-14.1-1.68 1.09-3.91 2.11-4.12 4.38-.81 4.77 1.26 9.31 2.78 13.71-1.73-.55-3.51-.97-5.1-1.85-2.51-3.76-3.16-8.58-2.03-12.93l.7-3.66c-4.1-.23-8.15.48-12.22.64 1.56-.97 3.03-2.08 4.63-2.99 2.29-.56 4.63-1.07 7.01-1.01 2.64.28 4.9 1.91 7.5 2.41 1.9.18 3.79-.29 5.66-.57-2.08-1.39-4.41-2.34-6.8-3.03z"/><path d="M178.06 226.01c4.07-2.49 8.97-1.01 13.37-2.2 2.39.69 4.72 1.64 6.8 3.03-1.87.28-3.76.75-5.66.57-2.6-.5-4.86-2.13-7.5-2.41-2.38-.06-4.72.45-7.01 1.01zm69.96 8.08c4.38-1.01 8.93-1.27 13.37-.54-5.15 2.43-10.46 5.34-13.5 10.36-1.96 3.04-1.58 6.85-.91 10.22 1.76-1.85 2.53-4.32 3.78-6.49 1.11-1.54 2.82-2.49 4.24-3.71-1.53 3.99-3.71 7.81-4.33 12.08-.17 4.09.5 8.16.59 12.26-4.51-2.96-2.72-9.24-4.13-13.73-1.77 4.22-4.33 8.66-3.33 13.41 1.62 3.58 3.9 6.78 6.11 10-3.28-1.41-7.36-2.33-9.06-5.84-1.33-2.44-3.11-5.25-1.99-8.11 2.17-6.79 3.82-13.8 3.99-20.95.03-1.1-.33-2.05-1.08-2.86l-3.1-3.34c2.28.12 4.57.52 6.86.31.94-.93 1.69-2.02 2.49-3.07z" fill="#424241"/><path fill="#7e8078" d="M207.96 224.92l4.67-1.44c-.97 6.35-1 12.97 1.05 19.12a28.73 28.73 0 0 0 1.1 3.24c-3.49-1-7.14-1.07-10.73-1.02-1.44-1.17-3.09-2.22-4.02-3.86-.55-3.28-.5-6.69-.05-9.98 1.32-3.32 4.8-4.97 7.98-6.06z"/><path fill="#50524f" d="M301.15 225.03c1.25 2.46 3.95 3.36 6.05 4.89 1.46 2.09 1.74 4.76 2.9 7.02 2.37 2.13 5.77 1.08 8.61.93l.46.68-3.1 1.72-2.19-.69c-2.4-1.29-4.74.08-6.73 1.43l.53 3.88-1.32-1.04c-2.5-2.03-5.04-4.17-8.18-5.14-4.11-1.52-8.54-1.04-12.83-1.24-.94-.43-1.86-.89-2.78-1.34l-2.39 2.32c-4.29.85-8.68.76-13.02.47l1.4-3.33c4.41-.43 8.86-.18 13.27-.78l1.29-1.68c-1.53-1.49-2.95-3.1-4.12-4.89l3.1-1.89c3.61 2.03 7.46 3.61 11.12 5.56 2.41 1.28 4.06 4.44 7.12 4.05 3.21.27 6.1-3.6 5.1-6.48-2.49-.35-4.85.81-7.21 1.43l2.92-5.88z"/><path fill="#9e9b92" d="M251.82 230.73c4.67-1.4 9.76-4.9 14.57-2.18 2.32 1 5.06 1.4 6.86 3.34-7.18.26-14.24-1.44-21.43-1.16z"/><path fill="#363938" d="M173.43 229c4.07-.16 8.12-.87 12.22-.64l-.7 3.66c-4.41.67-8.82 1.4-13.27 1.74l-.29-2.64-1.45.76-2.12 1-2.09-.15c2.24-1.83 4.87-3.13 7.7-3.73z"/><path fill="#737372" d="M332.3 228.16c2.32 1.47 2.99 4.19 3.35 6.74l-1.85 1.9c-2.37-.55-3.68-2.65-4.61-4.71l3.11-3.93z"/><path fill="#46494d" d="M189.3 233.09c.21-2.27 2.44-3.29 4.12-4.38-.49 4.63-2.28 9.99.85 14.1 2.8 2.01 6.49 1.79 9.78 2.01 3.59-.05 7.24.02 10.73 1.02l.4.7c-4.76-.5-9.34 1.08-13.97 1.87-9.4 1.13-18.9-.56-28.28.8-2.78-.38-6.64-.01-8.09-3-2.37-4.02-3.4-10.38.89-13.48l2.09.15c-.6 2.9-2.8 6.11-.91 8.97 1.06 2.21 2.86 3.93 4.62 5.6-2.36-4.88-2.67-10.31-1.59-15.57l1.45-.76.29 2.64c4.45-.34 8.86-1.07 13.27-1.74-1.13 4.35-.48 9.17 2.03 12.93 1.59.88 3.37 1.3 5.1 1.85-1.52-4.4-3.59-8.94-2.78-13.71z"/><path fill="#67686a" d="M167.82 232.88l2.12-1c-1.08 5.26-.77 10.69 1.59 15.57-1.76-1.67-3.56-3.39-4.62-5.6-1.89-2.86.31-6.07.91-8.97z"/><path fill="#7b7c7c" d="M247.89 243.91c3.04-5.02 8.35-7.93 13.5-10.36l3.62.73c-3.61 2.92-7.24 5.89-10.01 9.65-1.42 1.22-3.13 2.17-4.24 3.71-1.25 2.17-2.02 4.64-3.78 6.49-.67-3.37-1.05-7.18.91-10.22z"/><path fill="#363636" opacity=".93" d="M327.17 233.71c4.31 3.08 6.42 8.06 8.45 12.76-2.91-1.59-5.3-3.92-6.99-6.77-.58-1.97-1.02-3.98-1.46-5.99z"/><path fill="#85837c" d="M285.35 237.47c4.29.2 8.72-.28 12.83 1.24 3.14.97 5.68 3.11 8.18 5.14l.23 3.25-6.11.67c.89 2.23 1.29 4.61.87 6.99l2.37 2.16-3.48.29c.2 2.97 1.75 6.33-.17 9.04-.52.94-1.07 1.86-1.62 2.79l3.59 2.83-2.02 1.21-17.64 2.2 1.59-3.11c-2 .12-3.99.31-5.95.74-2.23.51-4.46 1.06-6.71 1.43-3.43-1.21-7.16-1.19-10.55-2.4-8.44-5.58-9.33-18.35-4.3-26.44 5.33-3.35 12.25-3.16 18.19-1.7l-9.77 1.9c-1.66 3.33-4.58 5.66-7.63 7.67-.54 3.72-.54 7.72 1.21 11.15 2.47 1.81 5.68 1.93 8.6 2.44 4.83.54 9.76 1.65 14.62.72 1.77-.28 2.8-1.89 4-3.04 2.67-3.79 8.19-.98 11.57-3.92.51 2.11.92 4.25 1.34 6.39.52-4.19.68-8.45-.42-12.56-.54-2.33-.9-4.69-1.01-7.07l3.49-2.26c-4.07-1.33-7.73-3.65-11.78-4.98-3.61-.88-5.54 2.77-7.52 5.03-1.27-.37-2.53-.74-3.8-1.03l7.8-6.77z"/><path fill="#444b3f" d="M318.71 237.87c4.21-.92 5.54 3.82 5.29 7.11.71 2.86 3.53 5.38 2.52 8.5-.43 1.57-2.08 2.19-3.41 2.77.66-3.43 1.73-7.71-1.93-9.83.16-2.78-.29-5.59-2.01-7.87l-.46-.68z"/><path fill="#474948" d="M214.51 238c2.92.09 5.07 2.29 7.74 3.16 1.13.64 3.11.59 3.25 2.23.57 2.93.16 5.93-.17 8.87l-.57-4-9.58-1.72-.4-.7a28.73 28.73 0 0 1-1.1-3.24l.83-4.6z"/><path fill="#646468" d="M307.15 241.01c1.99-1.35 4.33-2.72 6.73-1.43l-1.64.63c.29 5.44 5.62 10.13 3.06 15.67l-3.19.57-.12 4.75 2.04.5a84.14 84.14 0 0 1 1.59 2.13c1.2-.54 2.27-1.32 3.22-2.24l2.68.29c-1.45 3.21-4.46 5.03-7.49 6.52.03 2.35.22 4.91 1.84 6.77 1.56.89 3.47.77 5.2 1.12-.78.68-1.45 1.56-2.42 1.97-4.41.13-9.14.42-12.86-2.4-3.5 2.27-7.25 4.49-11.6 4.1-1.82-.69-3.59-1.49-5.35-2.28 3.73-1.53 7.71-2.49 11.18-4.6l2.02-1.21-3.59-2.83 1.62-2.79c1.92-2.71.37-6.07.17-9.04l3.48-.29-2.37-2.16c.42-2.38.02-4.76-.87-6.99l6.11-.67-.23-3.25 1.32 1.04-.53-3.88z"/><path fill="#6d7187" d="M316.07 240.27l3.1-1.72c1.72 2.28 2.17 5.09 2.01 7.87 3.66 2.12 2.59 6.4 1.93 9.83l-1.95.23-2.27-2.26c-.47 2.44-.51 4.93-.05 7.37-.95.92-2.02 1.7-3.22 2.24a84.14 84.14 0 0 0-1.59-2.13l1.27-5.82c2.56-5.54-2.77-10.23-3.06-15.67l1.64-.63c.54.18 1.64.52 2.19.69m3.18 1.95c.56.56.56.56 0 0z"/><path fill="#404240" d="M227.35 240.92c1.78-.11 3.56-.09 5.34.02-.8 9.15-1.69 18.31-1.35 27.51-2.41.43-4.81-.11-7.13-.67.27-1.93.61-3.84.96-5.76 2.35-6.76 2.3-14.03 2.18-21.1z"/><path fill="#585857" d="M241.77 240.19c.75.81 1.11 1.76 1.08 2.86-.17 7.15-1.82 14.16-3.99 20.95-1.12 2.86.66 5.67 1.99 8.11 1.7 3.51 5.78 4.43 9.06 5.84-2.21-3.22-4.49-6.42-6.11-10 1.8 1.02 3.66 1.96 5.57 2.77l1.89-2.45c.75 1.6 1.29 3.46 2.68 4.66 5.53 1.91 11.6 2.94 17.37 1.41 2.25-.37 4.48-.92 6.71-1.43 2.68 2.15 6.15 4.43 6.19 8.26-2.12.27-4.25.34-6.38.35l4.31 2.8-.64 3.55c3.2.69 6.46.9 9.72 1.08l-1.15 2.73 7.57-.59c-.53 2.33-1.09 4.65-1.7 6.97l-3.34.95c-1.75-.69-3.39-1.6-5.05-2.47 1.36 3.24 5.04 3.93 7.81 5.52-5.16-.65-10.53-.61-15.17 2.06-1.36.62-2.69 1.29-4.03 1.94l-.81-3.63c-3.7-.16-7.41.01-11.1-.28a76.05 76.05 0 0 1-7.34-1.42c-1.94-.55-3.82-1.25-5.71-1.94l1.77-1.15c7.19 2.48 14.9 2.17 22.38 1.78 2.36-.2 4.79-.3 7.03-1.15 1.57-.94 2.55-2.57 3.68-3.96-5.46.42-10.76 2.39-16.28 2.01-5.55-.32-11.2-.7-16.43-2.72-5.38-2.01-10.72-4.17-16.33-5.44l.87 3.73c-2.15-1.41-4.2-2.97-6.2-4.58l-1.14-1.17.81-4.48c1.63-.39 4.41-.14 4.39-2.52-.74-2.31-2.58-3.97-4.57-5.23-1.5 2.45-2.78 5.03-4.29 7.48-1.04-1.79-2.05-3.58-3.01-5.4-.14-2.74-.01-5.49.33-8.21 2.32.56 4.72 1.1 7.13.67 2.37-2.15 1.48-5.79 1.77-8.64.47 2.69.63 5.79 2.91 7.67 1.67-6.3 3.34-13.37.98-19.7 1.7-2.46 3.16-5.07 4.77-7.59m-4.08 34.02c.46 3.1 3.48 4.58 5.28 6.86 3.2 4.4 9.14 4.69 14.05 5.68l.13-1.8c4.08 2.76 9.63 3.8 14.04 1.14-2.19-.64-4.36-1.5-5.85-3.3-1.87-.16-3.77-.18-5.61-.56-2.05-1.53-1.01-4.51-1.29-6.7l-3.33-.36c-.01 3.11.36 6.27 1.58 9.16-2.2-2.55-5.96-2.4-8.36-4.65-3.07-2.64-6.9-4.09-10.64-5.47z"/><path fill="#97958e" d="M281.35 245.27c1.98-2.26 3.91-5.91 7.52-5.03 4.05 1.33 7.71 3.65 11.78 4.98l-3.49 2.26c.11 2.38.47 4.74 1.01 7.07l-1.66 3.32c-7.17-2.33-14.99-1.64-22.45-1.55l.01 4.73c7.72.35 15.46-.14 23.18-.33-3.38 2.94-8.9.13-11.57 3.92-1.2 1.15-2.23 2.76-4 3.04-4.86.93-9.79-.18-14.62-.72-2.92-.51-6.13-.63-8.6-2.44-1.75-3.43-1.75-7.43-1.21-11.15 3.05-2.01 5.97-4.34 7.63-7.67l9.77-1.9c.97.13 1.93.27 2.9.44 1.27.29 2.53.66 3.8 1.03z"/><path d="M319.25 242.22c.56.56.56.56 0 0zm-31.01 16.07c.55.55.55.55 0 0z" fill="#fff"/><path fill="#64635e" d="M233.19 251.97c.07-2.16 2.48-2.88 3.81-4.19 2.36 6.33.69 13.4-.98 19.7-2.28-1.88-2.44-4.98-2.91-7.67-.09-2.61-.24-5.24.08-7.84z"/><path fill="#2b2c36" d="M318.89 254.22l2.27 2.26.12 4 2.8 1.66-2.56-.26-2.68-.29c-.46-2.44-.42-4.93.05-7.37z"/><path fill="#808180" d="M243.8 267.95c-1-4.75 1.56-9.19 3.33-13.41 1.41 4.49-.38 10.77 4.13 13.73l-1.89 2.45c-1.91-.81-3.77-1.75-5.57-2.77z"/><path fill="#535354" d="M298.17 254.55c1.1 4.11.94 8.37.42 12.56-.42-2.14-.83-4.28-1.34-6.39l-.53-2.05-.09-.36-.12-.44 1.66-3.32z"/><path fill="#757e8e" d="M274.06 256.32c7.46-.09 15.28-.78 22.45 1.55l.12.44c.02.09.07.27.09.36l.53 2.05c-7.72.19-15.46.68-23.18.33l-.01-4.73m10.04.94c-1.57 2.98 3.33.19 0 0m4.14 1.03c.55.55.55.55 0 0m2.99.02c.53.54.53.54 0 0z"/><path fill="#fffeff" d="M312.11 256.45l3.19-.57-1.27 5.82-2.04-.5.12-4.75z"/><path fill="#eaebee" d="M284.1 257.26c3.33.19-1.57 2.98 0 0z"/><path fill="#e9ebf0" d="M291.23 258.31c.53.54.53.54 0 0z"/><path fill="#fafcfc" d="M296.72 258.67l-.09-.36.09.36z"/><path fill="#323334" d="M218.4 262.43c1.42-2.06 3.84-2.91 6.19-3.37l.58 2.96-.96 5.76c-.34 2.72-.47 5.47-.33 8.21l-6.21-2.51c-.45-3.62-1.86-7.89.73-11.05z"/><path fill="#64667d" d="M321.52 261.88l2.56.26c-.29 2.41-.33 5-1.91 7-1.72 2.01-.83 4.75-1.1 7.15-1.73-.35-3.64-.23-5.2-1.12-1.62-1.86-1.81-4.42-1.84-6.77 3.03-1.49 6.04-3.31 7.49-6.52z"/><path fill="#494b4a" d="M324.08 262.14c1.28.93 2.71 2.08 2.54 3.87.35 3.21-3.85 4.88-3.09 8.2.46 2.6-.76 5.13-3.44 5.79l-7.97-.3-4.78.28-.82 1.73-1.93 5.3 3.45 1.99c-.76 1.95-1.71 3.86-2.08 5.93.7 1.68 1.71 3.21 2.55 4.83l-3.74 2.4c-2.76-1.74-5.71-3.16-8.83-4.1l1.7-6.97-7.57.59 1.15-2.73 1.6-4.33-4.72-3.65 6.09-1.01c4.35.39 8.1-1.83 11.6-4.1 3.72 2.82 8.45 2.53 12.86 2.4.97-.41 1.64-1.29 2.42-1.97.27-2.4-.62-5.14 1.1-7.15 1.58-2 1.62-4.59 1.91-7z"/><path fill="#757574" d="M278.02 272.91c1.96-.43 3.95-.62 5.95-.74l-1.59 3.11 17.64-2.2c-3.47 2.11-7.45 3.07-11.18 4.6 1.76.79 3.53 1.59 5.35 2.28-2.05.21-4.08.6-6.09 1.01l4.72 3.65c-.51 1.45-1.03 2.9-1.6 4.33-3.26-.18-6.52-.39-9.72-1.08l.64-3.55-4.31-2.8c2.13-.01 4.26-.08 6.38-.35-.04-3.83-3.51-6.11-6.19-8.26m4.23 13.34c.55.54.55.54 0 0z"/><path fill="#474847" d="M231.18 273.91c1.99 1.26 3.83 2.92 4.57 5.23.02 2.38-2.76 2.13-4.39 2.52l-.81 4.48c-1.41-1.43-2.65-3.02-3.66-4.75l4.29-7.48z"/><path fill="#787670" d="M237.69 274.21c3.74 1.38 7.57 2.83 10.64 5.47 2.4 2.25 6.16 2.1 8.36 4.65l.46.62-.13 1.8c-4.91-.99-10.85-1.28-14.05-5.68-1.8-2.28-4.82-3.76-5.28-6.86z"/><path fill="#353739" d="M255.11 275.17l3.33.36c.28 2.19-.76 5.17 1.29 6.7 1.84.38 3.74.4 5.61.56 1.49 1.8 3.66 2.66 5.85 3.3-4.41 2.66-9.96 1.62-14.04-1.14l-.46-.62c-1.22-2.89-1.59-6.05-1.58-9.16z"/><path opacity=".76" d="M312.12 279.7l7.97.3c-1.85.67-3.62 1.58-3.42 3.85 5.37-.36 10.78-1.66 16.16-.84 4.06.57 2.72 5.77 4.39 8.51l.29.92c-1.74-.37-3.93-.24-5.09-1.81-.66-1.64-.99-3.38-1.41-5.09l-3.46-.35-1.47 3.67c-4.77-.76-9.65-1.61-14.42-.39l-3.62.53-3.45-1.99c.6-1.78 1.21-3.56 1.93-5.3l6.15.43-.55-2.44zm32.87 42.56c2.68-.5 5.46-1.76 8.15-.58l-5.36 1.98-.87.31-1.92-1.71z"/><path fill="#535359" d="M327.55 285.19l3.46.35c.42 1.71.75 3.45 1.41 5.09 1.16 1.57 3.35 1.44 5.09 1.81l1.07 4.84 6.55 1.97c2.31.8 4.51 1.89 6.43 3.43 3.65-1.17 7.45-2.35 11.31-1.42 5.62 2.71 11.61 4.49 17.53 6.42 2.3.86 5.28 1.64 5.91 4.41.93 2.43-1.49 4.18-2.72 5.97-.7-1.67-1.09-3.87-3.11-4.42-5.92-2.3-12.11-3.82-18.14-5.8-4.23-1.37-8.36-3.11-12.69-4.19-7.91-1.33-15.11-4.98-22.2-8.57-.36-2.1-.88-4.16-1.37-6.22l1.47-3.67z"/><path fill="#f3eff2" d="M282.25 286.25c.55.54.55.54 0 0z"/><path fill="#4e4e4d" d="M231.69 287.31l6.2 4.58c1.58.8 3.22 1.48 4.89 2.08-4.52 3.09-4.79 9.05-4.54 14.01.21 1.99.43 4.35 2.16 5.67 5.25.76 10.59.23 15.85.92-5.46.01-10.95-.11-16.37.62.7 1.02 1.41 2.05 2.19 3.02 1.49 1.15 3.19 1.98 4.96 2.58 1.09 1.6 1.12 3.55 1.48 5.38a49.76 49.76 0 0 0 3.66 2.37c-1.95.5-3.83 1.24-5.71 1.96l-.2 2.15c3.94.89 7.93 1.53 11.91 2.17-6.8 4.21-15.24 3.76-22.29 7.43 2.18-1.63 4.19-3.48 6.1-5.41-4.82-.83-9.69-2.69-12.65-6.77-1-3.45-.6-7.12-1.02-10.66l-2.28-.42c1.44-.82 3.46-1.05 4.38-2.54.32-3.13-.19-6.29.26-9.4 1.28-3.53 5.1-5.62 6.18-9.2-.83-3.82-3.21-7.18-5.16-10.54m2.23 27.88l-.01 2.67c1.68 1.5 3.79 2.52 6.1 2.22.16-3.42-3.55-4.14-6.09-4.89z"/><path fill="#85827a" d="M237.02 288.16c5.61 1.27 10.95 3.43 16.33 5.44 5.23 2.02 10.88 2.4 16.43 2.72 5.52.38 10.82-1.59 16.28-2.01-1.13 1.39-2.11 3.02-3.68 3.96-2.24.85-4.67.95-7.03 1.15-7.48.39-15.19.7-22.38-1.78-3.42-1.17-6.78-2.5-10.19-3.67-1.67-.6-3.31-1.28-4.89-2.08l-.87-3.73z"/><path fill="#959795" d="M311.66 288.47c4.77-1.22 9.65-.37 14.42.39.49 2.06 1.01 4.12 1.37 6.22l-.17 2.89c-2.26.75-4.56.39-6.36-1.21a81.97 81.97 0 0 1 3.34-2.12l-.3-4.53a30.22 30.22 0 0 0-6.98-.32c.01 2.12.14 4.25.42 6.36l3.1.96c-1.74 2.47-4.87 3.27-7.49 1.65.58-1.54 1.37-3.04 1.54-4.69-.18-2.17-1.84-3.82-2.89-5.6z"/><path fill="#737476" d="M305.96 294.93c.37-2.07 1.32-3.98 2.08-5.93l3.62-.53c1.05 1.78 2.71 3.43 2.89 5.6-.17 1.65-.96 3.15-1.54 4.69-2.85-2.03-.56-7.27-4.14-8.18l-.36 9.18-2.55-4.83z"/><path fill="#97e9fd" d="M316.98 289.79a30.22 30.22 0 0 1 6.98.32l.3 4.53-3.34 2.12-.42.35-3.1-.96c-.28-2.11-.41-4.24-.42-6.36m2.01 2.31l1.06 2.98c1.13-.14 2.19-.49 3.19-1.05l-.41-2.95c-1.31.22-2.6.55-3.84 1.02z"/><path fill="#76777a" d="M337.22 291.52l2.78-.98c4.61-.07 9.22.17 13.8.65.25 2.46.38 4.95-.04 7.4l-1.48.8c.77-2.38 1-4.86.65-7.33l-3.62 1.15-.6 6.35a70.99 70.99 0 0 1-3.58-.31l-6.55-1.97c-.33-1.62-.65-3.24-1.07-4.84l-.29-.92z"/><path fill="#323338" d="M340 290.54c5.71.37 11.86-1.61 17.2 1.09a151.63 151.63 0 0 0 1.51 7.64l4.16 1.99c-3.86-.93-7.66.25-11.31 1.42-1.92-1.54-4.12-2.63-6.43-3.43a70.99 70.99 0 0 0 3.58.31l3.57-.17 1.48-.8c.42-2.45.29-4.94.04-7.4-4.58-.48-9.19-.72-13.8-.65z"/><path fill="#8d9282" d="M308.87 290.58c3.58.91 1.29 6.15 4.14 8.18 2.62 1.62 5.75.82 7.49-1.65l.42-.35c1.8 1.6 4.1 1.96 6.36 1.21l.17-2.89c7.09 3.59 14.29 7.24 22.2 8.57-1.13.22-2.24.49-3.35.75.81.98 1.62 1.96 2.48 2.91-4.1-1.36-8.41-1.73-12.66-2.33-2.76-.19-4.23-3.27-6.95-3.49-4.02-.31-8.05-.17-12.07-.4 2.78 2.02 5.12 5.29 8.72 5.75 10.61.06 20.41 4.74 30.42 7.66 1.95.66 3.63-.88 5.29-1.66 1.01-1.47.71-3.33.81-5 6.03 1.98 12.22 3.5 18.14 5.8 2.02.55 2.41 2.75 3.11 4.42-1.42.85-2.91 1.6-4.39 2.33-1.22-.83-2.28-.69-3.18.42-.71.75-1.44 1.49-2.18 2.22-2.74.13-5.81 1.15-8.28-.55-3.53-2.44-7.88-2.58-11.99-2.97-3.39-.25-7.21-.87-10.06 1.46l1.48 1.29 1.92 1.71-2.41.92c-1.66-1.14-3.3-2.33-5.07-3.28-2.85-1.58-6.24-1.29-9.36-1.77a91.35 91.35 0 0 1-3.06-1.01l-.32-3.4-6.04-.53.64-1.5c2.94-.76 6-1.01 8.96-1.75-3.6-2.61-8.14-3.07-12.21-4.6-4.41-1.66-9.14-2.53-13.27-4.89l3.74-2.4c.01-3.07.1-6.13.36-9.18m60.4 21.07c-2.14.28-3.91 1.64-5.3 3.21 1.81.12 3.99-.68 5.4.86-1.82.46-3.44 1.37-4.4 3.03 2.37.85 5.74 2.11 7.3-.75l-.62-.49c2.48.18 6.18-.11 6.44-3.26-2.85-1.12-5.74-2.39-8.82-2.6z"/><path fill="#e5ffff" d="M318.99 292.1c1.24-.47 2.53-.8 3.84-1.02l.41 2.95c-1 .56-2.06.91-3.19 1.05l-1.06-2.98z"/><path fill="#ffdc4e" d="M349.31 293.21l3.62-1.15c.35 2.47.12 4.95-.65 7.33l-3.57.17.6-6.35z"/><path fill="#6a6b63" d="M242.78 293.97l10.19 3.67-1.77 1.15 5.71 1.94-1.07 1.56.61 3.92c-1.22.65-2.57.76-3.92.67-.91-2.54-1.45-5.27-2.93-7.55-1.17-.53-2.41-.87-3.62-1.26l2.49 6.6c-2.32 1.15-4.85 2.09-6.57 4.13 2.9 1.96 6.35 3.95 9.96 2.89 3.31-1.2 6.42 1.09 9.66.92 3.37-2.31 4.27-6.81 2.73-10.46 3.69.29 7.4.12 11.1.28l.81 3.63c-.49.87-.96 1.75-1.42 2.64-.64 1.29-1.21 2.62-1.75 3.96l2.78-.07c-2.26.87-3.44 2.89-3.75 5.2l-.38-1.84c-5.19.41-10.26-.88-15.39-1.38-5.26-.69-10.6-.16-15.85-.92-1.73-1.32-1.95-3.68-2.16-5.67-.25-4.96.02-10.92 4.54-14.01z"/><path fill="#2f2e2e" d="M287.55 296.54l5.05 2.47 5.49 1.97-.98 3.2c-2.79 1.59-5.68 3.24-8.94 3.56l.82-1.95-4.62-.67-.45 1.75c-1.19-.99-2.46-1.88-3.73-2.75 4.64-2.67 10.01-2.71 15.17-2.06-2.77-1.59-6.45-2.28-7.81-5.52z"/><path fill="#7c7d75" d="M245.98 298.07l3.62 1.26c1.48 2.28 2.02 5.01 2.93 7.55 1.35.09 2.7-.02 3.92-.67l-.61-3.92 1.07-1.56 7.34 1.42c1.54 3.65.64 8.15-2.73 10.46-3.24.17-6.35-2.12-9.66-.92-3.61 1.06-7.06-.93-9.96-2.89 1.72-2.04 4.25-2.98 6.57-4.13l-2.49-6.6z"/><path fill="#676668" d="M292.6 299.01l3.34-.95c3.12.94 6.07 2.36 8.83 4.1 4.13 2.36 8.86 3.23 13.27 4.89 4.07 1.53 8.61 1.99 12.21 4.6-2.96.74-6.02.99-8.96 1.75l-.64 1.5 6.04.53.32 3.4a91.35 91.35 0 0 0 3.06 1.01c-2.92-.23-6.06-.51-8.38-2.48-1.66-1.92-2.26-4.49-3.66-6.58-1.48-1.54-3.74-1.36-5.68-1.62-.74 2.4-1.23 5.14-3.49 6.64-.15-2.56.64-5.01 1.19-7.47-1.87-.61-3.72-1.96-5.74-1.62-1.59.83-2.98 1.98-4.41 3.04l-2.61-1c-.09-1.53-.18-3.05-.18-4.57a84.66 84.66 0 0 1 .98-3.2c-1.82-.69-3.66-1.32-5.49-1.97z"/><path fill="#5f5e66" d="M317.1 301.09c4.02.23 8.05.09 12.07.4 2.72.22 4.19 3.3 6.95 3.49 4.25.6 8.56.97 12.66 2.33 4.35 1.59 9 2.65 12.75 5.53-1.66.78-3.34 2.32-5.29 1.66-10.01-2.92-19.81-7.6-30.42-7.66-3.6-.46-5.94-3.73-8.72-5.75z"/><path fill="#020202" opacity=".76" d="M276.16 306.06l4.03-1.94 3.73 2.75 1.33 1.17-1.88 1.57c-2.68-1.44-5.72-1.29-8.63-.91l1.42-2.64z"/><path fill="#525250" d="M288.17 307.74c3.26-.32 6.15-1.97 8.94-3.56l.18 4.57 2.61 1c1.43-1.06 2.82-2.21 4.41-3.04 2.02-.34 3.87 1.01 5.74 1.62-.55 2.46-1.34 4.91-1.19 7.47-5.64 4.42-12.89 7.65-20.2 6.69-2.64-.31-5.28.24-7.75 1.16 2.84-1.5 5.95-2.47 8.69-4.14 2.1-2.17 1.31-6.68-1.76-7.52-2.31-.5-4.69-.37-7.03-.31.86-.67 1.71-1.36 2.56-2.07l1.88-1.57a28.89 28.89 0 0 0 2.92-.3m11.36 3.52c-1.64 3.13-3.52 6.12-5.59 8.98l1.96 1.17c2.95-2.91 4.62-6.88 7.99-9.42-1.44-.32-2.9-.57-4.36-.73z"/><path fill="#a9b194" d="M346.3 304.4l3.35-.75c4.33 1.08 8.46 2.82 12.69 4.19-.1 1.67.2 3.53-.81 5-3.75-2.88-8.4-3.94-12.75-5.53-.86-.95-1.67-1.93-2.48-2.91z"/><path fill="#747277" d="M284.37 305.12l4.62.67-.82 1.95a28.89 28.89 0 0 1-2.92.3l-1.33-1.17.45-1.75z"/><path fill="#666564" d="M299.53 311.26c1.46.16 2.92.41 4.36.73-3.37 2.54-5.04 6.51-7.99 9.42l-1.96-1.17c2.07-2.86 3.95-5.85 5.59-8.98z"/><path fill="#a1aa8d" d="M369.27 311.65c3.08.21 5.97 1.48 8.82 2.6-.26 3.15-3.96 3.44-6.44 3.26l-2.28-1.79c-1.41-1.54-3.59-.74-5.4-.86 1.39-1.57 3.16-2.93 5.3-3.21z"/><path fill="#bc896a" d="M275.77 312.59l5.04-.91c2.34-.06 4.72-.19 7.03.31 3.07.84 3.86 5.35 1.76 7.52-2.74 1.67-5.85 2.64-8.69 4.14l-1.96.92-6.21 2.77.83-6.01-1.91-1.05.36-2.49c.31-2.31 1.49-4.33 3.75-5.2z"/><path fill="#6b6d71" d="M233.92 315.19c2.54.75 6.25 1.47 6.09 4.89-2.31.3-4.42-.72-6.1-2.22l.01-2.67z"/><path fill="#312a27" d="M239.88 315.19c5.42-.73 10.91-.61 16.37-.62 5.13.5 10.2 1.79 15.39 1.38l.38 1.84-.36 2.49c-4.59.36-8.53-2.53-13-2.99-5.51-.61-11.32-1.22-16.59.92-.78-.97-1.49-2-2.19-3.02z"/><path fill="#454447" d="M364.97 318.75c.96-1.66 2.58-2.57 4.4-3.03l2.28 1.79.62.49c-1.56 2.86-4.93 1.6-7.3.75z"/><path fill="#605f5d" d="M242.07 318.21c5.27-2.14 11.08-1.53 16.59-.92 4.47.46 8.41 3.35 13 2.99.64.34 1.27.69 1.91 1.05a137.64 137.64 0 0 1-.83 6.01l-4.54 1.98c-5.36.22-10.67-.81-16.03-.78a49.76 49.76 0 0 1-3.66-2.37l1.85-2.29c5.81.54 11.64 1.82 17.48.99 1.36 0 1.69-1.64 2.45-2.47-7.58.76-15.48.03-22.15-3.92l-1.11 2.31c-1.77-.6-3.47-1.43-4.96-2.58z"/><path fill="#8d8d91" d="M248.14 318.48c6.67 3.95 14.57 4.68 22.15 3.92-.76.83-1.09 2.47-2.45 2.47-5.84.83-11.67-.45-17.48-.99l-1.85 2.29c-.36-1.83-.39-3.78-1.48-5.38l1.11-2.31z"/><path fill="#656564" d="M222.19 323.07c-.17-2.3 2.08-3.33 3.84-4.08l2.28.42c.42 3.54.02 7.21 1.02 10.66 2.96 4.08 7.83 5.94 12.65 6.77-1.91 1.93-3.92 3.78-6.1 5.41-3.65.14-7.24-1.83-9.81-4.32-3.07-4.24-4.04-9.72-3.88-14.86m2.04 3.05c.86 1.99 2.01 3.85 3.81 5.12-.43-2.54-.22-5.55-2.09-7.55l-1.72 2.43m4.7 8.98l.27 3.68c1.71 1.1 3.72 1.21 5.7 1.09-.79-2.72-3.7-3.63-5.97-4.77z"/><path fill="#65666b" d="M343.51 320.97c2.85-2.33 6.67-1.71 10.06-1.46 4.11.39 8.46.53 11.99 2.97 2.47 1.7 5.54.68 8.28.55-2.95.89-6.02 1.32-9.06 1.83l.18 4.89c-3.27 1.32-6.33 3.27-9.78 4.05-3.95-.25-7.22-2.78-10.39-4.89l-.29-4.02 3.49 3.03 3.75-1.39 2.55 2.49c1.14-.89 2.33-1.73 3.63-2.38l2.64-1.03-.44-.78c-4.03-1-8.2-1.37-12.34-1.17l5.36-1.98c-2.69-1.18-5.47.08-8.15.58l-1.48-1.29z"/><path fill="#373832" opacity=".69" d="M376.02 320.81c.9-1.11 1.96-1.25 3.18-.42-1.01 1-2.07 1.14-3.18.42z"/><path fill="#7d7d82" d="M347.78 323.66c4.14-.2 8.31.17 12.34 1.17-1.46-.34-2.19.26-2.2 1.81-1.3.65-2.49 1.49-3.63 2.38l-2.55-2.49-3.75 1.39-3.49-3.03 2.41-.92.87-.31z"/><path fill="#8e8d8f" d="M224.23 326.12l1.72-2.43c1.87 2 1.66 5.01 2.09 7.55-1.8-1.27-2.95-3.13-3.81-5.12z"/><path fill="#c6c5cd" d="M357.92 326.64c.01-1.55.74-2.15 2.2-1.81l.44.78-2.64 1.03z"/><path fill="#3a3936" d="M252.17 328.54c5.36-.03 10.67 1 16.03.78-3.54 1.46-6.85 3.38-10.03 5.5-3.98-.64-7.97-1.28-11.91-2.17l.2-2.15c1.88-.72 3.76-1.46 5.71-1.96z"/><path fill="#7e7d7d" d="M228.93 335.1c2.27 1.14 5.18 2.05 5.97 4.77-1.98.12-3.99.01-5.7-1.09l-.27-3.68z"/></svg>