<svg xmlns="http://www.w3.org/2000/svg" width="682.667" height="682.667" viewBox="0 0 512 512" xmlns:v="https://vecta.io/nano"><path fill="#4f514f" d="M263.79 210.66c4.05-.41 8.85-1.52 12.29 1.27 2.03 1.41 4.03 2.9 6.28 3.96l-3.23 3.03c-2.25-1.94-4.82-3.76-7.97-3.29l-2.36-.05c.64 1.34 1.27 2.69 1.99 4-1.29 5.4 2.44 10.17 3.25 15.36-1.83-2.07-3.61-4.18-5.65-6.04-6.08-3.94-13.06-6.64-20.42-6.12-3.34-.33-5.46 2.51-7.84 4.31-1.63 1.52-3.95 1.64-6.02 2.07 1.68-2.46 3.41-4.89 4.83-7.5-3.94 1.56-6.3 5.24-9.12 8.19-1.91 2-3.73 4.27-3.85 7.16-.79 6.33-3.2 13.81 1.64 19.16l-1.6.83c-2.23-3.36-3.69-7.12-5.32-10.79.83-4.28 1.37-8.61 1.51-12.97-.3-5.56 5.06-9.42 4.62-15.08 1.01.92 1.75 2.44 3.28 2.52 6.5.6 12.79-1.56 19.16-2.43 4.37-.59 8.7-1.52 12.86-3l1.67-4.59z"/><path fill="#99958d" d="M268.8 215.58l2.36.05c2.84 3.99 5.45 8.16 7.53 12.6 1.61 3.13.68 6.71.5 10.04-.49 3.01.07 6.45-1.97 8.98-3.53-8.93.35-19.87-6.43-27.67-.72-1.31-1.35-2.66-1.99-4z"/><path fill="#626361" d="M271.16 215.63c3.15-.47 5.72 1.35 7.97 3.29l3.23-3.03c6.72.88 8.95 7.96 12.4 12.74-.57 2.33-.87 4.72-.81 7.12.04 3.85-.03 7.72-.63 11.54l-1.23-3.56c.97-7.33.03-14.96-3.08-21.68-.55-1.6-2.19-1.94-3.66-2.08.18 6.75 2.61 13.24 2.67 19.99-.92 5.35-1.9 10.76-1.4 16.21 1 .62 1.8-.48 2.65-.87-.32 3.07-2.64 5.15-4.81 7.07-.43-1.57-2.01-3.15-1.04-4.81.51-1.26 1.17-2.45 1.81-3.65-1.02-1.31-1.86-2.86-3.29-3.76-2.61-.37-5.29-.2-7.86-.88 3.18 2.66 6.25 6.07 6.43 10.44l-5.66-3.11c1.23 2.8 3.05 5.33 5.59 7.07l-.28 3.08c-3.82-2.3-8.09-3.79-12.59-3.66l-.67-.58c-.81-.61-1.65-1.18-2.5-1.74-1.74.5-3.46 1.37-5.31 1.26-2.84-.83-5.33-2.59-7.46-4.59-1.28-1.14-.73-3.04-1.02-4.55 0-2.78-2.24-4.81-3.53-7.08 6.31 2.28 11.78 6.81 18.69 7.31.27-2.98-1.81-5.19-3.48-7.38l4.1-1.93c-1.41-.84-2.7-2.19-4.44-2.21-1.11.47-2.12 1.13-3.15 1.75-2.96-.85-5.91-1.76-8.71-3.05 1.02 1.87 1.98 3.77 2.9 5.7-2.15-.99-4.19-2.33-6.53-2.82-2.56-.23-5.06.59-7.48 1.31-1.84.7-3.61 1.6-5.14 2.84l-.74.63c.32-4.92 4.46-8.07 8.06-10.83 4.94-2.71 10.81-3.77 16.38-2.89 1.43.33 2.74-.32 3.94-1.03 3.58 1.97 4.95 6.05 6.86 9.42l3.4-2.39-4.23-4.13c.88-2.3 1.34-4.75.88-7.21 2.04 1.86 3.82 3.97 5.65 6.04-.81-5.19-4.54-9.96-3.25-15.36 6.78 7.8 2.9 18.74 6.43 27.67 2.04-2.53 1.48-5.97 1.97-8.98.18-3.33 1.11-6.91-.5-10.04-2.08-4.44-4.69-8.61-7.53-12.6z"/><path fill="#5b5c5a" d="M217.58 220.57c2.74-1.53 6.03-3.69 9.24-2.41.44 5.66-4.92 9.52-4.62 15.08-.14 4.36-.68 8.69-1.51 12.97-.86-1.88-1.65-3.9-1.24-6.01a60.36 60.36 0 0 0 .25-13.96l-2.52-.89c-1.93 5.75-4.37 11.86-2.61 17.97.53 4.66 4.4 7.69 6.25 11.77 1.18 2.94 4.95 4.58 4.56 8.1.65 7.1.57 15.39 5.79 20.9.02 1.51.4 3.26-.87 4.41-4.31-3.65-5.15-9.4-5.86-14.66-2.73 4.59-1.68 10.86 1.82 14.78 1.77 2.01 3.4 5.19 6.57 4.69 2.41-.39 3.62 1.45 4.15 3.52.48 2.33 3.54 1.16 3.56-.81l2.11 2.66-1.9 2.85c-1.21-.75-2.42-1.51-3.66-2.19l-7.18-3.77c-2.85 2.37-4.09 5.9-5.15 9.32l-5.76-1.77c-.52 1.68-.8 3.51-1.83 4.98-1.47 1.85-4.08.92-6.09 1.03l-2.19-.88c-3.16-3.97-5.72-8.36-8.71-12.45-2.64-3.51-3.38-8.26-6.81-11.19-1.75-1.64-3.7-3.04-5.55-4.55l-.89-1.16c-1.43-1.87-2.79-3.78-4.28-5.6 2.9.8 6.22 1.59 8.59-.84 2.32 1.02 4.56 2.23 6.66 3.66 1.3 2.44 1.37 5.2.77 7.86 2.35 1.14 4.82 2.03 7.11 3.29 2.33 1.53 4.13 3.72 6.12 5.65-1.37-2.49-3.12-4.96-3.03-7.94 1.37 0 2.72.43 3.52 1.61 2.05 2.37 3.97 4.86 6.21 7.06l3.87-5.07c-.54-2.49-1.42-4.94-1.49-7.51.27-3 .93-5.95 1.29-8.94-5.39-4.19-11.28-7.72-16.01-12.73-1.17 4.74-3.15 9.73-1.4 14.59-2.14-2.54-4.69-4.69-6.78-7.27-1.41-3.56 1.19-7.44.36-11.04-1.66-1.45-3.58-2.57-5.4-3.79l1.74-.1c-1.53-1.91-3.15-4.1-5.87-4.07-.07 1.37-.12 2.73-.14 4.1-.84-1.38-1.76-2.7-2.68-4.02 2.05-4.14 6.3-6.47 8.88-10.23l2.07-.3-3.14 5.51 3.95-2.5-1.13 3.33 3.43 3.29 1.81-2.98c2.21 5.02 3.5 10.65 7.31 14.79 4.04 4.33 8.23 8.93 13.9 11.09-1.2-2.36-2.86-4.42-4.66-6.33-3.04-3.28-5.27-7.24-8.61-10.25.24-6.23-2.51-11.98-3.01-18.11l-3.74-1.84 2.44-.37c4.73-3.35 7.72-8.51 11.99-12.33z"/><path fill="#928f86" d="M285.35 219.97c1.47.14 3.11.48 3.66 2.08 3.11 6.72 4.05 14.35 3.08 21.68-.87 3.87-2 7.68-2.82 11.57-.85.39-1.65 1.49-2.65.87-.5-5.45.48-10.86 1.4-16.21-.06-6.75-2.49-13.24-2.67-19.99z"/><path fill="#777673" d="M229.82 229.85c2.82-2.95 5.18-6.63 9.12-8.19-1.42 2.61-3.15 5.04-4.83 7.5 2.07-.43 4.39-.55 6.02-2.07 2.38-1.8 4.5-4.64 7.84-4.31 7.36-.52 14.34 2.18 20.42 6.12.46 2.46 0 4.91-.88 7.21l4.23 4.13-3.4 2.39c-1.91-3.37-3.28-7.45-6.86-9.42-5.9-3.28-12.74-5.14-19.51-4.45-4.23.19-6.72 4.07-9.57 6.66-3.79 3.31-4.93 8.66-4.47 13.48.59 1.02 1.81 1.38 2.73 2.04l2.44-2.98.74-.63a23.38 23.38 0 0 1 1.17 3.64c-1.58 4.97-5.8 9.11-5.59 14.6.18 3.94-.8 8.59 2.23 11.73 4.09 4.86 9.98 7.87 15.77 10.21 5.2.53 10.5.13 15.64 1.4-3.82-2.76-8.7-3.04-12.79-5.22-2.27-1.08-2.34-3.84-2.88-5.96 3.3 1.25 6.47 2.8 9.59 4.44 3.65 2.18 7.76 3.23 11.91 3.89l-2.15 1.19c-.42 2.38-.48 4.8-.13 7.2l2.66-2.27.1 2.09c-.96 2.19-2.47 4.07-4.24 5.65l3.02 3.12c-2.06.43-4.13.81-6.23.95.71-1.93 1.49-3.85 1.98-5.85-1.25-1.39-3.16-.57-4.76-.62-3.04-4-8.99-3.01-13.1-5.41-5.17-2.23-10.33-4.65-14.87-8.02-5.22-5.51-5.14-13.8-5.79-20.9.39-3.52-3.38-5.16-4.56-8.1-1.85-4.08-5.72-7.11-6.25-11.77-1.76-6.11.68-12.22 2.61-17.97l2.52.89a60.36 60.36 0 0 1-.25 13.96c-.41 2.11.38 4.13 1.24 6.01 1.63 3.67 3.09 7.43 5.32 10.79l1.6-.83c-4.84-5.35-2.43-12.83-1.64-19.16.12-2.89 1.94-5.16 3.85-7.16z"/><path fill="#51514f" d="M157.95 226.81c1.96-1.81 4.18-3.42 6.96-3.55-1.79 3.86.35 8.52-2.96 11.83.67 3.33 1.19 6.69 1.85 10.02.19 1.97 2.42 2.57 3.82 3.56 1.12 1.69 2.16 3.47 3.57 4.96l-3.3-.29c-1.44 3.12-2.45 6.51-3.45 9.84l-.73-1.59c-2.06.45-4.21 1.74-6.28.66l2.9-1.8c.05-.05.15-.14.2-.19l1.3-2.11-1.74-1.27-3.06 1.43c-1.2-.21-2.73-1.19-3.62.12-1.76 2.13-1.09 5.25-1.58 7.82-1.28-2.2-1.58-4.73-1.74-7.22l-3.02-1.52-.67-1.92c1.32-6.51 5.05-12.18 6.67-18.59.64-2.48 1.57-4.86 2.57-7.21 1.64.39 3.12-1.47 2.31-2.98m-5.26 17.42c-.85.3-1.4.88-1.64 1.74.86 2.73 3.48 4.26 5.42 6.18 2.66-.32 5.19.52 7.47 1.84 1.37-.81 2.72-1.67 4.04-2.56-4.26-.29-8.62-.91-12.31-3.22.84-1.69 2.06-3.31 2.22-5.25-.37-3.01-.98-5.99-1.32-9.01-2.21 3.03-2.24 6.98-3.88 10.28z"/><path fill="#62615d" d="M164.91 223.26l4.49 1.41 1.36 2.49c-3.51 3.9-6.25 9.22-4.58 14.53 1.71 2.44 5.05 2.58 7.63 3.61l2.83 3.98-2.65 1.21c-1.99-1.01-4.11-1.78-6.37-1.82-1.4-.99-3.63-1.59-3.82-3.56l-1.85-10.02c3.31-3.31 1.17-7.97 2.96-11.83z"/><path fill="#4b4d4d" d="M169.4 224.67c6.51 1.31 13.58-1.71 19.72 2.01-5.93-.55-11.95 2.56-14.39 8.07-.99 3.41-.71 7.03-.92 10.55-2.58-1.03-5.92-1.17-7.63-3.61-1.67-5.31 1.07-10.63 4.58-14.53l-1.36-2.49z"/><path fill="#141515" opacity=".64" d="M155.64 229.79c.31-1.29 1.19-2.3 2.31-2.98.81 1.51-.67 3.37-2.31 2.98z"/><path fill="#75766f" d="M174.73 234.75c2.44-5.51 8.46-8.62 14.39-8.07 4.7 2.15 9.28 4.56 14.03 6.59 1.26.58 2.5 1.21 3.74 1.84.5 6.13 3.25 11.88 3.01 18.11l-2.1-1.35c-.68-4.43-.86-9.14-3.44-12.99l-2.4 5.04c-.58 1-1.19 1.99-1.81 2.98l-3.43-3.29 1.13-3.33-3.95 2.5 3.14-5.51-2.07.3c-2.58 3.76-6.83 6.09-8.88 10.23-.87 3.3-.31 6.71-.19 10.06-1.66-.07-3.29-.41-4.9-.79l-.65-5.42-2.43-.52c.15 3.79 3.04 6.74 3.16 10.57 2.58 2.75 6.61 3.7 9.92 5.41 1.42.67 2.81 1.4 4.2 2.16 3.68 2.88 7.41 5.94 9.73 10.09-2.52-.66-4.94-1.67-7.03-3.24-2.1-1.43-4.34-2.64-6.66-3.66-2.37 2.43-5.69 1.64-8.59.84l-4.61-1.88 3.33-1.81c-1.87-1.08-3.82-2.02-5.81-2.83.61-2.19 1.59-4.27 2.06-6.5-.67-1.16-1.69-2.05-2.52-3.08-.3-.38-.92-1.12-1.22-1.49-.81-.81-1.75-1.46-2.69-2.08-1.41-1.49-2.45-3.27-3.57-4.96 2.26.04 4.38.81 6.37 1.82l2.65-1.21-2.83-3.98c.21-3.52-.07-7.14.92-10.55m2.39 11.32c1.83 2.18 3.89 4.36 6.74 5.12.17-3.29.08-6.59-.1-9.87l-2.75.25c.35-1.94.68-3.89.95-5.84-2.18 3.16-3.32 6.85-4.84 10.34z"/><path fill="#524d47" d="M232.4 235.42c2.85-2.59 5.34-6.47 9.57-6.66 6.77-.69 13.61 1.17 19.51 4.45-1.2.71-2.51 1.36-3.94 1.03-5.57-.88-11.44.18-16.38 2.89-3.6 2.76-7.74 5.91-8.06 10.83l-2.44 2.98c-.92-.66-2.14-1.02-2.73-2.04-.46-4.82.68-10.17 4.47-13.48z"/><path fill="#818379" d="M293.95 235.75c-.06-2.4.24-4.79.81-7.12l5.2 3.61c3.12 2.33 6.89 4.52 8.02 8.53-3.3 6.17-5.74 13.18-4.69 20.26-4.58 1.51-9.34 2.57-14.16 2.97.37-2.1.8-4.18 1.44-6.2 3.04.78 6.57 2.08 9.46.15 1.58-1.05 1.35-3.19 1.48-4.84-.07-3.88.15-7.87-1.02-11.61-1.3-2.72-4.19-4.1-6.54-5.75z"/><path fill="#626363" d="M299.96 232.24c4.21.04 8.9-.32 12.1 2.99l1.09.81 2.2-3.2c2.01.56 3.95 1.36 5.82 2.31.96 3.79-2.85 6.08-3.26 9.59-.95 5.63-2.52 11.14-3.5 16.77-.25.23-.75.71-.99.94-1.37-.37-2.73-.72-4.11-.98 2.21-5.68 3.35-11.69 4.74-17.61.79-2.67-1.19-4.99-2.24-7.26-.46 1.47-.9 2.94-1.24 4.44l-.71-4.39-1.88 4.12c-1.13-4.01-4.9-6.2-8.02-8.53z"/><path fill="#4e504f" d="M312.06 235.23c1.05-1.05 1.72-2.63 3.17-3.17 5.47.57 10.55 3.46 14.02 7.71 2.31 3.04 6.38 3.19 9.75 4.27-2.17-.06-4.34.01-6.5.09l-.04 3.6-4.29.39c-.83-1.03-1.62-2.09-2.41-3.14-2.4.89-4.78 1.82-7.16 2.78-1.7 4.46-.21 10.39-4.19 13.75.98-5.63 2.55-11.14 3.5-16.77.41-3.51 4.22-5.8 3.26-9.59-1.87-.95-3.81-1.75-5.82-2.31l-2.2 3.2-1.09-.81z"/><path fill="#313233" d="M152.69 244.23c1.64-3.3 1.67-7.25 3.88-10.28.34 3.02.95 6 1.32 9.01-.16 1.94-1.38 3.56-2.22 5.25-1.27-1.11-2.16-2.54-2.98-3.98z"/><path fill="#5e5d5a" d="M177.12 246.07c1.52-3.49 2.66-7.18 4.84-10.34-.27 1.95-.6 3.9-.95 5.84l2.75-.25c.18 3.28.27 6.58.1 9.87-2.85-.76-4.91-2.94-6.74-5.12z"/><path fill="#93958c" d="M293.95 235.75c2.35 1.65 5.24 3.03 6.54 5.75 1.17 3.74.95 7.73 1.02 11.61-.13 1.65.1 3.79-1.48 4.84-2.89 1.93-6.42.63-9.46-.15 1.1-3.45 2.29-6.91 2.75-10.51.6-3.82.67-7.69.63-11.54z"/><path fill="#4a4a4a" d="M307.98 240.77l1.88-4.12.71 4.39.11.73c-3.24 3.79-4.69 8.82-4.71 13.74.63.89 1.43 1.63 2.2 2.4-.63 1.1-1.31 2.17-1.98 3.24 1.04.09 2.08.18 3.12.32 1.38.26 2.74.61 4.11.98-1.21 1.57-3.71 1.67-4.48 3.54 1.41 1.9 4.06 1.34 6.12 1.69-.88 2.34-2.79 3.94-4.75 5.36 2.5.3 5.28.21 7.33 1.94-3.45 2.3-7.61 2.77-11.63 3.07-2.1-1.66-2.78-4.18-2.75-6.75l-3.11-.1c-.2 2.48.08 5 1.6 7.06l-2.23.2c-.86 1.97-1.7 3.95-2.46 5.96 2.47-.11 4.95-.34 7.33-1.06l-2.62 1.51c-1.46.16-2.92.25-4.38.36l-1.57 7.06-3.23.48.96-2.97.16-.43.89-2.24-.83-3.05c1.38-2.08 2.12-4.48 2.83-6.85 3.36-1.78 1.34-5.88.97-8.77l6.26-1.69c-.15-1.92-.33-3.83-.54-5.74-1.05-7.08 1.39-14.09 4.69-20.26z"/><path d="M310.57 241.04c.34-1.5.78-2.97 1.24-4.44 1.05 2.27 3.03 4.59 2.24 7.26-1.39 5.92-2.53 11.93-4.74 17.61-1.04-.14-2.08-.23-3.12-.32l1.98-3.24c1.48-5.19 3.67-10.69 2.51-16.14l-.11-.73zm52.08 20.65c1.34-.84 2.38.61 3.47 1.19-.77 2.84-3.45 3.93-5.86 5.08l-1.2-.91c1.15-1.79 1.8-4.12 3.59-5.36z" fill="#908f93"/><path fill="#8f8a82" d="M204.36 238.88c2.58 3.85 2.76 8.56 3.44 12.99l2.1 1.35c3.34 3.01 5.57 6.97 8.61 10.25 1.8 1.91 3.46 3.97 4.66 6.33-5.67-2.16-9.86-6.76-13.9-11.09-3.81-4.14-5.1-9.77-7.31-14.79.84-1.66 1.59-3.36 2.4-5.04z"/><path fill="#767676" d="M250.09 240.3c2.8 1.29 5.75 2.2 8.71 3.05 1.03-.62 2.04-1.28 3.15-1.75 1.74.02 3.03 1.37 4.44 2.21l-4.1 1.93c1.67 2.19 3.75 4.4 3.48 7.38-6.91-.5-12.38-5.03-18.69-7.31 1.29 2.27 3.53 4.3 3.53 7.08.29 1.51-.26 3.41 1.02 4.55 2.13 2 4.62 3.76 7.46 4.59 1.85.11 3.57-.76 5.31-1.26.85.56 1.69 1.13 2.5 1.74-1.47.84-2.93 1.75-4.12 2.97-.62 1.15-1.19 2.32-1.76 3.5-2.74.13-5.69-.19-7.68-2.31-3.94-3.79-8.69-6.68-12.23-10.88-1.22-1.55-2.42-3.14-3.24-4.94.01-1.56 1.11-2.84 1.71-4.22l-.6-2.14c2.42-.72 4.92-1.54 7.48-1.31 2.34.49 4.38 1.83 6.53 2.82-.92-1.93-1.88-3.83-2.9-5.7m-8.12 7.8c.65 1.83 1.88 3.34 3.2 4.74l3.65-2.1c-.78-1.35-1.76-2.58-2.85-3.68l-4 1.04z"/><path fill="#605d58" d="M310.68 241.77c1.16 5.45-1.03 10.95-2.51 16.14-.77-.77-1.57-1.51-2.2-2.4.02-4.92 1.47-9.95 4.71-13.74z"/><path fill="#6d6b64" d="M151.05 245.97c.24-.86.79-1.44 1.64-1.74.82 1.44 1.71 2.87 2.98 3.98 3.69 2.31 8.05 2.93 12.31 3.22-1.32.89-2.67 1.75-4.04 2.56-2.28-1.32-4.81-2.16-7.47-1.84-1.94-1.92-4.56-3.45-5.42-6.18z"/><path fill="#585852" d="M292.09 243.73l1.23 3.56c-.46 3.6-1.65 7.06-2.75 10.51-.64 2.02-1.07 4.1-1.44 6.2 4.82-.4 9.58-1.46 14.16-2.97.21 1.91.39 3.82.54 5.74l-6.26 1.69c.37 2.89 2.39 6.99-.97 8.77-2.23-.88-4.48-1.68-6.71-2.53-.01-3.28-2.76-4.82-5.63-5.38l-1.93 1.61c-.68-1.42-1.43-2.8-2.17-4.18l.28-3.08c1.73.32 3.31 1.1 4.81 2l-.79-3.3c2.17-1.92 4.49-4 4.81-7.07.82-3.89 1.95-7.7 2.82-11.57z"/><path fill="#5f5e5a" d="M332.5 244.13l6.5-.09 5.14.94-2.37 2.08-.61.56c1.53 2.4 3.89 4.19 5.05 6.83-2.44.63-5.47.43-7.16 2.63-2.96 3.44-4.61 7.88-4.93 12.39l4.11.96-2.5 1.78.19 3.93c2.55-.33 4.33-2.16 5.94-3.99 1.76 2.44 4.9 2.07 7.51 2.67 1.5.82 2.55 2.22 3.74 3.41l15.88.65c1.73.18 3.18-.84 4.63-1.64 4.85 2.54 10.42.98 15.6.92 8.7.7 17.38-.56 26.08-.39-11.06 2.18-22.47.85-33.66 1.81-1.49.1-2.99.14-4.47.19-8.59.56-17.17 1.15-25.78 1.06l-1.21-2-.49-2.97c-2.3-.5-4.63-.41-6.94-.11-.3 2.94-.18 5.89.18 8.82l-1.34.69c-.26-1.98-.45-3.97-.95-5.91-1.61-1.07-3.64-1.12-5.47-1.47.14-3.07-.19-6.19-2.14-8.69-.62-5.96-.76-11.95-.72-17.94.1-1.91-2.4-1.78-3.59-2.63l-.55-.5 4.29-.39.04-3.6z"/><path fill="#908e87" d="M233.84 247.33c1.53-1.24 3.3-2.14 5.14-2.84l.6 2.14c-.6 1.38-1.7 2.66-1.71 4.22.82 1.8 2.02 3.39 3.24 4.94l-2.37-.3c.98 3.99 2.9 7.71 3.34 11.84 1.27 1.85 3.27 3.04 4.65 4.8.33 1.85.25 3.76.66 5.6.54 2.12.61 4.88 2.88 5.96 4.09 2.18 8.97 2.46 12.79 5.22-5.14-1.27-10.44-.87-15.64-1.4-5.79-2.34-11.68-5.35-15.77-10.21-3.03-3.14-2.05-7.79-2.23-11.73-.21-5.49 4.01-9.63 5.59-14.6a23.38 23.38 0 0 0-1.17-3.64z"/><path d="M318.6 247.76l7.16-2.78 2.41 3.14.55.5c.01 2.72.58 5.66-.74 8.19-1.35 2.5-3.22 4.65-4.87 6.95l4.34 2.46-3.57 3.75 2.23 2.44c-2.98.22-5.77 1.4-8.47 2.57-2.05-1.73-4.83-1.64-7.33-1.94 1.96-1.42 3.87-3.02 4.75-5.36-2.06-.35-4.71.21-6.12-1.69.77-1.87 3.27-1.97 4.48-3.54l.99-.94c3.98-3.36 2.49-9.29 4.19-13.75zm-81.51 51.58l3.66 2.19.74.44c-.36 6.11-7.19 8-12.21 8.74-3.65.78-7.1-1.82-10.72-.7-2.53.49-5.15.21-7.48-.88 2.01-.11 4.62.82 6.09-1.03 1.03-1.47 1.31-3.3 1.83-4.98l5.76 1.77.77 3.02c5.12.53 10.79-3.33 11.56-8.57z" fill="#3d3b3a"/><path fill="#414242" d="M344.14 244.98l8.06.87-3.26.19-1.54.05 1.95 6.84-2.71-.74c-.96-2.26-2.97-3.72-4.87-5.13l2.37-2.08z"/><path fill="#76726f" d="M347.4 246.09l1.54-.05c1.39 3.98 2.46 8.07 3.84 12.05 2.91.01 4.01-2.76 5.38-4.84 5.06.67 7.72 5.83 9.29 10.15 1.1 2.76-1.71 4.17-3.79 5.06l.97 2.74c-1.49-1.05-2.93-2.15-4.37-3.24 2.41-1.15 5.09-2.24 5.86-5.08-1.09-.58-2.13-2.03-3.47-1.19-1.79 1.24-2.44 3.57-3.59 5.36-5.12-3.98-10.99-8.09-12.42-14.86l2.71.74c-.59-2.3-1.24-4.58-1.95-6.84z"/><path fill="#505251" d="M348.94 246.04l3.26-.19c6.64.28 12.16 4.9 16.27 9.74 3.6 4.21 4.42 10.37 1.63 15.24l-2.53 2.35-2.94-1.98-.97-2.74c2.08-.89 4.89-2.3 3.79-5.06-1.57-4.32-4.23-9.48-9.29-10.15-1.37 2.08-2.47 4.85-5.38 4.84-1.38-3.98-2.45-8.07-3.84-12.05z"/><path fill="#acb0ac" d="M241.97 248.1l4-1.04c1.09 1.1 2.07 2.33 2.85 3.68l-3.65 2.1c-1.32-1.4-2.55-2.91-3.2-4.74z"/><path fill="#e9b796" d="M341.16 247.62l.61-.56c1.9 1.41 3.91 2.87 4.87 5.13 1.43 6.77 7.3 10.88 12.42 14.86l1.2.91 4.37 3.24c.96.67 1.94 1.32 2.94 1.98l6.05 4.06c-1.45.8-2.9 1.82-4.63 1.64-5.3-.09-10.59-.36-15.88-.65-1.19-1.19-2.24-2.59-3.74-3.41-2.61-.6-5.75-.23-7.51-2.67-1-.97-2.34-1.37-3.63-1.72-1.37-.35-2.75-.65-4.11-.96.32-4.51 1.97-8.95 4.93-12.39 1.69-2.2 4.72-2 7.16-2.63-1.16-2.64-3.52-4.43-5.05-6.83z"/><path fill="#494a4b" d="M186.09 247.8l2.68 4.02.21.43 4.06-.36c1.82 1.22 3.74 2.34 5.4 3.79.83 3.6-1.77 7.48-.36 11.04 2.09 2.58 4.64 4.73 6.78 7.27 2.4 2.65 5.02 5.12 7.22 7.96l-7.15-2.59c-2.32-4.15-6.05-7.21-9.73-10.09 2.26-.78 2.2-3.79.86-5.37-1.7-2.26-3.89-4.14-6.25-5.68-.76-.64-1.74-.73-2.64-.39 1.93 2.8 4.3 5.62 3.83 9.28-3.31-1.71-7.34-2.66-9.92-5.41-.12-3.83-3.01-6.78-3.16-10.57l2.43.52.65 5.42c1.61.38 3.24.72 4.9.79-.12-3.35-.68-6.76.19-10.06z"/><path fill="#7b7976" d="M188.91 247.72c2.72-.03 4.34 2.16 5.87 4.07l-1.74.1-4.06.36-.21-.43.14-4.1z"/><path fill="#767675" d="M274.08 249.27c2.57.68 5.25.51 7.86.88 1.43.9 2.27 2.45 3.29 3.76l-1.81 3.65c-.97 1.66.61 3.24 1.04 4.81l.79 3.3c-1.5-.9-3.08-1.68-4.81-2-2.54-1.74-4.36-4.27-5.59-7.07l5.66 3.11c-.18-4.37-3.25-7.78-6.43-10.44z"/><path fill="#4d4946" d="M328.72 248.62c1.19.85 3.69.72 3.59 2.63-.04 5.99.1 11.98.72 17.94-1.29 1.32-2.51 2.7-3.67 4.14l-3.25-.92a85.94 85.94 0 0 1-2.23-2.44l3.57-3.75-4.34-2.46c1.65-2.3 3.52-4.45 4.87-6.95 1.32-2.53.75-5.47.74-8.19z"/><path fill="#3c3c3d" d="M167.89 253.34l3.3.29c.94.62 1.88 1.27 2.69 2.08-2.04 2.3-4.69 4.21-6.07 7.01-1.18 4.23-2.01 8.56-3.49 12.71-2.21 1.51-4.92 1.48-7.45.97 1.86-.05 3.71-.27 5.56-.5-2.54-1.98-5.95-1.4-8.94-1.55-3.58-2.64-5.33-6.95-6.15-11.18-.04-1.89-.08-3.78-.27-5.66l3.02 1.52c.16 2.49.46 5.02 1.74 7.22.89 1.92 1.76 4.18 3.94 4.95 2.33.8 4.84.82 7.27 1.03l1.4-9.05c1-3.33 2.01-6.72 3.45-9.84z"/><path fill="#9c9a90" d="M238.74 255.49l2.37.3c3.54 4.2 8.29 7.09 12.23 10.88 1.99 2.12 4.94 2.44 7.68 2.31.57-1.18 1.14-2.35 1.76-3.5 1.87.67 4.81-.01 5.67 2.25.96 1.77.51 4.04-1.2 5.16-2.16.26-4.46-.3-6.47.73-2.49 1.08-4.45 3.01-6.33 4.91l5.47 3.28-2.94.36c-3.12-1.64-6.29-3.19-9.59-4.44-.41-1.84-.33-3.75-.66-5.6-1.38-1.76-3.38-2.95-4.65-4.8-.44-4.13-2.36-7.85-3.34-11.84z"/><path fill="#28292a" d="M167.81 262.72c1.38-2.8 4.03-4.71 6.07-7.01l1.22 1.49c-4.27 1.67-3.52 6.76-4.63 10.38-.73 3.42-3.08 6.23-6.15 7.85 1.48-4.15 2.31-8.48 3.49-12.71z"/><path fill="#6e6a68" d="M153.41 258.43c.89-1.31 2.42-.33 3.62-.12l3.06-1.43 1.74 1.27-1.3 2.11-.2.19-2.9 1.8c2.07 1.08 4.22-.21 6.28-.66l.73 1.59-1.4 9.05c-2.43-.21-4.94-.23-7.27-1.03-2.18-.77-3.05-3.03-3.94-4.95.49-2.57-.18-5.69 1.58-7.82m2.83 6.02l-.18 4.33 3.76 2.1c1.46-1.84 3.76-3.98 1.97-6.37l-5.55-.06z"/><path fill="#2d2f30" d="M187.17 257.83c.9-.34 1.88-.25 2.64.39 2.36 1.54 4.55 3.42 6.25 5.68 1.34 1.58 1.4 4.59-.86 5.37l-4.2-2.16c.47-3.66-1.9-6.48-3.83-9.28z"/><path opacity=".11" d="M273.45 306.72l3.95 2.74c-3.74.7-7.55.85-11.32.29l1.19-1 2.93-.46a4.15 4.15 0 0 0 3.25-1.57z"/><path fill="#81827a" d="M206.26 259.4c4.73 5.01 10.62 8.54 16.01 12.73-.36 2.99-1.02 5.94-1.29 8.94.07 2.57.95 5.02 1.49 7.51l-3.87 5.07c-2.24-2.2-4.16-4.69-6.21-7.06-.8-1.18-2.15-1.61-3.52-1.61-.09 2.98 1.66 5.45 3.03 7.94-1.99-1.93-3.79-4.12-6.12-5.65-2.29-1.26-4.76-2.15-7.11-3.29.6-2.66.53-5.42-.77-7.86 2.09 1.57 4.51 2.58 7.03 3.24 2.41.8 4.76 1.76 7.15 2.59-2.2-2.84-4.82-5.31-7.22-7.96-1.75-4.86.23-9.85 1.4-14.59z"/><path fill="#d5d1d5" d="M160.33 260.45l.2-.19-.2.19z"/><path fill="#8a887f" d="M262.78 265.48c1.19-1.22 2.65-2.13 4.12-2.97l.67.58c2.11 2.45 5.31 3.21 8.24 4.26-.43 3.46-.67 7.14 1.86 9.91-2.89 1-7.68.25-8.59 3.96-.91 2.79 2.52 3.21 4.36 3.91-.61 3.34-2.07 6.42-4.07 9.14l-.1-2.09c.59-1.76 1.23-3.5 1.87-5.24l-2.25-.88c-4.15-.66-8.26-1.71-11.91-3.89l2.94-.36-5.47-3.28c1.88-1.9 3.84-3.83 6.33-4.91 2.01-1.03 4.31-.47 6.47-.73 1.71-1.12 2.16-3.39 1.2-5.16-.86-2.26-3.8-1.58-5.67-2.25z"/><path fill="#7d7b73" d="M267.57 263.09c4.5-.13 8.77 1.36 12.59 3.66.74 1.38 1.49 2.76 2.17 4.18-.1 2.53-.09 5.14-.93 7.56-1.59 1.89-3.7 3.2-5.61 4.72-.8.62-1.58 1.26-2.35 1.92-1.84-.7-5.27-1.12-4.36-3.91.91-3.71 5.7-2.96 8.59-3.96-2.53-2.77-2.29-6.45-1.86-9.91-2.93-1.05-6.13-1.81-8.24-4.26z"/><path fill="#818185" d="M156.24 264.45l5.55.06c1.79 2.39-.51 4.53-1.97 6.37l-3.76-2.1.18-4.33z"/><path fill="#434444" d="M175.56 266.78c1.99.81 3.94 1.75 5.81 2.83l-3.33 1.81 4.61 1.88 4.28 5.6-5.03-.87-3.74-4.35c-1.62-1.95-2.78-4.3-2.6-6.9z"/><path fill="#62647a" d="M284.26 269.32c2.87.56 5.62 2.1 5.63 5.38l6.71 2.53c-.71 2.37-1.45 4.77-2.83 6.85l.83 3.05-.89 2.24-.16.43-.96 2.97-1.51.27-2.84.58c.29 1.59.9 3.09 1.68 4.51-1.97 2.24-3.85 6.59-7.48 4.63l-.5 2.68-4.12-2.46 1.23 5.43c-2.38-1.37-4.58-3.03-6.34-5.16 1.73-1.42 3.53-2.74 5.43-3.92 1.88.46 3.79.81 5.71 1.04l-2.65-3.19a24.21 24.21 0 0 0 3.16-4.17l-2.35-.81c.32-2.48.49-4.97.52-7.46l-6.74-1.53c1.91-1.52 4.02-2.83 5.61-4.72.84-2.42.83-5.03.93-7.56l1.93-1.61m2.05 30.97c.54.54.54.54 0 0z"/><path fill="#202226" d="M329.36 273.33l3.67-4.14c1.95 2.5 2.28 5.62 2.14 8.69-3.87-.26-6.92 2.17-10.27 3.61-5.26-.34-10.52.02-15.78.03-2.37-1.26-4.72-2.65-7.37-3.26l4.26-.21c4.02-.3 8.18-.77 11.63-3.07 2.7-1.17 5.49-2.35 8.47-2.57l3.25.92z"/><path fill="#69696d" d="M300.15 271.2l3.11.1c-.03 2.57.65 5.09 2.75 6.75l-4.26.21c-1.52-2.06-1.8-4.58-1.6-7.06z"/><path fill="#bfc0cc" d="M335.73 272.21l2.5-1.78c1.29.35 2.63.75 3.63 1.72-1.61 1.83-3.39 3.66-5.94 3.99l-.19-3.93z"/><path opacity=".77" d="M367.57 273.18l2.53-2.35c2.84-.03 5.68.12 8.51.42l1.58 5.88c3.07-.38 6.21-.43 9.03 1.03-5.18.06-10.75 1.62-15.6-.92l-6.05-4.06zm-113.04 36.34c3.31-3.95 8.48-.62 12.74-.77l-1.19 1c3.77.56 7.58.41 11.32-.29l1.5.07c3.45.29 6.9.62 10.37.55-8.38 1.02-16.84.34-25.25.47-3.19-.05-6.38-.32-9.49-1.03z"/><path fill="#696665" opacity=".93" d="M153.49 274.35c2.99.15 6.4-.43 8.94 1.55l-5.56.5c-1.19-.59-2.3-1.31-3.38-2.05z"/><path fill="#2b2c2e" d="M226.26 288.62c-3.5-3.92-4.55-10.19-1.82-14.78.71 5.26 1.55 11.01 5.86 14.66 1.37 1.29 2.35 2.9 2.53 4.81-3.17.5-4.8-2.68-6.57-4.69z"/><path fill="#d4d3e1" d="M342.75 275.75c2.31-.3 4.64-.39 6.94.11l.49 2.97.52 5.9-7.77-.16c-.36-2.93-.48-5.88-.18-8.82z"/><path fill="#272827" d="M181.9 278.03l5.03.87.89 1.16 5.03 6.84-2.13 2.47c-3.15-3.62-6.04-7.44-8.82-11.34z"/><path fill="#010101" opacity=".78" d="M299.52 278.46l2.23-.2c2.65.61 5 2 7.37 3.26l-4.73 1.84c-2.38.72-4.86.95-7.33 1.06l2.46-5.96z"/><path fill="#88898c" d="M324.9 281.49c3.35-1.44 6.4-3.87 10.27-3.61 1.83.35 3.86.4 5.47 1.47.5 1.94.69 3.93.95 5.91l-3.93 1.98-2.19-.37c-1.95-.55-3.96-.62-5.85.17l-.73-.04c-.53-2.05-1.48-4.01-3.38-5.08l-.61-.43m5.3-2.31c-1.21 1.43 1.47 2.49 2.3 1.27 1.2-1.44-1.48-2.5-2.3-1.27z"/><path fill="#babbc4" d="M415.3 277.77l9.73-.32-.63 5.18-1.63.75c-13.62.14-27.21 1.23-40.82 1.37l-.31-5.17c11.19-.96 22.6.37 33.66-1.81z"/><path fill="#3e404d" d="M425.03 277.45l4.09.03c.52 2.73.77 5.52.91 8.3l-4.72-1.08-2.54-1.32 1.63-.75.63-5.18z"/><path fill="#bfc0c6" d="M330.2 279.18c.82-1.23 3.5-.17 2.3 1.27-.83 1.22-3.51.16-2.3-1.27z"/><path fill="#b5b6bf" d="M350.18 278.83l1.21 2c8.61.09 17.19-.5 25.78-1.06l.44 2.71c-8.25 1.51-16.63.53-24.94 1.2l-1.21 2.57-.76-1.52c-.32-1.95-.39-3.93-.52-5.9z"/><path fill="#393a39" d="M187.82 280.06l5.55 4.55c3.43 2.93 4.17 7.68 6.81 11.19 2.99 4.09 5.55 8.48 8.71 12.45-1.73-.63-3.94-.47-5.17-2.03-2.57-3.02-4.83-6.3-7.49-9.25-1.83-2.54-3.54-5.17-5.51-7.6l2.13-2.47c-1.83-2.17-3.46-4.48-5.03-6.84z"/><path fill="#cac9d2" d="M377.17 279.77l4.47-.19.31 5.17c-10.16.69-20.33.97-30.49 1.5l1.21-2.57c8.31-.67 16.69.31 24.94-1.2l-.44-2.71z"/><path fill="#7f8279" d="M309.12 281.52c5.26-.01 10.52-.37 15.78-.03l.61.43c-4.15.89-8.41.92-12.63 1.1l.11 4.86c5.31-.01 10.63-.21 15.9-.88l.11 1.83c-5.79-.31-11.6.11-17.31 1.06l-.48 2.83c2.18 1.44 6.32 2.07 6.76-1.45 2.89-.22 5.48 1.1 8.03 2.26l-3.17 1.41c3.79.47 7.61.51 11.42.45-7.66.88-15.37 1.26-23.07 1.15-2.46-.04-4.91.24-7.31.74 4.91 2.85 10.94 2.09 16.21.82 6.49-.73 13.1-.75 19.61-.06l.62.82c-4.32.3-8.63.69-12.88 1.55-3.77.84-7.52-.47-11.29-.51-2.59.71-4.76 2.41-7.07 3.72-2.54-1.89-5.39-3.37-8.53-3.89-3.27-1.32-5.27 1.89-7.44 3.67l-4.08-.38c.8-.89 1.62-1.76 2.47-2.61 1.44-1.37 2.77-2.86 3.95-4.47 2.43.92 4.96.58 7.31-.44-.67-3.5-1.26-7.06-.98-10.63l2.62-1.51c1.55-.68 3.12-1.3 4.73-1.84m-3.02 2.72c-.67 2.56-.27 5.19.14 7.76 1.74-.75 3.86-1.35 4.81-3.15.43-1.56-.06-3.17-.19-4.73l-4.76.12z"/><path fill="#bfbec8" d="M312.88 283.02c4.22-.18 8.48-.21 12.63-1.1 1.9 1.07 2.85 3.03 3.38 5.08-5.27.67-10.59.87-15.9.88l-.11-4.86z"/><path fill="#5b5958" d="M273.44 285.13l2.35-1.92 6.74 1.53c-.03 2.49-.2 4.98-.52 7.46l2.35.81a24.21 24.21 0 0 1-3.16 4.17l2.65 3.19c-1.92-.23-3.83-.58-5.71-1.04-1.9 1.18-3.7 2.5-5.43 3.92 1.76 2.13 3.96 3.79 6.34 5.16l2.89-2.97.5-2.68c3.63 1.96 5.51-2.39 7.48-4.63l1.57 2.28-2.47 2.61 4.08.38c-2.91 1.11-6.19 1.17-8.84 2.91l-5.36 3.22-1.5-.07-3.95-2.74c-1.2-1.59-3.91-.43-3.25 1.57l-2.93.46c-4.26.15-9.43-3.18-12.74.77-4.05-.61-8.58-3.17-12.39-.37-2.33.9-1.81 3.74-2.12 5.72 2.97.1 5.96-.09 8.88-.66l-.17 1.81c-.39 4.19.75 8.29 1.38 12.39-3.57.19-7.07-.58-10.58-1.06l-.44 4.91-3 .06c.13-1.79 1.29-4.63-1.04-5.44-2.21-1.4-4.57.28-6.69 1l2.02-4.39c-1.74-1.96-3.46-3.94-5.41-5.7 4.09-2.16 8.78-3.44 12.15-6.76-3.09.04-6.1.75-9.16 1.05-2.8.02-5.59-.42-8.39-.33l-1.01-1.74c3.62-1.12 7.07 1.48 10.72.7 5.02-.74 11.85-2.63 12.21-8.74 3.09 1.77 6.75 1.9 10.22 1.82-2.13-2.34-3.48-5.93-1.14-8.65l-4.39-.31-.14-2.72c4.11 2.4 10.06 1.41 13.1 5.41-2.09.19-4.16-.08-6.22-.35l.62 3.35c2.63 1.51 5.39 2.85 8.38 3.47 2.1-.14 4.17-.52 6.23-.95-.99-1.06-2.01-2.08-3.02-3.12 1.77-1.58 3.28-3.46 4.24-5.65 2-2.72 3.46-5.8 4.07-9.14z"/><path fill="#878b7f" d="M381.95 284.75c13.61-.14 27.2-1.23 40.82-1.37l2.54 1.32c-8.42.82-16.89.14-25.3 1.16-4.34.69-9.32-.76-13.17 1.72 2.55.06 5.11-.11 7.66-.29l.12 3.81c2.64.19 5.2-.53 6.59-2.94l1.82 2.49c-1.89 1.07-.75 2.92.76 3.63 3.14 1.35 7.17.7 9.43 3.71-6.56-.56-13.19 1.55-19.63-.3-2.64-.76-4.76 1.39-6.65 2.88l-2.11-1.05c-1.4-.27-2.8-.47-4.19-.66l.71-2.74c4.67-.53 10.11.71 13.9-2.8-4.09-.59-8.23-.6-12.35-.47l1.61-.94-.36-1.15c-.51-1.48-1.07-2.93-1.62-4.38-3.85.13-7.68.5-11.52.68-6.21.33-12.48-.26-18.62.94l-.93-1.75 30.49-1.5z"/><path fill="#a7ae97" d="M430.03 285.78l3.59-2.2.87.54-2.33 1.23-.57 4.58c-3.69-1.34-7.79-.79-10.75 1.85l5.22.77c-3.09 3.53-8.17 1.75-12.26 2.33l1.74 2.57 3.99-.07-.39 2.15-4.5.2c-7.78-.02-15.51.85-23.24 1.55-1.51-.16-2.99-.4-4.46-.71 1.89-1.49 4.01-3.64 6.65-2.88 6.44 1.85 13.07-.26 19.63.3-2.26-3.01-6.29-2.36-9.43-3.71 5.24-.47 12.29.36 15.42-4.88-5.33 1.05-10.74 1.66-16.18 1.25l-1.82-2.49c-1.39 2.41-3.95 3.13-6.59 2.94l-.12-3.81c-2.55.18-5.11.35-7.66.29 3.85-2.48 8.83-1.03 13.17-1.72 8.41-1.02 16.88-.34 25.3-1.16l4.72 1.08z"/><path fill="#4c4747" d="M231.17 284.09c4.54 3.37 9.7 5.79 14.87 8.02l.14 2.72-7.05-.66 1.41 1.85c-.02 1.97-3.08 3.14-3.56.81-.53-2.07-1.74-3.91-4.15-3.52-.18-1.91-1.16-3.52-2.53-4.81 1.27-1.15.89-2.9.87-4.41z"/><path fill="#92e2f8" d="M306.1 284.24l4.76-.12c.13 1.56.62 3.17.19 4.73-.95 1.8-3.07 2.4-4.81 3.15-.41-2.57-.81-5.2-.14-7.76m3.11 1.13c-1.67.19-2.1 3.32-.26 3.58 1.69-.17 2.03-3.32.26-3.58z"/><path fill="#fffffd" d="M432.16 285.35l2.33-1.23c3.38 2.61 7.95 1.67 11.84 2.91-2.91 3.01-8.01 1.48-11.23 4.26l-1.79.06-1.72-1.42.57-4.58z"/><path fill="#a6a7ae" d="M297.39 285.23l4.38-.36c-.28 3.57.31 7.13.98 10.63-2.35 1.02-4.88 1.36-7.31.44-1.18 1.61-2.51 3.1-3.95 4.47l-1.57-2.28c1.42-.55 3.89-.06 3.99-2.15-.76-1.15-1.84-2.02-2.83-2.94l1.51-.27c1.07-.18 2.15-.33 3.23-.48l1.57-7.06z"/><path fill="#edffff" d="M309.21 285.37c1.77.26 1.43 3.41-.26 3.58-1.84-.26-1.41-3.39.26-3.58z"/><path fill="#42403f" d="M341.59 285.26l1.34-.69c2.59-.08 5.18.03 7.77.16l.76 1.52.93 1.75c-4.66.94-9.45.87-14.15 1.57l-.58-2.33 3.93-1.98z"/><path fill="#404143" d="M268.89 286.06l2.25.88-1.87 5.24-2.66 2.27c-.35-2.4-.29-4.82.13-7.2l2.15-1.19z"/><path d="M329.62 287.04c1.89-.79 3.9-.72 5.85-.17-1.94.34-3.9.5-5.85.17zm67.1 15.47l6.45-.45-.8 2.88c-2.31.51-5.04.34-5.65-2.43z" fill="#f5f4fb"/><path fill="#adb4a0" d="M371.01 287.06l11.52-.68 1.62 4.38c-8.38.57-16.78.59-25.15 1.16-3.16.26-6.32-.02-9.43-.53-3.57-.62-7.1.47-10.6 1.03l-.73-2.85c4.7-.7 9.49-.63 14.15-1.57 6.14-1.2 12.41-.61 18.62-.94z"/><path fill="#6f7170" d="M328.89 287l.73.04c1.95.33 3.91.17 5.85-.17l2.19.37.58 2.33.73 2.85c3.5-.56 7.03-1.65 10.6-1.03 3.11.51 6.27.79 9.43.53 8.37-.57 16.77-.59 25.15-1.16l.36 1.15-1.61.94c-16.24.4-32.43 1.77-48.65 2.54-3.81.06-7.63.02-11.42-.45l3.17-1.41c3.37.02 7.23.14 9.68-2.64-2.06-1.16-4.37-1.7-6.68-2.06l-.11-1.83z"/><path fill="#fff" d="M293.55 289.8l.16-.43-.16.43z"/><path fill="#969b8e" d="M311.69 289.89c5.71-.95 11.52-1.37 17.31-1.06 2.31.36 4.62.9 6.68 2.06-2.45 2.78-6.31 2.66-9.68 2.64-2.55-1.16-5.14-2.48-8.03-2.26-.44 3.52-4.58 2.89-6.76 1.45l.48-2.83z"/><path fill="#6b6a6f" d="M403.03 290.65c5.44.41 10.85-.2 16.18-1.25-3.13 5.24-10.18 4.41-15.42 4.88-1.51-.71-2.65-2.56-.76-3.63z"/><path fill="#7e8276" d="M420.84 291.78c2.96-2.64 7.06-3.19 10.75-1.85l1.72 1.42 1.79-.06a54.65 54.65 0 0 0-1.73 1.26l-3.4-1.98-3.02 4.52c-2-.51-4.32.81-3.75 3.11-1.29.63-2.62 1.21-4.06 1.33l.39-2.15-3.99.07-1.74-2.57c4.09-.58 9.17 1.2 12.26-2.33l-5.22-.77z"/><path fill="#f0edf9" d="M288.24 293.62l2.84-.58c.99.92 2.07 1.79 2.83 2.94-.1 2.09-2.57 1.6-3.99 2.15-.78-1.42-1.39-2.92-1.68-4.51z"/><path fill="#b5baa8" d="M334.25 295.39l48.65-2.54c4.12-.13 8.26-.12 12.35.47-3.79 3.51-9.23 2.27-13.9 2.8-4.31.93-8.62-.98-12.88.07-4.69 1.07-9.54.06-14.24 1.06-4.8.9-9.7.41-14.54.79-6.51-.69-13.12-.67-19.61.06-5.27 1.27-11.3 2.03-16.21-.82 2.4-.5 4.85-.78 7.31-.74 7.7.11 15.41-.27 23.07-1.15z"/><path fill="#727170" d="M239.13 294.17l7.05.66 4.39.31c-2.34 2.72-.99 6.31 1.14 8.65-3.47.08-7.13-.05-10.22-1.82l-.74-.44 1.9-2.85-2.11-2.66-1.41-1.85z"/><path fill="#797e6f" d="M368.47 296.19c4.26-1.05 8.57.86 12.88-.07l-.71 2.74c1.39.19 2.79.39 4.19.66l-1.13.47c-5.29 1.72-11.71.03-16.17 3.9-5-.09-10.03-.42-14.89-1.69-1.34-.97-2.43-2.24-3.85-3.08-2.78-.67-5.66-.1-8.48-.26l-.62-.82c4.84-.38 9.74.11 14.54-.79 4.7-1 9.55.01 14.24-1.06z"/><path fill="#d39c7d" d="M224.76 304.89c1.06-3.42 2.3-6.95 5.15-9.32l7.18 3.77c-.77 5.24-6.44 9.1-11.56 8.57l-.77-3.02z"/><path fill="#bbc4a6" d="M252.92 297.17c2.06.27 4.13.54 6.22.35 1.6.05 3.51-.77 4.76.62-.49 2-1.27 3.92-1.98 5.85-2.99-.62-5.75-1.96-8.38-3.47l-.62-3.35z"/><path fill="#3a3433" d="M293.1 303.4c2.17-1.78 4.17-4.99 7.44-3.67-1.03 2.31-2.47 4.41-4.34 6.12-3.98-.11-7.99-.07-11.94.46 2.65-1.74 5.93-1.8 8.84-2.91z"/><path fill="#585755" d="M327.43 300.41c4.25-.86 8.56-1.25 12.88-1.55-3.45 4.05-6.88 8.12-10.14 12.31-5.38 4.86-11.69 9.69-19.18 10.2-3.25-1.27-6.68-.87-10.03-.34 1.29-.7 2.56-1.45 3.83-2.19-.78-2.02-1.79-3.94-3-5.73l-4.86-.08-.62-2.89a98.67 98.67 0 0 0-3.39-.48l3.87-.74-.59-3.07c1.87-1.71 3.31-3.81 4.34-6.12 3.14.52 5.99 2 8.53 3.89 2.31-1.31 4.48-3.01 7.07-3.72 3.77.04 7.52 1.35 11.29.51m-16.19 6.72c-3.05 2.89-2.74 7.63-2.3 11.47 3.88-3.01 8.91-3.5 13.15-5.8-.04-1.8.66-4.62-1.7-5.2-2.86-1.07-6.25-1.5-9.15-.47z"/><path fill="#313231" d="M384.83 299.52l2.11 1.05 4.46.71c-.97 1.09-2.09 2.06-3.42 2.69l-3.58 1.12-7.62.62 5.9-2.59-.92-1.89 1.94-1.24 1.13-.47z"/><path fill="#d8d5e0" d="M286.31 300.29c.54.54.54.54 0 0z"/><path fill="#595a5a" d="M367.53 303.89c4.46-3.87 10.88-2.18 16.17-3.9l-1.94 1.24.92 1.89c-1.96.89-3.91 1.79-5.9 2.59l-1.92.62c.09 2.31 1.4 4.24 2.9 5.9-1-.66-2.02-1.27-3.05-1.87l-1.25-3.76-2.41-1.14c-1.17-.55-2.34-1.08-3.52-1.57m3-.97c1.27 1.97 3.69 2.18 5.82 2.3l-1.25-2.73a98.15 98.15 0 0 0-4.57.43z"/><path fill="#68686d" d="M391.4 301.28c7.73-.7 15.46-1.57 23.24-1.55.86 4.48-1.47 9.19-5.17 11.64-5.65.71-11.43-.24-16.96 1.47.87-1.42 1.76-2.82 2.68-4.2.98.54 2 1.03 3.02 1.53l.59-3.69c3.63-.91 7.35-.25 10.66 1.45 1.51-1.59 1.95-3.69 1.68-5.82-2.65-.27-5.32-.3-7.97-.05l-6.45.45c-2.94.29-5.86.8-8.74 1.46 1.33-.63 2.45-1.6 3.42-2.69z"/><path fill="#858589" d="M403.17 302.06c2.65-.25 5.32-.22 7.97.05.27 2.13-.17 4.23-1.68 5.82-3.31-1.7-7.03-2.36-10.66-1.45l-.59 3.69c-1.02-.5-2.04-.99-3.02-1.53-2.08-1.49-4.48-2.31-6.99-2.69l-3.8-.86 3.58-1.12c2.88-.66 5.8-1.17 8.74-1.46.61 2.77 3.34 2.94 5.65 2.43l.8-2.88z"/><path fill="#f3f2f5" d="M277.82 302.98l4.12 2.46c-.91 1.05-1.9 2.01-2.89 2.97l-1.23-5.43z"/><path fill="#6b6c6d" d="M376.78 305.71l7.62-.62 3.8.86c.99 3.27-.62 6.16-3.22 8.09-2.68.8-5.22.09-7.22-1.81-1.5-1.66-2.81-3.59-2.9-5.9l1.92-.62z"/><path fill="#2a1e1b" opacity=".82" d="M270.2 308.29c-.66-2 2.05-3.16 3.25-1.57a4.15 4.15 0 0 1-3.25 1.57z"/><path fill="#4f4d4e" d="M388.2 305.95c2.51.38 4.91 1.2 6.99 2.69l-2.68 4.2-7.53 1.2c2.6-1.93 4.21-4.82 3.22-8.09z"/><path fill="#444341" d="M242.14 309.15c3.81-2.8 8.34-.24 12.39.37 3.11.71 6.3.98 9.49 1.03-4.12.59-8.3.63-12.42 1.12-1.05.67-1.87 1.62-2.7 2.54-2.92.57-5.91.76-8.88.66.31-1.98-.21-4.82 2.12-5.72z"/><path fill="#666667" d="M311.24 307.13c2.9-1.03 6.29-.6 9.15.47 2.36.58 1.66 3.4 1.7 5.2-4.24 2.3-9.27 2.79-13.15 5.8-.44-3.84-.75-8.58 2.3-11.47z"/><path fill="#b88567" d="M264.02 310.55c8.41-.13 16.87.55 25.25-.47l3.65-.42a98.67 98.67 0 0 1 3.39.48l.62 2.89.19.8c-5.62-2.55-11.37.72-17.13.43-5.54-.16-11.1-1.39-16.64-.42-4.85.86-9.71 1.69-14.62 2.18.05-.45.13-1.36.17-1.81.83-.92 1.65-1.87 2.7-2.54 4.12-.49 8.3-.53 12.42-1.12z"/><path fill="#c69072" d="M219.57 311.75c2.8-.09 5.59.35 8.39.33 3.06-.3 6.07-1.01 9.16-1.05-3.37 3.32-8.06 4.6-12.15 6.76-1-.58-2.02-1.11-3.05-1.64-.69-1.51-1.52-2.96-2.35-4.4z"/><path fill="#d9a485" d="M279.99 314.26c5.76.29 11.51-2.98 17.13-.43.58 2.59 1.69 5.01 2.95 7.34-3.14.44-6.22 1.14-9.3 1.84-10.79 2.43-21.5 5.42-32.57 6.31-2.28-.15-4.56-.38-6.81-.72-.32-.04-.96-.14-1.28-.19-.63-4.1-1.77-8.2-1.38-12.39 4.91-.49 9.77-1.32 14.62-2.18 5.54-.97 11.1.26 16.64.42z"/><path fill="#706f6e" d="M296.93 313.03l4.86.08c1.21 1.79 2.22 3.71 3 5.73l-3.83 2.19-.89.14c-1.26-2.33-2.37-4.75-2.95-7.34l-.19-.8z"/><path fill="#4b4c4b" d="M221.92 316.15l3.05 1.64c1.95 1.76 3.67 3.74 5.41 5.7l-2.02 4.39c2.12-.72 4.48-2.4 6.69-1 2.33.81 1.17 3.65 1.04 5.44-3.44-.74-6.97-1.3-10.45-.48-.03-3.08.9-6.61-1.37-9.15-1.56-1.85-2.01-4.21-2.35-6.54z"/><path fill="#454646" d="M239.53 327.35c3.51.48 7.01 1.25 10.58 1.06l1.28.19 1.78 1.88-1.48 1.35c-4.13.89-8.41.11-12.6.43l.44-4.91z"/><path fill="#6d6b6b" d="M251.39 328.6l6.81.72-1.41.79c-1.22.7-1.46 1.69-.71 2.95-5.75 4.07-12.92 6.57-20 6.17-3.78-1.79-9.39-2.62-10.44-7.39 3.48-.82 7.01-.26 10.45.48 1 .01 1.99-.03 3-.06 4.19-.32 8.47.46 12.6-.43l1.48-1.35-1.78-1.88z"/><path fill="#262523" opacity=".69" d="M256.08 333.06c-.75-1.26-.51-2.25.71-2.95.66 1.2.42 2.19-.71 2.95z"/></svg>