<svg xmlns="http://www.w3.org/2000/svg" width="682.667" height="682.667" viewBox="0 0 512 512" xmlns:v="https://vecta.io/nano"><path fill="#504f4c" d="M262.61 210.39c2.02-.81 4.26-.83 6.42-.82 4.46-.14 7.53 3.75 11.56 5.07l-1.89 1.53c-2.65-.29-5.31-.54-7.97-.66l-3.54-.19 1.82 3.37c.37 5.3 2.17 10.3 4.12 15.19-2.94-3.18-5.97-6.52-10.17-8.03-5.27-2.04-11.06-3.76-16.75-2.81-3.41.43-5.58 3.25-7.52 5.78 7.8-.1 15.94.43 22.77 4.63-5.19 1.75-10.84-.23-15.95 1.87-5.64 1.94-10.12 6.44-12.29 11.97l-2.25 4.52-3.81-1.1c.27-4.08.07-8.58 2.61-12.04 2.48-3.33 5.55-6.15 8.24-9.31l-4.86.35c1.43-2.33 2.82-4.69 4.08-7.12-4.38 3.33-8.27 7.44-11 12.23-1.28 3.73-1.22 7.77-1.6 11.66-.44 4.36 1.17 8.51 2.38 12.62-2.52-3.33-4.78-6.89-6.36-10.76.38-4.38.59-8.76.71-13.15.13-5.39 2.88-10.18 4.64-15.15 1.3.78 2.65 1.72 4.25 1.64 6.16.01 12.01-2.19 18.02-3.25 4.07-.73 8.04-1.88 11.96-3.18.73-1.65 1.34-3.37 2.38-4.86z"/><path fill="#96928a" d="M267.19 215.32l3.54.19c2.44 4.39 5.74 8.36 7.48 13.12 1.25 5.64-.15 11.43-.58 17.09l-2.13.03c-.58-6.67-.78-13.42-2.3-19.96-.61-2.77-2.5-4.93-4.19-7.1l-1.82-3.37z"/><path fill="#616260" d="M270.73 215.51l7.97.66 1.89-1.53c3 .89 6.16 2.08 7.84 4.93 2.51 3.88 5.11 7.83 9.31 10.07-1.38.61-2.75 1.26-4.02 2.09-.95 4.03-.48 8.21-.7 12.32-.05 4.14-1.26 8.12-2.33 12.08-.54 2.02-.99 4.06-1.43 6.1 4.44-.51 8.85-1.18 13.26-1.92l.76-2.56c-.18 2.38.7 5.51-1.46 7.23-5.98.4-11.95.92-17.73 2.63a106.77 106.77 0 0 0-.66 3.57c-1.21-3.04-2.88-6.5-6.38-7.31-4.56-1.65-11.5-.44-12.8-6.54-1.34 1.84-2.11 5.38-5.08 4.47-5.8-1.02-6.35-7.9-9.51-11.79l-2.79-2.45 1.19-1.34c4.48 2.18 8.85 4.8 13.8 5.75 3.07.66 6.3.75 9.22 1.97 3.3 1.85 5.18 5.38 8.22 7.55 1.77 1.11 3.85 1.56 5.82 2.2-.93-3.13-1.79-6.54-.02-9.56l2.93 3.7 1.78-7.87c2.39-8.74 2.65-18.3-1.09-26.72-.8-1.73-2.13-3.12-3.49-4.41-.71-.64-1.43-1.26-2.15-1.87.66 4.81 1.77 9.54 2.81 14.28 1.84 7.11-.86 14.33.04 21.52-1.54-1.26-2.97-2.72-4.78-3.58-2.2-.55-4.53-.16-6.74.1 2.69 2.41 4.76 5.42 5.81 8.9-4.18-2.55-7.82-6.59-13.12-6.4-1.68-1.82-3.29-3.69-4.88-5.58l3.99-3.33c-2.58-1.07-5.39-1.32-7.87.18-2.71-.64-5.38-1.45-8.05-2.24l2.61 5.62-7.87-3.5c2.07-1.02 3.34-2.95 4.41-4.91-5.23-.43-10.33 2.54-11.92 7.66l-2.4.88-1.9.73c2.17-5.53 6.65-10.03 12.29-11.97 5.11-2.1 10.76-.12 15.95-1.87 2.95 2.64 4.99 6.09 7.17 9.35l1.97-4.55-5.16-2.38 3.77-3.94c-2.03-2.08-4.06-4.17-6.25-6.08 4.2 1.51 7.23 4.85 10.17 8.03-1.95-4.89-3.75-9.89-4.12-15.19 1.69 2.17 3.58 4.33 4.19 7.1 1.52 6.54 1.72 13.29 2.3 19.96l2.13-.03c.43-5.66 1.83-11.45.58-17.09-1.74-4.76-5.04-8.73-7.48-13.12z"/><path fill="#7c7a77" d="M283.08 216.96l2.15 1.87c1 8.06 3.44 15.99 3.06 24.19-.13 3.05-.5 6.08-.85 9.11l2.37-2.17-1.78 7.87-2.93-3.7c-1.77 3.02-.91 6.43.02 9.56-1.97-.64-4.05-1.09-5.82-2.2-3.04-2.17-4.92-5.7-8.22-7.55-2.92-1.22-6.15-1.31-9.22-1.97-4.95-.95-9.32-3.57-13.8-5.75l-1.19 1.34a158.69 158.69 0 0 1-4.11-3.68l2.27-.95 7.87 3.5-2.61-5.62c2.67.79 5.34 1.6 8.05 2.24 2.48-1.5 5.29-1.25 7.87-.18l-3.99 3.33c1.59 1.89 3.2 3.76 4.88 5.58 5.3-.19 8.94 3.85 13.12 6.4-1.05-3.48-3.12-6.49-5.81-8.9 2.21-.26 4.54-.65 6.74-.1 1.81.86 3.24 2.32 4.78 3.58-.9-7.19 1.8-14.41-.04-21.52-1.04-4.74-2.15-9.47-2.81-14.28z"/><path fill="#5c5e5b" d="M215.13 223.08c2.34-2.34 5.67-3.26 8.63-4.55l2.24 1.51c-1.76 4.97-4.51 9.76-4.64 15.15-.12 4.39-.33 8.77-.71 13.15-3.83-6.99-.53-14.99-1.18-22.46-4.94 2.82-5.95 9.01-6.01 14.23.17 7.67 5.75 13.55 9.97 19.44 2.67 3.31 2.43 7.78 3.31 11.73 1.01 4.74 1.8 9.96 5.4 13.53-.37 1.64-.58 3.32-.83 4.98-3.78-3.79-5.86-8.89-5.95-14.22l-2.18-.1c-1.07-3.29-4.22-4.97-6.91-6.75-3.28-2.06-6.24-4.57-9.29-6.93-2.08 4.46-3.2 9.57-1.25 14.3-2.52-2.44-5.58-4.4-7.5-7.39-.6-2.94.27-5.92.31-8.87.59-4.36-5.29-4.47-8.2-5.78.19 2.13.44 4.25.67 6.37-1.82-2.89-3.06-6.1-3.88-9.41l-2.15 1.87c1.19-6.05 6.64-9.59 11.08-13.22l-3.06 6.1 3.3-2.19 2.97 6.26c.87-1.34 1.73-2.67 2.5-4.06 1.61 4.58 3.4 9.21 6.36 13.12 4.17 5.27 9.72 9.36 15.78 12.24-1.21-1.76-2.45-3.5-3.75-5.18-2.95-4.82-7.52-8.47-10.16-13.45-1.98-5.72-2.43-12.24-6.73-16.89 5.06-3.02 8.17-8.13 11.86-12.53z"/><path fill="#949188" d="M285.23 218.83c1.36 1.29 2.69 2.68 3.49 4.41 3.74 8.42 3.48 17.98 1.09 26.72l-2.37 2.17c.35-3.03.72-6.06.85-9.11.38-8.2-2.06-16.13-3.06-24.19z"/><path fill="#7c7a74" d="M226.23 234.82c2.73-4.79 6.62-8.9 11-12.23-1.26 2.43-2.65 4.79-4.08 7.12l4.86-.35c-2.69 3.16-5.76 5.98-8.24 9.31-2.54 3.46-2.34 7.96-2.61 12.04l3.81 1.1 2.25-4.52 1.9-.73c1.55 5.99-3.06 10.96-3.8 16.67-.67 5.09-2.37 11.45 2.09 15.37 6.31 5.83 14.73 10.12 23.54 9.34l-3.86 4.23 2.76 1.92-6.25-.83c-6.05-2.27-12.07-4.82-17.46-8.45-3.6-3.57-4.39-8.79-5.4-13.53-.88-3.95-.64-8.42-3.31-11.73-4.22-5.89-9.8-11.77-9.97-19.44.06-5.22 1.07-11.41 6.01-14.23.65 7.47-2.65 15.47 1.18 22.46 1.58 3.87 3.84 7.43 6.36 10.76-1.21-4.11-2.82-8.26-2.38-12.62.38-3.89.32-7.93 1.6-11.66z"/><path fill="#737474" d="M238.69 228.82c1.94-2.53 4.11-5.35 7.52-5.78 5.69-.95 11.48.77 16.75 2.81 2.19 1.91 4.22 4 6.25 6.08l-3.77 3.94 5.16 2.38-1.97 4.55c-2.18-3.26-4.22-6.71-7.17-9.35-6.83-4.2-14.97-4.73-22.77-4.63z"/><path fill="#525251" d="M157.69 229.76c1.69-1.57 3.76-3.34 6.23-3.01 3.67.5 7.3 2.08 11.05 1.14 4.77-.97 9.71-.36 14.14 1.63-5.55-.23-12.12 1.5-14.43 7.13-1.57 5.16-2.17 11.17.7 16.01l-1.4.63c-1.84-.73-3.66-1.49-5.47-2.28.02 1.5.06 3 .02 4.51-3.09 7.94-3.67 16.45-5.55 24.69-3.54.34-7.15-.58-9.86-2.93-.02-5.12-1.79-9.98-3.44-14.76l-2.56-.84c-.61-7.25 3.45-13.62 5.7-20.24.15 2.53.25 5.07.24 7.61l-2.64-.73c1.13 1.92 1.95 4.18 3.77 5.58 3.92 2.41 8.77 2.89 13.23 2.01-3.69-1.45-7.53-2.44-11.34-3.48 1.68-4.95.93-10.18.29-15.25l-3.45 3.52c.24-4.12 2.35-7.74 4.77-10.94m-2.33 31.29c-.9 2.61-1.91 5.22-2.4 7.95 1.12 3.14 4.02 5.07 6.7 6.8 1.26-1.11 2.59-2.16 3.69-3.44.74-2.19.56-4.56.78-6.83-1.74.79-3.6 2.32-5.59 1.28-1.31-1.77-2.17-3.82-3.18-5.76z"/><path fill="#74756f" d="M174.68 236.65c2.31-5.63 8.88-7.36 14.43-7.13l14.16 6.09c4.3 4.65 4.75 11.17 6.73 16.89 2.64 4.98 7.21 8.63 10.16 13.45-4.26-3.4-8.38-7.11-11.35-11.72-2.8-4.26-1.67-10.23-5.7-13.8-.48 1.77-.92 3.55-1.34 5.34-.77 1.39-1.63 2.72-2.5 4.06l-2.97-6.26-3.3 2.19 3.06-6.1c-4.44 3.63-9.89 7.17-11.08 13.22.51 2.67 1.18 5.31 1.8 7.97l-4.84-.61c-.18-3.28-.94-6.89-4.7-7.67-.18 3.07 1.06 5.97 3.8 7.53l.46 4.54c4.56 2.62 9.39 4.67 14.19 6.81 4.42 2.02 7.38 6.04 10.25 9.79-2.39-.74-4.74-1.61-6.98-2.72l-7.15-3.61-.34 2.65c-2.86-.51-5.71-1-8.53-1.66-1.66-.7-3.29-1.43-4.91-2.2l4.27-1.64-6.12-2.88c.49-2.05 1.17-4.04 1.81-6.04l-3.52-3.57c-1.79-1.61-3.89-2.83-5.94-4.05.04-1.51 0-3.01-.02-4.51 1.81.79 3.63 1.55 5.47 2.28l1.4-.63c-2.87-4.84-2.27-10.85-.7-16.01m2.27 12.19c1.59 2.47 4.32 3.82 6.77 5.28l.04-10.59-3.34.19.45-4.8c-1.51 3.21-3.3 6.38-3.92 9.92z"/><path fill="#8f9087" d="M293.72 231.73c1.27-.83 2.64-1.48 4.02-2.09l1.91 1.32c2.26 1.77 4.6 3.45 7.08 4.91.17 2.53-.37 5.01-1.33 7.35l-3.9.24c.24 4.52 2.24 10.13-1.27 13.84-2.92 2.69-6.7.32-9.54-1.17 1.07-3.96 2.28-7.94 2.33-12.08.22-4.11-.25-8.29.7-12.32z"/><path fill="#646565" d="M312.19 233.4c1.12-1.5 1.16-5.04 3.74-3.48 1.64 1.33 4.76 2.36 4.33 4.95-1.15 2.97-2.85 5.79-3.24 9.01-.64 4.57-.84 9.3-2.58 13.64-.41 2.05-2.98 1.48-4.52 1.9 1.3-6.78 1.82-13.86 5.01-20.1-1.59-1.81-3.09-3.71-4.81-5.4-1.09.71-2.25 1.31-3.39 1.95-2.48-1.46-4.82-3.14-7.08-4.91 4.39-1.04 8.94-.31 12.54 2.44z"/><path fill="#4e4e4b" d="M315.93 229.92c3.22.87 6.53 1.84 9.18 3.96 2.06 1.57 3.71 3.64 5.91 5.04 2.59 1.14 5.43 1.55 8.16 2.24l-6.97.34c-.74 8.45.41 16.89 1.22 25.29-1.07 1.24-2.23 2.41-3.49 3.46l-1.28-.12c-1.32-.7-2.6-1.47-3.87-2.22l2.99-4.84c-1.25-.91-2.73-1.55-3.72-2.75 2.21-3.01 5.08-6.21 4.75-10.22-.02-3.42-2.37-6.07-4.39-8.57-2.07 1.88-4.36 3.62-5.84 6.03-1.37 3.3-.78 7.04-1.87 10.42-2.5 2.81-6.16 4.15-9.22 6.23l8.01 2.05c-1.81 1.44-3.57 2.94-5.24 4.53l5.55.94-.77 3.12c-3.33 1.02-6.76 1.65-10.21 2.06l-3.85-.26-3.72 6.23 1.81.28-.16.75c-.59 2.75-1.56 5.54-3.83 7.36.2-.88.3-1.76.31-2.65l.04-.28c-.41-4.48.14-8.94 1.3-13.28-5.06-.96-8.06-5.52-12.64-7.45 5.78-1.71 11.75-2.23 17.73-2.63 2.16-1.72 1.28-4.85 1.46-7.23 0-4.91.28-9.92 2.12-14.53.96-2.34 1.5-4.82 1.33-7.35 1.14-.64 2.3-1.24 3.39-1.95.17 3.48.49 6.96.4 10.44l-2.59-2.29c-.93 4.6-3.61 10.15.18 14.14-.58 1.18-1.22 2.33-1.84 3.49l3.65-.28c1.54-.42 4.11.15 4.52-1.9 1.74-4.34 1.94-9.07 2.58-13.64.39-3.22 2.09-6.04 3.24-9.01.43-2.59-2.69-3.62-4.33-4.95m-15.68 39.66c.4 1.93.34 4.03 1.41 5.75 1.6.95 3.59.63 5.37.86a110.95 110.95 0 0 0-3.46-2.7l.11-4.3-3.43.39z"/><path fill="#a0a2a7" d="M310.12 233.92c1.72 1.69 3.22 3.59 4.81 5.4-3.19 6.24-3.71 13.32-5.01 20.1l-3.65.28c.62-1.16 1.26-2.31 1.84-3.49 1.66-3.72 2.25-7.81 2.41-11.85.09-3.48-.23-6.96-.4-10.44z"/><path fill="#313333" d="M152.92 240.7l3.45-3.52c.64 5.07 1.39 10.3-.29 15.25-1.06-1.08-2.05-2.23-3.02-3.38.01-2.54-.09-5.08-.24-7.61l.1-.74z"/><path fill="#845e48" d="M237.52 245.68c1.59-5.12 6.69-8.09 11.92-7.66-1.07 1.96-2.34 3.89-4.41 4.91l-2.27.95c-1.73.63-3.49 1.19-5.24 1.8z"/><path fill="#5f5c59" d="M176.95 248.84c.62-3.54 2.41-6.71 3.92-9.92l-.45 4.8 3.34-.19-.04 10.59c-2.45-1.46-5.18-2.81-6.77-5.28z"/><path fill="#8e8b83" d="M203.11 240.43c4.03 3.57 2.9 9.54 5.7 13.8 2.97 4.61 7.09 8.32 11.35 11.72 1.3 1.68 2.54 3.42 3.75 5.18-6.06-2.88-11.61-6.97-15.78-12.24-2.96-3.91-4.75-8.54-6.36-13.12.42-1.79.86-3.57 1.34-5.34z"/><path fill="#5d5d5a" d="M332.21 241.5l6.97-.34c6.31 1.09 13 .4 19.06 2.65.98.63 1.95 1.3 2.92 1.97l-2.03 1.28c3.58 3.44 8.09 6.71 9.02 11.91.65 3.1-1.43 5.82-2.63 8.5l-1.98-1.34 3.81-6c-1.74-2.71-3.39-5.52-5.57-7.91-1.21-1.58-3.38-1.02-5.09-1.13l-.05 3.68-6.59.3c-2.72-3.6-4.07-9.04-9.17-9.88 1.85 1.96 3.84 3.78 5.81 5.62-2.43.78-5.16 1.05-7.2 2.69-2.48 2.58-3.54 6.12-4.65 9.43-.44 1.3-.89 2.59-1.41 3.86-.81-8.4-1.96-16.84-1.22-25.29z"/><path fill="#5f5c58" d="M307.93 242.07l2.59 2.29c-.16 4.04-.75 8.13-2.41 11.85-3.79-3.99-1.11-9.54-.18-14.14z"/><path fill="#3d3c3a" d="M318.58 247.56c1.48-2.41 3.77-4.15 5.84-6.03 2.02 2.5 4.37 5.15 4.39 8.57.33 4.01-2.54 7.21-4.75 10.22.99 1.2 2.47 1.84 3.72 2.75l-2.99 4.84c1.27.75 2.55 1.52 3.87 2.22-5.24-1.38-9.25 2.69-13.62 4.72l.77-3.12c-1.86-.26-3.71-.6-5.55-.94 1.67-1.59 3.43-3.09 5.24-4.53-2.66-.73-5.35-1.35-8.01-2.05 3.06-2.08 6.72-3.42 9.22-6.23 1.09-3.38.5-7.12 1.87-10.42z"/><path fill="#7a7b72" d="M301.5 243.46l3.9-.24c-1.84 4.61-2.12 9.62-2.12 14.53l-.76 2.56c-4.41.74-8.82 1.41-13.26 1.92.44-2.04.89-4.08 1.43-6.1 2.84 1.49 6.62 3.86 9.54 1.17 3.51-3.71 1.51-9.32 1.27-13.84z"/><path fill="#929088" d="M237.52 245.68l5.24-1.8 4.11 3.68 2.79 2.45-4.38 3.56-5.25-5.72-2.66 1.4c.78 6.38 7.11 9.19 11.53 12.84 2.97 2.03 5.36 5.04 8.77 6.35 3.37-.78 5.94-3.34 8.66-5.33 3.53.97 6.95 2.31 10.29 3.83l-.46 6.59 2.58 2.64c-2.84 1-5.86 1.59-8.45 3.21-1.49 1.95.71 4.15 1.29 6.05-6.09-1.04-12.26-2.25-17.75-5.22-2.22-1.31-4.73-1.75-7.28-1.58 2.8 6.18 10.21 6.58 15.69 9.06l-4.51.23-.78.02c-8.81.78-17.23-3.51-23.54-9.34-4.46-3.92-2.76-10.28-2.09-15.37.74-5.71 5.35-10.68 3.8-16.67l2.4-.88z"/><path fill="#434446" d="M358.24 243.81c5.73 2.47 10.71 6.98 13.09 12.82 1.55 3.14.44 6.62-.73 9.68l-1.24 3.65c-1.3-.8-2.57-1.64-3.84-2.49 1.2-2.68 3.28-5.4 2.63-8.5-.93-5.2-5.44-8.47-9.02-11.91l2.03-1.28-2.92-1.97z"/><path fill="#e8b695" d="M340.88 245.19c5.1.84 6.45 6.28 9.17 9.88 4.18 4.04 8.69 7.77 13.49 11.06l1.98 1.34c1.27.85 2.54 1.69 3.84 2.49l5.43 3.18c-5.42 3.22-11.91 2.01-17.88 2.1-2.26.13-4.14-1.17-6.03-2.18-2.29-1.01-4.78-1.34-7.24-1.63l-1.37-3.15-2.92-.34-5.13-.74c.17-1.43.38-2.85.62-4.27 1.11-3.31 2.17-6.85 4.65-9.43 2.04-1.64 4.77-1.91 7.2-2.69-1.97-1.84-3.96-3.66-5.81-5.62z"/><path fill="#6f6d67" d="M150.42 248.32l2.64.73 3.02 3.38c3.81 1.04 7.65 2.03 11.34 3.48-4.46.88-9.31.4-13.23-2.01-1.82-1.4-2.64-3.66-3.77-5.58z"/><path fill="#747675" d="M237.37 249.25l2.66-1.4 5.25 5.72 4.38-3.56c3.16 3.89 3.71 10.77 9.51 11.79 2.97.91 3.74-2.63 5.08-4.47 1.3 6.1 8.24 4.89 12.8 6.54 3.5.81 5.17 4.27 6.38 7.31-.57 2.92-.74 6.12-2.44 8.67-1.44 1.28-3.23 2.07-4.86 3.07-1.85 3.6-3.36 7.36-5.35 10.89.18-2.71.58-5.4 1.1-8.06l-2.68.31c-.46 1.41-.91 2.81-1.28 4.25-3.66.82-7.34.13-10.19-2.39l4.51-.23c-5.48-2.48-12.89-2.88-15.69-9.06 2.55-.17 5.06.27 7.28 1.58 5.49 2.97 11.66 4.18 17.75 5.22-.58-1.9-2.78-4.1-1.29-6.05 2.59-1.62 5.61-2.21 8.45-3.21l-2.58-2.64.46-6.59c-3.34-1.52-6.76-2.86-10.29-3.83-2.72 1.99-5.29 4.55-8.66 5.33-3.41-1.31-5.8-4.32-8.77-6.35-4.42-3.65-10.75-6.46-11.53-12.84z"/><path fill="#7a7776" d="M356.69 251.09c1.71.11 3.88-.45 5.09 1.13 2.18 2.39 3.83 5.2 5.57 7.91l-3.81 6c-4.8-3.29-9.31-7.02-13.49-11.06l6.59-.3.05-3.68z"/><path fill="#434546" d="M184.98 252.88l2.15-1.87c.82 3.31 2.06 6.52 3.88 9.41l-.67-6.37c2.91 1.31 8.79 1.42 8.2 5.78-.04 2.95-.91 5.93-.31 8.87 1.92 2.99 4.98 4.95 7.5 7.39 2.24 2.25 4.44 4.55 6.53 6.95-2.12-.56-4.23-1.15-6.32-1.8-2.87-3.75-5.83-7.77-10.25-9.79-4.8-2.14-9.63-4.19-14.19-6.81l-.46-4.54.9.14c1.61.23 3.23.42 4.84.61-.62-2.66-1.29-5.3-1.8-7.97z"/><path fill="#555657" d="M177.24 252.57c3.76.78 4.52 4.39 4.7 7.67l-.9-.14c-2.74-1.56-3.98-4.46-3.8-7.53z"/><path fill="#333435" d="M162.98 280.21c1.88-8.24 2.46-16.75 5.55-24.69 2.05 1.22 4.15 2.44 5.94 4.05-3.92 4.38-2.32 10.83-5.32 15.64-1.5 2.25-3.92 3.62-6.17 5z"/><path fill="#7c7c7f" d="M155.36 261.05c1.01 1.94 1.87 3.99 3.18 5.76 1.99 1.04 3.85-.49 5.59-1.28-.22 2.27-.04 4.64-.78 6.83-1.1 1.28-2.43 2.33-3.69 3.44-2.68-1.73-5.58-3.66-6.7-6.8.49-2.73 1.5-5.34 2.4-7.95z"/><path fill="#3a3c3e" d="M147.12 261.68l2.56.84c1.65 4.78 3.42 9.64 3.44 14.76-3.58-3.67-5.43-8.61-5.97-13.64l-.03-1.96z"/><path fill="#80817a" d="M206.98 261.79c3.05 2.36 6.01 4.87 9.29 6.93 2.69 1.78 5.84 3.46 6.91 6.75l.06.84c-.64 2.49-1.64 4.92-1.86 7.5.37 2.07 1.62 3.89 2.07 5.95-.93 1.82-2.24 3.4-3.44 5.04-2.77-2.59-5.35-5.37-8.1-7.97l-2.12 1.07 2.27 4.9c-3.31-2.75-7.1-4.77-11.08-6.36-.62-2.66-1.27-5.3-2.02-7.92 2.24 1.11 4.59 1.98 6.98 2.72 2.09.65 4.2 1.24 6.32 1.8-2.09-2.4-4.29-4.7-6.53-6.95-1.95-4.73-.83-9.84 1.25-14.3z"/><path d="M333.43 266.79l1.41-3.86-.62 4.27 5.13.74-2.93.42-.21 5.35-1.85 1.7-4.7 2.11c-6.12 2.69-12.97 1.82-19.47 2.15-1.81-.89-3.55-1.88-5.36-2.76 3.45-.41 6.88-1.04 10.21-2.06 4.37-2.03 8.38-6.1 13.62-4.72l1.28.12c1.26-1.05 2.42-2.22 3.49-3.46zm-110.25 8.68l2.18.1c.09 5.33 2.17 10.43 5.95 14.22 1.9 1.08 4 1.72 6.08 2.35l.76 2.38c-2.59-.51-5.48-.36-7.78-1.82-4.53-4.16-6.91-10.3-7.13-16.39l-.06-.84z" fill="#1f2226"/><path opacity=".77" d="M369.36 269.96l1.24-3.65 8.12 1.07 2.42 6.73c2.01-1.32 3.92-2.77 5.8-4.25 7.81 4.09 16.92 2.43 25.37 2.7-6.84.77-13.77.58-20.57 1.77-4.44.17-8.92.15-13.31.92l-3.64-2.11-5.43-3.18z"/><path fill="#616479" d="M284.09 267.61c4.58 1.93 7.58 6.49 12.64 7.45-1.16 4.34-1.71 8.8-1.3 13.28l-.04.28c-.01.89-.11 1.77-.31 2.65l-1.1.95-5.05.61c.94 1.52 1.89 3.04 2.93 4.5.99.62 2.03 1.19 3.11 1.67l.91-.13.04 3.18c-3.01.07-6.33-.77-9.07.85-1.53.84-2.92 1.91-4.28 2.99l.63-2.58-3.66-1.23c.69 1.88 1.48 3.72 2.26 5.57l-.35.86c-1.22-.37-2.4-.84-3.55-1.36-1.27-1.68-2.84-3.1-4.52-4.34 2.17-1.42 4.18-3.25 6.7-4.05 1.63.04 3.22.49 4.83.82l-2.68-3.42 2.82-2.45c-.67-3.38-.99-6.96-2.76-9.99-2.02-.5-4.1-.63-6.16-.8 1.63-1 3.42-1.79 4.86-3.07 1.7-2.55 1.87-5.75 2.44-8.67a106.77 106.77 0 0 1 .66-3.57m10.17 10.6c.56.57.56.57 0 0m-3.02 8.08c.56.56.56.56 0 0z"/><path fill="#bfc0cd" d="M336.42 268.36l2.93-.42 2.92.34c-1.02 2.8-3.17 4.72-6.06 5.43l.21-5.35z"/><path fill="#434248" d="M342.27 268.28l1.37 3.15c-.94 3.26-.91 6.68-.2 9.98l5.71.04c1.63.47 3.21 1.13 4.78 1.8l.67 1.11c-5.24 1.34-10.62 2.01-15.97 2.7a111.56 111.56 0 0 0-4.58-1.52l.74-.17c2.02-.44 4.1-.75 6.03-1.53 2.4-1.74 1.61-5.18.92-7.6-2.41-.61-4.9-.76-7.38-.83l1.85-1.7c2.89-.71 5.04-2.63 6.06-5.43z"/><path fill="#434444" opacity=".95" d="M176.18 269.18l6.12 2.88-4.27 1.64 4.91 2.2c2.25 2.15 4.17 4.62 6.25 6.95l-7.16-2.87c-2.24-2.52-4.36-5.13-6.5-7.73l.65-3.07z"/><path fill="#676667" d="M300.25 269.58l3.43-.39-.11 4.3 3.46 2.7c-1.78-.23-3.77.09-5.37-.86-1.07-1.72-1.01-3.82-1.41-5.75z"/><path fill="#3e414c" d="M420.74 271.94l9.03-.61 1.51 8.6-5.33-.83 2.6-7.26-7.81.1z"/><path fill="#bbbdca" d="M343.64 271.43c2.46.29 4.95.62 7.24 1.63l.31 2.87-1.67-1.46-5.54 2.5-.54 4.44c-.71-3.3-.74-6.72.2-9.98z"/><path fill="#76787d" opacity=".96" d="M412.31 272.56l8.43-.62 7.81-.1-2.6 7.26c-14.27.22-28.4 2.28-42.61 3.2-9.59.55-19.19 1.04-28.74 2.06l-.67-1.11c16.31-1.7 32.67-2.65 49.01-4.01 7.39-.67 14.85-.83 22.18-2.12l-1.23-4.17c-10.75-.25-21.38 2.23-32.15 1.38 6.8-1.19 13.73-1 20.57-1.77z"/><path fill="#685e59" d="M350.88 273.06c1.89 1.01 3.77 2.31 6.03 2.18 5.97-.09 12.46 1.12 17.88-2.1l3.64 2.11c-8.93 1.85-18.1 2.07-27.17 2.62l-.07-1.94-.31-2.87z"/><path fill="#bebec8" d="M391.74 274.33c10.77.85 21.4-1.63 32.15-1.38l1.23 4.17c-7.33 1.29-14.79 1.45-22.18 2.12l-49.01 4.01c-1.57-.67-3.15-1.33-4.78-1.8l2.11-3.58c9.07-.55 18.24-.77 27.17-2.62 4.39-.77 8.87-.75 13.31-.92z"/><path fill="#dadae8" d="M343.98 276.97l5.54-2.5 1.67 1.46.07 1.94-2.11 3.58-5.71-.04.54-4.44z"/><path fill="#fffffe" d="M432.1 280.05c1.47-2.4 3.23-4.61 4.98-6.82l2.57 3.13c6.58 3.22 14.37.66 21.01 3.62-6.14 3.67-13.96 2.54-20.03 6.45-.09.06-.27.17-.36.22l-.32.2-4.54 1.79c-.84-1.49-1.79-2.89-2.78-4.27-.57-.77-1.17-1.52-1.77-2.26l1.24-2.06z"/><path fill="#585958" d="M191.81 274.91l7.15 3.61 2.02 7.92c3.98 1.59 7.77 3.61 11.08 6.36l-2.27-4.9 2.12-1.07c2.75 2.6 5.33 5.38 8.1 7.97 1.2-1.64 2.51-3.22 3.44-5.04-.45-2.06-1.7-3.88-2.07-5.95.22-2.58 1.22-5.01 1.86-7.5.22 6.09 2.6 12.23 7.13 16.39 2.3 1.46 5.19 1.31 7.78 1.82.64 2.62 2.2 4.85 4.75 5.9l-1.41.56c-.98.56-1.94 1.17-2.85 1.84-1.11-3.58-4.44-5.28-7.67-6.6-2.12 2.89-3.7 6.12-4.63 9.58-1.87-.55-3.74-1.06-5.63-1.52l-1.98 6.5-4.72.12c-2.75-.75-5.56-1.33-8.22-2.38l1.93-1.95c-3.13-4.63-6.64-9.03-9.17-14.05-1.32-2.83-3.74-4.85-6.1-6.79-1.11-.94-2.19-1.9-3.26-2.88-2.08-2.33-4-4.8-6.25-6.95 2.82.66 5.67 1.15 8.53 1.66l.34-2.65z"/><path fill="#adadb3" d="M329.66 277.52l4.7-2.11c-.73 2.39-2.5 2.93-4.7 2.11z"/><path fill="#82847b" d="M334.36 275.41c2.48.07 4.97.22 7.38.83.69 2.42 1.48 5.86-.92 7.6-1.93.78-4.01 1.09-6.03 1.53.63-1.82-1.81-3.61-3.18-2.1-.95 1.52 1.45 1.97 2.44 2.27l4.58 1.52c2.03 1.2 4.26 2.33 6.67 1.55 5.85-1.5 11.81.52 17.7-.45 6.48-.9 13.01-1.02 19.53-1.39l1.98-.16c2.34-3.89 7.28-3.25 11.17-3.78l-.39 3.91-.21 1.41c-8.4.25-16.77 1.02-25.13 1.86-16.17 1.18-32.37 2.4-48.44 4.55 3.94 1.64 8.12.34 12.21.41 2.53-.03 5.02.49 7.53.75l-1.45 2.38c-1.99.85-3.95 1.77-5.92 2.67l2.81-4.02c-5.76 1.11-11.7 2.33-17.52.82l1.66-3.31c-4.32.13-8.63.29-12.94.64l-1.12 3.04c3.46-.29 6.93-.5 10.4-.42-2.06 1.3-4.03 2.73-6.01 4.13-3.09-1.19-6.06-2.72-9.32-3.39-2 .09-3.98.35-5.96.61l-.91.13 1.73-2.9c2.49-.83 4.98-1.71 7.37-2.81-.83-3.13-1.7-6.28-1.94-9.52l-3.22.14.16-.75c3.96-.23 7.45-2.22 11.12-3.49 6.5-.33 13.35.54 19.47-2.15 2.2.82 3.97.28 4.7-2.11m-20.34 5.81l-.02 4.73c5.43-.36 10.93-.52 16.23-1.89-1.07-1.32-1.83-3.04-3.36-3.87-4.29.06-8.55.85-12.85 1.03m-6.84 1.87l.14 6.82c1.07-.42 2.12-.89 3.18-1.32 1.17 1.09 2.27 2.32 3.69 3.13 2.77-.95 5.26-3.84 8.38-2.24 4.21 1.54 9.79 2.85 12.86-1.44-7.62-2.72-15.86-1.21-23.61.04l-.14-5.17c-1.51-.07-3 .07-4.5.18z"/><path fill="#020201" opacity=".79" d="M297.26 282.88l3.72-6.23 3.85.26 5.36 2.76c-3.67 1.27-7.16 3.26-11.12 3.49l-1.81-.28z"/><path fill="#fcf9ff" d="M294.26 278.21c.56.57.56.57 0 0z"/><path fill="#9fa694" d="M383.34 282.3c14.21-.92 28.34-2.98 42.61-3.2 1.78.21 3.55.54 5.33.83l.82.12c-.43.67-.83 1.37-1.24 2.06.6.74 1.2 1.49 1.77 2.26-1.81 1.29-3.23 3.02-4.7 4.67-4.19.26-8.4.37-12.52 1.2 2.41 1.22 4.97 2.04 7.7 2.2-2.02.64-4 1.37-6 2.06l-1.47.36-1.74.45c-2.59.01-5.19-.07-7.77.13l.14-2.79c2.69.14 5.39.2 8.1.13-2.3-2.36-5.61-2.66-8.64-3.36 5.06-.55 10.04-1.66 14.96-2.92l-.97-2.87c-5.01 1.58-10.26 1.9-15.46 2.28l-1.23-2.47c-2.21 1.84-4.84 3.12-7.74 3.3l.39-3.91c-3.89.53-8.83-.11-11.17 3.78l-1.98.16c.2-1.5.45-3 .81-4.47z"/><path fill="#262625" d="M182.03 279.98l7.16 2.87 3.26 2.88-.79 5.66c-3.13-3.87-6.55-7.5-9.63-11.41z"/><path fill="#c4c3cd" d="M314.02 281.22c4.3-.18 8.56-.97 12.85-1.03 1.53.83 2.29 2.55 3.36 3.87-5.3 1.37-10.8 1.53-16.23 1.89l.02-4.73z"/><path fill="#adb4a0" d="M354.6 284.36c9.55-1.02 19.15-1.51 28.74-2.06-.36 1.47-.61 2.97-.81 4.47-6.52.37-13.05.49-19.53 1.39-5.89.97-11.85-1.05-17.7.45-2.41.78-4.64-.35-6.67-1.55 5.35-.69 10.73-1.36 15.97-2.7z"/><path fill="#5b5857" d="M270.78 293.81c1.99-3.53 3.5-7.29 5.35-10.89 2.06.17 4.14.3 6.16.8 1.77 3.03 2.09 6.61 2.76 9.99l-2.82 2.45 2.68 3.42c-1.61-.33-3.2-.78-4.83-.82-2.52.8-4.53 2.63-6.7 4.05 1.68 1.24 3.25 2.66 4.52 4.34l-.81-.37c-1-1.59-3.2-1.52-3.93.27l-3.71 1.57c-4.33-.59-9.37-2.74-13.1.68-4.67-1.21-9.56-1.08-14.19.25.32 1.83-.35 4.52 1.71 5.51 2.29.97 4.63-.42 6.78-1.14l.24 3.09c.21 2.8.57 5.59.85 8.39l.26 2.98c-2.82-.46-5.75-.7-8.54.04-1.64.81-2.83 2.28-4.26 3.39l.09-5.13-8.36 2.76 1.49-5.22c-1.56-1.77-3.11-3.56-4.79-5.21 4.27-2.45 8.59-4.85 12.55-7.78-5.09.92-10.23 2.04-15.43 1.37 4.55-.89 9.33-1.27 13.57-3.28 2.64-1.12 3.97-3.79 5.42-6.09l3.36.19-2.27 3.96c3.55-1.38 7.01-2.95 10.46-4.53 4.72 1.29 9.68 1.07 14.29-.57l-3.35-2.54c1.84-1.71 3.29-3.78 4.55-5.93m-36.55 24.29c.16 3.33 2.98-1.55 0 0z"/><path fill="#e8ffff" d="M307.18 283.09l4.5-.18.14 5.17-1.32.51-3.18 1.32-.14-6.82z"/><path fill="#d4d3db" d="M331.61 283.27c1.37-1.51 3.81.28 3.18 2.1l-.74.17c-.99-.3-3.39-.75-2.44-2.27z"/><path fill="#898d83" d="M395.29 286.74c2.9-.18 5.53-1.46 7.74-3.3l1.23 2.47-2.78 1.06 4.25 2.45c3.03.7 6.34 1 8.64 3.36-2.71.07-5.41.01-8.1-.13l-.14 2.79-4.16.59 2.27-2.5c-2.37.3-5.4 0-6.49 2.69l-.8.02-.8-3.3c-2.6.73-5.23 1.46-7.57 2.86l.93.58.76.5c-1.32-.63-2.66-1.2-4.05-1.65l-4.91-.56 1.77-2.55c4.24-.16 10.03 1 12-3.97l.21-1.41z"/><path fill="#6f6f73" d="M404.26 285.91c5.2-.38 10.45-.7 15.46-2.28l.97 2.87c-4.92 1.26-9.9 2.37-14.96 2.92-1.46-.75-2.86-1.6-4.25-2.45l2.78-1.06z"/><path fill="#a3a3ac" d="M295.08 291.27c2.27-1.82 3.24-4.61 3.83-7.36l3.22-.14c.24 3.24 1.11 6.39 1.94 9.52-2.39 1.1-4.88 1.98-7.37 2.81l-1.73 2.9c-1.08-.48-2.12-1.05-3.11-1.67l3.02-.88-.9-4.23 1.1-.95z"/><path d="M231.31 289.79l.83-4.98c5.39 3.63 11.41 6.18 17.46 8.45-2.56 1.54-5.49 2.18-8.45 2.32l2.59 4.56-.84.28c-2.55-1.05-4.11-3.28-4.75-5.9l-.76-2.38c-2.08-.63-4.18-1.27-6.08-2.35zm174.82 5.65c2.58-.2 5.18-.12 7.77-.13-3.11 1.31-6.42 2.09-9.81 1.99-1.88.04-3.76.16-5.63.38-1.89.25-3.77.56-5.62 1-.85-.62-1.69-1.24-2.57-1.8l-.76-.5c2.48.07 4.96-.04 7.44-.14l.8-.02c1.4-.03 2.81-.09 4.22-.19l4.16-.59z" fill="#4c4949"/><path fill="#373837" d="M192.45 285.73c2.36 1.94 4.78 3.96 6.1 6.79 2.53 5.02 6.04 9.42 9.17 14.05l-1.93 1.95c-3.86-4.53-7.5-9.26-11.59-13.6l-2.54-3.53.79-5.66z"/><path fill="#3d3f42" d="M269.2 286.06l2.68-.31c-.52 2.66-.92 5.35-1.1 8.06l-3.29-.35.43-3.15 1.28-4.25z"/><path fill="#efecf5" d="M291.24 286.29c.56.56.56.56 0 0z"/><path fill="#a0a696" d="M311.82 288.08c7.75-1.25 15.99-2.76 23.61-.04-3.07 4.29-8.65 2.98-12.86 1.44-3.12-1.6-5.61 1.29-8.38 2.24-1.42-.81-2.52-2.04-3.69-3.13l1.32-.51z"/><path fill="#907153" opacity=".67" d="M440.27 286.65l.36-.22-.36.22z"/><path fill="#7d6249" opacity=".57" d="M435.41 288.64l4.54-1.79c-.51 2.07-3.42 5.09-4.54 1.79z"/><path fill="#73706b" d="M253.09 292.17l3.86-4.23.78-.02c2.85 2.52 6.53 3.21 10.19 2.39-.17 1.04-.31 2.09-.43 3.15l3.29.35c-1.26 2.15-2.71 4.22-4.55 5.93l-.74.35-.79-2.99c-3.32.42-6.66.86-10 .44l.35 3.61.24 1.7c-3.45 1.58-6.91 3.15-10.46 4.53l2.27-3.96-3.36-.19-2.25-2.25 1.41-.56.84-.28-2.59-4.56c2.96-.14 5.89-.78 8.45-2.32 2.08.32 4.16.54 6.25.83l-2.76-1.92m-2.01 3.86l.41 5.78 2.41.01a190.73 190.73 0 0 0 .35-4.72l-3.17-1.07z"/><path fill="#fffcff" d="M295.39 288.62l.04-.28-.04.28z"/><path fill="#b1b8a6" d="M369.95 290.01c8.36-.84 16.73-1.61 25.13-1.86-1.97 4.97-7.76 3.81-12 3.97-13.82-1.06-27.44 2.23-41.12 3.6h-.71c-2.51-.26-5-.78-7.53-.75-4.09-.07-8.27 1.23-12.21-.41 16.07-2.15 32.27-3.37 48.44-4.55z"/><path fill="#6a6d65" opacity=".95" d="M415.41 290.24c4.12-.83 8.33-.94 12.52-1.2l-3.4 3.5c-1.81 2.16-4.95 1.49-7.42 1.96l6-2.06c-2.73-.16-5.29-.98-7.7-2.2z"/><path fill="#797e6f" d="M341.96 295.72c13.68-1.37 27.3-4.66 41.12-3.6l-1.77 2.55 4.91.56-.42.63c-10.49 2.8-21.46 2.16-32.21 2.77-2.81-3.65-7.58-2.8-11.63-2.91z"/><path d="M288.93 292.83l5.05-.61.9 4.23-3.02.88-2.93-4.5zm109.53 4.85c1.87-.22 3.75-.34 5.63-.38l-.33 2.74-3.63.41-1.67-2.77z" fill="#efecf8"/><path fill="#aeacb3" d="M388.58 295.8c2.34-1.4 4.97-2.13 7.57-2.86l.8 3.3-7.44.14-.93-.58z"/><path fill="#b2b7a7" d="M307.89 294.9c4.31-.35 8.62-.51 12.94-.64l-1.66 3.31-2-.05c-3.47-.08-6.94.13-10.4.42l1.12-3.04z"/><path fill="#acaab3" d="M397.75 296.22c1.09-2.69 4.12-2.39 6.49-2.69l-2.27 2.5-4.22.19z"/><path fill="#343536" d="M386.22 295.23c1.39.45 2.73 1.02 4.05 1.65l2.57 1.8-7.53 1.98-4.26.73c1.95-1.51 3.64-3.3 4.75-5.53l.42-.63z"/><path fill="#848489" d="M413.9 295.31l1.74-.45.57 4.8c-1.6.73-3.14 1.68-4.88 2.05-2.84.35-5.73-.63-8.54-.07l-3.56 2.5-1.61.78c-2.19-1.87-4.91-2.82-7.71-3.3-.03 2.62-.47 5.25-1.81 7.54l-1.69.34.83-2.66c-1.07-1.91-1.75-4-1.93-6.18l7.53-1.98c1.85-.44 3.73-.75 5.62-1l1.67 2.77 3.63-.41.33-2.74c3.39.1 6.7-.68 9.81-1.99z"/><path fill="#4e4d4c" d="M251.08 296.03l3.17 1.07-.35 4.72c-.61 0-1.81-.01-2.41-.01l-.41-5.78z"/><path fill="#626262" d="M353.59 298.63c10.75-.61 21.72.03 32.21-2.77-1.11 2.23-2.8 4.02-4.75 5.53 1.43-.16 2.84-.45 4.26-.73.18 2.18.86 4.27 1.93 6.18l-.83 2.66c-4.02 1.36-7.15-1.91-10.38-3.69l.19-3.06 4.83 3.64c.95-1.35 1.96-2.66 3.11-3.85l-5.61-1.97c-2.19-1.65-4.88-1.94-7.52-2l1.94 2.36c-.35 0-1.04-.01-1.39-.01-2.88-.55-5.81-.56-8.73-.42-3.09-.6-6.23-.97-9.26-1.87z"/><path fill="#d39c7c" d="M226.34 305.8c.93-3.46 2.51-6.69 4.63-9.58 3.23 1.32 6.56 3.02 7.67 6.6-3.19 3-6.72 5.8-11.19 6.47l-1.11-3.49z"/><path fill="#c0c9a9" d="M254.7 297.54c3.34.42 6.68-.02 10-.44l.79 2.99c-3.24 1.7-6.92 1.78-10.44 1.06l-.35-3.61z"/><path fill="#413432" d="M295.88 298.87l5.96-.61-3.55 6.38c-5.85-.23-12.05.08-16.84 3.87l.35-.86.77-1.76c1.36-1.08 2.75-2.15 4.28-2.99 2.74-1.62 6.06-.78 9.07-.85l-.04-3.18z"/><path fill="#575654" d="M317.17 297.52l2 .05c5.82 1.51 11.76.29 17.52-.82l-2.81 4.02 5.92-2.67c-1.94 3.19-4.42 5.99-6.63 9 .3-1.44.53-2.89.78-4.33-3.08-.94-5.93.2-8.46 1.96 1.58 1.9 3.19 3.77 4.83 5.63-4.92 4.19-10.43 8.94-17.25 8.94-3.68-.84-7.38-.04-11.01.62l-.27-.72 5.1-1.7-3.25-5.9-4.76.24-1.07-2.95-2.98-.48c1.3-.2 2.6-.43 3.9-.66l-.44-3.11c1.22-2.11 2.38-4.25 3.55-6.38 3.26.67 6.23 2.2 9.32 3.39 1.98-1.4 3.95-2.83 6.01-4.13m3.06 6.89c-2.56-.05-5.47-.23-7.71 1.13-2.53 3.16-1.54 7.54-1.76 11.28 3.66-3.28 8.93-3.37 12.8-6.22 1.25-2.4-.43-6.11-3.33-6.19z"/><path fill="#909481" d="M255.05 301.15c3.52.72 7.2.64 10.44-1.06l.74-.35 3.35 2.54c-4.61 1.64-9.57 1.86-14.29.57l-.24-1.7z"/><path fill="#7b7b7d" d="M372.97 300.93c1.86-.02 3.72-.17 5.58-.36l5.61 1.97c-1.15 1.19-2.16 2.5-3.11 3.85l-4.83-3.64-4.64-1.83 1.39.01z"/><path fill="#66666a" d="M411.33 301.71c1.74-.37 3.28-1.32 4.88-2.05l-3.96 6.7c-6.28-.65-12.68-.59-18.71 1.49l4.08-2.93 1.61-.78c1.17-.85 2.33-1.72 3.56-2.5 2.81-.56 5.7.42 8.54.07z"/><path fill="#3c3c3a" d="M238.64 302.82c.91-.67 1.87-1.28 2.85-1.84l2.25 2.25c-1.45 2.3-2.78 4.97-5.42 6.09-4.24 2.01-9.02 2.39-13.57 3.28a74.35 74.35 0 0 0-3 .34c-2.56-.76-5.16-1.36-7.74-2.04 1.57 0 3.14-.07 4.72-.12l1.98-6.5c1.89.46 3.76.97 5.63 1.52l1.11 3.49c4.47-.67 8-3.47 11.19-6.47z"/><path fill="#f6f5f8" d="M279.54 302.08l3.66 1.23-.63 2.58-.77 1.76-2.26-5.57z"/><path fill="#6c6c6b" d="M325.49 304.73c2.53-1.76 5.38-2.9 8.46-1.96l-.78 4.33c-.87 1.15-1.84 2.23-2.85 3.26l-4.83-5.63z"/><path fill="#50504f" d="M389.91 301.62c2.8.48 5.52 1.43 7.71 3.3l-4.08 2.93c6.03-2.08 12.43-2.14 18.71-1.49-8.15.1-16.13 1.53-24.15 2.8 1.34-2.29 1.78-4.92 1.81-7.54z"/><path fill="#656566" d="M320.23 304.41c2.9.08 4.58 3.79 3.33 6.19-3.87 2.85-9.14 2.94-12.8 6.22.22-3.74-.77-8.12 1.76-11.28 2.24-1.36 5.15-1.18 7.71-1.13z"/><path fill="#261e1a" opacity=".75" d="M273.16 307.05c.73-1.79 2.93-1.86 3.93-.27a9.32 9.32 0 0 1-3.93.27z"/><path fill="#1b1411" opacity=".8" d="M256.35 309.3c3.73-3.42 8.77-1.27 13.1-.68l-2.7 1.57-2.42.46c-2.69-.27-5.34-.78-7.98-1.35z"/><path fill="#454242" d="M242.16 309.55c4.63-1.33 9.52-1.46 14.19-.25 2.64.57 5.29 1.08 7.98 1.35-4.6.92-9.36 1.3-13.68 3.27-2.15.72-4.49 2.11-6.78 1.14-2.06-.99-1.39-3.68-1.71-5.51z"/><path fill="#ba8869" d="M286.23 309.38c2.88-.16 5.73-.66 8.6-.97l2.98.48 1.07 2.95.28.71c-4.5-.55-8.97.29-13.36 1.2-6.84 1.53-13.84-.87-20.69.55-4.73.95-9.45 1.98-14.22 2.71l-.24-3.09c4.32-1.97 9.08-2.35 13.68-3.27l2.42-.46c6.46-.82 12.99-.35 19.48-.81z"/><path fill="#c38c6e" d="M224.75 312.6c5.2.67 10.34-.45 15.43-1.37-3.96 2.93-8.28 5.33-12.55 7.78-1.25-.66-2.55-1.24-3.84-1.8-.63-1.45-1.35-2.86-2.04-4.27a74.35 74.35 0 0 1 3-.34z"/><path fill="#6e6d6d" d="M298.88 311.84l4.76-.24 3.25 5.9-5.1 1.7-1.11-3.15-1.52-3.5-.28-.71z"/><path fill="#dda98b" d="M285.8 313.75c4.39-.91 8.86-1.75 13.36-1.2l1.52 3.5c-5.17 2.79-10.96 4.03-16.43 6.07-5.52 2.01-11.29 3.41-17.18 3.6-5.1.09-10.37 1.49-15.33-.32l-.85-8.39c4.77-.73 9.49-1.76 14.22-2.71 6.85-1.42 13.85.98 20.69-.55z"/><path fill="#b9886c" d="M300.68 316.05l1.11 3.15.27.72c-10.91 2.07-21.48 5.58-32.28 8.09-3.18.5-6.35 1.08-9.54 1.46-2.31-.09-4.6-.39-6.86-.83l-1.38-.26-.26-2.98c4.96 1.81 10.23.41 15.33.32 5.89-.19 11.66-1.59 17.18-3.6 5.47-2.04 11.26-3.28 16.43-6.07z"/><path fill="#494a48" d="M223.79 317.21l3.84 1.8c1.68 1.65 3.23 3.44 4.79 5.21l-1.49 5.22 8.36-2.76-.09 5.13c1.43-1.11 2.62-2.58 4.26-3.39 2.79-.74 5.72-.5 8.54-.04l1.38.26 2.93 2.65c-8.86 2.68-18.32 1.58-27.33.29l-.36 3.62c-.25-2.98.19-6.06-.65-8.96-1.61-2.91-3.46-5.73-4.18-9.03z"/><path fill="#afadb0" d="M234.23 318.1c2.98-1.55.16 3.33 0 0z"/><path fill="#6b6969" d="M253.38 328.64c2.26.44 4.55.74 6.86.83-1.08 2.05-1.86 4.58-4.14 5.62-5.35 2.99-11.49 5.3-17.7 4.62-3.41-1.14-6.64-2.77-9.78-4.51l.36-3.62c9.01 1.29 18.47 2.39 27.33-.29-.97-.9-1.93-1.81-2.93-2.65z"/></svg>