<svg xmlns="http://www.w3.org/2000/svg" width="682.667" height="682.667" viewBox="0 0 512 512" xmlns:v="https://vecta.io/nano"><path fill="#4e504e" d="M262.82 210.55c3.26-.42 6.69-1.35 9.91-.32 3.54 1.79 6.64 4.43 10.48 5.63-4.18.65-8.34-.15-12.5-.33l-.88.16 1.09-2.86c-2.4-1.94-5.41-1.92-8.26-1.14 2.71 4.31 6.35 8.14 7.66 13.2.55 2.7 2.9 5.59 1.5 8.32-5.91-7.62-15.87-11.53-25.37-10.66-2.3.18-3.85 2.02-5.4 3.51-2.19 1.41-4.61 2.39-7.03 3.31 1.35-2.37 2.6-4.89 4.59-6.8 3.42-1.34 7.17-1.59 10.56-3.06l-2.36-.69c4.91-.84 9.74-2.1 14.49-3.6l1.52-4.67z"/><path fill="#616260" d="M262.66 211.69c2.85-.78 5.86-.8 8.26 1.14l-1.09 2.86-1.36.48c2.51 3.83 5.26 7.75 5.82 12.41 1 5.66.19 11.6 1.97 17.1a72.88 72.88 0 0 0 1.47.13c1.18-6.52 3.35-14.01-.49-20.07-1.89-3.58-4.16-6.94-6.53-10.21 4.16.18 8.32.98 12.5.33 6.51 1.67 7.68 9.45 12.64 13.17l-2.3.32-.89 6.96c-1.06-4.79-1.67-9.77-3.82-14.23-.81-1.86-2.84-2.58-4.44-3.58.38 2.7.84 5.39 1.32 8.07.17 4.89 1.02 9.78.56 14.68-.34 3.85-.57 7.71-.6 11.58l-5-4.25-6.84 1.1c2.81 2.07 5.14 4.74 6.39 8.05l-6.5-1.88c1.85 2.96 4.23 5.6 7.32 7.31l-1.15 2.97c-3.57-2.3-7.82-3.05-11.97-3.45l-2.29-1.81-.03-4.85c-1.39 2.06-2.74 4.14-4.06 6.25-3.11-1.03-7.03-1.89-8.32-5.33-1.6-3.91-3.44-7.73-6.09-11.04 6.51 2.79 12.65 7 19.95 7.26-1.04-2.76-2.78-5.15-4.91-7.16l4.25-2.28c-1.25-.67-2.4-1.66-3.82-1.92-1.68.22-3.26 1.12-4.97 1.05-2.68-.64-5.19-1.84-7.78-2.77l4.12 6.82c-3.64-1.87-7.46-4.73-11.76-3.34l-6.61 2.39-.85-3.04c4.8-6.61 13.11-8.84 20.8-9.77 2.99 1.04 5.59 3.09 8.77 3.71 1.47 2 2.84 4.08 4.24 6.13 2.07-2.35 1.92-5.33.93-8.11l2.32-1.66c1.4-2.73-.95-5.62-1.5-8.32-1.31-5.06-4.95-8.89-7.66-13.2z"/><path fill="#98938a" d="M268.47 216.17l1.36-.48.88-.16c2.37 3.27 4.64 6.63 6.53 10.21 3.84 6.06 1.67 13.55.49 20.07l-1.47-.13c-1.78-5.5-.97-11.44-1.97-17.1-.56-4.66-3.31-8.58-5.82-12.41z"/><path fill="#4a4a48" d="M221.97 218.83c1.8-.64 3.94-.75 5.27.88 2.05 2.3 5.33 1.6 8.06 1.61l-7.42 1.26 6.02.39c-1.67 2.91-3.55 5.69-5.51 8.42-3.53 4.44-3 10.41-3.81 15.72-.66 3.64 1.26 6.92 3.02 9.94l-1.34.79c-2.21-3.73-4.33-7.52-5.99-11.52 1.46-4.65 1.45-9.53 2.02-14.32.56-4.4 3.3-8.34 3.5-12.75-1.25-.34-2.52-.49-3.82-.42z"/><path fill="#5d5f5c" d="M214.62 223.67c1.76-2.47 4.58-3.84 7.35-4.84 1.3-.07 2.57.08 3.82.42-.2 4.41-2.94 8.35-3.5 12.75-.57 4.79-.56 9.67-2.02 14.32-3.06-6.38.18-13.38-.53-20.09l-3.33.35c-.94 4.13-2.33 8.19-2.62 12.44-.13 5.12 3.46 9.18 5.46 13.62 1.16 2.7 2.91 5.07 4.95 7.18 1.94 1.69 1.4 4.42 1.76 6.7.23 4.79 3.2 9.23 2.07 14.1-2.15-3.04-2.94-6.73-4.04-10.22l-.9 2.57c-5.24-3.62-10.71-6.94-15.48-11.2-2.95 3.08-3.17 7.47-3.93 11.43-1.94-2.1-4.64-3.65-5.88-6.28-.38-3.45.97-6.78 1.88-10.04-2.83-1.78-5.94-3.04-9.17-3.85l-.84 5.01c-.84-3.22-1.88-6.39-3.36-9.38 1.75-4.12 6.07-6.2 8.45-9.88l2.23-.53-3.1 5.61 3.52-2.46c.14 2.85 1.12 5.57 3.07 7.69l.86-6.16.51 1.4c2 5.32 3.41 11.13 7.43 15.38 3.97 4.21 8.52 8.01 13.84 10.4-1.45-2.77-3.43-5.22-5.77-7.29-1.78-2.92-3.74-5.72-5.84-8.42-2.29-2.72-2.35-6.42-3.16-9.71-.7-3.52-2.47-6.68-4.08-9.83 3.76-3.43 7.24-7.16 10.35-11.19z"/><path fill="#7a7974" d="M235.3 221.32c3.84-.8 7.63-1.87 11.51-2.5l2.36.69c-3.39 1.47-7.14 1.72-10.56 3.06-1.99 1.91-3.24 4.43-4.59 6.8 2.42-.92 4.84-1.9 7.03-3.31l-1.14 2.77c-4.38 3.61-9.2 7.29-11.4 12.71-1.14 2.9-1.12 6.06-1.22 9.12 3.69.65 5.89-2.57 8.32-4.71.11 2.89.51 6.01-1.05 8.64-3.23 5.71-4.79 12.44-4.16 18.98 2.23 6.08 8.55 9.22 13.87 12.2 3.98 2.38 8.74 2.41 13.13 1.36-3.86-1.97-7.76-3.86-11.46-6.12l1.88-3.7c6.9 3.63 14.07 7.23 21.92 8.12l.95-1.45 1.86-3.56c3.24-1.33 6.45-2.74 9.55-4.38l-.29 3.28-2.39.53-.65 2.53-3.83 1.42c-1.63 5.88-4.77 11.15-8.65 15.81l2.67 3.27c-2.26.42-4.52.85-6.8 1.11 1.02-2.07 2-4.15 2.95-6.25-1.63-.17-3.26-.34-4.9-.4-3.95-3.47-9.74-3.17-14.3-5.62-6.64-2.35-13.31-5.56-17.88-11.1 1.13-4.87-1.84-9.31-2.07-14.1-.36-2.28.18-5.01-1.76-6.7-2.04-2.11-3.79-4.48-4.95-7.18-2-4.44-5.59-8.5-5.46-13.62.29-4.25 1.68-8.31 2.62-12.44l3.33-.35c.71 6.71-2.53 13.71.53 20.09 1.66 4 3.78 7.79 5.99 11.52l1.34-.79c-1.76-3.02-3.68-6.3-3.02-9.94.81-5.31.28-11.28 3.81-15.72 1.96-2.73 3.84-5.51 5.51-8.42l-6.02-.39c2.49-.34 4.97-.72 7.42-1.26m33.74 64.74c-1.06 2.69-3.27 5.7-1.39 8.57 1.94-2.62 3.36-5.56 4.44-8.63l-3.05.06z"/><path fill="#85877e" d="M284.4 218.5c1.6 1 3.63 1.72 4.44 3.58 2.15 4.46 2.76 9.44 3.82 14.23l.89-6.96 2.3-.32 1.26.93c3.73 2.63 7.51 5.22 11.02 8.16-1.72 4.46-3.82 8.85-4.49 13.63-.38 2.65-.58 5.33-.88 7.99-4.15-.01-8.28.42-12.42.6l-.48-1.28.65-2.23c3.36 1.02 6.92 1.38 10.27.12.08-4.89.7-9.84-.18-14.69-.54-2.92-3.24-4.57-5.35-6.32-.93 3.72-1.64 7.5-2.19 11.29.04-2.8-.16-5.59-.37-8.38-1.3 4.59-2.07 9.3-2.84 14l-2.88 2.05c.06-4.9.72-9.75 1.17-14.62.44-4.71-1.17-9.25-2.42-13.71l-1.32-8.07z"/><path fill="#727373" d="M246.45 222.55c9.5-.87 19.46 3.04 25.37 10.66l-2.32 1.66c.99 2.78 1.14 5.76-.93 8.11l-4.24-6.13c-5.39-7.64-15.93-8.07-24.42-8.02l1.14-2.77c1.55-1.49 3.1-3.33 5.4-3.51z"/><path fill="#5b5b58" d="M160.81 225.6c2.98-.8 5.99-.15 8.79.94l.73 2.29c-2.93 3.94-5.74 8.67-4.8 13.78.94 3.03 4.46 3.16 7.06 3.53.35-2.46.68-4.92 1.18-7.36.14 3.41.43 6.81.46 10.22l2.19 1.33c-2.41 2.04-5.3.55-7.84-.39.03 1.27.07 2.55.05 3.83-4.22 2.37-9.27 1.58-13.63.08-3.13-1.41-3.94-5.15-4.5-8.2l.33-.87c3.41 5.74 10.17 8.23 16.62 7.62-1.3-1.53-2.45-3.29-4.18-4.37-1.83-.45-3.74-.24-5.6-.24.17-4.21-.43-8.39-.83-12.57-.61-4.38 4.36-6.4 6.97-9.02l-3-.6z"/><path fill="#42423f" d="M153.6 235.47c1.21-3.99 4.08-7.22 7.21-9.87l3 .6c-2.61 2.62-7.58 4.64-6.97 9.02.4 4.18 1 8.36.83 12.57 1.86 0 3.77-.21 5.6.24 1.73 1.08 2.88 2.84 4.18 4.37-6.45.61-13.21-1.88-16.62-7.62 1.22-3.01 1.85-6.2 2.77-9.31z"/><path fill="#4c4e4d" d="M169.6 226.54c5.87.47 11.98-1.48 17.63.89-6.09 1.07-12.48 4.68-13.46 11.35-.5 2.44-.83 4.9-1.18 7.36-2.6-.37-6.12-.5-7.06-3.53-.94-5.11 1.87-9.84 4.8-13.78l-.73-2.29z"/><path fill="#747370" d="M286.28 241.25c.46-4.9-.39-9.79-.56-14.68 1.25 4.46 2.86 9 2.42 13.71-.45 4.87-1.11 9.72-1.17 14.62l2.88-2.05c-.18 3.23-2.6 5.31-4.68 7.44.33 2.74 1.45 5.3 2.39 7.87-2.06-1.81-4.2-3.52-6.51-5-3.09-1.71-5.47-4.35-7.32-7.31l6.5 1.88c-1.25-3.31-3.58-5.98-6.39-8.05l6.84-1.1 5 4.25c.03-3.87.26-7.73.6-11.58z"/><path fill="#75756f" d="M173.77 238.78c.98-6.67 7.37-10.28 13.46-11.35 5.69 2.44 11.26 5.17 17.04 7.43 1.61 3.15 3.38 6.31 4.08 9.83.81 3.29.87 6.99 3.16 9.71 2.1 2.7 4.06 5.5 5.84 8.42-4.12-2.89-7.69-6.73-9.8-11.33-1.19-3.93-1.63-8.07-3.31-11.84l-2.39 4.68c-.12-.35-.38-1.05-.51-1.4l-.86 6.16c-1.95-2.12-2.93-4.84-3.07-7.69l-3.52 2.46 3.1-5.61-2.23.53c-2.38 3.68-6.7 5.76-8.45 9.88l-1.65 3.71c-1.09-3.53-1.15-7.24-.79-10.89l-3.13 1.26 1.84-6.95c-2.59 3.69-4.47 7.81-5.82 12.11 2.53 2.03 5.24 3.85 8.15 5.31l1.75 5.37c-1.91.09-3.83.06-5.73-.1l-.54-5.76-2.74-.54c.44 4.14 3.77 7.27 3.91 11.5 2.5 1.47 5.04 2.89 7.7 4.04 2.32.93 4.68 1.72 6.97 2.71 3.37 2.81 6.35 6.08 8.89 9.66-1.84-.79-3.65-1.66-5.45-2.54l-.82 1.21c-1.73-1.83-3.69-3.74-6.23-4.31-2.34-.21-4.57.76-6.78 1.37l-7.84-3.11c1.67-.28 3.35-.51 4.99-.96-1.05-2.78-4.99-2.09-7.36-2.91.53-2.33 1.32-4.58 2.06-6.84l-2.94-3.61c-1.55-2.03-3.96-3.02-6.21-4.03l.09-.59c.02-1.28-.02-2.56-.05-3.83 2.54.94 5.43 2.43 7.84.39l-2.19-1.33c-.03-3.41-.32-6.81-.46-10.22z"/><path fill="#524d47" d="M239.91 228.83c8.49-.05 19.03.38 24.42 8.02-3.18-.62-5.78-2.67-8.77-3.71-7.69.93-16 3.16-20.8 9.77l.85 3.04c-2.43 2.14-4.63 5.36-8.32 4.71.1-3.06.08-6.22 1.22-9.12 2.2-5.42 7.02-9.1 11.4-12.71z"/><path fill="#626464" d="M297.11 229.96c4.77 2.54 10.78.42 15.16 4.13l2.03-3.37 4.19.93c.88 1.71 2.04 3.37 2.29 5.32-1.03 1.97-2.94 3.53-3.3 5.82-.59 3.44-.63 6.94-1.13 10.4-.68 2.29-1.26 4.67-2.47 6.76-1.29 1.19-3.25 1.09-4.87 1.47 2.29-6.23 3.7-12.73 4.97-19.22.57-2.78-1.52-5.09-2.73-7.38-.4 1.68-.79 3.36-1.06 5.06a83.51 83.51 0 0 0-2.06-1.76c-3.51-2.94-7.29-5.53-11.02-8.16z"/><path fill="#4e504f" d="M318.49 231.65c4 1.14 7.52 3.49 10.29 6.57 2.86 3.28 7.52 3.36 11.45 4.43-1.79-.2-3.58-.01-5.29.5l-2.36-.2a141.61 141.61 0 0 1-4.28 4.21c-1.19-1.33-2.32-2.68-3.45-4.04-1.76.74-3.6 1.36-5.17 2.47-1.62 2.27-2.44 4.99-3.33 7.6.5-3.46.54-6.96 1.13-10.4.36-2.29 2.27-3.85 3.3-5.82-.25-1.95-1.41-3.61-2.29-5.32z"/><path fill="#8c8e91" d="M311.25 234.82c1.21 2.29 3.3 4.6 2.73 7.38-1.27 6.49-2.68 12.99-4.97 19.22-1.04-.56-2.04-1.15-3.02-1.78 1.03-1.18 2.39-2.22 2.76-3.83 1.22-4.95 2.35-10.1 1.48-15.2l-.04-.73c.27-1.7.66-3.38 1.06-5.06z"/><path fill="#605d59" d="M176.76 247.9c1.35-4.3 3.23-8.42 5.82-12.11l-1.84 6.95 3.13-1.26c-.36 3.65-.3 7.36.79 10.89l.25.84c-2.91-1.46-5.62-3.28-8.15-5.31z"/><path fill="#93948b" d="M295.25 235.94c2.11 1.75 4.81 3.4 5.35 6.32.88 4.85.26 9.8.18 14.69-3.35 1.26-6.91.9-10.27-.12 1.09-3.13 2.12-6.3 2.55-9.6.55-3.79 1.26-7.57 2.19-11.29z"/><path fill="#3f3d3b" d="M308.13 238.12l2.06 1.76.04.73c-3.99 5.37-5.93 12.44-4.24 19.03.98.63 1.98 1.22 3.02 1.78 1.62-.38 3.58-.28 4.87-1.47 1.21-2.09 1.79-4.47 2.47-6.76.89-2.61 1.71-5.33 3.33-7.6 1.57-1.11 3.41-1.73 5.17-2.47l3.45 4.04.45.5c0 3.02.75 6.45-1.11 9.1-1.24 1.92-2.58 3.78-3.82 5.7l4.93.93a25.34 25.34 0 0 0-3.92 7.34c-5.77 2.53-11.11 6.64-17.75 6.23l-3.5-6.34-4.83-1.46c1.88-1.2 3.88-2.19 5.94-3.07-.87-4.72-1.45-9.53-1.05-14.34.67-4.78 2.77-9.17 4.49-13.63m-2.11 34.15c3.4.71 5.31-3.67 3.15-6.09-1.84 1.57-2.76 3.76-3.15 6.09z"/><path fill="#56554f" d="M289.85 252.85c.77-4.7 1.54-9.41 2.84-14 .21 2.79.41 5.58.37 8.38-.43 3.3-1.46 6.47-2.55 9.6l-.65 2.23c-.41 1.86-.55 3.77-.67 5.68 4.7.18 8.87-2.28 13.33-3.35l.24-1.65c.3-2.66.5-5.34.88-7.99-.4 4.81.18 9.62 1.05 14.34-2.06.88-4.06 1.87-5.94 3.07l4.83 1.46 3.5 6.34-4.24.28c-3.77-.24-4.63 4.32-6.52 6.75l1.68-.11-.96 6.45-4.13 1.71 2.35-4.95-1.58-3.78c1.89-2.23 2.65-5 2.36-7.9l-5.02-1.18c-.74-1.36-1.41-2.75-2.35-3.97-1.93-.83-4.02-1.09-6.06-1.5l-2.71-2.63 1.15-2.97c2.31 1.48 4.45 3.19 6.51 5-.94-2.57-2.06-5.13-2.39-7.87 2.08-2.13 4.5-4.21 4.68-7.44z"/><path fill="#8e8b83" d="M201.85 244.33l2.39-4.68c1.68 3.77 2.12 7.91 3.31 11.84 2.11 4.6 5.68 8.44 9.8 11.33 2.34 2.07 4.32 4.52 5.77 7.29-5.32-2.39-9.87-6.19-13.84-10.4-4.02-4.25-5.43-10.06-7.43-15.38z"/><path fill="#747675" d="M249.86 240.08c2.59.93 5.1 2.13 7.78 2.77 1.71.07 3.29-.83 4.97-1.05 1.42.26 2.57 1.25 3.82 1.92l-4.25 2.28c2.13 2.01 3.87 4.4 4.91 7.16-7.3-.26-13.44-4.47-19.95-7.26 2.65 3.31 4.49 7.13 6.09 11.04 1.29 3.44 5.21 4.3 8.32 5.33 1.32-2.11 2.67-4.19 4.06-6.25l.03 4.85 2.29 1.81c-1.79.21-3.68.52-4.9 1.98-1.51 1.83-3.06 4.59-5.88 3.97-2.82-1.26-4.88-3.69-7.3-5.53-3.96-3.37-8.55-6.23-11.44-10.64-1.28-1.57.08-3.41.41-5.05.99.56 1.96 1.14 2.93 1.75 1.21 1.23 2.33 2.56 3.46 3.88l3.22-1.99-1.98-3.61c-.98-1.72-2.57-2.89-4.23-3.88 4.3-1.39 8.12 1.47 11.76 3.34l-4.12-6.82z"/><path fill="#5e5a54" d="M310.23 240.61c.87 5.1-.26 10.25-1.48 15.2-.37 1.61-1.73 2.65-2.76 3.83-1.69-6.59.25-13.66 4.24-19.03z"/><path fill="#5c5c59" d="M332.58 242.95l2.36.2c1.71-.51 3.5-.7 5.29-.5 7.34 1.54 15.7.08 21.98 5.03l-2.24.63c2.44 3.97 6.59 6.99 7.63 11.72-3.02-3.22-6.14-7.17-10.97-7.23l.79 3.08-6.89 1.34c-3.09-3.89-4.24-9.6-9.45-11.38l5.17 6.82c-2.38.67-5.28.58-7.08 2.54-3.21 3.48-4 8.33-5.29 12.72-2.94-5.88-.41-12.64-1.86-18.82-1.07-.55-2.18-.96-3.27-1.44l-.45-.5a141.61 141.61 0 0 0 4.28-4.21m7.72 6.35c.54.55.54.55 0 0z"/><path fill="#939189" d="M235.61 245.95l6.61-2.39c1.66.99 3.25 2.16 4.23 3.88l-4.7 1.72-2.93-1.75c-.33 1.64-1.69 3.48-.41 5.05 2.89 4.41 7.48 7.27 11.44 10.64 2.42 1.84 4.48 4.27 7.3 5.53 2.82.62 4.37-2.14 5.88-3.97 3.31-.28 6.58.44 9.65 1.67-.02 3.15.33 6.38-.45 9.47-.28 1.51-2.26 2.64-3.52 1.51-2.67-.98-5.07-4.45-8.13-2.86-1.33 1.36-2.23 3.06-3.24 4.67 4.27 2.08 8.87 3.33 13.35 4.86l-.95 1.45c-7.85-.89-15.02-4.49-21.92-8.12l-1.88 3.7c3.7 2.26 7.6 4.15 11.46 6.12-4.39 1.05-9.15 1.02-13.13-1.36-5.32-2.98-11.64-6.12-13.87-12.2-.63-6.54.93-13.27 4.16-18.98 1.56-2.63 1.16-5.75 1.05-8.64z"/><path fill="#4d4d4d" d="M146.34 258.44c.67-4.47 2.44-8.64 4.16-12.79.56 3.05 1.37 6.79 4.5 8.2 4.36 1.5 9.41 2.29 13.63-.08l-.09.59c-.98 4.06-2.12 8.15-4.23 11.8l-.37-2.51a89.7 89.7 0 0 1-6.29 1.26c.84-2.09 2.6-3.49 4.34-4.82-2.77-1.85-6.45-.63-9.07.85-2.49 4.75 1.81 9.29 4.44 12.91 2.57-.94 5.03-2.16 7.33-3.65-.34 2.82-1.41 5.47-2.57 8.03l-5.22.03c-4.57-1.71-6.93-6.3-8.87-10.45l-1.69-9.37z"/><path fill="#e8b695" d="M341.08 245.84c5.21 1.78 6.36 7.49 9.45 11.38 4.41 4.27 9.27 8.08 14.23 11.7 1.25.86 2.53 1.68 3.82 2.49l3.83 2.31.4 2.51c-5.29.14-10.59.36-15.88.22-2.55.11-4.68-1.39-6.85-2.49-1.36-.23-2.74-.32-4.1-.32-1.54-1.36-3.03-2.75-4.46-4.21l-3.09-.61-4.55-.9c1.29-4.39 2.08-9.24 5.29-12.72 1.8-1.96 4.7-1.87 7.08-2.54l-5.17-6.82z"/><path fill="#abaeaa" d="M241.75 249.16l4.7-1.72 1.98 3.61-3.22 1.99-3.46-3.88z"/><path fill="#4e4b47" d="M328.75 247.66l3.27 1.44c1.45 6.18-1.08 12.94 1.86 18.82 1.51.33 3.03.6 4.55.9l-2.25.8c-1.3-.26-2.58-.56-3.89-.67-1.01.91-1.88 1.96-2.78 2.98l-4.68-1.2a25.34 25.34 0 0 1 3.92-7.34l-4.93-.93c1.24-1.92 2.58-3.78 3.82-5.7 1.86-2.65 1.11-6.08 1.11-9.1z"/><path fill="#444547" d="M359.97 248.31l2.24-.63c6.82 4.12 13.03 13.49 7.87 21.17l-1.5 2.56c-1.29-.81-2.57-1.63-3.82-2.49 1.16-2.86 2.95-5.69 2.84-8.89-1.04-4.73-5.19-7.75-7.63-11.72z"/><path fill="#484949" d="M186.31 248.66c1.48 2.99 2.52 6.16 3.36 9.38l.84-5.01c3.23.81 6.34 2.07 9.17 3.85-.91 3.26-2.26 6.59-1.88 10.04 1.24 2.63 3.94 4.18 5.88 6.28l9.22 9.8c-2.62-.89-5.24-1.81-7.78-2.91-2.54-3.58-5.52-6.85-8.89-9.66.29-1.39.65-2.77.72-4.18-2.61-3.45-6.5-5.57-9.95-8.06 1.57 2.51 3.07 5.07 4.48 7.67l-2.22 1.86c-2.66-1.15-5.2-2.57-7.7-4.04-.14-4.23-3.47-7.36-3.91-11.5l2.74.54.54 5.76c1.9.16 3.82.19 5.73.1l-1.75-5.37-.25-.84 1.65-3.71z"/><path fill="#d6d3d6" d="M340.3 249.3c.54.55.54.55 0 0z"/><path fill="#7b7879" d="M356.63 252.8c4.83.06 7.95 4.01 10.97 7.23.11 3.2-1.68 6.03-2.84 8.89-4.96-3.62-9.82-7.43-14.23-11.7l6.89-1.34-.79-3.08z"/><path fill="#313232" d="M164.31 266.16c2.11-3.65 3.25-7.74 4.23-11.8 2.25 1.01 4.66 2 6.21 4.03-4 2.76-3.11 7.99-4.42 12.09-1.32 5.72-7.82 9.38-13.43 7.78 1.73.03 3.47-.01 5.22-.03 1.16-2.56 2.23-5.21 2.57-8.03-.09-1.36-.22-2.7-.38-4.04z"/><path fill="#747273" d="M152.92 260.94c2.62-1.48 6.3-2.7 9.07-.85-1.74 1.33-3.5 2.73-4.34 4.82l6.29-1.26.37 2.51.38 4.04c-2.3 1.49-4.76 2.71-7.33 3.65-2.63-3.62-6.93-8.16-4.44-12.91z"/><path fill="#2c2d2f" d="M187 258.19c3.45 2.49 7.34 4.61 9.95 8.06-.07 1.41-.43 2.79-.72 4.18-2.29-.99-4.65-1.78-6.97-2.71l2.22-1.86c-1.41-2.6-2.91-5.16-4.48-7.67z"/><path opacity=".11" d="M370.75 300.38c2.9-.45 5.86-.31 7.33 2.61-2.65-.12-5.41-.61-7.33-2.61z"/><path fill="#72726a" d="M289.19 264.74c.12-1.91.26-3.82.67-5.68l.48 1.28c4.14-.18 8.27-.61 12.42-.6l-.24 1.65c-4.46 1.07-8.63 3.53-13.33 3.35z"/><path fill="#81827a" d="M203.68 273.2c.76-3.96.98-8.35 3.93-11.43 4.77 4.26 10.24 7.58 15.48 11.2-.82 3.14-1.29 6.37-1.53 9.62.1 2.48.63 4.91 1.16 7.33l-3.07 4.61c-2.8-2.95-5.63-5.88-8.6-8.66-1.91.65-3.78 1.79-5.85 1.7-2.42-.44-4.64-1.58-6.89-2.52l2.51-2.2c-.64-1.38-1.28-2.75-1.97-4.09a86.03 86.03 0 0 0 .82-1.21c1.8.88 3.61 1.75 5.45 2.54 2.54 1.1 5.16 2.02 7.78 2.91-3.15-3.19-6.15-6.54-9.22-9.8z"/><path fill="#838179" d="M263.03 264.66c1.22-1.46 3.11-1.77 4.9-1.98 4.15.4 8.4 1.15 11.97 3.45.92.85 1.81 1.75 2.71 2.63l-.51 7.28c-3.1 1.64-6.31 3.05-9.55 4.38l-1.86 3.56c-4.48-1.53-9.08-2.78-13.35-4.86 1.01-1.61 1.91-3.31 3.24-4.67 3.06-1.59 5.46 1.88 8.13 2.86 1.26 1.13 3.24 0 3.52-1.51.78-3.09.43-6.32.45-9.47-3.07-1.23-6.34-1.95-9.65-1.67z"/><path fill="#5e5d5e" d="M306.02 272.27c.39-2.33 1.31-4.52 3.15-6.09 2.16 2.42.25 6.8-3.15 6.09z"/><path fill="#464646" d="M175.63 268.84c2.37.82 6.31.13 7.36 2.91-1.64.45-3.32.68-4.99.96l7.84 3.11c2.61 4.11 6.39 7.17 9.91 10.44 2.54 2.16 2.88 5.61 3.58 8.64-1.11-.79-2.31-1.49-3.26-2.47-.11-1.11-.01-2.22.03-3.33-4.87-3.25-7.89-9.65-14.23-10.19l-3.85-4.38c-1.33-1.64-2.01-3.65-2.39-5.69z"/><path fill="#626479" d="M282.1 276.04l.51-7.28c2.04.41 4.13.67 6.06 1.5.94 1.22 1.61 2.61 2.35 3.97l5.02 1.18c.29 2.9-.47 5.67-2.36 7.9l1.58 3.78-2.35 4.95-1.89.41-2.12.22c.56 2.02 1.45 3.93 2.46 5.77l-2.57.36c-2.16-.64-3.02 1.92-.65 2.33-1.49.79-3.07 1.4-4.64 1.99l-1.39 2.68c-.51-1.69-1.7-3.02-3.56-3.1.78 1.72 1.71 3.38 2.65 5.03l-.28.89c-1.26-.11-2.49-.4-3.68-.77l-.73-2.49-3.61-1.36 6.19-5.27 5.96 1.32-3.93-4.06 4.03-2.61-2.6-1.93.96-6.05-4.74-3.02.65-2.53 2.39-.53.29-3.28m7.1 3.25c.57.57.57.57 0 0z"/><path d="M329.51 271.93l2.78-2.98c1.31.11 2.59.41 3.89.67l.19 5.22-2.33 1.49-4.25 1.95c-5.14 3.16-11.51 1.47-17.18 2.72l-.88-.14-2.43-.45c-2.14-1.09-4.24-2.25-6.46-3.17l4.24-.28c6.64.41 11.98-3.7 17.75-6.23l4.68 1.2zm55.21 24.92l2.51.85 4.79 1.77-2.16 1.27-4.17 1.57-6.68.63 5.49-2.88-.56-1.74.78-1.47z" fill="#202226"/><path fill="#c2c3d0" d="M336.18 269.62l2.25-.8 3.09.61c-.53 2.75-2.8 4.25-5.15 5.41l-.19-5.22z"/><path fill="#4b4d55" d="M341.52 269.43l4.46 4.21-2.87.15c-.19 2.48-.33 4.97-.19 7.46-.87-1.49-1.44-3.44-3.07-4.26-1.92-.39-3.87-.47-5.81-.66l2.33-1.49c2.35-1.16 4.62-2.66 5.15-5.41z"/><path opacity=".77" d="M370.08 268.85c2.9-.2 5.81-.22 8.72-.11l1.55 6.52c2.11-.56 4.18-1.41 6.38-1.58 2.9.11 5.69 1.01 8.51 1.62l-4.87.81-4.13.21c-4.75.34-9.78.24-13.83-2.6-1.3-.75-2.57-1.53-3.83-2.31l1.5-2.56zm-114.61 40.58c4.11-3.81 9.78-.5 14.67-1.09-1.14.6-2.24 1.25-3.36 1.87l-2.6.22c-2.93.02-5.86-.32-8.71-1z"/><path fill="#4c4a49" d="M223.09 272.97l.9-2.57c1.1 3.49 1.89 7.18 4.04 10.22 4.57 5.54 11.24 8.75 17.88 11.1l1.31 3.32-6.97-.02c.68 1.33 1.38 2.67 1.93 4.08l-.2 1.6c-2.14-1.97-4.13-4.11-5.68-6.57l.84-2.31c-8.35-.18-11.27-9.38-12.87-16.11l-.57 8.63-2.14-1.75c.24-3.25.71-6.48 1.53-9.62z"/><path fill="#d4d4e2" d="M345.98 273.64c1.36 0 2.74.09 4.1.32l.9 5.17 1.01 4.64c-2.84-1.1-5.89-1.33-8.9-1.5l-.17-1.02c-.14-2.49 0-4.98.19-7.46l2.87-.15z"/><path fill="#595b5a" d="M185.84 275.82c2.21-.61 4.44-1.58 6.78-1.37 2.54.57 4.5 2.48 6.23 4.31l1.97 4.09-2.51 2.2c2.25.94 4.47 2.08 6.89 2.52 2.07.09 3.94-1.05 5.85-1.7 2.97 2.78 5.8 5.71 8.6 8.66l3.07-4.61c-.53-2.42-1.06-4.85-1.16-7.33l2.14 1.75c1.92 2.41 3.41 5.17 5.59 7.38 1.81 1.9 4.63 1.83 7.01 2.41 1.55 2.46 3.54 4.6 5.68 6.57l-.08.74-2.61-.79-.9 1.05c-1.97-2.82-4.91-4.64-8.11-5.73a64.92 64.92 0 0 0-4.32 7.73c-1.4-.99-2.83-1.92-4.31-2.79-1.43 2.78-2.55 5.78-4.45 8.29-1.39 1.1-3.4.59-5.06.77-2.52-.71-5.1-1.38-7.4-2.68l.29-2.72c-2.45-2.86-4.6-6.04-5.7-9.67-.7-3.03-1.04-6.48-3.58-8.64-3.52-3.27-7.3-6.33-9.91-10.44z"/><path fill="#78655c" d="M350.08 273.96c2.17 1.1 4.3 2.6 6.85 2.49 5.29.14 10.59-.08 15.88-.22l-.4-2.51c4.05 2.84 9.08 2.94 13.83 2.6-11.67 1.72-23.47 2.39-35.26 2.81l-.9-5.17z"/><path fill="#7c8176" d="M395.24 275.3c11.45.12 22.86-1.72 34.31-1.32l-3.19 1.64-1.32 5.67c-10.36.68-20.75.95-31.08 1.97.65 1.65 1.15 3.43 2.28 4.86 2.35 1.46 4.15-.94 5.72-2.37 3.66 3.11 8.56 1.44 12.76.71 3.66-.86 7.44-.11 11.14-.56 2.37-.32 4.79-.15 7 .82l.3.81-2.96.08c-.97 1.53-1.97 3.03-3.09 4.45l-2.22.76c-.69 1.08-1.35 2.17-2.01 3.27-2.11.16-4.22.33-6.31.62l-1.13-4.94 9.27-.74 1.26-2.03c-7.58-1.84-14.52 3.02-22.13 2.43 3.47 1.04 6.92 2.16 10.33 3.41a185.97 185.97 0 0 1-8.52-.21l-.82 2.14-.79.14-1.31-3.24c-1.31.69-2.59 1.5-4.01 1.94-2.89-.28-5.65-1.26-8.47-1.9l1.45 1.75-3.77 2.3-.7-.06-2.51-.85c-3.4.21-6.71 1.03-10.01 1.8l-1.81-3.96c-1.71 1.71-3.2 4.18-5.87 4.36-4.93.82-10 .89-14.94.1-3.05-3.43-8.14-1.95-12.06-1.19-2.26 1.36-4.46 2.85-6.73 4.21l1.23-4.13c-5.52 1.07-11.45 2.32-16.79-.2 5.43-2.19 11.38-1.74 17.1-1.63 8.36.03 16.73-.39 25.01-1.54 6.33.4 12.46-1.8 18.78-1.13 6.59.07 13.79.59 19.69-2.9-10-1.61-20.08.26-30.07.9-19.24.89-38.39 3.24-57.64 3.89-1.81.01-3.51.68-5.16 1.38 3.62 1.62 7.64 1.87 11.52 1.29-2.4 1.43-4.66 3.08-6.95 4.69-2.43-1.97-5.3-3.27-8.46-3.34l-1.82-1.29c-1.9 1.37-3.74 2.88-5.87 3.9-1.13.19-2.27.36-3.41.51l.9-4.13 3.43-.98.36-4.35c-1.38-.24-2.75-.49-4.13-.66.47-.11 1.42-.31 1.89-.41 1.39-.53 2.76-1.12 4.13-1.71-.15 2.21-.05 4.42.09 6.63a67.86 67.86 0 0 0 6.56-2.97c-1.02-3.44-1.4-7.03-1.04-10.6 2.21-1 4.38-2.11 6.65-2.98l2.43.45 2.74 5.51 2.4.09a74.7 74.7 0 0 1 3.45 1.23c-2.86.38-5.73.52-8.6.73-.04-1.74-.14-3.47-.24-5.19-1.72.25-3.9-.4-5.16 1.14-.05 2.18.34 4.33.65 6.48l3.51-1.77c1.14 1.18 2.18 2.53 3.6 3.4 1.81.23 3.63.01 5.44-.1l-.95-2.88c4.57-.1 8.59 3.64 13.18 2.14 2.08-.53 2.85-2.83 4.1-4.33l2.74.85c3.08 2.35 6.98 1.14 10.52 1.25 4.71.11 9.43.56 14.14.02 6.62-.75 13.32-.45 19.91-1.45.72-1.48 1.59-2.89 2.58-4.2-10.8.44-21.64.83-32.35 2.31l-.55-2.03c6.38.26 12.73-.59 19.09-.93l43.17-2.72c3.28-.18 6.55-.65 9.78-1.29l-1.18-3.98c-11.13-.61-22.27 2.89-33.33.97l4.87-.81z"/><path d="M390.37 276.11c11.06 1.92 22.2-1.58 33.33-.97l1.18 3.98c-3.23.64-6.5 1.11-9.78 1.29l-43.17 2.72c-6.36.34-12.71 1.19-19.09.93l-.85-.29c-.36-1.54-.71-3.09-1.01-4.64 11.79-.42 23.59-1.09 35.26-2.81 1.37-.09 2.75-.15 4.13-.21zm-102.23 25.02c-2.37-.41-1.51-2.97.65-2.33l-.65 2.33z" fill="#bebfc8"/><path fill="#444753" d="M426.36 275.62l3.19-1.64c.47 2.58.84 5.19.95 7.82l-5.46-.51 1.32-5.67z"/><path fill="#29292a" d="M224.27 275.71c1.6 6.73 4.52 15.93 12.87 16.11l-.84 2.31c-2.38-.58-5.2-.51-7.01-2.41-2.18-2.21-3.67-4.97-5.59-7.38.24-2.87.42-5.75.57-8.63z"/><path fill="#010101" opacity=".79" d="M296.32 283.99c1.89-2.43 2.75-6.99 6.52-6.75 2.22.92 4.32 2.08 6.46 3.17-2.27.87-4.44 1.98-6.65 2.98-1.54.27-3.1.38-4.65.49l-1.68.11z"/><path fill="#aaabb0" d="M329.79 278.28c1.38-.72 2.81-1.34 4.25-1.95l-1.18 3.07-3.07-1.12z"/><path fill="#88898d" d="M334.04 276.33l5.81.66c1.63.82 2.2 2.77 3.07 4.26l.17 1.02c-1.98 2.26-4.6 3.82-7.64 4.03-1.11-1.21-2.5-2.06-4.01-2.65l-.4 2.12 3.03.82 1.01.47c-4.38 1.9-9.3.7-13.64-.67 2.61-.25 5.22-.57 7.83-.87-.85-1.59-.92-4.67-3.35-4.47-4.44.04-8.91 1.07-13.31-.05 5.67-1.25 12.04.44 17.18-2.72l3.07 1.12 1.18-3.07z"/><path fill="#fffffe" d="M431.84 281.89l3.59-4.07c4.02 5.02 11.29 2.93 16.72 4.68a9.57 9.57 0 0 0 .53.34l.71.6c-4.94 2.2-10.67 1.83-15.44 4.53-1.32.63-2.51 1.46-3.68 2.3l-1.11-2.74-.3-.81c-.39-1.6-.7-3.22-1.02-4.83z"/><path fill="#2a2b29" d="M181.87 278.91c6.34.54 9.36 6.94 14.23 10.19-.04 1.11-.14 2.22-.03 3.33.95.98 2.15 1.68 3.26 2.47 1.1 3.63 3.25 6.81 5.7 9.67l-.29 2.72-14.33-17.57c-2.91-3.55-5.68-7.22-8.54-10.81z"/><path fill="#fbf8ff" d="M289.2 279.29c.57.57.57.57 0 0z"/><path fill="#c0c0ca" d="M311.73 280.86l.88.14c4.4 1.12 8.87.09 13.31.05 2.43-.2 2.5 2.88 3.35 4.47l-7.83.87c-1.53.06-3.05.08-4.57.07l-2.4-.09-2.74-5.51z"/><path fill="#a8af97" d="M393.96 283.26c10.33-1.02 20.72-1.29 31.08-1.97 1.82.09 3.64.32 5.46.51l1.34.09 1.02 4.83c-2.21-.97-4.63-1.14-7-.82-3.7.45-7.48-.3-11.14.56-4.2.73-9.1 2.4-12.76-.71-1.57 1.43-3.37 3.83-5.72 2.37-1.13-1.43-1.63-3.21-2.28-4.86z"/><path fill="#423e3e" d="M335.45 286.3c3.04-.21 5.66-1.77 7.64-4.03 3.01.17 6.06.4 8.9 1.5l.85.29.55 2.03c-4.91.85-9.9 1.15-14.8 2.07l-2.74-.85-.77-.25-1.01-.47 1.38-.29z"/><path fill="#84684c" opacity=".61" d="M452.15 282.5l.53.34a9.57 9.57 0 0 1-.53-.34z"/><path fill="#5c5958" d="M274.94 283.8l3.83-1.42 4.74 3.02-.96 6.05 2.6 1.93-4.03 2.61 3.93 4.06-5.96-1.32-6.19 5.27 3.61 1.36.73 2.49c-2.36-1.16-4.86-.65-7.1.49-4.89.59-10.56-2.72-14.67 1.09-3.33-.58-6.73-2.18-10.12-1.16-1.46.38-2.88.85-4.3 1.31.39 2.1-.12 5.09 2.34 6.05 2.24.21 4.43-.62 6.38-1.64a123.1 123.1 0 0 0 .13 3.84c.24 2.39.68 4.75.93 7.15l.12 3.28c-3.27-.53-6.57-.71-9.86-.91-.26 1.51-.53 3.02-.72 4.54l1.74.74c-1.25 0-2.5.02-3.74-.01l-.59-6.51c-2.63.71-5.24 1.5-7.81 2.41.52-1.49 1.12-2.97 1.4-4.53-1.07-2.7-3.85-4.16-6.02-5.9 4.65-1.41 9.27-3.31 12.84-6.72a65.83 65.83 0 0 0-3.97-.06c3.27-1.84 6.37-3.95 9.39-6.15l-1.42-3.16c2.15 1.17 4.38 2.44 6.86 2.74 1.53-.22 2.89-1.04 4.28-1.66l-2.98-.81c-.11-2.39-.2-4.78-.16-7.18l-2.97-.05-1.31-3.32c4.56 2.45 10.35 2.15 14.3 5.62l-5.57.25-.5 4.08c2.64.89 5.29 1.76 8.02 2.32 2.28-.26 4.54-.69 6.8-1.11l-2.67-3.27c3.88-4.66 7.02-9.93 8.65-15.81m-39.67 33.47c.53.53.53.53 0 0z"/><path fill="#a4a4ab" d="M298 283.88l4.65-.49c-.36 3.57.02 7.16 1.04 10.6a67.86 67.86 0 0 1-6.56 2.97c-.14-2.21-.24-4.42-.09-6.63.26-2.16.62-4.3.96-6.45z"/><path fill="#bfffff" d="M306.32 284.37c1.26-1.54 3.44-.89 5.16-1.14l.24 5.19-1.24.66-3.51 1.77c-.31-2.15-.7-4.3-.65-6.48z"/><path fill="#cfcfd6" d="M331.44 283.65c1.51.59 2.9 1.44 4.01 2.65l-1.38.29-3.03-.82.4-2.12z"/><path fill="#adb4a0" d="M353.39 286.09c10.71-1.48 21.55-1.87 32.35-2.31-.99 1.31-1.86 2.72-2.58 4.2-6.59 1-13.29.7-19.91 1.45-4.71.54-9.43.09-14.14-.02-3.54-.11-7.44 1.1-10.52-1.25 4.9-.92 9.89-1.22 14.8-2.07z"/><path fill="#3c3c3d" d="M269.04 286.06l3.05-.06c-1.08 3.07-2.5 6.01-4.44 8.63-1.88-2.87.33-5.88 1.39-8.57z"/><path fill="#9ea193" d="M316.87 286.46l4.57-.07c4.34 1.37 9.26 2.57 13.64.67l.77.25c-1.25 1.5-2.02 3.8-4.1 4.33-4.59 1.5-8.61-2.24-13.18-2.14l.95 2.88c-1.81.11-3.63.33-5.44.1-1.42-.87-2.46-2.22-3.6-3.4l1.24-.66c2.87-.21 5.74-.35 8.6-.73a74.7 74.7 0 0 0-3.45-1.23z"/><path fill="#a2aa8d" d="M403.84 291.43c7.61.59 14.55-4.27 22.13-2.43l-1.26 2.03-9.27.74 1.13 4.94c-1.13.17-2.25.32-3.37.44-2.8-.04-5.58-.32-8.37-.38l.82-2.14a185.97 185.97 0 0 0 8.52.21c-3.41-1.25-6.86-2.37-10.33-3.41z"/><path fill="#b2b9a1" d="M368.25 291.54c9.99-.64 20.07-2.51 30.07-.9-5.9 3.49-13.1 2.97-19.69 2.9-6.32-.67-12.45 1.53-18.78 1.13-8.28 1.15-16.65 1.57-25.01 1.54-5.72-.11-11.67-.56-17.1 1.63l-.77.26c-3.88.58-7.9.33-11.52-1.29 1.65-.7 3.35-1.37 5.16-1.38 19.25-.65 38.4-3 57.64-3.89z"/><path d="M288.9 292.67l2.12-.22 4.13.66-.36 4.35-3.43.98c-1.01-1.84-1.9-3.75-2.46-5.77zm109.94 6.52l4.27-.36.59 3.32-5.43-.05.57-2.91z" fill="#eae7f3"/><path fill="#20211f" opacity=".5" d="M424.89 292.82l2.22-.76-2.22.76z"/><path fill="#acaab1" d="M402.73 293.67l1.31 3.24c-5.29 1.13-10.74 1.4-16.11.85 1.27-.73 2.52-1.52 3.77-2.3l-1.45-1.75c2.82.64 5.58 1.62 8.47 1.9 1.42-.44 2.7-1.25 4.01-1.94z"/><path fill="#716f6f" d="M240.25 295.02l6.97.02 2.97.05.16 7.18 2.98.81c-1.39.62-2.75 1.44-4.28 1.66-2.48-.3-4.71-1.57-6.86-2.74l-.29-.56.08-.74.2-1.6c-.55-1.41-1.25-2.75-1.93-4.08z"/><path fill="#6b6c6a" d="M367.03 299.05c2.67-.18 4.16-2.65 5.87-4.36l1.81 3.96c3.3-.77 6.61-1.59 10.01-1.8l-.78 1.47.56 1.74-5.49 2.88 6.68-.63c1.84.39 3.67.87 5.49 1.39l-1.19.26c-.28 2.2-.42 4.42-.6 6.63-2.18.43-4.34 1.11-6.57 1.09-2.44-.56-4.49-2.13-6.8-3.02-.44-1.48-.82-2.98-1.18-4.48-6.09-3.58-13.21-2-19.79-3.58-1.17-.06-2.12-.71-2.96-1.45 4.94.79 10.01.72 14.94-.1m3.72 1.33c1.92 2 4.68 2.49 7.33 2.61-1.47-2.92-4.43-3.06-7.33-2.61z"/><path fill="#d39c7c" d="M230.28 295.97c3.2 1.09 6.14 2.91 8.11 5.73-2.92 3.7-6.82 6.88-11.71 7.2l-.72-5.2a64.92 64.92 0 0 1 4.32-7.73z"/><path fill="#b9c2a3" d="M254.64 297.59l5.57-.25 4.9.4-2.95 6.25c-2.73-.56-5.38-1.43-8.02-2.32l.5-4.08z"/><path fill="#67676c" d="M387.93 297.76c5.37.55 10.82.28 16.11-.85l.79-.14c2.79.06 5.57.34 8.37.38 1.12 1.36 3.72 3.07 2.1 5-1.44 2.13-2.35 5.09-4.89 6.13-4.85.8-9.93-.18-14.63 1.59l-2.07.15c.78-1.44 1.59-2.86 2.42-4.27.97.54 1.93 1.11 2.9 1.68l.84-3.55c3.61-.9 7.25-.17 10.87.17 1.65-.69 2.98-1.95 4.41-2.99-3.53-2.52-7.86-2.96-12.04-2.23l-4.27.36c-3.04.25-6.05.76-8.98 1.55l2.16-1.27-4.79-1.77.7.06z"/><path fill="#525056" d="M288.79 298.8l2.57-.36-.9 4.13 3.41-.51-7.77 3.37-4.39 3.18-.79.01.28-.89.91-1.93 1.39-2.68 4.64-1.99.65-2.33z"/><path fill="#393231" d="M293.87 302.06c2.13-1.02 3.97-2.53 5.87-3.9l1.82 1.29-4.38 5.65-11.08.33c2.51-1.3 5.2-2.19 7.77-3.37z"/><path fill="#565653" d="M316.97 298.1l.77-.26c5.34 2.52 11.27 1.27 16.79.2l-1.23 4.13c2.27-1.36 4.47-2.85 6.73-4.21-2.2 3.33-4.82 6.37-7.09 9.66-.4-1.75.33-4.46-2.01-4.94-2.43.4-4.35 2.06-6.35 3.37a55.51 55.51 0 0 0 5.58 4.68c-4.59 3.78-9.28 7.87-15.25 9.19-2.5.92-4.98-.57-7.5-.41-1.79.07-3.57.29-5.34.56 1.37-.64 2.71-1.33 4.07-2.01-1.29-2.27-2.62-4.5-4.01-6.7l-3.91 1.26-2.08-4.19 1.78-.46-.74-2.87 4.38-5.65c3.16.07 6.03 1.37 8.46 3.34 2.29-1.61 4.55-3.26 6.95-4.69m-4.76 7.97c-3.09 3.02-1.99 7.81-2.29 11.69 3.44-3.56 8.74-3.52 12.72-6.13 1.55-.91 1.17-3.21.19-4.41-2.42-3.46-7.21-1.72-10.62-1.15z"/><path fill="#848488" d="M403.11 298.83c4.18-.73 8.51-.29 12.04 2.23-1.43 1.04-2.76 2.3-4.41 2.99-3.62-.34-7.26-1.07-10.87-.17l-.84 3.55-2.9-1.68c-1.58-.84-3.23-1.57-4.95-2.05-1.82-.52-3.65-1-5.49-1.39 1.39-.5 2.78-1.04 4.17-1.57 2.93-.79 5.94-1.3 8.98-1.55l-.57 2.91 5.43.05-.59-3.32z"/><path fill="#413f3d" d="M239.29 300.65l2.61.79.29.56 1.42 3.16c-3.02 2.2-6.12 4.31-9.39 6.15-4.3 1.7-8.97 1.27-13.46.81l-8.62-2.15c1.66-.18 3.67.33 5.06-.77 1.9-2.51 3.02-5.51 4.45-8.29 1.48.87 2.91 1.8 4.31 2.79l.72 5.2c4.89-.32 8.79-3.5 11.71-7.2l.9-1.05z"/><path fill="#f2f1f5" d="M278.55 302.7c1.86.08 3.05 1.41 3.56 3.1l-.91 1.93-2.65-5.03z"/><path fill="#686766" d="M324.58 306.05c2-1.31 3.92-2.97 6.35-3.37 2.34.48 1.61 3.19 2.01 4.94l-2.78 3.11a55.51 55.51 0 0 1-5.58-4.68z"/><path fill="#4f4f4e" d="M389.99 303.96l1.19-.26c1.72.48 3.37 1.21 4.95 2.05l-2.42 4.27 2.07-.15c-2.07.67-4.26.51-6.39.72l.6-6.63z"/><path fill="#666767" d="M312.21 306.07c3.41-.57 8.2-2.31 10.62 1.15.98 1.2 1.36 3.5-.19 4.41-3.98 2.61-9.28 2.57-12.72 6.13.3-3.88-.8-8.67 2.29-11.69z"/><path fill="#444242" d="M245.35 308.27c3.39-1.02 6.79.58 10.12 1.16 2.85.68 5.78 1.02 8.71 1-4.86.87-10.49-.03-14.41 3.56-1.95 1.02-4.14 1.85-6.38 1.64-2.46-.96-1.95-3.95-2.34-6.05 1.42-.46 2.84-.93 4.3-1.31z"/><path fill="#b88869" d="M294.29 308.8l1.85-.37 2.08 4.19c-6.32-.22-12.36 2.6-18.7 1.7-9.95-1.41-20.25-.05-29.62 3.51l-.13-3.84c3.92-3.59 9.55-2.69 14.41-3.56l2.6-.22c9.18.18 18.4-.18 27.51-1.41z"/><path fill="#c28c6f" d="M234.22 311.31l3.97.06c-3.57 3.41-8.19 5.31-12.84 6.72l-2.54-1.87-2.05-4.1c4.49.46 9.16.89 13.46-.81z"/><path fill="#6f6f6e" d="M298.22 312.62l3.91-1.26 4.01 6.7-4.07 2.01-.83.2-1.78-4.03-1.24-3.62z"/><path fill="#dda98b" d="M279.52 314.32c6.34.9 12.38-1.92 18.7-1.7.39 1.21.8 2.42 1.24 3.62-4.63 3.07-10.27 3.76-15.33 5.86-10.07 3.82-20.91 3.57-31.47 4.39l-1.83-1.51c-.25-2.4-.69-4.76-.93-7.15 9.37-3.56 19.67-4.92 29.62-3.51z"/><path fill="#4b4c4b" d="M222.81 316.22l2.54 1.87c2.17 1.74 4.95 3.2 6.02 5.9-.28 1.56-.88 3.04-1.4 4.53l7.81-2.41.59 6.51c-3.77.03-8.14-1.53-11.24 1.41a110.61 110.61 0 0 0 .23-4.04c.84-5.25-4.3-8.67-4.55-13.77z"/><path fill="#ba876c" d="M299.46 316.24l1.78 4.03-2.41.57c-4.58 1.01-9.14 2.15-13.71 3.26-2.2-.26-4.42.21-6.15 1.64l-5.76 1.34c-2.83.42-5.64.94-8.42 1.61-1.94.29-3.88.58-5.83.74a35.26 35.26 0 0 1-6.47-.83c-.39-.08-1.16-.26-1.54-.34l-.12-3.28 1.83 1.51c10.56-.82 21.4-.57 31.47-4.39 5.06-2.1 10.7-2.79 15.33-5.86z"/><path fill="#c8c5c8" d="M235.27 317.27c.53.53.53.53 0 0z"/><path fill="#464747" d="M241.09 327.35l9.86.91 1.54.34c.88.86 2.48 1.55 1.99 3.05-4.06.86-8.24.94-12.37.98l-1.74-.74c.19-1.52.46-3.03.72-4.54z"/><path fill="#4d372b" opacity=".6" d="M264.79 328.69l8.42-1.61a56.09 56.09 0 0 1-8.42 1.61z"/><path fill="#6f6c6c" d="M252.49 328.6a35.26 35.26 0 0 0 6.47.83l-1.16 2.44-.81 2.1c-4.46 2.23-8.98 4.57-13.98 5.3-5.82 1.51-11.42-1.86-15.88-5.24 3.1-2.94 7.47-1.38 11.24-1.41 1.24.03 2.49.01 3.74.01 4.13-.04 8.31-.12 12.37-.98.49-1.5-1.11-2.19-1.99-3.05z"/><path fill="#1e1e1e" opacity=".57" d="M256.99 333.97l.81-2.1-.81 2.1z"/></svg>