<svg xmlns="http://www.w3.org/2000/svg" width="682.667" height="682.667" viewBox="0 0 512 512" xmlns:v="https://vecta.io/nano"><path fill="#545653" d="M261.59 210.82c2.78-2.26 6.75-1.45 10.06-1.28 3.4 1.76 6.48 4.28 10.36 4.96-1.24.78-2.42 1.66-3.53 2.62-2.39-1.58-5.12-2.73-7.9-1.35l-3.58-1.36 1.83 4.3c-.24 5.09 3.04 9.34 4.28 14.11-1.38-.94-2.73-1.9-4.04-2.91-5.96-4.99-13.72-7.93-21.54-7.28-5.56.15-8 6.89-13.76 6.64 1.21-2.4 2.61-4.69 4.03-6.97l-1.62-.5-.2-.69c7.05-1.63 14.25-2.73 21.13-5.04l2.29-.08c.6 5 5.95 7.28 9.58 9.95-.57-1.67-1.03-3.41-1.99-4.9-1.35-1.4-3.2-2.18-4.62-3.49-.64-2.18-.61-4.48-.78-6.73m6.65.43c.56.56.56.56 0 0z"/><path d="M260.36 214.57l1.23-3.75c.17 2.25.14 4.55.78 6.73 1.42 1.31 3.27 2.09 4.62 3.49.96 1.49 1.42 3.23 1.99 4.9-3.63-2.67-8.98-4.95-9.58-9.95l-2.29.08c1.09-.48 2.17-.99 3.25-1.5zm-105.34 28.35l2.69-3.91c.56 3.01 1.42 6 1.58 9.07-.4 1.84-1.28 3.54-1.93 5.3-2.3-1.53-3.21-4.21-4.33-6.59l1.71-6.94.28 3.07z" fill="#383938"/><path fill="#dad7da" d="M268.24 211.25c.56.56.56.56 0 0z"/><path fill="#99948b" d="M267 214.41l3.58 1.36c3.04 4.51 6.43 8.93 8.45 14.02.79 5.4-1.04 10.79-1.32 16.18-2.64-.61-2.04-3.93-2.48-5.95-.97-7.28-.28-16.07-6.4-21.31l-1.83-4.3z"/><path fill="#606260" d="M270.58 215.77c2.78-1.38 5.51-.23 7.9 1.35 1.11-.96 2.29-1.84 3.53-2.62 6.12 1.57 7.96 8.38 12.18 12.32-1.31 4.95-1.05 10.09-.89 15.17.27 5.97-2.01 11.63-2.4 17.54 3.81-.82 7.73-.98 11.49-2.04.45-1.89.9-3.78 1.2-5.7.09 2.76.32 5.52.46 8.28-4.9.98-8.83 4.74-13.98 4.72-2.4-2.24-.87-5.17.06-7.7-1.36.96-2.7 1.96-4 3l.75 4.73-3.13 2.95c.59 2.13 1.41 4.19 1.96 6.34.18 2.69-1.09 5.3-2.79 7.33l-2.8-2.06 2.17-4.07c.42-3.1 1.7-7.18-1.14-9.5-3.63-3.86-9.18-4.4-14.13-5.02l-1.86-5.03-2.31 4.69c-2.24-.33-4.61-.5-6.52-1.83-2.19-1.35-2.74-4.02-3.67-6.22-1.05-3.05-3.29-5.44-4.89-8.18 6.18 2.95 12.14 6.64 19.04 7.66-.19-2.88-1.87-5.26-3.46-7.54l3.52-.69c-.43-3.02-4.27-2.42-6.48-2.33-3.58.5-6.83-1.33-10.13-2.37 1.29 2.01 2.56 4.03 3.71 6.14-2.5-.78-4.59-2.37-6.89-3.55-1.37.09-2.68.49-3.99.86-2.72.96-5.49 1.85-7.98 3.33-.8.69-1.58 1.41-2.34 2.15.84-4.98 4.84-8.55 8.78-11.3 6.86-3.79 15.46-3.91 22.57-.66 1.58 1.86 2.89 3.94 4.29 5.94.73-.91 1.72-1.67 2.14-2.79-.8-3-1.66-6.02-1.48-9.16 1.31 1.01 2.66 1.97 4.04 2.91-1.24-4.77-4.52-9.02-4.28-14.11 6.12 5.24 5.43 14.03 6.4 21.31.44 2.02-.16 5.34 2.48 5.95.28-5.39 2.11-10.78 1.32-16.18-2.02-5.09-5.41-9.51-8.45-14.02m12.76 2.01l.8 1.94-.99 1.35c1.72 5.53 2.78 11.24 3.35 17l-.78 15.6c-1.93-2.17-3.72-5.8-7.14-5.23-1.47.31-3.93-.55-4.43 1.37 1.53.71 3.57.87 4.46 2.5 1.02 1.54 1.21 3.42 1.61 5.19l-3.43-.55c.61 4.23 5.36 5.12 8.49 6.92-.39-2.68-1.53-5.38-.83-8.1l2.82-.46.38.83c2.5-4.21 2.59-9.26 3.64-13.92 1.49-7.49-.76-15.02-3.6-21.89-.74-1.76-2.68-2.19-4.35-2.55z"/><path fill="#929088" d="M283.34 217.78c1.67.36 3.61.79 4.35 2.55 2.84 6.87 5.09 14.4 3.6 21.89-1.05 4.66-1.14 9.71-3.64 13.92l-.38-.83c.15-7.56 2.12-15.23.36-22.73-.96-4.34-1.66-8.78-3.49-12.86l-.8-1.94z"/><path fill="#5c5e5a" d="M213.33 225.35c2.51-4.1 7.53-6.48 12.27-6.29l.73 2.57c-1.7 4.36-4.33 8.52-4.56 13.32-.35 5.07-.8 10.2-.05 15.26-1.62-2.44-2.97-5.19-2.54-8.2.55-5.3.04-10.63.54-15.92-1.76.85-4.76.91-4.8 3.46-.41 4.37-2.72 8.82-1.11 13.18 1.35 3.91 2.33 8.11 5.16 11.28 2.15 2.52 3.41 6.61 7.33 6.53-.53 5.49.67 10.93 1.4 16.34.94 2.68 3.34 4.55 5.09 6.72-.03 1.62.1 3.23.31 4.84-3.21-.63-4.87-3.8-6.31-6.42-1.43-2.66-1.04-5.76-1.21-8.66l-2.74-.88c-6.24-2.52-11.31-6.95-16.16-11.47-1.11 4.24-1.76 8.58-2.53 12.89-1.92-1.41-4.1-2.51-5.74-4.27-1.29-3.71.17-7.59.53-11.33-2.3-1.51-4.83-2.62-7.53-3.18l-.85 4.97c-1.25-2.44-1.75-5.15-2.12-7.84l-2.51.6c1.14-2.72 2.12-6.32 5.01-7.59 3.31.96 6.81 1.98 9.33 4.47l1.88-2.88c2.32 4.83 4.02 10.19 7.91 14.07 3.79 3.92 8.24 7.18 13 9.84l-.52-2.33c-3.18-7.16-11.51-11.11-12.92-19.15-1.1-4.36-2.85-8.54-3.64-12.99-.31-.14-.95-.4-1.27-.54 2.66-3.64 5.99-6.73 8.62-10.4z"/><path fill="#757371" d="M283.15 221.07l.99-1.35c1.83 4.08 2.53 8.52 3.49 12.86 1.76 7.5-.21 15.17-.36 22.73l-2.82.46c-.7 2.72.44 5.42.83 8.1-3.13-1.8-7.88-2.69-8.49-6.92l3.43.55c-.4-1.77-.59-3.65-1.61-5.19-.89-1.63-2.93-1.79-4.46-2.5.5-1.92 2.96-1.06 4.43-1.37 3.42-.57 5.21 3.06 7.14 5.23.41-5.2.46-10.4.78-15.6-.57-5.76-1.63-11.47-3.35-17z"/><path fill="#4a4c4b" d="M226.33 221.63c3.22.08 6.46.01 9.65-.52l.2.69c-3.16 4.29-7.17 7.98-9.92 12.55-.77 4.18-1.09 8.43-1.73 12.64-.64 3.89 1.52 7.39 2.52 11.01-2.55-2-3.75-5.08-5.33-7.79-.75-5.06-.3-10.19.05-15.26.23-4.8 2.86-8.96 4.56-13.32z"/><path fill="#777673" d="M226.26 234.35c2.75-4.57 6.76-8.26 9.92-12.55l1.62.5c-1.42 2.28-2.82 4.57-4.03 6.97 5.76.25 8.2-6.49 13.76-6.64 7.82-.65 15.58 2.29 21.54 7.28-.18 3.14.68 6.16 1.48 9.16-.42 1.12-1.41 1.88-2.14 2.79-1.4-2-2.71-4.08-4.29-5.94-3.71-4.83-10.04-6.37-15.73-7.4-4.09-.33-9.11-.56-12.05 2.85-2.23 2.42-4.82 4.55-6.68 7.28-1.76 3.55-2.02 7.61-2.19 11.51 2.1.11 4.06-.48 5.3-2.28.76-.74 1.54-1.46 2.34-2.15 2.84 6.4-4.81 11.04-4.81 17.28 0 3.63-1.45 7.65.72 10.93 1.86 3.39 4.86 6.01 8.31 7.7 3.34 1.62 6.37 3.91 9.89 5.13 3.12.29 6.23-.75 9.34-.21 2.18.36 4.33.88 6.52 1.23-5.39-4.55-15.12-3.25-18.02-10.65l1.97-.89c7.06 3.51 14.42 7.47 22.46 7.68l.31-.92 1-3.27c3.27-1.23 6.61-2.39 9.49-4.43-.69 1.37-1.43 2.71-2.17 4.07l2.8 2.06-.82.68c-2.05-.06-4.32-1.26-6.25-.34-1.57 2.66-1.72 5.85-3 8.62-2.07 2.88-4.43 5.54-6.68 8.27-3.42-4.6-9.16-.83-12.69 1.54.59 1.09 1.19 2.18 1.87 3.22l.56.64c-5.02-1.79-10.35-2.19-15.63-2.15l2.14-2.63 1.09-1.38a80.62 80.62 0 0 1-3.37-4.64c3.32.22 6.73.82 9.99-.23-5.29-4.01-12.07-5.34-17.34-9.44-1.75-2.17-4.15-4.04-5.09-6.72-.73-5.41-1.93-10.85-1.4-16.34-3.92.08-5.18-4.01-7.33-6.53-2.83-3.17-3.81-7.37-5.16-11.28-1.61-4.36.7-8.81 1.11-13.18.04-2.55 3.04-2.61 4.8-3.46-.5 5.29.01 10.62-.54 15.92-.43 3.01.92 5.76 2.54 8.2 1.58 2.71 2.78 5.79 5.33 7.79-1-3.62-3.16-7.12-2.52-11.01.64-4.21.96-8.46 1.73-12.64m41.51 58.57c2.57-1.85 3.44-5.26 4.41-8.13-4.2-.54-4.45 5.15-4.41 8.13m-17.31 1.88a91.4 91.4 0 0 0 .22 5.72l2.07.23c.43-1.46 1.33-2.92.99-4.49-.89-.86-2.18-1.02-3.28-1.46z"/><path fill="#8d8e85" d="M294.19 226.82l2.63 1.56c3.76 2.65 9.4 4.3 10.3 9.44-2.16 4.36-3.33 9.11-3.53 13.97-.3 1.92-.75 3.81-1.2 5.7-3.76 1.06-7.68 1.22-11.49 2.04.39-5.91 2.67-11.57 2.4-17.54-.16-5.08-.42-10.22.89-15.17z"/><path fill="#525351" d="M161.87 228.86c4.1-2.72 8.55 1.23 12.88.21 4.51-.87 9.32-1.3 13.61.7-4.12.74-8.56 1.84-11.17 5.41-4.03 4.68-2.61 11.22-2.58 16.86l2.42.91-2.02 1.42a112.25 112.25 0 0 0-6.53-2.71l2.04 5.15c-1.79 3.92-2.26 8.28-4.12 12.18l-.45-2.42c-1.56.66-3.13 1.27-4.72 1.84-1.46-1.85-2.94-3.67-4.47-5.46-1.07 2.3-2.37 4.83-1.51 7.42.45 2.61 2.88 4.03 4.82 5.51 3.27-.55 6.12-2.47 6.4-6.04.9 3.95-.28 7.91-2.55 11.17l-4.1.32c-1.63-.5-2.99-1.57-4.32-2.57 1.78-.24 3.57-.23 5.36-.05-2.26-1.5-4.84-2.85-6.28-5.24-1.26-3.01-1.4-6.36-2.56-9.4-.94-.57-1.93-1.03-2.98-1.39-.74-3.75.82-7.31 1.83-10.83l1.9-4.16c.05 2.95.53 6.9 4.07 7.56 3.98 1 8.31 3.94 12.32 1.52-3.5-2.47-8.1-1.38-11.8-3.39.65-1.76 1.53-3.46 1.93-5.3-.16-3.07-1.02-6.06-1.58-9.07l-2.69 3.91-.28-3.07c.97-4.32 3.46-8.46 7.13-10.99z"/><path fill="#514c46" d="M236.34 231.37c2.94-3.41 7.96-3.18 12.05-2.85 5.69 1.03 12.02 2.57 15.73 7.4-7.11-3.25-15.71-3.13-22.57.66-3.94 2.75-7.94 6.32-8.78 11.3-1.24 1.8-3.2 2.39-5.3 2.28.17-3.9.43-7.96 2.19-11.51 1.86-2.73 4.45-4.86 6.68-7.28z"/><path fill="#636464" d="M296.82 228.38c4.98.92 10.27-.21 14.88 2.42l1.59-3.11c2 .23 3.99.56 5.95 1.07.37 2.34 2 5.26-.28 7.14-2.3 2.03-1.61 5.29-1.98 8.01-.51 4.42-.75 9-2.42 13.18-1.45-.09-2.9-.16-4.35-.05 1.72-6.06 2-12.4 3.44-18.52l1.96-1.17-2.83-1.06-2.06-3.37c-.47 1.66-.82 3.36-.85 5.09-.35-1.71-.76-3.4-1.17-5.09l-1.58 4.9c-.9-5.14-6.54-6.79-10.3-9.44z"/><path fill="#505150" d="M319.24 228.76c5.25 1.12 8.89 5.07 12.24 8.95 7.64 3.12 16.07 3.08 24.06 4.77 7.65 2.59 14.52 9.25 15.28 17.56.68 3.81-3.12 6.26-3.28 9.84-1.07-.81-2.09-1.68-3.08-2.57l-.48-2.34 1.74-2.8c1.72-1.93.24-4.41-.67-6.33-1.9-3.84-5.42-6.63-9.45-7.98l-.28 5.81-2.65 1.89c-1.51-4.02-2.66-8.16-3.95-12.25l-2.51-1.42c.62 2.66 3.72 7.41-.11 8.69-1.08-2.04-1.34-5.03-3.74-6-3.13-.41-6.23-.95-9.27-1.79-.19 3.92-1.28 8.46 1.51 11.74.56 5.08-1.83 10.46.15 15.34.68.77 1.39 1.51 2.15 2.21-3.82-.62-6.96-2.86-9.97-5.13l.93-1.64c1.69.94 3.42 1.85 5.17 2.72-.78-2.87-1.76-5.67-2.99-8.37-1.55-.53-4.42.42-4.84-1.61 2.09-3.26 5.72-6.48 4.64-10.77-1.22-3.22-2.78-7.14-6.47-8.06l-.79 2.87c-1.99.19-3.9.76-5.6 1.82.37-2.72-.32-5.98 1.98-8.01 2.28-1.88.65-4.8.28-7.14z"/><path fill="#71716c" d="M177.19 235.18c2.61-3.57 7.05-4.67 11.17-5.41 5.44 2.01 10.53 5.14 16.35 5.98l1.27.54c.79 4.45 2.54 8.63 3.64 12.99 1.41 8.04 9.74 11.99 12.92 19.15-5.65-4.23-10.34-9.64-14.57-15.24-1.03-3.97-1.58-8.09-3.47-11.79l-1.96-.1-.39 5.55a109.37 109.37 0 0 1-1.88 2.88c-2.52-2.49-6.02-3.51-9.33-4.47-2.89 1.27-3.87 4.87-5.01 7.59.51 2.87 1.08 5.74 1.29 8.66l-4.09-.15-1.34 3.84c2.74 2.63 6.48 2.34 9.72.94l-.95 2.71c3.33 1.38 6.96 2.4 9.65 4.92 2.79 2.57 5.15 5.57 7.92 8.16-2.78-.52-5.31-1.8-7.38-3.72l-.62 1.57c-1.51-1.76-3.5-3.04-5.91-2.8a148.25 148.25 0 0 0 1.62 4.91c-3.16-3.27-7.01-5.93-11.71-6.11-1.8-.27-3.6-.44-5.41-.56-3.6-3.04-2.22-7.94.42-11.08l-2.31-2.52c-1.82-1.95-4.08-3.4-6.31-4.81l-2.04-5.15a112.25 112.25 0 0 1 6.53 2.71l2.02-1.42-2.42-.91c-.03-5.64-1.45-12.18 2.58-16.86z"/><path fill="#41413b" d="M307.12 237.82l1.58-4.9 1.17 5.09.23 1.37c-.96.6-1.86 1.28-2.68 2.05-2.54 6.67-.95 13.83-1.27 20.74l-2.1-2.1-.46-8.28c.2-4.86 1.37-9.61 3.53-13.97z"/><path fill="#9a9b9e" d="M309.87 238.01c.03-1.73.38-3.43.85-5.09l2.06 3.37 2.83 1.06-1.96 1.17c-1.44 6.12-1.72 12.46-3.44 18.52a90.09 90.09 0 0 0-2.93.83c2.64-5.7 3.5-12.29 2.82-18.49l-.23-1.37z"/><path fill="#737574" d="M250.26 238.95c3.3 1.04 6.55 2.87 10.13 2.37 2.21-.09 6.05-.69 6.48 2.33l-3.52.69c1.59 2.28 3.27 4.66 3.46 7.54-6.9-1.02-12.86-4.71-19.04-7.66 1.6 2.74 3.84 5.13 4.89 8.18.93 2.2 1.48 4.87 3.67 6.22 1.91 1.33 4.28 1.5 6.52 1.83l2.31-4.69 1.86 5.03-2.49.68-1.47 2.48-1.59 2.57-3.48.86-2.04-1.21c-4.7-7.51-16.05-9.58-17.81-19.06l1.87-1.16c.92.63 1.85 1.26 2.74 1.95.94.88 1.82 1.83 2.81 2.67 1.46.69 2.66-.56 3.67-1.43l-2.79-3.67c-1.01-1.14-2.17-2.12-3.35-3.07 1.31-.37 2.62-.77 3.99-.86 2.3 1.18 4.39 2.77 6.89 3.55-1.15-2.11-2.42-4.13-3.71-6.14z"/><path fill="#43413f" d="M323.37 239.22c3.69.92 5.25 4.84 6.47 8.06 1.08 4.29-2.55 7.51-4.64 10.77.42 2.03 3.29 1.08 4.84 1.61 1.23 2.7 2.21 5.5 2.99 8.37-1.75-.87-3.48-1.78-5.17-2.72l-.93 1.64-4.43.32 1.93 3.19c-3.44 5.33-9.93 7.01-15.5 9.19l-2.9-1.38c1-.24 1.49-.84 1.48-1.79-1.4-1-2.91-1.84-4.37-2.72l1.94-5.91c-1.63-.43-3.25-.93-4.7-1.81 2.7-1.53 6.16-1.85 8.23-4.35 1.7-1.89 3.98-3.05 5.95-4.6 1.67-4.18 1.91-8.76 2.42-13.18 1.7-1.06 3.61-1.63 5.6-1.82l.79-2.87z"/><path fill="#55534e" d="M307.42 241.43c.82-.77 1.72-1.45 2.68-2.05.68 6.2-.18 12.79-2.82 18.49l2.93-.83c1.45-.11 2.9-.04 4.35.05-1.97 1.55-4.25 2.71-5.95 4.6-2.07 2.5-5.53 2.82-8.23 4.35 1.45.88 3.07 1.38 4.7 1.81l-3.87.45c-.85 2.76-1.51 6.62 1.55 8.28-2.9 1.02-4.12 4.09-6.24 6.1.83 2.38 2.62 3.89 5.27 3.25l-1.2.66c-3.33.57-4.24 5.79-7.81 4.81 1.21-2.03 2.7-3.98 3.22-6.33-.7-.94-1.5-1.79-2.29-2.65 2.2-2.36 3.52-5.43 2.97-8.7-1.89-.03-3.8-.01-5.68-.32-.44-1.25-.54-2.58-.7-3.88-2.08-.93-4.31-1.45-6.55-1.75l3.13-2.95-.75-4.73c1.3-1.04 2.64-2.04 4-3-.93 2.53-2.46 5.46-.06 7.7 5.15.02 9.08-3.74 13.98-4.72l2.1 2.1c.32-6.91-1.27-14.07 1.27-20.74z"/><path fill="#908d85" d="M202.54 241.3l1.96.1c1.89 3.7 2.44 7.82 3.47 11.79 4.23 5.6 8.92 11.01 14.57 15.24l.52 2.33c-4.76-2.66-9.21-5.92-13-9.84-3.89-3.88-5.59-9.24-7.91-14.07l.39-5.55z"/><path fill="#61605d" d="M346.21 241.89l2.51 1.42c1.29 4.09 2.44 8.23 3.95 12.25-2.77-2.09-5.72-5.34-9.5-4.76-2.51 1.27-3.99 3.81-5.48 6.08-1.95 3.37-3.12 7.21-3.01 11.13l.07 1.86c-1.98-4.88.41-10.26-.15-15.34-2.79-3.28-1.7-7.82-1.51-11.74 3.04.84 6.14 1.38 9.27 1.79 2.4.97 2.66 3.96 3.74 6 3.83-1.28.73-6.03.11-8.69z"/><path fill="#918f88" d="M235.11 245.73c2.49-1.48 5.26-2.37 7.98-3.33 1.18.95 2.34 1.93 3.35 3.07l-3.69 2.43-2.74-1.95-1.87 1.16c1.76 9.48 13.11 11.55 17.81 19.06-5.72-1.8-9.4-6.62-14.04-10.06 1.92 4.22 3.08 8.74 5.02 12.93 3.11 1.95 5.45 6.37 9.61 5.58 2.04-2.1 3.8-4.48 6.04-6.38-1.54-.23-3.08-.47-4.59-.86l3.48-.86 1.59-2.57c3.4-2.46 7.32-.49 10.12 1.9 1.52 2.41 1.87 5.8-.86 7.47l1.4 3.01-7.05 1.51c-.54-1.94-.09-5.37-2.81-5.61-3-.47-4.14 2.92-5.65 4.82 3.93 3.21 9.43 3.08 13.59 5.96l-.31.92c-8.04-.21-15.4-4.17-22.46-7.68l-1.97.89c2.9 7.4 12.63 6.1 18.02 10.65-2.19-.35-4.34-.87-6.52-1.23-3.11-.54-6.22.5-9.34.21-3.52-1.22-6.55-3.51-9.89-5.13-3.45-1.69-6.45-4.31-8.31-7.7-2.17-3.28-.72-7.3-.72-10.93 0-6.24 7.65-10.88 4.81-17.28z"/><path fill="#b1b3af" d="M242.75 247.9l3.69-2.43 2.79 3.67c-1.01.87-2.21 2.12-3.67 1.43-.99-.84-1.87-1.79-2.81-2.67z"/><path fill="#6f6d68" d="M153.03 246.79c1.12 2.38 2.03 5.06 4.33 6.59 3.7 2.01 8.3.92 11.8 3.39-4.01 2.42-8.34-.52-12.32-1.52-3.54-.66-4.02-4.61-4.07-7.56l.26-.9z"/><path fill="#73716e" d="M355.6 247.86c4.03 1.35 7.55 4.14 9.45 7.98.91 1.92 2.39 4.4.67 6.33-1.16-1.41-1.24-3.25-1.34-4.99-3.02-.34-5.48 1.42-7.64 3.29-1.62-1.41-2.84-3.18-4.07-4.91l2.65-1.89.28-5.81z"/><path fill="#ebba99" d="M337.69 256.88c1.49-2.27 2.97-4.81 5.48-6.08 3.78-.58 6.73 2.67 9.5 4.76 1.23 1.73 2.45 3.5 4.07 4.91 2.61 2.24 5.19 4.51 7.72 6.84.99.89 2.01 1.76 3.08 2.57l3.74 2.49c.11.07.32.22.42.29l6.82 4.35c-3.04 6.4-10.7 4.22-16.28 4.14-7.37-5.74-16.49-9.43-22.32-17.01-1.67-2.04-1.73-4.8-2.23-7.26z"/><path fill="#434445" d="M185.93 252.85l2.51-.6c.37 2.69.87 5.4 2.12 7.84l.85-4.97c2.7.56 5.23 1.67 7.53 3.18-.36 3.74-1.82 7.62-.53 11.33 1.64 1.76 3.82 2.86 5.74 4.27 3.02 2.98 5.98 6.04 8.82 9.2-1.62-.37-3.24-.73-4.84-1.17-2.77-2.59-5.13-5.59-7.92-8.16-2.69-2.52-6.32-3.54-9.65-4.92l.95-2.71c-3.24 1.4-6.98 1.69-9.72-.94l1.34-3.84 4.09.15c-.21-2.92-.78-5.79-1.29-8.66z"/><path fill="#a29e94" d="M241.91 256.11c4.64 3.44 8.32 8.26 14.04 10.06l2.04 1.21c1.51.39 3.05.63 4.59.86-2.24 1.9-4 4.28-6.04 6.38-4.16.79-6.5-3.63-9.61-5.58-1.94-4.19-3.1-8.71-5.02-12.93z"/><path fill="#333435" d="M166.4 268.99c1.86-3.9 2.33-8.26 4.12-12.18 2.23 1.41 4.49 2.86 6.31 4.81-1.11.93-3.09 1.48-3.09 3.2-.4 3.84-.53 7.86-2.56 11.29-1.97 4.16-6.93 6.34-11.36 5.22l4.1-.32c2.27-3.26 3.45-7.22 2.55-11.17l-.07-.85z"/><path fill="#cc9f80" d="M334.68 268.01c-.11-3.92 1.06-7.76 3.01-11.13.5 2.46.56 5.22 2.23 7.26 5.83 7.58 14.95 11.27 22.32 17.01-2.15.01-4.29.14-6.43.19-1.96-.98-3.91-2-5.83-3.06-4.3-4.5-10.27-6.74-15.3-10.27z"/><path fill="#8c8b8e" d="M356.74 260.47c2.16-1.87 4.62-3.63 7.64-3.29.1 1.74.18 3.58 1.34 4.99l-1.74 2.8.48 2.34c-2.53-2.33-5.11-4.6-7.72-6.84z"/><path fill="#81817a" d="M206.68 261.01c4.85 4.52 9.92 8.95 16.16 11.47l.07.93c-.81 3.18-.69 6.46-.97 9.7-.21 2.43-2.18 4-3.95 5.39-.16.75-.3 1.51-.44 2.28-1.77-1.43-3.5-2.94-5.54-3.96l-1.22 1.19c1.03 2.54 2.58 4.83 3.86 7.25-2.26-1.71-3.91-4.05-6.01-5.9-2.83-1.5-5.99-2.22-8.97-3.36 1.07-1.96 1.36-4.13.46-6.22l.62-1.57c2.07 1.92 4.6 3.2 7.38 3.72 1.6.44 3.22.8 4.84 1.17-2.84-3.16-5.8-6.22-8.82-9.2.77-4.31 1.42-8.65 2.53-12.89z"/><path fill="#817f78" d="M264.53 261.47l2.49-.68c4.95.62 10.5 1.16 14.13 5.02 2.84 2.32 1.56 6.4 1.14 9.5-2.88 2.04-6.22 3.2-9.49 4.43l-1 3.27c-4.16-2.88-9.66-2.75-13.59-5.96 1.51-1.9 2.65-5.29 5.65-4.82 2.72.24 2.27 3.67 2.81 5.61l7.05-1.51-1.4-3.01c2.73-1.67 2.38-5.06.86-7.47-2.8-2.39-6.72-4.36-10.12-1.9l1.47-2.48z"/><path fill="#383b3d" d="M149.04 262.68c1.05.36 2.04.82 2.98 1.39 1.16 3.04 1.3 6.39 2.56 9.4 1.44 2.39 4.02 3.74 6.28 5.24-1.79-.18-3.58-.19-5.36.05l-2.43-2.13c-3.03-4-3.66-9.09-4.03-13.95z"/><path fill="#7a797c" d="M156.76 262.95l4.47 5.46 4.72-1.84.45 2.42.07.85c-.28 3.57-3.13 5.49-6.4 6.04-1.94-1.48-4.37-2.9-4.82-5.51-.86-2.59.44-5.12 1.51-7.42z"/><path fill="#212326" d="M322.5 267.27l4.43-.32c3.01 2.27 6.15 4.51 9.97 5.13l1.17.88-1.4.98-.87.44c-2.62-1.46-5.25-2.9-7.96-4.16.53 2.4 1.22 4.77 2.04 7.1l5.17.87c.01 2.31-2.69 2.1-4.31 2.56l-.94.04-1.72.1-.84.12.39-1.83c-4.5-.12-9 .21-13.43 1.07-1.78.41-3.6.06-5.27-.6 5.57-2.18 12.06-3.86 15.5-9.19l-1.93-3.19z"/><path fill="#65677d" d="M283.75 267.77c2.24.3 4.47.82 6.55 1.75.16 1.3.26 2.63.7 3.88 1.88.31 3.79.29 5.68.32.55 3.27-.77 6.34-2.97 8.7l2.29 2.65c-.52 2.35-2.01 4.3-3.22 6.33l-2.48-.72c-3.32-.06-5.06 3.36-4.33 6.32 1.22-.88 2.4-1.85 3.28-3.1l1.72 2.21-2.02 2.87c-1.65-.27-1.98.21-.97 1.42-1.3.97-2.95 1.1-4.49 1.37l-1.47 3.53c-.21-1.02-.53-3.13-1.99-2.8-.85 1.22-.02 2.94 1.04 3.76l-1.93.65-5.34-4.96c1.7-1.44 3.48-2.77 5.35-3.98 1.99.4 4.01.76 6.05.59l-3.19-3.38 3.03-2.33c-1-3.57-1.16-7.41-2.94-10.73l.82-.68c1.7-2.03 2.97-4.64 2.79-7.33-.55-2.15-1.37-4.21-1.96-6.34z"/><path d="M301.21 268.3l3.87-.45-1.94 5.91 4.37 2.72c.01.95-.48 1.55-1.48 1.79l-3.27-1.69c-3.06-1.66-2.4-5.52-1.55-8.28zm120.55 28.9c1.98-3.02 5.85-2.88 9.03-2.7l3.61.84.54 1.23-3.76.03-5.86 7.75c-2.89 1.04-6.1.7-9.13 1.02-1.04 3.73-1.07 9.11-4.89 11.07-3.37-.02-6.78-.05-10.11-.65-3.62-.63-6.64-2.91-10.1-4.02-2.76-.9-5.55.32-8.25.84-3.32-.23-6.48-1.48-9.7-2.25-1.7-.72-3.29-1.64-4.92-2.48 1.28-1.81 3.43-2.06 5.48-2.13l.52.86c-1.5.06-2.98.17-4.46.34 1.45 1.56 3.5 2.41 5.58 1.55 1.53 1.35 3.57 1.69 5.56 1.52 3.54-.82 7.13-1.47 10.61-2.51l.69-1.34c-3.09-.62-6.21-1.06-9.25-1.86l-1.36-.42c1.83-.5 3.74-.63 5.42.41 5.53 1.71 11.53-.13 17.25.31l3.35.19c4.81.4 9.6-.4 14.39-.77 1.31.01 2.44-.6 3.5-1.31-2.45.04-4.89.23-7.33.37l-3.16-3.13c3.6.01 7.21.22 10.8-.16l.21-2.21-4.26-.39m-24.18 10.83c-.17 2.44 2.91 2.12 4.49 2.78.57-1.13.78-2.37.83-3.62-1.72.14-4.1-.75-5.32.84m8.34-.91l-.07 2.58c1.41.81 2.72 1.79 3.87 2.96.77-1.72 1.34-3.53 1.37-5.42a111.8 111.8 0 0 0-5.17-.12m-18.39 2.18c.18 1.43 3.85 1.43 3.99-.04-1.1-.84-2.92-.82-3.99.04z" fill="#747478"/><path fill="#9d7b65" d="M334.68 268.01c5.03 3.53 11 5.77 15.3 10.27l-1.63-.54c-1.97-.99-3.88-2.09-5.77-3.22-1.71-1.56-3.9-1.34-5.91-.58l1.4-.98-1.17-.88c-.76-.7-1.47-1.44-2.15-2.21l-.07-1.86z"/><path opacity=".74" d="M389.62 269.39l3.68-.07.88 4.3c4.35 4.15 10.55 2.47 15.77 4.32 6.54 1.83 13.97-.19 20.14 2.88 1.07 3.22.33 6.74.35 10.08l-.72-.48-.07-8.27c-10.48-1-21.03.72-31.54-.06-1.8-.69-3.42-1.77-5.23-2.44-2.24.02-4.11 1.52-6.07 2.43l-3.87-2.84c2.8-2.85 5.06-6.19 6.68-9.85z"/><path fill="#434546" d="M327.84 270.22l7.96 4.16.57 2.73c2.5.62 4.49-1 6.21-2.59l5.77 3.22.01 1.09-.96-.3c-2.62-.97-5.41-.85-8.11-.41l-.41 7.08-1.11-4.12c-2.33-.37-4.68-.48-7.03-.33 1.62-.46 4.32-.25 4.31-2.56l-5.17-.87c-.82-2.33-1.51-4.7-2.04-7.1z"/><path fill="#202122" d="M222.84 272.48l2.74.88c.17 2.9-.22 6 1.21 8.66 1.44 2.62 3.1 5.79 6.31 6.42 1.05.39 2.07.88 3.08 1.38l-.09 1.97-4.95.24c-2.83-2.63-5.55-5.64-6.81-9.36-.66-3.06-.79-6.2-1.42-9.26l-.07-.93z"/><path fill="#5e4332" opacity=".64" d="M371.28 272.37l.42.29-.42-.29z"/><path fill="#c5c6d1" d="M336.67 273.94c2.01-.76 4.2-.98 5.91.58-1.72 1.59-3.71 3.21-6.21 2.59l-.57-2.73.87-.44z"/><path fill="#575858" d="M221.94 283.11c.28-3.24.16-6.52.97-9.7.63 3.06.76 6.2 1.42 9.26 1.26 3.72 3.98 6.73 6.81 9.36l-1.11 1.89-2.01-.42c-1.6 1.47-3.35 2.9-4.32 4.88-.39 2.84.32 5.69.56 8.52l-1.39-.44c-.75-3.24-3.16-5.51-6.59-5.37-.46 1.49-.85 2.99-1.18 4.52 2.76 1.75 5.49 4.15 8.92 4.27 3.79-.27 7.46-1.33 11.24-1.75-3.71 3.52-9.33 2.83-14.04 3.45l-.18 2.12c-4.82-3.32-11.65-2-16.38-5.52l2.96-1.5c-3.76-5.47-7.89-10.79-10.24-17.06-.48-1.76-2.43-2.1-3.77-2.97-2.22-1.46-4.05-3.41-5.76-5.41-1.28-1.8-2.48-3.64-3.72-5.46 4.7.18 8.55 2.84 11.71 6.11a148.25 148.25 0 0 1-1.62-4.91c2.41-.24 4.4 1.04 5.91 2.8.9 2.09.61 4.26-.46 6.22 2.98 1.14 6.14 1.86 8.97 3.36 2.1 1.85 3.75 4.19 6.01 5.9-1.28-2.42-2.83-4.71-3.86-7.25l1.22-1.19c2.04 1.02 3.77 2.53 5.54 3.96l.44-2.28c1.77-1.39 3.74-2.96 3.95-5.39z"/><path d="M442.68 276.87c1.4-1.19 2.67-2.61 4.36-3.42l3.44 1.22c.15 2.28-.91 5.03 1.23 6.68l2.31.49 2.45 3.65c2.57.49 5.21.81 7.77.06 3.45-1.22 6.83-.05 9.77 1.82 3 .39 6.04.33 9.05.05 3.01-.39 5.8 1.03 8.73 1.43 2.37.64 5.1.95 6.75 3.01l-2.03 3.36 1.55.25c-3.56.16-7.23-.43-10.61 1.02-2.97 1.22-6.2.51-9.3.6-4.04-.92-7.11 2.33-10.89 2.65-4.91-1.35-11.84-1.88-14.35 3.64-2.58 1.57-4.5 3.86-4.81 6.96a170.33 170.33 0 0 1-5.06.61c-1.42-1.88-2.18-4.12-2.49-6.43-2.73-1.03-4.04-3.65-4.91-6.24.09-2.91.03-5.85-.83-8.65 1.29-2.84 2.7-5.7 4.99-7.87 2.58-.09 3.19-2.79 2.88-4.89zm-132 21.99c1.79-.32 4.73-.41 5.18 1.85-3.67-.35-7.36-.61-11.05-.35 1.51-1.5 3.95-.96 5.87-1.5z" fill="#fff"/><path fill="#414141" opacity=".96" d="M178.72 275.22l5.41.56 3.72 5.46c-2.1-.47-4.19-1.01-6.19-1.81l-1.52-1.51-1.42-2.7z"/><path fill="#010101" opacity=".8" d="M296.52 282.68c2.12-2.01 3.34-5.08 6.24-6.1l3.27 1.69 2.9 1.38c1.67.66 3.49 1.01 5.27.6 4.43-.86 8.93-1.19 13.43-1.07l-.39 1.83-1.28 2.23c-6.18.31-12.38-.07-18.55.35-2.13.04-3.94 1.18-5.62 2.34-2.65.64-4.44-.87-5.27-3.25z"/><path fill="#5f5d5a" d="M378.52 277.01l4.42 2.23 3.87 2.84c1.96-.91 3.83-2.41 6.07-2.43 1.81.67 3.43 1.75 5.23 2.44 10.51.78 21.06-.94 31.54.06l.07 8.27c-1.54-.2-3.08-.28-4.62-.29 1.37-2.12 1.92-4.57.66-6.89l-3.62-.39c-6.73-.51-13.39.91-20.11.78-3.87-.02-7.75-.21-11.58.31l-2.58-.93-.9.02-1.9.02c-7.69.08-15.34 1.33-23.04.8-4.9.1-10.11-.88-14.69 1.35-.06-1.46-.1-2.92-.11-4.37l.17-2.3.96.3-.08 4.09c3.24.21 6.49.16 9.72-.16-.72-.49-1.45-.96-2.19-1.42l6.43-.19c5.58.08 13.24 2.26 16.28-4.14z"/><path fill="#6a5740" opacity=".51" d="M439.8 281.76c.43-1.9 1.24-3.74 2.88-4.89.31 2.1-.3 4.8-2.88 4.89z"/><path fill="#c0c0cb" d="M339.29 278.12c2.7-.44 5.49-.56 8.11.41l-.17 2.3-7.04 1.67-.26 4.3c2.57.05 5.1-.46 7.41-1.6 4.58-2.23 9.79-1.25 14.69-1.35 7.7.53 15.35-.72 23.04-.8-1.26 2.61 3.22 2.6 1.9-.02l.9-.02c.06.43.2 1.29.27 1.72l.89.27 1.42-1.06c3.83-.52 7.71-.33 11.58-.31 6.72.13 13.38-1.29 20.11-.78 1.23 1.5 2.23 3.17 3.03 4.95-2.94.25-5.89.23-8.83.13-1.52-1.72-4.79-2.63-5.81.13-5.1.44-10.22.69-15.33.58l1.69-2.2c-3.51.14-7.07-.01-10.53.66l-1.6 1.51-.66.07-.75-2.12c-1.64.04-3.27.14-4.89.29l.3 2.1h-2.73l1.3-1.57c-2.91-.85-6.78-1.46-8.72 1.5-2.08.03-4.16.08-6.23.03l-.75-1.74c-3.72-.16-7.52-.19-11.18.46l-.94 1.24-.74-.08c-3.01-.87-6.12-1.29-9.24-1.46l-.58-1.28-.07-.85c.05-2.36.23-4.72.41-7.08z"/><path fill="#050404" opacity=".89" d="M348.35 277.74l1.63.54 5.83 3.06 2.19 1.42c-3.23.32-6.48.37-9.72.16l.08-4.09-.01-1.09z"/><path fill="#242423" d="M181.66 279.43c2 .8 4.09 1.34 6.19 1.81 1.71 2 3.54 3.95 5.76 5.41.1 1.98-.61 3.83-1.61 5.51-3.52-4.18-6.87-8.5-10.34-12.73z"/><path fill="#5a5757" d="M275.85 281.78c1.93-.92 4.2.28 6.25.34 1.78 3.32 1.94 7.16 2.94 10.73l-3.03 2.33c1.08 1.1 2.15 2.23 3.19 3.38-2.04.17-4.06-.19-6.05-.59-1.87 1.21-3.65 2.54-5.35 3.98 1.7 1.73 3.49 3.39 5.34 4.96l1.93-.65.63-.22.32-.74 1.47-3.53c1.54-.27 3.19-.4 4.49-1.37l.97-1.42c.66-.97 1.33-1.93 2.02-2.87.14 1.54.19 3.1.17 4.65l-.92 1.29c2.36-.26 4.71-.56 7.08-.67a58.88 58.88 0 0 1-4.16 3.89l.61-2.31c-2.44-.05-4.91-.14-7.31.36l-1.08 1.48c-1.14 1.08-2.37 2.05-3.59 3.05-4.39.32-8.8.63-13.1 1.65l-.38.08-.56.12c-3.4-.19-6.76-1.35-10.17-1.03l-1.52 1.43c-4.14.02-8.29-1.16-12.41-.55-2.06.38-1.77 2.65-1.55 4.19 2.69 1.51 5.79 1.22 8.5-.07-.65 2.05-1.28 4.12-1.75 6.23.32 2.41.79 4.79 1.2 7.19l.58 3.41c-3.41-.35-6.77-1.15-10.19-1.44l-1.73 4.65c-1.31-.01-2.62-.15-3.9-.36l2.01-.4c-.59-1.56-.96-3.7-2.91-4.08-1.62.04-3.2.35-4.79.61l1.43-4.18c-2.04-1.88-3.93-3.92-5.48-6.22 5.93-2.22 12.79-4.08 16.28-9.85 2.6-2.93 7.21-1.42 9.84-4.1-4.37-.54-9.1-1.35-13.17.83.34-2.3 1.06-4.52 1.98-6.66l1.64-.03.8.02-2.14 2.63c5.28-.04 10.61.36 15.63 2.15 4.59 1.47 9.33-.58 13.9-1.22-.21-.24-.63-.71-.85-.94l-2.79-3.24c2.25-2.73 4.61-5.39 6.68-8.27 1.28-2.77 1.43-5.96 3-8.62z"/><path fill="#86878b" d="M325.96 283.24l1.28-2.23.84-.12c-2.99 2.53 2.86 3.22 1.72-.1l.94-.04c2.35-.15 4.7-.04 7.03.33l1.11 4.12.07.85c-1.11 3.64-4.85 4.32-8.19 4.31 1.37-2.43-2.81-3.37-2.63-.63l-1.62-.64c-.89-1.75-1.97-3.4-3.34-4.81l2.79-1.04z"/><path fill="#bdbdc3" d="M328.08 280.89l1.72-.1c1.14 3.32-4.71 2.63-1.72.1z"/><path d="M340.19 282.5l7.04-1.67.11 4.37c-2.31 1.14-4.84 1.65-7.41 1.6l.26-4.3zm46.82 21.8c2.46-.47 4.89-1.53 7.44-1.27 3.32.58 6.96-.82 9.81 1.58-5.72-.44-11.72 1.4-17.25-.31z" fill="#e1e1ef"/><path fill="#f1e0af" opacity=".95" d="M454.02 281.84c3.71.38 6.47 3.4 10.22 3.71-2.56.75-5.2.43-7.77-.06l-2.45-3.65z"/><path fill="#737473" d="M307.41 283.59c6.17-.42 12.37-.04 18.55-.35a32.38 32.38 0 0 1-2.79 1.04c-4.41.61-8.86.59-13.29.76l.18 4.82c5.49.05 11.05.41 16.45-.77l1.62.64 2.63.63c2.05.56 4.05 1.28 6.1 1.83l-.52 1.94c3.15 1.36 6.5.97 9.63-.22 2.5 1.19 5.18 2.16 8.01 1.78 9.72-.77 19.47-.41 29.21-.48 3.22.25 5.73-2.01 8.53-3.18.88 1.63 1.38 3.41 1.39 5.27-6.82-1.22-13.73.14-20.59 0-13.44.27-26.9.13-40.31 1.02-3.7.2-7.41.03-11.1-.34l.98-2.3c2.88.46 5.81.44 8.71.08l1.55-2.82c-7.54-2.63-16.26-3.38-23.67 0-2.27 1.4-4.42 2.97-6.58 4.53l-1.05-2.51c-1.13-2.68-.83-5.58-.46-8.37l1.2-.66c1.68-1.16 3.49-2.3 5.62-2.34m-3.18 2.59c-.21 2.33-.21 4.67-.04 7.01 3.62.09 5.43-3.56 4.34-6.71l-4.3-.3z"/><path fill="#f7f8f8" d="M385.07 283.05l1.9-.02c1.32 2.62-3.16 2.63-1.9.02z"/><path fill="#f8f9f8" d="M387.87 283.01l2.58.93-1.42 1.06-.89-.27-.27-1.72z"/><path fill="#8f9289" d="M422.14 282.85l3.62.39c1.26 2.32.71 4.77-.66 6.89-9.99.29-19.97-.08-29.95.16l-.99 4.77c2.41.08 4.71-.58 6.82-1.7 2.28 1.1 4.7 1.94 7.24 2.18-2.44.1-4.87.3-7.29.56.88 1.43 2.06 2.73 3.78 3.13 2.49 1 5.18 1.14 7.83 1.23l1.36 2.1c-2.2.43-4.42.95-6.29 2.24l-3.35-.19c-2.85-2.4-6.49-1-9.81-1.58-2.55-.26-4.98.8-7.44 1.27-1.68-1.04-3.59-.91-5.42-.41l-.7.12.77-1.47 4.24-1.27c-1.68-.38-3.36-.71-5.06-.87 5.07-.4 10.43.02 15.23-1.97-.99-.41-1.97-.78-2.96-1.13-.01-1.86-.51-3.64-1.39-5.27-2.8 1.17-5.31 3.43-8.53 3.18l-2.58-4.79c-4.23-.07-8.44.26-12.65.53-5.89.15-11.79-.15-17.67.27l-1.52-2.43.74.08c4.29.32 8.58.06 12.87.04 2.07.05 4.15 0 6.23-.03l7.42.07h2.73c1.78-.04 3.56-.12 5.34-.27l.66-.07c3.48-.03 6.96-.1 10.44.03 5.11.11 10.23-.14 15.33-.58l5.81-.13c2.94.1 5.89.12 8.83-.13-.8-1.78-1.8-3.45-3.03-4.95z"/><path fill="#454141" d="M233.1 288.44c-.21-1.61-.34-3.22-.31-4.84 5.27 4.1 12.05 5.43 17.34 9.44-3.26 1.05-6.67.45-9.99.23a80.62 80.62 0 0 0 3.37 4.64l-1.09 1.38-.8-.02c-3.23-2.97-7.22-4.89-11.59-5.35l1.11-1.89c1.64-.11 3.29-.21 4.95-.24 1.37.73 2.36.47 2.96-.78-.52-1.2-1.48-1.59-2.87-1.19-1.01-.5-2.03-.99-3.08-1.38z"/><path fill="#c2c2cb" d="M309.88 285.04c4.43-.17 8.88-.15 13.29-.76 1.37 1.41 2.45 3.06 3.34 4.81-5.4 1.18-10.96.82-16.45.77l-.18-4.82z"/><path fill="#363738" d="M267.77 292.92c-.04-2.98.21-8.67 4.41-8.13-.97 2.87-1.84 6.28-4.41 8.13z"/><path fill="#baffff" d="M304.23 286.18l4.3.3c1.09 3.15-.72 6.8-4.34 6.71-.17-2.34-.17-4.68.04-7.01z"/><path fill="#464342" d="M330.76 290.36c3.34.01 7.08-.67 8.19-4.31l.58 1.28c3.12.17 6.23.59 9.24 1.46l1.52 2.43c-4.46.53-8.95.83-13.43.97-2.05-.55-4.05-1.27-6.1-1.83z"/><path fill="#dedee8" d="M368.61 288.88c1.94-2.96 5.81-2.35 8.72-1.5l-1.3 1.57c-2.48.02-4.95-.05-7.42-.07z"/><path fill="#efeef2" d="M378.46 286.85l4.89-.29.75 2.12-5.34.27-.3-2.1z"/><path d="M386.36 287.1c3.46-.67 7.02-.52 10.53-.66l-1.69 2.2c-3.48-.13-6.96-.06-10.44-.03l1.6-1.51zm11.22 20.93c1.22-1.59 3.6-.7 5.32-.84-.05 1.25-.26 2.49-.83 3.62-1.58-.66-4.66-.34-4.49-2.78z" fill="#f7f6fd"/><path fill="#e6e5ee" d="M410.53 288.06c1.02-2.76 4.29-1.85 5.81-.13l-5.81.13z"/><path fill="#3a3b3a" d="M193.61 286.65c1.34.87 3.29 1.21 3.77 2.97 2.35 6.27 6.48 11.59 10.24 17.06l-2.96 1.5L192 292.16c1-1.68 1.71-3.53 1.61-5.51z"/><path fill="#aaaab4" d="M292.78 291.4c3.57.98 4.48-4.24 7.81-4.81-.37 2.79-.67 5.69.46 8.37-2.08 3.71-6.1 4.82-9.91 5.8.02-1.55-.03-3.11-.17-4.65l-1.72-2.21 1.05-3.22 2.48.72z"/><path fill="#e6e3ed" d="M350.45 287.63c3.66-.65 7.46-.62 11.18-.46l.75 1.74c-4.29.02-8.58.28-12.87-.04l.94-1.24z"/><path fill="#e1e0e7" d="M328.13 289.73c-.18-2.74 4-1.8 2.63.63l-2.63-.63z"/><path d="M491.79 288.85l5.23-.44c2.17.85 3.85 2.53 4.87 4.62l-3.83 2.44-1.55-.25 2.03-3.36c-1.65-2.06-4.38-2.37-6.75-3.01zm-265.67 11.48c2.21-1.64 4.52-3.12 6.96-4.39l2.44 2.65c-1.39 3.93-4.81 6.51-8.62 7.87-.95-1.92-1.1-4.04-.78-6.13z" fill="#d59e7e"/><path fill="#817e82" d="M236.18 289.82c1.39-.4 2.35-.01 2.87 1.19-.6 1.25-1.59 1.51-2.96.78l.09-1.97z"/><path fill="#4c4c5b" d="M285.97 297c-.73-2.96 1.01-6.38 4.33-6.32l-1.05 3.22c-.88 1.25-2.06 2.22-3.28 3.1z"/><path fill="#b0b6a3" d="M367.96 290.95c4.21-.27 8.42-.6 12.65-.53l2.58 4.79c-9.74.07-19.49-.29-29.21.48-2.83.38-5.51-.59-8.01-1.78-3.13 1.19-6.48 1.58-9.63.22l.52-1.94c4.48-.14 8.97-.44 13.43-.97 5.88-.42 11.78-.12 17.67-.27z"/><path fill="#a7af98" d="M395.15 290.29c9.98-.24 19.96.13 29.95-.16 1.54.01 3.08.09 4.62.29l.72.48c.79.39 1.6.76 2.43 1.12-.71.81-1.4 1.64-2.08 2.48-3.18-.18-7.05-.32-9.03 2.7 1.41.15 2.84.28 4.26.39l-.21 2.21c-3.59.38-7.2.17-10.8.16l3.16 3.13c2.44-.14 4.88-.33 7.33-.37-1.06.71-2.19 1.32-3.5 1.31-4.79.37-9.58 1.17-14.39.77 1.87-1.29 4.09-1.81 6.29-2.24l-1.36-2.1c-2.65-.09-5.34-.23-7.83-1.23 5.3-.14 10.74-.57 15.42-3.32l-2.04-2.38c-3.07 1.52-6.47 2.05-9.87 2.01-2.54-.24-4.96-1.08-7.24-2.18-2.11 1.12-4.41 1.78-6.82 1.7l.99-4.77z"/><path fill="#e6ddca" opacity=".98" d="M432.87 292.02l1.94-2.39c.86 2.8.92 5.74.83 8.65l-.7-1.71-.54-1.23-3.61-.84 2.08-2.48z"/><path fill="#a1a398" d="M308.68 292.94c7.41-3.38 16.13-2.63 23.67 0l-1.55 2.82c-2.9.36-5.83.38-8.71-.08-2.52-4.21-8.1-2.39-11.15.2l-2.26-2.94z"/><path fill="#706860" d="M228.02 293.5l2.01.42c4.37.46 8.36 2.38 11.59 5.35l-1.64.03c-1.47-.34-2.94-.75-4.46-.71l-2.44-2.65c-2.44 1.27-4.75 2.75-6.96 4.39-.32 2.09-.17 4.21.78 6.13-.88.17-1.76.32-2.64.44-.24-2.83-.95-5.68-.56-8.52.97-1.98 2.72-3.41 4.32-4.88z"/><path fill="#83887b" d="M302.1 297.47l6.58-4.53 2.26 2.94c3.05-2.59 8.63-4.41 11.15-.2l-.98 2.3c3.69.37 7.4.54 11.1.34-4.46.71-9.17-.44-13.44 1.19 6.76 1.62 13.77.12 20.59 1.48l.8.55c-4.42.4-8.78 1.17-13.17 1.72-3.74.5-7.28-1.13-10.94-1.5-2.59.76-4.28 3.49-6.93 3.96-2.18-.94-4.28-2.09-6.62-2.6-.08 3.05-2.63 4.86-4.61 6.79l-.9-2.01c1.42-1.47 2.74-3.03 3.92-4.7-1.19-.64-2.38-1.28-3.61-1.82-2.37.11-4.72.41-7.08.67l.92-1.29c3.81-.98 7.83-2.09 9.91-5.8.33.83.69 1.67 1.05 2.51m8.58 1.39c-1.92.54-4.36 0-5.87 1.5 3.69-.26 7.38 0 11.05.35-.45-2.26-3.39-2.17-5.18-1.85z"/><path fill="#6e6d72" d="M408.22 295.54c3.4.04 6.8-.49 9.87-2.01l2.04 2.38c-4.68 2.75-10.12 3.18-15.42 3.32-1.72-.4-2.9-1.7-3.78-3.13 2.42-.26 4.85-.46 7.29-.56z"/><path fill="#504f4f" d="M250.46 294.8c1.1.44 2.39.6 3.28 1.46.34 1.57-.56 3.03-.99 4.49l-2.07-.23-.22-5.72z"/><path fill="#c0c8ab" d="M253.48 300.21c3.53-2.37 9.27-6.14 12.69-1.54.95 1.05 1.86 2.15 2.79 3.24-4.61-.48-9.6-1.6-13.61 1.52-.68-1.04-1.28-2.13-1.87-3.22z"/><path fill="#b9bead" d="M372.52 297.3c6.86.14 13.77-1.22 20.59 0 .99.35 1.97.72 2.96 1.13-4.8 1.99-10.16 1.57-15.23 1.97-4.22.55-8.37-1.54-12.52-.34-4.53 1.01-9.17-.14-13.74.46-5.06.62-10.17-.23-15.22.47-6.82-1.36-13.83.14-20.59-1.48 4.27-1.63 8.98-.48 13.44-1.19 13.41-.89 26.87-.75 40.31-1.02z"/><path fill="#5e4733" opacity=".51" d="M467.26 299.74c3.78-.32 6.85-3.57 10.89-2.65-3.6 1.55-7.21 3.33-11.21 3.51-2.78-.01-5.07 1.61-7.43 2.82-2.55 1.28-6.15.34-7.93 3.02-1.7 2.8-2.87 6.31-6.51 7.05a94.01 94.01 0 0 1-2.03-2.54l5.06-.61c.31-3.1 2.23-5.39 4.81-6.96 2.07-.53 4.04-1.39 5.94-2.36 2.57-1.41 5.59-1.03 8.41-1.28z"/><path fill="#3b3b39" d="M235.52 298.59c1.52-.04 2.99.37 4.46.71-.92 2.14-1.64 4.36-1.98 6.66l-.97.74-1.77 1.43c-3.78.42-7.45 1.48-11.24 1.75-3.43-.12-6.16-2.52-8.92-4.27.33-1.53.72-3.03 1.18-4.52 3.43-.14 5.84 2.13 6.59 5.37l1.39.44c.88-.12 1.76-.27 2.64-.44 3.81-1.36 7.23-3.94 8.62-7.87z"/><path fill="#d3d0d9" d="M287.98 300.4c-1.01-1.21-.68-1.69.97-1.42l-.97 1.42z"/><path fill="#797d6f" d="M368.32 300.06c4.15-1.2 8.3.89 12.52.34 1.7.16 3.38.49 5.06.87l-4.24 1.27-.77 1.47c-2.27 1.01-4.73 1.53-7.19 1.74-2.05.07-4.2.32-5.48 2.13-4.45-.07-8.82-.81-13.16-1.72-2.51-.17-3.5-3-5.76-3.74-2.95-1-6.09-.72-9.14-.88l-.8-.55c5.05-.7 10.16.15 15.22-.47 4.57-.6 9.21.55 13.74-.46z"/><path fill="#fcebba" d="M452.91 303.38c2.51-5.52 9.44-4.99 14.35-3.64-2.82.25-5.84-.13-8.41 1.28-1.9.97-3.87 1.83-5.94 2.36z"/><path fill="#9da295" d="M255.35 303.43c4.01-3.12 9-2 13.61-1.52.22.23.64.7.85.94-4.57.64-9.31 2.69-13.9 1.22l-.56-.64z"/><path fill="#463630" d="M297.3 301.38c1.23.54 2.42 1.18 3.61 1.82-1.18 1.67-2.5 3.23-3.92 4.7-5.07-.27-10.15-.17-15.22-.05 1.22-1 2.45-1.97 3.59-3.05 2.58.27 5.18.39 7.78.47a58.88 58.88 0 0 0 4.16-3.89z"/><path fill="#dedce3" d="M280.03 302.5c1.46-.33 1.78 1.78 1.99 2.8l-.32.74-.63.22c-1.06-.82-1.89-2.54-1.04-3.76z"/><path fill="#575654" d="M309.12 305.72c2.65-.47 4.34-3.2 6.93-3.96 3.66.37 7.2 2 10.94 1.5 4.39-.55 8.75-1.32 13.17-1.72 3.05.16 6.19-.12 9.14.88-2.72-.07-5.48-.25-8.16.27-3.62 3.87-7.24 7.73-10.55 11.88-5.48 4.59-11.91 9.63-19.46 9.08-3.19-1.48-6.6-.53-9.92-.29 1.2-.82 2.38-1.68 3.56-2.53-1.11-1.99-1.98-4.4-4.1-5.53-1.25.01-2.5.19-3.73.34l-1.2-3.53.61-.62 1.54-1.58c1.98-1.93 4.53-3.74 4.61-6.79 2.34.51 4.44 1.66 6.62 2.6m14.88 4.31l1.06 2.21 2.73-.85c-.27 1.28-.75 2.67.32 3.74 2.31-1.18 3.95-3.35 4.64-5.83l-2.69-2.51c-2.14.84-4.27 1.77-6.06 3.24m-12.88-1.11c-2.6 3.41-2.92 7.96-2.5 12.08 4-3.38 9.9-2.55 13.8-6.07-.2-1.99-.68-3.94-1.51-5.75-3.26-.18-6.53-.3-9.79-.26z"/><path fill="#87848a" d="M286.44 303.32c2.4-.5 4.87-.41 7.31-.36l-.61 2.31-7.78-.47 1.08-1.48z"/><path fill="#7a7678" d="M238 305.96c4.07-2.18 8.8-1.37 13.17-.83-2.63 2.68-7.24 1.17-9.84 4.1l-4.3-2.53c.24-.19.73-.56.97-.74z"/><path fill="#60625c" d="M373.7 305.75c2.46-.21 4.92-.73 7.19-1.74l.7-.12 1.36.42c-.92 1.81-1.58 3.73-2.05 5.71-1.99.17-4.03-.17-5.56-1.52l-1.12-1.89-.52-.86z"/><path fill="#484945" d="M382.95 304.31c3.04.8 6.16 1.24 9.25 1.86l-.69 1.34c-3.48 1.04-7.07 1.69-10.61 2.51.47-1.98 1.13-3.9 2.05-5.71z"/><path fill="#cd987a" d="M235.26 308.13l1.77-1.43 4.3 2.53c-3.49 5.77-10.35 7.63-16.28 9.85a103.26 103.26 0 0 0-3.03-4.1l-.98-1.28.18-2.12c4.71-.62 10.33.07 14.04-3.45z"/><path fill="#666564" d="M324 310.03c1.79-1.47 3.92-2.4 6.06-3.24l2.69 2.51c-.69 2.48-2.33 4.65-4.64 5.83-1.07-1.07-.59-2.46-.32-3.74l-2.73.85-1.06-2.21z"/><path fill="#9b9aa1" d="M405.92 307.12l5.17.12c-.03 1.89-.6 3.7-1.37 5.42-1.15-1.17-2.46-2.15-3.87-2.96l.07-2.58z"/><path fill="#040302" opacity=".76" d="M257.56 308.67c3.41-.32 6.77.84 10.17 1.03l-3.04 1.9c-2.99.23-5.99.18-8.98.15l.33-1.65 1.52-1.43z"/><path fill="#3a3938" d="M243.63 309.55c4.12-.61 8.27.57 12.41.55l-.33 1.65c-1.74.56-3.44 1.22-5.13 1.92-2.71 1.29-5.81 1.58-8.5.07-.22-1.54-.51-3.81 1.55-4.19z"/><path fill="#e4e0e3" opacity=".92" d="M268.29 309.58l.38-.08-.38.08z"/><path fill="#696a6a" d="M311.12 308.92l9.79.26c.83 1.81 1.31 3.76 1.51 5.75-3.9 3.52-9.8 2.69-13.8 6.07-.42-4.12-.1-8.67 2.5-12.08z"/><path fill="#aaa9b0" d="M387.53 309.3c1.07-.86 2.89-.88 3.99-.04-.14 1.47-3.81 1.47-3.99.04z"/><path fill="#6b4d3a" opacity=".87" d="M285.93 311.96c3.46-.35 6.94-.58 10.42-.47l-.61.62c-9.53 1.24-19.18.56-28.77.57-5.46.32-10.89 1.41-16.39.99 1.69-.7 3.39-1.36 5.13-1.92 2.99.03 5.99.08 8.98-.15 7.08.01 14.16 1.1 21.24.36z"/><path fill="#4e4f52" d="M382.84 312.61c2.7-.52 5.49-1.74 8.25-.84 3.46 1.11 6.48 3.39 10.1 4.02 3.33.6 6.74.63 10.11.65-6.56 1.24-13.16-.28-19.64-1.23-1.04-.69-1.9-1.6-2.81-2.43-2-.09-4.01-.13-6.01-.17z"/><path fill="#ba896b" d="M266.97 312.68c9.59-.01 19.24.67 28.77-.57l1.2 3.53c-2.65-.23-5.32-.04-7.93.44-8.43 1.6-17-1.57-25.4.45-4.93 1.1-10.83-.51-14.78 3.37.47-2.11 1.1-4.18 1.75-6.23 5.5.42 10.93-.67 16.39-.99z"/><path fill="#4a4a49" d="M222.02 314.98l3.03 4.1c1.55 2.3 3.44 4.34 5.48 6.22l-1.43 4.18c1.59-.26 3.17-.57 4.79-.61 1.95.38 2.32 2.52 2.91 4.08l-2.01.4-6.51-.87-.84 2.71c-.42-3.85.5-8.25-2.26-11.41-2.01-2.52-2.2-5.84-3.16-8.8z"/><path fill="#dba788" d="M263.61 316.53c8.4-2.02 16.97 1.15 25.4-.45 2.61-.48 5.28-.67 7.93-.44.41 1.39.83 2.79 1.34 4.17-3.57 2.28-7.93 2.27-11.83 3.64-6.61 2.29-13.45 4.43-20.53 4.29-5.29-.16-10.73.93-15.89-.65-.41-2.4-.88-4.78-1.2-7.19 3.95-3.88 9.85-2.27 14.78-3.37z"/><path fill="#6f6e6d" d="M296.94 315.64l3.73-.34c2.12 1.13 2.99 3.54 4.1 5.53l-3.56 2.53-.82.12-2.11-3.67-1.34-4.17z"/><path fill="#b8876a" d="M286.45 323.45c3.9-1.37 8.26-1.36 11.83-3.64.67 1.24 1.4 2.44 2.11 3.67-4.18.62-8.3 1.55-12.41 2.49l-10.74 2.31c-2.89.13-5.74.63-8.46 1.61-3.2.56-6.45.82-9.69 1.01-1.61.07-3.21.14-4.81.12l-3.67-.52-.58-3.41c5.16 1.58 10.6.49 15.89.65 7.08.14 13.92-2 20.53-4.29z"/><path fill="#563e2f" opacity=".65" d="M268.78 329.89c2.72-.98 5.57-1.48 8.46-1.61-2.74.9-5.59 1.4-8.46 1.61z"/><path fill="#454646" d="M240.42 329.06c3.42.29 6.78 1.09 10.19 1.44l3.67.52-1.74 2.63c-4.62.31-9.24-.2-13.85.06l1.73-4.65z"/><path fill="#6f6d6c" d="M254.28 331.02l4.81-.12c-1.16 1.83-1.92 4.21-4.02 5.19-5.23 2.71-11.13 4.59-17.06 4.23-3.67-1.32-7.69-2.36-10.57-5.13l.84-2.71c2.19.1 4.35.49 6.51.87 1.28.21 2.59.35 3.9.36 4.61-.26 9.23.25 13.85-.06l1.74-2.63z"/></svg>