<svg xmlns="http://www.w3.org/2000/svg" width="682.667" height="682.667" viewBox="0 0 512 512" xmlns:v="https://vecta.io/nano"><path fill="#272727" opacity=".61" d="M264.94 210.88c3.12-1.4 6.51-1.39 10.17.03-3.42-.04-6.78 0-10.17-.03z"/><path fill="#575654" d="M249.1 218.31c5.93-.97 13.9-.43 15.84-7.43l10.17.03c3.2 2.18 6.38 4.52 10.08 5.8-3.09-.5-3.37 1.96-3.53 4.4-3.3-.79-5.12-6.57-8.84-4.21-3.32-1.21-4.5-.88-1.75 1.98-.97 5.5 2.84 9.95 3.05 15.21-1.08-.74-2.11-1.56-3.12-2.38-6.68-7.3-23.93-14.84-30.11-3.86 8.54.22 19.69 1.57 24.56 9.44-10.75-5.83-26.77-3.46-31.46 8.81-1.45 3.44-9.23 7.55-6.02-1.11-.41-7.19 6.71-10.41 10-15.72-6.48-.12.97-4.33 1.13-7.37-4.61 1.37-6.4 7.17-10.59 9.65-4.19 2.22-.29 7.54-2.85 10.93-.57 4.56-.84 9.63 2.14 13.49l-1.67 1.12c-2.43-5.76-7.04-11.51-6.94-17.92 2.64-5.18.05-10.94 2.88-16.08-10.77 4.07-9.3 19.75-4.11 27.95.86 4.14 7.98 7.5 4.37 11.68 6.09 1.69 1.67 11.26 4.29 15.69 4.88 6.96 13.11 10.25 20.57 13.72-.7 3.46-5.67.5-8.22 1.98.37 2.4 2.41 4.34 1.08 6.87-1.44-.9-3-2.51-4.67-1.13-2.69-7.63-12.86-3.85-12.72 3.26-4.28-4.61-9.05.85-6.59 5.65-1.4-.03-2.77.14-4.12.51-4.47-2.16-10.03-2.73-12.17-7.94.56-5.96-4.34-10.19-4.56-15.56-6.01-2.9-8.58-10.8-15.52-11.65-1.4-1.68-2.72-3.42-4.03-5.17a21.13 21.13 0 0 0 .67-4.1c2.87.89 8.37 2.63 3.91 5.79 4.87 1.91 10.02 3.23 13.41 7.51-.79-5.18 4.02-1.89 2.76 1.2-1.45 3.07 2.16 3.95 4.31 4.89 4.55 1 7.53 4.44 10.27 7.93-.1-2.28-3.32-5.45-.76-7.01 4.05-.9 3.99 7.49 8.47 5.7 5.48-3.89 1.32-10.79 2.99-16.23 1.48-3.75-2.59-5.38-4.7-7.61 3.89 1.19 7.62 3.25 4.1-1.99-2.51-5.87-8.22-9.87-9.9-16.17-1.76-5.3-1.68-11.47-5.24-16.05 5.98-5.34 15.23-21.61 23.83-12.6 3.1.85 6.42 1.19 9.52.18 1.59-.38 3.16-.88 4.69-1.45 1.71.44 3.63.51 5.1-.63m-26.08 54.55c-.44 7.35.89 15.87 7.64 20.15.9-4.53 6.33 3.21 4.3-3.97-5.55 3.03-7.34-4.55-9.85-8.2-2.73-2.35 2.14-6.72-2.09-7.98z"/><path fill="#89867e" d="M271.07 218.88c-2.75-2.86-1.57-3.19 1.75-1.98 3.77 4.14 4.77 9.83 8.09 14.25-.41 5.27-1.65 10.47-2.09 15.75l-2.7.1c-1.54-9.19 1.98-20.48-5.05-28.12z"/><path fill="#666562" d="M272.82 216.9c3.72-2.36 5.54 3.42 8.84 4.21.16-2.44.44-4.9 3.53-4.4 5.39 2.38 7.14 8.66 10.63 13-2.23 2.98-1.66 6.82-1.84 10.34.63 6.21-1.21 12.2-3.15 18.02-4.1 8.08 7.46 3.39 12.07 3.82-1.97 3.55-7.54 3.33-10.93 5.04-4.42 1.4-3.44-4.42-3.25-7.11-5.15.91-3.22 5.68-1.47 8.81-1.63.07-5.08-1.89-4.23 1.16-.91 4.7 4.42 12.79-2.69 13.48 2.48 1.98 3.01 4.82 1.77 7.71-3.3-1.15-6.73-1.91-10.2-2.22.19-6.58 8.79-5.87 9.53-12.4 4.16-9.52-7.51-13.52-14.53-14.2-3.09.36-.61-4.83-3.62-4.08-.22 9.22-12.24.83-11.93-5.28 1.07-3.07-5.94-7.31-1.46-7.94 3.66 4.47 9.68 6.26 14.97 8.1 2.57-3.21-2.69-5.05-1.35-8.31.42-1.24-.29-3.32-1.7-1.82-3.81 2.87-7.18-2.38-11.06-2.79.61 2.5 2.59 4.19 4.32 5.94l-5.18-1.12c-.53-2.77-2.9-3.45-5.28-2.23-2.97.92-6.3 1.12-8.84 3.04l-1.78.43c4.69-12.27 20.71-14.64 31.46-8.81 1.12 1.8 1.97 3.77 2.93 5.67 4.11-2.25 1.74-7.54 2.62-11.25 1.01.82 2.04 1.64 3.12 2.38-.21-5.26-4.02-9.71-3.05-15.21 7.03 7.64 3.51 18.93 5.05 28.12l2.7-.1c.44-5.28 1.68-10.48 2.09-15.75-3.32-4.42-4.32-10.11-8.09-14.25m13.21 3.05c2.4 12.24 2.62 24.52-.87 35.97 4.48 4.24 5.48-4.51 5.64-7.2 4.04-9.27 2.73-23.07-4.77-28.77z"/><path fill="#343533" opacity=".69" d="M229.79 220.21l9.52.18c-3.1 1.01-6.42.67-9.52-.18z"/><path fill="#86837c" d="M286.03 219.95c7.5 5.7 8.81 19.5 4.77 28.77-.16 2.69-1.16 11.44-5.64 7.2 3.49-11.45 3.27-23.73.87-35.97z"/><path fill="#535351" d="M159 224.9c4.72-5.04 10.97-.88 16.69-1.09l9.51.03c1.73.43 3.38 1.13 5.01 1.85-9.92-1.27-17.39 8.29-15.77 17.62-.83 2.45 2.33 4.47.58 6.65-2.12-1.23-4.07-2.72-6.16-3.98.19 1.92.56 3.82 1.01 5.69-4.64 1.15-4.56 5-4.87 8.98-2.29-.11-4.28 1.82-6.55 1.13-.91-2.02-1.26-4.45-3.15-5.84-1.39 2.25-2.11 4.79-2.54 7.37-.73-3.31-1.82-6.76-5.06-8.41.62-1.56.39-3.25.14-4.85 4.75-7.92 5.71-17.62 11.16-25.15m-5.25 19.29c-2.23-3.15-2.48 1.65-.54 2.65 3.69 2.23 7.88 3.57 11.56 5.79 8.19-4.38-6.59-2.03-8.92-6.32 4.76-3.26 2.31-8.91 1.9-13.54-3.04 2.87-3.81 7.41-4 11.42z"/><path fill="#787874" d="M228.51 231.55c4.19-2.48 5.98-8.28 10.59-9.65-.16 3.04-7.61 7.25-1.13 7.37-3.29 5.31-10.41 8.53-10 15.72-3.21 8.66 4.57 4.55 6.02 1.11l1.78-.43c.23 8.94-7.49 16.87-6.47 26.02 5.16 9.87 16.61 17.56 28.06 15.12-3.69-2.16-7.79-3.59-11.3-6.04-.67-2.14 1.03-5.04 3.27-3.1 5.35 3.92 11.47 6.11 17.78 7.88-2.79 2.27-1.62 6.5-1 9.56 1.62-2.77 5.23-6.07 4.11-9.3-4.09-4.44-.88-7.66 4.3-9.05 3.31-7.63-2.49-11.53-8.58-13.74-2.88 2.84-7.58 7.47-11.43 3.44-5.35-5.91-14.68-10.2-16.53-18.36 2.53-6 5.51 3.9 7.87 4.39 5.92-1.91.1-6.43-1.24-9.86 2.38-1.22 4.75-.54 5.28 2.23-4.48.63 2.53 4.87 1.46 7.94-.31 6.11 11.71 14.5 11.93 5.28 3.01-.75.53 4.44 3.62 4.08 7.02.68 18.69 4.68 14.53 14.2-.74 6.53-9.34 5.82-9.53 12.4.02 5.12-5.33 7.2-7.78 11.19-.92-2.51-3.14-3.33-5.66-2.88-2.75-2.24-.62-5.02-2.84-7.89-3.46.3-2.13 3.06-.75 5.03-2.67-.22-5.23-1.04-7.68-2.08-7.46-3.47-15.69-6.76-20.57-13.72-2.62-4.43 1.8-14-4.29-15.69 3.61-4.18-3.51-7.54-4.37-11.68-5.19-8.2-6.66-23.88 4.11-27.95-2.83 5.14-.24 10.9-2.88 16.08-.1 6.41 4.51 12.16 6.94 17.92l1.67-1.12c-2.98-3.86-2.71-8.93-2.14-13.49 2.56-3.39-1.34-8.71 2.85-10.93z"/><path fill="#727272" d="M240.89 227.85c6.18-10.98 23.43-3.44 30.11 3.86-.88 3.71 1.49 9-2.62 11.25-.96-1.9-1.81-3.87-2.93-5.67-4.87-7.87-16.02-9.22-24.56-9.44z"/><path fill="#72726e" d="M174.44 243.31c-1.62-9.33 5.85-18.89 15.77-17.62 5.13 2.64 10.2 5.43 15.75 7.12 3.56 4.58 3.48 10.75 5.24 16.05 1.68 6.3 7.39 10.3 9.9 16.17-7.41-6.2-14.79-14.1-14.72-24.36-1.78-4.48-5.85.31-3.4 4.29-3.42 2.25-5.74-.94-5.39-4.3-4.95-2.59-9.6 3.23-11.6 7.25-.1 2.01.17 4.01.49 5.99-1.24 1.8-6.43 3.22-4.89-.35 3.75-3.97 2.92-9.33 3.27-14.33-2.94 1.31-3.21-.88-3.18-3.4-1.4 3.77-5.81 8.64-1.56 11.98 2.18 1.86-1.86.91-2.95 1.32.25 3.75 3.47 6.29 3.87 9.95 2.21 5.12 9.18 6.68 14.08 8.92 2.3 2.68 4.69 5.29 6.86 8.08-9.4-3.53 4.31 4.92-1.25 8.17-2.15-.94-5.76-1.82-4.31-4.89 1.26-3.09-3.55-6.38-2.76-1.2-3.39-4.28-8.54-5.6-13.41-7.51 4.46-3.16-1.04-4.9-3.91-5.79l-.78-1.84c3.59-2.13 2.08-5.28-.65-7.29-.92-2.18-3.04-3.11-5.04-4.05-.45-1.87-.82-3.77-1.01-5.69 2.09 1.26 4.04 2.75 6.16 3.98 1.75-2.18-1.41-4.2-.58-6.65z"/><path fill="#808178" d="M293.98 240.05c.18-3.52-.39-7.36 1.84-10.34l4.19 2.48.93.85c2.63 2.81 7.24 4.66 7.36 9.03-4.76 5.44-4.85 12.96-5.4 19.82-4.61-.43-16.17 4.26-12.07-3.82 3.89 1.07 10.64 2.7 10.91-3.15-1.22-5.34 1.88-11.89-2.53-16.2-1.55-1.94-3.79.36-5.23 1.33z"/><path fill="#646564" d="M314.54 233.41c.59-2.95 3.88.14 5.69.4 3.16 5.8-2.94 8.64-2.4 14.21-1.42 4.4-1.84 9.1-3.51 13.42-1.44-.04-2.86-.16-4.29-.26 1.57-6.37 3.62-12.66 4.61-19.15-.79-1.89-.85-5.48-3.67-5.05-4.47-1.47-.97 3.05-2.67 5.09-.12-4.37-4.73-6.22-7.36-9.03 2.03.54 4.13.19 6.1-.46 2.59.64 6.89 5.79 7.5.83z"/><path fill="#383837" d="M153.75 244.19c.19-4.01.96-8.55 4-11.42.41 4.63 2.86 10.28-1.9 13.54-.72-.7-1.42-1.4-2.1-2.12z"/><path fill="#4c4b49" d="M320.23 233.81c7.23 1.39 9.28 10.45 16.92 10.86-1.86.77-4.41 1.18-4.73 3.58.61 8.24-.34 16.51.51 24.76-1.98.27-4.03.91-5.99.16-4.37-2.66 2.55-6.83-2.6-9.51 5.25-4.89 7.82-13.6.61-18.08-2.25.83-4.58 2.15-7.12 2.44-.54-5.57 5.56-8.41 2.4-14.21z"/><path fill="#5e5e5d" d="M180.12 247.8c-4.25-3.34.16-8.21 1.56-11.98-.03 2.52.24 4.71 3.18 3.4-.35 5 .48 10.36-3.27 14.33-1.54 3.57 3.65 2.15 4.89.35 2.76 6.16-3.51 1.68-5.44 5.17-.4-3.66-3.62-6.2-3.87-9.95 1.09-.41 5.13.54 2.95-1.32z"/><path fill="#535351" d="M308.3 242.07c1.7-2.04-1.8-6.56 2.67-5.09 1.4 8.55-.51 18.1-5.14 25.07 1.41-.21 2.81-.52 4.2-.87 1.43.1 2.85.22 4.29.26-5.35 2.53-8.39 9.2-15.51 7.86 2.25 2.12 7.29 4.05 8.63.09 2.41-3.67 3.96 1.52 2.02 3.51 4.26 3.07.52 5.17-2.64 7.08l-2.97.14c-5.06-3.37-6.34 2.62-8.79 5.88l3.21.2-.59.42c-2.07 1-1.68 3.69-2.58 5.51-6.65 3.02 2.03-4.84-2.9-7.21 3.03-1.62 5.03-8.16.58-8.45-4.48-.62-4.26-7.44-9.76-6.68-.85-3.05 2.6-1.09 4.23-1.16-1.75-3.13-3.68-7.9 1.47-8.81-.19 2.69-1.17 8.51 3.25 7.11 3.39-1.71 8.96-1.49 10.93-5.04.55-6.86.64-14.38 5.4-19.82z"/><path fill="#85878a" d="M310.97 236.98c2.82-.43 2.88 3.16 3.67 5.05-.99 6.49-3.04 12.78-4.61 19.15-1.39.35-2.79.66-4.2.87 4.63-6.97 6.54-16.52 5.14-25.07z"/><path fill="#919289" d="M293.98 240.05c1.44-.97 3.68-3.27 5.23-1.33 4.41 4.31 1.31 10.86 2.53 16.2-.27 5.85-7.02 4.22-10.91 3.15 1.94-5.82 3.78-11.81 3.15-18.02z"/><path fill="#5c5d58" d="M185.99 247.91c2-4.02 6.65-9.84 11.6-7.25-.35 3.36 1.97 6.55 5.39 4.3 1.55 9.25 8.98 14.95 14.02 22.06-3.96-1.93-6.62-5.55-10.02-8.23-1.82 2.4-3.93 5.09-3.53 8.3-1.31 6.31 5.66 9.38 8.67 13.96-3.78-.67-7.31-2.38-10.14-4.98-2.17-2.79-4.56-5.4-6.86-8.08 5.18.93.96-5.69 2.37-8.78 4.54-4.94-6.38-10.72-6.94-4.54-4.32 2.16 1.37-8.96-4.56-6.76z"/><path fill="#86847c" d="M202.98 244.96c-2.45-3.98 1.62-8.77 3.4-4.29-.07 10.26 7.31 18.16 14.72 24.36 3.52 5.24-.21 3.18-4.1 1.99-5.04-7.11-12.47-12.81-14.02-22.06z"/><path fill="#7b7975" d="M250.75 240.04c3.88.41 7.25 5.66 11.06 2.79 1.41-1.5 2.12.58 1.7 1.82-1.34 3.26 3.92 5.1 1.35 8.31-5.29-1.84-11.31-3.63-14.97-8.1l5.18 1.12c-1.73-1.75-3.71-3.44-4.32-5.94z"/><path fill="#726f68" d="M153.21 246.84c-1.94-1-1.69-5.8.54-2.65l2.1 2.12c2.33 4.29 17.11 1.94 8.92 6.32-3.68-2.22-7.87-3.56-11.56-5.79z"/><path fill="#918f89" d="M235.77 245.67c2.54-1.92 5.87-2.12 8.84-3.04 1.34 3.43 7.16 7.95 1.24 9.86-2.36-.49-5.34-10.39-7.87-4.39 1.85 8.16 11.18 12.45 16.53 18.36 3.85 4.03 8.55-.6 11.43-3.44 6.09 2.21 11.89 6.11 8.58 13.74-5.18 1.39-8.39 4.61-4.3 9.05l-3.11-.26c-6.31-1.77-12.43-3.96-17.78-7.88-2.24-1.94-3.94.96-3.27 3.1 3.51 2.45 7.61 3.88 11.3 6.04-11.45 2.44-22.9-5.25-28.06-15.12-1.02-9.15 6.7-17.08 6.47-26.02z"/><path fill="#3f3e3d" d="M317.83 248.02c2.54-.29 4.87-1.61 7.12-2.44 7.21 4.48 4.64 13.19-.61 18.08 5.15 2.68-1.77 6.85 2.6 9.51-1.27-.29-2.51-.62-3.78-.84-2.62 5.92-10.85 6.02-16.34 7.65 3.16-1.91 6.9-4.01 2.64-7.08 1.94-1.99.39-7.18-2.02-3.51-1.34 3.96-6.38 2.03-8.63-.09 7.12 1.34 10.16-5.33 15.51-7.86 1.67-4.32 2.09-9.02 3.51-13.42z"/><path fill="#615d58" d="M332.42 248.25c.32-2.4 2.87-2.81 4.73-3.58l5.77 1.38 2.15 1.59-3.24.95c-6.47 5.76 6.21 2.25 3.19 7.51-8.08-.63-14.95 14.61-7.77 17.89l-2.37.84-1.95-1.82c-.85-8.25.1-16.52-.51-24.76z"/><path fill="#272726" opacity=".53" d="M342.92 246.05l6.14.44a12.69 12.69 0 0 1-3.99 1.15l-2.15-1.59z"/><path fill="#4e4e4e" opacity=".97" d="M345.07 247.64a12.69 12.69 0 0 0 3.99-1.15c12.79.61 28.87 15.57 18.82 28.03l-1.15.47c-1.72-1.33-3.4-2.74-5.07-4.13 7.9-.75 4.45-9.48 1.1-13.62-2.82-1.52-8.56-2.06-6.22 2.75-8.46 3.34-3.25-9.37-8.46-12.2.26 2.48.76 4.92.92 7.41-2.43-2.18-4.18-5.09-7.17-6.61 1.05-.41 2.15-.68 3.24-.95z"/><path fill="#454645" d="M185.99 247.91c5.93-2.2.24 8.92 4.56 6.76.56-6.18 11.48-.4 6.94 4.54-1.41 3.09 2.81 9.71-2.37 8.78-4.9-2.24-11.87-3.8-14.08-8.92 1.93-3.49 8.2.99 5.44-5.17-.32-1.98-.59-3.98-.49-5.99z"/><path fill="#7a7573" d="M348.08 247.79c5.21 2.83 0 15.54 8.46 12.2-2.34-4.81 3.4-4.27 6.22-2.75 3.35 4.14 6.8 12.87-1.1 13.62-5.56-4.91-10.8-10.19-16.64-14.76 3.02-5.26-9.66-1.75-3.19-7.51 2.99 1.52 4.74 4.43 7.17 6.61-.16-2.49-.66-4.93-.92-7.41z"/><path fill="#222120" opacity=".51" d="M146.43 253.8c.28-1.31.66-2.62 1.41-3.75.25 1.6.48 3.29-.14 4.85l-.8-.21-.47-.89z"/><path fill="#434445" opacity=".98" d="M165 260.65c.31-3.98.23-7.83 4.87-8.98 2 .94 4.12 1.87 5.04 4.05-.96.73-1.91 1.49-2.82 2.28-8.1 1.28-5.62 11.44-9.37 16.95-5.35 1.11-9.93-2.09-12.73-6.24-1.53-4.56-2.21-9.32-3.09-14.02l.8.21c3.24 1.65 4.33 5.1 5.06 8.41-.45 4.7 5.51 9.31 9.56 6.11 3.19-1.41 1.25-6.06 2.68-8.77z"/><path fill="#706e70" d="M155.3 255.94c1.89 1.39 2.24 3.82 3.15 5.84 2.27.69 4.26-1.24 6.55-1.13-1.43 2.71.51 7.36-2.68 8.77-4.05 3.2-10.01-1.41-9.56-6.11.43-2.58 1.15-5.12 2.54-7.37z"/><path fill="#e0b090" d="M337.25 273.99c-7.18-3.28-.31-18.52 7.77-17.89 5.84 4.57 11.08 9.85 16.64 14.76l5.07 4.13c.77.64 1.55 1.26 2.34 1.87.06 1.59 1.58 2.55 3.06 2.04l1.17.83c.47 2.49 2.64 6.82-4.29 3.17-6.56-1.37-15.27 1.56-19.93-4.04-2.16-1.06-4.54-1.53-6.85-2.14.32-3.18-2.9-2.35-4.98-2.73z"/><path fill="#2c2c2d" opacity=".97" d="M162.72 274.95c3.75-5.51 1.27-15.67 9.37-16.95-.62 6.59-2.23 14.65-9.37 16.95z"/><path fill="#7c7c76" d="M203.45 267.09c-.4-3.21 1.71-5.9 3.53-8.3 3.4 2.68 6.06 6.3 10.02 8.23 2.11 2.23 6.18 3.86 4.7 7.61-1.67 5.44 2.49 12.34-2.99 16.23-4.48 1.79-4.42-6.6-8.47-5.7-2.56 1.56.66 4.73.76 7.01-2.74-3.49-5.72-6.93-10.27-7.93 5.56-3.25-8.15-11.7 1.25-8.17 2.83 2.6 6.36 4.31 10.14 4.98-3.01-4.58-9.98-7.65-8.67-13.96z"/><path fill="#232425" opacity=".57" d="M174.87 263.14l.69-.13.78 1.84a21.13 21.13 0 0 1-.67 4.1l-.8-5.81z"/><path fill="#66687a" d="M283.02 269.79c5.5-.76 5.28 6.06 9.76 6.68 4.45.29 2.45 6.83-.58 8.45 4.93 2.37-3.75 10.23 2.9 7.21-.25 1.08-.9 1.82-1.95 2.22-1.93-.07-4.8-2.52-5.97-.07-.72 2.92 2.39 5.33 4.58 6.76l1.14.63c1.01 6.28-9.33 2.95-3.79-1.72-2.96 2.44-6.81 4.36-8.05 8.26-1.61.59-3.39 2.08-5.12 1.02-.43-2.75-4.26-4.05-3.69-6.8 3.25-2.36 7.06-2.58 10.81-1.44.35-2.7-4.26-1.47-2.9-4.54 3.5.05 3.09-3.17 1.94-5.47 1.24-2.89.71-5.73-1.77-7.71 7.11-.69 1.78-8.78 2.69-13.48M277 302.86c.05 1.6-.56 5.07 1.85 4.98 2.64-1.67-.1-4.04-1.85-4.98z"/><path fill="#242629" d="M323.16 272.33l3.78.84c1.96.75 4.01.11 5.99-.16l1.95 1.82-1.85 6.14c-3.88-1.17-5.73 2.39-8.98 3.22l-1.81.08-13.03-.46c-1.09-2.13-3.18-3.05-5.36-3.69l2.97-.14c5.49-1.63 13.72-1.73 16.34-7.65z"/><path fill="#2b2b2b" d="M223.02 272.86c4.23 1.26-.64 5.63 2.09 7.98 2.51 3.65 4.3 11.23 9.85 8.2 2.03 7.18-3.4-.56-4.3 3.97-6.75-4.28-8.08-12.8-7.64-20.15z"/><path fill="#2f302f" opacity=".94" d="M179.7 274.12c6.94.85 9.51 8.75 15.52 11.65.22 5.37 5.12 9.6 4.56 15.56-3.56-3.84-6.06-8.52-9.54-12.41-3.39-5.03-7.29-9.69-10.54-14.8z"/><path fill="#a6a4ad" d="M334.88 274.83l2.37-.84c2.08.38 5.3-.45 4.98 2.73l-.87.43c-3.07 1.76-7.99 3.12-6.48-2.32z"/><path fill="#0c0806" opacity=".67" d="M366.73 274.99l1.15-.47c3.67 1.04 9.96-1.33 10.63 3.85.1 2.89 2.2 4.05 4.75 4.65-3.91.55-7.09-.99-9.96-3.29l-1.17-.83c-.44-1.34-1.64-2.21-3.06-2.04-.79-.61-1.57-1.23-2.34-1.87z"/><path fill="#54565e" d="M333.03 280.97l1.85-6.14c-1.51 5.44 3.41 4.08 6.48 2.32l-.54 1.68c-.32 4.33-4.56 2.59-7.79 2.14z"/><path fill="#9b8c87" d="M341.36 277.15l.87-.43c2.31.61 4.69 1.08 6.85 2.14l-8.26-.03.54-1.68z"/><path fill="#836049" opacity=".9" d="M369.07 276.86c1.42-.17 2.62.7 3.06 2.04-1.48.51-3-.45-3.06-2.04z"/><path fill="#0a0b0a" opacity=".81" d="M295.06 286c2.45-3.26 3.73-9.25 8.79-5.88 2.18.64 4.27 1.56 5.36 3.69-3.82-.03-7.25 1.78-10.94 2.39l-3.21-.2z"/><path fill="#828582" d="M333.03 280.97c3.23.45 7.47 2.19 7.79-2.14l-.08 8.32-6.05 4.78c5.14-.03 10.29-.74 15.39.24a98.04 98.04 0 0 1-.99 3.74c-5.64-.15-11.26-.58-16.89-.91 1.31-6.15-5.91 2.73-5.74-3.84-5.91-.19-11.81.4-17.69.84l.43-.75c4.94-6.39-9.65-7.74-5.2.69.35 3.27 3.07.72 4.77.06.65 2.13 2.88 5.66 4.94 2.74 4.9-5.16 9.11 2.75 14.48 1.49-13.31 1.53-.04 2.12 5.03 2-4.82.52-9.66.63-14.48 1.01 5.55 3.62 12.75-1.43 18.47 2.46-7.05.62-14.22 1.94-21.25.49-3.75-.71-5.99 3.96-9.43 3.59-.73-3.73-5.17-3.18-8.03-4.1-1.84-.55-3.74-.23-5.6-.01-.28-.16-.85-.47-1.14-.63l1.03-2.38c8.27 3.92 12.08-10.9 4.89-12.04l.59-.42c3.69-.61 7.12-2.42 10.94-2.39 4.33.22 8.67.34 13.03.46-3.84 1.8-14.61-2.84-11.24 5.68a246.32 246.32 0 0 0 16.08-.01c.28-2.42-1.21-4.37-3.03-5.75 3.25-.83 5.1-4.39 8.98-3.22m-2.77 7.2c-6.13 3.37 7.56 1.2 0 0m-21.02 10.43c-2.79.34-5.75.42-8.49.64 4.65 3.44 11.74 2.24 17.22 1.63.31-3.75-6.34-1.4-8.73-2.27z"/><path fill="#c1c2cc" d="M340.82 278.83l8.26.03.07 6.09c11.3-.21 22.65-.22 33.93-.88l6.68.14c8.08.61 16.52 1.98 24.53.07a67.77 67.77 0 0 1 3.5-.15c3.95-1.51 7.11 2.61 4.45 5.12-9.82.18-19.81-1.3-29.53.39l-41.47.33c-3.15-2.05-7.07-1.55-10.5-2.82l.08-8.32z"/><path fill="#85776f" d="M349.08 278.86c4.66 5.6 13.37 2.67 19.93 4.04 6.93 3.65 4.76-.68 4.29-3.17 2.87 2.3 6.05 3.84 9.96 3.29l-.18 1.05c-11.28.66-22.63.67-33.93.88l-.07-6.09z"/><path fill="#bebec7" d="M322.24 284.27l1.81-.08c1.82 1.38 3.31 3.33 3.03 5.75a246.32 246.32 0 0 1-16.08.01c-3.37-8.52 7.4-3.88 11.24-5.68z"/><path fill="#8c8f97" opacity=".98" d="M389.76 284.21c8.17-.32 16.35-.27 24.53.07-8.01 1.91-16.45.54-24.53-.07z"/><path fill="#6d7179" d="M417.79 284.13l10.5-.45c-2.85 1.51-1.19 4.8-1.29 7.32l-11.9.03c-1.07-3.31 5.42.08 7.14-1.78 2.66-2.51-.5-6.63-4.45-5.12z"/><path fill="#2f3035" opacity=".92" d="M428.29 283.68c1.52 2.33.41 5.52.81 8.25L427 291c.1-2.52-1.56-5.81 1.29-7.32z"/><path fill="#48494c" d="M266.11 295.11c-.62-3.06-1.79-7.29 1-9.56l3.11.26c1.12 3.23-2.49 6.53-4.11 9.3z"/><path fill="#89d3f5" d="M304 291.94c-4.45-8.43 10.14-7.08 5.2-.69.62-7.41-7.41.37 0 0l-.43.75c-1.7.66-4.42 3.21-4.77-.06z"/><path fill="#a1a1a7" d="M295.1 292.13c.9-1.82.51-4.51 2.58-5.51 7.19 1.14 3.38 15.96-4.89 12.04l.36-4.31c1.05-.4 1.7-1.14 1.95-2.22z"/><path fill="#4d4c4e" d="M334.69 291.93c1.91-1.73 3.99-3.25 6.05-4.78 3.43 1.27 7.35.77 10.5 2.82l-.41.81c-.18.35-.56 1.04-.75 1.39-5.1-.98-10.25-.27-15.39-.24z"/><path fill="#e1ffff" d="M309.2 291.25c.62-7.41-7.41.37 0 0z"/><path fill="#cfced5" d="M330.26 288.17c7.56 1.2-6.13 3.37 0 0z"/><path fill="#6c6a69" d="M254.87 294.21c-1.38-1.97-2.71-4.73.75-5.03 2.22 2.87.09 5.65 2.84 7.89-2.52 1.93-5.04-.21-7.45-1.14.1 3.99 2.12 6.98 5.9 8.31-6.6-2.48-12.14 3.55-18.54 4.67l-2.18-.88c2.36-2.63 9.67-3.98 3.86-7.05 1.33-2.53-.71-4.47-1.08-6.87 2.55-1.48 7.52 1.48 8.22-1.98 2.45 1.04 5.01 1.86 7.68 2.08z"/><path fill="#585554" d="M264.12 299.95c2.45-3.99 7.8-6.07 7.78-11.19 3.47.31 6.9 1.07 10.2 2.22 1.15 2.3 1.56 5.52-1.94 5.47-1.36 3.07 3.25 1.84 2.9 4.54-3.75-1.14-7.56-.92-10.81 1.44-.57 2.75 3.26 4.05 3.69 6.8-2.49-1.37-5.26-1.41-7.76-.04-4.29 3.04-13.85-6.16-14.31 1.75l10.91-.04 3.32.4c-6.22 3.07-19.48-3.76-21.24 5.69 0 4.09.44 8.33 2.12 12.11 3.91 1.59 9.6-.23 14.3.14-7.93-.37-11.5 7.72-19.15 9.04l-6.24.69c-4.88-.09-10.01-1.95-13.65-5.22 1.56-6.74-2.82-11.45-3.41-17.56 6.31 1.43 12.92-3.3 17.54-7.28 6.4-1.12 11.94-7.15 18.54-4.67 3.44.92 12-.32 7.21-4.29z"/><path fill="#82857c" d="M351.24 289.97c13.82.25 27.65-.24 41.47-.33l7.17.4c1.02 4.07-8.77-1.67-8.97 2.34 2.65-.24 3.33 1.51 2.56 3.81 7.84-3.59 16.27 2.3 24.24-1.66 3.98 4.96 9.56-1.61 14.65 1.93l-.49.58c-1.29-.51-3.27-.58-3.63 1.13-.59 1.06-1.23 2.11-2.16 2.91l-1.71-.3c-6.75-6.23-14.07.24-21.75-.32 3.26 1.36 7.09.51 9.94 2.92 3.17 1.8-6.67-1.07-5.82 2.55-1.54.06-3.08.07-4.61.06.77-5.43-6.08-.82-9.28-2.85-2.79-1.56-4.87 1.28-7 2.66l-.75.1-1.05-1.66c-8.84 1.69-17.75.89-27.13 2.09-1.86-.84-3.96-.72-5.84-.04-.89-1.6-1.6-3.71-3.85-3.52-2.86-.46-5.67-.72-8.52-1.07 17.55-3.2 36.19.36 54.19-1.84-1.17-4.68-10.35-1.34-14.01-2.27 1.25-.51 5.48.01 3.03-1.89-.5-3.98 4.51-2.15 6.49-4.47-12.52-.57-25.06.06-37.58-.45l.41-.81z"/><path fill="#a1a698" d="M392.71 289.64c9.72-1.69 19.71-.21 29.53-.39-1.72 1.86-8.21-1.53-7.14 1.78L427 291l2.1.93c2.66 1.33 8.43 2.15 3.26 4.53-5.09-3.54-10.67 3.03-14.65-1.93-7.97 3.96-16.4-1.93-24.24 1.66.77-2.3.09-4.05-2.56-3.81.2-4.01 9.99 1.73 8.97-2.34l-7.17-.4z"/><path fill="#9ea196" d="M308.77 292c5.88-.44 11.78-1.03 17.69-.84-.17 6.57 7.05-2.31 5.74 3.84-1.32.47-2.64.95-4.01 1.23-5.37 1.26-9.58-6.65-14.48-1.49-2.06 2.92-4.29-.61-4.94-2.74z"/><path fill="#a8ada1" d="M350.08 292.17l.75-1.39c12.52.51 25.06-.12 37.58.45-1.98 2.32-6.99.49-6.49 4.47-10.94.41-21.9.44-32.83.21a98.04 98.04 0 0 0 .99-3.74z"/><path fill="#c5c4cf" d="M287.18 294.28c1.17-2.45 4.04 0 5.97.07l-.36 4.31-1.03 2.38c-2.19-1.43-5.3-3.84-4.58-6.76z"/><path fill="#cb9678" d="M222.66 303.11c-.14-7.11 10.03-10.89 12.72-3.26-2.05 3.41-12.93 12.01-12.72 3.26z"/><path fill="#707174" d="M328.19 296.23c1.37-.28 2.69-.76 4.01-1.23l16.89.91c10.93.23 21.89.2 32.83-.21 2.45 1.9-1.78 1.38-3.03 1.89l-45.67.64c-5.07.12-18.34-.47-5.03-2z"/><path fill="#a5ab96" d="M251.01 295.93c2.41.93 4.93 3.07 7.45 1.14 2.52-.45 4.74.37 5.66 2.88 4.79 3.97-3.77 5.21-7.21 4.29-3.78-1.33-5.8-4.32-5.9-8.31z"/><path fill="#adb1a5" d="M333.22 298.23l45.67-.64c3.66.93 12.84-2.41 14.01 2.27-18 2.2-36.64-1.36-54.19 1.84h-1.5c-5.72-3.89-12.92 1.16-18.47-2.46 4.82-.38 9.66-.49 14.48-1.01z"/><path fill="#a0a697" d="M402.62 300.46c7.68.56 15-5.91 21.75.32-2.01 1.42-13.23-2.34-9.1 3.01 2.08.04 4.57-1.28 6.03.85-2.57.26-5.13.62-7.66 1.07l-6.9.22c-.85-3.62 8.99-.75 5.82-2.55-2.85-2.41-6.68-1.56-9.94-2.92z"/><path fill="#2b2a2c" opacity=".59" d="M428.24 298.17c.36-1.71 2.34-1.64 3.63-1.13-.68 1.38-2.33 1.43-3.63 1.13z"/><path fill="#afb3a5" d="M309.24 298.6c2.39.87 9.04-1.48 8.73 2.27-5.48.61-12.57 1.81-17.22-1.63 2.74-.22 5.7-.3 8.49-.64z"/><path fill="#4c4744" d="M235.38 299.85c1.67-1.38 3.23.23 4.67 1.13 5.81 3.07-1.5 4.42-3.86 7.05-5.16 3.69-12.5 2.66-18.47 2.05l-.83-.13-.82-1.19c-2.46-4.8 2.31-10.26 6.59-5.65-.21 8.75 10.67.15 12.72-3.26z"/><path fill="#484140" d="M281.06 308.21c1.24-3.9 5.09-5.82 8.05-8.26-5.54 4.67 4.8 8 3.79 1.72 1.86-.22 3.76-.54 5.6.01-.46 2.39-1.87 4.34-3.4 6.16l-.86-.08c-3.78-.52-7.81-1.24-11.54-.02l-1.64.47z"/><path fill="#686c63" opacity=".95" d="M415.27 303.79c-4.13-5.35 7.09-1.59 9.1-3.01l1.71.3c-3.29 3.64-6.64 7.3-12.44 4.63 2.53-.45 5.09-.81 7.66-1.07-1.46-2.13-3.95-.81-6.03-.85z"/><path fill="#5c5c5a" d="M298.5 301.68c2.86.92 7.3.37 8.03 4.1 3.44.37 5.68-4.3 9.43-3.59 7.03 1.45 14.2.13 21.25-.49h1.5l.22 1.02c-8.02 8.58-15.69 19.04-28.05 21.07-4.47-1.45-8.95-2.18-13.62-.59.56-2.97-1.57-5.47-2.28-8.22-.06-1.56.01-3.34-2.09-3.09l.38-.72c1.79-.55 3.2-1.43 1.83-3.33 1.53-1.82 2.94-3.77 3.4-6.16z"/><path fill="#2a2b27" opacity=".53" d="M338.71 301.7l8.52 1.07-8.3-.05-.22-1.02z"/><path fill="#aba9b0" d="M385.85 305.8c2.13-1.38 4.21-4.22 7-2.66 3.2 2.03 10.05-2.58 9.28 2.85-5.44.02-10.86.09-16.28-.19z"/><path fill="#eeecf0" d="M277 302.86c1.75.94 4.49 3.31 1.85 4.98-2.41.09-1.8-3.38-1.85-4.98z"/><path fill="#606161" opacity=".96" d="M356.92 306.33c9.38-1.2 18.29-.4 27.13-2.09-2.38 1.64-4.82 5.18-8.05 3.85-2.67-.83-5.47-.91-8.22-1.08 2.31 1.92 5.16 3.33 8.24 3.01l6.74-.14c-.78 3.53-8.66-1.23-8.69 2.54 3.23 2.04 6.7-.69 9.82 1.55 3.21-6.11 9.45 2.3 13.99-1.02 5.01-3.46 12.54 3.9 15-3.61-6.95-3.47-15.16-1.43-22.58-2.13-1.57-.53-4.67.62-5.2-1.31l.75-.1c5.42.28 10.84.21 16.28.19 1.53.01 3.07 0 4.61-.06l6.9-.22c1.29 4.64-1.9 8.05-4.41 11.56l-12.45-.17c-3.49-.18-7.23-1.52-10.55-.03-2.76.02-5.51.01-8.25-.03-.98-.66-1.91-1.37-2.87-2.02-2.13-3.13-4.96-5.89-8.88-6.44-3.08-.76-6.27-1.04-9.38-1.53l.07-.72z"/><path fill="#353636" d="M384.05 304.24l1.05 1.66c.53 1.93 3.63.78 5.2 1.31-1.96 2.65-6.49-.56-7.54 2.67l-6.74.14-.02-1.93c3.23 1.33 5.67-2.21 8.05-3.85z"/><path fill="#2e2d2a" opacity=".65" d="M351.08 306.29c1.88-.68 3.98-.8 5.84.04l-.07.72-5.77-.76z"/><path fill="#1c1512" opacity=".76" d="M253.87 310.94c.46-7.91 10.02 1.29 14.31-1.75l-3.4 1.71-10.91.04z"/><path fill="#17110f" opacity=".57" d="M282.7 307.74c3.73-1.22 7.76-.5 11.54.02-3.86.1-7.69.24-11.54-.02z"/><path fill="#85858a" d="M390.3 307.21c7.42.7 15.63-1.34 22.58 2.13-2.46 7.51-9.99.15-15 3.61-4.54 3.32-10.78-5.09-13.99 1.02-3.12-2.24-6.59.49-9.82-1.55.03-3.77 7.91.99 8.69-2.54 1.05-3.23 5.58-.02 7.54-2.67m5.65.84c-1.06 3.35 6.25 4.59 5.07.96.05-2.15-3.61-.6-5.07-.96z"/><path fill="#b6856a" d="M236.19 308.03l2.18.88c-4.62 3.98-11.23 8.71-17.54 7.28-1.07-2.02-2.15-4.04-3.11-6.11 5.97.61 13.31 1.64 18.47-2.05z"/><path fill="#dfdde4" d="M395.95 308.05c1.46.36 5.12-1.19 5.07.96 1.18 3.63-6.13 2.39-5.07-.96z"/><path fill="#1e1d1d" opacity=".56" d="M211.95 309.27c1.35-.37 2.72-.54 4.12-.51l.82 1.19c-1.67.42-3.53.44-4.94-.68z"/><path fill="#b38467" d="M268.1 311.3l.8.01c7.96.87 15.99.86 23.99.58 2.1-.25 2.03 1.53 2.09 3.09-8.88-1.42-18.02.89-26.98-.68-7.01.75-14.78-1.01-21.14 2.69 1.76-9.45 15.02-2.62 21.24-5.69z"/><path fill="#473326" opacity=".69" d="M268.9 311.31c8.11-.51 16.24-.33 24.37-.14l-.38.72c-8 .28-16.03.29-23.99-.58z"/><path fill="#d3a082" d="M246.86 316.99c6.36-3.7 14.13-1.94 21.14-2.69 8.96 1.57 18.1-.74 26.98.68.71 2.75 2.84 5.25 2.28 8.22l-6.28.75c-1.46-.39-3.1-.26-4.15.94l-.89.31c-1.32-.74-2.91-.47-4.05.46-1.62.49-3.23 1.03-4.83 1.59a7.81 7.81 0 0 0-4.01-.24c-8.04.47-16.07 1.24-24.07 2.09-1.68-3.78-2.12-8.02-2.12-12.11z"/><path fill="#262626" opacity=".55" d="M377.98 317.04l8.25.03-.46.84c-2.54-.22-5.61.6-7.79-.87z"/><path fill="#222224" opacity=".53" d="M396.78 317.1l12.45.17c-3.76 2.18-8.5.06-12.45-.17z"/><path fill="#73533f" opacity=".81" d="M290.98 323.95l6.28-.75-6.28.75z"/><path fill="#6a4a39" opacity=".75" d="M286.83 324.89c1.05-1.2 2.69-1.33 4.15-.94-.75 1.62-2.75 1.38-4.15.94z"/><path fill="#624737" opacity=".7" d="M281.89 325.66c1.14-.93 2.73-1.2 4.05-.46l-.16.8c-1.33.26-2.62.15-3.89-.34z"/><path fill="#a2765d" opacity=".96" d="M248.98 329.1c8-.85 16.03-1.62 24.07-2.09l-.06.78-9.71 1.45c-4.7-.37-10.39 1.45-14.3-.14z"/><path fill="#473327" opacity=".57" d="M273.05 327.01a7.81 7.81 0 0 1 4.01.24c-1.11 1-2.73 1.23-4.07.54l.06-.78z"/><path fill="#242424" opacity=".67" d="M237.89 338.97l6.24-.69-6.24.69z"/></svg>