<svg xmlns="http://www.w3.org/2000/svg" width="512" height="512" viewBox="0 0 384 384" xmlns:v="https://vecta.io/nano"><path fill="#a79e8b" d="M245.28 32.37c1.27-3.85 3.25-7.44 6.54-9.93l2.85.9-.64 4.4c-1.67.48-3.33.98-4.97 1.52 1.38.91 2.89 1.63 4.54 1.91 2.3.43 4.59.9 6.87 1.41l-2.91-3.57 1.48-5.09c3.66 1.14 5.23 5.1 4.55 8.67-1.84 2.51-2.62 5.51-2.64 8.59-3.5-3.29-8.36-3.8-12.91-4.27l-2.76-4.54z"/><path fill="#a39786" d="M152.31 29.23l2.65-1.01c3.54 1.87 6.04 4.97 7.62 8.58 1.03 1.77 1.5 3.76 1.77 5.76-4.92-.29-11.28-.18-13.59 5.08-1.12-2.93-2.32-6.37-5.91-6.82-1.23-3.68-.87-8.64 3.25-10.27 1.52 2.85 2.03 6.05-.33 8.63 1.9-.7 3.81-1.39 5.75-2l5.08-1.68c-1.8-1.05-3.73-1.83-5.68-2.53l-.61-3.74z"/><path fill="#312e2d" opacity=".6" d="M249.06 29.26l4.97-1.52-.43 3.43c-1.65-.28-3.16-1-4.54-1.91z"/><path fill="#242223" opacity=".5" d="M152.92 32.97c1.95.7 3.88 1.48 5.68 2.53l-5.08 1.68-.6-4.21z"/><path fill="#7e7264" d="M240.68 34.76c1.49-.88 3.05-1.62 4.6-2.39l2.76 4.54c-.7 3.3-1.59 6.57-2.38 9.85-1.6 7.07-.37 14.57-3.56 21.32-3.29 7.5 12.52 11.03 12.3 2.37-3.08.22-6.17.09-9.21-.45l-.51-3.08 10.19 2.19c.76-5.04 2.03-9.99 3.84-14.77 1.01-4.33 1.8-8.73 2.24-13.16.02-3.08.8-6.08 2.64-8.59l-.35 3.58c2.63 5.06 8.71 6.28 11.92 10.82l-.78 3.45-4.76-.79-1.81-4.79c-1.47 3.45-2.44 7.08-3.28 10.73 2.73-1.89 5.9-2.74 9.16-1.73l-.6 3.54c-3.43 1.67-7.2 2.41-11 2.02-2.02 6.21-5.67 12.64-3.84 19.35l-2.15.94-3.93-1.43c-3.97-1.29-8.07-2.09-12.13-3.03-2.41 5.19.26 9.59 5.19 11.71-3.96.95-6.96-1.24-9.15-4.29l-4.32 5.43c4.64 1.48 9.11 3.73 14.03 4.14l.85 2c1.62 1.06 3.37 2 4.74 3.42.49 5.65-3.6 10.41-4.22 15.94l3.73-1.07c-1.68 2.23-2.87 4.82-2.62 7.7l-.06 1.83-4.56-2.97c.01-2.84 1.91-9.57-2.87-8.45-3.62 1.43-7.02 1.14-8.87-2.69-2.17-2.14-5.35-2.81-7.89-4.43 7.4.32 14.67 1.82 22.04 2.5l1.88-7.12c-4.31 2.29-8.41-.77-12.51-1.9-3.94-.36-7.91.03-11.87-.02l-.34 6.1a50.93 50.93 0 0 1-2.7-1.82c-.46-1.66-.73-3.36-1.02-5.05 6.57-5.43 9.77-13.26 13.62-20.5 4.17-8.25 4.12-17.95 5.95-26.9l-1.99 4.09-3.26-.92 3.09-1.6-3.49-2.9-.96-3.41.33.45 2.36 3.99c1.07-3.44 1.94-6.93 2.56-10.48l-2.27 1.1a75.32 75.32 0 0 1 5.24-4.37z"/><path fill="#a1a1a9" d="M229.3 36.53c3.55-1.71 7.45-2.87 11.38-1.77a75.32 75.32 0 0 0-5.24 4.37l-.88.81c-1.5-.33-3.07-.27-4.51.26l-.47-.75c-.11-.97-.21-1.94-.28-2.92z"/><path fill="#877969" d="M162.58 36.8c5.37 3.49 12.86-1.87 17.17 3.98l-1.02 2.03c-2.8 1.59-5.31.18-7.39-1.8.27 3.86 1.25 7.85 4.03 10.7l1-4.4 2.79-1.4 2.88.62c.04 3.82-2.47 7.41-6.21 8.4-1.83.04-2.5 1.89-1.17 3.12 2.06 4.56 2.51 9.73 5.13 14.06 1.8 3.51 5.76 4.94 8.39 7.68 2.32 3.63 3.09 7.98 3.72 12.18l-2.88-6.07-5.19 1.91c-.48-5.21-5.17-8.17-8.77-11.29.11-6.87-3.77-12.96-5.33-19.51-1.47-4.94-4.58-9.3-5.38-14.45-.27-2-.74-3.99-1.77-5.76z"/><path fill="#d9c6ae" d="M245.66 46.76l2.38-9.85c4.55.47 9.41.98 12.91 4.27-.44 4.43-1.23 8.83-2.24 13.16-5.52 1.79-13.97-.31-13.05-7.58z"/><path fill="#2d2c2e" opacity=".71" d="M230.05 40.2c1.44-.53 3.01-.59 4.51-.26-.98 1.59-3.53 2.14-4.51.26z"/><path fill="#796b5c" d="M144.85 40.82c3.59.45 4.79 3.89 5.91 6.82 2.41 5.28 3.88 11.11 7.68 15.64l-2.59 2.16c-1.25-4.56-6.51-5.45-10.4-6.69-1.02-2.27-2.24-4.46-3.84-6.38.32-.79.67-1.56 1.02-2.33-.47-.1-1.41-.32-1.88-.43 2.38-1.41 3.79-3.85 4.69-6.39l-.59-2.4z"/><path fill="#cebca4" d="M150.76 47.64c2.31-5.26 8.67-5.37 13.59-5.08.8 5.15 3.91 9.51 5.38 14.45l-7.77 3.04c4.21 4.2 6.95 9.57 6.8 15.63-2.62 1.9-5.32 3.7-8.1 5.36-1.06-3.67-1.45-8.26 3.52-8.65-1.8-3.11-3.53-6.27-5.74-9.11-3.8-4.53-5.27-10.36-7.68-15.64z"/><path fill="#9d9da5" d="M227.87 43.43l4.59.64.96 3.41 3.49 2.9-3.09 1.6c-2.56-1.12-4.61-3.06-6.62-4.95l.67-3.6z"/><path fill="#c3b198" d="M242.1 68.08c3.19-6.75 1.96-14.25 3.56-21.32-.92 7.27 7.53 9.37 13.05 7.58-1.81 4.78-3.08 9.73-3.84 14.77l-10.19-2.19.51 3.08c3.04.54 6.13.67 9.21.45.22 8.66-15.59 5.13-12.3-2.37m3.51-8.04c1.68 4.33 5.64 5.66 9.28 2.49-1.9-4.05-5.75-6.3-9.28-2.49z"/><path fill="#bda78e" d="M135.59 54.25c1.6-1.67 3.22-3.36 5.16-4.64l1.88.43-1.02 2.33c-.66 1.68-1.08 3.44-1.44 5.21l1.6 1.58-1.7-.38-2.31-.46c-.8 5.07.31 10.11 1.95 14.89l-5.55 3.67c2.45 2.15 4.96 4.23 7.5 6.29 1.97 2.5 3.81 5.1 5.67 7.68-1.74.02-3.47.12-5.21.21-.08 1.66-.17 3.32-.18 4.98-1.43-5.89-6.49-3.9-10.85-4.5 2.27-1.17 4.63-2.14 7.01-3.05-2.4-3.18-5.22-5.99-8.35-8.44-2.56 4.98-7.48 7.93-12.86 5-3.52-4-9.84-8.35-4.77-13.79l1.44-2.43c-3.36-2.85-7.54-4.53-11.98-4.22-.53 2.06-1.07 4.12-1.74 6.14-1.94 6.89-9.24 7.08-15 5.36 1.65-1.25 3.34-2.46 5.21-3.35l7.35-.28-.41-8.62-.29-5.05c-4.69.14-12.92-1.69-13.17 5.2-.23 3.01-.24 6.03-.32 9.05-4.44.33-2.52-6.17-2.71-8.96l-8.18 1.4 1.59 3.46-2.8.26-1.54-2.12c-4.25 1.81-8.42 3.82-12.42 6.15 1.05 2.23 2.11 4.45 2.97 6.76l.88 2.78c-3.13-1.58-4.56-4.8-5.92-7.83-3.52 2.56-5.85 6.66-10.18 8.04l-1.23 1.78c-1.93 2.72-3.7 5.56-5.53 8.35a285.72 285.72 0 0 0 5.21 4.61c6.45 3.76 2.08 11.54 1.68 17.33l-6.95-.25-.19 9.02c-3.26-.2-6.52-.54-9.72-1.27 1.63-10.12 2.2-20.82 8.5-29.4l-3.7-3.22c2.61-3.81 5.39-7.49 8.14-11.19l4.77 2.08c3.11-3.34 6.36-6.56 9.89-9.45l-1.3-3.62c4.1-2.13 8.25-4.18 12.43-6.16l2.17 3.2c4.45-1.35 9.06-1.98 13.66-2.5l.82-4.48c5.75.09 11.58.75 17.22-.7l2.21 3.2c5.07-1.65 10.4-2.25 15.67-2.86l.52-4.96 7.01.05c-3.32 1.15-6.06 3.46-7.19 6.86 5.2.28 8.94 3.75 11.39 8.06 5.41-1.87 4.26-8.71 5.21-13.23m-23.06 23.09c3.17 2.79 6.75 5.07 10.19 7.51 1.48-2.18 3.39-4.24 3.99-6.87-1.8-2.66-4.91-4.3-7.25-6.51-3.26-3.41-7.68 2.64-6.93 5.87m14.82 1.49c2.06-.55 4.15-.98 6.27-1.28-.82-1.37-1.68-2.7-2.57-4.02-1.47 1.59-2.68 3.39-3.7 5.3M37.24 97.14c-4.95 7.29-5.21 16.42-6.35 24.86l4.04-.1 1.73-8.2c2.66-.58 6.98-1.77 6.53-5.22-1.79-.41-3.61-.67-5.42-.97 1.19-2.8 2.52-5.54 3.98-8.21l-4.51-2.16z"/><path fill="#eed8bd" d="M126.18 52.56c3.12.32 7.04-.91 9.41 1.69-.95 4.52.2 11.36-5.21 13.23-2.45-4.31-6.19-7.78-11.39-8.06 1.13-3.4 3.87-5.71 7.19-6.86z"/><path fill="#23201d" opacity=".45" d="M141.61 52.37c1.6 1.92 2.82 4.11 3.84 6.38l-3.68.41-1.6-1.58c.36-1.77.78-3.53 1.44-5.21z"/><path fill="#2b2724" opacity=".65" d="M174.66 58.05c-1.33-1.23-.66-3.08 1.17-3.12.22 1.27-.17 2.31-1.17 3.12z"/><path fill="#ac967f" d="M161.96 60.05l7.77-3.04c1.56 6.55 5.44 12.64 5.33 19.51 3.6 3.12 8.29 6.08 8.77 11.29l5.19-1.91 2.88 6.07c1.59 4.19 3.81 8.4 8.15 10.26-4.38-.33-8.78-.6-13.09-1.49-5.71-.46-5.67-7.17-3.69-11.09l-2.75-3.47a47.45 47.45 0 0 0-10.08-9.47c-.68 4.29 2.09 7.71 5.33 10.1l3.32 2.74-5.96 3.51 3.24 6.07c-4.2-.48-8.42-.9-12.63-1.23l-.69 2.33-2.82-1.7-.22 3.52c-2.7-1.49-5.42-2.94-8.18-4.3-.1 4.14.53 8.28 2.38 12.01l2.38-.12 3.51-4.7c.27 3.53.61 7.05 1.09 10.56-1.97 1.21-3.88 2.49-5.78 3.8l-.58 5.5-1.27 2.47-1.21-3.03-6.64-.62c1.39-1.77 2.75-3.58 3.81-5.58l.56 5.12 4.27.08c-1.24-7.65-6-15.18-3.75-23.04l-4.42 2.04.79 2.4c-3.89 4.79-10.05 4.89-15.34 2.64l-.35 5.76a94.7 94.7 0 0 1-6.67 1.32c-.92-2.63-2.05-5.18-3.46-7.58 1.16-2.21 2.42-4.36 3.72-6.49l6.21 2.91.46-6.92c1.96 3.23 4.12 6.35 6.27 9.47l6.8-3.08-2.67-6.63c.01-1.66.1-3.32.18-4.98 1.74-.09 3.47-.19 5.21-.21l3.46.1-1.97-3.56c3.33-1.33 7.02-2.25 9.51-5.02-2.95-1.93-5.84-4-8.05-6.78 3.64 1.46 7.07 3.36 10.38 5.45 2.78-1.66 5.48-3.46 8.1-5.36.15-6.06-2.59-11.43-6.8-15.63m-.68 21.99l1.43 2.97c-2.53 2.46-4.67 6.21-3.61 9.78 1.75 3.63 6.25 2.1 9.33 1.61-1.19-5.57-4.26-11.85-.47-17.06l-6.68 2.7z"/><path fill="#e9d1ba" d="M137.76 58.32l2.31.46-1.99 3.34c4.83 1.96 9.94 3.03 15.11 3.58-2.95-3.44-7.04-5.54-11.42-6.54l3.68-.41c3.89 1.24 9.15 2.13 10.4 6.69l2.59-2.16c2.21 2.84 3.94 6 5.74 9.11-4.97.39-4.58 4.98-3.52 8.65-3.31-2.09-6.74-3.99-10.38-5.45 2.21 2.78 5.1 4.85 8.05 6.78-2.49 2.77-6.18 3.69-9.51 5.02l1.97 3.56a133.19 133.19 0 0 0-3.46-.1c-1.86-2.58-3.7-5.18-5.67-7.68 1.13.27 2.27.51 3.41.75l3.61-5.35-2.17-.35.02-6.93-2.64-.83-4.18 2.75c-1.64-4.78-2.75-9.82-1.95-14.89z"/><path fill="#807667" d="M245.61 60.04c3.53-3.81 7.38-1.56 9.28 2.49-3.64 3.17-7.6 1.84-9.28-2.49z"/><path fill="#ddc6aa" d="M83.53 64.01c.25-6.89 8.48-5.06 13.17-5.2l.29 5.05c-4.41-1.56-9.02-.8-13.46.15z"/><path fill="#fffde5" d="M140.07 58.78l1.7.38c4.38 1 8.47 3.1 11.42 6.54-5.17-.55-10.28-1.62-15.11-3.58l1.99-3.34z"/><path fill="#fef1da" d="M83.53 64.01c4.44-.95 9.05-1.71 13.46-.15l.41 8.62-7.35.28-6.84.3c.08-3.02.09-6.04.32-9.05z"/><path fill="#d9c2ae" d="M72.32 65.5l8.18-1.4c.19 2.79-1.73 9.29 2.71 8.96l6.84-.3c-1.87.89-3.56 2.1-5.21 3.35-3.58-1.14-6.03-4.08-8.1-7.05 0 4.91-1.75 10.07-5.56 13.31-4.14 1.95-8.92.58-13.33.93-3.04 3.54-3.18 8.72-2.2 13.06.85 3.69 5.06 4.32 7.65 6.41 2.95-.19 6.04-.82 8.85.43 4.1 2.79 10.82-.47 12.22 5.72l-4.43.98c-2.79-6.6-11.19-2.39-16.29-1.61l-1.36 4.65c4.52-1.54 9.47-1.47 13.44 1.41l1.07-1.18c-1.01 5.94 4.44 8.57 9.52 8.46l-1.46 1.71c3.95.37 7.54-1.22 10.8-3.26-.84-3.95-2.19-7.77-4.09-11.33l-5.51-.77-.97-5.11c6.07-2.05 4.13-9.34 5.46-14.25.47 5.22.53 10.46.56 15.69l5.28-.3-4.61 2.8c3.39 6.25 5.13 14.62 13.2 16.35 7.82-.33 15.82-2.07 23.51.26l-6.22.61c-20.62.26-41.27-.29-61.89-.34l.29-9.95-4.67-.58c3.04-6.11-.24-13.08-5.44-16.81 2.26-3.45 4.47-7.09 4.5-11.36l-3.92-.12c-.42 0-1.27-.01-1.7-.01l-2.44-2-3.33 1.92L44.9 83c4.33-1.38 6.66-5.48 10.18-8.04 1.36 3.03 2.79 6.25 5.92 7.83l-.88-2.78c4.59-1.12 8.91-3.11 12.68-5.97-.52-1.62-1.04-3.25-1.69-4.82l2.8-.26-1.59-3.46m-8.43 50.62c-1.11 7.37 6.84 8.39 12.21 7.03-.98-6.19-6.67-7.9-12.21-7.03z"/><path fill="#fef0d2" d="M101.58 64.61c4.44-.31 8.62 1.37 11.98 4.22l-1.44 2.43c-3.95-1.05-8.52-3.27-12.28-.51.67-2.02 1.21-4.08 1.74-6.14z"/><path fill="#a69c8d" d="M313.21 67.91l2.74-2.49c5.76.81 9.84 6.04 15.94 5.42 2.64-2.6 6.15-3.7 9.79-3.82l2.01 2.05-2.61 3.03-5.55-1.02c1 1.35 1.99 2.71 3.05 4.01l2.06 2.36c1.07 1.07 2.22 2.04 3.38 3.02l-.97-4.97c1.33-1.08 2.69-2.12 4.07-3.15 2.45 3.28.69 7.35-1.7 10.09l-2.91.19-2.55 2.88c-2.59-3.52-5.43-6.83-8.37-10.05-5.83.06-9.64 4.82-14.75 6.78l1.19-3.04-2-2.22a105.56 105.56 0 0 0 2.81-3.16l2.41 2.53 6.92-1.5c-4.34-1.83-8.35-5.01-13.3-4.75l-1.66-2.19z"/><path fill="#fff6e2" d="M57.15 73.25c4-2.33 8.17-4.34 12.42-6.15l1.54 2.12c.65 1.57 1.17 3.2 1.69 4.82-3.77 2.86-8.09 4.85-12.68 5.97-.86-2.31-1.92-4.53-2.97-6.76z"/><path d="M76.74 69.06c2.07 2.97 4.52 5.91 8.1 7.05 5.76 1.72 13.06 1.53 15-5.36 3.76-2.76 8.33-.54 12.28.51-5.07 5.44 1.25 9.79 4.77 13.79 2.01 2.58 5.09 3.79 8.06 4.89-2.09 2.69-4.36 5.22-6.83 7.56l-2.33-1.24.08 3.1 2.05.74-.27.71c-3.69 5.61-.12 11.65 1.62 17.23 2.52.48 5.09.85 7.67.7 2.58-.13 5.16.11 7.69.68l-.39-3.05c2.23 1.06 4.43 2.26 6.3 3.9l-3.39 3.65c-2.6-.1-5.21-.22-7.8-.43l-.86-.07c-7.69-2.33-15.69-.59-23.51-.26-8.07-1.73-9.81-10.1-13.2-16.35l4.61-2.8-5.28.3c-.03-5.23-.09-10.47-.56-15.69-1.33 4.91.61 12.2-5.46 14.25l.97 5.11 5.51.77c1.9 3.56 3.25 7.38 4.09 11.33-3.26 2.04-6.85 3.63-10.8 3.26.37-.42 1.1-1.28 1.46-1.71 5.03-3.57 3.84-10.78-1.95-12.71-1.4-6.19-8.12-2.93-12.22-5.72l.17-2.09c-3.76-1.17-7.71-1.31-11.54-2.08l.07-4.62-2.88-2.01c.06-3.03.04-6.07-.12-9.1 4.41-.35 9.19 1.02 13.33-.93 3.81-3.24 5.56-8.4 5.56-13.31m35.01 24.11c.29 1.89.62 3.78.97 5.66l-2.81 4.17 2.79-.45c1.2-3.12 2.73-7.26-.95-9.38m-8.16 8.3l1.51 2.69 4.36-.57c-1.73-1.24-3.81-1.74-5.87-2.12zm106.49 19.52c1.97 3.32 3.66 6.8 5.61 10.13l3.54-1.97.48 4.67c.49 4.29 1.64 8.47 3.09 12.52.07 2.86.17 5.77-.44 8.58-4.27 7.55-13.77 9.17-21.7 8.64 1.83-2.62 4.35-4.6 7.09-6.19l-4.27-1.91c1.11-9.91.68-19.89 1.34-29.83 1.78-1.51 3.49-3.1 5.26-4.64z" fill="#fffffb"/><path fill="#fffbe5" d="M112.53 77.34c-.75-3.23 3.67-9.28 6.93-5.87 2.34 2.21 5.45 3.85 7.25 6.51-.6 2.63-2.51 4.69-3.99 6.87-3.44-2.44-7.02-4.72-10.19-7.51z"/><path d="M139.71 73.21l4.18-2.75 2.64.83-.02 6.93 2.17.35-3.61 5.35-3.41-.75-7.5-6.29 5.55-3.67zM154 167.93c3.96-.27 7.95-.55 11.92-.19 4.85 2.08 9.67 5.6 9.75 11.43l-6.9-.33c9.46 6.15 4.38 18.29 3.25 27.17-3.2 2.5-4.81 6.27-6.48 9.84-8.33-1.98-11.16-11.36-11.75-18.88-.59-5.57 3.41-11.72-.33-16.73-.08-1.28-.22-2.55-.35-3.82.22-2.84.58-5.66.89-8.49zm-14.15 83.38l5.86-2.38c3.87 4.81 1.49 10.29-.81 15.14-2.35-1.61-4.23-3.76-5.34-6.39l3.38-.44-.13-3.1-2.7-.19-1.66 3.38-2.75-.12-1.5-2.72c1.87-1.08 3.73-2.19 5.65-3.18z" fill="#fffffe"/><path fill="#545050" opacity=".88" d="M314.87 70.1c4.95-.26 8.96 2.92 13.3 4.75l-6.92 1.5-2.41-2.53 1.96-2.36-4.74.25-1.19-1.61z"/><path fill="#918985" d="M307.49 73.01l2.72-2.61 3.88 3.57-2.02 3.78c1.34-.1 2.73-.13 3.96-.77l2 2.22-1.19 3.04-1.7 3.97 4.06 1.08c-5.49 3.01-11.1 5.94-15.68 10.29-1.93 2.21-4.94 1.84-7.57 1.92-2.83.74-5.49 2.04-8.01 3.5 1.99-2.07 4.06-4.43 7.01-5.04 8.39-1.12 12.54-9.44 18.73-14.23-4.11-2.1-5.73-6.37-6.19-10.72z"/><path fill="#2d2b2a" opacity=".6" d="M335.53 71.08l5.55 1.02-2.5 2.99-3.05-4.01z"/><path fill="#7d6d5b" d="M127.35 78.83c1.02-1.91 2.23-3.71 3.7-5.3l2.57 4.02c-2.12.3-4.21.73-6.27 1.28z"/><path fill="#cfbba7" d="M240.04 75.25c4.06.94 8.16 1.74 12.13 3.03.58 4.98 1.94 11.45-3.42 14.34l-1.17-4.21-2.35-1.45c-4.93-2.12-7.6-6.52-5.19-11.71z"/><path fill="#dec9b0" d="M316.84 82.24c5.11-1.96 8.92-6.72 14.75-6.78 2.94 3.22 5.78 6.53 8.37 10.05-6.04 7.77-14.61 12.65-22 18.93-2.97-3.02-5.83-6.16-8.91-9.08.22 4.56 3.38 7.77 7.15 9.89l-3.27 2.92c-3.42-2.43-6.4-5.37-9.56-8.1a77.08 77.08 0 0 0-1.19.74c-1.53.99-3.02 2.04-4.51 3.08-.72-1.41-1.05-2.96-1.72-4.39 2.63-.08 5.64.29 7.57-1.92 4.58-4.35 10.19-7.28 15.68-10.29l-4.06-1.08 1.7-3.97m-1.61 10.79c-.97 4.72 1.79 7.94 6.63 6.74.37-4.34-1.8-7.95-6.63-6.74z"/><path fill="#343130" opacity=".65" d="M340.64 77.45l2.41-1.95.97 4.97-3.38-3.02z"/><path fill="#fff4d3" d="M170.44 76.71a47.45 47.45 0 0 1 10.08 9.47l-4.75.63c-3.24-2.39-6.01-5.81-5.33-10.1z"/><path fill="#98846e" d="M252.17 78.28l3.93 1.43 2.15-.94 1.63 4.42c1.35 4.08-.54 8.3-1.99 12.08-3.2-.24-6.2-1.45-9.14-2.65 5.36-2.89 4-9.36 3.42-14.34z"/><path fill="#73604e" d="M161.28 82.04l6.68-2.7c-3.79 5.21-.72 11.49.47 17.06-3.08.49-7.58 2.02-9.33-1.61-1.06-3.57 1.08-7.32 3.61-9.78l-1.43-2.97z"/><path fill="#fff6d7" d="M116.89 85.05c5.38 2.93 10.3-.02 12.86-5 3.13 2.45 5.95 5.26 8.35 8.44-2.38.91-4.74 1.88-7.01 3.05-4.76 2.63-10.16 4.68-13.44 9.27l.27-.71-2.05-.74-.08-3.1 2.33 1.24c2.47-2.34 4.74-4.87 6.83-7.56-2.97-1.1-6.05-2.31-8.06-4.89z"/><path fill="#817162" d="M342.51 82.63l2.91-.19c-5.69 6.22 3.52 13.11.89 20.16-4.83.49-5.81-4.32-4.65-7.96-3.07 1.92-5.92 4.2-8.12 7.09l5.11-.27 2.72 4.6c-4.38 3.41-9.37-.5-12.56-3.64-5.08 3.2-10.35 6.57-13.61 11.77l-1.85.25-2.3-3.37c-2.64-3.68-5.8-6.95-8.87-10.26l1.19-.74c3.16 2.73 6.14 5.67 9.56 8.1l3.27-2.92c-3.77-2.12-6.93-5.33-7.15-9.89 3.08 2.92 5.94 6.06 8.91 9.08 7.39-6.28 15.96-11.16 22-18.93l2.55-2.88z"/><path fill="#fff0d5" d="M43.67 84.78L47 82.86l2.44 2 1.7.01 1.88 2.16c-2.23 3.7-4.62 7.29-7.24 10.72-.6 0-1.82-.01-2.43-.01l-5.21-4.61c1.83-2.79 3.6-5.63 5.53-8.35z"/><path fill="#605341" d="M231.76 88.1l4.32-5.43c2.19 3.05 5.19 5.24 9.15 4.29l2.35 1.45 1.17 4.21c2.94 1.2 5.94 2.41 9.14 2.65-1.72 1.76-5.03 3.11-4.34 6.07.99 6.79-1.73 13.27-5.28 18.89-.25-2.88.94-5.47 2.62-7.7l-3.73 1.07c.62-5.53 4.71-10.29 4.22-15.94-1.37-1.42-3.12-2.36-4.74-3.42l-.85-2c-4.92-.41-9.39-2.66-14.03-4.14z"/><path fill="#ad957b" d="M51.14 84.87l3.92.12c-.03 4.27-2.24 7.91-4.5 11.36 5.2 3.73 8.48 10.7 5.44 16.81l4.67.58-.29 9.95-2.08.38c.18-2.9.32-5.8.37-8.7H55.3c-3.16-.02-6.31-.12-9.46-.26l-.81-.04c.4-5.79 4.77-13.57-1.68-17.33l2.43.01c2.62-3.43 5.01-7.02 7.24-10.72l-1.88-2.16m-3.25 24.78l8.07-1.07c-1.06-2.87-2.05-5.78-2.93-8.71-3.71 1.6-5.64 5.88-5.14 9.78z"/><path fill="#fee9c8" d="M55.65 96.36c-.98-4.34-.84-9.52 2.2-13.06.16 3.03.18 6.07.12 9.1l2.88 2.01-.07 4.62c3.83.77 7.78.91 11.54 2.08l-.17 2.09c-2.81-1.25-5.9-.62-8.85-.43-2.59-2.09-6.8-2.72-7.65-6.41z"/><path fill="#d2bea3" d="M175.77 86.81l4.75-.63 2.75 3.47c-1.98 3.92-2.02 10.63 3.69 11.09-1.8.36-3.54.92-5.29 1.47-1.9-2.16-4.76-2.13-7.4-2.21 1.13 2.72 2.15 5.48 2.95 8.31l1.97-1.14c1.83 2.39 3.54 4.94 5.89 6.87 2.51 2.29 5.65-.88 8.23-1.55l.48-3.15c5.24-1.85 11.24-4.41 16.1-.18l3.52-1.62 1.4 2.68c-1.23 4.32-5.96 5.35-8.25 8.78-1.75 2.58-4.05 4.68-6.25 6.85-1.8.78-3.55 1.64-5.31 2.5-1.68-3.2-3.49-6.34-5.26-9.5-2.84 2.62-8.25 5-7.05 9.67 1.12 4.89-1.12 9.66-1.23 14.55l-4.13 2.84c-.9-4.78-2.17-9.49-3.3-14.22-1.05-3.57-1.34-7.36.45-10.75l-4.69 3.64c-2.17-3.38-3.88-7.02-5.03-10.86l6.96 1.2-1.64-1.71c3.1-.02 6.22-.07 9.32-.23-5.44-7.16-12.75-1-18.21 2.52-.48-3.51-.82-7.03-1.09-10.56l-3.51 4.7-2.38.12c-1.85-3.73-2.48-7.87-2.38-12.01 2.76 1.36 5.48 2.81 8.18 4.3l.22-3.52 2.82 1.7.69-2.33c4.21.33 8.43.75 12.63 1.23l-3.24-6.07 5.96-3.51-3.32-2.74m18.21 29.26c3.4 1.91 7.35 1.83 11.12 1.67-2.83-2.89-8.05-5.91-11.12-1.67m-19.35 7.85l1.25-.09c1.44 5 .99 10.52 3.43 15.21 1.08-5.12 1.47-10.39.54-15.57 2.03-.1 3.36-1.83 4.91-2.91l-4.98-2.22c-1.86 1.72-3.6 3.57-5.15 5.58z"/><path fill="#f0d8c1" d="M117.65 100.81c3.28-4.59 8.68-6.64 13.44-9.27 4.36.6 9.42-1.39 10.85 4.5.84 2.23 1.75 4.43 2.67 6.63l-6.8 3.08c-2.15-3.12-4.31-6.24-6.27-9.47l-.89-3.66-2.53 5.54c-6-.28-9.29 5.4-9.36 10.75 1.78 5.06 7.21 7.01 12.09 7.58-1.25.84-2.57 1.57-3.91 2.25-2.58.15-5.15-.22-7.67-.7-1.74-5.58-5.31-11.62-1.62-17.23z"/><path fill="#c9b394" d="M128.12 98.16l2.53-5.54.89 3.66-.46 6.92-6.21-2.91-3.72 6.49c1.41 2.4 2.54 4.95 3.46 7.58l6.67-1.32-.43 3.45c-4.88-.57-10.31-2.52-12.09-7.58.07-5.35 3.36-11.03 9.36-10.75z"/><path fill="#908474" d="M315.23 93.03c4.83-1.21 7 2.4 6.63 6.74-4.84 1.2-7.6-2.02-6.63-6.74z"/><path fill="#c0ab97" d="M111.75 93.17c3.68 2.12 2.15 6.26.95 9.38l-2.79.45 2.81-4.17-.97-5.66z"/><path fill="#f3dac1" d="M223.56 96.98c3.96.05 7.93-.34 11.87.02 4.1 1.13 8.2 4.19 12.51 1.9-.67 2.36-1.28 4.74-1.88 7.12-7.37-.68-14.64-2.18-22.04-2.5l-.8-.44.34-6.1z"/><path fill="#fbe3c9" d="M37.24 97.14l4.51 2.16-3.98 8.21 5.42.97c.45 3.45-3.87 4.64-6.53 5.22l-1.73 8.2-4.04.1c1.14-8.44 1.4-17.57 6.35-24.86z"/><path fill="#f1ddcb" d="M287.94 103c2.52-1.46 5.18-2.76 8.01-3.5.67 1.43 1 2.98 1.72 4.39l4.51-3.08c3.07 3.31 6.23 6.58 8.87 10.26-2.76 4.1-5.78 8.19-10.42 10.29l-.89-1.49c.35-1.37.76-2.72 1.17-4.07l-3.75-4.64-3.91 1.66-7.44-6.98c.67-.98 1.33-1.96 2.13-2.84z"/><path fill="#87745e" d="M47.89 109.65c-.5-3.9 1.43-8.18 5.14-9.78.88 2.93 1.87 5.84 2.93 8.71l-8.07 1.07z"/><path fill="#605345" d="M146.18 102.24l4.42-2.04c-2.25 7.86 2.51 15.39 3.75 23.04l-4.27-.08-.56-5.12c-.46-4.53-1.19-9.05-2.55-13.4l-.79-2.4z"/><path fill="#f8e3c1" d="M174.27 100c2.64.08 5.5.05 7.4 2.21l5.29-1.47c4.31.89 8.71 1.16 13.09 1.49 3.84 1.03 7.81 1.43 11.74 2.01 1.72.55 3.42 1.19 5.12 1.81l-3.5 1.49-3.52 1.62c-4.86-4.23-10.86-1.67-16.1.18l-.48 3.15c-2.58.67-5.72 3.84-8.23 1.55-2.35-1.93-4.06-4.48-5.89-6.87l-1.97 1.14c-.8-2.83-1.82-5.59-2.95-8.31z"/><path fill="#45382c" d="M220.52 101.26l2.7 1.82.8.44c2.54 1.62 5.72 2.29 7.89 4.43l-.09 3.39-.14 1.89c-4.75-.65-7.4-4.86-10.09-8.31a76.7 76.7 0 0 1-1.07-3.66z"/><path fill="#d0b9a3" d="M103.59 101.47c2.06.38 4.14.88 5.87 2.12l-4.36.57-1.51-2.69z"/><path fill="#b29f88" d="M211.79 104.24l7.26.52c1.93 5.73 2.92 12.07 7.96 16.07l-2.35 2.99-2.55 3.23c5.64-3.05 12.08-2.57 18.23-2.07-1.69.38-3.36.83-5.03 1.27-3.22 6.66-1.79 14.25 1 20.78l-2.57.23c-.14-3.51-2-6.48-3.7-9.41-1.58-2.38-.17-6.32-3.38-7.56-2.84-1.78-5.04 1.96-6.95 3.53l-.48-4.67-3.54 1.97c-1.95-3.33-3.64-6.81-5.61-10.13-1.17-.69-2.34-1.35-3.52-1.99 2.29-3.43 7.02-4.46 8.25-8.78l-1.4-2.68 3.5-1.49c-1.7-.62-3.4-1.26-5.12-1.81m.15 16.35c4.07-.23 8.15-.23 12.23-.11l-3.56-4.28c-3.48.04-6.29 2.04-8.67 4.39z"/><path fill="#e7cdb5" d="M131.63 107.28c5.29 2.25 11.45 2.15 15.34-2.64 1.36 4.35 2.09 8.87 2.55 13.4-1.06 2-2.42 3.81-3.81 5.58l6.64.62 1.21 3.03 1.27-2.47c-.44 9.88-2.68 20.41 1.42 29.83l8.02-.72-10.79 5.25-.31-11.78c-3.64-.03-7.28 0-10.91.03l-.95-.21-.99-2.71c5.55 1.39 12.23-.48 11.14-7.52.5.62.99 1.26 1.48 1.9-.21-3.9.63-8.14-1.03-11.78-3.51-1.19-7.67-1.96-11.08-.07a81.96 81.96 0 0 1-3.84-.06l.16-3.04 3.39-3.65c5.56.21 5.19-5.36 4.44-9.4-5.94-2.84-10.3 1.71-14.13 5.62.16-1.15.32-2.29.43-3.45.17-1.92.25-3.84.35-5.76z"/><path fill="#756451" d="M219.05 104.76l2.54.16c2.69 3.45 5.34 7.66 10.09 8.31l.14-1.89c2.8 2.69 6.85 3.07 8.96-.7 4.78-1.12 2.88 5.61 2.87 8.45l4.56 2.97.01 2.34c-2.64.01-5.26.32-7.88.58-6.15-.5-12.59-.98-18.23 2.07l2.55-3.23c6.05.53 12.13.76 18.19.28l-.05-2.86c-5.26-.29-10.53-.39-15.79-.41-5.04-4-6.03-10.34-7.96-16.07z"/><path fill="#fffbe9" d="M63.65 108.29c5.1-.78 13.5-4.99 16.29 1.61-1.06 1.07-2.11 2.16-3.14 3.27l-1.07 1.18c-3.97-2.88-8.92-2.95-13.44-1.41l1.36-4.65z"/><path fill="#51473d" d="M285.81 105.84l7.44 6.98 3.91-1.66 3.75 4.64-1.17 4.07.89 1.49c1.6 2.19 3.47 4.18 5.37 6.12-3.37-.39-6.37 1.28-8.15 4.12-.77-2.67.6-5.24 1.37-7.73l-1.82-1.92c-3.02-3.19-5.96-6.46-8.87-9.76-6.63.23-12.3 4.23-15.5 9.9-1.53 3.24-5.16 3.79-8.34 4.15 6.47-6.61 12.39-13.94 20.2-19.05l.92-1.35z"/><path fill="#b2acb4" d="M231.91 107.95c1.85 3.83 5.25 4.12 8.87 2.69-2.11 3.77-6.16 3.39-8.96.7l.09-3.39z"/><path fill="#837365" d="M79.94 109.9l4.43-.98c5.79 1.93 6.98 9.14 1.95 12.71-5.08.11-10.53-2.52-9.52-8.46 1.03-1.11 2.08-2.2 3.14-3.27m.18 7.56l4 1.37c1.77-1.98 1.52-4.52.79-6.88-3.17.18-5.2 2.3-4.79 5.51z"/><path d="M161.19 115.5c5.46-3.52 12.77-9.68 18.21-2.52-3.1.16-6.22.21-9.32.23l1.64 1.71-6.96-1.2c1.15 3.84 2.86 7.48 5.03 10.86l4.69-3.64c-1.79 3.39-1.5 7.18-.45 10.75.16 6.56 1.72 14.18-2.76 19.71l-4.47 1.19 5.39.87c2.7 10.36-10.3 10.68-17.18 9.71-.52-1.1-1.02-2.2-1.5-3.31l-.03-.7 10.79-5.25-8.02.72c-4.1-9.42-1.86-19.95-1.42-29.83l.58-5.5c1.9-1.31 3.81-2.59 5.78-3.8zm-123.11-.68l6.95.25.81.04.46 3.1c3.38.6 6.54-.48 9-2.84h3.37l-.37 8.7c-6 1.1-12.12.38-18.17.64a122.4 122.4 0 0 0-3.85-.42l1.61-.45.19-9.02zm189.36 44.67c-.78-2.42-3.8-4.72-2.16-7.39 7.51 7.72 7.12 20.34-.57 27.79l-.96-1.72c3.78-5.33 6.58-12.3 3.69-18.68zM37.82 206.84l2.83-.66c5.68.05 11.36-.15 17.03.21l1.26.6c-.38 2.77-.66 5.55-.95 8.33-4.32.08-8.64-.3-12.96-.31-2.3.02-4.61.08-6.91.32.03-2.83-.14-5.66-.3-8.49z" fill="#fff"/><path fill="#fde7ce" d="M130.85 116.49c3.83-3.91 8.19-8.46 14.13-5.62.75 4.04 1.12 9.61-4.44 9.4-1.87-1.64-4.07-2.84-6.3-3.9l.39 3.05c-2.53-.57-5.11-.81-7.69-.68 1.34-.68 2.66-1.41 3.91-2.25z"/><path fill="#b8a289" d="M311.05 111.07l2.3 3.37 1.85-.25c-.56 5.9-4.43 10.18-9.2 13.29-1.9-1.94-3.77-3.93-5.37-6.12 4.64-2.1 7.66-6.19 10.42-10.29z"/><path fill="#fff4da" d="M80.12 117.46c-.41-3.21 1.62-5.33 4.79-5.51.73 2.36.98 4.9-.79 6.88l-4-1.37z"/><path fill="#c4ae93" d="M273.03 122.09c3.2-5.67 8.87-9.67 15.5-9.9 2.91 3.3 5.85 6.57 8.87 9.76l-2.27.34c-.57 1.91-.89 3.98-2.08 5.63-2.42.97-6.49-.17-6.94 3.31l-1.07 2.68-2.2-.85-3.19 6.61-2.61.22c-1.01-9.43-11.59-13.64-19.97-12.07l-.04-.82c2.55-.19 5.12-.38 7.66-.76 3.18-.36 6.81-.91 8.34-4.15z"/><path fill="#fefefe" d="M193.98 116.07c3.07-4.24 8.29-1.22 11.12 1.67-3.77.16-7.72.24-11.12-1.67z"/><path fill="#dbd7dc" d="M45.84 115.11l9.46.26c-2.46 2.36-5.62 3.44-9 2.84l-.46-3.1z"/><path fill="#f6dfcc" d="M63.89 116.12c5.54-.87 11.23.84 12.21 7.03-5.37 1.36-13.32.34-12.21-7.03z"/><path fill="#fdfdfe" d="M211.94 120.59c2.38-2.35 5.19-4.35 8.67-4.39l3.56 4.28c-4.08-.12-8.16-.12-12.23.11z"/><path fill="#302820" d="M174.63 123.92c1.55-2.01 3.29-3.86 5.15-5.58l4.98 2.22c-1.55 1.08-2.88 2.81-4.91 2.91l-3.97.36-1.25.09z"/><path d="M182.69 128.52c-1.2-4.67 4.21-7.05 7.05-9.67l5.26 9.5c3.79 6.64 2.39 14.65 5.41 21.54-1.85 1.48-3.93 2.65-6.03 3.75l4.44 1.12c-1.32 2.22-2.61 4.46-3.85 6.73-5.31 2.49-11.12 3.53-16.96 2.86 1.35-7.07 3.55-14.01 3.45-21.28.11-4.89 2.35-9.66 1.23-14.55zm18.25 40.11c5.81-2.34 12.21-.61 16.35 3.97l.56 5.96c2.69-.15 5.42.11 5.74 3.39l-1.02 2.17c-.76 3.12-1.23 6.31-1.82 9.47l-2.42 9.63-2.52-2.85-4.93 8.17-3.59-.12c-.11-4.66-3.19-8.63-3.1-13.32-.14-6.28-.3-12.57-1.02-18.81l2.3-2.58c-1.54-1.67-3.06-3.36-4.53-5.08zm-135.22 57.1l.87-.11c3.98.31 7.97.62 11.88 1.42 3.37 2.01 7.23 2.92 10.7 4.7 1.33 7.06.22 14.34.56 21.49-5.51-.06-10.14 3.91-9.79 9.61l-5.24-1.24c3.11-9.28-7.2-14.73-14.92-15.32-.69-3.22-1.45-6.42-2.23-9.61 4.38-2.36 4.63-7.84 8.17-10.94zm45.26 27.64c4.07-2.66 8.67-4.25 13.41-5.23 4.07 6.12-3.33 9.73-7.73 12.36-2.53-1.81-4.32-4.36-5.68-7.13z" fill="#fffffd"/><path fill="#706255" d="M200.31 125.85c2.2-2.17 4.5-4.27 6.25-6.85l3.52 1.99-5.26 4.64c-1.67.81-3.46 1.33-5.25 1.8l.74-1.58z"/><path fill="#221e1b" d="M224.66 123.82l2.35-2.99c5.26.02 10.53.12 15.79.41l.05 2.86c-6.06.48-12.14.25-18.19-.28z"/><path fill="#8b7d6d" d="M295.13 122.29l2.27-.34 1.82 1.92c-.77 2.49-2.14 5.06-1.37 7.73 3.85 4.31 8.28 8.93 9.07 14.91l-1.28-3.47c-4.9-1.18-9.9-1.87-14.89-2.53l.09 4.18c-1.24-1.57-2.33-3.23-3.43-4.89.35-2.93-.19-5.85-1.3-8.57.45-3.48 4.52-2.34 6.94-3.31 1.19-1.65 1.51-3.72 2.08-5.63z"/><path fill="#413a32" d="M58.3 124.07l2.08-.38 61.89.34-1.64 2.22c-11.44.46-22.88.19-34.31-.29l-4.41-.07c-6.52.26-13.22-1.05-19.57.99l-2.45-.06c-6.55-1.08-13.63.91-19.76-2.11 6.05-.26 12.17.46 18.17-.64z"/><path fill="#a38c77" d="M122.27 124.03l6.22-.61.86.07.13 1.97c-7.07.84-13.49 4.44-20.68 4.85-2.94.66-6.05-.3-8.94.56-3.2 1.86-6.03 4.44-9.74 5.31l-.73-5.34c-2.27-.88-4.51-1.85-6.68-2.96a124.66 124.66 0 0 1 3.61-1.92c11.43.48 22.87.75 34.31.29l1.64-2.22z"/><path fill="#c8b29a" d="M129.35 123.49l7.8.43-.16 3.04c-10.76-2.25-18.63 7.16-28.7 7.93-.12 4.83.35 11.04-5.78 12.04l.1 1.37c1.21 10.27.59 20.61-.13 30.9-2.06-8.97-1.98-18.25-.36-27.27.87-3.25-2.52-4.22-4.88-4.93l-.91-.35c1.87-.62 3.72-1.31 5.57-1.99-3.74-.92-5.94-4.31-9.26-5.93-3.87-.85-7.44 1.77-10.89 3.14-.11-5.33-.01-10.66.16-15.98l4.41.07a124.66 124.66 0 0 0-3.61 1.92c2.17 1.11 4.41 2.08 6.68 2.96l.73 5.34c3.71-.87 6.54-3.45 9.74-5.31 2.89-.86 6 .1 8.94-.56 7.19-.41 13.61-4.01 20.68-4.85l-.13-1.97m-29.18 10c-1.1 3.44.25 6.75 1.72 9.82l4.07.41-1.94-2.61 2.91-.55c-.11-2.33-.25-4.65-.44-6.97l-6.32-.1z"/><path fill="#feeecb" d="M175.88 123.83l3.97-.36c.93 5.18.54 10.45-.54 15.57-2.44-4.69-1.99-10.21-3.43-15.21z"/><path fill="#88735e" d="M240.34 124.98l7.88-.58c1.69.84 3.28 1.84 4.87 2.87l3.94-.27.04.82-4.31.13-1.81-.03.44 11.08 4.93.83 1.77.22.78 3.61-7.88-1.99-.77 6.77-6.75 2.37-2.21.01-4.66 4.75-4.59-3.53-.24 2.98c-1.81-2.05-2.48-4.71-2.43-7.4l3.08-.26 1.32-.1 2.57-.23c-2.79-6.53-4.22-14.12-1-20.78l5.03-1.27z"/><path fill="#fffff6" d="M140.83 127.02c3.41-1.89 7.57-1.12 11.08.07 1.66 3.64.82 7.88 1.03 11.78l-1.48-1.9c-2-3.41-5.73-4.53-9.49-4.15l-1.14-5.8z"/><path fill="#fae1c2" d="M195 128.35l5.31-2.5-.74 1.58c-.03 2.18.24 4.34.49 6.51l2.46-4.82c.72 2.26.26 4.52-.55 6.67-1.65 4.58 1.43 9.84-1.56 14.1-3.02-6.89-1.62-14.9-5.41-21.54z"/><path fill="#96816d" d="M62.34 126.88c6.35-2.04 13.05-.73 19.57-.99-.17 5.32-.27 10.65-.16 15.98 3.45-1.37 7.02-3.99 10.89-3.14 3.32 1.62 5.52 5.01 9.26 5.93l-5.57 1.99c-5.76.49-11.52.94-17.29 1.2l-.34 9.55-3.31-.27.04-9.13c3.63-.54 7.28-.78 10.94-.92l-4.88-2.62-.16-7.14c-.12-2.98-.38-5.94-.66-8.9-6.15.27-12.43.54-18.33-1.54z"/><path fill="#feeacc" d="M136.99 126.96l3.84.06 1.14 5.8-3.11 3.42-.16-6.91c-4.44-.1-9.19-.81-13.25 1.46.9 1.59 3.27 2.96 2.32 5.03-3.41 1.44-5.62-2.43-8.35-3.76-.26 1.73-.39 3.48-.47 5.23l-5.8 1.34 2.09 2.78c4.09-.38 7.55 1.37 9.13 5.23-1.83.24-3.65.56-5.49.74l-2.15-.17c-2.41-.17-4.83-.03-7.22.3l-2.18.29-.91.11-3.81.39c-.02-.35-.08-1.03-.1-1.37 6.13-1 5.66-7.21 5.78-12.04 10.07-.77 17.94-10.18 28.7-7.93z"/><path fill="#b6a697" d="M199.57 127.43c1.79-.47 3.58-.99 5.25-1.8-.66 9.94-.23 19.92-1.34 29.83l4.27 1.91c-2.74 1.59-5.26 3.57-7.09 6.19 7.93.53 17.43-1.09 21.7-8.64-.67 3.32-1.49 6.6-2.33 9.87-7 .24-14.04.55-21.01-.39l1.16-4.8-5.21 1.89c1.24-2.27 2.53-4.51 3.85-6.73l-4.44-1.12c2.1-1.1 4.18-2.27 6.03-3.75 2.99-4.26-.09-9.52 1.56-14.1.81-2.15 1.27-4.41.55-6.67l-2.46 4.82c-.25-2.17-.52-4.33-.49-6.51z"/><path opacity=".88" d="M59.89 126.82l2.45.06c5.9 2.08 12.18 1.81 18.33 1.54.28 2.96.54 5.92.66 8.9-7.17.48-14.35-.17-21.37-1.63l-1.24-.55 1.17-8.32z"/><path fill="#ead1b3" d="M257.07 127.82c8.38-1.57 18.96 2.64 19.97 12.07-6.31.21-12.64.75-18.95.16l-1.77-.22c.95-4.37-.93-8.49-3.56-11.88l4.31-.13z"/><path fill="#c8b192" d="M250.95 127.92l1.81.03c2.63 3.39 4.51 7.51 3.56 11.88-1.65-.25-3.29-.54-4.93-.83l-.44-11.08z"/><path fill="#ffffec" d="M125.45 130.79c4.06-2.27 8.81-1.56 13.25-1.46l.16 6.91c.05 2.8.46 5.61 1.46 8.25l.99 2.71c-2-.66-3.95-1.42-5.9-2.2l-.2 2.1c-3.59-.4-7.22-.84-10.84-.46-1.58-3.86-5.04-5.61-9.13-5.23l-2.09-2.78 5.8-1.34c.08-1.75.21-3.5.47-5.23 2.73 1.33 4.94 5.2 8.35 3.76.95-2.07-1.42-3.44-2.32-5.03z"/><path fill="#dfc6a7" d="M219.71 133.82c1.91-1.57 4.11-5.31 6.95-3.53 3.21 1.24 1.8 5.18 3.38 7.56 1.7 2.93 3.56 5.9 3.7 9.41l-1.32.1c-3.39.39-6.95.05-9.23-2.79l-.39 1.77c-1.45-4.05-2.6-8.23-3.09-12.52z"/><path fill="#ebd0b5" d="M174.03 131.69c1.13 4.73 2.4 9.44 3.3 14.22l.08.87-.25 3.07-5.89 1.55c4.48-5.53 2.92-13.15 2.76-19.71z"/><path fill="#141212" opacity=".95" d="M286.11 131.23c1.11 2.72 1.65 5.64 1.3 8.57l-.21 2.69-.57 6.47c-1.87-.42-3.69-1.01-5.51-1.61l-1.18-3.25c1.41-3.54 3.38-6.8 5.1-10.19l1.07-2.68z"/><path fill="#f2d9c3" d="M100.17 133.49l6.32.1.44 6.97-2.91.55 1.94 2.61-4.07-.41c-1.47-3.07-2.82-6.38-1.72-9.82z"/><path fill="#968575" d="M141.97 132.82c3.76-.38 7.49.74 9.49 4.15 1.09 7.04-5.59 8.91-11.14 7.52-1-2.64-1.41-5.45-1.46-8.25l3.11-3.42m1.18 8.91l3.67.02c.51-1.94 1.27-5.42-1.82-5.27-3.23-.29-2.48 3.27-1.85 5.25z"/><path fill="#7f6f5e" d="M282.84 133.06l2.2.85c-1.72 3.39-3.69 6.65-5.1 10.19l-3.47-2.12.57-2.09 2.61-.22 3.19-6.61z"/><path d="M143.15 141.73c-.63-1.98-1.38-5.54 1.85-5.25 3.09-.15 2.33 3.33 1.82 5.27l-3.67-.02zm3.6 7.02c1.31 8.58.19 17.29.71 25.93l-.03 9.49 4.2-.08-.95 4.31c-2.7-1.64-6.09-3.92-9.26-1.99-4.71 2.03-3.91 10.58 1.5 10.89 3.39 1.02 6.21-1.06 8.38-3.4 1.12 4.14 1.14 8.44.43 12.66l-5.06 1.34c-1.32 3.96-2.22 8.04-3.51 12.02-6.49-1.85-15.16-10.22-20.62-2.25-3.42 3.71-6.35 9.67-2.17 14 2.99 5.21 11.34 6.37 12 12.81-3.95 1.6-8.17.12-12.22.57-5.53 1.75-10.55 5.64-12.02 11.47-5.41-1.93-11.86-1.13-16.51-4.89-1.18-7.93-.51-16.06-.03-24.03 1.89-.29 3.98-.42 5.2-2.14l-4.62-1.12 1.44-5.15c.82-4.74 3.81-8.46 8.49-9.78l-4.5-1.13a82.41 82.41 0 0 1 2.57-1.09c2.53-.07 5.05-.05 7.58.02 3.06.5 6.15 1.23 9.26.73 9.27-1.15 18.72.06 27.59 2.86-1.64-1.96-3.85-3.25-6.14-4.29l-.35-2.81-.42-3.74c-7.05.47-14.1-.32-20.93-2.01-1.9-1.62.02-4.61-.04-6.76l-5.09 1.34.11-4.78c3.13-2.1 6.82-2.06 10.32-1.05l3.18-3.03 2.94.51c3.14.67 6.14 1.85 9.1 3.07l1.37-3.35 7.9-.04c-.28-11.7-.09-23.41.2-35.11m-42.98 89.42c-.9-3.41-.63-6.87 1.09-9.99-4.13 1.42-4.84 7.7-1.09 9.99zm39.38-49.29c3.8-1.89 5.25 3.44 3.09 5.96-3.42.67-6.69-3.8-3.09-5.96z" fill="#fffffa"/><path fill="#b5a28a" d="M258.09 140.05c6.31.59 12.64.05 18.95-.16l-.57 2.09 3.47 2.12c.41 1.07.8 2.16 1.18 3.25.15 1.72.17 3.45.2 5.17-.92-1.71-1.79-3.45-2.62-5.2-7.26-1.1-14.55-2.24-21.9-2.46l5.12 2.74c-2.48 1.21-4.98 2.56-6.71 4.79l-1.39-5.07-3.6 1.12.77-6.77 7.88 1.99-.78-3.61z"/><path fill="#4a3d31" d="M287.41 139.8l3.43 4.89 1.4 1.64c.2 2.18.22 4.45 1.11 6.49 4.11 1.46 8.56-3.34 12.08.92-.01 1.75-.07 3.49-.13 5.24-6.14.85-12.33.7-18.51.97-6.3-1.47-13 7.93-5.82 11.32l-1.72 3.8-3.03-.35c-1.59-.35-3.16-.78-4.72-1.2l-.44-2c1.93.53 4.27 1.99 5.74-.16.12-2.87.18-5.75.21-8.63-1.21-1.85-3.46-2.13-5.42-2.6l-.81-2.47c3.51.11 7.03.15 10.54.16v-5.3c-.03-1.72-.05-3.45-.2-5.17 1.82.6 3.64 1.19 5.51 1.61l4.15.1c-1.04-2.27-2.21-4.48-3.58-6.57l.21-2.69m-.71 18.13c3.6.41 7.24.53 10.85.05-2.97-1.86-8.94-4.35-10.85-.05z"/><path fill="#edd5bb" d="M290.75 140.51c4.99.66 9.99 1.35 14.89 2.53l1.28 3.47c-2.09.72-4.26 1.18-6.47 1.3-2.66-.86-5.43-1.26-8.21-1.48-.48-.54-.95-1.09-1.4-1.64l-.09-4.18z"/><path fill="#937e6b" d="M177.33 145.91l4.13-2.84c.1 7.27-2.1 14.21-3.45 21.28 5.84.67 11.65-.37 16.96-2.86l5.21-1.89-1.16 4.8c6.97.94 14.01.63 21.01.39.84-3.27 1.66-6.55 2.33-9.87.61-2.81.51-5.72.44-8.58l.39-1.77c2.28 2.84 5.84 3.18 9.23 2.79l-3.08.26-5.6.49c.51 1.32.98 2.67 1.54 3.99-1.64 2.67 1.38 4.97 2.16 7.39 2.89 6.38.09 13.35-3.69 18.68-2.03-3.42-2.82-7.36-3.71-11.19l-21.53.34-.02 4.78-2.99-2.01 1.08-2.83c-6.36-.39-12.74-.75-19.11-.41.46 3.19 1.15 6.35 2.19 9.41.89 2.76 1.54 5.62 1.65 8.53l-.42 4.2c-5.77-3.75-2.67-11.72-5.91-17.02-.98-4.18-5.72-3.83-9.06-4.23-3.97-.36-7.96-.08-11.92.19l-.89 8.49c-.65-2.72-1.2-5.46-1.48-8.25-.48 2.69-1.49 5.31-4.17 6.51-.52-8.64.6-17.35-.71-25.93-.29 11.7-.48 23.41-.2 35.11l-7.9.04c.34-11.69.9-23.61-.89-35.2-1.21 11.79-1.03 23.73-.52 35.57l-7.51-.37c-.31-11.95.05-23.91.08-35.86 4.15-.15 8.3-.47 12.45-.63l10.91-.03.31 11.78.03.7c-.05 1.33-.14 2.65-.22 3.98 6.7-.47 13.72.81 20.18-1.46 1.49-3.33 1.45-7.07 1.95-10.63l2.41-.57-.42-4.4-.08-.87m-44.74 37.37c2.74-2.77 1.5-7.14 1.86-10.68-.49-7.97.89-16.12-.96-23.96-2.36 11.19-.68 23.16-.9 34.64m8.92-33.63c-.85 9.05-.55 18.21-.2 27.29.12 1.97-.26 4.26 1.39 5.73 1.09-11.29 1.02-22.74.26-34.06l-1.45 1.04z"/><path fill="#080706" opacity=".37" d="M287.2 142.49c1.37 2.09 2.54 4.3 3.58 6.57l-4.15-.1.57-6.47z"/><path fill="#ecd5c8" d="M135.41 145l5.9 2.2.95.21-12.45.63-.08 35.86 7.51.37c-.51-11.84-.69-23.78.52-35.57 1.79 11.59 1.23 23.51.89 35.2-.43 1.13-.91 2.24-1.37 3.35-2.96-1.22-5.96-2.4-9.1-3.07.35-12.13-.43-24.23-.08-36.36l-2.7.04-.16 35.81-3.18 3.03c-3.5-1.01-7.19-1.05-10.32 1.05l-.94.42c1.54-2.89 3.86-5.68 3.72-9.14-.15-10.41-.19-20.84.27-31.25l-3.1-.1c-.63 11.54.79 23.34-1.01 34.72-.21-11.65-1.39-23.23-1.17-34.89 2.39-.33 4.81-.47 7.22-.3-1.29 12.2.51 24.46-.43 36.69l3.02.51c-.43-12.35-.46-24.68-.44-37.03 1.84-.18 3.66-.5 5.49-.74 3.62-.38 7.25.06 10.84.46l.2-2.1m-14.46 3.1l-.29 36.33 2.62-.63.05-36.49-2.38.79z"/><path fill="#d5bda5" d="M256.8 144.86c7.35.22 14.64 1.36 21.9 2.46.83 1.75 1.7 3.49 2.62 5.2v5.3l-10.54-.16c-6.28-.3-12.56.2-18.83.41l-.79-4.96 2.64 2.7 1.41-3.42c1.73-2.23 4.23-3.58 6.71-4.79l-5.12-2.74m15.34 7.16c1.39 1.05 2.94 1.85 4.61 2.39l.23-4.88c-1.63.79-3.25 1.61-4.84 2.49z"/><path fill="#dec6b5" d="M79.04 147.85c5.77-.26 11.53-.71 17.29-1.2l.91.35.57 1.64c-4.42.93-8.94 1.1-13.43 1.41l-.03 3.53 2.73.25.52-1.79c3.02 2.05 6.55 2.96 10.13 3.42l-1.32 1.19c-5.9.42-11.82.25-17.71.75l.34-9.55z"/><path fill="#b6b3c3" d="M177.16 149.85l.25-3.07.42 4.4-2.41.57c-.5 3.56-.46 7.3-1.95 10.63-6.46 2.27-13.48.99-20.18 1.46l.22-3.98c.48 1.11.98 2.21 1.5 3.31 6.88.97 19.88.65 17.18-9.71l-5.39-.87 4.47-1.19 5.89-1.55z"/><path fill="#f8f2f4" d="M250.22 148.44l3.6-1.12 1.39 5.07-1.41 3.42-2.64-2.7.79 4.96c-1.28.01-2.56.01-3.84-.01l-1.14-.03-1.03-.01c-1.37-2.19-2.19-4.65-2.47-7.21 2.3-.65 4.5-1.58 6.75-2.37z"/><path fill="#615953" d="M292.24 146.33c2.78.22 5.55.62 8.21 1.48l4.8 2.63.18 3.3c-3.52-4.26-7.97.54-12.08-.92-.89-2.04-.91-4.31-1.11-6.49z"/><path fill="#776454" d="M97.24 147c2.36.71 5.75 1.68 4.88 4.93-1.62 9.02-1.7 18.3.36 27.27.72-10.29 1.34-20.63.13-30.9l3.81-.39c-1.06 10.84-1.6 21.77-.25 32.62-3.23-.25-6.45.49-9.37 1.85-3.31-1.24-6.54.77-6.78 4.3-2.3 2.37-3.98 5.22-4.76 8.45l-2.95-7.49-.75-2.07c2.3-.21 4.6-.39 6.88-.75-4.28-1.27-8.77-1.11-13.18-1.19l-.03-9.3c5.7-.53 11.43-.56 17.15-.44l.1-15.14-13.78-1.35c5.89-.5 11.81-.33 17.71-.75l1.32-1.19c1.23-2.13.83-4.6.08-6.82l-.57-1.64m-18.01 27.57c.05 2.93.05 5.86-.02 8.79 4.39.26 9.09-.58 12.12-4.02 2.76-.15 5.15-1.42 6.93-3.51-6.35-.56-12.72-.29-19.03-1.26z"/><path fill="#cab49f" d="M106.42 147.91l.91-.11c1.07 10.95 1.68 21.95.19 32.9l-1.35-.17c-1.35-10.85-.81-21.78.25-32.62z"/><path fill="#3e3938" d="M107.33 147.8l2.18-.29c-.22 11.66.96 23.24 1.17 34.89-1.28 2.08-2.5 4.26-2.28 6.8l-.12 1.9c-6.62 3.96-15.76 9.53-23.02 4.03.78-3.23 2.46-6.08 4.76-8.45 2.33-1.31 4.57-2.79 6.78-4.3 2.92-1.36 6.14-2.1 9.37-1.85.34.05 1.01.13 1.35.17 1.49-10.95.88-21.95-.19-32.9m-13.46 46.55c3.37-.85 8.59.01 8.05-5l-3.12-1.53c-2.01 1.88-3.56 4.16-4.93 6.53z"/><path fill="#84705f" d="M111.69 147.68l3.1.1c-.46 10.41-.42 20.84-.27 31.25.14 3.46-2.18 6.25-3.72 9.14l-2.4 1.03c-.22-2.54 1-4.72 2.28-6.8 1.8-11.38.38-23.18 1.01-34.72z"/><path fill="#947f66" d="M116.3 183.9c.94-12.23-.86-24.49.43-36.69l2.15.17.44 37.03-3.02-.51z"/><path fill="#967f69" d="M120.95 148.1l2.38-.79c.34 12.15.08 24.34-.05 36.49l-2.62.63.29-36.33z"/><path fill="#947c66" d="M125.4 147.86l2.7-.04c-.35 12.13.43 24.23.08 36.36l-2.94-.51.16-35.81z"/><path fill="#4b4955" d="M223.74 148.11l5.6-.49c-.05 2.69.62 5.35 2.43 7.4 5.46 5.65 5.52 15.44.57 21.42-1.41 2.08-2.71 4.25-3.94 6.44 2.1.11 4.18.42 6.28.6-4.01.59-8.07.53-12.11.64l1.02-2.17a31.47 31.47 0 0 1 1.12-2.06c7.69-7.45 8.08-20.07.57-27.79-.56-1.32-1.03-2.67-1.54-3.99z"/><path fill="#fffae8" d="M84.38 150.05c4.49-.31 9.01-.48 13.43-1.41.75 2.22 1.15 4.69-.08 6.82-3.58-.46-7.11-1.37-10.13-3.42l-.52 1.79-2.73-.25.03-3.53z"/><path fill="#fdeae0" d="M132.59 183.28c.22-11.48-1.46-23.45.9-34.64 1.85 7.84.47 15.99.96 23.96-.36 3.54.88 7.91-1.86 10.68z"/><path fill="#d6c2b4" d="M141.51 149.65l1.45-1.04c.76 11.32.83 22.77-.26 34.06-1.65-1.47-1.27-3.76-1.39-5.73-.35-9.08-.65-18.24.2-27.29z"/><path fill="#c5b298" d="M241.26 150.82l2.21-.01c.28 2.56 1.1 5.02 2.47 7.21-2.29-.01-4.57.02-6.86.06l.17 16.85 3.17-.37c-.14-5.33-.65-10.82 1.09-15.96 1.14 5.31.99 10.75.77 16.14l2.52-.04c-.56-5.54-.77-11.16.17-16.67l1.14.03a50.41 50.41 0 0 1 .63 4.09c.08 2.4 0 4.8-.07 7.21l-.21 5.37 7.68-.02c.48 4.82.29 11.7 6.39 12.79l.84.3-11.66-.23-.94 4.76c-3.31-4.05-8.65-6.2-13.3-2.77-4.21 5.03-1.17 13.08-6.51 17.67l-1.64-.07c1.23-3.6 3.16-7.43.78-11.05 3.73-1.88 5.27-5.26 3.4-9.13l1.4-2.28c3.45.08 7.26.51 10.12-1.89 2.38.71 4.88 1.06 7.37 1.01l1.68 1.91.04-7.82c-4.67.55-10.55-1.63-13.87 2.83-.64-1.47-1.22-2.96-1.8-4.45l-.63 2.19c-1.91-.42-3.79-1.02-5.47-2.04 4.95-5.98 4.89-15.77-.57-21.42l.24-2.98 4.59 3.53 4.66-4.75m6.73 19.94c.22-3.4.14-6.8-.36-10.17-1.14 3.04-2.41 7.84.36 10.17z"/><path fill="#fdf8f6" d="M272.14 152.02l4.84-2.49-.23 4.88c-1.67-.54-3.22-1.34-4.61-2.39z"/><path fill="#7d685a" d="M286.7 157.93c1.91-4.3 7.88-1.81 10.85.05-3.61.48-7.25.36-10.85-.05z"/><path fill="#6d5747" d="M239.08 158.08l6.86-.06 1.03.01c-.94 5.51-.73 11.13-.17 16.67l-2.52.04c.22-5.39.37-10.83-.77-16.14-1.74 5.14-1.23 10.63-1.09 15.96l-3.17.37-.17-16.85z"/><path fill="#5c4f44" d="M248.11 158.06l3.84.01c6.27-.21 12.55-.71 18.83-.41l.81 2.47c1.96.47 4.21.75 5.42 2.6-9.43-.16-18.83-1.7-28.27-.58a50.41 50.41 0 0 0-.63-4.09z"/><path fill="#87796c" d="M280.97 171.27c-7.18-3.39-.48-12.79 5.82-11.32l13.06.53-.03 6.79 5.91.87c2.51.46 4.98 1.09 7.49 1.55-4.14.04-8.29-.03-12.42.29l-.86 2.43-.79 1.13c-3.33.26-6.68.22-9.99.62-5.7.03-8.52 5.99-7.73 11.03l-.23-4.26-.44-5.63-1.51-.23 1.72-3.8z"/><path fill="#faf5f8" d="M247.99 170.76c-2.77-2.33-1.5-7.13-.36-10.17.5 3.37.58 6.77.36 10.17z"/><path fill="#9a8474" d="M248.74 162.15c9.44-1.12 18.84.42 28.27.58l-.21 8.63-2.35-2.59c-8.34 1.9-17.48 3.36-25.78.59.07-2.41.15-4.81.07-7.21m1.11 3.45c4.37 5.23 12.69 1.56 18.78 3.09l2.17-2.23c-6.22-4.45-14.18-2.97-20.95-.86z"/><path fill="#cbb49a" d="M249.85 165.6c6.77-2.11 14.73-3.59 20.95.86l-2.17 2.23c-6.09-1.53-14.41 2.14-18.78-3.09z"/><path fill="#baa89b" d="M177.47 166.85c6.37-.34 12.75.02 19.11.41l-1.08 2.83 2.99 2.01.02-4.78c7.18.09 14.35-.2 21.53-.34.89 3.83 1.68 7.77 3.71 11.19l.96 1.72a31.47 31.47 0 0 0-1.12 2.06c-.32-3.28-3.05-3.54-5.74-3.39l-.56-5.96c-4.14-4.58-10.54-6.31-16.35-3.97 1.47 1.72 2.99 3.41 4.53 5.08l-2.3 2.58c.72 6.24.88 12.53 1.02 18.81-.09 4.69 2.99 8.66 3.1 13.32-1.05-1.5-1.96-3.07-2.87-4.64l-1.74 1.57-2.81-.81c2.63 3 5.11 6.13 7.48 9.34l-1.88 2.4-1.9.53.15-3.27c-3.73-.2-7.59.17-10.67 2.49-1.39-.64-2.73-1.37-4.01-2.18-1.03-.84-2.01-1.72-3.01-2.58l4.04 1.03c1.56-3.17 3.2-6.31 4.94-9.39l3.17.89c.93-7.23 5.7-14.87 2.09-21.98l1.58-1.56-3.54-.52c-1.17-.24-2.33-.52-3.49-.81l5.42-2.06c-4.38-7.02-12.54-10.03-20.57-9.34l.01 3.43 3.38 3.03-3.4 2.27c-1.04-3.06-1.73-6.22-2.19-9.41z"/><path fill="#504f52" opacity=".61" d="M299.82 167.27c10.6-.58 21.22.54 31.83.02 3.4-.12 6.81-.07 10.22.07l.41 2.72-1.01.08h-2.16l2.41-2.2c-11.92-.61-23.87-.02-35.79.18l-5.91-.87z"/><path fill="#776457" d="M147.46 174.68c2.68-1.2 3.69-3.82 4.17-6.51.28 2.79.83 5.53 1.48 8.25l.35 3.82-.63 3.61-1.2.24-4.2.08.03-9.49z"/><path fill="#e0c8ae" d="M165.92 167.74c3.34.4 8.08.05 9.06 4.23 3.24 5.3.14 13.27 5.91 17.02l.42-4.2c.24 4.45.3 9.02 2.05 13.21-2.25 4.77-.38 9.41 2.67 13.27-3.22-3.39-7.92-3.98-12.35-4.03l8.31 9.73a231.08 231.08 0 0 1-7.67 8.3l-2.1-1.71-1.29-1.02c3.04-.53 5.97-1.62 8.26-3.76-3.76-1.59-8.34-1.77-10.99 1.83-5.79-2.76-10.8-6.81-14.58-11.99l-.44-.1-3.65-.38-2.86-.24 5.06-1.34c.71-4.22.69-8.52-.43-12.66-.36-1.82-.67-3.65-.62-5.5.28-1.45.64-2.87.95-4.31l1.2-.24.63-3.61c3.74 5.01-.26 11.16.33 16.73.59 7.52 3.42 16.9 11.75 18.88 1.67-3.57 3.28-7.34 6.48-9.84 1.13-8.88 6.21-21.02-3.25-27.17l6.9.33c-.08-5.83-4.9-9.35-9.75-11.43z"/><path fill="#fffff9" d="M179.67 167.53c8.03-.69 16.19 2.32 20.57 9.34l-5.42 2.06c1.16.29 2.32.57 3.49.81-1.79 7.7 1.78 16.31-3.3 23.17-1.74 3.08-3.38 6.22-4.94 9.39l-4.04-1.03c-3.05-3.86-4.92-8.5-2.67-13.27-1.75-4.19-1.81-8.76-2.05-13.21-.11-2.91-.76-5.77-1.65-8.53l3.4-2.27-3.38-3.03-.01-3.43z"/><path fill="#58483c" d="M248.67 169.36c8.3 2.77 17.44 1.31 25.78-.59l2.35 2.59c-1.47 2.15-3.81.69-5.74.16l.44 2c1.56.42 3.13.85 4.72 1.2-2.16-.02-4.31.03-6.46.02-4.54-.14-9.08-.07-13.62-.03l-7.68.02.21-5.37z"/><path fill="#c8c5cc" opacity=".96" d="M305.73 168.14c11.92-.2 23.87-.79 35.79-.18l-2.41 2.2c-3.67-.07-7.35-.34-11.02-.26-4.96-.15-9.92-.06-14.87-.21-2.51-.46-4.98-1.09-7.49-1.55z"/><path fill="#0d0c0c" opacity=".85" d="M300.8 169.98c4.13-.32 8.28-.25 12.42-.29 4.95.15 9.91.06 14.87.21-1.48 1.2-3.01 2.59-5.08 2.35-7.69.09-15.39-.3-23.07.16l.86-2.43z"/><path fill="#4b3f32" d="M281.43 185.19c-.79-5.04 2.03-11 7.73-11.03 4.79 2.8 10.55 1.04 15.78 1.87a65.94 65.94 0 0 0 .11 1.4l-2.65 1.87-.01 4.92c-2.5-1.57-4.88-4.92-8.13-4.05-1.79 1.52-3.24 3.37-4.86 5.05-2.63.7-5.25 1.39-7.82 2.28l-.15-2.31z"/><path fill="#f5dcc3" d="M79.23 174.57c6.31.97 12.68.7 19.03 1.26-1.78 2.09-4.17 3.36-6.93 3.51-3.03 3.44-7.73 4.28-12.12 4.02.07-2.93.07-5.86.02-8.79z"/><path fill="#e5cdb4" d="M256.14 174.71l13.62.03c1.97.74 3.92 1.6 5.79 2.58l-4.35 4.2c-3.68-2.31-8.02-3.14-10.98.77l2.74 4.02c5.07.17 10.3-.24 14.67-3.1-.43-1.82-.83-3.64-1.33-5.43l4.9 3.15.23 4.26c-6.27 1.03-12.59 1.62-18.9 2.31-6.1-1.09-5.91-7.97-6.39-12.79z"/><path fill="#b49e8d" d="M269.76 174.74l6.46-.02 3.03.35 1.51.23.44 5.63-4.9-3.15-.75-.46c-1.87-.98-3.82-1.84-5.79-2.58z"/><path fill="#9f8c7a" d="M228.4 182.88l3.94-6.44c1.68 1.02 3.56 1.62 5.47 2.04l.63-2.19 1.8 4.45 4.78 2.07c-2.86 2.4-6.67 1.97-10.12 1.89-3.27.28-7.29-1.09-10 1.18-1.75 3.21-1.66 7.12-3.42 10.38l-.73-2.67c.59-3.16 1.06-6.35 1.82-9.47 4.04-.11 8.1-.05 12.11-.64-2.1-.18-4.18-.49-6.28-.6z"/><path fill="#fefbfc" d="M240.24 180.74c3.32-4.46 9.2-2.28 13.87-2.83l-.04 7.82-1.68-1.91c-2.49.05-4.99-.3-7.37-1.01-1.62-.63-3.22-1.31-4.78-2.07z"/><path fill="#fde5c6" d="M275.55 177.32l.75.46 1.33 5.43c-4.37 2.86-9.6 3.27-14.67 3.1l-2.74-4.02c2.96-3.91 7.3-3.08 10.98-.77l4.35-4.2z"/><path fill="#6f6053" d="M302.4 179.3l2.65-1.87.35 5.48 1.97.72c-5.89 1.02-11.82 1.71-17.75 2.46.13 1.82-.6 4.63 2.13 4.48l1.83.39-1.3 6.11c3.05-1.26 6.22-2.31 9.54-2.48a62.23 62.23 0 0 0-2.06 4.74l-6.34.02c-.98 3.72-1.68 7.54-1.62 11.41a48.57 48.57 0 0 1-2.9-4.64l-6.25 2.5.36-1.88c3.11-.82 4.06-3.58 3.61-6.49-.16-5.13-.2-10.58 2.78-15.03 1.62-1.68 3.07-3.53 4.86-5.05 3.25-.87 5.63 2.48 8.13 4.05l.01-4.92z"/><path fill="#edd4b7" d="M198.31 179.74l3.54.52-1.58 1.56c3.61 7.11-1.16 14.75-2.09 21.98l-3.17-.89c5.08-6.86 1.51-15.47 3.3-23.17z"/><path fill="#e5e2e9" d="M90.02 186.68c.24-3.53 3.47-5.54 6.78-4.3l-6.78 4.3z"/><path fill="#d7c0a7" d="M289.62 186.09c5.93-.75 11.86-1.44 17.75-2.46l4.3 1.32.29 2.87.25 2.44c-1.93 7.13-3.83 14.37-7.66 20.76-2.62.36-5.2.96-7.79 1.46l-2.49-.33-2.47-1.39c-.06-3.87.64-7.69 1.62-11.41l6.34-.02c-1.19 3.94 3.26 4.74 6.01 5.74.74-3.28 2.43-6.26 3.18-9.53-.31-2.29-2.7-3.5-4.21-4.99l-.1-1.58-12.89 1.6c-2.73.15-2-2.66-2.13-4.48z"/><path fill="#f8dec0" d="M224.9 185.88c2.71-2.27 6.73-.9 10-1.18l-1.4 2.28c1.87 3.87.33 7.25-3.4 9.13 2.38 3.62.45 7.45-.78 11.05a100.59 100.59 0 0 1-4.5-1.31c-2.22-.73-4.45-1.48-6.49-2.63.74-3.23 1.62-6.42 2.42-9.63l.73 2.67c1.76-3.26 1.67-7.17 3.42-10.38z"/><path fill="#9f8974" d="M262.53 187.5c6.31-.69 12.63-1.28 18.9-2.31l.15 2.31-.95 2.63 5.99 10.12c.45 2.91-.5 5.67-3.61 6.49l-9.79-3.77c1.87-.45 3.72-.97 5.57-1.46l.39-2.42-4.56.79c.27-2.43 1.47-5.74-1.29-7.22-3.8-.71-7.7-.14-11.5.3 2.23-.9 4.32-2.12 6.35-3.41l-4.81-1.75-.84-.3z"/><path fill="#1c1915" d="M281.58 187.5l7.82-2.28c-2.98 4.45-2.94 9.9-2.78 15.03-1.93-3.42-4-6.75-5.99-10.12l.95-2.63z"/><path fill="#837269" d="M81.38 204.37c.03-6.26-.11-12.54.18-18.8l.75 2.07c.06 5.06-.26 10.12-.36 15.18l2.27-3 2.82-.33 2.06 4.69c4.48.2 10.36 2.37 13.2-2.4l.46 2.9 8.75 1.33-1.23-2.29 8.52.21c.86.98 1.68 2 2.51 3.02l-13.56.26c-2.53-.07-5.05-.09-7.58-.02l-13.31-.03c-3.31-.08-6.62.03-9.92.06-5.79-.08-11.56-.59-17.35-.23h-.65l-1.26-.6c7.84-1.35 15.67-2.82 23.7-2.02z"/><path fill="#796c5d" d="M141.42 186.41c3.17-1.93 6.56.35 9.26 1.99-.05 1.85.26 3.68.62 5.5-2.17 2.34-4.99 4.42-8.38 3.4-5.41-.31-6.21-8.86-1.5-10.89m1.73 2.47c-3.6 2.16-.33 6.63 3.09 5.96 2.16-2.52.71-7.85-3.09-5.96z"/><path fill="#a78d73" d="M237.47 189.56c4.65-3.43 9.99-1.28 13.3 2.77 1.21.66 2.5 1.19 3.82 1.61-1.04 2.7-1.38 5.61.04 8.26l-3.17-.15-.5 4.25-.86 1.13c-4.17-.44-7.99-2.15-11.52-4.33l1.15 3.53-7.23.63-1.54-.03c5.34-4.59 2.3-12.64 6.51-17.67z"/><path fill="#6e6051" d="M251.71 187.57c3.88.18 7.77.12 11.66.23 1.62.55 3.21 1.15 4.81 1.75-2.03 1.29-4.12 2.51-6.35 3.41-2.41.37-4.82.72-7.24.98-1.32-.42-2.61-.95-3.82-1.61l.94-4.76z"/><path fill="#ab9280" d="M82.31 187.64l2.95 7.49c7.26 5.5 16.4-.07 23.02-4.03-.26 3.5-.48 7-.52 10.51l1.76-.14a27.45 27.45 0 0 1 9.28 2.46l-8.52-.21 1.23 2.29-8.75-1.33-.46-2.9c-2.84 4.77-8.72 2.6-13.2 2.4l-2.06-4.69-2.82.33-2.27 3c.1-5.06.42-10.12.36-15.18z"/><path fill="#8f8a93" d="M93.87 194.35c1.37-2.37 2.92-4.65 4.93-6.53l3.12 1.53c.54 5.01-4.68 4.15-8.05 5z"/><path fill="#fff0d2" d="M108.4 189.2l2.4-1.03.94-.42-.11 4.78 5.09-1.34c.06 2.15-1.86 5.14.04 6.76 6.83 1.69 13.88 2.48 20.93 2.01l.42 3.74c-9.07.72-18.24-.43-26.55-4.26l-2.04 2.03-1.76.14c.04-3.51.26-7.01.52-10.51l.12-1.9z"/><path fill="#929094" d="M311.96 187.82c6.05 2.32 9.2 8.89 15.72 10.6 6.96 4.06 15.12 5.01 22.19 8.86 1.91.81 3.85 1.55 5.79 2.31l2.94-2.48c1.75-1.32 3.87-3.5 6.16-1.84 1.75 3.33-.93 7.32-4.78 6.29l1.83 1.35c2.45 1.62 3.67 4.22 2.32 7.01.77-4.99-4.87-5.92-8.23-7.7-4.61-1.74-8.85-5.36-14.05-4.71l-1.9-1.04c-4.77-3.12-9.95-5.53-15.41-7.15l-1.03 2.53-1.33-2.33c-1.64-2.91-4.91-3.96-7.84-5.04l-2.13-4.22-.25-2.44z"/><path fill="#877e7d" d="M291.75 190.57c4.31-.4 8.58-1.12 12.89-1.6l.1 1.58c-.99 1.34-2 2.66-2.92 4.04-3.32.17-6.49 1.22-9.54 2.48l1.3-6.11c-.46-.09-1.37-.29-1.83-.39z"/><path fill="#efd8c1" d="M304.74 190.55c1.51 1.49 3.9 2.7 4.21 4.99-.75 3.27-2.44 6.25-3.18 9.53-2.75-1-7.2-1.8-6.01-5.74a62.23 62.23 0 0 1 2.06-4.74c.92-1.38 1.93-2.7 2.92-4.04z"/><path fill="#4d433a" d="M312.21 190.26l2.13 4.22c-2.02 4.62-3.55 9.43-5.55 14.05a29.89 29.89 0 0 1-2.43 2.21l-1.81.28c3.83-6.39 5.73-13.63 7.66-20.76z"/><path fill="#d3bca0" d="M261.83 192.96c3.8-.44 7.7-1.01 11.5-.3 2.76 1.48 1.56 4.79 1.29 7.22l4.56-.79-.39 2.42-5.57 1.46c-3.45.83-7.03.56-10.51.03l-.97-.16c-2.35-.38-4.74-.53-7.11-.64-1.42-2.65-1.08-5.56-.04-8.26 2.42-.26 4.83-.61 7.24-.98z"/><path fill="#d3bca2" d="M314.34 194.48c2.93 1.08 6.2 2.13 7.84 5.04-2.41 1.82-4.45 4.37-3.62 7.58l.2 2.63c-3.44 1.76-7.23 1.83-9.97-1.2 2-4.62 3.53-9.43 5.55-14.05z"/><path fill="#bca791" d="M111.56 199.44c8.31 3.83 17.48 4.98 26.55 4.26l.35 2.81c2.29 1.04 4.5 2.33 6.14 4.29-8.87-2.8-18.32-4.01-27.59-2.86-3.11.5-6.2-.23-9.26-.73l13.56-.26-2.51-3.02a27.45 27.45 0 0 0-9.28-2.46l2.04-2.03z"/><path fill="#dcc4aa" d="M324.54 199.32c5.46 1.62 10.64 4.03 15.41 7.15-.81 3.56.15 9.35-4.16 10.69-5.42-1.07-11.99-.7-16.17-4.8l.94-2.35c1-2.71 1.85-5.48 2.95-8.16l1.03-2.53m1.67 6.11c-.81 4.47 3.54 8.76 8.1 6.96l1.04-2.34c-1.46-4.3-4.54-7.29-9.14-4.62z"/><path fill="#4c3f36" d="M322.18 199.52l1.33 2.33-2.95 8.16-2-2.91c-.83-3.21 1.21-5.76 3.62-7.58z"/><path fill="#ae9a8b" d="M210.88 208.54l4.93-8.17 2.52 2.85c2.04 1.15 4.27 1.9 6.49 2.63l-.91 5.6c-4.52-.72-9.13-1.26-13.7-.59-1.01-.77-2-1.57-2.92-2.44l3.59.12z"/><path fill="#8d7a67" d="M202.68 205.35l1.74-1.57 2.87 4.64c.92.87 1.91 1.67 2.92 2.44 3.86 3.58 10.74 7.17 13.7.59.38-1.86.64-3.73.91-5.6a100.59 100.59 0 0 0 4.5 1.31l1.64.07 1.54.03c-1.83.94-3.72 1.77-5.62 2.56-.38 3.39-.64 7.71-4.16 9.39-3.3 1.31-6.81 2.03-10.04 3.55l-3.31 1.1c-7.06-.16-12.59 4.53-19.2 5.94a77.02 77.02 0 0 1 5.95 4.37c-3.41 5.6-5.88 11.89-10.75 16.46l-1.38-2.19c-4.36 4.23-8.85 8.37-12.59 13.18-.7-1.36-1.25-2.77-1.75-4.2 4.95-2.66 8.48-7.02 11.93-11.31 4.63-3.87 4.91-10.29 7.23-15.49l-7.69-3.59-3.92 2.27c-4.33-3.26-9.9-1.5-14.87-1.87-3.78-.24-8.72.12-10.01 4.43l-.37-4.03 2.1-.75c2.39-.89 4.69-2 7.03-3 3.71.73 7.48.16 11.14-.52l2.1 1.71a231.08 231.08 0 0 0 7.67-8.3c-2.71-3.29-5.55-6.48-8.31-9.73 4.43.05 9.13.64 12.35 4.03l3.01 2.58c-2.92 1.28-4.39 4.09-5.52 6.89l7.19 1.91 3.65-3.65c2.08 1.2 4.25 2.22 6.47 3.13l4.64-5.85 1.88-2.4c-2.37-3.21-4.85-6.34-7.48-9.34l2.81.81z"/><path fill="#675749" d="M238.58 203.1c3.53 2.18 7.35 3.89 11.52 4.33 1.44 1.76 2.98 3.44 4.66 4.99-2.96 2.07-5.63 4.52-8.48 6.74l-2.12.29c-2.34-2.3-4.24-5.3-7.27-6.74-4.2-.5-4.84 4.38-5.99 7.28-2.14.07-4.28.11-6.42.29l-.92 1.47c-.39 2.39.17 4.76 1.06 6.98 1.87-.43 3.74-.87 5.64-1.21-.23 3.02.09 6.12 2.27 8.43l2.71-2.32 3.25.46c1 2.84 2.95 5.14 5.38 6.87-3.9 1.96-7.7 4.13-11.68 5.95-4.33-5.94-8.56-11.94-12.64-18.05.55-2.4 1.22-4.75 2.06-7.06l-6.71.69-2.22.27c3.23-1.52 6.74-2.24 10.04-3.55 3.52-1.68 3.78-6 4.16-9.39 1.9-.79 3.79-1.62 5.62-2.56 2.41-.16 4.82-.42 7.23-.63l-1.15-3.53z"/><path fill="#070605" opacity=".81" d="M261.74 202.84l.97.16 4.02 1.1-.5 4.02-4.73-1.44.24-3.84z"/><path fill="#48413d" d="M262.71 203c3.48.53 7.06.8 10.51-.03l9.79 3.77-.36 1.88 6.25-2.5a48.57 48.57 0 0 0 2.9 4.64l2.47 1.39c-9.44-.36-18.61-3.19-28.04-4.03l.5-4.02-4.02-1.1z"/><path fill="#857b6d" d="M326.21 205.43c4.6-2.67 7.68.32 9.14 4.62l-1.04 2.34c-4.56 1.8-8.91-2.49-8.1-6.96z"/><path fill="#020201" opacity=".78" d="M349.87 207.28c2.38-1.42 4.9-2.6 7.56-3.4l1.17 3.23-2.94 2.48-5.79-2.31z"/><path fill="#e8d0bf" d="M59.59 206.99c5.79-.36 11.56.15 17.35.23-.65 4.21-1.69 8.38-3.68 12.18l-5.35-1.02-.53 4.96c5.64.22 11.27.74 16.89 1.29-5.91 0-11.84-.04-17.68.99l-.87.11-.91.11c-1.75-2.16-2.74-4.75-3.16-7.47l5.59-.97c-5.11-1.1-7.32-5.56-7.65-10.41z"/><path fill="#3f362f" d="M250.96 206.3c5.71-.52 9.16 4.79 11.89 8.96l4.36.9c-2.06.63-4.09 1.39-6.03 2.32l-.76.57c-.06 1.5-.04 2.99-.03 4.49-.7 1.03-1.4 2.05-2.05 3.1l-5.94-1.11c-2.15 1.65-4.36 3.24-6.71 4.6 2.27-6.37 9.83-8.16 14.16-12.86a155.16 155.16 0 0 0-5.09-4.85c-1.68-1.55-3.22-3.23-4.66-4.99l.86-1.13z"/><path fill="#af9e8d" d="M28.17 208.75l9.65-1.91.3 8.49-.96 1.04-3.11-6.58-3.81-1.33-1.55 4.58-.52-4.29z"/><path fill="#b9a28c" d="M58.94 206.99h.65c.33 4.85 2.54 9.31 7.65 10.41l-5.59.97c.42 2.72 1.41 5.31 3.16 7.47-5.71-.37-9.27 4.88-11.87 9.19.11 3.14 2.39 5.99 1.9 9.3l-.27-.39-1.22-1.54c-2.59-4.69-10.89-9.67-14.76-4.48 1.85 4.05 5.2 7.12 8.19 10.32a52.26 52.26 0 0 0-2.04 1.64l-2.06 1.88-2.3-.24c-2.65-3.45-5.3-6.91-7.47-10.69l3.32-2.31 2.34-1.63-1.35-2.63 2.08-2.08a22.47 22.47 0 0 1 1.39-6.48l-2.95-2.13c1.19-3.74 3.64-6.96 7.29-8.56 4.32.01 8.64.39 12.96.31l.95-8.33m-12.59 9.09c-.49 2.48-.87 4.99-1.12 7.51l2.25 2.65c-.86 3.3-1.46 6.86.75 9.79-.03-5.98 6.58-7.14 9.43-11.3.26-2.18.07-4.39.01-6.57-3.75-.82-7.53-1.48-11.32-2.08z"/><path fill="#fff7de" d="M76.94 207.22l9.92-.06c6.5-.28 7.86 7.03 6.75 12.03l-1.44 5.15 4.62 1.12c-1.22 1.72-3.31 1.85-5.2 2.14-.64-2.59-1.87-4.96-3.38-7.13 3.37-4.46.28-12.15-5.78-10.97-5.94.82-6.63 8.26-2.87 11.96l7.25.7-1.03 2.54-1.51-.07c-5.62-.55-11.25-1.07-16.89-1.29l.53-4.96 5.35 1.02c1.99-3.8 3.03-7.97 3.68-12.18z"/><path fill="#b4a093" d="M86.86 207.16l13.31.03-2.57 1.09 4.5 1.13c-4.68 1.32-7.67 5.04-8.49 9.78 1.11-5-.25-12.31-6.75-12.03z"/><path fill="#908172" d="M318.56 207.1l2 2.91-.94 2.35-3.54 1.91 3.8 2.94c-4.74-2.29-9.8-4.61-15.15-2.84-1.24-.12-2.48-.26-3.71-.43l-4.26-1.46c2.59-.5 5.17-1.1 7.79-1.46l1.81-.28a29.89 29.89 0 0 0 2.43-2.21c2.74 3.03 6.53 2.96 9.97 1.2l-.2-2.63z"/><path fill="#b8a38d" d="M335.79 217.16c4.31-1.34 3.35-7.13 4.16-10.69l1.9 1.04c-.21 5.35-2.2 10.49-1.9 15.86 6.31.69 12.45 2.48 18.13 5.33l.9-1.59 2.14 2.06c-6.24 8.84-16.46 1.45-23.77-1.65-2.64-.64-2.92-3.26-3.24-5.51-4.92-1.03-9.73-2.54-14.23-4.8-1.3-.94-2.55-1.94-3.8-2.94l3.54-1.91c4.18 4.1 10.75 3.73 16.17 4.8z"/><path fill="#ebd4bc" d="M341.85 207.51c5.2-.65 9.44 2.97 14.05 4.71 3.36 1.78 9 2.71 8.23 7.7-.93 3.1-1.98 6.17-3.01 9.25l-2.14-2.06-.9 1.59c-5.68-2.85-11.82-4.64-18.13-5.33-.3-5.37 1.69-10.51 1.9-15.86z"/><path fill="#aa9c8f" d="M369.25 207.17l3.58.09c3.3 5.43-.85 11.48 1.92 16.93 3.31-.1 6.77.4 9.25 2.81v6.63a101.12 101.12 0 0 0-3.62-1.45l.01-3.65-2.65-.24-2.78 10.35 2.64.22 1.55-2.79c1.62.56 3.25 1.13 4.85 1.78v3.41c-3.3.79-6.73 1.86-10.12.9l-2.27-.59-1.35-3.61c-1.93 1.1-3.84 2.22-5.72 3.37-2.48-.43-5.08-1.18-5.78-3.9 7.24-6.15 6.69-16.12 9.1-24.25a144.41 144.41 0 0 0 3.55 1.69c-1.04-1.18-2.12-2.33-3.2-3.46l1.04-4.24z"/><path fill="#e9d0b8" d="M143.16 219.92c1.29-3.98 2.19-8.06 3.51-12.02l.42 2.7 2.19-1.45c-.32 6.13-1.2 12.21-2.69 18.17-1.16-1.26-2.24-2.61-3.59-3.67-5.15-1.7-9.06-5.79-14.13-7.56-4.87-1.06-5.05 5.34-6.75 8.41.06-2.29.17-4.57.42-6.83 5.46-7.97 14.13.4 20.62 2.25z"/><path fill="#a38c79" d="M146.67 207.9l2.86.24c.39 2.45.95 4.88 1.85 7.19l1.8-6.81.44.1c3.78 5.18 8.79 9.23 14.58 11.99l2.73 1.93 1.29 1.02c-3.66.68-7.43 1.25-11.14.52-1.35-2.35-3.81-3.58-6.14-4.75a160.88 160.88 0 0 0-2.81 7.99l1.92-.24c-.53.18-1.57.56-2.1.75-1.98.14-3.97.14-5.95.15 3.84 1.91 3.87 6.61 6.91 9.11l.03.35c-1.62 2.57-4.31 4.83-4.07 8.15-3.87.37-7.99 1.39-9.02 5.72-1.92.99-3.78 2.1-5.65 3.18l1.5 2.72-.95 1.99c2.61 3.82 2.54 8.43 1.68 12.79l1-.08c5.71.29 11.72-.39 16.21-4.28l3.21-.96c.31.9.64 1.8.98 2.7-6.7 4.26-14.46 5.81-22.25 6.5l-.89 4.89c-5.3.22-10.59.47-15.89.31l-.1-5.14-.03-3.05a53.24 53.24 0 0 0 15.94-.18l.29-6.61.13-3.4c-6.49-.76-11.87 2.6-17.25 5.53-4.46-.51-9.36-1.74-12.57 2.45l-2.61.71c-.36-1.85-.74-3.69-1.17-5.52 5.62.23 10.62-2.49 15.23-5.36 4.4-2.63 11.8-6.24 7.73-12.36l-.11-1.16 4.79 4.86 1.29-1.11c1.97-1.63 3.83-3.4 5.52-5.32l2.11-2.31-2.89-1.11-1.11-1.87 4.74.51c1.99-3.67 4.72-7.2 5.16-11.48-1.62-2.08-4.05-3.3-6.17-4.77 1.74-.36 3.51-.6 5.28-.73 1.35 1.06 2.43 2.41 3.59 3.67 1.49-5.96 2.37-12.04 2.69-18.17l-2.19 1.45-.42-2.7m-18.75 44.76c.99 1.88 2.1 3.7 3.25 5.49l2.56-2.17c-1.58-1.67-3.55-2.85-5.81-3.32z"/><path fill="#372e26" d="M149.53 208.14l3.65.38-1.8 6.81c-.9-2.31-1.46-4.74-1.85-7.19z"/><path fill="#96836f" opacity=".92" d="M28.69 213.04l1.55-4.58c1.44 8.79 1.58 18.26 6.98 25.8l1.35 2.63-2.34 1.63c-4.37-7.89-6.95-16.46-7.54-25.48z"/><path fill="#fde7d0" d="M30.24 208.46l3.81 1.33 3.11 6.58.96-1.04c2.3-.24 4.61-.3 6.91-.32-3.65 1.6-6.1 4.82-7.29 8.56l2.95 2.13a22.47 22.47 0 0 0-1.39 6.48l-2.08 2.08c-5.4-7.54-5.54-17.01-6.98-25.8z"/><path fill="#807365" d="M82.43 209.5c6.06-1.18 9.15 6.51 5.78 10.97l-8.65.99c-3.76-3.7-3.07-11.14 2.87-11.96M80 216.13c1.33.73 2.35 2.52 4.04 2.31 3.11-1.39.86-5.26.35-7.61-1.62 1.63-3.07 3.42-4.39 5.3z"/><path fill="#fcfafc" d="M210.21 210.86c4.57-.67 9.18-.13 13.7.59-2.96 6.58-9.84 2.99-13.7-.59z"/><path fill="#fffff5" d="M80 216.13c1.32-1.88 2.77-3.67 4.39-5.3.51 2.35 2.76 6.22-.35 7.61-1.69.21-2.71-1.58-4.04-2.31z"/><path fill="#665c54" d="M365.07 211.3l2.79 1.88c-2.41 8.13-1.86 18.1-9.1 24.25-1.49 1.83-3.7 2.31-5.91 1.56l4.13-2.26c-4.26-1.05-8.48-2.32-12.6-3.84l-8.09-2.89c-5.85-3.83-13.6-4.5-18.28-10.02-3.23-3.97-8.55-4.74-13.28-5.61 5.35-1.77 10.41.55 15.15 2.84 4.5 2.26 9.31 3.77 14.23 4.8.32 2.25.6 4.87 3.24 5.51 7.31 3.1 17.53 10.49 23.77 1.65l3.01-9.25c1.35-2.79.13-5.39-2.32-7.01l3.26-1.61z"/><path fill="#fefeff" d="M193.05 216.03c3.08-2.32 6.94-2.69 10.67-2.49l-.15 3.27c-3.5 1.14-7.28 1.1-10.52-.78z"/><path fill="#7b7167" d="M230.9 219.99c1.15-2.9 1.79-7.78 5.99-7.28 3.03 1.44 4.93 4.44 7.27 6.74-6.88.6-13.7 1.82-20.6 2.3l.92-1.47c2.14-.18 4.28-.22 6.42-.29z"/><path fill="#837264" d="M246.28 219.16c2.85-2.22 5.52-4.67 8.48-6.74a155.16 155.16 0 0 1 5.09 4.85c-4.33 4.7-11.89 6.49-14.16 12.86 2.35-1.36 4.56-2.95 6.71-4.6l5.94 1.11c-2.78 3.93-2.5 9.03 1.95 11.54-1.98 1.36-3.97 2.74-5.86 4.24 3.33.1 6.36-1.37 8.95-3.35-.63 3-.95 6.05-1.13 9.11l4.75 1.54 1.3.35-.55 3.57-3.3.95c3.03 6.78 9.9 13.87 17.99 11.07l-5.14 3.52c-1.33-.15-2.65-.3-3.97-.38-6.29-5.94-10.75-13.42-14.73-21.01l-2.73-.88c-1.69-1.28-3.39-2.57-5.01-3.94-1.04-1.2-2.08-2.4-3.05-3.65-1.48-2.68-2.31-5.64-2.98-8.6-1.58 1.98-3.81 3.17-6.34 3.37l-3.25-.46-2.71 2.32c-2.18-2.31-2.5-5.41-2.27-8.43 5.47-1.16 11.59-.55 16.27-4.16l-.25-4.2z"/><path fill="#a5917f" d="M189.04 213.85c1.28.81 2.62 1.54 4.01 2.18 3.24 1.88 7.02 1.92 10.52.78.47-.14 1.42-.4 1.9-.53l-4.64 5.85c-2.22-.91-4.39-1.93-6.47-3.13l-3.65 3.65-7.19-1.91c1.13-2.8 2.6-5.61 5.52-6.89z"/><path fill="#010101" opacity=".83" d="M301.02 213.94l3.71.43c4.73.87 10.05 1.64 13.28 5.61 4.68 5.52 12.43 6.19 18.28 10.02-12.33-3.95-24.83-8.2-35.27-16.06z"/><path fill="#85715c" d="M46.35 216.08c3.79.6 7.57 1.26 11.32 2.08.06 2.18.25 4.39-.01 6.57-2.85 4.16-9.46 5.32-9.43 11.3-2.21-2.93-1.61-6.49-.75-9.79l-2.25-2.65c.25-2.52.63-5.03 1.12-7.51z"/><path fill="#bca387" d="M122.12 224.5c1.7-3.07 1.88-9.47 6.75-8.41 5.07 1.77 8.98 5.86 14.13 7.56-1.77.13-3.54.37-5.28.73-2.68 3.94-4.81 8.22-7.07 12.41-3.64-3.4-9.64-6.36-8.53-12.29m4.43-7.57c-1.46 3.31-.97 6.85.19 10.15 2.02-.51 4.41-1.03 5.28-3.2 0-3.31-3.22-5.09-5.47-6.95z"/><path fill="#86725d" d="M267.21 216.16c4.11 1.67 8.2 6.17 7.41 10.94 2.18 3.97 2.16 8.62 3.74 12.8l-1.65 1.31c-2-2.54-4.21-4.9-6.56-7.12l2.99-2.23.03-3.06-2.14 1.1c-2.53-4.4-5.35-8.81-9.85-11.42 1.94-.93 3.97-1.69 6.03-2.32z"/><path fill="#826e5c" d="M126.55 216.93c2.25 1.86 5.47 3.64 5.47 6.95-.87 2.17-3.26 2.69-5.28 3.2-1.16-3.3-1.65-6.84-.19-10.15z"/><path fill="#fce4cb" d="M120.37 231.67c-4.18-4.33-1.25-10.29 2.17-14-.25 2.26-.36 4.54-.42 6.83-1.11 5.93 4.89 8.89 8.53 12.29 2.26-4.19 4.39-8.47 7.07-12.41 2.12 1.47 4.55 2.69 6.17 4.77-.44 4.28-3.17 7.81-5.16 11.48l-4.74-.51 1.11 1.87-2.73 2.49c-.66-6.44-9.01-7.6-12-12.81z"/><path fill="#fffeff" d="M168.2 220.61c2.65-3.6 7.23-3.42 10.99-1.83-2.29 2.14-5.22 3.23-8.26 3.76l-2.73-1.93z"/><path fill="#c2bcbf" d="M154.94 219.33c2.33 1.17 4.79 2.4 6.14 4.75l-7.03 3-1.92.24 2.81-7.99z"/><path fill="#e4ccb4" d="M244.16 219.45l2.12-.29.25 4.2c-4.68 3.61-10.8 3-16.27 4.16-1.9.34-3.77.78-5.64 1.21-.89-2.22-1.45-4.59-1.06-6.98 6.9-.48 13.72-1.7 20.6-2.3z"/><path fill="#b7a38f" d="M260.42 219.05l.76-.57c4.5 2.61 7.32 7.02 9.85 11.42-3.73 2.56-6.97 5.76-10.74 8.28-4.45-2.51-4.73-7.61-1.95-11.54.65-1.05 1.35-2.07 2.05-3.1-.01-1.5-.03-2.99.03-4.49z"/><path fill="#c7b4a1" d="M79.56 221.46l8.65-.99c1.51 2.17 2.74 4.54 3.38 7.13-4.16 2.58-8.75-.24-13.12-.56-3.91-.8-7.9-1.11-11.88-1.42 5.84-1.03 11.77-.99 17.68-.99l1.51.07 1.03-2.54-7.25-.7z"/><path fill="#171310" opacity=".88" d="M214.9 222.49l6.71-.69c-.84 2.31-1.51 4.66-2.06 7.06a66.1 66.1 0 0 0-4.65-6.37z"/><path fill="#463b33" d="M190.17 229.8c6.61-1.41 12.14-6.1 19.2-5.94l1.61 7.08c-2.04-.62-4.11-1.06-6.19-1.46-1.79 3.31-4.87 5.1-8.67 4.69a77.02 77.02 0 0 0-5.95-4.37z"/><path fill="#fdebd1" d="M52.94 235.03c2.6-4.31 6.16-9.56 11.87-9.19l.91-.11c-3.54 3.1-3.79 8.58-8.17 10.94l2.23 9.61c7.72.59 18.03 6.04 14.92 15.32l5.24 1.24c-.35-5.7 4.28-9.67 9.79-9.61-.34-7.15.77-14.43-.56-21.49-3.47-1.78-7.33-2.69-10.7-4.7 4.37.32 8.96 3.14 13.12.56-.48 7.97-1.15 16.1.03 24.03 4.65 3.76 11.1 2.96 16.51 4.89-2.23 4.59-7 2.16-10.06.06-3.59 1.96-1.39 6.69-2 10l-12.65.04-1.06-3.53-2.77 2.57-5.66-.35-1.96-5.44-3.09 3.52c-4.19-1.61-8.23-3.63-11.93-6.18l3.18-6.33c2.81 1.04 5.82 1.24 8.78 1.34-2.26-6.15-9.39-3.09-14.25-3.63.08-1.42.2-2.84.18-4.26.49-3.31-1.79-6.16-1.9-9.3m32.34 20.16c.78 3.65 7.05 2.37 10.16 2.39l.44-2.66c-3.52-.24-7.13-.6-10.6.27z"/><path fill="#b89e83" d="M152.32 231.86c1.29-4.31 6.23-4.67 10.01-4.43 4.97.37 10.54-1.39 14.87 1.87l3.92-2.27 7.69 3.59c-2.32 5.2-2.6 11.62-7.23 15.49-7.23-3.53-14.28 4.14-11.93 11.31.5 1.43 1.05 2.84 1.75 4.2l1.9 2.74c-4.28 3.21-8.78 6.1-13.37 8.84-.72-1.27-1.45-2.54-2.1-3.83l-.98-2.7-.23-.6c2.97-1.57 5.85-3.31 8.52-5.34l2.31-1.77c-.02-4.37-3.13-7.46-7.64-6.36-2.96 2.02-5.86 4.12-8.93 5.98l3.49 6.92c-1.49-.21-3-.34-4.5-.48-.35-2.54-1.04-5.12-.63-7.69 2.62-3.99 7.62-5.19 11.19-8.1.19-5.35-3.19-10.17-5.21-15l-2.28 3.21-.03-.35-.59-5.23m24.14 1.52l-2.96 6.37a36.4 36.4 0 0 0 8.17 4.23c2.93-3.43 3.95-7.78 1.93-11.95a87.13 87.13 0 0 0-7.14 1.35z"/><path fill="#635447" d="M146 227.98l5.95-.15.37 4.03.59 5.23c-3.04-2.5-3.07-7.2-6.91-9.11z"/><path fill="#d9c2a5" d="M103.77 238.17c-3.75-2.29-3.04-8.57 1.09-9.99-1.72 3.12-1.99 6.58-1.09 9.99z"/><path fill="#6c5d51" d="M204.79 229.48l6.19 1.46 2.27.76c-.09 4.28 1.91 9.36-1.54 12.8-.92 5.64-4.54 10.58-4.31 16.45-1.58 10.64 1.14 21.27-.53 31.93.08 1.69.33 3.37.52 5.06l-.61 2.44 1.81 1.65-2.61.29c1.84 3.3 2.68 7 2.07 10.78l-3.53 2.29c1.87.39 3.71.88 5.59 1.26-2.76.13-5.52.02-8.27.04 1.08-2.63 2.1-5.28 2.84-8.02-8.24.67-17.29 2.2-24.7-2.47l2.67-.65-.09-4.72c1.98 1.95 3.93 3.94 5.86 5.96l5.81-.65 9.21-.82c-.06-8.11 1.07-16.19.9-24.29l-.81-1.09a37.49 37.49 0 0 1 .16-2.81c.65-5.95.82-11.94 1-17.91-3.6.15-7.2.43-10.78.83l-5.84-2.59c-1.05 6.67-.59 13.45-.97 20.18l-2.68 1.19c-.5 3.18-1.13 6.34-1.7 9.51-1.5-12.6 2.53-24.82 2.69-37.24l-.04-.47c4.87-4.57 7.34-10.86 10.75-16.46 3.8.41 6.88-1.38 8.67-4.69m-15.38 17.28c6.32-.44 15.56 3.21 19.88-2.5-6.44 2.41-13.52-.01-19.88 2.5m3.7 1.44c-.54 3.01-3.25 6.84-.82 9.52 1.97.54 2.91-1.59 4.12-2.7l4.15.09c1.13.93 2.01 3.39 3.82 2.34 1.6-2.84.74-6.17.47-9.22l-1.04 1.23c-3.11-2.44-7.08-1.72-10.7-1.26z"/><path fill="#4a4038" d="M271.03 229.9l2.14-1.1-.03 3.06-2.99 2.23-6.77 4.98c-2.59 1.98-5.62 3.45-8.95 3.35l5.86-4.24c3.77-2.52 7.01-5.72 10.74-8.28z"/><path fill="#342d2a" d="M244.83 230.72c.67 2.96 1.5 5.92 2.98 8.6l-3.94 1.64c-2.43-1.73-4.38-4.03-5.38-6.87 2.53-.2 4.76-1.39 6.34-3.37z"/><path fill="#e0c6af" d="M176.46 233.38l7.14-1.35c2.02 4.17 1 8.52-1.93 11.95a36.4 36.4 0 0 1-8.17-4.23l2.96-6.37z"/><path opacity=".8" d="M344.38 232.89c4.12 1.52 8.34 2.79 12.6 3.84l-4.13 2.26c-1.62-.29-3.23-.63-4.84-.96-.46.89-.9 1.79-1.32 2.7l-3.8-.51 2.49 3.99-2.1 4.62-2.83-1.17-1.64-5.08 1.19-6.19 4.16-.48.22-3.02z"/><path fill="#e9ceb2" d="M152.94 237.44l2.28-3.21c2.02 4.83 5.4 9.65 5.21 15-3.57 2.91-8.57 4.11-11.19 8.1-.41 2.57.28 5.15.63 7.69 1.5.14 3.01.27 4.5.48.76.16 1.51.35 2.25.57l.23.6-3.21.96-2.52-.16c-4.8.71-9.81 1.16-13.69 4.44l-1 .08c.86-4.36.93-8.97-1.68-12.79l.95-1.99 2.75.12 1.66-3.38 2.7.19.13 3.1-3.38.44c1.11 2.63 2.99 4.78 5.34 6.39 2.3-4.85 4.68-10.33.81-15.14-1.97.76-3.94 1.51-5.86 2.38 1.03-4.33 5.15-5.35 9.02-5.72-.24-3.32 2.45-5.58 4.07-8.15z"/><path fill="#a8937f" d="M270.15 234.09c2.35 2.22 4.56 4.58 6.56 7.12-4.82.97-8.94 3.17-9.71 8.51l-4.75-1.54c.18-3.06.5-6.11 1.13-9.11 2.3-1.6 4.53-3.3 6.77-4.98z"/><path fill="#eed6c1" d="M38.59 237.92c3.87-5.19 12.17-.21 14.76 4.48-1.96 2.19-4.19 4.12-6.57 5.84-2.99-3.2-6.34-6.27-8.19-10.32z"/><path fill="#8d8b8f" d="M352.85 238.99c2.21.75 4.42.27 5.91-1.56.7 2.72 3.3 3.47 5.78 3.9 2.71 5.01-1.75 9.63-5.52 12.44l-3.35-.76 1.32-5.69 4.72-.11c-.56-2.41-2.98-2.94-4.99-3.59-2.44-.74-4.89-1.46-7.36-2.07.65 1.67 1.65 3.16 2.89 4.45l.89 2.23c-.8 1.04-1.56 2.11-2.32 3.18l-3.13-1.17c-.64-3.13-1.54-6.3-1-9.51.42-.91.86-1.81 1.32-2.7l4.84.96z"/><path fill="#5c5249" d="M278.36 239.9c4.98 10.4 12.73 18.95 18.56 28.84.81 1.14 1.64 2.28 2.37 3.49.47 1.15.9 2.32 1.36 3.49.37 2.44 2.48 3.4 4.47 4.3.09.16.26.49.35.66-4.93 7.53-12.91 13.66-21.99 14.87-1.98-4.02-4.51-7.74-7.3-11.23-2.15-2.61-4.2-5.29-6.08-8.1-1.96-6.34-7.59-10.91-8.6-17.6-.66-4.39-2.87-8.3-5.63-11.71l2.73.88c3.98 7.59 8.44 15.07 14.73 21.01l-2.29.77c1.14 6.35 5.5 11.39 8.69 16.8 2.31 4.4 9.22 6.68 13 2.86 2.97-2.57 5.97-5.1 9.06-7.51l-12.87-21.11a52.06 52.06 0 0 0-1.23.18c-3-6.08-6.32-12-9.7-17.88-3.31 2.28-6.42 4.84-9.69 7.16l-1.3-.35c.77-5.34 4.89-7.54 9.71-8.51l1.65-1.31z"/><path fill="#af9780" d="M53.35 242.4l1.22 1.54c-1.26 2.47-3.09 4.55-5.29 6.23 1.72 2.15 3.61 4.17 5.63 6.06l3.01-6.11 2.21.76-3.18 6.33c3.7 2.55 7.74 4.57 11.93 6.18l3.09-3.52 1.96 5.44 5.66.35 2.77-2.57 1.06 3.53c4.22.06 8.44.04 12.65-.04.61-3.31-1.59-8.04 2-10 1.41 2.9 2.5 6.29 1.05 9.41l-2.41.17c-.63 4.21.81 7.49 5.56 7.21l-1.95 3.34c-4.92-3.47-10.89-3.78-16.68-3.2l-1.08-4.65c-4.5-.4-8.98-1.08-13.32-2.36l-2.49 2.9-1.44-.44c-3.77-1.8-7.47-3.74-11.16-5.68l1.47-3.49c-3.75-3.17-7.16-6.71-10.88-9.91a52.26 52.26 0 0 1 2.04-1.64c2.38-1.72 4.61-3.65 6.57-5.84z"/><path fill="#ddc3ad" d="M132.37 244.48l2.73-2.49 2.89 1.11-2.11 2.31c-3.1.06-4.88 2.54-5.52 5.32l-1.29 1.11-4.79-4.86.11 1.16c-4.74.98-9.34 2.57-13.41 5.23 1.36 2.77 3.15 5.32 5.68 7.13-4.61 2.87-9.61 5.59-15.23 5.36l-2.31.13c1.45-3.12.36-6.51-1.05-9.41 3.06 2.1 7.83 4.53 10.06-.06 1.47-5.83 6.49-9.72 12.02-11.47 4.05-.45 8.27 1.03 12.22-.57z"/><path fill="#151414" opacity=".69" d="M349.36 241.55l7.36 2.07-3.58 4.61-.89-2.23c-1.24-1.29-2.24-2.78-2.89-4.45z"/><path fill="#010101" opacity=".84" d="M250.86 242.97l5.01 3.94c2.76 3.41 4.97 7.32 5.63 11.71 1.01 6.69 6.64 11.26 8.6 17.6-4.13-5.11-7.41-10.8-11.17-16.17-3.71-5.19-4.53-11.79-8.07-17.08z"/><path fill="#a79480" d="M268.3 250.07c3.27-2.32 6.38-4.88 9.69-7.16 3.38 5.88 6.7 11.8 9.7 17.88-1.66 1.71-3.29 3.49-5.25 4.87-8.09 2.8-14.96-4.29-17.99-11.07l3.3-.95.55-3.57m6.72.68c-.84 2.53-.83 5.23-.97 7.87 2.05.73 4.04 2.09 6.31 1.92.74-2.42 1.02-4.95 1.37-7.45-2.16-.94-4.25-2.55-6.71-2.34z"/><path fill="#e1c7b0" d="M54.57 243.94l.27.39c.02 1.42-.1 2.84-.18 4.26 4.86.54 11.99-2.52 14.25 3.63-2.96-.1-5.97-.3-8.78-1.34l-2.21-.76-3.01 6.11c-2.02-1.89-3.91-3.91-5.63-6.06 2.2-1.68 4.03-3.76 5.29-6.23z"/><path fill="#3d342d" d="M189.41 246.76c6.36-2.51 13.44-.09 19.88-2.5-4.32 5.71-13.56 2.06-19.88 2.5z"/><path fill="#f5e1c3" d="M130.36 250.73c.64-2.78 2.42-5.26 5.52-5.32-1.69 1.92-3.55 3.69-5.52 5.32z"/><path fill="#e5cbb0" d="M169.65 257.42c-2.35-7.17 4.7-14.84 11.93-11.31-3.45 4.29-6.98 8.65-11.93 11.31z"/><path fill="#938373" d="M193.11 248.2c3.62-.46 7.59-1.18 10.7 1.26l1.04-1.23c.27 3.05 1.13 6.38-.47 9.22-1.81 1.05-2.69-1.41-3.82-2.34l-4.15-.09c-1.21 1.11-2.15 3.24-4.12 2.7-2.43-2.68.28-6.51.82-9.52z"/><path fill="#010101" opacity=".91" d="M185.41 251.1c-.16 12.42-4.19 24.64-2.69 37.24-.21 4.16-.24 8.32-.16 12.49l.09 4.72-2.67.65-1.38-6.93c-4.1-.36-7.97.98-11.18 3.52.28-6.03 6.24-9.34 11.76-8.53l1.06 3.73 1.87-1.05c.19-15.34-.54-30.85 3.3-45.84z"/><path fill="#645a4f" d="M275.02 250.75c2.46-.21 4.55 1.4 6.71 2.34-.35 2.5-.63 5.03-1.37 7.45-2.27.17-4.26-1.19-6.31-1.92.14-2.64.13-5.34.97-7.87z"/><path fill="#eed3bc" d="M159.81 252.6c4.51-1.1 7.62 1.99 7.64 6.36l-2.31 1.77-5.33-8.13z"/><path fill="#56483d" d="M127.92 252.66c2.26.47 4.23 1.65 5.81 3.32l-2.56 2.17-3.25-5.49z"/><path fill="#fffee8" d="M150.88 258.58c3.07-1.86 5.97-3.96 8.93-5.98 1.72 2.74 3.52 5.44 5.33 8.13-2.67 2.03-5.55 3.77-8.52 5.34-.74-.22-1.49-.41-2.25-.57l-3.49-6.92z"/><path fill="#897663" d="M85.28 255.19c3.47-.87 7.08-.51 10.6-.27l-.44 2.66c-3.11-.02-9.38 1.26-10.16-2.39z"/><path fill="#91816d" d="M188.07 257.46l5.84 2.59c-2.96 5.05-2.87 11.35-1.88 16.93 2.92 3.45 8.15 1.8 11.66.15a37.49 37.49 0 0 0-.16 2.81c-4.5.64-9.02 1.18-13.56 1.52-.32 7.98-.53 15.96-.56 23.95l4.82.73-5.81.65-5.86-5.96c-.08-4.17-.05-8.33.16-12.49l1.7-9.51 2.68-1.19c.38-6.73-.08-13.51.97-20.18z"/><path fill="#ae9986" d="M193.91 260.05c3.58-.4 7.18-.68 10.78-.83-.18 5.97-.35 11.96-1 17.91-3.51 1.65-8.74 3.3-11.66-.15-.99-5.58-1.08-11.88 1.88-16.93m3.62 4.43c-1.58 1.71-2.83 3.69-4.23 5.55 1.4 2.03 2.65 4.49 5.22 5.22a103.21 103.21 0 0 1 4.43-5.58c-1.48-1.88-2.39-5.82-5.42-5.19z"/><path fill="#c3af99" d="M287.69 260.79l1.23-.18 12.87 21.11c-3.09 2.41-6.09 4.94-9.06 7.51-7.66-4.1-10.58-13.28-15.43-20.05l5.14-3.52c1.96-1.38 3.59-3.16 5.25-4.87z"/><path fill="#c7af92" d="M117.78 268.22c5.38-2.93 10.76-6.29 17.25-5.53l-.13 3.4c-5.42.2-10.38 2.44-15.17 4.79l-1.06 2c-4.55-.22-9.25-.23-13.46-2.21 3.21-4.19 8.11-2.96 12.57-2.45z"/><path fill="#645c54" d="M197.53 264.48c3.03-.63 3.94 3.31 5.42 5.19l-4.43 5.58c-2.57-.73-3.82-3.19-5.22-5.22l4.23-5.55z"/><path fill="#7d6c58" d="M96.71 266.16l2.41-.17 2.31-.13 1.17 5.52 2.61-.71c4.21 1.98 8.91 1.99 13.46 2.21l.03 3.05c-5.54-.38-11-1.44-16.43-2.56-4.75.28-6.19-3-5.56-7.21z"/><path fill="#f7dfc8" d="M119.73 270.88c4.79-2.35 9.75-4.59 15.17-4.79l-.29 6.61a53.24 53.24 0 0 1-15.94.18l1.06-2z"/><path fill="#fcf4dd" d="M137.43 271.91c3.88-3.28 8.89-3.73 13.69-4.44l2.52.16c-4.49 3.89-10.5 4.57-16.21 4.28z"/><path fill="#9a8975" d="M271.04 269.57l2.29-.77 3.97.38c4.85 6.77 7.77 15.95 15.43 20.05-3.78 3.82-10.69 1.54-13-2.86-3.19-5.41-7.55-10.45-8.69-16.8z"/><path fill="#020202" opacity=".87" d="M296.92 268.74l5.04-.15 3.54 2.69-6.21.95c-.73-1.21-1.56-2.35-2.37-3.49z"/><path fill="#87888b" d="M299.29 272.23l6.21-.95c1.65.83 3.33 1.84 3.37 3.93-2.5 1.77-5.47 1.19-8.22.51l-1.36-3.49z"/><path fill="#23201f" opacity=".73" d="M300.65 275.72c2.75.68 5.72 1.26 8.22-.51l-.22 4.83.18 5.56c-1.4-1.44-2.49-3.13-3.36-4.92l-.35-.66c-1.99-.9-4.1-1.86-4.47-4.3z"/><path fill="#9a8d80" d="M308.65 280.04l4-2.16c4.38 7.65-6.5 11.2-7.87 17.87l3.3-.36c3.15 3.52 6.62 10.6 1.46 13.79l-3.58-4.46 1.81-2.88-.86-2.06a218.11 218.11 0 0 0-8.68 6.41l.85 1.75 3.95-.85 3.16 4.67-2.42 2.1c-2.46-.91-4.9-1.85-7.26-3-1-1.31-1.95-2.66-2.93-3.97l3.16-4.42c-3.22-.16-6.43-.23-9.65-.33l.29.17.13 3.61c-3.6 3.06-10.02 6.1-13.66 1.6l3.66-3.82c1.52.54 3 1.2 4.48 1.84l1.05-1.56-6.91-8.69-1.74 1.76 1.65 3.27c-1.74 1.22-3.5 2.4-5.28 3.55-1.06-1.87-1.46-3.96-.75-6.04 1.06-2.98 3.37-5.17 5.81-7.07 2.24 2.05 4.63 4.07 7.66 4.79 9.08-1.21 17.06-7.34 21.99-14.87.87 1.79 1.96 3.48 3.36 4.92l-.18-5.56z"/><path fill="#c6b39d" d="M189.97 281.46c4.54-.34 9.06-.88 13.56-1.52l.81 1.09c.17 8.1-.96 16.18-.9 24.29l-9.21.82c-1.61-.21-3.22-.48-4.82-.73.03-7.99.24-15.97.56-23.95z"/><path opacity=".87" d="M276.18 284.32c2.79 3.49 5.32 7.21 7.3 11.23-3.03-.72-5.42-2.74-7.66-4.79-2.44 1.9-4.75 4.09-5.81 7.07l-4.69-.63c.71-4.39 2.41-8.76 6.53-10.99l3.77 2.4c.14-1.44.31-2.87.56-4.29z"/><g fill="#020202"><path opacity=".91" d="M206.87 292.88l7.15 4.19.51 2.96-7.14-2.09-.52-5.06z"/><path opacity=".87" d="M274.39 297.05l1.74-1.76 6.91 8.69-1.05 1.56-4.48-1.84c-2.26-.06-4.5.03-6.75.17l5.28-3.55-1.65-3.27z"/></g><path fill="#7c7c82" d="M207.39 297.94l7.14 2.09.71 5.2-4.21.23-2.44-3.43-1.81-1.65.61-2.44z"/><path fill="#998b80" d="M167.42 302.79c3.21-2.54 7.08-3.88 11.18-3.52l1.38 6.93c7.41 4.67 16.46 3.14 24.7 2.47-.74 2.74-1.76 5.39-2.84 8.02-.72 3.64.13 7.33-.14 11-1.11 2.88-2.96 5.87-6.42 5.9l-.23-6.44 3.2-.32-.08-2.76c-3.88.07-8.28-.78-11.5 1.96l4.39 1.57c.33 3.1.6 6.58-3.48 6.4-4.03-4.54-5.12-10.54-2.78-16.2l-4.42-2.9-1 3.11c-4.35.81-8.61-.59-12.05-3.25l.12-3.25 4.02-.88c1.72.84 2.84 4.37 4.87 3.25.29-3.58-.11-7.17-.2-10.75l-2.64.1-.07 3.54-5.92.68a25.92 25.92 0 0 1-.09-4.66z"/><path fill="#030302" opacity=".9" d="M205.98 302.32l2.61-.29 2.44 3.43 4.21-.23-.95 3.84-3.49.41-1.52 2.68-1.23.94c.61-3.78-.23-7.48-2.07-10.78z"/><path fill="#302b28" opacity=".83" d="M287.09 302.14l9.65.33-3.16 4.42c-1.56-2.12-3.95-3.34-6.2-4.58l-.29-.17z"/><path fill="#020202" opacity=".91" d="M173.5 303.23l2.64-.1c.09 3.58.49 7.17.2 10.75-2.03 1.12-3.15-2.41-4.87-3.25-1.29-1.1-2.65-2.11-3.96-3.18l5.92-.68.07-3.54z"/><path fill="#838187" d="M210.8 309.48l3.49-.41 1.49 1.23.01 2.5-5.68 3.85-5.59-1.26 3.53-2.29 1.23-.94 1.52-2.68z"/><path fill="#211f1e" opacity=".69" d="M186.67 326.03c3.22-2.74 7.62-1.89 11.5-1.96l.08 2.76-3.2.32-.19-2.39-8.19 1.27z"/></svg>