<svg xmlns="http://www.w3.org/2000/svg" width="512" height="512" viewBox="0 0 384 384" xmlns:v="https://vecta.io/nano"><path fill="#9e9591" d="M192.53 15.82c.21-4.37 2.29-8.18 5.25-11.31l3.5.41-.56 5.7-3.7.8.19 2.45c3.41.44 6.82.91 10.21 1.51l.45-2.74-3.46-1.35 1.36-6.26c6.2 2.16 6.76 10.13 4.16 15.28-4.86 1.89-9.57-.04-13.72-2.64l-3.68-1.85z"/><path fill="#c3b39f" d="M196.21 17.67c4.15 2.6 8.86 4.53 13.72 2.64l.85 7.45a100.88 100.88 0 0 1-3.87.32c-4.69-.55-9.55-1.3-14.15.17-3.01-.94-5.1-3.13-3.24-6.25 2.31-1.31 4.53-2.77 6.69-4.33z"/><path fill="#968b85" d="M176.4 21.43c3.67-1.82 7.69-2.73 11.76-1.89l1.36 2.46c-1.86 3.12.23 5.31 3.24 6.25-2.88 1.9-5.55 4.1-8.57 5.79l.38-6.41c.11-1.82.16-3.64.19-5.46-1.51.89-2.6 2.23-3.5 3.7l-5.22-.6.36-3.84z"/><path fill="#817c7e" d="M209.93 20.31c3.89 4.11 10.57 2.8 13.99 7.71l-.06 3.48-4.69-.76c-.89-1.45-1.79-2.89-2.73-4.3l-.14 3.98c-4.07 1.48-4.75 6.4-2.12 9.52 1.62-1.24 2.98-2.76 4.19-4.39l4.78.18c-.48 1.55-1.01 3.09-1.54 4.63l-7.28 2.46a100.51 100.51 0 0 0-.78 5.75 91.17 91.17 0 0 0-1.7 2.64c-.32-5.79-.18-11.58 0-17.37-.04-1.09-.1-2.19-.19-3.28-1.5-.97-3.1-1.8-4.75-2.48a100.88 100.88 0 0 0 3.87-.32l-.85-7.45z"/><path fill="#998f91" d="M290.07 29.1c2.18-3.22 5.52-5.23 9.05-6.68l3.06 1.94c-1.13 4.37-5.08 4.07-8.5 5.4l9.72 7.14c1-1.94.04-3.78-.92-5.47l2.96-4.31 3.06 1.81c-.23 3.87-.27 8.21-3.5 10.91-.87.39-1.75.76-2.64 1.1-4.77.65-7.62-3.48-9.84-7-4.24-.52-8.52-.04-12.54 1.4l1.62 4.42c-2.32.54-4.59 1.26-6.87 1.92.71-1.73 1.42-3.47 2.3-5.12.91-1.4 1.88-2.74 2.85-4.11-1.93-1.3-3.52.18-5.03 1.28l-4.52-3.39 1.9-2.79c5.08-.48 10.03 1.31 12.81 5.75l5.79-.09-.76-4.11z"/><path fill="#262526" d="M192.76 28.25c4.6-1.47 9.46-.72 14.15-.17 1.65.68 3.25 1.51 4.75 2.48-5.1-.33-10.21-2.28-15.3-1.46-7.24 2.68-5.54 11.58-6.3 17.66-.37-4.22-.62-8.45-.54-12.69-.44.08-1.33.22-1.77.29l-1.22 4.19-1.39-.16 1.67-3.42-2.76-.55.14-.38c3.02-1.69 5.69-3.89 8.57-5.79z"/><path fill="#171616" opacity=".58" d="M216.44 26.44l2.73 4.3 4.69.76-3.59.58 2.88 3.65-4.78-.18c-1.21 1.63-2.57 3.15-4.19 4.39.7-3.18 1.89-6.26 2.12-9.52l.14-3.98z"/><path fill="#121212" opacity=".64" d="M174.68 29.89l9.89-2.26-.38 6.41-.14.38-1.99-.5-1.28-3.76-6.1-.27z"/><path fill="#9b8a77" d="M190.06 46.76c.76-6.08-.94-14.98 6.3-17.66 5.09-.82 10.2 1.13 15.3 1.46.09 1.09.15 2.19.19 3.28-3.86-2.97-8.78-3.4-13.46-3.72-.77 7.63-.75 15.3-1.31 22.94 4.33 1.34 8.79 2.19 13.29 2.74l1.34-3.84c-1.05 8-.85 16.06-.79 24.1l-4.91-.74c6.12-1.08 4.41-8.87 4.44-13.36.76-6.78-12.57-8.44-12.24-1.03-.47 4.44-.97 9.26 1.37 13.29l-4.19 1.72a61.35 61.35 0 0 1-1.29.34c.11-5.87.43-11.75.04-17.61l.02-1.37-3.83.1c.03-3.55.04-7.1-.27-10.64z"/><path fill="#96949a" d="M174.68 29.89l6.1.27 1.28 3.76 1.99.5 2.76.55-1.67 3.42-1.21-.14-1.73-.2-3.04-1.53c-2.43-1.48-4.29-3.68-4.48-6.63z"/><path fill="#e1cdb6" d="M198.39 30.12c4.68.32 9.6.75 13.46 3.72-.18 5.79-.32 11.58 0 17.37l-.14.75c-.41 1.29-.88 2.56-1.34 3.84-4.5-.55-8.96-1.4-13.29-2.74.56-7.64.54-15.31 1.31-22.94z"/><path fill="#4b433e" opacity=".96" d="M216.3 30.42c-.23 3.26-1.42 6.34-2.12 9.52-2.63-3.12-1.95-8.04 2.12-9.52z"/><path opacity=".78" d="M187.75 34.36l1.77-.29c-.08 4.24.17 8.47.54 12.69l-.5-1.33-1.43-4.26-2.1 4.59c-4.68-.34-9.65-2.7-10.91-7.61l4.04-1.63c.99.55 2 1.06 3.04 1.53-2.34 3.32 3.78 3.79 1.73.2l1.21.14 1.39.16 1.22-4.19z"/><path fill="#c0ae98" d="M279.98 35.34c4.02-1.44 8.3-1.92 12.54-1.4 2.22 3.52 5.07 7.65 9.84 7-.84 2.72-2.16 5.27-4 7.45-4.56-4.41-10.26-8.18-16.76-8.63l-1.62-4.42z"/><path fill="#9b98a0" d="M268.28 42.84c-1.32-2.68-2.89-5.86-.96-8.69l4.71 2.17-.54 4.62 3.65 3.92-1.59 1.28-1.5.43-3.08-3.06-.69-.67z"/><path fill="#4a403d" d="M272.03 36.32l5 .24c-.88 1.65-1.59 3.39-2.3 5.12l6.87-1.92c6.5.45 12.2 4.22 16.76 8.63l4.3 6.47c-1.72 2.11-3.67 4.03-5.17 6.31a58.28 58.28 0 0 0-1.69 2.52l-3.84 6.02c-4.75 8.44-11.67 15.43-15.39 24.53l-1.38-3.35-.82-1.98c-4.34.51-7.68-1.86-8.11-6.32l-.26-.67 1.42.74c3.22 1.85 6.19 4.09 9.26 6.17 3.51-6.38 6.68-13.02 11.42-18.61 3.83-6 7.35-12.2 10.91-18.36l-11.09-8.49c-3.3-1.77-6.84.49-9.57 2.31l-1.31-2.38-1.9 1.56-3.65-3.92.54-4.62z"/><path fill="#020201" opacity=".78" d="M214.33 42.82l7.28-2.46.01 4.47-6.91 4.21c-.06 3.7-.13 7.42-.83 11.06.11-3.85-.25-7.69-.33-11.53a100.51 100.51 0 0 1 .78-5.75z"/><path fill="#837565" d="M302.36 40.94l2.64-1.1c-5.67 6.28 7.02 9.45 6.67 16.19l-1.92 2.69-4.06-2.43c.13-1.52.5-3 .76-4.49l-2.03-.31-1.76 3.37c-1.49-2.12-2.86-4.32-4.3-6.47 1.84-2.18 3.16-4.73 4-7.45z"/><path opacity=".77" d="M264.1 41.18l4.18 1.66.69.67-1.06 4.48 4.14-1.42 1.5-.43 1.59-1.28 1.9-1.56 1.31 2.38-5.11 7.41.14-2.14-4.53 2.05c-3.45-1.9-5.27-5.39-6.49-8.98l1.74-2.84zm77.37 46.3c1.99-.94 3.62 1.11 5.15 2.12l.27.96-3.71 4.62 4.34-.13-.34-3.48 1.48 4.13 3.85-1.65.71 1.29-.88 1.8c-3.49 1.19-6.85 2.71-10.27 4.06-2.33-4.18-3.56-9.51-.6-13.72z"/><path fill="#a99782" d="M278.35 45.68c2.73-1.82 6.27-4.08 9.57-2.31-4.29 6.87-9.91 13.18-12.69 20.83l-5.53-.51-.02-5.05 3.56-5.55c1.67-2.49 3.32-5 5.11-7.41z"/><path fill="#d2bea7" d="M275.23 64.2c2.78-7.65 8.4-13.96 12.69-20.83 3.77 2.73 7.43 5.61 11.09 8.49-3.56 6.16-7.08 12.36-10.91 18.36-3.62.01-6.87-1.82-9.38-4.31-.64-.88-1.24-1.78-1.84-2.68l-1.65.97z"/><path fill="#4e463f" opacity=".98" d="M189.56 45.43l.5 1.33c.31 3.54.3 7.09.27 10.64l3.83-.1-.02 1.37c-7.75 7.6-.12 18.55-4.74 27.31l-.08-4.41c.43-4.03.09-8.08-.95-11.99.12-8.06.1-16.15 1.19-24.15z"/><path fill="#6d5f53" d="M211.85 51.21l1.7-2.64c.08 3.84.44 7.68.33 11.53-2.79 10.33-.25 20.8 2.18 30.84.25.29.73.88.97 1.17l1.36 1.74c-.71 3.57-1.26 7.17-1.79 10.77l-4.39-.71c-3.72-.59-7.45-1.03-11.16-1.56 1.95-.07 3.89-.26 5.83-.47-2.6-1.76-5.69-1.84-8.66-1.16-5.24-2.15-5.78-8.44-7.64-13.07l.68.04c7.52.32 15.01 1.02 22.46 2.07-3.63-2.94-8.41-3.12-12.85-3.59 3.17.22 7.19.51 9.25-2.44.38-2.19.17-4.42.14-6.63-4.11 2.7-8.53 1.79-12.37-.86a34.79 34.79 0 0 0-2.5-.3c1.41-.53 2.8-1.13 4.19-1.72l6.43 1.1 4.91.74c-.06-8.04-.26-16.1.79-24.1l.14-.75z"/><path fill="#c0aa90" d="M119.31 52.46c5.35.08 10.71-.05 16.05.47-5.44.4-11.4.08-15.75 3.99l.62 2.42c4.34 1.02 8.43 3.2 9.99 7.67 4.19-1.19 4.61-6.02 5.02-9.65l6.89 1.23c-2.68.12-4.98 1.47-4.34 4.4.07 3.46.7 6.88 1.87 10.14l-5.45 3.79c2.46 2.12 4.96 4.19 7.54 6.17.93 1.46 1.8 2.96 2.67 4.46l12.19-3.25-.39-3.91c1.29.97 2.46 2.09 3.63 3.21-1.21 2.54-2.21 5.16-3.09 7.83l-6.44-3.58 3.89 5.73c-3.8-1.53-7.72-2.75-11.77-3.41-.23 1.92-.38 3.85-.51 5.78-1.4-4.29-5.23-5.56-9.34-4.15l2.49-2.19 3.13-2.06c1.02.38 2.06.71 3.1 1.05-4.45-4.11-8.62-8.93-8.83-15.32l3.45-3.14-7.63-.92c.5 3.12.76 6.46-1.08 9.23-3.07-3.31-6.7-6.02-10.49-8.47-1.98 1.9-3.6 4.12-4.82 6.57 3.59 3.04 7.1 6.34 11.47 8.25 1.48-.79 2.89-1.71 4.21-2.74-1.3 5.16-6.82 4.7-10.71 2.94-2.56-2.63-4.91-5.46-7.44-8.11.87-1.9 1.76-3.78 2.75-5.62l1.24-2.25c-3.11-3.24-7.45-4.39-11.83-4.39-.83 2.82-1.66 5.64-2.73 8.39-2.83 5.18-9.28 4.95-14.14 3.14 3-4.02 8.35-3.23 12.73-3.8-.12-4.15-.61-8.29-1.58-12.33-4.52.27-8.69 2.07-12.48 4.44-.12 3.56.8 7.55-1.42 10.67-1.58-3.5-1.79-7.36-1.6-11.14l-7.68 1.74.94 3.31-2.17-.29c-5.06-2.73-9.73 2.78-14.26 4.5 1.03 2.16 2.07 4.32 2.85 6.58l.79 3.04c-2.8-1.9-4.44-4.87-5.83-7.86-3.7 2.74-6.03 7.47-11.09 7.92l-1.23 2.85-4.46 7.37 5.11 4.63 3.83 3.4c-.57 4.66-1.24 9.31-2.21 13.91l-6.89-.23-.1 9.46c-3.27-.61-6.55-1.09-9.8-1.82 1.64-10.09 2.19-20.77 8.5-29.31l-3.7-3.28c2.64-3.8 5.42-7.5 8.16-11.22l4.73 2.17c3.12-3.36 6.39-6.59 9.93-9.51l-1.34-3.59 12.47-6.18 2.05 3.22c4.49-1.31 9.12-1.97 13.76-2.49l.85-4.49c5.73-.02 11.53.71 17.16-.69l2.24 3.22c5.06-1.7 10.38-2.26 15.65-2.88l.67-5.02m-82.1 44.76c-4.9 7.28-5.15 16.38-6.32 24.8l4.02-.3 1.87-7.95c2.64-.79 5.68-1.7 6.76-4.55-1.33-1.41-3.63-1.13-5.37-1.71l-.58-1.51c1.89-1.97 3.05-4.46 4.09-6.95l-4.47-1.83z"/><path fill="#111010" opacity=".55" d="M304.42 51.49l2.03.31-.76 4.49c.3 2.55.92 5.05 1.34 7.58l-.34.12c-.95-1.62-1.99-3.18-3.17-4.64a55.72 55.72 0 0 1-6.03 1.82c1.5-2.28 3.45-4.2 5.17-6.31l1.76-3.37z"/><path fill="#f1dcbf" d="M119.61 56.92c4.35-3.91 10.31-3.59 15.75-3.99l-.12 4.43c-.41 3.63-.83 8.46-5.02 9.65-1.56-4.47-5.65-6.65-9.99-7.67l-.62-2.42z"/><path fill="#d9c6ad" d="M198.21 60.93c-.33-7.41 13-5.75 12.24 1.03-.03 4.49 1.68 12.28-4.44 13.36l-6.43-1.1c-2.34-4.03-1.84-8.85-1.37-13.29m5.24-.61c-1.38 1.33-2.41 2.98-3.52 4.53 1.4 2.09 2.81 4.18 4.3 6.21 2.14-1.15 3.7-3.03 5.1-4.97-1.75-1.95-2.63-6.31-5.88-5.77z"/><path fill="#fffde2" d="M137.79 62.99c-.64-2.93 1.66-4.28 4.34-4.4l2.53.47c3.45 1.73 6.59 4.08 8.84 7.24-5.2-1.28-10.39-2.6-15.71-3.31z"/><path fill="#e7cfb9" d="M144.66 59.06c4.77.38 8.65 3.29 13.03 4.83l3.74.76c1.42 3.5 3.26 6.82 5.38 9.95l-4.18-1.21a129.1 129.1 0 0 0-1.59 7.53c-3.61-1.74-7.04-3.87-10.8-5.29 1.61 2.04 3.76 3.47 5.98 4.76l.39 3.91-12.19 3.25-2.67-4.46c.93.3 1.87.58 2.82.85l5.17-5.02-3.15-.83-.11-7.32c-2.54-.19-4.85.85-6.82 2.36-1.17-3.26-1.8-6.68-1.87-10.14 5.32.71 10.51 2.03 15.71 3.31-2.25-3.16-5.39-5.51-8.84-7.24z"/><path d="M189.4 85.98c4.62-8.76-3.01-19.71 4.74-27.31.39 5.86.07 11.74-.04 17.61l1.29-.34a34.79 34.79 0 0 1 2.5.3l-.07 8.67 2.28-1.46-.11 2.67c-3.02-.35-5.94.49-8.73 1.57l-.68-.04c-1.33-.16-2.65-.43-3.95-.71l2.77-.96zm56.66 7.66c11.64-8.85 14.99-23.77 23.62-35l.02 5.05 5.53.51c-6.85 2.74-10.62 9.12-14.16 15.21 1.64.84 3.33 1.58 4.93 2.51l.26.67-7.55 1.05-.58 6.02-4.29.49c1.62.85 3.26 1.67 4.84 2.58l-3.65 5.23c.79 2.31 1.5 4.66 2.49 6.91-3.6 1.56-7.39 1.28-10.56-1.08l-.73-2.93c-7-3.36-14.43-4.04-22.05-4.28-.63 2.13-1.29 4.25-2.16 6.3l-.27.67c-1.4-2.52-2.31-5.3-1.79-8.21 3.28-2.18 5.17-5.7 7.54-8.73 2.21-1.9 4.95-2.99 7.71-3.82-1.12 1.72-2.28 3.4-3.45 5.09 4.72 2.04 9.67 3.51 14.3 5.76z" fill="#807468"/><path fill="#7f7e82" d="M297.49 61.17a55.72 55.72 0 0 0 6.03-1.82c1.18 1.46 2.22 3.02 3.17 4.64-1.76.55-3.55 1-5.36 1.3l-5.53-1.6 1.69-2.52z"/><path fill="#fdead6" d="M83.4 64.47c3.79-2.37 7.96-4.17 12.48-4.44.97 4.04 1.46 8.18 1.58 12.33-4.38.57-9.73-.22-12.73 3.8a33.58 33.58 0 0 1-2.75-1.02c2.22-3.12 1.3-7.11 1.42-10.67z"/><path fill="#90887b" d="M203.45 60.32c3.25-.54 4.13 3.82 5.88 5.77-1.4 1.94-2.96 3.82-5.1 4.97l-4.3-6.21c1.11-1.55 2.14-3.2 3.52-4.53z"/><path fill="#c0ab93" d="M157.69 63.89l2.49-3.42c3.9 2.41 7.7 4.98 11.56 7.46-.3 5.33-3.81 9.54-7.98 12.53l-1.99.48-.73-.02a129.1 129.1 0 0 1 1.59-7.53l4.18 1.21c-2.12-3.13-3.96-6.45-5.38-9.95l-3.74-.76z"/><path fill="#a08f79" d="M275.23 64.2l1.65-.97 1.84 2.68c-3.98 1.89-8.16 4.15-10.46 8.06-.45 2.88-.12 5.84-.84 8.69l-1.42-.74c-1.6-.93-3.29-1.67-4.93-2.51 3.54-6.09 7.31-12.47 14.16-15.21z"/><path fill="#d6bfac" d="M72.7 65.74L80.38 64c-.19 3.78.02 7.64 1.6 11.14-1.72-1.7-3.32-3.53-4.91-5.36-.95 4.7-2.18 10.29-6.81 12.69-3.99 1.58-8.41.76-12.58.74-2.58 3.86-3.15 8.77-2.11 13.24.69 3.71 5.21 3.96 7.28 6.66 3.25-.38 6.52-.74 9.8-.53l1.62 2.03c-2.77 2.52-6.57 2.01-9.98 2.57-2.49 1.29-4.15 3.75-6.11 5.7 6.05-.61 12.37-1.3 18.04 1.44.71 5.2 5.28 7.21 10.04 7.28l-1.51 1.81c4.95.85 8.92-2.08 12.33-5.22 2.56 1.71 4.86 4.25 7.93 4.95 7.76-.33 15.66-1.89 23.32.26-1.88.21-3.73.55-5.6.78l-62.27-.47a258.75 258.75 0 0 0-.05-9.24l-4.31-1.55c2.79-6.32-.81-13.03-5.93-16.89 2.58-3 7.97-10.62.99-11.37-1.56-.37-3.07-.9-4.59-1.39-1.3.82-2.61 1.63-3.87 2.52l1.23-2.85c5.06-.45 7.39-5.18 11.09-7.92 1.39 2.99 3.03 5.96 5.83 7.86l-.79-3.04c4.48-1.11 8.95-2.61 12.49-5.7l-1.08-5.38 2.17.29-.94-3.31m-8.8 50.37c-.51 2.97 1.01 6.31 4.06 7.15 2.72.14 5.45.04 8.16-.12-.99-6.28-6.54-8.05-12.22-7.03z"/><path fill="#010101" opacity=".8" d="M291.96 69.71l3.84-6.02 5.53 1.6.47 4.33-9.84.09z"/><path fill="#fef0d2" d="M101.6 64.63c4.38 0 8.72 1.15 11.83 4.39l-1.24 2.25c-4.51-1.53-10.52-3.67-13.32 1.75 1.07-2.75 1.9-5.57 2.73-8.39z"/><path fill="#c1af97" d="M278.72 65.91c2.51 2.49 5.76 4.32 9.38 4.31-4.74 5.59-7.91 12.23-11.42 18.61-3.07-2.08-6.04-4.32-9.26-6.17.72-2.85.39-5.81.84-8.69 2.3-3.91 6.48-6.17 10.46-8.06m-6.65 8.14c.13 2.66.5 5.29 1.28 7.84 2.24-.64 4.42-1.44 6.59-2.29l-1.3-7.61c-2.29.33-4.47 1.11-6.57 2.06z"/><path fill="#fff6e3" d="M57.21 73.26c4.53-1.72 9.2-7.23 14.26-4.5a196.85 196.85 0 0 0 1.08 5.38c-3.54 3.09-8.01 4.59-12.49 5.7-.78-2.26-1.82-4.42-2.85-6.58z"/><path fill="#ab947e" d="M171.74 67.93l1.81 1.17-1.53 4.05c5.06 4.32 8.77 10.65 14.61 13.79 1.3.28 2.62.55 3.95.71 1.86 4.63 2.4 10.92 7.64 13.07l2.2 1.56c-5.93-.22-11.78-1.16-17.61-2.2-1.03-4.63.78-9.97-2.26-14-2.93-3.57-6.33-6.73-10.1-9.37-.69 4.34 2.26 7.63 5.22 10.34 1.63.81 3.38 1.34 5.13 1.82-2.6 1.29-5.13 2.69-7.64 4.14l3.12 6.12c-4.75-.1-10.39-2.68-14.42.98-3.18 3.03-6.84-1.26-10.02-2.3.11 4.39-.23 10.09 4.48 12.3l3.77-5.17 1.13 10.49c-4.38 1.75-7.09 5.47-6.64 10.31-.26 1.45-.58 2.9-.91 4.34l-.66-3.31-.49-2.41-6.49-.63 3.5-5.68.61 5.05 4.22.18c-1.16-7.7-6.23-15.19-3.79-23.1l-4.26 2.06.73 2.47c-3.98 4.49-9.96 4.8-15.24 2.69-.37 2.65.3 6.56-3.05 7.46-4.54 2.14-7.61-3.02-8.99-6.57-1.05-3.9 2.93-6.63 5.31-9.06l4.38 1.26.62-5.89c2.74 3.56 5.19 7.33 7.43 11.21l7.23-3.01c-.97-2.27-1.91-4.55-2.8-6.85.13-1.93.28-3.86.51-5.78 4.05.66 7.97 1.88 11.77 3.41l-3.89-5.73 6.44 3.58c.88-2.67 1.88-5.29 3.09-7.83-1.17-1.12-2.34-2.24-3.63-3.21-2.22-1.29-4.37-2.72-5.98-4.76 3.76 1.42 7.19 3.55 10.8 5.29l.73.02c1.78 4.92-3.69 8.56-2.8 13.36 1.38 3.98 6.29 2.91 9.46 2.24-1.35-5.55-3.74-11.54-.74-17.02l-3.93.94c4.17-2.99 7.68-7.2 7.98-12.53z"/><path d="M98.87 73.02c2.8-5.42 8.81-3.28 13.32-1.75-.99 1.84-1.88 3.72-2.75 5.62 2.53 2.65 4.88 5.48 7.44 8.11 2.12 2.42 5.04 3.81 7.96 5.01-2.48 3.11-4.9 7.49-9.49 7.19l2.4 3.75c-3.53 5.48-.24 11.55 1.56 16.98 2.52.45 5.07.83 7.64.82 2.42.02 4.85.16 7.26.45l.82-1.96c2.21.64 4.33 1.64 5.73 3.55-1.27.96-2.5 1.98-3.71 3.02-2.68-.03-5.36-.1-8.02-.34l-.7-.07c-7.66-2.15-15.56-.59-23.32-.26-3.07-.7-5.37-3.24-7.93-4.95-.32-4.13-1.98-7.97-4.66-11.1 1.62-.88 3.15-1.92 4.45-3.23-1.87.14-3.74.34-5.61.54-.13-5.28-.26-10.56-.69-15.82l-1.87 12.89-4.07.67-.67-.58c-2.67 2.43-6.17 3.16-9.69 3.05l-1.62-2.03c-2.65-3.64-7.66-3.13-11.63-3.77l-.56-3.98c-3.53-2.89-2.34-7.67-2.78-11.62 4.17.02 8.59.84 12.58-.74 4.63-2.4 5.86-7.99 6.81-12.69 1.59 1.83 3.19 3.66 4.91 5.36a33.58 33.58 0 0 0 2.75 1.02c4.86 1.81 11.31 2.04 14.14-3.14m12.84 20.03c.29 1.93.63 3.86 1.01 5.77l-2.85 4.26 2.84-.57c1.28-3.15 2.64-7.27-1-9.46m-8.24 8.35l1.69 2.75 4.32-.53c-1.79-1.25-3.9-1.8-6.01-2.22zm43.31 47.29c1.21 8.63.16 17.38.69 26.05.03 3.08-.03 6.16-.08 9.24l4.62.47c-.52 1.3-1.02 2.61-1.45 3.94-2.62-1.75-6.01-3.89-9.14-1.99-4.71 2.04-3.93 10.63 1.54 10.9 3.43 1.08 6.29-1.06 8.38-3.53 1.21 4.17 1.38 8.54.49 12.8l-5.11 1.54c-2 3.2-3.01 6.86-2.57 10.64-6.82-.07-11.87-8.42-18.92-4.62-3.18 3.16-5.69 7.41-6.56 11.83 1.07 7.83 9.16 11.1 14.22 16.08l-.48 2.23c-4 .87-8.05.24-12.07.25-5.93 1.52-10.6 6.22-12.79 11.86-5.56.06-10.86-1.77-15.95-3.81l-1.17-5.7-.62 6.4c-5.43.11-10.63 4.25-8.97 10.09l-6.03-1.86c2.53-10.07-9.04-14.54-17.09-14.82-.12-3.56-.48-7.11-1-10.64 4.15-1.66 5.8-5.55 5.79-9.8 8.98-.91 17.88.55 26.41 3.29l2.68-2.06 5.13-.77c-1.48-.93-2.91-1.92-4.41-2.81l1.53-5.37c.71-4.61 3.93-7.82 8.3-9.12l-4.51-1.14c.84-.39 1.7-.76 2.55-1.11 7.7-.02 15.39.66 23.09.11 7.21.61 14.44 1.24 21.36 3.52-1.68-1.91-3.88-3.2-6.12-4.33l-.43-2.75-.53-3.69c-7.45.28-15.04-.2-22.13-2.72l1.43-4.43-.62-1.2-5.21.49 2.72-5.62c2.71-.84 5.56-.32 8.31.05l3.27-2.87 2.9.45c3.08.72 6.04 1.9 8.98 3.04l1.45-3.28 7.93-.08c-.24-11.71-.09-23.44.19-35.15m-43.03 89.53c-1.05-3.77-.51-7.52 2.05-10.54-4.77.96-6.25 7.91-2.05 10.54z" fill="#fffffb"/><path fill="#9e8b74" d="M128.3 69.22l7.63.92-3.45 3.14c.21 6.39 4.38 11.21 8.83 15.32-1.04-.34-2.08-.67-3.1-1.05-3.29-1.76-6.66-9.86-10.62-5.49-1.32 1.03-2.73 1.95-4.21 2.74l3.84-6.35c1.84-2.77 1.58-6.11 1.08-9.23z"/><path fill="#fffbe5" d="M111.91 76.55c1.22-2.45 2.84-4.67 4.82-6.57 3.79 2.45 7.42 5.16 10.49 8.47l-3.84 6.35c-4.37-1.91-7.88-5.21-11.47-8.25z"/><path d="M139.66 73.13c1.97-1.51 4.28-2.55 6.82-2.36l.11 7.32 3.15.83-5.17 5.02-2.82-.85-7.54-6.17 5.45-3.79zm-.42 179.41c1.98-1.8 4.41-2.92 6.99-3.54.58 4.78.19 9.61-1.26 14.21-2.13-1.44-4.02-3.2-5.53-5.27l3.65-.86-.43-2.45-3.42-2.09z" fill="#fffffe"/><path fill="#040303" opacity=".4" d="M188.37 69.58c1.04 3.91 1.38 7.96.95 11.99-1.3-3.87-1.3-7.96-.95-11.99z"/><path fill="#776d62" d="M272.07 74.05c2.1-.95 4.28-1.73 6.57-2.06l1.3 7.61-6.59 2.29c-.78-2.55-1.15-5.18-1.28-7.84z"/><path fill="#b4a48e" d="M197.89 76.24c3.84 2.65 8.26 3.56 12.37.86.03 2.21.24 4.44-.14 6.63-2.06 2.95-6.08 2.66-9.25 2.44l-.88-.05.11-2.67-2.28 1.46.07-8.67z"/><path fill="#fff5d4" d="M170.45 76.71c3.77 2.64 7.17 5.8 10.1 9.37l-4.88.97c-2.96-2.71-5.91-6-5.22-10.34z"/><path fill="#74614e" d="M163.76 80.46l3.93-.94c-3 5.48-.61 11.47.74 17.02-3.17.67-8.08 1.74-9.46-2.24-.89-4.8 4.58-8.44 2.8-13.36l1.99-.48z"/><path fill="#9e9fa6" d="M355.45 80.58l3.43-1.59c4 2.62 7.07 6.49 7.03 11.48-3.32-.64-6.71-.7-10.07-.61l.74-.32 5.78-2.48c-1.27-1.56-3.21-1.73-5.06-1.82l-1.85-4.66z"/><path fill="#fff6d7" d="M127.59 82.06c3.96-4.37 7.33 3.73 10.62 5.49l-3.13 2.06c-6.18 2.97-12.93 5.87-17.33 11.34l-2.4-3.75c4.59.3 7.01-4.08 9.49-7.19-2.92-1.2-5.84-2.59-7.96-5.01 3.89 1.76 9.41 2.22 10.71-2.94z"/><path fill="#5e513e" d="M232.1 80.77c4.55 2 9.04 4.15 13.47 6.41l.49 6.46c-4.63-2.25-9.58-3.72-14.3-5.76l3.45-5.09c-2.76.83-5.5 1.92-7.71 3.82l4.6-5.84z"/><path fill="#909095" d="M348.35 82.51l2.89-.36 1.86 3.94-2.91 3.81 1.11 2 1.21 2.15-3.85 1.65-1.48-4.13-.29-1.01-.27-.96 1.73-7.09z"/><path fill="#fff1d5" d="M42.7 85.79l3.87-2.52 4.59 1.39 1.8 2.44c-2.13 3.71-4.52 7.27-7.18 10.62l-2.43.07-5.11-4.63 4.46-7.37z"/><path fill="#bca991" d="M258.71 83.64l7.55-1.05c.43 4.46 3.77 6.83 8.11 6.32l.82 1.98c-1.81 2.48-4.09 4.61-7.09 5.51-3.27-2.33-6.61-4.55-9.97-6.74l.58-6.02z"/><path fill="#aa927a" d="M51.16 84.66c6.98.75 1.59 8.37-.99 11.37 5.12 3.86 8.72 10.57 5.93 16.89l4.31 1.55a258.75 258.75 0 0 1 .05 9.24l-2.15.39c.19-2.92.32-5.84.37-8.76a62.36 62.36 0 0 1-3.35.01c-3.2 0-6.39-.11-9.58-.22l-.78-.03c.97-4.6 1.64-9.25 2.21-13.91l-3.83-3.4 2.43-.07c2.66-3.35 5.05-6.91 7.18-10.62l-1.8-2.44m-2.42 24.98l7.2-1.13-3-8.64c-3.71 1.66-5.56 5.92-4.2 9.77z"/><path fill="#fee9c8" d="M55.57 96.45c-1.04-4.47-.47-9.38 2.11-13.24.44 3.95-.75 8.73 2.78 11.62l.56 3.98c3.97.64 8.98.13 11.63 3.77-3.28-.21-6.55.15-9.8.53-2.07-2.7-6.59-2.95-7.28-6.66z"/><path fill="#d4bfa4" d="M175.67 87.05l4.88-.97c3.04 4.03 1.23 9.37 2.26 14l.1 2.78c-2.46-1.87-5.37-2.86-8.45-3.02 1.31 2.66 2.34 5.44 3.07 8.31l1.69-.84c2.01 2.42 3.76 5.28 6.6 6.81 3.56.81 7.64-.96 8.45-4.78 5.45-2.83 11.75-3.76 17.27-.53l1.81-3.32-1.14-1.58 4.39.71 1.23 2.26-3.84.6c1.8 6.23-5.03 8.12-8.08 12.09-1.63 2.16-3.31 4.34-5.49 5.99-1.73.98-3.55 1.8-5.34 2.66l-5.37-9.35c-2.88 2.58-7.93 5.05-7 9.65.89 5.94-1.38 11.74-1.4 17.68l-.44-3.01-2.23 1.53c-1.01 6.23-5.3 11-5.25 17.61-6.44 2.16-13.37 1.11-20.03 1.5l.1-3.92 1.65 3.24c5.84.23 15.88 1.73 17.42-5.92 1.14-3.76-3.03-4.2-5.69-4.59 2.84-1.34 6.93-2.01 7.94-5.45 3.05-8.73-4.27-17.7-.37-26.25-1.52 1.24-3.08 2.45-4.63 3.66-2.15-3.4-3.87-7.06-5.02-10.92l6.86 1.26-1.45-1.78c3.08-.01 6.17-.05 9.26-.19-2.29-1.68-4.83-4.39-7.95-3.43-3.66 1.51-6.79 4.01-10.26 5.89-.43-3.49-.79-6.99-1.13-10.49l-3.77 5.17c-4.71-2.21-4.37-7.91-4.48-12.3 3.18 1.04 6.84 5.33 10.02 2.3 4.03-3.66 9.67-1.08 14.42-.98l-3.12-6.12c2.51-1.45 5.04-2.85 7.64-4.14-1.75-.48-3.5-1.01-5.13-1.82m18.32 29.02c3.4 1.92 7.37 1.82 11.14 1.67-2.87-2.86-8.02-5.86-11.14-1.67m-19.35 7.68c3.8.09 7.68-.41 10.29-3.47-4.2-1.7-8.05-.45-10.29 3.47z"/><path fill="#3b332c" d="M191.26 87.69c2.79-1.08 5.71-1.92 8.73-1.57l.88.05c4.44.47 9.22.65 12.85 3.59-7.45-1.05-14.94-1.75-22.46-2.07z"/><path fill="#232222" opacity=".73" d="M353.1 86.09l3.48 3.45-.74.32-3.48 1.58-1.06.46-1.11-2 2.91-3.81z"/><path fill="#d3c1b4" d="M88.7 101.47l1.87-12.89c.43 5.26.56 10.54.69 15.82-2.53.53-5.1-.02-6.63-2.26l4.07-.67z"/><path fill="#c8b59f" d="M355.84 89.86c3.36-.09 6.75-.03 10.07.61 1.95 1.26 3.82 2.65 5.71 4.03-.3 4.51.68 8.97 3.21 12.77l-6.37 3.34c-1.16-8.78-6.28-18.43-16.1-19.17l3.48-1.58z"/><path fill="#948b8d" d="M371.47 90.83c3.97-1.88 8.35-1.72 12.53-.7v3.7c-1.41.64-2.84 1.22-4.25 1.81l-2.04-3.09-2.53.75 3.49 10.6 2.53-.81.02-3.55L384 98v7.55c-2.52 1.6-5.46 2.2-8.39 2.38-2.89 5.58 2.19 11.57-1.18 17.19l-3.22.73-1.5-4.5c1.23-1.23 2.35-2.57 3.16-4.13l-2.89.54c-1.69-2.06-1.6-4.66-1.52-7.15l6.37-3.34c-2.53-3.8-3.51-8.26-3.21-12.77l-.15-3.67z"/><path fill="#ead1bb" d="M117.75 100.95c4.4-5.47 11.15-8.37 17.33-11.34l-2.49 2.19c4.11-1.41 7.94-.14 9.34 4.15.89 2.3 1.83 4.58 2.8 6.85l-7.23 3.01c-2.24-3.88-4.69-7.65-7.43-11.21l-.62 5.89-4.38-1.26c-2.38 2.43-6.36 5.16-5.31 9.06 1.38 3.55 4.45 8.71 8.99 6.57 3.35-.9 2.68-4.81 3.05-7.46 5.28 2.11 11.26 1.8 15.24-2.69 1.25 4.36 1.91 8.85 2.49 13.34l-3.5 5.68 6.49.63.49 2.41c-5.26-2.57-10.65-.14-16.01.37l.05-3.33c1.21-1.04 2.44-2.06 3.71-3.02 5.13-.46 6.16-6.6 3.18-9.88-7.31-3.91-10.76 6.11-16.99 7.84-2.57.01-5.12-.37-7.64-.82-1.8-5.43-5.09-11.5-1.56-16.98z"/><path fill="#413831" d="M253.84 90.15l4.29-.49c3.36 2.19 6.7 4.41 9.97 6.74 2.2 1.39 3.88 3.4 4.73 5.87-1.28-.75-2.55-1.51-3.78-2.33-3.47-2.38-6.75-5.03-10.37-7.21-1.58-.91-3.22-1.73-4.84-2.58z"/><path fill="#88745e" d="M268.1 96.4c3-.9 5.28-3.03 7.09-5.51l1.38 3.35c-.66 3.43-1.07 6.95-2.49 10.18l.56 3.39c-2.27 2.89-3.95 6.6-7.46 8.19-2.09-.8-4.11-1.77-6.04-2.89 3.21-2.74 5.75-6.14 7.56-9.95l-1.37-1.14 1.72-2.08c1.23.82 2.5 1.58 3.78 2.33-.85-2.47-2.53-4.48-4.73-5.87z"/><path fill="#433f3f" d="M351.3 91.9l1.06-.46c9.82.74 14.94 10.39 16.1 19.17-.08 2.49-.17 5.09 1.52 7.15l-2.16.9c-2.22.65-4.51.95-6.8 1.23 1.67-2.05 3.41-4.05 5.01-6.17.44-7.06-3.9-19.99-13.69-16.58l.88-1.8-.71-1.29-1.21-2.15z"/><path fill="#b9a490" d="M255.03 97.96l3.65-5.23c3.62 2.18 6.9 4.83 10.37 7.21l-1.72 2.08 1.37 1.14c-1.81 3.81-4.35 7.21-7.56 9.95l-1.81-1.08.9-3.72c-.92-1.14-1.86-2.26-2.71-3.44-.99-2.25-1.7-4.6-2.49-6.91z"/><path fill="#c0aa96" d="M111.71 93.05c3.64 2.19 2.28 6.31 1 9.46l-2.84.57 2.85-4.26-1.01-5.77z"/><path fill="#fce7cc" d="M224.18 96.58c7.62.24 15.05.92 22.05 4.28l.73 2.93.33 1.3-1.39.67c-7.12-1.88-14.44-2.23-21.7-3.12l-.02-6.06z"/><path fill="#fbe3c9" d="M37.21 97.22l4.47 1.83c-1.04 2.49-2.2 4.98-4.09 6.95l.58 1.51c1.74.58 4.04.3 5.37 1.71-1.08 2.85-4.12 3.76-6.76 4.55l-1.87 7.95-4.02.3c1.17-8.42 1.42-17.52 6.32-24.8z"/><path fill="#928784" d="M222.02 102.88c.87-2.05 1.53-4.17 2.16-6.3l.02 6.06c7.26.89 14.58 1.24 21.7 3.12-4.59 2.88-10.08.84-15.06.5-3.19-.35-6.15-1.64-8.82-3.38z"/><path fill="#e6d0b8" d="M342.07 101.2c3.42-1.35 6.78-2.87 10.27-4.06 9.79-3.41 14.13 9.52 13.69 16.58-7.1 2.8-13.87 6.36-20.99 9.11-1.85-5.83-2.74-12.54-7.91-16.54 1.19-1.56 2.39-3.11 3.68-4.58l1.26-.51z"/><path fill="#87745e" d="M48.74 109.64c-1.36-3.85.49-8.11 4.2-9.77l3 8.64-7.2 1.13z"/><path fill="#605345" d="M146.31 102.24l4.26-2.06c-2.44 7.91 2.63 15.4 3.79 23.1l-4.22-.18-.61-5.05c-.58-4.49-1.24-8.98-2.49-13.34l-.73-2.47z"/><path fill="#f8e4c2" d="M174.46 99.84c3.08.16 5.99 1.15 8.45 3.02l-.1-2.78c5.83 1.04 11.68 1.98 17.61 2.2l.63.07 11.16 1.56 1.14 1.58-1.81 3.32c-5.52-3.23-11.82-2.3-17.27.53-.81 3.82-4.89 5.59-8.45 4.78-2.84-1.53-4.59-4.39-6.6-6.81l-1.69.84c-.73-2.87-1.76-5.65-3.07-8.31z"/><path fill="#2b2522" d="M198.22 100.72c2.97-.68 6.06-.6 8.66 1.16l-5.83.47-.63-.07-2.2-1.56z"/><path fill="#fffae6" d="M74.27 104.61c3.52.11 7.02-.62 9.69-3.05l.67.58c1.53 2.24 4.1 2.79 6.63 2.26l5.61-.54c-1.3 1.31-2.83 2.35-4.45 3.23 2.68 3.13 4.34 6.97 4.66 11.1-3.41 3.14-7.38 6.07-12.33 5.22l1.51-1.81c2.93-2.57 4.99-7.3 1.53-10.38-3.75-3.97-9.75-1.53-11.57 3.1-5.67-2.74-11.99-2.05-18.04-1.44 1.96-1.95 3.62-4.41 6.11-5.7 3.41-.56 7.21-.05 9.98-2.57m13.02 1.47c-2.59 1.32 1.29 3.56 2.47 1.72.96-1.45-1.41-2.41-2.47-1.72z"/><path fill="#cfb8a3" d="M103.47 101.4c2.11.42 4.22.97 6.01 2.22l-4.32.53-1.69-2.75z"/><path fill="#7f7162" d="M331.75 105.13l9.06-3.42-3.68 4.58c5.17 4 6.06 10.71 7.91 16.54 7.12-2.75 13.89-6.31 20.99-9.11-1.6 2.12-3.34 4.12-5.01 6.17l.33 2.78 4.15.02 1.96 4.65-3.52 1.51c-1.4-1.07-2.82-2.13-4.16-3.27-1.26-1.28-2.39-2.68-3.54-4.05l-6.97 3c-9.32 5.1-21.32 5.87-28.79 13.85l-3.48-1 .95-4.04 7.26-3.88-1.97-2.68 3.09-.58c.54.94 1.13 1.85 1.72 2.77 5.11-1.65 10.05-3.8 14.78-6.35-.25-5.21-1.3-12.16-6.84-14.11-9.3.56-17.3 6.24-25.92 9.32l-1.51.61c-1.63-1.26-3.52-2.15-5.38-2.99 5.43-1.23 11.76.01 16.31-3.87 3.62-2.96 8.06-4.52 12.26-6.45z"/><path fill="#483b2e" d="M221.75 103.55l.27-.67c2.67 1.74 5.63 3.03 8.82 3.38l1.28 1.66-.32 3.43-.23 1.98c-4.88-.58-7.07-5.4-10.51-8.21l.69-1.57z"/><path fill="#473d34" d="M246.96 103.79c3.17 2.36 6.96 2.64 10.56 1.08.85 1.18 1.79 2.3 2.71 3.44l-.9 3.72 1.81 1.08c1.93 1.12 3.95 2.09 6.04 2.89-4.62 2.41-6.26 7.98-10.45 11-2.25.1-4.38-.59-6.18-1.92 1.41-1.46 2.83-2.92 4.16-4.45 1.6-1.86 3.15-3.77 4.71-5.67-3.65-3.18-7.68-5.86-11.77-8.44l-.36-1.43-.33-1.3z"/><path fill="#b3a088" d="M216.6 104.62l2.24.24c2.92 5.31 2.79 12.02 8.1 15.94l-2.17 3.01-1.98 2.72c5.73-2.73 12.13-1.96 18.24-1.47-1.93.34-3.84.77-5.75 1.18-2.98 6.53-1.45 13.71.54 20.27a74.85 74.85 0 0 1-2.08.33c-.83-4.71-3.81-8.68-4.61-13.41-.22-2.11-2.35-2.98-3.84-4.09l-5.65 3.57-.42-3.72-3.59 1.94c-1.3-2.35-2.59-4.69-3.74-7.11l-1.57-3.43-4.41-1.02c3.05-3.97 9.88-5.86 8.08-12.09l3.84-.6-1.23-2.26m-4.77 15.86c4.12-.09 8.23-.14 12.35-.02l-3.6-4.21c-3.46.02-6.5 1.69-8.75 4.23z"/><path fill="#746451" d="M218.84 104.86l2.22.26c3.44 2.81 5.63 7.63 10.51 8.21l.23-1.98c2.84 2.77 7.29 3.11 9.11-.98-3.44 1.76-7.05 1.27-8.79-2.45l-1.28-1.66c4.98.34 10.47 2.38 15.06-.5l1.39-.67.36 1.43c-3.16 3.97-3.63 9.08-3.46 13.97-5.73.73-11.51.61-17.25.31-5.31-3.92-5.18-10.63-8.1-15.94z"/><path fill="#b7a696" d="M87.29 106.08c1.06-.69 3.43.27 2.47 1.72-1.18 1.84-5.06-.4-2.47-1.72z"/><path fill="#8c7a63" d="M244.19 120.49c-.17-4.89.3-10 3.46-13.97 4.09 2.58 8.12 5.26 11.77 8.44l-4.71 5.67c-2.22-1.54-4.3-3.26-6.24-5.13l-.4 4.25-3.88.74z"/><path fill="#b0aab2" d="M232.12 107.92c1.74 3.72 5.35 4.21 8.79 2.45-1.82 4.09-6.27 3.75-9.11.98l.32-3.43z"/><path fill="#837365" d="M76.22 114.32c1.82-4.63 7.82-7.07 11.57-3.1 3.46 3.08 1.4 7.81-1.53 10.38-4.76-.07-9.33-2.08-10.04-7.28m3.93 3.12l3.97 1.39c1.7-1.96 1.59-4.5.81-6.83-3.19.11-5.24 2.23-4.78 5.44z"/><path d="M171.48 109.54c3.12-.96 5.66 1.75 7.95 3.43l-9.26.19 1.45 1.78-6.86-1.26c1.15 3.86 2.87 7.52 5.02 10.92l4.63-3.66c-3.9 8.55 3.42 17.52.37 26.25-1.01 3.44-5.1 4.11-7.94 5.45 2.66.39 6.83.83 5.69 4.59-1.54 7.65-11.58 6.15-17.42 5.92l-1.65-3.24-.04-.7c3.54-1.81 7.11-3.57 10.73-5.22l-7.9.67c-.81-1.99-1.65-3.97-2.35-6 1.67-6.08-1.62-13 2.17-18.45l-1.49-4.47c-.45-4.84 2.26-8.56 6.64-10.31 3.47-1.88 6.6-4.38 10.26-5.89zm-133.4 5.33l6.89.23.78.03.69 3.06c3.35.66 6.43-.59 8.89-2.84l3.35-.01-.37 8.76c-6.01 1.06-12.14.33-18.2.65l-2.13-.42.1-9.46zm190.44 49.12c.42-4.46-4.3-7.51-3.56-11.93 8.06 7.47 7.39 20.42-.31 27.87l-.89-1.78c2.65-4.28 5.57-8.86 4.76-14.16zM37.93 206.84l2.74-.64 17.14.02.96.69c-.15 2.78-.52 5.54-.87 8.31l-9.19-.05-2.78.02-7.81.09-.19-8.44zm156.17 7.89c3.22-.67 6.5-1.08 9.79-1.1l-1.54 3.8c-2.54.4-5.13.34-7.64-.15l-.61-2.55z" fill="#fff"/><path fill="#dcc6ac" d="M310.07 117.83c8.62-3.08 16.62-8.76 25.92-9.32 5.54 1.95 6.59 8.9 6.84 14.11-4.73 2.55-9.67 4.7-14.78 6.35-.59-.92-1.18-1.83-1.72-2.77-1.38-3.3-2.6-6.67-4.27-9.85-.01 3.49-1.25 7.43 1.18 10.43.64.9 1.3 1.79 1.97 2.68l-7.26 3.88c-2.37-5.29-4.08-11.01-7.88-15.51m21.47-1.65c-1 1.94-2.09 3.84-2.84 5.89 1.16 2.17 4.24 1.79 6.31 2.53 1.06-2.06 2.59-3.99 2.9-6.35-1.24-2.26-4.23-1.54-6.37-2.07z"/><path fill="#fde7ce" d="M126.95 118.75c6.23-1.73 9.68-11.75 16.99-7.84 2.98 3.28 1.95 9.42-3.18 9.88-1.4-1.91-3.52-2.91-5.73-3.55l-.82 1.96c-2.41-.29-4.84-.43-7.26-.45z"/><path fill="#fff4db" d="M80.15 117.44c-.46-3.21 1.59-5.33 4.78-5.44.78 2.33.89 4.87-.81 6.83l-3.97-1.39z"/><path fill="#fefefe" d="M193.99 116.07c3.12-4.19 8.27-1.19 11.14 1.67-3.77.15-7.74.25-11.14-1.67z"/><path fill="#dbd7dc" d="M45.75 115.13l9.58.22c-2.46 2.25-5.54 3.5-8.89 2.84l-.69-3.06z"/><path fill="#685847" d="M248.47 115.5c1.94 1.87 4.02 3.59 6.24 5.13l-4.16 4.45c-2.95-.19-5.9-.11-8.84-.02h-.68c-6.11-.49-12.51-1.26-18.24 1.47l1.98-2.72c6.32.51 12.67.74 19.01.22l.41-3.54 3.88-.74.4-4.25z"/><path fill="#f6dfcc" d="M63.9 116.11c5.68-1.02 11.23.75 12.22 7.03-2.71.16-5.44.26-8.16.12-3.05-.84-4.57-4.18-4.06-7.15z"/><path fill="#fdfdfe" d="M211.83 120.48c2.25-2.54 5.29-4.21 8.75-4.23l3.6 4.21c-4.12-.12-8.23-.07-12.35.02z"/><path fill="#e7d1ba" d="M294.43 118.71l8.75-3.26c1.86.84 3.75 1.73 5.38 2.99 3.27 5.02 4.45 10.96 6.55 16.48-3.53 1.92-6.8 7.16-11.26 4.63-.15-1.3-.27-2.61-.49-3.9-.43-1.82-.94-3.6-1.43-5.4l-4.9-.63c-1.26-3.53-2.3-7.16-2.6-10.91z"/><path fill="#877e70" d="M331.54 116.18c2.14.53 5.13-.19 6.37 2.07-.31 2.36-1.84 4.29-2.9 6.35-2.07-.74-5.15-.36-6.31-2.53.75-2.05 1.84-3.95 2.84-5.89z"/><path fill="#231e19" d="M322.06 116.35c1.67 3.18 2.89 6.55 4.27 9.85l-3.09.58c-2.43-3-1.19-6.94-1.18-10.43z"/><path fill="#52473e" d="M308.56 118.44l1.51-.61c3.8 4.5 5.51 10.22 7.88 15.51l-.95 4.04-.72-.26c-.41-.73-.8-1.46-1.17-2.2-2.1-5.52-3.28-11.46-6.55-16.48z"/><path d="M182.71 128.52c-.93-4.6 4.12-7.07 7-9.65l5.37 9.35c4.14 6.53 4 14.51 4.4 21.94l-5.44 3.2 3.55 2.04c-1.36 2.31-2.76 4.6-4.2 6.87-4.85 2.12-10.17 2.51-15.39 2.13.93-6.1 3.22-11.97 3.31-18.2.02-5.94 2.29-11.74 1.4-17.68zm-28.7 39.42c4.25-.3 8.53-.56 12.79-.21 4.6 2.36 9.58 6.07 8.66 11.96l-6.44-.74c7.38 3.74 7.07 12.88 4.68 19.61-.11 6.76-5.32 11.29-8.13 16.97a121.88 121.88 0 0 0-6.01-.54c-1.68-5.41-5.25-10.2-5.76-15.96-.75-6.27 2.29-12.64-.19-18.74l-.49-3.9c.22-2.82.58-5.63.89-8.45zm46.95.67c7.05-3.2 18.04.77 16.86 9.74l4.66.53.94 3.25-.83 2.01-.7 2.4c-1.48 5.54-2.11 11.27-2.1 17l-.05.39c-1.38-1.08-2.68-2.28-4-3.44l-4.87 8.09-3.65-.27c-.34-1.12-.63-2.25-.92-3.38-1.84-5.46-2.43-11.19-2.31-16.93.19-4.85-2.05-10.23 1.14-14.53l-4.17-4.86zm-90.02 86.52c2.53-4.89 8.64-5.03 13.2-6.89 4.57 6.39-4 9.83-8.31 12.71-1.59-1.98-3.21-3.93-4.89-5.82z" fill="#fffffd"/><path fill="#524a3f" d="M271.64 126.02c7.75-1.95 15.16-4.99 22.79-7.31.3 3.75 1.34 7.38 2.6 10.91l4.9.63 1.43 5.4c-4.72 2.84-9.82-1.36-8.92-6.51-.45-2.01-1.2-4.57-3.65-4.81-5.97-.63-11.37 4.1-17.43 2.3-.43-.16-1.29-.46-1.72-.61z"/><path fill="#030303" opacity=".78" d="M361.02 119.89c2.29-.28 4.58-.58 6.8-1.23l-.36 8.68-1.96-4.65-4.15-.02-.33-2.78z"/><path fill="#16110d" d="M174.64 123.75c2.24-3.92 6.09-5.17 10.29-3.47-2.61 3.06-6.49 3.56-10.29 3.47z"/><path fill="#746456" d="M205.91 119.57l4.41 1.02c-4.25 1.87-5.23 7.97-10.23 8.27l.33-3.3c2.18-1.65 3.86-3.83 5.49-5.99z"/><path fill="#221d19" d="M226.94 120.8c5.74.3 11.52.42 17.25-.31l-.41 3.54c-6.34.52-12.69.29-19.01-.22l2.17-3.01z"/><path fill="#eed1b5" d="M200.09 128.86c5-.3 5.98-6.4 10.23-8.27l1.57 3.43-6.92 3.08c.12 2.6.39 5.21 1.21 7.71l-2.01 2.28-.66-1.49-2.33-.61c.52 5.4 1.66 10.74 1.51 16.19l-3.33 1.23c.27 3.35-1.22 6.39-3.44 8.8-.84.37-1.68.72-2.53 1.06 1.44-2.27 2.84-4.56 4.2-6.87l-3.55-2.04 5.44-3.2c-.4-7.43-.26-15.41-4.4-21.94 1.79-.86 3.61-1.68 5.34-2.66l-.33 3.3z"/><path opacity=".8" d="M349.27 124.53l6.97-3 3.54 4.05-.12 5.52c-4.42-.32-7.4-3.74-10.39-6.57z"/><path fill="#3f3732" d="M58.31 124.1l2.15-.39 62.27.47c-2.35 2.84-6.18 2.25-9.44 2.3-9.04-.03-18.08-.02-27.1-.6l-4.23-.06c-6.38.38-13.01-1.14-19.16 1.19l-2.93-.13c-6.54-1.24-13.64.91-19.76-2.13 6.06-.32 12.19.41 18.2-.65z"/><path fill="#a38d78" d="M122.73 124.18l5.6-.78.7.07.47 1.95c-8.55 1.47-16.67 5.64-25.55 5.07-5.47-.71-8.66 4.8-13.78 5.61l-.96-5.15-6.35-2.97 3.33-2.1c9.02.58 18.06.57 27.1.6 3.26-.05 7.09.54 9.44-2.3z"/><path fill="#c9b39a" d="M129.03 123.47l8.02.34-.05 3.33c-10.72-2.13-18.58 6.92-28.61 7.84-.25 3.07-.52 6.15-.91 9.22-1.83 1.21-3.65 2.5-5.16 4.11-.17.03-.52.08-.69.11l-3.53-.94 3.15-3.04c-3.23-1.62-5.71-4.44-8.98-5.96-3.75-.2-7.09 2.04-10.48 3.35-.14-5.34-.02-10.68.17-16.01l4.23.06-3.33 2.1 6.35 2.97.96 5.15c5.12-.81 8.31-6.32 13.78-5.61 8.88.57 17-3.6 25.55-5.07l-.47-1.95m-28.62 10.94c-1.87 2.95.47 6.08 1.5 8.86l4.01.51-1.84-2.67 2.86-.65a163.06 163.06 0 0 0-.47-6.97c-2.04.04-4.21-.11-6.06.92z"/><path fill="#fffffc" d="M204.97 127.1l6.92-3.08 3.74 7.11 3.59-1.94.42 3.72c.42 4.46 1.65 8.78 2.86 13.07.56 3.32.37 6.72-.35 9.99-2.36 2.98-5.63 5.08-9.24 6.22-3.53.82-7.17.97-10.78 1.01 2.33-5.69 9.48-6.23 14.14-9.3-4.13.38-11.02 5.38-12.7-.99.69-5.24.88-10.54.6-15.82l2.01-2.28c-.82-2.5-1.09-5.11-1.21-7.71z"/><path fill="#b8a389" d="M273.36 126.63c6.06 1.8 11.46-2.93 17.43-2.3 2.45.24 3.2 2.8 3.65 4.81-2.24.56-4.49 1.05-6.7 1.7-.08.14-.22.42-.3.56-2.15 5.5-7.38 10.33-6.23 16.66.28 3.3.4 6.6.42 9.9-3.65.14-7.3.16-10.95-.03a149.43 149.43 0 0 0-13.88-.06c6.71-3.06 13.8-.7 20.78-.82l-.34-2.59-.14-1.14 4 1.46-2.61-7.23c-7.11-1.5-14.34-2.34-21.6-2.56l5.04 2.56c-2.41 1.38-4.82 2.83-6.79 4.81l-1.34-5-3.35 1.12-.41-2.38a93.69 93.69 0 0 1 1.04-4.08l6-.51-5.72-2.07-.84-11.56c-2.95-.87-5.87-1.87-8.81-2.82 2.94-.09 5.89-.17 8.84.02 1.8 1.33 3.93 2.02 6.18 1.92l14.26-.81c-6.17 2.03-12.76 1.04-19.09 2.19 2.46 3.2 3.99 6.98 3.99 11.05 7.15 1.49 14.44.82 21.66.28-1.3-3.37-2.52-6.77-3.72-10.18a166.25 166.25 0 0 0 5.46 1.26c-1.68-1.77-3.63-3.3-5.93-4.16z"/><path fill="#fff0d3" d="M137 127.14c5.36-.51 10.75-2.94 16.01-.37l.66 3.31c.33-1.44.65-2.89.91-4.34.47 1.5.99 2.98 1.49 4.47-3.79 5.45-.5 12.37-2.17 18.45l-.4-1.12-.49-1.55c-3.51 1.16-7.2 1.55-10.88 1.45l-2.84-.9-.31-4.19c2.76 2.31 6.84 3.53 10.16 1.75 4.38-3.06 1.99-10.68-3.19-11.11-2.79-.66-5.07 1.29-7.12 2.85l-.18-6.4c-4.1-.18-8.29-.29-12.22 1.1l2.04 5.11c-3.58 1.86-6.45-.92-8.84-3.28l-.22 2.26 4.1 3.77-9.68.3 1.43 2.71c4.48-1.14 8.01.61 9.07 5.21-1.75.28-3.5.65-5.26.89l-2.38-.21c-2.37-.19-4.75-.22-7.11.01-2.43.29-4.84.67-7.26 1 1.51-1.61 3.33-2.9 5.16-4.11.39-3.07.66-6.15.91-9.22 10.03-.92 17.89-9.97 28.61-7.84z"/><path fill="#87725c" d="M241.03 125.06h.68l8.81 2.82.84 11.56 5.72 2.07-6 .51a93.69 93.69 0 0 0-1.04 4.08c-4.73-.61-9.54-.52-14.22.41-1.99-6.56-3.52-13.74-.54-20.27l5.75-1.18z"/><path fill="#96806d" d="M62.8 127.01c6.15-2.33 12.78-.81 19.16-1.19-.19 5.33-.31 10.67-.17 16.01 3.39-1.31 6.73-3.55 10.48-3.35 3.27 1.52 5.75 4.34 8.98 5.96-1.07.98-2.11 2.01-3.15 3.04l-.64-.12c-6.01-.77-12.03.3-18.04.47l-.6 9.44-1.14.05-2.28-.14.04-9.2c3.66-.54 7.36-.76 11.06-.84l-5.01-2.68-.16-7.1c-.13-2.98-.41-5.95-.69-8.92-5.98.21-12.09.57-17.84-1.43z"/><path fill="#e7cfb0" d="M270.99 126.19l.65-.17 1.72.61c2.3.86 4.25 2.39 5.93 4.16l-5.46-1.26 3.72 10.18c-7.22.54-14.51 1.21-21.66-.28 0-4.07-1.53-7.85-3.99-11.05 6.33-1.15 12.92-.16 19.09-2.19z"/><path opacity=".88" d="M59.87 126.88l2.93.13c5.75 2 11.86 1.64 17.84 1.43.28 2.97.56 5.94.69 8.92-6.8.28-13.69.13-20.3-1.67l-2.25-.64 1.09-8.17z"/><path fill="#ffffef" d="M126.43 130.54c3.93-1.39 8.12-1.28 12.22-1.1l.18 6.4.15 6.51c.07 1.4.19 2.79.31 4.19-1.2-.45-2.38-.94-3.56-1.42l-.88 1.78c-3.5-.27-7.01-.6-10.52-.28-1.06-4.6-4.59-6.35-9.07-5.21l-1.43-2.71 9.68-.3-4.1-3.77.22-2.26c2.39 2.36 5.26 5.14 8.84 3.28l-2.04-5.11z"/><path fill="#dec4a7" d="M225.29 129.34c1.49 1.11 3.62 1.98 3.84 4.09.8 4.73 3.78 8.7 4.61 13.41-2.9.41-5.81.44-8.72.36l-.64-2.53-1.88 1.31c-1.21-4.29-2.44-8.61-2.86-13.07l5.65-3.57z"/><path fill="#92857d" d="M294.44 129.14c-.9 5.15 4.2 9.35 8.92 6.51.22 1.29.34 2.6.49 3.9 4.46 2.53 7.73-2.71 11.26-4.63.37.74.76 1.47 1.17 2.2l.72.26c1.15.36 2.31.68 3.48 1-1.28.9-2.6 1.73-3.93 2.54l-1.34 3.26c-4.83 1.62-9.6 3.6-14.7 4.22-2.92-.83-5.93-1.33-8.94-1.65-3.01-4.57-4.54-9.86-4.13-15.35.08-.14.22-.42.3-.56 2.21-.65 4.46-1.14 6.7-1.7m-3.6 12.04l-.35 3.17c5.2 1.07 10.52 1.71 15.83 1.14l.52-2.03c-5.19-1.55-10.6-2.08-16-2.28z"/><path fill="#41352b" d="M287.44 131.4c-.41 5.49 1.12 10.78 4.13 15.35.71 2.13 1.25 4.31 1.8 6.48 2.82-.22 5.62-.69 8.46-.65 1.54 1.74 2.28 4.01 3.34 6.05l-5.65 1.72c-6.08.74-12.19-.22-18.29-.18l.16 2.24-2.69-.47a93.99 93.99 0 0 0-1.6 3.17l-.5-2.18-.48-1.9-4.34-1.01-1.1-2.09c3.65.19 7.3.17 10.95.03-.02-3.3-.14-6.6-.42-9.9-1.15-6.33 4.08-11.16 6.23-16.66m-.91 26.39c3.87.29 8.14 1.69 11.77-.37-3.51-1.54-9.5-4.31-11.77.37z"/><path fill="#f1d9c3" d="M100.41 134.41c1.85-1.03 4.02-.88 6.06-.92l.47 6.97-2.86.65 1.84 2.67-4.01-.51c-1.03-2.78-3.37-5.91-1.5-8.86z"/><path fill="#918273" d="M138.83 135.84c2.05-1.56 4.33-3.51 7.12-2.85 5.18.43 7.57 8.05 3.19 11.11-3.32 1.78-7.4.56-10.16-1.75l-.15-6.51m4.33 5.92l3.67-.03c.61-1.98 1.35-5.5-1.84-5.3-3.34-.34-2.53 3.31-1.83 5.33z"/><path fill="#b09a8d" d="M201.18 134.99l2.33.61.66 1.49c.28 5.28.09 10.58-.6 15.82-1 3.9-2.19 7.75-3.09 11.67l-2.2-.09 1.86-5-4.22 1.72c2.22-2.41 3.71-5.45 3.44-8.8l3.33-1.23c.15-5.45-.99-10.79-1.51-16.19z"/><path d="M143.16 141.76c-.7-2.02-1.51-5.67 1.83-5.33 3.19-.2 2.45 3.32 1.84 5.3l-3.67.03zm-.37 52.75c-3.71-4 2.44-8.72 5.01-3.72l-1.66 3.78-3.35-.06z" fill="#fffffa"/><path fill="#f6dec6" d="M290.84 141.18c5.4.2 10.81.73 16 2.28l-.52 2.03c-5.31.57-10.63-.07-15.83-1.14l.35-3.17z"/><path fill="#927e6b" d="M178.64 144.72l2.23-1.53.44 3.01c-.09 6.23-2.38 12.1-3.31 18.2 5.22.38 10.54-.01 15.39-2.13.85-.34 1.69-.69 2.53-1.06l4.22-1.72-1.86 5 2.2.09 11.47.38 8.14.01 2.06-9c.72-3.27.91-6.67.35-9.99l1.88-1.31.64 2.53c2.91.08 5.82.05 8.72-.36l2.08-.33c4.68-.93 9.49-1.02 14.22-.41l.41 2.38c-2.21.81-4.37 1.77-6.63 2.46-.85.03-1.71.05-2.56.05-1.54 4.02-5.31 5.67-8.57 2.32l-.91 1.55c-1.05-1.66-1.96-3.4-2.88-5.13l6.1-1.5-11.06-.34 1.02 4.17c-.74 4.42 3.98 7.47 3.56 11.93.81 5.3-2.11 9.88-4.76 14.16-1.89-3.48-2.83-7.35-3.73-11.18l-21.44.34-.24 4.77-2.55-1.97.59-2.88c-6.29-.42-12.6-.74-18.91-.36.43 3.45 1.23 6.83 2.35 10.12.94 2.86 1.4 5.86 1.5 8.87l-.39 3.21c-5.67-5.37-2.5-14.56-7.71-20.28-2.03-.85-4.28-.82-6.43-1.06-4.26-.35-8.54-.09-12.79.21l-.89 8.45-1.38-6.94a16.35 16.35 0 0 1-4.27 5.29c-.53-8.67.52-17.42-.69-26.05-.28 11.71-.43 23.44-.19 35.15l-7.93.08c.35-11.71.81-23.61-.88-35.23-1.3 11.8-1 23.76-.53 35.62l-7.55-.43c-.24-11.92.03-23.84.13-35.75 4.1-.22 8.2-.59 12.3-.69 3.68.1 7.37-.29 10.88-1.45l.49 1.55c-.2 3.89-.39 7.79-.08 11.67l.04.7c0 1.31-.06 2.61-.1 3.92 6.66-.39 13.59.66 20.03-1.5-.05-6.61 4.24-11.38 5.25-17.61m-46.06 38.54c2.83-2.43 1.45-6.74 1.84-10.04-.43-8.19.83-16.52-.85-24.59-2.56 11.12-.7 23.17-.99 34.63m8.91-33.65c-.87 9.89-.49 19.88-.1 29.8-.1 1.27.53 2.37 1.3 3.33 1.13-11.3 1.04-22.76.3-34.08l-1.5.95z"/><path fill="#ecd5c8" d="M135.73 145.12l3.56 1.42 2.84.9c-4.1.1-8.2.47-12.3.69l-.13 35.75 7.55.43c-.47-11.86-.77-23.82.53-35.62 1.69 11.62 1.23 23.52.88 35.23-.46 1.1-.96 2.19-1.45 3.28-2.94-1.14-5.9-2.32-8.98-3.04.27-12.13-.46-24.22-.15-36.34l-2.68.04-.07 35.85-3.27 2.87c-2.75-.37-5.6-.89-8.31-.05a64.55 64.55 0 0 0-3.01 1.48c1.83-2.68 3.96-5.54 3.8-8.96-.18-10.45-.15-20.9.24-31.33l-3.11-.04c-.57 11.54.72 23.3-.98 34.69-.17-2.2-.3-4.4-.3-6.6.12-9.47.65-19.07-.81-28.46 2.36-.23 4.74-.2 7.11-.01-1.08 12.17.38 24.39-.35 36.59l2.99.58c-.34-12.32-.77-24.63-.26-36.96 1.76-.24 3.51-.61 5.26-.89 3.51-.32 7.02.01 10.52.28l.88-1.78m-14.78 3.19l-.31 36 3.03-.7c-.71-12 .22-24.03-.29-36.03l-2.43.73z"/><path fill="#d7bfa6" d="M256.89 144.99c7.26.22 14.49 1.06 21.6 2.56l2.61 7.23-4-1.46-.47-3.73-4.48 2.54 5.09 2.33.34 2.59c-6.98.12-14.07-2.24-20.78.82-1.63.11-3.26.18-4.89.21l-.82-4.95 2.74 2.57 1.31-3.34c1.97-1.98 4.38-3.43 6.79-4.81l-5.04-2.56z"/><path fill="#edd5c0" d="M79.42 147.83c6.01-.17 12.03-1.24 18.04-.47.59 2.08 1.14 4.18 1.65 6.29l-2.73 3.04c-5.86.05-11.72.16-17.56.58l.6-9.44z"/><path fill="#faf4f8" d="M250.45 148.48l3.35-1.12 1.34 5-1.31 3.34-2.74-2.57.82 4.95c-1.19 0-2.38-.02-3.57-.04l-4.3-3.28-.22-3.82c2.26-.69 4.42-1.65 6.63-2.46z"/><path fill="#615954" d="M291.57 146.75c3.01.32 6.02.82 8.94 1.65l4.85 1.87-.19 8.36c-1.06-2.04-1.8-4.31-3.34-6.05-2.84-.04-5.64.43-8.46.65l-1.8-6.48z"/><path fill="#6b5a4f" d="M97.46 147.36l.64.12 3.53.94.47 2.48c-1.61 9.41-2.03 19.17.45 28.48.37-3.39.55-6.79.71-10.19.43-1.19.91-2.35 1.39-3.51.43 4.99.41 10.01-.13 14.99-2.76-.15-5.43.75-7.88 1.92l-2.81-1.12c-1.9 1.3-3.8 2.87-3.83 5.38-2.23 2.04-3.61 4.76-4.22 7.7-1.11-3.01-2.15-6.06-3.55-8.95-.97 6.44-.57 12.96-.31 19.44-5.54-.18-11.31-.95-16.56 1.35-1.97.39-3.94.75-5.93 1.02l-.66-.5-.96-.69c7.75-1.51 15.57-2.53 23.5-1.94l.15-18.81c2.38-.11 4.76-.28 7.13-.55-4.29-1.44-8.9-1.14-13.36-1.29l-.01-9.37h3.41l.23 9.23c7.59.83 13.44-4.68 20.2-7.07-2.08-1.12-4.28-2.14-6.69-2.08l.1-15.58c-4.95-.32-9.87-.86-14.79-1.44l1.14-.05c5.84-.42 11.7-.53 17.56-.58l2.73-3.04c-.51-2.11-1.06-4.21-1.65-6.29m.15 10.27c-1.2 5.18-1.32 10.57-.25 15.79 2.74-4.76 2.42-10.87.25-15.79z"/><path fill="#88735e" d="M102.32 148.31l7.26-1c1.46 9.39.93 18.99.81 28.46l-1.87-.14-.56 5.37-3.44-.33c.54-4.98.56-10 .13-14.99-.48 1.16-.96 2.32-1.39 3.51.06-6.11.35-12.31-1.16-18.29l-.47-2.48c.17-.03.52-.08.69-.11m3.4 24.69c.56 2.15-1.07 6.08 1.56 6.98-.13-7.89 1.26-15.88-.36-23.69-3.08 4.94-.76 11.22-1.2 16.71z"/><path fill="#84715f" d="M111.67 147.68l3.11.04c-.39 10.43-.42 20.88-.24 31.33.16 3.42-1.97 6.28-3.8 8.96l-2.35 1.29c-.12-2.56 1.01-4.82 2.3-6.93 1.7-11.39.41-23.15.98-34.69z"/><path fill="#937e65" d="M116.34 183.89c.73-12.2-.73-24.42.35-36.59l2.38.21c-.51 12.33-.08 24.64.26 36.96l-2.99-.58z"/><path fill="#97806a" d="M120.95 148.31l2.43-.73c.51 12-.42 24.03.29 36.03l-3.03.7.31-36z"/><path fill="#947c66" d="M125.4 147.86l2.68-.04c-.31 12.12.42 24.21.15 36.34l-2.9-.45.07-35.85z"/><path fill="#ddc7b1" d="M153.5 147.54l.4 1.12 2.35 6 7.9-.67c-3.62 1.65-7.19 3.41-10.73 5.22-.31-3.88-.12-7.78.08-11.67z"/><path fill="#4b4a54" d="M223.94 147.89l11.06.34-6.1 1.5 2.88 5.13c5.21 5.69 5.66 15.31.75 21.31-1.55 2.18-2.91 4.48-4.22 6.82l6.8.53-12.52.62.83-2.01a29.47 29.47 0 0 1 1.23-2.2c7.7-7.45 8.37-20.4.31-27.87-.31-1.39-.67-2.78-1.02-4.17z"/><path fill="#fce8df" d="M132.58 183.26c.29-11.46-1.57-23.51.99-34.63 1.68 8.07.42 16.4.85 24.59-.39 3.3.99 7.61-1.84 10.04z"/><path fill="#d6c2b3" d="M141.49 149.61l1.5-.95c.74 11.32.83 22.78-.3 34.08-.77-.96-1.4-2.06-1.3-3.33-.39-9.92-.77-19.91.1-29.8z"/><path fill="#c9b39d" d="M241.26 150.99l2.56-.05.22 3.82 4.3 3.28.38 3.94c.13 2.49.08 4.99-.02 7.48l-.26 5.34 8.36-.03c-.08 4.72.08 11.12 5.69 12.61l.92.41c-3.9-.15-7.81-.08-11.7-.2l-.88 4.6c-2.71-2.16-5.55-5.71-9.46-4.18-9.22 1.67-4.91 13.67-9.97 19.44-1-.17-2-.36-2.99-.58l2.91-6.7-2.35-2.91 4.41-4.06.32-8.56c3.82.14 7.95.59 11.28-1.73 2.52.47 5.08.75 7.63 1.03l1.55 1.9-.12-7.89c-4.66.3-10.24-1.31-13.74 2.77-.53-1.2-1-2.42-1.46-3.64-1.54.61-3.12 1.08-4.72 1.47l-1.59-2.38c4.91-6 4.46-15.62-.75-21.31l.91-1.55c3.26 3.35 7.03 1.7 8.57-2.32m-2.26 7.06c.26 5.58.22 11.17.22 16.76l2.98.13c.63-5.38-.97-11.16 1.43-16.22 1.18 5.26.8 10.66.61 16l2.7-.04c-1.03-5.51-1.4-11.16.05-16.63H239z"/><path fill="#fdf8f6" d="M272.15 152.13l4.48-2.54.47 3.73.14 1.14-5.09-2.33z"/><path fill="#c1a998" d="M102.1 150.9c1.51 5.98 1.22 12.18 1.16 18.29-.16 3.4-.34 6.8-.71 10.19-2.48-9.31-2.06-19.07-.45-28.48z"/><path fill="#e0ccb9" d="M200.48 164.58c.9-3.92 2.09-7.77 3.09-11.67 1.68 6.37 8.57 1.37 12.7.99-4.66 3.07-11.81 3.61-14.14 9.3 3.61-.04 7.25-.19 10.78-1.01l-.96 2.77c-3.83-.06-7.65-.21-11.47-.38z"/><path fill="#745f52" d="M286.53 157.79c2.27-4.68 8.26-1.91 11.77-.37-3.63 2.06-7.9.66-11.77.37z"/><path fill="#b29e96" d="M212.91 162.19c3.61-1.14 6.88-3.24 9.24-6.22-.62 3.01-1.34 6.01-2.06 9-2.72.01-5.43.02-8.14-.01l.96-2.77z"/><path fill="#c3ad99" d="M105.72 173c.44-5.49-1.88-11.77 1.2-16.71 1.62 7.81.23 15.8.36 23.69-2.63-.9-1-4.83-1.56-6.98z"/><path fill="#998472" d="M97.61 157.63c2.17 4.92 2.49 11.03-.25 15.79-1.07-5.22-.95-10.61.25-15.79z"/><path fill="#6d5645" d="M239 158.05h7.99c-1.45 5.47-1.08 11.12-.05 16.63l-2.7.04c.19-5.34.57-10.74-.61-16-2.4 5.06-.8 10.84-1.43 16.22l-2.98-.13c0-5.59.04-11.18-.22-16.76z"/><path fill="#5d4e44" d="M248.34 158.04l3.57.04 4.89-.21a149.43 149.43 0 0 1 13.88.06l1.1 2.09 4.34 1.01.48 1.9c-9.28-.74-18.57-1.75-27.88-.95-.1-1.32-.24-2.63-.38-3.94z"/><path fill="#877a6c" d="M281.23 160.17c6.1-.04 12.21.92 18.29.18l.72 6.71.11.62c3.1.18 6.22.16 9.33.34l3.61 1.82c-4.29-.07-8.57-.02-12.85.01l-.65 3.32c-3.49.73-7.07.57-10.6.89-5.88.34-8.53 6.03-7.47 11.32l-.95-.03.15-3.38c0-2.13-.07-4.24-.26-6.35l-1.22-.2c2.43-3.92 2.41-8.58 1.95-13.01l-.16-2.24z"/><path fill="#9a8574" d="M248.72 161.98c9.31-.8 18.6.21 27.88.95l.5 2.18-.38 5.33c-1.4-.62-2.83-1.64-4.45-1.16-7.72 1.42-15.9 2.49-23.57.18.1-2.49.15-4.99.02-7.48m1.13 3.64c4.43 5.14 12.69 1.64 18.78 3l2.21-2.2c-6.34-4-14.22-3.13-20.99-.8z"/><path fill="#5d4f43" d="M277.1 165.11l1.6-3.17 2.69.47c.46 4.43.48 9.09-1.95 13.01-3.93-.52-7.88-.65-11.83-.69-3.61-.04-7.21 0-10.81.04l-8.36.03.26-5.34c7.67 2.31 15.85 1.24 23.57-.18 1.62-.48 3.05.54 4.45 1.16l.38-5.33z"/><path fill="#cbb49a" d="M249.85 165.62c6.77-2.33 14.65-3.2 20.99.8l-2.21 2.2c-6.09-1.36-14.35 2.14-18.78-3z"/><path fill="#b7a399" d="M177.48 166.87c6.31-.38 12.62-.06 18.91.36l-.59 2.88 2.55 1.97.24-4.77c7.15.04 14.29-.27 21.44-.34.9 3.83 1.84 7.7 3.73 11.18l.89 1.78a29.47 29.47 0 0 0-1.23 2.2l-.94-3.25-4.66-.53c1.18-8.97-9.81-12.94-16.86-9.74l4.17 4.86c-3.19 4.3-.95 9.68-1.14 14.53-.12 5.74.47 11.47 2.31 16.93-2.56-.57-5.13-1.06-7.7-1.52.64-7.13 4.89-14.27 2.07-21.38l.87-2.2-3.32-.12c-1.17-.24-2.32-.53-3.47-.81l5.47-1.53c-3.9-7.75-12.9-10.77-21.12-9.8.53 2.46 1.77 4.64 3.45 6.49l-2.72 2.93c-1.12-3.29-1.92-6.67-2.35-10.12z"/><path fill="#413f42" opacity=".6" d="M300.24 167.06l41.67.34.35 2.63-3.26.04 2.7-2.12c-9.09-.72-18.21.33-27.31.17l-4.71-.1c-3.11-.18-6.23-.16-9.33-.34l-.11-.62z"/><path fill="#c9b6a3" d="M166.8 167.73c2.15.24 4.4.21 6.43 1.06 5.21 5.72 2.04 14.91 7.71 20.28l.39-3.21c.1 1.81.23 3.62.42 5.43l-4.21 1.48c-1.26 4.67-3.16 9.76-.83 14.43l4.26.28-7.1.06c2.84 3.02 5.53 6.19 8.12 9.43-2.44 2.92-4.99 5.74-7.69 8.42-1.39-1.11-2.77-2.23-4.21-3.26 3.51.5 6.78-.82 9.03-3.52-2.78-.88-5.54-2.27-8.53-2.15-1.32 1.18-1.36 3.25-2.02 4.81-3.23-1.74-6.41-3.65-9.01-6.28a121.88 121.88 0 0 1 6.01.54c2.81-5.68 8.02-10.21 8.13-16.97 2.39-6.73 2.7-15.87-4.68-19.61l6.44.74c.92-5.89-4.06-9.6-8.66-11.96z"/><path fill="#fffff9" d="M179.1 167.57c8.22-.97 17.22 2.05 21.12 9.8l-5.47 1.53 3.47.81c-1.5 7.7 1.72 16.27-3.25 23.12l-4.91 8.91-4.13-.56c-2.07-1.96-4.09-4.33-3.95-7.38.56-2.07 1.28-4.08 1.97-6.11-.88-2.08-1.69-4.2-2.2-6.4-.19-1.81-.32-3.62-.42-5.43-.1-3.01-.56-6.01-1.5-8.87l2.72-2.93c-1.68-1.85-2.92-4.03-3.45-6.49z"/><path fill="#9f9ca7" opacity=".95" d="M309.68 168.02l4.71.1c6.11 1.88 12.56.85 18.82 1.75-1.53-.04-3.05-.03-4.57-.02-5.12-.06-10.24.2-15.35-.01l-3.61-1.82z"/><path fill="#e7e4ed" opacity=".96" d="M314.39 168.12c9.1.16 18.22-.89 27.31-.17l-2.7 2.12c-1.94-.01-3.86-.1-5.79-.2-6.26-.9-12.71.13-18.82-1.75z"/><path fill="#776457" d="M147.47 174.74a16.35 16.35 0 0 0 4.27-5.29l1.38 6.94.49 3.9-1.6 4.16-4.62-.47.08-9.24z"/><path fill="#0d0c0d" opacity=".79" d="M300.44 169.85l12.85-.01c5.11.21 10.23-.05 15.35.01-8.37 5.61-19.53.03-28.85 3.32l.65-3.32z"/><path fill="#f2dac0" d="M78.63 174.26l13.74.08c2.41-.06 4.61.96 6.69 2.08-6.76 2.39-12.61 7.9-20.2 7.07l-.23-9.23z"/><path fill="#4a3e32" d="M281.72 185.38c-1.06-5.29 1.59-10.98 7.47-11.32 4.68 2.96 10.52 1.08 15.71 1.97.03.34.07 1.04.1 1.39l-2.15 1.74-.62 4.97c-2.26-1.46-4.36-3.64-7.13-3.93-2.52.91-3.98 3.56-5.71 5.51l-7.67-.33z"/><path fill="#3f3a3a" d="M108.52 175.63l1.87.14.3 6.6c-1.29 2.11-2.42 4.37-2.3 6.93l-.13 1.78c-5.96 3.99-12.73 7.02-20.08 6.37l-2.4-2.9c.61-2.94 1.99-5.66 4.22-7.7l6.64-4.26c2.45-1.17 5.12-2.07 7.88-1.92l3.44.33.56-5.37m-13.03 17.5c3.39 1.56 6.84.03 6.46-3.99-3.14-2.2-6.47.5-6.46 3.99z"/><path fill="#f4dabf" d="M256.8 174.77l10.81-.04 2.06 3.45c4.25-.67 8.48.3 11.25 3.79l-.15 3.38c-6.05.99-12.18 1.36-18.28 2.03-5.61-1.49-5.77-7.89-5.69-12.61z"/><path fill="#c4ad98" d="M267.61 174.73c3.95.04 7.9.17 11.83.69l1.22.2c.19 2.11.26 4.22.26 6.35-2.77-3.49-7-4.46-11.25-3.79l-2.06-3.45z"/><path fill="#9e8879" d="M228.31 182.99l4.22-6.82 1.59 2.38c1.6-.39 3.18-.86 4.72-1.47l1.46 3.64c1.51.83 3.09 1.53 4.68 2.19-3.33 2.32-7.46 1.87-11.28 1.73-2.55-.04-5.1.07-7.61.53-1.41.42-2.8.9-4.2 1.37l.7-2.4 12.52-.62-6.8-.53z"/><path fill="#fdfbfc" d="M240.3 180.72c3.5-4.08 9.08-2.47 13.74-2.77l.12 7.89-1.55-1.9c-2.55-.28-5.11-.56-7.63-1.03-1.59-.66-3.17-1.36-4.68-2.19z"/><path fill="#7e6c5e" d="M302.85 179.16l2.15-1.74c.2 3.49.54 6.98 1.11 10.44l-3.62 6.39-7.59 2.45c.79 2.38 1.25 4.85 1.42 7.35-3.28.35-6.56.81-9.86.78l-.04-.79c.36-6.14-.8-12.99 2.97-18.33 1.73-1.95 3.19-4.6 5.71-5.51 2.77.29 4.87 2.47 7.13 3.93l.62-4.97m-13.38 7.56l.64 3.91c4.96-.36 9.91-.92 14.81-1.76l.13-3.99c-5.26-.31-10.5.56-15.58 1.84z"/><path fill="#edd3b7" d="M198.22 179.71l3.32.12-.87 2.2c2.82 7.11-1.43 14.25-2.07 21.38l-3.63-.58c4.97-6.85 1.75-15.42 3.25-23.12z"/><path fill="#d5bea1" d="M153.61 180.29c2.48 6.1-.56 12.47.19 18.74.51 5.76 4.08 10.55 5.76 15.96-2.47-2.09-4.64-4.47-6.8-6.86l-3.13-.06-2.91.04 5.11-1.54c.89-4.26.72-8.63-.49-12.8-.38-1.78-.69-3.57-.78-5.38.43-1.33.93-2.64 1.45-3.94l1.6-4.16z"/><path fill="#e6e2ea" d="M90 186.85c.03-2.51 1.93-4.08 3.83-5.38l2.81 1.12-6.64 4.26z"/><path fill="#d0b89b" d="M221.89 186.54l4.2-1.37.6 5.49c-3 2.93-5.42 6.56-5.43 10.9l-1.47 1.98c-.01-5.73.62-11.46 2.1-17z"/><path fill="#fce3c6" d="M226.09 185.17c2.51-.46 5.06-.57 7.61-.53l-.32 8.56-4.41 4.06 2.35 2.91-2.91 6.7-4.05-1.19-4.62-1.75.05-.39 1.47-1.98c.01-4.34 2.43-7.97 5.43-10.9l-.6-5.49z"/><path fill="#998574" d="M262.49 187.38c6.1-.67 12.23-1.04 18.28-2.03-.21 3.81-1.5 8.38 1.32 11.55 1.75 2.18 3.4 4.47 4.33 7.14l.04.79c-1.47-.13-2.92-.3-4.38-.46l-1.74-4.83c-1.59-.64-3.15-1.33-4.75-1.9l-1.88-5.32c-3.95.08-7.91.14-11.83.69 1.92-.99 3.68-2.24 5.38-3.56l-3.85-1.66-.92-.41z"/><path fill="#080807" opacity=".89" d="M280.77 185.35l.95.03 7.67.33c-3.77 5.34-2.61 12.19-2.97 18.33-.93-2.67-2.58-4.96-4.33-7.14-2.82-3.17-1.53-7.74-1.32-11.55z"/><path fill="#e6cdb6" d="M289.47 186.72c5.08-1.28 10.32-2.15 15.58-1.84l-.13 3.99c-4.9.84-9.85 1.4-14.81 1.76l-.64-3.91z"/><path fill="#877269" d="M82.23 185.6c1.4 2.89 2.44 5.94 3.55 8.95l2.4 2.9.69 6.47 5.29.86c-2.06.06-4.11.28-6.15.53 4.6 2.06 9.7.92 14.43.02 5.34-1 10.8-2.02 16.24-1.17 1.51 1.06 3.02 2.12 4.6 3.1-7.7.55-15.39-.13-23.09-.11-4.43-.11-8.86-.07-13.29-.05-3.32-.06-6.63.06-9.95.14-3.88.16-7.75-.31-11.59-.85 5.25-2.3 11.02-1.53 16.56-1.35-.26-6.48-.66-13 .31-19.44z"/><path fill="#7a6d5e" d="M141.42 186.4c3.13-1.9 6.52.24 9.14 1.99.09 1.81.4 3.6.78 5.38-2.09 2.47-4.95 4.61-8.38 3.53-5.47-.27-6.25-8.86-1.54-10.9m1.37 8.11l3.35.06 1.66-3.78c-2.57-5-8.72-.28-5.01 3.72z"/><path fill="#feeece" d="M110.74 188.01l3.01-1.48-2.72 5.62 5.21-.49.62 1.2-1.43 4.43c7.09 2.52 14.68 3 22.13 2.72l.53 3.69c-7.73.59-15.46-.25-22.91-2.36-2.47-1.05-5.09-.49-7.54.29.08-3.52.32-7.04.62-10.55l.13-1.78 2.35-1.29z"/><path fill="#a78e74" d="M241.37 188.01c3.91-1.53 6.75 2.02 9.46 4.18 1.19.67 2.41 1.28 3.69 1.76a54.87 54.87 0 0 0-.79 8.29l-2.41-.17-.15 4.81c-.5 0-1.49-.01-1.98-.02-3.73-.47-7.21-1.94-10.59-3.52l.96 3.06c-2.41.33-4.81.7-7.2 1.1l-.96-.05c5.06-5.77.75-17.77 9.97-19.44z"/><path fill="#6e6051" d="M251.71 187.59l11.7.2 3.85 1.66c-1.7 1.32-3.46 2.57-5.38 3.56l-7.36.94c-1.28-.48-2.5-1.09-3.69-1.76l.88-4.6z"/><path fill="#908b94" d="M95.49 193.13c-.01-3.49 3.32-6.19 6.46-3.99.38 4.02-3.07 5.55-6.46 3.99z"/><path fill="#ab927e" d="M88.18 197.45c7.35.65 14.12-2.38 20.08-6.37-.3 3.51-.54 7.03-.62 10.55 2.45-.78 5.07-1.34 7.54-.29l3.5 2.82c-5.44-.85-10.9.17-16.24 1.17-2.76-.09-5.52-.32-8.28-.55-1.77-.24-3.53-.56-5.29-.86l-.69-6.47z"/><path fill="#fbe2c0" d="M177.54 192.77l4.21-1.48c.51 2.2 1.32 4.32 2.2 6.4l-1.97 6.11-1.01 3.68-4.26-.28c-2.33-4.67-.43-9.76.83-14.43z"/><path fill="#d6bea3" d="M261.88 193.01c3.92-.55 7.88-.61 11.83-.69l1.88 5.32c-4.3-1.57-6.61 3.06-9.06 5.64-1.86-.22-3.73-.32-5.59-.46l-1.71-.14-5.5-.44a54.87 54.87 0 0 1 .79-8.29c2.46-.23 4.91-.58 7.36-.94z"/><path fill="#483e35" d="M294.9 196.7l7.59-2.45c-1.4 2.65-3.06 5.16-4.97 7.47l1.71 3.32 6.58.37c-2.34 1.93-4.25 4.29-5.91 6.81l1.12 4.71-3.15 4.51-4.11-1.1-1.31.92c-2.39 1.93-4.46 4.22-6.32 6.66l5.65 5.53c-1.72-.99-3.5-1.83-5.29-2.66-.17-5.63-5-7.59-9.11-10 4.18-1.06 9.05 3.27 12.4-.41 3.09-3.98 6.23-7.94 9.69-11.61-1.08-1.56-2.13-3.14-3.15-4.72-.17-2.5-.63-4.97-1.42-7.35z"/><path fill="#c0a98f" d="M266.53 203.28c2.45-2.58 4.76-7.21 9.06-5.64 1.6.57 3.16 1.26 4.75 1.9l1.74 4.83 4.38.46c3.3.03 6.58-.43 9.86-.78 1.02 1.58 2.07 3.16 3.15 4.72-3.46 3.67-6.6 7.63-9.69 11.61-6.94-3.05-15.99-6.46-16.58-15.3l-1.32 1.59c-1.75-1.19-3.51-2.37-5.35-3.39z"/><path fill="#bca690" d="M115.18 201.34c7.45 2.11 15.18 2.95 22.91 2.36l.43 2.75c2.24 1.13 4.44 2.42 6.12 4.33-6.92-2.28-14.15-2.91-21.36-3.52-1.58-.98-3.09-2.04-4.6-3.1-1.19-.91-2.33-1.89-3.5-2.82z"/><path fill="#aa9a8d" d="M210.87 208.58l4.87-8.09 4 3.44 4.62 1.75-.54 5.66c-3.25-.03-6.72.48-9.68-1.18l-3 1.54c-1.4-1.02-2.71-2.16-3.92-3.39l3.65.27z"/><path fill="#020101" opacity=".87" d="M253.73 202.24l5.5.44c.41 7.44 8.37 9.1 12.88 13.52 1.76 1.53 3.43 3.16 5.27 4.59 4.11 2.41 8.94 4.37 9.11 10-7.75-.07-10.05-8.96-16.18-12.13-5.78-5.18-12.41-9.74-16.58-16.42z"/><path fill="#cfbaa6" d="M190.06 211.74l4.91-8.91 3.63.58c3.04 3.46 5.95 7.04 8.7 10.75-1.62 1.13-3.26 2.25-4.95 3.27l1.54-3.8c-3.29.02-6.57.43-9.79 1.1l.61 2.55c-3.21-1.58-6.18-3.64-8.78-6.1l4.13.56z"/><path fill="#94826d" d="M198.6 203.41l7.7 1.52.92 3.38c1.21 1.23 2.52 2.37 3.92 3.39 3.76 3.38 10.13 5.58 12.68-.36.25-1.88.36-3.78.54-5.66 1.33.42 2.68.83 4.05 1.19.99.22 1.99.41 2.99.58l.96.05c-1.93.45-3.83 1.01-5.73 1.57-.35 3.68-.93 8.11-4.52 10.09-3.25 1.17-6.77 1.67-9.72 3.61-4.66.85-9.3 1.88-13.65 3.8l-8.9 3.26c2.25 1.51 4.35 3.3 5.57 5.77-.98 2.22-2.02 4.41-3.2 6.53-4.56 7.89-13.89 10.74-19.61 17.59l-2.44-2.53c4.41-2.99 8.49-6.66 10.97-11.46l.83-1.45 3.44-6.22c1.13-2.24 2.02-4.59 2.93-6.93-2.73-1.41-5.5-2.76-8.3-4.03-1.41 1.88-2.76 3.81-3.87 5.88l-.45 1.03c-.33-2.23-.58-4.47-.81-6.71-7.32 1.76-18.08-3.22-22.64 4.54l-.37-3.8-5.7-.13c2.87 2.48 4.81 5.76 6.73 8.99-1.6 2.88-3.86 5.32-6.47 7.33l2.51 1.66-6.79-.5c-1.37 2.16-2.85 4.26-4.64 6.1-1.36 1.41-2.69 2.84-3.94 4.34-.1.12-.32.35-.42.47l-4.04-3.87.98-1.08c2.76-2.58 5.48-5.2 7.81-8.18l-4.12-2.83 5 .46c2.33-3.73 4.31-7.68 5.86-11.8-2.37-1.58-4.72-3.19-7.01-4.88 2.67-.17 5.39.19 7.7 1.63l1.36 1.56c1.29-5.97 2.19-12.01 2.62-18.1l-2.32 1.29-.29-2.39 2.91-.04c.1 2.6.48 5.22 1.93 7.45.61-2.43 1.04-4.9 1.2-7.39 2.16 2.39 4.33 4.77 6.8 6.86 2.6 2.63 5.78 4.54 9.01 6.28l1.52.86c1.44 1.03 2.82 2.15 4.21 3.26 2.7-2.68 5.25-5.5 7.69-8.42-2.59-3.24-5.28-6.41-8.12-9.43l7.1-.06 1.01-3.68c-.14 3.05 1.88 5.42 3.95 7.38 2.6 2.46 5.57 4.52 8.78 6.1 2.51.49 5.1.55 7.64.15 1.69-1.02 3.33-2.14 4.95-3.27-2.75-3.71-5.66-7.29-8.7-10.75m-46.09 24.61c2.81-1.32 5.74-2.54 8.16-4.53-.65-2.73-4.21-3.68-6.13-5.52-1.24 3.21-2.3 6.57-2.03 10.05z"/><path fill="#67574a" d="M238.6 203.34c3.38 1.58 6.86 3.05 10.59 3.52l-4.12.04c4.45 2.46 2.44 8.22 5.36 11.69 1.94 2.57 3.12 5.59 3.72 8.74-1.97 3.19-1.39 6.95-1.02 10.48l-2.53.36c.13-4.25-1.88-8.03-4.31-11.37-.33 3.66-.36 7.35-.2 11.02l3.31.52c-1.23.19-2.45.41-3.68.63-.38-2.3-.74-4.6-1.24-6.87-.53-2.26-1.16-4.49-1.8-6.73 1.34-.6 2.64-1.27 3.95-1.92l-.24-4.47c-3.62-1.35-6.33-4.13-9.5-6.19-4.01-.31-4.81 4.27-6.11 7.07-2.11.14-4.22.25-6.31.49l-.9 1.41c-.39 2.39.14 4.75 1.05 6.95l5.16-1.05c-.04 3.38.36 7.17 3.92 8.64l1.25-5.22 2.61 3.58c1.75 3.04 4.64 4.97 8.06 5.69l-4.4 3.38-2.12-.31c.17 2.41.34 4.83.62 7.23-1.09-1.66-2.27-3.24-3.44-4.83l-3.66-.15 1.26-5.99c-1.81.66-3.64 1.24-5.43 1.94-.76-1.03-1.57-2.01-2.34-3.03-2.11-3.29-4.32-6.51-6.52-9.74a96.22 96.22 0 0 1 1.98-7.07l-6.71.73-2.47.26c2.95-1.94 6.47-2.44 9.72-3.61 3.59-1.98 4.17-6.41 4.52-10.09 1.9-.56 3.8-1.12 5.73-1.57l7.2-1.1-.96-3.06z"/><path fill="#574c46" d="M259.23 202.68l1.71.14c3.9 3.11 7.56 6.5 11.62 9.42l-.45 3.96c-4.51-4.42-12.47-6.08-12.88-13.52z"/><path fill="#867363" d="M260.94 202.82l5.59.46c1.84 1.02 3.6 2.2 5.35 3.39l1.32-1.59c.59 8.84 9.64 12.25 16.58 15.3-3.35 3.68-8.22-.65-12.4.41-1.84-1.43-3.51-3.06-5.27-4.59l.45-3.96c-4.06-2.92-7.72-6.31-11.62-9.42z"/><path fill="#4a403c" opacity=".95" d="M88.01 205.31l6.15-.53 8.28.55c-4.73.9-9.83 2.04-14.43-.02z"/><path fill="#e9d2bf" d="M59.43 207.41l5.93-1.02c3.84.54 7.71 1.01 11.59.85-.71 4.19-1.81 8.32-3.69 12.15l-4.89-1.32c-4.69-1.85-7.79-5.81-8.94-10.66z"/><path fill="#d1bca0" d="M299.9 212.22c1.66-2.52 3.57-4.88 5.91-6.81l7.65 6.01 1.5 5.27-5.06 6.48-1.56-2.79 1.79-.7c-1.77-4.43-5.2-7.7-10.23-7.46z"/><path fill="#c2af9d" d="M28.19 208.78c3.27-.48 6.52-1.15 9.74-1.94l.19 8.44 7.81-.09c-1.72 3.48-4.27 6.41-7.72 8.23.37-1.74.68-3.49.98-5.24-3.32-2.87-4.23-7.99-8.51-9.72-.37.24-1.11.7-1.48.93-.19 1.23-.34 2.46-.44 3.7l-.57-4.31z"/><path fill="#c0aa9a" d="M58.77 206.91l.66.5c1.15 4.85 4.25 8.81 8.94 10.66-1.85.11-3.7.3-5.55.48 1.04 2.12 1.34 5.74 4.29 5.93 6.32.49 12.7-.23 18.98.87l1.07-3.15 3.32.98 1.12 4.29-2.68 2.06c-8.53-2.74-17.43-4.2-26.41-3.29l-2.04.19c-3.09 2.67-5.53 5.98-7.81 9.35 3.8 5.18 2.26 11.84-1.63 16.45l-2.04-2.49 3.94-3.07-.31-2.08c-.41-2.25-1.37-4.36-2.6-6.28.49-3.42 1.53-6.84 3.86-9.48 4.16-2.38 5.54-6.68 3.82-11.14l-6.39-.87-2.6-1.65c3.06-.04 6.13 0 9.19.05.35-2.77.72-5.53.87-8.31z"/><path fill="#feefd9" d="M76.95 207.24l9.95-.14c6.14-.08 7.89 6.44 6.95 11.42l-1.53 5.37c1.5.89 2.93 1.88 4.41 2.81l-5.13.77-1.12-4.29-3.32-.98-1.07 3.15c-6.28-1.1-12.66-.38-18.98-.87-2.95-.19-3.25-3.81-4.29-5.93l5.55-.48 4.89 1.32c1.88-3.83 2.98-7.96 3.69-12.15m5.43 2.3c-5.62.61-7.26 8.96-2.27 11.63 2.81.58 6.46.95 8.37-1.72 3.48-4.05-.88-11.22-6.1-9.91z"/><path fill="#b7a49b" d="M86.9 207.1l13.29.05-2.55 1.11 4.51 1.14c-4.37 1.3-7.59 4.51-8.3 9.12.94-4.98-.81-11.5-6.95-11.42z"/><path fill="#f3dac0" d="M144.15 218.75c-.44-3.78.57-7.44 2.57-10.64l.29 2.39 2.32-1.29c-.43 6.09-1.33 12.13-2.62 18.1l-1.36-1.56c-3.97-4.27-10.12-5.55-14.44-9.52-5.2-2.77-8.3 3.62-8.5 7.94-1.41 5.75 4.62 8.78 8.08 12.1 2.46-4.01 4.89-8.03 7.16-12.15 2.29 1.69 4.64 3.3 7.01 4.88-1.55 4.12-3.53 8.07-5.86 11.8l-5-.46 4.12 2.83c-2.33 2.98-5.05 5.6-7.81 8.18l-5.9-4.68-.07 1.57c-4.56 1.86-10.67 2-13.2 6.89-.29 2.68 1.16 4.95 2.56 7.07a20.68 20.68 0 0 1-12.1 3.43l-2.75.11c3.46-2.82 1.4-7.47-1.86-9.42-.33 3.42-.53 6.85-.76 10.28-4.18.16-8.36.34-12.53.02l-.23-.68a151.31 151.31 0 0 0 10.86-.17c-1.59-2.73-2.88-6.47-6.35-7.21-2.15.68-3.79 2.43-5.61 3.71l-1.33 1.09c-1.66-5.84 3.54-9.98 8.97-10.09l.62-6.4 1.17 5.7c5.09 2.04 10.39 3.87 15.95 3.81 2.19-5.64 6.86-10.34 12.79-11.86 4.02-.01 8.07.62 12.07-.25l.48-2.23c-5.06-4.98-13.15-8.25-14.22-16.08.87-4.42 3.38-8.67 6.56-11.83 7.05-3.8 12.1 4.55 18.92 4.62M85 255.11l1.1 1.89c3.26.42 9 2.64 10.12-2-3.73-.36-7.49-.25-11.22.11z"/><path fill="#584b41" d="M149.63 208.07l3.13.06c-.16 2.49-.59 4.96-1.2 7.39-1.45-2.23-1.83-4.85-1.93-7.45z"/><path fill="#ae9680" d="M29.2 209.39l1.48-.93c.7 6.81 1.25 13.77 3.56 20.26 1.04 1.96 2 4.97 4.61 5.06 1.23-1.76.43-4.03.5-6.01l5.95-1.85c-2.51-.43-5-.97-7.45-1.68l.36-.82c3.45-1.82 6-4.75 7.72-8.23l2.78-.02 2.6 1.65c-1.53-.06-3.06-.09-4.59-.11-1.36 5.04.26 10.06 1.24 14.99 1.98-.93 3.98-1.85 5.92-2.87-2.33 2.64-3.37 6.06-3.86 9.48-1.68-1.96-3.5-3.79-5.29-5.63l-6.64 4.61c1.95 3.93 4.18 8.01 7.97 10.45 2.37-.63 4.44-1.99 6.56-3.15l.31 2.08-3.94 3.07c.66.84 1.35 1.67 2.04 2.49 1.31 1.31 2.73 2.51 4.13 3.72-.18-3.56 1.02-6.89 5.22-6.77-1.03 2.73-2.17 5.41-3.34 8.07 3.64 2.57 7.64 4.57 11.8 6.14l3.11-3.38 1.98 5.3 6.27.41.64-2.36 1.33-1.09 1.1 3.67.23.68c4.17.32 8.35.14 12.53-.02l.76-10.28c3.26 1.95 5.32 6.6 1.86 9.42-2.16 1.79-1.24 4.73-1.21 7.15 4.46.55 6.32-3.84 3.96-7.26a20.68 20.68 0 0 0 12.1-3.43c-1.4-2.12-2.85-4.39-2.56-7.07 1.68 1.89 3.3 3.84 4.89 5.82 4.31-2.88 12.88-6.32 8.31-12.71l.07-1.57 5.9 4.68-.98 1.08-.89 1.42c.95 1.53 1.98 3.02 3.01 4.51l1.92-2.06c.1-.12.32-.35.42-.47l4.36 2.15c-1.96 4.54-.06 9.54-.48 14.29 5.34-.11 10.81-.79 15.52-3.51-.36 1.21-.69 2.42-1 3.64-3.68 1.73-7.76 2.02-11.68 2.83-1.6-.97-3.22-1.88-4.85-2.79l-.21 3.52-.33 4.77-15.86.26-.58-5.24c-5.32-.36-10.63-1.12-15.73-2.72l-2.54 3.63c-4.88-3.46-10.84-3.69-16.59-3.18l-1.18-4.75c-4.47-.26-8.92-.9-13.19-2.26a143.27 143.27 0 0 1-2.54 2.99l-1.42-.53c-3.76-1.77-7.44-3.7-11.13-5.61l1.46-3.57c-3.67-3.03-7.07-6.35-10.4-9.73-.89.63-1.8 1.24-2.71 1.84-4.94-1.29-6.51-7.2-9.67-10.71l3.65-3.24c-5.15-7.33-6.88-16.07-7.73-24.82.1-1.24.25-2.47.44-3.7m96.14 55.98c-2.54 2.56-7.9 3.56-6.6 8.16l1.99-.66c4.57.84 9.22.46 13.76-.37l.47-4.19-.2-5.17c-3.26-.03-6.95-.38-9.42 2.23z"/><path fill="#fdebd1" d="M30.68 208.46c4.28 1.73 5.19 6.85 8.51 9.72l-.98 5.24-.36.82c2.45.71 4.94 1.25 7.45 1.68-2 .57-3.97 1.23-5.95 1.85-.07 1.98.73 4.25-.5 6.01-2.61-.09-3.57-3.1-4.61-5.06-2.31-6.49-2.86-13.45-3.56-20.26z"/><path fill="#817365" d="M82.38 209.54c5.22-1.31 9.58 5.86 6.1 9.91-1.91 2.67-5.56 2.3-8.37 1.72-4.99-2.67-3.35-11.02 2.27-11.63m-2.4 6.6c1.33.77 2.37 2.46 4.08 2.36 3.11-1.45.82-5.31.28-7.68-1.59 1.66-3.03 3.45-4.36 5.32z"/><path fill="#fcf9fc" d="M211.14 211.7l3-1.54c2.96 1.66 6.43 1.15 9.68 1.18-2.55 5.94-8.92 3.74-12.68.36z"/><path fill="#fffff4" d="M79.98 216.14c1.33-1.87 2.77-3.66 4.36-5.32.54 2.37 2.83 6.23-.28 7.68-1.71.1-2.75-1.59-4.08-2.36z"/><path fill="#fbe9d6" d="M299.9 212.22c5.03-.24 8.46 3.03 10.23 7.46l-1.79.7 1.56 2.79c-2.18 2.62-4.25 5.34-6.41 7.96-3.97-2.95-7.67-6.25-11.04-9.87l1.31-.92c1.38.32 2.74.72 4.11 1.1l3.15-4.51-1.12-4.71z"/><path fill="#7b7167" d="M230.78 219.86c1.3-2.8 2.1-7.38 6.11-7.07 3.17 2.06 5.88 4.84 9.5 6.19-7.61.86-15.17 2.21-22.82 2.78l.9-1.41c2.09-.24 4.2-.35 6.31-.49z"/><path fill="#bca488" d="M122.41 224.17c.2-4.32 3.3-10.71 8.5-7.94 4.32 3.97 10.47 5.25 14.44 9.52-2.31-1.44-5.03-1.8-7.7-1.63-2.27 4.12-4.7 8.14-7.16 12.15-3.46-3.32-9.49-6.35-8.08-12.1m4.14-7.25c-1.4 3.33-.99 6.87.18 10.17 2.25-.35 4.11-1.62 5.78-3.1-1.01-3.08-3.39-5.27-5.96-7.07z"/><path fill="#fffeff" d="M170.59 216.46c2.99-.12 5.75 1.27 8.53 2.15-2.25 2.7-5.52 4.02-9.03 3.52l-1.52-.86c.66-1.56.7-3.63 2.02-4.81z"/><path fill="#84705b" d="M46.72 216.71l4.59.11 6.39.87c1.72 4.46.34 8.76-3.82 11.14-1.94 1.02-3.94 1.94-5.92 2.87-.98-4.93-2.6-9.95-1.24-14.99z"/><path fill="#826f5d" d="M126.55 216.92c2.57 1.8 4.95 3.99 5.96 7.07-1.67 1.48-3.53 2.75-5.78 3.1-1.17-3.3-1.58-6.84-.18-10.17z"/><path fill="#908579" d="M314.96 216.69c2.45 8.79 11.08 12.81 17.61 18.09 2.51-2.09 5.49-3.42 8.53-4.55l2.97 2.62-2.6 3.77-5.07-.18c2.52 2.97 5.64 5.4 9.33 6.76l-2.39-4.3 3.57-3.77 3 2.13c.67 5.67-3.91 10.09-3.28 15.72 3.76 2.83 7.91 8.05 4.71 12.76l-4.3-2.59.79-4.1-1.45-1.27c-.76 1.22-1.5 2.46-2.31 3.66-1.35 1.83-2.88 3.53-4.39 5.24l4.46-1.45 3.91 3.57-1.22 2.58c-6.09 1.35-10.27-5.72-16.02-3.67-3.62 3.2-9.43 8.46-13.89 3.6l3.33-3.82 4.42.28-.34-1.49c-.73-2.98.47-5.64 3.54-6.49 3.08-.06 6.95 1.25 9.12-1.73 2-2.6 3.85-5.3 5.75-7.97l-2.48-3.01c-1.81-3.43-4.07-6.79-7.7-8.49-5.55-2.74-9.62-7.48-13.84-11.84-.69 1.32-1.35 2.66-2.12 3.94l-2.23-.64c.85-.89 1.73-1.74 2.62-2.6l-2.62-3.4c-3.99 2.48-7.3 5.83-9.93 9.7l5.17 2.91 2.18-3.48.91 2.4-3.4 4.16 11.49 6.87c-1.87 2.07-2.49 4.7-2.17 7.43-2.12-1.49-4.1-3.16-6.08-4.82l3.52-1.48c-6.01-3.22-9.87-10.28-16.92-11.31l-4.27-.75c-1.02-.76-2.04-1.52-3.09-2.23 4 .04 8.21-.11 11.71-2.32l6.41-7.96c1.73-2.12 3.39-4.3 5.06-6.48z"/><path fill="#bab1b5" d="M152.51 228.02c-.27-3.48.79-6.84 2.03-10.05 1.92 1.84 5.48 2.79 6.13 5.52-2.42 1.99-5.35 3.21-8.16 4.53z"/><path fill="#e3ccb4" d="M223.57 221.76c7.65-.57 15.21-1.92 22.82-2.78l.24 4.47c-1.31.65-2.61 1.32-3.95 1.92-4.24 1.08-8.59 1.55-12.9 2.29-1.73.31-3.45.68-5.16 1.05-.91-2.2-1.44-4.56-1.05-6.95z"/><path fill="#d3bca2" d="M286.13 227.92c1.86-2.44 3.93-4.73 6.32-6.66 3.37 3.62 7.07 6.92 11.04 9.87-3.5 2.21-7.71 2.36-11.71 2.32-1.84-1.89-3.74-3.71-5.65-5.53z"/><path fill="#17130f" opacity=".87" d="M214.86 222.51l6.71-.73-1.98 7.07c-1.46-2.2-3.05-4.31-4.73-6.34z"/><path fill="#c2ac92" d="M304.44 233.75c2.63-3.87 5.94-7.22 9.93-9.7l2.62 3.4-2.62 2.6c-.91 1-1.77 2.05-2.58 3.13-.76 1.14-1.47 2.31-2.18 3.48l-5.17-2.91z"/><path fill="#fae3cc" d="M60.47 226.43l2.04-.19c.01 4.25-1.64 8.14-5.79 9.8.52 3.53.88 7.08 1 10.64 8.05.28 19.62 4.75 17.09 14.82l6.03 1.86-.64 2.36-6.27-.41-1.98-5.3-3.11 3.38c-4.16-1.57-8.16-3.57-11.8-6.14 1.17-2.66 2.31-5.34 3.34-8.07-4.2-.12-5.4 3.21-5.22 6.77-1.4-1.21-2.82-2.41-4.13-3.72 3.89-4.61 5.43-11.27 1.63-16.45 2.28-3.37 4.72-6.68 7.81-9.35z"/><path fill="#6d676a" d="M229.78 227.66c4.31-.74 8.66-1.21 12.9-2.29.64 2.24 1.27 4.47 1.8 6.73l-6.92 2.56-2.61-3.58-1.25 5.22c-3.56-1.47-3.96-5.26-3.92-8.64z"/><path fill="#bfaa92" d="M318.72 226.75c4.22 4.36 8.29 9.1 13.84 11.84 3.63 1.7 5.89 5.06 7.7 8.49-3.73-2.96-6.9-6.55-10.82-9.26-1.83 4.3-4.02 8.44-6.67 12.3 3.94 3.9 8.87 6.53 14.22 7.94-2.17 2.98-6.04 1.67-9.12 1.73-2.28-2.17-5.02-3.72-7.93-4.86-.33-.23-.99-.67-1.32-.89-.32-2.73.3-5.36 2.17-7.43l-11.49-6.87 3.4-4.16c1.32-1.61 2.66-3.21 3.9-4.89.77-1.28 1.43-2.62 2.12-3.94m-1.47 7.56l-.13 6.64 5.65-.24c.16-2.17.27-4.35.35-6.52l-5.87.12z"/><path fill="#b89e83" d="M152.26 231.84c4.56-7.76 15.32-2.78 22.64-4.54.23 2.24.48 4.48.81 6.71-.73 1.95-1.37 3.94-2.04 5.91 2.7 1.57 5.46 3.03 8.29 4.36l-.83 1.45c-7-2.53-14.24 4.48-10.97 11.46l.81 4.82c-3.12 4.01-6.7 7.9-11.77 9.31-1.36-1.7-2.92-3.27-4.78-4.42-1.65-.72-3.35-1.3-5.05-1.89-.17-3.05-.29-6.12.02-9.16 4.24-2 8.79-3.81 12.13-7.22-.98-3.97-2.87-7.65-3.87-11.63l-1.27-.02-1.48-3.24-1.98 3.16c-.25-1.69-.5-3.37-.66-5.06m7.41 20.19l.41.74c-3.14 1.8-6.05 3.98-9.23 5.74 1.16 3 2.94 5.69 5.01 8.13 3.24-1.78 6.31-3.82 9.43-5.79 4.8-3.61-.6-9.92-5.62-8.82z"/><path fill="#bea58f" d="M180.03 227.1l8.3 4.03-2.93 6.93-2.55-5.55-6.69.47c1.11-2.07 2.46-4 3.87-5.88z"/><path fill="#59534e" d="M189.84 229.83l8.9-3.26-3.33 9.03c-1.22-2.47-3.32-4.26-5.57-5.77z"/><path fill="#a48e78" d="M246.29 226.8c2.43 3.34 4.44 7.12 4.31 11.37l-1.2.17-3.31-.52c-.16-3.67-.13-7.36.2-11.02z"/><path fill="#dcc5a7" d="M103.75 238.22c-4.2-2.63-2.72-9.58 2.05-10.54-2.56 3.02-3.1 6.77-2.05 10.54z"/><path fill="#625347" d="M146.19 227.91l5.7.13.37 3.8.66 5.06c-1.92-3.23-3.86-6.51-6.73-8.99z"/><path fill="#473d33" d="M254.15 227.33c.73 3.3 1.3 6.64 1.95 9.97l-6.48 3.47-1.16 3.72-1.98 1.98-3.26-.62-2-2.12 4.4-3.38c-3.42-.72-6.31-2.65-8.06-5.69l6.92-2.56c.5 2.27.86 4.57 1.24 6.87l3.68-.63 1.2-.17 2.53-.36c-.37-3.53-.95-7.29 1.02-10.48z"/><path fill="#3d332c" d="M314.37 230.05l2.23.64-3.9 4.89-.91-2.4 2.58-3.13z"/><path fill="#eed5c0" d="M38.09 237.29l6.64-4.61 5.29 5.63c1.23 1.92 2.19 4.03 2.6 6.28-2.12 1.16-4.19 2.52-6.56 3.15-3.79-2.44-6.02-6.52-7.97-10.45z"/><path fill="#e1c7b0" d="M176.16 232.98l6.69-.47 2.55 5.55-3.44 6.22-8.29-4.36 2.04-5.91.45-1.03z"/><path fill="#d9bea3" d="M152.92 236.9l1.98-3.16 1.48 3.24 1.27.02c1 3.98 2.89 7.66 3.87 11.63-3.34 3.41-7.89 5.22-12.13 7.22 1.81-4.09 6.18-5.86 9.64-8.26l-2.69-5.76c-4.52.82-6.06 5.81-10.11 7.17-2.58.62-5.01 1.74-6.99 3.54l-1.71-1.05c1.79-1.84 3.27-3.94 4.64-6.1l6.79.5-2.51-1.66c2.61-2.01 4.87-4.45 6.47-7.33z"/><path fill="#7d7162" d="M317.25 234.31l5.87-.12-.35 6.52-5.65.24.13-6.64z"/><path fill="#110f0e" opacity=".78" d="M294.87 235.68l4.27.75c4.4 4.33 8.64 8.84 13.4 12.79 1.98 1.66 3.96 3.33 6.08 4.82l1.32.89c.72 1.17 1.4 2.38 2.09 3.59l-5.63-1.82-2.61 1.22c.6-1.21 1.23-2.39 1.86-3.58-7.24-5.87-13.73-12.57-20.78-18.66z"/><path fill="#544c45" opacity=".97" d="M299.14 236.43c7.05 1.03 10.91 8.09 16.92 11.31l-3.52 1.48c-4.76-3.95-9-8.46-13.4-12.79z"/><path fill="#97836e" d="M249.62 240.77l6.48-3.47 3.45 1.17 2.54 9.37c-.81 2.25-1.47 4.56-1.81 6.93-1.28-.44-2.52-1.05-3.89-1.09l-2.86-.14c1.95-4.5.49-9.27-2.09-13.17-1 1.37-1.93 2.79-2.98 4.12l1.16-3.72z"/><path fill="#d6c0a7" d="M329.44 237.82c3.92 2.71 7.09 6.3 10.82 9.26l2.48 3.01c-1.9 2.67-3.75 5.37-5.75 7.97-5.35-1.41-10.28-4.04-14.22-7.94 2.65-3.86 4.84-8 6.67-12.3z"/><path fill="#100d0b" opacity=".85" d="M226.11 238.59l2.34 3.03c1.59 2.75 1.67 5.97 1.91 9.05-3.76-2.88-3.83-7.79-4.25-12.08z"/><path fill="#7b6b5e" d="M228.45 241.62l5.43-1.94-1.26 5.99 3.66.15 3.44 4.83.94 3.32 1.15 3.97-4.15.74c2.27 1.09 4.8 1.59 7.23.65-.53 1.88-2.08 3.9-1.06 5.86 2.58 5.59 3.6 11.74 3.87 17.85.44 6.47 2.9 12.56 4.5 18.79 4.21-.89 8.34-2.08 12.41-3.46l.03-3.05 2.66 1.66c4.15-5.3-4.67-11.19.25-16.42 3.79.11 8.86.54 9.67 5.13l-4.78 1.57-4.3-2.78c.85 3.49 1.86 6.93 2.9 10.36.72-1.39 1.4-2.8 2.06-4.21l1.87-.47-3.72 7.84 1.82.15c-2.58 1.07-4.43 3.2-5.95 5.46-6.23-3.45-14.3-1.32-19.62 2.89-.88-.05-1.76-.07-2.64-.09-1.75-1.07-3.47-2.18-5.06-3.46l1.86-.63-2.72-9.54c.85-.66 1.7-1.3 2.57-1.93.79.84 1.55 1.7 2.33 2.56-1.34-8.95-3.84-17.69-5.19-26.64-.22-2.82-1.89-5.09-3.6-7.19-1.89-2.79-3.37-5.82-4.69-8.91-.24-3.08-.32-6.3-1.91-9.05z"/><path fill="#cbb7a3" d="M248.46 244.49l2.98-4.12c2.58 3.9 4.04 8.67 2.09 13.17.95.03 1.9.06 2.86.14-4.7 1.91-9.53 3.56-14.58 4.26l-1.15-3.97c1.24-2.98 3.49-5.34 5.82-7.5a92.41 92.41 0 0 0 1.98-1.98z"/><path fill="#f1d6ba" d="M146.23 249c4.05-1.36 5.59-6.35 10.11-7.17l2.69 5.76c-3.46 2.4-7.83 4.17-9.64 8.26-.31 3.04-.19 6.11-.02 9.16 1.7.59 3.4 1.17 5.05 1.89l-1.43 1.86c-4.71 2.72-10.18 3.4-15.52 3.51.42-4.75-1.48-9.75.48-14.29l-4.36-2.15c1.25-1.5 2.58-2.93 3.94-4.34l1.71 1.05 3.42 2.09.43 2.45-3.65.86c1.51 2.07 3.4 3.83 5.53 5.27 1.45-4.6 1.84-9.43 1.26-14.21z"/><path fill="#76675a" d="M172.6 259.72c5.72-6.85 15.05-9.7 19.61-17.59 2.27 5.11-.41 11.32-4.43 14.77-9.03 7-8.15 19.67-12.44 29.35-.27 1.22-.52 2.46-.65 3.72l1.38 1.15c-.68 3.5-1.8 6.89-2.62 10.36-1.13.72-2.3 1.37-3.48 2-2.27.85-4.83 1.53-6 3.91l.05-6.53c-3.79-1.58-7.66-2.94-11.58-4.15-1.31 1.38-2.64 2.74-3.88 4.19-.94-2.25-1.87-4.72-4.03-6.08-.24-1.34-.46-2.66-.77-3.97 2.05-3.06 3.37-6.51 4.57-9.97l2.28.55-.14-3.71c.83.41 1.66.85 2.48 1.29l2.77-8.22-3.73 1.61c.31-1.22.64-2.43 1-3.64l1.43-1.86c1.86 1.15 3.42 2.72 4.78 4.42.94 1.41 1.8 2.88 2.67 4.35l-3.81.21-1.16 4.84c-1.15 4.69-2.75 9.26-3.91 13.96 4 1.9 8.22 3.34 12.61 4.02 1.84-4.87 3.92-9.64 5.64-14.55l4.47-17.74c-1.09-1.82-3.17-2.98-4.74-4.4l-.81-4.82 2.44 2.53z"/><path fill="#9b8b7d" d="M239.1 243.42l2.12.31 2 2.12 3.26.62c-2.33 2.16-4.58 4.52-5.82 7.5l-.94-3.32-.62-7.23z"/><path fill="#e4cbb0" d="M170.16 257.19c-3.27-6.98 3.97-13.99 10.97-11.46-2.48 4.8-6.56 8.47-10.97 11.46z"/><path fill="#eed3bb" d="M159.67 252.03c5.02-1.1 10.42 5.21 5.62 8.82-1.9-2.59-3.65-5.28-5.21-8.08l-.41-.74z"/><path fill="#56483d" d="M128.24 253.85l.89-1.42 4.04 3.87-1.92 2.06-3.01-4.51z"/><path fill="#fffee8" d="M150.85 258.51c3.18-1.76 6.09-3.94 9.23-5.74 1.56 2.8 3.31 5.49 5.21 8.08-3.12 1.97-6.19 4.01-9.43 5.79-2.07-2.44-3.85-5.13-5.01-8.13z"/><path fill="#66594b" d="M256.39 253.68c1.37.04 2.61.65 3.89 1.09-2.12 9.07 3.67 17.12 5.18 25.75l2.09.04c-4.92 5.23 3.9 11.12-.25 16.42l-2.66-1.66c-.75-5.53-2.28-10.92-3.08-16.45l-1.48-.25c-1.8-6.27-2.09-12.75-1.77-19.22-3.23-4.14-9.25-.83-13.42-.07-2.43.94-4.96.44-7.23-.65l4.15-.74c5.05-.7 9.88-2.35 14.58-4.26z"/><path fill="#988570" d="M85 255.11c3.73-.36 7.49-.47 11.22-.11-1.12 4.64-6.86 2.42-10.12 2l-1.1-1.89z"/><path fill="#898788" d="M319.94 254.93c2.91 1.14 5.65 2.69 7.93 4.86-3.07.85-4.27 3.51-3.54 6.49-2.01-1.89-4.21-3.54-6.35-5.26l-2.02.76 1.99 3.25-3.5 4c-4.67-2.25-2.47-7.59-.66-11.11l2.61-1.22 5.63 1.82-2.09-3.59z"/><path fill="#978571" d="M244.89 259.33c4.17-.76 10.19-4.07 13.42.07-.32 6.47-.03 12.95 1.77 19.22l-3.4-.58c-1.53 3.7-5.48 4.37-8.98 5-.27-6.11-1.29-12.26-3.87-17.85-1.02-1.96.53-3.98 1.06-5.86m2.76 5.27l-.59 2.51c2.72-.38 5.39-1.08 7.93-2.16-1.96-2.58-4.87-1.11-7.34-.35m.6 11c3.63 4.03 7.42 1.8 9.11-2.63-3.52-4.26-8.01-2.38-9.11 2.63z"/><path fill="#fff4df" d="M82.17 262.27c1.82-1.28 3.46-3.03 5.61-3.71 3.47.74 4.76 4.48 6.35 7.21a151.31 151.31 0 0 1-10.86.17l-1.1-3.67z"/><path fill="#262423" opacity=".69" d="M346.38 257.78l1.45 1.27-.79 4.1-2.97-1.71 2.31-3.66z"/><path fill="#1a1715" opacity=".84" d="M235.05 259.58c1.71 2.1 3.38 4.37 3.6 7.19 1.35 8.95 3.85 17.69 5.19 26.64l-2.33-2.56-1.3-1.33c-1.69.15-3.36.46-5.01.82 1.95-1.12 4.03-2 6.09-2.9a466.6 466.6 0 0 1-6.24-27.86z"/><path fill="#9d8b77" d="M170.97 262.01c1.57 1.42 3.65 2.58 4.74 4.4-1.62 5.87-3 11.82-4.47 17.74l-.92-3.88c-4.34-1.59-9.7-3.48-13.42.45l1.16-4.84 3.81-.21c-.87-1.47-1.73-2.94-2.67-4.35 5.07-1.41 8.65-5.3 11.77-9.31m-6.69 8.91c.46 5.48 5.25 4.59 8.63 2.09-1.15-1.76-1.5-4.64-3.82-5.19-1.74.82-3.26 2-4.81 3.1z"/><path fill="#d4bba4" d="M125.34 265.37c2.47-2.61 6.16-2.26 9.42-2.23l.2 5.17c-5.46-1.56-10.44.61-14.23 4.56l-1.99.66c-1.3-4.6 4.06-5.6 6.6-8.16z"/><path fill="#4a4037" d="M247.65 264.6c2.47-.76 5.38-2.23 7.34.35-2.54 1.08-5.21 1.78-7.93 2.16l.59-2.51z"/><path fill="#63564a" d="M97.44 272.89c-.03-2.42-.95-5.36 1.21-7.15l2.75-.11c2.36 3.42.5 7.81-3.96 7.26z"/><path fill="#fde7d0" d="M120.73 272.87c3.79-3.95 8.77-6.12 14.23-4.56l-.47 4.19c-4.54.83-9.19 1.21-13.76.37z"/><path fill="#645a4e" d="M164.28 270.92c1.55-1.1 3.07-2.28 4.81-3.1 2.32.55 2.67 3.43 3.82 5.19-3.38 2.5-8.17 3.39-8.63-2.09z"/><path fill="#60564a" d="M248.25 275.6c1.1-5.01 5.59-6.89 9.11-2.63-1.69 4.43-5.48 6.66-9.11 2.63z"/><path fill="#716151" opacity=".93" d="M135.46 272.44l4.85 2.79-1.48.3-3.58.43.21-3.52z"/><path fill="#95949a" d="M138.93 280.97c1.01-1.81 2.29-3.48 4.23-4.36 2.47.06 5 .12 7.31 1.11l.14 3.71-2.28-.55-2.03-.49-2.25 2.66-5.12-2.08z"/><path fill="#ad9884" d="M256.68 278.04l3.4.58 1.48.25c.8 5.53 2.33 10.92 3.08 16.45.01 1.01-.01 2.03-.03 3.05-4.07 1.38-8.2 2.57-12.41 3.46-1.6-6.23-4.06-12.32-4.5-18.79 3.5-.63 7.45-1.3 8.98-5z"/><path fill="#b09c88" d="M156.9 280.72c3.72-3.93 9.08-2.04 13.42-.45l.92 3.88c-1.72 4.91-3.8 9.68-5.64 14.55-4.39-.68-8.61-2.12-12.61-4.02 1.16-4.7 2.76-9.27 3.91-13.96z"/><path fill="#98979f" d="M137.2 285.26l5.05.41 1.51 5.18.77 3.97c-4.08-1.38-7.94-4.88-7.33-9.56z"/><path fill="#8d8c92" d="M174.69 289.97c.13-1.26.38-2.5.65-3.72 4.47 1.28 10.63 5.04 8.33 10.52l-5.19-1.56-.02-3.43-2.39-.66-1.38-1.15z"/><path fill="#96959c" d="M235.2 290.34c1.65-.36 3.32-.67 5.01-.82l1.3 1.33-2.57 1.93c-1.26 1.35-2.01 3.05-2.76 4.71l-5.14.31c-.07-3.09 1.58-5.83 4.16-7.46z"/><path fill="#929299" d="M274.97 290.16l3.47-.81c.05 1.81.12 3.66-.58 5.37l-.95.96-1.41 1.36-2.43 1.11-1.82-.15 3.72-7.84z"/><path fill="#938578" d="M152.44 296.71c3.92 1.21 7.79 2.57 11.58 4.15-.06 2.18-.04 4.35-.05 6.53-.4 2.78-2.04 5.07-4.12 6.87-1.53.42-3.12.49-4.68.7l.71-4.87c1.87-.76 3.73-1.56 5.55-2.44l-5.07-1.76-1.29-.42c-1.73-.58-3.44-1.22-5.15-1.84l2.21 6.14c-.55 1.1-1.07 2.2-1.59 3.32-4.58-1.99-5.19-8.69-1.98-12.19 1.24-1.45 2.57-2.81 3.88-4.19z"/><path fill="#939299" d="M173.45 301.48l4.51-2.96 3.84 1.68-.45 3.26c-3.7 1.3-7.79 2.29-11.38.02 1.18-.63 2.35-1.28 3.48-2z"/><path fill="#9897a0" d="M233.21 301.77l4.37-1.14 2.22 2.32c1.59 1.28 3.31 2.39 5.06 3.46-3.81 1.33-7.67.5-11.27-.99l-.38-3.65z"/><path fill="#918576" d="M247.5 306.5c5.32-4.21 13.39-6.34 19.62-2.89 1.63 3.96 1.47 8.2-.35 12.06l-3.21 1.02-1.64-5.44 3.11-3.3c-2.44.63-4.88 1.26-7.36 1.73l-4.25.84c1.4 1.22 3.11 1.86 4.93 2.21.37 1.54.79 3.08 1.2 4.63l-2.58 1.26-3.94-2.61c-1.93-3.13-2.4-7.22-5.53-9.51z"/><path fill="#262526" opacity=".57" d="M149.92 303.63l5.15 1.84c-1.11 1.34-2.11 2.77-2.94 4.3l-2.21-6.14z"/><path fill="#232121" opacity=".56" d="M156.36 305.89l5.07 1.76-5.55 2.44.48-4.2z"/><path fill="#1f1e1e" opacity=".55" d="M253.42 310.52l4.25-.84.68 3.05c-1.82-.35-3.53-.99-4.93-2.21z"/></svg>