<svg xmlns="http://www.w3.org/2000/svg" width="512" height="512" viewBox="0 0 384 384" xmlns:v="https://vecta.io/nano"><path fill="#9f9186" d="M184.18 7.32l3.25.32.03 5.74-3.29.42.09 2.08c3.39.67 6.84.72 10.28.5l.34-2.06-3.39-1.06.14-5.67 3.45.06c5.29 4.37.89 12.25 5.93 16.09a218.64 218.64 0 0 1 1.03 5.79l-2.75-.68c-.97-.25-1.94-.46-2.92-.64.79-2.48.89-5.08.62-7.65-4.21 1.94-8.76 1.3-12.97-.26-.93 6.04 4.28 7.6 9.22 7.52-7.74-.69-15.28 2.33-19.09 9.28-.61-3.44-.4-6.95-.04-10.4l-2.7.33-1.21 3.35-5.79-.23c1.17-9.48 12.41-4.1 17.31-8.7-2.8-4.85-.85-10.17 2.46-14.13z"/><path fill="#c7b7a2" d="M184.02 20.3c4.21 1.56 8.76 2.2 12.97.26.27 2.57.17 5.17-.62 7.65l-3.13-.39c-4.94.08-10.15-1.48-9.22-7.52z"/><path fill="#928f92" d="M275.95 30.09c.28-5.24 4.38-8.59 8.84-10.56l2.68 1.65-2.37 4.76-4.05-.73.18 2.5 2.3 1.36 2.69 1.57 3.76 2.15 1.3-2.51-2.78-1.88c.98-1.68 1.82-3.44 2.7-5.18l3.12 1.71c.81 4.76-.37 9.41-3.43 13.14 1.56 6.15 11.59 7.7 9.26 15.36l-2.7-.2-2.79-2.12 1.07-3.33-2.04-.73c-3.4-.84-5.91-3.29-8.36-5.62a8.13 8.13 0 0 0 4.73-5.34c-5.52-.18-8.72-5.79-14.11-6z"/><path fill="#76675a" d="M201.01 23.74c4.36-1.34 16.2 2.95 10.17 7.84l-3.54-.75-1.23-3.74-1.57.78c-.26 3.64-.68 7.27-1.09 10.89l2.83.23 1.03-4 5.48.49c-.2 1.56-.44 3.12-.67 4.68-4.05 1.77-11.03 1.79-8.28 8.05 1.23 7.91-.88 15.85.46 23.76-.11 5.25 3.43 9.46 4.24 14.5l2.49 2.45c.41 5.11-.29 10.21-3.09 14.59l-7.22-1.17 2.09-.11c-1.91-3.29-4.5-6.75-8.81-5.68 1.46 1.62 2.93 3.23 4.49 4.76-1.64-.39-3.29-.7-4.94-1-.25-5.24-2.38-10.07-5.06-14.5 5.72-1.56 11.66-.66 17.48-.44-2.43-1.28-5-2.29-7.71-2.79 1.28-.52 2.31-1.5 3.61-1.97l-.4-6.34-2.03-.57c-2.82-1.1-5.87-1.04-8.69.03l-2.21.6c.26 2.83.52 5.67.92 8.48-1.93.78-3.71 1.85-5.45 2.98l2.8.45c-1.04.46-2.06.95-3.09 1.44-.5-2.33-1.62-4.47-3.47-6.01l1.26.04-1.98-30.45c-.06-2.8.07-5.6.03-8.4 1.03 4.34.56 9.2 3 13.09 3.85 5.46 2.38 12.54 2.71 18.8 1.68-1.01 3.37-2.01 5.16-2.83 3.62.13 7.25.22 10.86-.08-.14-3.57-.29-7.15-.65-10.71-.37-3.28-.2-6.58.05-9.87-.2-6.15-.75-12.28-1.08-18.42a73.63 73.63 0 0 0-.42-3.03l-.2-.96 2.75.68-1.03-5.79z"/><path fill="#222123" opacity=".56" d="M281.05 25.21l4.05.73-1.57 3.13-2.3-1.36-.18-2.5z"/><path fill="#020203" opacity=".75" d="M171.41 27.03l2.7-.33c-.36 3.45-.57 6.96.04 10.4l.23 1.13c-.96.07-1.91.2-2.85.4-.5-1.41-.84-2.88-1.28-4.31l-5.41.6c1.38-1.38 2.82-2.67 4.23-4.01l-4.66-.76 5.79.23 1.21-3.35z"/><path fill="#030303" opacity=".77" d="M204.84 27.87l1.57-.78 1.23 3.74 3.54.75 1.97 3.21-.06.69-5.48-.49-1.03 4-2.83-.23 1.09-10.89z"/><path fill="#3a3432" d="M174.15 37.1c3.81-6.95 11.35-9.97 19.09-9.28l3.13.39c.98.18 1.95.39 2.92.64l.2.96c-5.09.08-10.24-.59-15.28.25-4.44 2.58-4.82 8.23-4.35 12.8-.28-1.81-.77-3.58-1.2-5.36-.7 1.55-1.48 3.07-2.2 4.62l-3.63-.26c1.45-.52 2.82-1.19 4.24-1.78-.92-.6-1.81-1.21-2.69-1.85l-.23-1.13z"/><path fill="#968774" d="M257.13 30.81l1.78-3.07c5.95-2.04 10.58 3.46 16.23 2.47-2.36.91-4.64 2.02-6.94 3.09l.49 1.76c2.47.49 4.96.98 7.38 1.74a147.16 147.16 0 0 0-2.15.11 52.81 52.81 0 0 0 1.7 1.64c-3.52 6.42-7.49 12.75-9.65 19.78l3.08 1.62c-5.79 2.76-9.43 10.08-8.49 16.3-.21.03-.62.07-.82.1l-4.56.93 1.57 7.75c-2.81-1.46-6.04-1.93-9.06-.86l4.79 1.7-2.12 5.93 4.35 6.4c-2.97-.41-6.35.19-7.6 3.29l-.27.47c-1.98-1.04-3.96-2.08-6.01-2.99l-.06-7.51c2.62 1.45 4.89 3.43 7.04 5.5l1.38-2.97c-1.59-2.94-3.3-5.81-5.29-8.49 6.64-6.04 9.01-14.78 12.82-22.58l1.88 2.02c1.11-1.38 2.27-2.73 3.4-4.1l-3.25-2.13c1.49-2.9 3.05-5.75 4.44-8.7 1.33-2.51 2.32-5.2 2.54-8.06-.99 1.01-1.94 2.05-2.87 3.11l-.9-2.86c.96-3.68 2.65-7.1 4.76-10.25l-2.44-1.04-2.17 2.88-2.86-1.71-2.12-1.27m8.94 6.19l-1.5 4.57c3.14-.83 7.02-1.39 8.71-4.57-2.4-.17-4.81-.13-7.21 0z"/><path fill="#292728" opacity=".67" d="M288.5 28.4l2.78 1.88-1.3 2.51-3.76-2.15 2.28-2.24z"/><path fill="#938370" d="M179.86 42.86c-.47-4.57-.09-10.22 4.35-12.8 5.04-.84 10.19-.17 15.28-.25a73.63 73.63 0 0 1 .42 3.03c-4.14-3.01-9.37-2.52-14.07-1.39l.31 7.33c-1.6 10.36 3.06 19.94 2.63 30.28.57 1.01 1.27 1.93 1.95 2.86-1.79.82-3.48 1.82-5.16 2.83-.33-6.26 1.14-13.34-2.71-18.8-2.44-3.89-1.97-8.75-3-13.09z"/><path fill="#bdac95" d="M275.14 30.21l.81-.12c5.39.21 8.59 5.82 14.11 6a8.13 8.13 0 0 1-4.73 5.34c-2.9-1.88-5.98-3.55-9.26-4.63-2.42-.76-4.91-1.25-7.38-1.74l-.49-1.76c2.3-1.07 4.58-2.18 6.94-3.09z"/><path fill="#e5d2b9" d="M185.84 31.45c4.7-1.13 9.93-1.62 14.07 1.39l1.08 18.42c-3.95 2.18-9.45 2.62-13.21-.1-1.73-3.77-1.08-8.29-1.63-12.38l-.31-7.33z"/><path fill="#030303" opacity=".78" d="M262.11 33.79l2.17-2.88 2.44 1.04c-2.11 3.15-3.8 6.57-4.76 10.25l-2.92-1.19.84-4.05-4.92-2.25c1.4-.92 2.85-1.77 4.29-2.63l2.86 1.71z"/><path fill="#9d9ba2" d="M164.84 34.92l5.41-.6 1.28 4.31c.94-.2 1.89-.33 2.85-.4l2.69 1.85-4.24 1.78c-2.75-.02-5.04-1.72-7.4-2.91-.27-1.34-.08-2.75-.59-4.03z"/><path fill="#9d9ca4" d="M254.96 34.71l4.92 2.25-.84 4.05 2.92 1.19.9 2.86-.98 1.38c-3.61-1.66-6.59-4.33-8.34-7.94l1.42-3.79z"/><path fill="#4d4846" d="M266.07 37c2.4-.13 4.81-.17 7.21 0-1.69 3.18-5.57 3.74-8.71 4.57l1.5-4.57z"/><path fill="#65584b" d="M273.92 36.91l2.15-.11c3.28 1.08 6.36 2.75 9.26 4.63 2.45 2.33 4.96 4.78 8.36 5.62-1.83 3.22-3.91 6.29-5.99 9.35a165.16 165.16 0 0 0-2.08 3.3c-.93 1.52-1.85 3.04-2.71 4.61-3.98 8.77-11.23 16.24-12.24 26.2l-3.42 3.41-2.36-1.55c-3.92-2.54-7.97-4.96-12.41-6.5l-4.79-1.7c3.02-1.07 6.25-.6 9.06.86 2.91 1.51 5.87 2.93 8.98 4.01 4.81-8.45 8.14-17.68 13.45-25.84 3.07-5.77 5.95-11.69 7.99-17.92-3.73-2.44-7.73-4.43-11.55-6.73a52.81 52.81 0 0 1-1.7-1.64z"/><path opacity=".79" d="M176.46 42.12l2.2-4.62 1.2 5.36-.03 8.4-.64-7.85c-1.89 6.78-9.49 4.25-13.19.6-.02-1.71-.38-3.38-.57-5.06 2.36 1.19 4.65 2.89 7.4 2.91l3.63.26z"/><path fill="#b9a895" d="M186.15 38.78c.55 4.09-.1 8.61 1.63 12.38 3.76 2.72 9.26 2.28 13.21.1-.25 3.29-.42 6.59-.05 9.87.12-5.71-6.84-7.51-10.92-5.06-2.38 3.81-1.39 8.72-1.24 12.99.43-10.34-4.23-19.92-2.63-30.28z"/><path fill="#010101" opacity=".78" d="M253.54 38.5c1.75 3.61 4.73 6.28 8.34 7.94l.98-1.38c.93-1.06 1.88-2.1 2.87-3.11-.22 2.86-1.21 5.55-2.54 8.06l.14-2.08c-5.38 6.89-14.6-3.69-9.79-9.43z"/><path fill="#d5c2aa" d="M265.97 58.33c2.16-7.03 6.13-13.36 9.65-19.78 3.82 2.3 7.82 4.29 11.55 6.73-2.04 6.23-4.92 12.15-7.99 17.92-3.64-.01-7.01-1.52-10.13-3.25l-3.08-1.62z"/><path fill="#010101" opacity=".79" d="M204.14 48.21c-2.75-6.26 4.23-6.28 8.28-8.05l-.5 3.77c-2.47 1.65-5.07 3.08-7.78 4.28z"/><path fill="#030303" opacity=".79" d="M287.7 56.4c2.08-3.06 4.16-6.13 5.99-9.35l2.04.73-1.07 3.33 2.79 2.12c-.2 1.75-.36 3.5-.63 5.24l-3.66-3.67-3.16 3-2.3-1.4z"/><path fill="#d2bba1" d="M119.16 52.51l9.23.09c-3.09 1.96-6.24 3.91-8.74 6.64 5.11 1.11 10.29 1.81 15.45 2.69-.07 2.58-.04 5.17.01 7.75-3.15-.17-7.95-2.32-9.6 1.6.24 2.21 1.06 4.29 1.76 6.39-3.56-2.63-7.33-4.96-11.28-6.96l-3.82 5.94c3.47 2.98 7.13 5.74 11.03 8.13l-1.01 1.81c-1.78-.39-3.53-.93-5.25-1.5-2.69-2.52-5.09-5.32-7.55-8.05l2.31-6.15.98-2.41c-3.45-2.86-7.95-3.81-12.33-3.04l3.38 2.36-3.43.73-1.08 2.69c.67-4.57-.04-9.18-1.52-13.52 1.1-.18 2.2-.39 3.3-.6l1.62 3.33 1.63 3.56c4.23.33 8.47.52 12.71.43-1.81 1.63-3.33 3.62-3.48 6.17 2.36-1.39 4.57-3 6.66-4.75l3.94 1.83 3.07-4.56c-2.62-.75-5.24-1.46-7.88-2.11l-.09-3.64-.02-4.85z"/><path fill="#f9e4c6" d="M128.39 52.6c3.4-.3 8.43-.25 6.88 4.7l-.17 4.63c-5.16-.88-10.34-1.58-15.45-2.69 2.5-2.73 5.65-4.68 8.74-6.64z"/><path fill="#dbc8ae" d="M190.02 56.07c4.08-2.45 11.04-.65 10.92 5.06.36 3.56.51 7.14.65 10.71-3.61.3-7.24.21-10.86.08-.68-.93-1.38-1.85-1.95-2.86-.15-4.27-1.14-9.18 1.24-12.99m3.34 2.19l-3.22 4.66 4.25 5.23c2.55-.6 3.88-2.95 5.31-4.91l-4.16-4.86-2.18-.12z"/><path fill="#858489" d="M290 57.8l3.16-3 3.66 3.67-2.33 3.05c-3.04-.11-6.05-.66-8.87-1.82l2.08-3.3 2.3 1.4z"/><path fill="#c3b091" d="M102.62 60.43c5.36-1.77 11-2.31 16.56-3.07l.09 3.64c2.64.65 5.26 1.36 7.88 2.11l-3.07 4.56-3.94-1.83c-2.09 1.75-4.3 3.36-6.66 4.75.15-2.55 1.67-4.54 3.48-6.17-4.24.09-8.48-.1-12.71-.43l-1.63-3.56z"/><path fill="#a7927c" d="M135.27 57.3l6.95 1.34-4.35.62-.31 3.44-.14 2.28c-.15 3.62-2.12 6.63-4.84 8.88 1.93 10.27 11.29 17.74 21.38 19.19l-3.72-5.24 6.55 3.05.16-4.54 2.71-2.22c-1.1-1.28-2.2-2.58-3.44-3.73-2.22-1.25-4.4-2.64-5.91-4.73 3.65 1.45 7.1 3.35 10.54 5.26l.88.51c1.26 4.57-3.13 8.02-2.96 12.46.39 2.64 3.65 3.08 5.68 3.95-3.13 5.43-8.52 2.76-12.5-.07-.4 4.46.12 9.07 3.23 12.52 1.71-1.68 3.42-3.34 5.03-5.1.16 3.45.46 6.89.97 10.3-1.97 1.2-3.87 2.51-5.76 3.84l-.55 5.36-1.58 2.64-.74-3.16-6.44-.48 3.32-5.21.44-.75.45 5.4 3.8-.08c-.93-2.78-1.84-5.56-2.6-8.39-.07-4.86-.37-9.72-.7-14.56l-4.85 1.9.89 2.79c-4.04 4.17-10.27 5.27-15.08 1.76.8 5.43-2.33 9.26-7.97 9.02-1.45-2.78-3.54-5.32-4.3-8.41.18-3.46 3.3-5.7 5.58-7.93l4.36 1.3.57-5.93c2.83 3.51 5.24 7.35 7.49 11.25l7.28-3.13c-2.27-5.3-4.3-10.75-7.43-15.63-2.23-2.67-4.88-4.94-7.53-7.17-2.26 2.52-4.4 5.37-7.64 6.69l1.01-1.81 4.07-7.11c-.7-2.1-1.52-4.18-1.76-6.39 1.65-3.92 6.45-1.77 9.6-1.6-.05-2.58-.08-5.17-.01-7.75l.17-4.63z"/><path fill="#9c846c" d="M83.49 57.86c4.74-.13 9.48.17 14.21-.16 1.48 4.34 2.19 8.95 1.52 13.52L98.49 73l-2.99 3.59c-3.54.04-7.11.13-10.61-.51 2.99-4.2 8.68-1.79 12.45-3.57.72-4.52-.36-9.09-.82-13.58-4.89-.42-10.91.37-13.19 5.39-.78 3.53-.65 7.18-1.3 10.73-1.06-3.54-1.45-7.23-1.4-10.91l-5.42-.04a369.65 369.65 0 0 1-3.33-.02c3.54-.92 7.17-1.43 10.8-1.87l.81-4.35z"/><path fill="#928a7d" d="M193.36 58.26l2.18.12 4.16 4.86c-1.43 1.96-2.76 4.31-5.31 4.91l-4.25-5.23 3.22-4.66z"/><path fill="#fbe7d1" d="M83.33 64.32c2.28-5.02 8.3-5.81 13.19-5.39.46 4.49 1.54 9.06.82 13.58-3.77 1.78-9.46-.63-12.45 3.57-.97-.3-1.93-.64-2.86-1.03.65-3.55.52-7.2 1.3-10.73z"/><path fill="#fffce2" d="M137.87 59.26l4.35-.62 2.43.45c3.42 1.73 6.63 3.98 8.79 7.22-5.27-1.33-10.54-2.61-15.88-3.61l.31-3.44z"/><path fill="#e8d1ba" d="M144.65 59.09c4.79.29 8.66 3.24 13.02 4.83l3.26.95c1.11 2.98 2.48 5.87 4.36 8.44-4.71-.37-5.57 3.81-4.44 7.59-3.44-1.91-6.89-3.81-10.54-5.26 1.51 2.09 3.69 3.48 5.91 4.73l.37 3.93-12.24 3.13c-.81-1.46-1.61-2.93-2.48-4.36 1.08.29 2.18.55 3.27.81l2.72-4c-1.56-2.75-1.53-5.94-1.43-9-2.5-.44-4.69.74-6.62 2.2-.81-2.7-1.71-5.37-2.39-8.1l.14-2.28c5.34 1 10.61 2.28 15.88 3.61-2.16-3.24-5.37-5.49-8.79-7.22z"/><path fill="#524942" opacity=".92" d="M256.72 62.92l2.03-4.21 3.25 2.13-3.4 4.1-1.88-2.02z"/><path fill="#c5b39a" d="M269.05 59.95c3.12 1.73 6.49 3.24 10.13 3.25-5.31 8.16-8.64 17.39-13.45 25.84-3.11-1.08-6.07-2.5-8.98-4.01l-1.57-7.75c1.51-.34 3.03-.64 4.56-.93 1.13 3.79 4.75 6.44 8.58 4.34-2.36-1.83-4.88-3.53-7.76-4.44-.94-6.22 2.7-13.54 8.49-16.3m-5.02 7.47c.5 2.56.86 5.31 2.75 7.29l5.88-2.77c-.88-2.29-1.51-4.75-3.03-6.72-2 .34-3.78 1.36-5.6 2.2z"/><path opacity=".82" d="M282.91 64.31l2.71-4.61c2.82 1.16 5.83 1.71 8.87 1.82l-2.32 2.96c-3.08.21-6.18.17-9.26-.17zm44.11 192.55c2.68.72 5.17 2.03 7.18 3.97l2.15 2.82-3.82-.08-3 4.37-3.99-2.42 3.37-3.45-1.89-5.21z" fill="#010101"/><path fill="#c6b197" d="M157.67 63.92l2.5-3.43 8.2 5.23c4.67 5.46-.48 11.95-5.46 14.86l-1.18.83-.88-.51c-1.13-3.78-.27-7.96 4.44-7.59-1.88-2.57-3.25-5.46-4.36-8.44l-3.26-.95z"/><path fill="#bca58b" d="M54.46 67.77c4.1-2.13 8.25-4.18 12.43-6.17l2.17 3.18a89.27 89.27 0 0 1 2.82-.7l3.33.02-2.61 1.16 1.03 3.8-2.16-.3c-4.97-2.82-9.69 2.74-14.21 4.37.98 2.21 1.98 4.42 2.78 6.7l.83 2.98c-2.9-1.9-4.55-4.97-6.09-7.96-3.2 3.79-7.03 6.88-11.15 9.6-1.9 2.91-3.67 5.9-5.55 8.83 2.24 1.96 4.73 3.6 7.43 4.85a121.77 121.77 0 0 0 7.26-11.02l-1.67-2.45c7.4-.24 2.56 8.19-.53 10.92 4.75 4.55 9.07 11.22 5.48 17.76l5.64-.1c-.94 3.39-1.17 6.91-1.27 10.41l-2.18.46c.22-2.9.32-5.8.35-8.7h-3.26c-3.22-.03-6.44-.1-9.65-.28l-7.59-.37-.21 9.04c-3.27-.13-6.54-.44-9.71-1.25 1.64-10.1 2.18-20.79 8.48-29.35l-3.68-3.27c2.63-3.82 5.42-7.52 8.17-11.24l4.7 2.16c3.13-3.34 6.39-6.58 9.94-9.48l-1.32-3.6M37.23 97.2c-4.99 7.24-5.2 16.39-6.33 24.81l4.1-.17c.64-2.68 1.23-5.37 1.73-8.08 2.57-.68 7.09-1.83 6.47-5.26-1.77-.43-3.57-.72-5.36-1.03 1.21-2.85 2.48-5.67 3.89-8.42l-4.5-1.85m10.58 12.58c2.76-.16 5.5-.46 8.24-.85-.84-3.05-1.84-6.04-2.98-8.99-4.25 1.07-5.46 6.01-5.26 9.84z"/><path fill="#dcc4ad" d="M75.21 64.1l5.42.04c-.05 3.68.34 7.37 1.4 10.91-1.57-1.52-2.98-3.17-4.34-4.87-1.65 4.09-2.8 8.75-6.08 11.89-4.25 2.2-9.29 1.07-13.88 1.2-3.41 5.08-4.42 14.64 2.22 17.6 3.76 2.51 8.45 1.53 12.68 1.79 3.11 4.28 10.64-.39 11.76 6.3l-4.45.96c-2.71-6.5-11.03-2.59-16.01-1.55a142.87 142.87 0 0 1-2.24 4.87l-5.64.1c3.59-6.54-.73-13.21-5.48-17.76 3.09-2.73 7.93-11.16.53-10.92-1.52-.15-2.92-.74-4.34-1.24l-3.13 1.03c4.12-2.72 7.95-5.81 11.15-9.6 1.54 2.99 3.19 6.06 6.09 7.96l-.83-2.98c4.47-1.12 8.88-2.71 12.5-5.65-.39-1.8-.73-3.61-1.07-5.42l2.16.3-1.03-3.8 2.61-1.16z"/><path fill="#fef1d3" d="M100.35 65.44c4.38-.77 8.88.18 12.33 3.04l-.98 2.41c-4.57-1.53-10.17-2.78-13.21 2.11.19-.44.55-1.34.73-1.78l1.08-2.69 3.43-.73c-1.14-.76-2.25-1.58-3.38-2.36z"/><path fill="#c5ae93" d="M137.42 64.98l2.39 8.1-5.57 3.84 7.63 6.15 2.48 4.36 12.24-3.13-.37-3.93c1.24 1.15 2.34 2.45 3.44 3.73l-2.71 2.22-.16 4.54-6.55-3.05 3.72 5.24c-10.09-1.45-19.45-8.92-21.38-19.19 2.72-2.25 4.69-5.26 4.84-8.88z"/><path fill="#7f7669" d="M264.03 67.42c1.82-.84 3.6-1.86 5.6-2.2 1.52 1.97 2.15 4.43 3.03 6.72l-5.88 2.77c-1.89-1.98-2.25-4.73-2.75-7.29z"/><path fill="#af9880" d="M168.37 65.72l5.17 3.36-1.51 4.05c2.79 2.9 5.52 5.85 8.52 8.54 1.85 1.54 2.97 3.68 3.47 6.01l3.09-1.44 1.68-.43c2.68 4.43 4.81 9.26 5.06 14.5 1.65.3 3.3.61 4.94 1l1.56.95c-4.46-.2-8.92-.62-13.28-1.57-1.31-.32-2.61-.69-3.91-1.04-2.29-4.33.75-9.71-2.63-13.55-2.92-3.55-6.28-6.72-10.04-9.36-.79 4.35 2.31 7.57 5.21 10.3 1.62.89 3.4 1.36 5.19 1.78-2.63 1.29-5.17 2.72-7.7 4.19l3.15 6.15c-3.81-.31-7.61-.78-11.41-1.28 1.16-.37 2.31-.78 3.47-1.18-.94-5.71-4.44-12.34.11-17.39-1.87.41-3.75.78-5.6 1.27 4.98-2.91 10.13-9.4 5.46-14.86z"/><path fill="#fff6e3" d="M57.26 73.13c4.52-1.63 9.24-7.19 14.21-4.37l1.07 5.42c-3.62 2.94-8.03 4.53-12.5 5.65-.8-2.28-1.8-4.49-2.78-6.7z"/><path d="M98.49 73c3.04-4.89 8.64-3.64 13.21-2.11-.8 2.04-1.56 4.1-2.31 6.15 2.46 2.73 4.86 5.53 7.55 8.05 2.32 2.53 5.56 3.76 8.76 4.75-2.38 2.58-4.87 5.05-7.5 7.39l-2.53-.65.29 2.79 1.84.58c-5.25 5.77-2.74 13.12 1.92 18.31 2.39.26 4.8.38 7.2.41a198.88 198.88 0 0 1 6.9.28l.87-2.42c2.16 1.05 4.24 2.3 5.93 4.03l-3.45 3.34c-2.57-.09-5.14-.19-7.7-.39l-.93-.07c-10.07-4.24-22.44 4.11-30.77-4.57-2.67-3.58-3.52-8.24-5.95-12.03l4.6-2.66-5.3-.45c-.07-5.05-.15-10.11-.54-15.14l-1.66 11.99-3.86 2.14.97 5.05c6.99-.43 8.55 6.91 9.57 12.31-3.24 2.01-6.79 3.63-10.71 3.26l1.44-1.71c5.01-3.53 3.86-10.8-1.94-12.67-1.12-6.69-8.65-2.02-11.76-6.3-2.98-5.2-12.85.1-12.36-7.91-3.34-2.94-2.11-7.6-2.54-11.48 4.59-.13 9.63 1 13.88-1.2 3.28-3.14 4.43-7.8 6.08-11.89 1.36 1.7 2.77 3.35 4.34 4.87.93.39 1.89.73 2.86 1.03 3.5.64 7.07.55 10.61.51L98.49 73m13.21 20.1c.3 1.9.64 3.81 1 5.7-.96 1.48-1.9 2.96-2.8 4.47 4.63-.57 5.87-7.92 1.8-10.17m-8.22 8.35l1.7 2.68 4.25-.47c-1.67-1.44-3.85-1.84-5.95-2.21zm106.65 19.43c1.86 3.4 3.55 6.88 5.54 10.21l3.55-1.9.41 3.67c.46 4.47 1.63 8.82 2.82 13.14l.65 2.99c-.19 1.68-.37 3.36-.65 5.02-3.58 8.34-13.75 10.27-21.88 9.42 2-2.43 4.46-4.41 7.13-6.05l-4.18-1.99c1.02-9.88.66-19.84 1.33-29.75 1.79-1.55 3.51-3.18 5.28-4.76zm-63.36 27.83c1.24 8.6.17 17.33.68 25.98l-.04 9.28 4.62.5c-.5 1.34-1.09 2.64-1.59 3.99-2.63-2.14-6.56-4.09-9.66-1.65-4.48 2.72-2.52 11.18 3.16 10.6 3.16.82 5.48-1.61 7.42-3.69 1.21 4.2 1.38 8.6.46 12.88l-5.06 1.47c-2.26 3.54-2.56 7.74-3.39 11.74-6.3-1.57-13.99-10.82-19.64-3.43-2.47 3.48-6.63 7.53-4.47 12.15 2.42 6.3 9.1 8.98 13.58 13.53l-.5 2.17c-3.96 1.22-8.02.16-12.03.16-5.82 1.81-10.53 6.32-12.85 11.93-5.5-.06-10.8-1.64-15.82-3.77l-1.18-5.71-.75 6.51-5.51 1.6c-3.12 1.28-3.46 4.9-4.22 7.75l-5.22-.98c2.6-8.6-6.81-14.66-14.38-14.39-6.5 1-2.58-7.64-3.53-11.33 4.14-1.68 5.71-5.64 5.62-9.88 7.46-.19 15.08-.28 22.19 2.31 2.39 1.12 4.79.37 7.03-.69a59.09 59.09 0 0 1 4.94-1.17l-4.3-2.62 1.5-5.44c.71-4.61 3.93-7.79 8.29-9.08l-4.57-1.17a75.36 75.36 0 0 1 2.61-1.09c2.58-.04 5.17.02 7.75.08 5.16.65 10.36.39 15.52-.07 7.12.78 14.31 1.23 21.13 3.61-1.57-1.99-3.81-3.23-6.07-4.29l-.39-2.8-.47-3.68c-7.35-.09-15.08.39-21.94-2.72.4-1.98.78-3.97.98-5.98l-4.78 1.13c-.08-1.56-.2-3.12-.34-4.68 3.6-2.41 7.85-1.72 11.78-.68.61-1.15 1.21-2.3 1.76-3.48l3.19.6c3.01.73 5.9 1.83 8.81 2.88l1.55-3.17 7.96-.07c-.27-11.71-.1-23.43.17-35.14m-42.96 89.52c-1.12-3.75-.62-7.49 1.95-10.51-4.79.93-6.2 7.98-1.95 10.51z" fill="#fffffb"/><path d="M139.81 73.08c1.93-1.46 4.12-2.64 6.62-2.2-.1 3.06-.13 6.25 1.43 9l-2.72 4-3.27-.81-7.63-6.15 5.57-3.84zm14.18 94.9c4.26-.36 8.55-.62 12.82-.19 4.59 2.26 9.18 5.88 8.95 11.55l-6.84-.16 3.2 1.81c-.04 6.4 2.71 13.36-.85 19.26-1.02 2.1-1.34 4.42-1.74 6.69-.49 3.17-2.12 5.96-3.92 8.56-1.95-.22-3.91-.33-5.87-.26.4-4.82-4.71-7.79-5.27-12.47-2.55-7.41 2.03-15.18-.88-22.46l-.48-3.89c.22-2.82.59-5.63.88-8.44zm-14.74 84.58c1.95-1.81 4.27-3.21 6.92-3.69.5 4.87.78 10.05-1.77 14.45-1.85-1.59-3.46-3.41-4.89-5.37l3.57-.87-.4-2.48-3.43-2.04z" fill="#fffffe"/><path fill="#fffce5" d="M112.17 76.65l3.82-5.94c3.95 2 7.72 4.33 11.28 6.96-1.31 2.4-2.71 4.75-4.07 7.11-3.9-2.39-7.56-5.15-11.03-8.13z"/><path d="M191.05 73.73c2.82-1.07 5.87-1.13 8.69-.03-2.58 2.4-6.08 2.35-8.69.03zm32.96 50.87l2.97-3.74c5.91.38 12.25-1.03 17.76 1.78-1.18.66-2.3 1.42-3.56 1.91-5.72.15-11.45-.36-17.17.05z" fill="#221d19"/><path fill="#baa89a" d="M344.2 75.83c-.75-3.18 2.76-3.01 4.62-1.7 4.79 1.92 5.07 8.41 10.25 9.86 3.67-3.09 8.28-4.21 13-3.4l1.86 2.9-5.51 2.65-1.47-3.15c-3.78.58-1.36 3.91-.48 6.03.52.9 1.08 1.78 1.67 2.65-.97 3.83-2.25 8.14-6.1 10.02-2.75-5.53-4.41-12.41-10.33-15.49-2.83-2.14-6.42-.92-9.62-.84 2.42-2.16 5.47-3.35 8.5-4.37l-.95-2.63-3.75.36-1.69-2.89z"/><path fill="#b4a48f" d="M188.84 74.33l2.21-.6c2.61 2.32 6.11 2.37 8.69-.03l2.03.57.4 6.34c-1.3.47-2.33 1.45-3.61 1.97l-8.8.23-.92-8.48z"/><path fill="#28221d" d="M259.74 76.35l.82-.1c2.88.91 5.4 2.61 7.76 4.44-3.83 2.1-7.45-.55-8.58-4.34z"/><path fill="#030303" opacity=".76" d="M344.2 75.83l1.69 2.89 3.75-.36.95 2.63c-3.03 1.02-6.08 2.21-8.5 4.37l-1.03 1.12-2.01-2.64 3.03-2.87-2.17-4.33 4.19 1.18.1-1.99z"/><path fill="#fff4d3" d="M170.49 76.74c3.76 2.64 7.12 5.81 10.04 9.36l-4.83.94c-2.9-2.73-6-5.95-5.21-10.3z"/><path fill="#949499" d="M335.65 79.42c1.11-1.33 2.34-2.82 4.26-2.78l2.17 4.33-3.03 2.87 2.01 2.64c-.92.97-1.78 2-2.61 3.05-2.22-2.9-3.09-6.5-2.8-10.11z"/><path fill="#74614d" d="M162.91 80.58l5.6-1.27c-4.55 5.05-1.05 11.68-.11 17.39l-3.47 1.18-.48-.06c-2.03-.87-5.29-1.31-5.68-3.95-.17-4.44 4.22-7.89 2.96-12.46.3-.2.89-.62 1.18-.83z"/><path fill="#fff5d6" d="M122.19 86.59c3.24-1.32 5.38-4.17 7.64-6.69 2.65 2.23 5.3 4.5 7.53 7.17-4.69 3.95-10.28 6.6-15.43 9.87-6.76 4.19-7.51 17.13 1.88 18.61l-4.09 2.71c-4.66-5.19-7.17-12.54-1.92-18.31l-1.84-.58-.29-2.79 2.53.65c2.63-2.34 5.12-4.81 7.5-7.39-3.2-.99-6.44-2.22-8.76-4.75 1.72.57 3.47 1.11 5.25 1.5z"/><path opacity=".78" d="M334.79 94.11c-4.21-3.79-5.69-12.59.86-14.69-.29 3.61.58 7.21 2.8 10.11.46.62.93 1.22 1.41 1.83-1.35.79-2.71 1.57-4.1 2.29l-.97.46z"/><path fill="#635541" d="M232.14 80.8c3.84 1.74 7.55 3.94 11.76 4.7 1.99 2.68 3.7 5.55 5.29 8.49l-1.38 2.97c-2.15-2.07-4.42-4.05-7.04-5.5-4.47-1.43-8.94-2.9-13.18-4.94 1.47-1.94 3.01-3.83 4.55-5.72z"/><path fill="#fff1d5" d="M43.63 84.45l3.13-1.03c1.42.5 2.82 1.09 4.34 1.24l1.67 2.45a121.77 121.77 0 0 1-7.26 11.02c-2.7-1.25-5.19-2.89-7.43-4.85l5.55-8.83z"/><path fill="#3c332d" d="M184.31 85.79c1.74-1.13 3.52-2.2 5.45-2.98l8.8-.23c2.71.5 5.28 1.51 7.71 2.79-5.82-.22-11.76-1.12-17.48.44l-1.68.43-2.8-.45z"/><path fill="#fee9c8" d="M59.95 100.87c-6.64-2.96-5.63-12.52-2.22-17.6.43 3.88-.8 8.54 2.54 11.48-.49 8.01 9.38 2.71 12.36 7.91-4.23-.26-8.92.72-12.68-1.79z"/><path fill="#4a4647" d="M342.09 85.36c3.2-.08 6.79-1.3 9.62.84 5.92 3.08 7.58 9.96 10.33 15.49l-1.96.82c-2.78-5.24-3.77-14.1-11.27-14.17-3.41-.88-6.2 1.43-8.95 3.02l-1.41-1.83c.83-1.05 1.69-2.08 2.61-3.05l1.03-1.12z"/><path fill="#201f1f" opacity=".46" d="M366.47 89.02c-.88-2.12-3.3-5.45.48-6.03l1.47 3.15-1.95 2.88z"/><path fill="#d4bfa4" d="M175.7 87.04l4.83-.94c3.38 3.84.34 9.22 2.63 13.55l3.91 1.04c-1.79.43-3.56.94-5.32 1.45-2.16-1.89-4.97-2.1-7.7-2.04 1.95 2.32 3.67 4.95 3.35 8.14l1.95-1.11c2 2.45 3.73 5.28 6.43 7.04 3.53.69 7.74-.93 8.46-4.82 3.18-1.15 6.36-2.73 9.8-2.82 3.23.52 6.47 2.58 9.73.9 2.51 6.16-4.83 8.11-7.75 12-1.75 2.37-3.7 4.58-5.89 6.54-1.7.89-3.44 1.68-5.17 2.5-1.62-3.26-3.42-6.42-5.23-9.58-2.63 2.15-5.9 4.06-7.22 7.33 1.41 6.7-1.04 13.27-1.19 19.96l-.4-2.92-2.22 1.13c-.56 3.04-.6 6.62-3.64 8.33-.62 4.69-.1 11.67-6.88 10.57 3.19-2.37 5.13-5.76 3.99-9.81l-5.47-.64c2.47-1.25 5.44-1.95 7.35-4.06 4.78-8.98-3.83-18.87.37-27.86l-4.62 3.65c-2.21-3.35-3.94-7-5.03-10.88l6.84 1.25-1.44-1.79c3.08.01 6.16-.02 9.24-.16-5.43-7.19-12.75-.98-18.23 2.48-.51-3.41-.81-6.85-.97-10.3-1.61 1.76-3.32 3.42-5.03 5.1-3.11-3.45-3.63-8.06-3.23-12.52 3.98 2.83 9.37 5.5 12.5.07l.48.06c3.8.5 7.6.97 11.41 1.28l-3.15-6.15c2.53-1.47 5.07-2.9 7.7-4.19-1.79-.42-3.57-.89-5.19-1.78m18.34 29.04c3.38 1.93 7.32 1.82 11.07 1.67-2.82-2.85-8.06-5.97-11.07-1.67m-19.53 7.73c3.74.03 7.65-.24 10.27-3.25l-4.99-2.17c-1.87 1.7-3.64 3.5-5.28 5.42z"/><path fill="#c3af9b" d="M252.48 85.87c4.44 1.54 8.49 3.96 12.41 6.5-1.48 4.95-2.96 10.39-7.64 13.3-.59-2.57-.96-5.27-2.54-7.47l-4.35-6.4 2.12-5.93z"/><path fill="#edd5c0" d="M137.36 87.07c3.13 4.88 5.16 10.33 7.43 15.63-2.41 1.08-4.84 2.12-7.28 3.13-2.25-3.9-4.66-7.74-7.49-11.25l-.57 5.93-4.36-1.3c-2.28 2.23-5.4 4.47-5.58 7.93.76 3.09 2.85 5.63 4.3 8.41-9.39-1.48-8.64-14.42-1.88-18.61 5.15-3.27 10.74-5.92 15.43-9.87z"/><path fill="#79726d" d="M219.55 96.19c3.22-2.74 5.54-6.3 8.04-9.67 4.24 2.04 8.71 3.51 13.18 4.94l.06 7.51c-3.91-2.09-8.35-2.01-12.64-1.91-1.58-.01-3.16-.15-4.74-.16l-.48 6.38c-.82-.62-1.62-1.25-2.4-1.91-.46-1.7-.77-3.44-1.02-5.18z"/><path fill="#e7d1b8" d="M339.86 91.36c2.75-1.59 5.54-3.9 8.95-3.02 7.5.07 8.49 8.93 11.27 14.17l.1.3-.8.86c-6.55 2.38-11.76 7.5-18.61 9.09-.47-5.24-1.83-11.1-6.5-14.22 2.23-2.85 5.9-3.46 9.14-4.53-2.55-.21-5.1-.4-7.65-.36 1.39-.72 2.75-1.5 4.1-2.29z"/><path fill="#8e8c93" d="M370.68 89.97l5.56-2.58c2.25 6.49-4.73 10.14-9.44 12.58-1.78 5.52 3.75 10.67.62 16.26l-3.56.41-1.4-4.03 2.57-2.56-.91-2.31-2.39 1.7c-.49-2.22-.96-4.44-1.55-6.63l-.1-.3 1.96-.82c3.85-1.88 5.13-6.19 6.1-10.02.79.97 1.64 1.9 2.5 2.83l.04-4.53z"/><path fill="#d6c1b0" d="M88.92 100.58l1.66-11.99c.39 5.03.47 10.09.54 15.14l5.3.45-4.6 2.66c2.43 3.79 3.28 8.45 5.95 12.03 8.33 8.68 20.7.33 30.77 4.57-1.98.19-3.95.5-5.93.71l-62.19-.5c.1-3.5.33-7.02 1.27-10.41 4.66-1.95 9.81-1.78 14.06 1.06l1.04-1.13c-.98 5.97 4.47 8.51 9.54 8.46l-1.44 1.71c3.92.37 7.47-1.25 10.71-3.26-1.02-5.4-2.58-12.74-9.57-12.31l-.97-5.05 3.86-2.14m-24.95 15.6c-.54 2.94 1 6.23 3.99 7.12 2.72.12 5.44-.03 8.16-.18-.98-6.22-6.53-8.04-12.15-6.94z"/><path fill="#907c65" d="M267.25 93.92l3.42-3.41c.38 6.43-.59 12.72-4.84 17.82-2.93-.66-5.84-1.42-8.58-2.66 4.68-2.91 6.16-8.35 7.64-13.3l2.36 1.55z"/><path fill="#c0aa96" d="M111.7 93.1c4.07 2.25 2.83 9.6-1.8 10.17.9-1.51 1.84-2.99 2.8-4.47l-1-5.7z"/><path fill="#d8c2a8" d="M330.94 96l3.85-1.89.97-.46c2.55-.04 5.1.15 7.65.36-3.24 1.07-6.91 1.68-9.14 4.53 4.67 3.12 6.03 8.98 6.5 14.22-5.6 1.53-10.23 8.17-16.44 5.97-1.17-3.54-2.82-6.89-4.74-10.08-.03 3.04-1.29 6.88 1.47 9.13.96 1.01 1.95 2 2.93 2.99l-6.67 3.64c-2.26-3.7-4.45-7.44-6.61-11.19-.32-.59-.61-1.19-.94-1.76l2.15-3.94 1.55-.46c5.78-1.85 11-5.12 16.87-6.77l.6-4.29m-2.92 11.24c-.9 2.22-1.69 4.48-2.32 6.79 2.13.54 4.27 1.06 6.42 1.5.73-2.05 1.84-4.08 1.83-6.31-1.27-1.75-4-1.36-5.93-1.98z"/><path fill="#39312b" d="M194.3 96.55c4.31-1.07 6.9 2.39 8.81 5.68l-2.09.11-.67-.08-1.56-.95c-1.56-1.53-3.03-3.14-4.49-4.76z"/><path fill="#ccb6a2" d="M223.45 96.9l4.74.16-4.78 1.25c5.37 6.29 14.87 3.54 22.01 6.25l1.42-2.6.27-.47-.19 1.06c-.21 1.28-.39 2.56-.56 3.85l-23.39-3.12.48-6.38z"/><path fill="#fdead3" d="M228.19 97.06c4.29-.1 8.73-.18 12.64 1.91 2.05.91 4.03 1.95 6.01 2.99l-1.42 2.6c-7.14-2.71-16.64.04-22.01-6.25 1.59-.43 3.16-.91 4.78-1.25z"/><path fill="#6f655c" opacity=".9" d="M317.27 103.44c4.71-2.19 9.08-5.01 13.67-7.44l-.6 4.29c-5.87 1.65-11.09 4.92-16.87 6.77 1.26-1.21 2.48-2.47 3.8-3.62z"/><path fill="#fbe2c9" d="M37.23 97.2l4.5 1.85-3.89 8.42 5.36 1.03c.62 3.43-3.9 4.58-6.47 5.26L35 121.84l-4.1.17c1.13-8.42 1.34-17.57 6.33-24.81z"/><path fill="#51473d" d="M247.11 101.49c1.25-3.1 4.63-3.7 7.6-3.29 1.58 2.2 1.95 4.9 2.54 7.47 2.74 1.24 5.65 2 8.58 2.66-4.79.44-5.68 5.49-7.46 9.04-1.65 3.8-4.96 6.44-7.32 9.76-.28-.78-.54-1.56-.77-2.35-.65-2.45-.4-5.03.19-7.46 2.48-2.81 4.72-5.81 6.67-9.01-3.3-2.12-6.71-4.05-10.22-5.76l.19-1.06z"/><path fill="#87745e" d="M47.81 109.78c-.2-3.83 1.01-8.77 5.26-9.84 1.14 2.95 2.14 5.94 2.98 8.99-2.74.39-5.48.69-8.24.85z"/><path fill="#806e60" d="M145.97 101.98l4.85-1.9c.33 4.84.63 9.7.7 14.56a60.4 60.4 0 0 1-1.65 3.07l-.44.75c-.52-4.62-1.17-9.25-2.57-13.69l-.89-2.79z"/><path fill="#f8e3c2" d="M174.05 100.1c2.73-.06 5.54.15 7.7 2.04l5.32-1.45c4.36.95 8.82 1.37 13.28 1.57l.67.08 7.22 1.17 3.58.72c1.75.58 3.48 1.25 5.21 1.93l-3.26 1.27c-3.26 1.68-6.5-.38-9.73-.9-3.44.09-6.62 1.67-9.8 2.82-.72 3.89-4.93 5.51-8.46 4.82-2.7-1.76-4.43-4.59-6.43-7.04l-1.95 1.11c.32-3.19-1.4-5.82-3.35-8.14z"/><path fill="#483b2e" d="M220.57 101.37l2.4 1.91c2.27 1.8 5.07 2.69 7.92 3.02l1.28 1.57-.36 3.47-.22 1.87c-4.7-.63-7.33-4.82-9.96-8.26-.38-1.19-.73-2.38-1.06-3.58z"/><path fill="#cfb9a3" d="M103.48 101.45c2.1.37 4.28.77 5.95 2.21l-4.25.47-1.7-2.68z"/><path fill="#93816a" d="M222.97 103.28l23.39 3.12.56-3.85c3.51 1.71 6.92 3.64 10.22 5.76-1.95 3.2-4.19 6.2-6.67 9.01-1.73 1.71-4.05 2.54-6.4 2.98-.03-4.08 2.36-9.7-1.79-12.53-3.62-1.34-7.61-.94-11.39-1.47-2.85-.33-5.65-1.22-7.92-3.02z"/><path fill="#363437" d="M359.38 103.67l.8-.86 1.55 6.63c-2.42 1.55-5.15 2.51-7.83 3.48 1.46-3.28 3.48-6.27 5.48-9.25z"/><path fill="#b2a088" d="M211.82 104.23l7.2.56c2.56 5.5 2.7 12.09 7.96 16.07l-2.97 3.74c5.72-.41 11.45.1 17.17-.05-1.87.68-3.78 1.25-5.69 1.8-4.43 6.46-1.41 14.04.71 20.7l-2.48.14c-.71-5.4-4.25-9.87-5.04-15.29-2.28-4.04-6.45-.89-9.05.96l-.41-3.67-3.55 1.9c-1.99-3.33-3.68-6.81-5.54-10.21l-4.11-1.45c2.92-3.89 10.26-5.84 7.75-12l3.26-1.27c-1.73-.68-3.46-1.35-5.21-1.93m.01 16.25c4.12-.09 8.24-.13 12.35-.03l-3.59-4.18c-3.42.09-6.55 1.62-8.76 4.21z"/><path fill="#867666" d="M340.77 112.76c6.85-1.59 12.06-6.71 18.61-9.09-2 2.98-4.02 5.97-5.48 9.25l.42 1.82c1.49.03 2.99-.01 4.49-.04l2.09 4.25c-1.44.78-2.97 1.36-4.45 2.05-2.8-2.18-5.26-4.75-7.36-7.62l-4.4 2.5c-8.03 4.96-18.37 6.71-24.66 14.09l-3.09-.28.38-5.28 6.67-3.64-2.93-2.99 3.27.95c6.21 2.2 10.84-4.44 16.44-5.97z"/><path fill="#e0c8b2" d="M131.78 106.53c4.81 3.51 11.04 2.41 15.08-1.76 1.4 4.44 2.05 9.07 2.57 13.69l-3.32 5.21 6.44.48.74 3.16c-3.89-1.92-8.34-2.23-12.43-.76-1.36-.04-2.72-.11-4.09-.04l.4-2.61 3.45-3.34 4.46-.86c.31-3.28 1.66-9.26-3.1-9.74-6.8-1.56-9.03 7.28-15.06 8.71-2.4-.03-4.81-.15-7.2-.41l4.09-2.71c5.64.24 8.77-3.59 7.97-9.02z"/><path fill="#746451" d="M219.02 104.79l2.61.16c2.63 3.44 5.26 7.63 9.96 8.26l.22-1.87c2.86 2.83 7.33 3.14 9.07-1.04-1.86.47-3.71.98-5.55 1.51l-3.16-3.94-1.28-1.57c3.78.53 7.77.13 11.39 1.47 4.15 2.83 1.76 8.45 1.79 12.53 2.35-.44 4.67-1.27 6.4-2.98-.59 2.43-.84 5.01-.19 7.46-1.87-.65-3.71-1.4-5.54-2.14-5.51-2.81-11.85-1.4-17.76-1.78-5.26-3.98-5.4-10.57-7.96-16.07z"/><path fill="#fffbe9" d="M63.93 108.37c4.98-1.04 13.3-4.95 16.01 1.55l-3.15 3.25-1.04 1.13c-4.25-2.84-9.4-3.01-14.06-1.06a142.87 142.87 0 0 0 2.24-4.87z"/><path fill="#94877a" d="M297.72 110.61c4.28-2.56 9.42-2.4 14.2-3.09l-2.15 3.94c.33.57.62 1.17.94 1.76l-1.05 2.04c-2.8-3.8-7.22-5.9-11.94-4.65z"/><path fill="#8b8071" d="M328.02 107.24c1.93.62 4.66.23 5.93 1.98.01 2.23-1.1 4.26-1.83 6.31l-6.42-1.5c.63-2.31 1.42-4.57 2.32-6.79z"/><path fill="#b1abb2" d="M232.17 107.87l3.16 3.94 5.55-1.51c-1.74 4.18-6.21 3.87-9.07 1.04l.36-3.47z"/><path fill="#030303" opacity=".8" d="M361.73 109.44l2.39-1.7.91 2.31-2.57 2.56 1.4 4.03-2.96 2.31-2.09-4.25-4.49.04-.42-1.82c2.68-.97 5.41-1.93 7.83-3.48z"/><path fill="#837364" d="M79.94 109.92l4.45-.96c5.8 1.87 6.95 9.14 1.94 12.67-5.07.05-10.52-2.49-9.54-8.46 1.03-1.1 2.09-2.18 3.15-3.25m.31 4.29l.09 3.27 3.75 1.35c2.21-2.24 1.35-5.3.4-7.9-1.45 1.04-2.86 2.15-4.24 3.28z"/><path d="M161.18 115.47c5.48-3.46 12.8-9.67 18.23-2.48-3.08.14-6.16.17-9.24.16l1.44 1.79-6.84-1.25c1.09 3.88 2.82 7.53 5.03 10.88l4.62-3.65c-4.2 8.99 4.41 18.88-.37 27.86-1.91 2.11-4.88 2.81-7.35 4.06l5.47.64c1.14 4.05-.8 7.44-3.99 9.81-4.82.32-9.64.22-14.46.16l-.24-4.28c3.53-1.8 7.08-3.54 10.67-5.19l-7.91.68c-1.03-2.42-2.08-4.84-2.72-7.39.84-7.51.73-15.07 1.35-22.6.21-1.78.38-3.57.55-5.36 1.89-1.33 3.79-2.64 5.76-3.84zm-123.09-.71l7.59.37.76 3.04c3.35.7 6.42-.52 8.89-2.76h3.26l-.35 8.7c-6.01 1.08-12.15.31-18.21.59l-3.7-.45c.52-.16 1.03-.3 1.55-.45l.21-9.04zm189.72 45.49c-.92-2.74-3.89-5.1-2.69-8.21 7.75 7.61 7.3 20.41-.43 27.85l-.95-1.78c3.7-5.11 6.31-11.58 4.07-17.86zM37.94 206.83l2.71-.65 17.13.13 1.01.56-.83 8.38c-3.08.04-6.17.02-9.25-.05l-2.88-.04c-2.56-.01-5.13.01-7.7.04l-.19-8.37z" fill="#fff"/><path fill="#53483e" d="M319.59 108.65c1.92 3.19 3.57 6.54 4.74 10.08l-3.27-.95c-2.76-2.25-1.5-6.09-1.47-9.13z"/><path fill="#fde6ce" d="M126.92 118.67c6.03-1.43 8.26-10.27 15.06-8.71 4.76.48 3.41 6.46 3.1 9.74l-4.46.86c-1.69-1.73-3.77-2.98-5.93-4.03l-.87 2.42a198.88 198.88 0 0 0-6.9-.28z"/><path fill="#ecd5be" d="M297.72 110.61c4.72-1.25 9.14.85 11.94 4.65 1.96 3.75 3.63 7.64 5.47 11.44-3.9 2.32-8.97 8.87-13.61 4.85.67-1.03 1.35-2.05 2.07-3.05l-2.51-5.25-4.61.41c-1.72-3.28-3.11-6.71-3.94-10.32l5.19-2.73z"/><path fill="#fff4db" d="M80.25 114.21l4.24-3.28c.95 2.6 1.81 5.66-.4 7.9l-3.75-1.35-.09-3.27z"/><path fill="#4b3f36" d="M291.61 115.53l.92-2.19c.83 3.61 2.22 7.04 3.94 10.32l4.61-.41 2.51 5.25c-.72 1-1.4 2.02-2.07 3.05l-.4.69 1.07 2.12-1.18 1.88-2.83.57c-.47-2.92-.91-5.87-1.86-8.68-1.95-3.41-3.39-8.94-8.33-8.52-4.76.94-8.67 4.04-12.31 7.08-1.88-.39-3.77-.71-5.68-.88 7.33-3.14 13.71-8.35 21.61-10.28z"/><path fill="#fefefe" d="M194.04 116.08c3.01-4.3 8.25-1.18 11.07 1.67-3.75.15-7.69.26-11.07-1.67z"/><path fill="#574c43" d="M309.66 115.26l1.05-2.04 6.61 11.19-.38 5.28c-.66-.96-1.24-1.97-1.81-2.99-1.84-3.8-3.51-7.69-5.47-11.44z"/><path opacity=".83" d="M344.69 115.88l4.4-2.5c2.1 2.87 4.56 5.44 7.36 7.62-1.21.56-2.39 1.19-3.57 1.79a17.76 17.76 0 0 1-8.19-6.91z"/><path fill="#dbd7dc" d="M45.68 115.13l9.65.28c-2.47 2.24-5.54 3.46-8.89 2.76l-.76-3.04z"/><path fill="#362d24" d="M149.87 117.71l1.65-3.07 2.6 8.39-3.8.08-.45-5.4z"/><path fill="#f6dfcc" d="M63.97 116.18c5.62-1.1 11.17.72 12.15 6.94-2.72.15-5.44.3-8.16.18-2.99-.89-4.53-4.18-3.99-7.12z"/><path fill="#fefdfe" d="M211.83 120.48c2.21-2.59 5.34-4.12 8.76-4.21l3.59 4.18c-4.11-.1-8.23-.06-12.35.03z"/><path fill="#302820" d="M174.51 123.81c1.64-1.92 3.41-3.72 5.28-5.42l4.99 2.17c-2.62 3.01-6.53 3.28-10.27 3.25z"/><path d="M182.51 126.22c1.32-3.27 4.59-5.18 7.22-7.33 1.81 3.16 3.61 6.32 5.23 9.58 3.64 6.67 1.92 14.74 5.43 21.48-1.85 1.45-3.92 2.58-5.99 3.66l4.4 1.17-3.81 6.67c-5.29 2.56-11.11 3.6-16.97 2.93.87-6.12 3.23-11.97 3.3-18.2.15-6.69 2.6-13.26 1.19-19.96zm18.46 42.43c7.23-3.39 18.04.96 17.01 9.96l4.46.19.97 3.33-.81 1.94-.71 2.48c-1.46 5.54-2.14 11.26-2.1 17l-.05.42c-1.37-1.11-2.67-2.31-3.98-3.49l-4.89 8.07-3.66-.23c-.33-1.12-.61-2.26-.9-3.38-3.03-8.16-1.88-16.92-2.89-25.38-.44-2.26.7-4.27 1.73-6.18l-4.18-4.73zm-89.76 86.6c1.93-5.23 8.53-5.03 12.93-6.96 4.64 6.32-4.01 9.8-8.32 12.67l-4.61-5.71z" fill="#fffffd"/><path fill="#706256" d="M206.02 119.43l4.11 1.45-5.28 4.76c-1.69.77-3.48 1.26-5.28 1.71l.56-1.38c2.19-1.96 4.14-4.17 5.89-6.54z"/><path fill="#b6a186" d="M275.68 126.69c3.64-3.04 7.55-6.14 12.31-7.08 4.94-.42 6.38 5.11 8.33 8.52l-1.01 2.66c-2.72-.72-5.42-1.5-8.08-2.43l.01 2.32c-1.69 4.68-4.29 8.94-6.81 13.21l.36 2.51c.23 1.65.44 3.3.59 4.96-1.31-1.48-2.05-3.99-4.26-4.33-6.69-1.25-13.5-1.86-20.29-2.26 1.93 1.18 3.85 2.38 5.73 3.64-2.39.19-4.79.18-7.17-.05l-.44-3.82-4.08-.93.34-2.14c2.59.43 5.13 1.17 7.59 2.07l-1.84-3.63c6.89.7 13.81.38 20.69-.24l-2.91-6.64c3.83 1 7.39 3.97 10.76-.01-2.06-.83-4.26-1.22-6.48-1.08l-.53-4.62-2.81-.63z"/><path fill="#88735d" d="M244.74 122.64l5.54 2.14.77 2.35 6.24.21-1.12.19-4.37.58-.82.08.39 11.38 4.03.24 1.56.1 1.84 3.63c-2.46-.9-5-1.64-7.59-2.07l-.34 2.14-.58 4.84-6.73 2.13c-3.01.4-4.99 2.83-6.96 4.88l-4.68-3.38-.14 2.91c-1.46-2.15-2.24-4.64-2.94-7.11l-5.01.63-.73.48-.65-2.99 1.94-1.3.55 2.54 8.78-.05 2.48-.14c-2.12-6.66-5.14-14.24-.71-20.7 1.91-.55 3.82-1.12 5.69-1.8 1.26-.49 2.38-1.25 3.56-1.91m-6.07 23.67c1.76 3.83 4.21-2.69 0 0z"/><path fill="#3e3731" d="M58.24 124.11l2.18-.46 62.19.5c-1.45 1.34-3.19 2.44-5.26 2.26-10.37.11-20.76.07-31.13-.53-1.42-.05-2.84-.07-4.26-.07-6.38.43-13.04-1.25-19.14 1.21l-2.99-.14c-6.51-1.45-13.81 1.18-19.8-2.18 6.06-.28 12.2.49 18.21-.59z"/><path fill="#a38c77" d="M122.61 124.15l5.93-.71.93.07-.16 1.89c-8.46 1.54-16.55 5.67-25.36 5.07-5.45-.77-8.59 4.8-13.68 5.59l-1.02-5.17c-2.16-.92-4.27-1.93-6.39-2.92l3.36-2.09c10.37.6 20.76.64 31.13.53 2.07.18 3.81-.92 5.26-2.26z"/><path fill="#c8b29a" d="M129.47 123.51l7.7.39-.4 2.61c-10.61-1.1-18.48 7.26-28.44 8.44-.2 4.79.23 10.82-5.72 12.01a42.07 42.07 0 0 1 .06 1.15c1.03 10.35.62 20.76-.2 31.12-2.79-10.15-.81-20.54-.62-30.78l-3.06-.84-.27-1.98 3.23-.97c-3.62-1.07-5.81-4.32-9.01-6.06-3.89-.6-7.43 1.95-10.95 3.26-.18-5.35-.02-10.71.17-16.05 1.42 0 2.84.02 4.26.07l-3.36 2.09 6.39 2.92 1.02 5.17c5.09-.79 8.23-6.36 13.68-5.59 8.81.6 16.9-3.53 25.36-5.07l.16-1.89m-29.16 9.88c-1.34 3.43.05 6.8 1.61 9.87l3.99.52-1.85-2.66 2.85-.64a65.09 65.09 0 0 0-.45-6.84c-2.05-.13-4.1-.21-6.15-.25z"/><path fill="#feeacc" d="M136.77 126.51c1.37-.07 2.73 0 4.09.04l1.11 6.23-3.06 3.44-.23-6.87c-4.48-.15-9.27-.86-13.32 1.52l3.16 3.7c-2.87 3.78-6.49-.87-9.11-2.59l-.46 5.22-5.81 1.53 2.15 2.58c4-.17 7.46 1.56 9.12 5.29-1.76.18-3.51.42-5.27.53l-1.16.05c-3.3-.2-6.62-.2-9.89.34l-.77.08-1.94.22-2.71.29a42.07 42.07 0 0 0-.06-1.15c5.95-1.19 5.52-7.22 5.72-12.01 9.96-1.18 17.83-9.54 28.44-8.44z"/><path fill="#fffff6" d="M140.86 126.55c4.09-1.47 8.54-1.16 12.43.76-.75 3.76-.61 7.62-.51 11.44l-1.31-1.78c-1.98-3.43-5.74-4.54-9.5-4.19l-1.11-6.23z"/><path fill="#f6e0c8" d="M153.29 127.31l1.58-2.64c-.62 7.53-.51 15.09-1.35 22.6-7.92-.12-15.84.38-23.75.67l-.12 36.02 7.68.41c-.43-11.54-.9-23.41.85-34.78.81 11.4.87 22.91.46 34.33-.49 1.07-1.02 2.12-1.55 3.17-2.91-1.05-5.8-2.15-8.81-2.88.3-12.16-.29-24.31-.07-36.47l-2.85.09c-.1 11.93.19 23.87-.27 35.78-.55 1.18-1.15 2.33-1.76 3.48-3.93-1.04-8.18-1.73-11.78.68l-.89.4c1.53-2.91 4.05-5.64 3.83-9.13-.21-9.67-.04-19.34.09-29 .52-2.02-1.23-2.68-2.9-2.73-.53 11.66.76 23.57-.91 35.06-.21-11.35-1.51-22.65-1.05-34.02l-1.63-.83c3.27-.54 6.59-.54 9.89-.34-2.42 1.84-1.57 5.21-1.79 7.84.29 9.64.44 19.28.13 28.92l3.02.56c-.25-12.46-.71-24.9-.2-37.37 1.76-.11 3.51-.35 5.27-.53 3.48-.32 6.96-.02 10.44.24l.81-1.55c1.99.58 4.01 1.02 6.07 1.26l-1.02-2.02c5.5 1.55 12.01-.71 10.76-7.56l1.31 1.78c-.1-3.82-.24-7.68.51-11.44m-32.39 20.73c.15 11.96.08 23.93-.39 35.91l3.15-.21c-.66-12.14.18-24.3-.27-36.45l-2.49.75z"/><path fill="#fbe4c5" d="M194.96 128.47l5.17-2.5-.56 1.38c-.07 2.22.2 4.43.48 6.63l2.22-4.63 1.03 2.66c-3.7 5.52.12 12.33-2.91 17.94-3.51-6.74-1.79-14.81-5.43-21.48z"/><path fill="#937f6d" d="M62.82 127.02c6.1-2.46 12.76-.78 19.14-1.21-.19 5.34-.35 10.7-.17 16.05 3.52-1.31 7.06-3.86 10.95-3.26 3.2 1.74 5.39 4.99 9.01 6.06l-3.23.97.27 1.98-1.35-.34c-6.16-.76-12.33.42-18.49.53l-.15 9.1-2.69-.16-.56-8.94c3.63-.36 7.26-.55 10.9-.66l-4.96-2.67-.17-7.13c-.13-2.97-.41-5.93-.71-8.89-5.96.17-12.06.62-17.79-1.43z"/><path fill="#b6a797" d="M199.57 127.35c1.8-.45 3.59-.94 5.28-1.71-.67 9.91-.31 19.87-1.33 29.75l4.18 1.99c-2.67 1.64-5.13 3.62-7.13 6.05 8.13.85 18.3-1.08 21.88-9.42-.51 3.66-1.4 7.25-2.47 10.78-6.95.21-13.95.58-20.87-.36l.98-4.82-5.1 1.84 3.81-6.67-4.4-1.17c2.07-1.08 4.14-2.21 5.99-3.66 3.03-5.61-.79-12.42 2.91-17.94l-1.03-2.66-2.22 4.63c-.28-2.2-.55-4.41-.48-6.63z"/><path fill="#d1baa0" d="M257.29 127.34c4.21-.69 8.5-.81 12.71-1.53 1.91.17 3.8.49 5.68.88l2.81.63.53 4.62c2.22-.14 4.42.25 6.48 1.08-3.37 3.98-6.93 1.01-10.76.01-6.09-2.23-12.37-3.58-18.57-5.5l1.12-.19z"/><path opacity=".88" d="M59.83 126.88l2.99.14c5.73 2.05 11.83 1.6 17.79 1.43.3 2.96.58 5.92.71 8.89-6.81.32-13.71.12-20.34-1.63l-2.1-.7.95-8.13z"/><path fill="#b49d86" d="M315.13 126.7l1.81 2.99 3.09.28c-1.04 1.08-2.18 2.06-3.31 3.04l-.56 2.96-7.09 3.52-6.88-5.13-1.07-2.12.4-.69c4.64 4.02 9.71-2.53 13.61-4.85z"/><path fill="#c2aa8c" d="M250.98 128.19l.82-.08c2.27 3.48 4.48 7.38 3.6 11.7l-4.03-.24a393.15 393.15 0 0 1-.39-11.38z"/><path fill="#ecd3b4" d="M251.8 128.11l4.37-.58c6.2 1.92 12.48 3.27 18.57 5.5l2.91 6.64c-6.88.62-13.8.94-20.69.24l-1.56-.1c.88-4.32-1.33-8.22-3.6-11.7z"/><path fill="#8b7c6f" d="M287.23 128.36l8.08 2.43 1.01-2.66c.95 2.81 1.39 5.76 1.86 8.68l2.83-.57 1.18-1.88c2.17 1.87 4.55 3.47 6.88 5.13l-3.06 1.43-1.98-1.63c1.53 2.12 2.74 4.5 2.83 7.17l-1.3-3.35c-4.83-1.39-9.84-1.92-14.81-2.54l-.19 4.48c-3.37-4.08-3.36-9.36-3.32-14.37l-.01-2.32z"/><path fill="#ffffec" d="M125.36 130.87c4.05-2.38 8.84-1.67 13.32-1.52l.23 6.87c-.11 2.88.26 5.8 1.8 8.31l1.02 2.02c-2.06-.24-4.08-.68-6.07-1.26l-.81 1.55c-3.48-.26-6.96-.56-10.44-.24-1.66-3.73-5.12-5.46-9.12-5.29l-2.15-2.58 5.81-1.53.46-5.22c2.62 1.72 6.24 6.37 9.11 2.59l-3.16-3.7z"/><path fill="#dec4a7" d="M219.63 132.86c2.6-1.85 6.77-5 9.05-.96.79 5.42 4.33 9.89 5.04 15.29-2.92.16-5.85.14-8.78.05l-.55-2.54-1.94 1.3c-1.19-4.32-2.36-8.67-2.82-13.14z"/><path fill="#1c1815" d="M287.24 130.68c-.04 5.01-.05 10.29 3.32 14.37l.23.63c.94 2.54 1.69 5.14 2.35 7.77-1.05-1.52-2.11-3.03-3.06-4.6.33-2.86-3.79-2.43-2.99.26-2.26-.51-4.36-1.47-6.3-2.71l-.36-2.51c2.52-4.27 5.12-8.53 6.81-13.21z"/><path fill="#f1d9c2" d="M100.31 133.39l6.15.25a65.09 65.09 0 0 1 .45 6.84l-2.85.64 1.85 2.66-3.99-.52c-1.56-3.07-2.95-6.44-1.61-9.87z"/><path fill="#968575" d="M141.97 132.78c3.76-.35 7.52.76 9.5 4.19 1.25 6.85-5.26 9.11-10.76 7.56-1.54-2.51-1.91-5.43-1.8-8.31l3.06-3.44m1.22 8.97l3.6-.01c.59-1.98 1.36-5.42-1.8-5.27-3.29-.33-2.53 3.27-1.8 5.28z"/><path d="M143.19 141.75c-.73-2.01-1.49-5.61 1.8-5.28 3.16-.15 2.39 3.29 1.8 5.27l-3.6.01zm-.39 52.76c-3.79-4.01 2.48-8.74 5.01-3.7l-1.63 3.77-3.38-.07z" fill="#fffffa"/><path fill="#eed5bb" d="M290.75 140.57c4.97.62 9.98 1.15 14.81 2.54l1.3 3.35c-2.06.85-4.26 1.28-6.48 1.35-3.13-.98-6.36-1.59-9.59-2.13l-.23-.63c.03-1.5.12-2.99.19-4.48z"/><path fill="#937f6b" d="M178.7 144.39l2.22-1.13.4 2.92c-.07 6.23-2.43 12.08-3.3 18.2 5.86.67 11.68-.37 16.97-2.93 1.69-.64 3.39-1.24 5.1-1.84l-.98 4.82c6.92.94 13.92.57 20.87.36 1.07-3.53 1.96-7.12 2.47-10.78.28-1.66.46-3.34.65-5.02l.73-.48 1.29 3.53c-1.2 3.11 1.77 5.47 2.69 8.21 2.24 6.28-.37 12.75-4.07 17.86-1.95-3.44-2.78-7.34-3.72-11.13l-21.41.34-.26 4.76-2.57-1.98.61-2.86c-6.29-.4-12.59-.78-18.89-.38a41.82 41.82 0 0 0 2.19 9.43c1.06 3.08 1.54 6.31 1.65 9.55l-.62 2.34c-4.82-5.51-3.37-13.65-7.03-19.83l-6.88-.56c-4.27-.43-8.56-.17-12.82.19l-.88 8.44c-.58-2.72-1.19-5.44-1.55-8.19-.44 2.69-1.56 5.17-4.11 6.46-.51-8.65.56-17.38-.68-25.98-.27 11.71-.44 23.43-.17 35.14l-7.96.07c.41-11.42.35-22.93-.46-34.33-1.75 11.37-1.28 23.24-.85 34.78l-7.68-.41c-.22-12.01.02-24.01.12-36.02 7.91-.29 15.83-.79 23.75-.67-.33 3.96-.34 7.94-.04 11.9l.24 4.28c4.82.06 9.64.16 14.46-.16 6.78 1.1 6.26-5.88 6.88-10.57 3.04-1.71 3.08-5.29 3.64-8.33m-46.12 38.77c2.73-2.1 1.43-6.18 1.84-9.19-.45-8.41.87-17-.88-25.29-2.47 11.07-.68 23.07-.96 34.48m8.89-33.61c-.76 9.09-.53 18.26-.16 27.38.14 1.95-.34 4.31 1.41 5.7 1.07-11.25 1.01-22.64.28-33.9-.39.2-1.15.62-1.53.82z"/><path fill="#d4bca4" d="M250.87 143.61l4.08.93.44 3.82c2.38.23 4.78.24 7.17.05l-5.73-3.64c6.79.4 13.6 1.01 20.29 2.26 2.21.34 2.95 2.85 4.26 4.33.05 2.15 0 4.3-.03 6.45-3.56.01-7.12-.02-10.68-.14-6.25-.32-12.49.2-18.73.41l-.84-4.88 3.3 2.88c.08-2.62-.05-5.23-.31-7.83a69.06 69.06 0 0 0-3.8.2l.58-4.84m21.31 8.37c1.31 1.18 2.86 2.03 4.59 2.4l.23-4.85c-1.64.76-3.26 1.55-4.82 2.45z"/><path fill="#ad9a8c" d="M238.67 146.31c4.21-2.69 1.76 3.83 0 0z"/><path fill="#493d32" d="M280.79 146.4c1.94 1.24 4.04 2.2 6.3 2.71l2.99-.26 3.06 4.6c4.17-.24 8.73-3.35 12.29.28 0 1.73-.06 3.47-.11 5.21-5.99 1.06-12.07.76-18.11.68-6.29-1.02-13.48 7.6-6.42 11.66l-1.03 3.47-3.55.02c-1.53-.4-3.04-.87-4.55-1.32l-.73-1.81c1.75.1 5.29 2.27 5.65-.47.38-2.74.46-5.53.13-8.27l-.65-1.74-4.29-.98-1.1-2.51c3.56.12 7.12.15 10.68.14l.03-6.45c-.15-1.66-.36-3.31-.59-4.96m7.25 9.25l-1.03 2.35c3.49.28 7.01.42 10.5-.01-2.72-2.11-6.17-2.35-9.47-2.34z"/><path fill="#615953" d="M290.79 145.68c3.23.54 6.46 1.15 9.59 2.13l4.88 2.62.17 3.3c-3.56-3.63-8.12-.52-12.29-.28-.66-2.63-1.41-5.23-2.35-7.77z"/><path fill="#dfc7b5" d="M78.95 147.8c6.16-.11 12.33-1.29 18.49-.53l.29 1.3c-4.36 1.07-8.87 1.1-13.31 1.56v3.93c1.25-.47 2.43-1.11 3.69-1.55 2.98 1.57 6.26 2.41 9.57 2.94l-1.3 1.19c-5.85.37-11.73.47-17.58.26 0-3.04.06-6.07.15-9.1z"/><path fill="#ddc7b0" d="M153.52 147.27c.64 2.55 1.69 4.97 2.72 7.39l7.91-.68c-3.59 1.65-7.14 3.39-10.67 5.19-.3-3.96-.29-7.94.04-11.9z"/><path fill="#0a0807" opacity=".48" d="M287.09 149.11c-.8-2.69 3.32-3.12 2.99-.26l-2.99.26z"/><path fill="#776454" d="M75.36 157.31l.19-9.51.56 8.94 2.69.16c5.85.21 11.73.11 17.58-.26l1.3-1.19c1.42-2.13.7-4.62.05-6.88l-.29-1.3c.34.08 1.01.25 1.35.34l3.06.84c-.19 10.24-2.17 20.63.62 30.78.82-10.36 1.23-20.77.2-31.12l2.71-.29c1.33 10.75-1.02 21.84.69 32.74-3.18.01-6.39.45-9.31 1.8-3.28-1.12-6.81.77-6.74 4.46-2.47 2.11-3.85 5.09-4.62 8.19-1.08-2.84-2.19-5.68-3.38-8.48l-.39-1.05c2.29-.13 4.59-.3 6.87-.6-4.29-1.31-8.81-1.2-13.24-1.26l-.03-9.27c5.7-.59 11.43-.56 17.16-.48l.1-15.13-17.13-1.43m3.88 17.34c.34 2.89-.69 6.28.68 8.88 6.88-.13 12.94-4.07 18.38-7.71-6.36-.51-12.75-.45-19.06-1.17z"/><path fill="#cab49f" d="M105.38 147.82l1.94-.22c.99 10.93 1.9 21.96.11 32.87l-1.36.09c-1.71-10.9.64-21.99-.69-32.74z"/><path fill="#3f3a39" d="M107.32 147.6l.77-.08 1.63.83c-.46 11.37.84 22.67 1.05 34.02-1.78 1.88-2.77 4.2-2.4 6.81l-.09 1.76-2.86 1.92c-2.97 1.87-6.17 3.39-9.54 4.4-3.56.03-7.75.59-10.48-2.25.77-3.1 2.15-6.08 4.62-8.19 2.29-1.42 4.53-2.92 6.74-4.46 2.92-1.35 6.13-1.79 9.31-1.8l1.36-.09c1.79-10.91.88-21.94-.11-32.87m-11.86 45.54c3.17 1.54 7.02.21 6.38-3.82l-2.97-1.42c-1.86 1.24-3.24 2.94-3.41 5.24z"/><path fill="#6e5b49" d="M111.68 147.31c1.67.05 3.42.71 2.9 2.73l-.09 29c.22 3.49-2.3 6.22-3.83 9.13l-2.29 1.01c-.37-2.61.62-4.93 2.4-6.81 1.67-11.49.38-23.4.91-35.06z"/><path fill="#927c61" d="M116.19 155.02c.22-2.63-.63-6 1.79-7.84l1.16-.05c-.51 12.47-.05 24.91.2 37.37l-3.02-.56c.31-9.64.16-19.28-.13-28.92z"/><path fill="#897560" d="M120.9 148.04l2.49-.75c.45 12.15-.39 24.31.27 36.45l-3.15.21c.47-11.98.54-23.95.39-35.91z"/><path fill="#978166" d="M125.36 147.83l2.85-.09c-.22 12.16.37 24.31.07 36.47l-3.19-.6c.46-11.91.17-23.85.27-35.78z"/><path fill="#4b4955" d="M223.83 148.51l5.01-.63c.7 2.47 1.48 4.96 2.94 7.11 5.36 5.69 5.59 15.52.5 21.45-1.45 2.09-2.71 4.31-3.96 6.53 2.14.06 4.31.06 6.42.45-3.86 1.08-8.12.32-12.14.65l.81-1.94c.41-.76.81-1.52 1.28-2.24 7.73-7.44 8.18-20.24.43-27.85-.41-1.18-.86-2.36-1.29-3.53z"/><path fill="#f8f1f4" d="M250.29 148.45l3.8-.2c.26 2.6.39 5.21.31 7.83l-3.3-2.88.84 4.88c-1.27 0-2.53-.01-3.79-.03l-1.09-.03-.97-.02c-2.2-1.86-2.54-4.69-2.53-7.42 2.28-.57 4.5-1.39 6.73-2.13z"/><path fill="#fffbe8" d="M84.42 150.13c4.44-.46 8.95-.49 13.31-1.56.65 2.26 1.37 4.75-.05 6.88-3.31-.53-6.59-1.37-9.57-2.94-1.26.44-2.44 1.08-3.69 1.55v-3.93z"/><path fill="#fdeae0" d="M132.58 183.16c.28-11.41-1.51-23.41.96-34.48 1.75 8.29.43 16.88.88 25.29-.41 3.01.89 7.09-1.84 9.19z"/><path fill="#d6c2b3" d="M141.47 149.55l1.53-.82c.73 11.26.79 22.65-.28 33.9-1.75-1.39-1.27-3.75-1.41-5.7-.37-9.12-.6-18.29.16-27.38z"/><path fill="#c5b198" d="M236.6 155.46c1.97-2.05 3.95-4.48 6.96-4.88-.01 2.73.33 5.56 2.53 7.42a270.72 270.72 0 0 0-6.98.07l.17 16.93 3.08-.46c-.04-5.34-.59-10.83 1.16-15.98 1.21 5.42.95 10.99.79 16.49l2.52-1.04c-.94-5.29-.66-10.72.23-15.99l1.09.03a51.34 51.34 0 0 1 .61 4.13c.06 2.39-.03 4.8-.1 7.2l-.15 5.32 7.7.01c.69 4.76.65 11.04 6.26 12.71l.84.47c-3.86-.22-7.72-.16-11.58-.28l-.92 4.6c-3.45-3.6-8.77-5.59-13.36-2.74-4.08 5.18-1.13 13.16-6.45 17.8l-1.65-.21c.19-2.43 1.02-4.72 2.05-6.91-3.64-2.57-.63-5.22 2.03-6.94l.27-8.57c3.81.16 7.84.46 11.27-1.57 2.42.41 4.88.65 7.34.78l1.69 1.88.08-8.01c-4.66.32-10.42-1.18-13.85 2.96-.52-1.25-.96-2.53-1.46-3.79-1.89 2.23-4.92 2.15-6.49-.45 5.09-5.93 4.86-15.76-.5-21.45l.14-2.91 4.68 3.38m10.62 14.38l.51.07c.83-3.08.26-6.27-.12-9.37-1.31 2.86-1.7 6.38-.39 9.3z"/><path fill="#fdf8f6" d="M272.18 151.98c1.56-.9 3.18-1.69 4.82-2.45l-.23 4.85c-1.73-.37-3.28-1.22-4.59-2.4z"/><path fill="#7e695c" d="M288.04 155.65c3.3-.01 6.75.23 9.47 2.34-3.49.43-7.01.29-10.5.01l1.03-2.35z"/><path fill="#6d5847" d="M239.11 158.07l6.98-.07.97.02c-.89 5.27-1.17 10.7-.23 15.99l-2.52 1.04c.16-5.5.42-11.07-.79-16.49-1.75 5.15-1.2 10.64-1.16 15.98l-3.08.46-.17-16.93z"/><path fill="#5d4f44" d="M248.15 158.05l3.79.03c6.24-.21 12.48-.73 18.73-.41l1.1 2.51 4.29.98.65 1.74c-9.31-.54-18.62-1.81-27.95-.72a51.34 51.34 0 0 0-.61-4.13z"/><path fill="#87796c" d="M280.79 171.28c-7.06-4.06.13-12.68 6.42-11.66 4.14.58 8.31.83 12.49.8.08 2.22.24 4.44.42 6.66l.09.6c2.83.16 5.67.18 8.51.33 1.51.59 2.99 1.25 4.51 1.84-4.15-.04-8.32-.22-12.46.15l-.85 2.44-.8 1.14c-3.31.25-6.63.13-9.93.46-5.78.4-8.61 6.02-7.44 11.3l-.98-.04.2-3.31c.12-2.48-.23-4.95-1.21-7.24.32-1.16.68-2.32 1.03-3.47z"/><path fill="#faf5f8" d="M247.22 169.84c-1.31-2.92-.92-6.44.39-9.3.38 3.1.95 6.29.12 9.37l-.51-.07z"/><path fill="#9a8574" d="M248.76 162.18c9.33-1.09 18.64.18 27.95.72.33 2.74.25 5.53-.13 8.27-.69-.8-1.39-1.56-2.1-2.33-8.37 1.82-17.49 3.27-25.82.54.07-2.4.16-4.81.1-7.2m1.13 3.43c4.32 5.18 12.66 1.62 18.73 3.01l2.2-2.15c-6.23-4.4-14.17-3.01-20.93-.86z"/><path fill="#cbb59a" d="M249.89 165.61c6.76-2.15 14.7-3.54 20.93.86l-2.2 2.15c-6.07-1.39-14.41 2.17-18.73-3.01z"/><path fill="#b8a499" d="M177.5 166.86c6.3-.4 12.6-.02 18.89.38l-.61 2.86 2.57 1.98.26-4.76c7.14.05 14.27-.27 21.41-.34.94 3.79 1.77 7.69 3.72 11.13l.95 1.78c-.47.72-.87 1.48-1.28 2.24l-.97-3.33-4.46-.19c1.03-9-9.78-13.35-17.01-9.96 1.36 1.61 2.76 3.17 4.18 4.73-1.03 1.91-2.17 3.92-1.73 6.18 1.01 8.46-.14 17.22 2.89 25.38-2.56-.57-5.14-1.05-7.71-1.53 1.68-7.87 3.75-15.6 2.53-23.64a93.45 93.45 0 0 1-2.9-.01c-1.17-.26-2.32-.58-3.48-.9l5.44-1.48c-3.75-7.64-12.56-10.68-20.63-9.83l.18 3.32 3.19 3.15-3.24 2.27a41.82 41.82 0 0 1-2.19-9.43z"/><path fill="#48474a" opacity=".6" d="M300.12 167.08l41.78.32.35 2.6-3.26.08 2.6-2.12c-9.05-.69-18.14.1-27.21.15l-5.66-.1-8.51-.33-.09-.6z"/><path fill="#776557" d="M151.56 168.23c.36 2.75.97 5.47 1.55 8.19l.48 3.89-1.56 4.16-4.62-.5.04-9.28c2.55-1.29 3.67-3.77 4.11-6.46z"/><path fill="#c8b3a2" d="M166.81 167.79l6.88.56c3.66 6.18 2.21 14.32 7.03 19.83l.62-2.34.42 5.37c-6.87 1.27-7.2 10.72-5.02 16.01l4.24.25-7.11.08c2.84 3.03 5.58 6.16 8.13 9.43a103.81 103.81 0 0 1-7.72 8.39c-1.41-1.11-2.81-2.23-4.28-3.25 3.46.47 6.68-.8 9.15-3.18-2.74-3.73-6.91-3.9-10.81-1.9l1.93 1.44-1.81 2.75c-3.09-1.71-6.19-3.48-8.72-5.99 1.96-.07 3.92.04 5.87.26 1.8-2.6 3.43-5.39 3.92-8.56l3.17.66c-.46-8.79 7.37-19.39-.58-26.61-1.06-.63-2.13-1.22-3.2-1.81l6.84.16c.23-5.67-4.36-9.29-8.95-11.55z"/><path fill="#fffff9" d="M179.56 167.55c8.07-.85 16.88 2.19 20.63 9.83l-5.44 1.48c1.16.32 2.31.64 3.48.9-1.54 7.68 1.74 16.23-3.25 23.06l-4.92 8.92-4.13-.58c-2.06-1.97-4.11-4.31-3.96-7.37.57-2.07 1.3-4.09 2-6.12-.94-2.08-1.78-4.22-2.21-6.46-.19-1.79-.3-3.58-.42-5.37-.11-3.24-.59-6.47-1.65-9.55l3.24-2.27-3.19-3.15-.18-3.32z"/><path fill="#56473b" d="M248.66 169.38c8.33 2.73 17.45 1.28 25.82-.54l2.1 2.33c-.36 2.74-3.9.57-5.65.47l.73 1.81 4.55 1.32-8.92-.03-11.08-.03a987.53 987.53 0 0 1-7.7-.01l.15-5.32z"/><path fill="#9f9ca6" opacity=".95" d="M308.72 168.01l5.66.1c6.1 2.02 12.58.74 18.83 1.76-1.53-.04-3.06-.03-4.58-.02-5.13-.09-10.27.18-15.4 0-1.52-.59-3-1.25-4.51-1.84z"/><path fill="#ebe8f0" opacity=".96" d="M314.38 168.11c9.07-.05 18.16-.84 27.21-.15l-2.6 2.12c-1.93 0-3.86-.09-5.78-.21-6.25-1.02-12.73.26-18.83-1.76z"/><path fill="#0d0c0d" opacity=".81" d="M300.77 170c4.14-.37 8.31-.19 12.46-.15 5.13.18 10.27-.09 15.4 0-1.4.99-2.7 2.49-4.58 2.38-8.04.15-16.1-.35-24.13.21l.85-2.44z"/><path fill="#4a3e32" d="M281.75 185.34c-1.17-5.28 1.66-10.9 7.44-11.3 4.61 3.13 10.54 1.01 15.72 2.02l.09 1.38-2.15 1.68-.62 5.02c-2.46-1.46-4.77-4.37-7.88-3.83-1.89 1.53-3.35 3.52-4.83 5.43l-7.77-.4z"/><path fill="#f5dcc3" d="M79.24 174.65c6.31.72 12.7.66 19.06 1.17-5.44 3.64-11.5 7.58-18.38 7.71-1.37-2.6-.34-5.99-.68-8.88z"/><path fill="#f4dabf" d="M256.21 174.71l11.08.03c3.1 4.91 10.49 1.96 13.68 7.25l-.2 3.31c-6.04 1.2-12.22 1.23-18.3 2.12-5.61-1.67-5.57-7.95-6.26-12.71z"/><path fill="#c4ad98" d="M267.29 174.74l8.92.03 3.55-.02c.98 2.29 1.33 4.76 1.21 7.24-3.19-5.29-10.58-2.34-13.68-7.25z"/><path fill="#9d8879" d="M228.32 182.97l3.96-6.53c1.57 2.6 4.6 2.68 6.49.45l1.46 3.79c1.53.88 3.13 1.65 4.74 2.39-3.43 2.03-7.46 1.73-11.27 1.57-2.65-.06-5.31.05-7.9.63-1.32.38-2.61.85-3.91 1.28l.71-2.48c4.02-.33 8.28.43 12.14-.65-2.11-.39-4.28-.39-6.42-.45z"/><path fill="#fdfbfd" d="M240.23 180.68c3.43-4.14 9.19-2.64 13.85-2.96l-.08 8.01-1.69-1.88c-2.46-.13-4.92-.37-7.34-.78-1.61-.74-3.21-1.51-4.74-2.39z"/><path fill="#7d6b5d" d="M302.85 179.12l2.15-1.68c.21 3.49.51 6.99 1.11 10.44l-3.75 6.45a208.43 208.43 0 0 0-8.5 2.61c2.02 2.05 4.17 3.97 6.42 5.79-1.4 1.42-2.81 2.83-4.1 4.36l-2.71-4.1-6.62 2.07-.46-1.75c.39-5.91-1.01-12.63 3.13-17.57 1.48-1.91 2.94-3.9 4.83-5.43 3.11-.54 5.42 2.37 7.88 3.83l.62-5.02m-13.38 7.59l.64 3.91c4.96-.37 9.9-.91 14.81-1.72l.09-4.05c-5.24-.19-10.47.61-15.54 1.86z"/><path fill="#edd3b7" d="M198.23 179.76l2.9.01c1.22 8.04-.85 15.77-2.53 23.64l-3.62-.59c4.99-6.83 1.71-15.38 3.25-23.06z"/><path fill="#d5bea0" d="M153.59 180.31c2.91 7.28-1.67 15.05.88 22.46.56 4.68 5.67 7.65 5.27 12.47-2.6-2.1-4.79-4.64-6.99-7.14l-2.88-.05-3.11.02 5.06-1.47c.92-4.28.75-8.68-.46-12.88-.38-1.74-.67-3.5-.92-5.26.5-1.35 1.09-2.65 1.59-3.99l1.56-4.16z"/><path fill="#feeed2" d="M172.12 180.99c7.95 7.22.12 17.82.58 26.61l-3.17-.66c.4-2.27.72-4.59 1.74-6.69 3.56-5.9.81-12.86.85-19.26z"/><path fill="#e5e2e9" d="M90.02 186.82c-.07-3.69 3.46-5.58 6.74-4.46l-6.74 4.46z"/><path fill="#d1b99b" d="M221.89 186.55l3.91-1.28 1.9 6.64c-4.93.4-6.12 5.6-6.4 9.68l-1.51 1.96c-.04-5.74.64-11.46 2.1-17z"/><path fill="#fde4c6" d="M225.8 185.27c2.59-.58 5.25-.69 7.9-.63l-.27 8.57c-2.66 1.72-5.67 4.37-2.03 6.94-1.03 2.19-1.86 4.48-2.05 6.91l-5.07-1.44-4.54-1.65.05-.42 1.51-1.96c.28-4.08 1.47-9.28 6.4-9.68l-1.9-6.64z"/><path fill="#988473" d="M262.47 187.42c6.08-.89 12.26-.92 18.3-2.12-2.08 5.98 2.22 10.75 4.68 15.72l-4.13.63-1.1-4.7c-2.36-.26-4.5-1.28-5.92-3.22l-1.04-1.16c-3.8-.4-7.62-.11-11.38.41 2.77-.8 5.64-3.9 1.43-5.09l-.84-.47z"/><path fill="#0b0a0b" opacity=".89" d="M280.77 185.3l.98.04 7.77.4c-4.14 4.94-2.74 11.66-3.13 17.57l-.94-2.29c-2.46-4.97-6.76-9.74-4.68-15.72z"/><path fill="#e8d0b7" d="M289.47 186.71c5.07-1.25 10.3-2.05 15.54-1.86l-.09 4.05c-4.91.81-9.85 1.35-14.81 1.72l-.64-3.91z"/><path fill="#82776c" d="M81.39 204.39c.06-6.3-.19-12.61.24-18.91l.39 1.05c.1 5.75-.22 11.51.03 17.26l2.99-4.36c3.39 5.42 11.69 7.87 16.65 3.24.63.7 1.18 1.48 1.81 2.2l5.35 1.08a61.44 61.44 0 0 1-.94 1.3l-7.75-.08-13.29-.05c-3.31-.09-6.61.03-9.92.09-5.83.04-11.67-.67-17.49-.03l-.67-.31-1.01-.56c7.83-1.17 15.6-2.8 23.61-1.92z"/><path fill="#796c5d" d="M140.78 186.81c3.1-2.44 7.03-.49 9.66 1.65l.92 5.26c-1.94 2.08-4.26 4.51-7.42 3.69-5.68.58-7.64-7.88-3.16-10.6m2.02 7.7l3.38.07c.48-1.28 1.03-2.54 1.63-3.77-2.53-5.04-8.8-.31-5.01 3.7z"/><path fill="#a08977" d="M82.02 186.53l3.38 8.48c2.73 2.84 6.92 2.28 10.48 2.25l.51 3.49a312.42 312.42 0 0 0 9.68.11l-.65-8c.97-.62 1.91-1.28 2.86-1.92-.39 3.53-.72 7.07-.78 10.62l1.83.27c5.11.48 10.13 1.97 14.1 5.35-5.16.46-10.36.72-15.52.07a61.44 61.44 0 0 0 .94-1.3l-5.35-1.08c-.63-.72-1.18-1.5-1.81-2.2-4.96 4.63-13.26 2.18-16.65-3.24l-2.99 4.36c-.25-5.75.07-11.51-.03-17.26z"/><path fill="#6e6050" d="M251.73 187.61c3.86.12 7.72.06 11.58.28 4.21 1.19 1.34 4.29-1.43 5.09-2.44.37-4.89.72-7.34.96-1.29-.48-2.54-1.05-3.73-1.73l.92-4.6z"/><path fill="#8f8a94" d="M95.46 193.14c.17-2.3 1.55-4 3.41-5.24l2.97 1.42c.64 4.03-3.21 5.36-6.38 3.82z"/><path fill="#ffefd2" d="M108.37 189.18l2.29-1.01.89-.4.34 4.68 4.78-1.13c-.2 2.01-.58 4-.98 5.98 6.86 3.11 14.59 2.63 21.94 2.72l.47 3.68c-8.91.58-18.04-.17-26.16-4.22l-2.61 2.35-1.83-.27c.06-3.55.39-7.09.78-10.62l.09-1.76z"/><path fill="#a78d73" d="M237.45 189.47c4.59-2.85 9.91-.86 13.36 2.74 1.19.68 2.44 1.25 3.73 1.73-.92 2.74-1.08 5.63-.25 8.41l-2.89-.31-.29 4.5-3.1 1.01c-3.2-1.25-6.3-2.71-9.3-4.36l.9 3.35-7.28.86-1.33-.13c5.32-4.64 2.37-12.62 6.45-17.8z"/><path fill="#fbe3c0" d="M176.74 207.22c-2.18-5.29-1.85-14.74 5.02-16.01.43 2.24 1.27 4.38 2.21 6.46-.7 2.03-1.43 4.05-2 6.12l-.99 3.68-4.24-.25z"/><path fill="#d5bda1" d="M261.88 192.98c3.76-.52 7.58-.81 11.38-.41l1.04 1.16.56 2.99-4.41 2.1 3.12 1.34c.05.96.09 1.91.18 2.87-3.98.27-7.97.13-11.95-.17-.42-.04-1.27-.1-1.7-.13l-4.27-.25-1.54-.13c-.83-2.78-.67-5.67.25-8.41 2.45-.24 4.9-.59 7.34-.96z"/><path fill="#c3ac96" d="M105.42 192.86l.65 8a312.42 312.42 0 0 1-9.68-.11l-.51-3.49c3.37-1.01 6.57-2.53 9.54-4.4z"/><path fill="#b9a187" d="M274.3 193.73c1.42 1.94 3.56 2.96 5.92 3.22l1.1 4.7 4.13-.63.94 2.29.46 1.75 6.62-2.07 2.71 4.1c-1.96 2.65-3.56 5.54-5.34 8.31-6.67-2.06-15.29-4.62-17.09-12.37-.09-.96-.13-1.91-.18-2.87l-3.12-1.34 4.41-2.1c-.17-1-.38-2-.56-2.99z"/><path fill="#463b33" d="M293.86 196.94l8.5-2.61-2.37 4.82 3.57.45-2.76 5.07-1.15 2.16 1.98 3.83-2.99 4.86-5.04-.53c-1.83 2.91-3.66 5.81-5.26 8.85 1.88 1.44 3.74 2.89 5.69 4.24-1.86-.81-3.74-1.59-5.68-2.15l-2.22-5.57c-2.67.3-5.2-.58-7.29-2.21 3.77-2.39 9.03 1.15 12-2.75 1.78-2.77 3.38-5.66 5.34-8.31 1.29-1.53 2.7-2.94 4.1-4.36-2.25-1.82-4.4-3.74-6.42-5.79z"/><path fill="#bba68f" d="M111.94 199.48c8.12 4.05 17.25 4.8 26.16 4.22l.39 2.8c2.26 1.06 4.5 2.3 6.07 4.29-6.82-2.38-14.01-2.83-21.13-3.61-3.97-3.38-8.99-4.87-14.1-5.35l2.61-2.35z"/><path fill="#c3ae95" d="M303.56 199.6l2.33-.34c2.94 1.7 5.8 3.53 8.66 5.35l.09 3.4 2.54 2c-.78 1.12-.62 2.12.47 3 3.49 3.63 7.66 6.49 11.38 9.86 1.4 2.44 2.85 4.88 4.83 6.9-.01 5.06-3.07 9.25-4.73 13.84 5.13 3.37 10.59 6.19 16.24 8.6-.96.84-1.81 2-3.16 2.21-7.21-.54-14.25-4.71-17.77-11.09.9-1.12 1.95-2.07 3.02-3.02-5.02-2.37-10.14-4.49-15.16-6.85 1.19-1.18 2.4-2.36 3.53-3.6 1.84-2.6 3.33-5.43 4.68-8.32-4.14.52-6.26 4.23-6.13 8.14-2.92-.2-5.78-.8-8.54-1.76 3.24-5.24 8.41-9.4 9.97-15.56l-2.68.34c.21-2.64.88-6.21-1.81-7.85-3.32-1.55-7.08-.79-10.52-.18l2.76-5.07m17.38 27.43c.21 2.33.55 4.64 1.02 6.93l5.81-.37c-.04-2.27-.29-4.53-.63-6.77l-6.2.21z"/><path fill="#a99a8d" d="M210.87 208.55l4.89-8.07 3.98 3.49 4.54 1.65c.16 1.91-.49 3.78-.4 5.69-4.42 1.44-8.9-2.36-12.88.26-1.36-.97-2.63-2.06-3.79-3.25l3.66.23z"/><path fill="#cfbca8" d="M190.06 211.74l4.92-8.92 3.62.59c3.01 3.48 5.96 7.02 8.68 10.75-1.62 1.12-3.23 2.25-4.92 3.25l1.55-3.77c-3.29-.13-6.55.34-9.73 1.14l.44 2.44c-3.19-1.56-6.13-3.61-8.69-6.06l4.13.58z"/><path fill="#93826e" d="M198.6 203.41l7.71 1.53.9 3.38c1.16 1.19 2.43 2.28 3.79 3.25 3.8 3.47 10.22 5.77 12.88-.26-.09-1.91.56-3.78.4-5.69 1.67.51 3.36 1 5.07 1.44l1.65.21 1.33.13c-1.85.74-3.66 1.59-5.47 2.43-.74 3.15-.86 7.24-4.07 8.97-3.35 1.46-6.95 2.32-10.23 3.97-3.88.79-7.83 1.35-11.54 2.82l-11.14 4.4 5.79 3.88-1.88 3.41c-1.22 2.99-1.53 6.24-2.48 9.31-2.67 2.8-6.29-.12-8.94-1.43l1.42 3.07c-1.03 1.28-2.06 2.57-3.15 3.8l-1.93 1.9c-2.11 1.71-3.19 4.22-3.92 6.77l-3.29-.13.94 1.98a158.06 158.06 0 0 0 10.6 2.44l1.25 1.83c-1.32 5.01-2.77 10-3.57 15.12-3.72-.39-7.41-1.34-11.16-1.22-3.13.4-3.68 4.09-4.58 6.52l.75-8.29 3.48-.27c.32-3.86.8-7.7 1.36-11.53-1.53.57-3.07 1.13-4.58 1.79 3.85-2.81 5.56-7.16 3.83-11.7 4.45-2.69 8.26-6.31 11.07-10.68l-2.05-1.96 1.53-.56c2.55-1.08 3.89-3.62 5.13-5.93 1.06-2.27 1.9-4.64 2.78-6.98-2.71-1.46-5.48-2.79-8.3-4.02-1.34 1.82-2.62 3.7-3.64 5.72l-.31.73c-.25-2.11-.69-4.2-1.12-6.28-7.38 1.77-17.84-3.13-22.68 4.42l-.44-3.59-5.09-.32.1-.72c1.11-5.55 2.14-11.13 2.48-16.79l-2.52-2.21 3.11-.02-.04 4.99 2.02 2.14c.41-2.34.73-4.7.9-7.08 2.2 2.5 4.39 5.04 6.99 7.14 2.53 2.51 5.63 4.28 8.72 5.99l1.54.89c1.47 1.02 2.87 2.14 4.28 3.25a103.81 103.81 0 0 0 7.72-8.39c-2.55-3.27-5.29-6.4-8.13-9.43l7.11-.08.99-3.68c-.15 3.06 1.9 5.4 3.96 7.37 2.56 2.45 5.5 4.5 8.69 6.06 2.53.63 5.18.68 7.74.19 1.69-1 3.3-2.13 4.92-3.25-2.72-3.73-5.67-7.27-8.68-10.75m-46.03 24.57c2.8-1.3 5.69-2.53 8.11-4.49-.68-2.72-4.23-3.66-6.14-5.53-1.22 3.2-2.35 6.55-1.97 10.02m20.69 46.94c1.48 3.97 5.36.22 7.44-1.19-.97-1.84-1.7-3.89-3.21-5.37-2.97.21-7.02 3.58-4.23 6.56z"/><path fill="#675749" d="M238.71 203.19c3 1.65 6.1 3.11 9.3 4.36 1.05 2.95 1.78 6.18 4.14 8.42 4.02 4.03 4.9 9.86 6.67 15.03 1.42.79 2.86 1.55 4.23 2.44l-7.54.15-1.85-.46c-.69-5.33-4.28-9.58-6.94-14.05h-.43l-2.11.18c-2.33-2.27-4.32-5.1-7.3-6.56-4.12-.44-4.78 4.34-6.06 7.17-2.1.13-4.2.25-6.29.49l-.95 1.4c-.44 2.39.06 4.79 1.12 6.95l5.17-1.14c.38 3.02.32 6.55 3.12 8.47l2.24-5.2.52 3.72c1.65 1.85 3.75 3.21 5.67 4.76-2.1 2.79-4.39 5.43-6.71 8.04-7.32-3.64-10.02-12.48-15.13-18.49.54-2.4 1.2-4.76 2.02-7.08l-6.73.72-2.31.26c3.28-1.65 6.88-2.51 10.23-3.97 3.21-1.73 3.33-5.82 4.07-8.97 1.81-.84 3.62-1.69 5.47-2.43l7.28-.86-.9-3.35z"/><path fill="#020202" opacity=".84" d="M255.83 202.48l4.27.25c2.69 8.66 12.68 9.85 18.74 15.42 2.09 1.63 4.62 2.51 7.29 2.21l2.22 5.57c-5.09-.2-8.62-3.94-12.23-7.02-6.69-5.51-16.52-8.07-20.29-16.43z"/><path fill="#544b43" d="M260.1 202.73l1.7.13c6.53 3.11 12.51 7.35 17.43 12.65l-.39 2.64c-6.06-5.57-16.05-6.76-18.74-15.42z"/><path fill="#93806c" d="M261.8 202.86c3.98.3 7.97.44 11.95.17 1.8 7.75 10.42 10.31 17.09 12.37-2.97 3.9-8.23.36-12 2.75l.39-2.64c-4.92-5.3-10.9-9.54-17.43-12.65z"/><path fill="#f3deca" d="M300.8 204.67c3.44-.61 7.2-1.37 10.52.18 2.69 1.64 2.02 5.21 1.81 7.85-2.08 4.16-4.66 8.05-7.33 11.85-4.66-2.24-9.76-4.7-12.2-9.56l5.04.53 2.99-4.86-1.98-3.83 1.15-2.16z"/><path fill="#e9d1bf" d="M59.46 207.18c5.82-.64 11.66.07 17.49.03-.7 4.2-1.77 8.36-3.73 12.16l-4.86-1.33c-4.93-1.7-8.24-5.68-8.9-10.86z"/><path fill="#c9b5a7" d="M33.77 207.96l4.17-1.13.19 8.37 7.7-.04c-1.39 3.69-4.09 6.49-7.66 8.15.28-1.44.53-2.89.77-4.33-3.1-2.83-4.44-6.9-6.19-10.59l1.02-.43z"/><path fill="#bca796" d="M58.79 206.87l.67.31c.66 5.18 3.97 9.16 8.9 10.86-1.85.12-3.69.32-5.53.51.98 2.17 1.24 5.9 4.3 5.98 6.74.47 13.6-.45 20.25 1.2l-1.27-3.22c1.23.24 2.5.33 3.75.25l1.83 4.98c-2.24 1.06-4.64 1.81-7.03.69-7.11-2.59-14.73-2.5-22.19-2.31-4.96.81-7.13 6.09-9.86 9.71 3.95 5.19 2.18 11.74-1.69 16.37-.65-.83-1.26-1.7-1.98-2.47l3.84-3.09-.19-2.04c-.38-2.23-1.4-4.26-2.42-6.25-.33-3.59 1.17-7 3.78-9.43 3.31-2.6 5.01-6.47 3.76-10.65l-6.39-1.63-2.61-1.44c3.08.07 6.17.09 9.25.05.29-2.8.66-5.58.83-8.38z"/><path fill="#feefd8" d="M76.95 207.21l9.92-.09c6.19-.24 8 6.4 6.96 11.39l-1.5 5.44 4.3 2.62a59.09 59.09 0 0 0-4.94 1.17l-1.83-4.98c-1.25.08-2.52-.01-3.75-.25l1.27 3.22c-6.65-1.65-13.51-.73-20.25-1.2-3.06-.08-3.32-3.81-4.3-5.98l5.53-.51 4.86 1.33c1.96-3.8 3.03-7.96 3.73-12.16m5.43 2.33c-5.62.63-7.24 8.92-2.3 11.63 2.84.52 6.5.99 8.4-1.73 3.46-4.05-.89-11.22-6.1-9.9z"/><path fill="#b49f93" d="M86.87 207.12l13.29.05a75.36 75.36 0 0 0-2.61 1.09l4.57 1.17c-4.36 1.29-7.58 4.47-8.29 9.08 1.04-4.99-.77-11.63-6.96-11.39z"/><path fill="#ac947d" d="M28.1 208.67l5.67-.71-1.02.43-1.95.96c.98 8.47.99 18.09 7.02 24.81l1.91-1.39-.54-4.96 6.26-1.81c-2.56-.47-5.07-1.13-7.57-1.82l.29-.87c3.57-1.66 6.27-4.46 7.66-8.15l2.88.04 2.61 1.44-4.39.36c-1.94 4.78 1.09 9.25 1.04 14.06 2-.69 4.01-1.35 5.98-2.14-2.61 2.43-4.11 5.84-3.78 9.43-1.78-1.98-3.68-3.86-5.53-5.78-2.32 1.59-4.55 3.31-6.67 5.15a34.24 34.24 0 0 0 8.04 10.4l6.58-3.52.19 2.04-3.84 3.09c.72.77 1.33 1.64 1.98 2.47 1.36 1.34 2.85 2.51 4.28 3.76-.2-3.51.84-6.99 5.11-6.72-1 2.71-2.11 5.37-3.26 8.02 3.6 2.63 7.64 4.58 11.81 6.13l3.1-3.37 1.99 5.4c3.02.45 6.07.1 8.46-1.96l1.08 3.14a157.39 157.39 0 0 0 12.48-.05l.83-9.97c3.38 1.83 5.23 6.41 1.87 9.22-1.63 1.58-1.36 3.92-1.56 5.99l4.51-.26 1.02-1.69-2.79-4.13c4.91-.02 10.06-.58 13.91-3.95l-3.26-3.19.71-3.32 4.61 5.71c4.31-2.87 12.96-6.35 8.32-12.67l-.04-1.54 5.89 4.34c2.5-2.04 4.78-4.32 6.77-6.85l-3.11-3.94 5.04.27c1.99-3.61 4.87-7.13 5.1-11.38-1.37-2.3-4.16-3.33-6.21-4.94l6.11-.43c1.07 1.04 2.08 2.15 3.11 3.25l-.1.72.16.92c2.26 1.97 3.83 4.51 4.35 7.49l2.05.5-4.36 6.32.31 1.88.12 1.07-6.74-.31c-1.54 2.06-3.04 4.15-4.77 6.06-1.37 1.22-2.83 2.35-4.27 3.48 1.37 1.1 2.94 1.91 4.28 3.04-1.95 4.43.16 9.34-.37 13.99 6.23.05 12.91-.84 17.4-5.63 1.07.77 2.01 1.71 2.85 2.74-6.61 4.43-14.45 5.83-22.24 6.5l-.78 4.93c-5.2.03-10.4.33-15.6.32l-.62-5.34c-5.3-.33-10.59-1.11-15.66-2.72l-2.62 3.64c-4.88-3.5-10.84-3.69-16.59-3.17l-1.04-4.63c-4.5-.4-8.99-1.05-13.31-2.38l-2.52 2.94-1.42-.46c-3.75-1.81-7.45-3.72-11.14-5.66l1.42-3.56c-3.66-3.03-7.04-6.36-10.39-9.73-.88.63-1.77 1.24-2.67 1.84-4.95-1.21-6.52-7.2-9.68-10.71l3.62-3.25c-6.19-8.55-6.97-19.13-8.37-29.23m99.78 44.08c1 1.9 2.14 3.75 3.33 5.55 4.43-2.19-.25-5.58-3.33-5.55m-1.95 13.14c-1.7 3.5-8.07 2.18-7.28 7.08 5.35.75 10.78.75 16.09-.29.55-3.18.2-6.39-.8-9.45-2.89.07-6.4-.35-8.01 2.66z"/><path fill="#ebd1b8" d="M143.37 219.81c.83-4 1.13-8.2 3.39-11.74l2.52 2.21c-.34 5.66-1.37 11.24-2.48 16.79-1.03-1.1-2.04-2.21-3.11-3.25-6.89-2.2-12.06-9.32-19.96-7.44 5.65-7.39 13.34 1.86 19.64 3.43z"/><path fill="#584b41" d="M149.87 208.05l2.88.05c-.17 2.38-.49 4.74-.9 7.08l-2.02-2.14.04-4.99z"/><path fill="#fdebd1" d="M30.8 209.35l1.95-.96c1.75 3.69 3.09 7.76 6.19 10.59l-.77 4.33-.29.87c2.5.69 5.01 1.35 7.57 1.82l-6.26 1.81.54 4.96-1.91 1.39c-6.03-6.72-6.04-16.34-7.02-24.81z"/><path fill="#807365" d="M82.38 209.54c5.21-1.32 9.56 5.85 6.1 9.9-1.9 2.72-5.56 2.25-8.4 1.73-4.94-2.71-3.32-11 2.3-11.63m-2.36 6.57c1.3.75 2.29 2.74 4.02 2.33 3.16-1.34.86-5.25.3-7.58-1.63 1.59-3.05 3.37-4.32 5.25z"/><path fill="#fcf9fc" d="M211 211.57c3.98-2.62 8.46 1.18 12.88-.26-2.66 6.03-9.08 3.73-12.88.26z"/><path fill="#483f39" opacity=".67" d="M317.18 210.01c1.14.84 1.3 1.84.47 3-1.09-.88-1.25-1.88-.47-3z"/><path fill="#fffff5" d="M80.02 216.11c1.27-1.88 2.69-3.66 4.32-5.25.56 2.33 2.86 6.24-.3 7.58-1.73.41-2.72-1.58-4.02-2.33z"/><path fill="#695c51" d="M313.13 212.7l2.68-.34c-1.56 6.16-6.73 10.32-9.97 15.56-1.1-.22-2.22-.37-3.33-.46 1.12-.93 2.25-1.88 3.29-2.91 2.67-3.8 5.25-7.69 7.33-11.85z"/><path fill="#fefeff" d="M194.18 214.78c3.18-.8 6.44-1.27 9.73-1.14l-1.55 3.77c-2.56.49-5.21.44-7.74-.19l-.44-2.44z"/><path fill="#7b7168" d="M230.82 219.87c1.28-2.83 1.94-7.61 6.06-7.17 2.98 1.46 4.97 4.29 7.3 6.56-6.86.84-13.69 2.03-20.6 2.5l.95-1.4c2.09-.24 4.19-.36 6.29-.49z"/><path fill="#fffeff" d="M168.34 217.04c3.9-2 8.07-1.83 10.81 1.9-2.47 2.38-5.69 3.65-9.15 3.18-.38-.23-1.15-.67-1.54-.89l1.81-2.75-1.93-1.44z"/><path fill="#d3bca2" d="M288.34 223.84c1.6-3.04 3.43-5.94 5.26-8.85 2.44 4.86 7.54 7.32 12.2 9.56-1.04 1.03-2.17 1.98-3.29 2.91-2.58.46-5.19.78-7.8 1.06l-.68-.44c-1.95-1.35-3.81-2.8-5.69-4.24z"/><path fill="#bca388" d="M123.73 216.38c7.9-1.88 13.07 5.24 19.96 7.44-2.04.11-4.08.27-6.11.43-2.32 4.1-4.63 8.21-7.18 12.17-2.7-2.55-5.98-4.71-7.82-8.02-.7-4 .88-8.02 1.15-12.02m2.84.57c-1.45 3.29-1.01 6.8.16 10.08 2.09-.38 4.37-1.03 5.32-3.16-.06-3.29-3.24-5.06-5.48-6.92z"/><path fill="#83705b" d="M46.93 217l4.39-.36 6.39 1.63c1.25 4.18-.45 8.05-3.76 10.65-1.97.79-3.98 1.45-5.98 2.14.05-4.81-2.98-9.28-1.04-14.06z"/><path fill="#f7dcc4" d="M119.26 228.53c-2.16-4.62 2-8.67 4.47-12.15-.27 4-1.85 8.02-1.15 12.02 1.84 3.31 5.12 5.47 7.82 8.02 2.55-3.96 4.86-8.07 7.18-12.17 2.05 1.61 4.84 2.64 6.21 4.94-.23 4.25-3.11 7.77-5.1 11.38l-5.04-.27 3.11 3.94c-1.99 2.53-4.27 4.81-6.77 6.85l-5.89-4.34.04 1.54c-4.4 1.93-11 1.73-12.93 6.96a93.25 93.25 0 0 0-.71 3.32l3.26 3.19c-3.85 3.37-9 3.93-13.91 3.95l-1.18.09c3.36-2.81 1.51-7.39-1.87-9.22-3.51-3.02-8.42-1.57-12.6-1.63 1.82-.58 3.67-1.08 5.51-1.6l.75-6.51 1.18 5.71c5.02 2.13 10.32 3.71 15.82 3.77 2.32-5.61 7.03-10.12 12.85-11.93 4.01 0 8.07 1.06 12.03-.16l.5-2.17c-4.48-4.55-11.16-7.23-13.58-13.53z"/><path fill="#826e5c" d="M126.57 216.95c2.24 1.86 5.42 3.63 5.48 6.92-.95 2.13-3.23 2.78-5.32 3.16-1.17-3.28-1.61-6.79-.16-10.08z"/><path fill="#bab2b5" d="M152.57 227.98c-.38-3.47.75-6.82 1.97-10.02 1.91 1.87 5.46 2.81 6.14 5.53-2.42 1.96-5.31 3.19-8.11 4.49z"/><path fill="#83766d" d="M246.29 219.08h.43c2.66 4.47 6.25 8.72 6.94 14.05-2.56.68-5.09 1.47-7.61 2.27l-1.21-6.3-1.29 3.64-7.8 1.82c-.21-1.24-.36-2.48-.52-3.72-.71 1.75-1.48 3.47-2.24 5.2-2.8-1.92-2.74-5.45-3.12-8.47 5.35-1.97 17.41.1 16.42-8.49z"/><path fill="#e3ccb4" d="M244.18 219.26l2.11-.18c.99 8.59-11.07 6.52-16.42 8.49-1.74.34-3.45.74-5.17 1.14-1.06-2.16-1.56-4.56-1.12-6.95 6.91-.47 13.74-1.66 20.6-2.5z"/><path fill="#17130f" opacity=".87" d="M214.87 222.51l6.73-.72c-.82 2.32-1.48 4.68-2.02 7.08-1.42-2.23-3.01-4.34-4.71-6.36z"/><path fill="#50443c" d="M314.38 229.68c-.13-3.91 1.99-7.62 6.13-8.14-1.35 2.89-2.84 5.72-4.68 8.32l-1.45-.18z"/><path fill="#988f84" d="M329.03 222.87c4.54.62 7.69 4.2 11.72 6 2.85-3.26 7.23-6.06 11.42-3.19l-2.88 4.84-3.66-.92-.54 2.01 6.68 3.8 1.6 1.17 1.54-.34-1.87-4.05 2.05-3.8 2.83.99c2.87 5.68-3 10.83-1.43 16.63 4.24 2.15 10.11 7.38 6.68 12.43-2.49-1.36-4.97-2.76-7.38-4.25-1.01 1.66-1.98 3.35-2.93 5.05 2.93-.28 5.64.77 7.77 2.75l-.84 2.25c-2.56.42-5.18.42-7.72-.1l-1.08-.36c-2.47-1.6-5.16-3.02-8.21-2.44-2.1 4.07-5.54 7.13-9.95 8.48l-3.3-1.88 3-4.37 3.82.08 1.87-1.76-1.34-3.25c7.36-2.31 12.72-8.52 14.64-15.89-5.57-4.6-10.43-11.07-17.66-12.98-1.98-2.02-3.43-4.46-4.83-6.9z"/><path fill="#fbe5cd" d="M52.61 235.83c2.73-3.62 4.9-8.9 9.86-9.71.09 4.24-1.48 8.2-5.62 9.88.95 3.69-2.97 12.33 3.53 11.33 7.57-.27 16.98 5.79 14.38 14.39l5.22.98c.76-2.85 1.1-6.47 4.22-7.75 3.49 3.11 8.41 3.4 12.6 1.63l-.83 9.97a157.39 157.39 0 0 1-12.48.05l-1.08-3.14c-2.39 2.06-5.44 2.41-8.46 1.96l-1.99-5.4-3.1 3.37c-4.17-1.55-8.21-3.5-11.81-6.13 1.15-2.65 2.26-5.31 3.26-8.02-4.27-.27-5.31 3.21-5.11 6.72-1.43-1.25-2.92-2.42-4.28-3.76 3.87-4.63 5.64-11.18 1.69-16.37z"/><path fill="#574c41" d="M189.88 229.99l11.14-4.4c-.45 5.7-3.55 11.07-2.47 16.87l-4.26-2.76-.5-2.42c.6-1.15 1.24-2.28 1.88-3.41l-5.79-3.88z"/><path fill="#b89e83" d="M152.23 231.7c4.84-7.55 15.3-2.65 22.68-4.42.43 2.08.87 4.17 1.12 6.28-.74 2.08-1.53 4.15-2.34 6.21l6.68 4.27-1.53.56c-5.96 1.09-11.33 6.18-9.02 12.64 1.73 4.54.02 8.89-3.83 11.7l-2.59 1.88-.93.64-2.51 1.74-2.25-3.86c-.84-1.03-1.78-1.97-2.85-2.74-1.81-.56-3.65-1-5.49-1.46-.16-3.06-.3-6.14-.06-9.2 4.44-2.07 8.84-4.35 12.54-7.62-2.1-4.84-4.11-9.73-6.72-14.33l-1.87 2.71c-.37-1.66-.73-3.32-1.03-5m7.5 20.41l.36.63c-3.16 1.8-6.03 4.05-9.24 5.76 1.17 2.99 2.91 5.71 4.97 8.17 3.26-1.78 6.35-3.84 9.47-5.85 4.79-3.51-.53-9.89-5.56-8.71z"/><path fill="#bea58f" d="M179.98 227.11l8.3 4.02-2.78 6.98-2.65-5.56-6.51.28c1.02-2.02 2.3-3.9 3.64-5.72z"/><path fill="#8a837c" d="M294.71 228.52l7.8-1.06c1.11.09 2.23.24 3.33.46 2.76.96 5.62 1.56 8.54 1.76l1.45.18-3.53 3.6c5.02 2.36 10.14 4.48 15.16 6.85-1.07.95-2.12 1.9-3.02 3.02 3.52 6.38 10.56 10.55 17.77 11.09-2.5.54-5.03.94-7.55 1.38l-.46 5.03c-2.01-1.94-4.5-3.25-7.18-3.97.57 1.76 1.23 3.48 1.89 5.21l-3.37 3.45-2.4-1.55c.01-3.94.19-8.18 3.41-10.94 1.96.27 3.95.5 5.94.42-3.92-3.45-8.36-6.22-12.62-9.21l2.56-2.47c-6.58-2.78-11.35-9.24-18.55-10.42-2.29-.43-4.59-.8-6.85-1.37l-2.32-1.46z"/><path fill="#827567" d="M320.94 227.03l6.2-.21c.34 2.24.59 4.5.63 6.77l-5.81.37c-.47-2.29-.81-4.6-1.02-6.93z"/><path fill="#ddc6a8" d="M103.81 238.23c-4.25-2.53-2.84-9.58 1.95-10.51-2.57 3.02-3.07 6.76-1.95 10.51z"/><path fill="#635448" d="M146.86 228.71l-.16-.92 5.09.32.44 3.59 1.03 5-2.05-.5c-.52-2.98-2.09-5.52-4.35-7.49z"/><path fill="#131212" opacity=".78" d="M349.5 231.7c1.26-2.11 2.82-4.26 5.59-3.31l-2.05 3.8 1.87 4.05-1.54.34-1.6-1.17-2.27-3.71z"/><path fill="#413830" d="M244.84 229.1l1.21 6.3 7.61-2.27 1.85.46-.76.67-1.34 1.32-.99 4.15-4.07 2.02-6.93-2.43c-1.92-1.55-4.02-2.91-5.67-4.76l7.8-1.82 1.29-3.64z"/><path fill="#dbc4ac" d="M333.86 229.77c7.23 1.91 12.09 8.38 17.66 12.98-2.31 2.98-4.2 6.25-6.15 9.46-5.65-2.41-11.11-5.23-16.24-8.6 1.66-4.59 4.72-8.78 4.73-13.84z"/><path fill="#12100f" opacity=".81" d="M297.03 229.98l6.85 1.37c5.26 4.4 10 9.42 15.99 12.89 4.26 2.99 8.7 5.76 12.62 9.21-1.99.08-3.98-.15-5.94-.42-3.22 2.76-3.4 7-3.41 10.94-5.16-3.26-1.88-14.65 4.99-12.32-10.91-6.4-20.8-14.36-31.1-21.67z"/><path fill="#5b524b" opacity=".98" d="M303.88 231.35c7.2 1.18 11.97 7.64 18.55 10.42l-2.56 2.47c-5.99-3.47-10.73-8.49-15.99-12.89z"/><path fill="#eed5c0" d="M37.97 237.72c2.12-1.84 4.35-3.56 6.67-5.15l5.53 5.78c1.02 1.99 2.04 4.02 2.42 6.25l-6.58 3.52a34.24 34.24 0 0 1-8.04-10.4z"/><path fill="#e1c7b0" d="M176.34 232.83l6.51-.28 2.65 5.56c-1.24 2.31-2.58 4.85-5.13 5.93l-6.68-4.27 2.34-6.21.31-.73z"/><path fill="#96836d" d="M255.51 233.59l7.54-.15c1.28 2.79 2.36 5.68 3.41 8.57-.99 2.7-1.05 5.59-1.03 8.43l-2.58-3.31-2.07.98c-1.64-4.77-3.42-9.51-6.03-13.85l.76-.67z"/><path fill="#ddc2a6" d="M153.26 236.7l1.87-2.71c2.61 4.6 4.62 9.49 6.72 14.33-3.7 3.27-8.1 5.55-12.54 7.62.5-4.9 6.31-5.71 9.53-8.35l-2.58-5.34-7.05 2.65-.31-1.88 4.36-6.32z"/><path fill="#c8b4a0" d="M253.41 235.58l1.34-1.32c2.61 4.34 4.39 9.08 6.03 13.85-4.51 2.12-9.03 4.31-13.89 5.51-1.99-4.07-1.65-8.46 1.46-11.87l4.07-2.02c.31-1.39.61-2.78.99-4.15z"/><path fill="#7e6d5e" d="M191.31 246.59c.95-3.07 1.26-6.32 2.48-9.31l.5 2.42 4.26 2.76c1.35 8.09-5.43 13.32-9.3 19.43-1.68 1.62-3.45 3.16-4.96 4.93l-1.25-1.83c-1.54-3.24-4.8-4.54-8.25-4.29.73-2.55 1.81-5.06 3.92-6.77 4.05 1.52 8.47 2.62 12.62.8-3.58-.83-7.17-1.62-10.69-2.7 1.09-1.23 2.12-2.52 3.15-3.8l-1.42-3.07c2.65 1.31 6.27 4.23 8.94 1.43z"/><path fill="#786a5b" d="M234.71 247.36c2.32-2.61 4.61-5.25 6.71-8.04 2.34.71 4.64 1.55 6.93 2.43-3.11 3.41-3.45 7.8-1.46 11.87l-4.43 1.18c1.95.62 3.93 1.14 5.93 1.6-.08 2.83.44 5.64 2.61 7.66 2.37 2.08.48 5.3 1.22 7.89 1.5 2.86 3.51 5.42 5.15 8.21l-4.22.58c-1.11 5.2 3.79 8.4 4.25 13.25.12 3.12 2.73 4.99 4.57 7.17l1.23 1.61c-3.82-.65-6.95 1.19-9.82 3.43-1.09-3.61-2.24-7.19-3.56-10.71l2.42-2.19 2.7 1.94c-3.11-10.8-7.81-21.13-10-32.19-.24-2.49-2.32-3.99-3.93-5.61-2.38-3.18-4.47-6.56-6.3-10.08z"/><path fill="#f0d6bb" d="M149.21 244.9l7.05-2.65 2.58 5.34c-3.22 2.64-9.03 3.45-9.53 8.35-.24 3.06-.1 6.14.06 9.2 1.84.46 3.68.9 5.49 1.46-4.49 4.79-11.17 5.68-17.4 5.63.53-4.65-1.58-9.56.37-13.99-1.34-1.13-2.91-1.94-4.28-3.04 1.44-1.13 2.9-2.26 4.27-3.48l1.43.84 3.43 2.04.4 2.48-3.57.87c1.43 1.96 3.04 3.78 4.89 5.37 2.55-4.4 2.27-9.58 1.77-14.45 1.1-.28 2.21-.53 3.32-.78l-.16-2.12-.12-1.07z"/><path fill="#2f2e33" d="M351.52 242.75c-1.92 7.37-7.28 13.58-14.64 15.89l1.34 3.25-1.87 1.76c-.71-.95-1.4-1.91-2.15-2.82l.46-5.03c2.52-.44 5.05-.84 7.55-1.38 1.35-.21 2.2-1.37 3.16-2.21 1.95-3.21 3.84-6.48 6.15-9.46z"/><path fill="#ceb69c" d="M142.59 245.66l6.74.31.16 2.12-3.32.78c-2.65.48-4.97 1.88-6.92 3.69l-1.43-.84c1.73-1.91 3.23-4 4.77-6.06z"/><path fill="#e5cbb2" d="M169.82 257.24c-2.31-6.46 3.06-11.55 9.02-12.64l2.05 1.96c-2.81 4.37-6.62 7.99-11.07 10.68z"/><path fill="#6a5d4f" d="M260.78 248.11l2.07-.98 2.58 3.31c-.49 10.66 6.87 19.23 9.6 29.09.78 1.58 1.69 3.11 2.56 4.65l5.54 9.99c-.3 1.49-.68 2.97-1.08 4.45-1.05 1.18-2.08 2.39-3.1 3.61-.79-1.36-1.66-2.65-2.52-3.94-4.34 1.67-8.58 3.83-13.23 4.48l-1.23-1.61 4.24-1.1c3.41-1.07 6.62-2.67 9.8-4.3-1.35-5.99-3.26-11.86-5.31-17.64-3.54-8.25-8.2-16.7-7.11-26-5.48-1.2-10.6 1.69-15.2 4.28-2-.46-3.98-.98-5.93-1.6l4.43-1.18c4.86-1.2 9.38-3.39 13.89-5.51z"/><path fill="#998775" d="M248.39 256.4c4.6-2.59 9.72-5.48 15.2-4.28-1.09 9.3 3.57 17.75 7.11 26l-1.84-2.18c-4.42 2.19-13.88 4.61-10.08 11.27 2.48 4.17 1.86 11.37 7.43 12.85l-4.24 1.1c-1.84-2.18-4.45-4.05-4.57-7.17-.46-4.85-5.36-8.05-4.25-13.25l4.22-.58c-1.64-2.79-3.65-5.35-5.15-8.21-.74-2.59 1.15-5.81-1.22-7.89-2.17-2.02-2.69-4.83-2.61-7.66m6.13 3.88l-1.25 3.67 8.65-3.48c-2.27-1.87-4.99-1.71-7.4-.19m4.23 6.35c-1.19 1.82-1.91 3.89-2.7 5.9 1.6.83 3.17 1.79 4.89 2.38 2.29-.88 2.66-3.86 3.85-5.78-1.87-1.06-3.65-3.63-6.04-2.5z"/><path fill="#eed3bc" d="M159.73 252.11c5.03-1.18 10.35 5.2 5.56 8.71-1.93-2.56-3.7-5.25-5.2-8.08l-.36-.63z"/><path fill="#483d35" d="M178.71 253.93l1.93-1.9c3.52 1.08 7.11 1.87 10.69 2.7-4.15 1.82-8.57.72-12.62-.8z"/><path fill="#56483d" d="M127.88 252.75c3.08-.03 7.76 3.36 3.33 5.55l-3.33-5.55z"/><path fill="#fffee8" d="M150.85 258.5c3.21-1.71 6.08-3.96 9.24-5.76 1.5 2.83 3.27 5.52 5.2 8.08-3.12 2.01-6.21 4.07-9.47 5.85-2.06-2.46-3.8-5.18-4.97-8.17z"/><path fill="#887461" d="M84.2 254.95c4.18.06 9.09-1.39 12.6 1.63-4.19 1.77-9.11 1.48-12.6-1.63z"/><path fill="#141211" opacity=".82" d="M241.01 257.44c1.61 1.62 3.69 3.12 3.93 5.61 2.19 11.06 6.89 21.39 10 32.19l-2.7-1.94-1.62-1.13c-4.39-.07-6.7 3.95-9.11 6.94-.73-5.56 5.4-10.14 10.68-8.76-4.09-10.82-8.91-21.54-11.18-32.91z"/><path fill="#3e342c" d="M254.52 260.28c2.41-1.52 5.13-1.68 7.4.19l-8.65 3.48 1.25-3.67z"/><path fill="#493f37" d="M171.5 260.57l3.29.13c3.45-.25 6.71 1.05 8.25 4.29a158.06 158.06 0 0 1-10.6-2.44l-.94-1.98z"/><path fill="#6c5e4f" d="M184.29 266.82c1.51-1.77 3.28-3.31 4.96-4.93-2.27 9.33-2.82 18.98-5.71 28.16 1.72.85 3.46 1.68 5.13 2.63l-5.48-.18c.35 1.24.71 2.47 1.01 3.73-.27 3.31-.89 6.64-.33 9.96-.94.65-1.91 1.26-2.86 1.88-.2.59-.39 1.19-.57 1.79-1.95-.4-3.86.24-5.71.8l-.5 2.86-.62-2.62 3.28-5.26c-4.7-.82-9.42-1.59-14.01-2.92-3.63-1.88-6.43-4.98-8.15-8.66l3.04.13c1.48 1.87 2.93 3.76 4.48 5.57 4.13 2.15 8.81 2.68 13.38 3.05 1.85-6.91 4.41-13.7 5.09-20.87.8-5.12 2.25-10.11 3.57-15.12z"/><path fill="#ebd2b9" d="M125.93 265.89c1.61-3.01 5.12-2.59 8.01-2.66 1 3.06 1.35 6.27.8 9.45-5.31 1.04-10.74 1.04-16.09.29-.79-4.9 5.58-3.58 7.28-7.08z"/><path fill="#5a4e41" d="M97.11 271.79c.2-2.07-.07-4.41 1.56-5.99l1.18-.09 2.79 4.13-1.02 1.69-4.51.26z"/><path fill="#5c5249" d="M258.75 266.63c2.39-1.13 4.17 1.44 6.04 2.5-1.19 1.92-1.56 4.9-3.85 5.78-1.72-.59-3.29-1.55-4.89-2.38.79-2.01 1.51-4.08 2.7-5.9z"/><path fill="#817365" d="M165.99 268.94l4.58-1.79c-.56 3.83-1.04 7.67-1.36 11.53l-3.48.27-.75 8.29c-.73 4.21-1.82 8.35-2.73 12.52-1.55-1.81-3-3.7-4.48-5.57l-3.04-.13c1.72 3.68 4.52 6.78 8.15 8.66-1.93 2.54-3.97 4.99-5.92 7.5 2.78-8.33-10.13-6.01-12.66-12.34l.62-3.47 5.29.06 1.82 4.74c1.65-3.42 2.71-7.1 3.01-10.89-1.42.96-2.83 1.91-4.2 2.93l-3.23-.12-1.68-1.43 1.83-3.96c4.29-.76 9.78-1.68 12.07 3.13l1.14-5.37c.6-2.85 1.32-5.68 1.74-8.57l3.39-.48.48-2.73a94.6 94.6 0 0 0-3.18-.9l2.59-1.88z"/><path fill="#645b50" d="M173.26 274.92c-2.79-2.98 1.26-6.35 4.23-6.56 1.51 1.48 2.24 3.53 3.21 5.37-2.08 1.41-5.96 5.16-7.44 1.19z"/><path fill="#463c35" opacity=".86" d="M162.47 271.46l.93-.64 3.18.9-.48 2.73-3.39.48-.24-3.47z"/><path fill="#b39e89" d="M258.78 287.21c-3.8-6.66 5.66-9.08 10.08-11.27.62.71 1.23 1.44 1.84 2.18 2.05 5.78 3.96 11.65 5.31 17.64-3.18 1.63-6.39 3.23-9.8 4.3-5.57-1.48-4.95-8.68-7.43-12.85z"/><path fill="#89898d" d="M275.03 279.53c4.48-.1 11.05-.5 12.17 5.21-3.2 1.5-6.48.53-9.61-.56-.87-1.54-1.78-3.07-2.56-4.65z"/><path fill="#b6a28e" d="M169.56 280.72c3.75-.12 7.44.83 11.16 1.22-.68 7.17-3.24 13.96-5.09 20.87-4.57-.37-9.25-.9-13.38-3.05.91-4.17 2-8.31 2.73-12.52.9-2.43 1.45-6.12 4.58-6.52z"/><path fill="#181615" opacity=".76" d="M147.76 285.74c3.82-2.91 8.74-2.25 13.21-2.24l-1.14 5.37c-2.29-4.81-7.78-3.89-12.07-3.13z"/><path fill="#909096" d="M283.54 289.44l5.79-1.25c1.43 4.99-3 8.94-7.28 10.43.4-1.48.78-2.96 1.08-4.45.21-1.57.29-3.16.41-4.73z"/><path fill="#8b898f" d="M183.19 292.5l5.48.18c2.69 1.92 4.57 4.72 4.11 8.16l-5.45-.65-.85-3.85-2.28-.11-1.01-3.73z"/><path fill="#98969e" d="M241.51 299.11c2.41-2.99 4.72-7.01 9.11-6.94l1.62 1.13-2.42 2.19-1.96 1.65-.03 2.95-3.84 1.79-2.48-2.77z"/><path fill="#96877a" d="M263.2 302.77c4.65-.65 8.89-2.81 13.23-4.48.86 1.29 1.73 2.58 2.52 3.94 2.12 4.55 4.7 12.79-1.63 15.01-1.79-2.84-2.88-6.05-.28-8.78l-8.07 3.07c2.19 2 3.75 4.52 4.29 7.46l-3.17.81c-2.14-1.71-4.24-3.48-6.07-5.52-.72-1.9-1.33-3.83-1.93-5.77-5.96-.79-13.45 4.72-17.88-1.83 1.45-1.28 3-2.44 4.59-3.53 1.51 1.03 3.02 2.08 4.58 3.05 2.87-2.24 6-4.08 9.82-3.43z"/><path fill="#111112" opacity=".87" d="M186.66 301.85l4.28 1.18-.06 1.93-5.42-1.2 1.2-1.91z"/><path fill="#97887c" d="M156.96 310.22l5.92-7.5c4.59 1.33 9.31 2.1 14.01 2.92l-3.28 5.26.62 2.62c-.3 1.74-.7 3.46-1.23 5.15l-4.34 4.06-3.31-.42.76-4.13c1.76-.99 3.4-2.18 4.7-3.74l-3.87-.74-4.33-.5c-.6 3.11.37 8.51-4.36 7.82-1.32-3.43-2.91-7.16-1.29-10.8z"/><path fill="#918e96" d="M183.87 306.19l1.59-2.43 5.42 1.2-.24 3.49c-3.24 1.33-6.7 2.62-10.2 1.41.18-.6.37-1.2.57-1.79l2.86-1.88z"/><path fill="#312f30" opacity=".86" d="M166.94 313.7l3.87.74c-1.3 1.56-2.94 2.75-4.7 3.74l.83-4.48z"/></svg>