<svg xmlns="http://www.w3.org/2000/svg" width="512" height="512" viewBox="0 0 384 384" xmlns:v="https://vecta.io/nano"><path fill="#a9a08d" d="M248.06 32.26c2.69-3.57 3.63-8.36 7.83-10.75l2.96.98-1.64 5.95c-2.75-3.45-5.28 2.67-.59 1.56 2.63.52 5.2 1.31 7.77 2.07-3.05-2.28-3.01-5.67-1.46-8.88 4.65 1.22 5.82 7.23 3.69 11.04-1.07 2.82-1.77 5.76-2.4 8.7-2.33-4.75-8.24-7.05-13.2-5.33l.44-2.45-3.4-2.89z"/><path fill="#a69d8b" d="M157.11 24.49l2.97-1.03c3.98 2.33 5.82 6.47 7.79 10.41.68.96 1.4 1.9 2.1 2.85-.55 1.34-1.06 2.71-1.44 4.11l-4.24-2.17c-3.59-.54-7 .94-10.38 1.89l-1.73-2.79-2.22-.32c-2.11-3.84-2.04-10.68 3.15-11.77.79 2.56 1.34 5.2 1.51 7.88 1.53-.46 3.07-.93 4.62-1.31l3.75-.43-1.18-2.57-3.33.52c-.51-1.74-.94-3.51-1.37-5.27z"/><path fill="#242222" opacity=".63" d="M256.62 30c-4.69 1.11-2.16-5.01.59-1.56l-.59 1.56z"/><path fill="#2c2a2a" opacity=".71" d="M158.48 29.76l3.33-.52 1.18 2.57-3.75.43-.76-2.48z"/><path fill="#847668" d="M241.97 33.24c2.08.13 4.11-.4 6.09-.98l3.4 2.89-.44 2.45c-.68 4.29-2.12 8.39-3.19 12.58-.25 7.14-1.68 14.16-4.21 20.83.05 6.41 12.75 8.21 12.59.55a38.64 38.64 0 0 1-8.98-.66l-.68-3.24 10.17 2.27.79-2.12c.53 2.87 1.21 5.72 1.75 8.58 1.78 6.68 3.59 13.47.12 20.02l-3.27 1.28c-1.39-1.09-2.8-2.17-4.25-3.18 2.5-4.53 3.29-9.69 2.67-14.8l-12.63-3.49-1.78 6.59c1.61 1.47 3.23 2.93 4.93 4.3-1.61 0-3.23-.02-4.83-.03l-3.94-3.96-5.03 4.7c3.24 1.02 6.54 1.87 9.65 3.27a84.14 84.14 0 0 0-.13 7.94c-5.28-3.09-11.31-1.47-17.04-1.61l-.53.03c-.22 1.9-.35 3.81-.5 5.71-.73-.57-1.44-1.16-2.13-1.77-.52-1.71-.78-3.48-1.03-5.24 5.08-4.98 9.36-10.84 13.05-16.91 1.17-1.7 2.52-3.26 3.59-5.02 4.02-8.52 5.02-18.15 6.85-27.32-1.57 2.06-3.44 3.91-6.03 4.56-2.5-1.36-4.55-3.36-6.5-5.4l.45-3.84c1.89.08 3.77.32 5.65.59l.01 3.64 2.12.29c.85-3.34 2.51-6.81 1.35-10.28 1.21-.64 2.48-1.17 3.73-1.75l-1.84-1.47z"/><path fill="#a0a0aa" d="M233.53 34.59c2.72-.87 5.53-2.09 8.44-1.35l1.84 1.47-3.73 1.75-3.07 3.25-4.78-1.42 1.3-3.7z"/><path fill="#847667" d="M167.87 33.87c5.1 1.44 10.53-.67 15.44 1.86l.49 4.18-4.78.98-2.91-2.83c.28 3.64.46 7.69 3.14 10.48l1.12-4.69 5.1-.89 1.06 3.24c-1.99 3.14-4.71 5.78-8.31 6.99 2.46 8.59 2.59 19.28 10.57 24.94 4 2.44 4.42 7.42 5.69 11.49-.6 1.34-1.23 2.68-1.72 4.07-1.57-8.79-11.56-9.48-16.34-15.7l1.32-2.43 2.89.49c-.51-2.22-1.54-4.26-2.93-6.06-2.46 2.38-4.79 5.46-8.49 5.74 1.47-3.59 4.47-5.91 8.06-7.15-1.31-5.13-3.25-10.1-4-15.37-1.23-4.25-3.16-8.25-4.74-12.38.38-1.4.89-2.77 1.44-4.11l-2.1-2.85z"/><path fill="#6c5f50" d="M264.22 42.93c.63-2.94 1.33-5.88 2.4-8.7 1.05 3.29 3.01 6.34 6.38 7.61l-3.24.24c1.8 3.26 3.94 6.47 7.2 8.45-1.45-.25-2.9-.46-4.35-.68L271 44.89c-1.37 3.31-2.46 6.72-3.33 10.19l-1.86-.06c-.2.56-.39 1.12-.57 1.68l2.75 2.8a176.09 176.09 0 0 1-3.26-.04c-1.89 5.62-4.36 11.07-5.47 16.93-.54-2.86-1.22-5.71-1.75-8.58.96-5.14 2.99-9.96 4.46-14.95.92-3.27 1.49-6.62 2.25-9.93z"/><path fill="#dac7ae" d="M251.02 37.6c4.96-1.72 10.87.58 13.2 5.33-.76 3.31-1.33 6.66-2.25 9.93-.87 1.28-1.82 2.5-2.75 3.72-4.07-1.6-8.43-3.01-11.39-6.4 1.07-4.19 2.51-8.29 3.19-12.58z"/><path fill="#7c6d5f" d="M149.96 37.44l2.22.32 1.73 2.79c3.38-.95 6.79-2.43 10.38-1.89-3.18 1-6.32 2.13-9.37 3.46 1.21 5.44 3.23 10.64 5.16 15.86l-1.64 5.24-3.08 2.54.1-2.38c.31-2.88-.89-5.56-2.35-7.96-.13 2.12-.21 4.25-.28 6.38-1.77-1.04-3.59-1.98-5.42-2.9l-.28-.6 2.51-1.09c-1-2.83-2.02-5.66-3.28-8.39-.28-1.77.05-3.57.44-5.3 1.32-1.88 2.53-3.85 3.16-6.08z"/><path fill="#d5c3ab" d="M154.92 42.12c3.05-1.33 6.19-2.46 9.37-3.46l4.24 2.17c1.58 4.13 3.51 8.13 4.74 12.38-3.05 4.19-8.6 3.94-13.19 4.77-1.93-5.22-3.95-10.42-5.16-15.86z"/><path fill="#96969d" d="M269.76 42.08l3.24-.24c2.29 1.07 3.74 3.23 5.33 5.11l-.68 3.72-.69-.14c-3.26-1.98-5.4-5.19-7.2-8.45z"/><path fill="#9b9aa2" d="M139.56 53.93c-2.6-4.92 2.86-9.37 7.24-10.41-.39 1.73-.72 3.53-.44 5.3l-1.72-.7-.18 4.32-4.9 1.49z"/><path fill="#1f1c1a" opacity=".75" d="M237 51.46c2.59-.65 4.46-2.5 6.03-4.56-1.83 9.17-2.83 18.8-6.85 27.32 1.12-7.3 2.98-14.44 4.53-21.65L237 51.46z"/><path fill="#c5b499" d="M243.62 71.01c2.53-6.67 3.96-13.69 4.21-20.83 2.96 3.39 7.32 4.8 11.39 6.4.93-1.22 1.88-2.44 2.75-3.72-1.47 4.99-3.5 9.81-4.46 14.95l-.79 2.12-10.17-2.27.68 3.24a38.64 38.64 0 0 0 8.98.66c.16 7.66-12.54 5.86-12.59-.55m4.34-10.64c1.19 4.55 5.23 6.09 9.02 3.12-1.27-4.5-5.31-6.99-9.02-3.12z"/><path fill="#bea78d" d="M119.31 52.46c5.34.09 10.71-.1 16.04.47-5.72.81-14.66-1.13-16.27 6.47 2.15.64 4.45.97 6.43 2.1 2.43 2.03 3.88 6.37 7.79 5.1.8-2.97 1.61-5.96 1.97-9.02 3.76.74 7.35-.53 10.67-2.2l1.19 2.92.28.6c-3.21-.16-6.43-.07-9.64.02-.56 4.85.55 9.63 1.93 14.24-1.9 1.17-3.72 2.45-5.55 3.73 2.47 2.18 5.02 4.25 7.64 6.24.89 1.42 1.71 2.88 2.54 4.33 4.1-.99 8.18-2.05 12.25-3.17l-.38-3.94c5.54 1.99 2.72 7.63.79 11.29l-6.58-3.81c1.41 2.15 2.77 4.34 4.09 6.55-3.71-2.2-7.83-3.66-12.2-3.42-.19 1.74-.4 3.48-.52 5.22l-1.61-3.69c-.7-1.5-1.42-2.98-2.22-4.42-2.29-3.15-5.26-5.68-8.27-8.1-2.47 3.78-5.66 7.35-10.69 6.31-4.17-4.06-12.56-8.67-6.86-15.01l1.37-2.43c-3.28-2.98-7.52-4.45-11.95-4.17-.54 1.99-1.08 3.99-1.79 5.93-1.05 2.24-2.53 4.23-4.01 6.21-3.59.11-7.26.22-10.74-.87 1.59-1.15 3.21-2.27 4.98-3.13 2.37-.04 4.75-.15 7.12-.28.02-2.85.04-5.71-.12-8.56l-.4-5.08c-3.8-.12-8.3-.57-11.04 2.67-3.9 3.39-1.66 9-3.21 13.37a72.92 72.92 0 0 1-3.45-6.4l-2.5-.78 3.16-2.28c-1.71.33-4.73-.59-5.22 1.77-1.3 2.86 2.36 5.61.44 8.38-2.97 6.48-11.19 7.74-17.48 6.58-1.87-1.48-1.76-4.45-2.58-6.57-2.9 1.74-5.15 4.42-4.62 7.98l-3.88-1.16c-3.24 3.11-5.87 6.77-8.04 10.7a164.91 164.91 0 0 0 5.23 4.64c6.36 3.75 2.1 11.55 1.57 17.28l-6.89-.23-.11 9.33-2.07-.27c-2.59-.37-5.17-.76-7.71-1.38 1.61-10.1 2.18-20.76 8.46-29.32l-3.67-3.28c2.62-3.82 5.42-7.5 8.16-11.23l4.73 2.17c3.11-3.33 6.33-6.57 9.88-9.43l-1.26-3.67A386.69 386.69 0 0 1 66.9 61.6l2.14 3.21c4.45-1.37 9.07-1.97 13.67-2.49l.88-4.48c5.72-.06 11.54.85 17.14-.73l2.28 3.25c5.02-1.78 10.36-2.22 15.61-2.89l.69-5.01M57.18 73.22c1 2.29 2.05 4.56 3.14 6.81 4.69-.9 9.3-2.66 12.86-5.93-.88-2.46-1.97-4.84-3.45-7-4.3 1.8-8.52 3.78-12.55 6.12m59.21-3.18c-1.9 2.1-4.03 4.28-4.18 7.28 3.57 2.39 6.86 5.18 10.5 7.49 1.76-2.23 3.45-4.59 4.16-7.38-3.4-2.6-6.68-5.39-10.48-7.39m11.05 8.94c2.27-.38 5.55.24 6.44-2.54l-3.03-2.75c-1.47 1.53-2.66 3.3-3.41 5.29M37.27 97.15c-5.02 7.25-5.22 16.43-6.37 24.88l4.05-.29 1.76-7.99c2.55-.71 6.06-1.57 6.66-4.55-.91-1.7-3.85-1.01-5.54-1.72 1.09-2.83 2.44-5.55 3.92-8.2l-4.48-2.13z"/><path fill="#efd9bd" d="M119.08 59.4c1.61-7.6 10.55-5.66 16.27-6.47l-.08 4.65c-.36 3.06-1.17 6.05-1.97 9.02-3.91 1.27-5.36-3.07-7.79-5.1-1.98-1.13-4.28-1.46-6.43-2.1z"/><path fill="#c0ad94" d="M173.27 53.21c.75 5.27 2.69 10.24 4 15.37-3.59 1.24-6.59 3.56-8.06 7.15-2.53 2.19-5.47 3.81-8.41 5.36l-.15-6.3 3.49-2.33c-1.32-3.39-2.36-7.24-5.7-9.24l1.64-5.24c4.59-.83 10.14-.58 13.19-4.77m-7.05 10.88c2.84 3.96 7.62 3.74 7.89-1.72-3.01-1.51-7.58-3.47-7.89 1.72z"/><path fill="#8c8c92" d="M267.67 55.08c1.77-.22 3.16-1.38 4.58-2.36l4.31 1.96-1.13 3.02c-2.4.88-4.86 1.72-7.44 1.8l-2.75-2.8.57-1.68 1.86.06z"/><path fill="#312c26" opacity=".67" d="M153.11 55.42c1.46 2.4 2.66 5.08 2.35 7.96l-2.63-1.58.28-6.38z"/><path fill="#827869" d="M247.96 60.37c3.71-3.87 7.75-1.38 9.02 3.12-3.79 2.97-7.83 1.43-9.02-3.12z"/><path fill="#e3ccaf" d="M85.55 61.56c2.74-3.24 7.24-2.79 11.04-2.67l.4 5.08c-4.13-.46-8.54-1.08-12.42.82-.49 2.77 1.07 5.35 1.82 7.93a144.14 144.14 0 0 0 3.6.09c-1.77.86-3.39 1.98-4.98 3.13-.9-.3-1.79-.64-2.67-1.01 1.55-4.37-.69-9.98 3.21-13.37z"/><path fill="#eed6bd" d="M137.77 58.92l9.64-.02 5.42 2.9 2.63 1.58-.1 2.38 3.08-2.54c3.34 2 4.38 5.85 5.7 9.24l-3.49 2.33.15 6.3c-3.63-2.14-7.23-4.36-11.05-6.18 1.45 2.56 3.87 4.18 6.45 5.44l.38 3.94-12.25 3.17-2.54-4.33c1.34.34 2.69.62 4.04.91.62-4.38.81-8.8.75-13.21-2.42.37-4.81 1.01-6.88 2.33-1.38-4.61-2.49-9.39-1.93-14.24z"/><path fill="#7d7466" d="M166.22 64.09c.31-5.19 4.88-3.23 7.89-1.72-.27 5.46-5.05 5.68-7.89 1.72z"/><path fill="#fff3de" d="M84.57 64.79c3.88-1.9 8.29-1.28 12.42-.82.16 2.85.14 5.71.12 8.56l-7.12.28-3.6-.09c-.75-2.58-2.31-5.16-1.82-7.93z"/><path fill="#feebce" d="M74.33 67.24c.49-2.36 3.51-1.44 5.22-1.77l-3.16 2.28 2.5.78a72.92 72.92 0 0 0 3.45 6.4l-4.86-2.23c-1.4 3.88-2.36 8.53-6.2 10.78-3.73 2.45-8.28.38-12.29-.1-3.38 5.75.56 10.76 2.74 15.88 3.6 1.2 7.85.18 10.96 2.92-3.22.2-6.43.57-9.59 1.22-5.24-2.58-9.35-7.34-7.94-13.6.59-3.07-.72-5.64-3.79-6.51l1.38 3.95c-1.95 3.74-4.31 7.25-7.01 10.49l-2.34.06a164.91 164.91 0 0 1-5.23-4.64c2.17-3.93 4.8-7.59 8.04-10.7l3.88 1.16c-.53-3.56 1.72-6.24 4.62-7.98.82 2.12.71 5.09 2.58 6.57 6.29 1.16 14.51-.1 17.48-6.58 1.92-2.77-1.74-5.52-.44-8.38z"/><path fill="#fef0d1" d="M101.55 64.67c4.43-.28 8.67 1.19 11.95 4.17l-1.37 2.43c-4-1.23-8.4-2.94-12.37-.67.71-1.94 1.25-3.94 1.79-5.93z"/><path fill="#9f998f" d="M316.74 68.95c6.08-8.23 12.99 6.63 20.17 2 2.52-1.98 5.61-2.68 8.76-2.76l2.15 2.05c-1.14 1.14-2.31 2.27-3.41 3.45-1.65-.75-3.41-1.21-5.23-1.09 1.01 1.21 2.06 2.39 3.11 3.57l1.83 2.22c.75 1.12 1.45 2.27 2.17 3.42l1.51-1.8-1-3.36 3.87-2.64 1.96 2.12c-.97 2.97-1.24 6.96-4.79 8-1.7.89-3.39 1.8-4.94 2.93-2.2-2.64-4.24-5.4-6.22-8.2-6.15-4.88-13.23 1.12-18.25 4.83-5.76.48-7.14-6.27-7.15-10.7l2.79-2.05 3.43 3.21c-.71 1.68-1.2 3.46-.87 5.29 3.08-2.18 6.25-4.45 8.2-7.77-3.07.34-6.19.04-8.09-2.72z"/><path fill="#fff5e1" d="M57.18 73.22c4.03-2.34 8.25-4.32 12.55-6.12 1.48 2.16 2.57 4.54 3.45 7-3.56 3.27-8.17 5.03-12.86 5.93-1.09-2.25-2.14-4.52-3.14-6.81z"/><path d="M99.76 70.6c3.97-2.27 8.37-.56 12.37.67-5.7 6.34 2.69 10.95 6.86 15.01 3.15 2.65 7.48 1.4 11.23 1.78-4.91 4.62-12.04 7.27-13.86 14.48-3.6 5.31.65 10.78 2.83 15.64 4.84.86 9.76.38 14.64.73l.9-2.45c2.15.97 4.28 2.15 5.6 4.19-1.35.95-2.68 1.92-4.09 2.78-2.15.23-4.31.41-6.47.29l-1.14-.13c-7.91-2.59-16.29-.8-24.37-.23-7.25-2.89-9.31-10.08-12.42-16.46l4.61-2.88-5.33.2c-.1-5.21-.12-10.42-.56-15.61-1.32 4.93.6 12.17-5.45 14.28l.93 4.98 5.51 1.01c2.05 3.44 3.33 7.25 4.04 11.18-3.23 2.04-6.78 3.69-10.71 3.28l1.45-1.73c5.36-3.6 3.62-11.65-2.77-12.68l-.51-4.29-8.34.27c1.94 1.42 3.81 2.98 5.16 5l-3.11 3.21-1.01 1.09c-4.09-2.75-9.01-2.88-13.59-1.3l1.51-5.01c3.41-.34 6.79-.86 10.15-1.5-.32-1.42-.75-2.81-1.13-4.22-3.11-2.74-7.36-1.72-10.96-2.92-2.18-5.12-6.12-10.13-2.74-15.88 4.01.48 8.56 2.55 12.29.1 3.84-2.25 4.8-6.9 6.2-10.78l4.86 2.23c.88.37 1.77.71 2.67 1.01 3.48 1.09 7.15.98 10.74.87 1.48-1.98 2.96-3.97 4.01-6.21m11.93 22.5c.31 1.9.65 3.81 1.02 5.71l-2.81 4.28 2.78-.59c1.32-3.11 2.73-7.31-.99-9.4m-8.19 8.38l1.66 2.65 4.28-.45c-1.64-1.48-3.84-1.84-5.94-2.2zm106.62 19.56c1.94 3.3 3.59 6.76 5.55 10.05l3.55-1.88.42 3.7c.41 4.46 1.6 8.79 2.89 13.07.52 2.23.61 4.53.43 6.81l-.37 1.38c-3.93 8.09-13.8 10.2-22.02 9.28 1.71-2.21 3.83-4.04 6.13-5.61l-3.09-2.76c.46-5.95.91-11.92.51-17.88l2.07-2.42c-.76-2.59-1.32-5.24-1.56-7.92 1.12-2.54 3.3-4.25 5.49-5.82z" fill="#fffffb"/><path fill="#fffbe5" d="M116.39 70.04c3.8 2 7.08 4.79 10.48 7.39-.71 2.79-2.4 5.15-4.16 7.38-3.64-2.31-6.93-5.1-10.5-7.49.15-3 2.28-5.18 4.18-7.28z"/><path fill="#a9937e" d="M177.7 69.99c1.39 1.8 2.42 3.84 2.93 6.06l-2.89-.49-1.32 2.43c4.78 6.22 14.77 6.91 16.34 15.7 1.28 3.72 3.75 6.9 7.38 8.56-4.39-.32-8.8-.56-13.09-1.57l-3.72-1.12c-1.54-3.25-1.41-6.8-.18-10.11l-2.63-3.3c-2.74-3.42-5.94-6.45-9.41-9.13l-.83 4.06c1.75 1.98 3.48 3.99 5.5 5.7l3.22 2.75-5.81 3.55 3.07 6.02c-4.08-.48-8.17-.88-12.27-1.09l-1.16 1.97-2.52-1.28-.39 3.28c-2.65-1.46-5.33-2.88-8.06-4.2-.14 4.13.38 8.3 2.4 11.97l2.29-.15 3.58-4.61c.25 3.5.6 7 1.04 10.48-4.32 1.78-7.5 5.52-6.23 10.46l-1.73 2.01-1.06-3.41-2.91-.23-2.14-.19 1.79-4.48.49-1.74.76 5.21 4.21.18c-1.2-7.77-6.24-15.33-3.79-23.32-1.51 1-3.07 1.96-4.34 3.26-2.4 6.28-9.09 6.31-14.08 3.18l-1.25 1.25c.04 2.42.91 6.08-2.29 6.87-5.39 1.91-6.8-4.93-8.69-8.43 1.55-2.13 3.22-4.18 5.02-6.11l5.26 1.81 1.04-5.65 6.63 9.58 6.73-3.05c-.96-2.15-1.94-4.3-2.81-6.49.12-1.74.33-3.48.52-5.22 4.37-.24 8.49 1.22 12.2 3.42-1.32-2.21-2.68-4.4-4.09-6.55 2.17 1.3 4.37 2.56 6.58 3.81 1.93-3.66 4.75-9.3-.79-11.29-2.58-1.26-5-2.88-6.45-5.44 3.82 1.82 7.42 4.04 11.05 6.18 2.94-1.55 5.88-3.17 8.41-5.36 3.7-.28 6.03-3.36 8.49-5.74m-16.25 12.15l1.17 2.9c-1.55 2.76-3.52 5.51-3.9 8.73 1.1 4.48 6.34 3.39 9.68 2.62-1.11-5.56-4.4-11.85-.43-16.99l-6.52 2.74z"/><path d="M139.7 73.16c2.07-1.32 4.46-1.96 6.88-2.33.06 4.41-.13 8.83-.75 13.21l-4.04-.91c-2.62-1.99-5.17-4.06-7.64-6.24 1.83-1.28 3.65-2.56 5.55-3.73zm14.32 94.82c4.25-.38 8.52-.58 12.78-.24 4.68 2.21 9.6 6.05 8.63 11.9l-6.55-.59 3.23 1.95c.24 4.95 1.15 9.89.92 14.85-1.19 3.69-3.34 7.09-3.48 11.09-.52 3.2-2.2 6.01-4.01 8.64-1.95-.28-3.9-.52-5.86-.66-1.75-5.38-5.42-10.12-5.88-15.89-.85-6.26 2.45-12.67-.21-18.72l-.46-3.92c.2-2.81.56-5.61.89-8.41zm-14.72 84.61c1.87-1.93 4.29-3.05 6.91-3.55.61 4.77.31 9.62-1.31 14.18-2.12-1.37-4.03-3.07-5.25-5.31l3.42-.82-.41-2.47-3.36-2.03z" fill="#fffffe"/><path fill="#292625" opacity=".67" d="M339.18 72.6c1.82-.12 3.58.34 5.23 1.09l-2.12 2.48-3.11-3.57z"/><path fill="#847360" d="M127.44 78.98c.75-1.99 1.94-3.76 3.41-5.29l3.03 2.75c-.89 2.78-4.17 2.16-6.44 2.54z"/><path fill="#cdb9a5" d="M241.9 76.22l12.63 3.49c.62 5.11-.17 10.27-2.67 14.8l-1.92-1.31c-.89-2.57-2.68-4.57-4.89-6.09-1.7-1.37-3.32-2.83-4.93-4.3l1.78-6.59z"/><path fill="#fff5d4" d="M171.11 77.02c3.47 2.68 6.67 5.71 9.41 9.13-1.58.23-3.15.48-4.74.63-2.02-1.71-3.75-3.72-5.5-5.7l.83-4.06z"/><path fill="#d1bba1" d="M318.43 83.69c5.02-3.71 12.1-9.71 18.25-4.83-5.57.42-10.01 3.94-14.5 6.87 2.31 4.44 5.12 8.6 8.26 12.5-5.76 3.64-10.93 8.14-16.73 11.74-3.83-1.92-5.75-7.03-10.12-7.61-5.8-.21-12.71.62-14.75 7.07-.78-.58-1.58-1.14-2.34-1.74.6-3.36 4-4.96 6.23-7.17 3.87-.34 8.51.9 11.53-2.25 4.83-4.22 9.96-8.62 16.56-9.51-1.95-.87-3.9-1.78-5.82-2.72a138.18 138.18 0 0 1 3.43-2.35m-1.14 11l-.02 6.12 6 .44c.87-4.32-1.29-7.74-5.98-6.56m-5.38 3.7l-.64 2.51c1.6 2.08 3.25 4.59 6.22 4.59-1.56-2.6-3.51-4.91-5.58-7.1z"/><path fill="#312f2e" opacity=".73" d="M344.12 78.39l2.68-1.74 1 3.36-1.51 1.8-2.17-3.42z"/><path fill="#73604d" d="M161.45 82.14l6.52-2.74c-3.97 5.14-.68 11.43.43 16.99-3.34.77-8.58 1.86-9.68-2.62.38-3.22 2.35-5.97 3.9-8.73l-1.17-2.9z"/><path fill="#e8d2b7" d="M322.18 85.73c4.49-2.93 8.93-6.45 14.5-6.87 1.98 2.8 4.02 5.56 6.22 8.2-4.1 3.78-7.78 8.07-12.46 11.17-3.14-3.9-5.95-8.06-8.26-12.5z"/><path fill="#fde8cb" d="M118.99 86.28c5.03 1.04 8.22-2.53 10.69-6.31 3.01 2.42 5.98 4.95 8.27 8.1-6.07 2.58-10.82 7.3-16.68 10.25-3.59 3.5-5.98 10.72-1.36 14.44 2.51 2.07 4.73 6.6 8.54 4.89 4.46-1.86 5.74-8.83 11.54-8.02 3.35-.71 5.19 2.03 6.48 4.61-.29-2.82-.45-5.64-.57-8.46l2.11 2.25c.53 3.28.94 6.57 1.37 9.86l-.49 1.74a56.17 56.17 0 0 1-8.56 1.02c-1.32-2.04-3.45-3.22-5.6-4.19l-.9 2.45c-4.88-.35-9.8.13-14.64-.73-2.18-4.86-6.43-10.33-2.83-15.64 1.82-7.21 8.95-9.86 13.86-14.48-3.75-.38-8.08.87-11.23-1.78z"/><path fill="#4d433a" d="M231.25 87.82l5.03-4.7 3.94 3.96 4.83.03c2.21 1.52 4 3.52 4.89 6.09l1.92 1.31 4.25 3.18c-2 3.21-1.35 7.03-1.84 10.6l-2.06-2.65c.2-2.54.36-5.09.43-7.64l-2.16-.95c-3.48-1.5-6.37-4-9.58-5.96-3.11-1.4-6.41-2.25-9.65-3.27z"/><path fill="#ac957b" d="M51.37 83.29c3.07.87 4.38 3.44 3.79 6.51-3.35 2.85-6.3 6.52-1.83 9.95-3.94 1.75-5.54 5.82-5.99 9.83 2.74-.16 5.48-.46 8.2-.85l-.34-5.99c2.77 3 2.31 6.85.92 10.38l4.48.74c-.01 3.27-.09 6.54-.22 9.82l-2.09.43a106.46 106.46 0 0 0 .35-8.75c-1.11 0-2.22-.01-3.33-.01-3.19 0-6.39-.06-9.58-.24l-.76-.04c.53-5.73 4.79-13.53-1.57-17.28l2.34-.06c2.7-3.24 5.06-6.75 7.01-10.49l-1.38-3.95z"/><path fill="#807063" d="M342.9 87.06c1.55-1.13 3.24-2.04 4.94-2.93-3.96 6.59 3.56 12.31 1.63 19.14-5.18 2.46-5.94-3.42-5.09-7.13a130.12 130.12 0 0 0-7.76 5.85l1.22 1.75 3.17-1.35 3.21 4.68c-4.33 4.04-9.75-.09-13.04-3.37-5.62 3.69-12.11 6.94-15.51 13.03-1.36-1.21-2.67-2.47-3.81-3.88-2.6-3.62-5.56-6.96-8.27-10.49 4.37.58 6.29 5.69 10.12 7.61 5.8-3.6 10.97-8.1 16.73-11.74 4.68-3.1 8.36-7.39 12.46-11.17z"/><path fill="#d3bfa4" d="M175.78 86.78l4.74-.63 2.63 3.3c-1.23 3.31-1.36 6.86.18 10.11l3.72 1.12c-1.79.42-3.56.94-5.32 1.44-2.08-1.8-4.76-2.09-7.4-2.1 1.25 2.57 2.28 5.24 2.93 8.02l2.03-.61c2.28 2.63 4.23 5.86 7.45 7.43 3.32-.21 6.63-2.12 7.52-5.51 5.27-2.19 11.56-4.53 16.65-.6l3.36-3.83c1.36.49 2.7 1.05 4.04 1.61l-4.37.97c1.96 5.96-4.49 7.73-7.37 11.47-1.76 2.45-3.75 4.75-6.19 6.55-1.73.99-3.54 1.84-5.31 2.74l-5.34-9.38c-2.68 2.16-5.92 4.17-7.22 7.5 1.47 6.57-1.12 13-1.09 19.6-1.52-1.94-3.14-3.81-4.6-5.79l.61 4.87c-2.06-5.72-2.55-11.86-4.7-17.55-.5-2.52 1.03-4.57 2.97-6l-.53 2.48c3.5-.18 6.99-.9 9.66-3.33l-5.51-2.36-.12-2.48c-2.99 3.07-6.06 6.07-9.27 8.91-2.26-3.4-4.04-7.1-5.13-11.03l6.81 1.24-1.43-1.79c3.07.01 6.14-.01 9.2-.16-5.42-7.23-12.71-.93-18.21 2.48-.44-3.48-.79-6.98-1.04-10.48l-3.58 4.61-2.29.15c-2.02-3.67-2.54-7.84-2.4-11.97 2.73 1.32 5.41 2.74 8.06 4.2l.39-3.28 2.52 1.28 1.16-1.97c4.1.21 8.19.61 12.27 1.09l-3.07-6.02 5.81-3.55-3.22-2.75m18.3 29.3c3.35 1.96 7.29 1.79 11.02 1.66-2.77-2.85-8.06-5.93-11.02-1.66z"/><path fill="#7b7064" opacity=".92" d="M312.38 87.96l2.62-1.92 5.82 2.72c-6.6.89-11.73 5.29-16.56 9.51-3.02 3.15-7.66 1.91-11.53 2.25 5.87-2.4 12.28-3.6 16.26-9.21 1.78-.24 3.16-1.55 3.39-3.35z"/><path fill="#d9c0a1" d="M137.95 88.07l2.22 4.42c-3.35-1.53-8.45-.61-8.94 3.65l-1.04 5.65-5.26-1.81c-1.8 1.93-3.47 3.98-5.02 6.11 1.89 3.5 3.3 10.34 8.69 8.43 3.2-.79 2.33-4.45 2.29-6.87l1.25-1.25c4.99 3.13 11.68 3.1 14.08-3.18.63 1.59 1.26 3.18 1.79 4.81l-2.11-2.25c.12 2.82.28 5.64.57 8.46-1.29-2.58-3.13-5.32-6.48-4.61-5.8-.81-7.08 6.16-11.54 8.02-3.81 1.71-6.03-2.82-8.54-4.89-4.62-3.72-2.23-10.94 1.36-14.44 5.86-2.95 10.61-7.67 16.68-10.25z"/><path fill="#1e1b19" opacity=".52" d="M308.99 91.31a4.04 4.04 0 0 1 3.39-3.35c-.23 1.8-1.61 3.11-3.39 3.35z"/><path fill="#d6c1ad" d="M85.11 102.89c6.05-2.11 4.13-9.35 5.45-14.28.44 5.19.46 10.4.56 15.61l5.33-.2-4.61 2.88c3.11 6.38 5.17 13.57 12.42 16.46 8.08-.57 16.46-2.36 24.37.23-2.05.1-4.08.31-6.11.64l-62.14-.55c.13-3.28.21-6.55.22-9.82l-4.48-.74c1.39-3.53 1.85-7.38-.92-10.38a71.12 71.12 0 0 0-1.87-2.99c-4.47-3.43-1.52-7.1 1.83-9.95-1.41 6.26 2.7 11.02 7.94 13.6 3.16-.65 6.37-1.02 9.59-1.22.38 1.41.81 2.8 1.13 4.22-3.36.64-6.74 1.16-10.15 1.5l-1.51 5.01c4.58-1.58 9.5-1.45 13.59 1.3l1.01-1.09c-.92 5.97 4.45 8.56 9.57 8.49l-1.45 1.73c3.93.41 7.48-1.24 10.71-3.28-.71-3.93-1.99-7.74-4.04-11.18l-5.51-1.01-.93-4.98m-21.83 14.94c1.19 2.07 2.08 4.81 4.67 5.49 2.72.1 5.43-.05 8.14-.19-.73-6.1-8.04-9.42-12.81-5.3z"/><path fill="#f4ddc5" d="M131.23 96.14c.49-4.26 5.59-5.18 8.94-3.65l1.61 3.69 2.81 6.49-6.73 3.05-6.63-9.58z"/><path fill="#918471" d="M240.77 99.03l.13-7.94c3.21 1.96 6.1 4.46 9.58 5.96-2.65 7.51-4.72 15.29-2.12 23.17l-4.25-.43c.21-3.72 1.77-8.43-1.66-11.18-3.26-2.46-7.74-1.63-11.57-2.3-2.97-.25-5.9-1.16-8.18-3.15l.5-5.71.53-.03.04 2.7.06 2.95c7.75 1.3 15.54 2.47 23.38 2.97-.21-1.67-.36-3.34-.55-5.01-1.98-.64-3.96-1.26-5.89-2z"/><path fill="#c0ab97" d="M111.69 93.1c3.72 2.09 2.31 6.29.99 9.4l-2.78.59 2.81-4.28-1.02-5.71z"/><path fill="#8d8271" d="M317.29 94.69c4.69-1.18 6.85 2.24 5.98 6.56l-6-.44.02-6.12z"/><path fill="#feeed5" d="M223.73 97.42c5.73.14 11.76-1.48 17.04 1.61 1.93.74 3.91 1.36 5.89 2l-.83 3.38c-7.1-2.67-14.93-1.68-22.06-4.29l-.04-2.7z"/><path fill="#fbe3c9" d="M37.27 97.15l4.48 2.13c-1.48 2.65-2.83 5.37-3.92 8.2 1.69.71 4.63.02 5.54 1.72-.6 2.98-4.11 3.84-6.66 4.55l-1.76 7.99-4.05.29c1.15-8.45 1.35-17.63 6.37-24.88z"/><path fill="#726251" d="M250.48 97.05l2.16.95-.43 7.64 2.06 2.65c-.66 5.89-5.96 10.07-5.88 16.06l-7.09.63c-6.45-.31-13.26-1.28-19.18 2.01l2.54-3.22c6 .5 12.04.92 18.05.27l.13-2.77c-5.27-.33-10.55-.36-15.83-.41-5.3-3.98-5.41-10.59-8.02-16.1l2.66.13c2.59 3.47 5.22 7.72 9.94 8.28l.22-1.86c2.77 2.88 7.34 3.2 9.06-.97-3.5 1.74-6.99 1.37-8.75-2.43l-1.24-1.6c3.83.67 8.31-.16 11.57 2.3 3.43 2.75 1.87 7.46 1.66 11.18l4.25.43c-2.6-7.88-.53-15.66 2.12-23.17z"/><path fill="#54493f" d="M311.91 98.39c2.07 2.19 4.02 4.5 5.58 7.1-2.97 0-4.62-2.51-6.22-4.59l.64-2.51z"/><path fill="#89745e" d="M47.34 109.58c.45-4.01 2.05-8.08 5.99-9.83a71.12 71.12 0 0 1 1.87 2.99c.16 1.99.24 3.99.34 5.99-2.72.39-5.46.69-8.2.85z"/><path fill="#605345" d="M146.22 103.22c1.27-1.3 2.83-2.26 4.34-3.26-2.45 7.99 2.59 15.55 3.79 23.32l-4.21-.18-.76-5.21-1.37-9.86c-.53-1.63-1.16-3.22-1.79-4.81z"/><path fill="#f8e3c2" d="M174.33 100.02c2.64.01 5.32.3 7.4 2.1l5.32-1.44c4.29 1.01 8.7 1.25 13.09 1.57 3.81 1.07 7.76 1.4 11.67 1.96l2.46.71-3.36 3.83c-5.09-3.93-11.38-1.59-16.65.6-.89 3.39-4.2 5.3-7.52 5.51-3.22-1.57-5.17-4.8-7.45-7.43l-2.03.61c-.65-2.78-1.68-5.45-2.93-8.02z"/><path fill="#d6bea8" d="M223.77 100.12c7.13 2.61 14.96 1.62 22.06 4.29l.83-3.38.55 5.01c-7.84-.5-15.63-1.67-23.38-2.97l-.06-2.95z"/><path fill="#483b2e" d="M220.57 101.39l2.13 1.77c2.28 1.99 5.21 2.9 8.18 3.15l1.24 1.6-.31 3.4-.22 1.86c-4.72-.56-7.35-4.81-9.94-8.28a74.2 74.2 0 0 1-1.08-3.5z"/><path fill="#d0b9a3" d="M103.5 101.48c2.1.36 4.3.72 5.94 2.2l-4.28.45-1.66-2.65z"/><path fill="#f4e1cf" d="M288.84 109.43c2.04-6.45 8.95-7.28 14.75-7.07 2.71 3.53 5.67 6.87 8.27 10.49-3.14 3.82-5.51 8.88-11.14 9.24l.07-3.08.72-1.94-3.66-4.61-3.81 1.44c-1.68-1.56-3.38-3.1-5.2-4.47z"/><path fill="#b3a088" d="M211.81 104.21l7.18.55c2.61 5.51 2.72 12.12 8.02 16.1l-2.35 2.91-2.54 3.22c5.92-3.29 12.73-2.32 19.18-2.01-2.01.38-3.99.86-5.98 1.31-3.35 6.64-1.74 14.23.96 20.77l-2.59.14c-.32-4.71-3.63-8.44-4.45-13.02-.2-2.35-2.22-3.6-3.97-4.8l-5.63 3.53-.42-3.7-3.55 1.88c-1.96-3.29-3.61-6.75-5.55-10.05a113.35 113.35 0 0 0-3.55-2.07c2.88-3.74 9.33-5.51 7.37-11.47l4.37-.97c-1.34-.56-2.68-1.12-4.04-1.61l-2.46-.71m.05 16.29c4.1-.12 8.21-.15 12.31-.04-1.16-1.41-2.35-2.78-3.56-4.14-3.52-.24-6.53 1.58-8.75 4.18z"/><path fill="#e5cdba" d="M74.71 104.91l8.34-.27.51 4.29-3.69.98c-1.35-2.02-3.22-3.58-5.16-5z"/><path fill="#4d4239" d="M286.5 107.69l2.34 1.74c1.82 1.37 3.52 2.91 5.2 4.47l3.81-1.44 3.66 4.61-.72 1.94-.96 2.29c1.84 2.87 4.13 5.43 6.92 7.41-2.8-.29-5.35.87-7.68 2.29 1.05 1.94 2.09 3.91 3.23 5.81l-4.27-.37c-1.24-3.86-.09-7.78 1.29-11.43l-1.96-2.29-7.93-9.44c-6.45-.52-12.03 3.48-15.58 8.54-1.72 2.88-5.02 3.62-8.06 4.3 1.53-1.56 2.98-3.2 4.51-4.75 4.99-5.04 10.14-9.94 16.2-13.68z"/><path fill="#b0aab2" d="M232.12 107.91c1.76 3.8 5.25 4.17 8.75 2.43-1.72 4.17-6.29 3.85-9.06.97l.31-3.4z"/><path fill="#837364" d="M79.87 109.91l3.69-.98c6.39 1.03 8.13 9.08 2.77 12.68-5.12.07-10.49-2.52-9.57-8.49 1.02-1.09 2.06-2.15 3.11-3.21m.32 7.55l3.88 1.35c1.86-1.87 1.63-4.44.83-6.75-3.22-.01-5.26 2.19-4.71 5.4z"/><path d="M161.17 115.47c5.5-3.41 12.79-9.71 18.21-2.48-3.06.15-6.13.17-9.2.16l1.43 1.79-6.81-1.24c1.09 3.93 2.87 7.63 5.13 11.03 3.21-2.84 6.28-5.84 9.27-8.91l.12 2.48-3.62 3.21c-1.94 1.43-3.47 3.48-2.97 6 .31 7.64 1.02 15.29.43 22.94-2.13.6-4.2 1.34-6.27 2.09 1.69.35 3.38.64 5.08.96 3.38 10.19-10.19 10.77-16.86 9.58l-1.68-3.1-.04-.68c3.52-1.88 7.1-3.67 10.74-5.31l-7.92.68-2.19-6.1c1.34-6.07-1.36-12.65 1.8-18.31.14-1.47-.66-2.89-.88-4.33-1.27-4.94 1.91-8.68 6.23-10.46zm-123.09-.63l6.89.23.76.04.72 3c3.38.86 6.41-.48 8.86-2.76l3.33.01-.35 8.75c-6.03 1.09-12.18.29-18.26.62-1.37-.3-2.75-.59-4.13-.83a129.59 129.59 0 0 1 2.07.27l.11-9.33zm186.86 40.91c-.15-1.24-.05-2.48.16-3.71 7.79 7.59 7.3 20.36-.4 27.83l-.96-1.72c4.86-6.25 7.43-16.16 1.2-22.4zm-187.1 51.1l2.83-.66 17.61.06-.01 1.02-.15 8.06c-6.66-.18-13.33-.1-20 .07l-.28-8.55zM193.05 216c3.07-2.22 6.86-2.67 10.55-2.43l.07 3.14c-3.54 1.3-7.3 1.12-10.62-.71z" fill="#fff"/><path fill="#fff4db" d="M80.19 117.46c-.55-3.21 1.49-5.41 4.71-5.4.8 2.31 1.03 4.88-.83 6.75l-3.88-1.35z"/><path fill="#c1ab90" d="M273.85 121.82c3.55-5.06 9.13-9.06 15.58-8.54 2.56 3.21 5.24 6.32 7.93 9.44l-1.89.92-2.32 5.45-5.64-.51c-.06.21-.16.62-.21.82-.15.38-.43 1.14-.57 1.51-4.95.46-6.3 5.29-6.94 9.43l-1.63-.38c-2.31-3.13-3.83-6.76-4.8-10.5l7.25 1.32 1.81-4.2c-6.27-.05-12.75 3.52-18.7.07l2.07-.53c3.04-.68 6.34-1.42 8.06-4.3z"/><path fill="#b9a28a" d="M311.86 112.85c1.14 1.41 2.45 2.67 3.81 3.88-.72 1.88-1.19 3.84-1.5 5.83l-7.42 6.15c-2.79-1.98-5.08-4.54-6.92-7.41l.96-2.29-.07 3.08c5.63-.36 8-5.42 11.14-9.24z"/><path fill="#fefefe" d="M194.08 116.08c2.96-4.27 8.25-1.19 11.02 1.66-3.73.13-7.67.3-11.02-1.66z"/><path fill="#dbd7dc" d="M45.73 115.11l9.58.24c-2.45 2.28-5.48 3.62-8.86 2.76l-.72-3z"/><path fill="#f7e0cd" d="M63.28 117.83c4.77-4.12 12.08-.8 12.81 5.3-2.71.14-5.42.29-8.14.19-2.59-.68-3.48-3.42-4.67-5.49z"/><path fill="#fdfdfe" d="M211.86 120.5c2.22-2.6 5.23-4.42 8.75-4.18l3.56 4.14c-4.1-.11-8.21-.08-12.31.04z"/><path fill="#302820" d="M179.32 118.3l5.51 2.36c-2.67 2.43-6.16 3.15-9.66 3.33l.53-2.48 3.62-3.21z"/><path fill="#cdb7ad" d="M140.33 120.65a56.17 56.17 0 0 0 8.56-1.02l-1.79 4.48 2.14.19c-3.5.43-6.89 1.42-10.22 2.52-.61-2.19.25-4.28 1.31-6.17z"/><path d="M182.51 126.38c1.3-3.33 4.54-5.34 7.22-7.5l5.34 9.38c4.15 6.5 3.88 14.48 4.38 21.88l-5.21 3.06 3.85 3.86c-2.04 2.07-4.1 4.11-6.29 6.01-4.43 1.5-9.15 1.52-13.77 1.32.85-6.2 3.24-12.12 3.39-18.41-.03-6.6 2.56-13.03 1.09-19.6zm18.51 42.32c7.2-3.5 17.98.99 16.95 9.92l4.47.2.96 3.32-.83 2.02c-.75 3.14-1.24 6.33-1.85 9.5l-2.35 9.51-2.57-2.8-4.92 8.2-3.8-.28c-.29-1.16-.52-2.33-.78-3.49-1.86-5.41-2.44-11.1-2.29-16.8.22-4.88-2.08-10.28 1.15-14.6l-4.14-4.7zM65.56 225.86l1.01-.08c4.05.16 8.12.36 12.09 1.27 3.31 1.98 7.13 2.87 10.48 4.75 1.31 7.01.26 14.26.51 21.37-5.55.05-9.95 3.99-9.79 9.67l-5.07-1.22c.37-3.8.83-8.92-3.32-10.82-.42-.21-1.24-.65-1.65-.86-2.95-2.05-6.33-3.27-9.86-3.88a133.15 133.15 0 0 1-2.12-9.46c3.62-2.76 5.01-7.24 7.72-10.74zm45.32 27.9c3.87-3.16 8.6-4.97 13.54-5.51 4.03 6.06-3.53 9.69-7.86 12.23-2.39-1.77-4.2-4.16-5.68-6.72z" fill="#fffffd"/><path fill="#78685b" d="M200.38 125.52c2.44-1.8 4.43-4.1 6.19-6.55l3.55 2.07c-2.19 1.57-4.37 3.28-5.49 5.82-.89 1.66-2.94 1.57-4.54 1.92l.29-3.26z"/><path fill="#fff0d4" d="M136.24 123.43l4.09-2.78c-1.06 1.89-1.92 3.98-1.31 6.17 3.33-1.1 6.72-2.09 10.22-2.52a94.98 94.98 0 0 1 2.91.23l1.06 3.41 1.73-2.01c.22 1.44 1.02 2.86.88 4.33-3.16 5.66-.46 12.24-1.8 18.31l-.63-.91-.68-.95c-3.53.16-7.05.61-10.59.71l-2.82-.82-.31-4.3c3.52 3.87 11.79 4.06 12.47-2.28.73-7.05-8.76-9.39-12.61-4.15l-.23-6.43c-4.06-.09-8.12-.02-12.18.25l1.89 5.9c-3.63 2.17-6.43-1.23-9.02-3.34.33 2.34 1.45 4.43 2.81 6.33-2.8-.13-5.6-.17-8.4-.13.73 3.84 4.83 2.98 7.74 3.11l2.86 5.03c-1.82.27-3.62.64-5.44.87l-2.21-.19c-2.39-.19-4.8-.12-7.19.12l-2.27.24-.85.1-3.77.45c.03-.24.11-.71.15-.94 1.54-1.04 3.16-1.97 4.76-2.91.38-3.12.66-6.26.88-9.4 10.16-.9 18.18-10.02 29.1-7.82l-1.24-3.68z"/><path fill="#221d19" d="M224.66 123.77l2.35-2.91c5.28.05 10.56.08 15.83.41l-.13 2.77c-6.01.65-12.05.23-18.05-.27z"/><path fill="#3e372e" d="M58.29 124.11l2.09-.43 62.14.55c-11.48 4.46-24.29 1.35-36.31 1.63-1.42-.04-2.84-.06-4.26-.06-6.37.47-13.02-1.26-19.12 1.2-.99-.01-1.98-.04-2.96-.08-6.56-1.4-13.75.98-19.84-2.19 6.08-.33 12.23.47 18.26-.62z"/><path fill="#a18a75" d="M122.52 124.23c2.03-.33 4.06-.54 6.11-.64l1.14.13c-7.35 4.68-16.23 6.25-24.83 6.3-5.64-.15-9.56 4.54-14.83 5.73l-.82-4.9L82.9 128l3.31-2.14c12.02-.28 24.83 2.83 36.31-1.63z"/><path fill="#c9b39a" d="M129.77 123.72c2.16.12 4.32-.06 6.47-.29l1.24 3.68c-10.92-2.2-18.94 6.92-29.1 7.82-.22 3.14-.5 6.28-.88 9.4-1.6.94-3.22 1.87-4.76 2.91l-.15.94c.81 10.02.72 20.07-.12 30.09-1.44-6.71-1.68-13.61-1.56-20.45.68-2.98.79-6.05.67-9.1l-2.87-.96-.09-1.59 2.88-1.45c-4.03-2.14-7.37-7.52-12.52-5.95-2.6.47-4.96 1.73-7.22 3.05-.11-5.34.02-10.68.19-16.02l4.26.06L82.9 128l6.39 2.85.82 4.9c5.27-1.19 9.19-5.88 14.83-5.73 8.6-.05 17.48-1.62 24.83-6.3m-29.6 10.45c-1.22 3.2.41 6.26 1.75 9.11l4 .5-1.82-2.66 2.83-.63c.16-2.45-.14-4.9-.99-7.21a80.37 80.37 0 0 0-5.77.89z"/><path fill="#8e7f70" d="M295.47 123.64l1.89-.92 1.96 2.29c-1.38 3.65-2.53 7.57-1.29 11.43l4.27.37c1.93 3.11 4.66 6.02 4.57 9.93-2.08.67-4.18 1.28-6.32 1.72-2.76-.87-5.62-1.31-8.49-1.58l-4.72-7.12c.26-3.45.05-6.91-.04-10.36l.21-.82 5.64.51 2.32-5.45m-4.77 16.9a54.78 54.78 0 0 0 .31 3.37c4.52 2.37 9.86 1.59 14.78 1.84l.03-2.56c-4.93-1.47-10.1-1.67-15.12-2.65z"/><path fill="#88735e" d="M241.3 124.98l7.09-.63 4.61 2.99 9.28-.58-9.48 1.19-1.82.09.45 10.89 4.87 1 1.65.21 1.78 3.72-8.74-2.14-.8 6.64-6.37 2.39-2.52.16-4.71 4.52-4.65-3.32-.18 2.89c-1.43-2.09-2.18-4.52-2.87-6.93l-4.94-.22 1.15 4.19c-.21 1.23-.31 2.47-.16 3.71l-1.98-2.96c.18-2.28.09-4.58-.43-6.81l1.85-1.31.57 2.57 8.74-.04 2.59-.14c-2.7-6.54-4.31-14.13-.96-20.77l5.98-1.31z"/><path fill="#efd4b8" d="M195.07 128.26l5.31-2.74-.29 3.26c1.6-.35 3.65-.26 4.54-1.92.24 2.68.8 5.33 1.56 7.92l-2.07 2.42-.3-3.12-2.49 1.48c.29 5.12 1.23 10.21.92 15.34l-2.86 1.55c-.22 1.59-.5 3.2-1.3 4.61l-3.85-3.86 5.21-3.06c-.5-7.4-.23-15.38-4.38-21.88z"/><path fill="#96806c" d="M62.83 127c6.1-2.46 12.75-.73 19.12-1.2-.17 5.34-.3 10.68-.19 16.02 2.26-1.32 4.62-2.58 7.22-3.05 5.15-1.57 8.49 3.81 12.52 5.95l-2.88 1.45.09 1.59-1.29-.4c-6-.82-12.02.34-18.02.48l-.54 9.42c-.53 0-1.58 0-2.1-.01l-1.38-.12.07-9.12c3.65-.61 7.35-.81 11.05-.85l-5.01-2.7-.16-7.11c-.12-2.98-.4-5.94-.72-8.9-5.95.13-12.06.66-17.78-1.45z"/><path opacity=".88" d="M59.87 126.92l2.96.08c5.72 2.11 11.83 1.58 17.78 1.45.32 2.96.6 5.92.72 8.9-6.82.31-13.71.08-20.35-1.61l-2.2-.7 1.09-8.12z"/><path fill="#e8d0b1" d="M262.28 126.76l1.44-.11c5.95 3.45 12.43-.12 18.7-.07l-1.81 4.2-7.25-1.32c.97 3.74 2.49 7.37 4.8 10.5-6.74-.04-13.47.69-20.21.18l-1.65-.21c.91-4.38-.9-8.54-3.5-11.98 3.17-.26 6.32-.79 9.48-1.19z"/><path fill="#fae9ca" d="M172.73 127.51c2.15 5.69 2.64 11.83 4.7 17.55l.2 2.04-.75 2.42c-1.24.29-2.49.6-3.72.93.59-7.65-.12-15.3-.43-22.94m2.33 18.9c-1.54 2.97 3.34.13 0 0z"/><path fill="#c8b192" d="M250.98 128.04l1.82-.09c2.6 3.44 4.41 7.6 3.5 11.98-1.63-.29-3.25-.64-4.87-1l-.45-10.89z"/><path fill="#ffe" d="M126.44 129.69c4.06-.27 8.12-.34 12.18-.25l.23 6.43.14 6.43c.07 1.44.19 2.87.31 4.3-1.26-.51-2.48-1.07-3.71-1.63l-.64 2.02c-3.53-.3-7.09-.7-10.63-.4l-2.86-5.03c-2.91-.13-7.01.73-7.74-3.11 2.8-.04 5.6 0 8.4.13-1.36-1.9-2.48-3.99-2.81-6.33 2.59 2.11 5.39 5.51 9.02 3.34l-1.89-5.9z"/><path fill="#dfc6a7" d="M225.27 129.38c1.75 1.2 3.77 2.45 3.97 4.8.82 4.58 4.13 8.31 4.45 13.02-2.91.15-5.83.13-8.74.04l-.57-2.57-1.85 1.31c-1.29-4.28-2.48-8.61-2.89-13.07l5.63-3.53z"/><path fill="#181515" d="M287.3 129.4c.09 3.45.3 6.91.04 10.36l-.22 2.69c-.22 2.16-.39 4.34-.54 6.51-1.82-.41-3.58-1.01-5.34-1.62-.75-2.57-1.85-5.02-3.08-7.38l1.63.38c3.73-1.85 5.65-5.67 6.94-9.43l.57-1.51z"/><path fill="#94816e" d="M279.79 140.34c.64-4.14 1.99-8.97 6.94-9.43-1.29 3.76-3.21 7.58-6.94 9.43z"/><path fill="#f0d8c0" d="M100.17 134.17l5.77-.89c.85 2.31 1.15 4.76.99 7.21l-2.83.63 1.82 2.66-4-.5c-1.34-2.85-2.97-5.91-1.75-9.11z"/><path fill="#928374" d="M138.85 135.87c3.85-5.24 13.34-2.9 12.61 4.15-.68 6.34-8.95 6.15-12.47 2.28-.08-2.14-.09-4.29-.14-6.43m4.34 5.87h3.59c.66-1.99 1.42-5.49-1.79-5.31-3.32-.32-2.58 3.29-1.8 5.31z"/><path fill="#b1a196" d="M201.33 135.56l2.49-1.48.3 3.12c.4 5.96-.05 11.93-.51 17.88l3.09 2.76c-2.3 1.57-4.42 3.4-6.13 5.61 8.22.92 18.09-1.19 22.02-9.28-.81 3.56-1.51 7.15-2.57 10.66-6.98.14-14 .57-20.93-.42l.96-4.72c-2.67 1.32-5.4 2.53-8.25 3.38 2.19-1.9 4.25-3.94 6.29-6.01.8-1.41 1.08-3.02 1.3-4.61l2.86-1.55c.31-5.13-.63-10.22-.92-15.34z"/><path d="M143.19 141.74c-.78-2.02-1.52-5.63 1.8-5.31 3.21-.18 2.45 3.32 1.79 5.31h-3.59zm3.57 6.97c1.27 8.6.16 17.33.7 25.98l-.06 9.28 4.62.5-1.57 3.99c-2.49-1.97-5.93-3.91-9.04-2.06-4.69 2.04-3.92 10.59 1.51 10.91 3.46 1.03 6.34-1.05 8.43-3.58 1.23 4.2 1.41 8.6.46 12.88l-4.99 1.45c-1.96 3.23-3.04 6.9-2.62 10.69-3.78.04-7-1.91-9.98-4.01-3.23-2.41-8.62-1.98-10.68 1.76-2.61 3.66-7.16 8.05-4.16 12.82 2.43 6.79 10.7 8.3 13.8 14.43-2.76.36-5.52.55-8.29.73-7.21.3-14.95 4.65-16.49 12.16-5.45-2.41-11.87-1.44-16.94-4.97-.61-8.1-.48-16.24.15-24.32l5.08-.54c-1.3-1.17-2.78-2.08-4.33-2.86l1.49-5.4c.71-4.63 3.88-7.87 8.29-9.14l-4.52-1.16c.84-.37 1.68-.73 2.54-1.07 2.53-.07 5.06-.06 7.59-.01 12.2 1.66 25.03-1.81 36.73 3.61-1.57-1.96-3.83-3.09-6.06-4.1l-.37-2.81-.45-3.79c-7.85.21-16.45.94-23.19-3.94l2.69-2.51-.9-2.17-4.34 1.09-.41-4.92c3.26-1.87 7.01-1.83 10.58-1.03l3.29-2.85 2.91.41c3.06.72 5.99 1.88 8.93 3l1.54-3.23 7.88-.09c-.23-11.71-.07-23.42.18-35.13m-42.97 89.48c-1.15-3.77-.6-7.51 2.07-10.47-4.83.82-6.34 7.94-2.07 10.47zm39.06-43.7c-3.9-3.92 2.48-8.77 4.93-3.68l-1.64 3.77-3.29-.09z" fill="#fffffa"/><path fill="#937f6b" d="M176.82 140.19l4.6 5.79c-.15 6.29-2.54 12.21-3.39 18.41 4.62.2 9.34.18 13.77-1.32 2.85-.85 5.58-2.06 8.25-3.38l-.96 4.72c6.93.99 13.95.56 20.93.42 1.06-3.51 1.76-7.1 2.57-10.66l.37-1.38c.61 1.01 1.27 2 1.98 2.96 6.23 6.24 3.66 16.15-1.2 22.4-2.02-3.41-2.76-7.35-3.74-11.13l-21.38.31-.27 4.79-2.58-2.01.57-2.85c-6.27-.37-12.55-.79-18.83-.36a43.32 43.32 0 0 0 2.18 9.38c1.05 3.08 1.54 6.33 1.65 9.58l-.44 2.16c-5.62-3.36-2.58-11.1-5.76-16.08-.82-4.01-5.03-4.12-8.34-4.2-4.26-.34-8.53-.14-12.78.24-.33 2.8-.69 5.6-.89 8.41l-1.42-6.97c-.95 2.1-2.39 3.9-4.25 5.27-.54-8.65.57-17.38-.7-25.98-.25 11.71-.41 23.42-.18 35.13l-7.88.09c.23-11.7.85-23.62-.94-35.21-1.2 11.79-1 23.73-.52 35.58l-7.53-.43c-.23-11.92-.01-23.84.14-35.76l12.27-.69c3.54-.1 7.06-.55 10.59-.71l.68.95c-.08 3.88-.3 7.76 0 11.64l.04.68c0 1.3-.06 2.61-.11 3.91 6.82-.2 13.72.25 20.44-1.21-.01-5.67 3.31-10.39 3.87-15.58l-.2-2.04-.61-4.87m-44.44 14.8c.15 9.38-.23 18.78.17 28.16 2.76-1.85 1.47-5.86 1.87-8.7-.41-8.57.82-17.28-.83-25.74-1.43 1.78-1.16 4.14-1.21 6.28m9.07-5.47c-.68 9.11-.53 18.28-.14 27.41.18 1.93-.41 4.33 1.41 5.66 1.07-11.22 1-22.58.28-33.82l-1.55.75z"/><path fill="#b5a28b" d="M257.95 140.14c6.74.51 13.47-.22 20.21-.18 1.23 2.36 2.33 4.81 3.08 7.38.36 3.55.31 7.12.15 10.68-3.59.05-7.18.01-10.76-.14-4.61-.17-9.22-.16-13.82-.01 6.32-3.36 13.07-.88 19.73-.99l.58-2.23.54-2.3c.36-1.52.67-3.05.97-4.58-7.16-1.59-14.46-2.38-21.76-2.98l5.37 2.85c-2.46 1.37-4.94 2.77-7.01 4.71l-1.42-4.95c-1.21.3-2.42.61-3.62.96l.8-6.64c2.92.65 5.84 1.37 8.74 2.14l-1.78-3.72z"/><path fill="#493c31" d="M287.34 139.76l4.72 7.12c.51 2.1.81 4.24 1.14 6.37 4.21.11 8.66-3.13 12.22.59l.09 4.29c-1.96.78-3.9 1.6-5.88 2.31-5.5.84-11.02-.44-16.52-.11-4.93 1.08-7.59 8.36-2.31 10.94l-1.06 3.49-3.57.07c-2.22-.28-4.14-1.41-5.73-2.92 2.14.02 4.95 1.6 6.44-.67.1-2.76.14-5.54-.18-8.28l-.6-1.78-4.26-1.04-1.21-2.26c3.58.15 7.17.19 10.76.14.16-3.56.21-7.13-.15-10.68 1.76.61 3.52 1.21 5.34 1.62l4.14.11c-.97-2.32-2.16-4.55-3.6-6.62l.22-2.69m-.65 17.97c3.58.49 7.2.66 10.8.27-2.91-2-8.68-4.24-10.8-.27z"/><path fill="#f7dec7" d="M290.7 140.54c5.02.98 10.19 1.18 15.12 2.65l-.03 2.56c-4.92-.25-10.26.53-14.78-1.84a54.78 54.78 0 0 1-.31-3.37z"/><path fill="#080706" opacity=".37" d="M287.12 142.45c1.44 2.07 2.63 4.3 3.6 6.62l-4.14-.11.54-6.51z"/><path fill="#ecd5c7" d="M135.59 144.97l3.71 1.63 2.82.82-12.27.69-.14 35.76 7.53.43c-.48-11.85-.68-23.79.52-35.58 1.79 11.59 1.17 23.51.94 35.21-.49 1.09-1.02 2.16-1.54 3.23-2.94-1.12-5.87-2.28-8.93-3 .27-12.12-.4-24.22-.18-36.33l-2.62.01-.11 35.91-3.29 2.85c-3.57-.8-7.32-.84-10.58 1.03l-.87.42c1.95-3.04 4.41-6.2 3.9-10.05-.54-10.08.47-20.2-.2-30.24l-2.57-.28-.37 34.92-.89-1.48c-.23-11.16.9-22.51-.97-33.53 2.39-.24 4.8-.31 7.19-.12-1.06 12.18.41 24.42-.33 36.62l2.97.57c-.43-12.34-.5-24.67-.43-37 1.82-.23 3.62-.6 5.44-.87 3.54-.3 7.1.1 10.63.4l.64-2.02m-14.65 3.14l-.28 36.19 2.99-.71c-.71-12.06.27-24.15-.3-36.21l-2.41.73z"/><path fill="#d8c0a6" d="M256.87 144.79c7.3.6 14.6 1.39 21.76 2.98-.3 1.53-.61 3.06-.97 4.58l-.97-2.59c-1.54.71-3.05 1.47-4.54 2.26l4.97 2.63-.58 2.23c-6.66.11-13.41-2.37-19.73.99l-4.93.23-.63-5.13 2.39 2.77 1.59-3.39c2.07-1.94 4.55-3.34 7.01-4.71l-5.37-2.85z"/><path fill="#c9b299" d="M175.06 146.41c3.34.13-1.54 2.97 0 0z"/><path fill="#edd5be" d="M79.4 147.84c6-.14 12.02-1.3 18.02-.48 2.54 3.39 2.07 7.43-1.35 9.98-5.74-.26-11.48-.2-17.21-.08l.54-9.42z"/><path fill="#b6b0ba" d="M176.88 149.52l.75-2.42c-.56 5.19-3.88 9.91-3.87 15.58-6.72 1.46-13.62 1.01-20.44 1.21l.11-3.91 1.68 3.1c6.67 1.19 20.24.61 16.86-9.58l-5.08-.96c2.07-.75 4.14-1.49 6.27-2.09 1.23-.33 2.48-.64 3.72-.93z"/><path fill="#f6f1f4" d="M250.19 148.36l3.62-.96 1.42 4.95-1.59 3.39-2.39-2.77.63 5.13-3.71.1-4.46-3.12.11-4.33c2.16-.67 4.23-1.62 6.37-2.39z"/><path fill="#615954" d="M292.06 146.88c2.87.27 5.73.71 8.49 1.58l4.61 1.78.26 3.6c-3.56-3.72-8.01-.48-12.22-.59-.33-2.13-.63-4.27-1.14-6.37z"/><path fill="#45362c" d="M97.42 147.36l1.29.4 2.87.96c.12 3.05.01 6.12-.67 9.1l-.93 2.86c-1.82-5.84-4.29.35-5.13 3.12l-1.79-4.23c-.45 4.76-.54 9.54-.6 14.32l-.12-15.05c-5.21-.4-10.41-.85-15.58-1.59l2.1.01c5.73-.12 11.47-.18 17.21.08 3.42-2.55 3.89-6.59 1.35-9.98z"/><path fill="#806c62" d="M102.59 148.18l3.77-.45c-.66 10.9-1.44 21.81-.22 32.72-3.23-.02-6.43.67-9.39 1.97-3.23-1.14-6.84.7-6.66 4.39-3.29 2.64-6.14 7.39-1.91 10.58l.67 6.42c3.55.59 7.14.96 10.74 1.05l.27-3.61 3.53-.11-.86 3.88c6.27-.14 13.73-3.63 18.77 1.73-4.52.22-9.04.3-13.55.42-2.53-.05-5.06-.06-7.59.01l-13.3-.03c-3.3-.09-6.6.01-9.9.05-6.24-.12-12.48-.78-18.69.07l.01-1.02c7.63-1.39 15.27-2.62 23.08-1.9l.15-18.8c2.38-.16 4.76-.34 7.13-.64-4.32-1.36-8.88-1.21-13.35-1.32l-.04-9.21c5.72-.62 11.47-.58 17.21-.49.06-4.78.15-9.56.6-14.32l1.79 4.23c.84-2.77 3.31-8.96 5.13-3.12l.93-2.86c-.12 6.84.12 13.74 1.56 20.45.84-10.02.93-20.07.12-30.09m-26.56 27.05a161.3 161.3 0 0 0 .28 7.3l2.98.83c4.32.18 8.97-.75 11.96-4.13 2.8.06 5.14-1.29 6.9-3.39-6.28-.48-12.58-.4-18.83-1.09l-3.29.48z"/><path fill="#cab49e" d="M106.36 147.73l.85-.1c.51 10.97.25 21.94.51 32.91l-1.58-.09c-1.22-10.91-.44-21.82.22-32.72z"/><path fill="#816d58" d="M107.21 147.63l2.27-.24c1.87 11.02.74 22.37.97 33.53l-2.73-.38c-.26-10.97 0-21.94-.51-32.91z"/><path fill="#665d57" d="M111.71 147.48l2.57.28c.67 10.04-.34 20.16.2 30.24.51 3.85-1.95 7.01-3.9 10.05l-2.38 2.17c-.13-1.66-.32-3.31-.5-4.96l3.64-2.86c.35-11.63.24-23.28.37-34.92z"/><path fill="#947e65" d="M116.34 183.89c.74-12.2-.73-24.44.33-36.62l2.21.19c-.07 12.33 0 24.66.43 37l-2.97-.57z"/><path fill="#96806a" d="M120.94 148.11l2.41-.73c.57 12.06-.41 24.15.3 36.21l-2.99.71.28-36.19z"/><path fill="#947c66" d="M125.43 147.84l2.62-.01c-.22 12.11.45 24.21.18 36.33l-2.91-.41.11-35.91z"/><path fill="#ddc7b0" d="M153.39 147.66l.63.91 2.19 6.1 7.92-.68c-3.64 1.64-7.22 3.43-10.74 5.31-.3-3.88-.08-7.76 0-11.64z"/><path fill="#4b4955" d="M223.95 147.85l4.94.22c.69 2.41 1.44 4.84 2.87 6.93 5.42 5.68 5.59 15.55.52 21.49-1.46 2.06-2.71 4.25-3.9 6.47l6.67.6-12.48.6.83-2.02c.41-.77.84-1.53 1.3-2.27 7.7-7.47 8.19-20.24.4-27.83-.43-1.39-.78-2.8-1.15-4.19z"/><path fill="#fce8df" d="M132.38 154.99c.05-2.14-.22-4.5 1.21-6.28 1.65 8.46.42 17.17.83 25.74-.4 2.84.89 6.85-1.87 8.7-.4-9.38-.02-18.78-.17-28.16z"/><path fill="#d6c2b4" d="M141.45 149.52l1.55-.75c.72 11.24.79 22.6-.28 33.82-1.82-1.33-1.23-3.73-1.41-5.66-.39-9.13-.54-18.3.14-27.41z"/><path fill="#c4b298" d="M241.3 150.91l2.52-.16-.11 4.33 4.46 3.12.56 3.92-.08 7.21-.17 5.43h7.73c.77 4.65.54 11.28 6.3 12.63l.9.36c-3.89-.06-7.79.01-11.69-.15l-.91 4.62c-3.55-4-8.75-4.98-13.68-3.06-3.23 5.73-1 13.38-6.22 18.14l-1.52-.17c1.24-3.56 2.79-7.35.86-11.01 5.26-2.22 3.14-7.16 4.25-11.43 3.55.06 7.45.52 10.45-1.85 2.42.6 4.91.91 7.4 1.07l1.66 1.75.06-7.92c-3.87-.16-7.75-.13-11.57.54l-2.08 2.64c-.62-1.3-1.13-2.65-1.66-3.99-1.92 2.03-4.5.81-6.48-.44 5.07-5.94 4.9-15.81-.52-21.49l.18-2.89 4.65 3.32 4.71-4.52m-2.21 7.13c.15 5.59.1 11.18.14 16.77l2.94.11c.71-5.36-1.02-11.12 1.44-16.14 1.27 5.22.78 10.62.65 15.93l2.6-.01c-.69-5.54-.82-11.15.03-16.68l-7.8.02m8.93 12.67c.21-3.37.13-6.76-.38-10.09-1.26 3-2.24 7.7.38 10.09z"/><path fill="#fdf8f6" d="M272.15 152.02l4.54-2.26.97 2.59-.54 2.3-4.97-2.63z"/><path fill="#7d675a" d="M286.69 157.73c2.12-3.97 7.89-1.73 10.8.27-3.6.39-7.22.22-10.8-.27z"/><path fill="#6d5747" d="M239.09 158.04l7.8-.02c-.85 5.53-.72 11.14-.03 16.68l-2.6.01c.13-5.31.62-10.71-.65-15.93-2.46 5.02-.73 10.78-1.44 16.14l-2.94-.11-.14-16.77z"/><path fill="#5d5045" d="M248.17 158.2l3.71-.1 4.93-.23c4.6-.15 9.21-.16 13.82.01l1.21 2.26 4.26 1.04.6 1.78c-9.32-.59-18.63-1.94-27.97-.84-.16-1.31-.36-2.61-.56-3.92z"/><path d="M280.8 171.27c-5.28-2.58-2.62-9.86 2.31-10.94 5.5-.33 11.02.95 16.52.11l.28 6.86 5.82.85c2.52.44 4.99 1.06 7.51 1.54-4.18.06-8.36-.01-12.52.26l-.74 2.48-.85 1.14c-3.31.25-6.65.13-9.95.45-5.74.34-8.04 5.94-8 10.98l.03-2.94c-.05-2.51-.49-4.99-1.47-7.3l1.06-3.49zM81.9 209.62c5.36-1.83 10.24 5.55 6.62 9.82-1.89 2.99-5.66 1.89-8.59 2-4.3-3.09-3.62-10.71 1.97-11.82m-1.63 7.03c4.67 4.59 6.78-1.78 4.1-5.69-2.46.93-4.04 3.02-4.1 5.69z" fill="#87796c"/><path fill="#faf5f8" d="M248.02 170.71c-2.62-2.39-1.64-7.09-.38-10.09.51 3.33.59 6.72.38 10.09z"/><path fill="#978373" d="M248.73 162.12c9.34-1.1 18.65.25 27.97.84.32 2.74.28 5.52.18 8.28l-2.43-2.42c-8.38 1.7-17.49 3.32-25.8.51.08-2.4.17-4.8.08-7.21m1.21 3.45c4.09 5.34 12.66 1.64 18.71 3.07l2.17-2.18c-6.2-4.36-14.15-3.11-20.88-.89z"/><path fill="#cbb49a" d="M249.94 165.57c6.73-2.22 14.68-3.47 20.88.89l-2.17 2.18c-6.05-1.43-14.62 2.27-18.71-3.07z"/><path fill="#baa79b" d="M177.51 166.9c6.28-.43 12.56-.01 18.83.36l-.57 2.85 2.58 2.01.27-4.79c7.13.02 14.25-.27 21.38-.31.98 3.78 1.72 7.72 3.74 11.13l.96 1.72c-.46.74-.89 1.5-1.3 2.27l-.96-3.32-4.47-.2c1.03-8.93-9.75-13.42-16.95-9.92l4.14 4.7c-3.23 4.32-.93 9.72-1.15 14.6-.15 5.7.43 11.39 2.29 16.8-2.08-.47-4.23-.27-6.33.04 2.66 2.81 5.1 5.82 7.29 9.01l-1.81 2.37-1.78.49-.07-3.14c-3.69-.24-7.48.21-10.55 2.43l-2.96-1.05c-1.44-1.22-2.78-2.56-4.12-3.89 1.34.47 2.69.9 4.05 1.33l4.92-9.45 3.24.79c1.18-7.13 5.24-14.49 2.41-21.71l.97-2.23-3.33.08c-1.17-.32-2.32-.69-3.47-1.07l5.41-1.43c-3.76-7.6-12.56-10.65-20.6-9.81l.18 3.31 3.2 3.17-3.26 2.24a43.32 43.32 0 0 1-2.18-9.38z"/><path fill="#504f52" opacity=".61" d="M299.91 167.3c13.33-.67 26.68.75 40.01-.26 1.46.1 3.76 2.59 1.34 3.03l-2.13.06 2.46-2.1c-11.93-.94-23.91.11-35.86.12l-5.82-.85z"/><path fill="#c8b5a3" d="M166.8 167.74c3.31.08 7.52.19 8.34 4.2 3.18 4.98.14 12.72 5.76 16.08l.44-2.16.42 5.35c-6.92 1.28-7.23 10.86-4.98 16.17l4.53-.01-7.4.24c2.86 3 5.63 6.09 8.16 9.37-2.41 2.96-4.99 5.78-7.74 8.42l-2.33-1.89a52.03 52.03 0 0 0-1.89-1.43c3.65.63 7.07-.77 9.06-3.89-1.78-.24-3.56-.44-5.35-.63l.55-2.22c-3.49.04-5.42 2.56-5.72 5.84-3.15-1.84-6.32-3.73-8.97-6.26 1.96.14 3.91.38 5.86.66 1.81-2.63 3.49-5.44 4.01-8.64l3.17.66c-.53-8.8 7.39-19.38-.61-26.6-1.06-.67-2.14-1.31-3.23-1.95l6.55.59c.97-5.85-3.95-9.69-8.63-11.9z"/><path fill="#fffff9" d="M179.57 167.56c8.04-.84 16.84 2.21 20.6 9.81l-5.41 1.43c1.15.38 2.3.75 3.47 1.07-1.53 7.69 1.72 16.22-3.29 23.07l-4.92 9.45-4.05-1.33-3.79-3.71c.41-5.55 2.75-10.87-.42-16.14-.18-1.79-.3-3.57-.42-5.35-.11-3.25-.6-6.5-1.65-9.58l3.26-2.24-3.2-3.17-.18-3.31z"/><path fill="#5d4f43" d="M248.65 169.33c8.31 2.81 17.42 1.19 25.8-.51l2.43 2.42c-1.49 2.27-4.3.69-6.44.67 1.59 1.51 3.51 2.64 5.73 2.92-2.88 0-5.76-.06-8.63-.09-3.78-.03-7.55-.01-11.33.02h-7.73l.17-5.43z"/><path fill="#c9c5cd" opacity=".96" d="M305.73 168.15c11.95-.01 23.93-1.06 35.86-.12l-2.46 2.1c-3.59.02-7.16-.26-10.74-.34-5.06-.06-10.11.07-15.15-.1l-7.51-1.54z"/><path fill="#776557" d="M147.46 174.69c1.86-1.37 3.3-3.17 4.25-5.27l1.42 6.97.46 3.92-1.57 4.16-4.62-.5.06-9.28z"/><path fill="#0d0c0c" opacity=".84" d="M300.72 169.95c4.16-.27 8.34-.2 12.52-.26 5.04.17 10.09.04 15.15.1l-2.49 2.4c-8.64.24-17.29-.28-25.92.24l.74-2.48z"/><path fill="#4b3e32" d="M281.18 185c-.04-5.04 2.26-10.64 8-10.98 4.56 3.3 10.62 1 15.83 1.95l.08 1.4-2.55 2-.25 4.65c-2.62-1.74-5.35-5.2-8.84-3.68-1.35 1.75-2.28 3.76-3.31 5.71-.22-.03-.66-.07-.87-.09-3.27-.82-6.65-.2-8.71 2.68l.62-3.64z"/><path fill="#97836f" d="M76.03 175.23l3.29-.48-.03 8.61-2.98-.83-.28-7.3z"/><path fill="#f5dcc3" d="M79.32 174.75c6.25.69 12.55.61 18.83 1.09-1.76 2.1-4.1 3.45-6.9 3.39-2.99 3.38-7.64 4.31-11.96 4.13l.03-8.61z"/><path fill="#f4dabf" d="M256.21 174.76l11.33-.02 2.17 2.57c4.33.12 8.51 1.49 11.5 4.75l-.03 2.94-1.97-.73c-4.97 3.09-11.19 1.92-16.7 3.12-5.76-1.35-5.53-7.98-6.3-12.63z"/><path fill="#c4ad98" d="M267.54 174.74l8.63.09 3.57-.07c.98 2.31 1.42 4.79 1.47 7.3-2.99-3.26-7.17-4.63-11.5-4.75l-2.17-2.57z"/><path fill="#9f8c7a" d="M228.38 182.96c1.19-2.22 2.44-4.41 3.9-6.47 1.98 1.25 4.56 2.47 6.48.44l1.66 3.99 4.53 1.92c-3 2.37-6.9 1.91-10.45 1.85l-8.65-.11c-2.63 3.4-2.39 7.93-4.37 11.63l-.76-2.55c.61-3.17 1.1-6.36 1.85-9.5l12.48-.6-6.67-.6z"/><path fill="#fdfbfc" d="M242.5 178.28c3.82-.67 7.7-.7 11.57-.54l-.06 7.92-1.66-1.75c-2.49-.16-4.98-.47-7.4-1.07-1.54-.59-3.05-1.22-4.53-1.92l2.08-2.64z"/><path fill="#696058" d="M302.54 179.37l2.55-2 .23 7.67c-5.09-1.09-10.14.49-15.18 1.01 1.03-1.95 1.96-3.96 3.31-5.71 3.49-1.52 6.22 1.94 8.84 3.68l.25-4.65z"/><path fill="#383333" d="M96.75 182.42c2.96-1.3 6.16-1.99 9.39-1.97l1.58.09 2.73.38.89 1.48-3.64 2.86.5 4.96-.01.76-1.62 1.22c-.9-2-1.62-4.06-2.18-6.17l-8.39.29c-.96 2.61-1.69 5.31-2.26 8.03l4.02.85-1.7 1.93-7.88.26c-4.23-3.19-1.38-7.94 1.91-10.58 2.27-1.39 4.48-2.87 6.66-4.39z"/><path fill="#edd3b7" d="M198.23 179.87l3.33-.08-.97 2.23c2.83 7.22-1.23 14.58-2.41 21.71l-3.24-.79c5.01-6.85 1.76-15.38 3.29-23.07z"/><path fill="#d5bea1" d="M153.59 180.31c2.66 6.05-.64 12.46.21 18.72.46 5.77 4.13 10.51 5.88 15.89-2.37-1.97-4.44-4.25-6.57-6.46l-3.58-.26-2.71-.14 4.99-1.45c.95-4.28.77-8.68-.46-12.88a67.42 67.42 0 0 1-.9-5.27l1.57-3.99 1.57-4.16z"/><path fill="#feeed1" d="M172.11 181c8 7.22.08 17.8.61 26.6l-3.17-.66c.14-4 2.29-7.4 3.48-11.09.23-4.96-.68-9.9-.92-14.85z"/><path fill="#dfdce3" d="M90.09 186.81c-.18-3.69 3.43-5.53 6.66-4.39l-6.66 4.39z"/><path fill="#9f8a74" d="M279.21 184.27l1.97.73-.62 3.64c.6 4.47 4.06 7.86 5.79 11.92 1.64.69 3.44.71 5.18.95-1.92 9.51-13.01 5.82-18.34 1.63 1.9-.5 3.77-1.1 5.66-1.66l.38-2.27-4.56.56c.59-2.55.57-5.2-1.01-7.41-3.95.04-7.92.06-11.84.6 2.21-.9 4.28-2.11 6.29-3.39l-4.7-1.82-.9-.36c5.51-1.2 11.73-.03 16.7-3.12z"/><path fill="#f8dec0" d="M221.48 196.21c1.98-3.7 1.74-8.23 4.37-11.63l8.65.11c-1.11 4.27 1.01 9.21-4.25 11.43 1.93 3.66.38 7.45-.86 11.01-1.54-.37-3.05-.81-4.56-1.25-2.24-.69-4.47-1.46-6.46-2.71.71-3.19 1.56-6.34 2.35-9.51l.76 2.55z"/><path fill="#1b1814" d="M280.56 188.64c2.06-2.88 5.44-3.5 8.71-2.68-3.73 4-2.86 9.62-2.92 14.6-1.73-4.06-5.19-7.45-5.79-11.92z"/><path fill="#d7c1a7" d="M290.14 186.05c5.04-.52 10.09-2.1 15.18-1.01 1.8.54 3.57 1.15 5.35 1.74 1.03 2.55 1.61 5.27 1.38 8.03-1.84 6.22-3.51 12.71-7.57 17.93l-8.54 1.77-4.59-2.43c.24-3.84 1.23-7.58 2.5-11.2l4.66-.39 2.59-4.08c-.63 2.66-1.37 5.3-2.43 7.83 2.29 1.15 4.65 2.16 7.06 3.05 3.9-5.48 2.95-12.23-.73-17.57l-.36-.57c-5.06.2-10.07.99-15.07 1.71-.06-1.64-.18-3.27-.3-4.9l.87.09z"/><path fill="#514b4a" d="M96 186.32l8.39-.29c.56 2.11 1.28 4.17 2.18 6.17-3.22 2.18-6.75 3.92-10.51 4.93l1.7-1.93-4.02-.85c.57-2.72 1.3-5.42 2.26-8.03m-.09 6.63c4.35 2.81 8.04-2.69 3.16-5.16-1.76 1.23-2.99 2.96-3.16 5.16z"/><path fill="#7b6c5f" d="M141.41 186.4c3.11-1.85 6.55.09 9.04 2.06l.9 5.27c-2.09 2.53-4.97 4.61-8.43 3.58-5.43-.32-6.2-8.87-1.51-10.91m1.44 8.09l3.29.09 1.64-3.77c-2.45-5.09-8.83-.24-4.93 3.68z"/><path fill="#6e6051" d="M251.72 187.6c3.9.16 7.8.09 11.69.15 1.58.58 3.14 1.2 4.7 1.82-2.01 1.28-4.08 2.49-6.29 3.39l-7.25.99c-1.3-.47-2.57-1.03-3.76-1.73l.91-4.62z"/><path fill="#4b443d" d="M286.35 200.56c.06-4.98-.81-10.6 2.92-14.6l.3 4.9c-.03 2.43-.2 4.84-.37 7.26 4.63 1.57 7.8-3.8 12.46-2.77l-.56 1.06c-.84 1.37-1.72 2.72-2.59 4.08l-4.66.39c-1.27 3.62-2.26 7.36-2.5 11.2l4.59 2.43c-10.04-1.44-19.72-4.65-29.77-6.12l-.47-4.32-2.88-.92c3.44.37 6.94.64 10.37-.01 5.33 4.19 16.42 7.88 18.34-1.63-1.74-.24-3.54-.26-5.18-.95z"/><path fill="#959389" d="M310.67 186.78l1.59.54.9 3.08c5.88 4.04 10.38 9.9 17.5 12.21 5.92 3.26 12.82 4.07 18.67 7.61l4.71 2.05 4.54-3.45 2.6-1.94c1.21.7 2.48 1.4 3.26 2.63l-1.86 2.97-4.67 1.17c.87 1 1.88 1.88 2.72 2.91.78.9 1.57 1.79 2.3 2.74-7.38-2.57-13.74-8.55-21.78-8.77l-1.35-.92c-4.78-3.29-10.02-6.17-15.82-7.05l-1.76-.25-4.73-4.85c-1.52 1.15-3.03 2.31-4.42 3.6.68-2.39 1-4.86 1.32-7.31l-2.34 1.06c.23-2.76-.35-5.48-1.38-8.03z"/><path fill="#8f8b94" d="M95.91 192.95c.17-2.2 1.4-3.93 3.16-5.16 4.88 2.47 1.19 7.97-3.16 5.16z"/><path fill="#fdeacc" d="M108.2 190.22l2.38-2.17.87-.42.41 4.92 4.34-1.09.9 2.17-2.69 2.51c6.74 4.88 15.34 4.15 23.19 3.94l.45 3.79c-7.85 1.12-15.93.21-23.32-2.68-2.3-1.21-4.76-.28-7.03.45.21-3.55.45-7.1.49-10.66l.01-.76z"/><path fill="#a78d74" d="M237.13 189.16c4.93-1.92 10.13-.94 13.68 3.06 1.19.7 2.46 1.26 3.76 1.73-1 2.71-1.37 5.63.12 8.25l-3.24-.16-.76 5.57-1.28-.07c-4-.2-7.3-2.69-10.81-4.33l.99 3.31-7.24.9-1.44-.12c5.22-4.76 2.99-12.41 6.22-18.14z"/><path fill="#877e7d" d="M289.57 190.86c5-.72 10.01-1.51 15.07-1.71l.36.57c-1.15 1.86-2.29 3.72-3.34 5.63-4.66-1.03-7.83 4.34-12.46 2.77.17-2.42.34-4.83.37-7.26z"/><path fill="#f3ddc5" d="M301.66 195.35l3.34-5.63c3.68 5.34 4.63 12.09.73 17.57-2.41-.89-4.77-1.9-7.06-3.05 1.06-2.53 1.8-5.17 2.43-7.83l.56-1.06z"/><path fill="#b09884" d="M106.57 192.2l1.62-1.22c-.04 3.56-.28 7.11-.49 10.66 2.27-.73 4.73-1.66 7.03-.45 7.39 2.89 15.47 3.8 23.32 2.68l.37 2.81c2.23 1.01 4.49 2.14 6.06 4.1-11.7-5.42-24.53-1.95-36.73-3.61l13.55-.42c-5.04-5.36-12.5-1.87-18.77-1.73l.86-3.88-3.53.11-.27 3.61c-3.6-.09-7.19-.46-10.74-1.05l-.67-6.42c2.63-.05 5.26-.06 7.88-.26 3.76-1.01 7.29-2.75 10.51-4.93z"/><path fill="#f9e2bf" d="M176.78 207.38c-2.25-5.31-1.94-14.89 4.98-16.17 3.17 5.27.83 10.59.42 16.14l-.87.02-4.53.01z"/><path fill="#d3bba0" d="M261.82 192.96c3.92-.54 7.89-.56 11.84-.6 1.58 2.21 1.6 4.86 1.01 7.41l4.56-.56-.38 2.27-5.66 1.66c-3.43.65-6.93.38-10.37.01l-1.81-.32c-2.09-.34-4.21-.52-6.32-.63-1.49-2.62-1.12-5.54-.12-8.25 2.43-.27 4.84-.63 7.25-.99z"/><path fill="#51463d" d="M312.05 194.81l2.34-1.06-1.32 7.31c-1.41 3.2-2.6 6.5-4.24 9.6-.75 1.01-1.55 1.98-2.34 2.97-.67-.31-1.34-.6-2.01-.89 4.06-5.22 5.73-11.71 7.57-17.93z"/><path fill="#d4bda4" d="M313.07 201.06c1.39-1.29 2.9-2.45 4.42-3.6l4.73 4.85c-4.08 2.41-3.83 6.97-3.94 11.09-3.42.26-6.87-.34-9.45-2.74 1.64-3.1 2.83-6.4 4.24-9.6z"/><path fill="#af9a8b" d="M210.88 208.57l4.92-8.2 2.57 2.8c1.99 1.25 4.22 2.02 6.46 2.71l-.93 5.64c-4.25-.41-8.89-2.21-12.91.08-1.4-.99-2.71-2.1-3.91-3.31l3.8.28z"/><path fill="#3c322b" d="M322.22 202.31l1.76.25c-1.77 4.45-2.74 9.37-6.07 13 .14-.72.26-1.44.37-2.16.11-4.12-.14-8.68 3.94-11.09z"/><path fill="#d9c2a8" d="M323.98 202.56c5.8.88 11.04 3.76 15.82 7.05-.82 3.84-1.76 7.73-4 11.03-5.96-1.64-11.95-3.27-18.09-4.02.05-.36.12-.71.2-1.06 3.33-3.63 4.3-8.55 6.07-13m1.64 6.49c.41 2.41 1.87 4.45 2.93 6.61 2.09-.5 5.24.47 6.23-1.95-.43-2.33-1.83-4.31-2.88-6.39-2.03.59-4.96-.08-6.28 1.73z"/><path fill="#8d7b67" d="M199.97 204.84c2.1-.31 4.25-.51 6.33-.04l.78 3.49c1.2 1.21 2.51 2.32 3.91 3.31 3.79 3.36 10.16 5.85 12.91-.08.38-1.87.64-3.76.93-5.64 1.51.44 3.02.88 4.56 1.25l1.52.17 1.44.12c-1.84.74-3.63 1.58-5.43 2.41-.73 3.27-.71 7.69-4.2 9.34-3.33 1.3-6.83 2.15-10.09 3.64l-4.55.96c-6.57.28-11.65 4.92-17.94 6.16l4.93 3.56c-.84 2.77-1.67 5.55-2.81 8.21-1.18 3.14-3.42 5.64-7 5.4l-.74 3.23c-.98.18-1.96.35-2.92.58-3.73 3.2-7.1 6.82-10.19 10.64-.69-1.33-1.25-2.72-1.74-4.13 4.91-2.69 8.47-7.01 11.9-11.31 4.65-3.84 5.04-10.24 7.04-15.55-2.44-1.19-4.9-2.32-7.41-3.37l-4.04 1.93c-5.28-3.14-11.57-1.2-17.35-1.64-3.26-.34-6.24 1.3-7.64 4.26l-.25-3.79 9.1-3.95c3.57 1.59 7.38.22 10.98-.49l2.33 1.89c2.75-2.64 5.33-5.46 7.74-8.42-2.53-3.28-5.3-6.37-8.16-9.37l7.4-.24.87-.02 3.79 3.71c1.34 1.33 2.68 2.67 4.12 3.89-1.66.1-3.31.26-4.96.42l.29 5.22 5.32 1.94 3.79-3.61c1.98 1.03 3.87 2.89 6.25 2.67 1.92-1.44 3.22-3.5 4.67-5.37l1.81-2.37c-2.19-3.19-4.63-6.2-7.29-9.01z"/><path fill="#69584a" d="M238.6 203.21c3.51 1.64 6.81 4.13 10.81 4.33 1.36 2.11 2.75 4.21 4.45 6.06-2.35 1.99-4.75 3.99-6.42 6.61l-3.12-.96c-2.49-2.13-4.42-5.01-7.39-6.5-4.05-.26-4.86 4.28-6.13 7.13-2.11.13-4.22.23-6.31.47l-.86 1.4c-.5 2.39-.05 4.79 1.09 6.93 1.86-.41 3.72-.82 5.61-1.12-.91 4.25.8 9.56 5.83 6.75l.2 1.28c2.6 1.58 4.97 3.49 7.42 5.28-3.75 2.2-7.65 4.16-11.58 6.03-4.34-5.92-8.53-11.94-12.62-18.02a55.75 55.75 0 0 1 2.03-7.09l-6.78.73-2.2.29c3.26-1.49 6.76-2.34 10.09-3.64 3.49-1.65 3.47-6.07 4.2-9.34 1.8-.83 3.59-1.67 5.43-2.41l7.24-.9-.99-3.31z"/><path fill="#020101" opacity=".85" d="M261.01 202.83l1.81.32 2.88.92.47 4.32-4.74-1.46-.42-4.1z"/><path fill="#e7d0be" d="M58.27 207.27c6.21-.85 12.45-.19 18.69-.07-.75 4.04-1.7 8.09-3.66 11.74-3.16-.73-6.99-.61-7.27 3.45l4.13 2.45-3.59.94-1.01.08-1.65.12c-1.45-2.22-3.26-4.69-2.42-7.51 1.42-1.43 3.78-.68 5.59-1.01-4.39-1.09-6.75-4.78-8-8.86l-.96 6.73.15-8.06z"/><path fill="#b59f89" d="M28.13 208.75l9.71-1.9.28 8.55c6.67-.17 13.34-.25 20-.07l.96-6.73c1.25 4.08 3.61 7.77 8 8.86-1.81.33-4.17-.42-5.59 1.01-.84 2.82.97 5.29 2.42 7.51-1.15.08-2.3.18-3.45.31-3.42 1.74-6.8 4.23-8.43 7.81-.27 3.5 1.78 6.66 3.13 9.77l-1.31 2.56c-1.52 1.33-3.15 2.51-4.76 3.72l-1.71-2.3c1.83-1.51 4.12-2.68 5.28-4.83-1.34-4.06-4.77-6.88-7.74-9.75-2.12 1.14-4.37 2.16-6.1 3.87.55 4.75 5.04 7.75 7.93 11.2a46.2 46.2 0 0 0-1.91 1.55l-2.19 1.94-2.24-.27c-2.61-3.4-5.15-6.85-7.53-10.41l3.63-3.23c-6.16-8.55-6.96-19.08-8.38-29.17m2.7-.17c.85 8.57 1.1 17.95 6.4 25.18l2.49-1-.52-4.44 2.09-2.37-3.33-2.19 1.53-5.36c-4.32-2.25-3.55-8.84-8.66-9.82m16.01 7.97c-2.54 5.21.99 10.11.91 15.43 3.71-2.03 8.03-4.19 9.88-8.18 1.27-6.09-6.42-7.23-10.79-7.25z"/><path fill="#fff3db" d="M76.96 207.2l9.9-.05c6.21-.34 7.77 6.51 6.99 11.4l-1.49 5.4c1.55.78 3.03 1.69 4.33 2.86l-5.08.54c-.69-2.56-1.83-5.02-4.76-5.26l-.68 3.25c-5.3-.71-10.68-1.19-16.01-.5l-4.13-2.45c.28-4.06 4.11-4.18 7.27-3.45 1.96-3.65 2.91-7.7 3.66-11.74m4.94 2.42c-5.59 1.11-6.27 8.73-1.97 11.82 2.93-.11 6.7.99 8.59-2 3.62-4.27-1.26-11.65-6.62-9.82z"/><path fill="#b7a49b" d="M86.86 207.15l13.3.03-2.54 1.07 4.52 1.16c-4.41 1.27-7.58 4.51-8.29 9.14.78-4.89-.78-11.74-6.99-11.4z"/><path fill="#433a33" d="M249.41 207.54l1.28.07 4.22.12c4.79 3.37 6.27 11.15 13.22 10.65-2.46.57-4.94 1.14-7.3 2.05l-1.3.97c-.03 1.43.03 2.85.07 4.28l-2.09 2.96c-3.72-1.25-7.57-.87-11.02.97 3.26-4.67 8.7-6.9 12.81-10.67l-5.44-5.34c-1.7-1.85-3.09-3.95-4.45-6.06z"/><path fill="#85796b" d="M325.62 209.05c1.32-1.81 4.25-1.14 6.28-1.73 1.05 2.08 2.45 4.06 2.88 6.39-.99 2.42-4.14 1.45-6.23 1.95-1.06-2.16-2.52-4.2-2.93-6.61z"/><path fill="#010101" opacity=".78" d="M349.33 210.22l5.66-3.91 3.59 2.51-4.54 3.45-4.71-2.05z"/><path fill="#ebd0b8" d="M144.2 218.75c-.42-3.79.66-7.46 2.62-10.69l.13 2.42 2.34-1.17c-.42 6.13-1.23 12.23-2.79 18.18l-1.54-2.89c-7.09-2.88-13.08-11.22-21.42-8.1 2.06-3.74 7.45-4.17 10.68-1.76 2.98 2.1 6.2 4.05 9.98 4.01z"/><path fill="#a68f7b" d="M146.82 208.06l2.71.14c.3 2.44.87 4.86 1.92 7.1l1.66-6.84 6.57 6.46c2.65 2.53 5.82 4.42 8.97 6.26a71.26 71.26 0 0 1 1.46.9 52.03 52.03 0 0 1 1.89 1.43c-3.6.71-7.41 2.08-10.98.49-1.46-2.25-3.82-3.57-6.15-4.73-1.05 2.87-2.02 5.77-2.95 8.68l-5.97-.08c2.71 2.08 4.71 4.87 5.29 8.29l1.91.54c-1.47 2.49-3.26 4.78-5.14 6.96l.29 2.36-5.7-.3c-1.54 2.03-3.05 4.1-4.75 6.01-1.35 1.13-2.79 2.18-4.2 3.25l3.6 3.35-1.2 1.38c1.2 4.08 1.61 8.33 1.33 12.57 6.26.01 13-.82 17.5-5.68 1.04.8 2.01 1.72 2.82 2.76-6.62 4.43-14.45 5.82-22.23 6.48l-.77 4.93c-5.18.08-10.36.42-15.55.29l-.72-5.3c-5.28-.35-10.56-1.09-15.61-2.72l-2.64 3.63c-4.87-3.48-10.81-3.7-16.55-3.16l-1.1-4.63c-4.48-.42-8.97-1.02-13.27-2.39l-2.52 2.95-1.47-.47c-3.74-1.81-7.44-3.71-11.11-5.65l1.4-3.56c-3.75-3.1-7.14-6.59-10.72-9.87a46.2 46.2 0 0 1 1.91-1.55l.63-.49 1.71 2.3c1.68 2.31 3.82 4.22 6.12 5.89l2.72-5.8 2.09.61a131.94 131.94 0 0 0-2.97 6.65c3.76 2.3 7.7 4.29 11.81 5.9l3.11-3.4 1.94 5.35 5.61.24 2.69-2.35 1.04 2.91.3.75c4.17.61 8.39.39 12.57.07.47-3.25.8-6.51 1.14-9.77 2.69 1.87 2.6 5.46 1.39 8.17-1.12 1.96-1.48 4.16-1.52 6.39l4.45-.26 1.08-1.72c-.94-1.26-1.88-2.51-2.89-3.7 1.83-.15 3.65-.37 5.47-.65 3.17-.32 5.91-2.04 8.63-3.55.89-.48 1.8-.93 2.69-1.4 4.33-2.54 11.89-6.17 7.86-12.23l.2-1.56c1.67 1.6 3.46 3.08 5.26 4.55 2.65-2.25 5.11-4.72 7.32-7.42l-2.56-.47-.46-3.08 4.52.3c2-3.61 4.86-7.13 5.1-11.39-1.43-2.28-4.14-3.35-6.21-4.95 2.43-.82 4.96-.24 7.37.37l1.54 2.89c1.56-5.95 2.37-12.05 2.79-18.18l-2.34 1.17-.13-2.42m-18.9 44.73c.98 1.86 2.1 3.64 3.27 5.39l2.53-2.17c-1.43-1.86-3.53-2.84-5.8-3.22m-11.13 18.31l-.35-2.77c-3.78-1.37-7.99-1.22-10.5 2.31 4.08.84 8.27 1.77 12.46 1.45 5.15 2.13 10.87 1.42 16.2.48l.35-5.58.03-4.09c-7.34-1.11-13.62 2.86-18.19 8.2z"/><path fill="#372e26" d="M149.53 208.2l3.58.26-1.66 6.84c-1.05-2.24-1.62-4.66-1.92-7.1z"/><path fill="#fdebd1" d="M30.83 208.58c5.11.98 4.34 7.57 8.66 9.82l-1.53 5.36 3.33 2.19-2.09 2.37.52 4.44-2.49 1c-5.3-7.23-5.55-16.61-6.4-25.18z"/><path fill="#fdfbfd" d="M210.99 211.6c4.02-2.29 8.66-.49 12.91-.08-2.75 5.93-9.12 3.44-12.91.08z"/><path fill="#948373" d="M306.49 213.63l2.34-2.97c2.58 2.4 6.03 3 9.45 2.74l-.37 2.16-.2 1.06c.93 1.29 1.93 2.55 3.01 3.73-4.19-1.89-8.44-4.88-13.27-3.63-2.18-.11-4.36-.3-6.51-.64-1.66-.57-3.31-1.14-5-1.57l8.54-1.77 2.01.89z"/><path fill="#b8a38c" d="M335.8 220.64c2.24-3.3 3.18-7.19 4-11.03l1.35.92c.16 4.67-1.99 8.98-2.3 13.57.09 2.52 3.26 2.35 5.01 3.03 5.53 1.09 10.5 4.83 16.35 3.98-1.75 4.39-7.57 6.81-11.86 4.65-5.02-2.23-10.36-4.1-14.78-7.43-.82-2.12 1.63-3.66 2.55-5.33-5.3 1.79-10.71-.12-15.4-2.65-1.08-1.18-2.08-2.44-3.01-3.73 6.14.75 12.13 2.38 18.09 4.02z"/><path fill="#e9d2ba" d="M341.15 210.53c8.04.22 14.4 6.2 21.78 8.77l.69.83c-1.04 3.69-2.27 7.32-3.41 10.98-5.85.85-10.82-2.89-16.35-3.98-1.75-.68-4.92-.51-5.01-3.03.31-4.59 2.46-8.9 2.3-13.57z"/><path fill="#1c1b1a" opacity=".72" d="M364.44 209.51l1.04 5.24-4.85 1.81c-.84-1.03-1.85-1.91-2.72-2.91l4.67-1.17 1.86-2.97z"/><path fill="#a59a8d" d="M366.76 214.08l1.89-4.7 3.04 1.14c3.23 5.32-1.54 10.97 1.27 16.17 4.51.44 8.71 2.51 11.04 6.54v4.26c-1.9-.66-3.81-1.23-5.73-1.81l.2-3.69-2.56-.73c-1.07 3.38-2.23 6.73-3.49 10.05l2.65 1.12 1.82-3.16 5.05 1.99-.47 3.24c-2.23.51-4.45 1.04-6.7 1.44-2.96-.42-5.61-1.86-7.83-3.82l-4.39 1.85c1.45 5.79-3.21 12.7-9.51 11.76.46-2.06 1.01-4.09 1.56-6.11l4.07.08.09-2.16-2.73-.92c-2.29-.78-4.51-1.72-6.75-2.6 12.11-2.75 16.62-16.44 16.39-27.52l4.58 1.02-3.49-3.44z"/><path fill="#fffeeb" d="M80.27 216.65c.06-2.67 1.64-4.76 4.1-5.69 2.68 3.91.57 10.28-4.1 5.69z"/><path fill="#7b7167" d="M230.8 219.88c1.27-2.85 2.08-7.39 6.13-7.13 2.97 1.49 4.9 4.37 7.39 6.5-6.9.76-13.74 2.08-20.69 2.5l.86-1.4c2.09-.24 4.2-.34 6.31-.47z"/><path fill="#837363" d="M247.44 220.21c1.67-2.62 4.07-4.62 6.42-6.61l5.44 5.34c-4.11 3.77-9.55 6-12.81 10.67 3.45-1.84 7.3-2.22 11.02-.97-3.36 3.82-3.27 8.67 1.11 11.62-2.03 1.27-4.03 2.58-5.96 4 3.6.55 6.97-1.03 9.83-3.08-1.69 2.95-2.54 6.36-1.54 9.7 1.81-.11 3.63-.27 5.45-.24l1.62.47c-1.42 3.3-4.7 7.43-2 10.89 2.97 3.59 7.42 5.46 11.3 7.87l-.7.24c-1.78.31-3.58.52-5.36.85-7.33-6.32-8.87-17.35-17.04-22.54-1.48-1.1-2.94-2.24-4.32-3.46l-3.01-3.18c-1.21-4.15-1.47-8.49-1.86-12.76l-1.39 3.91-7.48 1.38c-5.03 2.81-6.74-2.5-5.83-6.75 5.94-1.4 14.48-.43 17.11-7.35z"/><path fill="#c5ad90" d="M123.54 216.5c8.34-3.12 14.33 5.22 21.42 8.1-2.41-.61-4.94-1.19-7.37-.37l-.64.56c-4.94-.44-6.29-6.85-10.57-7.52-2.71 3.56-1.18 8.43.9 11.88 1.71.86 3.36-1.44 4.94-2.02l3.07.82c-1.46 3.15-3.1 6.2-4.93 9.15-2.83-2.98-6.72-5.31-8.33-9.23-.32-3.84 1.03-7.58 1.51-11.37z"/><path fill="#fffeff" d="M168.65 221.18c.3-3.28 2.23-5.8 5.72-5.84l-.55 2.22 5.35.63c-1.99 3.12-5.41 4.52-9.06 3.89l-1.46-.9z"/><path fill="#a5917f" d="M185.13 215.37l4.96-.42 2.96 1.05c3.32 1.83 7.08 2.01 10.62.71l1.78-.49c-1.45 1.87-2.75 3.93-4.67 5.37-2.38.22-4.27-1.64-6.25-2.67l-3.79 3.61-5.32-1.94-.29-5.22z"/><path fill="#665b53" d="M360.63 216.56l4.85-1.81.19 1.75c.23 11.08-4.28 24.77-16.39 27.52l-1.42.41 1.25-3.8c2.14-.04 4.27-.28 6.39-.57-4.26-2.02-8.79-3.39-13.21-4.99l-8.06-3.01c-5.44-3.95-12.81-4.8-17.23-10.14-2.45-2.85-6.15-3.97-9.55-5.2 4.83-1.25 9.08 1.74 13.27 3.63 4.69 2.53 10.1 4.44 15.4 2.65-.92 1.67-3.37 3.21-2.55 5.33 4.42 3.33 9.76 5.2 14.78 7.43 4.29 2.16 10.11-.26 11.86-4.65l3.41-10.98-.69-.83c-.73-.95-1.52-1.84-2.3-2.74z"/><path fill="#020202" opacity=".84" d="M300.94 216.08c2.15.34 4.33.53 6.51.64 3.4 1.23 7.1 2.35 9.55 5.2 4.42 5.34 11.79 6.19 17.23 10.14-11.62-4.09-23.49-8.31-33.29-15.98z"/><path fill="#816e5a" d="M46.84 216.55c4.37.02 12.06 1.16 10.79 7.25-1.85 3.99-6.17 6.15-9.88 8.18.08-5.32-3.45-10.22-.91-15.43z"/><path fill="#fae1c9" d="M119.38 229.32c-3-4.77 1.55-9.16 4.16-12.82-.48 3.79-1.83 7.53-1.51 11.37 1.61 3.92 5.5 6.25 8.33 9.23 1.83-2.95 3.47-6 4.93-9.15.52-1.07 1.07-2.13 1.66-3.16l.64-.56c2.07 1.6 4.78 2.67 6.21 4.95-.24 4.26-3.1 7.78-5.1 11.39l-4.52-.3.46 3.08 2.56.47c-2.21 2.7-4.67 5.17-7.32 7.42-1.8-1.47-3.59-2.95-5.26-4.55l.27-2.21c2.77-.18 5.53-.37 8.29-.73-3.1-6.13-11.37-7.64-13.8-14.43z"/><path fill="#937d67" d="M126.38 217.27c4.28.67 5.63 7.08 10.57 7.52-.59 1.03-1.14 2.09-1.66 3.16l-3.07-.82c-1.58.58-3.23 2.88-4.94 2.02-2.08-3.45-3.61-8.32-.9-11.88z"/><path fill="#c1bcbe" d="M154.87 219.27c2.33 1.16 4.69 2.48 6.15 4.73l-9.1 3.95 2.95-8.68z"/><path fill="#e3ccb4" d="M244.32 219.25l3.12.96c-2.63 6.92-11.17 5.95-17.11 7.35-1.89.3-3.75.71-5.61 1.12-1.14-2.14-1.59-4.54-1.09-6.93 6.95-.42 13.79-1.74 20.69-2.5z"/><path fill="#8a7761" d="M260.83 220.43c2.36-.91 4.84-1.48 7.3-2.05l6.14 7.75-.93 3.47 1.88 3.52-.19 2.15-3.5-3.58-1.63.18c-2.7-4.07-5.47-8.12-9.07-11.44z"/><path fill="#baa691" d="M259.53 221.4l1.3-.97c3.6 3.32 6.37 7.37 9.07 11.44-3.53 3.09-7.28 5.94-11.28 8.39-4.38-2.95-4.47-7.8-1.11-11.62a99 99 0 0 1 2.09-2.96c-.04-1.43-.1-2.85-.07-4.28z"/><path fill="#c5b29f" d="M86.85 222.09c2.93.24 4.07 2.7 4.76 5.26-3.93 3.13-8.64.02-12.95-.3-3.97-.91-8.04-1.11-12.09-1.27l3.59-.94c5.33-.69 10.71-.21 16.01.5l.68-3.25z"/><path fill="#171310" opacity=".88" d="M214.83 222.52l6.78-.73a55.75 55.75 0 0 0-2.03 7.09c-1.41-2.25-3-4.37-4.75-6.36z"/><path fill="#473c33" d="M190.14 229.93c6.29-1.24 11.37-5.88 17.94-6.16.3 7.03 5.53 12.83 3.58 20.2.65-6.21-1.37-12.49-8.39-13.21-1.94 2.79-5.09 6.26-8.2 2.73l-4.93-3.56z"/><path fill="#dcc2a6" d="M52.03 234.1c1.63-3.58 5.01-6.07 8.43-7.81-2.07 3.45-4.61 6.58-7.1 9.72 1.11 2.46 2.67 5.06 1.8 7.86-1.35-3.11-3.4-6.27-3.13-9.77z"/><path fill="#ffefcf" d="M60.46 226.29l3.45-.31 1.65-.12c-2.71 3.5-4.1 7.98-7.72 10.74a133.15 133.15 0 0 0 2.12 9.46c3.53.61 6.91 1.83 9.86 3.88-5.04-3.1-12.04 1.07-15.97-3.51l1.31-2.56c.87-2.8-.69-5.4-1.8-7.86 2.49-3.14 5.03-6.27 7.1-9.72z"/><path fill="#fdecd6" d="M78.66 227.05c4.31.32 9.02 3.43 12.95.3-.63 8.08-.76 16.22-.15 24.32 5.07 3.53 11.49 2.56 16.94 4.97-2.96 5.6-8.38 1.09-12.02-1.02-3.68-1.68-7.8-.95-11.67-.63 1.51 3.78 6.42 2.37 9.59 2.96l.58 8.04c-3.87.37-7.75.44-11.63.16l-1.04-2.91-2.69 2.35-5.61-.24-1.94-5.35-3.11 3.4c-4.11-1.61-8.05-3.6-11.81-5.9a131.94 131.94 0 0 1 2.97-6.65c3.59.51 8.84 3.68 11.45-.05 4.15 1.9 3.69 7.02 3.32 10.82l5.07 1.22c-.16-5.68 4.24-9.62 9.79-9.67-.25-7.11.8-14.36-.51-21.37-3.35-1.88-7.17-2.77-10.48-4.75z"/><path fill="#b89d83" d="M152.17 231.74c1.4-2.96 4.38-4.6 7.64-4.26 5.78.44 12.07-1.5 17.35 1.64l4.04-1.93c2.51 1.05 4.97 2.18 7.41 3.37-2 5.31-2.39 11.71-7.04 15.55-7.3-3.39-14.65 3.92-11.9 11.31.49 1.41 1.05 2.8 1.74 4.13l1.92 2.79-4.66 3.36c-2.82 1.92-5.75 3.69-8.68 5.45l-2.29-3.79c-.81-1.04-1.78-1.96-2.82-2.76-1.82-.54-3.66-1-5.49-1.45-.17-3.08-.31-6.16-.07-9.23 4.43-1.9 8.67-4.24 12.49-7.18-1.83-5.2-3.95-10.31-6.88-15l-1.78 2.96-.98-4.96m21.36 8.02c2.49 1.78 5.21 3.23 8.14 4.15 2.96-3.34 3.96-7.69 1.92-11.8-5.22-.55-9.07 2.59-10.06 7.65m-13.77 12.37l.33.6c-3.17 1.77-5.99 4.1-9.23 5.75 1.12 3.02 2.91 5.71 4.95 8.2 3.25-1.8 6.4-3.77 9.41-5.95l2.17-1.76c.08-4.57-3.09-7.24-7.63-6.84z"/><path fill="#dcc4a7" d="M103.79 238.19c-4.27-2.53-2.76-9.65 2.07-10.47-2.67 2.96-3.22 6.7-2.07 10.47z"/><path fill="#635447" d="M145.95 227.87l5.97.08.25 3.79.98 4.96-1.91-.54c-.58-3.42-2.58-6.21-5.29-8.29z"/><path fill="#352f2b" d="M245.03 229.02c.39 4.27.65 8.61 1.86 12.76l-3.11-.91c-2.45-1.79-4.82-3.7-7.42-5.28l-.2-1.28c2.48-.51 4.98-.93 7.48-1.38l1.39-3.91z"/><path fill="#736457" d="M195.07 233.49c3.11 3.53 6.26.06 8.2-2.73 7.02.72 9.04 7 8.39 13.21l-2.21 1.52c-.36 3.49-1.59 6.78-3.48 9.72-.9.73-1.83 1.42-2.76 2.11l-.26-7.87 4.7-3.39-13.76-.53-1.63-3.83c1.14-2.66 1.97-5.44 2.81-8.21z"/><path fill="#60554b" d="M269.9 231.87l1.63-.18 3.5 3.58.19-2.15c.88 14.54 12.68 24.6 18.78 36.98a97.29 97.29 0 0 0 2.54 3.82l1.96 2.77.07 2.87 4.49 2.3c.28 1.11.6 2.21.98 3.3-.77-.56-1.53-1.1-2.23-1.73-1.23 1.82-2.42 3.67-3.78 5.39-5.13 3.86-10.72 7.53-17.21 8.47a43.48 43.48 0 0 1-2.27.09l-.64-.68 1.99-1.78c-2.06-3.41-4.26-6.73-6.66-9.91l-4.18-5.69c-2.25-7.23-8.57-12.58-9.52-20.27-.56-4.04-2.91-7.46-5.32-10.63 8.17 5.19 9.71 16.22 17.04 22.54l-2.17.65c.75 6.19 4.98 11.13 7.98 16.37 2.27 3.82 8.28 6.94 12.09 3.45l9.69-7.41c-3.98-7.13-7.75-14.42-12.53-21.06-4.22-5.32-6.28-11.9-10.12-17.45-2.76 1.82-5.47 3.72-8.18 5.6l-1.62-.47c-.18-4.92 4.25-6.61 8.34-5.76l-.2-7.31c-4.54-2.47-8.64.85-12.05 3.61-2.86 2.05-6.23 3.63-9.83 3.08 1.93-1.42 3.93-2.73 5.96-4 4-2.45 7.75-5.3 11.28-8.39z"/><path fill="#e0c6ae" d="M173.53 239.76c.99-5.06 4.84-8.2 10.06-7.65 2.04 4.11 1.04 8.46-1.92 11.8-2.93-.92-5.65-2.37-8.14-4.15z"/><path fill="#eed5c0" d="M38.82 237.14c1.73-1.71 3.98-2.73 6.1-3.87 2.97 2.87 6.4 5.69 7.74 9.75-1.16 2.15-3.45 3.32-5.28 4.83l-.63.49c-2.89-3.45-7.38-6.45-7.93-11.2z"/><path fill="#d9bea3" d="M153.15 236.7l1.78-2.96c2.93 4.69 5.05 9.8 6.88 15-3.82 2.94-8.06 5.28-12.49 7.18.85-4.69 6.56-5.62 9.76-8.34-.9-1.88-1.88-3.7-2.94-5.49-4.66.45-5.82 5.83-9.93 6.95-2.62.5-5.04 1.62-6.91 3.55l-1.45-.86c1.7-1.91 3.21-3.98 4.75-6.01l5.7.3-.29-2.36c1.88-2.18 3.67-4.47 5.14-6.96z"/><path opacity=".8" d="M342.29 235.07c4.42 1.6 8.95 2.97 13.21 4.99-2.12.29-4.25.53-6.39.57-1.24-.08-2.48-.21-3.72-.33-.32 1.25-.63 2.51-.9 3.78-1.06-.81-2.16-1.58-3.25-2.34l-.08 2.88 3.11.65-.24 1.37c-.84 1.48-1.73 2.93-2.59 4.39-4.28-.7-3.85-5.57-4.41-8.87.51-1.2 1.06-2.37 1.61-3.54l4.51-.27-.86-3.28z"/><path fill="#a38f7d" d="M262.49 241.18c3.41-2.76 7.51-6.08 12.05-3.61l.2 7.31c-4.09-.85-8.52.84-8.34 5.76-1.82-.03-3.64.13-5.45.24-1-3.34-.15-6.75 1.54-9.7z"/><path fill="#89888d" d="M345.39 240.3l3.72.33-1.25 3.8-.54 1.65 3.14 2.32-.61 3.62-1.8 1.61-2.6-1.11-1.42-5.88.24-1.37.22-1.19.9-3.78z"/><path fill="#f0d6ba" d="M146.21 249.04c4.11-1.12 5.27-6.5 9.93-6.95 1.06 1.79 2.04 3.61 2.94 5.49-3.2 2.72-8.91 3.65-9.76 8.34-.24 3.07-.1 6.15.07 9.23 1.83.45 3.67.91 5.49 1.45-4.5 4.86-11.24 5.69-17.5 5.68.28-4.24-.13-8.49-1.33-12.57l1.2-1.38-3.6-3.35c1.41-1.07 2.85-2.12 4.2-3.25.37.21 1.09.65 1.45.86l3.36 2.03.41 2.47-3.42.82c1.22 2.24 3.13 3.94 5.25 5.31 1.62-4.56 1.92-9.41 1.31-14.18z"/><path fill="#5d544a" d="M185.26 247.1c3.58.24 5.82-2.26 7-5.4l1.63 3.83c4.58.3 9.17.4 13.76.53l-4.7 3.39c-4.09-.43-8.21-.47-12.31-.15l-1.62 3.52c-1.63.74-4.37.91-4.11 3.29-.35 7.11-.57 14.24-.4 21.36l-2.98 1.47-1.7 10.36.5-12.19c.06-3.76.06-7.52.35-11.27 1.05-4.3 1.93-8.63 2.88-12.95l-1.96-1.98c.96-.23 1.94-.4 2.92-.58l.74-3.23z"/><path fill="#121111" opacity=".65" d="M347.86 244.43l1.42-.41 6.75 2.6-6.18 5.4.61-3.62-3.14-2.32.54-1.65z"/><path fill="#d3baa1" d="M108.4 256.64c1.54-7.51 9.28-11.86 16.49-12.16l-.27 2.21-.2 1.56c-4.94.54-9.67 2.35-13.54 5.51 1.48 2.56 3.29 4.95 5.68 6.72l-2.69 1.4c-4.69-2.39-9.27 1.23-13.41 3.07l4.78.48c-1.82.28-3.64.5-5.47.65l-1.12-.71c1.21-2.71 1.3-6.3-1.39-8.17l-1.14 9.77c-4.18.32-8.4.54-12.57-.07l-.3-.75c3.88.28 7.76.21 11.63-.16l-.58-8.04 2.08-2.33c3.64 2.11 9.06 6.62 12.02 1.02z"/><path fill="#e4cbb0" d="M169.67 257.42c-2.75-7.39 4.6-14.7 11.9-11.31-3.43 4.3-6.99 8.62-11.9 11.31z"/><path fill="#020101" opacity=".84" d="M249.9 244.96l4.32 3.46c2.41 3.17 4.76 6.59 5.32 10.63.95 7.69 7.27 13.04 9.52 20.27-.96-1.19-1.95-2.34-2.85-3.56-6.36-9.82-12.37-19.76-16.31-30.8z"/><path fill="#e1c6af" d="M49.09 250.15l4.76-3.72c3.93 4.58 10.93.41 15.97 3.51l1.65.86c-2.61 3.73-7.86.56-11.45.05l-2.09-.61-2.72 5.8c-2.3-1.67-4.44-3.58-6.12-5.89z"/><path fill="#a79380" d="M268.02 251.11l8.18-5.6c3.84 5.55 5.9 12.13 10.12 17.45-2.89 2.44-5.77 4.92-9 6.91-3.88-2.41-8.33-4.28-11.3-7.87-2.7-3.46.58-7.59 2-10.89m4.61 2.32l-.53 7.3c2.02.99 4.13 1.85 6.38 2.14.47-2.49.9-4.98 1.27-7.47-2.25-1.02-4.53-2.94-7.12-1.97z"/><path fill="#8e7e6d" d="M190.64 249.3c4.1-.32 8.22-.28 12.31.15l.26 7.87-2.23 1.61c-4.13-4.91-8.93-.65-13.89-.1 4.84 2.5 10.42 1.15 15.62 1.49l-.42 3.8c-3.03-4.62-10.14-4.57-13.02.11-.71 4.57-1.01 9.56.56 13.97 3.01 3.28 8.01 1.11 11.52-.21.38 3.74.51 7.52-.11 11.25-.07-2.67-.34-5.33-.63-7.98a159.97 159.97 0 0 0-13.5.15c-.52 8.08-1.31 16.17-.93 24.27 4.11-.21 9.08 1.24 12.57-1.5 1.96-3.38 1.38-7.64 2.09-11.39-.09 4.53-.01 9.06-.46 13.57-5.27.3-10.63.87-15.87.02-2.96-1.79-4.39-5.24-5.03-8.51.05-2.86.17-5.72.35-8.57l1.7-10.36 2.98-1.47c-.17-7.12.05-14.25.4-21.36-.26-2.38 2.48-2.55 4.11-3.29l1.62-3.52z"/><path fill="#ecd2bb" d="M159.76 252.13c4.54-.4 7.71 2.27 7.63 6.84l-2.17 1.76c-1.87-2.57-3.62-5.21-5.13-8l-.33-.6z"/><path fill="#56483d" d="M127.92 252.79c2.27.38 4.37 1.36 5.8 3.22l-2.53 2.17-3.27-5.39z"/><path fill="#fffee8" d="M150.86 258.48c3.24-1.65 6.06-3.98 9.23-5.75 1.51 2.79 3.26 5.43 5.13 8-3.01 2.18-6.16 4.15-9.41 5.95-2.04-2.49-3.83-5.18-4.95-8.2z"/><path fill="#61574e" d="M272.63 253.43c2.59-.97 4.87.95 7.12 1.97l-1.27 7.47c-2.25-.29-4.36-1.15-6.38-2.14l.53-7.3z"/><path fill="#9a8772" d="M84.71 254.99c3.87-.32 7.99-1.05 11.67.63l-2.08 2.33c-3.17-.59-8.08.82-9.59-2.96z"/><path fill="#5f5145" d="M203.21 257.32l2.76-2.11c-2.62 12.61-.72 25.43-1.76 38.16l-.02 3.27 2.66 1.37-3.56.71.36 2.56c.63 3.32 1.19 6.68 1.03 10.08-.57-1.4-1.17-2.78-1.77-4.16-1.48.56-2.95 1.15-4.46 1.64-8.56 1.4-18.06.74-24.47-5.77l-.63 10.36c-.31-3.92-.35-7.86-.22-11.79l2.53-.47-.04-1.77c-1.59-.4-3.17-.8-4.77-1.1 1.83-.17 3.67-.25 5.51-.32.61 2.52-.01 5.99 2.72 7.38.22-2.49.35-4.99.4-7.49.64 3.27 2.07 6.72 5.03 8.51 5.24.85 10.6.28 15.87-.02.45-4.51.37-9.04.46-13.57l.4-3.55c.62-3.73.49-7.51.11-11.25-.27-4.65.4-9.27.94-13.87l.42-3.8c-5.2-.34-10.78 1.01-15.62-1.49 4.96-.55 9.76-4.81 13.89.1l2.23-1.61z"/><path fill="#fbedd1" d="M100.46 264.95c4.14-1.84 8.72-5.46 13.41-3.07-2.72 1.51-5.46 3.23-8.63 3.55-1.6-.13-3.19-.3-4.78-.48z"/><path fill="#ad9986" d="M189.27 264.23c2.88-4.68 9.99-4.73 13.02-.11-.54 4.6-1.21 9.22-.94 13.87-3.51 1.32-8.51 3.49-11.52.21-1.57-4.41-1.27-9.4-.56-13.97m1.38 6.71l3.64 5.23c2.64-1.22 4.29-3.66 5.93-5.94l-3.68-5.22c-3.18.34-4.28 3.67-5.89 5.93z"/><path fill="#ccb498" d="M116.79 271.1c4.57-5.34 10.85-9.31 18.19-8.2l-.03 4.09c-6.23-1.49-11.28 2.63-16.55 5.1-4.19.32-8.38-.61-12.46-1.45 2.51-3.53 6.72-3.68 10.5-2.31l.35 2.77z"/><path fill="#c2ae97" d="M286.32 262.96c4.78 6.64 8.55 13.93 12.53 21.06l-9.69 7.41c-5.17-3.21-7.35-9.12-10.69-13.91-1.66-2.12-1.76-4.84-1.85-7.41l.7-.24c3.23-1.99 6.11-4.47 9-6.91z"/><path fill="#685f55" d="M190.65 270.94c1.61-2.26 2.71-5.59 5.89-5.93l3.68 5.22c-1.64 2.28-3.29 4.72-5.93 5.94l-3.64-5.23z"/><path fill="#5a4e41" d="M97.13 271.76c.04-2.23.4-4.43 1.52-6.39l1.12.71 2.89 3.7-1.08 1.72-4.45.26z"/><path fill="#f8e2c9" d="M118.4 272.09c5.27-2.47 10.32-6.59 16.55-5.1l-.35 5.58c-5.33.94-11.05 1.65-16.2-.48z"/><path fill="#998774" d="M271.26 270.96l5.36-.85c.09 2.57.19 5.29 1.85 7.41 3.34 4.79 5.52 10.7 10.69 13.91-3.81 3.49-9.82.37-12.09-3.45-3-5.24-7.23-10.18-7.98-16.37l2.17-.65z"/><path fill="#040304" opacity=".88" d="M294 270.1l6.42.41 2.36 2-6.24 1.41-2.54-3.82z"/><path opacity=".91" d="M179.47 272.38c.39 1.56.67 3.13.86 4.73-.09 4.06-.39 8.12-.5 12.19-.18 2.85-.3 5.71-.35 8.57-.05 2.5-.18 5-.4 7.49-2.73-1.39-2.11-4.86-2.72-7.38-1.84.07-3.68.15-5.51.32-2.25.47-4.15 1.88-6.15 2.94.25-5.83 6.44-8.43 11.53-7.9l2.12 4.82c1.87-8.44 1.17-17.2 1.12-25.78z"/><path fill="#898a8d" d="M296.54 273.92l6.24-1.41c1.6 1.17 3.84 2.06 3.86 4.39l-3.68 1.74-4.46-1.95-1.96-2.77z"/><path fill="#1b1919" opacity=".71" d="M298.5 276.69l4.46 1.95 3.68-1.74-.3 4.21-.18 5.78c-.75-.53-1.45-1.12-2.12-1.73l-.98-3.3-4.49-2.3-.07-2.87z"/><path fill="#8c8686" d="M306.34 281.11l3.6-1.3 1.64 2.17-1.66 5.29c-2.79 2.77-6.46 4.92-7.55 8.97 5.2 2.02 6.57 7.58 6.23 12.64l-2.8 1.92-3.47-4.65 2.53-3.68c-3.24-.35-5.72 2.08-8.36 3.53-.89 1.03-1.4 2.3-1.8 3.58l4.92-.43c.95 1.25 1.84 2.55 2.74 3.85l-1.93 2.2c-2.42-.69-4.81-1.52-7.09-2.57-2.86-3.08-3.85-8.23-8.55-9.08-1.13 6.09-10.19 9.56-14.36 4.67l2.9-3.64c1.71.11 3.31.73 4.91 1.3l1.65-.75a115 115 0 0 1-6.35-8.85l-2.25.79 1.25 3.92-4.71 3.58-1.81-4.31c1.23-3.93 3.87-7.09 7.42-9.14 1.46 1.88 2.9 3.78 4.47 5.58l.64.68a43.48 43.48 0 0 0 2.27-.09c-.7 6.14 7.56 6.8 11.76 5.17 2.79-3.48 5.97-6.62 10.03-8.59l-4.58-5.05c1.36-1.72 2.55-3.57 3.78-5.39.7.63 1.46 1.17 2.23 1.73.67.61 1.37 1.2 2.12 1.73.03-1.93.05-3.85.18-5.78z"/><path fill="#c5b19c" d="M187.11 281.41a159.97 159.97 0 0 1 13.5-.15l.63 7.98-.4 3.55c-.71 3.75-.13 8.01-2.09 11.39-3.49 2.74-8.46 1.29-12.57 1.5-.38-8.1.41-16.19.93-24.27z"/><path opacity=".87" d="M273.24 285.01c2.4 3.18 4.6 6.5 6.66 9.91l-1.99 1.78c-1.57-1.8-3.01-3.7-4.47-5.58-3.55 2.05-6.19 5.21-7.42 9.14l-3.44-3.55c.96-3.98 2.95-7.77 6.82-9.55l4.05 2.93c-.01-1.7-.03-3.39-.21-5.08z"/><path fill="#a6927f" d="M280.82 297.29c6.49-.94 12.08-4.61 17.21-8.47l4.58 5.05c-4.06 1.97-7.24 5.11-10.03 8.59-4.2 1.63-12.46.97-11.76-5.17z"/><path fill="#080808" opacity=".86" d="M204.21 293.37c3.68 1.27 7.85 3.22 8.17 7.68l-5.53-3.04-2.66-1.37.02-3.27z"/><path fill="#010101" opacity=".88" d="M271.29 297.07l2.25-.79a115 115 0 0 0 6.35 8.85l-1.65.75c-1.6-.57-3.2-1.19-4.91-1.3l-5.5-.01 4.71-3.58-1.25-3.92z"/><path fill="#95939a" d="M164.7 301.24c2-1.06 3.9-2.47 6.15-2.94l4.77 1.1.04 1.77-2.53.47-1.19.44-1.42 3.03-6.33.68.51-4.55z"/><path fill="#7e7d83" d="M203.29 298.72l3.56-.71 5.53 3.04c.05 1.47-.01 2.95-.16 4.42l-4.07-.2c-1.16-1.69-2.38-3.48-4.5-3.99l-.36-2.56z"/><path fill="#040404" opacity=".91" d="M171.94 302.08l1.19-.44c-.13 3.93-.09 7.87.22 11.79l-2.66-.66-.39-3.32-5.41.4c.32-1.25.68-2.49 1.04-3.72l5.05-.47c.3-1.2.63-2.4.96-3.58z"/><path fill="#030202" opacity=".9" d="M203.65 301.28c2.12.51 3.34 2.3 4.5 3.99l4.07.2-.52 2.96-4.27.88-1.19 3.29-1.5.23-.06-1.47c.16-3.4-.4-6.76-1.03-10.08z"/><path fill="#9a8d81" d="M173.98 303.07c6.41 6.51 15.91 7.17 24.47 5.77-.06 2.99-.73 5.91-1.77 8.71l-4.5-1.03.77 6.79c-2.98-.23-5.97-.06-8.94.1l-.04 3.04 3.32.67-.21 5.63-3.59-.09c-2.88-3.66-6.92-12.68.29-13.47l-6.72-5.06-1.3 2.71c-4.26.54-8.17-1.06-11.61-3.43l.74-3.56 5.41-.4.39 3.32 2.66.66c.29-3.45.47-6.91.63-10.36z"/><path fill="#202021" opacity=".45" d="M294.7 309.58c.4-1.28.91-2.55 1.8-3.58l3.12 3.15-4.92.43z"/><path fill="#817565" d="M198.45 308.84l4.46-1.64 1.77 4.16.06 1.47 1.5-.23 1.19-3.29 4.27-.88c.67 1.67.94 3.46.77 5.26-4.41 3.79-10.38 1.35-15.01 4.05l.45 2.61-2.52 3.45-2.44-.49-.77-6.79 4.5 1.03c1.04-2.8 1.71-5.72 1.77-8.71z"/><path fill="#a1a0a9" d="M195.39 323.8l2.52-3.45c1.5 4.44-.67 8.53-3.02 12.15l-3.2-.41-.04-3.83c1.29-1.45 2.57-2.91 3.74-4.46z"/><path fill="#403e3f" opacity=".77" d="M184.01 323.41l8.94-.1 2.44.49c-1.17 1.55-2.45 3.01-3.74 4.46l.04 3.83 3.2.41-3.68.45-.04-9.26-3.78.37-.1 3.06-3.32-.67.04-3.04z"/></svg>