<svg xmlns="http://www.w3.org/2000/svg" width="512" height="512" viewBox="0 0 384 384" xmlns:v="https://vecta.io/nano"><path fill="#a09488" d="M187.37 16.09c.25-3.98 2.12-7.48 4.54-10.56l3.55.11-.12 5.17c-1.66.98-3.23 2.11-4.66 3.41 4.07.85 8.23 1.21 12.38 1.17-.59-1.83-2.07-2.92-3.68-3.8.12-1.97.27-3.93.46-5.89 6.75 1.28 7.2 9.75 5.28 15.06-4.56.67-9.2.37-13.42-1.6.13 2.69.32 5.37.55 8.05-3.88.96-7.88 2.52-10.03 6.13l-2.39.98c.01-3.38.47-6.73.87-10.07l-2.29-.14-2.16 3.33-4.73-.25-.05-3.58c4.13-2.63 9.34-4.33 13.73-1.2l4.81-3.39-2.64-2.93z"/><path fill="#c8b8a3" d="M191.7 19.16c4.22 1.97 8.86 2.27 13.42 1.6l.12 7.04c-4.33-.19-8.65-.62-12.99-.59-.23-2.68-.42-5.36-.55-8.05z"/><path fill="#878073" d="M205.12 20.76c4.29 3.42 10.58 2.29 14.33 6.74l.33 2.93-4.07.97c-.97-1.3-1.76-2.72-2.63-4.08l-1.45-.23c-.03.31-.07.94-.1 1.25-7.73 6.58-1.88 17.98-4.33 26.7.11-7.86-.27-15.71-.65-23.55l-4.77-1.18c1.71 0 3.43-.07 5.14-.13l-1.68-2.38-.12-7.04z"/><path fill="#8d898a" d="M283.15 31.23c.27-5.86 6.29-11.58 12.23-9.36-.98 1.96-2.01 3.9-3.06 5.83l-3.48-1.5-.74 2.5c2.89 1.86 5.68 3.94 8.9 5.19 1.96-1.17-.48-2.96-.92-4.36l2.35-4.43 3.26 1.16c.75 5.15-.65 10.21-4.59 13.74 1.63 5.98 10.96 8.01 8.73 15.36-1.48-.14-2.96-.35-4.44-.55l-.57-2.09.69-2.73-1.59-1.29-1.66 1.89c-2.6-2.31-4.96-4.87-7.45-7.29l3.07.35 2.69-4.42c-6.56-1.67-9.83-10.1-17.51-7.06l-.82-.59 4.91-.35z"/><path fill="#010101" opacity=".57" d="M178.41 24.11l2.29.14c-.4 3.34-.86 6.69-.87 10.07l.11 1.69-2.35-.77-.54-3.66c-2.22.02-4.44.1-6.65.2 2.61-1.1 5.18-2.3 7.73-3.55l-6.61-1.04 4.73.25 2.16-3.33z"/><path fill="#534c49" d="M192.25 27.21c4.34-.03 8.66.4 12.99.59l1.68 2.38-5.14.13-2.57-.42c-6.14-2.69-11.98 1.05-13.46 7.27-.1-1.85-.31-3.69-.51-5.53-1.19 2.65-2.13 5.41-2.95 8.19l-2.12-.26c.63-.88 1.23-1.77 1.83-2.68l-2.06-.87-.11-1.69 2.39-.98c2.15-3.61 6.15-5.17 10.03-6.13z"/><path fill="#020203" opacity=".77" d="M211.63 27.09l1.45.23 2.63 4.08c1.17 1.45 2.47 2.79 3.72 4.17l-5.85-.68-1.15 3.8a24.03 24.03 0 0 1-2.93-.7c1.12-3.11 2.16-6.3 2.03-9.65l.1-1.25z"/><path fill="#a1a0aa" d="M263.83 29.94c3.79-4.84 10.95-2.34 14.41 1.64.2.15.61.44.82.59-1.71.89-3.36 1.86-5.02 2.83l2.92 2.61c-2.87.78-5.63 1.89-8.38 3 1.52-3.21 3.53-6.13 5.49-9.07-2.15-.47-4.08.39-5.85 1.52l-4.39-3.12z"/><path fill="#928270" d="M185.75 37.16c1.48-6.22 7.32-9.96 13.46-7.27-2.01.08-4.02.24-6.02.38-.46 7.73-.65 15.49-.19 23.22 4.75.37 9.49.86 14.2 1.55-.24 2.37-.43 4.75-.47 7.14.76-6.96-7.59-8.08-12.45-5.77-.11 6.33-3.04 17.68 6.87 17.25-3.32-.2-6.92-.59-9.66 1.69l1.98.26c.19 4.23 2.47 7.89 6.59 9.22-3.32-.2-6.66-.17-9.97.22l-.14 2.08.03.89c-1.22-.94-2.49-1.82-3.74-2.7.56-1.73 1.15-3.48 1.31-5.3.27-7.76-1.6-15.78 2.82-22.82l-3.42.04-1.23-4.51c-.08-5.19.02-10.38.03-15.57z"/><path fill="#736458" d="M211.53 28.34c.13 3.35-.91 6.54-2.03 9.65a24.03 24.03 0 0 0 2.93.7l1.15-3.8 5.85.68-1.84 4.69-7.27 2.47c-.19 11.52-2.17 23.05-.52 34.54.8 3.95 2.82 7.54 3.46 11.54 3.83 4.35 1.74 10.84-.6 15.46l-11.76-2.03 3.12.07-.24-3.35c-2.62-.42-5.36-.8-7.81.52-2.85-3.31-4.04-7.62-5.99-11.46l-.03-.89c6.89-1.03 13.79.14 20.66.68-1.74-.92-3.49-1.82-5.32-2.52 2.61-2.47 1.66-6.28 1.72-9.47-4.48 2.75-8.98 1.01-13.54-.21l-1.98-.26c2.74-2.28 6.34-1.89 9.66-1.69 1.84.09 3.7.1 5.55.13l.03-11.61c.04-2.39.23-4.77.47-7.14 2.45-8.72-3.4-20.12 4.33-26.7z"/><path fill="#e3d0b7" d="M193.19 30.27l6.02-.38 2.57.42 4.77 1.18c.38 7.84.76 15.69.65 23.55-4.71-.69-9.45-1.18-14.2-1.55-.46-7.73-.27-15.49.19-23.22z"/><path fill="#030303" opacity=".77" d="M268.22 33.06c1.77-1.13 3.7-1.99 5.85-1.52-1.96 2.94-3.97 5.86-5.49 9.07-.15.31-.47.93-.63 1.25l-2.52-.89 1.38-4.26c-1.88-.83-3.91-1.32-5.8-2.01l.06-.24c2.38-.44 4.84-.58 7.15-1.4z"/><path fill="#9a989e" d="M170.4 31.78l6.65-.2.54 3.66 2.35.77 2.06.87-1.83 2.68c-2.33-.15-4.53-.99-6.5-2.22-1.89-1.3-2.99-3.29-3.27-5.56z"/><path opacity=".77" d="M182.29 39.82c.82-2.78 1.76-5.54 2.95-8.19l.51 5.53-.03 15.57c-.79 9.17.03 18.29 1.83 27.29-.16 1.82-.75 3.57-1.31 5.3l-.25.74c-1.13-14.83-.61-29.71-1.15-44.55-1.03 1.53-1.7 3.06-2.61 4.73-4.67.77-14.34-4-8.56-8.9 1.97 1.23 4.17 2.07 6.5 2.22l2.12.26zm153.26 45.92c1.73-1.91 4.06-1.89 6.35-1.14l-.15 3.41-2.35 3.77 3.81-.19 3.05 2.54-5.17 2.57-3.88-1.01c-1.08-3.21-1.47-6.58-1.66-9.95z"/><path fill="#bfad96" d="M279.06 32.17c7.68-3.04 10.95 5.39 17.51 7.06l-2.69 4.42-3.07-.35-7.86-4.65c-1.57-.45-3.17-.76-4.78-1.02l-1.21-.02-2.92-2.61c1.66-.97 3.31-1.94 5.02-2.83z"/><path fill="#9b9aa1" d="M261.01 34.7l5.8 2.01-1.38 4.26 2.52.89 1.43 3.03-1.64 1.1c-2.85-1.19-5.38-3.15-6.68-6.02-.59-1.72-.64-3.54-.05-5.27z"/><path fill="#383637" d="M268.58 40.61l8.38-3 1.21.02.58 2.35c-2.77.85-5.07 2.67-6.72 5.03l-.23-1.84-2.42 1.72-1.43-3.03.63-1.25z"/><path fill="#988876" d="M278.17 37.63l4.78 1.02-3.05.45 2.01 1.57c-4.12 6.34-7.31 13.25-12.04 19.19 1.49 1.11 3.01 2.19 4.57 3.22-7.5.85-9.87 9.53-10.3 15.91l-1.46.39-4.45 1.4c.26 2.75.78 5.48 1.69 8.11-2.59-1.71-5.7-2.08-8.73-2.15 1.85 1.07 3.76 2.04 5.66 3.03l-3.61 3.26-1.39-2.55-5.24 2.35 1.69-6c6.04-6.18 8.3-14.64 12.53-21.96l1.74 2.1 3.81-3.48-2.79-3.59c2-3.37 3.9-6.8 5.84-10.21l2.6-4.68c1.65-2.36 3.95-4.18 6.72-5.03l-.58-2.35z"/><path fill="#605346" d="M279.9 39.1l3.05-.45 7.86 4.65c2.49 2.42 4.85 4.98 7.45 7.29-1.45 2.79-3.49 5.17-5.52 7.54-.71.97-1.35 2-1.97 3.03-1.06 1.86-2.04 3.76-3.02 5.66-4.47 8.92-12.06 16.25-14.23 26.3-.34-2.17-.82-4.31-1.3-6.45l-.28-1.14c-4.4.48-8.12-1.74-9.26-6.15l1.46-.39c3.27 1.79 6.35 3.91 9.56 5.8 2.88-5.69 5.28-11.67 9.17-16.78 4.15-6.07 7.09-12.86 10.71-19.24-3.65-3.04-7.79-5.39-11.67-8.1l-2.01-1.57z"/><path fill="#010101" opacity=".78" d="M210.32 42.73l7.27-2.47.08 4.23c-2.4 1.37-4.97 2.54-6.97 4.47-.06 9.46-1.83 18.84-.9 28.31-1.65-11.49.33-23.02.52-34.54z"/><path opacity=".78" d="M257.19 41.94l3.87-1.97c1.3 2.87 3.83 4.83 6.68 6.02l1.64-1.1 2.42-1.72.23 1.84-2.6 4.68-2.03-.19-2.68 2.47c-4.21-1.81-6.54-5.72-7.53-10.03z"/><path fill="#d3c0a8" d="M269.87 59.86c4.73-5.94 7.92-12.85 12.04-19.19 3.88 2.71 8.02 5.06 11.67 8.1-3.62 6.38-6.56 13.17-10.71 19.24-2.77-1.71-5.65-3.24-8.43-4.93-1.56-1.03-3.08-2.11-4.57-3.22z"/><path fill="#020202" opacity=".78" d="M298.26 50.59l1.66-1.89 1.59 1.29-.69 2.73.57 2.09c.3 1.39.5 2.81.67 4.23l-4.03-1.85-2.97 2.25-2.32-1.31c2.03-2.37 4.07-4.75 5.52-7.54z"/><path fill="#bea78d" d="M119.31 52.45c5.34.09 10.7-.06 16.03.48-5.18 1.06-14.58-1.4-15.73 5.86 4.28 1.7 8.61 3.67 10.67 8.12l2.51-.21c1.2-3 2.2-6.12 2.46-9.36l6.97 1.29-4.55.27c-.31 4.89 1.15 9.59 2.22 14.29-2.01 1.11-3.9 2.39-5.79 3.69 2.47 2.18 5.06 4.23 7.74 6.15.91 1.25 1.76 2.53 2.61 3.81 4.11-.51 8.16-1.42 12.14-2.58l-.46-3.88c5.63 1.95 2.74 7.58.87 11.31l-6.59-3.88c1.42 2.17 2.77 4.38 4.1 6.6-3.7-2.3-7.89-3.64-12.27-3.51l-.44 5.32-1.64-3.78c-.72-1.53-1.46-3.05-2.27-4.53-2.36-3.03-5.3-5.52-8.22-7.97-2.61 5.64-8.55 8.16-13.79 4.02-3.65-3.42-8.31-7.9-3.74-12.67l1.39-2.23c-3.12-3.23-7.47-4.38-11.82-4.7-.58 2.14-1.15 4.28-1.87 6.37-1.95 7.02-9.26 6.84-15.11 5.66 2.4-4.74 8.43-3.23 12.77-3.98a191.28 191.28 0 0 0-1.11-12.18c-4.79-.3-9.08 1.87-13.08 4.22a155.07 155.07 0 0 0 .39 10.34l-2.3-.46c-.9-3.38-1.12-6.89-.91-10.36l-8.13 1.66 1.5 3.47-2.46-.45c-5.07-2.57-9.7 2.87-14.23 4.59 1.04 2.23 2.11 4.46 2.95 6.78l.81 2.79c-2.97-1.88-4.59-5.03-6.11-8.06-2.3 2.16-4.4 4.51-6.28 7.04l-4.76.79-1.03 3.26-4.49 7.17c1.76 1.78 3.49 3.6 5.12 5.5l-1.81-.42c-1.48-.28-2.97-.52-4.45-.76-4.74 7.18-5.09 16.03-6.22 24.29l3.75 1.09-4.44.6-1.9-.28c1.23-10.32 2.08-21.13 8.34-29.85l-3.69-3.26c2.64-3.79 5.41-7.47 8.16-11.18l4.74 2.1c3.12-3.33 6.37-6.56 9.91-9.45l-1.31-3.62a412.52 412.52 0 0 1 12.47-6.18l2.08 3.22c4.47-1.34 9.09-1.98 13.72-2.49l.83-4.46c5.74-.1 11.56.55 17.22-.7l2.21 3.18c5.05-1.7 10.37-2.23 15.63-2.87l.69-5.02m-2.92 17.52c-1.94 2.11-3.87 4.38-4.27 7.33 3.64 2.37 6.98 5.15 10.6 7.55 1.77-2.25 3.28-4.69 4.22-7.4-3.44-2.6-6.8-5.33-10.55-7.48m10.99 9.04c2.33-.34 5.49.1 6.59-2.55l-3.18-2.8c-1.4 1.61-2.55 3.4-3.41 5.35z"/><path fill="#f1dabd" d="M119.61 58.79c1.15-7.26 10.55-4.8 15.73-5.86l-.09 4.41c-.26 3.24-1.26 6.36-2.46 9.36l-2.51.21c-2.06-4.45-6.39-6.42-10.67-8.12z"/><path fill="#524943" opacity=".96" d="M185.72 52.73l1.23 4.51 3.42-.04c-4.42 7.04-2.55 15.06-2.82 22.82-1.8-9-2.62-18.12-1.83-27.29z"/><path fill="#dbc8ae" d="M194.28 56.41c4.86-2.31 13.21-1.19 12.45 5.77l-.03 11.61-5.55-.13c-9.91.43-6.98-10.92-6.87-17.25m5.18 2.47l-3.53 5.02c1.3 1.8 2.38 3.84 4.16 5.24 2.67.47 3.66-2.74 5.28-4.25-1.64-2.3-2.85-5.36-5.91-6.01z"/><path fill="#818185" d="M295.06 59.44l2.97-2.25 4.03 1.85c-.31 1.99-1.48 3.58-3.28 4.47-2.81-.26-5.51-1.07-8.01-2.35l1.97-3.03 2.32 1.31z"/><path fill="#f4ddc2" d="M137.67 58.9l4.55-.27c3.59.51 7.22 1.21 10.42 3 2.3 5.07-1.22 8.71-6.28 8.82-2.23.73-4.39 1.66-6.47 2.74-1.07-4.7-2.53-9.4-2.22-14.29z"/><path fill="#928a7c" d="M199.46 58.88c3.06.65 4.27 3.71 5.91 6.01-1.62 1.51-2.61 4.72-5.28 4.25-1.78-1.4-2.86-3.44-4.16-5.24l3.53-5.02z"/><path fill="#fdebd6" d="M83.31 64.45c4-2.35 8.29-4.52 13.08-4.22a191.28 191.28 0 0 1 1.11 12.18c-4.34.75-10.37-.76-12.77 3.98-1.36-.61-2.66-1.35-3.89-2.2l.56.14 2.3.46a155.07 155.07 0 0 1-.39-10.34z"/><path fill="#4e453f" opacity=".9" d="M260.83 64.87l2.76-4.97 2.79 3.59-3.81 3.48-1.74-2.1z"/><path fill="#dcc5af" d="M152.64 61.63c2.76 2.23 5.74 2.6 7.77-.77l4.9 2.87 3.08 11.26-7.55 6.18c-3.34-1.96-6.61-4.28-10.52-4.92-1.32-1.19-2.55-2.48-3.73-3.81l-.23-1.99c5.06-.11 8.58-3.75 6.28-8.82z"/><path opacity=".8" d="M287.75 66.82l3.02-5.66c2.5 1.28 5.2 2.09 8.01 2.35-1.19 5.23-7.03 3.75-11.03 3.31z"/><path fill="#c3b199" d="M264.14 78.99c.43-6.38 2.8-15.06 10.3-15.91 2.78 1.69 5.66 3.22 8.43 4.93-3.89 5.11-6.29 11.09-9.17 16.78-3.21-1.89-6.29-4.01-9.56-5.8m4.06-8.44c.41 2.28.71 4.61 1.51 6.8 2.17 1.23 4.36-.94 6.43-1.51-.24-2.59-.57-5.22-1.87-7.52l-6.07 2.23z"/><path fill="#d5bea8" d="M72.36 65.63l8.13-1.66c-.21 3.47.01 6.98.91 10.36l-.56-.14c-1.52-1.62-2.68-3.52-3.92-5.35-.39 4.86-1.68 10.32-5.96 13.23-4.03 2.2-8.79.88-13.15 1.23-5.42 6.64-3.02 16.79 4.91 20.09 3.26-.64 6.58-1.13 9.9-.82l1.57 2.02c-2.87 2.75-6.88 2.37-10.54 2.25l-5.48 6.3 2.01-.02-4.16.67c2.8-6.6-.4-13.71-5.97-17.71 2.66-2.79 8.16-10.88 1.13-11.39l-1.73.1-2.49-2-4.21 3.05 1.03-3.26 4.76-.79c1.88-2.53 3.98-4.88 6.28-7.04 1.52 3.03 3.14 6.18 6.11 8.06l-.81-2.79c4.53-1.12 8.91-2.88 12.53-5.88l-1.25-5.49 2.46.45-1.5-3.47z"/><path fill="#fef0d2" d="M101.71 64.36c4.35.32 8.7 1.47 11.82 4.7l-1.39 2.23c-3.95-1.1-8.51-3.27-12.3-.56.72-2.09 1.29-4.23 1.87-6.37z"/><path fill="#a9937e" d="M165.31 63.73l8.24 5.36-1.52 4.05c4.55 4.69 9.23 9.27 13.57 14.17l.39-1.25.25-.74c1.25.88 2.52 1.76 3.74 2.7 1.95 3.84 3.14 8.15 5.99 11.46 1.36.94 2.76 1.84 4.18 2.67-5.82-.22-11.6-.95-17.3-2.13l.23-2.86 2.49-1.98-1.27-1.92-3.04 1.64 2.4-4.84-3.2-3.96c-2.86-3.6-6.23-6.78-10.02-9.39-.75 4.36 2.19 7.69 5.37 10.18 1.06.91 2.14 1.79 3.22 2.68l-5.9 3.49 3.16 6.05c-4.09-.99-8.3-1.32-12.51-1.07l-.93 2.34-2-2.29-1 3.86c-2.63-1.47-5.27-2.89-7.95-4.24-.26 4.16.27 8.36 2.32 12.04l2.37-.09 3.51-4.71c.27 3.53.61 7.04 1.07 10.54-1.97 1.21-3.89 2.5-5.8 3.8l-.43 5.51c-.47 1.11-.98 2.2-1.49 3.3l-1.2-3.74-2.9.1-2.3-.26 1.81-4.21.52-1.51.32-.95c.16 1.95.39 3.89.61 5.84 5.55.78 2.37-4.35 1.9-7.49-.94-5.2-1.38-10.48-1.51-15.76l-3.77 1.52-1 1.79c-2.35 6.49-9.52 5.92-14.35 2.73-1 2.77.54 7.14-2.96 8.34-5.13 1.89-7.2-4.66-8.39-8.36 1.03-2.45 3.01-4.29 4.73-6.25l5.3 2.01c.23-2.11.44-4.22.78-6.32l6.79 10.17 6.77-3.11c-.97-2.12-1.94-4.25-2.8-6.42.1-1.78.27-3.55.44-5.32 4.38-.13 8.57 1.21 12.27 3.51-1.33-2.22-2.68-4.43-4.1-6.6l6.59 3.88c1.87-3.73 4.76-9.36-.87-11.31-2.04-1.23-4.04-2.53-5.81-4.13 3.91.64 7.18 2.96 10.52 4.92 2.55-2.02 5.07-4.07 7.55-6.18l-3.08-11.26m-4.01 18.31l1.43 2.94c-1.85 2.72-4.11 5.8-3.85 9.24 1.39 4.15 6.31 2.83 9.55 2.21-1.16-5.57-4.37-11.88-.49-17.06l-6.64 2.67z"/><path fill="#fff6e2" d="M57.17 73.24c4.53-1.72 9.16-7.16 14.23-4.59a207.33 207.33 0 0 0 1.25 5.49c-3.62 3-8 4.76-12.53 5.88-.84-2.32-1.91-4.55-2.95-6.78z"/><path d="M76.92 68.84c1.24 1.83 2.4 3.73 3.92 5.35 1.23.85 2.53 1.59 3.89 2.2 5.85 1.18 13.16 1.36 15.11-5.66 3.79-2.71 8.35-.54 12.3.56-4.57 4.77.09 9.25 3.74 12.67 3.06 5.35 9.25 3.92 14.39 4.1-4.34 3.76-9.23 6.8-13.95 10.06-.12.31-.38.92-.5 1.22l2.01.47c-1.23 2.66-2.41 5.35-3.53 8.05 1.66 3.33 2.88 6.91 5.02 9.99 4.63 1.92 9.87.32 14.74 1.16l.44-2.65c2.49 1.1 5 2.42 6.31 4.95l-1.46.65-3.17 1.49c-2.44.28-4.91.37-7.34.03-2.28-.53-4.65-.84-6.89.08l-17.69.35c-1.84-2.17-4.18-3.82-6.82-4.87-.47-1.23-.94-2.47-1.34-3.72.17-3.29-1.81-5.93-3.83-8.3 1.74-.76 3.5-1.6 4.59-3.25-1.86.17-3.72.4-5.57.62-.18-5.25-.29-10.51-.72-15.75l-1.85 12.9-4.07.51c-.17-.18-.49-.55-.66-.73-2.47 2.89-6.2 3.4-9.8 3.27l-1.57-2.02c-2.66-3.82-7.95-2.2-11.84-3.54l.04-4.59-2.85-2.06c.04-3.03 0-6.06-.16-9.08 4.36-.35 9.12.97 13.15-1.23 4.28-2.91 5.57-8.37 5.96-13.23m34.81 24.3c.3 1.9.63 3.79 1 5.68l-2.82 4.2 2.8-.49c1.23-3.13 2.68-7.24-.98-9.39m-8.18 8.3l1.57 2.74 4.33-.59c-1.76-1.21-3.83-1.75-5.9-2.15zm106.67 19.59c1.88 3.31 3.52 6.74 5.44 10.03 1.35-.58 2.73-1.12 4.06-1.75l-.03 2.99c-.01 4.73 1.53 9.23 2.84 13.71.69 2.94.55 5.99-.11 8.93-4.33 7.5-13.79 9.16-21.75 8.65 1.71-2.73 4.3-4.68 7.08-6.22l-4.29-1.9c.71-6.1 1.05-12.25.61-18.38l2.27-2.28c-.68-1.84-1.35-3.69-1.91-5.56.19-3.75 2.97-6.2 5.79-8.22zm-63.47 27.68c1.39 11.71.27 23.59.62 35.37l4.62.42c-.53 1.29-1 2.59-1.43 3.92-2.62-1.77-6.01-3.91-9.15-2.02-4.69 2.03-3.92 10.6 1.51 10.9 3.43 1.04 6.28-1.09 8.44-3.49 1.28 4.19 1.25 8.6.52 12.89l-5.16 1.25c-1.99 3.6-1.31 8.4-3.85 11.57-6.73-1.01-13.78-10.4-19.83-2.8-2.8 2.96-6.16 6.76-5.17 11.16 2.16 5.92 7.78 9.36 12.48 13.11-3.55 4.11-9.65 1.47-13.58 4.82-3.94 2.6-7.34 6.1-8.81 10.68-6.29.36-13.67-.8-17.84-5.95l-.22 2.82c-4.87.6-9.87 3.8-9.18 9.36l-6.04-1.02c2.95-10.09-8.96-14.86-17.05-14.94.07-3.63-.32-7.24-1.02-10.8 4.34-1.44 5.93-5.43 5.86-9.72 6.49-.2 13.13-.48 19.42 1.43 3.26.82 6.98 2.71 9.85-.05 1.68-.39 3.39-.63 5.08-1.01-1.53-.87-3.02-1.81-4.53-2.68l1.58-5.4c.69-4.61 3.91-7.78 8.25-9.11l-4.54-1.19c1.19-.38 2.38-.76 3.59-1.08 2.21-.03 4.42.03 6.63.1 5.19.91 10.44.43 15.64-.1 7.1.94 14.32 1.2 21.14 3.63-1.64-1.93-3.81-3.23-6.08-4.27l-.59-3.24-.65-3.74c-6.86 1.16-13.7-.47-20.43-1.56-1.82-1.96.18-4.8.35-7.05-1.77.44-3.5 1.04-5.27 1.49l1.84-5.91c2.98-1.08 6.1-.06 9.07.5l2.43-3.19 3 .52 6.79 1.16.86 2.2c.98-1.22 1.95-2.44 2.84-3.72l7.76-.19c-.22-11.69-.1-23.39.25-35.07m-42.96 89.49c-1.11-3.77-.59-7.52 2.07-10.49-4.82.89-6.36 7.9-2.07 10.49z" fill="#fffffb"/><path fill="#787064" d="M268.2 70.55l6.07-2.23c1.3 2.3 1.63 4.93 1.87 7.52-2.07.57-4.26 2.74-6.43 1.51-.8-2.19-1.1-4.52-1.51-6.8z"/><path fill="#fffbe5" d="M116.39 69.97c3.75 2.15 7.11 4.88 10.55 7.48-.94 2.71-2.45 5.15-4.22 7.4-3.62-2.4-6.96-5.18-10.6-7.55.4-2.95 2.33-5.22 4.27-7.33z"/><path d="M139.89 73.19c2.08-1.08 4.24-2.01 6.47-2.74l.23 1.99c-.07 3.89-.49 7.75-.8 11.62l-3.95-1.03c-2.68-1.92-5.27-3.97-7.74-6.15 1.89-1.3 3.78-2.58 5.79-3.69zm13.99 94.67c4.29-.26 8.61-.48 12.91-.12 4.63 2.35 9.62 6.07 8.63 11.97l-6.43-.76c10.48 5.63 4.62 18.1 3.2 26.92-3.04 2.6-4.67 6.3-6.61 9.71-1.96-.32-3.93-.58-5.92-.7-1.83-5.69-5.82-10.71-5.94-16.89-.61-5.86 2.65-12.02-.19-17.6-.18-4.18-.13-8.37.35-12.53zm-14.63 84.73c1.92-1.85 4.24-3.25 6.91-3.69.71 4.81.3 9.7-1.22 14.32a21 21 0 0 1-5.42-5.46l3.56-.47-.36-2.71-3.47-1.99z" fill="#fffffe"/><path fill="#f8ddc1" d="M145.79 84.06c.31-3.87.73-7.73.8-11.62 1.18 1.33 2.41 2.62 3.73 3.81 1.77 1.6 3.77 2.9 5.81 4.13l.46 3.88c-3.98 1.16-8.03 2.07-12.14 2.58l-2.61-3.81c1.31.38 2.63.69 3.95 1.03z"/><path fill="#84735f" d="M127.38 79.01c.86-1.95 2.01-3.74 3.41-5.35l3.18 2.8c-1.1 2.65-4.26 2.21-6.59 2.55z"/><path fill="#b2a28e" d="M193.47 75.61c4.56 1.22 9.06 2.96 13.54.21-.06 3.19.89 7-1.72 9.47l-5.23-.46c-4.12-1.33-6.4-4.99-6.59-9.22z"/><path fill="#a0a0a7" d="M349.9 76.69c5.85-1.73 10.22 4.21 11.1 9.36-2.93-.11-5.87-.05-8.8-.05l1.05-.45 3.31-1.39-1.35-2.6-3.37.41-1.94-5.28z"/><path fill="#fff5d4" d="M170.44 76.71c3.79 2.61 7.16 5.79 10.02 9.39l-4.65.79c-3.18-2.49-6.12-5.82-5.37-10.18z"/><path fill="#73604d" d="M161.3 82.04l6.64-2.67c-3.88 5.18-.67 11.49.49 17.06-3.24.62-8.16 1.94-9.55-2.21-.26-3.44 2-6.52 3.85-9.24l-1.43-2.94z"/><path fill="#939398" d="M341.9 84.6c.16-2.35.98-4.54 3.18-5.65l3.18 3.06-3.03 5.17 1.59 2.04-.83 2.23-2.78.14-1.46-3.58c-.06-1.14.11-2.27.15-3.41z"/><path fill="#fde9ce" d="M115.88 83.96c5.24 4.14 11.18 1.62 13.79-4.02 2.92 2.45 5.86 4.94 8.22 7.97-5.29 2.03-9.11 6.47-14.17 8.9-4.82 2.02-7.07 8.05-6.08 12.94 1.95 3.39 5.36 5.64 7.79 8.68 3.33-.58 6.23-2.31 7.95-5.27 2.76-4.9 11.51-5.02 12.94 1.04-.25-2.93-.12-5.87.35-8.76 1.58 4.18 2.22 8.63 2.71 13.04l-.52 1.51c-.36-.37-.71-.75-1.05-1.13-2.1 1.41-4.59 1.88-7 2.45-1.31-2.53-3.82-3.85-6.31-4.95l-.44 2.65c-4.87-.84-10.11.76-14.74-1.16-2.14-3.08-3.36-6.66-5.02-9.99 1.12-2.7 2.3-5.39 3.53-8.05l-2.01-.47.5-1.22c4.72-3.26 9.61-6.3 13.95-10.06-5.14-.18-11.33 1.25-14.39-4.1z"/><path fill="#c1af96" d="M258.23 80.78l4.45-1.4c1.14 4.41 4.86 6.63 9.26 6.15l.28 1.14c-1.38 2.87-3.74 5.14-7 5.53-1.77-1.11-3.5-2.26-5.3-3.31-.91-2.63-1.43-5.36-1.69-8.11z"/><path fill="#635541" d="M232.13 80.8c5.04 2.19 9.86 4.87 15 6.82-.98 1.62-1.72 3.38-2.49 5.11-5.72-1.95-11.6-3.52-17.03-6.24 1.47-1.93 2.99-3.81 4.52-5.69z"/><path fill="#1c1b1b" opacity=".67" d="M348.26 82.01l4.99 3.54-1.05.45c-1.74.67-3.28 1.73-4.79 2.79l-.59.43-1.59-2.04 3.03-5.17z"/><path fill="#fff1d5" d="M42.75 85.84l4.21-3.05 2.49 2 1.73-.1 1.79 2.4c-2.75 4.12-4.71 9.34-9.59 11.42-1.63-1.9-3.36-3.72-5.12-5.5l4.49-7.17z"/><path fill="#aa927b" d="M51.18 84.69c7.03.51 1.53 8.6-1.13 11.39 5.57 4 8.77 11.11 5.97 17.71l4.16-.67 1.41-.19c-1.21 3.46-1.33 7.15-1.24 10.78l-2.05.37c.2-2.92.34-5.85.38-8.77-4.55.21-9.12.34-13.67-.05.47-4.7 1.1-9.39 1.92-14.05-1.17-.92-2.33-1.85-3.55-2.7 4.88-2.08 6.84-7.3 9.59-11.42l-1.79-2.4m-3.06 24.92l7.86-1.1c-1.07-2.86-2.08-5.74-3.03-8.64-3.91 1.62-5.03 5.88-4.83 9.74z"/><path fill="#fde9c7" d="M62.72 103.39c-7.93-3.3-10.33-13.45-4.91-20.09.16 3.02.2 6.05.16 9.08l2.85 2.06-.04 4.59c3.89 1.34 9.18-.28 11.84 3.54-3.32-.31-6.64.18-9.9.82z"/><path fill="#39312a" d="M190.09 85.05c3.31-.39 6.65-.42 9.97-.22l5.23.46c1.83.7 3.58 1.6 5.32 2.52-6.87-.54-13.77-1.71-20.66-.68l.14-2.08z"/><path fill="#c4b29d" d="M352.2 86l8.8.05 5.09 3.26c1.64.89 3.38 1.56 5.12 2.22l2.03 4.68-3.96 2.15 2.5 3.09c-1.89 1.79-3.96 3.47-6.52 4.18-1.66-6.8-4.77-13.74-11.37-17.01-2.15.27-4.32.34-6.48.17 1.51-1.06 3.05-2.12 4.79-2.79z"/><path fill="#97979d" d="M366.68 86.58c3.75-1.95 7.94-2.08 12-1.17l1.18 3.21-5.28 2.26-1.83-2.72-2.66.75 1.12 2.62c-1.74-.66-3.48-1.33-5.12-2.22l.59-2.73z"/><path fill="#d2bea3" d="M175.81 86.89l4.65-.79 3.2 3.96-2.4 4.84 3.04-1.64 1.27 1.92-2.49 1.98-.23 2.86-.27 3.13-3.06-2.92-5.2-.06c1.32 2.58 2.32 5.3 2.97 8.13l1.95-1.06c2.22 2.78 4.21 6.09 7.55 7.64 2.3-.28 4.36-1.5 6.49-2.34l.5-3.22c5.47-1.79 11.98-4.87 16.73.19l3.73-5.04 3.78.33-.41 2.82-3.69-.34c2.06 5.61-3.87 8.53-7.18 11.83l-6.78 6.98.05-.85-4.82 3.18-5.46-9.58c-2.63 2.2-5.97 4.17-7.19 7.53 1.34 6.66-1.1 13.19-1.24 19.85l-.33-2.13-3.3 1.89c-.93-3.22-2.07-6.38-2.89-9.64-.95-5.33-3.06-11.08.06-16.12-1.63 1.53-3.3 3.01-4.97 4.48-2.17-3.42-3.92-7.1-5.1-10.98l6.94 1.21-1.61-1.72c3.1-.02 6.21-.07 9.31-.23-5.47-7.16-12.76-.98-18.24 2.51-.46-3.5-.8-7.01-1.07-10.54l-3.51 4.71-2.37.09c-2.05-3.68-2.58-7.88-2.32-12.04 2.68 1.35 5.32 2.77 7.95 4.24l1-3.86 2 2.29.93-2.34c4.21-.25 8.42.08 12.51 1.07l-3.16-6.05 5.9-3.49-3.22-2.68m18.17 29.19c3.42 1.88 7.35 1.82 11.12 1.66-2.83-2.9-8.04-5.86-11.12-1.66m-19.35 7.83l1.26-.08c1.42 5 .99 10.51 3.41 15.21 1.09-5.12 1.49-10.39.55-15.57 2.03-.09 3.35-1.83 4.91-2.91-1.67-.71-3.33-1.45-4.97-2.21-1.88 1.71-3.6 3.57-5.16 5.56z"/><path fill="#7e746b" d="M219.52 96.24c3.19-2.81 5.59-6.34 8.09-9.75 5.43 2.72 11.31 4.29 17.03 6.24.77-1.73 1.51-3.49 2.49-5.11l1.17-.79-1.69 6 5.24-2.35 1.39 2.55-.5 2.64c.99 1.85 1.94 3.74 3.07 5.52a215.14 215.14 0 0 0-6.09 1.93l-2.83-1.45-.83-.42c-5.56-2.73-11.51-5.24-17.85-4.23l-4.8-.14-.45 6.4a53.4 53.4 0 0 1-2.31-1.92c-.39-1.71-.83-3.4-1.13-5.12z"/><path fill="#463c34" d="M251.19 86.74c3.03.07 6.14.44 8.73 2.15l5.3 3.31 5.06 2.91v3.03l-3.23-2.13c-3.33-2.2-6.65-4.41-10.2-6.24-1.9-.99-3.81-1.96-5.66-3.03z"/><path fill="#8c7862" d="M265.22 92.2c3.26-.39 5.62-2.66 7-5.53l1.3 6.45c-.3 7.17-1.44 14.34-6.65 19.7l-2.55-.72c-1.72-.78-3.39-1.65-4.97-2.68 3.5-2.71 5.75-6.55 7.49-10.55l-1.78-.64 1.99-2.22 3.23 2.13v-3.03l-5.06-2.91z"/><path fill="#d9c0a1" d="M123.72 96.81c5.06-2.43 8.88-6.87 14.17-8.9.81 1.48 1.55 3 2.27 4.53-3.35-1.4-7.75-.56-9.12 3.14-.34 2.1-.55 4.21-.78 6.32l-5.3-2.01c-1.72 1.96-3.7 3.8-4.73 6.25 1.19 3.7 3.26 10.25 8.39 8.36 3.5-1.2 1.96-5.57 2.96-8.34 4.83 3.19 12 3.76 14.35-2.73l.74 2.01c-.47 2.89-.6 5.83-.35 8.76-1.43-6.06-10.18-5.94-12.94-1.04-1.72 2.96-4.62 4.69-7.95 5.27-2.43-3.04-5.84-5.29-7.79-8.68-.99-4.89 1.26-10.92 6.08-12.94z"/><path fill="#454040" d="M346.82 89.22l.59-.43c2.16.17 4.33.1 6.48-.17 6.6 3.27 9.71 10.21 11.37 17.01-.13 1.82-.35 3.63-.54 5.45l4.64 1.64c-3.79 1.21-7.61 2.37-11.22 4.03.79-3.14 3.15-5.46 4.94-8.05 1.24-3.5-2-7.32-2.97-10.75-1.7-5.95-9.2-6.71-13.85-3.82l-3.05-2.54 2.78-.14.83-2.23z"/><path fill="#d3c0b4" d="M88.72 101.54l1.85-12.9c.43 5.24.54 10.5.72 15.75-2.61.56-5.23.17-6.64-2.34l4.07-.51z"/><path fill="#bea995" d="M253.24 93.03l3.61-3.26c3.55 1.83 6.87 4.04 10.2 6.24l-1.99 2.22 1.78.64c-1.74 4-3.99 7.84-7.49 10.55l-.8-.63c-.12-1.43-.17-2.87-.23-4.31-.85-1.09-1.71-2.17-2.51-3.29-1.13-1.78-2.08-3.67-3.07-5.52l.5-2.64z"/><path fill="#f4ddc5" d="M131.04 95.58c1.37-3.7 5.77-4.54 9.12-3.14l1.64 3.78 2.8 6.42-6.77 3.11-6.79-10.17z"/><path fill="#e6d0b8" d="M346.26 94.13c4.65-2.89 12.15-2.13 13.85 3.82.97 3.43 4.21 7.25 2.97 10.75-6.95 2.37-12.79 7.63-20.14 8.75-.96-5.18-1.49-11.29-6.31-14.47l2.29-5.2 2.17-1.08c1.71-.88 3.42-1.78 5.17-2.57z"/><path fill="#8b888d" d="M376.35 94.5l4.75-1.58.93.2.72 2.81c-2.31 4.36-6.35 7.23-11.24 7.92-2.05 5.56 2.68 10.94.03 16.56l-2.88 1.4-1.96-3.35 2.66-5.74-4.64-1.64.54-5.45c2.56-.71 4.63-2.39 6.52-4.18l-2.5-3.09 3.96-2.15 1.08 2.62 2.28-.19-.25-4.14z"/><path fill="#c0ab96" d="M111.73 93.14c3.66 2.15 2.21 6.26.98 9.39l-2.8.49 2.82-4.2-1-5.68z"/><path fill="#c7b19e" d="M223.41 96.88l4.8.14-4.9 1.25c5.33 6.51 15.18 3.94 22.49 6.67l.26-3.69c.21.1.62.31.83.42l.7 3.63c-8.08 1.97-16.44-1.67-24.63-2.02l.45-6.4z"/><path fill="#fde7d2" d="M228.21 97.02c6.34-1.01 12.29 1.5 17.85 4.23l-.26 3.69c-7.31-2.73-17.16-.16-22.49-6.67 1.61-.47 3.25-.88 4.9-1.25z"/><path fill="#fbe3c9" d="M37.12 97.33l4.45.76c-1.25 3.27-2.62 6.48-3.99 9.7l6.68.99c-2.14 2.19-4.73 3.84-7.56 4.98-.82 2.95-1.52 5.93-2.05 8.95l-3.75-1.09c1.13-8.26 1.48-17.11 6.22-24.29z"/><path d="M41.57 98.09l1.81.42 3.55 2.7c-.82 4.66-1.45 9.35-1.92 14.05-2.28-.11-4.56-.17-6.85-.2l-.18 9.25c-2.57-.47-5.19-.62-7.77-1 1.48-.17 2.96-.39 4.44-.6.53-3.02 1.23-6 2.05-8.95 2.83-1.14 5.42-2.79 7.56-4.98l-6.68-.99 3.99-9.7zm215.24 46.79c7.29.28 14.53 1.23 21.68 2.62l2.37 6.41c-6.88 6.54-16.26-.48-24.04 3.96a99.95 99.95 0 0 1-4.89.22l-.81-4.97 2.63 2.55 1.47-3.22c1.71-2.38 4.41-3.6 7.03-4.71l-5.44-2.86m15.58 7.99l4.38 1.39.22-4.69c-1.85.64-3.62 1.52-4.6 3.3z" fill="#d6bfa6"/><path fill="#362f2a" d="M195.97 99.48c2.45-1.32 5.19-.94 7.81-.52l.24 3.35-3.12-.07-.75-.09-4.18-2.67z"/><path fill="#d9c4aa" d="M332.08 100.86l6.84-3.08-2.29 5.2c4.82 3.18 5.35 9.29 6.31 14.47-5.24 2.38-10.22 5.34-15.67 7.25l-2.31-3.19c-1.02-2.7-2.06-5.38-3.25-8-1.76 3.81-1.33 8.39 2.91 10.28l-.3 2.02-6.84 3.16c-2.44-5.74-4.86-11.84-9.86-15.88l.51 2.65c-3.71-.82-7.52-1.35-11.32-1.1 5.2-2.89 11.28-2.72 17-3.49 7.08-1.52 13-6.34 20.33-7.19l-2.06-3.1M328 118.87c2.02.87 4.27.76 6.41.96.51-2.16 2.02-4.36 1.49-6.6-1.72-1.15-3.94-1.01-5.9-1.4-.79 2.23-2.9 4.63-2 7.04z"/><path fill="#87745e" d="M48.12 109.61c-.2-3.86.92-8.12 4.83-9.74.95 2.9 1.96 5.78 3.03 8.64l-7.86 1.1z"/><path fill="#7f6e5d" d="M146.93 101.64l3.77-1.52c.13 5.28.57 10.56 1.51 15.76l-1.92-.37-.59 2.02-.32.95c-.49-4.41-1.13-8.86-2.71-13.04l-.74-2.01 1-1.79z"/><path fill="#f8e3c2" d="M174.32 100.17l5.2.06 3.06 2.92.27-3.13c5.7 1.18 11.48 1.91 17.3 2.13l.75.09c3.93.61 7.84 1.37 11.76 2.03l1.58.2-3.73 5.04c-4.75-5.06-11.26-1.98-16.73-.19l-.5 3.22c-2.13.84-4.19 2.06-6.49 2.34-3.34-1.55-5.33-4.86-7.55-7.64l-1.95 1.06c-.65-2.83-1.65-5.55-2.97-8.13z"/><path fill="#fffae6" d="M74.19 104.59c3.6.13 7.33-.38 9.8-3.27.17.18.49.55.66.73 1.41 2.51 4.03 2.9 6.64 2.34l5.57-.62c-1.09 1.65-2.85 2.49-4.59 3.25 2.02 2.37 4 5.01 3.83 8.3l-.84 4.87c-3.07 2.25-6.64 3.64-10.5 3.18l1.49-1.77c2.95-2.56 5.01-7.29 1.53-10.37-3.62-3.91-9.33-1.55-11.51 2.64l-.47.52c-4.42-2.41-9.38-2.68-14.21-1.46l-1.41.19-2.01.02c1.78-2.14 3.63-4.22 5.48-6.3 3.66.12 7.67.5 10.54-2.25m13.08 1.51c-2.61 1.33 1.33 3.52 2.5 1.68.97-1.45-1.45-2.36-2.5-1.68z"/><path fill="#483b2e" d="M220.65 101.36l2.31 1.92c2.27 1.83 5.1 2.7 7.97 3.02l1.2 1.52-.32 3.5-.18 2.08c-4.62-.95-7.18-4.97-10.09-8.24l-.89-3.8z"/><path fill="#4a4138" d="M249.72 103.12l6.09-1.93 2.51 3.29.23 4.31.8.63c1.58 1.03 3.25 1.9 4.97 2.68-2.88 5.32-6.41 10.23-10.05 15.05-1.17-.42-2.18-1.16-3.31-1.64-1.83-6.44 7.5-7.87 8.93-13.43l-1.57-.98c-3.48-2.1-6.97-4.21-10.73-5.8l-.7-3.63 2.83 1.45z"/><path fill="#665e56" opacity=".89" d="M313.81 111.15c5.34-4.66 11.77-7.63 18.27-10.29l2.06 3.1c-7.33.85-13.25 5.67-20.33 7.19z"/><path fill="#cfb9a3" d="M103.55 101.44c2.07.4 4.14.94 5.9 2.15l-4.33.59-1.57-2.74z"/><path fill="#927e67" d="M222.96 103.28c8.19.35 16.55 3.99 24.63 2.02 3.76 1.59 7.25 3.7 10.73 5.8-2.33 3.89-6.23 7.98-10.14 3.39l-.1 5.26-3.26.53-.9.14c.25-3.74.95-7.44 2.13-11-4.76-2.17-9.93-2.96-15.12-3.12-2.87-.32-5.7-1.19-7.97-3.02z"/><path fill="#af9c85" d="M218.02 104.8l.99.1c2.75 5.39 2.62 12.09 8.07 15.91l-2.39 2.75-4.97 5.75c-1.33.63-2.71 1.17-4.06 1.75-1.92-3.29-3.56-6.72-5.44-10.03l-.46-.56-3.02-1.36c3.31-3.3 9.24-6.22 7.18-11.83l3.69.34.41-2.82m-6.19 15.71c4.11-.08 8.22-.14 12.33-.01-1.13-1.45-2.32-2.86-3.52-4.26-3.53-.14-6.65 1.56-8.81 4.27z"/><path fill="#746451" d="M219.01 104.9l2.53.26c2.91 3.27 5.47 7.29 10.09 8.24l.18-2.08c2.84 2.86 7.37 3.16 9.05-1.08-1.87.47-3.7 1.09-5.55 1.61l-3.18-4.03-1.2-1.52c5.19.16 10.36.95 15.12 3.12-1.18 3.56-1.88 7.26-2.13 11-5.57.91-11.23.6-16.84.39-5.45-3.82-5.32-10.52-8.07-15.91z"/><path fill="#b7a695" d="M87.27 106.1c1.05-.68 3.47.23 2.5 1.68-1.17 1.84-5.11-.35-2.5-1.68z"/><path fill="#b0aab2" d="M232.13 107.82l3.18 4.03 5.55-1.61c-1.68 4.24-6.21 3.94-9.05 1.08l.32-3.5z"/><path fill="#837365" d="M76.27 113.87c2.18-4.19 7.89-6.55 11.51-2.64 3.48 3.08 1.42 7.81-1.53 10.37-4.93.04-9.66-2.27-9.98-7.73m3.86 3.59l4 1.37c1.74-1.99 1.51-4.5.79-6.86-3.17.14-5.21 2.28-4.79 5.49z"/><path d="M161.17 115.49c5.48-3.49 12.77-9.67 18.24-2.51-3.1.16-6.21.21-9.31.23l1.61 1.72-6.94-1.21c1.18 3.88 2.93 7.56 5.1 10.98l4.97-4.48c-3.12 5.04-1.01 10.79-.06 16.12-.66 5.08.39 11.22-3.65 15.11-1.42.4-2.85.76-4.28 1.13l5.33.85c2.87 10.35-11 11.49-17.78 9.07-1.46-3.06 2.01-4.84 3.8-6.67l-2.41-.63-1.57-4.22c.17-8.73-.16-17.47.72-26.18l.43-5.51c1.91-1.3 3.83-2.59 5.8-3.8zm-123.01-.43l6.85.2c4.55.39 9.12.26 13.67.05-.04 2.92-.18 5.85-.38 8.77-5.96 1.08-12.04.36-18.06.68l-2.26-.45.18-9.25zm189.25 44.45c-.81-2.45-3.76-4.79-2.16-7.47 7.54 7.75 7.16 20.37-.56 27.85l-.94-1.76c3.7-5.34 6.59-12.26 3.66-18.62zm-189.5 47.35l4.64-.8c5.23.16 10.46.13 15.7.2v.98 8.2c-3.68.77-7.37-.22-11.06-.21-3.02-.01-6.04.05-9.07.06l-.21-8.43zm155.25 8.98c3.63-1.85 7.74-2.19 11.75-2.15-2.31 4.78-7.78 4.82-11.75 2.15z" fill="#fff"/><path fill="#837564" d="M342.94 117.45c7.35-1.12 13.19-6.38 20.14-8.75-1.79 2.59-4.15 4.91-4.94 8.05l-.61 1.88 5.43.48 1.28 5.13c-2.06.2-4.17.13-6-.92-1.86-1.83-3.51-3.85-5.18-5.84l-6.99 3.38c-8.66 4.78-19.59 6.23-26.33 13.91l.54-1.61c-1 .33-1.99.67-2.97 1.04.14-1.74.22-3.49.17-5.23l6.84-3.16.3-2.02.34-2.28c.74 1.08 1.53 2.13 2.31 3.19 5.45-1.91 10.43-4.87 15.67-7.25z"/><path fill="#70604f" d="M258.32 111.1l1.57.98c-1.43 5.56-10.76 6.99-8.93 13.43-2.24-1.01-4.71-1.35-7.15-1.33l1.01-3.9 3.26-.53.1-5.26c3.91 4.59 7.81.5 10.14-3.39z"/><path fill="#d6c1b0" d="M61.59 112.93c4.83-1.22 9.79-.95 14.21 1.46.11-.13.35-.39.47-.52.32 5.46 5.05 7.77 9.98 7.73l-1.49 1.77c3.86.46 7.43-.93 10.5-3.18l.84-4.87c.4 1.25.87 2.49 1.34 3.72 2.64 1.05 4.98 2.7 6.82 4.87-14.63.36-29.28-.31-43.91-.2-.09-3.63.03-7.32 1.24-10.78m2.28 3.21c-1.17 7.55 6.82 8.23 12.23 6.99-1.02-6.28-6.54-8.01-12.23-6.99z"/><path fill="#fff4db" d="M80.13 117.46c-.42-3.21 1.62-5.35 4.79-5.49.72 2.36.95 4.87-.79 6.86l-4-1.37z"/><path fill="#8c8173" d="M328 118.87c-.9-2.41 1.21-4.81 2-7.04 1.96.39 4.18.25 5.9 1.4.53 2.24-.98 4.44-1.49 6.6-2.14-.2-4.39-.09-6.41-.96z"/><path fill="#020202" opacity=".78" d="M358.14 116.75c3.61-1.66 7.43-2.82 11.22-4.03-.85 1.93-1.8 3.81-2.66 5.74-.89 1.89-1.68 3.84-2.46 5.78l-1.28-5.13-5.43-.48.61-1.88z"/><path fill="#fefefe" d="M193.98 116.08c3.08-4.2 8.29-1.24 11.12 1.66-3.77.16-7.7.22-11.12-1.66z"/><path fill="#ebd5bd" d="M296.81 114.64c3.8-.25 7.61.28 11.32 1.1 2.88 3.59 4.34 8 6.14 12.18l-2.18 3.12 2.68.2c-3.84 2.59-7.54 6.05-12.56 5.49l-.12-2.48 1.67-2.07-2.3-5.63-4.5.29c-1.49-3.37-2.61-6.89-3.2-10.53a63.92 63.92 0 0 1 3.05-1.67z"/><path fill="#4e443b" d="M307.62 113.09c5 4.04 7.42 10.14 9.86 15.88.05 1.74-.03 3.49-.17 5.23a61.45 61.45 0 0 0-.93.38c-.63-2.24-1.25-4.49-2.11-6.66-1.8-4.18-3.26-8.59-6.14-12.18l-.51-2.65z"/><path fill="#1f1a16" d="M321.71 113.51l3.25 8-.34 2.28c-4.24-1.89-4.67-6.47-2.91-10.28z"/><path fill="#352c23" d="M150.29 115.51l1.92.37c.47 3.14 3.65 8.27-1.9 7.49l-.61-5.84.59-2.02z"/><path fill="#f6dfcc" d="M63.87 116.14c5.69-1.02 11.21.71 12.23 6.99-5.41 1.24-13.4.56-12.23-6.99z"/><path fill="#fdfdfe" d="M211.83 120.51c2.16-2.71 5.28-4.41 8.81-4.27l3.52 4.26c-4.11-.13-8.22-.07-12.33.01z"/><path fill="#50453c" d="M270.69 125.99c7.78-2.98 15.46-6.31 23.07-9.68.59 3.64 1.71 7.16 3.2 10.53l4.5-.29 2.3 5.63-1.67 2.07-2.82 3.46c-1.41-1.99-2.59-4.15-3.36-6.47l-2.6-8.01c-5.59-3.06-11.08-.16-15.3 3.69-2.45-.27-4.88-.65-7.32-.93z"/><path fill="#c6b0a6" d="M147.81 118.86l1.05 1.13-1.81 4.21 2.3.26a11.65 11.65 0 0 1-10-2.5l1.46-.65c2.41-.57 4.9-1.04 7-2.45z"/><path fill="#30281f" d="M174.63 123.91c1.56-1.99 3.28-3.85 5.16-5.56l4.97 2.21c-1.56 1.08-2.88 2.82-4.91 2.91l-3.96.36-1.26.08z"/><path opacity=".82" d="M346.07 120.86l6.99-3.38 5.18 5.84-.63 3.71c-4.33-.04-7.16-3.37-9.95-6.18-.4.01-1.19.01-1.59.01z"/><path d="M182.54 126.37c1.22-3.36 4.56-5.33 7.19-7.53 1.76 3.22 3.61 6.4 5.46 9.58 3.57 6.58 3.76 14.3 4.29 21.6l-5.54 3.39 2.67 1.43 1 2.31c-.97 1.45-1.81 2.97-2.64 4.5-5.3 2.55-11.17 3.27-16.99 2.76.9-6.11 3.19-11.97 3.32-18.19.14-6.66 2.58-13.19 1.24-19.85zm18.79 42.41c6.68-3.87 17.79.83 16.48 9.46 2.63.14 5.48.44 5.8 3.68l-.99 2.23-.69 2.3c-.61 2.39-1.11 4.82-1.44 7.27l-.64 4.47c-.3 1.6-.12 3.22.11 4.82-.15.16-.43.49-.58.66-1.25-1.04-2.43-2.16-3.62-3.26-1.83 2.9-3.58 5.84-5.3 8.8-5.86-4.4-6.52-12.46-6.43-19.22.33-5.49-2.01-11.31.71-16.47-1.18-1.55-2.38-3.09-3.41-4.74zm-90.31 86.66c1.91-5.44 8.61-5.6 13.26-7.33 4.37 6.49-3.95 9.98-8.41 12.86-1.58-1.88-3.18-3.74-4.85-5.53z" fill="#fffffd"/><path fill="#a68f7d" d="M199.96 126.09l6.78-6.98 3.02 1.36.46.56c-2.82 2.02-5.6 4.47-5.79 8.22l-4.65.03.18-3.19z"/><path fill="#231e19" d="M227.08 120.81c5.61.21 11.27.52 16.84-.39l.9-.14-1.01 3.9c-6.38.45-12.81.52-19.12-.62l2.39-2.75z"/><path fill="#b7a389" d="M278.01 126.92c4.22-3.85 9.71-6.75 15.3-3.69l2.6 8.01-7.88-2.06-.56 1.45c-1.82 4.65-4.92 8.7-6.71 13.34.27 4.66 1.09 9.29.91 13.98-3.63.14-7.26.15-10.88-.04a151.38 151.38 0 0 0-13.97-.04c7.78-4.44 17.16 2.58 24.04-3.96-.75-2.14-1.59-4.27-2.37-6.41-7.15-1.39-14.39-2.34-21.68-2.62l5.44 2.86c-2.62 1.11-5.32 2.33-7.03 4.71l-1.42-5.11-3.57 1.09.77-6.67 8.02 1.96-1.11-3.37c6.58.04 13.16-.13 19.72-.66l-2.84-6.35c1.37-.3 2.72-.66 4.08-1.01l-.86-5.41z"/><path fill="#a38d78" d="M121.95 123.56c2.24-.92 4.61-.61 6.89-.08l.79 1.99c-7.12.63-13.48 4.78-20.77 4.57-.37.26-.74.53-1.09.82-6.97-2.68-11.54 3.55-17.62 5.3l-.79-5.29c-2.21-.9-4.4-1.84-6.55-2.87l3.4-2.1c11.55.69 23.12.63 34.68.44l1.06-2.78z"/><path fill="#fce8cb" d="M136.18 123.45l3.17-1.49a11.65 11.65 0 0 0 10 2.5l2.9-.1 1.2 3.74 1.49-3.3c-.88 8.71-.55 17.45-.72 26.18l-1.38-3.61-10.71-.02-1.11-.2c-.71-1.6-1.39-3.23-2.01-4.87 4.74 5.26 14.09 2.25 12.65-5.52l1.16 1.1c-.14-3.53.42-7.29-1.13-10.59-3.2-.73-6.55-.13-9.79-.68-.17 2.1-.27 4.22-.25 6.33a138.91 138.91 0 0 1-2.67 3.33c-.05-2.36-.21-4.7-.37-7.05-4.88-.88-10.11-.97-14.35 2l3.81 3.81-5.66-.27-1.18-3.63c-1.48 1.91-2.86 3.95-4.69 5.55-2.66.62-5.94-.43-7.76 2.19 4.69 4.14 12.61 1.62 15.67 7.7-1.79.32-3.55.72-5.34.97l-2.37-.23c-1.71-.16-3.43-.21-5.14-.25-.43 11.75.84 23.76-.89 35.34.17-11.43-1.96-22.8-.67-34.2l-2.72-.03-.88-.01c-.98 0-2.94-.01-3.93-.01l-.03-1.24c1.64-.93 3.34-1.75 5.03-2.58.4-3.46.63-6.94.74-10.42 5.09 2.28 9.23-2.35 13.63-4.13 4.77-2.59 10.26-2.99 15.58-2.74l-1.28-3.57m2.44.68c-1.06 1.25.98 3.32 2.24 2.24 1.13-1.26-.98-3.38-2.24-2.24z"/><path fill="#3e372f" d="M58.3 124.08l2.05-.37 43.91.2c5.9-.28 11.8-.17 17.69-.35l-1.06 2.78c-11.56.19-23.13.25-34.68-.44-1.42-.03-2.83-.02-4.24.01-6.36.62-12.98-1.33-19.09 1.1l-3.07-.15c-2.56-.18-5.12-.45-7.7-.54-3.97-.21-8.39.95-11.87-1.56 6.02-.32 12.1.4 18.06-.68z"/><path fill="#cab39c" d="M128.84 123.48c2.43.34 4.9.25 7.34-.03l1.28 3.57c-5.32-.25-10.81.15-15.58 2.74-4.4 1.78-8.54 6.41-13.63 4.13-.11 3.48-.34 6.96-.74 10.42-1.69.83-3.39 1.65-5.03 2.58l.03 1.24c1.24 10.05.86 20.18-.04 30.24-1.55-6.71-1.81-13.66-1.61-20.53.48-3.35 2.58-8.88-1.97-10.18l-.37-1.47 5.61-1.97 1.64-.46-1.43-2.59 2.52-.83-.35-7c-2.06.18-4.19.22-6.09 1.1-2.09 3.49 1.02 6.95 2.53 9.97-4.43-.7-7.4-4.23-10.82-6.76-3.63.94-7.24 2.09-10.41 4.13a399.96 399.96 0 0 1 .25-15.87c1.41-.03 2.82-.04 4.24-.01l-3.4 2.1c2.15 1.03 4.34 1.97 6.55 2.87l.79 5.29c6.08-1.75 10.65-7.98 17.62-5.3.35-.29.72-.56 1.09-.82 7.29.21 13.65-3.94 20.77-4.57l-.79-1.99z"/><path fill="#8c7763" d="M219.72 129.31l4.97-5.75c6.31 1.14 12.74 1.07 19.12.62 2.44-.02 4.91.32 7.15 1.33 1.13.48 2.14 1.22 3.31 1.64l3.01.26-1.4.51-3.06.02-1.8-.07.52 10.81 6.37 1.67 1.11 3.37-8.02-1.96-.77 6.67c-2.14.81-4.2 1.8-6.26 2.77a82.2 82.2 0 0 1-2.81-.65c-.94 1.55-1.77 3.16-2.68 4.72-2.62.46-4.58-1.22-6.28-2.98l-.25 2.79c-1.31-1.84-2.29-3.87-3.22-5.92l5.3-.75c-3.42-.24-6.85-.43-10.28-.54.5 1.39.95 2.8 1.5 4.17-1.6 2.68 1.35 5.02 2.16 7.47 2.93 6.36.04 13.28-3.66 18.62-1.98-3.39-2.61-7.3-3.24-11.12-14.36.78-28.7-.57-43.06-.2a48.65 48.65 0 0 0 2.29 10.12 31.16 31.16 0 0 1 1.58 8.87l-.55 2.4c-4.79-5.56-3.41-13.72-7.08-19.95l-6.9-.51c-4.3-.36-8.62-.14-12.91.12-.48 4.16-.53 8.35-.35 12.53a75.17 75.17 0 0 1-1.54 4.11l-4.62-.42c-.35-11.78.77-23.66-.62-35.37-.35 11.68-.47 23.38-.25 35.07l-7.76.19c-.13-11.75.78-23.65-.97-35.3-.61 11.91-1.37 23.89-.4 35.8l-3.19-.43c.23-12.02.88-24.13-.36-36.11 2.76-.22 5.53-.48 8.31-.58l10.71.02 1.38 3.61c.49 1.42 1.03 2.81 1.57 4.22l-2.82-.75.22 9.95c6.71-1.22 13.81.33 20.3-1.94 1.72-3.24 1.71-7.01 2.06-10.57l2.24-.51a83.75 83.75 0 0 0 0-3.17l-.12-2.23 3.3-1.89.33 2.13c-.13 6.22-2.42 12.08-3.32 18.19 5.82.51 11.69-.21 16.99-2.76l5.13-1.97-1.16 4.73c7.03.96 14.13.53 21.2.56.86-3.32 1.64-6.66 2.28-10.03.66-2.94.8-5.99.11-8.93l2.03-1.43.19 2.69c2.99.03 5.99-.02 8.99-.23l1.73-.1c-1.63-7.39-4.71-15.21.03-22.17-4.89-.96-9.74.33-12.57 4.6-1.05 1.01-2.15 1.97-3.24 2.93l.03-2.99M140.89 154c-.18 9.66-.27 19.4 1.04 29 2.97-10.98 1.32-23.06 1.07-34.43-2.35.78-1.89 3.48-2.11 5.43z"/><path fill="#d7c0ae" d="M138.62 124.13c1.26-1.14 3.37.98 2.24 2.24-1.26 1.08-3.3-.99-2.24-2.24z"/><path fill="#feeecb" d="M175.89 123.83l3.96-.36c.94 5.18.54 10.45-.55 15.57-2.42-4.7-1.99-10.21-3.41-15.21z"/><path fill="#f0d4b9" d="M195.19 128.42l4.82-3.18-.05.85-.18 3.19 4.65-.03 1.91 5.56-2.27 2.28-.43-4.22c-4.63 5.3.06 12.43-2.06 18.56l-2.65.92.46 2.84c-.61.64-1.2 1.3-1.78 1.96l-1-2.31-2.67-1.43 5.54-3.39c-.53-7.3-.72-15.02-4.29-21.6z"/><path fill="#c2ad92" d="M222.93 129.37c2.83-4.27 7.68-5.56 12.57-4.6-4.74 6.96-1.66 14.78-.03 22.17l-1.73.1c-2.03-6.57-6.13-12.69-10.81-17.67z"/><path fill="#9e8a77" d="M62.88 127.01c6.11-2.43 12.73-.48 19.09-1.1a399.96 399.96 0 0 0-.25 15.87c3.17-2.04 6.78-3.19 10.41-4.13 3.42 2.53 6.39 6.06 10.82 6.76l1.18-.19c-1.89.61-3.75 1.3-5.61 1.97.1.37.28 1.1.37 1.47l-1.47-.23c-2.14-.22-4.29-.33-6.44-.31l2.56-2.53c-1.87-1.23-3.86-2.26-5.91-3.14l1.13 3.54-5.92.24-1.35-.76-.13-7.16c-.12-2.98-.37-5.95-.65-8.91-5.97.23-12.07.54-17.83-1.39z"/><path fill="#fffff7" d="M141.9 126.59c3.24.55 6.59-.05 9.79.68 1.55 3.3.99 7.06 1.13 10.59l-1.16-1.1c-2.47-3.06-6.1-4.5-10.01-3.84-.02-2.11.08-4.23.25-6.33z"/><path fill="#d2bca1" d="M257.28 127.41c4.42-.89 8.95-.91 13.41-1.42l7.32.93.86 5.41-4.08 1.01c-6.28-1.68-12.61-3.58-18.91-5.42l1.4-.51z"/><path opacity=".88" d="M59.81 126.86l3.07.15c5.76 1.93 11.86 1.62 17.83 1.39.28 2.96.53 5.93.65 8.91-5.32.15-10.7.43-15.95-.68l-6.31-1.34.71-8.43z"/><path fill="#fffee9" d="M124.26 131.2c4.24-2.97 9.47-2.88 14.35-2 .16 2.35.32 4.69.37 7.05l.03 6.03c.62 1.64 1.3 3.27 2.01 4.87-1.91-.65-3.78-1.44-5.65-2.21l-.16 1.99c-3.58-.36-7.18-.78-10.76-.38-3.06-6.08-10.98-3.56-15.67-7.7 1.82-2.62 5.1-1.57 7.76-2.19 1.83-1.6 3.21-3.64 4.69-5.55l1.18 3.63 5.66.27-3.81-3.81z"/><path fill="#c9b293" d="M251.02 127.87l1.8.07c2.83 3.59 4.02 8.05 5.09 12.41l-6.37-1.67-.52-10.81z"/><path fill="#eed5b6" d="M252.82 127.94l3.06-.02 18.91 5.42 2.84 6.35c-6.56.53-13.14.7-19.72.66-1.07-4.36-2.26-8.82-5.09-12.41z"/><path fill="#b19982" d="M314.27 127.92c.86 2.17 1.48 4.42 2.11 6.66l.93-.38 2.97-1.04-.54 1.61c-.88.88-1.95 1.56-2.96 2.29l-1.32 3.31c-3 1.3-6.57 1.96-8.71 4.64l-1.01-1.82-2.53-4.77-2.75 1-1.19-1.71 2.82-3.46.12 2.48c5.02.56 8.72-2.9 12.56-5.49l-2.68-.2 2.18-3.12z"/><path fill="#8c7c6d" d="M288.03 129.18l7.88 2.06c.77 2.32 1.95 4.48 3.36 6.47l1.19 1.71 2.75-1 2.53 4.77c-4.86-1.52-9.97-1.9-14.97-2.67l-.04 4.31c-3.41-3.96-3.44-9.27-3.26-14.2l.56-1.45z"/><path fill="#e0c7a8" d="M222.93 129.37c4.68 4.98 8.78 11.1 10.81 17.67-3 .21-6 .26-8.99.23l-.19-2.69-2.03 1.43c-1.31-4.48-2.85-8.98-2.84-13.71 1.09-.96 2.19-1.92 3.24-2.93z"/><path fill="#41352b" d="M287.47 130.63c-.18 4.93-.15 10.24 3.26 14.2l.98 1.56c.61 2.28 1.08 4.6 1.54 6.92 2.84-.27 5.66-.82 8.52-.76 1.7 1.54 2.15 4.13 3.32 6.1l-5.58 1.74c-6.09.69-12.21-.26-18.31-.21l.18 2.34-2.71-.75c-.51 1.12-1.03 2.24-1.49 3.38l-.16-2.32c-.96-2.19-3.41-2.36-5.43-2.84l-.8-2.08c3.62.19 7.25.18 10.88.04.18-4.69-.64-9.32-.91-13.98 1.79-4.64 4.89-8.69 6.71-13.34m-.93 27.21c3.71.52 7.48.7 11.21.21-2.71-2.83-9.17-4.68-11.21-.21z"/><path fill="#f2d9c2" d="M100.42 134.44c1.9-.88 4.03-.92 6.09-1.1l.35 7-2.52.83 1.43 2.59-1.64.46-1.18.19c-1.51-3.02-4.62-6.48-2.53-9.97z"/><path fill="#968675" d="M141.65 132.92c3.91-.66 7.54.78 10.01 3.84 1.44 7.77-7.91 10.78-12.65 5.52-.06-2.01-.01-4.02-.03-6.03a138.91 138.91 0 0 0 2.67-3.33m1.51 8.81l3.67.01c.5-1.95 1.26-5.41-1.83-5.26-3.24-.29-2.49 3.26-1.84 5.25z"/><path fill="#b3a396" d="M201.58 151.43c2.12-6.13-2.57-13.26 2.06-18.56.17 1.4.31 2.81.43 4.22.44 6.13.1 12.28-.61 18.38l4.29 1.9c-2.78 1.54-5.37 3.49-7.08 6.22 7.96.51 17.42-1.15 21.75-8.65-.64 3.37-1.42 6.71-2.28 10.03-7.07-.03-14.17.4-21.2-.56l1.16-4.73-5.13 1.97c.83-1.53 1.67-3.05 2.64-4.5.58-.66 1.17-1.32 1.78-1.96l-.46-2.84 2.65-.92z"/><path d="M143.16 141.73c-.65-1.99-1.4-5.54 1.84-5.25 3.09-.15 2.33 3.31 1.83 5.26l-3.67-.01zm3.09 53.11c-5.15.71-6.15-5.92-1.11-6.92 2.35 1.9 2.56 4.36 1.11 6.92z" fill="#fffffa"/><path fill="#ebd1b5" d="M171.13 151.45c4.04-3.89 2.99-10.03 3.65-15.11.82 3.26 1.96 6.42 2.89 9.64l.12 2.23c-1.56 2.15-4.31 2.51-6.66 3.24z"/><path fill="#edd5bb" d="M290.77 140.52c5 .77 10.11 1.15 14.97 2.67l1.01 1.82c-1.26 2.48-3.73 3.01-6.32 2.76-2.82-.92-5.77-1.33-8.72-1.38l-.98-1.56.04-4.31z"/><path fill="#73655b" opacity=".89" d="M87.63 141.45c2.05.88 4.04 1.91 5.91 3.14l-2.56 2.53c-3.94.37-7.89.64-11.85.47 2.07-.3 4.15-.52 6.23-.8l-2.52-1.56c1.97-.04 3.95-.14 5.92-.24l-1.13-3.54z"/><path fill="#f9e2d6" d="M135.37 144.94l5.65 2.21 1.11.2-8.31.58c1.24 11.98.59 24.09.36 36.11l3.19.43c-.97-11.91-.21-23.89.4-35.8 1.75 11.65.84 23.55.97 35.3-.89 1.28-1.86 2.5-2.84 3.72l-.86-2.2-6.79-1.16c.41-12.21-.23-24.42.02-36.63l-2.94.1-.08 36.01-2.43 3.19c-2.97-.56-6.09-1.58-9.07-.5-1.04.45-2.06.94-3.07 1.46 1.74-2.73 4.08-5.49 3.83-8.93-.14-10.34-.14-20.69.18-31.03l-3.09-.96c1.71.04 3.43.09 5.14.25-2.13 12.13.86 24.45-.48 36.69l3.12.54c-.29-12.34-.36-24.66-.27-37 1.79-.25 3.55-.65 5.34-.97 3.58-.4 7.18.02 10.76.38l.16-1.99m-14.47 3.21l-.3 36.16 3.08-.61c-.67-12.11.17-24.24-.28-36.35l-2.5.8m8.84-.54l-.1 36.4h2.99c-.49-11.99-.38-24.02.03-36.02l-2.92-.38z"/><path fill="#f2dcc7" d="M79.13 147.59c3.96.17 7.91-.1 11.85-.47 2.15-.02 4.3.09 6.44.31 1.32 2.55 2.65 5.57.48 8.09-4.73-.65-9.49-1.07-14.27-1.12l.12 2.82a240.95 240.95 0 0 0-4.66.02c.11-3.22.14-6.44.04-9.65z"/><path fill="#faf5f8" d="M250.23 148.43l3.57-1.09 1.42 5.11-1.47 3.22-2.63-2.55.81 4.97h-3.75c-1.11-1.4-2.53-2.49-4.05-3.4l-.16-3.49 6.26-2.77z"/><path fill="#615954" d="M291.71 146.39c2.95.05 5.9.46 8.72 1.38l4.93 2.67-.27 8.21c-1.17-1.97-1.62-4.56-3.32-6.1-2.86-.06-5.68.49-8.52.76l-1.54-6.92z"/><path fill="#9b8571" d="M75.44 148.13l3.69-.54-.04 9.65c-.58 0-1.74 0-2.32-.01l-1.39-.12.06-8.98z"/><path fill="#44362c" d="M97.42 147.43l1.47.23c4.55 1.3 2.45 6.83 1.97 10.18-.38 1.02-.8 2.02-1.21 3.03l-1.18-3.63c-1.52 1.96-2.81 4.1-3.68 6.45l-2.1-5.03c-5.34-.05-10.65-.63-15.92-1.43l2.32.01 4.66-.02c4.29.01 8.59.25 12.88.01l1.27-1.71c2.17-2.52.84-5.54-.48-8.09z"/><path fill="#746251" d="M102.51 148.13l3.93.01c-1.23 10.78-1.42 21.63-.39 32.43-3.16.04-6.32.53-9.23 1.8-3.14-1.23-7.22.73-6.66 4.48-2.57 2.03-3.92 5.06-4.71 8.17l-3.12-7.46-.78-1.99c2.29-.2 4.59-.41 6.87-.76-4.28-1.23-8.76-1.13-13.17-1.18v-9.38l3.96-.02.01.71-3.41.23.33 7.6 3.14.49c7.07 1.25 12.41-4.37 18.71-6.41l-1.46-2.34-4.17-.09c.1-5.25-.02-10.51.33-15.76.73 1.66 1.42 3.34 2.1 5.03.87-2.35 2.16-4.49 3.68-6.45l1.18 3.63 1.21-3.03c-.2 6.87.06 13.82 1.61 20.53.9-10.06 1.28-20.19.04-30.24z"/><path fill="#cbb49f" d="M106.44 148.14l.88.01c1.05 10.73 1.96 21.61.2 32.32l-1.47.1c-1.03-10.8-.84-21.65.39-32.43z"/><path fill="#383333" d="M107.32 148.15l2.72.03c-1.29 11.4.84 22.77.67 34.2-2.41 2.04-3.28 4.75-2.77 7.88l-.02.69c-.34.34-1 1.04-1.33 1.39-.98-2.01-1.7-4.13-2.15-6.32l-8.49.3c-.87 2.72-1.61 5.47-2.29 8.25l4.09.31-1.73 2.48c-3.58-.24-7.76.45-10.57-2.34.79-3.11 2.14-6.14 4.71-8.17 2.25-1.45 4.46-2.96 6.66-4.48 2.91-1.27 6.07-1.76 9.23-1.8l1.47-.1c1.76-10.71.85-21.59-.2-32.32z"/><path fill="#695c50" d="M111.6 147.04l3.09.96c-.32 10.34-.32 20.69-.18 31.03.25 3.44-2.09 6.2-3.83 8.93l-2.74 2.3c-.51-3.13.36-5.84 2.77-7.88 1.73-11.58.46-23.59.89-35.34z"/><path fill="#927d64" d="M116.26 183.98c1.34-12.24-1.65-24.56.48-36.69l2.37.23c-.09 12.34-.02 24.66.27 37l-3.12-.54z"/><path fill="#89755f" d="M120.9 148.15l2.5-.8c.45 12.11-.39 24.24.28 36.35l-3.08.61.3-36.16z"/><path fill="#947c66" d="M125.33 147.8l2.94-.1c-.25 12.21.39 24.42-.02 36.63l-3-.52.08-36.01z"/><path fill="#98816a" d="M129.74 147.61l2.92.38c-.41 12-.52 24.03-.03 36.02h-2.99c-.24-12.13-.03-24.27.1-36.4z"/><path fill="#b5b3ba" d="M171.13 151.45c2.35-.73 5.1-1.09 6.66-3.24v3.17l-2.24.51c-.35 3.56-.34 7.33-2.06 10.57-6.49 2.27-13.59.72-20.3 1.94l-.22-9.95 2.82.75 2.41.63c-1.79 1.83-5.26 3.61-3.8 6.67 6.78 2.42 20.65 1.28 17.78-9.07l-5.33-.85 4.28-1.13z"/><path fill="#4b4955" d="M223.75 147.87c3.43.11 6.86.3 10.28.54l-5.3.75c.93 2.05 1.91 4.08 3.22 5.92 5.28 5.64 5.45 15.49.47 21.35-1.52 2.07-2.83 4.28-4.07 6.52l6.71.6-12.44.6.99-2.23c.34-.68.69-1.36 1.08-2.03 7.72-7.48 8.1-20.1.56-27.85-.55-1.37-1-2.78-1.5-4.17z"/><path fill="#d5c1b3" d="M140.89 154c.22-1.95-.24-4.65 2.11-5.43.25 11.37 1.9 23.45-1.07 34.43-1.31-9.6-1.22-19.34-1.04-29z"/><path fill="#ccbbb2" d="M241.16 150.55l2.81.65.16 3.49c1.52.91 2.94 2 4.05 3.4l.52 3.87c.11 2.48.04 4.97-.05 7.45l-.27 5.66 8.49-.16c.13 3.93-.27 9.1 3.57 11.46 7.03 1.24 14.1-.83 20.5-3.65l-.19 2.47-.08.88c-9.31.15-19.02 3.41-28.08.31 1.08-2.69 1.43-5.58 1.63-8.45-4.66.75-10.34-1.41-13.87 2.74-.62-1.4-1.14-2.85-1.68-4.27-.35.66-.69 1.33-1.02 2.01l-5.23-1.98c4.98-5.86 4.81-15.71-.47-21.35l.25-2.79c1.7 1.76 3.66 3.44 6.28 2.98l2.68-4.72m-2.36 7.49c.14 5.69-.04 11.38.32 17.06a11.32 11.32 0 0 0 3.18-.72c.5-5.17-.74-10.54 1.12-15.55 1.35 5.2 1 10.59.78 15.9l2.73-.01c-.91-5.53-1.18-11.18.05-16.69l-8.18.01z"/><path fill="#fdf8f6" d="M272.39 152.87c.98-1.78 2.75-2.66 4.6-3.3l-.22 4.69-4.38-1.39z"/><path fill="#b5a08c" d="M83.63 154.4c4.78.05 9.54.47 14.27 1.12-.31.43-.95 1.28-1.27 1.71-4.29.24-8.59 0-12.88-.01l-.12-2.82z"/><path fill="#766054" d="M286.54 157.84c2.04-4.47 8.5-2.62 11.21.21-3.73.49-7.5.31-11.21-.21z"/><path fill="#6d5645" d="M238.8 158.04l8.18-.01c-1.23 5.51-.96 11.16-.05 16.69l-2.73.01c.22-5.31.57-10.7-.78-15.9-1.86 5.01-.62 10.38-1.12 15.55a11.32 11.32 0 0 1-3.18.72c-.36-5.68-.18-11.37-.32-17.06z"/><path fill="#5d4e44" d="M248.18 158.09h3.75l4.89-.22a151.38 151.38 0 0 1 13.97.04l.8 2.08c2.02.48 4.47.65 5.43 2.84-9.44-.44-18.86-1.71-28.32-.87-.12-1.3-.31-2.59-.52-3.87z"/><path fill="#87796c" d="M281.2 160.18c6.1-.05 12.22.9 18.31.21l.75 6.69.09.57c2.78.18 5.57.21 8.36.36l4.51 1.83c-4.3.87-11.08-2.45-13.37 2.48l-.82 1.21c-3.27.28-6.57.25-9.83.65-5.78.01-8.62 5.97-7.41 11.08l-1.04-.07.19-2.47-.01-.8c-.03-2.13-.08-4.25-.25-6.37l-1.25-.17c2.49-3.85 2.44-8.48 1.95-12.86l-.18-2.34z"/><path fill="#978373" d="M248.7 161.96c9.46-.84 18.88.43 28.32.87l.16 2.32-.66 5.75-2.17-2.11c-8.34 1.94-17.36 3.17-25.7.62.09-2.48.16-4.97.05-7.45m1.48 3.47l.92 3.02c5.85-.33 11.73-.1 17.58.27l2.15-2.29c-6.15-4.32-13.95-3.08-20.65-1z"/><path fill="#5d4f43" d="M277.18 165.15l1.49-3.38 2.71.75c.49 4.38.54 9.01-1.95 12.86-3.93-.44-7.88-.59-11.82-.66-3.59-.05-7.17 0-10.74.19-2.83.17-5.66.21-8.49.16l.27-5.66c8.34 2.55 17.36 1.32 25.7-.62l2.17 2.11.66-5.75z"/><path fill="#c9b398" d="M250.18 165.43c6.7-2.08 14.5-3.32 20.65 1l-2.15 2.29c-5.85-.37-11.73-.6-17.58-.27l-.92-3.02z"/><path fill="#b39e97" d="M177.45 166.81c14.36-.37 28.7.98 43.06.2.63 3.82 1.26 7.73 3.24 11.12l.94 1.76c-.39.67-.74 1.35-1.08 2.03-.32-3.24-3.17-3.54-5.8-3.68 1.31-8.63-9.8-13.33-16.48-9.46 1.03 1.65 2.23 3.19 3.41 4.74-2.72 5.16-.38 10.98-.71 16.47-.09 6.76.57 14.82 6.43 19.22 1.72-2.96 3.47-5.9 5.3-8.8 1.19 1.1 2.37 2.22 3.62 3.26 1.82.89 3.7 1.63 5.52 2.51l-1.09 5.09c-4.35 1.21-8.81-1.9-12.84.36-2.67-1.74-4.74-4.19-6.57-6.75l-4.04.52 3.12 3.64c-2.95 3.16-7.48 2.73-10.39-.22l.72 3.45-3.25-.74c1.41-2.96 2.91-5.89 4.53-8.74l3.46 1.9c.12-7.61 5.55-15.33 1.95-22.72a31.1 31.1 0 0 1 1.58-2.51l-3.81.29c-1.16-.28-2.31-.59-3.46-.91l5.47-1.32c-3.78-7.85-12.76-10.86-20.99-10.05.02 2.68 1.52 4.84 3.27 6.72l-2.82 2.74a48.65 48.65 0 0 1-2.29-10.12z"/><path fill="#444346" opacity=".6" d="M300.26 167.08l41.62.26.32 2.73H339l2.5-2.11c-9.01-.71-18.06.17-27.09.19l-5.7-.14-8.36-.36-.09-.57z"/><path fill="#cab7a3" d="M166.79 167.74l6.9.51c3.67 6.23 2.29 14.39 7.08 19.95l.55-2.4.37 5.17-.83 1.19-3.32.23c-1.2 4.88-3.2 10.13-.85 15.01l4.6-.04-7.38.24c2.86 3.03 5.63 6.14 8.22 9.4-2.5 2.92-5.1 5.74-7.82 8.45l-2.15-1.83-1.32-1.08c3.22-.26 6.2-1.5 8.34-3.97-2.99-.95-6.01-1.82-9.08-2.46l-1.19 5.04c-3.29-1.77-6.54-3.66-9.25-6.27 1.99.12 3.96.38 5.92.7 1.94-3.41 3.57-7.11 6.61-9.71 1.42-8.82 7.28-21.29-3.2-26.92l6.43.76c.99-5.9-4-9.62-8.63-11.97z"/><path fill="#fffff9" d="M179.29 167.47c8.23-.81 17.21 2.2 20.99 10.05l-5.47 1.32 3.46.91c-1.71 7.65 1.8 16.2-3.18 23.04-1.62 2.85-3.12 5.78-4.53 8.74-1.89-.44-3.75-.96-5.59-1.55l-2.77-2.64c-.01-3.33.59-6.62 1.82-9.72-1.13-2.08-2.09-4.27-2.33-6.65-.15-1.72-.25-3.44-.37-5.17a31.16 31.16 0 0 0-1.58-8.87l2.82-2.74c-1.75-1.88-3.25-4.04-3.27-6.72z"/><path fill="#9f9ca6" opacity=".95" d="M308.71 168.01l5.7.14c6.1 1.98 12.57.72 18.82 1.7-1.55-.03-3.09 0-4.64.01-5.12-.07-10.25.15-15.37-.02-1.52-.58-3-1.24-4.51-1.83z"/><path fill="#e9e6ee" opacity=".96" d="M314.41 168.15c9.03-.02 18.08-.9 27.09-.19l-2.5 2.11c-1.93-.02-3.85-.11-5.77-.22-6.25-.98-12.72.28-18.82-1.7z"/><path fill="#0d0c0d" opacity=".8" d="M299.85 172.32c2.29-4.93 9.07-1.61 13.37-2.48 5.12.17 10.25-.05 15.37.02-1.59 1.3-3.36 2.61-5.54 2.39-7.73-.03-15.47-.22-23.2.07z"/><path fill="#f1dabf" d="M79.21 174.23l13.15.19 4.17.09 1.46 2.34c-6.3 2.04-11.64 7.66-18.71 6.41l-.06-8.32-.01-.71z"/><path fill="#4a3e32" d="M281.79 185.26c-1.21-5.11 1.63-11.07 7.41-11.08 4.8 2.69 10.48 1.06 15.69 1.89l.12 1.43-2.26 1.57-.41 5.16c-2.51-1.46-4.85-4.47-8-3.86-1.92 1.49-3.39 3.45-4.88 5.36l-7.67-.47z"/><path fill="#97836e" d="M75.81 175.17l3.41-.23.06 8.32-3.14-.49-.33-7.6z"/><path fill="#f3dabf" d="M256.87 174.91c3.57-.19 7.15-.24 10.74-.19.63.91 1.29 1.8 2 2.67 4.21.12 8.54 1.1 11.32 4.53l.01.8c-6.4 2.82-13.47 4.89-20.5 3.65-3.84-2.36-3.44-7.53-3.57-11.46z"/><path fill="#c4ad98" d="M267.61 174.72c3.94.07 7.89.22 11.82.66l1.25.17c.17 2.12.22 4.24.25 6.37-2.78-3.43-7.11-4.41-11.32-4.53-.71-.87-1.37-1.76-2-2.67z"/><path fill="#9d897c" d="M228.35 182.95c1.24-2.24 2.55-4.45 4.07-6.52l5.23 1.98 1.02-2.01 1.68 4.27c2.29 1.28 4.72 2.31 7.17 3.25-4.55.99-9.23.9-13.85.7-2.82-.06-5.67.09-8.4.85-1.12.31-2.23.65-3.34.98l.69-2.3 12.44-.6-6.71-.6z"/><path fill="#fdfcfc" d="M240.35 180.67c3.53-4.15 9.21-1.99 13.87-2.74-.2 2.87-.55 5.76-1.63 8.45l.43-2.73c-1.83.14-3.66.3-5.5.27-2.45-.94-4.88-1.97-7.17-3.25z"/><path fill="#7f6d5f" d="M302.75 179.07l2.26-1.57c.75 5.84 1.75 12.04-2.64 16.78l-8.11 2.74c2.12 3.45 4.52 6.72 7.42 9.55a25.31 25.31 0 0 1-.36.54c-2.06.68-4.02 1.66-5.55 3.22-1.32-2.57-1.24-5.43-.16-8.06-2.83.95-5.69 1.84-8.55 2.7l-.69-1.59c.49-5.93-.89-12.59 3.09-17.65 1.49-1.91 2.96-3.87 4.88-5.36 3.15-.61 5.49 2.4 8 3.86l.41-5.16m-13.29 7.63l.69 3.95c4.95-.42 9.9-.89 14.78-1.86l.15-3.84c-5.27-.45-10.52.54-15.62 1.75z"/><path fill="#edd3b7" d="M198.27 179.75l3.81-.29a31.1 31.1 0 0 0-1.58 2.51c3.6 7.39-1.83 15.11-1.95 22.72l-3.46-1.9c4.98-6.84 1.47-15.39 3.18-23.04z"/><path fill="#d5bea0" d="M153.53 180.39c2.84 5.58-.42 11.74.19 17.6.12 6.18 4.11 11.2 5.94 16.89a31.32 31.32 0 0 1-6.24-6.61l-3.66-.18-3.04-.14 5.16-1.25c.73-4.29.76-8.7-.52-12.89-.4-1.78-.73-3.58-.8-5.39.43-1.33.9-2.63 1.43-3.92a75.17 75.17 0 0 0 1.54-4.11z"/><path fill="#e0dce3" d="M90.16 186.85c-.56-3.75 3.52-5.71 6.66-4.48l-6.66 4.48z"/><path fill="#cbb297" d="M247.52 183.92c1.84.03 3.67-.13 5.5-.27l-.43 2.73-2.24 5.72-6.01-5.62c-3.34 1.64-8.36 2.46-8.83 6.93-.7 4.94-1.55 9.94-4.3 14.23-2.14-.31-4.23-.9-6.31-1.46 3.26-.78 6.88-3.4 5.04-7.14-1.64-3.03 1.71-4.73 3.52-6.58l.21-7.84c4.62.2 9.3.29 13.85-.7z"/><path fill="#fce4c7" d="M225.27 185.47c2.73-.76 5.58-.91 8.4-.85l-.21 7.84c-1.81 1.85-5.16 3.55-3.52 6.58 1.84 3.74-1.78 6.36-5.04 7.14l-5.52-2.51.58-.66c2.64-.92 2.31-3.85-.11-4.82l.64-4.47.37 3.44c2.81-3.31 7.14-6.93 4.41-11.69z"/><path fill="#070607" opacity=".87" d="M280.75 185.19l1.04.07 7.67.47c-3.98 5.06-2.6 11.72-3.09 17.65l-.72-1.57c-2.45-5.01-6.69-9.73-4.98-15.74l.08-.88z"/><path fill="#e6ceb6" d="M289.46 186.7c5.1-1.21 10.35-2.2 15.62-1.75l-.15 3.84c-4.88.97-9.83 1.44-14.78 1.86l-.69-3.95z"/><path fill="#82776c" d="M81.39 204.39c.03-6.27-.1-12.55.16-18.82l.78 1.99c-.33 5.38-.51 10.75-.3 16.14 1.39-1.51 2.71-5.81 4.66-2.58 2.88 4.46 8.39 3.75 12.98 3.76l1.99-2.58 1.29 2.42 6.12 1.22-1.27 1.31c-2.21-.07-4.42-.13-6.63-.1-4.77-.07-9.53.06-14.3 0-3.31-.1-6.62.01-9.93.06-6.23.01-12.47-.7-18.69.03v-.98c7.66-1.22 15.3-2.69 23.14-1.87z"/><path fill="#504b4d" d="M95.95 186.32l8.49-.3c.45 2.19 1.17 4.31 2.15 6.32l-.71.6c-3.1 1.85-6.48 3.16-9.86 4.42l1.73-2.48-4.09-.31c.68-2.78 1.42-5.53 2.29-8.25m-.15 6.73c1.87.41 3.79.49 5.68.16.11-2.21-.74-4.11-2.41-5.53-1.68 1.39-2.95 3.16-3.27 5.37z"/><path fill="#7a6c5f" d="M141.41 186.4c3.14-1.89 6.53.25 9.15 2.02.07 1.81.4 3.61.8 5.39-2.16 2.4-5.01 4.53-8.44 3.49-5.43-.3-6.2-8.87-1.51-10.9m4.84 8.44c1.45-2.56 1.24-5.02-1.11-6.92-5.04 1-4.04 7.63 1.11 6.92z"/><path fill="#c6af91" d="M221.93 186.45l3.34-.98c2.73 4.76-1.6 8.38-4.41 11.69l-.37-3.44c.33-2.45.83-4.88 1.44-7.27z"/><path fill="#ab9176" d="M235.51 193.41c.47-4.47 5.49-5.29 8.83-6.93 2.11 1.75 4.08 3.66 6.01 5.62 1.24 1.04 2.72 1.76 4.29 2.16l-.67 7.9-2.62-.03-.14 4.41c-3.29-.76-7.15-.62-9.83-2.95-.78-2.24-.47-4.76-1.15-7.06-4.01 1.73-5.62 5.87-3.11 9.63l-2.32.66-2.52.68-1.07.14c2.75-4.29 3.6-9.29 4.3-14.23z"/><path fill="#867565" d="M250.35 192.1l2.24-5.72c9.06 3.1 18.77-.16 28.08-.31-1.71 6.01 2.53 10.73 4.98 15.74l-4.26-.08-.06-4.17-4.56-.74c-.2-1.83-.29-3.67-.5-5.49l-4.07.49c-5.88.65-11.73 1.44-17.56 2.44-1.57-.4-3.05-1.12-4.29-2.16z"/><path fill="#fff0d2" d="M110.68 187.96l3.07-1.46-1.84 5.91 5.27-1.49c-.17 2.25-2.17 5.09-.35 7.05 6.73 1.09 13.57 2.72 20.43 1.56l.65 3.74c-8.98 1.72-18.17-.22-26.41-3.91l-2.07 2.48-1.62-.24c-.22-3.55-.01-7.11.11-10.65l.02-.69 2.74-2.3z"/><path fill="#a08977" d="M82.33 187.56l3.12 7.46c2.81 2.79 6.99 2.1 10.57 2.34l.25 3.43 9.67.08-.06-7.93.71-.6 1.33-1.39c-.12 3.54-.33 7.1-.11 10.65l1.62.24c5.08.48 10.08 1.92 14.01 5.31-5.2.53-10.45 1.01-15.64.1l1.27-1.31c-2.03-.44-4.08-.83-6.12-1.22l-1.29-2.42-1.99 2.58c-4.59-.01-10.1.7-12.98-3.76-1.95-3.23-3.27 1.07-4.66 2.58-.21-5.39-.03-10.76.3-16.14z"/><path fill="#908b94" d="M95.8 193.05c.32-2.21 1.59-3.98 3.27-5.37 1.67 1.42 2.52 3.32 2.41 5.53-1.89.33-3.81.25-5.68-.16z"/><path fill="#f9e1bf" d="M180.86 192.16l.83-1.19c.24 2.38 1.2 4.57 2.33 6.65-1.23 3.1-1.83 6.39-1.82 9.72l-.91.02-4.6.04c-2.35-4.88-.35-10.13.85-15.01l3.32-.23z"/><path fill="#bda58b" d="M272.2 191.82l4.07-.49.5 5.49 4.56.74.06 4.17 4.26.08.72 1.57.69 1.59 8.55-2.7c-1.08 2.63-1.16 5.49.16 8.06-1.89 2.76-3.72 5.56-5.79 8.18-6.56-3.19-14.04-6.57-16.63-14l-1.29-.38 2.14-4.23-3.85.63 1.17-2.96 3.75-.56-3.07-5.19z"/><path fill="#d6bea1" d="M254.64 194.26c5.83-1 11.68-1.79 17.56-2.44l3.07 5.19-3.75.56-1.17 2.96c1.28-.23 2.56-.42 3.85-.63l-2.14 4.23c-3.37-.7-6.82-.94-10.24-1.28l-2.3-.21-5.55-.48.67-7.9z"/><path fill="#c2ac96" d="M96.02 197.36c3.38-1.26 6.76-2.57 9.86-4.42l.06 7.93-9.67-.08-.25-3.43z"/><path fill="#473a2f" d="M294.26 197.02l8.11-2.74c-1.5 2.56-2.63 5.32-3.67 8.1l5.93.59a42.44 42.44 0 0 0-2.95 3.6c-2.9-2.83-5.3-6.1-7.42-9.55z"/><path fill="#8f7660" d="M237.12 206.16c-2.51-3.76-.9-7.9 3.11-9.63.68 2.3.37 4.82 1.15 7.06 2.68 2.33 6.54 2.19 9.83 2.95-1.29.17-2.59.28-3.89.35-4.17.02-8.35-.29-12.52-.07l2.32-.66z"/><path fill="#c0aa8f" d="M219.85 198.19c2.42.97 2.75 3.9.11 4.82-.23-1.6-.41-3.22-.11-4.82z"/><path fill="#bca68f" d="M111.5 199.36c8.24 3.69 17.43 5.63 26.41 3.91l.59 3.24c2.27 1.04 4.44 2.34 6.08 4.27-6.82-2.43-14.04-2.69-21.14-3.63-3.93-3.39-8.93-4.83-14.01-5.31l2.07-2.48z"/><path fill="#020202" opacity=".85" d="M253.97 202.16l5.55.48c1.46 2.97 2.29 6.84 5.88 7.95 4.94 1.93 8.35 6.14 12.66 9.05.16.11.47.34.63.46 3.74 2.05 8.4 3.44 8.91 8.47-5.51.38-8.81-4.45-12.25-7.89-7.47-5.72-15.9-10.68-21.38-18.52z"/><path fill="#d3bea3" d="M304.63 202.97l1.17-.49 7.96 5.86-.03 8.39-3.07 3.6c-.76-3.59-2.06-7.02-3.77-10.25l-6.15-1.66.58-1.31a25.31 25.31 0 0 0 .36-.54 42.44 42.44 0 0 1 2.95-3.6z"/><path fill="#594f48" d="M259.52 202.64l2.3.21c6.5 3.34 11.88 8.51 16.39 14.19l-.15 2.6c-4.31-2.91-7.72-7.12-12.66-9.05-3.59-1.11-4.42-4.98-5.88-7.95z"/><path fill="#95836d" d="M261.82 202.85c3.42.34 6.87.58 10.24 1.28.32.1.97.29 1.29.38 2.59 7.43 10.07 10.81 16.63 14-2.7 2.12-6.13.75-9.1.14l-2.19 1.45-.63-.46.15-2.6c-4.51-5.68-9.89-10.85-16.39-14.19z"/><path fill="#8a7966" d="M200.36 205.4l4.04-.52c1.83 2.56 3.9 5.01 6.57 6.75 3.71 3.37 10.58 5.97 12.84-.36.4-1.69.73-3.4 1.09-5.09 2.08.56 4.17 1.15 6.31 1.46l1.07-.14c-1.8.66-3.57 1.4-5.34 2.15 1.06 8.71-7.39 11.65-14.26 13.14-4.56.73-9.11 1.7-13.3 3.69-3.27 1.33-6.59 2.5-9.89 3.72a94.36 94.36 0 0 0 7.18 2.79c-1.35 2.96-5.27 6.81-2.13 9.82l1.17 1.65c-.37 3.21-1.42 6.3-2.51 9.33-2.66 2.05-4.65 4.79-7.17 6.99-9.25 2.41-6.38 13.56-10.09 20.32-4.52-.85-8.98-1.99-13.47-2.95l-5.42 18.86c-1.77-2.77-3.66-5.53-6.42-7.42.3 4.57 3.56 8.06 7.32 10.28-1.83 1.79-3.74 3.5-5.6 5.27.14-7.34-9.71-6.34-12.32-12.29l1.04-3.6 4.91.39c.53 1.69 1.39 3.23 1.93 4.92 1.35-3.11 2.39-6.35 3.25-9.62l-1.43-.51c-1.86 2.82-4.79 2.38-7.56 1.34l1.31-4.29c4.18-1.43 8.61-1.32 12.76.17 1.04-3.34 2.17-6.68 2.65-10.16l1.38.47c2.13-.94 4.39-1.56 6.72-1.65l3.35 5.85 5.83-2.47c-.99-2.61-2.26-6.63-5.87-4.94 1.72-3.75.76-7.7-.38-11.44 4.72-2.81 8.67-6.75 11.42-11.52l3.24-1.61a154.85 154.85 0 0 1 4.21-13.49l-7.67-3.7-3.92 2.26c-4.59-3.35-10.44-1.4-15.67-1.86-3.63-.31-8.01.52-9.27 4.47l-.34-4.07 2.1-.72c2.44-.87 4.76-2.02 7.12-3.07 3.67.58 7.38.18 11.02-.38l2.15 1.83c2.72-2.71 5.32-5.53 7.82-8.45-2.59-3.26-5.36-6.37-8.22-9.4l7.38-.24.91-.02 2.77 2.64c1.75 1.73 3.55 3.43 5.57 4.85-1.7.32-3.38.73-5.05 1.14l.39 3.76c5.11-.8 10.17-.67 14.79 1.85 2.65-2.21 4.64-5.06 6.81-7.72l-2.09-2.53-1.91-2.29-3.12-3.64m-22.24 48.77l.64 4.34c2.76-.9 5.56-1.66 8.36-2.45-2.86-1.11-5.94-1.62-9-1.89m-6.43 5.65c.44 1.31.93 2.62 1.39 3.93l4.98 1.12c-.91-2.96-3.48-4.46-6.37-5.05z"/><path fill="#e9d2bf" d="M58.25 207.24c6.22-.73 12.46-.02 18.69-.03-.7 4.22-1.77 8.39-3.68 12.23l-4.75-1.34c-3.26-1.72-6.41-3.9-8.26-7.18l-1.24-2.16-.76 6.68v-8.2z"/><path fill="#c2ad9b" d="M33.84 207.94l4.07-1.08.21 8.43 9.07-.06-2.32.81c.01 4.08-3.04 6.26-6.71 7.13l1.22-4.92c-3.01-2.7-4.98-6.24-6.7-9.84l1.16-.47z"/><path fill="#fef0da" d="M76.94 207.21l9.93-.06c6.24-.33 7.92 6.42 7 11.38l-1.58 5.4 4.53 2.68c-1.69.38-3.4.62-5.08 1.01l-1.12-4.47-3.68-1.04-.68 3.3c-6.32-1.28-12.76-.44-19.13-.92-2.93-.16-3.18-3.82-4.23-5.9 1.87-.2 3.73-.4 5.61-.49l4.75 1.34c1.91-3.84 2.98-8.01 3.68-12.23m5.45 2.32c-3.35.54-6.01 3.96-5.18 7.39.61 6.1 10.66 6.27 12.27.69 1.33-4.17-2.68-9.1-7.09-8.08z"/><path fill="#b5a093" d="M86.87 207.15h14.3l-3.59 1.08 4.54 1.19c-4.34 1.33-7.56 4.5-8.25 9.11.92-4.96-.76-11.71-7-11.38z"/><path fill="#675749" d="M232.28 207.5l2.52-.68c4.17-.22 8.35.09 12.52.07 1.14 4.38 2.05 8.97 5.26 12.39 4.22 5.02 1.54 14.06 8.39 16.91l-6.47.32-3.51-.19 1.99-2.47c-2.92-4.95-5.6-10.09-6.86-15.75-3.35-1.32-6.28-3.41-9.33-5.26-4.13-.62-4.73 4.34-5.9 7.14-2.15.08-4.3.14-6.44.32l-.87 1.45c-.44 2.4.13 4.77 1.03 6.99l5.25-1.14c.27 3.2.32 7.03 3.68 8.56l1.54-5.16 6.04.04c-1.71.37-3.44.69-5.13 1.13l-.06 2.27-.01 1.19c2.32.77 4.32 2.22 5.79 4.18l-1.49 2.28 1.63 6.84-2.4-.2-1.12-4.79a111.76 111.76 0 0 0-6.25 5.24c-3.72-7.05-7.72-13.92-12.51-20.33.55-2.4 1.24-4.76 2.06-7.07l-6.71.73-2.24.28c6.87-1.49 15.32-4.43 14.26-13.14 1.77-.75 3.54-1.49 5.34-2.15z"/><path fill="#483d35" d="M295.77 210.33c1.53-1.56 3.49-2.54 5.55-3.22l-.58 1.31-.63 1.79 1.38 3.84-3.32 4.68-4.16-.59-1.17.95c-3.17 2.62-7.43 7.14-2.39 10.29l.72.69c-1.19-.53-2.38-1.01-3.57-1.5-.51-5.03-5.17-6.42-8.91-8.47l2.19-1.45c2.97.61 6.4 1.98 9.1-.14 2.07-2.62 3.9-5.42 5.79-8.18z"/><path fill="#a8917c" d="M28.2 208.65l5.64-.71-1.16.47-1.91.89c1.17 8.29.63 18.45 7.21 24.6 2.9-.39 1.08-4.13 1.35-6.1 1.99-.66 4-1.28 6.01-1.89-2.49-.43-4.98-.98-7.37-1.82l.19-.92c3.67-.87 6.72-3.05 6.71-7.13l2.32-.81c3.69-.01 7.38.98 11.06.21l.76-6.68 1.24 2.16c-.13 6.05 1.39 14.84-5.87 17.28.9-2.21 1.81-4.45 2.22-6.81-1.97-2.83-5.79-4.91-9.21-4.26-1.42 3.03-1.4 6.51.4 9.38.12 1.44-.11 2.9 0 4.35 2-.66 4.02-1.28 5.98-2.05-1.92 2.63-3.36 5.55-4.74 8.49-1.4-1.65-2.88-3.22-4.33-4.81-2.18 1.52-4.52 2.91-6.27 4.96.2 4.68 4.53 7.65 7.56 10.7l6.96-3.63c.06 2.55-2.26 3.85-3.93 5.32l1.98 2.43c1.34 1.32 2.8 2.5 4.23 3.71-.23-3.53.91-6.7 5.02-6.71-.99 2.7-2.1 5.36-3.25 7.99 3.64 2.63 7.69 4.62 11.89 6.22l3.04-3.48 1.91 5.33 6.75.48.13-3.09 1.28 1.63a103.11 103.11 0 0 1 1.3 1.63l.55.66c4.08.53 8.21.3 12.32.17.23-3.44.4-6.89.83-10.31 2.74 2.34 3.95 6.31 1.86 9.47l-1.42.84c-.16 1.66-.2 3.33-.27 5l5.14-.15c-.31-1.95-.69-3.88-1.11-5.8 4.48.09 8.85-1.28 12.6-3.71-1.28-2.07-2.52-4.24-2.78-6.71 1.67 1.79 3.27 3.65 4.85 5.53 4.46-2.88 12.78-6.37 8.41-12.86.02-.31.05-.94.06-1.25l4.85 5.05c3.25-2.45 6.18-5.31 8.43-8.71l-3.32-3.33c1.42.32 2.87.6 4.31.89 1.88-3.71 4.95-7.24 5.1-11.54-1.23-2.27-3.99-3.25-5.99-4.78 1.72-.35 3.45-.6 5.19-.84 1.27 1.22 2.44 2.53 3.64 3.83 1.57-5.99 2.43-12.14 2.76-18.32l-2.25 1.49-.34-2.65 3.04.14-.01 5.86 2.21 1.01 1.46-6.69a31.32 31.32 0 0 0 6.24 6.61c2.71 2.61 5.96 4.5 9.25 6.27l1.93 1.39 1.32 1.08c-3.64.56-7.35.96-11.02.38-1.55-2.15-3.87-3.48-6.18-4.66-1.01 2.64-1.95 5.3-2.79 8l1.85-.27-2.1.72c-1.99.14-3.99.15-5.99.17 2.85 2.01 4.86 4.85 5.26 8.38l2.08.31a80.57 80.57 0 0 1-4.61 6.41c.23.6.45 1.22.67 1.84.01.26.04.77.06 1.03-2.29-.06-4.57-.2-6.85-.33-1.52 2.1-3.02 4.22-4.74 6.17-1.31 1.11-2.71 2.11-4.08 3.16l3.13 3.25c.19 4.69.62 9.38.58 14.09 5.37-.06 10.82-.84 15.63-3.38a80.81 80.81 0 0 0-.92 3.48c-5.2 2.39-11.01 2.73-16.6 3.41l-.84 4.99c-5.21.07-10.41.38-15.61.33l-.64-5.34c-5.25-.2-10.35-1.4-15.46-2.48-1.11.98-2.01 2.16-2.98 3.26-4.84-3.35-10.7-3.55-16.37-3.02l-1.1-4.63c-4.49-.42-8.97-1.08-13.3-2.36l-2.51 2.91a62.51 62.51 0 0 1-1.46-.5c-3.77-1.77-7.46-3.7-11.13-5.66l1.45-3.49c-3.64-3.05-7.03-6.36-10.36-9.73l-4.14 2.33c-1.98-2.62-4.04-5.18-6.08-7.75l-2.09-3.55 3.53-3.19c-5.31-7.31-6.46-16.15-7.99-24.77l-.26-4.48m99.69 43.99c1.01 1.96 2.16 3.86 3.38 5.71 4.26-2.44-.24-5.4-3.38-5.71m-8.73 16.85c-4.23-1.7-10.71-4.26-13.28 1.17 4.33 1.25 8.85 1.31 13.28 2.02 5 1.31 10.37 1.19 15.35-.15 1.14-2.96.21-6.2.08-9.26-6.95-2.3-9.29 5.61-15.43 6.22z"/><path fill="#e2c7b1" d="M142.87 219.52c2.54-3.17 1.86-7.97 3.85-11.57l.34 2.65 2.25-1.49c-.33 6.18-1.19 12.33-2.76 18.32-1.2-1.3-2.37-2.61-3.64-3.83-6.19-1.9-10.66-7.97-17.56-7.51-.97 3.89-3.36 7.84-2.45 11.94 2.06 3.29 5.53 5.36 8.03 8.3 1.12 1.18 2.2 2.4 3.37 3.54l3.32 3.33c-2.25 3.4-5.18 6.26-8.43 8.71l-4.85-5.05c-.01.31-.04.94-.06 1.25-4.65 1.73-11.35 1.89-13.26 7.33.26 2.47 1.5 4.64 2.78 6.71-3.75 2.43-8.12 3.8-12.6 3.71l-2.34.11c2.09-3.16.88-7.13-1.86-9.47-.43 3.42-.6 6.87-.83 10.31-4.11.13-8.24.36-12.32-.17l-.55-.66c3.3.36 6.62.23 9.93.04l1.45-6.55-2.46 1.2-5.49-2.83c-1.78 2.01-3.41 4.16-4.73 6.51l-1.28-1.63c-.69-5.56 4.31-8.76 9.18-9.36l.22-2.82c4.17 5.15 11.55 6.31 17.84 5.95 1.47-4.58 4.87-8.08 8.81-10.68 5.74-2.33 13.25 3.2 17.42-3.36-4.45-5.05-11.43-8.33-13.56-15.07-.03-3.67 1.7-7.1 2.41-10.66 6.05-7.6 13.1 1.79 19.83 2.8m-57.41 36.55c3.07 1.7 8.91 3.21 10.81-.88-3.41.22-8.46-1.55-10.81.88z"/><path fill="#5a4c43" d="M149.76 208.09l3.66.18-1.46 6.69-2.21-1.01.01-5.86z"/><path fill="#908578" d="M313.76 208.34c2.45 11.44 12.52 17.69 21.74 23.35 4.03-1.54 8.21-5.5 12.54-2.24l-2.48 4c-1.89.2-3.77.47-5.62.87 2.66 2 5.47 3.79 8.31 5.52-.33-3.21.06-6.6 3.54-7.81l2.14 2.43c.86 5.62-3.72 10.18-2.49 15.8 3.69 2.07 6 5.57 7.05 9.61l-1.79 2.67c-2.35-1.4-4.64-2.88-6.88-4.43l-2.58 3.84c2.45 1.39 8.13 2.43 5.57 6.26-5.1 1.21-9.28-1.74-13.58-3.73-5.7 1.24-10.29 11.25-16.93 5.42 1.62-1.64 3.37-3.14 5.2-4.52 1.41 3.18 5.32-.09 1.84-1.44l-7.24-5.02-.84 1.92 1.85 3.06-3.88 3.76-2.33-1.84c-.25-5.7 2.72-13.18 9.7-9.69-6.47-6.76-14.65-11.64-20.92-18.6-2.37-3.07-6.42-3.45-9.87-4.49l-4.64-2.97-.72-.69c3.62 1.15 7.45 1.97 11.25 1.27 1.26-.13 2.52-.22 3.78-.3 2.1 1.36 4.31 2.62 6.76 3.22l1.57.21c-.7 1.08-1.33 2.2-1.98 3.32 4.1 2.39 8.35 4.51 12.44 6.94l-2.81 2.83c1.63 4.82 7.19 5.72 10.23 9.36 4.68 1.67 9.47 1.05 11.32-4.15l3.68-5.39c-4.27-4.7-8.84-9.2-14.21-12.63-4.01-3.49-8.69-6.27-12.12-10.36-.73 1.39-1.44 2.8-2.27 4.15l-1.09-2.09c.56-.53 1.13-1.05 1.71-1.56l-3.63-2.83c-1.24.65-2.49 1.29-3.71 2 1.44-1.93 2.33-4.22 2.36-6.64.11-2.8.06-5.59.03-8.39m14 51.84c2.15 4.69 6.55.22 9.57-1.18-3.24-.87-6.75-.85-9.57 1.18z"/><path fill="#fdead1" d="M30.77 209.3l1.91-.89c1.72 3.6 3.69 7.14 6.7 9.84l-1.22 4.92-.19.92c2.39.84 4.88 1.39 7.37 1.82l-6.01 1.89c-.27 1.97 1.55 5.71-1.35 6.1-6.58-6.15-6.04-16.31-7.21-24.6z"/><path fill="#807265" d="M82.39 209.53c4.41-1.02 8.42 3.91 7.09 8.08-1.61 5.58-11.66 5.41-12.27-.69-.83-3.43 1.83-6.85 5.18-7.39m-2.4 6.61c1.33.75 2.36 2.46 4.06 2.34 3.09-1.44.86-5.28.34-7.65-1.63 1.63-3.08 3.42-4.4 5.31z"/><path fill="#ead1bf" d="M193.09 208.82c2.91 2.95 7.44 3.38 10.39.22l1.91 2.29-6.46 1.23 5.98 1.13c-4.01-.04-8.12.3-11.75 2.15-.87-.35-1.75-.68-2.62-1.01-2.02-1.42-3.82-3.12-5.57-4.85 1.84.59 3.7 1.11 5.59 1.55l3.25.74-.72-3.45z"/><path fill="#fbe7d5" d="M300.11 210.21l.63-1.79 6.15 1.66c1.71 3.23 3.01 6.66 3.77 10.25-2.11 2.58-3.91 5.4-5.97 8.01-4.29-2.62-8.08-5.95-11.85-9.25l1.17-.95c1.39.15 2.78.38 4.16.59l3.32-4.68c-.48-1.27-.97-2.54-1.38-3.84z"/><path fill="#fcfafc" d="M210.97 211.63c4.03-2.26 8.49.85 12.84-.36-2.26 6.33-9.13 3.73-12.84.36z"/><path fill="#c3af9e" d="M60.25 210.92c1.85 3.28 5 5.46 8.26 7.18-1.88.09-3.74.29-5.61.49 1.05 2.08 1.3 5.74 4.23 5.9 6.37.48 12.81-.36 19.13.92l.68-3.3c1.23.32 2.44.71 3.68 1.04l1.12 4.47c-2.87 2.76-6.59.87-9.85.05-6.29-1.91-12.93-1.63-19.42-1.43l-2.09.17c-2.69 3-6.87 6.07-7.14 10.22 3.19 5.13 1.43 11.29-2.24 15.64-.68-.8-1.33-1.62-1.98-2.43 1.67-1.47 3.99-2.77 3.93-5.32-.91-2.6-2.2-5.07-3.92-7.22 1.38-2.94 2.82-5.86 4.74-8.49l.61-.61c7.26-2.44 5.74-11.23 5.87-17.28z"/><path fill="#fffff4" d="M79.99 216.14c1.32-1.89 2.77-3.68 4.4-5.31.52 2.37 2.75 6.21-.34 7.65-1.7.12-2.73-1.59-4.06-2.34z"/><path fill="#a89483" d="M205.39 211.33l2.09 2.53c-2.17 2.66-4.16 5.51-6.81 7.72-4.62-2.52-9.68-2.65-14.79-1.85l-.39-3.76c1.67-.41 3.35-.82 5.05-1.14l2.62 1.01c3.97 2.67 9.44 2.63 11.75-2.15l-5.98-1.13 6.46-1.23z"/><path fill="#7f7169" d="M230.89 219.98c1.17-2.8 1.77-7.76 5.9-7.14 3.05 1.85 5.98 3.94 9.33 5.26 1.26 5.66 3.94 10.8 6.86 15.75l-1.99 2.47c-1.66.17-3.31.45-4.95.73l-1.19-8.04-1.2 3.81-7.72 1.62.06-2.27c1.69-.44 3.42-.76 5.13-1.13l-6.04-.04-1.54 5.16c-3.36-1.53-3.41-5.36-3.68-8.56 5.7-1.02 11.62-1.59 16.83-4.34l-.73-4c-7.49.55-14.88 1.99-22.38 2.49l.87-1.45c2.14-.18 4.29-.24 6.44-.32z"/><path fill="#bba186" d="M125.35 216.09c6.9-.46 11.37 5.61 17.56 7.51-1.74.24-3.47.49-5.19.84-2.63 3.74-4.67 7.85-6.79 11.89-2.5-2.94-5.97-5.01-8.03-8.3-.91-4.1 1.48-8.05 2.45-11.94m1.24.76c-1.47 3.33-1.05 6.9.16 10.22 2.06-.47 4.29-1.11 5.32-3.17-.35-3.18-2.89-5.48-5.48-7.05z"/><path fill="#fffeff" d="M170.1 216.11c3.07.64 6.09 1.51 9.08 2.46-2.14 2.47-5.12 3.71-8.34 3.97l-1.93-1.39 1.19-5.04z"/><path fill="#7c6855" d="M47.39 217.13c3.42-.65 7.24 1.43 9.21 4.26-.41 2.36-1.32 4.6-2.22 6.81l-.61.61c-1.96.77-3.98 1.39-5.98 2.05-.11-1.45.12-2.91 0-4.35-1.8-2.87-1.82-6.35-.4-9.38z"/><path fill="#fff5d8" d="M117.87 227.88c-.99-4.4 2.37-8.2 5.17-11.16-.71 3.56-2.44 6.99-2.41 10.66 2.13 6.74 9.11 10.02 13.56 15.07-4.17 6.56-11.68 1.03-17.42 3.36 3.93-3.35 10.03-.71 13.58-4.82-4.7-3.75-10.32-7.19-12.48-13.11z"/><path fill="#83705d" d="M126.59 216.85c2.59 1.57 5.13 3.87 5.48 7.05-1.03 2.06-3.26 2.7-5.32 3.17-1.21-3.32-1.63-6.89-.16-10.22z"/><path fill="#695c51" d="M313.73 216.73c-.03 2.42-.92 4.71-2.36 6.64l-5.89 6.98-3.78.3 2.99-2.31 5.97-8.01 3.07-3.6z"/><path fill="#c1bcbe" d="M154.96 219.34c2.31 1.18 4.63 2.51 6.18 4.66l-7.12 3.07-1.85.27 2.79-8z"/><path fill="#e2cbb3" d="M223.58 221.75c7.5-.5 14.89-1.94 22.38-2.49l.73 4c-5.21 2.75-11.13 3.32-16.83 4.34-1.76.34-3.51.74-5.25 1.14-.9-2.22-1.47-4.59-1.03-6.99z"/><path fill="#d3bca3" d="M290.45 229.38c-5.04-3.15-.78-7.67 2.39-10.29 3.77 3.3 7.56 6.63 11.85 9.25-.96.82-1.98 1.56-2.99 2.31-3.8.7-7.63-.12-11.25-1.27z"/><path fill="#c7b096" d="M311.37 223.37l3.71-2 3.63 2.83-1.71 1.56c-2.51 1.95-3.99 4.77-4.76 7.81-2.45-.6-4.66-1.86-6.76-3.22l5.89-6.98z"/><path fill="#17130f" opacity=".87" d="M214.92 222.51l6.71-.73c-.82 2.31-1.51 4.67-2.06 7.07-1.42-2.21-2.98-4.32-4.65-6.34z"/><path fill="#c4ae95" d="M320.36 223.7c3.43 4.09 8.11 6.87 12.12 10.36-1.89 4.64-4.14 9.11-6.5 13.52 4.91 3.29 11.04 8.92 17.03 4.5-1.85 5.2-6.64 5.82-11.32 4.15-3.04-3.64-8.6-4.54-10.23-9.36l2.81-2.83c-4.09-2.43-8.34-4.55-12.44-6.94.65-1.12 1.28-2.24 1.98-3.32l4.28-5.93c.83-1.35 1.54-2.76 2.27-4.15m-1.27 7.37l.3 6.73 5.69-.01c.26-2.27.21-4.56.06-6.83l-6.05.11z"/><path fill="#fce6ce" d="M130.93 236.33c2.12-4.04 4.16-8.15 6.79-11.89 2 1.53 4.76 2.51 5.99 4.78-.15 4.3-3.22 7.83-5.1 11.54l-4.31-.89c-1.17-1.14-2.25-2.36-3.37-3.54z"/><path fill="#f9e3cb" d="M60.38 226.41l2.09-.17c.07 4.29-1.52 8.28-5.86 9.72.7 3.56 1.09 7.17 1.02 10.8 8.09.08 20 4.85 17.05 14.94l6.04 1.02-.13 3.09-6.75-.48-1.91-5.33-3.04 3.48c-4.2-1.6-8.25-3.59-11.89-6.22 1.15-2.63 2.26-5.29 3.25-7.99-4.11.01-5.25 3.18-5.02 6.71-1.43-1.21-2.89-2.39-4.23-3.71 3.67-4.35 5.43-10.51 2.24-15.64.27-4.15 4.45-7.22 7.14-10.22z"/><path fill="#50453b" d="M312.24 233.57c.77-3.04 2.25-5.86 4.76-7.81l1.09 2.09-4.28 5.93-1.57-.21z"/><path fill="#b79d83" d="M152.26 231.86c1.26-3.95 5.64-4.78 9.27-4.47 5.23.46 11.08-1.49 15.67 1.86l3.92-2.26 7.67 3.7a154.85 154.85 0 0 0-4.21 13.49l-3.24 1.61c-7.21-2.77-14.44 4.27-11.42 11.52 1.14 3.74 2.1 7.69.38 11.44-1.11.5-2.21 1.04-3.31 1.56-2.33.09-4.59.71-6.72 1.65-.34-.11-1.03-.35-1.38-.47l-1.05-1.83c-1.06-1.02-2.19-1.96-3.4-2.78-1.67-.73-3.4-1.28-5.12-1.84-.12-3.03-.2-6.08.18-9.1 4.09-2.23 8.58-4.01 11.97-7.3-1.27-5.22-3.91-10-6.35-14.75-.65.9-1.26 1.82-1.85 2.76-.41-1.58-.79-3.18-1.01-4.79m24.18 1.52l-2.96 6.38c2.55 1.74 5.29 3.17 8.2 4.21 2.91-3.43 3.95-7.77 1.92-11.95a78.57 78.57 0 0 0-7.16 1.36m-16.7 18.73l.3.59c-3.08 1.91-5.99 4.1-9.21 5.78 1.19 3 2.93 5.73 5.04 8.16 3.23-1.78 6.3-3.82 9.42-5.78 4.75-3.56-.5-9.92-5.55-8.75z"/><path fill="#58504b" d="M189.49 230.2l9.89-3.72c-.95 5.64-3.33 10.86-4.84 16.33-3.14-3.01.78-6.86 2.13-9.82a94.36 94.36 0 0 1-7.18-2.79z"/><path fill="#dcc5a8" d="M103.79 238.2c-4.29-2.59-2.75-9.6 2.07-10.49-2.66 2.97-3.18 6.72-2.07 10.49z"/><path fill="#635448" d="M145.93 227.96l5.99-.17.34 4.07c.22 1.61.6 3.21 1.01 4.79l-2.08-.31c-.4-3.53-2.41-6.37-5.26-8.38z"/><path fill="#453b32" d="M244.85 229.01l1.19 8.04 4.95-.73 3.51.19-1.69 1.09-1.28.95-1.17 3.85-3.34 2.48c-1.95-1.5-3.76-3.17-5.31-5.07-1.47-1.96-3.47-3.41-5.79-4.18l.01-1.19 7.72-1.62 1.2-3.81z"/><path fill="#7c7062" d="M319.09 231.07l6.05-.11c.15 2.27.2 4.56-.06 6.83l-5.69.01-.3-6.73z"/><path fill="#eed5c0" d="M38.43 237.45c1.75-2.05 4.09-3.44 6.27-4.96l4.33 4.81c1.72 2.15 3.01 4.62 3.92 7.22l-6.96 3.63c-3.03-3.05-7.36-6.02-7.56-10.7z"/><path fill="#e0c6af" d="M176.44 233.38l7.16-1.36c2.03 4.18.99 8.52-1.92 11.95-2.91-1.04-5.65-2.47-8.2-4.21l2.96-6.38z"/><path fill="#141210" opacity=".8" d="M295.81 233.04c3.45 1.04 7.5 1.42 9.87 4.49 6.27 6.96 14.45 11.84 20.92 18.6-6.98-3.49-9.95 3.99-9.7 9.69-2.73-4.58-.07-9.82 3.69-12.81-8.53-6.33-16.39-13.47-24.78-19.97z"/><path fill="#ddc2a6" d="M153.27 236.65l1.85-2.76c2.44 4.75 5.08 9.53 6.35 14.75-3.39 3.29-7.88 5.07-11.97 7.3.12-1.05.28-2.08.45-3.12 3.03-1.62 5.97-3.39 8.88-5.21l-2.6-5.38-6.9 2.67-.67-1.84a80.57 80.57 0 0 0 4.61-6.41z"/><path fill="#d9c2a9" d="M325.98 247.58c2.36-4.41 4.61-8.88 6.5-13.52 5.37 3.43 9.94 7.93 14.21 12.63l-3.68 5.39c-5.99 4.42-12.12-1.21-17.03-4.5z"/><path fill="#97836d" d="M254.5 236.51l6.47-.32c3.01 5.26 3.14 11.17 1.61 16.9-1.39-1.08-2.82-2.33-4.66-1.44-.79-.42-1.61-.79-2.38-1.25 2.9-4.24-.78-9-2.73-12.8l1.69-1.09z"/><path fill="#cab6a3" d="M251.53 238.55l1.28-.95c1.95 3.8 5.63 8.56 2.73 12.8.77.46 1.59.83 2.38 1.25-4.52 1.72-9.04 3.65-13.89 4.2l-1.26-5.81c1.37-1.76 2.72-3.54 4.25-5.16 1.08-.87 2.22-1.66 3.34-2.48.39-1.28.73-2.58 1.17-3.85z"/><path fill="#857563" d="M240.22 242.09l1.49-2.28c1.55 1.9 3.36 3.57 5.31 5.07-1.53 1.62-2.88 3.4-4.25 5.16l1.26 5.81-3.51.36-.09 3.62-1.46.54-.86-.8c-2.08-3.42-4.06-6.9-6.03-10.39a111.76 111.76 0 0 1 6.25-5.24l1.12 4.79 2.4.2-1.63-6.84z"/><path fill="#f1d6ba" d="M149.33 244.9l6.9-2.67 2.6 5.38c-2.91 1.82-5.85 3.59-8.88 5.21-.17 1.04-.33 2.07-.45 3.12-.38 3.02-.3 6.07-.18 9.1 1.72.56 3.45 1.11 5.12 1.84l-1.38 2.01c-4.81 2.54-10.26 3.32-15.63 3.38.04-4.71-.39-9.4-.58-14.09l-3.13-3.25c1.37-1.05 2.77-2.05 4.08-3.16.37.2 1.09.62 1.45.82l3.47 1.99.36 2.71-3.56.47a21 21 0 0 0 5.42 5.46c1.52-4.62 1.93-9.51 1.22-14.32 1.09-.27 2.2-.5 3.3-.75l-.07-2.22c-.02-.26-.05-.77-.06-1.03z"/><path fill="#ceb69d" d="M142.54 245.6l6.85.33.07 2.22-3.3.75c-2.67.44-4.99 1.84-6.91 3.69l-1.45-.82c1.72-1.95 3.22-4.07 4.74-6.17z"/><path fill="#e4cbb0" d="M169.92 257.31c-3.02-7.25 4.21-14.29 11.42-11.52-2.75 4.77-6.7 8.71-11.42 11.52z"/><path fill="#6a5d50" d="M257.92 251.65c1.84-.89 3.27.36 4.66 1.44-1.22 9.97 5.45 18.36 7.39 27.76l1.26 4.12 1.54-.05c1.05 2.98 2.14 5.95 3.32 8.88l1.63-.17c-.46 1.7-2.92 4.27.12 4.76-2.83.98-4.45 3.41-5.28 6.17-.83-1.67-1.73-3.3-2.62-4.92-3.39 1.23-6.91 2.73-10.6 2.04 3.48-1.56 7.06-2.87 10.63-4.19-.82-5.99-2.5-11.82-4.13-17.63-2.59-5.43-4.49-11.15-5.22-17.13-.68-.06-1.36-.1-2.03-.14l2.78-5.51c-5.27-4.4-15.76-1.07-17.35 5.58 1.78 2.14 4.72 4.27 3.88 7.44-1.16 4.65 2.93 8.08 4.41 12.13l-4.79-2.18c.02 3.07.06 6.15.32 9.21a160.72 160.72 0 0 1-6.71-25.26c-.14-1.5-1.07-2.67-2.16-3.63l1.46-.54c.06-1.21.07-2.42.09-3.62l3.51-.36c4.85-.55 9.37-2.48 13.89-4.2z"/><path fill="#eed3bc" d="M159.74 252.11c5.05-1.17 10.3 5.19 5.55 8.75-1.9-2.63-3.66-5.34-5.25-8.16l-.3-.59z"/><path fill="#56483d" d="M127.89 252.64c3.14.31 7.64 3.27 3.38 5.71l-3.38-5.71z"/><path fill="#fffee8" d="M150.83 258.48c3.22-1.68 6.13-3.87 9.21-5.78 1.59 2.82 3.35 5.53 5.25 8.16-3.12 1.96-6.19 4-9.42 5.78-2.11-2.43-3.85-5.16-5.04-8.16z"/><path fill="#3c332c" d="M178.12 254.17c3.06.27 6.14.78 9 1.89l-8.36 2.45-.64-4.34z"/><path fill="#998773" d="M244.02 262.66c1.59-6.65 12.08-9.98 17.35-5.58l-2.78 5.51 2.03.14c.73 5.98 2.63 11.7 5.22 17.13-1.68-1.09-3.38-2.14-5.08-3.19-1.08 3.89-4.97 4.86-8.45 5.56-1.48-4.05-5.57-7.48-4.41-12.13.84-3.17-2.1-5.3-3.88-7.44m6.3.5l-.22 2.79c2.67-.69 5.3-1.62 7.73-2.96-2.04-2.87-5.11-1-7.51.17m1.41 11c1.67.98 3.21 2.42 5.19 2.71 2.02-1.1 2.63-3.69 3.82-5.54-3.7-3.87-7.87-2.05-9.01 2.83z"/><path fill="#96836f" d="M85.46 256.07c2.35-2.43 7.4-.66 10.81-.88-1.9 4.09-7.74 2.58-10.81.88z"/><path fill="#fff4df" d="M82 264.35c1.32-2.35 2.95-4.5 4.73-6.51l5.49 2.83 2.46-1.2-1.45 6.55c-3.31.19-6.63.32-9.93-.04l-1.3-1.63z"/><path fill="#494343" d="M327.76 260.18c2.82-2.03 6.33-2.05 9.57-1.18-3.02 1.4-7.42 5.87-9.57 1.18z"/><path fill="#443a32" d="M171.69 259.82c2.89.59 5.46 2.09 6.37 5.05l-4.98-1.12-1.39-3.93z"/><path fill="#161413" opacity=".82" d="M238.11 259.57l.86.8c1.09.96 2.02 2.13 2.16 3.63a160.72 160.72 0 0 0 6.71 25.26l1 5.44-4.26-4.34c-3.44 1.01-6.28 3.19-8.76 5.7 1.5-4.52 5.86-6.68 10.34-7.06-3.04-9.7-6.23-19.41-8.05-29.43z"/><path fill="#6b5e4f" d="M175.94 281.1c3.71-6.76.84-17.91 10.09-20.32-2.8 8.94-4.07 18.26-7 27.16 1.74.86 3.51 1.7 5.2 2.67l-5.83-.32-.23 3.03 3.77-.15c-3.16 2.35-4.34 6.88-2.94 10.53-1.64.88-3.3 1.72-4.96 2.56l-5.35 2.46c.38-2.02 1.66-3.67 2.77-5.33-4.55-.96-9.09-2.03-13.51-3.52-3.76-2.22-7.02-5.71-7.32-10.28 2.76 1.89 4.65 4.65 6.42 7.42 3.96 2.49 8.63 3.39 13.22 3.7 2.16-6.52 3.85-13.24 7.05-19.35l-1.38-.26z"/><path fill="#4e433a" d="M250.32 263.16c2.4-1.17 5.47-3.04 7.51-.17-2.43 1.34-5.06 2.27-7.73 2.96l.22-2.79z"/><path fill="#ebd2b9" d="M119.16 269.49c6.14-.61 8.48-8.52 15.43-6.22.13 3.06 1.06 6.3-.08 9.26-4.98 1.34-10.35 1.46-15.35.15v-3.19z"/><path fill="#2d2c2d" opacity=".91" d="M329.34 263.94c3.48 1.35-.43 4.62-1.84 1.44l1.84-1.44z"/><path fill="#625344" d="M97.44 266.81l1.42-.84 2.34-.11 1.11 5.8-5.14.15.27-5z"/><path fill="#c6ae91" d="M105.88 270.66c2.57-5.43 9.05-2.87 13.28-1.17v3.19c-4.43-.71-8.95-.77-13.28-2.02z"/><path fill="#70604e" opacity=".92" d="M154.44 266.88c1.21.82 2.34 1.76 3.4 2.78l-5.7 2.71.92-3.48 1.38-2.01z"/><path fill="#645a4f" d="M170.3 268.75c3.61-1.69 4.88 2.33 5.87 4.94l-5.83 2.47-3.35-5.85 3.31-1.56z"/><path fill="#5f544a" d="M251.73 274.16c1.14-4.88 5.31-6.7 9.01-2.83-1.19 1.85-1.8 4.44-3.82 5.54-1.98-.29-3.52-1.73-5.19-2.71z"/><path fill="#af9a86" d="M260.76 276.67l5.08 3.19c1.63 5.81 3.31 11.64 4.13 17.63-3.57 1.32-7.15 2.63-10.63 4.19-5.04-4.93-5.53-12.87-7.03-19.45 3.48-.7 7.37-1.67 8.45-5.56z"/><path fill="#b29e8b" d="M162.47 278.15l13.47 2.95 1.38.26c-3.2 6.11-4.89 12.83-7.05 19.35-4.59-.31-9.26-1.21-13.22-3.7l5.42-18.86z"/><path fill="#8e8174" d="M247.52 280.05l4.79 2.18c1.5 6.58 1.99 14.52 7.03 19.45 3.69.69 7.21-.81 10.6-2.04l2.62 4.92c2.68 4.07 2.42 10.63-2.43 12.93l-2.53-5.39 2.65-3.67c-2.48.85-4.98 1.66-7.54 2.24-3.98-.2-1.59 3.78 1.15 2.16l2.03 5.57-2.91 1.01-4.82-3.49c-1.2-2.44-2.09-5.01-2.94-7.59-4.64-2.07-9.45 1.85-14.09-.38-2.62-.31-2.39-3.48-3.17-5.37 3.04-.17 6.03.32 8.94 1.16-1.07-3.26-1.41-7.08-4.21-9.41l-.98 4.59-4.88 1.27a118.29 118.29 0 0 1-1.01-4.13c2.48-2.51 5.32-4.69 8.76-5.7l4.26 4.34-1-5.44c-.26-3.06-.3-6.14-.32-9.21m-.46 18.76l.98 2.33c2.52.48 5.06.86 7.63 1.08-1.53-3.33-5.41-3.74-8.61-3.41z"/><path fill="#8c8c90" d="M269.97 280.85c4.36-.68 10.23-.8 12 4.24l-4.76 1.82c-1.12-.68-2.23-1.38-3.37-2l-1.07.01-1.54.05-1.26-4.12z"/><path fill="#908f96" d="M178.4 290.29l5.83.32c2.52 2 4.44 4.82 3.59 8.18l-5.36-1.06-.52-4.56-3.77.15.23-3.03z"/><path fill="#929197" d="M276.09 293.8c1.33-3.15 3.9-5 7.4-4.65 1.02 4.12-2.13 7.65-5.65 9.24-3.04-.49-.58-3.06-.12-4.76l-1.63.17z"/><path fill="#4a4341" d="M247.06 298.81c3.2-.33 7.08.08 8.61 3.41-2.57-.22-5.11-.6-7.63-1.08l-.98-2.33z"/><path fill="#958779" d="M152.35 305.14l5.6-5.27c4.42 1.49 8.96 2.56 13.51 3.52-1.11 1.66-2.39 3.31-2.77 5.33-.02 3.82-1.92 7.13-4.78 9.56-1.46.26-2.96.24-4.44.26l1.26-5.61 3.81-.39.51-2.27-3.64-.51-4.59-.65a69.69 69.69 0 0 1-1.2 7.99c-5.22-1.08-5.98-8.13-3.27-11.96z"/><path fill="#1b1b1d" opacity=".82" d="M181.09 301.08c1.3-1.97 5.01-.55 4.86 1.7-1.7-.35-3.33-.92-4.86-1.7z"/><path fill="#929199" d="M181.09 301.08c1.53.78 3.16 1.35 4.86 1.7-.27 5.61-8.15 5.63-11.91 3.48l4.96-2.56 2.09-2.62z"/><path fill="#282626" opacity=".74" d="M161.41 309.76l3.64.51-.51 2.27-3.81.39.68-3.17z"/><path fill="#1c1b1c" opacity=".76" d="M263.86 312.83c-2.74 1.62-5.13-2.36-1.15-2.16l1.15 2.16z"/></svg>