<svg xmlns="http://www.w3.org/2000/svg" width="512" height="512" viewBox="0 0 384 384" xmlns:v="https://vecta.io/nano"><path fill="#a09588" d="M194.36 5.35l3.43.12-.14 6.02-3.57.26.01 2.8 10.53 1.04.07-2.88-3.17-.54.58-5.96 3.45.24c2.77 4.21 3.62 9.13 1.68 13.87l-.03.36c-4.47 1.34-9.05.49-13.11-1.7-.12 2.82-.25 5.65-.21 8.48-2.75.83-5.35 2.06-8.02 3.1l-1.04 2.9-3.07 1.12c.09-2.33.19-4.66.4-6.99l.38-4.34c-1.66.81-2.98 2.09-4.03 3.59l-5.45-.35c.51-6.7 9.7-7.6 14.36-4.48l5.32-3.58-3.18-2.37c.33-4.06 2.2-7.65 4.81-10.71z"/><path fill="#c8b8a3" d="M194.09 18.98c4.06 2.19 8.64 3.04 13.11 1.7.15 2.39.46 4.76.75 7.13l-3.15.41c-3.61-.54-7.26-.97-10.92-.76-.04-2.83.09-5.66.21-8.48z"/><path fill="#706155" d="M207.23 20.32c3.82 4.54 10.93 2.76 14.46 7.93l-.34 3.17c-1.58-.14-3.17-.26-4.75-.35-.89-1.46-1.74-2.95-2.45-4.51-.37 4.16-1.67 8.15-2.53 12.22l2.8-.03 1.09-3.81c1.48.39 3 .67 4.44 1.21l.36 2.59-.5 1.64c-2.53 1.03-5.15 1.88-7.81 2.51l-.18 5.74c.66 8.85-1.98 17.55-.87 26.39 0 5.25 3.11 9.76 3.5 14.94l2.19 2.27c-.42 4.12-.97 8.24-2.27 12.18l1.75.28c-5.09-.7-10.15-1.61-15.2-2.52l3.85-.44-.1-2.57-7.28.65-3.58.46c-.3-4.42-1.61-8.7-3.76-12.56 7.42-1.02 14.85-.35 22.2.89-3.49-2.79-8.05-3.04-12.32-3.41 2.77-.11 6.29.05 8.11-2.47.41-2.32.23-4.7.26-7.05l-6.5-1.51c2.12.11 4.25.1 6.38.11.46-5.5.05-11-.05-16.5 1.54-8.65 1.28-17.48.52-26.2l-2.05-.81-1.16-.4 2.76-.61c-1.13-.53-2.25-1.05-3.4-1.53l3.15-.41c-.29-2.37-.6-4.74-.75-7.13l.03-.36z"/><path fill="#988d8a" d="M290.18 30.02c2.17-3.84 5.97-5.97 9.91-7.61.65 1.11 1.57 1.89 2.78 2.33l-3.09 4.63-3.84-1.21-.86 2.46a187.07 187.07 0 0 1 8.18 6.12l1.79-1.86-2.17-2.99c1.11-1.58 2.19-3.18 3.24-4.79a4.8 4.8 0 0 0 2.96 1.94c.07 5.11-1.29 10.3-5.95 13.09-4.76-.8-7.52-4.49-10.31-8-2.84-.59-5.76-.36-8.63-.26l-.74-2.57c1.93 3.02 5.61 2.05 8.61 2.01l-1.88-3.29z"/><path fill="#292728" d="M193.88 27.46c3.66-.21 7.31.22 10.92.76 1.15.48 2.27 1 3.4 1.53l-2.76.61c-5.74-1.7-16.17-3.05-16.95 5.26-1.3 7.32-.76 14.78-.77 22.18l4.35-.36c-1.09 2.29-2.4 4.49-4.35 6.15.03 7.24 2.8 14.66.01 21.73l-.54.76c-.07-14.88-1.37-29.8-.04-44.72.04-2.37-.1-4.75-.27-7.11l-2.82 4.36-.08.09a73.77 73.77 0 0 0-.45-2.98c-.46-.08-1.37-.22-1.83-.29l.05-.85 3.07-1.12 1.04-2.9c2.67-1.04 5.27-2.27 8.02-3.1z"/><path fill="#030303" opacity=".76" d="M214.15 26.56c.71 1.56 1.56 3.05 2.45 4.51l4.75.35-3 .57c1.39 1.98 3.24 4.21 1.96 6.75l-.36-2.59c-1.44-.54-2.96-.82-4.44-1.21l-1.09 3.81-2.8.03c.86-4.07 2.16-8.06 2.53-12.22z"/><path fill="#020202" opacity=".76" d="M174.71 30.64c2.41-1.18 4.93-2.11 7.44-3.05l-.4 6.99-.05.85-1.78-.3-1.56-3.81-3.65-.68z"/><path fill="#9f9ea8" d="M270.94 30.6c.93-.86 1.57-1.92 1.85-3.17 3.8.41 8.28.28 10.66 3.87l.74 2.57c-1.92.82-3.13 2.55-4.32 4.16l2.5 1.56c-2.61.75-5.23 1.53-7.97 1.62 1.28-1.6 2.51-3.26 3.65-4.96 3.17-3.33.54-6.12-2.67-2.54a153.3 153.3 0 0 0-4.44-3.11z"/><path fill="#9e8c79" d="M188.49 35.62c.78-8.31 11.21-6.96 16.95-5.26l1.16.4c-3.77-.1-7.54-.29-11.29-.65.96 7.76-2.84 16.46 1.09 23.58l-6.17 2.24c-1.68-6.69.25-13.65-1.74-20.31z"/><path fill="#e2cfb7" d="M195.31 30.11c3.75.36 7.52.55 11.29.65l2.05.81c.76 8.72 1.02 17.55-.52 26.2-2.92-1.94-6.37-2.54-9.82-2.05.1-.37.28-1.11.37-1.48l-2.28-.55c-3.93-7.12-.13-15.82-1.09-23.58z"/><path fill="#9a999f" d="M175.8 36.99c-2.3-1.4-5.31-5.37-1.09-6.35l3.65.68 1.56 3.81 1.78.3 1.83.29.45 2.98c-2.83.22-5.87.17-8.18-1.71z"/><path fill="#9b9aa2" d="M268.01 34.41l4.34 1.61-.01 4.96.95 1.41 2.15 2.79-1.92 1.7c-1.72-1.5-3.58-2.86-5.02-4.65l-2.14-5.3 1.65-2.52z"/><path fill="#c0af98" d="M279.87 38.03c1.19-1.61 2.4-3.34 4.32-4.16 2.87-.1 5.79-.33 8.63.26 2.79 3.51 5.55 7.2 10.31 8l-4.22 6.29c-4.71-4.22-10.27-7.58-16.54-8.83-.85-.5-1.67-1.03-2.5-1.56z"/><path opacity=".78" d="M184.06 38.61l2.82-4.36.27 7.11-3.25 4.41c-4.63 1.29-14.63-4.51-8.1-8.78 2.31 1.88 5.35 1.93 8.18 1.71l.08-.09z"/><path fill="#88796a" d="M187.72 57.8c.01-7.4-.53-14.86.77-22.18 1.99 6.66.06 13.62 1.74 20.31l6.17-2.24 2.28.55-.37 1.48c-4.82 4.44-3.21 12.94-.35 18.23l-2.46.06.12.92c.22 2.97.24 5.95.37 8.93l1.91-1.25 1.17 2.53c-3.4-.49-6.82.04-9.82 1.74l-1.52-1.56c2.79-7.07.02-14.49-.01-21.73 1.95-1.66 3.26-3.86 4.35-6.15l-4.35.36z"/><path fill="#1a1818" opacity=".67" d="M272.35 36.02l5.7.23-3.65 4.96-1.11 1.18-.95-1.41c-.09-1.65-.05-3.3.01-4.96z"/><path fill="#010101" opacity=".78" d="M212 42.89c2.66-.63 5.28-1.48 7.81-2.51-.23 1.42-.3 2.87-.37 4.31-2.4 1.57-4.96 2.88-7.62 3.94l.18-5.74z"/><path fill="#4f443d" d="M274.4 41.21c2.74-.09 5.36-.87 7.97-1.62 6.27 1.25 11.83 4.61 16.54 8.83 1.1 1.75 2.06 3.59 3.03 5.42l2.31-.62c-1.74 2.83-4.35 4.95-6.26 7.64-.66.99-1.27 2.01-1.89 3.02l-3.9 6.28c-5.49 9.37-13.8 17.28-16.33 28.24-1.27 1.48-2.61 2.89-3.92 4.33l-1.64-1.21c-3.95-3.08-7.79-6.34-12.23-8.72l-4.32-2.57 4.7-.62c3.92 2.71 7.5 5.99 11.8 8.1 3.25-1.35 4.28-5.08 5.18-8.16-4.28.62-8.82-1.54-8.58-6.41.3.02.92.08 1.22.1 3.08 1.79 5.87 4.03 8.8 6.04 3.63-6.06 6.59-12.55 11.13-18.04 3.92-6.28 7.88-12.56 11.28-19.15l-9.18-7.13-3.39-2.45c-2.66.79-5.35 1.6-7.71 3.1l-1.18-2.53-2.39 2.1c-.73-.92-1.46-1.84-2.15-2.79l1.11-1.18z"/><path opacity=".77" d="M263.42 42.45c1.56-.8 3.4-.19 5.08-.22 1.44 1.79 3.3 3.15 5.02 4.65l1.92-1.7 2.39-2.1 1.18 2.53-5.18 7.36V51.2c-5.76 4.36-11.5-3.11-10.41-8.75m5.9 2.69c-1.68.44-1.07 3.31.69 2.73 1.76-.39 1.1-3.4-.69-2.73z"/><path fill="#af9c86" d="M279.01 45.61c2.36-1.5 5.05-2.31 7.71-3.1l3.39 2.45c-7 3.04-9.01 11.31-13.55 16.85 1.27 5.14 6.7 8.04 11.45 9.43-4.54 5.49-7.5 11.98-11.13 18.04-2.93-2.01-5.72-4.25-8.8-6.04-2.12-1.14-4.29-2.18-6.5-3.15 3.22-6.22 6.75-13.69 14.57-14.75l-6.19-1.66c.84-3.04 1.69-6.08 2.84-9.02l1.03-1.69c1.73-2.46 3.38-4.96 5.18-7.36m-6.67 28.94a45.46 45.46 0 0 0 1.67 7.57l5.91-2.33c-.46-2.35.07-5.25-1.54-7.17-2.12-.35-4.07 1.31-6.04 1.93z"/><path fill="#847665" d="M303.13 42.13c1.57 6.13 11.94 9.88 7.16 17.11l-4.54-3.12c1.36-2.01.58-7-1.5-2.9l-2.31.62c-.97-1.83-1.93-3.67-3.03-5.42l4.22-6.29z"/><path fill="#d2bea7" d="M276.56 61.81c4.54-5.54 6.55-13.81 13.55-16.85 3.13 2.29 6.15 4.72 9.18 7.13-3.4 6.59-7.36 12.87-11.28 19.15-4.75-1.39-10.18-4.29-11.45-9.43z"/><path fill="#060606" opacity=".78" d="M304.25 53.22c2.08-4.1 2.86.89 1.5 2.9-.03 2.03.64 3.97 1.07 5.94l-3.6-2.49-2.61 1.83-2.62-.54c1.91-2.69 4.52-4.81 6.26-7.64z"/><path fill="#bea78d" d="M119.32 52.45c5.31.16 10.67-.22 15.94.57-5.84.45-14.14-.81-16.27 6.39 4.6.7 9.45 2.56 10.91 7.45 1.13-.46 2.32-.61 3.5-.24.64-3.09 1.54-6.14 1.87-9.29l6.96 1.3-4.55.23c-.27 4.86.63 9.66 2.03 14.3-1.91 1.17-3.74 2.47-5.59 3.72 2.47 2.19 5.04 4.26 7.69 6.23.89 1.44 1.69 2.92 2.51 4.4 4.09-1.13 8.2-2.2 12.33-3.19l-.47-4.02c1.55 1 2.74 2.42 3.9 3.83-1.95 2.09-2.63 4.85-2.94 7.6l-6.77-3.93c1.46 2.16 2.8 4.39 4.12 6.63-3.68-2.22-7.77-3.68-12.07-4.09l-.48 5.67c-1.33-4.36-5.15-5.76-9.29-4.19l2.46-2.12 2.97-1.63a78.58 78.58 0 0 0-8.35-8.07c-2.48 5.04-7.46 7.96-12.83 5.04-3.42-4-9.94-8.35-4.76-13.74l1.4-2.21c-3.13-3.32-7.52-4.59-11.99-4.45-.51 2.05-1.02 4.1-1.69 6.11-1.93 6.76-9.17 7.26-14.85 5.2 1.54-1.23 3.14-2.45 5.08-2.94l7.32-.61-.35-8.73-.16-4.88c-3.89-.15-7.78-.11-11.66.2l-2.29 2.85.6-3.96c5.75-.07 11.58.72 17.22-.75l2.21 3.21c5.05-1.69 10.37-2.24 15.64-2.86l.7-5.03m-2.93 17.84c-1.76 1.65-4.22 3.81-3.98 6.37 2.82 3.37 6.78 5.61 10.3 8.19 1.4-2.33 4.07-4.54 3.82-7.44-3.1-2.67-6.27-5.67-10.14-7.12m10.99 8.74c2.36-.27 4.64-.94 6.77-2.01l-3.28-3.36c-1.46 1.58-2.66 3.38-3.49 5.37z"/><path fill="#f1dbbd" d="M118.99 59.41c2.13-7.2 10.43-5.94 16.27-6.39a88.44 88.44 0 0 1 .01 4.31c-.33 3.15-1.23 6.2-1.87 9.29-1.18-.37-2.37-.22-3.5.24-1.46-4.89-6.31-6.75-10.91-7.45z"/><path fill="#69615f" opacity=".97" d="M253.24 87.32c6.35-10.99 12.04-22.38 19.56-32.66-1.15 2.94-2 5.98-2.84 9.02l6.19 1.66c-7.82 1.06-11.35 8.53-14.57 14.75 2.21.97 4.38 2.01 6.5 3.15-.3-.02-.92-.08-1.22-.1-5.23-1.45-9.21 2.17-13.62 4.18z"/><path fill="#d9c7ad" d="M198.31 55.72c3.45-.49 6.9.11 9.82 2.05.1 5.5.51 11 .05 16.5-2.13-.01-4.26 0-6.38-.11a61.73 61.73 0 0 0-3.84-.21c-2.86-5.29-4.47-13.79.35-18.23m-.59 8.27c1.56 1.95 2.3 5.32 5.12 5.72 1.78-1.11 2.91-2.93 4.24-4.5-1.73-2.23-3.11-5.01-5.95-5.99l-3.41 4.77z"/><path fill="#d1bba2" d="M82.95 61.84l2.29-2.85c3.88-.31 7.77-.35 11.66-.2l.16 4.88c-4.4-2.58-9.32-.88-13.59 1.04-.04 2.9-.05 5.8.08 8.7l6.54-.4c-1.94.49-3.54 1.71-5.08 2.94-3.67-1.03-6.55-3.59-6.78-7.59l-2.46.94c.87 2.72.47 5.57-1.03 8-3.76 3.33-8.52 5.42-13.61 5.16l-.98-2.37c4.58-1.13 9.03-2.89 12.69-5.94-.52-1.81-1-3.63-1.44-5.46l2.46.48-1.63-4.06 4.99-1.98c1.79-.31 3.59-.52 5.38-.84l.35-.45z"/><path fill="#efd7be" d="M137.68 58.86l4.55-.23c5.51.34 10.32 3.05 15.27 5.2 4.08.86 4.91 5.37 6.69 8.5-4.08 1.25-4.2 5.18-3.49 8.72-3.57-2.17-7.16-4.33-10.91-6.15 1.33 2.63 3.76 4.24 6.39 5.4l.47 4.02c-4.13.99-8.24 2.06-12.33 3.19-.82-1.48-1.62-2.96-2.51-4.4 1.33.38 2.69.7 4.05 1.02.54-4.44.7-8.92.69-13.39-2.37.53-4.75 1.15-6.84 2.42-1.4-4.64-2.3-9.44-2.03-14.3m14.45 11.4c-4.13 2.68 3.38 2.71 0 0z"/><path fill="#91897c" d="M197.72 63.99l3.41-4.77c2.84.98 4.22 3.76 5.95 5.99-1.33 1.57-2.46 3.39-4.24 4.5-2.82-.4-3.56-3.77-5.12-5.72z"/><path fill="#7c7b80" d="M300.61 61.4l2.61-1.83 3.6 2.49-1.2 3.24c-3.24.09-6.5-.18-9.52-1.42l1.89-3.02 2.62.54z"/><path fill="#c6b197" d="M157.5 63.83c3.76-6.33 9.5 2.2 13.92 3.93-.66 6.34-4.82 11.15-10.72 13.29-.71-3.54-.59-7.47 3.49-8.72-1.78-3.13-2.61-7.64-6.69-8.5z"/><path fill="#bda58b" d="M54.47 67.76c4.11-2.12 8.26-4.18 12.45-6.16l2.1 3.18c2.69-.75 5.43-1.28 8.2-1.65-1.68.61-3.33 1.31-4.99 1.98l1.63 4.06-2.46-.48c-5.01-2.79-9.7 2.88-14.25 4.53l3 6.87.98 2.37c-3.7-.65-4.53-4.64-6.02-7.48-3.73 3.3-7.1 6.93-11.33 9.61-2.14 2.74-3.81 5.81-5.73 8.71 2.31 1.69 4.66 3.34 7.07 4.89l3.55-4.53 4.77-6.09a111.45 111.45 0 0 1-2.26-4.16c7.04 1.96 2.77 8.72-.46 12.2 3.16 3.37 5.77 7.2 7.39 11.56l-1.93 6.21 5.75-.12c-1.55 3.24-1.2 6.91-1.41 10.39l-2.22.42c.26-3.03.28-6.07-.08-9.09-6.7 1.82-13.48.06-20.22-.29l-.03 9.64-9.8-1.79c1.62-10.11 2.21-20.78 8.47-29.36l-3.68-3.27c2.63-3.78 5.4-7.45 8.15-11.15l4.76 2.07c3.11-3.33 6.35-6.54 9.89-9.42l-1.29-3.65M37.24 97.13c-4.98 7.29-5.2 16.45-6.37 24.9 1.37-.11 2.73-.2 4.1-.26l1.7-8.1c2.7-.42 6.98-1.78 6.51-5.17-1.72-.4-3.46-.65-5.19-1.04.74-2.93 2.42-5.48 3.78-8.14l-4.53-2.19m10.56 12.7a210.64 210.64 0 0 0 8.3-.94c-.92-3.01-1.92-6-3.02-8.96-4.37 1.04-5.29 6.07-5.28 9.9z"/><path fill="#feefda" d="M83.47 64.71c4.27-1.92 9.19-3.62 13.59-1.04l.35 8.73-7.32.61c-2.18.18-4.36.28-6.54.4-.13-2.9-.12-5.8-.08-8.7z"/><path fill="#010000" opacity=".78" d="M292.2 70.16l3.9-6.28c3.02 1.24 6.28 1.51 9.52 1.42l-.19.42-2.59.14c-.08 5.86-6.62 4.26-10.64 4.3z"/><path fill="#fef0d1" d="M101.55 64.64c4.47-.14 8.86 1.13 11.99 4.45l-1.4 2.21c-3.94-1.06-8.54-3.38-12.28-.55.67-2.01 1.18-4.06 1.69-6.11z"/><path fill="#fff5e0" d="M57.15 73.22c4.55-1.65 9.24-7.32 14.25-4.53.44 1.83.92 3.65 1.44 5.46-3.66 3.05-8.11 4.81-12.69 5.94l-3-6.87z"/><path d="M75.77 69.3l2.46-.94c.23 4 3.11 6.56 6.78 7.59 5.68 2.06 12.92 1.56 14.85-5.2 3.74-2.83 8.34-.51 12.28.55-5.18 5.39 1.34 9.74 4.76 13.74 1.96 2.65 5.09 3.8 8.08 4.86-2.06 2.72-4.35 5.26-6.85 7.58l-2.34-1.21.11 3.04 1.95.81-.16.74c-3.41 5.58-.08 11.53 1.58 17.07 2.53.48 5.09.88 7.67.78a55.13 55.13 0 0 1 7.15.34l.28-2.61c2.37 1.03 4.72 2.26 6.33 4.34-1.24.93-2.42 1.93-3.59 2.94l-7.23.22c-2.48-.58-5.36-2.19-7.57-.08-6.03-.37-12.07-.15-18.1.05-1.76-2.24-4.11-3.88-6.79-4.86-1.54-4.23-3.32-8.38-5.7-12.22l4.72-2.61-5.36-.44c.01-5.05-.02-10.11-.53-15.14-1.43 4.89.76 12.8-5.9 14.18.14 4.17 2.97 6.24 6.96 6.05 1.84 3.42 3.11 7.08 4.05 10.84-3.16 2.35-6.73 4.21-10.79 3.57l1.44-1.66c5.13-3.57 3.82-11.1-2.24-12.69l-1.24-4.26-8.3.41 4.74 3.26.07 1.72-2.56 3.04-1 1.22c-4.09-3.06-9.3-3.26-13.85-1.06.77-1.56 1.49-3.15 2.17-4.75 3.35-.65 6.68-1.44 9.95-2.44l-1.27-3.87c-3.23-3.38-8.09-1.54-12.02-3.22l.08-4.58-2.93-1.97c.12-3.02.08-6.05-.03-9.07 6.04-.02 14.91 1.85 16.86-6.06 1.5-2.43 1.9-5.28 1.03-8m35.97 23.9c.3 1.88.63 3.75 1 5.62l-2.82 4.18 2.76-.47c1.22-3.09 2.76-7.25-.94-9.33m-8.13 8.32l1.48 2.64 4.34-.54c-1.65-1.35-3.77-1.73-5.82-2.1zm39.54 40.27c-.62-2.02-1.44-5.6 1.85-5.32 3.16-.17 2.32 3.38 1.84 5.35-1.23-.17-2.46-.18-3.69-.03zm3.59 6.97c1.35 8.44.23 17.04.68 25.55l.03 9.84 4.2-.05c-.34 1.41-.7 2.83-.94 4.27-2.77-1.54-6.1-3.92-9.3-1.97-4.71 2.02-3.91 10.61 1.51 10.9 3.4 1.02 6.23-1.04 8.39-3.42 1.2 4.13 1.15 8.45.43 12.66l-4.89 1.45c-1.98 3.27-3.31 6.95-2.5 10.81-7.22.24-12.05-8.54-19.58-4.54l-1.19 2.27c-2.88 3.81-7.56 8.69-3.89 13.58 2.53 6.43 11.25 7.5 13.2 13.99a100.15 100.15 0 0 0-7.94.31c-7.38.44-15.39 4.86-16.67 12.73l-2.24-1.88c-4.97.03-10.41-.5-14.4-3.75-1.46-7.92-.38-16.08-.23-24.09l5.4-.56c-1.24-1.37-2.9-2.15-4.58-2.82l1.66-5.47c.7-4.62 3.8-7.92 8.24-9.16l-4.43-1.12 2.47-1.09c2.52-.08 5.05-.06 7.58.01 12.19 1.63 24.99-1.36 36.79 3.62-1.51-2.13-3.85-3.3-6.18-4.3l-.37-3.26-.36-3.33c-7.44.25-15.39.24-22.2-3.03.89-1.86 1.32-3.87 1.19-5.93l-4.15 1.62-.65-4.99c3.13-2.01 6.79-1.93 10.23-.88l3.22-3.04 2.91.48c3.13.66 6.13 1.85 9.08 3.08l1.4-3.35 7.87-.03c-.3-11.71-.09-23.41.21-35.11m-42.95 89.43c-.92-3.42-.71-6.88 1.11-9.97-4.24 1.26-4.86 7.72-1.11 9.97z" fill="#fffffa"/><path fill="#ab947e" d="M171.42 67.76l2.12 1.35-1.52 4.03c4.68 4.83 9.49 9.55 13.98 14.58l1.19-1.64.54-.76 1.52 1.56.8.83c2.15 3.86 3.46 8.14 3.76 12.56l3.58-.46 2.83 2.28c-4.44-.23-8.89-.42-13.24-1.37-8.34-.88-2.09-10.51-6.47-14.64-2.88-3.58-6.27-6.74-10.05-9.35-.8 4.37 2.3 7.6 5.21 10.36 1.57 1.02 3.41 1.38 5.22 1.7-2.65 1.29-5.21 2.78-7.79 4.21l3.27 6.12-12.64-1.2-.62 1.93-2.52-.06-.91 2.09c-2.54-1.45-5.14-2.76-7.72-4.13-.28 4.53-.33 10.09 4.37 12.43l3.77-5.31c.25 3.56.6 7.1 1.06 10.64-1.96 1.19-3.86 2.5-5.76 3.79l-.73 5.5c-.32 1.78-.71 3.54-1.11 5.3l-.55-3.33-.43-2.56-6.73-.42c1.32-1.69 2.52-3.49 3.54-5.37l.39-.85c.09 1.93.28 3.85.46 5.77 5.64.91 2.48-4.26 1.98-7.45-.95-5.2-1.47-10.48-1.49-15.76a110.92 110.92 0 0 1-4.89 1.83l.97 2.84c-3.82 4.71-9.92 4.72-15.11 2.51-.18 2.7.5 6.65-2.93 7.54-4.97 2.23-8.19-3.73-9.25-7.68.64-4.45 5.29-9.66 10.02-6.68l.54-5.84c2.78 3.5 5.21 7.26 7.44 11.13l7.23-3-2.81-6.77c.11-1.9.31-3.78.48-5.67 4.3.41 8.39 1.87 12.07 4.09-1.32-2.24-2.66-4.47-4.12-6.63 2.24 1.35 4.51 2.62 6.77 3.93.31-2.75.99-5.51 2.94-7.6-1.16-1.41-2.35-2.83-3.9-3.83-2.63-1.16-5.06-2.77-6.39-5.4 3.75 1.82 7.34 3.98 10.91 6.15 5.9-2.14 10.06-6.95 10.72-13.29m-10.16 14.3l1.5 2.95c-2.61 2.31-4.25 5.69-3.91 9.22 1.47 4 6.38 2.86 9.59 2.17-1.19-5.56-4.36-11.88-.47-17.04-2.26.85-4.49 1.76-6.71 2.7z"/><path fill="#fffbe5" d="M116.39 70.29c3.87 1.45 7.04 4.45 10.14 7.12.25 2.9-2.42 5.11-3.82 7.44-3.52-2.58-7.48-4.82-10.3-8.19-.24-2.56 2.22-4.72 3.98-6.37z"/><path fill="#c2a990" d="M152.13 70.26c3.38 2.71-4.13 2.68 0 0z"/><path d="M139.71 73.16c2.09-1.27 4.47-1.89 6.84-2.42.01 4.47-.15 8.95-.69 13.39-1.36-.32-2.72-.64-4.05-1.02-2.65-1.97-5.22-4.04-7.69-6.23 1.85-1.25 3.68-2.55 5.59-3.72zm14.28 94.78c3.97-.27 7.96-.6 11.93-.14 4.77 2.08 10.08 5.43 9.7 11.4l-6.84-.32c9.77 6.01 4.25 18.19 3.34 27.13-3.38 2.35-4.79 6.31-6.53 9.86-8.4-1.9-11.19-11.38-11.83-18.9-.6-5.56 3.4-11.69-.3-16.7-.08-1.3-.21-2.59-.34-3.88.16-2.83.61-5.63.87-8.45zm-14.1 83.36l5.79-2.36c3.96 4.8 1.49 10.24-.76 15.12-2.4-1.58-4.33-3.73-5.33-6.45l3.32-.35-.11-3.13-2.7-.18-1.66 3.38-2.68-.09-1.55-2.72c1.88-1.09 3.75-2.21 5.68-3.22z" fill="#fffffe"/><path fill="#786e63" d="M272.34 74.55c1.97-.62 3.92-2.28 6.04-1.93 1.61 1.92 1.08 4.82 1.54 7.17l-5.91 2.33a45.46 45.46 0 0 1-1.67-7.57z"/><path fill="#81705d" d="M127.38 79.03c.83-1.99 2.03-3.79 3.49-5.37l3.28 3.36c-2.13 1.07-4.41 1.74-6.77 2.01z"/><path fill="#3e362e" d="M195.5 74.01l2.46-.06 3.84.21 6.5 1.51c-4.11 2.57-8.9 2.28-12.68-.74l-.12-.92z"/><path fill="#e2cab2" d="M43.78 84.59c4.23-2.68 7.6-6.31 11.33-9.61 1.49 2.84 2.32 6.83 6.02 7.48 5.09.26 9.85-1.83 13.61-5.16-1.95 7.91-10.82 6.04-16.86 6.06-3.67 4.52-3.43 11.57-.35 16.37 4.67 2.85 9.91 3.25 15.25 2.47.45 1.28.86 2.58 1.27 3.87-3.27 1-6.6 1.79-9.95 2.44-.68 1.6-1.4 3.19-2.17 4.75-1.92.07-3.84.1-5.75.12l1.93-6.21c-1.62-4.36-4.23-8.19-7.39-11.56 3.23-3.48 7.5-10.24.46-12.2a111.45 111.45 0 0 0 2.26 4.16l-4.77 6.09c-.34-3.58-.2-7.18.07-10.76-1.66.54-3.33 1.06-4.96 1.69z"/><path fill="#b4a48f" d="M195.62 74.93c3.78 3.02 8.57 3.31 12.68.74-.03 2.35.15 4.73-.26 7.05-1.82 2.52-5.34 2.36-8.11 2.47l-.86-.05-1.17-2.53-1.91 1.25c-.13-2.98-.15-5.96-.37-8.93z"/><path fill="#fff5d4" d="M170.46 76.73c3.78 2.61 7.17 5.77 10.05 9.35l-4.84 1.01c-2.91-2.76-6.01-5.99-5.21-10.36z"/><path fill="#73604e" d="M161.26 82.06l6.71-2.7c-3.89 5.16-.72 11.48.47 17.04-3.21.69-8.12 1.83-9.59-2.17-.34-3.53 1.3-6.91 3.91-9.22l-1.5-2.95z"/><path fill="#fff5d6" d="M116.9 85.04c5.37 2.92 10.35 0 12.83-5.04a78.58 78.58 0 0 1 8.35 8.07l-2.97 1.63c-6.26 2.74-12.84 5.94-17.42 11.16l.16-.74-1.95-.81-.11-3.04 2.34 1.21c2.5-2.32 4.79-4.86 6.85-7.58-2.99-1.06-6.12-2.21-8.08-4.86z"/><path fill="#9e9da5" d="M356.12 80.38l3.04-1.09c4.25 2.44 7.1 6.46 7.19 11.47-3.11-.09-6.21-.36-9.3-.74l.77-.31 4.06-1.79-.28-2.48-4.02.24a153.08 153.08 0 0 0-1.46-5.3z"/><path fill="#817568" d="M232.15 80.88l2.59 1.09c-.29 2.32-1.2 4.49-2.28 6.54 4.92.9 9.51 2.94 13.79 5.48 2.2-2.35 4.61-4.49 6.99-6.67 1.42.5 2.84 1.01 4.19 1.67l1.03.62-4.7.62 4.32 2.57-2.99 6.34c.91 2.12 1.77 4.28 2.92 6.29a37.12 37.12 0 0 0-6.21.95l-5.1-2.77-.45-2.75c-6.86-3.37-14.01-4.22-21.51-4.37-1.12 1.93-1.43 4.15-1.06 6.35l.25 1.09c-1.15-.82-2.27-1.68-3.34-2.59-.44-1.7-.75-3.42-1.12-5.13 4.98-4.45 8.23-10.4 12.68-15.33z"/><path fill="#5d513e" d="M234.74 81.97c3.67 1.6 7.23 3.42 10.81 5.21l.7 6.81c-4.28-2.54-8.87-4.58-13.79-5.48 1.08-2.05 1.99-4.22 2.28-6.54z"/><path fill="#8f8e93" d="M348.15 95.35c-.92-4.48-2.2-11.58 3.32-13.5l1.88 4.4-2.61 3.79.68 2.03.96 3.02-4.23.26z"/><path fill="#fff8dd" d="M43.78 84.59l4.96-1.69c-.27 3.58-.41 7.18-.07 10.76l-3.55 4.53c-2.41-1.55-4.76-3.2-7.07-4.89 1.92-2.9 3.59-5.97 5.73-8.71z"/><path fill="#baa890" d="M253.24 87.32c4.41-2.01 8.39-5.63 13.62-4.18-.24 4.87 4.3 7.03 8.58 6.41-.9 3.08-1.93 6.81-5.18 8.16-4.3-2.11-7.88-5.39-11.8-8.1-.26-.15-.77-.46-1.03-.62-1.35-.66-2.77-1.17-4.19-1.67z"/><path fill="#fee9c7" d="M57.53 99.73c-3.08-4.8-3.32-11.85.35-16.37.11 3.02.15 6.05.03 9.07l2.93 1.97-.08 4.58c3.93 1.68 8.79-.16 12.02 3.22-5.34.78-10.58.38-15.25-2.47z"/><path fill="#3c342d" d="M189.25 86.88c3-1.7 6.42-2.23 9.82-1.74l.86.05c4.27.37 8.83.62 12.32 3.41-7.35-1.24-14.78-1.91-22.2-.89l-.8-.83z"/><path fill="#d4bfa4" d="M175.67 87.09l4.84-1.01c4.38 4.13-1.87 13.76 6.47 14.64-2.03.19-3.88 1.04-5.7 1.89l-1.09-2.33-6.32.05 3.55 4.03-.28 4.21 1.99-1.59c2.09 2.69 3.88 6.12 7.25 7.35 2.41.02 4.67-.98 6.94-1.65l.4-3.36c5.33-1.51 11.55-5.08 16.54-.77l3.47-1.18c2.56 6.18-4.83 8.19-7.75 12.05-1.81 2.57-3.97 4.85-6.09 7.16l.23-1.21-4.97 3.08-5.41-9.59c-2.66 2.19-5.95 4.17-7.24 7.51 1.54 6.65-1.17 13.17-1.16 19.84l-.61-3.3c-2.9 1.8-2.83 5.33-3.17 8.35l-2.48.48c-.8 4.73.43 12.53-6.72 11.55 2.1-2.22 4.95-4.71 4.13-8.14-.47-2.55-3.84-1.77-5.69-2.45 2.82-1.28 6.51-2.09 7.72-5.33 3.79-8.64-4.35-17.92-.03-26.44-1.54 1.24-3.11 2.45-4.68 3.65-2.2-3.37-3.91-7.01-5.06-10.87l6.97 1.21-1.67-1.72a193.55 193.55 0 0 0 9.32-.23c-2.24-1.74-4.78-4.35-7.9-3.45-3.66 1.57-6.83 4.07-10.31 5.99-.46-3.54-.81-7.08-1.06-10.64l-3.77 5.31c-4.7-2.34-4.65-7.9-4.37-12.43l7.72 4.13.91-2.09 2.52.06.62-1.93c4.22.31 8.43.74 12.64 1.2L173.1 93c2.58-1.43 5.14-2.92 7.79-4.21-1.81-.32-3.65-.68-5.22-1.7M194 116.07c3.39 1.91 7.32 1.81 11.08 1.67-2.79-2.9-8.02-5.85-11.08-1.67m-19.38 7.75c3.74.04 7.63-.26 10.19-3.32-4.24-3.6-7.78-.52-10.19 3.32z"/><path fill="#262425" opacity=".71" d="M353.35 86.25c1.4 1.27 2.94 2.35 4.47 3.46l-.77.31-3.56 1.26-2.07.79-.68-2.03 2.61-3.79z"/><path opacity=".77" d="M343.04 101.24c-4.06-3.85-4.66-12.77 1.65-14.48 1.73 2.87 1.34 5.88-.6 8.52l4.06.07c1.41-.05 2.82-.17 4.23-.26l1.82.92c-1.77.96-3.54 1.93-5.35 2.81-1.92.84-3.86 1.66-5.81 2.42z"/><path fill="#d9c2b0" d="M84.65 102.82c6.66-1.38 4.47-9.29 5.9-14.18.51 5.03.54 10.09.53 15.14l5.36.44-4.72 2.61c2.38 3.84 4.16 7.99 5.7 12.22 2.68.98 5.03 2.62 6.79 4.86-14.56.29-29.13-.22-43.69-.26.21-3.48-.14-7.15 1.41-10.39 4.55-2.2 9.76-2 13.85 1.06l1-1.22c-1.04 5.97 4.42 8.67 9.53 8.52l-1.44 1.66c4.06.64 7.63-1.22 10.79-3.57-.94-3.76-2.21-7.42-4.05-10.84-3.99.19-6.82-1.88-6.96-6.05m-21.37 14.92c1.46 6.24 7.63 6.29 12.8 5.4-.94-6.48-7.46-8.32-12.8-5.4z"/><path fill="#90888c" d="M372.19 91.05c3.76-1.78 7.87-1.62 11.81-.55v3.98c-1.32.53-2.64 1.02-3.96 1.52l-1.92-3.02-2.59.93c1.24 3.35 2.39 6.73 3.43 10.16l2.63-.48-.25-3.28 2.66-1.79v7.83c-2.6 1.22-5.41 1.87-8.23 2.31-2.52 5.5 2.13 11.27-1.08 16.8l-3.04 1.09-1.74-5.05 2.53-1.75.49-2.33-4.73-.7c.25-1.8.52-3.6.65-5.42 2.29-1.32 4.5-2.77 6.74-4.18-3.44-3.29-3.66-8.02-3.92-12.46l.52-3.61z"/><path fill="#ead1bc" d="M117.69 100.86c4.58-5.22 11.16-8.42 17.42-11.16l-2.46 2.12c4.14-1.57 7.96-.17 9.29 4.19a247.66 247.66 0 0 0 2.81 6.77c-2.39 1.05-4.83 1.99-7.23 3-2.23-3.87-4.66-7.63-7.44-11.13l-.54 5.84c-4.73-2.98-9.38 2.23-10.02 6.68 1.06 3.95 4.28 9.91 9.25 7.68 3.43-.89 2.75-4.84 2.93-7.54 5.19 2.21 11.29 2.2 15.11-2.51 1.42 4.41 2.19 9.01 2.58 13.62-1.02 1.88-2.22 3.68-3.54 5.37l6.73.42.43 2.56c-5.26-2.68-10.62-.09-15.98.37l.08-3.42c1.17-1.01 2.35-2.01 3.59-2.94 5.26-.38 6.17-6.51 3.23-9.9-7.39-4.06-10.62 6.3-16.99 7.83-2.58.1-5.14-.3-7.67-.78-1.66-5.54-4.99-11.49-1.58-17.07z"/><path fill="#c8b6a0" d="M353.49 91.28l3.56-1.26 9.3.74 5.32 3.9c.26 4.44.48 9.17 3.92 12.46-2.24 1.41-4.45 2.86-6.74 4.18-1.53-7.63-4.66-17.65-13.81-18.52l-1.55-1.5z"/><path fill="#423f3f" d="M351.42 92.07l2.07-.79 1.55 1.5c9.15.87 12.28 10.89 13.81 18.52-.13 1.82-.4 3.62-.65 5.42l4.73.7-.49 2.33.05-2.21-4.24 1.3c-1.98.49-3.96.9-5.95 1.29l-.53 2.57-.98-.18c.42-3.85 3.89-5.94 6.17-8.67-1.21-4.78-2.25-9.77-4.81-14.02-3.51-3.77-9.04-2.55-13.3-1.01 1.81-.88 3.58-1.85 5.35-2.81l-1.82-.92-.96-3.02z"/><path fill="#b8a48f" d="M255.09 99.14l2.99-6.34c4.44 2.38 8.28 5.64 12.23 8.72-2.64 4.27-4.98 8.99-9.31 11.83l-1.37-.91c.17-1.35.42-2.69.65-4.03-.77-.98-1.54-1.97-2.27-2.98-1.15-2.01-2.01-4.17-2.92-6.29z"/><path fill="#c0ab96" d="M111.74 93.2c3.7 2.08 2.16 6.24.94 9.33l-2.76.47 2.82-4.18-1-5.62z"/><path fill="#f9e1c9" d="M224.74 96.49c7.5.15 14.65 1 21.51 4.37l.45 2.75.24 1.27-2.9 1.26c-6.5-2.54-13.53-2.6-20.36-3.3-.37-2.2-.06-4.42 1.06-6.35z"/><path fill="#fbe3c9" d="M37.24 97.13l4.53 2.19c-1.36 2.66-3.04 5.21-3.78 8.14l5.19 1.04c.47 3.39-3.81 4.75-6.51 5.17l-1.7 8.1-4.1.26c1.17-8.45 1.39-17.61 6.37-24.9z"/><path fill="#e6d0b9" d="M348.85 98.82c4.26-1.54 9.79-2.76 13.3 1.01 2.56 4.25 3.6 9.24 4.81 14.02-7.44 2.72-14.3 6.78-21.83 9.25-1.93-5.84-2.4-12.89-8-16.62 1.46-1.7 3.02-3.34 4.75-4.79l1.16-.45c1.95-.76 3.89-1.58 5.81-2.42z"/><path fill="#1a1512" d="M197.39 99.81l7.28-.65.1 2.57-3.85.44-.7-.08-2.83-2.28z"/><path fill="#88745e" d="M271.95 102.73l3.92-4.33c-.66 3.26-1.66 6.51-1.36 9.87-2.56 2.8-4.24 9.18-8.92 7.97-1.56-.92-3.08-1.9-4.59-2.89 4.33-2.84 6.67-7.56 9.31-11.83l1.64 1.21z"/><path fill="#87745e" d="M47.8 109.83c-.01-3.83.91-8.86 5.28-9.9 1.1 2.96 2.1 5.95 3.02 8.96a210.64 210.64 0 0 1-8.3.94z"/><path fill="#7c6c5a" d="M145.84 101.96l4.89-1.83c.02 5.28.54 10.56 1.49 15.76l-1.86-.38-.58 2.06-.39.85c-.39-4.61-1.16-9.21-2.58-13.62l-.97-2.84z"/><path fill="#f8e4c3" d="M173.87 100.33l6.32-.05 1.09 2.33c1.82-.85 3.67-1.7 5.7-1.89 4.35.95 8.8 1.14 13.24 1.37l.7.08 15.2 2.52.38 1.71-2.77.97-3.47 1.18c-4.99-4.31-11.21-.74-16.54.77l-.4 3.36c-2.27.67-4.53 1.67-6.94 1.65-3.37-1.23-5.16-4.66-7.25-7.35l-1.99 1.59.28-4.21-3.55-4.03z"/><path fill="#4b3e31" d="M220.59 101.34l3.34 2.59c2.03 1.6 4.69 1.86 7.16 2.23l.56 1.74 1.5 5.76c-5.79.66-9.06-4.32-11.49-8.74-.39-1.18-.75-2.38-1.07-3.58z"/><path fill="#d0baa3" d="M103.61 101.52c2.05.37 4.17.75 5.82 2.1l-4.34.54-1.48-2.64z"/><path fill="#7f7262" d="M320.58 111.03c6.58-4.14 14.1-6.5 21.3-9.34-1.73 1.45-3.29 3.09-4.75 4.79 5.6 3.73 6.07 10.78 8 16.62 7.53-2.47 14.39-6.53 21.83-9.25-2.28 2.73-5.75 4.82-6.17 8.67l.98.18 4.24.66a114.25 114.25 0 0 0 1.48 4.77l-3.48.91c-1.1-.81-2.2-1.63-3.25-2.48-1.44-1.42-2.68-3.02-3.96-4.58-2.33.89-4.67 1.77-6.96 2.78-9.5 5.19-21.62 5.98-29.43 13.86-.94-.24-1.88-.46-2.81-.67-.07-2.77-.55-5.52-1.31-8.18.86 1.1 1.79 2.15 2.71 3.2l6.3-2.9.42-1.91.34-1.67c.65.95 1.32 1.89 2 2.82a79.36 79.36 0 0 0 14.84-6.36c-.28-4.85-1.07-10.55-5.42-13.49-8.24-2.29-14.64 5.51-22.61 5.39 1.96-1.18 3.86-2.47 5.71-3.82z"/><path fill="#9b8f8a" d="M223.68 102.84c6.83.7 13.86.76 20.36 3.3-4.11 1.83-8.68.29-12.95.02-2.47-.37-5.13-.63-7.16-2.23l-.25-1.09z"/><path fill="#473e35" d="M246.7 103.61l5.1 2.77a37.12 37.12 0 0 1 6.21-.95l2.27 2.98-.65 4.03 1.37.91 4.59 2.89c-2.26 4.03-5.03 7.81-8.71 10.64l-4.5-.06-1.66-2.03c3.19-3.05 6.31-6.18 9.31-9.43-4.21-3.7-9.44-6.17-13.09-10.48l-.24-1.27z"/><path fill="#e6cdba" d="M74.53 105.08l8.3-.41 1.24 4.26-4.73 1.13-.07-1.72-4.74-3.26z"/><path fill="#b19d86" d="M216.12 104.69l2.9.11c2.02 5.71 2.81 12.15 8.04 16.04l-2.4 2.99a43.03 43.03 0 0 1-4.34 4.51 13.77 13.77 0 0 0-1.65.77c-1 .67-1.98 1.37-2.95 2.07-1.99-3.33-3.66-6.84-5.51-10.25-1.38-.59-2.81-1.05-4.23-1.51 2.92-3.86 10.31-5.87 7.75-12.05l2.77-.97-.38-1.71m-4.28 15.84c4.11-.12 8.23-.15 12.34-.03l-3.52-4.26c-3.54-.14-6.69 1.52-8.82 4.29z"/><path fill="#786856" d="M219.02 104.8l2.64.12c2.43 4.42 5.7 9.4 11.49 8.74 3.04.25 6.2-.32 7.67-3.32-3.54 1.94-7.11 1.07-9.17-2.44l-.56-1.74c4.27.27 8.84 1.81 12.95-.02.97-.4 1.93-.83 2.9-1.26 3.65 4.31 8.88 6.78 13.09 10.48-3 3.25-6.12 6.38-9.31 9.43-3.02.12-6.02.36-9.03.51l-.67-.02c-6.8-.6-16.26-2.74-19.57 5.27l-1.38.76.25-2.97a43.03 43.03 0 0 0 4.34-4.51c6.45.61 12.94.68 19.42.31l.6-3.67c-5.86.58-11.75.49-17.62.37-5.23-3.89-6.02-10.33-8.04-16.04z"/><path fill="#afa8b0" d="M231.65 107.9c2.06 3.51 5.63 4.38 9.17 2.44-1.47 3-4.63 3.57-7.67 3.32l-1.5-5.76z"/><path fill="#837365" d="M79.34 110.06l4.73-1.13c6.06 1.59 7.37 9.12 2.24 12.69-5.11.15-10.57-2.55-9.53-8.52l2.56-3.04m.88 4.12l.11 3.33a98.08 98.08 0 0 1 3.75 1.33c2.23-2.26 1.32-5.3.42-7.93-1.44 1.06-2.86 2.17-4.28 3.27z"/><path d="M171.47 109.52c3.12-.9 5.66 1.71 7.9 3.45l-9.32.23 1.67 1.72-6.97-1.21c1.15 3.86 2.86 7.5 5.06 10.87l4.68-3.65c-4.32 8.52 3.82 17.8.03 26.44-1.21 3.24-4.9 4.05-7.72 5.33 1.85.68 5.22-.1 5.69 2.45.82 3.43-2.03 5.92-4.13 8.14-4.91.31-9.82.23-14.73.21l-.15-4.34c3.52-1.79 7.07-3.53 10.66-5.18l-7.92.72c-.72-2.03-1.63-3.99-2.32-6.02 1.16-5.6.12-11.3.42-16.94l2.09-.91c-.61-2-1.23-4-1.74-6.03l.73-5.5c1.9-1.29 3.8-2.6 5.76-3.79 3.48-1.92 6.65-4.42 10.31-5.99zM38 114.69c6.74.35 13.52 2.11 20.22.29.36 3.02.34 6.06.08 9.09-5.95 1.1-12.03.36-18.04.71l-2.29-.45c-.06-3.21.01-6.43.03-9.64zm189.12 44.14c-.78-2.16-3.52-4.34-1.81-6.71 7.48 7.71 7.1 20.32-.62 27.73l-.94-1.69c3.94-5.48 6.75-12.88 3.37-19.33zm-189.3 48.01l2.83-.68c5.68.08 11.37-.13 17.05.22l1.22.64c-.37 2.76-.63 5.53-.89 8.31-4 .09-7.99-.25-11.98-.32-2.64-.02-5.29.03-7.92.31.02-2.83-.15-5.66-.31-8.48z" fill="#fff"/><path fill="#dcc6ac" d="M314.87 114.85c7.97.12 14.37-7.68 22.61-5.39 4.35 2.94 5.14 8.64 5.42 13.49a79.36 79.36 0 0 1-14.84 6.36l-2-2.82c-.88-3.01-1.94-5.97-3.15-8.87-1.06 3.06-1.63 6.34-.26 9.42l3.07 1.12-.42 1.91-6.3 2.9c-.92-1.05-1.85-2.1-2.71-3.2-2.02-4.79-3.75-10.1-8.25-13.19a57.82 57.82 0 0 0 1.11 3.12c-3.76-.82-7.52-1.64-11.36-1.98 5.38-2.38 11.31-2.55 17.08-2.87m17.22 1.46c-1.46 2.31-2.96 4.68-3.22 7.46l6.63 1.07c1.16-2.28 2.17-4.66 2.38-7.23l-5.79-1.3z"/><path fill="#fde7ce" d="M126.94 118.71c6.37-1.53 9.6-11.89 16.99-7.83 2.94 3.39 2.03 9.52-3.23 9.9-1.61-2.08-3.96-3.31-6.33-4.34l-.28 2.61a55.13 55.13 0 0 0-7.15-.34z"/><path fill="#fff4db" d="M80.22 114.18l4.28-3.27c.9 2.63 1.81 5.67-.42 7.93l-3.75-1.33-.11-3.33z"/><path fill="#fefefe" d="M194 116.07c3.06-4.18 8.29-1.23 11.08 1.67-3.76.14-7.69.24-11.08-1.67z"/><path fill="#362d24" d="M150.36 115.51l1.86.38c.5 3.19 3.66 8.36-1.98 7.45l-.46-5.77.58-2.06z"/><path fill="#f7e1cd" d="M63.28 117.74c5.34-2.92 11.86-1.08 12.8 5.4-5.17.89-11.34.84-12.8-5.4z"/><path fill="#fdfdfe" d="M211.84 120.53c2.13-2.77 5.28-4.43 8.82-4.29l3.52 4.26c-4.11-.12-8.23-.09-12.34.03z"/><path fill="#857b6e" d="M332.09 116.31l5.79 1.3c-.21 2.57-1.22 4.95-2.38 7.23l-6.63-1.07c.26-2.78 1.76-5.15 3.22-7.46z"/><path fill="#4d433b" d="M308.04 116.58c4.5 3.09 6.23 8.4 8.25 13.19.76 2.66 1.24 5.41 1.31 8.18l-1.43.63-1.13-3.51c-1.7-5.22-3.25-10.53-5.89-15.37a57.82 57.82 0 0 1-1.11-3.12z"/><path fill="#302820" d="M174.62 123.82c2.41-3.84 5.95-6.92 10.19-3.32-2.56 3.06-6.45 3.36-10.19 3.32z"/><path fill="#e8d2bb" d="M294.57 118.86l3.22-1.14c3.84.34 7.6 1.16 11.36 1.98 2.64 4.84 4.19 10.15 5.89 15.37-2.7 1.78-5.31 3.72-7.71 5.89-1.81-.73-3.75-1.66-3.92-3.86l-1.42-6.52c-6.84.78-6.84-6.93-7.42-11.72z"/><path fill="#241e1a" d="M322.91 117.62c1.21 2.9 2.27 5.86 3.15 8.87l-.34 1.67-3.07-1.12c-1.37-3.08-.8-6.36.26-9.42z"/><path d="M182.5 126.37c1.29-3.34 4.58-5.32 7.24-7.51 1.72 3.24 3.58 6.41 5.41 9.59 3.04 5.82 3.52 12.54 4.2 18.96.68 3.43-3.37 4.45-5.56 6.07l2.86 1.33.94 2.33c-1 1.41-1.86 2.92-2.71 4.42-5.3 2.41-11.06 3.47-16.86 2.77.97-6.07 3.16-11.93 3.32-18.12-.01-6.67 2.7-13.19 1.16-19.84zm18.46 42.29c5.78-2.45 12.21-.62 16.33 3.95-.33 3.62.51 7.57 5.08 6.1-.01 1.23.5 2.32 1.17 3.35l-.98 2.1c-.8 3.48-1.34 7.01-2.12 10.5l-2.1 8.59c-.86-.96-1.7-1.93-2.52-2.9-1.67 2.73-3.37 5.44-4.92 8.23l-3.61-.21c-.04-4.66-3.27-8.58-3.1-13.27-.13-6.28-.3-12.57-1.02-18.81l2.31-2.57c-1.55-1.66-3.04-3.36-4.52-5.06zM65.97 225.9l.67-.12c4 .13 8.01.42 11.93 1.25 3.31 2.07 7.21 2.82 10.6 4.69 1.43 7.06.28 14.39.61 21.56-5.55-.17-10.05 3.92-9.8 9.57l-5.33-1.23c3.12-10-8.87-15.23-16.98-15.21.72-3.54.34-7.15-1.08-10.48 4.2-.82 5.64-4.54 6.25-8.33 1.03-.58 2.07-1.16 3.13-1.7zm44.88 27.85c3.93-3.11 8.64-4.95 13.6-5.51 3.95 6.05-3.47 9.72-7.84 12.23-2.45-1.75-4.25-4.16-5.76-6.72z" fill="#fffffd"/><path fill="#574b43" d="M271.36 125.97c7.98-1.53 15.43-4.87 23.21-7.11.58 4.79.58 12.5 7.42 11.72l1.42 6.52c-4.44-.06-9.84-1.84-9.1-7.31.08-3.02-2.24-5.72-5.37-5.49-5.26.59-10.16 4.08-15.61 2.47l-1.97-.8z"/><path fill="#040405" opacity=".78" d="M362.3 120.13l5.95-1.29-.76 9.29-1.48-4.77-4.24-.66.53-2.57z"/><path fill="#706156" d="M205.98 119.42l4.23 1.51-5 4.02c-1.79.99-3.65 1.84-5.52 2.66l.2-1.03 6.09-7.16z"/><path fill="#221d18" d="M227.06 120.84c5.87.12 11.76.21 17.62-.37l-.6 3.67c-6.48.37-12.97.3-19.42-.31l2.4-2.99z"/><path d="M210.21 120.93c1.85 3.41 3.52 6.92 5.51 10.25l2.95-2.07c.99 5.82 2.16 11.64 4.11 17.23.1 2.87.23 5.77-.41 8.59-4.3 7.49-13.75 9.19-21.69 8.66 1.64-2.4 3.78-4.39 6.17-6.04-1.13-.74-2.24-1.51-3.33-2.29.66-6.04.96-12.12.58-18.19l2.71-2.6a82.2 82.2 0 0 0-2.35-2.89l.75-6.63c1.72-1.27 3.36-2.65 5-4.02zm-63.96 73.9c-5.12.75-6.18-5.93-1.11-6.87 2.35 1.88 2.53 4.32 1.11 6.87z" fill="#fffffb"/><path fill="#a28a76" d="M122.31 123.86c2.21-2.11 5.09-.5 7.57.08-6.59 3.47-13.91 5.77-21.4 5.92-4.3.33-9.63-.15-12.35 3.96l-1.69-.98-4.36 3.33-.65-5.36c-2.21-.89-4.42-1.79-6.59-2.78l3.4-2.13c9.65.56 19.31.61 28.97.48 2.61.03 5.01-1.05 7.1-2.52z"/><path opacity=".8" d="M349.84 124.76l6.96-2.78 3.96 4.58-1.04 4.8c-4.4-.05-7.23-3.59-9.88-6.6z"/><path fill="#3e372e" d="M58.3 124.07l2.22-.42 43.69.26c6.03-.2 12.07-.42 18.1-.05-2.09 1.47-4.49 2.55-7.1 2.52-9.66.13-19.32.08-28.97-.48l-4.33-.07c-6.34.45-12.98-1.34-19.03 1.22l-2.98-.15c-6.46-1.46-13.72 1.15-19.64-2.12 6.01-.35 12.09.39 18.04-.71z"/><path fill="#c8b29a" d="M129.88 123.94l7.23-.22-.08 3.42c-10.78-2.35-18.65 7.24-28.71 7.7-.09 2.4-.13 4.82-.45 7.2.03 3.41-4.22 3.71-5.58 6.37l-.58.08-2.87-.79c-.1-.41-.32-1.22-.43-1.63l3.22-1.45c-3.47-1.26-5.66-4.45-8.9-6.02-3.9-.42-7.77 1.13-10.98 3.26-.08-5.34-.04-10.69.16-16.03 1.44 0 2.88.03 4.33.07l-3.4 2.13c2.17.99 4.38 1.89 6.59 2.78l.65 5.36 4.36-3.33 1.69.98c2.72-4.11 8.05-3.63 12.35-3.96 7.49-.15 14.81-2.45 21.4-5.92m-29.77 10.19c-1.11 3.25.5 6.31 1.78 9.22 1.38.09 2.75.24 4.12.41-.63-.92-1.31-1.81-2.02-2.66l2.99-.48c.09-2.51-.22-4.99-1-7.38l-5.87.89z"/><path fill="#b8a389" d="M273.33 126.77c5.45 1.61 10.35-1.88 15.61-2.47 3.13-.23 5.45 2.47 5.37 5.49-2.34.17-4.68.51-6.89 1.33-1.85 4.41-4.66 8.37-6.31 12.85-.11 4.66.63 9.31.57 13.98-3.62.11-7.25.15-10.87-.05-4.01-.16-8.02-.3-12.03-.2 5.72-3.57 11.98.39 18.03-.87.25-.76.43-1.53.59-2.31l-.14-1.23 3.68 1.59-2.42-7.39c-7.16-1.32-14.4-2.3-21.68-2.65l5.25 2.7c-2.5 1.26-5.02 2.64-6.85 4.83l-1.39-5.05-3.66 1.11.7-6.97c2.88.59 5.73 1.3 8.6 1.95-2.09-2.42-5.21-3.22-8.19-3.91l-.6-12c-3.04-.57-6.03-1.38-9.01-2.2l9.03-.51 1.66 2.03 4.5.06a112.27 112.27 0 0 0 5.5-.08c-3.52.63-7.05 1.18-10.59 1.7 2.69 3.04 4.35 6.81 3.96 10.92 7.2 1.6 14.55.84 21.82.29-1.43-3.39-2.67-6.85-3.77-10.35l4.04 1.44-.04-2.32-4.47-1.71z"/><path fill="#fff0d5" d="M137.03 127.14c5.36-.46 10.72-3.05 15.98-.37l.55 3.33c.4-1.76.79-3.52 1.11-5.3.51 2.03 1.13 4.03 1.74 6.03l-2.09.91c-.3 5.64.74 11.34-.42 16.94l-.39-1.16-.56-1.76c-3.34 1.72-7.14 1.69-10.8 1.7-1.62-.35-3.23-.74-4.79-1.29l1.93-1.27-.19-2.59c2.76 2.55 7.42 4.13 10.55 1.37 3.72-3.32 1.22-10.27-3.67-10.68-2.81-.68-5.11 1.26-7.17 2.83l-.32-6.27c-4.09-.2-8.31-.52-12.21 1.04l2.37 4.98c-3.56 1.91-6.49-.32-8.61-3.13l-.85 2.19 4.49 3.73a119.11 119.11 0 0 1-9.82.26l1.35 2.89c4.42-1.24 7.92.69 9.14 5.1-1.82.25-3.64.57-5.47.75l-2.14-.15c-2.41-.17-4.83-.17-7.23.09-2.42.3-4.81.74-7.22 1.1 1.36-2.66 5.61-2.96 5.58-6.37.32-2.38.36-4.8.45-7.2 10.06-.46 17.93-10.05 28.71-7.7z"/><path fill="#f5dcbf" d="M195.15 128.45l4.97-3.08-.23 1.21-.2 1.03c.04 1.79.23 3.56.4 5.34l2.09-3.84 2.28 2.47 2.35 2.89-2.71 2.6-.17-2.94-2.74 1.2c.38 5.35 1.58 10.77.31 16.1l-2.65.89.6 2.87-1.86 1.95-.94-2.33-2.86-1.33c2.19-1.62 6.24-2.64 5.56-6.07-.68-6.42-1.16-13.14-4.2-18.96z"/><path fill="#bba38e" d="M199.69 127.61l5.52-2.66-.75 6.63-2.28-2.47-2.09 3.84-.4-5.34z"/><path fill="#bda88f" d="M221.45 130.55c3.31-8.01 12.77-5.87 19.57-5.27-1.95.23-3.88.57-5.81.87-3.31 6.67-1.73 14.27 1.01 20.84l-2.4.27c-.55-4.99-4.4-8.8-4.86-13.83-.46-3.56-4.8-3.83-7.51-2.88z"/><path fill="#88735d" d="M241.02 125.28l.67.02 9.01 2.2.6 12c2.98.69 6.1 1.49 8.19 3.91l-8.6-1.95-.7 6.97-6.69 2.4-2.25-.06-4.64 4.83-4.59-3.59-.26 3.02c-1.81-2.04-2.55-4.67-2.3-7.36l4.36-.41 2.4-.27c-2.74-6.57-4.32-14.17-1.01-20.84 1.93-.3 3.86-.64 5.81-.87z"/><path fill="#96806d" d="M62.88 127.05c6.05-2.56 12.69-.77 19.03-1.22-.2 5.34-.24 10.69-.16 16.03 3.21-2.13 7.08-3.68 10.98-3.26 3.24 1.57 5.43 4.76 8.9 6.02l-3.22 1.45.43 1.63-1.39-.35c-6.13-1.03-12.28.55-18.43.5l-.28 9.44h-1.07l-2.28-.09.04-9.18c3.6-.55 7.22-.83 10.86-.97l-4.81-2.59-.15-7.16c-.11-2.97-.39-5.93-.65-8.89-5.96.24-12.05.58-17.8-1.36z"/><path fill="#e8cfb0" d="M262.38 126.8l8.98-.83 1.97.8 4.47 1.71.04 2.32-4.04-1.44c1.1 3.5 2.34 6.96 3.77 10.35-7.27.55-14.62 1.31-21.82-.29.39-4.11-1.27-7.88-3.96-10.92l10.59-1.7z"/><path opacity=".88" d="M59.9 126.9l2.98.15c5.75 1.94 11.84 1.6 17.8 1.36.26 2.96.54 5.92.65 8.89-7.15.48-14.35-.04-21.32-1.73l-1.27-.46 1.16-8.21z"/><path fill="#dec5a7" d="M218.67 129.11a13.77 13.77 0 0 1 1.65-.77l-.25 2.97 1.38-.76c2.71-.95 7.05-.68 7.51 2.88.46 5.03 4.31 8.84 4.86 13.83-3.72.22-7.99.73-10.54-2.64l-.5 1.72c-1.95-5.59-3.12-11.41-4.11-17.23z"/><path fill="#ffffef" d="M126.28 130.6c3.9-1.56 8.12-1.24 12.21-1.04l.32 6.27.29 6.48.19 2.59-1.93 1.27-2.03-1.32-.04 2.23c-3.63-.43-7.29-.86-10.94-.46-1.22-4.41-4.72-6.34-9.14-5.1l-1.35-2.89a119.11 119.11 0 0 0 9.82-.26l-4.49-3.73.85-2.19c2.12 2.81 5.05 5.04 8.61 3.13l-2.37-4.98z"/><path fill="#92857d" d="M287.42 131.12c2.21-.82 4.55-1.16 6.89-1.33-.74 5.47 4.66 7.25 9.1 7.31.17 2.2 2.11 3.13 3.92 3.86 2.4-2.17 5.01-4.11 7.71-5.89l1.13 3.51 1.43-.63 2.81.67c-1.29 1.03-2.67 1.93-4.05 2.82l-1.06 3.01c-4.81 1.67-9.63 3.52-14.75 3.93-2.89-.89-5.89-1.35-8.89-1.63-3.38-4.57-4.35-10.05-4.24-15.63m3.43 10.01l-.28 3.13c5.2.45 12.88 4.06 16.62-.69-5.3-1.65-10.83-2.2-16.34-2.44z"/><path fill="#42372b" d="M287.42 131.12c-.11 5.58.86 11.06 4.24 15.63.65 2.16 1.15 4.36 1.64 6.56 2.83-.24 5.64-.84 8.49-.81 1.66 1.57 2.08 4.18 3.23 6.17l-5.51 1.73c-6.09.69-12.2-.29-18.3-.21l.19 2.35-2.79-.84c-.36 1.21-.87 2.37-1.52 3.45l-.01-2.32c-.8-2.43-3.46-2.31-5.53-2.71l-.74-2.22c3.62.2 7.25.16 10.87.05.06-4.67-.68-9.32-.57-13.98 1.65-4.48 4.46-8.44 6.31-12.85m-.8 26.71c3.67.5 7.39.68 11.08.25-2.59-2.92-9.02-4.45-11.08-.25z"/><path fill="#f1d8c0" d="M100.11 134.13l5.87-.89c.78 2.39 1.09 4.87 1 7.38l-2.99.48 2.02 2.66-4.12-.41c-1.28-2.91-2.89-5.97-1.78-9.22z"/><path fill="#928373" d="M138.81 135.83c2.06-1.57 4.36-3.51 7.17-2.83 4.89.41 7.39 7.36 3.67 10.68-3.13 2.76-7.79 1.18-10.55-1.37l-.29-6.48m4.34 5.96c1.23-.15 2.46-.14 3.69.03.48-1.97 1.32-5.52-1.84-5.35-3.29-.28-2.47 3.3-1.85 5.32z"/><path fill="#b2a296" d="M201.19 135.33l2.74-1.2.17 2.94c.38 6.07.08 12.15-.58 18.19 1.09.78 2.2 1.55 3.33 2.29-2.39 1.65-4.53 3.64-6.17 6.04 7.94.53 17.39-1.17 21.69-8.66-.66 3.33-1.48 6.62-2.31 9.91-7.03.17-14.09.51-21.08-.45l1.18-4.71c-1.77.59-3.53 1.23-5.28 1.88.85-1.5 1.71-3.01 2.71-4.42.61-.66 1.23-1.31 1.86-1.95l-.6-2.87 2.65-.89c1.27-5.33.07-10.75-.31-16.1z"/><path fill="#f6ddc6" d="M290.85 141.13c5.51.24 11.04.79 16.34 2.44-3.74 4.75-11.42 1.14-16.62.69l.28-3.13z"/><path fill="#927e6b" d="M177.56 151.26c.34-3.02.27-6.55 3.17-8.35l.61 3.3c-.16 6.19-2.35 12.05-3.32 18.12 5.8.7 11.56-.36 16.86-2.77l5.28-1.88-1.18 4.71c6.99.96 14.05.62 21.08.45.83-3.29 1.65-6.58 2.31-9.91.64-2.82.51-5.72.41-8.59l.5-1.72c2.55 3.37 6.82 2.86 10.54 2.64l-4.36.41-5.73.4 1.58 4.05c-1.71 2.37 1.03 4.55 1.81 6.71 3.38 6.45.57 13.85-3.37 19.33-2.08-3.39-2.81-7.35-3.68-11.16l-21.56.32-.03 4.92c-.87-.92-1.91-1.63-3.1-2.07l1.25-2.9c-6.37-.39-12.76-.76-19.14-.4.44 3.18 1.14 6.33 2.18 9.38 1.02 3.08 1.62 6.29 1.7 9.54l-.57 3.31c-5.46-5.46-3.04-14.28-7.48-20.47l-7.4-.83c-3.97-.46-7.96-.13-11.93.14-.26 2.82-.71 5.62-.87 8.45l-1.6-7.19-1.26 3.87-2.84 1.24c-.45-8.51.67-17.11-.68-25.55-.3 11.7-.51 23.4-.21 35.11l-7.87.03c.26-11.4 1.02-23.07-.92-34.32-1.3 11.48-.97 23.14-.5 34.69l-7.5-.37c-.33-11.94.04-23.88.09-35.82l12.32-.62c3.66-.01 7.46.02 10.8-1.7l.56 1.76c-.28 3.88-.3 7.76-.03 11.64l.15 4.34c4.91.02 9.82.1 14.73-.21 7.15.98 5.92-6.82 6.72-11.55l2.48-.48m-45.01 31.97c2.84-2.49 1.49-6.85 1.9-10.2-.48-8.11.88-16.38-.92-24.35-2.5 11.11-.65 23.11-.98 34.55m8.93-33.62c-.77 9.07-.56 18.23-.16 27.33.16 1.94-.37 4.31 1.4 5.68 1.07-11.26.99-22.67.25-33.96l-1.49.95z"/><path fill="#ecd5c7" d="M135.33 144.85l2.03 1.32c1.56.55 3.17.94 4.79 1.29-4.11.1-8.22.44-12.32.62-.05 11.94-.42 23.88-.09 35.82l7.5.37c-.47-11.55-.8-23.21.5-34.69 1.94 11.25 1.18 22.92.92 34.32-.44 1.13-.92 2.24-1.4 3.35-2.95-1.23-5.95-2.42-9.08-3.08.34-12.12-.43-24.22-.1-36.34l-2.67.03-.14 35.83-3.22 3.04c-3.44-1.05-7.1-1.13-10.23.88l-1.18.6c1.8-3.17 4.31-6.34 3.83-10.22-.56-10.04.47-20.12-.2-30.13l-2.54-.48c-.29 11.67.28 23.39-.59 35.01l-.89-2.12c.2-10.97.96-22.1-.74-32.96 2.4-.26 4.82-.26 7.23-.09-1.32 12.19.54 24.46-.44 36.67l3.01.5c-.44-12.35-.49-24.68-.43-37.02 1.83-.18 3.65-.5 5.47-.75 3.65-.4 7.31.03 10.94.46l.04-2.23m-14.54 2.94c.4 12.17-.07 24.34-.09 36.52l2.93-.73c-.69-11.98.23-23.98-.27-35.95l-2.57.16z"/><path fill="#d7bfa6" d="M256.84 144.84c7.28.35 14.52 1.33 21.68 2.65l2.42 7.39-3.68-1.59-.58-3.75-4.59 2.64 5.31 2.34c-.16.78-.34 1.55-.59 2.31-6.05 1.26-12.31-2.7-18.03.87-2.28.19-4.55.36-6.83.4l-.78-5.01 2.63 2.75 1.44-3.47c1.83-2.19 4.35-3.57 6.85-4.83l-5.25-2.7z"/><path fill="#dec6b5" d="M79.02 147.85c6.15.05 12.3-1.53 18.43-.5l.31 1.23c-4.37 1.13-8.91 1.1-13.38 1.47l-.04 3.53 2.76.25.49-1.83c2.98 2.13 6.54 3.02 10.12 3.44l-1.32 1.22c-5.88.4-11.77.34-17.65.63l.28-9.44z"/><path fill="#f8f1f4" d="M250.19 148.43l3.66-1.11 1.39 5.05-1.44 3.47-2.63-2.75.78 5.01-3.85-.05-1.13-.03h-.99c-1.44-2.16-2.26-4.61-2.48-7.19 2.28-.64 4.45-1.63 6.69-2.4z"/><path fill="#615953" d="M291.66 146.75c3 .28 6 .74 8.89 1.63l4.79 1.89-.32 8.4c-1.15-1.99-1.57-4.6-3.23-6.17-2.85-.03-5.66.57-8.49.81l-1.64-6.56z"/><path fill="#776555" d="M97.45 147.35l1.39.35 2.87.79.45 2.37c-1.61 9.36-1.93 19.05.36 28.34.33-3.71.49-7.43.61-11.16l1.75-2.31c.32 4.91.33 9.84-.05 14.75-2.73.3-5.39 1.02-7.98 1.92-3.12-1.35-7.32.65-6.65 4.42-2.62 2.05-3.9 5.17-4.84 8.26l-3.05-7.42-.77-2.08c2.31-.19 4.62-.42 6.91-.77-4.28-1.28-8.77-1.12-13.18-1.17l-.04-9.3c5.7-.53 11.43-.57 17.15-.45l.11-15.16-14.82-1.44h1.07c5.88-.29 11.77-.23 17.65-.63l1.32-1.22c1.35-2.14.67-4.61.05-6.86l-.31-1.23M79.2 174.59c.34 2.91-.65 6.28.71 8.9 4.17.09 8.56-.92 11.4-4.17 2.76-.1 5.13-1.41 6.93-3.45-6.35-.61-12.72-.33-19.04-1.28z"/><path fill="#88735e" d="M102.29 148.41l7.22-1.1c1.7 10.86.94 21.99.74 32.96l-1.87-4.1-.38 4.82-3.17-.51c.38-4.91.37-9.84.05-14.75l-1.75 2.31c.28-5.74.46-11.56-.97-17.18l-.45-2.37.58-.08m4.1 31.32c1.75-6.45 1.7-15.84.49-23.32-3.08 7.16-.84 15.72-.49 23.32z"/><path fill="#655d57" d="M111.73 147.38l2.54.48c.67 10.01-.36 20.09.2 30.13.48 3.88-2.03 7.05-3.83 10.22l-2.58 2c-.81-3.29.08-6.13 3.08-7.82.87-11.62.3-23.34.59-35.01z"/><path fill="#947d65" d="M116.3 183.89c.98-12.21-.88-24.48.44-36.67l2.14.15c-.06 12.34-.01 24.67.43 37.02l-3.01-.5z"/><path fill="#96806a" d="M120.79 147.79l2.57-.16c.5 11.97-.42 23.97.27 35.95l-2.93.73c.02-12.18.49-24.35.09-36.52z"/><path fill="#947c66" d="M125.41 147.86l2.67-.03c-.33 12.12.44 24.22.1 36.34l-2.91-.48.14-35.83z"/><path fill="#ddc7b1" d="M153.51 147.52l.39 1.16 2.32 6.02 7.92-.72c-3.59 1.65-7.14 3.39-10.66 5.18-.27-3.88-.25-7.76.03-11.64z"/><path fill="#4b4955" d="M223.73 148.07l5.73-.4c-.25 2.69.49 5.32 2.3 7.36 5.46 5.6 5.55 15.41.61 21.36-1.47 2.08-2.73 4.31-3.97 6.54l6.6.61-12.44.62.98-2.1c.37-.75.74-1.49 1.15-2.21 7.72-7.41 8.1-20.02.62-27.73-.56-1.34-1.06-2.7-1.58-4.05z"/><path fill="#fffbe8" d="M84.38 150.05c4.47-.37 9.01-.34 13.38-1.47.62 2.25 1.3 4.72-.05 6.86-3.58-.42-7.14-1.31-10.12-3.44l-.49 1.83-2.76-.25.04-3.53z"/><path fill="#fdeadf" d="M132.55 183.23c.33-11.44-1.52-23.44.98-34.55 1.8 7.97.44 16.24.92 24.35-.41 3.35.94 7.71-1.9 10.2z"/><path fill="#d6c2b4" d="M141.48 149.61l1.49-.95c.74 11.29.82 22.7-.25 33.96-1.77-1.37-1.24-3.74-1.4-5.68-.4-9.1-.61-18.26.16-27.33z"/><path fill="#c4b298" d="M241.25 150.77l2.25.06c.22 2.58 1.04 5.03 2.48 7.19a198.43 198.43 0 0 0-6.9.08l.16 16.72 2.99.08c.26-5.43-.6-11.05 1.32-16.27 1.1 5.3.95 10.73.72 16.11l2.53-.03c-.58-5.55-.78-11.17.17-16.69l1.13.03c.27 1.36.49 2.73.64 4.11.08 2.39-.01 4.78-.09 7.18l-.22 5.45h7.8c.74 4.67.54 11.26 6.29 12.64l.87.36c-3.9-.08-7.8-.03-11.69-.24l-.84 4.55c-3.46-3.92-8.79-6.22-13.42-2.57-4.07 5.1-1.38 12.98-6.5 17.72l-1.67-.1c1.3-3.6 3.33-7.44.78-11.03 3.76-1.83 5.4-5.29 3.41-9.14l1.46-2.28c3.43-.02 7.41.71 10.11-2.02 1.82.56 3.66 1.04 5.49 1.58l1.7-.99 1.83 2.59.06-7.91c-4.7.29-10.65-1.83-13.85 2.83-.7-1.46-1.26-2.98-1.83-4.49l-.56 2.13c-1.93-.37-3.93-.77-5.5-2.03 4.94-5.95 4.85-15.76-.61-21.36l.26-3.02 4.59 3.59c1.49-1.66 3.13-3.18 4.64-4.83m6.76 19.95c.2-3.38.14-6.78-.35-10.13-1.21 3-2.41 7.86.35 10.13z"/><path fill="#fdf8f6" d="M272.09 152.18l4.59-2.64.58 3.75.14 1.23-5.31-2.34z"/><path fill="#c1a998" d="M102.16 150.86c1.43 5.62 1.25 11.44.97 17.18-.12 3.73-.28 7.45-.61 11.16-2.29-9.29-1.97-18.98-.36-28.34z"/><path fill="#776255" d="M286.62 157.83c2.06-4.2 8.49-2.67 11.08.25-3.69.43-7.41.25-11.08-.25z"/><path fill="#c3ad99" d="M106.39 179.73c-.35-7.6-2.59-16.16.49-23.32 1.21 7.48 1.26 16.87-.49 23.32z"/><path fill="#6d5747" d="M239.08 158.1l6.9-.08h.99c-.95 5.52-.75 11.14-.17 16.69l-2.53.03c.23-5.38.38-10.81-.72-16.11-1.92 5.22-1.06 10.84-1.32 16.27l-2.99-.08-.16-16.72z"/><path fill="#5d4f44" d="M248.1 158.05l3.85.05 6.83-.4c4.01-.1 8.02.04 12.03.2l.74 2.22c2.07.4 4.73.28 5.53 2.71-9.45-.39-18.88-1.7-28.34-.67-.15-1.38-.37-2.75-.64-4.11z"/><path fill="#877a6c" d="M281.21 160.19c6.1-.08 12.21.9 18.3.21l.7 6.67.1.6c2.79.16 5.6.17 8.4.35 1.5.58 2.98 1.23 4.49 1.82-4.28-.07-8.56 0-12.84.03l-.47 3.25c-3.51.73-7.11.68-10.66 1.06-5.82-.04-8.68 6.02-7.46 11.15l-.96-.04.12-3.25c0-2.17-.06-4.35-.23-6.52l-1.29-.16c2.6-3.79 2.42-8.44 1.99-12.82l-.19-2.35z"/><path fill="#faf5f8" d="M248.01 170.72c-2.76-2.27-1.56-7.13-.35-10.13.49 3.35.55 6.75.35 10.13z"/><path fill="#9a8574" d="M248.74 162.16c9.46-1.03 18.89.28 28.34.67l.01 2.32-.6 5.78-2.1-2.22c-8.33 1.96-17.43 3.33-25.74.63.08-2.4.17-4.79.09-7.18m1.12 3.43c4.34 5.3 12.7 1.5 18.79 3.12l2.15-2.26c-6.23-4.43-14.16-2.94-20.94-.86z"/><path fill="#5d4f43" d="M277.09 165.15c.65-1.08 1.16-2.24 1.52-3.45l2.79.84c.43 4.38.61 9.03-1.99 12.82-3.9-.43-7.81-.57-11.73-.63-3.82-.02-7.63.01-11.45.06h-7.8l.22-5.45c8.31 2.7 17.41 1.33 25.74-.63l2.1 2.22c.26-1.92.42-3.85.6-5.78z"/><path fill="#cbb49a" d="M249.86 165.59c6.78-2.08 14.71-3.57 20.94.86l-2.15 2.26c-6.09-1.62-14.45 2.18-18.79-3.12z"/><path fill="#baa99b" d="M177.49 166.87c6.38-.36 12.77.01 19.14.4l-1.25 2.9c1.19.44 2.23 1.15 3.1 2.07l.03-4.92c7.19.11 14.37-.19 21.56-.32.87 3.81 1.6 7.77 3.68 11.16l.94 1.69c-.41.72-.78 1.46-1.15 2.21-.67-1.03-1.18-2.12-1.17-3.35-4.57 1.47-5.41-2.48-5.08-6.1-4.12-4.57-10.55-6.4-16.33-3.95l4.52 5.06-2.31 2.57c.72 6.24.89 12.53 1.02 18.81-.17 4.69 3.06 8.61 3.1 13.27-1.04-1.5-1.96-3.07-2.87-4.63l-2.18 1.55-2.37-.79c2.6 3.03 5.07 6.16 7.45 9.37l-1.95 2.32-1.8.54.13-3.16c-3.71-.19-7.55.11-10.62 2.43l-2.81-1.11c-3.23-2.05-6.38-4.39-8.42-7.7 2.94 1.44 5.49 3.52 8.01 5.6 1.62-3.34 3.31-6.65 5.1-9.91l3.22.94c.82-7.24 5.86-14.94 2.03-21.98l1.62-1.6-3.5-.49c-1.18-.25-2.34-.54-3.49-.84a156.58 156.58 0 0 1 5.24-1.97c-4.09-7.24-12.45-10.03-20.39-9.39l-.03 3.41 3.42 3.05-3.41 2.24c-1.04-3.05-1.74-6.2-2.18-9.38z"/><path fill="#403f42" opacity=".6" d="M300.21 167.07l41.69.29.26 2.65-3.1.06 2.45-2.13c-9.31-.62-18.66.2-27.98.25l-4.82-.17c-2.8-.18-5.61-.19-8.4-.35l-.1-.6z"/><path fill="#dfc6ac" d="M165.92 167.8l7.4.83c4.44 6.19 2.02 15.01 7.48 20.47l.57-3.31c.23 4.1-.23 8.47 2.03 12.13-.64 3.07-1.18 6.15-1.55 9.27a64.22 64.22 0 0 1-8.08.32c2.84 3.06 5.57 6.23 8.22 9.46a233.08 233.08 0 0 1-7.73 8.31c-1.39-1.1-2.77-2.21-4.22-3.22 3.49.49 6.77-.69 9.04-3.37-2.96-1.01-6.12-2.28-9.25-2.04.01 1.62-.59 3.16-.92 4.73-6.45-3.11-11.83-7.75-16.22-13.37l-3.07-.04-2.77.02 4.89-1.45c.72-4.21.77-8.53-.43-12.66-.4-1.81-.76-3.65-.6-5.51.24-1.44.6-2.86.94-4.27l1.16-.28.65-3.55c3.7 5.01-.3 11.14.3 16.7.64 7.52 3.43 17 11.83 18.9 1.74-3.55 3.15-7.51 6.53-9.86.91-8.94 6.43-21.12-3.34-27.13l6.84.32c.38-5.97-4.93-9.32-9.7-11.4z"/><path fill="#fffff9" d="M179.69 167.55c7.94-.64 16.3 2.15 20.39 9.39a156.58 156.58 0 0 0-5.24 1.97c1.15.3 2.31.59 3.49.84-1.83 7.7 1.79 16.27-3.37 23.13-1.79 3.26-3.48 6.57-5.1 9.91-2.52-2.08-5.07-4.16-8.01-5.6.37-3.12.91-6.2 1.55-9.27-2.26-3.66-1.8-8.03-2.03-12.13-.08-3.25-.68-6.46-1.7-9.54l3.41-2.24-3.42-3.05.03-3.41z"/><path fill="#9c99a3" opacity=".95" d="M308.71 168.02l4.82.17c6.06 1.91 12.46.71 18.66 1.64-1.21-.01-2.41 0-3.61.02-5.13-.03-10.26.17-15.38-.01l-4.49-1.82z"/><path fill="#e4e2ea" opacity=".96" d="M313.53 168.19c9.32-.05 18.67-.87 27.98-.25l-2.45 2.13c-2.29.02-4.58-.1-6.87-.24-6.2-.93-12.6.27-18.66-1.64z"/><path fill="#776457" d="M150.26 173.07l1.26-3.87 1.6 7.19.34 3.88-.65 3.55-1.16.28-4.2.05-.03-9.84 2.84-1.24z"/><path fill="#0d0d0e" opacity=".8" d="M300.36 169.87l12.84-.03c5.12.18 10.25-.02 15.38.01-8.25 5.64-19.43.02-28.69 3.27l.47-3.25z"/><path fill="#4a3e32" d="M281.77 185.33c-1.22-5.13 1.64-11.19 7.46-11.15 4.77 2.71 10.45 1.01 15.63 1.86l.21 1.64-2.41 1.15-.31 5.45c-2.5-1.53-4.85-4.61-8.06-3.96-1.88 1.55-3.37 3.52-4.86 5.43l-7.66-.42z"/><path fill="#f6dcc3" d="M79.2 174.59c6.32.95 12.69.67 19.04 1.28-1.8 2.04-4.17 3.35-6.93 3.45-2.84 3.25-7.23 4.26-11.4 4.17-1.36-2.62-.37-5.99-.71-8.9z"/><path fill="#f4dabf" d="M256.23 174.79l11.45-.06 1.93 3.65 6.4-.56 4.92 4.22-.12 3.25c-6.06 1.05-12.19 1.43-18.29 2.14-5.75-1.38-5.55-7.97-6.29-12.64z"/><path fill="#c4ad98" d="M267.68 174.73c3.92.06 7.83.2 11.73.63l1.29.16c.17 2.17.23 4.35.23 6.52l-4.92-4.22-6.4.56-1.93-3.65z"/><path fill="#383333" d="M108.38 176.17l1.87 4.1.89 2.12c-3 1.69-3.89 4.53-3.08 7.82v.81l-1.46 1.17c-1.17-1.89-1.85-4.01-2.02-6.22-2.89.15-5.84.03-8.68.74-1.13 2.43-1.45 5.13-2.05 7.72 1.33.34 2.69.6 4.07.59l-1.88 2.09c-3.64.3-7.85.82-10.68-2.03.94-3.09 2.22-6.21 4.84-8.26 2.24-1.44 4.44-2.94 6.65-4.42 2.59-.9 5.25-1.62 7.98-1.92l3.17.51.38-4.82z"/><path fill="#9f8c7a" d="M228.4 182.93l3.97-6.54c1.57 1.26 3.57 1.66 5.5 2.03l.56-2.13 1.83 4.49c1.54.74 3.14 1.36 4.77 1.9-2.7 2.73-6.68 2-10.11 2.02-2.91-.04-5.85-.29-8.73.21-4.25 1.82-.85 8.85-5.75 9.75.78-3.49 1.32-7.02 2.12-10.5l12.44-.62-6.6-.61z"/><path fill="#fdfbfc" d="M240.26 180.78c3.2-4.66 9.15-2.54 13.85-2.83l-.06 7.91-1.83-2.59-1.7.99-5.49-1.58c-1.63-.54-3.23-1.16-4.77-1.9z"/><path fill="#7c6b5c" d="M302.66 178.83l2.41-1.15c.75 5.72 1.56 11.77-2.54 16.5-2.62.87-5.17 1.92-7.61 3.18l3.42 3.04-1.95 1.12 1.84 5.14-3.25-1.49-2.71.22c-.9.07-1.79.12-2.68.16l-2.95-1.02-.06-.59c.4-6.05-1.53-13.16 2.85-18.19 1.49-1.91 2.98-3.88 4.86-5.43 3.21-.65 5.56 2.43 8.06 3.96l.31-5.45m-13.26 7.88c.36 1.3.59 2.62.68 3.98 4.91-.59 9.96-.59 14.72-2.09.28-1.12.34-2.26.18-3.41-5.16-1.17-10.49.56-15.58 1.52z"/><path fill="#edd3b7" d="M198.33 179.75l3.5.49-1.62 1.6c3.83 7.04-1.21 14.74-2.03 21.98l-3.22-.94c5.16-6.86 1.54-15.43 3.37-23.13z"/><path fill="#dcd7de" d="M90.2 186.82c-.67-3.77 3.53-5.77 6.65-4.42l-6.65 4.42z"/><path fill="#f8dec0" d="M220.44 194.66c4.9-.9 1.5-7.93 5.75-9.75 2.88-.5 5.82-.25 8.73-.21l-1.46 2.28c1.99 3.85.35 7.31-3.41 9.14 2.55 3.59.52 7.43-.78 11.03-1.5-.4-2.99-.86-4.46-1.32-2.21-.72-4.44-1.44-6.47-2.58.64-2.88 1.38-5.74 2.1-8.59z"/><path fill="#998674" d="M262.52 187.43c6.1-.71 12.23-1.09 18.29-2.14-2.34 7.15 2.02 13.06 5.77 18.65l.06.59 2.95 1.02c-2.45 1.25-5.16.45-7.68-.06-.55-3.66-2.29-6.99-6.5-6.34 2.28-8.57-8.34-7.21-13.55-6.3 2.05-.73 3.8-2.07 5.45-3.46l-3.92-1.6-.87-.36z"/><path fill="#040404" opacity=".89" d="M280.81 185.29l.96.04 7.66.42c-4.38 5.03-2.45 12.14-2.85 18.19-3.75-5.59-8.11-11.5-5.77-18.65z"/><path fill="#e7ceb7" d="M289.4 186.71c5.09-.96 10.42-2.69 15.58-1.52.16 1.15.1 2.29-.18 3.41-4.76 1.5-9.81 1.5-14.72 2.09-.09-1.36-.32-2.68-.68-3.98z"/><path fill="#837269" d="M81.37 204.37l.17-18.79.77 2.08c.02 5.07-.3 10.14-.37 15.21l2.26-3.07 2.81-.26 2.19 4.59c3.49.43 7 .64 10.52.74l2.4-3.26.66 3.08 8.74 1.3-1.25-2.25 8.53.19c.85.99 1.66 2.01 2.48 3.02l-13.53.26c-2.53-.07-5.06-.09-7.58-.01-4.43-.01-8.86.03-13.29-.03-3.32-.1-6.64.01-9.97.04-5.77-.04-11.54-.65-17.32-.2l-.67.01-1.22-.64c7.84-1.34 15.65-2.81 23.67-2.01z"/><path fill="#504b4a" d="M95.9 186.71c2.84-.71 5.79-.59 8.68-.74.17 2.21.85 4.33 2.02 6.22-3.23 2.19-6.81 3.85-10.56 4.92l1.88-2.09c-1.38.01-2.74-.25-4.07-.59.6-2.59.92-5.29 2.05-7.72m-.1 6.29c4.5 2.66 8.08-2.62 3.26-5.31-1.67 1.38-2.99 3.09-3.26 5.31z"/><path fill="#7b6d5e" d="M141.41 186.4c3.2-1.95 6.53.43 9.3 1.97-.16 1.86.2 3.7.6 5.51-2.16 2.38-4.99 4.44-8.39 3.42-5.42-.29-6.22-8.88-1.51-10.9m4.84 8.43c1.42-2.55 1.24-4.99-1.11-6.87-5.07.94-4.01 7.62 1.11 6.87z"/><path fill="#aa9176" d="M237.44 189.53c4.63-3.65 9.96-1.35 13.42 2.57l2.67 2.12-.1 8.1-1.94-.27c-.16 1.41-.35 2.81-.55 4.21-4.45.04-12.74-1.39-9.55-7.63-1.31-.04-2.49-.58-3.54-1.32-2.17 2.69-2.49 5.9-.67 8.87l-2.42.71-2.28.43-1.54-.07c5.12-4.74 2.43-12.62 6.5-17.72z"/><path fill="#6e6051" d="M251.7 187.55c3.89.21 7.79.16 11.69.24 1.31.51 2.61 1.05 3.92 1.6-1.65 1.39-3.4 2.73-5.45 3.46-2.79.37-5.57.84-8.33 1.37l-2.67-2.12.84-4.55z"/><path fill="#aa917f" d="M82.31 187.66l3.05 7.42c2.83 2.85 7.04 2.33 10.68 2.03 3.75-1.07 7.33-2.73 10.56-4.92l1.46-1.17-.29 10.6 1.78-.12c3.2.26 6.33 1.1 9.25 2.43l-8.53-.19 1.25 2.25-8.74-1.3-.66-3.08-2.4 3.26c-3.52-.1-7.03-.31-10.52-.74l-2.19-4.59-2.81.26-2.26 3.07.37-15.21z"/><path fill="#8f8a93" d="M95.8 193c.27-2.22 1.59-3.93 3.26-5.31 4.82 2.69 1.24 7.97-3.26 5.31z"/><path fill="#fff0d2" d="M108.06 190.21l2.58-2 1.18-.6.65 4.99 4.15-1.62c.13 2.06-.3 4.07-1.19 5.93 6.81 3.27 14.76 3.28 22.2 3.03l.36 3.33c-8.99 1.69-18.21-.19-26.45-3.89l-1.99 2.12-1.78.12.29-10.6v-.81z"/><path fill="#cab398" d="M261.86 192.85c5.21-.91 15.83-2.27 13.55 6.3 4.21-.65 5.95 2.68 6.5 6.34 2.52.51 5.23 1.31 7.68.06.89-.04 1.78-.09 2.68-.16 1.86 3.27 2.19 7.01 1.98 10.69-1.59 1.71-3.03 3.54-4.53 5.32-6.73-2.76-14.12-7.27-16.15-14.74-4.21-1.48-8.23-3.84-12.83-3.84l-1.48-.12-4.41-.27-1.42-.11.1-8.1c2.76-.53 5.54-1 8.33-1.37z"/><path fill="#44372c" d="M294.92 197.36c2.44-1.26 4.99-2.31 7.61-3.18-1.21 2.19-2.3 4.52-4.19 6.22l-3.42-3.04z"/><path fill="#8f7660" d="M237.18 206.18c-1.82-2.97-1.5-6.18.67-8.87 1.05.74 2.23 1.28 3.54 1.32-3.19 6.24 5.1 7.67 9.55 7.63l-.12.59c-2.06.07-4.12.07-6.18.06-3.29-.05-6.59-.16-9.88-.02l2.42-.71z"/><path fill="#bca690" d="M111.54 199.38c8.24 3.7 17.46 5.58 26.45 3.89l.37 3.26c2.33 1 4.67 2.17 6.18 4.3-11.8-4.98-24.6-1.99-36.79-3.62l13.53-.26-2.48-3.02c-2.92-1.33-6.05-2.17-9.25-2.43l1.99-2.12z"/><path fill="#ae9a8b" d="M210.9 208.58l4.92-8.23 2.52 2.9c2.03 1.14 4.26 1.86 6.47 2.58l-.85 5.28-8.16.47-.66-2.01-3.99 2.21c-1.39-1.01-2.7-2.15-3.86-3.41l3.61.21z"/><path fill="#8d7c69" d="M202.24 205.29l2.18-1.55 2.87 4.63c1.16 1.26 2.47 2.4 3.86 3.41 3.79 3.47 10.51 5.5 12.81-.67.35-1.75.58-3.52.85-5.28 1.47.46 2.96.92 4.46 1.32l1.67.1 1.54.07c-1.81.97-3.71 1.75-5.63 2.46 1.22 8.72-7.45 11.43-14.18 13.01-5.49 1.08-11.9 1.58-15.83 6.06-1.31 4.7-3.21 9.18-5.17 13.63-.5 5.4-1.05 12.09-6.42 14.95l-2.87-.87 1.55-5.87c-4.03 3.81-9.11 6.45-12.57 10.86l4.38-.19c-1.76 6.4-4.83 12.4-5.77 19.03-4.52-2.93-14.2-7.4-15.95.79.44-2.93.68-5.87.97-8.8l2.87 2.56 1.15-3.5 3.88.11 1.04 3.24 6.15-1.92-2.04-5.18c1.22-1.22 2.34-2.54 3.48-3.83-.61-2.17-1.23-4.34-1.69-6.54 4.84-2.68 8.35-6.94 11.72-11.22 4.72-3.76 4.87-10.23 7.08-15.44-3.99-2.42-8.76-5.04-12.21-.33l-1.69-3.15c-7.17 1.92-18.27-3.31-22.4 4.71l-.44-3.8-5.33-.19-.17-.45c.87-6.08 5.58-14.46.46-19.46l2.77-.02c.22 2.35.56 4.7 1.2 6.99 1.35-2.08 2.12-4.46 1.87-6.95 4.39 5.62 9.77 10.26 16.22 13.37l1.13.68c1.45 1.01 2.83 2.12 4.22 3.22a233.08 233.08 0 0 0 7.73-8.31c-2.65-3.23-5.38-6.4-8.22-9.46a64.22 64.22 0 0 0 8.08-.32c2.04 3.31 5.19 5.65 8.42 7.7-1.74.13-3.47.31-5.2.48.44 1.38.73 2.81.89 4.26l3.27-.15.53 2.81 4.8-3.42c2.02 1.16 4.08 2.24 6.2 3.2l4.61-5.88 1.95-2.32c-2.38-3.21-4.85-6.34-7.45-9.37l2.37.79m-49.67 22.69c2.84-1.51 6.36-2.42 8.36-5.06-1.53-2.28-4.31-3.42-6.43-5.11-1.49 3.18-2.32 6.65-1.93 10.17z"/><path fill="#020201" opacity=".87" d="M254.85 202.43l4.41.27 1.31 5.9c3.71 2.41 7.44 4.83 10.73 7.8 1.95 1.74 3.75 3.63 5.64 5.43 1.7 1.88 4.14 2.61 6.57 3 .88 2.56 1.73 5.15 2.49 7.76-8.63-1.27-10.79-10.96-18-14.61-4.11-5.45-11.67-8.49-13.15-15.55z"/><path fill="#584e46" d="M259.26 202.7l1.48.12c3.95 3.46 8.15 6.7 11.83 10.45-.34 1.07-.82 2.09-1.27 3.13-3.29-2.97-7.02-5.39-10.73-7.8l-1.31-5.9z"/><path fill="#8f7c68" d="M260.74 202.82c4.6 0 8.62 2.36 12.83 3.84 2.03 7.47 9.42 11.98 16.15 14.74-3.06 3.27-7.34.8-10.59-.79l-2.19 1.22c-1.89-1.8-3.69-3.69-5.64-5.43.45-1.04.93-2.06 1.27-3.13-3.68-3.75-7.88-6.99-11.83-10.45z"/><path fill="#9e8c7b" d="M292.27 205.39l2.71-.22 3.25 1.49 1.32 4.1-5.3 5.32c.21-3.68-.12-7.42-1.98-10.69z"/><path fill="#e8d0bf" d="M59.59 207.01c5.78-.45 11.55.16 17.32.2-.63 4.17-1.66 8.3-3.61 12.07l-5.3-1.04c-.24 1.74-.53 3.48-.85 5.22l4.09 1.04c-1.53.43-3.05.91-4.6 1.28l-.67.12-1.04.08c-1.84-2.18-2.93-4.81-3.26-7.64l5.62-.97c-5.18-.97-7.38-5.51-7.7-10.36z"/><path fill="#af9e8d" d="M28.17 208.75l9.65-1.91.31 8.48-.94 1.1-3.12-6.62-3.82-1.34-1.57 4.58-.51-4.29z"/><path fill="#b8a18c" d="M58.92 207.02l.67-.01c.32 4.85 2.52 9.39 7.7 10.36l-5.62.97c.33 2.83 1.42 5.46 3.26 7.64-5.6-.9-8.79 4.38-11.77 8.16-1.96 2.36 1.07 4.71 1.63 7.04.71 4.06-1.73 7.82-3.94 11.02-1.22-1.42-2.34-2.94-3.47-4.43 1.93-1.47 3.79-3.03 5.65-4.59-1.8-5.55-8.25-8.95-13.55-6.71-1.7 4.52 4.75 8.24 7.29 11.78-.68.54-1.35 1.08-2 1.65l-2.11 1.86-2.27-.24c-2.58-3.49-5.62-7.01-7.39-10.81l3.22-2.19 2.35-1.62-1.39-2.69 2.51-2.13-.42-3.7 1.84-2.44-3.35-2.34c1.17-4.12 4.03-7.53 8.29-8.59 3.99.07 7.98.41 11.98.32l.89-8.31m-12.33 9.29c-1.1 3.35-2.24 7.34.81 10.05-.78 3.28-1.38 6.81.87 9.67-.23-6.12 6.75-6.93 9.38-11.31.28-2.17.07-4.37.02-6.55-3.66-.84-7.35-1.5-11.08-1.86z"/><path fill="#fff4dc" d="M76.91 207.21l9.97-.04c6.24-.35 7.77 6.5 7.01 11.4-.52 1.83-1.09 3.65-1.66 5.47 1.68.67 3.34 1.45 4.58 2.82l-5.4.56-.58-4.51c-1.54-.2-3.09-.34-4.64-.34l.28 2.86c-5.03-.84-10.14-1.01-15.23-.93l-4.09-1.04c.32-1.74.61-3.48.85-5.22l5.3 1.04c1.95-3.77 2.98-7.9 3.61-12.07m5.53 2.3c-3.4.51-6.08 3.97-5.23 7.42.61 6.11 10.66 6.25 12.29.69 1.31-4.16-2.65-9.14-7.06-8.11z"/><path fill="#b7a59c" d="M86.88 207.17l13.29.03-2.47 1.09 4.43 1.12c-4.44 1.24-7.54 4.54-8.24 9.16.76-4.9-.77-11.75-7.01-11.4z"/><path fill="#645547" d="M232.48 207.32l2.28-.43 9.88.02 3.01 2.35c.3 4.13.48 8.51 3.26 11.85 3.7 5.02 1.83 11.53 3.95 17.03l-1.22 2.3-3.43 1.35-1.43.69c-.34 1.12-.66 2.25-.97 3.38-1.2.64-2.4 1.29-3.55 2-2.32-1.51-4.79-2.76-7.21-4.08l1.54 7.27-2.07-.27-1.07-4.1-3.15-1.23 1.48-5.72-5.3 1.94c-.8-1.11-1.67-2.18-2.49-3.27l-6.4-9.54c.42-2.43 1.1-4.81 2.08-7.07l-6.73.71-2.27.29c6.73-1.58 15.4-4.29 14.18-13.01 1.92-.71 3.82-1.49 5.63-2.46m-1.36 12.85l-6.96-.18.05 2-1.06-.05c.13 2.36.35 4.77 1.65 6.82 1.72-.46 3.43-.94 5.2-1.18-.29 3.15-.38 7.31 3.4 8.32.57-.73 1.15-1.45 1.74-2.16 2.98.09 5.95-.32 8.84-1.05-.14-2.5-.52-4.98-1.2-7.39 1.38-.47 2.67-1.14 3.99-1.75-.47-1.4.54-4.11-1.44-4.42-2.68-2.31-5.42-4.58-8.4-6.47-4.32-.49-5.13 4.35-5.81 7.51m14.91 8.79c-.21 3.41-.1 6.83.23 10.23 7.79.3 2.72-7.34-.23-10.23z"/><path fill="#4e433a" d="M298.23 206.66l5.95.81-4.19 6.47c.18 1.68.48 3.35.8 5.01l-3.59 3.98-4.12-.78-1.24.87c-2.14 1.75-4.4 3.53-5.77 5.99.95 1.93 2.4 3.54 3.89 5.06l-3.96-1.48-2.49-7.76c-2.43-.39-4.87-1.12-6.57-3l2.19-1.22c3.25 1.59 7.53 4.06 10.59.79 1.5-1.78 2.94-3.61 4.53-5.32 1.7-1.84 3.5-3.59 5.3-5.32l-1.32-4.1z"/><path fill="#d0ba9f" d="M304.18 207.47h1.88l7.44 6.37c-.19 3.98-.47 8.33-3.65 11.19-1.51-.87-1.53-2.3-1.01-3.75-.38-4.88-4.33-7.1-8.85-7.34 1.31-2.21 2.81-4.3 4.19-6.47z"/><path fill="#ead0b8" d="M144.35 218.8c-.81-3.86.52-7.54 2.5-10.81 5.12 5 .41 13.38-.46 19.46a90.56 90.56 0 0 0-1.13-2.88c-4.34-2.66-9.18-4.47-13.14-7.75-2.44-2.13-5.74-.53-8.54-.29l1.19-2.27c7.53-4 12.36 4.78 19.58 4.54z"/><path fill="#564940" d="M149.62 207.97l3.07.04c.25 2.49-.52 4.87-1.87 6.95-.64-2.29-.98-4.64-1.2-6.99z"/><path fill="#96836f" opacity=".92" d="M28.68 213.04l1.57-4.58c1.42 8.78 1.55 18.23 6.93 25.75l1.39 2.69-2.35 1.62c-4.35-7.9-6.95-16.45-7.54-25.48z"/><path fill="#fde7cf" d="M30.25 208.46l3.82 1.34 3.12 6.62.94-1.1c2.63-.28 5.28-.33 7.92-.31-4.26 1.06-7.12 4.47-8.29 8.59l3.35 2.34-1.84 2.44.42 3.7-2.51 2.13c-5.38-7.52-5.51-16.97-6.93-25.75z"/><path fill="#817365" d="M82.44 209.51c4.41-1.03 8.37 3.95 7.06 8.11-1.63 5.56-11.68 5.42-12.29-.69-.85-3.45 1.83-6.91 5.23-7.42m-2.43 6.62c1.35.73 2.34 2.51 4.04 2.34 3.05-1.47.89-5.26.36-7.63-1.65 1.61-3.11 3.38-4.4 5.29z"/><path fill="#fcf9fc" d="M211.15 211.78l3.99-2.21.66 2.01 8.16-.47c-2.3 6.17-9.02 4.14-12.81.67z"/><path fill="#fffff4" d="M80.01 216.13c1.29-1.91 2.75-3.68 4.4-5.29.53 2.37 2.69 6.16-.36 7.63-1.7.17-2.69-1.61-4.04-2.34z"/><path fill="#fefeff" d="M193.08 216c3.07-2.32 6.91-2.62 10.62-2.43l-.13 3.16c-3.49 1.29-7.22 1.09-10.49-.73z"/><path fill="#7b7167" d="M231.12 220.17c.68-3.16 1.49-8 5.81-7.51 2.98 1.89 5.72 4.16 8.4 6.47l-21.12 2.86-.05-2 6.96.18z"/><path fill="#fbe8d7" d="M299.99 213.94c4.52.24 8.47 2.46 8.85 7.34-.52 1.45-.5 2.88 1.01 3.75l-7.57 8.15-10.44-10.16 1.24-.87c1.38.21 2.75.5 4.12.78l3.59-3.98c-.32-1.66-.62-3.33-.8-5.01z"/><path fill="#8c8276" d="M313.5 213.84c.29 10.44 8.7 16.9 16.44 22.38 2.91-1.68 5.96-3.95 9.5-3.67 2.68 1.42.51 4.01-.45 5.83l-2.73-.66c-.26.05-.79.13-1.05.17l-1.51.88c2.22 1.8 4.36 3.67 6.47 5.6 1.05 2.07 3.94.35 2.05-1.33l-1.45-1.96c1.21-1.38 2.39-2.79 3.55-4.22 6.51 5.03-2.06 11.98-.81 18.2 3.63 3.03 6.38 7.72 4.59 12.52-1.7-.92-3.36-1.89-4.91-3.03 1.71-3.92-.1-6.06-2.46-1.85-1.5 1.92-3.15 3.69-4.81 5.45l4.76-.9a124.9 124.9 0 0 0 3.62 3.25c-3.52 4.88-10.08.94-13.32-2.31-5.72.58-9.11 6.19-14.99 6.47l-2.57-2.69c1.13-1.12 2.24-2.27 3.33-3.43a21.15 21.15 0 0 0 5.03.06c-2.59-2.71-5.41-5.18-8.35-7.49l.36 5.17c-1.03 1.14-2.01 2.32-2.93 3.56-.71-1.09-1.68-1.77-2.94-2.04.37-4.1 1.48-8.19 4.83-10.88l5.21 2.15c-2.47-2.66-5.07-5.21-7.83-7.57l3.54-2.2c-6.36-3.89-10.55-11.94-18.93-11.53-1.37-1.12-2.72-2.25-4.14-3.29 3.92 1.17 8.16.88 11.68-1.3 2.59-2.65 5.06-5.43 7.57-8.15 3.18-2.86 3.46-7.21 3.65-11.19m-9.57 21.94c1.67.97 3.48 1.66 5.34 2.22l.39-.78 2.36-.26c-1.54 1.39-2.48 3.28-4.03 4.64 3.81 2.82 8.76 4.25 11.62 8.21l-4.2.6 1.42 4.68c5.02 3.05 8.81 7.43 15.16 7.36 1.52-1.59 2.92-3.27 4.18-5.07 1.39-1.52 3.29-3.02 3.54-5.2-3.08-4.84-7.55-8.6-11.17-13.02-.8-.21-1.59-.45-2.38-.67-2.74-3.5-6.85-5.88-8.63-10.09-.39 1.76-1.14 3.42-2.37 4.75l.54-1.57-2.51.67c3.02-1.42 2.51-3.75.74-6.04-4.02 2.38-7.8 5.36-10 9.57z"/><path fill="#c4ad90" d="M123.58 216.53c2.8-.24 6.1-1.84 8.54.29 3.96 3.28 8.8 5.09 13.14 7.75-2.57-.78-5.27-1.17-7.84-.19l-.4-.06c-5.13.16-6.52-5.69-10.56-7.73-2.86 4.46-1.01 9.2 1.35 13.35 1.47-1 2.92-2.03 4.36-3.07l3.09 1.21c-1.47 3.1-3.15 6.1-4.88 9.06-2.65-2.85-6.04-5.1-8.09-8.45-1.04-4.04.93-8.13 1.29-12.16z"/><path fill="#a89483" d="M185.07 215.37l5.2-.48 2.81 1.11c3.27 1.82 7 2.02 10.49.73l1.8-.54-4.61 5.88c-2.12-.96-4.18-2.04-6.2-3.2l-4.8 3.42-.53-2.81-3.27.15c-.16-1.45-.45-2.88-.89-4.26z"/><path fill="#85715c" d="M46.59 216.31c3.73.36 7.42 1.02 11.08 1.86.05 2.18.26 4.38-.02 6.55-2.63 4.38-9.61 5.19-9.38 11.31-2.25-2.86-1.65-6.39-.87-9.67-3.05-2.71-1.91-6.7-.81-10.05z"/><path fill="#fffeff" d="M169.83 216.65c3.13-.24 6.29 1.03 9.25 2.04-2.27 2.68-5.55 3.86-9.04 3.37l-1.13-.68c.33-1.57.93-3.11.92-4.73z"/><path fill="#fae2c9" d="M119.69 230.11c-3.67-4.89 1.01-9.77 3.89-13.58-.36 4.03-2.33 8.12-1.29 12.16 2.05 3.35 5.44 5.6 8.09 8.45 1.73-2.96 3.41-5.96 4.88-9.06.61-1.25 1.18-2.51 1.76-3.76l.4.06c2.33 1.32 4.78 2.64 6.5 4.75-.51 4.3-3.19 7.86-5.25 11.54l-4.47-.52.39 3.44 2.67.04c-2.21 2.77-4.71 5.31-7.4 7.62-1.75-1.53-3.53-3.02-5.18-4.65l.27-2.19a100.15 100.15 0 0 1 7.94-.31c-1.95-6.49-10.67-7.56-13.2-13.99z"/><path fill="#947e67" d="M126.46 216.59c4.04 2.04 5.43 7.89 10.56 7.73l-1.76 3.76-3.09-1.21-4.36 3.07c-2.36-4.15-4.21-8.89-1.35-13.35z"/><path fill="#bab2b5" d="M152.57 227.98c-.39-3.52.44-6.99 1.93-10.17 2.12 1.69 4.9 2.83 6.43 5.11-2 2.64-5.52 3.55-8.36 5.06z"/><path fill="#e3ccb4" d="M224.21 221.99c7.01-1.14 14.07-1.94 21.12-2.86 1.98.31.97 3.02 1.44 4.42-1.32.61-2.61 1.28-3.99 1.75-4.18 1.15-8.5 1.67-12.78 2.28-1.77.24-3.48.72-5.2 1.18-1.3-2.05-1.52-4.46-1.65-6.82l1.06.05z"/><path fill="#c7b4a1" d="M86.19 222.57c1.55 0 3.1.14 4.64.34l.58 4.51c-3.92 2.98-8.56-.23-12.84-.39-3.92-.83-7.93-1.12-11.93-1.25 1.55-.37 3.07-.85 4.6-1.28 5.09-.08 10.2.09 15.23.93l-.28-2.86z"/><path fill="#17130f" opacity=".87" d="M214.94 222.5l6.73-.71c-.98 2.26-1.66 4.64-2.08 7.07-1.41-2.22-2.98-4.33-4.65-6.36z"/><path fill="#a9917b" d="M137.42 224.38c2.57-.98 5.27-.59 7.84.19l1.13 2.88.17.45c.68 1.61 2.13 2.66 3.39 3.8.45 2.08.7 4.54 3.07 5.31l.04.42c-1.24 1.88-2.63 3.66-4.03 5.42.98 5.56-9.08 2.02-9.14 8.45-1.93 1.01-3.8 2.13-5.68 3.22l1.55 2.72-1 2c2.76 3.79 2.32 8.53 2.25 12.95 5.57-.08 11.25-.84 16.21-3.51-.79 1.64-1.71 3.24-3.04 4.51l-3.07.96 2.04 2.13-1.2 1.97-1.8-.25-1.84-.2c-.8.71-1.6 1.44-2.38 2.18l-3.41-1.34-1.72-3.91c-1.31 1.77-2.02 3.86-2.13 6.07l-15.59.3-.64-5.35c-5.29-.34-10.59-1.06-15.64-2.73-.78 1.28-1.69 2.48-2.69 3.61-4.85-3.42-10.76-3.67-16.46-3.1a37.72 37.72 0 0 0-1.32-4.79c-4.43-.28-8.84-.91-13.09-2.21l-2.49 2.87c-.37-.11-1.13-.31-1.51-.41-3.73-1.84-7.42-3.76-11.1-5.71l1.43-3.46c-3.72-3.18-7.11-6.71-10.8-9.92.65-.57 1.32-1.11 2-1.65l.61-.48c1.13 1.49 2.25 3.01 3.47 4.43 1.4 1.29 2.9 2.49 4.37 3.71.1-3.4.85-6.87 5.07-6.57-1.04 2.66-2.11 5.32-3.3 7.93 3.66 2.61 7.71 4.61 11.92 6.2l3.02-3.51 1.93 5.4 6.75.38 2.08-6.83-.04 7.61c4.46.93 9.02.81 13.53.44l1.06-9.84c2.67 1.92 2.61 5.44 1.55 8.23l-1.2 1.67c-.2 1.57-.3 3.15-.44 4.73l5.09-.11c.24-2.21-.83-4.12-2.38-5.61 1.79-.12 3.57-.31 5.34-.59 3.06-.35 5.74-1.94 8.39-3.37l3.02-1.6c4.37-2.51 11.79-6.18 7.84-12.23l.23-1.64c1.65 1.63 3.43 3.12 5.18 4.65 2.69-2.31 5.19-4.85 7.4-7.62l-2.67-.04-.39-3.44 4.47.52c2.06-3.68 4.74-7.24 5.25-11.54-1.72-2.11-4.17-3.43-6.5-4.75m-9.5 28.39c1.02 1.9 2.14 3.73 3.32 5.54 4.29-2.34-.22-5.41-3.32-5.54m-9.67 17.46l.58 1.16-2.11-.95-.12-2.16c-3.86-1.34-8.07-1.16-10.57 2.46 4.41 1.09 8.96 1.23 13.44 1.88 4.96 1.24 10.11.87 15.09-.03l.32-5.51c-.06-1.35-.09-2.69-.09-4.03-6.44-.65-12.87 1.71-16.54 7.18z"/><path fill="#d3bca2" d="M286.07 229.01c1.37-2.46 3.63-4.24 5.77-5.99l10.44 10.16c-3.52 2.18-7.76 2.47-11.68 1.3l-.64-.41c-1.49-1.52-2.94-3.13-3.89-5.06z"/><path fill="#fce6cc" d="M53.16 234.14c2.98-3.78 6.17-9.06 11.77-8.16l1.04-.08c-1.06.54-2.1 1.12-3.13 1.7-.61 3.79-2.05 7.51-6.25 8.33 1.42 3.33 1.8 6.94 1.08 10.48 8.11-.02 20.1 5.21 16.98 15.21l5.33 1.23c-.25-5.65 4.25-9.74 9.8-9.57-.33-7.17.82-14.5-.61-21.56-3.39-1.87-7.29-2.62-10.6-4.69 4.28.16 8.92 3.37 12.84.39-.15 8.01-1.23 16.17.23 24.09 3.99 3.25 9.43 3.78 14.4 3.75l2.24 1.88c-3.45 4.8-8.28.67-11.85-1.54-3.81-1.52-7.96-.95-11.91-.46 2.16 3.26 6.46 2.43 9.8 2.81a121.71 121.71 0 0 1 .59 8.09c-4.08.24-8.17.34-12.26.48l.04-7.61-2.08 6.83-6.75-.38-1.93-5.4-3.02 3.51c-4.21-1.59-8.26-3.59-11.92-6.2 1.19-2.61 2.26-5.27 3.3-7.93-4.22-.3-4.97 3.17-5.07 6.57-1.47-1.22-2.97-2.42-4.37-3.71 2.21-3.2 4.65-6.96 3.94-11.02-.56-2.33-3.59-4.68-1.63-7.04z"/><path fill="#6e6a6c" d="M230 227.58c4.28-.61 8.6-1.13 12.78-2.28.68 2.41 1.06 4.89 1.2 7.39-2.89.73-5.86 1.14-8.84 1.05l-1.74 2.16c-3.78-1.01-3.69-5.17-3.4-8.32z"/><path fill="#c1ab91" d="M303.93 235.78c2.2-4.21 5.98-7.19 10-9.57 1.77 2.29 2.28 4.62-.74 6.04-1.65 1.28-2.65 3.13-3.53 4.97l-.39.78c-1.86-.56-3.67-1.25-5.34-2.22z"/><path fill="#b89e83" d="M152.33 231.89c4.13-8.02 15.23-2.79 22.4-4.71l1.69 3.15c3.45-4.71 8.22-2.09 12.21.33-2.21 5.21-2.36 11.68-7.08 15.44-7.07-3.56-14.46 4.15-11.72 11.22.46 2.2 1.08 4.37 1.69 6.54-1.14 1.29-2.26 2.61-3.48 3.83-1.64 1.38-3.4 2.61-5.15 3.86l-3.88-.11-3.29-4.62 1.49-.8a91.99 91.99 0 0 0 7.92-5.32l2.33-1.74c-.08-4.35-3.11-7.55-7.65-6.36-2.95 2.03-5.85 4.14-8.93 5.98 1.22 2.3 2.27 4.69 3.5 6.99-1.49-.24-2.99-.4-4.48-.54-.36-2.54-1.12-5.13-.66-7.7 2.63-3.99 7.61-5.21 11.2-8.08.14-5.35-3.17-10.21-5.25-15.04l-2.13 3.22-.04-.42-.69-5.12m24.1 1.5l-2.93 6.37a35.99 35.99 0 0 0 8.18 4.21c2.95-3.42 3.9-7.77 1.91-11.94a78.57 78.57 0 0 0-7.16 1.36z"/><path fill="#635447" d="M149.95 231.7c-1.26-1.14-2.71-2.19-3.39-3.8l5.33.19.44 3.8.69 5.12c-2.37-.77-2.62-3.23-3.07-5.31z"/><path fill="#bda890" d="M317.53 228.4c1.78 4.21 5.89 6.59 8.63 10.09l2.38.67c-2.87 4.21-4.75 9.08-8.44 12.71 4.42 3.59 10.06 9.44 16.07 5.51-1.26 1.8-2.66 3.48-4.18 5.07-6.35.07-10.14-4.31-15.16-7.36l-1.42-4.68 4.2-.6c-2.86-3.96-7.81-5.39-11.62-8.21 1.55-1.36 2.49-3.25 4.03-4.64 1.11-1.21 2.12-2.51 3.14-3.81 1.23-1.33 1.98-2.99 2.37-4.75m-1.55 7.74c-.35 2.26-.54 4.54-.65 6.83 4.8 1.44 7.13-2.28 6.38-6.57l-5.73-.26z"/><path fill="#d9c2a5" d="M103.79 238.19c-3.75-2.25-3.13-8.71 1.11-9.97-1.82 3.09-2.03 6.55-1.11 9.97z"/><path fill="#9a8874" d="M246.03 228.96c2.95 2.89 8.02 10.53.23 10.23-.33-3.4-.44-6.82-.23-10.23z"/><path fill="#e0c6af" d="M176.43 233.39l7.16-1.36c1.99 4.17 1.04 8.52-1.91 11.94a35.99 35.99 0 0 1-8.18-4.21l2.93-6.37z"/><path fill="#473c34" d="M313.19 232.25l2.51-.67-.54 1.57-3.14 3.81-2.36.26c.88-1.84 1.88-3.69 3.53-4.97z"/><path fill="#e9ceb2" d="M153.06 237.43l2.13-3.22c2.08 4.83 5.39 9.69 5.25 15.04-3.59 2.87-8.57 4.09-11.2 8.08-.46 2.57.3 5.16.66 7.7 1.49.14 2.99.3 4.48.54l2.83.45-1.49.8a44.81 44.81 0 0 1-1.86.61c-5.86.54-12.19.58-16.85 4.76.07-4.42.51-9.16-2.25-12.95l1-2 2.68.09 1.66-3.38 2.7.18.11 3.13-3.32.35c1 2.72 2.93 4.87 5.33 6.45 2.25-4.88 4.72-10.32.76-15.12-1.94.76-3.89 1.49-5.79 2.36.06-6.43 10.12-2.89 9.14-8.45 1.4-1.76 2.79-3.54 4.03-5.42z"/><path fill="#eed6c0" d="M39.48 236.47c5.3-2.24 11.75 1.16 13.55 6.71-1.86 1.56-3.72 3.12-5.65 4.59l-.61.48c-2.54-3.54-8.99-7.26-7.29-11.78z"/><path fill="#867969" d="M315.98 236.14l5.73.26c.75 4.29-1.58 8.01-6.38 6.57l.65-6.83z"/><path fill="#97846e" d="M253.64 240.44l1.22-2.3 3.46 1.94c1.98 4.98 3.03 10.4.44 15.38-1.62.05-3.25.11-4.86.32-.41-4.84-.95-9.83-3.69-13.99 1.13-.48 2.28-.91 3.43-1.35z"/><path fill="#37322c" opacity=".95" d="M294.74 237.77c8.38-.41 12.57 7.64 18.93 11.53l-3.54 2.2c-4.93-4.81-10.15-9.27-15.39-13.73z"/><path fill="#2e2e2f" opacity=".58" d="M336.26 237.72l2.73.66c-.5 1.68-2.54.64-2.73-.66z"/><path fill="#030302" opacity=".92" d="M225.99 238.4l2.49 3.27c1.6 3.08.46 6.56.4 9.82-3.64-3.26-4.11-8.62-2.89-13.09z"/><path fill="#847362" d="M228.48 241.67l5.3-1.94-1.48 5.72 3.15 1.23 1.07 4.1 2.07.27-1.54-7.27 7.21 4.08c-1.77 1.39-3.42 2.92-5.04 4.48l.77 6.58-2.77.25-2.15 3.13-2.36-3.23c-1.46-2.43-2.78-4.95-3.83-7.58.06-3.26 1.2-6.74-.4-9.82z"/><path fill="#d5bea5" d="M320.1 251.87c3.69-3.63 5.57-8.5 8.44-12.71 3.62 4.42 8.09 8.18 11.17 13.02-.25 2.18-2.15 3.68-3.54 5.2-6.01 3.93-11.65-1.92-16.07-5.51z"/><path fill="#cbb7a4" d="M248.78 242.48l1.43-.69c2.74 4.16 3.28 9.15 3.69 13.99-4.56 1.34-9.13 2.8-13.91 3.14l-.77-6.58c1.62-1.56 3.27-3.09 5.04-4.48 1.15-.71 2.35-1.36 3.55-2l.97-3.38z"/><path fill="#2f2d2d" opacity=".68" d="M342.22 243.04c1.89 1.68-1 3.4-2.05 1.33l2.05-1.33z"/><path d="M108.28 257.14c1.28-7.87 9.29-12.29 16.67-12.73l-.27 2.19-.23 1.64c-4.96.56-9.67 2.4-13.6 5.51 1.51 2.56 3.31 4.97 5.76 6.72l-3.02 1.6-2.85-1.52c-3.51 1.26-6.95 2.68-10.28 4.36l4.74.53c-1.77.28-3.55.47-5.34.59l-1.07-.68c1.06-2.79 1.12-6.31-1.55-8.23l-1.06 9.84c-4.51.37-9.07.49-13.53-.44l12.26-.48a121.71 121.71 0 0 0-.59-8.09l2.11-2.35c3.57 2.21 8.4 6.34 11.85 1.54zm9.97 13.09c3.67-5.47 10.1-7.83 16.54-7.18 0 1.34.03 2.68.09 4.03-4.72-.19-9.59.42-12.97 4.08l-3.66-.93z" fill="#d3bba2"/><path fill="#e4cbb0" d="M169.83 257.32c-2.74-7.07 4.65-14.78 11.72-11.22-3.37 4.28-6.88 8.54-11.72 11.22z"/><path fill="#706356" d="M171.36 261.55c3.46-4.41 8.54-7.05 12.57-10.86l-1.55 5.87 2.87.87c-8.12 6.69-8.06 18.03-12.13 26.98l3.02 1.48c-1.49.15-2.96.33-4.43.54l1.32 1.48c.25.28.76.83 1.02 1.1-1.2 3.48-2.43 6.96-3.4 10.51l-3.41 1.86c-2.22.96-4.82 1.53-6.17 3.75l.33-6.07c-3.83-1.68-7.71-3.22-11.65-4.61l-4.44 4.6c.47-3.09-1.3-5.92-3.96-7.37l1.3-3.63c1.11-3.37 2.3-6.71 3.5-10.05l1.8.25 1.2-1.97 1.51 1.6 1.82-5.36-2.3.67c1.33-1.27 2.25-2.87 3.04-4.51l.64-1.25a44.81 44.81 0 0 0 1.86-.61l3.29 4.62-1.15 3.5-2.87-2.56c-.29 2.93-.53 5.87-.97 8.8l-3.9 11.4c4.01 1.68 8.08 4.44 12.61 3.89 2.91-5.1 4.73-10.77 7.24-16.08.94-6.63 4.01-12.63 5.77-19.03l-4.38.19z"/><path fill="#ecd2bb" d="M159.81 252.6c4.54-1.19 7.57 2.01 7.65 6.36l-2.33 1.74-5.32-8.1z"/><path fill="#56483d" d="M127.92 252.77c3.1.13 7.61 3.2 3.32 5.54l-3.32-5.54z"/><path fill="#fffee8" d="M150.88 258.58c3.08-1.84 5.98-3.95 8.93-5.98 1.73 2.73 3.53 5.41 5.32 8.1a91.99 91.99 0 0 1-7.92 5.32l-2.83-.45c-1.23-2.3-2.28-4.69-3.5-6.99z"/><path fill="#9a8772" d="M84.52 255.14c3.95-.49 8.1-1.06 11.91.46l-2.11 2.35c-3.34-.38-7.64.45-9.8-2.81z"/><path fill="#675a4d" d="M253.9 255.78c1.61-.21 3.24-.27 4.86-.32-2.71 8.53 2.03 16.8 4 24.93l1.93.34c-.39 1.23-.95 2.4-1.72 3.44l1.95.41c1.04 3.47 1.91 6.98 2.94 10.46l2.4-4.41c-.03 2.69-4.4 5.83-1.51 7.96-3.02 1.27-5.45 4.06-5.13 7.51-1.22-3.57-1.82-7.3-2.21-11.04-.88-5.09-1.7-10.2-3.02-15.2-2.67-6.3-3.19-13.24-1.57-19.88-4.3-2.6-9.24-.58-13.71.33-1.9.74-4.39 1.02-5.5 2.94 1.33 5.38 3.22 10.63 4.62 16-1.96 1.81-2.67 4.34-2.59 6.95-1.98-7.88-2.39-16.09-4.57-23.9l2.15-3.13 2.77-.25c4.78-.34 9.35-1.8 13.91-3.14z"/><path fill="#978470" d="M243.11 260.31c4.47-.91 9.41-2.93 13.71-.33-1.62 6.64-1.1 13.58 1.57 19.88-4.52-.5-8.38 2.26-12.6 3.33-1.56-5.86-.23-12.72-4.59-17.56l1.91-5.32m1.64 7.61c2.56-.3 5.1-.73 7.62-1.28-1.08-3.72-6.74-1.74-7.62 1.28m.97 8.15c3.3 4.14 7.59 2.39 9.31-2.08-3.33-4.03-7.67-2.5-9.31 2.08z"/><path fill="#171412" opacity=".8" d="M232.71 259.07l2.36 3.23c2.18 7.81 2.59 16.02 4.57 23.9l1.08 5.93-1.96-1.09-2.57-3.19c1.28-.77 2.35-2.01 1.64-3.58-2.14-8.31-3.06-16.87-5.12-25.2z"/><path fill="#fbedd1" d="M100.46 264.91c3.33-1.68 6.77-3.1 10.28-4.36l2.85 1.52c-2.65 1.43-5.33 3.02-8.39 3.37l-4.74-.53z"/><path fill="#7d6e5f" d="M237.61 263.25c1.11-1.92 3.6-2.2 5.5-2.94l-1.91 5.32c4.36 4.84 3.03 11.7 4.59 17.56l-1.47 1.28c1.82 5.12 2.81 10.46 3.78 15.79l2.37 2.39-4.97 2.79.39 1.69c-1.63-.63-3.27-1.23-4.85-1.95-1.61-.93-3.19-1.89-4.63-3.04l1.47-.28c-.46-3.32-1.18-6.59-1.88-9.86l2.76-.96 1.96 1.09-1.08-5.93c-.08-2.61.63-5.14 2.59-6.95-1.4-5.37-3.29-10.62-4.62-16z"/><path fill="#1c1b1b" opacity=".56" d="M340.73 262.7c2.36-4.21 4.17-2.07 2.46 1.85l-2.46-1.85z"/><path fill="#463c33" d="M244.75 267.92c.88-3.02 6.54-5 7.62-1.28l-7.62 1.28z"/><path fill="#5a4e40" d="M97.59 267.02l1.2-1.67 1.07.68c1.55 1.49 2.62 3.4 2.38 5.61l-5.09.11.44-4.73z"/><path fill="#c7af93" d="M106.03 270.74c2.5-3.62 6.71-3.8 10.57-2.46l.12 2.16 2.11.95.64 1.23c-4.48-.65-9.03-.79-13.44-1.88z"/><path fill="#f9e2ca" d="M121.91 271.16c3.38-3.66 8.25-4.27 12.97-4.08l-.32 5.51c-4.98.9-10.13 1.27-15.09.03l-.64-1.23-.58-1.16 3.66.93z"/><path fill="#fcf4dd" d="M137.01 272.19c4.66-4.18 10.99-4.22 16.85-4.76l-.64 1.25c-4.96 2.67-10.64 3.43-16.21 3.51z"/><path fill="#62584d" d="M162.89 271.55l5.15-3.86 2.04 5.18-6.15 1.92-1.04-3.24z"/><path fill="#5e5348" d="M245.72 276.07c1.64-4.58 5.98-6.11 9.31-2.08-1.72 4.47-6.01 6.22-9.31 2.08z"/><path fill="#2b2521" opacity=".58" d="M147.11 274.15l3.07-.96 2.3-.67-1.82 5.36-1.51-1.6-2.04-2.13z"/><path fill="#ae9a87" d="M154.02 281.18c1.75-8.19 11.43-3.72 15.95-.79-2.51 5.31-4.33 10.98-7.24 16.08-4.53.55-8.6-2.21-12.61-3.89 1.2-3.84 2.57-7.61 3.9-11.4z"/><path fill="#ab9683" d="M245.79 283.19c4.22-1.07 8.08-3.83 12.6-3.33 1.32 5 2.14 10.11 3.02 15.2-1.84 5.62-8.41 5.84-13.31 5.2-.97-5.33-1.96-10.67-3.78-15.79l1.47-1.28z"/><path fill="#8a8a8f" d="M264.69 280.73c3.6.36 8.37.57 9.38 4.88-1.64.53-3.27 1.09-4.88 1.69l-2.42-2.25-1.85-.47-1.95-.41c.77-1.04 1.33-2.21 1.72-3.44z"/><path fill="#9897a0" d="M134.81 282.31l5.79.93-.06 3.62 2.11 1.19-1.3 3.63c-3.66-1.78-6.45-5.17-6.54-9.37z"/><path fill="#8d8c93" d="M171.71 286.43l4.43-.54c3.43 1.54 6.07 4.99 5.55 8.89a105.57 105.57 0 0 1-5.01-.99c-.59-1.74-1.19-3.55-2.63-4.78-.26-.27-.77-.82-1.02-1.1l-1.32-1.48z"/><path fill="#95949c" d="M227.38 293.78c2.33-2.77 5.21-5.11 8.81-5.93.88 1.05 1.72 2.12 2.57 3.19L236 292l-2.43.81.03 3.23c-1.73.2-3.44.46-5.15.76l-1.07-3.02z"/><path d="M270.26 290.63l4.53-.64.67 3.83c-2.09 1.78-4.22 3.56-6.71 4.77-2.89-2.13 1.48-5.27 1.51-7.96zm-99.61 8.89l4.45-2.44 3.73 1.2-.26 3.34c-3.72 1.25-7.8 2.07-11.33-.24 1.15-.6 2.28-1.23 3.41-1.86z" fill="#929199"/><path fill="#918376" d="M149.75 294.45c3.94 1.39 7.82 2.93 11.65 4.61l-.33 6.07c-.44 3.47-3.31 5.49-5.96 7.33l-2.86-.42c.1-1.44.24-2.88.46-4.3l4.79-1.3.53-1.96-2.98-.54c-2.51-.65-4.89-1.68-7.23-2.77l-.43 1.43 2.54 2.37c-.73 1.73-1.43 3.47-2.1 5.23-4.37-1.72-5.06-7.6-2.52-11.15 1.45-1.56 2.96-3.07 4.44-4.6z"/><path fill="#8e8071" d="M261.41 295.06c.39 3.74.99 7.47 2.21 11.04 1.5 3.16-.07 6.35-1.22 9.32l-3.28.38c-.29-1.63-.6-3.26-1.05-4.85l2.63-1.38.26-2.62c-1.62.54-3.23 1.1-4.87 1.56a156.7 156.7 0 0 1-6.01 1.28l.71 1.42 3.55.58a112.25 112.25 0 0 0 .73 5.77c-1.75-.2-3.62-.26-5.11-1.31-2.17-2.62-3.43-5.81-4.07-9.12l-.39-1.69 4.97-2.79-2.37-2.39c4.9.64 11.47.42 13.31-5.2z"/><path fill="#9997a1" d="M228.88 300.94l4.95-1.39 2.58 2.59c1.44 1.15 3.02 2.11 4.63 3.04-4.36 1.69-10.53.72-12.16-4.24z"/><path fill="#343234" opacity=".63" d="M155.05 303.94l2.98.54-.53 1.96-4.79 1.3 2.86-2.55-.52-1.25z"/><path fill="#292728" opacity=".59" d="M256.09 308.51l4.87-1.56-.26 2.62-2.63 1.38-1.98-2.44z"/></svg>