<svg xmlns="http://www.w3.org/2000/svg" width="512" height="512" viewBox="0 0 384 384" xmlns:v="https://vecta.io/nano"><path fill="#a99f8c" d="M246.8 29.81c.44-3.18 2.9-5.29 5.15-7.3l2.87.57-.63 4.85-3.86.63-.38 1.95 3.81.6 1.9.31 5.14 1.63-.07-2.51-2.69-.98.86-5.1 3.19.26c.94 2.56 2.49 5.18 1.77 8-1.81 3.11-2.39 6.66-2.64 10.2-2.17-5.3-8.13-5.9-13.1-5.32-.15-2.64-.82-5.2-1.32-7.79z"/><path fill="#a49887" d="M155.24 27.17c4.56 1.83 5.76 6.72 9.04 9.79-.05 1.56-.13 3.11-.12 4.67-4.95-.56-9.52 1.55-13.3 4.58-.74-1.54-1.55-3.04-2.34-4.55l-2.66-.31c-2.11-3.29-1.32-7.12-.22-10.6l2.84-.63 1.61 3.71c-.92 1.7-1.81 3.42-2.63 5.17l5.71-2.49 1.1-.33 4.62-1.39c-1.19-1.68-3.28-1.61-5.1-1.85-.38-1.48-.84-2.93-1.28-4.39l2.73-1.38z"/><path fill="#322f2e" opacity=".61" d="M250.33 28.56l3.86-.63-.43 3.18-3.81-.6.38-1.95z"/><path fill="#827567" d="M240.64 34.69c2.27-1.32 5.14-2.19 6.16-4.88.5 2.59 1.17 5.15 1.32 7.79-.64 3.87-1.79 7.62-2.62 11.45-.01 7.19-1.51 14.19-3.42 21.08-.62 4.13 4.42 4.94 7.33 5.88l-2.82.6c-2.18-.37-4.34-.8-6.5-1.23-2.44 5.17.34 9.45 5.15 11.61-3.92.74-6.82-1.57-9.08-4.46-1.96 1.54-3.88 3.11-5.78 4.73 6.77 4.27 16.18 4.02 21.18 11.05-2.35 7.14-5.48 14.19-3.35 21.93v1.02l-4.45-2.03c-.01-2.96 1.95-9.36-2.94-8.68-1.9.37-3.77.87-5.65 1.34l-3.25-4c-2.16-1.93-5.25-2.32-7.69-3.83 7.5.32 14.88 1.65 22.31 2.57l.86-5.64-2.18-.62c-5.52-1.75-11-4.08-16.94-3.29l-4.82-.15-.56 6.35c-.82-.62-1.61-1.27-2.38-1.94-.51-1.69-.73-3.45-.98-5.2 6.58-5.39 9.81-13.23 13.68-20.42a22.6 22.6 0 0 0 1.27-2.05c3.67-8.09 3.88-17.25 5.65-25.87-1.57 2-3.18 4.36-6.04 4.3l-2.1-.95 5.25-.7-4.7-3.1.08-3.59 2.67 4.38c1.02-2.91 1.82-5.89 2.52-8.9l-1.23-1.59c1.27-1.1 2.64-2.05 4.05-2.96z"/><path fill="#2f2c2b" opacity=".6" d="M258.04 29.56l2.69.98.07 2.51-5.14-1.63 2.38-1.86z"/><path fill="#232221" opacity=".54" d="M153.79 32.94c1.82.24 3.91.17 5.1 1.85l-4.62 1.39-.48-3.24z"/><path fill="#6d6052" d="M261.22 42.92c.25-3.54.83-7.09 2.64-10.2l-.44 3.31c1.53 2.04 3.06 4.22 5.38 5.46l-1.75 1.92c2.62 2.34 3.96 6.07 7.73 6.89l.01.49-5.05-.79-.67-3.1c-.71-.45-1.42-.86-2.15-1.26-.42 3.27-.97 6.56-2.4 9.55-.77.92-1.59 1.8-2.39 2.69 2.28.44 4.56.88 6.87 1.15-2.24.49-4.54.46-6.82.51-1.84 6.37-5.55 12.84-3.73 19.66-2.07-.23-4.13-.53-6.15-.99-1.92-.49-3.8-1.09-5.71-1.6l2.82-.6 4.11-.74 1.03-4.92c-3.07.31-6.15.15-9.16-.5l-.74-2.83 10.41 2.43c.82-5.12 2.11-10.15 3.9-15.02.95-3.8 1.66-7.65 2.26-11.51z"/><path fill="#252322" opacity=".47" d="M150.09 33.83c.98.95 2.02 1.83 3.08 2.68L147.46 39l2.63-5.17z"/><path fill="#a0a0aa" d="M229.06 39.81c.42-5.54 7.32-6.18 11.58-5.12-1.41.91-2.78 1.86-4.05 2.96a83.48 83.48 0 0 0-2.57 3.07l-4.96-.91z"/><path fill="#877969" d="M164.28 36.96c5.23 1.55 14.24-2.98 15.76 4.71-1.64.49-3.28.94-4.89 1.49-1.16-1.27-2.42-2.53-4.22-2.69.47 1.51.96 3.02 1.53 4.5.81 2.1 1.69 4.18 2.63 6.23 1.02-1.52 1.34-3.31 1.5-5.1l4.96-1 1.15 3.07a18.36 18.36 0 0 1-8.15 7.52c2.96 7.26 3.07 16.77 10.42 21.35 4.81 2.59 6.58 8.33 6.65 13.48-.79-1.56-1.62-3.09-2.45-4.63l-5.22 1.74c-.74-4.81-5.08-7.42-8.25-10.59.25-6.96-3.96-13.21-5.55-19.87-1.51-5.37-4.38-10.22-5.99-15.54-.01-1.56.07-3.11.12-4.67z"/><path fill="#d9c6ad" d="M248.12 37.6c4.97-.58 10.93.02 13.1 5.32-.6 3.86-1.31 7.71-2.26 11.51-4.97 1.76-11.48-.19-13.46-5.38.83-3.83 1.98-7.58 2.62-11.45z"/><path fill="#796b5c" d="M145.86 41.35l2.66.31 2.34 4.55c2.51 5.82 4.42 11.93 7.84 17.32l-2.88 1.58c-2.26-3.55-6.13-5.36-10.13-6.15-1-2.65-2.19-5.23-3.7-7.62l1.22-3.79c.92-2.05 1.89-4.08 2.65-6.2z"/><path fill="#d0bda6" d="M150.86 46.21c3.78-3.03 8.35-5.14 13.3-4.58 1.61 5.32 4.48 10.17 5.99 15.54-2.46 1.48-5.23 2.21-8.04 2.64 2.63 3.65 5.94 7.25 6.34 11.95 1.12 4.9-4.64 6.82-7.64 9.35l-1.57-.91c.16-5.54 3.07-11.69-.54-16.67-3.42-5.39-5.33-11.5-7.84-17.32z"/><path fill="#1c1a1a" opacity=".42" d="M170.93 40.47c1.8.16 3.06 1.42 4.22 2.69l-2.69 1.81-1.53-4.5z"/><path fill="#96969c" d="M267.05 43.41l1.75-1.92c3.35 1.68 6.95 4.56 5.98 8.81-3.77-.82-5.11-4.55-7.73-6.89z"/><path fill="#9d9ca4" d="M227.68 43.52l4.95.24-.08 3.59 4.7 3.1-5.25.7-4.32-4.17v-3.46z"/><path fill="#9d9ba2" d="M136.02 53.15c1.85-2.5 4.15-4.68 7.19-5.6l-1.22 3.79c-.74 2.37-1.65 4.68-2.82 6.88l-3.74-.35-2.17-4.74 2.05-.03.71.05z"/><path fill="#1e1b19" opacity=".75" d="M234.1 52.1c2.86.06 4.47-2.3 6.04-4.3-1.77 8.62-1.98 17.78-5.65 25.87.7-6.76 2.18-13.39 3.46-20.06l-3.85-1.51z"/><path fill="#c4b298" d="M242.08 70.13c1.91-6.89 3.41-13.89 3.42-21.08 1.98 5.19 8.49 7.14 13.46 5.38-1.79 4.87-3.08 9.9-3.9 15.02l-10.41-2.43.74 2.83c3.01.65 6.09.81 9.16.5l-1.03 4.92-4.11.74c-2.91-.94-7.95-1.75-7.33-5.88m3.62-10.07c1.67 4.36 5.74 5.79 9.33 2.45-1.87-4.07-5.86-6.27-9.33-2.45z"/><path fill="#bea88e" d="M119.3 52.47c5.34.08 10.71-.18 16.01.63l-2.05.03c-5.32 0-12.32-.02-14.22 6.17 6.22-.11 8.83 5.48 13.54 7.87 1.19-3.02 2.13-6.13 2.85-9.3l3.74.35 3.02.33a129.42 129.42 0 0 0-4.42.34c-.54 4.85.65 9.62 1.93 14.26-1.9 1.16-3.71 2.46-5.54 3.74 2.48 2.15 5.02 4.22 7.62 6.23.91 1.4 1.74 2.85 2.59 4.29a221.57 221.57 0 0 0 12.17-3.14l-.33-3.88c1.32.93 2.47 2.06 3.61 3.19-1.16 2.6-2.11 5.28-2.95 8l-6.47-3.74 4.09 6.5c-3.74-2.05-7.76-3.63-12.04-3.96-.19 1.84-.39 3.69-.49 5.55-1.37-4.35-5.24-5.48-9.34-4.18l2.49-2.08 2.9-1.65a68.17 68.17 0 0 0-7.17-7.05l-2.17.54c-2.29 4.84-7.29 5.74-11.86 3.51-2.4-2.75-4.87-5.43-7.34-8.11.88-1.89 1.76-3.78 2.73-5.63l1.21-2.24c-3.03-3.26-7.36-4.41-11.68-4.63l-2.89 8.6c-2.76 5.28-9.18 4.1-13.96 3.04 1.66-1.12 3.34-2.22 5.15-3.08 2.47-.23 4.94-.39 7.41-.55-.16-4.06-.53-8.1-1.1-12.11-4.73-.31-9.03 1.69-12.92 4.16l-.14 8.84-2.18.04c-.68-3.12-.88-6.32-.7-9.51-2.54.56-5.07 1.18-7.58 1.85l.68 3.53-2.06-.6a81.27 81.27 0 0 1-2.72-1.1c-3.98 1.59-7.8 3.56-11.5 5.74 1.04 2.23 2.1 4.46 2.92 6.77l.61 2.79c-2.67-1.97-4.29-4.88-5.73-7.79-3.58 4.25-8.86 6.51-12.36 10.62-1.54 2.46-2.89 5.03-4.38 7.52l5.35 4.91 3.51 3.13c-.47 4.66-1.18 9.3-2.23 13.88-2.27-.12-4.55-.2-6.82-.25-.1 3.16-.13 6.32-.11 9.48-3.26-.6-6.56-1.04-9.79-1.81 1.6-10.09 2.18-20.75 8.47-29.3l-3.68-3.3c2.63-3.81 5.43-7.51 8.18-11.24l4.69 2.2c3.17-3.37 6.46-6.63 10-9.62l-1.44-3.46 12.51-6.2L69 64.82c4.46-1.36 9.1-1.98 13.72-2.5l.89-4.49c5.71-.09 11.51.75 17.13-.71l2.27 3.24c5.04-1.75 10.37-2.23 15.62-2.89l.67-5m-2.93 17.58c-1.57 2.15-4.61 4.26-3.84 7.28 3.15 2.8 6.7 5.11 10.19 7.46 1.77-2.21 3.4-4.57 4.15-7.34-3.37-2.64-6.69-5.4-10.5-7.4m11.03 8.82c2.28-.31 5.61.4 6.48-2.43l-3.04-2.81c-1.4 1.57-2.56 3.33-3.44 5.24M37.27 97.13c-4.99 7.27-5.22 16.45-6.37 24.9l4.03-.29 1.87-7.95c3.2-.58 5.81-2.44 7.3-5.34l-6.31-.85c1.07-2.88 2.42-5.65 3.95-8.32l-4.47-2.15z"/><path fill="#f1dcbf" d="M119.04 59.3c1.9-6.19 8.9-6.17 14.22-6.17l2.17 4.74c-.72 3.17-1.66 6.28-2.85 9.3-4.71-2.39-7.32-7.98-13.54-7.87z"/><path fill="#8d8d92" d="M266.46 55.36c1.82-2.84 4.66-2.14 7.28-.9l-1.1 3.35-3.64 1.22-6.87-1.15 2.39-2.69 1.94.17z"/><path fill="#aa947e" d="M162.11 59.81c2.81-.43 5.58-1.16 8.04-2.64 1.59 6.66 5.8 12.91 5.55 19.87 3.17 3.17 7.51 5.78 8.25 10.59l5.22-1.74 2.45 4.63c1.38 4.77 3.61 9.75 8.52 11.73-4.35-.32-8.72-.61-13.01-1.44-1.28-.42-2.54-.88-3.81-1.32-1.49-3.25-1.28-6.78-.26-10.11l-2.31-2.81c-2.68-3.24-5.37-6.56-8.86-8.96a32.12 32.12 0 0 0-1.47-.68l-2.08 5.65 10.77 6.87-5.87 3.65 2.97 6c-3.88-.46-7.76-.83-11.65-1.08l-1.85 1.71-2.37-.85-.48 3.04c-2.65-1.43-5.32-2.82-8.03-4.14-.08 4.13.41 8.31 2.43 11.98l2.25-.18 3.61-4.53a277.87 277.87 0 0 0 1.06 10.41c-3.81 1.73-6.98 4.7-6.5 9.25-.27 1.83-.61 3.64-.96 5.45l-.72-3.38-.51-2.39-6.43-.69 3.46-5.67.64 5.04 4.2.23c-1.13-7.71-6.25-15.2-3.8-23.12l-4.21 2.06.71 2.43c-3.89 4.7-9.96 4.74-15.26 2.75-.38 2.64.28 6.55-3.06 7.43-4.88 2.2-8.28-3.73-9.22-7.69.88-4.46 5.02-9.37 9.93-6.87l.61-5.69c2.76 3.54 5.16 7.34 7.45 11.19a205.3 205.3 0 0 0 7.19-2.99l-2.74-6.87c.1-1.86.3-3.71.49-5.55 4.28.33 8.3 1.91 12.04 3.96l-4.09-6.5 6.47 3.74c.84-2.72 1.79-5.4 2.95-8-1.14-1.13-2.29-2.26-3.61-3.19-2.56-1.33-5-2.97-6.51-5.5 3.3 1.54 6.4 3.46 9.54 5.31l1.57.91c3-2.53 8.76-4.45 7.64-9.35-.4-4.7-3.71-8.3-6.34-11.95m-.6 22.19l.93 2.98c-1.51 2.88-3.85 5.88-3.55 9.26 1.37 4.17 6.29 2.7 9.5 2.14-1.12-5.6-4.35-11.87-.35-17.05-2.2.83-4.38 1.71-6.53 2.67z"/><path fill="#807668" d="M245.7 60.06c3.47-3.82 7.46-1.62 9.33 2.45-3.59 3.34-7.66 1.91-9.33-2.45z"/><path fill="#efd7be" d="M137.77 58.89l4.42-.34 3.5.41c4 .79 7.87 2.6 10.13 6.15l2.88-1.58c3.61 4.98.7 11.13.54 16.67-3.14-1.85-6.24-3.77-9.54-5.31 1.51 2.53 3.95 4.17 6.51 5.5l.33 3.88a221.57 221.57 0 0 1-12.17 3.14c-.85-1.44-1.68-2.89-2.59-4.29 1.34.33 2.7.6 4.05.88.62-4.39.76-8.83.63-13.26-2.33.57-4.65 1.24-6.76 2.41-1.28-4.64-2.47-9.41-1.93-14.26z"/><path fill="#fdecd6" d="M83.42 64.47C87.31 62 91.61 60 96.34 60.31c.57 4.01.94 8.05 1.1 12.11l-7.41.55c-2.24.18-4.5.28-6.75.34l.14-8.84z"/><path fill="#d7bfa9" d="M72.82 65.69l7.58-1.85c-.18 3.19.02 6.39.7 9.51l2.18-.04 6.75-.34c-1.81.86-3.49 1.96-5.15 3.08-3.56-1.14-6.01-4.03-8.11-6.96-.15 5.04-1.8 10.79-6.51 13.38-3.99 1.61-8.43.72-12.62.78-3.22 5.17-4.63 14.91 2.3 17.7 3.82 2.45 8.47 1.52 12.74 1.71l1.6 1.96c-2.9 2.58-6.86 1.85-10.34 2.68-2.31 1.45-3.96 3.73-5.73 5.76l1.92.09-3.98.59c2.56-6.67-.59-13.5-5.79-17.88 2.49-3.07 7.67-10.37.83-11.29-2.93-1.09-6.16-1.38-8.53 1.08 3.5-4.11 8.78-6.37 12.36-10.62 1.44 2.91 3.06 5.82 5.73 7.79l-.61-2.79c4.47-1.2 8.94-2.77 12.41-5.95l-1.11-5.46 2.06.6-.68-3.53z"/><path fill="#fef0d2" d="M101.73 64.41c4.32.22 8.65 1.37 11.68 4.63l-1.21 2.24c-4.53-1.55-10.5-3.64-13.36 1.73 1.04-2.84 1.93-5.73 2.89-8.6z"/><path fill="#a59d8f" d="M313.72 67.8l2.31-2.28c6.02.19 10.12 6.92 16.35 4.92 3.34-2.37 8.14-4.85 11.76-1.56l-2.9 3.28-5.52-1.07c.95 1.36 1.93 2.7 3.01 3.96.68.79 1.38 1.57 2.1 2.34 1.08 1.12 2.22 2.17 3.37 3.22l-.96-5.11c1.12-.91 2.21-1.85 3.32-2.79 3.96 2.31 1.38 7.73-1.33 10.05-2.19-.05-4.04 1.06-5.34 2.77l-6.02-7.73c-2.11-3.05-5.92-1.97-8.99-1.6 1.37-.52 2.72-1.1 4.08-1.67-2.57-.98-5.13-1.99-7.74-2.83l-2.03-.58c-1.42-.43-2.88-.76-4.36-.8l-1.11-2.52z"/><path fill="#fff6e2" d="M57.22 73.26c3.7-2.18 7.52-4.15 11.5-5.74a81.27 81.27 0 0 0 2.72 1.1l1.11 5.46c-3.47 3.18-7.94 4.75-12.41 5.95-.82-2.31-1.88-4.54-2.92-6.77z"/><path d="M76.77 69.09c2.1 2.93 4.55 5.82 8.11 6.96 4.78 1.06 11.2 2.24 13.96-3.04 2.86-5.37 8.83-3.28 13.36-1.73-.97 1.85-1.85 3.74-2.73 5.63l7.34 8.11c1.88 2.28 4.49 3.73 7.11 5.01-1.36 3.64-4.24 7.47-8.56 7.14l2.37 3.83c-3.44 5.45-.32 11.53 1.61 16.89 2.5.5 5.04.91 7.6.9 2.29.03 4.59.12 6.88.21 2.15-2.8 5.36-.12 6.95 1.87-1.33.98-2.57 2.07-3.8 3.17-9.75-.78-19.6-2.82-29.3-.23l-3.25.08c-2.53-3.08-7.42-4.19-8.27-8.46-.1-3.18-1.75-5.9-3.67-8.31 1.54-.93 3.02-1.98 4.33-3.22-1.86.11-3.71.29-5.55.48-.16-5.27-.24-10.55-.68-15.8l-1.89 12.83-4.03.8a44.82 44.82 0 0 1-.71-.61c-2.7 2.34-6.17 3.11-9.67 3.02l-1.6-1.96c-2.53-3.7-7.5-3.1-11.4-3.77-1.64-5.18-4.55-9.89-3.64-15.64 4.19-.06 8.63.83 12.62-.78 4.71-2.59 6.36-8.34 6.51-13.38M111.66 93c.31 1.95.67 3.88 1.05 5.82l-2.86 4.32 2.84-.65c1.37-3.15 2.66-7.32-1.03-9.49m-8.25 8.41l1.78 2.72 4.29-.46c-1.74-1.39-3.93-1.86-6.07-2.26zm39.43 93.09c-3.85-3.95 2.43-8.77 4.94-3.71l-1.64 3.78-3.3-.07z" fill="#fffffb"/><path fill="#fffbe5" d="M116.37 70.05c3.81 2 7.13 4.76 10.5 7.4-.75 2.77-2.38 5.13-4.15 7.34-3.49-2.35-7.04-4.66-10.19-7.46-.77-3.02 2.27-5.13 3.84-7.28z"/><path fill="#1e1d1e" opacity=".57" d="M314.83 70.32c1.48.04 2.94.37 4.36.8-1.39 2.07-4.01 1.85-4.36-.8z"/><path d="M139.7 73.15c2.11-1.17 4.43-1.84 6.76-2.41.13 4.43-.01 8.87-.63 13.26l-4.05-.88c-2.6-2.01-5.14-4.08-7.62-6.23 1.83-1.28 3.64-2.58 5.54-3.74zm-.45 179.38c1.98-1.8 4.4-2.91 6.99-3.53.54 4.77.23 9.61-1.3 14.17-2.09-1.38-3.92-3.1-5.4-5.11l3.57-1.07-.45-2.34-3.41-2.12z" fill="#fffffe"/><path fill="#929296" d="M313.81 83.94c-4.22-2.8-8.53-9.98-3.1-13.67 3.01 2.09 3.14 5.5 2.9 8.81 1.49-1.34 2.98-2.69 4.42-4.09l1.3 5.04-5.01 4.56-.51-.65z"/><path fill="#5a5656" d="M321.22 71.7l7.74 2.83-4.08 1.67c-2.39.69-4.71-.21-6.85-1.21l3.19-3.29z"/><path fill="#343130" opacity=".65" d="M335.72 71.09l5.52 1.07-2.51 2.89c-1.08-1.26-2.06-2.6-3.01-3.96z"/><path fill="#847360" d="M127.4 78.87c.88-1.91 2.04-3.67 3.44-5.24l3.04 2.81c-.87 2.83-4.2 2.12-6.48 2.43z"/><path fill="#cfbaa6" d="M240.09 75.38l6.5 1.23 5.71 1.6c.37 4.89 2.08 11.5-3.31 14.27l-1.5-4.04-2.25-1.45c-4.81-2.16-7.59-6.44-5.15-11.61z"/><path fill="#cebaa0" d="M318.03 74.99c2.14 1 4.46 1.9 6.85 1.21 3.07-.37 6.88-1.45 8.99 1.6-5.3.79-9.91 3.67-13.92 7.11 3.05 3.76 5.49 7.96 8.56 11.7-3.72 2.5-7.13 5.4-10.53 8.3-2.73-2.99-5.41-6.03-8.45-8.71-.06 4.46 3.57 7.01 6.93 9.12l-3.38 3.54c-3.75-2.3-6.09-7.19-10.6-7.96-5.76.14-11.71 1.38-14.8 6.8l-1.97-1.88c1.57-2.48 3.85-4.39 6.01-6.34 3.85-.37 8.5.87 11.53-2.22 4.52-4.23 9.48-8.19 15.6-9.78l-3.32-1.05-1.21-1.84 5.01-4.56-1.3-5.04M315.7 93.1c-.12 2.19-.02 4.39.47 6.54l5.62.11-.69-5.79c-1.78-.4-3.59-.7-5.4-.86z"/><path fill="#292725" opacity=".62" d="M340.83 77.39l2.41-1.89.96 5.11-3.37-3.22z"/><path fill="#d2bea3" d="M170.42 76.93l1.47.68c-.45 4.7 4.39 8.76 8.86 8.96l2.31 2.81c-1.02 3.33-1.23 6.86.26 10.11l3.81 1.32c-4.36 2.19-8.4-.47-12.75-.92l2.87 7.61c4.36.52 5.61 5.81 9.44 7.31 3.43.13 6.07-2.36 7.78-5.08 4.75-3.58 11.43-3.89 16.62-.94l2.41-3.19-1.43-1.38c2.16.27 4.32.58 6.49.76-1.49.93-2.95 1.9-4.41 2.87 1.31 5.84-4.84 7.51-7.67 11.31-1.79 2.34-3.72 4.61-6.09 6.38-1.72.96-3.5 1.78-5.26 2.64-1.89-3.06-3.65-6.18-5.41-9.31-2.65 2.16-5.96 4.15-7.16 7.51 1.22 6.65-1.05 13.16-1.25 19.8l-.41-2.95-2.19 1.2-1.25 6.06-2.57 2.59a103.77 103.77 0 0 1-1.25 9.44c-6.65 1.57-13.51 1.13-20.28 1.32l.09-3.9 1.69 3.16c5.93.46 16.84 1.66 17.44-6.64.7-3.51-3.6-3.14-5.84-4.03 2.16-.73 4.32-1.5 6.53-2.07a107.15 107.15 0 0 1 3.98-.74c-.22-6.13-1.6-12.11-3.34-17.97-.89-3.56-1.14-7.32.51-10.72a223.76 223.76 0 0 1-4.64 3.63c-2.17-3.37-3.89-7.01-4.98-10.87l6.74 1.26-1.28-1.81c3.06.02 6.12 0 9.17-.14-5.42-7.21-12.76-1.01-18.25 2.46a277.87 277.87 0 0 1-1.06-10.41l-3.61 4.53-2.25.18c-2.02-3.67-2.51-7.85-2.43-11.98 2.71 1.32 5.38 2.71 8.03 4.14l.48-3.04 2.37.85 1.85-1.71c3.89.25 7.77.62 11.65 1.08l-2.97-6 5.87-3.65-10.77-6.87 2.08-5.65m23.6 39.17c3.4 1.91 7.35 1.81 11.12 1.64-2.84-2.84-8.1-5.95-11.12-1.64m-19.46 7.83l1.35-.1c1.32 5.04 1.1 10.47 3.35 15.24 1.12-5.12 1.5-10.42.56-15.6 2.04-.11 3.39-1.84 4.96-2.94-4.29-3.62-7.82-.48-10.22 3.4z"/><path fill="#fdf1d3" d="M180.75 86.57c-4.47-.2-9.31-4.26-8.86-8.96 3.49 2.4 6.18 5.72 8.86 8.96z"/><path fill="#98846e" d="M252.3 78.21c2.02.46 4.08.76 6.15.99 2.9 5.06 1.82 10.63-.16 15.81-.91.53-1.83 1.06-2.71 1.65-1.89-1.84-4.11-3.28-6.59-4.18 5.39-2.77 3.68-9.38 3.31-14.27z"/><path fill="#e8d2b7" d="M319.95 84.91c4.01-3.44 8.62-6.32 13.92-7.11 2.08 2.52 4.04 5.14 6.02 7.73-3.47 4.01-7 8.04-11.38 11.08-3.07-3.74-5.51-7.94-8.56-11.7z"/><path fill="#73614d" d="M161.51 82l6.53-2.67c-4 5.18-.77 11.45.35 17.05-3.21.56-8.13 2.03-9.5-2.14-.3-3.38 2.04-6.38 3.55-9.26l-.93-2.98z"/><path fill="#fff7d7" d="M128.67 81.51l2.17-.54a68.17 68.17 0 0 1 7.17 7.05l-2.9 1.65c-6.24 2.88-13.03 5.78-17.38 11.33l-2.37-3.83c4.32.33 7.2-3.5 8.56-7.14-2.62-1.28-5.23-2.73-7.11-5.01 4.57 2.23 9.57 1.33 11.86-3.51z"/><path fill="#807163" d="M339.89 85.53c1.3-1.71 3.15-2.82 5.34-2.77-5.01 6.36 3.8 12.58 1.25 19.51l-3.08.22-2.16-2.68.56-5.18c-3 2.03-5.82 4.32-8.27 6.99l5.4-.03 2.51 4.44c-4.17 3.69-9.39-.45-12.45-3.57-5.29 3.51-11.42 6.89-14.13 12.94-1.26-1.4-2.5-2.81-3.7-4.25-2.81-3.48-5.78-6.83-8.68-10.25 4.51.77 6.85 5.66 10.6 7.96l3.38-3.54c-3.36-2.11-6.99-4.66-6.93-9.12 3.04 2.68 5.72 5.72 8.45 8.71 3.4-2.9 6.81-5.8 10.53-8.3 4.38-3.04 7.91-7.07 11.38-11.08z"/><path fill="#fff1d6" d="M42.66 85.65c2.37-2.46 5.6-2.17 8.53-1.08l1.69 2.57c-2.68 3.88-4.33 9.36-9.25 10.94l-5.35-4.91c1.49-2.49 2.84-5.06 4.38-7.52z"/><path fill="#625643" d="M230.38 87.26l5.78-4.73c2.26 2.89 5.16 5.2 9.08 4.46l2.25 1.45 1.5 4.04c2.48.9 4.7 2.34 6.59 4.18-.79 1.01-1.54 2.05-2.28 3.09 1.62 7.27-1.22 14.46-5.09 20.49-2.13-7.74 1-14.79 3.35-21.93-5-7.03-14.41-6.78-21.18-11.05z"/><path fill="#ac957b" d="M51.19 84.57c6.84.92 1.66 8.22-.83 11.29 5.2 4.38 8.35 11.21 5.79 17.88l3.98-.59 1.45-.19c-1.15 3.47-1.36 7.13-1.25 10.75l-2.04.41a106.48 106.48 0 0 0 .37-8.75l-3.32-.02c-3.21-.01-6.42-.04-9.63-.22l-.8-.04c1.05-4.58 1.76-9.22 2.23-13.88l-3.51-3.13c4.92-1.58 6.57-7.06 9.25-10.94l-1.69-2.57m-3.08 25.03c2.61-.28 5.21-.64 7.8-1.05a219.98 219.98 0 0 0-2.94-8.65c-3.97 1.51-5.04 5.88-4.86 9.7z"/><path fill="#fee9c8" d="M59.94 100.95c-6.93-2.79-5.52-12.53-2.3-17.7-.91 5.75 2 10.46 3.64 15.64 3.9.67 8.87.07 11.4 3.77-4.27-.19-8.92.74-12.74-1.71z"/><path fill="#73675e" d="M313.81 83.94l.51.65 1.21 1.84 3.32 1.05c-6.12 1.59-11.08 5.55-15.6 9.78-3.03 3.09-7.68 1.85-11.53 2.22 5.64-2.18 11.51-3.83 15.17-9.17 1.83-.2 3.22-1.58 3.4-3.43l3.52-2.94z"/><path fill="#25211e" opacity=".6" d="M306.89 90.31a4.5 4.5 0 0 1 3.4-3.43c-.18 1.85-1.57 3.23-3.4 3.43z"/><path fill="#d3c1b4" d="M88.69 101.41c.73-4.26 1.28-8.55 1.89-12.83.44 5.25.52 10.53.68 15.8-2.52.54-5.02 0-6.6-2.17l4.03-.8z"/><path fill="#ead1bb" d="M117.73 101c4.35-5.55 11.14-8.45 17.38-11.33l-2.49 2.08c4.1-1.3 7.97-.17 9.34 4.18l2.74 6.87a205.3 205.3 0 0 1-7.19 2.99c-2.29-3.85-4.69-7.65-7.45-11.19l-.61 5.69c-4.91-2.5-9.05 2.41-9.93 6.87.94 3.96 4.34 9.89 9.22 7.69 3.34-.88 2.68-4.79 3.06-7.43 5.3 1.99 11.37 1.95 15.26-2.75 1.23 4.37 1.87 8.87 2.46 13.36l-3.46 5.67 6.43.69.51 2.39c-5.25-2.6-10.63-.01-16 .26l-.03-3c1.23-1.1 2.47-2.19 3.8-3.17 5.31-.41 6.37-7.52 2.57-10.34-7.16-2.8-10.3 6.51-16.4 8.26-2.56.01-5.1-.4-7.6-.9-1.93-5.36-5.05-11.44-1.61-16.89z"/><path fill="#938775" d="M315.7 93.1c1.81.16 3.62.46 5.4.86l.69 5.79-5.62-.11c-.49-2.15-.59-4.35-.47-6.54z"/><path fill="#c0aa96" d="M111.66 93c3.69 2.17 2.4 6.34 1.03 9.49l-2.84.65 2.86-4.32-1.05-5.82z"/><path fill="#c7b19e" d="M223.46 96.93l4.82.15c-1.57.34-3.17.62-4.67 1.21 1.2 2.55 3.93 3.75 6.6 4.02 5.49.65 10.89 2.03 16.43 2.24l-1.42-4.18 2.18.62-.86 5.64c-7.43-.92-14.81-2.25-22.31-2.57l-1.33-.78.56-6.35z"/><path fill="#fce7d0" d="M228.28 97.08c5.94-.79 11.42 1.54 16.94 3.29l1.42 4.18c-5.54-.21-10.94-1.59-16.43-2.24-2.67-.27-5.4-1.47-6.6-4.02 1.5-.59 3.1-.87 4.67-1.21z"/><path fill="#fbe3c9" d="M37.27 97.13l4.47 2.15c-1.53 2.67-2.88 5.44-3.95 8.32l6.31.85c-1.49 2.9-4.1 4.76-7.3 5.34l-1.87 7.95-4.03.29c1.15-8.45 1.38-17.63 6.37-24.9z"/><path fill="#87745e" d="M48.11 109.6c-.18-3.82.89-8.19 4.86-9.7a219.98 219.98 0 0 1 2.94 8.65c-2.59.41-5.19.77-7.8 1.05z"/><path fill="#605345" d="M146.35 102.24l4.21-2.06c-2.45 7.92 2.67 15.41 3.8 23.12l-4.2-.23-.64-5.04c-.59-4.49-1.23-8.99-2.46-13.36l-.71-2.43z"/><path fill="#f8e3c2" d="M174.38 99.89c4.35.45 8.39 3.11 12.75.92 4.29.83 8.66 1.12 13.01 1.44 3.89 1.1 7.93 1.44 11.93 1.97l1.43 1.38-2.41 3.19c-5.19-2.95-11.87-2.64-16.62.94-1.71 2.72-4.35 5.21-7.78 5.08-3.83-1.5-5.08-6.79-9.44-7.31l-2.87-7.61z"/><path fill="#fffae6" d="M74.28 104.62c3.5.09 6.97-.68 9.67-3.02l.71.61c1.58 2.17 4.08 2.71 6.6 2.17 1.84-.19 3.69-.37 5.55-.48-1.31 1.24-2.79 2.29-4.33 3.22 1.92 2.41 3.57 5.13 3.67 8.31.13 4.39-3.61 6.77-7.13 8.4l-.82-.01c-2.72-.35-5.41-.85-8.12-1.27 2.02-.32 4.05-.61 6.06-1 5.07-2.76 4.35-11.01-1.54-12.12-3.9-1.29-6.62 1.87-8.35 4.88-4.64-2.07-9.72-2.59-14.67-1.35l-1.45.19c-.48-.03-1.44-.07-1.92-.09 1.77-2.03 3.42-4.31 5.73-5.76 3.48-.83 7.44-.1 10.34-2.68m13 1.52c-2.62 1.31 1.36 3.51 2.53 1.69.96-1.47-1.48-2.34-2.53-1.69z"/><path fill="#483b2e" d="M220.52 101.34l2.38 1.94 1.33.78c2.44 1.51 5.53 1.9 7.69 3.83l.01 3.51-.42 1.8c-4.7-.68-7.36-4.88-9.89-8.43-.4-1.14-.77-2.28-1.1-3.43z"/><path fill="#f4e1cd" d="M287.68 107.7c3.09-5.42 9.04-6.66 14.8-6.8l8.68 10.25c-2.73 4.18-6.1 7.98-10.6 10.31l-.75-1.58c.34-1.35.74-2.68 1.14-4.02l-3.72-4.66-3.97 1.65-5.58-5.15z"/><path fill="#cfb8a2" d="M103.41 101.41c2.14.4 4.33.87 6.07 2.26l-4.29.46-1.78-2.72z"/><path fill="#b39f88" d="M218.56 104.98l.79-.06c1.84 5.68 2.68 11.95 7.65 15.95l-2.34 2.9-2.54 3.16c5.96-3.14 12.74-2.31 19.2-1.96-2.02.38-4.01.86-6.01 1.31-3.34 6.65-1.63 14.15.9 20.73l-2.31.24c-1.37-5.42-4.13-10.36-5.49-15.79-2.59-3.47-6.2-.23-8.77 1.39l-.41-3.63-3.61 1.87c-1.3-2.34-2.58-4.69-3.75-7.1l-1.57-3.28-3.82-1.55c2.83-3.8 8.98-5.47 7.67-11.31l4.41-2.87m-6.73 15.5c4.12-.1 8.24-.13 12.36-.04l-3.62-4.13c-3.48-.13-6.44 1.7-8.74 4.17z"/><path fill="#746451" d="M219.35 104.92l2.27-.15c2.53 3.55 5.19 7.75 9.89 8.43l.42-1.8c2.74 2.72 6.94 2.96 8.89-.85 4.89-.68 2.93 5.72 2.94 8.68l4.45 2.03.01 3.12-6.9.59c-6.46-.35-13.24-1.18-19.2 1.96l2.54-3.16c6.03.55 12.11.88 18.16.33l-.05-2.83c-5.25-.35-10.51-.4-15.77-.4-4.97-4-5.81-10.27-7.65-15.95z"/><path fill="#b7a696" d="M87.28 106.14c1.05-.65 3.49.22 2.53 1.69-1.17 1.82-5.15-.38-2.53-1.69z"/><path fill="#53463d" d="M285.71 105.82l1.97 1.88 5.58 5.15 3.97-1.65 3.72 4.66-1.14 4.02.75 1.58c1.64 2.27 3.7 4.18 5.86 5.93-2.99-.04-5.74 1.13-8.32 2.54l3.59 5.99-2.86.9-2.01-4.26-3.33-.86c3.19-1.43 4.67-4.58 5.62-7.74l-3.07-3.45c-3.53-3.44-6.81-10.59-12.79-7.33-8.18 1.81-9.52 13.16-18.46 13.06 2.3-2.27 4.38-4.75 6.62-7.08 1.14-1.07 2.27-2.17 3.38-3.28 3.23-3.07 8.96-3.53 10.2-8.39l.72-1.67z"/><path fill="#b2acb4" d="M231.92 107.89l3.25 4 5.65-1.34c-1.95 3.81-6.15 3.57-8.89.85l-.01-3.51z"/><path fill="#181614" opacity=".73" d="M274.79 115.88c2.64-3.6 5.79-7.01 10.2-8.39-1.24 4.86-6.97 5.32-10.2 8.39z"/><path fill="#837365" d="M76.25 114.31c1.73-3.01 4.45-6.17 8.35-4.88 5.89 1.11 6.61 9.36 1.54 12.12-4.79.18-9.17-2.17-9.89-7.24m3.93 3.13l3.92 1.38c1.41-1.7 2.3-4.76.54-6.39-3.23-.84-4.85 2.22-4.46 5.01z"/><path d="M161.18 115.46c5.49-3.47 12.83-9.67 18.25-2.46-3.05.14-6.11.16-9.17.14l1.28 1.81-6.74-1.26c1.09 3.86 2.81 7.5 4.98 10.87l4.64-3.63c-1.65 3.4-1.4 7.16-.51 10.72-.03 6.24.18 12.51-.64 18.71-2.21.57-4.37 1.34-6.53 2.07 2.24.89 6.54.52 5.84 4.03-.6 8.3-11.51 7.1-17.44 6.64l-1.69-3.16-.04-.71c3.55-1.83 7.13-3.59 10.77-5.24l-7.82.6c-.84-1.97-1.7-3.93-2.45-5.93 1.49-6.18-1.36-12.98 2.09-18.67l-1.32-5.28c-.48-4.55 2.69-7.52 6.5-9.25zm-123.09-.62l6.82.25.8.04.83 2.99c3.36.81 6.33-.58 8.8-2.77l3.32.02-.37 8.75c-6.02 1.06-12.16.3-18.23.61-.69-.15-1.38-.28-2.08-.41-.02-3.16.01-6.32.11-9.48zm189.72 45.39c-.88-2.73-3.9-5.07-2.75-8.17 7.88 7.56 7.32 20.4-.4 27.85l-.91-1.77c3.67-5.14 6.34-11.61 4.06-17.91zM37.96 206.84l2.71-.63c5.88-.08 11.75.01 17.62.03l-.01 1.03-.1 8.1c-4.05.58-8.11-.33-12.17-.28l-7.88.13-.17-8.38zm156.22 7.91c3.18-.73 6.43-1.17 9.71-1.11l-1.55 3.78c-2.54.44-5.15.39-7.67-.18l-.49-2.49z" fill="#fff"/><path fill="#fde7ce" d="M126.94 118.79c6.1-1.75 9.24-11.06 16.4-8.26 3.8 2.82 2.74 9.93-2.57 10.34-1.59-1.99-4.8-4.67-6.95-1.87l-6.88-.21z"/><path fill="#b9a189" d="M311.16 111.15l3.7 4.25c-.27 5.48-4.38 8.93-8.44 11.99-2.16-1.75-4.22-3.66-5.86-5.93 4.5-2.33 7.87-6.13 10.6-10.31z"/><path fill="#d5bfac" d="M61.58 112.96c4.95-1.24 10.03-.72 14.67 1.35.72 5.07 5.1 7.42 9.89 7.24-2.01.39-4.04.68-6.06 1l8.12 1.27c-9.29.3-18.59-.18-27.87-.11-.11-3.62.1-7.28 1.25-10.75m2 5c.68 6.49 7.77 5.7 12.54 5.1-.41-5.81-9.15-10.58-12.54-5.1z"/><path fill="#fff4db" d="M80.18 117.44c-.39-2.79 1.23-5.85 4.46-5.01 1.76 1.63.87 4.69-.54 6.39l-3.92-1.38z"/><path fill="#c0aa90" d="M283.25 113.18c5.98-3.26 9.26 3.89 12.79 7.33-.96 4.83-3.38 9.28-9.03 8.52l-.76 2.21c-1.6 3.58-3.73 8.14-7.98 8.93-2.32-3.16-3.8-6.82-4.9-10.55 4.15 1.49 8.28.35 10.16-3.87-7.08-.73-13.88 4.87-20.82.95l2.08-.46c8.94.1 10.28-11.25 18.46-13.06z"/><path fill="#fefefe" d="M194.02 116.1c3.02-4.31 8.28-1.2 11.12 1.64-3.77.17-7.72.27-11.12-1.64z"/><path fill="#dbd7dc" d="M45.71 115.13l9.63.22c-2.47 2.19-5.44 3.58-8.8 2.77l-.83-2.99z"/><path fill="#f6dfcc" d="M63.58 117.96c3.39-5.48 12.13-.71 12.54 5.1-4.77.6-11.86 1.39-12.54-5.1z"/><path fill="#dec7bb" d="M89.02 123.83c3.52-1.63 7.26-4.01 7.13-8.4.85 4.27 5.74 5.38 8.27 8.46-5.13.15-10.27.02-15.4-.06z"/><path fill="#fdfdfe" d="M211.83 120.48c2.3-2.47 5.26-4.3 8.74-4.17l3.62 4.13c-4.12-.09-8.24-.06-12.36.04z"/><path fill="#302820" d="M174.56 123.93c2.4-3.88 5.93-7.02 10.22-3.4-1.57 1.1-2.92 2.83-4.96 2.94a126.13 126.13 0 0 1-3.91.36l-1.35.1z"/><path d="M182.56 126.38c1.2-3.36 4.51-5.35 7.16-7.51l5.41 9.31c4.4 6.4 3.96 14.56 4.31 21.98l-5.28 3.18 3.45 2.14c-2.4 7.14-10.53 9.25-17.22 7.57l-1.58-3.57c1.23-4.35 2.5-8.74 2.5-13.3.2-6.64 2.47-13.15 1.25-19.8zm-28.53 41.59c4.24-.36 8.51-.59 12.77-.23 4.66 2.32 9.11 5.98 9.11 11.67-2.3-.08-4.59-.2-6.87-.36 9.99 5.24 5.19 17.39 3.21 25.76-2.13 3.49-4.45 6.91-6.59 10.41-2.01.2-4.04-.03-6.04-.12-1.73-5.44-5.31-10.27-5.82-16.06-.78-6.26 2.34-12.65-.25-18.72l-.37-3.94c.16-2.81.51-5.61.85-8.41zm46.97.66c6.38-2.78 16.82-.09 16.71 8.13-.12 2.47 3.16 1.67 4.77 2.27l.94 3.1-.83 2-.65 2.27c-.7 2.91-1.27 5.86-1.69 8.84l-.45 3.91c-.15 1.25-.16 2.5-.04 3.75l-.32.91c-1.27-1.08-2.47-2.23-3.68-3.36l-4.89 8.11-3.62-.23c-.35-1.12-.64-2.25-.94-3.37-3.05-8.16-1.89-16.94-2.88-25.42-.4-2.23.71-4.23 1.63-6.16l-4.06-4.75zM66.2 226.1c4.18-.09 8.41-.06 12.5.94 3.48 1.73 7.06 3.23 10.7 4.58.73 7.15.5 14.35.3 21.51-5.57.25-9.66 4.06-9.88 9.67l-5-1.14c2.83-10.27-8.78-14.77-16.92-15.32.1-3.46-.22-6.92-1.02-10.28 3.68-1.41 5.29-4.86 6.14-8.46l3.18-1.5zm44.66 27.67c3.87-3.15 8.58-5.03 13.55-5.44 3.91 6.01-3.67 9.57-7.93 12.12-2.3-1.83-4.11-4.17-5.62-6.68z" fill="#fffffd"/><path fill="#746456" d="M200.39 125.54c2.37-1.77 4.3-4.04 6.09-6.38l3.82 1.55c-4.29 1.75-5.28 7.8-10.19 8.14l.28-3.31z"/><path fill="#eaceb5" d="M200.11 128.85c4.91-.34 5.9-6.39 10.19-8.14l1.57 3.28-6.84 3.11c.06 2.6.36 5.19 1.07 7.7l-1.74 2.08c-1-.75-2.03-1.45-3.07-2.14-.96 5.83 5.39 14.87-1.88 17.88.24 3.3-1.33 6.26-3.47 8.67-5.5 3.2-11.9 4.02-18.16 3.38l1.03-5.19 1.58 3.57c6.69 1.68 14.82-.43 17.22-7.57l-3.45-2.14 5.28-3.18c-.35-7.42.09-15.58-4.31-21.98 1.76-.86 3.54-1.68 5.26-2.64l-.28 3.31z"/><path fill="#221e1a" d="M224.66 123.77l2.34-2.9c5.26 0 10.52.05 15.77.4l.05 2.83c-6.05.55-12.13.22-18.16-.33z"/><path fill="#8f8070" d="M296.04 120.51l3.07 3.45c-.95 3.16-2.43 6.31-5.62 7.74l3.33.86 2.01 4.26 2.86-.9c2.04 3.32 4.99 6.36 5.21 10.46l-1.28-3.24c-4.87-1.35-9.9-1.93-14.89-2.58l.01 4.46c-1.1-1.73-2.12-3.52-3.17-5.27.17-2.9-.38-5.78-1.32-8.51l.76-2.21c5.65.76 8.07-3.69 9.03-8.52z"/><path fill="#c0a991" d="M107.67 123.81c9.7-2.59 19.55-.55 29.3.23l.03 3c-10.7-2.3-18.62 6.79-28.61 7.92l-1.01 9.31c-1.58.89-3.18 1.76-4.72 2.74l.07 1.3c1.17 10.36.94 20.84-.08 31.2-2.76-8.96-2.23-18.47-.7-27.59.72-3.07-2.36-4.21-4.66-4.99l-1-.21c1.78-.63 3.53-1.34 5.29-2.02-3.37-1.37-5.78-4.25-8.98-5.85-2.99-.42-5.93.81-8.74 1.67l-.44-5.16 5.62 1.24-.3-4.76a84.47 84.47 0 0 0-6.93-.41l.13-5.65 4.23.06-2.57 2.57 5.62 2.34 1.16 5.38 4.28-4.48.65 2.3c6.94-7.17 18.2-1.69 25.89-7.26.33-.76.65-1.52.95-2.29l-14.48-.59m-7.51 9.57c-1.49 3.45.19 6.85 1.7 9.94l4.2.45-2.01-2.69 3.05-.51c.18-2.34-.09-4.67-.68-6.94a87.09 87.09 0 0 0-6.26-.25z"/><path fill="#3d352e" d="M58.29 124.12l2.04-.41c9.28-.07 18.58.41 27.87.11l.82.01c5.13.08 10.27.21 15.4.06l3.25-.08 14.48.59c-.3.77-.62 1.53-.95 2.29-11.66-.75-23.37.16-35.03-.85l-4.23-.06c-6.38.42-13.02-1.15-19.17 1.19l-2.91-.07c-6.55-1.35-13.72.99-19.8-2.17 6.07-.31 12.21.45 18.23-.61z"/><path fill="#ffefcb" d="M175.91 123.83l3.91-.36c.94 5.18.56 10.48-.56 15.6-2.25-4.77-2.03-10.2-3.35-15.24z"/><path fill="#fffffc" d="M205.03 127.1l6.84-3.11 3.75 7.1 3.61-1.87.41 3.63c.42 4.47 1.62 8.8 2.86 13.09.56 3.36.27 6.78-.33 10.11-2.51 2.79-5.6 5.05-9.23 6.14-3.51.83-7.14.97-10.73.99 2.16-5.71 9.47-6.17 14.06-9.29-4.24.45-10.71 5.24-12.82-.87 1.01-5.32.75-10.76.91-16.14l1.74-2.08c-.71-2.51-1.01-5.1-1.07-7.7z"/><path fill="#88735e" d="M241.32 124.97l6.9-.59c2.93 2.11 6.3 3.66 10.01 2.8l-5.39.71-1.83.19.43 10.84 4.91 1.04 1.7.21.67 3.42-7.75-1.87-.84 6.59c-2.23.76-4.43 1.61-6.68 2.28-2.86.62-4.85 2.86-6.87 4.79l-4.66-3.17-.14 2.78c-1.77-2.05-2.43-4.68-2.43-7.33l4.55-.41 2.31-.24c-2.53-6.58-4.24-14.08-.9-20.73l6.01-1.31z"/><path fill="#fff0d4" d="M137 127.04c5.37-.27 10.75-2.86 16-.26l.72 3.38c.35-1.81.69-3.62.96-5.45.41 1.77.88 3.52 1.32 5.28-3.45 5.69-.6 12.49-2.09 18.67l-.42-1.11-.52-1.44c-3.54.93-7.19 1.39-10.85 1.35-1.54-.4-3.06-.85-4.54-1.41l1.54-1.36-.07-2.34c2.68 2.42 6.8 3.48 10.09 1.75 4.4-3.06 1.98-10.67-3.19-11.12-2.8-.67-5.06 1.29-7.09 2.89l-.26-6.4c-4.04-.21-8.18-.38-12.03 1.06l1.74 5.1c-3.41 1.97-6.16-.84-8.43-3.12l-.48 2.05 4.07 3.85-9.6.31 1.01 2.42 6.57.5 2.9 4.95c-1.76.3-3.51.69-5.27.95l-2.42-.23c-2.35-.24-4.72-.07-7.06.21l-2.2.28-1.86.21-2.81.3-.07-1.3c1.54-.98 3.14-1.85 4.72-2.74l1.01-9.31c9.99-1.13 17.91-10.22 28.61-7.92z"/><path fill="#e8d0b1" d="M262.71 126.7c6.94 3.92 13.74-1.68 20.82-.95-1.88 4.22-6.01 5.36-10.16 3.87 1.1 3.73 2.58 7.39 4.9 10.55-6.74-.48-13.48.57-20.22 0l-1.7-.21c.75-4.4-.94-8.58-3.51-12.07l5.39-.71 4.48-.48z"/><path fill="#96816d" d="M62.77 126.97c6.15-2.34 12.79-.77 19.17-1.19l-.13 5.65c-.08 3.45 0 6.9.1 10.34.64-.43 1.29-.85 1.95-1.25 2.81-.86 5.75-2.09 8.74-1.67 3.2 1.6 5.61 4.48 8.98 5.85l-5.29 2.02a474.68 474.68 0 0 1-16.85 1.09l-.61 9.47-1.15.05-2.27-.16.04-9.19c3.69-.57 7.42-.77 11.15-.81l-5.12-2.71-.13-7.09c-.09-2.99-.39-5.96-.74-8.92-5.98.14-12.11.65-17.84-1.48z"/><path fill="#a28b76" d="M86.17 125.84c11.66 1.01 23.37.1 35.03.85-7.69 5.57-18.95.09-25.89 7.26l-.65-2.3-4.28 4.48-1.16-5.38-5.62-2.34 2.57-2.57z"/><path opacity=".88" d="M59.86 126.9l2.91.07c5.73 2.13 11.86 1.62 17.84 1.48.35 2.96.65 5.93.74 8.92-6.81.27-13.7.12-20.32-1.7l-2.24-.63 1.07-8.14z"/><path fill="#c8b192" d="M251.01 128.08l1.83-.19c2.57 3.49 4.26 7.67 3.51 12.07-1.65-.3-3.28-.67-4.91-1.04-.2-3.61-.33-7.22-.43-10.84z"/><path fill="#ffffef" d="M126.57 130.53c3.85-1.44 7.99-1.27 12.03-1.06l.26 6.4.19 6.48.07 2.34-1.54 1.36-1.91-.76-.94 1.56c-3.46-.19-6.92-.5-10.38-.26l-2.9-4.95-6.57-.5-1.01-2.42 9.6-.31-4.07-3.85.48-2.05c2.27 2.28 5.02 5.09 8.43 3.12l-1.74-5.1z"/><path fill="#dec5a7" d="M219.64 132.85c2.57-1.62 6.18-4.86 8.77-1.39 1.36 5.43 4.12 10.37 5.49 15.79-2.93.09-5.84.05-8.76-.11l-.84-2.42-1.8 1.22c-1.24-4.29-2.44-8.62-2.86-13.09z"/><path fill="#e6cdb4" d="M81.81 131.43l6.93.41.3 4.76-5.62-1.24.44 5.16-1.95 1.25c-.1-3.44-.18-6.89-.1-10.34z"/><path fill="#ebd1b5" d="M173.91 131.65c1.74 5.86 3.12 11.84 3.34 17.97a107.15 107.15 0 0 0-3.98.74c.82-6.2.61-12.47.64-18.71z"/><path fill="#171514" opacity=".98" d="M286.25 131.24c.94 2.73 1.49 5.61 1.32 8.51l-.2 2.75-.81 6.57c-1.83-.41-3.6-1.02-5.34-1.68-.68-2.52-1.73-4.92-2.95-7.22 4.25-.79 6.38-5.35 7.98-8.93z"/><path fill="#f2d9c3" d="M100.16 133.38l6.26.25c.59 2.27.86 4.6.68 6.94l-3.05.51 2.01 2.69-4.2-.45c-1.51-3.09-3.19-6.49-1.7-9.94z"/><path fill="#918373" d="M138.86 135.87c2.03-1.6 4.29-3.56 7.09-2.89 5.17.45 7.59 8.06 3.19 11.12-3.29 1.73-7.41.67-10.09-1.75l-.19-6.48m4.32 5.89l3.6-.03c.68-2.01 1.46-5.5-1.79-5.31-3.36-.35-2.57 3.31-1.81 5.34z"/><path fill="#b09a8c" d="M201.29 134.74l3.07 2.14c-.16 5.38.1 10.82-.91 16.14-.89 3.88-2.06 7.69-2.96 11.57l-2.16-.11 1.77-5.03-4.16 1.84c2.14-2.41 3.71-5.37 3.47-8.67 7.27-3.01.92-12.05 1.88-17.88z"/><path d="M143.18 141.76c-.76-2.03-1.55-5.69 1.81-5.34 3.25-.19 2.47 3.3 1.79 5.31l-3.6.03zm3.6 6.92c1.22 8.63.15 17.38.68 26.07.03 3.07-.02 6.15-.07 9.23l4.63.42c-.51 1.33-1.03 2.65-1.47 4.01-2.59-1.81-6-3.9-9.13-2.01-4.69 2.04-3.94 10.58 1.49 10.91 3.46 1.03 6.34-1.04 8.41-3.58 1.22 4.17 1.51 8.54.46 12.78l-5.04 1.73c-1.98 3.27-2.75 7.02-2.91 10.79-6.8-.77-14.49-10.67-20.32-2.56-2.26 3.32-6.2 6.87-4.56 11.29 2.11 6.74 9.08 9.7 13.76 14.35l-.22 1.97-7.53.45c-7.36.1-14.87 4.71-16.69 12.14-5.61-1.7-11.75-1.76-16.85-4.95-.86-8.06-.53-16.18.06-24.24l5.16-.75-4.26-2.89 1.44-5.31c.74-4.62 3.93-7.83 8.33-9.11l-4.64-1.28c1.21-.36 2.43-.71 3.66-1 2.84-.05 5.67.03 8.5.17 2.74.59 5.54.94 8.33.53 8.97-1.13 18.02.39 26.62 2.92-1.7-1.89-3.88-3.23-6.15-4.32l-.5-3.11-.49-3.34c-7.13.18-14.42-.11-21.24-2.37-.7-1.93.9-4.15-.04-6.01-1.4.12-2.78.38-4.16.63l1.65-5.73c3.99-1.07 8.79 1.33 11.72-2.65l2.84.22c3.02.83 5.93 2.01 8.88 3.07l1.55-3.21 7.93-.11c-.24-11.71-.1-23.44.17-35.15m-43.02 89.55c-1.08-3.78-.54-7.53 2.06-10.54-4.8.92-6.25 7.92-2.06 10.54z" fill="#fffffa"/><path fill="#b4a289" d="M258.05 140.17c6.74.57 13.48-.48 20.22 0 1.22 2.3 2.27 4.7 2.95 7.22.32 3.53.24 7.08.15 10.62-8.2-.02-16.39-.44-24.59-.09 6.46-3.09 13.28-.93 20.03-.81l.57-2.48.21-.99 1.36-6.16c-7.33-1.2-14.71-2.13-22.12-2.69l5.35 2.84c-2.52 1.25-5.07 2.58-6.95 4.73l-1.4-4.96c-1.24.29-2.48.57-3.7.91l.84-6.59 7.75 1.87-.67-3.42z"/><path fill="#54453b" d="M287.57 139.75l3.17 5.27c2.95 1.68 6.38 2.05 9.66 2.74 5.11 1.2 5.68 5.98 5.07 10.45-6.64-.64-15.9 3.58-20.05-3.62-2.15 3.05-5.61 4.32-9.14 4.99l.81 3.16c-9.41-1.06-18.87-1.8-28.33-.94-.12-1.22-.29-2.44-.45-3.65l3.54-.02a101.56 101.56 0 0 0 4.93-.21c8.2-.35 16.39.07 24.59.09.09-3.54.17-7.09-.15-10.62 1.74.66 3.51 1.27 5.34 1.68l4.24.03c-1.03-2.26-2.17-4.46-3.43-6.6l.2-2.75z"/><path fill="#edd5bb" d="M290.73 140.56c4.99.65 10.02 1.23 14.89 2.58l1.28 3.24c-2.06.9-4.25 1.41-6.5 1.38-3.28-.69-6.71-1.06-9.66-2.74l-.01-4.46z"/><path fill="#937f6b" d="M178.71 144.43l2.19-1.2.41 2.95c0 4.56-1.27 8.95-2.5 13.3-.39 1.71-.71 3.45-1.03 5.19 6.26.64 12.66-.18 18.16-3.38 1.37-.64 2.77-1.24 4.16-1.84l-1.77 5.03 2.16.11a311.4 311.4 0 0 0 11.44.37h8.11c.76-2.96 1.53-5.92 2.13-8.91.6-3.33.89-6.75.33-10.11l1.8-1.22.84 2.42c2.92.16 5.83.2 8.76.11l-4.55.41-5.44.43 1.15 3.97c-1.15 3.1 1.87 5.44 2.75 8.17 2.28 6.3-.39 12.77-4.06 17.91-1.89-3.47-2.77-7.35-3.76-11.14l-21.34.33-.38 4.78-2.32-2.01.29-2.87c-6.22-.43-12.47-.78-18.7-.31.43 3.43 1.22 6.8 2.32 10.07.92 2.87 1.38 5.87 1.47 8.88l-.43 3.17c-5.63-5.39-2.55-14.53-7.65-20.27-2.05-.81-4.29-.81-6.45-1.03-4.26-.36-8.53-.13-12.77.23-.34 2.8-.69 5.6-.85 8.41l-1.54-6.81c-1.05 1.98-2.45 3.74-4.18 5.18-.53-8.69.54-17.44-.68-26.07-.27 11.71-.41 23.44-.17 35.15l-7.93.11c.27-11.73.81-23.65-.9-35.27-1.04 11.83-1.09 23.78-.52 35.65l-7.57-.44c-.22-11.91 0-23.82.16-35.73 4.09-.25 8.17-.6 12.27-.69 3.66.04 7.31-.42 10.85-1.35l.52 1.44c-.17 3.89-.38 7.79-.08 11.68l.04.71c0 1.3-.05 2.6-.09 3.9 6.77-.19 13.63.25 20.28-1.32a103.77 103.77 0 0 0 1.25-9.44l2.57-2.59 1.25-6.06m-46.13 38.77c2.78-2.08 1.41-6.18 1.83-9.17-.44-8.44.88-17.05-.87-25.36-2.47 11.1-.69 23.1-.96 34.53m8.89-33.65c-.72 9.09-.54 18.25-.17 27.37.12 1.97-.25 4.27 1.4 5.74 1.11-11.25 1.03-22.65.31-33.92l-1.54.81z"/><path fill="#080706" opacity=".37" d="M286.56 149.07l.81-6.57c1.26 2.14 2.4 4.34 3.43 6.6l-4.24-.03z"/><path fill="#ecd5c8" d="M135.67 145.29l1.91.76c1.48.56 3 1.01 4.54 1.41-4.1.09-8.18.44-12.27.69l-.16 35.73 7.57.44c-.57-11.87-.52-23.82.52-35.65 1.71 11.62 1.17 23.54.9 35.27-.49 1.08-1.02 2.14-1.55 3.21-2.95-1.06-5.86-2.24-8.88-3.07.21-12.1-.42-24.17-.21-36.26l-2.61.03-.02 36.01c-2.93 3.98-7.73 1.58-11.72 2.65-1.04.43-2.06.89-3.07 1.39 2.35-3.17 4.48-6.79 3.85-10.91-.65-9.76.73-19.74-.37-29.36l-2.11.29c-1.24 11.46.71 23.26-1.23 34.57-.45-11.66-1.59-23.28-1.16-34.97 2.34-.28 4.71-.45 7.06-.21-.98 12.17.35 24.39-.3 36.58l2.97.61c-.31-12.32-.8-24.63-.25-36.96 1.76-.26 3.51-.65 5.27-.95 3.46-.24 6.92.07 10.38.26l.94-1.56m-14.74 2.99l-.31 36.04 3.05-.7c-.7-11.99.22-24-.28-35.98l-2.46.64z"/><path fill="#d7bfa6" d="M256.83 144.79c7.41.56 14.79 1.49 22.12 2.69l-1.36 6.16-.91-4.05-4.51 2.51 5.21 2.53-.57 2.48c-6.75-.12-13.57-2.28-20.03.81a101.56 101.56 0 0 1-4.93.21l-.46-5.29 2.2 3.01 1.64-3.49c1.88-2.15 4.43-3.48 6.95-4.73l-5.35-2.84z"/><path fill="#edd5c0" d="M79.44 147.81a474.68 474.68 0 0 0 16.85-1.09l1 .21c1.54 3.27 2.37 7.18-.7 9.86-5.93-.09-11.85.03-17.76.49l.61-9.47z"/><path fill="#f4ecf1" d="M250.13 148.31l3.7-.91 1.4 4.96-1.64 3.49-2.2-3.01.46 5.29-3.54.02c-2.63-1.77-5.2-4.02-4.86-7.56l6.68-2.28z"/><path fill="#655348" d="M97.29 146.93c2.3.78 5.38 1.92 4.66 4.99-1.53 9.12-2.06 18.63.7 27.59 1.02-10.36 1.25-20.84.08-31.2l2.81-.3c-.06 10.92-.49 21.83.29 32.75l-8.89 1.37c-3.23-.99-7.64.9-6.91 4.83-2.22 2.2-3.52 5.09-4.51 8.01-1.01-2.75-2.01-5.51-3.18-8.2-.77 5.54-.82 11.17-.19 16.73-4.56 3.13-11.06.39-16.35 1.42 4.93-1.4 10.1-.1 15.07-1.05 1.12-6 .14-12.18.58-18.25 2.32-.3 4.64-.6 6.94-1.01-4.31-.76-8.68-1-13.05-1.03l3.84-.03c7.4.65 13.02-4.75 19.67-6.93l-1.08-.81c-4.59-2.93-3.23-8.82-4.41-13.38-.53 3.87-.79 7.77-.94 11.68l.01-15.34c-4.93-.33-9.85-.8-14.75-1.44l1.15-.05c5.91-.46 11.83-.58 17.76-.49 3.07-2.68 2.24-6.59.7-9.86m.26 10.65c-1.2 5.17-1.34 10.56-.27 15.77 2.87-4.68 2.8-10.96.27-15.77z"/><path fill="#cab49f" d="M105.54 148.01l1.86-.21c.95 10.83 2 21.84.07 32.63l-1.64.33c-.78-10.92-.35-21.83-.29-32.75z"/><path fill="#383232" d="M107.4 147.8l2.2-.28c-.43 11.69.71 23.31 1.16 34.97-.93 1.02-1.93 1.97-2.9 2.95l.27 4.79-.04.72-1.24 1.22-2.08-6.08c-3.05-.06-6.22-.47-9.15.59-1.22 2.39-1.44 5.1-1.86 7.71l3.9.66-1.72 2.37c-3.53-.3-7.78.51-10.42-2.45.99-2.92 2.29-5.81 4.51-8.01a94.87 94.87 0 0 0 6.91-4.83c2.97-.41 5.93-.88 8.89-1.37l1.64-.33c1.93-10.79.88-21.8-.07-32.63z"/><path fill="#665d57" d="M111.99 147.92l2.11-.29c1.1 9.62-.28 19.6.37 29.36.63 4.12-1.5 7.74-3.85 10.91l-2.49 2.33c-.05-1.6-.17-3.2-.27-4.79.97-.98 1.97-1.93 2.9-2.95 1.94-11.31-.01-23.11 1.23-34.57z"/><path fill="#937e65" d="M116.36 183.89c.65-12.19-.68-24.41.3-36.58l2.42.23c-.55 12.33-.06 24.64.25 36.96l-2.97-.61z"/><path fill="#97806a" d="M120.93 148.28l2.46-.64c.5 11.98-.42 23.99.28 35.98l-3.05.7.31-36.04z"/><path fill="#937c66" d="M125.43 147.85l2.61-.03c-.21 12.09.42 24.16.21 36.26l-2.84-.22.02-36.01z"/><path fill="#dec8b2" d="M153.49 147.55l.42 1.11 2.45 5.93 7.82-.6c-3.64 1.65-7.22 3.41-10.77 5.24-.3-3.89-.09-7.79.08-11.68z"/><path fill="#4b4955" d="M223.91 148.09l5.44-.43c0 2.65.66 5.28 2.43 7.33 5.41 5.68 5.58 15.58.5 21.51-1.52 2.14-2.82 4.42-4.06 6.73l6.19-.67-.01 1.8c-3.92-.56-7.88-.55-11.81-.23l.83-2a26.75 26.75 0 0 1 1.24-2.22c7.72-7.45 8.28-20.29.4-27.85-.42-1.31-.77-2.65-1.15-3.97z"/><path fill="#fceadf" d="M132.58 183.2c.27-11.43-1.51-23.43.96-34.53 1.75 8.31.43 16.92.87 25.36-.42 2.99.95 7.09-1.83 9.17z"/><path fill="#d6c2b3" d="M141.47 149.55l1.54-.81c.72 11.27.8 22.67-.31 33.92-1.65-1.47-1.28-3.77-1.4-5.74-.37-9.12-.55-18.28.17-27.37z"/><path fill="#c8b39e" d="M236.58 155.38c2.02-1.93 4.01-4.17 6.87-4.79-.34 3.54 2.23 5.79 4.86 7.56l.45 3.65c.13 2.85.02 5.69-.08 8.53l-.16 4.33 8.27.03c-.11 4.63.16 10.14 4.73 12.69l.83.42c-3.54-.15-7.08-.11-10.62-.21l-.92 4.61c-2.17-1.81-3.94-4.31-6.64-5.36-3.32.49-7.17 1.92-8.19 5.47-1.26 5.34-.11 12.89-6.66 14.99.3-2.53 1.08-4.95 2.04-7.3l-2.27-2.69c4.57-2.74 4.94-7.87 4.62-12.67 3.81.17 7.88.47 11.23-1.74 3.18.43 6.48.68 9.34 2.29l-.29-7.22c-4.68.25-10.25-1.32-13.75 2.8l-1.4-3.74c-2.16 1.51-4.76 1.64-6.56-.53 5.08-5.93 4.91-15.83-.5-21.51l.14-2.78 4.66 3.17m2.45 2.67c.24 5.58.17 11.17.19 16.76l2.96.13c.43-5.41-.44-10.94 1.03-16.25 1.98 5.12 1.08 10.68 1.04 16.02l2.7-.05c-1.04-5.49-1.43-11.14.04-16.6l-7.96-.01z"/><path fill="#fdf8f6" d="M272.17 152.1l4.51-2.51.91 4.05-.21.99-5.21-2.53z"/><path fill="#e0ccb9" d="M200.49 164.59c.9-3.88 2.07-7.69 2.96-11.57 2.11 6.11 8.58 1.32 12.82.87-4.59 3.12-11.9 3.58-14.06 9.29 3.59-.02 7.22-.16 10.73-.99l-1.01 2.77a311.4 311.4 0 0 1-11.44-.37z"/><path fill="#40352b" d="M285.42 154.59c4.15 7.2 13.41 2.98 20.05 3.62-1.94.74-3.87 1.51-5.84 2.17-6.3 2.04-15.09-3.4-19.56 2.61l-2.73.78-.25-1.03-.81-3.16c3.53-.67 6.99-1.94 9.14-4.99z"/><path fill="#b19e96" d="M212.94 162.19c3.63-1.09 6.72-3.35 9.23-6.14-.6 2.99-1.37 5.95-2.13 8.91h-8.11l1.01-2.77z"/><path fill="#998573" d="M97.55 157.58c2.53 4.81 2.6 11.09-.27 15.77-1.07-5.21-.93-10.6.27-15.77z"/><path fill="#6d5645" d="M239.03 158.05l7.96.01c-1.47 5.46-1.08 11.11-.04 16.6l-2.7.05c.04-5.34.94-10.9-1.04-16.02-1.47 5.31-.6 10.84-1.03 16.25l-2.96-.13c-.02-5.59.05-11.18-.19-16.76z"/><path d="M280.07 162.99c4.47-6.01 13.26-.57 19.56-2.61l.29 6.89 5.79.83c2.53.46 5.01 1.11 7.53 1.59l-12.6.2-.45 2.83c-3.4 1.8-7.4.74-11.05 1.31-5.57.39-8.38 5.83-7.72 10.93l-.1-2.05-.09-.93c-.3-2.33-.17-4.86-1.52-6.89 3.25-4.32-2.42-6.94-2.37-11.32l2.73-.78zM81.89 209.62c5.36-1.82 10.24 5.54 6.63 9.82-1.88 3-5.65 1.9-8.59 2-4.29-3.11-3.62-10.68 1.96-11.82m-1.66 7.02c4.73 4.63 6.83-1.72 4.1-5.71-2.33 1.08-3.88 3.12-4.1 5.71z" fill="#87796c"/><path fill="#968170" d="M248.76 161.8c9.46-.86 18.92-.12 28.33.94l-.36 7.63c-9.33-.65-18.8 2.26-28.05-.04.1-2.84.21-5.68.08-8.53m1.36 3.66l1.13 2.97c6.8-.51 14.42 1.92 20.55-1.82-6.61-3.94-14.64-3.92-21.68-1.15z"/><path fill="#93806a" d="M93.36 162.43c1.18 4.56-.18 10.45 4.41 13.38-6.02-.62-12.15.24-18.07-1.42-.23 3.05-.39 6.11-.52 9.16l-3.84.03-.05-9.2c5.7-.44 11.42-.29 17.13-.27.15-3.91.41-7.81.94-11.68z"/><path fill="#c7b198" d="M250.12 165.46c7.04-2.77 15.07-2.79 21.68 1.15-6.13 3.74-13.75 1.31-20.55 1.82l-1.13-2.97z"/><path fill="#524338" d="M277.09 162.74l.25 1.03c-.05 4.38 5.62 7 2.37 11.32-4.06-.23-8.12-.38-12.17-.42-3.59-.03-7.17.01-10.75.02-2.76 0-5.52 0-8.27-.03l.16-4.33c9.25 2.3 18.72-.61 28.05.04l.36-7.63m-15.65 9.6c.48.5.48.5 0 0z"/><path fill="#b7a499" d="M177.54 166.92c6.23-.47 12.48-.12 18.7.31l-.29 2.87 2.32 2.01.38-4.78 21.34-.33c.99 3.79 1.87 7.67 3.76 11.14l.91 1.77a26.75 26.75 0 0 0-1.24 2.22l-.94-3.1c-1.61-.6-4.89.2-4.77-2.27.11-8.22-10.33-10.91-16.71-8.13l4.06 4.75c-.92 1.93-2.03 3.93-1.63 6.16.99 8.48-.17 17.26 2.88 25.42-2.56-.57-5.14-1.07-7.72-1.58 1.54-7.78 4.06-15.52 2.36-23.52l-2.74-.18c-1.17-.22-2.33-.49-3.48-.76l5.46-1.59c-3.77-7.49-12.39-10.57-20.37-9.85l-.52 2.45 3.31 4.03-2.75 3.03c-1.1-3.27-1.89-6.64-2.32-10.07z"/><path fill="#504f52" opacity=".61" d="M299.92 167.27c10.85-.71 21.72.58 32.58.01 3.13-.1 6.26-.02 9.39.15l.47 2.58-1.04.11-2.2.02 2.59-2.16c-11.98-.85-24.01.22-36 .12l-5.79-.83z"/><path fill="#c9b6a3" d="M166.8 167.74c2.16.22 4.4.22 6.45 1.03 5.1 5.74 2.02 14.88 7.65 20.27l.43-3.17c.1 1.74.22 3.49.42 5.23-6.71 1.58-7.18 10.75-4.98 16.09l4.17.29-7.06.07c2.83 3.02 5.55 6.14 8.08 9.42-2.38 2.96-4.93 5.77-7.67 8.41-1.39-1.1-2.75-2.21-4.19-3.23 3.47.45 6.66-.93 9.13-3.29-2.92-1.28-5.95-2.3-9.12-2.69l-1.46 5.14c-3.21-1.77-6.42-3.61-9.03-6.21 2 .09 4.03.32 6.04.12 2.14-3.5 4.46-6.92 6.59-10.41 1.98-8.37 6.78-20.52-3.21-25.76 2.28.16 4.57.28 6.87.36 0-5.69-4.45-9.35-9.11-11.67z"/><path fill="#fffff9" d="M179.82 167.48c7.98-.72 16.6 2.36 20.37 9.85l-5.46 1.59c1.15.27 2.31.54 3.48.76-1.53 7.7 1.79 16.32-3.21 23.17l-4.96 8.86-4.1-.52c-2.06-1.97-4.23-4.3-3.9-7.4 2.31-4.16 1.53-8.53-.29-12.69-.2-1.74-.32-3.49-.42-5.23-.09-3.01-.55-6.01-1.47-8.88l2.75-3.03-3.31-4.03.52-2.45z"/><path fill="#c9c5cd" opacity=".96" d="M305.71 168.1c11.99.1 24.02-.97 36-.12l-2.59 2.16c-3.5-.03-6.99-.25-10.49-.3-5.13-.13-10.26.02-15.39-.15-2.52-.48-5-1.13-7.53-1.59z"/><path fill="#766457" d="M151.64 169.57l1.54 6.81.37 3.94-1.53 4.08-4.63-.42.07-9.23c1.73-1.44 3.13-3.2 4.18-5.18z"/><path fill="#0d0c0c" opacity=".84" d="M300.64 169.89c4.2-.19 8.4-.13 12.6-.2 5.13.17 10.26.02 15.39.15-8.21 5.46-19.18.46-28.44 2.88l.45-2.83z"/><path fill="#71655f" d="M261.44 172.34c.48.5.48.5 0 0z"/><path fill="#4b3f32" d="M281.42 184.96c-.66-5.1 2.15-10.54 7.72-10.93 4.6 3.19 10.55 1.03 15.74 1.95l.13 1.36-2.39 2.12-.43 4.54c-2.25-1.47-4.32-3.86-7.12-4.03-2.44.92-3.91 3.44-5.65 5.3-2.72.66-5.4 1.43-8.06 2.28l.06-1.74v-.85z"/><path fill="#f6dec3" d="M79.18 183.55l.52-9.16c5.92 1.66 12.05.8 18.07 1.42l1.08.81c-6.65 2.18-12.27 7.58-19.67 6.93z"/><path fill="#f3dabf" d="M256.79 174.69l10.75-.02 2.66 3.43c4.15-.5 8.23.67 11.03 3.88l.09.93c-5.02 1.88-10.17 3.52-15.53 4.02l-4.27.45c-4.57-2.55-4.84-8.06-4.73-12.69z"/><path fill="#c4ad98" d="M267.54 174.67c4.05.04 8.11.19 12.17.42 1.35 2.03 1.22 4.56 1.52 6.89-2.8-3.21-6.88-4.38-11.03-3.88l-2.66-3.43z"/><path fill="#9e8879" d="M228.22 183.23c1.24-2.31 2.54-4.59 4.06-6.73 1.8 2.17 4.4 2.04 6.56.53l1.4 3.74 4.7 2.13c-3.35 2.21-7.42 1.91-11.23 1.74-2.78-.06-5.58.02-8.29.7-1.17.33-2.32.69-3.48 1.06l.65-2.27c3.93-.32 7.89-.33 11.81.23l.01-1.8-6.19.67z"/><path fill="#fdfbfc" d="M240.24 180.77c3.5-4.12 9.07-2.55 13.75-2.8l.29 7.22c-2.86-1.61-6.16-1.86-9.34-2.29-1.6-.66-3.15-1.39-4.7-2.13z"/><path fill="#6f6053" d="M302.62 179.46l2.39-2.12.42 5.5 1.93.82c-5.69 1.17-11.55 1.25-17.18 2.68-.38 1.18-.7 2.38-.96 3.59l2.54.56 1.61.58c-.25 1.97-.6 3.92-.95 5.88 3.05-1.13 6.2-2.03 9.45-2.34l-2.45 4.66-5.98.18c-.87 3.65-1.9 7.37-1.47 11.16l-3.18-4.32-5.98 2.21v-1.95l3.57-1.56.17-4.72c.01-5.12-.21-10.59 2.87-15 1.74-1.86 3.21-4.38 5.65-5.3 2.8.17 4.87 2.56 7.12 4.03l.43-4.54z"/><path fill="#edd3b7" d="M198.21 179.68l2.74.18c1.7 8-.82 15.74-2.36 23.52l-3.59-.53c5-6.85 1.68-15.47 3.21-23.17z"/><path fill="#d5bea1" d="M153.55 180.32c2.59 6.07-.53 12.46.25 18.72.51 5.79 4.09 10.62 5.82 16.06-2.46-2.17-4.77-4.49-6.82-7.05l-3.13.1-2.93.09 5.04-1.73c1.05-4.24.76-8.61-.46-12.78-.38-1.75-.71-3.53-.77-5.32.44-1.36.96-2.68 1.47-4.01l1.53-4.08z"/><path fill="#dcd8df" d="M90.03 186.96c-.73-3.93 3.68-5.82 6.91-4.83l-6.91 4.83z"/><path fill="#c3b0a1" d="M265.79 186.93c5.36-.5 10.51-2.14 15.53-4.02l.1 2.05v.85c-5.19.62-10.42.79-15.63 1.12z"/><path fill="#dbc4ac" d="M290.18 186.34c5.63-1.43 11.49-1.51 17.18-2.68l4.28 1.26.28 2.94.22 2.32c-1.55 6.13-3.26 12.26-5.97 18-3.9 2.99-8.88 3.44-13.62 3.2l-.58-.77c-.43-3.79.6-7.51 1.47-11.16l5.98-.18 2.45-4.66c1.07-1.92 2.2-3.8 3.3-5.7-4.48.43-8.93 1.17-13.41 1.58l-2.54-.56c.26-1.21.58-2.41.96-3.59z"/><path fill="#fbe3c5" d="M225.42 185.34c2.71-.68 5.51-.76 8.29-.7.32 4.8-.05 9.93-4.62 12.67l2.27 2.69c-.96 2.35-1.74 4.77-2.04 7.3l-5.03-1.67c-1.64-.55-3.28-1.1-4.85-1.82l.32-.91c2.65-.25 2.81-3.57.04-3.75.13-1.31.29-2.61.45-3.91l1.08 1.69c2.82-3.22 5.34-7.09 4.09-11.59z"/><path fill="#1d1915" d="M281.36 187.55l8.06-2.28c-3.08 4.41-2.86 9.88-2.87 15-1.85-3.44-3.96-6.73-5.85-10.14l.66-2.58z"/><path fill="#4c4a4f" d="M95.62 186.68c2.93-1.06 6.1-.65 9.15-.59l2.08 6.08-1 .79c-3.14 1.83-6.53 3.14-9.91 4.46l1.72-2.37-3.9-.66c.42-2.61.64-5.32 1.86-7.71m.28 6.28c4.43 2.77 7.99-2.69 3.14-5.21-1.66 1.33-2.91 3.04-3.14 5.21z"/><path fill="#7a6d5f" d="M141.42 186.4c3.13-1.89 6.54.2 9.13 2.01.06 1.79.39 3.57.77 5.32-2.07 2.54-4.95 4.61-8.41 3.58-5.43-.33-6.18-8.87-1.49-10.91m1.42 8.1l3.3.07 1.64-3.78c-2.51-5.06-8.79-.24-4.94 3.71z"/><path fill="#c7b092" d="M221.94 186.4l3.48-1.06c1.25 4.5-1.27 8.37-4.09 11.59l-1.08-1.69c.42-2.98.99-5.93 1.69-8.84z"/><path fill="#ad9378" d="M235.98 192.31c1.02-3.55 4.87-4.98 8.19-5.47 2.7 1.05 4.47 3.55 6.64 5.36a29.7 29.7 0 0 0 3.63 1.77c-.22 2.8-.13 5.67 1.16 8.24a35.24 35.24 0 0 0-4.37.2c-7.93 3.56-9.96-6.69-15.25-10.1z"/><path fill="#9f8a74" d="M265.79 186.93c5.21-.33 10.44-.5 15.63-1.12l-.06 1.74-.66 2.58c1.89 3.41 4 6.7 5.85 10.14-.01 1.57-.09 3.14-.17 4.72l-3.57 1.56c-3.18-1.15-6.32-2.45-9.6-3.3 1.81-.58 3.59-1.25 5.39-1.88l.76-2.09-4.62.43c.45-2.53.45-5.15-1.07-7.35-3.96.05-7.92.06-11.84.61 2.23-.95 4.32-2.19 6.35-3.49-1.94-.59-3.88-1.14-5.83-1.68l-.83-.42 4.27-.45z"/><path fill="#a68d7b" d="M82.34 186.77l3.18 8.2c2.64 2.96 6.89 2.15 10.42 2.45l.64 3.17c3.07.21 6.15.25 9.22.21l.05-7.84c.25-.19.75-.59 1-.79l1.24-1.22c-.27 3.52-.39 7.05-.38 10.58l1.67.16c3.15.57 6.29 1.3 9.34 2.28-5.81-.91-12.32 4.74-17.16-1.04-5.23 4.22-13.01 1.85-16.57-3.41l-2.84 3.98c-.63-5.56-.58-11.19.19-16.73z"/><path fill="#fff0d2" d="M110.62 187.9l3.07-1.39-1.65 5.73 4.16-.63c.94 1.86-.66 4.08.04 6.01 6.82 2.26 14.11 2.55 21.24 2.37l.49 3.34c-8.99 1.39-18.12-.16-26.38-3.84l-2.21 2.2-1.67-.16c-.01-3.53.11-7.06.38-10.58l.04-.72 2.49-2.33z"/><path fill="#6e6051" d="M251.73 187.59l10.62.21 5.83 1.68c-2.03 1.3-4.12 2.54-6.35 3.49l-7.39 1a29.7 29.7 0 0 1-3.63-1.77l.92-4.61z"/><path fill="#908b94" d="M95.9 192.96c.23-2.17 1.48-3.88 3.14-5.21 4.85 2.52 1.29 7.98-3.14 5.21z"/><path fill="#959396" d="M311.92 187.86c6.14 2.14 9.15 8.93 15.74 10.53 6.97 4.16 15.19 5 22.27 8.93 1.89.8 3.81 1.53 5.72 2.27l3.06-2.55c1.9-1.92 4.24-2.97 6.79-1.46l-1.19 5.7a147.56 147.56 0 0 0-5.2.58c4.25.58 8.61.69 12.43 2.94-1.13-1.15-2.29-2.27-3.44-3.39l1.68-5.2c5.91 1.75 5.14 9.19 3.34 13.75-1.4-1.4-2.91-2.67-4.41-3.96l-1.7 1.66-1.73-1.5c-.49 1.27-.97 2.54-1.41 3.82l-.09-3.69c-7.1-3.19-13.88-8.47-21.87-8.74-5.44-3.38-10.99-6.72-17.3-8.17a52.64 52.64 0 0 0-1.14 2.4l-1.33-2.17c-1.82-2.68-4.92-3.87-7.73-5.19-.78-1.4-1.55-2.81-2.27-4.24l-.22-2.32z"/><path fill="#887f7e" d="M291.76 190.49c4.48-.41 8.93-1.15 13.41-1.58l-3.3 5.7c-3.25.31-6.4 1.21-9.45 2.34.35-1.96.7-3.91.95-5.88a76.28 76.28 0 0 1-1.61-.58z"/><path fill="#fbe2c0" d="M176.77 207.19c-2.2-5.34-1.73-14.51 4.98-16.09 1.82 4.16 2.6 8.53.29 12.69l-1.1 3.69-4.17-.29z"/><path fill="#4e433a" d="M312.14 190.18l2.27 4.24c-2.1 4.62-3.65 9.45-5.49 14.18-1.3 1.19-2.72 2.25-4.11 3.33.42-1.27.88-2.52 1.36-3.75 2.71-5.74 4.42-11.87 5.97-18z"/><path fill="#d3bba0" d="M261.83 192.97c3.92-.55 7.88-.56 11.84-.61 1.52 2.2 1.52 4.82 1.07 7.35l4.62-.43-.76 2.09-5.39 1.88c-3.53.38-7.09.26-10.58-.28l-1.04-.17c-1.98-.32-3.99-.5-5.99-.59-1.29-2.57-1.38-5.44-1.16-8.24 2.47-.26 4.93-.63 7.39-1z"/><path fill="#c2ac96" d="M95.94 197.42c3.38-1.32 6.77-2.63 9.91-4.46l-.05 7.84c-3.07.04-6.15 0-9.22-.21l-.64-3.17z"/><path fill="#94826d" d="M235.98 192.31c5.29 3.41 7.32 13.66 15.25 10.1l.04 4.45-1.3.2c-3.61.62-6.95-1.01-9.99-2.74l-.64 2.17c-4.23.65-8.42 1.57-12.42 3.09-.81 3.23-.93 7.36-4.11 9.26-3.39 1.46-7.19 1.85-10.35 3.89-1.1.41-2.21.79-3.33 1.15-6.99-.11-12.61 4.29-19.1 6.08l5.2 3.52c-1.6 4.53-3.44 9.05-6.46 12.85-1.79.47-3.87.56-5.26 1.95-3.18 5.82-13.15 8.99-10.68 16.7l-6.63 4.34c3.42-3.14 5.24-7.52 3.65-12.07 4.39-2.73 8.23-6.28 11.01-10.66l-2-2.09 1.49-.49c2.57-.98 3.84-3.54 5.07-5.81 1.2-2.44 2.19-4.98 3.17-7.51-2.7-1.21-5.34-2.75-8.3-3.21-2.07 1.11-2.98 3.46-4.15 5.37l-.49 1.03c-.17-2.2-.5-4.37-.78-6.55-7.39 1.61-17.79-3.09-22.67 4.38l-.39-3.63-5.61-.2c2.78 2.55 4.81 5.74 6.75 8.95-1.55 2.92-3.83 5.34-6.43 7.36l2.35 1.7c-5.44-2.22-8.71 1.39-11.33 5.59-1.27 1.32-2.6 2.6-3.78 4.02l-.64 1.09c-.67-2.56-3.1-3.14-5.4-3.44l-.53-.73 2.7-1.42c3.31-1.91 5.7-4.93 7.87-8l-4.11-2.65 5.13.34c2.32-3.69 4.27-7.59 5.78-11.67-2.23-1.6-4.48-3.2-6.88-4.53 2.36-.03 4.72-.05 7.08.05l1.76 3.11c1.62-6.01 2.37-12.19 2.82-18.39l-2.26 1.06-.34-2.08 2.93-.09c.07 2.56.37 5.18 1.93 7.32.58-2.44.99-4.92 1.2-7.42 2.05 2.56 4.36 4.88 6.82 7.05 2.61 2.6 5.82 4.44 9.03 6.21l1.45.84c1.44 1.02 2.8 2.13 4.19 3.23 2.74-2.64 5.29-5.45 7.67-8.41-2.53-3.28-5.25-6.4-8.08-9.42l7.06-.07 1.1-3.69c-.33 3.1 1.84 5.43 3.9 7.4 2.59 2.44 5.54 4.49 8.73 6.05 2.52.57 5.13.62 7.67.18 1.7-.99 3.32-2.12 4.93-3.25-2.69-3.75-5.66-7.3-8.68-10.79l7.72 1.58c.3 1.12.59 2.25.94 3.37 1.2 1.21 2.49 2.34 3.87 3.34 4.08 3.71 9.64 5.07 13.21-.01l-3.54-.5 3.35-1.15.15-4.38 5.03 1.67c6.55-2.1 5.4-9.65 6.66-14.99m-83.44 35.68c2.82-1.29 5.72-2.53 8.14-4.51-.68-2.72-4.19-3.69-6.13-5.52-1.26 3.2-2.35 6.55-2.01 10.03z"/><path fill="#d4bda3" d="M314.41 194.42c2.81 1.32 5.91 2.51 7.73 5.19-4 2.25-4.3 6.61-2.72 10.48-3.59.41-7.21.06-10.5-1.49 1.84-4.73 3.39-9.56 5.49-14.18z"/><path fill="#bca690" d="M111.59 199.49c8.26 3.68 17.39 5.23 26.38 3.84l.5 3.11c2.27 1.09 4.45 2.43 6.15 4.32-8.6-2.53-17.65-4.05-26.62-2.92-2.79.41-5.59.06-8.33-.53l11.56-.53-2.51-2.81c-3.05-.98-6.19-1.71-9.34-2.28l2.21-2.2z"/><path fill="#bca68c" d="M219.8 199.15c2.77.18 2.61 3.5-.04 3.75-.12-1.25-.11-2.5.04-3.75z"/><path fill="#d2bca3" d="M324.61 199.38c6.31 1.45 11.86 4.79 17.3 8.17 1.65 5.06-2.76 9.76-.39 14.67 6.88 1.37 13.41 6.47 20.65 4.17-.74 3.27-3.57 5.2-6.23 6.86-6.73-2.62-15.2-3.47-19.24-10.25l2.88-5.57c-7.35 1.9-14.9-.87-21.83-3.16.66-.97 1.36-1.91 1.93-2.93 1.68-3.01 2.45-6.4 3.79-9.56a52.64 52.64 0 0 1 1.14-2.4m1.28 6.13c.28 4.71 3.76 8.64 8.65 6.8 1.2-2.96-1.2-5.44-2.52-7.86l-6.13 1.06z"/><path fill="#7e6c63" d="M82.15 203.5l2.84-3.98c3.56 5.26 11.34 7.63 16.57 3.41 4.84 5.78 11.35.13 17.16 1.04.86.92 1.68 1.87 2.51 2.81l-11.56.53c-2.83-.14-5.66-.22-8.5-.17-4.77-.11-9.54 0-14.3-.01-3.31-.08-6.61.02-9.91.07-6.23-.08-12.47-.78-18.68.07l.01-1.03c2.55-.15 5.03-.77 7.51-1.32 5.29-1.03 11.79 1.71 16.35-1.42z"/><path fill="#4b3e35" d="M322.14 199.61l1.33 2.17c-1.34 3.16-2.11 6.55-3.79 9.56-.06-.32-.19-.94-.26-1.25-1.58-3.87-1.28-8.23 2.72-10.48z"/><path fill="#a99a8d" d="M210.87 208.56l4.89-8.11 3.68 3.36c1.57.72 3.21 1.27 4.85 1.82l-.15 4.38-3.35 1.15c-2.29.23-4.66.25-6.66-1.06l-3.01 1.57c-1.38-1-2.67-2.13-3.87-3.34l3.62.23z"/><path fill="#cfbaa7" d="M190.04 211.71l4.96-8.86 3.59.53c3.02 3.49 5.99 7.04 8.68 10.79-1.61 1.13-3.23 2.26-4.93 3.25l1.55-3.78c-3.28-.06-6.53.38-9.71 1.11l.49 2.49c-3.19-1.56-6.14-3.61-8.73-6.05l4.1.52z"/><path fill="#070605" opacity=".81" d="M261.59 202.8l1.04.17 3.95 1.15-.24 4.06-4.75-1.47v-3.91z"/><path fill="#47403d" d="M262.63 202.97c3.49.54 7.05.66 10.58.28 3.28.85 6.42 2.15 9.6 3.3v1.95l5.98-2.21 3.18 4.32.58.77.9.76c-9.1-.55-17.98-3.19-27.11-3.96l.24-4.06-3.95-1.15z"/><path fill="#685849" d="M239.98 204.32c3.04 1.73 6.38 3.36 9.99 2.74 1.44 1.94 3.04 3.76 4.82 5.4-2.95 2.05-5.63 4.46-8.44 6.68l-2.12.27c-2.38-2.28-4.34-5.21-7.35-6.69-4.07-.44-4.75 4.31-6.12 7.07-2.07.18-4.15.35-6.2.64l-.98 1.32c-.44 2.4.06 4.79 1.13 6.96 1.7-.4 3.41-.79 5.13-1.11.32 2.47.54 5 1.54 7.31 2.37.17 4.64-1.09 7.03-1.06 1.11 2.87 3.01 5.29 5.46 7.15-3.9 1.94-7.7 4.07-11.65 5.9-4.37-5.9-8.55-11.94-12.65-18.03.58-2.37 1.23-4.72 1.98-7.05l-6.77.68-2.32.23c3.16-2.04 6.96-2.43 10.35-3.89 3.18-1.9 3.3-6.03 4.11-9.26 4-1.52 8.19-2.44 12.42-3.09l.64-2.17z"/><path fill="#867c6e" d="M325.89 205.51l6.13-1.06c1.32 2.42 3.72 4.9 2.52 7.86-4.89 1.84-8.37-2.09-8.65-6.8z"/><path fill="#020201" opacity=".78" d="M349.93 207.32c2.31-1.49 4.77-2.75 7.47-3.36l1.31 3.08-3.06 2.55-5.72-2.27z"/><path fill="#e8d2bf" d="M58.28 207.27c6.21-.85 12.45-.15 18.68-.07-.72 4.19-1.76 8.34-3.72 12.14l-4.77-1.19c-3.16-1.8-6.2-4.03-8.13-7.19l-1.35-2.3-.81 6.71.1-8.1z"/><path fill="#3e362f" d="M251.27 206.86c5.56-1.67 8.85 4.63 11.55 8.39l4.41.91c-2.14.61-4.24 1.33-6.28 2.21-.38 2.85-.79 5.76-2.48 8.19-4.85-2.13-9.01.66-12.79 3.48 2.54-6.31 10.03-8.13 14.27-13.08l-5.16-4.5c-1.78-1.64-3.38-3.46-4.82-5.4l1.3-.2z"/><path fill="#c9b5a7" d="M28.21 208.78c3.28-.45 6.54-1.12 9.75-1.94l.17 8.38 7.88-.13c-2.1 3.09-4.59 5.92-7.56 8.22 1.19-5.86-3.2-11.72-7.76-14.82l-1.65.76c-.14 1.27-.24 2.55-.29 3.83l-.54-4.3z"/><path fill="#fef0da" d="M76.96 207.2l9.91-.07c6.17-.26 7.84 6.48 6.95 11.4l-1.44 5.31 4.26 2.89-5.16.75-.85-4.41-3.7-.76-.9 2.95c-6.25-1.01-12.59-.36-18.87-.82-2.9-.15-3.15-3.75-4.18-5.81 1.83-.19 3.66-.39 5.49-.48l4.77 1.19c1.96-3.8 3-7.95 3.72-12.14m4.93 2.42c-5.58 1.14-6.25 8.71-1.96 11.82 2.94-.1 6.71 1 8.59-2 3.61-4.28-1.27-11.64-6.63-9.82z"/><path fill="#b7a49b" d="M86.87 207.13l14.3.01-3.66 1 4.64 1.28c-4.4 1.28-7.59 4.49-8.33 9.11.89-4.92-.78-11.66-6.95-11.4z"/><path fill="#ebd4bc" d="M341.91 207.55c7.99.27 14.77 5.55 21.87 8.74l.09 3.69-1.7 6.41c-7.24 2.3-13.77-2.8-20.65-4.17-2.37-4.91 2.04-9.61.39-14.67z"/><path fill="#ecd3ba" d="M143.83 219.03c.16-3.77.93-7.52 2.91-10.79l.34 2.08 2.26-1.06c-.45 6.2-1.2 12.38-2.82 18.39l-1.76-3.11c-6.91-3.05-13.01-11-21.25-8.07 5.83-8.11 13.52 1.79 20.32 2.56z"/><path fill="#584b41" d="M149.67 208.15l3.13-.1c-.21 2.5-.62 4.98-1.2 7.42-1.56-2.14-1.86-4.76-1.93-7.32z"/><path fill="#a18e7c" d="M292.55 211.38c4.74.24 9.72-.21 13.62-3.2-.48 1.23-.94 2.48-1.36 3.75 1.39-1.08 2.81-2.14 4.11-3.33 3.29 1.55 6.91 1.9 10.5 1.49.07.31.2.93.26 1.25-.57 1.02-1.27 1.96-1.93 2.93 6.93 2.29 14.48 5.06 21.83 3.16L336.7 223c4.04 6.78 12.51 7.63 19.24 10.25-8.39 1.45-15.72-4.67-23.24-7.5l1.29-3.63c-11.48-.91-20.44-11.67-32.46-8.13-2.65-.8-5.33-1.52-8.08-1.85l-.9-.76z"/><path fill="#ae9681" d="M29.04 209.25l1.65-.76c1.21 8.84.87 19.03 7.4 25.96 1.48-2.62 1.9-5.62 2.4-8.53l-2.04-2.61c2.97-2.3 5.46-5.13 7.56-8.22 4.06-.05 8.12.86 12.17.28l.81-6.71 1.35 2.3c.76 5.03-1.28 10.06.11 15.06-3.01 3.68-10.49 6.91-6.99 12.56 2.54 4.32.57 9.5-3.09 12.46l3.91 4.39c1.06-2.96 2.22-6.6 6.13-6.21-1.05 2.69-2.19 5.35-3.35 7.99 3.63 2.57 7.61 4.58 11.77 6.14l3.13-3.3 2.01 5.35c2.95.44 5.91.04 8.29-1.87l1.07 2.6.32.7c4.11.54 8.28.32 12.4.02l1.27-9.72c2.6 1.99 2.55 5.47 1.3 8.21-.9 2.03-1.35 4.2-1.55 6.4l4.53-.27.99-1.49c-1.01-1.28-2.02-2.55-3.1-3.77 2.26-.24 4.51-.54 6.73-.98 2.8-.48 5.21-2.08 7.66-3.4l2.6-1.38c4.26-2.55 11.84-6.11 7.93-12.12l.31-2c1.66 1.62 3.41 3.15 5.17 4.67-.89.49-1.8.95-2.7 1.42l.53.73c1.35 1.93 2.74 3.83 4.21 5.68l3.14 3.94c-4.93.14-10.22.35-14.15 3.74-4.38 4.53-11.85-2.39-15.15 4.1 4.18 1 8.46 1.37 12.71 1.86 5.23 1.12 10.62 1.3 15.86.13l.9-2.59 2.09 2.12c6.26.25 12.88-.78 17.47-5.42.97.79 1.89 1.64 2.72 2.58-5.6 3.75-12.1 5.65-18.79 6.14l-3.06.13-1.07 5.23c-5.16-.03-10.32.28-15.49.23l-.65-5.28c-5.31-.34-10.6-1.1-15.68-2.71l-2.59 3.63c-4.88-3.51-10.85-3.68-16.61-3.17l-1.01-4.65c-4.49-.4-8.99-.97-13.28-2.4l-2.51 2.92-1.39-.33-11.21-5.7 1.43-3.61c-3.8-2.8-6.72-6.59-10.44-9.46a33.57 33.57 0 0 0-2.72 1.44l-2.07-.13c-2.6-3.4-5.14-6.85-7.52-10.41l3.61-3.26c-5.13-7.34-6.84-16.07-7.72-24.82.05-1.28.15-2.56.29-3.83m17.84 7.38c-1.98 5.13.84 10.06.98 15.22 3.69-2.2 8.41-4.41 9.7-8.83-.13-5.19-6.58-6.34-10.68-6.39m-2.17 16.08l-6.53 4.62c1.7 3.83 4.49 7.09 7.38 10.09 2.87.94 5.14-2.42 7.43-3.75-1.47-4.5-5.13-7.63-8.28-10.96z"/><path fill="#fde9d1" d="M30.69 208.49c4.56 3.1 8.95 8.96 7.76 14.82l2.04 2.61c-.5 2.91-.92 5.91-2.4 8.53-6.53-6.93-6.19-17.12-7.4-25.96z"/><path fill="#fcfafb" d="M211.12 211.67l3.01-1.57c2 1.31 4.37 1.29 6.66 1.06l3.54.5c-3.57 5.08-9.13 3.72-13.21.01z"/><path fill="#c7b3a1" d="M60.34 210.96c1.93 3.16 4.97 5.39 8.13 7.19-1.83.09-3.66.29-5.49.48 1.03 2.06 1.28 5.66 4.18 5.81 6.28.46 12.62-.19 18.87.82l.9-2.95 3.7.76.85 4.41c-3.99 2.67-8.56.08-12.78-.44-4.09-1-8.32-1.03-12.5-.94l-5.75-.08c-1.39-5 .65-10.03-.11-15.06z"/><path fill="#fffeeb" d="M80.23 216.64c.22-2.59 1.77-4.63 4.1-5.71 2.73 3.99.63 10.34-4.1 5.71z"/><path fill="#7b7168" d="M230.76 219.79c1.37-2.76 2.05-7.51 6.12-7.07 3.01 1.48 4.97 4.41 7.35 6.69-6.91.56-13.72 1.92-20.65 2.34l.98-1.32c2.05-.29 4.13-.46 6.2-.64z"/><path fill="#837264" d="M246.35 219.14c2.81-2.22 5.49-4.63 8.44-6.68 1.69 1.52 3.43 3 5.16 4.5-4.24 4.95-11.73 6.77-14.27 13.08 3.78-2.82 7.94-5.61 12.79-3.48-2.94 3.9-2.62 9.04 1.81 11.61-1.98 1.37-3.96 2.77-5.85 4.27 3.3.02 6.34-1.36 8.9-3.37-.66 2.97-.91 6.01-.98 9.05l4.61 1.56 1.67.44c-.29 2.34-1.7 4.25-2.63 6.34 1.95 6.57 9.61 11.42 16.39 9.24l-5.13 3.61-4.48-1.02c-7.55-5.7-9.39-16.18-16.88-21.55-1.73-1.2-3.45-2.43-5.06-3.78-1.06-1.2-2.11-2.4-3.1-3.65-1.33-2.67-2.13-5.55-2.85-8.43-1.81 1.66-3.93 3-6.48 2.97-2.39-.03-4.66 1.23-7.03 1.06-1-2.31-1.22-4.84-1.54-7.31 5.63-.93 11.44-1.51 16.62-4.11l-.11-4.35z"/><path fill="#665c52" d="M301.53 213.99c12.02-3.54 20.98 7.22 32.46 8.13l-1.29 3.63c7.52 2.83 14.85 8.95 23.24 7.5 2.66-1.66 5.49-3.59 6.23-6.86l1.7-6.41c.44-1.28.92-2.55 1.41-3.82l1.73 1.5c-1.1 7.01-2.7 14.49-8.07 19.57-.87.78-1.76 1.53-2.65 2.28l-3.46-.64 3.81-1.91c-4.07-1.26-8.1-2.59-12.11-4.02l-8.23-2.91c-6.08-3.92-14.11-4.68-18.83-10.55-3.46-4.04-9.09-4.27-13.96-4.83l-1.98-.66z"/><path fill="#c4ad8f" d="M123.51 216.47c8.24-2.93 14.34 5.02 21.25 8.07-2.36-.1-4.72-.08-7.08-.05l-.7-.12c-4.91-.13-6.63-5.55-10.5-7.71-2.68 4.29-1.25 8.97 1.25 12.92l1.18-.28 2.3-3.28 4.05 2.07c-1.44 3.09-3.14 6.06-4.92 8.97-2.9-2.89-6.67-5.29-8.29-9.18-.31-3.86.93-7.62 1.46-11.41z"/><path fill="#010101" opacity=".83" d="M303.51 214.65c4.87.56 10.5.79 13.96 4.83 4.72 5.87 12.75 6.63 18.83 10.55-11.22-4.19-24.03-6.69-32.79-15.38z"/><path fill="#fffeff" d="M170.11 216.17c3.17.39 6.2 1.41 9.12 2.69-2.47 2.36-5.66 3.74-9.13 3.29l-1.45-.84 1.46-5.14z"/><path fill="#86725d" d="M267.23 216.16c3.49.88 5.16 4.61 7.47 7.08-.14 5.74 2.55 11.18 3.74 16.78l-2.11 1.61c-1.44-2.9-3.38-5.49-5.7-7.72 1.4-1.26 2.29-2.93 3.15-4.57l-2.83.26c-2.63-4.32-5.5-8.66-10-11.23 2.04-.88 4.14-1.6 6.28-2.21z"/><path fill="#ad9e90" d="M367.01 217.66l1.7-1.66 4.41 3.96 1.89 4.23c3.24-.09 6.61.44 8.99 2.84v6.58l-3.64-1.44.05-3.62-2.63-.31c-1 3.43-2.01 6.87-2.82 10.35l2.54.32 1.71-2.8c1.6.54 3.21 1.09 4.79 1.72v3.4c-3.29.8-6.73 1.98-10.1.87l-2.29-.63-1.35-3.5-6.01 3.39-4.15-1.32-1.16-2.81c5.37-5.08 6.97-12.56 8.07-19.57z"/><path fill="#806a56" d="M46.88 216.63c4.1.05 10.55 1.2 10.68 6.39-1.29 4.42-6.01 6.63-9.7 8.83-.14-5.16-2.96-10.09-.98-15.22z"/><path fill="#fae1ca" d="M118.95 227.76c-1.64-4.42 2.3-7.97 4.56-11.29-.53 3.79-1.77 7.55-1.46 11.41 1.62 3.89 5.39 6.29 8.29 9.18 1.78-2.91 3.48-5.88 4.92-8.97l1.72-3.72.7.12c2.4 1.33 4.65 2.93 6.88 4.53-1.51 4.08-3.46 7.98-5.78 11.67l-5.13-.34 4.11 2.65c-2.17 3.07-4.56 6.09-7.87 8-1.76-1.52-3.51-3.05-5.17-4.67l.24-1.8 7.53-.45.22-1.97c-4.68-4.65-11.65-7.61-13.76-14.35z"/><path fill="#917c67" d="M126.48 216.66c3.87 2.16 5.59 7.58 10.5 7.71l-1.72 3.72-4.05-2.07-2.3 3.28-1.18.28c-2.5-3.95-3.93-8.63-1.25-12.92z"/><path fill="#bab1b5" d="M152.54 227.99c-.34-3.48.75-6.83 2.01-10.03 1.94 1.83 5.45 2.8 6.13 5.52-2.42 1.98-5.32 3.22-8.14 4.51z"/><path fill="#e3ccb4" d="M244.23 219.41l2.12-.27.11 4.35c-5.18 2.6-10.99 3.18-16.62 4.11-1.72.32-3.43.71-5.13 1.11-1.07-2.17-1.57-4.56-1.13-6.96 6.93-.42 13.74-1.78 20.65-2.34z"/><path fill="#b7a38e" d="M258.47 226.56c1.69-2.43 2.1-5.34 2.48-8.19 4.5 2.57 7.37 6.91 10 11.23-3.38 3.07-6.92 5.96-10.67 8.57-4.43-2.57-4.75-7.71-1.81-11.61z"/><path fill="#171310" opacity=".88" d="M214.78 222.5l6.77-.68-1.98 7.05c-1.43-2.24-3.04-4.36-4.79-6.37z"/><path fill="#463b33" d="M190.03 229.96c6.49-1.79 12.11-6.19 19.1-6.08.85 3.25 2.25 6.32 3.99 9.19-2.6-1.31-5.25-2.49-7.93-3.6-2.38 3.2-5.82 5.9-9.96 4.01-1.77-1.13-3.48-2.34-5.2-3.52z"/><path fill="#fbe3cc" d="M53.46 238.58c-3.5-5.65 3.98-8.88 6.99-12.56l5.75.08c-1.07.47-2.13.99-3.18 1.5-.85 3.6-2.46 7.05-6.14 8.46.8 3.36 1.12 6.82 1.02 10.28 8.14.55 19.75 5.05 16.92 15.32l5 1.14c.22-5.61 4.31-9.42 9.88-9.67.2-7.16.43-14.36-.3-21.51-3.64-1.35-7.22-2.85-10.7-4.58 4.22.52 8.79 3.11 12.78.44-.59 8.06-.92 16.18-.06 24.24 5.1 3.19 11.24 3.25 16.85 4.95-2.78 5.76-8.33 1.11-11.91-1.01-3.69-1.65-7.8-.96-11.68-.64 1.72 3.62 6.45 2.3 9.66 2.86.27 2.71.48 5.44.66 8.16-3.88.35-7.79.4-11.67.09l-1.07-2.6c-2.38 1.91-5.34 2.31-8.29 1.87l-2.01-5.35-3.13 3.3c-4.16-1.56-8.14-3.57-11.77-6.14 1.16-2.64 2.3-5.3 3.35-7.99-3.91-.39-5.07 3.25-6.13 6.21l-3.91-4.39c3.66-2.96 5.63-8.14 3.09-12.46z"/><path fill="#b89e83" d="M152.2 231.71c4.88-7.47 15.28-2.77 22.67-4.38.28 2.18.61 4.35.78 6.55l-1.88 5.94c2.16 1.44 4.35 2.84 6.58 4.19-.37.13-1.12.37-1.49.49-6.18.86-11.48 6.26-9.01 12.75 1.59 4.55-.23 8.93-3.65 12.07-2.01 1.33-4.09 2.56-6.16 3.79l-2.52-3.82c-.83-.94-1.75-1.79-2.72-2.58-1.77-.62-3.58-1.13-5.39-1.63-.22-3.07-.37-6.16.01-9.23 4.41-1.97 8.87-4.08 12.37-7.49-2.3-4.84-3.18-10.51-7.09-14.44l-1.75 2.91-.75-5.12m7.52 20.39l.35.65c-3.15 1.79-6.02 4.02-9.21 5.75 1.14 3 2.92 5.69 4.94 8.18 3.25-1.8 6.4-3.76 9.4-5.94l2.19-1.78c.08-4.58-3.17-7.19-7.67-6.86z"/><path fill="#bda48e" d="M180.29 227.48c2.96.46 5.6 2 8.3 3.21l-3.17 7.51-2.13-5.74-7.15.39c1.17-1.91 2.08-4.26 4.15-5.37z"/><path fill="#dcc5a7" d="M103.76 238.23c-4.19-2.62-2.74-9.62 2.06-10.54-2.6 3.01-3.14 6.76-2.06 10.54z"/><path fill="#625347" d="M146.2 227.88l5.61.2.39 3.63.75 5.12c-1.94-3.21-3.97-6.4-6.75-8.95z"/><path fill="#6e5f54" d="M205.19 229.47l7.93 3.6c.46 3 .56 6.03.7 9.06l-2.29 2.19c-.32 4.14-2.16 7.88-3.83 11.62l-1.91.68-.97-6.89c-3.63-1.8-8.4-2.75-11.95-.33-1.43 2.66-.97 5.85-1.24 8.77l-.84.44c-.88-.28-1.74-.58-2.6-.88-1.12 6.12-.29 12.37-1.03 18.49-2.39 3.96-3.99 8.31-3.96 13 .09-7.83.37-15.66-.02-23.48l.41-5.34.69 1.1c.54-4.43 2.15-9.25-.77-13.22 1.39-1.39 3.47-1.48 5.26-1.95 3.02-3.8 4.86-8.32 6.46-12.85 4.14 1.89 7.58-.81 9.96-4.01m-15.75 17.32c6.35-.17 15.44 3 19.93-2.49-6.48 2.3-13.66-.16-19.93 2.49z"/><path fill="#493f37" d="M270.95 229.6l2.83-.26c-.86 1.64-1.75 3.31-3.15 4.57l-7.3 5.16c-2.56 2.01-5.6 3.39-8.9 3.37l5.85-4.27c3.75-2.61 7.29-5.5 10.67-8.57z"/><path fill="#342d2a" d="M244.89 230.88c.72 2.88 1.52 5.76 2.85 8.43l-3.87 1.69c-2.45-1.86-4.35-4.28-5.46-7.15 2.55.03 4.67-1.31 6.48-2.97z"/><path fill="#eed5bf" d="M44.71 232.71c3.15 3.33 6.81 6.46 8.28 10.96-2.29 1.33-4.56 4.69-7.43 3.75-2.89-3-5.68-6.26-7.38-10.09l6.53-4.62z"/><path fill="#dfc6af" d="M176.14 232.85l7.15-.39 2.13 5.74c-1.23 2.27-2.5 4.83-5.07 5.81l-6.58-4.19 1.88-5.94.49-1.03z"/><path opacity=".8" d="M344.53 232.94c4.01 1.43 8.04 2.76 12.11 4.02l-3.81 1.91-4.74-.78a87.31 87.31 0 0 0-1.42 2.47l-3.76-.28 2.42 3.98-1.99 4.64-3.1-1.33c-.88-3.31-1.19-6.73-1.08-10.15l4.8-1.88.57-2.6z"/><path fill="#d9bea3" d="M152.95 236.83l1.75-2.91c3.91 3.93 4.79 9.6 7.09 14.44-3.5 3.41-7.96 5.52-12.37 7.49 1.73-4.09 6.13-5.78 9.49-8.25l-2.14-5.45c-4.93.04-6.41 5.43-10.53 6.85-2.59.62-5.01 1.73-6.99 3.53l-1.71-1.05c2.62-4.2 5.89-7.81 11.33-5.59l-2.35-1.7c2.6-2.02 4.88-4.44 6.43-7.36z"/><path fill="#a7937f" d="M270.63 233.91c2.32 2.23 4.26 4.82 5.7 7.72-4.9.29-8.44 3.17-9.37 8.05-1.55-.49-3.08-1.03-4.61-1.56.07-3.04.32-6.08.98-9.05l7.3-5.16z"/><path fill="#8d8b8e" d="M356.29 239.51l2.65-2.28 1.16 2.81 4.15 1.32 1.55 2.66c-.68 4.17-3.49 7.27-6.75 9.72l-3.43-.74 1.4-5.69 4.45-.02c.16-2.74-2.72-2.88-4.65-3.62l-7.38-2.18c.97 2.35 2.33 4.51 3.81 6.58-.84 1.09-1.64 2.22-2.44 3.35l-3.08-1.17c-.72-3.17-1.6-6.41-1.06-9.69a87.31 87.31 0 0 1 1.42-2.47l4.74.78 3.46.64z"/><path fill="#5a5048" d="M278.44 240.02c4.97 10.32 12.64 18.81 18.43 28.63.81 1.15 1.64 2.29 2.38 3.48a88.61 88.61 0 0 1 1.46 3.49l1 2.56c1.33.76 2.73 1.47 3.87 2.52-5.19 7.43-13.02 13.65-22.19 14.94-2.03-3.96-4.3-7.83-7.17-11.24l-1.63-1.77c-1.61-2.07-3.04-4.25-4.48-6.43-2.09-6.28-7.57-10.93-8.63-17.59-.68-4.43-3.02-8.3-5.58-11.87 7.49 5.37 9.33 15.85 16.88 21.55-3.65 5.46 3.26 10.75 5.33 15.62 2.13 5.32 9.38 9.88 14.41 5.52l9.21-7.73c-4.49-7.2-8.22-14.99-13.77-21.46-3.9-5.4-6.4-11.66-10.01-17.25-3.27 2.15-6.36 4.56-9.32 7.13l-1.67-.44c.93-4.88 4.47-7.76 9.37-8.05l2.11-1.61z"/><path fill="#f1d6bb" d="M146.24 249c4.12-1.42 5.6-6.81 10.53-6.85l2.14 5.45c-3.36 2.47-7.76 4.16-9.49 8.25-.38 3.07-.23 6.16-.01 9.23 1.81.5 3.62 1.01 5.39 1.63-4.59 4.64-11.21 5.67-17.47 5.42.58-4.55 1.08-9.11 1.28-13.69l-4.85-2.94c1.18-1.42 2.51-2.7 3.78-4.02l1.71 1.05 3.41 2.12.45 2.34-3.57 1.07c1.48 2.01 3.31 3.73 5.4 5.11 1.53-4.56 1.84-9.4 1.3-14.17z"/><path fill="#151414" opacity=".69" d="M349.44 241.49l7.38 2.18-3.57 4.4c-1.48-2.07-2.84-4.23-3.81-6.58z"/><path fill="#010101" opacity=".84" d="M250.84 242.96c1.61 1.35 3.33 2.58 5.06 3.78 2.56 3.57 4.9 7.44 5.58 11.87 1.06 6.66 6.54 11.31 8.63 17.59-4.18-5.06-7.47-10.75-11.2-16.13-3.68-5.21-4.53-11.8-8.07-17.11z"/><path fill="#a89481" d="M268.63 250.12c2.96-2.57 6.05-4.98 9.32-7.13 3.61 5.59 6.11 11.85 10.01 17.25-1.74 1.92-3.42 3.97-5.57 5.46-6.78 2.18-14.44-2.67-16.39-9.24.93-2.09 2.34-4 2.63-6.34m6.28.3c-.53 2.71-.78 5.47-.86 8.24 2.07.91 4.2 1.7 6.41 2.17.51-2.57.93-5.15 1.3-7.74-2.16-1.19-4.44-2.15-6.85-2.67z"/><path fill="#3d342d" d="M189.44 246.79c6.27-2.65 13.45-.19 19.93-2.49-4.49 5.49-13.58 2.32-19.93 2.49z"/><path fill="#d3bba1" d="M108.27 256.67c1.82-7.43 9.33-12.04 16.69-12.14l-.24 1.8c-.07.5-.23 1.5-.31 2-4.97.41-9.68 2.29-13.55 5.44 1.51 2.51 3.32 4.85 5.62 6.68l-2.6 1.38c-4.75-2.13-9.32 1.14-13.43 3.18l5.77.22c-2.22.44-4.47.74-6.73.98l-.87-.87c1.25-2.74 1.3-6.22-1.3-8.21l-1.27 9.72c-4.12.3-8.29.52-12.4-.02l-.32-.7c3.88.31 7.79.26 11.67-.09l-.66-8.16 2.02-2.22c3.58 2.12 9.13 6.77 11.91 1.01z"/><path fill="#e4cbb0" d="M169.85 257.25c-2.47-6.49 2.83-11.89 9.01-12.75l2 2.09c-2.78 4.38-6.62 7.93-11.01 10.66z"/><path fill="#948374" d="M192.87 249.4c3.55-2.42 8.32-1.47 11.95.33l.97 6.89-2.55.82c-3.61-3.53-7.99-1.7-11.61.73.27-2.92-.19-6.11 1.24-8.77z"/><path fill="#655a50" d="M274.91 250.42c2.41.52 4.69 1.48 6.85 2.67l-1.3 7.74c-2.21-.47-4.34-1.26-6.41-2.17.08-2.77.33-5.53.86-8.24z"/><path fill="#eed3bc" d="M159.72 252.1c4.5-.33 7.75 2.28 7.67 6.86l-2.19 1.78c-1.86-2.57-3.63-5.2-5.13-7.99l-.35-.65z"/><path fill="#5c4d42" d="M127.72 253.15c2.3.3 4.73.88 5.4 3.44l-1.19 2.24-4.21-5.68z"/><path fill="#fffee8" d="M150.86 258.5c3.19-1.73 6.06-3.96 9.21-5.75 1.5 2.79 3.27 5.42 5.13 7.99-3 2.18-6.15 4.14-9.4 5.94-2.02-2.49-3.8-5.18-4.94-8.18z"/><path fill="#9a8772" d="M84.68 255.02c3.88-.32 7.99-1.01 11.68.64l-2.02 2.22c-3.21-.56-7.94.76-9.66-2.86z"/><path fill="#5b4e42" d="M191.63 258.17c3.62-2.43 8-4.26 11.61-.73l2.55-.82 1.91-.68c-1.63 12.37.37 24.65-.54 37.05l-.27 4.42c-.08 1.23-.2 2.48-.21 3.73.52 3.98 2.04 7.84 1.45 11.93l-3.63 2.94 6.34.38c-2.75.49-5.56.28-8.32.02 1.6-2.72 2.8-5.64 3.68-8.66-8.63 1.9-18.75 3.4-26.44-2.03l2.83-.25-.35-7.91c.11-10.6-.28-21.27.94-31.82.39 7.82.11 15.65.02 23.48-.34 5.87-1.44 13.43 4.58 16.94 5.27 1.42 10.91.12 16.28-.23l-.2-8.15c.09-5.97 1.24-11.98.11-17.92a31.77 31.77 0 0 1-.05-2.76c.51-5.94.76-11.89.76-17.85-3.55.1-7.09.39-10.64.37a102.82 102.82 0 0 1-3.25-1.01l.84-.44z"/><path fill="#c5ad92" d="M133.76 255.5l4.85 2.94c-.2 4.58-.7 9.14-1.28 13.69l-2.09-2.12-.96-3.86c-5.83.16-11.5 2.37-15.8 6.32-4.25-.49-8.53-.86-12.71-1.86 3.3-6.49 10.77.43 15.15-4.1 3.93-3.39 9.22-3.6 14.15-3.74l-3.14-3.94 1.19-2.24.64-1.09z"/><path fill="#93816e" d="M188.19 257.73l2.6.88 3.25 1.01c-2.79 5.26-3.22 11.62-1.95 17.36 2.95 3.58 8.24 1.64 11.83.12a31.77 31.77 0 0 0 .05 2.76c-4.62.76-9.28 1.27-13.95 1.66-.43 8-.54 16.02-.56 24.03 6.15.73 14.94.69 14.4-7.77.01 2.71.13 5.43.2 8.15-5.37.35-11.01 1.65-16.28.23-6.02-3.51-4.92-11.07-4.58-16.94-.03-4.69 1.57-9.04 3.96-13 .74-6.12-.09-12.37 1.03-18.49z"/><path fill="#ae9986" d="M194.04 259.62c3.55.02 7.09-.27 10.64-.37 0 5.96-.25 11.91-.76 17.85-3.59 1.52-8.88 3.46-11.83-.12-1.27-5.74-.84-12.1 1.95-17.36m3.5 4.5a251.94 251.94 0 0 1-4.2 5.92c1.17 1.72 2.18 3.63 3.82 4.97 2.98-.23 4.09-3.73 5.83-5.73-1.53-1.99-2.67-4.74-5.45-5.16z"/><path fill="#fbedd1" d="M100.45 265.01c4.11-2.04 8.68-5.31 13.43-3.18-2.45 1.32-4.86 2.92-7.66 3.4-1.93-.02-3.85-.12-5.77-.22z"/><path fill="#c3af99" d="M287.96 260.24c5.55 6.47 9.28 14.26 13.77 21.46l-9.21 7.73c-7.37-4.41-10.33-13.39-15.26-20.12l5.13-3.61c2.15-1.49 3.83-3.54 5.57-5.46z"/><path fill="#645c54" d="M197.54 264.12c2.78.42 3.92 3.17 5.45 5.16-1.74 2-2.85 5.5-5.83 5.73-1.64-1.34-2.65-3.25-3.82-4.97l4.2-5.92z"/><path fill="#534940" d="M97.07 271.74c.2-2.2.65-4.37 1.55-6.4l.87.87 3.1 3.77-.99 1.49-4.53.27z"/><path fill="#f5dcc5" d="M118.48 272.47c4.3-3.95 9.97-6.16 15.8-6.32l.96 3.86-.9 2.59c-5.24 1.17-10.63.99-15.86-.13z"/><path fill="#9a8875" d="M278.11 283.91c-2.07-4.87-8.98-10.16-5.33-15.62l4.48 1.02c4.93 6.73 7.89 15.71 15.26 20.12-5.03 4.36-12.28-.2-14.41-5.52z"/><path fill="#020202" opacity=".87" d="M296.87 268.65l5.13-.04 3.58 2.71-6.33.81-2.38-3.48z"/><path fill="#87888b" d="M299.25 272.13l6.33-.81c1.57.78 3.25 1.65 3.24 3.67l-2.95 1.86-5.16-1.23-1.46-3.49z"/><path fill="#23201f" opacity=".73" d="M300.71 275.62l5.16 1.23 2.95-1.86-.16 5.07.24 5.49c-1.41-1.4-2.4-3.11-3.32-4.85-1.14-1.05-2.54-1.76-3.87-2.52l-1-2.56z"/><path fill="#9a8e80" d="M308.66 280.06l4.03-2.3c4.36 7.79-6.54 11.24-7.9 17.99l3.21-.33c3.3 3.02 4.14 7.35 4.37 11.62l-3 1.94-3.2-4.09c.75-1.66 1.38-3.4 1.2-5.26-3.21 1.93-6.16 4.23-9.07 6.56l.67 1.76 4.11-.85 3.18 4.83c-1.03.63-2.05 1.28-3.1 1.87-2.24-.93-4.47-1.9-6.6-3.07-1.08-1.25-2.09-2.55-3.13-3.82l3.4-4.56c-2.42-.01-4.84.02-7.25.14l-2.35.11.22 3.3c-3.48 3.13-10.15 6.2-13.57 1.54l3.79-3.76c1.48.55 2.92 1.22 4.36 1.87l1-1.58-6.96-8.79-1.34 1.73c2.04 3.41-.66 5.43-3.55 6.87l-1.97-2.74c.32-1.06.66-2.1 1-3.15.7-3.16 3.21-5.27 5.67-7.13 2.22 2 4.45 4.24 7.51 4.88 9.17-1.29 17-7.51 22.19-14.94.92 1.74 1.91 3.45 3.32 4.85l-.24-5.49z"/><path fill="#c7b39d" d="M190.02 281.52c4.67-.39 9.33-.9 13.95-1.66 1.13 5.94-.02 11.95-.11 17.92.54 8.46-8.25 8.5-14.4 7.77.02-8.01.13-16.03.56-24.03z"/><path opacity=".87" d="M276.22 284.4c2.87 3.41 5.14 7.28 7.17 11.24-3.06-.64-5.29-2.88-7.51-4.88-2.46 1.86-4.97 3.97-5.67 7.13-8.25.64-3.01-9.73 1.53-11.66l3.91 2.27.57-4.1z"/><path fill="#020202" opacity=".91" d="M207.16 292.99c3.46 1.77 7.55 3.73 7.95 8.13-2.61-1.52-5.35-2.78-8.22-3.71l.27-4.42z"/><path fill="#010101" opacity=".91" d="M167.39 302.92c-.43-6.34 9.87-12.61 13.2-5.62l1.65.26c.06 2.64.21 5.27.35 7.91l-2.83.25-1.11-6.4c-4.17-.49-8.1.87-11.26 3.6z"/><path fill="#020202" opacity=".87" d="M274.73 296.91l1.34-1.73 6.96 8.79-1 1.58-4.36-1.87c-2.17-.07-4.33 0-6.49.1 2.89-1.44 5.59-3.46 3.55-6.87z"/><path fill="#7c7b81" d="M206.89 297.41c2.87.93 5.61 2.19 8.22 3.71l.04 4.3-3.9-.15-4.57-4.13.21-3.73z"/><path fill="#998b80" d="M167.39 302.92c3.16-2.73 7.09-4.09 11.26-3.6l1.11 6.4c7.69 5.43 17.81 3.93 26.44 2.03-.88 3.02-2.08 5.94-3.68 8.66-2.19 3.37-.15 7.49-.87 11.19-.89 2.07-2.17 3.93-3.38 5.81l-2.98-.18-.29-6.04 3.29-.42-.08-2.66c-3.91 0-8.34-.85-11.59 1.91l4.46 1.61-.12 5.99-3.53.03c-4.09-4.36-4.85-10.33-2.62-15.81l-4.29-2.93-1.22 3.04c-4.33 1-8.48-.62-11.94-3.15l.08-3.21 4.09-.95c1.64 1.05 2.64 4.17 4.84 3.44.18-3.66-.13-7.31-.14-10.96l-2.63.11-.28 3.59-5.76.6c-.28-1.49-.33-3-.17-4.5z"/><path fill="#030303" opacity=".9" d="M208.13 313.07c.59-4.09-.93-7.95-1.45-11.93a89.12 89.12 0 0 1 4.57 4.13l3.9.15c0 1.42.05 2.86.24 4.27l-4.32-.42c-.95 1.29-1.88 2.59-2.94 3.8z"/><path fill="#272321" opacity=".84" d="M289.58 302.49l7.25-.14-3.4 4.56-3.85-4.42z"/><path fill="#030303" opacity=".91" d="M173.6 303.23l2.63-.11c.01 3.65.32 7.3.14 10.96-2.2.73-3.2-2.39-4.84-3.44-1.28-1.13-2.65-2.15-3.97-3.22l5.76-.6.28-3.59z"/><path fill="#838288" d="M211.07 309.27l4.32.42.44 3.02-4.99 3.68-6.34-.38 3.63-2.94c1.06-1.21 1.99-2.51 2.94-3.8z"/><path fill="#211e1e" opacity=".69" d="M186.62 326.02c3.25-2.76 7.68-1.91 11.59-1.91l.08 2.66-3.29.42-.17-2.44c-2.72.49-5.46.93-8.21 1.27z"/></svg>