<svg xmlns="http://www.w3.org/2000/svg" width="512" height="512" viewBox="0 0 384 384" xmlns:v="https://vecta.io/nano"><path fill="#a89e8c" d="M250.26 23.11l3.27.33-.43 4.53c-1.71.54-3.7.86-4.63 2.61l4.36.9 1.26.24 5.73 1.43-3.06-5.14 1.2-3.48 2.86.7c1.38 3.04 2.99 6.56 1.02 9.73-1.02 2.15-1.36 4.5-1.59 6.84-3.14-4.12-8.57-4.75-13.38-4.12-.42-2.61-1.04-5.17-1.4-7.78.62-2.85 2.73-4.89 4.79-6.79z"/><path fill="#1f1e1d" opacity=".47" d="M248.47 30.58c.93-1.75 2.92-2.07 4.63-2.61l-.27 3.51-4.36-.9z"/><path fill="#262424" opacity=".52" d="M254.09 31.72c1.01-1.14 1.93-2.37 2.67-3.71l3.06 5.14-5.73-1.43z"/><path fill="#a39686" d="M150.75 29.72c4.6-1.95 8.56 2.58 9.72 6.63 1.21 2.06 2.5 4.15 2.58 6.61-4.99-.83-10.56.4-13.41 4.93-1.03-2.72-2.44-5.67-5.71-5.91-1.52-2.92-.84-6.13-.15-9.18l3.03-1.33 1.38 2.76-2.07 6.06 3.98-1.75c1.07-.5 2.15-.97 3.24-1.41l3.63-.55-1.04-2.47-3.45.77c-.63-1.7-1.17-3.44-1.73-5.16z"/><path fill="#817465" d="M234.12 34.63c4.13.32 10.04.16 11.35-4.73.36 2.61.98 5.17 1.4 7.78-.29 3.49-1.42 6.83-2.13 10.25-.66 6.94-.75 13.98-3.07 20.66-2.11 5.87 6.56 7.94 10.4 5.57 1.16-1.78 1.87-3.8 2.54-5.8.66 2.42 1.3 4.85 1.75 7.32l-7.81 1.16-9.09-1.72-1.01 6.71c1.95 1.66 3.91 3.32 6.05 4.74l-4.31.44c-1.24-1.45-2.26-3.18-3.93-4.17-1.97 1.35-3.67 3.06-5.38 4.72 4.27 2.62 9.25 3.45 13.88 5.17l.84-2.55.58 3.44c3.09 1.53 6.09 4.22 4.22 7.99-2.62 5.94-3.32 12.3-2.2 18.7l-4.43-.46c-.23-3.09 2.17-10.46-3.03-9.28-3.56 1.48-7.17 1.43-8.69-2.7l-.72-1.01c-2.42-.81-5.01-1.31-7.15-2.79 7.42.35 14.76 1.5 22.08 2.67a146.56 146.56 0 0 0 .63-5.88c-3.8-2.08-9.21-.61-12.12-4.14-2.16.37-4.35.58-6.53.37a42.77 42.77 0 0 0-4.8-.16l-.51 6.29a47.9 47.9 0 0 1-2.38-1.88c-.51-1.69-.77-3.45-1.02-5.19 7.91-5.79 9.5-15.59 14.72-23.18 1.68-6.55 2.02-13.39 3.6-19.99l-.95-.46c-1.1-1.22-2.18-2.45-3.22-3.71 2.4-3.13 2.56-7.2 2.9-10.97l2.55-1.86-5.01-1.35z"/><path fill="#323131" opacity=".55" d="M148.19 34.23l1.91 4.31-3.98 1.75 2.07-6.06z"/><path fill="#302e2d" opacity=".58" d="M152.48 34.88l3.45-.77 1.04 2.47-3.63.55-.86-2.25z"/><path fill="#9f9fa9" d="M228.53 36.89l5.59-2.26 5.01 1.35-2.55 1.86-3.87 3.01-4.16-.58-.02-3.38z"/><path fill="#6c5f51" d="M260.25 41.8c.23-2.34.57-4.69 1.59-6.84 1.36 2.22 2.83 4.38 4.5 6.38l.06 2.36.74 1.73c-1.78 3.03-2.53 6.49-3.75 9.76-.49 1.33-1.03 2.65-1.57 3.97-2.63 6.24-5.71 13.01-3.99 19.93l-5.28-1.24-4-1.01c2.61-.31 5.2-.76 7.81-1.16-.45-2.47-1.09-4.9-1.75-7.32.48-4.59 1.76-9.02 3.23-13.38 1.1-4.33 1.82-8.75 2.41-13.18z"/><path fill="#877a69" d="M160.47 36.35c5.08 4.26 11.6.07 17.17 2.91l.2 3.66-3.84.96-4.1-2.26c.75 3.71 2.01 7.31 3.98 10.56l1.6-4.81 2.52-1.22 2.77.35c.8 4.85-3.65 8.01-7.44 9.88 2.85 6.9 3.09 15.93 10.05 20.26 3.96 1.77 5.91 5.59 6.85 9.64l-6.38 1.35c-1.87-5.58-7.42-8.83-9.23-14.44-1.85-5.14-4.25-10.06-5.97-15.24-1.05-5.3-4.41-9.75-5.6-14.99-.08-2.46-1.37-4.55-2.58-6.61z"/><path fill="#d9c7ad" d="M246.87 37.68c4.81-.63 10.24 0 13.38 4.12-.59 4.43-1.31 8.85-2.41 13.18-5.15.3-12.88-.4-13.1-7.05.71-3.42 1.84-6.76 2.13-10.25z"/><path fill="#796b5c" d="M143.93 41.98c3.27.24 4.68 3.19 5.71 5.91 2.08 4.62 4.15 9.27 5.56 14.16l-2.99-1.04c-3.9-1.81-8.25-1.83-12.33-2.9l3.15.23c.01-2.03-.52-4.03-2.53-4.9.3-1.41.7-2.81 1.18-4.18.95-2.35 3-4.59 2.25-7.28z"/><path fill="#cebca4" d="M149.64 47.89c2.85-4.53 8.42-5.76 13.41-4.93 1.19 5.24 4.55 9.69 5.6 14.99l-7.52 2.06c4.83 3.69 7.89 9.03 7.38 15.26-2 1.66-3.94 3.4-5.83 5.18-.27.23-.81.71-1.07.94a88.14 88.14 0 0 1-2.37-1.23c.09-5.45 3.34-11.52-.27-16.41l-6.23 6.92c.39-3.23.51-6.53-.53-9.66l2.99 1.04c-1.41-4.89-3.48-9.54-5.56-14.16z"/><path fill="#94949b" d="M266.4 43.7l-.06-2.36c3.7 1.1 9.11 4.58 6.84 9.06l-4.37-1-1.67-3.97-.74-1.73z"/><path fill="#9d9ca4" d="M227.12 44.17l4.96.48.74 3.08.86 1.08 3.22 3.71c-4.44.6-7.86-2.18-10.57-5.29l.79-3.06z"/><path fill="#c3b096" d="M241.67 68.59c2.32-6.68 2.41-13.72 3.07-20.66.22 6.65 7.95 7.35 13.1 7.05-1.47 4.36-2.75 8.79-3.23 13.38-.67 2-1.38 4.02-2.54 5.8-3.84 2.37-12.51.3-10.4-5.57m3.16-8.67c1.76 4.25 6.03 5.63 9.4 2.14-2.07-3.83-6.03-5.85-9.4-2.14m-.98 7.87c1.96 2.17 6.06 4.01 8.2 1.13-2.65-.72-5.43-2.16-8.2-1.13z"/><path fill="#9e9ca2" d="M135.74 53.04c1.79-1.53 3.77-2.82 5.94-3.78-.48 1.37-.88 2.77-1.18 4.18l-.62 4.67-2.42.15.02 6.41-3.03-1.67c.87-3.47 1.86-7.51-1.17-10.25l2.46.29z"/><path fill="#c2ab91" d="M119.22 52.5l6.92.06c-2.16 1.89-6.09 2.96-6.37 6.19 4.14 1.91 9.06 3.17 10.41 8.2 1.8-.85 3.31-2.19 4.27-3.95l3.03 1.67c1.01 2.74 1.92 5.53 2.43 8.41-1.97 1.19-3.86 2.5-5.74 3.83 2.86 2.48 5.99 4.63 8.72 7.26l1.71 2.61c4.06-.37 8.04-1.33 11.92-2.55l-.32-3.92c5.13 1.99 2.02 7.19.36 10.53l-7.19-3.14a47.63 47.63 0 0 1 5.06 5.92c-3.96-1.4-7.92-2.87-12.06-3.65-.22 2.07-.47 4.15-.61 6.23l-2.61-4.91.04-2.05 2.62-.77c-4.73-3.92-8.91-8.71-9.35-15.14l3.76-3.56-7.99-.42c.62 3.09.84 6.41-1.03 9.14-2.99-3.44-6.77-6.05-10.64-8.4-1.96 1.86-3.46 4.13-4.5 6.62 3.54 2.95 6.99 6.2 11.33 7.94l1.64.58c-2.94 2.16-6.32-.05-9.16-1.25-3.67-3.46-8.45-7.92-3.74-12.71l1.33-2.17c-3.06-3.31-7.46-4.55-11.87-4.36-.83 2.79-1.66 5.58-2.7 8.3-2.81 5.15-9.2 4.92-14.04 3.18 2.29-4.57 8.14-3.02 12.29-3.71.21-4.49-.07-9.02-1.53-13.31-4.29 1.29-8.29 3.33-12.5 4.83l-.05-1.66c.06-1.5.21-3 .35-4.5 5.78-.19 11.66.84 17.33-.75l2.27 3.26c5.03-1.8 10.39-2.22 15.64-2.92l.57-4.96z"/><path fill="#f5dfc0" d="M126.14 52.56l7.14.19c3.03 2.74 2.04 6.78 1.17 10.25-.96 1.76-2.47 3.1-4.27 3.95-1.35-5.03-6.27-6.29-10.41-8.2.28-3.23 4.21-4.3 6.37-6.19z"/><path fill="#8d8d92" d="M267.56 53.16l4.67.77-.11 3.69c-3.28 1.25-6.75 2.31-10.3 1.54l1.57-3.97 2.31.5 1.86-2.53z"/><path fill="#131110" opacity=".38" d="M140.5 53.44c2.01.87 2.54 2.87 2.53 4.9l-3.15-.23.62-4.67z"/><path fill="#f1d8bf" d="M137.46 58.26l2.42-.15c4.08 1.07 8.43 1.09 12.33 2.9 1.04 3.13.92 6.43.53 9.66l6.23-6.92c3.61 4.89.36 10.96.27 16.41-3.13-1.77-6.18-3.71-9.45-5.25 1.34 2.64 3.81 4.19 6.41 5.4l.32 3.92c-3.88 1.22-7.86 2.18-11.92 2.55l-1.71-2.61 2.94-.51c.47-4.27.72-8.57.68-12.86-2.3.44-4.58 1.07-6.6 2.28-.51-2.88-1.42-5.67-2.43-8.41-.18-2.13-.1-4.28-.02-6.41z"/><path fill="#b29b84" d="M161.13 60.01l7.52-2.06c1.72 5.18 4.12 10.1 5.97 15.24 1.81 5.61 7.36 8.86 9.23 14.44l6.38-1.35c.81 2.96 1.62 5.96 3.04 8.71l-1.16 4.81-3.45-2.78-1.03 3.81-4.73-.69c-1.61-4.59.8-10.04-2.41-14.03-2.74-3.34-5.9-6.31-9.28-9l-.86 3.9c1.76 2.02 3.49 4.08 5.38 5.99 1.57 1.04 3.43 1.41 5.25 1.75-2.64 1.31-5.21 2.78-7.76 4.27l3.16 6.14c-3.54-.28-7.06-.75-10.58-1.21l2.6-1.3c-.94-5.66-4.28-12.26.13-17.29l-5.85 1.09c1.89-1.78 3.83-3.52 5.83-5.18.51-6.23-2.55-11.57-7.38-15.26z"/><path fill="#807668" d="M244.83 59.92c3.37-3.71 7.33-1.69 9.4 2.14-3.37 3.49-7.64 2.11-9.4-2.14z"/><path fill="#fdebd5" d="M83.11 64.03c4.21-1.5 8.21-3.54 12.5-4.83 1.46 4.29 1.74 8.82 1.53 13.31-4.15.69-10-.86-12.29 3.71-.95-.34-1.88-.7-2.8-1.11 2.27-3.29 1.07-7.39 1.06-11.08z"/><path fill="#baa389" d="M54.48 67.76c4.1-2.14 8.24-4.19 12.42-6.16l2.18 3.21c4.53-1.43 9.25-2.08 13.98-2.44l.05 1.66c.01 3.69 1.21 7.79-1.06 11.08-2.05-3.24-1.99-7.09-1.81-10.77-1.85.63-3.98.8-5.54 2.04-1.86 2.65.42 5.64.3 8.45-2.67 7.06-11.6 8.96-18.14 6.67a197.27 197.27 0 0 0-1.32-6.42c-2.73 1.65-5.71 3.77-4.73 7.4l-.48 1.08-4.17-1.14c-3.31 3.12-5.92 6.87-8.14 10.82a49.64 49.64 0 0 0 7.05 5.08c3.04-3.31 5.46-7.11 7.57-11.06l-1.43-4.12c1.78.83 3.62 1.75 4.55 3.59-1.53 3.21-3.34 6.28-5.32 9.24.97 1.24 1.93 2.48 2.84 3.76-4.08 1.61-5.7 5.88-6.04 9.93 2.84.02 5.68-.23 8.49-.67-.16-2.03-.29-4.07-.53-6.1l2.48 4.17-1.61 6.68 4.09-.6 1.48-.19c-.94 3.48-1.19 7.1-1.26 10.7l-2.14.46a97.18 97.18 0 0 0 .36-8.7l-3.3-.04c-3.21-.01-6.42-.06-9.62-.21l-.86-.02c.68-4.83 1.22-9.68 1.71-14.53-1.68-.8-3.34-1.64-5.08-2.31-1.4-.4-2.82-.75-4.23-1.1-4.92 7.15-5.19 16.14-6.32 24.46l3.48.72c-1.36.37-2.73.71-4.12.95l-1.91-.3c1.13-10.31 2.04-21.1 8.27-29.81l-3.64-3.31c2.62-3.82 5.42-7.51 8.16-11.23l4.72 2.16c3.11-3.34 6.34-6.57 9.9-9.44l-1.28-3.64m2.67 5.43c1.04 2.51 2.15 4.99 3.34 7.44 4.38-1.82 9.29-2.99 12.69-6.53-.97-2.35-1.53-5.08-3.57-6.8-4.46 1.15-8.38 3.81-12.46 5.89z"/><path fill="#fce6cb" d="M74.7 66.38c1.56-1.24 3.69-1.41 5.54-2.04-.18 3.68-.24 7.53 1.81 10.77l-4.55-2.48c-1.45 3.87-2.4 8.55-6.25 10.82-3.72 2.46-8.25.38-12.25-.1-3.34 5.7.31 10.82 2.83 15.83 3.4 1.49 7.99-.47 10.35 3.45-4.49-.57-9.83 2.71-13.35-1.4-4.79-3.36-4.32-9.51-3.07-14.5-.93-1.84-2.77-2.76-4.55-3.59l1.43 4.12c-2.11 3.95-4.53 7.75-7.57 11.06a49.64 49.64 0 0 1-7.05-5.08c2.22-3.95 4.83-7.7 8.14-10.82l4.17 1.14.48-1.08c-.98-3.63 2-5.75 4.73-7.4l1.32 6.42c6.54 2.29 15.47.39 18.14-6.67.12-2.81-2.16-5.8-.3-8.45z"/><path fill="#fef0d2" d="M101.59 64.74c4.41-.19 8.81 1.05 11.87 4.36l-1.33 2.17c-4.51-1.55-10.52-3.73-13.24 1.77 1.04-2.72 1.87-5.51 2.7-8.3z"/><path fill="#a59d8e" d="M311.9 67.78c6.35-6.72 12.85 6.17 19.85 2.01 2.4-1.99 5.36-2.84 8.4-3.3l2.41 2.37-2.57 2.97-5.57-1.01c1.01 1.34 2.07 2.67 3.21 3.92.77.83 1.54 1.69 2.29 2.56 1.86 3.92 4.16.46 1.94-2.08 1.24-1.05 2.52-2.07 3.8-3.08l2 2.75c-.75 2.51-1.19 5.37-3.48 7-2.32.73-4.37 2.05-5.89 3.96a35.92 35.92 0 0 0-5.58-9.1c-1.62-.85-3.34-1.53-5.03-2.23-2.63-1.04-5.18-2.26-7.71-3.5l-1.27-.57c-1.01.37-2.01.75-2.99 1.16l-3.81-3.83z"/><path fill="#fff5e0" d="M57.15 73.19c4.08-2.08 8-4.74 12.46-5.89 2.04 1.72 2.6 4.45 3.57 6.8-3.4 3.54-8.31 4.71-12.69 6.53-1.19-2.45-2.3-4.93-3.34-7.44z"/><path fill="#4c4239" d="M243.85 67.79c2.77-1.03 5.55.41 8.2 1.13-2.14 2.88-6.24 1.04-8.2-1.13z"/><path d="M98.89 73.04c2.72-5.5 8.73-3.32 13.24-1.77-4.71 4.79.07 9.25 3.74 12.71 3.04 5.36 9.2 3.87 14.32 4.08-4.59 3.9-9.95 6.77-14.41 10.83l1.93 1.16c-1.12 2.57-2.71 5.05-3.07 7.88.93 3.64 3.05 6.83 4.55 10.25 4.86.96 9.82.31 14.72.79l.77-2.55c2.35 1.12 4.58 2.52 6.31 4.49-3.05 3.54-7.9 3.13-12.09 2.59-2.2-.39-4.63-1.31-6.56.35-6.01-.37-12.03-.14-18.04.06-2.07-2.33-4.62-4.14-7.28-5.74-.14-4.23-1.96-8.06-4.72-11.19 1.7-.74 3.61-1.36 4.39-3.23-1.81.18-3.62.4-5.42.63-.18-5.26-.22-10.52-.71-15.77-.62 4.22-1.09 8.45-1.86 12.64a141.08 141.08 0 0 0-4.09.84c-3.41 1.34-6.88 2.85-10.64 2.36l-1.79-1.82c-2.36-3.92-6.95-1.96-10.35-3.45-2.52-5.01-6.17-10.13-2.83-15.83 4 .48 8.53 2.56 12.25.1 3.85-2.27 4.8-6.95 6.25-10.82l4.55 2.48c.92.41 1.85.77 2.8 1.11 4.84 1.74 11.23 1.97 14.04-3.18m12.79 20.08c.31 1.91.67 3.8 1.04 5.69l-2.81 4.26 2.75-.57c1.33-3.09 2.77-7.33-.98-9.38m-8.22 8.34l1.69 2.69 4.23-.48c-1.62-1.51-3.83-1.83-5.92-2.21zm106.78 19.53c1.8 3.37 3.44 6.83 5.44 10.1l3.54-1.89.43 3.69c.42 4.46 1.59 8.79 2.86 13.08.8 2.92.57 5.96-.1 8.88-4.26 7.54-13.72 9.3-21.68 8.73 1.58-2.83 4.25-4.66 7.03-6.17l-4.29-1.97c.68-6.06 1.04-12.19.64-18.29l2.2-2.46c-.64-1.79-1.28-3.58-1.83-5.4.13-3.77 3.04-6.17 5.76-8.3zm-67.4 73.5c-2.23-2.53-1-5.71 2.23-6.41l2.66 2.84-1.6 3.65-3.29-.08z" fill="#fffffb"/><path fill="#9e8b73" d="M128.23 69.35l7.99.42-3.76 3.56c.44 6.43 4.62 11.22 9.35 15.14l-2.62.77-.97-1.25c-2.47-3.08-5.38-5.77-8.42-8.28-1.72 1.72-3.2 3.66-4.77 5.52l-1.64-.58 3.81-6.16c1.87-2.73 1.65-6.05 1.03-9.14z"/><path fill="#fffbe5" d="M112.06 76.71c1.04-2.49 2.54-4.76 4.5-6.62 3.87 2.35 7.65 4.96 10.64 8.4-1.24 2.08-2.55 4.1-3.81 6.16-4.34-1.74-7.79-4.99-11.33-7.94z"/><path d="M139.91 73.08c2.02-1.21 4.3-1.84 6.6-2.28.04 4.29-.21 8.59-.68 12.86l-2.94.51c-2.73-2.63-5.86-4.78-8.72-7.26 1.88-1.33 3.77-2.64 5.74-3.83zm13.99 94.81c4.29-.31 8.6-.52 12.89-.19 4.62 2.25 9.79 6.07 8.57 11.96l-6.48-.6 3.24 1.94c.01 6.23 2.74 12.91-.44 18.76-1.03 2.27-1.56 4.72-2.08 7.15-.61 3.19-2.19 6.06-4.05 8.69-1.96-.36-3.93-.62-5.92-.61-1.37-5.55-5.55-10.1-5.84-15.96-.9-6.23 2.52-12.63-.2-18.64-.41-4.17-.17-8.36.31-12.5zm-14.61 84.71c1.86-1.93 4.21-3.26 6.87-3.7.52 4.81.81 9.93-1.68 14.29-1.91-1.51-3.62-3.26-4.94-5.3l3.55-.76c-.13-.85-.27-1.69-.43-2.52l-3.37-2.01z" fill="#fffffe"/><path fill="#939296" d="M306.53 72.95l2.59-2.64 3.75 3.46c-.67 1.63-1.7 3.39-.22 4.94l3.47-3.09 1.21 4.28-4.21 6.22 4.18 1.05c-7.17 2.27-12.11 8.03-18.07 12.23-1.26-.56-2.53-1.1-3.8-1.61 7.52-2.09 11.64-9.32 17.29-14.13-3.74-2.41-5.82-6.31-6.19-10.71z"/><path fill="#595656" d="M319.97 71.02l7.71 3.5c-3.52 1.36-7.44 2.65-10.87.29l3.16-3.79z"/><path fill="#302e2c" opacity=".59" d="M334.42 70.82l5.57 1.01-2.36 2.91c-1.14-1.25-2.2-2.58-3.21-3.92z"/><path fill="#a5907c" d="M149.79 74.91c3.27 1.54 6.32 3.48 9.45 5.25a88.14 88.14 0 0 0 2.37 1.23c1.79 4.75-3.46 8.33-2.77 13.02.88 2.22 3.65 2.59 5.63 3.38-3.14 5.48-8.5 2.76-12.53-.04-.4 4.44.06 9.09 3.26 12.49a70.92 70.92 0 0 0 4.99-5.12c.15 3.47.51 6.92.96 10.36-4.37 1.72-7.13 5.4-6.47 10.25-.38 1.46-.81 2.9-1.25 4.34l-1.19-5.66-2.88.04-2.15-.37 1.63-4.21.53-1.35.43-.82.54 5.52c6.18.97 1.55-5.63 1.1-8.6.04-4.9-.38-9.79-.69-14.68-1.8.83-3.77 1.59-4.79 3.42-2.15 6.43-9.1 5.93-13.97 3.05l-1.11 1.26c1.16 3.77-1 8.44-5.61 6.99-5.7-3.13-6.21-11.24-.31-14.63l5.29 1.82c.26-2.07.49-4.15.85-6.2l6.5 10.06c2.38-.92 4.73-1.92 7.05-2.97l-2.89-6.54c.14-2.08.39-4.16.61-6.23 4.14.78 8.1 2.25 12.06 3.65a47.63 47.63 0 0 0-5.06-5.92c2.38 1.09 4.78 2.12 7.19 3.14 1.66-3.34 4.77-8.54-.36-10.53-2.6-1.21-5.07-2.76-6.41-5.4z"/><path fill="#cfbaa7" d="M239.46 75.12l9.09 1.72 4 1.01c-1.18 4.75 1.85 11.15-3.82 14.39l-1.39-3.93-2.84-1.74c-2.14-1.42-4.1-3.08-6.05-4.74l1.01-6.71z"/><path fill="#cdb99f" d="M316.12 75.62l.69-.81c3.43 2.36 7.35 1.07 10.87-.29 1.69.7 3.41 1.38 5.03 2.23-5.32.96-9.58 4.38-13.8 7.5 2.05 4.57 6.05 7.8 8.66 12.02-5 3.85-10.2 7.47-14.99 11.59-3.77-1.85-5.95-6.4-10.19-7.16-5.67-.55-13.46.72-14.82 7.34a22.79 22.79 0 0 0-1.97-.51l-.14-3.01 7.8-6.84 2.17.11c1.27.51 2.54 1.05 3.8 1.61 5.96-4.2 10.9-9.96 18.07-12.23l-4.18-1.05 4.21-6.22-1.21-4.28m-1.16 17.14l.32 6.08 5.7.28c.5-4.04-1.46-7.38-6.02-6.36m-5.33 3.77c-.26 3.43 2.47 6.55 5.87 6.88-1.48-2.67-3.54-4.94-5.87-6.88z"/><path fill="#242222" opacity=".58" d="M339.92 77.3a8.91 8.91 0 0 1 1.94-2.08c2.22 2.54-.08 6-1.94 2.08z"/><path fill="#fff5d4" d="M171.21 77.11c3.38 2.69 6.54 5.66 9.28 9l-4.76.89c-1.89-1.91-3.62-3.97-5.38-5.99l.86-3.9z"/><path fill="#e7d1b7" d="M318.91 84.25c4.22-3.12 8.48-6.54 13.8-7.5a35.92 35.92 0 0 1 5.58 9.1c-3.35 3.69-6.65 7.49-10.72 10.42-2.61-4.22-6.61-7.45-8.66-12.02z"/><path fill="#98846e" d="M252.55 77.85l5.28 1.24c.61 1.64 1.42 3.2 2.21 4.76-.56 4.03 0 10.28-4.63 11.88-2-1.57-4.29-2.68-6.68-3.49 5.67-3.24 2.64-9.64 3.82-14.39z"/><path fill="#73604e" d="M162.68 80.45l5.85-1.09c-4.41 5.03-1.07 11.63-.13 17.29l-2.6 1.3-1.33-.16c-1.98-.79-4.75-1.16-5.63-3.38-.69-4.69 4.56-8.27 2.77-13.02l1.07-.94z"/><path fill="#fde9ce" d="M125.03 85.23l4.77-5.52c3.04 2.51 5.95 5.2 8.42 8.28-5.49 1.82-9.4 6.3-14.5 8.8-4.8 2-7.06 7.98-6.15 12.85 1.88 3.47 5.38 5.7 7.84 8.74 3.41-.41 6.26-2.26 7.99-5.23 2.74-4.91 11.65-5.01 12.91 1.14-.25-2.95-.09-5.93.4-8.85 1.57 4.19 2.12 8.66 2.66 13.08l-.53 1.35-1.1-.91c-2.02 1.3-4.37 1.84-6.75 1.95-1.73-1.97-3.96-3.37-6.31-4.49l-.77 2.55c-4.9-.48-9.86.17-14.72-.79-1.5-3.42-3.62-6.61-4.55-10.25.36-2.83 1.95-5.31 3.07-7.88l-1.93-1.16c4.46-4.06 9.82-6.93 14.41-10.83-5.12-.21-11.28 1.28-14.32-4.08 2.84 1.2 6.22 3.41 9.16 1.25z"/><path fill="#807063" d="M338.29 85.85c1.52-1.91 3.57-3.23 5.89-3.96-4.97 6.3 3.02 12.39 1.59 19.13l-3 1.15c-2.53-2.04-2.57-5.16-2.27-8.12-2.79 2.27-5.52 4.62-7.98 7.25 1.77.08 3.54.1 5.31.1l2.61 3.57-2.53 2.51c-3.74-.82-7.21-2.51-9.86-5.31-5.05 3.35-10.79 6.64-13.39 12.4-1.31-1.37-2.6-2.76-3.83-4.2-2.73-3.29-5.7-6.39-8.44-9.67 4.24.76 6.42 5.31 10.19 7.16 4.79-4.12 9.99-7.74 14.99-11.59 4.07-2.93 7.37-6.73 10.72-10.42z"/><path fill="#635642" d="M230.88 87.56c1.71-1.66 3.41-3.37 5.38-4.72 1.67.99 2.69 2.72 3.93 4.17l4.31-.44 2.84 1.74 1.39 3.93c2.39.81 4.68 1.92 6.68 3.49-1.35 1.92-2.39 4.09-1.92 6.5.75 6.54-2.39 12.48-5.29 18.08-1.12-6.4-.42-12.76 2.2-18.7 1.87-3.77-1.13-6.46-4.22-7.99l-.58-3.44-.84 2.55c-4.63-1.72-9.61-2.55-13.88-5.17z"/><path fill="#d4bfa4" d="M175.73 87l4.76-.89c3.21 3.99.8 9.44 2.41 14.03l-.12 2.86c-2.35-2.36-5.48-3.18-8.75-2.81 2.05 2.27 3.83 4.88 3.32 8.11l1.97-1.2c2.22 2.49 4.02 5.65 7.05 7.22 3.39.22 7.28-1.16 7.78-4.97 5.52-2.57 11.8-4.26 17.23-.51l2.12-4.26c1.66.63 3.28 1.37 4.89 2.12l-4.46.92c1.91 5.84-4.36 7.8-7.43 11.26-1.97 2.61-4.21 4.99-6.58 7.23l.02-.8-4.78 3.11-5.43-9.52c-2.7 2.13-5.93 4.15-7.24 7.48 1.52 6.65-1.13 13.17-1.17 19.83l-.84-3.37c-2.34 3.05-2 7.64-5.4 9.88-.41 3.28-.78 6.56-1.34 9.82l-5.54.76c2.59-2.27 5.66-5.54 3.95-9.25-1.71-.83-3.62-1.07-5.44-1.53 2.15-.78 4.3-1.62 6.52-2.22 1.34-.22 2.69-.42 4.05-.58-.25-6.15-1.66-12.15-3.31-18.05-.98-3.57-1.34-7.37.52-10.73l-4.68 3.61c-2.23-3.34-3.97-6.98-5.02-10.87l6.82 1.26-1.44-1.79c3.07.02 6.13-.01 9.19-.16-2.2-1.79-4.77-4.38-7.89-3.47-3.66 1.56-6.8 4.11-10.32 5.96-.45-3.44-.81-6.89-.96-10.36a70.92 70.92 0 0 1-4.99 5.12c-3.2-3.4-3.66-8.05-3.26-12.49 4.03 2.8 9.39 5.52 12.53.04l1.33.16c3.52.46 7.04.93 10.58 1.21l-3.16-6.14c2.55-1.49 5.12-2.96 7.76-4.27-1.82-.34-3.68-.71-5.25-1.75m18.35 29.07c3.33 1.99 7.28 1.8 11.01 1.67-2.74-2.88-8.05-5.88-11.01-1.67m-19.54 7.75c3.72-.01 7.63-.21 10.21-3.26l-4.97-2.19c-1.87 1.69-3.63 3.51-5.24 5.45z"/><path fill="#d3bca7" d="M55.76 86.73c-1.25 4.99-1.72 11.14 3.07 14.5 3.52 4.11 8.86.83 13.35 1.4l1.79 1.82-2.37 2.21c-5.67-1.12-10.83.79-13.51 6.05l2.07.43-4.09.6 1.61-6.68-2.48-4.17a68.18 68.18 0 0 0-1.92-3.16c-.91-1.28-1.87-2.52-2.84-3.76 1.98-2.96 3.79-6.03 5.32-9.24z"/><path fill="#dac1a2" d="M138.22 87.99l.97 1.25-.04 2.05c-2.98.66-7.12.78-8.05 4.36l-.85 6.2-5.29-1.82c-5.9 3.39-5.39 11.5.31 14.63 4.61 1.45 6.77-3.22 5.61-6.99l1.11-1.26c4.87 2.88 11.82 3.38 13.97-3.05l.75 2.08c-.49 2.92-.65 5.9-.4 8.85-1.26-6.15-10.17-6.05-12.91-1.14-1.73 2.97-4.58 4.82-7.99 5.23-2.46-3.04-5.96-5.27-7.84-8.74-.91-4.87 1.35-10.85 6.15-12.85 5.1-2.5 9.01-6.98 14.5-8.8z"/><path fill="#d3c1b4" d="M88.7 101.25c.77-4.19 1.24-8.42 1.86-12.64.49 5.25.53 10.51.71 15.77-2.56.53-5.3.27-6.66-2.29l4.09-.84z"/><path fill="#f4dcc5" d="M131.1 95.65c.93-3.58 5.07-3.7 8.05-4.36l2.61 4.91 2.89 6.54-7.05 2.97-6.5-10.06z"/><path fill="#8b8070" d="M314.96 92.76c4.56-1.02 6.52 2.32 6.02 6.36l-5.7-.28-.32-6.08z"/><path fill="#bfaa96" d="M111.68 93.12c3.75 2.05 2.31 6.29.98 9.38l-2.75.57 2.81-4.26-1.04-5.69z"/><path fill="#867867" opacity=".93" d="M193.27 94.99c1.31 3.15 3.74 5.59 6.77 7.11-4.13-.47-8.3-.59-12.41-1.27l1.03-3.81 3.45 2.78 1.16-4.81z"/><path fill="#c7b19e" d="M223.44 96.93a42.77 42.77 0 0 1 4.8.16l-4.8 1.17c5.21 6.59 15.04 3.84 22.23 6.6l1.22-4a146.56 146.56 0 0 1-.63 5.88c-7.32-1.17-14.66-2.32-22.08-2.67l-1.25-.85.51-6.29z"/><path fill="#feecd2" d="M228.24 97.09c2.18.21 4.37 0 6.53-.37 2.91 3.53 8.32 2.06 12.12 4.14l-1.22 4c-7.19-2.76-17.02-.01-22.23-6.6 1.59-.42 3.18-.84 4.8-1.17z"/><path fill="#fbe3ca" d="M37.22 97.2l4.23 1.1-3.83 9.47 6.59 1.03c-2.11 2.16-4.67 3.79-7.43 4.97l-2.4 8.61-3.48-.72c1.13-8.32 1.4-17.31 6.32-24.46z"/><path fill="#53483f" d="M309.63 96.53c2.33 1.94 4.39 4.21 5.87 6.88-3.4-.33-6.13-3.45-5.87-6.88z"/><path fill="#d6bfa6" d="M41.45 98.3c1.74.67 3.4 1.51 5.08 2.31-.49 4.85-1.03 9.7-1.71 14.53-2.21-.08-4.43-.04-6.65-.02l-.19 9.07c-2.53-.61-5.14-.63-7.72-.86 1.39-.24 2.76-.58 4.12-.95l2.4-8.61c2.76-1.18 5.32-2.81 7.43-4.97l-6.59-1.03 3.83-9.47z"/><path fill="#89745e" d="M47.24 109.66c.34-4.05 1.96-8.32 6.04-9.93a68.18 68.18 0 0 1 1.92 3.16c.24 2.03.37 4.07.53 6.1-2.81.44-5.65.69-8.49.67z"/><path fill="#7f6e60" d="M145.96 103.36c1.02-1.83 2.99-2.59 4.79-3.42.31 4.89.73 9.78.69 14.68-.53 1.04-1.1 2.05-1.64 3.08l-.43.82c-.54-4.42-1.09-8.89-2.66-13.08l-.75-2.08z"/><path fill="#f9e4c2" d="M174.03 100.19c3.27-.37 6.4.45 8.75 2.81l.12-2.86 4.73.69c4.11.68 8.28.8 12.41 1.27 3.78 1.37 7.82 1.52 11.76 2.1l1.7.38-2.12 4.26c-5.43-3.75-11.71-2.06-17.23.51-.5 3.81-4.39 5.19-7.78 4.97-3.03-1.57-4.83-4.73-7.05-7.22l-1.97 1.2c.51-3.23-1.27-5.84-3.32-8.11z"/><path fill="#f2dfcd" d="M287.57 108.04c1.36-6.62 9.15-7.89 14.82-7.34 2.74 3.28 5.71 6.38 8.44 9.67-2.65 4.34-5.34 9.36-10.95 10.12-.26-1.84.35-3.61.85-5.34l-3.69-4.14-3.9 1.31c-1.8-1.49-3.6-3.01-5.57-4.28z"/><path fill="#fffae6" d="M73.97 104.45c3.76.49 7.23-1.02 10.64-2.36 1.36 2.56 4.1 2.82 6.66 2.29l5.42-.63c-.78 1.87-2.69 2.49-4.39 3.23 2.76 3.13 4.58 6.96 4.72 11.19-2.51 2.07-5.07 4.14-7.96 5.66l-.84-.01c-2.73-.39-5.45-.89-8.18-1.29l6.13-.96c3.96-2.48 4.87-8.69.51-11.26-4.04-2.79-8.81-.04-10.39 4.12-4.63-2.14-9.68-2.84-14.65-1.48-.37.04-1.11.14-1.48.19l-2.07-.43c2.68-5.26 7.84-7.17 13.51-6.05l2.37-2.21m13.3 1.67c-2.63 1.33 1.35 3.48 2.53 1.68.97-1.47-1.49-2.34-2.53-1.68z"/><path fill="#483b2e" d="M220.55 101.34l2.38 1.88 1.25.85c2.14 1.48 4.73 1.98 7.15 2.79l.72 1.01-.15 3.45-.28 1.88c-4.75-.53-7.37-4.84-10-8.29l-1.07-3.57z"/><path fill="#d1baa4" d="M103.46 101.46c2.09.38 4.3.7 5.92 2.21l-4.23.48-1.69-2.69z"/><path fill="#b2a088" d="M211.8 104.2l7.17.57c2.94 5.38 2.48 12.17 8.02 16.06l-2.95 3.81c4.66-.3 9.33-.19 13.99-.13-8.13 5.27-3.97 15.03-2.5 22.49l-1.82.13c-.47-5.5-4.81-9.76-4.79-15.41l-3.75-2.27-5.52 3.44-.43-3.69-3.54 1.89c-2-3.27-3.64-6.73-5.44-10.1a105.46 105.46 0 0 0-3.74-2.11c3.07-3.46 9.34-5.42 7.43-11.26l4.46-.92c-1.61-.75-3.23-1.49-4.89-2.12l-1.7-.38m.07 16.31c4.09-.14 8.19-.16 12.28-.04-1.12-1.43-2.31-2.81-3.53-4.16-3.52-.24-6.6 1.53-8.75 4.2z"/><path fill="#746451" d="M218.97 104.77l2.65.14c2.63 3.45 5.25 7.76 10 8.29l.28-1.88c2.67 2.81 6.95 3.14 8.84-.75 5.2-1.18 2.8 6.19 3.03 9.28l4.43.46c-.03 1.39-.01 2.79.01 4.19-1.91-.06-3.81.01-5.72.03l.22-3.26c-5.23-.39-10.48-.4-15.72-.44-5.54-3.89-5.08-10.68-8.02-16.06z"/><path fill="#b7a595" d="M87.27 106.12c1.04-.66 3.5.21 2.53 1.68-1.18 1.8-5.16-.35-2.53-1.68z"/><path fill="#50453b" d="M283.82 107.64l1.78-.11 1.97.51c1.97 1.27 3.77 2.79 5.57 4.28l3.9-1.31 3.69 4.14c-.5 1.73-1.11 3.5-.85 5.34l5.19 6.33c-3.17.59-6.46 1.66-7.59 5.03l-1.58-.92 3.62-7.12-2.07-2.09c-2.96-2.96-5.66-6.15-8.48-9.23l-1.27-1.39c-1.56.19-3.13.29-4.67.56.29-1.34.5-2.69.79-4.02z"/><path fill="#b2acb4" d="M232.05 107.87c1.52 4.13 5.13 4.18 8.69 2.7-1.89 3.89-6.17 3.56-8.84.75l.15-3.45z"/><path fill="#151311" opacity=".76" d="M276.05 113.96c2.08-2.64 4.39-5.38 7.77-6.32-.29 1.33-.5 2.68-.79 4.02-2.38.61-4.68 1.46-6.98 2.3z"/><path fill="#827365" d="M76.29 114.43c1.58-4.16 6.35-6.91 10.39-4.12 4.36 2.57 3.45 8.78-.51 11.26-4.72.16-9.18-2.09-9.88-7.14m3.96-.2l.1 3.27 3.69 1.33c2.32-2.16 1.41-5.27.46-7.86-1.5.97-2.91 2.08-4.25 3.26z"/><path d="M171.47 109.52c3.12-.91 5.69 1.68 7.89 3.47l-9.19.16 1.44 1.79-6.82-1.26c1.05 3.89 2.79 7.53 5.02 10.87l4.68-3.61c-1.86 3.36-1.5 7.16-.52 10.73-.14 6.21.2 12.46-.74 18.63-2.22.6-4.37 1.44-6.52 2.22 1.82.46 3.73.7 5.44 1.53 1.71 3.71-1.36 6.98-3.95 9.25-4.83.37-9.68.23-14.52.18l-.25-4.21c3.55-1.86 7.14-3.65 10.78-5.32l-7.93.75-2.44-6.06c2.07-6.01-1.47-12.75 2.06-18.34.13-1.57-.89-3.06-1.22-4.57-.66-4.85 2.1-8.53 6.47-10.25 3.52-1.85 6.66-4.4 10.32-5.96zm-133.3 5.6l6.65.02.86.02.74 2.96c3.38.84 6.43-.43 8.88-2.75l3.3.04-.36 8.7c-5.95 1.1-12.04.25-18.05.65l-2.21-.57.19-9.07zm190.25 47.84c.14-4.03-4.62-6.82-3.36-10.89 7.85 7.51 7.36 20.37-.37 27.77-.23-.44-.71-1.31-.95-1.74 2.95-4.5 5.72-9.53 4.68-15.14zM37.95 206.83l2.71-.66c5.69.08 11.38-.14 17.06.18a41.05 41.05 0 0 0 1.1.7l-.8 8.31c-3.68.05-7.36-.26-11.04-.26l-8.86.12-.17-8.39zm155.99 7.89c3.32-.85 6.75-1.35 10.19-1.09l-1.87 3.6c-2.46.61-5.03.58-7.51.05l-.81-2.56z" fill="#fff"/><path fill="#baa38a" d="M310.83 110.37l3.83 4.2c-.63 2.04-1.05 4.14-1.44 6.24-2.56 2.18-4.82 5.01-8.15 6.01l-5.19-6.33c5.61-.76 8.3-5.78 10.95-10.12z"/><path fill="#fff4db" d="M80.25 114.23c1.34-1.18 2.75-2.29 4.25-3.26.95 2.59 1.86 5.7-.46 7.86l-3.69-1.33-.1-3.27z"/><path fill="#796c61" d="M283.03 111.66c1.54-.27 3.11-.37 4.67-.56l1.27 1.39c-7.69.49-14.43 5.45-17 12.73l-5.97.91c1.68-1.84 3.04-3.95 4.4-6.04 1.99-1.94 3.94-3.93 5.65-6.13 2.3-.84 4.6-1.69 6.98-2.3z"/><path fill="#d5beac" d="M61.64 112.95c4.97-1.36 10.02-.66 14.65 1.48.7 5.05 5.16 7.3 9.88 7.14-2.03.37-4.08.66-6.13.96l8.18 1.29c-9.28.35-18.56-.26-27.84-.17.07-3.6.32-7.22 1.26-10.7m1.4 4.06c1.01 6.81 7.5 7.29 13.05 6.11-.85-6.2-7.74-9.58-13.05-6.11z"/><path fill="#c5af94" d="M271.97 125.22c2.57-7.28 9.31-12.24 17-12.73 2.82 3.08 5.52 6.27 8.48 9.23l-2.54.68c-.18 4.68-3.75 6.81-8.15 6.48l-.63 2.39c-.54 1.24-1.12 2.46-1.72 3.66-2.18.9-3.94 2.43-5.23 4.39l-2.4.85c.22-7.55-7.14-10.25-12.35-13.73.39-.07 1.18-.23 1.57-.31 1.98-.36 3.98-.63 5.97-.91z"/><path fill="#fefefe" d="M194.08 116.07c2.96-4.21 8.27-1.21 11.01 1.67-3.73.13-7.68.32-11.01-1.67z"/><path fill="#dbd7dc" d="M45.68 115.16l9.62.21c-2.45 2.32-5.5 3.59-8.88 2.75l-.74-2.96z"/><path fill="#f6dfcc" d="M63.04 117.01c5.31-3.47 12.2-.09 13.05 6.11-5.55 1.18-12.04.7-13.05-6.11z"/><path fill="#352c23" d="M149.8 117.7l1.64-3.08c.45 2.97 5.08 9.57-1.1 8.6l-.54-5.52z"/><path fill="#fdfdfe" d="M211.87 120.51c2.15-2.67 5.23-4.44 8.75-4.2l3.53 4.16c-4.09-.12-8.19-.1-12.28.04z"/><path fill="#ddc6ba" d="M89.06 123.83c2.89-1.52 5.45-3.59 7.96-5.66 2.66 1.6 5.21 3.41 7.28 5.74-5.08.18-10.16 0-15.24-.08z"/><path fill="#cbb49e" d="M147.74 118.96l1.1.91-1.63 4.21 2.15.37c-4.09 1.94-9.78.15-13.07 2.93-10.36-1.63-18.16 6.42-27.65 8.52-.28 4.27-.82 8.71-3.73 12.08l-3.2.65-2.94-.92-.2-1.74 5.18-1.32c-4.57-.42-7.4-4.14-11.15-6.21-3.86-.49-7.57 1.49-10.82 3.37-.12-5.34.01-10.68.18-16.01 1.41-.01 2.83.02 4.24.06l-3.34 2.06c2.05 1.17 4.21 2.13 6.41 2.98l.91 5.21c5.2-.66 8.26-6.51 13.8-5.61 8.91.66 17.03-3.68 25.61-5.05l-.69-1.95c4.19.54 9.04.95 12.09-2.59 2.38-.11 4.73-.65 6.75-1.95m-47.6 15.26c.15 3.23.8 6.4 1.84 9.46 4.16-1.76 6.25-5.8 4.15-10.04-2.02-.13-4.03.08-5.99.58z"/><path fill="#30271f" d="M174.54 123.82c1.61-1.94 3.37-3.76 5.24-5.45l4.97 2.19c-2.58 3.05-6.49 3.25-10.21 3.26z"/><path d="M182.49 126.38c1.31-3.33 4.54-5.35 7.24-7.48l5.43 9.52c3.56 6.57 3.9 14.29 4.27 21.59l-5.17 3.22 3.82 3.78c-2 2.07-4.02 4.13-6.14 6.08-4.47 1.56-9.25 1.57-13.92 1.31.77-6.13 3.22-11.96 3.3-18.19.04-6.66 2.69-13.18 1.17-19.83zm18.56 42.32c6.9-3.43 18.02.78 16.71 9.6 2.54.19 5.5.28 5.68 3.55l-.44 1.07c-1.83 4.46-2 9.35-3.03 14.02-.51 2.08-1.1 4.14-1.63 6.22l-2.53-2.78-4.94 8.15-3.43-.17c-.97-5.85-4.23-11.22-3.37-17.37.78-5.79-2.67-12.36 1.14-17.47l-4.16-4.82zM65.67 225.91l.97-.06c4.03.1 8.09.24 12.02 1.18 3.27 2.07 7.13 2.87 10.48 4.75 1.29 7.04.26 14.3.52 21.42-5.55-.02-9.94 3.97-9.77 9.63l-5.13-1.24c2.97-9.3-7.18-14.71-14.93-15.36-.78-3.17-1.52-6.34-2.19-9.52 4.13-2.49 4.64-7.68 8.03-10.8zm45.78 27.66c3.54-3.24 8.27-4.21 12.77-5.37 4.55 6.41-3.98 9.9-8.36 12.75l-3.97-4.4-.44-2.98z" fill="#fffffd"/><path fill="#a68f7d" d="M199.92 126.11c2.37-2.24 4.61-4.62 6.58-7.23l3.74 2.11c-2.72 2.13-5.63 4.53-5.76 8.3-1.55 0-3.11-.01-4.67-.02l.11-3.16z"/><path fill="#292521" opacity=".59" d="M257.97 127.26c4.99-.63 8.81-3.97 12.43-7.17-1.36 2.09-2.72 4.2-4.4 6.04l-1.57.31c-2.14.38-4.31.59-6.46.82z"/><path fill="#231f1e" d="M224.04 124.64l2.95-3.81c5.24.04 10.49.05 15.72.44l-.22 3.26a221.03 221.03 0 0 1-4.46-.02c-4.66-.06-9.33-.17-13.99.13z"/><path fill="#a38c77" d="M122.34 123.85c1.93-1.66 4.36-.74 6.56-.35l.69 1.95c-8.58 1.37-16.7 5.71-25.61 5.05-5.54-.9-8.6 4.95-13.8 5.61l-.91-5.21c-2.2-.85-4.36-1.81-6.41-2.98l3.34-2.06c9.44.62 18.91.62 28.36.56 2.83.08 5.46-1.04 7.78-2.57z"/><path fill="#8b7c6e" d="M294.91 122.4l2.54-.68 2.07 2.09-3.62 7.12 1.58.92c4.63 3.34 8.43 8.87 9.36 14.57l-1.2-3.3c-4.87-1.38-9.9-1.9-14.89-2.59l.01 4.17c-1.17-1.53-2.19-3.17-3.21-4.8.09-2.94-.38-5.87-1.42-8.63l.63-2.39c4.4.33 7.97-1.8 8.15-6.48z"/><path fill="#3d362e" d="M58.24 124.11l2.14-.46c9.28-.09 18.56.52 27.84.17l.84.01c5.08.08 10.16.26 15.24.08 6.01-.2 12.03-.43 18.04-.06-2.32 1.53-4.95 2.65-7.78 2.57-9.45.06-18.92.06-28.36-.56l-4.24-.06c-6.36.51-13.04-1.31-19.12 1.22l-2.97-.09c-6.5-1.42-13.64.97-19.68-2.17 6.01-.4 12.1.45 18.05-.65z"/><path fill="#fffbdf" d="M149.36 124.45l2.88-.04 1.19 5.66 1.25-4.34c.33 1.51 1.35 3 1.22 4.57-3.53 5.59.01 12.33-2.06 18.34l-.4-1.09-.45-1.69c-6.19 2.56-13.09 1.21-19.61 1.75-4.67-1.85-9.62-.9-14.45-.5l-1.06.04c-3.75-.43-7.56-.48-11.24.5l-1.72.33c2.91-3.37 3.45-7.81 3.73-12.08 9.49-2.1 17.29-10.15 27.65-8.52 3.29-2.78 8.98-.99 13.07-2.93m-7.15 8.86c-3.61 1.24-4.03 6.14-2.67 9.2 2.67 3.73 9.52 4 11.45-.63 2.49-5.18-3.64-10.98-8.78-8.57z"/><path fill="#8c7763" d="M238.03 124.51l4.46.02 5.72-.03c1.7.77 3.29 1.77 4.86 2.79l4.9-.03-5.16.67-1.74.19.49 10.51 5.41 1.47.98.09 2.02 3.72-8.95-2.05-.81 6.55-6.38 2.41c-.9.01-1.79 0-2.68-.04-1.14 1.45-1.81 3.49-3.47 4.42-2.31.21-3.94-1.94-5.74-3.05l-.16 2.89c-1.2-1.68-2.02-3.59-2.76-5.51l4.92-1.27-9.97-.32 1.09 4.13c-1.26 4.07 3.5 6.86 3.36 10.89 1.04 5.61-1.73 10.64-4.68 15.14-1.97-3.43-2.69-7.36-3.68-11.15l-21.51.35-.18 4.74-2.65-1.94.79-2.88c-6.33-.47-12.68-.86-19.03-.42.28 3.26 1.04 6.44 2.18 9.5 1.06 3.07 1.54 6.31 1.67 9.55l-.59 2.22c-4.83-5.48-3.24-13.71-7.06-19.84l-6.89-.53c-4.29-.33-8.6-.12-12.89.19-.48 4.14-.72 8.33-.31 12.5l-1.55 4.17-4.68-.59c-.37-11.75.8-23.62-.62-35.3-.31 11.7-.39 23.42-.2 35.13l-7.86.09c.38-11.71.76-23.61-.84-35.23-1.92 11.77-1.04 23.8-.57 35.67l-7.55-.47c-.22-11.93-.1-23.86.19-35.77l3.47-.48c6.52-.54 13.42.81 19.61-1.75l.45 1.69c-.17 3.9-.36 7.82-.01 11.72l.25 4.21c4.84.05 9.69.19 14.52-.18 1.85-.21 3.69-.49 5.54-.76.56-3.26.93-6.54 1.34-9.82 3.4-2.24 3.06-6.83 5.4-9.88l.84 3.37c-.08 6.23-2.53 12.06-3.3 18.19 4.67.26 9.45.25 13.92-1.31 2.81-.86 5.49-2.06 8.1-3.4l-1.06 4.71c7 1.06 14.09.48 21.13.56.95-3.32 1.71-6.7 2.3-10.11.67-2.92.9-5.96.1-8.88l1.89-1.29.54 2.5c2.92.14 5.85.16 8.77-.05l1.82-.13c-1.47-7.46-5.63-17.22 2.5-22.49m-105.54 24.58c-.21 11.29-.27 22.58-.06 33.87l1.85-.69c.29-10.84.28-21.69.01-32.53l-1.8-.65m8.96-.15c-.22 10.36-.2 20.73.04 31.09-.09.96.27 1.71 1.08 2.25 1.38-9.35.72-18.86.82-28.29-.31-1.74.46-4.68-1.94-5.05z"/><path fill="#f0d5b7" d="M195.16 128.42l4.78-3.11-.02.8-.11 3.16 4.67.02 1.83 5.4-2.2 2.46-.27-3.05-2.55 1.4c-.31 5.71 3.57 13.01-1.86 17.3-.35 1.43-.7 2.88-1.35 4.21l-3.82-3.78 5.17-3.22c-.37-7.3-.71-15.02-4.27-21.59z"/><path fill="#97816d" d="M62.84 127.02c6.08-2.53 12.76-.71 19.12-1.22-.17 5.33-.3 10.67-.18 16.01 3.25-1.88 6.96-3.86 10.82-3.37 3.75 2.07 6.58 5.79 11.15 6.21l-5.18 1.32.2 1.74-1.35-.37c-6.1-.97-12.24.38-18.36.5a298.24 298.24 0 0 0-.33 9.45l-1.08.02-2.25-.16.04-9.12c3.66-.64 7.36-.84 11.07-.89l-5.02-2.68-.15-7.13c-.11-2.97-.4-5.93-.73-8.89-5.95.14-12.05.66-17.77-1.42z"/><path opacity=".88" d="M59.87 126.93l2.97.09c5.72 2.08 11.82 1.56 17.77 1.42.33 2.96.62 5.92.73 8.89-7.16.44-14.35-.07-21.32-1.8l-1.24-.56 1.09-8.04z"/><path fill="#ead1b2" d="M257.97 127.26l6.46-.82c5.21 3.48 12.57 6.18 12.35 13.73-6.28-.34-12.55.49-18.83.02l-.98-.09c.06-4.43-1.39-8.71-4.16-12.17l5.16-.67z"/><path fill="#c9b293" d="M251.07 128.12l1.74-.19c2.77 3.46 4.22 7.74 4.16 12.17-1.84-.39-3.63-.92-5.41-1.47l-.49-10.51z"/><path fill="#dec5a7" d="M225.17 129.45l3.75 2.27c-.02 5.65 4.32 9.91 4.79 15.41-2.92.21-5.85.19-8.77.05l-.54-2.5-1.89 1.29c-1.27-4.29-2.44-8.62-2.86-13.08l5.52-3.44z"/><path fill="#ead1b5" d="M173.97 131.67c1.65 5.9 3.06 11.9 3.31 18.05-1.36.16-2.71.36-4.05.58.94-6.17.6-12.42.74-18.63z"/><path fill="#111112" opacity=".91" d="M286.13 131.27c1.04 2.76 1.51 5.69 1.42 8.63l-.05 3.18-.86 5.84c-1.87-.39-3.67-.98-5.46-1.61l-1.18-2.89c1.31-3.23 2.82-6.38 4.41-9.49.6-1.2 1.18-2.42 1.72-3.66z"/><path fill="#f1d9c3" d="M100.14 134.22c1.96-.5 3.97-.71 5.99-.58 2.1 4.24.01 8.28-4.15 10.04-1.04-3.06-1.69-6.23-1.84-9.46z"/><path fill="#928374" d="M142.21 133.31c5.14-2.41 11.27 3.39 8.78 8.57-1.93 4.63-8.78 4.36-11.45.63-1.36-3.06-.94-7.96 2.67-9.2m.99 8.43h3.58c.65-1.95 1.41-5.55-1.76-5.31-3.3-.25-2.66 3.28-1.82 5.31z"/><path fill="#b2a396" d="M201.29 135.5l2.55-1.4.27 3.05c.4 6.1.04 12.23-.64 18.29l4.29 1.97c-2.78 1.51-5.45 3.34-7.03 6.17 7.96.57 17.42-1.19 21.68-8.73-.59 3.41-1.35 6.79-2.3 10.11-7.04-.08-14.13.5-21.13-.56l1.06-4.71c-2.61 1.34-5.29 2.54-8.1 3.4 2.12-1.95 4.14-4.01 6.14-6.08.65-1.33 1-2.78 1.35-4.21 5.43-4.29 1.55-11.59 1.86-17.3z"/><path fill="#786859" d="M279.18 139.32c1.29-1.96 3.05-3.49 5.23-4.39-1.59 3.11-3.1 6.26-4.41 9.49-1.35-1.19-2.45-2.62-3.22-4.25l2.4-.85z"/><path d="M143.2 141.74c-.84-2.03-1.48-5.56 1.82-5.31 3.17-.24 2.41 3.36 1.76 5.31h-3.58zm36.39 25.83c8.01-.87 16.83 2.25 20.57 9.81l-5.43 1.44 3.54.95c-1.64 7.72 1.74 16.29-3.33 23.16a368.27 368.27 0 0 0-4.92 9.46l-4.07-1.33c-2.08-1.9-4.11-4.23-3.97-7.25.6-2.08 1.36-4.1 2.07-6.14-1.05-1.98-1.96-4.07-2.26-6.31l-.46-5.51c-.13-3.24-.61-6.48-1.67-9.55l3.31-2.26-3.23-3.14-.15-3.33z" fill="#fffff9"/><path fill="#b6a48b" d="M257.95 140.19c6.28.47 12.55-.36 18.83-.02.77 1.63 1.87 3.06 3.22 4.25.41.95.8 1.92 1.18 2.89.42 3.48.38 6.99.41 10.48a85.29 85.29 0 0 1-10.96.09c-4.6-.21-9.21-.18-13.8 0 6.46-3.17 13.25-.84 20-.8l.56-2.45.22-1.01 1.35-6.12c-7.34-1.08-14.7-2.16-22.11-2.65l5.39 2.88c-2.59 1.14-5.22 2.42-7.07 4.64l-1.35-4.97-3.61 1.01.81-6.55 8.95 2.05-2.02-3.72z"/><path fill="#493c31" d="M287.55 139.9l3.21 4.8 1.5 1.69.84 6.82c2.85.15 5.62-.55 8.22-1.69l4.1 2.41.12 4.18-5.91 2.34c-5.51.82-11.03-.46-16.54-.13-4.86 1.1-7.65 8.45-2.25 10.9l-1.13 3.53-3.54.07c-2.24-.35-4.15-1.55-5.75-3.09a141.17 141.17 0 0 1 4.82 1.51c.48-.72.95-1.46 1.41-2.19.32-2.77.39-5.57.38-8.35-1.58-1.18-3.41-1.96-5.21-2.73l-1.19-2.09a85.29 85.29 0 0 0 10.96-.09c-.03-3.49.01-7-.41-10.48 1.79.63 3.59 1.22 5.46 1.61l4.06.06a48.68 48.68 0 0 0-3.2-5.9c.05-1.06.04-2.13.05-3.18m-.8 17.84c3.56.48 7.17.68 10.75.26-2.86-1.95-8.74-4.29-10.75-.26z"/><path fill="#edd5bb" d="M290.75 140.53c4.99.69 10.02 1.21 14.89 2.59l1.2 3.3c-2.03.88-4.21 1.38-6.43 1.36-2.6-.99-5.38-1.31-8.15-1.39l-1.5-1.69-.01-4.17z"/><path fill="#070605" opacity=".35" d="M286.64 148.92l.86-5.84a48.68 48.68 0 0 1 3.2 5.9l-4.06-.06z"/><path fill="#d7bfa6" d="M256.85 144.85c7.41.49 14.77 1.57 22.11 2.65l-1.35 6.12-.92-4.05-4.53 2.54 5.23 2.52c-.17.82-.36 1.63-.56 2.45-6.75-.04-13.54-2.37-20 .8-1.65.11-3.29.18-4.92.23l-.79-4.99 2.71 2.66 1.34-3.41c1.85-2.22 4.48-3.5 7.07-4.64l-5.39-2.88z"/><path fill="#eed9cc" d="M118.93 147.11c4.83-.4 9.78-1.35 14.45.5l-3.47.48c-.29 11.91-.41 23.84-.19 35.77l7.55.47c-.47-11.87-1.35-23.9.57-35.67 1.6 11.62 1.22 23.52.84 35.23-.51 1.09-1.08 2.15-1.63 3.21-2.92-1.04-5.81-2.18-8.81-2.98.29-12.13-.39-24.23-.12-36.35l-2.72.08-.1 35.89-3.26 2.94c-2.76-.43-5.65-1.17-8.36-.12-1.05.44-2.07.91-3.09 1.42 1.96-3.02 4.44-6.14 3.89-9.98-.4-10.3.23-20.6-.07-30.9l-2.52 1.03c-.96 11.41.64 23.06-1.04 34.35-.32-2.22-.51-4.45-.48-6.69.55-9.28-.14-18.57-.03-27.86l-3.71-.28c3.68-.98 7.49-.93 11.24-.5-2.27 1.95-1.49 5.22-1.68 7.86.3 9.63.48 19.26.13 28.89l3.01.57c-.39-12.46-.56-24.9-.4-37.36m1.97.88l-.26 36.36 3.01-.79c-.65-12.06.27-24.14-.28-36.19l-2.47.62z"/><path fill="#dec6b3" d="M79.06 147.84c6.12-.12 12.26-1.47 18.36-.5l.33 1.24c-4.37 1.14-8.9.99-13.34 1.56l.01 3.93c1.25-.5 2.49-1.01 3.7-1.59 2.94 1.7 6.24 2.5 9.58 2.96l-1.35 1.25c-5.87.41-11.76.15-17.62.6a298.24 298.24 0 0 1 .33-9.45z"/><path fill="#f8f2f5" d="M250.21 148.41l3.61-1.01 1.35 4.97-1.34 3.41-2.71-2.66.79 4.99-3.77.09-4.47-3.12.16-4.26c2.18-.66 4.25-1.62 6.38-2.41z"/><path fill="#615954" d="M292.26 146.39c2.77.08 5.55.4 8.15 1.39l4.74 2.65.27 3.5-4.1-2.41c-2.6 1.14-5.37 1.84-8.22 1.69l-.84-6.82z"/><path fill="#6c5e51" d="M97.42 147.34l1.35.37 2.94.92.42 2.25c-1.65 9.38-2.01 19.12.41 28.42.37-3.37.52-6.75.67-10.13.45-1.17.96-2.32 1.47-3.47.43 4.94.47 9.91-.05 14.85-2.73.21-5.35 1.08-7.95 1.89l-2.86-.81c-1.98 1.15-3.94 2.61-3.78 5.18-2.29 2.26-3.94 5.04-4.62 8.2-.96-2.43-1.89-4.87-2.97-7.24-.79 5.12-.57 10.3-.48 15.46l-.45 1.57c-5.24.15-10.48-.21-15.71.13 5.07-1.23 10.32-.53 15.48-.63l.18-18.71c2.31-.2 4.63-.46 6.9-.95-4.31-.88-8.73-.95-13.11-1.02-.06-3.09-.07-6.19-.04-9.28 5.69-.6 11.42-.53 17.14-.47l.1-15.11a386.4 386.4 0 0 1-14.81-1.45l1.08-.02c5.86-.45 11.75-.19 17.62-.6l1.35-1.25c1.5-2.11.72-4.62.05-6.86l-.33-1.24m.19 10.36c-1.18 5.12-1.29 10.46-.22 15.61 2.42-4.8 2.49-10.74.22-15.61m-17.98 25.99c4.18-.53 8.87-.77 11.71-4.34 2.9-.2 5.38-1.69 7.65-3.39-5.96-1.19-12.1.22-17.98-1.55-4.42.46-1.71 6.44-1.38 9.28z"/><path fill="#88735f" d="M101.71 148.63l3.2-.65 1.72-.33 3.71.28c-.11 9.29.58 18.58.03 27.86l-1.87-.19-.52 5.36-3.35-.41c.52-4.94.48-9.91.05-14.85-.51 1.15-1.02 2.3-1.47 3.47.1-6.11.44-12.31-1.08-18.29l-.42-2.25m4.64 31.36c1.91-7.02 1.59-15.82.63-23.45-3.27 6.92-.83 15.84-.63 23.45z"/><path fill="#6a5947" d="M111.89 148.13l2.52-1.03c.3 10.3-.33 20.6.07 30.9.55 3.84-1.93 6.96-3.89 9.98l-2.11 1.25c-.03-1.33-.12-2.65-.22-3.97.87-.92 1.76-1.83 2.59-2.78 1.68-11.29.08-22.94 1.04-34.35z"/><path fill="#927d63" d="M116.19 155.01c.19-2.64-.59-5.91 1.68-7.86l1.06-.04c-.16 12.46.01 24.9.4 37.36l-3.01-.57c.35-9.63.17-19.26-.13-28.89z"/><path fill="#97806a" d="M120.9 147.99l2.47-.62c.55 12.05-.37 24.13.28 36.19l-3.01.79.26-36.36z"/><path fill="#947c66" d="M125.4 147.85l2.72-.08c-.27 12.12.41 24.22.12 36.35l-2.94-.38.1-35.89z"/><path fill="#e1c9b0" d="M153.44 147.55l.4 1.09 2.44 6.06 7.93-.75c-3.64 1.67-7.23 3.46-10.78 5.32-.35-3.9-.16-7.82.01-11.72z"/><path fill="#4b4955" d="M223.97 147.94l9.97.32-4.92 1.27c.74 1.92 1.56 3.83 2.76 5.51 7.83 8.09 3.05 19.84-2.95 27.41 2.9.31 5.83.16 8.67-.54l2.28 1.35c-5.5.39-11.01.58-16.49 1.2l-.29-1.54.44-1.07c.39-.69.81-1.36 1.25-2.01 7.73-7.4 8.22-20.26.37-27.77-.34-1.38-.72-2.76-1.09-4.13z"/><path fill="#fffbe8" d="M84.41 150.14c4.44-.57 8.97-.42 13.34-1.56.67 2.24 1.45 4.75-.05 6.86-3.34-.46-6.64-1.26-9.58-2.96-1.21.58-2.45 1.09-3.7 1.59l-.01-3.93z"/><path fill="#fae2d6" d="M132.49 149.09l1.8.65c.27 10.84.28 21.69-.01 32.53l-1.85.69c-.21-11.29-.15-22.58.06-33.87z"/><path fill="#ecd8cd" d="M141.45 148.94c2.4.37 1.63 3.31 1.94 5.05-.1 9.43.56 18.94-.82 28.29-.81-.54-1.17-1.29-1.08-2.25-.24-10.36-.26-20.73-.04-31.09z"/><path fill="#fffffa" d="M146.74 148.67c1.42 11.68.25 23.55.62 35.3l4.68.59-1.6 3.92c-2.59-2.21-6.57-4.08-9.66-1.67-4.46 2.73-2.54 11.2 3.15 10.59 3.18.83 5.5-1.55 7.42-3.69 1.27 4.19 1.41 8.6.47 12.88l-5.08 1.53c-1.83 2.96-3.24 6.3-2.55 9.85-3-.31-6.16-.68-8.56-2.69-3.35-2.95-9.78-3.24-12.1 1.09-2.31 3.67-6.98 7.68-4.54 12.42 2.53 7.06 10.86 8.87 14.34 15.13-3.9 1.87-8.2 1.14-12.34.96-5.95 1.23-11.23 5.65-12.9 11.61-5.56-1.64-11.62-1.61-16.64-4.84-.67-8.07-.31-16.18.01-24.27l5.21-.54c-1.18-1.32-2.75-2.12-4.33-2.83l1.49-5.47c.71-4.63 3.89-7.83 8.29-9.1l-4.5-1.16c.84-.39 1.68-.76 2.53-1.12a137.99 137.99 0 0 1 9.54.15c3.9 1.2 7.95.56 11.92.2 7.75-.21 15.52.88 22.89 3.31-1.42-2.15-3.77-3.24-6-4.29l-.4-2.83-.48-3.7c-7 .32-14.02-.3-20.81-2.06-1.55-1.58.03-3.94-.09-5.85-1.36-1.04-3.19.17-4.71.25l1.67-5.78c2.71-1.05 5.6-.31 8.36.12l3.26-2.94 2.94.38c3 .8 5.89 1.94 8.81 2.98.55-1.06 1.12-2.12 1.63-3.21l7.86-.09c-.19-11.71-.11-23.43.2-35.13m-42.93 89.56c-1.15-3.77-.67-7.51 2.04-10.46-4.89.74-6.3 7.94-2.04 10.46z"/><path fill="#c2ac96" d="M241.15 150.78l2.68.04-.16 4.26 4.47 3.12.74 3.73c.14 2.5.06 5.01-.06 7.51l-.36 5.25 7.74.03c.75 4.07.3 9.31 4.11 11.95 7.09.98 13.95-1.52 20.72-3.22l.05 2.78c-2.36 1.13-4.82 2.93-7.55 2.1-7.18-1.66-14.55.04-21.8-.78l-.98 4.68c-3.51-3.99-8.68-4.93-13.57-3.02-3.25 5.72-.79 13.51-6.3 18.05l-1.47-.21c1.29-3.55 2.81-7.34.8-10.96l4.16-3.64a104.66 104.66 0 0 1-.43-7.51l-8.51-.08c2.66 5.09-.9 9.87-5.46 12.08 1.03-4.67 1.2-9.56 3.03-14.02l.29 1.54c5.48-.62 10.99-.81 16.49-1.2l-2.28-1.35c-2.84.7-5.77.85-8.67.54 6-7.57 10.78-19.32 2.95-27.41l.16-2.89c1.8 1.11 3.43 3.26 5.74 3.05 1.66-.93 2.33-2.97 3.47-4.42m-2.06 7.22l.13 16.8 2.94.12c.3-5.62-.05-11.28.71-16.89l-3.78-.03m5.15.04c.36 5.52.43 11.06.14 16.58l2.46-.05c-1.14-5.44-1.6-11.04.03-16.43l-2.63-.1m-3 20.33l.43 2.91 8.85 3.25c.42-.34 1.28-1 1.71-1.33l1.51 2.6c.56-2.67.7-5.41.24-8.12-4.26.04-8.55-.25-12.74.69z"/><path fill="#fdf8f6" d="M272.16 152.11l4.53-2.54.92 4.05-.22 1.01-5.23-2.52z"/><path fill="#c1aa98" d="M102.13 150.88c1.52 5.98 1.18 12.18 1.08 18.29-.15 3.38-.3 6.76-.67 10.13-2.42-9.3-2.06-19.04-.41-28.42z"/><path fill="#7d675a" d="M286.75 157.74c2.01-4.03 7.89-1.69 10.75.26-3.58.42-7.19.22-10.75-.26z"/><path fill="#c4ad9a" d="M106.35 179.99c-.2-7.61-2.64-16.53.63-23.45.96 7.63 1.28 16.43-.63 23.45z"/><path fill="#998573" d="M97.61 157.7c2.27 4.87 2.2 10.81-.22 15.61-1.07-5.15-.96-10.49.22-15.61z"/><path fill="#735848" d="M239.09 158l3.78.03c-.76 5.61-.41 11.27-.71 16.89l-2.94-.12-.13-16.8z"/><path fill="#554033" d="M244.24 158.04l2.63.1c-1.63 5.39-1.17 10.99-.03 16.43l-2.46.05c.29-5.52.22-11.06-.14-16.58z"/><path fill="#5d4f44" d="M248.14 158.2l3.77-.09 4.92-.23c4.59-.18 9.2-.21 13.8 0l1.19 2.09c1.8.77 3.63 1.55 5.21 2.73-9.4-.12-18.74-1.65-28.15-.77-.22-1.25-.48-2.49-.74-3.73z"/><path fill="#87796c" d="M280.84 171.22c-5.4-2.45-2.61-9.8 2.25-10.9 5.51-.33 11.03.95 16.54.13l.29 6.88c4.62.2 9.31.6 13.53 2.64-4.25.02-8.5-.24-12.75-.02l-.7 2.5-.86 1.12c-3.31.26-6.63.14-9.94.45-5.67.37-8.28 5.78-7.75 10.91-.1.33-.28.97-.37 1.3l-.05-2.78-.04-1.36c-.03-2.5-.03-5.09-1.28-7.34l1.13-3.53z"/><path fill="#978373" d="M248.88 161.93c9.41-.88 18.75.65 28.15.77.01 2.78-.06 5.58-.38 8.35l-2.27-2.17c-8.3 1.78-17.3 3.21-25.56.56.12-2.5.2-5.01.06-7.51m1.31 3.53l.91 2.96c6.84-1.18 14.54 2.16 20.66-1.81-6.58-4.03-14.53-3.69-21.57-1.15z"/><path fill="#c9b398" d="M250.19 165.46c7.04-2.54 14.99-2.88 21.57 1.15-6.12 3.97-13.82.63-20.66 1.81l-.91-2.96z"/><path fill="#baa89a" d="M177.48 166.8c6.35-.44 12.7-.05 19.03.42l-.79 2.88 2.65 1.94.18-4.74c7.17.07 14.34-.27 21.51-.35.99 3.79 1.71 7.72 3.68 11.15l.95 1.74c-.44.65-.86 1.32-1.25 2.01-.18-3.27-3.14-3.36-5.68-3.55 1.31-8.82-9.81-13.03-16.71-9.6 1.35 1.63 2.75 3.23 4.16 4.82-3.81 5.11-.36 11.68-1.14 17.47-.86 6.15 2.4 11.52 3.37 17.37-1.05-1.12-2.05-2.28-3.05-3.44l-4.06.41c2.55 3.22 7.31 6.12 6.14 10.85l-4.21 1.05 1.87-3.6c-3.44-.26-6.87.24-10.19 1.09l.81 2.56c-3.32-1.45-6.26-3.65-8.8-6.22 1.35.47 2.71.89 4.07 1.33l4.92-9.46 3.23.81c1.16-7.13 5.3-14.52 2.37-21.7l.97-1.88-3.24-.39c-1.19-.29-2.36-.62-3.54-.95l5.43-1.44c-3.74-7.56-12.56-10.68-20.57-9.81l.15 3.33 3.23 3.14-3.31 2.26c-1.14-3.06-1.9-6.24-2.18-9.5z"/><path fill="#6e6c71" opacity=".73" d="M299.92 167.33c9.7-.19 19.39.16 29.09.09 4.28-.17 8.57-.2 12.86.1l.21 2.35-.86.15-2.18-.03 2.21-2.04c-9.38.17-19.14-1.13-28.27 1.06 6.71 1 13.52-.05 20.25.82-1.58.04-3.15.15-4.72.21-5.02-.01-10.04.09-15.06-.07-4.22-2.04-8.91-2.44-13.53-2.64z"/><path fill="#c8b4a1" d="M166.79 167.7l6.89.53c3.82 6.13 2.23 14.36 7.06 19.84l.59-2.22.46 5.51-3.98 1.12c-1.68 4.65-3.63 10.01-1.02 14.71l4.14.25-7.1.05c2.77 3.06 5.51 6.15 8.06 9.4-1.97 2.36-3.84 4.81-5.92 7.07l-1.71 1.58-2.25-1.85-2.03-1.59c3.53.56 6.98-.57 9.02-3.57-3.16-4.02-7.87-2.92-11.94-1.17l3.47.53-2.06 3.3c-3.18-1.71-6.4-3.46-8.84-6.2 1.99-.01 3.96.25 5.92.61 1.86-2.63 3.44-5.5 4.05-8.69l3.16.75c-.78-8.84 7.79-19.64-.64-26.66-1.07-.68-2.16-1.31-3.24-1.94l6.48.6c1.22-5.89-3.95-9.71-8.57-11.96z"/><path fill="#58483c" d="M248.82 169.44c8.26 2.65 17.26 1.22 25.56-.56l2.27 2.17-1.41 2.19a141.17 141.17 0 0 0-4.82-1.51c1.6 1.54 3.51 2.74 5.75 3.09l-8.59-.12c-3.79-.03-7.58.01-11.38.02-2.58.01-5.16-.01-7.74-.03l.36-5.25z"/><path fill="#ebe9f0" opacity=".96" d="M312.98 169.01c9.13-2.19 18.89-.89 28.27-1.06l-2.21 2.04-5.81-.16c-6.73-.87-13.54.18-20.25-.82z"/><path fill="#0e0d0e" opacity=".84" d="M300.7 169.95c4.25-.22 8.5.04 12.75.02 5.02.16 10.04.06 15.06.07-8.47 4.84-19.14.74-28.51 2.41l.7-2.5z"/><path fill="#4a3e32" d="M281.45 184.93c-.53-5.13 2.08-10.54 7.75-10.91 4.51 3.35 10.62.93 15.81 1.97l.07 1.46-2.27 1.6-.56 5.12c-2.49-1.46-4.78-4.47-7.92-3.86-2.02 1.68-3.6 3.82-5.21 5.87-2.57-.38-5.12-.78-7.67-1.25z"/><path fill="#f6ddc4" d="M79.63 183.69c-.33-2.84-3.04-8.82 1.38-9.28 5.88 1.77 12.02.36 17.98 1.55-2.27 1.7-4.75 3.19-7.65 3.39-2.84 3.57-7.53 3.81-11.71 4.34z"/><path fill="#3e3a39" d="M108.5 175.6l1.87.19c-.03 2.24.16 4.47.48 6.69l-2.59 2.78.22 3.97-.14 1.82c-6.53 3.89-15.94 9.8-22.92 3.96.68-3.16 2.33-5.94 4.62-8.2 2.27-1.36 4.47-2.84 6.64-4.37 2.6-.81 5.22-1.68 7.95-1.89 1.12.12 2.24.26 3.35.41l.52-5.36m-12.48 17.28c3.04 2.53 6.46-.36 5.7-3.82-2.61-2.05-6.94.57-5.7 3.82z"/><path fill="#f4dabf" d="M256.2 174.72l11.38-.02 2.6 3.5c4.15-.8 8.21.46 10.81 3.89l.04 1.36c-6.77 1.7-13.63 4.2-20.72 3.22-3.81-2.64-3.36-7.88-4.11-11.95z"/><path fill="#c4ad98" d="M267.58 174.7l8.59.12 3.54-.07c1.25 2.25 1.25 4.84 1.28 7.34-2.6-3.43-6.66-4.69-10.81-3.89l-2.6-3.5z"/><path fill="#fbf8f9" d="M241.24 178.37c4.19-.94 8.48-.65 12.74-.69.46 2.71.32 5.45-.24 8.12l-1.51-2.6-1.71 1.33-8.85-3.25-.43-2.91z"/><path fill="#7d6c5d" d="M302.81 179.05l2.27-1.6c.13 3.49.42 6.97 1.05 10.41l-3.65 6.33c-2.37.84-4.72 1.75-7.04 2.69l1.48 4.35-.79.46-1.45.83.16 2.15-2.36 2.27-1.96-.95c-1.32-.62-2.64-1.23-3.92-1.93.11-2.57.19-5.14.13-7.71-.35-3.56-.15-7.39 2.39-10.17 1.61-2.05 3.19-4.19 5.21-5.87 3.14-.61 5.43 2.4 7.92 3.86.15-1.71.39-3.41.56-5.12m-13.34 7.71l.64 3.87c4.95-.41 9.89-.91 14.77-1.82l.1-3.87c-5.21-.42-10.48.49-15.51 1.82z"/><path fill="#edd3b7" d="M198.27 179.77l3.24.39-.97 1.88c2.93 7.18-1.21 14.57-2.37 21.7l-3.23-.81c5.07-6.87 1.69-15.44 3.33-23.16z"/><path fill="#d4bea0" d="M153.59 180.39c2.72 6.01-.7 12.41.2 18.64.29 5.86 4.47 10.41 5.84 15.96-2.61-2.01-4.77-4.48-6.91-6.96l-3.01.01-2.97.08 5.08-1.53c.94-4.28.8-8.69-.47-12.88-.39-1.73-.68-3.48-.91-5.23.56-1.3 1.08-2.61 1.6-3.92a161 161 0 0 0 1.55-4.17z"/><path fill="#fdebcc" d="M172.12 181c8.43 7.02-.14 17.82.64 26.66l-3.16-.75c.52-2.43 1.05-4.88 2.08-7.15 3.18-5.85.45-12.53.44-18.76z"/><path fill="#e0dce3" d="M90.04 186.81c-.16-2.57 1.8-4.03 3.78-5.18l2.86.81-6.64 4.37z"/><path fill="#fae2c4" d="M225.43 184.86l8.51.08.43 7.51-4.16 3.64c2.01 3.62.49 7.41-.8 10.96-1.48-.36-2.94-.79-4.39-1.22-2.3-.7-4.63-1.39-6.68-2.67l1.63-6.22c4.56-2.21 8.12-6.99 5.46-12.08z"/><path fill="#020202" opacity=".85" d="M281.45 184.93l7.67 1.25c-2.54 2.78-2.74 6.61-2.39 10.17-2.42-1.85-4.6-3.98-6.56-6.3a27.57 27.57 0 0 1 .91-3.82l.37-1.3z"/><path fill="#e8d0b7" d="M289.47 186.76c5.03-1.33 10.3-2.24 15.51-1.82l-.1 3.87c-4.88.91-9.82 1.41-14.77 1.82l-.64-3.87z"/><path fill="#7a6c5f" d="M140.78 186.81c3.09-2.41 7.07-.54 9.66 1.67l.91 5.23c-1.92 2.14-4.24 4.52-7.42 3.69-5.69.61-7.61-7.86-3.15-10.59m2.06 7.68l3.29.08 1.6-3.65-2.66-2.84c-3.23.7-4.46 3.88-2.23 6.41z"/><path fill="#756456" d="M273.53 188.33c2.73.83 5.19-.97 7.55-2.1a27.57 27.57 0 0 0-.91 3.82l-.02 1.1c-2.68.61-5.43.39-8.14.36-5.82.71-11.59 1.81-17.42 2.5-1.33-.47-2.63-1.05-3.84-1.78l.98-4.68c7.25.82 14.62-.88 21.8.78z"/><path fill="#fff0d2" d="M110.59 187.98l3.09-1.42-1.67 5.78c1.52-.08 3.35-1.29 4.71-.25.12 1.91-1.46 4.27.09 5.85 6.79 1.76 13.81 2.38 20.81 2.06l.48 3.7c-9.05.62-18.22-.38-26.52-4.23-.69.69-1.39 1.37-2.1 2.04l-1.72.02c-.05-3.5.17-7 .58-10.48l.14-1.82 2.11-1.25z"/><path fill="#ab9180" d="M82.45 187.77l2.97 7.24c6.98 5.84 16.39-.07 22.92-3.96-.41 3.48-.63 6.98-.58 10.48l1.72-.02c3.22.26 6.38 1.08 9.3 2.48l-8.2-.28.71 2.34-8.37-1.34-.9-2.79-2.43 2.86c-3.48.1-6.97-.07-10.41-.64l-2.39-4.83c-2.33.25-3.84 1.93-4.82 3.92-.09-5.16-.31-10.34.48-15.46z"/><path fill="#908b94" d="M96.02 192.88c-1.24-3.25 3.09-5.87 5.7-3.82.76 3.46-2.66 6.35-5.7 3.82z"/><path fill="#a78e74" d="M237.18 189.21c4.89-1.91 10.06-.97 13.57 3.02 1.21.73 2.51 1.31 3.84 1.78-.64 2.7-.98 5.47-.91 8.25l-2.35-.2-.2 4.75-1.94.03c-3.76-.36-7.2-1.99-10.61-3.5l1.06 3.17-7.33.93-1.43-.18c5.51-4.54 3.05-12.33 6.3-18.05z"/><path fill="#252321" d="M280.17 190.05c1.96 2.32 4.14 4.45 6.56 6.3l-.13 7.71c-3.01-3.85-7.59-7.38-6.45-12.91l.02-1.1z"/><path fill="#fbe2c0" d="M177.81 192.48l3.98-1.12c.3 2.24 1.21 4.33 2.26 6.31l-2.07 6.14-1.05 3.63-4.14-.25c-2.61-4.7-.66-10.06 1.02-14.71z"/><path fill="#baa48c" d="M272.01 191.51c2.71.03 5.46.25 8.14-.36-1.14 5.53 3.44 9.06 6.45 12.91 1.28.7 2.6 1.31 3.92 1.93-2.73 3.33-2.63 7.75-2.91 11.82l5.18-1.24c.92-3.17 1.02-6.56-.31-9.63l2.36-2.27c1.76 1.96 3.38 4.04 4.88 6.21-3.78 3.7-7.23 7.69-10.75 11.62-6.57-2.2-17.57-5.12-15.25-14.3-2.91-.27-4.93-2.49-6.97-4.33l1.88-2.51c2.16.98 4.46 1.57 5.67-1l-4.12-1.48 4.82-2.23-2.99-5.14z"/><path fill="#d6bea3" d="M254.59 194.01c5.83-.69 11.6-1.79 17.42-2.5l2.99 5.14-4.82 2.23 4.12 1.48c-1.21 2.57-3.51 1.98-5.67 1l-1.88 2.51c-1.93-.55-3.93-.81-5.92-1.03l-1.59-.17-5.56-.41c-.07-2.78.27-5.55.91-8.25z"/><path fill="#43362d" d="M295.44 196.88l7.04-2.69c-1.41 2.66-2.57 5.77-5.56 7.04l-1.48-4.35z"/><path fill="#bca690" d="M111.58 199.47c8.3 3.85 17.47 4.85 26.52 4.23l.4 2.83c2.23 1.05 4.58 2.14 6 4.29-7.37-2.43-15.14-3.52-22.89-3.31-3.97.36-8.02 1-11.92-.2l11.49-.48-2.4-2.84c-2.92-1.4-6.08-2.22-9.3-2.48.71-.67 1.41-1.35 2.1-2.04z"/><path fill="#806e64" d="M81.97 203.23c.98-1.99 2.49-3.67 4.82-3.92l2.39 4.83c3.44.57 6.93.74 10.41.64l2.43-2.86.9 2.79 8.37 1.34-.71-2.34 8.2.28c.82.93 1.61 1.88 2.4 2.84-3.83.1-7.66.29-11.49.48a137.99 137.99 0 0 0-9.54-.15c-4.44-.1-8.87 0-13.3-.01-3.31-.08-6.61.01-9.92.04-6.04-.17-12.07-.55-18.11-.14a41.05 41.05 0 0 1-1.1-.7c2.75-.09 5.43-.77 8.09-1.42 5.23-.34 10.47.02 15.71-.13l.45-1.57z"/><path fill="#af9b8b" d="M210.87 208.53l4.94-8.15 2.53 2.78c2.05 1.28 4.38 1.97 6.68 2.67l-1.2 5.63c-4.5-.72-9.07-1.34-13.6-.61-.98-.78-1.91-1.61-2.78-2.49l3.43.17z"/><path fill="#4c4139" d="M294.68 202.52l1.45-.83 2.58 5.45 5.39 1.07-4.17 6.34-.38.66 1.29 3.92-3.76 4.66-3.92-1.35-1.34.93c-2.53 2.03-6.05 3.57-6.37 7.25-1.05-4.86-5.4-6.29-9.02-8.74 4.32-1.55 8.64 3.74 12.54.62 3.52-3.93 6.97-7.92 10.75-11.62-1.5-2.17-3.12-4.25-4.88-6.21l-.16-2.15z"/><path fill="#010101" opacity=".86" d="M253.68 202.26l5.56.41c-1.14 7.82 8.26 9.13 12.03 14.29 1.71 1.65 3.38 3.35 5.16 4.92 3.62 2.45 7.97 3.88 9.02 8.74 1.47 1.53 3.04 2.97 4.67 4.33-4-1.42-8.49-2.33-11.55-5.51-6.63-10.49-18.75-16.28-24.89-27.18z"/><path fill="#675849" d="M238.58 203.34c3.41 1.51 6.85 3.14 10.61 3.5l-4.48.21 2.86 2.25c-1.15 7.35 4.64 12.47 5.6 19.32-2.17 3.23-1.81 7.12-1.49 10.78-4.33 1.36-8.69 2.72-12.66 4.95l-1.97 1.07.51 6.74-1.5-1.01c-.76-2.94-2.33-5.51-5.32-6.56-.83 1.82-1.63 3.65-2.28 5.55.37-4.12.66-8.46-2.48-11.67-2.06-3.23-4.27-6.37-6.37-9.58a60.64 60.64 0 0 1 2.03-7.11c-1.92.09-3.84.15-5.75.32 6.36-1.2 11.63-5.17 11.75-12.12 1.55-.86 3.08-1.75 4.67-2.54l7.33-.93-1.06-3.17m-7.53 16.73l-6.9.07.03 1.75-.92.13c.04 2.34.2 4.75 1.6 6.73 1.68-.46 3.39-.9 5.13-1.14-.28 3.26-.26 7.63 3.76 8.42l1.83-4.82.56 2.87c2.61-.22 5.19-.73 7.71-1.44a53.35 53.35 0 0 0-.77-7.57c1.22-.4 2.39-.94 3.58-1.44l-.13-4.32h-2.03c-1.79-2.89-4.79-4.82-7.59-6.64-4.11-.03-5.1 4.21-5.86 7.4m15.06 9.96c-.12 3.33-.03 6.67.46 9.97 1.49-.7 2.96-1.45 4.41-2.25-1.28-2.78-2.98-5.33-4.87-7.72z"/><path fill="#5a524c" d="M259.24 202.67l1.59.17c3.23 3.56 6.64 6.95 10.52 9.8l-.08 4.32c-3.77-5.16-13.17-6.47-12.03-14.29z"/><path fill="#806d5f" d="M260.83 202.84c1.99.22 3.99.48 5.92 1.03 2.04 1.84 4.06 4.06 6.97 4.33-2.32 9.18 8.68 12.1 15.25 14.3-3.9 3.12-8.22-2.17-12.54-.62-1.78-1.57-3.45-3.27-5.16-4.92l.08-4.32c-3.88-2.85-7.29-6.24-10.52-9.8z"/><path fill="#998874" d="M180.93 207.44l1.05-3.63c-.14 3.02 1.89 5.35 3.97 7.25 2.54 2.57 5.48 4.77 8.8 6.22 2.48.53 5.05.56 7.51-.05l4.21-1.05 4.87 4.2c-5.04 0-10.06.58-15.05 1.27-3.73.29-4.89 4.62-6.87 7.17l.23-4.73c-4.39-1.73-9.27-1.99-13.68-.13 2.08-2.26 3.95-4.71 5.92-7.07-2.55-3.25-5.29-6.34-8.06-9.4l7.1-.05z"/><path fill="#897864" d="M200.33 205.33l4.06-.41 3.05 3.44c.87.88 1.8 1.71 2.78 2.49 3.75 3.58 10.8 7.25 13.6.61.45-1.87.8-3.75 1.2-5.63 1.45.43 2.91.86 4.39 1.22l1.47.21 1.43.18c-1.59.79-3.12 1.68-4.67 2.54-.12 6.95-5.39 10.92-11.75 12.12l-1.89.41c-6.08 1.42-13.54 1.64-17.73 6.81-.61 5.21-3.22 9.67-5.23 14.37-.5 5.9-2.21 12.29-7.91 15.19-4.32-4.09-9.57-1.98-11.71 3.14l5.16-1.85c-2.41 4.46-4.01 9.29-6.38 13.77-4.61 2.19-9.69 2.48-14.62 1.35l-2.42 5.84c.45-3.16.02-6.33-.38-9.47l.05-1.69c1.56 1.27 2.98 2.69 4.36 4.14l1.05-4.08 2.04 2c4.22-1.75 8.06-4.25 11.5-7.25-.66-2.47-1.36-4.93-1.89-7.43 4.81-2.66 8.25-6.94 11.68-11.11 5.34-3.29 5-10.23 7.06-15.5a235.45 235.45 0 0 0-7.5-4.36c-1.18.92-2.41 1.78-3.6 2.7-5.19-3.38-11.62-.97-17.33-2.43 3.77-1.58 7.82-2.23 11.81-2.96l2.25 1.85 1.71-1.58c4.41-1.86 9.29-1.6 13.68.13l-.23 4.73c1.98-2.55 3.14-6.88 6.87-7.17 4.99-.69 10.01-1.27 15.05-1.27-1.6-1.43-3.23-2.82-4.87-4.2 1.17-4.73-3.59-7.63-6.14-10.85z"/><path fill="#e6cfbe" d="M58.82 207.05c6.04-.41 12.07-.03 18.11.14-.72 4.05-1.51 8.15-3.6 11.75-3.07-.63-6.42-.54-7.61 2.9l4.38 3.08-3.46.93-.97.06-2.93.17c-1.14-2.63-1.53-5.47-1.31-8.31l4.95-.54c-4.29-.94-6.17-4.69-7.3-8.55l-1.06 6.68.8-8.31z"/><path fill="#e4c9ac" d="M287.61 217.81c.28-4.07.18-8.49 2.91-11.82l1.96.95c1.33 3.07 1.23 6.46.31 9.63l-5.18 1.24z"/><path fill="#c9b4a7" d="M33.77 207.99l4.18-1.16.17 8.39 8.86-.12c-3.59 1.99-4.75 6.63-8.79 8.16l.73-4.61c-2.51-3.12-4.51-6.6-6.29-10.17l1.14-.49z"/><path fill="#fff4dc" d="M76.93 207.19l9.92-.04c6.25-.38 7.86 6.48 6.98 11.39l-1.49 5.47c1.58.71 3.15 1.51 4.33 2.83l-5.21.54-1.51-4.62-3.96-.18 1.41 3.15c-5.67-1.23-11.54-1.6-17.3-.81l-4.38-3.08c1.19-3.44 4.54-3.53 7.61-2.9 2.09-3.6 2.88-7.7 3.6-11.75m4.79 2.48c-5.42 1.29-6.01 8.72-1.76 11.75 2.9-.04 6.58.9 8.52-1.96 3.71-4.31-1.37-11.79-6.76-9.79z"/><path fill="#b49f93" d="M86.85 207.15l13.3.01-2.53 1.12 4.5 1.16c-4.4 1.27-7.58 4.47-8.29 9.1.88-4.91-.73-11.77-6.98-11.39z"/><path fill="#b09983" d="M28.13 208.65l5.64-.66-1.14.49-1.78.88c.83 8.3 1.13 17.42 6.39 24.33l2.09-.23c.11-2.59.44-5.16 1.26-7.62l-2.4-2.58c4.04-1.53 5.2-6.17 8.79-8.16 3.68 0 7.36.31 11.04.26l1.06-6.68c1.13 3.86 3.01 7.61 7.3 8.55l-4.95.54c-.22 2.84.17 5.68 1.31 8.31l-2.17.19c-3.88 1.01-7.1 4.11-8.57 7.79-.4 3.43 2.32 6.43 2.24 9.85-.12 2.97-2.9 4.51-4.92 6.19 1.51 2.24 3.41 4.18 5.59 5.79a127.15 127.15 0 0 1 2.73-5.93l2.44.86c-1.04 2.19-2.03 4.41-2.96 6.65 3.77 2.22 7.69 4.18 11.74 5.84l3.06-3.38c.55 4.75 4.17 6.37 8.51 5.68l2.22-6.9.38 7.9c4.2.12 8.39.03 12.58-.18.96-2.55.73-5.25.02-7.83-3.6-.95-9.22.44-10.99-3.64 4.62-.58 9.69-1.15 13.72 1.72 1.18 2.94 2.94 6.43.5 9.26l-1.62.76c-.01 1.82.09 3.64.19 5.47l4.93 1.09-2.05 3.47c-4.9-3.54-10.88-3.77-16.68-3.24l-1.21-4.77c-4.5-.25-9-.85-13.28-2.31l-2.36 3.18-10.71-5.17-1.87-1.25 1.38-3.41c-3.68-2.99-7.04-6.34-10.36-9.7l-4.12 2.41c-2.84-3.7-5.66-7.42-8.23-11.31l3.61-3.26c-6.18-8.56-6.98-19.13-8.35-29.25m18.77 8.03c-1.89 5.1.78 10 1.05 15.11 3.66-2.14 8.44-4.33 9.6-8.77-.06-5.22-6.49-6.5-10.65-6.34m-2.18 16.02c-2.13 1.61-4.31 3.13-6.54 4.59 1.67 3.88 4.58 7.06 7.36 10.17 2.9.79 5.14-2.41 7.42-3.79-1.42-4.53-5.2-7.56-8.24-10.97z"/><path fill="#f3d9c0" d="M144.19 217.97c-.69-3.55.72-6.89 2.55-9.85l.29 2.33 2.29-1.16c-.45 6.18-1.16 12.37-3.04 18.3l-1.17-2.55 1.1-4.69c-3.04 5.43-8.76-.15-12.19-2.34-2.86-2.87-6.89-2.76-10.49-1.64 2.32-4.33 8.75-4.04 12.1-1.09 2.4 2.01 5.56 2.38 8.56 2.69z"/><path fill="#8e837b" d="M146.74 208.12l2.97-.08c-.03 2.6-.01 5.38 1.96 7.35.65-2.4 1.02-4.87 1.05-7.36 2.14 2.48 4.3 4.95 6.91 6.96 2.44 2.74 5.66 4.49 8.84 6.2l1.51.91a78.94 78.94 0 0 1 2.03 1.59c-3.99.73-8.04 1.38-11.81 2.96-2.63.89-5.16 2.03-7.66 3.21a165.07 165.07 0 0 0 .25 4.44l-.97-6.29c-1.79 0-3.58-.03-5.36-.03l-.18-.39c1.88-5.93 2.59-12.12 3.04-18.3l-2.29 1.16-.29-2.33m7.79 10.14c-.86 3.16-2 6.33-1.91 9.65 2.79-1.28 5.65-2.55 8.06-4.48-.92-2.55-4.19-3.43-6.15-5.17z"/><path fill="#584b41" d="M149.71 208.04l3.01-.01c-.03 2.49-.4 4.96-1.05 7.36-1.97-1.97-1.99-4.75-1.96-7.35z"/><path fill="#d0ba9e" d="M304.1 208.21c4.05.38 6.44 4.15 9.37 6.53-.41 3.86-.58 8.21-3.86 10.88-1.02-3.32-2.03-6.65-3.63-9.75l-6.05-1.32c1.35-2.14 2.79-4.22 4.17-6.34z"/><path fill="#fdebd0" d="M30.85 209.36l1.78-.88c1.78 3.57 3.78 7.05 6.29 10.17-.28 1.53-.47 3.07-.73 4.61l2.4 2.58c-.82 2.46-1.15 5.03-1.26 7.62l-2.09.23c-5.26-6.91-5.56-16.03-6.39-24.33z"/><path fill="#837465" d="M81.72 209.67c5.39-2 10.47 5.48 6.76 9.79-1.94 2.86-5.62 1.92-8.52 1.96-4.25-3.03-3.66-10.46 1.76-11.75m-1.65 6.45c1.28.8 2.27 2.59 3.98 2.36 3.07-1.43.92-5.25.3-7.59-1.64 1.56-3.04 3.34-4.28 5.23z"/><path fill="#fdfbfd" d="M210.22 210.85c4.53-.73 9.1-.11 13.6.61-2.8 6.64-9.85 2.97-13.6-.61z"/><path fill="#fffff4" d="M80.07 216.12c1.24-1.89 2.64-3.67 4.28-5.23.62 2.34 2.77 6.16-.3 7.59-1.71.23-2.7-1.56-3.98-2.36z"/><path fill="#7b7168" d="M231.05 220.07c.76-3.19 1.75-7.43 5.86-7.4 2.8 1.82 5.8 3.75 7.59 6.64-6.8.6-13.54 1.79-20.32 2.58l-.03-1.75 6.9-.07z"/><path fill="#bea789" d="M123.53 216.37c3.6-1.12 7.63-1.23 10.49 1.64 3.43 2.19 9.15 7.77 12.19 2.34a177.79 177.79 0 0 0-1.1 4.69c-2.38-.87-5.11-2.53-7.43-.61-2.69 4.05-4.76 8.47-7.33 12.59-2.68-2.76-6.03-5-7.99-8.36-.96-4.08.88-8.21 1.17-12.29m3.01.55c-1.45 3.3-.96 6.81.14 10.11 2.36-.03 4.15-1.51 5.79-3.05-1.14-2.93-2.93-5.77-5.93-7.06z"/><path fill="#fffeff" d="M167.06 217.36c4.07-1.75 8.78-2.85 11.94 1.17-2.04 3-5.49 4.13-9.02 3.57-.38-.22-1.13-.68-1.51-.91l2.06-3.3-3.47-.53z"/><path fill="#fbe8d6" d="M299.55 215.21l.38-.66 6.05 1.32c1.6 3.1 2.61 6.43 3.63 9.75-2.46 2.55-4.74 5.26-7.03 7.96-4.21-2.69-7.44-6.54-10.76-10.21l1.34-.93c1.32.39 2.61.88 3.92 1.35l3.76-4.66c-.45-1.3-.92-2.6-1.29-3.92z"/><path fill="#8c8276" d="M313.47 214.74c-.04 10.23 8.1 16.66 15.55 22.12 2.27-1.42 4.63-2.76 7.2-3.55 1.68-.4 2.94.84 4.27 1.62l-3.06 4.34c-1.59-.39-3.2-.67-4.84-.56 2.47 2.78 5.33 5.17 8.3 7.41l-.73-4.96 3.15-3.45c6.57 5-2.61 12.04-.83 18.32 2.97 2.59 5.19 6.16 4.87 10.24l-1.52 2.15c-1.33-1.08-2.63-2.17-3.87-3.33l1.01-3.92-1.55-.88-1.63 2.64c-.87 1.08-1.83 2.08-2.82 3.04l-2.84 2.62c1.75.59 3.52.06 5.23-.43l3.46 3.19c-3.74 4.63-9.38.39-13.06-2.07-6.02-1.03-9.25 6.06-15.39 5.49l-2.31-2.1 2.97-3.55c1.71.21 3.42.35 5.13.49-1.53-3.23-4.59-5.24-7.16-7.57l-1.8.89 1.78 3.25-4.03 3.95c-4.94-4.52.2-10.94 4.07-14.27-.34-2.42-.62-4.97-1.74-7.16-5.14-4.66-9.78-11.29-17.57-10.81-.99-.86-2-1.68-3.01-2.49 4.03.18 8.22.09 11.88-1.82 2.29-2.7 4.57-5.41 7.03-7.96 3.28-2.67 3.45-7.02 3.86-10.88m-10.25 21.17c1.56 1.24 3.28 2.27 5.17 2.94a100.76 100.76 0 0 1 1.66-2.85l-.25 2.65 1.25-.64-3.62 3.82c3.61 2.75 7.78 4.73 11.07 7.89l-3.17 2.09c.45 5.04 6.4 6.02 8.23 10.41 4.55-.44 9.63 1.74 11.45-4.11 1.68-1.39 2.83-3.27 4.01-5.07-1.1-1.25-2.21-2.49-3.37-3.68l-.16-2.98c-5.6-6-14.2-9.1-17.97-16.73a51.24 51.24 0 0 0-1.44.95l-3.05-3.21c-3.82 2.15-7.13 5.07-9.81 8.52z"/><path fill="#7e6956" d="M46.9 216.68c4.16-.16 10.59 1.12 10.65 6.34-1.16 4.44-5.94 6.63-9.6 8.77-.27-5.11-2.94-10.01-1.05-15.11z"/><path fill="#fce3cb" d="M118.99 228.79c-2.44-4.74 2.23-8.75 4.54-12.42-.29 4.08-2.13 8.21-1.17 12.29 1.96 3.36 5.31 5.6 7.99 8.36 2.57-4.12 4.64-8.54 7.33-12.59 2.15 1.46 4.55 2.67 6.23 4.7-.5 4.21-3.07 7.74-5.16 11.29-1.47-.02-2.94-.06-4.4-.02l-.2.6c-.3.96-.57 1.94-.82 2.92-3.48-6.26-11.81-8.07-14.34-15.13z"/><path fill="#84705d" d="M126.54 216.92c3 1.29 4.79 4.13 5.93 7.06-1.64 1.54-3.43 3.02-5.79 3.05-1.1-3.3-1.59-6.81-.14-10.11z"/><path fill="#c1bcbe" d="M154.53 218.26c1.96 1.74 5.23 2.62 6.15 5.17-2.41 1.93-5.27 3.2-8.06 4.48-.09-3.32 1.05-6.49 1.91-9.65z"/><path fill="#e2cbb3" d="M224.18 221.89c6.78-.79 13.52-1.98 20.32-2.58h2.03l.13 4.32c-1.19.5-2.36 1.04-3.58 1.44-4.31 1.11-8.7 1.9-13.09 2.54-1.74.24-3.45.68-5.13 1.14-1.4-1.98-1.56-4.39-1.6-6.73l.92-.13z"/><path fill="#c1ab9a" d="M85.99 222.58l3.96.18 1.51 4.62c-3.9 3.07-8.51-.2-12.8-.35-3.93-.94-7.99-1.08-12.02-1.18l3.46-.93c5.76-.79 11.63-.42 17.3.81l-1.41-3.15z"/><path fill="#1c1713" opacity=".89" d="M214 222.51l1.89-.41 5.75-.32a60.64 60.64 0 0 0-2.03 7.11c-1.4-2.51-3.21-4.77-5.61-6.38z"/><path fill="#a8917a" d="M137.68 224.43c2.32-1.92 5.05-.26 7.43.61l1.17 2.55.18.39c2.29 2.29 4.22 4.93 4.76 8.21l1.93.56c-1.32 2.2-2.85 4.28-4.47 6.28.24.61.45 1.23.61 1.86l.1 1.03-6.84-.31-4.73 6.12-4.34 3.41 4.38 3.11c-2.23 4.35.2 9.34-.43 14 5.35-.01 10.81-.74 15.53-3.41-.04.28-.1.85-.13 1.13l-.05 1.69-1.49.87-2.6 1.34c-.17 1.38-.46 2.74-.57 4.14-1.48-.76-3.02-1.41-4.56-2.03l-2.13 3.15a184.4 184.4 0 0 1-6.02-3.32l-.71 4.84c-5.29.26-10.6.11-15.87.73l-.28-5.64c-2.85-.2-5.71-.36-8.52-.84-1.97-1.07-3.73-2.46-5.46-3.87l-2.05.27-1.42-5.4c4.47.05 8.9-1.18 12.59-3.73-.92-1.76-1.72-3.61-1.8-5.62l3.97 4.4c4.38-2.85 12.91-6.34 8.36-12.75l.2-1.21 4.75 4.9c3.46-2.48 6.51-5.51 8.73-9.16l-3.75-1.73.2-.6c1.46-.04 2.93 0 4.4.02 2.09-3.55 4.66-7.08 5.16-11.29-1.68-2.03-4.08-3.24-6.23-4.7m-9.77 28.26c.94 1.91 2.06 3.73 3.27 5.49l2.54-2.15c-1.44-1.88-3.5-2.96-5.81-3.34m-2.05 13.19c-1.65 3.63-8.36 2.04-7.2 7.17 5.38.68 10.83.63 16.18-.23.33-3.17.18-6.37-.26-9.52-3.08.08-7.04-.76-8.72 2.58z"/><path fill="#d3bba2" d="M285.45 230.62c.32-3.68 3.84-5.22 6.37-7.25 3.32 3.67 6.55 7.52 10.76 10.21-3.66 1.91-7.85 2-11.88 1.82l-.58-.45c-1.63-1.36-3.2-2.8-4.67-4.33z"/><path fill="#6e686b" d="M229.99 227.61c4.39-.64 8.78-1.43 13.09-2.54a53.35 53.35 0 0 1 .77 7.57c-2.52.71-5.1 1.22-7.71 1.44l-.56-2.87-1.83 4.82c-4.02-.79-4.04-5.16-3.76-8.42z"/><path fill="#e0c7af" d="M52 234.06c1.47-3.68 4.69-6.78 8.57-7.79-1.81 3.62-4.95 6.34-6.91 9.85 1.97 4.04 1.99 8.46 1.31 12.82 4.66-.1 11.97-2.88 13.84 3.33-2.95-.12-5.95-.38-8.73-1.45l-2.44-.86a127.15 127.15 0 0 0-2.73 5.93c-2.18-1.61-4.08-3.55-5.59-5.79 2.02-1.68 4.8-3.22 4.92-6.19.08-3.42-2.64-6.42-2.24-9.85z"/><path fill="#fdedd5" d="M60.57 226.27l2.17-.19 2.93-.17c-3.39 3.12-3.9 8.31-8.03 10.8.67 3.18 1.41 6.35 2.19 9.52 7.75.65 17.9 6.06 14.93 15.36l5.13 1.24c-.17-5.66 4.22-9.65 9.77-9.63-.26-7.12.77-14.38-.52-21.42-3.35-1.88-7.21-2.68-10.48-4.75 4.29.15 8.9 3.42 12.8.35-.32 8.09-.68 16.2-.01 24.27 5.02 3.23 11.08 3.2 16.64 4.84-2.07 4.46-6.82 2.32-9.73.19-4.03-2.87-9.1-2.3-13.72-1.72 1.77 4.08 7.39 2.69 10.99 3.64.71 2.58.94 5.28-.02 7.83-4.19.21-8.38.3-12.58.18l-.38-7.9-2.22 6.9c-4.34.69-7.96-.93-8.51-5.68l-3.06 3.38c-4.05-1.66-7.97-3.62-11.74-5.84.93-2.24 1.92-4.46 2.96-6.65 2.78 1.07 5.78 1.33 8.73 1.45-1.87-6.21-9.18-3.43-13.84-3.33.68-4.36.66-8.78-1.31-12.82 1.96-3.51 5.1-6.23 6.91-9.85z"/><path fill="#b79e83" d="M177.53 229.08l3.6-2.7 7.5 4.36c-2.06 5.27-1.72 12.21-7.06 15.5-7.07-3.77-14.97 3.84-11.68 11.11.53 2.5 1.23 4.96 1.89 7.43-3.44 3-7.28 5.5-11.5 7.25l-2.04-2c-1.2-1.13-2.44-2.21-3.81-3.13-1.64-.73-3.34-1.3-5.03-1.88-.2-3.03-.35-6.07-.08-9.1 4.4-1.94 8.64-4.28 12.48-7.19-1.88-5.13-3.94-10.23-6.88-14.85l-1.77 2.87-.36-2.45-.25-4.44c2.5-1.18 5.03-2.32 7.66-3.21 5.71 1.46 12.14-.95 17.33 2.43m-4 10.67c2.5 1.78 5.21 3.25 8.16 4.16 2.85-3.38 3.93-7.7 1.9-11.8-5.22-.56-9.04 2.61-10.06 7.64m-13.77 12.4l.33.6c-3.2 1.7-5.95 4.13-9.23 5.71 1.09 3.04 2.89 5.74 5.02 8.15 3.23-1.76 6.36-3.72 9.34-5.88l2.16-1.77c.07-4.55-3.08-7.24-7.62-6.81z"/><path fill="#bea890" d="M303.22 235.91c2.68-3.45 5.99-6.37 9.81-8.52l3.05 3.21a51.24 51.24 0 0 1 1.44-.95c3.77 7.63 12.37 10.73 17.97 16.73l.16 2.98c-2.94-2.93-5.38-6.45-9.05-8.55-1.57 4.36-4.05 8.27-6.93 11.88 4.11 3.98 9.25 9.14 15.34 5.42-1.82 5.85-6.9 3.67-11.45 4.11-1.83-4.39-7.78-5.37-8.23-10.41l3.17-2.09c-3.29-3.16-7.46-5.14-11.07-7.89l3.62-3.82c1.9-1.91 3.51-4.09 4.98-6.34-2.42.74-4.91 1.86-5.98 4.33a100.76 100.76 0 0 0-1.66 2.85c-1.89-.67-3.61-1.7-5.17-2.94m11.95 1.21a78.31 78.31 0 0 0-.02 6.68c4.56.86 6.62-2.64 5.93-6.86a116.61 116.61 0 0 0-5.91.18z"/><path fill="#dcc5a8" d="M103.81 238.23c-4.26-2.52-2.85-9.72 2.04-10.46-2.71 2.95-3.19 6.69-2.04 10.46z"/><path fill="#635447" d="M146.46 227.98l5.36.03.97 6.29.36 2.45-1.93-.56c-.54-3.28-2.47-5.92-4.76-8.21z"/><path fill="#4d433a" d="M253.17 228.62c.52 3.49.08 7.17 1.61 10.46-.2-.09-.58-.28-.78-.38-1.03 2.21-3.25 3.15-5.46 3.8l-1.38 3.87c-1.41.71-2.81 1.44-4.18 2.22l-3.96-4.24c3.97-2.23 8.33-3.59 12.66-4.95-.32-3.66-.68-7.55 1.49-10.78z"/><path fill="#9e8a77" d="M246.11 230.03c1.89 2.39 3.59 4.94 4.87 7.72l-4.41 2.25c-.49-3.3-.58-6.64-.46-9.97z"/><path fill="#edd4bf" d="M44.72 232.7c3.04 3.41 6.82 6.44 8.24 10.97-2.28 1.38-4.52 4.58-7.42 3.79-2.78-3.11-5.69-6.29-7.36-10.17 2.23-1.46 4.41-2.98 6.54-4.59z"/><path fill="#e0c6af" d="M173.53 239.75c1.02-5.03 4.84-8.2 10.06-7.64 2.03 4.1.95 8.42-1.9 11.8-2.95-.91-5.66-2.38-8.16-4.16z"/><path fill="#4e433a" d="M310.05 236c1.07-2.47 3.56-3.59 5.98-4.33-1.47 2.25-3.08 4.43-4.98 6.34l-1.25.64.25-2.65z"/><path fill="#dcc1a6" d="M153.15 236.75l1.77-2.87c2.94 4.62 5 9.72 6.88 14.85-3.84 2.91-8.08 5.25-12.48 7.19.69-4.69 6.4-5.59 9.58-8.23a161.45 161.45 0 0 0-2.69-5.44l-6.92 2.64c-.16-.63-.37-1.25-.61-1.86 1.62-2 3.15-4.08 4.47-6.28z"/><path fill="#7d7162" d="M315.17 237.12l5.91-.18c.69 4.22-1.37 7.72-5.93 6.86l.02-6.68z"/><path fill="#98846d" d="M254 238.7l.78.38 3.13 1.45c.8 3.86 3.14 7.97 1.29 11.87-.48 1.15-1 2.29-1.52 3.44-1.59.13-3.18.3-4.74.62l-1.27-1.18c1.51-4.34 1.46-10.32-3.13-12.78 2.21-.65 4.43-1.59 5.46-3.8z"/><path fill="#534b44" opacity=".98" d="M293.71 237.89c7.79-.48 12.43 6.15 17.57 10.81 1.12 2.19 1.4 4.74 1.74 7.16-7.38-4.94-12.58-12.29-19.31-17.97z"/><path fill="#020201" opacity=".93" d="M225.98 238.47c3.14 3.21 2.85 7.55 2.48 11.67v2.27c-3.04-3.82-5.18-9.37-2.48-13.94z"/><path fill="#dfc6ad" d="M134.15 241l3.75 1.73c-2.22 3.65-5.27 6.68-8.73 9.16l-4.75-4.9-.2 1.21c-4.5 1.16-9.23 2.13-12.77 5.37l.44 2.98c.08 2.01.88 3.86 1.8 5.62-3.69 2.55-8.12 3.78-12.59 3.73l-2.24.04c2.44-2.83.68-6.32-.5-9.26 2.91 2.13 7.66 4.27 9.73-.19 1.67-5.96 6.95-10.38 12.9-11.61 4.14.18 8.44.91 12.34-.96.25-.98.52-1.96.82-2.92z"/><path fill="#d5bea6" d="M326.6 240.81c3.67 2.1 6.11 5.62 9.05 8.55 1.16 1.19 2.27 2.43 3.37 3.68-1.18 1.8-2.33 3.68-4.01 5.07-6.09 3.72-11.23-1.44-15.34-5.42 2.88-3.61 5.36-7.52 6.93-11.88z"/><path fill="#f1d6ba" d="M149.29 244.89l6.92-2.64 2.69 5.44c-3.18 2.64-8.89 3.54-9.58 8.23-.27 3.03-.12 6.07.08 9.1 1.69.58 3.39 1.15 5.03 1.88l-1.47 1.94c-4.72 2.67-10.18 3.4-15.53 3.41.63-4.66-1.8-9.65.43-14l-4.38-3.11c1.46-1.12 2.94-2.21 4.34-3.41.36.22 1.1.65 1.47.87l3.37 2.01c.16.83.3 1.67.43 2.52l-3.55.76c1.32 2.04 3.03 3.79 4.94 5.3 2.49-4.36 2.2-9.48 1.68-14.29 1.08-.28 2.18-.53 3.28-.78l-.05-2.2c-.02-.26-.07-.77-.1-1.03z"/><path fill="#cbb7a4" d="M248.54 242.5c4.59 2.46 4.64 8.44 3.13 12.78l1.27 1.18c-4.67 1.35-9.38 2.75-14.29 2.8-.43-4.16.74-8.25 4.33-10.67 1.37-.78 2.77-1.51 4.18-2.22l1.38-3.87z"/><path fill="#ceb69c" d="M142.55 245.61l6.84.31.05 2.2-3.28.78c-2.66.44-5.01 1.77-6.87 3.7l-1.47-.87c1.69-1.94 3.19-4.05 4.73-6.12z"/><path fill="#e3caaf" d="M169.89 257.35c-3.29-7.27 4.61-14.88 11.68-11.11-3.43 4.17-6.87 8.45-11.68 11.11z"/><path fill="#847462" d="M228.46 250.14c.65-1.9 1.45-3.73 2.28-5.55 2.99 1.05 4.56 3.62 5.32 6.56l1.5 1.01-.51-6.74 1.97-1.07 3.96 4.24c-3.59 2.42-4.76 6.51-4.33 10.67-1.61.7-3.08 1.68-4.59 2.56l-1.13.23c-1.03-3.41-2.84-6.5-4.47-9.64v-2.27z"/><path fill="#ecd2bb" d="M159.76 252.15c4.54-.43 7.69 2.26 7.62 6.81l-2.16 1.77c-1.84-2.57-3.63-5.19-5.13-7.98l-.33-.6z"/><path fill="#675a4e" d="M257.68 255.84l1.52-3.44c-4.5 9.52.22 19.4 2.79 28.67l.75 2.74 1.13.68c.87 3.6 1.7 7.2 2.9 10.71l2.25-4.57c.22 2.61-4.72 6.52-1.15 7.69-2.75.99-4.52 3.35-6.08 5.7-.85-2.53-1.18-5.18-1.49-7.82-.81-5.44-1.57-10.92-2.92-16.26-2.67-6.26-2.63-13.09-1.66-19.71-4.89-1.16-10.55-1.19-14.88 1.64-3.43 3.05.98 6.65 1.05 10.1.02 3.96 1.22 7.74 2.44 11.46l-4.73-3.24-.48 7.25c-2.75-8.33-2.4-17.3-5.06-25.62 1.51-.88 2.98-1.86 4.59-2.56 4.91-.05 9.62-1.45 14.29-2.8 1.56-.32 3.15-.49 4.74-.62z"/><path fill="#56483d" d="M127.91 252.69c2.31.38 4.37 1.46 5.81 3.34l-2.54 2.15c-1.21-1.76-2.33-3.58-3.27-5.49z"/><path fill="#fffee8" d="M150.86 258.46c3.28-1.58 6.03-4.01 9.23-5.71 1.5 2.79 3.29 5.41 5.13 7.98-2.98 2.16-6.11 4.12-9.34 5.88-2.13-2.41-3.93-5.11-5.02-8.15z"/><path fill="#6b5e50" d="M171.42 262.02c2.14-5.12 7.39-7.23 11.71-3.14-6.95 6.38-6.78 16.73-10.87 24.75l1.84.94-3.22 1.26 2.72 2.59c-1.6 3.22-2.92 6.57-3.84 10.05l1.88-.37-5.52 2.45c-2.08.97-4.57 1.48-5.91 3.54.1-1.95.1-3.91.12-5.86-3.96-1.59-8.01-3.05-11.57-5.45 4.38 1.08 8.62 2.65 12.96 3.9l7.2-16.56-1.87-2.56c1.09-1.17 2.13-2.39 3.15-3.62 2.37-4.48 3.97-9.31 6.38-13.77l-5.16 1.85z"/><path fill="#95826f" d="M240.84 261.87c4.33-2.83 9.99-2.8 14.88-1.64-.97 6.62-1.01 13.45 1.66 19.71-4.73-.69-8.58 2.67-13.05 3.49-1.22-3.72-2.42-7.5-2.44-11.46-.07-3.45-4.48-7.05-1.05-10.1m3.52 6.41c2.33-.62 5.54-.13 7.17-2.22-1.83-1.89-6.67-.72-7.17 2.22m.36 7.87c3.09 4.13 7.34 2.8 9.37-1.52-3.03-4.08-7.53-2.95-9.37 1.52z"/><path fill="#252323" opacity=".58" d="M341.42 260.29l1.55.88-1.01 3.92-2.17-2.16 1.63-2.64z"/><path fill="#161412" opacity=".8" d="M232.93 262.05l1.13-.23c2.66 8.32 2.31 17.29 5.06 25.62l.37 5.11c-1.26-1.55-2.49-3.13-3.8-4.63l-1.88-.24 3.33-1.07a357.76 357.76 0 0 1-4.21-24.56z"/><path fill="#e9d0b6" d="M125.86 265.88c1.68-3.34 5.64-2.5 8.72-2.58.44 3.15.59 6.35.26 9.52-5.35.86-10.8.91-16.18.23-1.16-5.13 5.55-3.54 7.2-7.17z"/><path fill="#3f362e" d="M244.36 268.28c.5-2.94 5.34-4.11 7.17-2.22-1.63 2.09-4.84 1.6-7.17 2.22z"/><path fill="#63564a" d="M97.24 266.7l1.62-.76 2.24-.04 1.42 5.4 2.05-.27c1.73 1.41 3.49 2.8 5.46 3.87l-7.67-1.64-4.93-1.09-.19-5.47z"/><path fill="#211f1e" opacity=".53" d="M334.13 268.59l2.84-2.62 2.39 2.19c-1.71.49-3.48 1.02-5.23.43z"/><path fill="#766655" d="M154.43 266.9c1.37.92 2.61 2 3.81 3.13l-1.05 4.08c-1.38-1.45-2.8-2.87-4.36-4.14l.13-1.13 1.47-1.94z"/><path fill="#75675a" d="M151.29 272.53l1.49-.87c.4 3.14.83 6.31.38 9.47l-4.4 11.65c-.84 1.74-2.3 3.02-3.73 4.28-1.03-2.27-1.99-4.7-3.94-6.36l.55-3.56c1.03-3.19 2.43-6.24 3.76-9.31l-1.84-1.85c1.54.62 3.08 1.27 4.56 2.03l1.24.94 1.93-6.42z"/><path fill="#62574b" d="M244.72 276.15c1.84-4.47 6.34-5.6 9.37-1.52-2.03 4.32-6.28 5.65-9.37 1.52z"/><path fill="#423a35" opacity=".73" d="M148.69 273.87l2.6-1.34-1.93 6.42-1.24-.94c.11-1.4.4-2.76.57-4.14z"/><path fill="#ad9986" d="M155.58 275.29c4.93 1.13 10.01.84 14.62-1.35-1.02 1.23-2.06 2.45-3.15 3.62l1.87 2.56c-2.25 5.58-4.8 11.03-7.2 16.56-4.34-1.25-8.58-2.82-12.96-3.9l4.4-11.65c.77-1.96 1.6-3.9 2.42-5.84z"/><path fill="#aa9682" d="M244.33 283.43c4.47-.82 8.32-4.18 13.05-3.49 1.35 5.34 2.11 10.82 2.92 16.26-2.86 3.91-7.86 4.5-12.23 5.53-2.01-5.91-3.33-12.06-3.74-18.3z"/><path fill="#887a6b" d="M239.6 280.19l4.73 3.24c.41 6.24 1.73 12.39 3.74 18.3 4.37-1.03 9.37-1.62 12.23-5.53.31 2.64.64 5.29 1.49 7.82 1.82 3.69.67 7.64-.75 11.24l-3.45.25-1.01-4.38 3.18-3.92-11.4 2.65c1.43.74 2.89 1.41 4.37 2.05l1.01 4.65-2.9.96c-3.91-2.42-5.27-6.68-6.83-10.68-4.57-3.16-10.78.22-15.45-3.38l-.45-3.49 5.19-.85 1.41 2.49 2.12.19c-.58-3.22-1.27-6.43-1.98-9.63l-2.32-.13-.11 3.4-5.48.94-.65-3.37c2.11-2.26 4.37-4.64 7.52-5.33l1.88.24c1.31 1.5 2.54 3.08 3.8 4.63l-.37-5.11c.09-2.43.3-4.84.48-7.25z"/><path fill="#98979f" d="M134.7 280.65l4.9 1.69.17 3.45 1.87 1.35-.55 3.56c-3.89-1.61-7.82-5.47-6.39-10.05z"/><path fill="#89898e" d="M261.99 281.07c3.26-.62 6.45.25 9.49 1.37l1.31 3.01-4.5 1.63-4.42-2.59-1.13-.68-.75-2.74z"/><path fill="#8f8e95" d="M170.88 285.83l3.22-1.26c3.58 1.64 7.87 5.19 6.18 9.6l-4.68-1.19a115.21 115.21 0 0 0-1.2-3.72l-.8-.84c-.89-.88-1.81-1.73-2.72-2.59z"/><path fill="#919199" d="M269.02 290.63l4.91-.55c.45 3.93-2.73 6.84-6.06 8.24-3.57-1.17 1.37-5.08 1.15-7.69z"/><path fill="#918276" d="M145.03 297.06c1.43-1.26 2.89-2.54 3.73-4.28 3.56 2.4 7.61 3.86 11.57 5.45l-.12 5.86c-.89 4.13-4.88 7.91-9.3 6.92.44-1.75.92-3.5 1.43-5.24 1.72-.17 3.4-.63 4.92-1.48-3.54-1.28-7.1-2.55-10.47-4.24l-.36 1.56 2.4 2.35-1.95 4.92c-4.88-1.39-5.29-8.7-1.85-11.82z"/><path fill="#92919a" d="M173.75 296.25l4.4 1.64-.98 3.3c-3.69 1-7.66 1.68-11.05-.64l5.52-2.45 2.11-1.85z"/></svg>