<svg xmlns="http://www.w3.org/2000/svg" width="512" height="512" viewBox="0 0 384 384" xmlns:v="https://vecta.io/nano"><path fill="#494e58" d="M183.28 33.2c3.09.33 6.4 1.49 8.75-1.3a6.58 6.58 0 0 0 4.22-.43c2.34.76 3.59 5.83 5.99 2.84 3.7-3.87 6.96 1.13 7.88 4.6-3.58-3.03-13.16-2.05-10.57 4.16-4.55.06-9.08-.24-13.61 0 1.12 3.7 7.7 2.12 9.25 6.59 3.27-1.68 7.84-5.64 6.81 2.32 1.02 4.33-5.26 2.22-5.84 6.14-.92 3.7-7.08 7.12-8.74 2.37-1.68-3.62-9.92-3.09-6.99 2.02 5.83 4.59 3.66 12.61-.65 17.43 5.02-4.85 11.56-7.2 17.35-10.81 1.9.74 2.64 2.83 3.92 4.29-3.36 3.85-8.14 6.61-10.24 11.45-.18 2.54-2.15 6.12.23 8.13 3.63 5.46 9.3 6.91 15.12 8.47-4.85 2.55-9.28 8.68-15.37 4.8-4.84-1.59 3.74 3.85-.1 4.43-3.57 1.61-2.49-4.19-5.38-4.81-2.65-2.41-5.02-6.26-9.1-5.91-1.93 3.34-3.58 6.84-5.47 10.21-1.9-1.76-5.15-4.83-5.97-.6-4.22-.27-7.92 1.63-10.76 4.52.26-2.49 4.37-8.16-.03-8.08-3.4.47.08-2.97.27-4.59 2.22-.75 6.06-.77 6.69-3.43-1.69-4.74-15-1.75-7.72 3.16-1.37-.33-2.74-.68-4.09-1.1.7-3.14-1.37-2.72-3.6-2.11-.81-4.44-.48-8.62 4.82-9.43 4.65 1.25 10.19 2.17 14.85-.12-5.13-.37-9.59-2.25-11.15-7.51 2.56-.23 6.02 2.33 7.86-.18.69-4.3-.83-8.35-1.56-12.49 2.64-.95 8.24-2.51 3.76-5.36-3.31-3.45-2.42 3.75-5.42 1.37-3.96-2.95-5.54 2.26-8.01 4.51-3.05.61-2.86-4.68-6.04-4.96 3.29-2.88 7.77-4.17 10.63-7.6 2.27-1.77 2.99-4.52 3.37-7.29 2.12 5.7 8.71.29 12.41-.87 2.28-1.23 2.12-2.77 0-4.06 7.62 1.58 7.69-7.38 12.23-10.77M170.92 90c1.73 4.28 5.95 7.57 10.15 9.06-1.77-3.89-5.19-9.78-10.15-9.06m-6.97 2.99c-.77 3.72 5.72 2.42 7.15 2.99.36-3.71-4.73-3.81-7.15-2.99z"/><path fill="#666971" d="M199.55 43.07c-2.59-6.21 6.99-7.19 10.57-4.16 3.05.73 7.38-1.37 9.13 1.99-.23 2.43-.68 4.84-1.22 7.22-3.07.18-10.32-4.05-6.65 3.46.12 3.99 4.7 2.42 6.48.43.19 4 6.1-.79 8.13 2.16-.75 5.51-6.75 8.42-11.23 10.69-3.2-1.3-6.59 0-9.09 2.13l-.75-1.95c2.07-4.8 8.74-14.37.77-16.78-2.59-1.36-4.2 1.42-3.69 3.72 1.03-7.96-3.54-4-6.81-2.32-1.55-4.47-8.13-2.89-9.25-6.59 4.53-.24 9.06.06 13.61 0z"/><path fill="#46454b" opacity=".96" d="M219.25 40.9c1.09 1.64 2.02 3.38 2.98 5.1-.29 1.53-1.31 4.25.73 4.95 3.93 1.16 8.27 1.81 10.86 5.36 1.16 3.91-3.86 5.81-6.71 7.06-1.64-.61-3.71-1-5.06.43-1.26.88-2.51 1.77-3.83 2.56l-3.46-1.5c4.48-2.27 10.48-5.18 11.23-10.69-2.03-2.95-7.94 1.84-8.13-2.16l.17-3.89c.54-2.38.99-4.79 1.22-7.22z"/><path fill="#686d85" opacity=".98" d="M158.64 48.9c.57-2.57 3.02-4 5.15-5.19l7.26.26c2.12 1.29 2.28 2.83 0 4.06-3.7 1.16-10.29 6.57-12.41.87z"/><path fill="#8e958a" d="M211.38 51.58c-3.67-7.51 3.58-3.28 6.65-3.46l-.17 3.89c-1.78 1.99-6.36 3.56-6.48-.43z"/><path fill="#909596" d="M202 51.98c-.51-2.3 1.1-5.08 3.69-3.72 7.97 2.41 1.3 11.98-.77 16.78l-4.76.31c-4.98-2.84-2.09-7.77 3.71-6.66 4.42-.4-1.06-4.57-1.87-6.71z"/><path fill="#6d7172" d="M202 51.98c.81 2.14 6.29 6.31 1.87 6.71-5.8-1.11-8.69 3.82-3.71 6.66-.58.55-1.92 4.3-2.01 1.76.36-4.71-3.99.5-1.02 2.02-5.79 3.61-12.33 5.96-17.35 10.81 4.31-4.82 6.48-12.84.65-17.43-2.93-5.11 5.31-5.64 6.99-2.02 1.66 4.75 7.82 1.33 8.74-2.37.58-3.92 6.86-1.81 5.84-6.14z"/><path fill="#363941" d="M158.69 64.24c3 2.38 2.11-4.82 5.42-1.37 4.48 2.85-1.12 4.41-3.76 5.36.73 4.14 2.25 8.19 1.56 12.49-1.84 2.51-5.3-.05-7.86.18 1.56 5.26 6.02 7.14 11.15 7.51-4.66 2.29-10.2 1.37-14.85.12-5.3.81-5.63 4.99-4.82 9.43 2.23-.61 4.3-1.03 3.6 2.11.55 6.69-6.53 4.41-9.16 1.58-.13-5.09.88-10.07 3.21-14.6 5.7-6.06-1.67-16.24 1.46-23.26 3.18.28 2.99 5.57 6.04 4.96 2.47-2.25 4.05-7.46 8.01-4.51z"/><path fill="#181818" opacity=".61" d="M222.05 63.8c1.35-1.43 3.42-1.04 5.06-.43l-1.91 1.06-3.15-.63z"/><path fill="#2c2c2f" opacity=".96" d="M205.67 66.99c2.5-2.13 5.89-3.43 9.09-2.13l3.46 1.5c-3.97 3.2-9.19 3.44-14.06 3.8l1.51-3.17z"/><path fill="#6b7041" d="M197.13 69.13c-2.97-1.52 1.38-6.73 1.02-2.02.09 2.54 1.43-1.21 2.01-1.76l4.76-.31.75 1.95-1.51 3.17-3.11 3.26c-1.28-1.46-2.02-3.55-3.92-4.29z"/><path fill="#25252a" opacity=".63" d="M191.04 93c-2.38-2.01-.41-5.59-.23-8.13l.23 8.13z"/><path fill="#676e66" d="M170.92 90c4.96-.72 8.38 5.17 10.15 9.06-4.2-1.49-8.42-4.78-10.15-9.06z"/><path fill="#797c90" d="M163.95 92.99c2.42-.82 7.51-.72 7.15 2.99-1.43-.57-7.92.73-7.15-2.99z"/><path fill="#72788b" d="M153.22 101.17c-7.28-4.91 6.03-7.9 7.72-3.16-.63 2.66-4.47 2.68-6.69 3.43l-1.03-.27z"/><path fill="#40454e" d="M149.13 100.07l4.09 1.1 1.03.27c-.19 1.62-3.67 5.06-.27 4.59 4.4-.08.29 5.59.03 8.08-2.15 6.54 7.49 13.2 12.24 8.17 2.75-2.83 3.67-7.84 1.91-11.41-1.03-.64-2.16-1.07-3.39-1.28.82-4.23 4.07-1.16 5.97.6 2.06 3.69 7.03 11.95 1.41 13.1-3.46-.1.39 5.13-3.54 3.17-3.5-1.47-.41 3.31 1.3 3.59 1.8-1.34 2.02-4.46 4.84-4.33-2.03 3.07-.26 7.25-3.86 9.36-5.14 4.02-2.92 10.45-3.5 16.06-1.2 4.13 7.33 6.96.19 8.39.02 1.32 3.97 8.82 7.25 5.31 2.36-2.06 4.28.79 5.95 2.27l.43.86c1.98 3.37-.93 6.16-3.29 8.24 1.98 2.87 6.21-2.98 5.64 3.62-2.5 3.79-6.8-2.65-10.63 1.23-4.85-1.36-3.71 5.33-.86 7.16 2.66 1.7 1.26 5.53-1.95 4.76-1.51.13-3.04.33-4.45.93-1.26 2.18-1.94 4.62-3 6.89-2.55-.14-5.07-.68-7.63-.86 3.06-14.3-8.65-2.61-6.87 3.8 1.62 2.94 4.76-.63 6.64-1.69 3.36 1.92 5.72 5.24 6.61 8.96-2.44 5.32 12.07 4.73-.4 6.57-6.53 1.84-2.05 10.73-1.22 15.67-5.62-3.54-6.12-11.44-1.99-16.41-2.63.41-5.3.88-7.91 1.36 1.11 3.43 3.95 8.96-1.74 8.83-3.13-4.15-.23-10.41-7.91-6.15-2.18-6.85 1.96-13.4 2.71-20.11-5.55 1.2-3.64 7.73-6.06 11.33-5.65-2.41-3.23-11.43-9.85-12.3-.02-3.7-.1-7.37-.29-11.05 1.52-2.68 3.36-5.14 5.5-7.4 3.94 3.11-.46 8.42-.3 12.67 3.66 1.06 2.61-2.93 4.27-4.79 3.08-1.87 6.45-3.23 9.38-5.36-1.7-5.06 4.74-2.84 7.38-5.07.65-2.8-2.11-4.87-1.91-7.57 3.01-4.4 8.31 6.02 7.14-2.11 4.33 2.32 7.53-.2 6.2-4.9-1.11-6.18-3.25 4.46-6.21-.46.54-3.38 7.26-4.53 7.78-8.58-3.64-2.67-8.76-3.92-12.99-2.02-.71 3.89 7.9 5.01 3.61 8.43-3.48 1.94 1.16 4.92 1.61 7.53-3.93-.27-4.85-4.18-6.7-6.91-1.68 4.46-10.87 4.65-9.84-1-2.72.62-5.14.28-6.6-2.31-.14 1.76-.24 3.53-.3 5.31 1.32-7.95-5.42-6.75-8.81-3.17-.01-3.58 4.9-5.56 3.54-9.22l-.55-2.89.4-2.62c1.42-4.04 2.33-8.24 3.58-12.32-1.11-4.35-3.57-8.36-3.12-13.08.69-5.27 2.47-10.33 5.18-14.89 1.74-1.36 3.37-2.85 4.97-4.37 2.63 2.83 9.71 5.11 9.16-1.58m-6.85 11.12c-2.45 2.32-6.47 6.13-2.3 8.88 6.29 4.23 9.95-10.39 2.3-8.88m22 21.09c-2.97 1.06-6.64 4.97-4.62 8.06 4.94 4.2 11.68-9.81 4.62-8.06z"/><path fill="#5c636b" d="M176.21 99.98c4.08-.35 6.45 3.5 9.1 5.91-.89 1.18-1.56 2.7-3.1 3.12-6.24-1.17-4.92 9.61.88 6.02.86-6.04 6.97-3.23 5.86 1.7-8.99-2.25-2.55 5.99-3.47 10.03 3.96 2.7 7.81-2.16 11.59 1.28.73-3.17-1.47-4.46-4.12-5.26 2.3-2.27 7.42.08 10.52-1.92-1.09-3.38 1.22-3.03 3.73-2.07l1.06 1.24c-3.52 3.7-10.04 8.25-8.15 13.84-2.15 1.9-5.06 3.58-5.35 6.74 0 2.46-.85 4.36-2.55 5.7-.39-2.97-2.45-3.98-5.24-3.32.7 2.62 3.48 6.3-.39 7.62-1.25-2.01-2.98-1.35-4.02.46-1.46-2.62-3.34-4.42-6.51-3.23-4.16-.64.74-4.58.83-6.86-.05-4.62-7.22-.01-5.99-5.9 3.6-2.11 1.83-6.29 3.86-9.36-2.82-.13-3.04 2.99-4.84 4.33-1.71-.28-4.8-5.06-1.3-3.59 3.93 1.96.08-3.27 3.54-3.17 5.62-1.15.65-9.41-1.41-13.1 1.89-3.37 3.54-6.87 5.47-10.21m1 24.14c-.3 2.84-4.06 8.88 1.72 6.83-1.5-2.58 3.8-6.76-1.72-6.83z"/><path fill="#73777e" d="M190.79 106.27c6.09 3.88 10.52-2.25 15.37-4.8 2.26 1.03 4.08 2.91 5.15 5.14-6.75-4.18-10.37 6.79-5.49 10.35l.88 1.15.5.68c-2.51-.96-4.82-1.31-3.73 2.07-3.1 2-8.22-.35-10.52 1.92 2.65.8 4.85 2.09 4.12 5.26-3.78-3.44-7.63 1.42-11.59-1.28.92-4.04-5.52-12.28 3.47-10.03 1.11-4.93-5-7.74-5.86-1.7-.06-2.03-.35-4.06-.88-6.02 1.54-.42 2.21-1.94 3.1-3.12 2.89.62 1.81 6.42 5.38 4.81 3.84-.58-4.74-6.02.1-4.43z"/><path fill="#9598a7" d="M205.82 116.96c-4.88-3.56-1.26-14.53 5.49-10.35 2.47 4.52 2.14 10.12-.13 14.66l-2.92-1.24-1.06-1.24-.5-.68c4.71 2.4 2.53-4.53-.88-1.15z"/><path fill="#9498a7" d="M183.09 115.03c-5.8 3.59-7.12-7.19-.88-6.02.53 1.96.82 3.99.88 6.02z"/><path fill="#666b82" d="M154.01 114.11c2.84-2.89 6.54-4.79 10.76-4.52 1.23.21 2.36.64 3.39 1.28-11.13-4.02-6.82 4.95-8.03 10.92 1.37 2.14 4.11.51 6.12.49-4.75 5.03-14.39-1.63-12.24-8.17z"/><path fill="#5a5f76" d="M142.28 111.19c7.65-1.51 3.99 13.11-2.3 8.88-4.17-2.75-.15-6.56 2.3-8.88z"/><path fill="#989da6" d="M160.13 121.79c1.21-5.97-3.1-14.94 8.03-10.92 1.76 3.57.84 8.58-1.91 11.41-2.01.02-4.75 1.65-6.12-.49z"/><path fill="#f1f2f7" d="M205.82 116.96c3.41-3.38 5.59 3.55.88 1.15l-.88-1.15z"/><path fill="#707471" d="M208.26 120.03l2.92 1.24c-.8 5.05.72 9.44 4.79 12.66-.35 2.64-.3 5.38-1.38 7.87-2.72 4.89-1.73.42-5.5.15-2.79-2.92-5.63-5.81-8.98-8.08-1.89-5.59 4.63-10.14 8.15-13.84z"/><path fill="#818788" d="M177.21 124.12c5.52.07.22 4.25 1.72 6.83-5.78 2.05-2.02-3.99-1.72-6.83z"/><path fill="#666a77" d="M164.28 132.28c7.06-1.75.32 12.26-4.62 8.06-2.02-3.09 1.65-7 4.62-8.06z"/><path fill="#7a8345" d="M200.11 133.87c3.35 2.27 6.19 5.16 8.98 8.08.68 4.57-4.25 10.12-9 9.12l.06-3.11c5.38-.9 3.81-6.23-1.01-6.45-1.44-.39-2.92-.63-4.38-.9.29-3.16 3.2-4.84 5.35-6.74z"/><path fill="#5a5d68" d="M215.97 133.93c8.07 7.63 13.38 17.21 16.11 28.02.34 6.55-8.55-.87-12.03.09-2.03 2.97-6.08 1.45-9.14 2.13-.1 2.63 6.39 2.17 2.84 4.66-5.99 3.32-3.52-1.85-5.25-4.04.1-2.19.41-4.36.43-6.55-3.67-.13-7.36-.32-10.88-1.41-.04-2.22 2.72-2.29 4.16-3.32 3.74.25 5.56-2.33 7.01-5.35 2.98-.76 1.42 4.71 3.89 4.79 3.11.55 3.67-3.57 3.44-5.86 1.92.38 4.06.92 4.23-1.69-2.26-.84-4.74-1.5-6.19-3.6 1.08-2.49 1.03-5.23 1.38-7.87m4 19.99c-1.44 3.57 1.55 7.69 5 8.2 2.3-4.6-1.94-6.71-5-8.2z"/><path fill="#4c5362" d="M167.39 151.14c.58-5.61-1.64-12.04 3.5-16.06-1.23 5.89 5.94 1.28 5.99 5.9-.09 2.28-4.99 6.22-.83 6.86 3.17-1.19 5.05.61 6.51 3.23 7.74 4.04-1.1 10.49-1.78 16.04-1.67-1.48-3.59-4.33-5.95-2.27-3.28 3.51-7.23-3.99-7.25-5.31 7.14-1.43-1.39-4.26-.19-8.39m8.86 4.05c-3.68 1.57-2.75 9.05 1.68 7.8 4.94-.96 4.01-10.4-1.68-7.8z"/><path fill="#2e313a" d="M305.97 147.84c6.05.31 10.55-14.11 15.37-4-1.93 1.13-4.1.88-6.22.73-3.54 3.71-5.61 8.68-9.72 11.92 1.67 3.25-1.17 6.56-.48 9.48 2.26 2.63-1.55 2.47-3.42 2.75-.65-4.48-4.91-3.85-8.53-3.85.92-1.33 3.11-2.11 3.07-3.88.37-3.61-6.23-2.29-5.83-5.69 3.6-1.67 9.31-3.32 4.76-7.31l10.19-.15h.81z"/><path fill="#6a7075" d="M192.21 146.31c1.7-1.34 2.55-3.24 2.55-5.7l4.38.9c-2.54 3-4.38 6.64 1.01 6.45l-.06 3.11c-.18 1.49.53 2.3 2.12 2.44-1.44 1.03-4.2 1.1-4.16 3.32 3.52 1.09 7.21 1.28 10.88 1.41-.02 2.19-.33 4.36-.43 6.55-2.18 1.54-3.66 2.83-1.65 5.04-5 3.43-5.88 12.69-.82 17.13 2.16 4.8 9.12 3.62 11.84 7.2 1.11 2.83-3.13.31-3.49 2.88-.15-5.46-11.29-2.92-4.97.37-1.99 3.28-.94 4.21 2.68 3.02.28 4.3 7.05-.86 5.2 3.75-1.48 3.33 5.39 4.58 6.51 1.52 3.76-8.67-4.58-1.58-6.78-5.84 2.39-5.16 10.12-7 10.58.21 6.06 4.09-3.65 3.45-1.99 8.39-.34 1.37.07 2.72.46 4.02-4.1 1.44-5.18 4.72.08 4.95l-.44.6c-6.88 3.09-6.58-5.91-12.41-5.72-.11 5.67-7.71 5.48-10.31 9.68-3.46 3.38-2.99-4.72-6.95-3.23 3.2 2.6 5.32 7.91 2.28 11.39-3.88-.94-2.98-5.19-3.91-8.19-2.88 2.04-7.26 4.58-5.93-1.15-6.04-.03-2.45 6.46 1.87 5.9 5.48 1.16-4.47 6.32.62 7.35 2.32 1.97 3.97-1.44 6.05-2.2-2.68 3.56 2.21 1.6 4.31 1.53-1.62 2.83-5.28 4.91-4.34 8.64 3.34.93 3.5-2.63 4.51-4.83 3.62-.73 6.7 1.24 9.82 2.6-1.04-3.5-6.7-6.29-2.55-9.91-2.17 7.32 7.6-.54 4.5 8.09 6.71.99 4.27-14.86-2.28-11.05 1.47-2.71 4.52-2.83 7.17-2.19-2.91-2.79-.77-7.1 3.37-5.49 1.98 4.35 2.99 11.5 9.31 9.66 5.13-.44.4-4.88 1.05-7.93 3.09-.43 1.61 3.79 3.66 5.11 2.71 3.7 7.77-.21 11.59-.08-2.44 1.71-5.51 2.95-6.69 5.92-2.9 3.86.99 5.86 4.55 4.14 1.54 5.24-3.78 5.64-7.87 5.09 3.76-1.48-.52-9-2.38-4.4-2.82 3.73-7.67 5.81-9.59 10.38-2.3 4.86-8.35 3.11-12.73 3.52.7-6.61-7.37-4.46-6.64 1.42.69 3.02-5.05 6.11-4.9 1.84-.23-2.1-1.96 1.58-2.89 2.01.92-4.36 2.21-12.03-3.71-6.5 2.17 2.52 1.27 4.58 1.74 7.96-.12.81 1.72 3.16-.09 2.7-4.91 1.04-3.46-5.43-5.88-8.14-1.54-3.13-3.14 4.17-5.42 1.42-2.25-3.63 4.84-3.8 5.42-7-6.84-.02-7.54-8.89-12.29-12.21-2.85-1.65-2.37 4.3.09 4.02 4.49.22 6.63 6.92 2.26 8.88-.36-5.34-5.43-9.54-10.72-9.04-1.94-.65-3.87-1.29-5.77-2.04 1.63-3.14 5.34.12 7.36-2.14-.26-3.54-2.57-6.27-5.1-8.53 2.56-2.97-1.61-5.04-3.05-7.35 2.85.6 6.38-.84 9.15.66-9.34 2.18 2.2 19.13 5.24 8.51 1.4-2.8-1.81-4.86-3.16-6.98 3.48-.21-.46-7.99-4.1-5.3-1.2-4.5 5.24-4.14 4.88-8.64-5.19.97-3.18-4.09-3.54-7.34 2.06.58 1.68 3.86 4.42 3.21-2.17-5.08 3.27-10.11 7.62-5.32-2.95-.47-6.98 4.42-2.39 4.26 2.84.84 1.87-2.59 2.39-4.26 4.09.02-2.17-3.73-3.97-4.16-1.98-3.01 3.8.69 2.84-2.76 1.16.35 3.67.3 3.41 2.07-1.09 4.02 2.78 6.68 5.33 9.08-4.75 1.42-3.16 10.97 1.71 6.71 4.25-.69 1.57-10.33 5.59-6.92 3.61 1.71-1.92 4.36-1.59 7.14 1.61-2.84 3.05-.33 4.48 1.16 3.87-1.62-.49-5.73.32-8.76-4.03-2.48-10.19-1.14-12.39-6.11 3.2-2.64-1.43-6.03-2.37-8.81-1.95.99-4.42 2.81-3.02-.77.34-1.59.2-3.23-.13-4.8.57-6.6-3.66-.75-5.64-3.62 2.36-2.08 5.27-4.87 3.29-8.24 4.96 1.74-.31-5.97 4.55-4.83 2.67 2.86-1.4 7.64-1.23 11.31-5.38 6.71 9.06 4.88 4.93.18-5.97-3.38 1.85-9.83.16-13.09 4.01-2.11.23-4.5-.82-7.27 5.91 2.13 7.03-4.6 3.41-7.96m6.03 14.82c-3.2 1.99-1.72 8.32 2.01 5.14 4.58-.9 2.01-7.17-2.01-5.14m-1.05 18.93c-.41 3.84-2.74 6.36-5.1 8.82 4.46.43 8.26 3.34 12.92 4.12.48-2.3-.25-6.12-3.34-4.43-6.28 1.13 1.83-9.24-4.48-8.51m-16.38 31.19c1.55 2.53 5.86 2.59 3.24 6.82 3.33-1.79 10.41-2.27 9.96-7.07-3.11-.77-5.31 1.73-7.85 3 .92-4.28-2.99-1.41-5.35-2.75z"/><path fill="#969f8c" d="M200.15 147.96c-5.39.19-3.55-3.45-1.01-6.45 4.82.22 6.39 5.55 1.01 6.45z"/><path fill="#84888c" d="M209.09 141.95c3.77.27 2.78 4.74 5.5-.15 1.45 2.1 3.93 2.76 6.19 3.6-.17 2.61-2.31 2.07-4.23 1.69.23 2.29-.33 6.41-3.44 5.86-2.47-.08-.91-5.55-3.89-4.79-1.45 3.02-3.27 5.6-7.01 5.35-1.59-.14-2.3-.95-2.12-2.44 4.75 1 9.68-4.55 9-9.12z"/><path fill="#7d8489" d="M186.97 142.99c2.79-.66 4.85.35 5.24 3.32 3.62 3.36 2.5 10.09-3.41 7.96 1.05 2.77 4.83 5.16.82 7.27 1.69 3.26-6.13 9.71-.16 13.09 4.13 4.7-10.31 6.53-4.93-.18-.17-3.67 3.9-8.45 1.23-11.31-4.86-1.14.41 6.57-4.55 4.83l-.43-.86c.68-5.55 9.52-12 1.78-16.04 1.04-1.81 2.77-2.47 4.02-.46 3.87-1.32 1.09-5 .39-7.62z"/><path fill="#535761" d="M315.12 144.57c2.12.15 4.29.4 6.22-.73l1.04 3.03c-1.45 3.92-3.88 7.31-7.03 10.03-2.74-.36-5.57-1.89-8.31-.78-.62 4.82 4.91 8.97 7 3.66-.76 5.6-3.36 10.79-7.03 15.04 1.68 2.6 4.54 1.56 7.06 1.28.51 2.74-2.21 3.13-4.05 4.16-.84 4.71 4.42 6.06 8.07 5.76.55-2.51-2.42-3.2-2.94-5.1.31-3.35 4.26-2.92 6.52-4.24 2.06-3.8 3.85-7.73 5.71-11.63 1.79-.9 3.64-2.46 5.66-1.19l.28 3.92c-2.52 2.67-4.91 5.54-5.93 9.14-3.96-2.73-9.48 4.31-7.18 7.94 3.08 1.22 4.95-1.38 6.49-3.57 1.8-.42 3.56-.99 5.39-1.33-1.46 4.38-10.28 6.61-6.95 11.3-4.19.77-2.73-2.77-2.31-5.39-4.38-.32-5.65 3.37-5.69 7.22l-2.14 1.78-3.08 1.43c-1.01-.61-1.82-1.46-2.54-2.38-.45-2.37-4.95-5.37-1.21-6.83 3.35-3.15-3.87-4.23-2.55-7.41 2.09-3.43-2.57-5.62-2.82-1.53-2.13-2.09-5.68-4.44-3.63-7.73 3.03 1.19 11.42-2.76 5.75-4.45-.69-2.92 2.15-6.23.48-9.48 4.11-3.24 6.18-8.21 9.72-11.92z"/><path fill="#32353d" d="M322.38 146.87c2.17.17 4.66-.05 6.07 1.97-3.85 4.61-10.69 8.6-9.08 15.64-2.68 3.13-5.55 6.44-2.73 10.48 5.9-.07 5.09-7.79 8.44-11.1l2.3 1.19c-1.86 3.9-3.65 7.83-5.71 11.63-2.26 1.32-6.21.89-6.52 4.24.52 1.9 3.49 2.59 2.94 5.1-3.65.3-8.91-1.05-8.07-5.76 1.84-1.03 4.56-1.42 4.05-4.16-2.52.28-5.38 1.32-7.06-1.28 3.67-4.25 6.27-9.44 7.03-15.04l1.31-2.88c3.15-2.72 5.58-6.11 7.03-10.03z"/><path fill="#2c2f37" opacity=".98" d="M274.73 172.84c2.71-7.91 1.13-20.95 10.27-24.96l2.01.05c-3.76 3.05.3 6.94-.17 10.74-3.6 2.34-6.54 5.77-5.87 10.4 2.88-.05 5.62-1.2 7.53-3.37 3.6-.93 5.29 2.5 6.39 5.33-2.02-.29-4.01-.74-6.04-.94-7.1-1.92-1.22 6.81.96 10 .75.94 1.61 1.79 2.45 2.65 2.15 3.72-2.48 2.44-5.33 2.41l-1.93-1.62c-.82-4.72-4.68-6.37-9.02-5.55 2.14 2.2 4.98 4.46 2.85 7.75-4.02-.22-8.06-1.12-12 .07 2.69-4.26 6.87-7.88 7.9-12.96z"/><path fill="#3a3d4c" d="M287.01 147.93l7.96.06c4.55 3.99-1.16 5.64-4.76 7.31-.4 3.4 6.2 2.08 5.83 5.69.04 1.77-2.15 2.55-3.07 3.88 3.62 0 7.88-.63 8.53 3.85 1.87-.28 5.68-.12 3.42-2.75 5.67 1.69-2.72 5.64-5.75 4.45-2.05 3.29 1.5 5.64 3.63 7.73-.37 1.41 1.25 4.91-.81 4.85-3.08.82-.48-3.18-2.69-4.19-2.02-2.16-4.21-4.12-6.47-6-1.25-1.01-2.62-1.87-3.98-2.72 2.03.2 4.02.65 6.04.94-1.1-2.83-2.79-6.26-6.39-5.33-1.91 2.17-4.65 3.32-7.53 3.37-.67-4.63 2.27-8.06 5.87-10.4.47-3.8-3.59-7.69.17-10.74z"/><path fill="#42444e" opacity=".97" d="M328.45 148.84c4.03 3.79 1.47 10.34 4.59 15.02-2.02-1.27-3.87.29-5.66 1.19l-2.3-1.19c.81-1.7 3.16-4.55-.18-4.83-3.85-1.36-3.46 3.56-5.53 5.45-1.61-7.04 5.23-11.03 9.08-15.64z"/><path fill="#555a69" d="M153 153.16c4.23-1.9 9.35-.65 12.99 2.02-.52 4.05-7.24 5.2-7.78 8.58 2.96 4.92 5.1-5.72 6.21.46 1.33 4.7-1.87 7.22-6.2 4.9-.45-2.61-5.09-5.59-1.61-7.53 4.29-3.42-4.32-4.54-3.61-8.43z"/><path fill="#9193a4" d="M219.97 153.92c3.06 1.49 7.3 3.6 5 8.2-3.45-.51-6.44-4.63-5-8.2z"/><path fill="#707874" d="M176.25 155.19c5.69-2.6 6.62 6.84 1.68 7.8-4.43 1.25-5.36-6.23-1.68-7.8z"/><path fill="#7a8188" d="M307.04 156.12c2.74-1.11 5.57.42 8.31.78l-1.31 2.88c-2.09 5.31-7.62 1.16-7-3.66z"/><path fill="#585c71" d="M125.97 161.04c3.39-3.58 10.13-4.78 8.81 3.17.04 3.25 2.74 7.61-1.07 9.62-2.57.64-4.65-1.61-6.78-2.67l-1.04-1.06v-2.07l.08-6.99z"/><path fill="#313237" d="M135.08 158.9c1.46 2.59 3.88 2.93 6.6 2.31-1.03 5.65 8.16 5.46 9.84 1 1.85 2.73 2.77 6.64 6.7 6.91 1.17 8.13-4.13-2.29-7.14 2.11-.2 2.7 2.56 4.77 1.91 7.57-2.64 2.23-9.08.01-7.38 5.07-2.93 2.13-6.3 3.49-9.38 5.36-1.66 1.86-.61 5.85-4.27 4.79-.16-4.25 4.24-9.56.3-12.67-2.09-2.55-3.87-5.34-5.33-8.29v-1.9c2.13 1.06 4.21 3.31 6.78 2.67 3.81-2.01 1.11-6.37 1.07-9.62.06-1.78.16-3.55.3-5.31z"/><path fill="#686e74" d="M319.37 164.48c2.07-1.89 1.68-6.81 5.53-5.45 3.34.28.99 3.13.18 4.83-3.35 3.31-2.54 11.03-8.44 11.1-2.82-4.04.05-7.35 2.73-10.48z"/><path fill="#9497a5" d="M198.24 161.13c4.02-2.03 6.59 4.24 2.01 5.14-3.73 3.18-5.21-3.15-2.01-5.14z"/><path fill="#40424e" d="M220.05 162.04c3.48-.96 12.37 6.46 12.03-.09 2.67 6.52 12.64 2.15 18.08 4.72-1.69 2.43-1.24 4.89 2.01 4.94a25.86 25.86 0 0 0-4.05 1.65c-1.85-5.62-11.4-6.19-12.52.32-2.46-1.68-7.03-4.35-11.36-4.42-.15 3.42-8.66 8.86-1.97 8.39 2.92.39 3.78 4.47 6.03 6.22 2.78-.47 5.7-2.32 8.49-.82.65 4.88 4.5-.88 6.64-.36 3.39 2.09 7.65.89 11.44 1.32-2.81 1.6-3.25 4.56-2.61 7.54l-1.3.85c-3.26.15-.71-2.6-.32-4.25-2.64-3.59-7.6-1.01-11.37-.89 2.11 4.47-3.73 6.73-4.18.8-1.08-5.77-5.42-1.23-7.7.73-2.09-1.69-4.53-7.04-7.33-3.42-.83 2.69.17 9.93 4.6 8.45 5.82-3.07 5.48 1.54 5.97 5.51 1.91 2.32 5.14 2.48 7.73 3.62 1.86 3.64-2.44 5.37-5.15 6.5.19-2.56-.29-6.22-3.02-3.15-3.03 2.12 1.2 2.71 3.02 3.15l-2.2.84c-1.73-.8-3.45-1.72-5.4-1.73-1.66-4.94 8.05-4.3 1.99-8.39-.46-7.21-8.19-5.37-10.58-.21 2.2 4.26 10.54-2.83 6.78 5.84-1.12 3.06-7.99 1.81-6.51-1.52 1.85-4.61-4.92.55-5.2-3.75.81-1.1 1.58-2.23 2.29-3.39.36-2.57 4.6-.05 3.49-2.88-2.72-3.58-9.68-2.4-11.84-7.2-5.06-4.44-4.18-13.7.82-17.13-2.01-2.21-.53-3.5 1.65-5.04 1.73 2.19-.74 7.36 5.25 4.04 3.55-2.49-2.94-2.03-2.84-4.66 3.06-.68 7.11.84 9.14-2.13z"/><path fill="#37373b" opacity=".95" d="M250.16 166.67c5.12 1.59 10.22 4.37 13.91 8.29 4.12 8.18-5.03 14.29-11.81 16.49-.64-2.98-.2-5.94 2.61-7.54 6.71-3 2.71-10.73-2.7-12.3-3.25-.05-3.7-2.51-2.01-4.94z"/><path fill="#404248" opacity=".96" d="M333.32 167.78c5.08 3.58 3.68 10.14.18 14.37l-1.41-2.19c-1.83.34-3.59.91-5.39 1.33l.69-4.37c1.02-3.6 3.41-6.47 5.93-9.14z"/><path fill="#535767" d="M224.24 169.16c4.33.07 8.9 2.74 11.36 4.42 1.12-6.51 10.67-5.94 12.52-.32-1.81 2.51-4.93.23-7.28-.27-5.45-3.24-4.45 6.48-4.05 9.96-2.79-1.5-5.71.35-8.49.82-2.25-1.75-3.11-5.83-6.03-6.22-6.69.47 1.82-4.97 1.97-8.39z"/><path fill="#5f6767" d="M289.81 180.09c-2.18-3.19-8.06-11.92-.96-10 1.36.85 2.73 1.71 3.98 2.72-3.56.68-3.34 4.12-3.02 7.28z"/><path fill="#72737f" d="M236.79 182.95c-.4-3.48-1.4-13.2 4.05-9.96 2.35.5 5.47 2.78 7.28.27a25.86 25.86 0 0 1 4.05-1.65c5.41 1.57 9.41 9.3 2.7 12.3-3.79-.43-8.05.77-11.44-1.32-2.14-.52-5.99 5.24-6.64.36z"/><path fill="#8f92a1" d="M289.81 180.09c-.32-3.16-.54-6.6 3.02-7.28 2.26 1.88 4.45 3.84 6.47 6-.43 2.75-1.08 5.85-4.25 6.56l-2.79-2.63-2.45-2.65z"/><path fill="#6a7077" d="M302.8 178.15c.25-4.09 4.91-1.9 2.82 1.53-1.32 3.18 5.9 4.26 2.55 7.41-3.74 1.46.76 4.46 1.21 6.83-1.5 3.05-8.42 6.02-5.49-1.82-.5-3.97-7.13-2.99-8.84-6.73 3.17-.71 3.82-3.81 4.25-6.56 2.21 1.01-.39 5.01 2.69 4.19 2.06.06.44-3.44.81-4.85z"/><path fill="#7c878f" d="M320.21 184.86c-2.3-3.63 3.22-10.67 7.18-7.94l-.69 4.37c-1.54 2.19-3.41 4.79-6.49 3.57z"/><path fill="#40444b" d="M275.98 177.98c4.34-.82 8.2.83 9.02 5.55-3.97 1.62-2.39 9.38-8.88 6.82-1.79.38-3.33-.85-4.97-1.32.66 2.1.73 3.72-1.94 2.7-.79-1.86-1.92-3.54-3.39-4.92l1.01-1.01c3.94-1.19 7.98-.29 12-.07 2.13-3.29-.71-5.55-2.85-7.75z"/><path fill="#4d545b" d="M172.93 181.06c3.83-3.88 8.13 2.56 10.63-1.23.33 1.57.47 3.21.13 4.8-2.89.77-2.73 2.96-1.47 5.21.96 3.45-4.82-.25-2.84 2.76 1.8.43 8.06 4.18 3.97 4.16-4.35-4.79-9.79.24-7.62 5.32-2.74.65-2.36-2.63-4.42-3.21.36 3.25-1.65 8.31 3.54 7.34.36 4.5-6.08 4.14-4.88 8.64 3.64-2.69 7.58 5.09 4.1 5.3l-2.08-1.53c-2.77-1.5-6.3-.06-9.15-.66 1.44 2.31 5.61 4.38 3.05 7.35-4.36.1-4.07-4.46-4.87-7.73 12.47-1.84-2.04-1.25.4-6.57-.89-3.72-3.25-7.04-6.61-8.96l.23-2.11c2.56.18 5.08.72 7.63.86 1.06-2.27 1.74-4.71 3-6.89.29 2.15 1.41 5.4 4.11 5.04 2.13-1.4.99-4.07.34-5.97 3.21.77 4.61-3.06 1.95-4.76 5.73-.06 5.71-5.39.86-7.16z"/><path fill="#8c9294" d="M197.19 180.06c6.31-.73-1.8 9.64 4.48 8.51 3.09-1.69 3.82 2.13 3.34 4.43-4.66-.78-8.46-3.69-12.92-4.12 2.36-2.46 4.69-4.98 5.1-8.82z"/><path fill="#7a858e" opacity=".97" d="M332.09 179.96l1.41 2.19c-1.04 3.91-3.46 7.61-7.3 9.25l-1.06-.14c-3.33-4.69 5.49-6.92 6.95-11.3z"/><path fill="#70797b" d="M172.07 188.22c-2.85-1.83-3.99-8.52.86-7.16 4.85 1.77 4.87 7.1-.86 7.16z"/><path fill="#43484a" d="M292.26 182.74l2.79 2.63c1.71 3.74 8.34 2.76 8.84 6.73-2.93 7.84 3.99 4.87 5.49 1.82.72.92 1.53 1.77 2.54 2.38-2.35 1.1-4.59 2.43-6.77 3.84-2.28-1.16-4.63-2.21-6.8-3.58-2.38-2.74 2.22-7.67-3.39-8.51-2.68-3.08-3.87-2.18-4.32.56-2.46.73-3.01-1.62-3.71-3.46 2.85.03 7.48 1.31 5.33-2.41z"/><path fill="#303139" d="M220.06 185.27c2.8-3.62 5.24 1.73 7.33 3.42 2.28-1.96 6.62-6.5 7.7-.73.45 5.93 6.29 3.67 4.18-.8 3.77-.12 8.73-2.7 11.37.89-.39 1.65-2.94 4.4.32 4.25-2.16 1.85-5.03 1.59-7.71 1.53-3.64.19-8.12-2.36-11.48-.1-1.37 1.35-.71 3.73-1.14 5.5-.49-3.97-.15-8.58-5.97-5.51-4.43 1.48-5.43-5.76-4.6-8.45z"/><path fill="#666b6d" d="M276.12 190.35c6.49 2.56 4.91-5.2 8.88-6.82l1.93 1.62c.7 1.84 1.25 4.19 3.71 3.46.45-2.74 1.64-3.64 4.32-.56 5.61.84 1.01 5.77 3.39 8.51 2.17 1.37 4.52 2.42 6.8 3.58.84 4.97-4.33 6.42-7.89 7.94.36-3.2-.06-7.67-3.96-8.04l-1.86-.38c-1.47-.32-2.96-.51-4.45-.69-3.36-1.16-2.29-3.42-1.02-5.87-1.95-3.18-6.16-3.63-2.38.5-2.72 1.6-4.43 3.76-1.77 6.47-2.23-.37-4.44-.83-6.68-1.12-1.32-2.67-1.78-7.42-5.9-5.84-3.34 3.2.9 8.06 2.22 11.4-.75.73-1.27 1.84-2.34 2.14-3.12-4.68-8.86-12.78.09-14.92 2.67 1.02 2.6-.6 1.94-2.7 1.64.47 3.18 1.7 4.97 1.32z"/><path fill="#7d8485" d="M182.22 189.84c-1.26-2.25-1.42-4.44 1.47-5.21-1.4 3.58 1.07 1.76 3.02.77.94 2.78 5.57 6.17 2.37 8.81 2.2 4.97 8.36 3.63 12.39 6.11-.81 3.03 3.55 7.14-.32 8.76-1.43-1.49-2.87-4-4.48-1.16-.33-2.78 5.2-5.43 1.59-7.14-4.02-3.41-1.34 6.23-5.59 6.92-4.87 4.26-6.46-5.29-1.71-6.71-2.55-2.4-6.42-5.06-5.33-9.08.26-1.77-2.25-1.72-3.41-2.07z"/><path fill="#292d33" opacity=".93" d="M317.14 193.09c.04-3.85 1.31-7.54 5.69-7.22-.42 2.62-1.88 6.16 2.31 5.39l1.06.14c-2.97.84-6.06 1.06-9.06 1.69z"/><path fill="#2d2f39" d="M252.72 200.93c3.39-5.52 8.59-9.56 13.1-14.12 1.47 1.38 2.6 3.06 3.39 4.92-8.95 2.14-3.21 10.24-.09 14.92-2.73.13-.95 1.98-.32 3.39-1.67 1.29-3.83-.04-5.72.05l-.04 7.2c-1.34.67-2.77 1.33-3.46 2.76-2.08 2.15-3.17-3.95-4.73-1.32-1.51 5.92-7.2 11.4-5.06 17.76-4.07.51-4.81-5.74-9.34-4.56 1.18-2.97 4.25-4.21 6.69-5.92-3.82-.13-8.88 3.78-11.59.08l5.66-1.66c5.11-.13-.31-6.11 2.87-9.37-3.23 1-4.86.57-3.53-2.94-2.56-2.35-11.95-.95-7.29 4.09-1.43.34-2.87.62-4.31.88.9-2.23 1.66-4.52 2.06-6.9l2.2-.84c2.71-1.13 7.01-2.86 5.15-6.5 4.44 1.66 8.79 4.31 13.69 4.08l.67-6z"/><path fill="#242320" opacity=".61" d="M125.9 201.63c.12-4.31.08-8.64.86-12.88.19 3.68.27 7.35.29 11.05l-.28 2.28-.87-.45z"/><path fill="#72777a" d="M283.59 193.6c-3.78-4.13.43-3.68 2.38-.5-1.27 2.45-2.34 4.71 1.02 5.87-4.19 3.94-3.04 10.79.17 15.09-3.9-.14-7.62-.22-6.24 4.92-1.85-1.04-3.81-1.95-5.95-2.11 5.32 6.79-5.47 7.32-10.06 9.23.13-4.54 4.22-7.35 6.41-10.94-2.79.61-5.41 1.95-8.28 2.13l.04-7.2c1.89-.09 4.05 1.24 5.72-.05-.63-1.41-2.41-3.26.32-3.39 1.07-.3 1.59-1.41 2.34-2.14 2.88-.6 4.14-2.69 3.68-5.56 2.24.29 4.45.75 6.68 1.12-2.66-2.71-.95-4.87 1.77-6.47z"/><path fill="#5e6576" d="M148.17 203.74c-1.78-6.41 9.93-18.1 6.87-3.8l-.23 2.11c-1.88 1.06-5.02 4.63-6.64 1.69z"/><path fill="#6e7488" d="M165.67 193.91c1.41-.6 2.94-.8 4.45-.93.65 1.9 1.79 4.57-.34 5.97-2.7.36-3.82-2.89-4.11-5.04z"/><path fill="#9295a5" d="M269.24 193.11c4.12-1.58 4.58 3.17 5.9 5.84.46 2.87-.8 4.96-3.68 5.56-1.32-3.34-5.56-8.2-2.22-11.4z"/><path fill="#8d9394" d="M209.41 197.41c-6.32-3.29 4.82-5.83 4.97-.37l-2.29 3.39c-3.62 1.19-4.67.26-2.68-3.02z"/><path fill="#acb0b3" d="M180.96 201.02c-4.59.16-.56-4.73 2.39-4.26-.52 1.67.45 5.1-2.39 4.26z"/><path fill="#4a4e5a" opacity=".98" d="M286.99 198.97l4.45.69c-4.12 3.23-4.49 9.18-2.33 13.65.36 2.89 2.8 2.91 5.05 1.91-1.07 2-2.09 4.03-2.97 6.12-1.4-2.4-2.7-4.85-4.03-7.28-3.21-4.3-4.36-11.15-.17-15.09z"/><path fill="#313338" d="M127.05 199.8c6.62.87 4.2 9.89 9.85 12.3 2.42-3.6.51-10.13 6.06-11.33-.75 6.71-4.89 13.26-2.71 20.11 7.68-4.26 4.78 2 7.91 6.15 5.69.13 2.85-5.4 1.74-8.83l7.91-1.36c-4.13 4.97-3.63 12.87 1.99 16.41 1.12 1.1 2.25 2.31 3.83 2.73 1.9.75 3.83 1.39 5.77 2.04a9.18 9.18 0 0 1-2.33 2.28c-4.75-.14-8.37-3.82-12.87-4.27-1.11 2.18-1.25 4.63-1.26 7.03l-.84-.1c-.02-1.18-.33-2.23-.94-3.15-.63-.69-1.31-1.32-2.04-1.89-4.73-3.66-10.27-6.81-12.15-12.9-2.47-4.1-.26-10.06-4.52-13.06l-2.06-1.98-3.62-7.9.28-2.28z"/><path fill="#9da497" d="M291.44 199.66l1.86.38-3.93 6.2c.6 2.31 2.31 5.29-.26 7.07-2.16-4.47-1.79-10.42 2.33-13.65z"/><path fill="#808a59" d="M293.3 200.04c3.9.37 4.32 4.84 3.96 8.04-.56 2.56-1.77 4.9-3.1 7.14-2.25 1-4.69.98-5.05-1.91 2.57-1.78.86-4.76.26-7.07 1.14-2.17 2.7-4.08 3.93-6.2m.92 5.13c-.76 1.52-2.73 5.93.61 4.7.9-1.31 2.19-5.89-.61-4.7z"/><path fill="#6d6f76" d="M230.19 206.2c2.73-3.07 3.21.59 3.02 3.15-1.82-.44-6.05-1.03-3.02-3.15z"/><path fill="#d1d7be" d="M294.22 205.17c2.8-1.19 1.51 3.39.61 4.7-3.34 1.23-1.37-3.18-.61-4.7z"/><path fill="#18191b" d="M225.61 208.46c1.95.01 3.67.93 5.4 1.73-.4 2.38-1.16 4.67-2.06 6.9-2.16 3.35 4.91 6.89.8 9.81-4.29 1.07-7.41-6.21-4.04-8.87l.44-.6c1.57-1.39.58-3.39-.08-4.95-.39-1.3-.8-2.65-.46-4.02z"/><path fill="#8d929d" d="M180.81 211.25c2.36 1.34 6.27-1.53 5.35 2.75 2.54-1.27 4.74-3.77 7.85-3 .45 4.8-6.63 5.28-9.96 7.07 2.62-4.23-1.69-4.29-3.24-6.82z"/><path fill="#60636f" d="M233.26 216.21c-4.66-5.04 4.73-6.44 7.29-4.09-1.33 3.51.3 3.94 3.53 2.94-3.18 3.26 2.24 9.24-2.87 9.37-5.31.64-4.34-5.79-7.95-8.22z"/><path fill="#474a53" d="M213.3 212.31c5.83-.19 5.53 8.81 12.41 5.72-3.37 2.66-.25 9.94 4.04 8.87 4.11-2.92-2.96-6.46-.8-9.81 1.44-.26 2.88-.54 4.31-.88 3.61 2.43 2.64 8.86 7.95 8.22l-5.66 1.66c-2.05-1.32-.57-5.54-3.66-5.11-.65 3.05 4.08 7.49-1.05 7.93-6.32 1.84-7.33-5.31-9.31-9.66-4.14-1.61-6.28 2.7-3.37 5.49-2.65-.64-5.7-.52-7.17 2.19a38.05 38.05 0 0 0-2.22 2.96c-4.15 3.62 1.51 6.41 2.55 9.91-3.12-1.36-6.2-3.33-9.82-2.6-1.01 2.2-1.17 5.76-4.51 4.83-.94-3.73 2.72-5.81 4.34-8.64-2.1.07-6.99 2.03-4.31-1.53.33-.42.97-1.28 1.3-1.71 3.04-3.48.92-8.79-2.28-11.39 3.96-1.49 3.49 6.61 6.95 3.23 2.6-4.2 10.2-4.01 10.31-9.68z"/><path fill="#94979e" d="M226.15 217.43c-5.26-.23-4.18-3.51-.08-4.95.66 1.56 1.65 3.56.08 4.95z"/><path fill="#8a8d9b" d="M280.92 218.98c-1.38-5.14 2.34-5.06 6.24-4.92-.1 4.51-7.39 15.44-6.24 4.92z"/><path fill="#60646c" d="M287.16 214.06l4.03 7.28-.22.68c-3.41-.86-3.64 2.62-3.96 5.08l-1.08.87c-4.2-1.05-4.32 5.34-8.66 2.16.61-4.02-5.64-5.82-7.47-2.34 5.77-2.74.61 6.67 6.19 5.43-3.28 3.79-8.33-1.56-8.42-5.29-3.58 2.12-1.29 9.61-6.21 5.49-.9 5.93-7.58 1.79-11.57 3.07-.27-2.42 1.9-2.38 3.63-2.77-.1-2.01-.6-5.66 2.44-5.32-1.96-5.82.17-1.4 2.97-5.4.85 2.48 3.09 7.59 5.28 3.14-1.87-1.76-4.31-3.26-4.53-6.09.69-1.43 2.12-2.09 3.46-2.76 2.87-.18 5.49-1.52 8.28-2.13-2.19 3.59-6.28 6.4-6.41 10.94 4.59-1.91 15.38-2.44 10.06-9.23 2.14.16 4.1 1.07 5.95 2.11-1.15 10.52 6.14-.41 6.24-4.92z"/><path fill="#5b6148" d="M159.8 233.25c-.83-4.94-5.31-13.83 1.22-15.67.8 3.27.51 7.83 4.87 7.73 2.53 2.26 4.84 4.99 5.1 8.53-2.02 2.26-5.73-1-7.36 2.14-1.58-.42-2.71-1.63-3.83-2.73z"/><path fill="#414652" d="M254.85 218.73c1.56-2.63 2.65 3.47 4.73 1.32.22 2.83 2.66 4.33 4.53 6.09-2.19 4.45-4.43-.66-5.28-3.14-2.8 4-4.93-.42-2.97 5.4-3.04-.34-2.54 3.31-2.44 5.32-1.73.39-3.9.35-3.63 2.77-2.14-6.36 3.55-11.84 5.06-17.76z"/><path fill="#92929e" d="M177.23 227.13c-3.04 10.62-14.58-6.33-5.24-8.51l2.08 1.53c1.35 2.12 4.56 4.18 3.16 6.98z"/><path fill="#7e828c" d="M190.35 226.71c-4.32.56-7.91-5.93-1.87-5.9-1.33 5.73 3.05 3.19 5.93 1.15.93 3 .03 7.25 3.91 8.19l-1.3 1.71c-2.08.76-3.73 4.17-6.05 2.2-5.09-1.03 4.86-6.19-.62-7.35z"/><path fill="#3a3d43" opacity=".86" d="M287.01 227.1c.32-2.46.55-5.94 3.96-5.08-.33 2.31-2.24 3.77-3.96 5.08z"/><path fill="#989d9e" d="M210.99 226.93c6.55-3.81 8.99 12.04 2.28 11.05 3.1-8.63-6.67-.77-4.5-8.09a38.05 38.05 0 0 1 2.22-2.96z"/><path fill="#888b9a" d="M269.8 227.79c1.83-3.48 8.08-1.68 7.47 2.34l-1.28 3.09c-5.58 1.24-.42-8.17-6.19-5.43z"/><path fill="#484d56" d="M261.36 233.42c4.92 4.12 2.63-3.37 6.21-5.49.09 3.73 5.14 9.08 8.42 5.29l1.28-3.09c4.34 3.18 4.46-3.21 8.66-2.16-1.53 2.86-2.17 6.04-2.71 9.23 2.24-10.14-10.6 3.09-4.04 4.22-5.06-.58-8.4 2.44-10.01 6.76-3.95.98-7.97 1.67-12.06 1.54l-5.22-.21c-8.13 5.15-18.04 5.11-27.31 3.96-3.77-2.78-4.91.63-6.32 2.67.33-6.09-15.95.34-13.26 5.64-3.84-1.38-9.03.8-8.44 5.45-2.07-.79-4.26-1.13-6.32-.1-4.48 0-8.95.06-13.42-.02-2.33-.62-4.58-1.51-6.92-2.08l2.07-2.95c2.4 1.63 5.15 2.73 8.05 3.05-2.34-2.87-8.66-8.63-3.49-11.75 1.36-2.33-2.55-2.81-3.51-.53-.1-3.59-1.12-7.16-3.26-10.04-.84-.9-1.78-1.7-2.69-2.51a9.18 9.18 0 0 0 2.33-2.28c5.29-.5 10.36 3.7 10.72 9.04 4.37-1.96 2.23-8.66-2.26-8.88-2.46.28-2.94-5.67-.09-4.02 4.75 3.32 5.45 12.19 12.29 12.21-.58 3.2-7.67 3.37-5.42 7 2.28 2.75 3.88-4.55 5.42-1.42 2.42 2.71.97 9.18 5.88 8.14 1.81.46-.03-1.89.09-2.7l1.97-1.46c.93-.43 2.66-4.11 2.89-2.01-.15 4.27 5.59 1.18 4.9-1.84-.73-5.88 7.34-8.03 6.64-1.42 4.38-.41 10.43 1.34 12.73-3.52 1.92-4.57 6.77-6.65 9.59-10.38 1.86-4.6 6.14 2.92 2.38 4.4 4.09.55 9.41.15 7.87-5.09-3.56 1.72-7.45-.28-4.55-4.14 4.53-1.18 5.27 5.07 9.34 4.56 3.99-1.28 10.67 2.86 11.57-3.07z"/><path fill="#7c8186" opacity=".95" d="M279.18 241.42c-6.56-1.13 6.28-14.36 4.04-4.22-.31 2.05-2.13 3.63-4.04 4.22z"/><path fill="#555c4a" d="M154.2 236.03c4.5.45 8.12 4.13 12.87 4.27.91.81 1.85 1.61 2.69 2.51-4.44 1.1-1.8 6.81-3.37 9.82 2.53 2.79 6 5.27 5.58 9.45l-2.07 2.95c-7.68.06-13.59-6.07-15.89-13.02-.43-2.97-.77-5.98-1.07-8.95.01-2.4.15-4.85 1.26-7.03z"/><path fill="#707860" d="M166.39 252.63c1.57-3.01-1.07-8.72 3.37-9.82 2.14 2.88 3.16 6.45 3.26 10.04.96-2.28 4.87-1.8 3.51.53-5.17 3.12 1.15 8.88 3.49 11.75-2.9-.32-5.65-1.42-8.05-3.05.42-4.18-3.05-6.66-5.58-9.45z"/><path fill="#878d95" d="M194.29 249.43c5.92-5.53 4.63 2.14 3.71 6.5l-1.97 1.46c-.47-3.38.43-5.44-1.74-7.96z"/><path fill="#1e1e24" opacity=".65" d="M251.89 249.51l5.22.21c-1.58 1.07-3.74 1.02-5.22-.21z"/><path fill="#9193a0" d="M205 261.78c-2.69-5.3 13.59-11.73 13.26-5.64-.65 3.55-1.95 7.19-5.19 9.17-3.05-.26-5.38-2.33-8.07-3.53z"/><path fill="#5a623d" opacity=".98" d="M196.56 267.23c-.59-4.65 4.6-6.83 8.44-5.45 2.69 1.2 5.02 3.27 8.07 3.53-1.83 1.19-3.77 2.21-5.8 2.99l-8.43-.14-2.28-.93z"/><path fill="#17191e" opacity=".65" d="M176.82 267.11c4.47.08 8.94.02 13.42.02l-2.04 1.17c-3.83-.11-7.62-.5-11.38-1.19z"/><path fill="#252916" opacity=".62" d="M198.84 268.16l8.43.14c-2.67 1.3-5.69.57-8.43-.14z"/></svg>