<svg xmlns="http://www.w3.org/2000/svg" width="512" height="512" viewBox="0 0 384 384" xmlns:v="https://vecta.io/nano"><path fill="#4a4f58" d="M183.28 35.12c3.65.91 7.47 2.4 9.71-1.51 1.54 1 3.61 1.03 5.11-.09l3.3 4.08c1.84-1.01 3.47-3.52 5.78-2.07-4.4-.84 1.44 3.68-.94 3.18-3.43-1.42-6.09 2.71-4.66 6.17-3.7.2-9.02-2.87-11.57.79 6.69 1.86 13.1 9.59 10.67 16.16-12.51 3.06 2.14-2.58-2.95-4.62-2.82-1.34-3.72 1.88-4.79 3.77-2.12-1.05-4.95-3.23-6.99-.82.31 2.25 1.83 4.06 3.09 5.86-7.13-4.4-9 8.1-2.02 9.03 4.09 1.07-1.27 3.74-1.15 6.1 6.32-2.83 13.09-13.46 20.14-7.87-3.21 5.11-13.57 10.33-9.89 17.59 4.5 5.33 9.66 10.95 17.17 10.86-4.07 1.33-8.53 7.86-12.58 3.54-3.5-3.52-6.66 4.44-10.67 3.71-4.96 2.5-2.17-5.06 1.6-3.66 5.75.37-2.45-7.98-4.83-4.61-1.64 3.27-2.79 6.76-4.02 10.2l-1.73 1.16c-2.49-1.52-5.29-2.54-8.25-2.23-2.61.14-5.05 1.45-6.69 3.46-1.81 5.71 3.77 8.21 7.17 11.14-9.26 2.13-11.6-9.89-6.36-15.52-1.23-4.83-12.54-12.99-1.8-13.98-1.48 1.2-3.28 2.22-4.18 3.97 3.12 2.12 7.01 1.64 10.35.4-.79 2.09-.21 7.56 2.88 4.92 1.4-2.92 6.72-4.33 5.05-7.98 5.56-1.4-4.82-5.93-4.32-1.38-.49-3.3-5.23-3.83-2.04-6.91-2.85-1.28-6.22-1.3-8.78-3.17-1.39-3.9 3.4-2.57 5.81-3.9-.26-4.1-.57-8.29-2.64-11.92 2.38-2.25 6 .09 8.69.72.46-4.04 2-9-1.92-11.78-2.99 1.09-5.6 5.15-9 2.93.01-2.51 1.85-4.53 3.22-6.48 2.7 1.08 5.75-.85 4.89-3.85 2.55-.92 7.1-3.62 2.74-5.47 6.06 1.18 3.05-7.69 7.4-9.92z"/><path fill="#626569" d="M206.24 38.71c2.38.5-3.46-4.02.94-3.18 3.14 3.93 5.09 7.98 12.09 6.16 1.41 3.87 3.26 7.85 2.04 12.04 4.44.91 9.79.96 11.19 6.19-7.35 1.83-13.3 8.21-21.18 7.46-1.81 1.2-3.06 3.01-4.33 4.72l-.98 1.18c-7.05-5.59-13.82 5.04-20.14 7.87-.12-2.36 5.24-5.03 1.15-6.1-6.98-.93-5.11-13.43 2.02-9.03 2.78-.19 6.05-2.02 3.9-5.04 1.07-1.89 1.97-5.11 4.79-3.77 5.09 2.04-9.56 7.68 2.95 4.62 2.43-6.57-3.98-14.3-10.67-16.16 2.55-3.66 7.87-.59 11.57-.79-1.43-3.46 1.23-7.59 4.66-6.17m7.78 9.4c-1.18 7.9-4.63-2.25-9.05 3.05 1.94 5.23 8.25 13.15-3.14 9.99.77 4.44 6.1 7 9.95 4.64.86-3.77-.74-14.01 5.01-9.03 5.31-3.58 2.25-7.33-2.77-8.65z"/><path fill="#282b35" opacity=".64" d="M168.04 43.95c2.34-.9 4.68-.6 7.04.89l-7.11-.07.07-.82z"/><path fill="#6a7087" d="M163.69 48.85c.23-2.27 2.71-2.9 4.28-4.08l7.11.07.8.2c4.36 1.85-.19 4.55-2.74 5.47-3.23 1.05-9.61 4.52-9.45-1.66z"/><path fill="#8d9290" d="M214.02 48.11c5.02 1.32 8.08 5.07 2.77 8.65-5.75-4.98-4.15 5.26-5.01 9.03-3.85 2.36-9.18-.2-9.95-4.64 11.39 3.16 5.08-4.76 3.14-9.99 4.42-5.3 7.87 4.85 9.05-3.05z"/><path fill="#3e424c" d="M156.85 59.93c2.93-3.29 6.75-6.23 6.84-11.08-.16 6.18 6.22 2.71 9.45 1.66.86 3-2.19 4.93-4.89 3.85-1.37 1.95-3.21 3.97-3.22 6.48 3.4 2.22 6.01-1.84 9-2.93 3.92 2.78 2.38 7.74 1.92 11.78-2.69-.63-6.31-2.97-8.69-.72 2.07 3.63 2.38 7.82 2.64 11.92-2.41 1.33-7.2 0-5.81 3.9 2.56 1.87 5.93 1.89 8.78 3.17-3.19 3.08 1.55 3.61 2.04 6.91 1.42.5 2.87.95 4.32 1.38 1.67 3.65-3.65 5.06-5.05 7.98-3.09 2.64-3.67-2.83-2.88-4.92 1.61-3.34-3.85-3.94-6.17-4.37-10.74.99.57 9.15 1.8 13.98-5.24 5.63-2.9 17.65 6.36 15.52 1.28-.25 2.61-.52 3.7-1.31 1.1-.9 2.13-1.89 3.08-2.95 2.47-1.85 4.17-4.95 1.41-7.43l-.42-.68 1.73-1.16c1.65 2.34 2.61 5.03 3.01 7.85.91 4.39-3.63 5.5-6.38 7.73-.96 2.62 3.64 2.33 5.41 3.14-1.47 2.75-1.1 10.18-5.08 7.46 3.2-8.46-8.22-4.77-8.64.94.19 3.3 4.95 1.67 6.92.64 5.08 4.91-1.09 13.28 5.03 17.22 2.32 1.78-3.35 2.09-2.81 3.98 3.35 4.93 9.43 5.53 14.77 7.06.81 3.92-1.28 6.86-3.22 9.88 2.48-.28 6.18-1.98 5.66 2.07-2.83 4.11-8.6-2.98-12.62 1.61-3.71 3.32.41 7.02 3.45 8.13-2 4.74-9.92 2.35-10 8.53.11 4.96-5.83 1.97-8.61 1.19-.43-2.9.16-6.84-3.5-7.11-3.78 2.2-4.4 7.56-5.1 11.54 2.54 2.96 6.37-.65 9.15-1.61-.53 2.24-2.55 4.46-1.1 6.76 2.32.3 2.92-2.48 4.38-3.75 1.12 1.88 2.4 3.66 3.51 5.55-5.49 5.14 13.16 5.55-1.01 6.3-3.97-.78-4.48 4.05-5.26 6.84 1.02 4.14 3.27 9.41 7.1 11.96l2.46 1.31c-9.58 1.74-11.13-14.13-20.31-10.33-2.9.46.31-7.22-2.83-6.35-2.81-.25-5.19 1.58-7.93 1.51-2.92-7.18 5.09-11.98 5.73-19.15-4.5 1.53-4.43 7.48-8.15 10.04-4.67-.8-5.15-5.58-5.15-9.56-1.56-3.71-5.16-.32-7.81.04a334.69 334.69 0 0 0-.01-10.51l.81-2.1c.73 2.7-.03 6.28 2.58 8.12 4.04 1.2 2.74-4.66 4.45-6.95-.07 1.72.61 2.31 2.04 1.78 3.15-6.21 11.83-5.97 14.19-12.78 10.13.71 3.2-8.74 5.92-13.95-2.71.57-5.29 1.61-7.8 2.78-.7-5.42-4.56-8.67-10.04-7.24.37 4.06.75 8.12.71 12.2-1.34 3.17-5.79 1.1-7.87-.41 8.94 2.06 8.55-11.94 3.88-16.11-5.76-.9-8.5 6.74-8.22 11.23l-.61-.6c-4.11-6.83 4.26-10.57 2.44-16.94l-.22-2.84c1.91-4.49 2.18-9.48 4.1-13.98 1.34-4.26-3.36-8.46-1.95-12.85 1.05-3.71 1.84-7.48 2.74-11.23 1.72-2.56 3.95-4.86 5.13-7.73.68-2.75.58-5.61.79-8.41 2.46-6.35 4.5-13.3 2.4-20.09-.02-3.17-1.41-7.17.33-9.92 2.19 1.53 4.17 3.33 6.2 5.07 2.43-3.31 8.17-8.53 1-8.94m1.34 29.17c-2.52 2.12 2.26 3.99 3.89 4.89 3.83-.12 13.29-6.12 2.4-4.55-2.83 3.18-3.33-1.04-6.29-.34m-.94 5.12c-1.2.99-2.5 2.1-2.3 3.83 2.43.93 6.28-5.11 2.3-3.83m-3.96 16.05c-3.8 1.33-6.51 9.24-1.53 10.35 6.29.36 8.42-10.69 1.53-10.35m3.95 17.75c-3.04 7.08 3.69 12.76 7.75 15-2.11-5.32-1.71-12.65-7.75-15m-3.95 6.3c-2.36.97-6.34 5.3-2.3 6.7 3.04 1.26 2.85 5.34 3.19 7.97 3.62.45 2.63-8.49.77-8.87-4.21.74 1.09-6.31-1.66-5.8m12.89 16.87c-3.76 3.25 1.72 5.81 4.72 6.14 1.7 3.83-6.43 5.29-.92 8.66 2.49 6.42 8.72 3.54 7.86-2.07.47-6.36-6.28 4.9-6.53-1.19 1.4-2.83 9.19-3.6 7.62-8.55-3.73-2.7-8.43-2.42-12.75-2.99m-10.93 36.01c-2.39 2.13-5.12 5.1-4.1 8.57 3.9 4.72 10.6-10.57 4.1-8.57z"/><path fill="#808785" d="M185.95 60.16c2.04-2.41 4.87-.23 6.99.82 2.15 3.02-1.12 4.85-3.9 5.04-1.26-1.8-2.78-3.61-3.09-5.86z"/><path fill="#515e70" opacity=".98" d="M149.65 63.8c1.92-2.04 4.72-2.75 7.2-3.87 7.17.41 1.43 5.63-1 8.94l-6.2-5.07z"/><path fill="#353436" opacity=".93" d="M232.5 59.92c1.57 2.35-1.24 4.27-2.47 6.01-8.47-.2-14.41 7.4-23.04 6.17 1.27-1.71 2.52-3.52 4.33-4.72 7.88.75 13.83-5.63 21.18-7.46z"/><path fill="#555a6b" d="M158.19 89.1c2.96-.7 3.46 3.52 6.29.34 10.89-1.57 1.43 4.43-2.4 4.55-1.63-.9-6.41-2.77-3.89-4.89z"/><path fill="#7e8194" d="M174.91 94.87c-.5-4.55 9.88-.02 4.32 1.38l-4.32-1.38z"/><path fill="#4f5263" d="M157.25 94.22c3.98-1.28.13 4.76-2.3 3.83-.2-1.73 1.1-2.84 2.3-3.83z"/><path fill="#74798c" d="M165.13 94.94c2.32.43 7.78 1.03 6.17 4.37-3.34 1.24-7.23 1.72-10.35-.4.9-1.75 2.7-2.77 4.18-3.97z"/><path fill="#60656d" d="M186.81 100.71c2.38-3.37 10.58 4.98 4.83 4.61-3.77-1.4-6.56 6.16-1.6 3.66-1.07 3.38-1.72 7.15 3.04 6.84 4.09-.66.77-8.28-3.04-6.84 4.01.73 7.17-7.23 10.67-3.71 4.05 4.32 8.51-2.21 12.58-3.54l1.88.76c-3.51 5.01-12.31 4.65-13.41 10.36-5.34 3.22 3.81 5.28 4.37 9.11 2.89.02 8.12.69 7.44-4.08 2.06 1.16 4.15 2.27 6.27 3.34l-.13.73c-1.28 2.35-2.55 5.67.3 7.1 1.1 1.47 2.27 2.92 3.04 4.61-.87 2.89-1.72 5.81-2.88 8.61-2.64-3.61-2.94-8.09-4.37-12.19-2.14-.55-4.08.15-4.29 2.54-.54 3.41-5.33 3.84-5.6 7.23 1.69.81 3.51 1.27 5.26 1.9-3.21.65-4.08 3.8-2.21 6.35 1.39 4.93 7.49 7.55 10.99 3.11 3.26 2.64 4.92 1.23 5.66-2.58 4.88-1.45-.26-4.33-2.16-5.94.11-3.02-.05-6.03-.4-9.03 5.73 9.19 14.23 17.31 13.16 29.35-2.48.37-4.96.66-7.44.87-.32-2.84 2.04-2.98 4.24-3.21-.93-2.29-1.34-6.36-4.67-5.68.74 3.23-2.57 5.88-1.6 9.02-1.71.19-3.36.72-4.9 1.48 2.19.19 3.79 1.05 3.17 3.49-3.31 1.06-4.96-1.07-5.63-4.06-.97 1.57-.45 3.79-1.42 5.17-4.82 1.81-3.25 8.03-4.21 12.05l-1.58-.31-1.18-1.24c1.21-5.9-2.92-1.7-5.71-.28 1.28-4.64 2.61-9.17 5.56-13.12 2.44-1.75 5.53-3.79 2.05-6.36-3.72-1.24-2.66-10.8-5.95-5.86 2.17-5.01-1.38-10.92-6-13.03-.22 2.5 1.91 5.61.08 7.71-1.92-.87-3.97-1.33-6.09-1.27-1.48-1.57-3.48 1.1-4.75-.58-5.68-4.34 7.79-13.87-.87-14.87 3.14 7.1-7.69 7.21-5.29 1.29 7.96-.57-3.07-14.48 7.91-10.28-.25-3.48-3.26-4.35-6.13-5.18-.4-2.82-1.36-5.51-3.01-7.85 1.23-3.44 2.38-6.93 4.02-10.2m9.4 16.39c-2.25 4.02 1.36 14.42 6.73 9.06 1.08 1.74 5.33 3.26 3.93-.85-3.07-.02-4.47-2.72-6.01-4.89-3.04 1.38-1.32-4.69-4.65-3.32m17.71 40.86c.89 2.88 2.86 5.01 6.1 4.03.77-3.21-2.47-6.13-6.1-4.03m-2.69 12.21c-1.62.47-1.99 5.59.03 3.05 1.69-.67 2.9-4.38-.03-3.05z"/><path fill="#72767d" d="M201.76 112.85c1.1-5.71 9.9-5.35 13.41-10.36 1.96.7 3.28 2.4 4.16 4.22-7.15-2.6-6.34 6.58-5.76 11.17.68 4.77-4.55 4.1-7.44 4.08-.56-3.83-9.71-5.89-4.37-9.11z"/><path fill="#999cab" d="M213.57 117.88c-.58-4.59-1.39-13.77 5.76-11.17 1.47 2.51 2.28 5.33 2.72 8.19-1.57.81-1.37 2.75-.87 4.15l-1.34 2.17c-2.12-1.07-4.21-2.18-6.27-3.34z"/><path fill="#9093a1" d="M190.04 108.98c3.81-1.44 7.13 6.18 3.04 6.84-4.76.31-4.11-3.46-3.04-6.84z"/><path fill="#5c6177" d="M153.29 110.27c6.89-.34 4.76 10.71-1.53 10.35-4.98-1.11-2.27-9.02 1.53-10.35z"/><path fill="#676b83" d="M166.12 113.3c1.64-2.01 4.08-3.32 6.69-3.46-.2 4.72-4.13 14.21 4.18 13.29-1.09.79-2.42 1.06-3.7 1.31-3.4-2.93-8.98-5.43-7.17-11.14z"/><path fill="#9499a3" d="M172.81 109.84c2.96-.31 5.76.71 8.25 2.23l.42.68c-.91 2.4-2.4 4.79-1.41 7.43-.95 1.06-1.98 2.05-3.08 2.95-8.31.92-4.38-8.57-4.18-13.29z"/><path fill="#60665e" d="M181.48 112.75c2.76 2.48 1.06 5.58-1.41 7.43-.99-2.64.5-5.03 1.41-7.43z"/><path fill="#454448" opacity=".64" d="M221.18 119.05c-.5-1.4-.7-3.34.87-4.15.48 1.44.27 3.08-.87 4.15z"/><path fill="#82858e" d="M196.21 117.1c3.33-1.37 1.61 4.7 4.65 3.32 1.54 2.17 2.94 4.87 6.01 4.89 1.4 4.11-2.85 2.59-3.93.85-5.37 5.36-8.98-5.04-6.73-9.06z"/><path fill="#4e5562" d="M179.42 126.49c2.75-2.23 7.29-3.34 6.38-7.73 2.87.83 5.88 1.7 6.13 5.18-10.98-4.2.05 9.71-7.91 10.28-2.4 5.92 8.43 5.81 5.29-1.29 8.66 1-4.81 10.53.87 14.87 1.27 1.68 3.27-.99 4.75.58 3.19 3.4 4.43 9.61.19 12.68 1.46-3.8-2.66-8.97-5.62-4.52-4.52 4.76 1.55 7.69 5.62 4.52l-.1 5.87c-5.34-1.53-11.42-2.13-14.77-7.06-.54-1.89 5.13-2.2 2.81-3.98-6.12-3.94.05-12.31-5.03-17.22l1.72-1.58c3.98 2.72 3.61-4.71 5.08-7.46-1.77-.81-6.37-.52-5.41-3.14z"/><path fill="#4f5463" d="M157.24 128.02c6.04 2.35 5.64 9.68 7.75 15-4.06-2.24-10.79-7.92-7.75-15z"/><path fill="#778045" d="M211.51 132.62c.21-2.39 2.15-3.09 4.29-2.54 1.43 4.1 1.73 8.58 4.37 12.19-1.11 2.68.54 6.52-3.19 7.7-1.91 4.76-6.56-.73-4.01-2.92 6.67-.5 2.38-4.7-1.8-5.3-1.75-.63-3.57-1.09-5.26-1.9.27-3.39 5.06-3.82 5.6-7.23z"/><path fill="#686d7a" d="M171.11 138.03c.42-5.71 11.84-9.4 8.64-.94l-1.72 1.58c-1.97 1.03-6.73 2.66-6.92-.64z"/><path fill="#525567" d="M153.29 134.32c2.75-.51-2.55 6.54 1.66 5.8 1.86.38 2.85 9.32-.77 8.87-.34-2.63-.15-6.71-3.19-7.97-4.04-1.4-.06-5.73 2.3-6.7z"/><path fill="#7e8282" d="M220.17 142.27c1.16-2.8 2.01-5.72 2.88-8.61.35 3 .51 6.01.4 9.03 1.9 1.61 7.04 4.49 2.16 5.94-.74 3.81-2.4 5.22-5.66 2.58-3.5 4.44-9.6 1.82-10.99-3.11l4.01-1.05c-2.55 2.19 2.1 7.68 4.01 2.92 3.73-1.18 2.08-5.02 3.19-7.7z"/><path fill="#737a7e" d="M200.94 141.94c4.62 2.11 8.17 8.02 6 13.03 3.29-4.94 2.23 4.62 5.95 5.86-3.61.08-7.3 5.67-2.05 6.36-2.95 3.95-4.28 8.48-5.56 13.12 2.79-1.42 6.92-5.62 5.71.28-3.2 1.52-4.02 5.49-6.03 8.17 3.78 1.42 14.06 6.85 9.87-.5-4.6 2.56-6.28-4.49-2.66-6.43l1.58.31c2.7 6.59 8.75 9.87 15.03 12.13-.66 2.56-4.69 3.29-5.87 6.11-4.09 1.74-7.51-1.68-10.98-3.31 2.47 1.82.18 11.39 3.51 7.07 2.2.93 2.25 4.55.31 5.76-4.45.32-7.96-3.86-12.62-2.44-3.45-.42-6.88 2.33-10.03-.07-2.38 2.55-3.08 7.84-8.23 5.57-.44-2.74 2.19-3.19 4.06-4.21.61-2.46.01-4.42-2.9-3.9-.3-3.35 2.13-5.16 6.04-4.11-4.91-4.31 1.37-8.84 5.56-4.92-3.21.31-5.72 1.7-4.63 5.3 2.72-.45 5.94-2.03 4.63-5.3-.86-2.19-6.93-6.81-.77-4.81-4.96-4.49 2.96-7.11.6-12.13.52-4.05-3.18-2.35-5.66-2.07 1.94-3.02 4.03-5.96 3.22-9.88l.1-5.87c4.24-3.07 3-9.28-.19-12.68 2.12-.06 4.17.4 6.09 1.27 1.83-2.1-.3-5.21-.08-7.71z"/><path fill="#929a89" d="M208.96 148.1c-1.87-2.55-1-5.7 2.21-6.35 4.18.6 8.47 4.8 1.8 5.3l-4.01 1.05z"/><path fill="#565c6a" d="M166.18 151.19c4.32.57 9.02.29 12.75 2.99 1.57 4.95-6.22 5.72-7.62 8.55.25 6.09 7-5.17 6.53 1.19.86 5.61-5.37 8.49-7.86 2.07-5.51-3.37 2.62-4.83.92-8.66-3-.33-8.48-2.89-4.72-6.14z"/><path fill="#767e7a" d="M189.5 156.54c2.96-4.45 7.08.72 5.62 4.52-4.07 3.17-10.14.24-5.62-4.52z"/><path fill="#858998" d="M228.34 154.99c3.33-.68 3.74 3.39 4.67 5.68-2.2.23-4.56.37-4.24 3.21l-2.03.13c-.97-3.14 2.34-5.79 1.6-9.02z"/><path fill="#5a5f74" d="M134.5 168.39c-.28-4.49 2.46-12.13 8.22-11.23 4.67 4.17 5.06 18.17-3.88 16.11-1.76-1.32-3.03-3.15-4.34-4.88z"/><path fill="#7f858c" d="M213.92 157.96c3.63-2.1 6.87.82 6.1 4.03-3.24.98-5.21-1.15-6.1-4.03z"/><path fill="#2e2f34" d="M146 161.48c5.48-1.43 9.34 1.82 10.04 7.24 2.51-1.17 5.09-2.21 7.8-2.78-2.72 5.21 4.21 14.66-5.92 13.95-2.36 6.81-11.04 6.57-14.19 12.78-1.43.53-2.11-.06-2.04-1.78 2.67-4.27.68-6.56-4-6.1 3.53-3.17-.45-6.2-2.38-9.1l-1.15-2.79-.27-5.11.61.6c1.31 1.73 2.58 3.56 4.34 4.88 2.08 1.51 6.53 3.58 7.87.41.04-4.08-.34-8.14-.71-12.2z"/><path fill="#9497a4" d="M210.84 167.19c-5.25-.69-1.56-6.28 2.05-6.36 3.48 2.57.39 4.61-2.05 6.36z"/><path fill="#3b3d46" d="M228.77 163.88l7.44-.87 1.86 1.91c3.88 1.89 8.81.73 13.16.95.43.06 1.28.16 1.71.21l6.21.6c7.21 1.9 13.66 12.02 20.71 5.18a209.47 209.47 0 0 1 8.31.04c2.19.52 4.38 1.13 6.62 1.48 4.51.32 10.14-3.8 13.32 1.13-3.05 1.38-6.8 4.41-5.18 8.16l-1.19 6.96c-1.13 2.24-4.74 5.48-5.94 1.54-.45-3.57-5.93-3.11-6.47.22-1.3 3.91-8.56-1.45-4.15-2.99 5.43.35.92-6.23 2.96-9.17 2 .22 3.97.65 5.99.78.3-6.33-11.54-9.81-10.96-1.69-.86 4.33-6.94 5.75-6.18 10.6.09 2.56 3.06 1.49 4.7 1.47 1.08 2.18 1.88 4.5 3.05 6.65 1.83 3.14 2.35 6.72 2.51 10.32l.45 6.68c.05 2.16.15 4.31.28 6.48l-4.67 1.55c-.81-1-1.63-1.99-2.48-2.94-.23-2.36 3.03-3.46 3.94-5.52 4.07-7.92-5.8-7.01-7.43-12.78-2.51-9.7-12.42-.37-14.43 4.98.76-2.58-3.45-5.41.28-6.66 6.52-3.3 9.12-12.53 4.88-17.62.24-1.2 1.04-2.51.19-3.65-.68-7.03-9.01-3.57-10.9-8.6-3.24-.1-8.23-1.71-9.82 2.33-1.14 2.31-2.91.88-2.94-1.18-4.9.76-11.65-4.23-11.86 3.48-4.74-4.07-9.44 3.45-7.81 8.1 3.22-.94 8.7-5.12 10.32-.22 2.63 4.99 7.47 1.09 11.51 1.43 1.05 2.67 1.19 5.7 2.82 8.15-.09-2.47 2.17-4.69 1.48-7.2 3.83-3.35 9.27 1.05 13.81.94.67 2.74-.46 4.96-2.61 6.6-7.08 6.73-17.74-1.14-25.13 4.49-.12 1.24-.16 2.49-.12 3.74-.39-1.01-.74-2.03-1.06-3.06-.04-4.18-5.24-.08-7.12 1.1-3.16 1.07-.3 3.82.09 5.9-2.46 1.6-5.88-.8-6.01-3.5 1.18-2.82 5.21-3.55 5.87-6.11-6.28-2.26-12.33-5.54-15.03-12.13.96-4.02-.61-10.24 4.21-12.05.97-1.38.45-3.6 1.42-5.17.67 2.99 2.32 5.12 5.63 4.06.62-2.44-.98-3.3-3.17-3.49 1.54-.76 3.19-1.29 4.9-1.48l2.03-.13z"/><path fill="#1a1b1f" opacity=".6" d="M238.07 164.92c4.4.19 8.8.19 13.16.95-4.35-.22-9.28.94-13.16-.95z"/><path fill="#535565" d="M232.74 173.91c.21-7.71 6.96-2.72 11.86-3.48.03 2.06 1.8 3.49 2.94 1.18 1.59-4.04 6.58-2.43 9.82-2.33 1.89 5.03 10.22 1.57 10.9 8.6-5.06-6.16-12.41-2.78-19.07-4.83-2.46 3.41-3.79 10.3 1.87 11.12.69 2.51-1.57 4.73-1.48 7.2-1.63-2.45-1.77-5.48-2.82-8.15-4.04-.34-8.88 3.56-11.51-1.43-1.62-4.9-7.1-.72-10.32.22-1.63-4.65 3.07-12.17 7.81-8.1z"/><path fill="#818596" d="M211.23 170.17c2.93-1.33 1.72 2.38.03 3.05-2.02 2.54-1.65-2.58-.03-3.05z"/><path fill="#15161a" opacity=".6" d="M279.86 171.86c2.51-1.75 5.56-.5 8.31.04l-8.31-.04z"/><path fill="#747681" d="M249.19 173.05c6.66 2.05 14.01-1.33 19.07 4.83.85 1.14.05 2.45-.19 3.65-1.11 1.15-2.19 2.34-3.2 3.58-4.54.11-9.98-4.29-13.81-.94-5.66-.82-4.33-7.71-1.87-11.12z"/><path fill="#61646e" d="M283.17 178.32c-.58-8.12 11.26-4.64 10.96 1.69-2.02-.13-3.99-.56-5.99-.78-2.04 2.94 2.47 9.52-2.96 9.17-4.41 1.54 2.85 6.9 4.15 2.99.54-3.33 6.02-3.79 6.47-.22 1.2 3.94 4.81.7 5.94-1.54.94 4.67-4.18 5.02-7.46 5.95-2.78 4.24 1.4 13.33 4.19 5.27 1.54 4.31 8.36 2.45 10.43 5.2-2.94-.29-6.52-.89-6.91 2.69-1.06-4.66-5.05-3.57-5.3.83.23 2.42 2.07 8.01-1.99 7.4-.23-1.95-1.31-4.37-3.69-3.3l-3.31.37-.45-6.68c6.45-2.44 1.99-17.42-2.51-10.32-1.17-2.15-1.97-4.47-3.05-6.65-1.64.02-4.61 1.09-4.7-1.47-.76-4.85 5.32-6.27 6.18-10.6z"/><path fill="#4c4e55" opacity=".96" d="M302.93 182.67c-1.62-3.75 2.13-6.78 5.18-8.16 1.57 1.85 5.35 3.96 3.03 6.66-3.25 3.27 4.37 5.06 2.47 8.44-3.45 5.82-4.7 12.76-4.42 19.47l-.29-3.03c-2.07-2.75-8.89-.89-10.43-5.2 1.39-3.23 6.9-4.15 6.04-8.21-.42-3.63 3.96-9.04-1.58-9.97z"/><path fill="#535b62" d="M184.84 180.49c4.02-4.59 9.79 2.5 12.62-1.61 2.36 5.02-5.56 7.64-.6 12.13-6.16-2-.09 2.62.77 4.81-4.19-3.92-10.47.61-5.56 4.92-3.91-1.05-6.34.76-6.04 4.11.57 4.83-5.81 3.82-9.01 4.87-1.11-1.89-2.39-3.67-3.51-5.55-1.46 1.27-2.06 4.05-4.38 3.75-1.45-2.3.57-4.52 1.1-6.76-2.78.96-6.61 4.57-9.15 1.61.7-3.98 1.32-9.34 5.1-11.54 3.66.27 3.07 4.21 3.5 7.11 2.78.78 8.72 3.77 8.61-1.19.08-6.18 8-3.79 10-8.53 5.12-3.42.18-6.29-3.45-8.13M182 193.02c-.34 2.17-.07 5.49 2.95 5.04.17-2.58.91-6.38-2.95-5.04z"/><path fill="#747d83" d="M188.29 188.62c-3.04-1.11-7.16-4.81-3.45-8.13 3.63 1.84 8.57 4.71 3.45 8.13z"/><path fill="#909698" d="M204.96 188.76c2.01-2.68 2.83-6.65 6.03-8.17l1.18 1.24c-3.62 1.94-1.94 8.99 2.66 6.43 4.19 7.35-6.09 1.92-9.87.5z"/><path fill="#2e3037" d="M264.87 185.11l3.2-3.58c4.24 5.09 1.64 14.32-4.88 17.62-3.73 1.25.48 4.08-.28 6.66-2.1 2.62-1.29 5.93-1.05 9.05-2.5.85-5.34.75-7.54 2.43-.17 2.5.26 4.99.31 7.49-1.71 3.15-4.53-1.64-6.36-2.75.13 2.75-1.08 4.35-3.87 4.47 2.11 6.48-4.16 6.07-8.02 6.73 7.4-3.09 3.93-12.38-2.26-15.1l.58-2.26.32-1.91c2.99 3.28 7.98 3.1 9.52-1.5 3.47-8.5 19.2-10.59 17.72-20.75 2.15-1.64 3.28-3.86 2.61-6.6z"/><path fill="#777b83" d="M302.93 182.67c5.54.93 1.16 6.34 1.58 9.97.86 4.06-4.65 4.98-6.04 8.21-2.79 8.06-6.97-1.03-4.19-5.27 3.28-.93 8.4-1.28 7.46-5.95l1.19-6.96z"/><path fill="#57585e" d="M134.66 189.72c.75-1.79 1.83-3.42 3.03-4.93 4.68-.46 6.67 1.83 4 6.1-1.71 2.29-.41 8.15-4.45 6.95-2.61-1.84-1.85-5.42-2.58-8.12z"/><path fill="#575a6a" d="M155.25 187.2c6.5-2-.2 13.29-4.1 8.57-1.02-3.47 1.71-6.44 4.1-8.57z"/><path fill="#7f869a" d="M182 193.02c3.86-1.34 3.12 2.46 2.95 5.04-3.02.45-3.29-2.87-2.95-5.04z"/><path fill="#8b8d8e" d="M228.83 197.98c1.88-1.18 7.08-5.28 7.12-1.1-1.06 3.41-7.74 6.88-7.12 1.1z"/><path fill="#8c8f96" d="M284.74 197.04c4.5-7.1 8.96 7.88 2.51 10.32-.16-3.6-.68-7.18-2.51-10.32z"/><path fill="#a6a9ab" d="M193 201.12c-1.09-3.6 1.42-4.99 4.63-5.3 1.31 3.27-1.91 4.85-4.63 5.3z"/><path fill="#4f545c" d="M262.91 205.81c2.01-5.35 11.92-14.68 14.43-4.98-1.72 2.34-3.43 7.12-7.05 5.92-2.84-3.14-9.14.25-6.9 4.42.34 2.35.96 4.72 2.88 6.28-7.1 3.38-7.97 11.69-14.5 15.88-1.71-2.05-4.9 4.58-4.49 7.14 3.44-.32 1.45 6.74 4.83 3.73 1.29-3.94 3.19.15 4.68 1.7.8-1.84-.06-6.22 2.83-5.79-.14 4.02 2.61 5.82 6.39 5.01-2.24 1.3-3.18 3.6-3.72 6.02-.23-5.05-4.53 2.59-6.45 3.77-2.62-.61-4.88-.22-6.78 1.17-7.67 8.44-19.86 2.39-29.84 6.04 2.04-8.44-8.18-4.62-10.55-.03-1.81.71-3.66 1.29-5.54 1.79-.58-5.18-8 4.74-9.34-.71-.72-3.83-5.55-.14-7.8.94a88.08 88.08 0 0 1-2.48-7.46c-.05-2.86 1.68-4 4.39-4.01 1.11-3.84-4.95-1.8-4.57-5.91-.48-2.52-2.06-4.57-4.04-6.11l-.37-1.68.72.28c1.9 1.22 2.4-1.87 2.33-3.17 3.94-.86 5.83 3.39 8.28 5.67-3.03 4.6 3.04 5.57 3.19 2.65.98-2.53-1.49-4.95-1.21-7.63 3.26 1.75 3.14 6.58 5.88 9.14 3.25 3.61-5.92 2.81-3.9 6.85 1.65 4.3 6.43-5.22 6.18.89-.73 5.47 5.37 4.63 8.14 1.94 2.32 3.23 4.31-1.15 4.79-3.34 2.53-4.18 8.04-4.61 11.93-1.57 3.27 0 .09-4.03-.28-5.74 4.66.84 9.93 5.07 14.1 1.19 3.2-1.1 1.15-5.15-.36-6.83-3.16-.66 1.14-5.55-2.54-5.34l.21-.7c3.86-.66 10.13-.25 8.02-6.73 2.79-.12 4-1.72 3.87-4.47 1.83 1.11 4.65 5.9 6.36 2.75-.05-2.5-.48-4.99-.31-7.49 2.2-1.68 5.04-1.58 7.54-2.43-.24-3.12-1.05-6.43 1.05-9.05z"/><path fill="#5f6369" d="M211.93 197.07c3.47 1.63 6.89 5.05 10.98 3.31.13 2.7 3.55 5.1 6.01 3.5-.39-2.08-3.25-4.83-.09-5.9-.62 5.78 6.06 2.31 7.12-1.1.32 1.03.67 2.05 1.06 3.06 1.1 4.66-1.83 9.3-1.99 14.02l-.32 1.91c-.74-1.93-3.56-2.78-4.57-.57-3.78 7.09 2.15 4.9 3.99 2.83 6.19 2.72 9.66 12.01 2.26 15.1l-.21.7c-.37 3.53-4.94.15-7.12-.11 1.12-2.24 2.55-4.36 3.06-6.85-2.38.11-4.72.63-7.07 1l-2.96-.21c1.79-2.17 3.4-4.49 4.75-6.95 1.28-3.41-6.06-4.86-6.24-1.19-1.09 1.87 1.72 3.07 1.32 5.02-3.35 1.37-8.37 1.37-9.56 5.53.67 2.04.65 5.7 3.33 5.88-.42-3.78 2.18-8.7 6.4-8.29-.8 2.9-6.42 7.04-2.13 9.17 2.4.99 3.08 5.91-.43 3.56-1.92-3.62-6.76-4.38-8.06.18-6.17 2.24 2.29-6.27-3.03-6.19-3.18-.47 2.69-4.52-.41-5.33-5.11-.18 2.69-8.92-2.64-6.78-3.63.33.45-5.08-2.15-7.15 2.24-.79 5.71-.82 4.85-4.14-4.4 1.27-8.91 1.34-13.28-.12 1.55.98 3.79 1.69 3.77 3.89-1.48 2.21-1 4.79-.71 7.25-3.36-.59-6.49-2.06-9.61-3.39-4.44-4.69-6.22.96-6.18 5.47-3.48-2.52-7.4-3.57-11.32-1.32.78-2.79 1.29-7.62 5.26-6.84 14.17-.75-4.48-1.16 1.01-6.3 3.2-1.05 9.58-.04 9.01-4.87 2.91-.52 3.51 1.44 2.9 3.9-1.87 1.02-4.5 1.47-4.06 4.21 5.15 2.27 5.85-3.02 8.23-5.57 3.15 2.4 6.58-.35 10.03.07 4.66-1.42 8.17 2.76 12.62 2.44 1.94-1.21 1.89-4.83-.31-5.76-3.33 4.32-1.04-5.25-3.51-7.07m8.32 5.24c-4.36 3.5-.09 9.97 4.33 12.4 1.57-1.68 4.1-3 3.46-5.73-2.4-.08-4.68.72-7.01 1.13 2.39-1.85 1.48-7.52-.78-7.8m-6.9 8.83c-1.36 2.15-2.22 5.13-5.24 5.19-1.81 3.98 7.06 5.34 5.77.68-1.76-2.3 2.63-4.98-.53-5.87z"/><path fill="#313339" d="M133.86 202.33c2.65-.36 6.25-3.75 7.81-.04 0 3.98.48 8.76 5.15 9.56 3.72-2.56 3.65-8.51 8.15-10.04-.64 7.17-8.65 11.97-5.73 19.15 2.74.07 5.12-1.76 7.93-1.51 3.14-.87-.07 6.81 2.83 6.35 9.18-3.8 10.73 12.07 20.31 10.33l-.67 3.09-.72-.28c-2.19-.91-4.48-1.56-6.78-2.12-2.72-1.11-7.53-5.06-9.19-.85-3.72 7.61-1.86 17.24 3.49 23.62 5.52 3.13 13.23 7.34 19.55 4.52 2.25-1.08 7.08-4.77 7.8-.94 1.34 5.45 8.76-4.47 9.34.71-3.12 1.32-3.64 4.05-1.22 6.42-2.82-.86-5.55-2.41-8.59-2.09a873.63 873.63 0 0 0-12.54 0c-5.64-1.92-10.61-5.53-16.61-6.41-2.47-2.26-4.37-5.02-6.01-7.92l-3.01-8.86c-.65-1.95-.52-4.43-1.94-5.97l-1.9-1.43-2.2-1.68c-7.88-5.27-8.54-14.73-9.91-23.02-.55-1.01-1.2-1.95-1.81-2.91l-3.26-5.17-.36-1.52.09-.99z"/><path fill="#73777a" d="M277.34 200.83c1.63 5.77 11.5 4.86 7.43 12.78-.91 2.06-4.17 3.16-3.94 5.52-2.6 2.09-2.89 4.81-.53 7.27-1.81 1.76-3.13 3.89-3.56 6.42-3.05 1.5-4.22 4.7-5.88 7.41-5.26-1.07-.59-6.73-.83-10.37-3.36.25-5.05 3.16-5.96 6.05 3.67 1.96 2.85 5.84 1.94 9.21-3.78.81-6.53-.99-6.39-5.01-2.89-.43-2.03 3.95-2.83 5.79-1.49-1.55-3.39-5.64-4.68-1.7-3.38 3.01-1.39-4.05-4.83-3.73-.41-2.56 2.78-9.19 4.49-7.14 6.53-4.19 7.4-12.5 14.5-15.88 5.99 2.25 5.16-9.27.72-10.68-1.73.95-2.74 2.69-3.6 4.4-2.24-4.17 4.06-7.56 6.9-4.42 3.62 1.2 5.33-3.58 7.05-5.92z"/><path fill="#7c7f88" d="M220.25 202.31c2.26.28 3.17 5.95.78 7.8 2.33-.41 4.61-1.21 7.01-1.13.64 2.73-1.89 4.05-3.46 5.73-4.42-2.43-8.69-8.9-4.33-12.4z"/><path fill="#40444a" opacity=".97" d="M296.69 209.57c.25-4.4 4.24-5.49 5.3-.83 5.87 3.84-6.06 10.58 3.34 9.66l-.55.59c-5.42-1.04-10.84-1.02-15.91 1.24 1.9-1.66 3.99-4.03 2.14-6.56 2.38-1.07 3.46 1.35 3.69 3.3 4.06.61 2.22-4.98 1.99-7.4z"/><path fill="#828c91" d="M301.99 208.74c.39-3.58 3.97-2.98 6.91-2.69l.29 3.03-.94 6.03-2.92 3.29c-9.4.92 2.53-5.82-3.34-9.66z"/><path fill="#9699a3" d="M263.39 211.17c.86-1.71 1.87-3.45 3.6-4.4 4.44 1.41 5.27 12.93-.72 10.68-1.92-1.56-2.54-3.93-2.88-6.28z"/><path fill="#494f50" opacity=".72" d="M308.25 215.11l.94-6.03-.94 6.03z"/><path fill="#8d929c" d="M194.8 210.96c4.37 1.46 8.88 1.39 13.28.12.86 3.32-2.61 3.35-4.85 4.14-2.35 1.13-4.93 4.4-4.66-.37.02-2.2-2.22-2.91-3.77-3.89z"/><path fill="#7b7d80" d="M213.35 211.14c3.16.89-1.23 3.57.53 5.87 1.29 4.66-7.58 3.3-5.77-.68 3.02-.06 3.88-3.04 5.24-5.19z"/><path fill="#929399" d="M230.13 215.3c1.01-2.21 3.83-1.36 4.57.57l-.58 2.26c-1.84 2.07-7.77 4.26-3.99-2.83z"/><path fill="#878e7c" d="M287.7 214.04l3.31-.37c1.85 2.53-.24 4.9-2.14 6.56l-.89.29-.28-6.48z"/><path fill="#73787d" d="M197.86 222.1c-.29-2.46-.77-5.04.71-7.25-.27 4.77 2.31 1.5 4.66.37 2.6 2.07-1.48 7.48 2.15 7.15 5.33-2.14-2.47 6.6 2.64 6.78 3.1.81-2.77 4.86.41 5.33 5.32-.08-3.14 8.43 3.03 6.19 1.3-4.56 6.14-3.8 8.06-.18 3.51 2.35 2.83-2.57.43-3.56 1.95.69 3.81 1.71 5.87 2.08 1.75-3.52.78-7.63-.78-11.04 2.35-.37 4.69-.89 7.07-1-.51 2.49-1.94 4.61-3.06 6.85 2.18.26 6.75 3.64 7.12.11 3.68-.21-.62 4.68 2.54 5.34 1.51 1.68 3.56 5.73.36 6.83-4.17 3.88-9.44-.35-14.1-1.19.37 1.71 3.55 5.74.28 5.74-3.89-3.04-9.4-2.61-11.93 1.57-.48 2.19-2.47 6.57-4.79 3.34-2.77 2.69-8.87 3.53-8.14-1.94.25-6.11-4.53 3.41-6.18-.89-2.02-4.04 7.15-3.24 3.9-6.85-2.74-2.56-2.62-7.39-5.88-9.14-.28 2.68 2.19 5.1 1.21 7.63-.15 2.92-6.22 1.95-3.19-2.65-2.45-2.28-4.34-6.53-8.28-5.67l-1.66.08-2.46-1.31c2.25-4.2 9.8-.37 13.27 2.24-.23-2.09.02-6.67-3.26-5.36-3.43.89-2.81-4.05-3.56-6.16 2.6.26 2.57 4.32 5.45 3.33 3.37-2.6-.09-7.29-1.5-10.16 3.12 1.33 6.25 2.8 9.61 3.39z"/><path fill="#8f8f9d" d="M182.07 224.18c-.04-4.51 1.74-10.16 6.18-5.47 1.41 2.87 4.87 7.56 1.5 10.16-2.88.99-2.85-3.07-5.45-3.33l-2.23-1.36z"/><path fill="#3f424d" d="M220.59 219.62c.18-3.67 7.52-2.22 6.24 1.19-1.35 2.46-2.96 4.78-4.75 6.95-4.22-.41-6.82 4.51-6.4 8.29-2.68-.18-2.66-3.84-3.33-5.88 1.19-4.16 6.21-4.16 9.56-5.53.4-1.95-2.41-3.15-1.32-5.02z"/><path fill="#788142" opacity=".96" d="M280.83 219.13l2.48 2.94c.18 4.62-2.35 8.75-6.57 10.75.43-2.53 1.75-4.66 3.56-6.42-2.36-2.46-2.07-5.18.53-7.27z"/><path fill="#60684e" d="M170.75 222.86c3.92-2.25 7.84-1.2 11.32 1.32l2.23 1.36c.75 2.11.13 7.05 3.56 6.16 3.28-1.31 3.03 3.27 3.26 5.36-3.47-2.61-11.02-6.44-13.27-2.24-3.83-2.55-6.08-7.82-7.1-11.96z"/><path fill="#9b9f9e" d="M222.08 227.76l2.96.21c1.56 3.41 2.53 7.52.78 11.04-2.06-.37-3.92-1.39-5.87-2.08-4.29-2.13 1.33-6.27 2.13-9.17m-.14 4.22c.85 7.82 7.79-.67 0 0z"/><path fill="#51535c" opacity=".97" d="M264.07 235.91c.91-2.89 2.6-5.8 5.96-6.05.24 3.64-4.43 9.3.83 10.37-1.22 1.97-3.07 3.44-4.85 4.89.91-3.37 1.73-7.25-1.94-9.21z"/><path fill="#dadfd9" d="M221.94 231.98c7.79-.67.85 7.82 0 0z"/><path fill="#575d5a" d="M162.95 235.97c1.66-4.21 6.47-.26 9.19.85.9 7.32-2.03 14.95-.11 22.1 1.16 4.34 6.03 3.37 8.51.79-.53 3.95 1.97 4.94 5.45 4.4-6.32 2.82-14.03-1.39-19.55-4.52-5.35-6.38-7.21-16.01-3.49-23.62z"/><path fill="#3e3f4a" d="M180.31 236.13l1.66-.08c.07 1.3-.43 4.39-2.33 3.17l.67-3.09z"/><path fill="#6c754f" d="M172.14 236.82c2.3.56 4.59 1.21 6.78 2.12l.37 1.68c-.16 3.51-2.41 6.68-2.15 10.14 2.37 3.23 4.27-2.79 6.19-4.03-.38 4.11 5.68 2.07 4.57 5.91-2.71.01-4.44 1.15-4.39 4.01-1.1.9-2.12 1.91-2.97 3.06-2.48 2.58-7.35 3.55-8.51-.79-1.92-7.15 1.01-14.78.11-22.1z"/><path fill="#828977" d="M179.29 240.62c1.98 1.54 3.56 3.59 4.04 6.11-1.92 1.24-3.82 7.26-6.19 4.03-.26-3.46 1.99-6.63 2.15-10.14z"/><path fill="#84878b" opacity=".95" d="M255.84 254.91c1.92-1.18 6.22-8.82 6.45-3.77-.3 2.15-2.44 3.12-4.15 4.03l-2.3-.26z"/><path fill="#787e89" d="M180.54 259.71c.85-1.15 1.87-2.16 2.97-3.06l2.48 7.46c-3.48.54-5.98-.45-5.45-4.4z"/><path fill="#8d8f99" opacity=".98" d="M208.67 262.09c2.37-4.59 12.59-8.41 10.55.03-1.21 1.9-2.45 3.82-4.13 5.35-2.32-1.56-4.45-3.39-6.42-5.38z"/><path fill="#636c42" opacity=".98" d="M203.13 263.88c1.88-.5 3.73-1.08 5.54-1.79 1.97 1.99 4.1 3.82 6.42 5.38-1.53 1.67-3.8 2.25-5.94 2.73l-7.24.1c-2.42-2.37-1.9-5.1 1.22-6.42z"/><path fill="#15171b" opacity=".61" d="M180.78 268.21h12.54c-4.02 1.45-8.47.83-12.54 0z"/><path fill="#30351d" opacity=".71" d="M201.91 270.3l7.24-.1c-1.74 2.49-4.9 1.34-7.24.1z"/></svg>