<?xml version="1.0" encoding="UTF-8" ?>
<!DOCTYPE svg PUBLIC "-//W3C//DTD SVG 1.1//EN" "http://www.w3.org/Graphics/SVG/1.1/DTD/svg11.dtd">
<svg width="384pt" height="384pt" viewBox="0 0 384 384" version="1.1" xmlns="http://www.w3.org/2000/svg">
<g id="#0000000d">
</g>
<g id="#00000014">
</g>
<g id="#444a55fe">
<path fill="#444a55" opacity="1.00" d=" M 190.61 25.66 C 192.71 22.16 198.81 21.32 200.58 25.51 C 201.61 28.07 203.36 24.59 204.73 23.96 C 209.22 27.19 204.29 32.21 199.91 31.75 C 197.96 32.91 195.63 35.44 199.24 36.05 C 194.39 38.52 186.12 37.25 183.06 41.91 C 186.13 42.98 196.52 43.36 190.88 47.90 C 189.85 50.58 192.47 55.02 187.36 54.49 C 182.37 54.52 187.91 58.93 185.62 61.12 C 183.14 57.37 173.82 58.89 177.74 64.22 C 185.90 68.29 182.07 77.57 177.88 83.09 C 181.48 79.57 184.96 75.89 189.04 72.91 C 189.44 72.93 190.25 72.98 190.66 73.01 C 189.02 77.94 187.24 82.91 184.04 87.07 C 190.20 89.29 185.76 101.61 192.92 98.02 C 194.34 102.01 198.38 103.83 202.24 104.65 C 201.22 105.80 200.23 106.99 199.21 108.14 C 196.39 109.24 193.71 110.66 190.90 111.77 C 186.95 111.02 182.84 108.35 178.97 110.58 C 176.20 109.90 173.05 106.52 170.52 109.41 C 169.04 113.25 167.12 116.95 166.02 120.92 C 169.27 125.37 170.21 130.85 172.19 135.89 C 170.04 136.05 167.88 136.03 165.73 136.10 C 169.17 134.93 166.80 131.35 163.99 131.61 C 164.54 128.67 164.66 125.53 163.04 122.86 C 158.22 119.82 151.97 123.13 148.73 127.39 C 148.64 120.02 146.00 112.60 140.78 107.08 C 140.79 105.29 140.81 101.70 140.83 99.91 C 141.78 97.45 142.97 95.10 144.05 92.71 C 144.92 97.15 146.47 99.03 149.58 94.93 C 149.30 99.28 153.35 97.19 155.96 96.76 C 155.25 94.05 154.18 91.41 152.79 88.97 C 150.22 89.05 145.43 92.91 144.59 88.85 C 144.79 87.63 144.99 86.42 145.20 85.21 C 145.77 82.39 146.40 79.49 145.24 76.76 C 144.22 73.29 143.99 69.64 143.94 66.04 C 149.23 63.85 153.20 60.09 156.00 55.08 C 156.84 54.21 157.35 53.18 157.53 51.98 C 161.79 53.42 170.72 49.42 170.16 44.00 C 170.41 43.79 170.92 43.35 171.18 43.13 C 173.87 41.21 176.51 39.22 178.81 36.83 C 180.95 33.36 179.32 28.37 182.87 25.68 C 184.20 26.09 185.56 26.22 186.95 26.07 C 188.23 26.39 189.85 27.30 190.61 25.66 M 156.20 72.98 C 155.84 73.86 155.52 74.76 155.24 75.68 C 159.94 76.94 152.33 87.34 151.99 80.98 C 154.75 71.82 150.63 76.96 148.69 78.70 C 147.85 83.39 155.64 91.90 159.79 85.78 C 158.13 81.58 160.96 75.35 156.20 72.98 M 166.21 78.37 C 163.12 78.35 163.29 82.71 166.30 82.71 C 169.84 84.02 169.95 77.42 166.21 78.37 M 168.21 97.15 C 165.90 98.42 168.12 99.61 169.52 100.30 C 167.95 103.70 172.54 102.75 173.54 105.51 C 178.28 109.98 176.38 99.57 172.17 100.70 C 173.81 97.79 170.90 96.06 168.21 97.15 M 161.20 102.08 C 157.27 105.19 166.24 104.70 166.99 105.01 C 167.93 101.28 164.96 100.89 161.20 102.08 M 149.32 106.26 C 147.50 106.73 146.47 108.26 146.03 110.01 C 147.88 114.66 156.25 111.94 157.01 107.18 C 154.50 106.59 151.92 106.01 149.32 106.26 Z" />
</g>
<g id="#56585efb">
<path fill="#56585e" opacity="1.00" d=" M 204.73 23.96 C 206.11 22.12 208.43 23.30 210.17 23.86 C 208.99 28.05 215.99 34.27 216.93 29.18 C 217.01 31.82 218.98 34.88 221.80 34.96 C 223.01 33.02 223.06 30.82 222.12 28.77 C 224.93 28.36 227.91 28.82 230.56 27.55 L 231.30 27.89 C 234.14 35.11 223.91 37.44 221.70 43.04 C 220.54 38.81 213.03 36.43 211.68 41.03 C 209.03 43.16 210.00 38.96 209.49 37.36 C 206.33 35.34 204.13 31.35 199.91 31.75 C 204.29 32.21 209.22 27.19 204.73 23.96 Z" />
</g>
<g id="#35363fea">
<path fill="#35363f" opacity="0.92" d=" M 210.17 23.86 C 216.26 26.26 222.33 29.35 229.09 26.86 C 229.46 27.03 230.19 27.38 230.56 27.55 C 227.91 28.82 224.93 28.36 222.12 28.77 C 220.38 28.88 218.65 28.96 216.93 29.18 C 215.99 34.27 208.99 28.05 210.17 23.86 Z" />
</g>
<g id="#1d212587">
</g>
<g id="#78848eff">
<path fill="#78848e" opacity="1.00" d=" M 216.93 29.18 C 218.65 28.96 220.38 28.88 222.12 28.77 C 223.06 30.82 223.01 33.02 221.80 34.96 C 218.98 34.88 217.01 31.82 216.93 29.18 Z" />
</g>
<g id="#6e7277ff">
<path fill="#6e7277" opacity="1.00" d=" M 199.24 36.05 C 195.63 35.44 197.96 32.91 199.91 31.75 C 204.13 31.35 206.33 35.34 209.49 37.36 C 210.00 38.96 209.03 43.16 211.68 41.03 C 211.23 46.69 221.96 53.51 222.19 44.92 C 223.07 45.69 223.95 46.45 224.91 47.13 C 227.69 50.04 231.53 50.21 234.90 51.18 C 231.71 57.94 220.81 53.63 215.12 56.41 C 218.64 58.28 215.05 58.04 212.92 58.31 C 210.26 58.40 207.74 59.81 207.71 62.76 C 207.56 63.05 207.28 63.64 207.13 63.94 L 206.37 64.11 C 198.19 60.09 196.01 71.29 189.04 72.91 C 184.96 75.89 181.48 79.57 177.88 83.09 C 182.07 77.57 185.90 68.29 177.74 64.22 C 173.82 58.89 183.14 57.37 185.62 61.12 L 185.26 61.93 C 179.81 58.06 179.35 67.61 184.98 64.01 C 189.41 61.52 190.15 66.15 191.81 69.18 C 193.97 65.51 187.58 58.03 194.90 60.60 C 192.59 53.46 199.73 51.94 205.21 52.23 C 211.65 54.26 212.20 44.31 206.69 43.30 C 203.22 41.57 203.31 45.58 202.92 48.43 C 199.69 46.04 200.72 41.97 204.69 41.47 C 206.47 37.95 201.72 36.75 199.24 36.05 M 204.39 55.42 C 201.52 56.88 197.58 57.88 199.01 62.00 C 203.97 67.17 210.65 54.83 204.39 55.42 Z" />
</g>
<g id="#595d69ff">
<path fill="#595d69" opacity="1.00" d=" M 199.24 36.05 C 201.72 36.75 206.47 37.95 204.69 41.47 C 200.72 41.97 199.69 46.04 202.92 48.43 C 203.71 49.68 204.46 50.95 205.21 52.23 C 199.73 51.94 192.59 53.46 194.90 60.60 C 187.58 58.03 193.97 65.51 191.81 69.18 C 190.15 66.15 189.41 61.52 184.98 64.01 C 185.05 63.49 185.19 62.45 185.26 61.93 L 185.62 61.12 C 187.91 58.93 182.37 54.52 187.36 54.49 C 192.47 55.02 189.85 50.58 190.88 47.90 C 196.52 43.36 186.13 42.98 183.06 41.91 C 186.12 37.25 194.39 38.52 199.24 36.05 Z" />
</g>
<g id="#90988dfe">
<path fill="#90988d" opacity="1.00" d=" M 211.68 41.03 C 213.03 36.43 220.54 38.81 221.70 43.04 C 221.82 43.51 222.06 44.45 222.19 44.92 C 221.96 53.51 211.23 46.69 211.68 41.03 M 217.01 44.02 C 215.99 46.94 219.27 45.88 220.99 45.98 C 222.00 43.06 218.73 44.11 217.01 44.02 Z" />
</g>
<g id="#1d1f2585">
</g>
<g id="#94979eff">
<path fill="#94979e" opacity="1.00" d=" M 202.92 48.43 C 203.31 45.58 203.22 41.57 206.69 43.30 C 212.20 44.31 211.65 54.26 205.21 52.23 C 204.46 50.95 203.71 49.68 202.92 48.43 Z" />
</g>
<g id="#0000001b">
</g>
<g id="#636981fa">
<path fill="#636981" opacity="0.98" d=" M 156.46 48.97 C 157.91 46.94 159.45 44.80 161.84 43.82 C 164.61 43.86 167.38 43.92 170.16 44.00 C 170.72 49.42 161.79 53.42 157.53 51.98 C 157.26 51.23 156.73 49.72 156.46 48.97 Z" />
</g>
<g id="#d1d7cdff">
<path fill="#d1d7cd" opacity="1.00" d=" M 217.01 44.02 C 218.73 44.11 222.00 43.06 220.99 45.98 C 219.27 45.88 215.99 46.94 217.01 44.02 Z" />
</g>
<g id="#0f101283">
</g>
<g id="#494950f7">
<path fill="#494950" opacity="0.97" d=" M 224.91 47.13 C 226.84 47.07 228.78 46.94 230.72 46.76 C 233.90 46.81 237.06 46.71 240.26 46.70 C 243.39 46.51 245.36 49.93 244.90 52.73 C 242.36 54.90 239.23 56.17 236.13 57.30 C 234.56 57.40 231.42 57.61 229.85 57.71 C 226.31 58.97 222.80 60.34 219.25 61.55 C 216.76 61.29 214.70 59.97 212.92 58.31 C 215.05 58.04 218.64 58.28 215.12 56.41 C 220.81 53.63 231.71 57.94 234.90 51.18 C 231.53 50.21 227.69 50.04 224.91 47.13 Z" />
</g>
<g id="#25232895">
</g>
<g id="#a2a8a6ff">
<path fill="#a2a8a6" opacity="1.00" d=" M 204.39 55.42 C 210.65 54.83 203.97 67.17 199.01 62.00 C 197.58 57.88 201.52 56.88 204.39 55.42 Z" />
</g>
<g id="#0d0c0d78">
</g>
<g id="#26262ae6">
<path fill="#26262a" opacity="0.90" d=" M 207.71 62.76 C 207.74 59.81 210.26 58.40 212.92 58.31 C 214.70 59.97 216.76 61.29 219.25 61.55 C 215.68 63.41 211.61 63.21 207.71 62.76 Z" />
</g>
<g id="#9ca0a0ff">
<path fill="#9ca0a0" opacity="1.00" d=" M 184.98 64.01 C 179.35 67.61 179.81 58.06 185.26 61.93 C 185.19 62.45 185.05 63.49 184.98 64.01 Z" />
</g>
<g id="#5b5d58fa">
<path fill="#5b5d58" opacity="0.98" d=" M 189.04 72.91 C 196.01 71.29 198.19 60.09 206.37 64.11 C 203.12 70.36 198.07 75.25 193.37 80.37 C 191.45 86.06 192.74 92.17 192.92 98.02 C 185.76 101.61 190.20 89.29 184.04 87.07 C 187.24 82.91 189.02 77.94 190.66 73.01 C 190.25 72.98 189.44 72.93 189.04 72.91 Z" />
</g>
<g id="#00010119">
</g>
<g id="#2d3038ff">
<path fill="#2d3038" opacity="1.00" d=" M 156.20 72.98 C 160.96 75.35 158.13 81.58 159.79 85.78 C 155.64 91.90 147.85 83.39 148.69 78.70 C 150.63 76.96 154.75 71.82 151.99 80.98 C 152.33 87.34 159.94 76.94 155.24 75.68 C 155.52 74.76 155.84 73.86 156.20 72.98 Z" />
</g>
<g id="#1d1e20a5">
<path fill="#1d1e20" opacity="0.65" d=" M 145.24 76.76 C 146.40 79.49 145.77 82.39 145.20 85.21 C 145.24 82.39 145.25 79.57 145.24 76.76 Z" />
</g>
<g id="#6b6f77ff">
<path fill="#6b6f77" opacity="1.00" d=" M 166.21 78.37 C 169.95 77.42 169.84 84.02 166.30 82.71 C 163.29 82.71 163.12 78.35 166.21 78.37 Z" />
</g>
<g id="#00000022">
</g>
<g id="#262931fc">
<path fill="#262931" opacity="1.00" d=" M 144.05 92.71 C 144.21 91.42 144.34 90.12 144.59 88.85 C 145.43 92.91 150.22 89.05 152.79 88.97 C 154.18 91.41 155.25 94.05 155.96 96.76 C 153.35 97.19 149.30 99.28 149.58 94.93 C 146.47 99.03 144.92 97.15 144.05 92.71 Z" />
</g>
<g id="#6a7167ff">
<path fill="#6a7167" opacity="1.00" d=" M 168.21 97.15 C 170.90 96.06 173.81 97.79 172.17 100.70 C 176.38 99.57 178.28 109.98 173.54 105.51 C 172.54 102.75 167.95 103.70 169.52 100.30 C 168.12 99.61 165.90 98.42 168.21 97.15 Z" />
</g>
<g id="#1817167c">
</g>
<g id="#7e8296ff">
<path fill="#7e8296" opacity="1.00" d=" M 161.20 102.08 C 164.96 100.89 167.93 101.28 166.99 105.01 C 166.24 104.70 157.27 105.19 161.20 102.08 Z" />
</g>
<g id="#666c73fe">
<path fill="#666c73" opacity="1.00" d=" M 199.21 108.14 C 200.23 106.99 201.22 105.80 202.24 104.65 C 205.73 105.27 208.89 107.39 210.32 110.72 C 203.21 104.90 197.28 118.08 203.58 122.05 C 203.89 122.33 204.51 122.88 204.83 123.16 C 206.44 124.71 208.23 126.21 210.62 126.12 C 210.73 126.82 210.97 128.21 211.09 128.91 C 212.41 133.56 218.55 134.95 222.10 138.03 C 229.74 143.33 235.61 150.77 238.26 159.75 C 238.17 161.52 238.05 163.29 237.96 165.06 C 235.18 164.17 232.31 163.85 229.96 165.91 C 232.73 160.44 222.83 153.42 224.05 161.88 C 222.86 159.45 221.18 157.34 219.13 155.58 C 220.10 153.90 220.00 150.02 217.43 152.22 C 215.34 154.46 216.20 150.83 215.96 149.50 C 219.30 148.29 216.92 143.66 217.82 140.89 C 213.30 141.22 215.71 146.68 215.96 149.50 C 213.18 150.34 214.07 145.40 211.37 146.23 C 206.35 145.58 211.15 151.25 211.87 153.65 C 208.85 154.84 211.02 159.05 209.06 161.02 C 209.08 159.02 209.09 157.02 209.00 155.02 C 209.25 151.10 205.72 148.50 203.90 145.42 C 207.65 145.67 209.58 141.67 206.87 139.04 C 203.98 141.39 197.65 138.62 201.91 143.48 C 197.56 143.29 198.30 138.07 197.74 134.98 C 193.75 134.82 191.73 140.74 187.71 136.83 C 188.79 130.38 195.81 138.01 195.09 131.28 C 190.89 131.32 182.37 133.56 184.70 125.96 C 178.08 125.44 183.06 131.83 182.44 135.17 C 180.06 129.63 172.20 141.69 176.25 144.75 C 179.79 144.45 186.99 143.83 186.68 148.86 C 184.63 153.60 191.21 151.19 193.88 151.94 C 194.62 151.98 196.11 152.05 196.86 152.08 C 197.11 154.70 197.82 157.24 198.78 159.68 C 194.12 160.66 199.26 167.70 193.86 165.14 C 193.91 167.46 197.62 166.56 196.98 169.18 C 197.39 171.89 194.29 166.60 193.46 169.24 C 194.54 173.32 187.93 176.44 191.67 180.31 C 195.01 183.37 188.59 182.80 189.72 186.68 C 183.53 188.28 190.33 175.86 184.66 175.60 C 179.98 175.89 182.60 170.37 184.18 168.25 C 191.33 168.91 185.37 160.07 183.85 166.07 C 180.26 167.88 178.01 164.12 176.47 161.50 C 174.29 161.32 171.62 162.79 169.96 160.83 C 171.37 157.72 173.85 154.75 171.96 151.21 C 168.93 155.80 162.66 148.49 168.19 147.21 C 172.39 146.23 166.14 141.86 170.01 140.00 C 173.14 135.77 165.64 139.13 165.73 136.10 C 167.88 136.03 170.04 136.05 172.19 135.89 C 173.87 135.61 176.68 135.39 176.03 132.99 C 177.05 129.80 171.78 130.99 172.00 128.11 C 173.61 127.19 182.10 127.68 177.89 126.10 C 181.17 123.62 179.07 120.55 177.01 118.05 C 179.19 117.55 180.27 114.85 182.63 115.03 C 182.63 117.75 183.90 119.98 186.86 120.03 C 187.87 117.61 187.31 115.14 186.19 112.88 C 188.14 114.77 190.80 114.20 193.21 114.75 C 192.07 117.84 187.28 121.94 191.44 124.59 C 189.40 131.42 193.60 128.60 195.87 127.76 C 195.83 123.43 194.94 119.19 194.13 114.96 C 195.90 112.75 197.57 110.46 199.21 108.14 Z" />
</g>
<g id="#696f84ff">
<path fill="#696f84" opacity="1.00" d=" M 149.32 106.26 C 151.92 106.01 154.50 106.59 157.01 107.18 C 156.25 111.94 147.88 114.66 146.03 110.01 C 146.47 108.26 147.50 106.73 149.32 106.26 Z" />
</g>
<g id="#3a3d44fd">
<path fill="#3a3d44" opacity="1.00" d=" M 140.17 107.01 L 140.78 107.08 C 146.00 112.60 148.64 120.02 148.73 127.39 C 148.52 133.61 157.06 139.83 161.92 135.04 C 162.66 133.93 163.31 132.76 163.99 131.61 C 166.80 131.35 169.17 134.93 165.73 136.10 C 161.81 138.45 160.90 142.99 158.82 146.70 C 157.90 147.54 156.99 148.38 156.07 149.21 C 151.98 143.15 153.14 152.09 149.02 151.03 C 145.93 146.05 156.58 144.24 151.78 140.08 C 144.23 139.63 139.47 147.54 137.99 154.00 C 139.55 158.29 142.02 162.39 140.04 167.10 C 144.40 163.43 149.29 159.67 151.40 154.16 C 153.20 155.15 158.26 155.38 156.09 158.17 C 153.84 160.84 157.59 162.96 158.89 165.07 C 155.25 165.73 151.54 165.81 147.86 166.22 C 148.14 171.32 157.58 173.35 153.12 178.08 C 155.65 180.99 158.41 185.30 162.79 184.94 C 166.09 181.09 159.81 176.33 163.78 172.85 C 165.28 170.39 164.35 173.86 164.48 174.97 C 165.85 178.94 170.04 180.67 173.95 181.24 C 173.30 185.16 168.23 186.23 166.03 189.21 C 165.56 193.15 173.73 190.89 170.08 195.86 C 168.14 198.40 169.56 200.85 172.02 202.26 C 172.86 204.45 175.39 208.31 168.27 204.77 C 164.84 202.44 161.42 199.63 156.92 202.00 C 158.09 206.73 162.72 207.49 167.01 207.61 C 165.28 211.37 161.01 211.71 158.23 208.91 C 158.07 208.41 157.75 207.43 157.59 206.93 C 156.27 204.34 156.20 200.26 153.12 199.15 C 151.11 200.68 149.05 200.85 146.98 199.31 C 143.27 201.70 141.82 206.15 144.13 209.98 C 147.22 208.07 152.38 201.45 153.06 208.95 C 150.96 212.55 152.59 216.23 157.15 215.02 C 159.85 214.75 157.58 218.24 158.07 219.79 C 160.15 221.22 162.53 222.08 164.75 223.26 C 166.46 224.55 169.84 226.78 171.44 224.42 C 174.14 220.53 175.59 229.47 170.84 227.22 C 169.50 227.15 168.16 227.08 166.82 227.00 C 156.05 224.04 158.45 243.91 168.03 244.23 C 167.76 244.68 167.21 245.60 166.93 246.05 C 162.14 244.68 158.41 240.79 154.08 239.03 C 147.35 243.96 144.94 257.88 153.17 262.82 C 157.67 264.06 162.53 268.11 167.19 266.10 C 169.98 265.66 171.96 267.54 172.41 263.22 C 174.85 264.33 176.19 268.97 179.77 268.63 C 182.09 266.79 186.51 267.60 184.19 271.12 C 180.00 272.62 173.71 273.31 176.76 279.19 C 175.26 278.69 173.73 278.24 172.19 277.87 C 164.30 273.24 156.22 268.76 149.11 262.94 C 148.35 260.70 147.62 258.46 146.82 256.24 C 146.87 251.07 146.99 245.92 146.92 240.77 C 147.05 235.35 144.73 230.06 141.26 225.97 C 141.03 224.45 140.59 221.41 140.37 219.90 C 135.13 214.46 133.49 207.20 132.11 200.05 C 132.89 194.87 144.66 189.38 135.89 186.41 C 140.34 182.74 136.68 176.77 135.68 172.32 C 134.65 169.56 132.60 170.42 130.77 171.89 C 131.40 168.10 134.66 165.16 134.09 161.11 C 136.48 150.06 132.27 140.28 130.33 129.74 C 130.10 128.41 129.88 127.07 129.67 125.74 C 131.32 122.07 132.94 118.37 135.07 114.94 C 137.13 112.54 138.71 109.79 140.17 107.01 M 139.16 123.11 C 135.81 125.85 134.85 130.77 138.18 133.95 C 144.13 134.31 144.83 124.02 139.16 123.11 Z" />
</g>
<g id="#575f69ff">
<path fill="#575f69" opacity="1.00" d=" M 170.52 109.41 C 173.05 106.52 176.20 109.90 178.97 110.58 C 182.84 108.35 186.95 111.02 190.90 111.77 C 193.71 110.66 196.39 109.24 199.21 108.14 C 197.57 110.46 195.90 112.75 194.13 114.96 L 193.21 114.75 C 190.80 114.20 188.14 114.77 186.19 112.88 C 187.31 115.14 187.87 117.61 186.86 120.03 C 183.90 119.98 182.63 117.75 182.63 115.03 C 180.27 114.85 179.19 117.55 177.01 118.05 C 171.41 117.61 172.17 126.55 177.89 126.10 C 182.10 127.68 173.61 127.19 172.00 128.11 C 171.78 130.99 177.05 129.80 176.03 132.99 C 176.68 135.39 173.87 135.61 172.19 135.89 C 170.21 130.85 169.27 125.37 166.02 120.92 C 167.12 116.95 169.04 113.25 170.52 109.41 Z" />
</g>
<g id="#0000002d">
</g>
<g id="#8e909ffd">
<path fill="#8e909f" opacity="1.00" d=" M 203.58 122.05 C 197.28 118.08 203.21 104.90 210.32 110.72 C 211.05 112.04 211.62 113.44 212.18 114.84 C 212.19 116.67 212.21 120.35 212.22 122.18 C 212.12 122.63 211.93 123.53 211.83 123.98 C 211.53 124.51 210.92 125.59 210.62 126.12 C 208.23 126.21 206.44 124.71 204.83 123.16 C 209.86 126.00 212.18 119.15 207.45 117.21 C 206.13 118.80 204.80 120.39 203.58 122.05 Z" />
</g>
<g id="#80848eff">
<path fill="#80848e" opacity="1.00" d=" M 191.44 124.59 C 187.28 121.94 192.07 117.84 193.21 114.75 L 194.13 114.96 C 194.94 119.19 195.83 123.43 195.87 127.76 C 193.60 128.60 189.40 131.42 191.44 124.59 Z" />
</g>
<g id="#30302a89">
</g>
<g id="#c2c6d1ff">
<path fill="#c2c6d1" opacity="1.00" d=" M 207.45 117.21 C 212.18 119.15 209.86 126.00 204.83 123.16 C 204.51 122.88 203.89 122.33 203.58 122.05 C 204.80 120.39 206.13 118.80 207.45 117.21 Z" />
</g>
<g id="#8d91a1ff">
<path fill="#8d91a1" opacity="1.00" d=" M 177.89 126.10 C 172.17 126.55 171.41 117.61 177.01 118.05 C 179.07 120.55 181.17 123.62 177.89 126.10 Z" />
</g>
<g id="#63687fff">
<path fill="#63687f" opacity="1.00" d=" M 148.73 127.39 C 151.97 123.13 158.22 119.82 163.04 122.86 C 151.27 116.95 152.44 139.04 161.92 135.04 C 157.06 139.83 148.52 133.61 148.73 127.39 Z" />
</g>
<g id="#575c72ff">
<path fill="#575c72" opacity="1.00" d=" M 139.16 123.11 C 144.83 124.02 144.13 134.31 138.18 133.95 C 134.85 130.77 135.81 125.85 139.16 123.11 Z" />
</g>
<g id="#949aa3ff">
<path fill="#949aa3" opacity="1.00" d=" M 161.92 135.04 C 152.44 139.04 151.27 116.95 163.04 122.86 C 164.66 125.53 164.54 128.67 163.99 131.61 C 163.31 132.76 162.66 133.93 161.92 135.04 Z" />
</g>
<g id="#28282c93">
</g>
<g id="#0000003d">
</g>
<g id="#868993ff">
<path fill="#868993" opacity="1.00" d=" M 182.44 135.17 C 183.06 131.83 178.08 125.44 184.70 125.96 C 182.37 133.56 190.89 131.32 195.09 131.28 C 195.81 138.01 188.79 130.38 187.71 136.83 C 183.88 138.27 182.12 137.72 182.44 135.17 Z" />
</g>
<g id="#393b45ea">
<path fill="#393b45" opacity="0.92" d=" M 211.09 128.91 L 211.80 128.92 C 215.82 131.22 220.31 133.45 222.10 138.03 C 218.55 134.95 212.41 133.56 211.09 128.91 Z" />
</g>
<g id="#01010172">
</g>
<g id="#4b5257ff">
<path fill="#4b5257" opacity="1.00" d=" M 176.25 144.75 C 172.20 141.69 180.06 129.63 182.44 135.17 C 182.12 137.72 183.88 138.27 187.71 136.83 C 191.73 140.74 193.75 134.82 197.74 134.98 C 198.30 138.07 197.56 143.29 201.91 143.48 L 202.44 144.12 C 197.89 142.74 191.74 147.07 193.88 151.94 C 191.21 151.19 184.63 153.60 186.68 148.86 C 186.99 143.83 179.79 144.45 176.25 144.75 Z" />
</g>
<g id="#00000050">
</g>
<g id="#464c58ff">
<path fill="#464c58" opacity="1.00" d=" M 158.82 146.70 C 160.90 142.99 161.81 138.45 165.73 136.10 C 165.64 139.13 173.14 135.77 170.01 140.00 C 166.14 141.86 172.39 146.23 168.19 147.21 C 162.66 148.49 168.93 155.80 171.96 151.21 C 173.85 154.75 171.37 157.72 169.96 160.83 C 171.62 162.79 174.29 161.32 176.47 161.50 C 178.01 164.12 180.26 167.88 183.85 166.07 C 183.93 166.62 184.10 167.71 184.18 168.25 C 182.60 170.37 179.98 175.89 184.66 175.60 C 190.33 175.86 183.53 188.28 189.72 186.68 C 197.13 184.53 189.79 191.20 193.92 193.95 C 195.88 199.63 192.98 195.21 191.05 192.89 C 189.13 191.55 187.40 189.88 185.25 188.91 C 183.89 192.60 184.20 196.36 186.01 199.81 C 179.48 197.06 182.43 203.89 182.38 207.60 C 186.42 206.74 187.92 210.54 190.85 211.93 C 192.79 212.33 195.69 214.91 192.10 215.39 C 188.85 215.60 186.97 213.29 185.18 210.99 C 184.86 210.66 184.23 210.00 183.92 209.68 C 176.30 203.40 179.00 217.75 173.25 211.92 C 173.09 207.96 170.85 205.90 167.01 207.61 C 162.72 207.49 158.09 206.73 156.92 202.00 C 161.42 199.63 164.84 202.44 168.27 204.77 C 175.39 208.31 172.86 204.45 172.02 202.26 C 180.24 203.12 176.25 194.26 170.08 195.86 C 173.73 190.89 165.56 193.15 166.03 189.21 C 168.23 186.23 173.30 185.16 173.95 181.24 C 170.04 180.67 165.85 178.94 164.48 174.97 C 164.35 173.86 165.28 170.39 163.78 172.85 C 159.81 176.33 166.09 181.09 162.79 184.94 C 158.41 185.30 155.65 180.99 153.12 178.08 C 157.58 173.35 148.14 171.32 147.86 166.22 C 151.54 165.81 155.25 165.73 158.89 165.07 C 157.59 162.96 153.84 160.84 156.09 158.17 C 158.26 155.38 153.20 155.15 151.40 154.16 C 149.29 159.67 144.40 163.43 140.04 167.10 C 142.02 162.39 139.55 158.29 137.99 154.00 C 139.47 147.54 144.23 139.63 151.78 140.08 C 156.58 144.24 145.93 146.05 149.02 151.03 C 153.14 152.09 151.98 143.15 156.07 149.21 C 153.48 153.10 156.60 156.91 160.37 153.41 C 164.20 152.27 163.16 143.97 158.82 146.70 M 173.28 169.24 C 169.84 170.84 168.63 175.93 173.08 177.00 C 179.26 178.72 180.02 166.24 173.28 169.24 Z" />
</g>
<g id="#0000005d">
</g>
<g id="#929892ff">
<path fill="#929892" opacity="1.00" d=" M 201.91 143.48 C 197.65 138.62 203.98 141.39 206.87 139.04 C 209.58 141.67 207.65 145.67 203.90 145.42 C 203.54 145.09 202.81 144.44 202.44 144.12 L 201.91 143.48 Z" />
</g>
<g id="#9095a3ff">
<path fill="#9095a3" opacity="1.00" d=" M 215.96 149.50 C 215.71 146.68 213.30 141.22 217.82 140.89 C 216.92 143.66 219.30 148.29 215.96 149.50 Z" />
</g>
<g id="#727d43ff">
<path fill="#727d43" opacity="1.00" d=" M 193.88 151.94 C 191.74 147.07 197.89 142.74 202.44 144.12 C 202.81 144.44 203.54 145.09 203.90 145.42 C 205.72 148.50 209.25 151.10 209.00 155.02 C 204.48 156.73 201.19 152.08 196.86 152.08 C 196.11 152.05 194.62 151.98 193.88 151.94 Z" />
</g>
<g id="#606472ff">
<path fill="#606472" opacity="1.00" d=" M 158.82 146.70 C 163.16 143.97 164.20 152.27 160.37 153.41 C 156.60 156.91 153.48 153.10 156.07 149.21 C 156.99 148.38 157.90 147.54 158.82 146.70 Z" />
</g>
<g id="#82848fff">
<path fill="#82848f" opacity="1.00" d=" M 211.87 153.65 C 211.15 151.25 206.35 145.58 211.37 146.23 C 214.07 145.40 213.18 150.34 215.96 149.50 C 216.20 150.83 215.34 154.46 217.43 152.22 C 220.00 150.02 220.10 153.90 219.13 155.58 C 216.27 159.10 212.73 157.97 211.87 153.65 Z" />
</g>
<g id="#8e977fff">
<path fill="#8e977f" opacity="1.00" d=" M 196.86 152.08 C 201.19 152.08 204.48 156.73 209.00 155.02 C 209.09 157.02 209.08 159.02 209.06 161.02 C 208.60 161.37 207.68 162.06 207.22 162.40 C 206.44 160.68 207.11 156.27 204.19 157.15 C 201.06 159.24 205.56 161.30 207.22 162.40 C 204.12 164.37 201.35 161.01 198.78 159.68 C 197.82 157.24 197.11 154.70 196.86 152.08 Z" />
</g>
<g id="#575c66ff">
<path fill="#575c66" opacity="1.00" d=" M 209.06 161.02 C 211.02 159.05 208.85 154.84 211.87 153.65 C 212.73 157.97 216.27 159.10 219.13 155.58 C 221.18 157.34 222.86 159.45 224.05 161.88 C 225.80 163.44 227.43 165.76 229.96 165.91 C 232.31 163.85 235.18 164.17 237.96 165.06 C 237.97 166.71 237.99 168.37 238.01 170.02 C 233.07 171.85 225.23 165.90 223.20 173.36 C 221.08 176.31 224.00 174.65 225.73 173.88 C 224.50 177.81 231.06 178.85 231.31 174.97 C 232.68 176.24 234.01 179.41 235.42 176.44 C 237.84 172.85 237.44 181.04 240.64 179.95 C 240.65 177.59 241.89 174.46 244.73 175.30 C 247.24 177.74 250.08 174.76 253.02 175.56 C 258.30 175.42 262.66 178.90 266.24 179.90 C 269.35 187.98 259.69 191.28 254.20 194.42 C 252.25 193.22 250.50 191.74 248.86 190.14 C 251.81 186.76 256.25 191.66 259.09 188.01 C 262.70 183.91 254.78 171.61 252.64 180.85 C 248.53 175.45 241.52 179.91 238.39 184.05 C 237.39 177.14 234.03 185.18 233.99 188.17 C 238.48 184.47 245.15 186.71 248.86 190.14 C 246.58 192.18 243.76 193.52 241.03 191.48 C 236.62 193.02 230.84 191.58 227.94 195.94 C 226.07 194.67 224.42 192.77 221.95 192.88 C 221.28 196.70 226.75 198.62 225.11 201.95 C 220.66 202.59 216.42 205.10 215.84 209.93 C 218.16 215.17 205.93 218.69 216.39 219.45 C 216.56 219.82 216.91 220.57 217.08 220.95 C 214.01 222.23 210.99 219.94 208.11 221.93 C 204.81 219.31 212.07 214.37 205.97 214.03 C 207.58 224.10 193.13 219.53 187.78 222.83 C 186.09 222.93 184.41 223.04 182.74 223.23 C 183.91 225.26 187.87 224.15 187.63 226.84 C 188.25 230.43 184.86 238.50 190.99 237.02 C 190.80 240.08 184.44 238.49 186.86 242.12 C 189.59 246.12 184.89 246.94 181.92 248.07 C 182.62 246.16 184.03 244.87 186.04 244.45 C 183.84 243.75 180.52 241.75 179.07 244.59 C 178.80 244.92 178.27 245.59 178.01 245.92 C 172.55 245.59 176.37 240.89 178.14 238.46 C 181.20 234.95 179.13 231.07 175.81 228.77 C 174.57 228.38 172.09 227.61 170.84 227.22 C 175.59 229.47 174.14 220.53 171.44 224.42 C 169.84 226.78 166.46 224.55 164.75 223.26 C 167.26 220.84 170.32 219.51 173.94 219.69 C 173.87 217.04 173.66 214.51 173.25 211.92 C 179.00 217.75 176.30 203.40 183.92 209.68 C 181.61 210.59 179.27 212.24 179.96 215.08 C 182.51 215.09 185.73 214.18 185.18 210.99 C 186.97 213.29 188.85 215.60 192.10 215.39 C 190.75 218.23 191.48 222.49 196.55 219.77 C 198.49 217.29 200.62 214.98 203.00 212.91 C 202.19 206.98 189.42 203.66 190.85 211.93 C 187.92 210.54 186.42 206.74 182.38 207.60 C 182.43 203.89 179.48 197.06 186.01 199.81 C 184.20 196.36 183.89 192.60 185.25 188.91 C 187.40 189.88 189.13 191.55 191.05 192.89 C 187.59 192.01 184.03 193.79 186.68 197.30 C 189.87 200.04 188.06 194.63 189.86 194.00 C 189.94 199.08 194.52 208.84 200.63 204.54 C 202.75 201.89 209.17 207.56 205.78 202.96 C 205.23 198.40 212.89 203.04 213.01 198.00 C 213.55 193.37 219.24 194.08 220.26 190.43 C 223.17 186.12 223.20 180.73 225.11 175.99 C 218.30 175.23 218.46 185.87 220.26 190.43 C 214.05 192.85 217.92 181.96 211.98 186.85 C 210.62 183.48 212.52 177.91 207.09 177.85 C 204.18 183.59 208.82 187.88 211.62 192.21 C 211.97 195.98 208.42 196.49 205.50 196.96 C 206.09 189.90 198.03 193.14 193.92 193.95 C 189.79 191.20 197.13 184.53 189.72 186.68 C 188.59 182.80 195.01 183.37 191.67 180.31 C 187.93 176.44 194.54 173.32 193.46 169.24 C 194.29 166.60 197.39 171.89 196.98 169.18 C 197.62 166.56 193.91 167.46 193.86 165.14 C 199.26 167.70 194.12 160.66 198.78 159.68 C 201.35 161.01 204.12 164.37 207.22 162.40 C 207.68 162.06 208.60 161.37 209.06 161.02 M 208.25 170.10 C 204.33 172.52 210.22 178.64 212.82 174.82 C 216.12 172.58 212.06 166.95 208.25 170.10 M 214.21 178.09 C 212.54 179.18 211.89 184.21 214.95 182.96 C 218.18 183.00 217.46 176.99 214.21 178.09 M 198.15 184.15 C 196.41 185.91 196.03 188.23 197.00 191.09 C 200.94 191.84 201.68 184.40 198.15 184.15 M 217.33 198.35 C 215.47 198.92 212.43 199.33 212.92 201.97 C 216.16 207.53 221.63 196.20 217.33 198.35 M 205.25 206.12 C 202.80 207.71 205.19 211.05 206.17 212.98 C 211.89 213.73 213.20 202.34 205.25 206.12 Z" />
</g>
<g id="#00000044">
</g>
<g id="#dce1dbff">
<path fill="#dce1db" opacity="1.00" d=" M 204.19 157.15 C 207.11 156.27 206.44 160.68 207.22 162.40 C 205.56 161.30 201.06 159.24 204.19 157.15 Z" />
</g>
<g id="#0000003a">
</g>
<g id="#9396a5ff">
<path fill="#9396a5" opacity="1.00" d=" M 224.05 161.88 C 222.83 153.42 232.73 160.44 229.96 165.91 C 227.43 165.76 225.80 163.44 224.05 161.88 Z" />
</g>
<g id="#282a2e91">
</g>
<g id="#00000030">
</g>
<g id="#9199a7ff">
<path fill="#9199a7" opacity="1.00" d=" M 183.85 166.07 C 185.37 160.07 191.33 168.91 184.18 168.25 C 184.10 167.71 183.93 166.62 183.85 166.07 Z" />
</g>
<g id="#666e6cff">
<path fill="#666e6c" opacity="1.00" d=" M 173.28 169.24 C 180.02 166.24 179.26 178.72 173.08 177.00 C 168.63 175.93 169.84 170.84 173.28 169.24 Z" />
</g>
<g id="#3b3d47fa">
<path fill="#3b3d47" opacity="0.98" d=" M 223.20 173.36 C 225.23 165.90 233.07 171.85 238.01 170.02 L 239.04 169.91 C 248.51 169.55 259.92 172.34 266.24 179.90 C 262.66 178.90 258.30 175.42 253.02 175.56 C 250.08 174.76 247.24 177.74 244.73 175.30 C 241.89 174.46 240.65 177.59 240.64 179.95 C 237.44 181.04 237.84 172.85 235.42 176.44 C 234.01 179.41 232.68 176.24 231.31 174.97 C 229.88 173.42 227.58 172.37 225.73 173.88 C 224.00 174.65 221.08 176.31 223.20 173.36 Z" />
</g>
<g id="#55596efb">
<path fill="#55596e" opacity="1.00" d=" M 130.77 171.89 C 132.60 170.42 134.65 169.56 135.68 172.32 C 136.68 176.77 140.34 182.74 135.89 186.41 C 130.18 184.15 128.41 177.35 130.77 171.89 Z" />
</g>
<g id="#898d9dff">
<path fill="#898d9d" opacity="1.00" d=" M 208.25 170.10 C 212.06 166.95 216.12 172.58 212.82 174.82 C 210.22 178.64 204.33 172.52 208.25 170.10 Z" />
</g>
<g id="#7d8295ff">
<path fill="#7d8295" opacity="1.00" d=" M 225.73 173.88 C 227.58 172.37 229.88 173.42 231.31 174.97 C 231.06 178.85 224.50 177.81 225.73 173.88 Z" />
</g>
<g id="#7c8293ff">
<path fill="#7c8293" opacity="1.00" d=" M 220.26 190.43 C 218.46 185.87 218.30 175.23 225.11 175.99 C 223.20 180.73 223.17 186.12 220.26 190.43 Z" />
</g>
<g id="#757682ff">
<path fill="#757682" opacity="1.00" d=" M 252.64 180.85 C 254.78 171.61 262.70 183.91 259.09 188.01 C 256.25 191.66 251.81 186.76 248.86 190.14 C 245.15 186.71 238.48 184.47 233.99 188.17 C 234.03 185.18 237.39 177.14 238.39 184.05 C 241.52 179.91 248.53 175.45 252.64 180.85 Z" />
</g>
<g id="#737978ff">
<path fill="#737978" opacity="1.00" d=" M 207.09 177.85 C 212.52 177.91 210.62 183.48 211.98 186.85 C 217.92 181.96 214.05 192.85 220.26 190.43 C 219.24 194.08 213.55 193.37 213.01 198.00 C 212.89 203.04 205.23 198.40 205.78 202.96 C 209.17 207.56 202.75 201.89 200.63 204.54 C 194.52 208.84 189.94 199.08 189.86 194.00 C 188.06 194.63 189.87 200.04 186.68 197.30 C 184.03 193.79 187.59 192.01 191.05 192.89 C 192.98 195.21 195.88 199.63 193.92 193.95 C 198.03 193.14 206.09 189.90 205.50 196.96 C 208.42 196.49 211.97 195.98 211.62 192.21 C 208.82 187.88 204.18 183.59 207.09 177.85 Z" />
</g>
<g id="#9094a7ff">
<path fill="#9094a7" opacity="1.00" d=" M 214.21 178.09 C 217.46 176.99 218.18 183.00 214.95 182.96 C 211.89 184.21 212.54 179.18 214.21 178.09 Z" />
</g>
<g id="#7b8092ff">
<path fill="#7b8092" opacity="1.00" d=" M 198.15 184.15 C 201.68 184.40 200.94 191.84 197.00 191.09 C 196.03 188.23 196.41 185.91 198.15 184.15 Z" />
</g>
<g id="#3e3f48fb">
<path fill="#3e3f48" opacity="1.00" d=" M 248.86 190.14 C 250.50 191.74 252.25 193.22 254.20 194.42 C 251.77 195.67 249.32 196.93 246.67 197.61 C 243.65 198.62 237.85 196.20 238.94 201.08 C 237.35 197.22 232.58 200.32 229.92 200.66 C 228.23 202.05 226.74 203.66 225.20 205.21 C 225.18 204.39 225.14 202.76 225.11 201.95 C 226.75 198.62 221.28 196.70 221.95 192.88 C 224.42 192.77 226.07 194.67 227.94 195.94 C 230.84 191.58 236.62 193.02 241.03 191.48 C 243.76 193.52 246.58 192.18 248.86 190.14 Z" />
</g>
<g id="#687171ff">
<path fill="#687171" opacity="1.00" d=" M 170.08 195.86 C 176.25 194.26 180.24 203.12 172.02 202.26 C 169.56 200.85 168.14 198.40 170.08 195.86 Z" />
</g>
<g id="#848b8bff">
<path fill="#848b8b" opacity="1.00" d=" M 217.33 198.35 C 221.63 196.20 216.16 207.53 212.92 201.97 C 212.43 199.33 215.47 198.92 217.33 198.35 Z" />
</g>
<g id="#4a4e5aff">
<path fill="#4a4e5a" opacity="1.00" d=" M 146.98 199.31 C 149.05 200.85 151.11 200.68 153.12 199.15 C 156.20 200.26 156.27 204.34 157.59 206.93 C 155.93 207.22 154.43 207.99 153.06 208.95 C 152.38 201.45 147.22 208.07 144.13 209.98 C 141.82 206.15 143.27 201.70 146.98 199.31 Z" />
</g>
<g id="#56595df7">
<path fill="#56595d" opacity="0.97" d=" M 229.92 200.66 C 232.58 200.32 237.35 197.22 238.94 201.08 C 238.97 207.91 239.81 215.18 236.41 221.40 C 234.54 219.42 232.87 217.13 232.11 214.48 C 235.23 214.18 237.91 210.83 233.17 210.65 C 234.89 207.34 234.80 200.35 229.92 200.66 Z" />
</g>
<g id="#00000053">
</g>
<g id="#6a6e74fe">
<path fill="#6a6e74" opacity="1.00" d=" M 225.20 205.21 C 226.74 203.66 228.23 202.05 229.92 200.66 C 234.80 200.35 234.89 207.34 233.17 210.65 C 237.91 210.83 235.23 214.18 232.11 214.48 C 232.87 217.13 234.54 219.42 236.41 221.40 C 235.23 225.76 232.34 229.29 229.28 232.51 L 228.20 232.53 C 229.44 229.70 231.04 227.04 232.37 224.26 C 230.27 226.20 227.51 225.11 225.02 225.04 C 225.77 227.65 224.83 231.83 228.20 232.53 C 224.97 231.61 218.86 234.94 218.66 230.11 C 213.78 231.23 213.07 237.50 208.01 238.02 C 203.30 238.18 197.70 244.69 202.53 248.47 C 203.94 250.52 209.01 254.52 207.75 249.36 C 211.22 256.49 224.92 243.37 216.18 240.97 C 213.79 235.70 222.86 231.22 226.39 236.01 C 223.49 238.74 221.35 243.03 223.95 246.87 C 226.17 251.24 227.51 254.43 233.22 253.80 C 233.47 254.05 233.96 254.55 234.20 254.79 C 230.45 258.24 233.01 263.18 235.00 266.84 C 232.87 268.35 230.12 272.85 229.95 277.06 C 227.51 273.42 222.92 273.90 219.92 271.26 C 225.02 272.56 226.85 266.18 220.91 267.20 C 219.07 264.54 214.33 264.85 217.01 268.72 C 213.03 267.99 211.25 273.19 207.61 274.55 L 206.60 274.73 C 204.92 271.06 202.32 264.30 209.26 266.79 C 207.21 264.27 201.62 266.23 203.68 261.86 C 205.91 257.11 198.03 259.40 196.57 261.49 C 195.62 264.03 192.91 266.13 190.54 263.80 C 187.66 265.64 182.99 264.72 183.25 260.63 C 183.76 256.60 179.94 259.53 177.80 259.81 C 177.35 256.29 181.70 256.17 182.90 253.43 C 185.72 248.71 188.05 252.12 186.17 256.13 C 190.25 253.74 195.40 251.35 192.21 245.26 C 197.78 243.12 195.78 238.58 194.95 233.98 C 193.38 234.64 191.96 235.60 190.99 237.02 C 184.86 238.50 188.25 230.43 187.63 226.84 C 188.63 232.63 194.64 223.83 197.83 225.61 C 199.42 220.20 190.66 225.56 187.78 222.83 C 193.13 219.53 207.58 224.10 205.97 214.03 C 212.07 214.37 204.81 219.31 208.11 221.93 C 210.99 219.94 214.01 222.23 217.08 220.95 C 215.59 227.25 224.55 225.05 223.06 219.96 C 221.03 219.98 219.04 220.44 217.08 220.95 C 216.91 220.57 216.56 219.82 216.39 219.45 C 205.93 218.69 218.16 215.17 215.84 209.93 C 219.48 209.49 223.09 208.45 225.20 205.21 M 221.30 255.30 C 219.27 261.23 227.23 253.27 221.30 255.30 Z" />
</g>
<g id="#868b8aff">
<path fill="#868b8a" opacity="1.00" d=" M 215.84 209.93 C 216.42 205.10 220.66 202.59 225.11 201.95 C 225.14 202.76 225.18 204.39 225.20 205.21 C 223.09 208.45 219.48 209.49 215.84 209.93 Z" />
</g>
<g id="#7a808bff">
<path fill="#7a808b" opacity="1.00" d=" M 205.25 206.12 C 213.20 202.34 211.89 213.73 206.17 212.98 C 205.19 211.05 202.80 207.71 205.25 206.12 Z" />
</g>
<g id="#5e6576ff">
<path fill="#5e6576" opacity="1.00" d=" M 153.06 208.95 C 154.43 207.99 155.93 207.22 157.59 206.93 C 157.75 207.43 158.07 208.41 158.23 208.91 C 158.05 210.97 157.75 213.03 157.15 215.02 C 152.59 216.23 150.96 212.55 153.06 208.95 Z" />
</g>
<g id="#62687bff">
<path fill="#62687b" opacity="1.00" d=" M 167.01 207.61 C 170.85 205.90 173.09 207.96 173.25 211.92 C 170.18 212.62 166.92 211.13 167.01 207.61 Z" />
</g>
<g id="#6c7481ff">
<path fill="#6c7481" opacity="1.00" d=" M 190.85 211.93 C 189.42 203.66 202.19 206.98 203.00 212.91 C 200.62 214.98 198.49 217.29 196.55 219.77 C 191.48 222.49 190.75 218.23 192.10 215.39 C 195.69 214.91 192.79 212.33 190.85 211.93 Z" />
</g>
<g id="#474e53ff">
<path fill="#474e53" opacity="1.00" d=" M 158.23 208.91 C 161.01 211.71 165.28 211.37 167.01 207.61 C 166.92 211.13 170.18 212.62 173.25 211.92 C 173.66 214.51 173.87 217.04 173.94 219.69 C 170.32 219.51 167.26 220.84 164.75 223.26 C 162.53 222.08 160.15 221.22 158.07 219.79 C 157.58 218.24 159.85 214.75 157.15 215.02 C 157.75 213.03 158.05 210.97 158.23 208.91 Z" />
</g>
<g id="#8a8e92ff">
<path fill="#8a8e92" opacity="1.00" d=" M 179.96 215.08 C 179.27 212.24 181.61 210.59 183.92 209.68 C 184.23 210.00 184.86 210.66 185.18 210.99 C 185.73 214.18 182.51 215.09 179.96 215.08 Z" />
</g>
<g id="#00000042">
</g>
<g id="#00000065">
</g>
<g id="#8a8f9aff">
<path fill="#8a8f9a" opacity="1.00" d=" M 217.08 220.95 C 219.04 220.44 221.03 219.98 223.06 219.96 C 224.55 225.05 215.59 227.25 217.08 220.95 Z" />
</g>
<g id="#00000032">
</g>
<g id="#868b94ff">
<path fill="#868b94" opacity="1.00" d=" M 182.74 223.23 C 184.41 223.04 186.09 222.93 187.78 222.83 C 190.66 225.56 199.42 220.20 197.83 225.61 C 194.64 223.83 188.63 232.63 187.63 226.84 C 187.87 224.15 183.91 225.26 182.74 223.23 Z" />
</g>
<g id="#91939cff">
<path fill="#91939c" opacity="1.00" d=" M 225.02 225.04 C 227.51 225.11 230.27 226.20 232.37 224.26 C 231.04 227.04 229.44 229.70 228.20 232.53 C 224.83 231.83 225.77 227.65 225.02 225.04 Z" />
</g>
<g id="#00000078">
</g>
<g id="#5a5f4dff">
<path fill="#5a5f4d" opacity="1.00" d=" M 168.03 244.23 C 158.45 243.91 156.05 224.04 166.82 227.00 C 169.44 230.58 169.57 235.20 172.30 238.71 C 173.91 240.49 172.21 242.28 171.09 243.73 C 170.33 243.86 168.80 244.10 168.03 244.23 Z" />
</g>
<g id="#6c7074ff">
<path fill="#6c7074" opacity="1.00" d=" M 166.82 227.00 C 168.16 227.08 169.50 227.15 170.84 227.22 C 172.09 227.61 174.57 228.38 175.81 228.77 C 168.75 230.71 173.25 237.43 178.14 238.46 C 176.37 240.89 172.55 245.59 178.01 245.92 C 179.03 248.35 179.92 252.09 176.40 251.95 C 176.01 248.54 174.10 245.44 171.09 243.73 C 172.21 242.28 173.91 240.49 172.30 238.71 C 169.57 235.20 169.44 230.58 166.82 227.00 Z" />
</g>
<g id="#00000026">
</g>
<g id="#9595a3ff">
<path fill="#9595a3" opacity="1.00" d=" M 178.14 238.46 C 173.25 237.43 168.75 230.71 175.81 228.77 C 179.13 231.07 181.20 234.95 178.14 238.46 Z" />
</g>
<g id="#505259fd">
<path fill="#505259" opacity="1.00" d=" M 208.01 238.02 C 213.07 237.50 213.78 231.23 218.66 230.11 C 218.86 234.94 224.97 231.61 228.20 232.53 L 229.28 232.51 C 228.37 233.72 227.41 234.90 226.39 236.01 C 222.86 231.22 213.79 235.70 216.18 240.97 C 214.79 240.51 213.30 239.75 211.84 240.40 C 209.78 241.53 208.09 243.20 206.49 244.89 C 204.03 246.41 206.33 248.14 207.75 249.36 C 209.01 254.52 203.94 250.52 202.53 248.47 C 197.70 244.69 203.30 238.18 208.01 238.02 Z" />
</g>
<g id="#555961f8">
<path fill="#555961" opacity="0.97" d=" M 318.79 233.62 C 326.15 232.77 324.29 244.47 318.25 246.17 C 314.43 247.29 310.38 247.42 309.03 242.93 C 309.65 240.24 313.12 238.86 315.66 239.46 C 318.91 240.65 317.74 235.46 318.79 233.62 Z" />
</g>
<g id="#777b82ff">
<path fill="#777b82" opacity="1.00" d=" M 190.99 237.02 C 191.96 235.60 193.38 234.64 194.95 233.98 C 195.78 238.58 197.78 243.12 192.21 245.26 C 195.40 251.35 190.25 253.74 186.17 256.13 C 188.05 252.12 185.72 248.71 182.90 253.43 C 180.63 250.88 181.76 246.85 179.07 244.59 C 180.52 241.75 183.84 243.75 186.04 244.45 C 184.03 244.87 182.62 246.16 181.92 248.07 C 184.89 246.94 189.59 246.12 186.86 242.12 C 184.44 238.49 190.80 240.08 190.99 237.02 Z" />
</g>
<g id="#26272ff4">
<path fill="#26272f" opacity="0.96" d=" M 303.28 241.23 C 308.43 238.66 313.20 235.29 318.79 233.62 C 317.74 235.46 318.91 240.65 315.66 239.46 C 313.12 238.86 309.65 240.24 309.03 242.93 C 303.85 242.97 296.70 244.52 295.26 250.32 C 294.32 254.47 287.41 251.70 287.72 256.83 C 284.28 261.33 279.07 266.39 272.85 263.86 C 275.06 262.88 278.17 262.77 279.32 260.33 C 284.16 250.90 293.61 244.80 303.28 241.23 Z" />
</g>
<g id="#0000001d">
</g>
<g id="#585f50ff">
<path fill="#585f50" opacity="1.00" d=" M 153.17 262.82 C 144.94 257.88 147.35 243.96 154.08 239.03 C 158.41 240.79 162.14 244.68 166.93 246.05 C 167.02 246.42 167.19 247.15 167.28 247.51 C 161.69 247.93 159.46 255.65 164.27 259.37 C 162.41 262.16 162.61 267.74 167.15 265.23 L 167.19 266.10 C 162.53 268.11 157.67 264.06 153.17 262.82 Z" />
</g>
<g id="#848a77ff">
<path fill="#848a77" opacity="1.00" d=" M 211.84 240.40 C 213.30 239.75 214.79 240.51 216.18 240.97 C 224.92 243.37 211.22 256.49 207.75 249.36 C 206.33 248.14 204.03 246.41 206.49 244.89 C 210.14 251.99 219.55 244.61 211.84 240.40 Z" />
</g>
<g id="#1b1b1caf">
<path fill="#1b1b1c" opacity="0.69" d=" M 145.96 247.18 C 146.20 245.57 146.68 242.37 146.92 240.77 C 146.99 245.92 146.87 251.07 146.82 256.24 C 146.64 255.90 146.29 255.22 146.11 254.88 C 146.09 254.15 146.04 252.71 146.02 251.98 C 146.01 251.49 145.99 250.50 145.98 250.01 C 145.98 249.30 145.97 247.89 145.96 247.18 Z" />
</g>
<g id="#a8adafff">
<path fill="#a8adaf" opacity="1.00" d=" M 206.49 244.89 C 208.09 243.20 209.78 241.53 211.84 240.40 C 219.55 244.61 210.14 251.99 206.49 244.89 Z" />
</g>
<g id="#393d47fc">
<path fill="#393d47" opacity="1.00" d=" M 295.26 250.32 C 296.70 244.52 303.85 242.97 309.03 242.93 C 310.38 247.42 314.43 247.29 318.25 246.17 C 314.68 249.87 299.20 252.96 308.84 257.17 C 312.28 258.24 315.73 258.25 319.20 257.18 C 327.03 253.84 335.71 251.33 344.25 252.48 C 333.37 253.59 324.72 260.51 314.15 262.10 C 319.37 266.45 314.75 275.72 307.71 270.93 C 315.06 270.38 306.51 262.40 304.53 267.44 C 303.94 273.83 294.30 262.53 298.78 262.15 C 301.73 268.32 308.79 259.47 304.08 255.92 C 301.06 252.53 311.25 249.46 306.75 246.34 C 302.51 245.23 300.50 247.99 299.86 251.83 C 298.61 256.47 293.61 258.05 290.45 261.13 C 291.11 265.41 292.52 269.69 293.62 273.69 C 290.43 275.92 289.35 279.56 287.81 282.93 C 285.75 282.95 283.83 282.15 282.30 280.79 C 280.70 276.85 281.97 272.86 282.93 268.96 C 279.31 267.93 278.03 271.98 275.68 273.80 C 272.04 275.16 271.36 270.34 269.75 268.21 C 267.88 267.24 265.75 266.92 263.89 265.91 L 263.74 264.82 C 266.26 264.86 268.76 264.66 271.24 264.20 C 271.64 264.11 272.45 263.94 272.85 263.86 C 279.07 266.39 284.28 261.33 287.72 256.83 C 287.41 251.70 294.32 254.47 295.26 250.32 Z" />
</g>
<g id="#474c56ff">
<path fill="#474c56" opacity="1.00" d=" M 168.03 244.23 C 168.80 244.10 170.33 243.86 171.09 243.73 C 174.10 245.44 176.01 248.54 176.40 251.95 C 179.92 252.09 179.03 248.35 178.01 245.92 C 178.27 245.59 178.80 244.92 179.07 244.59 C 181.76 246.85 180.63 250.88 182.90 253.43 C 181.70 256.17 177.35 256.29 177.80 259.81 C 179.94 259.53 183.76 256.60 183.25 260.63 C 182.99 264.72 187.66 265.64 190.54 263.80 C 192.91 266.13 195.62 264.03 196.57 261.49 C 198.03 259.40 205.91 257.11 203.68 261.86 C 201.62 266.23 207.21 264.27 209.26 266.79 C 202.32 264.30 204.92 271.06 206.60 274.73 C 205.87 277.17 206.67 279.63 206.93 282.08 C 203.22 282.62 203.84 277.47 200.48 276.84 C 202.31 270.71 193.08 266.34 188.85 270.96 C 187.29 271.01 185.74 271.04 184.19 271.12 C 186.51 267.60 182.09 266.79 179.77 268.63 C 176.19 268.97 174.85 264.33 172.41 263.22 C 171.96 267.54 169.98 265.66 167.19 266.10 L 167.15 265.23 C 167.06 262.18 166.93 259.17 166.96 256.13 C 168.67 257.36 170.93 258.72 170.87 255.52 C 166.96 254.86 168.32 250.40 167.28 247.51 C 167.19 247.15 167.02 246.42 166.93 246.05 C 167.21 245.60 167.76 244.68 168.03 244.23 Z" />
</g>
<g id="#60646cfe">
<path fill="#60646c" opacity="1.00" d=" M 299.86 251.83 C 300.50 247.99 302.51 245.23 306.75 246.34 C 311.25 249.46 301.06 252.53 304.08 255.92 C 308.79 259.47 301.73 268.32 298.78 262.15 C 294.30 262.53 303.94 273.83 304.53 267.44 C 306.51 262.40 315.06 270.38 307.71 270.93 C 314.75 275.72 319.37 266.45 314.15 262.10 C 324.72 260.51 333.37 253.59 344.25 252.48 C 345.85 255.25 347.13 259.51 343.25 261.00 C 339.54 259.45 335.69 261.81 332.63 263.78 C 327.91 262.46 324.41 267.35 321.58 270.24 C 322.14 276.54 313.59 276.40 310.78 280.92 C 312.88 282.42 314.82 285.54 317.73 284.85 C 319.91 283.31 317.61 280.37 318.04 278.17 C 320.18 276.65 323.51 276.85 323.53 273.44 C 330.88 269.09 338.72 266.59 347.25 265.66 C 349.28 267.92 348.90 272.83 345.23 273.22 C 339.42 269.14 335.31 279.49 330.54 275.65 C 327.76 277.75 324.12 279.52 322.71 282.83 C 328.22 281.29 333.61 279.22 338.68 276.58 C 339.10 276.92 339.94 277.59 340.36 277.93 C 339.42 279.50 339.43 281.51 340.43 283.06 C 339.38 283.80 338.31 284.52 337.20 285.17 C 332.88 282.32 322.92 285.60 321.39 291.18 C 321.27 286.98 312.88 286.73 313.72 291.15 C 313.16 288.81 314.14 283.55 310.15 286.10 C 304.95 287.82 306.26 292.78 306.98 296.97 C 302.27 298.31 305.81 289.91 300.57 290.58 C 295.13 292.20 295.34 288.10 293.85 285.10 C 291.03 285.68 288.19 285.97 285.71 284.21 C 285.75 287.77 290.36 287.90 291.26 290.97 C 286.96 291.04 277.42 287.17 276.91 293.94 C 273.88 294.13 270.88 294.30 267.91 294.81 C 269.18 293.52 268.69 292.32 267.43 291.29 C 267.61 288.20 265.26 286.20 269.81 284.95 C 269.75 289.17 270.76 289.75 271.41 285.37 C 276.69 286.02 273.78 281.39 272.36 278.70 C 276.01 275.69 279.30 277.82 279.64 282.19 C 279.57 285.69 284.11 283.28 282.30 280.79 C 283.83 282.15 285.75 282.95 287.81 282.93 C 289.35 279.56 290.43 275.92 293.62 273.69 C 292.52 269.69 291.11 265.41 290.45 261.13 C 293.61 258.05 298.61 256.47 299.86 251.83 M 299.45 269.39 C 295.86 272.20 289.60 282.16 297.96 281.09 C 297.13 282.34 296.08 283.51 295.92 285.07 C 303.20 284.60 305.95 271.12 299.45 269.39 Z" />
</g>
<g id="#6f7760ff">
<path fill="#6f7760" opacity="1.00" d=" M 164.27 259.37 C 159.46 255.65 161.69 247.93 167.28 247.51 C 168.32 250.40 166.96 254.86 170.87 255.52 C 170.93 258.72 168.67 257.36 166.96 256.13 C 166.93 259.17 167.06 262.18 167.15 265.23 C 162.61 267.74 162.41 262.16 164.27 259.37 Z" />
</g>
<g id="#3d3c44ec">
<path fill="#3d3c44" opacity="0.93" d=" M 223.95 246.87 C 227.96 247.73 230.52 250.99 233.22 253.80 C 227.51 254.43 226.17 251.24 223.95 246.87 Z" />
</g>
<g id="#c8cdb3ff">
<path fill="#c8cdb3" opacity="1.00" d=" M 221.30 255.30 C 227.23 253.27 219.27 261.23 221.30 255.30 Z" />
</g>
<g id="#494e5afe">
<path fill="#494e5a" opacity="1.00" d=" M 234.20 254.79 C 237.62 257.84 237.79 262.82 239.39 266.83 C 234.83 270.20 232.74 274.68 230.00 279.91 C 235.14 277.13 239.33 281.58 238.60 287.20 C 238.43 290.09 236.93 293.46 239.32 295.73 C 242.15 298.77 239.13 303.19 239.77 306.92 C 234.58 307.29 234.51 303.54 236.86 299.92 C 232.62 299.39 226.37 299.14 224.90 294.11 C 224.03 291.06 225.34 286.09 220.89 286.96 C 222.54 285.18 224.22 283.28 224.19 280.70 C 226.40 289.24 230.03 276.46 223.96 276.96 C 220.44 275.94 223.79 279.18 224.19 280.70 C 221.04 281.04 219.10 282.45 219.79 277.89 C 216.98 278.86 215.88 282.47 216.66 285.20 C 210.42 282.21 217.69 290.43 216.58 293.43 C 218.03 301.69 211.03 297.21 207.39 296.73 C 209.44 291.16 200.34 289.70 202.07 284.11 C 206.93 285.49 213.78 276.52 207.61 274.55 C 211.25 273.19 213.03 267.99 217.01 268.72 C 218.01 269.52 218.96 270.40 219.92 271.26 C 222.92 273.90 227.51 273.42 229.95 277.06 C 230.12 272.85 232.87 268.35 235.00 266.84 C 233.01 263.18 230.45 258.24 234.20 254.79 Z" />
</g>
<g id="#0f10149e">
<path fill="#0f1014" opacity="0.62" d=" M 308.84 257.17 C 312.30 257.12 315.72 257.16 319.20 257.18 C 315.73 258.25 312.28 258.24 308.84 257.17 Z" />
</g>
<g id="#37383ee9">
<path fill="#37383e" opacity="0.91" d=" M 332.63 263.78 C 335.69 261.81 339.54 259.45 343.25 261.00 C 341.83 261.85 340.29 262.50 338.78 263.17 C 336.73 263.37 334.68 263.64 332.63 263.78 Z" />
</g>
<g id="#00000015">
</g>
<g id="#31333afc">
<path fill="#31333a" opacity="1.00" d=" M 321.58 270.24 C 324.41 267.35 327.91 262.46 332.63 263.78 C 333.20 267.97 337.97 265.08 340.32 264.17 C 342.75 264.17 345.58 263.49 347.25 265.66 C 338.72 266.59 330.88 269.09 323.53 273.44 C 323.51 276.85 320.18 276.65 318.04 278.17 C 317.61 280.37 319.91 283.31 317.73 284.85 C 314.82 285.54 312.88 282.42 310.78 280.92 C 313.59 276.40 322.14 276.54 321.58 270.24 Z" />
</g>
<g id="#0e0e0f8b">
</g>
<g id="#12131491">
</g>
<g id="#868992ff">
<path fill="#868992" opacity="1.00" d=" M 217.01 268.72 C 214.33 264.85 219.07 264.54 220.91 267.20 C 226.85 266.18 225.02 272.56 219.92 271.26 C 218.96 270.40 218.01 269.52 217.01 268.72 Z" />
</g>
<g id="#0f0f1083">
</g>
<g id="#2d3139fc">
<path fill="#2d3139" opacity="1.00" d=" M 260.08 265.13 C 260.73 265.02 262.03 264.79 262.67 264.68 L 263.74 264.82 L 263.89 265.91 C 263.98 266.66 264.15 268.16 264.24 268.91 C 264.13 270.38 266.00 273.73 263.16 272.70 C 261.66 272.53 258.66 272.19 257.16 272.03 C 252.18 271.08 254.70 281.40 250.45 280.66 C 247.94 276.05 240.97 278.75 241.47 283.66 C 241.98 285.39 240.79 286.42 239.47 287.32 L 238.60 287.20 C 239.33 281.58 235.14 277.13 230.00 279.91 C 232.74 274.68 234.83 270.20 239.39 266.83 C 241.18 275.58 247.19 263.47 252.91 265.78 C 255.80 267.16 258.20 266.94 260.08 265.13 Z" />
</g>
<g id="#484d59ff">
<path fill="#484d59" opacity="1.00" d=" M 263.89 265.91 C 265.75 266.92 267.88 267.24 269.75 268.21 C 271.36 270.34 272.04 275.16 275.68 273.80 C 278.03 271.98 279.31 267.93 282.93 268.96 C 281.97 272.86 280.70 276.85 282.30 280.79 C 284.11 283.28 279.57 285.69 279.64 282.19 C 279.30 277.82 276.01 275.69 272.36 278.70 C 269.55 275.03 269.37 269.91 264.24 268.91 C 264.15 268.16 263.98 266.66 263.89 265.91 Z" />
</g>
<g id="#9093a0ff">
<path fill="#9093a0" opacity="1.00" d=" M 188.85 270.96 C 193.08 266.34 202.31 270.71 200.48 276.84 C 199.10 278.40 197.75 280.00 196.13 281.30 C 189.80 282.25 192.85 274.01 188.85 270.96 Z" />
</g>
<g id="#747881ff">
<path fill="#747881" opacity="1.00" d=" M 264.24 268.91 C 269.37 269.91 269.55 275.03 272.36 278.70 C 273.78 281.39 276.69 286.02 271.41 285.37 C 270.76 289.75 269.75 289.17 269.81 284.95 C 265.26 286.20 267.61 288.20 267.43 291.29 C 265.01 285.23 257.04 287.47 254.43 292.29 C 255.53 289.89 253.95 289.36 252.18 288.48 C 252.66 285.02 249.37 281.73 255.01 283.57 C 255.44 279.66 256.70 275.93 257.16 272.03 C 258.66 272.19 261.66 272.53 263.16 272.70 C 257.96 272.18 260.27 278.76 259.20 282.09 C 263.88 282.56 266.33 275.87 263.16 272.70 C 266.00 273.73 264.13 270.38 264.24 268.91 Z" />
</g>
<g id="#90949dff">
<path fill="#90949d" opacity="1.00" d=" M 299.45 269.39 C 305.95 271.12 303.20 284.60 295.92 285.07 C 296.08 283.51 297.13 282.34 297.96 281.09 C 289.60 282.16 295.86 272.20 299.45 269.39 Z" />
</g>
<g id="#565f46fd">
<path fill="#565f46" opacity="1.00" d=" M 176.76 279.19 C 173.71 273.31 180.00 272.62 184.19 271.12 C 185.74 271.04 187.29 271.01 188.85 270.96 C 192.85 274.01 189.80 282.25 196.13 281.30 C 193.17 282.51 189.99 283.00 186.83 283.28 C 183.41 282.06 180.05 280.71 176.76 279.19 Z" />
</g>
<g id="#454959ff">
<path fill="#454959" opacity="1.00" d=" M 250.45 280.66 C 254.70 281.40 252.18 271.08 257.16 272.03 C 256.70 275.93 255.44 279.66 255.01 283.57 C 249.37 281.73 252.66 285.02 252.18 288.48 C 250.10 287.07 248.78 284.20 246.11 283.93 C 243.66 285.22 242.42 290.73 239.47 287.32 C 240.79 286.42 241.98 285.39 241.47 283.66 C 240.97 278.75 247.94 276.05 250.45 280.66 Z" />
</g>
<g id="#9598aaff">
<path fill="#9598aa" opacity="1.00" d=" M 259.20 282.09 C 260.27 278.76 257.96 272.18 263.16 272.70 C 266.33 275.87 263.88 282.56 259.20 282.09 Z" />
</g>
<g id="#2e2f34f8">
<path fill="#2e2f34" opacity="0.97" d=" M 330.54 275.65 C 335.31 279.49 339.42 269.14 345.23 273.22 C 343.00 274.21 340.37 274.66 338.68 276.58 C 333.61 279.22 328.22 281.29 322.71 282.83 C 324.12 279.52 327.76 277.75 330.54 275.65 Z" />
</g>
<g id="#32353ffb">
<path fill="#32353f" opacity="1.00" d=" M 206.93 282.08 C 206.67 279.63 205.87 277.17 206.60 274.73 L 207.61 274.55 C 213.78 276.52 206.93 285.49 202.07 284.11 C 200.34 289.70 209.44 291.16 207.39 296.73 C 211.03 297.21 218.03 301.69 216.58 293.43 C 217.69 290.43 210.42 282.21 216.66 285.20 C 217.78 286.40 219.24 287.03 220.89 286.96 C 225.34 286.09 224.03 291.06 224.90 294.11 C 226.37 299.14 232.62 299.39 236.86 299.92 C 234.51 303.54 234.58 307.29 239.77 306.92 C 240.56 306.91 242.13 306.90 242.91 306.89 C 244.44 307.49 245.10 308.52 244.09 309.98 C 241.52 309.86 238.42 310.29 237.48 313.12 C 234.80 311.67 232.57 308.98 228.99 310.04 C 220.84 311.32 217.34 302.30 210.29 300.74 C 200.13 298.73 192.75 291.31 186.83 283.28 C 189.99 283.00 193.17 282.51 196.13 281.30 C 197.75 280.00 199.10 278.40 200.48 276.84 C 203.84 277.47 203.22 282.62 206.93 282.08 Z" />
</g>
<g id="#22242cff">
<path fill="#22242c" opacity="1.00" d=" M 224.19 280.70 C 223.79 279.18 220.44 275.94 223.96 276.96 C 230.03 276.46 226.40 289.24 224.19 280.70 Z" />
</g>
<g id="#6a6f7cff">
<path fill="#6a6f7c" opacity="1.00" d=" M 216.66 285.20 C 215.88 282.47 216.98 278.86 219.79 277.89 C 219.10 282.45 221.04 281.04 224.19 280.70 C 224.22 283.28 222.54 285.18 220.89 286.96 C 219.24 287.03 217.78 286.40 216.66 285.20 Z" />
</g>
<g id="#343833a3">
<path fill="#343833" opacity="0.64" d=" M 340.36 277.93 C 340.37 279.21 340.41 281.78 340.43 283.06 C 339.43 281.51 339.42 279.50 340.36 277.93 Z" />
</g>
<g id="#3a3b40f6">
<path fill="#3a3b40" opacity="0.96" d=" M 321.39 291.18 C 322.92 285.60 332.88 282.32 337.20 285.17 C 334.97 287.22 328.75 285.66 330.70 290.01 C 327.39 290.25 324.23 291.07 321.10 292.06 L 321.39 291.18 Z" />
</g>
<g id="#64686dff">
<path fill="#64686d" opacity="1.00" d=" M 239.47 287.32 C 242.42 290.73 243.66 285.22 246.11 283.93 C 248.78 284.20 250.10 287.07 252.18 288.48 C 253.95 289.36 255.53 289.89 254.43 292.29 C 257.04 287.47 265.01 285.23 267.43 291.29 C 266.04 290.63 261.02 287.98 262.57 291.52 C 265.66 295.22 259.37 298.29 260.24 302.42 C 260.35 299.93 259.78 295.71 256.26 297.17 C 252.76 299.32 257.78 302.54 260.24 302.42 C 257.53 303.44 254.66 303.94 251.95 304.95 C 253.72 301.35 255.74 295.69 249.91 295.03 C 243.55 295.46 248.21 304.73 242.91 306.89 C 242.13 306.90 240.56 306.91 239.77 306.92 C 239.13 303.19 242.15 298.77 239.32 295.73 C 236.93 293.46 238.43 290.09 238.60 287.20 L 239.47 287.32 Z" />
</g>
<g id="#44484cfb">
<path fill="#44484c" opacity="1.00" d=" M 285.71 284.21 C 288.19 285.97 291.03 285.68 293.85 285.10 C 295.34 288.10 295.13 292.20 300.57 290.58 C 305.81 289.91 302.27 298.31 306.98 296.97 C 306.26 292.78 304.95 287.82 310.15 286.10 C 314.14 283.55 313.16 288.81 313.72 291.15 C 316.98 295.57 310.80 297.40 309.72 301.21 C 303.70 295.25 294.88 300.26 287.53 298.97 C 285.07 297.42 278.54 293.98 282.09 301.74 C 282.87 301.93 284.44 302.31 285.23 302.50 C 281.94 303.79 278.46 301.98 275.26 301.20 C 275.89 299.80 276.58 298.42 277.00 296.94 L 276.99 296.13 C 276.97 295.58 276.93 294.49 276.91 293.94 C 277.42 287.17 286.96 291.04 291.26 290.97 C 290.36 287.90 285.75 287.77 285.71 284.21 M 293.95 292.01 C 293.08 294.86 296.91 298.68 299.28 296.30 C 303.04 292.89 298.04 289.88 293.95 292.01 Z" />
</g>
<g id="#778087fc">
<path fill="#778087" opacity="1.00" d=" M 313.72 291.15 C 312.88 286.73 321.27 286.98 321.39 291.18 L 321.10 292.06 C 319.83 293.48 318.90 295.14 319.10 297.13 L 319.03 298.20 C 317.81 299.79 316.20 301.02 314.20 301.45 C 312.74 300.83 311.24 300.75 309.72 301.21 C 310.80 297.40 316.98 295.57 313.72 291.15 Z" />
</g>
<g id="#3e414cfc">
<path fill="#3e414c" opacity="1.00" d=" M 262.57 291.52 C 261.02 287.98 266.04 290.63 267.43 291.29 C 268.69 292.32 269.18 293.52 267.91 294.81 C 266.92 296.33 266.07 297.96 265.57 299.71 C 264.68 301.44 265.23 303.31 265.85 305.02 C 260.03 307.82 253.75 309.00 247.27 310.06 C 246.48 310.04 244.88 310.00 244.09 309.98 C 245.10 308.52 244.44 307.49 242.91 306.89 C 248.21 304.73 243.55 295.46 249.91 295.03 C 255.74 295.69 253.72 301.35 251.95 304.95 C 254.66 303.94 257.53 303.44 260.24 302.42 C 259.37 298.29 265.66 295.22 262.57 291.52 Z" />
</g>
<g id="#5b5d61fa">
<path fill="#5b5d61" opacity="0.98" d=" M 321.10 292.06 C 324.23 291.07 327.39 290.25 330.70 290.01 C 330.61 291.58 331.96 294.31 330.20 295.15 C 326.55 296.10 322.08 294.36 319.10 297.13 C 318.90 295.14 319.83 293.48 321.10 292.06 Z" />
</g>
<g id="#939c8cff">
<path fill="#939c8c" opacity="1.00" d=" M 293.95 292.01 C 298.04 289.88 303.04 292.89 299.28 296.30 C 296.91 298.68 293.08 294.86 293.95 292.01 Z" />
</g>
<g id="#79845bff">
<path fill="#79845b" opacity="1.00" d=" M 267.91 294.81 C 270.88 294.30 273.88 294.13 276.91 293.94 C 276.93 294.49 276.97 295.58 276.99 296.13 C 273.42 292.25 273.40 300.06 277.00 296.94 C 276.58 298.42 275.89 299.80 275.26 301.20 C 271.96 301.04 268.68 300.87 265.57 299.71 C 266.07 297.96 266.92 296.33 267.91 294.81 Z" />
</g>
<g id="#d8decaff">
<path fill="#d8deca" opacity="1.00" d=" M 277.00 296.94 C 273.40 300.06 273.42 292.25 276.99 296.13 L 277.00 296.94 Z" />
</g>
<g id="#2d2e31d7">
<path fill="#2d2e31" opacity="0.84" d=" M 319.10 297.13 C 322.08 294.36 326.55 296.10 330.20 295.15 C 326.74 296.96 322.92 297.99 319.03 298.20 L 319.10 297.13 Z" />
</g>
<g id="#979babff">
<path fill="#979bab" opacity="1.00" d=" M 256.26 297.17 C 259.78 295.71 260.35 299.93 260.24 302.42 C 257.78 302.54 252.76 299.32 256.26 297.17 Z" />
</g>
<g id="#6e7754f7">
<path fill="#6e7754" opacity="0.97" d=" M 282.09 301.74 C 278.54 293.98 285.07 297.42 287.53 298.97 C 286.81 300.17 286.12 301.41 285.23 302.50 C 284.44 302.31 282.87 301.93 282.09 301.74 Z" />
</g>
<g id="#59622feb">
<path fill="#59622f" opacity="0.92" d=" M 265.85 305.02 C 265.23 303.31 264.68 301.44 265.57 299.71 C 268.68 300.87 271.96 301.04 275.26 301.20 C 272.72 303.65 269.30 304.72 265.85 305.02 Z" />
</g>
<g id="#31373db1">
<path fill="#31373d" opacity="0.69" d=" M 309.72 301.21 C 311.24 300.75 312.74 300.83 314.20 301.45 L 313.91 301.98 C 312.47 302.43 310.85 302.27 309.72 301.21 Z" />
</g>
<g id="#5e6369e8">
<path fill="#5e6369" opacity="0.91" d=" M 237.48 313.12 C 238.42 310.29 241.52 309.86 244.09 309.98 C 244.88 310.00 246.48 310.04 247.27 310.06 C 246.13 314.06 240.86 315.31 237.48 313.12 Z" />
</g>
</svg>



