<?xml version="1.0" encoding="UTF-8" ?>
<!DOCTYPE svg PUBLIC "-//W3C//DTD SVG 1.1//EN" "http://www.w3.org/Graphics/SVG/1.1/DTD/svg11.dtd">
<svg width="384pt" height="384pt" viewBox="0 0 384 384" version="1.1" xmlns="http://www.w3.org/2000/svg">
<g id="#00000010">
</g>
<g id="#00000019">
</g>
<g id="#4c5059fc">
<path fill="#4c5059" opacity="1.00" d=" M 189.28 32.29 C 191.52 29.68 194.74 31.77 197.12 32.98 C 197.85 36.05 200.24 33.27 202.04 32.83 C 206.39 37.20 200.60 37.46 197.21 38.95 C 202.60 46.67 190.85 42.46 187.28 42.14 C 184.09 45.13 192.71 44.48 193.24 47.76 C 194.88 53.77 199.73 40.78 201.02 48.05 C 201.06 50.23 202.00 52.20 203.27 53.93 C 194.99 51.86 199.09 60.44 194.09 61.22 C 193.83 63.21 195.52 65.87 193.27 67.10 C 192.34 65.18 191.83 62.52 189.13 63.49 C 189.10 59.27 185.48 58.10 181.87 57.83 C 183.51 56.23 187.96 53.63 179.16 55.77 C 176.07 55.90 173.02 55.63 170.15 54.39 C 167.77 57.27 164.23 61.96 160.05 59.85 C 161.36 57.33 162.40 52.34 166.12 53.67 C 168.67 54.34 170.34 50.77 170.25 48.60 C 171.81 47.29 174.98 46.19 172.93 43.84 C 177.70 43.17 176.86 37.92 178.80 34.77 C 181.60 31.19 186.53 35.90 189.28 32.29 Z" />
</g>
<g id="#656a71fe">
<path fill="#656a71" opacity="1.00" d=" M 202.04 32.83 C 203.44 33.01 204.79 33.44 206.05 34.06 C 205.89 35.25 205.22 37.64 206.97 37.90 L 207.78 38.07 C 210.52 38.57 213.36 38.81 216.16 38.94 C 216.46 39.39 217.06 40.28 217.36 40.73 C 217.27 42.54 217.09 46.15 216.99 47.95 C 213.63 46.79 208.67 44.29 209.71 50.13 C 207.02 47.94 204.58 46.29 201.02 48.05 C 199.73 40.78 194.88 53.77 193.24 47.76 C 192.71 44.48 184.09 45.13 187.28 42.14 C 190.85 42.46 202.60 46.67 197.21 38.95 C 200.60 37.46 206.39 37.20 202.04 32.83 Z" />
</g>
<g id="#2d2f2495">
</g>
<g id="#2e333ba8">
<path fill="#2e333b" opacity="0.66" d=" M 207.78 38.07 C 210.41 38.69 214.16 36.76 216.16 38.94 C 213.36 38.81 210.52 38.57 207.78 38.07 Z" />
</g>
<g id="#414046e8">
<path fill="#414046" opacity="0.91" d=" M 217.36 40.73 C 219.53 43.94 219.42 48.28 222.13 51.11 C 220.25 51.55 216.30 53.38 216.91 49.89 C 216.93 49.40 216.97 48.44 216.99 47.95 C 217.09 46.15 217.27 42.54 217.36 40.73 Z" />
</g>
<g id="#666c82f9">
<path fill="#666c82" opacity="0.98" d=" M 158.43 48.63 C 160.71 42.78 167.60 42.09 172.93 43.84 C 174.98 46.19 171.81 47.29 170.25 48.60 C 166.77 49.23 159.43 53.95 158.43 48.63 Z" />
</g>
<g id="#8c9190ff">
<path fill="#8c9190" opacity="1.00" d=" M 209.71 50.13 C 208.67 44.29 213.63 46.79 216.99 47.95 C 216.97 48.44 216.93 49.40 216.91 49.89 C 214.19 54.62 203.45 55.74 209.14 63.05 C 208.88 63.33 208.35 63.90 208.08 64.18 C 204.24 64.01 197.96 65.70 197.90 60.14 C 201.76 59.62 209.06 57.35 203.27 53.93 C 202.00 52.20 201.06 50.23 201.02 48.05 C 204.58 46.29 207.02 47.94 209.71 50.13 Z" />
</g>
<g id="#3f434dfe">
<path fill="#3f434d" opacity="1.00" d=" M 158.03 49.19 L 158.43 48.63 C 159.43 53.95 166.77 49.23 170.25 48.60 C 170.34 50.77 168.67 54.34 166.12 53.67 C 162.40 52.34 161.36 57.33 160.05 59.85 C 164.23 61.96 167.77 57.27 170.15 54.39 C 173.02 55.63 176.07 55.90 179.16 55.77 C 187.96 53.63 183.51 56.23 181.87 57.83 C 182.60 66.04 179.01 62.24 176.07 59.69 C 176.06 63.62 177.44 67.30 178.04 71.13 C 175.46 70.81 174.26 68.20 172.43 66.68 C 172.66 68.50 172.92 70.31 172.99 72.14 C 169.02 71.97 166.81 65.47 162.81 67.60 C 162.37 72.26 167.93 84.07 157.88 81.20 C 158.25 86.43 164.34 84.96 167.76 86.92 C 166.85 88.55 166.03 90.25 167.77 91.64 C 165.46 95.21 171.29 95.17 173.40 96.42 C 173.74 101.30 167.72 106.93 163.11 103.81 C 163.26 101.85 163.77 99.94 164.00 98.00 C 163.64 90.00 146.49 99.09 157.16 100.15 C 156.04 103.64 155.91 106.08 160.09 104.10 C 160.19 109.84 154.00 114.66 157.65 120.35 C 158.19 123.45 160.86 123.05 163.20 122.19 L 164.03 122.12 C 166.31 121.98 168.66 121.92 170.77 120.95 C 175.79 118.19 174.79 111.38 171.33 108.48 C 167.92 110.37 166.95 106.70 169.94 106.10 C 176.58 107.81 176.99 116.11 177.46 121.70 C 175.30 124.22 166.40 125.26 172.42 128.56 C 180.15 126.63 176.07 129.89 175.00 131.89 C 173.56 133.68 173.80 138.77 170.67 136.02 C 173.97 127.39 162.19 131.86 163.03 137.94 C 163.62 141.89 167.82 138.56 169.87 137.72 C 171.30 143.37 169.49 149.90 173.16 154.83 C 174.92 156.70 172.12 157.80 171.05 159.02 C 172.65 161.00 174.27 163.02 176.26 164.63 C 179.32 164.01 182.42 164.03 185.03 166.00 C 186.11 169.25 185.68 173.02 182.21 174.60 C 183.89 176.64 187.95 173.57 187.48 177.83 C 186.90 182.93 181.32 175.52 179.91 180.78 C 172.56 176.72 172.40 184.86 177.20 187.52 C 177.20 189.62 176.67 191.84 174.18 192.03 C 173.36 192.04 171.70 192.06 170.87 192.07 C 167.05 193.27 169.42 201.25 164.34 199.65 C 160.84 198.84 154.45 209.33 160.71 207.83 C 161.31 205.90 161.76 203.93 162.26 201.98 C 163.83 205.41 166.53 208.73 165.37 212.72 C 168.43 213.33 174.95 217.77 165.06 216.07 C 161.10 216.05 161.14 222.56 161.50 225.16 C 161.91 228.59 164.20 231.31 165.84 234.23 C 161.39 232.41 157.65 228.21 158.30 223.13 C 158.74 220.68 157.81 218.28 155.21 217.67 C 157.53 220.97 157.38 226.41 152.37 225.68 C 149.99 221.83 145.19 221.64 142.10 218.76 C 142.45 212.23 145.27 206.20 146.04 199.79 C 144.60 201.44 143.31 203.23 141.58 204.59 C 141.82 207.15 142.10 210.14 139.02 211.06 C 132.80 210.02 137.17 196.61 128.81 202.13 C 128.89 197.67 128.80 193.23 128.78 188.78 C 129.43 185.70 131.92 183.56 134.05 181.45 C 139.77 181.19 136.19 185.96 135.94 189.06 C 144.07 187.99 148.20 180.22 154.83 177.79 C 157.94 175.72 152.81 171.99 155.56 169.60 C 157.35 167.86 156.20 165.75 154.97 164.10 C 152.61 165.82 150.15 167.52 147.22 168.09 C 149.13 164.22 144.70 163.92 144.62 160.36 C 141.62 162.21 136.70 156.73 137.77 162.20 C 137.16 160.00 136.55 157.71 134.87 156.06 C 131.52 157.09 129.30 160.00 128.07 163.15 C 127.77 160.31 128.92 157.70 130.31 155.30 C 131.07 154.28 132.06 153.14 131.39 151.80 C 131.15 150.18 130.99 148.54 130.89 146.90 C 132.04 140.99 136.81 134.49 133.35 128.77 C 131.60 121.51 133.35 113.83 136.11 107.03 C 137.87 105.17 139.61 103.26 141.02 101.11 C 142.38 98.64 141.51 95.52 141.91 92.81 C 142.40 90.81 143.37 88.98 144.20 87.12 C 144.41 86.84 144.84 86.28 145.05 86.00 C 146.58 81.88 146.42 77.00 145.35 72.68 C 145.26 72.27 145.09 71.46 145.01 71.05 C 144.91 69.24 144.72 65.62 144.63 63.81 C 144.91 63.39 145.49 62.55 145.77 62.13 C 147.30 64.05 148.95 65.86 150.51 67.74 C 154.81 65.14 160.67 58.28 151.79 59.73 C 154.82 56.86 158.69 53.84 158.03 49.19 M 145.24 110.13 C 142.59 112.87 139.28 116.70 143.20 119.94 C 149.84 121.74 153.34 108.50 145.24 110.13 M 157.25 151.12 C 152.61 154.94 165.04 155.83 160.98 159.90 C 155.78 162.74 165.20 172.20 168.04 167.99 C 169.89 164.47 167.41 157.49 164.59 163.74 C 158.06 162.42 167.49 157.65 169.87 155.79 C 168.70 150.30 161.41 150.78 157.25 151.12 M 146.25 187.20 C 143.52 189.31 141.23 192.53 143.19 195.98 C 147.22 196.27 152.35 185.83 146.25 187.20 M 156.17 192.10 C 154.46 195.46 150.15 199.23 152.65 203.32 C 159.04 206.14 162.83 191.20 156.17 192.10 Z" />
</g>
<g id="#5d5e66fc">
<path fill="#5d5e66" opacity="1.00" d=" M 209.14 63.05 C 203.45 55.74 214.19 54.62 216.91 49.89 C 216.30 53.38 220.25 51.55 222.13 51.11 C 226.32 49.87 231.46 54.38 231.27 58.17 C 222.53 55.00 217.61 67.20 209.14 63.05 Z" />
</g>
<g id="#6f7367ff">
<path fill="#6f7367" opacity="1.00" d=" M 203.27 53.93 C 209.06 57.35 201.76 59.62 197.90 60.14 C 197.96 65.70 204.24 64.01 208.08 64.18 C 206.37 66.10 204.70 68.05 203.07 70.05 C 202.80 70.37 202.25 71.03 201.98 71.35 C 199.80 71.04 200.20 68.68 199.71 67.08 C 197.36 68.61 195.26 70.47 192.98 72.08 C 191.53 70.07 190.33 67.73 187.79 66.94 C 188.58 68.84 189.95 70.41 191.04 72.13 C 189.42 74.78 185.76 74.97 183.80 77.39 L 183.01 77.92 C 185.51 73.71 187.30 68.29 184.06 63.98 C 185.74 63.77 187.44 63.61 189.13 63.49 C 191.83 62.52 192.34 65.18 193.27 67.10 C 195.52 65.87 193.83 63.21 194.09 61.22 C 199.09 60.44 194.99 51.86 203.27 53.93 Z" />
</g>
<g id="#00000022">
</g>
<g id="#50565ffe">
<path fill="#50565f" opacity="1.00" d=" M 176.07 59.69 C 179.01 62.24 182.60 66.04 181.87 57.83 C 181.78 60.14 181.88 62.62 184.06 63.98 C 187.30 68.29 185.51 73.71 183.01 77.92 C 181.04 80.24 182.63 85.21 185.81 84.96 C 187.36 82.10 190.12 79.51 190.03 76.03 C 186.26 74.70 188.11 79.48 185.74 80.68 C 183.54 82.06 184.40 78.59 183.80 77.39 C 185.76 74.97 189.42 74.78 191.04 72.13 C 189.95 70.41 188.58 68.84 187.79 66.94 C 190.33 67.73 191.53 70.07 192.98 72.08 C 195.26 70.47 197.36 68.61 199.71 67.08 C 200.20 68.68 199.80 71.04 201.98 71.35 C 197.91 77.37 188.71 81.61 191.63 90.35 C 195.07 97.73 202.17 99.53 209.08 101.63 C 206.45 101.68 205.15 103.88 203.57 105.59 C 199.63 106.86 195.26 107.09 192.88 110.97 C 189.90 110.71 190.96 107.88 189.90 106.01 C 188.22 106.54 186.63 107.32 184.98 107.90 C 180.11 107.46 179.74 115.75 185.19 115.13 C 183.77 115.95 177.54 117.24 181.79 118.13 C 185.01 117.79 182.78 124.21 185.60 122.40 C 190.10 118.61 187.91 128.62 192.90 127.72 C 195.76 125.33 198.66 127.88 201.83 127.65 C 203.50 129.18 202.12 132.21 203.10 134.27 C 201.72 136.01 200.49 137.87 199.34 139.76 C 197.89 142.94 196.29 144.91 193.68 141.42 C 187.91 141.17 191.25 146.78 187.48 148.31 C 189.16 144.37 185.03 140.25 181.89 144.09 C 182.08 140.06 187.30 139.31 189.08 135.88 C 183.01 127.57 173.68 152.36 184.96 145.24 C 185.69 150.32 192.00 154.76 186.91 159.89 C 184.75 161.23 184.90 163.78 185.03 166.00 C 182.42 164.03 179.32 164.01 176.26 164.63 C 174.27 163.02 172.65 161.00 171.05 159.02 C 172.12 157.80 174.92 156.70 173.16 154.83 C 169.49 149.90 171.30 143.37 169.87 137.72 C 170.07 137.29 170.47 136.45 170.67 136.02 C 173.80 138.77 173.56 133.68 175.00 131.89 C 176.07 129.89 180.15 126.63 172.42 128.56 C 166.40 125.26 175.30 124.22 177.46 121.70 C 176.99 116.11 176.58 107.81 169.94 106.10 C 166.95 106.70 167.92 110.37 171.33 108.48 C 174.79 111.38 175.79 118.19 170.77 120.95 C 170.60 117.77 173.44 115.14 172.17 111.98 C 172.32 107.78 166.57 110.52 163.90 109.97 C 156.03 109.80 157.14 119.88 163.20 122.19 C 160.86 123.05 158.19 123.45 157.65 120.35 C 154.00 114.66 160.19 109.84 160.09 104.10 C 155.91 106.08 156.04 103.64 157.16 100.15 C 159.64 100.17 162.13 99.75 164.00 98.00 C 163.77 99.94 163.26 101.85 163.11 103.81 C 167.72 106.93 173.74 101.30 173.40 96.42 C 175.62 92.27 170.67 92.17 167.77 91.64 C 166.03 90.25 166.85 88.55 167.76 86.92 C 164.34 84.96 158.25 86.43 157.88 81.20 C 167.93 84.07 162.37 72.26 162.81 67.60 C 166.81 65.47 169.02 71.97 172.99 72.14 C 172.92 70.31 172.66 68.50 172.43 66.68 C 174.26 68.20 175.46 70.81 178.04 71.13 C 177.44 67.30 176.06 63.62 176.07 59.69 M 180.21 123.11 C 178.65 124.53 180.39 127.00 178.42 128.40 C 177.33 131.99 182.33 132.97 185.07 133.05 C 184.64 130.88 182.37 129.67 182.23 127.33 C 185.90 126.66 183.26 121.44 180.21 123.11 M 174.98 134.00 C 174.36 136.37 175.83 137.61 178.02 137.92 C 182.48 136.84 178.09 132.32 174.98 134.00 M 180.29 154.17 C 177.81 155.45 175.97 160.80 179.64 161.44 C 185.48 165.37 189.14 149.16 180.29 154.17 Z" />
</g>
<g id="#878d8cff">
<path fill="#878d8c" opacity="1.00" d=" M 181.87 57.83 C 185.48 58.10 189.10 59.27 189.13 63.49 C 187.44 63.61 185.74 63.77 184.06 63.98 C 181.88 62.62 181.78 60.14 181.87 57.83 Z" />
</g>
<g id="#353537f3">
<path fill="#353537" opacity="0.95" d=" M 209.14 63.05 C 217.61 67.20 222.53 55.00 231.27 58.17 C 229.58 62.88 224.08 62.69 220.13 64.02 C 214.84 67.15 209.24 69.35 203.07 70.05 C 204.70 68.05 206.37 66.10 208.08 64.18 C 208.35 63.90 208.88 63.33 209.14 63.05 Z" />
</g>
<g id="#515f71fa">
<path fill="#515f71" opacity="0.98" d=" M 145.77 62.13 C 147.61 60.97 149.70 60.29 151.79 59.73 C 160.67 58.28 154.81 65.14 150.51 67.74 C 148.95 65.86 147.30 64.05 145.77 62.13 Z" />
</g>
<g id="#18191b87">
</g>
<g id="#00000117">
</g>
<g id="#11121272">
</g>
<g id="#333439ff">
<path fill="#333439" opacity="1.00" d=" M 185.74 80.68 C 188.11 79.48 186.26 74.70 190.03 76.03 C 190.12 79.51 187.36 82.10 185.81 84.96 C 182.63 85.21 181.04 80.24 183.01 77.92 L 183.80 77.39 C 184.40 78.59 183.54 82.06 185.74 80.68 Z" />
</g>
<g id="#737689ff">
<path fill="#737689" opacity="1.00" d=" M 173.40 96.42 C 171.29 95.17 165.46 95.21 167.77 91.64 C 170.67 92.17 175.62 92.27 173.40 96.42 Z" />
</g>
<g id="#1d1c1c8b">
</g>
<g id="#72778aff">
<path fill="#72778a" opacity="1.00" d=" M 157.16 100.15 C 146.49 99.09 163.64 90.00 164.00 98.00 C 162.13 99.75 159.64 100.17 157.16 100.15 Z" />
</g>
<g id="#73797eff">
<path fill="#73797e" opacity="1.00" d=" M 203.57 105.59 C 205.15 103.88 206.45 101.68 209.08 101.63 C 210.58 102.84 211.92 104.25 213.12 105.76 C 207.65 103.82 203.78 112.67 207.71 115.72 C 208.88 116.85 209.93 118.09 211.08 119.25 C 211.93 119.74 212.86 120.08 213.85 120.27 C 211.85 125.48 214.41 130.15 218.11 133.82 C 216.63 138.94 217.02 143.81 222.91 145.43 C 218.93 146.62 220.05 151.86 216.23 152.88 C 214.49 151.55 212.76 145.96 211.12 150.12 C 209.15 155.12 199.93 149.52 201.03 156.86 C 204.59 157.85 208.39 157.03 211.92 158.13 C 213.24 162.00 208.72 161.18 206.02 161.86 C 202.28 156.10 196.13 167.06 203.00 166.16 C 199.59 169.23 199.30 173.99 198.22 178.17 C 201.56 175.26 201.43 177.66 203.74 178.95 C 203.77 174.21 205.63 174.67 205.16 179.22 C 206.31 187.17 214.65 190.98 221.35 193.75 C 218.41 195.51 216.25 198.18 213.78 200.50 C 209.80 198.98 206.08 196.77 201.86 195.91 C 204.04 199.75 207.77 206.01 203.62 209.72 C 202.34 208.26 200.39 207.43 199.70 205.51 C 197.14 207.39 193.84 208.42 191.07 206.38 C 189.44 208.21 187.55 207.83 186.19 205.90 C 187.74 203.25 190.78 201.28 193.84 200.62 C 191.54 198.28 190.68 193.60 187.08 193.04 C 183.78 192.45 187.81 187.07 185.12 184.24 C 189.74 184.88 189.21 181.69 187.48 177.83 C 187.95 173.57 183.89 176.64 182.21 174.60 C 185.68 173.02 186.11 169.25 185.03 166.00 C 184.90 163.78 184.75 161.23 186.91 159.89 C 192.00 154.76 185.69 150.32 184.96 145.24 C 173.68 152.36 183.01 127.57 189.08 135.88 C 187.30 139.31 182.08 140.06 181.89 144.09 C 185.03 140.25 189.16 144.37 187.48 148.31 C 191.25 146.78 187.91 141.17 193.68 141.42 C 196.29 144.91 197.89 142.94 199.34 139.76 C 200.91 140.45 202.53 141.03 204.13 141.66 C 201.31 142.61 202.82 144.55 204.00 146.26 C 201.23 155.80 215.37 147.65 212.04 141.99 C 212.35 138.25 207.79 137.34 206.88 134.28 C 213.65 136.05 210.11 127.14 205.37 129.02 C 205.52 131.11 205.54 133.55 203.10 134.27 C 202.12 132.21 203.50 129.18 201.83 127.65 C 198.66 127.88 195.76 125.33 192.90 127.72 C 187.91 128.62 190.10 118.61 185.60 122.40 C 182.78 124.21 185.01 117.79 181.79 118.13 C 177.54 117.24 183.77 115.95 185.19 115.13 C 188.49 113.75 186.74 109.84 184.98 107.90 C 186.63 107.32 188.22 106.54 189.90 106.01 C 190.96 107.88 189.90 110.71 192.88 110.97 C 195.26 107.09 199.63 106.86 203.57 105.59 M 200.21 180.14 C 197.95 181.39 199.75 183.97 199.94 185.85 C 197.62 185.87 194.95 185.72 196.06 188.84 C 200.53 188.24 203.89 191.31 208.01 192.06 C 209.29 187.37 203.97 188.33 201.10 186.96 C 202.38 184.67 205.17 178.54 200.21 180.14 Z" />
</g>
<g id="#0000002c">
</g>
<g id="#9497a6fc">
<path fill="#9497a6" opacity="1.00" d=" M 207.71 115.72 C 203.78 112.67 207.65 103.82 213.12 105.76 C 214.07 106.97 214.59 108.43 215.21 109.83 C 215.23 111.65 215.25 115.30 215.27 117.13 C 214.80 118.18 214.33 119.23 213.85 120.27 C 212.86 120.08 211.93 119.74 211.08 119.25 C 214.99 117.62 210.22 113.62 207.71 115.72 Z" />
</g>
<g id="#9094a3ff">
<path fill="#9094a3" opacity="1.00" d=" M 185.19 115.13 C 179.74 115.75 180.11 107.46 184.98 107.90 C 186.74 109.84 188.49 113.75 185.19 115.13 Z" />
</g>
<g id="#5b6076ff">
<path fill="#5b6076" opacity="1.00" d=" M 145.24 110.13 C 153.34 108.50 149.84 121.74 143.20 119.94 C 139.28 116.70 142.59 112.87 145.24 110.13 Z" />
</g>
<g id="#6a6e87ff">
<path fill="#6a6e87" opacity="1.00" d=" M 163.20 122.19 C 157.14 119.88 156.03 109.80 163.90 109.97 C 165.98 114.20 162.64 118.04 164.03 122.12 L 163.20 122.19 Z" />
</g>
<g id="#999ea8ff">
<path fill="#999ea8" opacity="1.00" d=" M 163.90 109.97 C 166.57 110.52 172.32 107.78 172.17 111.98 C 173.44 115.14 170.60 117.77 170.77 120.95 C 168.66 121.92 166.31 121.98 164.03 122.12 C 162.64 118.04 165.98 114.20 163.90 109.97 Z" />
</g>
<g id="#3a3a3296">
</g>
<g id="#dee0e6ff">
<path fill="#dee0e6" opacity="1.00" d=" M 207.71 115.72 C 210.22 113.62 214.99 117.62 211.08 119.25 C 209.93 118.09 208.88 116.85 207.71 115.72 Z" />
</g>
<g id="#757c76ff">
<path fill="#757c76" opacity="1.00" d=" M 180.21 123.11 C 183.26 121.44 185.90 126.66 182.23 127.33 C 182.37 129.67 184.64 130.88 185.07 133.05 C 182.33 132.97 177.33 131.99 178.42 128.40 C 180.39 127.00 178.65 124.53 180.21 123.11 Z" />
</g>
<g id="#0000003a">
</g>
<g id="#7c854aff">
<path fill="#7c854a" opacity="1.00" d=" M 205.37 129.02 C 210.11 127.14 213.65 136.05 206.88 134.28 C 207.79 137.34 212.35 138.25 212.04 141.99 C 215.37 147.65 201.23 155.80 204.00 146.26 C 208.88 146.45 208.66 142.03 204.13 141.66 C 202.53 141.03 200.91 140.45 199.34 139.76 C 200.49 137.87 201.72 136.01 203.10 134.27 C 205.54 133.55 205.52 131.11 205.37 129.02 Z" />
</g>
<g id="#676b77ff">
<path fill="#676b77" opacity="1.00" d=" M 163.03 137.94 C 162.19 131.86 173.97 127.39 170.67 136.02 C 170.47 136.45 170.07 137.29 169.87 137.72 C 167.82 138.56 163.62 141.89 163.03 137.94 Z" />
</g>
<g id="#788080ff">
<path fill="#788080" opacity="1.00" d=" M 174.98 134.00 C 178.09 132.32 182.48 136.84 178.02 137.92 C 175.83 137.61 174.36 136.37 174.98 134.00 Z" />
</g>
<g id="#5b606bfd">
<path fill="#5b606b" opacity="1.00" d=" M 218.11 133.82 C 223.76 140.26 230.00 146.93 231.41 155.72 C 235.55 168.54 221.51 162.28 214.98 163.23 C 215.63 164.85 216.48 166.37 217.13 167.99 C 211.20 171.36 212.42 166.46 211.67 163.85 C 209.62 165.10 209.37 167.25 209.57 169.44 C 205.56 170.76 206.72 176.22 205.16 179.22 C 205.63 174.67 203.77 174.21 203.74 178.95 C 201.43 177.66 201.56 175.26 198.22 178.17 C 199.30 173.99 199.59 169.23 203.00 166.16 C 204.26 164.92 205.64 163.67 206.02 161.86 C 208.72 161.18 213.24 162.00 211.92 158.13 C 208.39 157.03 204.59 157.85 201.03 156.86 C 199.93 149.52 209.15 155.12 211.12 150.12 C 212.76 145.96 214.49 151.55 216.23 152.88 C 220.05 151.86 218.93 146.62 222.91 145.43 C 217.02 143.81 216.63 138.94 218.11 133.82 M 222.00 154.00 C 221.12 157.68 223.79 160.53 226.88 161.96 C 228.47 158.83 226.05 152.79 222.00 154.00 Z" />
</g>
<g id="#0000000e">
</g>
<g id="#a5ae95ff">
<path fill="#a5ae95" opacity="1.00" d=" M 204.00 146.26 C 202.82 144.55 201.31 142.61 204.13 141.66 C 208.66 142.03 208.88 146.45 204.00 146.26 Z" />
</g>
<g id="#0000004d">
</g>
<g id="#0000005a">
</g>
<g id="#13131692">
</g>
<g id="#2e313afa">
<path fill="#2e313a" opacity="0.98" d=" M 296.22 154.91 C 302.47 156.16 307.88 155.17 310.92 149.55 C 312.48 150.53 314.53 150.57 316.09 149.55 C 316.85 150.55 317.56 151.60 318.25 152.67 C 312.67 150.15 309.37 157.29 307.74 161.65 C 306.81 163.60 306.50 165.73 306.45 167.87 C 304.21 169.29 305.80 174.62 303.15 173.76 C 300.75 170.61 291.58 173.08 295.15 168.17 C 297.56 164.77 290.46 164.73 291.08 161.32 C 294.91 160.80 298.81 159.38 296.22 154.91 Z" />
</g>
<g id="#555a69ff">
<path fill="#555a69" opacity="1.00" d=" M 157.25 151.12 C 161.41 150.78 168.70 150.30 169.87 155.79 C 167.49 157.65 158.06 162.42 164.59 163.74 C 167.41 157.49 169.89 164.47 168.04 167.99 C 165.20 172.20 155.78 162.74 160.98 159.90 C 165.04 155.83 152.61 154.94 157.25 151.12 Z" />
</g>
<g id="#50525efd">
<path fill="#50525e" opacity="1.00" d=" M 307.74 161.65 C 309.37 157.29 312.67 150.15 318.25 152.67 C 319.21 154.10 320.23 155.49 321.39 156.77 C 319.40 159.83 316.97 162.56 314.34 165.09 C 312.18 163.87 309.99 162.70 307.74 161.65 Z" />
</g>
<g id="#0d0d1073">
</g>
<g id="#00000069">
</g>
<g id="#717976ff">
<path fill="#717976" opacity="1.00" d=" M 180.29 154.17 C 189.14 149.16 185.48 165.37 179.64 161.44 C 175.97 160.80 177.81 155.45 180.29 154.17 Z" />
</g>
<g id="#8c8f9fff">
<path fill="#8c8f9f" opacity="1.00" d=" M 222.00 154.00 C 226.05 152.79 228.47 158.83 226.88 161.96 C 223.79 160.53 221.12 157.68 222.00 154.00 Z" />
</g>
<g id="#2e3139fc">
<path fill="#2e3139" opacity="1.00" d=" M 277.09 161.99 C 279.18 158.52 281.55 154.76 285.77 153.70 C 286.32 153.74 287.42 153.82 287.97 153.86 C 283.77 156.38 289.70 163.00 284.94 164.94 C 280.66 165.10 277.31 175.46 283.65 173.66 C 287.80 170.82 295.29 170.25 295.04 176.98 C 291.51 176.17 287.27 173.49 283.96 176.03 C 285.49 178.13 287.32 179.99 288.87 182.09 C 290.57 185.15 292.43 188.12 294.14 191.18 L 293.89 192.04 C 293.46 191.96 292.60 191.79 292.17 191.71 C 289.87 190.24 287.25 189.04 287.81 193.05 C 286.86 191.00 285.51 189.19 283.81 187.70 C 282.22 185.78 281.48 179.97 278.28 183.01 C 279.40 185.30 279.96 187.70 277.78 189.59 C 274.90 189.16 272.14 187.88 269.20 188.05 C 267.32 189.89 267.65 192.71 267.16 195.09 C 263.04 197.03 265.28 200.66 266.53 203.76 C 266.50 207.74 263.59 208.42 260.40 207.33 C 260.06 209.67 258.86 211.55 257.11 213.08 C 259.91 215.94 260.79 219.32 258.10 223.07 C 257.26 219.41 250.64 213.78 251.93 220.98 C 249.88 216.96 247.42 218.42 247.84 222.63 C 256.85 219.98 246.86 230.72 248.04 234.93 C 246.98 238.42 251.65 237.09 253.95 237.73 C 256.78 237.84 257.88 238.54 254.81 239.60 C 249.20 240.90 246.30 236.17 242.61 233.24 C 242.14 233.21 241.19 233.13 240.71 233.10 C 238.97 227.63 248.75 231.08 247.00 225.93 C 243.36 226.85 239.73 227.89 235.92 227.39 C 237.74 225.57 240.36 225.26 242.72 224.62 C 241.55 220.66 245.51 216.50 241.67 213.34 C 240.07 210.12 227.75 212.13 233.76 216.66 C 228.55 218.39 229.51 221.13 232.48 224.91 C 231.96 226.93 230.36 228.05 228.33 228.14 C 226.26 224.39 223.30 220.23 228.05 217.22 C 229.48 215.49 230.53 212.71 227.91 211.52 C 227.89 207.03 239.57 211.92 235.05 204.88 L 234.78 204.18 C 239.58 206.14 244.19 209.18 249.59 208.96 C 248.98 200.76 256.57 197.01 261.18 191.73 C 272.46 185.64 271.98 172.20 277.09 161.99 Z" />
</g>
<g id="#454955ff">
<path fill="#454955" opacity="1.00" d=" M 287.97 153.86 C 290.00 153.91 292.04 153.90 294.08 153.94 C 294.62 154.18 295.69 154.67 296.22 154.91 C 298.81 159.38 294.91 160.80 291.08 161.32 C 290.46 164.73 297.56 164.77 295.15 168.17 C 291.58 173.08 300.75 170.61 303.15 173.76 C 305.80 174.62 304.21 169.29 306.45 167.87 C 305.43 172.08 308.09 181.11 311.65 173.59 C 311.58 176.77 309.93 179.33 306.69 180.00 C 307.47 173.88 303.31 176.05 299.20 176.36 C 296.18 180.79 306.05 186.37 299.28 189.04 C 299.02 187.74 298.51 185.14 298.25 183.84 C 295.87 179.82 286.93 172.79 288.87 182.09 C 287.32 179.99 285.49 178.13 283.96 176.03 C 287.27 173.49 291.51 176.17 295.04 176.98 C 295.29 170.25 287.80 170.82 283.65 173.66 C 277.31 175.46 280.66 165.10 284.94 164.94 C 289.70 163.00 283.77 156.38 287.97 153.86 Z" />
</g>
<g id="#585d72ff">
<path fill="#585d72" opacity="1.00" d=" M 128.07 163.15 C 129.30 160.00 131.52 157.09 134.87 156.06 C 136.55 157.71 137.16 160.00 137.77 162.20 C 140.26 166.23 139.20 175.72 132.62 172.42 C 129.69 171.49 128.94 168.35 128.07 165.78 C 128.07 165.13 128.07 163.81 128.07 163.15 Z" />
</g>
<g id="#3d3f4bfc">
<path fill="#3d3f4b" opacity="1.00" d=" M 231.41 155.72 C 231.95 158.41 231.83 161.16 232.09 163.90 C 234.98 165.15 238.69 165.47 243.22 164.86 C 252.04 166.04 261.88 168.34 267.52 175.83 C 266.48 177.81 266.50 180.14 267.50 182.13 C 266.47 184.11 264.86 185.68 263.11 187.03 C 259.78 184.97 264.13 182.10 261.60 179.68 C 260.83 174.84 256.01 169.01 250.90 173.09 C 247.39 172.64 251.82 163.84 244.40 168.37 C 241.19 167.74 239.06 169.83 238.53 172.89 C 235.33 170.09 231.11 169.15 227.08 168.26 C 225.72 172.41 218.19 177.24 226.24 177.86 C 226.45 184.54 234.90 183.59 238.96 180.84 C 239.41 182.22 239.85 183.60 240.35 184.97 C 243.06 184.85 244.52 179.86 247.24 182.50 C 250.95 181.96 254.53 184.67 258.10 183.18 C 256.81 185.76 251.33 195.25 252.69 187.85 C 253.22 183.38 247.45 187.51 244.96 186.21 C 240.67 184.67 244.16 192.17 240.08 191.00 C 237.13 190.66 238.51 184.56 235.00 184.96 C 232.75 184.32 232.09 188.43 230.31 187.67 C 227.67 187.02 225.63 181.08 223.27 184.28 C 220.50 187.66 223.28 191.96 226.17 194.19 C 225.67 194.43 224.67 194.91 224.18 195.15 C 223.24 194.67 222.29 194.20 221.35 193.75 C 214.65 190.98 206.31 187.17 205.16 179.22 C 206.72 176.22 205.56 170.76 209.57 169.44 C 209.37 167.25 209.62 165.10 211.67 163.85 C 212.42 166.46 211.20 171.36 217.13 167.99 C 216.48 166.37 215.63 164.85 214.98 163.23 C 221.51 162.28 235.55 168.54 231.41 155.72 Z" />
</g>
<g id="#32343dfd">
<path fill="#32343d" opacity="1.00" d=" M 321.39 156.77 C 322.98 158.10 324.34 159.71 325.29 161.55 C 318.72 161.32 317.94 169.26 317.36 174.10 C 316.55 174.84 315.74 175.56 314.92 176.28 C 312.03 177.98 313.73 181.28 314.01 183.85 C 311.08 183.38 307.28 183.58 306.69 180.00 C 309.93 179.33 311.58 176.77 311.65 173.59 C 312.27 170.67 313.16 167.82 314.34 165.09 C 316.97 162.56 319.40 159.83 321.39 156.77 Z" />
</g>
<g id="#2f2f35fd">
<path fill="#2f2f35" opacity="1.00" d=" M 137.77 162.20 C 136.70 156.73 141.62 162.21 144.62 160.36 C 144.70 163.92 149.13 164.22 147.22 168.09 C 150.15 167.52 152.61 165.82 154.97 164.10 C 156.20 165.75 157.35 167.86 155.56 169.60 C 152.81 171.99 157.94 175.72 154.83 177.79 C 148.20 180.22 144.07 187.99 135.94 189.06 C 136.19 185.96 139.77 181.19 134.05 181.45 C 132.65 179.28 131.31 177.07 130.21 174.74 C 129.58 173.44 128.92 172.17 128.22 170.91 C 128.15 170.46 128.03 169.56 127.96 169.11 C 127.99 168.28 128.04 166.61 128.07 165.78 C 128.94 168.35 129.69 171.49 132.62 172.42 C 139.20 175.72 140.26 166.23 137.77 162.20 Z" />
</g>
<g id="#979aa8ff">
<path fill="#979aa8" opacity="1.00" d=" M 203.00 166.16 C 196.13 167.06 202.28 156.10 206.02 161.86 C 205.64 163.67 204.26 164.92 203.00 166.16 Z" />
</g>
<g id="#00000041">
</g>
<g id="#6f757dff">
<path fill="#6f757d" opacity="1.00" d=" M 307.74 161.65 C 309.99 162.70 312.18 163.87 314.34 165.09 C 313.16 167.82 312.27 170.67 311.65 173.59 C 308.09 181.11 305.43 172.08 306.45 167.87 C 306.50 165.73 306.81 163.60 307.74 161.65 Z" />
</g>
<g id="#4e535afc">
<path fill="#4e535a" opacity="1.00" d=" M 317.36 174.10 C 317.94 169.26 318.72 161.32 325.29 161.55 C 328.35 164.76 325.03 169.10 327.45 172.47 C 328.70 175.15 325.63 178.49 328.30 180.71 C 331.81 183.47 328.01 186.97 326.95 190.00 C 323.14 190.28 321.81 188.12 322.80 183.97 C 319.30 184.53 316.34 186.58 313.85 189.00 C 315.93 192.35 319.60 192.99 323.21 192.10 C 320.28 194.44 314.69 199.05 322.20 198.29 C 318.04 200.94 312.49 197.49 308.85 201.63 C 304.70 203.28 299.52 204.16 298.13 209.03 C 299.67 202.78 291.70 202.72 287.96 204.82 C 284.18 207.78 285.38 213.20 285.97 217.21 C 286.00 218.69 286.22 220.22 288.00 220.39 C 285.31 226.58 281.00 231.30 276.78 236.60 C 274.08 237.76 268.20 243.44 273.33 244.52 L 272.80 244.98 C 264.23 241.97 262.38 254.20 254.11 252.52 C 252.64 251.27 250.50 251.19 248.89 252.22 C 244.72 251.55 241.13 254.13 237.29 255.29 C 232.46 255.17 227.64 255.19 222.82 255.04 C 219.65 253.35 218.53 255.10 218.31 258.27 C 220.59 250.52 203.47 256.22 207.06 261.77 C 204.77 261.31 202.44 261.31 200.13 261.51 C 196.72 257.54 188.53 265.27 187.02 258.96 C 184.65 252.70 186.51 265.05 181.00 263.50 C 174.98 257.46 178.93 247.36 172.67 241.73 C 172.67 241.30 172.67 240.44 172.67 240.02 C 172.98 238.30 172.63 236.77 170.88 236.08 C 173.86 236.17 177.86 234.86 178.60 238.55 C 179.56 241.87 186.41 238.68 183.11 245.11 C 184.42 248.00 187.07 242.37 185.49 240.61 C 185.79 236.46 176.34 237.16 180.17 233.06 C 184.37 234.41 186.56 239.48 188.67 243.20 C 188.64 245.94 194.13 243.91 192.38 246.61 C 190.37 250.74 196.17 254.64 199.00 257.13 C 204.30 254.54 202.77 248.00 202.15 243.20 C 207.44 239.06 203.77 252.83 204.15 255.07 C 209.12 256.15 206.04 249.28 209.82 247.82 C 212.02 244.56 214.96 246.72 216.35 249.40 C 218.40 248.35 220.61 248.15 222.87 248.44 C 224.39 246.79 224.87 244.00 227.39 243.53 C 233.71 242.10 236.23 235.24 239.06 230.15 C 236.11 227.66 232.42 231.23 229.20 229.61 C 228.02 232.60 223.72 232.13 226.10 228.78 C 226.66 228.62 227.77 228.30 228.33 228.14 C 230.36 228.05 231.96 226.93 232.48 224.91 C 233.54 225.78 234.36 227.52 235.92 227.39 C 239.73 227.89 243.36 226.85 247.00 225.93 C 248.75 231.08 238.97 227.63 240.71 233.10 C 242.85 237.26 240.68 237.32 237.09 236.15 C 232.18 242.99 241.35 244.30 243.72 239.65 C 245.45 237.58 242.95 235.39 242.61 233.24 C 246.30 236.17 249.20 240.90 254.81 239.60 C 257.88 238.54 256.78 237.84 253.95 237.73 C 259.41 235.55 263.52 234.20 266.77 228.78 C 264.70 233.24 268.07 234.84 271.87 235.90 C 273.25 234.45 274.68 233.04 276.85 233.34 C 278.52 230.61 277.17 227.74 275.87 225.20 C 274.57 227.63 272.39 227.92 269.95 226.88 C 274.70 225.22 272.73 215.67 277.71 221.14 C 274.52 233.05 285.30 222.58 283.80 218.09 C 283.33 213.13 281.24 205.46 287.37 203.43 C 293.15 202.24 297.82 196.37 292.17 191.71 C 292.60 191.79 293.46 191.96 293.89 192.04 C 296.39 195.13 299.75 196.54 303.52 194.69 C 313.42 196.37 303.68 190.97 307.44 188.52 C 304.58 186.35 305.07 182.79 306.69 180.00 C 307.28 183.58 311.08 183.38 314.01 183.85 C 313.73 181.28 312.03 177.98 314.92 176.28 C 315.28 178.33 316.24 180.19 317.28 181.98 C 320.77 180.70 322.21 172.75 317.36 174.10 M 301.25 196.03 C 300.85 198.03 300.41 200.02 300.06 202.03 C 304.55 203.85 305.80 195.55 301.25 196.03 Z" />
</g>
<g id="#18191d94">
</g>
<g id="#00000036">
</g>
<g id="#535666ff">
<path fill="#535666" opacity="1.00" d=" M 227.08 168.26 C 231.11 169.15 235.33 170.09 238.53 172.89 C 239.06 169.83 241.19 167.74 244.40 168.37 C 251.82 163.84 247.39 172.64 250.90 173.09 C 249.40 175.86 245.98 172.60 243.43 173.31 C 239.98 167.18 239.10 178.01 238.96 180.84 C 234.90 183.59 226.45 184.54 226.24 177.86 C 218.19 177.24 225.72 172.41 227.08 168.26 Z" />
</g>
<g id="#72737fff">
<path fill="#72737f" opacity="1.00" d=" M 238.96 180.84 C 239.10 178.01 239.98 167.18 243.43 173.31 C 245.98 172.60 249.40 175.86 250.90 173.09 C 256.01 169.01 260.83 174.84 261.60 179.68 C 260.44 180.85 259.25 181.99 258.10 183.18 C 254.53 184.67 250.95 181.96 247.24 182.50 C 244.52 179.86 243.06 184.85 240.35 184.97 C 239.85 183.60 239.41 182.22 238.96 180.84 Z" />
</g>
<g id="#0000002d">
</g>
<g id="#727a7cff">
<path fill="#727a7c" opacity="1.00" d=" M 317.36 174.10 C 322.21 172.75 320.77 180.70 317.28 181.98 C 316.24 180.19 315.28 178.33 314.92 176.28 C 315.74 175.56 316.55 174.84 317.36 174.10 Z" />
</g>
<g id="#696e79ff">
<path fill="#696e79" opacity="1.00" d=" M 299.20 176.36 C 303.31 176.05 307.47 173.88 306.69 180.00 C 305.07 182.79 304.58 186.35 307.44 188.52 C 303.68 190.97 313.42 196.37 303.52 194.69 C 299.75 196.54 296.39 195.13 293.89 192.04 L 294.14 191.18 C 296.96 189.66 298.77 187.19 298.25 183.84 C 298.51 185.14 299.02 187.74 299.28 189.04 C 306.05 186.37 296.18 180.79 299.20 176.36 Z" />
</g>
<g id="#25262998">
<path fill="#252629" opacity="0.60" d=" M 267.52 175.83 C 268.91 177.71 268.90 179.81 267.50 182.13 C 266.50 180.14 266.48 177.81 267.52 175.83 Z" />
</g>
<g id="#8f929eff">
<path fill="#8f929e" opacity="1.00" d=" M 288.87 182.09 C 286.93 172.79 295.87 179.82 298.25 183.84 C 298.77 187.19 296.96 189.66 294.14 191.18 C 292.43 188.12 290.57 185.15 288.87 182.09 Z" />
</g>
<g id="#51585eff">
<path fill="#51585e" opacity="1.00" d=" M 179.91 180.78 C 181.32 175.52 186.90 182.93 187.48 177.83 C 189.21 181.69 189.74 184.88 185.12 184.24 C 187.81 187.07 183.78 192.45 187.08 193.04 C 187.32 193.97 187.59 194.90 187.61 195.87 C 184.88 192.56 178.74 193.52 179.63 198.39 C 180.33 201.82 176.67 198.55 175.23 197.98 C 175.80 200.59 174.25 204.58 177.97 205.10 C 181.14 208.20 171.16 211.00 175.72 213.38 C 178.37 212.65 181.60 219.53 178.01 219.22 C 172.54 213.15 170.09 220.87 172.89 225.97 C 169.16 224.46 164.14 219.61 161.50 225.16 C 161.14 222.56 161.10 216.05 165.06 216.07 C 174.95 217.77 168.43 213.33 165.37 212.72 C 166.53 208.73 163.83 205.41 162.26 201.98 C 161.76 203.93 161.31 205.90 160.71 207.83 C 154.45 209.33 160.84 198.84 164.34 199.65 C 169.42 201.25 167.05 193.27 170.87 192.07 C 171.43 193.97 170.76 198.65 173.78 197.85 C 175.98 196.60 174.69 193.89 174.18 192.03 C 176.67 191.84 177.20 189.62 177.20 187.52 C 180.24 186.22 181.70 183.87 179.91 180.78 Z" />
</g>
<g id="#717a7aff">
<path fill="#717a7a" opacity="1.00" d=" M 177.20 187.52 C 172.40 184.86 172.56 176.72 179.91 180.78 C 181.70 183.87 180.24 186.22 177.20 187.52 Z" />
</g>
<g id="#8f9497ff">
<path fill="#8f9497" opacity="1.00" d=" M 200.21 180.14 C 205.17 178.54 202.38 184.67 201.10 186.96 C 203.97 188.33 209.29 187.37 208.01 192.06 C 203.89 191.31 200.53 188.24 196.06 188.84 C 194.95 185.72 197.62 185.87 199.94 185.85 C 199.75 183.97 197.95 181.39 200.21 180.14 Z" />
</g>
<g id="#313239fa">
<path fill="#313239" opacity="0.98" d=" M 261.60 179.68 C 264.13 182.10 259.78 184.97 263.11 187.03 C 258.21 188.95 254.16 192.85 248.88 193.81 C 243.25 193.89 237.05 191.39 232.06 194.94 C 232.45 191.70 230.22 193.68 229.06 194.96 C 228.09 194.69 227.13 194.44 226.17 194.19 C 223.28 191.96 220.50 187.66 223.27 184.28 C 225.63 181.08 227.67 187.02 230.31 187.67 C 232.09 188.43 232.75 184.32 235.00 184.96 C 238.51 184.56 237.13 190.66 240.08 191.00 C 244.16 192.17 240.67 184.67 244.96 186.21 C 247.45 187.51 253.22 183.38 252.69 187.85 C 251.33 195.25 256.81 185.76 258.10 183.18 C 259.25 181.99 260.44 180.85 261.60 179.68 Z" />
</g>
<g id="#4c5058ff">
<path fill="#4c5058" opacity="1.00" d=" M 278.28 183.01 C 281.48 179.97 282.22 185.78 283.81 187.70 C 281.26 188.51 281.36 191.55 280.63 193.65 C 276.06 192.49 271.70 194.88 267.16 195.09 C 267.65 192.71 267.32 189.89 269.20 188.05 C 272.14 187.88 274.90 189.16 277.78 189.59 C 279.96 187.70 279.40 185.30 278.28 183.01 Z" />
</g>
<g id="#7b858dfc">
<path fill="#7b858d" opacity="1.00" d=" M 313.85 189.00 C 316.34 186.58 319.30 184.53 322.80 183.97 C 321.81 188.12 323.14 190.28 326.95 190.00 C 327.30 193.53 324.93 196.35 322.20 198.29 C 314.69 199.05 320.28 194.44 323.21 192.10 C 319.60 192.99 315.93 192.35 313.85 189.00 Z" />
</g>
<g id="#585a6aff">
<path fill="#585a6a" opacity="1.00" d=" M 146.25 187.20 C 152.35 185.83 147.22 196.27 143.19 195.98 C 141.23 192.53 143.52 189.31 146.25 187.20 Z" />
</g>
<g id="#02020229">
</g>
<g id="#71757aff">
<path fill="#71757a" opacity="1.00" d=" M 280.63 193.65 C 281.36 191.55 281.26 188.51 283.81 187.70 C 285.51 189.19 286.86 191.00 287.81 193.05 C 287.25 189.04 289.87 190.24 292.17 191.71 C 297.82 196.37 293.15 202.24 287.37 203.43 C 281.24 205.46 283.33 213.13 283.80 218.09 C 280.78 216.29 277.37 216.99 277.71 221.14 C 272.73 215.67 274.70 225.22 269.95 226.88 C 272.39 227.92 274.57 227.63 275.87 225.20 C 277.17 227.74 278.52 230.61 276.85 233.34 C 274.68 233.04 273.25 234.45 271.87 235.90 C 268.07 234.84 264.70 233.24 266.77 228.78 C 263.52 234.20 259.41 235.55 253.95 237.73 C 251.65 237.09 246.98 238.42 248.04 234.93 C 249.62 235.25 251.20 235.63 252.80 235.91 C 250.40 231.34 256.39 229.63 253.99 225.07 C 255.83 228.15 256.02 224.81 257.89 223.75 C 258.40 226.26 260.92 231.77 262.92 227.18 C 259.46 224.28 258.34 216.06 264.10 220.83 C 271.75 216.05 258.62 222.07 262.95 213.99 C 261.72 208.88 266.54 212.64 269.14 213.01 C 268.98 210.52 265.49 208.22 270.01 208.78 C 269.03 206.98 267.78 205.36 266.53 203.76 C 265.28 200.66 263.04 197.03 267.16 195.09 C 271.70 194.88 276.06 192.49 280.63 193.65 M 269.22 196.09 C 266.36 199.81 270.42 203.21 271.28 206.86 C 277.06 207.79 275.04 194.47 269.22 196.09 Z" />
</g>
<g id="#262524ad">
<path fill="#262524" opacity="0.68" d=" M 128.02 201.82 C 127.97 197.46 127.91 193.07 128.78 188.78 C 128.80 193.23 128.89 197.67 128.81 202.13 L 128.02 201.82 Z" />
</g>
<g id="#606778ff">
<path fill="#606778" opacity="1.00" d=" M 156.17 192.10 C 162.83 191.20 159.04 206.14 152.65 203.32 C 150.15 199.23 154.46 195.46 156.17 192.10 Z" />
</g>
<g id="#737a8eff">
<path fill="#737a8e" opacity="1.00" d=" M 170.87 192.07 C 171.70 192.06 173.36 192.04 174.18 192.03 C 174.69 193.89 175.98 196.60 173.78 197.85 C 170.76 198.65 171.43 193.97 170.87 192.07 Z" />
</g>
<g id="#686d72ff">
<path fill="#686d72" opacity="1.00" d=" M 187.08 193.04 C 190.68 193.60 191.54 198.28 193.84 200.62 C 190.78 201.28 187.74 203.25 186.19 205.90 C 187.55 207.83 189.44 208.21 191.07 206.38 C 193.84 208.42 197.14 207.39 199.70 205.51 C 200.39 207.43 202.34 208.26 203.62 209.72 C 207.77 206.01 204.04 199.75 201.86 195.91 C 206.08 196.77 209.80 198.98 213.78 200.50 C 214.94 203.26 217.83 202.06 220.15 202.10 C 219.65 204.24 218.08 205.85 216.84 207.59 C 219.79 206.95 222.71 207.72 225.65 207.94 C 224.54 203.65 227.69 201.29 231.14 200.91 C 231.31 203.39 225.95 204.86 229.36 206.63 C 230.85 205.02 232.99 204.89 235.05 204.88 C 239.57 211.92 227.89 207.03 227.91 211.52 C 224.70 212.61 223.28 218.06 228.05 217.22 C 223.30 220.23 226.26 224.39 228.33 228.14 C 227.77 228.30 226.66 228.62 226.10 228.78 C 224.34 225.71 220.81 226.26 217.79 226.08 C 217.08 226.02 215.64 225.91 214.93 225.85 C 216.73 224.02 223.72 223.60 217.66 222.49 C 222.23 219.52 222.42 214.85 217.04 212.92 C 211.34 217.81 202.20 221.38 201.20 230.00 C 199.40 226.62 195.60 223.00 200.26 220.16 C 196.71 221.32 189.97 225.62 192.84 218.80 C 186.65 219.94 189.57 227.35 194.98 226.14 C 194.40 229.73 190.78 231.76 193.67 235.84 C 190.20 236.78 189.42 240.09 188.67 243.20 C 186.56 239.48 184.37 234.41 180.17 233.06 C 176.34 237.16 185.79 236.46 185.49 240.61 C 187.07 242.37 184.42 248.00 183.11 245.11 C 186.41 238.68 179.56 241.87 178.60 238.55 C 177.86 234.86 173.86 236.17 170.88 236.08 C 169.79 235.75 168.71 235.38 167.65 234.99 C 168.51 231.81 172.48 233.50 174.98 232.80 C 175.00 230.78 174.59 228.81 174.18 226.85 C 178.98 235.22 185.50 222.06 178.01 219.22 C 181.60 219.53 178.37 212.65 175.72 213.38 C 171.16 211.00 181.14 208.20 177.97 205.10 C 174.25 204.58 175.80 200.59 175.23 197.98 C 176.67 198.55 180.33 201.82 179.63 198.39 C 178.74 193.52 184.88 192.56 187.61 195.87 C 184.92 195.51 182.07 196.88 182.96 200.00 C 186.13 200.94 188.11 199.00 187.61 195.87 C 187.59 194.90 187.32 193.97 187.08 193.04 M 195.03 210.09 C 192.61 211.98 187.70 213.02 189.01 217.04 C 193.25 218.22 192.53 210.51 197.94 213.82 C 198.43 211.31 198.18 208.90 195.03 210.09 Z" />
</g>
<g id="#515359fe">
<path fill="#515359" opacity="1.00" d=" M 229.06 194.96 C 230.22 193.68 232.45 191.70 232.06 194.94 C 233.07 198.05 230.59 203.07 234.78 204.18 L 235.05 204.88 C 232.99 204.89 230.85 205.02 229.36 206.63 C 225.95 204.86 231.31 203.39 231.14 200.91 C 227.69 201.29 224.54 203.65 225.65 207.94 C 222.71 207.72 219.79 206.95 216.84 207.59 C 218.08 205.85 219.65 204.24 220.15 202.10 C 217.83 202.06 214.94 203.26 213.78 200.50 C 216.25 198.18 218.41 195.51 221.35 193.75 C 222.29 194.20 223.24 194.67 224.18 195.15 C 222.56 196.80 220.58 198.48 220.92 201.06 C 225.03 201.32 227.99 198.78 229.06 194.96 Z" />
</g>
<g id="#858689ff">
<path fill="#858689" opacity="1.00" d=" M 226.17 194.19 C 227.13 194.44 228.09 194.69 229.06 194.96 C 227.99 198.78 225.03 201.32 220.92 201.06 C 220.58 198.48 222.56 196.80 224.18 195.15 C 224.67 194.91 225.67 194.43 226.17 194.19 Z" />
</g>
<g id="#a6a9adff">
<path fill="#a6a9ad" opacity="1.00" d=" M 182.96 200.00 C 182.07 196.88 184.92 195.51 187.61 195.87 C 188.11 199.00 186.13 200.94 182.96 200.00 Z" />
</g>
<g id="#9597a6ff">
<path fill="#9597a6" opacity="1.00" d=" M 269.22 196.09 C 275.04 194.47 277.06 207.79 271.28 206.86 C 270.42 203.21 266.36 199.81 269.22 196.09 Z" />
</g>
<g id="#8b9387ff">
<path fill="#8b9387" opacity="1.00" d=" M 301.25 196.03 C 305.80 195.55 304.55 203.85 300.06 202.03 C 300.41 200.02 300.85 198.03 301.25 196.03 Z" />
</g>
<g id="#0000004f">
</g>
<g id="#303237fc">
<path fill="#303237" opacity="1.00" d=" M 141.58 204.59 C 143.31 203.23 144.60 201.44 146.04 199.79 C 145.27 206.20 142.45 212.23 142.10 218.76 C 145.19 221.64 149.99 221.83 152.37 225.68 C 157.38 226.41 157.53 220.97 155.21 217.67 C 157.81 218.28 158.74 220.68 158.30 223.13 C 157.65 228.21 161.39 232.41 165.84 234.23 C 166.29 234.42 167.20 234.80 167.65 234.99 C 168.71 235.38 169.79 235.75 170.88 236.08 C 172.63 236.77 172.98 238.30 172.67 240.02 C 167.43 238.18 162.24 236.21 157.06 234.23 C 155.83 238.13 155.07 242.17 154.67 246.24 C 154.18 245.12 153.69 244.00 153.19 242.89 C 152.50 241.55 152.29 239.83 151.07 238.86 C 150.13 238.13 149.14 237.49 148.16 236.84 C 137.96 232.02 138.04 220.61 134.43 211.99 C 133.72 211.24 133.01 210.50 132.27 209.79 C 130.83 207.37 129.71 204.79 128.81 202.13 C 137.17 196.61 132.80 210.02 139.02 211.06 C 142.10 210.14 141.82 207.15 141.58 204.59 Z" />
</g>
<g id="#00000014">
</g>
<g id="#494c58ff">
<path fill="#494c58" opacity="1.00" d=" M 266.53 203.76 C 267.78 205.36 269.03 206.98 270.01 208.78 C 265.49 208.22 268.98 210.52 269.14 213.01 C 266.54 212.64 261.72 208.88 262.95 213.99 C 258.62 222.07 271.75 216.05 264.10 220.83 C 258.34 216.06 259.46 224.28 262.92 227.18 C 260.92 231.77 258.40 226.26 257.89 223.75 L 258.10 223.07 C 260.79 219.32 259.91 215.94 257.11 213.08 C 258.86 211.55 260.06 209.67 260.40 207.33 C 263.59 208.42 266.50 207.74 266.53 203.76 Z" />
</g>
<g id="#757d54f7">
<path fill="#757d54" opacity="0.97" d=" M 287.96 204.82 C 291.70 202.72 299.67 202.78 298.13 209.03 C 294.50 212.58 291.53 216.73 288.00 220.39 C 286.22 220.22 286.00 218.69 285.97 217.21 C 290.69 214.71 294.76 207.30 287.96 204.82 Z" />
</g>
<g id="#959e84ff">
<path fill="#959e84" opacity="1.00" d=" M 287.96 204.82 C 294.76 207.30 290.69 214.71 285.97 217.21 C 285.38 213.20 284.18 207.78 287.96 204.82 Z" />
</g>
<g id="#0000003e">
</g>
<g id="#00000063">
</g>
<g id="#8e92a0ff">
<path fill="#8e92a0" opacity="1.00" d=" M 195.03 210.09 C 198.18 208.90 198.43 211.31 197.94 213.82 C 192.53 210.51 193.25 218.22 189.01 217.04 C 187.70 213.02 192.61 211.98 195.03 210.09 Z" />
</g>
<g id="#00000179">
</g>
<g id="#8f9197ff">
<path fill="#8f9197" opacity="1.00" d=" M 228.05 217.22 C 223.28 218.06 224.70 212.61 227.91 211.52 C 230.53 212.71 229.48 215.49 228.05 217.22 Z" />
</g>
<g id="#5d6069ff">
<path fill="#5d6069" opacity="1.00" d=" M 233.76 216.66 C 227.75 212.13 240.07 210.12 241.67 213.34 C 245.51 216.50 241.55 220.66 242.72 224.62 C 240.36 225.26 237.74 225.57 235.92 227.39 C 234.36 227.52 233.54 225.78 232.48 224.91 C 229.51 221.13 228.55 218.39 233.76 216.66 Z" />
</g>
<g id="#494d56ff">
<path fill="#494d56" opacity="1.00" d=" M 201.20 230.00 C 202.20 221.38 211.34 217.81 217.04 212.92 C 222.42 214.85 222.23 219.52 217.66 222.49 C 223.72 223.60 216.73 224.02 214.93 225.85 C 214.68 226.11 214.19 226.64 213.94 226.90 C 211.87 228.90 209.79 231.43 211.01 234.73 C 212.96 235.75 215.69 236.22 215.04 239.08 C 210.36 237.41 204.02 233.47 202.77 241.06 C 198.15 238.37 205.62 234.69 205.22 231.00 C 202.80 234.31 196.64 234.45 201.20 230.00 Z" />
</g>
<g id="#0000002e">
</g>
<g id="#8e8e9aff">
<path fill="#8e8e9a" opacity="1.00" d=" M 172.89 225.97 C 170.09 220.87 172.54 213.15 178.01 219.22 C 185.50 222.06 178.98 235.22 174.18 226.85 C 173.86 226.63 173.21 226.19 172.89 225.97 Z" />
</g>
<g id="#4a5059ff">
<path fill="#4a5059" opacity="1.00" d=" M 251.93 220.98 C 250.64 213.78 257.26 219.41 258.10 223.07 L 257.89 223.75 C 256.02 224.81 255.83 228.15 253.99 225.07 C 256.39 229.63 250.40 231.34 252.80 235.91 C 251.20 235.63 249.62 235.25 248.04 234.93 C 246.86 230.72 256.85 219.98 247.84 222.63 C 247.42 218.42 249.88 216.96 251.93 220.98 Z" />
</g>
<g id="#8a8c99ff">
<path fill="#8a8c99" opacity="1.00" d=" M 277.71 221.14 C 277.37 216.99 280.78 216.29 283.80 218.09 C 285.30 222.58 274.52 233.05 277.71 221.14 Z" />
</g>
<g id="#757a7fff">
<path fill="#757a7f" opacity="1.00" d=" M 194.98 226.14 C 189.57 227.35 186.65 219.94 192.84 218.80 C 189.97 225.62 196.71 221.32 200.26 220.16 C 195.60 223.00 199.40 226.62 201.20 230.00 C 196.64 234.45 202.80 234.31 205.22 231.00 C 205.62 234.69 198.15 238.37 202.77 241.06 C 204.02 233.47 210.36 237.41 215.04 239.08 C 215.69 236.22 212.96 235.75 211.01 234.73 C 209.79 231.43 211.87 228.90 213.94 226.90 C 213.32 230.08 210.02 235.41 215.61 233.41 C 221.09 240.43 220.25 229.98 217.79 226.08 C 220.81 226.26 224.34 225.71 226.10 228.78 C 223.72 232.13 228.02 232.60 229.20 229.61 C 232.42 231.23 236.11 227.66 239.06 230.15 C 236.23 235.24 233.71 242.10 227.39 243.53 C 224.87 244.00 224.39 246.79 222.87 248.44 C 220.61 248.15 218.40 248.35 216.35 249.40 C 214.96 246.72 212.02 244.56 209.82 247.82 C 206.04 249.28 209.12 256.15 204.15 255.07 C 203.77 252.83 207.44 239.06 202.15 243.20 C 202.77 248.00 204.30 254.54 199.00 257.13 C 196.17 254.64 190.37 250.74 192.38 246.61 C 194.13 243.91 188.64 245.94 188.67 243.20 C 189.42 240.09 190.20 236.78 193.67 235.84 C 190.78 231.76 194.40 229.73 194.98 226.14 Z" />
</g>
<g id="#5c6344ff">
<path fill="#5c6344" opacity="1.00" d=" M 161.50 225.16 C 164.14 219.61 169.16 224.46 172.89 225.97 C 173.21 226.19 173.86 226.63 174.18 226.85 C 174.59 228.81 175.00 230.78 174.98 232.80 C 172.48 233.50 168.51 231.81 167.65 234.99 C 167.20 234.80 166.29 234.42 165.84 234.23 C 164.20 231.31 161.91 228.59 161.50 225.16 Z" />
</g>
<g id="#a1a7a7ff">
<path fill="#a1a7a7" opacity="1.00" d=" M 214.93 225.85 C 215.64 225.91 217.08 226.02 217.79 226.08 C 220.25 229.98 221.09 240.43 215.61 233.41 C 210.02 235.41 213.32 230.08 213.94 226.90 C 214.19 226.64 214.68 226.11 214.93 225.85 Z" />
</g>
<g id="#0000001a">
</g>
<g id="#6a6e7aff">
<path fill="#6a6e7a" opacity="1.00" d=" M 240.71 233.10 C 241.19 233.13 242.14 233.21 242.61 233.24 C 242.95 235.39 245.45 237.58 243.72 239.65 C 241.35 244.30 232.18 242.99 237.09 236.15 C 240.68 237.32 242.85 237.26 240.71 233.10 Z" />
</g>
<g id="#575f4dfc">
<path fill="#575f4d" opacity="1.00" d=" M 157.06 234.23 C 162.24 236.21 167.43 238.18 172.67 240.02 C 172.67 240.44 172.67 241.30 172.67 241.73 C 168.99 244.16 167.44 251.38 172.27 253.74 C 176.39 256.07 172.93 261.04 176.04 264.16 C 175.45 264.46 174.26 265.06 173.67 265.36 C 166.51 264.62 161.09 260.56 157.17 254.85 C 156.45 252.91 155.77 250.96 155.06 249.02 C 154.97 248.32 154.77 246.93 154.67 246.24 C 155.07 242.17 155.83 238.13 157.06 234.23 Z" />
</g>
<g id="#83888bf4">
<path fill="#83888b" opacity="0.96" d=" M 273.33 244.52 C 268.20 243.44 274.08 237.76 276.78 236.60 C 277.63 239.89 275.98 242.68 273.33 244.52 Z" />
</g>
<g id="#757c69ff">
<path fill="#757c69" opacity="1.00" d=" M 172.27 253.74 C 167.44 251.38 168.99 244.16 172.67 241.73 C 178.93 247.36 174.98 257.46 181.00 263.50 C 179.37 263.88 177.70 264.00 176.04 264.16 C 172.93 261.04 176.39 256.07 172.27 253.74 Z" />
</g>
<g id="#1d1f2394">
</g>
<g id="#9396a2fc">
<path fill="#9396a2" opacity="1.00" d=" M 207.06 261.77 C 203.47 256.22 220.59 250.52 218.31 258.27 C 217.76 261.30 215.33 263.37 213.19 265.37 C 211.21 264.06 209.24 262.71 207.06 261.77 Z" />
</g>
<g id="#1a1a1f9d">
<path fill="#1a1a1f" opacity="0.62" d=" M 222.82 255.04 C 227.64 255.19 232.46 255.17 237.29 255.29 C 232.64 256.92 227.50 256.01 222.82 255.04 Z" />
</g>
<g id="#373b42fa">
<path fill="#373b42" opacity="0.98" d=" M 181.00 263.50 C 186.51 265.05 184.65 252.70 187.02 258.96 C 188.53 265.27 196.72 257.54 200.13 261.51 C 197.95 263.59 197.74 266.06 199.96 268.18 C 196.84 267.00 193.47 265.32 190.24 267.18 C 186.40 267.10 182.58 267.05 178.75 267.23 C 176.95 266.93 175.32 266.10 173.67 265.36 C 174.26 265.06 175.45 264.46 176.04 264.16 C 177.70 264.00 179.37 263.88 181.00 263.50 Z" />
</g>
<g id="#5f673ffa">
<path fill="#5f673f" opacity="0.98" d=" M 200.13 261.51 C 202.44 261.31 204.77 261.31 207.06 261.77 C 209.24 262.71 211.21 264.06 213.19 265.37 C 211.62 267.06 209.35 267.72 207.18 268.24 C 205.38 268.23 201.77 268.20 199.96 268.18 C 197.74 266.06 197.95 263.59 200.13 261.51 Z" />
</g>
<g id="#10111484">
</g>
<g id="#2528159e">
<path fill="#252815" opacity="0.62" d=" M 199.96 268.18 C 201.77 268.20 205.38 268.23 207.18 268.24 C 206.93 268.55 206.42 269.18 206.16 269.50 C 204.61 269.17 201.51 268.51 199.96 268.18 Z" />
</g>
</svg>



