<?xml version="1.0" encoding="UTF-8" ?>
<!DOCTYPE svg PUBLIC "-//W3C//DTD SVG 1.1//EN" "http://www.w3.org/Graphics/SVG/1.1/DTD/svg11.dtd">
<svg width="384pt" height="384pt" viewBox="0 0 384 384" version="1.1" xmlns="http://www.w3.org/2000/svg">
<g id="#00000010">
</g>
<g id="#00000018">
</g>
<g id="#4a4f58fd">
<path fill="#4a4f58" opacity="1.00" d=" M 187.81 33.52 C 190.66 32.26 193.04 29.47 196.66 31.11 C 198.08 32.01 198.87 35.93 200.70 33.71 C 202.97 30.87 206.71 31.85 208.08 34.98 C 208.03 35.50 207.93 36.54 207.88 37.06 C 203.96 34.98 193.79 36.73 198.80 42.04 C 195.07 45.68 188.15 39.52 185.03 43.57 C 187.24 44.48 189.48 45.36 191.60 46.48 C 193.05 48.89 191.85 52.66 194.89 54.20 C 193.06 49.97 195.82 46.93 199.91 45.98 C 199.27 48.87 198.31 52.31 201.70 53.30 C 202.04 53.70 202.73 54.48 203.07 54.88 C 196.93 52.42 195.17 57.35 192.77 61.20 C 192.50 61.61 191.98 62.44 191.71 62.86 C 186.27 63.90 184.98 56.21 179.19 58.12 C 176.39 61.64 181.68 63.54 182.43 66.64 C 184.97 71.40 181.23 75.34 179.28 79.25 C 184.21 75.28 190.14 72.88 195.16 69.11 C 199.20 64.81 196.82 70.94 200.13 72.52 C 198.05 77.50 191.06 78.83 190.41 84.42 C 187.19 92.65 195.44 100.58 203.27 100.72 C 200.22 102.90 197.29 105.37 193.89 106.98 C 190.95 107.77 189.32 103.35 186.32 104.57 C 183.73 106.24 181.19 108.02 178.12 108.77 C 177.78 109.05 177.10 109.60 176.76 109.88 C 169.86 112.94 177.32 101.36 182.03 104.89 C 181.19 101.65 178.15 100.30 175.08 99.97 C 173.49 103.42 172.55 107.26 169.83 110.08 C 167.74 109.41 163.86 106.33 162.75 109.51 C 159.15 110.23 155.60 111.44 152.87 114.01 C 153.27 111.44 157.52 104.57 152.35 106.45 C 149.69 107.22 152.39 102.87 152.07 101.35 C 154.19 101.04 156.32 100.72 158.43 100.31 C 156.74 103.64 160.19 108.34 163.16 106.30 C 161.39 101.60 172.18 99.54 165.90 96.17 C 173.07 96.99 168.44 92.00 163.90 92.81 C 161.94 91.04 162.26 89.15 163.97 87.34 C 161.15 86.42 153.87 86.13 156.93 81.67 C 165.80 84.42 158.18 71.11 159.93 67.86 C 164.03 66.87 166.64 63.87 161.79 61.40 C 159.98 60.84 159.64 66.47 157.00 63.99 C 152.91 61.38 151.63 67.91 148.23 69.05 C 147.19 66.84 146.43 64.15 143.61 63.84 C 148.82 59.43 157.61 57.58 157.64 48.90 C 160.78 52.89 171.91 49.93 171.41 44.04 C 175.54 42.48 180.11 40.15 179.88 34.81 C 181.33 31.05 185.00 32.36 187.81 33.52 M 170.23 90.10 C 168.12 91.72 169.72 92.09 171.64 92.32 C 173.16 98.36 179.83 99.32 185.16 98.97 C 183.95 95.47 179.29 98.19 177.51 95.45 C 175.14 93.50 174.19 89.02 170.23 90.10 Z" />
</g>
<g id="#1213145f">
</g>
<g id="#636870fe">
<path fill="#636870" opacity="1.00" d=" M 198.80 42.04 C 193.79 36.73 203.96 34.98 207.88 37.06 C 210.61 38.67 213.90 37.88 216.94 38.11 C 217.82 38.96 218.64 39.88 219.41 40.84 C 218.80 42.97 217.98 45.03 217.17 47.09 C 213.60 48.08 208.67 43.51 209.85 49.95 C 206.67 45.10 198.43 46.89 201.70 53.30 C 198.31 52.31 199.27 48.87 199.91 45.98 C 195.82 46.93 193.06 49.97 194.89 54.20 C 191.85 52.66 193.05 48.89 191.60 46.48 C 189.48 45.36 187.24 44.48 185.03 43.57 C 188.15 39.52 195.07 45.68 198.80 42.04 Z" />
</g>
<g id="#454449f4">
<path fill="#454449" opacity="0.96" d=" M 219.41 40.84 C 221.92 43.33 222.19 46.99 222.70 50.30 C 226.01 51.47 235.50 52.15 233.79 57.67 C 229.81 63.52 221.40 61.61 216.41 66.27 C 213.97 65.16 211.44 64.28 208.83 63.66 C 209.66 60.30 214.08 65.68 216.31 63.34 C 219.84 60.56 226.90 59.20 224.89 53.31 C 223.15 50.06 218.47 54.71 216.87 51.12 C 217.58 49.83 217.79 48.45 217.17 47.09 C 217.98 45.03 218.80 42.97 219.41 40.84 Z" />
</g>
<g id="#343844b9">
<path fill="#343844" opacity="0.73" d=" M 162.12 42.92 C 164.92 42.88 167.64 43.50 170.40 43.90 C 167.52 43.83 164.64 43.78 161.76 43.76 L 162.12 42.92 Z" />
</g>
<g id="#6b7188fd">
<path fill="#6b7188" opacity="1.00" d=" M 157.64 48.90 C 158.24 46.68 160.28 45.36 161.76 43.76 C 164.64 43.78 167.52 43.83 170.40 43.90 L 171.41 44.04 C 171.91 49.93 160.78 52.89 157.64 48.90 Z" />
</g>
<g id="#8b8f90ff">
<path fill="#8b8f90" opacity="1.00" d=" M 209.85 49.95 C 208.67 43.51 213.60 48.08 217.17 47.09 C 217.79 48.45 217.58 49.83 216.87 51.12 C 214.48 55.81 209.35 49.80 208.34 55.36 C 207.46 58.44 204.49 56.24 203.07 54.88 C 202.73 54.48 202.04 53.70 201.70 53.30 C 198.43 46.89 206.67 45.10 209.85 49.95 Z" />
</g>
<g id="#696b72ff">
<path fill="#696b72" opacity="1.00" d=" M 208.34 55.36 C 209.35 49.80 214.48 55.81 216.87 51.12 C 218.47 54.71 223.15 50.06 224.89 53.31 C 226.90 59.20 219.84 60.56 216.31 63.34 C 214.08 65.68 209.66 60.30 208.83 63.66 C 207.39 64.26 206.01 65.01 205.03 66.27 C 204.90 65.93 204.64 65.25 204.52 64.92 C 204.99 62.78 207.27 59.73 204.80 58.13 C 201.57 58.38 197.99 58.71 196.03 61.60 C 194.94 61.47 193.85 61.35 192.77 61.20 C 195.17 57.35 196.93 52.42 203.07 54.88 C 204.49 56.24 207.46 58.44 208.34 55.36 Z" />
</g>
<g id="#00000021">
</g>
<g id="#6a6d75ff">
<path fill="#6a6d75" opacity="1.00" d=" M 179.19 58.12 C 184.98 56.21 186.27 63.90 191.71 62.86 C 192.91 64.91 194.04 67.01 195.16 69.11 C 190.14 72.88 184.21 75.28 179.28 79.25 C 181.23 75.34 184.97 71.40 182.43 66.64 C 181.68 63.54 176.39 61.64 179.19 58.12 M 183.16 61.16 C 182.16 65.80 187.80 60.16 183.16 61.16 Z" />
</g>
<g id="#979d98ff">
<path fill="#979d98" opacity="1.00" d=" M 196.03 61.60 C 197.99 58.71 201.57 58.38 204.80 58.13 C 207.27 59.73 204.99 62.78 204.52 64.92 C 201.51 63.04 195.08 66.96 196.03 61.60 Z" />
</g>
<g id="#343740fb">
<path fill="#343740" opacity="1.00" d=" M 157.00 63.99 C 159.64 66.47 159.98 60.84 161.79 61.40 C 166.64 63.87 164.03 66.87 159.93 67.86 C 158.18 71.11 165.80 84.42 156.93 81.67 C 152.77 77.63 146.72 76.80 144.71 83.72 C 150.17 80.49 156.35 81.97 156.82 89.00 C 153.23 90.10 149.55 87.67 146.17 89.87 C 143.62 86.10 141.91 92.56 139.86 93.89 C 143.41 86.97 145.95 79.70 143.15 71.78 C 143.51 69.24 141.79 65.92 143.61 63.84 C 146.43 64.15 147.19 66.84 148.23 69.05 C 151.63 67.91 152.91 61.38 157.00 63.99 Z" />
</g>
<g id="#cbd0c7ff">
<path fill="#cbd0c7" opacity="1.00" d=" M 183.16 61.16 C 187.80 60.16 182.16 65.80 183.16 61.16 Z" />
</g>
<g id="#707649fe">
<path fill="#707649" opacity="1.00" d=" M 191.71 62.86 C 191.98 62.44 192.50 61.61 192.77 61.20 C 193.85 61.35 194.94 61.47 196.03 61.60 C 195.08 66.96 201.51 63.04 204.52 64.92 C 204.64 65.25 204.90 65.93 205.03 66.27 C 204.45 67.58 203.79 68.85 203.11 70.11 C 202.10 70.90 201.11 71.71 200.13 72.52 C 196.82 70.94 199.20 64.81 195.16 69.11 C 194.04 67.01 192.91 64.91 191.71 62.86 Z" />
</g>
<g id="#29282cf1">
<path fill="#29282c" opacity="0.95" d=" M 205.03 66.27 C 206.01 65.01 207.39 64.26 208.83 63.66 C 211.44 64.28 213.97 65.16 216.41 66.27 C 213.05 68.84 208.53 68.78 204.63 69.82 C 204.25 69.89 203.49 70.04 203.11 70.11 C 203.79 68.85 204.45 67.58 205.03 66.27 Z" />
</g>
<g id="#0101011a">
</g>
<g id="#424650fe">
<path fill="#424650" opacity="1.00" d=" M 144.71 83.72 C 146.72 76.80 152.77 77.63 156.93 81.67 C 153.87 86.13 161.15 86.42 163.97 87.34 C 162.26 89.15 161.94 91.04 163.90 92.81 C 162.70 94.70 164.35 95.47 165.90 96.17 C 172.18 99.54 161.39 101.60 163.16 106.30 C 160.19 108.34 156.74 103.64 158.43 100.31 C 164.83 92.87 141.26 96.58 152.07 101.35 C 152.39 102.87 149.69 107.22 152.35 106.45 C 157.52 104.57 153.27 111.44 152.87 114.01 C 150.31 120.28 158.43 126.44 164.22 123.35 C 164.92 122.73 165.53 122.04 166.07 121.28 C 167.75 118.87 170.71 115.00 167.28 112.70 C 166.62 111.99 165.90 111.36 165.10 110.82 C 164.51 110.49 163.34 109.83 162.75 109.51 C 163.86 106.33 167.74 109.41 169.83 110.08 C 172.68 113.99 171.27 120.96 176.60 122.52 C 178.03 126.20 168.39 121.07 169.06 125.70 C 175.24 125.46 176.09 127.99 171.21 129.05 C 175.01 133.27 168.56 134.01 168.88 138.13 C 161.14 140.39 167.34 150.89 166.65 156.25 C 171.07 156.42 169.63 159.70 166.23 160.41 C 168.10 167.07 174.07 164.98 179.21 166.24 C 179.46 169.71 181.88 174.65 176.96 175.10 C 174.83 177.76 179.81 178.17 181.90 176.93 C 184.75 182.13 178.64 185.90 181.06 190.13 C 174.51 192.09 180.97 194.64 183.33 196.76 C 178.66 194.88 172.17 194.16 173.63 202.16 C 168.41 201.78 171.77 192.31 166.09 194.00 C 161.76 194.75 164.93 202.17 168.82 200.43 C 170.65 202.60 168.02 207.00 171.99 207.10 C 174.92 209.59 166.66 211.47 169.52 214.31 C 172.70 216.36 176.05 222.08 169.81 219.07 L 168.99 218.89 C 166.25 218.28 163.45 218.11 160.67 217.80 C 165.86 216.16 158.75 213.83 156.66 215.64 C 154.15 217.81 151.42 219.37 147.89 219.29 C 149.00 221.86 152.33 224.05 149.78 226.89 C 145.51 228.26 145.54 222.86 145.69 220.05 C 144.77 214.58 142.32 225.72 139.68 220.28 C 141.12 214.29 138.07 207.63 143.01 202.18 C 136.85 197.33 138.83 213.17 134.72 211.40 C 132.84 204.67 126.41 200.86 126.25 193.75 C 126.06 192.42 125.89 191.10 125.73 189.77 C 127.19 187.20 128.95 184.84 131.01 182.68 C 135.21 184.63 130.78 191.17 130.98 195.02 C 134.58 196.04 133.69 192.11 135.19 190.15 C 138.67 187.31 144.87 186.43 145.12 181.11 C 147.24 179.86 150.23 180.87 151.93 178.79 C 152.48 175.99 150.24 173.71 149.77 171.07 C 152.44 170.84 154.81 172.12 157.21 172.96 C 155.75 168.99 151.82 166.46 150.97 162.08 C 148.87 165.28 144.92 165.90 141.37 166.00 C 141.92 162.79 140.35 158.26 136.99 161.84 C 134.06 157.70 133.53 160.04 133.72 164.22 C 134.81 156.82 129.96 157.95 125.94 160.02 C 126.97 156.96 130.09 154.18 128.38 150.75 C 128.29 150.10 128.09 148.80 127.99 148.15 C 130.54 141.42 133.41 133.42 129.23 126.77 C 128.55 118.92 130.41 111.29 135.08 104.95 C 139.37 102.90 139.54 98.08 139.86 93.89 C 141.91 92.56 143.62 86.10 146.17 89.87 C 149.55 87.67 153.23 90.10 156.82 89.00 C 156.35 81.97 150.17 80.49 144.71 83.72 M 141.26 111.20 C 138.41 113.48 135.45 117.39 138.25 120.89 C 144.89 124.86 148.53 110.08 141.26 111.20 M 161.19 133.46 C 158.41 135.11 154.53 142.16 160.68 140.69 C 166.42 141.17 167.74 131.02 161.19 133.46 M 152.08 152.89 C 151.14 157.33 159.12 158.13 155.97 161.90 C 151.58 164.79 157.99 168.49 160.22 170.73 C 166.87 170.70 160.93 157.01 159.76 166.01 C 153.14 164.52 161.85 160.11 163.77 157.68 C 164.25 151.95 155.41 153.56 152.08 152.89 M 170.24 181.17 C 165.14 183.46 170.14 191.30 174.30 188.33 C 178.38 185.60 174.20 180.40 170.24 181.17 M 151.21 194.15 C 148.80 196.96 146.72 201.00 147.21 204.75 C 152.39 209.28 158.40 192.70 151.21 194.15 Z" />
</g>
<g id="#666c68ff">
<path fill="#666c68" opacity="1.00" d=" M 170.23 90.10 C 174.19 89.02 175.14 93.50 177.51 95.45 C 179.29 98.19 183.95 95.47 185.16 98.97 C 179.83 99.32 173.16 98.36 171.64 92.32 C 169.72 92.09 168.12 91.72 170.23 90.10 Z" />
</g>
<g id="#7d8094ff">
<path fill="#7d8094" opacity="1.00" d=" M 163.90 92.81 C 168.44 92.00 173.07 96.99 165.90 96.17 C 164.35 95.47 162.70 94.70 163.90 92.81 Z" />
</g>
<g id="#707689ff">
<path fill="#707689" opacity="1.00" d=" M 152.07 101.35 C 141.26 96.58 164.83 92.87 158.43 100.31 C 156.32 100.72 154.19 101.04 152.07 101.35 Z" />
</g>
<g id="#666c74fe">
<path fill="#666c74" opacity="1.00" d=" M 175.08 99.97 C 178.15 100.30 181.19 101.65 182.03 104.89 C 177.32 101.36 169.86 112.94 176.76 109.88 C 176.56 112.86 177.07 116.22 180.80 115.98 C 183.74 113.52 181.43 109.38 178.12 108.77 C 181.19 108.02 183.73 106.24 186.32 104.57 C 189.32 103.35 190.95 107.77 193.89 106.98 C 197.29 105.37 200.22 102.90 203.27 100.72 C 206.34 101.58 208.97 103.79 210.29 106.71 C 208.22 105.58 205.84 105.20 203.52 105.57 C 204.30 108.17 199.56 114.56 203.43 116.09 C 204.59 117.17 205.72 118.30 206.95 119.32 C 207.84 120.08 208.81 120.73 209.79 121.38 C 209.06 126.56 212.09 130.26 215.34 133.82 C 214.92 134.79 214.49 135.75 214.05 136.71 C 211.85 140.12 211.61 143.11 207.01 140.06 C 200.47 137.31 210.83 135.39 206.31 130.73 C 202.77 127.02 200.01 130.61 199.01 134.26 C 199.96 124.50 192.55 131.24 188.61 127.96 C 191.57 126.26 193.69 122.41 188.60 122.40 C 183.93 123.01 189.52 115.72 185.09 117.05 C 182.00 117.24 182.99 120.89 183.97 122.72 C 179.17 122.62 178.17 127.99 178.13 131.74 C 180.11 134.69 183.58 134.86 186.73 134.25 C 191.06 136.09 186.25 139.86 187.77 142.93 C 184.47 142.89 186.50 146.68 187.72 148.11 C 185.01 151.89 184.50 156.62 183.07 160.96 C 186.12 166.16 184.09 171.89 181.90 176.93 C 179.81 178.17 174.83 177.76 176.96 175.10 C 181.88 174.65 179.46 169.71 179.21 166.24 C 180.19 163.17 181.26 160.11 182.05 156.98 C 183.78 152.84 178.24 150.35 178.78 146.10 C 177.72 146.94 176.90 149.72 175.30 148.74 C 168.79 144.45 183.71 135.32 174.26 133.88 C 177.29 140.92 171.70 138.94 168.88 138.13 C 168.56 134.01 175.01 133.27 171.21 129.05 C 176.09 127.99 175.24 125.46 169.06 125.70 C 168.39 121.07 178.03 126.20 176.60 122.52 C 171.27 120.96 172.68 113.99 169.83 110.08 C 172.55 107.26 173.49 103.42 175.08 99.97 M 194.41 109.38 C 192.50 111.29 191.22 114.24 188.14 114.31 C 186.19 119.56 193.74 113.40 193.01 119.00 C 192.64 124.61 199.09 119.74 196.32 116.68 C 193.86 114.85 198.37 107.13 194.41 109.38 Z" />
</g>
<g id="#0000002d">
</g>
<g id="#9295a5fb">
<path fill="#9295a5" opacity="1.00" d=" M 203.52 105.57 C 205.84 105.20 208.22 105.58 210.29 106.71 C 210.56 107.25 211.10 108.32 211.37 108.85 C 210.66 110.21 210.38 112.26 212.03 113.09 C 212.25 116.06 211.36 118.88 209.79 121.38 C 208.81 120.73 207.84 120.08 206.95 119.32 C 211.63 118.66 206.38 112.18 203.43 116.09 C 199.56 114.56 204.30 108.17 203.52 105.57 Z" />
</g>
<g id="#9498a7ff">
<path fill="#9498a7" opacity="1.00" d=" M 176.76 109.88 C 177.10 109.60 177.78 109.05 178.12 108.77 C 181.43 109.38 183.74 113.52 180.80 115.98 C 177.07 116.22 176.56 112.86 176.76 109.88 Z" />
</g>
<g id="#808486ff">
<path fill="#808486" opacity="1.00" d=" M 194.41 109.38 C 198.37 107.13 193.86 114.85 196.32 116.68 C 199.09 119.74 192.64 124.61 193.01 119.00 C 193.74 113.40 186.19 119.56 188.14 114.31 C 191.22 114.24 192.50 111.29 194.41 109.38 Z" />
</g>
<g id="#595949c8">
<path fill="#595949" opacity="0.78" d=" M 211.37 108.85 C 212.33 110.06 212.39 111.64 212.03 113.09 C 210.38 112.26 210.66 110.21 211.37 108.85 Z" />
</g>
<g id="#666b82ff">
<path fill="#666b82" opacity="1.00" d=" M 152.87 114.01 C 155.60 111.44 159.15 110.23 162.75 109.51 C 163.34 109.83 164.51 110.49 165.10 110.82 C 162.72 110.89 160.30 111.12 158.13 112.15 C 158.80 114.85 160.00 117.60 158.33 120.20 C 156.96 123.58 162.21 123.00 164.22 123.35 C 158.43 126.44 150.31 120.28 152.87 114.01 Z" />
</g>
<g id="#5a5f75ff">
<path fill="#5a5f75" opacity="1.00" d=" M 141.26 111.20 C 148.53 110.08 144.89 124.86 138.25 120.89 C 135.45 117.39 138.41 113.48 141.26 111.20 Z" />
</g>
<g id="#989daaff">
<path fill="#989daa" opacity="1.00" d=" M 158.13 112.15 C 160.30 111.12 162.72 110.89 165.10 110.82 C 165.90 111.36 166.62 111.99 167.28 112.70 C 166.83 115.60 164.23 118.38 166.07 121.28 C 165.53 122.04 164.92 122.73 164.22 123.35 C 162.21 123.00 156.96 123.58 158.33 120.20 C 160.00 117.60 158.80 114.85 158.13 112.15 Z" />
</g>
<g id="#777d6dff">
<path fill="#777d6d" opacity="1.00" d=" M 167.28 112.70 C 170.71 115.00 167.75 118.87 166.07 121.28 C 164.23 118.38 166.83 115.60 167.28 112.70 Z" />
</g>
<g id="#d5d7dfff">
<path fill="#d5d7df" opacity="1.00" d=" M 203.43 116.09 C 206.38 112.18 211.63 118.66 206.95 119.32 C 205.72 118.30 204.59 117.17 203.43 116.09 Z" />
</g>
<g id="#858793ff">
<path fill="#858793" opacity="1.00" d=" M 183.97 122.72 C 182.99 120.89 182.00 117.24 185.09 117.05 C 189.52 115.72 183.93 123.01 188.60 122.40 C 193.69 122.41 191.57 126.26 188.61 127.96 C 184.83 128.15 184.08 125.90 183.97 122.72 Z" />
</g>
<g id="#505759ff">
<path fill="#505759" opacity="1.00" d=" M 178.13 131.74 C 178.17 127.99 179.17 122.62 183.97 122.72 C 184.08 125.90 184.83 128.15 188.61 127.96 C 192.55 131.24 199.96 124.50 199.01 134.26 C 197.86 136.66 196.55 138.98 195.73 141.51 C 193.34 143.36 190.65 144.41 187.77 142.93 C 186.25 139.86 191.06 136.09 186.73 134.25 C 183.58 134.86 180.11 134.69 178.13 131.74 Z" />
</g>
<g id="#0000003b">
</g>
<g id="#808953ff">
<path fill="#808953" opacity="1.00" d=" M 199.01 134.26 C 200.01 130.61 202.77 127.02 206.31 130.73 C 210.83 135.39 200.47 137.31 207.01 140.06 C 209.86 146.36 206.86 150.68 200.17 152.06 C 197.21 149.45 200.36 146.75 202.81 145.49 C 201.29 143.00 198.37 142.19 195.73 141.51 C 196.55 138.98 197.86 136.66 199.01 134.26 Z" />
</g>
<g id="#676c78ff">
<path fill="#676c78" opacity="1.00" d=" M 161.19 133.46 C 167.74 131.02 166.42 141.17 160.68 140.69 C 154.53 142.16 158.41 135.11 161.19 133.46 Z" />
</g>
<g id="#4b5261ff">
<path fill="#4b5261" opacity="1.00" d=" M 174.26 133.88 C 183.71 135.32 168.79 144.45 175.30 148.74 C 176.90 149.72 177.72 146.94 178.78 146.10 C 178.24 150.35 183.78 152.84 182.05 156.98 C 181.26 160.11 180.19 163.17 179.21 166.24 C 174.07 164.98 168.10 167.07 166.23 160.41 C 169.63 159.70 171.07 156.42 166.65 156.25 C 167.34 150.89 161.14 140.39 168.88 138.13 C 171.70 138.94 177.29 140.92 174.26 133.88 M 175.26 156.19 C 171.67 157.76 172.29 164.43 176.92 163.00 C 181.78 162.16 180.62 153.65 175.26 156.19 Z" />
</g>
<g id="#5a5f6afd">
<path fill="#5a5f6a" opacity="1.00" d=" M 215.34 133.82 C 218.86 137.41 222.84 140.74 225.12 145.32 C 221.59 150.48 232.60 162.38 223.14 163.25 C 219.52 163.20 211.66 161.63 211.21 165.63 C 214.91 165.05 214.33 169.70 211.06 169.04 C 208.06 169.86 208.87 162.60 206.35 166.18 C 208.05 170.61 202.51 171.90 201.73 175.86 C 200.68 177.24 199.14 183.61 198.91 178.98 C 198.41 176.00 190.89 181.78 194.74 184.17 C 193.31 179.39 184.89 181.39 190.30 176.31 C 197.24 181.45 194.15 169.94 199.13 167.26 C 200.25 165.97 201.87 164.88 201.93 163.00 C 201.63 158.72 209.34 164.82 207.97 160.08 C 206.29 154.56 198.51 160.42 194.97 157.90 C 196.89 152.04 205.26 156.68 206.67 150.63 C 208.18 147.02 210.91 150.53 211.41 152.85 C 214.60 153.07 215.89 150.21 216.60 147.60 C 220.13 147.18 218.64 143.56 216.12 142.83 C 213.35 142.00 214.73 138.82 214.05 136.71 C 214.49 135.75 214.92 134.79 215.34 133.82 M 219.00 153.97 C 218.52 157.05 220.26 161.90 223.79 161.91 C 226.45 158.72 222.98 153.17 219.00 153.97 Z" />
</g>
<g id="#4a4f59fe">
<path fill="#4a4f59" opacity="1.00" d=" M 310.20 142.10 C 312.12 134.14 322.68 134.81 322.36 142.96 C 320.25 147.90 316.40 151.77 313.22 156.02 C 313.76 151.39 307.79 154.07 304.97 153.09 C 303.25 157.97 311.70 163.52 313.08 156.86 C 313.11 162.30 309.83 166.75 307.11 171.15 C 306.15 174.81 311.77 173.63 314.05 174.21 C 314.02 176.92 308.99 175.85 310.04 178.90 C 310.33 182.25 321.20 185.27 316.39 180.61 C 312.22 177.09 317.42 173.93 321.11 174.14 C 320.06 176.65 318.74 179.19 318.94 182.01 C 322.50 183.43 325.13 182.05 326.65 179.28 C 327.98 179.61 329.00 178.57 330.05 177.95 C 333.01 182.69 324.26 183.23 324.79 188.00 C 320.40 189.08 326.42 181.39 322.11 183.17 C 317.12 183.22 321.29 188.71 318.22 191.21 C 314.69 193.41 310.92 195.25 307.77 198.02 L 307.17 198.07 C 305.48 197.24 303.72 196.14 301.80 196.89 C 299.80 195.35 297.40 193.70 298.67 190.87 C 299.54 187.05 293.85 186.66 291.54 185.11 C 291.84 184.33 292.22 183.57 292.23 182.72 L 292.31 181.96 C 296.69 186.84 301.60 179.60 297.34 175.58 C 300.49 177.12 300.57 184.43 302.91 177.89 C 303.52 180.84 299.93 185.85 304.18 186.79 C 307.94 187.77 302.61 194.34 307.00 195.02 C 310.74 194.02 310.96 189.04 307.54 187.38 C 305.70 184.75 308.25 185.22 310.18 185.64 C 310.82 181.85 307.05 180.45 304.37 178.97 C 307.66 176.55 302.47 170.96 302.09 175.86 C 299.80 174.96 297.07 172.88 297.15 170.30 C 299.19 168.99 301.40 167.96 303.34 166.48 C 307.04 164.77 305.24 163.77 302.14 163.06 C 305.84 160.51 302.17 157.68 300.27 155.41 C 305.67 152.81 307.72 147.13 310.20 142.10 Z" />
</g>
<g id="#797f82ff">
<path fill="#797f82" opacity="1.00" d=" M 207.01 140.06 C 211.61 143.11 211.85 140.12 214.05 136.71 C 214.73 138.82 213.35 142.00 216.12 142.83 C 218.64 143.56 220.13 147.18 216.60 147.60 C 215.89 150.21 214.60 153.07 211.41 152.85 C 210.91 150.53 208.18 147.02 206.67 150.63 C 205.26 156.68 196.89 152.04 194.97 157.90 C 198.51 160.42 206.29 154.56 207.97 160.08 C 209.34 164.82 201.63 158.72 201.93 163.00 C 198.81 156.43 191.76 168.39 199.13 167.26 C 194.15 169.94 197.24 181.45 190.30 176.31 C 184.89 181.39 193.31 179.39 194.74 184.17 C 190.89 181.78 198.41 176.00 198.91 178.98 C 199.14 183.61 200.68 177.24 201.73 175.86 C 200.34 183.69 206.43 190.69 213.80 192.22 C 213.89 195.29 214.10 198.59 211.10 200.41 C 206.41 201.40 203.10 196.77 197.98 196.95 C 197.12 200.67 202.66 199.70 200.09 203.68 L 199.39 203.93 C 196.16 198.17 194.39 211.19 189.10 209.01 C 184.21 207.87 187.30 203.30 189.80 201.27 C 183.96 199.78 185.92 191.30 181.06 190.13 C 178.64 185.90 184.75 182.13 181.90 176.93 C 184.09 171.89 186.12 166.16 183.07 160.96 C 184.50 156.62 185.01 151.89 187.72 148.11 C 186.50 146.68 184.47 142.89 187.77 142.93 C 190.65 144.41 193.34 143.36 195.73 141.51 C 198.37 142.19 201.29 143.00 202.81 145.49 C 200.36 146.75 197.21 149.45 200.17 152.06 C 206.86 150.68 209.86 146.36 207.01 140.06 Z" />
</g>
<g id="#2a2d36fb">
<path fill="#2a2d36" opacity="1.00" d=" M 284.74 145.70 C 292.82 142.82 303.27 148.26 310.20 142.10 C 307.72 147.13 305.67 152.81 300.27 155.41 C 302.17 157.68 305.84 160.51 302.14 163.06 C 305.24 163.77 307.04 164.77 303.34 166.48 C 298.78 168.43 298.55 160.74 294.06 162.70 C 294.33 160.57 294.93 158.47 294.92 156.31 C 292.95 155.16 287.57 156.35 288.26 153.28 C 290.77 151.94 293.53 151.17 296.04 149.81 C 295.96 143.81 288.74 146.61 284.74 145.70 Z" />
</g>
<g id="#2d3139fd">
<path fill="#2d3139" opacity="1.00" d=" M 322.36 142.96 C 324.59 142.57 326.82 142.39 329.11 142.31 C 325.16 148.13 317.97 153.33 318.16 161.18 C 314.94 164.50 311.70 168.40 315.40 172.71 C 321.40 172.50 320.59 165.33 323.81 161.89 C 324.93 161.24 326.06 160.60 327.22 160.03 C 326.43 165.02 322.35 168.83 321.94 173.93 L 321.11 174.14 C 317.42 173.93 312.22 177.09 316.39 180.61 C 321.20 185.27 310.33 182.25 310.04 178.90 C 308.99 175.85 314.02 176.92 314.05 174.21 C 311.77 173.63 306.15 174.81 307.11 171.15 C 309.83 166.75 313.11 162.30 313.08 156.86 L 313.22 156.02 C 316.40 151.77 320.25 147.90 322.36 142.96 Z" />
</g>
<g id="#0000004e">
</g>
<g id="#454852fd">
<path fill="#454852" opacity="1.00" d=" M 318.16 161.18 C 317.97 153.33 325.16 148.13 329.11 142.31 C 330.02 143.31 330.90 144.40 331.31 145.72 C 331.43 148.48 330.01 151.79 332.07 153.99 C 332.79 154.94 333.54 155.86 334.20 156.86 C 333.82 159.78 335.01 163.33 333.13 165.83 C 327.57 158.27 327.90 174.25 321.94 173.93 C 322.35 168.83 326.43 165.02 327.22 160.03 C 326.06 160.60 324.93 161.24 323.81 161.89 C 324.91 159.77 327.17 157.13 324.94 154.92 C 322.18 156.43 320.53 159.21 318.16 161.18 Z" />
</g>
<g id="#3d404dfd">
<path fill="#3d404d" opacity="1.00" d=" M 223.14 163.25 C 232.60 162.38 221.59 150.48 225.12 145.32 C 228.79 151.48 230.30 158.68 234.51 164.61 C 238.94 165.77 243.65 165.25 248.16 165.98 C 247.86 169.04 248.34 171.58 251.91 171.86 C 250.42 172.01 248.93 172.28 247.65 173.08 C 248.34 164.83 236.09 167.34 234.95 173.84 C 231.69 170.16 221.98 166.01 221.59 173.78 C 216.92 172.08 210.82 177.04 213.81 181.80 C 215.51 180.30 219.07 181.20 217.37 178.03 C 219.59 178.51 223.39 177.45 223.25 180.84 C 224.35 185.03 229.69 183.78 232.90 182.84 C 236.61 180.88 235.68 187.36 238.72 188.28 C 238.19 197.48 233.20 180.38 229.40 186.40 C 227.30 189.98 224.04 185.32 222.52 183.38 C 215.67 185.07 219.78 197.37 227.06 193.93 C 230.35 193.47 227.33 197.43 227.47 199.16 C 226.69 197.73 225.97 196.27 225.15 194.88 C 223.53 195.09 221.95 195.47 220.36 195.84 C 218.46 194.16 216.23 192.91 213.80 192.22 C 206.43 190.69 200.34 183.69 201.73 175.86 C 202.51 171.90 208.05 170.61 206.35 166.18 C 208.87 162.60 208.06 169.86 211.06 169.04 C 214.33 169.70 214.91 165.05 211.21 165.63 C 211.66 161.63 219.52 163.20 223.14 163.25 Z" />
</g>
<g id="#363948ff">
<path fill="#363948" opacity="1.00" d=" M 282.54 146.73 C 283.09 146.47 284.19 145.95 284.74 145.70 C 288.74 146.61 295.96 143.81 296.04 149.81 C 293.53 151.17 290.77 151.94 288.26 153.28 C 287.57 156.35 292.95 155.16 294.92 156.31 C 294.93 158.47 294.33 160.57 294.06 162.70 C 298.55 160.74 298.78 168.43 303.34 166.48 C 301.40 167.96 299.19 168.99 297.15 170.30 C 297.07 172.88 299.80 174.96 302.09 175.86 C 302.30 176.37 302.71 177.38 302.91 177.89 C 300.57 184.43 300.49 177.12 297.34 175.58 C 295.62 174.20 293.88 172.84 292.11 171.51 C 290.19 169.77 287.71 168.94 285.15 168.73 C 285.25 165.86 291.64 169.39 293.99 169.01 C 292.12 167.10 287.75 160.38 286.16 165.13 C 285.46 167.76 281.96 166.45 279.95 166.88 C 279.58 161.41 286.09 158.41 285.99 153.21 C 283.96 151.54 282.61 149.43 282.54 146.73 Z" />
</g>
<g id="#2a2a2daf">
<path fill="#2a2a2d" opacity="0.69" d=" M 331.31 145.72 C 332.34 148.34 331.84 151.21 332.07 153.99 C 330.01 151.79 331.43 148.48 331.31 145.72 Z" />
</g>
<g id="#2b2d35f9">
<path fill="#2b2d35" opacity="0.98" d=" M 278.03 151.02 C 279.15 149.25 280.64 147.67 282.54 146.73 C 282.61 149.43 283.96 151.54 285.99 153.21 C 286.09 158.41 279.58 161.41 279.95 166.88 C 281.96 166.45 285.46 167.76 286.16 165.13 C 287.75 160.38 292.12 167.10 293.99 169.01 C 291.64 169.39 285.25 165.86 285.15 168.73 C 285.48 172.22 285.78 175.90 288.53 178.37 C 289.55 179.79 290.91 180.91 292.31 181.96 L 292.23 182.72 C 283.44 187.87 285.00 174.08 278.10 176.47 C 272.12 176.19 281.37 180.36 278.13 183.11 C 275.55 186.79 271.79 183.09 270.28 180.74 C 277.05 172.51 275.85 160.87 278.03 151.02 Z" />
</g>
<g id="#00000061">
</g>
<g id="#555a69ff">
<path fill="#555a69" opacity="1.00" d=" M 152.08 152.89 C 155.41 153.56 164.25 151.95 163.77 157.68 C 161.85 160.11 153.14 164.52 159.76 166.01 C 160.93 157.01 166.87 170.70 160.22 170.73 C 157.99 168.49 151.58 164.79 155.97 161.90 C 159.12 158.13 151.14 157.33 152.08 152.89 Z" />
</g>
<g id="#798188ff">
<path fill="#798188" opacity="1.00" d=" M 304.97 153.09 C 307.79 154.07 313.76 151.39 313.22 156.02 L 313.08 156.86 C 311.70 163.52 303.25 157.97 304.97 153.09 Z" />
</g>
<g id="#8d8fa0ff">
<path fill="#8d8fa0" opacity="1.00" d=" M 219.00 153.97 C 222.98 153.17 226.45 158.72 223.79 161.91 C 220.26 161.90 218.52 157.05 219.00 153.97 Z" />
</g>
<g id="#666d73ff">
<path fill="#666d73" opacity="1.00" d=" M 318.16 161.18 C 320.53 159.21 322.18 156.43 324.94 154.92 C 327.17 157.13 324.91 159.77 323.81 161.89 C 320.59 165.33 321.40 172.50 315.40 172.71 C 311.70 168.40 314.94 164.50 318.16 161.18 Z" />
</g>
<g id="#727b76ff">
<path fill="#727b76" opacity="1.00" d=" M 175.26 156.19 C 180.62 153.65 181.78 162.16 176.92 163.00 C 172.29 164.43 171.67 157.76 175.26 156.19 Z" />
</g>
<g id="#2e3036f2">
<path fill="#2e3036" opacity="0.95" d=" M 334.20 156.86 C 334.90 160.42 336.06 163.77 338.25 166.68 C 333.10 167.71 332.20 173.20 330.33 177.27 L 330.05 177.95 C 329.00 178.57 327.98 179.61 326.65 179.28 C 328.05 174.47 329.75 169.64 333.13 165.83 C 335.01 163.33 333.82 159.78 334.20 156.86 Z" />
</g>
<g id="#575b6ffc">
<path fill="#575b6f" opacity="1.00" d=" M 125.94 160.02 C 129.96 157.95 134.81 156.82 133.72 164.22 C 133.94 166.88 134.81 169.40 135.67 171.91 C 133.56 175.27 129.85 174.49 126.77 173.18 C 126.58 172.88 126.21 172.29 126.03 172.00 C 125.70 170.65 125.36 169.30 124.98 167.97 C 125.22 165.31 124.80 162.49 125.94 160.02 Z" />
</g>
<g id="#313236fe">
<path fill="#313236" opacity="1.00" d=" M 133.72 164.22 C 133.53 160.04 134.06 157.70 136.99 161.84 C 140.35 158.26 141.92 162.79 141.37 166.00 C 144.92 165.90 148.87 165.28 150.97 162.08 C 151.82 166.46 155.75 168.99 157.21 172.96 C 154.81 172.12 152.44 170.84 149.77 171.07 C 150.24 173.71 152.48 175.99 151.93 178.79 C 150.23 180.87 147.24 179.86 145.12 181.11 C 144.87 186.43 138.67 187.31 135.19 190.15 C 133.69 192.11 134.58 196.04 130.98 195.02 C 130.78 191.17 135.21 184.63 131.01 182.68 C 133.23 179.20 127.05 176.90 126.77 173.18 C 129.85 174.49 133.56 175.27 135.67 171.91 C 134.81 169.40 133.94 166.88 133.72 164.22 Z" />
</g>
<g id="#9699a7ff">
<path fill="#9699a7" opacity="1.00" d=" M 199.13 167.26 C 191.76 168.39 198.81 156.43 201.93 163.00 C 201.87 164.88 200.25 165.97 199.13 167.26 Z" />
</g>
<g id="#6e767eff">
<path fill="#6e767e" opacity="1.00" d=" M 321.94 173.93 C 327.90 174.25 327.57 158.27 333.13 165.83 C 329.75 169.64 328.05 174.47 326.65 179.28 C 325.13 182.05 322.50 183.43 318.94 182.01 C 318.74 179.19 320.06 176.65 321.11 174.14 L 321.94 173.93 Z" />
</g>
<g id="#33353dfc">
<path fill="#33353d" opacity="1.00" d=" M 248.16 165.98 C 253.43 168.25 259.04 170.83 263.10 174.88 C 267.83 185.94 252.33 192.86 243.25 193.85 C 239.21 193.76 234.50 191.56 230.71 193.76 C 226.22 203.78 239.97 200.47 245.15 204.81 C 248.11 210.99 246.52 217.56 247.09 223.89 C 250.73 224.01 248.23 216.73 252.86 216.75 C 256.33 214.50 257.21 218.93 258.85 221.11 C 261.33 216.04 254.65 208.05 260.90 205.32 C 265.93 207.54 263.09 201.63 263.12 198.79 C 264.35 202.81 268.92 204.49 267.79 209.13 C 268.90 214.39 257.88 204.91 263.03 215.02 C 264.10 219.28 256.85 220.16 261.71 224.29 C 265.43 232.04 259.35 221.69 254.93 224.26 C 252.34 227.37 249.32 231.93 249.94 237.10 C 247.17 236.65 245.15 234.98 244.48 232.21 C 241.85 231.67 242.12 234.22 243.27 235.73 C 238.26 238.97 240.77 231.09 242.13 228.83 C 244.38 228.15 248.79 229.36 248.01 225.96 C 243.01 225.77 236.80 230.21 233.88 224.25 C 237.61 224.32 241.38 224.63 245.07 223.84 C 243.72 221.31 243.60 218.83 244.88 216.24 C 240.37 215.06 237.95 207.02 232.75 211.70 C 230.75 213.27 233.50 216.05 234.15 217.89 C 232.39 217.62 230.63 217.38 228.89 217.06 C 232.06 213.94 230.26 206.19 225.81 206.81 C 226.81 203.93 229.89 202.30 227.47 199.16 C 227.33 197.43 230.35 193.47 227.06 193.93 C 219.78 197.37 215.67 185.07 222.52 183.38 C 224.04 185.32 227.30 189.98 229.40 186.40 C 233.20 180.38 238.19 197.48 238.72 188.28 C 239.69 182.13 245.51 189.90 247.24 184.45 C 249.38 185.74 252.22 186.78 253.74 184.02 C 259.83 180.57 257.23 174.39 251.91 171.86 C 248.34 171.58 247.86 169.04 248.16 165.98 M 232.30 205.35 C 230.11 204.97 228.74 209.00 230.99 209.01 C 234.59 211.33 235.45 203.68 232.30 205.35 Z" />
</g>
<g id="#4a4d55f7">
<path fill="#4a4d55" opacity="0.97" d=" M 330.33 177.27 C 332.20 173.20 333.10 167.71 338.25 166.68 C 339.99 169.13 338.61 172.23 338.09 174.95 C 337.16 175.65 336.24 176.36 335.34 177.10 C 335.54 173.58 332.08 177.02 330.33 177.27 Z" />
</g>
<g id="#535565ff">
<path fill="#535565" opacity="1.00" d=" M 234.95 173.84 C 236.09 167.34 248.34 164.83 247.65 173.08 C 245.67 178.17 238.67 169.27 236.46 174.24 C 236.38 177.58 235.14 187.07 240.74 182.70 C 244.41 181.12 249.52 183.04 253.74 184.02 C 252.22 186.78 249.38 185.74 247.24 184.45 C 245.51 189.90 239.69 182.13 238.72 188.28 C 235.68 187.36 236.61 180.88 232.90 182.84 C 229.69 183.78 224.35 185.03 223.25 180.84 C 223.39 177.45 219.59 178.51 217.37 178.03 C 219.07 181.20 215.51 180.30 213.81 181.80 C 210.82 177.04 216.92 172.08 221.59 173.78 C 221.98 166.01 231.69 170.16 234.95 173.84 Z" />
</g>
<g id="#646c71ff">
<path fill="#646c71" opacity="1.00" d=" M 285.15 168.73 C 287.71 168.94 290.19 169.77 292.11 171.51 C 288.70 172.24 288.70 175.51 288.53 178.37 C 285.78 175.90 285.48 172.22 285.15 168.73 Z" />
</g>
<g id="#0000002e">
</g>
<g id="#747681ff">
<path fill="#747681" opacity="1.00" d=" M 236.46 174.24 C 238.67 169.27 245.67 178.17 247.65 173.08 C 248.93 172.28 250.42 172.01 251.91 171.86 C 257.23 174.39 259.83 180.57 253.74 184.02 C 249.52 183.04 244.41 181.12 240.74 182.70 C 235.14 187.07 236.38 177.58 236.46 174.24 Z" />
</g>
<g id="#8a8d9cff">
<path fill="#8a8d9c" opacity="1.00" d=" M 288.53 178.37 C 288.70 175.51 288.70 172.24 292.11 171.51 C 293.88 172.84 295.62 174.20 297.34 175.58 C 301.60 179.60 296.69 186.84 292.31 181.96 C 290.91 180.91 289.55 179.79 288.53 178.37 Z" />
</g>
<g id="#6c7278ff">
<path fill="#6c7278" opacity="1.00" d=" M 302.09 175.86 C 302.47 170.96 307.66 176.55 304.37 178.97 C 307.05 180.45 310.82 181.85 310.18 185.64 C 308.25 185.22 305.70 184.75 307.54 187.38 C 310.96 189.04 310.74 194.02 307.00 195.02 C 302.61 194.34 307.94 187.77 304.18 186.79 C 299.93 185.85 303.52 180.84 302.91 177.89 C 302.71 177.38 302.30 176.37 302.09 175.86 Z" />
</g>
<g id="#707a83f4">
<path fill="#707a83" opacity="0.96" d=" M 330.33 177.27 C 332.08 177.02 335.54 173.58 335.34 177.10 C 334.50 181.55 332.73 186.49 328.16 188.22 C 327.31 188.16 325.63 188.05 324.79 188.00 C 324.26 183.23 333.01 182.69 330.05 177.95 L 330.33 177.27 Z" />
</g>
<g id="#0000000f">
</g>
<g id="#3a3d46fe">
<path fill="#3a3d46" opacity="1.00" d=" M 278.13 183.11 C 281.37 180.36 272.12 176.19 278.10 176.47 C 285.00 174.08 283.44 187.87 292.23 182.72 C 292.22 183.57 291.84 184.33 291.54 185.11 C 288.96 194.28 279.49 172.99 281.80 188.82 C 281.52 189.14 280.97 189.78 280.70 190.10 C 278.25 189.59 275.68 188.00 273.28 189.51 C 273.23 186.18 269.71 184.86 270.18 188.96 C 271.17 191.58 270.09 192.55 267.41 192.13 C 267.60 189.91 266.51 187.92 265.79 185.90 C 267.28 184.18 268.83 182.50 270.28 180.74 C 271.79 183.09 275.55 186.79 278.13 183.11 Z" />
</g>
<g id="#6c7574ff">
<path fill="#6c7574" opacity="1.00" d=" M 170.24 181.17 C 174.20 180.40 178.38 185.60 174.30 188.33 C 170.14 191.30 165.14 183.46 170.24 181.17 Z" />
</g>
<g id="#646968fe">
<path fill="#646968" opacity="1.00" d=" M 281.80 188.82 C 279.49 172.99 288.96 194.28 291.54 185.11 C 293.85 186.66 299.54 187.05 298.67 190.87 C 297.40 193.70 299.80 195.35 301.80 196.89 C 303.23 198.58 304.94 200.00 306.72 201.32 L 307.17 201.90 C 304.93 203.54 302.42 204.73 299.87 205.81 L 299.01 206.11 C 298.43 202.25 296.49 198.67 292.41 197.74 C 288.75 194.82 286.98 197.68 284.99 200.67 C 285.60 196.35 287.05 190.73 281.80 188.82 Z" />
</g>
<g id="#2a2e33e3">
<path fill="#2a2e33" opacity="0.89" d=" M 318.22 191.21 C 321.29 188.71 317.12 183.22 322.11 183.17 C 326.42 181.39 320.40 189.08 324.79 188.00 C 325.63 188.05 327.31 188.16 328.16 188.22 C 324.83 189.19 321.34 189.64 318.22 191.21 Z" />
</g>
<g id="#23252cf9">
<path fill="#23252c" opacity="0.98" d=" M 253.56 201.44 C 255.69 195.09 262.16 191.33 265.79 185.90 C 266.51 187.92 267.60 189.91 267.41 192.13 C 264.84 193.49 261.91 195.41 263.12 198.79 C 263.09 201.63 265.93 207.54 260.90 205.32 C 254.65 208.05 261.33 216.04 258.85 221.11 C 257.21 218.93 256.33 214.50 252.86 216.75 C 248.23 216.73 250.73 224.01 247.09 223.89 C 246.52 217.56 248.11 210.99 245.15 204.81 C 248.99 205.44 255.71 210.09 253.56 201.44 Z" />
</g>
<g id="#5b606cff">
<path fill="#5b606c" opacity="1.00" d=" M 270.18 188.96 C 269.71 184.86 273.23 186.18 273.28 189.51 C 275.68 188.00 278.25 189.59 280.70 190.10 C 285.47 191.66 283.72 198.13 280.92 199.86 C 278.21 197.71 275.30 200.76 274.31 197.83 C 273.57 194.73 270.68 190.89 267.56 193.79 C 262.15 199.42 274.80 204.76 267.79 209.13 C 268.92 204.49 264.35 202.81 263.12 198.79 C 261.91 195.41 264.84 193.49 267.41 192.13 C 270.09 192.55 271.17 191.58 270.18 188.96 Z" />
</g>
<g id="#74787fff">
<path fill="#74787f" opacity="1.00" d=" M 280.70 190.10 C 280.97 189.78 281.52 189.14 281.80 188.82 C 287.05 190.73 285.60 196.35 284.99 200.67 C 284.98 204.00 283.12 207.62 285.12 210.70 C 287.31 212.87 290.16 214.93 290.99 218.00 C 289.56 220.67 289.65 225.87 285.98 226.09 C 286.12 223.63 286.66 221.21 286.90 218.76 C 285.01 220.25 285.01 223.80 282.36 224.11 C 283.67 219.34 279.72 216.75 275.86 216.94 C 276.62 220.17 280.16 221.76 281.18 224.88 C 276.46 224.43 271.38 223.21 267.71 227.04 C 261.53 225.87 270.45 219.83 270.62 216.74 C 273.09 213.31 265.24 218.16 266.31 214.76 C 265.88 211.69 270.12 212.94 271.98 211.89 C 272.76 209.27 269.37 209.74 267.79 209.13 C 274.80 204.76 262.15 199.42 267.56 193.79 C 267.78 197.08 270.08 203.84 273.31 203.38 C 274.35 201.77 274.00 199.66 274.31 197.83 C 275.30 200.76 278.21 197.71 280.92 199.86 C 283.72 198.13 285.47 191.66 280.70 190.10 Z" />
</g>
<g id="#00000049">
</g>
<g id="#676c72ff">
<path fill="#676c72" opacity="1.00" d=" M 181.06 190.13 C 185.92 191.30 183.96 199.78 189.80 201.27 C 187.30 203.30 184.21 207.87 189.10 209.01 C 194.39 211.19 196.16 198.17 199.39 203.93 C 197.22 209.22 203.89 207.75 200.09 203.68 C 202.66 199.70 197.12 200.67 197.98 196.95 C 203.10 196.77 206.41 201.40 211.10 200.41 C 211.72 202.92 211.49 205.80 213.16 207.91 C 216.01 207.53 219.41 206.22 220.97 209.54 C 217.39 209.74 215.36 213.32 220.01 213.61 C 219.20 213.81 217.57 214.21 216.75 214.41 C 215.28 213.62 213.82 212.82 212.28 212.18 C 212.60 217.71 205.52 217.18 202.92 220.88 C 200.95 224.45 197.97 224.77 199.52 220.10 C 194.59 216.65 197.77 223.37 194.44 225.43 C 195.03 218.91 186.40 224.82 190.83 228.14 C 193.48 230.49 186.14 230.71 188.11 234.57 C 193.18 235.09 188.95 241.62 191.13 245.00 C 192.72 243.60 194.21 242.10 195.83 240.72 C 196.34 242.67 196.59 244.67 196.52 246.69 C 197.58 250.08 191.17 249.63 194.44 251.61 C 197.61 253.04 191.98 255.74 195.86 257.25 C 192.99 258.97 197.89 260.89 193.05 260.03 C 189.30 258.32 190.89 253.22 187.50 251.00 C 187.51 253.38 183.47 256.93 183.03 252.94 C 182.04 249.81 189.10 249.35 187.19 246.89 C 182.62 245.36 183.84 237.32 177.98 237.84 C 179.03 240.18 182.83 242.25 181.11 245.05 C 180.36 247.58 174.84 248.77 177.33 242.79 C 174.22 240.63 171.82 236.99 167.34 238.20 C 166.07 237.83 164.82 237.43 163.58 236.99 C 164.93 236.37 167.63 235.14 168.98 234.52 C 171.23 229.77 167.06 228.54 164.36 226.58 C 165.49 222.83 162.95 220.39 160.67 217.80 C 163.45 218.11 166.25 218.28 168.99 218.89 C 165.11 223.60 168.51 230.00 173.79 230.98 C 178.34 226.30 173.95 221.84 169.81 219.07 C 176.05 222.08 172.70 216.36 169.52 214.31 C 166.66 211.47 174.92 209.59 171.99 207.10 C 168.02 207.00 170.65 202.60 168.82 200.43 C 164.93 202.17 161.76 194.75 166.09 194.00 C 171.77 192.31 168.41 201.78 173.63 202.16 C 172.17 194.16 178.66 194.88 183.33 196.76 C 180.97 194.64 174.51 192.09 181.06 190.13 M 178.20 198.14 C 176.31 200.04 177.71 203.11 180.36 201.45 C 183.96 200.23 181.39 196.38 178.20 198.14 M 180.11 211.28 C 177.81 212.55 180.24 213.99 181.85 213.53 C 184.47 214.43 183.20 217.04 182.98 219.02 C 187.92 220.57 186.89 211.47 192.95 214.82 C 194.53 210.02 187.77 211.61 185.34 213.76 C 184.65 211.53 181.95 211.82 180.11 211.28 Z" />
</g>
<g id="#56595eff">
<path fill="#56595e" opacity="1.00" d=" M 213.80 192.22 C 216.23 192.91 218.46 194.16 220.36 195.84 C 219.18 197.17 217.97 198.47 216.94 199.93 C 220.48 203.18 225.43 198.91 225.15 194.88 C 225.97 196.27 226.69 197.73 227.47 199.16 C 229.89 202.30 226.81 203.93 225.81 206.81 C 225.33 208.39 224.63 209.98 224.80 211.67 C 223.19 212.30 221.65 213.07 220.01 213.61 C 215.36 213.32 217.39 209.74 220.97 209.54 C 219.41 206.22 216.01 207.53 213.16 207.91 C 211.49 205.80 211.72 202.92 211.10 200.41 C 214.10 198.59 213.89 195.29 213.80 192.22 Z" />
</g>
<g id="#0f0f0f7e">
</g>
<g id="#9497aaff">
<path fill="#9497aa" opacity="1.00" d=" M 267.56 193.79 C 270.68 190.89 273.57 194.73 274.31 197.83 C 274.00 199.66 274.35 201.77 273.31 203.38 C 270.08 203.84 267.78 197.08 267.56 193.79 Z" />
</g>
<g id="#323439fa">
<path fill="#323439" opacity="0.98" d=" M 126.25 193.75 C 126.41 200.86 132.84 204.67 134.72 211.40 C 138.83 213.17 136.85 197.33 143.01 202.18 C 138.07 207.63 141.12 214.29 139.68 220.28 C 142.32 225.72 144.77 214.58 145.69 220.05 C 145.54 222.86 145.51 228.26 149.78 226.89 C 152.33 224.05 149.00 221.86 147.89 219.29 C 151.42 219.37 154.15 217.81 156.66 215.64 C 158.75 213.83 165.86 216.16 160.67 217.80 C 151.16 219.89 156.10 234.90 163.58 236.99 C 164.82 237.43 166.07 237.83 167.34 238.20 C 166.70 239.06 165.93 239.76 165.01 240.31 C 160.83 239.40 157.19 237.06 153.16 235.80 C 152.96 239.95 152.79 244.12 152.65 248.28 C 152.41 246.87 152.20 245.45 152.03 244.03 C 152.00 243.51 151.94 242.48 151.91 241.96 C 151.74 241.43 151.39 240.36 151.22 239.82 C 150.56 239.14 149.86 238.50 149.11 237.92 C 144.37 234.28 138.91 231.08 136.94 225.04 C 134.48 221.28 136.47 215.77 132.48 212.97 C 132.21 212.69 131.66 212.13 131.38 211.85 C 130.75 210.85 130.12 209.86 129.47 208.88 C 126.84 204.31 124.99 199.16 126.25 193.75 Z" />
</g>
<g id="#5d6475ff">
<path fill="#5d6475" opacity="1.00" d=" M 151.21 194.15 C 158.40 192.70 152.39 209.28 147.21 204.75 C 146.72 201.00 148.80 196.96 151.21 194.15 Z" />
</g>
<g id="#8a8b8eff">
<path fill="#8a8b8e" opacity="1.00" d=" M 220.36 195.84 C 221.95 195.47 223.53 195.09 225.15 194.88 C 225.43 198.91 220.48 203.18 216.94 199.93 C 217.97 198.47 219.18 197.17 220.36 195.84 Z" />
</g>
<g id="#4c515afd">
<path fill="#4c515a" opacity="1.00" d=" M 284.99 200.67 C 286.98 197.68 288.75 194.82 292.41 197.74 C 285.54 201.33 287.00 218.37 296.10 214.16 C 294.03 219.97 291.13 225.37 287.00 230.02 C 286.60 230.43 285.81 231.25 285.41 231.66 C 282.30 234.06 279.08 236.73 278.76 240.93 C 274.76 240.68 274.50 245.79 271.66 247.60 C 268.57 248.52 265.41 249.33 262.20 249.69 C 259.39 249.41 256.45 248.38 253.82 249.76 C 250.67 251.02 247.61 252.54 244.30 253.36 C 238.47 253.14 232.65 253.11 226.83 253.07 C 223.42 251.07 220.13 253.09 218.25 256.12 C 218.31 249.85 201.93 256.83 203.98 261.90 C 202.06 261.90 200.14 261.91 198.23 261.89 C 196.93 261.43 194.34 260.49 193.05 260.03 C 197.89 260.89 192.99 258.97 195.86 257.25 C 198.68 254.67 199.71 249.35 196.52 246.69 C 196.59 244.67 196.34 242.67 195.83 240.72 C 196.34 238.25 198.94 235.06 195.41 233.79 C 197.82 231.04 195.73 228.15 194.44 225.43 C 197.77 223.37 194.59 216.65 199.52 220.10 C 197.97 224.77 200.95 224.45 202.92 220.88 C 205.52 217.18 212.60 217.71 212.28 212.18 C 213.82 212.82 215.28 213.62 216.75 214.41 C 218.94 216.77 222.28 216.81 225.02 218.16 C 224.18 220.82 224.03 223.70 224.62 226.43 C 222.85 220.45 217.97 225.89 214.05 226.11 C 210.51 223.22 207.79 231.68 206.72 234.28 C 208.13 236.06 210.39 237.45 210.10 240.07 C 207.12 239.07 204.43 236.98 201.19 236.98 C 198.03 242.69 200.45 249.93 201.19 255.97 C 207.09 255.69 201.89 250.49 205.71 247.78 C 207.25 243.52 212.75 247.57 211.31 250.91 C 214.98 248.48 219.58 251.96 222.84 248.58 C 226.67 244.53 230.81 240.66 234.42 236.38 C 236.75 232.12 242.37 239.17 239.08 241.27 C 243.38 242.96 248.54 237.90 243.27 235.73 C 242.12 234.22 241.85 231.67 244.48 232.21 C 245.15 234.98 247.17 236.65 249.94 237.10 C 251.17 238.53 250.37 239.80 249.25 240.96 C 255.65 243.38 262.71 241.00 268.81 244.05 C 271.97 238.77 269.31 234.43 266.88 229.54 C 267.15 228.70 267.43 227.87 267.71 227.04 C 271.38 223.21 276.46 224.43 281.18 224.88 C 280.16 221.76 276.62 220.17 275.86 216.94 C 279.72 216.75 283.67 219.34 282.36 224.11 C 285.01 223.80 285.01 220.25 286.90 218.76 C 286.66 221.21 286.12 223.63 285.98 226.09 C 289.65 225.87 289.56 220.67 290.99 218.00 C 290.16 214.93 287.31 212.87 285.12 210.70 C 283.12 207.62 284.98 204.00 284.99 200.67 M 271.28 226.15 C 269.72 226.81 267.40 231.27 270.62 229.57 C 273.81 226.07 273.24 231.78 274.23 233.96 C 280.60 233.70 278.39 222.53 271.28 226.15 Z" />
</g>
<g id="#99a084fe">
<path fill="#99a084" opacity="1.00" d=" M 301.80 196.89 C 303.72 196.14 305.48 197.24 307.17 198.07 C 307.06 198.88 306.83 200.51 306.72 201.32 C 304.94 200.00 303.23 198.58 301.80 196.89 Z" />
</g>
<g id="#a6aaafff">
<path fill="#a6aaaf" opacity="1.00" d=" M 178.20 198.14 C 181.39 196.38 183.96 200.23 180.36 201.45 C 177.71 203.11 176.31 200.04 178.20 198.14 Z" />
</g>
<g id="#858e6afd">
<path fill="#858e6a" opacity="1.00" d=" M 292.41 197.74 C 296.49 198.67 298.43 202.25 299.01 206.11 C 298.07 208.80 297.29 211.56 296.10 214.16 C 287.00 218.37 285.54 201.33 292.41 197.74 M 295.20 204.16 C 295.10 205.14 293.39 206.65 294.65 207.34 C 296.96 209.74 298.55 202.17 295.20 204.16 Z" />
</g>
<g id="#2c2e207e">
</g>
<g id="#c3c6baff">
<path fill="#c3c6ba" opacity="1.00" d=" M 199.39 203.93 L 200.09 203.68 C 203.89 207.75 197.22 209.22 199.39 203.93 Z" />
</g>
<g id="#d0d8bfff">
<path fill="#d0d8bf" opacity="1.00" d=" M 295.20 204.16 C 298.55 202.17 296.96 209.74 294.65 207.34 C 293.39 206.65 295.10 205.14 295.20 204.16 Z" />
</g>
<g id="#5d6066ff">
<path fill="#5d6066" opacity="1.00" d=" M 232.30 205.35 C 235.45 203.68 234.59 211.33 230.99 209.01 C 228.74 209.00 230.11 204.97 232.30 205.35 Z" />
</g>
<g id="#00000056">
</g>
<g id="#161819ff">
<path fill="#161819" opacity="1.00" d=" M 225.81 206.81 C 230.26 206.19 232.06 213.94 228.89 217.06 C 227.00 220.20 232.09 222.49 230.90 225.74 C 229.55 228.01 226.68 226.53 224.62 226.43 C 224.03 223.70 224.18 220.82 225.02 218.16 C 227.31 216.17 227.14 213.55 224.80 211.67 C 224.63 209.98 225.33 208.39 225.81 206.81 Z" />
</g>
<g id="#00000016">
</g>
<g id="#5e6269ff">
<path fill="#5e6269" opacity="1.00" d=" M 267.79 209.13 C 269.37 209.74 272.76 209.27 271.98 211.89 C 270.12 212.94 265.88 211.69 266.31 214.76 C 265.24 218.16 273.09 213.31 270.62 216.74 C 270.45 219.83 261.53 225.87 267.71 227.04 C 267.43 227.87 267.15 228.70 266.88 229.54 C 265.75 234.95 260.27 236.52 255.41 236.88 C 251.72 232.29 256.56 229.00 254.93 224.26 C 259.35 221.69 265.43 232.04 261.71 224.29 C 256.85 220.16 264.10 219.28 263.03 215.02 C 257.88 204.91 268.90 214.39 267.79 209.13 Z" />
</g>
<g id="#4f525bff">
<path fill="#4f525b" opacity="1.00" d=" M 232.75 211.70 C 237.95 207.02 240.37 215.06 244.88 216.24 C 243.60 218.83 243.72 221.31 245.07 223.84 C 241.38 224.63 237.61 224.32 233.88 224.25 C 236.80 230.21 243.01 225.77 248.01 225.96 C 248.79 229.36 244.38 228.15 242.13 228.83 C 236.92 227.35 231.02 230.74 226.34 228.54 C 222.57 231.85 222.79 230.22 224.62 226.43 C 226.68 226.53 229.55 228.01 230.90 225.74 C 232.09 222.49 227.00 220.20 228.89 217.06 C 230.63 217.38 232.39 217.62 234.15 217.89 C 242.16 225.00 241.75 207.18 232.75 211.70 Z" />
</g>
<g id="#8c919aff">
<path fill="#8c919a" opacity="1.00" d=" M 180.11 211.28 C 181.95 211.82 184.65 211.53 185.34 213.76 C 187.77 211.61 194.53 210.02 192.95 214.82 C 186.89 211.47 187.92 220.57 182.98 219.02 C 183.20 217.04 184.47 214.43 181.85 213.53 C 180.24 213.99 177.81 212.55 180.11 211.28 Z" />
</g>
<g id="#00000067">
</g>
<g id="#86878cff">
<path fill="#86878c" opacity="1.00" d=" M 220.01 213.61 C 221.65 213.07 223.19 212.30 224.80 211.67 C 227.14 213.55 227.31 216.17 225.02 218.16 C 222.28 216.81 218.94 216.77 216.75 214.41 C 217.57 214.21 219.20 213.81 220.01 213.61 Z" />
</g>
<g id="#6c6e79ff">
<path fill="#6c6e79" opacity="1.00" d=" M 234.15 217.89 C 233.50 216.05 230.75 213.27 232.75 211.70 C 241.75 207.18 242.16 225.00 234.15 217.89 Z" />
</g>
<g id="#00000038">
</g>
<g id="#0000017b">
</g>
<g id="#585d49ff">
<path fill="#585d49" opacity="1.00" d=" M 163.58 236.99 C 156.10 234.90 151.16 219.89 160.67 217.80 C 162.95 220.39 165.49 222.83 164.36 226.58 C 167.06 228.54 171.23 229.77 168.98 234.52 C 167.63 235.14 164.93 236.37 163.58 236.99 Z" />
</g>
<g id="#00000028">
</g>
<g id="#9494a1ff">
<path fill="#9494a1" opacity="1.00" d=" M 168.99 218.89 L 169.81 219.07 C 173.95 221.84 178.34 226.30 173.79 230.98 C 168.51 230.00 165.11 223.60 168.99 218.89 Z" />
</g>
<g id="#7b7f88ff">
<path fill="#7b7f88" opacity="1.00" d=" M 190.83 228.14 C 186.40 224.82 195.03 218.91 194.44 225.43 C 195.73 228.15 197.82 231.04 195.41 233.79 C 198.94 235.06 196.34 238.25 195.83 240.72 C 194.21 242.10 192.72 243.60 191.13 245.00 C 188.95 241.62 193.18 235.09 188.11 234.57 C 186.14 230.71 193.48 230.49 190.83 228.14 Z" />
</g>
<g id="#6e7477ff">
<path fill="#6e7477" opacity="1.00" d=" M 214.05 226.11 C 217.97 225.89 222.85 220.45 224.62 226.43 C 222.79 230.22 222.57 231.85 226.34 228.54 C 231.02 230.74 236.92 227.35 242.13 228.83 C 240.77 231.09 238.26 238.97 243.27 235.73 C 248.54 237.90 243.38 242.96 239.08 241.27 C 242.37 239.17 236.75 232.12 234.42 236.38 C 230.81 240.66 226.67 244.53 222.84 248.58 C 219.58 251.96 214.98 248.48 211.31 250.91 C 212.75 247.57 207.25 243.52 205.71 247.78 C 201.89 250.49 207.09 255.69 201.19 255.97 C 200.45 249.93 198.03 242.69 201.19 236.98 C 204.43 236.98 207.12 239.07 210.10 240.07 C 210.39 237.45 208.13 236.06 206.72 234.28 C 210.91 233.18 212.56 233.24 213.07 238.16 C 218.09 235.93 215.20 230.05 214.05 226.11 Z" />
</g>
<g id="#40454fff">
<path fill="#40454f" opacity="1.00" d=" M 249.94 237.10 C 249.32 231.93 252.34 227.37 254.93 224.26 C 256.56 229.00 251.72 232.29 255.41 236.88 C 260.27 236.52 265.75 234.95 266.88 229.54 C 269.31 234.43 271.97 238.77 268.81 244.05 C 262.71 241.00 255.65 243.38 249.25 240.96 C 250.37 239.80 251.17 238.53 249.94 237.10 Z" />
</g>
<g id="#0000001e">
</g>
<g id="#939999ff">
<path fill="#939999" opacity="1.00" d=" M 206.72 234.28 C 207.79 231.68 210.51 223.22 214.05 226.11 C 215.20 230.05 218.09 235.93 213.07 238.16 C 212.56 233.24 210.91 233.18 206.72 234.28 Z" />
</g>
<g id="#7f8290ff">
<path fill="#7f8290" opacity="1.00" d=" M 271.28 226.15 C 278.39 222.53 280.60 233.70 274.23 233.96 C 273.24 231.78 273.81 226.07 270.62 229.57 C 267.40 231.27 269.72 226.81 271.28 226.15 Z" />
</g>
<g id="#2d2e328a">
</g>
<g id="#777b80f2">
<path fill="#777b80" opacity="0.95" d=" M 278.76 240.93 C 279.08 236.73 282.30 234.06 285.41 231.66 C 285.47 233.20 285.85 234.68 286.54 236.08 C 285.27 239.24 282.15 241.17 278.76 240.93 Z" />
</g>
<g id="#555c4afd">
<path fill="#555c4a" opacity="1.00" d=" M 153.16 235.80 C 157.19 237.06 160.83 239.40 165.01 240.31 C 166.45 241.26 167.90 242.27 168.90 243.71 C 165.55 244.77 166.06 249.19 164.94 251.94 C 169.48 255.30 170.60 260.77 174.08 264.83 C 171.95 264.38 169.81 264.52 167.75 265.19 C 162.84 264.86 159.40 261.33 156.20 257.97 C 155.24 255.61 154.17 253.31 153.02 251.04 C 152.93 250.35 152.74 248.97 152.65 248.28 C 152.79 244.12 152.96 239.95 153.16 235.80 Z" />
</g>
<g id="#434750fd">
<path fill="#434750" opacity="1.00" d=" M 167.34 238.20 C 171.82 236.99 174.22 240.63 177.33 242.79 C 174.84 248.77 180.36 247.58 181.11 245.05 C 182.83 242.25 179.03 240.18 177.98 237.84 C 183.84 237.32 182.62 245.36 187.19 246.89 C 189.10 249.35 182.04 249.81 183.03 252.94 C 183.47 256.93 187.51 253.38 187.50 251.00 C 190.89 253.22 189.30 258.32 193.05 260.03 C 194.34 260.49 196.93 261.43 198.23 261.89 C 195.98 263.77 195.76 266.05 197.87 268.14 C 195.39 267.18 192.82 265.53 190.24 267.19 C 185.75 267.17 181.27 267.20 176.78 267.17 C 173.75 266.61 170.75 265.81 167.75 265.19 C 169.81 264.52 171.95 264.38 174.08 264.83 C 175.50 264.68 180.68 266.13 178.39 263.57 C 174.74 261.16 171.43 256.03 175.03 252.19 C 169.71 254.29 172.56 245.88 168.90 243.71 C 167.90 242.27 166.45 241.26 165.01 240.31 C 165.93 239.76 166.70 239.06 167.34 238.20 Z" />
</g>
<g id="#707861ff">
<path fill="#707861" opacity="1.00" d=" M 164.94 251.94 C 166.06 249.19 165.55 244.77 168.90 243.71 C 172.56 245.88 169.71 254.29 175.03 252.19 C 171.43 256.03 174.74 261.16 178.39 263.57 C 180.68 266.13 175.50 264.68 174.08 264.83 C 170.60 260.77 169.48 255.30 164.94 251.94 Z" />
</g>
<g id="#848a91ff">
<path fill="#848a91" opacity="1.00" d=" M 196.52 246.69 C 199.71 249.35 198.68 254.67 195.86 257.25 C 191.98 255.74 197.61 253.04 194.44 251.61 C 191.17 249.63 197.58 250.08 196.52 246.69 Z" />
</g>
<g id="#1315187a">
</g>
<g id="#9193a0fd">
<path fill="#9193a0" opacity="1.00" d=" M 203.98 261.90 C 201.93 256.83 218.31 249.85 218.25 256.12 C 217.08 259.40 216.18 263.26 213.11 265.32 C 209.77 265.07 207.04 263.01 203.98 261.90 Z" />
</g>
<g id="#2c2c34d2">
<path fill="#2c2c34" opacity="0.82" d=" M 226.83 253.07 C 232.65 253.11 238.47 253.14 244.30 253.36 C 238.61 254.73 232.50 254.25 226.83 253.07 Z" />
</g>
<g id="#5a623cfb">
<path fill="#5a623c" opacity="1.00" d=" M 198.23 261.89 C 200.14 261.91 202.06 261.90 203.98 261.90 C 207.04 263.01 209.77 265.07 213.11 265.32 C 211.27 266.50 209.31 267.51 207.27 268.29 C 204.12 268.23 201.00 268.21 197.87 268.14 C 195.76 266.05 195.98 263.77 198.23 261.89 Z" />
</g>
<g id="#171a1faa">
<path fill="#171a1f" opacity="0.67" d=" M 176.78 267.17 C 181.27 267.20 185.75 267.17 190.24 267.19 C 185.98 269.01 181.16 267.81 176.78 267.17 Z" />
</g>
<g id="#2529159f">
<path fill="#252915" opacity="0.62" d=" M 197.87 268.14 C 201.00 268.21 204.12 268.23 207.27 268.29 C 204.28 269.65 200.90 268.92 197.87 268.14 Z" />
</g>
</svg>



