<svg xmlns="http://www.w3.org/2000/svg" width="512" height="512" viewBox="0 0 384 384" xmlns:v="https://vecta.io/nano"><path fill="#494e57" d="M173.65 23.43c4.68 2.24 5.59-6.56 10.89-3.12 1.84.99 4.03 5.29 5.33 1.58 2.71-4.7 7.2-.15 8.28 3.35.92 1.59 3.13.87 4.57.62.71 2.23 3.99 7.34 6.09 3.87 1.56-4.02-3.5-3.97-6.09-3.87l.14-.68c11.18-3.55 13.46 9.81 6.96 15.73 5.62 1.03 13.92-4.01 18.02 1.38 1.37 5.95-6.22 7.98-10.66 8.92l-2.27-.04c.25-3.93 4.35-4.03 7.16-5.31.14-3.92-3.03-2.37-5.15-1.09-2.56-1.05-4.84-2.78-7.66-3.1-.28-4.35-5.18-10.68-9.46-6.89-1.07 5.1-2.5 1.71-2.44-1.59-1.92-1.26-3.93-2.43-5.3-4.34-1.78-2.89-9.02.28-5.85 3.28-4.59 2.04-9.61 2.6-14.37 4.06 1.85 3.43 9.81 1.55 9.34 5.8-4.25 2.59.66 7.01 4.24 5.99-1.02 3.57-7.05 8.24-2.76 11.6-2.65 3.96-3.14-4.63-7.21-2.37l-1.38-2.59c-4.35-5.18-11.05 3.35-3.93 5.85-8.26-3.06-7.15 8.75-1.45 10.88 4.71 4.08-7.23 3.81-4.19 9.04.49 5.18 5.61 5.12 8.75 2.16 2.86-2.92 8.13-9.38 3.81-12.97 2.42-1.71 1.31-3.76-.17-5.72 1.96.2 2.94 2.01 4.27 3.22 2.41-2.04 4.65-4.28 6.88-6.5.43 3.09 1.36 5.29 4.31 2.7-2.59 7.48-12.88 11.23-10.09 20.4-1.2 8.6 7.27 14.12 14.9 13.83-5.59 1.42-9.2 6.72-14.69 8.07-4.27-7.29-8.24 3.45-13.38 4.27l-1.55 2.45c-3.24-1.01-.06-4.23 1.09-5.75 10.34 2.04-.82-9.94-3.9-4.88-1.53 2.88-.48 6.65-2.65 9.36-3.61 4.69 3.93 6.87 4.34 11.45 7.56.2 2.37 6.41-2.22 3.59-.07-4.6-4.48-5.13-6.14-1.05.07-3.36 2.29-7.77.18-10.4-5.31-2.33-11.02.16-14.18 4.54 1.99-6.95-3.52-13.62-8.6-17.9-2.39-5.19.07-9.83 5.26-10.45 2.71 2.13 9.8-2.24 8.18 2.91-3.66-1.94-7.65 2.48-7.15 5.41-5.33 5.75 4.2 7.47 7.76 3.72-.34 2.3-.61 4.83 2.39 5.06 2.36-2.98 5.06-5.81 6.55-9.37 3.68-3.71-.99-5.18-4.5-4.69-2.86-2.21-1.08-4.07 1.18-5.83-3.91-.91-9.74-.62-10.31-5.78 11.62 3.01 2.86-10.67 4.95-15.43 4.86.67 8.74-2.33 10.27-6.62-3.41-2.57-6.5 2.49-9.29-1-4.43-1.47-.31 6.29-4.26 3.2-3.76-2.95-5.21 3.2-6.75 5.63-2.49-.42-3.35-3.39-5.58-4.42l-.36-1.76c4.68-2.68 8.9-5.95 11.36-10.9a7.03 7.03 0 0 0 1.19-2.88c4.56 1.75 9.08-3.44 12.82-5.86 3.77-4.08-4.91-1.81-7.43-2.49 6.05-.64 13.09-2.14 15.65-8.39-1.19-3.82 1.62-9.86 6.26-7.89m3.57 26.69c-2.75 1.27-.19 5.29 2.15 3.33 3.58-.59.33-4.84-2.15-3.33z"/><path fill="#79848d" d="M202.72 25.86c2.59-.1 7.65-.15 6.09 3.87-2.1 3.47-5.38-1.64-6.09-3.87z"/><path fill="#6c6f74" d="M186.21 32.13c-3.17-3 4.07-6.17 5.85-3.28 1.37 1.91 3.38 3.08 5.3 4.34-.06 3.3 1.37 6.69 2.44 1.59-2.53 7.95 4.36 9.16 9.46 6.89 2.82.32 5.1 2.05 7.66 3.1 2.12-1.28 5.29-2.83 5.15 1.09-2.81 1.28-6.91 1.38-7.16 5.31-3.05 0-5.63.95-7.31 3.61-4.26-1.01-11.74-2.66-11.65 4.08l-.64.59-2.28-2.8c4.01-1.33 3.75-8.83-1.17-5.88-3.83-.66-7.62 8.44-2.66 6.4-.42 1.12-.78 2.27-1.16 3.41-2.23 2.22-4.47 4.46-6.88 6.5-1.33-1.21-2.31-3.02-4.27-3.22 1.48 1.96 2.59 4.01.17 5.72-2.98.24-3.61 3.43-5.88 4.75 1.84-4.14 4.82-11.62-1.04-13.86-7.12-2.5-.42-11.03 3.93-5.85-7.04-.31-2.54 7.77 1.38 2.59 4.07-2.26 4.56 6.33 7.21 2.37-4.29-3.36 1.74-8.03 2.76-11.6 2.34-.38 6.07-.01 6.82-2.87 1.81 2.99 9.35 5.74 5.83-2.12.96-3.47-2.8-4.29-5.2-5.38.27-3.62-3.3-5.91-6.66-5.48z"/><path fill="#595d6a" d="M186.21 32.13c3.36-.43 6.93 1.86 6.66 5.48-4.71 1.33-4.04 5.03-.63 7.5-.75 2.86-4.48 2.49-6.82 2.87-3.58 1.02-8.49-3.4-4.24-5.99.47-4.25-7.49-2.37-9.34-5.8 4.76-1.46 9.78-2.02 14.37-4.06z"/><path fill="#91988b" d="M199.8 34.78c4.28-3.79 9.18 2.54 9.46 6.89-5.1 2.27-11.99 1.06-9.46-6.89z"/><path fill="#8b8f96" d="M192.24 45.11c-3.41-2.47-4.08-6.17.63-7.5 2.4 1.09 6.16 1.91 5.2 5.38 3.52 7.86-4.02 5.11-5.83 2.12z"/><path fill="#656b83" d="M145.41 44.76c1.41-2.41 3.58-4.34 6.33-5.05 2.52.68 11.2-1.59 7.43 2.49-3.74 2.42-8.26 7.61-12.82 5.86l-.94-3.3z"/><path fill="#27262a" opacity=".6" d="M144.99 45.05l.42-.29.94 3.3a7.03 7.03 0 0 1-1.19 2.88c-.35-1.94-.51-3.93-.17-5.89z"/><path fill="#6e7278" d="M177.22 50.12c2.48-1.51 5.73 2.74 2.15 3.33-2.34 1.96-4.9-2.06-2.15-3.33z"/><path fill="#9aa09d" d="M191.86 50.77c4.92-2.95 5.18 4.55 1.17 5.88a11.55 11.55 0 0 0-3.83.52c-4.96 2.04-1.17-7.06 2.66-6.4z"/><path fill="#313034" opacity=".94" d="M207.6 54.78c1.68-2.66 4.26-3.61 7.31-3.61l2.27.04c-4.14 2.72-8.61 4.84-13.12 6.85-2.57-.65-4.98-.5-7.23.46l-.88.34c-.09-6.74 7.39-5.09 11.65-4.08z"/><path fill="#929697" d="M175.45 57.21c-3.92 5.18-8.42-2.9-1.38-2.59l1.38 2.59z"/><path fill="#6f7442" d="M189.2 57.17a11.55 11.55 0 0 1 3.83-.52l2.28 2.8-2.96 3.83c-2.95 2.59-3.88.39-4.31-2.7l1.16-3.41z"/><path fill="#3b3f47" d="M146.49 62.39c3.95 3.09-.17-4.67 4.26-3.2 2.79 3.49 5.88-1.57 9.29 1-1.53 4.29-5.41 7.29-10.27 6.62-2.09 4.76 6.67 18.44-4.95 15.43.57 5.16 6.4 4.87 10.31 5.78-2.26 1.76-4.04 3.62-1.18 5.83-2.48 3.58 1.87 3.9 4.5 4.69-1.49 3.56-4.19 6.39-6.55 9.37-3-.23-2.73-2.76-2.39-5.06 1.86-4.97-4.4-3.86-7.76-3.72-.5-2.93 3.49-7.35 7.15-5.41 1.62-5.15-5.47-.78-8.18-2.91-5.19.62-7.65 5.26-5.26 10.45 5.08 4.28 10.59 10.95 8.6 17.9-.71 6.04 8.8 12.37 13.08 7l.92-1.14c1.66-4.08 6.07-3.55 6.14 1.05l-2.11 1.31c-3.81 1.88-5.71 5.07-5.78 9.37-2.91 1.7-8.16 7.5-3.62 9.63 1.64.97 3.07-.72 4.57-1.21.11 3.09-3.24 3.55-5.21 5.08-.34 3.45 4.06 3.22 6.04 4.71 2.44 3.25 6.82 7.02 3.19 11.04 3.53 4.85 9.36 4.16 14.51 4.85l1.35 1.48c-2.73 4.35-11.38 3.34-14.03 8.55 5.17 2.21 12.15-.63 17.82 1.04l.24.82c-2.66 4.04-8.5-.09-12.35 2.82-4.89 1.1-1.03 7.5 2.42 7.99-.03 3.11-2.98 3.44-5.37 4.08l-2.21 1.19c-1.09 1.96-1.75 4.13-2.83 6.1-4.66.18-7.24-2.53-8.01-6.89-5.23-.71-3.55 8.13-4.76 11.07.09 3.39 7.36-3.6 6.53.34-3.45 8.74 1.8 3.43 3.57 1.5 1.86 1.68 2.41 4.26 3.46 6.45 1.33.95 4.18 1.38 2.5 3.44l-.96-.1a6.48 6.48 0 0 0-2.24.03c-6.32 2.76-2.28 14.17 2.88 17.21 4.94.36 9.86 1.25 13.61 4.71-2.33 8.23 5.62 3.18 4.02-.08-.99-2.68-3.89-3.58-6.03-5.07-1.26-3.72 4.23.37 5.55 1.53 2.06 3.86 8.21 9.88 1.27 12.19-.08 6.07 6.12-2.3 6.8 2.84.31 1.84-1.34 3.14-2.09 4.66 2.76-.66 5.35.42 7.93 1.26a99.66 99.66 0 0 1 2.25 1.83c-.41 1.7-.53 3.45-.3 5.19-9.49.57-18.85-.67-28.08-2.72l5.38-.31c12.7 1.52.28-2.23-.09-7.09-.82-2.01 4.08-5.23.26-5.29-3.73.93-1.75-3.82-2.96-6.06-1.49-5.37-8.89-3.61-11.22-7.31-1.96-3.46-3.84-10.14-9.01-8.61-4.44-2.29-8.05-6.43-12.2-9.44l-.51-.44-.18-.88c-.09-3.74-2.97-6.34-5.3-8.94-4.5-8-7.81-19.06-.47-26.55 2.91-2.42-.73-3.55-2.64-4.88 7.34-2.98 1.45-22.29-4.98-12.4 1.52-5.67 3.39-10.95 2.29-17.01.35-2.77.69-5.53.84-8.32.61-4.09-2.87-7.04-4.23-10.59.12-4.48.09-8.95.08-13.42 1.65-5.02 5.77-8.78 7.4-13.78.32-10.69 7.29-20.4 2.84-31.17l-.29-1.58.42-6.64c2.23 1.03 3.09 4 5.58 4.42 1.54-2.43 2.99-8.58 6.75-5.63m-14.25 53.74c-1.2 3.09-3.35 6.66-.99 9.76 8.06 4.07 8.6-12.54.99-9.76m11.15 16.3c-5.51 1.63-6.92 7.66-10.12 11.85-1.95 4.56 4.07 7.07 4.02 11.49 4.86 1.53 2.69-3.89 6.04-5.33 3.66-.38 2.71-4.93 4.87-7.18-6.21 3.13-6.23-6.44-1.13-7.23 2.97-1.87-1.2-5.77-3.68-3.6m3.88 25.76c-2.9 2.42 2.61 7 5.77 6.02.36 2.5-2.96 3.34-2.88 5.52 4.07 1.64 3.42 8.56 9.85 5.27 3.38-4.82-7.49-9.68-.09-12.24-.58-5.44-8.68-5.31-12.65-4.57m-4.91 35.05c-1.12 2.11-3.29 4.08-3.24 6.54 3.66 5.23 8.97-7.33 3.24-6.54z"/><path fill="#535766" d="M168.69 71.35c-5.7-2.13-6.81-13.94 1.45-10.88 5.86 2.24 2.88 9.72 1.04 13.86 2.27-1.32 2.9-4.51 5.88-4.75-.94 3.06-2.57 6.04-2.34 9.33-1.24-.97-2.4-2.03-3.69-2.93-2.45 2.49.03 5.12 2.22 6.57-3.14 2.96-8.26 3.02-8.75-2.16-3.04-5.23 8.9-4.96 4.19-9.04z"/><path fill="#22252a" opacity=".65" d="M133.74 70.24c-.54-2.55-2.21-6.35.06-8.4l.36 1.76-.42 6.64z"/><path fill="#2f3035" d="M177.06 69.58c4.32 3.59-.95 10.05-3.81 12.97-2.19-1.45-4.67-4.08-2.22-6.57 1.29.9 2.45 1.96 3.69 2.93-.23-3.29 1.4-6.27 2.34-9.33z"/><path fill="#72768a" d="M153.95 93.85c3.51-.49 8.18.98 4.5 4.69-2.63-.79-6.98-1.11-4.5-4.69z"/><path fill="#61666e" d="M182.47 105.58c5.49-1.35 9.1-6.65 14.69-8.07 1.64.6 2.86 1.91 4.02 3.17-8.41-.26-9.29 13.54-1.35 14.86 1.19.96 2.33 2.92 3.91 1.4-.07 1.67-.37 3.9 1.28 4.95 11.8 8.82 24.34 19.74 27.12 34.95l-.14 3.17c-1.52-.03-3.49 1.12-4.61-.4-1.66-2.75-9.45.51-6.34-3.69 5.4 3.75 2.71-6.55-1.36-6.61-2.63-1.35-2.52 2.16-1.81 3.72-2.25-1.79-3.73-5.81-7.22-4.52-4.2 1.56-3.5-7.11-6.93-4.54-.73-2.76-2.19-5.2-3.92-7.45 3.67-.47 1.93-4.83 2.2-7.51-5.9-3.04-5.15 2.84-6.1 5.83l-1.61-.83c-.45-5.59-7.39-11.52-12.05-7.04-1.56-2.77-3.54-5.43-3.61-8.81-5.54-1.79-.17 5.12-1.15 7.99-4.36-5.9-3.53 3.79-7.05 5.36.19 4.4 4.47 2.62 7.26 3.53 6.72-1.57 3.34 7.13 8.86 6.35 1.51.32 3.05.53 4.59.67-4.75 1.41-2.18 5.3-.22 8.09-5.45 1.62-5.57-6.96-10.97-5.16-.73 2.69 2.09 4.3 2.03 6.81-2.19 1.27-5.26-.33-6.52 2.7-1.52-1.41-2.64-5.88-4.7-2.59-8.19 1.78 2.57-10.08-4.9-9.25-5.1.42-3.47-4.48-.12-6.05-1.61-2.53-1.1-4.73 1.01-6.77.55-3.41-5.19.66-4.67-2.46l2.11-1.31c4.59 2.82 9.78-3.39 2.22-3.59-.41-4.58-7.95-6.76-4.34-11.45 2.17-2.71 1.12-6.48 2.65-9.36 3.08-5.06 14.24 6.92 3.9 4.88-1.15 1.52-4.33 4.74-1.09 5.75.08 3.03 1.78 5.99 5.22 4.59 3.35-2.51.09-7.6-3.67-7.04 5.14-.82 9.11-11.56 13.38-4.27m2.88 1.77c-2.47 1.39-6.79 4.3-1.18 3.88-1.86 1.98-6.37 2.26-3.09 5.68 3.37-4.01 5.95.35 6.14 4.02 4.94-2.43 2.45-13.48-1.87-13.58m23.84 24.8c-2.31 2.23.44 12.05 2.76 6.9-3.22-1.71 1.25-7.83-2.76-6.9z"/><path fill="#6b7186" d="M141.75 99.13c3.36-.14 9.62-1.25 7.76 3.72-3.56 3.75-13.09 2.03-7.76-3.72z"/><path fill="#8f92a0" d="M199.83 115.54c-7.94-1.32-7.06-15.12 1.35-14.86 1.66 1.81 2.87 3.98 4.01 6.15l-.04 8.35-1.41 1.76c-1.58 1.52-2.72-.44-3.91-1.4 7.14-3.23-5.88-5.84 0 0z"/><path fill="#7a7e81" d="M185.35 107.35c4.32.1 6.81 11.15 1.87 13.58-.19-3.67-2.77-8.03-6.14-4.02-3.28-3.42 1.23-3.7 3.09-5.68-5.61.42-1.29-2.49 1.18-3.88z"/><path fill="#8d91a1" d="M169.09 109.85c3.76-.56 7.02 4.53 3.67 7.04-3.44 1.4-5.14-1.56-5.22-4.59l1.55-2.45z"/><path fill="#e5e8ed" d="M199.83 115.54c7.14-3.23-5.88-5.84 0 0z"/><path fill="#676c83" d="M144.06 119.16c3.16-4.38 8.87-6.87 14.18-4.54-11.25-5.79-11.15 16.69-1.1 11.54-4.28 5.37-13.79-.96-13.08-7z"/><path fill="#949aa4" d="M157.14 126.16c-10.05 5.15-10.15-17.33 1.1-11.54 2.11 2.63-.11 7.04-.18 10.4l-.92 1.14z"/><path fill="#343337" opacity=".66" d="M203.74 116.94l1.41-1.76-.13 6.71c-1.65-1.05-1.35-3.28-1.28-4.95z"/><path fill="#585d74" d="M132.24 116.13c7.61-2.78 7.07 13.83-.99 9.76-2.36-3.1-.21-6.67.99-9.76z"/><path fill="#7a7f8f" d="M177.49 126.15c.98-2.87-4.39-9.78 1.15-7.99.07 3.38 2.05 6.04 3.61 8.81-3.62 2.27-5.21 2-4.76-.82z"/><path fill="#454c52" d="M170.44 131.51c3.52-1.57 2.69-11.26 7.05-5.36-.45 2.82 1.14 3.09 4.76.82 4.66-4.48 11.6 1.45 12.05 7.04-3.35 1.57-5.88 4.22-7.74 7.38-5.52.78-2.14-7.92-8.86-6.35-2.79-.91-7.07.87-7.26-3.53z"/><path fill="#343944" opacity=".97" d="M271.97 125.75c3.8-1.96 8.14.47 9.56 4.24-7.22.75-5.47 9.34-10.23 13.27-3.86 3.33-9.46-.24-13.88 1.02-.87 2.31-2.32 4.96-4.98 2.7 4.89-8.73 14.43-12.64 19.53-21.23z"/><path fill="#474e5b" d="M156.31 136.75c.07-4.3 1.97-7.49 5.78-9.37-.52 3.12 5.22-.95 4.67 2.46-2.11 2.04-2.62 4.24-1.01 6.77-3.35 1.57-4.98 6.47.12 6.05 7.47-.83-3.29 11.03 4.9 9.25 2.06-3.29 3.18 1.18 4.7 2.59.97 2.67 2.99 2.63 4.75.66-.86 5.4-2.73 10.53-4.43 15.69-5.15-.69-10.98 0-14.51-4.85 3.63-4.02-.75-7.79-3.19-11.04-1.98-1.49-6.38-1.26-6.04-4.71 1.97-1.53 5.32-1.99 5.21-5.08-1.5.49-2.93 2.18-4.57 1.21 4.17-1.38 9.02-6.37 3.62-9.63m14.98 22.51c-3.31.98-5.71 4.25-2.57 7.03 6.03 6.51 9.56-9.66 2.57-7.03z"/><path fill="#3a3e4a" d="M282.13 131.03c1.48-1.24 2.91-2.63 4.76-3.31-1.88 2.77.35 4.89 1.79 7.16-1.4 4.66-2.63 10-6.93 12.9-3.26 1.56.61 6.32 3.38 4.44-4.37 3.63-3.75 9.92-6.15 14.65 1.77-6.7-6.55-5.31-9.15-1.45 1.38-5.13 3.64-10.26 9.2-11.66-.94-2.89-6.35-3.5-4.96-7.6 3.28-4.73 4.82-10.39 8.06-15.13z"/><path fill="#666b72" d="M286.89 127.72c4.45-.07 7.74 4.64 7.09 8.88-4 4.59-4.76 11.15-8.85 15.62-2.77 1.88-6.64-2.88-3.38-4.44 4.3-2.9 5.53-8.24 6.93-12.9-1.44-2.27-3.67-4.39-1.79-7.16z"/><path fill="#858b7a" d="M195.91 134.84c.95-2.99.2-8.87 6.1-5.83-.27 2.68 1.47 7.04-2.2 7.51l-3.9-1.68z"/><path fill="#21242d" d="M281.53 129.99l.6 1.04c-3.24 4.74-4.78 10.4-8.06 15.13-1.39 4.1 4.02 4.71 4.96 7.6-5.56 1.4-7.82 6.53-9.2 11.66-1.88.19-3.9.48-5.67-.36 2.74-4.41 2.59-9.4.56-14.07-5.42 3.06-12.61 7.72-8.38 14.66 1.34 2.72 3.9 3.6 6.69 2.56-.57 3.02-1.95 5.8-3.02 8.66.88 1.28 4.91 3.83 1.07 3-8.02.96-6.19-8.64-10.99-11.96-2.97-2.36-6.34-5.96-10.48-4.37-2.98 1.34-.96-2.1-.71-3.56 5.55 1.34 9.45.6 8.05-5.11 1.43-2.89 3.66-5.26 5.49-7.89 2.66 2.26 4.11-.39 4.98-2.7 4.42-1.26 10.02 2.31 13.88-1.02 4.76-3.93 3.01-12.52 10.23-13.27z"/><path fill="#4a4c58" d="M143.39 132.43c2.48-2.17 6.65 1.73 3.68 3.6-5.1.79-5.08 10.36 1.13 7.23-2.16 2.25-1.21 6.8-4.87 7.18-3.35 1.44-1.18 6.86-6.04 5.33.05-4.42-5.97-6.93-4.02-11.49 3.2-4.19 4.61-10.22 10.12-11.85z"/><path fill="#868a97" d="M209.19 132.15c4.01-.93-.46 5.19 2.76 6.9-2.32 5.15-5.07-4.67-2.76-6.9z"/><path fill="#6f7943" d="M194.3 134.01l1.61.83c1.26.64 2.58 1.16 3.9 1.68 1.73 2.25 3.19 4.69 3.92 7.45.11 1.73.35 3.53-.19 5.22-.04-2.12-1.82-1.59-3.27-1.46-.84-1.48-1.82-2.92-3.2-3.94-.9-.77-1.94-1.4-3.07-1.73h-2.85c-1.54-.14-3.08-.35-4.59-.67 1.86-3.16 4.39-5.81 7.74-7.38z"/><path fill="#626675" d="M156.31 136.75c5.4 3.26.55 8.25-3.62 9.63-4.54-2.13.71-7.93 3.62-9.63z"/><path fill="#262a31" d="M285.13 152.22c4.09-4.47 4.85-11.03 8.85-15.62 1.74.28 3.52.46 5.22 1.01-1.29.9-3.16 1.5-3.12 3.39-3.86 7.52-1.96 16.7-7.48 23.56-2.99 2.82-5.94 5.71-8.52 8.92-2.56 1.46-1.34 4.2-1.17 6.52-4.7 1.4-3.59-4.88-3.26-7.89 1.13-1.74 2.28-3.45 3.33-5.24 2.4-4.73 1.78-11.02 6.15-14.65z"/><path fill="#60656a" opacity=".98" d="M296.08 141c-.04-1.89 1.83-2.49 3.12-3.39a19.25 19.25 0 0 1 5.82 3.48c.12 2.33-.3 4.63-1.32 6.73-1.74 3.35-3.27 6.8-4.89 10.21l-.84.17c-2.75 1.34-3.66-.58-3.62-3.13 1.78-4.6 5.54-8.06 7.75-12.41-2.03-.45-4.04-1.03-6.02-1.66z"/><path fill="#464c57" d="M296.08 141l6.02 1.66c-2.21 4.35-5.97 7.81-7.75 12.41-.04 2.55.87 4.47 3.62 3.13l-5.66 14.02c1.02-3.84-2.39-5.85-5.13-3.05-4.03 2.74-2.75 9.86 1.81 11.28-5.41 2.99-10.19-1.61-8.91-6.97 2.58-3.21 5.53-6.1 8.52-8.92 5.52-6.86 3.62-16.04 7.48-23.56z"/><path fill="#6b7178" d="M191.15 142.06H194c-4.23 3.17.82 12.26 6.15 11.3-3.13 2.1-9.21 1.07-7.72 7.18-1.31 5.19 2.89.45 3.07-2.14 3.64-1.68 12.43-5.25 12.81 1.31l-6.39.83c-4.5-2.37-7.66 6.73-1.79 5.86-.47 1.89-.91 3.79-1.19 5.72 2.16-1.44 3.56-7.48 6.5-4.85 1.74-1.08 6.49-2.1 5.16 1.29-5.97 4.31-4.93 13.92.24 18.56 1.62 3.09 8.68 1.07 6.38 5.81-6.63-3.73-7.26 3.61-6.13 8.1 1.27-.22 2.13-1.17 3.01-2.02l.29 8.01c2.68-.26 5.36-1 8.06-.43-2.42 2.62-4.09 8.14-8.22 4.69.53 4.16-3.67 5.3-6.58 6.92-.5-1.91.61-3.65 1.14-5.42-5.56-.82-4.35 9.49-10.17 6.73-6.59-1.62 2.6-3.52 2.26-7.26-5.71 1.32-2.06-8.14-7.04-3.33-1.34-4.41 4.9-4.75 4.12-8.7-2.3-1.82-5.58-2.06-7.58-4.29.5-2.33 1.1-4.66 1.01-7.06.88 2.82 5.49 4.89 2.96 7.89 4.54-.49 5.27 5.75 9.62 5.34-.83-4.76-2.85-8.7-6.3-11.8 3.92.26 12.38 4.68 10.28-2.42-2.09.23-3.99 1.18-5.94 1.91.34-2.8-.37-7.13 3.75-7.05-1.56-1.61-3.03-3.3-4.69-4.8-1.59 2.44-2.04 5.42-2.45 8.26-2.51-1.54-4.74-3.59-7.09-5.35.06-4.72 1.43-10.03-4.15-12.03 1.19-2.17 2.4-4.37-1.25-4.1 1.93-2.87 2.63-6.88-2.05-6.85-2.44 3.63 1.41 9.38-1.51 12.36-2.16-8.81-.72 5.2-5.43 2.1l-1.35-1.48c1.7-5.16 3.57-10.29 4.43-15.69-1.76 1.97-3.78 2.01-4.75-.66 1.26-3.03 4.33-1.43 6.52-2.7.06-2.51-2.76-4.12-2.03-6.81 5.4-1.8 5.52 6.78 10.97 5.16-1.96-2.79-4.53-6.68.22-8.09m-10.12 11.88c.18 1.56-1.06 5.23 1.76 3.88 2.5-1.18.62-4.46-1.76-3.88z"/><path fill="#919a88" d="M194 142.06c1.13.33 2.17.96 3.07 1.73-.23 2.03.5 5.05 3.2 3.94 1.45-.13 3.23-.66 3.27 1.46-.75 1.65-1.97 3.05-3.39 4.17-5.33.96-10.38-8.13-6.15-11.3z"/><path fill="#393d49" d="M203.73 143.97c3.43-2.57 2.73 6.1 6.93 4.54 3.49-1.29 4.97 2.73 7.22 4.52l3.17 2.89c-3.11 4.2 4.68.94 6.34 3.69 1.12 1.52 3.09.37 4.61.4l6.9-.03c-.25 1.46-2.27 4.9.71 3.56 4.14-1.59 7.51 2.01 10.48 4.37 4.8 3.32 2.97 12.92 10.99 11.96-5.47-1.3-6.01 4.64-7.31 8.3-.72-1.03-1.42-2.08-2.06-3.15 3.16-3.74 2.33-6.33-2.52-4 3.52-6.75-3.57-19.14-11.18-13.05-3.82-.05-6.97-4.16-10.66-1.64 2.65 7.46-2.43 4.84-3.56 2.37-2.05-4.33-8.08 8.06-6.52-3.67l-2.19-1.24c-2.37-1.17-4.58-2.61-6.77-4.08-.38-6.56-9.17-2.99-12.81-1.31-.18 2.59-4.38 7.33-3.07 2.14-1.49-6.11 4.59-5.08 7.72-7.18 1.42-1.12 2.64-2.52 3.39-4.17.54-1.69.3-3.49.19-5.22z"/><path fill="#d4d9c3" d="M197.07 143.79c1.38 1.02 2.36 2.46 3.2 3.94-2.7 1.11-3.43-1.91-3.2-3.94z"/><path fill="#373b46" opacity=".98" d="M304.9 148.86l6.29-.32c-4.73-.19-3.25 3.57.72 2.59a39.47 39.47 0 0 0-5.74 10.65c1.3 2.35 3.79 2.4 6.08 1.59-1.38 3.09-3.42 5.84-4.97 8.84 1.47-10.5-10.64-1.7-10.09 4.45l-3 3.64c-.39-11.22 12.88-16.65 9.52-28.61l1.19-2.83z"/><path fill="#7f8190" d="M217.88 153.03c-.71-1.56-.82-5.07 1.81-3.72 4.07.06 6.76 10.36 1.36 6.61l-3.17-2.89z"/><path fill="#5f636a" opacity=".97" d="M311.91 151.13c-3.97.98-5.45-2.78-.72-2.59 7.9 1.83 2.68 10.03 1.06 14.83-2.29.81-4.78.76-6.08-1.59a39.47 39.47 0 0 1 5.74-10.65z"/><path fill="#393e4a" d="M256.34 165.65c-4.23-6.94 2.96-11.6 8.38-14.66 2.03 4.67 2.18 9.66-.56 14.07 1.77.84 3.79.55 5.67.36 1.35 2.59 2.15 6.91 5.82 6.69-.33 3.01-1.44 9.29 3.26 7.89-.17-2.32-1.39-5.06 1.17-6.52-1.28 5.36 3.5 9.96 8.91 6.97a43.12 43.12 0 0 0 1.93-2.72l1.41 4.38c-4.98 2.92-.01 9.27.84 13.53l-3.39 1.16c-5.99.09-2.21 4.19.03 6.88a17.24 17.24 0 0 0-5.88 2.56c-.74-1.07-.29-5.05-2.18-3.39-4.45 3.84-1.6-8.92.6-4.13 1.55-1.68 3.51-2.7 5.68-3.35 3.43-3.11-1.75-8.46-5.33-5.43-4.67-3.36-.84 5.09-4.85 5.98-2.47 2.16-4.93-1.67-7.75-1.14 3.89 3.67-.38 11.08 7.88 10.22l-2-.07c-8.43 2.59.26 12.74 3.4 17.09-3.28 1.63-6.85 1.12-8.48-2.26-1.34-1.75-4.6-2.93-4.29-5.39 4.19-7.01-9.19-2.07-9.49 2.02-1.74-2.55-4.3-9.04-7.93-5.2-4.79 4.44 1.55 9.24 5.6 11.04 2.38.58 1.94 2.69 1.65 4.59 2.89-1.97 5.35 2.76 1.74 3.39-3.77.13-1.79 4.98 1.18 3.26 5.03-1.85.66 3.12-.26 5.29 1.99-.61 3.31.4 4.29 2.07 2.35-.24 3.97-2.32 5.85-3.57 1.97-.56 4.01-1.33 6.08-.7-1.3 1.42-2.41 3.27-4.47 3.64-6.72-.66.18 6.59 3.13 7.33 2.97-.67 8.35.17 3.93 3.17-4.66-3.43-8.48 2.85-13.6.64-5.48-2.4-12.76 5.72-4.05 5.05l-2.07.77a453.28 453.28 0 0 0-22.43.08c-5.15-2.07-11.04-3.13-15.63.77.48-3.07-.61-4.79-3.82-3.9l-.37-1.99 5-.21c4.25 1.38 9.19.74 12.99-1.39-1.73-1.16-3.49-2.26-5.11-3.55 3.43-1.42 9.86 6.55 6.64-2.5-.36-4.86 7.5-4.54 7.62.46 2.47 5.88 8.33-1.06 2.69-2.93.66-7.11 3.67-1.59 6.07 1.13 8.59-4.66 1.33-10.68 2.43-17.27.48-3.28-2.8-2.94-5.06-3.41-2.04-3.61-5.32-8.83-.87-12.08 3.4-5.29 12.83-7.53 9.71-15.09 5.81.82 4.17-4.61-.25-5.21 2.76.08 5.48.54 8.22.86 1.52-4.74-1.59-8.46-4.94-11.06 3.84.83-.19-1.72-1.07-3 1.07-2.86 2.45-5.64 3.02-8.66-2.79 1.04-5.35.16-6.69-2.56z"/><path fill="#1e2127" d="M298.81 158.03c1.44 4.88 3.28-4.51 4.9-6.34 3.36 11.96-9.91 17.39-9.52 28.61-.54.69-1.16 1.29-1.86 1.81-.44-1.48-.93-2.93-1.41-4.38.39-1.85.89-3.68 1.39-5.51 1.96-4.64 3.79-9.34 5.66-14.02l.84-.17z"/><path fill="#9fa5af" d="M181.03 153.94c2.38-.58 4.26 2.7 1.76 3.88-2.82 1.35-1.58-2.32-1.76-3.88z"/><path fill="#505461" d="M147.27 158.19c3.97-.74 12.07-.87 12.65 4.57-7.4 2.56 3.47 7.42.09 12.24-6.43 3.29-5.78-3.63-9.85-5.27-.08-2.18 3.24-3.02 2.88-5.52-3.16.98-8.67-3.6-5.77-6.02z"/><path fill="#7d8488" d="M184.08 157.87c4.68-.03 3.98 3.98 2.05 6.85 3.65-.27 2.44 1.93 1.25 4.1 5.58 2 4.21 7.31 4.15 12.03 2.35 1.76 4.58 3.81 7.09 5.35.41-2.84.86-5.82 2.45-8.26 1.66 1.5 3.13 3.19 4.69 4.8-4.12-.08-3.41 4.25-3.75 7.05 1.95-.73 3.85-1.68 5.94-1.91 2.1 7.1-6.36 2.68-10.28 2.42 3.45 3.1 5.47 7.04 6.3 11.8-4.35.41-5.08-5.83-9.62-5.34 2.53-3-2.08-5.07-2.96-7.89.09 2.4-.51 4.73-1.01 7.06 2 2.23 5.28 2.47 7.58 4.29.78 3.95-5.46 4.29-4.12 8.7-13.53 6.65 2.29-7.92-5.77-6.99-1.23-1.5-2.42-3.04-3.83-4.37-1.34-4.49 1.33.54 3.64-1.74-.19-2.56-3.02-4.2-4.14-6.48-.97-2.16-1.79-4.37-2.57-6.6l-.24-.82c.57-3.9 1.6-7.74 1.64-11.69 2.92-2.98-.93-8.73 1.51-12.36z"/><path fill="#6a7270" d="M171.29 159.26c6.99-2.63 3.46 13.54-2.57 7.03-3.14-2.78-.74-6.05 2.57-7.03z"/><path fill="#9397a6" d="M200.13 166.4c-5.87.87-2.71-8.23 1.79-5.86 2.05 2.31-.03 4.28-1.79 5.86z"/><path fill="#4a4d5a" d="M201.92 160.54l6.39-.83 6.77 4.08c-7.38-.56.45 7.82 2.19 1.24-1.56 11.73 4.47-.66 6.52 3.67-5.15 1.42-5.92 15.57-1.93 8.74 2.41-1.19 5.42 2.93 5.7-.96 1.57-3.72 1 1.56 2.26 2.79 3.59 4.64 10.16-4.62 12.54 1.62 2.29-1.64 7.45-4.56 4.55-7.75-1.24-4.95-6.8-2.16-8.9-5.17 7.61-6.09 14.7 6.3 11.18 13.05-3.17.55-6.03 1.78-7.5 4.82-2.81-3.52-6.4-4.84-9.67-1.06-5.18-5.2-12.06 3.99-4.85 6.05-4.09.72-12.24 6.09-4.03 6.57-9.44-2.86-4.85 7.16-.69 9.19-2.7-.57-5.38.17-8.06.43-.15-2.67-.16-5.34-.29-8.01 1.33-1.86 2.98-3.66 3.12-6.08 2.3-4.74-4.76-2.72-6.38-5.81-5.17-4.64-6.21-14.25-.24-18.56 1.33-3.39-3.42-2.37-5.16-1.29-2.94-2.63-4.34 3.41-6.5 4.85.28-1.93.72-3.83 1.19-5.72 1.76-1.58 3.84-3.55 1.79-5.86z"/><path fill="#697178" d="M269.83 165.42c2.6-3.86 10.92-5.25 9.15 1.45l-3.33 5.24c-3.67.22-4.47-4.1-5.82-6.69z"/><path fill="#555a6f" d="M124.81 166.11c6.43-9.89 12.32 9.42 4.98 12.4-2.68-1.23-4.27-3.75-5.12-6.47.54-1.94.77-3.99.14-5.93z"/><path fill="#72798d" d="M217.27 165.03c-1.74 6.58-9.57-1.8-2.19-1.24l2.19 1.24z"/><path fill="#5e6070" d="M227.35 166.33c3.69-2.52 6.84 1.59 10.66 1.64 2.1 3.01 7.66.22 8.9 5.17 2.9 3.19-2.26 6.11-4.55 7.75-2.38-6.24-8.95 3.02-12.54-1.62-1.26-1.23-.69-6.51-2.26-2.79-.28 3.89-3.29-.23-5.7.96-3.99 6.83-3.22-7.32 1.93-8.74 1.13 2.47 6.21 5.09 3.56-2.37z"/><path fill="#343330" opacity=".69" d="M124.22 166.03l.59.08c.63 1.94.4 3.99-.14 5.93a21.21 21.21 0 0 1-1.02-3.1l.57-2.91z"/><path fill="#47505e" d="M177.14 172.33c4.71 3.1 3.27-10.91 5.43-2.1-.04 3.95-1.07 7.79-1.64 11.69-5.67-1.67-12.65 1.17-17.82-1.04 2.65-5.21 11.3-4.2 14.03-8.55z"/><path fill="#66707b" d="M297.19 176.66c-.55-6.15 11.56-14.95 10.09-4.45-.31 1.61-.63 3.22-1.02 4.81 2.66-15.6-10.99.54-3.26 5.46-4.36 2.66-4.18-3.28-5.81-5.82z"/><path fill="#79848c" d="M287.18 169.17c2.74-2.8 6.15-.79 5.13 3.05l-1.39 5.51-1.93 2.72c-4.56-1.42-5.84-8.54-1.81-11.28z"/><path fill="#8b979f" d="M303 182.48c-7.73-4.92 5.92-21.06 3.26-5.46-1.39 1.63-2.27 3.58-3.26 5.46z"/><path fill="#51555a" opacity=".98" d="M294.19 180.3l3-3.64c1.63 2.54 1.45 8.48 5.81 5.82.99-1.88 1.87-3.83 3.26-5.46-.76 5.16-2.22 10.54-6.53 13.9l-.55 6.15c-.7 8.3-1.33 16.61-1.18 24.95l-.93-.11-.08-1.98c-2.72-4.28 2.73-11.49-3.61-13.39-3.75-2.01-2.54 3.39-2.58 5.52-3.5.06-3.92-4.51-6.87-5.82a17.24 17.24 0 0 1 5.88-2.56c-2.24-2.69-6.02-6.79-.03-6.88-.06 2.74.05 7.45 4.12 6.2 4.54-1.03 3.4-6.56-.73-7.36-.85-4.26-5.82-10.61-.84-13.53.7-.52 1.32-1.12 1.86-1.81z"/><path fill="#2a2b30" d="M249.19 181.02c4.85-2.33 5.68.26 2.52 4l-5.45 2.2c-2.89.05-5.74-.13-8.57.38-3.46-.06-8.14.34-5.49 4.17l-.3 11.31c-5.44-2.72-5.71 2.4-5.84 6.58-1.2.82-2.18 2.47-3.83 2.23-2.48-1.29 1.74-3.38.22-5.3-4.16-2.03-8.75-12.05.69-9.19 2.1-1.59 3.54-3.97 4.03-6.57-7.21-2.06-.33-11.25 4.85-6.05 3.27-3.78 6.86-2.46 9.67 1.06 1.47-3.04 4.33-4.27 7.5-4.82z"/><path fill="#52576c" d="M253.77 188.17c1.3-3.66 1.84-9.6 7.31-8.3 3.35 2.6 6.46 6.32 4.94 11.06-2.74-.32-5.46-.78-8.22-.86-1.37-.58-2.7-1.24-4.03-1.9z"/><path fill="#4b535b" d="M168.82 185.56c3.85-2.91 9.69 1.22 12.35-2.82.78 2.23 1.6 4.44 2.57 6.6-5.3-1.32-6.62 1.82-2.91 5.56-6.87 1.36-.63 3.7 3.41 2.66 1.41 1.33 2.6 2.87 3.83 4.37 2.12 5.19-5.03 2.32-5.88-.95l-1.27-1.32c-6.01-3.52-6.75 2.66-7.02 6.44-4.45-4.24-6.03 2.1-1.13 3.48 2.11 4.07-3.39 4.62-2.84 8.08 3.38-1.88 7.14 6.51 2.01 4.18l-7.82-1.01c1.68-2.06-1.17-2.49-2.5-3.44-1.05-2.19-1.6-4.77-3.46-6.45-1.77 1.93-7.02 7.24-3.57-1.5.83-3.94-6.44 3.05-6.53-.34 1.21-2.94-.47-11.78 4.76-11.07.77 4.36 3.35 7.07 8.01 6.89 1.08-1.97 1.74-4.14 2.83-6.1 1.24 2.08 2.3 5.04 5.31 4.22.66-2.68-.19-4.93-3.1-5.41 2.39-.64 5.34-.97 5.37-4.08 4.56-2.96 2.02-6.99-2.42-7.99z"/><path fill="#6e7679" d="M171.24 193.55c-3.45-.49-7.31-6.89-2.42-7.99 4.44 1 6.98 5.03 2.42 7.99z"/><path fill="#191b20" d="M253.77 188.17l4.03 1.9c4.42.6 6.06 6.03.25 5.21 3.12 7.56-6.31 9.8-9.71 15.09-4.45 3.25-1.17 8.47.87 12.08-4.79-.28-5.01-7.18-10.57-7.07-4.88-1.99-5.04 2.58-2.58 5.48-1.7-.28-3.37-.66-5.08-.85-.42 2.57 2.77 7.24-1.34 7.55l-1.75-.86c-2.97-2.14-3.23-6.31-4.71-9.42 4.91.76 6.81-4.81 2.88-7.62.13-4.18.4-9.3 5.84-6.58.24 1.64-.51 5.37 1.95 3.19 4.3-3.7 9.81-1.72 14.88-1.41.77-5.82 3.18-11.18 5.04-16.69z"/><path fill="#6c7567" d="M180.83 194.9c-3.71-3.74-2.39-6.88 2.91-5.56 1.12 2.28 3.95 3.92 4.14 6.48-2.31 2.28-4.98-2.75-3.64 1.74-4.04 1.04-10.28-1.3-3.41-2.66z"/><path fill="#585d5b" d="M277.85 195.92c4.01-.89.18-9.34 4.85-5.98 1.61 1.96 3.32 3.87 5.33 5.43-2.17.65-4.13 1.67-5.68 3.35-2.2-4.79-5.05 7.97-.6 4.13 1.89-1.66 1.44 2.32 2.18 3.39-2.01-.29-4.01-.64-5.95-1.24-8.26.86-3.99-6.55-7.88-10.22 2.82-.53 5.28 3.3 7.75 1.14z"/><path fill="#7f808b" d="M282.7 189.94c3.58-3.03 8.76 2.32 5.33 5.43-2.01-1.56-3.72-3.47-5.33-5.43z"/><path fill="#87888a" d="M223.14 197.4c-8.21-.48-.06-5.85 4.03-6.57-.49 2.6-1.93 4.98-4.03 6.57z"/><path fill="#8e9495" d="M211.09 201.03c-1.13-4.49-.5-11.83 6.13-8.1-.14 2.42-1.79 4.22-3.12 6.08-.88.85-1.74 1.8-3.01 2.02z"/><path fill="#0f1011" opacity=".62" d="M232.2 191.77c1.58 4.65.79 9.71 1.65 14.5-2.46 2.18-1.71-1.55-1.95-3.19l.3-11.31z"/><path fill="#5a5c6a" d="M142.36 193.24c5.73-.79.42 11.77-3.24 6.54-.05-2.46 2.12-4.43 3.24-6.54z"/><path fill="#81895f" d="M289.78 196.8l3.39-1.16c4.13.8 5.27 6.33.73 7.36-4.07 1.25-4.18-3.46-4.12-6.2z"/><path fill="#6b7285" d="M163.66 198.82l2.21-1.19c2.91.48 3.76 2.73 3.1 5.41-3.01.82-4.07-2.14-5.31-4.22z"/><path fill="#60666d" d="M173.9 206.1c.27-3.78 1.01-9.96 7.02-6.44-2.26.92-4.64 2.52-3.97 5.33 2.97.85 5.61-.7 5.24-4.01.85 3.27 8 6.14 5.88.95 8.06-.93-7.76 13.64 5.77 6.99 4.98-4.81 1.33 4.65 7.04 3.33.34 3.74-8.85 5.64-2.26 7.26 5.82 2.76 4.61-7.55 10.17-6.73-.53 1.77-1.64 3.51-1.14 5.42-3.79.16-4.56 7.7-8.18 3.22-4.37 1.78.69 5.67-2.33 7.97-2.79-.62-1.04-4.46-2.75-6.38-3.8-.1-7.34 4.64-2.65 6.55-8.6 3.27 3.07 8.4-1.63 14.51 2.38.34 3.31-1.88 4.49-3.45.2 1.71.44 3.44.69 5.15 1.33 3.55-5.22 2.78-2.16 5.13 3.46 1.51-2.75 4.63 1.71 5.5-.16 1.2-.08 2.41.02 3.61-2.58-.84-5.17-1.92-7.93-1.26.75-1.52 2.4-2.82 2.09-4.66-.68-5.14-6.88 3.23-6.8-2.84 6.94-2.31.79-8.33-1.27-12.19-1.32-1.16-6.81-5.25-5.55-1.53 2.14 1.49 5.04 2.39 6.03 5.07 1.6 3.26-6.35 8.31-4.02.08-3.75-3.46-8.67-4.35-13.61-4.71 8.77 1.03 6.81-7.95 1.25-9.94 1.83-3.14-2.49-4.17-1.89-7.3l.96.1 7.82 1.01c-7.66-.81-2.2 14.52 2.85 9.98 4.03-3.86.64-7.54-2.85-9.98 5.13 2.33 1.37-6.06-2.01-4.18-.55-3.46 4.95-4.01 2.84-8.08-4.9-1.38-3.32-7.72 1.13-3.48m18.4 6.21c-2.32 0-5.85 4.75-6.66.84-4.15-.5-1.6 4.58-1.4 6.81 4.64 1.47 3.7-7.24 9.45-4.29 2.49-1.05 1.58-5.31-1.39-3.36z"/><path fill="#95999d" d="M176.95 204.99c-.67-2.81 1.71-4.41 3.97-5.33l1.27 1.32c.37 3.31-2.27 4.86-5.24 4.01z"/><path fill="#5a6648" d="M279.38 222.02c-3.14-4.35-11.83-14.5-3.4-17.09-1.3 1.62-.02 2.19 1.53 2.63 1.42 4.2 3.21 8.27 6.42 11.46-1.47 1.07-2.78 2.45-4.55 3z"/><path fill="#7d8477" d="M275.98 204.93l2 .07c1.94.6 3.94.95 5.95 1.24 2.95 1.31 3.37 5.88 6.87 5.82.04-2.13-1.17-7.53 2.58-5.52 6.34 1.9.89 9.11 3.61 13.39-1.36 2.18-3.95 2.4-6.31 2.81-3.47 1.21-3.12-4.52-6.75-3.72-3.21-3.19-5-7.26-6.42-11.46-1.55-.44-2.83-1.01-1.53-2.63z"/><path fill="#464a53" d="M222.45 206.59c1.52 1.92-2.7 4.01-.22 5.3 1.65.24 2.63-1.41 3.83-2.23 3.93 2.81 2.03 8.38-2.88 7.62 1.48 3.11 1.74 7.28 4.71 9.42-1.07.68-2.09 1.44-3.02 2.28l-1.89-.1c3.7-2.82.2-6.6-1.42-9.58-3.81-.85-1.7 2.99-.52 4.67-5.83.9-11.96 1.85-14.7 7.87-3.3 3.15 4.46 3.35 2.71 7.23-3.37-.27-6.42-2.31-9.85-2-2.27 4.86 1.63 10.07-.97 14.84-.35 4.56 2.62 4 5.48 1.78a12.15 12.15 0 0 1 1.67-8.5c3.38-1.15 3.33 3.19 4.81 5.14 2.03.18 3.93.89 5.75 1.79l.37 1.99c-4.72.05-13.29.7-12.33 7.53-2.29-.39-4.62-.36-6.87.2a99.66 99.66 0 0 0-2.25-1.83c-.1-1.2-.18-2.41-.02-3.61 1.77-2.87 4.42-9.15.45-10.63l-.69-5.15c.66-2.14 4.8-5.13 1.29-6.45-1.01-1.23 1.06-3.25 1.25-4.78 3.02-2.3-2.04-6.19 2.33-7.97 3.62 4.48 4.39-3.06 8.18-3.22 2.91-1.62 7.11-2.76 6.58-6.92 4.13 3.45 5.8-2.07 8.22-4.69z"/><path fill="#5e637a" d="M249.19 211.19c3.63-3.84 6.19 2.65 7.93 5.2-.04 2.2-.9 4.18-2.33 5.84-4.05-1.8-10.39-6.6-5.6-11.04z"/><path fill="#494e57" d="M257.12 216.39c.3-4.09 13.68-9.03 9.49-2.02-.31 2.46 2.95 3.64 4.29 5.39-2.43-.07-1.37 2.34-1.53 3.89-1.49.9-3.75.93-4.55 2.66 3.75-.23 2.84 6.78 8.1 3.31 3.45-.73 7.24 3.87 10 1.22-.79-1.73-2.78-5.99.66-5.69.3 3.8 5.24 7.37 1.31 10.59 5.9-2.07 5.37 3.81 6.7 7.11-2.09 2.4-8.02 3.8-6.62 7.65l-.85.67-23.86 5.22c-8.71.67-1.43-7.45 4.05-5.05 5.12 2.21 8.94-4.07 13.6-.64 4.42-3-.96-3.84-3.93-3.17-2.95-.74-9.85-7.99-3.13-7.33.85 2.52 2.87 7.58 6.17 4.9 3.49-1.14 2.11-5.48 1.03-8.1-.78-6.84-6.75-7.02-12.76-5.94-.35 3.37-.83 7.29 3.95 6.2-1.88 1.25-3.5 3.33-5.85 3.57-.98-1.67-2.3-2.68-4.29-2.07.92-2.17 5.29-7.14.26-5.29-2.97 1.72-4.95-3.13-1.18-3.26 3.61-.63 1.15-5.36-1.74-3.39.29-1.9.73-4.01-1.65-4.59 1.43-1.66 2.29-3.64 2.33-5.84z"/><path fill="#878c99" d="M192.3 212.31c2.97-1.95 3.88 2.31 1.39 3.36-5.75-2.95-4.81 5.76-9.45 4.29-.2-2.23-2.75-7.31 1.4-6.81.81 3.91 4.34-.84 6.66-.84z"/><path fill="#252833" d="M236.06 220.86c-2.46-2.9-2.3-7.47 2.58-5.48 5.56-.11 5.78 6.79 10.57 7.07 2.26.47 5.54.13 5.06 3.41-1.1 6.59 6.16 12.61-2.43 17.27-2.4-2.72-5.41-8.24-6.07-1.13-6.02-.53.97-7.88-3.95-9.78-3.32-.09-8.2-8.7-8.13-2.18-1.69-.11-2.9-1.38-4.05-2.48 4.11-.31.92-4.98 1.34-7.55 1.71.19 3.38.57 5.08.85z"/><path fill="#7c8377" d="M221.04 223.97c-1.18-1.68-3.29-5.52.52-4.67 1.62 2.98 5.12 6.76 1.42 9.58-4.71-2.2-6.28 1.4-7.75 5.26 1.92-9.63-7.43-1.69-1.27 2.1-3.56 5.12-4.31-3.04-7.62-4.4 2.74-6.02 8.87-6.97 14.7-7.87z"/><path fill="#626771" d="M279.38 222.02c1.77-.55 3.08-1.93 4.55-3 3.63-.8 3.28 4.93 6.75 3.72 2.36-.41 4.95-.63 6.31-2.81l.08 1.98-.18 7.83c-5.2-.97-4.97 11.23.23 7.42-2.11 5.98-5.41 11.68-12.15 13.34-1.4-3.85 4.53-5.25 6.62-7.65-1.33-3.3-.8-9.18-6.7-7.11 3.93-3.22-1.01-6.79-1.31-10.59-3.44-.3-1.45 3.96-.66 5.69-2.76 2.65-6.55-1.95-10-1.22-5.26 3.47-4.35-3.54-8.1-3.31.8-1.73 3.06-1.76 4.55-2.66.16-1.55-.9-3.96 1.53-3.89 1.63 3.38 5.2 3.89 8.48 2.26z"/><path fill="#292a30" opacity=".98" d="M138.89 220.2c4.15 3.01 7.76 7.15 12.2 9.44 5.17-1.53 7.05 5.15 9.01 8.61-1.86-.45-5.76-2.8-5.23.84-7.28-4.25-14.37-10.13-15.98-18.89z"/><path fill="#555559" d="M160.92 220.76a6.48 6.48 0 0 1 2.24-.03c-.6 3.13 3.72 4.16 1.89 7.3-2.87-1.35-3.26-4.59-4.13-7.27z"/><path fill="#585e45" d="M163.8 237.97c-5.16-3.04-9.2-14.45-2.88-17.21.87 2.68 1.26 5.92 4.13 7.27 5.56 1.99 7.52 10.97-1.25 9.94z"/><path fill="#92939f" d="M174.79 231.82c-5.05 4.54-10.51-10.79-2.85-9.98 3.49 2.44 6.88 6.12 2.85 9.98z"/><path fill="#767a84" d="M191.74 229.56c-4.69-1.91-1.15-6.65 2.65-6.55 1.71 1.92-.04 5.76 2.75 6.38-.19 1.53-2.26 3.55-1.25 4.78 3.51 1.32-.63 4.31-1.29 6.45-1.18 1.57-2.11 3.79-4.49 3.45 4.7-6.11-6.97-11.24 1.63-14.51z"/><path fill="#73797a" d="M224.87 228.98c.93-.84 1.95-1.6 3.02-2.28-1.52 3.27 2.03 9.57 1.46 4.29 11.62-.85 6.05 11.56-1.42 12.65-2.36-.65-4.76-.27-7.11.16.49-1.76 1.44-3.32 2.22-4.96-2.69 1.1-5.06 3.23-8.1 3.25.01-3.75 2.25-6.9 4.26-9.87 1.09-2.46 6.21.33 5.67-3.24z"/><path fill="#505460" d="M227.89 226.7l1.75.86c1.15 1.1 2.36 2.37 4.05 2.48-.07-6.52 4.81 2.09 8.13 2.18 4.92 1.9-2.07 9.25 3.95 9.78 5.64 1.87-.22 8.81-2.69 2.93-.12-5-7.98-5.32-7.62-.46 3.22 9.05-3.21 1.08-6.64 2.5 1.62 1.29 3.38 2.39 5.11 3.55-3.8 2.13-8.74 2.77-12.99 1.39-.58-3.03.69-2.76 2.68-1.32 1.39-2.34 2.91-4.61 4.31-6.95 7.47-1.09 13.04-13.5 1.42-12.65.57 5.28-2.98-1.02-1.46-4.29z"/><path fill="#616771" d="M215.23 234.14c1.47-3.86 3.04-7.46 7.75-5.26l1.89.1c.54 3.57-4.58.78-5.67 3.24-2.01 2.97-4.25 6.12-4.26 9.87 3.04-.02 5.41-2.15 8.1-3.25-.78 1.64-1.73 3.2-2.22 4.96 2.35-.43 4.75-.81 7.11-.16-1.4 2.34-2.92 4.61-4.31 6.95-1.99-1.44-3.26-1.71-2.68 1.32l-5 .21c-1.82-.9-3.72-1.61-5.75-1.79-1.48-1.95-1.43-6.29-4.81-5.14a12.15 12.15 0 0 0-1.67 8.5c-2.86 2.22-5.83 2.78-5.48-1.78 2.6-4.77-1.3-9.98.97-14.84 3.43-.31 6.48 1.73 9.85 2 1.75-3.88-6.01-4.08-2.71-7.23 3.31 1.36 4.06 9.52 7.62 4.4l1.27-2.1z"/><path fill="#a3a9a4" d="M213.96 236.24c-6.16-3.79 3.19-11.73 1.27-2.1l-1.27 2.1z"/><path fill="#888c99" opacity=".97" d="M297.12 237.16c-5.2 3.81-5.43-8.39-.23-7.42l1.1 1.47c.02 2 .04 4.1-.87 5.95z"/><path fill="#5e6471" d="M265.29 231.06c6.01-1.08 11.98-.9 12.76 5.94l-2.73-.44c-2.07-.63-4.11.14-6.08.7-4.78 1.09-4.3-2.83-3.95-6.2z"/><path fill="#525946" d="M154.87 239.09c-.53-3.64 3.37-1.29 5.23-.84 2.33 3.7 9.73 1.94 11.22 7.31-3.96-1.84-5.11 3.41-5.36 6.35 3.76 3.39 4.93 8.36 8.15 12.09-1.8.07-3.59.2-5.38.31l-2.56-.29c-4.67-1.78-7.54-6.05-10.01-10.17l-1.36-3.61c.17-3.71.15-7.44.07-11.15z"/><path fill="#888b9c" d="M270.85 240.2c2.06-.37 3.17-2.22 4.47-3.64l2.73.44c1.08 2.62 2.46 6.96-1.03 8.1-3.3 2.68-5.32-2.38-6.17-4.9z"/><path fill="#6a715c" d="M165.96 251.91c.25-2.94 1.4-8.19 5.36-6.35 1.21 2.24-.77 6.99 2.96 6.06 3.82.06-1.08 3.28-.26 5.29.37 4.86 12.79 8.61.09 7.09-3.22-3.73-4.39-8.7-8.15-12.09z"/><path fill="#80868e" d="M195.29 245.77c3.97 1.48 1.32 7.76-.45 10.63-4.46-.87 1.75-3.99-1.71-5.5-3.06-2.35 3.49-1.58 2.16-5.13z"/><path fill="#8a8d9b" d="M216.31 254.11c3.21-.89 4.3.83 3.82 3.9-1.39 2.56-2.58 5.37-4.91 7.24-4.56 2.26-7.73-1.27-11.24-3.61-.96-6.83 7.61-7.48 12.33-7.53z"/><path fill="#1e1e25" opacity=".7" d="M235.76 257.24a453.28 453.28 0 0 1 22.43-.08l-2.83 1.19c-6.52-.6-13.13.03-19.6-1.11z"/><path fill="#505738" opacity=".96" d="M197.11 261.84c2.25-.56 4.58-.59 6.87-.2 3.51 2.34 6.68 5.87 11.24 3.61-5.11 3.96-12.66 5.1-18.41 1.78-.23-1.74-.11-3.49.3-5.19z"/></svg>