<?xml version="1.0" encoding="UTF-8" ?>
<!DOCTYPE svg PUBLIC "-//W3C//DTD SVG 1.1//EN" "http://www.w3.org/Graphics/SVG/1.1/DTD/svg11.dtd">
<svg width="384pt" height="384pt" viewBox="0 0 384 384" version="1.1" xmlns="http://www.w3.org/2000/svg">
<g id="#0000000f">
</g>
<g id="#00000017">
</g>
<g id="#464b56fd">
<path fill="#464b56" opacity="1.00" d=" M 175.86 21.97 C 177.92 19.21 180.51 17.20 184.18 17.68 C 185.52 18.84 186.44 20.38 187.49 21.79 C 189.53 19.39 191.17 15.84 195.40 18.31 C 196.79 21.25 199.30 23.82 202.86 22.82 C 205.24 28.22 198.02 25.47 198.96 29.85 C 210.99 28.03 200.88 31.02 197.95 34.69 C 196.44 32.32 191.20 23.33 185.74 27.03 C 182.85 27.83 184.94 30.22 185.76 31.91 C 180.58 32.44 175.68 34.32 170.89 36.27 C 173.19 39.57 178.32 37.03 180.96 40.08 C 175.88 42.96 183.57 51.75 176.16 49.09 C 175.36 53.08 173.01 54.83 168.75 54.69 C 163.55 56.14 169.53 61.43 171.67 63.34 C 173.65 67.46 172.76 72.11 170.98 76.12 C 173.91 73.48 176.73 70.70 179.42 67.82 C 181.57 71.61 176.88 78.10 176.15 82.77 C 177.65 84.74 183.22 88.26 183.24 83.84 C 183.79 91.48 188.36 99.38 197.16 98.59 C 192.19 99.85 189.58 104.88 185.81 108.01 C 182.92 109.21 182.20 104.18 179.61 105.51 C 175.72 106.23 174.93 110.91 171.80 112.85 C 170.42 113.09 168.95 113.32 168.74 114.98 C 164.34 117.39 166.91 110.44 169.43 109.40 C 180.14 111.93 168.80 99.48 165.76 104.69 C 163.78 109.14 162.54 114.01 161.91 118.86 C 161.00 118.06 160.04 117.00 158.71 117.55 C 153.39 117.22 147.89 118.91 144.67 123.31 C 144.23 121.03 147.66 117.51 144.58 116.53 C 140.92 115.66 143.18 110.82 139.93 108.85 C 144.46 109.22 150.31 109.07 150.09 103.00 C 145.13 101.33 139.65 103.17 139.93 108.85 C 139.08 106.83 137.31 105.97 135.25 105.58 C 135.34 101.74 135.05 97.13 138.97 95.23 C 140.16 94.55 140.63 93.36 140.57 92.04 C 143.03 93.12 147.97 96.09 148.90 92.14 C 147.26 89.81 145.77 87.33 143.77 85.28 C 141.49 85.30 139.58 87.65 137.05 87.08 C 138.06 85.09 134.74 76.56 139.70 77.15 C 140.03 82.66 153.41 89.42 150.79 79.15 C 151.72 76.76 148.83 66.98 146.12 71.79 C 149.05 74.15 147.51 77.25 145.55 79.66 C 140.61 81.23 146.13 70.55 141.35 71.46 C 137.36 72.78 137.28 66.97 134.42 65.43 C 134.21 65.07 133.79 64.35 133.58 64.00 C 140.27 59.77 146.49 53.58 145.81 44.89 C 144.10 52.64 150.82 49.40 154.40 46.48 C 156.85 45.48 160.06 42.77 158.06 39.95 C 160.91 36.61 165.33 34.49 166.81 30.14 C 167.85 28.55 167.68 26.40 166.50 24.92 C 168.06 20.45 172.06 20.88 175.86 21.97 M 163.22 96.14 C 159.81 100.18 175.50 105.14 175.99 98.96 C 170.18 102.27 168.70 94.99 163.22 96.14 M 153.92 98.02 C 153.60 100.92 158.51 101.85 160.32 100.33 C 163.75 96.43 154.75 98.42 153.92 98.02 Z" />
</g>
<g id="#44434aeb">
<path fill="#44434a" opacity="0.92" d=" M 202.86 22.82 C 207.74 19.55 214.04 21.57 216.00 27.07 C 216.42 32.40 209.31 32.68 208.69 37.10 C 208.44 36.59 207.93 35.55 207.68 35.03 C 210.15 30.20 212.40 21.01 202.86 22.82 Z" />
</g>
<g id="#6d7077ff">
<path fill="#6d7077" opacity="1.00" d=" M 202.86 22.82 C 212.40 21.01 210.15 30.20 207.68 35.03 C 205.01 35.78 202.45 34.84 199.93 34.04 C 197.48 40.39 210.28 47.12 209.06 37.92 C 209.72 38.64 210.40 39.34 211.10 40.03 C 213.55 44.46 222.29 41.17 221.86 45.62 C 217.81 45.02 216.25 48.58 213.76 50.65 C 209.03 50.26 203.72 46.73 200.61 51.96 L 199.98 52.34 C 198.71 50.85 197.35 49.36 196.79 47.43 C 199.83 42.16 198.13 37.02 192.15 36.63 C 193.81 31.07 185.66 32.20 185.74 27.03 C 191.20 23.33 196.44 32.32 197.95 34.69 C 200.88 31.02 210.99 28.03 198.96 29.85 C 198.02 25.47 205.24 28.22 202.86 22.82 Z" />
</g>
<g id="#1c1e2080">
</g>
<g id="#595d69ff">
<path fill="#595d69" opacity="1.00" d=" M 185.76 31.91 C 184.94 30.22 182.85 27.83 185.74 27.03 C 185.66 32.20 193.81 31.07 192.15 36.63 C 185.27 39.06 192.68 46.20 196.79 47.43 C 197.35 49.36 198.71 50.85 199.98 52.34 C 198.94 53.00 197.89 53.64 196.85 54.30 C 196.70 53.94 196.39 53.21 196.23 52.85 C 195.65 51.42 195.07 49.98 194.20 48.70 C 189.94 44.86 182.72 48.12 183.29 54.19 C 177.29 56.22 186.58 61.78 181.21 64.03 C 180.65 58.49 174.74 61.06 174.53 56.39 C 173.73 54.06 170.62 55.20 168.75 54.69 C 173.01 54.83 175.36 53.08 176.16 49.09 C 183.57 51.75 175.88 42.96 180.96 40.08 C 178.32 37.03 173.19 39.57 170.89 36.27 C 175.68 34.32 180.58 32.44 185.76 31.91 Z" />
</g>
<g id="#9ea69dff">
<path fill="#9ea69d" opacity="1.00" d=" M 199.93 34.04 C 202.45 34.84 205.01 35.78 207.68 35.03 C 207.93 35.55 208.44 36.59 208.69 37.10 L 209.06 37.92 C 210.28 47.12 197.48 40.39 199.93 34.04 Z" />
</g>
<g id="#8b8f96ff">
<path fill="#8b8f96" opacity="1.00" d=" M 196.79 47.43 C 192.68 46.20 185.27 39.06 192.15 36.63 C 198.13 37.02 199.83 42.16 196.79 47.43 Z" />
</g>
<g id="#0d0d0f6e">
</g>
<g id="#4a4a50f7">
<path fill="#4a4a50" opacity="0.97" d=" M 211.10 40.03 C 213.37 39.71 215.64 39.35 217.91 38.97 C 221.33 38.87 224.73 38.83 228.16 38.79 C 228.91 39.45 229.63 40.15 230.30 40.89 C 229.87 42.23 229.79 43.58 230.07 44.96 C 224.55 49.54 216.84 49.72 211.14 53.98 C 209.48 54.49 207.84 55.03 206.19 55.55 C 203.98 54.96 202.27 53.45 200.61 51.96 C 203.72 46.73 209.03 50.26 213.76 50.65 C 216.25 48.58 217.81 45.02 221.86 45.62 C 222.29 41.17 213.55 44.46 211.10 40.03 Z" />
</g>
<g id="#636981fc">
<path fill="#636981" opacity="1.00" d=" M 150.17 40.01 C 152.80 39.97 155.43 39.95 158.06 39.95 C 160.06 42.77 156.85 45.48 154.40 46.48 C 150.82 49.40 144.10 52.64 145.81 44.89 C 147.13 43.15 148.71 41.63 150.17 40.01 Z" />
</g>
<g id="#25262488">
</g>
<g id="#717573ff">
<path fill="#717573" opacity="1.00" d=" M 183.29 54.19 C 182.72 48.12 189.94 44.86 194.20 48.70 C 191.54 50.77 185.92 52.88 189.20 56.96 C 192.02 56.67 194.28 54.76 196.23 52.85 C 196.39 53.21 196.70 53.94 196.85 54.30 C 196.92 55.00 197.06 56.40 197.13 57.09 L 196.29 57.20 C 189.77 56.67 185.68 62.59 181.75 66.77 C 179.61 67.25 178.94 64.18 176.95 63.83 C 176.74 65.78 177.46 67.30 179.42 67.82 C 176.73 70.70 173.91 73.48 170.98 76.12 C 172.76 72.11 173.65 67.46 171.67 63.34 C 169.53 61.43 163.55 56.14 168.75 54.69 C 170.62 55.20 173.73 54.06 174.53 56.39 C 174.74 61.06 180.65 58.49 181.21 64.03 C 186.58 61.78 177.29 56.22 183.29 54.19 M 171.16 58.16 C 170.16 62.80 175.80 57.16 171.16 58.16 Z" />
</g>
<g id="#a2a8a6ff">
<path fill="#a2a8a6" opacity="1.00" d=" M 189.20 56.96 C 185.92 52.88 191.54 50.77 194.20 48.70 C 195.07 49.98 195.65 51.42 196.23 52.85 C 194.28 54.76 192.02 56.67 189.20 56.96 Z" />
</g>
<g id="#27262bea">
<path fill="#27262b" opacity="0.92" d=" M 199.98 52.34 L 200.61 51.96 C 202.27 53.45 203.98 54.96 206.19 55.55 C 203.31 56.71 200.18 56.76 197.13 57.09 C 197.06 56.40 196.92 55.00 196.85 54.30 C 197.89 53.64 198.94 53.00 199.98 52.34 Z" />
</g>
<g id="#00010116">
</g>
<g id="#595b55f9">
<path fill="#595b55" opacity="0.98" d=" M 181.75 66.77 C 185.68 62.59 189.77 56.67 196.29 57.20 C 193.29 66.94 180.64 72.72 183.24 83.84 C 183.22 88.26 177.65 84.74 176.15 82.77 C 176.88 78.10 181.57 71.61 179.42 67.82 C 177.46 67.30 176.74 65.78 176.95 63.83 C 178.94 64.18 179.61 67.25 181.75 66.77 Z" />
</g>
<g id="#ccd2c5ff">
<path fill="#ccd2c5" opacity="1.00" d=" M 171.16 58.16 C 175.80 57.16 170.16 62.80 171.16 58.16 Z" />
</g>
<g id="#0000001f">
</g>
<g id="#1b1d2086">
</g>
<g id="#2d3038fb">
<path fill="#2d3038" opacity="1.00" d=" M 134.42 65.43 C 137.28 66.97 137.36 72.78 141.35 71.46 C 146.13 70.55 140.61 81.23 145.55 79.66 C 147.51 77.25 149.05 74.15 146.12 71.79 C 148.83 66.98 151.72 76.76 150.79 79.15 C 153.41 89.42 140.03 82.66 139.70 77.15 C 134.74 76.56 138.06 85.09 137.05 87.08 C 139.58 87.65 141.49 85.30 143.77 85.28 C 145.77 87.33 147.26 89.81 148.90 92.14 C 147.97 96.09 143.03 93.12 140.57 92.04 C 140.63 93.36 140.16 94.55 138.97 95.23 C 137.75 93.74 136.64 92.18 135.38 90.73 C 135.92 85.45 136.54 80.06 135.29 74.82 C 134.84 73.51 134.22 72.26 133.66 70.99 C 133.98 69.15 134.30 67.30 134.42 65.43 Z" />
</g>
<g id="#3f434bfe">
<path fill="#3f434b" opacity="1.00" d=" M 135.38 90.73 C 136.64 92.18 137.75 93.74 138.97 95.23 C 135.05 97.13 135.34 101.74 135.25 105.58 C 137.31 105.97 139.08 106.83 139.93 108.85 C 143.18 110.82 140.92 115.66 144.58 116.53 C 147.66 117.51 144.23 121.03 144.67 123.31 C 144.18 130.74 155.68 137.00 159.18 129.11 C 160.46 125.77 160.38 121.98 159.06 118.68 L 158.71 117.55 C 160.04 117.00 161.00 118.06 161.91 118.86 C 167.34 120.94 164.44 127.71 170.00 128.52 C 168.46 130.86 165.50 130.35 163.17 131.10 C 161.54 134.46 167.90 131.53 166.58 134.68 C 166.51 138.14 166.81 141.57 164.04 144.15 C 162.78 148.35 167.22 148.05 169.89 147.27 C 172.08 150.34 167.56 154.59 170.27 156.69 C 176.58 155.04 179.35 161.80 180.83 166.35 C 180.74 167.00 180.57 168.29 180.48 168.94 C 177.34 172.33 177.13 177.79 182.77 178.14 C 179.96 169.27 184.10 173.06 185.88 174.93 C 185.84 175.64 185.75 177.07 185.71 177.78 C 180.60 182.65 187.57 189.66 181.26 194.05 C 182.19 196.88 184.89 201.16 179.82 199.19 C 183.24 203.36 178.85 202.76 177.33 206.37 C 176.89 208.64 174.59 207.21 173.10 207.12 C 173.24 204.43 171.32 201.15 168.23 202.09 C 165.06 205.41 169.67 209.75 173.10 207.12 C 173.18 210.57 174.79 213.63 176.24 216.66 C 172.27 215.61 164.19 214.61 164.95 221.02 C 168.03 221.98 169.80 218.91 172.42 218.28 C 173.14 220.61 180.52 224.78 176.00 225.10 C 175.04 224.66 174.08 224.25 173.09 223.90 C 169.31 222.91 164.34 223.00 160.96 225.16 C 160.46 230.59 171.83 231.30 168.24 236.10 C 166.40 236.82 164.72 237.73 164.93 240.01 C 158.78 237.61 156.82 229.56 159.77 223.82 C 149.95 220.04 158.94 232.99 151.20 229.88 C 150.73 225.99 149.24 223.73 145.11 223.87 C 146.17 221.18 145.26 210.62 141.91 216.32 C 136.28 213.15 134.20 206.51 132.11 200.77 C 127.12 194.31 142.17 185.19 133.86 182.35 C 137.73 179.56 135.65 165.58 128.79 168.53 C 129.04 167.06 129.27 165.60 129.54 164.15 C 131.30 158.38 130.64 152.09 130.26 146.12 C 130.33 145.10 131.00 143.99 130.50 143.00 C 129.90 141.59 129.14 140.26 128.30 138.98 C 127.49 137.71 126.63 136.47 125.88 135.17 C 125.75 132.34 125.89 129.50 125.31 126.73 C 125.10 125.09 124.92 123.46 124.81 121.82 C 127.35 112.55 136.42 105.89 133.10 95.08 C 133.76 93.58 134.58 92.15 135.38 90.73 M 133.19 121.08 C 131.23 123.94 130.32 128.28 133.19 130.93 C 139.87 132.46 140.50 118.53 133.19 121.08 M 156.23 142.16 C 153.83 144.36 152.06 147.56 153.01 151.02 C 159.64 153.40 164.47 140.52 156.23 142.16 M 153.23 163.18 C 149.69 165.03 150.73 169.60 154.89 169.32 C 156.82 172.32 150.81 173.68 154.35 175.61 C 157.05 176.92 158.58 180.57 161.99 180.04 C 165.27 175.81 158.50 169.46 158.77 176.01 C 152.69 175.14 159.51 169.50 161.79 167.68 C 162.05 163.58 156.41 163.39 153.23 163.18 M 174.82 163.21 C 168.17 164.05 166.95 169.60 169.19 174.88 C 174.23 176.69 165.19 167.07 174.67 171.66 C 178.88 170.16 178.50 164.38 174.82 163.21 M 169.99 190.98 C 167.20 194.62 172.73 199.61 175.68 196.71 C 179.84 194.05 174.42 187.43 169.99 190.98 M 155.21 203.19 C 152.80 205.37 151.11 208.58 151.97 212.00 C 159.16 216.17 159.11 203.16 155.21 203.19 Z" />
</g>
<g id="#00000028">
</g>
<g id="#656b6bff">
<path fill="#656b6b" opacity="1.00" d=" M 163.22 96.14 C 168.70 94.99 170.18 102.27 175.99 98.96 C 175.50 105.14 159.81 100.18 163.22 96.14 Z" />
</g>
<g id="#7a7e92ff">
<path fill="#7a7e92" opacity="1.00" d=" M 153.92 98.02 C 154.75 98.42 163.75 96.43 160.32 100.33 C 158.51 101.85 153.60 100.92 153.92 98.02 Z" />
</g>
<g id="#616770fe">
<path fill="#616770" opacity="1.00" d=" M 185.81 108.01 C 189.58 104.88 192.19 99.85 197.16 98.59 C 201.70 100.15 205.46 104.08 206.35 108.85 L 206.12 110.02 C 204.35 106.42 202.12 100.80 197.34 104.29 C 195.85 107.68 194.02 114.47 198.69 116.11 C 201.15 117.15 204.04 120.34 206.18 117.17 C 206.02 119.09 205.84 121.16 206.98 122.85 C 208.44 127.21 213.36 128.35 217.13 130.00 C 224.87 137.83 233.98 145.24 235.71 156.93 C 235.10 163.13 230.11 159.07 226.16 159.02 C 230.95 153.87 218.41 145.12 220.14 153.78 C 218.36 151.86 217.15 148.91 214.16 148.80 C 216.85 145.59 215.75 144.35 211.80 145.63 C 213.47 141.75 214.80 136.92 212.90 132.98 C 208.50 134.48 210.92 139.90 210.94 143.15 C 209.93 140.33 208.28 137.95 204.91 139.01 C 204.88 141.62 206.53 143.74 207.72 145.93 C 207.38 148.05 206.93 150.16 206.38 152.24 C 206.30 151.45 206.13 149.86 206.04 149.07 C 205.63 144.47 202.86 140.37 198.89 138.11 C 205.31 140.05 205.10 133.19 202.76 129.12 C 199.62 128.45 197.02 131.83 193.83 130.07 C 189.19 126.54 188.20 136.35 183.92 131.00 C 185.36 128.36 189.07 122.06 181.20 124.87 C 178.91 125.18 181.08 120.75 178.83 121.04 C 174.61 119.79 178.63 125.43 178.53 127.71 C 174.36 128.98 170.73 134.62 172.17 138.85 C 176.23 138.35 185.19 138.38 184.31 144.14 C 182.87 147.83 187.99 145.88 190.14 145.20 C 191.39 145.41 192.64 145.67 193.89 145.91 C 193.12 150.20 196.07 153.24 198.94 155.92 C 193.08 160.33 194.13 174.61 201.98 174.11 C 200.08 178.30 203.82 182.11 207.04 184.30 C 207.09 186.79 207.51 189.93 203.99 189.10 C 199.29 186.84 195.92 181.15 198.55 176.22 C 195.29 173.55 189.00 171.81 185.88 174.93 C 184.10 173.06 179.96 169.27 182.77 178.14 C 177.13 177.79 177.34 172.33 180.48 168.94 C 186.77 173.93 185.76 159.22 180.83 166.35 C 179.35 161.80 176.58 155.04 170.27 156.69 C 167.56 154.59 172.08 150.34 169.89 147.27 C 167.22 148.05 162.78 148.35 164.04 144.15 C 166.81 141.57 166.51 138.14 166.58 134.68 C 167.90 131.53 161.54 134.46 163.17 131.10 C 165.50 130.35 168.46 130.86 170.00 128.52 C 164.44 127.71 167.34 120.94 161.91 118.86 C 162.54 114.01 163.78 109.14 165.76 104.69 C 168.80 99.48 180.14 111.93 169.43 109.40 C 166.91 110.44 164.34 117.39 168.74 114.98 C 167.78 118.32 170.75 122.42 173.83 119.83 C 176.78 117.55 173.29 114.77 171.80 112.85 C 174.93 110.91 175.72 106.23 179.61 105.51 C 182.20 104.18 182.92 109.21 185.81 108.01 M 186.15 108.99 C 188.82 115.10 179.40 110.57 183.05 113.95 C 188.45 114.87 179.78 115.41 180.99 118.01 C 179.67 123.27 188.03 116.26 187.00 120.98 C 186.46 126.01 193.95 120.91 190.84 118.20 C 188.05 115.66 190.21 109.21 186.15 108.99 M 183.22 149.13 C 181.75 149.90 181.47 152.10 182.95 153.03 C 187.34 155.95 178.89 158.86 183.18 162.99 C 185.23 160.16 190.77 160.86 191.01 157.19 C 183.91 159.42 189.02 147.69 183.22 149.13 M 187.03 161.96 C 187.04 164.49 187.04 169.57 187.05 172.11 C 190.30 172.44 189.45 169.44 189.18 167.42 C 192.93 166.45 190.71 160.45 187.03 161.96 Z" />
</g>
<g id="#697084ff">
<path fill="#697084" opacity="1.00" d=" M 139.93 108.85 C 139.65 103.17 145.13 101.33 150.09 103.00 C 150.31 109.07 144.46 109.22 139.93 108.85 Z" />
</g>
<g id="#9699a9ff">
<path fill="#9699a9" opacity="1.00" d=" M 197.34 104.29 C 202.12 100.80 204.35 106.42 206.12 110.02 C 206.14 111.81 206.17 115.38 206.18 117.17 C 204.04 120.34 201.15 117.15 198.69 116.11 C 200.42 115.78 204.03 116.97 202.97 113.96 C 201.18 113.99 198.59 113.51 198.69 116.11 C 194.02 114.47 195.85 107.68 197.34 104.29 Z" />
</g>
<g id="#7f8484ff">
<path fill="#7f8484" opacity="1.00" d=" M 186.15 108.99 C 190.21 109.21 188.05 115.66 190.84 118.20 C 193.95 120.91 186.46 126.01 187.00 120.98 C 188.03 116.26 179.67 123.27 180.99 118.01 C 179.78 115.41 188.45 114.87 183.05 113.95 C 179.40 110.57 188.82 115.10 186.15 108.99 Z" />
</g>
<g id="#42423fa5">
<path fill="#42423f" opacity="0.65" d=" M 206.35 108.85 C 207.42 111.55 206.59 114.40 206.18 117.17 C 206.17 115.38 206.14 111.81 206.12 110.02 L 206.35 108.85 Z" />
</g>
<g id="#8e93a2ff">
<path fill="#8e93a2" opacity="1.00" d=" M 168.74 114.98 C 168.95 113.32 170.42 113.09 171.80 112.85 C 173.29 114.77 176.78 117.55 173.83 119.83 C 170.75 122.42 167.78 118.32 168.74 114.98 Z" />
</g>
<g id="#e7e9efff">
<path fill="#e7e9ef" opacity="1.00" d=" M 198.69 116.11 C 198.59 113.51 201.18 113.99 202.97 113.96 C 204.03 116.97 200.42 115.78 198.69 116.11 Z" />
</g>
<g id="#656a81ff">
<path fill="#656a81" opacity="1.00" d=" M 144.67 123.31 C 147.89 118.91 153.39 117.22 158.71 117.55 L 159.06 118.68 C 156.19 120.06 152.23 118.20 150.23 121.19 C 151.09 124.41 151.63 127.68 152.26 130.95 C 154.75 131.34 157.00 130.10 159.18 129.11 C 155.68 137.00 144.18 130.74 144.67 123.31 Z" />
</g>
<g id="#9499a2ff">
<path fill="#9499a2" opacity="1.00" d=" M 150.23 121.19 C 152.23 118.20 156.19 120.06 159.06 118.68 C 160.38 121.98 160.46 125.77 159.18 129.11 C 157.00 130.10 154.75 131.34 152.26 130.95 C 151.63 127.68 151.09 124.41 150.23 121.19 Z" />
</g>
<g id="#585d73ff">
<path fill="#585d73" opacity="1.00" d=" M 133.19 121.08 C 140.50 118.53 139.87 132.46 133.19 130.93 C 130.32 128.28 131.23 123.94 133.19 121.08 Z" />
</g>
<g id="#848894ff">
<path fill="#848894" opacity="1.00" d=" M 178.53 127.71 C 178.63 125.43 174.61 119.79 178.83 121.04 C 181.08 120.75 178.91 125.18 181.20 124.87 C 189.07 122.06 185.36 128.36 183.92 131.00 C 180.95 131.87 176.83 132.03 178.53 127.71 Z" />
</g>
<g id="#00000037">
</g>
<g id="#2e3038d5">
<path fill="#2e3038" opacity="0.84" d=" M 206.98 122.85 C 210.72 124.64 214.69 126.48 217.13 130.00 C 213.36 128.35 208.44 127.21 206.98 122.85 Z" />
</g>
<g id="#212021a6">
<path fill="#212021" opacity="0.65" d=" M 125.31 126.73 C 125.89 129.50 125.75 132.34 125.88 135.17 C 124.23 132.69 125.40 129.54 125.31 126.73 Z" />
</g>
<g id="#495155ff">
<path fill="#495155" opacity="1.00" d=" M 172.17 138.85 C 170.73 134.62 174.36 128.98 178.53 127.71 C 176.83 132.03 180.95 131.87 183.92 131.00 C 188.20 136.35 189.19 126.54 193.83 130.07 C 194.40 133.08 194.97 136.44 198.05 137.89 C 193.41 136.70 189.59 140.60 190.14 145.20 C 187.99 145.88 182.87 147.83 184.31 144.14 C 185.19 138.38 176.23 138.35 172.17 138.85 Z" />
</g>
<g id="#828974ff">
<path fill="#828974" opacity="1.00" d=" M 193.83 130.07 C 197.02 131.83 199.62 128.45 202.76 129.12 C 205.10 133.19 205.31 140.05 198.89 138.11 L 198.05 137.89 C 194.97 136.44 194.40 133.08 193.83 130.07 Z" />
</g>
<g id="#80838eff">
<path fill="#80838e" opacity="1.00" d=" M 210.94 143.15 C 210.92 139.90 208.50 134.48 212.90 132.98 C 214.80 136.92 213.47 141.75 211.80 145.63 C 215.75 144.35 216.85 145.59 214.16 148.80 C 211.88 153.44 209.14 148.51 207.72 145.93 C 206.53 143.74 204.88 141.62 204.91 139.01 C 208.28 137.95 209.93 140.33 210.94 143.15 Z" />
</g>
<g id="#00000049">
</g>
<g id="#717c42ff">
<path fill="#717c42" opacity="1.00" d=" M 190.14 145.20 C 189.59 140.60 193.41 136.70 198.05 137.89 L 198.89 138.11 C 202.86 140.37 205.63 144.47 206.04 149.07 C 204.16 147.34 202.45 146.36 202.88 149.86 C 200.50 147.27 197.58 145.35 193.89 145.91 C 192.64 145.67 191.39 145.41 190.14 145.20 Z" />
</g>
<g id="#00000058">
</g>
<g id="#5f6371ff">
<path fill="#5f6371" opacity="1.00" d=" M 156.23 142.16 C 164.47 140.52 159.64 153.40 153.01 151.02 C 152.06 147.56 153.83 144.36 156.23 142.16 Z" />
</g>
<g id="#00000069">
</g>
<g id="#8e9782ff">
<path fill="#8e9782" opacity="1.00" d=" M 193.89 145.91 C 197.58 145.35 200.50 147.27 202.88 149.86 C 202.45 146.36 204.16 147.34 206.04 149.07 C 206.13 149.86 206.30 151.45 206.38 152.24 C 205.57 155.25 201.83 157.44 198.94 155.92 C 196.07 153.24 193.12 150.20 193.89 145.91 M 198.23 149.26 C 197.84 154.14 203.65 147.05 198.23 149.26 M 201.05 151.04 C 200.95 152.37 200.94 153.69 201.02 155.02 C 203.91 155.60 205.12 148.88 201.05 151.04 Z" />
</g>
<g id="#4b4f5dff">
<path fill="#4b4f5d" opacity="1.00" d=" M 206.38 152.24 C 206.93 150.16 207.38 148.05 207.72 145.93 C 209.14 148.51 211.88 153.44 214.16 148.80 C 217.15 148.91 218.36 151.86 220.14 153.78 C 222.10 155.53 223.49 158.36 226.16 159.02 C 230.11 159.07 235.10 163.13 235.71 156.93 C 235.92 158.33 236.11 159.72 236.27 161.13 C 231.06 165.62 226.19 157.20 221.70 161.60 C 219.57 162.37 218.42 163.98 219.56 166.15 C 218.93 169.83 224.86 170.61 225.34 167.04 C 227.76 169.44 232.27 163.72 232.02 168.02 C 232.12 173.11 235.86 164.87 238.75 166.19 C 241.95 170.07 246.00 163.97 250.01 166.88 C 257.95 167.41 251.74 186.65 245.71 180.11 C 247.16 178.72 248.67 177.38 250.05 175.91 C 248.01 170.58 241.39 170.29 236.48 170.19 C 236.81 173.41 230.87 174.58 232.51 170.63 C 229.14 173.37 227.11 177.60 228.00 182.06 C 232.83 181.00 238.25 177.31 241.12 183.39 C 233.00 186.73 226.29 185.22 217.91 188.08 C 219.15 191.30 225.46 190.71 223.22 195.14 C 220.51 193.85 217.75 192.58 215.34 190.78 C 215.82 184.68 215.28 178.52 216.24 172.45 C 218.06 172.12 219.63 171.35 218.88 169.23 C 215.92 165.16 212.76 172.91 209.08 171.19 C 206.67 171.51 207.11 174.66 206.17 176.35 C 206.34 173.94 206.58 171.54 206.90 169.15 C 208.04 167.54 210.55 164.54 207.68 163.30 C 204.75 160.26 201.76 165.41 202.52 168.21 C 200.16 169.93 203.40 171.93 201.98 174.11 C 194.13 174.61 193.08 160.33 198.94 155.92 C 201.83 157.44 205.57 155.25 206.38 152.24 M 207.93 157.97 C 208.26 160.31 210.57 162.45 213.05 162.03 C 213.17 159.36 210.45 157.45 207.93 157.97 M 213.20 163.08 C 212.60 164.54 211.37 168.86 214.37 167.43 C 217.24 167.49 215.48 162.16 213.20 163.08 M 224.19 171.06 C 221.13 174.29 221.96 179.08 222.01 183.07 C 224.71 181.43 224.57 181.07 226.89 184.19 C 224.50 180.29 229.91 171.65 224.19 171.06 Z" />
</g>
<g id="#4f5a62f0">
<path fill="#4f5a62" opacity="0.94" d=" M 288.54 147.67 C 292.01 145.62 296.16 149.57 296.80 153.00 C 292.13 154.69 286.76 152.97 288.54 147.67 Z" />
</g>
<g id="#323641f9">
<path fill="#323641" opacity="0.98" d=" M 278.82 157.88 C 281.97 154.40 284.39 150.14 288.54 147.67 C 286.76 152.97 292.13 154.69 296.80 153.00 L 296.82 153.77 C 290.79 156.12 289.45 163.23 285.52 167.74 C 276.21 173.06 278.69 154.86 271.29 159.27 C 269.87 160.10 268.30 159.61 266.87 159.11 C 266.98 156.64 267.43 154.11 269.07 152.16 C 272.99 152.75 275.88 155.48 278.82 157.88 Z" />
</g>
<g id="#7b818bff">
<path fill="#7b818b" opacity="1.00" d=" M 183.22 149.13 C 189.02 147.69 183.91 159.42 191.01 157.19 C 190.77 160.86 185.23 160.16 183.18 162.99 C 178.89 158.86 187.34 155.95 182.95 153.03 C 181.47 152.10 181.75 149.90 183.22 149.13 Z" />
</g>
<g id="#e9eee0ff">
<path fill="#e9eee0" opacity="1.00" d=" M 198.23 149.26 C 203.65 147.05 197.84 154.14 198.23 149.26 Z" />
</g>
<g id="#8b8d9dff">
<path fill="#8b8d9d" opacity="1.00" d=" M 220.14 153.78 C 218.41 145.12 230.95 153.87 226.16 159.02 C 223.49 158.36 222.10 155.53 220.14 153.78 Z" />
</g>
<g id="#e4e7e1ff">
<path fill="#e4e7e1" opacity="1.00" d=" M 201.05 151.04 C 205.12 148.88 203.91 155.60 201.02 155.02 C 200.94 153.69 200.95 152.37 201.05 151.04 Z" />
</g>
<g id="#383d49fe">
<path fill="#383d49" opacity="1.00" d=" M 301.19 153.12 C 301.61 153.10 302.46 153.06 302.89 153.04 C 301.48 159.66 303.62 166.59 299.75 172.62 C 295.82 169.51 292.30 175.07 296.19 178.05 C 293.98 175.77 290.25 175.90 290.00 179.62 C 298.13 178.97 294.09 188.60 291.00 191.96 C 292.65 188.82 291.93 182.36 286.34 185.06 C 281.48 187.34 282.11 193.96 287.61 195.05 C 285.58 199.81 288.91 198.95 292.16 197.19 C 288.99 202.25 294.10 207.16 299.11 205.20 C 299.62 204.88 300.63 204.24 301.14 203.92 C 301.56 205.68 300.65 209.40 303.54 207.65 C 305.45 201.71 309.48 196.97 314.83 193.86 C 318.35 189.61 318.17 180.39 324.97 179.84 C 323.10 181.96 325.41 183.22 326.85 184.61 C 323.07 185.29 321.26 188.92 319.27 191.78 C 320.03 195.44 323.24 194.87 326.07 194.07 C 324.77 195.71 323.35 197.25 322.02 198.86 C 320.75 199.94 319.49 201.04 318.29 202.20 C 320.34 193.74 310.03 197.26 308.50 202.59 C 303.41 206.20 307.59 211.65 312.17 212.44 C 310.51 216.10 307.12 218.40 304.29 221.09 C 304.15 217.85 300.13 217.49 300.29 214.22 C 301.51 213.03 302.90 212.04 304.16 210.89 C 303.37 208.34 299.50 208.24 298.93 210.98 C 297.63 215.11 298.58 219.59 298.15 223.88 C 296.61 224.08 295.06 224.30 293.55 224.64 C 287.02 224.16 291.34 228.90 289.30 231.93 C 290.39 233.93 291.61 235.90 288.26 234.89 C 285.73 231.17 281.27 230.45 277.02 230.90 C 269.62 232.90 275.92 243.55 280.19 246.74 C 279.41 246.86 277.84 247.12 277.05 247.25 C 273.45 245.98 270.52 242.68 266.46 243.47 C 264.34 240.10 261.17 230.10 258.27 238.18 C 256.68 234.73 256.24 228.59 251.00 229.89 C 254.72 227.84 256.62 223.90 261.23 223.24 C 259.07 217.62 272.24 217.09 264.47 213.01 C 266.32 211.52 268.18 212.36 269.97 213.43 C 276.29 212.62 273.74 203.46 270.05 200.19 C 269.08 195.34 272.24 192.36 275.11 189.00 C 268.53 190.80 267.25 182.19 268.81 178.01 C 265.68 183.73 280.94 186.70 275.44 181.56 C 274.13 180.03 272.90 178.43 271.67 176.84 C 274.77 175.71 276.39 171.98 279.86 171.86 C 281.92 176.15 277.67 184.33 281.91 186.96 C 285.49 182.24 291.23 177.18 289.63 170.47 C 291.98 166.09 294.59 161.84 296.85 157.40 C 298.33 156.01 299.79 154.60 301.19 153.12 M 281.78 221.80 C 278.68 225.84 277.38 215.55 274.13 220.20 C 275.60 225.58 281.05 227.66 285.91 224.91 C 282.06 221.67 287.13 220.40 289.96 222.08 C 297.30 223.03 296.14 210.93 288.63 213.66 L 288.82 212.81 C 282.85 213.49 286.15 219.97 281.78 221.80 M 275.14 225.33 C 273.50 230.52 280.00 225.78 275.14 225.33 Z" />
</g>
<g id="#545a61fa">
<path fill="#545a61" opacity="0.98" d=" M 302.89 153.04 C 310.62 152.26 312.81 162.75 307.00 167.06 C 304.51 170.06 302.76 173.56 300.89 176.96 C 299.35 177.43 297.80 177.93 296.19 178.05 C 292.30 175.07 295.82 169.51 299.75 172.62 C 303.62 166.59 301.48 159.66 302.89 153.04 Z" />
</g>
<g id="#1f222afc">
<path fill="#1f222a" opacity="1.00" d=" M 285.52 167.74 C 289.45 163.23 290.79 156.12 296.82 153.77 C 296.84 154.98 296.83 156.19 296.85 157.40 C 294.59 161.84 291.98 166.09 289.63 170.47 C 291.23 177.18 285.49 182.24 281.91 186.96 C 277.67 184.33 281.92 176.15 279.86 171.86 C 276.39 171.98 274.77 175.71 271.67 176.84 C 270.70 177.20 269.75 177.59 268.81 178.01 C 267.25 182.19 268.53 190.80 275.11 189.00 C 272.24 192.36 269.08 195.34 270.05 200.19 C 264.64 194.73 258.61 202.29 259.98 208.09 C 257.12 199.65 264.87 189.92 258.94 182.10 C 255.03 184.25 251.47 187.22 247.00 188.13 C 248.82 184.80 252.51 183.51 255.55 181.57 C 258.27 175.83 260.01 170.26 258.81 164.14 C 262.95 166.76 265.10 162.10 266.87 159.11 C 268.30 159.61 269.87 160.10 271.29 159.27 C 278.69 154.86 276.21 173.06 285.52 167.74 Z" />
</g>
<g id="#747d87ff">
<path fill="#747d87" opacity="1.00" d=" M 207.93 157.97 C 210.45 157.45 213.17 159.36 213.05 162.03 C 210.57 162.45 208.26 160.31 207.93 157.97 Z" />
</g>
<g id="#00000039">
</g>
<g id="#33343cfc">
<path fill="#33343c" opacity="1.00" d=" M 221.70 161.60 C 226.19 157.20 231.06 165.62 236.27 161.13 C 236.65 161.03 237.41 160.83 237.79 160.73 C 241.92 160.75 246.06 160.79 250.20 160.84 C 253.10 161.84 255.95 163.02 258.81 164.14 C 260.01 170.26 258.27 175.83 255.55 181.57 C 252.51 183.51 248.82 184.80 247.00 188.13 C 244.21 190.22 232.90 186.94 236.20 192.75 C 236.12 198.24 235.92 203.75 236.20 209.24 C 235.17 213.38 234.23 217.88 231.29 221.14 C 233.11 215.93 225.82 211.84 226.74 219.11 C 222.65 217.03 223.38 213.88 224.93 210.44 C 218.59 211.65 225.81 200.90 221.19 204.24 C 219.67 205.96 218.84 203.40 217.86 202.45 C 220.36 200.51 223.78 198.91 223.22 195.14 C 225.46 190.71 219.15 191.30 217.91 188.08 C 226.29 185.22 233.00 186.73 241.12 183.39 C 242.70 182.37 244.16 181.18 245.71 180.11 C 251.74 186.65 257.95 167.41 250.01 166.88 C 246.00 163.97 241.95 170.07 238.75 166.19 C 235.86 164.87 232.12 173.11 232.02 168.02 C 232.27 163.72 227.76 169.44 225.34 167.04 C 223.49 166.32 221.52 166.12 219.56 166.15 C 218.42 163.98 219.57 162.37 221.70 161.60 Z" />
</g>
<g id="#0b0c0f6c">
</g>
<g id="#818a81ff">
<path fill="#818a81" opacity="1.00" d=" M 187.03 161.96 C 190.71 160.45 192.93 166.45 189.18 167.42 C 189.45 169.44 190.30 172.44 187.05 172.11 C 187.04 169.57 187.04 164.49 187.03 161.96 Z" />
</g>
<g id="#8c909fff">
<path fill="#8c909f" opacity="1.00" d=" M 202.52 168.21 C 201.76 165.41 204.75 160.26 207.68 163.30 C 210.55 164.54 208.04 167.54 206.90 169.15 C 205.43 168.86 203.97 168.54 202.52 168.21 Z" />
</g>
<g id="#535865ff">
<path fill="#535865" opacity="1.00" d=" M 153.23 163.18 C 156.41 163.39 162.05 163.58 161.79 167.68 C 159.51 169.50 152.69 175.14 158.77 176.01 C 158.50 169.46 165.27 175.81 161.99 180.04 C 158.58 180.57 157.05 176.92 154.35 175.61 C 150.81 173.68 156.82 172.32 154.89 169.32 C 150.73 169.60 149.69 165.03 153.23 163.18 Z" />
</g>
<g id="#626b6bff">
<path fill="#626b6b" opacity="1.00" d=" M 174.82 163.21 C 178.50 164.38 178.88 170.16 174.67 171.66 C 165.19 167.07 174.23 176.69 169.19 174.88 C 166.95 169.60 168.17 164.05 174.82 163.21 Z" />
</g>
<g id="#7a7d88ff">
<path fill="#7a7d88" opacity="1.00" d=" M 213.20 163.08 C 215.48 162.16 217.24 167.49 214.37 167.43 C 211.37 168.86 212.60 164.54 213.20 163.08 Z" />
</g>
<g id="#858b8eff">
<path fill="#858b8e" opacity="1.00" d=" M 180.83 166.35 C 185.76 159.22 186.77 173.93 180.48 168.94 C 180.57 168.29 180.74 167.00 180.83 166.35 Z" />
</g>
<g id="#24272ffc">
<path fill="#24272f" opacity="1.00" d=" M 307.64 169.10 C 309.20 167.44 310.57 165.06 313.09 164.88 C 308.25 170.00 306.83 176.82 306.41 183.60 C 302.22 187.00 298.57 190.97 294.70 194.72 C 293.87 195.56 292.99 196.35 292.16 197.19 C 288.91 198.95 285.58 199.81 287.61 195.05 C 288.71 193.99 289.86 192.98 291.00 191.96 C 294.09 188.60 298.13 178.97 290.00 179.62 C 290.25 175.90 293.98 175.77 296.19 178.05 C 297.80 177.93 299.35 177.43 300.89 176.96 C 300.11 178.64 299.39 180.35 298.91 182.14 C 303.90 179.97 305.06 173.54 307.64 169.10 Z" />
</g>
<g id="#3a3e49fe">
<path fill="#3a3e49" opacity="1.00" d=" M 313.09 164.88 C 314.42 164.84 315.84 164.84 317.04 165.55 C 315.56 166.53 314.15 167.63 312.93 168.92 C 314.05 170.90 316.98 172.66 315.25 175.14 C 314.42 179.34 305.90 180.31 308.86 185.05 C 309.38 186.63 311.63 185.69 312.90 186.09 C 312.66 186.37 312.17 186.94 311.93 187.22 C 309.42 189.91 307.41 193.01 305.32 196.03 C 305.33 193.14 301.96 194.07 300.05 193.98 C 298.25 194.14 296.48 194.45 294.70 194.72 C 298.57 190.97 302.22 187.00 306.41 183.60 C 306.83 176.82 308.25 170.00 313.09 164.88 Z" />
</g>
<g id="#7e8599ff">
<path fill="#7e8599" opacity="1.00" d=" M 219.56 166.15 C 221.52 166.12 223.49 166.32 225.34 167.04 C 224.86 170.61 218.93 169.83 219.56 166.15 Z" />
</g>
<g id="#54595ff8">
<path fill="#54595f" opacity="0.97" d=" M 312.93 168.92 C 314.15 167.63 315.56 166.53 317.04 165.55 C 324.93 169.53 320.58 177.06 315.91 182.01 C 314.91 183.38 314.00 184.81 312.90 186.09 C 311.63 185.69 309.38 186.63 308.86 185.05 C 305.90 180.31 314.42 179.34 315.25 175.14 C 316.98 172.66 314.05 170.90 312.93 168.92 Z" />
</g>
<g id="#101011a7">
<path fill="#101011" opacity="0.65" d=" M 300.89 176.96 C 302.76 173.56 304.51 170.06 307.00 167.06 C 307.16 167.57 307.48 168.59 307.64 169.10 C 305.06 173.54 303.90 179.97 298.91 182.14 C 299.39 180.35 300.11 178.64 300.89 176.96 Z" />
</g>
<g id="#0000002c">
</g>
<g id="#54586df8">
<path fill="#54586d" opacity="0.97" d=" M 128.79 168.53 C 135.65 165.58 137.73 179.56 133.86 182.35 C 128.69 180.44 125.58 174.14 128.29 169.12 L 128.79 168.53 Z" />
</g>
<g id="#6f757cff">
<path fill="#6f757c" opacity="1.00" d=" M 202.52 168.21 C 203.97 168.54 205.43 168.86 206.90 169.15 C 206.58 171.54 206.34 173.94 206.17 176.35 C 207.11 174.66 206.67 171.51 209.08 171.19 C 212.76 172.91 215.92 165.16 218.88 169.23 C 219.63 171.35 218.06 172.12 216.24 172.45 C 215.28 178.52 215.82 184.68 215.34 190.78 C 217.75 192.58 220.51 193.85 223.22 195.14 C 223.78 198.91 220.36 200.51 217.86 202.45 C 215.58 202.63 214.91 199.89 213.13 198.96 C 208.82 203.50 213.11 212.26 219.00 206.92 C 214.60 209.14 219.99 214.92 214.20 215.27 C 220.44 219.01 213.11 222.26 209.01 222.81 C 209.51 215.59 204.36 227.03 200.97 223.07 C 196.37 221.40 203.43 218.89 204.06 216.25 C 204.72 213.07 208.14 207.39 202.97 207.09 C 199.41 208.58 197.90 214.88 193.09 214.00 C 189.19 213.26 192.63 208.50 194.78 207.43 C 192.37 204.39 186.68 203.53 186.91 199.01 C 188.57 198.74 194.33 200.76 191.05 197.98 C 185.59 196.49 189.52 185.85 193.81 191.04 C 192.85 186.90 196.53 177.96 189.45 178.13 C 189.53 182.00 184.68 181.81 185.71 177.78 C 185.75 177.07 185.84 175.64 185.88 174.93 C 189.00 171.81 195.29 173.55 198.55 176.22 C 195.92 181.15 199.29 186.84 203.99 189.10 C 204.83 190.93 205.05 194.62 207.85 193.98 C 209.24 190.19 210.33 186.25 210.86 182.25 C 209.41 179.49 207.95 183.05 207.04 184.30 C 203.82 182.11 200.08 178.30 201.98 174.11 C 203.40 171.93 200.16 169.93 202.52 168.21 Z" />
</g>
<g id="#636575ff">
<path fill="#636575" opacity="1.00" d=" M 236.48 170.19 C 241.39 170.29 248.01 170.58 250.05 175.91 C 248.67 177.38 247.16 178.72 245.71 180.11 C 244.16 181.18 242.70 182.37 241.12 183.39 C 238.25 177.31 232.83 181.00 228.00 182.06 C 227.11 177.60 229.14 173.37 232.51 170.63 C 230.87 174.58 236.81 173.41 236.48 170.19 Z" />
</g>
<g id="#626575ff">
<path fill="#626575" opacity="1.00" d=" M 224.19 171.06 C 229.91 171.65 224.50 180.29 226.89 184.19 C 224.57 181.07 224.71 181.43 222.01 183.07 C 221.96 179.08 221.13 174.29 224.19 171.06 Z" />
</g>
<g id="#4c5766ff">
<path fill="#4c5766" opacity="1.00" d=" M 268.81 178.01 C 269.75 177.59 270.70 177.20 271.67 176.84 C 272.90 178.43 274.13 180.03 275.44 181.56 C 280.94 186.70 265.68 183.73 268.81 178.01 Z" />
</g>
<g id="#5c6366ff">
<path fill="#5c6366" opacity="1.00" d=" M 181.26 194.05 C 187.57 189.66 180.60 182.65 185.71 177.78 C 184.68 181.81 189.53 182.00 189.45 178.13 C 196.53 177.96 192.85 186.90 193.81 191.04 C 189.52 185.85 185.59 196.49 191.05 197.98 C 194.33 200.76 188.57 198.74 186.91 199.01 C 186.68 203.53 192.37 204.39 194.78 207.43 C 192.63 208.50 189.19 213.26 193.09 214.00 C 197.90 214.88 199.41 208.58 202.97 207.09 C 208.14 207.39 204.72 213.07 204.06 216.25 C 203.43 218.89 196.37 221.40 200.97 223.07 C 204.36 227.03 209.51 215.59 209.01 222.81 C 205.64 227.12 200.76 227.75 199.07 233.51 C 197.78 232.43 197.35 230.94 197.50 229.32 C 198.19 225.29 192.90 224.10 192.69 220.11 C 195.14 218.76 199.01 219.80 198.04 216.03 C 194.85 219.15 184.94 214.16 187.37 220.92 C 185.83 225.15 186.35 231.11 192.05 231.49 C 186.47 232.29 188.35 236.80 190.77 239.98 C 189.55 242.07 185.93 242.57 183.89 244.25 C 181.17 242.23 178.83 234.09 175.98 239.74 C 180.79 240.67 185.05 247.95 178.08 249.13 C 180.77 241.61 171.28 240.91 166.00 240.24 L 164.93 240.01 C 164.72 237.73 166.40 236.82 168.24 236.10 C 171.83 231.30 160.46 230.59 160.96 225.16 C 164.34 223.00 169.31 222.91 173.09 223.90 C 169.23 227.71 170.65 233.65 175.01 235.88 C 179.96 234.12 180.82 227.73 176.00 225.10 C 180.52 224.78 173.14 220.61 172.42 218.28 C 169.80 218.91 168.03 221.98 164.95 221.02 C 164.19 214.61 172.27 215.61 176.24 216.66 C 174.79 213.63 173.18 210.57 173.10 207.12 C 174.59 207.21 176.89 208.64 177.33 206.37 C 178.85 202.76 183.24 203.36 179.82 199.19 C 184.89 201.16 182.19 196.88 181.26 194.05 M 182.22 205.11 C 180.51 206.10 180.10 210.18 183.00 209.03 C 187.44 209.80 186.13 203.30 182.22 205.11 Z" />
</g>
<g id="#1e2126f7">
<path fill="#1e2126" opacity="0.97" d=" M 316.92 184.23 C 319.18 180.75 322.35 176.95 327.12 179.63 C 326.58 179.68 325.51 179.79 324.97 179.84 C 318.17 180.39 318.35 189.61 314.83 193.86 C 309.48 196.97 305.45 201.71 303.54 207.65 C 300.65 209.40 301.56 205.68 301.14 203.92 C 302.33 201.18 303.70 198.53 305.32 196.03 C 307.41 193.01 309.42 189.91 311.93 187.22 C 312.23 191.38 316.80 186.46 316.92 184.23 Z" />
</g>
<g id="#595d64f8">
<path fill="#595d64" opacity="0.97" d=" M 324.97 179.84 C 325.51 179.79 326.58 179.68 327.12 179.63 C 334.89 182.40 329.34 189.66 326.07 194.07 C 323.24 194.87 320.03 195.44 319.27 191.78 C 321.26 188.92 323.07 185.29 326.85 184.61 C 325.41 183.22 323.10 181.96 324.97 179.84 Z" />
</g>
<g id="#898e94ff">
<path fill="#898e94" opacity="1.00" d=" M 207.04 184.30 C 207.95 183.05 209.41 179.49 210.86 182.25 C 210.33 186.25 209.24 190.19 207.85 193.98 C 205.05 194.62 204.83 190.93 203.99 189.10 C 207.51 189.93 207.09 186.79 207.04 184.30 Z" />
</g>
<g id="#0101011f">
</g>
<g id="#08090860">
</g>
<g id="#697177ff">
<path fill="#697177" opacity="1.00" d=" M 287.61 195.05 C 282.11 193.96 281.48 187.34 286.34 185.06 C 291.93 182.36 292.65 188.82 291.00 191.96 C 289.86 192.98 288.71 193.99 287.61 195.05 Z" />
</g>
<g id="#6b7474ff">
<path fill="#6b7474" opacity="1.00" d=" M 169.99 190.98 C 174.42 187.43 179.84 194.05 175.68 196.71 C 172.73 199.61 167.20 194.62 169.99 190.98 Z" />
</g>
<g id="#28292aa3">
<path fill="#28292a" opacity="0.64" d=" M 236.20 192.75 C 237.76 198.07 237.11 203.86 236.20 209.24 C 235.92 203.75 236.12 198.24 236.20 192.75 Z" />
</g>
<g id="#525d6aff">
<path fill="#525d6a" opacity="1.00" d=" M 294.70 194.72 C 296.48 194.45 298.25 194.14 300.05 193.98 C 295.70 196.54 297.06 201.58 299.11 205.20 C 294.10 207.16 288.99 202.25 292.16 197.19 C 292.99 196.35 293.87 195.56 294.70 194.72 Z" />
</g>
<g id="#7e888fff">
<path fill="#7e888f" opacity="1.00" d=" M 300.05 193.98 C 301.96 194.07 305.33 193.14 305.32 196.03 C 303.70 198.53 302.33 201.18 301.14 203.92 C 300.63 204.24 299.62 204.88 299.11 205.20 C 297.06 201.58 295.70 196.54 300.05 193.98 Z" />
</g>
<g id="#6c7782fb">
<path fill="#6c7782" opacity="1.00" d=" M 308.50 202.59 C 310.03 197.26 320.34 193.74 318.29 202.20 C 316.64 205.84 313.99 208.89 312.17 212.44 C 307.59 211.65 303.41 206.20 308.50 202.59 Z" />
</g>
<g id="#51576aff">
<path fill="#51576a" opacity="1.00" d=" M 259.98 208.09 C 258.61 202.29 264.64 194.73 270.05 200.19 C 273.74 203.46 276.29 212.62 269.97 213.43 C 268.18 212.36 266.32 211.52 264.47 213.01 C 262.32 212.08 261.31 209.86 259.98 208.09 Z" />
</g>
<g id="#474b55ff">
<path fill="#474b55" opacity="1.00" d=" M 213.13 198.96 C 214.91 199.89 215.58 202.63 217.86 202.45 C 218.84 203.40 219.67 205.96 221.19 204.24 C 225.81 200.90 218.59 211.65 224.93 210.44 C 223.38 213.88 222.65 217.03 226.74 219.11 C 225.82 211.84 233.11 215.93 231.29 221.14 C 231.03 221.44 230.51 222.04 230.25 222.34 C 227.88 221.82 224.66 219.94 223.84 223.38 C 219.85 223.91 219.72 226.81 220.83 230.04 C 218.65 230.17 216.20 228.54 214.20 229.71 C 212.17 231.31 210.26 233.07 208.49 234.96 C 203.70 237.91 212.17 240.28 208.89 242.94 C 206.37 241.80 203.94 240.30 201.14 240.02 C 198.07 243.70 200.91 249.70 197.46 252.93 C 192.78 248.70 195.42 242.36 198.86 238.15 C 194.08 238.72 198.10 235.66 199.07 233.51 C 200.76 227.75 205.64 227.12 209.01 222.81 C 213.11 222.26 220.44 219.01 214.20 215.27 C 219.99 214.92 214.60 209.14 219.00 206.92 C 213.11 212.26 208.82 203.50 213.13 198.96 Z" />
</g>
<g id="#00000011">
</g>
<g id="#0000004a">
</g>
<g id="#62697bff">
<path fill="#62697b" opacity="1.00" d=" M 168.23 202.09 C 171.32 201.15 173.24 204.43 173.10 207.12 C 169.67 209.75 165.06 205.41 168.23 202.09 Z" />
</g>
<g id="#5d6374ff">
<path fill="#5d6374" opacity="1.00" d=" M 155.21 203.19 C 159.11 203.16 159.16 216.17 151.97 212.00 C 151.11 208.58 152.80 205.37 155.21 203.19 Z" />
</g>
<g id="#92969aff">
<path fill="#92969a" opacity="1.00" d=" M 182.22 205.11 C 186.13 203.30 187.44 209.80 183.00 209.03 C 180.10 210.18 180.51 206.10 182.22 205.11 Z" />
</g>
<g id="#21232bfd">
<path fill="#21232b" opacity="1.00" d=" M 259.98 208.09 C 261.31 209.86 262.32 212.08 264.47 213.01 C 272.24 217.09 259.07 217.62 261.23 223.24 C 256.62 223.90 254.72 227.84 251.00 229.89 C 245.91 232.83 247.45 241.69 253.04 243.09 C 253.44 247.53 255.98 260.69 248.04 255.70 C 247.79 252.52 244.12 254.38 244.59 256.93 C 237.28 255.63 248.08 249.16 242.94 246.12 C 239.39 244.85 238.43 241.38 236.79 238.43 C 233.36 238.97 231.19 235.93 228.66 234.20 C 225.93 231.17 225.44 226.98 223.84 223.38 C 224.66 219.94 227.88 221.82 230.25 222.34 C 229.29 224.22 228.32 226.09 227.49 228.03 C 226.36 234.75 239.45 233.03 237.46 226.18 C 237.70 223.08 239.87 220.83 242.07 218.90 C 245.72 219.02 249.28 219.97 252.86 220.60 C 255.86 216.84 258.14 212.52 259.98 208.09 Z" />
</g>
<g id="#4e5353fa">
<path fill="#4e5353" opacity="0.98" d=" M 298.93 210.98 C 299.50 208.24 303.37 208.34 304.16 210.89 C 302.90 212.04 301.51 213.03 300.29 214.22 C 300.13 217.49 304.15 217.85 304.29 221.09 C 302.95 228.20 301.71 235.34 299.41 242.24 C 299.72 235.75 295.45 232.22 289.30 231.93 C 291.34 228.90 287.02 224.16 293.55 224.64 C 294.31 227.15 293.92 232.19 297.91 231.01 C 301.62 230.38 299.66 225.85 298.15 223.88 C 298.58 219.59 297.63 215.11 298.93 210.98 Z" />
</g>
<g id="#4d5450ff">
<path fill="#4d5450" opacity="1.00" d=" M 281.78 221.80 C 286.15 219.97 282.85 213.49 288.82 212.81 L 288.63 213.66 C 287.60 216.51 289.16 219.38 289.96 222.08 C 287.13 220.40 282.06 221.67 285.91 224.91 C 281.05 227.66 275.60 225.58 274.13 220.20 C 277.38 215.55 278.68 225.84 281.78 221.80 Z" />
</g>
<g id="#2f3136fb">
<path fill="#2f3136" opacity="1.00" d=" M 141.91 216.32 C 145.26 210.62 146.17 221.18 145.11 223.87 C 149.24 223.73 150.73 225.99 151.20 229.88 C 158.94 232.99 149.95 220.04 159.77 223.82 C 156.82 229.56 158.78 237.61 164.93 240.01 L 166.00 240.24 C 165.67 240.53 165.01 241.09 164.68 241.38 C 161.29 240.81 156.69 235.25 155.51 241.07 C 151.99 235.80 147.22 231.44 144.22 225.84 C 143.58 224.18 142.95 222.53 142.35 220.87 C 142.18 219.35 142.04 217.84 141.91 216.32 Z" />
</g>
<g id="#71747aff">
<path fill="#71747a" opacity="1.00" d=" M 289.96 222.08 C 289.16 219.38 287.60 216.51 288.63 213.66 C 296.14 210.93 297.30 223.03 289.96 222.08 Z" />
</g>
<g id="#898d9bff">
<path fill="#898d9b" opacity="1.00" d=" M 187.37 220.92 C 184.94 214.16 194.85 219.15 198.04 216.03 C 199.01 219.80 195.14 218.76 192.69 220.11 C 191.13 221.36 188.00 224.81 187.37 220.92 Z" />
</g>
<g id="#00000059">
</g>
<g id="#0f1012f1">
<path fill="#0f1012" opacity="0.95" d=" M 227.49 228.03 C 233.76 230.27 234.34 216.58 242.07 218.90 C 239.87 220.83 237.70 223.08 237.46 226.18 C 239.45 233.03 226.36 234.75 227.49 228.03 Z" />
</g>
<g id="#6a7074ff">
<path fill="#6a7074" opacity="1.00" d=" M 187.37 220.92 C 188.00 224.81 191.13 221.36 192.69 220.11 C 192.90 224.10 198.19 225.29 197.50 229.32 C 197.35 230.94 197.78 232.43 199.07 233.51 C 198.10 235.66 194.08 238.72 198.86 238.15 C 195.42 242.36 192.78 248.70 197.46 252.93 C 200.91 249.70 198.07 243.70 201.14 240.02 C 203.94 240.30 206.37 241.80 208.89 242.94 C 212.17 240.28 203.70 237.91 208.49 234.96 C 210.55 236.68 212.45 238.07 211.24 241.04 C 217.73 242.07 220.44 232.42 214.20 229.71 C 216.20 228.54 218.65 230.17 220.83 230.04 C 219.72 226.81 219.85 223.91 223.84 223.38 C 225.44 226.98 225.93 231.17 228.66 234.20 C 229.91 238.63 234.26 240.74 236.81 244.28 C 238.22 248.84 232.22 251.89 228.32 251.39 C 224.91 253.75 223.26 258.54 218.88 259.34 C 217.58 258.88 216.29 258.44 214.99 258.03 C 211.09 257.01 212.82 251.05 208.34 255.03 C 209.89 250.69 205.17 242.66 203.31 250.40 C 197.83 252.41 204.89 257.10 199.10 257.92 C 195.80 251.34 192.85 262.63 188.08 259.87 C 188.69 257.71 191.15 253.08 187.01 253.42 C 189.78 248.44 183.41 248.70 183.89 244.25 C 185.93 242.57 189.55 242.07 190.77 239.98 C 188.35 236.80 186.47 232.29 192.05 231.49 C 186.35 231.11 185.83 225.15 187.37 220.92 M 191.16 242.16 C 190.16 246.80 195.80 241.16 191.16 242.16 Z" />
</g>
<g id="#0000006b">
</g>
<g id="#8c8c98ff">
<path fill="#8c8c98" opacity="1.00" d=" M 173.09 223.90 C 174.08 224.25 175.04 224.66 176.00 225.10 C 180.82 227.73 179.96 234.12 175.01 235.88 C 170.65 233.65 169.23 227.71 173.09 223.90 Z" />
</g>
<g id="#81895dff">
<path fill="#81895d" opacity="1.00" d=" M 293.55 224.64 C 295.06 224.30 296.61 224.08 298.15 223.88 C 299.66 225.85 301.62 230.38 297.91 231.01 C 293.92 232.19 294.31 227.15 293.55 224.64 Z" />
</g>
<g id="#575b62ff">
<path fill="#575b62" opacity="1.00" d=" M 275.14 225.33 C 280.00 225.78 273.50 230.52 275.14 225.33 Z" />
</g>
<g id="#01010182">
</g>
<g id="#00000025">
</g>
<g id="#8c9290ff">
<path fill="#8c9290" opacity="1.00" d=" M 214.20 229.71 C 220.44 232.42 217.73 242.07 211.24 241.04 C 212.45 238.07 210.55 236.68 208.49 234.96 C 210.26 233.07 212.17 231.31 214.20 229.71 Z" />
</g>
<g id="#4b5057fe">
<path fill="#4b5057" opacity="1.00" d=" M 253.04 243.09 C 247.45 241.69 245.91 232.83 251.00 229.89 C 245.98 234.61 255.55 247.18 258.27 238.18 C 261.17 230.10 264.34 240.10 266.46 243.47 C 270.52 242.68 273.45 245.98 277.05 247.25 C 270.72 249.26 276.09 257.22 281.15 256.07 C 281.24 253.89 276.27 251.26 279.59 250.26 C 280.65 253.94 285.14 246.25 280.19 246.74 C 275.92 243.55 269.62 232.90 277.02 230.90 C 279.74 235.54 279.49 241.83 284.01 245.25 C 283.40 248.21 284.92 250.61 287.73 248.58 C 288.48 248.59 289.97 248.62 290.72 248.63 C 293.22 248.60 295.73 248.52 298.24 248.38 C 297.87 249.87 297.37 251.32 296.91 252.79 C 296.51 253.75 296.13 254.71 295.76 255.68 C 294.70 255.98 293.68 256.37 292.70 256.85 C 289.93 258.48 289.96 261.74 290.58 264.66 C 289.29 267.30 281.06 269.98 288.16 270.28 C 285.96 271.36 283.59 272.02 281.19 272.50 C 278.36 271.54 275.83 269.85 272.95 269.01 C 273.61 268.44 274.24 267.84 274.85 267.21 C 277.81 263.41 275.87 259.64 271.29 260.74 C 267.55 260.41 263.90 261.32 260.24 261.90 C 255.54 259.27 264.10 253.92 260.55 252.51 C 257.83 257.70 248.00 247.48 259.10 250.78 C 258.20 247.72 257.24 242.39 253.04 243.09 Z" />
</g>
<g id="#5b6179ff">
<path fill="#5b6179" opacity="1.00" d=" M 251.00 229.89 C 256.24 228.59 256.68 234.73 258.27 238.18 C 255.55 247.18 245.98 234.61 251.00 229.89 Z" />
</g>
<g id="#7a845cff">
<path fill="#7a845c" opacity="1.00" d=" M 277.02 230.90 C 281.27 230.45 285.73 231.17 288.26 234.89 C 291.32 238.77 289.38 245.17 284.01 245.25 C 279.49 241.83 279.74 235.54 277.02 230.90 Z" />
</g>
<g id="#63686efd">
<path fill="#63686e" opacity="1.00" d=" M 289.30 231.93 C 295.45 232.22 299.72 235.75 299.41 242.24 C 299.12 243.77 298.54 246.84 298.24 248.38 C 295.73 248.52 293.22 248.60 290.72 248.63 C 292.69 247.71 295.02 247.93 296.89 246.81 C 298.02 241.31 288.85 245.09 287.73 248.58 C 284.92 250.61 283.40 248.21 284.01 245.25 C 289.38 245.17 291.32 238.77 288.26 234.89 C 291.61 235.90 290.39 233.93 289.30 231.93 Z" />
</g>
<g id="#444956ff">
<path fill="#444956" opacity="1.00" d=" M 228.66 234.20 C 231.19 235.93 233.36 238.97 236.79 238.43 C 238.43 241.38 239.39 244.85 242.94 246.12 C 248.08 249.16 237.28 255.63 244.59 256.93 C 244.12 254.38 247.79 252.52 248.04 255.70 C 246.11 258.18 244.60 264.23 240.84 259.24 C 242.53 253.27 236.63 249.42 234.19 255.14 C 233.21 259.57 228.23 257.61 224.84 258.11 C 226.29 259.22 229.41 259.33 228.95 261.75 C 225.14 263.28 221.10 263.23 218.88 259.34 C 223.26 258.54 224.91 253.75 228.32 251.39 C 232.22 251.89 238.22 248.84 236.81 244.28 C 234.26 240.74 229.91 238.63 228.66 234.20 Z" />
</g>
<g id="#00000019">
</g>
<g id="#444a54ff">
<path fill="#444a54" opacity="1.00" d=" M 175.98 239.74 C 178.83 234.09 181.17 242.23 183.89 244.25 C 183.41 248.70 189.78 248.44 187.01 253.42 C 191.15 253.08 188.69 257.71 188.08 259.87 C 192.85 262.63 195.80 251.34 199.10 257.92 C 204.89 257.10 197.83 252.41 203.31 250.40 C 205.17 242.66 209.89 250.69 208.34 255.03 C 212.82 251.05 211.09 257.01 214.99 258.03 C 215.01 258.73 215.06 260.15 215.08 260.86 C 210.51 259.75 199.22 258.61 200.89 265.94 C 198.23 264.92 195.23 264.52 193.22 266.95 C 191.79 261.09 184.22 266.86 181.05 262.13 C 178.47 264.56 175.60 266.73 171.81 266.28 C 170.48 265.83 169.15 265.39 167.80 265.02 C 168.43 264.34 169.06 263.68 169.70 263.02 C 171.66 264.06 173.75 264.90 175.97 265.18 C 173.16 261.32 172.88 256.55 174.02 252.02 C 170.38 257.25 172.79 247.62 170.09 245.54 C 169.31 243.10 166.75 242.35 164.68 241.38 C 165.01 241.09 165.67 240.53 166.00 240.24 C 171.28 240.91 180.77 241.61 178.08 249.13 C 185.05 247.95 180.79 240.67 175.98 239.74 Z" />
</g>
<g id="#515846fc">
<path fill="#515846" opacity="1.00" d=" M 155.51 241.07 C 156.69 235.25 161.29 240.81 164.68 241.38 C 166.75 242.35 169.31 243.10 170.09 245.54 C 167.53 247.17 165.36 249.86 164.96 252.92 C 167.52 255.92 170.64 258.71 169.70 263.02 C 169.06 263.68 168.43 264.34 167.80 265.02 C 164.10 264.40 160.98 262.30 158.07 260.06 C 157.22 257.60 156.26 255.18 155.22 252.79 C 155.15 252.35 155.02 251.45 154.96 251.01 C 155.02 247.69 155.27 244.37 155.51 241.07 Z" />
</g>
<g id="#c1c3c7ff">
<path fill="#c1c3c7" opacity="1.00" d=" M 191.16 242.16 C 195.80 241.16 190.16 246.80 191.16 242.16 Z" />
</g>
<g id="#353945fc">
<path fill="#353945" opacity="1.00" d=" M 253.04 243.09 C 257.24 242.39 258.20 247.72 259.10 250.78 C 248.00 247.48 257.83 257.70 260.55 252.51 C 264.10 253.92 255.54 259.27 260.24 261.90 C 263.90 261.32 267.55 260.41 271.29 260.74 L 270.70 261.58 C 264.18 261.66 268.34 269.80 272.95 269.01 C 275.83 269.85 278.36 271.54 281.19 272.50 C 276.93 273.34 272.57 273.64 268.29 274.37 C 260.45 273.90 252.61 273.98 244.77 274.22 C 234.54 274.09 226.34 265.11 216.03 267.82 C 216.02 265.42 218.90 260.88 215.08 260.86 C 215.06 260.15 215.01 258.73 214.99 258.03 C 216.29 258.44 217.58 258.88 218.88 259.34 C 221.10 263.23 225.14 263.28 228.95 261.75 C 229.41 259.33 226.29 259.22 224.84 258.11 C 228.23 257.61 233.21 259.57 234.19 255.14 C 236.63 249.42 242.53 253.27 240.84 259.24 C 244.60 264.23 246.11 258.18 248.04 255.70 C 255.98 260.69 253.44 247.53 253.04 243.09 Z" />
</g>
<g id="#888e91ff">
<path fill="#888e91" opacity="1.00" d=" M 287.73 248.58 C 288.85 245.09 298.02 241.31 296.89 246.81 C 295.02 247.93 292.69 247.71 290.72 248.63 C 289.97 248.62 288.48 248.59 287.73 248.58 Z" />
</g>
<g id="#68705aff">
<path fill="#68705a" opacity="1.00" d=" M 164.96 252.92 C 165.36 249.86 167.53 247.17 170.09 245.54 C 172.79 247.62 170.38 257.25 174.02 252.02 C 172.88 256.55 173.16 261.32 175.97 265.18 C 173.75 264.90 171.66 264.06 169.70 263.02 C 170.64 258.71 167.52 255.92 164.96 252.92 Z" />
</g>
<g id="#707383ff">
<path fill="#707383" opacity="1.00" d=" M 277.05 247.25 C 277.84 247.12 279.41 246.86 280.19 246.74 C 285.14 246.25 280.65 253.94 279.59 250.26 C 276.27 251.26 281.24 253.89 281.15 256.07 C 276.09 257.22 270.72 249.26 277.05 247.25 Z" />
</g>
<g id="#383b4096">
</g>
<g id="#9094a0fc">
<path fill="#9094a0" opacity="1.00" d=" M 292.70 256.85 C 293.68 256.37 294.70 255.98 295.76 255.68 C 295.92 257.51 296.11 259.34 296.26 261.17 C 295.93 261.70 295.26 262.74 294.92 263.27 C 292.53 262.30 291.79 260.16 292.70 256.85 Z" />
</g>
<g id="#626975f5">
<path fill="#626975" opacity="0.96" d=" M 290.58 264.66 C 289.96 261.74 289.93 258.48 292.70 256.85 C 291.79 260.16 292.53 262.30 294.92 263.27 C 292.96 265.85 290.61 268.15 288.16 270.28 C 281.06 269.98 289.29 267.30 290.58 264.66 Z" />
</g>
<g id="#898c9afe">
<path fill="#898c9a" opacity="1.00" d=" M 200.89 265.94 C 199.22 258.61 210.51 259.75 215.08 260.86 C 218.90 260.88 216.02 265.42 216.03 267.82 C 214.73 268.92 213.47 270.08 212.15 271.16 C 207.15 273.38 203.89 269.22 200.89 265.94 Z" />
</g>
<g id="#9da0afff">
<path fill="#9da0af" opacity="1.00" d=" M 271.29 260.74 C 275.87 259.64 277.81 263.41 274.85 267.21 C 272.22 266.51 270.61 264.30 270.70 261.58 L 271.29 260.74 Z" />
</g>
<g id="#2e3139f8">
<path fill="#2e3139" opacity="0.97" d=" M 171.81 266.28 C 175.60 266.73 178.47 264.56 181.05 262.13 C 184.22 266.86 191.79 261.09 193.22 266.95 C 193.05 268.36 192.89 269.77 192.73 271.19 C 185.52 271.02 177.97 270.34 171.81 266.28 Z" />
</g>
<g id="#686b7dff">
<path fill="#686b7d" opacity="1.00" d=" M 272.95 269.01 C 268.34 269.80 264.18 261.66 270.70 261.58 C 270.61 264.30 272.22 266.51 274.85 267.21 C 274.24 267.84 273.61 268.44 272.95 269.01 Z" />
</g>
<g id="#4f5739f6">
<path fill="#4f5739" opacity="0.96" d=" M 193.22 266.95 C 195.23 264.52 198.23 264.92 200.89 265.94 C 203.89 269.22 207.15 273.38 212.15 271.16 C 210.87 272.28 209.46 273.25 207.98 274.10 C 202.76 273.98 197.07 274.64 192.73 271.19 C 192.89 269.77 193.05 268.36 193.22 266.95 Z" />
</g>
<g id="#0e0e1273">
</g>
</svg>



