<svg xmlns="http://www.w3.org/2000/svg" width="512" height="512" viewBox="0 0 384 384" xmlns:v="https://vecta.io/nano"><path fill="#4a4f58" d="M169.33 25.37c2.71-6.25 10.67.51 12.61-6.81 1.52 1.04 3.55 1.02 5.09.03 1.88 3.49 4.12 4.11 6.01.25 1.61.37 3.27.31 4.89.05 1.78 2.28 4.06 4.14 6.82 5.11 2.68 3.66-3.15 3.74-3.96 6.89 2.43-.29 4.86-.53 7.3-.75.27 3.5-5.16.78-5.96 3.72l-.47.83c-2.85 5.98-.7-5.25-5.32-3.44-.94-6.52-11.66-4.67-6.91 1.52-4.88 4.02 1.31 5.57 3.51 1.22 2.43 2.21-.96 4.04-1.89 6.08.9 2.47 1.98 4.94 1.76 7.63-6.59-2.41-6.35 3.85-8.12 7.55-4.32-.6 1.62 9.72-2.51 5.61-.63-5.32-5.98 2.01-5.94-4.18-2.19-2.2-6.07-1.59-8.3.3-1.78-4.02-6.61-1.83-9.73-3.92-1.99 3.1-4.02 8.41-9.36 6.97.91-6.28 9.76-7.03 10.11-13.3-1.1-2.18 1.99-3.46 1.45-5.7a55.82 55.82 0 0 1 .3-1.24c4.84-3.24 11.1-7.51 8.62-14.42m7.98 9.92c-1.25.42-2.8.79-2.23 2.48 3.91.37 7.23 2.74 10.97 3.28-.7-3.27-5.3-6.79-8.74-5.76z"/><path fill="#46454c" opacity=".94" d="M204.75 24c5.01-2.89 10.4-2.4 14.24 2.14 1.18 5.41-5.58 7.46-8.27 10.9l-1.07-1.08c-.27-3.09 2.4-4.11 4.09-6.06-1.48-3.93-3.44-8.36-8.99-5.9z"/><path fill="#6c7271" d="M204.75 24c5.55-2.46 7.51 1.97 8.99 5.9-1.69 1.95-4.36 2.97-4.09 6.06-2.89 1.25-5.2-.62-7.52-2.1.8-2.94 6.23-.22 5.96-3.72l-7.3.75c.81-3.15 6.64-3.23 3.96-6.89z"/><path fill="#6c6f74" d="M189.43 32.77c-4.75-6.19 5.97-8.04 6.91-1.52 4.62-1.81 2.47 9.42 5.32 3.44-.5 6.07 7.34 11.85 10.87 5.15l1.42 1.28c2.68 4.25 9.7 1.07 11.07 5.81-3.67 1.29-8.3 1.84-9.08 6.48-2.24-1.5-4.05-4.16-7.12-3.44.68 1.59 2.06 2.67 3.16 3.95-4.25 2.9-14.01-5.31-12.99 4.09l-.76.2c-6.38.38-10.51 5.37-14.36 9.88-2.69-.52-3.71-4.3-6.95-3.13-.09 2.53 2.92 2.69 4.55 3.81-3.06 3.22-6.25 6.33-9.44 9.44 1.94-4.77 5.89-14.06-.89-15.85-1.87-1.23-2.61-3.34-3.2-5.38 2.23-1.89 6.11-2.5 8.3-.3-3.9-1.23-4.54 4.41-1.35 5.35 1.28-1.48 1.09-3.54 1.35-5.35-.04 6.19 5.31-1.14 5.94 4.18 4.13 4.11-1.81-6.21 2.51-5.61 1.77-3.7 1.53-9.96 8.12-7.55.22-2.69-.86-5.16-1.76-7.63.93-2.04 4.32-3.87 1.89-6.08-2.2 4.35-8.39 2.8-3.51-1.22m4.59 5.18c-1.2 4.45.39 10.45 5.96 9.05 1.51-4.74-.63-9.59-5.96-9.05m1.37 12.48c-1.95 1.34-5.29 1.63-5.63 4.43-2.97 5.6 6.24 2.63 8.08-.09.68-1.69.11-5.75-2.45-4.34z"/><path fill="#9da59e" d="M202.13 33.86c2.32 1.48 4.63 3.35 7.52 2.1l1.07 1.08 1.81 2.8c-3.53 6.7-11.37.92-10.87-5.15l.47-.83z"/><path fill="#686e78" d="M177.31 35.29c3.44-1.03 8.04 2.49 8.74 5.76-3.74-.54-7.06-2.91-10.97-3.28-.57-1.69.98-2.06 2.23-2.48z"/><path fill="#92969c" d="M194.02 37.95c5.33-.54 7.47 4.31 5.96 9.05-5.57 1.4-7.16-4.6-5.96-9.05z"/><path fill="#434349" opacity=".93" d="M213.95 41.12c6.61.03 19.71-5.61 20.3 4.66-5.37 4.17-12.12 5.25-18.31 7.63.78-4.64 5.41-5.19 9.08-6.48-1.37-4.74-8.39-1.56-11.07-5.81z"/><path fill="#636a81" d="M149.02 43.05c1.55-.99 3.24-1.74 4.92-2.48 2.1.61 4.3.89 6.47.46.54 2.24-2.55 3.52-1.45 5.7-3.26.3-5.78 2.15-8.09 4.27-3 .68-3.01-3.06-3.01-5.06l1.16-2.89z"/><path fill="#424752" d="M140.92 60.84c4.05-4.12 7.4-8.79 6.94-14.9 0 2 .01 5.74 3.01 5.06 2.31-2.12 4.83-3.97 8.09-4.27-.35 6.27-9.2 7.02-10.11 13.3 5.34 1.44 7.37-3.87 9.36-6.97 3.12 2.09 7.95-.1 9.73 3.92.59 2.04 1.33 4.15 3.2 5.38-1.9.21-4.26-.83-5.77.67.9 3.22 1.27 6.56 1.63 9.88-2.19-1.11-5.95-5.23-3.24 3.16-5.69 1.12-7.07-9.3-12.53-6.13.89 1.7 1.9 3.45.76 5.32-3.2-6.28-1.65 6.32-6.68 6.3-.27 4.13 4.93 3.46 7.79 2.58-6.23 6.75 7.49 7.34 6.31-.08 5.33 2.03 10.43 6.72 16.68 1.93-1.66-2.42-5.06-4.37-4.06-7.78l9.44-9.44c3.95 4.79-8.43 13.49-1.34 18.04 2.33 2.04 2.13 5.39 3.17 8.09 2.45.72 2.73-2.42 3.08-4.08.16 5.41 5.24 8.15 9.94 9.11l-.29.91c-3.39 2.18-6.51 4.78-9.94 6.88-4.02-1.36-8.26-3.91-12.37-1.55-2.84-1.07-5.79-1.23-8.66.09.59-2.31 3.3-6.76-3.74-3.08-3.54 2.12 1.95 3.14 3.74 3.08 2.12 4.69-4.3 8.08-2.12 12.7 2.74 3.42 4.18 7.59 5.6 11.75-2.01 1.02-6.52 1.25-4.9 4.48 0 2.97 3.04-.53 4.68-.51-.82 2.41-1.21 4.92-.69 7.44-4.96 1.51-3.86 7.05 1.2 7.17 5.06.43-.85 5.93.8 7.68 1.55.95 3.35 1.19 4.89.04.88 2.48 2.39 4.55 4.9 5.56.11 2.9 1.49 6.64-1.27 8.69 2.58-7.96-8.11-7.79-9.2-1.25 1.32 4.15 6.24 3.11 9.2 1.25.38 3.6 1.1 7.22 4.83 8.58 1.03-1.72.62-4.95 3.34-4.78 2.8 5.98-3.44 11.94.09 17.53 1.16 2.01 1.73 4.21 1.7 6.6-1.06-2.03-3.47-5.83-5.88-3.17.49 6.85 6.89 8.71 11.6 12.37-1.46 3.62-6.49 1.6-7.56-1.4l-1.15-1.45c-4.24-2.9-8.59.25-6.46 5.09-2.24.01-7.12 2.16-2.84 3.58 4.77 1.05-1.11 4.87-2.81 6.53 2.49.61 9.07 6.38 3.15 5.07l-2.17-.76c-2.13-.72-4.36-1.02-6.58-1.26-1.58-3.5-9.57-5.66-8.72-.01-3.08-1.46-8.51 3.29-7.63-2.51 5.27-.4 8.98-2.56 6.37-8.49.23-2.95.63-5.87.56-8.82-4.21-1.06-8.66 9.19-2.75 9.35-5.34-.72-6.31 10.78-8.95 3.42.61-2.29 6.25-10.98.34-9.15-4.81 2.66-2.23-7.54-7.01-3.92-1.74 3.81 7.39 8.64 1.52 12.65l-1.97-1.38c-4.65-6.79-10.43-16.86-4.18-24.34 4.64 2.21 1.69 8.42 2.07 12.54 2.5-.33 2.04-3.77 4.2-4.61 3.29-.3 6.58-.87 9.77-1.65-.18-2.02-2.2-3-3.3-4.49 4.97.94 7.96-3.05 12.04-4.69 2.95-4.96-3.33-7.98-6.05-11.31-1.69-5.54-6.91-8.85-8.99-14.23-5.04-1.57-1.7 4.37-.75 6.72-1.84 1.98-3.33.64-3.4-1.71-2.58-1.01-4.48.92-5.86 2.83-2.09-2.99-4.33-1.36-6.12 1.02l.91-3.92.97-1.96.95-2.07c.46-1.25.45-2.6.55-3.91 3.25-1.8 5.39.35 7.2 2.9-.03-4.28-3.72-7.14-5.09-10.98 2.8-3.66 6.43-6.87 7.51-11.55 4.82-5.09 13.47.22 12.3 6.92-2.86 4.94 2.83 7.53 5.82 3.26 2.66-2.92.55-8.73-3.56-5.64 3.19-3.42-1.94-7.16 2.83-10.26-2.69.5-5.13 2.11-7.89 2.17-8.42-2.29-4.27-15.48-14.12-16.88-4.95-3.29-2.45 1.64.02 2.7-1.28.59-2.52 1.23-3.79 1.83-2.98-.09-6.03 2.96-6.7-1.79 1.51-4.89 4.51-9.12 6.78-13.66.17-.29.53-.86.7-1.15 1.44-2.79.71-6.22.84-9.26 1.98-7.1 4.88-14.56 2.6-22.01-.48-1.62-1.13-3.18-1.77-4.75.36-1.79.65-3.59.76-5.42 2.18 1.04 4.9 5.23 6.74 1.64 2.67-3.71 4.06-7.79-2.24-6.38m3.39 25.35c-1.98 3.94-8.86 3.16-5.3 9.88 2.57.54 2.98-2.34 3.33-4.17 1.32 2.83 3.93 3.92 6.6 1.9-.85-2.58-1.22-7.94-4.63-7.61m17.68 7.82c-.91 2.87 2.44 1.75 4.12 2.12-1.21 1.1-3.4 1.65-3.17 3.65 5.18-2.66 4.81 4.71 9.15 3.24-1.42-4.93-5.23-9.46-10.1-9.01m-5.76 4.14c-3.89 2.71 3.17 5.25 5.12 3.18 2.36-2.74-3.15-3.85-5.12-3.18m-12.83 6.1c-8.02 7.98 8.16 7.57 8.69-.2-2.89-.2-5.82-.02-8.69.2m2.87 20.05c-1.5 7.06 8.37 11.8 13.53 7.49 1.94-3.93 4.99-8.81.11-11.99-2.47-2.14-12.34-1.04-13.64 4.5m24.97 67.78c-3.73 3.02.68 7.84 4.53 6.81 3.78-2.41.46-10.19-4.53-6.81m-2.03 11.02c-2.86 1.72-.27 6.33 2.58 5.8 2.86-1.72.27-6.33-2.58-5.8z"/><path fill="#9ca2a0" d="M195.39 50.43c2.56-1.41 3.13 2.65 2.45 4.34-1.84 2.72-11.05 5.69-8.08.09.34-2.8 3.68-3.09 5.63-4.43z"/><path fill="#343339" opacity=".94" d="M208.82 49.97c3.07-.72 4.88 1.94 7.12 3.44-5.32 2.55-10.84 5.38-16.95 4.6-1.02-9.4 8.74-1.19 12.99-4.09-1.1-1.28-2.48-2.36-3.16-3.95z"/><path fill="#a5a8a5" d="M174.89 62.03c-3.19-.94-2.55-6.58 1.35-5.35-.26 1.81-.07 3.87-1.35 5.35z"/><path fill="#575956" opacity=".97" d="M183.87 68.09c3.85-4.51 7.98-9.5 14.36-9.88-.94 1.97-2.01 3.88-3.14 5.74-2.81 6.77-11.9 10.73-10.07 19.05.22 2.64.92 5.21 1.36 7.82-.35 1.66-.63 4.8-3.08 4.08-1.04-2.7-.84-6.05-3.17-8.09-7.09-4.55 5.29-13.25 1.34-18.04-1.63-1.12-4.64-1.28-4.55-3.81 3.24-1.17 4.26 2.61 6.95 3.13z"/><path fill="#525f71" d="M135.75 64.18l5.17-3.34c6.3-1.41 4.91 2.67 2.24 6.38-1.84 3.59-4.56-.6-6.74-1.64l-.67-1.4z"/><path fill="#4d5363" d="M165.37 63.03c1.51-1.5 3.87-.46 5.77-.67 6.78 1.79 2.83 11.08.89 15.85-1 3.41 2.4 5.36 4.06 7.78-6.25 4.79-11.35.1-16.68-1.93 1.18 7.42-12.54 6.83-6.31.08-.22-2.98-.98-5.89-1.11-8.88 1.14-1.87.13-3.62-.76-5.32 5.46-3.17 6.84 7.25 12.53 6.13-2.71-8.39 1.05-4.27 3.24-3.16-.36-3.32-.73-6.66-1.63-9.88z"/><path fill="#272931" d="M145.31 81.56c5.03.02 3.48-12.58 6.68-6.3.13 2.99.89 5.9 1.11 8.88-2.86.88-8.06 1.55-7.79-2.58z"/><path fill="#24262e" d="M144.31 86.19c3.41-.33 3.78 5.03 4.63 7.61-2.67 2.02-5.28.93-6.6-1.9-.35 1.83-.76 4.71-3.33 4.17-3.56-6.72 3.32-5.94 5.3-9.88z"/><path fill="#686f67" d="M161.99 94.01c4.87-.45 8.68 4.08 10.1 9.01-4.34 1.47-3.97-5.9-9.15-3.24-.23-2 1.96-2.55 3.17-3.65-1.68-.37-5.03.75-4.12-2.12z"/><path fill="#767a8d" d="M156.23 98.15c1.97-.67 7.48.44 5.12 3.18-1.95 2.07-9.01-.47-5.12-3.18z"/><path fill="#696d73" d="M196.32 99.93c4.55-.33 7.94 3.1 9.87 6.91-2.81-3.93-8.96-2.21-8.62 2.81-3.85 6.37 4.34 11.5 9.65 9.67-.4 2.09.36 4.06 1.61 5.72 1.64 2.94 4.2 5.28 7.65 5.68.56 1.92-.5 3.53-1.52 5.05-2.8-.92-4.79.85-3.6 3.73.93 11.86 1.02-.68-3.13 1.62-2.96 2.1.65 5.25 1.49 7.6-1.6 1.33-2.44 3.16-2.5 5.49-.06-2.09-.13-4.17-.33-6.24-1.07-2.86-3.26-5.09-4.99-7.55 4.35.05 4.23-7.79-.28-5.95-2.73-.1-3.89 1.23-3.11 3.89-4.51-2.08-4.53-9.52-.63-11.6 1.88-4.71-4.77-3.09-6.87-.93-2.75 2.87-6.23-.65-9.78 1.12 2.56-10.05-6.36-2.93-2.21.74-3-.61-2.42 3.44-4.79 3.16-1.09-2.29-2.17-4.66-4.84-5.39-1.13-3.62 8.28-.87 7.12-4.65-.14-3.17-2.1-6.34-5.65-6.08 3.04-.45 5.12-2.44 6.94-4.74 1.33 2.1 1.62 6.16 5.03 4.91 1.79-2.35-.4-4.13-1.84-5.88 7.05 2.77 13.34-.55 15.04-8.18l.29-.91m-8.17 11.11c-.38 4.59-6.02 5.77-6.19 9.89 2.09.21 5.02.79 3.23-2.11 4.12-.63 2.06 8.06 5.83 5.23 3.56-2.02.18-5.39-1.67-7.29 1.76-1.72 2.09-6.05-1.2-5.72z"/><path fill="#555d67" d="M186.09 107.72c3.43-2.1 6.55-4.7 9.94-6.88-1.7 7.63-7.99 10.95-15.04 8.18 1.44 1.75 3.63 3.53 1.84 5.88-3.41 1.25-3.7-2.81-5.03-4.91-1.82 2.3-3.9 4.29-6.94 4.74-4.95 4.38 1.76 8.94 5.65 6.08 1.16 3.78-8.25 1.03-7.12 4.65 2.67.73 3.75 3.1 4.84 5.39 2.37.28 1.79-3.77 4.79-3.16 2.32 2.5-3.2 8.78 4.76 5.24 1.94-.75 2.63-4.89 5.04-2.8 3.15 2.46 3.73-2.31 2.19-4.3 2.1-2.16 8.75-3.78 6.87.93-3.9 2.08-3.88 9.52.63 11.6l.61.49c-5.92-3.84-15.68 7.43-6.93 8.25-6.43 1.17-.35 5.6 1.88 8.01-3.88.79-6.15-2.35-8.43-4.84-2.93-1.39-4.95 1.87-6.76 3.62 3.83 1.03 7.63 1.93 4 6.04.18 1.5.68 2.94 1.16 4.38-2.24 1.76-3.92 7.63.31 7.09 2.56-.44 3.04 1.77 1.97 3.66-2.72-.17-2.31 3.06-3.34 4.78-3.73-1.36-4.45-4.98-4.83-8.58 2.76-2.05 1.38-5.79 1.27-8.69-2.51-1.01-4.02-3.08-4.9-5.56-.39-3.12-3.75-1.95-4.89-.04-1.65-1.75 4.26-7.25-.8-7.68-5.06-.12-6.16-5.66-1.2-7.17 2.38.32 4.99 1.07 7.27-.04-.94-2.21-3.85-4.52-1.77-6.91 3.04-3.76-4.95-4.27-4.81-.49-1.64-.02-4.68 3.48-4.68.51-1.62-3.23 2.89-3.46 4.9-4.48-1.42-4.16-2.86-8.33-5.6-11.75-2.18-4.62 4.24-8.01 2.12-12.7 2.87-1.32 5.82-1.16 8.66-.09 4.11-2.36 8.35.19 12.37 1.55z"/><path fill="#6e7a50" d="M161.32 103.18c7.04-3.68 4.33.77 3.74 3.08-1.79.06-7.28-.96-3.74-3.08z"/><path fill="#697084" d="M143.4 104.25c2.87-.22 5.8-.4 8.69-.2-.53 7.77-16.71 8.18-8.69.2z"/><path fill="#9598a9" d="M197.57 109.65c-.34-5.02 5.81-6.74 8.62-2.81.09 4.17.71 8.31 1.03 12.48-5.31 1.83-13.5-3.3-9.65-9.67m2.4 5.34c-.83 2.68 4.79 4.28 4.94 1.15-1.16-1.57-3.26-1.11-4.94-1.15z"/><path fill="#606059" opacity=".82" d="M206.19 106.84c2.84 3.5 1.42 8.41 1.03 12.48-.32-4.17-.94-8.31-1.03-12.48z"/><path fill="#808487" d="M188.15 111.04c3.29-.33 2.96 4 1.2 5.72 1.85 1.9 5.23 5.27 1.67 7.29-3.77 2.83-1.71-5.86-5.83-5.23 1.79 2.9-1.14 2.32-3.23 2.11.17-4.12 5.81-5.3 6.19-9.89z"/><path fill="#9094a4" d="M176.51 120.81c-3.89 2.86-10.6-1.7-5.65-6.08 3.55-.26 5.51 2.91 5.65 6.08z"/><path fill="#e4e6ec" d="M199.97 114.99c1.68.04 3.78-.42 4.94 1.15-.15 3.13-5.77 1.53-4.94-1.15z"/><path fill="#393b42" d="M137 121.79c-2.47-1.06-4.97-5.99-.02-2.7 9.85 1.4 5.7 14.59 14.12 16.88 2.76-.06 5.2-1.67 7.89-2.17-4.77 3.1.36 6.84-2.83 10.26l-2.26 2.38c1.17-6.7-7.48-12.01-12.3-6.92-1.08 4.68-4.71 7.89-7.51 11.55 1.37 3.84 5.06 6.7 5.09 10.98-1.81-2.55-3.95-4.7-7.2-2.9-1.79-5.39.93-10.98-.46-16.31l-1.14-1.87c-.71-1.01-1.44-1.99-2.18-2.97-.73-3.07-1.23-6.17-1.91-9.25-.01-2.31.06-4.62.22-6.92.67 4.75 3.72 1.7 6.7 1.79-1.7 2.75-1.36 8.55 2.7 8.33 4.87-.66 4.8-7.98 1.09-10.16z"/><path fill="#676c7f" d="M146.27 124.3c1.3-5.54 11.17-6.64 13.64-4.5-2.61.72-5.54.79-7.82 2.39.6 3.64-1.19 11.8 4.3 9.29 5.74-.56 3.9-7.71 3.52-11.68 4.88 3.18 1.83 8.06-.11 11.99-5.16 4.31-15.03-.43-13.53-7.49z"/><path fill="#999ea8" d="M152.09 122.19c2.28-1.6 5.21-1.67 7.82-2.39.38 3.97 2.22 11.12-3.52 11.68-5.49 2.51-3.7-5.65-4.3-9.29z"/><path fill="#575c72" d="M133.21 123.62l3.79-1.83c3.71 2.18 3.78 9.5-1.09 10.16-4.06.22-4.4-5.58-2.7-8.33z"/><path fill="#848891" d="M179.02 127.69c-4.15-3.67 4.77-10.79 2.21-.74 3.55-1.77 7.03 1.75 9.78-1.12 1.54 1.99.96 6.76-2.19 4.3-2.41-2.09-3.1 2.05-5.04 2.8-7.96 3.54-2.44-2.74-4.76-5.24z"/><path fill="#363842" opacity=".91" d="M208.83 125.04c3.23 1.71 7.1 2.83 9.17 6.05a83.96 83.96 0 0 0-1.52-.37c-3.45-.4-6.01-2.74-7.65-5.68z"/><path fill="#545864" d="M216.48 130.72l1.52.37c9.12 8.58 19.45 18.15 19.06 31.88-5.04 1.43-13.71-3.07-16.04 3.69l1.82.28c-3.9 4.92 5.18 5.81 3.66.71 2.19 3.5 4.42 2.51 7.2.21.37 1.9-.16 5.4 2.75 3.8.53-3.19 5.09-6.18 6.89-2.4 3.43-3.58 11.77-1.87 16.35 1.13-.44 3 3.51 8.67-1.29 9.82 3.08-4.79-9.22-17.15-8.62-7.25-4.74-2.29-15.91-1.36-13.21 6.48.34 3.28 2.12-.42 3.24-1.34-.07 2.41 1.27 7.13 4.48 5.21 4.65-2.84 9.45.29 14.11-3.1-1.96 4.55-8.37 8.28-12.4 3.98-5.54 3.9-12.9 2.16-19.04 3.82-1.64 2.75-4.69.19-7.03.03-.16 4.93 6.98 6.69 11.11 6.26.88 4.56-3.81 7.52-7.9 6.81.79-2.23 2.03-6.21-1.8-4.9-8.56-3.1-2.08-12.31-2.67-18.6-1.21-3.3 2.79-4.54 2.41-7.66-3.56.04-6.82 1.76-10.18 2.68-2.12 1.01-1.86 3.42-1.98 5.38-3.21.11.05-5.64-.58-7.89 4.14-1.72 2.16-7.13-2-5.85-3.97.47-2.14 4.87-.33 6.79-4.16 4.2-3.25 10.35.08 14.7-1.93.26-5.22-.28-3.14 2.4l-2.15-1.28c2.76-8.03-6.29-14.59-6.02-22.08 2.35-2.91-1.4-8.1 3.11-9.04 1.96 1.02 4.05 2.99 6.39 1.81 1.33-.74 2.78-1.69 2.94-3.36.06-2.33.9-4.16 2.5-5.49.75 4.13 4.71 3.67 6.74.78-1.98-6.53 2.99-3.93 5.75-3.89-.42-5.64-11.07-2.12-7.25-9.84 1.02-1.52 2.08-3.13 1.52-5.05m4.48 21.28c-.46 4.05 3.87 6.59 6.96 8.19 1.91-4.91-2.32-9.29-6.96-8.19m-12.1 7.96c4.87 1.57 4.34 12.98 9.02 7.48-4.05-1.94-1.91-10.62-9.02-7.48z"/><path fill="#727973" d="M168.32 134.68c-.14-3.78 7.85-3.27 4.81.49-2.08 2.39.83 4.7 1.77 6.91-2.28 1.11-4.89.36-7.27.04-.52-2.52-.13-5.03.69-7.44z"/><path fill="#91968f" d="M201.62 134.47c4.51-1.84 4.63 6 .28 5.95l-2.78-1.57-.61-.49c-.78-2.66.38-3.99 3.11-3.89z"/><path fill="#7e818d" d="M211.36 139.5c-1.19-2.88.8-4.65 3.6-3.73-3.82 7.72 6.83 4.2 7.25 9.84-2.76-.04-7.73-2.64-5.75 3.89-2.03 2.89-5.99 3.35-6.74-.78-.84-2.35-4.45-5.5-1.49-7.6 4.15-2.3 4.06 10.24 3.13-1.62z"/><path fill="#6c7743" d="M192.19 147.1c-8.75-.82 1.01-12.09 6.93-8.25l2.78 1.57c1.73 2.46 3.92 4.69 4.99 7.55-3.62 5.59-6.74-2.5-12-.87h-2.7z"/><path fill="#5f6472" d="M156.16 144.06c4.11-3.09 6.22 2.72 3.56 5.64-2.99 4.27-8.68 1.68-5.82-3.26l2.26-2.38z"/><path fill="#676d74" d="M192.19 147.1h2.7c-.31 3.25 1.27 6.06 3 8.66-4.51.94-.76 6.13-3.11 9.04-.27 7.49 8.78 14.05 6.02 22.08-4.06 1.1-7.74 2.57-6.46 7.46-2.01 5.2 6.14 9.4 7.53 3-3.21-.55-5.1-3.05-1.41-4.75 2.96-.16 4.4-1.82 2.49-4.43-2.08-2.68 1.21-2.14 3.14-2.4-3.33-4.35-4.24-10.5-.08-14.7l2.33-.94c.63 2.25-2.63 8 .58 7.89 3.89 1.77 6.17-5.09 1.98-5.38 3.36-.92 6.62-2.64 10.18-2.68.38 3.12-3.62 4.36-2.41 7.66.59 6.29-5.89 15.5 2.67 18.6-3.42.82-7.15 9.57-1.69 6.65-.27 2.73 1.19 3.31 3.54 2.55-.29 3.03-1.93 5.6-4.24 7.51 2.15-.23 4.73-1.81 6.64-.13-1.11 1.79-2.44 3.43-3.52 5.24.82 2.04 6.09 3.36 2.75 5.9-2.6-.38-4.54-2.48-6.82-3.65-2.97 2.14-7.55 7.34-10.72 2.94-1.07 2.22-1.57 4.65-2.57 6.89-1.55-2.8-2.3-6.66-6.76-6.25 1.54 2.33 2.72 4.66-.81 5.65.95 2.11 3.31.69 5.04.72-1.44 3.42-5.66 6.51-3.92 10.52-2.78 4.31-5.17 9.65-1.89 14.58 3.13-3.77 1.55-9.6 4.84-13.29 2.89-.23 5.3 1.69 7.84 2.76 1.69-1.65-.21-3.29-.96-4.87 4.85-2.05 2.72 1.18 3.98 4.05 5.52-1.16 6.35-7.5 3.6-11.63 1.45.54 5.17.64 3.77-1.75-3.23-2.33 2.08-4.89 4.37-4.61 1.19 2.29 1.63 4.89 2.89 7.16.66 1.27 1.42 2.5 2.17 3.73 2.59 4.51 5.71 9.09 9.08 13.08l2.61 1.89c-2.11 2.45-5.41 3.01-8.44 3.43 3.58-4.8-1.83-14.31-8.03-11.21-2.37.55-1.39 3.25-.55 4.75-1.27 1.25-3.3 1.94-3.7 3.85 2.99-.92 5.13 1.04 7.26 2.81-2.9 2.19-9.2 11.63-8.43 3.28-1.18 1.9-1.19 4.23-4.04 2.6l-1.55-.78c-.86-3.98-5.49-3.24-5.57-7.2-.76-5.29-5.34.3-7.21 2.13 4.14 2.4-4.5 7.74-3.72 1.44-2.28 1.67-5.98 2.88-6.25 6.09-5.15-.14-1.35-7.02-3.62-10.12-.82-4.91-5.2-8.88-6.37-13.61-.49-2.84 3.1-4.81 4.5-2.26 1.24 3.97 4.26 1.18 2.6-1.94 8.43-3.3-3.5-5.1-7.58-3.53-1.18-1.95-2.46-3.85-3.7-5.77 5.92 1.31-.66-4.46-3.15-5.07 1.7-1.66 7.58-5.48 2.81-6.53-4.28-1.42.6-3.57 2.84-3.58-2.13-4.84 2.22-7.99 6.46-5.09-1.86.9-4.32 1.99-4.23 4.45 2.62.55 4.92-.1 5.38-3 1.07 3 6.1 5.02 7.56 1.4-4.71-3.66-11.11-5.52-11.6-12.37 2.41-2.66 4.82 1.14 5.88 3.17.03-2.39-.54-4.59-1.7-6.6-3.53-5.59 2.71-11.55-.09-17.53 1.07-1.89.59-4.1-1.97-3.66-4.23.54-2.55-5.33-.31-7.09 4.45-.94 3.48-5.92-1.16-4.38 3.63-4.11-.17-5.01-4-6.04 1.81-1.75 3.83-5.01 6.76-3.62 2.28 2.49 4.55 5.63 8.43 4.84-2.23-2.41-8.31-6.84-1.88-8.01m19 34.27c-4.33 2.01-.64 10.08-6.16 9.85.91 1.82 1.87 3.91 3.81 4.81 2.39-4.2 6.21-11.69 2.35-14.66m-19.87 8.93c-4.17 4.55 3.55 3.74 0 0m11.84 3.86c-1 4.64 4.64-1 0 0m.77 6.85c.75 2.18 1.02 7.47 4.42 5.44 4.35-1.07.03-9.48-4.42-5.44m-7.6 16.39c-2.62 1.32-5.33 1.28-8.11.72-2.47 1.67.12 4.89.89 6.94 2.72-1.83 4.46-5.46 8.57-4.41 2.51-.99 1.58-5.35-1.35-3.25m-5.09 25.8c-2.02 5.82 5.28-.14 0 0z"/><path fill="#8d957d" d="M194.89 147.1c5.26-1.63 8.38 6.46 12 .87.2 2.07.27 4.15.33 6.24-.16 1.67-1.61 2.62-2.94 3.36.57-2.58 1.89-6.57-2.28-5.78-1.94-4.82-5.08 1.87 0 0-2.09 2.41.46 4.33 2.28 5.78-2.34 1.18-4.43-.79-6.39-1.81-1.73-2.6-3.31-5.41-3-8.66z"/><path fill="#d9e0cd" d="M202 151.79c-1.94-4.82-5.08 1.87 0 0z"/><path fill="#d9ddd7" d="M202 151.79c4.17-.79 2.85 3.2 2.28 5.78-1.82-1.45-4.37-3.37-2.28-5.78z"/><path fill="#8d8f9e" d="M220.96 152c4.64-1.1 8.87 3.28 6.96 8.19-3.09-1.6-7.42-4.14-6.96-8.19z"/><path fill="#848c9e" d="M169.63 156.97c1.14-1.91 4.5-3.08 4.89.04-1.54 1.15-3.34.91-4.89-.04z"/><path fill="#9299a6" d="M182.88 159.93c4.64-1.54 5.61 3.44 1.16 4.38-.48-1.44-.98-2.88-1.16-4.38z"/><path fill="#757a85" d="M208.86 159.96c7.11-3.14 4.97 5.54 9.02 7.48-4.68 5.5-4.15-5.91-9.02-7.48z"/><path fill="#36383b" d="M143.98 168.87c-.95-2.35-4.29-8.29.75-6.72 2.08 5.38 7.3 8.69 8.99 14.23 2.72 3.33 9 6.35 6.05 11.31-4.08 1.64-7.07 5.63-12.04 4.69 1.1 1.49 3.12 2.47 3.3 4.49-3.19.78-6.48 1.35-9.77 1.65-2.16.84-1.7 4.28-4.2 4.61-.38-4.12 2.57-10.33-2.07-12.54 2.77-3.01 4.08-6.56-1.08-7.42 6.52.03.64-8.84.81-13.18 1.38-1.91 3.28-3.84 5.86-2.83.07 2.35 1.56 3.69 3.4 1.71z"/><path fill="#34363e" opacity=".98" d="M221.02 166.66c2.33-6.76 11-2.26 16.04-3.69l1.68-.28c3.81.12 7.64.26 11.46.18 5.73 1.44 11.27 3.66 16.1 7.1 2.31 5.4-.83 10.14-5.16 13-6.1 3.43-11.78 8-19.27 7.66-6.13-2.68-4.56 1.58-4.62 4.07-.15 5.49-.27 11-.12 16.49-1.25 4.08-2.43 8.32-4.95 11.83.56-2.81-1.85-7.65-5.01-4.93-3.94 2.78-.13-3.32-1.58-5.3-1.91-1.68-4.49-.1-6.64.13 2.31-1.91 3.95-4.48 4.24-7.51-2.35.76-3.81.18-3.54-2.55 1.15-.61 2.31-1.19 3.49-1.75 4.09.71 8.78-2.25 7.9-6.81-4.13.43-11.27-1.33-11.11-6.26 2.34.16 5.39 2.72 7.03-.03 6.14-1.66 13.5.08 19.04-3.82 4.03 4.3 10.44.57 12.4-3.98 4.8-1.15.85-6.82 1.29-9.82-4.58-3-12.92-4.71-16.35-1.13-1.8-3.78-6.36-.79-6.89 2.4-2.91 1.6-2.38-1.9-2.75-3.8-2.78 2.3-5.01 3.29-7.2-.21-1.19-.4-2.41-.64-3.66-.71l-1.82-.28z"/><path fill="#343844" d="M297.93 173.15c4.54-3.88 8.31-9.13 13.95-11.41-2.75 4.45 2.42 7.6 6.24 8.69l-.29.65-.95.8c-6.11 2.85-8.58 9.54-13.88 13.27-2.35 3.07-4.82 8.07-.05 10.06 4.82-4.84 5.86-12.04 11.23-16.2 1.52-1.95 3.12-3.84 4.74-5.72 2.71-1.7 5.61-5.69 9.16-3.78-1.99.45-2.44 2.47-2.9 4.16-1.39 8.14-13.39 10.09-9.23 19.68-4.02 4.24-2.98 12.85-9.28 14.61 3.87-2.97 5.57-13.56-1.6-10.05-2.87.46-4.26 3.27-6.15 5.14-3.21-.66-3.14-4.07-3.95-6.61 1.04-2.43 4.95-4.33 2.87-7.23-2.54.28-5.21.8-7.23-1.21 1.18-1.58 4.47-3.34 2.39-5.48 1.18-3.38 4.1-5.84 4.93-9.37z"/><path fill="#576269" opacity=".96" d="M311.88 161.74c3.91-.1 8.53 4.95 6.24 8.69-3.82-1.09-8.99-4.24-6.24-8.69z"/><path fill="#242731" d="M283.83 168.9c1.67-1.8 1.1-6.14 4.19-5.94 4.43.13 6 4.92 8.25 7.94.01 6.59-7.26 9.93-8.15 16.39 2.38-.64 3.69-2.81 4.88-4.77 2.08 2.14-1.21 3.9-2.39 5.48-.97.32-1.92.68-2.85 1.07-1.58 2.14-1.27 12.65 4.43 10.21-1.82 4.57-8.41 5.7-6.96 12l-2.03-1.39c-2.51-3.46-9.43-6.39-10.26.08-4.26 5.43.33 11.07 4 15.18.22 4.22-4.41 3.97-6.93 2.03-1 1.91-.74 4.77-3.18 5.5-2.96-.29-5.47-2.92-8.55-1.69.49 1.63 1.14 3.21 1.6 4.86-8.75-1.72-10.66 10.67-4.46 14.88 3.91 5.98-4.46 4.2-1.7 9.33-2.41 2.08-5.55 5.44-8.82 2.83 1.37-4.03-3.67-3.56-3.32.07-7.47-1.58 6.07-8.3-1.02-11.11l-2.61-1.89c1.19-6.31-3.04-11.58-9.08-13.08-.75-1.23-1.51-2.46-2.17-3.73 2.36 1.98 6.05 4.26 8.44 1.05.75-4.52 2.63-9.56 8.08-8.59 5.01.32 8.76 3.93 12.83 6.43 4.63-9.2 15.06-15.54 15.38-26.63 1.12-6.2.8-12.5-.72-18.57 5.62-5.09 7.63-12.72 13.12-17.94z"/><path fill="#8b8f9e" d="M206.34 164.27c4.16-1.28 6.14 4.13 2 5.85l-2.33.94c-1.81-1.92-3.64-6.32.33-6.79z"/><path fill="#67706d" d="M168.95 170.01c1.09-6.54 11.78-6.71 9.2 1.25-2.96 1.86-7.88 2.9-9.2-1.25z"/><path fill="#7b8194" d="M222.84 166.94c1.25.07 2.47.31 3.66.71 1.52 5.1-7.56 4.21-3.66-.71z"/><path fill="#565a6f" d="M128.6 171.01c1.79-2.38 4.03-4.01 6.12-1.02-.17 4.34 5.71 13.21-.81 13.18-2.77-.96-4.29-3.48-5.42-6.01 1.22-1.87 1.16-4.22.11-6.15z"/><path fill="#737581" d="M249.78 172.96c-.6-9.9 11.7 2.46 8.62 7.25-4.66 3.39-9.46.26-14.11 3.1-3.21 1.92-4.55-2.8-4.48-5.21-1.12.92-2.9 4.62-3.24 1.34-2.7-7.84 8.47-8.77 13.21-6.48z"/><path fill="#5e666b" opacity=".98" d="M325.18 173.67c.46-1.69.91-3.71 2.9-4.16 2.31 2.03 5.48 5.09 4.06 8.45-2.34 1.53-5.21 6.01-8.07 2.92 1.41-2.19 1.97-4.69 1.11-7.21z"/><path fill="#353430" opacity=".69" d="M128.49 177.16c-1.36-1.79-1.32-3.84.11-6.15 1.05 1.93 1.11 4.28-.11 6.15z"/><path fill="#18191f" opacity=".96" d="M303 185.15c5.3-3.73 7.77-10.42 13.88-13.27-1.3 2.96-9.75 11.74-2.7 7.13-5.37 4.16-6.41 11.36-11.23 16.2-4.77-1.99-2.3-6.99.05-10.06m3.3 1.09c-5.41 2.78 2.59 3.46 0 0z"/><path fill="#8a8ea0" d="M208.92 178.01c.12-1.96-.14-4.37 1.98-5.38 4.19.29 1.91 7.15-1.98 5.38z"/><path fill="#494c55" opacity=".98" d="M325.18 173.67c.86 2.52.3 5.02-1.11 7.21 2.86 3.09 5.73-1.39 8.07-2.92-.51 2.02-2.11 3.45-3.44 4.95-3.14 3.21-5.58 7.01-8.61 10.31-1.38.09-2.76.15-4.14.13-4.16-9.59 7.84-11.54 9.23-19.68z"/><path fill="#85898f" d="M211.19 181.37c3.86 2.97.04 10.46-2.35 14.66-1.94-.9-2.9-2.99-3.81-4.81 5.52.23 1.83-7.84 6.16-9.85z"/><path fill="#3f454e" d="M329.99 183.89c2.53-.22 5.57-1.68 7.29.83-5.28.28-2.85 4.99-5.16 8.12 5.64 5.23-10.96-.65-4.71 7.76-.11 2.55 1.89 2.12 3.72 1.65l-4.26 4.29-3.96 3.66-1.76 1.6c-.52-3.95-4.42-2.91-7.34-1.93-3.27.51-6.38 3.35-5.72 6.89 1.94 1.85 4.51 2.8 6.81 4.12-6.2 1.85 6.12 4.66 2.44 10.43-4.72 2.35-9.08 5.23-11.9 9.86.95-5.58-11.38-4.76-7.31 1.55 1.16 1.59 2.97 2.34 4.88 2.58-.93 1.28-1.92 2.51-2.89 3.77-1.8-1.57-3.27-3.73-5.69-4.35.49 2.04.6 3.88-2.09 3.37-2.18-3.26-6.49-7.33-10.31-5.6-3.02 4.29-4.21 11.45.88 14.68l-.64.9-.93-.1c-5.63-2.93-14.94-3.67-14.43-11.97 2.29 1.41 5.57 2.09 6.85-.87-3.23-2.05 2.68-5.97-2.37-6.13.16 4.41-2.62 5.82-6.42 4.14-2.86-1.25-.23 2.72-2.48 3.25-.69-3.24-1.39-6.49-2.35-9.66l-.26-.88c-.46-1.65-1.11-3.23-1.6-4.86 3.08-1.23 5.59 1.4 8.55 1.69 2.44-.73 2.18-3.59 3.18-5.5 2.52 1.94 7.15 2.19 6.93-2.03-3.67-4.11-8.26-9.75-4-15.18.83-6.47 7.75-3.54 10.26-.08-8.94-7.43-13.49 15.83-3.42 10.54 5.49 8.22 10-4.34 5.45-9.15-1.45-6.3 5.14-7.43 6.96-12-5.7 2.44-6.01-8.07-4.43-10.21.09 4.11 3.54 6.52 7.21 7.37.81 2.54.74 5.95 3.95 6.61 1.89-1.87 3.28-4.68 6.15-5.14-3.69 2.47-3.67 8.98.83 10.42-1.61.61-2.02 2.14-1.97 3.74 8.6-1.1 13.99-9.29 21.51-12.62.67-4.24 2.7-8.23 2.51-12.59l2.04-2.97m-30.87 42.35c-3.87 2.93-.21 11.81 5.18 7.08 4.47-3.31-.13-8.83-5.18-7.08z"/><path fill="#54595e" opacity=".97" d="M332.12 192.84c2.31-3.13-.12-7.84 5.16-8.12 8.65 5.17-1.57 12.77-5.5 17.16l-.65.37c-1.83.47-3.83.9-3.72-1.65-6.25-8.41 10.35-2.53 4.71-7.76z"/><path fill="#7d857c" d="M194.34 194.34c-1.28-4.89 2.4-6.36 6.46-7.46l2.15 1.28c1.91 2.61.47 4.27-2.49 4.43-3.69 1.7-1.8 4.2 1.41 4.75-1.39 6.4-9.54 2.2-7.53-3z"/><path fill="#23262e" d="M315.9 199.1c5.35-1.86 7.62-8.79 12.05-12.24.19 4.36-1.84 8.35-2.51 12.59-7.52 3.33-12.91 11.52-21.51 12.62-.05-1.6.36-3.13 1.97-3.74l.77-.37c6.3-1.76 5.26-10.37 9.28-14.61 1.38.02 2.76-.04 4.14-.13-1.51 1.86-3.84 3.33-4.19 5.88z"/><path fill="#58626f" d="M287.76 189.07l2.85-1.07c2.02 2.01 4.69 1.49 7.23 1.21 2.08 2.9-1.83 4.8-2.87 7.23-3.67-.85-7.12-3.26-7.21-7.37z"/><path fill="#949c8f" d="M191.32 190.3c3.55 3.74-4.17 4.55 0 0z"/><path fill="#697273" d="M171.24 192.08c4.99-3.38 8.31 4.4 4.53 6.81-3.85 1.03-8.26-3.79-4.53-6.81z"/><path fill="#8b919c" d="M203.16 194.16c4.64-1-1 4.64 0 0z"/><path fill="#888d8c" d="M221.34 196.21c3.83-1.31 2.59 2.67 1.8 4.9l-3.49 1.75c-5.46 2.92-1.73-5.83 1.69-6.65z"/><path fill="#70787d" d="M305.07 197.91c7.17-3.51 5.47 7.08 1.6 10.05l-.77.37c-4.5-1.44-4.52-7.95-.83-10.42z"/><path fill="#30343d" d="M336.81 199.67c1.6-.97 3.44-2.19 5.36-1.25-4.56.97-2.11 6.99-5.8 9.13-2.61 4.99.26 5.85 3.78 5.67-2.08 1.62-4.4 2.88-6.8 3.94.36-4.26-3.76-4.04-6.33-2.29-4.7-.67-3.18 5.2-6.99 6.17-3.83 1.16-.77 4.91.26 7.12-.75.9-1.47 1.82-2.17 2.75l-.78.4c3.68-5.77-8.64-8.58-2.44-10.43l.96-1.57 5.29-7.51a44.51 44.51 0 0 1 1.76-1.6c4.39 7.3 12.29-6.74 13.9-10.53z"/><path fill="#575b62" opacity=".98" d="M336.37 207.55c3.69-2.14 1.24-8.16 5.8-9.13 8.32 2.87 3.42 11.56-2.02 14.8-3.52.18-6.39-.68-3.78-5.67z"/><path fill="#15171b" opacity=".95" d="M332.88 203.05c1.09-1.37 2.37-2.58 3.93-3.38-1.61 3.79-9.51 17.83-13.9 10.53l3.96-3.66c2.55.35 4.55-1.67 6.01-3.49z"/><path fill="#868c96" d="M203.93 201.01c4.45-4.04 8.77 4.37 4.42 5.44-3.4 2.03-3.67-3.26-4.42-5.44z"/><path fill="#36383f" d="M139.62 203.66c4.78-3.62 2.2 6.58 7.01 3.92 5.91-1.83.27 6.86-.34 9.15 2.64 7.36 3.61-4.14 8.95-3.42l2.19-.53c2.61 5.93-1.1 8.09-6.37 8.49-.88 5.8 4.55 1.05 7.63 2.51-.85-5.65 7.14-3.49 8.72.01-2.45.4-5.22.61-6.68 2.95-2.29 5.12.23 12.78 6.32 14.07 1.01.88 5.5 1.08 2.81 2.87-4.7-.69-8.77-3-12.65-5.58-.73.94-1.38 1.93-2.03 2.93-1.84-6.53-9.57-9.31-10.85-16.19l-.83-3.09c-.41-1.97-1.13-3.84-2.36-5.44 5.87-4.01-3.26-8.84-1.52-12.65z"/><path fill="#656b7e" d="M169.21 203.1c2.85-.53 5.44 4.08 2.58 5.8-2.85.53-5.44-4.08-2.58-5.8z"/><path fill="#5e6475" d="M155.24 213.31c-5.91-.16-1.46-10.41 2.75-9.35.07 2.95-.33 5.87-.56 8.82l-2.19.53z"/><path fill="#919597" d="M180.89 209.99c-.09-2.46 2.37-3.55 4.23-4.45l1.15 1.45c-.46 2.9-2.76 3.55-5.38 3z"/><path fill="#5e6478" d="M279.78 220.43c-10.07 5.29-5.52-17.97 3.42-10.54l2.03 1.39c4.55 4.81.04 17.37-5.45 9.15z"/><path fill="#868f95" d="M313.81 209.87c2.92-.98 6.82-2.02 7.34 1.93l-5.29 7.51c-1.97-2.76-1.72-6.22-2.05-9.44z"/><path fill="#556170" d="M308.09 216.76c-.66-3.54 2.45-6.38 5.72-6.89.33 3.22.08 6.68 2.05 9.44l-.96 1.57c-2.3-1.32-4.87-2.27-6.81-4.12z"/><path fill="#4a4e56" d="M225.59 212.79c1.45 1.98-2.36 8.08 1.58 5.3 3.16-2.72 5.57 2.12 5.01 4.93-2.25 2.8-4.29 5.78-5.17 9.33l-.31.8c-1.26-2.27-1.7-4.87-2.89-7.16-2.29-.28-7.6 2.28-4.37 4.61 1.4 2.39-2.32 2.29-3.77 1.75-3.83-.09-7.26 3.89-7.58 7.58.75 1.58 2.65 3.22.96 4.87-2.54-1.07-4.95-2.99-7.84-2.76-3.29 3.69-1.71 9.52-4.84 13.29-3.28-4.93-.89-10.27 1.89-14.58-1.74-4.01 2.48-7.1 3.92-10.52-1.73-.03-4.09 1.39-5.04-.72 3.53-.99 2.35-3.32.81-5.65 4.46-.41 5.21 3.45 6.76 6.25 1-2.24 1.5-4.67 2.57-6.89 3.17 4.4 7.75-.8 10.72-2.94 2.28 1.17 4.22 3.27 6.82 3.65 3.34-2.54-1.93-3.86-2.75-5.9 1.08-1.81 2.41-3.45 3.52-5.24z"/><path fill="#757f89" opacity=".98" d="M327.02 214.87c2.57-1.75 6.69-1.97 6.33 2.29-2.76 3.3-5.21 7.11-9.17 9.08-.66-4.16.85-7.9 2.84-11.37z"/><path fill="#4c5866" opacity=".98" d="M320.03 221.04c3.81-.97 2.29-6.84 6.99-6.17-1.99 3.47-3.5 7.21-2.84 11.37-1.24.75-2.57 1.33-3.89 1.92-1.03-2.21-4.09-5.96-.26-7.12z"/><path fill="#858997" d="M196.33 217.4c2.93-2.1 3.86 2.26 1.35 3.25-4.11-1.05-5.85 2.58-8.57 4.41-.77-2.05-3.36-5.27-.89-6.94 2.78.56 5.49.6 8.11-.72z"/><path fill="#666968" d="M160.73 226.74c1.46-2.34 4.23-2.55 6.68-2.95 2.22.24 4.45.54 6.58 1.26-.93 1.93-3.92 4.06-2.39 6.27 3.42 2.2 2.34 6.43 7.36 3.66-.61 3.16-4.83 6.61.37 7.7 4.66.65.22 8.87-1.11 5.44 1.69-4.88-5.86-6.79-9.17-7.3 7.39-5.77-3.11-11.76-8.32-14.08z"/><path fill="#8f8f9c" d="M173.99 225.05l2.17.76 3.7 5.77-.9 3.4c-5.02 2.77-3.94-1.46-7.36-3.66-1.53-2.21 1.46-4.34 2.39-6.27z"/><path fill="#101013" opacity=".93" d="M227.01 232.35c5.38-2.79 9-10.37 16.21-6.74-5.45-.97-7.33 4.07-8.08 8.59-2.39 3.21-6.08.93-8.44-1.05l.31-.8z"/><path fill="#6f7475" d="M299.12 226.24c5.05-1.75 9.65 3.77 5.18 7.08-5.39 4.73-9.05-4.15-5.18-7.08z"/><path fill="#4c524e" d="M167.05 240.81c-6.09-1.29-8.61-8.95-6.32-14.07 5.21 2.32 15.71 8.31 8.32 14.08 3.31.51 10.86 2.42 9.17 7.3 1.33 3.43 5.77-4.79 1.11-5.44-5.2-1.09-.98-4.54-.37-7.7l.9-3.4c4.08-1.57 16.01.23 7.58 3.53 1.66 3.12-1.36 5.91-2.6 1.94-1.4-2.55-4.99-.58-4.5 2.26 1.17 4.73 5.55 8.7 6.37 13.61 2.27 3.1-1.53 9.98 3.62 10.12.27-3.21 3.97-4.42 6.25-6.09-.78 6.3 7.86.96 3.72-1.44 1.87-1.83 6.45-7.42 7.21-2.13.08 3.96 4.71 3.22 5.57 7.2-1.69 1.23-2.31 2.5-.04 3.46-3.73-.72-7.61-2.34-11.4-1.38-9.55 1.39 2.33 13.75 7.44 11.54-1.52.88-3.17 1.55-4.86 2.01l-8.49.07c-2.04-.9-3.93-2.08-5.83-3.23-1.54-2.78 1.11-5.16.9-7.78-1.11-2.84-3.59.88-5.52.33-2.42-.84-4.54-2.31-6.82-3.44-.83 5.1-6.9 3.56-10.73 4.21-2.98-.88-5.89-1.97-8.73-3.23-1.49-1.97-2.9-4.01-3.96-6.26l-1.05-2.82-.27-.79c.23-4.1.52-8.24 1.46-12.24.65-1 1.3-1.99 2.03-2.93 3.88 2.58 7.95 4.89 12.65 5.58 2.69-1.79-1.8-1.99-2.81-2.87m1.2 5.28c-1.67 2.97-6.47 6.3-3.17 9.82 2.7 2.4 3.45 5.96 5.07 9.02 4.87 1.51 1.92-3.8 1.26-6.25-1.67-3.86 1.85-10.58-3.16-12.59z"/><path fill="#8f9494" d="M208.09 239.93c.32-3.69 3.75-7.67 7.58-7.58 2.75 4.13 1.92 10.47-3.6 11.63-1.26-2.87.87-6.1-3.98-4.05z"/><path fill="#484d58" d="M255.42 250.73c-6.2-4.21-4.29-16.6 4.46-14.88l.26.88c-10.95-2.09-3.52 17.11 2.35 9.66 2.25-.53-.38-4.5 2.48-3.25 3.8 1.68 6.58.27 6.42-4.14 5.05.16-.86 4.08 2.37 6.13-1.28 2.96-4.56 2.28-6.85.87-.51 8.3 8.8 9.04 14.43 11.97-4.51.29-8.9-.46-13.33-.98-1.91 6.66 7.65 4.9 10.43 9.46 3.23 2.02.48-2.95-.12-4.36 1.84-.73 5.38-1.26 3.95-4.02l.64-.9c1.37 4.06 3.42 6.34 8.31 4.43 1.79.07 3.44-.55 4.91-1.54-1.46 3.06-3.65 5.7-5.17 8.74-3.92.09-8.24 5.98-2.86 7.62-5.14 1.55-9.39 5.26-14.79 6.02l-2.02-.44c-.3-4.89-7.39-3.88-8.94-8.24-1.1-3.73-4.71-6.02-8.28-6.92-.5-2.8 3.47-2.83 5.08-4.38-1.97-.45-4.13-.66-5.43-2.4-2.76-5.13 5.61-3.35 1.7-9.33m14.98 18.71c-2.96.84-6.46 3.22-2.72 5.88 3.73 6.04 8.42-7.23 2.72-5.88z"/><path fill="#41454e" d="M228.87 236.88c6.04 1.5 10.27 6.77 9.08 13.08-3.37-3.99-6.49-8.57-9.08-13.08z"/><path fill="#686e85" d="M262.49 246.39c-5.87 7.45-13.3-11.75-2.35-9.66.96 3.17 1.66 6.42 2.35 9.66z"/><path fill="#6f7852" d="M298.13 242.72c-4.07-6.31 8.26-7.13 7.31-1.55l-2.43 4.13c-1.91-.24-3.72-.99-4.88-2.58z"/><path fill="#818c5e" d="M282.03 242.49c3.82-1.73 8.13 2.34 10.31 5.6-.11 3.43-.9 7.91-5.2 8-2.27-4.31-2.14-9.67-5.11-13.6m5.13 3.91c.51 4.88 5.38-.11 0 0z"/><path fill="#d4d6d8" d="M191.24 243.2c5.28-.14-2.02 5.82 0 0z"/><path fill="#7c8081" d="M224.09 244.07c6.2-3.1 11.61 6.41 8.03 11.21-1.66.31-3.34.24-5.02.2-2.13-1.77-4.27-3.73-7.26-2.81.4-1.91 2.43-2.6 3.7-3.85-.84-1.5-1.82-4.2.55-4.75z"/><path fill="#586057" d="M282.91 257.17c-5.09-3.23-3.9-10.39-.88-14.68 2.97 3.93 2.84 9.29 5.11 13.6 4.3-.09 5.09-4.57 5.2-8 2.69.51 2.58-1.33 2.09-3.37 2.42.62 3.89 2.78 5.69 4.35-1.31 3.34-2.38 6.77-3.65 10.13-.74-5.7-14.52 1.18-5.25 2.4-4.89 1.91-6.94-.37-8.31-4.43z"/><path fill="#6a735a" d="M168.25 246.09c5.01 2.01 1.49 8.73 3.16 12.59.66 2.45 3.61 7.76-1.26 6.25-1.62-3.06-2.37-6.62-5.07-9.02-3.3-3.52 1.5-6.85 3.17-9.82z"/><path fill="#dde1d2" d="M287.16 246.4c5.38-.11.51 4.88 0 0z"/><path fill="#454a57" d="M240.56 251.85c7.09 2.81-6.45 9.53 1.02 11.11-.35-3.63 4.69-4.1 3.32-.07-1.2 4.69-5.89 6.71-8.48 1.73 2.85-5.85-3.87-7.56-4.6-2.75-.92 4.92-6.37-1.35-9.02.12.3 2.51 4.24 1.84 3.26 5.01-5.57 2.31-7.84-3.13-11.43-5.64 2.85 1.63 2.86-.7 4.04-2.6-.77 8.35 5.53-1.09 8.43-3.28 1.68.04 3.36.11 5.02-.2 3.03-.42 6.33-.98 8.44-3.43z"/><path fill="#6b6f7e" d="M268.01 256.99c4.43.52 8.82 1.27 13.33.98l.93.1c1.43 2.76-2.11 3.29-3.95 4.02.6 1.41 3.35 6.38.12 4.36-2.78-4.56-12.34-2.8-10.43-9.46z"/><path fill="#808589" d="M291.22 261.6c-9.27-1.22 4.51-8.1 5.25-2.4l-.34.86c-1.47.99-3.12 1.61-4.91 1.54z"/><path fill="#353944" d="M231.82 261.87c.73-4.81 7.45-3.1 4.6 2.75 2.59 4.98 7.28 2.96 8.48-1.73 3.27 2.61 6.41-.75 8.82-2.83 1.3 1.74 3.46 1.95 5.43 2.4-1.61 1.55-5.58 1.58-5.08 4.38 3.57.9 7.18 3.19 8.28 6.92 1.55 4.36 8.64 3.35 8.94 8.24-5.18-.04-10.35.02-15.52.19l-3.55-.4a78.84 78.84 0 0 0-11.49-.57c-6.01-1.83-12.68-2.21-17.81-6.13-3.41-2.35-7.6-5.77-11.77-2.88 1.06-2.4 4.62-5.88 1.89-8.17-2.27-.96-1.65-2.23.04-3.46l1.55.78c3.59 2.51 5.86 7.95 11.43 5.64.98-3.17-2.96-2.5-3.26-5.01 2.65-1.47 8.1 4.8 9.02-.12z"/><path fill="#2f323a" opacity=".97" d="M178.46 262.16c2.28 1.13 4.4 2.6 6.82 3.44 1.93.55 4.41-3.17 5.52-.33.21 2.62-2.44 5-.9 7.78-7.87-.01-15.8-1.9-22.17-6.68 3.83-.65 9.9.89 10.73-4.21z"/><path fill="#9597a6" d="M201.64 262.66c3.79-.96 7.67.66 11.4 1.38 2.73 2.29-.83 5.77-1.89 8.17-5.87 2.24-11.98-4.04-9.51-9.55z"/><path fill="#71747f" d="M209.08 274.2c-5.11 2.21-16.99-10.15-7.44-11.54-2.47 5.51 3.64 11.79 9.51 9.55a43.11 43.11 0 0 1-2.07 1.99z"/><path fill="#8a8c9c" d="M270.4 269.44c5.7-1.35 1.01 11.92-2.72 5.88-3.74-2.66-.24-5.04 2.72-5.88z"/><path fill="#7c808c" opacity=".96" d="M288.1 276.42c-5.38-1.64-1.06-7.53 2.86-7.62.11 2.79-.42 5.89-2.86 7.62z"/></svg>