<svg xmlns="http://www.w3.org/2000/svg" width="512" height="512" viewBox="0 0 384 384" xmlns:v="https://vecta.io/nano"><path fill="#464c56" d="M176.23 21.26c1.86-2.37 4.71-2.42 7.61-2.23 2.32 4.23 4.1 1.87 6.91-.25.36 2.47-.5 6.71 3.2 6.41 3.39.58 1.29 6.23-1.79 4.91-1.16-5.04-11.72-4.49-6.93.98-4.45 2.82-11.05 1.09-14.33 5.6 3.32.79 7.15.85 9.7 3.44-3.9 3.28-1.99 10.2 3.6 7.14-2.96 4.22-2.73 9.52-4.72 13.89-.2-3.72-1.58-5.79-5.03-3.73l-.26-1.16c-.24-4.91-11.98-3.66-7.41 1.92 7.3 4.34 4.73 13.06 1.1 18.97 3.77-3.2 6.99-6.99 10.59-10.38 2.79 2.74-2.09 8.29-2.81 11.92-3.19 3.78 5.43 8.24 5.58 3.14.77 5.88 2.83 11.8 8.65 14.31 1.24 1.07 2.89 1.57 4.52 1.35-3.25 2.38-7.73 3.87-8.85 8.17-4.46-2.21-8.63-3.42-12.19 1.09-.44-4.24-4.55-5.41-8.18-5.59-2.9 3.75-2.83 9.15-4.38 13.59-1.25-.62-2.22-.04-2.96 1.04-.86-.29-1.73-.56-2.61-.8-4.07-1.29-8.59 1.01-11.02 4.32-1.06 3.86 2.48 8.87 6.59 8.77 1.72.06 3.45.01 5.17-.05-2.6 2.94-9.23 4.41-11.01-.04-3.46-4.37-1.34-9.86-.98-14.82-2.47-.21-3.27-1.52-2.68-3.9-1.99-2.63-3.34-6.22-6.96-6.85-.1-3.43-1.02-7.7 2.75-9.51 4.68-3.7 11.69 1.06 15.97-3.58-4.49-.17-8.07-2.28-10.35-6.1-3.4.97-6.83.18-8.02-3.54l.54-.58c1.09-.74 2.56-3.05 3.35-.77 2.09 4.11 7.87 2.18 11.36 3.71 2.52-6.08-7.41-15.52 1.8-17.57.99-2.2-1.89-6.72-2.96-2.68-.53 4.02-4.21 1-6.47.32-1.23 2.44-1.53 5.79-4.3 7.06-2.13-1.3-2.17-4.71-4.88-5.53l-.13-1.63c6.27-3.51 12.05-9.49 11.7-17.22.32 8.45 8.95.49 12.13-1.96 4.2-4.54-4.05-2.58-7.09-3.12 8.4.04 17.78-5.34 17.01-15.03.61-5.14 7.17.16 9.47-3.43m-15.02 69.15c-3.19.17-1.71 2.08.31 2.91-1.17 2.62.82 2.85 3.06 3.06.89 2.52 3.11 3.05 5.58 2.61-3.81-2.23-4.03-8.55-8.95-8.58m-7.96 4.67c-4.71 4.27 5.19 2.92 6.85 2.88.36-3.56-4.46-3.86-6.85-2.88m-11.85 5.15c-5.4 4.14 1.44 7.52 5.29 4.47 4.03-3.11-.83-7.5-5.29-4.47z"/><path fill="#585b60" d="M190.75 18.78c5.26-1.13 4.37 7.31 9.87 5.08l1 .04c.17 2.95 2.84 4.59 5.43 5.25 0-1.79-.34-3.56-.9-5.25l3.03-.13c1.37 1.09 2.29 2.63 3.19 4.12 1.1 5.22-4.97 3.35-6.71 6.81-2.99 1.22-7.41-3.73-7.51 1.19-3.35 3.29-1.75-5.46-5.99-5.79 3.08 1.32 5.18-4.33 1.79-4.91-3.7.3-2.84-3.94-3.2-6.41z"/><path fill="#7c8892" d="M201.62 23.9h4.53c.56 1.69.9 3.46.9 5.25-2.59-.66-5.26-2.3-5.43-5.25z"/><path fill="#6c6f74" d="M185.23 31.08c-4.79-5.47 5.77-6.02 6.93-.98 4.24.33 2.64 9.08 5.99 5.79.97 5.43 4.91 7.52 9.62 4.3 4.04 1.17 8.08 2.36 12.22 3.12.41 4.34-6.89 2.78-7.11 7.53-4.56-2.26-6.3 6.76-10.87 3.16-3.04-3.73-7.17.05-7.13 3.9l-.67.45-2.25-2.46c1.83-1.47 4.02-3.68 2.19-6.06-2.91-2.42-12.03 6.69-3.99 6.39-3.29 3.1-6.22 6.53-9.28 9.85-2.54-.54-4.09-3.45-6.95-3.19-.17 2.58 2.88 2.76 4.54 3.89-3.6 3.39-6.82 7.18-10.59 10.38 3.63-5.91 6.2-14.63-1.1-18.97-4.57-5.58 7.17-6.83 7.41-1.92-5.79-4.58-5.41 6.19.26 1.16 3.45-2.06 4.83.01 5.03 3.73 1.99-4.37 1.76-9.67 4.72-13.89 2.47-.39 5.17-.27 7.12-2.04 7.7 6.3 7.98-9.71-.18-8.69.47-3.52-3.04-4.9-5.91-5.45z"/><path fill="#3f3d3f" opacity=".96" d="M212.37 27.89c2.17 4.51-1.4 7.7-4.15 10.49-.83-1.24-1.69-2.46-2.56-3.68 1.74-3.46 7.81-1.59 6.71-6.81z"/><path fill="#585c6a" d="M185.23 31.08c2.87.55 6.38 1.93 5.91 5.45-4.56 2.24-2.23 5.74.18 8.69-1.95 1.77-4.65 1.65-7.12 2.04-5.59 3.06-7.5-3.86-3.6-7.14-2.55-2.59-6.38-2.65-9.7-3.44 3.28-4.51 9.88-2.78 14.33-5.6z"/><path fill="#959d94" d="M198.15 35.89c.1-4.92 4.52.03 7.51-1.19l2.56 3.68-.23.99-.22.82c-4.71 3.22-8.65 1.13-9.62-4.3z"/><path fill="#8b8f96" d="M191.32 45.22c-2.41-2.95-4.74-6.45-.18-8.69 8.16-1.02 7.88 14.99.18 8.69z"/><path fill="#47484d" opacity=".95" d="M207.99 39.37c5.92.53 11.84-.64 17.78-.35 5.98 7.18-6.28 10.63-11.75 11.95l-1.14-.13c.22-4.75 7.52-3.19 7.11-7.53-4.14-.76-8.18-1.95-12.22-3.12l.22-.82z"/><path fill="#666c85" d="M144.93 42.92c1.59-1.09 3.05-2.4 4.82-3.2 3.04.54 11.29-1.42 7.09 3.12-3.18 2.45-11.81 10.41-12.13 1.96l.22-1.88z"/><path fill="#9fa5a3" d="M190.16 56.22c-8.04.3 1.08-8.81 3.99-6.39 1.83 2.38-.36 4.59-2.19 6.06l-1.8.33z"/><path fill="#2d2c30" opacity=".92" d="M202.01 54c4.57 3.6 6.31-5.42 10.87-3.16l1.14.13-.34.79c-5.49 4.03-12.24 5.16-18.8 6.14-.04-3.85 4.09-7.63 7.13-3.9z"/><path fill="#9b9e9f" d="M174.45 57.42c-5.67 5.03-6.05-5.74-.26-1.16l.26 1.16z"/><path fill="#5a5c53" opacity=".97" d="M190.16 56.22l1.8-.33 2.25 2.46c-3.19 8.65-13.03 13.55-12.97 23.48-.15 5.1-8.77.64-5.58-3.14.72-3.63 5.6-9.18 2.81-11.92-1.66-1.13-4.71-1.31-4.54-3.89 2.86-.26 4.41 2.65 6.95 3.19 3.06-3.32 5.99-6.75 9.28-9.85z"/><path fill="#373a43" d="M148.79 61.8c1.07-4.04 3.95.48 2.96 2.68-9.21 2.05.72 11.49-1.8 17.57-3.49-1.53-9.27.4-11.36-3.71-.79-2.28-2.26.03-3.35.77.2-1.77-.08-3.57-.95-5.12-.52-1.25-1.08-2.49-1.54-3.75l.39-6.59c2.71.82 2.75 4.23 4.88 5.53 2.77-1.27 3.07-4.62 4.3-7.06 2.26.68 5.94 3.7 6.47-.32z"/><path fill="#212428" opacity=".62" d="M132.75 70.24c-.79-2.39-2.14-6.52.26-8.22l.13 1.63-.39 6.59z"/><path fill="#2c2f38" d="M134.7 79.69c1.19 3.72 4.62 4.51 8.02 3.54 2.28 3.82 5.86 5.93 10.35 6.1-4.28 4.64-11.29-.12-15.97 3.58-.76-1.52-1.34-3.25-2.82-4.24l.42-8.98z"/><path fill="#3d4048" d="M134.28 88.67c1.48.99 2.06 2.72 2.82 4.24-3.77 1.81-2.85 6.08-2.75 9.51 3.62.63 4.97 4.22 6.96 6.85-.59 2.38.21 3.69 2.68 3.9-.36 4.96-2.48 10.45.98 14.82 1.78 4.45 8.41 2.98 11.01.04 3.61-3.21 2.66-8.01 1.87-12.24.74-1.08 1.71-1.66 2.96-1.04l2.21 3.26c5.45 9.8-7.03 11.69-6.83 19.62-2.75 1.9-7.34 6.92-3.43 9.62 1.75 1.38 3.51-1.02 5.29-1.34 1.14 4.39-4.7 3.75-6.16 6.93 3.64 6.03 7.37-5.96 7.5 1.27-.43 4.71 6.73 8.36 2.96 12.87 2.94 5.37 8.07 5.35 13.42 4.11 6.27 8.76-13.73 4.03-11.16 12.15 3.5.41 8.19-2.28 12.15-.47 2.63-3.3 5.35-.1 4.25 3.19-3.19-.6-6.57-1.43-9.42.68-6.74-.69-3.93 6.78.55 7.87.42 3.37-1.91 4.23-5.27 4.1l-2.26 1.3c-1.31 4.85-4.15 8.71-8.83 4.27.95-8.84-6.53-4.95-6.27.29-3.47 7.21 2.4 6.52 6.13 4.47-.25 1.71-.55 3.42-.66 5.15 3.07.46 2.94-3.24 3.45-5.26 3.38 3.99 2.63 10.81 8.85 11.68-2.82.62-5.85 1-8.29 2.66.16 4.92 6.19 5.11 8.9 8.08 1.97 3.69-6.63 4.79-2.61 7.46 5.51-1.76 8.6 2.32 13.17 3.61-.01 2.1-1.34 4.92 1.41 5.76 1.09-1.89 3.06-4.24 1.57-6.44-1.04-2.98-6.59-1.62-5.47-5.78 5.88 1.14 6.88 7.91 11.06 11.32-1.13 2.5-4.54 3.7-4.09 6.86 3.59.49 4.67-5.02 7.13-.04-1.94 2.8-4.79 5.87.73 5.46 2.23.58 4.55.98 6.55 2.21-.56 1.73-1.11 3.47-1.58 5.23l-13.98.27c-4.31-1.18-8.73-1.9-13.08-2.87l5.4-.29c14.91 1.96-6.31-5.22 1.57-11.23-1.72-1.08-3.94-4.04-4.41-7.19-1.08-3.72-5.47-3.77-8.31-5.44-3.27-11.26-18.2-10.68-21.46-21.12.65-2.25-.47-3.48-2.66-3.92-4.98-4.22-7.63-10.29-9.69-16.33-1.82-6.12 1.42-11.19 4.63-15.99.81-2.72-3.37-3.05-4.88-4.59 6.61 1.57 3.93-6.48 3.13-10.22 1.29-6.7-3.87-3.46-6.25-2.12 1.08-5.67 5.05-10.34 2.45-16.56.87-3.52.84-6.99-.09-10.42-1.47-2.54-3.2-4.93-4.37-7.64l.05-13.44c1.04-3.92 3.4-7.3 5.34-10.81.69-.92 1.39-1.83 1.95-2.84 1.19-3.29.77-6.92.77-10.35.64-1.78 1.63-3.41 2.41-5.13m-1.95 28.5c-1.27 3.03-4.93 6.94-1.04 9.57 6.31 4.11 8.57-11.41 1.04-9.57m6.81 17.86c-3.96 4.7 2.67 10.68 2.08 15.1-3.93 5.02-2.72-6.8-4.43-8.15-3.95.26-4.51 6.51-1.6 8.82 2.64 1.57-.24 8.71 3.45 6.92 1.98-2.55 3.11-8.57 7.28-6.82-.09-4.13-.71-6.21-3.9-7.54 4.58-1.3-.3-7.06-2.88-8.33m9.12 24.06c-5.38 5.22 7.32 4.37 4.5 9.49-4.63 2.2 1.8 5.33 3.89 6.8 4.98 3.76 5.3-8.23.58-6.33.39 2.49-1.42 4.11-3.13 1.75-.15-3.83 6.7-4.47 5.77-8.56-2.78-3.25-7.67-3.67-11.61-3.15m-5.05 35.06c-1.99 1.63-2.85 4.18-3.12 6.65 3.95 5.23 8.19-7.07 3.12-6.65z"/><path fill="#676e66" d="M161.21 90.41c4.92.03 5.14 6.35 8.95 8.58-2.47.44-4.69-.09-5.58-2.61-2.24-.21-4.23-.44-3.06-3.06-2.02-.83-3.5-2.74-.31-2.91z"/><path fill="#242221" opacity=".62" d="M131.1 104.15c-.06-3.45-.19-6.99.77-10.35 0 3.43.42 7.06-.77 10.35z"/><path fill="#76798d" d="M153.25 95.08c2.39-.98 7.21-.68 6.85 2.88-1.66.04-11.56 1.39-6.85-2.88z"/><path fill="#60646d" d="M194.41 97.49l1.58-.99c1.81 1.27 3.64 2.55 5.17 4.16-8.86-.75-9.84 13.85-1.14 14.94 1.19 1.18 2.54 1.6 3.85.27-.06 1.71-.4 3.75.87 5.13 12.03 10.02 27.12 21.13 28.65 38.2l-2.27 1.21c-2.45-.95-4.72-2.24-7.07-3.38 2.29-4.78-5.81-12.59-6.23-4.95-1.48-1.78-3.06-3.47-4.64-5.15 1.79-3.6.12-4.28-3.3-3.09 1.03-3.61 3.09-8.36.84-11.67-4.82-.89-1.26 7.27-1.82 9.09-.11-4.07-6.76-6.77-6.11-1.18l-4-3.71c5.59.92 4.34-8.51.18-9.29-2.21 1.43-6.82.28-6.21 4-.04-5.43-7.22-4.53-10.91-3.25-.81-3.7 1.43-3.75 4.38-2.94-2.3-3.81-10.23.85-7.54-6.91-3.03-.84-3.99 2.16-3.81 4.58-.75 1.37-1.81 6.42-3.37 3.05-.39-3.78-8.59-1.77-5.33-5.38 1.82-2.16-2.85.26-3.16-2.22l-2.21-3.26c1.55-4.44 1.48-9.84 4.38-13.59 3.63.18 7.74 1.35 8.18 5.59 3.56-4.51 7.73-3.3 12.19-1.09 1.12-4.3 5.6-5.79 8.85-8.17m-9.92 9.9c-.72 1.68-5.72 4.08-1.41 3.7 3.08 1.37-4.51 1.31-3.09 3.92-1 3.46 3.08 1.49 4.94 1.33.6 3.1 1.52 6.06 4.97 3.46-.9-3.82-.56-13.44-5.41-12.41m-15.27 2.72c-3.46 2.52-1.11 9.15 3.1 7.19 3.51-1.9-.14-7.45-3.1-7.19z"/><path fill="#6d7389" d="M141.4 100.23c4.46-3.03 9.32 1.36 5.29 4.47-3.85 3.05-10.69-.33-5.29-4.47z"/><path fill="#9295a5" d="M200.02 115.6c-8.7-1.09-7.72-15.69 1.14-14.94.89.87 1.56 1.93 2.12 3.03-.12 3.84.53 7.64 1.03 11.44l-.44.74c-1.31 1.33-2.66.91-3.85-.27 2.07-3.3.27-4.25-3.12-3.63 1 1.25 2.08 2.41 3.12 3.63z"/><path fill="#6a6a63" opacity=".86" d="M203.28 103.69c2.38 3.34 1.81 7.56 1.71 11.43l-.68.01c-.5-3.8-1.15-7.6-1.03-11.44z"/><path fill="#7b7f81" d="M184.49 107.39c4.85-1.03 4.51 8.59 5.41 12.41-3.45 2.6-4.37-.36-4.97-3.46-1.86.16-5.94 2.13-4.94-1.33-1.42-2.61 6.17-2.55 3.09-3.92-4.31.38.69-2.02 1.41-3.7z"/><path fill="#8e92a2" d="M169.22 110.11c2.96-.26 6.61 5.29 3.1 7.19-4.21 1.96-6.56-4.67-3.1-7.19z"/><path fill="#eaebf1" d="M196.9 111.97c3.39-.62 5.19.33 3.12 3.63l-3.12-3.63z"/><path fill="#666b83" d="M144.22 119.31c2.43-3.31 6.95-5.61 11.02-4.32-10.09-.63-3.36 7.68-4.43 13.09-4.11.1-7.65-4.91-6.59-8.77z"/><path fill="#9196a0" d="M155.24 114.99l2.61.8c.79 4.23 1.74 9.03-1.87 12.24-1.72.06-3.45.11-5.17.05 1.07-5.41-5.66-13.72 4.43-13.09z"/><path fill="#585d73" d="M132.33 117.17c7.53-1.84 5.27 13.68-1.04 9.57-3.89-2.63-.23-6.54 1.04-9.57z"/><path fill="#232221" opacity=".63" d="M123.01 130.81c0-4.35-.08-8.73.8-13.01l-.05 13.44-.75-.43z"/><path fill="#4a515c" d="M163.02 118.01c.31 2.48 4.98.06 3.16 2.22-3.26 3.61 4.94 1.6 5.33 5.38 1.56 3.37 2.62-1.68 3.37-3.05 4.3 2.36.35 8.55 6.97 5.27 3.69-1.28 10.87-2.18 10.91 3.25.83 1.47 1.94 2.76 3.05 4.04-5.66-2.47-9.18 3.04-9.15 7.78-3.75-.81 2.43 3.7-.51 3.02-4.65.33-7.12-3.17-9.05-6.82 3.55.86 5.16-1.98 1.07-1.78-4.6 2.68-9.77-3.29-6.48-7.4.36-5.05-7.2-2.62-5.32 1.53-5.36 2.75 1.88 8.22 5.58 6.79-1.01 4.57-3.05 8.63-4.76 13.59 1.79 2.42 5.8 1.31 5.31-2.01 1.2 2.72 4.5 10.32 7.63 6.14.22 4.68-3.05 11.07 2.65 13.48-.02 7.09-.94 14.32 1.31 21.19-6.09-2.86-3.74 4.3-1.79 7.18 2.64 1.71 8.88 4.1 7.77 7.36-2.96.24-5.84-.2-6.71-3.43-3.18-4.97-9.97-1.22-7.96 3.95-4.8-.46-6.25 5.57-.51 4.51-.11 3.48-3.92 4.55-4.88 7.41 2.91-.87 8.45 5.09 4.1 5.48l-2.12-1.45c-1.53-.55-3.13-.79-4.71-1.13-6.22-.87-5.47-7.69-8.85-11.68-.51 2.02-.38 5.72-3.45 5.26.11-1.73.41-3.44.66-5.15-3.73 2.05-9.6 2.74-6.13-4.47-.26-5.24 7.22-9.13 6.27-.29 4.68 4.44 7.52.58 8.83-4.27.9 1.9 1.93 3.79 3.38 5.34 3.41-1.33 2.58-6.41-1.12-6.64 3.36.13 5.69-.73 5.27-4.1 3.57-2.2 3.44-6.25-.55-7.87 2.85-2.11 6.23-1.28 9.42-.68 1.1-3.29-1.62-6.49-4.25-3.19-3.96-1.81-8.65.88-12.15.47-2.57-8.12 17.43-3.39 11.16-12.15-5.35 1.24-10.48 1.26-13.42-4.11 3.77-4.51-3.39-8.16-2.96-12.87-.13-7.23-3.86 4.76-7.5-1.27 1.46-3.18 7.3-2.54 6.16-6.93-1.78.32-3.54 2.72-5.29 1.34 4.53-1.52 8.54-5.9 3.43-9.62-.2-7.93 12.28-9.82 6.83-19.62m-.05 22c-1 2.74 2.14 5.47 4.38 3.33 2.32-2.73-2.24-4.06-4.38-3.33m8.32 20.21c-4.64 1.75-4.17 10.62 2.44 7.61 4.22-1.83 2.1-9.14-2.44-7.61z"/><path fill="#767a88" d="M174.88 122.56c-.18-2.42.78-5.42 3.81-4.58-2.69 7.76 5.24 3.1 7.54 6.91-2.95-.81-5.19-.76-4.38 2.94-6.62 3.28-2.67-2.91-6.97-5.27z"/><path fill="#6c7279" d="M166.37 131.45c-1.88-4.15 5.68-6.58 5.32-1.53-3.29 4.11 1.88 10.08 6.48 7.4 4.09-.2 2.48 2.64-1.07 1.78 1.93 3.65 4.4 7.15 9.05 6.82 2.94.68-3.24-3.83.51-3.02l5.18.09c.65 4.03 2.1 10.25 7.2 10.21-4.21 1.33-7.34 5.26-6.02 10.05 3.37-.83 3.07-6.65 6.99-6.29 2.37-.76 2.59 2 3.37 3.52-5.79-1.22-7.71 8.21-1.18 5.89-.49 1.22-.93 2.46-1.29 3.72 3.77-3.13 7-3.9 11.51-3.12l-.6 1.76c-5.19 6.77-3.64 20.11 6.7 20.87 2.7.37-.04 3.88-.16 5.62 1-4.53-4.06-3.5-5.86-1.07.06 2.2-.84 7.15 2.83 5.13.26 7.21 2.22 18-7.23 19.5-4.56-3.96-3.28 2.37-5.67 5.22.14-3.74-3.79-4.23-6.45-5.33 3.62-2.6 6.05-6.11 6.92-10.54-4.77-3.53-8.63 4.38-13.69 2.79-2.51-1.6-.5-4.17.86-5.75 1.11-3.26-5.13-5.65-7.77-7.36-1.95-2.88-4.3-10.04 1.79-7.18-2.25-6.87-1.33-14.1-1.31-21.19-5.7-2.41-2.43-8.8-2.65-13.48-3.13 4.18-6.43-3.42-7.63-6.14.49 3.32-3.52 4.43-5.31 2.01 1.71-4.96 3.75-9.02 4.76-13.59-3.7 1.43-10.94-4.04-5.58-6.79m14.67 23.48c.18 1.57-1.07 5.24 1.75 3.89 2.5-1.18.61-4.46-1.75-3.89m22.15 25.32c-2.35 4.91-6.42 7.58-9.13 12.76 2.73 2.74 2.18 6.16 7.54 6.15-1.96 3.42 5.91 4.03 2.6.63-2.07-2.82-8.91-11.77-1.44-8.91.17-3.21 4.29-9.31.43-10.63m-11.88 3.05c-7.3 1.41 5.62 11.24 2.73 3.92 6.27.35 1.08-6.27-2.73-3.92z"/><path fill="#828872" d="M192.76 131.08c-.61-3.72 4-2.57 6.21-4 4.16.78 5.41 10.21-.18 9.29l-2.98-1.25c-1.11-1.28-2.22-2.57-3.05-4.04z"/><path fill="#4d5862" opacity=".96" d="M266.75 130.18c2.7-2.34 6.72-.92 8.55 1.78-2.7 3.95-7.31 2.55-8.55-1.78z"/><path fill="#31343f" opacity=".98" d="M264 131.8l2.75-1.62c1.24 4.33 5.85 5.73 8.55 1.78l1.23 2.23c-7.32.99-6.45 9.28-10.46 13.85-1.59 3.15-7.28 4.07-8.5.37-.99-3.17-5.88 1.08-6.07-2.59.95-1.91 1.07-5.18 3.57-5.66 5.64 1.21 6.95-4.72 8.93-8.36z"/><path fill="#7c7f8a" d="M208.9 141.26c.56-1.82-3-9.98 1.82-9.09 2.25 3.31.19 8.06-.84 11.67 3.42-1.19 5.09-.51 3.3 3.09-3.58 4.55-6.69-.88-8.29-4.17-.62-.96-1.38-1.81-2.1-2.68-.65-5.59 6-2.89 6.11 1.18z"/><path fill="#373a47" d="M277.84 133.68c.93-.74 1.89-1.47 3.02-1.89-1.88 2.96.6 5.44 1.71 8.09-1.83 5.32-1.98 11.88-8.29 13.6-.49 3.25 3.48 3.84 5.8 2.66-5.11 4.27-2.36 12.55-7.14 16.87 1.07-2.39 1.57-5.29-1.09-6.83-2.8.53-5.07 2.31-7.19 4.09 2.67-3.88 2.91-10.87 8.97-10.81 2.81-1.02-1.78-3.27-1.99-5.03-2.23 3.07-2.16-1.48-2.43-3.34 1.47-6.4 5.18-11.92 8.63-17.41z"/><path fill="#5f646b" d="M280.86 131.79c1.63.24 3.23.66 4.84 1.03 2.29 2.59 4.82 6.26 2.02 9.49-3.37 4.14-4.69 9.46-7.64 13.83-2.32 1.18-6.29.59-5.8-2.66 6.31-1.72 6.46-8.28 8.29-13.6-1.11-2.65-3.59-5.13-1.71-8.09z"/><path fill="#23262d" d="M276.53 134.19l1.31-.51c-3.45 5.49-7.16 11.01-8.63 17.41.27 1.86.2 6.41 2.43 3.34.21 1.76 4.8 4.01 1.99 5.03-6.06-.06-6.3 6.93-8.97 10.81-2.04-.22-4.09-.69-5.47-2.33 2.15-2.92 4.06-6.68.8-9.64-2.98 1.32-6.29 2.01-8.97 3.94-.65 4.09 1.16 12.37 6.83 10.34 2.45 1.63-.68 5.87-.63 8.74 2.4-.36 5.9 4.07 1.82 3.65-5.53-3.23-8.81.46-10.42 5.18-.03-7.8-9.41-1.69-14.4-2.42-3.19-.47-1.58 2.21-1.01 4.03l-.11 14.43-.29 1.62c-1.15 2.76-1.91 5.73-3.62 8.22.07-2.38-.48-4.83-2.82-5.93-.89 2.59-4.57 4.11-3.91.27 3.02-5.34-10.83-13.53.73-13.09 1.78-.35 3.04-1.79 4.18-3.09 1.81-2.31-.41-4.16-1.91-5.76 1.41-5.23 7.79-2.72 11.73-4.67 5.33 3.03 9.69-3.24 13.62-6.04-.93-5.94-3.69-14.09-10.86-14.83-4.97-4.62-12.35 4.67-16.19-1.61 2.52.12 4.98-.17 7.36-.87.56-.31 1.7-.91 2.27-1.21l11.26-.45c2.51-4.22 3.29-9.29 6.85-12.93.19 3.67 5.08-.58 6.07 2.59 1.22 3.7 6.91 2.78 8.5-.37 4.01-4.57 3.14-12.86 10.46-13.85z"/><path fill="#4d505b" d="M139.14 135.03c2.58 1.27 7.46 7.03 2.88 8.33 3.19 1.33 3.81 3.41 3.9 7.54-4.17-1.75-5.3 4.27-7.28 6.82-3.69 1.79-.81-5.35-3.45-6.92-2.91-2.31-2.35-8.56 1.6-8.82 1.71 1.35.5 13.17 4.43 8.15.59-4.42-6.04-10.4-2.08-15.1z"/><path fill="#667144" d="M186.66 142.9c-.03-4.74 3.49-10.25 9.15-7.78.98.43 1.98.85 2.98 1.25l4 3.71c.72.87 1.48 1.72 2.1 2.68a27.98 27.98 0 0 1-1.62 6.65l-3.59-1.09c-.25-1.29-.23-3.1-1.65-3.7-1.78-1.36-3.99-1.75-6.19-1.63l-5.18-.09z"/><path fill="#616675" d="M152.76 147.25c-3.91-2.7.68-7.72 3.43-9.62 5.11 3.72 1.1 8.1-3.43 9.62z"/><path fill="#21201f" opacity=".71" d="M128.13 138.88c.93 3.43.96 6.9.09 10.42l-.14-2.17-.01-3.99.06-4.26z"/><path fill="#737b7c" d="M162.97 140.01c2.14-.73 6.7.6 4.38 3.33-2.24 2.14-5.38-.59-4.38-3.33z"/><path fill="#383c47" d="M289.99 141.87c1.38-.92 2.96-.95 4.46-.25-5.09 3.24-2.46 5.26 2.43 5.57-3.31 3.73-4.69 8.79-8.89 11.86 1.11 1.94 2.55 3.67 4.02 5.35-1.22 4.4-2.81 8.71-4.84 12.8 2.32-5.23-1.41-6.6-5.33-3.4-2.13 1.16-4.04 2.66-6.03 4.04 3-7.16 10.57-12.45 10.09-20.86-1.41-5.82 3.64-9.77 4.09-15.11z"/><path fill="#21242a" d="M280.08 156.14c2.95-4.37 4.27-9.69 7.64-13.83.76-.13 1.51-.28 2.27-.44-.45 5.34-5.5 9.29-4.09 15.11.48 8.41-7.09 13.7-10.09 20.86-2.5 3.79-4.58 4.75-5.39-.52.76-1.49 1.58-2.94 2.52-4.31 4.78-4.32 2.03-12.6 7.14-16.87z"/><path fill="#5a5f66" opacity=".98" d="M294.45 141.62c2.52.44 4.19 2.47 5.83 4.26a6.18 6.18 0 0 0 .02 4.24l-1.69 3.55c-1.82 2.46-2.93 5.34-3.87 8.23l-2.73 2.5c-1.47-1.68-2.91-3.41-4.02-5.35 4.2-3.07 5.58-8.13 8.89-11.86-4.89-.31-7.52-2.33-2.43-5.57z"/><path fill="#889280" d="M191.84 142.99c2.2-.12 4.41.27 6.19 1.63-2.31 1.38-.76 4.18 1.65 3.7l3.59 1.09c-.58 1.98-2.56 2.9-4.23 3.79-5.1.04-6.55-6.18-7.2-10.21z"/><path fill="#40444f" d="M203.27 149.41a27.98 27.98 0 0 0 1.62-6.65c1.6 3.29 4.71 8.72 8.29 4.17l4.64 5.15c1.75 2.03 3.58 4.1 6.23 4.95l7.07 3.38c-2.38.7-4.84.99-7.36.87 3.84 6.28 11.22-3.01 16.19 1.61 7.17.74 9.93 8.89 10.86 14.83-3.93 2.8-8.29 9.07-13.62 6.04-3.94 1.95-10.32-.56-11.73 4.67 1.5 1.6 3.72 3.45 1.91 5.76 1.69-8.11-13.03 4.23-4.18 3.09-11.56-.44 2.29 7.75-.73 13.09-.66 3.84 3.02 2.32 3.91-.27 2.34 1.1 2.89 3.55 2.82 5.93-1.95 2.36-3.66 4.99-3.16 8.22l-.04.81-2.12-1.93c-.44-6.71-5.14-3.09-8.02-.28 1.73.45 3.51.5 5.28.53-.53 4.34-5.03 1.66-7.86 1.83-1.92 1.79-3.81 3.61-5.55 5.57-3.61 2.55-.61 5.88 1.51 8.15-3.62-.03-9.58-4.54-10.47 1.15-1.11.04-2.21.05-3.31-.02.64-2.22 4.2-5.92-.35-5.26 4.53-3.01.47-6.74 2.25-10.86 1.76-.63 3.65-1.92 5.08.06 2.39-2.85 1.11-9.18 5.67-5.22 9.45-1.5 7.49-12.29 7.23-19.5 1.11-1.27 2.44-2.44 3.03-4.06.12-1.74 2.86-5.25.16-5.62-10.34-.76-11.89-14.1-6.7-20.87 2.03-.3 6.38-2.23 4.31 1.38-.92 3.46-3.33 17.78 1.31 10.19 4.17 6.62 11.58-7.11 15.06-.59 4.64 1.27 7.91-2.88 12.36-3.17 2.54-9.67-8.59-7.82-14.46-8.11-1.34 3.03-3.83 1.23-6.17.75-4.48 1.76-.65 9.9-5.25 9.88-.27-5.07 1.93-11.84-2.23-15.91-2.89-1.3-3.56 1.75-4.33 3.82-4.51-.78-7.74-.01-11.51 3.12.36-1.26.8-2.5 1.29-3.72 1.99-1.71 3.82-3.79 1.18-5.89-.78-1.52-1-4.28-3.37-3.52-3.92-.36-3.62 5.46-6.99 6.29-1.32-4.79 1.81-8.72 6.02-10.05 1.67-.89 3.65-1.81 4.23-3.79m.64 6.6c.42 1.3.5 3.64 2.18 3.85 4.75-.62-2.14 8.45 3 5.23 1.33-2.87.47-11.21-5.18-9.08z"/><path fill="#dee3d3" d="M199.68 148.32c-2.41.48-3.96-2.32-1.65-3.7 1.42.6 1.4 2.41 1.65 3.7z"/><path fill="#8a8c9c" d="M217.82 152.08c.42-7.64 8.52.17 6.23 4.95-2.65-.85-4.48-2.92-6.23-4.95z"/><path fill="#373b45" opacity=".97" d="M299.6 154.88c1.8-1.53 4-3.66 6.55-2.45-3.42 2.08-1.25 3.32 1.65 3.95-1.81 3.27-3.94 6.37-6.43 9.16 1.12 2.32 3.88 2.96 6 4.02-1.9 3.71-4.15 7.35-4.19 11.72-.08-3.12-.01-6.22-.29-9.32-3.36-.36-6.18 1.73-9.08 3.06-.11-3.22 3.1-4.35 4.96-6.37 1.13-4.24 1.08-8.62.84-12.95l-.01-.82z"/><path fill="#5e6369" opacity=".96" d="M307.8 156.38c-2.9-.63-5.07-1.87-1.65-3.95 9.02 1.58 4.31 11.71 1.22 17.13-2.12-1.06-4.88-1.7-6-4.02 2.49-2.79 4.62-5.89 6.43-9.16z"/><path fill="#9da4b1" d="M181.04 154.93c2.36-.57 4.25 2.71 1.75 3.89-2.82 1.35-1.57-2.32-1.75-3.89z"/><path fill="#666d7a" d="M203.91 156.01c5.65-2.13 6.51 6.21 5.18 9.08-5.14 3.22 1.75-5.85-3-5.23-1.68-.21-1.76-2.55-2.18-3.85z"/><path fill="#21242b" d="M294.74 161.9c1.36 5.13 3.47-4.21 4.87-6.2.24 4.33.29 8.71-.84 12.95-1.86 2.02-5.07 3.15-4.96 6.37-1.12 3.38-2.05 6.82-3.65 10.01-3.66 2.37-2.9-4.03-3.44-6.2l.45-1.63c2.03-4.09 3.62-8.4 4.84-12.8l2.73-2.5z"/><path fill="#393f48" d="M251.02 162.24c2.68-1.93 5.99-2.62 8.97-3.94 3.26 2.96 1.35 6.72-.8 9.64 1.38 1.64 3.43 2.11 5.47 2.33 1.64 2.56 3.6 4.9 5.76 7.05.81 5.27 2.89 4.31 5.39.52-.94 5.69 4.81 9.96 9.08 6.53.74-1.8 1.27-3.68 1.83-5.54.54 2.17-.22 8.57 3.44 6.2 2.07 2.83-3.25 1.11-1.97 3.88 3.96 1.12 8.06-.85 12.03-1.45.87-2.12 1.36-4.37 2.02-6.55l.94.37c-.32 4.52-.75 9.35-4.22 12.62-.61 1.01-1.06 2.09-1.35 3.24-1.3-1.89.36-8.55-3.45-8.05-.46 2.53-.67 5.21-2.83 6.96.7-3.27-3.35-4.29-4.3-1.23 1.37 1.74 3.47 3.46 1.9 5.79-2.36 1.63-1.59 4.29-1.08 6.83.51 2.83-6.11.51-2.45 3.17 3.24 2.76.26 2.41-2.25 1.2-.5-.26-1.49-.8-1.98-1.07-3.04.03-7.59-2.28-10.11.49.21 5.74 1.71 12.95 8.1 14.72-1.06.41-2.11.84-3.15 1.27-4.88-1.33-9.64-3.33-14.12-5.67 3.12-.15 3.73-3.1 4.15-5.64-3.72 1.05-9.96.36-10.7 5.16l-5.46-7.54c2.45-3.96 9.64-7.12 5.16-12.19 6.83.46 4.92-5.38-.25-6.26 2.65-1.91 7.29 2.66 7.91-1.39 1.35-3.46-1.92-6.14-3.66-8.72 4.08.42.58-4.01-1.82-3.65-.05-2.87 3.08-7.11.63-8.74-5.67 2.03-7.48-6.25-6.83-10.34m23.56 39.37c-3.06 3.37-2.96-3.4-6.66-1.62 2.49 3.58-.71 10.72 6.11 9.06-4.38-4.08 1.99-2.05 3.41-5.54-.34-3.75 6.25-.84 5.39-3.23 6.33-.37 1.69-8.46-2.92-6.34-6.59-1.77-.8 5.16-5.33 7.67z"/><path fill="#515663" d="M148.26 159.09c3.94-.52 8.83-.1 11.61 3.15.93 4.09-5.92 4.73-5.77 8.56 1.71 2.36 3.52.74 3.13-1.75 4.72-1.9 4.4 10.09-.58 6.33-2.09-1.47-8.52-4.6-3.89-6.8 2.82-5.12-9.88-4.27-4.5-9.49z"/><path fill="#6b7370" d="M171.29 160.22c4.54-1.53 6.66 5.78 2.44 7.61-6.61 3.01-7.08-5.86-2.44-7.61z"/><path fill="#8b909f" d="M202.2 166.37c-6.53 2.32-4.61-7.11 1.18-5.89 2.64 2.1.81 4.18-1.18 5.89z"/><path fill="#545868" d="M212.42 166.97c.77-2.07 1.44-5.12 4.33-3.82 4.16 4.07 1.96 10.84 2.23 15.91 4.6.02.77-8.12 5.25-9.88 2.34.48 4.83 2.28 6.17-.75 5.87.29 17-1.56 14.46 8.11-4.45.29-7.72 4.44-12.36 3.17-3.48-6.52-10.89 7.21-15.06.59-4.64 7.59-2.23-6.73-1.31-10.19 2.07-3.61-2.28-1.68-4.31-1.38l.6-1.76z"/><path fill="#575b6f" opacity=".98" d="M125.77 165.86c2.38-1.34 7.54-4.58 6.25 2.12.8 3.74 3.48 11.79-3.13 10.22-2.22-1.3-3.08-3.85-4.03-6.08.08-1.65.22-3.29.4-4.92l.51-1.34z"/><path fill="#666e75" d="M264.66 170.27c2.12-1.78 4.39-3.56 7.19-4.09 2.66 1.54 2.16 4.44 1.09 6.83-.94 1.37-1.76 2.82-2.52 4.31-2.16-2.15-4.12-4.49-5.76-7.05z"/><path fill="#768089" d="M281.84 173.8c3.92-3.2 7.65-1.83 5.33 3.4l-.45 1.63-1.83 5.54c-3.61-2.14-5.81-6.89-3.05-10.57z"/><path fill="#58616e" d="M293.81 175.02c2.9-1.33 5.72-3.42 9.08-3.06.28 3.1.21 6.2.29 9.32l-.94-.37c2.46-4.52-2.51-9.12-5.23-4.99-.92 3.94-4.41 12.51 3.21 11.54-3.97.6-8.07 2.57-12.03 1.45-1.28-2.77 4.04-1.05 1.97-3.88 1.6-3.19 2.53-6.63 3.65-10.01z"/><path fill="#535e6b" d="M275.81 177.84l6.03-4.04c-2.76 3.68-.56 8.43 3.05 10.57-4.27 3.43-10.02-.84-9.08-6.53z"/><path fill="#828d96" d="M297.01 175.92c2.72-4.13 7.69.47 5.23 4.99l-2.02 6.55c-7.62.97-4.13-7.6-3.21-11.54z"/><path fill="#929799" d="M203.19 180.25c3.86 1.32-.26 7.42-.43 10.63-7.47-2.86-.63 6.09 1.44 8.91 3.31 3.4-4.56 2.79-2.6-.63-5.36.01-4.81-3.41-7.54-6.15 2.71-5.18 6.78-7.85 9.13-12.76z"/><path fill="#8a918a" d="M191.31 183.3c3.81-2.35 9 4.27 2.73 3.92 2.89 7.32-10.03-2.51-2.73-3.92z"/><path fill="#4a5065" d="M248.62 190.15c1.61-4.72 4.89-8.41 10.42-5.18 1.74 2.58 5.01 5.26 3.66 8.72-.62 4.05-5.26-.52-7.91 1.39-1.32-.55-2.6-1.18-3.87-1.81-.86-.96-1.92-1.84-2.3-3.12z"/><path fill="#6d7676" d="M172.14 194.51c-4.48-1.09-7.29-8.56-.55-7.87 3.99 1.62 4.12 5.67.55 7.87z"/><path fill="#52565c" d="M294.16 189.09c3.81-.5 2.15 6.16 3.45 8.05l1.14 7.14.09 4.48-1.06 6.46c-.39-2.01-.88-3.82-2.56-1.58-1-1.93-2.3-3.86-2.02-6.14 2.01-3.34-.17-7.6-4.27-6.89 1.57-2.33-.53-4.05-1.9-5.79.95-3.06 5-2.04 4.3 1.23 2.16-1.75 2.37-4.43 2.83-6.96z"/><path fill="#64666c" d="M223.19 197.28c-8.85 1.14 5.87-11.2 4.18-3.09-1.14 1.3-2.4 2.74-4.18 3.09z"/><path fill="#8d9393" d="M212.5 194.15c1.8-2.43 6.86-3.46 5.86 1.07-.59 1.62-1.92 2.79-3.03 4.06-3.67 2.02-2.77-2.93-2.83-5.13z"/><path fill="#131416" opacity=".6" d="M233.21 191.76c1.79 4.61.67 9.72-.11 14.43l.11-14.43z"/><path fill="#20222b" d="M250.92 193.27l3.87 1.81c5.17.88 7.08 6.72.25 6.26 4.48 5.07-2.71 8.23-5.16 12.19-1.08.71-2.2 1.38-3.15 2.28-3.42 2.28-1.12 7.11.6 9.87 1.43 3.03 7.47 1.49 6.13 5.99 5.5.38-3.72 3.73 1.51 6.56.39 2.51-.56 4.79-2.89 5.95-1.33-.95-3.78-4.94-4.93-2.18-.05 3.46-3.89 1.72-4.06-.75 5.69-5.85-3.64-7.08-6.46-10.82-3.43.51-5.87-2.15-9.05-2.79l.58-.5c2.46-.41 6.42.43 4.31-4.85 3.64-4.62 2.65-15.38 11.16-12.72 2.36.78.85-1.31.45-2.46 1.17-.43 3.51.44 3.79-1.24 1.38-4.09 3.46-8.15 3.05-12.6z"/><path fill="#5a5c69" d="M143.21 194.15c5.07-.42.83 11.88-3.12 6.65.27-2.47 1.13-5.02 3.12-6.65z"/><path fill="#555b59" d="M274.58 201.61c4.53-2.51-1.26-9.44 5.33-7.67-1.44 2.62 3.44 2.94 2.92 6.34.86 2.39-5.73-.52-5.39 3.23-1.42 3.49-7.79 1.46-3.41 5.54-6.82 1.66-3.62-5.48-6.11-9.06 3.7-1.78 3.6 4.99 6.66 1.62z"/><path fill="#7d7d85" d="M279.91 193.94c4.61-2.12 9.25 5.97 2.92 6.34.52-3.4-4.36-3.72-2.92-6.34z"/><path fill="#696f82" d="M164.61 199.91l2.26-1.3c3.7.23 4.53 5.31 1.12 6.64-1.45-1.55-2.48-3.44-3.38-5.34z"/><path fill="#60666a" d="M175.4 205.69c-2.01-5.17 4.78-8.92 7.96-3.95-3.03-1.77-6.04 1.13-5.41 4.33 2.74.1 5.78-1.08 5.41-4.33.87 3.23 3.75 3.67 6.71 3.43-1.36 1.58-3.37 4.15-.86 5.75 5.06 1.59 8.92-6.32 13.69-2.79-.87 4.43-3.3 7.94-6.92 10.54 2.66 1.1 6.59 1.59 6.45 5.33-1.43-1.98-3.32-.69-5.08-.06-2.65-2.01-5.96.44-7.31 2.86 4.85 2.77-4.07 6.06.05 9.13 3.48 1.86-1.09 4.35.73 7.19.01 4.14 2.7-1.17 4.07-2.19.98 3.28-1.51 5.55-2.31 8.37 2.15 2.87.65 4.18 1.14 7.54-1.64.09-2.56 1.08-2.93 2.62-5.52.41-2.67-2.66-.73-5.46-2.46-4.98-3.54.53-7.13.04-.45-3.16 2.96-4.36 4.09-6.86-4.18-3.41-5.18-10.18-11.06-11.32-1.12 4.16 4.43 2.8 5.47 5.78 1.49 2.2-.48 4.55-1.57 6.44-2.75-.84-1.42-3.66-1.41-5.76-4.57-1.29-7.66-5.37-13.17-3.61-4.02-2.67 4.58-3.77 2.61-7.46-2.71-2.97-8.74-3.16-8.9-8.08 2.44-1.66 5.47-2.04 8.29-2.66 1.58.34 3.18.58 4.71 1.13-7 1.73-.17 16.52 4.71 10.05 1.93-3.41.14-6.42-2.59-8.6 4.35-.39-1.19-6.35-4.1-5.48.96-2.86 4.77-3.93 4.88-7.41-5.74 1.06-4.29-4.97.51-4.51m15.94 7.57c-1.7.35-4.3 4.31-4.67.93-4.72-2.96-2.11 10.53 1 5.42 2.24-2.38 15.23-7.19 3.67-6.35z"/><path fill="#94999d" d="M177.95 206.07c-.63-3.2 2.38-6.1 5.41-4.33.37 3.25-2.67 4.43-5.41 4.33z"/><path fill="#858e63" d="M287.85 207.44c-.51-2.54-1.28-5.2 1.08-6.83 4.1-.71 6.28 3.55 4.27 6.89-1.78.2-3.58.18-5.35-.06z"/><path fill="#0d0d10" opacity=".66" d="M238.7 206.62c2.96-.92 6.09-.6 9.17-.75-.28 1.68-2.62.81-3.79 1.24l-5.38-.49z"/><path fill="#101114" opacity=".98" d="M233.82 209.09c1.53-.99 3.06-2.06 4.88-2.47l5.38.49c.4 1.15 1.91 3.24-.45 2.46-8.51-2.66-7.52 8.1-11.16 12.72 2.11 5.28-1.85 4.44-4.31 4.85l-2.17-2.08.04-.81c4.4-4 5.5-9.95 7.79-15.16z"/><path fill="#666b72" d="M287.85 207.44c1.77.24 3.57.26 5.35.06-.28 2.28 1.02 4.21 2.02 6.14 1.68-2.24 2.17-.43 2.56 1.58l.42 15.02.08 3.56c-6.05-4.06-5.49 10.71.05 6.25-.75 6.99-5.61 11.35-12.21 13.25.81-3.19 3.64-4.92 5.64-7.27-.87-2.21-1.62-4.47-1.02-6.85-1.9.29-3.78.7-5.69.91 1.64-3.3 1.75-7.99-.43-10.92-.67 2.3-2.37.21-3.67-.24.2 2.39.74 4.73 1 7.12-3.81.65-6.63-3.08-10.36-2.59-3.54 2.55-5.84-.46-5.84-3.25 3.69 3.09 7.34-.76 10.26-2.99l3.15-1.27c1.51-.26 2.2-1.68 3.1-2.75 6.55.74 5.15-8.74.89-11.39 2.51 1.21 5.49 1.56 2.25-1.2-3.66-2.66 2.96-.34 2.45-3.17m4.35 12.68c-2.17 2.26-4.91 4.61-5.27 7.92 3.37.93 3.14-5.09 6.38-3.46 3.65 1.26 2.62-6.66-1.11-4.46z"/><path fill="#0a0a0a" opacity=".63" d="M229.19 216.03c1.71-2.49 2.47-5.46 3.62-8.22l1.01 1.28c-2.29 5.21-3.39 11.16-7.79 15.16-.5-3.23 1.21-5.86 3.16-8.22z"/><path fill="#5d6848" d="M271.06 211.23c2.52-2.77 7.07-.46 10.11-.49-9.53-1.52-3.26 9.69 1.09 12.46-.9 1.07-1.59 2.49-3.1 2.75-6.39-1.77-7.89-8.98-8.1-14.72z"/><path fill="#88916d" d="M282.26 223.2c-4.35-2.77-10.62-13.98-1.09-12.46l1.98 1.07c4.26 2.65 5.66 12.13-.89 11.39z"/><path fill="#878b99" d="M191.34 213.26c11.56-.84-1.43 3.97-3.67 6.35-3.11 5.11-5.72-8.38-1-5.42.37 3.38 2.97-.58 4.67-.93z"/><path fill="#595e76" d="M246.73 215.81c.95-.9 2.07-1.57 3.15-2.28l5.46 7.54c.82 2.29-.08 5.09-2.37 6.12-3.47-2.69-8.2-6.42-6.24-11.38z"/><path fill="#2b2d30" opacity=".96" d="M138.83 215.11c2.19.44 3.31 1.67 2.66 3.92 3.26 10.44 18.19 9.86 21.46 21.12-2.29-1.08-4.44-2.46-6.81-3.36l-.41 13.51-.69-2.35.02-2.02.03-3.06c-.22-1.29.29-3.17-1.04-3.96a35.55 35.55 0 0 1-13.6-15.93l-1.04-3.11-.23-.87-.35-3.89z"/><path fill="#464b55" d="M247.33 225.68c-1.72-2.76-4.02-7.59-.6-9.87-1.96 4.96 2.77 8.69 6.24 11.38 2.29-1.03 3.19-3.83 2.37-6.12.74-4.8 6.98-4.11 10.7-5.16-.42 2.54-1.03 5.49-4.15 5.64 4.48 2.34 9.24 4.34 14.12 5.67-2.92 2.23-6.57 6.08-10.26 2.99 0 2.79 2.3 5.8 5.84 3.25 3.73-.49 6.55 3.24 10.36 2.59-.26-2.39-.8-4.73-1-7.12 1.3.45 3 2.54 3.67.24 2.18 2.93 2.07 7.62.43 10.92 1.91-.21 3.79-.62 5.69-.91-.6 2.38.15 4.64 1.02 6.85-2 2.35-4.83 4.08-5.64 7.27-7.97 4.01-17.4 3.84-25.91 6.16-1.41-.49-4.2-.47-4.17-2.46 2.39-5.16 19.64 2.35 15.89-6.82 2.14 1.13 5.36.91 6.29-1.65 1.45-2.52 1.44-4.82-.04-6.88-2.36-5.35-6.67-6.69-12.35-5.58.62 2.16 2.96 2.91 4.53 4.27-2.64 1.56-4.48 5.82-8.08 4.49-4.97-2.35 2.61-10.79-7.31-6.6-5.23-2.83 3.99-6.18-1.51-6.56 1.34-4.5-4.7-2.96-6.13-5.99z"/><path fill="#777d73" d="M215.85 222.85c2.88-2.81 7.58-6.43 8.02.28 3.52 6.69-5.42 5.74-7.52 10.11 1.23-2.77-.82-4.27-3.27-4.83-2.9 1.84-1.07 6.47-.13 9.11-2.3 1.77-3.2-1.02-3.48-2.96-2.17-.35-2.28-1.95-1.75-3.78 1.74-1.96 3.63-3.78 5.55-5.57 2.83-.17 7.33 2.51 7.86-1.83-1.77-.03-3.55-.08-5.28-.53z"/><path fill="#868c90" d="M292.2 220.12c3.73-2.2 4.76 5.72 1.11 4.46-3.24-1.63-3.01 4.39-6.38 3.46.36-3.31 3.1-5.66 5.27-7.92z"/><path fill="#8f8f9b" d="M176.7 231.69c-4.88 6.47-11.71-8.32-4.71-10.05l2.12 1.45c2.73 2.18 4.52 5.19 2.59 8.6z"/><path fill="#767983" d="M190.04 226.8c1.35-2.42 4.66-4.87 7.31-2.86-1.78 4.12 2.28 7.85-2.25 10.86 4.55-.66.99 3.04.35 5.26l-.56.87c-1.37 1.02-4.06 6.33-4.07 2.19-1.82-2.84 2.75-5.33-.73-7.19-4.12-3.07 4.8-6.36-.05-9.13z"/><path fill="#5f666e" d="M223.87 223.13l2.12 1.93 2.17 2.08-.58.5c-2.27 1.93-3.88 5.02-7.33 3.72-2.09 3.38-4.58 6.72-5.33 10.71 2.85.17 5.27-1.48 7.87-2.35-.75 1.67-1.67 3.31-1.91 5.17l8.32-.71c-2.83 2.01-4.64 9.84-8.27 6.04l.02 2.53c-2.01-.19-4.01.05-5.99.37-1.29-3.1-2.69-4.14-5.57-2.01.28-2.48-.63-6.97-4.01-5.92-3.01 3.76.2 10.28-6.2 10.86-1.67-5.23 1.57-10.61-.42-15.97.89-5.69 6.85-1.18 10.47-1.15-2.12-2.27-5.12-5.6-1.51-8.15-.53 1.83-.42 3.43 1.75 3.78.28 1.94 1.18 4.73 3.48 2.96 1.42-1.18 2.5-2.69 3.4-4.28 2.1-4.37 11.04-3.42 7.52-10.11z"/><path fill="#999f98" d="M213.08 228.41c2.45.56 4.5 2.06 3.27 4.83-.9 1.59-1.98 3.1-3.4 4.28-.94-2.64-2.77-7.27.13-9.11z"/><path fill="#737879" d="M220.25 231.36c3.45 1.3 5.06-1.79 7.33-3.72.49 2.85 4.85 9.83 6.93 4.62 5.97 3.09-.6 11.68-5.31 11.92-2.78.18-5.55.48-8.32.71.24-1.86 1.16-3.5 1.91-5.17-2.6.87-5.02 2.52-7.87 2.35.75-3.99 3.24-7.33 5.33-10.71z"/><path fill="#4b505c" d="M227.58 227.64c3.18.64 5.62 3.3 9.05 2.79 2.82 3.74 12.15 4.97 6.46 10.82-4.97.04-9.33 3.68-7.16 8.89-2.23-.74-4.4-2.18-6.8-1.1-3.75 2.7 5.37-.38 5.2 4.51-4.71-1.3-9.09 2.92-13.38-.8l-.02-2.53c3.63 3.8 5.44-4.03 8.27-6.04 4.71-.24 11.28-8.83 5.31-11.92-2.08 5.21-6.44-1.77-6.93-4.62z"/><path fill="#8f93a1" d="M298.33 240.05c-5.54 4.46-6.1-10.31-.05-6.25-1.01 1.97-.65 4.25.05 6.25z"/><path fill="#484c52" opacity=".6" d="M298.28 233.8l.73.18-.68 6.07c-.7-2-1.06-4.28-.05-6.25z"/><path fill="#606573" d="M265.83 236.07c5.68-1.11 9.99.23 12.35 5.58-1.77.33-3.52.71-5.26 1.15-.1-1.46-1.46-1.88-2.56-2.46-1.57-1.36-3.91-2.11-4.53-4.27z"/><path fill="#515947" d="M156.14 236.79c2.37.9 4.52 2.28 6.81 3.36 2.84 1.67 7.23 1.72 8.31 5.44-3.86-1.74-4.78 3.56-5.29 6.32 3.72 3.41 4.95 8.34 8.13 12.1-1.8.07-3.6.19-5.4.29-3.13-.85-5.9-2.62-8.72-4.15-1.46-2.64-2.86-5.32-3.95-8.14l-.3-1.71.41-13.51z"/><path fill="#383c48" d="M254.97 238.23c9.92-4.19 2.34 4.25 7.31 6.6 3.6 1.33 5.44-2.93 8.08-4.49 1.1.58 2.46 1 2.56 2.46-4.13.96-2.52 4.79-.99 7.38 3.75 9.17-13.5 1.66-15.89 6.82-.03 1.99 2.76 1.97 4.17 2.46l-2.01.7c-4.82-.03-9.62-.07-14.43.08-7.97-.44-16.42-5.86-23.78-.36.91-3.94-.69-5.86-4.69-4.8l-.34-1.96c1.98-.32 3.98-.56 5.99-.37 4.29 3.72 8.67-.5 13.38.8.17-4.89-8.95-1.81-5.2-4.51 2.4-1.08 4.57.36 6.8 1.1-2.17-5.21 2.19-8.85 7.16-8.89.17 2.47 4.01 4.21 4.06.75 1.15-2.76 3.6 1.23 4.93 2.18 2.33-1.16 3.28-3.44 2.89-5.95z"/><path fill="#4a505b" d="M194.89 240.93l.56-.87c1.1.07 2.2.06 3.31.02 1.99 5.36-1.25 10.74.42 15.97 6.4-.58 3.19-7.1 6.2-10.86 3.38-1.05 4.29 3.44 4.01 5.92 2.88-2.13 4.28-1.09 5.57 2.01l.34 1.96c-4.02-.47-13.9 1.87-10.36 7.87-2.52-.49-5.09-.87-7.6-1.28-2-1.23-4.32-1.63-6.55-2.21.37-1.54 1.29-2.53 2.93-2.62 4.6-1.61 5.13-14.27-1.14-7.54.8-2.82 3.29-5.09 2.31-8.37z"/><path fill="#989bac" d="M272.92 242.8l5.26-1.15c1.48 2.06 1.49 4.36.04 6.88-2.5-1.09-4.88-2.85-5.3-5.73z"/><path fill="#6e7081" d="M271.93 250.18c-1.53-2.59-3.14-6.42.99-7.38.42 2.88 2.8 4.64 5.3 5.73-.93 2.56-4.15 2.78-6.29 1.65z"/><path fill="#68705a" d="M165.97 251.91c.51-2.76 1.43-8.06 5.29-6.32.47 3.15 2.69 6.11 4.41 7.19-7.88 6.01 13.34 13.19-1.57 11.23-3.18-3.76-4.41-8.69-8.13-12.1z"/><path fill="#7e848e" d="M192.58 249.3c6.27-6.73 5.74 5.93 1.14 7.54-.49-3.36 1.01-4.67-1.14-7.54z"/><path fill="#898c9a" d="M215.3 255.08c4-1.06 5.6.86 4.69 4.8-1.22 2.35-2.54 4.8-4.84 6.27-4.07 1.65-7.51-.15-10.21-3.2-3.54-6 6.34-8.34 10.36-7.87z"/><path fill="#515939" opacity=".98" d="M197.34 261.67l7.6 1.28c2.7 3.05 6.14 4.85 10.21 3.2-2.08 1.44-4.36 2.68-6.86 3.19l-8.38-.23-2.66-1.33-1.49-.88c.47-1.76 1.02-3.5 1.58-5.23z"/><path fill="#131519" opacity=".6" d="M181.78 267.17l13.98-.27 1.49.88c-5.15.32-10.39.48-15.47-.61z"/></svg>