<?xml version="1.0" encoding="UTF-8" ?>
<!DOCTYPE svg PUBLIC "-//W3C//DTD SVG 1.1//EN" "http://www.w3.org/Graphics/SVG/1.1/DTD/svg11.dtd">
<svg width="384pt" height="384pt" viewBox="0 0 384 384" version="1.1" xmlns="http://www.w3.org/2000/svg">
<g id="#0000000d">
</g>
<g id="#00000014">
</g>
<g id="#0000001c">
</g>
<g id="#00000024">
</g>
<g id="#2b2e3899">
<path fill="#2b2e38" opacity="0.60" d=" M 160.86 86.82 C 162.56 84.46 165.85 85.14 168.01 86.86 C 166.23 86.85 162.65 86.83 160.86 86.82 Z" />
</g>
<g id="#40444efe">
<path fill="#40444e" opacity="1.00" d=" M 159.23 87.06 C 159.64 87.00 160.45 86.88 160.86 86.82 C 159.04 92.24 167.56 90.06 170.17 88.17 C 172.12 88.90 174.08 89.61 176.05 90.31 C 176.98 90.70 177.93 91.05 178.89 91.37 C 183.86 96.76 175.45 102.63 177.36 108.82 C 178.43 114.10 182.29 120.95 175.59 123.58 C 170.83 123.21 172.60 129.17 168.78 130.68 C 166.08 131.85 163.47 134.59 164.15 137.74 C 165.38 140.09 168.16 137.78 170.10 137.71 C 174.13 143.16 168.24 152.78 174.80 156.12 C 172.81 158.33 169.64 159.67 173.59 162.38 C 175.71 166.85 180.66 162.66 183.99 165.25 C 184.27 165.81 184.82 166.93 185.10 167.48 C 185.76 171.02 183.47 173.28 180.83 175.16 C 182.06 177.48 184.85 176.34 186.95 176.74 C 187.04 177.22 187.21 178.16 187.30 178.64 C 184.87 183.02 180.60 177.27 176.70 179.99 C 171.07 179.20 174.30 187.16 178.18 187.55 C 178.37 192.17 172.70 189.97 170.14 192.13 C 169.16 194.01 168.78 196.14 167.82 198.03 C 163.64 197.45 157.88 195.94 159.77 190.06 C 154.02 188.39 153.89 196.28 152.02 199.81 C 154.54 202.63 158.20 199.54 161.07 198.96 C 160.69 200.84 157.82 203.36 160.20 204.84 C 162.92 205.69 162.39 201.58 163.35 199.99 C 164.48 202.32 165.83 204.51 167.46 206.52 C 164.12 209.27 169.00 211.41 171.35 212.23 C 167.98 213.21 161.62 211.76 160.26 216.33 C 160.52 220.77 161.98 224.99 162.74 229.34 C 155.99 226.67 155.47 220.07 156.91 214.00 C 154.57 214.92 154.21 221.94 149.09 219.04 C 148.15 215.75 144.69 211.68 140.99 214.71 C 139.99 213.12 137.89 210.49 139.79 208.90 C 144.00 206.40 145.60 201.23 147.11 196.91 C 140.74 196.67 142.09 203.78 137.95 206.22 C 134.34 204.41 133.80 200.63 132.74 197.21 C 129.02 195.44 131.84 201.03 127.96 198.05 C 127.82 196.63 127.72 195.20 127.65 193.78 C 127.70 188.78 130.23 184.21 134.36 181.38 C 137.34 183.19 135.50 187.32 135.40 190.18 C 139.12 185.74 146.34 187.70 148.08 181.09 C 149.11 176.78 154.12 180.34 155.82 176.78 C 155.86 174.25 152.38 171.27 155.61 169.59 C 158.09 168.55 156.97 163.93 154.20 165.28 C 150.29 168.17 144.53 163.71 144.78 159.30 C 142.47 160.65 140.16 160.89 138.10 158.94 C 137.93 160.69 137.84 162.45 137.77 164.21 C 137.25 161.44 136.94 158.63 135.80 156.05 C 131.05 155.74 128.27 160.89 127.76 165.02 C 124.33 159.22 132.43 156.05 130.50 150.81 C 130.38 150.10 130.13 148.66 130.00 147.94 C 130.36 145.57 130.72 143.20 130.94 140.82 C 132.58 136.41 135.25 131.80 131.23 127.78 C 130.64 121.02 132.66 114.36 135.10 108.14 C 141.11 105.67 138.21 98.56 140.85 93.81 C 146.88 90.88 155.39 93.86 159.23 87.06 M 156.26 93.13 C 149.95 97.28 162.88 98.77 163.93 94.98 C 163.82 91.42 157.66 93.72 156.26 93.13 M 164.22 102.20 C 162.11 103.43 165.41 106.56 162.45 107.48 C 158.12 110.24 158.93 115.46 160.23 119.66 C 163.10 119.58 168.80 124.25 169.85 121.25 C 170.91 120.54 172.91 119.60 172.71 118.14 C 175.97 116.43 176.76 111.45 174.22 108.95 C 173.77 107.54 172.37 106.72 170.92 106.83 L 171.02 106.03 C 162.61 111.63 168.66 100.43 164.22 102.20 M 147.13 107.08 C 143.56 109.98 139.84 115.05 144.19 118.95 C 150.45 119.07 154.73 108.55 147.13 107.08 M 158.09 150.22 C 155.96 152.46 155.29 155.41 159.00 156.00 C 163.77 156.71 161.22 160.99 158.12 162.23 C 160.37 165.06 162.42 169.65 166.78 168.91 C 168.17 166.26 170.19 159.38 165.23 161.07 C 165.37 163.42 164.38 164.63 161.96 163.98 C 160.95 158.68 170.00 158.90 169.86 154.22 C 167.03 150.80 161.87 151.69 158.09 150.22 Z" />
</g>
<g id="#64687bfb">
<path fill="#64687b" opacity="1.00" d=" M 160.86 86.82 C 162.65 86.83 166.23 86.85 168.01 86.86 C 168.55 87.18 169.63 87.84 170.17 88.17 C 167.56 90.06 159.04 92.24 160.86 86.82 Z" />
</g>
<g id="#16191a7a">
</g>
<g id="#5f646cfe">
<path fill="#5f646c" opacity="1.00" d=" M 178.89 91.37 C 179.64 91.23 181.13 90.95 181.88 90.81 C 188.32 92.95 189.79 101.44 196.79 102.13 C 199.87 102.73 203.03 102.96 206.16 102.92 C 206.86 103.39 207.50 103.92 208.10 104.52 C 203.45 108.68 203.88 117.29 210.24 119.77 C 212.77 123.19 214.28 118.83 214.52 116.78 C 214.86 123.20 220.70 124.41 224.13 129.02 C 224.69 134.82 217.28 128.55 213.95 128.85 C 215.64 131.62 217.33 134.51 219.74 136.72 C 228.22 142.76 232.78 153.51 232.15 163.82 C 230.43 163.38 228.78 162.74 227.13 162.11 C 226.83 158.60 226.49 154.05 222.03 153.80 C 219.69 158.31 223.91 159.74 226.29 161.85 C 222.22 162.96 217.18 161.70 213.87 164.58 C 216.10 164.70 217.63 165.58 217.00 168.03 C 213.78 168.90 212.58 166.51 211.79 163.89 C 209.57 164.77 210.40 167.01 210.48 168.85 C 205.22 170.44 206.51 176.88 205.80 181.18 C 205.26 176.28 203.61 181.43 201.96 177.84 C 199.10 175.74 199.51 185.80 197.14 182.05 C 197.79 176.39 192.62 180.70 190.08 181.89 C 186.75 177.07 195.72 175.90 197.94 175.92 C 199.03 172.64 200.50 169.50 202.07 166.42 C 205.39 165.07 206.86 162.44 204.31 159.41 C 203.56 156.43 198.27 156.49 195.79 157.73 C 196.47 155.07 196.60 151.49 199.81 150.65 C 199.67 151.91 197.09 153.98 199.14 154.54 C 203.14 151.91 210.68 154.01 212.62 147.13 C 212.88 152.65 219.70 153.63 218.73 147.37 C 224.57 146.69 222.27 144.40 218.11 142.82 C 214.13 142.55 219.38 135.98 215.34 137.16 C 215.06 139.24 214.90 141.49 212.22 141.21 C 209.56 137.45 211.82 128.29 205.44 129.33 C 203.67 133.12 194.87 140.41 203.12 140.75 C 197.26 139.79 197.95 144.40 200.07 148.04 C 196.47 147.45 196.05 143.82 194.82 141.07 C 191.20 140.22 192.60 145.85 191.41 148.24 C 189.57 148.36 187.69 148.45 186.49 150.08 C 185.58 146.09 182.38 146.53 179.11 145.92 C 180.10 143.17 180.92 140.35 180.94 137.39 C 178.47 137.27 173.94 135.80 176.82 132.90 C 180.96 131.37 178.18 126.80 181.04 124.15 C 179.23 123.93 177.41 123.77 175.59 123.58 C 182.29 120.95 178.43 114.10 177.36 108.82 C 175.45 102.63 183.86 96.76 178.89 91.37 M 184.21 106.10 C 181.85 109.28 183.18 112.88 186.90 113.94 C 189.35 111.72 187.53 105.78 184.21 106.10 M 198.23 107.21 C 196.69 110.28 189.85 112.24 194.37 115.53 C 198.53 115.39 196.97 121.24 201.03 120.01 C 199.55 116.28 201.49 107.55 198.23 107.21 M 188.99 114.96 C 187.65 119.07 191.85 122.01 190.13 125.85 C 192.50 127.17 194.50 125.99 196.60 125.14 C 196.83 127.00 198.47 127.14 200.02 127.02 C 201.56 122.06 191.76 123.78 194.96 117.99 C 190.51 123.04 193.65 114.27 188.99 114.96 Z" />
</g>
<g id="#6d7386ff">
<path fill="#6d7386" opacity="1.00" d=" M 156.26 93.13 C 157.66 93.72 163.82 91.42 163.93 94.98 C 162.88 98.77 149.95 97.28 156.26 93.13 Z" />
</g>
<g id="#62667cff">
<path fill="#62667c" opacity="1.00" d=" M 164.22 102.20 C 168.66 100.43 162.61 111.63 171.02 106.03 L 170.92 106.83 C 163.96 105.81 166.22 111.70 164.10 115.94 C 164.85 118.84 166.36 121.76 169.85 121.25 C 168.80 124.25 163.10 119.58 160.23 119.66 C 158.93 115.46 158.12 110.24 162.45 107.48 C 165.41 106.56 162.11 103.43 164.22 102.20 Z" />
</g>
<g id="#17191579">
</g>
<g id="#0000002c">
</g>
<g id="#9396a5fc">
<path fill="#9396a5" opacity="1.00" d=" M 210.24 119.77 C 203.88 117.29 203.45 108.68 208.10 104.52 C 211.70 107.66 214.89 111.63 214.52 116.78 C 214.28 118.83 212.77 123.19 210.24 119.77 Z" />
</g>
<g id="#9397a4ff">
<path fill="#9397a4" opacity="1.00" d=" M 184.21 106.10 C 187.53 105.78 189.35 111.72 186.90 113.94 C 183.18 112.88 181.85 109.28 184.21 106.10 Z" />
</g>
<g id="#5c6278ff">
<path fill="#5c6278" opacity="1.00" d=" M 147.13 107.08 C 154.73 108.55 150.45 119.07 144.19 118.95 C 139.84 115.05 143.56 109.98 147.13 107.08 Z" />
</g>
<g id="#9599a6ff">
<path fill="#9599a6" opacity="1.00" d=" M 164.10 115.94 C 166.22 111.70 163.96 105.81 170.92 106.83 C 172.37 106.72 173.77 107.54 174.22 108.95 C 174.70 112.33 171.30 114.83 172.71 118.14 C 172.91 119.60 170.91 120.54 169.85 121.25 C 166.36 121.76 164.85 118.84 164.10 115.94 Z" />
<path fill="#9599a6" opacity="1.00" d=" M 202.07 166.42 C 197.50 165.25 201.03 159.91 204.31 159.41 C 206.86 162.44 205.39 165.07 202.07 166.42 Z" />
</g>
<g id="#7d817fff">
<path fill="#7d817f" opacity="1.00" d=" M 198.23 107.21 C 201.49 107.55 199.55 116.28 201.03 120.01 C 196.97 121.24 198.53 115.39 194.37 115.53 C 189.85 112.24 196.69 110.28 198.23 107.21 Z" />
</g>
<g id="#727767ff">
<path fill="#727767" opacity="1.00" d=" M 174.22 108.95 C 176.76 111.45 175.97 116.43 172.71 118.14 C 171.30 114.83 174.70 112.33 174.22 108.95 Z" />
</g>
<g id="#83868eff">
<path fill="#83868e" opacity="1.00" d=" M 188.99 114.96 C 193.65 114.27 190.51 123.04 194.96 117.99 C 191.76 123.78 201.56 122.06 200.02 127.02 C 198.47 127.14 196.83 127.00 196.60 125.14 C 194.50 125.99 192.50 127.17 190.13 125.85 C 191.85 122.01 187.65 119.07 188.99 114.96 Z" />
</g>
<g id="#4c5360ff">
<path fill="#4c5360" opacity="1.00" d=" M 168.78 130.68 C 172.60 129.17 170.83 123.21 175.59 123.58 C 177.41 123.77 179.23 123.93 181.04 124.15 C 178.18 126.80 180.96 131.37 176.82 132.90 C 173.94 135.80 178.47 137.27 180.94 137.39 C 180.92 140.35 180.10 143.17 179.11 145.92 C 182.38 146.53 185.58 146.09 186.49 150.08 C 193.06 153.62 184.88 160.23 183.99 165.25 C 180.66 162.66 175.71 166.85 173.59 162.38 C 169.64 159.67 172.81 158.33 174.80 156.12 C 168.24 152.78 174.13 143.16 170.10 137.71 C 173.52 135.94 173.76 128.58 168.78 130.68 M 180.19 154.09 C 177.94 156.08 176.30 162.35 180.92 161.98 C 186.29 161.21 186.52 151.88 180.19 154.09 Z" />
</g>
<g id="#00000037">
</g>
<g id="#7b8449ff">
<path fill="#7b8449" opacity="1.00" d=" M 205.44 129.33 C 211.82 128.29 209.56 137.45 212.22 141.21 C 212.79 145.93 208.65 148.90 205.06 151.00 C 202.37 148.37 205.12 145.70 207.20 143.91 C 206.16 142.50 204.67 141.51 203.12 140.75 C 194.87 140.41 203.67 133.12 205.44 129.33 Z" />
</g>
<g id="#3d3d41f0">
<path fill="#3d3d41" opacity="0.94" d=" M 213.95 128.85 C 217.28 128.55 224.69 134.82 224.13 129.02 C 227.52 132.69 221.43 134.20 219.74 136.72 C 217.33 134.51 215.64 131.62 213.95 128.85 Z" />
</g>
<g id="#6a6e7aff">
<path fill="#6a6e7a" opacity="1.00" d=" M 168.78 130.68 C 173.76 128.58 173.52 135.94 170.10 137.71 C 168.16 137.78 165.38 140.09 164.15 137.74 C 163.47 134.59 166.08 131.85 168.78 130.68 Z" />
</g>
<g id="#797f82ff">
<path fill="#797f82" opacity="1.00" d=" M 215.34 137.16 C 219.38 135.98 214.13 142.55 218.11 142.82 C 222.27 144.40 224.57 146.69 218.73 147.37 C 219.70 153.63 212.88 152.65 212.62 147.13 C 210.68 154.01 203.14 151.91 199.14 154.54 C 197.09 153.98 199.67 151.91 199.81 150.65 C 196.60 151.49 196.47 155.07 195.79 157.73 C 198.27 156.49 203.56 156.43 204.31 159.41 C 201.03 159.91 197.50 165.25 202.07 166.42 C 200.50 169.50 199.03 172.64 197.94 175.92 C 195.72 175.90 186.75 177.07 190.08 181.89 C 192.62 180.70 197.79 176.39 197.14 182.05 C 199.51 185.80 199.10 175.74 201.96 177.84 C 203.61 181.43 205.26 176.28 205.80 181.18 C 207.23 189.95 217.38 189.12 221.11 194.64 C 217.60 193.56 216.83 197.53 214.96 199.54 C 210.02 201.29 206.74 195.80 201.85 195.91 C 203.85 199.74 208.55 205.33 203.86 208.84 C 198.69 204.81 191.49 208.80 186.18 205.81 C 181.78 201.20 191.76 203.95 193.87 200.74 C 192.27 198.12 190.70 194.84 188.06 193.31 C 182.83 193.73 187.84 189.36 185.34 186.79 C 183.43 182.85 187.44 183.96 189.24 185.82 C 188.67 183.41 187.98 181.02 187.30 178.64 C 187.21 178.16 187.04 177.22 186.95 176.74 C 187.27 172.27 192.29 161.57 185.10 167.48 C 184.82 166.93 184.27 165.81 183.99 165.25 C 184.88 160.23 193.06 153.62 186.49 150.08 C 187.69 148.45 189.57 148.36 191.41 148.24 C 192.60 145.85 191.20 140.22 194.82 141.07 C 196.05 143.82 196.47 147.45 200.07 148.04 C 197.95 144.40 197.26 139.79 203.12 140.75 C 204.67 141.51 206.16 142.50 207.20 143.91 C 205.12 145.70 202.37 148.37 205.06 151.00 C 208.65 148.90 212.79 145.93 212.22 141.21 C 214.90 141.49 215.06 139.24 215.34 137.16 Z" />
</g>
<g id="#00000045">
</g>
<g id="#00000052">
</g>
<g id="#00000060">
</g>
<g id="#555a69ff">
<path fill="#555a69" opacity="1.00" d=" M 158.09 150.22 C 161.87 151.69 167.03 150.80 169.86 154.22 C 170.00 158.90 160.95 158.68 161.96 163.98 C 164.38 164.63 165.37 163.42 165.23 161.07 C 170.19 159.38 168.17 166.26 166.78 168.91 C 162.42 169.65 160.37 165.06 158.12 162.23 C 161.22 160.99 163.77 156.71 159.00 156.00 C 155.29 155.41 155.96 152.46 158.09 150.22 Z" />
</g>
<g id="#00000071">
</g>
<g id="#717a76ff">
<path fill="#717a76" opacity="1.00" d=" M 180.19 154.09 C 186.52 151.88 186.29 161.21 180.92 161.98 C 176.30 162.35 177.94 156.08 180.19 154.09 Z" />
</g>
<g id="#8d90a0ff">
<path fill="#8d90a0" opacity="1.00" d=" M 222.03 153.80 C 226.49 154.05 226.83 158.60 227.13 162.11 L 226.29 161.85 C 223.91 159.74 219.69 158.31 222.03 153.80 Z" />
</g>
<g id="#585d72ff">
<path fill="#585d72" opacity="1.00" d=" M 127.76 165.02 C 128.27 160.89 131.05 155.74 135.80 156.05 C 136.94 158.63 137.25 161.44 137.77 164.21 C 137.86 167.17 140.18 171.03 136.69 172.85 C 131.38 175.01 129.39 169.44 127.84 165.86 L 127.76 165.02 Z" />
</g>
<g id="#2f2f35fe">
<path fill="#2f2f35" opacity="1.00" d=" M 138.10 158.94 C 140.16 160.89 142.47 160.65 144.78 159.30 C 144.53 163.71 150.29 168.17 154.20 165.28 C 156.97 163.93 158.09 168.55 155.61 169.59 C 152.38 171.27 155.86 174.25 155.82 176.78 C 154.12 180.34 149.11 176.78 148.08 181.09 C 146.34 187.70 139.12 185.74 135.40 190.18 C 135.50 187.32 137.34 183.19 134.36 181.38 C 133.31 179.00 131.76 176.90 130.24 174.80 C 129.57 173.48 128.90 172.15 128.20 170.84 C 128.15 170.38 128.06 169.46 128.02 169.00 C 127.98 168.22 127.89 166.65 127.84 165.86 C 129.39 169.44 131.38 175.01 136.69 172.85 C 140.18 171.03 137.86 167.17 137.77 164.21 C 137.84 162.45 137.93 160.69 138.10 158.94 Z" />
</g>
<g id="#00000042">
</g>
<g id="#3d3f4afc">
<path fill="#3d3f4a" opacity="1.00" d=" M 213.87 164.58 C 217.18 161.70 222.22 162.96 226.29 161.85 L 227.13 162.11 C 228.78 162.74 230.43 163.38 232.15 163.82 C 244.38 164.44 259.70 164.32 267.38 175.65 C 269.94 180.65 265.43 184.22 262.16 187.01 C 258.70 188.73 255.40 190.77 251.92 192.45 C 250.11 190.14 254.83 187.30 251.96 185.37 C 248.78 187.53 241.18 183.94 242.55 189.79 C 238.14 192.81 237.63 186.61 235.78 183.84 C 233.15 184.95 230.13 189.04 227.62 185.43 C 225.53 180.27 220.33 187.14 223.59 190.35 C 224.70 195.69 230.67 189.71 233.09 193.65 C 232.80 194.23 232.20 195.39 231.91 195.97 C 231.07 195.54 230.23 195.14 229.39 194.76 C 226.67 192.89 224.16 195.84 221.74 196.86 C 217.86 197.36 220.65 199.48 221.13 201.81 C 219.01 201.40 215.57 202.41 214.96 199.54 C 216.83 197.53 217.60 193.56 221.11 194.64 C 217.38 189.12 207.23 189.95 205.80 181.18 C 206.51 176.88 205.22 170.44 210.48 168.85 C 210.40 167.01 209.57 164.77 211.79 163.89 C 212.58 166.51 213.78 168.90 217.00 168.03 C 217.63 165.58 216.10 164.70 213.87 164.58 M 239.69 170.68 C 239.07 174.51 236.71 171.81 236.80 169.33 C 233.40 171.52 227.64 164.44 226.17 170.11 C 226.13 172.94 222.25 174.45 221.58 171.15 C 218.52 171.85 213.34 181.17 219.11 179.28 C 222.13 180.24 227.66 175.03 227.13 180.91 C 229.60 184.19 235.82 182.80 239.14 180.73 C 240.87 188.18 245.78 178.03 248.13 182.86 C 251.56 180.71 255.87 184.69 258.56 181.58 C 265.46 178.97 256.52 167.16 251.29 172.34 C 250.46 170.62 249.07 168.96 249.64 166.94 C 246.21 167.63 240.80 166.40 239.69 170.68 Z" />
</g>
<g id="#5a656dff">
<path fill="#5a656d" opacity="1.00" d=" M 185.10 167.48 C 192.29 161.57 187.27 172.27 186.95 176.74 C 184.85 176.34 182.06 177.48 180.83 175.16 C 183.47 173.28 185.76 171.02 185.10 167.48 Z" />
</g>
<g id="#525565ff">
<path fill="#525565" opacity="1.00" d=" M 239.69 170.68 C 240.80 166.40 246.21 167.63 249.64 166.94 C 249.07 168.96 250.46 170.62 251.29 172.34 C 249.79 177.86 243.70 168.97 240.81 171.67 C 239.70 174.52 239.88 177.76 239.14 180.73 C 235.82 182.80 229.60 184.19 227.13 180.91 C 227.66 175.03 222.13 180.24 219.11 179.28 C 213.34 181.17 218.52 171.85 221.58 171.15 C 222.25 174.45 226.13 172.94 226.17 170.11 C 227.64 164.44 233.40 171.52 236.80 169.33 C 236.71 171.81 239.07 174.51 239.69 170.68 Z" />
</g>
<g id="#00000035">
</g>
<g id="#727480ff">
<path fill="#727480" opacity="1.00" d=" M 240.81 171.67 C 243.70 168.97 249.79 177.86 251.29 172.34 C 256.52 167.16 265.46 178.97 258.56 181.58 C 255.87 184.69 251.56 180.71 248.13 182.86 C 245.78 178.03 240.87 188.18 239.14 180.73 C 239.88 177.76 239.70 174.52 240.81 171.67 Z" />
</g>
<g id="#515961ff">
<path fill="#515961" opacity="1.00" d=" M 176.70 179.99 C 180.60 177.27 184.87 183.02 187.30 178.64 C 187.98 181.02 188.67 183.41 189.24 185.82 C 187.44 183.96 183.43 182.85 185.34 186.79 C 187.84 189.36 182.83 193.73 188.06 193.31 C 187.76 196.91 182.76 191.00 181.17 194.16 C 179.15 195.55 180.80 198.12 180.87 200.05 C 179.32 199.04 177.87 197.88 176.30 196.90 C 176.52 200.62 174.98 206.30 180.14 203.86 C 179.70 204.84 179.28 205.84 178.87 206.84 C 176.24 204.81 173.64 208.00 175.41 210.48 C 178.07 211.67 180.58 214.26 179.20 217.37 C 177.31 215.89 175.25 214.65 173.24 213.35 C 172.65 212.90 172.03 212.51 171.35 212.23 C 169.00 211.41 164.12 209.27 167.46 206.52 C 165.83 204.51 164.48 202.32 163.35 199.99 C 162.39 201.58 162.92 205.69 160.20 204.84 C 157.82 203.36 160.69 200.84 161.07 198.96 C 158.20 199.54 154.54 202.63 152.02 199.81 C 153.89 196.28 154.02 188.39 159.77 190.06 C 157.88 195.94 163.64 197.45 167.82 198.03 C 168.78 196.14 169.16 194.01 170.14 192.13 C 172.70 189.97 178.37 192.17 178.18 187.55 C 179.43 186.04 181.39 184.64 180.94 182.40 C 179.35 181.85 177.07 182.10 176.70 179.99 M 171.96 191.98 C 172.16 193.74 172.15 197.66 174.80 196.87 C 177.72 194.94 175.15 190.73 171.96 191.98 Z" />
</g>
<g id="#70797bff">
<path fill="#70797b" opacity="1.00" d=" M 178.18 187.55 C 174.30 187.16 171.07 179.20 176.70 179.99 C 177.07 182.10 179.35 181.85 180.94 182.40 C 181.39 184.64 179.43 186.04 178.18 187.55 Z" />
</g>
<g id="#31323afd">
<path fill="#31323a" opacity="1.00" d=" M 223.59 190.35 C 220.33 187.14 225.53 180.27 227.62 185.43 C 230.13 189.04 233.15 184.95 235.78 183.84 C 237.63 186.61 238.14 192.81 242.55 189.79 C 241.18 183.94 248.78 187.53 251.96 185.37 C 254.83 187.30 250.11 190.14 251.92 192.45 C 250.50 192.54 247.67 192.73 246.25 192.82 C 242.59 192.68 238.32 190.95 234.83 192.83 C 234.40 193.04 233.53 193.45 233.09 193.65 C 230.67 189.71 224.70 195.69 223.59 190.35 Z" />
</g>
<g id="#0101011e">
</g>
<g id="#777d90ff">
<path fill="#777d90" opacity="1.00" d=" M 171.96 191.98 C 175.15 190.73 177.72 194.94 174.80 196.87 C 172.15 197.66 172.16 193.74 171.96 191.98 Z" />
</g>
<g id="#1c1d1cb2">
<path fill="#1c1d1c" opacity="0.70" d=" M 234.83 192.83 C 238.32 190.95 242.59 192.68 246.25 192.82 C 242.45 193.01 238.63 192.87 234.83 192.83 Z" />
</g>
<g id="#62666afe">
<path fill="#62666a" opacity="1.00" d=" M 181.17 194.16 C 182.76 191.00 187.76 196.91 188.06 193.31 C 190.70 194.84 192.27 198.12 193.87 200.74 C 191.76 203.95 181.78 201.20 186.18 205.81 C 191.49 208.80 198.69 204.81 203.86 208.84 C 208.55 205.33 203.85 199.74 201.85 195.91 C 206.74 195.80 210.02 201.29 214.96 199.54 C 215.57 202.41 219.01 201.40 221.13 201.81 C 220.65 199.48 217.86 197.36 221.74 196.86 C 221.52 203.39 228.62 198.57 229.39 194.76 C 230.23 195.14 231.07 195.54 231.91 195.97 C 231.98 199.04 232.14 202.15 232.23 205.24 C 231.36 210.42 230.14 215.68 227.39 220.22 C 228.22 215.19 223.20 219.53 220.34 218.16 C 220.83 220.93 218.51 225.95 223.11 225.30 C 221.60 227.09 220.26 229.02 219.04 231.01 C 218.15 232.18 218.09 233.67 217.86 235.06 L 217.22 234.81 C 213.29 229.43 201.01 230.44 203.40 238.65 C 205.79 240.63 207.62 243.07 207.85 246.28 C 203.47 245.49 203.15 239.62 198.70 239.34 C 196.42 238.41 196.03 241.78 194.70 242.96 C 191.61 241.95 193.90 238.94 194.64 237.00 C 193.55 235.19 193.03 233.42 194.76 231.81 C 193.57 229.41 192.87 226.53 194.13 224.01 C 196.10 220.81 188.20 226.36 190.27 222.16 C 191.64 216.40 183.99 223.03 188.58 225.41 C 193.79 229.81 180.94 225.82 186.54 232.65 C 186.93 236.75 177.82 226.58 178.28 233.69 C 179.51 237.56 178.66 245.75 173.04 242.88 C 176.80 239.19 172.89 232.46 168.35 231.99 C 166.39 231.32 164.35 230.69 162.74 229.34 C 161.98 224.99 160.52 220.77 160.26 216.33 C 161.62 211.76 167.98 213.21 171.35 212.23 C 172.03 212.51 172.65 212.90 173.24 213.35 C 169.16 218.20 172.93 222.75 175.27 226.94 C 180.16 226.82 181.30 220.95 179.20 217.37 C 180.58 214.26 178.07 211.67 175.41 210.48 C 173.64 208.00 176.24 204.81 178.87 206.84 C 178.56 216.20 188.93 196.65 180.14 203.86 C 174.98 206.30 176.52 200.62 176.30 196.90 C 177.87 197.88 179.32 199.04 180.87 200.05 C 180.80 198.12 179.15 195.55 181.17 194.16 M 184.21 196.16 C 180.86 197.94 185.29 201.82 187.33 199.35 C 189.53 196.71 186.96 195.00 184.21 196.16 M 212.18 201.11 C 210.43 203.89 212.53 207.10 211.03 210.01 C 215.43 212.33 216.32 208.29 218.01 205.98 C 212.99 209.41 216.44 200.26 212.18 201.11 M 185.18 209.16 C 181.92 212.01 187.74 210.11 188.87 212.17 C 188.49 214.41 186.73 218.57 190.66 216.67 C 192.99 212.98 199.90 215.73 197.98 209.96 C 192.84 211.48 190.20 209.43 185.18 209.16 M 215.34 212.35 C 213.94 213.05 210.32 212.24 211.39 214.69 C 212.53 217.46 205.80 219.41 209.11 221.56 C 211.84 219.58 224.68 212.47 215.34 212.35 Z" />
</g>
<g id="#00000051">
</g>
<g id="#898b8dff">
<path fill="#898b8d" opacity="1.00" d=" M 221.74 196.86 C 224.16 195.84 226.67 192.89 229.39 194.76 C 228.62 198.57 221.52 203.39 221.74 196.86 Z" />
</g>
<g id="#14151568">
</g>
<g id="#a0a3a7ff">
<path fill="#a0a3a7" opacity="1.00" d=" M 184.21 196.16 C 186.96 195.00 189.53 196.71 187.33 199.35 C 185.29 201.82 180.86 197.94 184.21 196.16 Z" />
</g>
<g id="#34363dfc">
<path fill="#34363d" opacity="1.00" d=" M 127.96 198.05 C 131.84 201.03 129.02 195.44 132.74 197.21 C 133.80 200.63 134.34 204.41 137.95 206.22 C 142.09 203.78 140.74 196.67 147.11 196.91 C 145.60 201.23 144.00 206.40 139.79 208.90 C 137.89 210.49 139.99 213.12 140.99 214.71 C 144.69 211.68 148.15 215.75 149.09 219.04 C 154.21 221.94 154.57 214.92 156.91 214.00 C 155.47 220.07 155.99 226.67 162.74 229.34 C 164.35 230.69 166.39 231.32 168.35 231.99 C 167.64 233.10 166.89 234.18 166.11 235.24 C 160.40 231.55 150.11 222.24 147.20 234.17 C 140.78 245.22 150.79 256.66 161.55 258.58 C 163.27 258.88 166.34 259.88 166.25 257.12 C 169.41 258.76 174.22 254.24 173.57 260.35 C 175.87 262.50 186.84 257.16 181.09 264.24 C 180.03 264.49 178.97 264.73 177.91 264.96 C 174.51 263.86 169.00 263.09 171.67 268.26 C 162.02 267.74 154.77 260.51 146.09 257.07 C 143.11 253.91 140.37 250.35 140.23 245.73 C 140.15 245.06 140.01 243.72 139.93 243.05 L 139.87 242.25 C 143.19 230.63 133.75 221.92 133.34 210.72 C 131.85 206.37 127.79 203.04 127.96 198.05 Z" />
</g>
<g id="#81838dff">
<path fill="#81838d" opacity="1.00" d=" M 212.18 201.11 C 216.44 200.26 212.99 209.41 218.01 205.98 C 216.32 208.29 215.43 212.33 211.03 210.01 C 212.53 207.10 210.43 203.89 212.18 201.11 Z" />
</g>
<g id="#7b7e8fff">
<path fill="#7b7e8f" opacity="1.00" d=" M 180.14 203.86 C 188.93 196.65 178.56 216.20 178.87 206.84 C 179.28 205.84 179.70 204.84 180.14 203.86 Z" />
</g>
<g id="#878c94ff">
<path fill="#878c94" opacity="1.00" d=" M 185.18 209.16 C 190.20 209.43 192.84 211.48 197.98 209.96 C 199.90 215.73 192.99 212.98 190.66 216.67 C 186.73 218.57 188.49 214.41 188.87 212.17 C 187.74 210.11 181.92 212.01 185.18 209.16 Z" />
</g>
<g id="#0000003e">
</g>
<g id="#01010182">
</g>
<g id="#84888dff">
<path fill="#84888d" opacity="1.00" d=" M 215.34 212.35 C 224.68 212.47 211.84 219.58 209.11 221.56 C 205.80 219.41 212.53 217.46 211.39 214.69 C 210.32 212.24 213.94 213.05 215.34 212.35 Z" />
</g>
<g id="#00000070">
</g>
<g id="#898996ff">
<path fill="#898996" opacity="1.00" d=" M 175.27 226.94 C 172.93 222.75 169.16 218.20 173.24 213.35 C 175.25 214.65 177.31 215.89 179.20 217.37 C 181.30 220.95 180.16 226.82 175.27 226.94 Z" />
</g>
<g id="#87888df9">
<path fill="#87888d" opacity="0.98" d=" M 220.34 218.16 C 223.20 219.53 228.22 215.19 227.39 220.22 C 226.41 222.25 224.72 223.78 223.11 225.30 C 218.51 225.95 220.83 220.93 220.34 218.16 Z" />
</g>
<g id="#0000002f">
</g>
<g id="#767b81ff">
<path fill="#767b81" opacity="1.00" d=" M 188.58 225.41 C 183.99 223.03 191.64 216.40 190.27 222.16 C 188.20 226.36 196.10 220.81 194.13 224.01 C 192.87 226.53 193.57 229.41 194.76 231.81 C 193.03 233.42 193.55 235.19 194.64 237.00 C 193.90 238.94 191.61 241.95 194.70 242.96 C 196.03 241.78 196.42 238.41 198.70 239.34 C 203.15 239.62 203.47 245.49 207.85 246.28 C 207.62 243.07 205.79 240.63 203.40 238.65 C 201.01 230.44 213.29 229.43 217.22 234.81 C 217.64 238.34 215.84 235.08 214.18 235.17 C 211.76 236.67 213.52 239.57 214.46 241.45 C 215.18 244.40 209.59 247.53 212.86 250.19 C 212.35 250.89 211.80 251.55 211.21 252.19 C 207.02 247.40 206.45 253.74 207.81 257.16 C 203.50 257.44 202.65 249.54 198.28 252.14 C 193.56 251.69 193.48 260.15 188.83 256.74 C 183.75 257.14 182.09 252.45 182.07 248.22 C 180.42 248.98 178.82 249.95 176.98 250.11 C 176.07 246.70 179.70 246.74 181.91 245.70 C 181.35 241.57 180.27 237.36 178.28 233.69 C 177.82 226.58 186.93 236.75 186.54 232.65 C 180.94 225.82 193.79 229.81 188.58 225.41 M 208.27 233.24 C 200.63 235.95 209.86 244.47 211.97 237.93 C 215.64 232.00 210.81 232.75 208.27 233.24 Z" />
</g>
<g id="#00000023">
</g>
<g id="#1010117c">
</g>
<g id="#2b2d35f7">
<path fill="#2b2d35" opacity="0.97" d=" M 272.25 228.22 C 277.41 227.81 282.68 228.05 287.73 226.71 C 290.60 226.85 293.48 227.00 296.37 227.18 C 294.64 230.01 289.46 228.33 288.74 231.85 C 286.76 235.53 292.87 235.86 295.23 236.46 C 290.59 238.82 285.21 238.27 280.20 239.14 C 281.06 237.09 284.27 237.13 286.02 235.80 C 285.04 232.75 284.04 227.51 279.09 230.05 C 275.41 230.68 274.32 234.68 272.06 237.10 C 270.64 236.09 269.37 234.91 267.93 233.94 C 258.30 241.79 246.52 244.66 235.73 249.14 C 230.06 247.99 229.11 261.64 224.42 255.68 C 223.32 255.31 222.16 255.16 221.03 254.93 C 221.84 252.39 221.36 249.77 220.95 247.22 C 228.86 245.95 236.41 242.78 244.56 242.46 C 251.23 241.84 254.35 234.60 260.04 232.11 C 264.12 230.86 268.30 229.89 272.25 228.22 Z" />
</g>
<g id="#585a60f9">
<path fill="#585a60" opacity="0.98" d=" M 296.37 227.18 C 297.60 227.07 298.83 226.97 300.06 226.90 C 303.33 231.51 299.29 235.13 295.23 236.46 C 292.87 235.86 286.76 235.53 288.74 231.85 C 289.46 228.33 294.64 230.01 296.37 227.18 Z" />
</g>
<g id="#5d6456ff">
<path fill="#5d6456" opacity="1.00" d=" M 147.20 234.17 C 150.11 222.24 160.40 231.55 166.11 235.24 L 166.35 235.86 C 163.05 233.87 155.68 236.44 159.06 240.85 C 161.83 243.50 161.27 250.34 165.73 249.90 L 165.78 250.76 C 160.24 250.36 160.02 260.02 166.17 256.18 L 166.25 257.12 C 166.34 259.88 163.27 258.88 161.55 258.58 C 150.79 256.66 140.78 245.22 147.20 234.17 Z" />
</g>
<g id="#4b4f58ff">
<path fill="#4b4f58" opacity="1.00" d=" M 272.06 237.10 C 274.32 234.68 275.41 230.68 279.09 230.05 C 284.04 227.51 285.04 232.75 286.02 235.80 C 284.27 237.13 281.06 237.09 280.20 239.14 C 280.14 239.55 280.02 240.35 279.95 240.76 C 275.99 235.97 264.84 236.46 264.58 243.86 C 259.81 245.31 261.16 249.77 258.99 253.01 C 255.90 251.74 252.72 252.73 249.81 253.94 C 251.26 252.20 253.16 250.95 254.98 249.62 C 251.39 245.42 246.52 247.88 244.03 251.80 C 242.06 253.76 241.88 256.73 241.01 259.24 C 237.54 261.02 236.08 255.30 232.32 257.54 C 230.48 263.72 224.95 268.28 225.99 275.08 C 229.97 274.89 234.91 270.75 237.92 275.17 C 236.52 277.65 234.36 279.60 232.78 281.96 C 234.62 281.44 236.40 280.76 238.22 280.17 C 235.21 283.58 230.64 284.99 226.23 285.41 C 224.59 284.96 221.38 285.53 221.38 283.07 C 222.21 279.15 215.88 281.56 214.58 278.24 C 216.58 278.20 218.17 277.56 218.34 275.38 C 220.17 276.00 221.94 276.81 223.86 277.11 C 222.32 270.79 228.23 265.21 225.99 259.00 C 224.60 259.90 223.18 260.50 221.72 259.36 C 218.35 257.39 219.63 263.82 216.31 260.72 C 211.17 257.35 218.31 269.66 212.53 266.66 C 211.62 262.80 208.66 261.03 205.10 263.23 C 203.61 267.83 208.70 270.07 212.48 269.43 C 212.85 274.52 221.07 268.79 220.86 273.58 C 217.94 273.80 215.76 275.61 214.58 278.24 C 211.27 275.51 212.29 265.70 209.60 273.64 C 204.00 269.58 208.23 277.72 204.03 280.09 C 196.90 284.34 195.09 271.67 187.94 272.73 C 189.29 272.25 190.66 271.82 191.92 271.12 C 198.47 266.34 193.65 256.55 186.86 263.21 C 184.96 263.68 183.02 263.95 181.09 264.24 C 186.84 257.16 175.87 262.50 173.57 260.35 C 174.22 254.24 169.41 258.76 166.25 257.12 L 166.17 256.18 C 166.05 254.37 165.92 252.56 165.78 250.76 L 165.73 249.90 C 168.69 247.89 173.80 245.58 167.08 245.75 C 167.82 242.41 168.22 238.94 166.35 235.86 L 166.11 235.24 C 166.89 234.18 167.64 233.10 168.35 231.99 C 172.89 232.46 176.80 239.19 173.04 242.88 C 178.66 245.75 179.51 237.56 178.28 233.69 C 180.27 237.36 181.35 241.57 181.91 245.70 C 179.70 246.74 176.07 246.70 176.98 250.11 C 178.82 249.95 180.42 248.98 182.07 248.22 C 182.09 252.45 183.75 257.14 188.83 256.74 C 193.48 260.15 193.56 251.69 198.28 252.14 C 202.65 249.54 203.50 257.44 207.81 257.16 C 206.45 253.74 207.02 247.40 211.21 252.19 C 208.55 253.91 209.92 256.52 210.51 258.91 C 214.48 259.47 217.59 256.35 221.03 254.93 C 222.16 255.16 223.32 255.31 224.42 255.68 C 229.11 261.64 230.06 247.99 235.73 249.14 C 246.52 244.66 258.30 241.79 267.93 233.94 C 269.37 234.91 270.64 236.09 272.06 237.10 M 228.30 276.35 C 223.26 276.36 223.63 280.93 226.18 283.96 C 231.32 285.81 232.84 275.88 228.30 276.35 Z" />
</g>
<g id="#2e302399">
<path fill="#2e3023" opacity="0.60" d=" M 217.86 235.06 C 218.09 233.67 218.15 232.18 219.04 231.01 C 218.84 234.11 218.70 237.18 218.60 240.30 C 218.23 238.57 218.04 236.81 217.86 235.06 Z" />
</g>
<g id="#afb3b2ff">
<path fill="#afb3b2" opacity="1.00" d=" M 208.27 233.24 C 210.81 232.75 215.64 232.00 211.97 237.93 C 209.86 244.47 200.63 235.95 208.27 233.24 Z" />
</g>
<g id="#0000001b">
</g>
<g id="#788063ff">
<path fill="#788063" opacity="1.00" d=" M 159.06 240.85 C 155.68 236.44 163.05 233.87 166.35 235.86 C 168.22 238.94 167.82 242.41 167.08 245.75 C 173.80 245.58 168.69 247.89 165.73 249.90 C 161.27 250.34 161.83 243.50 159.06 240.85 Z" />
</g>
<g id="#686c68fe">
<path fill="#686c68" opacity="1.00" d=" M 214.18 235.17 C 215.84 235.08 217.64 238.34 217.22 234.81 L 217.86 235.06 C 218.04 236.81 218.23 238.57 218.60 240.30 C 219.01 242.72 219.96 244.99 220.95 247.22 C 221.36 249.77 221.84 252.39 221.03 254.93 C 217.59 256.35 214.48 259.47 210.51 258.91 C 209.92 256.52 208.55 253.91 211.21 252.19 C 211.80 251.55 212.35 250.89 212.86 250.19 C 209.59 247.53 215.18 244.40 214.46 241.45 C 213.52 239.57 211.76 236.67 214.18 235.17 Z" />
</g>
<g id="#5c5f68fd">
<path fill="#5c5f68" opacity="1.00" d=" M 264.58 243.86 C 264.84 236.46 275.99 235.97 279.95 240.76 C 280.76 241.56 281.56 242.37 282.36 243.19 C 280.05 246.94 275.41 248.54 280.11 252.67 C 274.36 252.39 279.30 256.18 281.95 256.99 C 283.49 255.84 284.94 254.54 286.17 253.06 C 284.82 251.57 281.00 248.93 284.28 247.39 C 291.66 247.38 299.06 247.13 306.34 245.68 C 307.98 249.20 305.06 253.15 302.11 255.05 C 298.70 253.99 294.41 253.98 291.68 256.60 C 294.26 256.60 297.55 256.57 299.03 259.05 C 299.17 260.33 298.85 261.33 298.09 262.06 C 293.98 262.08 290.69 263.33 292.02 268.08 C 288.42 269.63 286.82 272.74 285.34 276.15 L 284.31 276.13 C 286.23 273.93 285.46 272.17 282.95 271.03 C 284.98 269.17 284.83 266.59 284.26 264.14 C 286.40 262.38 289.40 262.42 291.97 261.66 C 291.79 256.76 287.11 261.29 284.55 261.41 C 279.85 260.07 277.48 265.02 273.32 265.02 C 272.77 263.39 273.57 260.26 270.87 260.98 C 270.53 263.82 275.44 266.45 272.60 268.57 C 268.92 274.31 259.51 267.49 264.84 262.46 C 272.03 264.71 274.54 245.14 268.13 251.20 C 266.77 248.84 265.32 246.51 264.58 243.86 Z" />
</g>
<g id="#2e3038f3">
<path fill="#2e3038" opacity="0.95" d=" M 282.36 243.19 C 287.11 244.80 292.33 245.76 297.24 244.15 C 300.39 243.23 305.35 241.27 306.34 245.68 C 299.06 247.13 291.66 247.38 284.28 247.39 C 281.00 248.93 284.82 251.57 286.17 253.06 C 284.94 254.54 283.49 255.84 281.95 256.99 C 279.30 256.18 274.36 252.39 280.11 252.67 C 275.41 248.54 280.05 246.94 282.36 243.19 Z" />
</g>
<g id="#3b3f45fd">
<path fill="#3b3f45" opacity="1.00" d=" M 258.99 253.01 C 261.16 249.77 259.81 245.31 264.58 243.86 C 265.32 246.51 266.77 248.84 268.13 251.20 C 267.37 255.05 267.53 259.31 264.84 262.46 C 259.51 267.49 268.92 274.31 272.60 268.57 C 275.44 266.45 270.53 263.82 270.87 260.98 C 273.57 260.26 272.77 263.39 273.32 265.02 C 277.48 265.02 279.85 260.07 284.55 261.41 C 287.11 261.29 291.79 256.76 291.97 261.66 C 289.40 262.42 286.40 262.38 284.26 264.14 C 284.83 266.59 284.98 269.17 282.95 271.03 C 277.26 266.44 276.30 273.11 277.91 277.61 C 274.84 277.59 270.81 279.89 275.07 282.10 C 271.67 282.40 269.51 279.73 267.51 277.47 C 262.97 276.73 258.52 275.54 253.99 274.74 C 254.13 272.92 254.29 271.11 254.42 269.29 C 257.66 267.53 261.36 264.68 261.10 260.59 C 257.30 260.88 258.13 255.42 258.99 253.01 M 261.20 270.13 C 259.57 271.29 260.49 273.40 260.36 275.06 C 265.00 276.11 267.28 267.63 261.20 270.13 Z" />
</g>
<g id="#6f7276ff">
<path fill="#6f7276" opacity="1.00" d=" M 244.03 251.80 C 246.52 247.88 251.39 245.42 254.98 249.62 C 253.16 250.95 251.26 252.20 249.81 253.94 C 252.72 252.73 255.90 251.74 258.99 253.01 C 258.13 255.42 257.30 260.88 261.10 260.59 C 261.36 264.68 257.66 267.53 254.42 269.29 C 253.17 270.05 252.00 270.91 250.82 271.77 C 249.04 271.67 248.37 273.57 248.95 275.00 C 247.03 276.49 244.41 279.63 244.77 275.11 C 242.05 275.60 240.32 277.64 238.95 279.88 L 238.22 280.17 C 236.40 280.76 234.62 281.44 232.78 281.96 C 234.36 279.60 236.52 277.65 237.92 275.17 C 234.91 270.75 229.97 274.89 225.99 275.08 C 224.95 268.28 230.48 263.72 232.32 257.54 C 236.08 255.30 237.54 261.02 241.01 259.24 C 238.93 265.58 248.49 263.03 248.50 258.40 C 250.36 255.10 247.60 251.57 244.03 251.80 Z" />
</g>
<g id="#8c8f95ff">
<path fill="#8c8f95" opacity="1.00" d=" M 268.13 251.20 C 274.54 245.14 272.03 264.71 264.84 262.46 C 267.53 259.31 267.37 255.05 268.13 251.20 Z" />
</g>
<g id="#747b84ff">
<path fill="#747b84" opacity="1.00" d=" M 166.17 256.18 C 160.02 260.02 160.24 250.36 165.78 250.76 C 165.92 252.56 166.05 254.37 166.17 256.18 Z" />
</g>
<g id="#888a97ff">
<path fill="#888a97" opacity="1.00" d=" M 241.01 259.24 C 241.88 256.73 242.06 253.76 244.03 251.80 C 247.60 251.57 250.36 255.10 248.50 258.40 C 248.49 263.03 238.93 265.58 241.01 259.24 Z" />
</g>
<g id="#2e2f35ed">
<path fill="#2e2f35" opacity="0.93" d=" M 291.68 256.60 C 294.41 253.98 298.70 253.99 302.11 255.05 C 300.82 256.16 299.02 257.10 299.03 259.05 C 297.55 256.57 294.26 256.60 291.68 256.60 Z" />
</g>
<g id="#696d75ff">
<path fill="#696d75" opacity="1.00" d=" M 216.31 260.72 C 219.63 263.82 218.35 257.39 221.72 259.36 C 223.18 260.50 224.60 259.90 225.99 259.00 C 228.23 265.21 222.32 270.79 223.86 277.11 C 221.94 276.81 220.17 276.00 218.34 275.38 C 218.17 277.56 216.58 278.20 214.58 278.24 C 215.76 275.61 217.94 273.80 220.86 273.58 C 221.07 268.79 212.85 274.52 212.48 269.43 C 208.70 270.07 203.61 267.83 205.10 263.23 C 208.66 261.03 211.62 262.80 212.53 266.66 C 218.31 269.66 211.17 257.35 216.31 260.72 Z" />
</g>
<g id="#90929eff">
<path fill="#90929e" opacity="1.00" d=" M 186.86 263.21 C 193.65 256.55 198.47 266.34 191.92 271.12 C 187.97 271.49 189.78 265.40 186.86 263.21 Z" />
</g>
<g id="#2f2f33d3">
<path fill="#2f2f33" opacity="0.83" d=" M 292.02 268.08 C 290.69 263.33 293.98 262.08 298.09 262.06 C 295.38 263.45 292.71 264.84 292.02 268.08 Z" />
</g>
<g id="#68724cff">
<path fill="#68724c" opacity="1.00" d=" M 181.09 264.24 C 183.02 263.95 184.96 263.68 186.86 263.21 C 189.78 265.40 187.97 271.49 191.92 271.12 C 190.66 271.82 189.29 272.25 187.94 272.73 L 187.13 272.73 C 181.83 273.99 178.40 269.51 177.91 264.96 C 178.97 264.73 180.03 264.49 181.09 264.24 Z" />
</g>
<g id="#4b5044f9">
<path fill="#4b5044" opacity="0.98" d=" M 171.67 268.26 C 169.00 263.09 174.51 263.86 177.91 264.96 C 178.40 269.51 181.83 273.99 187.13 272.73 C 184.03 272.81 180.96 273.00 177.88 273.16 C 175.89 271.41 173.79 269.82 171.67 268.26 Z" />
</g>
<g id="#646b42fa">
<path fill="#646b42" opacity="0.98" d=" M 250.82 271.77 C 252.00 270.91 253.17 270.05 254.42 269.29 C 254.29 271.11 254.13 272.92 253.99 274.74 C 251.87 276.76 249.64 278.67 247.11 280.15 C 245.28 280.13 241.63 280.10 239.81 280.08 L 238.95 279.88 C 240.32 277.64 242.05 275.60 244.77 275.11 C 244.41 279.63 247.03 276.49 248.95 275.00 C 250.92 275.51 251.70 273.21 250.82 271.77 Z" />
</g>
<g id="#727b81fc">
<path fill="#727b81" opacity="1.00" d=" M 277.91 277.61 C 276.30 273.11 277.26 266.44 282.95 271.03 C 285.46 272.17 286.23 273.93 284.31 276.13 C 281.93 279.21 279.74 283.43 275.07 282.10 C 270.81 279.89 274.84 277.59 277.91 277.61 Z" />
</g>
<g id="#33363dfa">
<path fill="#33363d" opacity="0.98" d=" M 209.60 273.64 C 212.29 265.70 211.27 275.51 214.58 278.24 C 215.88 281.56 222.21 279.15 221.38 283.07 C 221.38 285.53 224.59 284.96 226.23 285.41 C 224.62 285.81 223.01 286.24 221.40 286.68 C 218.71 286.26 215.19 286.31 213.48 288.75 L 213.00 289.17 C 211.69 288.10 210.48 286.90 209.12 285.90 C 206.26 284.16 202.67 284.90 199.67 285.77 C 192.10 283.51 185.27 277.71 178.07 274.09 L 177.88 273.16 C 180.96 273.00 184.03 272.81 187.13 272.73 L 187.94 272.73 C 195.09 271.67 196.90 284.34 204.03 280.09 C 208.23 277.72 204.00 269.58 209.60 273.64 Z" />
</g>
<g id="#757e6dff">
<path fill="#757e6d" opacity="1.00" d=" M 261.20 270.13 C 267.28 267.63 265.00 276.11 260.36 275.06 C 260.49 273.40 259.57 271.29 261.20 270.13 Z" />
</g>
<g id="#d5d9c1ff">
<path fill="#d5d9c1" opacity="1.00" d=" M 248.95 275.00 C 248.37 273.57 249.04 271.67 250.82 271.77 C 251.70 273.21 250.92 275.51 248.95 275.00 Z" />
</g>
<g id="#757a7aff">
<path fill="#757a7a" opacity="1.00" d=" M 228.30 276.35 C 232.84 275.88 231.32 285.81 226.18 283.96 C 223.63 280.93 223.26 276.36 228.30 276.35 Z" />
</g>
<g id="#26281a8d">
</g>
<g id="#191c22a1">
<path fill="#191c22" opacity="0.63" d=" M 199.67 285.77 C 202.67 284.90 206.26 284.16 209.12 285.90 C 205.97 285.86 202.80 285.81 199.67 285.77 Z" />
</g>
<g id="#6f7376f4">
<path fill="#6f7376" opacity="0.96" d=" M 213.48 288.75 C 215.19 286.31 218.71 286.26 221.40 286.68 C 220.60 287.56 219.77 288.42 218.92 289.25 C 217.10 289.06 215.29 288.86 213.48 288.75 Z" />
</g>
<g id="#22222985">
</g>
<g id="#0000000b">
</g>
</svg>



