<?xml version="1.0" encoding="UTF-8" ?>
<!DOCTYPE svg PUBLIC "-//W3C//DTD SVG 1.1//EN" "http://www.w3.org/Graphics/SVG/1.1/DTD/svg11.dtd">
<svg width="384pt" height="384pt" viewBox="0 0 384 384" version="1.1" xmlns="http://www.w3.org/2000/svg">
<g id="#00000011">
</g>
<g id="#00000019">
</g>
<g id="#00000021">
</g>
<g id="#5c6071ef">
<path fill="#5c6071" opacity="0.94" d=" M 186.51 91.03 C 188.85 87.54 192.92 87.17 196.93 87.96 C 198.10 88.63 199.24 89.38 200.36 90.15 C 195.92 92.65 191.38 89.12 186.51 91.03 Z" />
</g>
<g id="#444955fe">
<path fill="#444955" opacity="1.00" d=" M 186.51 91.03 C 191.38 89.12 195.92 92.65 200.36 90.15 C 201.60 90.96 202.84 91.78 204.11 92.55 C 204.35 96.66 193.75 99.69 200.80 102.00 C 205.03 94.81 207.14 106.01 200.98 106.51 C 203.40 108.61 207.88 106.25 209.77 109.17 C 210.25 111.80 213.30 110.87 215.18 110.81 C 216.01 110.66 216.83 110.46 217.65 110.21 C 218.31 110.42 219.64 110.83 220.31 111.04 C 218.30 117.37 211.45 114.08 207.20 112.49 C 203.82 112.22 201.14 115.01 198.00 115.89 C 191.93 119.94 196.74 107.90 201.17 110.67 C 200.60 108.25 198.34 106.85 196.14 106.08 C 189.27 113.39 191.40 124.96 196.17 132.71 C 193.91 131.39 186.92 133.61 191.94 135.09 C 197.53 135.07 190.93 139.92 194.56 142.74 C 189.64 143.18 190.58 149.29 193.92 150.73 C 198.07 147.14 196.48 155.47 195.21 157.69 C 196.79 162.50 202.08 157.11 202.06 161.98 C 202.18 166.94 195.79 166.96 193.50 170.19 C 193.15 172.65 192.29 179.04 195.13 177.31 C 195.53 173.55 201.26 173.38 203.01 176.08 C 203.00 180.30 204.32 185.73 199.89 188.20 C 201.66 191.50 206.13 184.74 205.24 191.31 C 204.45 195.19 200.81 197.42 202.87 201.83 C 199.15 202.28 196.77 206.13 192.82 204.31 C 187.61 202.77 190.33 208.97 190.97 211.60 C 188.83 212.11 184.83 212.47 185.20 215.51 C 187.09 216.38 190.00 216.86 188.87 219.61 C 187.36 219.94 185.35 220.07 186.96 221.81 C 182.12 220.73 178.16 225.48 173.22 224.24 C 174.41 228.10 172.21 231.12 168.14 231.00 C 166.04 228.35 166.40 224.92 166.86 221.81 C 165.12 222.12 163.24 225.15 161.85 224.20 C 160.41 220.16 156.19 226.19 153.97 222.84 C 153.92 218.15 160.06 217.32 163.09 219.79 C 159.25 214.03 166.84 212.26 166.02 206.91 C 159.23 206.21 158.78 214.34 153.23 215.65 C 148.59 213.28 146.70 205.25 149.89 201.86 C 151.34 204.72 151.61 207.98 152.31 211.07 C 160.08 208.86 156.84 196.38 166.07 196.10 C 170.05 196.34 163.82 192.23 167.19 191.35 C 171.90 192.72 175.51 188.57 180.00 187.85 C 179.38 184.44 178.29 181.12 177.11 177.87 C 179.84 180.13 187.37 186.31 185.43 177.16 C 186.63 172.77 182.17 174.27 180.87 176.94 C 178.48 176.49 178.23 172.78 174.70 173.58 C 169.34 169.30 171.16 157.13 161.93 159.03 C 162.01 164.76 167.98 167.88 170.73 172.28 C 171.70 176.53 165.59 174.40 163.40 173.61 C 162.21 170.64 160.65 167.69 160.55 164.42 C 150.96 165.06 165.88 154.04 156.98 152.00 C 150.71 149.73 156.22 145.00 158.33 142.24 C 162.11 140.64 160.17 146.05 162.88 147.14 C 164.46 144.42 161.19 141.80 163.02 139.09 C 163.49 134.43 169.87 135.39 171.56 132.04 C 172.38 126.29 169.55 122.23 164.27 125.16 C 164.69 121.52 165.73 117.28 161.74 115.37 C 157.86 116.19 152.62 128.46 161.09 127.22 C 155.45 132.39 154.17 123.79 149.10 123.17 C 149.06 121.86 148.96 119.25 148.92 117.95 C 149.51 116.54 150.24 115.20 150.96 113.86 C 160.49 111.17 164.22 103.22 166.86 94.79 C 172.95 91.66 180.17 93.48 186.51 91.03 M 188.34 99.36 C 177.25 98.86 194.80 109.74 194.98 101.91 C 192.84 101.98 189.93 104.09 188.88 101.19 C 193.39 102.12 191.65 97.99 188.34 99.36 M 173.37 100.36 C 165.10 103.40 176.44 108.37 179.96 103.85 C 178.91 101.71 175.82 99.35 173.37 100.36 M 173.31 124.69 C 173.69 129.51 181.16 133.70 183.86 131.22 C 184.37 130.89 185.38 130.21 185.88 129.87 C 188.09 127.78 192.47 122.17 188.15 119.92 L 188.13 118.97 C 185.56 112.08 170.69 116.62 173.31 124.69 M 184.31 142.33 C 179.57 141.63 175.93 150.91 181.57 150.77 C 182.01 148.20 184.82 150.88 185.81 148.84 C 188.17 146.95 188.58 139.95 184.31 142.33 M 176.21 163.10 C 174.25 166.22 174.32 170.35 179.04 169.17 C 174.80 177.86 190.25 168.46 184.02 164.96 C 181.57 163.92 178.95 162.62 176.21 163.10 M 193.24 193.10 C 189.58 196.00 195.25 201.41 198.77 199.88 C 202.58 196.99 197.56 190.34 193.24 193.10 M 176.27 203.33 C 172.63 204.32 168.11 212.42 174.10 212.95 C 180.39 214.77 179.87 203.28 176.27 203.33 Z" />
</g>
<g id="#585d5efa">
<path fill="#585d5e" opacity="0.98" d=" M 200.80 102.00 C 193.75 99.69 204.35 96.66 204.11 92.55 C 205.11 92.88 206.11 93.25 207.10 93.66 C 201.92 94.29 204.93 98.66 207.93 100.10 C 209.98 98.07 208.29 95.60 207.10 93.66 C 212.10 96.76 216.91 101.37 222.86 98.01 C 225.81 103.03 232.67 96.30 234.76 102.14 C 234.36 106.63 238.55 103.51 241.01 104.62 C 240.04 106.99 235.08 109.06 237.39 110.87 C 236.29 112.88 234.90 116.44 232.53 113.61 C 232.53 110.36 230.86 106.59 227.19 106.75 C 227.66 108.43 230.52 111.48 227.00 111.17 C 225.62 109.38 223.87 107.90 221.97 106.71 C 218.61 107.38 216.69 103.63 214.20 103.24 C 213.89 106.12 210.31 110.67 215.18 110.81 C 213.30 110.87 210.25 111.80 209.77 109.17 C 207.88 106.25 203.40 108.61 200.98 106.51 C 207.14 106.01 205.03 94.81 200.80 102.00 Z" />
</g>
<g id="#838a80ff">
<path fill="#838a80" opacity="1.00" d=" M 207.93 100.10 C 204.93 98.66 201.92 94.29 207.10 93.66 C 208.29 95.60 209.98 98.07 207.93 100.10 Z" />
</g>
<g id="#6b716eff">
<path fill="#6b716e" opacity="1.00" d=" M 188.34 99.36 C 191.65 97.99 193.39 102.12 188.88 101.19 C 189.93 104.09 192.84 101.98 194.98 101.91 C 194.80 109.74 177.25 98.86 188.34 99.36 Z" />
</g>
<g id="#707588ff">
<path fill="#707588" opacity="1.00" d=" M 173.37 100.36 C 175.82 99.35 178.91 101.71 179.96 103.85 C 176.44 108.37 165.10 103.40 173.37 100.36 Z" />
</g>
<g id="#798066ff">
<path fill="#798066" opacity="1.00" d=" M 214.20 103.24 C 216.69 103.63 218.61 107.38 221.97 106.71 C 220.15 107.35 218.85 108.79 217.65 110.21 C 216.83 110.46 216.01 110.66 215.18 110.81 C 210.31 110.67 213.89 106.12 214.20 103.24 Z" />
</g>
<g id="#00000029">
</g>
<g id="#696e74ff">
<path fill="#696e74" opacity="1.00" d=" M 237.39 110.87 C 235.08 109.06 240.04 106.99 241.01 104.62 C 241.55 104.96 242.62 105.65 243.15 105.99 C 243.35 107.46 243.73 110.42 243.93 111.90 C 247.36 113.25 250.41 115.92 254.28 115.81 C 254.69 117.13 255.10 118.46 255.36 119.82 C 255.24 120.60 255.02 122.16 254.91 122.94 C 249.88 123.69 246.61 121.01 244.18 116.89 C 244.86 120.53 243.40 123.70 241.35 126.45 C 241.10 123.53 240.64 119.70 237.15 119.07 C 232.57 123.67 232.89 131.45 240.83 127.33 C 241.43 130.54 244.55 130.01 247.09 130.02 C 248.26 130.72 249.43 131.41 250.63 132.05 C 255.26 134.17 252.58 138.86 248.05 136.93 C 246.00 136.60 243.87 136.85 241.87 136.24 C 245.96 129.39 237.12 134.29 233.61 132.28 C 230.64 130.10 223.51 133.02 226.72 137.14 C 227.61 138.63 228.70 139.98 229.82 141.30 C 229.91 141.91 230.09 143.13 230.18 143.75 C 230.14 144.20 230.05 145.11 230.01 145.56 C 228.65 147.40 227.87 149.60 226.39 151.35 C 224.63 148.05 221.70 145.59 217.93 145.02 C 216.81 140.42 213.99 137.28 209.34 136.18 C 211.14 134.49 211.57 131.67 208.41 131.50 C 204.29 131.48 206.87 122.28 203.08 126.20 C 202.79 129.32 205.63 132.11 204.40 135.20 C 202.79 127.74 197.02 138.31 199.18 141.71 C 203.15 143.72 206.84 146.11 211.09 147.61 C 207.04 147.18 207.33 151.99 209.90 153.85 C 206.11 154.25 209.52 159.56 209.05 162.14 C 207.53 159.74 203.62 160.55 204.28 163.58 C 208.48 166.36 206.88 173.58 203.01 176.08 C 201.26 173.38 195.53 173.55 195.13 177.31 C 192.29 179.04 193.15 172.65 193.50 170.19 C 195.79 166.96 202.18 166.94 202.06 161.98 C 202.08 157.11 196.79 162.50 195.21 157.69 C 196.48 155.47 198.07 147.14 193.92 150.73 C 190.58 149.29 189.64 143.18 194.56 142.74 C 190.93 139.92 197.53 135.07 191.94 135.09 C 186.92 133.61 193.91 131.39 196.17 132.71 C 191.40 124.96 189.27 113.39 196.14 106.08 C 198.34 106.85 200.60 108.25 201.17 110.67 C 196.74 107.90 191.93 119.94 198.00 115.89 C 196.75 119.36 196.86 122.92 200.97 123.99 C 203.08 121.32 202.25 115.12 198.00 115.89 C 201.14 115.01 203.82 112.22 207.20 112.49 C 211.45 114.08 218.30 117.37 220.31 111.04 C 222.60 111.54 224.65 112.78 226.09 114.65 C 220.43 114.16 218.91 124.90 223.72 127.31 C 224.05 127.54 224.72 128.01 225.06 128.25 C 230.77 133.10 227.92 122.44 231.11 120.09 C 235.25 114.85 228.50 114.54 227.00 111.17 C 230.52 111.48 227.66 108.43 227.19 106.75 C 230.86 106.59 232.53 110.36 232.53 113.61 C 234.90 116.44 236.29 112.88 237.39 110.87 M 213.46 117.41 C 212.30 119.27 210.66 120.69 208.80 121.82 C 205.75 125.41 212.61 124.83 214.03 127.95 C 213.43 128.91 216.70 114.61 213.46 117.41 Z" />
</g>
<g id="#353838ad">
<path fill="#353838" opacity="0.68" d=" M 243.15 105.99 C 243.35 107.46 243.73 110.42 243.93 111.90 C 243.73 110.42 243.35 107.46 243.15 105.99 Z" />
</g>
<g id="#9599a3ff">
<path fill="#9599a3" opacity="1.00" d=" M 217.65 110.21 C 218.85 108.79 220.15 107.35 221.97 106.71 C 223.87 107.90 225.62 109.38 227.00 111.17 C 228.50 114.54 235.25 114.85 231.11 120.09 C 227.92 122.44 230.77 133.10 225.06 128.25 C 230.89 126.87 220.36 120.17 223.72 127.31 C 218.91 124.90 220.43 114.16 226.09 114.65 C 224.65 112.78 222.60 111.54 220.31 111.04 C 219.64 110.83 218.31 110.42 217.65 110.21 Z" />
</g>
<g id="#5c6178ff">
<path fill="#5c6178" opacity="1.00" d=" M 161.09 127.22 C 152.62 128.46 157.86 116.19 161.74 115.37 C 165.73 117.28 164.69 121.52 164.27 125.16 C 163.22 125.87 162.18 126.59 161.09 127.22 Z" />
</g>
<g id="#696d84ff">
<path fill="#696d84" opacity="1.00" d=" M 173.31 124.69 C 170.69 116.62 185.56 112.08 188.13 118.97 C 185.46 117.41 182.09 116.00 179.34 118.22 C 180.08 122.68 176.31 132.22 183.86 131.22 C 181.16 133.70 173.69 129.51 173.31 124.69 Z" />
</g>
<g id="#9498a7ff">
<path fill="#9498a7" opacity="1.00" d=" M 198.00 115.89 C 202.25 115.12 203.08 121.32 200.97 123.99 C 196.86 122.92 196.75 119.36 198.00 115.89 Z" />
</g>
<g id="#00000013">
</g>
<g id="#9b9facff">
<path fill="#9b9fac" opacity="1.00" d=" M 179.34 118.22 C 182.09 116.00 185.46 117.41 188.13 118.97 L 188.15 119.92 C 188.44 124.35 184.32 124.45 185.88 129.87 C 185.38 130.21 184.37 130.89 183.86 131.22 C 176.31 132.22 180.08 122.68 179.34 118.22 Z" />
</g>
<g id="#858987ff">
<path fill="#858987" opacity="1.00" d=" M 213.46 117.41 C 216.70 114.61 213.43 128.91 214.03 127.95 C 212.61 124.83 205.75 125.41 208.80 121.82 C 210.66 120.69 212.30 119.27 213.46 117.41 Z" />
</g>
<g id="#55555dff">
<path fill="#55555d" opacity="1.00" d=" M 244.18 116.89 C 246.61 121.01 249.88 123.69 254.91 122.94 C 253.77 126.56 248.35 123.30 245.59 125.56 C 242.18 126.55 245.93 128.71 247.09 130.02 C 244.55 130.01 241.43 130.54 240.83 127.33 L 241.35 126.45 C 243.40 123.70 244.86 120.53 244.18 116.89 Z" />
</g>
<g id="#373a41fc">
<path fill="#373a41" opacity="1.00" d=" M 145.30 130.82 C 146.19 126.45 147.67 122.22 148.92 117.95 C 148.96 119.25 149.06 121.86 149.10 123.17 C 154.17 123.79 155.45 132.39 161.09 127.22 C 162.18 126.59 163.22 125.87 164.27 125.16 C 169.55 122.23 172.38 126.29 171.56 132.04 C 169.87 135.39 163.49 134.43 163.02 139.09 C 161.19 141.80 164.46 144.42 162.88 147.14 C 160.17 146.05 162.11 140.64 158.33 142.24 C 156.22 145.00 150.71 149.73 156.98 152.00 C 165.88 154.04 150.96 165.06 160.55 164.42 C 160.65 167.69 162.21 170.64 163.40 173.61 C 165.59 174.40 171.70 176.53 170.73 172.28 C 167.98 167.88 162.01 164.76 161.93 159.03 C 171.16 157.13 169.34 169.30 174.70 173.58 C 174.55 175.38 176.26 176.48 177.11 177.87 C 178.29 181.12 179.38 184.44 180.00 187.85 C 175.51 188.57 171.90 192.72 167.19 191.35 C 163.82 192.23 170.05 196.34 166.07 196.10 C 156.84 196.38 160.08 208.86 152.31 211.07 C 151.61 207.98 151.34 204.72 149.89 201.86 C 146.70 205.25 148.59 213.28 153.23 215.65 C 158.78 214.34 159.23 206.21 166.02 206.91 C 166.84 212.26 159.25 214.03 163.09 219.79 C 160.06 217.32 153.92 218.15 153.97 222.84 C 156.19 226.19 160.41 220.16 161.85 224.20 C 163.24 225.15 165.12 222.12 166.86 221.81 C 166.40 224.92 166.04 228.35 168.14 231.00 C 172.21 231.12 174.41 228.10 173.22 224.24 C 178.16 225.48 182.12 220.73 186.96 221.81 C 189.20 223.36 196.42 226.75 186.03 224.97 C 174.93 224.88 179.20 242.40 187.61 243.48 C 191.78 245.25 193.75 252.77 187.27 248.79 C 188.38 245.42 187.38 244.25 184.05 245.78 C 183.76 245.55 183.18 245.11 182.88 244.88 C 178.52 242.22 173.75 239.95 169.09 237.95 C 157.39 243.16 158.55 261.46 170.67 265.39 C 174.91 268.67 180.92 267.82 185.82 266.83 C 188.66 266.36 186.92 269.39 187.11 270.97 C 189.43 272.44 197.18 267.27 196.05 272.89 C 193.67 273.17 191.33 273.64 188.97 274.00 C 186.34 273.63 181.83 270.25 181.00 274.08 C 180.03 280.35 188.43 279.88 190.70 284.39 C 194.05 288.75 197.43 281.35 200.37 279.39 C 203.50 278.00 207.34 275.65 206.01 281.14 C 205.18 284.89 210.95 284.70 210.65 288.23 C 210.61 290.66 213.45 289.89 215.06 290.23 C 210.25 291.86 204.11 289.17 200.09 293.12 C 193.70 296.85 190.58 286.64 184.05 288.94 C 173.86 290.98 173.83 279.49 169.16 273.99 C 164.19 267.33 154.85 266.69 149.82 260.26 C 148.72 254.99 147.13 249.78 147.23 244.33 C 147.73 242.67 148.26 240.94 147.94 239.19 C 147.77 238.82 147.43 238.09 147.26 237.72 C 146.82 236.84 146.37 235.96 145.91 235.09 C 140.38 227.63 145.67 217.49 139.40 210.93 C 139.03 209.90 138.67 208.87 138.30 207.84 L 138.02 206.98 C 138.38 203.93 138.73 200.84 139.54 197.87 C 140.42 200.63 141.96 203.05 144.13 204.98 C 148.12 203.33 149.45 198.25 150.07 194.35 C 146.68 194.57 143.33 192.72 140.65 195.76 C 141.52 194.26 142.68 192.96 143.89 191.73 C 147.91 190.68 156.85 190.69 154.11 197.04 C 160.70 197.60 163.76 189.86 169.99 188.78 C 168.99 186.57 172.07 180.39 167.56 180.53 C 162.05 181.14 161.04 175.44 158.57 172.10 C 156.37 173.04 157.79 175.45 157.76 177.23 C 155.46 176.28 154.40 173.66 151.98 172.89 C 150.89 169.99 150.78 165.65 147.01 164.97 C 142.68 166.64 141.40 171.31 139.81 175.19 C 139.18 174.12 138.53 173.05 137.90 171.99 C 137.99 171.53 138.16 170.62 138.25 170.17 C 141.43 163.50 142.13 156.32 143.08 149.06 C 143.46 147.72 143.82 146.38 144.18 145.04 C 144.55 144.11 144.93 143.19 145.32 142.27 C 147.68 138.84 146.48 134.48 145.30 130.82 Z" />
</g>
<g id="#8f9789ff">
<path fill="#8f9789" opacity="1.00" d=" M 237.15 119.07 C 240.64 119.70 241.10 123.53 241.35 126.45 L 240.83 127.33 C 232.89 131.45 232.57 123.67 237.15 119.07 Z" />
</g>
<g id="#797f70ff">
<path fill="#797f70" opacity="1.00" d=" M 188.15 119.92 C 192.47 122.17 188.09 127.78 185.88 129.87 C 184.32 124.45 188.44 124.35 188.15 119.92 Z" />
</g>
<g id="#2b2a30f3">
<path fill="#2b2a30" opacity="0.95" d=" M 255.36 119.82 C 258.01 124.48 252.36 126.80 252.61 130.89 C 252.12 131.18 251.13 131.76 250.63 132.05 C 249.43 131.41 248.26 130.72 247.09 130.02 C 245.93 128.71 242.18 126.55 245.59 125.56 C 248.35 123.30 253.77 126.56 254.91 122.94 C 255.02 122.16 255.24 120.60 255.36 119.82 Z" />
</g>
<g id="#dcdfe5ff">
<path fill="#dcdfe5" opacity="1.00" d=" M 223.72 127.31 C 220.36 120.17 230.89 126.87 225.06 128.25 C 224.72 128.01 224.05 127.54 223.72 127.31 Z" />
</g>
<g id="#878a94ff">
<path fill="#878a94" opacity="1.00" d=" M 203.08 126.20 C 206.87 122.28 204.29 131.48 208.41 131.50 C 211.57 131.67 211.14 134.49 209.34 136.18 C 208.33 138.32 203.81 137.81 204.40 135.20 C 205.63 132.11 202.79 129.32 203.08 126.20 Z" />
</g>
<g id="#00000035">
</g>
<g id="#51535cff">
<path fill="#51535c" opacity="1.00" d=" M 226.72 137.14 C 223.51 133.02 230.64 130.10 233.61 132.28 C 237.12 134.29 245.96 129.39 241.87 136.24 C 238.42 133.98 235.83 139.55 232.42 137.60 C 230.01 136.50 225.94 131.56 226.72 137.14 Z" />
</g>
<g id="#505256f7">
<path fill="#505256" opacity="0.97" d=" M 250.63 132.05 C 251.13 131.76 252.12 131.18 252.61 130.89 C 256.69 131.95 264.14 137.47 257.37 140.28 C 254.44 138.72 251.21 137.88 248.05 136.93 C 252.58 138.86 255.26 134.17 250.63 132.05 Z" />
</g>
<g id="#51585cff">
<path fill="#51585c" opacity="1.00" d=" M 199.18 141.71 C 197.02 138.31 202.79 127.74 204.40 135.20 C 203.81 137.81 208.33 138.32 209.34 136.18 C 213.99 137.28 216.81 140.42 217.93 145.02 C 216.82 147.14 215.66 149.25 214.63 151.42 C 211.40 152.90 213.99 156.09 215.05 158.13 C 213.14 156.95 211.51 155.40 209.90 153.85 C 207.33 151.99 207.04 147.18 211.09 147.61 C 206.84 146.11 203.15 143.72 199.18 141.71 Z" />
</g>
<g id="#2c2c32f5">
<path fill="#2c2c32" opacity="0.96" d=" M 226.72 137.14 C 225.94 131.56 230.01 136.50 232.42 137.60 C 235.83 139.55 238.42 133.98 241.87 136.24 C 243.87 136.85 246.00 136.60 248.05 136.93 C 251.21 137.88 254.44 138.72 257.37 140.28 C 248.42 140.96 238.92 139.14 229.82 141.30 C 228.70 139.98 227.61 138.63 226.72 137.14 Z" />
</g>
<g id="#00000045">
</g>
<g id="#6c6f7bff">
<path fill="#6c6f7b" opacity="1.00" d=" M 184.31 142.33 C 188.58 139.95 188.17 146.95 185.81 148.84 C 184.82 150.88 182.01 148.20 181.57 150.77 C 175.93 150.91 179.57 141.63 184.31 142.33 Z" />
</g>
<g id="#00000055">
</g>
<g id="#5b5f69fd">
<path fill="#5b5f69" opacity="1.00" d=" M 230.18 143.75 C 235.11 149.11 239.37 155.50 240.29 162.88 C 238.74 165.89 238.93 168.29 240.87 170.09 C 241.18 170.36 241.80 170.89 242.12 171.16 C 240.29 172.74 238.26 174.15 235.78 173.00 C 236.09 171.42 236.07 169.51 237.64 168.59 C 242.35 165.78 230.09 156.37 234.50 166.53 C 234.98 169.20 230.57 170.76 232.96 173.43 C 228.20 173.76 231.63 175.71 233.88 177.33 C 232.93 179.57 230.65 180.51 228.33 179.94 C 227.74 178.47 228.55 175.62 226.17 175.91 C 228.74 179.87 222.60 181.81 225.93 185.12 C 226.81 187.09 223.80 185.00 222.97 185.06 C 222.67 182.72 222.25 180.39 221.84 178.07 C 220.11 179.67 218.49 181.39 216.78 183.02 C 217.12 180.95 217.92 179.00 218.95 177.18 C 220.60 176.08 223.93 175.35 222.03 172.87 C 221.39 169.23 228.56 174.56 227.01 170.01 C 227.17 165.78 222.52 168.00 220.95 170.00 C 218.12 168.11 212.23 164.75 216.01 161.26 C 217.34 161.83 218.61 162.53 219.96 163.07 L 220.86 163.05 C 223.34 163.26 225.01 161.35 226.91 160.14 C 230.52 164.20 231.09 155.50 233.97 154.02 C 230.78 152.15 229.68 149.13 230.01 145.56 C 230.05 145.11 230.14 144.20 230.18 143.75 Z" />
</g>
<g id="#00000067">
</g>
<g id="#7b8545ff">
<path fill="#7b8545" opacity="1.00" d=" M 217.93 145.02 C 221.70 145.59 224.63 148.05 226.39 151.35 C 227.79 156.57 225.48 160.31 220.86 163.05 L 219.96 163.07 C 218.90 161.13 217.42 158.79 220.03 157.44 C 224.71 156.45 221.82 153.76 218.89 152.61 C 217.53 152.01 216.05 151.79 214.63 151.42 C 215.66 149.25 216.82 147.14 217.93 145.02 Z" />
</g>
<g id="#7e8186ff">
<path fill="#7e8186" opacity="1.00" d=" M 226.39 151.35 C 227.87 149.60 228.65 147.40 230.01 145.56 C 229.68 149.13 230.78 152.15 233.97 154.02 C 231.09 155.50 230.52 164.20 226.91 160.14 C 225.01 161.35 223.34 163.26 220.86 163.05 C 225.48 160.31 227.79 156.57 226.39 151.35 Z" />
</g>
<g id="#0000007f">
</g>
<g id="#747a7eff">
<path fill="#747a7e" opacity="1.00" d=" M 215.05 158.13 C 213.99 156.09 211.40 152.90 214.63 151.42 C 216.05 151.79 217.53 152.01 218.89 152.61 C 217.54 154.41 218.25 156.29 220.03 157.44 C 217.42 158.79 218.90 161.13 219.96 163.07 C 218.61 162.53 217.34 161.83 216.01 161.26 C 212.23 164.75 218.12 168.11 220.95 170.00 C 222.52 168.00 227.17 165.78 227.01 170.01 C 228.56 174.56 221.39 169.23 222.03 172.87 C 218.46 167.63 212.41 178.24 218.95 177.18 C 217.92 179.00 217.12 180.95 216.78 183.02 C 218.49 181.39 220.11 179.67 221.84 178.07 C 222.25 180.39 222.67 182.72 222.97 185.06 C 220.12 192.84 225.60 200.51 233.41 201.82 C 232.62 202.39 231.83 202.95 231.04 203.51 C 225.94 202.83 225.01 207.90 228.73 210.43 C 227.95 213.61 230.90 216.67 228.79 219.82 C 220.97 219.78 213.03 218.94 205.33 220.18 C 201.47 217.71 201.05 225.13 196.87 223.84 C 193.08 222.00 202.50 219.97 197.90 217.10 C 194.98 216.35 197.08 211.24 199.38 213.56 C 202.23 218.16 207.97 213.18 212.13 212.91 C 210.63 209.00 206.95 212.55 204.64 213.63 C 201.94 214.98 200.74 210.90 200.05 209.03 C 200.00 204.36 208.03 210.46 206.72 206.40 C 201.49 206.26 208.20 200.44 204.36 197.40 C 205.25 191.40 215.03 194.88 214.00 188.89 C 210.87 188.93 208.39 191.66 205.24 191.31 C 206.13 184.74 201.66 191.50 199.89 188.20 C 204.32 185.73 203.00 180.30 203.01 176.08 C 206.88 173.58 208.48 166.36 204.28 163.58 C 203.62 160.55 207.53 159.74 209.05 162.14 C 209.52 159.56 206.11 154.25 209.90 153.85 C 211.51 155.40 213.14 156.95 215.05 158.13 M 214.94 184.00 C 214.01 190.20 223.77 181.99 219.26 191.27 C 223.03 186.48 220.62 183.26 214.94 184.00 M 215.19 197.06 C 210.82 202.07 219.91 200.17 222.89 202.85 C 226.96 197.98 218.18 198.55 215.19 197.06 Z" />
</g>
<g id="#a7af9aff">
<path fill="#a7af9a" opacity="1.00" d=" M 220.03 157.44 C 218.25 156.29 217.54 154.41 218.89 152.61 C 221.82 153.76 224.71 156.45 220.03 157.44 Z" />
</g>
<g id="#00000047">
</g>
<g id="#838795ff">
<path fill="#838795" opacity="1.00" d=" M 234.50 166.53 C 230.09 156.37 242.35 165.78 237.64 168.59 C 236.07 169.51 236.09 171.42 235.78 173.00 C 235.08 173.11 233.67 173.32 232.96 173.43 C 230.57 170.76 234.98 169.20 234.50 166.53 Z" />
</g>
<g id="#5b606fff">
<path fill="#5b606f" opacity="1.00" d=" M 176.21 163.10 C 178.95 162.62 181.57 163.92 184.02 164.96 C 190.25 168.46 174.80 177.86 179.04 169.17 C 174.32 170.35 174.25 166.22 176.21 163.10 Z" />
</g>
<g id="#303136ab">
<path fill="#303136" opacity="0.67" d=" M 240.29 162.88 C 241.81 164.94 242.00 167.34 240.87 170.09 C 238.93 168.29 238.74 165.89 240.29 162.88 Z" />
</g>
<g id="#0000003d">
</g>
<g id="#595d72ff">
<path fill="#595d72" opacity="1.00" d=" M 139.81 175.19 C 141.40 171.31 142.68 166.64 147.01 164.97 C 150.78 165.65 150.89 169.99 151.98 172.89 C 151.42 176.10 155.22 182.11 150.37 183.43 C 145.44 185.39 142.19 179.46 140.11 175.90 L 139.81 175.19 Z" />
</g>
<g id="#00000034">
</g>
<g id="#9194a1ff">
<path fill="#9194a1" opacity="1.00" d=" M 218.95 177.18 C 212.41 178.24 218.46 167.63 222.03 172.87 C 223.93 175.35 220.60 176.08 218.95 177.18 Z" />
</g>
<g id="#3a3b45fb">
<path fill="#3a3b45" opacity="1.00" d=" M 242.12 171.16 C 246.12 175.67 252.44 173.76 257.78 174.17 C 260.56 174.41 263.40 174.70 266.21 174.87 C 271.22 177.25 276.50 179.59 280.67 183.35 C 283.84 187.41 280.98 192.87 277.08 195.13 C 267.52 204.29 254.46 200.59 243.06 203.88 C 239.43 203.58 236.95 206.21 234.45 208.38 C 231.10 206.42 234.21 204.16 237.05 204.72 C 237.14 202.67 234.81 202.53 233.41 201.82 C 225.60 200.51 220.12 192.84 222.97 185.06 C 223.80 185.00 226.81 187.09 225.93 185.12 C 222.60 181.81 228.74 179.87 226.17 175.91 C 228.55 175.62 227.74 178.47 228.33 179.94 C 230.65 180.51 232.93 179.57 233.88 177.33 C 231.63 175.71 228.20 173.76 232.96 173.43 C 233.67 173.32 235.08 173.11 235.78 173.00 C 238.26 174.15 240.29 172.74 242.12 171.16 M 238.59 182.41 C 234.94 182.02 232.00 188.51 233.08 191.77 C 235.36 194.38 236.63 192.34 235.22 189.76 C 237.34 192.10 240.22 192.76 242.67 190.29 C 244.82 196.40 250.44 193.76 254.88 193.35 C 255.52 198.33 259.98 198.46 259.88 193.29 L 260.64 192.74 C 261.10 196.28 265.28 196.65 266.17 193.17 C 271.14 198.18 279.62 188.35 274.23 183.77 C 272.65 180.15 269.28 181.67 266.46 181.64 C 263.19 175.44 256.17 179.18 254.27 183.91 C 254.23 178.58 249.06 182.60 247.84 178.29 C 241.89 176.45 243.45 187.06 238.59 182.41 M 230.35 181.26 C 228.16 183.87 224.24 190.83 230.77 188.86 C 231.54 186.43 235.46 179.56 230.35 181.26 Z" />
</g>
<g id="#2c2c33fe">
<path fill="#2c2c33" opacity="1.00" d=" M 157.76 177.23 C 157.79 175.45 156.37 173.04 158.57 172.10 C 161.04 175.44 162.05 181.14 167.56 180.53 C 172.07 180.39 168.99 186.57 169.99 188.78 C 163.76 189.86 160.70 197.60 154.11 197.04 C 156.85 190.69 147.91 190.68 143.89 191.73 C 146.20 186.21 136.68 182.21 140.11 175.90 C 142.19 179.46 145.44 185.39 150.37 183.43 C 155.22 182.11 151.42 176.10 151.98 172.89 C 154.40 173.66 155.46 176.28 157.76 177.23 Z" />
</g>
<g id="#585d6eff">
<path fill="#585d6e" opacity="1.00" d=" M 177.11 177.87 C 176.26 176.48 174.55 175.38 174.70 173.58 C 178.23 172.78 178.48 176.49 180.87 176.94 C 182.17 174.27 186.63 172.77 185.43 177.16 C 187.37 186.31 179.84 180.13 177.11 177.87 Z" />
</g>
<g id="#1b1b219e">
<path fill="#1b1b21" opacity="0.62" d=" M 257.78 174.17 C 260.60 174.15 263.41 174.33 266.21 174.87 C 263.40 174.70 260.56 174.41 257.78 174.17 Z" />
</g>
<g id="#575968ff">
<path fill="#575968" opacity="1.00" d=" M 238.59 182.41 C 243.45 187.06 241.89 176.45 247.84 178.29 C 249.06 182.60 254.23 178.58 254.27 183.91 C 256.17 179.18 263.19 175.44 266.46 181.64 C 269.28 181.67 272.65 180.15 274.23 183.77 C 279.62 188.35 271.14 198.18 266.17 193.17 C 265.28 196.65 261.10 196.28 260.64 192.74 C 263.56 191.19 267.64 191.48 270.85 192.90 C 275.73 190.70 273.00 180.98 267.45 183.57 C 264.39 185.45 261.13 183.11 258.16 182.18 C 255.58 185.03 254.18 193.33 259.88 193.29 C 259.98 198.46 255.52 198.33 254.88 193.35 C 250.44 193.76 244.82 196.40 242.67 190.29 C 240.22 192.76 237.34 192.10 235.22 189.76 C 236.63 192.34 235.36 194.38 233.08 191.77 C 232.00 188.51 234.94 182.02 238.59 182.41 Z" />
</g>
<g id="#515565ff">
<path fill="#515565" opacity="1.00" d=" M 230.35 181.26 C 235.46 179.56 231.54 186.43 230.77 188.86 C 224.24 190.83 228.16 183.87 230.35 181.26 Z" />
</g>
<g id="#7b7c87ff">
<path fill="#7b7c87" opacity="1.00" d=" M 258.16 182.18 C 261.13 183.11 264.39 185.45 267.45 183.57 C 273.00 180.98 275.73 190.70 270.85 192.90 C 267.64 191.48 263.56 191.19 260.64 192.74 L 259.88 193.29 C 254.18 193.33 255.58 185.03 258.16 182.18 Z" />
</g>
<g id="#5b606eff">
<path fill="#5b606e" opacity="1.00" d=" M 214.94 184.00 C 220.62 183.26 223.03 186.48 219.26 191.27 C 223.77 181.99 214.01 190.20 214.94 184.00 Z" />
</g>
<g id="#616567fe">
<path fill="#616567" opacity="1.00" d=" M 205.24 191.31 C 208.39 191.66 210.87 188.93 214.00 188.89 C 215.03 194.88 205.25 191.40 204.36 197.40 C 208.20 200.44 201.49 206.26 206.72 206.40 C 208.03 210.46 200.00 204.36 200.05 209.03 C 200.74 210.90 201.94 214.98 204.64 213.63 C 206.95 212.55 210.63 209.00 212.13 212.91 C 207.97 213.18 202.23 218.16 199.38 213.56 C 197.08 211.24 194.98 216.35 197.90 217.10 C 202.50 219.97 193.08 222.00 196.87 223.84 C 201.05 225.13 201.47 217.71 205.33 220.18 C 213.03 218.94 220.97 219.78 228.79 219.82 C 230.90 216.67 227.95 213.61 228.73 210.43 C 231.26 208.97 233.24 206.23 231.04 203.51 C 231.83 202.95 232.62 202.39 233.41 201.82 C 234.81 202.53 237.14 202.67 237.05 204.72 C 234.21 204.16 231.10 206.42 234.45 208.38 C 236.52 210.42 239.64 210.69 241.13 207.86 C 242.63 215.44 238.30 223.36 235.28 230.23 C 237.55 226.57 233.73 224.69 231.21 227.31 C 232.20 228.82 227.93 234.48 232.03 234.32 C 228.75 237.32 226.89 241.42 227.40 246.04 C 227.21 247.33 227.05 248.63 226.91 249.94 C 225.89 254.38 225.15 263.67 232.11 260.18 C 232.05 260.58 231.92 261.39 231.86 261.80 C 231.28 264.81 228.35 267.88 230.18 270.92 C 232.20 271.51 233.63 269.78 235.08 268.71 C 236.97 268.30 238.52 269.61 240.15 270.32 C 239.02 274.36 233.12 274.72 231.63 278.76 C 233.32 278.44 235.78 275.72 236.80 278.25 C 238.21 281.59 232.28 279.82 231.38 282.14 C 228.13 288.91 219.11 284.54 215.06 290.23 C 213.45 289.89 210.61 290.66 210.65 288.23 C 210.95 284.70 205.18 284.89 206.01 281.14 C 208.53 282.91 211.09 280.79 209.02 278.22 C 215.10 274.36 210.66 283.51 214.79 282.86 C 215.58 279.42 216.62 276.03 216.85 272.49 C 214.53 271.96 211.88 271.55 211.50 268.70 C 211.49 266.66 212.08 264.74 212.97 262.92 C 209.89 261.56 208.07 263.65 206.12 265.17 C 205.85 262.51 203.20 256.36 207.54 257.45 C 211.22 260.78 215.60 254.53 216.44 251.08 C 221.03 250.70 221.42 257.23 217.18 258.11 C 213.92 258.51 212.23 263.39 215.56 264.86 C 218.48 259.28 225.16 256.06 225.04 248.99 C 228.67 242.30 219.71 240.59 216.96 244.88 C 217.43 254.31 210.75 248.49 208.24 245.10 C 209.99 243.54 209.91 241.63 208.43 239.91 C 211.01 236.27 204.67 234.57 209.06 230.84 C 205.27 231.07 204.38 236.36 206.71 238.82 C 204.29 239.45 200.17 238.52 202.69 243.98 C 200.12 243.84 197.62 243.16 195.05 242.96 C 196.22 246.94 197.44 250.91 198.63 254.89 C 197.03 256.90 189.30 260.64 195.84 259.68 C 200.97 257.38 198.04 264.42 200.19 267.20 C 197.58 270.72 189.51 267.17 190.45 262.77 C 188.59 263.70 186.90 265.02 185.82 266.83 C 180.92 267.82 174.91 268.67 170.67 265.39 C 177.20 265.01 182.13 260.11 187.85 257.49 C 186.91 255.98 185.74 254.62 184.83 253.09 C 186.62 250.76 184.77 248.14 184.05 245.78 C 187.38 244.25 188.38 245.42 187.27 248.79 C 193.75 252.77 191.78 245.25 187.61 243.48 C 179.20 242.40 174.93 224.88 186.03 224.97 C 196.42 226.75 189.20 223.36 186.96 221.81 C 185.35 220.07 187.36 219.94 188.87 219.61 C 190.00 216.86 187.09 216.38 185.20 215.51 C 184.83 212.47 188.83 212.11 190.97 211.60 C 190.33 208.97 187.61 202.77 192.82 204.31 C 196.77 206.13 199.15 202.28 202.87 201.83 C 200.81 197.42 204.45 195.19 205.24 191.31 M 208.16 222.12 C 207.11 224.04 206.82 227.13 208.11 228.99 C 210.19 225.44 217.19 227.14 216.01 221.95 C 212.51 222.33 210.50 224.45 208.16 222.12 M 220.76 222.25 C 226.26 228.49 217.94 232.27 213.02 235.16 C 211.95 240.85 218.95 237.65 222.11 239.02 C 216.32 231.97 229.84 228.47 230.03 221.97 C 226.89 221.89 223.84 223.70 220.76 222.25 M 190.93 225.95 C 192.95 230.07 191.41 235.37 196.07 237.95 C 202.88 235.04 197.75 224.31 190.93 225.95 Z" />
</g>
<g id="#54555bfd">
<path fill="#54555b" opacity="1.00" d=" M 140.65 195.76 C 143.33 192.72 146.68 194.57 150.07 194.35 C 149.45 198.25 148.12 203.33 144.13 204.98 C 141.96 203.05 140.42 200.63 139.54 197.87 C 139.82 197.34 140.37 196.29 140.65 195.76 Z" />
</g>
<g id="#707877ff">
<path fill="#707877" opacity="1.00" d=" M 193.24 193.10 C 197.56 190.34 202.58 196.99 198.77 199.88 C 195.25 201.41 189.58 196.00 193.24 193.10 Z" />
</g>
<g id="#949a9dff">
<path fill="#949a9d" opacity="1.00" d=" M 215.19 197.06 C 218.18 198.55 226.96 197.98 222.89 202.85 C 219.91 200.17 210.82 202.07 215.19 197.06 Z" />
</g>
<g id="#62697bff">
<path fill="#62697b" opacity="1.00" d=" M 176.27 203.33 C 179.87 203.28 180.39 214.77 174.10 212.95 C 168.11 212.42 172.63 204.32 176.27 203.33 Z" />
</g>
<g id="#949b99ff">
<path fill="#949b99" opacity="1.00" d=" M 228.73 210.43 C 225.01 207.90 225.94 202.83 231.04 203.51 C 233.24 206.23 231.26 208.97 228.73 210.43 Z" />
</g>
<g id="#818384fb">
<path fill="#818384" opacity="1.00" d=" M 234.45 208.38 C 236.95 206.21 239.43 203.58 243.06 203.88 C 242.39 205.20 241.75 206.53 241.13 207.86 C 239.64 210.69 236.52 210.42 234.45 208.38 Z" />
</g>
<g id="#00000068">
</g>
<g id="#00000040">
</g>
<g id="#0000007e">
</g>
<g id="#0000002f">
</g>
<g id="#898e9aff">
<path fill="#898e9a" opacity="1.00" d=" M 208.16 222.12 C 210.50 224.45 212.51 222.33 216.01 221.95 C 217.19 227.14 210.19 225.44 208.11 228.99 C 206.82 227.13 207.11 224.04 208.16 222.12 Z" />
</g>
<g id="#787b81ff">
<path fill="#787b81" opacity="1.00" d=" M 220.76 222.25 C 223.84 223.70 226.89 221.89 230.03 221.97 C 229.84 228.47 216.32 231.97 222.11 239.02 C 218.95 237.65 211.95 240.85 213.02 235.16 C 217.94 232.27 226.26 228.49 220.76 222.25 Z" />
</g>
<g id="#00000024">
</g>
<g id="#8c8c99ff">
<path fill="#8c8c99" opacity="1.00" d=" M 190.93 225.95 C 197.75 224.31 202.88 235.04 196.07 237.95 C 191.41 235.37 192.95 230.07 190.93 225.95 Z" />
</g>
<g id="#8a8b92fc">
<path fill="#8a8b92" opacity="1.00" d=" M 231.21 227.31 C 233.73 224.69 237.55 226.57 235.28 230.23 C 234.31 231.68 233.23 233.05 232.03 234.32 C 227.93 234.48 232.20 228.82 231.21 227.31 Z" />
</g>
<g id="#767b7fff">
<path fill="#767b7f" opacity="1.00" d=" M 206.71 238.82 C 204.38 236.36 205.27 231.07 209.06 230.84 C 204.67 234.57 211.01 236.27 208.43 239.91 C 209.91 241.63 209.99 243.54 208.24 245.10 C 210.75 248.49 217.43 254.31 216.96 244.88 C 215.82 250.90 220.66 249.85 225.04 248.99 C 225.16 256.06 218.48 259.28 215.56 264.86 C 212.23 263.39 213.92 258.51 217.18 258.11 C 221.42 257.23 221.03 250.70 216.44 251.08 C 215.60 254.53 211.22 260.78 207.54 257.45 C 203.20 256.36 205.85 262.51 206.12 265.17 C 205.71 268.65 202.68 267.59 200.19 267.20 C 198.04 264.42 200.97 257.38 195.84 259.68 C 189.30 260.64 197.03 256.90 198.63 254.89 C 197.44 250.91 196.22 246.94 195.05 242.96 C 197.62 243.16 200.12 243.84 202.69 243.98 C 200.17 238.52 204.29 239.45 206.71 238.82 M 201.22 248.18 C 198.85 249.03 200.40 252.94 202.68 251.65 C 207.59 252.16 204.77 246.29 201.22 248.18 Z" />
</g>
<g id="#5e6562ff">
<path fill="#5e6562" opacity="1.00" d=" M 170.67 265.39 C 158.55 261.46 157.39 243.16 169.09 237.95 C 173.75 239.95 178.52 242.22 182.88 244.88 C 177.86 244.69 173.41 249.28 173.81 254.11 C 171.56 257.49 170.90 261.38 170.67 265.39 Z" />
</g>
<g id="#222329ee">
<path fill="#222329" opacity="0.93" d=" M 230.54 245.53 C 241.85 236.86 256.92 240.05 270.19 239.54 C 263.74 242.75 256.06 239.76 250.03 243.68 C 243.35 238.79 237.52 247.44 234.45 252.70 C 231.09 254.45 228.91 251.86 226.91 249.94 C 227.05 248.63 227.21 247.33 227.40 246.04 C 228.51 246.87 229.60 246.27 230.54 245.53 Z" />
</g>
<g id="#464851fb">
<path fill="#464851" opacity="1.00" d=" M 250.03 243.68 C 256.06 239.76 263.74 242.75 270.19 239.54 C 272.95 239.94 276.47 241.85 273.98 245.76 C 271.01 247.39 267.80 248.55 264.78 250.07 C 263.14 250.06 261.51 250.07 259.89 250.12 C 261.83 248.47 264.81 247.33 264.09 244.20 C 260.66 244.60 257.22 244.88 253.79 244.45 C 254.77 247.18 256.48 250.43 259.89 250.12 C 256.54 251.31 255.28 253.35 258.93 255.38 C 262.68 258.41 267.62 256.91 271.94 258.08 C 271.79 259.62 271.51 262.71 271.37 264.25 C 273.17 256.64 263.13 257.84 259.20 261.16 C 258.20 263.24 260.80 262.88 262.05 263.40 C 261.18 265.12 259.92 266.58 258.87 268.19 C 255.65 268.35 251.49 265.13 256.95 264.58 C 255.86 261.58 254.92 258.92 257.00 256.05 C 255.14 252.93 253.10 249.88 250.73 247.15 C 242.54 246.83 236.97 254.59 232.11 260.18 C 225.15 263.67 225.89 254.38 226.91 249.94 C 228.91 251.86 231.09 254.45 234.45 252.70 C 237.52 247.44 243.35 238.79 250.03 243.68 Z" />
</g>
<g id="#999aa0ff">
<path fill="#999aa0" opacity="1.00" d=" M 216.96 244.88 C 219.71 240.59 228.67 242.30 225.04 248.99 C 220.66 249.85 215.82 250.90 216.96 244.88 Z" />
</g>
<g id="#62626dff">
<path fill="#62626d" opacity="1.00" d=" M 253.79 244.45 C 257.22 244.88 260.66 244.60 264.09 244.20 C 264.81 247.33 261.83 248.47 259.89 250.12 C 256.48 250.43 254.77 247.18 253.79 244.45 Z" />
</g>
<g id="#0000001b">
</g>
<g id="#868d75ff">
<path fill="#868d75" opacity="1.00" d=" M 173.81 254.11 C 173.41 249.28 177.86 244.69 182.88 244.88 C 183.18 245.11 183.76 245.55 184.05 245.78 C 184.77 248.14 186.62 250.76 184.83 253.09 C 181.35 256.30 177.84 254.78 173.81 254.11 Z" />
</g>
<g id="#6e7077ff">
<path fill="#6e7077" opacity="1.00" d=" M 232.11 260.18 C 236.97 254.59 242.54 246.83 250.73 247.15 C 253.10 249.88 255.14 252.93 257.00 256.05 C 254.92 258.92 255.86 261.58 256.95 264.58 C 251.49 265.13 255.65 268.35 258.87 268.19 C 256.84 270.91 257.84 273.68 259.37 276.36 C 256.17 277.02 256.48 272.57 253.66 273.55 C 250.11 274.18 252.03 269.50 252.76 267.72 C 250.46 268.14 248.71 269.71 246.84 270.97 C 247.77 267.15 249.87 262.88 247.82 259.09 C 243.65 257.87 243.74 263.87 245.81 266.08 C 242.23 264.89 239.25 264.62 240.15 270.32 C 238.52 269.61 236.97 268.30 235.08 268.71 C 235.99 265.29 236.92 259.20 231.86 261.80 C 231.92 261.39 232.05 260.58 232.11 260.18 Z" />
</g>
<g id="#a4a7a4ff">
<path fill="#a4a7a4" opacity="1.00" d=" M 201.22 248.18 C 204.77 246.29 207.59 252.16 202.68 251.65 C 200.40 252.94 198.85 249.03 201.22 248.18 Z" />
</g>
<g id="#06050647">
</g>
<g id="#232328f0">
<path fill="#232328" opacity="0.94" d=" M 258.93 255.38 C 261.51 253.81 263.93 251.73 267.12 251.65 C 269.70 252.96 271.56 255.15 271.94 258.08 C 267.62 256.91 262.68 258.41 258.93 255.38 Z" />
</g>
<g id="#6e7747ff">
<path fill="#6e7747" opacity="1.00" d=" M 173.81 254.11 C 177.84 254.78 181.35 256.30 184.83 253.09 C 185.74 254.62 186.91 255.98 187.85 257.49 C 182.13 260.11 177.20 265.01 170.67 265.39 C 170.90 261.38 171.56 257.49 173.81 254.11 Z" />
</g>
<g id="#4a4f52fa">
<path fill="#4a4f52" opacity="0.98" d=" M 245.81 266.08 C 243.74 263.87 243.65 257.87 247.82 259.09 C 249.87 262.88 247.77 267.15 246.84 270.97 C 248.71 269.71 250.46 268.14 252.76 267.72 C 252.03 269.50 250.11 274.18 253.66 273.55 C 256.48 272.57 256.17 277.02 259.37 276.36 C 256.93 277.57 254.26 278.25 251.73 279.22 C 250.45 278.07 250.59 276.41 250.60 274.85 C 246.56 275.99 244.55 281.76 249.13 283.35 C 246.11 283.46 243.42 284.48 241.92 287.12 C 237.71 287.40 234.73 284.10 231.38 282.14 C 232.28 279.82 238.21 281.59 236.80 278.25 C 235.78 275.72 233.32 278.44 231.63 278.76 C 233.12 274.72 239.02 274.36 240.15 270.32 C 239.25 264.62 242.23 264.89 245.81 266.08 Z" />
</g>
<g id="#67696ffd">
<path fill="#67696f" opacity="1.00" d=" M 259.20 261.16 C 263.13 257.84 273.17 256.64 271.37 264.25 L 271.22 265.18 C 268.12 264.24 265.05 264.24 263.03 267.11 C 262.49 267.32 261.40 267.74 260.85 267.95 C 260.36 268.01 259.37 268.13 258.87 268.19 C 259.92 266.58 261.18 265.12 262.05 263.40 C 260.80 262.88 258.20 263.24 259.20 261.16 Z" />
</g>
<g id="#909299ff">
<path fill="#909299" opacity="1.00" d=" M 231.86 261.80 C 236.92 259.20 235.99 265.29 235.08 268.71 C 233.63 269.78 232.20 271.51 230.18 270.92 C 228.35 267.88 231.28 264.81 231.86 261.80 Z" />
</g>
<g id="#494e56ff">
<path fill="#494e56" opacity="1.00" d=" M 185.82 266.83 C 186.90 265.02 188.59 263.70 190.45 262.77 C 189.51 267.17 197.58 270.72 200.19 267.20 C 202.68 267.59 205.71 268.65 206.12 265.17 C 208.07 263.65 209.89 261.56 212.97 262.92 C 212.08 264.74 211.49 266.66 211.50 268.70 C 209.15 270.45 208.60 273.91 204.95 272.25 C 204.17 275.28 206.68 277.02 209.02 278.22 C 211.09 280.79 208.53 282.91 206.01 281.14 C 207.34 275.65 203.50 278.00 200.37 279.39 L 199.97 278.58 C 201.34 276.21 203.10 273.85 203.09 270.98 C 200.98 270.65 198.93 271.22 197.53 272.88 C 197.16 272.88 196.42 272.89 196.05 272.89 C 197.18 267.27 189.43 272.44 187.11 270.97 C 186.92 269.39 188.66 266.36 185.82 266.83 Z" />
</g>
<g id="#2d2d33d4">
<path fill="#2d2d33" opacity="0.83" d=" M 263.03 267.11 C 265.05 264.24 268.12 264.24 271.22 265.18 C 268.95 267.13 265.82 266.84 263.03 267.11 Z" />
</g>
<g id="#424346e5">
<path fill="#424346" opacity="0.90" d=" M 258.87 268.19 C 259.37 268.13 260.36 268.01 260.85 267.95 C 260.08 270.71 259.86 273.54 259.37 276.36 C 257.84 273.68 256.84 270.91 258.87 268.19 Z" />
</g>
<g id="#72757fff">
<path fill="#72757f" opacity="1.00" d=" M 204.95 272.25 C 208.60 273.91 209.15 270.45 211.50 268.70 C 211.88 271.55 214.53 271.96 216.85 272.49 C 216.62 276.03 215.58 279.42 214.79 282.86 C 210.66 283.51 215.10 274.36 209.02 278.22 C 206.68 277.02 204.17 275.28 204.95 272.25 Z" />
</g>
<g id="#85878fff">
<path fill="#85878f" opacity="1.00" d=" M 197.53 272.88 C 198.93 271.22 200.98 270.65 203.09 270.98 C 203.10 273.85 201.34 276.21 199.97 278.58 C 198.96 276.77 198.14 274.86 197.53 272.88 Z" />
</g>
<g id="#4e534eff">
<path fill="#4e534e" opacity="1.00" d=" M 181.00 274.08 C 181.83 270.25 186.34 273.63 188.97 274.00 C 187.81 280.54 195.88 282.44 200.37 279.39 C 197.43 281.35 194.05 288.75 190.70 284.39 C 188.43 279.88 180.03 280.35 181.00 274.08 Z" />
</g>
<g id="#717a4dff">
<path fill="#717a4d" opacity="1.00" d=" M 188.97 274.00 C 191.33 273.64 193.67 273.17 196.05 272.89 C 196.42 272.89 197.16 272.88 197.53 272.88 C 198.14 274.86 198.96 276.77 199.97 278.58 L 200.37 279.39 C 195.88 282.44 187.81 280.54 188.97 274.00 Z" />
</g>
<g id="#6d7579f8">
<path fill="#6d7579" opacity="0.97" d=" M 249.13 283.35 C 244.55 281.76 246.56 275.99 250.60 274.85 C 250.59 276.41 250.45 278.07 251.73 279.22 C 252.24 281.16 251.35 283.23 249.13 283.35 Z" />
</g>
</svg>



