<svg xmlns="http://www.w3.org/2000/svg" width="512" height="512" viewBox="0 0 384 384" xmlns:v="https://vecta.io/nano"><path fill="#5c6071" opacity=".96" d="M190.63 92.04c4.33-3.62 11.22-4.7 15.52-.44-2.57.51-6.72 4.4-6.54-.55-3 .09-7.15 6.07-8.98.99z"/><path fill="#3d424b" d="M190.63 92.04c1.83 5.08 5.98-.9 8.98-.99-.18 4.95 3.97 1.06 6.54.55l2.94 1.98c-3.03.25-.4 5.88-3.48 4.8-3.45-1.4-3.2 3.14-3.61 5.4 1.87.78 5.75 1.92 2.78 4.13-3.71-.14-12.22-1.14-9.92-6.84-5.19-1.43-3.08 1.79-1.6 4.84-2.75-1.06-5.32-2.8-8.33-3.02-.41 2.64 2.72 2.85 4.32 4.07-.07.9 1.53 2.94-.25 2.88-4.21-.54-3.5 6.52-7.76 5.05-3.75-1.91 1.42-6.81.08-8.85-3.34-2.57-9.61-3.01-11.24 1.64 1.4.52 2.82.99 4.23 1.49-.98 3.58-3.96 7.31 1.77 5.16-.86 6.27-5.63 12.19-3.21 18.71.55 4.25 5.85 4.96 9.29 4.55 1.61-.27 3.13-.96 3.78-2.55l.98-2.17c3.11-2.24 4.92 1.02 6.48 3.33-2.58.76-3.8 3.43-6.39 4.16-1.61 2.35-2.13 5.9-5.15 7.47-5.1 3.16-2.74 10.82 3.48 7.44.46 4.45-8.17 2.78-5.71 7.07.8 5.24 7.53 1.24 7.59 7.64-4.88.34-11.19-4.57-15.02-.71-1.95 4.67 4.28 4 6.84 5.82-.81 1.98-2.41 3.4-3.87 4.89 2.57 2.45 3.94 6.57 7.95 6.96 4.87 1.85 5.91-9.67.32-7.81-.24 2.08-1.25 3.38-3.49 2.88-.74-5.76 10.38-5.77 7.27-12.03 1.35 1.73 6.73 3.47 3.4 5.61-3.66 2.13 1.95 5.09 3.42 7.18l1.67.06c3.71-.65 2.65 5.16.13 5.94-2.31 1.45-10.55 2.24-6.13 5.53 2.29 3.18 6.55-3.73 7.25.76.51 2.07-1.88 2.66-3.07 3.77-3.03 2.86 1.29 5.91 3.55 7.51-1.79 1.19-3.69 2.2-5.44 3.44-.77.62-1.49 1.29-2.18 2-2.55 3.49-7.47 2.25-9.74-.92l-.22-.87c.66-4.28 10.8 1.6 8.05-5.86-6.04-.64-12.5-3.71-18.36-.73-1.93 1.35-2.56-1.83-3.74-2.81-2.14-6.2 11.95-4.82 4.95-10.9 3.42-4.73.76-6.92-5.14-6.02-5.1 1.5-3.24-9.69-7.8-6.8-3.02 2.84-3.74-5.75-6.23-.76-.64-2.85-1.43-7.55-5.3-6.89-4.11 3.09-6.15 8.73-4.25 13.61l-2 .14-.99-6.04a85.02 85.02 0 0 1 .1-5.76c.68-1.39 1.38-2.77 2.17-4.1.26-.29.79-.86 1.06-1.14.49-6.32 1.11-12.64 2.8-18.76l1.06-1.97 1.03-2.06c.43-2.08.49-4.21.18-6.39l-.37-6.74.75-1.9c.66-7.78 5.83-12.73 12.3-16.08 4.79-2.96 8.95-7.47 9.75-13.26 3.14-6.26 10.73-4.7 16.4-5.8 1.46-.24 2.9-.62 4.35-.93m-29.39 27.06c-2.41 3.39-6.12 7.6-3.02 11.78 7.48 2.32 10.91-11.13 3.02-11.78m3.93 20.99c-3.87 4.16.65 8.44.91 12.89.38 3.25 7.64-.67 3.92-1.91-4.57.43 2.35-3.3-.79-5.27-2.04-1.49-1.21-6.07-4.04-5.71z"/><path fill="#5a5e65" d="M205.61 98.38c3.08 1.08.45-4.55 3.48-4.8l4.74 1.56c3.63 4.64 10.62 7.96 15.03 2.5 1.34.5 2.71.59 4.11.29.88.81 1.74 1.73 2.98 1.98 1.4.48 2.8.37 4.18-.35 4.1 1.42 3.87 7.79 9.78 5.58l1.28.58c.66 3.43-.46 8.34 3.87 9.17-5.11-1.35-4.12 2.77-2.82 6.09 2.63-.41 6.86-1.86 5.01-5.21 5-.51 7.26 3.81 6.93 8.25-3.9 3.02-9.4.14-13.28 3.62-2 .58-.5 2.85.96 2.89 2.37 2.68 5.31 4.35 9.18 3.46 3.48.3 9.58 2.97 5.2 7.3-5.71-.37-11.23-2.63-16.98-1.75-3.35.23-7.61-8-5.73-1.16-3.54 2.19-10.51-1.71-13.5-5.34.45-1.91.9-3.85.87-5.84.32-1.92-.99-6.86 2.06-4.05 2.18 2.11 3.96-.76 5.34-2.24 1.29-1.1 3.24-1.72 3.74-3.5-4.49-.22-6.66-4.91-11.07-5.51l-1.1-.79c-1.41-2.35-2.74-4.74-4.24-7.02-1.29 2.09-2.95 3.89-4.45 5.82.26-2.97-2.32-8.99-3.65-3.18-3.67 4.64 3.17 6.91 6.7 8.04 2.67 3.03-7.99 3.03-5.4 6.43 2.08 2.88-1.71 6.18-1.31 9.11-1.8-3.72.68-10.33-4.47-11.31-2.1 1.62-3.95 5.72-6.65 2.62 1.85-8.1-4.29-2.45-7.45-2.02-1.08 2.36-3.84 7.94.67 7.9 3.16 1.78 3.57-2.33 3.59-4.55 5.7-.98 1.05 7.47-2.63 6.55-3.52-3.23-8.4 2.87-3.41 3.23 4.63-.68-.4 6.11 4.64 4.16-1.7-10.55 2.78-1.81 2.82.99-2.03 4.43 4.77 4.45 6.65 1.64 5.66.92 7.03 5.11 6.88 10.29-.89 2.25-5.19 5.81-1.12 7.12-3.22 1.59-1.47 4.74-.09 7.01-3.97-.84-6.76-9.38-10.9-3.08 4.65 3.47-5.08 8.04 1.54 10.48-4.32 3.09-2.8 9.33-3.89 13.9l-1.68-5.09c.04-2.57 3.03-8.15-.9-7.06-.62 1.93-5.6 7.43-1.02 7.09-1.53.76-3.01 1.64-4.39 2.65l-1.67-.06c-4.8-8.94 10.73-10.48 7.24-18.8-3.09-2.93-2.76-6.43 1.79-7.2-1.18-2.49-3.53-3.25-5.89-1.75-3.75.95-4.09 9.4-8.49 6.32-1.42-2.49-.49-6.4 2.84-6.83-.81-3.25.53-6 2.58-8.47 1.87 1.9 8.89 5.41 5.4.48-2.15-2.42.39-4.76.41-7.3-1.5-2.48-4.33-.47-6.07.61-2.12 1.11-2.54 3.84-4.5 5.19-.85-1.52-1.65-3.07-2.34-4.66 2.59-.73 3.81-3.4 6.39-4.16 2.78-.71-1.01-4.51.12-6.86-3.07-6.12-2.78-18.68 5.56-19.7-2.56-5.07-6.56 1.9-9.83-2.68-1.6-1.22-4.73-1.43-4.32-4.07 3.01.22 5.58 1.96 8.33 3.02-1.48-3.05-3.59-6.27 1.6-4.84-2.3 5.7 6.21 6.7 9.92 6.84 2.97-2.21-.91-3.35-2.78-4.13.41-2.26.16-6.8 3.61-5.4m3.58-2.3c-2.4 2.73.88 5.6 3.84 4.95.48-2.35-1.27-5.24-3.84-4.95m35.98 19.94c-1.06 1.84-1.26 4.33-3.92 4.33 1.14 3.53-5.96 11.01 1.46 9.78-1.4 3.54 1.02 4.7 4.33 4.88-2.16-4.47 2.43-8.32.11-12.77 4.93-1.4 2.74-7.45-1.98-6.22z"/><path fill="#888f85" d="M209.19 96.08c2.57-.29 4.32 2.6 3.84 4.95-2.96.65-6.24-2.22-3.84-4.95z"/><path fill="#71778a" d="M170.08 107.68c1.63-4.65 7.9-4.21 11.24-1.64-1.56 2.52-4.18 3.3-7.01 3.13l-4.23-1.49z"/><path fill="#75797b" d="M217.53 106.73c1.33-5.81 3.91.21 3.65 3.18 1.5-1.93 3.16-3.73 4.45-5.82l4.24 7.02-4.9-2.22c-1.45 7.03 9.25 6.94 7.99 14.26-3.05-2.81-1.74 2.13-2.06 4.05-.36-3.57-1.91-9.11-6.61-8.09-1.08 3.01-3.99 7.22-.82 9.85 1.13 1.25 2.31 2.45 3.67 3.46.9.39 1.86.6 2.89.62-.86 2.44-3.97 5.2-2.44 7.77 1.48 1.83 3.38 3.49 3.6 6-1.66 4.65.22 7.85 3.76 10.18-2.74 2.11-1.82 7.56-5.96 7.51-3.81-.03-5.43 5.77-9.87 2.7l.84-.26c12-.95 7.76-17.63-1.8-17.13.15-5.18-1.22-9.37-6.88-10.29-1.88 2.81-8.68 2.79-6.65-1.64-.04-2.8-4.52-11.54-2.82-.99-5.04 1.95-.01-4.84-4.64-4.16-4.99-.36-.11-6.46 3.41-3.23 3.68.92 8.33-7.53 2.63-6.55-1.31-1.25-2.62-2.55-4.26-3.35 3.16-.43 9.3-6.08 7.45 2.02 2.7 3.1 4.55-1 6.65-2.62 5.15.98 2.67 7.59 4.47 11.31-.4-2.93 3.39-6.23 1.31-9.11-2.59-3.4 8.07-3.4 5.4-6.43-3.53-1.13-10.37-3.4-6.7-8.04z"/><path fill="#4b515d" d="M181.32 106.04c1.34 2.04-3.83 6.94-.08 8.85 4.26 1.47 3.55-5.59 7.76-5.05 1.78.06.18-1.98.25-2.88 3.27 4.58 7.27-2.39 9.83 2.68-8.34 1.02-8.63 13.58-5.56 19.7-1.13 2.35 2.66 6.15-.12 6.86-1.56-2.31-3.37-5.57-6.48-3.33.14-3.78 4.62-12.02-1.73-12.29-6.17-3.15-12.31 3.4-11.23 9.33 2.05 3.15 4.83 5.93 8.2 7.68-3.44.41-8.74-.3-9.29-4.55-2.42-6.52 2.35-12.44 3.21-18.71-5.73 2.15-2.75-1.58-1.77-5.16 2.83.17 5.45-.61 7.01-3.13z"/><path fill="#9ea1a5" d="M224.97 108.89c1.69.59 3.29 1.42 4.9 2.22l1.1.79c.65 4.5 6.19 4.78 7.33 9.01-1.38 1.48-3.16 4.35-5.34 2.24 1.26-7.32-9.44-7.23-7.99-14.26z"/><path fill="#7c8085" d="M230.97 111.9c4.41.6 6.58 5.29 11.07 5.51-.5 1.78-2.45 2.4-3.74 3.5-1.14-4.23-6.68-4.51-7.33-9.01z"/><path fill="#838f99" d="M252.24 120.98c-1.3-3.32-2.29-7.44 2.82-6.09l2.19.88c1.85 3.35-2.38 4.8-5.01 5.21z"/><path fill="#7d827e" d="M245.17 116.02c4.72-1.23 6.91 4.82 1.98 6.22 2.32 4.45-2.27 8.3-.11 12.77-3.31-.18-5.73-1.34-4.33-4.88-7.42 1.23-.32-6.25-1.46-9.78 2.66 0 2.86-2.49 3.92-4.33z"/><path fill="#5b6076" d="M161.24 119.1c7.89.65 4.46 14.1-3.02 11.78-3.1-4.18.61-8.39 3.02-11.78z"/><path fill="#989cad" d="M224.29 119.11c4.7-1.02 6.25 4.52 6.61 8.09.03 1.99-.42 3.93-.87 5.84-1.03-.02-1.99-.23-2.89-.62 2.23-3.01-.78-5.79-3.67-3.46-3.17-2.63-.26-6.84.82-9.85z"/><path fill="#696d84" d="M173.96 129.91c-1.08-5.93 5.06-12.48 11.23-9.33-2.19.23-4.55.54-5.88 2.5.72 2.21 2.34 4.6.54 6.75-2.65 3.73 2.69 7.6 6.09 5.21-.65 1.59-2.17 2.28-3.78 2.55-3.37-1.75-6.15-4.53-8.2-7.68z"/><path fill="#9094a3" d="M199.62 127.5c-4.51.04-1.75-5.54-.67-7.9 1.64.8 2.95 2.1 4.26 3.35-.02 2.22-.43 6.33-3.59 4.55z"/><path fill="#9b9fab" d="M179.31 123.08c1.33-1.96 3.69-2.27 5.88-2.5 6.35.27 1.87 8.51 1.73 12.29l-.98 2.17c-3.4 2.39-8.74-1.48-6.09-5.21 1.8-2.15.18-4.54-.54-6.75z"/><path fill="#28282d" opacity=".93" d="M250.9 127.64c3.88-3.48 9.38-.6 13.28-3.62.17 4.17-7.49 6.35-3.14 9.97-3.87.89-6.81-.78-9.18-3.46 1.76-.84.91-3.18-.96-2.89z"/><path fill="#d8dae1" d="M223.47 128.96c2.89-2.33 5.9.45 3.67 3.46-1.36-1.01-2.54-2.21-3.67-3.46z"/><path fill="#29292e" opacity=".93" d="M230.03 133.04c2.99 3.63 9.96 7.53 13.5 5.34-1.88-6.84 2.38 1.39 5.73 1.16 5.75-.88 11.27 1.38 16.98 1.75-12.33 3.34-26.33-1.07-38.65-.48-1.53-2.57 1.58-5.33 2.44-7.77z"/><path fill="#787f78" d="M193.85 139.83c1.74-1.08 4.57-3.09 6.07-.61-.02 2.54-2.56 4.88-.41 7.3 3.49 4.93-3.53 1.42-5.4-.48-3.35-3.26 4.15-3.97-.26-6.21z"/><path fill="#515566" d="M165.17 140.09c2.83-.36 2 4.22 4.04 5.71 3.14 1.97-3.78 5.7.79 5.27 3.72 1.24-3.54 5.16-3.92 1.91-.26-4.45-4.78-8.73-.91-12.89z"/><path fill="#484f5d" d="M181.86 147.83c3.02-1.57 3.54-5.12 5.15-7.47.69 1.59 1.49 3.14 2.34 4.66 1.96-1.35 2.38-4.08 4.5-5.19 4.41 2.24-3.09 2.95.26 6.21-2.05 2.47-3.39 5.22-2.58 8.47-3.33.43-4.26 4.34-2.84 6.83 4.4 3.08 4.74-5.37 8.49-6.32.35 3.75-2.67 11.34 4.1 8.95 3.49 8.32-12.04 9.86-7.24 18.8-1.47-2.09-7.08-5.05-3.42-7.18 3.33-2.14-2.05-3.88-3.4-5.61-.06-6.4-6.79-2.4-7.59-7.64-2.46-4.29 6.17-2.62 5.71-7.07 3.9-3.41 2.46-10.74-3.48-7.44z"/><path fill="#6b6f7b" d="M181.86 147.83c5.94-3.3 7.38 4.03 3.48 7.44-6.22 3.38-8.58-4.28-3.48-7.44z"/><path fill="#5b5f6a" d="M231.19 146.81c7.91 7.3 9.78 17.96 10.95 28.14-2.44 4.03-7.4 2.2-11.29 3.18 4.95 3.99 2.27 10.56.8 15.69-6.84 1.98-2-6.31.32-8.87-2.59-2.14-5.36.8-7.95 1.48-.49-5.53-3.83-.64-6.44.64.73-1.69 1.52-3.34 2.32-5 1.58-1.73 5.92-3.79 2.08-5.66 7.82 3.16 7.33-5.5 1.42-4.33-1.22 9.33-12.12-7.68-4.28-4.88 4.44 3.07 6.06-2.73 9.87-2.7 4.14.05 3.22-5.4 5.96-7.51-3.54-2.33-5.42-5.53-3.76-10.18m4.01 19.29c-2.77 2.01.69 7.17 3.79 5.92.65-2.54-.73-6.29-3.79-5.92z"/><path fill="#7b8546" d="M218.16 149.81c9.56-.5 13.8 16.18 1.8 17.13l-1.45-2.85c1.47-2.04 4.01-2.86 5.57-4.82-2.24-1.07-4.59-1.91-7.04-2.34-4.07-1.31.23-4.87 1.12-7.12z"/><path fill="#7f8692" d="M197.18 155.02c2.36-1.5 4.71-.74 5.89 1.75-4.55.77-4.88 4.27-1.79 7.2-6.77 2.39-3.75-5.2-4.1-8.95z"/><path fill="#90988b" d="M217.04 156.93c2.45.43 4.8 1.27 7.04 2.34-1.56 1.96-4.1 2.78-5.57 4.82l-1.56-.15c-1.38-2.27-3.13-5.42.09-7.01z"/><path fill="#757c80" d="M206.05 160.86c4.14-6.3 6.93 2.24 10.9 3.08l1.56.15 1.45 2.85-.84.26c-7.84-2.8 3.06 14.21 4.28 4.88 5.91-1.17 6.4 7.49-1.42 4.33-4.8-2.19-8.05 6.52-2.08 5.66-.8 1.66-1.59 3.31-2.32 5-1.41 2.17-6.6 6.02 1.93 4.38.65 11.11 2.29-.35 2.52-3.57-1.8 1.83-3.8 2.1-4.45-.81 2.61-1.28 5.95-6.17 6.44-.64-.51 5.06-2.63 10.82 1.7 14.77 1.92 4.6 7.36 3.99 11.23 5.95-1.39 1.61-2.92 3.09-4.32 4.68-5.02 2.61-1.77 7.9-3.86 12.06-3.99.53-1.93-4.87-2.08-7.23 1.38-4-3.87-3.86-6.4-4.73 1.6 2.96.02 9.45 4.83 7.47 1.01 4.98-3.26 4.89-6.94 3.4-4.64 3.77-12.77-.2-16.07 5.07 4.62 4.01-2.53 7.19-1.66 1.35-7.54-.25.25-4.47.74-7.71-2.87.81-5.31-.67-2.97-3.48 4.64 1.38 11.22 2.77 14.73-.9-3.05-3.49-6.14 2.91-9.48 1.56-.96-1.84-4-4.78-1.3-6.43 1.9-.1 8.13 2.05 4.14-.64-2.64-1.14 2.92-4.79-1.03-4.79-1.92-2.36-.05-4.25 1.42-6.18 1.33-5.94-6.56-9.07-3-15.41 1.09-4.57-.43-10.81 3.89-13.9-6.62-2.44 3.11-7.01-1.54-10.48z"/><path fill="#9092a2" d="M235.2 166.1c3.06-.37 4.44 3.38 3.79 5.92-3.1 1.25-6.56-3.91-3.79-5.92z"/><path fill="#555a67" d="M172.2 169.27c3.83-3.86 10.14 1.05 15.02.71 3.11 6.26-8.01 6.27-7.27 12.03 2.24.5 3.25-.8 3.49-2.88 5.59-1.86 4.55 9.66-.32 7.81-4.01-.39-5.38-4.51-7.95-6.96 1.46-1.49 3.06-2.91 3.87-4.89-2.56-1.82-8.79-1.15-6.84-5.82z"/><path fill="#595e73" d="M146.29 169.22c3.87-.66 4.66 4.04 5.3 6.89.32 3.34 1.13 6.6 2.3 9.74-3.75 4.02-9.25.53-11.85-3.02-1.9-4.88.14-10.52 4.25-13.61z"/><path fill="#828983" d="M201.12 173.09c3.93-1.09.94 4.49.9 7.06l-1.92.03c-4.58.34.4-5.16 1.02-7.09z"/><path fill="#2c2d33" d="M151.59 176.11c2.49-4.99 3.21 3.6 6.23.76 4.56-2.89 2.7 8.3 7.8 6.8 5.9-.9 8.56 1.29 5.14 6.02-.47 3.09-1.83 5.54-5.17 5.96-2 4.62-11.16 8.5-11.31 1.11-3.4-.86-6.87-2.26-10.37-.99 2.96-4.85-3.8-7.98-3.87-12.8l2-.14c2.6 3.55 8.1 7.04 11.85 3.02-1.17-3.14-1.98-6.4-2.3-9.74z"/><path fill="#3b3c46" d="M242.14 174.95c3.98 3.11 8.94 3.23 13.86 3.05 9.54-.85 20.5 2.99 25.93 11.14 2.82 7.13-4.06 9.89-8.83 12.76-2.35.99-4.67 2.05-6.94 3.19-4.16.11-8.34-.02-12.46.54-3.69.18-7.27 1.12-10.46 2.97-2.57-1.24-4.57 1.14-6.61 2.33-1.64.58-4.27 4.79-4 .9 1.4-1.59 2.93-3.07 4.32-4.68-3.87-1.96-9.31-1.35-11.23-5.95-4.33-3.95-2.21-9.71-1.7-14.77 2.59-.68 5.36-3.62 7.95-1.48-2.32 2.56-7.16 10.85-.32 8.87 1.47-5.13 4.15-11.7-.8-15.69 3.89-.98 8.85.85 11.29-3.18m.65 14c-2.49.79-3.12-.85-3.05-3.06-3.23 2.8-7.06 6.32-5.74 11.21 3.39-1.03 5.74-4.78 7.84-.03-.82-2.61 2.1-4.61 2.3-1.15 2 4.96 8.04 2.33 11.81 1.28.68 3.68 3.96 6.59 3.78 1.11 1.1-.65 2.11-1.57 3.41-1.78 1.62 1.87 10.46 2.73 12.53-1.86 4.34-4.31-5.43-11.67-7.31-8.03l-1.44 1.76c1.82-7.12-11.1-7.01-9.92-.45-3.62 3.05-1.49-4.9-4.61-3.69-.54 3.21-4.39.96-2.67-1.4-3.53.36-7.87 1.6-6.93 6.09z"/><path fill="#9194a2" d="M219.9 182.07c-5.97.86-2.72-7.85 2.08-5.66 3.84 1.87-.5 3.93-2.08 5.66z"/><path fill="#4a525f" d="M200.1 180.18l1.92-.03 1.68 5.09c-3.56 6.34 4.33 9.47 3 15.41-1.47 1.93-3.34 3.82-1.42 6.18-2.6.61-4.07 2.81-5.57 4.82-2.67-.16-5.07-1.56-7.71-1.87 1.75-1.24 3.65-2.25 5.44-3.44 6.64-2.08 2.11-9.43-3.55-7.51 1.19-1.11 3.58-1.7 3.07-3.77-.7-4.49-4.96 2.42-7.25-.76-4.42-3.29 3.82-4.08 6.13-5.53 2.52-.78 3.58-6.59-.13-5.94 1.38-1.01 2.86-1.89 4.39-2.65z"/><path fill="#565969" d="M242.79 188.95c-.94-4.49 3.4-5.73 6.93-6.09-1.72 2.36 2.13 4.61 2.67 1.4 3.12-1.21.99 6.74 4.61 3.69 2.43 3.92-3.4 8.85 2.73 10.36.18 5.48-3.1 2.57-3.78-1.11-3.77 1.05-9.81 3.68-11.81-1.28-.2-3.46-3.12-1.46-2.3 1.15-2.1-4.75-4.45-1-7.84.03-1.32-4.89 2.51-8.41 5.74-11.21-.07 2.21.56 3.85 3.05 3.06z"/><path fill="#5a5c69" d="M257 187.95c-1.18-6.56 11.74-6.67 9.92.45-1.09 3.42-6.83-3.11-9.92-.45z"/><path fill="#63636c" d="M268.36 186.64c1.88-3.64 11.65 3.72 7.31 8.03-2.07 4.59-10.91 3.73-12.53 1.86 2.98-1.25 5.98-1.34 8.74.48 3-3.68 1.7-9.86-3.52-10.37z"/><path fill="#5c6170" d="M219.51 191.45c-8.53 1.64-3.34-2.21-1.93-4.38.65 2.91 2.65 2.64 4.45.81-.23 3.22-1.87 14.68-2.52 3.57z"/><path fill="#7c7d89" d="M257 187.95c3.09-2.66 8.83 3.87 9.92.45l1.44-1.76c5.22.51 6.52 6.69 3.52 10.37-2.76-1.82-5.76-1.73-8.74-.48-1.3.21-2.31 1.13-3.41 1.78-6.13-1.51-.3-6.44-2.73-10.36z"/><path fill="#353840" d="M165.59 195.65c3.34-.42 4.7-2.87 5.17-5.96 7 6.08-7.09 4.7-4.95 10.9-5.35 1.86-8.14 8.19-5.87 13.44-2.47-2.91-4.24-.64-6.48 1.1-.18-2.76-.96-5.42-1.8-8.04-5.03.08-.4 5.8-1.37 8.74 2.03 5.3 10.18 4.5 9.65-1.8 2.26-.97 4.58-1.96 7.08-2.11 1.4 5.2-6.83 6.52-3.04 11.88-2.93-2.14-10.73-1.29-7.94 4.12 2.77-.57 5.57-.97 7.98.86 1.93-4.08 6.94-2.32 3.27 1.49-.66 7.39 11.19 5.26 6.67-1.87 5.41 1.52 8.2-4.39 13.84-1.56 2.39 1.46 11.03 4.63.24 3.08-4.3-.79-7.63 3.28-8.08 7.19 1.11 2.62 1.77 5.56 3.56 7.82 2.35 1.66 6.54 5.4.88 4.86l-1.34-.83c-4.51-1.98-8.82-4.35-12.96-7.03-10.31 4.07-11.95 20.96-1.57 25.67 4.72 4.5 11.19 4.23 17.17 4.07.39 6.42 11.87-.43 8.36 5.37l-1.8.34c-3.79-.22-7.51-.81-11.26-1.32-2.11 5.88 4.58 7.04 7.41 10.45 2.29.06 4.46-1.69 6.79-2.08 1.44-.4 2.98-.81 3.87-2.12 1.7-1.21 2.47-5.36 4.98-3.44-3.4 5.98 2.99 7.91 2.88 13.18-6.88-3.38-11.49 5.01-17.86 2.11-2.76-5.34-8.81-4.02-13.95-4.34-7.15-2.35-5.11-10.93-9.32-15.69-3.33-3.05-7.6-4.55-11.75-6.07-4.79-3.12-3.75-9.45-7.07-13.12-.3-4.02.36-7.93.99-11.86-.79-2.93-2.24-5.59-3.7-8.22l-.27-1.78-.18-1.9c1.46-8.63-3.92-15.31-4.98-23.32.85-2.24 1.09-4.61 1.17-6.99.74-2.07 2.29-3.67 3.9-5.1 3.5-1.27 6.97.13 10.37.99.15 7.39 9.31 3.51 11.31-1.11m-21.24 1.63c-3.58 3.12-3.58 11.58 2.45 10.66 1.96-2.83 3.69-6.08 3.34-9.69-2.21 1.6-3.86-1.22-5.79-.97z"/><path fill="#56585e" d="M144.35 197.28c1.93-.25 3.58 2.57 5.79.97.35 3.61-1.38 6.86-3.34 9.69-6.03.92-6.03-7.54-2.45-10.66z"/><path fill="#717a7a" d="M197.44 206.34c-2.26-1.6-6.58-4.65-3.55-7.51 5.66-1.92 10.19 5.43 3.55 7.51z"/><path fill="#454b59" d="M159.94 214.03c-2.27-5.25.52-11.58 5.87-13.44 1.18.98 1.81 4.16 3.74 2.81 5.86-2.98 12.32.09 18.36.73 2.75 7.46-7.39 1.58-8.05 5.86-4.58-7.28-12.98 12.02-2.27 7.67 3.59-.27 2.5-4.01 2.49-6.8 2.27 3.17 7.19 4.41 9.74.92 4.61 4-.08 5.87-3.78 7.37 1.36 2.74 6.27 4.14 1.76 7.69-5.64-2.83-8.43 3.08-13.84 1.56 4.52 7.13-7.33 9.26-6.67 1.87 3.67-3.81-1.34-5.57-3.27-1.49-2.41-1.83-5.21-1.43-7.98-.86-2.79-5.41 5.01-6.26 7.94-4.12-3.79-5.36 4.44-6.68 3.04-11.88-2.5.15-4.82 1.14-7.08 2.11z"/><path fill="#1a1b1b" opacity=".65" d="M253.7 205.63c4.12-.56 8.3-.43 12.46-.54-3.8 1.96-8.45.05-12.46.54z"/><path fill="#494b55" d="M150.29 215.83c.97-2.94-3.66-8.66 1.37-8.74.84 2.62 1.62 5.28 1.8 8.04 2.24-1.74 4.01-4.01 6.48-1.1.53 6.3-7.62 7.1-9.65 1.8z"/><path fill="#5f6466" d="M199.71 211.65c1.5-2.01 2.97-4.21 5.57-4.82 3.95 0-1.61 3.65 1.03 4.79 3.99 2.69-2.24.54-4.14.64-2.7 1.65.34 4.59 1.3 6.43 3.34 1.35 6.43-5.05 9.48-1.56-3.51 3.67-10.09 2.28-14.73.9-2.34 2.81.1 4.29 2.97 3.48-.49 3.24-8.28 7.46-.74 7.71-.87 5.84 6.28 2.66 1.66-1.35 3.3-5.27 11.43-1.3 16.07-5.07 3.68 1.49 7.95 1.58 6.94-3.4-4.81 1.98-3.23-4.51-4.83-7.47 2.53.87 7.78.73 6.4 4.73.15 2.36-1.91 7.76 2.08 7.23 2.09-4.16-1.16-9.45 3.86-12.06-.27 3.89 2.36-.32 4-.9.34 3.36 4.28 2.23 5.48.07-.23 6.19-2.11 12.18-4.58 17.82-5.3-1.22-10.03 6.35-4.61 8.37-1.49 1.29-3.08 2.49-4.4 3.96-.52.8-.69 1.72-.5 2.76 1.56 2.6-4.5 12.94 1.87 11.02 1.73-.13 1.23-2.77 2.06-4 1.23.7 2.48 1.36 3.79 1.93 3.23 1.89-2.91 3.13-2.16 5.66 3.69 11.96-5.63-3-5.29 4.4-.21 3.57-4.67 6.5-2.09 10 2.77.92 3.79-1.91 5.09-3.71 1.58-.33 4.82-3.24 5.39-1.43-.38 5.51-10.11 7.73-6.13 12.92-1.71 1.01-3.53 1.9-4.96 3.31-5.06 4.55-12.23 6.73-18.66 8.04.11-5.27-6.28-7.2-2.88-13.18 2.78 2.49 9.04-2.9 6.18 5.24 3.35-2.26 5.97-10.11-.16-11.27-.27-2.79 1.88-3.84 3.16-5.8l-6.16.9c-2.95-1.9-2.41-7.13 1.59-6.47 6.19 2.38 5.98-9.49 12.19-5.36-.47 3.66-3.17 6.28-6.52 7.52-.74 3.86 2.64 6.2 3.97 9.39 3.68-2.21 6.7-6.34 2.68-8.7-2.89 2.53-4 .91-.99-1.35 2.89-2.47 4.36-6.39 5.06-10.04 4.5-8.64-10.53-8.5-8.08-.98 0 4.55-6.79 1.36-4.67-2.48-5.73-1.77.72-10.62-6.11-10.59.7 2.81 1.23 5.66-2.53 5.84 1.9 6.28-3.91 3.44-7.72 2.48 2.23 4.8 5.58 11.97-.79 14.99-3.39 2.88 2.56 1.18 4.42 1.38.26 2.52-.32 5.13.53 7.59-2.07 3.75-6.28-.69-9.43.47-2.57 1.07-.43-2.4-.64-3.67-1.92.62-3.48 1.85-4.33 3.71-5.98.16-12.45.43-17.17-4.07-10.38-4.71-8.74-21.6 1.57-25.67 4.14 2.68 8.45 5.05 12.96 7.03-4.47.78-7.06 4.73-8.09 8.94-1.57 3.56-3.64 6.96-3.02 11.1 6.49.25 11.31-4.77 16.96-7.21.09-2.37-3.86-1.8-2.99-4.85-.28-2.47-.1-5.04-1.52-7.15 5.66.54 1.47-3.2-.88-4.86 3.94-2.56 7.22 3.02 11.24 1.95 1.99-1.06.53-3.33.44-5.01 3.74 5.44 7.46-4.58 4.6-7.52-1.93-2.84-5.72-3.88-9.01-3.34 1.4 2.19 3.61 4.29 2.21 7.08-4.09-4.18-8.31-1.84-13.04-.98.45-3.91 3.78-7.98 8.08-7.19 10.79 1.55 2.15-1.62-.24-3.08 4.51-3.55-.4-4.95-1.76-7.69 3.7-1.5 8.39-3.37 3.78-7.37.69-.71 1.41-1.38 2.18-2 2.64.31 5.04 1.71 7.71 1.87m27.71 13.84c-1.91.66-8 1.96-3.71 3.84.07 3.88-4.06 5.94-6.65 2.77.82 4.55-4.38 6.18-4.1 10.94 4.5-1.74 5.1 1.61 9.07-.95 4.72-.94-.74-2.18-2.1-3.72 2.65-.32 4.78-2.31 5.33-4.91 2.38.89 2.59-1.42 2.04-3.14 3.59-.79 8.8-7.89.12-4.83m-18.23 1.66c-1.77 1.06-1.44 9.4 1.01 6.02 1.93-3 8.22-1.26 6.8-6.22-3.47.37-5.5 2.49-7.81.2z"/><path fill="#61687a" d="M177.59 217.66c-10.71 4.35-2.31-14.95 2.27-7.67l.22.87c.01 2.79 1.1 6.53-2.49 6.8z"/><path fill="#8b8c8a" d="M236.63 210.93c2.04-1.19 4.04-3.57 6.61-2.33l-1.13 2.4c-1.2 2.16-5.14 3.29-5.48-.07z"/><path fill="#74777b" d="M227.42 225.49c8.68-3.06 3.47 4.04-.12 4.83.55 1.72.34 4.03-2.04 3.14-.55 2.6-2.68 4.59-5.33 4.91 1.36 1.54 6.82 2.78 2.1 3.72-3.97 2.56-4.57-.79-9.07.95-.28-4.76 4.92-6.39 4.1-10.94 2.59 3.17 6.72 1.11 6.65-2.77-4.29-1.88 1.8-3.18 3.71-3.84z"/><path fill="#898d99" d="M209.19 227.15c2.31 2.29 4.34.17 7.81-.2 1.42 4.96-4.87 3.22-6.8 6.22-2.45 3.38-2.78-4.96-1.01-6.02z"/><path fill="#83838a" opacity=".96" d="M232.92 237.19c-5.42-2.02-.69-9.59 4.61-8.37-1.1 2.98-2.42 6.03-4.61 8.37z"/><path fill="#878692" d="M190.79 231.01c3.29-.54 7.08.5 9.01 3.34 2.86 2.94-.86 12.96-4.6 7.52l-2.2-3.78c1.4-2.79-.81-4.89-2.21-7.08z"/><path fill="#5f684c" d="M179.96 237.11c4.73-.86 8.95-3.2 13.04.98.76 1.25 1.5 2.5 2.2 3.78.09 1.68 1.55 3.95-.44 5.01-4.02 1.07-7.3-4.51-11.24-1.95-1.79-2.26-2.45-5.2-3.56-7.82z"/><path fill="#75797d" d="M206.19 238.88c6.83-.03.38 8.82 6.11 10.59-2.12 3.84 4.67 7.03 4.67 2.48 1.74 3.3 5.27 1.44 8.08.98-.7 3.65-2.17 7.57-5.06 10.04-3.01 2.26-1.9 3.88.99 1.35 4.02 2.36 1 6.49-2.68 8.7-1.33-3.19-4.71-5.53-3.97-9.39 3.35-1.24 6.05-3.86 6.52-7.52-6.21-4.13-6 7.74-12.19 5.36-4-.66-4.54 4.57-1.59 6.47-.91 3.68-3.63 4.43-6.97 3.22-.85-2.46-.27-5.07-.53-7.59-1.86-.2-7.81 1.5-4.42-1.38 6.37-3.02 3.02-10.19.79-14.99 3.81.96 9.62 3.8 7.72-2.48 3.76-.18 3.23-3.03 2.53-5.84m-3.98 13.26c-2.46 1.59-1.03 4.71 1.66 4.74 1.09-2.21 2.31-6.31-1.66-4.74z"/><path fill="#25262d" opacity=".95" d="M232.81 243.3c9.64-2.56 20.46-1.96 30.52-1.57-7.62 3.17-16.68 3.77-24.67 2.87-2.98 1.14-5 3.76-6.71 6.33-.83 1.23-.33 3.87-2.06 4-6.37 1.92-.31-8.42-1.87-11.02 1.61.37 3.35.26 4.79-.61z"/><path fill="#4f505a" d="M238.66 244.6c7.99.9 17.05.3 24.67-2.87 6.75.11 3.53 9.07-2.13 8.37-3.59.6-7.08 1.7-10.21 3.57l-.76 2.4c-4.35.8-2.94-4.46-3.79-7.16-3.76.53-7.64 1.64-10.7 3.95-1.31-.57-2.56-1.23-3.79-1.93 1.71-2.57 3.73-5.19 6.71-6.33z"/><path fill="#95969f" d="M216.97 251.95c-2.45-7.52 12.58-7.66 8.08.98-2.81.46-6.34 2.32-8.08-.98z"/><path fill="#899179" d="M174.97 257.9c1.03-4.21 3.62-8.16 8.09-8.94l1.34.83c1.42 2.11 1.24 4.68 1.52 7.15-3.12 3.4-7.13 2-10.95.96z"/><path fill="#75787d" d="M235.74 252.86c3.06-2.31 6.94-3.42 10.7-3.95.85 2.7-.56 7.96 3.79 7.16-1.09 3.66-3.91 6.09-.3 9.4-4.04.82-5 5.69-8.84 6.83 2.29-3.51 4.26-9.83-1.04-11.39.19 3.14 2.4 9.24-3.2 8.02l-.17-1.15c-.57-1.81-3.81 1.1-5.39 1.43 1.3-2.89 1.08-6.75-3-6.29-.34-7.4 8.98 7.56 5.29-4.4-.75-2.53 5.39-3.77 2.16-5.66z"/><path fill="#29292f" opacity=".95" d="M250.99 253.67c3.13-1.87 6.62-2.97 10.21-3.57-6.8 2.98 4.69 5.6 2.96 10.88-3.78-2.24-9.93-3.61-11.81 1.52-4.1 2.35.41-3.82-1.32-6.02 2.4-.01 2.47-3.06-.04-2.81z"/><path fill="#a4a7a4" d="M202.21 252.14c3.97-1.57 2.75 2.53 1.66 4.74-2.69-.03-4.12-3.15-1.66-4.74z"/><path fill="#595c60" opacity=".98" d="M250.23 256.07l.8.41c1.73 2.2-2.78 8.37 1.32 6.02 1.88-5.13 8.03-3.76 11.81-1.52.78 7.37-7.26 6.58-11.81 9.42-.7 2.75.21 6.19-2.22 8.17-2.67-.14-1.18-4.31-3.5-4.13-4.33-1.07-3.17 5.05-3.57 7.71-.38 1.35-1.91 1.85-3.02 2.44-2.12-3.05-1.2-6.3.02-9.43-2.11-1.15-1.65.63-1.43 2.09-6.09-1.07 5.37-9.26-1.52-6.56l-.26-1.76c5.6 1.22 3.39-4.88 3.2-8.02 5.3 1.56 3.33 7.88 1.04 11.39 3.84-1.14 4.8-6.01 8.84-6.83-3.61-3.31-.79-5.74.3-9.4z"/><path fill="#6f7847" d="M174.97 257.9c3.82 1.04 7.83 2.44 10.95-.96-.87 3.05 3.08 2.48 2.99 4.85-5.65 2.44-10.47 7.46-16.96 7.21-.62-4.14 1.45-7.54 3.02-11.1z"/><path fill="#909299" d="M228.29 262.92c4.08-.46 4.3 3.4 3 6.29-1.3 1.8-2.32 4.63-5.09 3.71-2.58-3.5 1.88-6.43 2.09-10z"/><path fill="#454a51" d="M207.07 267.94l6.16-.9c-1.28 1.96-3.43 3.01-3.16 5.8-3.78 3.08-8.86-.03-12.34 3.13-1.18.48-2.42.84-3.67 1.07 3.51-5.8-7.97 1.05-8.36-5.37.85-1.86 2.41-3.09 4.33-3.71.21 1.27-1.93 4.74.64 3.67 3.15-1.16 7.36 3.28 9.43-.47 3.34 1.21 6.06.46 6.97-3.22z"/><path fill="#454950" opacity=".97" d="M230.55 280.7c-3.98-5.19 5.75-7.41 6.13-12.92l.17 1.15.26 1.76c6.89-2.7-4.57 5.49 1.52 6.56-.22-1.46-.68-3.24 1.43-2.09-1.22 3.13-2.14 6.38-.02 9.43-5.37-1.16-9.99 5.39-14.45-.58 1.43-1.41 3.25-2.3 4.96-3.31z"/><path fill="#767881" d="M197.73 275.97c3.48-3.16 8.56-.05 12.34-3.13 6.13 1.16 3.51 9.01.16 11.27 2.86-8.14-3.4-2.75-6.18-5.24-2.51-1.92-3.28 2.23-4.98 3.44-.75-2.04-1.13-4.19-1.34-6.34z"/><path fill="#3b3d40" opacity=".92" d="M243.06 282.15c.4-2.66-.76-8.78 3.57-7.71 2.32-.18.83 3.99 3.5 4.13-4.12-1.36-6.55-.28-7.07 3.58z"/><path fill="#51574d" d="M181 276.06c3.75.51 7.47 1.1 11.26 1.32-6.61.2-1.15 7.47 2.94 7.05-2.33.39-4.5 2.14-6.79 2.08-2.83-3.41-9.52-4.57-7.41-10.45z"/><path fill="#717a4a" d="M194.06 277.04c1.25-.23 2.49-.59 3.67-1.07.21 2.15.59 4.3 1.34 6.34-.89 1.31-2.43 1.72-3.87 2.12-4.09.42-9.55-6.85-2.94-7.05l1.8-.34z"/></svg>