<svg xmlns="http://www.w3.org/2000/svg" width="512" height="512" viewBox="0 0 384 384" xmlns:v="https://vecta.io/nano"><path fill="#414650" d="M149.2 92.17c2.51-1.37 4.56-3.4 6.71-5.26l7.21-.15c2.78 1.52 5.66 2.92 8.8 3.56l3.04.67c3.14 4.65-2.6 2.9-2.85 5.74 6.69-.8 2.35 6.44 1.7 10.18 3.02 4.45.73 15.07 8.28 13.44-.64 4.89-7.96-.91-8.27 4.35 6.28-2.17 3.16 6.64.48 8.63-3.02 2.01-.37 5.13 2.47 5.14 5.67.66-2.76 6.45.88 8.99 1.47 1.78 4.24 5.87.67 6.83-5.18 1.13-10.45 7.43-5.17 11.57 1.69-1.6 3.56-2.99 5.88-3.52l.92-.29 1.81 6.25c2.63 4.54-5.34 5.4-2.76 9.43 5.11-4.71 5.88 3.79 1.86 6.21-1.83 1.24-.28 3.05.77 4.17l.51.64c-2.2 1.4-2.63 3.58-.34 5.14-5.6-1.6-4.06 9.37-9.55 4.02 1.59-2.97-.14-7.46-4.02-5.8-3.42 2.45.74 6.86 4.02 5.8a71.84 71.84 0 0 1 .59 3.9c-.37 2.47-2.03 3.92-4.58 3.12-1.24-2.17-2.4-6.9-5.59-4.28-3.43 3.26 4.22 5.17 1.24 8.18-2.27 3.19 4.2 2.38 5.44 4.89-3.2 1.04-9.6-2.12-11.37 2.31-4.69 4.97 1.3 9.72 2.28 14.77-3.41-2.47-9.08-7.65-5.8-12.28 1.94-3.02-1.75-6.27-4.58-6.63 1.22 2.76 2.93 8.2-1.88 8.15-4.47 1.57-.44-8.39-4.28-6.24-2.64 1.22-7.96 1.93-6.71-2.67 3.49-3.76 5.09-8.71 7.91-13.01-6.7-4.3-6.32 13.32-12.13 6.12-.07-5.97-2.11-7.3-6.24-9.33l-.5-2.26c.45-3.04.93-6.25 3.04-8.64l2.21-1.29c4.96 1.18 1.48 6.24.67 9.36 2.72.48 3.25-2.06 4.32-3.91 4.23-.31 9.43-2.65 9.53-7.49 4.98 1.69 10.39-3.66 5.99-7.5-2.32-4.96 5.13-2.68 7.34-1.13-.49-3.4-3.89-4.94-6-7.24-2.44-2.09-5.55 1.87-8.21.32-2.8-.73-1.33-7.98-4.76-4.94-2.17 2.11-3.94-4.8-5.07-.05-2.23-7.47-9.71.32-9.61 5.07-2.04-4.94 3.67-8.58 3.04-13.18-.27-1.74-.54-3.47-.73-5.22l.34-1.58c.45-4.19 2.19-8.02 3.34-12.01-1.42-3.59-3.73-7.04-3.46-11.07 2.44-5.12 1.94-11.62 6.89-15.29 1.01-3.49 1.31-7.19.92-11.09.72-.91 1.48-1.78 2.24-2.66l1.64-.41c3.11-.16 6.63 1.16 9.48-.53m6.09 1.1c-2.58.93-8.62 6.08.27 4.35 2.39.71 6.58-.1 5.34-3.4-1.73-.76-3.72-1.82-5.61-.95m2.07 24.41c1.2 3.13 8.06 6.65 9.37 4.67 4.87-2.53 7.12-9.98 4.03-14.43-3.84-4.76-18.41 1.91-13.4 9.76m-13.17-9.58c-1.48 2.75-7.16 7.66-3.44 10.14 6.27 5.62 12.6-10.46 3.44-10.14m24.13 23.24c-3.58.64-7.74 3.39-7.21 7.43 4.09 4.88 13.51-6.4 7.21-7.43M155 152.01c-.79 2.93.65 5.16 3.73 5.33-.17 7.46 4.89.68 8.24-.52-.47-5.15-8.18-5.5-11.97-4.81m.88 10c1.57 2.67 2.91 7.05 6.17 7.95 4.13 1.15 2.03-5.53 2.95-8-2.73-.87-2.35 3.52-4.88 3-1.78-.56-1.74-3.78-4.24-2.95m15.35 19.13c-4.12 2.93 3.55 9.99 6.09 5.16 2.77-3.49-3.17-6.15-6.09-5.16m-16.96 11.1c-2.92 1.61-4.42 5.51-4.28 8.75 7.35 4.45 9.12-10.3 4.28-8.75z"/><path fill="#555b5c" opacity=".98" d="M174.96 90.99c5.4.04 9.68 4.39 12.34 8.72 4.69 3.82 11.17 3.08 16.77 3.97-3.98 4.52-10.6.49-13.33 6.07-2.47-.68-3.42-7.74-6.59-2.95-1.6-.47-3.59-1.27-3.24 1.32-2.76 1.4-4.32-3.68-7.1-1.21.65-3.74 4.99-10.98-1.7-10.18.25-2.84 5.99-1.09 2.85-5.74z"/><path fill="#21272f" opacity=".62" d="M139.72 92.7c3.07-1 6.3-.53 9.48-.53-2.85 1.69-6.37.37-9.48.53z"/><path fill="#6b7284" d="M155.29 93.27c1.89-.87 3.88.19 5.61.95 1.24 3.3-2.95 4.11-5.34 3.4-8.89 1.73-2.85-3.42-.27-4.35z"/><path fill="#282a2d" opacity=".74" d="M134.91 96.94l.93-1.17c.39 3.9.09 7.6-.92 11.09.05-3.32.02-6.61-.01-9.92z"/><path fill="#696e75" d="M190.74 109.75c2.73-5.58 9.35-1.55 13.33-6.07 1.96 1.39 4 2.84 5.27 4.94-10.81-4.55-6.86 14.81 1.93 11.71l-.34 2.49c-1.99 4.64.93 9.27 4.46 12.17l-.6 2.74c-2.98.61-2.7 2.9-1.9 5.26-1.27-.63-2.51-1.32-3.73-2.04-.15-2.79-5.88-4.46-4.04-6.42 5.51 1.82 1.9-6.23-1.91-5.6-.89 1.84-1.46 3.85-2.7 5.51 1.08-7.17-6.69-7.61-10.78-7 5.08-2.29 4.34-4.74-.3-6.89 1.74-4.81-4.69-6.49-3.79-.76-1.23 3.36-3.07 6.61-3.63 10.16 1.22 4.36 5.98 4.5 9.7 4.99-1 2.16-1.85 4.4-2.16 6.78-1.41 2.62 2.41 7.8-2.06 7.77-1.06-2.28-2.76.46-4.06 1.05-2.04-1.28.35-4.23-1.88-5.37-.93 1.5-1.89 3.13-3.9 2.29-3.64-2.54 4.79-8.33-.88-8.99-2.84-.01-5.49-3.13-2.47-5.14 2.68-1.99 5.8-10.8-.48-8.63.31-5.26 7.63.54 8.27-4.35-7.55 1.63-5.26-8.99-8.28-13.44 2.78-2.47 4.34 2.61 7.1 1.21-.2 2.18-1.85 5.51 1.69 5.35 4.49 2.37 2-4.03 1.55-6.67 3.17-4.79 4.12 2.27 6.59 2.95z"/><path fill="#9397a5" d="M180.91 108.12c-.35-2.59 1.64-1.79 3.24-1.32.45 2.64 2.94 9.04-1.55 6.67-3.54.16-1.89-3.17-1.69-5.35z"/><path fill="#666a81" d="M157.36 117.68c-5.01-7.85 9.56-14.52 13.4-9.76-9.43-3.43-6.38 4.33-8.62 9.01.16 2.81 1.99 4.64 4.59 5.42-1.31 1.98-8.17-1.54-9.37-4.67z"/><path fill="#5c6278" d="M144.19 108.1c9.16-.32 2.83 15.76-3.44 10.14-3.72-2.48 1.96-7.39 3.44-10.14z"/><path fill="#9498a1" d="M162.14 116.93c2.24-4.68-.81-12.44 8.62-9.01 3.09 4.45.84 11.9-4.03 14.43-2.6-.78-4.43-2.61-4.59-5.42z"/><path fill="#989cac" d="M211.27 120.33c-8.79 3.1-12.74-16.26-1.93-11.71.68 1.02 1.29 2.09 1.85 3.19l.08 8.52z"/><path fill="#828590" d="M185.64 119.79c-.9-5.73 5.53-4.05 3.79.76 4.64 2.15 5.38 4.6.3 6.89-3.65-.96-1.19-5.62-4.09-7.65z"/><path fill="#50575a" d="M182.01 129.95c.56-3.55 2.4-6.8 3.63-10.16 2.9 2.03.44 6.69 4.09 7.65 4.09-.61 11.86-.17 10.78 7l-2.64 6.11c-2.53 1.8-5.4 2.98-8.32 1.17.31-2.38 1.16-4.62 2.16-6.78-3.72-.49-8.48-.63-9.7-4.99z"/><path fill="#4a4a4f" opacity=".96" d="M210.93 122.82c5.63-.22 12.8 8.86 5.02 11.75l-.56.42c-3.53-2.9-6.45-7.53-4.46-12.17z"/><path fill="#7b8447" d="M203.21 128.93c3.81-.63 7.42 7.42 1.91 5.6-1.84 1.96 3.89 3.63 4.04 6.42-.39 1.68.95 5.5-1.95 4.51 2.52 6.21-10.81 6.64-4.11.89 1.53-1.15 2.39-2.72.13-3.59-1.59-1.15-3.5-1.68-5.36-2.21l2.64-6.11c1.24-1.66 1.81-3.67 2.7-5.51z"/><path fill="#686c78" d="M168.32 131.34c6.3 1.03-3.12 12.31-7.21 7.43-.53-4.04 3.63-6.79 7.21-7.43z"/><path fill="#5c606c" d="M215.39 134.99l.56-.42c6.84 5.6 12.17 12.66 14.33 21.34-.61 1.67-1.02 3.81.53 5.11l.93 1.19.29 2.71c-3.15-2.64-13.42 1.65-10.16-4.13 5.88 4.2 2.79-7.85-1.88-5.82-.47 2.21.52 4.16 1.88 5.82-2.53 3.06-6.31 3.21-10.03 3.45.89 1.78 5.12 4.15 1.08 4.72-3.12 1.14-2.99-1.79-3.22-4.03-2.91-.08-2.37 2.78-2.11 4.74-4.61 2.4-4.68 7.73-4.77 12.38l-2.75-1.43c1.01-7.36-5.96 1.54-10.34-1.1.68-3.22 3.62-1.9 5.95-1.68.76-3.58 1.42-7.26 3.36-10.44 1.99-1.53 4.34-3 3.96-5.9 2.67-1.46 5.62 5.06 6.09.34 2.99-8.02-10.16.97-11.87-4.97.83-6.15 9.79-1.32 11.7-7.01 2.61-5.19 2.39 5.91 6.08 2.19 1.51-2.73 5.33-3.99 5.98-6.91-5.21.51-7.66-2.25-6.19-7.41l.6-2.74z"/><path fill="#777e80" d="M212.89 142.99c-.8-2.36-1.08-4.65 1.9-5.26-1.47 5.16.98 7.92 6.19 7.41-.65 2.92-4.47 4.18-5.98 6.91-3.69 3.72-3.47-7.38-6.08-2.19-1.91 5.69-10.87.86-11.7 7.01 1.71 5.94 14.86-3.05 11.87 4.97-.47 4.72-3.42-1.8-6.09-.34-3.99-2.6-9.05 4.41-3.96 5.9-1.94 3.18-2.6 6.86-3.36 10.44-2.33-.22-5.27-1.54-5.95 1.68 4.38 2.64 11.35-6.26 10.34 1.1-3.33 1.62-4.51 5.76-6.26 8.8 4.43-1.15 14.45 7.32 10.24-1.19-1.98 1.51-4.16 1.52-5.94-.34 1.11-2.29 1.78-4.73 1.96-7.27l2.75 1.43c2.47 5.4 7.24 8.78 12.89 10.24 5.7 2.07-1.83 5.86-3.81 8.06-4.39 1.39-7.73-3.42-12.1-4.17 2.18 5.06 6.52 15.29-2.54 13.58.94-6.56-4.31 0-7.49-2.56-2.41-1.32-6.24 2.86-6.47-1.73 2.51-1.41 4.82-3.24 7.66-3.94-3.26-3.97-6.14-8.32-8.82-12.78l-.51-.64c4.92-5.9 1.68-14.51 4.58-22.14-1.27 1.28-2.36 3.28-4.45 2.33.54-6.14 5.26-11.07 5.47-17.31-1.26 2.43-2.64 1.37-3.8-.45 1.3-.59 3-3.33 4.06-1.05 4.47.03.65-5.15 2.06-7.77 2.92 1.81 5.79.63 8.32-1.17 1.86.53 3.77 1.06 5.36 2.21-1.64.97-3.45 3.82-.13 3.59-6.7 5.75 6.63 5.32 4.11-.89 2.9.99 1.56-2.83 1.95-4.51 1.22.72 2.46 1.41 3.73 2.04z"/><path fill="#b6bea1" d="M203.23 142.76c2.26.87 1.4 2.44-.13 3.59-3.32.23-1.51-2.62.13-3.59z"/><path fill="#58606b" d="M181.55 145.17c2.23 1.14-.16 4.09 1.88 5.37 1.16 1.82 2.54 2.88 3.8.45-.21 6.24-4.93 11.17-5.47 17.31l-1.81-6.25c1.25-1.69 2.72-3.58 1.94-5.82-2.61-3.34-5.35 4.27-2.86 6.11-2.32.53-4.19 1.92-5.88 3.52-5.28-4.14-.01-10.44 5.17-11.57 3.57-.96.8-5.05-.67-6.83 2.01.84 2.97-.79 3.9-2.29z"/><path fill="#555b68" d="M155 152.01c3.79-.69 11.5-.34 11.97 4.81-3.35 1.2-8.41 7.98-8.24.52-3.08-.17-4.52-2.4-3.73-5.33z"/><path fill="#828a7d" d="M179.03 162.34c-2.49-1.84.25-9.45 2.86-6.11.78 2.24-.69 4.13-1.94 5.82l-.92.29z"/><path fill="#9397a8" d="M219.99 154.97c4.67-2.03 7.76 10.02 1.88 5.82-1.36-1.66-2.35-3.61-1.88-5.82z"/><path fill="#565a6f" d="M125.5 165.21c-.1-4.75 7.38-12.54 9.61-5.07-.97 3.91.31 7.37 1.87 10.76-2.22 4.3-7.07 2.82-10.18.34l-.68-.39-.27-2.72-.35-2.92z"/><path fill="#303136" d="M135.11 160.14c1.13-4.75 2.9 2.16 5.07.05 3.43-3.04 1.96 4.21 4.76 4.94 2.66 1.55 5.77-2.41 8.21-.32 2.11 2.3 5.51 3.84 6 7.24-2.21-1.55-9.66-3.83-7.34 1.13 4.4 3.84-1.01 9.19-5.99 7.5-.1 4.84-5.3 7.18-9.53 7.49-1.07 1.85-1.6 4.39-4.32 3.91.81-3.12 4.29-8.18-.67-9.36.88-4.18-3.52-7.56-4.5-11.48 3.11 2.48 7.96 3.96 10.18-.34-1.56-3.39-2.84-6.85-1.87-10.76z"/><path fill="#9699a7" d="M199.04 167.4c-5.09-1.49-.03-8.5 3.96-5.9.38 2.9-1.97 4.37-3.96 5.9z"/><path fill="#3d404d" d="M211.84 164.24c3.72-.24 7.5-.39 10.03-3.45-3.26 5.78 7.01 1.49 10.16 4.13l.81.24c2.42.58 3.52 2.58 4.28 4.76-1.36 6.16-6.8-.93-9.86-1.57-4.69-.76-4.45 9.17-8.84 4.03-2.96 1.68-4.67 5.02-4.63 8.38 2.93-2.47 6.82 1.92 4.2-3.34 3 .59 7.71-1.38 5.8 3.49-3.38 3.1-4.46 7.59-2.54 11.85 2.77 1.42 5.97.42 8.94.95l-.19 2.28-3.9-.71c-2.67-1.08-4.91.64-6.68 2.45-2.62 1.41.46 7.76-2.94 6.94-.29-2.98-3.77-1.65-4.58-4.32 1.98-2.2 9.51-5.99 3.81-8.06-5.65-1.46-10.42-4.84-12.89-10.24.09-4.65.16-9.98 4.77-12.38-.26-1.96-.8-4.82 2.11-4.74.23 2.24.1 5.17 3.22 4.03 4.04-.57-.19-2.94-1.08-4.72z"/><path fill="#585d6f" d="M155.88 162.01c2.5-.83 2.46 2.39 4.24 2.95 2.53.52 2.15-3.87 4.88-3-.92 2.47 1.18 9.15-2.95 8-3.26-.9-4.6-5.28-6.17-7.95z"/><path fill="#37383f" opacity=".98" d="M232.84 165.16l7.37-.25c9.08.86 17.89 3.93 24.64 10.31.69 3.84.18 7.93-2.71 10.73-5.72 2.99-11.07 8.4-17.9 7.9-4.08-.66-8.38-1.34-12.43-.21l-.78.15-.84-.08c-2.97-.53-6.17.47-8.94-.95-1.92-4.26-.84-8.75 2.54-11.85 1.99 8.12 11.19-2.08 12.93 5.26.53 1.52.75 3.51 2.58 4-.01-2.87 2.86-7.78 5.45-3.93 1.57 2.01 1.59-.97 2.05-2.1 3.19-1.43 7.66 2.25 9.99-2.36 4.89-3.86-1.44-11.6-6.59-9.59l-2.71-5.08c-3.5.8-7.03 1.51-10.37 2.81-.76-2.18-1.86-4.18-4.28-4.76z"/><path fill="#596268" d="M181.76 168.3c2.09.95 3.18-1.05 4.45-2.33-2.9 7.63.34 16.24-4.58 22.14-1.05-1.12-2.6-2.93-.77-4.17 4.02-2.42 3.25-10.92-1.86-6.21-2.58-4.03 5.39-4.89 2.76-9.43z"/><path fill="#515463" d="M247.49 167.11l2.71 5.08c-2.72 4.68-8.01.27-11.99-.15-1.74 3.52-.69 8.19-.09 12.03 3.3-1.48 6.01-3.62 8.68.07-.46 1.13-.48 4.11-2.05 2.1-2.59-3.85-5.46 1.06-5.45 3.93-1.83-.49-2.05-2.48-2.58-4-1.74-7.34-10.94 2.86-12.93-5.26 1.91-4.87-2.8-2.9-5.8-3.49 2.62 5.26-1.27.87-4.2 3.34-.04-3.36 1.67-6.7 4.63-8.38 4.39 5.14 4.15-4.79 8.84-4.03 3.06.64 8.5 7.73 9.86 1.57 3.34-1.3 6.87-2.01 10.37-2.81z"/><path fill="#72737f" d="M238.21 172.04c3.98.42 9.27 4.83 11.99.15 5.15-2.01 11.48 5.73 6.59 9.59-2.33 4.61-6.8.93-9.99 2.36-2.67-3.69-5.38-1.55-8.68-.07-.6-3.84-1.65-8.51.09-12.03z"/><path fill="#6e7676" d="M171.23 181.14c2.92-.99 8.86 1.67 6.09 5.16-2.54 4.83-10.21-2.23-6.09-5.16z"/><path fill="#93989c" d="M193.81 189.42c1.75-3.04 2.93-7.18 6.26-8.8-.18 2.54-.85 4.98-1.96 7.27 1.78 1.86 3.96 1.85 5.94.34 4.21 8.51-5.81.04-10.24 1.19z"/><path fill="#65696f" d="M182.14 188.75c2.68 4.46 5.56 8.81 8.82 12.78-2.84.7-5.15 2.53-7.66 3.94.23 4.59 4.06.41 6.47 1.73 3.18 2.56 8.43-4 7.49 2.56 9.06 1.71 4.72-8.52 2.54-13.58 4.37.75 7.71 5.56 12.1 4.17.81 2.67 4.29 1.34 4.58 4.32 3.4.82.32-5.53 2.94-6.94 1.3 6.23 6.18 1.35 6.68-2.45 1.3.21 2.6.47 3.9.71l.24 12.25c-1.1 4.46-2.41 9.04-5.07 12.86 1.5-5.94-3.45-1.8-6.89-2.98.56 3.54-1.44 8.88 4.03 6.25-4.48 5.03-8.25 10.88-3.03 16.44-3 4.03-1.42 8.89.46 13.02-2.56 4.78-9.25 6.18-13.61 3.06-2.61-2.73-1.93-6.25 1.94-7.82 6.26-.42-1.22-9.08 4.96-6.19-1.61-2.94-3.38-8.12 1.04-4.03-1.17-4.05 1.31-7.27 2.06-10.95-3.48.01-3.25 5.48-6.9 4.99l-2.28-1.32c2.84-1.75 6.75-3.65 7.07-7.41-1.99-2.35-8.37-.29-7.3 2.98 1.93 5.4-5.65.28-7.73 3.8-2.62 2.01-2.68 6.12-.99 8.8-5.37-2.21-3.37 8.6-7.33 3.55-2.88-2.93 5.07-5.89-.08-7.79 1.29-3.44-.7-8.32 2.39-12.54-2.3.36-7.43 4.1-5.55-.6 1.67-4.89-3.62-.73-3.6 1.95-2.54-1.6-5.72-1.89-7.62.8.88-2.54.08-5.05-.97-7.4 3.27-.9 5.61 2.12 8.69 2.5 2.33-4.37-2.8-5.02-3.04-8.31 4.97-1.17 4.66 2.68 5.06 6.01 2.86-3.61 10.84-.68 9.06-6.86-4.57 2.28-8.89.55-12.92-1.63-3.95-3.16-4.02 3.09-2.12 5.44-2.15 2.63-5.83.48-4.5-2.65-5.55.63-3.03-4.26.31-5.58 1.34-2.85-2.92-2.33-2.94-4.82a71.84 71.84 0 0 0-.59-3.9c5.49 5.35 3.95-5.62 9.55-4.02-2.29-1.56-1.86-3.74.34-5.14m.16 7.54c-2.96-.26-3.61 5.91-.29 4.74 3.84 1.18 4.03-6.16.29-4.74m26.88 5.81c-1.87 2.95 1.95 5.47-.3 8.66 3.87 0 6.13-.64 7.2-4.71-4.85 3.11-2.14-5.92-6.9-3.95m-.14 10.88c3.86 3.65-6.23 8.35-1.48 8.68 1.46-4.51 7.74-3.4 9.38-7.52-1.83-2.37-5.76-.3-7.9-1.16z"/><path fill="#616879" d="M154.27 192.24c4.84-1.55 3.07 13.2-4.28 8.75-.14-3.24 1.36-7.14 4.28-8.75z"/><path fill="#686f82" d="M168.23 192.11c3.88-1.66 5.61 2.83 4.02 5.8-3.28 1.06-7.44-3.35-4.02-5.8z"/><path fill="#34363d" d="M131.15 208.91c-3.55-3.69-6.2-8.67-4.6-14 4.13 2.03 6.17 3.36 6.24 9.33 5.81 7.2 5.43-10.42 12.13-6.12-2.82 4.3-4.42 9.25-7.91 13.01-1.25 4.6 4.07 3.89 6.71 2.67 3.84-2.15-.19 7.81 4.28 6.24 4.81.05 3.1-5.39 1.88-8.15 2.83.36 6.52 3.61 4.58 6.63-3.28 4.63 2.39 9.81 5.8 12.28 1.63.85 3.34 1.55 5.05 2.22a83.34 83.34 0 0 1-2.99 2.25l-6.92-3.54c-7.09-9.73-13.53 5.55-12.45 12.28-.21 8.89 8.72 12.89 16 15.17 4.31 2.49 9.78-4.6 12.68.18 2.07 5.27 11.08-2.62 8.48 4.68-3.25 1.02-10.19.58-9.56 5.25-9.96-1.52-17.65-8.19-26.54-12.27-2.16-2.66-3.78-5.7-5.15-8.82l-.66-6.35-.09-.93-.06-.97-.03-1.89c2.6-10.59-7.23-18.71-6.87-29.15z"/><path fill="#8e9090" d="M219.42 197.73c1.77-1.81 4.01-3.53 6.68-2.45-.5 3.8-5.38 8.68-6.68 2.45z"/><path fill="#9a9ea2" d="M182.3 196.29c3.74-1.42 3.55 5.92-.29 4.74-3.32 1.17-2.67-5 .29-4.74z"/><path fill="#5b615f" d="M162.67 200.65c3.19-2.62 4.35 2.11 5.59 4.28 2.55.8 4.21-.65 4.58-3.12.02 2.49 4.28 1.97 2.94 4.82-3.34 1.32-5.86 6.21-.31 5.58-1.33 3.13 2.35 5.28 4.5 2.65-1.9-2.35-1.83-8.6 2.12-5.44l-1.2 2.48c.24 3.29 5.37 3.94 3.04 8.31-3.08-.38-5.42-3.4-8.69-2.5-2.02-3.49-11.25-5.44-7.24 2.26.77 4.33 4.32 11.82 8.21 5.14 1.9-2.69 5.08-2.4 7.62-.8 3.87 3 3.23 5.26-1.68 5.64 2.5 3.23 1.4 6.46-2.16 8.19 4.65-4.36-4.61-10.61-4.71-3.45 1.31 4.72.64 9.91-5.35 9.43 3.96-3.7.4-11.28-4.62-11.1-1.71-.67-3.42-1.37-5.05-2.22-.98-5.05-6.97-9.8-2.28-14.77 1.77-4.43 8.17-1.27 11.37-2.31-1.24-2.51-7.71-1.7-5.44-4.89 2.98-3.01-4.67-4.92-1.24-8.18z"/><path fill="#7f818b" d="M209.18 202.1c4.76-1.97 2.05 7.06 6.9 3.95-1.07 4.07-3.33 4.71-7.2 4.71 2.25-3.19-1.57-5.71.3-8.66z"/><path fill="#8b8f97" d="M180.89 211.9l1.2-2.48c4.03 2.18 8.35 3.91 12.92 1.63 1.78 6.18-6.2 3.25-9.06 6.86-.4-3.33-.09-7.18-5.06-6.01z"/><path fill="#888c92" d="M209.04 212.98c2.14.86 6.07-1.21 7.9 1.16-1.64 4.12-7.92 3.01-9.38 7.52-4.75-.33 5.34-5.03 1.48-8.68z"/><path fill="#888894" d="M168 219.97c-4.01-7.7 5.22-5.75 7.24-2.26 1.05 2.35 1.85 4.86.97 7.4-3.89 6.68-7.44-.81-8.21-5.14z"/><path fill="#8e8f94" d="M218.28 218.12c3.44 1.18 8.39-2.96 6.89 2.98-.87 1.16-1.88 2.2-2.86 3.27-5.47 2.63-3.47-2.71-4.03-6.25z"/><path fill="#777b81" d="M183.83 224.31c-.02-2.68 5.27-6.84 3.6-1.95-1.88 4.7 3.25.96 5.55.6-3.09 4.22-1.1 9.1-2.39 12.54 5.15 1.9-2.8 4.86.08 7.79 3.96 5.05 1.96-5.76 7.33-3.55 2.16 1.64 3.16 4.99 6.09 5.35.33-3-3.42-4.03-3.68-6.83-1.17-3.66 3.18-6.87 6.54-6.69l2.28 1.32c-2.9-.15-6.03 2.03-6.31 5 1.72 1.37 4.7 5.83 6.35 2.39 1.69-1.99-.25-5.02-.04-7.39 3.65.49 3.42-4.98 6.9-4.99-.75 3.68-3.23 6.9-2.06 10.95-4.42-4.09-2.65 1.09-1.04 4.03-6.18-2.89 1.3 5.77-4.96 6.19-3.87 1.57-4.55 5.09-1.94 7.82-3.61 2.91-4.3-4.42-7.33-5.73-3.01 1.13-8.56 1.27-7.21 5.61-1.87 3.48-5.2-1.87-7.7 1.03-5.31-2.23-1.39-12.61-10.15-8.02.94-2.41 4.11-2.29 5.98-3.76-1.95-3.61-2.09-7.94-4.44-11.33.1-7.16 9.36-.91 4.71 3.45 3.56-1.73 4.66-4.96 2.16-8.19 4.91-.38 5.55-2.64 1.68-5.64z"/><path fill="#4d5056" d="M206.72 227.14c-1.07-3.27 5.31-5.33 7.3-2.98-.32 3.76-4.23 5.66-7.07 7.41-3.36-.18-7.71 3.03-6.54 6.69.26 2.8 4.01 3.83 3.68 6.83-2.93-.36-3.93-3.71-6.09-5.35-1.69-2.68-1.63-6.79.99-8.8 2.08-3.52 9.66 1.6 7.73-3.8z"/><path fill="#383c44" d="M285.28 226.36c2.18-.44 4.28-1.14 6.44-1.67l7.33.3c2.47 6.54-4.8.46-7.96 3.28-2.7 7.14 5.42 5.51 9.19 5.02-5.31 4.44-13.05 1.32-18.39 5.3-2.07-3.93-6.45-.85-9.6-2.87-3.3-2.16-7.52 2.67-5.99 5.94.84 3.24 2.55 6.2 3.11 9.53-.71 3.37-1.53 6.74-2.77 9.96-5.43 6.47 6 10.7 10.16 5.48-3.87-2.51-2.64-10.51-1.4-2.62 5.82-2.97 12.45-3.59 18.59-6.02 1.13 3.65-3.3 2.39-5.34 3.6-4.09.47 1.95 8.24-3.47 7.19-5.64-4.32-4.73 4.54-6.26 8.2-3.33.25-3.21 2.69-1.03 4.61-5.99-4.62-12.67-7.11-20.61-7.41l-1.81-4.63c3.3-2.01 11.82-6.97 5.3-9.48-.93-1.54-1.12-3.41-1.7-5.1 1.91-2.27 1.92-5.23 1.97-8.09-2.37.53-2.62 3.67-5.1 4.24-.65-2.92 1.43-4.88 3.24-6.77-2.23.59-3.65-.32-4.25-2.5 4.63-5.04 11.6-9.76 18.8-9.12 1.21-2.94 3.06-5.38 6.51-5.45 1.69-.26 3.38-.53 5.04-.92m-7.35 3.67c-.78 5.92 6.61 6.53 9.13 3.86 1.23-5.43-6.31-3.92-9.13-3.86m-14.92 38.96l.02 5.07c5.66 1.15 6.29-7.22-.02-5.07z"/><path fill="#5b5e64" opacity=".98" d="M299.05 224.99l3.95.02c1.68 3.01.82 7.17-2.72 8.28-3.77.49-11.89 2.12-9.19-5.02 3.16-2.82 10.43 3.26 7.96-3.28z"/><path fill="#292a31" opacity=".96" d="M249.06 241c7.76-5.72 15.32-11.75 24.88-14.31l6.3.59c-3.45.07-5.3 2.51-6.51 5.45-7.2-.64-14.17 4.08-18.8 9.12-1.2.46-2.41.88-3.63 1.26-8.81 3.13-22.31 5.65-22.83 16.76l-1.82.05-.45-2.12c.24-2.49-1.63-2.89-3.66-3.04.27-2.54.11-5.08-.55-7.55 9.08-1.76 17.71-5.39 27.07-6.21z"/><path fill="#585e5a" d="M142.95 244.01c-1.08-6.73 5.36-22.01 12.45-12.28-1.27 6.96-2.93 13.86-3.2 20.96 1.3 2.53 4.38 3.01 6.55 1.27-.42 3.17.95 4.76 4.17 4.09.13 1.88-2.81.66-3.97 1.13-7.28-2.28-16.21-6.28-16-15.17z"/><path fill="#5d5f6b" d="M277.93 230.03c2.82-.06 10.36-1.57 9.13 3.86-2.52 2.67-9.91 2.06-9.13-3.86z"/><path fill="#68714c" d="M155.4 231.73l6.92 3.54-.49 1.19-4.77 8.53c2.59 1.86 5.53-.97 7.92-2.02-1.62 3.46-.5 4.25 3 3.06 1.43 5.02-5.61.33-4.81 6.03-1.75-.02-3.38.39-4.42 1.9-2.17 1.74-5.25 1.26-6.55-1.27.27-7.1 1.93-14 3.2-20.96z"/><path fill="#4b4f59" d="M165.31 233.02c5.02-.18 8.58 7.4 4.62 11.1 5.99.48 6.66-4.71 5.35-9.43 2.35 3.39 2.49 7.72 4.44 11.33-1.87 1.47-5.04 1.35-5.98 3.76 8.76-4.59 4.84 5.79 10.15 8.02 2.5-2.9 5.83 2.45 7.7-1.03-1.35-4.34 4.2-4.48 7.21-5.61 3.03 1.31 3.72 8.64 7.33 5.73 4.36 3.12 11.05 1.72 13.61-3.06-1.88-4.13-3.46-8.99-.46-13.02.94 2.12 1.79 4.28 2.71 6.4.66 2.47.82 5.01.55 7.55 2.03.15 3.9.55 3.66 3.04-1.4 5.88-6.88-2.14-7.18 3.26.33 3.89-3.08-1.08-4.89-1.35.7 2.86 1.47 5.73 2.62 8.46-1.73-.81-4.72-.68-4.73-3.18-.18-4.49-10.84-2.42-6.78 1.72.68 4.67 5 1.94 7.45 3.03-3.11 4.8-5.76 1.18-9.75.09 5.4 2.54 4.19 11.42-1.82 11.17-2.86-1.31-5.05-5.67-8.05-2.12 1.88-3.3-.64-6.42-4.3-6.01l.45-.48c3.11-2.5 7.39-8.11 2.18-10.81-2.28-.62-4.59 1.32-6.68 2.17-1.54.12-3.07.19-4.61.29 2.6-7.3-6.41.59-8.48-4.68-2.9-4.78-8.37 2.31-12.68-.18 1.16-.47 4.1.75 3.97-1.13.15-2 .17-3.99.25-5.99-.8-5.7 6.24-1.01 4.81-6.03-3.5 1.19-4.62.4-3-3.06.01-2.43-.58-5.59-3.15-6.51l.49-1.19a83.34 83.34 0 0 0 2.99-2.25z"/><path fill="#adb2b0" d="M202.92 237.89c.28-2.97 3.41-5.15 6.31-5-.21 2.37 1.73 5.4.04 7.39-1.65 3.44-4.63-1.02-6.35-2.39z"/><path fill="#585b65" d="M266.3 241.66c-1.53-3.27 2.69-8.1 5.99-5.94 3.15 2.02 7.53-1.06 9.6 2.87l2.39 2.48c.05 3.14-2.52 4.72-5.21 5.43 2.12 2.04 4.96 6.01-.22 6 2.29.85 6.66 5.92 7.24 1.44 4.3-2.69-1.07-4.72-1.27-7.82 8.56 1.09 16.9-1.25 25.3-2.22 1.18 4.12-.85 7.3-4.11 9.29-3.67-2.5-7.22-.4-10.76 1.04-.76-2.36-1.97-8.9-5.13-4.94-2.32 4.96.28 5.79 3.57 5.6 3.13.85 8.63-1.4 9.22 3.29.44 2.24-1.16 3.22-3.03 3.86-2.72-.9-3.69 1.78-2.72 3.92-2.68 2.76-6.06 4.49-6.2 8.96-1.23.42-2.45.85-3.66 1.32 5.09-4.64-.91-7.47-6.35-6.26-.35 3.78 4.74 10.45-2.03 7 1.53-3.66.62-12.52 6.26-8.2 5.42 1.05-.62-6.72 3.47-7.19 2.04-1.21 6.47.05 5.34-3.6-6.14 2.43-12.77 3.05-18.59 6.02-1.24-7.89-2.47.11 1.4 2.62-4.16 5.22-15.59.99-10.16-5.48 5.9 1.26 9.61-9.23 5.62-13.3-1.55-2.2-1.96 2.29-2.85 3.34-.56-3.33-2.27-6.29-3.11-9.53z"/><path fill="#7c8372" d="M157.06 244.99c1.36-2.96 3.06-5.76 4.77-8.53 2.57.92 3.16 4.08 3.15 6.51-2.39 1.05-5.33 3.88-7.92 2.02z"/><path fill="#30323b" opacity=".98" d="M284.28 241.07c1.72.94 3.49 1.91 5.47 2.19 3.54.31 7.95 1.88 11.24-.3 2.71-1.52 7.64-2.59 9.13.94-8.4.97-16.74 3.31-25.3 2.22.2 3.1 5.57 5.13 1.27 7.82-.58 4.48-4.95-.59-7.24-1.44 5.18.01 2.34-3.96.22-6 2.69-.71 5.26-2.29 5.21-5.43z"/><path fill="#5b5f65" d="M251.3 243.11l3.63-1.26c.6 2.18 2.02 3.09 4.25 2.5-1.81 1.89-3.89 3.85-3.24 6.77 2.48-.57 2.73-3.71 5.1-4.24-.05 2.86-.06 5.82-1.97 8.09-2.65-.7-5.84-.17-7.89-2.17.7-2.51.43-5.42-2.97-4.86 1.17-1.53 2.48-2.97 3.09-4.83z"/><path fill="#41454e" d="M228.47 259.87c.52-11.11 14.02-13.63 22.83-16.76-.61 1.86-1.92 3.3-3.09 4.83l-.59 2.93c-1.19.36-2.97-.25-3.69.99-1.98 2.23-2.75 5.16-3.23 8.04-2.97-2.69-9.36-4.96-10.08.63 2.04 8.75-6.07 2.9-3.97-.61l1.82-.05z"/><path fill="#8c8e95" d="M269.41 251.19c.89-1.05 1.3-5.54 2.85-3.34 3.99 4.07.28 14.56-5.62 13.3 1.24-3.22 2.06-6.59 2.77-9.96z"/><path fill="#727577" d="M248.21 247.94c3.4-.56 3.67 2.35 2.97 4.86 2.05 2 5.24 1.47 7.89 2.17.58 1.69.77 3.56 1.7 5.1 6.52 2.51-2 7.47-5.3 9.48a87.02 87.02 0 0 0-2.28 1.41c-2.74 1.41-4.58 3.81 0 3.3-2.98 3.48-9.41 4.03-5.35-1.54-3.75 1.04-4.99 4.98-7.82 7.19-2.1.58-4.12 1.42-6.19 2.07.73-3.2 5.36-4.07 5.15-7.79-1.93-1.17-4.1-1.22-6.14-.34-7.9 3.2-7.4-3.88-4.7-7.78 2.54-.08.67 5.89 4.11 4.54 2.97-1.23 3.4-3.33-.42-1.93-.9-3.74 4.66-6.73 7.04-3.61 2.45 2.51 2.16-1.57 2.78-3.27 4.06 3.39 6.53-1.84 8.61-4.63 3-2.3-2.05-3.88-2.64-6.3l.59-2.93z"/><path fill="#777e85" d="M290.12 249.29c3.16-3.96 4.37 2.58 5.13 4.94l-1.56.66c-3.29.19-5.89-.64-3.57-5.6z"/><path fill="#888b97" d="M243.93 251.86c.72-1.24 2.5-.63 3.69-.99.59 2.42 5.64 4 2.64 6.3-2.08 2.79-4.55 8.02-8.61 4.63.72-3.32 1.78-6.57 2.28-9.94z"/><path fill="#34343b" opacity=".93" d="M295.25 254.23c3.54-1.44 7.09-3.54 10.76-1.04-1.85 1.14-3.43 2.59-3.1 4.99-.59-4.69-6.09-2.44-9.22-3.29l1.56-.66z"/><path fill="#727a84" d="M158.75 253.96c1.04-1.51 2.67-1.92 4.42-1.9l-.25 5.99c-3.22.67-4.59-.92-4.17-4.09z"/><path fill="#63676f" d="M240.7 259.9c.48-2.88 1.25-5.81 3.23-8.04-.5 3.37-1.56 6.62-2.28 9.94-.62 1.7-.33 5.78-2.78 3.27-2.38-3.12-7.94-.13-7.04 3.61 3.82-1.4 3.39.7.42 1.93-3.44 1.35-1.57-4.62-4.11-4.54-2.7 3.9-3.2 10.98 4.7 7.78.04 4.55-.78 8.99-4.91 11.4l-.83.18c-2.53-1.45-3.52-3.76-2.43-6.52-1.14-2.4-13.44 1.42-9.3-4.52 1.8-2.25-2.34-2.67-2.68-4.65-2.45-1.09-6.77 1.64-7.45-3.03-4.06-4.14 6.6-6.21 6.78-1.72.01 2.5 3 2.37 4.73 3.18-1.15-2.73-1.92-5.6-2.62-8.46 1.81.27 5.22 5.24 4.89 1.35.3-5.4 5.78 2.62 7.18-3.26l.45 2.12c-2.1 3.51 6.01 9.36 3.97.61.72-5.59 7.11-3.32 10.08-.63z"/><path fill="#8f929d" d="M184.72 263.75c2.09-.85 4.4-2.79 6.68-2.17 5.21 2.7.93 8.31-2.18 10.81-2.88-1.48-1.82-6.31-4.5-8.64z"/><path fill="#5b6346" d="M170.55 269.29c-.63-4.67 6.31-4.23 9.56-5.25l4.61-.29c2.68 2.33 1.62 7.16 4.5 8.64l-.45.48c-3.34.34-6.67.68-9.96 1.35-2.89-1.4-5.68-3.01-8.26-4.93z"/><path fill="#737b69" d="M263.01 268.99c6.31-2.15 5.68 6.22.02 5.07l-.02-5.07z"/><path fill="#363940" d="M202.94 269.83c3.99 1.09 6.64 4.71 9.75-.09.34 1.98 4.48 2.4 2.68 4.65-4.14 5.94 8.16 2.12 9.3 4.52-1.09 2.76-.1 5.07 2.43 6.52l-2.85.66c-2.49.7-6.56-.19-7.55 2.86-2.21-.18-3.78-1.98-5.64-2.98-3.81-1.44-8.13-.64-12.14-.92-3.88-1.85-7.07-5.66-11.73-5.16-2.94-1.67-5.77-3.52-8.38-5.67 3.29-.67 6.62-1.01 9.96-1.35 3.66-.41 6.18 2.71 4.3 6.01 3-3.55 5.19.81 8.05 2.12 6.01.25 7.22-8.63 1.82-11.17z"/><path fill="#5c623f" opacity=".95" d="M253.19 270.96l2.28-1.41 1.81 4.63c-4.72 4.16-10.73 7.32-17.26 5.73 2.83-2.21 4.07-6.15 7.82-7.19-4.06 5.57 2.37 5.02 5.35 1.54 1.31-.68-.03-2.24 0-3.3z"/><path fill="#727c82" d="M280.95 269.98c5.44-1.21 11.44 1.62 6.35 6.26-.96 2.08-1.98 4.24-4.1 5.38-1.5-1.34-3.81-1.34-5.31-.03-2.18-1.92-2.3-4.36 1.03-4.61 6.77 3.45 1.68-3.22 2.03-7z"/><path fill="#e4e7d6" d="M253.19 274.26c-4.58.51-2.74-1.89 0-3.3-.03 1.06 1.31 2.62 0 3.3z"/><path fill="#41444d" opacity=".96" d="M232.84 273.85c2.04-.88 4.21-.83 6.14.34.21 3.72-4.42 4.59-5.15 7.79l6.19-2.07-1.12 1.98c-3.51 1.53-7.14 2.88-10.97 3.36 4.13-2.41 4.95-6.85 4.91-11.4z"/><path fill="#32373c" opacity=".65" d="M277.89 281.59c1.5-1.31 3.81-1.31 5.31.03l-5.31-.03z"/><path fill="#181b21" opacity=".6" d="M198.92 285.05c4.01.28 8.33-.52 12.14.92-4.04-.24-8.26.35-12.14-.92z"/><path fill="#737879" opacity=".94" d="M216.7 288.95c.99-3.05 5.06-2.16 7.55-2.86-1.65 2.65-4.54 3.55-7.55 2.86z"/></svg>