<svg xmlns="http://www.w3.org/2000/svg" width="512" height="512" viewBox="0 0 384 384" xmlns:v="https://vecta.io/nano"><path fill="#5e6374" opacity=".95" d="M176.9 87.99c3.5-1.41 7.84-1.69 11.22.23-2.63-1.17-10.78 5.91-11.28.75l.06-.98z"/><path fill="#444955" d="M188.12 88.22c2.78 1.65 5.75 2.88 8.85 3.82-6.45-.87 2.82 5.8.32 9.69 4.72 2.72 7.02-.31 7.9-4.82l1.98 2.81c-3.88-.25-3.29 6.73.47 5.94 1.86.56 6.12-.88 5.26 2.21-3.48 2.64-10.33-3.68-10.18 2.22-.36-4.25-4.34-3.06-6.74-1.19-1.27.62-2.37 1.53-3.47 2.4-1.36-3.19.56-8.4 4.68-6.6-2.33-2.43-4.88-5.12-3.44-8.74-4.85-.42-2.9 7.26-5.59 10.17-3.61 5.38 6.69 17.53-1.74 19.18.29 2.42-.53 4.66-1.4 6.86 2.6-.4 3.54-6.7 6.47-3.12-1.83 3.44-5.1 8.73-3.56 13.66-3.63-2.2-7.05 6.02-1.95 5.36 3.43.25 3.42-8.24 6.97-4.94-2.2 3.19-1.99 11.89 3.02 8.46 2.1 2.42-.37 7.47-4.09 7.3-3.71 1.28-6.22 6.4-4.32 10.07 2.6.84 3.71-1.82 5.29-3.26l2.98.42 1.88 5.07c3.55 2.31-6.12 11.26.09 8.63 1.88-1.76 2.19 1.79 2.7 3.01-1.83 4.31-8.77-.35-12.75 1.72-2.17 2.31-.07 5.41 2.24 6.69 2.97 1.38 2.32 4.65-.93 4.92-1.42-.07-2.83-.08-4.24-.03-2.59 1.35.09 7.86-4.8 7.09-3.74 3.07 3.63 6.77.81 10.76-5.07-1.91-8.38 4.8-13.65 2.04.56 2.92 1.92 6.91-2.52 6.67-4.49 2.06-4.56-3.42-4.14-6.47-3.19.11-6.35.41-9.33 1.62-4.58-4.25 3.48-9.3 6.9-5-3.16-5.31 2.71-7.8 1.84-13.04-6.29-.89-6.21 10.84-12.19 8.49-4.05-1.68-1.94-6.76-3.9-9.96-3.74 1.45-7.06-1.76-7.21-5.48.73-2.15 2.11-3.99 3.43-5.8 2 .31 4.09.3 5.99 1.09-.15 2.57-1.89 4.77-1.88 7.34 4.02.68 3.07 5.55 4.1 8.52 5.98-3.28 4.48-16.35 13.13-15.46 5.02 1.16-4.75-5.51.64-5.26 3.18 1.19 7.85.22 6.96-4.13-.68-1.98-4.77-3.03-1.79-5.04 4.8-1.98 4.21 3.62 6.49 6.07.45-2.26 2.25-5.06.19-7.03-.92-2.05-5.08-1.94-2.15-4.17-6.39-4.17-4.25-16.26-12.81-17.06 1.16 5.54 6.48 9.37 7.09 14.92-4.15.91-10.58 1.62-8.25-4.5-5.05-1.4-2.94-9.64-7.46-9.29.87 3.64-.82 6.4-3.41 8.42l-2.12-2.7c.43-2.45-2.42-9.6 2.17-9.85-.73 2.36-.78 6.12 1.95 3.07.9-4.34 4.57-2.21 7.25-.96-.58-3.32-4.36-4.61-6.24-7.13 1.41-3.8 3.68-8.63 8.58-8.55-.31-6.33 8.04-7.2 7.38-13.06a22.32 22.32 0 0 0-6.71-2.43c1.35-2.85 3.6-7.52.59-9.75-6.16-1.42-11.34 12.41-2.71 11.04-5.13 5.67-7.6-1.29-12.71-2.62-.28-1.2-.46-2.42-.54-3.66.56-1.74 1.34-3.39 2.12-5.03 3.08-1.81 6.12-3.76 8.76-6.18.05-4.63.93-9.46 5.44-11.64 5.74.02 11.65-.05 16.73-3.05.5 5.16 8.65-1.92 11.28-.75m-18.83 6.05c-1.78.97-4.49 2.07-4.28 4.49 3.29.84 6.72 1.52 9.94.01.16-2.59-3.43-4.78-5.66-4.5m.16 22.13c-2.04 5.7 8.88 11.28 11.49 7.71 4.1-2.51 5.84-12.94-.01-14.3-2.92-2.37-11.83 1.06-11.48 6.59m11.84 17.95c-3.35.63-7.51 3.51-6.13 7.42 2.28 2.75 6.15-.92 8.63-2.1-.07-1.71.06-6.45-2.5-5.32m-9.1 20.74c-2.62 1.99-2.28 6.33 1.57 6.23-1.02 7.42 8.18-.16 7.14-4.07-2.78-1.05-5.64-2.63-8.71-2.16m-1.92 40.15c-2.76 1.69-5.95 6.84-3.08 9.64 2.53-.58 6.61-.32 6.57-3.85-.68-1.99-.35-6.78-3.49-5.79z"/><path fill="#606467" opacity=".98" d="M197.29 101.73c2.5-3.89-6.77-10.56-.32-9.69 2.75 1.57 6.11 2.41 8.22 4.87-.88 4.51-3.18 7.54-7.9 4.82z"/><path fill="#6a7083" d="M169.29 94.27c2.23-.28 5.82 1.91 5.66 4.5-3.22 1.51-6.65.83-9.94-.01-.21-2.42 2.5-3.52 4.28-4.49z"/><path fill="#62676e" d="M188.16 106.13c2.69-2.91.74-10.59 5.59-10.17-1.44 3.62 1.11 6.31 3.44 8.74-4.12-1.8-6.04 3.41-4.68 6.6-.24 3.5 1.75 6.17 5.48 5.82 1.56-3.34-.43-5.79-2.01-8.22 2.4-1.87 6.38-3.06 6.74 1.19-.15-5.9 6.7.42 10.18-2.22.86-3.09-3.4-1.65-5.26-2.21-3.76.79-4.35-6.19-.47-5.94l.74.5c1.06 1.39 3.37 1.5 4.14-.25 2.04.08 4.09.26 6.07.82.9 1.34 1.07 4.38 3.29 3.77 5.25-2.78 6.23 2.42 7.39 5.63 2.55.91 5.06 1.93 7.17 3.69 1.74 2.49 4.48 4.88 4.05 8.23-3.77.73-8.03-2.19-11.16.84 1.1-3.18-2.07-3.74-4.34-4.57-1.09-3.15-1.45-9.55-6.23-9.23-6.27 7.69 1.8 18.07 10.57 13.8 3.02 3.15 7.5 7.38 12.21 5.98 1.83 1.23 3.65 2.5 5.25 4.03a44.08 44.08 0 0 0-1.12 4.13l-.74.25c-4.46-3.55-10.72-2.35-15.56-5.12-2.32 1.03-3.37 3.3-1.99 5.59 3.6 5.57 8.06 10.69 10.4 17.05-.68 1.38-.86 3.23.53 4.25l.43 4.76c-.15 3.3-4.3 1.3-6.45 1.98.05-1.9 1.22-2.92 2.98-3.37.5-2.77-1.61-6.43-4.81-5.52-.57 2.33 2.79 7.18-1.08 7.13-2.28.01 1.03 1.4 1.39 2.02-5.67.18-6.51 1.14-2.26 2.92 3.34 2.5-4.24 4.86-4.25 1.13-1.56-4.83-3.21.97-2.07 3.33-5.18 1.54-3.25 8.38-3.91 12.66-.76-2.38.1-5.53-1.68-7.36 1.58 11.09-2.54 3.26-2.41.23-1.18 1.9-4.41 3.94-2.27 5.96-.55 3.97-3.18.43-3.53-1.73-2.02.41-4.76 3-5.96.14 7.78-.02 9.15-7.45 12.11-12.98 2.68-1.8 5.32-3.95 1.9-6.62-.91-3.86-10.58-.78-7.25-5.03.69-1.19 2.36-.01 3.45-.18-1.78-3.09-1.05-7.03-4.58-8.95 1.42-3.93-5.81-5.61-4.2-1.17 3.66 6.65-2.83 3.57-5.67 3.93.81 2.32 2.73 4 5.24 3.06-.75 5.59-3.65 10.45-5.25 15.74l-1.88-5.07c1.89-1.9 3.75-5.87.32-7.21-1.28 2.18-2.14 4.56-3.3 6.79-1.58 1.44-2.69 4.1-5.29 3.26-1.9-3.67.61-8.79 4.32-10.07 3.72.17 6.19-4.88 4.09-7.3-5.01 3.43-5.22-5.27-3.02-8.46-3.55-3.3-3.54 5.19-6.97 4.94-5.1.66-1.68-7.56 1.95-5.36-1.54-4.93 1.73-10.22 3.56-13.66-2.93-3.58-3.87 2.72-6.47 3.12.87-2.2 1.69-4.44 1.4-6.86 8.43-1.65-1.87-13.8 1.74-19.18m20.05 3.94c.62 5.43-5.87 3.61-5.15 7.77 2.59 1.28 7.17 2.34 5.01 6.15 5.45 1.43 1.66-5.08 2.4-8.37 1.92-1.91.48-6.31-2.26-5.55m-7.98 18.18c.65-4.34-5.72-1.92-3.85 1.47-6.21 8.44 12.32 4.41 8.5 12.17-2.37 4.11 3.95.4 6.15 1.87 1.07.28 2.13.59 3.18.94-10.16.21 3.65 18.32 8.01 8.6 5.62 5.03 1.55-5.21 7.8-3.49.24-3.93-7.66-3.01-4.19-8.78-3.26-.94-.56 4.18-3.61 4.22-3.29-4.05.14-11.84-5.96-13.07-1.16 1.35-2.32 2.69-3.41 4.09-.01-5.08-5.28-5.08-9.15-5.81 7.1-2.63-.38-6.73-.92-11.33-7.31-2.06-.87 5.82-2.55 9.12z"/><path fill="#282b1c" opacity=".62" d="M207.91 100.22c1.36-.39 2.74-.47 4.14-.25-.77 1.75-3.08 1.64-4.14.25z"/><path fill="#686c83" d="M169.45 116.4c-.35-5.53 8.56-8.96 11.48-6.59-1.59.31-4.95-.15-4.78 2.25.99 4.88-3.78 13.88 4.79 12.05-2.61 3.57-13.53-2.01-11.49-7.71z"/><path fill="#9094a2" d="M192.51 111.3c1.1-.87 2.2-1.78 3.47-2.4 1.58 2.43 3.57 4.88 2.01 8.22-3.73.35-5.72-2.32-5.48-5.82z"/><path fill="#9ca0ad" d="M218.29 109.15c4.78-.32 5.14 6.08 6.23 9.23 2.27.83 5.44 1.39 4.34 4.57-8.77 4.27-16.84-6.11-10.57-13.8z"/><path fill="#5d6279" d="M157.04 121.15c-8.63 1.37-3.45-12.46 2.71-11.04 3.01 2.23.76 6.9-.59 9.75l-2.12 1.29z"/><path fill="#969ba5" d="M176.15 112.06c-.17-2.4 3.19-1.94 4.78-2.25 5.85 1.36 4.11 11.79.01 14.3-8.57 1.83-3.8-7.17-4.79-12.05z"/><path fill="#7f8384" d="M208.21 110.07c2.74-.76 4.18 3.64 2.26 5.55-.74 3.29 3.05 9.8-2.4 8.37 2.16-3.81-2.42-4.87-5.01-6.15-.72-4.16 5.77-2.34 5.15-7.77z"/><path fill="#35373d" d="M140.85 122.92c1.34-2.54 2.15-5.3 2.94-8.05.08 1.24.26 2.46.54 3.66 5.11 1.33 7.58 8.29 12.71 2.62l2.12-1.29a22.32 22.32 0 0 1 6.71 2.43c.66 5.86-7.69 6.73-7.38 13.06-4.9-.08-7.17 4.75-8.58 8.55 1.88 2.52 5.66 3.81 6.24 7.13-2.68-1.25-6.35-3.38-7.25.96-2.73 3.05-2.68-.71-1.95-3.07-4.59.25-1.74 7.4-2.17 9.85-7.44 1.35-10.37 12.04-4.03 16.49 2.36 2.47 5.94 1.83 8.16-.47-.14-4.5-1.32-8.89-2.01-13.32 2.59-2.02 4.28-4.78 3.41-8.42 4.52-.35 2.41 7.89 7.46 9.29-2.33 6.12 4.1 5.41 8.25 4.5-.61-5.55-5.93-9.38-7.09-14.92 8.56.8 6.42 12.89 12.81 17.06-2.93 2.23 1.23 2.12 2.15 4.17 2.06 1.97.26 4.77-.19 7.03-2.28-2.45-1.69-8.05-6.49-6.07-2.98 2.01 1.11 3.06 1.79 5.04.89 4.35-3.78 5.32-6.96 4.13-5.39-.25 4.38 6.42-.64 5.26-8.65-.89-7.15 12.18-13.13 15.46-1.03-2.97-.08-7.84-4.1-8.52-.01-2.57 1.73-4.77 1.88-7.34-1.9-.79-3.99-.78-5.99-1.09 4.5-3.9-2.76-6.76-3.09-11.07l-.69-2.35-.37-2.58c-2.37-8.26 4.55-14.65 3.26-23l1-7.94c5.07-4.92.74-11.37.68-17.19z"/><path fill="#81848e" d="M200.23 128.25c1.68-3.3-4.76-11.18 2.55-9.12.54 4.6 8.02 8.7.92 11.33-1.47-.3-4.01.04-3.47-2.21z"/><path fill="#3f3e45" opacity=".98" d="M228.86 122.95c3.13-3.03 7.39-.11 11.16-.84-1.12 2.69-2.66 5.56 1.05 6.82-4.71 1.4-9.19-2.83-12.21-5.98z"/><path fill="#4f5658" d="M196.38 129.72c-1.87-3.39 4.5-5.81 3.85-1.47-.54 2.25 2 1.91 3.47 2.21 3.87.73 9.14.73 9.15 5.81 1.48 2.69-.57 5.18-1.82 7.49-2.2-1.47-8.52 2.24-6.15-1.87 3.82-7.76-14.71-3.73-8.5-12.17z"/><path fill="#7c8449" d="M216.26 132.18c6.1 1.23 2.67 9.02 5.96 13.07 2.28 4.62-2.77 7.65-6.14 9.73-2.24-2.42-1.88-4.59 1.34-5.58 3.89-1.84-1.18-4.14-3.21-4.7-1.05-.35-2.11-.66-3.18-.94 1.25-2.31 3.3-4.8 1.82-7.49 1.09-1.4 2.25-2.74 3.41-4.09z"/><path fill="#2f2f34" opacity=".95" d="M226.91 137.81c-1.38-2.29-.33-4.56 1.99-5.59 4.84 2.77 11.1 1.57 15.56 5.12-5.42 3.82-11.68-1.86-17.55.47z"/><path fill="#6b6f7a" d="M181.29 134.35c2.56-1.13 2.43 3.61 2.5 5.32-2.48 1.18-6.35 4.85-8.63 2.1-1.38-3.91 2.78-6.79 6.13-7.42z"/><path fill="#878c87" d="M222.22 145.25c3.05-.04.35-5.16 3.61-4.22-3.47 5.77 4.43 4.85 4.19 8.78-6.25-1.72-2.18 8.52-7.8 3.49-4.36 9.72-18.17-8.39-8.01-8.6 2.03.56 7.1 2.86 3.21 4.7-3.22.99-3.58 3.16-1.34 5.58 3.37-2.08 8.42-5.11 6.14-9.73z"/><path fill="#757b7f" d="M203.39 148.46c-1.61-4.44 5.62-2.76 4.2 1.17 3.53 1.92 2.8 5.86 4.58 8.95-1.09.17-2.76-1.01-3.45.18-3.33 4.25 6.34 1.17 7.25 5.03-4.12-.96-6.38 5.77-1.9 6.62-2.96 5.53-4.33 12.96-12.11 12.98 1.2 2.86 3.94.27 5.96-.14.35 2.16 2.98 5.7 3.53 1.73-2.14-2.02 1.09-4.06 2.27-5.96-.13 3.03 3.99 10.86 2.41-.23 1.78 1.83.92 4.98 1.68 7.36 2.74 5.91 8.5 7.95 14.02 10.1-1.22 2.67-4.56 4.35-6.05 7.19-.3 3.14 2.59 12.6-4.51 9.57 2.92-2.92-1.39-5.99 1.39-8.95-1.78-1.83-8.55-7.38-8.3-2.51 3.37 1.7.85 6.13 4.29 7.84 1.72.6.77 3.91-1.01 3.09-6.74-1.06-13.59-.83-20.35-1.79-1.52 1.96-2.81 4.22-5.23 5.19-6.02-1.48 1.64-4.36 1.82-7.4-4.28-.19-3.38-4.46-3.8-7.47a12.4 12.4 0 0 0 6.05 4.01c-3.26-2.88-1.96-8.07 2.9-7.35-1.8-2.43-2.93-4.24 1.03-2.78-3.95-4.72 1.9-7 .44-12.06-.51-1.22-.82-4.77-2.7-3.01-6.21 2.63 3.46-6.32-.09-8.63 1.6-5.29 4.5-10.15 5.25-15.74-2.51.94-4.43-.74-5.24-3.06 2.84-.36 9.33 2.72 5.67-3.93m5.85 41.71c-2.98 3.65 5.75 1.96 7.64 4.98 3.4 3.4 4.11-6.02.43-3.72-2.8 1.07-5.16-2.55-8.07-1.26m-8.92 10.19c-2.24-.44-3.57 3.71-1.34 3.64 2.44 1.34 4.49-5.71 1.34-3.64z"/><path fill="#595f6e" d="M172.19 155.09c3.07-.47 5.93 1.11 8.71 2.16 1.04 3.91-8.16 11.49-7.14 4.07-3.85.1-4.19-4.24-1.57-6.23z"/><path fill="#868a9a" d="M229.99 156.96c3.2-.91 5.31 2.75 4.81 5.52-1.76.45-2.93 1.47-2.98 3.37l-1.52.26c-.36-.62-3.67-2.01-1.39-2.02 3.87.05.51-4.8 1.08-7.13z"/><path fill="#595d72" d="M140.75 175.26c-6.34-4.45-3.41-15.14 4.03-16.49l2.12 2.7c.69 4.43 1.87 8.82 2.01 13.32-2.22 2.3-5.8 2.94-8.16.47z"/><path fill="#868d83" d="M196.15 158.91c3.43 1.34 1.57 5.31-.32 7.21l-2.98-.42 3.3-6.79z"/><path fill="#9396a3" d="M214.07 170.41c-4.48-.85-2.22-7.58 1.9-6.62 3.42 2.67.78 4.82-1.9 6.62z"/><path fill="#3e404a" d="M238.27 163.87l2.81 3.09c2.06 2.2 5.72.95 8.23.26 1.97-.2 3.88.34 5.71 1.04 2.45 1.64 4.78 1.76 6.99.38 6.18 2.98 17.69 5.86 15.72 15.01-2.4 5.8-9.02 7.65-13.9 10.81-.64-1.72-.25-3.53-.11-5.29-2.83.3-5.65.09-8.47-.03-1.46 1.81-1.6 5.97-4.8 4.66-.96-2.26-2.05-7.98-5.3-4.66-2.73 3.64-5.51.28-7.27-2.3-3.75 1.89-4.86 7.91-.7 10.01l-1.23.77c-1.14.69-2.28 1.35-3.38 2.08-2.6 1.8-2.6 6.02-6.79 3.74 1.49-2.84 4.83-4.52 6.05-7.19-5.52-2.15-11.28-4.19-14.02-10.1.66-4.28-1.27-11.12 3.91-12.66-1.14-2.36.51-8.16 2.07-3.33.01 3.73 7.59 1.37 4.25-1.13-4.25-1.78-3.41-2.74 2.26-2.92l1.52-.26c2.15-.68 6.3 1.32 6.45-1.98m.07 8.43c-.25 2.76-2.73 7.16-4.33 2.53-4.26-2.12-7.29 13.53-2.2 8.68 2.93 1 8.07-4.12 7.32 1.39 2.59 3.69 8.41 1.05 11.7-.11.46 4.14 3.63 3.17 5.51.54 4.64 1.52 13.05 2.98 15.63-3.38-1.05-3.74-4.34-7.73-8.82-6.71-3.06-5.34-10.49-4.77-13.01.66-.7-2.61-2.49-2.89-4.83-2.2-1.68-2.65-4.31-2.49-6.97-1.4z"/><path fill="#1e1f25" opacity=".68" d="M255.02 168.26c2.21-1.24 4.54-1.12 6.99.38-2.21 1.38-4.54 1.26-6.99-.38z"/><path fill="#555868" d="M238.34 172.3c2.66-1.09 5.29-1.25 6.97 1.4 2.34-.69 4.13-.41 4.83 2.2 2.52-5.43 9.95-6 13.01-.66-2.09 6.66-5.8-.67-9.95-.22-2.16 2.69-1.63 6.55-2.37 9.77-3.29 1.16-9.11 3.8-11.7.11.75-5.51-4.39-.39-7.32-1.39-5.09 4.85-2.06-10.8 2.2-8.68 1.6 4.63 4.08.23 4.33-2.53z"/><path fill="#757681" d="M253.2 175.02c4.15-.45 7.86 6.88 9.95.22 4.48-1.02 7.77 2.97 8.82 6.71-2.58 6.36-10.99 4.9-15.63 3.38-1.88 2.63-5.05 3.6-5.51-.54.74-3.22.21-7.08 2.37-9.77z"/><path fill="#525b62" d="M200.5 182.83c1.46 5.06-4.39 7.34-.44 12.06-3.96-1.46-2.83.35-1.03 2.78-4.86-.72-6.16 4.47-2.9 7.35a12.4 12.4 0 0 1-6.05-4.01c-.31-1.63-.67-3.24-1.02-4.85 3.25-.27 3.9-3.54.93-4.92 7.44-.38 2.11-6.1-2.24-6.69 3.98-2.07 10.92 2.59 12.75-1.72z"/><path fill="#757d83" d="M189.99 191.24c-2.31-1.28-4.41-4.38-2.24-6.69 4.35.59 9.68 6.31 2.24 6.69z"/><path fill="#32323a" d="M237.18 196.85c-4.16-2.1-3.05-8.12.7-10.01 1.76 2.58 4.54 5.94 7.27 2.3 3.25-3.32 4.34 2.4 5.3 4.66 3.2 1.31 3.34-2.85 4.8-4.66 2.82.12 5.64.33 8.47.03-.14 1.76-.53 3.57.11 5.29-2.47 1.89-5.62 1.62-8.58 1.38-3.16-.49-6.46-1.42-9.55-.18-2.23.64-4.35 1.58-6.52 2.38l-2-1.19z"/><path fill="#91979a" d="M209.24 190.17c2.91-1.29 5.27 2.33 8.07 1.26 3.68-2.3 2.97 7.12-.43 3.72-1.89-3.02-10.62-1.33-7.64-4.98z"/><path fill="#34373e" d="M137.22 207.73c-2.65-4.63-2.31-9.95-.59-14.88.15 3.72 3.47 6.93 7.21 5.48 1.96 3.2-.15 8.28 3.9 9.96 5.98 2.35 5.9-9.38 12.19-8.49.87 5.24-5 7.73-1.84 13.04-3.42-4.3-11.48.75-6.9 5 2.98-1.21 6.14-1.51 9.33-1.62-.42 3.05-.35 8.53 4.14 6.47 4.44.24 3.08-3.75 2.52-6.67 5.27 2.76 8.58-3.95 13.65-2.04 1.56.75 3.32 1.27 4.47 2.65l-1.22.15c-3.31.24-6.69.24-9.81 1.49-1.8 5.13-1.03 14.46 4.83 16.42l.97.25c.86 1.51.13 2.92-.84 4.15-1.94-1.9-4.31-3.25-6.75-4.4-5.54-6.86-14.4-2.27-15.5 5.3-4.45 11.17 6.9 20.21 16.63 22.37 1.89.96 2.8-2.7 4.6-1.44 2.9 2.84 8.21-5.89 5.92 3.63 2.75.31 5.41-.39 7.95-1.39l-.12 3.81-6.02 1c-2.58-.78-5.28-.85-7.95-.85.3 6.6 7.66 10.34 13.63 9.2 1.58 2.59 2.46 6.93 6.32 6.66 3.99-1.8 7.18-5.74 5.31-10.25 2.13 3.01 4.3 3.4 6.59.23-5.41 9.48 8.72 7.14 6.33 13.96l5.92.21c-3.62.6-7.31.85-10.83 1.94-3.15-.1-6.27.01-8.77 2.04-1.6-.43-2.47-1.96-3.63-2.99-3.47-1.92-8.09-.65-12.01-.96-4.17-1.89-6.38-6.21-9.7-9.16-5.48-10.34-17.31-14.77-27.2-19.79-.99-2.03-2.01-4.04-2.9-6.11.02-3.44-1.25-6.63-2.03-9.93l.25-.99c4.3-9.47-7.52-17.1-5.19-27.09-.11-1.39-.18-2.8-.6-4.13-.73-.77-1.48-1.51-2.26-2.23z"/><path fill="#616879" d="M170.27 195.24c3.14-.99 2.81 3.8 3.49 5.79.04 3.53-4.04 3.27-6.57 3.85-2.87-2.8.32-7.95 3.08-9.64z"/><path fill="#171818" opacity=".62" d="M245.7 195.66c3.09-1.24 6.39-.31 9.55.18-3.18.02-6.39-.14-9.55-.18z"/><path fill="#535b5f" d="M180.02 203.22c4.89.77 2.21-5.74 4.8-7.09.79 2.52 1.99 5.61 5.26 4.88.42 3.01-.48 7.28 3.8 7.47-.18 3.04-7.84 5.92-1.82 7.4.92 1.64 1.75 3.44 1.5 5.38l-2.43-1.64c-1.78-1.3-3.85-2.08-5.83-2.99-1.15-1.38-2.91-1.9-4.47-2.65 2.82-3.99-4.55-7.69-.81-10.76z"/><path fill="#777d90" d="M184.82 196.13l4.24.03 1.02 4.85c-3.27.73-4.47-2.36-5.26-4.88z"/><path fill="#65696d" d="M235.95 197.62l1.23-.77 2 1.19c.96 8.65-1.69 17.18-4.88 25.15.97-4.83-3.41-.99-6.08-1.92.68 2.42-1.54 7.64 2.58 6.71-2.97 2.85-5.87 6.21-5.1 10.78-.39 3.08-.67 6.22-.65 9.33-.1 1.99-.35 3.98-.86 5.91-2.45.5-5.79 3.29-7.46.1 5.96-4.06 4.38-12.03 5.88-18.21-3.66-1.73-6.94.04-9.5 2.42-1.79 5.32 3.93 7.44 5.79 11.45-3.65 1.57-8.92 2.34-7.68 7.59-2.96-1.76-6.63-1.83-7.97 1.65-.68-2.57-4.74-8.72.4-8.3 3.03 1.84 6.88-1.43 8.31-3.8 2.18-6.47-10.59-.28-5.08-5.84-4.97-2.04 1.07-5.55-3.28-7.43 2.73-3.51-.12-7-2.19-2.17-5.6-.28-1.08 5.45-4.13 7.78-7.02 5.02-1.19 13.75-1.35 20.92-3.38-.51-4.08-4.81-6.96-6.37 1.48-5.11 3.89-10.13 2.98-15.63-4.48-1.43 2.07 8.38-3.55 7.78-1.27-4.37-2.56-11.09-8.33-11l-.97-.25c-1.01-5.39 4.72-.47 7.32-.09 7.14 3.86 4.83-2.64 1.88-3.63 5.02.38 6.26-5.93 5.26-9.71.25-1.94-.58-3.74-1.5-5.38 2.42-.97 3.71-3.23 5.23-5.19 6.76.96 13.61.73 20.35 1.79 1.78.82 2.73-2.49 1.01-3.09-3.44-1.71-.92-6.14-4.29-7.84-.25-4.87 6.52.68 8.3 2.51-2.78 2.96 1.53 6.03-1.39 8.95 7.1 3.03 4.21-6.43 4.51-9.57 4.19 2.28 4.19-1.94 6.79-3.74-3.3 8.59 10.45-.06 3.38-2.08m-33.89 16.34c1.14 2.06-1.67 9.01 2.15 6.24 2.4-3.24 8.67-.68 6.76-6.26-3.68.45-6.31 3.05-8.91.02m21.17 2.25c-2.8 1.38 1.09 5.74 3.1 3.14 2.19-2.61-.36-4.41-3.1-3.14z"/><path fill="#8b8d8f" d="M232.57 199.7l3.38-2.08c7.07 2.02-6.68 10.67-3.38 2.08z"/><path fill="#b1b3b3" d="M200.32 200.36c3.15-2.07 1.1 4.98-1.34 3.64-2.23.07-.9-4.08 1.34-3.64z"/><path fill="#8c909d" d="M202.06 213.96c2.6 3.03 5.23.43 8.91-.02 1.91 5.58-4.36 3.02-6.76 6.26-3.82 2.77-1.01-4.18-2.15-6.24z"/><path fill="#8e929b" d="M223.23 216.21c2.74-1.27 5.29.53 3.1 3.14-2.01 2.6-5.9-1.76-3.1-3.14z"/><path fill="#5e6656" d="M174.27 218.27c3.12-1.25 6.5-1.25 9.81-1.49.5 4.98 2.38 9.6 4.22 14.19 2.95.99 5.26 7.49-1.88 3.63-2.6-.38-8.33-5.3-7.32.09-5.86-1.96-6.63-11.29-4.83-16.42z"/><path fill="#7c7c87" d="M184.08 216.78l1.22-.15c1.98.91 4.05 1.69 5.83 2.99-4.32-.36-4.5 5.13-1.99 7.47 3.3-1.27 2.17-4.79 1.99-7.47l2.43 1.64c1 3.78-.24 10.09-5.26 9.71-1.84-4.59-3.72-9.21-4.22-14.19z"/><path fill="#a4a3b2" d="M189.14 227.09c-2.51-2.34-2.33-7.83 1.99-7.47.18 2.68 1.31 6.2-1.99 7.47z"/><path fill="#88888f" opacity=".98" d="M228.22 221.27c2.67.93 7.05-2.91 6.08 1.92-.71 1.88-2.15 3.35-3.5 4.79-4.12.93-1.9-4.29-2.58-6.71z"/><path fill="#7b8085" d="M201.41 231.46c2.07-4.83 4.92-1.34 2.19 2.17 4.35 1.88-1.69 5.39 3.28 7.43-5.51 5.56 7.26-.63 5.08 5.84-1.43 2.37-5.28 5.64-8.31 3.8-5.14-.42-1.08 5.73-.4 8.3-.84 1.67-2.56 2-4.26 2.05 2.49-4.04-.49-2.02-3.06-.89.16-7.17-5.67-15.9 1.35-20.92 3.05-2.33-1.47-8.06 4.13-7.78z"/><path fill="#575c62" d="M156.98 239.99c1.1-7.57 9.96-12.16 15.5-5.3-7.22 1.79-2.49 9.97-5.86 14.97-3.95 4.89 1.84 12.07 6.19 7.19-2.41 6.58 7.08 2.01 4.25-2.93 1.25-2.77 6.01-1.41 5.96-4.64-2.74.15-4.39-.57-3.27-3.5.17-2.06-.6-4.03-.94-6.02l.42-.67c.97-1.23 1.7-2.64.84-4.15 5.77-.09 7.06 6.63 8.33 11 5.62.6-.93-9.21 3.55-7.78.91 5.5-1.5 10.52-2.98 15.63 2.88 1.56 3.58 5.86 6.96 6.37 2.57-1.13 5.55-3.15 3.06.89-2.38.44-4.63 1.35-6.91 2.11-2.54 1-5.2 1.7-7.95 1.39 2.29-9.52-3.02-.79-5.92-3.63-1.8-1.26-2.71 2.4-4.6 1.44-9.73-2.16-21.08-11.2-16.63-22.37z"/><path fill="#6e7750" d="M172.48 234.69c2.44 1.15 4.81 2.5 6.75 4.4l-.42.67c-2.72 1.98-5.68 4.8-5.89 8.33 2.41-.34 4.58-1.48 6.83-2.31-1.12 2.93.53 3.65 3.27 3.5.05 3.23-4.71 1.87-5.96 4.64-1.47.9-2.93 1.83-4.25 2.93-4.35 4.88-10.14-2.3-6.19-7.19 3.37-5-1.36-13.18 5.86-14.97z"/><path fill="#818587" d="M213.11 238.31c2.56-2.38 5.84-4.15 9.5-2.42-1.5 6.18.08 14.15-5.88 18.21-1.75 1.86-2.69 6.33-5.51 3.25-1.24-5.25 4.03-6.02 7.68-7.59-1.86-4.01-7.58-6.13-5.79-11.45m5.16-1.08c-2.1 1.04-5.64 6.36-1.26 5.79 3.43.94 6.29-8.12 1.26-5.79z"/><path fill="#2b2c34" opacity=".96" d="M273.23 235.18c3.98-.03 8.09-.54 12.01.38-7.43 3.11-15.13 1.74-22.88 1.56-.1 3.2-1.66 4.96-5.36 4.56-4.48 1.5-10.65.38-12.55 5.83-5.92 3.9-16.27 2.74-19.42 10.47-2.88 3.37-.91-2.25-.84-3.98.51-1.93.76-3.92.86-5.91l6.17-.82c9.26-2.05 15.24-11.64 25.53-11.55 5.49.13 11.03.44 16.48-.54z"/><path fill="#454650" opacity=".97" d="M262.36 237.12c7.75.18 15.45 1.55 22.88-1.56 1.13 1.67 3.13 4.97.46 6.16-5.56 3.61-12.06 4.59-18.49 5.3.24 1 .5 1.99.8 2.99-3.67-2.77-6.68-6.43-11.01-8.33 3.7.4 5.26-1.36 5.36-4.56m8.95 2.15c-3.25-.15-6.41.09-5.29 3.67 1.14 6.29 12.77-3.44 5.29-3.67z"/><path fill="#acafb2" d="M218.27 237.23c5.03-2.33 2.17 6.73-1.26 5.79-4.38.57-.84-4.75 1.26-5.79z"/><path fill="#656670" d="M271.31 239.27c7.48.23-4.15 9.96-5.29 3.67-1.12-3.58 2.04-3.82 5.29-3.67z"/><path fill="#8f9685" d="M172.92 248.09c.21-3.53 3.17-6.35 5.89-8.33.34 1.99 1.11 3.96.94 6.02-2.25.83-4.42 1.97-6.83 2.31z"/><path fill="#4d5156" d="M244.45 247.51c1.9-5.45 8.07-4.33 12.55-5.83-1.9 9.7-15.23 6.85-18.83 15.3-1.18 1.87-1.67 4.05-2.2 6.17-3.05 1.04-4.49-3.7-7.89-3.25-2.25 3.3-2.48 7.43-4.3 10.9-1.13 1.83-3.98 6.38-.9-2.04 2.17-3.33-4.16-2.18-5.94-1.83 3.56-3.21-1.17-6.52 2.12-9.96-5.37-1.09-1.73 6.37-5.41 8.55.14 3.57-4.14 4.96-3.91.58-.45-3.75-3.36.14-4.55 1.42 2.28.72 3.35 2.85 4.62 4.68l.03.76c-2.29 3.17-4.46 2.78-6.59-.23 1.87 4.51-1.32 8.45-5.31 10.25-3.86.27-4.74-4.07-6.32-6.66-5.97 1.14-13.33-2.6-13.63-9.2 2.67 0 5.37.07 7.95.85-.27 5.83 7.87 8.3 11.99 6.28 1.88-2.73 3.99-5.68 3.07-9.31-2.33-.3-4.44.69-6.36 1.86l-2.68.17.12-3.81c2.28-.76 4.53-1.67 6.91-2.11 1.7-.05 3.42-.38 4.26-2.05 1.34-3.48 5.01-3.41 7.97-1.65 2.82 3.08 3.76-1.39 5.51-3.25 1.67 3.19 5.01.4 7.46-.1-.07 1.73-2.04 7.35.84 3.98 3.15-7.73 13.5-6.57 19.42-10.47z"/><path fill="#6c6f76" d="M257 241.68c4.33 1.9 7.34 5.56 11.01 8.33l1.49.93c-.88 1.89-2.41 3.29-4.07 4.49 2.16 2.36 4.35 6.93-.81 5.01 1.91 3 5.65 4.75 8.17 1.33 4.03-1.95-5.41-5.27-.05-6.28 4.27.58 13.79-3.94 13.69 2.72-.23 1.37-.39 2.81-1.1 4.04-5.19-5.05-10.57.82-13.81 4.43-2.41 3.93-11.47 1.96-6.8-2.88-1.45-4.83-9.22 7.75-7.85.07 1.87-4.56.91-9.12-2.22-12.77-8.61 4.45-.7 16.78-8.72 20.8-1.76-2.79-5-3.12-7.91-4.02 4.78-1.99 7.78-11.93.15-10.9 3.6-8.45 16.93-5.6 18.83-15.3z"/><path fill="#1f1f23" opacity=".89" d="M272.91 252.28c4.59-1 9.59-6.13 13.46-.38-4.37.75-9.2 2.26-13.46.38z"/><path fill="#41464a" d="M245.93 271.9c8.02-4.02.11-16.35 8.72-20.8 3.13 3.65 4.09 8.21 2.22 12.77-2.05 3.12-4.19 6.18-6.67 8.98 2.44 2.12.62 4.94.04 7.49 2.65-2.25 8.48-10.43 10.91-5.41l.15 7.31-.99.64c-3.55-1.4-6.86-1.75-7.68 2.2-3.8-1.9-5.47-6.84-10.78-6.19-.49-3.3 1.35-5.5 4.08-6.99m1.23 2.29c-1.58 1.16-2.53 2.82-2.19 4.84 3.57 1.25 7.46-4.72 2.19-4.84z"/><path fill="#3c3e45" opacity=".98" d="M269.5 250.94l3.41 1.34c4.26 1.88 9.09.37 13.46-.38.98 1.78 1 3.89.06 6.31.1-6.66-9.42-2.14-13.69-2.72-5.36 1.01 4.08 4.33.05 6.28-2.52 3.42-6.26 1.67-8.17-1.33 5.16 1.92 2.97-2.65.81-5.01 1.66-1.2 3.19-2.6 4.07-4.49z"/><path fill="#7d848c" d="M172.81 256.85c1.32-1.1 2.78-2.03 4.25-2.93 2.83 4.94-6.66 9.51-4.25 2.93z"/><path fill="#73757a" d="M213.65 265.52c3.68-2.18.04-9.64 5.41-8.55-3.29 3.44 1.44 6.75-2.12 9.96 1.78-.35 8.11-1.5 5.94 1.83-3.08 8.42-.23 3.87.9 2.04 1.82-3.47 2.05-7.6 4.3-10.9 3.4-.45 4.84 4.29 7.89 3.25l-.17 3.68c-3.55 1.6-2.29 6.51-5.55 8.44-2.75 2.42-7.37 2.37-9.12-1.14-.12 2.59-2.81 7.41-3.66 2.63-.26-4.03-5.9-.81-7.66-4.56-1.27-1.83-2.34-3.96-4.62-4.68 1.19-1.28 4.1-5.17 4.55-1.42-.23 4.38 4.05 2.99 3.91-.58z"/><path fill="#8e909a" d="M238.17 256.98c7.63-1.03 4.63 8.91-.15 10.9l-2.22-1.05.17-3.68c.53-2.12 1.02-4.3 2.2-6.17z"/><path fill="#414046" opacity=".95" d="M271.52 266.68c3.24-3.61 8.62-9.48 13.81-4.43-5.17.3-7.66 4.07-11.16 7.09-2 0-3.64-.4-2.65-2.66z"/><path fill="#575a62" d="M256.87 263.87c-1.37 7.68 6.4-4.9 7.85-.07-4.67 4.84 4.39 6.81 6.8 2.88-.99 2.26.65 2.66 2.65 2.66-.25 1.78-.1 4.08-2.05 4.97-4.25.95-1.87-5.29-5.98-3.95-3.57-2.69-2.61 2.43-2.07 4.5l-2.92.07c-2.43-5.02-8.26 3.16-10.91 5.41.58-2.55 2.4-5.37-.04-7.49 2.48-2.8 4.62-5.86 6.67-8.98z"/><path fill="#8b8d97" d="M194.64 266.8c1.92-1.17 4.03-2.16 6.36-1.86.92 3.63-1.19 6.58-3.07 9.31-.96-2.55-2.07-5.03-3.29-7.45z"/><path fill="#717b52" d="M185.94 267.97l6.02-1 2.68-.17c1.22 2.42 2.33 4.9 3.29 7.45-4.12 2.02-12.26-.45-11.99-6.28z"/><path fill="#626563" d="M230.25 275.27c3.26-1.93 2-6.84 5.55-8.44l2.22 1.05c2.91.9 6.15 1.23 7.91 4.02-2.73 1.49-4.57 3.69-4.08 6.99-4 7.52-14.08 3.07-19.76 8.24l-5.92-.21c2.39-6.82-11.74-4.48-6.33-13.96l-.03-.76c1.76 3.75 7.4.53 7.66 4.56.85 4.78 3.54-.04 3.66-2.63 1.75 3.51 6.37 3.56 9.12 1.14z"/><path fill="#3a3d40" opacity=".98" d="M264.07 274.86c-.54-2.07-1.5-7.19 2.07-4.5 4.11-1.34 1.73 4.9 5.98 3.95-3-.39-4.72.55-5.15 2.82l-2.9-2.27z"/><path fill="#7f8773" d="M247.16 274.19c5.27.12 1.38 6.09-2.19 4.84-.34-2.02.61-3.68 2.19-4.84z"/><path fill="#737b80" opacity=".97" d="M261.15 274.93l2.92-.07 2.9 2.27c.7 3.57-3 4.49-5.67 5.11l-.15-7.31z"/><path fill="#697277" opacity=".95" d="M252.63 285.08c.82-3.95 4.13-3.6 7.68-2.2l-2.43 3.28c-1.78-.2-3.56-.48-5.25-1.08z"/><path fill="#57595c" opacity=".86" d="M202.49 291.11c2.5-2.03 5.62-2.14 8.77-2.04-2.26 2.42-5.39 4.06-8.77 2.04z"/></svg>