<svg xmlns="http://www.w3.org/2000/svg" width="512" height="512" viewBox="0 0 384 384" xmlns:v="https://vecta.io/nano"><path fill="#2b2e38" opacity=".6" d="M160.86 86.82c1.7-2.36 4.99-1.68 7.15.04l-7.15-.04z"/><path fill="#40444e" d="M159.23 87.06l1.63-.24c-1.82 5.42 6.7 3.24 9.31 1.35l5.88 2.14 2.84 1.06c4.97 5.39-3.44 11.26-1.53 17.45 1.07 5.28 4.93 12.13-1.77 14.76-4.76-.37-2.99 5.59-6.81 7.1-2.7 1.17-5.31 3.91-4.63 7.06 1.23 2.35 4.01.04 5.95-.03 4.03 5.45-1.86 15.07 4.7 18.41-1.99 2.21-5.16 3.55-1.21 6.26 2.12 4.47 7.07.28 10.4 2.87l1.11 2.23c.66 3.54-1.63 5.8-4.27 7.68 1.23 2.32 4.02 1.18 6.12 1.58l.35 1.9c-2.43 4.38-6.7-1.37-10.6 1.35-5.63-.79-2.4 7.17 1.48 7.56.19 4.62-5.48 2.42-8.04 4.58-.98 1.88-1.36 4.01-2.32 5.9-4.18-.58-9.94-2.09-8.05-7.97-5.75-1.67-5.88 6.22-7.75 9.75 2.52 2.82 6.18-.27 9.05-.85-.38 1.88-3.25 4.4-.87 5.88 2.72.85 2.19-3.26 3.15-4.85 1.13 2.33 2.48 4.52 4.11 6.53-3.34 2.75 1.54 4.89 3.89 5.71-3.37.98-9.73-.47-11.09 4.1.26 4.44 1.72 8.66 2.48 13.01-6.75-2.67-7.27-9.27-5.83-15.34-2.34.92-2.7 7.94-7.82 5.04-.94-3.29-4.4-7.36-8.1-4.33-1-1.59-3.1-4.22-1.2-5.81 4.21-2.5 5.81-7.67 7.32-11.99-6.37-.24-5.02 6.87-9.16 9.31-3.61-1.81-4.15-5.59-5.21-9.01-3.72-1.77-.9 3.82-4.78.84-.14-1.42-.24-2.85-.31-4.27.05-5 2.58-9.57 6.71-12.4 2.98 1.81 1.14 5.94 1.04 8.8 3.72-4.44 10.94-2.48 12.68-9.09 1.03-4.31 6.04-.75 7.74-4.31.04-2.53-3.44-5.51-.21-7.19 2.48-1.04 1.36-5.66-1.41-4.31-3.91 2.89-9.67-1.57-9.42-5.98-2.31 1.35-4.62 1.59-6.68-.36-.17 1.75-.26 3.51-.33 5.27-.52-2.77-.83-5.58-1.97-8.16-4.75-.31-7.53 4.84-8.04 8.97-3.43-5.8 4.67-8.97 2.74-14.21l-.5-2.87c.36-2.37.72-4.74.94-7.12 1.64-4.41 4.31-9.02.29-13.04-.59-6.76 1.43-13.42 3.87-19.64 6.01-2.47 3.11-9.58 5.75-14.33 6.03-2.93 14.54.05 18.38-6.75m-2.97 6.07c-6.31 4.15 6.62 5.64 7.67 1.85-.11-3.56-6.27-1.26-7.67-1.85m7.96 9.07c-2.11 1.23 1.19 4.36-1.77 5.28-4.33 2.76-3.52 7.98-2.22 12.18 2.87-.08 8.57 4.59 9.62 1.59 1.06-.71 3.06-1.65 2.86-3.11 3.26-1.71 4.05-6.69 1.51-9.19-.45-1.41-1.85-2.23-3.3-2.12l.1-.8c-8.41 5.6-2.36-5.6-6.8-3.83m-17.09 4.88c-3.57 2.9-7.29 7.97-2.94 11.87 6.26.12 10.54-10.4 2.94-11.87m10.96 43.14c-2.13 2.24-2.8 5.19.91 5.78 4.77.71 2.22 4.99-.88 6.23 2.25 2.83 4.3 7.42 8.66 6.68 1.39-2.65 3.41-9.53-1.55-7.84.14 2.35-.85 3.56-3.27 2.91-1.01-5.3 8.04-5.08 7.9-9.76-2.83-3.42-7.99-2.53-11.77-4z"/><path fill="#64687b" d="M160.86 86.82l7.15.04 2.16 1.31c-2.61 1.89-11.13 4.07-9.31-1.35z"/><path fill="#5f646c" d="M178.89 91.37l2.99-.56c6.44 2.14 7.91 10.63 14.91 11.32 3.08.6 6.24.83 9.37.79a12.89 12.89 0 0 1 1.94 1.6c-4.65 4.16-4.22 12.77 2.14 15.25 2.53 3.42 4.04-.94 4.28-2.99.34 6.42 6.18 7.63 9.61 12.24.56 5.8-6.85-.47-10.18-.17 1.69 2.77 3.38 5.66 5.79 7.87 8.48 6.04 13.04 16.79 12.41 27.1-1.72-.44-3.37-1.08-5.02-1.71-.3-3.51-.64-8.06-5.1-8.31-2.34 4.51 1.88 5.94 4.26 8.05-4.07 1.11-9.11-.15-12.42 2.73 2.23.12 3.76 1 3.13 3.45-3.22.87-4.42-1.52-5.21-4.14-2.22.88-1.39 3.12-1.31 4.96-5.26 1.59-3.97 8.03-4.68 12.33-.54-4.9-2.19.25-3.84-3.34-2.86-2.1-2.45 7.96-4.82 4.21.65-5.66-4.52-1.35-7.06-.16-3.33-4.82 5.64-5.99 7.86-5.97 1.09-3.28 2.56-6.42 4.13-9.5 3.32-1.35 4.79-3.98 2.24-7.01-.75-2.98-6.04-2.92-8.52-1.68.68-2.66.81-6.24 4.02-7.08-.14 1.26-2.72 3.33-.67 3.89 4-2.63 11.54-.53 13.48-7.41.26 5.52 7.08 6.5 6.11.24 5.84-.68 3.54-2.97-.62-4.55-3.98-.27 1.27-6.84-2.77-5.66-.28 2.08-.44 4.33-3.12 4.05-2.66-3.76-.4-12.92-6.78-11.88-1.77 3.79-10.57 11.08-2.32 11.42-5.86-.96-5.17 3.65-3.05 7.29-3.6-.59-4.02-4.22-5.25-6.97-3.62-.85-2.22 4.78-3.41 7.17-1.84.12-3.72.21-4.92 1.84-.91-3.99-4.11-3.55-7.38-4.16.99-2.75 1.81-5.57 1.83-8.53-2.47-.12-7-1.59-4.12-4.49 4.14-1.53 1.36-6.1 4.22-8.75-1.81-.22-3.63-.38-5.45-.57 6.7-2.63 2.84-9.48 1.77-14.76-1.91-6.19 6.5-12.06 1.53-17.45m5.32 14.73c-2.36 3.18-1.03 6.78 2.69 7.84 2.45-2.22.63-8.16-2.69-7.84m14.02 1.11c-1.54 3.07-8.38 5.03-3.86 8.32 4.16-.14 2.6 5.71 6.66 4.48-1.48-3.73.46-12.46-2.8-12.8m-9.24 7.75c-1.34 4.11 2.86 7.05 1.14 10.89 2.37 1.32 4.37.14 6.47-.71.23 1.86 1.87 2 3.42 1.88 1.54-4.96-8.26-3.24-5.06-9.03-4.45 5.05-1.31-3.72-5.97-3.03z"/><path fill="#6d7386" d="M156.26 93.13c1.4.59 7.56-1.71 7.67 1.85-1.05 3.79-13.98 2.3-7.67-1.85z"/><path fill="#62667c" d="M164.22 102.2c4.44-1.77-1.61 9.43 6.8 3.83l-.1.8c-6.96-1.02-4.7 4.87-6.82 9.11.75 2.9 2.26 5.82 5.75 5.31-1.05 3-6.75-1.67-9.62-1.59-1.3-4.2-2.11-9.42 2.22-12.18 2.96-.92-.34-4.05 1.77-5.28z"/><path fill="#9396a5" d="M210.24 119.77c-6.36-2.48-6.79-11.09-2.14-15.25 3.6 3.14 6.79 7.11 6.42 12.26-.24 2.05-1.75 6.41-4.28 2.99z"/><path fill="#9397a4" d="M184.21 106.1c3.32-.32 5.14 5.62 2.69 7.84-3.72-1.06-5.05-4.66-2.69-7.84z"/><path fill="#5c6278" d="M147.13 107.08c7.6 1.47 3.32 11.99-2.94 11.87-4.35-3.9-.63-8.97 2.94-11.87z"/><path d="M164.1 115.94c2.12-4.24-.14-10.13 6.82-9.11 1.45-.11 2.85.71 3.3 2.12.48 3.38-2.92 5.88-1.51 9.19.2 1.46-1.8 2.4-2.86 3.11-3.49.51-5-2.41-5.75-5.31zm37.97 50.48c-4.57-1.17-1.04-6.51 2.24-7.01 2.55 3.03 1.08 5.66-2.24 7.01z" fill="#9599a6"/><path fill="#7d817f" d="M198.23 107.21c3.26.34 1.32 9.07 2.8 12.8-4.06 1.23-2.5-4.62-6.66-4.48-4.52-3.29 2.32-5.25 3.86-8.32z"/><path fill="#727767" d="M174.22 108.95c2.54 2.5 1.75 7.48-1.51 9.19-1.41-3.31 1.99-5.81 1.51-9.19z"/><path fill="#83868e" d="M188.99 114.96c4.66-.69 1.52 8.08 5.97 3.03-3.2 5.79 6.6 4.07 5.06 9.03-1.55.12-3.19-.02-3.42-1.88-2.1.85-4.1 2.03-6.47.71 1.72-3.84-2.48-6.78-1.14-10.89z"/><path fill="#4c5360" d="M168.78 130.68c3.82-1.51 2.05-7.47 6.81-7.1l5.45.57c-2.86 2.65-.08 7.22-4.22 8.75-2.88 2.9 1.65 4.37 4.12 4.49-.02 2.96-.84 5.78-1.83 8.53 3.27.61 6.47.17 7.38 4.16 6.57 3.54-1.61 10.15-2.5 15.17-3.33-2.59-8.28 1.6-10.4-2.87-3.95-2.71-.78-4.05 1.21-6.26-6.56-3.34-.67-12.96-4.7-18.41 3.42-1.77 3.66-9.13-1.32-7.03m11.41 23.41c-2.25 1.99-3.89 8.26.73 7.89 5.37-.77 5.6-10.1-.73-7.89z"/><path fill="#7b8449" d="M205.44 129.33c6.38-1.04 4.12 8.12 6.78 11.88.57 4.72-3.57 7.69-7.16 9.79-2.69-2.63.06-5.3 2.14-7.09-1.04-1.41-2.53-2.4-4.08-3.16-8.25-.34.55-7.63 2.32-11.42z"/><path fill="#3d3d41" opacity=".94" d="M213.95 128.85c3.33-.3 10.74 5.97 10.18.17 3.39 3.67-2.7 5.18-4.39 7.7-2.41-2.21-4.1-5.1-5.79-7.87z"/><path fill="#6a6e7a" d="M168.78 130.68c4.98-2.1 4.74 5.26 1.32 7.03-1.94.07-4.72 2.38-5.95.03-.68-3.15 1.93-5.89 4.63-7.06z"/><path fill="#797f82" d="M215.34 137.16c4.04-1.18-1.21 5.39 2.77 5.66 4.16 1.58 6.46 3.87.62 4.55.97 6.26-5.85 5.28-6.11-.24-1.94 6.88-9.48 4.78-13.48 7.41-2.05-.56.53-2.63.67-3.89-3.21.84-3.34 4.42-4.02 7.08 2.48-1.24 7.77-1.3 8.52 1.68-3.28.5-6.81 5.84-2.24 7.01-1.57 3.08-3.04 6.22-4.13 9.5-2.22-.02-11.19 1.15-7.86 5.97 2.54-1.19 7.71-5.5 7.06.16 2.37 3.75 1.96-6.31 4.82-4.21 1.65 3.59 3.3-1.56 3.84 3.34 1.43 8.77 11.58 7.94 15.31 13.46-3.51-1.08-4.28 2.89-6.15 4.9-4.94 1.75-8.22-3.74-13.11-3.63 2 3.83 6.7 9.42 2.01 12.93-5.17-4.03-12.37-.04-17.68-3.03-4.4-4.61 5.58-1.86 7.69-5.07-1.6-2.62-3.17-5.9-5.81-7.43-5.23.42-.22-3.95-2.72-6.52-1.91-3.94 2.1-2.83 3.9-.97-.57-2.41-1.26-4.8-1.94-7.18l-.35-1.9c.32-4.47 5.34-15.17-1.85-9.26l-1.11-2.23c.89-5.02 9.07-11.63 2.5-15.17 1.2-1.63 3.08-1.72 4.92-1.84 1.19-2.39-.21-8.02 3.41-7.17 1.23 2.75 1.65 6.38 5.25 6.97-2.12-3.64-2.81-8.25 3.05-7.29 1.55.76 3.04 1.75 4.08 3.16-2.08 1.79-4.83 4.46-2.14 7.09 3.59-2.1 7.73-5.07 7.16-9.79 2.68.28 2.84-1.97 3.12-4.05z"/><path fill="#555a69" d="M158.09 150.22c3.78 1.47 8.94.58 11.77 4 .14 4.68-8.91 4.46-7.9 9.76 2.42.65 3.41-.56 3.27-2.91 4.96-1.69 2.94 5.19 1.55 7.84-4.36.74-6.41-3.85-8.66-6.68 3.1-1.24 5.65-5.52.88-6.23-3.71-.59-3.04-3.54-.91-5.78z"/><path fill="#717a76" d="M180.19 154.09c6.33-2.21 6.1 7.12.73 7.89-4.62.37-2.98-5.9-.73-7.89z"/><path fill="#8d90a0" d="M222.03 153.8c4.46.25 4.8 4.8 5.1 8.31l-.84-.26c-2.38-2.11-6.6-3.54-4.26-8.05z"/><path fill="#585d72" d="M127.76 165.02c.51-4.13 3.29-9.28 8.04-8.97 1.14 2.58 1.45 5.39 1.97 8.16.09 2.96 2.41 6.82-1.08 8.64-5.31 2.16-7.3-3.41-8.85-6.99l-.08-.84z"/><path fill="#2f2f35" d="M138.1 158.94c2.06 1.95 4.37 1.71 6.68.36-.25 4.41 5.51 8.87 9.42 5.98 2.77-1.35 3.89 3.27 1.41 4.31-3.23 1.68.25 4.66.21 7.19-1.7 3.56-6.71 0-7.74 4.31-1.74 6.61-8.96 4.65-12.68 9.09.1-2.86 1.94-6.99-1.04-8.8-1.05-2.38-2.6-4.48-4.12-6.58l-2.04-3.96-.18-1.84-.18-3.14c1.55 3.58 3.54 9.15 8.85 6.99 3.49-1.82 1.17-5.68 1.08-8.64.07-1.76.16-3.52.33-5.27z"/><path fill="#3d3f4a" d="M213.87 164.58c3.31-2.88 8.35-1.62 12.42-2.73l.84.26c1.65.63 3.3 1.27 5.02 1.71 12.23.62 27.55.5 35.23 11.83 2.56 5-1.95 8.57-5.22 11.36-3.46 1.72-6.76 3.76-10.24 5.44-1.81-2.31 2.91-5.15.04-7.08-3.18 2.16-10.78-1.43-9.41 4.42-4.41 3.02-4.92-3.18-6.77-5.95-2.63 1.11-5.65 5.2-8.16 1.59-2.09-5.16-7.29 1.71-4.03 4.92 1.11 5.34 7.08-.64 9.5 3.3l-1.18 2.32c-.84-.43-1.68-.83-2.52-1.21-2.72-1.87-5.23 1.08-7.65 2.1-3.88.5-1.09 2.62-.61 4.95-2.12-.41-5.56.6-6.17-2.27 1.87-2.01 2.64-5.98 6.15-4.9-3.73-5.52-13.88-4.69-15.31-13.46.71-4.3-.58-10.74 4.68-12.33-.08-1.84-.91-4.08 1.31-4.96.79 2.62 1.99 5.01 5.21 4.14.63-2.45-.9-3.33-3.13-3.45m25.82 6.1c-.62 3.83-2.98 1.13-2.89-1.35-3.4 2.19-9.16-4.89-10.63.78-.04 2.83-3.92 4.34-4.59 1.04-3.06.7-8.24 10.02-2.47 8.13 3.02.96 8.55-4.25 8.02 1.63 2.47 3.28 8.69 1.89 12.01-.18 1.73 7.45 6.64-2.7 8.99 2.13 3.43-2.15 7.74 1.83 10.43-1.28 6.9-2.61-2.04-14.42-7.27-9.24-.83-1.72-2.22-3.38-1.65-5.4-3.43.69-8.84-.54-9.95 3.74z"/><path fill="#5a656d" d="M185.1 167.48c7.19-5.91 2.17 4.79 1.85 9.26-2.1-.4-4.89.74-6.12-1.58 2.64-1.88 4.93-4.14 4.27-7.68z"/><path fill="#525565" d="M239.69 170.68c1.11-4.28 6.52-3.05 9.95-3.74-.57 2.02.82 3.68 1.65 5.4-1.5 5.52-7.59-3.37-10.48-.67-1.11 2.85-.93 6.09-1.67 9.06-3.32 2.07-9.54 3.46-12.01.18.53-5.88-5-.67-8.02-1.63-5.77 1.89-.59-7.43 2.47-8.13.67 3.3 4.55 1.79 4.59-1.04 1.47-5.67 7.23 1.41 10.63-.78-.09 2.48 2.27 5.18 2.89 1.35z"/><path fill="#727480" d="M240.81 171.67c2.89-2.7 8.98 6.19 10.48.67 5.23-5.18 14.17 6.63 7.27 9.24-2.69 3.11-7-.87-10.43 1.28-2.35-4.83-7.26 5.32-8.99-2.13.74-2.97.56-6.21 1.67-9.06z"/><path fill="#515961" d="M176.7 179.99c3.9-2.72 8.17 3.03 10.6-1.35.68 2.38 1.37 4.77 1.94 7.18-1.8-1.86-5.81-2.97-3.9.97 2.5 2.57-2.51 6.94 2.72 6.52-.3 3.6-5.3-2.31-6.89.85-2.02 1.39-.37 3.96-.3 5.89-1.55-1.01-3-2.17-4.57-3.15.22 3.72-1.32 9.4 3.84 6.96-.44.98-.86 1.98-1.27 2.98-2.63-2.03-5.23 1.16-3.46 3.64 2.66 1.19 5.17 3.78 3.79 6.89-1.89-1.48-3.95-2.72-5.96-4.02-.59-.45-1.21-.84-1.89-1.12-2.35-.82-7.23-2.96-3.89-5.71-1.63-2.01-2.98-4.2-4.11-6.53-.96 1.59-.43 5.7-3.15 4.85-2.38-1.48.49-4 .87-5.88-2.87.58-6.53 3.67-9.05.85 1.87-3.53 2-11.42 7.75-9.75-1.89 5.88 3.87 7.39 8.05 7.97.96-1.89 1.34-4.02 2.32-5.9 2.56-2.16 8.23.04 8.04-4.58 1.25-1.51 3.21-2.91 2.76-5.15-1.59-.55-3.87-.3-4.24-2.41m-4.74 11.99c.2 1.76.19 5.68 2.84 4.89 2.92-1.93.35-6.14-2.84-4.89z"/><path fill="#70797b" d="M178.18 187.55c-3.88-.39-7.11-8.35-1.48-7.56.37 2.11 2.65 1.86 4.24 2.41.45 2.24-1.51 3.64-2.76 5.15z"/><path fill="#31323a" d="M223.59 190.35c-3.26-3.21 1.94-10.08 4.03-4.92 2.51 3.61 5.53-.48 8.16-1.59 1.85 2.77 2.36 8.97 6.77 5.95-1.37-5.85 6.23-2.26 9.41-4.42 2.87 1.93-1.85 4.77-.04 7.08l-5.67.37c-3.66-.14-7.93-1.87-11.42.01l-1.74.82c-2.42-3.94-8.39 2.04-9.5-3.3z"/><path fill="#777d90" d="M171.96 191.98c3.19-1.25 5.76 2.96 2.84 4.89-2.65.79-2.64-3.13-2.84-4.89z"/><path fill="#1c1d1c" opacity=".7" d="M234.83 192.83c3.49-1.88 7.76-.15 11.42-.01-3.8.19-7.62.05-11.42.01z"/><path fill="#62666a" d="M181.17 194.16c1.59-3.16 6.59 2.75 6.89-.85 2.64 1.53 4.21 4.81 5.81 7.43-2.11 3.21-12.09.46-7.69 5.07 5.31 2.99 12.51-1 17.68 3.03 4.69-3.51-.01-9.1-2.01-12.93 4.89-.11 8.17 5.38 13.11 3.63.61 2.87 4.05 1.86 6.17 2.27-.48-2.33-3.27-4.45.61-4.95-.22 6.53 6.88 1.71 7.65-2.1.84.38 1.68.78 2.52 1.21l.32 9.27c-.87 5.18-2.09 10.44-4.84 14.98.83-5.03-4.19-.69-7.05-2.06.49 2.77-1.83 7.79 2.77 7.14-1.51 1.79-2.85 3.72-4.07 5.71-.89 1.17-.95 2.66-1.18 4.05l-.64-.25c-3.93-5.38-16.21-4.37-13.82 3.84 2.39 1.98 4.22 4.42 4.45 7.63-4.38-.79-4.7-6.66-9.15-6.94-2.28-.93-2.67 2.44-4 3.62-3.09-1.01-.8-4.02-.06-5.96-1.09-1.81-1.61-3.58.12-5.19-1.19-2.4-1.89-5.28-.63-7.8 1.97-3.2-5.93 2.35-3.86-1.85 1.37-5.76-6.28.87-1.69 3.25 5.21 4.4-7.64.41-2.04 7.24.39 4.1-8.72-6.07-8.26 1.04 1.23 3.87.38 12.06-5.24 9.19 3.76-3.69-.15-10.42-4.69-10.89-1.96-.67-4-1.3-5.61-2.65-.76-4.35-2.22-8.57-2.48-13.01 1.36-4.57 7.72-3.12 11.09-4.1.68.28 1.3.67 1.89 1.12-4.08 4.85-.31 9.4 2.03 13.59 4.89-.12 6.03-5.99 3.93-9.57 1.38-3.11-1.13-5.7-3.79-6.89-1.77-2.48.83-5.67 3.46-3.64-.31 9.36 10.06-10.19 1.27-2.98-5.16 2.44-3.62-3.24-3.84-6.96 1.57.98 3.02 2.14 4.57 3.15-.07-1.93-1.72-4.5.3-5.89m3.04 2c-3.35 1.78 1.08 5.66 3.12 3.19 2.2-2.64-.37-4.35-3.12-3.19m27.97 4.95c-1.75 2.78.35 5.99-1.15 8.9 4.4 2.32 5.29-1.72 6.98-4.03-5.02 3.43-1.57-5.72-5.83-4.87m-27 8.05c-3.26 2.85 2.56.95 3.69 3.01-.38 2.24-2.14 6.4 1.79 4.5 2.33-3.69 9.24-.94 7.32-6.71-5.14 1.52-7.78-.53-12.8-.8m30.16 3.19c-1.4.7-5.02-.11-3.95 2.34 1.14 2.77-5.59 4.72-2.28 6.87 2.73-1.98 15.57-9.09 6.23-9.21z"/><path fill="#898b8d" d="M221.74 196.86c2.42-1.02 4.93-3.97 7.65-2.1-.77 3.81-7.87 8.63-7.65 2.1z"/><path fill="#a0a3a7" d="M184.21 196.16c2.75-1.16 5.32.55 3.12 3.19-2.04 2.47-6.47-1.41-3.12-3.19z"/><path fill="#34363d" d="M127.96 198.05c3.88 2.98 1.06-2.61 4.78-.84 1.06 3.42 1.6 7.2 5.21 9.01 4.14-2.44 2.79-9.55 9.16-9.31-1.51 4.32-3.11 9.49-7.32 11.99-1.9 1.59.2 4.22 1.2 5.81 3.7-3.03 7.16 1.04 8.1 4.33 5.12 2.9 5.48-4.12 7.82-5.04-1.44 6.07-.92 12.67 5.83 15.34 1.61 1.35 3.65 1.98 5.61 2.65-.71 1.11-1.46 2.19-2.24 3.25-5.71-3.69-16-13-18.91-1.07-6.42 11.05 3.59 22.49 14.35 24.41 1.72.3 4.79 1.3 4.7-1.46 3.16 1.64 7.97-2.88 7.32 3.23 2.3 2.15 13.27-3.19 7.52 3.89l-3.18.72c-3.4-1.1-8.91-1.87-6.24 3.3-9.65-.52-16.9-7.75-25.58-11.19-2.98-3.16-5.72-6.72-5.86-11.34l-.3-2.68-.06-.8c3.32-11.62-6.12-20.33-6.53-31.53-1.49-4.35-5.55-7.68-5.38-12.67z"/><path fill="#81838d" d="M212.18 201.11c4.26-.85.81 8.3 5.83 4.87-1.69 2.31-2.58 6.35-6.98 4.03 1.5-2.91-.6-6.12 1.15-8.9z"/><path fill="#7b7e8f" d="M180.14 203.86c8.79-7.21-1.58 12.34-1.27 2.98l1.27-2.98z"/><path fill="#878c94" d="M185.18 209.16c5.02.27 7.66 2.32 12.8.8 1.92 5.77-4.99 3.02-7.32 6.71-3.93 1.9-2.17-2.26-1.79-4.5-1.13-2.06-6.95-.16-3.69-3.01z"/><path fill="#84888d" d="M215.34 212.35c9.34.12-3.5 7.23-6.23 9.21-3.31-2.15 3.42-4.1 2.28-6.87-1.07-2.45 2.55-1.64 3.95-2.34z"/><path fill="#898996" d="M175.27 226.94c-2.34-4.19-6.11-8.74-2.03-13.59 2.01 1.3 4.07 2.54 5.96 4.02 2.1 3.58.96 9.45-3.93 9.57z"/><path fill="#87888d" opacity=".98" d="M220.34 218.16c2.86 1.37 7.88-2.97 7.05 2.06-.98 2.03-2.67 3.56-4.28 5.08-4.6.65-2.28-4.37-2.77-7.14z"/><path fill="#767b81" d="M188.58 225.41c-4.59-2.38 3.06-9.01 1.69-3.25-2.07 4.2 5.83-1.35 3.86 1.85-1.26 2.52-.56 5.4.63 7.8-1.73 1.61-1.21 3.38-.12 5.19-.74 1.94-3.03 4.95.06 5.96 1.33-1.18 1.72-4.55 4-3.62 4.45.28 4.77 6.15 9.15 6.94-.23-3.21-2.06-5.65-4.45-7.63-2.39-8.21 9.89-9.22 13.82-3.84.42 3.53-1.38.27-3.04.36-2.42 1.5-.66 4.4.28 6.28.72 2.95-4.87 6.08-1.6 8.74a22.45 22.45 0 0 1-1.65 2c-4.19-4.79-4.76 1.55-3.4 4.97-4.31.28-5.16-7.62-9.53-5.02-4.72-.45-4.8 8.01-9.45 4.6-5.08.4-6.74-4.29-6.76-8.52-1.65.76-3.25 1.73-5.09 1.89-.91-3.41 2.72-3.37 4.93-4.41-.56-4.13-1.64-8.34-3.63-12.01-.46-7.11 8.65 3.06 8.26-1.04-5.6-6.83 7.25-2.84 2.04-7.24m19.69 7.83c-7.64 2.71 1.59 11.23 3.7 4.69 3.67-5.93-1.16-5.18-3.7-4.69z"/><path fill="#2b2d35" opacity=".97" d="M272.25 228.22c5.16-.41 10.43-.17 15.48-1.51l8.64.47c-1.73 2.83-6.91 1.15-7.63 4.67-1.98 3.68 4.13 4.01 6.49 4.61-4.64 2.36-10.02 1.81-15.03 2.68.86-2.05 4.07-2.01 5.82-3.34-.98-3.05-1.98-8.29-6.93-5.75-3.68.63-4.77 4.63-7.03 7.05-1.42-1.01-2.69-2.19-4.13-3.16-9.63 7.85-21.41 10.72-32.2 15.2-5.67-1.15-6.62 12.5-11.31 6.54-1.1-.37-2.26-.52-3.39-.75.81-2.54.33-5.16-.08-7.71 7.91-1.27 15.46-4.44 23.61-4.76 6.67-.62 9.79-7.86 15.48-10.35 4.08-1.25 8.26-2.22 12.21-3.89z"/><path fill="#585a60" opacity=".98" d="M296.37 227.18l3.69-.28c3.27 4.61-.77 8.23-4.83 9.56-2.36-.6-8.47-.93-6.49-4.61.72-3.52 5.9-1.84 7.63-4.67z"/><path fill="#5d6456" d="M147.2 234.17c2.91-11.93 13.2-2.62 18.91 1.07l.24.62c-3.3-1.99-10.67.58-7.29 4.99 2.77 2.65 2.21 9.49 6.67 9.05l.05.86c-5.54-.4-5.76 9.26.39 5.42l.08.94c.09 2.76-2.98 1.76-4.7 1.46-10.76-1.92-20.77-13.36-14.35-24.41z"/><path fill="#4b4f58" d="M272.06 237.1c2.26-2.42 3.35-6.42 7.03-7.05 4.95-2.54 5.95 2.7 6.93 5.75-1.75 1.33-4.96 1.29-5.82 3.34l-.25 1.62c-3.96-4.79-15.11-4.3-15.37 3.1-4.77 1.45-3.42 5.91-5.59 9.15-3.09-1.27-6.27-.28-9.18.93 1.45-1.74 3.35-2.99 5.17-4.32-3.59-4.2-8.46-1.74-10.95 2.18-1.97 1.96-2.15 4.93-3.02 7.44-3.47 1.78-4.93-3.94-8.69-1.7-1.84 6.18-7.37 10.74-6.33 17.54 3.98-.19 8.92-4.33 11.93.09-1.4 2.48-3.56 4.43-5.14 6.79 1.84-.52 3.62-1.2 5.44-1.79-3.01 3.41-7.58 4.82-11.99 5.24-1.64-.45-4.85.12-4.85-2.34.83-3.92-5.5-1.51-6.8-4.83 2-.04 3.59-.68 3.76-2.86 1.83.62 3.6 1.43 5.52 1.73-1.54-6.32 4.37-11.9 2.13-18.11-1.39.9-2.81 1.5-4.27.36-3.37-1.97-2.09 4.46-5.41 1.36-5.14-3.37 2 8.94-3.78 5.94-.91-3.86-3.87-5.63-7.43-3.43-1.49 4.6 3.6 6.84 7.38 6.2.37 5.09 8.59-.64 8.38 4.15-2.92.22-5.1 2.03-6.28 4.66-3.31-2.73-2.29-12.54-4.98-4.6-5.6-4.06-1.37 4.08-5.57 6.45-7.13 4.25-8.94-8.42-16.09-7.36 1.35-.48 2.72-.91 3.98-1.61 6.55-4.78 1.73-14.57-5.06-7.91-1.9.47-3.84.74-5.77 1.03 5.75-7.08-5.22-1.74-7.52-3.89.65-6.11-4.16-1.59-7.32-3.23l-.08-.94-.39-5.42-.05-.86c2.96-2.01 8.07-4.32 1.35-4.15.74-3.34 1.14-6.81-.73-9.89l-.24-.62c.78-1.06 1.53-2.14 2.24-3.25 4.54.47 8.45 7.2 4.69 10.89 5.62 2.87 6.47-5.32 5.24-9.19 1.99 3.67 3.07 7.88 3.63 12.01-2.21 1.04-5.84 1-4.93 4.41 1.84-.16 3.44-1.13 5.09-1.89.02 4.23 1.68 8.92 6.76 8.52 4.65 3.41 4.73-5.05 9.45-4.6 4.37-2.6 5.22 5.3 9.53 5.02-1.36-3.42-.79-9.76 3.4-4.97-2.66 1.72-1.29 4.33-.7 6.72 3.97.56 7.08-2.56 10.52-3.98 1.13.23 2.29.38 3.39.75 4.69 5.96 5.64-7.69 11.31-6.54 10.79-4.48 22.57-7.35 32.2-15.2 1.44.97 2.71 2.15 4.13 3.16m-43.76 39.25c-5.04.01-4.67 4.58-2.12 7.61 5.14 1.85 6.66-8.08 2.12-7.61z"/><path fill="#2e3023" opacity=".6" d="M217.86 235.06c.23-1.39.29-2.88 1.18-4.05l-.44 9.29c-.37-1.73-.56-3.49-.74-5.24z"/><path fill="#afb3b2" d="M208.27 233.24c2.54-.49 7.37-1.24 3.7 4.69-2.11 6.54-11.34-1.98-3.7-4.69z"/><path fill="#788063" d="M159.06 240.85c-3.38-4.41 3.99-6.98 7.29-4.99 1.87 3.08 1.47 6.55.73 9.89 6.72-.17 1.61 2.14-1.35 4.15-4.46.44-3.9-6.4-6.67-9.05z"/><path fill="#686c68" d="M214.18 235.17c1.66-.09 3.46 3.17 3.04-.36l.64.25.74 5.24c.41 2.42 1.36 4.69 2.35 6.92.41 2.55.89 5.17.08 7.71-3.44 1.42-6.55 4.54-10.52 3.98-.59-2.39-1.96-5 .7-6.72a22.45 22.45 0 0 0 1.65-2c-3.27-2.66 2.32-5.79 1.6-8.74-.94-1.88-2.7-4.78-.28-6.28z"/><path fill="#5c5f68" d="M264.58 243.86c.26-7.4 11.41-7.89 15.37-3.1l2.41 2.43c-2.31 3.75-6.95 5.35-2.25 9.48-5.75-.28-.81 3.51 1.84 4.32 1.54-1.15 2.99-2.45 4.22-3.93-1.35-1.49-5.17-4.13-1.89-5.67 7.38-.01 14.78-.26 22.06-1.71 1.64 3.52-1.28 7.47-4.23 9.37-3.41-1.06-7.7-1.07-10.43 1.55 2.58 0 5.87-.03 7.35 2.45.14 1.28-.18 2.28-.94 3.01-4.11.02-7.4 1.27-6.07 6.02-3.6 1.55-5.2 4.66-6.68 8.07l-1.03-.02c1.92-2.2 1.15-3.96-1.36-5.1 2.03-1.86 1.88-4.44 1.31-6.89 2.14-1.76 5.14-1.72 7.71-2.48-.18-4.9-4.86-.37-7.42-.25-4.7-1.34-7.07 3.61-11.23 3.61-.55-1.63.25-4.76-2.45-4.04-.34 2.84 4.57 5.47 1.73 7.59-3.68 5.74-13.09-1.08-7.76-6.11 7.19 2.25 9.7-17.32 3.29-11.26-1.36-2.36-2.81-4.69-3.55-7.34z"/><path fill="#2e3038" opacity=".95" d="M282.36 243.19c4.75 1.61 9.97 2.57 14.88.96 3.15-.92 8.11-2.88 9.1 1.53-7.28 1.45-14.68 1.7-22.06 1.71-3.28 1.54.54 4.18 1.89 5.67-1.23 1.48-2.68 2.78-4.22 3.93-2.65-.81-7.59-4.6-1.84-4.32-4.7-4.13-.06-5.73 2.25-9.48z"/><path fill="#3b3f45" d="M258.99 253.01c2.17-3.24.82-7.7 5.59-9.15.74 2.65 2.19 4.98 3.55 7.34-.76 3.85-.6 8.11-3.29 11.26-5.33 5.03 4.08 11.85 7.76 6.11 2.84-2.12-2.07-4.75-1.73-7.59 2.7-.72 1.9 2.41 2.45 4.04 4.16 0 6.53-4.95 11.23-3.61 2.56-.12 7.24-4.65 7.42.25-2.57.76-5.57.72-7.71 2.48.57 2.45.72 5.03-1.31 6.89-5.69-4.59-6.65 2.08-5.04 6.58-3.07-.02-7.1 2.28-2.84 4.49-3.4.3-5.56-2.37-7.56-4.63-4.54-.74-8.99-1.93-13.52-2.73l.43-5.45c3.24-1.76 6.94-4.61 6.68-8.7-3.8.29-2.97-5.17-2.11-7.58m2.21 17.12c-1.63 1.16-.71 3.27-.84 4.93 4.64 1.05 6.92-7.43.84-4.93z"/><path fill="#6f7276" d="M244.03 251.8c2.49-3.92 7.36-6.38 10.95-2.18-1.82 1.33-3.72 2.58-5.17 4.32 2.91-1.21 6.09-2.2 9.18-.93-.86 2.41-1.69 7.87 2.11 7.58.26 4.09-3.44 6.94-6.68 8.7-1.25.76-2.42 1.62-3.6 2.48-1.78-.1-2.45 1.8-1.87 3.23-1.92 1.49-4.54 4.63-4.18.11-2.72.49-4.45 2.53-5.82 4.77l-.73.29c-1.82.59-3.6 1.27-5.44 1.79 1.58-2.36 3.74-4.31 5.14-6.79-3.01-4.42-7.95-.28-11.93-.09-1.04-6.8 4.49-11.36 6.33-17.54 3.76-2.24 5.22 3.48 8.69 1.7-2.08 6.34 7.48 3.79 7.49-.84 1.86-3.3-.9-6.83-4.47-6.6z"/><path fill="#8c8f95" d="M268.13 251.2c6.41-6.06 3.9 13.51-3.29 11.26 2.69-3.15 2.53-7.41 3.29-11.26z"/><path fill="#747b84" d="M166.17 256.18c-6.15 3.84-5.93-5.82-.39-5.42l.39 5.42z"/><path fill="#888a97" d="M241.01 259.24c.87-2.51 1.05-5.48 3.02-7.44 3.57-.23 6.33 3.3 4.47 6.6-.01 4.63-9.57 7.18-7.49.84z"/><path fill="#2e2f35" opacity=".93" d="M291.68 256.6c2.73-2.62 7.02-2.61 10.43-1.55-1.29 1.11-3.09 2.05-3.08 4-1.48-2.48-4.77-2.45-7.35-2.45z"/><path fill="#696d75" d="M216.31 260.72c3.32 3.1 2.04-3.33 5.41-1.36 1.46 1.14 2.88.54 4.27-.36 2.24 6.21-3.67 11.79-2.13 18.11-1.92-.3-3.69-1.11-5.52-1.73-.17 2.18-1.76 2.82-3.76 2.86 1.18-2.63 3.36-4.44 6.28-4.66.21-4.79-8.01.94-8.38-4.15-3.78.64-8.87-1.6-7.38-6.2 3.56-2.2 6.52-.43 7.43 3.43 5.78 3-1.36-9.31 3.78-5.94z"/><path fill="#90929e" d="M186.86 263.21c6.79-6.66 11.61 3.13 5.06 7.91-3.95.37-2.14-5.72-5.06-7.91z"/><path fill="#2f2f33" opacity=".83" d="M292.02 268.08c-1.33-4.75 1.96-6 6.07-6.02-2.71 1.39-5.38 2.78-6.07 6.02z"/><path fill="#68724c" d="M181.09 264.24l5.77-1.03c2.92 2.19 1.11 8.28 5.06 7.91-1.26.7-2.63 1.13-3.98 1.61h-.81c-5.3 1.26-8.73-3.22-9.22-7.77l3.18-.72z"/><path fill="#4b5044" opacity=".98" d="M171.67 268.26c-2.67-5.17 2.84-4.4 6.24-3.3.49 4.55 3.92 9.03 9.22 7.77-3.1.08-6.17.27-9.25.43-1.99-1.75-4.09-3.34-6.21-4.9z"/><path fill="#646b42" opacity=".98" d="M250.82 271.77l3.6-2.48-.43 5.45c-2.12 2.02-4.35 3.93-6.88 5.41l-7.3-.07-.86-.2c1.37-2.24 3.1-4.28 5.82-4.77-.36 4.52 2.26 1.38 4.18-.11 1.97.51 2.75-1.79 1.87-3.23z"/><path fill="#727b81" d="M277.91 277.61c-1.61-4.5-.65-11.17 5.04-6.58 2.51 1.14 3.28 2.9 1.36 5.1-2.38 3.08-4.57 7.3-9.24 5.97-4.26-2.21-.23-4.51 2.84-4.49z"/><path fill="#33363d" opacity=".98" d="M209.6 273.64c2.69-7.94 1.67 1.87 4.98 4.6 1.3 3.32 7.63.91 6.8 4.83 0 2.46 3.21 1.89 4.85 2.34l-4.83 1.27c-2.69-.42-6.21-.37-7.92 2.07l-.48.42-3.88-3.27c-2.86-1.74-6.45-1-9.45-.13-7.57-2.26-14.4-8.06-21.6-11.68l-.19-.93 9.25-.43h.81c7.15-1.06 8.96 11.61 16.09 7.36 4.2-2.37-.03-10.51 5.57-6.45z"/><path fill="#757e6d" d="M261.2 270.13c6.08-2.5 3.8 5.98-.84 4.93.13-1.66-.79-3.77.84-4.93z"/><path fill="#d5d9c1" d="M248.95 275c-.58-1.43.09-3.33 1.87-3.23.88 1.44.1 3.74-1.87 3.23z"/><path fill="#757a7a" d="M228.3 276.35c4.54-.47 3.02 9.46-2.12 7.61-2.55-3.03-2.92-7.6 2.12-7.61z"/><path fill="#191c22" opacity=".63" d="M199.67 285.77c3-.87 6.59-1.61 9.45.13l-9.45-.13z"/><path fill="#6f7376" opacity=".96" d="M213.48 288.75c1.71-2.44 5.23-2.49 7.92-2.07l-2.48 2.57-5.44-.5z"/></svg>