<svg xmlns="http://www.w3.org/2000/svg" width="512" height="512" viewBox="0 0 384 384" xmlns:v="https://vecta.io/nano"><path fill="#424854" d="M155.06 92c6.84.5 13.73-.64 18.89-5.41-5.49 6.44 5.97 1.77 9.26 1.77 2.42 1.38 5.07 2.38 7.87 2.66-.5 4.76-5.33 3.94-9.09 4.12-.27 2.62 3.19 2.24 4.81 3.29 1.15 3.55-3.26 5.83-2.83 9.34 2.12 4.33 1.18 15.13 8.03 12.39 1.78 6.09-4.62 2.77-8.06 2.79-.23 2.71 3.2 2.22 4.91 3.23-1.86 2.02-3.45 4.15-1.01 6.42-2.39.88-4.81 2.24-3.85 5.23 1.93 1.18 4.94.88 5.76 3.41.17 2.47-2.87 4.9-1.05 7.2.92 2.07 3.92 3.65 3.04 6.15-5.25 2.17-13.79 7.75-5.91 12.37 2.22-2.47 5.45-4.03 7.85-.85 2.96 4.65-.63 8.59-1.84 12.99 1.84-1.91 3.86-4.43 4.37-.25 2.21 3.73-1.79 7.2-.81 11.07-1.65 2.03-3.6 1.63-5.5.24-1.74.89-2.38 3.41-4.54 3.55-7.59-3.82-3.49 6.88-8.99 7.74-4.34 2.56 4.17 6.03.38 9.44-3.95 1.08-8.76 2.24-11.46 5.3.23 5.12-9.13 7.16-8.11.84 2.08-5.82-5.96-1.18-8.56-1.82-3.87-3.36 1.55-6.29 4.82-6.53-1.82-4.25 3.36-6.58 2.67-10.72-6.07.26-7.25 12.64-13.27 7.28-.58-3.66-.63-7.82-1.9-11.56 4.31-1.36 2.97 5.98 5.06 8.4 5.14-5.32 3.12-17.92 13.77-16.14-5.31-6.53 4.36-2.88 6.35-7.91-.97-2.13-4.98-4.85-1.88-6.94 3.32-1.06 4.04 3.37 6.79 4.09.64-3.51-1.93-6.14-3.59-8.9 3.52-.26 3.76 5.32 7.55 4.74 4.51 1.26 1.44-5.57 1.94-8.18-2.39.45-3.3 3.65-5.98 3.23-1.17-5.11 11.51-7.72 5.1-12.15-5.3-5.46-13.45 3.41-5.22 4.54.73 3.99-4.76 4.11-3.39 7.82-1.68-2.35-5.92-10.24-4.76-3.18-1.14 2.11-12.49 5.21-8.26-.35-1.51-3.59-3.95-8.28-7.07-10.95 0 4.01-2.02 7.52-2.67 11.38.19-6.27-5.31-5.79-8.76-2.21 2.15-2.5 1.85-10.36 6.11-6.1.08-1.83-1.73-7.73 1.53-6.25 3.21 2.16 5.51-3.65 8.53.48 1.57-4.64-7.47-5-4.38-9.38 1.43-5.58 8.6-4.31 9.54-9.58 1.4-3.37-1.28-6.81-1.53-10.12-2.63-.24-4.56 1.82-6.76 2.88-3.36-3.19-9.63-4.26-8.25-10.14 1.94-4.23 6.36-6.51 9.59-9.61l.35-6.3c1.27-1.79 2.66-3.5 4.41-4.85m9.13 1.08c-6.73 5.06 7.8 7.12 7.75 2.08-2.25-1.47-5.04-2.45-7.75-2.08m8.43 14.45c-7.49 1.01-8.24 15.1.41 14.35.59 3.53 6.59.75 6.96-1.84 2.71-2.39 4.4-7.34 1.23-10.15.55-2.79-2.62-1.81-4.31-2.08.38-1.96-3.11-.41-4.29-.28m-18.39.6c-2.32 2.69-6.23 7.55-3 10.75 7.34 2.73 10.84-11.38 3-10.75m23.05 24.13c-2.95 1.3-7.17 4.65-4.61 8.09 5.18 3.58 12.33-8.56 4.61-8.09m6.94 49.84c-4.09 3 3.54 10.02 6.1 5.2 2.86-3.75-3.25-5.42-6.1-5.2m-17.93 11.07c-1.37 2.63-6.51 5.87-3.05 8.73 7.36 4.15 9.08-9.77 3.05-8.73z"/><path fill="#63687a" opacity=".97" d="M173.95 86.59c1.91.99 4.11.69 6.07.02l3.19 1.75c-3.29 0-14.75 4.67-9.26-1.77z"/><path fill="#585e60" d="M191.08 91.02c5.17.7 9.3 4.9 12.13 9.08 1.99 1.64 4.17 1.93 6.53.86 2.14 3.84 6.6 3.4 10.47 3.84l.86 1.16-.02 3.94-2.05-1.14c-2.78-2.87-6.47-4-9.72-1.38.46 3.38.43 6.8-.86 10.03-1.3-1.97 1.57-10.12-3.43-9.46-2.79-.62-2.96 2.36-2.46 4.28-5.15-.36-3.52-8.78-9.5-5.27-1.35.05-2.13.77-2.33 2.14-2.29 1.26-4.5-.87-6.73-1.33-.43-3.51 3.98-5.79 2.83-9.34-1.62-1.05-5.08-.67-4.81-3.29 3.76-.18 8.59.64 9.09-4.12z"/><path fill="#6b7184" d="M164.19 93.08c2.71-.37 5.5.61 7.75 2.08.05 5.04-14.48 2.98-7.75-2.08z"/><path fill="#2b2f34" opacity=".66" d="M203.21 100.1c2.27-1.13 4.45-.84 6.53.86-2.36 1.07-4.54.78-6.53-.86z"/><path fill="#6c7077" d="M209.28 107.38c3.25-2.62 6.94-1.49 9.72 1.38-10.89-.51-4.46 16.21 4.09 13.29-4.22 5.51 6.39.3 6.62 5.25 1.56 3.25-5.28 5.92-4.2 1.66.21-4.14-5.12 1.23-4.04 3.61.18 2.02 3.65 1.88 2.46 4.96-.13.29-.41.86-.55 1.15-1.13 2.96-.58 8.48-3.44 4.48-2.99-3.49-1.72-8.55-4.16-12.12-3.18-1.08-4.28 1.58-4.97 4.13l-.75-.17c1.05-5.01-3.72-7.7-8.14-7.14 1.92-2.27 2.69-4.46-1.08-4.67-4.46.04 1.55-7.19-2.81-6.21-2.63-.76-1.92 2.11-2.22 3.74-1.8 3.36-4.38 6.97-3.61 10.97 2.37 3.04 9.47 6.37 7.71 10.13-3.7-4.8-6.39-.22-9.07 2.94 3.81-1.71 5.7 1.6 7.28 4.52l-2.57 2.32c-1.86-.99-1.27-2.24.19-3.27-2.21-1.9-4.56 1.02-7.04.11-1.82-2.3 1.22-4.73 1.05-7.2-.82-2.53-3.83-2.23-5.76-3.41-.96-2.99 1.46-4.35 3.85-5.23-2.44-2.27-.85-4.4 1.01-6.42-1.71-1.01-5.14-.52-4.91-3.23 3.44-.02 9.84 3.3 8.06-2.79-6.85 2.74-5.91-8.06-8.03-12.39 2.23.46 4.44 2.59 6.73 1.33-.04 2.73 1.18 5.83 4.29 6.11 1.51-3.31-.35-5.83-1.96-8.25 5.98-3.51 4.35 4.91 9.5 5.27-.5-1.92-.33-4.9 2.46-4.28 5-.66 2.13 7.49 3.43 9.46 1.29-3.23 1.32-6.65.86-10.03z"/><path fill="#666a81" d="M172.62 107.53c1.18-.13 4.67-1.68 4.29.28-6.11-.47-1.71 5.61-4.61 8.46-.38 1.88.49 3.75.73 5.61-8.65.75-7.9-13.34-.41-14.35z"/><path fill="#969aa9" d="M190.7 109.1c.2-1.37.98-2.09 2.33-2.14 1.61 2.42 3.47 4.94 1.96 8.25-3.11-.28-4.33-3.38-4.29-6.11z"/><path fill="#5c6278" d="M154.23 108.13c7.84-.63 4.34 13.48-3 10.75-3.23-3.2.68-8.06 3-10.75z"/><path fill="#9499a6" d="M172.3 116.27c2.9-2.85-1.5-8.93 4.61-8.46 1.69.27 4.86-.71 4.31 2.08.06 3.56-2.73 6.54-1.23 10.15-.37 2.59-6.37 5.37-6.96 1.84-.24-1.86-1.11-3.73-.73-5.61z"/><path fill="#9ea1b1" d="M223.09 122.05c-8.55 2.92-14.98-13.8-4.09-13.29 1.28 4.45 2.95 8.8 4.09 13.29z"/><path fill="#6e7479" d="M219 108.76l2.05 1.14c3.27 1 7.09 1.36 8.6 4.89-2.09 2.5-4.64 4.61-6.56 7.26-1.14-4.49-2.81-8.84-4.09-13.29z"/><path fill="#787e6c" d="M181.22 109.89c3.17 2.81 1.48 7.76-1.23 10.15-1.5-3.61 1.29-6.59 1.23-10.15z"/><path fill="#35363b" d="M140.08 114.04l.63-1.28c-1.38 5.88 4.89 6.95 8.25 10.14 2.2-1.06 4.13-3.12 6.76-2.88.25 3.31 2.93 6.75 1.53 10.12-.94 5.27-8.11 4-9.54 9.58-3.09 4.38 5.95 4.74 4.38 9.38-3.02-4.13-5.32 1.68-8.53-.48-3.26-1.48-1.45 4.42-1.53 6.25-4.26-4.26-3.96 3.6-6.11 6.1-2.76 5-.54 12.34 5.08 14.01 5.96-1.12 5.33-7.15 3.68-11.8.65-3.86 2.67-7.37 2.67-11.38 3.12 2.67 5.56 7.36 7.07 10.95-4.23 5.56 7.12 2.46 8.26.35-1.16-7.06 3.08.83 4.76 3.18 1.66 2.76 4.23 5.39 3.59 8.9-2.75-.72-3.47-5.15-6.79-4.09-3.1 2.09.91 4.81 1.88 6.94-1.99 5.03-11.66 1.38-6.35 7.91-10.65-1.78-8.63 10.82-13.77 16.14-2.09-2.42-.75-9.76-5.06-8.4.86-2.4 1.76-4.82 2.13-7.35-2.03.09-4.06.1-6.08-.22 4.23-3.14 1.95-6.01-1.02-9.02a65.5 65.5 0 0 0-1.1-3.06l-.8-2.04c-.11-4.4-1.75-9.23.67-13.27 1.23-2.12 2.89-4.31 1.76-6.87l-.58-2.81c1.26-3.23 1.95-6.62 2.18-10.08.57-2.37 3.26-4.55 2.31-7.04-3.78-5.59-.98-11.84-.33-17.88z"/><path fill="#4e4e55" opacity=".97" d="M229.65 114.79c3.11 2.89 3.91 7.08 1.85 10.9 4.13 1.44 11.63 6.3 6.96 10.72-5.25-2.47-11.07-5.26-16.99-3.84-1.08-2.38 4.25-7.75 4.04-3.61-1.08 4.26 5.76 1.59 4.2-1.66-.23-4.95-10.84.26-6.62-5.25 1.92-2.65 4.47-4.76 6.56-7.26z"/><path fill="#848792" d="M195.81 120.72c.3-1.63-.41-4.5 2.22-3.74 4.36-.98-1.65 6.25 2.81 6.21 3.77.21 3 2.4 1.08 4.67-5.47 2.69-3.44-4.86-6.11-7.14z"/><path fill="#535a63" d="M192.2 131.69c-.77-4 1.81-7.61 3.61-10.97 2.67 2.28.64 9.83 6.11 7.14 4.42-.56 9.19 2.13 8.14 7.14-3.15 1.18-6.98 3.95-3.15 6.91-1.22 2.18.48 4.19 1.12 6.24-3.47-.24-5-8.29-8.64-3.74-3.65 1.35 3.49 6.66-1.27 4.87-1.58-2.92-3.47-6.23-7.28-4.52 2.68-3.16 5.37-7.74 9.07-2.94 1.76-3.76-5.34-7.09-7.71-10.13z"/><path fill="#828a4f" d="M210.81 135.17c.69-2.55 1.79-5.21 4.97-4.13 2.44 3.57 1.17 8.63 4.16 12.12 2.54 4.83-7.3 12.7-8.61 6.13 3.57-2.61 4.15-5.33-.39-7.07 4.04-2.02 5.43-6.33-.13-7.05z"/><path fill="#696e78" d="M177.28 132.26c7.72-.47.57 11.67-4.61 8.09-2.56-3.44 1.66-6.79 4.61-8.09z"/><path fill="#34343a" opacity=".97" d="M221.47 132.57c5.92-1.42 11.74 1.37 16.99 3.84l-1.33.78a171.49 171.49 0 0 1-8.19-.22c-1.49-.17-3.85-1.91-4.18.54l-.83.02c1.19-3.08-2.28-2.94-2.46-4.96z"/><path fill="#626d3b" d="M210.06 135l.75.17c5.56.72 4.17 5.03.13 7.05l-4.03-.31c-3.83-2.96 0-5.73 3.15-6.91z"/><path fill="#111012" opacity=".63" d="M228.94 136.97l8.19.22c-2.48 1.73-5.56.41-8.19-.22z"/><path fill="#5f646e" d="M223.38 138.68l.55-1.15.83-.02c5.84 5.04 9.65 12.04 11.7 19.41-.94 1.98-1.24 4.36-.04 6.31-2.25 1.39-4.33.21-6.04-1.36.38 1.44.33 2.61-1.55 2.13-.47-2.94 1.92-3.14 4.22-3.32-.57-2.35-1.76-5.54-4.79-4.69-.39 2.68-.69 5.43-1.18 8.11-1.56.59-5.55.64-2.48 2.35 4.79 2.37-4.37 6.15-3.6 1.53-.61-4.63-3.01.29-3.09 3.01-3.54 3.42-2.82 8.58-2.99 13.08-1.79-2.11-3.15-4.98-5.77-6.12-.76 2.19-.9 9.72-3.04 6.05.79-5.72-4.3.2-7.02-2.12.02-3.38 4.95-3.53 7.6-3.3.03-3.74 2.07-6.82 3.39-10.14 3.08-1.79 5.44-4.82 1.87-7.61-1.59-2.85-9.56-.91-5.5-4.4 2.04-1.37-.27-4.58 2.37-5.54 2.43 4.36 8.95 4.34 10.6-.59 1.92 3.3 6.15 3.71 6.41-.73 4.64-1.88-.11-4.53-2.45-5.77.01-1.71.1-3.42 0-5.12z"/><path fill="#777d81" d="M219.94 143.16c2.86 4 2.31-1.52 3.44-4.48.1 1.7.01 3.41 0 5.12 2.34 1.24 7.09 3.89 2.45 5.77-.26 4.44-4.49 4.03-6.41.73-1.65 4.93-8.17 4.95-10.6.59-2.64.96-.33 4.17-2.37 5.54-4.06 3.49 3.91 1.55 5.5 4.4-3.03.99-5.46 5.73-1.87 7.61-1.32 3.32-3.36 6.4-3.39 10.14-2.65-.23-7.58-.08-7.6 3.3 2.72 2.32 7.81-3.6 7.02 2.12 2.14 3.67 2.28-3.86 3.04-6.05 2.62 1.14 3.98 4.01 5.77 6.12 2.67 5.99 8.37 8.06 13.94 10.19-1.17 2.74-4.6 4.13-6.19 6.82-1.87 2.35 4.18 13.02-2.68 10.04-1.85-2.98 1.56-8.99-2.71-11.41-3.19-2.51-3.4 3.3-4.63 5.19-2.64 3.89 3.43 3.69 0 0 2.88.29 5.53 1.4 4.3 4.83-7.9-.69-15.91-1.14-23.56-2.31-1.48 2.06-2.83 4.21-4.54 6.1-4.58.1-2.42-4.14-.06-5.72 2.2-3.32 6.15-3.91 9.46-5.56-3.8 2.08-9.57-2.62-7.06-6.05 1.05-3.09 8.33 2.53 6.23-.53-2.8-.73-1.74-3.6-2.02-5.74-.98-3.87 3.02-7.34.81-11.07-.51-4.18-2.53-1.66-4.37.25 1.21-4.4 4.8-8.34 1.84-12.99 2.43-4.19 8.61-10.69 1.87-14.51l2.57-2.32c4.76 1.79-2.38-3.52 1.27-4.87 3.64-4.55 5.17 3.5 8.64 3.74-.64-2.05-2.34-4.06-1.12-6.24l4.03.31c4.54 1.74 3.96 4.46.39 7.07 1.31 6.57 11.15-1.3 8.61-6.13m-25.93 54.86c-.93 7.68 8.79-2.13 0 0z"/><path fill="#59606b" d="M188.7 148.44c2.48.91 4.83-2.01 7.04-.11-1.46 1.03-2.05 2.28-.19 3.27 6.74 3.82.56 10.32-1.87 14.51-2.4-3.18-5.63-1.62-7.85.85-7.88-4.62.66-10.2 5.91-12.37.88-2.5-2.12-4.08-3.04-6.15m3.6 7.61l-3.27 7.02c4.51 1.85 7.76-4.95 3.27-7.02z"/><path fill="#585e6d" d="M170.83 158.46c-8.23-1.13-.08-10 5.22-4.54 6.41 4.43-6.27 7.04-5.1 12.15 2.68.42 3.59-2.78 5.98-3.23-.5 2.61 2.57 9.44-1.94 8.18-3.79.58-4.03-5-7.55-4.74-1.37-3.71 4.12-3.83 3.39-7.82z"/><path fill="#848c84" d="M192.3 156.05c4.49 2.07 1.24 8.87-3.27 7.02l3.27-7.02z"/><path fill="#898d9d" d="M228.26 155.99c3.03-.85 4.22 2.34 4.79 4.69-2.3.18-4.69.38-4.22 3.32l-1.75.1 1.18-8.11z"/><path fill="#2a2b2e" opacity=".61" d="M236.46 156.92l.57 6.15-.61.16c-1.2-1.95-.9-4.33.04-6.31z"/><path fill="#595e73" d="M135.92 160.97c3.45-3.58 8.95-4.06 8.76 2.21 1.65 4.65 2.28 10.68-3.68 11.8-5.62-1.67-7.84-9.01-5.08-14.01z"/><path fill="#9598a6" d="M210.08 168.44c-3.59-1.88-1.16-6.62 1.87-7.61 3.57 2.79 1.21 5.82-1.87 7.61z"/><path fill="#3e404a" d="M230.38 161.87c1.71 1.57 3.79 2.75 6.04 1.36l.61-.16 1.01 1.89c3.44 2.12 8.88.57 13.18.91l1.7.22 6.26.53c5.56 2.39 12.06 4.43 15.6 9.66 2.96 9.24-7.75 12.56-13.57 16.27 1.32-8.03-6.18-4.37-10.25-5.36 1.19 1.82 2.78 5.9-.94 5.42-4.13 1.37-3.77-4.04-5.33-6.5-3.36-1.15-4.01 6.16-7.06 2.31-4.87-6.05-8.66 2.91-3.69 6.27-1.7 2.01-7.42 3.87-4.89 6.86-1.9.79-5.69 2.46-6.38-.47 1.59-2.69 5.02-4.08 6.19-6.82-5.57-2.13-11.27-4.2-13.94-10.19.17-4.5-.55-9.66 2.99-13.08.08-2.72 2.48-7.64 3.09-3.01-.77 4.62 8.39.84 3.6-1.53-3.07-1.71.92-1.76 2.48-2.35l1.75-.1c1.88.48 1.93-.69 1.55-2.13m3.37 12.95c-4.35-4.18-8.61 1.5-8.64 5.98 1.64 2.43 4.48-.3 6.66-.55-.06 4.03 4.72-3.29 4.36 1.66 2.7 6.39 8.63-1.27 12.88 3.07-.21 2.13 2.03.22 2.56-.4 3.22-4.34 6.65.78 11.74.12 8.81-.33 4.92-15.15-3.06-11.18-1.91-5.95-11.59-6.17-12.58.31-2.34-.05-2.49-3.92-5.46-1.99-1.58-5.01-9.07-1.78-8.46 2.98z"/><path fill="#191a1e" opacity=".61" d="M252.92 166.09l6.26.53-6.26-.53z"/><path fill="#545767" d="M233.75 174.82c-.61-4.76 6.88-7.99 8.46-2.98 2.97-1.93 3.12 1.94 5.46 1.99.99-6.48 10.67-6.26 12.58-.31-3.25 2.72-7.17.13-10.19-1.57-2.27 4.02-2.18 8.73-1.05 13.03-4.25-4.34-10.18 3.32-12.88-3.07.36-4.95-4.42 2.37-4.36-1.66-2.18.25-5.02 2.98-6.66.55.03-4.48 4.29-10.16 8.64-5.98z"/><path fill="#737580" d="M250.06 171.95c3.02 1.7 6.94 4.29 10.19 1.57 7.98-3.97 11.87 10.85 3.06 11.18-5.09.66-8.52-4.46-11.74-.12-.53.62-2.77 2.53-2.56.4-1.13-4.3-1.22-9.01 1.05-13.03z"/><path fill="#70797a" d="M184.22 182.1c2.85-.22 8.96 1.45 6.1 5.2-2.56 4.82-10.19-2.2-6.1-5.2z"/><path fill="#57585f" d="M136.99 186.11c2.02.32 4.05.31 6.08.22-.37 2.53-1.27 4.95-2.13 7.35-1.58 5.85-6.54 1.24-6.35-2.86.29-1.8 1.28-3.33 2.4-4.71z"/><path fill="#2f3037" opacity=".97" d="M233.94 194.69c-4.97-3.36-1.18-12.32 3.69-6.27 3.05 3.85 3.7-3.46 7.06-2.31 1.56 2.46 1.2 7.87 5.33 6.5 3.72.48 2.13-3.6.94-5.42 4.07.99 11.57-2.67 10.25 5.36-6.99 4.87-16.14-1.31-23.22 3.38l-.84.29-.74-.33-2.47-1.2z"/><path fill="#575e62" d="M185.36 193.71c2.16-.14 2.8-2.66 4.54-3.55 1.9 1.39 3.85 1.79 5.5-.24.28 2.14-.78 5.01 2.02 5.74 2.1 3.06-5.18-2.56-6.23.53-2.51 3.43 3.26 8.13 7.06 6.05-3.31 1.65-7.26 2.24-9.46 5.56-2.36 1.58-4.52 5.82.06 5.72.54 2.03 3.58 5.76-.54 4.29-1.96-1.84-4.6-2.71-7.24-2.88.2 2.33.64 4.63.88 6.96-4.39-.78-7.4 3.22-6.12 7.65l-1.06 2.61c-7.92-3.91-7.41-21.27 4.28-18.19 4.37.44-1.15-1.94-2.3-3.07 3.79-3.41-4.72-6.88-.38-9.44 5.5-.86 1.4-11.56 8.99-7.74-3.08-.97-3.62 5.67-.34 4.3 2.14.23.14-3.03.34-4.3z"/><path fill="#34373e" d="M136.44 206.91c-4.1-4.44-3.67-10.73-1.85-16.09-.19 4.1 4.77 8.71 6.35 2.86 1.27 3.74 1.32 7.9 1.9 11.56 6.02 5.36 7.2-7.02 13.27-7.28.69 4.14-4.49 6.47-2.67 10.72-3.27.24-8.69 3.17-4.82 6.53 2.6.64 10.64-4 8.56 1.82-1.02 6.32 8.34 4.28 8.11-.84 2.7-3.06 7.51-4.22 11.46-5.3 1.15 1.13 6.67 3.51 2.3 3.07-11.69-3.08-12.2 14.28-4.28 18.19 4.12 1.04 7.88 2.44 8.49 7.2-5.08 1.45-3.67-6.18-9.34-4.21-1.78-1.03-3.67-1.85-5.64-2.41-3.14-3.03-8.28-6.15-11.12-.58-11.86 11.73 3.6 30.85 17.56 26.72 2.46 3.23 6.34-4.05 6.29-.13-5.54 8.85 10.8-.6 7.18 6.47a87.78 87.78 0 0 1-4.24.79c-2.67-.48-5.35-.93-8.05-1.05.77 6.6 8 11.46 14.27 9.03l.79.22c2.92 2.5 4.28 8.53 8.91 7.82 2.87-1.89 6.82-4.05 5.3-8.12 3.15 5.5 2.46-.7 5.76-2.25-2.27 7.5 5.37 13.44 11.11 14.43l3.07.05-10.96 1.83c-3.04-.13-6 .55-8.64 2.07-1.74-.57-2.91-2.13-4.42-3.09-3.63-.84-7.39-1.09-11.27-.75-3.5-2.06-5.87-5.74-9.72-7.22-6.41-13.58-22.67-15.01-33.05-23.97-.83-2.25-1.63-4.52-2.1-6.88-.29-1.65-.62-3.3-1-4.93 3.28-9.97-3.67-18.01-5.96-27.23l.02-2.98c.11-2.16.11-4.47-1.57-6.07z"/><path fill="#61697b" d="M166.29 193.17c6.03-1.04 4.31 12.88-3.05 8.73-3.46-2.86 1.68-6.1 3.05-8.73z"/><path fill="#848a9d" d="M185.02 198.01c-3.28 1.37-2.74-5.27.34-4.3-.2 1.27 1.8 4.53-.34 4.3z"/><path fill="#858789" d="M229.05 201.55c-2.53-2.99 3.19-4.85 4.89-6.86l2.47 1.2c-.34 3.7-3.53 6.9-7.36 5.66z"/><path fill="#64686d" d="M236.41 195.89l.74.33a157.88 157.88 0 0 0 .01 10.88c-1.83.53-1.53 2.7-.86 4.02-.99 3.76-2.26 7.48-4.11 10.91 1.04-3.46-4.29-3.48-5.79-1.77.13 2.46-1.35 6.64 2.61 5.98-5.63 4.81-5.71 11.74-5.34 18.59-.2 3.29.17 7.29-3.51 8.47.76 3.05-8.42 12.28-6.16 4.86-2 1.64-4.38 1.85-6.67.65.04-1.65 1.21-4.71-1.41-4.82-4.73-1.3-4.98 8.25-9.83 4.82l-.62-.58c4.63-2.35.2-11.09 6.13-9.99 3.58 7.71 13.97-8.62 4.49-6.82-4.31 2.43-4.27.78-2.54-3.13-5.03-1.56 2.59-6.52-3.23-6.55 3.2-4.01.46-8.11-4.33-5.88 3.3 2.17 4.4 6.26-.77 4.22.82 4.3-.14 8.27-4.3 9.8 3.76-3.74-3.67-8.95-3.15-4.28 1.28 4.22-2.25 12.8-6.96 7.65 3.21 2.59 5.84-4.74 2.45-3.9-.61-4.76-4.37-6.16-8.49-7.2l1.06-2.61c4.31 2.07 10.61 5.72 12.31-1.28 2.3-3.25 1.56-7.01.17-10.45 4.12 1.47 1.08-2.26.54-4.29 1.71-1.89 3.06-4.04 4.54-6.1 7.65 1.17 15.66 1.62 23.56 2.31 1.23-3.43-1.42-4.54-4.3-4.83 1.23-1.89 1.44-7.7 4.63-5.19 4.27 2.42.86 8.43 2.71 11.41 6.86 2.98.81-7.69 2.68-10.04.69 2.93 4.48 1.26 6.38.47 3.83 1.24 7.02-1.96 7.36-5.66m-38.31 16.07c.55 2.03.54 4.08 0 6.12 3.45-1.58 10.97-.66 9.93-6.06-5.72 1.26-5.78 1.51-9.93-.06m21.13 2.14c-.6 3.22-2.35 5.98-4.31 8.97 3.8-.23 5.11-4.81 8.71-5.56 4.12-.96-2.12-7.02-4.4-3.41m-5.01 19.3c-6.82 2.42-2.45 10.17 1.61 13.06-2.04 4.55-10.61 1.87-6.86 9.64 5.28-2.96 9.62-7.8 11.58-13.47 2.07-5.8-.54-9.37-6.33-9.23z"/><path fill="#b0b3b2" d="M194.01 198.02c8.79-2.13-.93 7.68 0 0z"/><path fill="#d1d6c2" d="M212.65 204.9c-2.64 3.89 3.43 3.69 0 0z"/><path fill="#2b2c2f" opacity=".63" d="M236.3 211.12c-.67-1.32-.97-3.49.86-4.02.27 1.4.11 2.91-.86 4.02z"/><path fill="#8c909c" d="M198.1 211.96c4.15 1.57 4.21 1.32 9.93.06 1.04 5.4-6.48 4.48-9.93 6.06.54-2.04.55-4.09 0-6.12z"/><path fill="#86898f" d="M219.23 214.1c2.28-3.61 8.52 2.45 4.4 3.41-3.6.75-4.91 5.33-8.71 5.56 1.96-2.99 3.71-5.75 4.31-8.97z"/><path fill="#898995" d="M181.07 214.93c2.64.17 5.28 1.04 7.24 2.88 1.39 3.44 2.13 7.2-.17 10.45-4.21.73-5.04-3.31-6.19-6.37-.24-2.33-.68-4.63-.88-6.96z"/><path fill="#8b8c93" d="M226.4 220.26c1.5-1.71 6.83-1.69 5.79 1.77-.96 1.48-2.08 2.84-3.18 4.21-3.96.66-2.48-3.52-2.61-5.98z"/><path fill="#6a734e" d="M175.83 229.54c-1.28-4.43 1.73-8.43 6.12-7.65 1.15 3.06 1.98 7.1 6.19 6.37-1.7 7-8 3.35-12.31 1.28z"/><path fill="#7b7f85" d="M195.99 225.86c4.79-2.23 7.53 1.87 4.33 5.88 5.82.03-1.8 4.99 3.23 6.55-1.73 3.91-1.77 5.56 2.54 3.13 9.48-1.8-.91 14.53-4.49 6.82-5.93-1.1-1.5 7.64-6.13 9.99-5.32.14-2.18-9.57-7.54-7.42-4.88.32 1.52-2.76 2.9-4-.68-3.81-1.75-7.58-3.06-11.21-.52-4.67 6.91.54 3.15 4.28 4.16-1.53 5.12-5.5 4.3-9.8 5.17 2.04 4.07-2.05.77-4.22z"/><path fill="#575d63" d="M157.16 232.15c2.84-5.57 7.98-2.45 11.12.58-1.9.23-8.42-2.16-5.34 1.31 5.48 5.61-.7 12.5-.64 18.63.01 3.62 3.51 4.63 6.35 3.16 3.13 4.81 6.79.13 5.31-4.01 1.83-1.41 4.07-2.04 6.12-3.03-.51-2.16-3.21-2.53-4.11-4.47 1.45-2.42.6-6.18-1.71-7.75-.08-.36-.25-1.07-.34-1.43 5.67-1.97 4.26 5.66 9.34 4.21 3.39-.84.76 6.49-2.45 3.9 4.71 5.15 8.24-3.43 6.96-7.65 1.31 3.63 2.38 7.4 3.06 11.21-1.38 1.24-7.78 4.32-2.9 4 5.36-2.15 2.22 7.56 7.54 7.42l.62.58c-4.74 2.48-10.18 1.12-15.08-.07.05-3.92-3.83 3.36-6.29.13-13.96 4.13-29.42-14.99-17.56-26.72z"/><path fill="#69734d" d="M162.94 234.04c-3.08-3.47 3.44-1.08 5.34-1.31 1.97.56 3.86 1.38 5.64 2.41l.34 1.43c-2.3 1.09-4.67 2.24-7.29 1.97.9 2.56 1.92 5.1 3.24 7.48 1.94-.48 3.78-1.35 5.76-1.7.9 1.94 3.6 2.31 4.11 4.47-2.05.99-4.29 1.62-6.12 3.03-1.89 1.16-3.69 2.48-5.31 4.01-2.84 1.47-6.34.46-6.35-3.16-.06-6.13 6.12-13.02.64-18.63z"/><path fill="#141518" opacity=".65" d="M278.01 233.02c3.38-1 6.79-1.11 10.24-.34l-10.24.34z"/><path fill="#818686" d="M214.22 233.4c5.79-.14 8.4 3.43 6.33 9.23-1.96 5.67-6.3 10.51-11.58 13.47-3.75-7.77 4.82-5.09 6.86-9.64-4.06-2.89-8.43-10.64-1.61-13.06m2.06 1.87c-1.71.99-4.7 2.07-4.17 4.52 2.95 3.99 10.98-4.59 4.17-4.52z"/><path fill="#43444e" opacity=".97" d="M278.01 233.02l10.24-.34c8.75 2.45-.82 10.5-6.12 10.59l-6.3.35c-2.06.13-3.58 1.38-4.14 3.37-2.39-3.86-6.82-5.33-10.75-7.06l-.98-.37c4.33.67 6.94-.89 5.89-5.56 4.07-.06 8.14-.16 12.16-.98m-7.93 4.33c-3.62 5.69 8.47 6.1 7.78.86-1.87-2.29-5.23.76-7.78-.86z"/><path fill="#2a2c32" opacity=".97" d="M243.24 242.28c5.4-4.36 11.55-7.71 18.58-8.43 1.34.03 2.68.08 4.03.15 1.05 4.67-1.56 6.23-5.89 5.56-5.34 2.95-9.9 2.84-14 7.48l-5.08 1.14c-3.56.97-10.06 5.85-9.16-1.18-3.34.78-2 6.65-4.21 9.27l-.8-.07c-1.92-6.36-8.46 5.76-6.55-2.9 3.68-1.18 3.31-5.18 3.51-8.47l.49 2.06c6.47-1.04 13.87.15 19.08-4.61z"/><path fill="#b1b3b7" d="M216.28 235.27c6.81-.07-1.22 8.51-4.17 4.52-.53-2.45 2.46-3.53 4.17-4.52z"/><path fill="#818874" d="M166.97 238.54c2.62.27 4.99-.88 7.29-1.97 2.31 1.57 3.16 5.33 1.71 7.75-1.98.35-3.82 1.22-5.76 1.7-1.32-2.38-2.34-4.92-3.24-7.48z"/><path fill="#666772" d="M270.08 237.35c2.55 1.62 5.91-1.43 7.78.86.69 5.24-11.4 4.83-7.78-.86z"/><path fill="#4d505d" d="M245.96 247.04c4.1-4.64 8.66-4.53 14-7.48l.98.37c-1.6 4.24-4.32 8.02-7.78 10.93-2.29-2.99-5.51-.62-8.31.16 1.51-1.32 3.99-2.63 1.11-3.98z"/><path fill="#696c72" d="M260.94 239.93c3.93 1.73 8.36 3.2 10.75 7.06 2.25 2.79.43 5.04-2.28 6.39 3.69 1.67 4.84 6.51-.58 4.95 2.48 4.39 10.08 3.9 8.98-1.87-2.25.25-4.16-2.81-1.08-2.85 5.47 1.25 16.49-4.93 15.72 3.67a15.65 15.65 0 0 1-1.28 3.01c-2.22-2.43-5.15-.52-7.9-.93-2.67.97.99 3.84.85 5.8-2.64-.26-4.61-2.09-6.83-3.33 1.48 6.96-13.63 8.69-14.28 1.06 3.71-1.57 3.29-10.75-.77-5.9-1.19-2.57-2.09-7.27-5.01-7.73-4.82 4.22-5.15 11.54-3.44 17.36-2.38 2.72-5.41 4.74-8.24 6.96-2.88 2.03-3.93 5.95-7.38 7.32-2.6-3.61-5.46.88-8.01 2.31-1.54 1.19-3.22 2.23-5.05 2.92l-3.07-.05c.49-5.2-3.77-11.18-8.96-6.82 3.24-3.67 2.93-6.51-2.15-7.61-2.53-1.82-8.12-3.73-4.85-7.54 2.61-6.28 4.95 7.19 7.74 2.9.37-3.6 4.92-8.05 8.56-5.76 2.24.21 1.7 4.54 4.22 3.48 2.04-2.78 2.4-5.8.11-8.53l.8.07c2.55 2.23 7.26 1.79 8.02 5.67.93-.47 1.77-1.1 2.62-1.71-4.22 11.58 10.77 3.11 6.85-3.24 1.06-3.46-3.24-1.66-5.02-1.12 1.69-2.55 4.15-5.24.9-7.69 1.69-.41 3.38-.78 5.08-1.14 2.88 1.35.4 2.66-1.11 3.98 2.8-.78 6.02-3.15 8.31-.16 3.46-2.91 6.18-6.69 7.78-10.93m-30.78 27.47c.51 4.88 5.38-.11 0 0m.17 8.01c-2.67.8-5.4 1.5-8.17 1.84-1.54 3.68 5.54-1.9 5.06 2.64.86 6.36 10.37-7.3 3.11-4.48z"/><path fill="#474b52" d="M227.51 256.27c2.21-2.62.87-8.49 4.21-9.27-.9 7.03 5.6 2.15 9.16 1.18 3.25 2.45.79 5.14-.9 7.69-.71 1.41-1.24 2.9-1.83 4.36-.85.61-1.69 1.24-2.62 1.71-.76-3.88-5.47-3.44-8.02-5.67z"/><path fill="#3b3d45" opacity=".97" d="M271.69 246.99c2.01 1.19 4.07 2.33 6.23 3.25 4.99.88 10.35 1.58 15.25-.13 1.61 2.26-.1 4.87-.72 7.17.77-8.6-10.25-2.42-15.72-3.67-3.08.04-1.17 3.1 1.08 2.85 1.1 5.77-6.5 6.26-8.98 1.87 5.42 1.56 4.27-3.28.58-4.95 2.71-1.35 4.53-3.6 2.28-6.39z"/><path fill="#1e1e22" opacity=".87" d="M277.92 250.24c4.96.4 11.76-6.11 15.25-.13-4.9 1.71-10.26 1.01-15.25.13z"/><path fill="#44484d" d="M257.23 249.26c2.92.46 3.82 5.16 5.01 7.73l-1.59 4.86c-4.54 4.39-1.33 10.04-3.69 15.27 1.74-2.28 3.56-4.77 6.58-5.35-1.75-2.63-1.42-6.01-.53-8.88.65 7.63 15.76 5.9 14.28-1.06 2.22 1.24 4.19 3.07 6.83 3.33-4.07 3.15-5.67 8.63-11.23 9.87-1.9-.52-5.72-3.9-6.31-.59 2.69 8.34-6.78 4.27-7.94 9.63-3.57-3.3-7.12-6.4-12.58-6.29l-.51-4.2c2.83-2.22 5.86-4.24 8.24-6.96-1.71-5.82-1.38-13.14 3.44-17.36m-6.03 23.85c-3.3 1.88 1.06 5.69 3.15 3.23 2.13-2.03-1.38-3.39-3.15-3.23z"/><path fill="#7b838b" d="M168.65 255.83c1.62-1.53 3.42-2.85 5.31-4.01 1.48 4.14-2.18 8.82-5.31 4.01z"/><path fill="#484c54" d="M214 258.16c-2.26 7.42 6.92-1.81 6.16-4.86-1.91 8.66 4.63-3.46 6.55 2.9 2.29 2.73 1.93 5.75-.11 8.53-2.52 1.06-1.98-3.27-4.22-3.48-3.64-2.29-8.19 2.16-8.56 5.76-2.79 4.29-5.13-9.18-7.74-2.9-3.27 3.81 2.32 5.72 4.85 7.54-3.3 1.55-2.61 7.75-5.76 2.25 1.52 4.07-2.43 6.23-5.3 8.12-4.63.71-5.99-5.32-8.91-7.82 1.38-.4 2.75-.82 4.09-1.32 3.61-1.73 5.76-5.91 5-9.93-2.85-.7-5.12.71-7.44 1.84l-4.42.42c3.62-7.07-12.72 2.38-7.18-6.47 4.9 1.19 10.34 2.55 15.08.07 4.85 3.43 5.1-6.12 9.83-4.82 2.62.11 1.45 3.17 1.41 4.82 2.29 1.2 4.67.99 6.67-.65z"/><path fill="#8e919b" d="M239.98 255.87c1.78-.54 6.08-2.34 5.02 1.12 3.92 6.35-11.07 14.82-6.85 3.24l1.83-4.36z"/><path fill="#8b8f92" d="M262.24 256.99c4.06-4.85 4.48 4.33.77 5.9-1.46 1.07-2.54 1.16-2.36-1.04l1.59-4.86z"/><path fill="#38373d" opacity=".92" d="M283.27 259.36c2.75.41 5.68-1.5 7.9.93-2.68 1.23-6.19 1.53-7.05 4.87.14-1.96-3.52-4.83-.85-5.8z"/><path fill="#5e626d" d="M256.96 277.12c2.36-5.23-.85-10.88 3.69-15.27-.18 2.2.9 2.11 2.36 1.04-.89 2.87-1.22 6.25.53 8.88-3.02.58-4.84 3.07-6.58 5.35z"/><path fill="#8a8c97" d="M192.61 264.79c2.32-1.13 4.59-2.54 7.44-1.84.76 4.02-1.39 8.2-5 9.93.31-2.97-.93-5.63-2.44-8.09z"/><path fill="#4f544a" d="M175.9 264.95c2.7.12 5.38.57 8.05 1.05-.06 3.91 2.64 6.82 6.22 7.98-6.27 2.43-13.5-2.43-14.27-9.03z"/><path fill="#6c764c" d="M183.95 266l4.24-.79 4.42-.42c1.51 2.46 2.75 5.12 2.44 8.09l-4.09 1.32-.79-.22c-3.58-1.16-6.28-4.07-6.22-7.98z"/><path fill="#bec5b8" d="M230.16 267.4c5.38-.11.51 4.88 0 0z"/><path fill="#525757" d="M210.93 271.65c5.08 1.1 5.39 3.94 2.15 7.61 5.19-4.36 9.45 1.62 8.96 6.82-5.74-.99-13.38-6.93-11.11-14.43z"/><path fill="#81897b" d="M251.2 273.11c1.77-.16 5.28 1.2 3.15 3.23-2.09 2.46-6.45-1.35-3.15-3.23z"/><path fill="#6c757a" opacity=".96" d="M266.58 274.44c.59-3.31 4.41.07 6.31.59 1.1 4.18-3.14 5.67-5.75 7.93-2.29 2.19-5.66 2.24-8.5 1.11 1.16-5.36 10.63-1.29 7.94-9.63z"/><path fill="#5f653f" opacity=".94" d="M238.17 280.9c3.45-1.37 4.5-5.29 7.38-7.32l.51 4.2c-3.93 4.75-9.78 6.51-15.9 5.43 2.55-1.43 5.41-5.92 8.01-2.31z"/><path fill="#484b55" d="M230.33 275.41c7.26-2.82-2.25 10.84-3.11 4.48.48-4.54-6.6 1.04-5.06-2.64 2.77-.34 5.5-1.04 8.17-1.84z"/><path fill="#1e2229" opacity=".64" d="M189.82 286.19c3.88-.34 7.64-.09 11.27.75-3.8.09-7.55-.16-11.27-.75z"/><path fill="#5d5f63" opacity=".9" d="M205.51 290.03c2.64-1.52 5.6-2.2 8.64-2.07l-2.17 3.14-6.47-1.07z"/></svg>