<svg xmlns="http://www.w3.org/2000/svg" width="512" height="512" viewBox="0 0 384 384" xmlns:v="https://vecta.io/nano"><path fill="#404550" d="M155.06 92c6.81.46 13.73-.59 18.86-5.41-5.23 6.35 6.67 2.8 9.25 1.72 3.34 1.97 7.13 2.87 10.92 3.56-2.67-.33-4.69.14-3.58 3.14-1.27-.01-12.49-.87-6.84 2.26 8.08 1.39-2.37 9.23 1.36 13.71 2.23 3.46.61 7.76 2.66 11.15-3.25.38-5.03 1.66-4.34 5.09-.01 1.87-4.24-3.02-3.26-.41 1.03 4.71 5.37.28 7.59-1.07-.02 5.22-4.72 8.79-3 13.9-3.53-.9-6.6 5.4-2.69 6.33 3.86.18 4.59-7.61 7.95-4.83-.65 2.8-3.08 5.84-.48 8.37 1.11 3.82 7.54-6.2 3.4 4.19-5.1 1.42-13.48 8.48-7.04 13.38 1.81-3.07 4.83-3.07 8.06-2.23 1.92 5.01.23 9.52-2.19 13.93 2.16-1.03 4.93-2.93 4.82.95.29 6.2-6.16-.7-9.83 2.25-6.76-.13-2.37 6.93 1.73 7.68-.65 1.57-1.63 3-2.96 4.08-6.93-3.81-4.32 6.22-9.47 7.29-5.34 1.64 3.39 5.25 1.14 8.15-3.68 3.91 12.46 5.19-1.05 4.89-4.58-.16-8.34 5.92-6.41 9.88 1.27 2.2 2.48 4.45 3.39 6.83-3.03-2.74-9-4.14-7.17-9.72-.9-2.89-7.78 2.21-8.39-1.43 2.29-8.44-6.11-3.43-9.82-4.33-2.89-3.69 2.39-5.74 4.65-7.9.8-3.03 3.59-5.3 3.79-8.52-4.66.82-6.1 6.41-10.19 8.13-5.64-.35-3.35-8.06-5.05-11.96-2.87 1.86-5.64 4.05-7.1 7.24-1.67-6.49.47-13.93 5.22-18.65 6.98-.62.42 8.39 5.7 9.12 3.01-5.91 12.16-5.05 13.54-12.52 8.43 1.87 5.9-10.06 5.66-15.31-2.29 2.61-4.99 4.81-8.62 5.07.25-3.76-1.66-11.6-6.31-7.19-2.24-1.87-4.79-4.52-4.25.41-.83-1.85-.64-6.08-3.61-5.14-4.85.84-6.47 6.03-6.59 10.32l-.51-.68c-3.53-5.77 3.89-10.32 2.5-15.84l-.55-2.84c1.19-3.24 1.88-6.63 2.18-10.07.58-2.36 3.12-4.54 2.26-7.03-2.92-5.59-1.61-11.91-.24-17.75 1.7-4.97 6.38-7.79 10.14-11.04l.36-6.31c1.28-1.77 2.68-3.47 4.41-4.84m9.13 1.08c-6.72 5.07 7.81 7.1 7.75 2.08-2.25-1.47-5.04-2.43-7.75-2.08m6.05 10.83c2.2 3.43-1.96 4.72-2.87 7.61-2.88 4.28-.76 12.93 5.74 10.46.83 3.33 6.5.61 6.85-1.94 2.76-2.4 4.38-7.24 1.31-10.15.49-2.78-2.58-1.82-4.29-2.02-3.01-.73-2.76-4.97-6.74-3.96m-16.03 4.21c-2.22 3.23-6.99 6.95-3.02 10.84 7.54 3.48 10.77-11.73 3.02-10.84m23.07 24.15c-2.96 1.29-7.16 4.64-4.61 8.08 5.19 3.57 12.32-8.57 4.61-8.08m-11.33 20.75c-.74 3.14 2.25 4.98 4.96 5.31-.38 2.4-.82 5.26-3.92 4.98 1.64 3.91 5.01 8.68 9.94 7.67 2.91-3.29-.79-11.85-3.35-5.29-6.68.35 2.19-6.93 5.23-8.05-1.33-6.06-8.07-4.89-12.86-4.62m2.23 39.32c-4.94.53-10.11 12.62-.46 9.5 3.69-1.73 1.94-7.99.46-9.5z"/><path fill="#626779" opacity=".97" d="M173.92 86.59c1.93.99 4.14.69 6.11.04l3.14 1.68c-2.58 1.08-14.48 4.63-9.25-1.72z"/><path fill="#60666c" d="M190.51 95.01c-1.11-3 .91-3.47 3.58-3.14 3.7 1.94 6.98 4.66 8.96 8.39 2.02 1.47 4.24 1.72 6.68.73 2.2 3.73 6.59 3.38 10.43 3.82l.82 1.16c-1.92 6.49 7.06 3.74 8.68 8.81-1.91 2.61-4.38 4.71-6.47 7.16-.93-4.49-2.15-8.99-4.17-13.11-1.47-1.18-3.15-2.08-4.91-2.75-3.82 3.09-1.04 10.59-4.97 12.86-1.36-4.16.36-14.05-7.08-9.76 4.23 4.56-2.53 2.79-2.56 7.34-5.98-.02-1.37 5.92-2.04 9.57-2.35-1.71-3.88 2.6-5.37 4.03.42 5.02 10.97 2.21 10.22 8.25-1.34 4.28 4.09 2.79 6.58 3.34l2.29.93c-4.57.34-4.35 3.39-2.33 6.63-3.59-.14-4.73-3.44-6.12-6.13-5.99-3.04 1.07 11.18-4.29 6.16-3.56 1.61-1.96 4.04.49 5.88-.6 3.65-1.9 7.45-5.05 9.67-3.23-.84-6.25-.84-8.06 2.23-6.44-4.9 1.94-11.96 7.04-13.38 4.14-10.39-2.29-.37-3.4-4.19-2.6-2.53-.17-5.57.48-8.37-3.36-2.78-4.09 5.01-7.95 4.83-3.91-.93-.84-7.23 2.69-6.33-1.72-5.11 2.98-8.68 3-13.9-2.22 1.35-6.56 5.78-7.59 1.07-.98-2.61 3.25 2.28 3.26.41-.69-3.43 1.09-4.71 4.34-5.09-2.05-3.39-.43-7.69-2.66-11.15-3.73-4.48 6.72-12.32-1.36-13.71-5.65-3.13 5.57-2.27 6.84-2.26m.73 11.99c-.06 2.65-3.15 7.57 1.4 7.47 4.92 2.62 2.94-8.14-1.4-7.47m-.03 52.14c-1.3.53-2.19 4.33-.22 3.87 3.65 1 4.41-6.02.22-3.87z"/><path fill="#6b7184" d="M164.19 93.08c2.71-.35 5.5.61 7.75 2.08.06 5.02-14.47 2.99-7.75-2.08z"/><path fill="#2b2f34" opacity=".66" d="M203.05 100.26c2.27-1.25 4.49-1 6.68.73-2.44.99-4.66.74-6.68-.73z"/><path fill="#60647a" d="M170.24 103.91c3.98-1.01 3.73 3.23 6.74 3.96-3.8-.49-4.19 2.74-3.84 5.63-3.45 2.25-.8 5.49-.03 8.48-6.5 2.47-8.62-6.18-5.74-10.46.91-2.89 5.07-4.18 2.87-7.61z"/><path fill="#74797e" d="M214.11 106.08c1.76.67 3.44 1.57 4.91 2.75-5.26-1.4-7.67 6.16-4.28 9.4 1.82 2.94 5.28 3.57 8.45 3.71-6.67 6.08 8.16.15 6.59 6.78-2.32 3.46-5.87 2.77-3.82-1.63-2.19.92-4.48 1.37-6.85 1.06.95 1.43 1.98 2.8 2.9 4.26-1.63 2.09 3.67 1.79 1.83 5.24-1.5 4.53.76 8.26 5.24 9.63-2.42 1.21-3.88 3.04-4.23 5.75-5.27-1.45-15.9-1.64-15.87 5.83 3.78 1.93 7.46-2.19 10.94.38 4.65 3.52-6.38 11.74-2.64 5.08.19-3.67-3.07-1.12-3.26 1.42.53-8.54-9.65-1.55-4.14 2.58-.72 2.75-2.01 5.46-1.82 8.37 3.35-.06 2.1 4.42 4.93 4.32.38-.09 1.75-9.73-1.56-6.84-3.65 2.64.2-5.76 2.36-4.77 1.33 1.46.9 3.83 1.4 5.65-4.36 9.85 5.25 16.59 13.61 19.2-1.11 2.79-4.22 4.54-5.98 7.06-2.33 3.6 2.38 7.01.01 10.71-7.75-.72.14-11.21-6.85-13.16-2.2 1.03-2.29 4.19-3.39 6.19-2.6 3.86 3.62 3.4 0 0 3.67.32 5.19-2.47 4.38 4.66-7.16.04-14.22-1.91-21.37-1.51-3.83-2.77-3.65 4.28-6.74 5.39-6.51-1.11.72-6.57 3.09-8.66 4.97-2.34-4.7-6-.76-8.74 1.75-2.28 4.86.48 7.19.54-7.27-4.16.61-11.56-1.87-17 .11-3.88-2.66-1.98-4.82-.95 2.42-4.41 4.11-8.92 2.19-13.93 3.15-2.22 4.45-6.02 5.05-9.67-2.45-1.84-4.05-4.27-.49-5.88 5.36 5.02-1.7-9.2 4.29-6.16 1.39 2.69 2.53 5.99 6.12 6.13.91.67 1.8 1.36 2.75 1.99 3.05 2.12 6.31-1.43 8.23-3.61 2.09-5.7-6-9.24-2.83-14.56-1.3-5.28-6.02-1.48-6.15 2.28-.55-4.28-3.23-8.16-8.04-7.37-2.08 1.25-4.5.36-5.35-1.91.67-3.65-3.94-9.59 2.04-9.57.03-4.55 6.79-2.78 2.56-7.34 7.44-4.29 5.72 5.6 7.08 9.76 3.93-2.27 1.15-9.77 4.97-12.86m-7.9 82.04c-3.24 2.76 1.86 1.77 3.78 1.84.99-2.84-2.07-1.95-3.78-1.84m-12.2 9.9c-.93 7.69 8.79-2.13 0 0z"/><path fill="#9297a5" d="M191.24 107c4.34-.67 6.32 10.09 1.4 7.47-4.55.1-1.46-4.82-1.4-7.47z"/><path fill="#5c6278" d="M154.21 108.12c7.75-.89 4.52 14.32-3.02 10.84-3.97-3.89.8-7.61 3.02-10.84z"/><path fill="#9397a5" d="M173.14 113.5c-.35-2.89.04-6.12 3.84-5.63 1.71.2 4.78-.76 4.29 2.02-.19 3.5-2.58 6.58-1.31 10.15-.35 2.55-6.02 5.27-6.85 1.94-.77-2.99-3.42-6.23.03-8.48z"/><path fill="#9da1b0" d="M214.74 118.23c-3.39-3.24-.98-10.8 4.28-9.4 2.02 4.12 3.24 8.62 4.17 13.11-3.17-.14-6.63-.77-8.45-3.71z"/><path fill="#787e6c" d="M181.27 109.89c3.07 2.91 1.45 7.75-1.31 10.15-1.27-3.57 1.12-6.65 1.31-10.15z"/><path fill="#4f4f56" opacity=".97" d="M229.66 114.78c3.18 2.92 3.6 6.96 1.94 10.89 4.03 1.61 11.57 6.27 6.86 10.74-5.09-2.44-10.69-4.98-16.45-4-.92-1.46-1.95-2.83-2.9-4.26 2.37.31 4.66-.14 6.85-1.06-2.05 4.4 1.5 5.09 3.82 1.63 1.57-6.63-13.26-.7-6.59-6.78 2.09-2.45 4.56-4.55 6.47-7.16z"/><path fill="#505757" d="M192.09 130.12c1.49-1.43 3.02-5.74 5.37-4.03.85 2.27 3.27 3.16 5.35 1.91 4.81-.79 7.49 3.09 8.04 7.37-.45 2.17-1.3 4.23-1.96 6.34-2.49-.55-7.92.94-6.58-3.34.75-6.04-9.8-3.23-10.22-8.25z"/><path fill="#7e874a" d="M210.85 135.37c.13-3.76 4.85-7.56 6.15-2.28-3.17 5.32 4.92 8.86 2.83 14.56-1.92 2.18-5.18 5.73-8.23 3.61-1.61-3.31 2.64-3.41 3.39-6.08-1.14-1.03-2.37-1.99-3.81-2.54l-2.29-.93c.66-2.11 1.51-4.17 1.96-6.34z"/><path fill="#696e78" d="M177.28 132.27c7.71-.49.58 11.65-4.61 8.08-2.55-3.44 1.65-6.79 4.61-8.08z"/><path fill="#34343a" opacity=".97" d="M222.01 132.41c5.76-.98 11.36 1.56 16.45 4-.34.19-1 .59-1.33.78a185.68 185.68 0 0 1-8.19-.24c-1.48-.17-3.7-1.73-4.25.51l-.85.19c1.84-3.45-3.46-3.15-1.83-5.24z"/><path fill="#101012" opacity=".63" d="M228.94 136.95l8.19.24c-2.49 1.72-5.56.35-8.19-.24z"/><path fill="#5a5e69" d="M229.08 147.28c-4.48-1.37-6.74-5.1-5.24-9.63l.85-.19c6.11 4.92 9.7 12.04 11.76 19.46-.92 1.99-1.23 4.37-.04 6.33-2.22 1.26-4.28.21-5.97-1.33.3 1.44.11 2.5-1.68 2.09-.33-2.88 2-3.15 4.28-3.36-.57-2.32-1.75-5.5-4.75-4.65-.43 2.71-1.3 5.41-1.5 8.17-4.12.32-3.47 1.71-.59 3.86-2.02 4.38-5.17.56-6.8-.85.48 3.31-5.16 5.36-1.56 7.85l-2.65.02c-.5-1.82-.07-4.19-1.4-5.65-2.16-.99-6.01 7.41-2.36 4.77 3.31-2.89 1.94 6.75 1.56 6.84-2.83.1-1.58-4.38-4.93-4.32-.19-2.91 1.1-5.62 1.82-8.37 1.36-.89 2.76-1.72 4.14-2.58.19-2.54 3.45-5.09 3.26-1.42-3.74 6.66 7.29-1.56 2.64-5.08-3.48-2.57-7.16 1.55-10.94-.38-.03-7.47 10.6-7.28 15.87-5.83.35-2.71 1.81-4.54 4.23-5.75z"/><path fill="#929a8d" d="M208.85 149.27c-2.02-3.24-2.24-6.29 2.33-6.63 1.44.55 2.67 1.51 3.81 2.54-.75 2.67-5 2.77-3.39 6.08l-2.75-1.99z"/><path fill="#575d6b" d="M165.95 153.02c4.79-.27 11.53-1.44 12.86 4.62-3.04 1.12-11.91 8.4-5.23 8.05 2.56-6.56 6.26 2 3.35 5.29-4.93 1.01-8.3-3.76-9.94-7.67 3.1.28 3.54-2.58 3.92-4.98-2.71-.33-5.7-2.17-4.96-5.31z"/><path fill="#888c9c" d="M228.29 156c3-.85 4.18 2.33 4.75 4.65-2.28.21-4.61.48-4.28 3.36l-1.97.16c.2-2.76 1.07-5.46 1.5-8.17z"/><path fill="#2a2b2e" opacity=".61" d="M236.45 156.92l.57 6.18-.61.15c-1.19-1.96-.88-4.34.04-6.33z"/><path fill="#595d73" d="M134.51 168.4c.12-4.29 1.74-9.48 6.59-10.32 2.97-.94 2.78 3.29 3.61 5.14-.9 3.31 3.77 9.74-1.34 11.21-4.32 2.11-6.88-3.12-8.86-6.03z"/><path fill="#8b9392" d="M191.21 159.14c4.19-2.15 3.43 4.87-.22 3.87-1.97.46-1.08-3.34.22-3.87z"/><path fill="#2e2f35" d="M144.71 163.22c-.54-4.93 2.01-2.28 4.25-.41 4.65-4.41 6.56 3.43 6.31 7.19 3.63-.26 6.33-2.46 8.62-5.07.24 5.25 2.77 17.18-5.66 15.31-1.38 7.47-10.53 6.61-13.54 12.52-5.28-.73 1.28-9.74-5.7-9.12 2.4-2.34-1.67-3.83-2.9-5.6-.33-1.36-.64-2.74-1.19-4.03l-.85-2.02-.05-4.27.51.68c1.98 2.91 4.54 8.14 8.86 6.03 5.11-1.47.44-7.9 1.34-11.21z"/><path fill="#9598a6" d="M209.88 168.32c-5.51-4.13 4.67-11.12 4.14-2.58l-4.14 2.58z"/><path fill="#3e404a" d="M230.44 161.92c1.69 1.54 3.75 2.59 5.97 1.33l.61-.15 1.04 1.84c3.48 2.08 8.85.6 13.16.94l1.7.2 6.27.54c5.55 2.4 12.05 4.43 15.59 9.66 2.95 9.23-7.74 12.57-13.56 16.27 1.08-6.58-4.24-5.39-8.12-5.34-4.02-.19 1.53 5.13-1.81 5.42-4.51.24-5.12-4.57-8.1-6.76-2.37 5.03-6.59 1.88-10.03.07-2.46 2.46-1.56 6.56.78 8.75-1.72 2.01-7.39 3.89-4.9 6.88-1.84.67-5.36 2.38-6.22-.26 1.76-2.52 4.87-4.27 5.98-7.06-8.36-2.61-17.97-9.35-13.61-19.2l2.65-.02c-3.6-2.49 2.04-4.54 1.56-7.85 1.63 1.41 4.78 5.23 6.8.85-2.88-2.15-3.53-3.54.59-3.86l1.97-.16c1.79.41 1.98-.65 1.68-2.09m3.3 12.87c-4.38-4.11-8.6 1.53-8.63 6.01 1.61 2.41 4.45-.3 6.62-.51.17 3.82 4.74-3.22 4.4 1.61 2.68 6.38 8.64-1.23 12.87 3.08 1.23 3.46 5.48-5.9 6.36-1.23 3.92-.8 8.33 3.08 11.53-.81 5.09-2.84-1.56-13.3-6.63-9.41-1.87-5.95-11.56-6.18-12.59.29-2.29-.1-2.56-3.77-5.44-2.03-1.71-4.9-9.02-1.73-8.49 3z"/><path fill="#191a1e" opacity=".61" d="M252.92 166.08l6.27.54-6.27-.54z"/><path fill="#545767" d="M233.74 174.79c-.53-4.73 6.78-7.9 8.49-3 2.88-1.74 3.15 1.93 5.44 2.03 1.03-6.47 10.72-6.24 12.59-.29-3.26 2.67-7.09.1-10.15-1.5-2.52 3.85-2.1 8.7-1.11 12.95-4.23-4.31-10.19 3.3-12.87-3.08.34-4.83-4.23 2.21-4.4-1.61-2.17.21-5.01 2.92-6.62.51.03-4.48 4.25-10.12 8.63-6.01z"/><path fill="#737580" d="M250.11 172.03c3.06 1.6 6.89 4.17 10.15 1.5 5.07-3.89 11.72 6.57 6.63 9.41-3.2 3.89-7.61.01-11.53.81-.88-4.67-5.13 4.69-6.36 1.23-.99-4.25-1.41-9.1 1.11-12.95z"/><path fill="#555d62" d="M196.51 179.73c2.48 5.44-5.4 12.84 1.87 17-2.33-.06-5.44-2.82-7.19-.54-3.94 2.74 5.73 6.4.76 8.74-2.37 2.09-9.6 7.55-3.09 8.66.58 2.01 3.52 5.67-.54 4.2-1.62-1.35-3.55-2.27-5.59-2.79-6.15-1.56-1.17 2.98-2.64 6.18-3.65-3.36-8.69-1.67-10.43 2.77-1.93-3.96 1.83-10.04 6.41-9.88 13.51.3-2.63-.98 1.05-4.89 2.25-2.9-6.48-6.51-1.14-8.15 5.15-1.07 2.54-11.1 9.47-7.29-3.12-1.11-3.74 5.61-.45 4.27 2.09.22.2-3 .45-4.27 1.33-1.08 2.31-2.51 2.96-4.08 2.96-2.75.04-5.34-1.73-7.68 3.67-2.95 10.12 3.95 9.83-2.25z"/><path fill="#717a85" d="M188.41 189.66c-4.1-.75-8.49-7.81-1.73-7.68 1.77 2.34 4.69 4.93 1.73 7.68z"/><path fill="#303037" opacity=".97" d="M233.16 185.94c3.44 1.81 7.66 4.96 10.03-.07 2.98 2.19 3.59 7 8.1 6.76 3.34-.29-2.21-5.61 1.81-5.42 3.88-.05 9.2-1.24 8.12 5.34-7.01 4.81-16.12-1.21-23.24 3.36l-.82.32-.75-.33c-.61-.31-1.85-.91-2.47-1.21-2.34-2.19-3.24-6.29-.78-8.75z"/><path fill="#a5aab4" d="M206.21 188.12c1.71-.11 4.77-1 3.78 1.84-1.92-.07-7.02.92-3.78-1.84z"/><path fill="#616879" d="M168.18 192.34c1.48 1.51 3.23 7.77-.46 9.5-9.65 3.12-4.48-8.97.46-9.5z"/><path fill="#848a9d" d="M185 198.01c-3.29 1.34-2.67-5.38.45-4.27-.25 1.27 1.64 4.49-.45 4.27z"/><path fill="#34363e" d="M133.77 202.29c1.46-3.19 4.23-5.38 7.1-7.24 1.7 3.9-.59 11.61 5.05 11.96 4.09-1.72 5.53-7.31 10.19-8.13-.2 3.22-2.99 5.49-3.79 8.52-2.26 2.16-7.54 4.21-4.65 7.9 3.71.9 12.11-4.11 9.82 4.33.61 3.64 7.49-1.46 8.39 1.43-1.83 5.58 4.14 6.98 7.17 9.72l.49.35c3.72 2.72 9.35 2.4 9.7 8.26-4.99 1.29-3.79-6.24-9.38-4.21-3.31-1.71-6.65-3.38-9.77-5.42-4.66-2.74-9.35 4.29-10.13 8.25-4.09 10.3 5.42 19.12 14.45 21.58 2.94 2.06 5.37-1.99 8.03-.13 1.87 1.12 4.84-4.61 4.56-.71-5.48 8.83 10.76-.61 7.2 6.47-1.42.28-2.84.55-4.27.77-2.67-.45-5.34-.87-8.03-1.04.79 6.61 7.97 11.41 14.27 9.05l.79.21c2.43 4.48 8.66 12.31 12.62 4.51.49-4.41 4.88-4.27 7.37-6.96-2.7 7.87 4.8 12.27 10.02 14.29 1.37.06 2.75.09 4.14.08l-10.96 1.82c-3.03-.1-5.97.6-8.63 2.04-1.75-.52-2.92-2.09-4.44-3.03-3.63-.83-7.38-1.08-11.25-.77-3.48-2.09-5.91-5.68-9.73-7.21-6.4-13.59-22.71-15.01-33.05-24-.84-2.25-1.61-4.52-2.1-6.87a81.65 81.65 0 0 0-1.03-4.89c3.32-9.97-3.64-18.06-5.93-27.26l.02-2.98c.04-2.12.22-4.53-1.6-6.01-1.19-1.37-2.43-2.8-2.64-4.68z"/><path fill="#858789" d="M229.04 201.57c-2.49-2.99 3.18-4.87 4.9-6.88l2.47 1.21c-.37 3.7-3.54 6.85-7.37 5.67z"/><path fill="#65696d" d="M236.41 195.9l.75.33c-.11 3.61-.11 7.25-.01 10.86-1.8.56-1.52 2.71-.86 4.04-.99 3.75-2.25 7.47-4.1 10.89 1.01-3.43-4.32-3.49-5.78-1.74.09 2.45-1.33 6.58 2.6 5.97-5.62 4.81-5.71 11.74-5.35 18.59-.18 3.26.1 7.16-3.43 8.49-1.37 2.37-1.92 5.35-4.22 7.17-5.24-2.59 3.16-5.9-1.01-8.92 3.97-4.39 7.99-11.27 4.34-16.89-3.34-2.01-7.45-1.31-9.07 2.46.49 4.26 4.12 7.01 5.82 10.71-3.61 1.64-8.64 1.83-7.25 7.17l-.67-.1c-6.22-5.71-6.53 7.14-11.14 3.88l-1.35-.75c3.23-2.73 1.77-6.98 3.54-9.98 3.65.5 7.49 1.18 10.59-1.42 3.14-5.88-5.55-6.98-7-2.51-5-1.98 3.53-5.32-.67-7.25-2.71-1.02 2.37-4.26-.09-4.74-3.54-.08.5-3.87-.05-5.95-1.95-.54-4.05-1.42-6-.4 3.19 2.24 4.44 6.25-.77 4.3 2.09 5.72-2.02 7.99-5.27 10.98 1.56 5.5 1.54 11.3 3.04 16.82-2.62-2.85-11.39-6.89-5.36-10.29 1.77-3.15 2.91-9.26-.44-11.78-.02 1.48.05 2.98.04 4.47l-1.86-.46-2.14-.46c-.35-5.86-5.98-5.54-9.7-8.26 4.42-1.87 8.22.99 12.36 1.82 1.19-4.42-4.29-7.75-5.81-11.77 1.47-3.2-3.51-7.74 2.64-6.18-1.27 4.48.4 8.93 2.73 12.73 5.52 1.09 4.59-6.71 2.86-9.94 4.06 1.47 1.12-2.19.54-4.2 3.09-1.11 2.91-8.16 6.74-5.39 7.15-.4 14.21 1.55 21.37 1.51.81-7.13-.71-4.34-4.38-4.66 1.1-2 1.19-5.16 3.39-6.19 6.99 1.95-.9 12.44 6.85 13.16 2.37-3.7-2.34-7.11-.01-10.71.86 2.64 4.38.93 6.22.26 3.83 1.18 7-1.97 7.37-5.67m-38.28 16.05c.47 2.04.46 4.1 0 6.14 3.46-1.6 10.94-.69 9.9-6.07-5.45 1.23-5.88 1.54-9.9-.07m23.11 2.23c-2.8 1.42 1.06 5.76 3.11 3.16 2.04-1.85-1.11-4.35-3.11-3.16z"/><path fill="#b0b3b2" d="M194.01 198.02c8.79-2.13-.93 7.69 0 0z"/><path fill="#d1d6c2" d="M212.59 205.05c-2.6 3.86 3.62 3.4 0 0z"/><path fill="#2b2c2f" opacity=".63" d="M236.29 211.13c-.66-1.33-.94-3.48.86-4.04.28 1.41.13 2.92-.86 4.04z"/><path fill="#8c909c" d="M198.13 211.95c4.02 1.61 4.45 1.3 9.9.07 1.04 5.38-6.44 4.47-9.9 6.07.46-2.04.47-4.1 0-6.14z"/><path fill="#8f949c" d="M221.24 214.18c2-1.19 5.15 1.31 3.11 3.16-2.05 2.6-5.91-1.74-3.11-3.16z"/><path fill="#8c8c99" d="M182.73 215c2.04.52 3.97 1.44 5.59 2.79 1.73 3.23 2.66 11.03-2.86 9.94-2.33-3.8-4-8.25-2.73-12.73z"/><path fill="#60694e" d="M169.66 223.95c1.74-4.44 6.78-6.13 10.43-2.77 1.52 4.02 7 7.35 5.81 11.77-4.14-.83-7.94-3.69-12.36-1.82l-.49-.35c-.91-2.38-2.12-4.63-3.39-6.83z"/><path fill="#8b8c93" d="M226.41 220.28c1.46-1.75 6.79-1.69 5.78 1.74-.96 1.49-2.08 2.85-3.18 4.23-3.93.61-2.51-3.52-2.6-5.97z"/><path fill="#7d8186" d="M196 225.81c1.95-1.02 4.05-.14 6 .4.55 2.08-3.49 5.87.05 5.95 2.46.48-2.62 3.72.09 4.74 4.2 1.93-4.33 5.27.67 7.25 1.45-4.47 10.14-3.37 7 2.51-3.1 2.6-6.94 1.92-10.59 1.42-1.77 3-.31 7.25-3.54 9.98l-2.68-.15c-1.5-5.52-1.48-11.32-3.04-16.82 3.25-2.99 7.36-5.26 5.27-10.98 5.21 1.95 3.96-2.06.77-4.3z"/><path fill="#575d64" d="M153.96 238.01c.78-3.96 5.47-10.99 10.13-8.25-2.91.49-4.34 3.93-1.12 5.24 7.12 6.03-5.25 15.49 1.24 21.99 1.55-.07 3.02-.62 4.49-1.08 3.25 4.74 6.76-.12 5.19-4.2 4.46-1.32 8.83-4.74 2.07-6.71 1.48-2.71.73-6.52-1.65-8.47l-.45-1.35c5.59-2.03 4.39 5.5 9.38 4.21l2.14.46c-1.75 2.32 2.57 3.27 1.86.46.01-1.49-.06-2.99-.04-4.47 3.35 2.52 2.21 8.63.44 11.78-6.03 3.4 2.74 7.44 5.36 10.29l2.68.15c.34.18 1.01.56 1.35.75-5.21 1.8-10.78 1.65-16.03-.06.28-3.9-2.69 1.83-4.56.71-2.66-1.86-5.09 2.19-8.03.13-9.03-2.46-18.54-11.28-14.45-21.58z"/><path fill="#67714c" d="M162.97 235c-3.22-1.31-1.79-4.75 1.12-5.24 3.12 2.04 6.46 3.71 9.77 5.42l.45 1.35-7.23 2.14c-.59 2.85 1.66 5.1 3.18 7.22 1.94-.22 3.68-1.57 5.7-.89 6.76 1.97 2.39 5.39-2.07 6.71-2.05.96-3.68 2.56-5.19 4.2-1.47.46-2.94 1.01-4.49 1.08-6.49-6.5 5.88-15.96-1.24-21.99z"/><path fill="#141518" opacity=".65" d="M278.01 233a21.2 21.2 0 0 1 10.29-.23l-.98.04-9.31.19z"/><path fill="#818686" d="M210.27 237.15c1.62-3.77 5.73-4.47 9.07-2.46-3.18.12-6.3 1.05-7.45 4.33 1.74 4.29 8.72-.38 7.45-4.33 3.65 5.62-.37 12.5-4.34 16.89-2.6 1.62-2.83 7.38-6.16 3.45-1.39-5.34 3.64-5.53 7.25-7.17-1.7-3.7-5.33-6.45-5.82-10.71z"/><path fill="#3d3e4a" d="M278.01 233l9.31-.19c.38 3.9-4.31 2.32-6.35 4.46 1.35 2.21 3.93 2.96 6.18 3.9-1.62.82-3.32 1.46-4.99 2.15l-6.34.28c-2.09.15-3.53 1.48-4.18 3.42-.86-5.87-7.14-4.85-11.4-7-1.23 2.52-7.57 9.49-5.67 2.57-2.42 2.41-3.51 7.05-7.67 4.31 1.88-5.63 8.75-7.82 14.14-7.76 7.32 2.97 4.09-2.35 3.88-5.11 4.38-.02 8.76-.22 13.09-1.03m-7.93 4.39c-3.61 5.66 8.49 6.04 7.78.82-1.88-2.22-5.23.64-7.78-.82z"/><path fill="#57595d" opacity=".95" d="M287.32 232.81l.98-.04c5.92.28 3.47 7.69-1.15 8.4-2.25-.94-4.83-1.69-6.18-3.9 2.04-2.14 6.73-.56 6.35-4.46z"/><path fill="#292b31" opacity=".96" d="M243.24 242.28c5.42-4.33 11.54-7.73 18.57-8.43l3.11.18c.21 2.76 3.44 8.08-3.88 5.11-5.39-.06-12.26 2.13-14.14 7.76-4.97 1.01-9.75 2.68-14.62 4.03-.57-1.42.4-4.86-2.13-3.74-.76 2.46-.37 7.54-3.84 7.31-3.55-1.52-7.77 5.64-6.08-1.17 3.53-1.33 3.25-5.23 3.43-8.49l.51 2.04c6.47-.98 13.85.12 19.07-4.6z"/><path fill="#afb1b6" d="M211.89 239.02c1.15-3.28 4.27-4.21 7.45-4.33 1.27 3.95-5.71 8.62-7.45 4.33z"/><path fill="#808772" d="M167.08 238.67l7.23-2.14c2.38 1.95 3.13 5.76 1.65 8.47-2.02-.68-3.76.67-5.7.89-1.52-2.12-3.77-4.37-3.18-7.22z"/><path fill="#666772" d="M270.08 237.39c2.55 1.46 5.9-1.4 7.78.82.71 5.22-11.39 4.84-7.78-.82z"/><path fill="#b3b2ba" d="M185.38 239.85l1.86.46c.71 2.81-3.61 1.86-1.86-.46z"/><path fill="#62656e" d="M254.57 242.59c-1.9 6.92 4.44-.05 5.67-2.57 4.26 2.15 10.54 1.13 11.4 7 2.31 2.82.25 5-2.21 6.6 3.02 1.13 5.67 5.95.53 5.74 2.86 3.48 6.05 2.12 8.22-1.31-1.42-1.41-5.05-4.04-1.25-4.63 5.35 1.17 13.81-4.16 16.59.75-.6 2.08-1.23 4.19-2.35 6.06-3.78-3.34-10.27-.21-7.14 5.01-2.75.11-4.56-1.91-6.52-3.47 1.32 5.75-6.25 7.12-10.33 6.16 1.32 2.81 2.34 6.31 5.67 7.29 1.07 4.08-3.22 5.5-5.7 7.77-2.33 1.83-5.97 3.12-8.63 1.37-1.36-5.72 11.16-1.52 7.78-9.35.83-2.45.03-4.52-2.04-5.95 1.89-1.24.92-2.83-.44-4.02-2.78.95-.62 4.43-.58 6.52-2.15 1.68-4.17 3.52-6.16 5.38-4.45-5.84 1.78-9.92 3.48-15.1.99 5.12 7.16-2.97 4.59-5.9-.54-3.65-2.35-.67-2.72 1.25-1.14-2.53-2.62-4.9-3.64-7.48 3.28-3.65 7.92 3.74 11.14.09-.12-6.37-10.54-8.06-11.54-1.06-3.16 1.4-4.11 4.54-5.04 7.56-.95-11.16-2.54 5.46-8.15 1.86.93-5.09-4.92-3.22-6.44-.28 1.75-4.17 4.74-7.99 8.14-10.98 4.16 2.74 5.25-1.9 7.67-4.31z"/><path fill="#797b87" d="M258.39 248.74c1-7 11.42-5.31 11.54 1.06-3.22 3.65-7.86-3.74-11.14-.09l-.4-.97z"/><path fill="#44474e" d="M230.15 247.19c2.53-1.12 1.56 2.32 2.13 3.74 4.87-1.35 9.65-3.02 14.62-4.03-3.4 2.99-6.39 6.81-8.14 10.98-.82 3.25-4.02 5.72-4.73.92 2.94-7.58-8.44-3.32-9.51 1.51-1.66-2.65-11.05 3.67-8.51.19 2.3-1.82 2.85-4.8 4.22-7.17-1.69 6.81 2.53-.35 6.08 1.17 3.47.23 3.08-4.85 3.84-7.31z"/><path fill="#383a41" opacity=".98" d="M271.64 247.02c2.31 1.3 4.69 2.53 7.22 3.37 4.41.92 9.29 1.01 13.24-1.4 1.17 1.48 2.38 3.25 1.42 5.18-2.78-4.91-11.24.42-16.59-.75-3.8.59-.17 3.22 1.25 4.63-2.17 3.43-5.36 4.79-8.22 1.31 5.14.21 2.49-4.61-.53-5.74 2.46-1.6 4.52-3.78 2.21-6.6z"/><path fill="#1d1d21" opacity=".87" d="M278.86 250.39c4.39-.6 9.02-4.71 13.24-1.4-3.95 2.41-8.83 2.32-13.24 1.4z"/><path fill="#404549" d="M253.35 256.3c.93-3.02 1.88-6.16 5.04-7.56l.4.97c1.02 2.58 2.5 4.95 3.64 7.48l-1.87 4.65c-1.7 5.18-7.93 9.26-3.48 15.1 1.99-1.86 4.01-3.7 6.16-5.38-.04-2.09-2.2-5.57.58-6.52 1.36 1.19 2.33 2.78.44 4.02 2.07 1.43 2.87 3.5 2.04 5.95 3.38 7.83-9.14 3.63-7.78 9.35-3.2-4-7.15-6.43-12.45-6.58l-.54-4.26c2.14-1.87 4.52-3.45 6.67-5.31 4.01-2.72-1.21-8.11 1.15-11.91m-2.15 16.81c-3.29 1.88 1.05 5.68 3.14 3.23 2.14-2.04-1.37-3.38-3.14-3.23z"/><path fill="#7b8389" d="M168.7 255.91c1.51-1.64 3.14-3.24 5.19-4.2 1.57 4.08-1.94 8.94-5.19 4.2z"/><path fill="#585b5f" d="M208.84 255.03c3.33 3.93 3.56-1.83 6.16-3.45 4.17 3.02-4.23 6.33 1.01 8.92-2.54 3.48 6.85-2.84 8.51-.19 1.07-4.83 12.45-9.09 9.51-1.51-8.48-.65-4.85 10.04-11.03 13.26.72-2.38.97-8.24-3-6.07-2.21 1.64-2.26-1.63-3.24-2.94-3.8-1.32-1.36 6.8-5.13 4.48-1.18-2.86-3.68-4.17-6.46-2.46 3.5-3.88-2.13-7.65 3-10.14l.67.1z"/><path fill="#6e7076" d="M245.2 258.16c5.61 3.6 7.2-13.02 8.15-1.86-2.36 3.8 2.86 9.19-1.15 11.91-2.15 1.86-4.53 3.44-6.67 5.31-2.7 1.92-4.51 4.78-7.19 6.71-3.36-2.06.55-9.37-4.8-7.98-.57 3.97-10.43 7.24-9.94 1.89-1.1-3.6-2.19 3-2.59 5.01-2.62-1.63-5.34-1.65-7.92.05 3.22-3.6 2.95-6.47-2.14-7.44-1.75-2.33-5.63-3.58-5.78-6.69 2.78-1.71 5.28-.4 6.46 2.46 3.77 2.32 1.33-5.8 5.13-4.48.98 1.31 1.03 4.58 3.24 2.94 3.97-2.17 3.72 3.69 3 6.07 6.18-3.22 2.55-13.91 11.03-13.26.71 4.8 3.91 2.33 4.73-.92l-.61 8.29c4.48.13 7.29-3.79 7.05-8.01m-15.04 9.24c.5 4.89 5.38-.12 0 0m-13 5.76c-1 4.64 4.64-1 0 0z"/><path fill="#474c56" d="M197.03 258.81c4.61 3.26 4.92-9.59 11.14-3.88-5.13 2.49.5 6.26-3 10.14.15 3.11 4.03 4.36 5.78 6.69-2.49 2.69-6.88 2.55-7.37 6.96-3.96 7.8-10.19-.03-12.62-4.51 1.38-.4 2.75-.83 4.1-1.34 3.6-1.74 5.74-5.9 5-9.92-2.81-.58-5.11.72-7.45 1.81l-4.41.46c3.56-7.08-12.68 2.36-7.2-6.47 5.25 1.71 10.82 1.86 16.03.06z"/><path fill="#8a8d8f" d="M262.43 257.19c.37-1.92 2.18-4.9 2.72-1.25 2.57 2.93-3.6 11.02-4.59 5.9l1.87-4.65z"/><path fill="#8f929c" d="M238.76 257.88c1.52-2.94 7.37-4.81 6.44.28.24 4.22-2.57 8.14-7.05 8.01.13-2.81.43-5.51.61-8.29z"/><path fill="#323137" opacity=".9" d="M284.03 265.24c-3.13-5.22 3.36-8.35 7.14-5.01-2.72 1.27-6.16 1.71-7.14 5.01z"/><path fill="#3e4045" opacity=".97" d="M277.51 261.77c1.96 1.56 3.77 3.58 6.52 3.47-1.06 1.15-2.39 1.98-3.65 2.89-3.4-2.31-7.92.73-4.5 5.2l-3.03 1.89c-3.33-.98-4.35-4.48-5.67-7.29 4.08.96 11.65-.41 10.33-6.16z"/><path fill="#8a8c97" d="M192.61 264.76c2.34-1.09 4.64-2.39 7.45-1.81.74 4.02-1.4 8.18-5 9.92.26-2.97-.96-5.63-2.45-8.11z"/><path fill="#4f554a" d="M175.9 264.95c2.69.17 5.36.59 8.03 1.04-.01 3.92 2.66 6.82 6.24 8.01-6.3 2.36-13.48-2.44-14.27-9.05z"/><path fill="#6c764c" d="M183.93 265.99l4.27-.77 4.41-.46c1.49 2.48 2.71 5.14 2.45 8.11l-4.1 1.34-.79-.21c-3.58-1.19-6.25-4.09-6.24-8.01z"/><path fill="#bec5b8" d="M230.16 267.4c5.38-.12.5 4.89 0 0z"/><path fill="#616667" opacity=".95" d="M275.88 273.33c-3.42-4.47 1.1-7.51 4.5-5.2-.15 2.67-2.38 4.06-4.5 5.2z"/><path fill="#515557" d="M210.95 271.76c5.09.97 5.36 3.84 2.14 7.44 2.58-1.7 5.3-1.68 7.92-.05l-.04 6.9c-5.22-2.02-12.72-6.42-10.02-14.29z"/><path fill="#4f5159" d="M233.54 272.25c5.35-1.39 1.44 5.92 4.8 7.98l-2.67 2.65-5.46.35c2.17-1.7 5.63-2.99 4.82-6.39-2.89.02-7.65 8.4-8.01 3.19.42-3.76-3.97-.85-6.01-.88.4-2.01 1.49-8.61 2.59-5.01-.49 5.35 9.37 2.08 9.94-1.89z"/><path fill="#595c68" d="M217.16 273.16c4.64-1-1 4.64 0 0z"/><path fill="#81897b" d="M251.2 273.11c1.77-.15 5.28 1.19 3.14 3.23-2.09 2.45-6.43-1.35-3.14-3.23z"/><path fill="#6c743d" opacity=".95" d="M238.34 280.23c2.68-1.93 4.49-4.79 7.19-6.71l.54 4.26c-2.91 2.66-6.01 6.03-10.4 5.1.85-.92 1.74-1.8 2.67-2.65z"/><path fill="#707373" d="M227.02 280.03c.36 5.21 5.12-3.17 8.01-3.19.81 3.4-2.65 4.69-4.82 6.39-1.6 1.13-3.28 2.17-5.1 2.9-1.39.01-2.77-.02-4.14-.08l.04-6.9c2.04.03 6.43-2.88 6.01.88z"/><path fill="#1e2229" opacity=".64" d="M189.83 286.19c3.87-.31 7.62-.06 11.25.77-3.78.02-7.53-.24-11.25-.77z"/><path fill="#5d5f63" opacity=".9" d="M205.52 289.99c2.66-1.44 5.6-2.14 8.63-2.04l-2.17 3.16-6.46-1.12z"/></svg>