<?xml version="1.0" encoding="UTF-8" ?>
<!DOCTYPE svg PUBLIC "-//W3C//DTD SVG 1.1//EN" "http://www.w3.org/Graphics/SVG/1.1/DTD/svg11.dtd">
<svg width="384pt" height="384pt" viewBox="0 0 384 384" version="1.1" xmlns="http://www.w3.org/2000/svg">
<g id="#00000011">
</g>
<g id="#0000001a">
</g>
<g id="#2c2f3aa6">
<path fill="#2c2f3a" opacity="0.65" d=" M 215.92 94.00 C 217.42 91.38 220.87 92.07 223.17 93.66 C 221.36 93.74 217.73 93.91 215.92 94.00 Z" />
</g>
<g id="#00000023">
</g>
<g id="#686c80f3">
<path fill="#686c80" opacity="0.95" d=" M 214.71 95.18 C 215.02 94.89 215.62 94.30 215.92 94.00 C 217.73 93.91 221.36 93.74 223.17 93.66 C 224.97 94.58 226.68 95.71 228.17 97.09 C 226.62 101.14 218.86 95.27 214.71 95.18 Z" />
</g>
<g id="#454a55fd">
<path fill="#454a55" opacity="1.00" d=" M 214.03 95.28 L 214.71 95.18 C 218.86 95.27 226.62 101.14 228.17 97.09 C 232.12 100.57 236.36 104.37 241.94 104.60 C 238.27 108.30 247.60 109.62 244.85 112.85 C 240.76 111.51 235.23 112.33 232.66 108.30 C 230.21 104.93 227.13 109.32 225.06 110.92 C 226.26 106.18 223.09 102.42 219.65 99.88 C 216.52 104.11 221.98 108.68 218.71 112.70 C 215.52 116.96 209.13 115.21 205.06 118.16 C 204.42 120.75 207.94 120.39 209.52 121.25 C 213.12 126.08 213.30 121.65 215.21 119.08 C 223.13 117.59 210.67 126.03 218.04 124.05 C 215.41 125.10 213.13 126.58 216.15 128.91 C 212.20 129.90 206.41 133.85 203.35 129.67 C 200.95 128.00 197.83 125.83 194.96 127.68 C 192.77 125.83 190.19 121.45 186.98 123.92 C 179.49 129.87 179.45 139.30 181.34 147.99 C 182.68 151.58 179.12 153.71 175.90 153.10 C 175.82 151.68 176.26 149.68 174.15 150.00 C 174.39 149.57 174.87 148.70 175.11 148.27 C 177.13 146.91 174.98 142.72 178.07 143.47 C 177.72 141.16 177.11 138.88 176.24 136.71 C 172.03 133.63 164.52 134.25 162.29 139.42 C 159.67 145.92 165.64 151.97 171.88 152.13 C 164.06 158.38 157.71 147.19 160.21 140.11 C 159.57 135.73 165.41 132.05 162.51 127.91 C 163.42 125.63 164.92 123.08 162.75 120.97 C 166.82 122.01 171.40 122.79 174.23 118.98 C 171.53 114.13 163.95 115.78 162.75 120.97 C 162.24 120.75 161.23 120.31 160.72 120.09 C 162.20 118.40 163.66 116.68 165.13 114.98 C 176.34 113.49 183.39 104.52 192.34 98.40 C 199.60 97.70 206.98 97.50 214.03 95.28 M 179.79 116.04 C 181.57 118.17 183.30 121.17 187.10 118.98 C 187.47 115.18 182.18 115.25 179.79 116.04 M 190.22 116.12 C 187.37 118.09 191.73 120.59 192.21 122.90 C 196.87 124.22 195.46 113.80 190.22 116.12 Z" />
</g>
<g id="#6a6d73ff">
<path fill="#6a6d73" opacity="1.00" d=" M 219.65 99.88 C 223.09 102.42 226.26 106.18 225.06 110.92 C 227.13 109.32 230.21 104.93 232.66 108.30 C 235.23 112.33 240.76 111.51 244.85 112.85 C 247.60 109.62 238.27 108.30 241.94 104.60 C 243.21 105.08 244.23 105.98 245.26 106.83 C 245.67 107.23 246.49 108.03 246.90 108.43 C 248.46 111.22 250.16 113.85 253.85 113.15 C 254.85 116.07 255.60 119.09 255.88 122.18 C 250.15 120.83 249.29 124.60 249.54 129.78 C 247.21 132.64 250.27 137.42 245.05 138.03 C 242.19 134.30 238.40 130.10 239.84 124.97 C 241.66 125.18 244.98 128.58 245.44 125.41 C 247.75 120.43 240.34 118.57 236.94 116.85 C 236.86 119.43 237.94 121.79 238.86 124.14 C 236.49 116.96 224.58 125.47 226.62 115.95 C 222.04 120.05 210.76 112.51 209.52 121.25 C 207.94 120.39 204.42 120.75 205.06 118.16 C 209.13 115.21 215.52 116.96 218.71 112.70 C 221.98 108.68 216.52 104.11 219.65 99.88 M 230.16 115.16 C 229.16 119.80 234.80 114.16 230.16 115.16 Z" />
</g>
<g id="#6b757ef8">
<path fill="#6b757e" opacity="0.97" d=" M 262.64 102.11 C 268.71 95.84 274.01 104.19 278.47 107.96 C 277.63 112.03 269.33 114.66 269.90 108.08 C 270.17 103.40 265.31 103.99 262.64 102.11 Z" />
</g>
<g id="#3a3f3ff8">
<path fill="#3a3f3f" opacity="0.97" d=" M 254.26 106.41 C 258.27 107.20 260.55 104.86 262.64 102.11 C 265.31 103.99 270.17 103.40 269.90 108.08 C 269.33 114.66 277.63 112.03 278.47 107.96 C 278.79 109.09 278.97 110.25 279.17 111.40 C 277.54 112.57 276.72 114.32 277.87 116.15 C 278.39 120.22 274.70 114.91 273.08 114.18 C 271.33 114.94 267.46 117.76 267.00 114.48 C 271.36 108.73 260.87 103.00 257.85 108.98 C 256.90 110.72 255.54 112.12 253.85 113.15 C 250.16 113.85 248.46 111.22 246.90 108.43 C 248.07 108.35 249.14 107.97 250.10 107.28 C 251.48 107.00 252.87 106.70 254.26 106.41 Z" />
</g>
<g id="#717b51ff">
<path fill="#717b51" opacity="1.00" d=" M 257.85 108.98 C 260.87 103.00 271.36 108.73 267.00 114.48 C 263.16 114.22 259.06 113.10 257.85 108.98 Z" />
</g>
<g id="#1a1b1f83">
</g>
<g id="#51555dfd">
<path fill="#51555d" opacity="1.00" d=" M 253.85 113.15 C 255.54 112.12 256.90 110.72 257.85 108.98 C 259.06 113.10 263.16 114.22 267.00 114.48 C 267.46 117.76 271.33 114.94 273.08 114.18 C 274.70 114.91 278.39 120.22 277.87 116.15 C 280.25 117.17 285.17 121.15 284.21 115.95 C 285.84 117.76 288.16 118.65 290.15 119.98 C 289.78 121.20 289.31 123.46 291.09 123.78 C 293.25 124.77 296.59 124.82 297.19 127.65 C 293.29 126.95 289.77 130.68 285.97 129.12 C 286.45 125.71 283.09 122.03 279.29 124.13 C 276.97 125.58 279.11 128.59 279.23 130.71 C 281.41 130.51 283.58 130.14 285.77 130.00 C 286.81 135.56 299.02 135.25 297.53 128.57 C 297.71 129.14 298.07 130.30 298.26 130.88 C 299.46 138.80 288.79 132.25 284.13 134.30 C 277.29 136.50 278.16 127.40 275.42 123.69 C 270.09 123.38 263.72 121.09 259.02 116.77 C 257.02 119.39 264.45 127.94 257.85 125.24 C 257.15 124.25 256.48 123.23 255.88 122.18 C 255.60 119.09 254.85 116.07 253.85 113.15 Z" />
</g>
<g id="#748089f8">
<path fill="#748089" opacity="0.97" d=" M 277.87 116.15 C 276.72 114.32 277.54 112.57 279.17 111.40 C 281.06 112.67 282.75 114.20 284.21 115.95 C 285.17 121.15 280.25 117.17 277.87 116.15 Z" />
</g>
<g id="#c9d0b9ff">
<path fill="#c9d0b9" opacity="1.00" d=" M 230.16 115.16 C 234.80 114.16 229.16 119.80 230.16 115.16 Z" />
</g>
<g id="#73788bff">
<path fill="#73788b" opacity="1.00" d=" M 162.75 120.97 C 163.95 115.78 171.53 114.13 174.23 118.98 C 171.40 122.79 166.82 122.01 162.75 120.97 Z" />
</g>
<g id="#797c8fff">
<path fill="#797c8f" opacity="1.00" d=" M 179.79 116.04 C 182.18 115.25 187.47 115.18 187.10 118.98 C 183.30 121.17 181.57 118.17 179.79 116.04 Z" />
</g>
<g id="#696f66ff">
<path fill="#696f66" opacity="1.00" d=" M 190.22 116.12 C 195.46 113.80 196.87 124.22 192.21 122.90 C 191.73 120.59 187.37 118.09 190.22 116.12 Z" />
</g>
<g id="#434545fe">
<path fill="#434545" opacity="1.00" d=" M 209.52 121.25 C 210.76 112.51 222.04 120.05 226.62 115.95 C 224.58 125.47 236.49 116.96 238.86 124.14 C 239.11 124.34 239.59 124.76 239.84 124.97 C 238.40 130.10 242.19 134.30 245.05 138.03 C 250.27 137.42 247.21 132.64 249.54 129.78 C 250.85 135.49 256.72 136.06 259.13 130.76 C 261.34 129.65 262.48 130.21 261.85 132.83 C 261.36 133.80 260.88 134.77 260.37 135.73 C 254.49 134.67 255.68 144.64 250.61 143.62 C 249.63 140.59 246.70 139.69 243.78 139.97 C 243.13 139.90 241.82 139.76 241.16 139.69 C 236.51 139.28 231.93 138.45 227.41 137.32 C 230.93 133.17 223.00 133.17 222.58 129.35 C 220.28 126.29 227.23 123.92 223.95 121.12 C 221.90 121.93 219.99 123.04 218.04 124.05 C 210.67 126.03 223.13 117.59 215.21 119.08 C 213.30 121.65 213.12 126.08 209.52 121.25 Z" />
</g>
<g id="#959a9cff">
<path fill="#959a9c" opacity="1.00" d=" M 236.94 116.85 C 240.34 118.57 247.75 120.43 245.44 125.41 C 244.98 128.58 241.66 125.18 239.84 124.97 C 239.59 124.76 239.11 124.34 238.86 124.14 C 237.94 121.79 236.86 119.43 236.94 116.85 Z" />
</g>
<g id="#6e7277ff">
<path fill="#6e7277" opacity="1.00" d=" M 259.02 116.77 C 263.72 121.09 270.09 123.38 275.42 123.69 C 276.06 126.03 276.10 128.10 273.20 128.04 C 274.37 131.27 277.72 134.51 276.13 138.09 C 274.10 139.54 271.81 140.69 269.26 140.61 C 269.37 137.26 269.35 133.58 264.97 135.01 C 265.41 137.62 265.97 140.64 269.26 140.61 C 263.95 142.79 263.45 136.42 261.85 132.83 C 262.48 130.21 261.34 129.65 259.13 130.76 C 258.88 128.88 258.47 127.03 257.85 125.24 C 264.45 127.94 257.02 119.39 259.02 116.77 Z" />
</g>
<g id="#0000002e">
</g>
<g id="#393c43fd">
<path fill="#393c43" opacity="1.00" d=" M 152.07 125.07 C 154.97 123.45 157.88 121.83 160.72 120.09 C 161.23 120.31 162.24 120.75 162.75 120.97 C 164.92 123.08 163.42 125.63 162.51 127.91 C 165.41 132.05 159.57 135.73 160.21 140.11 C 157.71 147.19 164.06 158.38 171.88 152.13 C 172.64 151.43 173.40 150.72 174.15 150.00 C 176.26 149.68 175.82 151.68 175.90 153.10 C 170.03 153.34 172.15 159.14 170.05 162.83 C 168.13 164.52 166.22 166.22 164.56 168.18 C 164.22 166.01 165.86 163.01 163.20 161.90 C 160.20 166.23 159.08 172.60 165.43 174.45 C 163.49 177.91 166.16 180.69 166.78 183.75 C 164.53 186.60 156.93 180.36 156.05 184.73 C 159.23 186.87 159.88 192.49 164.75 193.43 C 161.44 198.23 166.31 202.40 170.30 204.75 C 176.89 206.70 175.19 196.66 172.08 193.75 C 177.04 194.51 177.56 201.56 182.87 202.19 C 188.71 205.09 178.97 208.41 176.07 209.31 C 176.09 214.06 183.05 212.24 181.05 217.91 C 180.43 220.99 183.20 222.72 185.18 224.48 C 178.56 227.46 175.20 220.35 171.89 216.14 C 169.21 209.83 157.91 213.06 158.85 220.04 C 154.06 216.17 147.77 220.19 150.00 226.92 C 150.72 231.48 156.55 226.13 158.28 229.74 C 160.75 232.08 155.97 233.63 154.28 234.54 C 153.89 236.50 155.52 238.17 156.05 239.98 C 152.49 238.67 145.03 235.40 147.04 241.87 C 150.12 240.99 152.85 241.66 155.04 244.01 C 158.36 241.30 159.82 236.56 163.90 234.83 C 165.67 234.88 167.44 234.91 169.21 234.91 C 171.55 234.81 169.83 237.53 170.18 238.90 C 170.30 242.87 175.10 241.99 177.93 243.10 C 178.91 244.83 180.41 246.04 182.16 246.92 C 178.99 246.93 173.55 246.21 172.24 250.27 C 169.41 254.04 173.77 257.70 174.65 261.40 C 175.97 262.26 180.01 265.04 176.24 265.03 C 175.69 264.76 174.58 264.20 174.03 263.93 C 172.09 263.18 170.08 262.66 168.17 261.87 C 166.54 259.49 164.06 257.97 161.70 256.43 C 152.22 259.12 149.95 271.07 155.29 278.66 C 158.04 280.31 160.96 281.68 163.76 283.26 C 165.96 284.30 168.52 284.98 170.92 284.18 C 173.24 284.82 175.56 284.71 177.71 283.61 C 179.99 286.90 186.90 283.85 185.97 288.98 C 180.65 289.57 175.12 288.86 169.91 290.10 C 169.97 292.49 172.43 293.57 174.02 294.95 C 170.68 295.82 166.29 298.69 163.34 295.59 C 159.08 289.86 150.19 294.85 146.82 288.19 C 146.24 285.38 148.22 281.11 146.02 279.02 C 138.91 277.28 138.42 269.64 136.10 263.88 C 133.47 257.68 142.23 252.04 136.11 246.99 C 135.83 244.27 135.94 241.53 134.93 238.98 C 135.67 237.00 135.48 234.86 134.72 232.92 C 135.46 229.89 133.35 227.47 132.00 225.00 C 131.91 224.57 131.74 223.72 131.66 223.29 C 131.85 220.12 131.54 216.85 132.61 213.83 C 133.60 216.55 133.61 222.26 137.87 220.96 C 140.60 219.87 140.58 215.02 141.14 212.66 C 138.62 212.58 136.20 211.80 133.71 211.51 C 135.07 207.70 142.17 202.96 135.40 200.92 C 135.27 200.52 135.02 199.71 134.90 199.30 C 137.14 200.45 142.06 204.19 142.87 199.96 C 141.32 194.45 142.96 187.62 138.74 183.10 C 132.50 182.51 132.96 190.95 132.69 195.23 C 132.53 194.89 132.20 194.20 132.03 193.86 C 131.49 187.49 130.78 180.49 136.17 176.07 C 137.02 172.11 137.15 168.00 138.39 164.13 C 138.60 163.62 139.02 162.60 139.23 162.09 C 142.93 155.26 145.15 148.19 143.28 140.27 C 143.64 138.86 143.92 137.42 144.00 135.96 C 144.03 135.50 144.09 134.56 144.12 134.09 C 144.46 133.15 144.82 132.21 145.18 131.27 C 147.43 129.15 149.69 127.04 152.07 125.07 M 152.22 132.13 C 148.98 135.18 146.66 140.17 150.18 143.96 C 156.33 145.15 158.98 132.15 152.22 132.13 M 154.36 154.18 C 153.02 156.89 152.13 160.14 148.79 160.85 C 142.47 164.43 149.63 171.53 148.70 176.66 C 145.34 178.64 145.91 182.95 148.74 185.15 C 148.80 182.91 149.34 178.92 152.39 179.45 C 162.00 184.44 151.90 173.34 158.88 174.72 C 158.06 169.84 158.10 164.86 159.20 160.03 C 168.54 163.31 161.09 148.13 154.36 154.18 Z" />
</g>
<g id="#1f1e2093">
</g>
<g id="#5d636bfe">
<path fill="#5d636b" opacity="1.00" d=" M 218.04 124.05 C 219.99 123.04 221.90 121.93 223.95 121.12 C 227.23 123.92 220.28 126.29 222.58 129.35 C 223.00 133.17 230.93 133.17 227.41 137.32 C 226.71 139.62 226.20 142.00 225.29 144.24 C 225.87 139.49 226.07 130.78 218.95 132.25 C 212.60 136.05 215.17 148.01 223.17 148.48 C 220.90 151.47 224.03 154.32 225.36 156.95 C 224.38 157.30 223.38 157.62 222.38 157.89 C 220.72 149.94 209.68 147.00 208.71 138.47 C 209.57 129.28 201.98 137.21 198.13 138.10 C 197.26 135.77 196.75 133.33 195.95 130.98 C 194.36 132.70 192.56 134.18 190.07 134.09 C 183.70 134.92 185.79 146.83 192.49 141.80 C 194.22 146.91 183.52 142.45 184.23 147.51 C 187.11 148.36 189.30 150.02 188.17 153.96 C 189.79 152.54 193.92 148.77 194.23 153.01 C 193.89 154.51 191.59 157.37 194.53 157.25 C 198.61 158.45 201.25 152.07 204.83 155.79 C 209.76 150.15 200.53 152.87 200.08 148.14 C 202.34 145.35 204.82 145.64 204.10 149.64 C 208.17 148.44 214.69 148.52 214.22 154.89 C 214.62 158.57 210.83 154.55 209.26 153.98 C 207.81 158.05 207.01 164.14 212.49 165.41 C 219.28 163.43 216.26 167.73 215.81 170.17 C 212.93 166.59 207.04 163.51 204.15 169.16 C 200.78 171.03 202.28 173.48 205.19 174.26 C 202.44 173.89 200.58 174.94 199.91 177.71 C 197.90 176.31 195.57 175.67 193.65 177.60 C 188.75 179.68 198.95 182.60 195.37 184.64 C 189.66 186.87 192.17 175.30 186.35 179.25 C 183.01 182.11 186.15 176.75 183.13 176.74 C 183.09 176.33 183.02 175.50 182.98 175.09 C 185.99 176.60 189.39 176.48 187.92 172.27 C 186.07 173.25 182.24 169.90 182.78 173.16 C 179.01 173.86 174.20 169.95 177.47 166.52 C 181.37 164.10 177.10 158.47 182.19 156.84 C 183.91 159.88 178.65 164.77 184.73 162.87 C 183.50 159.18 188.06 157.56 187.02 153.92 C 185.16 154.04 181.98 154.30 182.19 156.84 C 179.64 156.42 176.36 156.29 175.90 153.10 C 179.12 153.71 182.68 151.58 181.34 147.99 C 179.45 139.30 179.49 129.87 186.98 123.92 C 190.19 121.45 192.77 125.83 194.96 127.68 C 197.83 125.83 200.95 128.00 203.35 129.67 C 206.41 133.85 212.20 129.90 216.15 128.91 C 213.13 126.58 215.41 125.10 218.04 124.05 Z" />
</g>
<g id="#8c8f98ff">
<path fill="#8c8f98" opacity="1.00" d=" M 249.54 129.78 C 249.29 124.60 250.15 120.83 255.88 122.18 C 256.48 123.23 257.15 124.25 257.85 125.24 C 258.47 127.03 258.88 128.88 259.13 130.76 C 256.72 136.06 250.85 135.49 249.54 129.78 Z" />
</g>
<g id="#2e2e35eb">
<path fill="#2e2e35" opacity="0.92" d=" M 275.42 123.69 C 278.16 127.40 277.29 136.50 284.13 134.30 C 288.79 132.25 299.46 138.80 298.26 130.88 C 301.90 136.76 294.23 140.37 289.90 137.03 C 285.34 134.86 279.91 136.16 275.89 138.89 L 276.13 138.09 C 277.72 134.51 274.37 131.27 273.20 128.04 C 276.10 128.10 276.06 126.03 275.42 123.69 Z" />
</g>
<g id="#7e8a98ff">
<path fill="#7e8a98" opacity="1.00" d=" M 279.29 124.13 C 283.09 122.03 286.45 125.71 285.97 129.12 L 285.77 130.00 C 283.58 130.14 281.41 130.51 279.23 130.71 C 279.11 128.59 276.97 125.58 279.29 124.13 Z" />
</g>
<g id="#71727cff">
<path fill="#71727c" opacity="1.00" d=" M 285.97 129.12 C 289.77 130.68 293.29 126.95 297.19 127.65 L 297.53 128.57 C 299.02 135.25 286.81 135.56 285.77 130.00 L 285.97 129.12 Z" />
</g>
<g id="#0000003e">
</g>
<g id="#797d81ff">
<path fill="#797d81" opacity="1.00" d=" M 190.07 134.09 C 192.56 134.18 194.36 132.70 195.95 130.98 C 196.75 133.33 197.26 135.77 198.13 138.10 C 201.98 137.21 209.57 129.28 208.71 138.47 C 209.68 147.00 220.72 149.94 222.38 157.89 C 223.38 157.62 224.38 157.30 225.36 156.95 C 225.37 160.39 221.53 158.87 224.38 162.45 C 222.76 167.83 229.72 168.14 230.36 172.81 C 226.33 168.39 223.86 173.43 222.81 177.08 C 220.33 179.52 218.70 175.47 217.20 173.95 C 216.68 172.71 216.23 171.44 215.81 170.17 C 216.26 167.73 219.28 163.43 212.49 165.41 C 207.01 164.14 207.81 158.05 209.26 153.98 C 210.83 154.55 214.62 158.57 214.22 154.89 C 214.69 148.52 208.17 148.44 204.10 149.64 C 204.82 145.64 202.34 145.35 200.08 148.14 C 200.53 152.87 209.76 150.15 204.83 155.79 C 201.25 152.07 198.61 158.45 194.53 157.25 C 199.95 156.18 196.36 150.74 196.56 146.97 C 196.87 144.74 193.58 144.19 193.55 146.62 C 191.80 148.99 196.06 150.68 194.23 153.01 C 193.92 148.77 189.79 152.54 188.17 153.96 C 189.30 150.02 187.11 148.36 184.23 147.51 C 183.52 142.45 194.22 146.91 192.49 141.80 C 192.09 139.08 191.78 136.31 190.07 134.09 Z" />
</g>
<g id="#585d73ff">
<path fill="#585d73" opacity="1.00" d=" M 152.22 132.13 C 158.98 132.15 156.33 145.15 150.18 143.96 C 146.66 140.17 148.98 135.18 152.22 132.13 Z" />
</g>
<g id="#9598a9fe">
<path fill="#9598a9" opacity="1.00" d=" M 223.17 148.48 C 215.17 148.01 212.60 136.05 218.95 132.25 C 226.07 130.78 225.87 139.49 225.29 144.24 C 224.70 145.71 223.93 147.09 223.17 148.48 Z" />
</g>
<g id="#00000051">
</g>
<g id="#52555cfd">
<path fill="#52555c" opacity="1.00" d=" M 260.37 135.73 C 260.88 134.77 261.36 133.80 261.85 132.83 C 263.45 136.42 263.95 142.79 269.26 140.61 C 271.81 140.69 274.10 139.54 276.13 138.09 L 275.89 138.89 C 275.12 140.22 275.45 141.45 276.66 142.36 C 280.83 146.20 286.97 145.44 292.24 145.74 C 295.73 146.32 296.57 151.53 294.22 153.42 C 287.10 153.56 282.32 145.49 275.01 149.96 C 271.24 148.03 267.57 145.90 263.24 146.85 C 262.04 142.91 257.13 139.98 260.37 135.73 Z" />
</g>
<g id="#9094a3ff">
<path fill="#9094a3" opacity="1.00" d=" M 192.49 141.80 C 185.79 146.83 183.70 134.92 190.07 134.09 C 191.78 136.31 192.09 139.08 192.49 141.80 Z" />
</g>
<g id="#00000060">
</g>
<g id="#6b7087ff">
<path fill="#6b7087" opacity="1.00" d=" M 162.29 139.42 C 164.52 134.25 172.03 133.63 176.24 136.71 C 164.32 129.94 163.15 154.48 174.15 150.00 C 173.40 150.72 172.64 151.43 171.88 152.13 C 165.64 151.97 159.67 145.92 162.29 139.42 Z" />
</g>
<g id="#2b2b33f7">
<path fill="#2b2b33" opacity="0.97" d=" M 250.61 143.62 C 255.68 144.64 254.49 134.67 260.37 135.73 C 257.13 139.98 262.04 142.91 263.24 146.85 C 267.57 145.90 271.24 148.03 275.01 149.96 C 282.32 145.49 287.10 153.56 294.22 153.42 C 289.57 154.41 284.71 154.30 280.16 152.97 C 275.16 151.67 270.01 152.12 264.92 151.99 C 256.74 150.34 248.87 146.86 243.78 139.97 C 246.70 139.69 249.63 140.59 250.61 143.62 Z" />
</g>
<g id="#99a0a1ff">
<path fill="#99a0a1" opacity="1.00" d=" M 264.97 135.01 C 269.35 133.58 269.37 137.26 269.26 140.61 C 265.97 140.64 265.41 137.62 264.97 135.01 Z" />
</g>
<g id="#00000071">
</g>
<g id="#9da2aeff">
<path fill="#9da2ae" opacity="1.00" d=" M 174.15 150.00 C 163.15 154.48 164.32 129.94 176.24 136.71 C 175.99 140.50 173.24 144.54 175.11 148.27 C 174.87 148.70 174.39 149.57 174.15 150.00 Z" />
</g>
<g id="#7b8177ff">
<path fill="#7b8177" opacity="1.00" d=" M 176.24 136.71 C 177.11 138.88 177.72 141.16 178.07 143.47 C 174.98 142.72 177.13 146.91 175.11 148.27 C 173.24 144.54 175.99 140.50 176.24 136.71 Z" />
</g>
<g id="#04040427">
</g>
<g id="#01010183">
</g>
<g id="#2d2e36ec">
<path fill="#2d2e36" opacity="0.93" d=" M 276.66 142.36 C 277.22 142.36 278.33 142.36 278.89 142.36 C 281.36 143.88 283.73 143.98 285.99 142.63 C 286.43 142.72 287.30 142.89 287.74 142.97 C 289.22 143.93 290.71 144.86 292.24 145.74 C 286.97 145.44 280.83 146.20 276.66 142.36 Z" />
</g>
<g id="#07060873">
</g>
<g id="#9295a4ff">
<path fill="#9295a4" opacity="1.00" d=" M 193.55 146.62 C 193.58 144.19 196.87 144.74 196.56 146.97 C 196.36 150.74 199.95 156.18 194.53 157.25 C 191.59 157.37 193.89 154.51 194.23 153.01 C 196.06 150.68 191.80 148.99 193.55 146.62 Z" />
</g>
<g id="#1212159b">
<path fill="#121215" opacity="0.61" d=" M 264.92 151.99 C 270.01 152.12 275.16 151.67 280.16 152.97 C 275.07 152.86 269.89 153.42 264.92 151.99 Z" />
</g>
<g id="#474d5aff">
<path fill="#474d5a" opacity="1.00" d=" M 170.05 162.83 C 172.15 159.14 170.03 153.34 175.90 153.10 C 176.36 156.29 179.64 156.42 182.19 156.84 C 177.10 158.47 181.37 164.10 177.47 166.52 C 174.20 169.95 179.01 173.86 182.78 173.16 C 182.83 173.64 182.93 174.61 182.98 175.09 C 183.02 175.50 183.09 176.33 183.13 176.74 C 180.68 180.60 183.65 185.41 187.93 182.48 C 192.03 185.51 194.83 191.80 191.27 197.22 C 195.50 185.59 185.37 189.77 181.26 194.15 C 180.97 199.82 187.90 199.88 191.27 197.22 C 190.70 203.81 191.94 210.37 194.65 216.36 C 196.08 218.91 193.57 220.58 192.02 222.18 C 191.92 224.08 195.95 228.57 192.14 227.38 C 192.34 228.68 193.23 230.56 191.02 229.85 C 189.12 229.11 187.13 229.32 185.25 229.96 C 184.91 229.68 184.25 229.12 183.91 228.84 C 182.14 226.63 177.92 228.48 179.58 231.36 C 181.47 234.93 176.11 235.63 175.97 238.76 C 178.47 238.97 182.38 242.85 177.93 243.10 C 175.10 241.99 170.30 242.87 170.18 238.90 C 169.83 237.53 171.55 234.81 169.21 234.91 C 170.56 231.92 168.94 228.85 167.72 226.13 C 163.91 225.31 160.60 232.25 163.90 234.83 C 159.82 236.56 158.36 241.30 155.04 244.01 C 152.85 241.66 150.12 240.99 147.04 241.87 C 145.03 235.40 152.49 238.67 156.05 239.98 C 155.52 238.17 153.89 236.50 154.28 234.54 C 155.97 233.63 160.75 232.08 158.28 229.74 C 156.55 226.13 150.72 231.48 150.00 226.92 C 147.77 220.19 154.06 216.17 158.85 220.04 C 157.91 213.06 169.21 209.83 171.89 216.14 C 175.20 220.35 178.56 227.46 185.18 224.48 C 193.26 223.67 186.18 215.04 181.05 217.91 C 183.05 212.24 176.09 214.06 176.07 209.31 C 178.97 208.41 188.71 205.09 182.87 202.19 C 177.56 201.56 177.04 194.51 172.08 193.75 C 175.19 196.66 176.89 206.70 170.30 204.75 C 166.31 202.40 161.44 198.23 164.75 193.43 C 159.88 192.49 159.23 186.87 156.05 184.73 C 156.93 180.36 164.53 186.60 166.78 183.75 C 166.16 180.69 163.49 177.91 165.43 174.45 C 159.08 172.60 160.20 166.23 163.20 161.90 C 165.86 163.01 164.22 166.01 164.56 168.18 C 164.15 171.61 167.68 176.11 171.27 172.31 C 173.56 169.46 174.47 163.80 170.05 162.83 Z" />
</g>
<g id="#00000043">
</g>
<g id="#494c57ff">
<path fill="#494c57" opacity="1.00" d=" M 154.36 154.18 C 161.09 148.13 168.54 163.31 159.20 160.03 C 158.10 164.86 158.06 169.84 158.88 174.72 C 151.90 173.34 162.00 184.44 152.39 179.45 C 149.34 178.92 148.80 182.91 148.74 185.15 C 145.91 182.95 145.34 178.64 148.70 176.66 C 149.63 171.53 142.47 164.43 148.79 160.85 C 152.13 160.14 153.02 156.89 154.36 154.18 Z" />
</g>
<g id="#848a8dff">
<path fill="#848a8d" opacity="1.00" d=" M 182.19 156.84 C 181.98 154.30 185.16 154.04 187.02 153.92 C 188.06 157.56 183.50 159.18 184.73 162.87 C 178.65 164.77 183.91 159.88 182.19 156.84 Z" />
</g>
<g id="#5e626cfd">
<path fill="#5e626c" opacity="1.00" d=" M 225.36 156.95 C 225.78 157.18 226.61 157.64 227.03 157.88 C 228.26 160.53 230.06 162.85 232.10 164.93 C 233.35 168.90 235.17 172.77 235.15 177.02 C 235.06 181.26 235.02 185.50 234.96 189.75 C 229.81 190.93 224.37 191.81 219.88 194.78 C 215.91 194.55 214.49 197.68 216.91 200.77 C 214.65 201.69 212.42 202.78 212.71 205.64 C 212.34 208.18 212.00 210.73 211.70 213.28 C 207.83 211.92 210.31 205.45 204.93 207.87 C 205.15 204.23 206.96 200.98 209.08 198.10 C 211.55 196.21 212.66 194.00 209.81 191.78 C 207.38 189.60 204.85 184.21 210.03 184.04 C 215.26 184.35 216.64 178.05 217.20 173.95 C 218.70 175.47 220.33 179.52 222.81 177.08 C 223.86 173.43 226.33 168.39 230.36 172.81 C 229.72 168.14 222.76 167.83 224.38 162.45 C 221.53 158.87 225.37 160.39 225.36 156.95 M 228.21 177.08 C 225.41 179.06 227.42 184.34 230.79 183.92 C 233.58 181.93 231.57 176.66 228.21 177.08 M 214.30 187.29 C 210.23 187.26 211.22 196.51 216.76 191.87 C 219.64 190.56 216.53 186.38 214.30 187.29 Z" />
</g>
<g id="#0c0c0e46">
</g>
<g id="#00000036">
</g>
<g id="#656977ff">
<path fill="#656977" opacity="1.00" d=" M 170.05 162.83 C 174.47 163.80 173.56 169.46 171.27 172.31 C 167.68 176.11 164.15 171.61 164.56 168.18 C 166.22 166.22 168.13 164.52 170.05 162.83 Z" />
</g>
<g id="#08080937">
</g>
<g id="#7d8651ff">
<path fill="#7d8651" opacity="1.00" d=" M 204.15 169.16 C 207.04 163.51 212.93 166.59 215.81 170.17 C 216.23 171.44 216.68 172.71 217.20 173.95 C 216.64 178.05 215.26 184.35 210.03 184.04 C 208.45 182.53 206.25 180.62 207.82 178.31 C 211.76 178.98 213.33 174.19 209.10 174.09 C 207.79 174.13 206.49 174.18 205.19 174.26 C 202.28 173.48 200.78 171.03 204.15 169.16 Z" />
</g>
<g id="#7e868fff">
<path fill="#7e868f" opacity="1.00" d=" M 182.78 173.16 C 182.24 169.90 186.07 173.25 187.92 172.27 C 189.39 176.48 185.99 176.60 182.98 175.09 C 182.93 174.61 182.83 173.64 182.78 173.16 Z" />
</g>
<g id="#747b7fff">
<path fill="#747b7f" opacity="1.00" d=" M 199.91 177.71 C 200.58 174.94 202.44 173.89 205.19 174.26 C 206.49 174.18 207.79 174.13 209.10 174.09 C 207.36 174.85 204.16 177.91 207.82 178.31 C 206.25 180.62 208.45 182.53 210.03 184.04 C 204.85 184.21 207.38 189.60 209.81 191.78 C 205.43 192.05 203.65 201.65 209.08 198.10 C 206.96 200.98 205.15 204.23 204.93 207.87 C 210.31 205.45 207.83 211.92 211.70 213.28 C 215.20 217.93 219.91 220.71 225.88 221.28 C 225.07 223.29 223.00 225.26 223.97 227.57 C 223.55 231.13 221.32 235.82 217.38 236.18 C 220.34 229.51 214.34 226.12 208.86 227.28 C 211.15 230.56 213.51 233.68 207.70 233.69 C 209.00 242.80 200.19 242.86 194.48 240.30 C 193.45 242.42 192.34 244.50 191.01 246.44 C 183.98 247.82 189.87 242.63 190.18 239.37 C 186.62 240.71 186.69 238.75 188.21 236.03 C 191.27 236.76 192.41 241.24 196.66 237.84 C 198.56 235.17 194.47 237.24 193.10 236.96 C 190.73 235.50 189.16 232.39 191.02 229.85 C 193.23 230.56 192.34 228.68 192.14 227.38 C 195.95 228.57 191.92 224.08 192.02 222.18 C 193.57 220.58 196.08 218.91 194.65 216.36 C 191.94 210.37 190.70 203.81 191.27 197.22 C 194.83 191.80 192.03 185.51 187.93 182.48 C 183.65 185.41 180.68 180.60 183.13 176.74 C 186.15 176.75 183.01 182.11 186.35 179.25 C 192.17 175.30 189.66 186.87 195.37 184.64 C 198.95 182.60 188.75 179.68 193.65 177.60 C 195.57 175.67 197.90 176.31 199.91 177.71 M 204.05 219.02 C 201.26 227.32 211.16 217.48 204.05 219.02 Z" />
</g>
<g id="#a4ad96ff">
<path fill="#a4ad96" opacity="1.00" d=" M 209.10 174.09 C 213.33 174.19 211.76 178.98 207.82 178.31 C 204.16 177.91 207.36 174.85 209.10 174.09 Z" />
</g>
<g id="#8f91a1ff">
<path fill="#8f91a1" opacity="1.00" d=" M 228.21 177.08 C 231.57 176.66 233.58 181.93 230.79 183.92 C 227.42 184.34 225.41 179.06 228.21 177.08 Z" />
</g>
<g id="#28292c93">
</g>
<g id="#595e73fe">
<path fill="#595e73" opacity="1.00" d=" M 132.69 195.23 C 132.96 190.95 132.50 182.51 138.74 183.10 C 142.96 187.62 141.32 194.45 142.87 199.96 C 142.06 204.19 137.14 200.45 134.90 199.30 L 134.26 198.93 C 133.74 197.69 133.21 196.46 132.69 195.23 Z" />
</g>
<g id="#00000050">
</g>
<g id="#7f858dff">
<path fill="#7f858d" opacity="1.00" d=" M 214.30 187.29 C 216.53 186.38 219.64 190.56 216.76 191.87 C 211.22 196.51 210.23 187.26 214.30 187.29 Z" />
</g>
<g id="#02020227">
</g>
<g id="#697271ff">
<path fill="#697271" opacity="1.00" d=" M 181.26 194.15 C 185.37 189.77 195.50 185.59 191.27 197.22 C 187.90 199.88 180.97 199.82 181.26 194.15 Z" />
</g>
<g id="#393a44fa">
<path fill="#393a44" opacity="0.98" d=" M 219.88 194.78 C 224.37 191.81 229.81 190.93 234.96 189.75 L 235.88 189.86 C 236.81 190.61 237.86 191.07 239.05 191.22 C 242.76 192.38 246.54 191.79 250.29 191.27 C 258.71 190.32 266.74 195.97 272.00 201.99 C 276.45 209.49 266.59 213.87 261.38 217.46 C 253.25 217.84 245.33 221.31 237.16 220.08 C 236.14 221.64 235.82 223.49 235.31 225.24 C 235.86 216.20 227.19 224.96 223.97 227.57 C 223.00 225.26 225.07 223.29 225.88 221.28 C 219.91 220.71 215.20 217.93 211.70 213.28 C 212.00 210.73 212.34 208.18 212.71 205.64 C 213.78 209.88 218.05 203.70 217.14 208.98 C 220.82 213.00 222.06 204.51 223.75 201.70 C 225.13 199.78 224.95 197.51 223.22 195.86 L 222.25 195.52 C 221.66 195.34 220.48 194.97 219.88 194.78 M 255.72 196.99 C 250.11 197.12 246.02 199.29 244.75 204.68 C 242.45 204.30 243.28 199.98 243.95 197.99 C 241.19 197.17 242.27 200.41 241.81 202.03 C 237.63 203.19 238.66 195.22 233.20 199.04 C 231.37 200.92 232.55 203.97 230.87 205.93 C 228.41 206.12 230.02 201.05 227.15 202.08 C 225.46 205.26 222.26 208.18 223.00 212.10 C 225.35 211.87 229.45 207.91 230.30 211.84 C 231.14 211.28 231.94 210.65 232.78 210.09 C 232.62 215.92 242.10 216.08 244.46 212.10 C 246.10 213.17 246.43 215.33 247.33 216.95 C 251.22 210.96 257.77 216.31 262.97 212.24 C 264.43 210.28 266.59 208.59 267.13 206.10 C 266.00 203.11 263.42 198.64 259.66 200.57 C 256.42 202.12 255.52 199.97 255.72 196.99 Z" />
</g>
<g id="#14151894">
</g>
<g id="#9497a4ff">
<path fill="#9497a4" opacity="1.00" d=" M 209.08 198.10 C 203.65 201.65 205.43 192.05 209.81 191.78 C 212.66 194.00 211.55 196.21 209.08 198.10 Z" />
</g>
<g id="#0000005f">
</g>
<g id="#454a5aff">
<path fill="#454a5a" opacity="1.00" d=" M 216.91 200.77 C 214.49 197.68 215.91 194.55 219.88 194.78 C 220.48 194.97 221.66 195.34 222.25 195.52 C 220.05 196.19 218.23 197.48 218.98 200.03 C 221.84 200.86 223.35 198.43 223.22 195.86 C 224.95 197.51 225.13 199.78 223.75 201.70 C 222.06 204.51 220.82 213.00 217.14 208.98 C 218.05 203.70 213.78 209.88 212.71 205.64 C 212.42 202.78 214.65 201.69 216.91 200.77 Z" />
</g>
<g id="#71778cff">
<path fill="#71778c" opacity="1.00" d=" M 218.98 200.03 C 218.23 197.48 220.05 196.19 222.25 195.52 L 223.22 195.86 C 223.35 198.43 221.84 200.86 218.98 200.03 Z" />
</g>
<g id="#555767ff">
<path fill="#555767" opacity="1.00" d=" M 255.72 196.99 C 255.52 199.97 256.42 202.12 259.66 200.57 C 263.42 198.64 266.00 203.11 267.13 206.10 C 264.45 204.04 260.52 199.90 257.27 203.32 C 254.63 206.02 250.99 202.85 248.04 202.26 C 246.92 203.80 245.68 205.64 246.33 207.64 C 246.85 216.83 257.81 207.50 262.97 212.24 C 257.77 216.31 251.22 210.96 247.33 216.95 C 246.43 215.33 246.10 213.17 244.46 212.10 C 242.10 216.08 232.62 215.92 232.78 210.09 C 231.94 210.65 231.14 211.28 230.30 211.84 C 229.45 207.91 225.35 211.87 223.00 212.10 C 222.26 208.18 225.46 205.26 227.15 202.08 C 230.02 201.05 228.41 206.12 230.87 205.93 C 232.55 203.97 231.37 200.92 233.20 199.04 C 238.66 195.22 237.63 203.19 241.81 202.03 C 242.27 200.41 241.19 197.17 243.95 197.99 C 243.28 199.98 242.45 204.30 244.75 204.68 C 246.02 199.29 250.11 197.12 255.72 196.99 Z" />
</g>
<g id="#01010175">
</g>
<g id="#797a85ff">
<path fill="#797a85" opacity="1.00" d=" M 248.04 202.26 C 250.99 202.85 254.63 206.02 257.27 203.32 C 260.52 199.90 264.45 204.04 267.13 206.10 C 266.59 208.59 264.43 210.28 262.97 212.24 C 257.81 207.50 246.85 216.83 246.33 207.64 C 245.68 205.64 246.92 203.80 248.04 202.26 Z" />
</g>
<g id="#0000003b">
</g>
<g id="#55565bfe">
<path fill="#55565b" opacity="1.00" d=" M 133.71 211.51 C 136.20 211.80 138.62 212.58 141.14 212.66 C 140.58 215.02 140.60 219.87 137.87 220.96 C 133.61 222.26 133.60 216.55 132.61 213.83 C 132.89 213.25 133.44 212.09 133.71 211.51 Z" />
</g>
<g id="#0000002d">
</g>
<g id="#707978ff">
<path fill="#707978" opacity="1.00" d=" M 181.05 217.91 C 186.18 215.04 193.26 223.67 185.18 224.48 C 183.20 222.72 180.43 220.99 181.05 217.91 Z" />
</g>
<g id="#abb0bbff">
<path fill="#abb0bb" opacity="1.00" d=" M 204.05 219.02 C 211.16 217.48 201.26 227.32 204.05 219.02 Z" />
</g>
<g id="#696c71fe">
<path fill="#696c71" opacity="1.00" d=" M 223.97 227.57 C 227.19 224.96 235.86 216.20 235.31 225.24 C 233.98 232.60 231.36 239.71 226.33 245.35 C 226.20 243.88 226.03 242.41 225.83 240.95 C 221.46 239.48 221.03 247.42 223.94 248.22 C 223.50 248.45 222.62 248.90 222.18 249.13 C 219.68 248.66 217.15 248.26 214.78 247.30 C 214.74 250.31 213.77 254.93 217.89 253.55 C 220.47 258.05 214.37 261.54 216.37 266.31 C 215.82 264.98 214.73 262.32 214.18 260.98 C 209.85 256.24 203.16 264.28 207.83 268.17 L 208.15 268.65 C 204.15 271.09 201.90 276.43 196.23 275.33 C 194.56 278.61 196.39 286.23 189.72 283.58 C 188.87 280.07 181.31 278.34 186.47 275.37 C 187.34 271.28 182.43 267.32 182.11 262.84 C 186.27 261.88 186.11 266.78 189.14 268.15 C 189.17 265.15 182.84 260.36 191.89 262.87 C 193.69 261.05 199.83 258.74 196.45 255.53 C 193.06 252.46 200.24 253.00 198.72 248.91 C 202.00 249.71 207.53 246.66 207.04 242.87 C 203.94 245.25 200.93 244.08 198.92 245.90 C 196.77 248.21 190.61 252.33 191.01 246.44 C 192.34 244.50 193.45 242.42 194.48 240.30 C 200.19 242.86 209.00 242.80 207.70 233.69 C 213.51 233.68 211.15 230.56 208.86 227.28 C 214.34 226.12 220.34 229.51 217.38 236.18 C 221.32 235.82 223.55 231.13 223.97 227.57 M 210.23 234.37 C 207.59 234.32 207.23 237.64 209.20 238.90 C 213.27 239.76 213.92 234.70 210.23 234.37 M 193.21 266.09 C 191.60 266.99 190.92 272.42 193.70 270.65 C 197.22 270.91 196.48 265.12 193.21 266.09 Z" />
</g>
<g id="#62697cff">
<path fill="#62697c" opacity="1.00" d=" M 163.90 234.83 C 160.60 232.25 163.91 225.31 167.72 226.13 C 168.94 228.85 170.56 231.92 169.21 234.91 C 167.44 234.91 165.67 234.88 163.90 234.83 Z" />
</g>
<g id="#575d5efe">
<path fill="#575d5e" opacity="1.00" d=" M 179.58 231.36 C 177.92 228.48 182.14 226.63 183.91 228.84 C 178.29 230.11 185.68 236.81 185.25 229.96 C 187.13 229.32 189.12 229.11 191.02 229.85 C 189.16 232.39 190.73 235.50 193.10 236.96 C 194.47 237.24 198.56 235.17 196.66 237.84 C 192.41 241.24 191.27 236.76 188.21 236.03 C 186.69 238.75 186.62 240.71 190.18 239.37 C 189.87 242.63 183.98 247.82 191.01 246.44 C 190.61 252.33 196.77 248.21 198.92 245.90 C 198.87 246.66 198.77 248.16 198.72 248.91 C 200.24 253.00 193.06 252.46 196.45 255.53 C 199.83 258.74 193.69 261.05 191.89 262.87 C 182.84 260.36 189.17 265.15 189.14 268.15 C 186.11 266.78 186.27 261.88 182.11 262.84 C 182.43 267.32 187.34 271.28 186.47 275.37 C 181.31 278.34 188.87 280.07 189.72 283.58 C 196.39 286.23 194.56 278.61 196.23 275.33 C 201.90 276.43 204.15 271.09 208.15 268.65 C 211.63 272.28 204.61 280.37 213.16 278.23 C 211.99 280.79 209.15 279.47 206.99 279.57 C 200.51 282.27 196.02 287.81 191.43 292.88 C 188.76 292.95 185.13 292.71 185.97 288.98 C 186.90 283.85 179.99 286.90 177.71 283.61 C 175.56 284.71 173.24 284.82 170.92 284.18 C 172.38 278.89 182.16 277.91 177.26 272.24 C 177.88 269.79 176.84 267.38 176.24 265.03 C 180.01 265.04 175.97 262.26 174.65 261.40 C 173.77 257.70 169.41 254.04 172.24 250.27 C 173.55 246.21 178.99 246.93 182.16 246.92 C 180.41 246.04 178.91 244.83 177.93 243.10 C 182.38 242.85 178.47 238.97 175.97 238.76 C 176.11 235.63 181.47 234.93 179.58 231.36 M 181.91 247.97 C 183.93 251.92 184.09 258.57 188.77 259.81 C 195.14 254.83 188.90 246.60 181.91 247.97 Z" />
</g>
<g id="#808698ff">
<path fill="#808698" opacity="1.00" d=" M 185.25 229.96 C 185.68 236.81 178.29 230.11 183.91 228.84 C 184.25 229.12 184.91 229.68 185.25 229.96 Z" />
</g>
<g id="#1c1b1b9c">
<path fill="#1c1b1b" opacity="0.61" d=" M 134.93 238.98 C 132.88 237.67 132.81 235.65 134.72 232.92 C 135.48 234.86 135.67 237.00 134.93 238.98 Z" />
</g>
<g id="#a0a687ff">
<path fill="#a0a687" opacity="1.00" d=" M 210.23 234.37 C 213.92 234.70 213.27 239.76 209.20 238.90 C 207.23 237.64 207.59 234.32 210.23 234.37 Z" />
</g>
<g id="#8d8f98fd">
<path fill="#8d8f98" opacity="1.00" d=" M 223.94 248.22 C 221.03 247.42 221.46 239.48 225.83 240.95 C 226.03 242.41 226.20 243.88 226.33 245.35 L 225.83 246.06 C 225.22 246.80 224.59 247.52 223.94 248.22 Z" />
</g>
<g id="#868a96ff">
<path fill="#868a96" opacity="1.00" d=" M 198.92 245.90 C 200.93 244.08 203.94 245.25 207.04 242.87 C 207.53 246.66 202.00 249.71 198.72 248.91 C 198.77 248.16 198.87 246.66 198.92 245.90 Z" />
</g>
<g id="#323237f8">
<path fill="#323237" opacity="0.97" d=" M 223.94 248.22 C 224.59 247.52 225.22 246.80 225.83 246.06 C 228.27 246.80 230.89 247.32 233.16 248.60 C 230.02 250.48 219.13 256.17 222.18 249.13 C 222.62 248.90 223.50 248.45 223.94 248.22 Z" />
</g>
<g id="#54545afb">
<path fill="#54545a" opacity="1.00" d=" M 214.78 247.30 C 217.15 248.26 219.68 248.66 222.18 249.13 C 219.13 256.17 230.02 250.48 233.16 248.60 C 236.17 251.73 230.92 255.62 228.95 258.12 C 227.34 257.45 223.92 257.74 225.66 260.16 C 226.91 265.38 222.93 270.35 219.16 273.40 C 217.85 272.85 216.52 272.75 215.18 273.12 C 215.66 270.87 216.83 268.66 216.37 266.31 C 214.37 261.54 220.47 258.05 217.89 253.55 C 213.77 254.93 214.74 250.31 214.78 247.30 Z" />
</g>
<g id="#868591ff">
<path fill="#868591" opacity="1.00" d=" M 181.91 247.97 C 188.90 246.60 195.14 254.83 188.77 259.81 C 184.09 258.57 183.93 251.92 181.91 247.97 Z" />
</g>
<g id="#5b6164ff">
<path fill="#5b6164" opacity="1.00" d=" M 155.29 278.66 C 149.95 271.07 152.22 259.12 161.70 256.43 C 164.06 257.97 166.54 259.49 168.17 261.87 C 161.54 260.37 165.30 266.97 165.63 271.02 C 164.65 275.13 160.10 279.32 163.76 283.26 C 160.96 281.68 158.04 280.31 155.29 278.66 Z" />
</g>
<g id="#14131590">
</g>
<g id="#9696a1ff">
<path fill="#9696a1" opacity="1.00" d=" M 207.83 268.17 C 203.16 264.28 209.85 256.24 214.18 260.98 C 214.92 265.07 211.38 267.49 207.83 268.17 Z" />
</g>
<g id="#7f8574fd">
<path fill="#7f8574" opacity="1.00" d=" M 214.18 260.98 C 214.73 262.32 215.82 264.98 216.37 266.31 C 216.83 268.66 215.66 270.87 215.18 273.12 L 215.00 273.82 C 214.41 275.30 214.01 276.87 213.16 278.23 C 204.61 280.37 211.63 272.28 208.15 268.65 L 207.83 268.17 C 211.38 267.49 214.92 265.07 214.18 260.98 Z" />
</g>
<g id="#6e7652ff">
<path fill="#6e7652" opacity="1.00" d=" M 165.63 271.02 C 165.30 266.97 161.54 260.37 168.17 261.87 C 170.08 262.66 172.09 263.18 174.03 263.93 C 171.24 265.80 167.01 267.86 167.19 271.72 C 169.92 275.58 173.81 274.17 177.26 272.24 C 182.16 277.91 172.38 278.89 170.92 284.18 C 168.52 284.98 165.96 284.30 163.76 283.26 C 160.10 279.32 164.65 275.13 165.63 271.02 Z" />
</g>
<g id="#8e957eff">
<path fill="#8e957e" opacity="1.00" d=" M 167.19 271.72 C 167.01 267.86 171.24 265.80 174.03 263.93 C 174.58 264.20 175.69 264.76 176.24 265.03 C 176.84 267.38 177.88 269.79 177.26 272.24 C 173.81 274.17 169.92 275.58 167.19 271.72 Z" />
</g>
<g id="#a0a39dff">
<path fill="#a0a39d" opacity="1.00" d=" M 193.21 266.09 C 196.48 265.12 197.22 270.91 193.70 270.65 C 190.92 272.42 191.60 266.99 193.21 266.09 Z" />
</g>
<g id="#21242190">
</g>
<g id="#1c1e229d">
<path fill="#1c1e22" opacity="0.62" d=" M 146.02 279.02 C 148.22 281.11 146.24 285.38 146.82 288.19 C 145.87 286.66 146.07 284.80 145.91 283.08 C 145.95 281.73 145.98 280.37 146.02 279.02 Z" />
</g>
<g id="#626a46fd">
<path fill="#626a46" opacity="1.00" d=" M 169.91 290.10 C 175.12 288.86 180.65 289.57 185.97 288.98 C 185.13 292.71 188.76 292.95 191.43 292.88 C 190.45 294.20 189.33 295.41 188.15 296.55 C 186.74 295.29 184.66 295.27 183.06 296.15 C 180.31 295.68 177.60 295.27 174.84 295.04 L 174.02 294.95 C 172.43 293.57 169.97 292.49 169.91 290.10 Z" />
</g>
<g id="#292d18ad">
<path fill="#292d18" opacity="0.68" d=" M 174.84 295.04 C 177.60 295.27 180.31 295.68 183.06 296.15 C 180.32 295.77 177.56 295.39 174.84 295.04 Z" />
</g>
<g id="#21251695">
</g>
<g id="#00000016">
</g>
</svg>



