<svg xmlns="http://www.w3.org/2000/svg" width="512" height="512" viewBox="0 0 384 384" xmlns:v="https://vecta.io/nano"><path fill="#5c6071" opacity=".94" d="M186.51 91.03c2.34-3.49 6.41-3.86 10.42-3.07 1.17.67 2.31 1.42 3.43 2.19-4.44 2.5-8.98-1.03-13.85.88z"/><path fill="#444955" d="M186.51 91.03c4.87-1.91 9.41 1.62 13.85-.88l3.75 2.4c.24 4.11-10.36 7.14-3.31 9.45 4.23-7.19 6.34 4.01.18 4.51 2.42 2.1 6.9-.26 8.79 2.66.48 2.63 3.53 1.7 5.41 1.64.83-.15 1.65-.35 2.47-.6l2.66.83c-2.01 6.33-8.86 3.04-13.11 1.45-3.38-.27-6.06 2.52-9.2 3.4-6.07 4.05-1.26-7.99 3.17-5.22-.57-2.42-2.83-3.82-5.03-4.59-6.87 7.31-4.74 18.88.03 26.63-2.26-1.32-9.25.9-4.23 2.38 5.59-.02-1.01 4.83 2.62 7.65-4.92.44-3.98 6.55-.64 7.99 4.15-3.59 2.56 4.74 1.29 6.96 1.58 4.81 6.87-.58 6.85 4.29.12 4.96-6.27 4.98-8.56 8.21-.35 2.46-1.21 8.85 1.63 7.12.4-3.76 6.13-3.93 7.88-1.23-.01 4.22 1.31 9.65-3.12 12.12 1.77 3.3 6.24-3.46 5.35 3.11-.79 3.88-4.43 6.11-2.37 10.52-3.72.45-6.1 4.3-10.05 2.48-5.21-1.54-2.49 4.66-1.85 7.29-2.14.51-6.14.87-5.77 3.91 1.89.87 4.8 1.35 3.67 4.1-1.51.33-3.52.46-1.91 2.2-4.84-1.08-8.8 3.67-13.74 2.43 1.19 3.86-1.01 6.88-5.08 6.76-2.1-2.65-1.74-6.08-1.28-9.19-1.74.31-3.62 3.34-5.01 2.39-1.44-4.04-5.66 1.99-7.88-1.36-.05-4.69 6.09-5.52 9.12-3.05-3.84-5.76 3.75-7.53 2.93-12.88-6.79-.7-7.24 7.43-12.79 8.74-4.64-2.37-6.53-10.4-3.34-13.79 1.45 2.86 1.72 6.12 2.42 9.21 7.77-2.21 4.53-14.69 13.76-14.97 3.98.24-2.25-3.87 1.12-4.75 4.71 1.37 8.32-2.78 12.81-3.5-.62-3.41-1.71-6.73-2.89-9.98 2.73 2.26 10.26 8.44 8.32-.71 1.2-4.39-3.26-2.89-4.56-.22-2.39-.45-2.64-4.16-6.17-3.36-5.36-4.28-3.54-16.45-12.77-14.55.08 5.73 6.05 8.85 8.8 13.25.97 4.25-5.14 2.12-7.33 1.33-1.19-2.97-2.75-5.92-2.85-9.19-9.59.64 5.33-10.38-3.57-12.42-6.27-2.27-.76-7 1.35-9.76 3.78-1.6 1.84 3.81 4.55 4.9 1.58-2.72-1.69-5.34.14-8.05.47-4.66 6.85-3.7 8.54-7.05.82-5.75-2.01-9.81-7.29-6.88.42-3.64 1.46-7.88-2.53-9.79-3.88.82-9.12 13.09-.65 11.85-5.64 5.17-6.92-3.43-11.99-4.05l-.18-5.22c.59-1.41 1.32-2.75 2.04-4.09 9.53-2.69 13.26-10.64 15.9-19.07 6.09-3.13 13.31-1.31 19.65-3.76m1.83 8.33c-11.09-.5 6.46 10.38 6.64 2.55-2.14.07-5.05 2.18-6.1-.72 4.51.93 2.77-3.2-.54-1.83m-14.97 1c-8.27 3.04 3.07 8.01 6.59 3.49-1.05-2.14-4.14-4.5-6.59-3.49m-.06 24.33c.38 4.82 7.85 9.01 10.55 6.53a141.86 141.86 0 0 0 2.02-1.35c2.21-2.09 6.59-7.7 2.27-9.95l-.02-.95c-2.57-6.89-17.44-2.35-14.82 5.72m11 17.64c-4.74-.7-8.38 8.58-2.74 8.44.44-2.57 3.25.11 4.24-1.93 2.36-1.89 2.77-8.89-1.5-6.51m-8.1 20.77c-1.96 3.12-1.89 7.25 2.83 6.07-4.24 8.69 11.21-.71 4.98-4.21-2.45-1.04-5.07-2.34-7.81-1.86m17.03 30c-3.66 2.9 2.01 8.31 5.53 6.78 3.81-2.89-1.21-9.54-5.53-6.78m-16.97 10.23c-3.64.99-8.16 9.09-2.17 9.62 6.29 1.82 5.77-9.67 2.17-9.62z"/><path fill="#585d5e" opacity=".98" d="M200.8 102c-7.05-2.31 3.55-5.34 3.31-9.45a43.22 43.22 0 0 1 2.99 1.11c-5.18.63-2.17 5 .83 6.44 2.05-2.03.36-4.5-.83-6.44 5 3.1 9.81 7.71 15.76 4.35 2.95 5.02 9.81-1.71 11.9 4.13-.4 4.49 3.79 1.37 6.25 2.48-.97 2.37-5.93 4.44-3.62 6.25-1.1 2.01-2.49 5.57-4.86 2.74 0-3.25-1.67-7.02-5.34-6.86.47 1.68 3.33 4.73-.19 4.42-1.38-1.79-3.13-3.27-5.03-4.46-3.36.67-5.28-3.08-7.77-3.47-.31 2.88-3.89 7.43.98 7.57-1.88.06-4.93.99-5.41-1.64-1.89-2.92-6.37-.56-8.79-2.66 6.16-.5 4.05-11.7-.18-4.51z"/><path fill="#838a80" d="M207.93 100.1c-3-1.44-6.01-5.81-.83-6.44 1.19 1.94 2.88 4.41.83 6.44z"/><path fill="#6b716e" d="M188.34 99.36c3.31-1.37 5.05 2.76.54 1.83 1.05 2.9 3.96.79 6.1.72-.18 7.83-17.73-3.05-6.64-2.55z"/><path fill="#707588" d="M173.37 100.36c2.45-1.01 5.54 1.35 6.59 3.49-3.52 4.52-14.86-.45-6.59-3.49z"/><path fill="#798066" d="M214.2 103.24c2.49.39 4.41 4.14 7.77 3.47-1.82.64-3.12 2.08-4.32 3.5-.82.25-1.64.45-2.47.6-4.87-.14-1.29-4.69-.98-7.57z"/><path fill="#696e74" d="M237.39 110.87c-2.31-1.81 2.65-3.88 3.62-6.25l2.14 1.37.78 5.91c3.43 1.35 6.48 4.02 10.35 3.91.41 1.32.82 2.65 1.08 4.01l-.45 3.12c-5.03.75-8.3-1.93-10.73-6.05.68 3.64-.78 6.81-2.83 9.56-.25-2.92-.71-6.75-4.2-7.38-4.58 4.6-4.26 12.38 3.68 8.26.6 3.21 3.72 2.68 6.26 2.69 1.17.7 2.34 1.39 3.54 2.03 4.63 2.12 1.95 6.81-2.58 4.88-2.05-.33-4.18-.08-6.18-.69 4.09-6.85-4.75-1.95-8.26-3.96-2.97-2.18-10.1.74-6.89 4.86.89 1.49 1.98 2.84 3.1 4.16l.36 2.45-.17 1.81c-1.36 1.84-2.14 4.04-3.62 5.79-1.76-3.3-4.69-5.76-8.46-6.33-1.12-4.6-3.94-7.74-8.59-8.84 1.8-1.69 2.23-4.51-.93-4.68-4.12-.02-1.54-9.22-5.33-5.3-.29 3.12 2.55 5.91 1.32 9-1.61-7.46-7.38 3.11-5.22 6.51 3.97 2.01 7.66 4.4 11.91 5.9-4.05-.43-3.76 4.38-1.19 6.24-3.79.4-.38 5.71-.85 8.29-1.52-2.4-5.43-1.59-4.77 1.44 4.2 2.78 2.6 10-1.27 12.5-1.75-2.7-7.48-2.53-7.88 1.23-2.84 1.73-1.98-4.66-1.63-7.12 2.29-3.23 8.68-3.25 8.56-8.21.02-4.87-5.27.52-6.85-4.29 1.27-2.22 2.86-10.55-1.29-6.96-3.34-1.44-4.28-7.55.64-7.99-3.63-2.82 2.97-7.67-2.62-7.65-5.02-1.48 1.97-3.7 4.23-2.38-4.77-7.75-6.9-19.32-.03-26.63 2.2.77 4.46 2.17 5.03 4.59-4.43-2.77-9.24 9.27-3.17 5.22-1.25 3.47-1.14 7.03 2.97 8.1 2.11-2.67 1.28-8.87-2.97-8.1 3.14-.88 5.82-3.67 9.2-3.4 4.25 1.59 11.1 4.88 13.11-1.45 2.29.5 4.34 1.74 5.78 3.61-5.66-.49-7.18 10.25-2.37 12.66l1.34.94c5.71 4.85 2.86-5.81 6.05-8.16 4.14-5.24-2.61-5.55-4.11-8.92 3.52.31.66-2.74.19-4.42 3.67-.16 5.34 3.61 5.34 6.86 2.37 2.83 3.76-.73 4.86-2.74m-23.93 6.54c-1.16 1.86-2.8 3.28-4.66 4.41-3.05 3.59 3.81 3.01 5.23 6.13-.6.96 2.67-13.34-.57-10.54z"/><path fill="#353838" opacity=".68" d="M243.15 105.99l.78 5.91-.78-5.91z"/><path fill="#9599a3" d="M217.65 110.21c1.2-1.42 2.5-2.86 4.32-3.5 1.9 1.19 3.65 2.67 5.03 4.46 1.5 3.37 8.25 3.68 4.11 8.92-3.19 2.35-.34 13.01-6.05 8.16 5.83-1.38-4.7-8.08-1.34-.94-4.81-2.41-3.29-13.15 2.37-12.66-1.44-1.87-3.49-3.11-5.78-3.61l-2.66-.83z"/><path fill="#5c6178" d="M161.09 127.22c-8.47 1.24-3.23-11.03.65-11.85 3.99 1.91 2.95 6.15 2.53 9.79-1.05.71-2.09 1.43-3.18 2.06z"/><path fill="#696d84" d="M173.31 124.69c-2.62-8.07 12.25-12.61 14.82-5.72-2.67-1.56-6.04-2.97-8.79-.75.74 4.46-3.03 14 4.52 13-2.7 2.48-10.17-1.71-10.55-6.53z"/><path fill="#9498a7" d="M198 115.89c4.25-.77 5.08 5.43 2.97 8.1-4.11-1.07-4.22-4.63-2.97-8.1z"/><path fill="#9b9fac" d="M179.34 118.22c2.75-2.22 6.12-.81 8.79.75l.02.95c.29 4.43-3.83 4.53-2.27 9.95l-2.02 1.35c-7.55 1-3.78-8.54-4.52-13z"/><path fill="#858987" d="M213.46 117.41c3.24-2.8-.03 11.5.57 10.54-1.42-3.12-8.28-2.54-5.23-6.13 1.86-1.13 3.5-2.55 4.66-4.41z"/><path fill="#55555d" d="M244.18 116.89c2.43 4.12 5.7 6.8 10.73 6.05-1.14 3.62-6.56.36-9.32 2.62-3.41.99.34 3.15 1.5 4.46-2.54-.01-5.66.52-6.26-2.69l.52-.88c2.05-2.75 3.51-5.92 2.83-9.56z"/><path fill="#373a41" d="M145.3 130.82c.89-4.37 2.37-8.6 3.62-12.87l.18 5.22c5.07.62 6.35 9.22 11.99 4.05 1.09-.63 2.13-1.35 3.18-2.06 5.28-2.93 8.11 1.13 7.29 6.88-1.69 3.35-8.07 2.39-8.54 7.05-1.83 2.71 1.44 5.33-.14 8.05-2.71-1.09-.77-6.5-4.55-4.9-2.11 2.76-7.62 7.49-1.35 9.76 8.9 2.04-6.02 13.06 3.57 12.42.1 3.27 1.66 6.22 2.85 9.19 2.19.79 8.3 2.92 7.33-1.33-2.75-4.4-8.72-7.52-8.8-13.25 9.23-1.9 7.41 10.27 12.77 14.55-.15 1.8 1.56 2.9 2.41 4.29 1.18 3.25 2.27 6.57 2.89 9.98-4.49.72-8.1 4.87-12.81 3.5-3.37.88 2.86 4.99-1.12 4.75-9.23.28-5.99 12.76-13.76 14.97-.7-3.09-.97-6.35-2.42-9.21-3.19 3.39-1.3 11.42 3.34 13.79 5.55-1.31 6-9.44 12.79-8.74.82 5.35-6.77 7.12-2.93 12.88-3.03-2.47-9.17-1.64-9.12 3.05 2.22 3.35 6.44-2.68 7.88 1.36 1.39.95 3.27-2.08 5.01-2.39-.46 3.11-.82 6.54 1.28 9.19 4.07.12 6.27-2.9 5.08-6.76 4.94 1.24 8.9-3.51 13.74-2.43 2.24 1.55 9.46 4.94-.93 3.16-11.1-.09-6.83 17.43 1.58 18.51 4.17 1.77 6.14 9.29-.34 5.31 1.11-3.37.11-4.54-3.22-3.01-.29-.23-.87-.67-1.17-.9-4.36-2.66-9.13-4.93-13.79-6.93-11.7 5.21-10.54 23.51 1.58 27.44 4.24 3.28 10.25 2.43 15.15 1.44 2.84-.47 1.1 2.56 1.29 4.14 2.32 1.47 10.07-3.7 8.94 1.92-2.38.28-4.72.75-7.08 1.11-2.63-.37-7.14-3.75-7.97.08-.97 6.27 7.43 5.8 9.7 10.31 3.35 4.36 6.73-3.04 9.67-5 3.13-1.39 6.97-3.74 5.64 1.75-.83 3.75 4.94 3.56 4.64 7.09-.04 2.43 2.8 1.66 4.41 2-4.81 1.63-10.95-1.06-14.97 2.89-6.39 3.73-9.51-6.48-16.04-4.18-10.19 2.04-10.22-9.45-14.89-14.95-4.97-6.66-14.31-7.3-19.34-13.73-1.1-5.27-2.69-10.48-2.59-15.93.5-1.66 1.03-3.39.71-5.14l-.68-1.47-1.35-2.63c-5.53-7.46-.24-17.6-6.51-24.16l-1.1-3.09-.28-.86c.36-3.05.71-6.14 1.52-9.11.88 2.76 2.42 5.18 4.59 7.11 3.99-1.65 5.32-6.73 5.94-10.63-3.39.22-6.74-1.63-9.42 1.41.87-1.5 2.03-2.8 3.24-4.03 4.02-1.05 12.96-1.04 10.22 5.31 6.59.56 9.65-7.18 15.88-8.26-1-2.21 2.08-8.39-2.43-8.25-5.51.61-6.52-5.09-8.99-8.43-2.2.94-.78 3.35-.81 5.13-2.3-.95-3.36-3.57-5.78-4.34-1.09-2.9-1.2-7.24-4.97-7.92-4.33 1.67-5.61 6.34-7.2 10.22l-1.91-3.2.35-1.82c3.18-6.67 3.88-13.85 4.83-21.11l1.1-4.02 1.14-2.77c2.36-3.43 1.16-7.79-.02-11.45z"/><path fill="#8f9789" d="M237.15 119.07c3.49.63 3.95 4.46 4.2 7.38l-.52.88c-7.94 4.12-8.26-3.66-3.68-8.26z"/><path fill="#797f70" d="M188.15 119.92c4.32 2.25-.06 7.86-2.27 9.95-1.56-5.42 2.56-5.52 2.27-9.95z"/><path fill="#2b2a30" opacity=".95" d="M255.36 119.82c2.65 4.66-3 6.98-2.75 11.07l-1.98 1.16c-1.2-.64-2.37-1.33-3.54-2.03-1.16-1.31-4.91-3.47-1.5-4.46 2.76-2.26 8.18 1 9.32-2.62l.45-3.12z"/><path fill="#dcdfe5" d="M223.72 127.31c-3.36-7.14 7.17-.44 1.34.94l-1.34-.94z"/><path fill="#878a94" d="M203.08 126.2c3.79-3.92 1.21 5.28 5.33 5.3 3.16.17 2.73 2.99.93 4.68-1.01 2.14-5.53 1.63-4.94-.98 1.23-3.09-1.61-5.88-1.32-9z"/><path fill="#51535c" d="M226.72 137.14c-3.21-4.12 3.92-7.04 6.89-4.86 3.51 2.01 12.35-2.89 8.26 3.96-3.45-2.26-6.04 3.31-9.45 1.36-2.41-1.1-6.48-6.04-5.7-.46z"/><path fill="#505256" opacity=".97" d="M250.63 132.05l1.98-1.16c4.08 1.06 11.53 6.58 4.76 9.39-2.93-1.56-6.16-2.4-9.32-3.35 4.53 1.93 7.21-2.76 2.58-4.88z"/><path fill="#51585c" d="M199.18 141.71c-2.16-3.4 3.61-13.97 5.22-6.51-.59 2.61 3.93 3.12 4.94.98 4.65 1.1 7.47 4.24 8.59 8.84-1.11 2.12-2.27 4.23-3.3 6.4-3.23 1.48-.64 4.67.42 6.71-1.91-1.18-3.54-2.73-5.15-4.28-2.57-1.86-2.86-6.67 1.19-6.24-4.25-1.5-7.94-3.89-11.91-5.9z"/><path fill="#2c2c32" opacity=".96" d="M226.72 137.14c-.78-5.58 3.29-.64 5.7.46 3.41 1.95 6-3.62 9.45-1.36 2 .61 4.13.36 6.18.69 3.16.95 6.39 1.79 9.32 3.35-8.95.68-18.45-1.14-27.55 1.02-1.12-1.32-2.21-2.67-3.1-4.16z"/><path fill="#6c6f7b" d="M184.31 142.33c4.27-2.38 3.86 4.62 1.5 6.51-.99 2.04-3.8-.64-4.24 1.93-5.64.14-2-9.14 2.74-8.44z"/><path fill="#5b5f69" d="M230.18 143.75c4.93 5.36 9.19 11.75 10.11 19.13-1.55 3.01-1.36 5.41.58 7.21l1.25 1.07c-1.83 1.58-3.86 2.99-6.34 1.84.31-1.58.29-3.49 1.86-4.41 4.71-2.81-7.55-12.22-3.14-2.06.48 2.67-3.93 4.23-1.54 6.9-4.76.33-1.33 2.28.92 3.9-.95 2.24-3.23 3.18-5.55 2.61-.59-1.47.22-4.32-2.16-4.03 2.57 3.96-3.57 5.9-.24 9.21.88 1.97-2.13-.12-2.96-.06-.3-2.34-.72-4.67-1.13-6.99-1.73 1.6-3.35 3.32-5.06 4.95.34-2.07 1.14-4.02 2.17-5.84 1.65-1.1 4.98-1.83 3.08-4.31-.64-3.64 6.53 1.69 4.98-2.86.16-4.23-4.49-2.01-6.06-.01-2.83-1.89-8.72-5.25-4.94-8.74 1.33.57 2.6 1.27 3.95 1.81l.9-.02c2.48.21 4.15-1.7 6.05-2.91 3.61 4.06 4.18-4.64 7.06-6.12-3.19-1.87-4.29-4.89-3.96-8.46l.17-1.81z"/><path fill="#7b8545" d="M217.93 145.02c3.77.57 6.7 3.03 8.46 6.33 1.4 5.22-.91 8.96-5.53 11.7l-.9.02c-1.06-1.94-2.54-4.28.07-5.63 4.68-.99 1.79-3.68-1.14-4.83-1.36-.6-2.84-.82-4.26-1.19 1.03-2.17 2.19-4.28 3.3-6.4z"/><path fill="#7e8186" d="M226.39 151.35c1.48-1.75 2.26-3.95 3.62-5.79-.33 3.57.77 6.59 3.96 8.46-2.88 1.48-3.45 10.18-7.06 6.12-1.9 1.21-3.57 3.12-6.05 2.91 4.62-2.74 6.93-6.48 5.53-11.7z"/><path fill="#747a7e" d="M215.05 158.13c-1.06-2.04-3.65-5.23-.42-6.71 1.42.37 2.9.59 4.26 1.19-1.35 1.8-.64 3.68 1.14 4.83-2.61 1.35-1.13 3.69-.07 5.63l-3.95-1.81c-3.78 3.49 2.11 6.85 4.94 8.74 1.57-2 6.22-4.22 6.06.01 1.55 4.55-5.62-.78-4.98 2.86-3.57-5.24-9.62 5.37-3.08 4.31-1.03 1.82-1.83 3.77-2.17 5.84l5.06-4.95c.41 2.32.83 4.65 1.13 6.99-2.85 7.78 2.63 15.45 10.44 16.76l-2.37 1.69c-5.1-.68-6.03 4.39-2.31 6.92-.78 3.18 2.17 6.24.06 9.39-7.82-.04-15.76-.88-23.46.36-3.86-2.47-4.28 4.95-8.46 3.66-3.79-1.84 5.63-3.87 1.03-6.74-2.92-.75-.82-5.86 1.48-3.54 2.85 4.6 8.59-.38 12.75-.65-1.5-3.91-5.18-.36-7.49.72-2.7 1.35-3.9-2.73-4.59-4.6-.05-4.67 7.98 1.43 6.67-2.63-5.23-.14 1.48-5.96-2.36-9 .89-6 10.67-2.52 9.64-8.51-3.13.04-5.61 2.77-8.76 2.42.89-6.57-3.58.19-5.35-3.11 4.43-2.47 3.11-7.9 3.12-12.12 3.87-2.5 5.47-9.72 1.27-12.5-.66-3.03 3.25-3.84 4.77-1.44.47-2.58-2.94-7.89.85-8.29 1.61 1.55 3.24 3.1 5.15 4.28m-.11 25.87c-.93 6.2 8.83-2.01 4.32 7.27 3.77-4.79 1.36-8.01-4.32-7.27m.25 13.06c-4.37 5.01 4.72 3.11 7.7 5.79 4.07-4.87-4.71-4.3-7.7-5.79z"/><path fill="#a7af9a" d="M220.03 157.44c-1.78-1.15-2.49-3.03-1.14-4.83 2.93 1.15 5.82 3.84 1.14 4.83z"/><path fill="#838795" d="M234.5 166.53c-4.41-10.16 7.85-.75 3.14 2.06-1.57.92-1.55 2.83-1.86 4.41l-2.82.43c-2.39-2.67 2.02-4.23 1.54-6.9z"/><path fill="#5b606f" d="M176.21 163.1c2.74-.48 5.36.82 7.81 1.86 6.23 3.5-9.22 12.9-4.98 4.21-4.72 1.18-4.79-2.95-2.83-6.07z"/><path fill="#303136" opacity=".67" d="M240.29 162.88c1.52 2.06 1.71 4.46.58 7.21-1.94-1.8-2.13-4.2-.58-7.21z"/><path fill="#595d72" d="M139.81 175.19c1.59-3.88 2.87-8.55 7.2-10.22 3.77.68 3.88 5.02 4.97 7.92-.56 3.21 3.24 9.22-1.61 10.54-4.93 1.96-8.18-3.97-10.26-7.53l-.3-.71z"/><path fill="#9194a1" d="M218.95 177.18c-6.54 1.06-.49-9.55 3.08-4.31 1.9 2.48-1.43 3.21-3.08 4.31z"/><path fill="#3a3b45" d="M242.12 171.16c4 4.51 10.32 2.6 15.66 3.01l8.43.7c5.01 2.38 10.29 4.72 14.46 8.48 3.17 4.06.31 9.52-3.59 11.78-9.56 9.16-22.62 5.46-34.02 8.75-3.63-.3-6.11 2.33-8.61 4.5-3.35-1.96-.24-4.22 2.6-3.66.09-2.05-2.24-2.19-3.64-2.9-7.81-1.31-13.29-8.98-10.44-16.76.83-.06 3.84 2.03 2.96.06-3.33-3.31 2.81-5.25.24-9.21 2.38-.29 1.57 2.56 2.16 4.03 2.32.57 4.6-.37 5.55-2.61-2.25-1.62-5.68-3.57-.92-3.9l2.82-.43c2.48 1.15 4.51-.26 6.34-1.84m-3.53 11.25c-3.65-.39-6.59 6.1-5.51 9.36 2.28 2.61 3.55.57 2.14-2.01 2.12 2.34 5 3 7.45.53 2.15 6.11 7.77 3.47 12.21 3.06.64 4.98 5.1 5.11 5-.06l.76-.55c.46 3.54 4.64 3.91 5.53.43 4.97 5.01 13.45-4.82 8.06-9.4-1.58-3.62-4.95-2.1-7.77-2.13-3.27-6.2-10.29-2.46-12.19 2.27-.04-5.33-5.21-1.31-6.43-5.62-5.95-1.84-4.39 8.77-9.25 4.12m-8.24-1.15c-2.19 2.61-6.11 9.57.42 7.6.77-2.43 4.69-9.3-.42-7.6z"/><path fill="#2c2c33" d="M157.76 177.23c.03-1.78-1.39-4.19.81-5.13 2.47 3.34 3.48 9.04 8.99 8.43 4.51-.14 1.43 6.04 2.43 8.25-6.23 1.08-9.29 8.82-15.88 8.26 2.74-6.35-6.2-6.36-10.22-5.31 2.31-5.52-7.21-9.52-3.78-15.83 2.08 3.56 5.33 9.49 10.26 7.53 4.85-1.32 1.05-7.33 1.61-10.54 2.42.77 3.48 3.39 5.78 4.34z"/><path fill="#585d6e" d="M177.11 177.87c-.85-1.39-2.56-2.49-2.41-4.29 3.53-.8 3.78 2.91 6.17 3.36 1.3-2.67 5.76-4.17 4.56.22 1.94 9.15-5.59 2.97-8.32.71z"/><path fill="#1b1b21" opacity=".62" d="M257.78 174.17c2.82-.02 5.63.16 8.43.7l-8.43-.7z"/><path fill="#575968" d="M238.59 182.41c4.86 4.65 3.3-5.96 9.25-4.12 1.22 4.31 6.39.29 6.43 5.62 1.9-4.73 8.92-8.47 12.19-2.27 2.82.03 6.19-1.49 7.77 2.13 5.39 4.58-3.09 14.41-8.06 9.4-.89 3.48-5.07 3.11-5.53-.43 2.92-1.55 7-1.26 10.21.16 4.88-2.2 2.15-11.92-3.4-9.33-3.06 1.88-6.32-.46-9.29-1.39-2.58 2.85-3.98 11.15 1.72 11.11.1 5.17-4.36 5.04-5 .06-4.44.41-10.06 3.05-12.21-3.06-2.45 2.47-5.33 1.81-7.45-.53 1.41 2.58.14 4.62-2.14 2.01-1.08-3.26 1.86-9.75 5.51-9.36z"/><path fill="#515565" d="M230.35 181.26c5.11-1.7 1.19 5.17.42 7.6-6.53 1.97-2.61-4.99-.42-7.6z"/><path fill="#7b7c87" d="M258.16 182.18c2.97.93 6.23 3.27 9.29 1.39 5.55-2.59 8.28 7.13 3.4 9.33-3.21-1.42-7.29-1.71-10.21-.16l-.76.55c-5.7.04-4.3-8.26-1.72-11.11z"/><path fill="#5b606e" d="M214.94 184c5.68-.74 8.09 2.48 4.32 7.27 4.51-9.28-5.25-1.07-4.32-7.27z"/><path fill="#616567" d="M205.24 191.31c3.15.35 5.63-2.38 8.76-2.42 1.03 5.99-8.75 2.51-9.64 8.51 3.84 3.04-2.87 8.86 2.36 9 1.31 4.06-6.72-2.04-6.67 2.63.69 1.87 1.89 5.95 4.59 4.6 2.31-1.08 5.99-4.63 7.49-.72-4.16.27-9.9 5.25-12.75.65-2.3-2.32-4.4 2.79-1.48 3.54 4.6 2.87-4.82 4.9-1.03 6.74 4.18 1.29 4.6-6.13 8.46-3.66 7.7-1.24 15.64-.4 23.46-.36 2.11-3.15-.84-6.21-.06-9.39 2.53-1.46 4.51-4.2 2.31-6.92l2.37-1.69c1.4.71 3.73.85 3.64 2.9-2.84-.56-5.95 1.7-2.6 3.66 2.07 2.04 5.19 2.31 6.68-.52 1.5 7.58-2.83 15.5-5.85 22.37 2.27-3.66-1.55-5.54-4.07-2.92.99 1.51-3.28 7.17.82 7.01-3.28 3-5.14 7.1-4.63 11.72-.19 1.29-.35 2.59-.49 3.9-1.02 4.44-1.76 13.73 5.2 10.24l-.25 1.62c-.58 3.01-3.51 6.08-1.68 9.12 2.02.59 3.45-1.14 4.9-2.21 1.89-.41 3.44.9 5.07 1.61-1.13 4.04-7.03 4.4-8.52 8.44 1.69-.32 4.15-3.04 5.17-.51 1.41 3.34-4.52 1.57-5.42 3.89-3.25 6.77-12.27 2.4-16.32 8.09-1.61-.34-4.45.43-4.41-2 .3-3.53-5.47-3.34-4.64-7.09 2.52 1.77 5.08-.35 3.01-2.92 6.08-3.86 1.64 5.29 5.77 4.64.79-3.44 1.83-6.83 2.06-10.37-2.32-.53-4.97-.94-5.35-3.79-.01-2.04.58-3.96 1.47-5.78-3.08-1.36-4.9.73-6.85 2.25-.27-2.66-2.92-8.81 1.42-7.72 3.68 3.33 8.06-2.92 8.9-6.37 4.59-.38 4.98 6.15.74 7.03-3.26.4-4.95 5.28-1.62 6.75 2.92-5.58 9.6-8.8 9.48-15.87 3.63-6.69-5.33-8.4-8.08-4.11.47 9.43-6.21 3.61-8.72.22 1.75-1.56 1.67-3.47.19-5.19 2.58-3.64-3.76-5.34.63-9.07-3.79.23-4.68 5.52-2.35 7.98-2.42.63-6.54-.3-4.02 5.16-2.57-.14-5.07-.82-7.64-1.02l3.58 11.93c-1.6 2.01-9.33 5.75-2.79 4.79 5.13-2.3 2.2 4.74 4.35 7.52-2.61 3.52-10.68-.03-9.74-4.43-1.86.93-3.55 2.25-4.63 4.06-4.9.99-10.91 1.84-15.15-1.44 6.53-.38 11.46-5.28 17.18-7.9-.94-1.51-2.11-2.87-3.02-4.4 1.79-2.33-.06-4.95-.78-7.31 3.33-1.53 4.33-.36 3.22 3.01 6.48 3.98 4.51-3.54.34-5.31-8.41-1.08-12.68-18.6-1.58-18.51 10.39 1.78 3.17-1.61.93-3.16-1.61-1.74.4-1.87 1.91-2.2 1.13-2.75-1.78-3.23-3.67-4.1-.37-3.04 3.63-3.4 5.77-3.91-.64-2.63-3.36-8.83 1.85-7.29 3.95 1.82 6.33-2.03 10.05-2.48-2.06-4.41 1.58-6.64 2.37-10.52m2.92 30.81c-1.05 1.92-1.34 5.01-.05 6.87 2.08-3.55 9.08-1.85 7.9-7.04-3.5.38-5.51 2.5-7.85.17m12.6.13c5.5 6.24-2.82 10.02-7.74 12.91-1.07 5.69 5.93 2.49 9.09 3.86-5.79-7.05 7.73-10.55 7.92-17.05-3.14-.08-6.19 1.73-9.27.28m-29.83 3.7c2.02 4.12.48 9.42 5.14 12 6.81-2.91 1.68-13.64-5.14-12z"/><path fill="#54555b" d="M140.65 195.76c2.68-3.04 6.03-1.19 9.42-1.41-.62 3.9-1.95 8.98-5.94 10.63-2.17-1.93-3.71-4.35-4.59-7.11l1.11-2.11z"/><path fill="#707877" d="M193.24 193.1c4.32-2.76 9.34 3.89 5.53 6.78-3.52 1.53-9.19-3.88-5.53-6.78z"/><path fill="#949a9d" d="M215.19 197.06c2.99 1.49 11.77.92 7.7 5.79-2.98-2.68-12.07-.78-7.7-5.79z"/><path fill="#62697b" d="M176.27 203.33c3.6-.05 4.12 11.44-2.17 9.62-5.99-.53-1.47-8.63 2.17-9.62z"/><path fill="#949b99" d="M228.73 210.43c-3.72-2.53-2.79-7.6 2.31-6.92 2.2 2.72.22 5.46-2.31 6.92z"/><path fill="#818384" d="M234.45 208.38c2.5-2.17 4.98-4.8 8.61-4.5l-1.93 3.98c-1.49 2.83-4.61 2.56-6.68.52z"/><path fill="#898e9a" d="M208.16 222.12c2.34 2.33 4.35.21 7.85-.17 1.18 5.19-5.82 3.49-7.9 7.04-1.29-1.86-1-4.95.05-6.87z"/><path fill="#787b81" d="M220.76 222.25c3.08 1.45 6.13-.36 9.27-.28-.19 6.5-13.71 10-7.92 17.05-3.16-1.37-10.16 1.83-9.09-3.86 4.92-2.89 13.24-6.67 7.74-12.91z"/><path fill="#8c8c99" d="M190.93 225.95c6.82-1.64 11.95 9.09 5.14 12-4.66-2.58-3.12-7.88-5.14-12z"/><path fill="#8a8b92" d="M231.21 227.31c2.52-2.62 6.34-.74 4.07 2.92-.97 1.45-2.05 2.82-3.25 4.09-4.1.16.17-5.5-.82-7.01z"/><path fill="#767b7f" d="M206.71 238.82c-2.33-2.46-1.44-7.75 2.35-7.98-4.39 3.73 1.95 5.43-.63 9.07 1.48 1.72 1.56 3.63-.19 5.19 2.51 3.39 9.19 9.21 8.72-.22-1.14 6.02 3.7 4.97 8.08 4.11.12 7.07-6.56 10.29-9.48 15.87-3.33-1.47-1.64-6.35 1.62-6.75 4.24-.88 3.85-7.41-.74-7.03-.84 3.45-5.22 9.7-8.9 6.37-4.34-1.09-1.69 5.06-1.42 7.72-.41 3.48-3.44 2.42-5.93 2.03-2.15-2.78.78-9.82-4.35-7.52-6.54.96 1.19-2.78 2.79-4.79l-3.58-11.93c2.57.2 5.07.88 7.64 1.02-2.52-5.46 1.6-4.53 4.02-5.16m-5.49 9.36c-2.37.85-.82 4.76 1.46 3.47 4.91.51 2.09-5.36-1.46-3.47z"/><path fill="#5e6562" d="M170.67 265.39c-12.12-3.93-13.28-22.23-1.58-27.44 4.66 2 9.43 4.27 13.79 6.93-5.02-.19-9.47 4.4-9.07 9.23-2.25 3.38-2.91 7.27-3.14 11.28z"/><path fill="#222329" opacity=".93" d="M230.54 245.53c11.31-8.67 26.38-5.48 39.65-5.99-6.45 3.21-14.13.22-20.16 4.14-6.68-4.89-12.51 3.76-15.58 9.02-3.36 1.75-5.54-.84-7.54-2.76.14-1.31.3-2.61.49-3.9 1.11.83 2.2.23 3.14-.51z"/><path fill="#464851" d="M250.03 243.68c6.03-3.92 13.71-.93 20.16-4.14 2.76.4 6.28 2.31 3.79 6.22-2.97 1.63-6.18 2.79-9.2 4.31-1.64-.01-3.27 0-4.89.05 1.94-1.65 4.92-2.79 4.2-5.92-3.43.4-6.87.68-10.3.25.98 2.73 2.69 5.98 6.1 5.67-3.35 1.19-4.61 3.23-.96 5.26 3.75 3.03 8.69 1.53 13.01 2.7l-.57 6.17c1.8-7.61-8.24-6.41-12.17-3.09-1 2.08 1.6 1.72 2.85 2.24-.87 1.72-2.13 3.18-3.18 4.79-3.22.16-7.38-3.06-1.92-3.61-1.09-3-2.03-5.66.05-8.53-1.86-3.12-3.9-6.17-6.27-8.9-8.19-.32-13.76 7.44-18.62 13.03-6.96 3.49-6.22-5.8-5.2-10.24 2 1.92 4.18 4.51 7.54 2.76 3.07-5.26 8.9-13.91 15.58-9.02z"/><path fill="#999aa0" d="M216.96 244.88c2.75-4.29 11.71-2.58 8.08 4.11-4.38.86-9.22 1.91-8.08-4.11z"/><path fill="#62626d" d="M253.79 244.45c3.43.43 6.87.15 10.3-.25.72 3.13-2.26 4.27-4.2 5.92-3.41.31-5.12-2.94-6.1-5.67z"/><path fill="#868d75" d="M173.81 254.11c-.4-4.83 4.05-9.42 9.07-9.23l1.17.9c.72 2.36 2.57 4.98.78 7.31-3.48 3.21-6.99 1.69-11.02 1.02z"/><path fill="#6e7077" d="M232.11 260.18c4.86-5.59 10.43-13.35 18.62-13.03 2.37 2.73 4.41 5.78 6.27 8.9-2.08 2.87-1.14 5.53-.05 8.53-5.46.55-1.3 3.77 1.92 3.61-2.03 2.72-1.03 5.49.5 8.17-3.2.66-2.89-3.79-5.71-2.81-3.55.63-1.63-4.05-.9-5.83-2.3.42-4.05 1.99-5.92 3.25.93-3.82 3.03-8.09.98-11.88-4.17-1.22-4.08 4.78-2.01 6.99-3.58-1.19-6.56-1.46-5.66 4.24-1.63-.71-3.18-2.02-5.07-1.61.91-3.42 1.84-9.51-3.22-6.91l.25-1.62z"/><path fill="#a4a7a4" d="M201.22 248.18c3.55-1.89 6.37 3.98 1.46 3.47-2.28 1.29-3.83-2.62-1.46-3.47z"/><path fill="#232328" opacity=".94" d="M258.93 255.38c2.58-1.57 5-3.65 8.19-3.73 2.58 1.31 4.44 3.5 4.82 6.43-4.32-1.17-9.26.33-13.01-2.7z"/><path fill="#6e7747" d="M173.81 254.11c4.03.67 7.54 2.19 11.02-1.02.91 1.53 2.08 2.89 3.02 4.4-5.72 2.62-10.65 7.52-17.18 7.9.23-4.01.89-7.9 3.14-11.28z"/><path fill="#4a4f52" opacity=".98" d="M245.81 266.08c-2.07-2.21-2.16-8.21 2.01-6.99 2.05 3.79-.05 8.06-.98 11.88 1.87-1.26 3.62-2.83 5.92-3.25-.73 1.78-2.65 6.46.9 5.83 2.82-.98 2.51 3.47 5.71 2.81-2.44 1.21-5.11 1.89-7.64 2.86-1.28-1.15-1.14-2.81-1.13-4.37-4.04 1.14-6.05 6.91-1.47 8.5-3.02.11-5.71 1.13-7.21 3.77-4.21.28-7.19-3.02-10.54-4.98.9-2.32 6.83-.55 5.42-3.89-1.02-2.53-3.48.19-5.17.51 1.49-4.04 7.39-4.4 8.52-8.44-.9-5.7 2.08-5.43 5.66-4.24z"/><path fill="#67696f" d="M259.2 261.16c3.93-3.32 13.97-4.52 12.17 3.09l-.15.93c-3.1-.94-6.17-.94-8.19 1.93l-2.18.84-1.98.24c1.05-1.61 2.31-3.07 3.18-4.79-1.25-.52-3.85-.16-2.85-2.24z"/><path fill="#909299" d="M231.86 261.8c5.06-2.6 4.13 3.49 3.22 6.91-1.45 1.07-2.88 2.8-4.9 2.21-1.83-3.04 1.1-6.11 1.68-9.12z"/><path fill="#494e56" d="M185.82 266.83c1.08-1.81 2.77-3.13 4.63-4.06-.94 4.4 7.13 7.95 9.74 4.43 2.49.39 5.52 1.45 5.93-2.03 1.95-1.52 3.77-3.61 6.85-2.25-.89 1.82-1.48 3.74-1.47 5.78-2.35 1.75-2.9 5.21-6.55 3.55-.78 3.03 1.73 4.77 4.07 5.97 2.07 2.57-.49 4.69-3.01 2.92 1.33-5.49-2.51-3.14-5.64-1.75l-.4-.81c1.37-2.37 3.13-4.73 3.12-7.6-2.11-.33-4.16.24-5.56 1.9l-1.48.01c1.13-5.62-6.62-.45-8.94-1.92-.19-1.58 1.55-4.61-1.29-4.14z"/><path fill="#2d2d33" opacity=".83" d="M263.03 267.11c2.02-2.87 5.09-2.87 8.19-1.93-2.27 1.95-5.4 1.66-8.19 1.93z"/><path fill="#424346" opacity=".9" d="M258.87 268.19l1.98-.24c-.77 2.76-.99 5.59-1.48 8.41-1.53-2.68-2.53-5.45-.5-8.17z"/><path fill="#72757f" d="M204.95 272.25c3.65 1.66 4.2-1.8 6.55-3.55.38 2.85 3.03 3.26 5.35 3.79-.23 3.54-1.27 6.93-2.06 10.37-4.13.65.31-8.5-5.77-4.64-2.34-1.2-4.85-2.94-4.07-5.97z"/><path fill="#85878f" d="M197.53 272.88c1.4-1.66 3.45-2.23 5.56-1.9.01 2.87-1.75 5.23-3.12 7.6-1.01-1.81-1.83-3.72-2.44-5.7z"/><path fill="#4e534e" d="M181 274.08c.83-3.83 5.34-.45 7.97-.08-1.16 6.54 6.91 8.44 11.4 5.39-2.94 1.96-6.32 9.36-9.67 5-2.27-4.51-10.67-4.04-9.7-10.31z"/><path fill="#717a4d" d="M188.97 274l7.08-1.11 1.48-.01c.61 1.98 1.43 3.89 2.44 5.7l.4.81c-4.49 3.05-12.56 1.15-11.4-5.39z"/><path fill="#6d7579" opacity=".97" d="M249.13 283.35c-4.58-1.59-2.57-7.36 1.47-8.5-.01 1.56-.15 3.22 1.13 4.37.51 1.94-.38 4.01-2.6 4.13z"/></svg>