<svg xmlns="http://www.w3.org/2000/svg" width="512" height="512" viewBox="0 0 384 384" xmlns:v="https://vecta.io/nano"><path fill="#414650" d="M154.24 88.29l1.71-1.36 7.13-.18c3.92 2.16 8.11 4.01 12.64 4.27.37 4.11 1.88 8.34-.54 12.11-2.98 6.3 3.2 11.9 1.41 18.47-4.4-.21-3.32 4.69-4.48 7.6 2.64-.51 3.18-3.94 5.84-4.42-.87 4.93-4.49 8.74-4.96 13.32-2.33.85-4.88 4.05-3.36 6.26 4.23 4.16 8.18-10.03 9.08-2.63-.89 1.87-3.76 4.06-1.05 5.72 3.52 2.2 4.03 6.52-.77 7.41-4.92.77-9.36 9.96-2.4 9.94.2-2.67 2.6-2.21 4.57-2.42l.94-.11 1.77 6.05c2.56 4.51-5.31 5.39-2.78 9.4 2.51-.82 7.28-5.06 3.94 3.09-1.35 2.31-4.59 5.01-1.31 7.29l.52.64c-2.2 1.41-2.59 3.54-.37 5.15-5.72-1.46-3.85 9.3-9.5 4.04 1.53-2.96-.14-7.51-4.03-5.8-3.47 2.38.76 6.86 4.03 5.8.24 1.31.45 2.64.62 3.97-1.08 1.69-2.25 3.79-4.62 3.05-1.24-2.17-2.42-6.94-5.6-4.3-3.49 3.23 4.27 5.01.99 7.96-2 3.42 4.08 3 5.72 5.06-3.76.35-10.61-1.66-12.33 3.4-2.82 4.84 2.3 9.04 3.22 13.72-2.36-2.72-8.78-5.85-6.74-10.3 2.91-3.11.94-8.33-3.6-7.58 1.57 2.4 2.93 6.3-1.02 7.07-4.27 1.54-3.09-4.34-4-6.58-2.81 1.18-9.08 3.01-7.91-2.27 3.3-3.87 5.46-8.6 7.07-13.2-7.31-2.04-4.36 11.86-10.88 6.91-.95-5.56-1.98-8.26-6.75-10.01-.6-4.61.35-9.72 4.71-12.19 5.1 1.16 1.7 6.26.83 9.45 2.7.46 3.24-2.08 4.31-3.91 4.23-.33 9.42-2.66 9.53-7.5 5.01 1.65 10.36-3.62 5.99-7.5-2.32-4.96 5.14-2.68 7.34-1.14-1.79-4.1-6.69-10.06-11.53-6.53-5.55 2.27-3.45-9.07-8.06-5.09-2.27 1.48-2.76-4.43-4.5-.34-2.26-7.39-9.65.45-9.57 5.13-2-4.99 3.76-8.65 3.02-13.36l-.55-4.83c.83-7.45 6.11-14.69-.01-21.26 1.24-6.38 1.61-13.55 6.33-18.49 2.65-2.46.48-6.32.48-9.5.78-1.22 1.52-2.47 2.27-3.71a42.35 42.35 0 0 1 2.72-1.29c3.1-.21 6.6 1.05 9.45-.59 1.87-1.03 3.46-2.47 5.04-3.89m1.05 4.98c-2.58.93-8.63 6.1.27 4.35 2.39.72 6.58-.1 5.34-3.41-1.73-.76-3.72-1.81-5.61-.94m2.65 25.77c1.6 2.3 7.93 5.2 8.79 3.32 4.54-2.81 8.1-9.65 4.07-14.41-5.35-5.78-19.15 3.08-12.86 11.09m-13.72-10.91c-2.91 2.87-7.17 9.92-1.02 11.57 5.82-.6 8.49-11.55 1.02-11.57m23.08 23.19c-3.08 1.12-6.72 3.81-6.19 7.45 4.48 5.48 14.29-8.29 6.19-7.45m-11.76 21.07c-5.46 2.26 2.43 4.96 3.38 5.68-2.14 7.26 5.43.56 7.93-1.34-.22-4.8-7.73-5.65-11.31-4.34m.34 9.62c1.59 2.66 2.9 7.05 6.16 7.95 4.14 1.15 2.04-5.53 2.96-8-2.71-.83-2.37 3.49-4.88 3.01-1.76-.61-1.77-3.75-4.24-2.96m15.35 19.13c-4.12 2.93 3.56 9.99 6.1 5.16 2.75-3.49-3.18-6.15-6.1-5.16m-16.96 11.11c-2.94 1.59-4.4 5.5-4.29 8.74 7.35 4.47 9.15-10.3 4.29-8.74z"/><path fill="#5c6169" d="M175.72 91.02c7.54.28 9.86 9.86 16.94 11.33 5.8 1.43 13.73-.2 16.72 6.36-2.6-.96-7.38-6.38-6.41 1.27-3.7 4.55 4.55 13.34 8.15 10.18l.14 2.41c5.14.61 12.2 8.92 4.9 11.74 6.52 5.97 11.96 12.89 14.11 21.61-.65 1.63-1 3.82.68 4.99l.97 1.12.14 2.87c-3.72-.61-7.36-2.36-11.18-1.3a46.43 46.43 0 0 1 1.01-2.79c5.17 3.78 3.25-5.11.05-5.78-3.78-.93-1.57 4.28-.05 5.78-3.08 4.49-14.14 1.33-6.89 7.16-4.08 3.47-4.55-1.4-6.78-2.94.81-3.48 3.8-9.59-3.86-6.65-2.52 1.99-5.07-.52-7.42-1.57 2.22-5.49 9.78-1.59 11.98-6.95 2.61-5.17 2.39 5.87 6.08 2.2 1.09-2.72 9.47-6.28 3.37-7.47-6.24-.43-2.94-7.83-3.48-11.82-3.92 1.74-.44 10.77-5.86 8.33-2.12-2.63-1.27-5.78-1.29-8.81-1.09-5.2-9.81-2.71-8.14 2.52-.54 2.08-1.89 3.85-2.93 5.71-1.69 1.52-1.12 3.69-.96 5.67-2.8-.75-3.25-5.08-6.71-4.27.11 2.01.54 3.98.78 5.98-2.24.97-6.32.5-5.78 4.22-.51 2.26 2.32-.77 3.28-.94-.4 6.16-5.25 10.97-5.51 17.14l-1.77-6.05c1.29-1.9 2.42-4 2.03-6.39-3.25.06-5.48 3.97-2.97 6.5-1.97.21-4.37-.25-4.57 2.42-6.96.02-2.52-9.17 2.4-9.94 4.8-.89 4.29-5.21.77-7.41 4.97.65 2.49-3.26 1.05-5.72-.9-7.4-4.85 6.79-9.08 2.63-1.52-2.21 1.03-5.41 3.36-6.26.47-4.58 4.09-8.39 4.96-13.32-2.66.48-3.2 3.91-5.84 4.42 1.16-2.91.08-7.81 4.48-7.6 1.79-6.57-4.39-12.17-1.41-18.47 2.42-3.77.91-8 .54-12.11m5.53 14.99c-.01 2.58-3.1 7.24 1.05 7.67 5.25 2.56 3.45-8.24-1.05-7.67m14.08 1.35c-.64.77-4.25 1.93-2.5 2.62 3.37 1.55-3.61.48-2.83 3.07-.77 2.99 3.31 2.56 4.82 4.18-3.93 8.71 6.18 3.2 3.31-.31-2.4-2.74 1.99-9.76-2.8-9.56m-9.32 8.62c-1.59 3.94 3.31 6.32 1.32 9.96 1.4 1.15 4.57 3.38 5.07.28 2.6-1.2 2.82 2.83 5.58 1.82-.29-1.67-.74-3.31-1.15-4.96-4.94 4.97-3.76-10.01-10.82-7.1z"/><path fill="#21272f" opacity=".62" d="M139.75 92.77c2.95-1.39 6.3-.49 9.45-.59-2.85 1.64-6.35.38-9.45.59z"/><path fill="#6b7284" d="M155.29 93.27c1.89-.87 3.88.18 5.61.94 1.24 3.31-2.95 4.13-5.34 3.41-8.9 1.75-2.85-3.42-.27-4.35z"/><path fill="#9195a4" d="M181.25 106.01c4.5-.57 6.3 10.23 1.05 7.67-4.15-.43-1.06-5.09-1.05-7.67z"/><path fill="#9599a9" d="M202.97 109.98c-.97-7.65 3.81-2.23 6.41-1.27l.61.53 1.18 2.6-.05 8.32c-3.6 3.16-11.85-5.63-8.15-10.18z"/><path fill="#656980" d="M157.94 119.04c-6.29-8.01 7.51-16.87 12.86-11.09-4.73-.76-9.24-.97-7.41 4.35-2.06 3.63-1.46 9.01 3.34 10.06-.86 1.88-7.19-1.02-8.79-3.32z"/><path fill="#7b7f7e" d="M195.33 107.36c4.79-.2.4 6.82 2.8 9.56 2.87 3.51-7.24 9.02-3.31.31-1.51-1.62-5.59-1.19-4.82-4.18-.78-2.59 6.2-1.52 2.83-3.07-1.75-.69 1.86-1.85 2.5-2.62z"/><path fill="#5c6278" d="M144.22 108.13c7.47.02 4.8 10.97-1.02 11.57-6.15-1.65-1.89-8.7 1.02-11.57z"/><path fill="#9398a1" d="M163.39 112.3c-1.83-5.32 2.68-5.11 7.41-4.35 4.03 4.76.47 11.6-4.07 14.41-4.8-1.05-5.4-6.43-3.34-10.06z"/><path fill="#7e818a" d="M186.01 115.98c7.06-2.91 5.88 12.07 10.82 7.1.41 1.65.86 3.29 1.15 4.96-2.76 1.01-2.98-3.02-5.58-1.82-.5 3.1-3.67.87-5.07-.28 1.99-3.64-2.91-6.02-1.32-9.96z"/><path fill="#7b834b" d="M199.6 134.81c-1.67-5.23 7.05-7.72 8.14-2.52.02 3.03-.83 6.18 1.29 8.81-.28 1.66 1.05 5.21-1.78 4.41 2.29 6.23-10.76 6.52-4.19.82 1.99-.97 2.03-2.44.2-3.61-1.91-1.43-4.32-1.78-6.59-2.2 1.04-1.86 2.39-3.63 2.93-5.71z"/><path fill="#686c78" d="M167.3 131.32c8.1-.84-1.71 12.93-6.19 7.45-.53-3.64 3.11-6.33 6.19-7.45z"/><path fill="#767c7f" d="M209.03 141.1c5.42 2.44 1.94-6.59 5.86-8.33.54 3.99-2.76 11.39 3.48 11.82 6.1 1.19-2.28 4.75-3.37 7.47-3.69 3.67-3.47-7.37-6.08-2.2-2.2 5.36-9.76 1.46-11.98 6.95 2.35 1.05 4.9 3.56 7.42 1.57 7.66-2.94 4.67 3.17 3.86 6.65-5.99 3.74 1.73-5.3-5.2-3.74-6.01-2.92-9.09 8.29-2.07 5.01 6.5 2.48-.18 12.28 2.68 17.06 2.45 6.01 8.88 7.54 14.2 9.96.49 3.34-4.15 4.68-5.95 7.07-4.33.57-7.96-2.55-12.07-4.31 1.98 4.93 6.64 15.44-2.35 13.57-.66-4.62-6.19-.48-9.17-2.87-2.44 1.8-6.17 1.06-6.22-2.39l8.89-2.78c-1.2-3.5-5.19-5.11-7.34-8.03-.11-1.76.14-3.67-1.48-4.84l-.52-.64c4.97-5.94 1.66-14.54 4.6-22.11-1.28 1.25-2.37 3.21-4.45 2.33.26-6.17 5.11-10.98 5.51-17.14-.96.17-3.79 3.2-3.28.94-.54-3.72 3.54-3.25 5.78-4.22-.24-2-.67-3.97-.78-5.98 3.46-.81 3.91 3.52 6.71 4.27-.16-1.98-.73-4.15.96-5.67 2.27.42 4.68.77 6.59 2.2-1.57 1.01-3.54 3.82-.2 3.61-6.57 5.7 6.48 5.41 4.19-.82 2.83.8 1.5-2.75 1.78-4.41m-10.73 40.26c-2.97.06-1.19 2.42-1.6 4.2-1.71.89-3.21 2.01-2.83 4.16 4-1.21 7.5 2.18 11.21 3.21.09-1.45-.04-6.21-2.29-4.09-1.86 2.31-7.15-1.88-3.23-3.3-.2-1.48 1.43-5.67-1.26-4.18z"/><path fill="#7f8596" d="M178.71 141.73c1.44 2.46 3.92 6.37-1.05 5.72-2.71-1.66.16-3.85 1.05-5.72z"/><path fill="#b6bea1" d="M203.26 142.72c1.83 1.17 1.79 2.64-.2 3.61-3.34.21-1.37-2.6.2-3.61z"/><path fill="#555a67" d="M155.54 152.39c3.58-1.31 11.09-.46 11.31 4.34-2.5 1.9-10.07 8.6-7.93 1.34-.95-.72-8.84-3.42-3.38-5.68z"/><path fill="#9497a8" d="M221.89 160.81c-1.52-1.5-3.73-6.71.05-5.78 3.2.67 5.12 9.56-.05 5.78z"/><path fill="#848c80" d="M179.06 162.38c-2.51-2.53-.28-6.44 2.97-6.5.39 2.39-.74 4.49-2.03 6.39l-.94.11z"/><path fill="#565a6e" d="M125.49 165.21c-.08-4.68 7.31-12.52 9.57-5.13-.89 3.91.36 7.4 1.91 10.82-2.17 4.3-7.13 2.9-10.14.24l-.63-.43-.34-2.63-.37-2.87z"/><path fill="#303136" d="M135.06 160.08c1.74-4.09 2.23 1.82 4.5.34 4.61-3.98 2.51 7.36 8.06 5.09 4.84-3.53 9.74 2.43 11.53 6.53-2.2-1.54-9.66-3.82-7.34 1.14 4.37 3.88-.98 9.15-5.99 7.5-.11 4.84-5.3 7.17-9.53 7.5-1.07 1.83-1.61 4.37-4.31 3.91.87-3.19 4.27-8.29-.83-9.45 1.6-2.15-.96-3.99-1.94-5.77-.83-1.9-1.6-3.82-2.38-5.73 3.01 2.66 7.97 4.06 10.14-.24-1.55-3.42-2.8-6.91-1.91-10.82z"/><path fill="#8f92a0" d="M200.95 166.3c-7.02 3.28-3.94-7.93 2.07-5.01 3.41 2.34.43 3.79-2.07 5.01z"/><path fill="#3e414e" d="M203.02 161.29c6.93-1.56-.79 7.48 5.2 3.74 2.23 1.54 2.7 6.41 6.78 2.94-7.25-5.83 3.81-2.67 6.89-7.16l-1.01 2.79c3.82-1.06 7.46.69 11.18 1.3l8.13.01c3 .39 5.98.7 8.98 1.19a109.96 109.96 0 0 1-1.08 4.34c-1.64-4.73-10.43-1.75-12.61 1.91-3.81.6-6.89-6.38-11.14-3.08-1.39 2.4-3.24 7.07-6.55 4.14-2.71.24-3.95 4.76-4.02 7.41 1.73-3.02 6.61 1.95 4.67-2.15-1.46-2.2 7.25-2.23 5.34.97-3.89 4.78-6.16 14.56 2.58 15.22-2.71-.17-5.18.82-6.97 2.86-2.49 1.45.87 7.52-2.89 7-.33-2.9-3.69-1.83-4.62-4.33 1.8-2.39 6.44-3.73 5.95-7.07-5.32-2.42-11.75-3.95-14.2-9.96-2.86-4.78 3.82-14.58-2.68-17.06 2.5-1.22 5.48-2.67 2.07-5.01z"/><path fill="#585d6f" d="M155.88 162.01c2.47-.79 2.48 2.35 4.24 2.96 2.51.48 2.17-3.84 4.88-3.01-.92 2.47 1.18 9.15-2.96 8-3.26-.9-4.57-5.29-6.16-7.95z"/><path fill="#586268" d="M181.77 168.32c2.08.88 3.17-1.08 4.45-2.33-2.94 7.57.37 16.17-4.6 22.11-3.28-2.28-.04-4.98 1.31-7.29 3.34-8.15-1.43-3.91-3.94-3.09-2.53-4.01 5.34-4.89 2.78-9.4z"/><path fill="#37383f" d="M249.17 166.1c5.27 1.94 10.26 4.69 14.89 7.87 4.42 11.4-10.39 19.04-19.82 19.88-4.02-.11-8.64-2.19-12.45-.09l-.71.36-1.37.72-3.35.02c-8.74-.66-6.47-10.44-2.58-15.22-.28 5.04 6.01 5.98 9.26 3.32 4.49-.44 2.87 6.01 6.25 7.21.04-2.85 2.85-7.77 5.46-3.94 1.58 2.01 1.59-.96 2.04-2.1 3.23-1.37 7.66 2.21 10-2.34 4.89-3.88-1.47-11.66-6.63-9.57-1.2-.08-1.89-.67-2.07-1.78a109.96 109.96 0 0 0 1.08-4.34z"/><path fill="#515464" d="M224.34 169.27c4.25-3.3 7.33 3.68 11.14 3.08 2.18-3.66 10.97-6.64 12.61-1.91.18 1.11.87 1.7 2.07 1.78-2.72 4.61-8.03.27-11.98-.24-1.64 3.64-.69 8.22-.07 12.1 3.25-1.48 6.05-3.63 8.68.05-.45 1.14-.46 4.11-2.04 2.1-2.61-3.83-5.42 1.09-5.46 3.94-3.38-1.2-1.76-7.65-6.25-7.21-3.25 2.66-9.54 1.72-9.26-3.32 1.91-3.2-6.8-3.17-5.34-.97 1.94 4.1-2.94-.87-4.67 2.15.07-2.65 1.31-7.17 4.02-7.41 3.31 2.93 5.16-1.74 6.55-4.14z"/><path fill="#72737f" d="M238.18 171.98c3.95.51 9.26 4.85 11.98.24 5.16-2.09 11.52 5.69 6.63 9.57-2.34 4.55-6.77.97-10 2.34-2.63-3.68-5.43-1.53-8.68-.05-.62-3.88-1.57-8.46.07-12.1z"/><path fill="#6e7676" d="M171.23 181.14c2.92-.99 8.85 1.67 6.1 5.16-2.54 4.83-10.22-2.23-6.1-5.16z"/><path fill="#92979c" d="M198.3 181.36c2.69-1.49 1.06 2.7 1.26 4.18-3.92 1.42 1.37 5.61 3.23 3.3 2.25-2.12 2.38 2.64 2.29 4.09-3.71-1.03-7.21-4.42-11.21-3.21-.38-2.15 1.12-3.27 2.83-4.16.41-1.78-1.37-4.14 1.6-4.2z"/><path fill="#65696e" d="M182.14 188.74c1.62 1.17 1.37 3.08 1.48 4.84 2.15 2.92 6.14 4.53 7.34 8.03l-8.89 2.78c.05 3.45 3.78 4.19 6.22 2.39 2.98 2.39 8.51-1.75 9.17 2.87 8.99 1.87 4.33-8.64 2.35-13.57 4.11 1.76 7.74 4.88 12.07 4.31.93 2.5 4.29 1.43 4.62 4.33 3.76.52.4-5.55 2.89-7 1.53 6.5 6.35.9 6.97-2.86 1.11.01 2.23 0 3.35-.02l.52 13.38c-.93 4.55-2.7 8.91-4.94 12.97 1.33-5.99-3.49-1.98-6.99-3.06.51 3.48-1.44 8.94 3.92 6.14-4.27 5.16-8.19 10.95-2.94 16.54-3 4.03-1.4 8.88.45 13.03-2.55 4.77-9.24 6.16-13.6 3.06-5.97-5.75 6.38-7.61 4.49-13.57 5.25.32-3.23-9.39 2.83-4.91.41-1.61 1.3-7.35 2.68-10.53-3.44.07-3.28 5.42-6.9 5.01l-2.28-1.33c2.62-1.61 8.9-5.19 5.84-8.52-4.1-.22-7.8 2.34-5.86 6.7-6.16-2.96-13.1 4.09-8.94 9.99-5.19-2.29-3.33 7.78-6.79 4.04-2.89-1.95.33-4.57 1.5-6.49-2.09-1.26-3.11-2.67-.91-4.47-2.52-3.2.13-6.61 1.18-9.86-2.3.36-7.41 4.1-5.55-.6 1.67-4.91-3.61-.67-3.63 1.98-2.63-1.08-5.67-2.05-7.58.77.88-2.53.08-5.02-.97-7.35 3.46-1.64 5.47 2.28 8.7 2.44 4.3-12.03-10.44.79-8.53-7.96-4.86.65-3.6-3.92-.2-5.14 2.63-2.38-2-3.09-2.32-5.2-.17-1.33-.38-2.66-.62-3.97 5.65 5.26 3.78-5.5 9.5-4.04-2.22-1.61-1.83-3.74.37-5.15m.16 7.55c-2.96-.27-3.61 5.91-.29 4.74 3.84 1.18 4.03-6.17.29-4.74m26.87 5.81c-1.83 2.96 1.92 5.45-.28 8.64 3.82.08 6.12-.66 7.21-4.68-4.86 3.06-2.17-5.92-6.93-3.96m-28.16 7.87c-.85 2.66 2.15 1.83 3.74 2.33 2.71.71-1.38 5.85 1.95 5.31 2.28-4.32 10.29-.29 8.28-6.61-5.93 3.6-8.11-1.34-13.97-1.03m28.04 3.01c2.67 4.13-2.75 5.52-3.12 9.1 3.14-.85 4.38-4.78 8.02-5.21 8.44-2.24-2.8-6.09-4.9-3.89z"/><path fill="#616879" d="M154.27 192.25c4.86-1.56 3.06 13.21-4.29 8.74-.11-3.24 1.35-7.15 4.29-8.74z"/><path fill="#686f82" d="M168.24 192.13c3.89-1.71 5.56 2.84 4.03 5.8-3.27 1.06-7.5-3.42-4.03-5.8z"/><path fill="#34363d" d="M125.82 195.99l.62-1.16c4.77 1.75 5.8 4.45 6.75 10.01 6.52 4.95 3.57-8.95 10.88-6.91-1.61 4.6-3.77 9.33-7.07 13.2-1.17 5.28 5.1 3.45 7.91 2.27.91 2.24-.27 8.12 4 6.58 3.95-.77 2.59-4.67 1.02-7.07 4.54-.75 6.51 4.47 3.6 7.58-2.04 4.45 4.38 7.58 6.74 10.3 1.64.87 3.35 1.57 5.07 2.26-1.04.75-2.09 1.49-3.18 2.17-2.23-1.22-4.49-2.36-6.76-3.49-3.35-4.89-9.08-4-10.38 2.26-5.92 10.07.24 22.54 11.67 24.48 4.18 2.89 9.88-1.11 13.44-.71.55 7.98 13.51-1.54 9.72 6.6l-4.08.59c-4.61-.62-8.42.45-5.01 4.32-7.25-1.04-13.37-4.79-19.52-8.42-6.1-2.65-12.23-7.29-12.32-14.61-.02-2.1-.17-4.19-.73-6.21l-.22-1.91c2.77-10.61-7.24-18.7-6.78-29.2-3.48-3.4-5.51-8.03-5.37-12.93z"/><path fill="#8f9090" d="M219.39 197.72c1.79-2.04 4.26-3.03 6.97-2.86-.62 3.76-5.44 9.36-6.97 2.86z"/><path fill="#9a9ea1" d="M182.3 196.29c3.74-1.43 3.55 5.92-.29 4.74-3.32 1.17-2.67-5.01.29-4.74z"/><path fill="#5b615f" d="M162.67 200.65c3.18-2.64 4.36 2.13 5.6 4.3 2.37.74 3.54-1.36 4.62-3.05.32 2.11 4.95 2.82 2.32 5.2-3.4 1.22-4.66 5.79.2 5.14-1.91 8.75 12.83-4.07 8.53 7.96-3.23-.16-5.24-4.08-8.7-2.44-1.96-3.54-11.24-5.51-7.23 2.18 1.14 4.25 4.11 11.91 8.2 5.17 1.91-2.82 4.95-1.85 7.58-.77 1.85 1.77 5.18 5.11.36 4.97-4.41.29 1.5 4.49-1.11 6.79-2.06-3.19-7.24-7.82-7.73-1.42 1.27 4.72.61 9.9-5.36 9.45 3.9-3.71.41-11.28-4.61-11.08-1.72-.69-3.43-1.39-5.07-2.26-.92-4.68-6.04-8.88-3.22-13.72 1.72-5.06 8.57-3.05 12.33-3.4-1.64-2.06-7.72-1.64-5.72-5.06 3.28-2.95-4.48-4.73-.99-7.96z"/><path fill="#80818c" d="M209.17 202.1c4.76-1.96 2.07 7.02 6.93 3.96-1.09 4.02-3.39 4.76-7.21 4.68 2.2-3.19-1.55-5.68.28-8.64z"/><path fill="#8b8f96" d="M181.01 209.97c5.86-.31 8.04 4.63 13.97 1.03 2.01 6.32-6 2.29-8.28 6.61-3.33.54.76-4.6-1.95-5.31-1.59-.5-4.59.33-3.74-2.33z"/><path fill="#878b91" d="M209.05 212.98c2.1-2.2 13.34 1.65 4.9 3.89-3.64.43-4.88 4.36-8.02 5.21.37-3.58 5.79-4.97 3.12-9.1z"/><path fill="#888894" d="M168.01 219.94c-4.01-7.69 5.27-5.72 7.23-2.18 1.05 2.33 1.85 4.82.97 7.35-4.09 6.74-7.06-.92-8.2-5.17z"/><path fill="#919299" d="M218.3 218.13c3.5 1.08 8.32-2.93 6.99 3.06-1.75.01-3.02 1.36-3.07 3.08-5.36 2.8-3.41-2.66-3.92-6.14z"/><path fill="#767b81" d="M183.79 224.34c.02-2.65 5.3-6.89 3.63-1.98-1.86 4.7 3.25.96 5.55.6-1.05 3.25-3.7 6.66-1.18 9.86-2.2 1.8-1.18 3.21.91 4.47-1.17 1.92-4.39 4.54-1.5 6.49 3.46 3.74 1.6-6.33 6.79-4.04 2.16 1.65 3.18 4.99 6.11 5.35.26-3.13-3.8-4.23-3.75-7.31-.93-3.61 3.27-6.57 6.6-6.21l2.28 1.33c-2.91-.18-6.02 2.03-6.32 5 1.75 1.35 4.7 5.83 6.37 2.37 1.67-1.98-.26-5-.05-7.37 3.62.41 3.46-4.94 6.9-5.01-1.38 3.18-2.27 8.92-2.68 10.53-6.06-4.48 2.42 5.23-2.83 4.91 1.89 5.96-10.46 7.82-4.49 13.57-3.36 2.72-5.18-4.33-7.28-5.7-2.78 1.09-7.93.81-7.31 4.8-.58 4.71-5.17-.99-7.65 1.74-5.34-2.13-1.38-12.58-10.17-7.97 1.02-2.37 4.13-2.32 6.02-3.76-1.92-3.6-2.69-7.66-4.43-11.33.49-6.4 5.67-1.77 7.73 1.42 2.61-2.3-3.3-6.5 1.11-6.79 4.82.14 1.49-3.2-.36-4.97z"/><path fill="#505041" opacity=".78" d="M222.22 224.27c.05-1.72 1.32-3.07 3.07-3.08-.12 1.67-1.39 2.98-3.07 3.08z"/><path fill="#4d4f55" d="M206.93 229.75c-1.94-4.36 1.76-6.92 5.86-6.7 3.06 3.33-3.22 6.91-5.84 8.52-3.33-.36-7.53 2.6-6.6 6.21-.05 3.08 4.01 4.18 3.75 7.31-2.93-.36-3.95-3.7-6.11-5.35-4.16-5.9 2.78-12.95 8.94-9.99z"/><path fill="#383c44" d="M285.28 226.36c2.18-.44 4.29-1.14 6.44-1.67l7.34.31c2.4 6.55-4.77.44-7.97 3.26-2.7 7.15 5.42 5.52 9.19 5.04-5.41 4.04-13.02 1.2-18.39 5.28-1.23-1.36-2.51-2.86-4.54-2.12-3.12 1.08-6.24-2.71-9.02-.17-5.53 3.63.85 10.02 1.03 14.86-.63 3.4-1.48 6.77-2.72 10.01-5.2 6.32 5.75 10.6 10.04 5.56-2.38-1.58-3.11-4.28-3.54-6.95 2.33.03 1.63 2.73 2.22 4.27 5.84-3 12.49-3.62 18.64-6.05 1.43 5.07-9.03 1.16-6.68 6.85 1.36 2.93-.75 4.88-3.67 3.67-5.08-1.02-3 5.45-4.71 8.49-3.08.31-3.31 1.99-1.35 4.06l-.6.53c-2.73-1.48-4.29-4.83-7.68-4.99-3.99-1.07-8.12-1.47-12.17-2.26a104.8 104.8 0 0 1-1.74-4.77c3-2.55 8.54-3.77 7.51-8.82-3.2-.07-3.46-3.28-3.83-5.76 1.87-2.3 1.9-5.27 1.95-8.13-2.29.67-2.71 3.6-5.09 4.27-.66-2.91 1.43-4.87 3.22-6.77-2.21.57-3.63-.37-4.25-2.52 4.88-4.7 11.58-9.71 18.81-9.13 1.25-2.91 3.06-5.37 6.52-5.43 1.68-.26 3.37-.53 5.04-.92m-7.35 3.67c-.78 5.88 6.58 6.58 9.12 3.85 1.23-5.43-6.32-3.9-9.12-3.85m-14.92 38.96c-4.62 7.72 5.78 5.49 4.91 1.22-1.09-1.68-3.23-1.18-4.91-1.22z"/><path fill="#5b5e64" opacity=".98" d="M299.06 225l4.14-.22c1.11 3.15.83 7.4-2.92 8.52-3.77.48-11.89 2.11-9.19-5.04 3.2-2.82 10.37 3.29 7.97-3.26z"/><path fill="#292a31" opacity=".96" d="M249.05 241c7.77-5.72 15.33-11.74 24.88-14.31l6.31.59c-3.46.06-5.27 2.52-6.52 5.43-7.23-.58-13.93 4.43-18.81 9.13-1.18.47-2.39.89-3.61 1.26-8.82 3.15-22.21 5.62-22.87 16.75l-1.8.09-.47-2.18c.25-2.45-1.62-2.83-3.6-3.02.23-2.53.07-5.06-.56-7.52 9.07-1.78 17.71-5.39 27.05-6.22z"/><path fill="#585e5a" d="M145.02 233.99c1.3-6.26 7.03-7.15 10.38-2.26-1.28 6.95-2.92 13.86-3.2 20.96 1.32 2.58 4.44 2.97 6.65 1.25l.1 4.09-2.26.44c-11.43-1.94-17.59-14.41-11.67-24.48z"/><path fill="#5d5f6b" d="M277.93 230.03c2.8-.05 10.35-1.58 9.12 3.85-2.54 2.73-9.9 2.03-9.12-3.85z"/><path fill="#67714c" d="M155.4 231.73l6.76 3.49.81 1.35c-3.3 1.54-4.24 5.4-5.83 8.37 2.27 2.05 5.51-1 7.85-1.97-3.69 6.02 4.39.85 2.8 5.59-2.16.37-4 1.23-4.79 3.4-1.65.09-3.17.58-4.15 1.98-2.21 1.72-5.33 1.33-6.65-1.25.28-7.1 1.92-14.01 3.2-20.96z"/><path fill="#4a4f59" d="M165.34 233.05c5.02-.2 8.51 7.37 4.61 11.08 5.97.45 6.63-4.73 5.36-9.45 1.74 3.67 2.51 7.73 4.43 11.33-1.89 1.44-5 1.39-6.02 3.76 8.79-4.61 4.83 5.84 10.17 7.97 2.48-2.73 7.07 2.97 7.65-1.74-.62-3.99 4.53-3.71 7.31-4.8 2.1 1.37 3.92 8.42 7.28 5.7 4.36 3.1 11.05 1.71 13.6-3.06-1.85-4.15-3.45-9-.45-13.03.94 2.12 1.79 4.28 2.72 6.41.63 2.46.79 4.99.56 7.52 1.98.19 3.85.57 3.6 3.02-.96 6.01-7.04-2.08-7.14 3.29.33 3.88-3.1-1.05-4.89-1.34.71 2.86 1.48 5.74 2.62 8.47-1.73-.82-4.69-.71-4.73-3.2-.22-4.48-10.82-2.42-6.78 1.73.71 4.65 5.01 1.93 7.54 3.1-1.93 1.34-3.87 2.66-5.99 3.68-.67 2.97-.61 7.02-3.97 8.3-2.67-.75-4.52-2.97-6.74-4.49-.89 1.53-5.3 1.94-3.04-.3 2.32-2.16-1.91-4.37-3.94-4.03l-.21-.67c3.52-2.11 7.72-8.03 2.52-10.72-2.29-.61-4.6 1.32-6.7 2.16-1.62.23-3.24.47-4.86.62 3.79-8.14-9.17 1.38-9.72-6.6-3.56-.4-9.26 3.6-13.44.71l2.26-.44c5.04 2.27 4.49-2.02 4.05-6.07.79-2.17 2.63-3.03 4.79-3.4 1.59-4.74-6.49.43-2.8-5.59.23-2.31-.92-4.45-2.02-6.4-.21-.33-.61-1.01-.81-1.35 1.09-.68 2.14-1.42 3.18-2.17z"/><path fill="#adb2b0" d="M202.91 237.9c.3-2.97 3.41-5.18 6.32-5-.21 2.37 1.72 5.39.05 7.37-1.67 3.46-4.62-1.02-6.37-2.37z"/><path fill="#595d66" d="M268.33 236.29c2.78-2.54 5.9 1.25 9.02.17 2.03-.74 3.31.76 4.54 2.12l2.39 2.5c.07 3.15-2.56 4.69-5.23 5.44 2.15 1.96 4.96 6.04-.16 5.88 1.91 2.22 6.67 5.49 7.63 1.08 3.73-2.69-1.85-4.4-1.71-7.37 8.61 1.7 16.97-.77 25.32-2.23 1.18 4.14-.88 7.33-4.15 9.35-4.49-3.62-9.02.93-13.32 2.59 3.13 1.08 9.74-3.14 10.24 2.37.44 2.23-1.16 3.2-3.02 3.85-2.71-.89-3.69 1.78-2.73 3.91-4.71 2.61-4.43 8.91-9.83 10.41 5.02-4.72-.83-7.63-6.37-6.38-.35 3.76 4.73 10.42-2.01 7.02 1.71-3.04-.37-9.51 4.71-8.49 2.92 1.21 5.03-.74 3.67-3.67-2.35-5.69 8.11-1.78 6.68-6.85-6.15 2.43-12.8 3.05-18.64 6.05-.59-1.54.11-4.24-2.22-4.27.43 2.67 1.16 5.37 3.54 6.95-4.29 5.04-15.24.76-10.04-5.56 6.65.88 9.37-9.83 5.19-14.33-.95 1.36-1.74 2.83-2.47 4.32-.18-4.84-6.56-11.23-1.03-14.86z"/><path fill="#7c8372" d="M157.14 244.94c1.59-2.97 2.53-6.83 5.83-8.37 1.1 1.95 2.25 4.09 2.02 6.4-2.34.97-5.58 4.02-7.85 1.97z"/><path fill="#30333b" opacity=".98" d="M284.28 241.08c1.72.93 3.5 1.89 5.47 2.17 3.46.99 6.9.89 10.3-.29 3.17-.82 8.32-2.95 10.08.92-8.35 1.46-16.71 3.93-25.32 2.23-.14 2.97 5.44 4.68 1.71 7.37-.96 4.41-5.72 1.14-7.63-1.08 5.12.16 2.31-3.92.16-5.88 2.67-.75 5.3-2.29 5.23-5.44z"/><path fill="#5b5f65" d="M251.3 243.1l3.61-1.26c.62 2.15 2.04 3.09 4.25 2.52-1.79 1.9-3.88 3.86-3.22 6.77 2.38-.67 2.8-3.6 5.09-4.27-.05 2.86-.08 5.83-1.95 8.13-3-.74-9.08-.02-7.74-4.6.65-1.91-2.12-1.61-3.22-2.32 1.17-1.59 2.53-3.06 3.18-4.97z"/><path fill="#41454e" d="M228.43 259.85c.66-11.13 14.05-13.6 22.87-16.75-.65 1.91-2.01 3.38-3.18 4.97l-.28 2.68c-1.25.41-3.11-.16-3.9 1.1-2.01 2.22-2.73 5.16-3.24 8.03-3-2.64-9.39-4.95-10.06.66 1.88 8.68-5.97 2.95-4.01-.6.45-.03 1.35-.07 1.8-.09z"/><path fill="#8c8f95" d="M269.36 251.15c.73-1.49 1.52-2.96 2.47-4.32 4.18 4.5 1.46 15.21-5.19 14.33 1.24-3.24 2.09-6.61 2.72-10.01z"/><path fill="#737678" d="M248.12 248.07c1.1.71 3.87.41 3.22 2.32-1.34 4.58 4.74 3.86 7.74 4.6.37 2.48.63 5.69 3.83 5.76 1.03 5.05-4.51 6.27-7.51 8.82l-2.25 1.4c-2.73 1.42-4.52 3.84.04 3.28-2.32 1.05-4.72 1.94-7.07 2.92.76-1.48 3.78-6.32.18-4.9-2.79 4.5-6.44 7.9-11.58 9.57 1.54-2.68 3.41-5.16 5.05-7.77-4.43-3.82-13.32 5.21-13.55-2.9-.45-2.83 3.5-6.59 3.78-2.17-.73 5.77 8.87-2.68 2.64-.44-3.15-1.91 3.92-7.4 6.23-3.49 2.37 2.43 2.31-1.35 2.89-3.06 6.27 3.06 10.67-7.07 6.08-11.26l.28-2.68z"/><path fill="#898c98" d="M243.94 251.85c.79-1.26 2.65-.69 3.9-1.1 4.59 4.19.19 14.32-6.08 11.26.57-3.43 2.07-6.65 2.18-10.16z"/><path fill="#34353c" opacity=".94" d="M292.66 255.82c4.3-1.66 8.83-6.21 13.32-2.59-1.84 1.13-3.39 2.58-3.08 4.96-.5-5.51-7.11-1.29-10.24-2.37z"/><path fill="#727983" d="M158.85 253.94c.98-1.4 2.5-1.89 4.15-1.98.44 4.05.99 8.34-4.05 6.07l-.1-4.09z"/><path fill="#636770" d="M240.7 259.88c.51-2.87 1.23-5.81 3.24-8.03-.11 3.51-1.61 6.73-2.18 10.16-.58 1.71-.52 5.49-2.89 3.06-2.31-3.91-9.38 1.58-6.23 3.49 6.23-2.24-3.37 6.21-2.64.44-.28-4.42-4.23-.66-3.78 2.17-2.62-2.64-1.61 4.24-1.38 5.91-3.41-.78-6.68.05-9.88 1.17-.93-3.21 1.87-5.75-2.18-8.44-2.53-1.17-6.83 1.55-7.54-3.1-4.04-4.15 6.56-6.21 6.78-1.73.04 2.49 3 2.38 4.73 3.2-1.14-2.73-1.91-5.61-2.62-8.47 1.79.29 5.22 5.22 4.89 1.34.1-5.37 6.18 2.72 7.14-3.29l.47 2.18c-1.96 3.55 5.89 9.28 4.01.6.67-5.61 7.06-3.3 10.06-.66z"/><path fill="#90939f" d="M184.71 263.74c2.1-.84 4.41-2.77 6.7-2.16 5.2 2.69 1 8.61-2.52 10.72-.93-3.06-2.07-6.1-4.18-8.56z"/><path fill="#67704d" d="M175.77 264.95l4.08-.59 4.86-.62c2.11 2.46 3.25 5.5 4.18 8.56l.21.67-2.74.17c-3.76-2.53-10.64-1.9-10.59-8.19z"/><path fill="#4b513f" opacity=".97" d="M170.76 269.27c-3.41-3.87.4-4.94 5.01-4.32-.05 6.29 6.83 5.66 10.59 8.19l-7.55 1.13c-2.82-1.43-5.62-2.95-8.05-5z"/><path fill="#727b69" d="M263.01 268.99c1.68.04 3.82-.46 4.91 1.22.87 4.27-9.53 6.5-4.91-1.22z"/><path fill="#33363e" opacity=".98" d="M206.79 273.49c2.12-1.02 4.06-2.34 5.99-3.68 4.05 2.69 1.25 5.23 2.18 8.44 1.97 3.06 8.45.95 7.68 5.41 1.01 4.21-6.27 1.42-6.94 5.28-1.91-.21-3.06-2.07-4.62-3-3.73-1.5-8.14-.54-12.14-.91l-1.93-.87c-5.32-4.75-13.09-4.84-18.2-9.89l7.55-1.13 2.74-.17c2.03-.34 6.26 1.87 3.94 4.03-2.26 2.24 2.15 1.83 3.04.3 2.22 1.52 4.07 3.74 6.74 4.49 3.36-1.28 3.3-5.33 3.97-8.3z"/><path fill="#4b4f53" opacity=".97" d="M224.84 277.08c-.23-1.67-1.24-8.55 1.38-5.91.23 8.11 9.12-.92 13.55 2.9-1.64 2.61-3.51 5.09-5.05 7.77 5.14-1.67 8.79-5.07 11.58-9.57 3.6-1.42.58 3.42-.18 4.9-.72.84-.47 1.89-.32 2.88-10.5 1.2-19.78 7.84-30.1 8.89.67-3.86 7.95-1.07 6.94-5.28.77-4.46-5.71-2.35-7.68-5.41 3.2-1.12 6.47-1.95 9.88-1.17.34 3.39 2.87 9.98 6.51 5.22 2.12-4.78-2.05-7.74-6.51-5.22z"/><path fill="#6d763a" opacity=".95" d="M253.15 270.97l2.25-1.4 1.74 4.77c-3.34 2.61-6.99 5.34-11.34 5.71-.15-.99-.4-2.04.32-2.88 2.35-.98 4.75-1.87 7.07-2.92 1.69-.32-.09-2.26-.04-3.28z"/><path fill="#727c82" d="M280.95 269.98c5.54-1.25 11.39 1.66 6.37 6.38-1.03 1.99-1.99 4.2-4.18 5.17a8.55 8.55 0 0 0-5.55-.47c-1.96-2.07-1.73-3.75 1.35-4.06 6.74 3.4 1.66-3.26 2.01-7.02z"/><path fill="#e4e7d6" d="M253.19 274.25c-4.56.56-2.77-1.86-.04-3.28-.05 1.02 1.73 2.96.04 3.28z"/><path fill="#74787a" d="M224.84 277.08c4.46-2.52 8.63.44 6.51 5.22-3.64 4.76-6.17-1.83-6.51-5.22z"/><path fill="#2e3337" opacity=".63" d="M276.99 281.59l.6-.53a8.55 8.55 0 0 1 5.55.47c-1.91 1.33-3.96 1.35-6.15.06z"/><path fill="#181b21" opacity=".6" d="M198.94 285.03c4 .37 8.41-.59 12.14.91-4.05-.16-8.22.31-12.14-.91z"/></svg>