<svg xmlns="http://www.w3.org/2000/svg" width="512" height="512" viewBox="0 0 384 384" xmlns:v="https://vecta.io/nano"><path fill="#5e6274" opacity=".95" d="M200.08 94.04l5.79-3.56c1.51 1.28 3.79 1.23 5.28-.07 2.26 1.12 4.36 2.56 6 4.5-2.7-1.02-5.59-1.12-7.9.79.14-4.39-4.34-2.54-5.79-.07-4.98 1.25-6.68.78-3.38-1.59z"/><path fill="#454a54" d="M203.46 95.63c1.45-2.47 5.93-4.32 5.79.07 2.31-1.91 5.2-1.81 7.9-.79 1.79 1.02 3.71 1.77 5.68 2.37 1.38 1.36 2.81 2.67 4.4 3.78-.79 2.95-4.99.88-7.27 1.97-1.73-2.19-1.9-6.38-4.85-7.01-1.67 4.42.17 9.25-.18 13.81-3.09 2.4-9.11.99-9.03 6.34 4.91-4.82 12.65-3.08 18.01.28 2.86 6.42-7.44 9.42-11.85 8.48-2.65-2.78-6.19-2.43-9.73-2.32-2.09-2.53-4.23-6.16-8.08-5.57-1.97 4.79-5.98 9.07-5.53 14.54 1.44 4.3 4.93 12.82-1.33 14.87 1.02 4.25-1.55 5.34-4.61 2.43 1.8-1.96 7.16-6.63 1.24-6.03l.17-.77c1.05-3.27 4.93-5.96 2.44-9.52-1.51-7.69-13.38-5.67-15.36.82-1.81 4.6 1.4 9.34 5.76 10.58 1.9.94 3.99.77 5.96.1-3.97 4.91-13.27 3.29-13.16-3.94-4.54-5.92 7.12-15.73.34-18.27 3.96-4.48-6.13-8.3 1.62-11.23-6.13 6.01 8.24 8.18 8.24 1.53-2.67-.88-5.5-1.12-8.24-1.53a106.57 106.57 0 0 1 1.19-1.74c2.58-3.44 4.44-7.38 7.22-10.66 4.59-4.47 11.92-.66 17.1-3.93l2.78-.25c-3.3 2.37-1.6 2.84 3.38 1.59M184.94 110c-.39 1.78 1.03 2.21 2.41 2.58 3.61.05 2.56 6.59 6.59 3.25-3.27-2.11-2.65-8.61-9-5.83z"/><path fill="#6d7075" d="M215.11 96.02c2.95.63 3.12 4.82 4.85 7.01.09 5.82 13.44 10.04 15.57 1.99 1.93 4.69 6.54 7.03 10.07 10.34 3.85 2.33-2.94-4.31 1.33-4.38 2.68 2.85 5.63 5.6 8.08.92-2.05 5.02.25 5.54 4.72 4.23 3.41 4.84 6.34 15.9-1.88 17.08 1.37-4.52-.71-9.78-5.82-9.35-2.02 5.82.43 9.18 5.82 9.35.82 2.31 2.81 2.96 5.11 2.86 2.03 2.21 6.98 1.99 6.11 5.91-2.53-.24-7.45 1.22-8.83-2.19-1.32-4.47-6.44 3.05-7.98-1.95-5.01-3.43.49-11.44-2.05-13.64l-2.21.79c5.61-5.57-10.91-13.11-7.54-1.27-2 .86-3 5.38-5.32 3.18-3.49-1.26-.64-5.37-.84-8.02 2.3 1.33 7.94 5.43 4.4-2.4-2.32-1.78-7.18-5.85-7.76-.64-2.24.89-4.69.54-7.03.61-5.36-3.36-13.1-5.1-18.01-.28-.08-5.35 5.94-3.94 9.03-6.34.35-4.56-1.49-9.39.18-13.81z"/><path fill="#4f5358" opacity=".98" d="M242.08 101.02c2.16-5.61 9-2.52 12.73-.06-3.37 5.18 4.81 9.02 4.53 1.89.28 2.91 1.88 4.54 4.79 4.84-4.67.47-.89 5.87 2.52 4.31.27 1.01.71 1.95 1.33 2.81.79 1.29 1.55 2.61 2.29 3.94-7.68-4.86-7.17 11.23-.47 4.32 1.46 3.72 5.46 4.49 9.19 4.03l.06 1.01c-4.03.39-8.4-.65-12.07 1.52-1.8 1.35-5.66 2.56-4.22 5.42l.2 1.02c-2.3.1-4.29-.55-5.11-2.86 8.22-1.18 5.29-12.24 1.88-17.08-4.47 1.31-6.77.79-4.72-4.23-2.45 4.68-5.4 1.93-8.08-.92-4.27.07 2.52 6.71-1.33 4.38-3.53-3.31-8.14-5.65-10.07-10.34-2.13 8.05-15.48 3.83-15.57-1.99 2.28-1.09 6.48.98 7.27-1.97 4.64 1.27 12.02 6.61 14.85-.04m1.16 2.08c-3.61 4.62 5.89 7.17 8.82 5.89.47-4.27-4.81-7.8-8.82-5.89z"/><path fill="#758088" opacity=".97" d="M254.81 100.96c1.51.57 3.35.69 4.53 1.89.28 7.13-7.9 3.29-4.53-1.89z"/><path fill="#6f7849" d="M243.24 103.1c4.01-1.91 9.29 1.62 8.82 5.89-2.93 1.28-12.43-1.27-8.82-5.89z"/><path fill="#77828a" opacity=".95" d="M266.65 112c-3.41 1.56-7.19-3.84-2.52-4.31 1.32.37 2.26 1.42 3.29 2.26l-.77 2.05z"/><path fill="#3e4149" d="M159.25 118.35c5.6-1.79 7.67-8.4 13.73-9.47l-1.19 1.74c-7.75 2.93 2.34 6.75-1.62 11.23 6.78 2.54-4.88 12.35-.34 18.27-.11 7.23 9.19 8.85 13.16 3.94l1.03-1.21c5.92-.6.56 4.07-1.24 6.03-.89 2.28-1.53 4.67-2.78 6.8-1.5 1.45-2.87 3.03-4.15 4.69-2.35-.33-.72-2.96-.98-4.49-2.8.36-4.6 3.32-4.87 5.93 1.9 2.08 4.56 3.37 6.6 5.34-2.93 3.24.67 6.29.46 9.81-2.58.14-6.14-2.31-7.96.32-2.21 4.8 3.09 5.75 4.77 8.83-.62 2.77-.06 5.4 1.35 7.84-2.78-.15-3.98-2.28-4.66-4.68-4.55 1.94-12.95 2.71-12.11-4.84-.02-3.35-4.15-4.81-3.84-.45-4.5-.09-.7-3.69-.49-6.07-3.89 0-4.57 4.24-4.34 7.28-.96-2.33-.97-9.73-5.47-7.93-3.23.84-3.91 4.5-5.49 6.97l-.73-.06c-2.21-4.32.48-8.62 2.95-12.11-.96-12.71 9.51-23.53 5.88-36.15l.91-2c.95-2.08 1.15-4.38 1.37-6.62 2.42-3.92 6.01-6.79 10.05-8.94m.94 7.8c-2.83 2.94-8.16 8.35-2.94 11.66 6.61 2.34 9.74-10.49 2.94-11.66m2.05 21.9c.11 2.27-2.69 6.16.29 7.24-.16 2.79-.88 8.86 3.41 7.69 2.24.13 2.81-3.3.26-3.34 1.59-3.93-.69-10.05-3.96-11.59z"/><path fill="#747a76" d="M184.94 110c6.35-2.78 5.73 3.72 9 5.83-4.03 3.34-2.98-3.2-6.59-3.25-1.38-.37-2.8-.8-2.41-2.58z"/><path fill="#757a8d" d="M171.79 110.62c2.74.41 5.57.65 8.24 1.53 0 6.65-14.37 4.48-8.24-1.53z"/><path fill="#9da3a3" d="M230.94 115.84c.58-5.21 5.44-1.14 7.76.64 3.54 7.83-2.1 3.73-4.4 2.4-.75-1.38-2.09-2.22-3.36-3.04z"/><path fill="#5f646b" d="M223.91 116.45c2.34-.07 4.79.28 7.03-.61 1.27.82 2.61 1.66 3.36 3.04.2 2.65-2.65 6.76.84 8.02 2.32 2.2 3.32-2.32 5.32-3.18.8 4.32 5.85 5.89 7.54 1.27l2.21-.79c-1.86 4.13-3.74 12.48-9.45 9.8-4.76 3.42-10.08-11.66-10.03-3.78-.01-5.44-9.85-7.05-8.78-.21-3.27 5.2 2.75 9.72 7.22 10.52l-1.36 2.46c-.92 1.19-1.31 2.71-1.02 4.19-5.29-1.77-4.13-9.29-9.78-10.16-4.71-.57.12-7.68-3.26-9.95-3.21-.99-4.8 3.67-7.5 3.6-3.36-.27-.18-4.1-2.38-5.54-2.36.68-4.68 1.55-6.95 2.42-3.8 3.39-1.69 10.84 3.85 7.59.36 4.79-5.23.98-7.66 3.05-.81 3.86 7.68 1.13 4.18 7.71 3.87 1.31.12-8.57 3.86-4.82 1.58 2.73 1.67 5.72.97 8.73 3.7 1.45 5.72-3.3 8.89-1.86 9.1-1.12 2.97 6.68 6.73 9.93-3.28 1.24-5.95 3.93-7.76 6.84 1.69.72 3.43 1.31 5.19 1.88-3.55 1.47-3.19 4.44-.48 6.62 2.78 5.72 8.79 3.02 10.56-1.96 5.33 2.85 5.25-5.11 7.74-8.14-2.76-1.55-3.03-4.11-2.3-6.95-2.07-2.97-3.2 1.2-3.88 2.95-4.45-3.36-6.95-12.15 1.69-10.23 8.37 9.2 12.15 20.97 12.61 33.19-2.83 5.75-10.37 1.29-13.53 6.55-5.7-1.13.33 6.61-5.83 7.64-.64-8.73-4.91 1.08-7.54 4.12.34-3.18 1.27-6.24 2.72-9.09 2.47-1.7 5.96-4.24 1.96-6.6-1.75-2.16-2.98-4.83-5.45-6.3 1.54-5.23-6.65-14.26-10.36-7.33 1.56 2.55 2.55 4.63-.74 6.29 1.24 5.33 3.37 10.66-1.41 14.98l-1.81-2.21c2.4-1.61 2.64-9.31-.93-5.95-1.04 1.64-3.52 6.54.04 6.08-3.74-1.03-3.92 3-7.01 2.65-2.08-3.97-.37-9.54 4.39-10.36 3.88-.37 4.73-12.82.99-6-6.64-2.05-2.05-7.72-3.68-12.62-3.08 2.31-1.22 9.97-7.64 6.91-2.69-1.97-.01-6.96 3.41-6.07-2.11-3.49-.84-6.32 2.2-8.62-2.5-1.82-1.41-4.32-.11-6.51-1.94.77-2.86 2.74-4.13 4.25-1.92-1.09-3.18-2.96-3.87-5.01 3.06 2.91 5.63 1.82 4.61-2.43 6.26-2.05 2.77-10.57 1.33-14.87-.45-5.47 3.56-9.75 5.53-14.54 3.85-.59 5.99 3.04 8.08 5.57 3.54-.11 7.08-.46 9.73 2.32 4.41.94 14.71-2.06 11.85-8.48m-30.67 30.72c-2.93 1.59 1.71 4.71 3.78 3.86.67-2.43-1.15-5.02-3.78-3.86m39.77 24.79c-.9 3.18 1.46 6.82 4.98 6.08.9-3.18-1.46-6.82-4.98-6.08m-9.78 8.4c-3.56-.14-2.59 5.59.71 4.63 3.46-.02 1.61-4.95-.71-4.63z"/><path fill="#94969e" d="M240.46 123.72c-3.37-11.84 13.15-4.3 7.54 1.27-1.69 4.62-6.74 3.05-7.54-1.27z"/><path fill="#89959f" d="M269.8 123.07c-6.7 6.91-7.21-9.18.47-4.32l.86 3.52-1.33.8z"/><path fill="#454752" opacity=".96" d="M270.27 118.75c3 .62 7.18-1.04 9 2.06l-.12 1.95c-2.62-.75-5.34-.26-8.02-.49l-.86-3.52z"/><path fill="#74757e" d="M271.13 122.27c2.68.23 5.4-.26 8.02.49l-.16 4.34c-3.73.46-7.73-.31-9.19-4.03l1.33-.8z"/><path fill="#44454d" d="M250.21 124.2c2.54 2.2-2.96 10.21 2.05 13.64 1.54 5 6.66-2.52 7.98 1.95 1.38 3.41 6.3 1.95 8.83 2.19.87-3.92-4.08-3.7-6.11-5.91l-.2-1.02c6.04.63 12.02 2.07 17.38 4.99-.27 1.65-.21 3.34.08 4.99a9.88 9.88 0 0 1-2.92 1.37c-7.32-2.12-16.28 1.31-22.55-3.71-2.97.43-5.89 1.18-8.83 1.75-1.32-7.6-9.23-6.59-13.9-10.63-.46-1.19-.89-2.39-1.29-3.59-.05-7.88 5.27 7.2 10.03 3.78 5.71 2.68 7.59-5.67 9.45-9.8z"/><path fill="#8a9382" d="M252.03 123.86c5.11-.43 7.19 4.83 5.82 9.35-5.39-.17-7.84-3.53-5.82-9.35z"/><path fill="#777b7e" d="M196.92 127.55l6.95-2.42c2.2 1.44-.98 5.27 2.38 5.54 2.7.07 4.29-4.59 7.5-3.6 3.38 2.27-1.45 9.38 3.26 9.95 5.65.87 4.49 8.39 9.78 10.16l1.15.91.56.8c-8.64-1.92-6.14 6.87-1.69 10.23.68-1.75 1.81-5.92 3.88-2.95-.73 2.84-.46 5.4 2.3 6.95-2.49 3.03-2.41 10.99-7.74 8.14 1.45-6.02-2.14-11.34-7.51-13.38-3.76-3.25 2.37-11.05-6.73-9.93 7.25-3.98-9.06-1.62-6.47-7.3 1.93-4.19-3.41-2.82-3.39.43-3.74-3.75.01 6.13-3.86 4.82 3.5-6.58-4.99-3.85-4.18-7.71 2.43-2.07 8.02 1.74 7.66-3.05.51-3.11-.42-6.73-3.85-7.59z"/><path fill="#5a5f75" d="M160.19 126.15c6.8 1.17 3.67 14-2.94 11.66-5.22-3.31.11-8.72 2.94-11.66z"/><path fill="#979baa" d="M221.95 130.01c-1.07-6.84 8.77-5.23 8.78.21l1.29 3.59-.91 2.91-1.94 3.81c-4.47-.8-10.49-5.32-7.22-10.52z"/><path fill="#6a7080" d="M171.27 133.38c1.98-6.49 13.85-8.51 15.36-.82 2.49 3.56-1.39 6.25-2.44 9.52 1.63-5.9 1.79-16-6.48-12.41 1.68 4.83-2 9.57-.68 14.29-4.36-1.24-7.57-5.98-5.76-10.58z"/><path fill="#9195a4" d="M200.77 135.14c-5.54 3.25-7.65-4.2-3.85-7.59 3.43.86 4.36 4.48 3.85 7.59z"/><path fill="#242327" opacity=".92" d="M266.98 129.63c3.67-2.17 8.04-1.13 12.07-1.52l.2 2.08c-2.64 4.8-9.31 3.18-12.27-.56z"/><path fill="#9ba0ac" d="M177.71 129.67c8.27-3.59 8.11 6.51 6.48 12.41l-.17.77-1.03 1.21c-1.97.67-4.06.84-5.96-.1-1.32-4.72 2.36-9.46.68-14.29z"/><path fill="#202124" opacity=".95" d="M232.02 133.81c4.67 4.04 12.58 3.03 13.9 10.63-5.65-1.04-10.1-4.73-14.81-7.72l.91-2.91z"/><path fill="#8b8e97" d="M201.15 141.08c-.02-3.25 5.32-4.62 3.39-.43-2.59 5.68 13.72 3.32 6.47 7.3-3.17-1.44-5.19 3.31-8.89 1.86.7-3.01.61-6-.97-8.73z"/><path fill="#1d1d22" opacity=".85" d="M245.92 144.44l8.83-1.75c6.27 5.02 15.23 1.59 22.55 3.71-10.25.7-21.41.32-31.38-1.96z"/><path fill="#2d2e31" opacity=".66" d="M226.79 147.18c-.29-1.48.1-3 1.02-4.19.34 1.68.43 3.41.13 5.1l-1.15-.91z"/><path fill="#878b9a" d="M193.24 147.17c2.63-1.16 4.45 1.43 3.78 3.86-2.07.85-6.71-2.27-3.78-3.86z"/><path fill="#4f5465" d="M162.24 148.05c3.27 1.54 5.55 7.66 3.96 11.59 2.55.04 1.98 3.47-.26 3.34-4.29 1.17-3.57-4.9-3.41-7.69-2.98-1.08-.18-4.97-.29-7.24z"/><path fill="#434957" d="M180 155.68c1.25-2.13 1.89-4.52 2.78-6.8.69 2.05 1.95 3.92 3.87 5.01 1.27-1.51 2.19-3.48 4.13-4.25-1.3 2.19-2.39 4.69.11 6.51-3.04 2.3-4.31 5.13-2.2 8.62-3.42-.89-6.1 4.1-3.41 6.07 6.42 3.06 4.56-4.6 7.64-6.91 1.63 4.9-2.96 10.57 3.68 12.62 3.74-6.82 2.89 5.63-.99 6-4.76.82-6.47 6.39-4.39 10.36 3.09.35 3.27-3.68 7.01-2.65l.89-.13 1.81 2.21c.74 3.57 1.83 7.52-1.11 10.45-2.18 2.79 3-.98 3.38 1.04 1.82 8.87-5.13 1.3-9.35 5.23-7.66-1 1.67 11.93 4.47 4.9 2.02-6.04 1.98 1.3 2.59 4.1-3.03-2.22-4.8 1.04-6.63 3.06-1.13-.46-2.28-.87-3.44-1.21-4.75-.05-.41 6.09-4.84 7.07-6.22 3.18 5.74 5.72-.29 9.22-4.2.65-8.43 2.04-12.68 1.03.31 2.43 1.3 6.19-2.12 6.76-4.56 1.11-5.03-4.6-4.37-7.74-.86-3.55-3.97 3.94-5.44.7-1.87-4.97-11.06 3.88-7.07-5.99.46-2.85 10.03 3.21 8.27-.3-3.24-3.93 6.4-5.06 2.55-9.64-5.2.4-7.26 7-12.65 6.88-4.86-3.15-3.83-9.28-5.11-14.18 3.59 1.46 4.93 5.86 4.21 9.43 6.87-.62 5.23-8.74 8.86-12.79 9.85 3.79-1.89-9.99 8.72-5.55 6.01-1.48.74-5.71.04-8.81 4.88-1.52 6.09 3.55 7.19 7.04 3.98-1.35 2.35-7.59-.89-9.09-1.41-2.44-1.97-5.07-1.35-7.84-1.68-3.08-6.98-4.03-4.77-8.83 1.82-2.63 5.38-.18 7.96-.32.21-3.52-3.39-6.57-.46-9.81-2.04-1.97-4.7-3.26-6.6-5.34.27-2.61 2.07-5.57 4.87-5.93.26 1.53-1.37 4.16.98 4.49-3.14 5.51 4.72 5.24 7.23 2.63 1.59-2.68 1.08-7.81-3.08-7.32m-5.77 22.41c-3.34 2.61-1.42 7.31 2.72 6.07-2.91 6.86 3.54 1.44 6.92.48.68-4.75-5.99-6.28-9.64-6.55m.07 40.18c-3.84.76-2.5 6.17-3.3 8.71 3.17.04 7.71 1.34 7.85-2.97-1.01-2.21-.99-7.3-4.55-5.74z"/><path fill="#6a6e7b" d="M175.85 160.37c1.28-1.66 2.65-3.24 4.15-4.69 4.16-.49 4.67 4.64 3.08 7.32-2.51 2.61-10.37 2.88-7.23-2.63z"/><path fill="#79824a" d="M209.98 164.72c1.81-2.91 4.48-5.6 7.76-6.84 5.37 2.04 8.96 7.36 7.51 13.38-1.77 4.98-7.78 7.68-10.56 1.96 2.26-1.54 4.8-2.55 7.31-3.59-1.41-2.52-4.23-2.82-6.83-3.03-1.76-.57-3.5-1.16-5.19-1.88z"/><path fill="#949c8e" d="M214.69 173.22c-2.71-2.18-3.07-5.15.48-6.62 2.6.21 5.42.51 6.83 3.03-2.51 1.04-5.05 2.05-7.31 3.59z"/><path fill="#747b81" d="M203.08 171.07c3.71-6.93 11.9 2.1 10.36 7.33 2.47 1.47 3.7 4.14 5.45 6.3-3.14.42-6.14 5.6-1.96 6.6-1.45 2.85-2.38 5.91-2.72 9.09-2.54 2.96-5.79 5.05-9.22 6.8l-1.79-3.36c-.38-2.02-5.56 1.75-3.38-1.04 2.94-2.93 1.85-6.88 1.11-10.45 4.78-4.32 2.65-9.65 1.41-14.98 3.29-1.66 2.3-3.74.74-6.29z"/><path fill="#9092a2" d="M233.01 171.96c3.52-.74 5.88 2.9 4.98 6.08-3.52.74-5.88-2.9-4.98-6.08z"/><path fill="#5a5e73" d="M144.31 177.26c4.5-1.8 4.51 5.6 5.47 7.93.11 3.46 3.29 9.43-1.97 10.51-3.86-.78-7.47-3.85-8.36-7.77-.15-1.25-.37-2.48-.63-3.7 1.58-2.47 2.26-6.13 5.49-6.97z"/><path fill="#34363e" d="M149.78 185.19c-.23-3.04.45-7.28 4.34-7.28-.21 2.38-4.01 5.98.49 6.07-.31-4.36 3.82-2.9 3.84.45-.84 7.55 7.56 6.78 12.11 4.84.68 2.4 1.88 4.53 4.66 4.68 3.24 1.5 4.87 7.74.89 9.09-1.1-3.49-2.31-8.56-7.19-7.04.7 3.1 5.97 7.33-.04 8.81-10.61-4.44 1.13 9.34-8.72 5.55-3.63 4.05-1.99 12.17-8.86 12.79.72-3.57-.62-7.97-4.21-9.43.84-4.01 2.32-8.92-3.25-8.55-8.5-.21-2.22 15.88 3.25 8.55 1.28 4.9.25 11.03 5.11 14.18 5.39.12 7.45-6.48 12.65-6.88 3.85 4.58-5.79 5.71-2.55 9.64 1.76 3.51-7.81-2.55-8.27.3-3.99 9.87 5.2 1.02 7.07 5.99 1.47 3.24 4.58-4.25 5.44-.7-.66 3.14-.19 8.85 4.37 7.74 3.42-.57 2.43-4.33 2.12-6.76 4.25 1.01 8.48-.38 12.68-1.03 1.51 1.15 3.64 1.7 4.49 3.54-3.33.01-6.76-.73-9.95.49-2.24 5.61-.68 12.74 4.46 16.18 0 .94-.06 1.88-.17 2.83-1.1-.78-2.18-1.57-3.31-2.3-3.61-1.97-7.43-3.56-10.73-6.09-13.33-1.23-14.12 21.85-1.95 25.39 2.87 2.64 6.87 2.85 10.57 2.21 2.92.49 6.9-1.4 8.32 2.16 1.87 3.35 5.61-2.22 7.79 1.5l-1.51 1c-5.12 1.32-11.08-.48-15.64 1.14-.16 6.93 10.02 7.49 14.83 5.62 6.05-2.98 2.75 7.07 9.32 4.51-5.93 1.12-12.08-1.72-17.74 1-4.38 3.06-6.49-1.52-9.36-3.47-3.06-1.53-6.88-.59-10.22-.86-1.39-.89-2.67-1.94-4.02-2.87-1.39-4.03.21-11.32-5.26-12.74-4.03-1.21-7.09-4.13-9.67-7.34.04-3.22-.42-6.29-2.07-9.03.89-6.72 3.36-13.19-1.97-18.79.03-2.1-.17-4.2-.95-6.17l.09-7.12a6.61 6.61 0 0 0-.83-3.18c-3.63-4.95-3.49-11.24-1.38-16.85l1.41-2.78c1.06-2.22 4.34-4.08 3.44-6.75-1.98-1.65-3.9-3.39-4.89-5.84l-.29-.69.93-2.97c.89 3.92 4.5 6.99 8.36 7.77 5.26-1.08 2.08-7.05 1.97-10.51z"/><path fill="#595f6c" d="M174.23 178.09c3.65.27 10.32 1.8 9.64 6.55-3.38.96-9.83 6.38-6.92-.48-4.14 1.24-6.06-3.46-2.72-6.07z"/><path fill="#838991" d="M223.23 180.36c2.32-.32 4.17 4.61.71 4.63-3.3.96-4.27-4.77-.71-4.63z"/><path fill="#3d404c" d="M241.11 182.08l3.77 3.03c6.19 1.69 12.91.74 19.34.7a15.34 15.34 0 0 1 2.85 1.01c-1.55 1.83-1.8 4.15-1.9 6.44-3.73-2.47-10.41-2.73-11.03 2.96-1.06 4.83-1.46-3.6-3.07-2.78-2.81 3-5.52-3.49-8.93-1.46-.91 3.09-2.55 8.7-5.37 3.6-3.17 1.69-8.35 11.78.15 8.96-4.07-4.87 6.26-2.93 4.75.17-2.58 2.54-7.56 7.91-2.5 10.5-2.68 2.08-5.24 4.4-8.27 5.95-.82-3.81 9.12-6.92.13-7.18-9.56-.51-11.33-10.3-9.28-17.71 6.16-1.03.13-8.77 5.83-7.64-2.02 3.12 2.18 6.33 4.25 3.13 1.48-3.28-2.01-2.86-4.25-3.13 3.16-5.26 10.7-.8 13.53-6.55z"/><path fill="#878f82" d="M198.19 184.18c3.57-3.36 3.33 4.34.93 5.95l-.89.13c-3.56.46-1.08-4.44-.04-6.08z"/><path fill="#1d1c1c" opacity=".62" d="M138.09 184.17l.73.06.63 3.7-.93 2.97c-.98-2.11-1.12-4.36-.43-6.73z"/><path fill="#9396a4" d="M216.93 191.3c-4.18-1-1.18-6.18 1.96-6.6 4 2.36.51 4.9-1.96 6.6z"/><path fill="#1b1c21" opacity=".67" d="M244.88 185.11c6.45-.04 12.96-.63 19.34.7-6.43.04-13.15.99-19.34-.7z"/><path fill="#37373e" opacity=".97" d="M267.07 186.82c4.7 2.95 10.54 5.12 13.53 10.01a4.26 4.26 0 0 0-.01 5.34c-2.99 5.43-9.74 6.47-14.61 9.66-8.14 2.36-17.21-.12-24.67 4.1l-2.14-.72c-5.06-2.59-.08-7.96 2.5-10.5 1.58 7.42 10.99-2.32 13.12 4.5 1.38 4.1 3.3-1.58 4.41-3.05 2.33-.54 1.54 3.73 4.35 2.36.53-4.14 5.43-.14 7.44-3.19 7.59-3.88 1.43-13.58-5.82-12.07.1-2.29.35-4.61 1.9-6.44z"/><path fill="#6c7285" d="M227.58 188.63c2.24.27 5.73-.15 4.25 3.13-2.07 3.2-6.27-.01-4.25-3.13z"/><path fill="#595b69" d="M254.14 196.22c.62-5.69 7.3-5.43 11.03-2.96 7.25-1.51 13.41 8.19 5.82 12.07-.1-2.07.61-3.91 1.8-5.55-.96-1.94-4.45-6.57-6.86-3.95-2.06 3.8-6.43.36-9.75.29-2.54 2.09-.9 5.92-1.17 8.8 5.27-1.18 10.87-1.64 15.98.41-2.01 3.05-6.91-.95-7.44 3.19-2.81 1.37-2.02-2.9-4.35-2.36-1.11 1.47-3.03 7.15-4.41 3.05-2.13-6.82-11.54 2.92-13.12-4.5 1.51-3.1-8.82-5.04-4.75-.17-8.5 2.82-3.32-7.27-.15-8.96 2.82 5.1 4.46-.51 5.37-3.6 3.41-2.03 6.12 4.46 8.93 1.46 1.61-.82 2.01 7.61 3.07 2.78z"/><path fill="#6f7376" d="M214.21 200.39c2.63-3.04 6.9-12.85 7.54-4.12-2.05 7.41-.28 17.2 9.28 17.71 8.99.26-.95 3.37-.13 7.18 3.03-1.55 5.59-3.87 8.27-5.95l2.14.72c-1.74 10.01-4.85 20.34-11.75 28.07-1.91.56-3.02 2.07-3.34 4l-2.03 7.05c3.4-1.47 7.04-2.16 10.75-2.09-.21 4.97-.46 10.45 2.06 14.8-6.22-1.16-3.31 5.14-2.34 8.62l.52 1.66c-2.96-.48-7.93-4.06-7.92 1.12-.54 1.48-.71 3.36-2.14 4.3-6.88-2.69 4.79-5.69 1.48-10.01-1.22-1.42-2.71-3.32-4.45-1.43.3-1.62 1.66-4.96-1.08-4.89-3.2 1.86-6.5 5.56-3.09 9.02-1.84.16-6.09-2.29-4.48 1.2 1.37 3.2-3.13 3.56-5.09 4.88-7.42-1.23-3.2 5.48-3.2 8.96l-.37.79c-2.53-2.21-7.89-7.09-2.76-8.13-3.38-.86-6.8 1.78-3.21 4.45-3.16.28-4.25-2.78-5.15-5.19l1.51-1c5.03-2.27 11.38-.64 15.7-4.37.48-3.55 1.25-11.97-5.87-8.7-3.38 1.13.13 6.34-2.38 8.66-4.89 3.12-7.96-4.43-10.66-7.27 7.23-1.49-1.69-7.4-1.65-11.65.41-3.67-4.95-1.62-4.37-4.93 4.82 1.22 15.27 6.8 16.17-.82 4.45-1.23 3.45-3.68.95-6.54 4.04.57 5.49-8.6 1.35-6.72-.56-1.58-.76-3.26-.92-4.92-4.38 2.35 2.19 7.93-4.25 7.13 1.65-4.99-4.76-1.84-4.07-5.62 3.34-1.59 5.32-6.32.7-2.55-1.22-6.13-1.77-8.77 3.89-5.64-3.65-5.71 5.54-5.36 1.09-10.11 4.38 2.63 1.73-1.19 1.22-3.85 1.67-2.04 3.24-4.22 2.86-7.02 3.43-1.75 6.68-3.84 9.22-6.8m1.92 3.61c-1.07 4.14-3.17 7.14-4.18 10.95 3.53-1.97 6.43 1.74 10.02 1.07.92-3.6-.63-4.77-3.87-3.32-2.16-3.38 2.79-7.2-1.97-8.7m2.1 23.24c-4.93 4.99 4.41 2.03 0 0m-.98 27.02c-4.13 1.76-2.76 10.2 2.11 7.16 5.06-1.32 2.98-9.01-2.11-7.16m-17.03 5.9c-1.63.73-1.53 2.92-.02 3.73 4.65.79 5.18-6.01.02-3.73z"/><path fill="#7d7e89" d="M265.93 195.83c2.41-2.62 5.9 2.01 6.86 3.95-1.19 1.64-1.9 3.48-1.8 5.55-5.11-2.05-10.71-1.59-15.98-.41.27-2.88-1.37-6.71 1.17-8.8 3.32.07 7.69 3.51 9.75-.29z"/><path fill="#586161" d="M203.2 203.83l1.79 3.36c.38 2.8-1.19 4.98-2.86 7.02.51 2.66 3.16 6.48-1.22 3.85-.61-2.8-.57-10.14-2.59-4.1-1.3-1.8-2.94-3.31-4.47-4.9 4.22-3.93 11.17 3.64 9.35-5.23z"/><path fill="#8d9293" d="M216.13 204c4.76 1.5-.19 5.32 1.97 8.7 3.24-1.45 4.79-.28 3.87 3.32-3.59.67-6.49-3.04-10.02-1.07 1.01-3.81 3.11-6.81 4.18-10.95z"/><path fill="#55565b" d="M147.09 213.72c-5.47 7.33-11.75-8.76-3.25-8.55 5.57-.37 4.09 4.54 3.25 8.55z"/><path fill="#747d83" d="M198.32 213.96c-2.8 7.03-12.13-5.9-4.47-4.9 1.53 1.59 3.17 3.1 4.47 4.9z"/><path fill="#565d5f" d="M194.28 221.12c1.83-2.02 3.6-5.28 6.63-3.06 4.45 4.75-4.74 4.4-1.09 10.11-5.66-3.13-5.11-.49-3.89 5.64 4.62-3.77 2.64.96-.7 2.55-.69 3.78 5.72.63 4.07 5.62 6.44.8-.13-4.78 4.25-7.13.16 1.66.36 3.34.92 4.92 4.14-1.88 2.69 7.29-1.35 6.72 2.5 2.86 3.5 5.31-.95 6.54-.9 7.62-11.35 2.04-16.17.82-.58 3.31 4.78 1.26 4.37 4.93-.04 4.25 8.88 10.16 1.65 11.65 2.7 2.84 5.77 10.39 10.66 7.27 2.51-2.32-1-7.53 2.38-8.66 7.12-3.27 6.35 5.15 5.87 8.7-4.32 3.73-10.67 2.1-15.7 4.37-2.18-3.72-5.92 1.85-7.79-1.5-1.42-3.56-5.4-1.67-8.32-2.16 1.37-2.86 2.54-7.86 6.69-6.91 1.97-2.17-.49-4.41-.95-6.64a71.29 71.29 0 0 0-.32-5.66c.11-.95.17-1.89.17-2.83-5.14-3.44-6.7-10.57-4.46-16.18 3.19-1.22 6.62-.48 9.95-.49-.85-1.84-2.98-2.39-4.49-3.54 6.03-3.5-5.93-6.04.29-9.22 4.43-.98.09-7.12 4.84-7.07-1.2 4.58 4.37 7.3 3.44 1.21m-3.15 19.16c-2.79 1.39 3.65 5.95-1.17 6.07 1.96 2.06 4.76 3.29 4.29 6.68 8.09-.72 5.9-15.63-3.12-12.75z"/><path fill="#62697b" d="M174.3 218.27c3.56-1.56 3.54 3.53 4.55 5.74-.14 4.31-4.68 3.01-7.85 2.97.8-2.54-.54-7.95 3.3-8.71z"/><path fill="#7f8598" d="M190.84 219.91c1.16.34 2.31.75 3.44 1.21.93 6.09-4.64 3.37-3.44-1.21z"/><path fill="#c4cab5" d="M218.23 227.24c4.41 2.03-4.93 4.99 0 0z"/><path fill="#81818c" d="M191.13 240.28c9.02-2.88 11.21 12.03 3.12 12.75.47-3.39-2.33-4.62-4.29-6.68 4.82-.12-1.62-4.68 1.17-6.07m3.06 3.05c-.87 4.67 4.4.46 0 0z"/><path fill="#d6d5de" d="M194.19 243.33c4.4.46-.87 4.67 0 0z"/><path fill="#2b2c33" opacity=".94" d="M226.22 248c.32-1.93 1.43-3.44 3.34-4 7 3.53 15.77-2.79 22.61 1.63-5.78 2.07-12.37 1.53-17.67 4.8-2.11-2.4-5.31-2.21-8.28-2.43z"/><path fill="#56575e" d="M234.5 250.43c5.3-3.27 11.89-2.73 17.67-4.8 3.23 3.6-2.22 6.74-5.16 8.26-3.23 1.11-13.92 2.64-7.69 6.89 3.33-.69 8.39-1.37 8.22 3.45-1.22 4.45-6.49 6.76-10.67 7.93-2.27-.05-2.13 2.62-2.21 4.22-.97-3.48-3.88-9.78 2.34-8.62-2.52-4.35-2.27-9.83-2.06-14.8-3.71-.07-7.35.62-10.75 2.09l2.03-7.05c2.97.22 6.17.03 8.28 2.43z"/><path fill="#5b616a" d="M168.55 276.24c-12.17-3.54-11.38-26.62 1.95-25.39-1.26 4.08-6.57 5.79-6.57 10.22 3.41.76 6.14-5.64 9.01-1.79 1.63 6.3-3.85 10.98-4.39 16.96z"/><path fill="#697252" d="M170.5 250.85c3.3 2.53 7.12 4.12 10.73 6.09-3.59 1.31-5.51 4.82-7.21 8.02 2.51 3.95 7.76 2.84 10.84-.06.46 2.23 2.92 4.47.95 6.64-4.15-.95-5.32 4.05-6.69 6.91-3.7.64-7.7.43-10.57-2.21.54-5.98 6.02-10.66 4.39-16.96-2.87-3.85-5.6 2.55-9.01 1.79 0-4.43 5.31-6.14 6.57-10.22z"/><path fill="#9899a1" d="M217.25 254.26c5.09-1.85 7.17 5.84 2.11 7.16-4.87 3.04-6.24-5.4-2.11-7.16z"/><path fill="#2c2b30" opacity=".94" d="M239.32 260.78c-6.23-4.25 4.46-5.78 7.69-6.89-4.68 2.78 3.29 6.37.53 10.34.17-4.82-4.89-4.14-8.22-3.45z"/><path fill="#8d947e" d="M181.23 256.94l3.31 2.3.32 5.66c-3.08 2.9-8.33 4.01-10.84.06 1.7-3.2 3.62-6.71 7.21-8.02z"/><path fill="#a0a3a0" d="M200.22 260.16c5.16-2.28 4.63 4.52-.02 3.73-1.51-.81-1.61-3 .02-3.73z"/><path fill="#909296" d="M217.98 276.15c-3.41-3.46-.11-7.16 3.09-9.02 2.74-.07 1.38 3.27 1.08 4.89-1.25 1.5-2.5 3.07-4.17 4.13z"/><path fill="#585a5a" opacity=".98" d="M222.15 272.02c1.74-1.89 3.23.01 4.45 1.43 3.31 4.32-8.36 7.32-1.48 10.01-1.31.73-2.88 1.81-4.35.78 5.11-6.7-7.68-6.37-4.8-.12-2.95 3.23-6.79 5.37-10.76 7.07 0-3.48-4.22-10.19 3.2-8.96 1.96-1.32 6.46-1.68 5.09-4.88-1.61-3.49 2.64-1.04 4.48-1.2 1.67-1.06 2.92-2.63 4.17-4.13z"/><path fill="#2a2b2c" opacity=".69" d="M234.66 276.38c.08-1.6-.06-4.27 2.21-4.22-.32 2.11-.88 4.07-1.69 5.88l-.52-1.66z"/><path fill="#3c3e40" opacity=".91" d="M227.26 279.16c-.01-5.18 4.96-1.6 7.92-1.12-2.07 2.49-5.2 1.97-7.92 1.12z"/><path fill="#33363a" opacity=".96" d="M215.97 284.12c-2.88-6.25 9.91-6.58 4.8.12-1.58-.75-3.27-1.32-4.8-.12z"/><path fill="#5d644c" d="M178.08 284.25c4.56-1.62 10.52.18 15.64-1.14.9 2.41 1.99 5.47 5.15 5.19-3.59-2.67-.17-5.31 3.21-4.45-5.13 1.04.23 5.92 2.76 8.13-.46 1.2-1.2 2.31-2.61 2.4-6.57 2.56-3.27-7.49-9.32-4.51-4.81 1.87-14.99 1.31-14.83-5.62z"/></svg>