<svg xmlns="http://www.w3.org/2000/svg" width="512" height="512" viewBox="0 0 384 384" xmlns:v="https://vecta.io/nano"><path fill="#131b1d" opacity=".45" d="M155.99 141.75c1.48.82 3.45 1.18 4.3 2.8 1.71 2.97 3.18 6.1 5.32 8.82a36.4 36.4 0 0 0-3.95-1.03c.6-1.24.39-2.35-.62-3.32-1.13-1.53-1.42-5.53-4.04-3.97-.98 2.38 1.09 3.84 2.6 5.29l1.3 1.92c.55 1.46 1.02 2.95 1.56 4.42-2.66-2.79-5.15-5.83-6.68-9.39-.9-1.77-.04-3.73.21-5.54z"/><path fill="#36373b" opacity=".89" d="M157 145.05c2.62-1.56 2.91 2.44 4.04 3.97l-1.44 1.32c-1.51-1.45-3.58-2.91-2.6-5.29z"/><path fill="#2cd4d6" opacity=".93" d="M159.6 150.34l1.44-1.32c1.01.97 1.22 2.08.62 3.32l-.76-.08-1.3-1.92z"/><path fill="#413f45" d="M160.9 152.26l.76.08a36.4 36.4 0 0 1 3.95 1.03c2.83 1.31 4.87 3.8 6.8 6.17 2.85 3.72 6.14 7.12 8.57 11.16 3.03-1.7 6.12-3.29 9.26-4.79-2.17 1.92-4.85 3.65-5.93 6.45-.08 1.53.15 3.05.3 4.57l3.2-.91 2.28-.66.79-.26c1.75.81 3.6 1.97 5.6 1.33 5.35-1.29 10.74-2.44 16.26-2.61l-.32 1.66c-1.01.94-2.06 1.85-3.11 2.75.56 2.07 1.28 4.13 1.41 6.28a34.79 34.79 0 0 1-2.2 2.18l-1.9-1.91a53.82 53.82 0 0 1-2.97-4.65l-1.14-1.28-.93.04-.67 1.51c-2.05-.82-4.11-1.6-6.22-2.21-1.84-.08-3.6.54-5.36.91l-1.03.23c1.67 3.27 3.58 6.42 5.64 9.48l-9 3.12c-1.26 3.04-2.73 6-4.05 9.02-.31 1.03-1.24 2.36-.3 3.33 2.75 3.51 6.32 6.27 9.09 9.78-.56 2.18-1.32 4.3-2.13 6.4-2.49-1.37-5.16-2.39-7.65-3.74l-1.28-.76c-1.09-1.07-2.07-2.26-3.31-3.15-2.73-1.51-6.09-1.68-8.62-3.54-1.4-1.74-2.16-3.86-3.08-5.87l.68.43c1.85 1.17 3.71 2.32 5.61 3.42-.21-1.78-.36-3.58-.8-5.32-1.82-1.09-3.91-1.56-5.93-2.08l-2.35-.5c1.18-.88 2.47-1.73 3.31-2.98.33-2.61-.17-5.22-.44-7.81l7.42 1.95c2.06-2.66 3.54-5.72 4.13-9.04l-4.07-.92 2.68-.55-3.62-3.71c.68-7.42-5-13.21-7.77-19.61l-1.56-4.42z"/><path fill="#151616" d="M190.89 165.38c5.33-.53 10.68-1.72 16.05-1.02 3.77.47 7 2.7 9.79 5.13 1.26 1.09 2.5 2.2 3.69 3.35 1.98 1.99 3.87 4.07 5.57 6.31 3.53 4.28.71 9.67 1.14 14.52.24 2 2.5 2.35 3.99 3.1 2.92.7 5.89 1.21 8.82 1.92l1.7.46.2.85c-6.74-1.55-13.63-2.9-20.59-2.18-.68 2.68-1.15 5.47-2.36 7.99l-.62.31c.03-3.04.05-6.09-.25-9.11-.52-2.02-1.15-4-1.78-5.98 1.88-1.44 3.91-2.74 5.41-4.6.85-1.88.51-4.05.02-5.98-.92-3.37-3.89-5.5-6.17-7.92l-.89-2.2-1.23.44c-7.01 1.44-14.24 1.29-21.25 2.8l-.48-2.53-.76-5.66M219.18 194l.85 3.56c1.84-.47 4-.66 4.94-2.59-1.92-.36-3.85-.67-5.79-.97z"/><path fill="#353338" opacity=".93" d="M152.24 165.71c3.1 1.92 4.81 5.41 4.79 9.02.02 2.1-.09 4.21-.09 6.32-.93-1.38-1.98-2.89-1.5-4.64a109.96 109.96 0 0 1 .55-4.06l-3.23.44-1-3.04-2.05.65 2.53-4.69z"/><path fill="#25606c" d="M190.24 165.91l.65-.53.76 5.66-.77 4.06-.79.26-.29-7.81a72.31 72.31 0 0 0-1.99 8.47l-3.2.91c-.15-1.52-.38-3.04-.3-4.57 1.08-2.8 3.76-4.53 5.93-6.45z"/><path fill="#37616d" opacity=".86" d="M240.09 168.13c1.88-.75 3.94-.83 5.92-1.14 1.39 1.64 3.33 3.07 3.91 5.23-.23 1.79-.95 3.47-1.53 5.17l-.38-1.51c-.38-1.92-.61-3.88-1.23-5.74-2.94-2.45-6.91-.27-9.87 1.04 1-1.07 1.96-2.21 3.18-3.05z"/><path fill="#343334" d="M246.01 166.99c6.72.78 13.55-.26 20.23.99 4.07.72 8.15 3.78 8.55 8.15.26 1.98-.08 4.63-2.28 5.35-5.92 1.69-11.71-1.32-17.53-2.03.02 3.93-.1 7.89-.97 11.74 2.67 1.81 5.74 2.84 8.94 3.25 4.18.52 7.52 3.3 11.33 4.86l.44 3.02a123.73 123.73 0 0 1 6.67-.44l-1.36 3.6-.54 1.53c-3.62-1.45-7.08 1.08-10.69 1.24-2.74-1.15-5.46-2.36-8.27-3.33l1.32-3 2.99 4.22c2.07-2.02 3.78-4.41 4.6-7.21l-1.34-1.36c-.99-.63-1.99-1.22-3.03-1.74-1.08-.06-2.17-.07-3.24-.12-5.95-.36-11.32-3.15-16.81-5.16a63.66 63.66 0 0 0 1.05-2.72l3.81 1.29 2.67.85c-.53-2.89.13-6.72-2.85-8.44-.49-1.36-.89-2.75-1.31-4.14.58-1.7 1.3-3.38 1.53-5.17-.58-2.16-2.52-3.59-3.91-5.23m3.88 1.67c.81 3.13 2.65 5.82 5.39 7.57-.32-1.72-.07-3.75-1.34-5.14-1.13-1.12-2.67-1.69-4.05-2.43m5.33.31c1.33 2.68 2.56 5.41 3.65 8.2l.59-5.92 2.54.1c-.52 2.58-1.08 5.15-1.73 7.7 2.26.79 4.59 1.35 6.97 1.6 2.21-.44 4.43-.76 6.66-1.05-.06-1.39-.07-2.78-.33-4.14-1.65-1.95-3.93-3.21-5.97-4.69l1-1.38c-1.52.2-3.03.4-4.51.78-2.8-1.23-5.87-1.26-8.87-1.2z"/><path fill="#3d8593" d="M187.81 176.02a72.31 72.31 0 0 1 1.99-8.47l.29 7.81-2.28.66z"/><path fill="#564438" opacity=".84" d="M216.73 169.49c6.11.34 12.3.29 18.25 1.92l-.87 2.35c-4.35-1.73-9.16-2.5-13.69-.92-1.19-1.15-2.43-2.26-3.69-3.35z"/><path fill="#3b3a3c" d="M236.91 171.18c2.96-1.31 6.93-3.49 9.87-1.04.62 1.86.85 3.82 1.23 5.74l-6.11-.42-3.79-1.58-2.54-2.01 1.34-.69z"/><path fill="#706e70" d="M249.89 168.66c1.38.74 2.92 1.31 4.05 2.43 1.27 1.39 1.02 3.42 1.34 5.14-2.74-1.75-4.58-4.44-5.39-7.57z"/><path fill="#556166" d="M255.22 168.97c3-.06 6.07-.03 8.87 1.2l-.16 2.09c-.3 3.22 1.47 5.94 3.31 8.39-2.38-.25-4.71-.81-6.97-1.6l1.73-7.7-2.54-.1-.59 5.92-3.65-8.2z"/><path fill="#47717e" d="M264.09 170.17c1.48-.38 2.99-.58 4.51-.78l-1 1.38-3.67 1.49.16-2.09z"/><path fill="#262626" d="M192.13 173.57c7.01-1.51 14.24-1.36 21.25-2.8a103.06 103.06 0 0 0-.64 3.05c-5.52.17-10.91 1.32-16.26 2.61-2 .64-3.85-.52-5.6-1.33.29-1.35.55-2.7.77-4.06l.48 2.53z"/><path fill="#5695a7" d="M213.38 170.77l1.23-.44.89 2.2-.32 3.86c-.71 3.44-1.89 6.76-3.26 10-.03-3.65.05-7.3.5-10.91l.32-1.66.64-3.05z"/><path fill="#4a4849" d="M263.93 172.26l3.67-1.49c2.04 1.48 4.32 2.74 5.97 4.69.26 1.36.27 2.75.33 4.14l-6.66 1.05c-1.84-2.45-3.61-5.17-3.31-8.39z"/><path fill="#229d9f" opacity=".78" d="M152.76 172.79l3.23-.44-.55 4.06-2.68-3.62z"/><path fill="#ba8d71" d="M220.42 172.84c4.53-1.58 9.34-.81 13.69.92 1.55 1.57 2.91 3.33 4.04 5.22l-.3 2.38-2.6.89-9.26-3.1c-1.7-2.24-3.59-4.32-5.57-6.31z"/><path fill="#161616" d="M234.11 173.76l.87-2.35.59.46 2.54 2.01c2.1 1.97 4.2 4.06 5.53 6.66.98 1.75.32 3.79.05 5.64-2.4-1.93-4.1-4.51-5.54-7.2-1.13-1.89-2.49-3.65-4.04-5.22z"/><path fill="#282829" d="M215.5 172.53c2.28 2.42 5.25 4.55 6.17 7.92.49 1.93.83 4.1-.02 5.98-1.5 1.86-3.53 3.16-5.41 4.6l-.72-.44-1.21-1.08c1.56-2.38 3.54-4.63 4.26-7.45-.78-2.08-2.17-3.84-3.39-5.67.14-1.29.25-2.57.32-3.86z"/><path fill="#4b8393" d="M238.11 173.88l3.79 1.58c1.55 1.68 3.11 3.44 4.01 5.57.86 2.17.47 4.56.16 6.8l-1.05 2.72-1.93 4.57-1.45 4.03-1.7-.46c.95-3.54 2.1-7.01 3.21-10.49l.54-2.02c.27-1.85.93-3.89-.05-5.64-1.33-2.6-3.43-4.69-5.53-6.66z"/><path fill="#3e3b41" d="M156.94 181.05l.09-6.32c1.43 1.51 2.94 2.98 4.08 4.73 1.32 2.74 1.74 5.78 2.13 8.76l-4.21.78-1.8-3.53-.06-.72-.23-3.7z"/><path fill="#121313" d="M241.9 175.46l6.11.42.38 1.51 1.31 4.14.18 7.59-3.81-1.29c.31-2.24.7-4.63-.16-6.8-.9-2.13-2.46-3.89-4.01-5.57z"/><path fill="#2c5b66" opacity=".97" d="M167.48 176.07l2.75.22 3.62 3.71-2.68.55-5.08.95 1.23-4.81.16-.62z"/><path fill="#524f56" d="M209.31 178.23l3.11-2.75c-.45 3.61-.53 7.26-.5 10.91 1.37-3.24 2.55-6.56 3.26-10 1.22 1.83 2.61 3.59 3.39 5.67-.72 2.82-2.7 5.07-4.26 7.45l-3.11-2.85-3.62 2.02c2.47 1.23 5.21 1.69 7.94 1.91l.72.44c.63 1.98 1.26 3.96 1.78 5.98l-2.34-1.06-.34 5.65-3.83-1.28c-.51 1.16-1.03 2.32-1.43 3.52 1.59 1.55 3.62 2.48 5.57 3.48l-1.35 4.53c-1.2 1.32-2.69 2.35-4.31 3.1-5.49 2.5-11.24 4.36-17.09 5.82.46-2.27.8-4.56 1.31-6.81l.24-.77c1.16-3.56 2.11-7.19 2.66-10.9a24.15 24.15 0 0 1 7.47-.91c1.14-.14 2.61.22 3.45-.8.39-1.36.55-2.85.08-4.2-2.13-2.36-4.94-3.9-7.57-5.6l.84-3.48 1.78-1.28.37 1.32 1.86.15c1.22.33 2.26.06 3.13-.8a34.79 34.79 0 0 0 2.2-2.18c-.13-2.15-.85-4.21-1.41-6.28z"/><path fill="#191918" d="M161.11 179.46c2.22-.55 4.27-1.58 6.21-2.77l-1.23 4.81 5.08-.95 4.07.92c-.59 3.32-2.07 6.38-4.13 9.04l-7.42-1.95c.27 2.59.77 5.2.44 7.81-.84 1.25-2.13 2.1-3.31 2.98l-1.94-.29.15-10.06 4.21-.78c-.39-2.98-.81-6.02-2.13-8.76z"/><path fill="#768189" d="M189.33 179.1c1.76-.37 3.52-.99 5.36-.91l.57 1.57-5.93-.66z"/><path fill="#606268" d="M194.69 178.19c2.11.61 4.17 1.39 6.22 2.21l1.97.27.77-.54a53.82 53.82 0 0 0 2.97 4.65l-.75.7-.48 2.01-1.86-.15-.37-1.32-1.78 1.28c.79-1.29 1.69-2.52 2.58-3.75l-7.76-.64-.94-3.15-.57-1.57z"/><path fill="#57575f" d="M188.3 179.33l1.03-.23 5.93.66.94 3.15.72 3.14-.18.91-2.6 10.6c-3.73 1.68-7.32 3.69-10.56 6.2 2.63.89 5.27 1.73 7.92 2.55-.73 2.55-1.21 5.16-1.82 7.75-2.77-3.51-6.34-6.27-9.09-9.78-.94-.97-.01-2.3.3-3.33 1.32-3.02 2.79-5.98 4.05-9.02l9-3.12c-2.06-3.06-3.97-6.21-5.64-9.48z"/><path fill="#63a6b9" d="M200.91 180.4l.67-1.51.93-.04 1.14 1.28-.77.54-1.97-.27z"/><path fill="#2b2b2b" d="M225.99 179.15l9.26 3.1-1.47 2.33c-2.48 3.57-2.6 8.01-2.66 12.19-1.49-.75-3.75-1.1-3.99-3.1-.43-4.85 2.39-10.24-1.14-14.52z"/><path fill="#504949" d="M238.15 178.98c1.44 2.69 3.14 5.27 5.54 7.2l-.54 2.02c-3.08-1.32-6.21-2.51-9.37-3.62.48-.79.97-1.56 1.47-2.33l2.6-.89.3-2.38z"/><path fill="#3d5d67" d="M249.7 181.53c2.98 1.72 2.32 5.55 2.85 8.44l-2.67-.85-.18-7.59z"/><path fill="#3b3c3d" d="M131.44 184.52c1.31-1.41 3.62-1.22 5.4-1.15 4.1.8 7.78 2.93 11.74 4.19-2.91 3.89-4.06 8.74-4.08 13.54a60.03 60.03 0 0 0-2.66-.96c.27-3.08 1-6.26.24-9.31-1.02-2.23-3.64-3.47-6-3.6-3.29 1.09-5.74 3.7-8.35 5.87 1.11-2.92 2.32-5.79 3.71-8.58z"/><path fill="#9ad6df" d="M196.2 182.91l7.76.64-2.58 3.75-.84 3.48c-1.03 3.87-2.88 7.51-3.43 11.51-.55 3.71-1.5 7.34-2.66 10.9l-2.19-3.08c-1.33 2.24-1.84 4.78-1.67 7.37 1.23-1.15 2.46-2.31 3.62-3.52-.51 2.25-.85 4.54-1.31 6.81l-.69.41-2.19-2.33-2.47 1.61c.81-2.1 1.57-4.22 2.13-6.4.61-2.59 1.09-5.2 1.82-7.75.54-1.75 1.18-3.46 1.75-5.2-.45 2.44-.74 4.9-1.08 7.35l2.8-.75 1.77-6.44-3.14-1.53.54-2.18c.8-3.55 1.73-7.07 2.6-10.6-.52 3.47-.89 6.97-1.35 10.46l2.51-.64c1.21-4.32 3.93-9.58.47-13.57l-1.45 2.84a67.88 67.88 0 0 0-.72-3.14z"/><path fill="#f3ffff" d="M196.92 186.05l1.45-2.84c3.46 3.99.74 9.25-.47 13.57l-2.51.64 1.35-10.46.18-.91z"/><path fill="#4a7986" d="M129.11 186.13l2.33-1.61c-1.39 2.79-2.6 5.66-3.71 8.58.67 1.57.84 3.83 2.71 4.48 3.66 1.37 7.64 1.54 11.4 2.56a60.03 60.03 0 0 1 2.66.96l5.36 2.16c.43-3.81.8-7.66 1.88-11.35-.91 4.66-.84 9.43-.88 14.16-2.07-1.19-4.27-2.18-6.53-2.96-4.56-1.83-9.41-2.75-14.3-3.05-2.32-.25-4.64-.61-6.9-1.17l-1.44-1.05 5.63.18c-.52-2.24-1.18-4.49-1.13-6.8.16-2.04 1.66-3.61 2.92-5.09z"/><path fill="#161a1b" d="M148.58 187.56c2.55-1.66 5.71-1.99 8.59-2.81l.06.72c-1.88 2.09-4.15 3.92-5.49 6.44-1.08 3.69-1.45 7.54-1.88 11.35l-5.36-2.16c.02-4.8 1.17-9.65 4.08-13.54z"/><path fill="#6ebfd4" d="M205.87 185.48l.75-.7 1.9 1.91c-.87.86-1.91 1.13-3.13.8l.48-2.01z"/><path fill="#777577" d="M231.12 196.77c.06-4.18.18-8.62 2.66-12.19 3.16 1.11 6.29 2.3 9.37 3.62-1.11 3.48-2.26 6.95-3.21 10.49-2.93-.71-5.9-1.22-8.82-1.92z"/><path fill="#151717" d="M118.99 187.79c3.41-.33 6.79-.85 10.12-1.66-1.26 1.48-2.76 3.05-2.92 5.09-.05 2.31.61 4.56 1.13 6.8l-5.63-.18c.42-2.92 1.29-5.75 2.34-8.5l2.37-1.08c-2.47-.22-4.93-.44-7.41-.47z"/><path fill="#906852" d="M151.74 191.91c1.34-2.52 3.61-4.35 5.49-6.44l1.8 3.53-.15 10.06-1.05-.16-.1-7.24c-1.51 1.51-3.5 2.82-4.03 5.02-.83 3.27-1.03 6.98.62 10.05.78 1.57 2.69 1.82 4.14 2.47l1.4 5.2c-3.76-1.88-6.4-5.14-9-8.33.04-4.73-.03-9.5.88-14.16z"/><path d="M127.73 193.1c2.61-2.17 5.06-4.78 8.35-5.87 2.36.13 4.98 1.37 6 3.6.76 3.05.03 6.23-.24 9.31-3.76-1.02-7.74-1.19-11.4-2.56-1.87-.65-2.04-2.91-2.71-4.48zm-9.8 23.26l3.18-4.42 5.25-.16c.06 1.2.26 2.38.62 3.55-.06 1.95-.27 3.9-.48 5.84l-3.92 1.7-.52-.69-4.13-5.82z" fill="#4c4b4c"/><path fill="#77d0df" d="M207.58 188.68l3.62-2.02 3.11 2.85 1.21 1.08c-2.73-.22-5.47-.68-7.94-1.91z"/><path fill="#302f30" d="M115.55 193.22c.26-2.21 1.58-4.23 3.44-5.43 2.48.03 4.94.25 7.41.47l-2.37 1.08-3.82 1.57-2.55.79c-.39 1.97-.96 3.96-.79 5.99.65 2.42 2.73 4.06 4.3 5.89l6.56-1.56-4.6-3.13c2.26.56 4.58.92 6.9 1.17l3.21 2.76-4.65-.9c-2.09 3.94.78 7.79 1.66 11.62.82 2.92.45 6.62-2.15 8.55-1.69.85-3.7.56-5.52.78l3.92-1.7c.21-1.94.42-3.89.48-5.84 2.03-.42 1.71-2.97-.01-3.6l.07-3.09-7.66.46-.16-1.67 5.77-.67-8.04-3.51c.17 4.37.22 8.78.98 13.11 1.25 2.02 2.7 3.91 4.13 5.82-1.74-1.25-3.81-2.32-4.78-4.33-2.01-3.94-1.86-8.5-1.98-12.81.01-3.94-.25-7.9.25-11.82z"/><path fill="#716f71" d="M120.21 190.91l3.82-1.57c-1.05 2.75-1.92 5.58-2.34 8.5l1.44 1.05 4.6 3.13-6.56 1.56c-.39-4.22-.76-8.44-.96-12.67z"/><path fill="#565355" d="M117.66 191.7l2.55-.79c.2 4.23.57 8.45.96 12.67-1.57-1.83-3.65-3.47-4.3-5.89-.17-2.03.4-4.02.79-5.99z"/><path fill="#63626a" d="M200.54 190.78c2.63 1.7 5.44 3.24 7.57 5.6.47 1.35.31 2.84-.08 4.2-.84 1.02-2.31.66-3.45.8a24.15 24.15 0 0 0-7.47.91c.55-4 2.4-7.64 3.43-11.51z"/><path fill="#646265" d="M243.09 195.12l1.93-4.57c5.49 2.01 10.86 4.8 16.81 5.16l-1.09 4.46c-6.09-.89-12-2.65-17.65-5.05z"/><path fill="#ad836a" d="M153.7 196.68c.53-2.2 2.52-3.51 4.03-5.02l.1 7.24.03.91c.03 3.14.13 6.28.6 9.39-1.45-.65-3.36-.9-4.14-2.47-1.65-3.07-1.45-6.78-.62-10.05z"/><path fill="#4e433c" d="M219.18 194l5.79.97c-.94 1.93-3.1 2.12-4.94 2.59l-.85-3.56z"/><path fill="#4b4c53" d="M319.74 196.73c2.15-.62 4.09-1.89 6.3-2.33 3.35.61 6.59 1.72 9.99 2.1-7.87.69-15.64 2.15-23.46 3.18-2.11.14-3.49 1.81-4.85 3.21 11.53-.47 22.58-4.34 34.07-5.25l.06 1.78c-3.41 2.58-8.1 3.99-9.89 8.23-1.16 0-2.31 0-3.46.05-1.06.96-2.06 1.98-3.06 3.01l-5.03-.94c-4.08-.76-8.25-.9-12.38-1.21-.47-1.16-.87-2.35-1.51-3.43-1.11-.72-2.35-1.18-3.55-1.71l-.31 4.62c-2.43-1.24-5-2.53-7.81-2.3-3.11.17-6.45.26-9.17 1.94-.52 1.46-.8 2.98-1.12 4.49 4.08-.34 7.95-1.71 11.93-2.55 4.14-.36 8.18 1.04 12.3 1.27l.09 2.81c-1.8-.75-3.71-1.45-5.69-1.11l-.72.13-.48.75.12 2.08c-3.03.77-5.97 1.86-8.81 3.14l-1.54-1.32c1.54-.57 3.06-1.2 4.55-1.88 1.05-.53 2.57-1 1.5-2.38-4.67-1.9-9.51 1.23-14.26.39-2.6-1.05-3.33-4.08-4.06-6.49l.54-1.53c1.71-.06 3.43-.13 5.13-.32 3.73-.26 7.38-1.17 10.85-2.56l1.31-.45c1.17-.18 1.74-.85 1.72-1.98l.05-.8c2.85-.56 5.77-.42 8.44.81 1.46-1.1 2.77-2.53 4.56-3.07 2.54-.34 5.12.04 7.65-.38z"/><path fill="#353436" d="M243.09 195.12c5.65 2.4 11.56 4.16 17.65 5.05-.35 1.49-.66 2.99-.97 4.5-5.89-1.86-11.9-3.31-17.93-4.67l-.2-.85c.43-1.37.92-2.71 1.45-4.03z"/><path fill="#5d9fb0" d="M261.83 195.71l3.24.12-3.22 6.09-1.32 3-.76-.25.97-4.5 1.09-4.46z"/><path fill="#6b6972" d="M215.68 195.95l2.34 1.06c.3 3.02.28 6.07.25 9.11l-2.62 1.2c-1.95-1-3.98-1.93-5.57-3.48.4-1.2.92-2.36 1.43-3.52l3.83 1.28.34-5.65z"/><path fill="#545454" d="M261.85 201.92c.97-2.09 2.07-4.11 3.22-6.09 1.04.52 2.04 1.11 3.03 1.74-1.31 2.77-2.42 5.63-3.26 8.57l-2.99-4.22z"/><path fill="#34353b" d="M336.03 196.5c2.14-.21 4.27.24 6.35.7l-.59.44c-11.49.91-22.54 4.78-34.07 5.25 1.36-1.4 2.74-3.07 4.85-3.21 7.82-1.03 15.59-2.49 23.46-3.18z"/><path fill="#6c6c74" opacity=".96" d="M342.38 197.2c1.7-.51 2.92 2.43 1.63 3.43l-2.16-1.21-.06-1.78.59-.44z"/><path fill="#6d6b74" d="M183.58 203.76c3.24-2.51 6.83-4.52 10.56-6.2l-.54 2.18-.35 1.37-1.75 5.2-7.92-2.55z"/><path fill="#6593a2" d="M268.1 197.57l1.34 1.36c-.82 2.8-2.53 5.19-4.6 7.21.84-2.94 1.95-5.8 3.26-8.57z"/><path fill="#494849" d="M274.28 199.3c2.01-.93 4.19-1.71 6.43-1.21 2.76.49 6.22.44 7.8 3.2l-2.77.5-4.35.09-6.67.44-.44-3.02z"/><path fill="#5597a9" d="M157.83 198.9l1.05.16 1.94.29 2.35.5 5.15 2.99-4.03.99-.68-.43-5.75-3.59-.03-.91z"/><path fill="#3c3d3e" d="M130.03 200.06c4.89.3 9.74 1.22 14.3 3.05-2.95.29-5.88.81-8.84 1.11l-2.25-1.4c-1.1-.89-2.16-1.83-3.21-2.76z"/><path fill="#212121" d="M157.86 199.81l5.75 3.59c.92 2.01 1.68 4.13 3.08 5.87 2.53 1.86 5.89 2.03 8.62 3.54 1.24.89 2.22 2.08 3.31 3.15-2.26 1.02-4.41 2.32-6.83 2.92-2.57.42-5.14-.38-7.6-1.07-3.16-1.53-6.36-2.98-9.42-4.69-3.5-2.03-5.51-5.9-9.12-7.76-3.58-.99-7.36-.67-11.04-1.04l.88-.1c2.96-.3 5.89-.82 8.84-1.11 2.26.78 4.46 1.77 6.53 2.96 2.6 3.19 5.24 6.45 9 8.33l-1.4-5.2c-.47-3.11-.57-6.25-.6-9.39z"/><path fill="#5a5a5c" d="M163.17 199.85c2.02.52 4.11.99 5.93 2.08.44 1.74.59 3.54.8 5.32l-5.61-3.42 4.03-.99-5.15-2.99z"/><path fill="#f5fdfe" d="M193.25 201.11l.35-1.37 3.14 1.53-1.77 6.44-2.8.75 1.08-7.35z"/><path fill="#676567" opacity=".67" d="M298.29 199.96l.75.21c.02 1.13-.55 1.8-1.72 1.98l-.29-.73.38-.95.88-.51z"/><path fill="#3b3c42" d="M331.96 207.65c1.79-4.24 6.48-5.65 9.89-8.23l2.16 1.21c-.98 1.91-1.53 4.53-3.75 5.38-3.06 1.24-6.13 2.51-8.73 4.58l.43-2.94z"/><path fill="#9d9a9f" d="M285.74 201.79l2.77-.5c2.64-.71 5.42-.79 7.5 1.31-3.47 1.39-7.12 2.3-10.85 2.56 1.73-.77 3.41-1.66 5.09-2.53l-4.51-.84z"/><path fill="#e7e4ea" d="M281.39 201.88l4.35-.09 4.51.84-5.09 2.53-5.13.32 1.36-3.6z"/><path fill="#666566" d="M116.95 203.25l8.04 3.51-5.77.67.16 1.67 7.66-.46-.07 3.09-.61.05-5.25.16-3.18 4.42c-.76-4.33-.81-8.74-.98-13.11z"/><path fill="#686973" d="M302.97 203.42c1.2.53 2.44.99 3.55 1.71.64 1.08 1.04 2.27 1.51 3.43 4.13.31 8.3.45 12.38 1.21-.78 1.18-1.19 2.73-2.41 3.55-1.35.43-2.78-.02-4.11-.26l-.3-2.59-4.03.5-.77-.08c-4.12-.23-8.16-1.63-12.3-1.27-3.98.84-7.85 2.21-11.93 2.55.32-1.51.6-3.03 1.12-4.49 2.72-1.68 6.06-1.77 9.17-1.94 2.81-.23 5.38 1.06 7.81 2.3l.31-4.62z"/><path fill="#6d6c6d" d="M268.8 208.25c3.61-.16 7.07-2.69 10.69-1.24.73 2.41 1.46 5.44 4.06 6.49 4.75.84 9.59-2.29 14.26-.39 1.07 1.38-.45 1.85-1.5 2.38-4.26-2.12-8.9-.55-13.21.51-1.28.29-2.56.55-3.82.89-1.69-1.01-3.37-2.87-5.53-2.27-4.03.88-7.57 3.19-10.91 5.51l-.39-2.95-10.41 5.05-3.6-.78.09-2.41 4.63-1.63-4.42-2.71c5.77-.93 11.3-2.9 16.41-5.73 1.21-.26 2.43-.5 3.65-.72z"/><path fill="#2e535d" opacity=".93" d="M215.65 207.32l2.62-1.2.62-.31c-1.16 1.96-2.54 3.78-4.06 5.48l-.53.56 1.35-4.53z"/><path fill="#62626a" opacity=".98" d="M328.5 207.7l3.46-.05-.43 2.94-2.48.65-.55-3.54z"/><path fill="#81818a" d="M325.44 210.71l3.06-3.01.55 3.54-3.61-.53z"/><path fill="#0f0f10" opacity=".59" d="M257.16 211.35c.06-1.56 1.76-2.24 3.12-2.05-.14 1.49-1.77 2.25-3.12 2.05z"/><path fill="#4a494b" d="M260.28 209.3l4.87-.33c-5.11 2.83-10.64 4.8-16.41 5.73l-.21 4.34-.09 2.41 3.6.78c-5.52 2.65-12.22 3.8-16.05 9.06l-.54.62a54.28 54.28 0 0 0-2.93-8.31c1.67-.64 3.29-1.38 4.93-2.09l5.02-2.08 3.37.56-2.12-4.63 3.51-2.39c2.08-.54 4.16-1.1 6.26-1.55l3.67-.07c1.35.2 2.98-.56 3.12-2.05z"/><path fill="#1f1f21" opacity=".53" d="M320.41 209.77l5.03.94c-2.95 1.23-5.74 2.91-8.85 3.69-2.03.06-4.03-.37-6.04-.63-1.82 1.09-3.8 1.94-5.95 2.08l4.28-2.15-.09-2.81.77.08 4.33 2.09c1.33.24 2.76.69 4.11.26 1.22-.82 1.63-2.37 2.41-3.55z"/><path fill="#272728" d="M243.06 211.34c2.2-1.06 4.74-.42 7.07-.29l-2.9 1.92-3.51 2.39-4.18 2.42-1.63.1.12-.89c1.39-2.1 2.88-4.27 5.03-5.65z"/><path fill="#46464b" d="M309.56 210.97l4.03-.5.3 2.59-4.33-2.09z"/><path fill="#f7ffff" d="M190.59 217.48c-.17-2.59.34-5.13 1.67-7.37l2.19 3.08-.24.77-3.62 3.52z"/><path fill="#38373c" opacity=".97" d="M214.3 211.85l.53-.56c-.18 2.27-.22 4.59-.79 6.81-1.81 1.78-4.41 2.34-6.79 2.91-5.82 1.19-11.77 1.48-17.66 2.1l.49-.66 2.13-1.27.69-.41c5.85-1.46 11.6-3.32 17.09-5.82 1.62-.75 3.11-1.78 4.31-3.1z"/><path fill="#636366" opacity=".96" d="M250.13 211.05l3.36.37-6.26 1.55 2.9-1.92z"/><path fill="#457685" d="M126.36 211.78l.61-.05c1.72.63 2.04 3.18.01 3.6-.36-1.17-.56-2.35-.62-3.55z"/><path fill="#6a6b74" d="M303.19 212.59c1.98-.34 3.89.36 5.69 1.11l-4.28 2.15-.92.36c.56-1.31.4-2.51-.49-3.62z"/><path fill="#87868f" opacity=".97" d="M302.47 212.72l.72-.13c.89 1.11 1.05 2.31.49 3.62l-.81.02-.76-.68-.12-2.08.48-.75z"/><path fill="#515157" d="M273.75 214.62c2.16-.6 3.84 1.26 5.53 2.27l-8.2 4.17c-2.53 1.07-5.33.96-8.01 1.11l-.23-2.04c3.34-2.32 6.88-4.63 10.91-5.51z"/><path fill="#d9d6dc" d="M283.1 216c4.31-1.06 8.95-2.63 13.21-.51-1.49.68-3.01 1.31-4.55 1.88-2.98.71-6.35 1.1-8.66-1.37z"/><path fill="#8a8b96" d="M248.53 219.04l.21-4.34 4.42 2.71-4.63 1.63z"/><path fill="#3a7382" opacity=".96" d="M171.79 218.88c2.42-.6 4.57-1.9 6.83-2.92l1.28.76c-3.02 2.57-6.62 4.74-10.75 4.35a48.89 48.89 0 0 1-2.87-1.26 30.42 30.42 0 0 1-2.09-2c2.46.69 5.03 1.49 7.6 1.07z"/><path fill="#4e4f58" d="M228.18 218.24c3.17-1.01 6.51-1.67 9.85-1.25l-.12.89c-1.98.97-3.85 2.14-5.71 3.34-2.76-.09-5.52.05-8.28.08l-1.61-.04-6.01-.46-1.48-.16c4.5-.54 9.02-1.03 13.36-2.4z"/><path fill="#626269" d="M239.54 217.78c1.43-.73 2.82-1.55 4.18-2.42l2.12 4.63-3.37-.56-2.93-1.65z"/><path fill="#2f2f30" d="M279.28 216.89l3.82-.89c2.31 2.47 5.68 2.08 8.66 1.37l1.54 1.32c-3.93.02-7.87-.11-11.79.16-3.57.25-6.57 2.43-9.94 3.39-2.83.77-5.74 1.21-8.66 1.4-2.52.27-4.7-1.26-7.03-1.91-2.33.77-4.15 2.5-6.19 3.8-4.12 2.84-8.96 4.32-13.7 5.76 3.83-5.26 10.53-6.41 16.05-9.06 3.5-1.62 6.93-3.38 10.41-5.05l.39 2.95.23 2.04c2.68-.15 5.48-.04 8.01-1.11 2.83-1.19 5.41-2.88 8.2-4.17z"/><path fill="#302f30" d="M179.9 216.72l7.65 3.74 1.08 1.1.07 1.62a28.73 28.73 0 0 0 1.33 3.07l3.4 5.25c3.37-2.68 7.53-3.82 11.8-3.76a103.84 103.84 0 0 0-1.17 3.38c-2.69.54-5.46.89-7.98 2.02-1.36.66-2.69 2-2.62 3.61.44 1.01 1.09 1.93 1.71 2.84l2.02 2.68c2.84-.56 5.69-1.14 8.51-1.84-1.69 1.84-4.29 2.16-6.58 2.77-4.27.89-9.03 2.02-13.13-.14-3.28-1.99-5.46-5.27-7.92-8.13l1.41.63c2.39 1.03 4.77 2.25 7.38 2.59 3.08-.83 4.18-4.06 5.3-6.67l-4.19-1.58 1.09-2.71c-4 2.68-8.35 4.79-12.96 6.2-.59-1.45-1.39-2.84-1.59-4.41-.3-1.87-.11-3.89-.94-5.63-1.33-1.01-2.9-1.62-4.42-2.28 4.13.39 7.73-1.78 10.75-4.35z"/><path fill="#8c8e9b" d="M232.2 221.22l5.71-3.34 1.63-.1 2.93 1.65-5.02 2.08-5.25-.29z"/><path fill="#e9ffff" d="M187.55 220.46l2.47-1.61 2.19 2.33-2.13 1.27-1.45-.89-1.08-1.1z"/><path fill="#1f1e1f" d="M166.28 219.81l2.87 1.26c1.52.66 3.09 1.27 4.42 2.28.83 1.74.64 3.76.94 5.63-3.53-2.27-5.76-5.9-8.23-9.17z"/><path fill="#63646f" d="M216.3 220.8l6.01.46c-.31 2.62-2.2 4.32-4.56 5.25-1.71 0-3.43-.08-5.14-.05l.87-1.95 2.82-3.71z"/><path fill="#2e2f34" opacity=".85" d="M222.31 221.26l1.61.04 2.37 4.09.06.93-8.6.19c2.36-.93 4.25-2.63 4.56-5.25z"/><path fill="#747884" d="M223.92 221.3l8.28-.08 5.25.29-4.93 2.09-.89.17-4.67.98-.67.64-2.37-4.09z"/><path fill="#97fbff" d="M188.63 221.56l1.45.89-.49.66-.89.07-.07-1.62z"/><path fill="#1c2527" opacity=".68" d="M197.27 227.85c5.49-.41 11.33-.42 16.21-3.34l-.87 1.95c-1.45.6-2.86 1.27-4.28 1.94l-.33 3.79-.05.82c-.54-1.81-1.15-3.59-1.75-5.37l-.97.1c-4.27-.06-8.43 1.08-11.8 3.76-1.16-1.73-2.35-3.45-3.4-5.25 2.11 1.48 4.72 1.83 7.24 1.6z"/><path fill="#545555" d="M226.96 224.75l4.67-.98 1.83 8.3-4.2 2.15c-.39-3.24-1.24-6.4-2.3-9.47z"/><path fill="#5c8795" d="M231.63 223.77l.89-.17a54.28 54.28 0 0 1 2.93 8.31l.24.88-1.99.06-.24-.78-1.83-8.3z"/><path fill="#5d9cad" d="M226.29 225.39l.67-.64c1.06 3.07 1.91 6.23 2.3 9.47l-.68.71-.29-.65-1.17-2.74c-.33-1.45-.56-2.92-.71-4.39l-.06-.83-.06-.93z"/><path fill="#3a393b" d="M212.61 226.46l5.14.05 8.6-.19.06.83c-5.42 3.69-12.31 3.26-18.41 5.04l.33-3.79c1.42-.67 2.83-1.34 4.28-1.94z"/><path fill="#5692a2" d="M176.1 233.39c4.61-1.41 8.96-3.52 12.96-6.2l-1.09 2.71-8.49 5.66-1.41-.63-.69-.32-1.28-1.22z"/><path fill="#696769" d="M226.41 227.15c.15 1.47.38 2.94.71 4.39-6.32 1.58-12.64 3.16-19.05 4.36l-.12-2.89.05-.82c6.1-1.78 12.99-1.35 18.41-5.04z"/><path fill="#828082" d="M205.23 227.74l.97-.1-.33 9.29c-3.6.72-7.16 1.65-10.7 2.66-.62-.91-1.27-1.83-1.71-2.84-.07-1.61 1.26-2.95 2.62-3.61 2.52-1.13 5.29-1.48 7.98-2.02a103.84 103.84 0 0 1 1.17-3.38z"/><path fill="#73c9df" d="M206.2 227.64l1.75 5.37.12 2.89.18 4.61-1.77-.3-.61-3.28c-.08-3.1.12-6.2.33-9.29z"/><path fill="#5e5c5e" d="M179.48 235.56l8.49-5.66 4.19 1.58c-1.12 2.61-2.22 5.84-5.3 6.67-2.61-.34-4.99-1.56-7.38-2.59z"/><path fill="#363536" d="M208.07 235.9c6.41-1.2 12.73-2.78 19.05-4.36a50.07 50.07 0 0 0 1.17 2.74c-6.89 1.35-13.45 3.91-20.04 6.23l-.18-4.61z"/><path fill="#2f3233" opacity=".85" d="M229.26 234.22l4.2-2.15.24.78.51 1.73-5.63.35.68-.71z"/><path fill="#5d5b5d" d="M195.17 239.59c3.54-1.01 7.1-1.94 10.7-2.66l.61 3.28-.78.22c-2.82.7-5.67 1.28-8.51 1.84l-2.02-2.68z"/></svg>