<svg xmlns="http://www.w3.org/2000/svg" width="512" height="512" viewBox="0 0 384 384" xmlns:v="https://vecta.io/nano"><path fill="#2e2d2e" d="M192.66 136.74a11.89 11.89 0 0 1 9.73.92c3.92 2.25 8.03 4.43 11.07 7.87 1.99 2.21 3.95 4.44 6.05 6.56l-1.42.45-.85.31c-3.02-2.01-5.84-4.29-8.54-6.72l.95-2.36.84-.81a93.86 93.86 0 0 1-3.38-.98c-2.34-.79-4.55-2.06-7.01-2.45-2.15.01-4.23.65-6.32 1.07l-5.11 1.06c1.19-1.73 2.13-3.81 3.99-4.92z"/><path fill="#525152" d="M193.78 140.6c2.09-.42 4.17-1.06 6.32-1.07 2.46.39 4.67 1.66 7.01 2.45l-6.59 5.2-3.61-3.64 2.15-.01-5.28-2.93z"/><path fill="#487f8e" opacity=".97" d="M188.67 141.66l5.11-1.06 5.28 2.93-2.15.01c-3.34-.02-6.66.36-9.93 1.02l1.69-2.9z"/><path fill="#212122" d="M186.98 144.56c3.27-.66 6.59-1.04 9.93-1.02l3.61 3.64 1.44 1.68c3.11 4.01 7.68 6.51 10.85 10.47-2.33-1.22-4.73-2.3-6.95-3.7-1.64-1.37-3.11-2.96-4.89-4.15-2.11-1.25-4.49-2.29-6.99-2.14-2.54.12-4.83 1.34-6.98 2.57.09-1.85.05-3.7.02-5.55l-.04-1.8z"/><path fill="#5ca6b9" d="M200.52 147.18l6.59-5.2 3.38.98-.84.81c-2.8 1.31-5.48 2.9-7.69 5.09l-1.44-1.68z"/><path fill="#363436" d="M201.96 148.86c2.21-2.19 4.89-3.78 7.69-5.09l-.95 2.36c2.7 2.43 5.52 4.71 8.54 6.72-1.51 1.94-2.58 4.15-3.54 6.4 2.29-1.62 4.23-3.78 4.39-6.71l1.42-.45c2.08-.53 4.28.03 5.88 1.45-2.3.88-5.04 1.18-6.79 3.05-1.51 2.13-1.6 4.87-2.11 7.34-1.18-1.57-2.37-3.14-3.68-4.6-3.17-3.96-7.74-6.46-10.85-10.47z"/><path fill="#151515" d="M183.83 157.91c1.08-3.86.67-8.18 3.19-11.55.03 1.85.07 3.7-.02 5.55l-.07.76c4.66-.6 9.33-1.35 14.04-1.19 1.78 1.19 3.25 2.78 4.89 4.15-.25 2.86-.38 5.73-.47 8.6 5.78.54 12.16.99 16.4 5.5l-3.99 4.68-1.68-.48-2.16-.66-.81-.16c-3.77-.74-7.59-1.05-11.41-1.36l5.15-1.49 1.19-2.21c-1.85-.08-3.7-.16-5.53-.35.14-2.71.51-5.48-.08-8.16-1.2-3.08-4.89-4.75-8.06-4.12-3.97.66-6.74 3.84-9.82 6.12-1.2.72-2.44 1.37-3.67 2.02 1.71.24 3.43.49 5.13.8-.22 2.52-.2 5.14-1.16 7.52-.83 1.79-2.92 2.42-4.72 2.69-3.91.58-7.73-.82-11.33-2.2 2.08-3.58 4.34-7.43 8.25-9.24 2.36-1.51 5.89-2.16 6.74-5.22z"/><path fill="#30616f" d="M187 151.91c2.15-1.23 4.44-2.45 6.98-2.57 2.5-.15 4.88.89 6.99 2.14-4.71-.16-9.38.59-14.04 1.19l.07-.76z"/><path fill="#4c808e" d="M217.24 152.85l.85-.31c-.16 2.93-2.1 5.09-4.39 6.71.96-2.25 2.03-4.46 3.54-6.4z"/><path fill="#516870" d="M218.6 156.59c1.75-1.87 4.49-2.17 6.79-3.05l-.77.76c-1.52 1.54-3.26 2.93-4.39 4.8-.65 1.61-.82 3.36-1.13 5.06l-2.61-.23c.51-2.47.6-5.21 2.11-7.34z"/><path fill="#141616" d="M224.62 154.3c2.72.37 5.49.34 8.22.02l-.56.34c-2.68 1.44-4.84 3.6-6.62 6.03l4.18 4.06 1.09.91-1.47 2.1-4.34-.47-1.72 2.1c2.84.86 5.74 1.55 8.72 1.71-2.43.43-4.88.67-7.33.85l.83 6.33-.65-.33-1.48-2.31c-.11-1.5-.15-3.01-.47-4.48-1.1-2.45-2.49-4.74-3.92-7 .31-1.7.48-3.45 1.13-5.06 1.13-1.87 2.87-3.26 4.39-4.8z"/><path fill="#2b2a2a" d="M194.41 155.42c3.17-.63 6.86 1.04 8.06 4.12.59 2.68.22 5.45.08 8.16l-3.03-.85c-.89-1.64-1.46-3.58-2.9-4.83-2.32-.16-4.58.45-6.85.77l-5.18-1.25c3.08-2.28 5.85-5.46 9.82-6.12z"/><path fill="#282828" d="M225.66 160.69c1.78-2.43 3.94-4.59 6.62-6.03l4.01 1.86c-2.02 2.84-4.15 5.61-6.45 8.23-1.43-1.31-2.8-2.69-4.18-4.06z"/><path fill="#3e3d3e" d="M229.84 164.75c2.3-2.62 4.43-5.39 6.45-8.23 1.57 1.48 3.32 2.89 4.28 4.88.96 2.04 1.1 4.33 1.43 6.52-3.79.18-7.92.18-11.07-2.26l-1.09-.91z"/><path fill="#5296a7" d="M180.92 163.56l3.67-2.02 5.18 1.25c3.22 1.42 6.39 2.98 9.75 4.06.99.32 2 .6 3.03.85 1.83.19 3.68.27 5.53.35l-1.19 2.21c-3-.34-6.01-.77-8.9-1.67-2.97-1.12-5.85-2.48-8.88-3.45-1.01-.3-2.03-.56-3.06-.78-1.7-.31-3.42-.56-5.13-.8z"/><path fill="#4f4e50" d="M189.77 162.79c2.27-.32 4.53-.93 6.85-.77 1.44 1.25 2.01 3.19 2.9 4.83-3.36-1.08-6.53-2.64-9.75-4.06z"/><path fill="#434147" d="M186.05 164.36l3.06.78c-.28 3.39-.31 6.8.05 10.19 3.77-.99 6.41-3.88 8.83-6.74 2.89.9 5.9 1.33 8.9 1.67l-5.15 1.49c3.82.31 7.64.62 11.41 1.36-5.27-.72-10.58.57-15.15 3.21 3.59 2.68 8 1.37 11.92.32a82.63 82.63 0 0 1 1.95 2.2c-.8 1.88-1.58 3.78-2.59 5.56-2.05 3.91-7.37 4.99-8.71 9.39-1.21 2.84.66 5.93 3.02 7.51 3.08 2.14 6.36 4 9.31 6.34-.48 1.59-1.02 3.15-1.56 4.72l-2.92 1.44.22 1.56 3.11 1.1.69.22c-2.94.43-5.87.9-8.76 1.57l-.07-2.28c-2.12.5-4.25 1-6.35 1.59-2.22-1.18-4.35-2.93-6.95-3.11-2.04 1.37-3.21 3.63-4.71 5.52l-.92.09c.17-2.62.51-5.26.14-7.87-5.09-1.62-10.55-1.31-15.76-2.34-5.25-1.38-10.98-2.64-15.13-6.31l-.21-1.87c2.83.15 5.67.11 8.5.26 4.79.23 9.75 1.12 14.44-.3 1.96-1.06 3.86-2.21 5.78-3.34l-1.7 3.41c3.19 2.29 7.09 2.79 10.92 2.8-1.3-2.62-3.12-5.3-2.74-8.36.32-3.72 1.69-7.23 2.93-10.71-2.91-.94-5.92-1.79-9.01-1.51-1.21.11-2.42.26-3.62.41-1.7-.47-3.38-1.01-5.05-1.55l-7.75-2.42c1.13 2.1 2.33 4.2 3.01 6.51l-.42 2.06c-1.99-2.76-3.72-5.7-5.84-8.37-3.57-.92-7.28-1.04-10.94-.96v-.52c1.37-.37 3.29-1.36 2.56-3.1 3.99-.97 8-1.99 12.13-2.05 1.25.14 1.89-.38 1.92-1.56 3.6 1.38 7.42 2.78 11.33 2.2 1.8-.27 3.89-.9 4.72-2.69.96-2.38.94-5 1.16-7.52z"/><path fill="#5a585a" d="M189.11 165.14c3.03.97 5.91 2.33 8.88 3.45-2.42 2.86-5.06 5.75-8.83 6.74-.36-3.39-.33-6.8-.05-10.19z"/><path fill="#232424" d="M225.12 167.29l4.34.47 3.34.23 1.36 3.13-2.04-.02c-2.98-.16-5.88-.85-8.72-1.71l1.72-2.1z"/><path fill="#275d69" d="M221.79 169.73l1.23 1.43c.32 1.47.36 2.98.47 4.48l-5.69-1.23 3.99-4.68z"/><path fill="#467e8d" opacity=".98" d="M168.13 172.04l.71.33c-.03 1.18-.67 1.7-1.92 1.56l-.2-.74.5-.83.91-.32z"/><path fill="#161516" opacity=".51" d="M144.41 174.24l5-.98 1.81 1.33-4.22.75 1.19 3.88-4.13.67.35-5.65z"/><path fill="#56575e" d="M198 176.32c4.57-2.64 9.88-3.93 15.15-3.21l.81.16-2.78.8-1.26 2.57c-3.92 1.05-8.33 2.36-11.92-.32z"/><path fill="#7db1bd" d="M213.96 173.27l2.16.66c1.47 2.74 3.41 5.26 5.99 7.05l-3.04.68c-1.17 2.01-2.93 3.51-5.33 3.66l-1.87-6.48-1.95-2.2 1.26-2.57 2.78-.8m-1.03 2.48l1.19 8.28 3.1-.11c.08-2.73-.43-5.43-1.18-8.04l-3.11-.13z"/><path fill="#404951" d="M216.12 173.93l1.68.48 5.69 1.23 1.48 2.31 3.18 5.21.46.66c-2.31-.57-4.51-1.53-6.5-2.84-2.58-1.79-4.52-4.31-5.99-7.05z"/><path fill="#3e3e40" d="M147 175.34l4.22-.75.95 1.94.06 2.55v.52l-3.92 3.94-.25-1.17-2.35 1.04c-2.77.63-6.25 1.24-6.99 4.53l1.5 2.13c2.17.35 4.27-.59 6.36-1.07 1.91 2.17 3.13 4.82 3.65 7.65l2.7-4.65 1.72-.09.18 5.03 4.15-1.14.88 2.64c-2.52.26-5.04.61-7.49 1.27l-4.33-1.4c.4-1.8-1.09-3.57-2.94-3.44-5.53-.97-11.12-1.53-16.74-1.65l.2-.57c.38-1.06.75-2.11 1.08-3.18.48.22 1.45.64 1.93.85l3.55 1.61-.33-1.4 2.87-.37-1.96-6.62c4.14-1.63 8.5-2.55 12.93-2.9l-.44-1.42-1.19-3.88z"/><path fill="#21acae" opacity=".78" d="M152.17 176.53l.75-.74 1.87.19c.73 1.74-1.19 2.73-2.56 3.1l-.06-2.55z"/><path d="M212.93 175.75l3.11.13c.75 2.61 1.26 5.31 1.18 8.04l-3.1.11-1.19-8.28zm1.89 15.28c.46-1.68 1.29-3.22 2.01-4.79l.24 9.05c-.77-1.39-2.07-2.63-2.25-4.26z" fill="#feffff"/><path fill="#3f3e43" opacity=".93" d="M224.97 177.95l.65.33c3.31 1.5 6.91 2.85 9.26 5.78 2.24 2.51 1.81 6.13 1.9 9.24l-1.06-.98c-1.37-1.63-2.53-3.44-3.9-5.07-1.18-1.41-2.46-2.72-3.67-4.09-1.17-1.68-2.13-3.47-3.18-5.21z"/><path fill="#191a1b" opacity=".82" d="M148.19 179.22l.44 1.42c-4.43.35-8.79 1.27-12.93 2.9l-2.9-1.37c3.61-1.37 7.45-1.81 11.26-2.28l4.13-.67z"/><path fill="#151615" d="M152.23 179.6c3.66-.08 7.37.04 10.94.96.41 2.54.49 5.24 1.72 7.56 1.35 2.08 3.86 2.89 5.95 4.01-.42-1.77-.86-3.53-1.41-5.26-.68-2.31-1.88-4.41-3.01-6.51l7.75 2.42c-.04 5.06-.59 10.12-.18 15.17-.09 1.77 1.58 2.62 2.67 3.68-4.69 1.42-9.65.53-14.44.3-3.36-.33-6.65-1.15-9.85-2.22 2.45-.66 4.97-1.01 7.49-1.27l.84-.11c.87-2.24 1.52-4.55 2.19-6.85l-8.24.43-1.72.09c-1.17-.82-2.44-1.6-3.27-2.79-.64-1.84-.95-3.77-1.35-5.67l3.92-3.94z"/><path fill="#56545c" d="M211.87 178.84l1.87 6.48c2.4-.15 4.16-1.65 5.33-3.66l3.04-.68c1.99 1.31 4.19 2.27 6.5 2.84l3.21 3.43 3.9 5.07-2.28 3.81 1.98 2.9c-2.87 2.06-5.72 4.16-8.22 6.65-1.17.81-.96 2.53-.25 3.58-3.29 1.16-6.56 2.38-9.74 3.84-.91-9.34 3.55-18.79.09-27.92l-2.89 1.31c-3.94 2.32-7.22 5.55-10.62 8.57 2.26 3.32 5.29 6.15 9.44 6.72-.04 1.96-.07 3.92-.33 5.86-2.95-2.34-6.23-4.2-9.31-6.34-2.36-1.58-4.23-4.67-3.02-7.51 1.34-4.4 6.66-5.48 8.71-9.39 1.01-1.78 1.79-3.68 2.59-5.56z"/><path fill="#4e808e" d="M163.17 180.56c2.12 2.67 3.85 5.61 5.84 8.37l.42-2.06c.55 1.73.99 3.49 1.41 5.26-2.09-1.12-4.6-1.93-5.95-4.01-1.23-2.32-1.31-5.02-1.72-7.56z"/><path fill="#4d585a" d="M128.99 183.23l3.81-1.06 2.9 1.37 1.96 6.62-2.87.37-1.45-5.07-1.77 4.86-1.93-.85c-.09-2.09-.37-4.17-.65-6.24z"/><path fill="#7c787b" d="M145.71 183.41l2.35-1.04.25 1.17c.4 1.9.71 3.83 1.35 5.67.83 1.19 2.1 1.97 3.27 2.79l-2.7 4.65c-.52-2.83-1.74-5.48-3.65-7.65l-.87-5.59z"/><path fill="#7d7a7c" d="M138.72 187.94c.74-3.29 4.22-3.9 6.99-4.53l.87 5.59c-2.09.48-4.19 1.42-6.36 1.07l-1.5-2.13z"/><path fill="#2c4850" d="M174.17 182.78l5.05 1.55-.68.37-3.24 1.94c1.14 1.51 2.81 2.83 3.29 4.72-.37 2.12-1.37 4.06-1.95 6.12l.02 4.15c-1.09-1.06-2.76-1.91-2.67-3.68-.41-5.05.14-10.11.18-15.17z"/><path fill="#343437" d="M182.84 183.92c3.09-.28 6.1.57 9.01 1.51-1.24 3.48-2.61 6.99-2.93 10.71-.38 3.06 1.44 5.74 2.74 8.36-3.83-.01-7.73-.51-10.92-2.8l5.4-1-1.3-2.99c-.59-1.11-1.24-2.19-1.88-3.27.87-2.4 1.82-4.78 2.52-7.24l.15-.73-2.79-2.55z"/><path fill="#587d8c" d="M228.15 183.16l3.67 4.09-3.21-3.43-.46-.66z"/><path fill="#50a2b5" opacity=".84" d="M126.38 187.18c.53-1.51 1.68-2.68 2.61-3.95l.65 6.24-1.08 3.18c-.82-1.77-2.07-3.47-2.18-5.47z"/><path fill="#3e818e" d="M179.22 184.33l3.62-.41 2.79 2.55-.15.73-6.94-2.5.68-.37z"/><path fill="#275f6a" d="M175.3 186.64l3.24-1.94 6.94 2.5c-.7 2.46-1.65 4.84-2.52 7.24l1.88 3.27-8.2-.23c.58-2.06 1.58-4 1.95-6.12-.48-1.89-2.15-3.21-3.29-4.72z"/><path fill="#5b7883" d="M133.34 185.46l1.45 5.07.33 1.4-3.55-1.61 1.77-4.86z"/><path fill="#6c6972" d="M203.79 195.06c3.4-3.02 6.68-6.25 10.62-8.57l-.87 4.11c-1.14 3-1.28 6.2-.28 9.27l-.03 1.91c-4.15-.57-7.18-3.4-9.44-6.72z"/><path fill="#cbfdff" d="M214.41 186.49l2.89-1.31-.47 1.06c-.72 1.57-1.55 3.11-2.01 4.79.18 1.63 1.48 2.87 2.25 4.26l.07 2.52-3.56 3.12-.24-1.99c.32-2.77.36-5.56.2-8.34l.87-4.11z"/><path fill="#91c9d2" d="M217.3 185.18c3.46 9.13-1 18.58-.09 27.92-1.51 1.57-3.41 2.65-5.46 3.36l-3.11-1.1-.22-1.56 2.92-1.44 1.56-4.72c.26-1.94.29-3.9.33-5.86l.03-1.91.08-.93.24 1.99.59 4.18 3.02.07-.05-7.37-.07-2.52-.24-9.05.47-1.06m-4.07 23.08l-1.08 7.11 2.83-.37c.68-2.22 1.12-4.51 1.45-6.8l-3.2.06z"/><path fill="#686567" d="M154.65 191.91l8.24-.43-2.19 6.85-.84.11-.88-2.64-4.15 1.14-.18-5.03z"/><path fill="#bfbfc4" d="M213.26 199.87c-1-3.07-.86-6.27.28-9.27.16 2.78.12 5.57-.2 8.34l-.08.93z"/><path fill="#4d95a7" opacity=".92" d="M145.1 194.87c1.85-.13 3.34 1.64 2.94 3.44a5.84 5.84 0 0 1-3.12-1.82l.18-1.62z"/><path fill="#0b0d0e" opacity=".36" d="M144.92 196.49a5.84 5.84 0 0 0 3.12 1.82l4.33 1.4c3.2 1.07 6.49 1.89 9.85 2.22-2.83-.15-5.67-.11-8.5-.26l-1.5-.2c-2.46-.37-4.96-.22-7.4.19 1.68 2.14 4.21 2.65 6.8 2.64-1.22.53-2.42 1.13-3.72 1.45-1.68-.41-3.2-1.25-4.74-1.97l1.76-7.29z"/><path fill="#367885" d="M176.64 197.48l8.2.23 1.3 2.99-5.4 1 1.7-3.41-5.78 3.34-.02-4.15z"/><path fill="#faffff" d="M213.58 200.93l3.56-3.12.05 7.37-3.02-.07-.59-4.18z"/><path fill="#393a3e" d="M235.42 199.03l1.24 5.9-5.87 5.75 6.65 2.63-.36 1.63-2.12.16-4.82.39-.78 3.31c-1.64 1.05-3.66 1.15-5.54 1.42-2.87-.06-5.71.33-8.52.87l-.16-1.33-.31-2.32-2.39-.76-.69-.22c2.05-.71 3.95-1.79 5.46-3.36 3.18-1.46 6.45-2.68 9.74-3.84 2.11-.16 2.41-3.2.25-3.58 2.5-2.49 5.35-4.59 8.22-6.65m-11.31 14.35l-.8 5.85c1.31-.3 2.8-.18 3.96-.97.32-1.23.51-2.48.68-3.73l-3.84-1.15z"/><path fill="#39373c" opacity=".93" d="M144.82 201.66c2.44-.41 4.94-.56 7.4-.19l-.6 2.83c-2.59.01-5.12-.5-6.8-2.64z"/><path fill="#2dcacd" opacity=".93" d="M151.62 204.3l.6-2.83 1.5.2.21 1.87-1.59 1.11-.72-.35z"/><path fill="#565655" d="M236.66 204.93l3.47 3.94 1.51 1.74-4.2 2.7-6.65-2.63 5.87-5.75z"/><path fill="#5a93a5" d="M227.2 205.68c2.16.38 1.86 3.42-.25 3.58-.71-1.05-.92-2.77.25-3.58z"/><path fill="#fcffff" d="M213.23 208.26l3.2-.06c-.33 2.29-.77 4.58-1.45 6.8l-2.83.37 1.08-7.11z"/><path fill="#47484e" d="M240.13 208.87c1.54-.32 3.09-.88 4.69-.74 2.13.58 4.01 1.8 5.92 2.88l-2.46.77 2.29 4.64c-2.8 2.16-5.99 3.71-9.34 4.83l-4.73-.66-2.08-3.42.54-2.07 2.12-.16.36-1.63 4.2-2.7-1.51-1.74m.63 6.47c2.25-.62 3.85-2.11 4.43-4.4-2.1.75-3.79 2.2-4.43 4.4z"/><path fill="#151516" d="M169.06 209.85c5.21 1.03 10.67.72 15.76 2.34.37 2.61.03 5.25-.14 7.87-1.88.12-3.76.18-5.64.26-5.14-.95-8.4-5.84-9.98-10.47z"/><path fill="#666567" d="M240.76 215.34c.64-2.2 2.33-3.65 4.43-4.4-.58 2.29-2.18 3.78-4.43 4.4z"/><path fill="#30333a" d="M248.28 211.78l2.46-.77c2.11 1.53 4.31 2.94 6.7 4 6.13 2.81 12.27 5.86 19.02 6.83l-1.06.45c-2.9 1.33-5.65 3-8.53 4.37-2.08 1.11-4.5.73-6.75.7 4.28 3.13 7.08 7.69 9.87 12.1-1.73 2.58-3.75 4.96-5.68 7.41l-1.57-1.56 2.35-4.25c-1.08-3.1-2.12-6.33-4.33-8.83-2.4-2.73-5.55-4.63-8.65-6.44-1.88-1-3.76-2.18-5.92-2.43-1.13 1.1-1.97 2.46-2.75 3.83-.85 1.54-1.66 3.11-2.48 4.67l3.05 1.11-1.85 3.78c-1.6-.34-3.19-.69-4.76-1.11a106.29 106.29 0 0 1-4.69-1.47l-.78-.26-1.06-6.32-2.76 1.45.4-5.7c-1.55-1.06-3.08-2.15-4.69-3.12 1.88-.27 3.9-.37 5.54-1.42.35-1.08.55-2.2.78-3.31l4.82-.39-.54 2.07 2.08 3.42c.24 3.28 2.05 6.03 4.3 8.31l.43-7.65c3.35-1.12 6.54-2.67 9.34-4.83l-2.29-4.64m-16.12 16c-1.25.46-.78 2.86.65 2.43 1.24-.47.77-2.87-.65-2.43m2.84-.9l-.11 3.09 4.57.94c-1.02-1.82-2.67-3.06-4.46-4.03z"/><path fill="#6c6a6b" d="M224.11 213.38l3.84 1.15-.68 3.73c-1.16.79-2.65.67-3.96.97l.8-5.85z"/><path fill="#545358" d="M257.44 215.01c.83-.77 1.7-1.5 2.61-2.19 5.32 1.29 10.35 3.57 15.48 5.45l.93 3.57c-6.75-.97-12.89-4.02-19.02-6.83z"/><path fill="#595759" d="M190.31 214.45c2.6.18 4.73 1.93 6.95 3.11-3.79 1.24-7.68 2.16-11.66 2.41 1.5-1.89 2.67-4.15 4.71-5.52z"/><path fill="#4f8d9e" d="M197.26 217.56l6.35-1.59.07 2.28-5.69 1.5c-4.96 1.34-10.02 2.4-15.15 2.79l-2.63-.75-1.8-.68.63-.79 5.64-.26.92-.09c3.98-.25 7.87-1.17 11.66-2.41z"/><path fill="#1a1a1b" d="M203.68 218.25c2.89-.67 5.82-1.14 8.76-1.57l2.39.76.31 2.32c-4.03.29-8.06.45-12.09.54-.7 2.88-1.33 5.79-1.89 8.7 2.63-.85 5.25-1.75 7.75-2.93l.19 2.67c-4.82 2.03-9.51 4.38-14.47 6.04-3.18-.31-6.37-.87-9.33-2.1-3.28-1.34-4.86-4.74-6.71-7.51l1.62-3.38 2.63.75c2.57 1.14 4.93 2.75 7.59 3.72 2.05.78 4.37-.37 5.78-1.87.81-1.46 1.25-3.08 1.78-4.64l5.69-1.5z"/><path fill="#181a19" d="M215.3 221.09c2.81-.54 5.65-.93 8.52-.87l4.69 3.12-.4 5.7 2.76-1.45 1.06 6.32c-4.13-.3-8.72-1.87-12.48.63-1.91-3.72-3.62-7.63-3.96-11.85l-.19-1.6z"/><path fill="#424142" d="M182.84 222.54c5.13-.39 10.19-1.45 15.15-2.79-.53 1.56-.97 3.18-1.78 4.64-1.41 1.5-3.73 2.65-5.78 1.87-2.66-.97-5.02-2.58-7.59-3.72z"/><path fill="#737374" d="M236.5 220.59l4.73.66-.43 7.65c-2.25-2.28-4.06-5.03-4.3-8.31z"/><path fill="#444748" opacity=".96" d="M209.63 225.7l4.37-2.24c-.34 1.88-.82 3.89-.19 5.77.98 2.3 3.28 3.58 5.2 5.01l-.81.62-4.09.01c-1.65-2.98-3.12-6.05-4.48-9.17z"/><path fill="#638c9b" d="M214 223.46l1.49-.77c.34 4.22 2.05 8.13 3.96 11.85l-.44-.3c-1.92-1.43-4.22-2.71-5.2-5.01-.63-1.88-.15-3.89.19-5.77z"/><path fill="#404348" d="M246.19 223.36c2.16.25 4.04 1.43 5.92 2.43 3.1 1.81 6.25 3.71 8.65 6.44 2.21 2.5 3.25 5.73 4.33 8.83-1.44-.85-2.88-1.7-4.25-2.65l-.45-.6-1.19-1.59.69-2.28c-3.25-1.43-6.58-2.69-9.92-3.89-2.2-.9-4.36-1.9-6.53-2.86.78-1.37 1.62-2.73 2.75-3.83z"/><path fill="#5b5b61" d="M266.87 226.66l8.53-4.37c2.64.59 4.98 2.03 6.75 4.05-3.57-.56-7.2-1.22-10.8-.58-1.09 1.11-2.21 2.23-2.92 3.62.45 3.37 1.95 6.61 1.56 10.08-2.79-4.41-5.59-8.97-9.87-12.1 2.25.03 4.67.41 6.75-.7z"/><path fill="#457d8d" d="M177.52 226.64l1.07-1.47c1.85 2.77 3.43 6.17 6.71 7.51 2.96 1.23 6.15 1.79 9.33 2.1.32 1.84.66 3.68 1.17 5.48.96 1.17 1.99 2.29 3.02 3.41l.49.53-2.15.12-2.04.16c-1.03-1.89-2.04-3.79-2.9-5.75l-.91-2.24c-2.93-.94-6.08-1.46-8.7-3.16-2.19-1.8-3.5-4.39-5.09-6.69z"/><path fill="#2a2b31" d="M271.35 225.76c3.6-.64 7.23.02 10.8.58 2.29.37 4.61.14 6.9-.05l-.54.38-2.48 1.76c1.99.96 3.97 1.91 6.02 2.73 3.26 1.29 6.84 1.02 10.27 1.39-.84.56-1.67 1.13-2.48 1.71l6.49 1.96c-.81-1.17-1.62-2.33-2.48-3.46l2.26.84c.59 1.47 1.08 3.01 1.96 4.35 2.54.84 5.3-.05 7.92.15 1.84-.11 3.34 1.07 4.89 1.87l-5.53-1.21 3.21 3.79c-1.67 1.79-3.48 3.5-4.7 5.65-.28 2.59.55 5.13 1.01 7.65-4.98-1.78-8.38-6.22-13.29-8.18.07 2.73.48 5.46 1.32 8.06-1.52-.59-3.03-1.19-4.57-1.7-3.28.79-5.42 3.48-7.43 5.97l-1.17-2.81 1.55-2.46-3.89-6.63 2.03-.69c3.64 1.26 7.34 2.37 11.08 3.31-1.34-1.97-2.71-3.9-4.14-5.8 2.78.71 5.58 1.73 8.49 1.62 1.35-.42 2.43-1.42 3.6-2.19-5.97-3.97-13.03-5.84-19.07-9.7-4.2-2.66-9.34-2.52-13.94-4.03-2.23-.63-2.94-3.12-4.09-4.86z"/><path fill="#4e8392" d="M208.91 226.07l.72-.37c1.36 3.12 2.83 6.19 4.48 9.17-1.49-.52-2.95-1.11-4.4-1.69l-.61-4.44-.19-2.67z"/><path fill="#37383d" d="M268.43 229.38c.71-1.39 1.83-2.51 2.92-3.62 1.15 1.74 1.86 4.23 4.09 4.86 4.6 1.51 9.74 1.37 13.94 4.03 6.04 3.86 13.1 5.73 19.07 9.7-1.17.77-2.25 1.77-3.6 2.19-2.91.11-5.71-.91-8.49-1.62 1.43 1.9 2.8 3.83 4.14 5.8-3.74-.94-7.44-2.05-11.08-3.31l-2.03.69c-1.44.51-2.88 1.04-4.26 1.68-1.62.66-1.99 2.66-2.1 4.21-1.14.02-2.28.03-3.42-.01 1.18-2.37 2.31-4.76 3.43-7.15l-2.86 1.54-4.15-4.28-3.92 2.7.49-4.06-4.14 6.12 5.32 1.8c.41.11 1.21.35 1.62.47l-2.59.6c-4.95-.74-9.33-3.32-13.62-5.75l3.54-2.5.36.89 1.65.95 1.57 1.56c1.93-2.45 3.95-4.83 5.68-7.41.39-3.47-1.11-6.71-1.56-10.08z"/><path fill="#232223" d="M174.15 237.25c.89-3.61 1.41-7.38 3.37-10.61 1.59 2.3 2.9 4.89 5.09 6.69 2.62 1.7 5.77 2.22 8.7 3.16l.91 2.24-4.17 3.63c-3.12-.08-6.42.39-9.4-.76-1.76-1.16-3.08-2.84-4.5-4.35z"/><path fill="#626064" d="M232.16 227.78c1.42-.44 1.89 1.96.65 2.43-1.43.43-1.9-1.97-.65-2.43z"/><path fill="#5e626d" d="M235 226.88c1.79.97 3.44 2.21 4.46 4.03l-4.57-.94.11-3.09z"/><path fill="#3e3e43" opacity=".94" d="M286.03 228.43l2.48-1.76c1.84.96 3.57 2.19 3.54 4.49l-6.02-2.73z"/><path fill="#52585f" d="M240.96 231.86l2.48-4.67 6.53 2.86c1.59 2.03 3.77 3.42 5.96 4.71l.09.47c-4.06-.45-8.16-.86-12.01-2.26l-3.05-1.11z"/><path fill="#4a484a" d="M194.63 234.78c4.96-1.66 9.65-4.01 14.47-6.04.16 1.48.39 2.96.61 4.44-4.54 2.55-9.13 5.02-13.91 7.08-.51-1.8-.85-3.64-1.17-5.48z"/><path fill="#76777d" d="M249.97 230.05c3.34 1.2 6.67 2.46 9.92 3.89l-.69 2.28-2.92 2.48-.26-3.47-.09-.47c-2.19-1.29-4.37-2.68-5.96-4.71z"/><path fill="#302f30" d="M195.8 240.26c4.78-2.06 9.37-4.53 13.91-7.08 1.45.58 2.91 1.17 4.4 1.69 1.36.07 2.72.05 4.09-.01l.91-.02c-3.45.81-7.18 1.04-10.19 3.1-3.26 2.09-6.54 4.16-10.1 5.73-1.03-1.12-2.06-2.24-3.02-3.41z"/><path fill="#3b3d43" d="M244.01 232.97c3.85 1.4 7.95 1.81 12.01 2.26.12 1.15.18 2.3.26 3.47-2.87 2.2-6.15 3.77-9.37 5.39l1.43 2.21c2.55.11 5.1.26 7.64.48l-1.5 3.34c-3.4-.83-6.61-2.26-9.7-3.89-.06-3.33-.68-6.69-2.62-9.48l1.85-3.78z"/><path fill="#4c4c50" opacity=".96" d="M299.84 234.26l2.48-1.71 1.53.21 2.48 3.46-6.49-1.96z"/><path fill="#3f3e3f" opacity=".93" d="M232.71 234.17l4.69 1.47c1.69 2.79 3.03 5.78 4.32 8.78-4.63-1.61-6.29-6.64-9.01-10.25z"/><path fill="#222225" d="M237.4 235.64l4.76 1.11c1.94 2.79 2.56 6.15 2.62 9.48-1.04-.56-2.1-1.1-3.06-1.81-1.29-3-2.63-5.99-4.32-8.78z"/><path fill="#505259" d="M256.28 238.7l2.92-2.48 1.19 1.59-3.39 6.53c2.05-1.41 3.75-3.32 3.84-5.93l4.25 2.65-2.35 4.25.29-1.67-.64-.69-1.66.52-3.54 2.5-1.21.81-7.64-.48-1.43-2.21c3.22-1.62 6.5-3.19 9.37-5.39z"/><path fill="#63b5c9" d="M175.02 241.13c-.37-1.28-.6-2.59-.87-3.88 1.42 1.51 2.74 3.19 4.5 4.35 2.98 1.15 6.28.68 9.4.76l-2.37 2.22c-3.88.28-7.98-.37-10.66-3.45z"/><path fill="#777984" d="M260.39 237.81l.45.6c-.09 2.61-1.79 4.52-3.84 5.93l3.39-6.53z"/><path fill="#606062" d="M188.05 242.36l4.17-3.63c.86 1.96 1.87 3.86 2.9 5.75-2.44.59-4.79 1.47-7.13 2.33l-2.31-2.23 2.37-2.22z"/><path fill="#4b4a4f" d="M315.35 238.76l5.53 1.21 3.38 5.91-4.46 1.28-2.86.72.12 2.79.31 4.82-2.5.36c-.46-2.52-1.29-5.06-1.01-7.65 1.22-2.15 3.03-3.86 4.7-5.65l-3.21-3.79z"/><path fill="#3b3a3b" d="M175.02 241.13c2.68 3.08 6.78 3.73 10.66 3.45l2.31 2.23c2.34-.86 4.69-1.74 7.13-2.33l2.04-.16a37.55 37.55 0 0 1-2.26 1.92c-5.83 2.01-12.23 3.1-18.27 1.33-.5-2.16-1.05-4.3-1.61-6.44z"/><path fill="#9c9a9e" d="M260.73 243.47l1.66-.52.64.69-.29 1.67-1.65-.95-.36-.89z"/><path fill="#6b6f80" d="M266.46 248.85l4.14-6.12-.49 4.06 3.92-2.7-2.25 6.56-5.32-1.8z"/><path fill="#57575b" d="M274.03 244.09l4.15 4.28c-1.51 1.04-2.95 2.32-4.78 2.75l-1.62-.47 2.25-6.56m.25 5.09v.82l.72.41.71-.41v-.83l-.72-.41-.71.42z"/><path fill="#161516" opacity=".68" d="M176.63 247.57c6.04 1.77 12.44.68 18.27-1.33-3.87 2.77-8.57 5.23-13.47 4.24-1.95-.27-3.32-1.78-4.8-2.91z"/><path fill="#444449" d="M319.8 247.16l4.46-1.28c2.2 1.71 4.65 3.29 6.18 5.68 2.48 6.53 1.19 14.71-4.24 19.41-1.65-1.03-3.31-2.02-4.99-2.98l-.65-.38c-.95-3.22-2.43-6.25-4.29-9.04l-1.38 5.31c-2.96-3.63-6.64-6.7-11.28-7.88l-.71-.27c-.84-2.6-1.25-5.33-1.32-8.06 4.91 1.96 8.31 6.4 13.29 8.18l2.5-.36-.31-4.82 1.85-.68.89-2.83m-14.37 3.99c-.47 1.4.01 1.88 1.42 1.45.46-1.4-.02-1.88-1.42-1.45m14.29 2.8l.7 3.38c1.31-1.12 2.33-2.49 2.85-4.14l-3.55.76m5.4 5.89c-1.65.45-.73 3.07.84 2.39 1.64-.46.73-3.08-.84-2.39z"/><path fill="#2a2b30" d="M278.18 248.37l2.86-1.54-3.43 7.15c-1.85-.35-3.67-.84-5.44-1.44l-1.36-.82 2.59-.6c1.83-.43 3.27-1.71 4.78-2.75z"/><path fill="#9d979c" d="M316.94 247.88l2.86-.72-.89 2.83-1.85.68-.12-2.79z"/><path fill="#4d4f59" opacity=".97" d="M283.13 249.78c1.38-.64 2.82-1.17 4.26-1.68l3.89 6.63-1.55 2.46.31-1.73-.68-.57-.85.15-.49 1.66-1.85-1.04c.78-1.97 1.26-4.04 1.58-6.12-1.85 1.81-3.19 4.05-3.26 6.69-2.36.2-4.73-.03-7.06-.35-2.2-.25-4.09-1.48-5.26-3.34 1.77.6 3.59 1.09 5.44 1.44l3.42.01c2.27.27 3.29-2.55 2.1-4.21z"/><path fill="#a5a3a4" d="M274.28 249.18l.71-.42.72.41v.83l-.71.41-.72-.41v-.82z"/><path fill="#707076" d="M283.13 249.78c1.19 1.66.17 4.48-2.1 4.21.11-1.55.48-3.55 2.1-4.21z"/><path fill="#7e7e86" d="M287.75 249.54c-.32 2.08-.8 4.15-1.58 6.12l-1.68.57c.07-2.64 1.41-4.88 3.26-6.69z"/><path fill="#6f6e77" d="M305.43 251.15c1.4-.43 1.88.05 1.42 1.45-1.41.43-1.89-.05-1.42-1.45z"/><path fill="#817a81" d="M319.72 253.95l3.55-.76c-.52 1.65-1.54 3.02-2.85 4.14l-.7-3.38z"/><path fill="#434349" d="M290.9 260c2.01-2.49 4.15-5.18 7.43-5.97l-.18.76-2 3.95-2.29 3.28 4.07 1.18 3.81-2.6.01 1.5.43 1.68.91.31 1.44-1.04 5.64 1.37 5.52 2.89-2.15 3.54c-2.89-.22-5.91-.31-8.47-1.87l6.41-.4c-1.1-.97-2.16-2-3.39-2.78-2.01-.72-3.83.85-5.58 1.59l-.56.29c-1.83-1.49-3.61-3.24-5.99-3.77-3.2-.82-6.57-1.52-9.12-3.79-2.65-2.38-6.2-3-9.59-3.61l.18-.63c2.33.32 4.7.55 7.06.35.42-.15 1.26-.43 1.68-.57l1.85 1.04 1.71.49 1.17 2.81z"/><path fill="#555459" d="M298.33 254.03l4.57 1.7.71.27c1.41 3.33 3.75 6.16 6.56 8.42-1.86-.55-3.76-.94-5.64-1.37l-2.78-.95-.01-1.5-.01-3.86c-1.41 1.62-2.81 3.24-4.13 4.93-.1-.36-.29-1.09-.38-1.46.27-1.82.59-3.62.93-5.42l.18-.76z"/><path fill="#919095" d="M288.51 255.04l.85-.15.68.57-.31 1.73-1.71-.49.49-1.66z"/><path fill="#76757a" d="M298.15 254.79l-.93 5.42-1.07-1.47 2-3.95z"/><path fill="#28292e" d="M303.61 256c4.64 1.18 8.32 4.25 11.28 7.88 1.76 1.43 3.71 2.6 5.67 3.73l.65.38c-1.85-.17-3.72-.2-5.52-.68-1.88-.88-3.7-1.9-5.52-2.89-2.81-2.26-5.15-5.09-6.56-8.42z"/><path fill="#858591" d="M297.6 261.67l4.13-4.93.01 3.86-3.81 2.6-.33-1.53z"/><path fill="#4d5679" d="M293.86 262.02l2.29-3.28 1.07 1.47.38 1.46.33 1.53-4.07-1.18z"/><path fill="#616065" d="M316.27 258.57c1.86 2.79 3.34 5.82 4.29 9.04-1.96-1.13-3.91-2.3-5.67-3.73l1.38-5.31z"/><path fill="#5f5d61" d="M325.12 259.84c1.57-.69 2.48 1.93.84 2.39-1.57.68-2.49-1.94-.84-2.39z"/><path fill="#a9a5aa" d="M301.75 262.1l2.78.95-1.44 1.04-.91-.31-.43-1.68z"/><path fill="#56555c" d="M302.51 267.39c1.75-.74 3.57-2.31 5.58-1.59 1.23.78 2.29 1.81 3.39 2.78l-6.41.4-2.56-1.59z"/></svg>