<svg xmlns="http://www.w3.org/2000/svg" width="512" height="512" viewBox="0 0 384 384" xmlns:v="https://vecta.io/nano"><path fill="#393839" d="M185.25 135.2c3.12-.27 6.44-1.03 9.43.26 3.61 1.53 6.83 3.81 10.23 5.75-1.54-.33-3.07-.67-4.57-1.1-1.85-.62-3.62-1.52-5.56-1.84-2.03-.08-3.98.64-5.93 1.07-2.09.53-4.2 1-6.31 1.45l2.71-5.59z"/><path d="M188.85 139.34c1.95-.43 3.9-1.15 5.93-1.07 1.94.32 3.71 1.22 5.56 1.84l-3.6 7.72-3.21-4.91c-1.49-1.28-3.1-2.41-4.68-3.58zm4.71 101.81l3.6-5.22 2.66 7.19c-1.59 1.02-3.1 2.36-4.98 2.81-2.07-.09-4.03-.87-6.01-1.43l4.73-3.35z" fill="#585759"/><path fill="#467c8b" opacity=".95" d="M182.54 140.79l6.31-1.45 4.68 3.58c-2.69-.29-5.42-.78-8.12-.35-2.1.52-3.5 2.34-4.96 3.8l-.48.59 2.57-6.17z"/><path fill="#60a9bb" d="M200.34 140.11l4.57 1.1.93.19-.62.33-3.23 1.83c-1.85 1.3-3.55 2.8-5.25 4.27l3.6-7.72z"/><path fill="#212122" d="M185.41 142.57c2.7-.43 5.43.06 8.12.35l3.21 4.91.43.59c-3.66.43-7.53.29-10.98 1.75-1.92 1.36-3.02 3.53-4.37 5.4-.19.26-.56.79-.75 1.06-.03-3.43-.26-6.85-.62-10.26 1.46-1.46 2.86-3.28 4.96-3.8z"/><path fill="#282829" d="M201.99 143.56l3.23-1.83c3.78 2.66 7.42 5.53 11.33 8.02l-.36.65-2.46 1.4-11.74-8.24z"/><path fill="#3f3d3f" d="M196.74 147.83l5.25-4.27c3.87 2.81 7.82 5.5 11.74 8.24-.69 2.17-1.36 4.37-1.65 6.63l-.56-.41c-3.57-2.8-7.34-5.33-11.42-7.34-1.01-.7-1.99-1.46-2.93-2.26l-.43-.59z"/><path fill="#181818" d="M179.97 146.96l.48-.59c.36 3.41.59 6.83.62 10.26l.75-1.06c5.03-4.3 11.8-5.87 18.28-4.89 4.08 2.01 7.85 4.54 11.42 7.34-2.8-.59-5.59-1.27-8.37-1.92l1.1 7.55c5.88.71 12.4.68 16.99 5.01l-1.61 1.8-4.41.1-3.35-.57c-1.85-.48-3.67-1.06-5.5-1.62-2.03-.75-4.02-1.57-6.07-2.25-.47-2.2-.87-4.46-1.87-6.5-.93-2.01-3.43-2.52-5.44-2.46-3.17.43-5.75 2.52-8.51 3.98-1.51.83-3.06 1.58-4.6 2.34l4.51.36c.12 2.16.41 4.35.03 6.5-.36 1.81-2.21 2.73-3.86 3.05-3.88.78-7.86.54-11.8.75.95-2.09 1.85-4.26 3.33-6.04 2.33-2.83 5.63-4.64 8.09-7.35 1.04-4.56-1.27-9.22-.21-13.79z"/><path fill="#2f5d6a" d="M186.19 150.17c3.45-1.46 7.32-1.32 10.98-1.75.94.8 1.92 1.56 2.93 2.26-6.48-.98-13.25.59-18.28 4.89 1.35-1.87 2.45-4.04 4.37-5.4z"/><path fill="#464a4d" d="M216.55 149.75l1.36.46 4 1.3c-1.74.98-3.71 1.84-4.86 3.54-.87 2.13-1.12 4.43-1.61 6.66l-.21.8-3-2.56c1.49-3.11 2.66-6.35 3.96-9.55l.36-.65z"/><path d="M217.91 150.21c2.53.48 4.96 1.31 7.41 2.1 2.44.83 5.03.18 7.52-.09l-.52.42c-2.83 2.11-4.98 4.91-6.94 7.81l4.81 2.62c-.8.56-1.58 1.14-2.42 1.63l-5.45 2.85c-2.34-1.72-4.71-3.39-7.09-5.04l.21-.8c2.48-3.28 5.03-6.52 7.24-10l-.77-.2c-1.35-.39-2.67-.85-4-1.3zm-19.7 62.08c4.38 1.32 8.97 2.24 13.57 1.63 1.84-.11 3.68-.16 5.53-.19.62 1.08 1.24 2.17 1.93 3.23 1.72 1.97 3.78 3.6 5.9 5.14 1.44 2.23 2.61 4.62 3.79 7l1.28 2.77c-1.64-.26-3.27-.49-4.91-.7-3.34 2.02-7.16 2.95-10.7 4.51-3.59 1.98-6.45 5.01-9.61 7.57l-2.89-2.49c4.04-2.74 8.4-4.95 12.56-7.49a34.44 34.44 0 0 0 2.03-1.98l-.07-1.27 6.03 2.47c-2.51-3.28-5.06-6.55-7.21-10.1l-.31-.71 3.35-3.36c-4.56.68-9.33.77-13.61 2.62-1.2 2.16-1.44 4.68-1.94 7.06 2.86-.72 5.71-1.45 8.47-2.5-3.98 4.92-9.87 7.54-15.92 8.88-4.71-1.34-9.5-2.81-13.44-5.85.29 1.28.58 2.57.81 3.87-.37 2.12-1.03 4.17-1.72 6.2-1.28-5.63-.42-11.39-.37-17.08l1.91.48c3.02 2.48 5.66 5.81 9.59 6.86 2.83.64 6.54.09 7.97-2.77 1.08-2.59.79-5.47.85-8.21 1.66-.32 3.33-.53 5.01-.76l-1.34-2.32c-1.63.34-3.26.68-4.87 1.09l-1.67-3.6z" fill="#161717"/><path fill="#4e8190" d="M213.73 151.8l2.46-1.4c-1.3 3.2-2.47 6.44-3.96 9.55l-.15-1.52c.29-2.26.96-4.46 1.65-6.63z"/><path fill="#526972" d="M217.05 155.05c1.15-1.7 3.12-2.56 4.86-3.54l.77.2c-2.21 3.48-4.76 6.72-7.24 10 .49-2.23.74-4.53 1.61-6.66z"/><path fill="#3c3b3c" d="M225.38 160.45c1.96-2.9 4.11-5.7 6.94-7.81l5.62 3.31c-.39 3.48-.7 6.96-1 10.45l-6.75-3.33-4.81-2.62z"/><path fill="#1f201f" d="M237.94 155.95c2.34 3.16 3.32 6.98 3.08 10.89l-4.08-.44 1-10.45z"/><path fill="#3e3d3e" d="M184.48 161.14c2.76-1.46 5.34-3.55 8.51-3.98 2.01-.06 4.51.45 5.44 2.46 1 2.04 1.4 4.3 1.87 6.5-5.28-1.64-10.64-3.02-15.82-4.98z"/><path fill="#5398aa" d="M179.88 163.48l4.6-2.34c5.18 1.96 10.54 3.34 15.82 4.98 2.05.68 4.04 1.5 6.07 2.25-3.03-.21-6.07-.29-9.05-.88-3.21-1.08-6.35-2.36-9.66-3.13-1.09-.21-2.18-.38-3.27-.52l-4.51-.36z"/><path fill="#434146" d="M184.39 163.84l3.27.52c-.02 2.3-.21 4.65.29 6.93.61.96 1.75 1.41 2.84 1.55 2.5-1.34 4.48-3.44 6.53-5.35 2.98.59 6.02.67 9.05.88l5.5 1.62c-5.1-.36-10.05 1.23-14.36 3.89 4.23.62 8.49.99 12.76 1.25l-6.86 4.78 1.44 1.5c-2.45 2.86-5.19 5.75-6.13 9.51-.61 2.31-.45 5.1 1.37 6.85 2.49 2.35 5.87 3.48 8.4 5.78 1.57 1.93 2.12 4.46 3.04 6.73l-7.14.05c2.74.97 5.44 2.03 8.11 3.17l-.72.42c-4.6.61-9.19-.31-13.57-1.63l1.67 3.6c-4.94 1.41-9.78 3.15-14.8 4.25l-.33-8.9c-5.25-.6-10.53-.92-15.79-1.34l-.84-.12c-4.96-1.05-9.73-2.86-14.25-5.15 3.99-1.97 8.43-1.91 12.76-1.71l2.01-.08c5.05-.37 10.01-1.4 14.95-2.5l.27.63c2.1.29 4.21.45 6.31.71-.84-2.92-1.89-5.91-1.46-8.99.42-3.32 1.4-6.53 2.24-9.76-5.9-1.21-11.93-1.56-17.93-1.38-1.27 0-2.53-.01-3.78-.03l-2.68-.1-11.63-.49-.37-3.18 2.55-.62c3.83-1.18 7.58-2.91 11.65-2.99 3.94-.21 7.92.03 11.8-.75 1.65-.32 3.5-1.24 3.86-3.05.38-2.15.09-4.34-.03-6.5z"/><path fill="#5a585a" d="M187.66 164.36c3.31.77 6.45 2.05 9.66 3.13-2.05 1.91-4.03 4.01-6.53 5.35-1.09-.14-2.23-.59-2.84-1.55-.5-2.28-.31-4.63-.29-6.93z"/><path fill="#323233" d="M222.32 167.55l5.45-2.85c2.68.31 4.96 1.82 7.17 3.26-2.26.66-4.5 1.58-6.88 1.56-2.04-.23-3.86-1.26-5.74-1.97z"/><path fill="#55535b" d="M197.51 173.88c4.31-2.66 9.26-4.25 14.36-3.89 1.11.21 2.23.39 3.35.57l-2.97.44-3.1.49 5.24 8.15 2.51.41c1.35.2 2.72.35 4.08.5-.86 2.56-1.76 5.1-2.46 7.71-.2-2.23-.51-4.45-.81-6.66-1.11.3-2.21.63-3.3.97-4.36 2.73-7.83 6.59-11.23 10.38 3.04 2.35 6.4 4.27 10.03 5.53 1.13 4.03.11 8.13-1.68 11.8-.92-2.27-1.47-4.8-3.04-6.73-2.53-2.3-5.91-3.43-8.4-5.78-1.82-1.75-1.98-4.54-1.37-6.85.94-3.76 3.68-6.65 6.13-9.51l-1.44-1.5 6.86-4.78c-4.27-.26-8.53-.63-12.76-1.25z"/><path fill="#3e4d55" d="M219.63 170.46c1.93-.37 4.31.29 4.04 2.73l.15 3.06-6.57-2.38c-1.72-.87-3.37-1.87-5-2.87l2.97-.44 4.41-.1z"/><path fill="#fcffff" d="M209.15 171.49l3.1-.49 5 2.87-.35 6.18-2.51-.41-5.24-8.15z"/><path fill="#2c2c30" opacity=".76" d="M223.67 173.19c4.24 2.25 8.62 4.64 11.69 8.42 1.56 1.66 1.29 4.04.92 6.09-.33-3.02-2.06-5.69-4.95-6.8l-4.29-2.12c-1.06-.86-2.12-1.73-3.22-2.53l-.15-3.06z"/><path fill="#4f4e55" d="M217.25 173.87l6.57 2.38 3.22 2.53 3.45 5.13.84-3.01c2.89 1.11 4.62 3.78 4.95 6.8l.04 1.86c-3.95-2.8-7.99-5.48-12.2-7.89.5 2.53.75 5.55 3.1 7.13 1.87 1.56 4.45 1.4 6.72 1.19.01 1.36.01 2.73-.05 4.09-2.22.05-4.52.31-6.51 1.36-2.21 1.41-3.81 3.54-5.54 5.48l-2.26-3.73c-.64 1.14-1.29 2.29-1.88 3.47.41-4.13.63-8.26.82-12.4.7-2.61 1.6-5.15 2.46-7.71l-4.08-.5.35-6.18z"/><path fill="#141517" opacity=".5" d="M145.41 176.43c3.91-.36 7.8.48 11.7.7l-2.55.62c-1.26.19-2.52.35-3.79.5l-2.75.34c-1.53 1.86-3.18 3.71-5.36 4.83l1.15-1.76c.16-1.79-.54-4.38 1.6-5.23z"/><path fill="#3c3b3e" d="M148.02 178.59l2.75-.34 2.41 2.53 1.73 1.87-2.19.99c-1.96.96-4.06 1.8-5.63 3.36-1.25 2.75-.89 6-.05 8.82.71 2.35 3.27 3.24 5.4 3.89l1.09-.32 2.11-4.07-1.84 7.6-2.9 3.1c-1.16 0-2.33 0-3.49-.01l-.49-5.91-4.24-.58c.02-3.7-.11-7.41-.61-11.07l2.4 1.11-2.46-5.77.65-.37c2.18-1.12 3.83-2.97 5.36-4.83z"/><path fill="#2a9d9f" opacity=".87" d="M150.77 178.25l3.79-.5.37 3.18-1.75-.15-2.41-2.53z"/><path fill="#577e8d" d="M227.04 178.78l4.29 2.12-.84 3.01-3.45-5.13z"/><path fill="#151615" d="M153.18 180.78l1.75.15 11.63.49c.55 3.58 1.92 6.98 3.99 9.95-.3-3.3-.78-6.58-1.31-9.85l3.78.03.39 2.28c.74 4.82 1.36 9.83.21 14.64-.32 2.15-2.56 2.96-4.19 3.94.57-3.23.88-6.5 1.06-9.77-2.17 3.03-3.48 6.56-3.86 10.28-4.33-.2-8.77-.26-12.76 1.71 4.52 2.29 9.29 4.1 14.25 5.15-3.69-.19-7.28-1.06-10.78-2.18-3.54-1.21-7.3-.82-10.95-.7-.68-2.71-1.9-5.24-3.71-7.38l4.24.58.49 5.91 3.49.01 2.43-.02a103.83 103.83 0 0 1 .47-3.08l1.84-7.6c1.47-4.18-1.07-8.12-2.92-11.68l2.19-.99-1.73-1.87z"/><path fill="#458698" d="M166.56 181.42l2.68.1 1.31 9.85c-2.07-2.97-3.44-6.37-3.99-9.95z"/><path fill="#323337" d="M173.02 181.55c6-.18 12.03.17 17.93 1.38-.84 3.23-1.82 6.44-2.24 9.76-.43 3.08.62 6.07 1.46 8.99l-6.31-.71 1.62-2.69-1.57-2.58c-1.34-3.37.31-6.81 1.84-9.78l.49-.9c-2.57-.73-5.19-1.36-7.86-1.58l-2.25.07-2.72.32-.39-2.28z"/><path fill="#6d6a72" d="M203.18 192.95c3.4-3.79 6.87-7.65 11.23-10.38-1.28 5.19-2.37 10.58-1.2 15.91-3.63-1.26-6.99-3.18-10.03-5.53z"/><path fill="#e5f3f7" d="M214.41 182.57l3.3-.97.81 6.66c-.19 4.14-.41 8.27-.82 12.4-.45 3.03.09 6.08.74 9.05l-5.94 3.79c-2.67-1.14-5.37-2.2-8.11-3.17l7.14-.05c1.79-3.67 2.81-7.77 1.68-11.8-1.17-5.33-.08-10.72 1.2-15.91m.45.61c.16 2.75.34 5.5.62 8.23 1.14-2.56 1.63-5.34 1.66-8.14l-2.28-.09m.63 9.42c-.31 2.95-.37 5.92-.2 8.88 2.93-2.35 1.41-6.07.2-8.88m-1.22 12a133.6 133.6 0 0 0-1.02 7.72c2.44-2.05 3.17-5.16 3.81-8.13l-2.79.41z"/><path fill="#615d64" d="M227.22 188.8c-2.35-1.58-2.6-4.6-3.1-7.13 4.21 2.41 8.25 5.09 12.2 7.89l-2.38.43c-2.27.21-4.85.37-6.72-1.19z"/><path fill="#1c3a42" opacity=".51" d="M135.53 185.43c1.77-1.2 3.8-1.85 5.93-1.38l-3.32 1.66-2.61-.28z"/><path fill="#274c56" d="M173.41 183.83l2.72-.32c1.32 2.43 2.95 4.84 3.29 7.65-.07 2.42-1.34 4.59-2.33 6.74l-1 1.98 6.91-1.74.59 2.2c-4.94 1.1-9.9 2.13-14.95 2.5l.79-.43c1.63-.98 3.87-1.79 4.19-3.94 1.15-4.81.53-9.82-.21-14.64z"/><path fill="#286470" d="M176.13 183.51l2.25-.07c2.26 1.33 4.69 2.49 7.37 2.48-1.53 2.97-3.18 6.41-1.84 9.78l-6.82 2.2c.99-2.15 2.26-4.32 2.33-6.74-.34-2.81-1.97-5.22-3.29-7.65z"/><path fill="#3d828f" d="M178.38 183.44c2.67.22 5.29.85 7.86 1.58l-.49.9c-2.68.01-5.11-1.15-7.37-2.48z"/><path d="M214.86 183.18l2.28.09c-.03 2.8-.52 5.58-1.66 8.14l-.62-8.23zm.63 9.42c1.21 2.81 2.73 6.53-.2 8.88-.17-2.96-.11-5.93.2-8.88z" fill="#fdffff"/><path fill="#484c4f" d="M138.14 185.71l3.32-1.66.55-.26c-.81 2.9-1.67 5.84-1.64 8.87-.04 2.74 1.27 5.23 2.3 7.68l-4.16.1c-.28-4.91-.48-9.82-.37-14.73z"/><path fill="#516b75" d="M142.01 183.79l2.46 5.77-2.4-1.11c.5 3.66.63 7.37.61 11.07l-.01.82c-1.03-2.45-2.34-4.94-2.3-7.68-.03-3.03.83-5.97 1.64-8.87z"/><path fill="#706d6f" d="M147.09 187c1.57-1.56 3.67-2.4 5.63-3.36 1.17 5.31 1.44 10.84-.28 16.07-2.13-.65-4.69-1.54-5.4-3.89-.84-2.82-1.2-6.07.05-8.82z"/><path fill="#797578" d="M152.72 183.64c1.85 3.56 4.39 7.5 2.92 11.68-.64 1.39-1.35 2.74-2.11 4.07l-1.09.32c1.72-5.23 1.45-10.76.28-16.07z"/><path fill="#4b93a5" opacity=".84" d="M135.53 185.43l2.61.28c-.11 4.91.09 9.82.37 14.73-1.1-1.37-2.8-2.6-2.79-4.53-.25-3.49-.06-6.99-.19-10.48z"/><path fill="#468899" d="M166.63 202.92c.38-3.72 1.69-7.25 3.86-10.28-.18 3.27-.49 6.54-1.06 9.77l-.79.43-2.01.08z"/><path fill="#5a575d" d="M227.38 195.44c1.99-1.05 4.29-1.31 6.51-1.36l1.74 1.75-6.59 4.96-1.58 1.62c-2.48 3.02-5.67 5.34-9.02 7.3-.65-2.97-1.19-6.02-.74-9.05.59-1.18 1.24-2.33 1.88-3.47l2.26 3.73c1.73-1.94 3.33-4.07 5.54-5.48z"/><path fill="#32717d" d="M177.09 197.9l6.82-2.2 1.57 2.58-1.62 2.69-.27-.63-.59-2.2-6.91 1.74 1-1.98z"/><path fill="#38383c" d="M235.63 195.83l.75-.54c-.07 3.31-2.07 7.62 1.1 10.09-1.39-.43-2.8-.98-4.28-.98-1.95.74-3.54 2.15-5.24 3.32l3 4.2c-2.32.38-4.63.81-6.97.99-1.4-.3-2.79-.67-4.17-1.03l-.58 3.96 2.57.11 1.75.06c-1.45.26-2.89.61-4.32.95-.69-1.06-1.31-2.15-1.93-3.23-1.85.03-3.69.08-5.53.19l.72-.42c2.01-1.23 3.96-2.54 5.94-3.79 3.35-1.96 6.54-4.28 9.02-7.3.73.98 1.65 1.28 2.77.9 1.31-.86-.01-2.49-1.19-2.52 2.12-1.76 4.35-3.37 6.59-4.96z"/><path fill="#548596" d="M229.04 200.79c1.18.03 2.5 1.66 1.19 2.52-1.12.38-2.04.08-2.77-.9l1.58-1.62z"/><path fill="#27b1b3" opacity=".87" d="M150.9 206.02l2.9-3.1-.47 3.08-2.43.02z"/><path fill="#44474e" d="M233.2 204.4c1.48 0 2.89.55 4.28.98 3.57 1.05 6.61 3.27 9.06 6.02-4.36.11-7.61 3.29-10.18 6.48l-.8 1.71-2.1-1.08c-1.44-.7-2.9-1.35-4.39-1.93-1.81-.38-3.66-.56-5.51-.57l-1.75-.06 2.18-3.04c2.34-.18 4.65-.61 6.97-.99l-3-4.2c1.7-1.17 3.29-2.58 5.24-3.32m.66 4.39c-1.12.83-1.6 2.21-2.32 3.35 2.31-1.19 4.5-2.6 6.51-4.25-1.41.25-2.84.44-4.19.9z"/><path fill="#f5ffff" d="M214.27 204.6l2.79-.41c-.64 2.97-1.37 6.08-3.81 8.13l1.02-7.72z"/><path fill="#6d6b6e" d="M233.86 208.79c1.35-.46 2.78-.65 4.19-.9-2.01 1.65-4.2 3.06-6.51 4.25.72-1.14 1.2-2.52 2.32-3.35z"/><path fill="#141514" d="M168.96 209.9c5.26.42 10.54.74 15.79 1.34l.33 8.9c-1.78.4-3.55.82-5.34 1.13-.32-.01-.94-.01-1.26-.02-4.6-2.19-8.06-6.49-9.52-11.35z"/><path fill="#4b565d" d="M249.24 211.36l2.8-2.02 3.86 1.89c2.24 1.25 4.39 2.65 6.39 4.26l-2.44 2.34c-3.89-1.52-7.36-3.89-10.61-6.47z"/><path fill="#2d3138" d="M236.36 217.88c2.57-3.19 5.82-6.37 10.18-6.48a34.74 34.74 0 0 1 2.7-.04c3.25 2.58 6.72 4.95 10.61 6.47a119.94 119.94 0 0 0 3.33 1.24l-.06-2.72-.83-.86c-2-1.61-4.15-3.01-6.39-4.26 2.34.78 4.91 1.33 6.76 3.07 1.74 1.69 2.95 3.82 4.26 5.84-3.21-.37-6.51-1.24-9.73-.53-3.57 1.37-6.95 3.24-10.6 4.43 2.91 3.78 5.25 7.94 7.24 12.28l2.73-2.61c1.52 1.47 3.14 2.85 4.75 4.24l-.79 4.19-3.45-1.89c-1.03 1.97-2.04 3.95-3.17 5.87l-1.05.8-2.78-.95-1.17-4.01 2.33-4.87-3.83-4.63c-.76-.89-1.53-1.76-2.33-2.6-2.13-1.63-4.38-3.24-6.96-4.05-1.97-.41-3.99-.21-5.99-.23l.15 3.22c3.14 1.21 6.22 2.55 9.19 4.15l2.54 1.36-2.71 9.18c-5.12-2.17-8.62-6.81-11.08-11.62l-1.28-2.77c.26-1.4 1.26-2.97.5-4.35-1.37-.99-2.87-1.76-4.29-2.65-2.12-1.54-4.18-3.17-5.9-5.14 1.43-.34 2.87-.69 4.32-.95 1.85.01 3.7.19 5.51.57l-.7 4.13 3.7 3.57 1.39-5.77 2.1 1.08 1.69.45.66-.54v-.85l-1.55-.77z"/><path fill="#6a6a6b" d="M219.82 211.88l4.17 1.03-2.18 3.04-2.57-.11.58-3.96z"/><path fill="#5295a6" d="M199.88 215.89l4.87-1.09 1.34 2.32-5.01.76-1.51.41c-3.91.96-7.61 2.54-11.25 4.22l-5.65-.51-1.91-.48-1.02-.25c1.79-.31 3.56-.73 5.34-1.13 5.02-1.1 9.86-2.84 14.8-4.25z"/><path fill="#9b999f" d="M259.85 217.83l2.44-2.34.83.86.06 2.72-3.33-1.24z"/><path fill="#717172" d="M229.07 216.58l4.39 1.93-1.39 5.77-3.7-3.57.7-4.13z"/><path fill="#494849" d="M188.32 222.51c3.64-1.68 7.34-3.26 11.25-4.22-1.61 1.87-3 3.96-4.91 5.56-2.17-.12-4.23-.9-6.34-1.34z"/><path fill="#292929" d="M199.57 218.29l1.51-.41c-.06 2.74.23 5.62-.85 8.21-1.43 2.86-5.14 3.41-7.97 2.77-3.93-1.05-6.57-4.38-9.59-6.86 1.88.2 3.76.34 5.65.51 2.11.44 4.17 1.22 6.34 1.34 1.91-1.6 3.3-3.69 4.91-5.56z"/><path fill="#62646b" d="M235.56 219.59l.8-1.71 1.55.77v.85l-.66.54-1.69-.45z"/><path fill="#5f5f65" d="M246.59 224.04c3.65-1.19 7.03-3.06 10.6-4.43 3.22-.71 6.52.16 9.73.53l.92.14.02.94.09 2.48c-3.69-1.13-7.45-2.61-11.38-2.31-1.81 1.61-3.2 4.03-2.86 6.52.39 2.15 1.65 4.01 2.85 5.8l-2.73 2.61c-1.99-4.34-4.33-8.5-7.24-12.28z"/><path fill="#282a30" d="M256.57 221.39c3.93-.3 7.69 1.18 11.38 2.31l-.09-2.48c.82 1.25 1.6 2.55 2.68 3.61.96.91 1.96 1.77 3.01 2.6a40.87 40.87 0 0 0 5.49 2.32c1.66-.15 3.27-.64 4.89-1.03l-1.7 3.13 5.34 1.68 1.82-2.07.57-.65.13 4.15 5.55-1.4 1.11 1.27c-2.28 4.3-7.44 5.19-10.81 8.25-1.77 3.65 2.08 7.1 3.53 10.22-4.14-2.97-8.01-6.28-11.94-9.52.45 3.03.92 6.08 1.82 9.02-2.28 2.23-4.43 4.61-6.45 7.08-5.86-5.48-13.27-8.81-20.05-12.96l1.05-.8c1.42-.26 2.85-.44 4.29-.64l.03.83.66.54.76-.32.17-.81.71-3.58.79-4.19c-1.61-1.39-3.23-2.77-4.75-4.24-1.2-1.79-2.46-3.65-2.85-5.8-.34-2.49 1.05-4.91 2.86-6.52m7.03 31.26l4.91-.81-.48.73.24.84.84.41.93-.29.49-.82-.25-.8c-.1-2.01-.55-3.97-1.21-5.86-2.55 1.53-4.42 3.83-5.47 6.6m9.15 4.67c2.46-1.45 4.02-3.77 4.47-6.58-2.32 1.55-3.87 3.85-4.47 6.58z"/><path fill="#3e3c3e" d="M211.4 225.5l3.73-3.82.31.71c.54 2.52.92 5.07 1.18 7.63l.07 1.27-5.3-5.32 3.27 7.3c-4.16 2.54-8.52 4.75-12.56 7.49-1.71-1.55-3.3-3.22-4.94-4.83l-.56-.52-1.12-1.03c6.05-1.34 11.94-3.96 15.92-8.88z"/><path fill="#54717b" d="M215.44 222.39c2.15 3.55 4.7 6.82 7.21 10.1l-6.03-2.47c-.26-2.56-.64-5.11-1.18-7.63z"/><path fill="#454548" d="M225.14 222.1l4.29 2.65c.76 1.38-.24 2.95-.5 4.35l-3.79-7z"/><path fill="#424248" d="M270.54 224.83c1.79-2.52 4.74-1.09 6.99-.14l-3.98 2.74-3.01-2.6z"/><path fill="#526771" d="M232.12 225.58c2 .02 4.02-.18 5.99.23 2.58.81 4.83 2.42 6.96 4.05l-3.61 3.09c-2.97-1.6-6.05-2.94-9.19-4.15l-.15-3.22z"/><path fill="#56565b" opacity=".97" d="M277.53 224.69l1.51 5.06a40.87 40.87 0 0 1-5.49-2.32l3.98-2.74z"/><path fill="#508796" d="M211.39 225.97l5.3 5.32-2.03 1.98-3.27-7.3z"/><path fill="#316674" d="M182.04 228.53c3.94 3.04 8.73 4.51 13.44 5.85l1.12 1.03c-4.7-.39-9.42-1.04-13.75-3.01-.23-1.3-.52-2.59-.81-3.87z"/><path fill="#525157" opacity=".98" d="M283.93 228.72l5.46 2.74-1.82 2.07-5.34-1.68 1.7-3.13z"/><path fill="#aeadb3" d="M241.46 232.95l3.61-3.09 2.33 2.6-3.4 1.85-2.54-1.36z"/><path fill="#222223" d="M182.85 232.4c4.33 1.97 9.05 2.62 13.75 3.01l.56.52c-1.17 1.75-2.32 3.54-3.6 5.22-4.34.91-8.81.43-12.69-1.76l.26-.79c.69-2.03 1.35-4.08 1.72-6.2z"/><path fill="#4d4b50" d="M244 234.31l3.4-1.85 3.83 4.63-3.53-2.33-3.3 5.71 3.81-.89.69 2.38 1.17 4.01-2.24 1.9-6.54-4.38 2.71-9.18z"/><path fill="#74747c" d="M244.4 240.47l3.3-5.71 3.53 2.33-2.33 4.87-.69-2.38-3.81.89z"/><path fill="#5a595e" d="M285.94 243.08c3.37-3.06 8.53-3.95 10.81-8.25l2.77.64 1.44 3.31c-2.96 1.29-5.98 2.45-9.05 3.48.16.41.46 1.23.61 1.64-1.92-1.54-3.2 1.35-1.74 2.67-.22 2.28-.78 4.51-1.31 6.73-1.45-3.12-5.3-6.57-3.53-10.22z"/><path fill="#65b0c3" d="M197.16 235.93l4.94 4.83 2.89 2.49-1.56-.04-3.61-.09-2.66-7.19z"/><path fill="#49484b" d="M299.52 235.47c1.86 3.05 3.33 6.39 3.27 10.02-.08 3.37 1.64 6.28 3.86 8.68l-.2-7.32c1.38 3.71 1.45 7.7 1.2 11.61l-.65.44c-2.37 1.63-4.72 3.31-7.04 5.01l.97 1.5 4.91-1.37.97-4.25c.23 1.58.54 3.17.54 4.79-.53 1.25-1.61 2.21-2.76 2.88-2.51-.22-4.85-1.26-7.19-2.08-2.28 1.18-4.6 2.8-7.31 2.38-6.29-.17-10.73-5.12-15.56-8.46 2.08-.78 4.15-1.6 6.21-2.44l-1.39-4.06c-.9-2.94-1.37-5.99-1.82-9.02 3.93 3.24 7.8 6.55 11.94 9.52.53-2.22 1.09-4.45 1.31-6.73 1.65-.27 2.23-1.15 1.74-2.67l-.61-1.64c3.07-1.03 6.09-2.19 9.05-3.48l-1.44-3.31m-5.82 16.21l3.41.45-.44-3.41-2.97 2.96m-12.98 1.28c2.29 5.03 6.54 8.74 11.42 11.15l-.41-.65 5.04.91c-1.98-3.23-4-6.43-6.12-9.57l-1.82 4.25c-1.81-3.02-4.9-4.85-8.11-6.09m-1.49 5.28l-.34.83.35.83.83.34.83-.35.34-.83-.35-.83-.83-.34-.83.35z"/><path fill="#4f8b9c" d="M180.87 239.39c3.88 2.19 8.35 2.67 12.69 1.76-1.52 1.19-3.14 2.25-4.73 3.35-2.39-.76-4.79-1.46-7.2-2.13l-.76-2.98z"/><path fill="#7f7f87" d="M257.07 240.25l3.45 1.89-.71 3.58-1.62-.24-4.29.64 3.17-5.87z"/><path fill="#383839" d="M181.63 242.37l7.2 2.13c1.98.56 3.94 1.34 6.01 1.43 1.88-.45 3.39-1.79 4.98-2.81l3.61.09c-3.28 2.37-6.7 4.76-10.7 5.72-2.73.77-5.95.4-8.12-1.51-1.3-1.49-2.08-3.32-2.98-5.05z"/><path fill="#898388" d="M290.78 246.57c-1.46-1.32-.18-4.21 1.74-2.67.49 1.52-.09 2.4-1.74 2.67z"/><path fill="#a5a3a4" d="M258.19 245.48l1.62.24-.17.81-.76.32-.66-.54-.03-.83z"/><path fill="#595960" d="M306.65 254.17c-2.22-2.4-3.94-5.31-3.86-8.68l3.66 1.36.2 7.32z"/><path fill="#727278" d="M263.6 252.65c1.05-2.77 2.92-5.07 5.47-6.6.66 1.89 1.11 3.85 1.21 5.86l-1.77-.07-4.91.81z"/><path fill="#746e75" d="M293.7 251.68l2.97-2.96.44 3.41-3.41-.45z"/><path fill="#626267" d="M272.75 257.32c.6-2.73 2.15-5.03 4.47-6.58-.45 2.81-2.01 5.13-4.47 6.58z"/><path fill="#8e8d92" d="M268.51 251.84l1.77.07.25.8-.49.82-.93.29-.84-.41-.24-.84.48-.73z"/><path fill="#7b7c87" opacity=".98" d="M272.9 259.88c2.02-2.47 4.17-4.85 6.45-7.08l1.39 4.06-6.21 2.44-1.63.58z"/><path fill="#2f2f33" d="M280.72 252.96c3.21 1.24 6.3 3.07 8.11 6.09 1 1.44 1.95 2.92 2.9 4.41l.41.65c-4.88-2.41-9.13-6.12-11.42-11.15z"/><path fill="#717075" d="M288.83 259.05l1.82-4.25c2.12 3.14 4.14 6.34 6.12 9.57l-5.04-.91-2.9-4.41z"/><path fill="#beb9be" d="M279.23 258.24l.83-.35.83.34.35.83-.34.83-.83.35-.83-.34-.35-.83.34-.83z"/><path fill="#5e5d62" d="M299.96 263.91l7.04-5.01-.19.89-.97 4.25-4.91 1.37-.97-1.5z"/></svg>