<svg xmlns="http://www.w3.org/2000/svg" width="512" height="512" viewBox="0 0 384 384" xmlns:v="https://vecta.io/nano"><path fill="#090909" opacity=".47" d="M211.56 142.09c3 .44 5.95 1.26 8.68 2.6l-10.11-.94 1.43-1.66z"/><path fill="#2f3031" opacity=".97" d="M210.13 143.75l10.11.94 2.35 4.49-2-1.27c-3.16-2.1-7-2.56-10.65-1.66l-3.89.61 4.08-3.11z"/><path fill="#454345" d="M209.94 146.25c3.65-.9 7.49-.44 10.65 1.66-2.55 1.32-5.13 2.58-7.63 4l-.95-2.09c-.66-1.21-1.37-2.39-2.07-3.57z"/><path fill="#457d8c" d="M205.05 147.02l1-.16 3.89-.61 2.07 3.57-7.68-.86.72-1.94z"/><path fill="#242425" d="M204.33 148.96c2.57.12 5.13.47 7.68.86l.95 2.09.48 1.27a88.74 88.74 0 0 1 10.58-2.34l.98 7.99-3.98 3.51-2.47 2.32-4.5-2.93a86.98 86.98 0 0 1-.92-2.23l-2.22-1.18c-1.02-1.36-1.93-2.83-3.23-3.94-2.84-1.66-6.28-1.59-9.45-1.35 1.92-1.51 3.85-3.07 6.1-4.07z"/><path fill="#5090a1" d="M212.96 151.91l7.63-4 2 1.27 1.28.81.15.85a88.74 88.74 0 0 0-10.58 2.34l-.48-1.27z"/><path fill="#161717" d="M223.87 149.99c3.9 2.77 3.49 8.56 7.8 10.96l-.18.56c-.89 2.55-1.5 5.19-1.75 7.88-.35 4.77-2.39 9.16-3.83 13.66.09-1.94.06-3.87.03-5.8l-2.58-.4c-2.42-.32-4.89-.78-7.32-.38-2.16.59-3.77 2.3-5.5 3.62l-6.73-1.28-.82-.11 3.11-4.25c1.4.05 2.81.04 4.21.03l1.94-2.8c-2.29.1-4.59.22-6.88.17.1-2.7.52-5.48-.18-8.13-1.41-2.37-4.44-3.57-7.13-3.19-2.83.43-5.46 1.58-8.19 2.38l-4.17-.35 3.62 2.4c.06 3.71.17 7.95-2.69 10.76-2.33 2.74-6.08.89-8.95.33l.25-3.18c-1.78.55-3.68 1.58-5.55.78-3.95-1.37-7.81-3.15-12.03-3.49h-2.69c3.7-.75 7.49-.88 11.26-.91 2.44-2.63 4.73-5.53 7.83-7.43 3.84-2.16 8.41-2.15 12.49-3.61 2.59-1.16 4.81-2.97 7.31-4.29 5.11.17 9.88 2.08 14.36 4.4.76.34 1.47.81 2.22 1.18l.92 2.23-3.22 4.2c3.13.77 6.62 2.18 9.67.36 2.51-2.24 4.86-4.66 7.26-7.02l-2.76-.44-.98-7.99-.15-.85z"/><path fill="#2d5c69" d="M198.23 153.03c3.17-.24 6.61-.31 9.45 1.35 1.3 1.11 2.21 2.58 3.23 3.94-4.48-2.32-9.25-4.23-14.36-4.4l1.68-.89z"/><path fill="#424548" d="M225 158.83l2.76.44c-2.4 2.36-4.75 4.78-7.26 7.02l.52-3.95 3.98-3.51z"/><path fill="#393839" d="M189.87 162.91c2.73-.8 5.36-1.95 8.19-2.38 2.69-.38 5.72.82 7.13 3.19.7 2.65.28 5.43.18 8.13l-2.29-.86c-.45-1.9-.81-3.83-1.55-5.64-2.23-1.65-5.23-.41-7.74-.31l-3.92-2.13z"/><path fill="#5292a3" d="M185.7 162.56l4.17.35 3.92 2.13c3.02 2.1 5.94 4.39 9.29 5.95l2.29.86c2.29.05 4.59-.07 6.88-.17l-1.94 2.8c-1.4.01-2.81.02-4.21-.03-1.45-.52-2.87-1.14-4.26-1.8-3.27-1.62-6.35-3.57-9.38-5.58l-3.14-2.11-3.62-2.4z"/><path fill="#2c2c2c" d="M229.74 169.39c.25-2.69.86-5.33 1.75-7.88.87.95 3.53 1.59 2.54 3.32-.6 2.16-2.59 3.33-4.29 4.56z"/><path d="M193.79 165.04c2.51-.1 5.51-1.34 7.74.31.74 1.81 1.1 3.74 1.55 5.64-3.35-1.56-6.27-3.85-9.29-5.95zm-1.33 2.03c3.03 2.01 6.11 3.96 9.38 5.58-4.16.97-6.35 4.69-8.37 8.08-.76-1.02-1.55-2.03-2.18-3.13-.16-3.55.81-7.03 1.17-10.53z" fill="#5a585a"/><path fill="#413f44" d="M189.32 164.96l3.14 2.11c-.36 3.5-1.33 6.98-1.17 10.53.63 1.1 1.42 2.11 2.18 3.13 2.02-3.39 4.21-7.11 8.37-8.08 1.39.66 2.81 1.28 4.26 1.8l-3.11 4.25c-2.08.4-4.12 1-6.1 1.73l1.7 2.37c1.86 2.54 4.19 4.68 6.53 6.78l-4.94 2.85-4.13-5.86c-.63 4.47 1.14 8.7 1.52 13.08-.84 1.83-2.18 3.37-3.38 4.98 1.55 2.47 2.99 5.07 5.1 7.12 2.44 2.34 5.95 3.14 8.37 5.49.79 1.54 1.2 3.24 1.72 4.89-2.41 1.04-4.98 1.72-7.62 1.73l-1.57-.81c-.96-.46-1.91-.91-2.9-1.28-5.5-2.4-11.59-.31-17.32-1.39l3.92-5.1-12.95-4.47c-4.25-1.77-8.12-4.34-11.93-6.88-1.96-1.48-4.24-2.95-5.14-5.35l-.56-1.53c2.86.44 5.68 1.18 8.34 2.35 3.51 1.6 7.34 2.15 11.1 2.8l4.86.98c2.45.14 4.89 0 7.34-.1l.29-3.38-2.48-3.26 3.18-6.38-6.2-3.12-2.43-1.17c-1.1 3.13-2.27 6.24-3.12 9.44-.06-3.71-.21-7.48-1.22-11.07-.48-2.35-3.2-2.92-4.99-3.99l-.75-.35c-3.38-1.25-6.88-2.12-10.38-2.94l-.72-3.19 4.22-3.51c4.22.34 8.08 2.12 12.03 3.49 1.87.8 3.77-.23 5.55-.78l-.25 3.18c2.87.56 6.62 2.41 8.95-.33 2.86-2.81 2.75-7.05 2.69-10.76z"/><path fill="#0c0b0c" opacity=".34" d="M144.94 167.27l7.03.28-.69.25-2.56.92-1.03 3.08-.86 2.35c-1.47-2.01-2.19-4.39-1.89-6.88z"/><path fill="#3b3a3a" d="M148.72 168.72l2.56-.92 5.61 2.62-3.44 1.34 1.25 3.19c.56 4.02 1.25 8.03 2.22 11.97-7.01-2.56-15.11-3.02-22.11-.17l-.7.28c-.03-.46-.07-1.36-.09-1.81l.1-3.05c6.73-1.91 13.59-3.48 20.03-6.3l-4.76-3-1.7-1.07 1.03-3.08z"/><path fill="#3babb4" opacity=".98" d="M156.89 170.42l.77-.26h2.69l-4.22 3.51-1.43 1.28-1.25-3.19 3.44-1.34z"/><path fill="#1f1f1f" d="M149.39 172.87l4.76 3c-6.44 2.82-13.3 4.39-20.03 6.3l.12-4-1.37.1c5.56-1.6 11.47-2.37 16.52-5.4z"/><path fill="#5da2b4" d="M154.7 174.95l1.43-1.28.72 3.19 1.8 7.98c.72 1.32 1.53 2.6 2.4 3.83l-4.13-1.75c-.97-3.94-1.66-7.95-2.22-11.97z"/><path fill="#245863" d="M210.54 180.09c1.73-1.32 3.34-3.03 5.5-3.62 2.43-.4 4.9.06 7.32.38l-6.46 4.17-.63.36-5.73-1.29z"/><path fill="#7c7b7e" d="M156.85 176.86c3.5.82 7 1.69 10.38 2.94l-.74 2.48-7.84 2.56c-.76-2.62-1.23-5.31-1.8-7.98z"/><path fill="#20535e" d="M223.36 176.85l2.58.4-.03 5.8-1.54 2.99-1.58-.72-5.16-2.13-.73-2.17 6.46-4.17z"/><path fill="#121313" opacity=".8" d="M114.1 178.74c2.99-.3 6.02-.37 8.97.29-1.83.54-3.61 1.25-5.31 2.13l-1.58.87-2.08-3.29z"/><path fill="#565657" d="M123.07 179.03l9.8-.76 1.37-.1-.12 4-.1 3.05-1.08-3.08c-2.64.09-5.45-.26-7.94.78-1.54 1.24-2.34 3.1-3.41 4.71 4.14 1.18 8.6 1.53 12.52-.6l.7-.28.75 3.17c-3.85.78-7.69 1.81-11.63 1.99-2.38.27-4.29-1.39-6.16-2.59 1.74-2.58 1.16-5.48-.01-8.16 1.7-.88 3.48-1.59 5.31-2.13z"/><path fill="#376c78" d="M196.89 180.43c1.98-.73 4.02-1.33 6.1-1.73l.82.11-5.22 3.99-1.7-2.37z"/><path fill="#4a4c4f" d="M110.57 180.21l3.53-1.47 2.08 3.29-1.56 3.04-3.95.1-.04-2.19-.04-2.08-.02-.69z"/><path fill="#514f57" d="M203.81 178.81l6.73 1.28 5.73 1.29c-1.75.62-3.62.56-5.44.67-1.62 1.02-2.93 2.67-4.96 3.18l7.16 1.85c-.63 2.91-1.17 5.87-2.3 8.64-1.64 4-8.07 3.64-8.81 8.23 2.26 5.11 6.84 8.64 10.31 12.9l-.53 1.64-.81 2.33-1.51 1.31c-.52-1.65-.93-3.35-1.72-4.89-2.42-2.35-5.93-3.15-8.37-5.49-2.11-2.05-3.55-4.65-5.1-7.12 1.2-1.61 2.54-3.15 3.38-4.98-.38-4.38-2.15-8.61-1.52-13.08 1.41 1.93 2.77 3.89 4.13 5.86l4.94-2.85c-2.34-2.1-4.67-4.24-6.53-6.78l5.22-3.99z"/><path fill="#5e5c5e" d="M167.23 179.8l.75.35.73 3.54-6.94 5.3-.72-.32c-.87-1.23-1.68-2.51-2.4-3.83l7.84-2.56.74-2.48z"/><path fill="#121313" d="M167.98 180.15c1.79 1.07 4.51 1.64 4.99 3.99 1.01 3.59 1.16 7.36 1.22 11.07l-1.44 6.99c-3.76-.65-7.59-1.2-11.1-2.8l6.23.75c1.09-3.29 3.2-6.66 2.16-10.23l-1.33-6.23-.73-3.54z"/><path fill="#6fdaef" d="M107.49 182l3.1-1.1.04 2.08-.68 6.46-.92 2.13-1.44-8.57-.1-1z"/><path fill="#6a828d" d="M210.83 182.05c1.82-.11 3.69-.05 5.44-.67l.63-.36.73 2.17.27.82-1.83-.2-3.95.16.91 3.11-7.16-1.85c2.03-.51 3.34-2.16 4.96-3.18z"/><path fill="#527f8c" d="M114.62 185.07l1.56-3.04 1.58-.87c1.17 2.68 1.75 5.58.01 8.16l.08-6.35-1.68.06.08 6.92-1.27-1.22-.36-3.66z"/><path fill="#8a878a" d="M125 182.92c2.49-1.04 5.3-.69 7.94-.78l1.08 3.08.09 1.81c-3.92 2.13-8.38 1.78-12.52.6 1.07-1.61 1.87-3.47 3.41-4.71z"/><path fill="#336572" opacity=".76" d="M107.09 187.98c.01-1.67.34-3.32.5-4.98.31 2.88.84 5.73 1.44 8.57l.92-2.13.58-.78 1.82 2.34-2.85 1.7c-.99-1.46-2.38-2.84-2.41-4.72z"/><path fill="#6a7479" d="M109.95 189.44l.68-6.46.04 2.19 3.95-.1.36 3.66a44.05 44.05 0 0 0-4.45-.07l-.58.78z"/><path fill="#46585f" d="M116.17 183.03l1.68-.06-.08 6.35-.08 3.5-1.79-.61-3.55-1.21-1.82-2.34a44.05 44.05 0 0 1 4.45.07l1.27 1.22-.08-6.92z"/><path fill="#58575f" d="M217.63 183.19l5.16 2.13 2.38 3.4c-2.09 1.58.54 4.25 2.14 2.16 3.02 2.87 5.33 6.37 7.05 10.15l1.73-.32.11 3.63c-2.36.05-4.77.29-7.07-.33-2.6-.95-4.73-2.8-6.92-4.45-1.13 2.68-2.66 5.3-2.96 8.24.86 1.89 2.16 3.54 3.35 5.23l5.45-4.05 3.15 1.15c-4.12 4.81-9.67 7.96-15.33 10.62 1.82-7.55 3.15-15.31 2.48-23.1-.03-.41-.07-1.21-.09-1.62-.09-2.74-.1-5.48-.11-8.22l.02-2-.27-1.8-.27-.82z"/><path fill="#454344" d="M168.71 183.69l1.33 6.23-2.48-.12-5.79-.81 6.94-5.3z"/><path fill="#befdff" d="M212.12 183.97l3.95-.16c-.23 1.63.47 2.29 2.1 2l-.02 2-3.11-.92-.2 8.32-1.81-8.13-.91-3.11z"/><path fill="#7eb4c6" d="M216.07 183.81l1.83.2.27 1.8c-1.63.29-2.33-.37-2.1-2z"/><path fill="#1a1a1a" d="M134.81 186.75c7-2.85 15.1-2.39 22.11.17 1.39.56 2.76 1.16 4.13 1.75l.72.32c1.91.37 3.85.63 5.79.81-2.87.67-5.83.74-8.74.35-6.26-.82-12.52.22-18.77.57-7.52.22-14.78 2.99-22.36 2.1l.08-3.5c1.87 1.2 3.78 2.86 6.16 2.59 3.94-.18 7.78-1.21 11.63-1.99l-.75-3.17z"/><path fill="#403e44" opacity=".95" d="M222.79 185.32l1.58.72c2.95 1.43 5.58 3.44 8.1 5.54 1.55 1.37 3.21 2.83 3.87 4.87.87 2.57.22 5.29-.14 7.89l-.11-3.63-1.73.32c-1.72-3.78-4.03-7.28-7.05-10.15a39.65 39.65 0 0 0-2.14-2.16c-.84-1.11-1.61-2.26-2.38-3.4z"/><path fill="#24474f" d="M177.31 185.77l2.43 1.17-.76 6.71-3.04 2.9.33 1.34 1.34 5.29-4.86-.98 1.44-6.99c.85-3.2 2.02-6.31 3.12-9.44z"/><path fill="#285b66" d="M179.74 186.94l6.2 3.12-3.18 6.38 2.48 3.26-8.97-1.81-.33-1.34 3.04-2.9.76-6.71z"/><path fill="#6a6770" d="M213.03 187.08l1.81 8.13 3.42.82.09 1.62-.89-.01-3.59-.19-.65 3.13-.95 6.06c-.02 3.4.29 6.81-.04 10.21-3.47-4.26-8.05-7.79-10.31-12.9.74-4.59 7.17-4.23 8.81-8.23 1.13-2.77 1.67-5.73 2.3-8.64z"/><path fill="#fff" d="M215.04 186.89l3.11.92.11 8.22-3.42-.82.2-8.32z"/><path fill="#536e7b" d="M227.31 190.88c-1.6 2.09-4.23-.58-2.14-2.16l2.14 2.16z"/><path fill="#14191c" opacity=".52" d="M112.35 191l3.55 1.21-6.4.49 2.85-1.7z"/><path fill="#121416" opacity=".46" d="M145.47 192.42c1.9-.58 3.62.55 5.24 1.36l-5.25.85 2.04 2.73 3.51.97 1.5.87c-3.08-.49-6.81-.17-9.13-2.66-.53-1.75.51-3.39 2.09-4.12z"/><path fill="#3a383e" opacity=".95" d="M145.46 194.63l5.25-.85 1.4.85-.9 2.91-.2.79-3.51-.97-2.04-2.73z"/><path fill="#2bd1d3" opacity=".93" d="M151.21 197.54l1.41-.85.69.36.56 1.53-1.36.62-1.5-.87.2-.79z"/><path fill="#8bb6c0" d="M213.87 197.45l3.59.19-4.17 4.5-.07-1.56.65-3.13z"/><path fill="#346c77" d="M176.27 197.89l8.97 1.81-.29 3.38-7.34.1-1.34-5.29z"/><path fill="#f9ffff" d="M213.29 202.14l4.17-4.5.89.01-1 9.38-3.66-.95-.4-3.94z"/><path fill="#76a0ab" d="M218.35 197.65c.67 7.79-.66 15.55-2.48 23.1l-.76 3.4-3.47 2.04c-1.22-.49-2.45-.92-3.71-1.25-1.31 3.51-.4 7.38-1.13 11.02-.6-2.72-1.03-5.47-1.68-8.18-.97-1.08-1.97-2.14-2.85-3.29l-.51-.63c2.64-.01 5.21-.69 7.62-1.73l1.51-1.31c-.27 1.5-.76 3.18.31 4.5 2.08-1.34 3.15-3.63 4.25-5.74l-3.75-1.09a104.06 104.06 0 0 0 .53-1.64c.33-3.4.02-6.81.04-10.21l1.57 1.44-.03 1.91c-.15 2.36-.44 4.71-.7 7.06l2.74-.47 1.13-6.71.37-2.84 1-9.38z"/><path fill="#4b484e" d="M222.21 199.56c2.19 1.65 4.32 3.5 6.92 4.45 2.3.62 4.71.38 7.07.33-.76 1.58-2.93 3.22-1.7 5.07 1.7 2.22 4.28 3.5 6.58 5.02-2.25.52-4.6.89-6.63 2.06-1.77 2.83-2.63 6.11-3.48 9.3l-1.53-4.23 3.31-5.76-1.81-2.7c-5.12 3.9-10.21 7.89-15.83 11.05l.76-3.4c5.66-2.66 11.21-5.81 15.33-10.62l-3.15-1.15-5.45 4.05c-1.19-1.69-2.49-3.34-3.35-5.23.3-2.94 1.83-5.56 2.96-8.24z"/><path fill="#bbb9be" d="M212.27 206.64c.18-2.04.54-4.06.95-6.06l.07 1.56.4 3.94.15 2-1.57-1.44z"/><path fill="#bfffff" d="M213.69 206.08l3.66.95-.37 2.84-3.17.12.03-1.91-.15-2z"/><path fill="#f5ffff" d="M213.81 209.99l3.17-.12-1.13 6.71-2.74.47.7-7.06z"/><path fill="#191919" d="M170.94 210.81c4.28 1.59 8.63 2.97 12.95 4.47l-3.92 5.1-5.43-.81c-1.21-2.92-2.52-5.79-3.6-8.76z"/><path fill="#39393d" d="M215.11 224.15c5.62-3.16 10.71-7.15 15.83-11.05l1.81 2.7-3.31 5.76 1.53 4.23.37 2.34.28 1.42c2.05 1.62 4.29 3 6.59 4.26l-4.16 1.21c-1.79-1.17-3.52-2.48-5.47-3.35-2.87-.18-5.78 0-8.61-.55-3.03-1.18-5.55-3.32-8.33-4.93l3.47-2.04m5.72-.51c1.48 1.96 3.12 3.78 5.21 5.11l.13-6.34-5.34 1.23z"/><path fill="#626161" d="M241.08 214.43c3.37 2.11 6.98 3.81 10.59 5.49-.47 1.76-.96 3.52-1.33 5.31-4.96-2.62-10.35-4.23-15.85-5.23l-.03 7.32-3.12.81-.37-2.34c.85-3.19 1.71-6.47 3.48-9.3 2.03-1.17 4.38-1.54 6.63-2.06z"/><path fill="#414246" d="M252.9 220.48l3.3-2.26 6.86 3.96-6.99 4.69.5-4.71-3.67-1.68z"/><path fill="#528c9c" d="M174.54 219.57l5.43.81c5.73 1.08 11.82-1.01 17.32 1.39l-.82.14c-4.59.8-9.23 1.42-13.9 1.58-2.35-.76-4.65-1.68-6.77-2.92l-1.26-1z"/><path fill="#e8fcfd" d="M210.89 220.82l.81-2.33 3.75 1.09c-1.1 2.11-2.17 4.4-4.25 5.74-1.07-1.32-.58-3-.31-4.5z"/><path fill="#404146" d="M234.49 220c5.5 1 10.89 2.61 15.85 5.23-.57 3.48.03 6.98.88 10.35 5.85-2.75 12.23-4.76 16.91-9.44l-2.27-1.74c3.59-.87 7.29-.93 10.92-.26l-.24 1.13c-2.08-.34-4.19-.51-6.29-.65 3.3 3.12 7.64 4.51 11.86 5.92l-2.34 4.4c3.57 1.62 7.06 3.38 10.58 5.11l-2.6.41-3.02.63c1.24 1.3 2.48 2.6 3.81 3.83 3.33 2.76 7.2 4.74 10.86 7.03-3.93 1.71-7.72 3.72-11.45 5.83-1.96 1.09-4.11 1.77-6.25 2.4l1.49-4.03 1.56-4.05-3.69 1.81c-.95-.79-1.94-1.52-2.95-2.21l-3.02-1.66 4.71.47.5-2.11 2.86-.89 3.43-1.16c-3.23-2.49-6.44-5.08-10.17-6.77-3-1.38-6.27-1.93-9.5-2.52l2.42-5.71c-3.57 1.94-7.18 4.11-9.51 7.54-4.28 1.16-8.34-.67-12.11-2.48.2.3.62.9.83 1.2-2.15-.59-4.31-1.15-6.39-1.94a56.87 56.87 0 0 1-3.95-1.86c-2.3-1.26-4.54-2.64-6.59-4.26l-.28-1.42 3.12-.81.03-7.32z"/><path fill="#515157" d="M251.67 219.92l1.23.56 3.67 1.68-.5 4.71 6.99-4.69 2.8 2.22 2.27 1.74c-4.68 4.68-11.06 6.69-16.91 9.44-.85-3.37-1.45-6.87-.88-10.35.37-1.79.86-3.55 1.33-5.31z"/><path fill="#1b1b1b" d="M175.8 220.57c2.12 1.24 4.42 2.16 6.77 2.92.95 1.44 1.88 2.92 3.03 4.22 2.02.69 4.5.58 6.22-.81 1.77-1.45 3.12-3.31 4.65-4.99l.82-.14c.99.37 1.94.82 2.9 1.28a74.12 74.12 0 0 0-3.59 6.69l7.4-2.79-1.73-2.46c.88 1.15 1.88 2.21 2.85 3.29l-3.63 3.25-.36-1.66-1.96 2.16c-3.98 1.33-7.87 2.95-11.79 4.46a30.78 30.78 0 0 1-3.18-.16c-6-2.63-9.51-8.26-13.36-13.23 1.66-.65 3.32-1.33 4.96-2.03z"/><path fill="#383839" d="M182.57 223.49c4.67-.16 9.31-.78 13.9-1.58-1.53 1.68-2.88 3.54-4.65 4.99-1.72 1.39-4.2 1.5-6.22.81-1.15-1.3-2.08-2.78-3.03-4.22z"/><path fill="#5f5f64" d="M220.83 223.64l5.34-1.23-.13 6.34c-2.09-1.33-3.73-3.15-5.21-5.11z"/><path fill="#468fa2" d="M170.84 222.6c3.85 4.97 7.36 10.6 13.36 13.23-2.61-.32-5.47-.62-7.5-2.48-2.99-2.53-4.39-6.32-5.59-9.93l-.27-.82z"/><path fill="#292829" d="M159.69 234.17c3.29-4.09 6.55-8.44 11.42-10.75 1.2 3.61 2.6 7.4 5.59 9.93 2.03 1.86 4.89 2.16 7.5 2.48a30.78 30.78 0 0 0 3.18.16c-1.88.73-3.74 1.5-5.55 2.36l-1.52.78c-2.07 1.05-4.13 2.13-6.16 3.26-3.13-.01-6.45.14-9.36-1.22-2.59-1.52-3.66-4.53-5.1-7z"/><path fill="#6f6d71" d="M270.25 224.62l6.29.65 2.32.71 9.01 3.09 2.38.72.26 3.39-8.4-2.64c-4.22-1.41-8.56-2.8-11.86-5.92z"/><path fill="#353435" d="M207.93 224.94c1.26.33 2.49.76 3.71 1.25 2.78 1.61 5.3 3.75 8.33 4.93 2.83.55 5.74.37 8.61.55-.85 1.33-1.79 2.61-2.99 3.66l-1 1.03c-2.98-2.09-5.86-5.75-9.93-4.98-2.97.14-4.75 2.71-6.08 5.04l-1.15 2.02c-3.99.28-8.06.49-11.82 1.99-4.24 1.66-8.45 3.42-12.92 4.38a86.86 86.86 0 0 0-.16-3.62c6.05-2.35 12.13-4.84 18.62-5.67.58.87 1.18 1.74 1.8 2.6l3.85-2.16c.73-3.64-.18-7.51 1.13-11.02z"/><path fill="#29282a" opacity=".58" d="M278.86 225.98c3.23.24 6.44 1.02 9.01 3.09l-9.01-3.09z"/><path fill="#585859" d="M201.49 231.03l3.63-3.25 1.68 8.18-3.85 2.16-1.46-7.09z"/><path fill="#609cad" d="M199.17 231.53l1.96-2.16.36 1.66 1.46 7.09-1.8-2.6-1.98-3.99z"/><path fill="#37383f" d="M290.25 229.79l2.28.71 1.12 3.97c6.02 2.15 12.57 3.29 17.9 7.03 1.66 1.05 3.27 2.26 5.18 2.85 3.4.89 7.03.46 10.37 1.6 3.24 1.59 5.49 4.8 9.01 5.85 2.67.46 5.39-.2 8.07.13 2.39.59 4.33 2.22 6.38 3.51 4.01 2.79 8.81 4.02 13.31 5.78.6 5.49 2.41 11.24.1 16.58a117.46 117.46 0 0 1-1.23-4.45l-2.32 1.69c.92.71 1.81 1.46 2.67 2.27a21.29 21.29 0 0 1-.05 3.48c-2.02.17-4.03.42-6.06.43-4.09-.04-7.66-2.66-11.71-2.8-1.91.99-3.64 2.32-5.61 3.21-2.04.53-3.97-.62-5.81-1.31 1.77.14 3.56.18 5.34.3l1.4.17.7-2.73v-1.76c-.83-3-1.8-5.96-2.7-8.94l3.24 1.91c4.9 3.23 9.47 6.94 14.35 10.2l1.17-3.61c-3.24-3.29-6.59-6.52-10.52-8.99l5.94-4.16c-3.99-2.06-8.16-3.76-12.46-5.08-5.88-1.83-11.47-4.45-17.23-6.63-2.05-.53-4.2-1.18-6.32-.74-.75.98-1.28 2.1-1.86 3.18l-6.85-2.32-.97-4.71-7.71 1.29-.13-9.3c-2.72 1.53-5.79 2.22-8.89 1.65l-10.58-5.11 2.34-4.4c2.78.95 5.59 1.81 8.4 2.64l-.26-3.39m67.01 38.82c.66 2.51 3.21 3.31 5.43 3.93l-1.66-3.16c-.16-1.47.54-3.22-.36-4.48-2.16-.89-4.75 1.65-3.41 3.71z"/><path fill="#1c1c1c" d="M214.66 231.38c4.07-.77 6.95 2.89 9.93 4.98l-1.69 1.67a89.56 89.56 0 0 0-14.32-1.61c1.33-2.33 3.11-4.9 6.08-5.04z"/><path fill="#656265" d="M187.38 235.99c3.92-1.51 7.81-3.13 11.79-4.46l1.98 3.99c-6.49.83-12.57 3.32-18.62 5.67l-.7-2.84c1.81-.86 3.67-1.63 5.55-2.36z"/><path fill="#55555c" d="M259.83 238.89c2.33-3.43 5.94-5.6 9.51-7.54l-2.42 5.71c3.23.59 6.5 1.14 9.5 2.52 3.73 1.69 6.94 4.28 10.17 6.77l-3.43 1.16c-7.32-3.94-15.24-7.15-23.57-8.02l.24-.6z"/><path fill="#4f8a9a" d="M158.31 236.86l1.38-2.69c1.44 2.47 2.51 5.48 5.1 7 2.91 1.36 6.23 1.21 9.36 1.22l-2.98 2.71c-2.71-.53-5.49-1.06-7.97-2.35-2.13-1.47-3.36-3.86-4.89-5.89z"/><path fill="#4e4d55" d="M234.05 235.02l4.16-1.21 3.95 1.86-.7 2.85 8.61 2.24 3.46 5.98c-5.17-1.47-10.27-3.2-15.37-4.89l.71 2.19c.23 1.5 1.45 2.73 3.02 2.77a19.37 19.37 0 0 0-.26.69c.09.98.16 1.95.33 2.93-.29-.09-.88-.25-1.17-.34-.97-.26-1.92-.6-2.83-1-2.65-4.2-3.7-9.17-3.91-14.07z"/><path fill="#504f53" opacity=".94" d="M224.59 236.36l1-1.03.68 4.01-3.97-.74.6-.57 1.69-1.67z"/><path fill="#809fcc" d="M241.46 238.52l.7-2.85c2.08.79 4.24 1.35 6.39 1.94l1.52 3.15-8.61-2.24z"/><path fill="#303137" d="M247.72 236.41c3.77 1.81 7.83 3.64 12.11 2.48l-.24.6c-.48 1.44-.9 2.91-1.32 4.37l5.16 1.66c2.59.94 5.31 1.75 7.6 3.33.58 1.4.74 2.94 1.06 4.42l.13.74c-.83-.52-1.62-1.09-2.37-1.71-.03-1.29.33-2.54.59-3.79-2.38.04-4.81-.12-7.15.42-2.58 2.15-4.39 5.03-6.44 7.65-1.82-.84-3.66-1.62-5.54-2.31 2.07-.41 4.5-.41 6.17-1.84 1.28-1.97 1.96-4.25 2.79-6.42-2.13 1.54-4.08 3.43-6.54 4.44-2.06.48-4.14-.41-6.15-.79l-.88 2.31a176.2 176.2 0 0 0-5.91-1.88c.29.09.88.25 1.17.34-.17-.98-.24-1.95-.33-2.93a19.37 19.37 0 0 1 .26-.69l.72-1.83c-.97-.98-2.44-1.2-3.74-.94l-.71-2.19c5.1 1.69 10.2 3.42 15.37 4.89l-3.46-5.98-1.52-3.15-.83-1.2z"/><path fill="#3e3d3e" d="M156.9 243.86c-.65-2.45.65-4.75 1.41-7 1.53 2.03 2.76 4.42 4.89 5.89 2.48 1.29 5.26 1.82 7.97 2.35 3.15.93 6.16-.44 8.78-2.09l2.76 2.63c-5.94 2.43-12.13 5.52-18.74 4.37-3.32-.36-6.42-2.8-7.07-6.15z"/><path fill="#525258" d="M290.35 240.05c3.1.57 6.17-.12 8.89-1.65l.13 9.3 7.71-1.29.97 4.71 6.85 2.32c.58-1.08 1.11-2.2 1.86-3.18 2.12-.44 4.27.21 6.32.74l-3.26 3.77 5.72 1.71c2.44 2.57 4.83 5.18 7.15 7.85-4.95-2.31-10.17-4.12-15.66-4.49 1.63 2.95 3.7 5.8 4.37 9.17-.31 1.59-1.15 3.01-1.9 4.42l-6.29-2.93 2.08-.74 2.72-.97.77-4.57c-1.17 1.57-2.33 3.15-3.4 4.79l.16-2.07c.13-1.31.12-2.64-.02-3.95-.34-2.42-.12-6.09-3.11-6.84-3.72.4-7.42 1.27-11.19 1.1l1.28-3.36-3.1-1.94c-3.66-2.29-7.53-4.27-10.86-7.03l.74-2.61-1.53-1.85 2.6-.41m.69 2.95l-.08 3.01 2.93.93 1.14-3.61-3.99-.33m28.15 25.26l-.34.83.34.83.83.35.84-.35.34-.83-.34-.83-.83-.34-.84.34z"/><path fill="#797779" d="M174.15 242.39l6.16-3.26-.36 3.88c-2.62 1.65-5.63 3.02-8.78 2.09l2.98-2.71z"/><path fill="#6eb6c8" d="M180.31 239.13l1.52-.78.7 2.84.16 3.62.02.83-2.76-2.63.36-3.88z"/><path fill="#6d6c70" d="M259.59 239.49c8.33.87 16.25 4.08 23.57 8.02l-2.86.89c-4.43-.72-8.52-2.65-12.27-5.04l-4.6 2.16-5.16-1.66c.42-1.46.84-2.93 1.32-4.37z"/><path fill="#6f6e74" d="M284.73 241.09l3.02-.63 1.53 1.85-.74 2.61-3.81-3.83z"/><path fill="#5a595d" d="M263.43 245.52l4.6-2.16c3.75 2.39 7.84 4.32 12.27 5.04l-.5 2.11-4.71-.47 3.02 1.66-6.02 1.57c-.32-1.48-.48-3.02-1.06-4.42-2.29-1.58-5.01-2.39-7.6-3.33z"/><path fill="#7a797f" d="M291.04 243l3.99.33-1.14 3.61-2.93-.93.08-3.01z"/><path fill="#6a6767" d="M238.87 244.04c1.3-.26 2.77-.04 3.74.94l-.72 1.83c-1.57-.04-2.79-1.27-3.02-2.77z"/><path fill="#666364" d="M253.73 250.45c2.46-1.01 4.41-2.9 6.54-4.44-.83 2.17-1.51 4.45-2.79 6.42-1.67 1.43-4.1 1.43-6.17 1.84-1.58-.67-3.09-1.51-4.61-2.3l.88-2.31c2.01.38 4.09 1.27 6.15.79z"/><path fill="#45464d" d="M323.08 251c5.76 2.18 11.35 4.8 17.23 6.63 4.3 1.32 8.47 3.02 12.46 5.08l-5.94 4.16c-1.14-.61-2.31-1.15-3.5-1.64l-.58 1.55-.92 2.49c-1.08-.66-2.16-1.29-3.24-1.91l2.7 8.94-1.74.02-.39.77.36.8c.45.05 1.33.13 1.77.17l-.7 2.73-1.4-.17c-1.23-.72-2.43-1.5-3.63-2.27l2.62-3.56c-1.41 0-2.81 0-4.22-.09l2.05-5.04-3.82 4.57-3.71.77 5.41 2.94-3.07.72-.78.19c-.96-1.73-2.09-3.39-2.67-5.28-.01-1.57.72-3.01 1.21-4.46-2.81 2.31-6.13 3.84-9.53 5.05l.45-.73c.75-1.41 1.59-2.83 1.9-4.42-.67-3.37-2.74-6.22-4.37-9.17 5.49.37 10.71 2.18 15.66 4.49-2.32-2.67-4.71-5.28-7.15-7.85l-5.72-1.71 3.26-3.77m12.06 13.16l-.35.83.34.84.83.34.84-.34.34-.82-.33-.84-.83-.35-.84.34z"/><path fill="#5f626e" d="M272.09 253.27l6.02-1.57 2.95 2.21 2.13 2.24-1.49 4.03c-3.65-.9-8.3-2.07-9.48-6.17l-.13-.74z"/><path fill="#777679" d="M281.06 253.91l3.69-1.81-1.56 4.05-2.13-2.24z"/><path fill="#575860" d="M287.95 257.78c3.73-2.11 7.52-4.12 11.45-5.83l3.1 1.94-1.28 3.36-.61 1.57 2.32 3.87-1.04.21.09-1.73-.76-.37-.79.37-.51 1.65c-.76 1.34-1.6 2.63-2.43 3.93-1.85-.9-3.83-1.6-5.45-2.88-1.8-1.7-2.86-3.99-4.09-6.09m2.35 3.32c2.08.73 4.15 1.49 6.2 2.3l-1.05-4.49-5.15 2.19z"/><path fill="#3f3f46" d="M301.22 257.25c3.77.17 7.47-.7 11.19-1.1 2.99.75 2.77 4.42 3.11 6.84-1.21 1.14-2.28 2.47-2.88 4.03l-2.58-.04 1.84 5.02-5.6-6.94c-2.99 1.11-6.1 1.8-9.23 2.34l.42-.65c.83-1.3 1.67-2.59 2.43-3.93l1.97.08 1.04-.21-2.32-3.87.61-1.57m5.03 5.86v.83l.72.41.71-.42v-.82l-.72-.41-.71.41z"/><path fill="#697297" d="M290.3 261.1l5.15-2.19 1.05 4.49-6.2-2.3z"/><path fill="#9d9a9e" d="M300.43 261.17l.79-.37.76.37-.09 1.73-1.97-.08.51-1.65z"/><path fill="#111213" opacity=".6" d="M306.25 263.11l.71-.41.72.41v.82l-.71.42-.72-.41v-.83z"/><path fill="#807f85" d="M315.52 262.99c.14 1.31.15 2.64.02 3.95a18.74 18.74 0 0 1-2.9.08c.6-1.56 1.67-2.89 2.88-4.03z"/><path fill="#7b7a82" d="M315.38 269.01l3.4-4.79-.77 4.57-2.72.97.09-.75z"/><path d="M335.14 264.16l.84-.34.83.35.33.84-.34.82-.84.34-.83-.34-.34-.84.35-.83zm7.61 2.62c3.79 4.5 9.25 6.97 14.6 9.08l-1.17 3.61c-4.88-3.26-9.45-6.97-14.35-10.2l.92-2.49z" fill="#626269"/><path fill="#8a8b95" d="M343.33 265.23l3.5 1.64c3.93 2.47 7.28 5.7 10.52 8.99-5.35-2.11-10.81-4.58-14.6-9.08.15-.38.44-1.16.58-1.55z"/><path fill="#5c5a5f" d="M357.26 268.61c-1.34-2.06 1.25-4.6 3.41-3.71.9 1.26.2 3.01.36 4.48l1.66 3.16c-2.22-.62-4.77-1.42-5.43-3.93z"/><path fill="#61667e" opacity=".95" d="M310.06 266.98l2.58.04a18.74 18.74 0 0 0 2.9-.08l-.16 2.07-.09.75-2.08.74 6.29 2.93-.45.73c-2.44-.52-4.79-1.38-7.15-2.16l-1.84-5.02z"/><path fill="#949196" d="M319.19 268.26l.84-.34.83.34.34.83-.34.83-.84.35-.83-.35-.34-.83.34-.83z"/><path fill="#828186" d="M332.19 274.23l3.82-4.57-2.05 5.04-1.77-.47z"/><path fill="#6a6e83" d="M328.48 275l3.71-.77 1.77.47 4.22.09-2.62 3.56 3.63 2.27-5.34-.3-3.03-1.66 3.07-.72-5.41-2.94z"/><path fill="#5c5a5c" d="M360.42 275.04l2.32-1.69 1.23 4.45-.88-.49c-.86-.81-1.75-1.56-2.67-2.27z"/><path fill="#a09da0" d="M339.55 276.32l1.74-.02v1.76l-1.77-.17-.36-.8.39-.77z"/></svg>