<svg xmlns="http://www.w3.org/2000/svg" width="512" height="512" viewBox="0 0 384 384" xmlns:v="https://vecta.io/nano"><path fill="#232323" d="M162.66 134.24c3.79-1.13 8.55-1.55 11.6 1.48-2.01.4-3.97 1.14-6.03 1.2-2.06-.37-3.76-1.73-5.57-2.68z"/><path fill="#3f3e3f" d="M157.12 139.24c.68-2.66 3.38-3.77 5.54-5 1.81.95 3.51 2.31 5.57 2.68 2.06-.06 4.02-.8 6.03-1.2 2.94.25 5.61 1.68 8.37 2.62l-2.67 2.73-6.57-3.34-1.97 1.55c-2.32.2-4.77.11-6.89 1.19-2.54 1.5-4.49 3.77-6.58 5.8-.66-2.26-1.75-4.68-.83-7.03z"/><path fill="#777577" d="M171.42 139.28l1.97-1.55 6.57 3.34.23 3.74-6.03-3.2-2.74-2.33z"/><path fill="#4c8291" opacity=".98" d="M164.53 140.47c2.12-1.08 4.57-.99 6.89-1.19l2.74 2.33c-3.15 0-6.45-.09-9.38 1.22-2.83 1.33-3.82 4.56-4.84 7.26l-1.99-3.82c2.09-2.03 4.04-4.3 6.58-5.8z"/><path fill="#6eb6c8" d="M179.96 141.07l2.67-2.73.04.81.08 4.61-1.09 1.78-1.47-.73-.23-3.74z"/><path fill="#373637" d="M182.67 139.15c5.58.93 10.55 3.72 15.9 5.36 3.52 1.21 8.29-.28 10.55 3.4 3.43 4.44 9.75-.11 13.93 3.05-4.49 1.23-9.21 1.41-13.74.31a46.23 46.23 0 0 0-1.64-3.4c-.31-.11-.92-.35-1.23-.46a43.47 43.47 0 0 0-3.5-1l-.69-.15c-.55.87-1.07 1.75-1.55 2.65-6.03-1.57-11.84-3.93-17.95-5.15.02-1.54-.03-3.07-.08-4.61z"/><path fill="#292829" d="M164.78 142.83c2.93-1.31 6.23-1.22 9.38-1.22l6.03 3.2 1.47.73 5.74 2.48-3.12.17c-2.42.28-5.15.29-7.06 2.04-2.46 2.11-4.08 4.98-5.78 7.69l-1.4 2.31c-3.57-3.14-7.63-5.98-10.1-10.14 1.02-2.7 2.01-5.93 4.84-7.26z"/><path fill="#656365" d="M181.66 145.54l1.09-1.78c6.11 1.22 11.92 3.58 17.95 5.15a115.21 115.21 0 0 0-1.44 3.65c-4.02-1.33-7.92-3-11.86-4.54-1.93-.78-3.86-1.59-5.74-2.48z"/><path fill="#609cad" d="M202.25 146.26l.69.15-1.45 6.62-.35 1.52-1.88-1.99 1.44-3.65 1.55-2.65z"/><path fill="#58595a" d="M202.94 146.41l3.5 1-2 8.82-2.95-3.2 1.45-6.62z"/><path fill="#587079" d="M206.44 147.41l1.23.46 1.64 3.4c-.36 1.5-.85 2.97-1.42 4.41l-3.45.55 2-8.82z"/><path fill="#191a1a" d="M209.12 147.91c4.58-.09 9.11-1.17 13.7-1.05 3.68 1.92 7.61 5.42 6.98 10.01.25 2.33-1.94 3.41-3.52 4.56l.59-2.67-5.03-.05c.96-1.68-2.17-3.55-2.45-1.24l.72 1.45c-1.84.26-3.67.62-5.49.99l-.45-.5-1.36-.4-2.56-.72-2.48 1.91c-3.25.22-6.51.7-9.57 1.85-2.34-2.4-4.53-5.05-7.43-6.8-2.12-1.32-4.95-.82-6.88.6-1.69 1.42-2.66 3.46-3.77 5.32-1.71.92-3.37 1.92-5.04 2.89l2.93-.51 1.47 6.8c-2.89.8-5.71 1.8-8.52 2.83 1.4-3.22 2.69-6.49 3.5-9.91l-4.42-3.04 1.4-2.31a82.15 82.15 0 0 1 .92 3.05c1.36-2.48 2.53-5.1 4.37-7.27 2.11-2.33 4.89-3.9 7.55-5.51a32.61 32.61 0 0 1 3.12-.17c3.94 1.54 7.84 3.21 11.86 4.54l1.88 1.99.35-1.52c.96 1.08 1.92 2.17 2.95 3.2 1.15-.16 2.3-.36 3.45-.55 7.08.95 14.2-.3 21.28.48-2.03-1.75-4.01-3.55-6.12-5.2-4.18-3.16-10.5 1.39-13.93-3.05m-11.55 7.03c.56 1.63-.12 4.19 1.53 5.16 3.13.12 6.18-.73 9.22-1.36-3.51-1.47-7.13-2.65-10.75-3.8z"/><path fill="#42889a" d="M177.22 150.23c1.91-1.75 4.64-1.76 7.06-2.04-2.66 1.61-5.44 3.18-7.55 5.51-1.84 2.17-3.01 4.79-4.37 7.27l-.92-3.05c1.7-2.71 3.32-5.58 5.78-7.69z"/><path fill="#434243" d="M209.31 151.27c4.53 1.1 9.25.92 13.74-.31 2.11 1.65 4.09 3.45 6.12 5.2-7.08-.78-14.2.47-21.28-.48.57-1.44 1.06-2.91 1.42-4.41z"/><path fill="#333233" d="M183.89 155.85c1.93-1.42 4.76-1.92 6.88-.6 2.9 1.75 5.09 4.4 7.43 6.8a63.67 63.67 0 0 1-1.28.42c-5.48-1.34-11.18-2.84-16.8-1.3 1.11-1.86 2.08-3.9 3.77-5.32z"/><path fill="#080808" opacity=".45" d="M219.39 157.47c.28-2.31 3.41-.44 2.45 1.24l-1.73.21-.72-1.45z"/><path fill="#beffff" d="M207.77 160.2l2.48-1.91 2.56.72-2.85.22a16.96 16.96 0 0 0 4.47 6.22l-.26-6.04.45.5.96 1.15c1.21 4.51 2.18 9.1 2.58 13.75l.59 5.12c-.4 5.67-.13 11.35-.15 17.02l-.26 2.42c-1.17.4-2.34.82-3.52 1.16l-2.27-1.2.81-2.82c.43-2.21.68-4.45.98-6.68l2.01-2.57c-1.07-1.51-2.09-3.06-3.06-4.62 1.49.98 3.01 1.89 4.6 2.72-.27-2.22-.07-4.63-1.09-6.67-1.1-1.22-2.55-2.03-3.88-2.95.08-1.68.16-3.36.02-5.04a11.58 11.58 0 0 0 3.83 3.98c-.28-2.62-.68-5.23-1.13-7.83l-2.84 2.87-.45.44c.39-2.69-.11-5.42-2.11-7.38l-2.47-2.58m7.33 28.78c-.04 2.85-.07 5.69.02 8.54 3.73-1.05 2.5-5.6 2.88-8.48l-2.9-.06z"/><path fill="#edffff" d="M209.96 159.23l2.85-.22 1.36.4.26 6.04a16.96 16.96 0 0 1-4.47-6.22z"/><path fill="#434247" d="M214.62 159.91l5.49-.99 1.73-.21 5.03.05-.59 2.67-2 1.02c3.19 1.44 6.67 2.53 9.34 4.87 1.98 1.77 1.37 4.64 1.33 6.98l-.05-.67-19.32-12.57-.96-1.15z"/><path fill="#68b5c8" d="M180.12 161.17c5.62-1.54 11.32-.04 16.8 1.3-5.49 1.88-11.37-.63-16.99.8l-1.92.28-2.93.51 5.04-2.89z"/><path fill="#444248" d="M198.2 162.05c3.06-1.15 6.32-1.63 9.57-1.85l2.47 2.58c-1.2 2.49-2.59 4.92-4.62 6.83-3.59 3.43-6.49 7.55-10.39 10.65 1.74 2.99 3.99 5.63 6.63 7.86l-5.19 2.04c3.66 1.35 7.74 2.03 10.75 4.7-1.6 1.3-3.39 2.4-4.81 3.89-.83 1.68-.46 3.64-.46 5.44v1.74l-2.31-.93-1.89-.72-1.82-.65c.72-1.5 1.33-3.04 1.96-4.58-5.93 1.92-11.01 5.69-16.84 7.83l-3.77 1.31.51 3.05c-1.32-.58-2.62-1.24-4.02-1.59-2.17.25-4.06 1.47-6.05 2.27-2.85 1.34-5.98 1.87-9.1 2.06-.69-.95-1.39-1.9-2.12-2.82l.37-3.93c3.76-.73 7.35-2.16 10.58-4.23l.63.27c2 .08 4.46-.53 4.92-2.81.89-4.06.95-8.25 1.39-12.37.62 3.5 2.36 6.65 4.03 9.73.31-.22.92-.68 1.22-.9 1.69-.75 3.41-1.41 5.14-2.06l1.3-.49 2.09-.76c-.92-2.61-2.5-5.3-1.78-8.14 1.09-4.24 2.98-8.23 4.27-12.42-2.3.97-4.56 2.03-6.8 3.13-5.38 2.73-11.49 3.43-16.97 5.93-2.11.81-4.13 1.81-6.18 2.76l-2.14.88c-1.66.43-3.34.77-5.01 1.13l.19-1.6c1.08-2.25 3.3-3.63 5.23-5.09 3.79-2.54 7.46-5.41 11.78-7.01 2.81-1.03 5.63-2.03 8.52-2.83 1.54-.4 3.11-.72 4.67-1.06-1.19-2.15-2.52-4.24-4.22-6.02 5.62-1.43 11.5 1.08 16.99-.8l1.28-.42z"/><path fill="#58555d" d="M215.58 161.06c6.34 4.33 12.88 8.39 19.32 12.57-1.63.51-3.23 1.24-4.96 1.39-2.29-.43-4.4-1.54-6.71-1.86-1.79.17-3.41 1.03-5.07 1.65-.4-4.65-1.37-9.24-2.58-13.75z"/><path fill="#55535a" d="M205.62 169.61c2.03-1.91 3.42-4.34 4.62-6.83 2 1.96 2.5 4.69 2.11 7.38-3.07 3.13-6.6 5.81-9.4 9.19-.92 2.86 2.39 4.29 4.46 5.21 2.8 1.03 5.18 2.86 6.93 5.27-.3 2.23-.55 4.47-.98 6.68l-2.93 1.37a63.14 63.14 0 0 0-3.19 1.59c-1.16.79-2.29 1.63-3.42 2.46l6.96 3.33-.48.73c-1.39 1.17-2.92 2.84-4.94 2.3-2-.25-2.35-2.64-3.21-4.1 0-1.8-.37-3.76.46-5.44 1.42-1.49 3.21-2.59 4.81-3.89-3.01-2.67-7.09-3.35-10.75-4.7l5.19-2.04c-2.64-2.23-4.89-4.87-6.63-7.86 3.9-3.1 6.8-7.22 10.39-10.65z"/><path fill="#2a2a2b" d="M178.01 163.55l1.92-.28c1.7 1.78 3.03 3.87 4.22 6.02l-4.67 1.06-1.47-6.8z"/><path fill="#f4ffff" d="M212.8 169.72l2.84-2.87 1.13 7.83a11.58 11.58 0 0 1-3.83-3.98l-.14-.98z"/><path fill="#6e6b73" d="M212.35 170.16l.45-.44.14.98c.14 1.68.06 3.36-.02 5.04-.15 2.29-.97 4.81.37 6.9l3.06 4.62-2.01 2.57c-1.75-2.41-4.13-4.24-6.93-5.27-2.07-.92-5.38-2.35-4.46-5.21 2.8-3.38 6.33-6.06 9.4-9.19z"/><path fill="#4c484d" d="M223.23 173.16c2.31.32 4.42 1.43 6.71 1.86 1.73-.15 3.33-.88 4.96-1.39l.05.67c-.15 1.63-.5 3.23-.79 4.84-4.41.4-8.66 2.08-11.8 5.27l-3.61-4.48-.59-5.12c1.66-.62 3.28-1.48 5.07-1.65z"/><path fill="#2d2c30" d="M184.06 176.18l6.8-3.13c-1.29 4.19-3.18 8.18-4.27 12.42-.72 2.84.86 5.53 1.78 8.14l-2.09.76c-2.1-4.36-1.71-9.18-.45-13.71-4.3.13-8.57.68-12.85 1.11l-5.89.34c5.48-2.5 11.59-3.2 16.97-5.93z"/><path fill="#f8ffff" d="M213.29 182.64c-1.34-2.09-.52-4.61-.37-6.9 1.33.92 2.78 1.73 3.88 2.95 1.02 2.04.82 4.45 1.09 6.67-1.59-.83-3.11-1.74-4.6-2.72z"/><path fill="#58565e" d="M222.36 184.41c3.14-3.19 7.39-4.87 11.8-5.27l.9-.02 1.22 1.33c-1.55 2.7-3.15 5.4-5.06 7.86-3.25 4.04-7.88 6.7-12.62 8.64.02-5.67-.25-11.35.15-17.02 1.16 1.52 2.4 2.99 3.61 4.48z"/><path fill="#35363a" d="M236.28 180.45l.41-.7c.34 3.89-.29 7.78-1.96 11.32l1.1 3.77-2.69-2.59c-.57 1.39-1.13 2.78-1.76 4.13-.79 1.51-1.64 2.98-2.48 4.46 1.68.28 3.38.5 5.08.69l-.55 2.5 5.17-3.63c-.84 2.46-1.84 4.93-1.97 7.56-.32 5.72 3.74 10.7 2.93 16.48-.89-2.34-1.51-4.89-3.11-6.87-2.29-2.17-5.29-3.36-8.03-4.85l.68 5.42c-.42 1.98 2.05 3.8 3.4 1.83.31 1.44.57 2.89.84 4.34-3.6-.22-6.71-2.09-9.26-4.53-1.65-2.01-3.18-4.12-4.92-6.05l-1.11-.37c-1.41 1.3-2.74 2.69-4.06 4.09l-2.64 2.69c-1.19 1.07-2.41 2.12-3.69 3.09-1.48-.81-2.95-1.61-4.37-2.51l3.19-2.53c1.57-1.37 3.03-2.89 4.23-4.6 1.88-3.73 2.95-7.8 3.99-11.83l6.8 3.62-3.16-6.01.26-2.42c4.74-1.94 9.37-4.6 12.62-8.64 1.91-2.46 3.51-5.16 5.06-7.86m-10.57 18.48c-.53 2.34-.21 4.87 2.06 6.18l-1.56.98c1.82 2.79 3.98 5.38 6.77 7.25l.38-4.49 1.93.43c-2.36-4.15-6.51-6.77-9.58-10.35m-10.08 8.59c-1.29.79-1.47 2.38-2.01 3.66 1.18-.71 2.39-1.35 3.57-2.06 1.62 1.37 3.16 2.87 5.05 3.87 1.43.2 2.53-1.07 3.76-1.61l-1.79-2.55.65-2.25c-1.31.3-2.64.84-4.01.6-1.74-.13-3.75-1.08-5.22.34z"/><path fill="#275c68" d="M172.98 181.77c4.28-.43 8.55-.98 12.85-1.11-1.26 4.53-1.65 9.35.45 13.71l-1.3.49-.6-1.98-4.54 4.04-1.22.9c-1.67-3.08-3.41-6.23-4.03-9.73.04-2.22-.7-4.33-1.61-6.32z"/><path fill="#131413" d="M167.09 182.11l5.89-.34c.91 1.99 1.65 4.1 1.61 6.32-.44 4.12-.5 8.31-1.39 12.37-.46 2.28-2.92 2.89-4.92 2.81l.47-3.21.81-5.29c-3.14-.34-6.33-.6-9.45.02-1.12.78-2.13 1.7-3.09 2.66-5-.79-10.05-.31-15.08-.22-2.41.16-4.51-1.13-6.57-2.17-4.59-2.35-10.26-4.28-15.24-1.99l-2.39 1.34c-2.19-1.02-4.47-1.84-6.79-2.53l.16 3.27c1.29-.11 2.57-.26 3.85-.44l-.75.5c-1.1.73-2.26 1.38-3.26 2.25-.82 2.45 1.77 3.9 3.76 4.36l1.6-.25 1.75-.32.41.74c.77 1.15 1.59 2.26 2.41 3.38-2.07.16-4.19.43-6.24-.04-1.47-1.44-3.18-2.85-3.84-4.87-.58-2.53-.46-5.15-.56-7.72l-2.88 1.12c2.64-3.34 7.11-2.05 10.77-2.54 3.28-.01 6.66-1.29 9.86-.15 6.64 2.72 13.94 1.81 20.92 2.43 7.36.85 14.73-.61 22.09.33-.7-3.48-1.84-6.83-3.15-10.12l-6.94 1.06c2.05-.95 4.07-1.95 6.18-2.76z"/><path fill="#161e20" opacity=".52" d="M145.15 186.19c2.24-1 4.74-1.06 7.14-1.32l-1.26 1.47-5.47.42 1.57 4.18 4.37-4.02 2.26-.04 5.01-1.13c-3.78 2.06-7.6 4.19-11.74 5.42-1.49-.25-2.89-.87-4.3-1.4.7-1.23 1.01-2.93 2.42-3.58z"/><path fill="#2ad3d5" opacity=".93" d="M152.29 184.87l.97-.11.69.52-.19 1.6-2.26.04-.47-.58 1.26-1.47z"/><path fill="#39373d" opacity=".94" d="M145.56 186.76l5.47-.42.47.58-4.37 4.02-1.57-4.18z"/><path fill="#feffff" d="M215.1 188.98l2.9.06c-.38 2.88.85 7.43-2.88 8.48l-.02-8.54z"/><path fill="#47575e" d="M110.95 191.88c2.32.69 4.6 1.51 6.79 2.53l.32 6.84-1.75.32.07-7.52-1.42.66-3.85.44-.16-3.27z"/><path fill="#525153" d="M120.13 193.07c4.98-2.29 10.65-.36 15.24 1.99a49.93 49.93 0 0 0-.73 2.05c-2.18-.89-4.33-2.09-6.72-2.2-2.21.07-4.34.73-6.47 1.26 1 1.69 1.77 3.65 3.35 4.89 2.23 1.38 4.84 1.93 7.31 2.69-2.8.27-5.6.58-8.38 1.05l-2.85.57c-.82-1.12-1.64-2.23-2.41-3.38l1.66-8.92z"/><path fill="#696769" opacity=".96" d="M233.14 192.25l2.69 2.59.82.77-2.26 4.07-3.01-3.3 1.76-4.13z"/><path fill="#5ab4c6" opacity=".91" d="M107.36 193.86l2.88-1.12c.1 2.57-.02 5.19.56 7.72.66 2.02 2.37 3.43 3.84 4.87-2.22-1.37-6.12-1.79-6.52-4.83-.06-1.41-.11-2.82-.38-4.2l-.38-2.44z"/><path fill="#527e8b" d="M117.74 194.41l2.39-1.34-1.66 8.92-.41-.74-.32-6.84z"/><path fill="#34717e" d="M179.84 196.92l4.54-4.04.6 1.98-5.14 2.06z"/><path fill="#5a8997" d="M114.96 194.71l1.42-.66-.07 7.52-1.6.25-.5-6.61.75-.5z"/><path fill="#3e3f41" d="M160.11 194.79c3.12-.62 6.31-.36 9.45-.02l-.81 5.29c-2.29-2.17-4.88-4.07-7.9-5.09l-.74-.18z"/><path fill="#888588" d="M121.45 196.17c2.13-.53 4.26-1.19 6.47-1.26 2.39.11 4.54 1.31 6.72 2.2l-.58 2.79-.55 4.87-2.7.05c-2.36.01-4.72-.03-7.08-.02l8.38-1.05c-2.47-.76-5.08-1.31-7.31-2.69-1.58-1.24-2.35-3.2-3.35-4.89z"/><path fill="#403f3f" d="M134.64 197.11l.73-2.05c2.06 1.04 4.16 2.33 6.57 2.17 5.03-.09 10.08-.57 15.08.22-.8 2.21-1.44 4.47-1.87 6.78-6.96-1.8-14.01-3.16-21.09-4.33l.58-2.79z"/><path fill="#5da0b2" d="M157.02 197.45c.96-.96 1.97-1.88 3.09-2.66l.74.18-2.09 4.16c-.99 2.59-1.42 5.35-1.69 8.1l-.37 3.93-2.24-2.5.69-4.43c.43-2.31 1.07-4.57 1.87-6.78z"/><path fill="#5d5b5c" d="M160.85 194.97c3.02 1.02 5.61 2.92 7.9 5.09l-.47 3.21-.63-.27-8.89-3.87 2.09-4.16z"/><path fill="#2f5561" opacity=".81" d="M108.12 200.5c-1.94.27-2.26-4.14-.38-4.2.27 1.38.32 2.79.38 4.2z"/><path fill="#727173" d="M110.95 197.46c1-.87 2.16-1.52 3.26-2.25l.5 6.61c-1.99-.46-4.58-1.91-3.76-4.36z"/><path fill="#434245" d="M234.39 199.68l2.26-4.07 2.65 4.3-.7.49-5.17 3.63.55-2.5.41-1.85z"/><path fill="#77b1c1" d="M210.43 197.88l2.93-1.37-.81 2.82 2.27 1.2-2.45.42-1.94-3.07z"/><path fill="#111010" opacity=".4" d="M228.9 200.84l2.48-4.46 3.01 3.3-.41 1.85-5.08-.69z"/><path fill="#738189" d="M207.24 199.47l3.19-1.59 1.94 3.07 2.45-.42 3.52-1.16 3.16 6.01-6.8-3.62c-1.04 4.03-2.11 8.1-3.99 11.83-1.34-2.38-1.67-5.1-.41-7.6l.48-.73 1.29-1.95c-1.58-1.31-3.18-2.61-4.83-3.84z"/><path fill="#7c7a7c" d="M157.07 207.23c.27-2.75.7-5.51 1.69-8.1 3.04 1.1 5.96 2.51 8.89 3.87-3.23 2.07-6.82 3.5-10.58 4.23z"/><path fill="#313337" d="M181.25 206.88c5.83-2.14 10.91-5.91 16.84-7.83-.63 1.54-1.24 3.08-1.96 4.58l-3.58 4.52c1.86-1.2 3.69-2.46 5.4-3.87l1.89.72-.06 4.76c.81-1.27 1.63-2.53 2.37-3.83v-1.74c.86 1.46 1.21 3.85 3.21 4.1 2.02.54 3.55-1.13 4.94-2.3-1.26 2.5-.93 5.22.41 7.6-1.2 1.71-2.66 3.23-4.23 4.6l-.35-2.95-3.87 1.4-3.72 1.58c1.01 2.1 1.6 4.79 3.84 5.95 1.75.98 3.66-.28 5.28-.94 1.28-.97 2.5-2.02 3.69-3.09 1.22.84 2.51 1.56 3.71 2.43l-.15-3.59c2.29 3.61 4.68 7.19 6.38 11.13l-.81.27-3.13.91-5.04-4.7-2.39 2.59.16-3.94c-1.62.84-3.01 2-4.06 3.49l2.59 1.95c1.97 1.44 4.01 2.78 6.06 4.1l-1.69 5.32c-2.13-1.87-4.32-3.66-6.49-5.47a26.54 26.54 0 0 0-2.59-1.79c-3.01 1.3-5.3 3.74-7.7 5.89l2.43 1.96c-1.49 1.21-2.94 2.48-4.22 3.92l-4.37 1.79c.2 1.46.3 2.95.76 4.36.75 1.25 2.15 1.92 3.25 2.83a73.42 73.42 0 0 0 .36 2.98c-.76 2.45-1.66 4.86-2.46 7.3l-.55 1.74c2.23 1.99 4.42 4.29 4.71 7.44l-.01 2.23-1.36-.84c-.74-1.37-1.38-2.78-2.01-4.18l-5.14-.77c.74-3.83 3.39-8.05.61-11.64-1.53-1.74-3.92-2.32-5.9-3.4-2.69-1.45-5-3.46-7.43-5.3-2.44-1.89-5.7-1.9-8.6-2.48l1.82-.15c2.47-.33 5.21.15 7.48-1.04 3.41-2.65 5.45-6.57 7.92-10.03l-.06 1.77c3.69-2.9 5.89-7.18 9.33-10.3 2.4-.66 4.94-.43 7.41-.52-1.85-2.35-3.61-4.87-6.13-6.56-1.82-1.21-4.1-1.14-6.19-1.39 1.4-1.52 2.71-3.11 4-4.71-2.79-1.4-4.99-3.64-6.55-6.32l-4.05-.54m9.28 47.22c-1.04 1.3 1.22 2.87 2.16 1.55 1.03-1.31-1.23-2.88-2.16-1.55z"/><path fill="#746965" opacity=".97" d="M225.71 198.93c3.07 3.58 7.22 6.2 9.58 10.35l-1.93-.43c-2-1.04-3.85-2.33-5.59-3.74-2.27-1.31-2.59-3.84-2.06-6.18z"/><path fill="#1e1e1e" d="M134.06 199.9c7.08 1.17 14.13 2.53 21.09 4.33l-.69 4.43-.82 2.03c-1.87-.23-3.74-.42-5.59-.73-2.1-.39-4.1-1.19-6.14-1.8-3.68-1.19-7.69-1.37-11.1-3.34l2.7-.05c.16-1.63.32-3.25.55-4.87z"/><path fill="#3a4045" d="M203.82 201.93l3.42-2.46 4.83 3.84-1.29 1.95-6.96-3.33z"/><path fill="#6c6a6c" d="M192.55 208.15l3.58-4.52 1.82.65c-1.71 1.41-3.54 2.67-5.4 3.87z"/><path fill="#3f6273" d="M199.84 205l2.31.93-2.37 3.83.06-4.76z"/><path fill="#060505" opacity=".22" d="M226.21 206.09l1.56-.98c1.74 1.41 3.59 2.7 5.59 3.74l-.38 4.49c-2.79-1.87-4.95-4.46-6.77-7.25z"/><path fill="#585b5f" d="M215.63 207.52c1.47-1.42 3.48-.47 5.22-.34 1.37.24 2.7-.3 4.01-.6l-.65 2.25 1.79 2.55c-1.23.54-2.33 1.81-3.76 1.61-1.89-1-3.43-2.5-5.05-3.87l-3.57 2.06c.54-1.28.72-2.87 2.01-3.66z"/><path fill="#131313" d="M177.48 208.19l3.77-1.31 4.05.54c1.56 2.68 3.76 4.92 6.55 6.32l-4 4.71-5.86 5.88c-5.54-1.3-9.55-5.45-13.09-9.62-3.67.01-7.37.02-10.99-.7l.91-.03c3.12-.19 6.25-.72 9.1-2.06 1.99-.8 3.88-2.02 6.05-2.27 1.4.35 2.7 1.01 4.02 1.59l-.51-3.05z"/><path fill="#37bac2" d="M153.64 210.69l.82-2.03 2.24 2.5 2.12 2.82-.91.03-.7-.47-3.57-2.85z"/><path fill="#39383d" opacity=".91" d="M148.05 209.96l5.59.73 3.57 2.85c-3.26 1.34-6.55 2.62-9.97 3.46.21-2.35.49-4.7.81-7.04z"/><path fill="#545459" d="M213.99 217.45l4.06-4.09-.6 4.6c2.13.85 4.33 1.58 6.63 1.82 2.55 2.44 5.66 4.31 9.26 4.53l-.84-4.34c-.03-1.65-2.07-2.26-3.4-1.83-.19-1.81-.44-3.62-.68-5.42 2.74 1.49 5.74 2.68 8.03 4.85 1.6 1.98 2.22 4.53 3.11 6.87l.72 2.26c-1.43.77-2.98 1.39-4.23 2.44-1.69 1.99-2.8 4.44-4.78 6.19a87.7 87.7 0 0 1-11.31 8.53c-3.03 1.79-4.15 5.38-6.57 7.79l-.44-8.28 2.25 1.34 2.31-.92c-.29-2.29-.38-4.76-2.21-6.43a65.56 65.56 0 0 0-.39 4.85c-.62-.72-1.26-1.43-1.93-2.11l1.69-5.32c-2.05-1.32-4.09-2.66-6.06-4.1l1.31-1.5 2.39-2.59 5.04 4.7 3.13-.91c-.35 2.38-.46 4.79-.47 7.2 3.05-1.35 1.77-4.99 1.28-7.47-1.7-3.94-4.09-7.52-6.38-11.13l-.92-1.53m11.12 8.88c.64 1.54.76 3.48 2.08 4.64 1.95.09 3.89-.21 5.82-.44-1.48-2.04-3.13-3.94-4.88-5.75l-3.02 1.55z"/><path fill="#626f80" d="M218.05 213.36l1.11.37c1.74 1.93 3.27 4.04 4.92 6.05-2.3-.24-4.5-.97-6.63-1.82l.6-4.6z"/><path fill="#88878c" d="M202.26 216.64l3.87-1.4.35 2.95-3.19 2.53-1.03-4.08z"/><path fill="#505057" d="M198.54 218.22l3.72-1.58 1.03 4.08 4.37 2.51c-1.62.66-3.53 1.92-5.28.94-2.24-1.16-2.83-3.85-3.84-5.95z"/><path d="M187.85 218.45c2.09.25 4.37.18 6.19 1.39 2.52 1.69 4.28 4.21 6.13 6.56-2.47.09-5.01-.14-7.41.52-3.44 3.12-5.64 7.4-9.33 10.3l.06-1.77c2.72-4.17 6.6-7.66 7.95-12.63-3.18.33-6.34.79-9.45 1.51l5.86-5.88zm-6.22 38.36l7.36 4.95-.79-3.91c2.78 3.59.13 7.81-.61 11.64l5.14.77c.63 1.4 1.27 2.81 2.01 4.18-1.2.85-2.16 2.48-3.81 2.43-1.87.01-3.01-1.77-4.27-2.88l-1.93-2.06c.21-1.67.52-3.35.41-5.04-1.3-1.58-2.99-2.78-4.33-4.32-.3-1.95.36-3.89.82-5.76m7.84 16.35c-.45 1.39.03 1.87 1.44 1.43.44-1.4-.04-1.88-1.44-1.43z" fill="#5b5b61"/><path fill="#caf5ff" d="M211.35 220.14l2.64-2.69.92 1.53.15 3.59-3.71-2.43z"/><path fill="#6c6969" d="M229.1 218.14c1.33-.43 3.37.18 3.4 1.83-1.35 1.97-3.82.15-3.4-1.83z"/><path fill="#25272a" d="M181.99 224.33c3.11-.72 6.27-1.18 9.45-1.51-1.35 4.97-5.23 8.46-7.95 12.63-2.47 3.46-4.51 7.38-7.92 10.03-2.27 1.19-5.01.71-7.48 1.04.44-1.59.83-3.24 1.88-4.55 3.25-4.35 7-8.33 10.2-12.73 1.08-1.43 1.41-3.21 1.82-4.91z"/><path fill="#656468" d="M225.11 226.33l3.02-1.55c1.75 1.81 3.4 3.71 4.88 5.75-1.93.23-3.87.53-5.82.44-1.32-1.16-1.44-3.1-2.08-4.64z"/><path fill="#cdf1ff" d="M206.02 228.73c1.05-1.49 2.44-2.65 4.06-3.49l-.16 3.94-1.31 1.5-2.59-1.95z"/><path fill="#7e7d81" d="M220.48 230.38l.81-.27c.49 2.48 1.77 6.12-1.28 7.47.01-2.41.12-4.82.47-7.2z"/><path fill="#6b859f" d="M196.2 238.73c2.4-2.15 4.69-4.59 7.7-5.89a26.54 26.54 0 0 1 2.59 1.79l-1.11 1.46-1.64-2.58-2.29 1.51a38.13 38.13 0 0 0 2.59 2.81l-7.84.9z"/><path fill="#e1fdff" d="M201.45 235.02l2.29-1.51 1.64 2.58-1.34 1.74-2.59-2.81z"/><path fill="#6b6b71" d="M206.49 234.63l6.49 5.47 1.93 2.11.29 2.5-2.25-1.34.44 8.28-.43-.92-2.26-5.09-.22-2.88c-2.22-2.2-5.2-3.21-8.16-3.92l-2.54 2.8-1.15-.95-2.43-1.96 7.84-.9 1.34-1.74 1.11-1.46z"/><path fill="#87858a" d="M215.3 237.36c1.83 1.67 1.92 4.14 2.21 6.43l-2.31.92-.29-2.5.39-4.85z"/><path fill="#323338" d="M202.32 238.84c2.96.71 5.94 1.72 8.16 3.92l-2.58 5.25c-2.31-2.2-4.84-4.16-7.52-5.88l-.6-.49 2.54-2.8z"/><path fill="#6c8dc9" d="M194.41 244.61c1.28-1.44 2.73-2.71 4.22-3.92l1.15.95.6.49.29.93-1.39 1.94-.29-3.28-2.93 1.69c.1 1.35 1.15 2.26 1.96 3.24l-.63.47-2.83-.53-.15-1.98z"/><path fill="#e1faff" d="M196.06 243.41l2.93-1.69.29 3.28-1.26 1.65c-.81-.98-1.86-1.89-1.96-3.24z"/><path fill="#505056" d="M200.38 242.13c2.68 1.72 5.21 3.68 7.52 5.88l2.58-5.25.22 2.88c-.17 2.63-.36 5.29.04 7.92l.53 2.51-3.2 4.08c-1.21 1.96-1.46 4.38-2.73 6.31-2.66 2.71-6.03 4.59-9.23 6.59-.29-3.15-2.48-5.45-4.71-7.44.13-.44.41-1.3.55-1.74l5.06-.11c-.8-2.42-1.72-4.8-2.6-7.19a73.42 73.42 0 0 1-.36-2.98l.97-2.92 2.65 2.16c-.21 1.94-.53 3.9-.32 5.87.39 2.32 2.33 4.47 4.71 4.81 1.57-.22 2.84-1.32 4.2-2.04-.28-2.3-.52-4.6-.89-6.88-.26-2.53-1.77-4.65-2.9-6.85-.7-1.52-1.29-3.09-1.8-4.68l-.29-.93z"/><path fill="#76767f" d="M200.67 243.06c.51 1.59 1.1 3.16 1.8 4.68l-5.08-.62.63-.47 1.26-1.65 1.39-1.94z"/><path fill="#69686e" d="M190.04 246.4l4.37-1.79.15 1.98.46 4.08-.97 2.92c-1.1-.91-2.5-1.58-3.25-2.83-.46-1.41-.56-2.9-.76-4.36z"/><path fill="#89878c" opacity=".97" d="M210.74 253.56c-.4-2.63-.21-5.29-.04-7.92l2.26 5.09-2.22 2.83z"/><path fill="#484649" d="M162.81 250.76c.93-1.54 2.25-2.78 3.46-4.09 1.9 2.12 4.34 3.61 7.03 4.48l-4.02 1.54c2.74 1.22 5.7 1.8 8.7 1.92l-3.11-5.46c2.43 1.84 4.74 3.85 7.43 5.3l-.67 2.36c-.46 1.87-1.12 3.81-.82 5.76 1.34 1.54 3.03 2.74 4.33 4.32.11 1.69-.2 3.37-.41 5.04l1.93 2.06c-4.6-.66-10.15.83-13.85-2.67 3 .79 6.04 1.45 9.06 2.15-3.54-3.02-7.02-6.25-11.32-8.18-2.06-2.83-4.58-5.27-6.86-7.9-1.64-1.76-1.59-4.48-.88-6.63m1.48 4.86c-.83 1.25.83 3.56 2.27 2.9.82-1.25-.84-3.55-2.27-2.9m10.47 2.71c.53 2.11 2.39 2.52 4.28 2.06l-1.15-2.62-3.13.56z"/><path fill="#5e5d61" d="M166.27 246.67c2.9.58 6.16.59 8.6 2.48 1.15 1.75 2.13 3.6 3.11 5.46-3-.12-5.96-.7-8.7-1.92l4.02-1.54c-2.69-.87-5.13-2.36-7.03-4.48z"/><path fill="#38383b" d="M195.02 250.67l-.46-4.08 2.83.53 5.08.62c1.13 2.2 2.64 4.32 2.9 6.85l-.35 5.39a74.06 74.06 0 0 0-7.35-7.15l-2.65-2.16z"/><path fill="#605f64" d="M197.35 258.7c-.21-1.97.11-3.93.32-5.87a74.06 74.06 0 0 1 7.35 7.15l1.24 1.49c-1.36.72-2.63 1.82-4.2 2.04-2.38-.34-4.32-2.49-4.71-4.81z"/><path fill="#4e5059" d="M190.53 254.1c.93-1.33 3.19.24 2.16 1.55-.94 1.32-3.2-.25-2.16-1.55z"/><path fill="#65646a" d="M164.29 255.62c1.43-.65 3.09 1.65 2.27 2.9-1.44.66-3.1-1.65-2.27-2.9z"/><path fill="#d5d4da" d="M181.63 256.81l.67-2.36c1.98 1.08 4.37 1.66 5.9 3.4l.79 3.91-7.36-4.95z"/><path fill="#8f8d91" d="M205.02 259.98l.35-5.39.89 6.88-1.24-1.49z"/><path fill="#67666a" d="M194.41 256.57l2.6 7.19-5.06.11 2.46-7.3z"/><path fill="#68656b" d="M174.76 258.33l3.13-.56 1.15 2.62c-1.89.46-3.75.05-4.28-2.06z"/><path fill="#5b5b61" d="M170.55 265.29c4.3 1.93 7.78 5.16 11.32 8.18l-9.06-2.15c-1.52-1.65-1.98-3.88-2.26-6.03z"/><path fill="#3a393b" d="M189.47 273.16c1.4-.45 1.88.03 1.44 1.43-1.41.44-1.89-.04-1.44-1.43z"/></svg>