<svg xmlns="http://www.w3.org/2000/svg" width="512" height="512" viewBox="0 0 384 384" xmlns:v="https://vecta.io/nano"><path fill="#2e2d2e" d="M192.66 136.74c3.4-1.19 7.33-.69 10.36 1.27 3.65 2.23 7.64 4.17 10.44 7.52 1.95 2.22 3.92 4.44 6.03 6.53l-1.41.48-.85.32c-3.02-2.01-5.84-4.3-8.55-6.7l1.02-2.42c.24-.23.71-.7.95-.94l-3.58-.57c-2.32-.94-4.47-2.39-6.96-2.81-2.17.13-4.24.87-6.34 1.32l-5.1.81c1.2-1.68 2.16-3.71 3.99-4.81z"/><path fill="#525152" d="M193.77 140.74c2.1-.45 4.17-1.19 6.34-1.32 2.49.42 4.64 1.87 6.96 2.81-2.35 1.37-4.48 3.06-6.49 4.88-1.16-1.25-2.42-2.4-3.72-3.49l2.29-.05-5.38-2.83z"/><path fill="#487f8e" opacity=".97" d="M188.67 141.55l5.1-.81 5.38 2.83-2.29.05c-3.32-.13-6.65.11-9.85.99l1.66-3.06z"/><path fill="#212122" d="M187.01 144.61c3.2-.88 6.53-1.12 9.85-.99 1.3 1.09 2.56 2.24 3.72 3.49l1.42 1.79c2.96 4.13 7.81 6.32 10.79 10.44-2.32-1.22-4.71-2.3-6.94-3.68-1.65-1.36-3.12-2.91-4.76-4.27-4.3-2.91-9.99-2.53-14.08.55.11-1.85.09-3.7.04-5.55l-.04-1.78z"/><path fill="#5ca6b9" d="M200.58 147.11c2.01-1.82 4.14-3.51 6.49-4.88l3.58.57-.95.94c-2.87 1.24-5.57 2.84-7.7 5.16l-1.42-1.79z"/><path fill="#363436" d="M202 148.9c2.13-2.32 4.83-3.92 7.7-5.16l-1.02 2.42c2.71 2.4 5.53 4.69 8.55 6.7-1.59 1.87-2.63 4.12-3.52 6.39 2.28-1.63 4.38-3.73 4.37-6.71l1.41-.48c2.2-.51 4.4.12 6.07 1.6-2.58.76-5.83.99-7.39 3.53-1.1 1.96-1.17 4.29-1.58 6.46-1.48-1.25-2.49-2.91-3.8-4.31-2.98-4.12-7.83-6.31-10.79-10.44z"/><path fill="#151515" d="M183.85 157.9c1.14-3.83.48-8.24 3.2-11.51.05 1.85.07 3.7-.04 5.55l-.08.76c4.69-.7 9.41-1.23 14.16-1.31 1.64 1.36 3.11 2.91 4.76 4.27-.25 2.86-.39 5.73-.49 8.6 5.79.51 12.21.91 16.42 5.5l-3.97 4.72-1.69-.57-2.3-.91-.76-.09c-3.77-.48-7.55-.84-11.34-1.17l5.2-1.46 1.11-2.3c-1.84-.05-3.69-.08-5.52-.24.17-2.72.6-5.51-.01-8.21-1.28-3.03-4.89-4.78-8.09-4.11-3.98.64-6.75 3.82-9.81 6.13-1.21.72-2.46 1.36-3.7 2.01 1.72.23 3.44.47 5.16.78-.22 2.52-.17 5.16-1.16 7.54-.97 2.02-3.39 2.56-5.42 2.76-3.69.37-7.26-.94-10.64-2.29 2.09-3.57 4.35-7.41 8.25-9.24 2.39-1.47 5.89-2.13 6.76-5.21z"/><path fill="#30616f" d="M187.01 151.94c4.09-3.08 9.78-3.46 14.08-.55-4.75.08-9.47.61-14.16 1.31l.08-.76z"/><path fill="#4c808e" d="M217.23 152.86l.85-.32c.01 2.98-2.09 5.08-4.37 6.71.89-2.27 1.93-4.52 3.52-6.39z"/><path fill="#516870" d="M218.17 157.19c1.56-2.54 4.81-2.77 7.39-3.53l-.86.74c-1.62 1.43-3.33 2.82-4.56 4.62-.61 1.65-.72 3.43-1.01 5.16a2.58 2.58 0 0 1-2.54-.53c.41-2.17.48-4.5 1.58-6.46z"/><path fill="#141616" d="M224.7 154.4c2.71.14 5.44.25 8.15-.07l-.56.33c-2.72 1.39-4.88 3.58-6.63 6.06l4.23 4.03 1.15.96-1.69 2-4.26-.43-1.66 2.12c2.83.86 5.72 1.6 8.7 1.69-2.43.47-4.9.73-7.37.82l.87 6.37-.65-.33-1.51-2.31c-.05-1.5-.08-3.02-.4-4.49-1.09-2.44-2.61-4.66-3.94-6.97.29-1.73.4-3.51 1.01-5.16 1.23-1.8 2.94-3.19 4.56-4.62z"/><path fill="#2b2a2a" d="M194.41 155.42c3.2-.67 6.81 1.08 8.09 4.11.61 2.7.18 5.49.01 8.21l-3.03-.88c-.93-1.59-1.26-3.76-2.86-4.8-2.29-.43-4.58.49-6.84.77l-5.18-1.28c3.06-2.31 5.83-5.49 9.81-6.13z"/><path fill="#282828" d="M225.66 160.72c1.75-2.48 3.91-4.67 6.63-6.06l3.98 1.87c-2.02 2.83-4.14 5.58-6.38 8.22-1.45-1.3-2.84-2.68-4.23-4.03z"/><path fill="#3e3d3e" d="M229.89 164.75c2.24-2.64 4.36-5.39 6.38-8.22 1.59 1.47 3.37 2.86 4.3 4.88.97 2.03 1.1 4.31 1.42 6.51-3.74.2-7.81.17-10.95-2.21l-1.15-.96z"/><path fill="#5296a7" d="M180.9 163.56l3.7-2.01 5.18 1.28c3.21 1.4 6.36 2.94 9.7 4.03 1 .33 2.01.62 3.03.88 1.83.16 3.68.19 5.52.24l-1.11 2.3c-3.03-.31-6.06-.74-8.96-1.7-2.95-1.12-5.82-2.48-8.83-3.46a41.82 41.82 0 0 0-3.07-.78c-1.72-.31-3.44-.55-5.16-.78z"/><path fill="#4f4e50" d="M189.78 162.83c2.26-.28 4.55-1.2 6.84-.77 1.6 1.04 1.93 3.21 2.86 4.8-3.34-1.09-6.49-2.63-9.7-4.03z"/><path fill="#434147" d="M186.06 164.34l3.07.78c-.3 3.38-.36 6.78-.01 10.16 3.9-.72 6.36-3.91 8.84-6.7 2.9.96 5.93 1.39 8.96 1.7l-5.2 1.46c3.79.33 7.57.69 11.34 1.17-5.23-.35-10.5.72-15.04 3.39 3.46 2.71 7.84 1.62 11.56.14l2.36 2.33-3.92 8.1c-2.79 1.5-6.01 3.01-7.15 6.22-1.71 2.94.11 6.52 2.69 8.24 3.13 2.08 6.44 3.9 9.34 6.32-.46 1.62-.99 3.22-1.51 4.82l-3.05 1.2.3 1.83 2.92.79.78.21c-2.92.45-5.81 1.07-8.68 1.76l.05-2.3c-2.17.5-4.34 1-6.49 1.61-2.02-1.17-3.99-2.54-6.26-3.17-2.68.6-3.67 3.71-5.36 5.58l-.93.08c.15-2.62.5-5.28.19-7.9-5.13-1.51-10.58-1.29-15.8-2.32-5.24-1.38-10.94-2.63-15.12-6.27l-.19-1.85c2.82.11 5.65.05 8.47.18 4.81.18 9.83 1.29 14.51-.33 1.95-1.04 3.85-2.18 5.78-3.28l-1.83 3.36c3.17 2.44 7.15 2.86 11.03 2.81-1.23-2.32-2.95-4.64-2.83-7.39.09-4.05 1.61-7.86 2.99-11.61-2.89-1.06-5.95-1.79-9.05-1.43-1.21.06-2.41.17-3.61.29-1.7-.47-3.37-1.02-5.05-1.55l-7.8-2.39c1.18 2.08 2.44 4.15 3.11 6.46l-.51 2.14c-1.93-2.8-3.66-5.74-5.73-8.45-3.59-.91-7.31-1-10.99-.93l.02-.54c1.4-.32 3.29-1.33 2.56-3.08 3.98-.99 8-2.01 12.13-2.06 1.25.14 1.88-.38 1.89-1.57 3.38 1.35 6.95 2.66 10.64 2.29 2.03-.2 4.45-.74 5.42-2.76.99-2.38.94-5.02 1.16-7.54z"/><path fill="#5a585a" d="M189.13 165.12c3.01.98 5.88 2.34 8.83 3.46-2.48 2.79-4.94 5.98-8.84 6.7-.35-3.38-.29-6.78.01-10.16z"/><path fill="#232424" d="M225.09 167.28l4.26.43a24.34 24.34 0 0 1 3.18.45 29.25 29.25 0 0 1 1.86 2.78l-2.26.15c-2.98-.09-5.87-.83-8.7-1.69l1.66-2.12z"/><path fill="#275d69" d="M221.78 169.76l1.29 1.39c.32 1.47.35 2.99.4 4.49l-5.66-1.16 3.97-4.72z"/><path fill="#467e8d" opacity=".98" d="M168.13 172.03l.71.32c-.01 1.19-.64 1.71-1.89 1.57l-.21-.73.49-.83.9-.33z"/><path fill="#161516" opacity=".51" d="M144.38 174.15c2.3-.55 4.74-1.1 6.79.46l-4.26.61 1.31 4.01-4.14.7.3-5.78z"/><path fill="#56575e" d="M198.02 176.3c4.54-2.67 9.81-3.74 15.04-3.39l.76.09c-1.48 1.06-2.9 2.21-4.24 3.44-3.72 1.48-8.1 2.57-11.56-.14z"/><path fill="#7db1bd" d="M213.82 173l2.3.91c1.37 2.83 3.43 5.28 6.03 7.06l-3.15.57c-1.12 2.15-2.78 3.84-5.35 3.75l-1.71-6.52-2.36-2.33c1.34-1.23 2.76-2.38 4.24-3.44m-.89 2.77l1.17 8.23 3.14-.02c.09-2.76-.45-5.46-1.2-8.1l-3.11-.11z"/><path fill="#404951" d="M216.12 173.91l1.69.57 5.66 1.16 1.51 2.31 3.09 5.21.44.74c-2.27-.61-4.45-1.55-6.36-2.93-2.6-1.78-4.66-4.23-6.03-7.06z"/><path fill="#3e3e40" d="M146.91 175.22l4.26-.61 1.11 1.83-.02 2.62-.02.54-3.94 3.88-.21-1.42-2.26 1.54c-2.9.27-6.35 1.01-7.11 4.33l1.51 2.13c2.14.55 4.23-.6 6.27-1.09 2.09 2.08 3.26 4.8 3.67 7.7l2.76-4.68 1.71-.08.18 5.14 4.19-1.36.84 2.83c-2.54.04-5.07.39-7.48 1.21l-4.34-1.42c.42-1.81-1.08-3.58-2.93-3.43-5.57-.99-11.19-1.52-16.83-1.68l.3-.54c.15-.29.47-.86.62-1.15l.44-1.99 1.91.8 3.62 1.51c-.1-.36-.31-1.07-.42-1.42l2.99.05c-.51-2.31-1.08-4.64-2.26-6.71 4.16-1.91 8.66-2.85 13.22-3.08l-.47-1.44-1.31-4.01z"/><path fill="#21acae" opacity=".78" d="M152.28 176.44l.73-.72 1.81.26c.73 1.75-1.16 2.76-2.56 3.08l.02-2.62z"/><path d="M212.93 175.77l3.11.11c.75 2.64 1.29 5.34 1.2 8.1l-3.14.02-1.17-8.23zm1.88 15.24c.26-1.73 1.35-3.17 2.05-4.73l.24 9c-.83-1.36-2.3-2.56-2.29-4.27z" fill="#feffff"/><path fill="#3f3e43" opacity=".93" d="M224.98 177.95l.65.33c3.74 1.62 7.83 3.29 10.07 6.91 1.33 2.46.99 5.39 1.08 8.09a54.41 54.41 0 0 1-1.18-.95c-1.29-1.67-2.39-3.47-3.65-5.16-1.15-1.48-2.53-2.74-3.88-4.01-1.07-1.72-2.05-3.49-3.09-5.21z"/><path fill="#191a1b" opacity=".82" d="M148.22 179.23l.47 1.44c-4.56.23-9.06 1.17-13.22 3.08l-2.5-1.73c3.58-1.27 7.36-1.65 11.11-2.09 1.38-.21 2.76-.45 4.14-.7z"/><path fill="#151615" d="M152.24 179.6c3.68-.07 7.4.02 10.99.93.32 2.33.37 4.76 1.31 6.95 1.15 2.54 4 3.44 6.29 4.64-.4-1.78-.83-3.54-1.36-5.28-.67-2.31-1.93-4.38-3.11-6.46l7.8 2.39c.01 5.35-.67 10.73-.08 16.07.1 1.41 1.79 1.83 2.65 2.73-4.68 1.62-9.7.51-14.51.33-3.36-.29-6.66-1.07-9.85-2.17 2.41-.82 4.94-1.17 7.48-1.21l.86-.07c.84-2.28 1.48-4.64 2.15-6.98l-8.22.44-1.71.08c-1.19-.8-2.43-1.6-3.32-2.75-.72-1.84-.98-3.82-1.31-5.76l3.94-3.88z"/><path fill="#56545c" d="M211.94 178.77c.68 2.14 1.18 4.33 1.71 6.52 2.57.09 4.23-1.6 5.35-3.75l3.15-.57c1.91 1.38 4.09 2.32 6.36 2.93.97 1.26 2.2 2.28 3.44 3.27l3.65 5.16c-.69 1.24-1.43 2.45-1.95 3.77.48 1.05 1.11 2.03 1.71 3.03-2.87 2.01-5.74 4.07-8.19 6.58-1.16.81-.92 2.52-.2 3.54l-10 3.61c-.38-9.23 3.67-18.59.37-27.64l-2.97 1.25c-3.89 2.38-7.16 5.59-10.58 8.56 1.53 1.82 2.88 3.91 4.9 5.25 1.45.66 3.02 1.01 4.54 1.46.02 1.97-.1 3.95-.33 5.91-2.9-2.42-6.21-4.24-9.34-6.32-2.58-1.72-4.4-5.3-2.69-8.24 1.14-3.21 4.36-4.72 7.15-6.22l3.92-8.1z"/><path fill="#4e808e" d="M163.23 180.53c2.07 2.71 3.8 5.65 5.73 8.45l.51-2.14c.53 1.74.96 3.5 1.36 5.28-2.29-1.2-5.14-2.1-6.29-4.64-.94-2.19-.99-4.62-1.31-6.95z"/><path fill="#4d585a" d="M129.01 183.26l3.96-1.24 2.5 1.73c1.18 2.07 1.75 4.4 2.26 6.71l-2.99-.05-1.43-4.92-1.77 4.83-1.91-.8-.62-6.26z"/><path fill="#7c787b" d="M145.83 183.6l2.26-1.54.21 1.42c.33 1.94.59 3.92 1.31 5.76.89 1.15 2.13 1.95 3.32 2.75-1 1.51-1.89 3.09-2.76 4.68-.41-2.9-1.58-5.62-3.67-7.7l-.67-5.37z"/><path fill="#7d7a7c" d="M138.72 187.93c.76-3.32 4.21-4.06 7.11-4.33l.67 5.37c-2.04.49-4.13 1.64-6.27 1.09l-1.51-2.13z"/><path fill="#2c4850" d="M174.16 182.77l5.05 1.55-.68.37-3.32 2 3.95 4.83c-1.12 1.86-2.2 3.8-2.63 5.96l.2 4.09c-.86-.9-2.55-1.32-2.65-2.73-.59-5.34.09-10.72.08-16.07z"/><path fill="#343437" d="M182.82 184.03c3.1-.36 6.16.37 9.05 1.43-1.38 3.75-2.9 7.56-2.99 11.61-.12 2.75 1.6 5.07 2.83 7.39-3.88.05-7.86-.37-11.03-2.81l5.45-.89-1.2-3.09c-.65-1.09-1.36-2.15-2.07-3.2.93-2.42 1.92-4.83 2.72-7.3l.21-.8c-.97-.81-1.96-1.59-2.97-2.34z"/><path fill="#587d8c" d="M228.07 183.16c1.35 1.27 2.73 2.53 3.88 4.01-1.24-.99-2.47-2.01-3.44-3.27l-.44-.74z"/><path fill="#50a2b5" opacity=".84" d="M126.37 187.19c.44-1.55 1.72-2.67 2.64-3.93l.62 6.26-.44 1.99-.62 1.15c-.83-1.77-2.1-3.46-2.2-5.47z"/><path fill="#3e818e" d="M179.21 184.32l3.61-.29 2.97 2.34-.21.8-7.05-2.48.68-.37z"/><path fill="#275f6a" d="M175.21 186.69l3.32-2 7.05 2.48-2.72 7.3 2.07 3.2-8.4-.19c.43-2.16 1.51-4.1 2.63-5.96l-3.95-4.83z"/><path fill="#5b7883" d="M133.31 185.49l1.43 4.92.42 1.42-3.62-1.51 1.77-4.83z"/><path fill="#6c6972" d="M203.79 195.03c3.42-2.97 6.69-6.18 10.58-8.56l-.82 4.15c-1.26 2.97-1.4 6.15-.32 9.21v1.91c-1.52-.45-3.09-.8-4.54-1.46-2.02-1.34-3.37-3.43-4.9-5.25z"/><path fill="#cbfdff" d="M214.37 186.47l2.97-1.25-.48 1.06c-.7 1.56-1.79 3-2.05 4.73-.01 1.71 1.46 2.91 2.29 4.27l.05 2.51-3.57 3.11-.18-1.98c.27-2.76.48-5.54.15-8.3l.82-4.15z"/><path fill="#91c9d2" d="M217.34 185.22c3.3 9.05-.75 18.41-.37 27.64l-1.47 2.78-3.94.65-2.92-.79-.3-1.83 3.05-1.2 1.51-4.82c.23-1.96.35-3.94.33-5.91v-1.91l.17-.91.18 1.98c.16 1.41.37 2.82.63 4.23l2.97.04-.03-7.38-.05-2.51c-.03-3-.2-6-.24-9l.48-1.06m-4.11 23.03l-1.08 7.06 2.87-.23c.62-2.26 1.08-4.56 1.4-6.88l-3.19.05z"/><path fill="#686567" d="M154.64 191.91l8.22-.44-2.15 6.98-.86.07-.84-2.83-4.19 1.36-.18-5.14z"/><path fill="#bfbfc4" d="M213.23 199.83c-1.08-3.06-.94-6.24.32-9.21.33 2.76.12 5.54-.15 8.3l-.17.91z"/><path fill="#4d95a7" opacity=".92" d="M145.1 194.88c1.85-.15 3.35 1.62 2.93 3.43-1.22-.28-2.25-.88-3.09-1.79l.16-1.64z"/><path fill="#0b0d0e" opacity=".36" d="M144.94 196.52c.84.91 1.87 1.51 3.09 1.79l4.34 1.42c3.19 1.1 6.49 1.88 9.85 2.17-2.82-.13-5.65-.07-8.47-.18l-1.51-.25c-2.35-.36-4.88-.96-7.09.31 1.19 2.68 3.97 2.54 6.45 2.47-1.22.51-2.35 1.31-3.69 1.49-1.69-.37-3.21-1.25-4.77-1.98l1.8-7.24z"/><path fill="#367885" d="M176.53 197.48l8.4.19 1.2 3.09-5.45.89 1.83-3.36-5.78 3.28-.2-4.09z"/><path fill="#faffff" d="M213.58 200.9l3.57-3.11.03 7.38-2.97-.04-.63-4.23z"/><path fill="#393a3e" d="M235.36 199.13l1.32 5.82-5.9 5.73 6.55 2.62-.06 1.67-2.24.15-5.03.33c-.12 1.12-.13 2.28-.58 3.34-1.57 1.19-3.7 1.05-5.56 1.33a53.35 53.35 0 0 0-8.54 1l-.13-1.33-.26-2.59-2.59-.7-.78-.21 3.94-.65 1.47-2.78 10-3.61c2.11-.17 2.42-3.25.2-3.54 2.45-2.51 5.32-4.57 8.19-6.58m-11.24 14.24l-.82 5.86c1.34-.26 2.77-.3 4.02-.91.25-1.26.44-2.52.63-3.78l-3.83-1.17z"/><path fill="#39373c" opacity=".93" d="M145.15 201.78c2.21-1.27 4.74-.67 7.09-.31l-.64 2.78c-2.48.07-5.26.21-6.45-2.47z"/><path fill="#2dcacd" opacity=".93" d="M151.6 204.25l.64-2.78 1.51.25.19 1.85-1.62 1.06-.72-.38z"/><path fill="#565655" d="M236.68 204.95l3.44 3.93 1.57 1.78-4.36 2.64-6.55-2.62 5.9-5.73z"/><path fill="#5a93a5" d="M227.17 205.71c2.22.29 1.91 3.37-.2 3.54-.72-1.02-.96-2.73.2-3.54z"/><path fill="#fcffff" d="M213.23 208.25l3.19-.05c-.32 2.32-.78 4.62-1.4 6.88l-2.87.23 1.08-7.06z"/><path fill="#47484e" d="M240.12 208.88c1.54-.33 3.1-.91 4.71-.77 2.16.6 4.06 1.86 5.99 2.97l-2.49.25 2.22 5.06c-2.73 2.29-6 3.72-9.35 4.81l-4.62-.65-2.31-3.41.76-2.02 2.24-.15.06-1.67 4.36-2.64-1.57-1.78m.61 6.37c2.37-.21 3.85-2.14 4.43-4.29-2.11.71-3.73 2.14-4.43 4.29z"/><path fill="#151516" d="M169.06 209.84c5.22 1.03 10.67.81 15.8 2.32.31 2.62-.04 5.28-.19 7.9-1.87.11-3.75.16-5.63.24-5.13-.92-8.43-5.82-9.98-10.46z"/><path fill="#666567" d="M240.73 215.25c.7-2.15 2.32-3.58 4.43-4.29-.58 2.15-2.06 4.08-4.43 4.29z"/><path fill="#30333a" d="M248.33 211.33l2.49-.25c2.08 1.52 4.27 2.91 6.64 3.95 6.16 2.7 12.22 5.95 18.99 6.8-.26.11-.78.35-1.05.47-2.92 1.32-5.72 2.87-8.52 4.41-2.06 1.25-4.56.64-6.82.61 4.27 3.07 7.17 7.52 9.62 12.09-1.41 2.77-3.48 5.12-5.43 7.51l-1.49-1.57c.76-1.43 1.51-2.86 2.18-4.33-1.51-9.19-10.16-14.53-18.13-17.66-1.86.25-2.37 2.53-3.36 3.84-.86 1.53-1.68 3.09-2.51 4.64l3.1 1.12-2.18 3.98-4.55-1.24-4.59-1.55-.79-.27-1.1-6.38-2.7 1.63.38-5.75c-1.57-1.06-3.12-2.15-4.65-3.26 1.86-.28 3.99-.14 5.56-1.33.45-1.06.46-2.22.58-3.34l5.03-.33-.76 2.02 2.31 3.41c-.07 3.38 1.98 6.06 4.26 8.32l.36-7.67c3.35-1.09 6.62-2.52 9.35-4.81l-2.22-5.06m-16.16 16.41c-1.19.49-.8 2.91.63 2.51 1.19-.49.8-2.91-.63-2.51m2.83-.83l-.12 3.06c1.51.35 3.03.63 4.54.96-.88-1.92-2.61-3.08-4.42-4.02z"/><path fill="#6c6a6b" d="M224.12 213.37l3.83 1.17-.63 3.78c-1.25.61-2.68.65-4.02.91l.82-5.86z"/><path fill="#545358" d="M257.46 215.03c.82-.8 1.68-1.55 2.59-2.25 5.3 1.39 10.34 3.62 15.49 5.45l.91 3.6c-6.77-.85-12.83-4.1-18.99-6.8z"/><path fill="#595759" d="M185.6 219.98c1.69-1.87 2.68-4.98 5.36-5.58 2.27.63 4.24 2 6.26 3.17-3.76 1.27-7.64 2.22-11.62 2.41z"/><path fill="#4f8d9e" d="M197.22 217.57l6.49-1.61-.05 2.3-5.7 1.47c-4.95 1.32-9.97 2.5-15.1 2.79l-2.62-.69-1.82-.72.62-.81 5.63-.24.93-.08c3.98-.19 7.86-1.14 11.62-2.41z"/><path fill="#1a1a1b" d="M203.66 218.26l8.68-1.76 2.59.7.26 2.59c-4.05.29-8.1.42-12.16.49-.69 2.89-1.32 5.79-1.86 8.72 2.64-.84 5.26-1.74 7.75-2.95l.17 2.7c-4.81 2.01-9.49 4.38-14.45 6.02-3.18-.31-6.38-.86-9.34-2.08-3.36-1.37-4.92-4.9-6.9-7.68l1.84-3.18 2.62.69c2.57 1.14 4.92 2.77 7.56 3.78 1.61.68 3.35-.15 4.74-.98 1.96-1.14 2.09-3.67 2.8-5.59l5.7-1.47z"/><path fill="#181a19" d="M215.32 221.12a53.35 53.35 0 0 1 8.54-1l4.65 3.26-.38 5.75 2.7-1.63 1.1 6.38c-4.13-.14-8.76-2-12.48.63-1.97-3.69-3.61-7.6-3.96-11.81l-.17-1.58z"/><path fill="#424142" d="M182.86 222.52c5.13-.29 10.15-1.47 15.1-2.79-.71 1.92-.84 4.45-2.8 5.59-1.39.83-3.13 1.66-4.74.98-2.64-1.01-4.99-2.64-7.56-3.78z"/><path fill="#737374" d="M236.58 220.55l4.62.65-.36 7.67c-2.28-2.26-4.33-4.94-4.26-8.32z"/><path fill="#444748" opacity=".96" d="M209.64 225.67l4.36-2.22c-.39 2.09-1.01 4.45.1 6.44 1.15 1.91 3.18 3.02 4.93 4.32l-.78.68-4.15.01c-1.67-2.99-3.12-6.09-4.46-9.23z"/><path fill="#638c9b" d="M214 223.45l1.49-.75c.35 4.21 1.99 8.12 3.96 11.81l-.42-.3c-1.75-1.3-3.78-2.41-4.93-4.32-1.11-1.99-.49-4.35-.1-6.44z"/><path fill="#404348" d="M243.45 227.2c.99-1.31 1.5-3.59 3.36-3.84 7.97 3.13 16.62 8.47 18.13 17.66-1.39-.84-2.78-1.68-4.09-2.62l-.48-.6-1.25-1.59.87-2.24c-3.28-1.44-6.63-2.73-10-3.95-2.2-.91-4.36-1.88-6.54-2.82z"/><path fill="#5b5b61" d="M266.88 226.71l8.52-4.41c2.63.63 5.05 1.94 6.74 4.07-3.47-.56-6.98-1.22-10.5-.77-1.24 1.14-2.47 2.33-3.33 3.79.16 2.74 1.39 5.24 2.41 7.74l-1.04 2.28c-2.45-4.57-5.35-9.02-9.62-12.09 2.26.03 4.76.64 6.82-.61z"/><path fill="#457d8d" d="M177.93 226.8l.47-1.79c1.98 2.78 3.54 6.31 6.9 7.68 2.96 1.22 6.16 1.77 9.34 2.08.28 1.85.6 3.7 1.12 5.51.99 1.15 2.03 2.26 3.08 3.37l.49.53-2.18.1-2.06.14c-1.04-1.85-2.08-3.71-2.91-5.66l-.77-2.34c-2.77-.8-5.68-1.3-8.24-2.67-2.54-1.59-3.92-4.39-5.24-6.95z"/><path fill="#2a2b31" d="M271.64 225.6c3.52-.45 7.03.21 10.5.77 2.28.37 4.59.12 6.88-.06l-.53.37-2.43 1.72c1.96.98 3.94 1.94 5.97 2.79 3.22 1.33 6.8 1.09 10.21.99l-2.22 2.26 6.37 1.67c-.87-1.02-1.73-2.05-2.66-3.01l2.68.3.94 4.54c4.53.89 9.62-1.18 13.53 2.03l-5.57-1.2 3.32 3.78c-1.72 1.77-3.58 3.47-4.82 5.63-.32 2.75.7 5.44 1.24 8.11-4.87-2.28-8.46-6.57-13.48-8.6.05 2.74.44 5.47 1.38 8.06-1.53-.59-3.04-1.2-4.59-1.71-3.39.63-5.45 3.49-7.44 6.02l-1.21-2.89 1.69-2.41c-1.38-2.17-2.72-4.36-4.03-6.57 4.59-1.11 8.77 1.76 13.16 2.57a105.16 105.16 0 0 0-4.18-5.85c2.56.71 5.14 1.54 7.82 1.66 1.74.14 2.91-1.39 4.25-2.24-3.91-2.61-8.27-4.37-12.58-6.19-4.09-1.69-7.54-4.87-11.99-5.69-3.79-.7-7.59-1.49-11.19-2.94l-1.02-3.91z"/><path fill="#4e8392" d="M208.92 226.05l.72-.38c1.34 3.14 2.79 6.24 4.46 9.23-1.48-.54-2.93-1.15-4.38-1.74l-.63-4.41-.17-2.7z"/><path fill="#37383d" d="M268.31 229.39c.86-1.46 2.09-2.65 3.33-3.79l1.02 3.91c3.6 1.45 7.4 2.24 11.19 2.94 4.45.82 7.9 4 11.99 5.69 4.31 1.82 8.67 3.58 12.58 6.19-1.34.85-2.51 2.38-4.25 2.24-2.68-.12-5.26-.95-7.82-1.66a105.16 105.16 0 0 1 4.18 5.85c-4.39-.81-8.57-3.68-13.16-2.57l-3.13.44-1.13 1.15c-1.23 1.07-2.1 2.58-2.11 4.24-1.13.02-2.27.03-3.39-.01 1.18-2.37 2.31-4.77 3.41-7.18l-2.88 1.49-4.12-4.25-3.93 2.75.55-4.1-4.21 6.13 5.36 1.8 1.63.47-2.62.53c-4.96-.62-9.31-3.29-13.59-5.68a137.95 137.95 0 0 0 3.5-2.46l.37.89 1.68.95 1.49 1.57c1.95-2.39 4.02-4.74 5.43-7.51l1.04-2.28c-1.02-2.5-2.25-5-2.41-7.74z"/><path fill="#232223" d="M174.17 237.23c1.19-3.48.86-7.79 3.76-10.43 1.32 2.56 2.7 5.36 5.24 6.95 2.56 1.37 5.47 1.87 8.24 2.67l.77 2.34c-1.4 1.17-2.78 2.34-4.13 3.57-3.13-.06-6.43.42-9.41-.72-1.77-1.15-3.07-2.85-4.47-4.38z"/><path fill="#626064" d="M232.17 227.74c1.43-.4 1.82 2.02.63 2.51-1.43.4-1.82-2.02-.63-2.51z"/><path fill="#5e626d" d="M235 226.91c1.81.94 3.54 2.1 4.42 4.02l-4.54-.96.12-3.06z"/><path fill="#3e3e43" opacity=".94" d="M286.06 228.4l2.43-1.72c1.9.93 3.68 2.14 3.54 4.51l-5.97-2.79z"/><path fill="#52585f" d="M240.94 231.84l2.51-4.64 6.54 2.82c1.39 2.26 3.72 3.51 6.02 4.65l.06.49c-4.07-.33-8.18-.75-12.03-2.2l-3.1-1.12z"/><path fill="#4a484a" d="M194.64 234.77c4.96-1.64 9.64-4.01 14.45-6.02.18 1.47.41 2.93.63 4.41-4.55 2.57-9.14 5.08-13.96 7.12-.52-1.81-.84-3.66-1.12-5.51z"/><path fill="#76777d" d="M249.99 230.02c3.37 1.22 6.72 2.51 10 3.95l-.87 2.24-2.87 2.5-.18-3.55-.06-.49c-2.3-1.14-4.63-2.39-6.02-4.65z"/><path fill="#302f30" d="M195.76 240.28c4.82-2.04 9.41-4.55 13.96-7.12l4.38 1.74c1.38.05 2.76.06 4.15-.01l.91-.03c-3.47.8-7.24.95-10.24 3.08-3.23 2.12-6.53 4.16-10.08 5.71-1.05-1.11-2.09-2.22-3.08-3.37z"/><path fill="#3b3d43" d="M244.04 232.96c3.85 1.45 7.96 1.87 12.03 2.2.09 1.18.13 2.36.18 3.55-2.81 2.25-6.09 3.76-9.32 5.28.38.85.86 1.64 1.44 2.37 2.54.01 5.07.16 7.61.4l-1.47 3.35c-3.49-.79-6.72-2.33-9.9-3.92l-.39-6.88c-.77-.81-1.56-1.6-2.36-2.37l2.18-3.98z"/><path fill="#4c4c50" opacity=".96" d="M300.02 234.44l2.22-2.26 1.49.92 2.66 3.01-6.37-1.67z"/><path fill="#3f3e3f" opacity=".93" d="M232.72 234.15l4.59 1.55c1.98 2.62 3.15 5.72 4.37 8.74-4.61-1.64-6.25-6.68-8.96-10.29z"/><path fill="#222225" d="M237.31 235.7l4.55 1.24 2.36 2.37.39 6.88-2.93-1.75c-1.22-3.02-2.39-6.12-4.37-8.74z"/><path fill="#505259" d="M256.25 238.71l2.87-2.5 1.25 1.59-3.4 6.5c2.15-1.32 3.87-3.24 3.88-5.9 1.31.94 2.7 1.78 4.09 2.62l-2.18 4.33.26-1.69-.66-.67-1.65.52-3.5 2.46-1.23.79-7.61-.4c-.58-.73-1.06-1.52-1.44-2.37 3.23-1.52 6.51-3.03 9.32-5.28z"/><path fill="#63b5c9" d="M174.98 241.13c-.34-1.29-.57-2.6-.81-3.9 1.4 1.53 2.7 3.23 4.47 4.38 2.98 1.14 6.28.66 9.41.72l-2.33 2.19c-3.92.45-8.02-.3-10.74-3.39z"/><path fill="#777984" d="M260.37 237.8l.48.6c-.01 2.66-1.73 4.58-3.88 5.9 1.02-2.23 2.17-4.39 3.4-6.5z"/><path fill="#606062" d="M188.05 242.33l4.13-3.57c.83 1.95 1.87 3.81 2.91 5.66-2.45.63-4.8 1.56-7.14 2.47l-2.23-2.37 2.33-2.19z"/><path fill="#4b4a4f" d="M315.31 238.77l5.57 1.2 3.24 5.67-4.14 1.99-3.07-.11.23 3.15c.12 2.12.59 4.91-2.09 5.62-.54-2.67-1.56-5.36-1.24-8.11 1.24-2.16 3.1-3.86 4.82-5.63l-3.32-3.78z"/><path fill="#3b3a3b" d="M174.98 241.13c2.72 3.09 6.82 3.84 10.74 3.39l2.23 2.37c2.34-.91 4.69-1.84 7.14-2.47l2.06-.14c-.73.68-1.48 1.33-2.25 1.96-5.76 1.74-12.34 3.59-18.15 1.08-.75-2.02-1.25-4.11-1.77-6.19z"/><path fill="#9c9a9e" d="M260.71 243.51l1.65-.52.66.67-.26 1.69-1.68-.95-.37-.89z"/><path fill="#6b6f80" d="M266.43 248.85l4.21-6.13-.55 4.1 3.93-2.75-2.23 6.58-5.36-1.8z"/><path fill="#57575b" d="M274.02 244.07l4.12 4.25c-1.44 1.13-2.86 2.49-4.72 2.8l-1.63-.47 2.23-6.58m.26 5.11v.83l.72.41.71-.42v-.82l-.72-.41-.71.41z"/><path fill="#161516" opacity=".68" d="M176.75 247.32c5.81 2.51 12.39.66 18.15-1.08-4.05 2.95-9.16 5.49-14.28 4.05-1.72-.3-2.69-1.87-3.87-2.97z"/><path fill="#444449" d="M319.98 247.63c1.34-.75 2.74-1.37 4.14-1.99 2.18 1.87 4.68 3.49 6.35 5.89 2.4 6.56 1.21 14.76-4.29 19.45-1.63-1.05-3.29-2.06-4.98-3l-.64-.37c-.89-3.25-2.4-6.27-4.3-9.03l-1.4 5.33c-2.89-3.69-6.57-6.76-11.22-7.9l-.69-.26c-.94-2.59-1.33-5.32-1.38-8.06 5.02 2.03 8.61 6.32 13.48 8.6 2.68-.71 2.21-3.5 2.09-5.62l1.63-.73 1.21-2.31m-14.55 3.52c-.47 1.4.01 1.88 1.42 1.46.46-1.41-.02-1.89-1.42-1.46m14.29 2.79l.66 3.32c1.49-.88 2.34-2.45 2.84-4.07l-3.5.75m5.41 5.91c-1.66.45-.74 3.07.84 2.37 1.65-.45.72-3.08-.84-2.37z"/><path fill="#2a2b30" d="M278.14 248.32l2.88-1.49-3.41 7.18a37.24 37.24 0 0 1-5.43-1.49l-1.38-.87 2.62-.53c1.86-.31 3.28-1.67 4.72-2.8z"/><path fill="#9d979c" d="M316.91 247.52l3.07.11-1.21 2.31-1.63.73-.23-3.15z"/><path fill="#4d4f59" opacity=".97" d="M284.24 248.63l3.13-.44 4.03 6.57-1.69 2.41.28-1.74-.69-.57-.85.16-.45 1.66-1.86-1.1c.91-1.88 1.4-3.94 1.64-6.01-1.97 1.79-3.41 4.01-3.24 6.76-2.38.13-4.76-.14-7.11-.5-2.18-.27-4.22-1.3-5.25-3.31a37.24 37.24 0 0 0 5.43 1.49l3.39.01c2.35.36 3.52-2.57 2.11-4.24l1.13-1.15z"/><path fill="#a5a3a4" d="M274.28 249.18l.71-.41.72.41v.82l-.71.42-.72-.41v-.83z"/><path fill="#707076" d="M283.11 249.78c1.41 1.67.24 4.6-2.11 4.24.01-1.66.88-3.17 2.11-4.24z"/><path fill="#7e7e86" d="M287.78 249.57c-.24 2.07-.73 4.13-1.64 6.01l-1.6.75c-.17-2.75 1.27-4.97 3.24-6.76z"/><path fill="#6f6e77" d="M305.43 251.15c1.4-.43 1.88.05 1.42 1.46-1.41.42-1.89-.06-1.42-1.46z"/><path fill="#817a81" d="M319.72 253.94l3.5-.75c-.5 1.62-1.35 3.19-2.84 4.07l-.66-3.32z"/><path fill="#434349" d="M290.92 260.06c1.99-2.53 4.05-5.39 7.44-6.02l-.16.76-2.12 3.95-2.23 3.23 4.11 1.25 3.79-2.61v1.46l.4 1.68.91.32 1.45-1.03 5.69 1.35 5.49 2.92-2.14 3.54c-2.9-.22-5.91-.31-8.46-1.86l6.37-.39c-1.45-1.11-2.62-3.04-4.63-3.06-1.51.4-2.9 1.13-4.31 1.76-.97.59-1.72-.9-2.55-1.22-2.41-2.29-5.8-2.56-8.83-3.46-2.84-.82-4.76-3.29-7.37-4.54-2.1-.8-4.34-1.09-6.53-1.54l.19-.72c2.35.36 4.73.63 7.11.5l1.6-.75 1.86 1.1 1.71.49 1.21 2.89z"/><path fill="#555459" d="M298.36 254.04l4.59 1.71.69.26c1.27 3.41 3.76 6.13 6.56 8.39-1.88-.53-3.79-.91-5.69-1.35l-2.76-.97v-1.46l.01-3.88c-1.44 1.59-2.85 3.21-4.15 4.92l-.38-1.43c.29-1.82.64-3.62.97-5.43l.16-.76z"/><path fill="#919095" d="M288.45 255.02l.85-.16.69.57-.28 1.74-1.71-.49.45-1.66z"/><path fill="#76757a" d="M298.2 254.8l-.97 5.43-1.15-1.48 2.12-3.95z"/><path fill="#28292e" d="M303.64 256.01c4.65 1.14 8.33 4.21 11.22 7.9 1.76 1.44 3.72 2.59 5.7 3.7l.64.37c-1.84-.16-3.72-.15-5.51-.66-1.87-.89-3.68-1.92-5.49-2.92-2.8-2.26-5.29-4.98-6.56-8.39z"/><path fill="#858591" d="M297.61 261.66c1.3-1.71 2.71-3.33 4.15-4.92l-.01 3.88-3.79 2.61-.35-1.57z"/><path fill="#4d5679" d="M293.85 261.98l2.23-3.23 1.15 1.48.38 1.43.35 1.57-4.11-1.25z"/><path fill="#616065" d="M316.26 258.58c1.9 2.76 3.41 5.78 4.3 9.03-1.98-1.11-3.94-2.26-5.7-3.7l1.4-5.33z"/><path fill="#5f5d61" d="M325.13 259.85c1.56-.71 2.49 1.92.84 2.37-1.58.7-2.5-1.92-.84-2.37z"/><path fill="#a9a5aa" d="M301.75 262.08l2.76.97-1.45 1.03-.91-.32-.4-1.68z"/><path fill="#56555c" d="M302.52 267.31c1.41-.63 2.8-1.36 4.31-1.76 2.01.02 3.18 1.95 4.63 3.06l-6.37.39-2.57-1.69z"/></svg>