<svg xmlns="http://www.w3.org/2000/svg" width="512" height="512" viewBox="0 0 384 384" xmlns:v="https://vecta.io/nano"><path fill="#282829" opacity=".82" d="M159.4 135.33c1.4-.6 2.87-1.39 4.46-1.05 5.09.73 9.97 2.5 14.57 4.77l-1.48.8c-3.2-1.13-6.43-2.2-9.82-2.53-2.66-.29-5.22-1.09-7.73-1.99z"/><path fill="#424142" d="M152.24 145.66c-1.97-4.49 1.79-11.59 7.16-10.33 2.51.9 5.07 1.7 7.73 1.99l-.44 2.37c-2.58.62-5.33.96-7.58 2.44-2.19 1.71-3.19 4.42-4.48 6.78-.84-1.05-1.7-2.09-2.39-3.25z"/><path fill="#737173" d="M167.13 137.32c3.39.33 6.62 1.4 9.82 2.53-.38 1.71-.69 3.44-.98 5.17-2.29-.98-4.5-2.16-6.6-3.5l-2.68-1.83.44-2.37z"/><path fill="#6ab2c5" d="M176.95 139.85l1.48-.8.74-.4-.02 1.07-.18 3.81-.64 2.35-2.36-.86.98-5.17z"/><path fill="#5796a7" d="M159.11 142.13c2.25-1.48 5-1.82 7.58-2.44l2.68 1.83c-2.75.45-5.63.6-8.19 1.8-2.93 1.52-3.93 4.92-5.22 7.71l-1.33-2.12c1.29-2.36 2.29-5.07 4.48-6.78z"/><path fill="#2e2d2e" d="M179.15 139.72c4.82.68 9.36 2.43 13.81 4.31 2.79 1.37 5.89.62 8.85.78 1.82.5 3.44 1.53 5.27 1.99 4.2.17 8.4-1.34 12.57-.47 2.71 1.34 4.19 4.1 5.44 6.71-3.31-.91-6.64-1.9-10.09-2.04-2.8-.22-5.65.01-8.42-.56-1.52-.7-2.19-2.45-3.26-3.65-1.31.25-2.61.55-3.9.88l-1.31-2-.97 3.45c-5.9-2.33-11.98-4.19-18.17-5.59.09-1.27.15-2.54.18-3.81z"/><path fill="#2c2b2c" d="M161.18 143.32c2.56-1.2 5.44-1.35 8.19-1.8 2.1 1.34 4.31 2.52 6.6 3.5l2.36.86 7.09 2.02-3.14.33c-2.57.35-5.36.82-7.18 2.87-3.17 2.85-4.46 7.04-5.35 11.07-5.17-2.96-9.65-6.88-13.79-11.14 1.29-2.79 2.29-6.19 5.22-7.71z"/><path fill="#686668" d="M178.97 143.53c6.19 1.4 12.27 3.26 18.17 5.59l-.92 3.27-1.79-.9c-2.88-1.47-5.88-2.75-9.01-3.59-2.37-.63-4.75-1.27-7.09-2.02l.64-2.35z"/><path fill="#6096a6" d="M198.11 145.67l1.31 2-1.34 7.9-1.86-3.18.92-3.27.97-3.45z"/><path fill="#504e55" d="M199.42 147.67l3.9-.88c1.07 1.2 1.74 2.95 3.26 3.65 2.77.57 5.62.34 8.42.56 3.45.14 6.78 1.13 10.09 2.04l.74 2.4c-4.06-1.33-8.41-1.87-12.43-.09-2.5.65-4.9 1.67-6.94 3.28l4.81 2.34.17.71c.35 1.67.66 3.36.82 5.06-4.05 3.41-7.99 6.95-11.84 10.58 2.27 3.14 5.92 4.5 9.29 6.09 2.69 1.15 3.46 4.25 4.39 6.75-.36 2.65-1.11 5.23-1.82 7.8l5.26-.8c.68-4.04.88-8.12.78-12.2l.02-1.69c.58-9.22-1.96-18.12-4.57-26.85 2.26 1.07 4.65 1.9 6.83 3.15 3.34 1.99 5.27 5.59 8.39 7.86 1.93-.23 3.65-1.22 5.39-2.01l.63-.29c-.38 2.29-.95 4.56-1.32 6.86.11 2.73.95 5.4.81 8.13-.77 3.54-3.48 6.17-5.9 8.68-2.17 2.16-4.03 4.6-5.8 7.1 1.42.7 2.87 1.36 4.26 2.14-.1 1.35-.28 2.69-.52 4.03-.95.68-1.92 1.33-2.93 1.9-.89-2.26-1.83-4.5-2.78-6.74-1.1 1.02-2.32 1.94-3.24 3.14-.17 2.55.68 5.02 1.25 7.47l4.63-2.93-.46 5.07c5.39.99 9.76 4.46 14.56 6.84l.89.51c-.91.55-1.81 1.11-2.7 1.69-1.89-1.52-3.91-2.86-5.92-4.2l-2.64 3.55a191.18 191.18 0 0 1 5.46 2.5l-1.39.98.07.75.62.35.71-.29.74-1.42c.91-.53 1.82-1.04 2.75-1.54 1.15 2.29 2.11 4.66 3.09 7.03-1.48-.11-2.97-.3-4.41-.63-2.13-.5-4.24-1.08-6.35-1.62l-.56-4.19a115.83 115.83 0 0 1-1.52.85l-.49-1.73-.81-.37-.82.28-.8 1.53c.06-1.97.33-3.94.53-5.9-4.36-2.32-9.3-3.28-13.59-5.76l.19-.86c.75-.71 1.55-1.38 2.33-2.06l3.83 1.2c-1.06-1.66-1.99-3.44-3.37-4.86-2.33-1.06-4.93-1.25-7.38-1.9-1.67-.27-3.36-1.02-5.06-.7-1.9.86-3.49 2.25-5.15 3.48 2.11 1.01 5.12 1.05 6.32 3.33-1.59 1.31-3.34 2.43-5.05 3.58l-2.73-6.71c-1.98.84-3.94 1.71-5.85 2.68l.54-1.85.28-.88c6.26-2.48 11.48-6.76 16.75-10.82l-.34-2.64-6.85-.75c-.81 2.04-1.5 4.13-2.39 6.14-1.8-4.58.68-9.23 1.26-13.79a145.08 145.08 0 0 0-6.91 2.97l-1.43-4.98.63-1.54c3.32-2.81 6.82-5.74 8.49-9.89 1.4-2.69 1-5.76.63-8.64a118.79 118.79 0 0 0 5.77-1.97c2.19-.38 1.3-3.51-.62-3.51-.08-2.26-.31-4.52-.54-6.77-.91 2.68-1.59 5.44-2 8.24-1.24-.02-2.47-.07-3.7-.12l1.34-7.9m10.9 51.43v.82l.72.41.71-.41v-.82l-.72-.42-.71.42z"/><path fill="#4a96a9" d="M175.1 151.1c1.82-2.05 4.61-2.52 7.18-2.87-2.75 1.84-5.55 3.78-7.5 6.5l-5.03 7.44c.89-4.03 2.18-8.22 5.35-11.07z"/><path fill="#1c1c1d" d="M182.28 148.23l3.14-.33c3.13.84 6.13 2.12 9.01 3.59 1.42 2.73 2.27 5.71 3.04 8.68-4.16.95-7.36-2.56-11.23-3.09-1.56.76-2.89 1.88-4.31 2.85-2.16 1.26-4.41 2.35-6.68 3.39-1.89-.06-3.68-.7-5.5-1.15 1.73-2.44 3.26-5.02 5.03-7.44 1.95-2.72 4.75-4.66 7.5-6.5z"/><path fill="#5e838f" d="M201.78 155.69c.41-2.8 1.09-5.56 2-8.24l.54 6.77-.68 1.47h-1.86z"/><path fill="#010202" opacity=".13" d="M194.43 151.49l1.79.9 1.86 3.18 3.7.12h1.86l1.3 2.04-5.77 1.97-1.7.47c-.77-2.97-1.62-5.95-3.04-8.68z"/><path fill="#242627" opacity=".98" d="M204.32 154.22c1.92 0 2.81 3.13.62 3.51l-1.3-2.04.68-1.47z"/><path fill="#3c3a3f" opacity=".98" d="M213.4 155.35c4.02-1.78 8.37-1.24 12.43.09l-.53 4.22c3.3 1.44 6.63 3.02 9.08 5.76-1.74.79-3.46 1.78-5.39 2.01-3.12-2.27-5.05-5.87-8.39-7.86-2.18-1.25-4.57-2.08-6.83-3.15l-.37-1.07m3.71.89v.45h.45v-.45h-.45z"/><path fill="#9edbe3" d="M206.46 158.63c2.04-1.61 4.44-2.63 6.94-3.28l.37 1.07c2.61 8.73 5.15 17.63 4.57 26.85-1.34-.2-2.67-.43-3.99-.69-.44-.98-.84-1.98-1.2-2.98 1.65.79 3.02 2.05 4.66 2.86l-.75-8.24c-1.14.58-2.25.56-3.34-.04-.41.12-.82.26-1.21.43.06-2.62-.02-5.25-.25-7.87-.16-1.7-.47-3.39-.82-5.06l2.85-.81-1.46-3.75-2.73-.43 1.17 4.28-4.81-2.34m6.19 6.54c.68 2.33.57 5.69 3.55 6.35.12-2.63-.28-5.23-1.02-7.74l-2.53 1.39z"/><path fill="#141414" opacity=".79" d="M217.11 156.24h.45v.45h-.45v-.45z"/><path fill="#424046" d="M181.93 159.93c1.42-.97 2.75-2.09 4.31-2.85 3.87.53 7.07 4.04 11.23 3.09l1.7-.47c.37 2.88.77 5.95-.63 8.64-1.67 4.15-5.17 7.08-8.49 9.89 1.1-2.82 2.85-5.3 4.73-7.64-1.5-.34-2.99-.76-4.53-.88-1.92.77-3.24 2.47-4.73 3.84-4.72 5.57-12.64 5.48-18.62 9.03-2.05 1-3.98 2.24-6.01 3.3-2.23.85-4.49 1.58-6.72 2.44l-.18-1.68c1.63-3.16 4.79-5.06 7.54-7.14 3.11-2.19 5.89-4.99 9.54-6.3 2.13-.88 4.4-1.54 6.34-2.83 1.36-1.16 2.23-2.76 3.27-4.2l-3.87-1.9c1.64-.45 3.29-.9 4.96-1.26l2.71 2.63c2.59-1.11 5.06-2.45 7.46-3.93l.81-.45c-3.54-.84-7.17-1.35-10.82-1.33z"/><path fill="#f7ffff" d="M210.1 156.69l2.73.43 1.46 3.75-2.85.81-.17-.71-1.17-4.28z"/><path fill="#4e8695" d="M181.93 159.93c3.65-.02 7.28.49 10.82 1.33l-.81.45c-3.39.47-6.81.68-10.17 1.3-1.67.36-3.32.81-4.96 1.26l-2.72.82 1.16-1.77c2.27-1.04 4.52-2.13 6.68-3.39z"/><path fill="#626264" d="M181.77 163.01c3.36-.62 6.78-.83 10.17-1.3-2.4 1.48-4.87 2.82-7.46 3.93l-2.71-2.63z"/><path fill="#faffff" d="M212.65 165.17l2.53-1.39c.74 2.51 1.14 5.11 1.02 7.74-2.98-.66-2.87-4.02-3.55-6.35z"/><path fill="#181918" d="M174.09 165.09l2.72-.82 3.87 1.9c-1.04 1.44-1.91 3.04-3.27 4.2-1.94 1.29-4.21 1.95-6.34 2.83.74-2.79 1.4-5.68 3.02-8.11z"/><path fill="#6d6a73" d="M200.42 177.32c3.85-3.63 7.79-7.17 11.84-10.58.23 2.62.31 5.25.25 7.87.39-.17.8-.31 1.21-.43-.29 1.79-.42 3.61-.57 5.42.36 1 .76 2 1.2 2.98 1.32.26 2.65.49 3.99.69l-.02 1.69-3.65.7-.57 4.5c-.93-2.5-1.7-5.6-4.39-6.75-3.37-1.59-7.02-2.95-9.29-6.09z"/><path fill="#343338" d="M190.25 169.71c1.54.12 3.03.54 4.53.88-1.88 2.34-3.63 4.82-4.73 7.64l-.63 1.54c-.86 2.42-1.88 4.85-2.03 7.44.39 1.73 1.34 3.27 2.13 4.84l-3.27 3.53-1.12-1.09c-1.3-3.62-1.38-7.52-.15-11.18l.82-3.3c-4.03.29-8.4.13-11.88 2.53-.25.23-.77.68-1.03.91-1.84-.98-3.95-1.19-5.99-.87 5.98-3.55 13.9-3.46 18.62-9.03 1.49-1.37 2.81-3.07 4.73-3.84z"/><path fill="#39393e" d="M234.5 180.12c.14-2.73-.7-5.4-.81-8.13.92 2 2.16 3.88 2.72 6.03.21 2.52-.67 4.99-.52 7.51 1.05 2.1 2.65 3.86 4.08 5.72l-4.52 2.34c-1.31.74-2.58 1.55-3.79 2.46l-2.83 3.3-1.77-1.31-4.26-2.14c1.77-2.5 3.63-4.94 5.8-7.1 2.42-2.51 5.13-5.14 5.9-8.68z"/><path fill="#f9ffff" d="M213.72 174.18c1.09.6 2.2.62 3.34.04l.75 8.24c-1.64-.81-3.01-2.07-4.66-2.86l.57-5.42z"/><path fill="#37808d" d="M173.92 182.54c3.48-2.4 7.85-2.24 11.88-2.53l-.82 3.3c-3.7.44-7.52.63-11.06-.77z"/><path fill="#444247" d="M187.39 187.21c.15-2.59 1.17-5.02 2.03-7.44l1.43 4.98 6.91-2.97c-.58 4.56-3.06 9.21-1.26 13.79.89-2.01 1.58-4.1 2.39-6.14l6.85.75.34 2.64c-5.27 4.06-10.49 8.34-16.75 10.82l-1.38-.94c-2.07.93-4.16 1.84-6.12 2.99a122.91 122.91 0 0 0-3.87 2.55l1.74 5.78c-1.73-1.45-3.19-3.5-5.4-4.2-3.43.67-6.19 3.13-9.59 3.9-2.04.41-4.12.48-6.18.71l-3.21-3.67c3.44-3.19 8.12-4.27 11.98-6.79l-.1-1.71-.65-1.59c-2.67-1.11-5.38-2.11-8-3.32l1.39-2.46c3.31-.24 6.55.59 9.56 1.91-.64 2.46-1.1 4.96-1.49 7.47 1.7-.94 3.9-1.42 5.02-3.12 1.1-3.99.73-8.2 1.41-12.26 1.52 2.7 2.53 5.76 4.7 8.04 2.08-.58 4.02-1.55 5.99-2.44l1.12 1.09 3.27-3.53c-.79-1.57-1.74-3.11-2.13-4.84z"/><path fill="#121313" d="M166.9 182.58c2.04-.32 4.15-.11 5.99.87l2.25 1.98-.7 3.46c-.68 4.06-.31 8.27-1.41 12.26-1.12 1.7-3.32 2.18-5.02 3.12.39-2.51.85-5.01 1.49-7.47l.49-2.04c.95-3.75-.93-7.32-2.13-10.77-2.34.59-4.67 1.18-6.97 1.89 2.03-1.06 3.96-2.3 6.01-3.3z"/><path fill="#255963" d="M172.89 183.45l1.03-.91c3.54 1.4 7.36 1.21 11.06.77-1.23 3.66-1.15 7.56.15 11.18-1.97.89-3.91 1.86-5.99 2.44-2.17-2.28-3.18-5.34-4.7-8.04l.7-3.46-2.25-1.98z"/><path fill="#fff" d="M214.67 185.66l3.65-.7c.1 4.08-.1 8.16-.78 12.2l-5.26.8c.71-2.57 1.46-5.15 1.82-7.8l.57-4.5z"/><path fill="#101111" opacity=".55" d="M143.41 189.28c2.67-1.82 5.72-3 8.96-3.22l-1.33 2.15c-2.33-.38-4.39.71-6.14 2.14 1.5 1.52 2.93 3.6 5.29 3.7 6.58.64 13.22.01 19.8.71l-.49 2.04c-3.01-1.32-6.25-2.15-9.56-1.91l-2.85.09c-7.71.07-15.48.24-23.13-.85 3.3.12 6.61.13 9.91.01l-.46-4.86z"/><path fill="#27b6b8" opacity=".84" d="M152.37 186.06l1.62.58.18 1.68-1.8.93-1.33-1.04 1.33-2.15z"/><path fill="#3a393e" opacity=".95" d="M144.9 190.35c1.75-1.43 3.81-2.52 6.14-2.14l1.33 1.04c-1.14.96-2.18 2.04-3.43 2.85-1.43-.36-2.71-1.14-4.04-1.75z"/><path fill="#1f201f" d="M111.04 191.22c3.87.46 7.73-.53 11.57-.27 3.65 1.5 7.4 2.77 11.35 3.18 7.65 1.09 15.42.92 23.13.85l-1.28 2.81c-8.01-.2-16.07.83-24.02-.61l.8-2.89c-5.49-.47-10.98-1.17-16.49-1.12-2.83 2.15-2.3 5.77-1.84 8.85a100.83 100.83 0 0 1 .21 1.72c4.45.7 8.97.83 13.44 1.37l2.92.41.32-4.44c7.52.44 15.07 1.62 22.08 4.5-.05 1.7-.01 3.4.14 5.1-1.28.56-2.57 1.12-3.82 1.75l-12.68-4.33c-8.9-3.02-18.47-3.14-27.74-2.31-.22-.34-.67-1-.89-1.33l4.04-2.38c.81-2.55 1.15-5.25.73-7.91-.64-1-1.3-1.98-1.97-2.95z"/><path fill="#44484b" d="M103.6 192.6l7.44-1.38 1.97 2.95-2.26.64c-1.45.61-2.93 1.27-3.98 2.48.15 2.41 2.12 3.61 4.2 4.23l1.31.56-4.04 2.38c-2.16-3.68-1.96-8.08-2.53-12.16-1.41 2.89-2.14 6.03-2.25 9.24l-.06.54c-.23-3.16-.17-6.33.2-9.48z"/><path fill="#747174" d="M235.45 193.59l4.52-2.34.86 1.69 1.71 3.34-4.39.71-2.7-3.4z"/><path fill="#68cddf" opacity=".95" d="M103.46 201.54c.11-3.21.84-6.35 2.25-9.24.57 4.08.37 8.48 2.53 12.16l.89 1.33c-2.1-1.12-3.97-2.6-5.67-4.25z"/><path fill="#518291" d="M114.26 202.02c-.46-3.08-.99-6.7 1.84-8.85-.32 2.45-.74 4.89-1.41 7.28l-.43 1.57z"/><path fill="#6e6c6f" d="M116.1 193.17c5.51-.05 11 .65 16.49 1.12l-.8 2.89-.53 2.25-.33-2.79-8.9-.5.04 5.86c3.14.11 6.32-.23 9.14-1.71l-.06.79-.32 4.44-2.92-.41c-3.75-1.04-6.74-3.64-10.17-5.32-1.05.05-2.05.37-3.05.66.67-2.39 1.09-4.83 1.41-7.28z"/><path fill="#35353a" d="M240.83 192.94l3.06 1.67c-.08 3.77-3.27 6.05-5.07 9-1.56 4.21-1.16 8.81-1.25 13.21-4.8-2.38-9.17-5.85-14.56-6.84l.46-5.07-4.63 2.93c-.57-2.45-1.42-4.92-1.25-7.47.92-1.2 2.14-2.12 3.24-3.14l2.78 6.74c1.01-.57 1.98-1.22 2.93-1.9.46 2.3.42 4.8 1.6 6.88 1.64 1.93 4.04 2.93 6.19 4.17-.21-2.52-.48-5.03-.76-7.54l2.96 1.17c-2.41-2.63-4.95-5.14-7.7-7.4.92-1.11 1.83-2.24 2.83-3.3l1.64 3.93c1.64-.97 3.22-2.02 4.85-2.99l4.39-.71-1.71-3.34z"/><path fill="#567884" d="M110.75 194.81l2.26-.64c.42 2.66.08 5.36-.73 7.91l-1.31-.56-.22-6.71z"/><path opacity=".04" d="M231.66 196.05c1.21-.91 2.48-1.72 3.79-2.46l2.7 3.4-4.85 2.99-1.64-3.93z"/><path fill="#7b797b" d="M106.77 197.29c1.05-1.21 2.53-1.87 3.98-2.48l.22 6.71c-2.08-.62-4.05-1.82-4.2-4.23z"/><path fill="#64a4b6" d="M157.09 194.98l2.85-.09-1.39 2.46-1.77 3.63c-.91 2.81-1.53 5.71-1.93 8.64-.62-1.57-1.11-3.19-1.49-4.84.52-2.42 1.47-4.73 2.45-6.99l1.28-2.81z"/><path fill="#918e91" d="M122.03 196.14l8.9.5.33 2.79-.05.86c-2.82 1.48-6 1.82-9.14 1.71l-.04-5.86z"/><path fill="#4b4a4b" d="M131.79 197.18c7.95 1.44 16.01.41 24.02.61-.98 2.26-1.93 4.57-2.45 6.99l-.13.8c-7.01-2.88-14.56-4.06-22.08-4.5l.06-.79.05-.86.53-2.25z"/><path fill="#69686b" d="M156.78 200.98c.53-1.24 1.13-2.45 1.77-3.63l8 3.32.65 1.59c-3.49-.29-6.98-.67-10.42-1.28z"/><path fill="#837570" d="M226.54 202.07l.52-4.03 1.77 1.31c2.75 2.26 5.29 4.77 7.7 7.4l-2.96-1.17c-2.4-1.05-4.73-2.25-7.03-3.51z"/><path fill="#555355" d="M114.69 200.45c1-.29 2-.61 3.05-.66 3.43 1.68 6.42 4.28 10.17 5.32-4.47-.54-8.99-.67-13.44-1.37l-.21-1.72.43-1.57z"/><path fill="#393c41" d="M200.97 200.01c1.7-.32 3.39.43 5.06.7 2.45.65 5.05.84 7.38 1.9 1.38 1.42 2.31 3.2 3.37 4.86l-3.83-1.2-2.33 2.06-4.05 4.2 3.16.29.7-3.63c4.29 2.48 9.23 3.44 13.59 5.76-2.84.67-5.33 2.24-7.01 4.64-1.04-.58-2.11-1.1-3.19-1.58l.7-5.36c-1.75 1.28-3.35 2.75-4.61 4.51l-2.69-.42-1.34 3.37-1.9.82c-1.5.65-2.98 1.33-4.41 2.1-1.28.72-2.51 1.5-3.74 2.29l.02 3.53c-1.44.79-2.86 1.6-4.27 2.45-1.48.88-2.88 1.9-4.3 2.89-.31 1.2-.62 2.41-1.05 3.57-1.21 1.58-2.53 3.07-3.74 4.64a35.68 35.68 0 0 0-1.6 2.46c-.08 1.89-.15 3.81.27 5.67 1.27 2.39 3.87 3.71 5.18 6.09.97 2.01 1.42 4.21 1.98 6.36l-2.31-1.36-.57-.4-.96-1.27-.56 5.8c-3.17-2.79-6.17-5.76-9.2-8.7.23 2.74.45 5.5.94 8.21-.84-1.01-1.65-2.05-2.46-3.09l-.9 2.1c-1.55-1.25-3.4-2.25-4.51-3.95-.74-2.76-.58-5.88-2.52-8.19 5.53-4.81 11.85-9.43 14.76-16.41-2.54 1.04-4.93 2.5-6.71 4.62-3.06 3.5-6.53 6.6-10.12 9.55-1.43 3.81-1.59 7.91-1.53 11.93l-4.56.45 2.21 2.42c-2.73-.39-5.49-.58-8.24-.8l.93 2.17.94 1.4 1.57 1.64c-.18 1.71-.92 3.3-1.08 5.01 1.38-.87 2.74-1.78 4.16-2.59.8 1.35 1.71 2.66 2.32 4.13.07 1.24-.49 2.41-.77 3.6-4.42-2.18-7.32-6.38-11.58-8.79-1.69-.99-3.31-2.35-3.77-4.36-.72-2.79-1.09-5.66-1.49-8.51 2.27 1.46 4.28 3.31 6.66 4.59 1.84.45 3.77.11 5.64.03-1.12-2.1-2.01-4.41-3.74-6.1-2.14-1.49-4.75-2.03-7.16-2.9l1.42-.02c3.01-.28 6.44-.07 8.87-2.18 3.43-2.78 6.13-6.3 9.28-9.37l1.86.97c3.54-2.94 6.61-6.37 9.91-9.57 2.71-2.73 6.72-3.08 10.27-3.95-2.1-2.26-4.01-4.76-6.52-6.58-1.49-1.05-3.39-.17-5 .04l.97-.88c2.13-1.84 4.37-3.54 6.41-5.47 2.47-2.3 2.6-5.88 3.28-8.96l-2.63-1.55c1.96-1.15 4.05-2.06 6.12-2.99.34.24 1.04.71 1.38.94l-.28.88-4.41 4.52 3.87-2.67c1.91-.97 3.87-1.84 5.85-2.68l2.73 6.71c1.71-1.15 3.46-2.27 5.05-3.58-1.2-2.28-4.21-2.32-6.32-3.33 1.66-1.23 3.25-2.62 5.15-3.48m-3.99 13.97c-1.83 2.22-4.02 4.09-6.32 5.81l-4.47.99a156.33 156.33 0 0 0 2.67 7.91l4.05-1.92-1.65-3.16c2.7-3.72 5.62-7.39 9.57-9.86 1.87-1.02 2.71-2.93 3.22-4.9-3.33-.05-5.11 2.94-7.07 5.13m-22.22 34.85c-.74 1.18-1.7 3.38.32 3.83 1.96-.17 3.9-.51 5.87-.52l-2.31-5.41c-1.33.6-3 .81-3.88 2.1z"/><path fill="#8d8b8f" d="M210.32 199.1l.71-.42.72.42v.82l-.71.41-.72-.41v-.82z"/><path fill="#828082" d="M154.85 209.62c.4-2.93 1.02-5.83 1.93-8.64 3.44.61 6.93.99 10.42 1.28l.1 1.71c-3.86 2.52-8.54 3.6-11.98 6.79l-.47-1.14z"/><path fill="#3da3ac" opacity=".98" d="M153.23 205.58l.13-.8c.38 1.65.87 3.27 1.49 4.84l.47 1.14 3.21 3.67-.86.12-2.72.56-1.58-4.43c-.15-1.7-.19-3.4-.14-5.1z"/><path fill="#676667" d="M184.64 209.04l4.41-4.52-.54 1.85-3.87 2.67z"/><path fill="#131414" d="M181.83 205.69l2.63 1.55c-.68 3.08-.81 6.66-3.28 8.96-2.04 1.93-4.28 3.63-6.41 5.47l-5.98-6.86-11.12-.26.86-.12 6.18-.71c3.4-.77 6.16-3.23 9.59-3.9 2.21.7 3.67 2.75 5.4 4.2l-1.74-5.78 3.87-2.55z"/><path fill="#6e6f73" d="M196.98 213.98c1.96-2.19 3.74-5.18 7.07-5.13-.51 1.97-1.35 3.88-3.22 4.9-3.95 2.47-6.87 6.14-9.57 9.86l-.99-1.85.39-1.97c2.3-1.72 4.49-3.59 6.32-5.81z"/><path fill="#646467" d="M206.57 212.53c1.21-1.53 2.66-2.84 4.05-4.2l-.19.86-.7 3.63-3.16-.29z"/><path fill="#333136" opacity=".85" d="M153.37 210.68l1.58 4.43c-1.1 1.18-2.14 2.45-3.52 3.3-1.48.6-3.05-.24-4.49-.55.73-1.85.99-4.1 2.61-5.43l3.82-1.75z"/><path fill="#5c88b8" d="M209.91 217.16c1.26-1.76 2.86-3.23 4.61-4.51l-.7 5.36-3.91-.85z"/><path fill="#292b30" d="M217.01 219.59c1.68-2.4 4.17-3.97 7.01-4.64l-.53 5.9.15.71 2.77-.42 1.52-.85.56 4.19 6.35 1.62c-3.44 1.15-5.61 4.13-7.67 6.91.61-1.77 1.29-3.59 1.22-5.49-.96-1.85-3.1-2.69-4.66-3.96l-.22 3.55-1.73-1.29-.46-.61c-1.4-1.9-2.78-3.82-4.31-5.62z"/><path fill="#756f6d" d="M227.2 218.37l2.64-3.55 5.92 4.2.4.68-2.75 1.54-.75-.37-5.46-2.5z"/><path fill="#515158" d="M207.22 216.74l2.69.42 3.91.85 3.19 1.58c1.53 1.8 2.91 3.72 4.31 5.62-.75.84-1.62 1.59-2.2 2.56-.19 1.62.31 3.23.52 4.83l6.34-.48-4.2-6.3 1.73 1.29.22-3.55c1.56 1.27 3.7 2.11 4.66 3.96.07 1.9-.61 3.72-1.22 5.49-1.49 2.51-4.01 4.14-6.23 5.94-2.49 1.83-4.74 4.03-7.49 5.47-1.87.44-3.85.13-5.7.65-1.6.77-2.96 1.93-4.38 2.98.22-2.63-.65-5.1-1.69-7.45l-.96-4.42-1.55-8.25c1.95 2.21 3.93 4.65 6.72 5.81 1.56-1.25 2.87-2.77 4.31-4.15l.74.38c-1.86 2.89-2.37 6.28-2.03 9.67l3.04-4.03 2.31-1.3.32-2.12 3.79-2.44c-1.63-2.25-4.39-2.4-6.93-2.4l-2.19-4.56a42.68 42.68 0 0 0-3.94 2.26l-1.33-4.12 1.9-.82 1.34-3.37z"/><path fill="#34353a" d="M238.46 217.33l1.32-.69c.08 3.37-.15 6.74-.53 10.09-.98-2.37-1.94-4.74-3.09-7.03l-.4-.68c.89-.58 1.79-1.14 2.7-1.69z"/><path fill="#7e7c7e" d="M224.29 219.32l.82-.28.81.37.49 1.73-2.77.42-.15-.71.8-1.53z"/><path fill="#505057" d="M186.19 220.78l4.47-.99-.39 1.97.99 1.85 1.65 3.16-4.05 1.92-2.67-7.91z"/><path d="M173.8 222.55c1.61-.21 3.51-1.09 5-.04 2.51 1.82 4.42 4.32 6.52 6.58-3.55.87-7.56 1.22-10.27 3.95-3.3 3.2-6.37 6.63-9.91 9.57l-1.86-.97c4.98-4.89 10.97-8.93 14.54-15.09-2.82-.6-5.65-.11-8.34.8l2.56-3.15 1.76-1.65zm7.09 22.31c3.53 3.99 8.42 6.57 11.47 11l-2.27 1.22 1.93 6.18-4.76 4.03-2.73 2.15-2.93-2.34-.21 3c-2.03-1.46-4.13-2.89-5.73-4.84-.49-2.71-.71-5.47-.94-8.21 3.03 2.94 6.03 5.91 9.2 8.7l.56-5.8.96 1.27c-.36 1.25-1.53 2.99-.3 4.09 1.7-.16 1.19-2.59.87-3.69l2.31 1.36c-.56-2.15-1.01-4.35-1.98-6.36-1.31-2.38-3.91-3.7-5.18-6.09-.42-1.86-.35-3.78-.27-5.67z" fill="#56565c"/><path d="M199.57 223.03l4.41-2.1 1.33 4.12.07 1.49-3.51-.43-2.3-3.08zm-17.08 19.37l3.74-4.64 1.5 1.44-.39 3.28-4.85-.08z" fill="#fdffff"/><path fill="#333233" opacity=".75" d="M231.27 221.85l1.39-.98.75.37-.74 1.42-.71.29-.62-.35-.07-.75z"/><path fill="#686568" d="M195.83 225.32l3.74-2.29 2.3 3.08-3.54-.44.84 2.26c.69 2.71 1.07 5.49 1.55 8.25l-5.72-1.87.85-5.46-.02-3.53z"/><path fill="#3e4146" d="M205.31 225.05a42.68 42.68 0 0 1 3.94-2.26l2.19 4.56c2.54 0 5.3.15 6.93 2.4l-3.79 2.44-3.64-2.22-.74-.38-4.31 4.15c-2.79-1.16-4.77-3.6-6.72-5.81l-.84-2.26 3.54.44 3.51.43-.07-1.49z"/><path fill="#28292d" d="M170.1 224.88l1.94-.68-2.56 3.15c2.69-.91 5.52-1.4 8.34-.8-3.57 6.16-9.56 10.2-14.54 15.09-3.15 3.07-5.85 6.59-9.28 9.37-2.43 2.11-5.86 1.9-8.87 2.18.87-1.44 1.76-2.88 2.93-4.1 5.93-6.09 12.51-11.51 18.48-17.57 1.86-1.78 2.68-4.29 3.56-6.64z"/><path fill="#5d5b60" d="M219.12 227.77c.58-.97 1.45-1.72 2.2-2.56l.46.61 4.2 6.3-6.34.48c-.21-1.6-.71-3.21-.52-4.83z"/><path fill="#fbffff" d="M191.58 231.3l4.27-2.45-.85 5.46-.75-.32-2.67-2.69z"/><path fill="#7b7a7c" d="M210.94 229.97l3.64 2.22-.32 2.12-2.31 1.3-3.04 4.03c-.34-3.39.17-6.78 2.03-9.67z"/><path fill="#5b5b61" d="M187.28 234.19l4.3-2.89 2.67 2.69-3.16 2.56c2.67 3.95 7.33 6.17 9.39 10.54.44 1.78.92 3.54 1.41 5.31-1.93 1.54-3.74 3.25-5.81 4.61h-.87c-.38-2.05-.82-4.08-1.36-6.08.07-1.26.7-2.68.09-3.86-1.84-1.99-4.33-3.18-6.6-4.59l.39-3.28-1.5-1.44c.43-1.16.74-2.37 1.05-3.57z"/><path fill="#3a3d43" d="M194.25 233.99l.75.32 5.72 1.87c.24 1.49.61 2.95.96 4.42l-1.2 6.49c-2.06-4.37-6.72-6.59-9.39-10.54l3.16-2.56z"/><path fill="#24252b" d="M173.32 240.34c1.78-2.12 4.17-3.58 6.71-4.62-2.91 6.98-9.23 11.6-14.76 16.41a109.72 109.72 0 0 0-2.07-2.24c3.59-2.95 7.06-6.05 10.12-9.55z"/><path fill="#716f73" opacity=".96" d="M201.68 240.6c1.04 2.35 1.91 4.82 1.69 7.45-.38 1.48-.96 2.9-1.48 4.35l-1.41-5.31 1.2-6.49z"/><path fill="#393b42" d="M187.34 242.48c2.27 1.41 4.76 2.6 6.6 4.59.61 1.18-.02 2.6-.09 3.86l-.9 5.97 2.26.11h.87c-.52 2.56-1.6 5.02-4.06 6.25l-1.93-6.18 2.27-1.22c-3.05-4.43-7.94-7.01-11.47-11a35.68 35.68 0 0 1 1.6-2.46l4.85.08z"/><path fill="#9ac6e2" d="M174.76 248.83c.88-1.29 2.55-1.5 3.88-2.1l2.31 5.41c-1.97.01-3.91.35-5.87.52-2.02-.45-1.06-2.65-.32-3.83m2.46-.47c-1.18.02-2.63 2.03-1.11 2.66 1.75.71 3.65-2.84 1.11-2.66z"/><path fill="#fcffff" d="M177.22 248.36c2.54-.18.64 3.37-1.11 2.66-1.52-.63-.07-2.64 1.11-2.66z"/><path fill="#2e2f35" d="M161.67 261.82c-.06-4.02.1-8.12 1.53-11.93l2.07 2.24c1.94 2.31 1.78 5.43 2.52 8.19 1.11 1.7 2.96 2.7 4.51 3.95-1.09 2.52-2.34 4.97-3.64 7.39 1.34.83 2.74 1.59 3.93 2.65 1.18 1.46 1.64 3.34 2.33 5.05l.3.82-4.06.71.19-1.71.05-.84.12-2.11c-2.57-.42-5.11-.97-7.6-1.7l1.59-3.69c.79-2.11.31-4.29-1.07-6.02-.9-1.02-1.84-2.01-2.77-3z"/><path fill="#908d92" d="M193.85 250.93l1.36 6.08-2.26-.11.9-5.97z"/><path fill="#4d4c50" d="M139.84 260.95c-.86-3.31 1.86-5.61 3.87-7.74 2.41.87 5.02 1.41 7.16 2.9 1.73 1.69 2.62 4 3.74 6.1-1.87.08-3.8.42-5.64-.03-2.38-1.28-4.39-3.13-6.66-4.59l1.49 8.51c-1.75-1.34-4.09-2.6-3.96-5.15m7.05-2.79l.21 2.72 2.65.02.11-2.77-2.97.03z"/><path fill="#858183" d="M146.89 258.16l2.97-.03-.11 2.77-2.65-.02-.21-2.72z"/><path fill="#a3a0a4" d="M185.14 265.31c-1.23-1.1-.06-2.84.3-4.09l.57.4c.32 1.1.83 3.53-.87 3.69z"/><path fill="#959399" d="M157.11 262.27l4.56-.45 2.77 3-3.57 1.47-1.55-1.6-2.21-2.42z"/><path fill="#4f4f54" d="M173.2 262.17l2.46 3.09c1.6 1.95 3.7 3.38 5.73 4.84l.21-3 2.93 2.34 2.73-2.15c-1.32 6.2-7.44 9.06-12.34 12.07-.69-1.71-1.15-3.59-2.33-5.05-1.19-1.06-2.59-1.82-3.93-2.65 1.3-2.42 2.55-4.87 3.64-7.39l.9-2.1z"/><path fill="#515156" d="M151.08 263.89l8.24.8 1.55 1.6 4.64 4.55-1.59 3.69c2.49.73 5.03 1.28 7.6 1.7l-.12 2.11-4.3-1.67 1.14 3.14 3.11-.63-.19 1.71c-.2 2.29-3.06 2.26-4.76 1.84-1.21-1.7-2.02-3.64-2.9-5.53l-4.65 3.1c-3.03-.62-6.6-.75-8.76-3.3-1.78-1.71-2.15-4.22-2.52-6.54 4.26 2.41 7.16 6.61 11.58 8.79.28-1.19.84-2.36.77-3.6-.61-1.47-1.52-2.78-2.32-4.13-1.42.81-2.78 1.72-4.16 2.59.16-1.71.9-3.3 1.08-5.01l-1.57-1.64c1.58-.13 2.19-.9 1.84-2.33-1.22-.82-2.15-.51-2.78.93l-.93-2.17z"/><path fill="#87848a" d="M152.01 266.06c.63-1.44 1.56-1.75 2.78-.93.35 1.43-.26 2.2-1.84 2.33l-.94-1.4z"/><path fill="#63636a" d="M164.44 264.82c1.38 1.73 1.86 3.91 1.07 6.02l-4.64-4.55 3.57-1.47z"/><path fill="#8f8d95" d="M167.1 276.67l4.3 1.67-.05.84-3.11.63-1.14-3.14z"/></svg>