<svg xmlns="http://www.w3.org/2000/svg" width="512" height="512" viewBox="0 0 384 384" xmlns:v="https://vecta.io/nano"><path fill="#0f0f10" opacity=".55" d="M217 153.5c2.18-1.49 4.58-2.82 7.26-3.01 2.5-.44 4.62 1.22 6.69 2.34-4.07-1.15-8.35-.87-12.38.31l-1.57.36z"/><path fill="#393839" d="M218.57 153.14c4.03-1.18 8.31-1.46 12.38-.31.79 1.24 1.44 2.56 2.09 3.88-4.91-.8-9.87-1.57-14.47-3.57z"/><path fill="#5ba5b8" d="M215.76 153.83l1.24-.33 1.57-.36c4.6 2 9.56 2.77 14.47 3.57.98.41 1.87 1.22 2.14 2.27l.24 1.26c-2.14-.84-4.22-1.94-6.51-2.3-2.25-.19-4.51.08-6.75.21-1.72-1.98-3.9-3.5-6.4-4.32z"/><path fill="#1c1c1c" d="M209.88 155.86l5.88-2.03c2.5.82 4.68 2.34 6.4 4.32 2.24-.13 4.5-.4 6.75-.21 2.29.36 4.37 1.46 6.51 2.3l-.24-1.26c.39 1.63.5 3.36-.35 4.88-1.95 4.1-2.89 8.67-5.52 12.44-1.39 1.85-2.01 4.19-1.46 6.47.8.83 1.66 1.59 2.59 2.29l-3.39.72.37-7.07c-3.34 1.33-6.92 1.06-10.29 0-2.48 1.83-5 4.14-8.3 4.04l.59-3.01 2.43-1.76 2.83-2.11c-2.95-.16-5.96-.29-8.76-1.34.75-2.73 3.57-6.05 1.43-8.73-3.58-2.99-8.44-1.57-12.62-1.28l-1.47-.48c3.96-3.64 9.31-4.83 14.32-6.27 4.08 1.46 7.11 4.65 10.29 7.45-1.62-3.91-4.58-6.96-7.99-9.36z"/><path fill="#141514" d="M199.19 157.21c1.77-.26 3.58-1.13 5.37-.67l3.02 1.23c-5.01 1.44-10.36 2.63-14.32 6.27-1.05-.32-2.11-.58-3.16-.85l1.47 1.82c-1 4.6-2.38 9.46-5.93 12.79-2.51.69-4.94-.84-7.29-1.51 1.98-3.92 4.26-7.66 6.48-11.44-3.76 2.11-6.79 5.21-9.28 8.69-5.28-1.78-10.58-3.52-15.99-4.87l-.87-.23c3.07.25 6.14.57 9.2.91 1.89-2.26 3.66-4.65 5.95-6.54 2.84-2.29 6.43-3.36 9.95-4.08 5.08-1.04 10.36-.21 15.4-1.52z"/><path fill="#2f5d6a" opacity=".98" d="M204.56 156.54l5.32-.68c3.41 2.4 6.37 5.45 7.99 9.36-3.18-2.8-6.21-5.99-10.29-7.45-1.01-.43-2.01-.84-3.02-1.23z"/><path fill="#161517" opacity=".51" d="M147.96 162.4l4.88-.38-.41 1.21-1.95 6.59-2.34.41 1.49-2.06-1.67-5.77z"/><path fill="#5ca0b1" d="M190.1 163.19l3.16.85 1.47.48 3.16 3.38c2.2 2.33 4.74 4.3 7.36 6.14l.67.49c2.8 1.05 5.81 1.18 8.76 1.34l-2.83 2.11-5.83-1.1c-3.95-2.01-7.37-4.88-10.61-7.88-1.34-1.27-2.63-2.59-3.84-3.99-.36-.46-1.1-1.36-1.47-1.82z"/><path fill="#403f44" d="M150.48 169.82l1.95-6.59c1.32 1.24 3.26 2.3 3.2 4.38l.42 3.68 3.51-2.62c5.41 1.35 10.71 3.09 15.99 4.87 2.49-3.48 5.52-6.58 9.28-8.69-2.22 3.78-4.5 7.52-6.48 11.44 2.35.67 4.78 2.2 7.29 1.51 3.55-3.33 4.93-8.19 5.93-12.79 1.21 1.4 2.5 2.72 3.84 3.99-1.45 3.33-3.29 6.55-4.03 10.13-.44 1.93.69 4.07 2.51 4.83 1.95.78 4.07.99 6.13 1.26l7.31.66-1.32.98c-1.34-.14-2.38.28-3.13 1.27-.78 1.11-1.53 2.25-2.27 3.38l5.81 4.83a68.3 68.3 0 0 1-6.66 2.64l-1.38-5.58-2.23-.18.69 8.12 3.9 2.01c-1.84 2.46-4.11 4.57-6.77 6.13 2.25 3.72 4.29 7.9 8.16 10.2 2.89 1.75 5.78 3.54 8.29 5.83l-4.66 5.02 5.05 1.7 3.42-2.32 15.04-10.13 2.5.84-.19 3.91-1.06 3.56-.41 1.6c.01 2.15.26 4.29.53 6.43l-5.41-.45c-1.13-.01-2.12-.35-2.99-1a33.54 33.54 0 0 1-2.29-2.16l3.75-3c-2.08-.01-4.16-.01-6.23.14-1.52 1.89-2.82 3.96-4.12 6.01l-13.63-.57c-.73-2.49-1.51-4.97-2.15-7.49l.01-1.58-2.31 2.58c-.38-1.28-.75-2.57-1.38-3.75-3.22.48-6.31 1.69-9.57 1.95-1.42-.92-2.61-2.13-3.89-3.23 3.31.45 6.66.44 9.99.21-4.33-1.97-9.06-2.66-13.54-4.14l3.46-1.78c-2.43-2.67-5.18-5.04-8.16-7.07l-1.9 5.05-3.6-1.5c-.51-2.74-.47-5.74-1.92-8.18-3.34-3.82-9.58-5.65-10.32-11.31l-.1-1.4c4.73 2 9.23 5.08 14.57 5.02a117.89 117.89 0 0 1 4.16.5l-.71 2.22 5.13 3.62c2.43 1.7 5.01 3.18 7.67 4.49.39-1.42 1.66-2.9.88-4.4l-2.25-5.11c.07-2.82 1.06-5.5 2.1-8.1-2.25-1.05-4.53-2.03-6.83-2.94l.03 5.12-4.92.91c-.17-4.11-.32-8.32-1.65-12.25-.71-2.47-3.43-3.06-5.44-4.09-4.2-3-8.83-5.42-13.91-6.53l-.09-2.49-2.6.4z"/><path fill="#424142" d="M194.73 164.52c4.18-.29 9.04-1.71 12.62 1.28 2.14 2.68-.68 6-1.43 8.73l-.67-.49c-.46-1.97-.38-4.14-1.39-5.93-1.66-1.49-4.03-.26-5.97-.21-1.07-1.11-2.1-2.26-3.16-3.38z"/><path fill="#605e60" d="M197.89 167.9c1.94-.05 4.31-1.28 5.97.21 1.01 1.79.93 3.96 1.39 5.93-2.62-1.84-5.16-3.81-7.36-6.14z"/><path fill="#31bec0" opacity=".95" d="M156.05 171.29l-.42-3.68 3.06.83.87.23-3.51 2.62z"/><path fill="#65a4b5" d="M150.48 169.82l2.6-.4.09 2.49.17 2.86c.29 2.49.85 4.95 1.52 7.36l.79 2.79-.58 2.71-.87-1.62c-2.03-4.07-2.6-8.64-3.25-13.09l-.47-3.1z"/><path fill="#565556" d="M195.41 169c3.24 3 6.66 5.87 10.61 7.88-3.55.41-6.56 2.38-8.4 5.42l2.4 2.92c-2.06-.27-4.18-.48-6.13-1.26-1.82-.76-2.95-2.9-2.51-4.83.74-3.58 2.58-6.8 4.03-10.13z"/><path fill="#202020" d="M125.27 177.36c7.84-1.7 14.88-6.01 22.87-7.13l2.34-.41.47 3.1c-7.82 3.25-16.09 5.16-24.04 8.04l-.19-2.46c-2.76.29-5.52.7-8.29.91-2.67.13-5.35.11-8.03.14-.78 3.77-.81 7.64-.43 11.46l-1.86-.3-.23-.75c.13-1.91 1.83-6.12-1.25-6.25l-4.42.2-.2-6.28c3.74-.34 7.34 1.42 11.06.7 4.05-.61 8.2-.05 12.2-.97z"/><path fill="#6e6c6d" d="M153.17 171.91c5.08 1.11 9.71 3.53 13.91 6.53l.34 2.14c-3.85 1.64-7.8 3.04-11.77 4.34l-.79-2.79 8.32-1.74c-.49-1.34-.94-2.7-1.61-3.97-2.47-1.43-5.48-1.26-8.23-1.65l-.17-2.86z"/><path fill="#545354" d="M126.91 180.96c7.95-2.88 16.22-4.79 24.04-8.04.65 4.45 1.22 9.02 3.25 13.09-7.56-1.33-15.35-1.8-22.99-.87-2.21.04-2.83 2.54-4 4-5.08 1.3-10.23 2.49-15.48 2.78l-1.1.06.3-.83c.34-.97.63-1.95.88-2.94l5.83-1.64c3.19.37 6.4.43 9.6.24l-.33-5.85z"/><path fill="#838183" d="M153.34 174.77c2.75.39 5.76.22 8.23 1.65.67 1.27 1.12 2.63 1.61 3.97l-8.32 1.74c-.67-2.41-1.23-4.87-1.52-7.36z"/><path fill="#313233" d="M197.62 182.3c1.84-3.04 4.85-5.01 8.4-5.42l5.83 1.1-2.43 1.76-.59 3.01c-3.65-1.17-7.5-1.67-11.21-.45z"/><path fill="#77e6f8" d="M100.25 178.32l1.76-.69.2 6.28.15 3.88-.64 4.66c-3.38-3.64-2.03-8.94-2.02-13.42l.55-.71z"/><path fill="#7e7c7e" d="M118.43 179.41l8.29-.91c-2.26 2.09-5.24 2.84-8.22 3.12l-.86 4.95-5.83 1.64-.55-4.16 5.29-.56 1.88-4.08z"/><path fill="#938f92" d="M126.72 178.5l.19 2.46.33 5.85c-3.2.19-6.41.13-9.6-.24l.86-4.95c2.98-.28 5.96-1.03 8.22-3.12z"/><path fill="#131414" d="M167.08 178.44c2.01 1.03 4.73 1.62 5.44 4.09 1.33 3.93 1.48 8.14 1.65 12.25-.29 1.41-.68 2.8-1.1 4.19a117.89 117.89 0 0 0-4.16-.5c.49-2.22 1.21-4.41 1.28-6.69-.15-1.74-.89-3.34-1.4-4.99-.64-2.03-1.06-4.11-1.37-6.21l-.34-2.14z"/><path fill="#1e525c" d="M217.13 178.71c3.37 1.06 6.95 1.33 10.29 0l-.37 7.07-.78.16c-3.36.4-6.75.58-10.14.6-2.94-.08-5.87-.39-8.8-.66l-7.31-.66-2.4-2.92c3.71-1.22 7.56-.72 11.21.45 3.3.1 5.82-2.21 8.3-4.04z"/><path fill="#2b4c55" opacity=".78" d="M98.65 190.49c-.88-3.8-.76-7.94 1.05-11.46-.01 4.48-1.36 9.78 2.02 13.42.25-1.55.46-3.1.64-4.66l1.15 2.75c1.53.03 3.07.07 4.6.17l1.86.3.96.14-.3.83c-3.13.34-6.26.69-9.4.69-1.23.05-2.19-1.13-2.58-2.18z"/><path fill="#585658" d="M110.4 179.55l8.03-.14-1.88 4.08-5.29.56-.86-4.5z"/><path fill="#538493" d="M109.97 191.01c-.38-3.82-.35-7.69.43-11.46.31 1.49.59 2.99.86 4.5.22 1.38.42 2.77.55 4.16-.25.99-.54 1.97-.88 2.94l-.96-.14z"/><path fill="#484648" d="M167.42 180.58c.31 2.1.73 4.18 1.37 6.21-4.42 1.51-9.09 1.86-13.73 1.74l.01-.9.58-2.71c3.97-1.3 7.92-2.7 11.77-4.34z"/><path fill="#598694" d="M106.63 183.71c3.08.13 1.38 4.34 1.25 6.25-.69-2.02-1.28-4.11-1.25-6.25z"/><path fill="#77777a" d="M102.21 183.91l4.42-.2c-.03 2.14.56 4.23 1.25 6.25l.23.75-4.6-.17-1.15-2.75-.15-3.88z"/><path fill="#1c1c1c" d="M127.21 189.14c1.17-1.46 1.79-3.96 4-4 7.64-.93 15.43-.46 22.99.87l.87 1.62-.01.9c-1.5 0-3 .03-4.49.13a45.46 45.46 0 0 0-3.5.54 37.19 37.19 0 0 0-1.69 2.07c-5.49-3-11.84-1.49-17.73-1.05-3.45.16-6.74 1.2-9.98 2.28-1.98.8-4.03-.04-5.94-.58 5.25-.29 10.4-1.48 15.48-2.78z"/><path fill="#78abb5" d="M216.13 186.54c3.39-.02 6.78-.2 10.14-.6a62.57 62.57 0 0 0-7.04 2.49l-.39 1.46c.1 5.03.62 10.11-.44 15.08l-3.96-1.25c-.19-2.33-.37-4.67-.67-6.99-.16-.99-.41-1.96-.74-2.9-2.09-1.69-4.71-2.5-7.15-3.52 3.54-.08 7.09-.25 10.63-.42l-.38-3.35m-2.68 4.68c-.94 1.68 1.99 3 3 1.6.93-1.68-2-3-3-1.6m1.58 2.59l-.05 9.44 3.3-.02.14-8.27-3.39-1.15z"/><path fill="#464547" d="M227.05 185.78l3.39-.72c.67 3.61.18 7.27-.99 10.72l1.29 1.24c2 2.02 4.33 3.94 5.4 6.66.74 2.37.48 4.9.53 7.35l-.23-.63-.67-1.83-1.5.65c-2.43-8.12-7.65-15.58-15.43-19.33.09-.36.29-1.09.39-1.46a62.57 62.57 0 0 1 7.04-2.49l.78-.16z"/><path fill="#3a6e7c" opacity=".77" d="M230.44 185.06c.8.71 2.16 1.02 2.4 2.21.8 3.4-1 6.63-2.1 9.75l-1.29-1.24c1.17-3.45 1.66-7.11.99-10.72z"/><path fill="#56555d" d="M207.33 185.88l8.8.66.38 3.35-10.63.42c2.44 1.02 5.06 1.83 7.15 3.52.33.94.58 1.91.74 2.9-1.46 2.66-2.71 5.42-3.86 8.23-2.56 1.05-5.29 1.87-7.56 3.5-1.14.65-1.33 2.01-1.15 3.2 2.13 2.91 5.52 4.52 7.86 7.23 1.42 1.76 2.04 3.99 2.82 6.07l2.98-.22 1.55-6.87c1.4-3.9 1.99-8 1.87-12.14l.12-.76c1.06-4.97.54-10.05.44-15.08 7.78 3.75 13 11.21 15.43 19.33l1.5-.65.67 1.83-1.9 2.68c-4.06-1.19-8-2.76-11.73-4.76l-3.89 7.6 3.4 4.55c2.04-1.9 4.46-3.3 7.16-4l-.21 3.31-15.04 10.13-.37-3.66-3.44-.74c-2.51-2.29-5.4-4.08-8.29-5.83-3.87-2.3-5.91-6.48-8.16-10.2 2.66-1.56 4.93-3.67 6.77-6.13l-3.9-2.01-.69-8.12 2.23.18 1.38 5.58a68.3 68.3 0 0 0 6.66-2.64c-1.91-1.64-3.86-3.24-5.81-4.83l2.27-3.38c1 1.77 2.91.14 3.13-1.27l1.32-.98z"/><path fill="#7f7d82" d="M202.88 188.13c.75-.99 1.79-1.41 3.13-1.27-.22 1.41-2.13 3.04-3.13 1.27z"/><path fill="#39373c" opacity=".95" d="M147.07 189.2l3.5-.54 1.85 3.45-1.17.62c-2.55 1.87-5.4-.8-4.18-3.53z"/><path fill="#285c67" d="M179.06 188.75l6.83 2.94c-1.04 2.6-2.03 5.28-2.1 8.1L176 198.7l2.54 5.9-1.05.21-5.13-3.62.71-2.22 1.1-4.19 4.92-.91-.03-5.12z"/><path fill="#e5ffff" d="M213.45 191.22c1-1.4 3.93-.08 3 1.6-1.01 1.4-3.94.08-3-1.6z"/><path fill="#2baeb0" opacity=".87" d="M151.25 192.73l1.17-.62 1.92 1.34.1 1.4c-1.21 1.29-3.71-.56-3.19-2.12z"/><path d="M215.03 193.81l3.39 1.15-.14 8.27-3.3.02.05-9.44zm-.45 21.68c-1.04-3.2-1.19-7.55 2.48-9.08l.19 7.35-2.67 1.73z" fill="#faffff"/><path fill="#6b6871" d="M209.91 204.96c1.15-2.81 2.4-5.57 3.86-8.23l.67 6.99 3.96 1.25-.12.76c-1.81.71-4.1.7-5.52 2.13-.64 4.37-.1 8.83-.65 13.23-.1 1.29-.18 2.58-.23 3.87-.78-2.08-1.4-4.31-2.82-6.07-2.34-2.71-5.73-4.32-7.86-7.23-.18-1.19.01-2.55 1.15-3.2 2.27-1.63 5-2.45 7.56-3.5z"/><path fill="#377683" d="M176 198.7l7.79 1.09 2.25 5.11c-2.35-2.23-5.33-3.57-8.23-4.92l4.66 3.7-3.93.92-2.54-5.9z"/><path fill="#222323" d="M177.81 199.98c2.9 1.35 5.88 2.69 8.23 4.92.78 1.5-.49 2.98-.88 4.4-2.66-1.31-5.24-2.79-7.67-4.49l1.05-.21 3.93-.92-4.66-3.7z"/><path fill="#afdee4" d="M212.76 207.86c1.42-1.43 3.71-1.42 5.52-2.13.12 4.14-.47 8.24-1.87 12.14-1.58.87-3.12 1.84-4.3 3.22.55-4.4.01-8.86.65-13.23m1.82 7.63l2.67-1.73c-.01-2.45-.06-4.9-.19-7.35-3.67 1.53-3.52 5.88-2.48 9.08z"/><path fill="#4a474c" d="M218.92 215.92l3.89-7.6c3.73 2 7.67 3.57 11.73 4.76-.01 1.6-1.45 3.87.45 4.88 2.35 1.61 4.78 3.11 6.9 5.03-1.91-.67-3.85-1.43-5.89-1.49-1.69.65-3.05 1.9-4.42 3.03.1-1.3.14-2.61.19-3.91l-2.5-.84.21-3.31c-2.7.7-5.12 2.1-7.16 4l-3.4-4.55z"/><path fill="#191a19" d="M172.18 210.79c2.98 2.03 5.73 4.4 8.16 7.07l-3.46 1.78c-1.3-.56-2.56-1.18-3.8-1.84-.98-.6-1.89-1.28-2.8-1.96l1.9-5.05z"/><path fill="#4d8797" d="M173.08 217.8l3.8 1.84c4.48 1.48 9.21 2.17 13.54 4.14-3.33.23-6.68.24-9.99-.21-2.31-1.48-4.74-2.76-7.19-3.96l-.16-1.81z"/><path fill="azure" d="M212.11 221.09c1.18-1.38 2.72-2.35 4.3-3.22l-1.55 6.87-2.98.22.23-3.87z"/><path fill="#1f1f1f" d="M149.51 230.85c7.44-4.54 14.73-10.47 23.73-11.24 2.45 1.2 4.88 2.48 7.19 3.96 1.28 1.1 2.47 2.31 3.89 3.23 3.26-.26 6.35-1.47 9.57-1.95.63 1.18 1 2.47 1.38 3.75-3.66 3.49-7.59 7.43-12.94 7.86-2.81-1.69-5.75-3.34-7.91-5.87-2.33-2.73-3.84-6.02-5.41-9.21l-1.44 1.44c-2.82 2.67-6.54 4-9.77 6.07-2.38 1.52-4.11 3.79-5.85 5.97l-2.44-4.01z"/><path fill="#4e99ab" d="M167.57 222.82l1.44-1.44c1.57 3.19 3.08 6.48 5.41 9.21 2.16 2.53 5.1 4.18 7.91 5.87l-3.41.22c-2.61-1.91-5.26-3.78-7.57-6.05-1.38-2.55-2.54-5.2-3.78-7.81z"/><path fill="#686767" d="M231.58 224.53c1.37-1.13 2.73-2.38 4.42-3.03 2.04.06 3.98.82 5.89 1.49 2.81 1.22 5.48 2.74 8.15 4.26 2.97 1.72 5.94 3.53 9.19 4.68-1.79 1.46.74 4.28 2.3 2.47l2.27-1.52-2.23 8.07c-1.81-.72-3.63-1.4-5.4-2.18-1.51-.77-3-1.59-4.48-2.4a93.57 93.57 0 0 1-.4-2.86c-4.13-1.89-8.26-3.98-12.75-4.82-1.68-.37-3.14.77-4.6 1.39l-3.42-1.99 1.06-3.56z"/><path fill="#353435" d="M157.8 228.89c3.23-2.07 6.95-3.4 9.77-6.07 1.24 2.61 2.4 5.26 3.78 7.81-3.98 2.89-8.05 5.71-11.62 9.12 2.14.23 4.27.46 6.42.58l-2.26.99c-4.78-.06-9.67-2.02-11.94-6.46 1.74-2.18 3.47-4.45 5.85-5.97z"/><path fill="#565658" d="M195.27 228.6l2.31-2.58-.01 1.58-.94 8.95-2.33 1.11c-.15-2.14-.56-4.32-2.08-5.92-.16 1.97-.22 3.96-.18 5.95l-.79.02c-6.01.03-11.77 1.95-17.58 3.26l-2.56-3.1c2.55-.68 5.18-1.02 7.81-1.19l3.41-.22c5.35-.43 9.28-4.37 12.94-7.86z"/><path fill="#92d7df" d="M210.42 225.51l3.44.74.37 3.66-3.42 2.32-5.05-1.7 4.66-5.02m-2.13 4.84l2.56.5c1.67-.7 1.81-2.71 2.44-4.17-2.22.36-3.75 1.92-5 3.67z"/><path fill="#fcffff" d="M208.29 230.35c1.25-1.75 2.78-3.31 5-3.67-.63 1.46-.77 3.47-2.44 4.17l-2.56-.5z"/><path fill="#4b4b4f" d="M250.04 227.25l8.5.62c2.53.85 4.45 2.88 6.59 4.39l-1.52 9.57 2.51.12c-1.97 2.42-4.08 4.77-5.58 7.54l-.52 2.14 8.9 4.18c-5.73-1.47-11.29-4.82-17.4-3.43l.42-1.98c.7-1.08 1.39-2.19 1.86-3.39-.91-1.3-2.03-2.44-3.08-3.62-1.34-1.98-2.13-4.59-4.4-5.72-3.26-1.75-6.91-2.57-10.46-3.46 3.94 1.87 8.16 3.4 11.4 6.44-3.78-.75-7.47-1.88-11.15-3.02l3.83 3.73-6.28-1.61-3.02-3.63c-.27-2.14-.52-4.28-.53-6.43l3.83.39c1.46-.62 2.92-1.76 4.6-1.39 4.49.84 8.62 2.93 12.75 4.82l.4 2.86c.24.85.54 1.67.9 2.48 1.1.65 2.41.05 3.58-.08 1.77.78 3.59 1.46 5.4 2.18l2.23-8.07-2.27 1.52c-.18-1.34-.94-2.17-2.3-2.47-3.25-1.15-6.22-2.96-9.19-4.68z"/><path fill="#567c88" d="M196.63 236.55l.94-8.95 2.15 7.49-3.09 1.46z"/><path fill="#7a7b82" d="M230.52 228.09l3.42 1.99-3.83-.39.41-1.6z"/><path fill="#59595e" d="M217.47 229.65l6.23-.14-3.75 3-2.48-2.86z"/><path fill="#242527" opacity=".9" d="M213.35 235.66l4.12-6.01 2.48 2.86a33.54 33.54 0 0 0 2.29 2.16c-1.64-.23-3.28-.58-4.94-.49-1.59 1.23-2.91 2.78-4.51 3.99-4.39.1-8.82-1.79-13.15-.36-2.45.77-4.99 1.33-7.57.96l2.23-1.11 2.33-1.11 3.09-1.46 13.63.57z"/><path fill="#60a7bb" d="M149.51 230.85l2.44 4.01c2.27 4.44 7.16 6.4 11.94 6.46-2.2.64-4.51.85-6.8.79-2.1-1.17-4.4-2.32-5.76-4.41-1.11-1.77-1.29-3.92-1.68-5.92l-.14-.93z"/><path fill="#272627" d="M159.73 239.75c3.57-3.41 7.64-6.23 11.62-9.12 2.31 2.27 4.96 4.14 7.57 6.05-2.63.17-5.26.51-7.81 1.19-1.67.79-3.28 1.68-4.96 2.46-2.15-.12-4.28-.35-6.42-.58z"/><path fill="#44464e" d="M265.13 232.26c1.95-.62 3.96-1.07 6-1.3l-2.48 2.39a172.02 172.02 0 0 0 16.41 7.19l-1.91 3.44 1.7 3.09c-3.06-1.28-6.21-2.34-9.45-3.04 2.84 2.38 6.52 3.12 9.73 4.8 2.4 1.92 3.93 4.68 5.86 7.04-6.63-3.54-14.16-4.53-21.07-7.31l4.28-.57c-1.63-.96-4.45-.86-5.03-2.96.7-1.47 1.65-2.8 2.55-4.16-1.86.41-3.72.83-5.6 1.08l-2.51-.12 1.52-9.57z"/><path fill="#4a484a" d="M148.97 233.2l.68-1.42c.39 2 .57 4.15 1.68 5.92 1.36 2.09 3.66 3.24 5.76 4.41 1.93 1.06 3.71 2.35 5.43 3.72-4.07.73-8.2.97-12.3 1.47l-.97-1.47c-1.86-3.96-2.64-8.69-.28-12.63z"/><path fill="#6393a1" d="M192.22 231.74c1.52 1.6 1.93 3.78 2.08 5.92l-2.23 1.11-.03-1.08c-.04-1.99.02-3.98.18-5.95z"/><path fill="#333433" d="M259.23 231.93c1.36.3 2.12 1.13 2.3 2.47-1.56 1.81-4.09-1.01-2.3-2.47z"/><path fill="#88868b" d="M268.65 233.35l2.48-2.39 1.68 1.06c3.93 2.62 8.42 4.25 13.02 5.27l2.47.61.7 4-3.94-1.36a172.02 172.02 0 0 1-16.41-7.19z"/><path fill="#39383b" opacity=".65" d="M272.81 232.02c4.56 1.13 9 2.8 13.02 5.27-4.6-1.02-9.09-2.65-13.02-5.27z"/><path fill="#1c1c1c" d="M144.34 235.31l4.63-2.11c-2.36 3.94-1.58 8.67.28 12.63-1.42-.48-3.41-.3-4.16-1.88-1.26-2.69-.73-5.77-.75-8.64z"/><path fill="#61636a" d="M235.86 234.21c3.55.89 7.2 1.71 10.46 3.46 2.27 1.13 3.06 3.74 4.4 5.72-2.08-.39-4.17-.72-6.26-1.08l.11 2.12.08 1.44-2.63.59 5.59 2.97.57 2.51c-6.27-2.14-12.67-4.37-17.98-8.47l3.46-3.72 6.28 1.61-3.83-3.73c3.68 1.14 7.37 2.27 11.15 3.02-3.24-3.04-7.46-4.57-11.4-6.44m2.87 7.69c.7 2.07 2.62 2.81 4.6 3.22l-.86-2.54c-1.24-.3-2.49-.52-3.74-.68z"/><path fill="#343438" d="M225.23 235.67l5.41.45 3.02 3.63-3.46 3.72c5.31 4.1 11.71 6.33 17.98 8.47l-.57-2.51-5.59-2.97 2.63-.59c.79.88 2.94 1.63 3.37-.01-.07-1.65-2.24-1.96-3.45-1.43l-.11-2.12 6.26 1.08c1.05 1.18 2.17 2.32 3.08 3.62-.47 1.2-1.16 2.31-1.86 3.39-1.31 1.61-2.66 3.23-4.32 4.49-2.26-.32-4.34-1.32-6.42-2.19l-1.69 2.18-11.05-3.8c-.03-3.35.54-6.66.68-9.99-.71-2.16-2.49-3.72-3.91-5.42m7.91 11.75c-2.21 1.29 2.24 3.66 2.73 1.48-.16-1.21-1.67-1.8-2.73-1.48z"/><path fill="#232425" opacity=".78" d="M173.67 240.97c5.81-1.31 11.57-3.23 17.58-3.26-3.38 1.73-7.05 2.77-10.71 3.72-6.65 1.77-12.88 4.9-19.65 6.22-4.01.82-8.11.33-12.12-.19l1.45-.16c4.1-.5 8.23-.74 12.3-1.47 2.73-.49 5.42-1.21 8.02-2.18 1.07-.87 2.1-1.77 3.13-2.68z"/><path fill="#78777e" d="M252.59 238.85c-.36-.81-.66-1.63-.9-2.48l4.48 2.4c-1.17.13-2.48.73-3.58.08z"/><path fill="#67686b" d="M166.15 240.33l4.96-2.46-.57 5.78c-2.6.97-5.29 1.69-8.02 2.18-1.72-1.37-3.5-2.66-5.43-3.72 2.29.06 4.6-.15 6.8-.79l2.26-.99z"/><path fill="#6cc1d6" d="M171.11 237.87l2.56 3.1-3.13 2.68.57-5.78z"/><path fill="#3d3e45" d="M288.3 237.9l2.52 1c.68 1.39 1.29 2.84 2.18 4.12 3.46 2.22 7.75 2.56 11.35 4.51 2.46 1.47 3.98 4.12 6.51 5.48 3.51 1.03 7.31-.02 10.81 1.12 3.35 1.12 5.06 4.71 8.28 6.05 3.58 1.16 7.45.58 11.05 1.64 2.96 1.25 5.15 3.73 7.87 5.41 4.02 2.67 8.89 3.62 12.99 6.14.3 1.23.44 2.49.6 3.75l-.77.35-4.24 1.91 1.43 2.96 2.29-2.61c-1.31 3.27-2.92 6.56-5.52 8.99-1.83 1.6-4.33.6-6.34.01-3.28-1.15-6.7-1.79-10.12-2.34l-.18-1.79c5 .86 9.86 2.39 14.54 4.35.35-1.51.79-3.01.91-4.56-2.46-3.75-6.65-5.78-10.4-7.97l-2.4 3.36c2.59 1.66 5.12 3.42 7.54 5.34-3.41-.55-6.77-1.37-10.05-2.44l2.21-6.23-3.72-1.49-4.84-2.39c4.53.99 9.28.96 13.69-.56-5.65-3.66-12.27-5.24-18.3-8.12-3.4-1.64-7.09-3.24-10.93-2.14 1.4 1.35 2.84 2.66 4.3 3.96l-1.82 1.25c-2.7-1.77-4.41-4.53-4.68-7.75-3.77-1.73-7.8-2.88-11.48-4.79-1.76-.84-2-3-2.73-4.61-1.6.59-3.22 1.76-4.99 1.25-3.82-.9-7.39-2.56-11.01-3.99l-1.7-3.09 1.91-3.44 3.94 1.36-.7-4m57.17 37.03c4.09 2.41 8.89 1.99 13.43 1.88-3.55-1.74-7.06-3.69-10.92-4.61-1.17.53-1.69 1.82-2.51 2.73z"/><path fill="#65656c" d="M266.12 241.95c1.88-.25 3.74-.67 5.6-1.08-.9 1.36-1.85 2.69-2.55 4.16.58 2.1 3.4 2 5.03 2.96l-4.28.57c6.91 2.78 14.44 3.77 21.07 7.31-1.93-2.36-3.46-5.12-5.86-7.04-3.21-1.68-6.89-2.42-9.73-4.8 3.24.7 6.39 1.76 9.45 3.04 3.62 1.43 7.19 3.09 11.01 3.99 1.77.51 3.39-.66 4.99-1.25.73 1.61.97 3.77 2.73 4.61 3.68 1.91 7.71 3.06 11.48 4.79.27 3.22 1.98 5.98 4.68 7.75l-1.68 1.15 3.1 1.77-3.28 2.37-1.58.42c-2.61.38-4.6 2.14-6.53 3.8l-.65-.25 2.33-3.12c.89-1.55 2.27-3.25 1.72-5.16-.53-2.72-3.63-3.25-5.69-4.41-3.86-1.57-6.7-4.71-10.12-6.97l-.7-2.51-2.73-.21 1.26 3.38-3.25.94c-2.7-.73-5.41-1.81-8.25-1.61-1.1 1.32-1.83 2.89-2.47 4.47-.29 1.63-.46 3.28-.62 4.93l-4.44-.01.36-.52 2.24-3.22-2.62-2.25-5.61 1.65-1.55.43c.23-1.93.62-3.84 1.22-5.68 3.9 1.72 8.26 1.59 12.02-.45-5.87-3.7-12.51-5.86-19.05-8.06l-2.63 1.65c1.5-2.77 3.61-5.12 5.58-7.54z"/><path fill="#83a2cd" d="M238.73 241.9c1.25.16 2.5.38 3.74.68l.86 2.54c-1.98-.41-3.9-1.15-4.6-3.22z"/><path fill="#7898c2" d="M244.57 244.43c1.21-.53 3.38-.22 3.45 1.43-.43 1.64-2.58.89-3.37.01l-.08-1.44z"/><path fill="#6e6b6b" d="M233.14 247.42c1.06-.32 2.57.27 2.73 1.48-.49 2.18-4.94-.19-2.73-1.48z"/><path fill="#87858a" d="M260.54 249.49l2.63-1.65c6.54 2.2 13.18 4.36 19.05 8.06-3.76 2.04-8.12 2.17-12.02.45l-1.28-.54-8.9-4.18.52-2.14z"/><path fill="#585556" opacity=".98" d="M251.94 250.4l-.42 1.98-1.1 5.43-8.54-1.64-2.37-1.29 1.69-2.18c2.08.87 4.16 1.87 6.42 2.19 1.66-1.26 3.01-2.88 4.32-4.49z"/><path fill="#949299" d="M293.93 253.84l2.73.21.7 2.51-2.17.66-1.26-3.38z"/><path fill="#1e1c1d" opacity=".57" d="M241.88 256.17l8.54 1.64c-2.92 1.64-6.01-.1-8.54-1.64z"/><path fill="#404146" d="M283.69 256.55c2.84-.2 5.55.88 8.25 1.61 2.41.68 4.88 1.18 7.36 1.59l.76 2.55c-2.85.68-5.76 1.06-8.68 1.25l-.07 4.21-1.82 3.19-1.47-3.87 1.83-.36.38-.8-.36-.75-.86-.17-1.35 1.3c-.59-1.23-1.01-2.52-1.55-3.76l-.13-.44-.47-.07c-1.1-.17-2.18-.4-3.24-.69l-1.05-.32c.64-1.58 1.37-3.15 2.47-4.47z"/><path fill="#5c5d64" d="M295.19 257.22l2.17-.66c3.42 2.26 6.26 5.4 10.12 6.97 2.06 1.16 5.16 1.69 5.69 4.41.55 1.91-.83 3.61-1.72 5.16l-.82-3.78c-3.26-1.48-6.61-2.81-10.13-3.48.83-.67 1.64-1.36 2.46-2.05l-2.9-1.49-.76-2.55c-2.48-.41-4.95-.91-7.36-1.59l3.25-.94z"/><path fill="#8489a5" d="M270.53 261.6l5.61-1.65 2.62 2.25-2.24 3.22c-2.26-.82-4.44-1.93-5.99-3.82z"/><path fill="#65646c" d="M317.26 261.75c3.84-1.1 7.53.5 10.93 2.14l-5.68 3.35a64.29 64.29 0 0 0 10.29 5.33c1.63.76 3.22 1.6 4.84 2.39-2.54.29-5.14.15-7.52-.84-3.05-1.28-6.04-2.69-8.96-4.24-1.05-.57-2.08-1.17-3.1-1.77l1.68-1.15 1.82-1.25c-1.46-1.3-2.9-2.61-4.3-3.96z"/><path fill="#8b898d" opacity=".85" d="M280.6 265.95l.62-4.93 1.05.32c1.41 1.91-.32 3.4-1.67 4.61z"/><path fill="#28282b" opacity=".75" d="M285.51 262.03l.47.07.13.44h-.51l-.09-.51z"/><path fill="#7a7a83" d="M300.06 262.3l2.9 1.49-2.46 2.05-.99.72-2.61-1.46c-1.71.61-3.37 1.35-4.97 2.19l-.62.47.07-4.21c2.92-.19 5.83-.57 8.68-1.25z"/><path fill="#5e5f68" d="M328.19 263.89c6.03 2.88 12.65 4.46 18.3 8.12-4.41 1.52-9.16 1.55-13.69.56a64.29 64.29 0 0 1-10.29-5.33l5.68-3.35z"/><path fill="#a6a2a6" opacity=".97" d="M287.66 266.3l1.35-1.3.86.17.36.75-.38.8-1.83.36-.36-.78z"/><path fill="#bcbecd" d="M291.93 267.29c1.6-.84 3.26-1.58 4.97-2.19l-1.16 5.63-2.97-.86-.84-2.58z"/><path fill="#888791" d="M296.9 265.1l2.61 1.46 1.45 4.3-3.2 2.09c-2.85.72-5.59-1.25-8.27-2l1.82-3.19.62-.47.84 2.58 2.97.86 1.16-5.63z"/><path fill="#3e3e44" d="M300.5 265.84c3.52.67 6.87 2 10.13 3.48l.82 3.78c-.76 1.06-1.55 2.09-2.33 3.12l.59 3.12c-2.13-1.32-3.24-3.42-2.61-5.94l.53.72.81.11.38-.64-1.23-.97a39.91 39.91 0 0 1-2.9-1.76l-6.93 2.09c1.08-.68 2.14-1.39 3.2-2.09l-1.45-4.3.99-.72z"/><path fill="#44454c" d="M317.88 272.25l3.28-2.37 8.96 4.24 1.46 3.52-3.11 3.73c-.82-1.31-1.73-1.41-2.73-.3l-1.98-2.83-3.89.65-.14-1.92-1.85-4.72z"/><path fill="#f7f7fd" d="M309.77 276.47c1.93-1.66 3.92-3.42 6.53-3.8l-1.92 6.12-4.61-2.32z"/><path fill="#6c6c72" d="M345.47 274.93c.82-.91 1.34-2.2 2.51-2.73 3.86.92 7.37 2.87 10.92 4.61-4.54.11-9.34.53-13.43-1.88z"/><path fill="#838387" d="M307.59 272.62l1.23.97-.38.64-.81-.11-.53-.72.49-.78z"/><path fill="#8b8c96" d="M316.3 272.67l1.58-.42 1.85 4.72-1.61.18-.21.81 1.12 1.36-.45 1.55c-3.04.15-5.97-.76-8.87-1.53l-.59-3.12.65.25 4.61 2.32 1.92-6.12z"/><path fill="#53545c" d="M330.12 274.12c2.38.99 4.98 1.13 7.52.84l3.72 1.49-2.21 6.23c3.28 1.07 6.64 1.89 10.05 2.44-2.42-1.92-4.95-3.68-7.54-5.34l2.4-3.36c3.75 2.19 7.94 4.22 10.4 7.97-.12 1.55-.56 3.05-.91 4.56-4.68-1.96-9.54-3.49-14.54-4.35-.98-1.61-1.95-3.23-3.03-4.77-1.44-.79-2.93-1.48-4.4-2.19l-1.46-3.52z"/><path fill="#e8e4e9" opacity=".97" d="M318.12 277.15l1.61-.18.14 1.92-.84.43-1.12-1.36.21-.81z"/><path fill="#6e6d74" d="M357.45 279.38l4.24-1.91-.52 2.26-2.29 2.61-1.43-2.96z"/><path fill="#787983" d="M328.47 281.37l3.11-3.73 4.4 2.19-.62.43-3.7 1.87-4.09 1.68.53-1.7.37-.74z"/><path fill="#8f8e93" d="M325.74 281.07c1-1.11 1.91-1.01 2.73.3l-.37.74-1.03.24-.99-.45-.34-.83z"/><path fill="#cdcdd7" d="M331.66 282.13l3.7-1.87-1.47 5.17-2.23-3.3z"/><path fill="#8b8c9a" opacity=".98" d="M335.36 280.26l.62-.43 3.03 4.77-5.27 2.98-1.11.62c-2.35-1.02-4.59-2.26-6.67-3.73l1.61-.66 4.09-1.68 2.23 3.3 1.47-5.17z"/><path fill="#abaaaf" opacity=".98" d="M333.74 287.58l5.27-2.98.18 1.79c-1.1.68-2.29 1.03-3.58 1.03l-1.87.16z"/><path fill="#39383b" opacity=".55" d="M332.63 288.2l1.11-.62 1.87-.16 1.39.58c.16 1.81-3.91 1.53-4.37.2z"/></svg>