<svg xmlns="http://www.w3.org/2000/svg" width="512" height="512" viewBox="0 0 384 384" xmlns:v="https://vecta.io/nano"><path fill="#111314" opacity=".55" d="M218.65 155.04c2.53-1.66 5.57-2.16 8.52-2.49 1.69-.22 3.44.27 4.67 1.48-3.43-.5-6.87-.06-10.24.63l-2.95.38z"/><path fill="#363536" d="M221.6 154.66c3.37-.69 6.81-1.13 10.24-.63 2.14 1.34 3.44 3.51 4.38 5.79-3.5-2.66-7.92-3.12-12.13-2.34l-2.49-2.82z"/><path fill="#437785" d="M218.65 155.04l2.95-.38 2.49 2.82c4.21-.78 8.63-.32 12.13 2.34l.65 1.72.05 3.26c-1.48-2.01-2.63-4.82-5.34-5.36-2.53-.48-5.11.04-7.63.3-1.65-1.32-3.32-2.61-4.8-4.11l-.5-.59z"/><path fill="#151515" d="M198.04 158.56c3.95-.84 7.99-2.86 12.09-1.82l-3.3.44c1.96 1.06 4.02 1.97 5.87 3.23 1.49.96.66 2.92.79 4.36 1.54-.95 3.11-1.85 4.7-2.74 3.27 1.85 6.57-2.68 9.72-.06 1.41 3.11 2.5 6.36 4.11 9.38.86 2.67-1.77 4.34-3.26 6.07-.69 1.72.06 3.64.18 5.41l3.98 1.19c.35.43 1.03 1.31 1.37 1.75-1.82-.38-3.63-.75-5.42-1.23l-.35-.46-1.33-5.44c-1.74.79-3.44 1.7-5.3 2.17-1.55.01-2.84-1.09-4.22-1.66-1.91 1.31-3.73 2.74-5.53 4.2l-2.82-.4 1.79-3.71 3.16-1.1.71-2.74c-1.59.36-3.17.73-4.77 1.02.48-2.83.13-5.77.96-8.54.16-1.06.98-2.24.3-3.27-1.35-2.75-4.86-2.56-7.45-2.74-3.56-.28-7.05.66-10.16 2.36a102.25 102.25 0 0 0-2.67-1.15l1.19 2.87c-1.17 5.23-3.64 10.65-8.34 13.58-1.73-.92-3.42-1.92-5.13-2.88 1.08-5.06 4.86-8.75 7.85-12.74-4.7 1.64-8.13 5.32-11.02 9.22-5.35-1.29-10.49-3.29-15.82-4.67 2.7-.3 5.4.08 8.02.71 2.06-2.67 4-5.61 6.99-7.33 6.99-3.87 15.32-4.83 23.11-3.28m-5.83 1.64l-.35.83.34.84.83.35.83-.34.35-.83-.35-.84-.83-.35-.82.34m23.66 11.71c.95 1.04 2.26 1.63 3.44 2.37.07 1.12-.65 2.7.76 3.24 1.77-.38 3.5-.94 5.25-1.4 1.23-2.27 3.19-4.35 3.58-6.95-1.21-1.91-2.7-3.62-4.05-5.43-3.65 1.56-8.34 3.83-8.98 8.17z"/><path fill="#1f1e1f" d="M210.95 157.2c2.77-.31 5.51-.83 8.2-1.57 1.48 1.5 3.15 2.79 4.8 4.11 2.52-.26 5.1-.78 7.63-.3 2.71.54 3.86 3.35 5.34 5.36l-.05-3.26.77-.54c1.09 4.51-2.71 7.62-5.62 10.35-1.61-3.02-2.7-6.27-4.11-9.38-3.15-2.62-6.45 1.91-9.72.06-2.38-1.66-4.71-3.4-7.24-4.83z"/><path fill="#31545e" d="M206.83 157.18l3.3-.44.82.46c2.53 1.43 4.86 3.17 7.24 4.83l-4.7 2.74c-.13-1.44.7-3.4-.79-4.36-1.85-1.26-3.91-2.17-5.87-3.23z"/><path fill="#223a41" d="M192.21 160.2l.82-.34.83.35.35.84-.35.83-.83.34-.83-.35-.34-.84.35-.83z"/><path fill="#131214" opacity=".44" d="M149.12 161c2.22.21 4.42.68 6.5 1.52l.41 2.26c-1.21-.87-2.49-1.8-4.02-1.98-2.04 1.01-.27 3.49-.05 5.07l-.77.28c-1.86-1.8-4-4.62-2.07-7.15z"/><path fill="#2e2d2d" d="M193.86 164.23c3.11-1.7 6.6-2.64 10.16-2.36 2.59.18 6.1-.01 7.45 2.74.68 1.03-.14 2.21-.3 3.27-.83 2.77-.48 5.71-.96 8.54a36.26 36.26 0 0 1-4.3-1.23c.43-1.97 1.06-3.94.98-5.98-.03-1.81-1.92-2.41-3.34-2.89-2.19-.57-4.41.25-6.55.64a38.6 38.6 0 0 0-3.14-2.73z"/><path fill="#424046" d="M151.96 167.87c-.22-1.58-1.99-4.06.05-5.07 1.53.18 2.81 1.11 4.02 1.98l.85 1.02-1.09 3.17 1.32 2.08 2.25-2.75.56.16c5.33 1.38 10.47 3.38 15.82 4.67 2.89-3.9 6.32-7.58 11.02-9.22-2.99 3.99-6.77 7.68-7.85 12.74l5.13 2.88c1.54.57 3.13 1.01 4.72 1.45 1.57-3.4 3.41-6.67 5.09-10.01.68-1.15.41-2.5.38-3.76.7.62 1.39 1.25 2.06 1.91-1.22 3.85-4.1 7.01-4.92 10.98-.28 3.36 3.61 4.61 6.32 4.88 1.51.34 3 .77 4.48 1.21a69.06 69.06 0 0 0 2.91.78c-1.87 1.82-4.19 3.66-4.09 6.55 1.95.87 4.06 1.55 5.73 2.93.55 1.09.1 2.74-1.09 3.19-2.43 1.24-5.24.77-7.85.83-.19 2.29 2.6 2.43 4.09 3.3.31 3.6-3.15 5.75-5.08 8.32 2.9 4.37 6.62 8.26 11.01 11.14.96.71 2.13 1 3.3 1.19l-.12 1.55-.04.61c-1.98 1.39-4.2 2.71-5.13 5.08 2.11.81 4.28 1.43 6.48 1.91l-.68 2.23c-4.84.56-9.82-1.88-14.47 0-.21-2.65-.08-5.61-2.07-7.66l-.44-.6-1.74-1.96c-2.84.78-5.62 2.16-8.61 2.13-2.44-.55-3.59-3.14-5.18-4.83 3.25 1.23 6.76 1.69 10.19 1.07-3.85-2.2-8.47-2.39-12.39-4.48l2.52-1.58c-1.21-3.18-4.22-4.93-6.77-6.9l-.6 2.14c-2.54-.99-5.02-2.42-6.07-5.09-.18-4.28-4.73-6.14-7.76-8.28-1.58-1.44-2.82-3.2-4.12-4.88l1.16-2.07c3.42 1.36 6.96 2.72 9.56 5.44l.54.52c1.73 2.11 3.92 3.76 6.35 4.97l1.1-1.33 4.94 1.92c1 3.17 4.16 4.51 7.24 4.81 2.15-.48 2.13-2.88 1.4-4.49-.51-1.21-1.05-2.4-1.64-3.55-.68-.92-1.4-1.8-2.11-2.68l3.33-4.62c-1.36-1.82-2.94-3.5-4.89-4.69-1.26-.6-2.53-1.16-3.8-1.72-.67 2.76-1.76 5.38-3.26 7.79-.29-4.2-.01-8.45-.64-12.62-1.35-2.31-3.81-3.57-6.12-4.7.27 2.98.43 5.98.03 8.95-2.34.56-4.7 1.1-7.1 1.39-1.29-.08-2.59-.2-3.88-.36l-1.54-3.93 11.35-2.05c-.09-1.45.56-3.12-.33-4.41-1.43-1.37-3.14-2.39-4.83-3.39-2.5-1.34-5.3-.78-7.92-.23-.16-2.02-.48-4.03-1.08-5.96z"/><path fill="#5ec0d7" d="M191.19 163.08l2.67 1.15a38.6 38.6 0 0 1 3.14 2.73c2.73 2.99 5.37 6.16 8.91 8.23a36.26 36.26 0 0 0 4.3 1.23c1.6-.29 3.18-.66 4.77-1.02l-.71 2.74-3.16 1.1-4.21-1.76c-4.21-1.81-7.53-5.05-10.61-8.36-.67-.66-1.36-1.29-2.06-1.91l-1.85-1.26-1.19-2.87z"/><path d="M215.87 171.91c.64-4.34 5.33-6.61 8.98-8.17 1.35 1.81 2.84 3.52 4.05 5.43-.39 2.6-2.35 4.68-3.58 6.95-1.75.46-3.48 1.02-5.25 1.4-1.41-.54-.69-2.12-.76-3.24-1.18-.74-2.49-1.33-3.44-2.37zm-46.89 48.13l4.28-.4c2.06.85 4.05 1.89 5.84 3.24 1.59 1.69 2.74 4.28 5.18 4.83 2.99.03 5.77-1.35 8.61-2.13l1.74 1.96c-.93 1.45-1.7 3.08-3.11 4.14-2.98 2.26-6.24 4.66-10.14 4.67-2.68-1.84-5.5-3.6-7.65-6.08-2.03-2.48-3.33-5.45-4.61-8.35l-.14-1.88z" fill="#202020"/><path fill="#2aadb0" opacity=".85" d="M156.88 165.8l2.48 2.5-2.25 2.75-1.32-2.08 1.09-3.17z"/><path fill="#2b2b2b" d="M192.38 165.95l1.85 1.26c.03 1.26.3 2.61-.38 3.76-1.68 3.34-3.52 6.61-5.09 10.01-1.59-.44-3.18-.88-4.72-1.45 4.7-2.93 7.17-8.35 8.34-13.58z"/><path fill="#5c5a5c" d="M197 166.96c2.14-.39 4.36-1.21 6.55-.64 1.42.48 3.31 1.08 3.34 2.89.08 2.04-.55 4.01-.98 5.98-3.54-2.07-6.18-5.24-8.91-8.23z"/><path fill="#64a2b3" d="M151.19 168.15l.77-.28c.6 1.93.92 3.94 1.08 5.96.23 3.41.67 6.82 1.73 10.08.49 1.32 1.02 2.62 1.54 3.93l-1.68-.32a46.84 46.84 0 0 1-1.65-2.72c-1.46-4.54-2.18-9.29-2.43-14.04l.64-2.61z"/><path fill="#1b1b1b" d="M133.55 174.37c5.17-2.51 10.76-4.06 16.34-5.28l.18 2.19-.46 1.35c-8.06 1.01-15.49 4.57-23.31 6.61l-3.3-2.43c3.52-.78 7.25-.83 10.55-2.44z"/><path fill="#565456" d="M196.29 169.12c3.08 3.31 6.4 6.55 10.61 8.36-1.23 1.15-2.26 2.49-3.1 3.95-2.51.14-4.39 1.9-6.11 3.55-2.71-.27-6.6-1.52-6.32-4.88.82-3.97 3.7-7.13 4.92-10.98z"/><path fill="#595758" d="M150.07 171.28l.48-.52c.25 4.75.97 9.5 2.43 14.04-8.62-1.62-17.6-1.51-26.21.1a93.01 93.01 0 0 1-.39-4.03c7.71-1.53 15.93-2.44 22.72-6.71a91.39 91.39 0 0 1 .51-1.53l.46-1.35z"/><path fill="#403f3f" d="M126.3 179.24c7.82-2.04 15.25-5.6 23.31-6.61l-.51 1.53c-6.79 4.27-15.01 5.18-22.72 6.71l-.08-1.63z"/><path fill="#7f7d7f" d="M153.04 173.83c2.62-.55 5.42-1.11 7.92.23l1.06 4.87c-2.59 1.36-6.79 1.4-7.25 4.98-1.06-3.26-1.5-6.67-1.73-10.08z"/><path fill="#6b696a" d="M160.96 174.06c1.69 1 3.4 2.02 4.83 3.39.89 1.29.24 2.96.33 4.41l-11.35 2.05c.46-3.58 4.66-3.62 7.25-4.98l-1.06-4.87z"/><path fill="#0c0c0c" opacity=".87" d="M98.04 177.63c3.76-1.24 7.37.78 10.97 1.58 2.81-.6 5.75-3.12 8.41-.76l-.79.14c-2.73.33-5.47.76-7.97 1.95-2.34 1.23-4.94-.01-7.35-.31l-.36 3.05c-.34-1.5-.74-2.99-1.22-4.45l-1.69-1.2z"/><path fill="#737072" d="M117.42 178.45c1.92-.32 3.77-.95 5.58-1.64l3.3 2.43.08 1.63.39 4.03.4 3.24c-2.49 1.22-5.27 1.1-7.94 1.46-2.74.59-5.37 1.69-8.21 1.72l-.91-9.29 5.89.64.63-4.08.79-.14m-.29 3.62l.08 4.92c3.01.59 5.98-.26 8.85-1.13-.04-1.73-.57-3.38-1.22-4.96-2.63-.15-5.21.41-7.71 1.17z"/><path fill="#55a6ba" opacity=".97" d="M97.2 177.6l.84.03 1.69 1.2c-1.74 4.25-1.63 9.24-.16 13.55l.52.79L98.2 192c-.16-4.49-.44-8.97-.92-13.44l-.08-.96z"/><path fill="#131414" d="M167.26 177.86c2.31 1.13 4.77 2.39 6.12 4.7.63 4.17.35 8.42.64 12.62-.43 1.22-.84 2.44-1.18 3.69-2.49-.01-4.99.01-7.48-.1l-.54-.52 3.76-.64c.78-2.69 2.25-5.51 1.4-8.35-.32-1.29-1.76-1.7-2.69-2.45.4-2.97.24-5.97-.03-8.95z"/><path fill="#2a2b2c" d="M203.8 181.43c.84-1.46 1.87-2.8 3.1-3.95l4.21 1.76-1.79 3.71 2.82.4-1.27.92c-2.41-.82-4.73-1.87-7.07-2.84z"/><path fill="#111618" opacity=".48" d="M96.63 186.54c-.24-2.64-1.11-5.67.65-7.98.48 4.47.76 8.95.92 13.44-1.35-1.46-1.17-3.63-1.57-5.46z"/><path fill="#73dbe9" d="M99.57 192.38c-1.47-4.31-1.58-9.3.16-13.55.48 1.46.88 2.95 1.22 4.45l.12.91.63 4.02.52 2.97-2.65 1.2z"/><path fill="#535253" d="M108.66 180.54c2.5-1.19 5.24-1.62 7.97-1.95l-.63 4.08-5.89-.64-1.43-1.23-.02 8.33-1.52-.08c.27-1.8.1-3.62-.29-5.38l-.99.12-4.79.4-.12-.91.36-3.05c2.41.3 5.01 1.54 7.35.31z"/><path fill="#1e4f59" d="M212.14 183.35l5.53-4.2c1.38.57 2.67 1.67 4.22 1.66 1.86-.47 3.56-1.38 5.3-2.17l1.33 5.44c-3.16 3.3-8.23 2.7-12.37 3.68-3.68-.38-7.38-.62-11.07-.79a69.06 69.06 0 0 1-2.91-.78l.51-3.01c2.63.69 5.59 2.89 8.19 1.09l1.27-.92z"/><path fill="#558897" d="M108.68 180.8l1.43 1.23.91 9.29c-.86-.65-1.64-1.39-2.36-2.19l.02-8.33z"/><path fill="#959194" d="M117.13 182.07c2.5-.76 5.08-1.32 7.71-1.17.65 1.58 1.18 3.23 1.22 4.96-2.87.87-5.84 1.72-8.85 1.13l-.08-4.92z"/><path fill="#316c78" d="M197.69 184.98c1.72-1.65 3.6-3.41 6.11-3.55l7.07 2.84c-2.6 1.8-5.56-.4-8.19-1.09l-.51 3.01-4.48-1.21z"/><path fill="#57828f" d="M105.86 183.79l.99-.12c.39 1.76.56 3.58.29 5.38l-1.06.45-.13-1.4c-.11-1.44-.13-2.87-.09-4.31z"/><path fill="#7b7a7c" d="M101.07 184.19l4.79-.4.09 4.31-4.25.11-.63-4.02z"/><path fill="#333234" d="M126.77 184.9c8.61-1.61 17.59-1.72 26.21-.1a46.84 46.84 0 0 0 1.65 2.72l1.68.32c1.29.16 2.59.28 3.88.36l-6.97.87-.37 1.85c-1.49.76-3.12 1.23-4.79 1.38-1.82-.5-2.76-2.22-3.95-3.51-1.41-1.97-3.92-1.65-6.04-1.74-3.64.05-7.43-.21-10.9 1.09l-.4-3.24z"/><path fill="#75a7b2" d="M228.52 184.08l.35.46.36 1.35-2.99 1.36c-2.57.41-5.88-.07-7.4 2.57-.47 5.32 1.14 10.64.09 15.96l-.68.44-3.82-.63-.64-3.94.39-6.83.65.57c.46 3.34-.36 6.97 1.2 10.08l1.95-.47c.79-4.57 1.26-11.2-3.88-13.37l-1.38 2.23c-1.96-.76-3.97-1.38-5.96-2.04 3.43-.24 6.86-.43 10.3-.51l-1.31-1.7.4-1.85c4.14-.98 9.21-.38 12.37-3.68z"/><path fill="#403f40" d="M228.87 184.54l5.42 1.23c.56.97 1.67 1.88 1.45 3.12-.1 3.38-2.63 5.84-4.72 8.2l-.87.96c2.56 2.76 5.08 5.72 6.07 9.44-1.31-.38-3.04-.41-3.54-1.95-1.42-2.99-3.74-5.34-5.95-7.74.13-.35.37-1.05.49-1.4.84-1.57 1.86-3.05 2.5-4.72.31-1.94-.15-3.89-.49-5.79l-.36-1.35z"/><path fill="#427d8c" opacity=".88" d="M232.92 184.02l3.92 1.29c1.52 4.47-.44 11.37-5.82 11.78 2.09-2.36 4.62-4.82 4.72-8.2.22-1.24-.89-2.15-1.45-3.12l-1.37-1.75z"/><path fill="#555359" d="M226.24 187.25l2.99-1.36c.34 1.9.8 3.85.49 5.79-.64 1.67-1.66 3.15-2.5 4.72-.8-.94-3.06-1.94-3.6-.25 0 1.53 1.91 1.98 3.11 1.65 2.21 2.4 4.53 4.75 5.95 7.74.5 1.54 2.23 1.57 3.54 1.95l.6.14c-.05 2.38-.03 5.81-2.78 6.66-3.8-.97-7.44-2.44-11.02-4-1.18 2.01-2.73 3.76-4.86 4.79.47-2.83.47-5.75-.54-8.47l.63-.39.68-.44c3.39-1.81 5.09 2.67 7.24 4.46.75-.9 1.96-1.75 1.58-3.1-.38-4.62-4.19-7.67-6.61-11.26 1.84.76 2.97-2.58.72-2.5l-1.32.95-.36-2.13c2.77-.59 4.59-2.69 6.06-4.95z"/><path fill="#1f2122" opacity=".83" d="M127.17 188.14c3.47-1.3 7.26-1.04 10.9-1.09 2.12.09 4.63-.23 6.04 1.74-4.39.45-8.79.53-13.19.54-2.06-.01-3.88 1.24-5.93 1.27-1.59.12-3.21 0-4.77.35-1.47.54-2.74 1.65-4.32 1.86-3-.13-5.89-1.19-8.9-1.15-2.36.21-4.6 1.02-6.91 1.51l-.52-.79 2.65-1.2 3.86-1.68 1.06-.45 1.52.08c.72.8 1.5 1.54 2.36 2.19 2.84-.03 5.47-1.13 8.21-1.72 2.67-.36 5.45-.24 7.94-1.46z"/><path fill="#234d57" d="M177.28 187.39l3.8 1.72c-.08 2.26-.31 4.51-.72 6.74l-2.25-1.32-1.48 3.28c-.68 1.72-.32 3.53.21 5.23l-4.04-3.42.04-.75 1.18-3.69c1.5-2.41 2.59-5.03 3.26-7.79z"/><path fill="#59575f" d="M205.08 186.97c3.69.17 7.39.41 11.07.79l-.4 1.85 1.31 1.7c-3.44.08-6.87.27-10.3.51 1.99.66 4 1.28 5.96 2.04l1.46.96-.39 6.83c-1.6 1.61-2.46 3.72-3.27 5.8-3.7.25-8.82 1.92-8.6 6.47 2.51 3.7 5.98 6.54 9.27 9.51l-.09.99c-1.17-.19-2.34-.48-3.3-1.19-4.39-2.88-8.11-6.77-11.01-11.14 1.93-2.57 5.39-4.72 5.08-8.32-1.49-.87-4.28-1.01-4.09-3.3 2.61-.06 5.42.41 7.85-.83 1.19-.45 1.64-2.1 1.09-3.19-1.67-1.38-3.78-2.06-5.73-2.93-.1-2.89 2.22-4.73 4.09-6.55z"/><path fill="#181b1b" d="M218.84 189.82c1.52-2.64 4.83-2.16 7.4-2.57-1.47 2.26-3.29 4.36-6.06 4.95l-1.34-2.38z"/><path fill="#4d4c4e" d="M101.7 188.21l4.25-.11.13 1.4-3.86 1.68-.52-2.97z"/><path fill="#29606c" d="M181.08 189.11c1.95 1.19 3.53 2.87 4.89 4.69l-3.33 4.62 2.11 2.68-8.12-3.29 1.48-3.28 2.25 1.32c.41-2.23.64-4.48.72-6.74z"/><path fill="#5f6069" d="M218.84 189.82l1.34 2.38.36 2.13.6 1.55c2.42 3.59 6.23 6.64 6.61 11.26.38 1.35-.83 2.2-1.58 3.1-2.15-1.79-3.85-6.27-7.24-4.46 1.05-5.32-.56-10.64-.09-15.96z"/><path fill="#228183" opacity=".76" d="M148.06 192.3c1.67-.15 3.3-.62 4.79-1.38l2.41 1.89-1.16 2.07-6.04-2.58z"/><path fill="#fdffff" d="M212.72 193.86l1.38-2.23c5.14 2.17 4.67 8.8 3.88 13.37l-1.95.47c-1.56-3.11-.74-6.74-1.2-10.08l-.65-.57-1.46-.96z"/><path fill="#5e8d9d" d="M220.54 194.33l1.32-.95c2.25-.08 1.12 3.26-.72 2.5l-.6-1.55z"/><path fill="#5a8393" d="M223.62 196.15c.54-1.69 2.8-.69 3.6.25l-.49 1.4c-1.2.33-3.11-.12-3.11-1.65z"/><path fill="#30646f" d="M176.84 203.04c-.53-1.7-.89-3.51-.21-5.23l8.12 3.29 1.64 3.55-8.64-.32-.91-1.29z"/><path fill="#2f3136" d="M165.36 198.77l7.48.1-.04.75.01 2.79-1.1 1.33c-2.43-1.21-4.62-2.86-6.35-4.97z"/><path fill="#1a1a1a" d="M158.22 199.76c3.03 2.14 7.58 4 7.76 8.28-.54 1.08-1.43 2.21-.74 3.46.74 2.94 3.86 3.95 6.46 4.62l.35-2.99.6-2.14c2.55 1.97 5.56 3.72 6.77 6.9l-2.52 1.58c-1.53-.66-3.08-1.28-4.61-1.9-2.64-1.13-5.29-2.23-8.04-3.06-.58-3.02-.38-6.11-.7-9.15-1.08-2.43-4.94-2.64-5.33-5.6z"/><path fill="#2e5b66" d="M172.81 202.41l-.01-2.79 4.04 3.42.91 1.29-4.94-1.92z"/><path fill="#706d77" d="M210.52 207.45c.81-2.08 1.67-4.19 3.27-5.8l.64 3.94 3.82.63-.63.39c-1.48.85-3.26 1.3-4.49 2.55-1.46 1.49-.79 3.7-.71 5.54l-2.58-1.56c-2.51 1.1-5.25 1.71-7.92.78-.22-4.55 4.9-6.22 8.6-6.47z"/><path fill="#232425" d="M177.75 204.33l8.64.32c.73 1.61.75 4.01-1.4 4.49-3.08-.3-6.24-1.64-7.24-4.81z"/><path fill="#a6d8e0" d="M213.13 209.16c1.23-1.25 3.01-1.7 4.49-2.55 1.01 2.72 1.01 5.64.54 8.47l-.26.75c-1.27 3.58-1.71 7.37-2.27 11.11-1.61-.04-3.18-.34-4.65-.97l.12-1.55.09-.99c.9-2.83 1.88-5.74 1.23-8.73-.08-1.84-.75-4.05.71-5.54m.92 6.79l1.92.35c1.74-2.18 1.38-5.06 1.16-7.63-3.54.1-3.97 4.65-3.08 7.28m-2.24 9.11l2.89.83c.35-2.45 1.48-5.05.4-7.47-2.29 1.49-2.8 4.17-3.29 6.64z"/><path fill="#545357" d="M165.24 211.5c-.69-1.25.2-2.38.74-3.46 1.05 2.67 3.53 4.1 6.07 5.09l-.35 2.99c-2.6-.67-5.72-1.68-6.46-4.62z"/><path fill="#fcffff" d="M214.05 215.95c-.89-2.63-.46-7.18 3.08-7.28.22 2.57.58 5.45-1.16 7.63l-1.92-.35z"/><path fill="#4b474d" d="M218.16 215.08c2.13-1.03 3.68-2.78 4.86-4.79 3.58 1.56 7.22 3.03 11.02 4l-1.79 2.86c.89 3.16 4.85 3.36 6.14 6.22-2.18-.38-4.38.06-6.07 1.53-.59-1.75-1.49-3.37-2.95-4.53l-.9-2.3c-3.41-.03-4.86 3.25-6.35 5.76-.53-3.06-2.25-5.67-4.22-8l.26-.75z"/><path fill="#65626a" d="M201.92 213.92c2.67.93 5.41.32 7.92-.78l2.58 1.56c.65 2.99-.33 5.9-1.23 8.73-3.29-2.97-6.76-5.81-9.27-9.51z"/><path fill="#58555d" d="M215.63 226.94c.56-3.74 1-7.53 2.27-11.11 1.97 2.33 3.69 4.94 4.22 8 1.49-2.51 2.94-5.79 6.35-5.76l.9 2.3c-4.44 3.87-8.97 7.93-14.78 9.58l-1.65-1.89-2.04-.69.04-.79.04-.61c1.47.63 3.04.93 4.65.97z"/><path fill="#4d8a9a" d="M172.29 217.57l4.61 1.9c3.92 2.09 8.54 2.28 12.39 4.48-3.43.62-6.94.16-10.19-1.07-1.79-1.35-3.78-2.39-5.84-3.24l-.67-.39-.3-1.68z"/><path fill="#f4ffff" d="M211.81 225.06c.49-2.47 1-5.15 3.29-6.64 1.08 2.42-.05 5.02-.4 7.47l-2.89-.83z"/><path fill="#333233" d="M149.95 229.2c5.03-3.83 10.63-7.02 16.86-8.4 1.1 3.44 2.3 6.95 4.55 9.84 1.79 2.2 4.05 3.95 6.12 5.88l-8.43 1.23c-1.95.88-3.84 1.9-5.81 2.77-4.21.14-8.76-.71-11.49-4.21-2.1-1.79-1.81-4.64-1.8-7.11z"/><path fill="#4d96a8" d="M166.81 220.8l2.31 1.12c1.28 2.9 2.58 5.87 4.61 8.35 2.15 2.48 4.97 4.24 7.65 6.08l-3.9.17c-2.07-1.93-4.33-3.68-6.12-5.88-2.25-2.89-3.45-6.4-4.55-9.84z"/><path fill="#3e3d41" d="M214.59 229.95c5.81-1.65 10.34-5.71 14.78-9.58 1.46 1.16 2.36 2.78 2.95 4.53-.86 1.6-1.59 3.27-2.09 5.02l-.11.75 1.04 1.62-2.4.99c-.57 2.89 1.9 4.63 3.75 6.37l-1.25 1.32c-.87.98-1.72 1.99-2.45 3.08.83 1.6 2.55 2.45 3.91 3.56l-2.77 1.34 3.24 1.05c.79 1.45 1.66 2.85 2.72 4.13-3.22-.94-6.43-1.9-9.71-2.61-.15-3.22.72-6.34 1.6-9.4-.78-1.49-1.49-3.02-2.42-4.41-1.77-1.39-4.12-1.71-5.96-2.99l-.75-1.25 3.93-2.68c-2.15-.98-4.31-.54-6.07.96l-3.41.41 1.47-2.21z"/><path fill="#6b6a6a" d="M232.32 224.9c1.69-1.47 3.89-1.91 6.07-1.53 1.37.3 2.8.55 4.01 1.32 2.99 2.15 6.81 2.89 9.33 5.73 1.74 1.47 3.87 2.35 5.97 3.17l1.31 3.63 3.06-1.94c-.68 2.22-1.43 4.43-2.23 6.62l-4.94-.92c-.74-1.22-1.71-2.27-2.68-3.3-2.42-3.99-7.22-5.05-11.21-6.78-1.97-.59-4.09-1.95-6.17-1.01l-.95.95c-1.08-.68-2.37-1.2-3.66-.92.5-1.75 1.23-3.42 2.09-5.02z"/><path fill="#83cad3" d="M205.81 231.66c.93-2.37 3.15-3.69 5.13-5.08l-.04.79-2.27 4.81 3.26-.12 1.05-4 1.65 1.89-1.47 2.21-.83 1.41c-2.2-.48-4.37-1.1-6.48-1.91z"/><path fill="#555556" d="M194.63 227.54l.44.6-.33 8.51-2.44.74c-.4-1.74-.87-3.46-1.48-5.12-.91 1.65-1.19 3.55-.91 5.42l-.84-.17c-2.57-.76-5.17.09-7.7.61-3.36.76-6.81 1.25-10 2.63-.5-1.22-1.02-2.48-2.32-3.01l8.43-1.23c1.3-.1 2.6-.11 3.9-.17 3.9-.01 7.16-2.41 10.14-4.67 1.41-1.06 2.18-2.69 3.11-4.14z"/><path fill="#557a87" d="M195.07 228.14c1.99 2.05 1.86 5.01 2.07 7.66l-2.4.85.33-8.51z"/><path fill="#f9ffff" d="M208.63 232.18l2.27-4.81 2.04.69-1.05 4-3.26.12z"/><path fill="#46484e" d="M251.73 230.42l4.44-2.16c2.89 1.46 5.25 3.76 8.15 5.17 1.65.11 3.15-1.02 4.82-1.1l-2.33 2.11c4.5 3.38 10.16 4.55 15.1 7.13-.34 2.52.61 4.9 1.52 7.19l.4.96c1.26 2.02 2.74 3.89 4.11 5.85l-2 .45c-3.58-1.83-6.93-4.17-9.58-7.21 1.88-.22 3.77-.22 5.67-.09-2.66-1.77-5.56-3.16-8.67-3.91l1.85 3.6-3.49 1.15-2.61-.8c-1.82-1.77 1.35-3.57 2.07-5.18-1.17-.58-2.35-1.82-3.75-1.09-1.85.86-2.59 2.98-3.7 4.56l-.69-.22-1.8-.64c-.5 1.52-1 3.03-1.57 4.52l-.98 2.42c-2.63-.4-5.34-.71-7.71-2 .2-1.24 1.13-2.54.61-3.78-1-.89-2.13-1.61-3.26-2.31.37-1.75.77-4.18-1.19-5.15-3.88-2.08-8.09-3.53-12.33-4.67 3.15 2.71 7.49 3.33 10.67 6.01-3.73.88-6.89-2.11-10.5-2.61l2.85 3.61-6.57-1.26 1.25-1.32c-1.85-1.74-4.32-3.48-3.75-6.37l2.4-.99c1.09-.16 2-.65 2.73-1.45l.95-.95c.97 1.42 1.64 3.28 3.38 3.94 4.24 1.83 8.61 3.93 13.31 4-1.04 2.27 1.58 3.25 3.37 3.15 1.65.26 3.29.59 4.94.92.8-2.19 1.55-4.4 2.23-6.62l-3.06 1.94-1.31-3.63c-2.1-.82-4.23-1.7-5.97-3.17z"/><path fill="#5896a8" d="M148.04 230.22l1.91-1.02c-.01 2.47-.3 5.32 1.8 7.11 2.73 3.5 7.28 4.35 11.49 4.21-1.41.63-2.83 1.22-4.28 1.74l-2.81-.18c-3.68-1.36-6.3-4.36-8.48-7.49l.37-4.37z"/><path fill="#59585c" d="M234.84 229.89c2.08-.94 4.2.42 6.17 1.01 3.99 1.73 8.79 2.79 11.21 6.78l-.69.15c-4.7-.07-9.07-2.17-13.31-4-1.74-.66-2.41-2.52-3.38-3.94z"/><path fill="#373738" d="M144.01 234.17c.54-2.03 2.06-3.38 4.03-3.95l-.37 4.37c-1.29 1.55-2.28 3.31-2.89 5.23-.49-1.85-.72-3.75-.77-5.65z"/><path fill="#54545a" d="M216.53 231.75c1.76-1.5 3.92-1.94 6.07-.96l-3.93 2.68-2.14-1.72z"/><path fill="#9898a2" d="M230.23 229.92c1.29-.28 2.58.24 3.66.92-.73.8-1.64 1.29-2.73 1.45l-1.04-1.62.11-.75z"/><path fill="#1d1e1d" opacity=".98" d="M213.12 232.16l3.41-.41 2.14 1.72.75 1.25-5.38-.68c-1.08 1.56-1.77 3.58-3.45 4.61-4.25.03-8.38-1.43-12.63-1.44-2.55.55-4.91 2.26-7.62 1.39l1.96-1.21 2.44-.74 2.4-.85c4.65-1.88 9.63.56 14.47 0l.68-2.23.83-1.41z"/><path fill="#61909d" d="M189.91 237.69c-.28-1.87 0-3.77.91-5.42.61 1.66 1.08 3.38 1.48 5.12l-1.96 1.21-.43-.91z"/><path fill="#89888d" d="M266.81 234.44l2.33-2.11 1.49.93c3.72 2.37 7.9 3.91 12.17 4.95l2.33.67 2.19 4.07c-1.82-.41-3.63-.83-5.41-1.38-4.94-2.58-10.6-3.75-15.1-7.13z"/><path fill="#38383a" opacity=".63" d="M270.63 233.26c4.21 1.05 8.77 2.14 12.17 4.95-4.27-1.04-8.45-2.58-12.17-4.95z"/><path fill="#1d1d1d" d="M142.3 234.34l1.71-.17c.05 1.9.28 3.8.77 5.65 1.03 2.05 1.9 4.24 3.37 6.03 1.16.52 2.42.76 3.66 1 2.41.36 4.93-.01 7.25.83-5.23.14-11.39.67-15.47-3.29-1.64-3.01-2.48-6.73-1.29-10.05z"/><path fill="#4c4b4c" d="M144.78 239.82c.61-1.92 1.6-3.68 2.89-5.23 2.18 3.13 4.8 6.13 8.48 7.49-1.65.99-3.54 1.95-4.03 4.01l-.31.76c-1.24-.24-2.5-.48-3.66-1-1.47-1.79-2.34-3.98-3.37-6.03z"/><path fill="#65666f" d="M234.81 235.22c4.24 1.14 8.45 2.59 12.33 4.67 1.96.97 1.56 3.4 1.19 5.15-1.44-.31-2.9-.51-4.36-.52-2.52 1.07 1.06 4.08 1.94 1.57.72 1.9 1.51 3.86 3.19 5.14-.52 2.36-.87 4.89-2.33 6.9-3.31.45-6.69-1.2-9.1-3.39l2.27-1.29c1.28.83 2.54 1.71 3.96 2.31 1.27-.28 2.36-1.04 3.52-1.62-.74-.62-1.48-1.22-2.23-1.81l.08-1.24c-2.33-2.02-5.47-3.64-8.61-2.67l-1.76.13-1.71 1.45-3.24-1.05 2.77-1.34c-1.36-1.11-3.08-1.96-3.91-3.56.73-1.09 1.58-2.1 2.45-3.08l6.57 1.26-2.85-3.61c3.61.5 6.77 3.49 10.5 2.61-3.18-2.68-7.52-3.3-10.67-6.01m2.68 7.95c-.94 1.89 3.18 3.14 3.48 1.03-.3-1.44-2.45-2-3.48-1.03z"/><path fill="#292d2f" opacity=".86" d="M181.37 238.13c2.53-.52 5.13-1.37 7.7-.61-3.07 1.47-6.39 2.26-9.68 3.05-3.97.92-7.62 3.37-11.83 3.08l.55-.47.6-.47c.87-.68 1.75-1.33 2.66-1.95 3.19-1.38 6.64-1.87 10-2.63z"/><path fill="#6a686b" d="M163.24 240.52l5.81-2.77-.34 4.96-.6.47-8.68 1.8-.47-2.72 4.28-1.74z"/><path fill="#6ec3d8" d="M169.05 237.75c1.3.53 1.82 1.79 2.32 3.01l-2.66 1.95.34-4.96z"/><path fill="#8d8c93" d="M251.53 237.83l.69-.15c.97 1.03 1.94 2.08 2.68 3.3-1.79.1-4.41-.88-3.37-3.15z"/><path fill="#3c3d45" d="M285.13 238.88l4.43 1.48.46 3.51c4.11 2.43 9.04 2.7 13.23 4.91 2.17 1.18 2.07 4.5 4.43 5.45 3.68 1.73 7.93-.99 11.44 1.42 1.45.95 5.04 1.52 4.01 3.9-1.64 1.07-3.31 2.19-5.21 2.75-3.31-.7-6.37-2.24-9.56-3.33-2.36-1.03-4.72-2.08-6.9-3.44-1.64-.74-1.46-2.71-1.9-4.16l-2.7 2.5c-4.58-1.43-8.94-3.45-13.43-5.11-.91-2.29-1.86-4.67-1.52-7.19 1.78.55 3.59.97 5.41 1.38l-2.19-4.07z"/><path fill="#3e3d3e" d="M156.15 242.08l2.81.18.47 2.72 8.68-1.8-.55.47c-4.53 2.81-10.24 3.22-15.44 2.44.49-2.06 2.38-3.02 4.03-4.01z"/><path fill="#5b5b62" d="M267.43 242.49c1.4-.73 2.58.51 3.75 1.09-.72 1.61-3.89 3.41-2.07 5.18l-5.38-1.71c1.11-1.58 1.85-3.7 3.7-4.56z"/><path fill="#85a5d3" d="M237.49 243.17c1.03-.97 3.18-.41 3.48 1.03-.3 2.11-4.42.86-3.48-1.03z"/><path fill="#2b2d34" d="M243.97 244.52c1.46.01 2.92.21 4.36.52 1.13.7 2.26 1.42 3.26 2.31.52 1.24-.41 2.54-.61 3.78l-1.88.1c-1.68-1.28-2.47-3.24-3.19-5.14l-.32-.7-1.62-.87z"/><path fill="#7fa1ce" d="M245.91 246.09c-.88 2.51-4.46-.5-1.94-1.57l1.62.87.32.7z"/><path fill="#6e6f77" d="M273.36 244.81c3.11.75 6.01 2.14 8.67 3.91-1.9-.13-3.79-.13-5.67.09 2.65 3.04 6 5.38 9.58 7.21 1.68.84 3.36 1.7 4.84 2.88l-1.93.4c-2.04-.54-4.23-1.79-6.36-.97-1.28.41-1.41 1.97-1.89 3.02l-.51 1.74-1.9.06c-1.39-.6-2.71-1.33-4.15-1.78-1.94.08-3.67 1.12-5.43 1.83-1.8-1.65-1.35-4.19-1.44-6.38 2.68.93 5.29 2.14 8.08 2.74 2.4.44 4.57-.98 6.58-2.09l-18.53-7.82c-1.37-.86-2.64.16-3.63 1.06.57-1.49 1.07-3 1.57-4.52l1.8.64c4.76 3.6 10.45 5.81 16.23 7.15-2.17-1.99-4.85-3.31-7.55-4.42l3.49-1.15-1.85-3.6z"/><path fill="#8c8b91" d="M263.04 246.83l.69.22 5.38 1.71 2.61.8c2.7 1.11 5.38 2.43 7.55 4.42-5.78-1.34-11.47-3.55-16.23-7.15z"/><path fill="#323236" d="M233.19 250l1.71-1.45 1.76-.13c2.68 1.64 5.58 2.85 8.53 3.91l2.23 1.81c-1.16.58-2.25 1.34-3.52 1.62-1.42-.6-2.68-1.48-3.96-2.31l-2.27 1.29-1.76-.61c-1.06-1.28-1.93-2.68-2.72-4.13z"/><path fill="#808188" d="M236.66 248.42c3.14-.97 6.28.65 8.61 2.67l-.08 1.24c-2.95-1.06-5.85-2.27-8.53-3.91z"/><path fill="#8d8b90" d="M259.67 250.71c.99-.9 2.26-1.92 3.63-1.06l18.53 7.82c-2.01 1.11-4.18 2.53-6.58 2.09-2.79-.6-5.4-1.81-8.08-2.74-2.92-1.01-5.84-2.07-8.48-3.69l.98-2.42z"/><path fill="#6e6e75" d="M283.83 249.72l-.4-.96c4.49 1.66 8.85 3.68 13.43 5.11l2.7-2.5c.44 1.45.26 3.42 1.9 4.16 2.18 1.36 4.54 2.41 6.9 3.44-5.18 2.25-10.67-.98-15.99.53l-.62-3.16c-1.27-.28-2.54-.56-3.81-.77-1.37-1.96-2.85-3.83-4.11-5.85m9.33 6.5c-1.16 1.49 1.47 3.02 2.45 1.6 1.14-1.49-1.47-3.01-2.45-1.6z"/><path fill="#5f6067" d="M287.94 255.57l3.81.77.62 3.16c5.32-1.51 10.81 1.72 15.99-.53 3.19 1.09 6.25 2.63 9.56 3.33 1.9-.56 3.57-1.68 5.21-2.75.66.67 1.29 1.37 1.89 2.1-1.6.08-3.05.72-4.31 1.67-1.97-.03-4.28-.01-4.8 2.37 4.93 1.93 10.36 1.39 15.36 3.07l1.57.47.98 3.67c-2.53-1.21-5.09-2.44-7.89-2.84-5.85-.87-11.45-2.87-16.96-4.96-1.04-.55-2.34-2.05-3.55-1.04-.74 2.06 2.52 2.35 3.76 1.58 1.25 1.99 2.75 4.62.56 6.59-2.89-2.62-6.63-3.87-10.09-5.52.29-.41.85-1.24 1.13-1.65l-2.24-2.41c-2.97-1.78-6.66-1.64-9.69-3.35l1.93-.4c-1.48-1.18-3.16-2.04-4.84-2.88l2-.45m22.36 6.49l.01.82.72.41.71-.41v-.83l-.72-.4-.72.41z"/><path fill="#9e9ca2" d="M293.16 256.22c.98-1.41 3.59.11 2.45 1.6-.98 1.42-3.61-.11-2.45-1.6z"/><path fill="#414146" d="M282.49 258.33c2.13-.82 4.32.43 6.36.97 3.03 1.71 6.72 1.57 9.69 3.35l-3.61 2.63-4.97-1.24c-.53.99-1.06 1.99-1.54 3.02l-1.81-1.32c-1.78-1.76-3.75-3.31-6.01-4.39.48-1.05.61-2.61 1.89-3.02z"/><path fill="#8b8fb1" d="M268.61 263.2c1.76-.71 3.49-1.75 5.43-1.83 1.44.45 2.76 1.18 4.15 1.78l-.55.75-1.63 2.1-4.54-1.15a7.68 7.68 0 0 1-2.86-1.65z"/><path fill="#323134" opacity=".62" d="M280.09 263.09l.51-1.74c2.26 1.08 4.23 2.63 6.01 4.39l-.64 2.7-.36 1.52c-.62-2.2-1.14-4.46-2.51-6.33-1.47 1-2.9 2.09-4.49 2.89-2.47.74-4.98-.26-7.37-.82l.23-.85 4.54 1.15 1.63-2.1 1.38 1.24.82-.37.25-1.68z"/><path fill="#9c9ba1" d="M310.3 262.06l.72-.41.72.4v.83l-.71.41-.72-.41-.01-.82z"/><path fill="#3e3f46" d="M320.71 263.32c1.26-.95 2.71-1.59 4.31-1.67 2.18.61 4.4 1.27 6.68.83 3.4-.7 6.58.95 9.69 2.05l1.07 2.07c2.65 1.15 4.97 2.89 7.43 4.39 3.17 1.62 6.56 2.77 9.74 4.39l.05 3.09-.78.29c-2.1.32-3.25 1.94-3.9 3.82l1.86 1.59c-1.6 2.26-2.98 5.41-6.06 5.8 1.06-5.35-4.25-8.21-6.88-11.98 3.91.93 7.95 1.08 11.95.75-3.54-2.23-7.48-3.67-11.44-4.96l-1.26-.59c-3.3-1.68-6.76-3.02-10.33-3.96l-1.57-.47c-3.26-2.29-6.88-3.95-10.56-5.44z"/><path fill="#d1d0d3" opacity=".98" d="M278.19 263.15l1.9-.06-.25 1.68-.82.37-1.38-1.24.55-.75z"/><path fill="#6f6f77" d="M294.93 265.28l3.61-2.63 2.24 2.41-1.13 1.65c-.73.92-1.51 1.87-1.68 3.08l-2.61-3.14-1.53-.88c-1.39 1.18-2.48 2.66-3.45 4.19l-2.37-.09.29-2.09.12-.72 1.54-3.02 4.97 1.24z"/><path fill="#65656c" d="M315.91 265.69c.52-2.38 2.83-2.4 4.8-2.37 3.68 1.49 7.3 3.15 10.56 5.44-5-1.68-10.43-1.14-15.36-3.07z"/><path fill="#848288" d="M305.42 264.06c1.21-1.01 2.51.49 3.55 1.04l.21.54c-1.24.77-4.5.48-3.76-1.58z"/><path fill="#66666f" d="M308.97 265.1c5.51 2.09 11.11 4.09 16.96 4.96 2.8.4 5.36 1.63 7.89 2.84l-.98-3.67c3.57.94 7.03 2.28 10.33 3.96-.77.73-1.47 1.57-2.38 2.12-3.28-.34-6.51-1.14-9.82-1.26 2.48 1.78 5.05 3.43 7.64 5.05l-.45 1.95-2.73 3.22-.48-.4c-.63-1.01-.99-2.23-1.9-3.03-1.67-.61-3.48-.57-5.22-.75-1.16-4.49-6.27-7.33-10.72-6.15l-.34 3.72-.7.44a70.12 70.12 0 0 0-.42-3.55l-1.35-.61a69.89 69.89 0 0 0-2.76-.71l-1.93 2.71-2.87 1.11-1.85-2.83 2.99.26 1.86-2.25c2.19-1.97.69-4.6-.56-6.59l-.21-.54m6.84 3.74c1.18 1.78 3.4 2.23 5.18 3.19 2.85 1.41 5.84 2.58 9.03 2.95-4.22-2.97-9.12-5.29-14.21-6.14z"/><path fill="#b2afb2" d="M286.61 265.74l1.81 1.32-.12.72-1.59 1.06-.74-.4.64-2.7z"/><path fill="#d9dae3" d="M290.38 269.96c.97-1.53 2.06-3.01 3.45-4.19l1.53.88-1.44 4.66-3.54-1.35z"/><path fill="#91929f" opacity=".95" d="M295.36 266.65c.93 1 1.78 2.06 2.61 3.14l-.88 2.46c-1.47.55-2.88 1.23-4.28 1.92-1.99-1.27-5.51-1.45-5.73-4.32l.93.02 2.37.09 3.54 1.35 1.44-4.66z"/><path fill="#3e3f45" d="M297.97 269.79c.17-1.21.95-2.16 1.68-3.08 3.46 1.65 7.2 2.9 10.09 5.52l-1.86 2.25-2.99-.26 1.85 2.83-.59 2.04a47.72 47.72 0 0 0 6.73 2.21 130 130 0 0 1 2.98-2.27l.94 1.35.5.46c-4.65 2.01-10.64.78-13.76-3.31-.16-1.88-.37-3.75-.59-5.62-2.66-.96-4.28 1.61-6.31 2.75-1.31.34-2.6-.14-3.83-.49 1.4-.69 2.81-1.37 4.28-1.92 1.6.26 2.26-1.63.88-2.46z"/><path fill="#83838b" d="M315.81 268.84c5.09.85 9.99 3.17 14.21 6.14-3.19-.37-6.18-1.54-9.03-2.95-1.78-.96-4-1.41-5.18-3.19z"/><path fill="#bebdbf" opacity=".98" d="M297.97 269.79c1.38.83.72 2.72-.88 2.46l.88-2.46z"/><path fill="#fcfcff" d="M311.54 273.23l2.76.71c-.5 1.89-1.14 3.81-3.13 4.57l-1.56-2.57 1.93-2.71z"/><path fill="#505058" d="M343.17 273.19l1.26.59-.51 4.21c2.63 3.77 7.94 6.63 6.88 11.98l-.87-.21a6.96 6.96 0 0 1-.44-.1c-3.78-.71-7.29-2.28-10.77-3.86 3.17-.66 6.25.52 9.32 1.18-3.09-2.31-6.57-3.99-9.88-5.93l.45-1.95c-2.59-1.62-5.16-3.27-7.64-5.05 3.31.12 6.54.92 9.82 1.26.91-.55 1.61-1.39 2.38-2.12z"/><path fill="#9899a6" d="M314.3 273.94l1.35.61.42 3.55-.21.93-2.98 2.27a47.72 47.72 0 0 1-6.73-2.21l.59-2.04 2.87-1.11 1.56 2.57c1.99-.76 2.63-2.68 3.13-4.57z"/><path fill="#42434a" d="M317.11 273.94c4.45-1.18 9.56 1.66 10.72 6.15l-2.62 2.19-1.63-.36.35 1.47.52 1.02v1.81c-2.83-1.05-1.69-4.53-3.1-6.56-1.47-1.08-2.76.67-4.05 1.18l-.5-.46c.9-.85.89-1.76-.03-2.72l.34-3.72z"/><path fill="#75747b" d="M344.43 273.78c3.96 1.29 7.9 2.73 11.44 4.96-4 .33-8.04.18-11.95-.75l.51-4.21z"/><path fill="#c8c6c9" opacity=".96" d="M316.07 278.1l.7-.44c.92.96.93 1.87.03 2.72l-.94-1.35.21-.93z"/><path fill="#68676e" opacity=".96" d="M355 282.58c.65-1.88 1.8-3.5 3.9-3.82-.57 1.84-1.29 3.63-2.04 5.41l-1.86-1.59z"/><path fill="#878a9b" d="M327.83 280.09c1.74.18 3.55.14 5.22.75.91.8 1.27 2.02 1.9 3.03-1.1 1.06-1.43 2.77-.87 4.18l-2.51 1.05-.78.33-6.32-2.62-.02-.59v-1.81l-.52-1.02 1.28-1.11 2.62-2.19m1.06 5.82l3.22.15c-.12-1.54.74-3.36-.24-4.71-2.56-.82-2.71 2.84-2.98 4.56z"/><path fill="#d1d1dc" d="M328.89 285.91c.27-1.72.42-5.38 2.98-4.56.98 1.35.12 3.17.24 4.71l-3.22-.15z"/><path fill="#424248" d="M338.16 281.05c3.31 1.94 6.79 3.62 9.88 5.93-3.07-.66-6.15-1.84-9.32-1.18a37.86 37.86 0 0 1-3.29-1.53 140.5 140.5 0 0 1 2.73-3.22z"/><path fill="#b3b1b7" d="M323.58 281.92l1.63.36-1.28 1.11-.35-1.47z"/><path fill="#bab8bd" opacity=".98" d="M334.08 288.05c-.56-1.41-.23-3.12.87-4.18 1.23 1.36 1.54 4.02-.87 4.18z"/><path fill="#2b2c30" opacity=".75" d="M334.95 283.87l.48.4a37.86 37.86 0 0 0 3.29 1.53c3.48 1.58 6.99 3.15 10.77 3.86l.44.1-.99 1.08c-3.52-.35-6.58-2.32-9.97-3.15-2.49.35-4.87 2.8-7.4 1.41l2.51-1.05c2.41-.16 2.1-2.82.87-4.18z"/><path fill="#8b898e" d="M349.49 289.66l.44.1-.44-.1z"/></svg>