<svg xmlns="http://www.w3.org/2000/svg" width="512" height="512" viewBox="0 0 384 384" xmlns:v="https://vecta.io/nano"><path fill="#242323" d="M213.64 149.31c3.83-.71 7.71-.01 11.55.25 2.34 3.18 4.69 6.61 4.32 10.78-2.81-1.94-5.77-3.79-9.11-4.65-3.68-1-7.52-.85-11.29-.68-.93-.94-1.88-1.87-2.84-2.78 2.36-1.17 4.71-2.54 7.37-2.92z"/><path fill="#478c9e" d="M225.19 149.56l1.65.68c2.41 1.76 4.08 4.33 4.97 7.16l.47 3.15-2.69.66-.08-.87c.37-4.17-1.98-7.6-4.32-10.78z"/><path fill="#252425" d="M226.84 150.24c3.01.88 6 1.93 9.15 2.19 5.84.58 11.61-1.95 17.44-.54-2.45.3-4.86.86-7.26 1.46l.29 3.21c-4.76 1.25-9.84 2.72-14.65.84-.89-2.83-2.56-5.4-4.97-7.16z"/><path fill="#545254" d="M253.43 151.89l1.36-.14-3.58 4.12 3.88.64c1.52 1.62 2.92 3.43 4.82 4.63 1.92.83 4.05.93 6.08 1.32 3.61.56 5.07 4.62 7.37 7.01-1.01.86-2 1.74-2.94 2.68-2.15-2.45-4.35-4.85-6.59-7.21l-3.21 2.82c2.24 2.69 4.44 5.4 6.6 8.16l-3.08 3.93-.53-.45c-3.09-3.6-4.59-8.16-5.8-12.65l-2.84-.1.99-6.32-6.82-2.35c-.93-1.58-1.95-3.11-2.97-4.63 2.4-.6 4.81-1.16 7.26-1.46z"/><path fill="#353638" d="M254.79 151.75c3.45-.93 7.26 1.85 8.06 5.33-2.54-.65-5.16-.72-7.76-.57l-3.88-.64 3.58-4.12z"/><path fill="#171717" d="M192.83 162.83c3.01-4.55 7.69-7.49 12.33-10.15l.97 1.69.43.77c-.86 1.9-1.2 4.24-2.79 5.7-3.28 1.93-7.26 1.77-10.94 1.99z"/><path fill="#5b9bac" d="M206.13 154.37l.14-2.14 2.84 2.78c1.56 2.21 2.85 4.59 4.12 6.97-2.88-1.53-5.13-3.99-6.67-6.84l-.43-.77z"/><path fill="#4c4a50" d="M209.11 155.01c3.77-.17 7.61-.32 11.29.68 3.34.86 6.3 2.71 9.11 4.65l.08.87-3.51.84c1.23.73 2.45 1.47 3.63 2.28-.47 2.17-.72 4.47-1.84 6.43-2.72 3.03-7.01 4.52-8.96 8.26-1.07 1.75-1.19 4.13.11 5.8 1.96 2.18 4.71 3.41 6.8 5.45 1.29 2.69.89 5.83 1.13 8.74l-2.91.53c-2.09-.81-4.18-1.63-6.31-2.3l3.66-1.52c-1.8-1.13-3.52-2.51-5.59-3.11-2.18.41-3.81 2.19-5.63 3.35.75-3.41 1.55-6.82 2.6-10.15l-4.86-1.6c.29-1.43.51-2.88 1.02-4.25 1.94-2.24 4.77-3.55 6.55-5.96-1.33-3.2-2.81-6.44-2.64-9.99 1.48 1.29 2.89 2.67 4.46 3.84 1.78-.57 3.39-1.54 5.03-2.4-3.02-1.19-6.11-2.21-9.1-3.47-1.27-2.38-2.56-4.76-4.12-6.97z"/><path fill="#578f9f" d="M246.17 153.35l2.97 4.63c.1 2.76-.01 5.52-.12 8.27l-1.66 1.68-.9-11.37-.29-3.21z"/><path fill="#413f44" d="M206.56 155.14c1.54 2.85 3.79 5.31 6.67 6.84l9.1 3.47c-1.64.86-3.25 1.83-5.03 2.4-1.57-1.17-2.98-2.55-4.46-3.84-.17 3.55 1.31 6.79 2.64 9.99-1.78 2.41-4.61 3.72-6.55 5.96-.51 1.37-.73 2.82-1.02 4.25l4.86 1.6c-1.05 3.33-1.85 6.74-2.6 10.15 1.82-1.16 3.45-2.94 5.63-3.35 2.07.6 3.79 1.98 5.59 3.11-1.22.53-2.44 1.03-3.66 1.52l-2.49.1.82 2.64c4.87.5 9.2 3.44 14.18 3.22-3.48.25-7.12 1.09-10.5-.17-3.23-1.16-6.25-2.81-9.33-4.31l-.74 6.7-1.66-.1c-1.14-1.7-2.16-3.47-3.19-5.24-2.65.47-5.27 1.09-7.86 1.84l.97 6c-1.21.39-2.41.82-3.59 1.3l-.09-9.61c-2.42-.46-4.89-.88-7.36-.53l-1.26.93-.7 1.02c-.88 1.11-.75 2.09.4 2.94l2.25 1.94-.3-3.3c.53 3.5 1.15 6.99 1.53 10.51-3.89-4.35-5.89-9.89-7.28-15.46-4.9-.76-9.78-1.66-14.66-2.5l-.26-3.33 1.07.01c4.95-.08 9.96.54 14.87-.28l1.2-.98c.72-4.5.53-9.1.94-13.63l2.38 3.03-.27.67c-1.38 2.73-2.22 5.69-2.42 8.75l2.02.01c3.55.02 7.14.39 10.65-.34.39-2.03.42-4.11.54-6.17.09-1.55.23-3.09.43-4.62l.3-1.83c1.06-1.51 2.2-2.97 3.34-4.42-10.83-1.92-21.85-2.78-32.84-2.04l-1.05.03-.02-.9c-.03-.43-.07-1.28-.09-1.71 8.1-2.79 16.56-4.68 25.17-4.58 3.68-.22 7.66-.06 10.94-1.99 1.59-1.46 1.93-3.8 2.79-5.7z"/><path fill="#272626" d="M255.09 156.51c2.6-.15 5.22-.08 7.76.57 1.69 1.34 2.47 3.39 3.14 5.38-2.03-.39-4.16-.49-6.08-1.32-1.9-1.2-3.3-3.01-4.82-4.63z"/><path fill="#3d3c3f" d="M231.81 157.4c4.81 1.88 9.89.41 14.65-.84l.9 11.37 1.66-1.68 5.95.4 2.84.1c1.21 4.49 2.71 9.05 5.8 12.65-2.33-1.89-4.48-3.97-6.69-5.98l.4-5.59c-2.37.6-4.73 1.24-7.15 1.66l-.71.08c1.8 2.83 4.48 5.83 3.36 9.46-2.89-1.79-5.31-4.21-7.21-7.01-2.33-3.41-5.94-5.53-9.13-8.01-1.43-1.12-2.82-2.29-4.2-3.46-.14-1.06-.3-2.11-.47-3.15z"/><path d="M249.14 157.98l6.82 2.35-.99 6.32-5.95-.4.12-8.27zm-24.11 73.33c5.21-3.34 10.38-6.75 15.82-9.72a43.32 43.32 0 0 0 2.13 3.14c-5.66 3.06-10.43 7.44-15.36 11.52l-2.59-4.94z" fill="#666466"/><path fill="#98d4dd" d="M226.08 162.05l3.51-.84 2.69-.66 4.2 3.46c-.09 2.1-.07 4.27-.89 6.25-3.49.14-4.31-3.59-5.88-5.93l-3.63-2.28m5.74-.31c.29 2.87 0 6.62 3.37 7.75-.04-1.72.03-3.45-.29-5.15-.81-1.1-2.02-1.79-3.08-2.6z"/><path d="M231.82 161.74c1.06.81 2.27 1.5 3.08 2.6.32 1.7.25 3.43.29 5.15-3.37-1.13-3.08-4.88-3.37-7.75zm-.99 18.21l2.78 1.48c.67 1.47 1.41 2.94 1.77 4.54-.33 1.78-1.21 3.38-1.92 5.03l-2.31-6.32-.32-4.73z" fill="#fbffff"/><path fill="#5c5860" d="M229.71 164.33c1.57 2.34 2.39 6.07 5.88 5.93.82-1.98.8-4.15.89-6.25 3.19 2.48 6.8 4.6 9.13 8.01 1.9 2.8 4.32 5.22 7.21 7.01l-1.61 2.73c-2.25-.67-4.67-1.06-6.68-2.34-1.63-1.77-2.55-4.04-3.66-6.14l-3.77 5.13c-.02-2.49-.17-4.98-.31-7.46l-4.52.19a103.2 103.2 0 0 0-.89 3.46c-4.04 1.02-7.25 3.73-10.03 6.72 2.59 3.97 5.72 7.55 9.23 10.73-.92 2.45-2 4.88-3.63 6.96-.24-2.91.16-6.05-1.13-8.74-2.09-2.04-4.84-3.27-6.8-5.45-1.3-1.67-1.18-4.05-.11-5.8 1.95-3.74 6.24-5.23 8.96-8.26 1.12-1.96 1.37-4.26 1.84-6.43z"/><path fill="#171719" opacity=".54" d="M155.67 167.31c2.78-1.19 6.73-3.8 8.98-.32l-4.84-.09-.09 2.84 4.65 1.8c-2.28.05-4.87.44-6.77-1.14-.75-.96-1.31-2.05-1.93-3.09z"/><path d="M260.62 167.76l3.21-2.82 6.59 7.21-3.2 3.77c-2.16-2.76-4.36-5.47-6.6-8.16zm-37.55 65l2.9 5.1-8.1 5.53-2.56-4.43 7.76-6.2z" fill="#817f81"/><path fill="#3a383d" opacity=".95" d="M159.81 166.9l4.84.09 1.15.04-.81 2.42-.62 2.09-4.65-1.8.09-2.84z"/><path fill="#26a6a9" opacity=".82" d="M165.8 167.03l.63-.32 1.23.7.09 1.71-.55.67-1.73.18-.48-.52.81-2.42z"/><path fill="#212121" opacity=".98" d="M250.17 169.49c2.42-.42 4.78-1.06 7.15-1.66l-.4 5.59c-2.01-1.68-4.32-2.96-6.75-3.93z"/><path fill="#65acbf" opacity=".96" d="M273.36 169.47l.64-.53-.38 1.86-.93 2.31-3.07 3.72-3.96 4.27-1.52-1.25 3.08-3.93 3.2-3.77 2.94-2.68z"/><path fill="#202021" d="M168.82 169.99c10.99-.74 22.01.12 32.84 2.04-1.14 1.45-2.28 2.91-3.34 4.42-2.89-1.94-6.09-3.34-9.27-4.72l-1.26 2.19c-.06 2.03-.17 4.09-.72 6.06l-2.38-3.03c-.41 4.53-.22 9.13-.94 13.63l-1.2.98c-4.91.82-9.92.2-14.87.28 5.14-.75 10.33-1.03 15.5-1.57-.09-6.53.23-13.11 1.98-19.45-5.44-.44-10.98.43-16.34-.83z"/><path fill="#95d0da" d="M232.27 171.14l4.52-.19.31 7.46-.39 6.23c-.56 2.58-1.45 5.07-2.61 7.44-1.12-1.33-2.31-2.59-3.22-4.06-.19-1.12.12-2.24.27-3.34l2.31 6.32c.71-1.65 1.59-3.25 1.92-5.03-.36-1.6-1.1-3.07-1.77-4.54-.98-2.19-1.71-4.49-2.23-6.83l.89-3.46m.65.69c.17 2.81-.9 6.97 2.83 7.82l.28-7.83-3.11.01z"/><path fill="#323132" d="M273.62 170.8c5.17 4.8 9.49 10.53 12.58 16.88l-.78.27c-4.75-4.49-8.89-9.57-12.73-14.84l.93-2.31z"/><path fill="#347683" d="M187.79 173.92l1.26-2.19c3.18 1.38 6.38 2.78 9.27 4.72l-.3 1.83c-3.55-1.12-6.97-2.59-10.23-4.36z"/><path fill="#feffff" d="M232.92 171.83l3.11-.01-.28 7.83c-3.73-.85-2.66-5.01-2.83-7.82z"/><path fill="#4a464d" d="M237.1 178.41l3.77-5.13c1.11 2.1 2.03 4.37 3.66 6.14 2.01 1.28 4.43 1.67 6.68 2.34.64 3.58 1.29 7.29.3 10.88-2.36-.48-4.76-.3-6.85.95l.23-1.8c1.9-2.09 4.14-3.81 6.34-5.55-2.26-.43-4.53-1.13-6.85-.97-2.14 1.25-3.81 3.14-5.58 4.85-.72-1.82-1.46-3.63-2.09-5.48l.39-6.23z"/><path fill="#696769" d="M269.62 176.83l3.07-3.72c3.84 5.27 7.98 10.35 12.73 14.84-.83.74-1.63 1.5-2.4 2.29-4.77-4.15-9.31-8.58-13.4-13.41z"/><path fill="#26616d" d="M187.07 179.98c.55-1.97.66-4.03.72-6.06 3.26 1.77 6.68 3.24 10.23 4.36-.2 1.53-.34 3.07-.43 4.62l-3.02 3.03-3.44-6.3-4.34 5.25.01-4.23.27-.67z"/><path fill="#6d6972" d="M221.35 181.32c2.78-2.99 5.99-5.7 10.03-6.72.52 2.34 1.25 4.64 2.23 6.83-.92-.51-1.85-1-2.78-1.48.04 1.58.15 3.16.32 4.73-.15 1.1-.46 2.22-.27 3.34.91 1.47 2.1 2.73 3.22 4.06l-.78.11a83.75 83.75 0 0 1-2.74-.14c-3.51-3.18-6.64-6.76-9.23-10.73z"/><path fill="#414041" d="M265.66 181.1l3.96-4.27c4.09 4.83 8.63 9.26 13.4 13.41-.85 1.05-1.65 2.14-2.41 3.26-.6-.79-1.22-1.56-1.85-2.31-3.32-4.52-7.49-8.68-13.1-10.09z"/><path fill="#224e57" d="M186.79 184.88l4.34-5.25 3.44 6.3 3.02-3.03c-.12 2.06-.15 4.14-.54 6.17-3.51.73-7.1.36-10.65.34a57.66 57.66 0 0 0 .39-4.53z"/><path fill="#605a55" d="M184.38 189.4c.2-3.06 1.04-6.02 2.42-8.75l-.01 4.23-.39 4.53c-.5 0-1.51-.01-2.02-.01z"/><path fill="#201f20" opacity=".87" d="M265.66 181.1c5.61 1.41 9.78 5.57 13.1 10.09-4.69-2.93-9.04-6.35-13.1-10.09z"/><path fill="#59545c" d="M234.1 192.08c1.16-2.37 2.05-4.86 2.61-7.44l2.09 5.48c1.77-1.71 3.44-3.6 5.58-4.85 2.32-.16 4.59.54 6.85.97-2.2 1.74-4.44 3.46-6.34 5.55l-3.48 3.02-4.58 1.3-3.51-3.92.78-.11z"/><path fill="#5e9aaa" d="M286.2 187.68l2.58-.86-6.07 6.85-1.2 1.17-.9-1.34 2.41-3.26 2.4-2.29.78-.27z"/><path fill="#565656" d="M288.78 186.82l.57 1.77c.21 1.22.95 2.42 2.22 2.76l.58.26-7.01 5.01-2.43-2.95c2.18-2.14 4.16-4.47 6.07-6.85z"/><path fill="#29292a" opacity=".79" d="M289.35 188.59l1.8.09.75.92.12 1.08-.45.67c-1.27-.34-2.01-1.54-2.22-2.76z"/><path fill="#3b393f" opacity=".93" d="M155.94 192.77c2.57-1.76 5.61-1.91 8.51-.9l-1.76 2.9c-1.08 1.86-3.67 1.05-5.44 1.42l-1.31-3.42z"/><path fill="#26999b" opacity=".8" d="M164.45 191.87l2.16-.04.26 3.33-4.18-.39 1.76-2.9z"/><path fill="#90c9d1" d="M230.58 192.05l2.74.14 3.51 3.92c-2.79 2-5.37 4.29-8.07 6.4l-4.11-.96-.61-2.01 2.91-.53c1.63-2.08 2.71-4.51 3.63-6.96m.69 1c-1.46 2.27-1.64 5.03-1.98 7.64 2.56-1.54 5.51-4.99 3.67-8l-1.69.36m-5.52 7.11c.14 1.47.76 1.72 1.88.75-.15-1.47-.78-1.72-1.88-.75z"/><path fill="#517381" d="M241.41 194.81l3.48-3.02-.23 1.8c-1.04.53-2.14.88-3.25 1.22z"/><path fill="#3b3b40" d="M244.66 193.59c2.09-1.25 4.49-1.43 6.85-.95-5.29 5.89-13.29 7.54-20.28 10.48l-2.47-.61c2.7-2.11 5.28-4.4 8.07-6.4 1.51-.48 3.06-.85 4.58-1.3 1.11-.34 2.21-.69 3.25-1.22z"/><path fill="#6497a7" d="M285.14 196.62l7.01-5.01-5.18 6.71-1.83-1.7z"/><path d="M292.15 191.61c2.59 3.36 6.97 3.36 10.81 3.69l.66 2.09c.2 1.04.82 1.71 1.87 2.01 1.32.66 2.57 1.45 3.84 2.22-5.01-.96-10.13-.9-15.21-1.12-2.54-.03-4.93-1-7.15-2.18 1.81-2.17 3.54-4.41 5.18-6.71zm-76.11 39.48l4.78-3.06 2.25 4.73-7.76 6.2 2.56 4.43 8.1-5.53 1.07 1.39.6.76c-2.21 2.09-3.94 5.86-7.45 5.6-3.69-.24-7.18 1.03-10.77 1.6-1.86-.35-3.42-1.52-5.02-2.44l-1.56-1c4.11-1.28 8.73-2.64 10.98-6.67.82-1.97 1.51-4 2.22-6.01z" fill="#4d4c4d"/><path fill="#faffff" d="M231.27 193.05l1.69-.36c1.84 3.01-1.11 6.46-3.67 8 .34-2.61.52-5.37 1.98-7.64z"/><path fill="#1d1d1d" d="M281.51 194.84l1.2-1.17 2.43 2.95 1.83 1.7c2.22 1.18 4.61 2.15 7.15 2.18 5.08.22 10.2.16 15.21 1.12 2.54.44 5.04 1.16 7.37 2.26l2.75 1.27-6.1.89-.51-3.21c-4.8-.25-9.72-.78-14.41.55-2.12 1.32-4.37 2.42-6.8 3.05l-1.27-3.99c-3.43.52-6.92.74-10.33 1.4-3.03.63-5.45 2.73-8.29 3.83-1.69.39-3.45.21-5.16.22-2.56-.34-5.11-.77-7.69-.9l-1.7.5 2.2-4.56c4.06 1.65 8.01 3.92 12.42 4.47 1.69-1.25 2.92-2.98 4.23-4.6l9.71-.83c-1.33-2.42-2.7-4.83-4.24-7.13z"/><path fill="#161615" d="M166.87 195.16l14.66 2.5c1.39 5.57 3.39 11.11 7.28 15.46-.38-3.52-1-7.01-1.53-10.51l-.39-3.53c2.47-.35 4.94.07 7.36.53l.09 9.61c-1.52.87-2.99 1.83-4.45 2.79l1.79.47c3.51 4.15 6.72 8.54 10.18 12.72l-3.04.16-2.79-.35c-.8-.99-1.56-2.01-2.52-2.83-1.5-.38-3.04-.46-4.57-.59l1.87-1.02c-3.45-3.23-6.47-7.02-7.96-11.56-.45-1.21-.87-2.42-1.29-3.64-2.54.16-5.08.3-7.61.62 2.33-.81 4.69-1.49 7.06-2.15l.23-4.94c-4.88-.86-9.84-1.65-14.37-3.74z"/><path fill="#53565d" d="M215.24 197.34l2.49-.1 6.31 2.3.61 2.01 4.11.96 2.47.61-.99.08c-4.98.22-9.31-2.72-14.18-3.22l-.82-2.64z"/><path fill="#171717" opacity=".74" d="M303.62 197.39l.78-.24.96.49.43 1-.3.76c-1.05-.3-1.67-.97-1.87-2.01z"/><path fill="#705443" d="M185.63 200.01l1.26-.93.39 3.53.3 3.3-2.25-1.94c.82-1.05.69-2.02-.4-2.94l.7-1.02z"/><path fill="#121312" d="M210.41 198.72c3.08 1.5 6.1 3.15 9.33 4.31 3.38 1.26 7.02.42 10.5.17l.99-.08-.5 6.27c8.83-.5 17.67-.87 26.46-1.9-2.91.96-5.88 1.78-8.94 2.1l-13.4.14c-3.31.22-6.86-.35-9.97 1-.5 1.62-.76 3.31-1.06 4.98-2.36.8-4.85 1.59-6.7 3.34-1.78 1.8-2.71 4.21-3.79 6.44l-.33-.52-1.07-.77c.06-4.2.7-8.35 1.76-12.4l2.77.92 1.49.86c-.41-1.7-.67-3.46-1.47-5.02-1.71-1.95-4.37-2.61-6.81-3.14l.74-6.7z"/><path fill="#555455" d="M196.96 201.92c2.59-.75 5.21-1.37 7.86-1.84l3.19 5.24c-3.39.74-6.75 1.62-10.08 2.6l-.97-6z"/><path fill="#d8ffff" d="M225.75 200.16c1.1-.97 1.73-.72 1.88.75-1.12.97-1.74.72-1.88-.75z"/><path fill="#3f322b" opacity=".67" d="M184.93 201.03c1.09.92 1.22 1.89.4 2.94-1.15-.85-1.28-1.83-.4-2.94z"/><path fill="#48484f" d="M318.82 201.21c3.6-.19 7.41-.06 10.17 2.58 2.15-1.29 4.36-2.88 7.01-2.63 2.39-.18 4.38 1.32 6.33 2.47l3.39-1.32c.54.87 1.15 1.7 1.81 2.49 1.73.31 3.49.3 5.25.36-1.33.63-2.68 1.2-4.02 1.78l-.61 2.07c-1.2.14-2.38.35-3.57.53-7.35.96-14.78.84-22.14.14l-1.08-.03c3.88-.79 7.69-1.87 11.56-2.71 1.97-.43 3.9-1.04 5.83-1.63l.46-2.94c-1.77.15-3.53.31-5.28.59-2.12 2.14-5.07 2.79-7.94 3.19l.31-3.79-.78.21c-1.98.17-3.97.2-5.95.08l-.37-.7-.38-.74z"/><path fill="#818189" d="M345.25 201.59l7.93-.32-.1 1.08-.3 2.81c-1.76-.06-3.52-.05-5.25-.36-.66-.79-1.27-1.62-1.81-2.49l-.47-.72z"/><path fill="#59585d" d="M280.03 203.84c3.41-.66 6.9-.88 10.33-1.4l1.27 3.99c2.43-.63 4.68-1.73 6.8-3.05l-.42 2.63c5.1.34 10.24.57 15.34.03 2.04-.25 4.07-.57 6.1-.89l-2.75-1.27 2.5-1.93.37.7 1.06 2.14 3.76.09 1.13-2.31.78-.21-.31 3.79-.97 1.44c2.63-.16 5.28-.29 7.9-.65-3.87.84-7.68 1.92-11.56 2.71l-3.68.18-6.42.29c-2.82.05-5.65.04-8.46-.05l-1.8-.12.2 3.78 2.74.32 9.16 1.09.04 1.03c-5.32.17-10.69-.71-15.97.26l-1.32.23-.11-8.54a73.89 73.89 0 0 0-3.64-.18c-1.27.62-2.5 1.31-3.73 2-3.66-.64-7.38-.59-11.07-.4l-1.52-.71-2.2.78c-3.41 1.01-6.99 1.19-10.51 1.45l-2.91.17.7-2.09c1.9-.44 3.8-.9 5.72-1.25 1.71-.01 3.47.17 5.16-.22 2.84-1.1 5.26-3.2 8.29-3.83z"/><path fill="#8e8f9a" d="M319.57 202.65c1.98.12 3.97.09 5.95-.08l-1.13 2.31-3.76-.09-1.06-2.14z"/><path fill="#8b8b96" d="M333.93 202.96l5.28-.59-.46 2.94-5.83 1.63c-2.62.36-5.27.49-7.9.65l.97-1.44c2.87-.4 5.82-1.05 7.94-3.19z"/><path fill="#404147" d="M353.08 202.35c3.32 1.96 7.29 1.68 10.86 2.78.88 1.18 1.55 2.49 2.28 3.77-6.01.82-12.05.21-18.07.11l.61-2.07 4.02-1.78.3-2.81z"/><path fill="#fefdfe" d="M298.43 203.38c4.69-1.33 9.61-.8 14.41-.55l.51 3.21c-5.1.54-10.24.31-15.34-.03l.42-2.63z"/><path fill="#403e3f" d="M173.95 205.99l7.61-.62 1.29 3.64c-3.76.76-8.11 2.86-11.54.09l-1.95-1.77c1.51-.51 3.02-1.05 4.59-1.34z"/><path fill="#548e9e" d="M208.01 205.32l1.66.1c2.44.53 5.1 1.19 6.81 3.14.8 1.56 1.06 3.32 1.47 5.02l-1.49-.86c-2.16-2.43-4.69-4.76-8.15-4.81-4.08.59-8.02 1.86-11.91 3.21-1.55.51-3.13.98-4.72 1.36-.45-.11-1.34-.35-1.79-.47 1.46-.96 2.93-1.92 4.45-2.79 1.18-.48 2.38-.91 3.59-1.3 3.33-.98 6.69-1.86 10.08-2.6z"/><path fill="#43444d" d="M257.19 207.49l1.7-.5 1.97 2.15-.7 2.09-.97 3.12-.74 2.74c-2-.85-3.9-1.9-5.85-2.84l3.06-.26.09-4.17c-2.57.73-5.23 1.56-7.07 3.63l-1.25 1.11-6.23-.87c2.6 3.13 5.36 6.14 8.31 8.95l-1.71 2.11-1.59 1.63c-1.92-3.3-3.78-6.65-6.04-9.73l-1.51-1.74c-4.96-.34-9.91.41-14.84.8.3-1.67.56-3.36 1.06-4.98 3.11-1.35 6.66-.78 9.97-1l.26 3.77c4.73.21 9.36-1.03 13.14-3.91 3.06-.32 6.03-1.14 8.94-2.1m-31.41 3.22l.04 3.59H232l.07-3.59h-6.29z"/><path fill="#6f6e70" d="M258.89 206.99c2.58.13 5.13.56 7.69.9l-5.72 1.25-1.97-2.15z"/><path fill="#151615" d="M152.69 210.17c5.43-1.18 11.04-.91 16.48-2.01-.54 2.56-1.28 5.13-1.22 7.77.15 3.04 1.89 5.71 3.87 7.91-5.79.36-11.6 1.32-17.39.47-3.75-.43-7.34-1.61-10.82-3.01 1.05.07 2.11.16 3.16.28 6.18.94 12.38 3.23 18.65 1.37l-4.34-1.35c-1.8-1.69-4.67-3.55-4-6.41.77-1.98 2.18-3.6 3.45-5.27l-2.2.19-4.63.06h-1.01z"/><path fill="#599fb1" d="M169.17 208.16l.19-.83 1.95 1.77c-.79 3.05-2.13 6.33-.96 9.46 1.23 2.82 3.63 4.88 5.66 7.11l-4.19-1.83c-1.98-2.2-3.72-4.87-3.87-7.91-.06-2.64.68-5.21 1.22-7.77z"/><path fill="#605e60" d="M196.4 211.12c3.89-1.35 7.83-2.62 11.91-3.21-.28 2.42-.33 4.91-1.19 7.22-.97 1.9-3.43 1.57-5.14 1.1-2.61-.65-3.99-3.17-5.58-5.11z"/><path fill="#2b2b2b" d="M208.31 207.91c3.46.05 5.99 2.38 8.15 4.81l-2.77-.92c-1.06 4.05-1.7 8.2-1.76 12.4-4.2 1.65-8.69 2.28-13.11 1.16l3.04-.16c-3.46-4.18-6.67-8.57-10.18-12.72 1.59-.38 3.17-.85 4.72-1.36 1.59 1.94 2.97 4.46 5.58 5.11 1.71.47 4.17.8 5.14-1.1.86-2.31.91-4.8 1.19-7.22z"/><path fill="#89888f" d="M273.58 209.61l2.2-.78 1.52.71-3.72.07z"/><path fill="#aeadb6" d="M288.37 209.94l3.73-2 3.38 2.75-7.11-.75z"/><path fill="#706f70" d="M292.1 207.94l3.64.18.11 8.54-3.98.67c-5.8.67-11.68.06-17.46 1.09l-2.48-2.68c-2.34.76-4.65 1.64-7.04 2.2-2.17-.11-4.32-.4-6.44-.85l.74-2.74 3.44.36.44-3.65c3.52-.26 7.1-.44 10.51-1.45l3.72-.07c3.69-.19 7.41-.24 11.07.4 2.35.33 4.73.56 7.11.75l-3.38-2.75z"/><path fill="#75767e" opacity=".98" d="M344.58 209.54l3.57-.53c6.02.1 12.06.71 18.07-.11l1.22 4.55c-8.88.49-17.76.25-26.65.17l17.57-.66c2.21-.02 4.43.02 6.65.04l.13-2.94-20.56-.52z"/><path fill="#575557" d="M170.35 218.56c-1.17-3.13.17-6.41.96-9.46 3.43 2.77 7.78.67 11.54-.09 1.49 4.54 4.51 8.33 7.96 11.56l-1.87 1.02c-3.87 2.51-8.46 3.33-12.93 4.08-2.03-2.23-4.43-4.29-5.66-7.11z"/><path fill="#c0c3d3" d="M234.85 209.73l13.4-.14c-3.78 2.88-8.41 4.12-13.14 3.91l-.26-3.77z"/><path fill="#3e3f41" d="M153.7 210.17l4.63-.06c-2.24 2.3-5.27 3.35-8.42 3.58 0 1.62-1.28 3.82.45 4.92 3.23 1.97 7.15 2.01 10.72 2.99l4.34 1.35c-6.27 1.86-12.47-.43-18.65-1.37l-.46-8.79c-1.17.5-2.34 1-3.48 1.55l.65-2.52c3.49.03 6.89-.71 10.22-1.65z"/><path fill="#676466" d="M158.33 210.11l2.2-.19c-1.27 1.67-2.68 3.29-3.45 5.27-.67 2.86 2.2 4.72 4 6.41-3.57-.98-7.49-1.02-10.72-2.99-1.73-1.1-.45-3.3-.45-4.92 3.15-.23 6.18-1.28 8.42-3.58z"/><path fill="#9fa0ab" d="M248.68 213.45c1.84-2.07 4.5-2.9 7.07-3.63l-.09 4.17-3.06.26-3.92-.8z"/><path fill="#a3a5b2" d="M301 209.95l1.8.12 1.14 3.98-2.74-.32-.2-3.78z"/><path fill="#85868f" d="M302.8 210.07l8.46.05-5.3.75-.08 3.03 14.38.43 2.1-.05-7.54 1.06-1.72-.2-9.16-1.09-1.14-3.98z"/><path fill="#c2c5d6" d="M311.26 210.12l6.42-.29 2.58 4.5c-4.79-.05-9.59-.3-14.38-.43l.08-3.03 5.3-.75z"/><path fill="#d3d6e5" d="M317.68 209.83l3.68-.18 1.08.03.84 3.07c6.55-1.24 13.23-1 19.86-1.09 5.08-.04 10.61-1.64 15.22 1.3l-17.57.66-7.15.1c-3.77-.01-7.53.17-11.28.56l-2.1.05-2.58-4.5z"/><path fill="#c5c9da" d="M322.44 209.68c7.36.7 14.79.82 22.14-.14l20.56.52-.13 2.94-6.65-.04c-4.61-2.94-10.14-1.34-15.22-1.3-6.63.09-13.31-.15-19.86 1.09l-.84-3.07z"/><path fill="#a4a7b7" d="M225.78 210.71h6.29l-.07 3.59h-6.18l-.04-3.59z"/><path fill="#999ca9" d="M259.19 214.35l.97-3.12 2.91-.17-.44 3.65-3.44-.36z"/><path fill="#428495" opacity=".83" d="M140.01 216.07c.05-2.07 2.17-2.99 3.47-4.25l-.65 2.52c-.59 2.25-.3 4.59-.2 6.89-1.12-1.55-3.01-3.02-2.62-5.16z"/><path fill="#4b4f53" d="M142.83 214.34l3.48-1.55.46 8.79-3.16-.28-.98-.07c-.1-2.3-.39-4.64.2-6.89z"/><path fill="#3b3c43" opacity=".97" d="M340.79 213.62c8.89.08 17.77.32 26.65-.17-4.4 2.32-9.48 2.95-14.39 2.85-2.85-.55-5.73 0-8.2 1.53 2.69.57 5.4 1.09 8.15 1.3-1.63.26-3.25.72-4.91.59-2.04-.55-3.88-1.61-5.89-2.24-1.05.42-1.97 1.08-2.92 1.67l-.93-2.21-4.71-3.22 7.15-.1z"/><path fill="#5d737d" d="M241.2 213.69l6.23.87 2.08 8.08c-2.95-2.81-5.71-5.82-8.31-8.95z"/><path fill="#212121" d="M248.68 213.45l3.92.8 5.85 2.84c2.12.45 4.27.74 6.44.85-3.78.75-7.66.83-11.41 1.65-2.14 1.42-3.72 3.52-5.68 5.16a87.41 87.41 0 0 0 1.71-2.11l-2.08-8.08 1.25-1.11z"/><path fill="#57585b" d="M322.36 214.28c3.75-.39 7.51-.57 11.28-.56l4.71 3.22.93 2.21-5.81-.29-.74-2.85-.29-.97c-3.42-.54-6.86.1-10.14 1.04l4.04.17-1.59 2.87-5.87.32-1.76-1.74-2.3-2.36c2.52-.27 5.02-.73 7.54-1.06z"/><path fill="#96959d" d="M297.17 216.43c5.28-.97 10.65-.09 15.97-.26l.04.99c-5.17-.17-10.33.28-15.41 1.18l-.6-1.91z"/><path fill="#262628" opacity=".41" d="M313.1 215.14l1.72.2 2.3 2.36c-4.87 3.79-11.3 3.29-17.09 2.92-2.86-.68-5.44-2.2-8.16-3.29l3.98-.67 1.32-.23.6 1.91.36 1.02c4.99.75 10.1.66 15.07-.2l-.02-2-.04-.99-.04-1.03z"/><path fill="#888993" d="M322.3 216.08c3.28-.94 6.72-1.58 10.14-1.04l.29.97c-2.13.13-4.26.25-6.39.24l-4.04-.17z"/><path fill="#2f2f32" opacity=".62" d="M326.34 216.25l6.39-.24.74 2.85 5.81.29c-1.7.29-3.41.72-5.14.61-1.8-.56-3.39-1.58-5.01-2.48-1.46.83-2.89 1.74-4.46 2.34-1.92.36-3.87.01-5.79-.18l5.87-.32 1.59-2.87z"/><path fill="#54545c" d="M344.85 217.83c2.47-1.53 5.35-2.08 8.2-1.53l1.9 1.43-1.95 1.4c-2.75-.21-5.46-.73-8.15-1.3z"/><path fill="#5c9bac" d="M240.17 216.65c2.26 3.08 4.12 6.43 6.04 9.73l-1.74-.89-1.49-.76a43.32 43.32 0 0 1-2.13-3.14c-.36-1.08-.68-2.17-.95-3.27l.27-1.67z"/><path fill="#fefdfe" d="M297.77 218.34c5.08-.9 10.24-1.35 15.41-1.18l.02 2c-4.97.86-10.08.95-15.07.2l-.36-1.02z"/><path fill="#333233" d="M222.69 226.95c5.59-3.16 11.25-6.21 17.21-8.63.27 1.1.59 2.19.95 3.27-5.44 2.97-10.61 6.38-15.82 9.72l-2.34-4.36z"/><path fill="#42899b" d="M198.82 225.36c4.42 1.12 8.91.49 13.11-1.16l1.07.77c-2.25 1.25-4.52 2.68-7.12 3.02-3.24.37-6.5-.29-9.6-1.22l-.25-1.76 2.79.35z"/><path fill="#272627" d="M205.88 227.99c2.6-.34 4.87-1.77 7.12-3.02l.33.52 2.71 5.6-2.22 6.01c-4.24 2.4-8.98 4.03-13.92 3.34-1.98-4.31-3.39-8.91-3.62-13.67 3.1.93 6.36 1.59 9.6 1.22z"/><path fill="#313031" d="M227.62 236.25c4.93-4.08 9.7-8.46 15.36-11.52l1.49.76c-4.93 4.74-9.98 9.39-15.7 13.16l-1.15-2.4z"/><path fill="#65b0c3" opacity=".97" d="M220.82 228.03l1.87-1.08 2.34 4.36 2.59 4.94 1.15 2.4.42.93-2.15-.33-1.07-1.39c-1.07-1.64-2.01-3.36-2.9-5.1l-2.25-4.73z"/><path fill="#5695a6" opacity=".98" d="M199.9 240.44c4.94.69 9.68-.94 13.92-3.34-2.25 4.03-6.87 5.39-10.98 6.67l-2.94-3.33z"/><path fill="#2d2c2c" opacity=".97" d="M204.4 244.77c1.6.92 3.16 2.09 5.02 2.44 3.59-.57 7.08-1.84 10.77-1.6l-1.06 2.72c-4.85 1.06-9.97 1.44-14.58-.79l-.15-2.77z"/><path fill="#0c0c0c" opacity=".63" d="M203.78 247.27l.77.27c4.61 2.23 9.73 1.85 14.58.79-3.15 1.26-6.41 3.03-9.92 2.37-2.3-.15-3.8-2.06-5.43-3.43z"/></svg>