<svg xmlns="http://www.w3.org/2000/svg" width="512" height="512" viewBox="0 0 384 384" xmlns:v="https://vecta.io/nano"><path fill="#181d1f" opacity=".63" d="M244.98 148.17c4.36-2.07 9.3-2.13 14.02-1.92 3 .04 5.83 1.74 7.45 4.24.55 2.08.43 4.26.54 6.39-6.01 4.1-13.47 2.73-20.27 2.62 3.68-.85 7.47-.83 11.22-1l1.26-.26c2.79-.86 5.79-1.73 7.55-4.26l-1.3-3.47c-2.84-1.06-5.67-2.17-8.57-3.03l-.73-.19c-3.52.17-7.01.57-10.52.84l-.65.04z"/><path fill="#403f40" d="M245.63 148.13c3.51-.27 7-.67 10.52-.84-.41.1-1.22.32-1.62.43-3.04.81-6.14 1.39-9.23 1.91 2.06 2.4 3.48 5.25 4.39 8.27l6.36-.72c.59.49 1.22.93 1.89 1.32-3.75.17-7.54.15-11.22 1l-2.23 1.48 5.2 3.14a14.81 14.81 0 0 0 9.49 3c4.46-.08 7.68 3.45 10.62 6.32l-.74-.38c-7.27-3.92-15.64-4.68-23.31-7.5l-3.22-4.03-.26 1.84-1.38-2.49c1.4-.37 2.78-.79 4.18-1.2-.17-1.99 0-4.07-.71-5.96-.81-1.22-1.91-2.19-2.97-3.17l-1.64-1.42 5.88-1z"/><path fill="#467482" d="M256.15 147.29l.73.19c.58 1.48-.86 3.01-2.37 2.6l.02-2.36 1.62-.43z"/><path fill="#434243" d="M256.88 147.48c2.9.86 5.73 1.97 8.57 3.03l1.3 3.47c-2.32-1.74-5.03-2.81-7.92-3.01l-1.39 4.95-1.48.66-1.45-6.5c1.51.41 2.95-1.12 2.37-2.6z"/><path fill="#565d62" d="M245.3 149.63l9.23-1.91-.02 2.36 1.45 6.5.09.6-6.36.72c-.91-3.02-2.33-5.87-4.39-8.27m4.6.94c.31 2.25.74 4.49 1.31 6.7.89-1.14 1.93-2.42 1.54-3.97.1-1.7-1.7-2.06-2.85-2.73z"/><path fill="#161717" d="M223.99 150.48c5.28.07 10.6-.14 15.76-1.35l1.64 1.42-5.59.28c1.4 1.47 2.92 2.88 4.03 4.6.28 1.92-.08 3.86-.26 5.77l-1.8.38-1.53-1.11c.76-2.24.26-4.52-1.83-5.81-2.75-2.8-6.49-4.33-10.42-4.18z"/><path fill="#3b636f" opacity=".96" d="M222.21 152.25l1.78-1.77c3.93-.15 7.67 1.38 10.42 4.18-1.52-.63-3.08-1.19-4.62-1.76l-.64 2.78c-2.04-1.62-4.11-3.63-6.94-3.43z"/><path d="M235.8 150.83l5.59-.28c1.06.98 2.16 1.95 2.97 3.17.71 1.89.54 3.97.71 5.96l-4.18 1.2-1.32.32c.18-1.91.54-3.85.26-5.77-1.11-1.72-2.63-3.13-4.03-4.6zm-42.52 60.11l6.99-1.36c.21 1.74.49 3.48.45 5.23-.77 1.13-2.1 1.94-3.47 1.35-2.34-.63-2.81-3.42-3.97-5.22z" fill="#636163"/><path fill="#3c3c3d" d="M249.9 150.57c1.15.67 2.95 1.03 2.85 2.73.39 1.55-.65 2.83-1.54 3.97-.57-2.21-1-4.45-1.31-6.7z"/><path fill="#575556" d="M258.83 150.97c2.89.2 5.6 1.27 7.92 3.01-1.76 2.53-4.76 3.4-7.55 4.26l-1.76-2.32 1.39-4.95z"/><path d="M203.29 154.15c5.06-4.26 12.18-2.44 18.12-1.59l1.52.58c2.04 2.97 3.93 6.21 4.1 9.91l-2.79-.18c-1.51-1.81-2.9-3.95-5.18-4.87-4.11-1.86-8.74-1.76-13.11-1.1l-2.66-2.75zm-20.47 46.05l9.04.7-1.55 8.52-4.73 2.31 3.72.08c1.88 3.82 4.35 7.73 8.43 9.49 1.93 1.08 4.89.28 5.55-1.96.94-3.14.7-6.46.8-9.69 1.67.64 3.49 1.16 4.81 2.44.46 1.08.75 2.22 1.07 3.36-.85 1.02-1.75 2.01-2.44 3.15-.26 1.58-.08 3.19-.02 4.79-1.71 1.41-3.37 3.14-5.66 3.51-3.88.68-7.85-.06-11.56-1.24-1.19-.83-2.3-1.76-3.44-2.65l-.58-3.73c-.59-3.32-1.48-6.57-2.3-9.84-.42-1.8-.75-3.62-.98-5.45a53.36 53.36 0 0 1-.16-3.79z" fill="#1f1f1f"/><path fill="#272627" d="M222.21 152.25c2.83-.2 4.9 1.81 6.94 3.43 2.27 1.74 4.73 3.19 7.09 4.79l1.53 1.11 1.8-.38 1.32-.32 1.38 2.49.12.82c-4.67.12-9.41-.16-13.81-1.84-.38-1.89-.54-3.88-1.48-5.6-1.05-1.54-2.64-2.6-4.17-3.61l-1.52-.58.8-.31z"/><path fill="#72b0bd" d="M222.93 153.14c1.53 1.01 3.12 2.07 4.17 3.61.94 1.72 1.1 3.71 1.48 5.6.59 2.46.3 6.2 3.64 6.5-.96 1.51-1.81 3.1-2.99 4.45-1.05.52-2.24.59-3.36.84-1.11-3.27-2.55-6.42-3.64-9.69 1.57-.24 3.15-.36 4.72-.55l.08-.85c-.17-3.7-2.06-6.94-4.1-9.91m2.06 12.5c.76 2.71.05 7.93 4.18 7.64.05-2.52-.46-5.01-1.11-7.43l-3.07-.21z"/><path fill="#393d3f" d="M229.15 155.68l.64-2.78 4.62 1.76c2.09 1.29 2.59 3.57 1.83 5.81l-7.09-4.79z"/><path fill="#151515" d="M197.96 156.86c1.61-.9 3.53-2.25 5.39-1.15l.05.77c-.82 2.55-1.64 5.44-3.98 7.01-2.98 1.36-6.37 1-9.55 1.07 1.82-3.36 4.81-5.83 8.09-7.7z"/><path fill="#608e9b" d="M203.35 155.71l-.06-1.56 2.66 2.75 2.34 2.81c1.17 2.09 1.74 4.43 1.95 6.81-3.98-1.84-5.61-6.14-6.84-10.04l-.05-.77z"/><path fill="#3f3d3f" d="M205.95 156.9c4.37-.66 9-.76 13.11 1.1 2.28.92 3.67 3.06 5.18 4.87-5.37-.83-10.38-3.5-15.95-3.16-.75-.97-1.54-1.9-2.34-2.81z"/><path fill="#4a7784" d="M255.96 156.58l1.48-.66 1.76 2.32-1.26.26c-.67-.39-1.3-.83-1.89-1.32l-.09-.6z"/><path fill="#434147" d="M199.42 163.49c2.34-1.57 3.16-4.46 3.98-7.01 1.23 3.9 2.86 8.2 6.84 10.04 3.66.81 7.44.62 11.15.28-5.38 5.45-8.78 12.37-12.2 19.12 1.68 3.05 3.14 6.23 4.38 9.49l3.6-2.29c1.86 2.86 3.31 5.96 4.59 9.13-2.95-.13-5.89-.11-8.84-.15 4.05 1.37 8.04 2.91 12.17 4.03-3.99.84-8.09.78-12.07-.01-2.5-2.31-5.26-4.61-8.85-4.6l-.48 5.75-2.58-.18-4.18-4.8-4.07 1.34-.99 5.14-1.56.65 1.55-8.52c-3-.38-6.02-.59-9.04-.7-6.34.06-12.26-2.37-18-4.79l.2-3.14c6.02-.18 12.06.31 18.08-.26.33-4.82.02-9.69.76-14.48l.29 13.11 1.52.43c2.27.23 4.56.26 6.84.52 3.88.96 7.79 1.85 11.79 2.12-1.15-2.21-2.57-4.34-3.19-6.78-.12-4.11 3.36-6.98 6.02-9.62-.93-1.29-1.36-3.33-3.1-3.73-2.97-.63-6.03-.36-9.04-.44-3.55-.03-7.1-.24-10.62-.65-3.03-.38-5.99-1.14-9-1.66-2.81-.49-5.65-.79-8.49-.94l1.13-2.8c7.07-2.17 14.5-2.66 21.86-2.53 3.18-.07 6.57.29 9.55-1.07z"/><path fill="#56555c" d="M208.29 159.71c5.57-.34 10.58 2.33 15.95 3.16l2.79.18-.08.85c-1.57.19-3.15.31-4.72.55 1.09 3.27 2.53 6.42 3.64 9.69 1.12-.25 2.31-.32 3.36-.84 1.18-1.35 2.03-2.94 2.99-4.45 2.54.77 5 1.88 7 3.67-.23 1.55-.52 3.59.92 4.67 1.63 1.4 3.4 2.62 5.19 3.81l.89 2.43-.16.83c-2.38-.28-4.87-.23-7.11-1.17-2.11-1.57-3.35-3.97-4.79-6.1-1.22 2.48-2.51 4.92-3.89 7.31-.06-3.11-.23-6.21-.37-9.31l-3.68.1-1.23 2.47c-3.25 1.84-6.92 3.47-9.04 6.7-.6 1.6.54 3.1 1.64 4.15 1.94 1.59 4.52 1.97 6.88 2.62.14 1.29.32 2.58.5 3.86l3.24.67c.72-2.21 1.39-4.44 1.87-6.71l3.98 3.93 3.14-4.06c2.78-.21 5.55-.49 8.32-.83l.56 3.14-6.02 1.03 1.32 4.26-1.33.03c-2.03-.66-4.53.88-3.05 3.1-2.74 1.47-5.76 2.27-8.78 2.89l-.26-6.46-4.57.13-.8 5.42-.15 1.02-.68-.2c-1.28-3.17-2.73-6.27-4.59-9.13l-3.6 2.29c-1.24-3.26-2.7-6.44-4.38-9.49 3.42-6.75 6.82-13.67 12.2-19.12-3.71.34-7.49.53-11.15-.28-.21-2.38-.78-4.72-1.95-6.81z"/><path fill="#414043" d="M228.58 162.35c4.4 1.68 9.14 1.96 13.81 1.84.48 3.03.97 6.06 1.7 9.04 1.55.69 3.14 1.3 4.72 1.92-.7 2.51-1.43 5.01-2.3 7.47l-.29.81c-.23-.6-.67-1.82-.89-2.43-1.79-1.19-3.56-2.41-5.19-3.81 2.33-1.2.75-3.74-.92-4.67-2-1.79-4.46-2.9-7-3.67-3.34-.3-3.05-4.04-3.64-6.5z"/><path fill="#507e8d" d="M242.27 163.37l.26-1.84 3.22 4.03-1.66 7.67c-.73-2.98-1.22-6.01-1.7-9.04l-.12-.82z"/><path fill="#191919" opacity=".9" d="M249.69 164.12c3.3-.4 8.06-.85 9.49 3a14.81 14.81 0 0 1-9.49-3z"/><path fill="#141315" opacity=".47" d="M155.26 167.32c1.35-2.15 4.04-1.99 6.24-2.28l1.48 2.04-4.03-.24-.32 3.25 3.71.78a26.98 26.98 0 0 1-3.18.82c-1.9-.62-3.82-2.25-3.9-4.37z"/><path fill="#fcffff" d="M224.99 165.64l3.07.21c.65 2.42 1.16 4.91 1.11 7.43-4.13.29-3.42-4.93-4.18-7.64z"/><path fill="#545354" d="M245.75 165.56c7.67 2.82 16.04 3.58 23.31 7.5l-.97 1.45c-4.09-1.39-7.99-3.57-12.43-3.68.39 5.11 5.01 7.76 8.7 10.49-.58 1.27-1.13 2.56-1.68 3.85-2.86-.98-5.72-1.98-8.51-3.12.21-3.01.2-6.03 0-9.04l-5.36 2.14c-1.58-.62-3.17-1.23-4.72-1.92l1.66-7.67m1.58 2.96v3.99l3.55.48-.03-4.88-3.52.41z"/><path fill="#37353a" opacity=".93" d="M158.95 166.84l4.03.24.45 2.66 3.45.15c2.84.15 5.68.45 8.49.94-4.31.65-8.71.74-13.03.04-1.24-.24-2.48-.51-3.71-.78l.32-3.25z"/><path fill="#258284" opacity=".77" d="M162.98 167.08l5.03.01-1.13 2.8-3.45-.15-.45-2.66z"/><path fill="#6d6b6d" d="M247.33 168.52l3.52-.41.03 4.88-3.55-.48v-3.99z"/><path fill="#7d7b7d" d="M255.66 170.83c4.44.11 8.34 2.29 12.43 3.68-1.4 2.18-2.63 4.46-3.73 6.81-3.69-2.73-8.31-5.38-8.7-10.49z"/><path fill="#242426" d="M184.37 172.49c3.52.41 7.07.62 10.62.65l2.34 2.59-2.25 2.11-.63.6c-2.71-1.73-5.49-3.35-8.32-4.87l-1.95 3.41.19-4.49z"/><path fill="#363639" d="M194.99 173.14c3.01.08 6.07-.19 9.04.44 1.74.4 2.17 2.44 3.1 3.73-2.66 2.64-6.14 5.51-6.02 9.62.62 2.44 2.04 4.57 3.19 6.78-4-.27-7.91-1.16-11.79-2.12-.76-3.88.07-7.77 1.39-11.42l.55-1.73.63-.6 1.64 10.31c1.14-4.02 1.93-8.33.61-12.42a116.2 116.2 0 0 0-2.34-2.59z"/><path fill="#5e93a5" d="M240.14 177.19c-1.44-1.08-1.15-3.12-.92-4.67 1.67.93 3.25 3.47.92 4.67z"/><path fill="#272727" d="M248.81 175.15l5.36-2.14c.2 3.01.21 6.03 0 9.04l-5.31-2.22-2.35 2.79 2.3-7.47z"/><path fill="#6aaec1" d="M269.06 173.06l.74.38.72.39-.33.74-3.74 7.49-1.68 3.85-2.09-.74 1.68-3.85c1.1-2.35 2.33-4.63 3.73-6.81l.97-1.45z"/><path fill="#316f7d" d="M184.18 176.98l1.95-3.41 8.32 4.87-.55 1.73-6.97-2.42-3.07-.22.32-.55z"/><path fill="#8fcbd4" d="M226.22 175.09l3.68-.1.37 9.31-.19 4.55c-.48 2.27-1.15 4.5-1.87 6.71l-.48-.93 1.21-7.69.27-2.7c.15-3.08.53-6.51-1.65-9.03l-2.22 4.97-.35-2.62 1.23-2.47z"/><path fill="#605e60" d="M270.19 174.57c6.86 1.67 11.48 7.71 18.18 9.85-2.08 2-3.9 4.28-5.25 6.84-.85-1.53-1.93-2.98-3.57-3.7-4.23-2.14-8.72-3.71-13.1-5.5 1.18-2.53 2.53-4.97 3.74-7.49z"/><path fill="#474648" d="M195.08 177.84l2.25-2.11c1.32 4.09.53 8.4-.61 12.42l-1.64-10.31z"/><path d="M227.56 175.21c2.18 2.52 1.8 5.95 1.65 9.03l-4.2-2.55.33-1.51 2.22-4.97zm-1.93 11.01l3.31.72-1.21 7.69c-1.78-2.46-2.13-5.46-2.1-8.41z" fill="#faffff"/><path fill="#22525d" d="M183.86 177.53l3.07.22c.9 2.56 2.13 5.13 2.13 7.9-.7 2.04-2.16 3.68-3.39 5.42l-1.52-.43c-.22-4.36-.14-8.74-.29-13.11z"/><path fill="#27606c" d="M186.93 177.75c2.37.66 4.66 1.56 6.97 2.42-1.32 3.65-2.15 7.54-1.39 11.42-2.28-.26-4.57-.29-6.84-.52 1.23-1.74 2.69-3.38 3.39-5.42 0-2.77-1.23-5.34-2.13-7.9z"/><path fill="#4b484e" d="M230.27 184.3l3.89-7.31c1.44 2.13 2.68 4.53 4.79 6.1 2.24.94 4.73.89 7.11 1.17l-.54 3.63-8.32.83-3.14 4.06-3.98-3.93.19-4.55z"/><path fill="#6d6972" d="M215.95 184.26c2.12-3.23 5.79-4.86 9.04-6.7l.35 2.62-.33 1.51c-.78 3.05-.91 6.22-.54 9.34-2.36-.65-4.94-1.03-6.88-2.62-1.1-1.05-2.24-2.55-1.64-4.15z"/><path fill="#c7eef1" d="M224.47 191.03c-.37-3.12-.24-6.29.54-9.34l4.2 2.55-.27 2.7-3.31-.72c-.03 2.95.32 5.95 2.1 8.41l.48.93-3.24-.67-.5-3.86z"/><path fill="#383738" d="M266.45 182.06c4.38 1.79 8.87 3.36 13.1 5.5 1.64.72 2.72 2.17 3.57 3.7l-.52 1.95-17.83-7.3 1.68-3.85z"/><path fill="#60a5b8" d="M288.37 184.42l.64-.63c-1.42 3.48-3.15 6.82-4.96 10.11l-.72-.31-.73-.38.52-1.95c1.35-2.56 3.17-4.84 5.25-6.84z"/><path fill="#504f50" d="M289.01 183.79l4.24 1.98c-1.73 2.72-3.32 5.52-4.7 8.43l6.45-4.36 6.81 1.7-1.77 4.65-3.25.54c-1.73.2-3.06 1.38-4.35 2.43-1.41-3.44-5.37-3.96-8.39-5.26 1.81-3.29 3.54-6.63 4.96-10.11z"/><path fill="#5b828e" opacity=".94" d="M293.25 185.77l1.14 2.76.61 1.31-6.45 4.36c1.38-2.91 2.97-5.71 4.7-8.43z"/><path fill="#2e313b" d="M294.39 188.53c4.18.4 8.39.47 12.59.63l-.59.58-1.74 1.73 2.4 1.83-.22 2.99a51.3 51.3 0 0 0-6.79-.1l1.77-4.65c-2.28-.52-4.57-1.03-6.81-1.7l-.61-1.31z"/><path fill="#151416" opacity=".49" d="M154.89 191.83c1.18-1.86 3.72-1.35 5.6-1.7l1.33 1.46c-2.17.32-4.24 1.07-6.04 2.34l5.45 1.54c-2.36.86-4.87.68-7.3.36.28-1.34.5-2.7.96-4z"/><path fill="#444549" d="M304.65 191.47l1.74-1.73c3.03 1.58 6.21 3 9.64 3.42 2.29.26 4.53.93 6.42 2.32l2.92-2.04 2.88 2.8 4.61-.6-.75-3.33-6.02 1.01c.98-.78 1.88-1.93 3.25-1.96 2.26-.46 4.09 1.17 5.9 2.24l2.17-1.36c2.7 1.56 5.58 2.77 8.52 3.8l-.96-5.29c-1.88.2-3.75.41-5.6.77l-.24-1.47c4.72-.05 9.11 1.85 13.74 2.39 2.63.23 5.04 1.34 7.36 2.52l-.31.82-1.36 3.63c-4.02-.8-8.14-1.41-12.24-.8-6.35.87-12.68 1.93-19.06 2.58-3.2.2-6.39-.05-9.57-.35 3.7-.99 7.39-2.03 10.93-3.5-2.87-.29-5.75-.5-8.63-.36l-.95-2.51-7.17.73c1.08.71 2.16 1.42 3.28 2.08l2.77 1.73-6.86.23 4.08 1.72-6.34 1.86-5.43.79-2.38-1.8c2.4-.29 4.77-.74 7.13-1.24.58-1.01 1.19-2 1.8-2.99l1.11-1.74c-1.34-.83-2.68-1.65-3.98-2.54-.82-.59-1.61-1.21-2.4-1.83z"/><path fill="#444248" opacity=".96" d="M240.06 192.06l6.02-1.03c-.11 1.76-.36 3.5-.73 5.23l-3.97.06-1.32-4.26z"/><path fill="#7d7e86" d="M339.37 191.52c1.85-.36 3.72-.57 5.6-.77l.96 5.29c-2.94-1.03-5.82-2.24-8.52-3.8l1.96-.72z"/><path fill="#3b3a3f" opacity=".94" d="M155.78 193.93c1.8-1.27 3.87-2.02 6.04-2.34l.23 2.58.14 1.52-.96-.22-5.45-1.54z"/><path fill="#239b9d" opacity=".76" d="M161.82 191.59l3.2.68-.2 3.14-2.77-1.24-.23-2.58z"/><path fill="#7c7d87" d="M326.09 193.32l6.02-1.01.75 3.33-4.61.6-2.88-2.8.72-.12z"/><path fill="#232526" opacity=".77" d="M283.33 193.59l.72.31c3.02 1.3 6.98 1.82 8.39 5.26l.42.81.4.76c-2.34.36-4.72 1.02-7.09.66-1-.7-1.84-1.61-2.69-2.46l5.92 1.11c-1.87-2.29-3.82-4.53-6.07-6.45z"/><path fill="#0f0f10" opacity=".51" d="M306.83 196.29l.22-2.99 3.98 2.54-1.11 1.74-2.12-.91-.97-.38z"/><path fill="#82838c" d="M311.87 195.2l7.17-.73.95 2.51-4.84.3-3.28-2.08z"/><path fill="#78adb7" d="M223.39 196.01l4.57-.13.26 6.46-2.35 3.66-.78.13c-4.13-1.12-8.12-2.66-12.17-4.03l8.84.15.68.2c.76.76 1.62 1.42 2.56 1.97 2.22-1.68 2.32-4.86 2.13-7.4l-1.82-.44c-1.09 1.5-1.94 3.16-2.72 4.85l.8-5.42z"/><path fill="#5993a5" d="M237 199.45c-1.48-2.22 1.02-3.76 3.05-3.1-.92 1.11-1.66 2.52-3.05 3.1z"/><path fill="#2c2f34" opacity=".93" d="M241.38 196.32l3.97-.06c-3.96 5.04-10.28 7.17-16.2 8.94a74.59 74.59 0 0 1-3.28.8l2.35-3.66c3.02-.62 6.04-1.42 8.78-2.89 1.39-.58 2.13-1.99 3.05-3.1l1.33-.03z"/><path fill="#d5d2d8" d="M296.79 196.73l3.25-.54a51.3 51.3 0 0 1 6.79.1l.97.38-.49 2.64-6.29.81 2.54-2.65-6.77-.74z"/><path fill="#7b7a80" d="M307.8 196.67l2.12.91-1.8 2.99-7.13 1.24-6.8.61-.93-1.69-.4-.76c2.71.19 5.44.3 8.16.15l6.29-.81.49-2.64z"/><path fill="#858793" d="M359.92 195.78l1.53 4.46c-10.8 1.23-21.58 2.73-32.42 3.52l-2.88.26.32-.77.79-2.06c6.38-.65 12.71-1.71 19.06-2.58 4.1-.61 8.22 0 12.24.8l1.36-3.63z"/><path fill="#feffff" d="M222.59 201.43c.78-1.69 1.63-3.35 2.72-4.85l1.82.44c.19 2.54.09 5.72-2.13 7.4-.94-.55-1.8-1.21-2.56-1.97l.15-1.02z"/><path fill="#fffeff" d="M292.44 199.16c1.29-1.05 2.62-2.23 4.35-2.43l6.77.74-2.54 2.65c-2.72.15-5.45.04-8.16-.15l-.42-.81z"/><path fill="#686871" d="M315.15 197.28l4.84-.3c2.88-.14 5.76.07 8.63.36-3.54 1.47-7.23 2.51-10.93 3.5 3.18.3 6.37.55 9.57.35l-.79 2.06c-3.84-.56-7.7-.95-11.56-1.26l1.04 4.26a82.85 82.85 0 0 1-3.09.51l-.84.11.71-4.12c-1.31 0-2.62.03-3.93.07 2.13-.56 4.23-1.22 6.34-1.86l-4.08-1.72 6.86-.23-2.77-1.73z"/><path fill="#1a1a1c" opacity=".98" d="M268.49 199.42c4.62-.17 9.23-.64 13.86-.54l-10.97 1.57-.38 5.74-.29.55c-2.25-.32-4.51-.61-6.77-.85-1.76-.24-3.56-.63-5.32-.24l1.33-1.85c-3.54 1.77-7.22 3.45-11.22 3.78 1.98-1.73 3.69-4.33 6.41-4.85 4.3.36 8.48 1.6 12.81 1.75l.54-5.06z"/><path fill="#515258" d="M282.35 198.88l1.13.05c.85.85 1.69 1.76 2.69 2.46 2.37.36 4.75-.3 7.09-.66l.93 1.69 6.8-.61 2.38 1.8-1.53.07-3.08-.15-1.02 4.15 4.34-.15 9.94-.66.84-.11 1.81 1.77-1.81 1.4c-1.7 1.23-3.31 2.81-5.45 3.2-4.53.86-9.15 1.63-13.78 1.2l.81-.13c5.13-.74 10.4-1.09 15.22-3.19-3.98-.61-8.02-1.17-12.05-.85-1.28.04-2.32.87-3.28 1.63l-.54-.47c-.71-.86-1.39-1.73-2.07-2.6l2.32-3.86c-2.16-.85-4.66-2.55-6.81-.73l-.59.49c-3.94 1.23-8.25.17-12.06 1.98 1.25-2.47-2.81-3.39-3.32-.91l-.26.5c.18-1.91.27-3.83.38-5.74 3.67-.42 7.3-1.09 10.97-1.57z"/><path fill="#3d3e44" d="M329.03 203.76c10.84-.79 21.62-2.29 32.42-3.52-2.37 1.98-5.25 3.09-8.23 3.77-3.03.61-5.45 2.58-8.09 4.04-1.57 1.03-3.47.37-5.18.21 2.46-.46 4.88-1.27 6.68-3.1-2.27.09-4.53.28-6.79.49-4.97-.4-9.75 1.2-14.14 3.37l-1.77-1.12-3.35 3.61-5.59.22c4.21-1.69 8.16-3.96 12.48-5.37l1.56-2.6z"/><path fill="#282929" d="M204.17 201.52c3.59-.01 6.35 2.29 8.85 4.6l-3.58.13-.41 2.59c-1.75-.63-3.53-1.16-5.34-1.57l.48-5.75z"/><path fill="#585758" d="M192.86 203.63l4.07-1.34 4.18 4.8-9.24 1.68.99-5.14z"/><path fill="#a0a2af" d="M314.91 201.99c3.86.31 7.72.7 11.56 1.26l-.32.77-10.2 2.23-1.04-4.26z"/><path fill="#727071" d="M287.23 204.13c2.15-1.82 4.65-.12 6.81.73l-2.32 3.86 2.07 2.6c-3.43.27-6.87.21-10.3.5-3.77.35-7.36 2.61-11.21 1.66-3.28-.7-6.65-.7-9.96-.3l-.47-3.21a83.63 83.63 0 0 1 8.09-1.83l.77-1.4.29-.55.26-.5c.9 1.12 2 1.43 3.32.91 3.81-1.81 8.12-.75 12.06-1.98.72 1.47 1.79 1.83 3.19 1.1 1.33-1.7-1.5-2.51-2.6-1.59z"/><path fill="#8a8b97" d="M298.76 203.53l3.08.15.24 3.85-4.34.15 1.02-4.15z"/><path fill="#9b9dac" d="M303.37 203.61l5.43-.79 3.93-.07-.71 4.12-9.94.66-.24-3.85 1.53-.07z"/><path fill="#464546" d="M178.33 205.15c1.51-.53 3.09-.83 4.65-1.16.23 1.83.56 3.65.98 5.45-1.73.79-3.61 1.39-5.06 2.65-1.59 2.16-.85 5.28 1.28 6.78 1.68 1.57 4.08.57 6.08.41l.58 3.73c-2.23.73-4.51 1.26-6.82 1.63-2.08-2.22-4.61-4.2-5.85-7.05-1.39-3.71.33-7.56 1.3-11.14.94-.47 1.89-.9 2.86-1.3z"/><path fill="#41434b" d="M248.73 207.58c4-.33 7.68-2.01 11.22-3.78l-1.33 1.85-1.17 1.66c.49.39.99.77 1.5 1.15l-1.89 5.12 5.26-.4c3.31-.4 6.68-.4 9.96.3 3.85.95 7.44-1.31 11.21-1.66 3.43-.29 6.87-.23 10.3-.5l.54.47c-5.88 2.05-12.18 1.75-18.19 3.16-2.57.7-5.1-.39-7.66-.48-1.76.19-3.4.9-5.1 1.35l-.85.16c-.66-1.93-3.35-1.88-4.23-.16l-8.68-2.32.77-.27 3.28-.73.03-2.31c-5.24.93-10.55.63-15.78-.17 3.55-1.04 7.14-1.97 10.81-2.44z"/><path fill="#838389" d="M271.26 205.69c.51-2.48 4.57-1.56 3.32.91-1.32.52-2.42.21-3.32-.91z"/><path fill="#adacb4" d="M287.23 204.13c1.1-.92 3.93-.11 2.6 1.59-1.4.73-2.47.37-3.19-1.1l.59-.49z"/><path fill="#57575e" d="M315.95 206.25c3.41-.68 6.79-1.51 10.2-2.23l2.88-.26-1.56 2.6c-4.32 1.41-8.27 3.68-12.48 5.37l-.77.31-1.36-2.11 1.81-1.4-1.81-1.77a82.85 82.85 0 0 0 3.09-.51z"/><path fill="#141514" d="M164.92 208.62c4.62-.5 8.92-2.38 13.41-3.47-.97.4-1.92.83-2.86 1.3-1.75 1.58-3.85 3.3-4.05 5.84-.55 4.06 1.73 7.84 4.45 10.66-6.72 1.09-13.65.97-20.26-.71-1.3-.31-2.39-1.1-3.5-1.78 6 1.07 11.99 2.59 18.15 2.3l-1.54-.91c-2.52-2-7.05-3.65-6.46-7.58.93-2.1 2.69-3.67 4.22-5.33l-1.56-.32z"/><path fill="#131313" d="M225.87 206l3.28-.8-.52 5.55 7.53-.39-4.28.94c-3.56.6-7.17.9-10.76 1.26l.69 4.39c-3.49 2.55-6.87 5.81-11.42 6.13l-2.89.31c-.06-1.6-.24-3.21.02-4.79.69-1.14 1.59-2.13 2.44-3.15l2.98.96c-.52-2.87-1.61-5.67-3.91-7.57l.41-2.59 3.58-.13c3.98.79 8.08.85 12.07.01l.78-.13z"/><path fill="#515259" d="M325.7 209.02c4.39-2.17 9.17-3.77 14.14-3.37l.11 2.61-3.23-2.17-3.12 3.55c-2.65.21-5.33.13-7.9-.62z"/><path fill="#57575e" opacity=".97" d="M339.84 205.65l6.79-.49c-1.8 1.83-4.22 2.64-6.68 3.1l-.11-2.61z"/><path fill="#777677" d="M257.45 207.31l1.17-1.66c1.76-.39 3.56 0 5.32.24-2.07.82-4.23 1.56-6.49 1.42z"/><path fill="#5a5a60" d="M263.94 205.89l6.77.85-.77 1.4a83.63 83.63 0 0 0-8.09 1.83l-2.9-1.51-1.5-1.15c2.26.14 4.42-.6 6.49-1.42z"/><path fill="#62b7cc" d="M171.42 212.29c.2-2.54 2.3-4.26 4.05-5.84-.97 3.58-2.69 7.43-1.3 11.14 1.24 2.85 3.77 4.83 5.85 7.05-1.39-.55-2.8-1.05-4.15-1.69-2.72-2.82-5-6.6-4.45-10.66z"/><path fill="#6fbed2" d="M191.87 208.77l9.24-1.68 2.58.18c1.81.41 3.59.94 5.34 1.57 2.3 1.9 3.39 4.7 3.91 7.57l-2.98-.96-1.07-3.36c-1.32-1.28-3.14-1.8-4.81-2.44l-3.81-.07c-2.36.31-4.68.82-6.99 1.36l-3.98.87a92.33 92.33 0 0 1-3.72-.08l4.73-2.31 1.56-.65z"/><path fill="#3a3839" d="M150.86 211.22c4.68.34 8.58-2.92 13.21-2.77l-4.43 5.89-3.01-2.74c-.57 2.08-2.35 4.47-.93 6.57 3.84 2.55 8.64 2.67 13.02 3.68l1.54.91c-6.16.29-12.15-1.23-18.15-2.3-.41-.09-1.23-.25-1.64-.33 1.48-2.56 3.03-6.09.79-8.7l-.4-.21z"/><path d="M159.64 214.34l4.43-5.89.85.17 1.56.32c-1.53 1.66-3.29 3.23-4.22 5.33-.59 3.93 3.94 5.58 6.46 7.58-4.38-1.01-9.18-1.13-13.02-3.68-1.42-2.1.36-4.49.93-6.57l3.01 2.74zm62.35 18.65c4.83-3.95 9.88-7.63 14.97-11.23a36.09 36.09 0 0 0 3.25 3.41 34.71 34.71 0 0 1-1.68 2.3c-3.47 2.88-7 5.74-9.64 9.44-.93 1.12-1.93 2.18-2.93 3.23-1.25-2.43-2.52-4.84-3.97-7.15z" fill="#626062"/><path fill="#9698a5" d="M257.06 213.58l1.89-5.12 2.9 1.51.47 3.21-5.26.4z"/><path fill="#f6f4f8" d="M294.33 211.79c.96-.76 2-1.59 3.28-1.63 4.03-.32 8.07.24 12.05.85-4.82 2.1-10.09 2.45-15.22 3.19l-.11-2.41z"/><path fill="#5f5d5e" d="M178.9 212.09c1.45-1.26 3.33-1.86 5.06-2.65.82 3.27 1.71 6.52 2.3 9.84-2 .16-4.4 1.16-6.08-.41-2.13-1.5-2.87-4.62-1.28-6.78z"/><path fill="#484748" d="M200.27 209.58l3.81.07c-.1 3.23.14 6.55-.8 9.69-.66 2.24-3.62 3.04-5.55 1.96-4.08-1.76-6.55-5.67-8.43-9.49 1.33-.25 2.65-.56 3.98-.87 1.16 1.8 1.63 4.59 3.97 5.22 1.37.59 2.7-.22 3.47-1.35.04-1.75-.24-3.49-.45-5.23z"/><path fill="#d0d3e3" d="M236.16 210.36l1.76-.34c5.23.8 10.54 1.1 15.78.17l-.03 2.31-3.28.73c-4.56.06-9.2.06-13.6 1.48l-2.73.67c-.79-1.33-1.49-2.7-2.18-4.08 1.43-.29 2.85-.63 4.28-.94z"/><path fill="#407887" opacity=".84" d="M146.86 216.03c.01-2.18 1.6-4.81 4-4.81l.4.21c-.85 1.2-2.13 2.21-2.44 3.71.06 2 .64 3.94 1.08 5.88-1.18-1.52-3.33-2.79-3.04-4.99z"/><path fill="#4a494e" opacity=".93" d="M221.12 212.56c3.59-.36 7.2-.66 10.76-1.26.69 1.38 1.39 2.75 2.18 4.08-1.21-.29-2.39-.68-3.56-1.09-2.14-.75-4.32-1.38-6.51-1.95l-.51 3.89 2.27 1.05.48.19c-1.48-.12-2.95-.32-4.42-.52l-.69-4.39z"/><path fill="#505c61" d="M148.82 215.14c.31-1.5 1.59-2.51 2.44-3.71 2.24 2.61.69 6.14-.79 8.7l-.57.89c-.44-1.94-1.02-3.88-1.08-5.88z"/><path fill="#9ea1b0" d="M223.99 212.34l6.51 1.95-4.75 2.99-2.27-1.05.51-3.89z"/><path fill="#555455" d="M236.79 214.71c4.4-1.42 9.04-1.42 13.6-1.48l-.77.27c-2.27.85-4.51 1.76-6.83 2.44-.42.07-1.25.23-1.67.31 1.09 2.4 2.37 4.82 2.57 7.5l-1.53.43c-2.5-1.56-3.85-4.28-5.21-6.78-.07-.9-.12-1.8-.16-2.69z"/><path fill="#313238" opacity=".58" d="M230.5 214.29l3.56 1.09 2.73-.67.16 2.69-1.89-.43-8.83.5-.48-.19 4.75-2.99z"/><path fill="#282828" d="M242.79 215.94c2.32-.68 4.56-1.59 6.83-2.44l8.68 2.32c1.36.49 2.84.54 4.23.16l.85-.16.88-.15c-4.33 1.38-9.05 1.21-13.21 3.16-3.68 1.36-5 5.53-8.2 7.59l3.26-4.74c-1.07-1.94-2.14-3.88-3.32-5.74z"/><path fill="#737275" d="M258.3 215.82c.88-1.72 3.57-1.77 4.23.16-1.39.38-2.87.33-4.23-.16z"/><path fill="#57818e" d="M241.12 216.25l1.67-.31 3.32 5.74-3.26 4.74-2.64-1.25a36.09 36.09 0 0 1-3.25-3.41l-.99-2.34-.91-2.45 1.89.43c1.36 2.5 2.71 5.22 5.21 6.78l1.53-.43c-.2-2.68-1.48-5.1-2.57-7.5z"/><path fill="#343334" d="M219.08 228.75c5.35-3.55 10.57-7.67 16.89-9.33l.99 2.34c-5.09 3.6-10.14 7.28-14.97 11.23-.93-1.44-1.92-2.84-2.91-4.24z"/><path fill="#3b7483" opacity=".95" d="M207.5 223.39l2.89-.31-1.91 2.56c-4.39 4.05-10.69 3.99-16.24 3.23-1.45-.44-1.57-2.01-1.96-3.21 3.71 1.18 7.68 1.92 11.56 1.24 2.29-.37 3.95-2.1 5.66-3.51z"/><path fill="#282829" d="M192.24 228.87c5.55.76 11.85.82 16.24-3.23l3.73 6.26c1.64-.56 3.29-1.1 4.9-1.74-2.72 2.09-4.76 4.88-6.55 7.78-3.86 2.57-8.2 4.31-12.65 5.58l-.67.2c-2.06-4.8-4.1-9.67-5-14.85z"/><path fill="#0d0d0d" opacity=".53" d="M228.89 236.91c2.64-3.7 6.17-6.56 9.64-9.44-2.52 4.07-5.84 7.83-10.14 10.07l.5-.63z"/><path fill="#68b7cb" d="M217.76 229.7l1.32-.95 2.91 4.24c1.45 2.31 2.72 4.72 3.97 7.15l.33.67-2.31-.46-.78-1.34-3.78-6.13-1.66-3.18z"/><path fill="#504e50" d="M217.11 230.16l.65-.46 1.66 3.18c-2.2 2.26-5.01 4.16-6.33 7.11.15 1.58.55 3.12.89 4.67 3.31-1.47 6.39-3.39 9.22-5.65l.78 1.34c-1.44 2.56-3.1 5.34-5.88 6.62-2.34.55-4.76-.1-7.1-.34l-1.82 3.92c-2.79-.88-5.45-2.14-7.88-3.76l-1.42-1.14c4.2-1.53 8.73-3.35 10.68-7.71 1.79-2.9 3.83-5.69 6.55-7.78z"/><path fill="#7f7e80" d="M219.42 232.88l3.78 6.13c-2.83 2.26-5.91 4.18-9.22 5.65-.34-1.55-.74-3.09-.89-4.67 1.32-2.95 4.13-4.85 6.33-7.11z"/><path fill="#5a98a9" d="M197.91 243.52c4.45-1.27 8.79-3.01 12.65-5.58-1.95 4.36-6.48 6.18-10.68 7.71l-1.97-2.13z"/><path fill="#313031" d="M223.98 240.35l2.31.46c-3.83 3.56-7.16 7.85-11.88 10.31-1.75-.13-3.5-.31-5.23-.57l1.82-3.92c2.34.24 4.76.89 7.1.34 2.78-1.28 4.44-4.06 5.88-6.62z"/><path fill="#1d1c1d" opacity=".84" d="M201.3 246.79c2.43 1.62 5.09 2.88 7.88 3.76l5.23.57.9.07c-3.25.77-6.71 1.8-10.03.81-2.32-.75-3.24-3.13-3.98-5.21z"/></svg>