<svg xmlns="http://www.w3.org/2000/svg" width="512" height="512" viewBox="0 0 384 384" xmlns:v="https://vecta.io/nano"><path fill="#222223" d="M230.04 151.46c8.82-1.13 17.24-4.43 26.14-5.04 2.09-.18 4.1.51 6.06 1.12a58.15 58.15 0 0 0-5.11-.09c-4.06.57-8.01 1.73-12.01 2.62-1.02.21-2.04.4-3.06.57-2.22.28-4.45.43-6.68.58a69.65 69.65 0 0 1 1.54.54c.97 1.46 1.89 2.96 2.83 4.45.93 1.68 1.82 3.38 2.66 5.11l.22.79c-4.7.82-9.79 1.14-13.88-1.75l-.72-4.02c2.87.48 5.74.87 8.63 1.21-2.09-2.16-4.28-4.21-6.62-6.09z"/><path fill="#4e5c61" opacity=".97" d="M245.12 150.07c4-.89 7.95-2.05 12.01-2.62-.89 1.52-1.92 2.99-2.46 4.68.14 1.45.8 2.77 1.4 4.06 2.04 1.19 4.15 2.25 6.24 3.33l.66.34c-2.77-.2-5.69.01-8.27-1.19l-1.71-.78c-.57-2.68-1.53-5.26-2.85-7.66-.23 2.33-.36 4.67-.5 7l-4.52-7.16z"/><path fill="#363738" d="M257.13 147.45l5.11.09c2.24 1.39 3.14 4.01 4.37 6.21-2.43-1.13-4.83-2.36-7.41-3.08-1.18 1.76-2.17 3.64-3.13 5.52-.6-1.29-1.26-2.61-1.4-4.06.54-1.69 1.57-3.16 2.46-4.68z"/><path fill="#1f1e1f" d="M202.69 153.77c3.33-1.34 6.6-3.34 10.3-3.31 2.97.2 5.91.93 8.68 2l1.32.75c2.64 2.6 4.03 6.14 4.27 9.81l-1.74-.38c-2.74-2.07-5.25-4.63-8.6-5.68-3.33-1.1-6.87-.5-10.25-.01-1.28-1.11-2.63-2.14-3.98-3.18z"/><path fill="#3c3c3d" d="M242.06 150.64l3.06-.57 4.52 7.16.5-7c1.32 2.4 2.28 4.98 2.85 7.66l1.71.78.63.28-9.13 1.27-.49-.43-3.65-9.15z"/><path fill="#373e42" d="M221.67 152.46a25.25 25.25 0 0 1 2.16-1.51l4.9 4.03.78-3.96.53.44c2.34 1.88 4.53 3.93 6.62 6.09l-8.63-1.21-5.04-3.13-1.32-.75z"/><path fill="#437d8d" d="M223.83 150.95l5.68.07-.78 3.96-4.9-4.03z"/><path fill="#5d5c5e" d="M235.38 151.22l6.68-.58c1.42 2.96 2.45 6.09 3.65 9.15l.49.43 3.28 2.34c1.73 1.22 3.39 2.55 5.27 3.55 2.85 1.46 6.09 1.9 9.02 3.15 2.16.94 3.7 2.79 5.32 4.42l-8.97-3.97-2.99 2.58c2.79 2.55 5.76 4.91 8.92 6.99-.72 1.42-1.41 2.87-2.04 4.33-2.01-1.48-4.21-2.75-5.99-4.54-1.82-1.99-2.87-4.52-4.08-6.89l-4.23 1.3-4.33-.82c.52-4.5.38-9.22-2.18-13.13l-.79 1.79c-.84-1.73-1.73-3.43-2.66-5.11.77 1.01 1.56 2 2.37 2.98-.21-1.75-.31-3.55-.85-5.24-1.02-1.35-2.93-1.44-4.35-2.19l-1.54-.54z"/><path fill="#555355" d="M256.07 156.19l3.13-5.52c2.58.72 4.98 1.95 7.41 3.08l-.83 3.81-3.47 1.96-6.24-3.33z"/><path fill="#747173" d="M236.92 151.76c1.42.75 3.33.84 4.35 2.19.54 1.69.64 3.49.85 5.24l-2.37-2.98-2.83-4.45z"/><path fill="#62a0ae" d="M222.99 153.21l5.04 3.13.72 4.02 1.09 6.72.32 3.98c-.91-2.41-2.34-4.56-3.9-6.6l-.47-.7 1.47-.74c-.24-3.67-1.63-7.21-4.27-9.81z"/><path fill="#6095a5" d="M202.69 153.77l3.98 3.18 1.97 2.38c.65 2.08 1.09 4.22 1.5 6.36-2.55-2.07-4.61-4.71-5.82-7.76l-1.33-3.36-.3-.8z"/><path fill="#171716" d="M190.67 164.39c2.01-5.3 7.47-7.76 12.32-9.82a80.84 80.84 0 0 0 1.33 3.36c-1.3 1.78-2.42 3.79-4.23 5.11-2.91 1.41-6.27 1.17-9.42 1.35z"/><path fill="#3f3e40" d="M206.67 156.95c3.38-.49 6.92-1.09 10.25.01 3.35 1.05 5.86 3.61 8.6 5.68-5.65-1-11.18-2.59-16.88-3.31a45.21 45.21 0 0 0-1.97-2.38z"/><path fill="#454349" d="M200.09 163.04c1.81-1.32 2.93-3.33 4.23-5.11 1.21 3.05 3.27 5.69 5.82 7.76 3.86 1.71 8.18 1.17 12.02-.31l1.02 1.29c-.33 2.31-.5 4.76-1.63 6.85-2.45 2.65-6.25 4.03-7.8 7.47-1.38 2.68-2.02 6.37.24 8.77 2.15 1.75 4.86 2.62 7.07 4.28 1.12 1.49 1.5 3.36 2.09 5.09-1.17 1.89-2.24 3.85-3.3 5.81 2.1.15 4.2.32 6.31.38-3.63.6-7.33 1.05-11.01.69-2.08-1.59-3.98-3.39-5.89-5.17l6.4-1.12c-1.77-1.1-3.48-2.36-5.48-3-1.5.75-2.84 1.78-4.2 2.76l-6.22-3.29-1.4 3.95c-3.75-.62-7.55-.26-11.33-.24-6.77-.47-13.35-2.17-19.89-3.85l-2.25-.53.08-3.27c6.39-.03 12.79.13 19.14-.67 3.24-.27 6.48-.42 9.72-.62l1.25 2.64c2.87-.32 5.74-.58 8.61-.81-.95-2.72-2.46-5.57-1.65-8.52.9-3.35 3.68-5.66 6-8.05-1.56-1.24-3-2.75-4.91-3.42-2.39-.28-4.76.19-7.14.33-4.24-.03-8.39-.98-12.57-1.58-5.47-.82-10.99-1.16-16.49-1.71l-.3-2.36c7.78-2.44 15.93-3.14 24.04-3.09 3.15-.18 6.51.06 9.42-1.35z"/><path fill="#5a595e" d="M208.64 159.33c5.7.72 11.23 2.31 16.88 3.31l1.74.38-1.47.74c-1.2.57-2.4 1.13-3.63 1.62-3.84 1.48-8.16 2.02-12.02.31-.41-2.14-.85-4.28-1.5-6.36z"/><path fill="#403f42" d="M228.75 160.36c4.09 2.89 9.18 2.57 13.88 1.75 1.08 3.3 1.21 6.8.95 10.24.45.07 1.35.23 1.8.31l4.33.82-1.23 4.42c-.41 1.35-.85 2.68-1.31 4.01l-5.46-3.34.1-1.69c.21-1.61-.19-3.54-1.74-4.37-3.15-2.26-6.62-4.04-10.23-5.43-.27-2.26-.68-4.49-1.09-6.72z"/><path fill="#538492" d="M242.41 161.32l.79-1.79c2.56 3.91 2.7 8.63 2.18 13.13l-1.8-.31c.26-3.44.13-6.94-.95-10.24l-.22-.79z"/><path fill="#202020" d="M249.48 162.56c7.14-1.61 13.2 3.51 18.57 7.42 6.64 5.35 13.74 10.08 20.5 15.28l-1.45.52c-5.86-2.53-11-6.39-16.05-10.21l-.05-2.35-1.91.46c-1.62-1.63-3.16-3.48-5.32-4.42-2.93-1.25-6.17-1.69-9.02-3.15-1.88-1-3.54-2.33-5.27-3.55z"/><path fill="#9bdae3" d="M222.16 165.38l3.63-1.62.47.7.86 8.63c-1.16-2.23-2.4-4.43-3.94-6.42l-1.02-1.29z"/><path fill="#141415" opacity=".48" d="M156.11 166.36c2.06-2.17 4.98-.78 7.2.28l-5.2.68c1.35 1.66 2.86 3.17 4.74 4.24-1.44 0-2.89.06-4.32-.09-2.13-.66-2.76-3.13-2.42-5.11z"/><path fill="#f5ffff" d="M226.26 164.46c1.56 2.04 2.99 4.19 3.9 6.6l.19 1.87-3.23.16-.86-8.63z"/><path fill="#38373c" opacity=".95" d="M158.11 167.32l5.2-.68 1.06-.11-1.52 5.03c-1.88-1.07-3.39-2.58-4.74-4.24z"/><path fill="#24cccc" opacity=".81" d="M164.37 166.53l2.26.95.3 2.36.13.72-4.21 1 1.52-5.03z"/><path fill="#57565e" d="M223.18 166.67c1.54 1.99 2.78 4.19 3.94 6.42l3.23-.16-.19-1.87-.32-3.98c3.61 1.39 7.08 3.17 10.23 5.43-1.51 1.61-.37 4.11 1.74 4.37l-.1 1.69 5.46 3.34-1.05 2.92c-3.67-1.19-7.23-2.69-10.58-4.6-1.22 1.23-2.48 2.45-3.48 3.87.36 2.34 1.34 4.51 2.2 6.7 3.76-2.06 7.97-3.03 12.25-3.09l.09.9c-2.54 2.14-5.27 4.08-7.52 6.53-.8 1.26-1.5 2.57-2.22 3.87l-2.67 1.47c-.9-1.27-3.43-.38-2.22 1.2l-4.19.92.76-2.71.27-.91-.03-3.69c-2.18.79-4.46 1.69-5.63 3.84-.59-1.73-.97-3.6-2.09-5.09-2.21-1.66-4.92-2.53-7.07-4.28-2.26-2.4-1.62-6.09-.24-8.77 1.55-3.44 5.35-4.82 7.8-7.47 1.13-2.09 1.3-4.54 1.63-6.85m3.25 8.32l-.44 1.97c-3.6 1.76-7.66 3.48-9.7 7.15.62 1.99 1.73 3.94 3.47 5.15 1.49.57 3.07.89 4.61 1.33.42 1.22.87 2.44 1.43 3.62 1.16.63 2.51.73 3.78 1.04.59-6.79 1.41-13.57 1.28-20.38l-4.43.12z"/><path fill="#1d2327" opacity=".82" d="M166.93 169.84c5.5.55 11.02.89 16.49 1.71 4.18.6 8.33 1.55 12.57 1.58l-1.17 4.15c-3.03-1.22-6.09-2.37-9.21-3.36.1 2.85-.26 5.7-1.21 8.4-.23-3.16-.28-6.33-.25-9.49-3.68-.83-7.43-1.21-11.19-1.19-1.97-.16-4.2.14-5.9-1.08l-.13-.72z"/><path fill="#807d80" d="M257.13 172.29l2.99-2.58 8.97 3.97-3.04 5.6c-3.16-2.08-6.13-4.44-8.92-6.99z"/><path fill="#373539" d="M195.99 173.13c2.38-.14 4.75-.61 7.14-.33 1.91.67 3.35 2.18 4.91 3.42-2.32 2.39-5.1 4.7-6 8.05-.81 2.95.7 5.8 1.65 8.52l-8.61.81-1.25-2.64c-.91-3.36-.65-6.89.11-10.25.25-1.16.56-2.3.88-3.43l1.17-4.15m.3 4.38c-.81 3.64-.24 7.43 1.17 10.81 1.01-4.11 1.29-8.36 1.28-12.59-.9.48-1.72 1.07-2.45 1.78z"/><path fill="#282829" d="M249.71 173.48l4.23-1.3c1.21 2.37 2.26 4.9 4.08 6.89 1.78 1.79 3.98 3.06 5.99 4.54l-.3.77-15.23-6.48 1.23-4.42z"/><path fill="#5e91a2" d="M241.81 176.88c-2.11-.26-3.25-2.76-1.74-4.37 1.55.83 1.95 2.76 1.74 4.37z"/><path fill="#6eb7ca" d="M269.09 173.68l1.91-.46.05 2.35-3.02 4.7-2.11 3.35-.89 1.33-1.32-.57.3-.77 2.04-4.33 3.04-5.6z"/><path fill="#245661" d="M184.4 182.32c.95-2.7 1.31-5.55 1.21-8.4 2.01 3.09 5.03 5.24 8.33 6.79-.76 3.36-1.02 6.89-.11 10.25l-9.72.62c-.39-3.08-.84-6.28.29-9.26z"/><path fill="#347684" d="M185.61 173.92l9.21 3.36-.88 3.43c-3.3-1.55-6.32-3.7-8.33-6.79z"/><path fill="#9bd6e2" d="M226.43 174.99l4.43-.12c.13 6.81-.69 13.59-1.28 20.38-1.27-.31-2.62-.41-3.78-1.04-.56-1.18-1.01-2.4-1.43-3.62l.71.21 3.93 3.46c-.24-3.79-.88-7.63-.2-11.41l1.28-7.62c-1.7 1.34-3.39 2.68-4.72 4.4l.62-2.67.44-1.97z"/><path fill="#464547" d="M196.29 177.51c.73-.71 1.55-1.3 2.45-1.78.01 4.23-.27 8.48-1.28 12.59-1.41-3.38-1.98-7.17-1.17-10.81z"/><path fill="#faffff" d="M225.37 179.63c1.33-1.72 3.02-3.06 4.72-4.4l-1.28 7.62c-.68 3.78-.04 7.62.2 11.41l-3.93-3.46c-.54-3.7-.58-7.51.29-11.17z"/><path fill="#686668" d="M268.03 180.27l3.02-4.7c5.05 3.82 10.19 7.68 16.05 10.21-.99 1.37-1.9 2.8-2.81 4.22-5.35-3.37-10.99-6.24-16.26-9.73z"/><path fill="#6d6972" d="M216.29 184.11c2.04-3.67 6.1-5.39 9.7-7.15l-.62 2.67c-.87 3.66-.83 7.47-.29 11.17l-.71-.21c-1.54-.44-3.12-.76-4.61-1.33-1.74-1.21-2.85-3.16-3.47-5.15z"/><path fill="#4a474d" d="M235.54 180.23c3.35 1.91 6.91 3.41 10.58 4.6l.39 2.88c-4.28.06-8.49 1.03-12.25 3.09-.86-2.19-1.84-4.36-2.2-6.7 1-1.42 2.26-2.64 3.48-3.87z"/><path fill="#464648" d="M265.92 183.62l2.11-3.35c5.27 3.49 10.91 6.36 16.26 9.73l-1.5 2.42c-4.43-4.74-11.07-6.35-16.87-8.8z"/><path fill="#232324" opacity=".87" d="M265.03 184.95l.89-1.33c5.8 2.45 12.44 4.06 16.87 8.8l.51.67c-6.26-2.33-12.26-5.26-18.27-8.14z"/><path fill="#121b1e" opacity=".46" d="M289.2 185.06c.19-2.44 4.56-.51 3.04 1.32l-3.04-1.32z"/><path fill="#598896" d="M288.55 185.26l.65-.2 3.04 1.32c1.33.67 2.56 1.54 3.81 2.35l-.57.65-.97 1.1-3.6 4.45-1.13 1.14-1.09 1.13-.81-.18.54-1.68c1.3-2.55 2.88-4.94 4.43-7.34l-3.47-1.73-4.36 6.56-.76 1.33-.96-1.07-.51-.67 1.5-2.42 2.81-4.22 1.45-.52z"/><path d="M289.38 186.27l3.47 1.73-4.43 7.34-3.4-2.51 4.36-6.56zm-95.98 16.9l8.04-1.1 1.53 5.19c-3.38.14-6.73.78-9.98 1.71l.41-5.8zm36.18 9.85c4.01.95 7.71 2.89 11.74 3.74 1.42 1.84 2.87 3.67 4.36 5.47-.89 1.12-1.77 2.25-2.59 3.42-1.81-2.64-3.72-5.21-5.76-7.68l.3-1.69c-2.67-.45-5.37-1-7.71-2.42l-.34-.84z" fill="#565556"/><path fill="#434248" opacity=".97" d="M246.6 188.61c.45 2.76.21 5.6-1.09 8.11l-3.7-.74-2.73-.84c2.25-2.45 4.98-4.39 7.52-6.53z"/><path fill="#3b3c3f" d="M294.51 190.48l.97-1.1a52.61 52.61 0 0 1 8.5.46c3.9.51 6.98 3.21 9.84 5.69-2.85.64-5.64-.28-8.26-1.32l.11 2.84-3.73.88-4.21.87-3.99.66-3.96-3.39 1.13-1.14c3.66-.05 7.32.07 10.98.1l-.2-2.28-7.18-2.27z"/><path fill="#131314" opacity=".46" d="M155.3 191.27c1.67-1.5 4.5-1.43 6.28-.14l.2.86-3.47-.05-2.12 2.45 5.19.73c-1.5 2.99-5.12.86-7.56.64.43-1.51.72-3.1 1.48-4.49z"/><path fill="#535255" d="M290.91 194.93l3.6-4.45 7.18 2.27.2 2.28-10.98-.1z"/><path fill="#208d8f" opacity=".71" d="M161.58 191.13l3.39 1.12-.08 3.27-2.7-1.51-.41-2.02-.2-.86z"/><path fill="#38383d" opacity=".92" d="M158.31 191.94l3.47.05.41 2.02.24 1.26-1.05-.15-5.19-.73 2.12-2.45z"/><path fill="#2e3233" opacity=".86" d="M285.02 192.83l3.4 2.51-.54 1.68c-1.31-.81-2.59-1.7-3.62-2.86l.76-1.33z"/><path fill="#44454b" d="M337.04 196.68c1.82-1.43 3.54-3.44 6.03-3.54 2.14-.34 4.01.99 5.94 1.68 2.7 1.2 5.77.63 8.57 1.47 1.76.77 3.25 2.03 4.79 3.17-3.61 1.32-7.44 1.8-11.26 2.03-8.35.71-16.79 1.05-24.97 2.99l-.79.15c-2.44-.42-4.84-.99-7.25-1.52 5.52-1 10.99-2.49 15.86-5.35l.15-2.38-5.14.36c-.91 1.23-1.76 2.52-2.86 3.58-1.47.48-2.95.88-4.47 1.13l-1.05-4.91c1.12.87 2.31 1.67 3.45 2.54 1.75-1.59 3.42-3.84 6.03-3.84 2.65-.55 4.93.99 6.97 2.44m3.44-2.2c.56 1.08.97 2.28 1.84 3.18 1.59-.05 3.17-.3 4.75-.52l.06-2.88c-2.18.65-4.44.61-6.65.22z"/><path fill="#868690" d="M340.48 194.48c2.21.39 4.47.43 6.65-.22l-.06 2.88-4.75.52c-.87-.9-1.28-2.1-1.84-3.18z"/><path fill="#4f7887" d="M239.08 195.14l2.73.84-4.95 3.03 2.22-3.87z"/><path fill="#7d7e87" d="M328.97 195.74l5.14-.36-.15 2.38c-4.87 2.86-10.34 4.35-15.86 5.35 2.41.53 4.81 1.1 7.25 1.52-3.1.74-6.3.64-9.44.38l.3 3.12c1.25.02 2.51.01 3.78-.01-2.25.38-4.5.77-6.76 1.01l.06-4.21-1.47-.09c1.53-.25 3.05-.54 4.58-.83l-.66-2.72 4.5-.77c-1.91-.53-3.78-1.14-5.68-1.67 1.58-.94 3.2-1.83 4.83-2.68l1.2-.62 1.05 4.91c1.52-.25 3-.65 4.47-1.13 1.1-1.06 1.95-2.35 2.86-3.58z"/><path fill="#151515" d="M167.14 196.05c6.54 1.68 13.12 3.38 19.89 3.85 1.27 1.2 3.33 2.21 3.24 4.24-.17 2.18-1.1 4.2-1.87 6.22l-2.91.83-.29-.86c-.77-2.13-1.56-4.27-2.18-6.45-.27-1.05-.5-2.1-.7-3.15-5.2-1.07-10.44-2.2-15.18-4.68z"/><path fill="#333334" d="M199.76 196.19l6.22 3.29c1.36-.98 2.7-2.01 4.2-2.76 2 .64 3.71 1.9 5.48 3l-6.4 1.12 5.89 5.17-5.1-.44-1.33 2.06-5.75-.37-1.53-5.19-8.04 1.1-.41 5.8-4.59 1.39c.77-2.02 1.7-4.04 1.87-6.22.09-2.03-1.97-3.04-3.24-4.24 3.78-.02 7.58-.38 11.33.24l1.4-3.95z"/><path fill="#94d5de" d="M223.15 199.13c1.17-2.15 3.45-3.05 5.63-3.84l.03 3.69c-1.18-.85-2.31-1.84-3.79-2.06-.59 2.43-.88 4.92-1.18 7.41l4.7-4.44-.76 2.71-.73 2.58-.89.14-6.31-.38 3.3-5.81z"/><path fill="#2a2a2e" opacity=".85" d="M241.81 195.98l3.7.74c-4.52 4.53-10.77 6.47-16.79 8.07l-1.67.39.73-2.58 4.19-.92 2.22-1.2 2.67-1.47c1.68-.95 3.33-1.97 4.95-3.03z"/><path fill="#181919" d="M288.69 197.2l1.09-1.13 3.96 3.39.54 2.89c-2.17.17-4.31.52-6.4 1.09l-.76 1.78-.77 1.87-1.18-.65-.14-6.23c-4.34.27-8.63.98-12.89 1.8l-.2 2.85-.25 3.7-2.5.62c.05-1.16.13-2.31.21-3.47l.25-4.92c4.12-.5 8.23-1.28 12.4-1.25 2.89-.07 5.35 1.61 7.87 2.8a132.26 132.26 0 0 1-1.23-5.14z"/><path fill="#53545b" d="M310.35 199.58c2.78-1.75 5.44-4.34 9.04-3.42l-4.83 2.68 5.68 1.67-4.5.77.66 2.72-4.58.83-8.73 1.23-.29 3.19c3.48.04 6.95.1 10.43-.12 2.26-.24 4.51-.63 6.76-1.01l7.17-1.11c.49-.06 1.48-.16 1.97-.21l.4 2.41-2.64.52c-3.21.24-5.79 2.25-8.04 4.37l-6.29-1.51c-1.23 1.01-2.3 2.45-3.99 2.62a98.97 98.97 0 0 1-10.86 1.15c-1.96.24-3.34-1.4-4.93-2.23-4.84 1.12-9.82 1.16-14.73 1.72-4.35.69-8.67-.82-13.02-.1 3.96-1.84 8.4-.96 12.57-1.78 5.45-1.05 11.02-.78 16.53-.86l-1.11-7.77c-1.97-.06-3.93-.16-5.9-.12l.76-1.78c2.09-.57 4.23-.92 6.4-1.09 2.94-.11 5.89-.01 8.83-.11 2.53-.52 5-1.37 7.24-2.66m-12.73 10l3.67.5-.55-4.65c-1.3 1.17-2.3 2.62-3.12 4.15m-1.19 1.93l-.34 3.87c4.94.15 10.1.05 14.55-2.41-4.71-.77-9.49-.77-14.21-1.46z"/><path fill="#f8ffff" d="M225.02 196.92c1.48.22 2.61 1.21 3.79 2.06l-.27.91c-1.47 1.57-3.08 3.02-4.7 4.44l1.18-7.41z"/><path fill="#d8d5dc" d="M297.73 198.8l4.21-.87c2.95-.82 6.17-.67 8.41 1.65-2.24 1.29-4.71 2.14-7.24 2.66l1.93-3.5c-2.44-.02-4.88-.04-7.31.06z"/><path fill="#fdfdfe" d="M293.74 199.46l3.99-.66 7.31-.06-1.93 3.5-8.83.11-.54-2.89z"/><path fill="#8c909e" d="M351.11 201.49c3.82-.23 7.65-.71 11.26-2.03l-.2 4.51c-4.38.17-8.74.61-13.09 1.06a121.36 121.36 0 0 1-4.32-.47c2.04-1.18 4.13-2.28 6.35-3.07z"/><path fill="#557f8e" d="M231.97 201.68c-1.21-1.58 1.32-2.47 2.22-1.2l-2.22 1.2z"/><path fill="#55565b" d="M272.14 202.01c4.26-.82 8.55-1.53 12.89-1.8l.14 6.23c-3.15.01-6.27.43-9.33 1.11l-3.9-2.69.2-2.85z"/><path fill="#888b99" d="M326.14 204.48c8.18-1.94 16.62-2.28 24.97-2.99-2.22.79-4.31 1.89-6.35 3.07a121.36 121.36 0 0 0 4.32.47c-6.61 1.01-13.28 1.44-19.95 1.77l-1.97.21-1.02-2.53z"/><path fill="#313236" d="M246.98 208.15c3.97-1.15 7.26-4.58 11.61-4.18-2.53 2.33-5.11 4.6-7.75 6.81l-4.86-.37c-2.03-.06-4.06.04-6.09.17-2.5.1-4.99.32-7.49.42l-2.69.13c5.73-1.15 11.66-1.27 17.27-2.98z"/><path fill="#484748" d="M174.8 205.92c2.64-1.03 5.42-1.61 8.22-2.04l2.18 6.45c-2.53.23-5.9.16-6.89 3.09-1.09 3.19 2.47 5.32 4.32 7.33l4.01-5.06 1.02 7.25-4.71 1.55c-2.85-.96-6.18-1.82-7.84-4.58-1.2-2.06-1.97-4.49-1.69-6.89.52-2.61 2.04-4.86 3.29-7.17l-1.27.06-.64.01z"/><path fill="#404149" d="M258.59 203.97l3.5.67-5.24 3.05 1.96 1.92-.53 4.62-.17 2.48c-4.05-1.03-8.22-2.11-12.42-1.34l1.37-1.19 6.83-.5-.14-2.62-2.91-.28c2.64-2.21 5.22-4.48 7.75-6.81z"/><path fill="#57585e" d="M262.09 204.64c2.41.48 4.86.8 7.31 1.07l-.21 3.47-6.99 1.69-3.39-1.26-1.96-1.92 5.24-3.05z"/><path fill="#adafbd" d="M325.35 204.63l.79-.15 1.02 2.53-7.17 1.11-3.78.01-.3-3.12c3.14.26 6.34.36 9.44-.38z"/><path fill="#44454b" opacity=".98" d="M349.08 205.03c4.35-.45 8.71-.89 13.09-1.06-4.46 2.26-9.39 3.47-14.37 3.85l-5.73.19-1.78.17-.49.73-.93.22a60.49 60.49 0 0 1-3.73.81c-2.75.19-5.5-.04-8.25-.21l2.64-.52-.4-2.41c6.67-.33 13.34-.76 19.95-1.77z"/><path fill="#141414" d="M210.05 205.57l5.1.44c3.68.36 7.38-.09 11.01-.69l.89-.14 1.67-.39.18 6.48c-1.81.36-3.58.88-5.36 1.35.18 1.56.39 3.13.63 4.69 2.28-.54 5.7-.29 5.75-3.45 2.34 1.42 5.04 1.97 7.71 2.42l-.3 1.69-.79-.13c-5.2-.89-10.68-1.24-15.79.24-4.05 1.92-7.57 4.84-11.82 6.38-5.47 2.49-11.81 3.54-17.51 1.13-1.33-.78-2.53-1.73-3.76-2.65-.29-2.43-.58-4.85-1.02-7.25l-.61-2.71c.41-.07 1.23-.23 1.65-.31 3.45 4.67 6.49 10.65 12.56 12.28 1.88.84 3.56-.83 4.32-2.41 1.82-3.64 2.47-7.71 3.29-11.65 1.9 1.69 3.72 3.47 5.63 5.16-.17-1.34-.15-2.74-.64-4.01-1.13-1.68-2.7-2.99-4.12-4.41l1.33-2.06z"/><path fill="#818086" d="M271.94 204.86l3.9 2.69-4.15 1.01.25-3.7z"/><path fill="#8f8e94" d="M287.12 205.22l5.9.12-1.12 4.85-5.55-3.1.77-1.87z"/><path fill="#a2a5b4" d="M303.09 206.06l8.73-1.23 1.47.09-.06 4.21c-3.48.22-6.95.16-10.43.12l.29-3.19z"/><path fill="#48808f" opacity=".94" d="M175.44 205.91l1.27-.06c-1.25 2.31-2.77 4.56-3.29 7.17-.28 2.4.49 4.83 1.69 6.89 1.66 2.76 4.99 3.62 7.84 4.58-3.15.37-6.52.01-8.98-2.19-1.31-2.28-2.63-4.7-2.83-7.38-.06-2.81.91-5.49 1.65-8.15l2.65-.86z"/><path fill="#717071" d="M275.84 207.55c3.06-.68 6.18-1.1 9.33-1.11l1.18.65 5.55 3.1 1.12-4.85 1.11 7.77c-5.51.08-11.08-.19-16.53.86-4.17.82-8.61-.06-12.57 1.78l-1.61.6c-1.75.33-3.54.43-5.31.36l.17-2.48 2.99-.98.93-2.38 6.99-1.69 2.5-.62 4.15-1.01z"/><path fill="#868792" d="M297.62 209.58c.82-1.53 1.82-2.98 3.12-4.15l.55 4.65-3.67-.5z"/><path fill="#141514" d="M164.7 209.01l8.09-2.24c-.74 2.66-1.71 5.34-1.65 8.15.2 2.68 1.52 5.1 2.83 7.38-5.08 2.35-10.79 1.31-16.13.7-2.39-.25-4.63-1.12-6.69-2.31 6.13.78 12.21 2.69 18.46 1.76l-.95-.44c-2.24-1.36-4.66-2.6-6.35-4.64-1.38-2.38.8-4.86 1.59-7.06l3.18-1.04-2.38-.26z"/><path fill="#5492a2" d="M192.99 208.97c3.25-.93 6.6-1.57 9.98-1.71 1.92.06 3.83.23 5.75.37 1.42 1.42 2.99 2.73 4.12 4.41.49 1.27.47 2.67.64 4.01-1.91-1.69-3.73-3.47-5.63-5.16l-2.06-1.66c-1.93-.01-3.85.14-5.76.41-2.2.43-4.37.98-6.53 1.56l-2.86.76-2.96.71-1.65.31-.54-1.79 2.91-.83 4.59-1.39z"/><path fill="#2a2a2e" opacity=".8" d="M340.29 208.18l1.78-.17-.49.73-1.78.17.49-.73z"/><path fill="#54555d" d="M342.07 208.01l5.73-.19 2.47.01c-1.21 1.05-1.27 3.01-3.08 3.39-3 1.23-5.97-.27-8.32-2.09l.93-.22 1.78-.17.49-.73z"/><path fill="#3b3b3d" d="M147.24 211.79c5.8-1.01 11.53-3.1 17.46-2.78l2.38.26-3.18 1.04c-2.95 1.02-6.07 1.66-8.81 3.21-.9 1.5-.71 3.5.24 4.94 3.88 2.72 8.87 2.52 13.33 3.55l.95.44c-6.25.93-12.33-.98-18.46-1.76l-2.14-.29c-.48-2.62-.99-5.23-1.59-7.82l-.18-.79m2.85 2.77c-.97 1.11-.71 1.74.75 1.88.96-1.12.71-1.75-.75-1.88z"/><path fill="#504e4f" d="M200.03 209.64c1.91-.27 3.83-.42 5.76-.41-1.22 3.39-2.1 6.91-3.64 10.17-5.23 1.45-8.87-3.78-11.51-7.44l2.86-.76c1.89 2.54 4.51 4.33 7.55 5.21-.3-2.27-.66-4.52-1.02-6.77z"/><path fill="#37373b" opacity=".69" d="M318.85 214.1c2.25-2.12 4.83-4.13 8.04-4.37l8.25.21 1.79-.07c-1.6 1.17-3.13 2.96-5.3 2.79-2.19-.08-4.29-.72-6.41-1.2-2.06 1.01-4.18 1.91-6.37 2.64z"/><path fill="#625f61" d="M155.09 213.52c2.74-1.55 5.86-2.19 8.81-3.21-.79 2.2-2.97 4.68-1.59 7.06 1.69 2.04 4.11 3.28 6.35 4.64-4.46-1.03-9.45-.83-13.33-3.55-.95-1.44-1.14-3.44-.24-4.94z"/><path fill="#5f5d5f" d="M178.31 213.42c.99-2.93 4.36-2.86 6.89-3.09l.29.86.54 1.79.61 2.71-4.01 5.06c-1.85-2.01-5.41-4.14-4.32-7.33z"/><path fill="#646264" d="M193.5 211.2l6.53-1.56 1.02 6.77c-3.04-.88-5.66-2.67-7.55-5.21z"/><path fill="#2e2d2e" d="M202.15 219.4c1.54-3.26 2.42-6.78 3.64-10.17l2.06 1.66c-.82 3.94-1.47 8.01-3.29 11.65-.76 1.58-2.44 3.25-4.32 2.41-6.07-1.63-9.11-7.61-12.56-12.28l2.96-.71c2.64 3.66 6.28 8.89 11.51 7.44z"/><path fill="#64656d" d="M239.89 210.58l6.09-.17 1.08 3.77-1.37 1.19-1.64 1.42a82.83 82.83 0 0 1-2.73-.03c-4.03-.85-7.73-2.79-11.74-3.74-2.01-.2-4.03-.32-6.04-.4 1.78-.47 3.55-.99 5.36-1.35l.81-.14 2.69-.13c.67 1.09 1.4 2.15 2.17 3.18 3.6 1 7.02-.95 9.83-2.99-1.5-.24-3-.44-4.51-.61z"/><path fill="#989aa7" d="M258.28 214.23l.53-4.62 3.39 1.26-.93 2.38-2.99.98z"/><path fill="#f2f5ff" d="M232.4 211l7.49-.42 4.51.61c-2.81 2.04-6.23 3.99-9.83 2.99-.77-1.03-1.5-2.09-2.17-3.18z"/><path fill="#aeafba" d="M247.06 214.18l-1.08-3.77 4.86.37 2.91.28.14 2.62-6.83.5z"/><path fill="#e9e6ec" d="M296.43 211.51c4.72.69 9.5.69 14.21 1.46-4.45 2.46-9.61 2.56-14.55 2.41l.34-3.87z"/><path fill="#3e7989" opacity=".79" d="M147.42 212.58l1.59 7.82-2.5-2c-1.12-1.9.4-3.97.91-5.82z"/><path fill="#a0a4b4" d="M223.54 212.62l6.04.4.34.84c-.05 3.16-3.47 2.91-5.75 3.45l-.63-4.69z"/><path fill="#576c76" d="M150.09 214.56c1.46.13 1.71.76.75 1.88-1.46-.14-1.72-.77-.75-1.88z"/><path fill="#262626" d="M245.69 215.37c4.2-.77 8.37.31 12.42 1.34 1.77.07 3.56-.03 5.31-.36l.38 1.16c-4.68.26-9.71.06-13.93 2.4-2.34 2.24-4.08 5.15-7.1 6.59l.32-.85c.82-1.17 1.7-2.3 2.59-3.42l-1.63-5.44 1.64-1.42z"/><path fill="#608795" d="M241.32 216.76l2.73.03 1.63 5.44-4.36-5.47z"/><path fill="#5693a4" opacity=".96" d="M236.54 217.84l.79.13 5.76 7.68-.32.85-.34.88-1.06-1.05-1.44-1.51a36.33 36.33 0 0 1-2.66-3.75l-1.48-2.69.75-.54z"/><path fill="#333233" d="M219.97 228.27c5.24-3.34 10.85-6.12 15.82-9.89l1.48 2.69c-4.38 4.54-9.71 7.99-15.16 11.12l-2.14-3.92z"/><path fill="#676466" d="M237.27 221.07a36.33 36.33 0 0 0 2.66 3.75c-4.17 3.15-8.31 6.36-12.1 9.97-.93.85-1.91 1.65-2.88 2.46l-2.84-5.06c5.45-3.13 10.78-6.58 15.16-11.12z"/><path fill="#3f8293" d="M191.42 225.59c5.7 2.41 12.04 1.36 17.51-1.13l.12 1.46c-2.45 1.53-5.09 3.04-8.05 3.17-3.07.16-6.11-.31-9.14-.69l-.44-2.81z"/><path fill="#333233" d="M227.83 234.79c3.79-3.61 7.93-6.82 12.1-9.97l1.44 1.51c-4.15 3.5-7.86 7.49-11.87 11.13-.99 1.12-2.5.97-3.83.81.65-1.21 1.26-2.44 2.16-3.48z"/><path fill="#272728" d="M201 229.09c2.96-.13 5.6-1.64 8.05-3.17.96 1.68 1.97 3.37 3.39 4.7 1.48.16 2.97-.03 4.43-.24-2.58 2.11-4.39 4.95-6.2 7.71-3.94 2.78-8.68 4.07-13.47 4.21-2.4-4.38-4.03-9.1-5.34-13.9 3.03.38 6.07.85 9.14.69z"/><path fill="#68b2c5" opacity=".98" d="M218.7 229.13l1.27-.86 2.14 3.92 2.84 5.06c.21 1.07 2.05 2.51.74 3.39l-.57.57-1.88-2.49c-1.11-1.56-2.14-3.17-3.04-4.86l-1.5-4.73z"/><path fill="#514f51" d="M216.87 230.38l1.83-1.25 1.5 4.73-7.24 6.43 2.74 4.17 7.54-5.74 1.88 2.49c-2.48 2.15-4.9 4.65-8.09 5.69-2.22-.41-4.26-1.41-6.33-2.28l-1.21 5.22c-2.63-1.17-5.22-2.72-6.29-5.55 3.18-1.09 5.84-3.26 7.47-6.2 1.81-2.76 3.62-5.6 6.2-7.71z"/><path fill="#817f81" d="M220.2 233.86c.9 1.69 1.93 3.3 3.04 4.86l-7.54 5.74-2.74-4.17 7.24-6.43z"/><path fill="#538d9d" opacity=".98" d="M197.2 242.3c4.79-.14 9.53-1.43 13.47-4.21-1.63 2.94-4.29 5.11-7.47 6.2l-3.86-.15-.84-.05-1.3-1.79z"/><path fill="#343334" d="M217.03 246.9c3.19-1.04 5.61-3.54 8.09-5.69l.57-.57c-2.66 3.66-5.9 6.94-9.73 9.37-4.33 1.26-9.12 1.52-13.17-.76-1.24-1.64-2.3-3.41-3.45-5.11l3.86.15c1.07 2.83 3.66 4.38 6.29 5.55l1.21-5.22c2.07.87 4.11 1.87 6.33 2.28z"/><path fill="#0b0b0b" opacity=".64" d="M202.79 249.25c4.05 2.28 8.84 2.02 13.17.76-2.61 1.42-5.47 3.13-8.57 2.48-2.01-.19-3.29-1.92-4.6-3.24z"/></svg>