<?xml version="1.0" encoding="UTF-8" ?>
<!DOCTYPE svg PUBLIC "-//W3C//DTD SVG 1.1//EN" "http://www.w3.org/Graphics/SVG/1.1/DTD/svg11.dtd">
<svg width="384pt" height="384pt" viewBox="0 0 384 384" version="1.1" xmlns="http://www.w3.org/2000/svg">
<g id="#2c2c2cfe">
<path fill="#2c2c2c" opacity="1.00" d=" M 157.43 134.67 C 160.55 134.21 163.55 135.46 166.39 136.57 C 164.64 137.55 162.96 138.78 161.00 139.30 C 158.90 138.56 157.05 137.25 154.95 136.52 C 153.48 136.21 152.48 137.68 151.78 138.73 C 150.09 141.38 150.62 144.66 151.25 147.55 C 151.54 148.71 151.87 149.87 152.22 151.01 C 150.54 149.63 148.99 148.10 147.54 146.49 C 148.11 144.03 148.56 141.55 149.15 139.09 C 150.86 136.24 154.31 135.13 157.43 134.67 Z" />
</g>
<g id="#484647ff">
<path fill="#484647" opacity="1.00" d=" M 151.78 138.73 C 152.48 137.68 153.48 136.21 154.95 136.52 C 157.05 137.25 158.90 138.56 161.00 139.30 C 162.96 138.78 164.64 137.55 166.39 136.57 C 168.72 137.40 171.05 138.24 173.39 139.06 C 173.33 139.78 173.21 141.21 173.16 141.93 C 170.15 140.28 166.76 138.59 163.27 139.86 C 158.57 141.15 154.57 144.05 151.25 147.55 C 150.62 144.66 150.09 141.38 151.78 138.73 Z" />
</g>
<g id="#0707078f">
<path fill="#070707" opacity="0.56" d=" M 147.37 147.24 C 147.17 144.38 147.31 141.44 149.15 139.09 C 148.56 141.55 148.11 144.03 147.54 146.49 L 147.37 147.24 Z" />
</g>
<g id="#6d6c6eff">
<path fill="#6d6c6e" opacity="1.00" d=" M 163.27 139.86 C 166.76 138.59 170.15 140.28 173.16 141.93 C 173.08 142.75 172.93 144.40 172.86 145.22 C 170.94 144.38 169.05 143.48 167.17 142.59 C 165.84 141.71 164.56 140.79 163.27 139.86 Z" />
</g>
<g id="#7adef6ff">
<path fill="#7adef6" opacity="1.00" d=" M 173.39 139.06 C 174.09 139.42 174.80 139.78 175.52 140.14 C 175.74 141.33 175.98 142.53 176.22 143.73 C 176.45 144.75 176.69 145.77 176.94 146.79 C 175.55 146.33 174.19 145.80 172.86 145.22 C 172.93 144.40 173.08 142.75 173.16 141.93 C 173.21 141.21 173.33 139.78 173.39 139.06 Z" />
</g>
<g id="#343334fd">
<path fill="#343334" opacity="1.00" d=" M 175.52 140.14 C 181.95 141.60 188.74 142.78 194.35 146.47 C 194.26 146.88 194.08 147.70 193.98 148.11 C 188.11 146.48 182.15 145.16 176.22 143.73 C 175.98 142.53 175.74 141.33 175.52 140.14 Z" />
</g>
<g id="#5491a2fd">
<path fill="#5491a2" opacity="1.00" d=" M 151.25 147.55 C 154.57 144.05 158.57 141.15 163.27 139.86 C 164.56 140.79 165.84 141.71 167.17 142.59 C 165.66 142.65 164.16 142.76 162.67 142.93 C 158.89 143.28 155.49 145.47 154.16 149.11 C 153.69 150.41 153.29 151.73 152.87 153.05 C 152.71 152.54 152.38 151.52 152.22 151.01 C 151.87 149.87 151.54 148.71 151.25 147.55 Z" />
</g>
<g id="#323132ff">
<path fill="#323132" opacity="1.00" d=" M 154.16 149.11 C 155.49 145.47 158.89 143.28 162.67 142.93 C 164.82 147.22 168.56 150.32 172.78 152.45 C 171.21 154.80 169.98 157.39 169.13 160.09 C 163.98 156.66 158.66 153.40 154.16 149.11 Z" />
</g>
<g id="#282727ff">
<path fill="#282727" opacity="1.00" d=" M 162.67 142.93 C 164.16 142.76 165.66 142.65 167.17 142.59 C 169.05 143.48 170.94 144.38 172.86 145.22 C 174.19 145.80 175.55 146.33 176.94 146.79 C 177.65 146.87 179.08 147.04 179.79 147.12 C 177.42 148.85 175.01 150.54 172.78 152.45 C 168.56 150.32 164.82 147.22 162.67 142.93 Z" />
</g>
<g id="#615f61ff">
<path fill="#615f61" opacity="1.00" d=" M 176.22 143.73 C 182.15 145.16 188.11 146.48 193.98 148.11 C 193.67 149.55 193.39 150.99 193.12 152.44 C 190.43 149.85 187.02 148.11 183.35 147.49 C 182.16 147.35 180.98 147.23 179.79 147.12 C 179.08 147.04 177.65 146.87 176.94 146.79 C 176.69 145.77 176.45 144.75 176.22 143.73 Z" />
</g>
<g id="#588a98ff">
<path fill="#588a98" opacity="1.00" d=" M 194.35 146.47 C 194.73 145.97 195.48 144.98 195.86 144.48 L 196.51 145.37 C 196.15 148.35 195.54 151.29 194.79 154.20 C 194.37 153.76 193.53 152.88 193.12 152.44 C 193.39 150.99 193.67 149.55 193.98 148.11 C 194.08 147.70 194.26 146.88 194.35 146.47 Z" />
</g>
<g id="#202020fe">
<path fill="#202020" opacity="1.00" d=" M 195.86 144.48 C 199.48 145.37 203.12 146.58 206.90 146.33 C 210.19 146.27 213.49 145.46 216.77 146.00 C 218.84 147.37 219.67 149.93 220.88 152.00 C 219.51 151.32 218.11 150.72 216.68 150.21 C 211.27 149.58 205.55 150.23 200.48 147.89 L 199.89 147.52 C 198.75 146.82 197.61 146.11 196.51 145.37 L 195.86 144.48 Z" />
</g>
<g id="#575859ff">
<path fill="#575859" opacity="1.00" d=" M 196.51 145.37 C 197.61 146.11 198.75 146.82 199.89 147.52 C 199.46 150.08 198.99 152.63 198.47 155.16 C 197.82 155.22 196.52 155.34 195.87 155.40 C 195.60 155.10 195.06 154.50 194.79 154.20 C 195.54 151.29 196.15 148.35 196.51 145.37 Z" />
</g>
<g id="#4993a5ff">
<path fill="#4993a5" opacity="1.00" d=" M 179.79 147.12 C 180.98 147.23 182.16 147.35 183.35 147.49 C 180.88 148.93 178.33 150.32 176.19 152.24 C 173.84 154.36 172.35 157.20 170.87 159.94 C 170.28 161.02 169.62 162.06 168.96 163.09 C 169.00 162.34 169.09 160.84 169.13 160.09 C 169.98 157.39 171.21 154.80 172.78 152.45 C 175.01 150.54 177.42 148.85 179.79 147.12 Z" />
</g>
<g id="#59808cff">
<path fill="#59808c" opacity="1.00" d=" M 199.89 147.52 L 200.48 147.89 C 201.26 149.84 201.88 151.84 202.45 153.87 C 201.13 154.31 199.81 154.77 198.47 155.16 C 198.99 152.63 199.46 150.08 199.89 147.52 Z" />
</g>
<g id="#434349ff">
<path fill="#434349" opacity="1.00" d=" M 200.48 147.89 C 205.55 150.23 211.27 149.58 216.68 150.21 C 217.00 151.05 217.32 151.90 217.64 152.75 C 215.92 153.14 214.20 153.53 212.49 153.95 C 210.39 154.45 208.31 155.08 206.26 155.76 C 208.63 157.30 211.12 158.71 213.79 159.68 L 213.59 160.35 C 212.92 161.62 212.23 162.88 211.54 164.15 C 211.37 163.63 211.03 162.59 210.86 162.07 C 206.34 166.02 202.03 170.20 198.16 174.79 C 200.13 178.14 201.84 181.63 203.28 185.24 C 203.94 185.48 204.61 185.73 205.28 185.97 C 205.58 184.39 205.88 182.81 206.20 181.23 C 207.19 182.18 208.23 183.10 209.05 184.21 C 209.09 185.58 208.84 186.92 208.68 188.28 C 210.40 189.23 212.12 190.17 213.86 191.10 C 213.45 191.37 212.63 191.93 212.22 192.20 C 209.15 192.74 206.10 193.35 203.07 194.05 C 204.89 194.60 206.70 195.21 208.56 195.69 C 208.93 195.70 209.68 195.73 210.05 195.74 C 210.05 196.12 210.06 196.87 210.06 197.24 L 210.10 198.09 C 209.25 198.07 207.56 198.03 206.72 198.00 C 208.69 200.86 210.93 203.54 213.30 206.08 C 213.75 204.00 214.05 201.86 214.87 199.88 C 216.13 198.51 217.76 197.56 219.28 196.52 C 220.25 198.60 221.05 200.76 221.88 202.91 C 223.04 202.40 224.22 201.89 225.37 201.34 C 224.05 202.81 222.80 204.34 221.54 205.86 C 221.58 205.40 221.65 204.48 221.68 204.02 C 219.81 205.72 217.99 207.49 216.20 209.29 C 213.77 209.50 211.36 209.92 208.96 210.35 C 210.34 211.53 211.62 212.89 213.28 213.69 C 214.72 214.00 216.19 213.52 217.60 213.20 C 217.96 213.66 218.33 214.13 218.70 214.60 C 219.46 215.57 220.22 216.55 220.97 217.53 C 220.53 217.49 219.64 217.39 219.20 217.35 C 218.09 217.24 216.98 217.07 215.88 217.21 C 214.14 218.14 212.79 219.61 211.32 220.89 C 215.30 223.18 219.73 224.91 223.05 228.19 C 223.33 230.19 221.49 231.56 220.57 233.12 C 216.71 228.61 212.68 224.25 208.85 219.70 C 208.71 219.02 208.57 218.34 208.43 217.66 C 208.83 216.31 209.24 214.96 209.65 213.62 C 208.11 214.78 206.54 215.92 205.19 217.29 C 203.97 218.57 202.51 219.81 201.99 221.56 C 202.11 223.80 203.66 225.70 203.87 227.93 C 202.30 231.89 198.55 234.42 195.51 237.22 C 193.31 235.07 191.10 232.93 188.89 230.80 C 188.27 231.16 187.03 231.87 186.41 232.23 C 185.88 230.82 185.37 229.40 184.86 227.99 C 186.42 228.04 187.99 228.10 189.55 228.16 C 192.02 228.25 194.49 228.31 196.97 228.38 C 196.49 226.77 196.02 225.15 195.56 223.53 C 194.16 223.66 192.77 223.79 191.37 223.93 C 191.70 221.25 192.08 218.58 192.78 215.97 C 194.01 214.30 195.21 212.60 196.39 210.89 C 194.82 211.59 193.25 212.29 191.73 213.09 C 190.44 210.55 189.17 208.00 187.92 205.45 C 186.23 205.84 184.55 206.25 182.85 206.60 C 180.75 206.48 178.39 208.46 180.02 210.54 C 179.28 211.19 178.57 211.87 177.88 212.58 C 177.06 211.41 176.23 210.26 175.41 209.10 C 169.92 212.00 164.10 214.49 157.82 214.87 C 157.64 214.02 157.28 212.32 157.11 211.47 C 156.46 212.71 155.86 213.97 155.22 215.21 C 155.05 215.57 154.73 216.31 154.56 216.68 C 154.38 217.15 154.01 218.09 153.82 218.56 C 152.57 218.29 151.31 218.03 150.06 217.79 C 150.58 216.51 151.11 215.23 151.62 213.95 C 151.74 213.64 151.99 213.02 152.11 212.70 C 152.79 212.18 153.50 211.69 154.22 211.21 C 157.22 209.81 160.37 208.76 163.43 207.47 C 165.57 206.01 166.83 203.70 168.03 201.48 C 164.39 199.97 160.80 198.35 157.37 196.43 L 157.76 195.59 C 161.61 195.45 165.44 195.96 169.26 196.36 C 168.54 199.02 168.23 201.77 167.95 204.51 C 169.60 203.69 171.31 202.93 172.79 201.82 C 174.27 198.02 174.15 193.81 174.37 189.79 C 175.13 192.59 176.16 195.31 177.18 198.03 C 179.91 196.36 183.20 195.13 185.06 192.40 C 185.11 190.53 184.64 188.71 184.41 186.87 C 184.61 185.39 184.95 183.94 185.38 182.51 C 185.62 181.89 186.12 180.65 186.37 180.03 C 187.41 177.54 188.09 174.92 188.70 172.30 C 184.76 174.55 180.87 176.94 176.61 178.56 C 173.43 179.76 170.34 181.20 167.47 183.05 L 166.88 183.39 C 164.28 184.97 161.69 186.55 159.01 187.97 C 157.43 188.52 155.82 189.01 154.19 189.36 C 154.31 188.91 154.55 188.01 154.68 187.56 C 155.09 185.08 157.24 183.55 158.98 181.97 C 162.83 178.82 166.65 175.50 171.16 173.31 C 174.64 171.84 177.63 169.51 180.00 166.58 C 179.18 165.99 177.54 164.82 176.72 164.23 C 178.31 163.86 179.92 163.52 181.54 163.23 C 182.42 163.84 183.31 164.45 184.20 165.06 C 185.81 164.07 187.42 163.08 188.96 161.99 C 189.77 161.39 190.59 160.77 191.39 160.15 C 187.48 160.10 183.55 160.12 179.67 160.60 C 181.44 159.48 183.15 158.11 185.20 157.54 C 188.87 157.85 192.36 159.25 196.02 159.64 C 197.99 158.91 200.09 158.29 201.73 156.91 C 202.13 155.94 202.31 154.90 202.45 153.87 C 201.88 151.84 201.26 149.84 200.48 147.89 M 201.05 199.20 C 200.45 200.81 201.85 201.50 203.09 202.05 C 205.03 201.55 205.22 199.26 206.06 197.76 C 204.37 198.18 202.67 198.58 201.05 199.20 M 194.03 198.79 C 192.58 199.22 193.41 201.56 194.81 200.92 C 196.26 200.48 195.42 198.15 194.03 198.79 M 191.51 210.29 C 193.82 210.34 195.34 208.98 196.22 206.95 C 194.35 207.57 191.94 207.98 191.51 210.29 M 201.71 213.32 C 202.91 213.04 204.09 212.69 205.25 212.28 C 205.51 211.58 206.02 210.19 206.28 209.49 C 204.47 210.39 202.95 211.73 201.71 213.32 Z" />
</g>
<g id="#1e1e1eff">
<path fill="#1e1e1e" opacity="1.00" d=" M 176.19 152.24 C 178.33 150.32 180.88 148.93 183.35 147.49 C 187.02 148.11 190.43 149.85 193.12 152.44 C 193.53 152.88 194.37 153.76 194.79 154.20 C 195.06 154.50 195.60 155.10 195.87 155.40 C 195.90 156.81 195.96 158.23 196.02 159.64 C 192.36 159.25 188.87 157.85 185.20 157.54 C 183.15 158.11 181.44 159.48 179.67 160.60 C 177.58 161.96 175.55 163.39 173.48 164.76 C 172.39 163.28 169.85 162.11 170.87 159.94 C 172.35 157.20 173.84 154.36 176.19 152.24 Z" />
</g>
<g id="#262526fe">
<path fill="#262526" opacity="1.00" d=" M 154.16 149.11 C 158.66 153.40 163.98 156.66 169.13 160.09 C 169.09 160.84 169.00 162.34 168.96 163.09 C 163.37 160.11 158.17 156.50 152.87 153.05 C 153.29 151.73 153.69 150.41 154.16 149.11 Z" />
</g>
<g id="#3d3c40fa">
<path fill="#3d3c40" opacity="0.98" d=" M 216.68 150.21 C 218.11 150.72 219.51 151.32 220.88 152.00 C 222.36 153.65 223.47 155.60 225.02 157.19 C 227.46 159.13 230.64 159.89 233.04 161.90 C 234.08 163.18 234.13 164.97 234.64 166.50 C 232.01 166.17 229.22 165.78 227.22 163.86 C 223.46 160.47 219.05 158.02 214.69 155.51 C 214.14 155.12 213.04 154.34 212.49 153.95 C 214.20 153.53 215.92 153.14 217.64 152.75 C 217.32 151.90 217.00 151.05 216.68 150.21 Z" />
</g>
<g id="#242527bc">
<path fill="#242527" opacity="0.74" d=" M 202.45 153.87 C 202.31 154.90 202.13 155.94 201.73 156.91 C 200.09 158.29 197.99 158.91 196.02 159.64 C 195.96 158.23 195.90 156.81 195.87 155.40 C 196.52 155.34 197.82 155.22 198.47 155.16 C 199.81 154.77 201.13 154.31 202.45 153.87 Z" />
</g>
<g id="#feffffff">
<path fill="#feffff" opacity="1.00" d=" M 206.26 155.76 C 208.31 155.08 210.39 154.45 212.49 153.95 C 213.04 154.34 214.14 155.12 214.69 155.51 C 214.41 156.91 214.11 158.30 213.79 159.68 C 211.12 158.71 208.63 157.30 206.26 155.76 Z" />
</g>
<g id="#59565eff">
<path fill="#59565e" opacity="1.00" d=" M 214.69 155.51 C 219.05 158.02 223.46 160.47 227.22 163.86 C 229.22 165.78 232.01 166.17 234.64 166.50 C 233.92 167.87 233.23 169.25 232.52 170.63 C 229.77 169.62 226.98 168.66 224.08 168.20 C 221.97 167.72 220.33 169.47 218.66 170.41 C 220.14 172.80 221.64 175.18 223.13 177.55 C 227.17 176.12 231.21 174.68 235.37 173.63 C 235.57 174.12 235.96 175.10 236.15 175.59 C 235.61 177.62 234.63 179.52 233.35 181.18 C 232.26 180.45 231.18 179.73 230.10 179.01 C 226.86 183.62 222.98 187.70 219.06 191.74 C 219.13 188.42 218.87 185.10 218.45 181.81 C 218.40 181.41 218.30 180.63 218.25 180.24 C 218.18 179.51 218.05 178.05 217.98 177.31 C 217.50 171.51 218.15 164.79 213.59 160.35 L 213.79 159.68 C 214.11 158.30 214.41 156.91 214.69 155.51 Z" />
</g>
<g id="#4d8494fe">
<path fill="#4d8494" opacity="1.00" d=" M 179.67 160.60 C 183.55 160.12 187.48 160.10 191.39 160.15 C 190.59 160.77 189.77 161.39 188.96 161.99 C 186.48 162.41 184.00 162.78 181.54 163.23 C 179.92 163.52 178.31 163.86 176.72 164.23 C 175.44 164.53 174.17 164.83 172.90 165.14 L 173.48 164.76 C 175.55 163.39 177.58 161.96 179.67 160.60 Z" />
</g>
<g id="#b4f4f7ff">
<path fill="#b4f4f7" opacity="1.00" d=" M 211.54 164.15 C 212.23 162.88 212.92 161.62 213.59 160.35 C 218.15 164.79 217.50 171.51 217.98 177.31 C 216.97 174.47 215.56 171.77 213.71 169.39 C 214.48 168.58 215.17 167.71 215.78 166.77 C 216.32 164.76 214.50 163.27 213.53 161.75 C 213.22 163.93 212.93 166.12 212.79 168.32 C 212.41 166.92 211.98 165.53 211.54 164.15 Z" />
</g>
<g id="#59595cff">
<path fill="#59595c" opacity="1.00" d=" M 181.54 163.23 C 184.00 162.78 186.48 162.41 188.96 161.99 C 187.42 163.08 185.81 164.07 184.20 165.06 C 183.31 164.45 182.42 163.84 181.54 163.23 Z" />
</g>
<g id="#65636bff">
<path fill="#65636b" opacity="1.00" d=" M 198.16 174.79 C 202.03 170.20 206.34 166.02 210.86 162.07 C 211.03 162.59 211.37 163.63 211.54 164.15 C 211.98 165.53 212.41 166.92 212.79 168.32 L 212.76 169.26 C 212.72 172.05 212.17 174.98 213.13 177.68 C 214.32 179.20 216.59 179.36 218.25 180.24 C 218.30 180.63 218.40 181.41 218.45 181.81 C 217.16 181.99 215.86 182.18 214.57 182.38 C 214.32 185.28 214.12 188.19 213.86 191.10 C 212.12 190.17 210.40 189.23 208.68 188.28 C 208.84 186.92 209.09 185.58 209.05 184.21 C 208.23 183.10 207.19 182.18 206.20 181.23 C 205.88 182.81 205.58 184.39 205.28 185.97 C 204.61 185.73 203.94 185.48 203.28 185.24 C 201.84 181.63 200.13 178.14 198.16 174.79 Z" />
</g>
<g id="#f5ffffff">
<path fill="#f5ffff" opacity="1.00" d=" M 213.53 161.75 C 214.50 163.27 216.32 164.76 215.78 166.77 C 215.17 167.71 214.48 168.58 213.71 169.39 L 212.76 169.26 L 212.79 168.32 C 212.93 166.12 213.22 163.93 213.53 161.75 Z" />
</g>
<g id="#181818ff">
<path fill="#181818" opacity="1.00" d=" M 172.90 165.14 C 174.17 164.83 175.44 164.53 176.72 164.23 C 177.54 164.82 179.18 165.99 180.00 166.58 C 177.63 169.51 174.64 171.84 171.16 173.31 C 171.67 170.57 172.27 167.85 172.90 165.14 Z" />
</g>
<g id="#4a474cff">
<path fill="#4a474c" opacity="1.00" d=" M 218.66 170.41 C 220.33 169.47 221.97 167.72 224.08 168.20 C 226.98 168.66 229.77 169.62 232.52 170.63 C 233.69 171.39 234.47 172.59 235.37 173.63 C 231.21 174.68 227.17 176.12 223.13 177.55 C 221.64 175.18 220.14 172.80 218.66 170.41 Z" />
</g>
<g id="#f7ffffff">
<path fill="#f7ffff" opacity="1.00" d=" M 212.76 169.26 L 213.71 169.39 C 215.56 171.77 216.97 174.47 217.98 177.31 C 218.05 178.05 218.18 179.51 218.25 180.24 C 216.59 179.36 214.32 179.20 213.13 177.68 C 212.17 174.98 212.72 172.05 212.76 169.26 Z" />
</g>
<g id="#29282bff">
<path fill="#29282b" opacity="1.00" d=" M 176.61 178.56 C 180.87 176.94 184.76 174.55 188.70 172.30 C 188.09 174.92 187.41 177.54 186.37 180.03 C 182.18 179.92 177.81 180.09 174.03 182.12 C 173.86 182.44 173.52 183.08 173.36 183.39 C 173.24 183.63 173.00 184.09 172.88 184.33 C 172.59 183.60 172.30 182.88 171.99 182.16 C 170.48 182.44 168.97 182.71 167.47 183.05 C 170.34 181.20 173.43 179.76 176.61 178.56 Z" />
</g>
<g id="#3a3b40ff">
<path fill="#3a3b40" opacity="1.00" d=" M 236.15 175.59 L 236.39 174.85 C 236.81 178.03 237.66 181.16 239.26 183.97 C 238.25 186.84 236.65 189.44 234.69 191.75 C 234.99 191.80 235.58 191.89 235.88 191.94 C 234.77 193.00 233.67 194.07 232.52 195.08 C 231.24 195.81 229.90 196.42 228.58 197.06 C 227.73 196.75 226.88 196.45 226.03 196.15 C 224.72 195.70 223.40 195.26 222.09 194.82 C 225.81 190.24 229.49 185.64 233.35 181.18 C 234.63 179.52 235.61 177.62 236.15 175.59 Z" />
</g>
<g id="#367582ff">
<path fill="#367582" opacity="1.00" d=" M 174.03 182.12 C 177.81 180.09 182.18 179.92 186.37 180.03 C 186.12 180.65 185.62 181.89 185.38 182.51 C 181.40 183.09 177.38 183.51 173.36 183.39 C 173.52 183.08 173.86 182.44 174.03 182.12 Z" />
</g>
<g id="#49494fff">
<path fill="#49494f" opacity="1.00" d=" M 219.06 191.74 C 222.98 187.70 226.86 183.62 230.10 179.01 C 231.18 179.73 232.26 180.45 233.35 181.18 C 229.49 185.64 225.81 190.24 222.09 194.82 C 223.40 195.26 224.72 195.70 226.03 196.15 C 226.33 197.35 226.63 198.55 226.93 199.76 C 226.54 200.15 225.76 200.95 225.37 201.34 C 224.22 201.89 223.04 202.40 221.88 202.91 C 221.05 200.76 220.25 198.60 219.28 196.52 L 219.01 195.99 C 218.56 195.11 218.11 194.24 217.66 193.36 C 218.01 192.96 218.71 192.15 219.06 191.74 Z" />
</g>
<g id="#131313ff">
<path fill="#131313" opacity="1.00" d=" M 167.47 183.05 C 168.97 182.71 170.48 182.44 171.99 182.16 C 172.30 182.88 172.59 183.60 172.88 184.33 C 173.49 186.11 173.94 187.95 174.37 189.79 C 174.15 193.81 174.27 198.02 172.79 201.82 C 171.31 202.93 169.60 203.69 167.95 204.51 C 168.23 201.77 168.54 199.02 169.26 196.36 C 169.38 196.00 169.60 195.26 169.72 194.90 C 171.34 190.81 168.55 186.94 166.88 183.39 L 167.47 183.05 Z" />
</g>
<g id="#256572ff">
<path fill="#256572" opacity="1.00" d=" M 173.36 183.39 C 177.38 183.51 181.40 183.09 185.38 182.51 C 184.95 183.94 184.61 185.39 184.41 186.87 C 183.42 187.75 182.44 188.63 181.45 189.52 C 178.86 187.38 176.09 185.41 172.88 184.33 C 173.00 184.09 173.24 183.63 173.36 183.39 Z" />
</g>
<g id="#94d9e2ff">
<path fill="#94d9e2" opacity="1.00" d=" M 214.57 182.38 C 215.86 182.18 217.16 181.99 218.45 181.81 C 218.87 185.10 219.13 188.42 219.06 191.74 C 218.71 192.15 218.01 192.96 217.66 193.36 C 218.11 194.24 218.56 195.11 219.01 195.99 C 216.83 195.85 214.65 195.86 212.46 195.85 C 212.38 194.63 212.30 193.42 212.22 192.20 C 212.63 191.93 213.45 191.37 213.86 191.10 C 214.12 188.19 214.32 185.28 214.57 182.38 M 215.96 182.44 C 214.75 185.69 214.98 189.20 215.20 192.60 C 216.13 191.95 217.04 191.27 217.91 190.56 C 218.77 188.15 218.49 185.48 217.91 183.04 C 217.43 182.89 216.45 182.59 215.96 182.44 M 213.40 193.19 C 212.23 194.66 214.77 196.32 215.74 194.79 C 216.92 193.32 214.37 191.66 213.40 193.19 Z" />
</g>
<g id="#fcffffff">
<path fill="#fcffff" opacity="1.00" d=" M 215.96 182.44 C 216.45 182.59 217.43 182.89 217.91 183.04 C 218.49 185.48 218.77 188.15 217.91 190.56 C 217.04 191.27 216.13 191.95 215.20 192.60 C 214.98 189.20 214.75 185.69 215.96 182.44 Z" />
</g>
<g id="#26515bff">
<path fill="#26515b" opacity="1.00" d=" M 172.88 184.33 C 176.09 185.41 178.86 187.38 181.45 189.52 C 182.44 188.63 183.42 187.75 184.41 186.87 C 184.64 188.71 185.11 190.53 185.06 192.40 C 183.20 195.13 179.91 196.36 177.18 198.03 C 176.16 195.31 175.13 192.59 174.37 189.79 C 173.94 187.95 173.49 186.11 172.88 184.33 Z" />
</g>
<g id="#686668fa">
<path fill="#686668" opacity="0.98" d=" M 234.69 191.75 C 236.65 189.44 238.25 186.84 239.26 183.97 C 239.61 184.24 240.32 184.76 240.67 185.03 C 241.05 187.63 241.46 190.24 241.46 192.88 C 239.60 192.54 237.74 192.22 235.88 191.94 C 235.58 191.89 234.99 191.80 234.69 191.75 Z" />
</g>
<g id="#505054fd">
<path fill="#505054" opacity="1.00" d=" M 240.67 185.03 C 243.09 188.06 245.53 191.09 247.80 194.24 C 247.18 194.50 245.93 195.02 245.31 195.28 C 243.02 196.20 240.76 197.23 238.40 197.95 C 238.19 197.96 237.76 197.99 237.55 198.00 C 238.86 196.30 240.23 194.64 241.46 192.88 C 241.46 190.24 241.05 187.63 240.67 185.03 Z" />
</g>
<g id="#239c9ec6">
<path fill="#239c9e" opacity="0.78" d=" M 150.96 188.79 C 152.17 188.31 153.41 187.90 154.68 187.56 C 154.55 188.01 154.31 188.91 154.19 189.36 C 152.82 189.79 151.49 189.25 150.14 189.15 L 150.96 188.79 Z" />
</g>
<g id="#1414157a">
<path fill="#141415" opacity="0.48" d=" M 146.88 188.88 C 148.22 188.61 149.60 188.75 150.96 188.79 L 150.14 189.15 C 149.19 189.56 148.23 189.98 147.28 190.39 C 147.07 191.55 146.89 192.71 146.71 193.88 C 148.02 193.69 149.34 193.50 150.65 193.31 C 156.97 194.18 163.32 195.06 169.72 194.90 C 169.60 195.26 169.38 196.00 169.26 196.36 C 165.44 195.96 161.61 195.45 157.76 195.59 C 157.37 195.59 156.59 195.59 156.20 195.59 C 147.81 194.57 139.32 195.36 130.96 194.16 C 134.51 194.20 138.18 194.82 141.66 193.90 C 143.51 192.34 144.89 190.28 146.88 188.88 Z" />
</g>
<g id="#262f32b8">
<path fill="#262f32" opacity="0.72" d=" M 154.19 189.36 C 155.82 189.01 157.43 188.52 159.01 187.97 C 156.12 189.57 153.44 191.53 150.65 193.31 C 149.34 193.50 148.02 193.69 146.71 193.88 C 146.89 192.71 147.07 191.55 147.28 190.39 C 148.23 189.98 149.19 189.56 150.14 189.15 C 151.49 189.25 152.82 189.79 154.19 189.36 Z" />
</g>
<g id="#82f8ffff">
<path fill="#82f8ff" opacity="1.00" d=" M 101.39 193.50 C 102.47 192.26 104.14 191.78 105.55 191.00 C 104.99 192.70 104.43 194.40 103.97 196.13 C 103.94 196.82 103.89 198.19 103.87 198.87 C 104.00 200.35 104.20 201.83 104.41 203.31 C 104.50 204.02 104.70 205.44 104.79 206.16 C 103.38 204.85 101.52 203.76 101.00 201.78 C 100.30 199.08 100.32 196.10 101.39 193.50 Z" />
</g>
<g id="#575658ff">
<path fill="#575658" opacity="1.00" d=" M 105.55 191.00 C 107.95 191.49 110.37 191.94 112.79 192.35 C 111.97 195.62 111.20 198.89 110.46 202.17 C 108.44 202.54 106.42 202.92 104.41 203.31 C 104.20 201.83 104.00 200.35 103.87 198.87 C 105.88 199.52 107.90 200.16 109.92 200.79 C 109.94 198.63 109.97 196.48 110.00 194.32 C 107.99 194.92 105.98 195.52 103.97 196.13 C 104.43 194.40 104.99 192.70 105.55 191.00 Z" />
</g>
<g id="#4c727efc">
<path fill="#4c727e" opacity="1.00" d=" M 112.79 192.35 C 114.15 192.07 115.53 191.79 116.90 191.51 C 115.30 193.06 113.92 194.83 112.86 196.79 C 112.87 198.39 112.95 200.00 113.08 201.60 C 113.13 202.08 113.24 203.02 113.29 203.50 C 112.34 203.06 111.40 202.62 110.46 202.17 C 111.20 198.89 111.97 195.62 112.79 192.35 Z" />
</g>
<g id="#535153ff">
<path fill="#535153" opacity="1.00" d=" M 116.90 191.51 C 118.65 191.76 120.35 192.26 122.04 192.74 C 124.35 193.42 126.62 194.21 128.87 195.05 C 130.66 196.48 132.49 198.24 134.95 198.19 C 141.58 198.66 148.22 197.95 154.85 197.66 C 153.63 200.40 152.74 203.29 152.23 206.25 C 144.93 203.95 137.50 201.89 129.85 201.27 C 129.58 201.88 129.04 203.11 128.77 203.73 C 128.50 204.00 127.94 204.54 127.66 204.80 C 127.71 204.37 127.82 203.51 127.87 203.07 C 128.06 200.97 128.17 198.85 128.29 196.75 C 125.32 196.49 122.35 196.23 119.37 196.27 C 117.19 196.33 115.02 196.58 112.86 196.79 C 113.92 194.83 115.30 193.06 116.90 191.51 Z" />
</g>
<g id="#52575eff">
<path fill="#52575e" opacity="1.00" d=" M 203.07 194.05 C 206.10 193.35 209.15 192.74 212.22 192.20 C 212.30 193.42 212.38 194.63 212.46 195.85 C 214.65 195.86 216.83 195.85 219.01 195.99 L 219.28 196.52 C 217.76 197.56 216.13 198.51 214.87 199.88 C 214.05 201.86 213.75 204.00 213.30 206.08 C 210.93 203.54 208.69 200.86 206.72 198.00 C 207.56 198.03 209.25 198.07 210.10 198.09 C 210.49 197.98 211.29 197.76 211.69 197.64 L 211.57 196.90 L 210.79 196.74 L 210.06 197.24 C 210.06 196.87 210.05 196.12 210.05 195.74 C 210.76 194.37 208.61 192.07 208.06 194.26 C 208.18 194.62 208.43 195.33 208.56 195.69 C 206.70 195.21 204.89 194.60 203.07 194.05 Z" />
</g>
<g id="#1d1d1dfd">
<path fill="#1d1d1d" opacity="1.00" d=" M 122.04 192.74 C 125.01 193.21 127.99 193.69 130.96 194.16 C 139.32 195.36 147.81 194.57 156.20 195.59 C 155.86 196.11 155.19 197.15 154.85 197.66 C 148.22 197.95 141.58 198.66 134.95 198.19 C 132.49 198.24 130.66 196.48 128.87 195.05 C 126.62 194.21 124.35 193.42 122.04 192.74 Z" />
</g>
<g id="#eeffffff">
<path fill="#eeffff" opacity="1.00" d=" M 213.40 193.19 C 214.37 191.66 216.92 193.32 215.74 194.79 C 214.77 196.32 212.23 194.66 213.40 193.19 Z" />
</g>
<g id="#797d80ff">
<path fill="#797d80" opacity="1.00" d=" M 103.97 196.13 C 105.98 195.52 107.99 194.92 110.00 194.32 C 109.97 196.48 109.94 198.63 109.92 200.79 C 107.90 200.16 105.88 199.52 103.87 198.87 C 103.89 198.19 103.94 196.82 103.97 196.13 Z" />
</g>
<g id="#5c7683ff">
<path fill="#5c7683" opacity="1.00" d=" M 208.06 194.26 C 208.61 192.07 210.76 194.37 210.05 195.74 C 209.68 195.73 208.93 195.70 208.56 195.69 C 208.43 195.33 208.18 194.62 208.06 194.26 Z" />
</g>
<g id="#35353afe">
<path fill="#35353a" opacity="1.00" d=" M 228.58 197.06 C 229.90 196.42 231.24 195.81 232.52 195.08 C 234.15 196.12 235.82 197.13 237.55 198.00 C 237.76 197.99 238.19 197.96 238.40 197.95 C 240.76 197.23 243.02 196.20 245.31 195.28 C 242.30 198.89 239.63 202.96 238.73 207.66 C 237.75 211.77 238.92 215.94 239.10 220.06 C 239.27 222.11 237.84 223.76 236.94 225.45 C 236.23 222.25 235.79 218.82 233.95 216.02 C 232.37 214.58 230.32 213.82 228.47 212.83 C 228.17 212.53 227.58 211.93 227.28 211.63 C 225.81 209.81 223.42 209.56 221.28 209.21 C 221.36 208.09 221.45 206.97 221.54 205.86 C 223.82 207.03 226.09 208.22 228.37 209.40 C 230.16 210.31 231.94 211.21 233.73 212.12 C 234.50 209.91 235.26 207.70 236.07 205.51 C 236.26 205.02 236.62 204.05 236.80 203.56 C 234.03 201.43 231.28 199.28 228.58 197.06 M 236.17 215.25 L 235.75 215.96 L 236.16 216.68 L 236.99 216.68 L 237.40 215.97 L 236.99 215.25 L 236.17 215.25 Z" />
</g>
<g id="#737073ff">
<path fill="#737073" opacity="1.00" d=" M 112.86 196.79 C 115.02 196.58 117.19 196.33 119.37 196.27 C 119.48 197.94 119.54 199.62 119.86 201.26 C 122.16 202.91 125.19 202.67 127.87 203.07 C 127.82 203.51 127.71 204.37 127.66 204.80 C 127.03 204.86 125.78 204.96 125.15 205.01 C 121.18 203.69 117.19 202.42 113.08 201.60 C 112.95 200.00 112.87 198.39 112.86 196.79 Z" />
</g>
<g id="#918e91ff">
<path fill="#918e91" opacity="1.00" d=" M 119.37 196.27 C 122.35 196.23 125.32 196.49 128.29 196.75 C 128.17 198.85 128.06 200.97 127.87 203.07 C 125.19 202.67 122.16 202.91 119.86 201.26 C 119.54 199.62 119.48 197.94 119.37 196.27 Z" />
</g>
<g id="#62a3b4ff">
<path fill="#62a3b4" opacity="1.00" d=" M 154.85 197.66 C 155.19 197.15 155.86 196.11 156.20 195.59 C 156.59 195.59 157.37 195.59 157.76 195.59 L 157.37 196.43 C 156.73 197.93 156.14 199.44 155.63 200.99 C 154.74 204.33 154.44 207.78 154.22 211.21 C 153.50 211.69 152.79 212.18 152.11 212.70 C 152.19 210.55 152.14 208.40 152.23 206.25 C 152.74 203.29 153.63 200.40 154.85 197.66 Z" />
</g>
<g id="#7e716dfb">
<path fill="#7e716d" opacity="1.00" d=" M 226.03 196.15 C 226.88 196.45 227.73 196.75 228.58 197.06 C 231.28 199.28 234.03 201.43 236.80 203.56 C 236.62 204.05 236.26 205.02 236.07 205.51 C 233.56 203.87 231.01 202.29 228.46 200.71 C 228.08 200.47 227.31 199.99 226.93 199.76 C 226.63 198.55 226.33 197.35 226.03 196.15 Z" />
</g>
<g id="#686668ff">
<path fill="#686668" opacity="1.00" d=" M 155.63 200.99 C 156.14 199.44 156.73 197.93 157.37 196.43 C 160.80 198.35 164.39 199.97 168.03 201.48 C 166.83 203.70 165.57 206.01 163.43 207.47 C 163.71 206.27 164.01 205.07 164.30 203.88 C 161.41 202.92 158.52 201.96 155.63 200.99 Z" />
</g>
<g id="#89878bff">
<path fill="#89878b" opacity="1.00" d=" M 210.06 197.24 L 210.79 196.74 L 211.57 196.90 L 211.69 197.64 C 211.29 197.76 210.49 197.98 210.10 198.09 L 210.06 197.24 Z" />
</g>
<g id="#626164ff">
<path fill="#626164" opacity="1.00" d=" M 201.05 199.20 C 202.67 198.58 204.37 198.18 206.06 197.76 C 205.22 199.26 205.03 201.55 203.09 202.05 C 201.85 201.50 200.45 200.81 201.05 199.20 Z" />
</g>
<g id="#6d6b6eff">
<path fill="#6d6b6e" opacity="1.00" d=" M 194.03 198.79 C 195.42 198.15 196.26 200.48 194.81 200.92 C 193.41 201.56 192.58 199.22 194.03 198.79 Z" />
</g>
<g id="#151514ff">
<path fill="#151514" opacity="1.00" d=" M 225.37 201.34 C 225.76 200.95 226.54 200.15 226.93 199.76 C 227.31 199.99 228.08 200.47 228.46 200.71 C 228.24 203.60 228.23 206.50 228.37 209.40 C 226.09 208.22 223.82 207.03 221.54 205.86 C 222.80 204.34 224.05 202.81 225.37 201.34 Z" />
</g>
<g id="#2d2c2cff">
<path fill="#2d2c2c" opacity="1.00" d=" M 129.85 201.27 C 137.50 201.89 144.93 203.95 152.23 206.25 C 152.14 208.40 152.19 210.55 152.11 212.70 C 151.99 213.02 151.74 213.64 151.62 213.95 C 150.08 211.95 148.45 209.78 145.92 209.00 C 140.31 206.94 134.42 205.71 128.77 203.73 C 129.04 203.11 129.58 201.88 129.85 201.27 Z" />
</g>
<g id="#838183ff">
<path fill="#838183" opacity="1.00" d=" M 154.22 211.21 C 154.44 207.78 154.74 204.33 155.63 200.99 C 158.52 201.96 161.41 202.92 164.30 203.88 C 164.01 205.07 163.71 206.27 163.43 207.47 C 160.37 208.76 157.22 209.81 154.22 211.21 Z" />
</g>
<g id="#181818fe">
<path fill="#181818" opacity="1.00" d=" M 104.41 203.31 C 106.42 202.92 108.44 202.54 110.46 202.17 C 111.40 202.62 112.34 203.06 113.29 203.50 C 116.96 205.30 121.17 205.13 125.15 205.01 C 125.78 204.96 127.03 204.86 127.66 204.80 C 127.94 204.54 128.50 204.00 128.77 203.73 C 134.42 205.71 140.31 206.94 145.92 209.00 C 148.45 209.78 150.08 211.95 151.62 213.95 C 150.44 213.66 149.26 213.36 148.08 213.06 C 142.91 211.83 138.07 209.58 132.96 208.14 C 123.80 205.79 114.19 204.20 104.79 206.16 C 104.70 205.44 104.50 204.02 104.41 203.31 Z" />
</g>
<g id="#514f51fc">
<path fill="#514f51" opacity="1.00" d=" M 113.08 201.60 C 117.19 202.42 121.18 203.69 125.15 205.01 C 121.17 205.13 116.96 205.30 113.29 203.50 C 113.24 203.02 113.13 202.08 113.08 201.60 Z" />
</g>
<g id="#525155ff">
<path fill="#525155" opacity="1.00" d=" M 216.20 209.29 C 217.99 207.49 219.81 205.72 221.68 204.02 C 221.65 204.48 221.58 205.40 221.54 205.86 C 221.45 206.97 221.36 208.09 221.28 209.21 C 223.42 209.56 225.81 209.81 227.28 211.63 C 226.32 212.73 225.35 213.83 224.39 214.94 C 223.30 214.73 222.21 214.58 221.11 214.48 C 220.51 214.51 219.30 214.57 218.70 214.60 C 218.33 214.13 217.96 213.66 217.60 213.20 C 218.30 211.88 218.92 210.52 219.56 209.17 C 218.72 209.20 217.04 209.26 216.20 209.29 Z" />
</g>
<g id="#393a40ff">
<path fill="#393a40" opacity="1.00" d=" M 182.85 206.60 C 184.55 206.25 186.23 205.84 187.92 205.45 C 189.17 208.00 190.44 210.55 191.73 213.09 C 189.06 215.29 186.87 218.00 184.24 220.23 C 182.06 222.12 179.25 222.99 176.59 223.96 C 176.81 225.20 177.03 226.44 177.24 227.68 C 177.48 229.15 177.70 230.62 177.92 232.09 C 179.55 231.70 181.17 231.30 182.80 230.90 C 182.53 229.27 182.27 227.63 182.00 226.00 C 185.25 222.30 188.90 219.00 192.78 215.97 C 192.08 218.58 191.70 221.25 191.37 223.93 C 190.77 225.34 190.16 226.75 189.55 228.16 C 187.99 228.10 186.42 228.04 184.86 227.99 C 185.37 229.40 185.88 230.82 186.41 232.23 C 186.59 232.70 186.95 233.63 187.13 234.10 C 186.65 234.04 185.68 233.91 185.20 233.85 C 183.09 233.43 181.12 234.31 179.37 235.41 C 177.78 236.39 176.21 237.42 174.64 238.44 C 175.16 239.63 175.67 240.83 176.22 242.02 C 177.33 244.41 178.56 246.74 179.88 249.03 C 180.42 249.98 180.99 250.94 181.55 251.90 C 179.07 253.81 176.59 255.74 174.13 257.67 C 172.96 256.15 171.82 254.61 170.66 253.09 C 169.45 252.62 168.24 252.16 167.04 251.71 C 167.20 250.83 167.34 249.96 167.46 249.08 C 170.33 248.59 173.20 248.04 176.07 247.51 C 175.53 245.56 175.00 243.62 174.46 241.68 C 172.01 243.00 169.58 244.41 167.35 246.10 C 166.34 246.84 165.35 247.61 164.35 248.39 C 164.45 250.18 164.54 251.98 164.64 253.77 C 162.79 253.75 160.70 252.97 159.05 254.12 C 156.70 255.61 154.72 257.59 152.66 259.43 C 153.62 261.71 154.59 263.99 155.59 266.26 C 155.72 265.00 155.85 263.74 155.94 262.47 C 156.57 264.02 157.27 265.54 157.91 267.09 C 158.14 267.72 158.58 268.98 158.81 269.60 C 158.51 270.26 158.21 270.93 157.92 271.59 C 157.03 271.24 156.14 270.89 155.26 270.51 C 151.31 268.98 148.19 266.06 145.47 262.90 C 145.05 262.83 144.21 262.71 143.79 262.64 C 144.09 259.93 144.51 257.24 144.82 254.54 C 142.89 255.37 140.73 255.82 139.08 257.20 C 137.70 259.18 138.18 261.78 137.99 264.06 C 133.96 262.48 129.87 261.05 125.74 259.77 C 126.25 259.74 127.27 259.69 127.78 259.66 C 130.50 259.50 133.36 259.27 135.70 257.71 C 139.90 255.02 143.37 251.37 146.95 247.93 C 152.36 242.59 158.23 237.70 164.57 233.50 C 167.31 233.50 170.05 233.46 172.80 233.41 C 171.44 230.64 170.10 227.87 168.81 225.08 C 166.94 225.38 165.06 225.68 163.21 226.09 C 165.55 223.93 168.19 222.13 170.70 220.18 C 173.37 217.92 175.53 215.15 177.88 212.58 C 178.57 211.87 179.28 211.19 180.02 210.54 C 181.32 209.54 182.59 208.30 182.85 206.60 Z" />
</g>
<g id="#666466ff">
<path fill="#666466" opacity="1.00" d=" M 180.02 210.54 C 178.39 208.46 180.75 206.48 182.85 206.60 C 182.59 208.30 181.32 209.54 180.02 210.54 Z" />
</g>
<g id="#646464ff">
<path fill="#646464" opacity="1.00" d=" M 191.51 210.29 C 191.94 207.98 194.35 207.57 196.22 206.95 C 195.34 208.98 193.82 210.34 191.51 210.29 Z" />
</g>
<g id="#141414ff">
<path fill="#141414" opacity="1.00" d=" M 157.82 214.87 C 164.10 214.49 169.92 212.00 175.41 209.10 C 176.23 210.26 177.06 211.41 177.88 212.58 C 175.53 215.15 173.37 217.92 170.70 220.18 C 170.41 218.63 170.70 216.67 169.22 215.65 C 168.18 214.56 166.61 214.79 165.27 214.89 C 161.66 215.23 158.08 215.83 154.56 216.68 C 154.73 216.31 155.05 215.57 155.22 215.21 C 155.87 215.12 157.17 214.96 157.82 214.87 Z" />
</g>
<g id="#5d5d60ff">
<path fill="#5d5d60" opacity="1.00" d=" M 216.20 209.29 C 217.04 209.26 218.72 209.20 219.56 209.17 C 218.92 210.52 218.30 211.88 217.60 213.20 C 216.19 213.52 214.72 214.00 213.28 213.69 C 211.62 212.89 210.34 211.53 208.96 210.35 C 211.36 209.92 213.77 209.50 216.20 209.29 Z" />
</g>
<g id="#727275ff">
<path fill="#727275" opacity="1.00" d=" M 201.71 213.32 C 202.95 211.73 204.47 210.39 206.28 209.49 C 206.02 210.19 205.51 211.58 205.25 212.28 C 204.09 212.69 202.91 213.04 201.71 213.32 Z" />
</g>
<g id="#68686eff">
<path fill="#68686e" opacity="1.00" d=" M 191.73 213.09 C 193.25 212.29 194.82 211.59 196.39 210.89 C 195.21 212.60 194.01 214.30 192.78 215.97 C 188.90 219.00 185.25 222.30 182.00 226.00 C 180.46 226.67 178.85 227.18 177.24 227.68 C 177.03 226.44 176.81 225.20 176.59 223.96 C 179.25 222.99 182.06 222.12 184.24 220.23 C 186.87 218.00 189.06 215.29 191.73 213.09 Z" />
</g>
<g id="#30d0d2fb">
<path fill="#30d0d2" opacity="1.00" d=" M 155.22 215.21 C 155.86 213.97 156.46 212.71 157.11 211.47 C 157.28 212.32 157.64 214.02 157.82 214.87 C 157.17 214.96 155.87 215.12 155.22 215.21 Z" />
</g>
<g id="#6f6a69ff">
<path fill="#6f6a69" opacity="1.00" d=" M 224.39 214.94 C 225.35 213.83 226.32 212.73 227.28 211.63 C 227.58 211.93 228.17 212.53 228.47 212.83 C 230.32 213.82 232.37 214.58 233.95 216.02 C 235.79 218.82 236.23 222.25 236.94 225.45 L 237.09 226.31 C 232.40 223.04 228.94 218.37 224.39 214.94 Z" />
</g>
<g id="#1514167b">
<path fill="#151416" opacity="0.48" d=" M 148.08 213.06 C 149.26 213.36 150.44 213.66 151.62 213.95 C 151.11 215.23 150.58 216.51 150.06 217.79 C 151.31 218.03 152.57 218.29 153.82 218.56 C 152.00 219.73 149.99 220.53 147.95 221.22 C 147.84 219.05 147.94 216.89 148.26 214.75 C 148.22 214.33 148.13 213.48 148.08 213.06 Z" />
</g>
<g id="#57789fff">
<path fill="#57789f" opacity="1.00" d=" M 205.19 217.29 C 206.54 215.92 208.11 214.78 209.65 213.62 C 209.24 214.96 208.83 216.31 208.43 217.66 C 207.12 218.00 205.81 218.33 204.49 218.65 C 204.67 218.31 205.01 217.63 205.19 217.29 Z" />
</g>
<g id="#767476ff">
<path fill="#767476" opacity="1.00" d=" M 218.70 214.60 C 219.30 214.57 220.51 214.51 221.11 214.48 C 223.79 217.18 226.14 220.20 228.08 223.48 C 226.72 222.71 225.36 221.94 224.07 221.05 C 223.49 220.58 222.91 220.11 222.35 219.62 C 221.63 220.92 220.88 222.20 220.13 223.48 C 219.32 221.53 218.88 219.46 219.20 217.35 C 219.64 217.39 220.53 217.49 220.97 217.53 C 220.22 216.55 219.46 215.57 218.70 214.60 Z" />
</g>
<g id="#1d1d1dff">
<path fill="#1d1d1d" opacity="1.00" d=" M 221.11 214.48 C 222.21 214.58 223.30 214.73 224.39 214.94 C 228.94 218.37 232.40 223.04 237.09 226.31 C 233.07 226.98 230.66 230.45 227.86 233.04 C 228.44 232.27 229.00 231.50 229.54 230.72 C 230.41 229.45 231.25 228.16 232.09 226.88 C 231.72 226.79 230.98 226.62 230.61 226.54 L 229.90 226.37 C 229.27 225.41 228.68 224.44 228.08 223.48 C 226.14 220.20 223.79 217.18 221.11 214.48 Z" />
</g>
<g id="#5d5b60ff">
<path fill="#5d5b60" opacity="1.00" d=" M 236.17 215.25 L 236.99 215.25 L 237.40 215.97 L 236.99 216.68 L 236.16 216.68 L 235.75 215.96 L 236.17 215.25 Z" />
</g>
<g id="#343437ff">
<path fill="#343437" opacity="1.00" d=" M 215.88 217.21 C 216.98 217.07 218.09 217.24 219.20 217.35 C 218.88 219.46 219.32 221.53 220.13 223.48 C 220.88 222.20 221.63 220.92 222.35 219.62 C 222.91 220.11 223.49 220.58 224.07 221.05 C 224.06 222.56 224.07 224.06 224.09 225.57 C 226.03 225.78 227.97 226.02 229.90 226.37 L 230.61 226.54 C 228.89 227.44 227.26 228.50 225.58 229.48 C 226.57 229.79 228.55 230.41 229.54 230.72 C 229.00 231.50 228.44 232.27 227.86 233.04 C 225.73 235.56 222.22 236.01 219.26 237.00 C 219.71 235.97 220.10 234.92 220.41 233.84 L 220.57 233.12 C 221.49 231.56 223.33 230.19 223.05 228.19 C 219.73 224.91 215.30 223.18 211.32 220.89 C 212.79 219.61 214.14 218.14 215.88 217.21 Z" />
</g>
<g id="#504f56ff">
<path fill="#504f56" opacity="1.00" d=" M 201.99 221.56 C 202.51 219.81 203.97 218.57 205.19 217.29 C 205.01 217.63 204.67 218.31 204.49 218.65 C 205.81 218.33 207.12 218.00 208.43 217.66 C 208.57 218.34 208.71 219.02 208.85 219.70 C 208.21 219.78 206.91 219.93 206.26 220.01 C 209.38 223.18 212.06 226.74 214.81 230.22 C 216.17 232.08 218.36 232.96 220.41 233.84 C 220.10 234.92 219.71 235.97 219.26 237.00 C 217.01 239.22 214.45 241.15 211.76 242.81 C 209.99 243.38 208.19 243.84 206.37 244.18 C 205.49 242.95 204.60 241.73 203.71 240.52 C 203.45 240.90 202.93 241.67 202.67 242.05 C 201.93 243.11 201.19 244.17 200.42 245.21 C 198.39 247.89 195.52 249.77 193.37 252.34 C 192.13 253.79 191.06 255.38 189.73 256.75 C 187.71 258.73 185.12 260.03 183.19 262.10 C 181.41 264.05 180.11 266.39 178.23 268.26 C 176.31 270.16 173.77 271.22 171.36 272.35 C 172.09 270.09 172.78 267.82 173.52 265.57 C 171.59 262.01 169.03 258.85 166.01 256.16 C 166.31 254.66 166.71 253.19 167.04 251.71 C 168.24 252.16 169.45 252.62 170.66 253.09 C 171.82 254.61 172.96 256.15 174.13 257.67 C 176.59 255.74 179.07 253.81 181.55 251.90 C 180.99 250.94 180.42 249.98 179.88 249.03 C 179.89 246.78 179.90 244.53 179.74 242.29 C 181.51 244.26 183.45 246.05 185.38 247.87 C 186.49 246.13 189.11 244.73 188.66 242.40 C 187.38 240.31 185.06 239.16 183.17 237.68 C 183.85 236.40 184.53 235.12 185.20 233.85 C 185.68 233.91 186.65 234.04 187.13 234.10 C 186.95 233.63 186.59 232.70 186.41 232.23 C 187.03 231.87 188.27 231.16 188.89 230.80 C 191.10 232.93 193.31 235.07 195.51 237.22 C 198.55 234.42 202.30 231.89 203.87 227.93 C 203.66 225.70 202.11 223.80 201.99 221.56 M 201.56 232.13 C 201.19 233.64 200.83 235.15 200.48 236.66 C 199.55 237.74 199.39 240.57 200.80 241.14 C 201.64 239.89 201.89 237.86 200.99 236.60 C 203.77 236.23 206.55 235.94 209.33 235.64 C 207.21 233.58 204.61 232.00 201.56 232.13 M 190.37 245.83 C 189.43 247.36 189.52 249.68 190.48 251.18 C 191.96 250.45 191.86 246.55 190.37 245.83 M 180.90 262.72 C 181.06 260.11 180.76 257.51 180.09 255.00 C 179.20 257.59 178.52 260.68 180.90 262.72 Z" />
</g>
<g id="#747276ff">
<path fill="#747276" opacity="1.00" d=" M 206.26 220.01 C 206.91 219.93 208.21 219.78 208.85 219.70 C 212.68 224.25 216.71 228.61 220.57 233.12 L 220.41 233.84 C 218.36 232.96 216.17 232.08 214.81 230.22 C 212.06 226.74 209.38 223.18 206.26 220.01 Z" />
<path fill="#747276" opacity="1.00" d=" M 176.22 242.02 C 177.11 241.35 178.01 240.69 178.92 240.05 C 179.13 240.61 179.54 241.73 179.74 242.29 C 179.90 244.53 179.89 246.78 179.88 249.03 C 178.56 246.74 177.33 244.41 176.22 242.02 Z" />
</g>
<g id="#585759ff">
<path fill="#585759" opacity="1.00" d=" M 224.07 221.05 C 225.36 221.94 226.72 222.71 228.08 223.48 C 228.68 224.44 229.27 225.41 229.90 226.37 C 227.97 226.02 226.03 225.78 224.09 225.57 C 224.07 224.06 224.06 222.56 224.07 221.05 Z" />
</g>
<g id="#faffffff">
<path fill="#faffff" opacity="1.00" d=" M 191.37 223.93 C 192.77 223.79 194.16 223.66 195.56 223.53 C 196.02 225.15 196.49 226.77 196.97 228.38 C 194.49 228.31 192.02 228.25 189.55 228.16 C 190.16 226.75 190.77 225.34 191.37 223.93 Z" />
</g>
<g id="#4d4d53ff">
<path fill="#4d4d53" opacity="1.00" d=" M 163.21 226.09 C 165.06 225.68 166.94 225.38 168.81 225.08 C 170.10 227.87 171.44 230.64 172.80 233.41 C 170.05 233.46 167.31 233.50 164.57 233.50 C 164.94 232.22 165.32 230.93 165.69 229.65 C 163.43 230.04 161.17 230.43 158.92 230.82 C 160.20 229.13 161.40 227.28 163.21 226.09 Z" />
</g>
<g id="#55555cff">
<path fill="#55555c" opacity="1.00" d=" M 177.24 227.68 C 178.85 227.18 180.46 226.67 182.00 226.00 C 182.27 227.63 182.53 229.27 182.80 230.90 C 181.17 231.30 179.55 231.70 177.92 232.09 C 177.70 230.62 177.48 229.15 177.24 227.68 Z" />
</g>
<g id="#457a8aff">
<path fill="#457a8a" opacity="1.00" d=" M 230.61 226.54 C 230.98 226.62 231.72 226.79 232.09 226.88 C 231.25 228.16 230.41 229.45 229.54 230.72 C 228.55 230.41 226.57 229.79 225.58 229.48 C 227.26 228.50 228.89 227.44 230.61 226.54 Z" />
</g>
<g id="#2b2b30fe">
<path fill="#2b2b30" opacity="1.00" d=" M 158.92 230.82 C 161.17 230.43 163.43 230.04 165.69 229.65 C 165.32 230.93 164.94 232.22 164.57 233.50 C 158.23 237.70 152.36 242.59 146.95 247.93 C 143.37 251.37 139.90 255.02 135.70 257.71 C 133.36 259.27 130.50 259.50 127.78 259.66 C 129.21 257.50 130.85 255.47 132.91 253.88 C 137.54 250.20 141.97 246.27 146.48 242.45 C 150.79 238.75 155.29 235.23 158.92 230.82 Z" />
</g>
<g id="#79797aff">
<path fill="#79797a" opacity="1.00" d=" M 201.56 232.13 C 204.61 232.00 207.21 233.58 209.33 235.64 C 206.55 235.94 203.77 236.23 200.99 236.60 L 200.48 236.66 C 200.83 235.15 201.19 233.64 201.56 232.13 Z" />
</g>
<g id="#ffffffff">
<path fill="#ffffff" opacity="1.00" d=" M 179.37 235.41 C 181.12 234.31 183.09 233.43 185.20 233.85 C 184.53 235.12 183.85 236.40 183.17 237.68 C 182.20 238.17 181.23 238.68 180.27 239.20 C 180.05 238.25 179.60 236.36 179.37 235.41 Z" />
</g>
<g id="#545966ff">
<path fill="#545966" opacity="1.00" d=" M 174.64 238.44 C 176.21 237.42 177.78 236.39 179.37 235.41 C 179.60 236.36 180.05 238.25 180.27 239.20 C 179.93 239.41 179.26 239.83 178.92 240.05 C 178.01 240.69 177.11 241.35 176.22 242.02 C 175.67 240.83 175.16 239.63 174.64 238.44 Z" />
</g>
<g id="#949296ff">
<path fill="#949296" opacity="1.00" d=" M 200.48 236.66 L 200.99 236.60 C 201.89 237.86 201.64 239.89 200.80 241.14 C 199.39 240.57 199.55 237.74 200.48 236.66 Z" />
</g>
<g id="#3c3d43ff">
<path fill="#3c3d43" opacity="1.00" d=" M 180.27 239.20 C 181.23 238.68 182.20 238.17 183.17 237.68 C 185.06 239.16 187.38 240.31 188.66 242.40 C 189.11 244.73 186.49 246.13 185.38 247.87 C 183.45 246.05 181.51 244.26 179.74 242.29 C 179.54 241.73 179.13 240.61 178.92 240.05 C 179.26 239.83 179.93 239.41 180.27 239.20 Z" />
</g>
<g id="#7d7f89f6">
<path fill="#7d7f89" opacity="0.96" d=" M 202.67 242.05 C 202.93 241.67 203.45 240.90 203.71 240.52 C 204.60 241.73 205.49 242.95 206.37 244.18 C 205.11 243.50 203.89 242.78 202.67 242.05 Z" />
</g>
<g id="#6683abff">
<path fill="#6683ab" opacity="1.00" d=" M 167.35 246.10 C 169.58 244.41 172.01 243.00 174.46 241.68 C 175.00 243.62 175.53 245.56 176.07 247.51 C 173.20 248.04 170.33 248.59 167.46 249.08 C 167.43 248.34 167.38 246.84 167.35 246.10 M 170.12 245.00 C 169.59 246.07 169.11 247.18 168.70 248.31 C 170.07 247.82 171.64 247.70 172.84 246.80 C 173.51 245.57 173.93 244.23 174.42 242.92 C 172.95 243.52 171.39 244.03 170.12 245.00 Z" />
</g>
<g id="#1f202397">
<path fill="#1f2023" opacity="0.59" d=" M 200.42 245.21 C 201.19 244.17 201.93 243.11 202.67 242.05 C 203.89 242.78 205.11 243.50 206.37 244.18 C 208.19 243.84 209.99 243.38 211.76 242.81 C 210.43 244.03 209.18 245.43 207.53 246.23 C 205.12 246.27 202.77 245.62 200.42 245.21 Z" />
</g>
<g id="#ecffffff">
<path fill="#ecffff" opacity="1.00" d=" M 170.12 245.00 C 171.39 244.03 172.95 243.52 174.42 242.92 C 173.93 244.23 173.51 245.57 172.84 246.80 C 171.64 247.70 170.07 247.82 168.70 248.31 C 169.11 247.18 169.59 246.07 170.12 245.00 Z" />
</g>
<g id="#949195ff">
<path fill="#949195" opacity="1.00" d=" M 190.37 245.83 C 191.86 246.55 191.96 250.45 190.48 251.18 C 189.52 249.68 189.43 247.36 190.37 245.83 Z" />
</g>
<g id="#4c4c51ff">
<path fill="#4c4c51" opacity="1.00" d=" M 164.35 248.39 C 165.35 247.61 166.34 246.84 167.35 246.10 C 167.38 246.84 167.43 248.34 167.46 249.08 C 167.34 249.96 167.20 250.83 167.04 251.71 C 166.71 253.19 166.31 254.66 166.01 256.16 C 166.61 259.33 167.94 262.30 168.83 265.39 C 168.35 268.20 168.33 271.14 169.92 273.63 C 169.94 274.28 169.99 275.56 170.01 276.20 C 165.35 282.98 156.58 284.73 150.56 289.94 C 149.16 288.50 147.10 287.26 146.94 285.06 C 147.12 284.00 147.55 283.06 148.22 282.22 C 150.47 281.46 152.71 280.67 154.95 279.86 C 153.80 279.13 152.66 278.40 151.52 277.67 C 152.78 275.29 154.04 272.91 155.26 270.51 C 156.14 270.89 157.03 271.24 157.92 271.59 C 158.21 270.93 158.51 270.26 158.81 269.60 C 160.06 269.61 161.32 269.62 162.58 269.63 C 161.14 267.68 159.67 265.76 158.18 263.85 C 158.11 264.66 157.98 266.28 157.91 267.09 C 157.27 265.54 156.57 264.02 155.94 262.47 C 155.66 261.52 155.38 260.56 155.09 259.62 C 158.42 259.22 161.65 258.33 164.86 257.38 C 164.78 256.18 164.70 254.97 164.64 253.77 C 164.54 251.98 164.45 250.18 164.35 248.39 M 149.05 283.15 C 149.42 284.12 149.78 285.10 150.15 286.08 C 150.84 286.07 152.21 286.04 152.90 286.03 C 152.87 285.30 152.81 283.85 152.79 283.13 C 151.54 283.13 150.29 283.14 149.05 283.15 Z" />
</g>
<g id="#758ca5ff">
<path fill="#758ca5" opacity="1.00" d=" M 159.05 254.12 C 160.70 252.97 162.79 253.75 164.64 253.77 C 164.70 254.97 164.78 256.18 164.86 257.38 C 161.65 258.33 158.42 259.22 155.09 259.62 C 155.38 260.56 155.66 261.52 155.94 262.47 C 155.85 263.74 155.72 265.00 155.59 266.26 C 154.59 263.99 153.62 261.71 152.66 259.43 C 154.72 257.59 156.70 255.61 159.05 254.12 M 157.75 259.15 C 159.69 258.10 161.71 256.93 162.91 255.01 C 162.67 254.67 162.18 254.00 161.94 253.66 C 159.02 253.86 157.76 256.53 157.75 259.15 Z" />
</g>
<g id="#f4ffffff">
<path fill="#f4ffff" opacity="1.00" d=" M 157.75 259.15 C 157.76 256.53 159.02 253.86 161.94 253.66 C 162.18 254.00 162.67 254.67 162.91 255.01 C 161.71 256.93 159.69 258.10 157.75 259.15 Z" />
</g>
<g id="#444448ff">
<path fill="#444448" opacity="1.00" d=" M 139.08 257.20 C 140.73 255.82 142.89 255.37 144.82 254.54 C 144.51 257.24 144.09 259.93 143.79 262.64 C 143.31 265.66 144.34 268.57 145.72 271.21 C 143.56 270.12 141.30 269.28 139.04 268.45 C 141.26 271.85 143.79 275.04 146.54 278.03 C 146.06 279.67 145.51 281.29 144.89 282.89 C 143.83 285.29 140.98 287.18 138.39 285.93 C 132.85 284.04 130.44 278.26 126.92 274.08 C 124.75 271.09 121.57 268.19 121.54 264.24 C 122.18 262.26 124.33 261.20 125.74 259.77 C 129.87 261.05 133.96 262.48 137.99 264.06 C 138.18 261.78 137.70 259.18 139.08 257.20 M 127.75 264.85 C 128.63 266.07 128.99 268.52 131.01 267.79 C 131.00 267.16 130.97 265.92 130.95 265.30 C 130.15 265.19 128.55 264.96 127.75 264.85 M 134.32 270.67 C 134.19 271.53 133.94 273.26 133.81 274.12 C 134.72 274.01 136.54 273.79 137.44 273.68 C 136.43 272.64 135.29 271.74 134.32 270.67 M 139.33 279.17 L 138.99 280.00 L 139.33 280.83 L 140.16 281.17 L 140.99 280.83 L 141.34 280.00 L 140.99 279.17 L 140.16 278.82 L 139.33 279.17 Z" />
</g>
<g id="#363538ff">
<path fill="#363538" opacity="1.00" d=" M 168.83 265.39 C 167.94 262.30 166.61 259.33 166.01 256.16 C 169.03 258.85 171.59 262.01 173.52 265.57 C 172.78 267.82 172.09 270.09 171.36 272.35 C 170.94 273.64 170.48 274.92 170.01 276.20 C 169.99 275.56 169.94 274.28 169.92 273.63 C 169.79 270.86 169.54 268.08 168.83 265.39 Z" />
</g>
<g id="#868388ff">
<path fill="#868388" opacity="1.00" d=" M 180.90 262.72 C 178.52 260.68 179.20 257.59 180.09 255.00 C 180.76 257.51 181.06 260.11 180.90 262.72 Z" />
</g>
<g id="#2e3036ff">
<path fill="#2e3036" opacity="1.00" d=" M 143.79 262.64 C 144.21 262.71 145.05 262.83 145.47 262.90 C 148.19 266.06 151.31 268.98 155.26 270.51 C 154.04 272.91 152.78 275.29 151.52 277.67 C 152.66 278.40 153.80 279.13 154.95 279.86 C 152.71 280.67 150.47 281.46 148.22 282.22 C 147.12 282.49 146.01 282.71 144.89 282.89 C 145.51 281.29 146.06 279.67 146.54 278.03 C 146.98 275.73 146.93 273.28 145.72 271.21 C 144.34 268.57 143.31 265.66 143.79 262.64 M 148.29 280.25 L 148.29 280.70 L 148.74 280.71 L 148.74 280.26 L 148.29 280.25 Z" />
</g>
<g id="#6b6a70ff">
<path fill="#6b6a70" opacity="1.00" d=" M 158.18 263.85 C 159.67 265.76 161.14 267.68 162.58 269.63 C 161.32 269.62 160.06 269.61 158.81 269.60 C 158.58 268.98 158.14 267.72 157.91 267.09 C 157.98 266.28 158.11 264.66 158.18 263.85 Z" />
</g>
<g id="#989396ff">
<path fill="#989396" opacity="1.00" d=" M 127.75 264.85 C 128.55 264.96 130.15 265.19 130.95 265.30 C 130.97 265.92 131.00 267.16 131.01 267.79 C 128.99 268.52 128.63 266.07 127.75 264.85 Z" />
</g>
<g id="#7f7c80ff">
<path fill="#7f7c80" opacity="1.00" d=" M 169.92 273.63 C 168.33 271.14 168.35 268.20 168.83 265.39 C 169.54 268.08 169.79 270.86 169.92 273.63 Z" />
</g>
<g id="#6c6b71ff">
<path fill="#6c6b71" opacity="1.00" d=" M 139.04 268.45 C 141.30 269.28 143.56 270.12 145.72 271.21 C 146.93 273.28 146.98 275.73 146.54 278.03 C 143.79 275.04 141.26 271.85 139.04 268.45 Z" />
</g>
<g id="#928f95ff">
<path fill="#928f95" opacity="1.00" d=" M 134.32 270.67 C 135.29 271.74 136.43 272.64 137.44 273.68 C 136.54 273.79 134.72 274.01 133.81 274.12 C 133.94 273.26 134.19 271.53 134.32 270.67 Z" />
</g>
<g id="#7f7d80ff">
<path fill="#7f7d80" opacity="1.00" d=" M 139.33 279.17 L 140.16 278.82 L 140.99 279.17 L 141.34 280.00 L 140.99 280.83 L 140.16 281.17 L 139.33 280.83 L 138.99 280.00 L 139.33 279.17 Z" />
</g>
<g id="#868386ff">
<path fill="#868386" opacity="1.00" d=" M 148.29 280.25 L 148.74 280.26 L 148.74 280.71 L 148.29 280.70 L 148.29 280.25 Z" />
</g>
<g id="#a7a6adff">
<path fill="#a7a6ad" opacity="1.00" d=" M 149.05 283.15 C 150.29 283.14 151.54 283.13 152.79 283.13 C 152.81 283.85 152.87 285.30 152.90 286.03 C 152.21 286.04 150.84 286.07 150.15 286.08 C 149.78 285.10 149.42 284.12 149.05 283.15 Z" />
</g>
</svg>
