<?xml version="1.0" encoding="UTF-8" ?>
<!DOCTYPE svg PUBLIC "-//W3C//DTD SVG 1.1//EN" "http://www.w3.org/Graphics/SVG/1.1/DTD/svg11.dtd">
<svg width="384pt" height="384pt" viewBox="0 0 384 384" version="1.1" xmlns="http://www.w3.org/2000/svg">
<g id="#343334fe">
<path fill="#343334" opacity="1.00" d=" M 221.35 156.41 C 226.11 154.22 232.23 153.86 236.21 157.81 C 236.57 158.79 236.90 159.79 237.20 160.79 C 232.17 158.39 226.36 158.87 221.35 156.41 Z" />
</g>
<g id="#1d1d1eff">
<path fill="#1d1d1e" opacity="1.00" d=" M 216.04 158.21 C 217.54 157.50 219.05 156.79 220.57 156.10 C 221.91 157.52 223.15 159.07 224.78 160.16 C 228.00 160.95 231.37 160.54 234.60 161.29 C 235.99 162.06 236.87 163.57 237.20 165.10 C 236.76 167.61 235.25 169.75 233.93 171.88 C 232.21 174.45 230.45 177.10 227.94 178.97 C 225.32 180.30 222.37 180.51 219.48 180.69 C 215.78 180.74 213.03 183.82 209.40 184.21 C 208.22 183.64 207.05 183.07 205.88 182.50 C 206.53 181.26 207.19 180.02 207.85 178.78 C 209.46 179.16 211.09 179.59 212.76 179.54 C 214.25 179.12 215.22 177.76 216.40 176.85 C 213.28 176.89 210.10 176.96 207.08 176.06 C 207.45 173.40 207.84 170.74 208.27 168.09 C 209.88 166.02 211.41 163.89 212.84 161.69 C 213.73 161.68 214.62 161.68 215.52 161.68 C 215.69 160.52 215.87 159.36 216.04 158.21 M 215.08 171.92 C 216.05 173.12 217.65 172.56 218.65 171.71 C 220.26 170.27 221.31 168.33 222.47 166.53 C 218.90 165.27 216.45 169.21 215.08 171.92 Z" />
</g>
<g id="#55a3b7ff">
<path fill="#55a3b7" opacity="1.00" d=" M 220.57 156.10 L 221.35 156.41 C 226.36 158.87 232.17 158.39 237.20 160.79 C 237.64 163.84 237.46 166.93 237.23 169.99 C 236.12 170.60 235.02 171.23 233.93 171.88 C 235.25 169.75 236.76 167.61 237.20 165.10 C 236.87 163.57 235.99 162.06 234.60 161.29 C 231.37 160.54 228.00 160.95 224.78 160.16 C 223.15 159.07 221.91 157.52 220.57 156.10 Z" />
</g>
<g id="#24505cd2">
<path fill="#24505c" opacity="0.82" d=" M 207.62 157.93 C 208.67 157.68 209.72 157.44 210.78 157.20 C 211.90 158.13 213.02 159.05 214.14 159.99 C 213.49 160.11 212.20 160.35 211.55 160.47 C 210.25 159.60 208.95 158.74 207.62 157.93 Z" />
</g>
<g id="#292829ff">
<path fill="#292829" opacity="1.00" d=" M 210.78 157.20 C 212.53 157.55 214.28 157.88 216.04 158.21 C 215.87 159.36 215.69 160.52 215.52 161.68 C 214.62 161.68 213.73 161.68 212.84 161.69 C 211.41 163.89 209.88 166.02 208.27 168.09 C 204.94 166.27 201.15 165.79 197.55 167.15 C 196.60 166.05 195.64 164.96 194.69 163.87 C 199.93 161.17 205.91 161.55 211.55 160.47 C 212.20 160.35 213.49 160.11 214.14 159.99 C 213.02 159.05 211.90 158.13 210.78 157.20 Z" />
</g>
<g id="#151515ff">
<path fill="#151515" opacity="1.00" d=" M 180.26 159.33 C 185.52 157.93 191.16 157.03 196.50 158.58 C 200.22 159.66 203.89 156.77 207.62 157.93 C 208.95 158.74 210.25 159.60 211.55 160.47 C 205.91 161.55 199.93 161.17 194.69 163.87 C 193.79 163.76 192.90 163.64 192.01 163.53 C 192.10 163.88 192.29 164.57 192.39 164.91 C 192.68 170.30 189.52 175.21 185.67 178.70 C 183.26 178.64 180.95 177.86 178.64 177.29 C 180.04 174.26 181.37 171.12 183.56 168.55 C 185.40 166.38 187.60 164.56 189.69 162.63 C 187.32 163.52 184.81 164.23 182.74 165.74 C 179.72 168.05 177.70 171.40 174.69 173.72 C 172.00 173.26 169.88 171.39 167.57 170.08 C 170.00 164.91 174.73 160.82 180.26 159.33 M 193.22 161.21 L 193.22 161.66 L 193.67 161.66 L 193.67 161.21 L 193.22 161.21 Z" />
</g>
<g id="#0d111281">
<path fill="#0d1112" opacity="0.51" d=" M 236.21 157.81 C 239.42 160.79 239.82 166.50 237.23 169.99 C 237.46 166.93 237.64 163.84 237.20 160.79 C 236.90 159.79 236.57 158.79 236.21 157.81 Z" />
</g>
<g id="#1b1a1d92">
<path fill="#1b1a1d" opacity="0.57" d=" M 149.37 160.13 C 151.27 160.48 153.16 160.88 155.06 161.30 L 154.35 161.72 C 153.84 161.98 152.84 162.52 152.33 162.78 C 152.16 163.81 151.97 164.83 151.75 165.85 C 150.57 165.15 149.39 164.46 148.21 163.78 C 148.59 162.57 148.98 161.35 149.37 160.13 Z" />
</g>
<g id="#3e8a9dff">
<path fill="#3e8a9d" opacity="1.00" d=" M 193.22 161.21 L 193.67 161.21 L 193.67 161.66 L 193.22 161.66 L 193.22 161.21 Z" />
</g>
<g id="#464449ff">
<path fill="#464449" opacity="1.00" d=" M 152.33 162.78 C 152.84 162.52 153.84 161.98 154.35 161.72 C 154.92 162.16 156.05 163.06 156.62 163.51 C 156.63 164.02 156.65 165.04 156.65 165.55 C 156.68 166.96 156.70 168.37 156.74 169.79 C 157.71 169.38 158.70 168.99 159.69 168.61 C 162.33 168.06 165.22 168.80 167.57 170.08 C 169.88 171.39 172.00 173.26 174.69 173.72 C 177.70 171.40 179.72 168.05 182.74 165.74 C 184.81 164.23 187.32 163.52 189.69 162.63 C 187.60 164.56 185.40 166.38 183.56 168.55 C 181.37 171.12 180.04 174.26 178.64 177.29 C 179.88 178.48 181.06 179.76 182.50 180.72 C 184.99 182.29 188.05 182.70 190.41 184.49 C 193.00 186.65 194.83 189.55 197.37 191.75 C 200.04 191.06 202.16 189.16 204.53 187.85 L 205.39 187.93 L 204.68 188.49 C 204.42 188.78 203.90 189.38 203.65 189.67 C 203.01 190.77 202.38 191.88 201.91 193.06 C 203.37 195.30 205.35 197.14 207.18 199.08 C 204.97 200.09 202.47 202.65 199.93 201.10 C 198.86 199.11 198.20 196.94 197.42 194.83 C 197.42 197.46 196.97 200.20 197.80 202.76 C 198.94 204.25 200.68 205.12 202.17 206.23 C 200.01 208.86 197.36 211.07 194.11 212.19 C 196.14 214.40 198.06 216.70 200.16 218.84 C 203.34 222.11 207.41 224.30 210.80 227.31 L 211.25 228.12 C 210.91 228.31 210.22 228.68 209.88 228.86 C 208.50 230.08 207.20 231.38 205.90 232.69 C 207.57 233.20 209.26 233.71 210.94 234.20 C 205.84 235.17 200.62 234.52 195.47 235.00 C 195.09 233.00 194.69 231.01 194.28 229.01 C 198.36 228.93 202.81 230.67 206.52 228.27 C 202.50 226.49 197.95 226.15 194.13 223.92 C 192.23 222.99 191.58 220.89 190.76 219.11 C 192.99 220.18 195.15 221.37 197.29 222.60 C 195.08 219.54 192.61 216.63 190.74 213.33 C 188.95 210.11 189.32 206.30 189.29 202.75 C 190.77 202.62 192.26 202.48 193.75 202.34 C 194.14 201.68 194.53 201.03 194.93 200.37 C 191.98 197.66 189.19 194.75 185.88 192.47 C 183.35 190.78 180.69 189.31 178.05 187.82 C 176.66 190.24 175.24 192.64 174.05 195.16 C 174.03 190.98 174.14 186.71 173.21 182.61 C 172.45 179.74 169.28 178.82 166.97 177.56 C 167.15 180.58 167.38 183.64 168.35 186.53 C 166.30 187.07 164.25 187.64 162.15 187.97 C 160.10 188.06 158.06 188.05 156.02 187.99 C 155.54 186.60 155.06 185.22 154.60 183.84 C 158.51 183.35 162.38 182.57 166.24 181.77 C 165.97 179.88 166.23 177.65 164.81 176.17 C 161.48 172.66 156.67 171.09 151.94 170.86 C 152.07 170.25 152.34 169.02 152.48 168.41 C 152.71 168.12 153.19 167.55 153.42 167.26 C 152.86 166.79 152.31 166.31 151.75 165.85 C 151.97 164.83 152.16 163.81 152.33 162.78 Z" />
</g>
<g id="#5496a7ff">
<path fill="#5496a7" opacity="1.00" d=" M 192.01 163.53 C 192.90 163.64 193.79 163.76 194.69 163.87 C 195.64 164.96 196.60 166.05 197.55 167.15 C 200.32 170.53 203.37 173.71 207.08 176.06 C 210.10 176.96 213.28 176.89 216.40 176.85 C 215.22 177.76 214.25 179.12 212.76 179.54 C 211.09 179.59 209.46 179.16 207.85 178.78 C 207.38 178.53 206.44 178.02 205.96 177.76 C 202.31 175.40 199.29 172.24 196.27 169.15 C 194.94 167.77 193.61 166.39 192.39 164.91 C 192.29 164.57 192.10 163.88 192.01 163.53 Z" />
</g>
<g id="#333334ff">
<path fill="#333334" opacity="1.00" d=" M 192.39 164.91 C 193.61 166.39 194.94 167.77 196.27 169.15 C 194.59 173.08 191.99 176.70 191.21 180.96 C 191.36 185.20 196.41 185.93 199.74 186.04 C 200.14 186.05 200.94 186.09 201.34 186.11 C 202.40 186.68 203.46 187.26 204.53 187.85 C 202.16 189.16 200.04 191.06 197.37 191.75 C 194.83 189.55 193.00 186.65 190.41 184.49 C 188.05 182.70 184.99 182.29 182.50 180.72 C 181.06 179.76 179.88 178.48 178.64 177.29 C 180.95 177.86 183.26 178.64 185.67 178.70 C 189.52 175.21 192.68 170.30 192.39 164.91 Z" />
</g>
<g id="#31bec0f4">
<path fill="#31bec0" opacity="0.96" d=" M 156.74 169.79 C 156.70 168.37 156.68 166.96 156.65 165.55 C 157.68 166.56 158.69 167.58 159.69 168.61 C 158.70 168.99 157.71 169.38 156.74 169.79 Z" />
</g>
<g id="#5a5859ff">
<path fill="#5a5859" opacity="1.00" d=" M 197.55 167.15 C 201.15 165.79 204.94 166.27 208.27 168.09 C 207.84 170.74 207.45 173.40 207.08 176.06 C 203.37 173.71 200.32 170.53 197.55 167.15 Z" />
</g>
<g id="#2f2f30ff">
<path fill="#2f2f30" opacity="1.00" d=" M 215.08 171.92 C 216.45 169.21 218.90 165.27 222.47 166.53 C 221.31 168.33 220.26 170.27 218.65 171.71 C 217.65 172.56 216.05 173.12 215.08 171.92 Z" />
</g>
<g id="#62a1b3ff">
<path fill="#62a1b3" opacity="1.00" d=" M 149.61 168.80 C 150.33 168.70 151.76 168.51 152.48 168.41 C 152.34 169.02 152.07 170.25 151.94 170.86 C 151.99 171.36 152.09 172.36 152.14 172.86 C 152.59 176.59 153.46 180.26 154.60 183.84 C 155.06 185.22 155.54 186.60 156.02 187.99 C 154.29 187.04 152.93 185.58 152.08 183.81 C 151.24 179.91 150.59 175.96 150.03 172.00 C 149.92 171.20 149.71 169.60 149.61 168.80 Z" />
</g>
<g id="#1d1d1dfe">
<path fill="#1d1d1d" opacity="1.00" d=" M 130.24 175.00 C 136.72 172.99 142.88 169.94 149.61 168.80 C 149.71 169.60 149.92 171.20 150.03 172.00 C 141.95 175.07 133.74 177.77 125.39 180.00 C 124.99 179.54 124.19 178.61 123.79 178.15 C 122.18 178.26 120.58 178.36 118.98 178.53 C 115.54 178.83 112.12 179.28 108.72 179.85 C 108.69 180.62 108.62 182.17 108.59 182.94 C 108.52 185.64 108.60 188.36 108.88 191.05 L 109.95 191.19 C 115.27 190.90 120.42 189.40 125.71 188.78 L 125.76 187.92 C 125.76 187.47 125.77 186.55 125.77 186.10 L 126.61 185.71 C 131.73 185.89 136.86 185.52 141.97 185.91 C 145.41 186.19 147.22 189.55 149.52 191.67 C 146.43 190.53 143.55 188.09 140.07 188.79 C 134.05 189.47 128.01 190.03 121.98 190.58 C 118.72 190.73 115.82 193.01 112.50 192.45 C 108.84 191.97 105.15 191.65 101.46 191.94 C 101.25 190.99 101.05 190.04 100.86 189.09 C 102.91 189.55 104.99 189.85 107.07 190.14 C 107.36 187.23 107.21 184.28 106.11 181.54 C 104.19 181.00 102.28 180.43 100.42 179.70 C 99.30 179.21 98.20 178.69 97.10 178.16 C 97.48 183.18 97.60 188.21 97.45 193.23 L 97.42 194.22 C 96.78 193.40 95.74 192.78 95.57 191.69 C 94.80 187.95 94.29 184.13 94.42 180.31 C 94.42 178.77 95.86 177.53 97.33 177.41 C 100.68 176.90 103.85 178.39 107.11 178.79 C 108.67 178.76 110.18 178.30 111.72 178.06 C 114.57 177.54 117.52 178.17 120.34 177.38 C 123.63 176.53 126.97 175.92 130.24 175.00 Z" />
</g>
<g id="#575557ff">
<path fill="#575557" opacity="1.00" d=" M 196.27 169.15 C 199.29 172.24 202.31 175.40 205.96 177.76 C 203.05 179.00 200.20 180.44 197.79 182.53 C 197.97 182.85 198.32 183.50 198.49 183.83 C 198.81 184.38 199.43 185.48 199.74 186.04 C 196.41 185.93 191.36 185.20 191.21 180.96 C 191.99 176.70 194.59 173.08 196.27 169.15 Z" />
</g>
<g id="#636162ff">
<path fill="#636162" opacity="1.00" d=" M 151.94 170.86 C 156.67 171.09 161.48 172.66 164.81 176.17 C 166.23 177.65 165.97 179.88 166.24 181.77 C 162.38 182.57 158.51 183.35 154.60 183.84 C 156.62 181.82 159.30 180.83 162.01 180.12 C 161.63 178.55 161.32 176.95 160.69 175.46 C 158.08 173.97 154.96 173.80 152.14 172.86 C 152.09 172.36 151.99 171.36 151.94 170.86 Z" />
</g>
<g id="#585657ff">
<path fill="#585657" opacity="1.00" d=" M 125.39 180.00 C 133.74 177.77 141.95 175.07 150.03 172.00 C 150.59 175.96 151.24 179.91 152.08 183.81 C 145.69 183.78 139.30 183.52 132.91 183.72 C 130.63 183.67 128.58 184.69 126.61 185.71 L 125.77 186.10 C 125.72 184.06 125.55 182.03 125.39 180.00 Z" />
</g>
<g id="#7e7b7dff">
<path fill="#7e7b7d" opacity="1.00" d=" M 152.14 172.86 C 154.96 173.80 158.08 173.97 160.69 175.46 C 161.32 176.95 161.63 178.55 162.01 180.12 C 159.30 180.83 156.62 181.82 154.60 183.84 C 153.46 180.26 152.59 176.59 152.14 172.86 Z" />
</g>
<g id="#7df1feff">
<path fill="#7df1fe" opacity="1.00" d=" M 97.10 178.16 C 98.20 178.69 99.30 179.21 100.42 179.70 C 100.44 181.45 100.46 183.19 100.51 184.94 C 100.56 185.75 100.64 187.38 100.69 188.19 L 100.86 189.09 C 101.05 190.04 101.25 190.99 101.46 191.94 L 101.61 192.61 C 100.22 192.80 98.83 193.01 97.45 193.23 C 97.60 188.21 97.48 183.18 97.10 178.16 Z" />
</g>
<g id="#918e91ff">
<path fill="#918e91" opacity="1.00" d=" M 118.98 178.53 C 120.58 178.36 122.18 178.26 123.79 178.15 C 124.19 178.61 124.99 179.54 125.39 180.00 C 125.55 182.03 125.72 184.06 125.77 186.10 C 125.77 186.55 125.76 187.47 125.76 187.92 C 122.83 188.01 119.89 188.01 116.95 188.00 C 116.60 185.83 115.87 183.64 116.23 181.42 C 116.77 180.17 118.00 179.42 118.98 178.53 Z" />
</g>
<g id="#131414ff">
<path fill="#131414" opacity="1.00" d=" M 166.97 177.56 C 169.28 178.82 172.45 179.74 173.21 182.61 C 174.14 186.71 174.03 190.98 174.05 195.16 C 173.33 197.14 172.60 199.12 171.88 201.10 C 168.48 199.60 165.05 198.10 161.94 196.03 C 163.92 196.87 165.96 197.57 167.98 198.30 C 168.78 196.21 169.73 194.15 170.12 191.93 C 169.99 190.02 168.96 188.32 168.35 186.53 C 167.38 183.64 167.15 180.58 166.97 177.56 Z" />
</g>
<g id="#3f4244ff">
<path fill="#3f4244" opacity="1.00" d=" M 197.79 182.53 C 200.20 180.44 203.05 179.00 205.96 177.76 C 206.44 178.02 207.38 178.53 207.85 178.78 C 207.19 180.02 206.53 181.26 205.88 182.50 C 203.31 181.93 200.83 182.88 198.49 183.83 C 198.32 183.50 197.97 182.85 197.79 182.53 Z" />
</g>
<g id="#5a585aff">
<path fill="#5a585a" opacity="1.00" d=" M 108.72 179.85 C 112.12 179.28 115.54 178.83 118.98 178.53 C 118.00 179.42 116.77 180.17 116.23 181.42 C 115.87 183.64 116.60 185.83 116.95 188.00 C 119.89 188.01 122.83 188.01 125.76 187.92 L 125.71 188.78 C 120.42 189.40 115.27 190.90 109.95 191.19 C 110.12 189.98 110.29 188.77 110.46 187.56 C 111.90 187.28 113.35 187.01 114.80 186.73 C 114.81 186.09 114.83 184.82 114.84 184.18 C 112.76 183.77 110.68 183.35 108.59 182.94 C 108.62 182.17 108.69 180.62 108.72 179.85 Z" />
</g>
<g id="#1e505bff">
<path fill="#1e505b" opacity="1.00" d=" M 219.48 180.69 C 222.37 180.51 225.32 180.30 227.94 178.97 C 227.87 179.71 227.71 181.20 227.63 181.95 C 227.51 183.08 227.39 184.21 227.27 185.35 C 227.17 186.02 226.98 187.37 226.88 188.04 L 226.71 187.14 C 225.12 186.49 223.31 185.38 221.59 186.29 C 220.27 187.06 219.17 188.12 218.01 189.09 L 217.39 189.60 C 216.57 189.46 215.76 189.32 214.95 189.18 C 211.78 188.63 208.60 188.14 205.39 187.93 L 204.53 187.85 C 203.46 187.26 202.40 186.68 201.34 186.11 C 203.98 185.32 206.67 184.67 209.40 184.21 C 213.03 183.82 215.78 180.74 219.48 180.69 Z" />
</g>
<g id="#4b4c4eff">
<path fill="#4b4c4e" opacity="1.00" d=" M 100.42 179.70 C 102.28 180.43 104.19 181.00 106.11 181.54 C 105.92 182.14 105.54 183.34 105.35 183.94 C 103.73 184.26 102.12 184.59 100.51 184.94 C 100.46 183.19 100.44 181.45 100.42 179.70 Z" />
</g>
<g id="#51646cff">
<path fill="#51646c" opacity="1.00" d=" M 105.35 183.94 C 105.54 183.34 105.92 182.14 106.11 181.54 C 107.21 184.28 107.36 187.23 107.07 190.14 C 104.99 189.85 102.91 189.55 100.86 189.09 L 100.69 188.19 C 102.00 187.97 103.32 187.74 104.64 187.52 C 104.85 186.32 105.09 185.12 105.35 183.94 Z" />
</g>
<g id="#326c79ff">
<path fill="#326c79" opacity="1.00" d=" M 198.49 183.83 C 200.83 182.88 203.31 181.93 205.88 182.50 C 207.05 183.07 208.22 183.64 209.40 184.21 C 206.67 184.67 203.98 185.32 201.34 186.11 C 200.94 186.09 200.14 186.05 199.74 186.04 C 199.43 185.48 198.81 184.38 198.49 183.83 Z" />
</g>
<g id="#3c3b3cff">
<path fill="#3c3b3c" opacity="1.00" d=" M 227.27 185.35 C 227.39 184.21 227.51 183.08 227.63 181.95 C 230.83 183.77 234.58 183.47 238.12 183.32 C 238.51 185.51 239.02 187.69 239.06 189.93 C 239.09 192.77 236.98 195.45 234.23 196.14 C 233.43 195.75 232.67 195.31 231.94 194.81 C 232.45 191.89 232.91 188.95 233.16 185.99 C 233.20 185.58 233.30 184.74 233.34 184.32 C 231.32 184.66 229.29 185.00 227.27 185.35 Z" />
</g>
<g id="#807e80ff">
<path fill="#807e80" opacity="1.00" d=" M 108.59 182.94 C 110.68 183.35 112.76 183.77 114.84 184.18 C 114.83 184.82 114.81 186.09 114.80 186.73 C 113.35 187.01 111.90 187.28 110.46 187.56 C 110.29 188.77 110.12 189.98 109.95 191.19 L 108.88 191.05 C 108.60 188.36 108.52 185.64 108.59 182.94 Z" />
</g>
<g id="#777779ff">
<path fill="#777779" opacity="1.00" d=" M 100.51 184.94 C 102.12 184.59 103.73 184.26 105.35 183.94 C 105.09 185.12 104.85 186.32 104.64 187.52 C 103.32 187.74 102.00 187.97 100.69 188.19 C 100.64 187.38 100.56 185.75 100.51 184.94 Z" />
</g>
<g id="#3a383cfe">
<path fill="#3a383c" opacity="1.00" d=" M 126.61 185.71 C 128.58 184.69 130.63 183.67 132.91 183.72 C 139.30 183.52 145.69 183.78 152.08 183.81 C 152.93 185.58 154.29 187.04 156.02 187.99 C 158.06 188.05 160.10 188.06 162.15 187.97 C 159.20 188.45 156.22 188.67 153.25 188.88 C 153.38 189.46 153.66 190.61 153.79 191.19 C 153.33 191.33 152.39 191.59 151.92 191.72 C 151.32 191.71 150.12 191.68 149.52 191.67 C 147.22 189.55 145.41 186.19 141.97 185.91 C 136.86 185.52 131.73 185.89 126.61 185.71 Z" />
</g>
<g id="#5c656aff">
<path fill="#5c656a" opacity="1.00" d=" M 227.27 185.35 C 229.29 185.00 231.32 184.66 233.34 184.32 C 233.30 184.74 233.20 185.58 233.16 185.99 C 231.94 186.62 230.70 187.19 229.47 187.78 C 229.26 189.46 229.06 191.14 228.87 192.82 C 228.83 193.33 228.73 194.33 228.68 194.83 C 227.30 194.59 225.92 194.43 224.54 194.26 C 225.50 192.26 226.54 190.25 226.88 188.04 C 226.98 187.37 227.17 186.02 227.27 185.35 Z" />
</g>
<g id="#3d717ed7">
<path fill="#3d717e" opacity="0.84" d=" M 239.06 189.93 C 239.02 187.69 238.51 185.51 238.12 183.32 C 239.48 184.71 241.59 185.89 241.62 188.10 C 241.64 190.16 240.92 192.17 239.89 193.94 C 238.30 196.91 234.15 197.61 231.29 196.26 C 230.41 195.79 229.54 195.32 228.68 194.83 C 228.73 194.33 228.83 193.33 228.87 192.82 C 229.89 193.48 230.92 194.15 231.94 194.81 C 232.67 195.31 233.43 195.75 234.23 196.14 C 236.98 195.45 239.09 192.77 239.06 189.93 Z" />
</g>
<g id="#26636fff">
<path fill="#26636f" opacity="1.00" d=" M 221.59 186.29 C 223.31 185.38 225.12 186.49 226.71 187.14 L 225.86 187.91 C 223.25 188.32 220.62 188.61 218.01 189.09 C 219.17 188.12 220.27 187.06 221.59 186.29 Z" />
</g>
<g id="#555354ff">
<path fill="#555354" opacity="1.00" d=" M 229.47 187.78 C 230.70 187.19 231.94 186.62 233.16 185.99 C 232.91 188.95 232.45 191.89 231.94 194.81 C 230.92 194.15 229.89 193.48 228.87 192.82 C 229.06 191.14 229.26 189.46 229.47 187.78 Z" />
</g>
<g id="#26545fff">
<path fill="#26545f" opacity="1.00" d=" M 174.05 195.16 C 175.24 192.64 176.66 190.24 178.05 187.82 C 180.69 189.31 183.35 190.78 185.88 192.47 C 184.84 195.02 183.53 197.72 184.30 200.54 C 181.64 199.55 178.95 198.64 176.25 197.78 C 176.32 199.89 176.37 202.00 176.55 204.11 C 175.08 202.98 173.52 201.97 171.88 201.10 C 172.60 199.12 173.33 197.14 174.05 195.16 Z" />
</g>
<g id="#5b5961ff">
<path fill="#5b5961" opacity="1.00" d=" M 205.39 187.93 C 208.60 188.14 211.78 188.63 214.95 189.18 C 215.76 190.20 216.57 191.23 217.38 192.27 C 215.71 192.49 214.05 192.71 212.38 192.94 C 213.76 196.38 214.42 200.05 214.36 203.76 C 211.15 208.70 204.64 209.50 201.35 214.32 C 205.06 214.51 208.79 214.63 212.46 215.35 C 212.57 219.41 211.48 223.34 210.80 227.31 C 207.41 224.30 203.34 222.11 200.16 218.84 C 198.06 216.70 196.14 214.40 194.11 212.19 C 197.36 211.07 200.01 208.86 202.17 206.23 C 200.68 205.12 198.94 204.25 197.80 202.76 C 196.97 200.20 197.42 197.46 197.42 194.83 C 198.20 196.94 198.86 199.11 199.93 201.10 C 202.47 202.65 204.97 200.09 207.18 199.08 C 205.35 197.14 203.37 195.30 201.91 193.06 C 202.38 191.88 203.01 190.77 203.65 189.67 C 203.86 190.61 204.97 191.93 205.97 191.02 C 206.84 190.01 205.65 188.78 204.68 188.49 L 205.39 187.93 Z" />
</g>
<g id="#1a1e1fff">
<path fill="#1a1e1f" opacity="1.00" d=" M 218.01 189.09 C 220.62 188.61 223.25 188.32 225.86 187.91 C 225.02 189.10 224.27 190.36 223.35 191.50 C 222.15 192.29 220.60 191.75 219.26 191.90 L 218.52 191.26 C 218.24 190.85 217.67 190.01 217.39 189.60 L 218.01 189.09 Z" />
</g>
<g id="#4f4d54ff">
<path fill="#4f4d54" opacity="1.00" d=" M 225.86 187.91 L 226.71 187.14 L 226.88 188.04 C 226.54 190.25 225.50 192.26 224.54 194.26 C 225.92 194.43 227.30 194.59 228.68 194.83 C 229.54 195.32 230.41 195.79 231.29 196.26 C 230.78 196.61 229.78 197.32 229.27 197.67 C 232.23 200.43 234.96 203.62 236.28 207.51 C 236.94 209.80 236.60 212.22 236.56 214.56 C 236.19 214.88 235.47 215.52 235.11 215.84 C 235.32 213.69 235.54 211.53 235.77 209.38 C 234.10 208.89 232.43 208.40 230.76 207.93 C 230.56 209.23 230.29 210.53 230.27 211.86 C 230.84 213.75 231.91 215.45 232.72 217.26 C 233.12 218.28 233.47 219.33 233.77 220.40 C 234.94 221.72 236.13 223.02 237.33 224.32 C 235.61 224.77 233.90 225.21 232.18 225.64 C 231.49 224.39 230.79 223.15 230.09 221.90 C 226.43 224.36 222.95 227.05 219.57 229.86 C 220.01 230.81 220.45 231.75 220.89 232.70 C 218.52 232.80 216.16 232.92 213.79 232.89 L 213.18 232.81 C 213.04 231.64 212.90 230.47 212.76 229.31 C 212.04 229.19 210.60 228.97 209.88 228.86 C 210.22 228.68 210.91 228.31 211.25 228.12 C 212.44 227.96 213.64 227.81 214.84 227.69 C 216.52 223.09 217.89 218.33 218.34 213.44 C 218.52 211.73 218.04 210.06 217.48 208.48 L 217.07 207.75 L 217.89 207.65 C 219.14 207.33 220.38 206.96 221.62 206.60 C 223.00 208.07 224.40 209.52 225.79 210.99 C 226.52 210.25 227.24 209.52 227.98 208.79 C 226.56 204.94 224.73 201.26 222.44 197.87 C 223.84 198.11 225.25 198.34 226.67 198.58 C 225.43 197.28 224.20 195.98 222.89 194.76 C 221.71 193.76 220.47 192.85 219.26 191.90 C 220.60 191.75 222.15 192.29 223.35 191.50 C 224.27 190.36 225.02 189.10 225.86 187.91 Z" />
</g>
<g id="#7b7d83ff">
<path fill="#7b7d83" opacity="1.00" d=" M 203.65 189.67 C 203.90 189.38 204.42 188.78 204.68 188.49 C 205.65 188.78 206.84 190.01 205.97 191.02 C 204.97 191.93 203.86 190.61 203.65 189.67 Z" />
</g>
<g id="#e5ffffff">
<path fill="#e5ffff" opacity="1.00" d=" M 214.95 189.18 C 215.76 189.32 216.57 189.46 217.39 189.60 C 217.67 190.01 218.24 190.85 218.52 191.26 C 219.00 196.71 220.16 202.42 217.89 207.65 L 217.07 207.75 C 216.40 207.72 215.06 207.64 214.39 207.61 C 214.38 206.32 214.37 205.04 214.36 203.76 C 214.42 200.05 213.76 196.38 212.38 192.94 C 214.05 192.71 215.71 192.49 217.38 192.27 C 216.57 191.23 215.76 190.20 214.95 189.18 M 215.65 196.93 C 215.80 200.23 215.66 203.54 215.25 206.82 C 215.83 206.73 216.97 206.57 217.54 206.48 C 217.77 203.45 217.81 200.40 217.68 197.36 C 217.17 197.26 216.16 197.04 215.65 196.93 Z" />
</g>
<g id="#29b6b8df">
<path fill="#29b6b8" opacity="0.87" d=" M 151.92 191.72 C 152.39 191.59 153.33 191.33 153.79 191.19 C 154.07 191.36 154.63 191.68 154.91 191.84 C 154.90 192.23 154.88 193.02 154.87 193.42 C 153.81 194.60 151.58 193.14 151.92 191.72 Z" />
</g>
<g id="#61616aff">
<path fill="#61616a" opacity="1.00" d=" M 218.52 191.26 L 219.26 191.90 C 220.47 192.85 221.71 193.76 222.89 194.76 C 222.44 195.01 221.53 195.51 221.08 195.76 C 221.53 196.46 221.98 197.16 222.44 197.87 C 224.73 201.26 226.56 204.94 227.98 208.79 C 227.24 209.52 226.52 210.25 225.79 210.99 C 224.40 209.52 223.00 208.07 221.62 206.60 C 220.38 206.96 219.14 207.33 217.89 207.65 C 220.16 202.42 219.00 196.71 218.52 191.26 Z" />
</g>
<g id="#3d3b40ff">
<path fill="#3d3b40" opacity="1.00" d=" M 154.91 191.84 C 157.28 193.19 159.61 194.61 161.94 196.03 C 165.05 198.10 168.48 199.60 171.88 201.10 C 173.52 201.97 175.08 202.98 176.55 204.11 C 176.81 204.33 177.33 204.79 177.59 205.02 C 179.86 207.16 182.59 208.71 185.45 209.93 C 185.86 208.24 186.18 206.48 185.76 204.75 C 185.30 203.34 184.76 201.95 184.30 200.54 C 183.53 197.72 184.84 195.02 185.88 192.47 C 189.19 194.75 191.98 197.66 194.93 200.37 C 194.53 201.03 194.14 201.68 193.75 202.34 C 192.26 202.48 190.77 202.62 189.29 202.75 C 189.32 206.30 188.95 210.11 190.74 213.33 C 192.61 216.63 195.08 219.54 197.29 222.60 C 195.15 221.37 192.99 220.18 190.76 219.11 C 191.58 220.89 192.23 222.99 194.13 223.92 C 197.95 226.15 202.50 226.49 206.52 228.27 C 202.81 230.67 198.36 228.93 194.28 229.01 L 193.34 229.02 C 193.49 228.40 193.78 227.18 193.92 226.57 C 190.20 226.87 186.44 227.74 182.70 227.22 C 180.97 226.45 180.11 224.53 178.81 223.24 C 181.94 223.93 185.16 224.11 188.36 224.04 C 184.91 221.67 180.87 220.53 176.89 219.42 C 177.54 218.99 178.84 218.12 179.49 217.68 C 177.50 214.82 174.90 211.45 170.98 211.94 C 170.03 211.98 169.08 212.03 168.14 212.09 C 167.67 212.65 166.75 213.78 166.29 214.34 C 165.29 214.13 164.29 213.95 163.29 213.80 C 162.53 213.67 161.78 213.56 161.02 213.46 C 161.47 210.34 162.18 207.24 162.22 204.09 C 160.51 200.05 155.06 198.12 154.87 193.42 C 154.88 193.02 154.90 192.23 154.91 191.84 Z" />
</g>
<g id="#6194a5ff">
<path fill="#6194a5" opacity="1.00" d=" M 221.08 195.76 C 221.53 195.51 222.44 195.01 222.89 194.76 C 224.20 195.98 225.43 197.28 226.67 198.58 C 225.25 198.34 223.84 198.11 222.44 197.87 C 221.98 197.16 221.53 196.46 221.08 195.76 Z" />
</g>
<g id="#f7ffffff">
<path fill="#f7ffff" opacity="1.00" d=" M 215.65 196.93 C 216.16 197.04 217.17 197.26 217.68 197.36 C 217.81 200.40 217.77 203.45 217.54 206.48 C 216.97 206.57 215.83 206.73 215.25 206.82 C 215.66 203.54 215.80 200.23 215.65 196.93 Z" />
</g>
<g id="#326974ff">
<path fill="#326974" opacity="1.00" d=" M 176.25 197.78 C 178.95 198.64 181.64 199.55 184.30 200.54 C 184.76 201.95 185.30 203.34 185.76 204.75 C 183.03 204.69 180.30 204.76 177.59 205.02 C 177.33 204.79 176.81 204.33 176.55 204.11 C 176.37 202.00 176.32 199.89 176.25 197.78 Z" />
</g>
<g id="#262729ff">
<path fill="#262729" opacity="1.00" d=" M 177.59 205.02 C 180.30 204.76 183.03 204.69 185.76 204.75 C 186.18 206.48 185.86 208.24 185.45 209.93 C 182.59 208.71 179.86 207.16 177.59 205.02 Z" />
</g>
<g id="#706d76ff">
<path fill="#706d76" opacity="1.00" d=" M 201.35 214.32 C 204.64 209.50 211.15 208.70 214.36 203.76 C 214.37 205.04 214.38 206.32 214.39 207.61 C 215.06 207.64 216.40 207.72 217.07 207.75 L 217.48 208.48 C 215.68 209.11 213.88 209.75 212.08 210.40 C 212.22 212.04 212.37 213.69 212.46 215.35 C 208.79 214.63 205.06 214.51 201.35 214.32 Z" />
</g>
<g id="#5c5961f0">
<path fill="#5c5961" opacity="0.94" d=" M 230.76 207.93 C 232.43 208.40 234.10 208.89 235.77 209.38 C 235.54 211.53 235.32 213.69 235.11 215.84 C 234.51 216.20 233.32 216.90 232.72 217.26 C 231.91 215.45 230.84 213.75 230.27 211.86 C 230.29 210.53 230.56 209.23 230.76 207.93 Z" />
</g>
<g id="#a3d6ddff">
<path fill="#a3d6dd" opacity="1.00" d=" M 212.08 210.40 C 213.88 209.75 215.68 209.11 217.48 208.48 C 218.04 210.06 218.52 211.73 218.34 213.44 C 217.89 218.33 216.52 223.09 214.84 227.69 C 213.64 227.81 212.44 227.96 211.25 228.12 L 210.80 227.31 C 211.48 223.34 212.57 219.41 212.46 215.35 C 212.37 213.69 212.22 212.04 212.08 210.40 M 213.77 217.99 C 214.55 217.97 216.12 217.94 216.91 217.92 C 217.12 215.10 217.23 212.27 217.10 209.45 C 213.20 210.47 213.63 214.85 213.77 217.99 M 213.28 221.30 C 212.30 223.12 210.83 225.92 212.94 227.50 C 214.86 225.72 215.41 223.13 215.93 220.69 C 215.27 220.84 213.94 221.15 213.28 221.30 Z" />
</g>
<g id="#fdffffff">
<path fill="#fdffff" opacity="1.00" d=" M 213.77 217.99 C 213.63 214.85 213.20 210.47 217.10 209.45 C 217.23 212.27 217.12 215.10 216.91 217.92 C 216.12 217.94 214.55 217.97 213.77 217.99 Z" />
</g>
<g id="#202020ff">
<path fill="#202020" opacity="1.00" d=" M 170.98 211.94 C 174.90 211.45 177.50 214.82 179.49 217.68 C 178.84 218.12 177.54 218.99 176.89 219.42 C 175.22 218.93 173.56 218.42 171.90 217.91 C 174.24 219.64 176.57 221.37 178.81 223.24 C 180.11 224.53 180.97 226.45 182.70 227.22 C 186.44 227.74 190.20 226.87 193.92 226.57 C 193.78 227.18 193.49 228.40 193.34 229.02 L 193.11 229.90 C 191.51 231.42 189.81 232.82 188.00 234.08 C 185.80 235.05 183.53 235.86 181.24 236.57 C 178.21 234.44 174.87 232.49 172.74 229.36 C 170.71 226.38 169.10 223.15 167.25 220.06 C 167.12 220.66 166.84 221.85 166.70 222.45 C 160.16 223.99 154.54 227.79 148.91 231.28 C 148.91 230.52 148.93 229.01 148.93 228.26 C 155.89 223.70 163.59 220.42 171.59 218.20 C 168.81 216.75 166.00 215.37 163.29 213.80 C 164.29 213.95 165.29 214.13 166.29 214.34 C 168.25 215.10 170.14 216.02 172.03 216.95 C 171.67 215.28 171.32 213.61 170.98 211.94 Z" />
</g>
<g id="#6a686bff">
<path fill="#6a686b" opacity="1.00" d=" M 166.29 214.34 C 166.75 213.78 167.67 212.65 168.14 212.09 C 169.08 212.03 170.03 211.98 170.98 211.94 C 171.32 213.61 171.67 215.28 172.03 216.95 C 170.14 216.02 168.25 215.10 166.29 214.34 Z" />
</g>
<g id="#518594ff">
<path fill="#518594" opacity="1.00" d=" M 171.90 217.91 C 173.56 218.42 175.22 218.93 176.89 219.42 C 180.87 220.53 184.91 221.67 188.36 224.04 C 185.16 224.11 181.94 223.93 178.81 223.24 C 176.57 221.37 174.24 219.64 171.90 217.91 Z" />
</g>
<g id="#4f99abff">
<path fill="#4f99ab" opacity="1.00" d=" M 167.25 220.06 C 169.10 223.15 170.71 226.38 172.74 229.36 C 174.87 232.49 178.21 234.44 181.24 236.57 C 176.85 236.93 173.49 233.69 170.83 230.63 C 169.29 227.99 168.03 225.19 166.70 222.45 C 166.84 221.85 167.12 220.66 167.25 220.06 Z" />
</g>
<g id="#f9ffffff">
<path fill="#f9ffff" opacity="1.00" d=" M 213.28 221.30 C 213.94 221.15 215.27 220.84 215.93 220.69 C 215.41 223.13 214.86 225.72 212.94 227.50 C 210.83 225.92 212.30 223.12 213.28 221.30 Z" />
</g>
<g id="#3b393bff">
<path fill="#3b393b" opacity="1.00" d=" M 148.91 231.28 C 154.54 227.79 160.16 223.99 166.70 222.45 C 168.03 225.19 169.29 227.99 170.83 230.63 C 165.98 232.36 161.62 235.13 157.29 237.86 C 157.49 238.46 157.90 239.67 158.11 240.27 C 153.84 239.10 148.69 236.42 148.91 231.28 Z" />
</g>
<g id="#3f3e42ff">
<path fill="#3f3e42" opacity="1.00" d=" M 219.57 229.86 C 222.95 227.05 226.43 224.36 230.09 221.90 C 230.79 223.15 231.49 224.39 232.18 225.64 C 231.23 227.28 230.27 228.92 229.52 230.66 C 229.43 231.27 229.23 232.47 229.14 233.08 C 228.73 234.07 228.33 235.06 228.03 236.10 C 228.58 238.13 230.39 239.53 231.66 241.15 C 230.76 241.39 229.85 241.64 228.95 241.88 C 228.51 241.98 227.65 242.17 227.22 242.27 C 225.81 240.84 224.72 239.12 223.23 237.79 C 220.97 236.49 218.52 235.58 216.29 234.24 C 215.46 233.77 214.63 233.32 213.79 232.89 C 216.16 232.92 218.52 232.80 220.89 232.70 C 220.45 231.75 220.01 230.81 219.57 229.86 Z" />
</g>
<g id="#6c6b6bff">
<path fill="#6c6b6b" opacity="1.00" d=" M 232.18 225.64 C 233.90 225.21 235.61 224.77 237.33 224.32 C 241.45 225.77 245.59 227.38 249.03 230.15 C 251.17 231.71 253.29 233.31 255.40 234.92 C 255.92 234.80 256.45 234.67 256.98 234.55 C 257.09 235.61 257.21 236.67 257.33 237.73 C 258.50 237.60 259.68 237.47 260.86 237.34 C 260.17 239.37 259.48 241.40 258.78 243.44 C 256.86 243.10 254.94 242.77 253.01 242.44 C 254.45 240.70 252.04 238.86 250.42 240.00 L 250.41 239.34 C 250.42 238.76 250.44 237.58 250.45 237.00 C 245.58 233.98 240.26 231.57 234.61 230.47 C 234.43 230.77 234.07 231.38 233.90 231.68 C 233.74 231.93 233.44 232.43 233.29 232.67 C 232.03 232.00 230.78 231.33 229.52 230.66 C 230.27 228.92 231.23 227.28 232.18 225.64 Z" />
</g>
<g id="#5b9daffe">
<path fill="#5b9daf" opacity="1.00" d=" M 146.60 229.12 C 147.18 228.91 148.35 228.48 148.93 228.26 C 148.93 229.01 148.91 230.52 148.91 231.28 C 148.69 236.42 153.84 239.10 158.11 240.27 C 158.60 240.32 159.58 240.43 160.07 240.49 C 158.09 240.93 156.08 241.16 154.06 241.22 C 150.65 239.80 148.14 236.90 146.87 233.48 C 146.74 232.03 146.68 230.57 146.60 229.12 Z" />
</g>
<g id="#1f1e1ffc">
<path fill="#1f1e1f" opacity="1.00" d=" M 139.79 236.11 C 141.04 232.99 143.92 230.95 146.60 229.12 C 146.68 230.57 146.74 232.03 146.87 233.48 C 145.46 233.81 143.49 233.47 142.83 235.12 C 142.98 238.76 143.91 242.75 146.59 245.38 C 150.10 245.97 153.65 245.20 157.10 244.57 C 160.18 243.89 163.27 243.20 166.41 242.86 C 162.89 245.44 158.60 246.53 154.37 247.22 C 150.30 247.95 146.01 246.72 142.70 244.32 C 140.16 242.48 139.34 239.07 139.79 236.11 Z" />
</g>
<g id="#577b87ff">
<path fill="#577b87" opacity="1.00" d=" M 193.34 229.02 L 194.28 229.01 C 194.69 231.01 195.09 233.00 195.47 235.00 C 194.85 235.25 193.62 235.76 193.00 236.01 C 193.01 233.97 193.01 231.93 193.11 229.90 L 193.34 229.02 Z" />
</g>
<g id="#fcffffff">
<path fill="#fcffff" opacity="1.00" d=" M 205.90 232.69 C 207.20 231.38 208.50 230.08 209.88 228.86 C 210.60 228.97 212.04 229.19 212.76 229.31 C 212.90 230.47 213.04 231.64 213.18 232.81 C 212.62 233.15 211.50 233.85 210.94 234.20 C 209.26 233.71 207.57 233.20 205.90 232.69 Z" />
</g>
<g id="#545455ff">
<path fill="#545455" opacity="1.00" d=" M 188.00 234.08 C 189.81 232.82 191.51 231.42 193.11 229.90 C 193.01 231.93 193.01 233.97 193.00 236.01 C 192.09 236.41 191.19 236.82 190.29 237.25 C 190.40 235.82 189.45 234.33 188.00 234.08 Z" />
</g>
<g id="#5a5a5eff">
<path fill="#5a5a5e" opacity="1.00" d=" M 234.61 230.47 C 240.26 231.57 245.58 233.98 250.45 237.00 C 250.44 237.58 250.42 238.76 250.41 239.34 C 244.54 237.92 237.77 236.85 233.90 231.68 C 234.07 231.38 234.43 230.77 234.61 230.47 Z" />
</g>
<g id="#47494fff">
<path fill="#47494f" opacity="1.00" d=" M 249.03 230.15 C 251.51 230.43 254.02 230.37 256.49 230.79 C 258.53 231.53 260.26 232.92 262.30 233.69 C 264.88 233.88 267.58 232.96 270.05 234.06 C 274.20 235.72 278.34 237.46 282.19 239.76 C 277.81 238.86 273.82 236.81 269.72 235.12 C 268.09 234.38 266.28 234.68 264.56 234.78 C 269.07 238.57 274.77 240.36 280.13 242.57 C 280.10 244.67 280.08 246.78 280.06 248.88 C 277.33 247.67 274.43 246.92 271.51 246.38 C 273.10 247.85 274.80 249.31 276.94 249.92 C 279.52 251.03 282.79 251.22 284.62 253.60 C 286.08 255.40 287.36 257.34 288.72 259.21 C 281.94 256.44 276.23 251.35 268.92 249.87 C 268.51 249.76 267.69 249.53 267.28 249.42 C 268.32 247.82 269.33 246.20 270.33 244.58 C 265.72 242.72 260.93 245.97 258.85 250.02 C 258.60 250.96 258.42 251.91 258.30 252.88 C 257.85 251.92 257.42 250.97 257.01 250.01 C 253.72 248.65 250.36 247.43 246.90 246.58 C 246.93 244.92 248.35 242.64 246.56 241.47 C 242.79 238.72 238.15 237.59 233.75 236.26 C 237.31 238.29 240.91 240.25 244.40 242.41 C 240.98 241.56 237.58 240.65 234.17 239.76 C 235.38 240.90 236.60 242.03 237.82 243.17 C 237.45 243.13 236.71 243.05 236.34 243.00 C 233.87 242.68 231.42 242.21 228.95 241.88 C 229.85 241.64 230.76 241.39 231.66 241.15 C 230.39 239.53 228.58 238.13 228.03 236.10 C 228.33 235.06 228.73 234.07 229.14 233.08 C 230.40 233.14 231.66 233.18 232.93 233.21 L 233.29 232.67 C 233.44 232.43 233.74 231.93 233.90 231.68 C 237.77 236.85 244.54 237.92 250.41 239.34 L 250.42 240.00 C 250.18 241.44 251.76 242.38 253.01 242.44 C 254.94 242.77 256.86 243.10 258.78 243.44 C 259.48 241.40 260.17 239.37 260.86 237.34 C 259.68 237.47 258.50 237.60 257.33 237.73 C 257.21 236.67 257.09 235.61 256.98 234.55 C 256.45 234.67 255.92 234.80 255.40 234.92 C 253.29 233.31 251.17 231.71 249.03 230.15 M 250.20 243.30 C 248.81 244.16 250.23 246.55 251.60 245.47 C 252.98 244.61 251.57 242.22 250.20 243.30 Z" />
</g>
<g id="#282728ff">
<path fill="#282728" opacity="1.00" d=" M 157.29 237.86 C 161.62 235.13 165.98 232.36 170.83 230.63 C 173.49 233.69 176.85 236.93 181.24 236.57 C 183.53 235.86 185.80 235.05 188.00 234.08 C 186.58 235.64 188.24 238.77 190.29 237.25 C 191.19 236.82 192.09 236.41 193.00 236.01 C 193.62 235.76 194.85 235.25 195.47 235.00 C 200.62 234.52 205.84 235.17 210.94 234.20 C 211.50 233.85 212.62 233.15 213.18 232.81 L 213.79 232.89 C 214.63 233.32 215.46 233.77 216.29 234.24 C 213.20 234.89 210.71 236.88 207.87 238.10 C 202.91 238.73 197.88 235.89 193.04 237.87 C 189.34 239.18 185.29 237.94 181.62 239.39 C 177.45 240.84 173.11 242.11 168.64 241.57 C 171.06 239.46 173.96 238.02 176.99 237.00 C 173.62 237.28 170.23 237.36 166.91 238.02 C 164.62 238.82 162.41 239.86 160.07 240.49 C 159.58 240.43 158.60 240.32 158.11 240.27 C 157.90 239.67 157.49 238.46 157.29 237.86 Z" />
</g>
<g id="#92929aff">
<path fill="#92929a" opacity="1.00" d=" M 229.52 230.66 C 230.78 231.33 232.03 232.00 233.29 232.67 L 232.93 233.21 C 231.66 233.18 230.40 233.14 229.14 233.08 C 229.23 232.47 229.43 231.27 229.52 230.66 Z" />
</g>
<g id="#4c4a4cff">
<path fill="#4c4a4c" opacity="1.00" d=" M 142.83 235.12 C 143.49 233.47 145.46 233.81 146.87 233.48 C 148.14 236.90 150.65 239.80 154.06 241.22 C 154.92 241.65 155.79 242.07 156.67 242.50 C 156.78 243.02 156.99 244.05 157.10 244.57 C 153.65 245.20 150.10 245.97 146.59 245.38 C 143.91 242.75 142.98 238.76 142.83 235.12 Z" />
</g>
<g id="#5f99a9ff">
<path fill="#5f99a9" opacity="1.00" d=" M 188.00 234.08 C 189.45 234.33 190.40 235.82 190.29 237.25 C 188.24 238.77 186.58 235.64 188.00 234.08 Z" />
</g>
<g id="#87858aff">
<path fill="#87858a" opacity="1.00" d=" M 264.56 234.78 C 266.28 234.68 268.09 234.38 269.72 235.12 C 273.82 236.81 277.81 238.86 282.19 239.76 L 283.03 239.97 C 283.74 241.35 284.45 242.74 285.17 244.13 C 283.48 243.63 281.79 243.14 280.13 242.57 C 274.77 240.36 269.07 238.57 264.56 234.78 Z" />
</g>
<g id="#65656fff">
<path fill="#65656f" opacity="1.00" d=" M 233.75 236.26 C 238.15 237.59 242.79 238.72 246.56 241.47 C 248.35 242.64 246.93 244.92 246.90 246.58 C 246.37 246.45 245.32 246.19 244.79 246.06 C 243.70 245.70 241.57 245.22 241.29 246.84 C 241.66 248.37 243.78 248.37 244.88 247.67 C 244.92 249.44 245.01 251.21 245.10 252.99 L 244.40 252.62 C 240.11 248.45 233.83 247.62 229.29 243.79 C 228.90 244.42 228.50 245.05 228.11 245.69 C 227.67 245.24 226.78 244.35 226.34 243.91 C 226.56 243.50 227.00 242.68 227.22 242.27 C 227.65 242.17 228.51 241.98 228.95 241.88 C 231.42 242.21 233.87 242.68 236.34 243.00 C 236.05 244.24 236.66 246.05 238.17 246.04 C 239.80 245.68 238.77 243.68 237.82 243.17 C 236.60 242.03 235.38 240.90 234.17 239.76 C 237.58 240.65 240.98 241.56 244.40 242.41 C 240.91 240.25 237.31 238.29 233.75 236.26 Z" />
</g>
<g id="#71d4ebff">
<path fill="#71d4eb" opacity="1.00" d=" M 166.91 238.02 C 170.23 237.36 173.62 237.28 176.99 237.00 C 173.96 238.02 171.06 239.46 168.64 241.57 C 168.27 241.87 167.52 242.46 167.14 242.76 C 167.06 241.18 166.98 239.60 166.91 238.02 Z" />
</g>
<g id="#686669ff">
<path fill="#686669" opacity="1.00" d=" M 160.07 240.49 C 162.41 239.86 164.62 238.82 166.91 238.02 C 166.98 239.60 167.06 241.18 167.14 242.76 L 166.41 242.86 C 163.27 243.20 160.18 243.89 157.10 244.57 C 156.99 244.05 156.78 243.02 156.67 242.50 C 155.79 242.07 154.92 241.65 154.06 241.22 C 156.08 241.16 158.09 240.93 160.07 240.49 Z" />
</g>
<g id="#929199ff">
<path fill="#929199" opacity="1.00" d=" M 250.42 240.00 C 252.04 238.86 254.45 240.70 253.01 242.44 C 251.76 242.38 250.18 241.44 250.42 240.00 Z" />
</g>
<g id="#3c3d44ff">
<path fill="#3c3d44" opacity="1.00" d=" M 283.03 239.97 C 284.04 240.24 285.03 240.58 286.01 240.96 C 287.22 242.47 287.98 244.27 289.12 245.83 C 292.21 247.45 295.88 247.44 298.97 249.08 C 301.43 250.61 302.99 253.18 305.30 254.92 C 309.73 255.94 314.87 254.39 318.57 257.77 C 317.31 258.78 316.04 259.79 314.77 260.78 C 314.94 261.42 315.12 262.07 315.30 262.71 C 314.67 262.87 313.41 263.18 312.79 263.34 C 311.42 262.68 310.09 261.96 308.75 261.26 C 305.89 259.66 302.70 258.73 299.91 257.03 C 298.31 256.09 298.41 253.97 297.87 252.41 C 296.91 253.32 295.94 254.21 294.98 255.12 C 289.75 253.69 284.86 251.35 280.06 248.88 C 280.08 246.78 280.10 244.67 280.13 242.57 C 281.79 243.14 283.48 243.63 285.17 244.13 C 284.45 242.74 283.74 241.35 283.03 239.97 Z" />
<path fill="#3c3d44" opacity="1.00" d=" M 296.18 267.95 C 299.70 268.87 303.10 270.22 306.29 271.98 C 306.14 272.65 305.86 273.97 305.71 274.63 C 304.59 274.82 303.48 274.98 302.36 275.14 C 301.79 274.16 301.21 273.19 300.61 272.24 C 299.30 272.18 297.98 272.13 296.68 272.08 C 296.51 270.70 296.34 269.32 296.18 267.95 Z" />
</g>
<g id="#7d7e86ff">
<path fill="#7d7e86" opacity="1.00" d=" M 228.11 245.69 C 228.50 245.05 228.90 244.42 229.29 243.79 C 233.83 247.62 240.11 248.45 244.40 252.62 C 238.48 251.72 233.01 249.05 228.11 245.69 Z" />
</g>
<g id="#83a2cfff">
<path fill="#83a2cf" opacity="1.00" d=" M 236.34 243.00 C 236.71 243.05 237.45 243.13 237.82 243.17 C 238.77 243.68 239.80 245.68 238.17 246.04 C 236.66 246.05 236.05 244.24 236.34 243.00 Z" />
</g>
<g id="#636264ff">
<path fill="#636264" opacity="1.00" d=" M 250.20 243.30 C 251.57 242.22 252.98 244.61 251.60 245.47 C 250.23 246.55 248.81 244.16 250.20 243.30 Z" />
</g>
<g id="#3a3a3dfe">
<path fill="#3a3a3d" opacity="1.00" d=" M 223.73 250.62 C 224.39 248.31 225.26 246.06 226.34 243.91 C 226.78 244.35 227.67 245.24 228.11 245.69 C 233.01 249.05 238.48 251.72 244.40 252.62 L 245.10 252.99 C 245.01 251.21 244.92 249.44 244.88 247.67 C 244.85 247.26 244.81 246.46 244.79 246.06 C 245.32 246.19 246.37 246.45 246.90 246.58 C 250.36 247.43 253.72 248.65 257.01 250.01 C 257.42 250.97 257.85 251.92 258.30 252.88 C 258.94 254.11 259.90 255.13 260.87 256.11 C 256.60 253.94 252.01 252.51 247.35 251.47 C 246.66 254.05 245.82 256.59 244.78 259.05 C 242.83 258.63 240.91 258.09 239.10 257.29 C 239.63 257.11 240.71 256.74 241.24 256.56 C 240.28 255.66 239.37 254.70 238.29 253.95 C 236.99 253.85 235.72 254.15 234.44 254.32 C 230.59 254.60 227.28 251.79 223.73 250.62 M 228.56 248.41 C 227.75 250.04 231.28 251.08 231.45 249.25 C 231.18 248.07 229.40 247.53 228.56 248.41 Z" />
</g>
<g id="#5a5b62ff">
<path fill="#5a5b62" opacity="1.00" d=" M 258.85 250.02 C 260.93 245.97 265.72 242.72 270.33 244.58 C 269.33 246.20 268.32 247.82 267.28 249.42 C 264.50 248.84 261.06 247.41 258.85 250.02 Z" />
</g>
<g id="#7796bfff">
<path fill="#7796bf" opacity="1.00" d=" M 241.29 246.84 C 241.57 245.22 243.70 245.70 244.79 246.06 C 244.81 246.46 244.85 247.26 244.88 247.67 C 243.78 248.37 241.66 248.37 241.29 246.84 Z" />
</g>
<g id="#6d6d76ff">
<path fill="#6d6d76" opacity="1.00" d=" M 271.51 246.38 C 274.43 246.92 277.33 247.67 280.06 248.88 C 284.86 251.35 289.75 253.69 294.98 255.12 C 295.94 254.21 296.91 253.32 297.87 252.41 C 298.41 253.97 298.31 256.09 299.91 257.03 C 302.70 258.73 305.89 259.66 308.75 261.26 C 309.92 262.55 310.98 263.92 312.07 265.29 C 310.81 265.18 309.57 265.07 308.33 264.96 C 307.36 263.77 306.39 262.58 305.43 261.40 C 304.64 262.24 303.85 263.09 303.06 263.94 C 311.16 268.57 320.47 270.74 328.19 276.09 C 326.10 275.93 323.99 275.78 321.97 275.17 C 319.11 273.59 315.77 273.02 312.73 274.46 C 312.30 274.66 311.42 275.07 310.99 275.27 C 310.80 274.90 310.42 274.15 310.23 273.78 C 310.07 273.44 309.75 272.78 309.59 272.44 C 309.06 271.21 308.60 269.96 308.14 268.71 C 304.97 267.01 301.72 265.48 298.45 264.01 C 298.97 263.18 299.49 262.35 300.02 261.53 C 298.03 260.95 296.05 260.38 294.03 259.93 C 294.22 259.37 294.58 258.24 294.76 257.68 C 293.70 257.44 292.64 257.21 291.58 256.98 C 291.51 257.80 291.37 259.43 291.29 260.24 C 290.66 260.43 289.39 260.80 288.76 260.99 C 285.97 259.94 283.07 258.91 280.04 259.20 C 278.65 258.24 277.28 257.25 275.94 256.23 C 275.25 255.52 274.57 254.81 273.89 254.11 C 272.38 252.52 270.74 251.07 268.92 249.87 C 276.23 251.35 281.94 256.44 288.72 259.21 C 287.36 257.34 286.08 255.40 284.62 253.60 C 282.79 251.22 279.52 251.03 276.94 249.92 C 274.80 249.31 273.10 247.85 271.51 246.38 Z" />
</g>
<g id="#706d6eff">
<path fill="#706d6e" opacity="1.00" d=" M 228.56 248.41 C 229.40 247.53 231.18 248.07 231.45 249.25 C 231.28 251.08 227.75 250.04 228.56 248.41 Z" />
</g>
<g id="#9b999fff">
<path fill="#9b999f" opacity="1.00" d=" M 258.85 250.02 C 261.06 247.41 264.50 248.84 267.28 249.42 C 267.69 249.53 268.51 249.76 268.92 249.87 C 270.74 251.07 272.38 252.52 273.89 254.11 C 270.06 252.12 265.92 250.83 261.74 249.81 C 263.49 251.01 265.25 252.20 267.13 253.20 C 266.32 254.60 265.52 256.01 264.72 257.42 C 263.42 257.00 262.12 256.62 260.87 256.11 C 259.90 255.13 258.94 254.11 258.30 252.88 C 258.42 251.91 258.60 250.96 258.85 250.02 Z" />
</g>
<g id="#69696fff">
<path fill="#69696f" opacity="1.00" d=" M 261.74 249.81 C 265.92 250.83 270.06 252.12 273.89 254.11 C 274.57 254.81 275.25 255.52 275.94 256.23 C 273.02 255.17 270.01 254.36 267.13 253.20 C 265.25 252.20 263.49 251.01 261.74 249.81 Z" />
</g>
<g id="#504d4ef8">
<path fill="#504d4e" opacity="0.97" d=" M 234.44 254.32 C 235.72 254.15 236.99 253.85 238.29 253.95 C 239.37 254.70 240.28 255.66 241.24 256.56 C 240.71 256.74 239.63 257.11 239.10 257.29 C 237.39 256.56 235.92 255.41 234.44 254.32 Z" />
</g>
<g id="#8b8a8eff">
<path fill="#8b8a8e" opacity="1.00" d=" M 267.13 253.20 C 270.01 254.36 273.02 255.17 275.94 256.23 C 277.28 257.25 278.65 258.24 280.04 259.20 L 279.56 260.05 C 274.84 263.01 269.78 259.59 265.39 257.73 L 264.72 257.42 C 265.52 256.01 266.32 254.60 267.13 253.20 Z" />
</g>
<g id="#939197ff">
<path fill="#939197" opacity="1.00" d=" M 291.58 256.98 C 292.64 257.21 293.70 257.44 294.76 257.68 C 294.58 258.24 294.22 259.37 294.03 259.93 C 293.35 260.01 291.98 260.16 291.29 260.24 C 291.37 259.43 291.51 257.80 291.58 256.98 Z" />
</g>
<g id="#5e5d62f7">
<path fill="#5e5d62" opacity="0.97" d=" M 265.39 257.73 C 269.78 259.59 274.84 263.01 279.56 260.05 C 278.89 261.25 278.24 262.46 277.54 263.65 C 277.18 263.82 276.46 264.16 276.10 264.33 C 273.00 262.77 269.88 261.25 266.79 259.67 C 267.03 261.20 267.25 262.72 267.46 264.26 C 266.89 263.85 265.76 263.04 265.20 262.64 C 265.26 261.00 265.32 259.36 265.39 257.73 Z" />
</g>
<g id="#414246ff">
<path fill="#414246" opacity="1.00" d=" M 280.04 259.20 C 283.07 258.91 285.97 259.94 288.76 260.99 C 291.10 261.85 293.47 262.61 295.85 263.34 C 294.85 264.32 293.86 265.31 292.86 266.31 C 291.11 265.99 289.36 265.69 287.61 265.39 C 287.22 266.32 286.81 267.24 286.41 268.17 C 285.94 267.78 284.99 266.99 284.52 266.60 C 282.52 265.68 280.56 264.66 278.46 263.98 L 277.54 263.65 C 278.24 262.46 278.89 261.25 279.56 260.05 L 280.04 259.20 Z" />
</g>
<g id="#42434aff">
<path fill="#42434a" opacity="1.00" d=" M 314.77 260.78 C 316.04 259.79 317.31 258.78 318.57 257.77 C 320.04 259.50 321.24 261.62 323.25 262.79 C 326.50 263.52 329.90 262.97 333.15 263.74 C 335.63 264.29 337.40 266.22 339.31 267.75 C 343.30 271.10 348.21 273.02 352.94 275.08 C 354.43 275.69 355.59 276.84 356.76 277.92 C 354.96 278.53 353.15 279.07 351.33 279.61 C 348.64 278.17 345.89 276.84 343.13 275.56 C 342.48 276.04 341.18 276.99 340.52 277.47 C 343.31 279.91 347.06 280.43 350.61 279.78 C 351.34 281.75 352.09 283.71 352.86 285.67 L 353.13 286.36 C 351.34 288.25 349.40 290.03 347.14 291.36 C 347.07 290.90 346.94 289.98 346.88 289.52 L 346.07 289.05 L 345.26 289.31 L 344.98 290.12 L 345.40 290.96 C 345.83 291.06 346.70 291.26 347.14 291.36 C 343.31 292.15 339.90 289.89 336.80 287.99 C 338.35 287.95 339.90 287.88 341.46 287.77 C 340.03 287.14 338.69 286.11 337.10 286.02 C 335.98 286.49 334.98 287.18 333.99 287.86 C 333.72 288.06 333.16 288.46 332.88 288.66 C 332.72 287.44 332.56 286.21 332.35 285.00 C 333.74 283.40 335.09 281.78 336.43 280.14 C 333.77 278.62 331.10 277.08 328.19 276.09 C 330.28 276.08 332.36 276.18 334.44 276.36 C 336.76 276.71 339.08 276.25 341.30 275.61 C 338.31 273.70 335.18 272.01 331.91 270.64 C 329.76 269.75 327.57 268.96 325.38 268.18 C 322.95 267.01 320.56 265.74 318.00 264.89 C 316.26 264.37 314.49 263.96 312.79 263.34 C 313.41 263.18 314.67 262.87 315.30 262.71 C 315.12 262.07 314.94 261.42 314.77 260.78 Z" />
</g>
<g id="#8f93abff">
<path fill="#8f93ab" opacity="1.00" d=" M 266.79 259.67 C 269.88 261.25 273.00 262.77 276.10 264.33 C 276.75 265.00 277.49 265.57 278.31 266.04 C 274.70 267.38 270.90 266.78 267.56 265.04 L 267.46 264.26 C 267.25 262.72 267.03 261.20 266.79 259.67 Z" />
</g>
<g id="#5f5f66ff">
<path fill="#5f5f66" opacity="1.00" d=" M 291.29 260.24 C 291.98 260.16 293.35 260.01 294.03 259.93 C 296.05 260.38 298.03 260.95 300.02 261.53 C 299.49 262.35 298.97 263.18 298.45 264.01 C 301.72 265.48 304.97 267.01 308.14 268.71 C 308.60 269.96 309.06 271.21 309.59 272.44 C 308.31 273.19 307.03 273.95 305.71 274.63 C 305.86 273.97 306.14 272.65 306.29 271.98 C 303.10 270.22 299.70 268.87 296.18 267.95 C 296.34 269.32 296.51 270.70 296.68 272.08 L 296.25 271.50 C 295.08 269.79 293.98 268.04 292.86 266.31 C 293.86 265.31 294.85 264.32 295.85 263.34 C 293.47 262.61 291.10 261.85 288.76 260.99 C 289.39 260.80 290.66 260.43 291.29 260.24 Z" />
</g>
<g id="#575862ff">
<path fill="#575862" opacity="1.00" d=" M 303.06 263.94 C 303.85 263.09 304.64 262.24 305.43 261.40 C 306.39 262.58 307.36 263.77 308.33 264.96 C 309.57 265.07 310.81 265.18 312.07 265.29 C 310.98 263.92 309.92 262.55 308.75 261.26 C 310.09 261.96 311.42 262.68 312.79 263.34 C 314.49 263.96 316.26 264.37 318.00 264.89 C 316.91 265.60 315.83 266.32 314.76 267.05 C 318.24 267.92 321.81 268.17 325.38 268.18 C 327.57 268.96 329.76 269.75 331.91 270.64 C 331.65 271.68 331.39 272.72 331.14 273.76 C 332.23 274.64 333.32 275.52 334.44 276.36 C 332.36 276.18 330.28 276.08 328.19 276.09 C 320.47 270.74 311.16 268.57 303.06 263.94 M 323.49 271.33 C 322.57 272.50 324.61 273.86 325.47 272.77 C 326.38 271.60 324.34 270.24 323.49 271.33 Z" />
</g>
<g id="#a3a2a4e8">
<path fill="#a3a2a4" opacity="0.91" d=" M 276.10 264.33 C 276.46 264.16 277.18 263.82 277.54 263.65 L 278.46 263.98 L 278.96 264.77 C 278.80 265.09 278.47 265.72 278.31 266.04 C 277.49 265.57 276.75 265.00 276.10 264.33 Z" />
</g>
<g id="#9799a4ff">
<path fill="#9799a4" opacity="1.00" d=" M 287.61 265.39 C 289.36 265.69 291.11 265.99 292.86 266.31 C 293.98 268.04 295.08 269.79 296.25 271.50 L 295.31 271.88 C 295.01 272.28 294.40 273.06 294.10 273.46 L 293.31 273.48 C 292.74 271.52 292.19 269.56 291.64 267.60 C 290.16 268.77 288.69 269.95 287.23 271.13 C 287.72 271.90 288.21 272.67 288.70 273.44 C 288.28 273.36 287.43 273.20 287.01 273.12 C 286.10 272.78 285.20 272.42 284.31 272.03 C 284.92 270.98 285.54 269.95 286.07 268.86 L 286.41 268.17 C 286.81 267.24 287.22 266.32 287.61 265.39 Z" />
<path fill="#9799a4" opacity="1.00" d=" M 310.99 275.27 C 311.42 275.07 312.30 274.66 312.73 274.46 C 313.47 276.55 314.19 278.65 314.91 280.75 C 313.32 281.33 311.75 282.09 310.06 282.31 C 307.90 282.23 306.16 280.73 304.35 279.73 C 305.04 279.05 305.73 278.36 306.43 277.68 C 307.60 278.21 308.79 278.74 309.97 279.28 C 310.32 277.94 310.66 276.61 310.99 275.27 Z" />
</g>
<g id="#717178ff">
<path fill="#717178" opacity="1.00" d=" M 314.76 267.05 C 315.83 266.32 316.91 265.60 318.00 264.89 C 320.56 265.74 322.95 267.01 325.38 268.18 C 321.81 268.17 318.24 267.92 314.76 267.05 Z" />
</g>
<g id="#e9e5e9ff">
<path fill="#e9e5e9" opacity="1.00" d=" M 284.52 266.60 C 284.99 266.99 285.94 267.78 286.41 268.17 L 286.07 268.86 L 285.11 269.06 L 284.22 268.45 L 284.00 267.37 L 284.52 266.60 Z" />
</g>
<g id="#d3d4e1ff">
<path fill="#d3d4e1" opacity="1.00" d=" M 287.23 271.13 C 288.69 269.95 290.16 268.77 291.64 267.60 C 292.19 269.56 292.74 271.52 293.31 273.48 C 291.77 273.52 290.23 273.53 288.70 273.44 C 288.21 272.67 287.72 271.90 287.23 271.13 Z" />
</g>
<g id="#76767eff">
<path fill="#76767e" opacity="1.00" d=" M 323.49 271.33 C 324.34 270.24 326.38 271.60 325.47 272.77 C 324.61 273.86 322.57 272.50 323.49 271.33 Z" />
</g>
<g id="#6e6e73ff">
<path fill="#6e6e73" opacity="1.00" d=" M 331.14 273.76 C 331.39 272.72 331.65 271.68 331.91 270.64 C 335.18 272.01 338.31 273.70 341.30 275.61 C 339.08 276.25 336.76 276.71 334.44 276.36 C 333.32 275.52 332.23 274.64 331.14 273.76 Z" />
</g>
<g id="#bebcc0f9">
<path fill="#bebcc0" opacity="0.98" d=" M 294.10 273.46 C 294.40 273.06 295.01 272.28 295.31 271.88 L 296.25 271.50 L 296.68 272.08 C 296.25 273.26 295.39 273.72 294.10 273.46 Z" />
</g>
<g id="#343437a7">
<path fill="#343437" opacity="0.65" d=" M 296.68 272.08 C 297.98 272.13 299.30 272.18 300.61 272.24 C 301.21 273.19 301.79 274.16 302.36 275.14 C 302.68 276.13 302.95 277.15 303.19 278.17 C 302.34 278.02 301.49 277.88 300.65 277.73 C 300.40 276.10 300.15 274.47 299.91 272.84 C 295.73 273.98 290.91 276.21 287.01 273.12 C 287.43 273.20 288.28 273.36 288.70 273.44 C 290.23 273.53 291.77 273.52 293.31 273.48 L 294.10 273.46 C 295.39 273.72 296.25 273.26 296.68 272.08 Z" />
</g>
<g id="#7e7f88fd">
<path fill="#7e7f88" opacity="1.00" d=" M 305.71 274.63 C 307.03 273.95 308.31 273.19 309.59 272.44 C 309.75 272.78 310.07 273.44 310.23 273.78 C 308.99 275.11 307.71 276.39 306.43 277.68 C 305.73 278.36 305.04 279.05 304.35 279.73 C 304.18 279.91 303.83 280.25 303.65 280.43 C 303.53 279.86 303.30 278.74 303.19 278.17 C 302.95 277.15 302.68 276.13 302.36 275.14 C 303.48 274.98 304.59 274.82 305.71 274.63 Z" />
</g>
<g id="#44454cff">
<path fill="#44454c" opacity="1.00" d=" M 312.73 274.46 C 315.77 273.02 319.11 273.59 321.97 275.17 C 323.24 276.41 324.46 277.72 325.68 279.02 C 325.24 279.70 324.81 280.37 324.38 281.05 C 324.05 281.54 323.40 282.52 323.07 283.00 C 322.00 280.99 318.89 283.15 321.22 284.37 C 321.58 284.64 322.30 285.18 322.66 285.45 C 322.02 286.10 321.38 286.76 320.74 287.42 C 319.60 285.15 318.93 282.70 318.49 280.21 C 317.29 280.38 316.10 280.56 314.91 280.75 C 314.19 278.65 313.47 276.55 312.73 274.46 Z" />
</g>
<g id="#e3e4ebff">
<path fill="#e3e4eb" opacity="1.00" d=" M 306.43 277.68 C 307.71 276.39 308.99 275.11 310.23 273.78 C 310.42 274.15 310.80 274.90 310.99 275.27 C 310.66 276.61 310.32 277.94 309.97 279.28 C 308.79 278.74 307.60 278.21 306.43 277.68 Z" />
</g>
<g id="#666771ff">
<path fill="#666771" opacity="1.00" d=" M 321.97 275.17 C 323.99 275.78 326.10 275.93 328.19 276.09 C 331.10 277.08 333.77 278.62 336.43 280.14 C 335.09 281.78 333.74 283.40 332.35 285.00 C 331.44 283.83 330.64 282.43 329.27 281.73 C 327.67 281.30 326.01 281.22 324.38 281.05 C 324.81 280.37 325.24 279.70 325.68 279.02 C 324.46 277.72 323.24 276.41 321.97 275.17 Z" />
</g>
<g id="#727279ff">
<path fill="#727279" opacity="1.00" d=" M 340.52 277.47 C 341.18 276.99 342.48 276.04 343.13 275.56 C 345.89 276.84 348.64 278.17 351.33 279.61 L 350.61 279.78 C 347.06 280.43 343.31 279.91 340.52 277.47 Z" />
</g>
<g id="#5e5f67fe">
<path fill="#5e5f67" opacity="1.00" d=" M 351.33 279.61 C 353.15 279.07 354.96 278.53 356.76 277.92 C 355.96 280.71 355.53 283.96 352.86 285.67 C 352.09 283.71 351.34 281.75 350.61 279.78 L 351.33 279.61 Z" />
</g>
<g id="#9192a1ff">
<path fill="#9192a1" opacity="1.00" d=" M 324.38 281.05 C 326.01 281.22 327.67 281.30 329.27 281.73 C 330.64 282.43 331.44 283.83 332.35 285.00 C 332.56 286.21 332.72 287.44 332.88 288.66 C 330.75 289.40 328.47 290.35 326.18 289.76 C 324.27 289.23 322.52 288.26 320.74 287.42 C 321.38 286.76 322.02 286.10 322.66 285.45 C 322.30 285.18 321.58 284.64 321.22 284.37 C 321.68 284.03 322.61 283.35 323.07 283.00 C 323.40 282.52 324.05 281.54 324.38 281.05 M 323.96 286.89 C 325.64 286.88 327.31 286.86 329.00 286.86 C 329.03 285.19 329.05 283.53 329.07 281.87 C 327.23 283.39 325.52 285.07 323.96 286.89 Z" />
</g>
<g id="#a4a2a7ff">
<path fill="#a4a2a7" opacity="1.00" d=" M 321.22 284.37 C 318.89 283.15 322.00 280.99 323.07 283.00 C 322.61 283.35 321.68 284.03 321.22 284.37 Z" />
</g>
<g id="#c7c8d5ff">
<path fill="#c7c8d5" opacity="1.00" d=" M 323.96 286.89 C 325.52 285.07 327.23 283.39 329.07 281.87 C 329.05 283.53 329.03 285.19 329.00 286.86 C 327.31 286.86 325.64 286.88 323.96 286.89 Z" />
</g>
<g id="#4c4d53f1">
<path fill="#4c4d53" opacity="0.95" d=" M 333.99 287.86 C 334.98 287.18 335.98 286.49 337.10 286.02 C 338.69 286.11 340.03 287.14 341.46 287.77 C 339.90 287.88 338.35 287.95 336.80 287.99 C 336.10 287.96 334.70 287.89 333.99 287.86 Z" />
</g>
<g id="#6b696efd">
<path fill="#6b696e" opacity="1.00" d=" M 345.26 289.31 L 346.07 289.05 L 346.88 289.52 C 346.94 289.98 347.07 290.90 347.14 291.36 C 346.70 291.26 345.83 291.06 345.40 290.96 L 344.98 290.12 L 345.26 289.31 Z" />
</g>
</svg>
