<?xml version="1.0" encoding="UTF-8" ?>
<!DOCTYPE svg PUBLIC "-//W3C//DTD SVG 1.1//EN" "http://www.w3.org/Graphics/SVG/1.1/DTD/svg11.dtd">
<svg width="384pt" height="384pt" viewBox="0 0 384 384" version="1.1" xmlns="http://www.w3.org/2000/svg">
<g id="#0f0f108b">
<path fill="#0f0f10" opacity="0.55" d=" M 217.00 153.50 C 219.18 152.01 221.58 150.68 224.26 150.49 C 226.76 150.05 228.88 151.71 230.95 152.83 C 226.88 151.68 222.60 151.96 218.57 153.14 C 218.18 153.23 217.39 153.41 217.00 153.50 Z" />
</g>
<g id="#393839ff">
<path fill="#393839" opacity="1.00" d=" M 218.57 153.14 C 222.60 151.96 226.88 151.68 230.95 152.83 C 231.74 154.07 232.39 155.39 233.04 156.71 C 228.13 155.91 223.17 155.14 218.57 153.14 Z" />
</g>
<g id="#5ba5b8ff">
<path fill="#5ba5b8" opacity="1.00" d=" M 215.76 153.83 C 216.07 153.74 216.69 153.58 217.00 153.50 C 217.39 153.41 218.18 153.23 218.57 153.14 C 223.17 155.14 228.13 155.91 233.04 156.71 C 234.02 157.12 234.91 157.93 235.18 158.98 C 235.24 159.29 235.36 159.92 235.42 160.24 C 233.28 159.40 231.20 158.30 228.91 157.94 C 226.66 157.75 224.40 158.02 222.16 158.15 C 220.44 156.17 218.26 154.65 215.76 153.83 Z" />
</g>
<g id="#1c1c1cff">
<path fill="#1c1c1c" opacity="1.00" d=" M 209.88 155.86 C 211.85 155.21 213.79 154.46 215.76 153.83 C 218.26 154.65 220.44 156.17 222.16 158.15 C 224.40 158.02 226.66 157.75 228.91 157.94 C 231.20 158.30 233.28 159.40 235.42 160.24 C 235.36 159.92 235.24 159.29 235.18 158.98 C 235.57 160.61 235.68 162.34 234.83 163.86 C 232.88 167.96 231.94 172.53 229.31 176.30 C 227.92 178.15 227.30 180.49 227.85 182.77 C 228.65 183.60 229.51 184.36 230.44 185.06 C 229.31 185.30 228.18 185.54 227.05 185.78 C 227.17 183.42 227.29 181.07 227.42 178.71 C 224.08 180.04 220.50 179.77 217.13 178.71 C 214.65 180.54 212.13 182.85 208.83 182.75 C 209.03 181.75 209.22 180.74 209.42 179.74 C 210.23 179.16 211.04 178.57 211.85 177.98 C 212.79 177.28 213.73 176.57 214.68 175.87 C 211.73 175.71 208.72 175.58 205.92 174.53 C 206.67 171.80 209.49 168.48 207.35 165.80 C 203.77 162.81 198.91 164.23 194.73 164.52 C 194.36 164.40 193.62 164.16 193.26 164.04 C 197.22 160.40 202.57 159.21 207.58 157.77 C 211.66 159.23 214.69 162.42 217.87 165.22 C 216.25 161.31 213.29 158.26 209.88 155.86 Z" />
</g>
<g id="#141514ff">
<path fill="#141514" opacity="1.00" d=" M 199.19 157.21 C 200.96 156.95 202.77 156.08 204.56 156.54 C 205.57 156.93 206.57 157.34 207.58 157.77 C 202.57 159.21 197.22 160.40 193.26 164.04 C 192.21 163.72 191.15 163.46 190.10 163.19 C 190.47 163.65 191.21 164.55 191.57 165.01 C 190.57 169.61 189.19 174.47 185.64 177.80 C 183.13 178.49 180.70 176.96 178.35 176.29 C 180.33 172.37 182.61 168.63 184.83 164.85 C 181.07 166.96 178.04 170.06 175.55 173.54 C 170.27 171.76 164.97 170.02 159.56 168.67 L 158.69 168.44 C 161.76 168.69 164.83 169.01 167.89 169.35 C 169.78 167.09 171.55 164.70 173.84 162.81 C 176.68 160.52 180.27 159.45 183.79 158.73 C 188.87 157.69 194.15 158.52 199.19 157.21 Z" />
</g>
<g id="#2f5d6af9">
<path fill="#2f5d6a" opacity="0.98" d=" M 204.56 156.54 C 206.32 156.29 208.10 156.07 209.88 155.86 C 213.29 158.26 216.25 161.31 217.87 165.22 C 214.69 162.42 211.66 159.23 207.58 157.77 C 206.57 157.34 205.57 156.93 204.56 156.54 Z" />
</g>
<g id="#16151781">
<path fill="#161517" opacity="0.51" d=" M 147.96 162.40 C 149.58 162.27 151.21 162.15 152.84 162.02 C 152.73 162.32 152.53 162.92 152.43 163.23 C 151.69 165.40 151.06 167.60 150.48 169.82 C 149.90 169.92 148.73 170.12 148.14 170.23 C 148.64 169.54 149.13 168.85 149.63 168.17 C 149.04 166.25 148.49 164.33 147.96 162.40 Z" />
</g>
<g id="#5ca0b1ff">
<path fill="#5ca0b1" opacity="1.00" d=" M 190.10 163.19 C 191.15 163.46 192.21 163.72 193.26 164.04 C 193.62 164.16 194.36 164.40 194.73 164.52 C 195.79 165.64 196.82 166.79 197.89 167.90 C 200.09 170.23 202.63 172.20 205.25 174.04 L 205.92 174.53 C 208.72 175.58 211.73 175.71 214.68 175.87 C 213.73 176.57 212.79 177.28 211.85 177.98 C 209.90 177.63 207.96 177.26 206.02 176.88 C 202.07 174.87 198.65 172.00 195.41 169.00 C 194.07 167.73 192.78 166.41 191.57 165.01 C 191.21 164.55 190.47 163.65 190.10 163.19 Z" />
</g>
<g id="#403f44ff">
<path fill="#403f44" opacity="1.00" d=" M 150.48 169.82 C 151.06 167.60 151.69 165.40 152.43 163.23 C 153.75 164.47 155.69 165.53 155.63 167.61 C 155.79 168.83 155.92 170.06 156.05 171.29 C 157.22 170.42 158.39 169.54 159.56 168.67 C 164.97 170.02 170.27 171.76 175.55 173.54 C 178.04 170.06 181.07 166.96 184.83 164.85 C 182.61 168.63 180.33 172.37 178.35 176.29 C 180.70 176.96 183.13 178.49 185.64 177.80 C 189.19 174.47 190.57 169.61 191.57 165.01 C 192.78 166.41 194.07 167.73 195.41 169.00 C 193.96 172.33 192.12 175.55 191.38 179.13 C 190.94 181.06 192.07 183.20 193.89 183.96 C 195.84 184.74 197.96 184.95 200.02 185.22 C 202.46 185.46 204.90 185.64 207.33 185.88 C 207.00 186.13 206.34 186.61 206.01 186.86 C 204.67 186.72 203.63 187.14 202.88 188.13 C 202.10 189.24 201.35 190.38 200.61 191.51 C 202.56 193.10 204.51 194.70 206.42 196.34 C 204.25 197.33 202.03 198.22 199.76 198.98 C 199.30 197.12 198.84 195.26 198.38 193.40 C 197.83 193.36 196.71 193.27 196.15 193.22 C 196.36 195.93 196.58 198.64 196.84 201.34 C 198.14 202.01 199.44 202.68 200.74 203.35 C 198.90 205.81 196.63 207.92 193.97 209.48 C 196.22 213.20 198.26 217.38 202.13 219.68 C 205.02 221.43 207.91 223.22 210.42 225.51 C 208.85 227.17 207.29 228.84 205.76 230.53 C 207.44 231.09 209.12 231.66 210.81 232.23 C 211.94 231.45 213.08 230.68 214.23 229.91 C 219.28 226.59 224.25 223.15 229.27 219.78 C 229.90 219.99 231.15 220.41 231.77 220.62 C 231.72 221.92 231.68 223.23 231.58 224.53 C 231.22 225.72 230.86 226.90 230.52 228.09 C 230.42 228.49 230.22 229.29 230.11 229.69 C 230.12 231.84 230.37 233.98 230.64 236.12 C 228.83 235.98 227.03 235.86 225.23 235.67 C 224.10 235.66 223.11 235.32 222.24 234.67 C 221.44 233.98 220.67 233.26 219.95 232.51 C 221.20 231.51 222.45 230.51 223.70 229.51 C 221.62 229.50 219.54 229.50 217.47 229.65 C 215.95 231.54 214.65 233.61 213.35 235.66 C 208.81 235.52 204.27 235.23 199.72 235.09 C 198.99 232.60 198.21 230.12 197.57 227.60 C 197.57 227.21 197.58 226.42 197.58 226.02 C 196.81 226.89 196.06 227.76 195.27 228.60 C 194.89 227.32 194.52 226.03 193.89 224.85 C 190.67 225.33 187.58 226.54 184.32 226.80 C 182.90 225.88 181.71 224.67 180.43 223.57 C 183.74 224.02 187.09 224.01 190.42 223.78 C 186.09 221.81 181.36 221.12 176.88 219.64 C 178.03 219.05 179.18 218.45 180.34 217.86 C 177.91 215.19 175.16 212.82 172.18 210.79 C 171.55 212.48 170.92 214.16 170.28 215.84 C 169.08 215.34 167.88 214.83 166.68 214.34 C 166.17 211.60 166.21 208.60 164.76 206.16 C 161.42 202.34 155.18 200.51 154.44 194.85 C 154.41 194.50 154.36 193.80 154.34 193.45 C 159.07 195.45 163.57 198.53 168.91 198.47 C 170.30 198.61 171.68 198.78 173.07 198.97 C 172.89 199.52 172.54 200.63 172.36 201.19 C 174.05 202.42 175.74 203.65 177.49 204.81 C 179.92 206.51 182.50 207.99 185.16 209.30 C 185.55 207.88 186.82 206.40 186.04 204.90 C 185.31 203.18 184.51 201.50 183.79 199.79 C 183.86 196.97 184.85 194.29 185.89 191.69 C 183.64 190.64 181.36 189.66 179.06 188.75 C 179.05 190.45 179.07 192.16 179.09 193.87 C 177.45 194.18 175.81 194.48 174.17 194.78 C 174.00 190.67 173.85 186.46 172.52 182.53 C 171.81 180.06 169.09 179.47 167.08 178.44 C 162.88 175.44 158.25 173.02 153.17 171.91 C 153.15 171.29 153.10 170.04 153.08 169.42 C 152.43 169.52 151.13 169.72 150.48 169.82 Z" />
</g>
<g id="#424142ff">
<path fill="#424142" opacity="1.00" d=" M 194.73 164.52 C 198.91 164.23 203.77 162.81 207.35 165.80 C 209.49 168.48 206.67 171.80 205.92 174.53 L 205.25 174.04 C 204.79 172.07 204.87 169.90 203.86 168.11 C 202.20 166.62 199.83 167.85 197.89 167.90 C 196.82 166.79 195.79 165.64 194.73 164.52 Z" />
</g>
<g id="#605e60ff">
<path fill="#605e60" opacity="1.00" d=" M 197.89 167.90 C 199.83 167.85 202.20 166.62 203.86 168.11 C 204.87 169.90 204.79 172.07 205.25 174.04 C 202.63 172.20 200.09 170.23 197.89 167.90 Z" />
</g>
<g id="#31bec0f2">
<path fill="#31bec0" opacity="0.95" d=" M 156.05 171.29 C 155.92 170.06 155.79 168.83 155.63 167.61 C 156.40 167.82 157.93 168.23 158.69 168.44 L 159.56 168.67 C 158.39 169.54 157.22 170.42 156.05 171.29 Z" />
</g>
<g id="#65a4b5ff">
<path fill="#65a4b5" opacity="1.00" d=" M 150.48 169.82 C 151.13 169.72 152.43 169.52 153.08 169.42 C 153.10 170.04 153.15 171.29 153.17 171.91 C 153.21 172.62 153.30 174.05 153.34 174.77 C 153.63 177.26 154.19 179.72 154.86 182.13 C 155.12 183.06 155.38 183.99 155.65 184.92 C 155.50 185.60 155.21 186.95 155.07 187.63 C 154.85 187.23 154.42 186.42 154.20 186.01 C 152.17 181.94 151.60 177.37 150.95 172.92 C 150.83 172.15 150.60 170.59 150.48 169.82 Z" />
</g>
<g id="#565556ff">
<path fill="#565556" opacity="1.00" d=" M 195.41 169.00 C 198.65 172.00 202.07 174.87 206.02 176.88 C 202.47 177.29 199.46 179.26 197.62 182.30 C 198.42 183.28 199.22 184.25 200.02 185.22 C 197.96 184.95 195.84 184.74 193.89 183.96 C 192.07 183.20 190.94 181.06 191.38 179.13 C 192.12 175.55 193.96 172.33 195.41 169.00 Z" />
</g>
<g id="#202020fe">
<path fill="#202020" opacity="1.00" d=" M 125.27 177.36 C 133.11 175.66 140.15 171.35 148.14 170.23 C 148.73 170.12 149.90 169.92 150.48 169.82 C 150.60 170.59 150.83 172.15 150.95 172.92 C 143.13 176.17 134.86 178.08 126.91 180.96 C 126.85 180.13 126.79 179.31 126.72 178.50 C 123.96 178.79 121.20 179.20 118.43 179.41 C 115.76 179.54 113.08 179.52 110.40 179.55 C 109.62 183.32 109.59 187.19 109.97 191.01 C 109.50 190.94 108.58 190.79 108.11 190.71 L 107.88 189.96 C 108.01 188.05 109.71 183.84 106.63 183.71 C 105.15 183.76 103.68 183.83 102.21 183.91 C 102.15 181.81 102.10 179.72 102.01 177.63 C 105.75 177.29 109.35 179.05 113.07 178.33 C 117.12 177.72 121.27 178.28 125.27 177.36 Z" />
</g>
<g id="#6e6c6dff">
<path fill="#6e6c6d" opacity="1.00" d=" M 153.17 171.91 C 158.25 173.02 162.88 175.44 167.08 178.44 C 167.17 178.98 167.33 180.05 167.42 180.58 C 163.57 182.22 159.62 183.62 155.65 184.92 C 155.38 183.99 155.12 183.06 154.86 182.13 C 157.64 181.56 160.41 180.99 163.18 180.39 C 162.69 179.05 162.24 177.69 161.57 176.42 C 159.10 174.99 156.09 175.16 153.34 174.77 C 153.30 174.05 153.21 172.62 153.17 171.91 Z" />
</g>
<g id="#545354ff">
<path fill="#545354" opacity="1.00" d=" M 126.91 180.96 C 134.86 178.08 143.13 176.17 150.95 172.92 C 151.60 177.37 152.17 181.94 154.20 186.01 C 146.64 184.68 138.85 184.21 131.21 185.14 C 129.00 185.18 128.38 187.68 127.21 189.14 C 122.13 190.44 116.98 191.63 111.73 191.92 L 110.63 191.98 L 110.93 191.15 C 111.27 190.18 111.56 189.20 111.81 188.21 C 113.75 187.65 115.69 187.10 117.64 186.57 C 120.83 186.94 124.04 187.00 127.24 186.81 C 127.15 184.85 127.05 182.90 126.91 180.96 Z" />
</g>
<g id="#838183ff">
<path fill="#838183" opacity="1.00" d=" M 153.34 174.77 C 156.09 175.16 159.10 174.99 161.57 176.42 C 162.24 177.69 162.69 179.05 163.18 180.39 C 160.41 180.99 157.64 181.56 154.86 182.13 C 154.19 179.72 153.63 177.26 153.34 174.77 Z" />
</g>
<g id="#313233ff">
<path fill="#313233" opacity="1.00" d=" M 197.62 182.30 C 199.46 179.26 202.47 177.29 206.02 176.88 C 207.96 177.26 209.90 177.63 211.85 177.98 C 211.04 178.57 210.23 179.16 209.42 179.74 C 209.22 180.74 209.03 181.75 208.83 182.75 C 205.18 181.58 201.33 181.08 197.62 182.30 Z" />
</g>
<g id="#77e6f8ff">
<path fill="#77e6f8" opacity="1.00" d=" M 100.25 178.32 C 100.69 178.15 101.57 177.81 102.01 177.63 C 102.10 179.72 102.15 181.81 102.21 183.91 C 102.26 185.20 102.31 186.49 102.36 187.79 C 102.18 189.35 101.97 190.90 101.72 192.45 C 98.34 188.81 99.69 183.51 99.70 179.03 L 100.25 178.32 Z" />
</g>
<g id="#7e7c7eff">
<path fill="#7e7c7e" opacity="1.00" d=" M 118.43 179.41 C 121.20 179.20 123.96 178.79 126.72 178.50 C 124.46 180.59 121.48 181.34 118.50 181.62 C 118.20 183.27 117.92 184.92 117.64 186.57 C 115.69 187.10 113.75 187.65 111.81 188.21 C 111.68 186.82 111.48 185.43 111.26 184.05 C 113.02 183.86 114.78 183.67 116.55 183.49 C 117.17 182.13 117.80 180.77 118.43 179.41 Z" />
</g>
<g id="#938f92ff">
<path fill="#938f92" opacity="1.00" d=" M 126.72 178.50 C 126.79 179.31 126.85 180.13 126.91 180.96 C 127.05 182.90 127.15 184.85 127.24 186.81 C 124.04 187.00 120.83 186.94 117.64 186.57 C 117.92 184.92 118.20 183.27 118.50 181.62 C 121.48 181.34 124.46 180.59 126.72 178.50 Z" />
</g>
<g id="#131414ff">
<path fill="#131414" opacity="1.00" d=" M 167.08 178.44 C 169.09 179.47 171.81 180.06 172.52 182.53 C 173.85 186.46 174.00 190.67 174.17 194.78 C 173.88 196.19 173.49 197.58 173.07 198.97 C 171.68 198.78 170.30 198.61 168.91 198.47 C 169.40 196.25 170.12 194.06 170.19 191.78 C 170.04 190.04 169.30 188.44 168.79 186.79 C 168.15 184.76 167.73 182.68 167.42 180.58 C 167.33 180.05 167.17 178.98 167.08 178.44 Z" />
</g>
<g id="#1e525cff">
<path fill="#1e525c" opacity="1.00" d=" M 217.13 178.71 C 220.50 179.77 224.08 180.04 227.42 178.71 C 227.29 181.07 227.17 183.42 227.05 185.78 L 226.27 185.94 C 222.91 186.34 219.52 186.52 216.13 186.54 C 213.19 186.46 210.26 186.15 207.33 185.88 C 204.90 185.64 202.46 185.46 200.02 185.22 C 199.22 184.25 198.42 183.28 197.62 182.30 C 201.33 181.08 205.18 181.58 208.83 182.75 C 212.13 182.85 214.65 180.54 217.13 178.71 Z" />
</g>
<g id="#2b4c55c7">
<path fill="#2b4c55" opacity="0.78" d=" M 98.65 190.49 C 97.77 186.69 97.89 182.55 99.70 179.03 C 99.69 183.51 98.34 188.81 101.72 192.45 C 101.97 190.90 102.18 189.35 102.36 187.79 C 102.73 188.71 103.11 189.62 103.51 190.54 C 105.04 190.57 106.58 190.61 108.11 190.71 C 108.58 190.79 109.50 190.94 109.97 191.01 L 110.93 191.15 L 110.63 191.98 C 107.50 192.32 104.37 192.67 101.23 192.67 C 100.00 192.72 99.04 191.54 98.65 190.49 Z" />
</g>
<g id="#585658ff">
<path fill="#585658" opacity="1.00" d=" M 110.40 179.55 C 113.08 179.52 115.76 179.54 118.43 179.41 C 117.80 180.77 117.17 182.13 116.55 183.49 C 114.78 183.67 113.02 183.86 111.26 184.05 C 110.99 182.54 110.71 181.04 110.40 179.55 Z" />
</g>
<g id="#538493ff">
<path fill="#538493" opacity="1.00" d=" M 109.97 191.01 C 109.59 187.19 109.62 183.32 110.40 179.55 C 110.71 181.04 110.99 182.54 111.26 184.05 C 111.48 185.43 111.68 186.82 111.81 188.21 C 111.56 189.20 111.27 190.18 110.93 191.15 L 109.97 191.01 Z" />
</g>
<g id="#484648ff">
<path fill="#484648" opacity="1.00" d=" M 167.42 180.58 C 167.73 182.68 168.15 184.76 168.79 186.79 C 164.37 188.30 159.70 188.65 155.06 188.53 L 155.07 187.63 C 155.21 186.95 155.50 185.60 155.65 184.92 C 159.62 183.62 163.57 182.22 167.42 180.58 Z" />
</g>
<g id="#598694ff">
<path fill="#598694" opacity="1.00" d=" M 106.63 183.71 C 109.71 183.84 108.01 188.05 107.88 189.96 C 107.19 187.94 106.60 185.85 106.63 183.71 Z" />
</g>
<g id="#77777aff">
<path fill="#77777a" opacity="1.00" d=" M 102.21 183.91 C 103.68 183.83 105.15 183.76 106.63 183.71 C 106.60 185.85 107.19 187.94 107.88 189.96 L 108.11 190.71 C 106.58 190.61 105.04 190.57 103.51 190.54 C 103.11 189.62 102.73 188.71 102.36 187.79 C 102.31 186.49 102.26 185.20 102.21 183.91 Z" />
</g>
<g id="#1c1c1cfd">
<path fill="#1c1c1c" opacity="1.00" d=" M 127.21 189.14 C 128.38 187.68 129.00 185.18 131.21 185.14 C 138.85 184.21 146.64 184.68 154.20 186.01 C 154.42 186.42 154.85 187.23 155.07 187.63 L 155.06 188.53 C 153.56 188.53 152.06 188.56 150.57 188.66 C 149.39 188.79 148.23 188.98 147.07 189.20 C 146.48 189.87 145.92 190.56 145.38 191.27 C 139.89 188.27 133.54 189.78 127.65 190.22 C 124.20 190.38 120.91 191.42 117.67 192.50 C 115.69 193.30 113.64 192.46 111.73 191.92 C 116.98 191.63 122.13 190.44 127.21 189.14 Z" />
</g>
<g id="#78abb5ff">
<path fill="#78abb5" opacity="1.00" d=" M 216.13 186.54 C 219.52 186.52 222.91 186.34 226.27 185.94 C 223.88 186.63 221.52 187.46 219.23 188.43 C 219.13 188.80 218.93 189.53 218.84 189.89 C 218.94 194.92 219.46 200.00 218.40 204.97 C 217.07 204.56 215.75 204.14 214.44 203.72 C 214.25 201.39 214.07 199.05 213.77 196.73 C 213.61 195.74 213.36 194.77 213.03 193.83 C 210.94 192.14 208.32 191.33 205.88 190.31 C 209.42 190.23 212.97 190.06 216.51 189.89 C 216.38 188.77 216.25 187.65 216.13 186.54 M 213.45 191.22 C 212.51 192.90 215.44 194.22 216.45 192.82 C 217.38 191.14 214.45 189.82 213.45 191.22 M 215.03 193.81 C 214.97 196.96 214.96 200.10 214.98 203.25 C 215.80 203.24 217.45 203.23 218.28 203.23 C 218.34 200.47 218.38 197.72 218.42 194.96 C 217.28 194.59 216.15 194.21 215.03 193.81 Z" />
</g>
<g id="#464547ff">
<path fill="#464547" opacity="1.00" d=" M 227.05 185.78 C 228.18 185.54 229.31 185.30 230.44 185.06 C 231.11 188.67 230.62 192.33 229.45 195.78 C 229.77 196.09 230.42 196.71 230.74 197.02 C 232.74 199.04 235.07 200.96 236.14 203.68 C 236.88 206.05 236.62 208.58 236.67 211.03 L 236.44 210.40 C 236.27 209.94 235.94 209.03 235.77 208.57 C 235.27 208.79 234.77 209.00 234.27 209.22 C 231.84 201.10 226.62 193.64 218.84 189.89 C 218.93 189.53 219.13 188.80 219.23 188.43 C 221.52 187.46 223.88 186.63 226.27 185.94 L 227.05 185.78 Z" />
</g>
<g id="#3a6e7cc5">
<path fill="#3a6e7c" opacity="0.77" d=" M 230.44 185.06 C 231.24 185.77 232.60 186.08 232.84 187.27 C 233.64 190.67 231.84 193.90 230.74 197.02 C 230.42 196.71 229.77 196.09 229.45 195.78 C 230.62 192.33 231.11 188.67 230.44 185.06 Z" />
</g>
<g id="#56555dff">
<path fill="#56555d" opacity="1.00" d=" M 207.33 185.88 C 210.26 186.15 213.19 186.46 216.13 186.54 C 216.25 187.65 216.38 188.77 216.51 189.89 C 212.97 190.06 209.42 190.23 205.88 190.31 C 208.32 191.33 210.94 192.14 213.03 193.83 C 213.36 194.77 213.61 195.74 213.77 196.73 C 212.31 199.39 211.06 202.15 209.91 204.96 C 207.35 206.01 204.62 206.83 202.35 208.46 C 201.21 209.11 201.02 210.47 201.20 211.66 C 203.33 214.57 206.72 216.18 209.06 218.89 C 210.48 220.65 211.10 222.88 211.88 224.96 C 212.63 224.91 214.12 224.80 214.86 224.74 C 215.36 222.45 215.83 220.14 216.41 217.87 C 217.81 213.97 218.40 209.87 218.28 205.73 L 218.40 204.97 C 219.46 200.00 218.94 194.92 218.84 189.89 C 226.62 193.64 231.84 201.10 234.27 209.22 C 234.77 209.00 235.27 208.79 235.77 208.57 C 235.94 209.03 236.27 209.94 236.44 210.40 C 235.96 211.07 235.02 212.41 234.54 213.08 C 230.48 211.89 226.54 210.32 222.81 208.32 C 221.48 210.84 220.18 213.37 218.92 215.92 C 220.06 217.43 221.19 218.95 222.32 220.47 C 224.36 218.57 226.78 217.17 229.48 216.47 C 229.41 217.57 229.34 218.67 229.27 219.78 C 224.25 223.15 219.28 226.59 214.23 229.91 C 214.10 228.69 213.98 227.47 213.86 226.25 C 212.71 226.00 211.56 225.76 210.42 225.51 C 207.91 223.22 205.02 221.43 202.13 219.68 C 198.26 217.38 196.22 213.20 193.97 209.48 C 196.63 207.92 198.90 205.81 200.74 203.35 C 199.44 202.68 198.14 202.01 196.84 201.34 C 196.58 198.64 196.36 195.93 196.15 193.22 C 196.71 193.27 197.83 193.36 198.38 193.40 C 198.84 195.26 199.30 197.12 199.76 198.98 C 202.03 198.22 204.25 197.33 206.42 196.34 C 204.51 194.70 202.56 193.10 200.61 191.51 C 201.35 190.38 202.10 189.24 202.88 188.13 C 203.88 189.90 205.79 188.27 206.01 186.86 C 206.34 186.61 207.00 186.13 207.33 185.88 Z" />
</g>
<g id="#7f7d82ff">
<path fill="#7f7d82" opacity="1.00" d=" M 202.88 188.13 C 203.63 187.14 204.67 186.72 206.01 186.86 C 205.79 188.27 203.88 189.90 202.88 188.13 Z" />
</g>
<g id="#39373cf3">
<path fill="#39373c" opacity="0.95" d=" M 147.07 189.20 C 148.23 188.98 149.39 188.79 150.57 188.66 C 151.17 189.82 151.78 190.97 152.42 192.11 C 152.13 192.27 151.55 192.57 151.25 192.73 C 148.70 194.60 145.85 191.93 147.07 189.20 Z" />
</g>
<g id="#285c67ff">
<path fill="#285c67" opacity="1.00" d=" M 179.06 188.75 C 181.36 189.66 183.64 190.64 185.89 191.69 C 184.85 194.29 183.86 196.97 183.79 199.79 C 181.20 199.34 178.61 198.97 176.00 198.70 C 176.83 200.67 177.68 202.64 178.54 204.60 L 177.49 204.81 C 175.74 203.65 174.05 202.42 172.36 201.19 C 172.54 200.63 172.89 199.52 173.07 198.97 C 173.49 197.58 173.88 196.19 174.17 194.78 C 175.81 194.48 177.45 194.18 179.09 193.87 C 179.07 192.16 179.05 190.45 179.06 188.75 Z" />
</g>
<g id="#e5ffffff">
<path fill="#e5ffff" opacity="1.00" d=" M 213.45 191.22 C 214.45 189.82 217.38 191.14 216.45 192.82 C 215.44 194.22 212.51 192.90 213.45 191.22 Z" />
</g>
<g id="#2baeb0df">
<path fill="#2baeb0" opacity="0.87" d=" M 151.25 192.73 C 151.55 192.57 152.13 192.27 152.42 192.11 C 153.05 192.57 153.69 193.01 154.34 193.45 C 154.36 193.80 154.41 194.50 154.44 194.85 C 153.23 196.14 150.73 194.29 151.25 192.73 Z" />
</g>
<g id="#faffffff">
<path fill="#faffff" opacity="1.00" d=" M 215.03 193.81 C 216.15 194.21 217.28 194.59 218.42 194.96 C 218.38 197.72 218.34 200.47 218.28 203.23 C 217.45 203.23 215.80 203.24 214.98 203.25 C 214.96 200.10 214.97 196.96 215.03 193.81 Z" />
<path fill="#faffff" opacity="1.00" d=" M 214.58 215.49 C 213.54 212.29 213.39 207.94 217.06 206.41 C 217.19 208.86 217.24 211.31 217.25 213.76 C 216.58 214.19 215.25 215.06 214.58 215.49 Z" />
</g>
<g id="#6b6871ff">
<path fill="#6b6871" opacity="1.00" d=" M 209.91 204.96 C 211.06 202.15 212.31 199.39 213.77 196.73 C 214.07 199.05 214.25 201.39 214.44 203.72 C 215.75 204.14 217.07 204.56 218.40 204.97 L 218.28 205.73 C 216.47 206.44 214.18 206.43 212.76 207.86 C 212.12 212.23 212.66 216.69 212.11 221.09 C 212.01 222.38 211.93 223.67 211.88 224.96 C 211.10 222.88 210.48 220.65 209.06 218.89 C 206.72 216.18 203.33 214.57 201.20 211.66 C 201.02 210.47 201.21 209.11 202.35 208.46 C 204.62 206.83 207.35 206.01 209.91 204.96 Z" />
</g>
<g id="#377683ff">
<path fill="#377683" opacity="1.00" d=" M 176.00 198.70 C 178.61 198.97 181.20 199.34 183.79 199.79 C 184.51 201.50 185.31 203.18 186.04 204.90 C 183.69 202.67 180.71 201.33 177.81 199.98 C 179.36 201.22 180.92 202.44 182.47 203.68 C 181.49 203.91 179.52 204.37 178.54 204.60 C 177.68 202.64 176.83 200.67 176.00 198.70 Z" />
</g>
<g id="#222323ff">
<path fill="#222323" opacity="1.00" d=" M 177.81 199.98 C 180.71 201.33 183.69 202.67 186.04 204.90 C 186.82 206.40 185.55 207.88 185.16 209.30 C 182.50 207.99 179.92 206.51 177.49 204.81 L 178.54 204.60 C 179.52 204.37 181.49 203.91 182.47 203.68 C 180.92 202.44 179.36 201.22 177.81 199.98 Z" />
</g>
<g id="#afdee4ff">
<path fill="#afdee4" opacity="1.00" d=" M 212.76 207.86 C 214.18 206.43 216.47 206.44 218.28 205.73 C 218.40 209.87 217.81 213.97 216.41 217.87 C 214.83 218.74 213.29 219.71 212.11 221.09 C 212.66 216.69 212.12 212.23 212.76 207.86 M 214.58 215.49 C 215.25 215.06 216.58 214.19 217.25 213.76 C 217.24 211.31 217.19 208.86 217.06 206.41 C 213.39 207.94 213.54 212.29 214.58 215.49 Z" />
</g>
<g id="#4a474cff">
<path fill="#4a474c" opacity="1.00" d=" M 218.92 215.92 C 220.18 213.37 221.48 210.84 222.81 208.32 C 226.54 210.32 230.48 211.89 234.54 213.08 C 234.53 214.68 233.09 216.95 234.99 217.96 C 237.34 219.57 239.77 221.07 241.89 222.99 C 239.98 222.32 238.04 221.56 236.00 221.50 C 234.31 222.15 232.95 223.40 231.58 224.53 C 231.68 223.23 231.72 221.92 231.77 220.62 C 231.15 220.41 229.90 219.99 229.27 219.78 C 229.34 218.67 229.41 217.57 229.48 216.47 C 226.78 217.17 224.36 218.57 222.32 220.47 C 221.19 218.95 220.06 217.43 218.92 215.92 Z" />
</g>
<g id="#191a19ff">
<path fill="#191a19" opacity="1.00" d=" M 172.18 210.79 C 175.16 212.82 177.91 215.19 180.34 217.86 C 179.18 218.45 178.03 219.05 176.88 219.64 C 175.58 219.08 174.32 218.46 173.08 217.80 C 172.10 217.20 171.19 216.52 170.28 215.84 C 170.92 214.16 171.55 212.48 172.18 210.79 Z" />
</g>
<g id="#4d8797ff">
<path fill="#4d8797" opacity="1.00" d=" M 173.08 217.80 C 174.32 218.46 175.58 219.08 176.88 219.64 C 181.36 221.12 186.09 221.81 190.42 223.78 C 187.09 224.01 183.74 224.02 180.43 223.57 C 178.12 222.09 175.69 220.81 173.24 219.61 C 173.20 219.16 173.12 218.25 173.08 217.80 Z" />
</g>
<g id="#f0ffffff">
<path fill="#f0ffff" opacity="1.00" d=" M 212.11 221.09 C 213.29 219.71 214.83 218.74 216.41 217.87 C 215.83 220.14 215.36 222.45 214.86 224.74 C 214.12 224.80 212.63 224.91 211.88 224.96 C 211.93 223.67 212.01 222.38 212.11 221.09 Z" />
</g>
<g id="#1f1f1fff">
<path fill="#1f1f1f" opacity="1.00" d=" M 149.51 230.85 C 156.95 226.31 164.24 220.38 173.24 219.61 C 175.69 220.81 178.12 222.09 180.43 223.57 C 181.71 224.67 182.90 225.88 184.32 226.80 C 187.58 226.54 190.67 225.33 193.89 224.85 C 194.52 226.03 194.89 227.32 195.27 228.60 C 191.61 232.09 187.68 236.03 182.33 236.46 C 179.52 234.77 176.58 233.12 174.42 230.59 C 172.09 227.86 170.58 224.57 169.01 221.38 C 168.65 221.74 167.93 222.46 167.57 222.82 C 164.75 225.49 161.03 226.82 157.80 228.89 C 155.42 230.41 153.69 232.68 151.95 234.86 C 151.12 233.53 150.33 232.18 149.51 230.85 Z" />
</g>
<g id="#4e99abff">
<path fill="#4e99ab" opacity="1.00" d=" M 167.57 222.82 C 167.93 222.46 168.65 221.74 169.01 221.38 C 170.58 224.57 172.09 227.86 174.42 230.59 C 176.58 233.12 179.52 234.77 182.33 236.46 C 181.19 236.55 180.06 236.61 178.92 236.68 C 176.31 234.77 173.66 232.90 171.35 230.63 C 169.97 228.08 168.81 225.43 167.57 222.82 Z" />
</g>
<g id="#686767ff">
<path fill="#686767" opacity="1.00" d=" M 231.58 224.53 C 232.95 223.40 234.31 222.15 236.00 221.50 C 238.04 221.56 239.98 222.32 241.89 222.99 C 244.70 224.21 247.37 225.73 250.04 227.25 C 253.01 228.97 255.98 230.78 259.23 231.93 C 257.44 233.39 259.97 236.21 261.53 234.40 C 262.28 233.89 263.04 233.38 263.80 232.88 C 263.06 235.57 262.32 238.26 261.57 240.95 C 259.76 240.23 257.94 239.55 256.17 238.77 C 254.66 238.00 253.17 237.18 251.69 236.37 C 251.54 235.42 251.41 234.46 251.29 233.51 C 247.16 231.62 243.03 229.53 238.54 228.69 C 236.86 228.32 235.40 229.46 233.94 230.08 C 232.80 229.42 231.66 228.75 230.52 228.09 C 230.86 226.90 231.22 225.72 231.58 224.53 Z" />
</g>
<g id="#353435ff">
<path fill="#353435" opacity="1.00" d=" M 157.80 228.89 C 161.03 226.82 164.75 225.49 167.57 222.82 C 168.81 225.43 169.97 228.08 171.35 230.63 C 167.37 233.52 163.30 236.34 159.73 239.75 C 161.87 239.98 164.00 240.21 166.15 240.33 C 165.59 240.58 164.46 241.07 163.89 241.32 C 159.11 241.26 154.22 239.30 151.95 234.86 C 153.69 232.68 155.42 230.41 157.80 228.89 Z" />
</g>
<g id="#565658ff">
<path fill="#565658" opacity="1.00" d=" M 195.27 228.60 C 196.06 227.76 196.81 226.89 197.58 226.02 C 197.58 226.42 197.57 227.21 197.57 227.60 C 197.32 230.59 196.93 233.57 196.63 236.55 C 196.05 236.83 194.89 237.38 194.30 237.66 C 194.15 235.52 193.74 233.34 192.22 231.74 C 192.06 233.71 192.00 235.70 192.04 237.69 L 191.25 237.71 C 185.24 237.74 179.48 239.66 173.67 240.97 C 172.82 239.93 171.96 238.90 171.11 237.87 C 173.66 237.19 176.29 236.85 178.92 236.68 C 180.06 236.61 181.19 236.55 182.33 236.46 C 187.68 236.03 191.61 232.09 195.27 228.60 Z" />
</g>
<g id="#92d7dfff">
<path fill="#92d7df" opacity="1.00" d=" M 210.42 225.51 C 211.56 225.76 212.71 226.00 213.86 226.25 C 213.98 227.47 214.10 228.69 214.23 229.91 C 213.08 230.68 211.94 231.45 210.81 232.23 C 209.12 231.66 207.44 231.09 205.76 230.53 C 207.29 228.84 208.85 227.17 210.42 225.51 M 208.29 230.35 C 208.93 230.47 210.21 230.73 210.85 230.85 C 212.52 230.15 212.66 228.14 213.29 226.68 C 211.07 227.04 209.54 228.60 208.29 230.35 Z" />
</g>
<g id="#fcffffff">
<path fill="#fcffff" opacity="1.00" d=" M 208.29 230.35 C 209.54 228.60 211.07 227.04 213.29 226.68 C 212.66 228.14 212.52 230.15 210.85 230.85 C 210.21 230.73 208.93 230.47 208.29 230.35 Z" />
</g>
<g id="#4b4b4fff">
<path fill="#4b4b4f" opacity="1.00" d=" M 250.04 227.25 C 252.87 227.50 255.73 227.39 258.54 227.87 C 261.07 228.72 262.99 230.75 265.13 232.26 C 264.65 235.46 264.12 238.64 263.61 241.83 C 264.24 241.86 265.49 241.92 266.12 241.95 C 264.15 244.37 262.04 246.72 260.54 249.49 C 260.41 250.02 260.15 251.09 260.02 251.63 C 263.02 252.94 265.97 254.38 268.92 255.81 C 263.19 254.34 257.63 250.99 251.52 252.38 C 251.66 251.72 251.80 251.06 251.94 250.40 C 252.64 249.32 253.33 248.21 253.80 247.01 C 252.89 245.71 251.77 244.57 250.72 243.39 C 249.38 241.41 248.59 238.80 246.32 237.67 C 243.06 235.92 239.41 235.10 235.86 234.21 C 239.80 236.08 244.02 237.61 247.26 240.65 C 243.48 239.90 239.79 238.77 236.11 237.63 C 237.39 238.87 238.66 240.11 239.94 241.36 C 237.84 240.83 235.74 240.30 233.66 239.75 C 232.66 238.53 231.65 237.32 230.64 236.12 C 230.37 233.98 230.12 231.84 230.11 229.69 C 231.39 229.83 232.66 229.96 233.94 230.08 C 235.40 229.46 236.86 228.32 238.54 228.69 C 243.03 229.53 247.16 231.62 251.29 233.51 C 251.41 234.46 251.54 235.42 251.69 236.37 C 251.93 237.22 252.23 238.04 252.59 238.85 C 253.69 239.50 255.00 238.90 256.17 238.77 C 257.94 239.55 259.76 240.23 261.57 240.95 C 262.32 238.26 263.06 235.57 263.80 232.88 C 263.04 233.38 262.28 233.89 261.53 234.40 C 261.35 233.06 260.59 232.23 259.23 231.93 C 255.98 230.78 253.01 228.97 250.04 227.25 Z" />
</g>
<g id="#567c88ff">
<path fill="#567c88" opacity="1.00" d=" M 196.63 236.55 C 196.93 233.57 197.32 230.59 197.57 227.60 C 198.21 230.12 198.99 232.60 199.72 235.09 C 198.69 235.58 197.66 236.07 196.63 236.55 Z" />
</g>
<g id="#7a7b82ff">
<path fill="#7a7b82" opacity="1.00" d=" M 230.52 228.09 C 231.66 228.75 232.80 229.42 233.94 230.08 C 232.66 229.96 231.39 229.83 230.11 229.69 C 230.22 229.29 230.42 228.49 230.52 228.09 Z" />
</g>
<g id="#59595eff">
<path fill="#59595e" opacity="1.00" d=" M 217.47 229.65 C 219.54 229.50 221.62 229.50 223.70 229.51 C 222.45 230.51 221.20 231.51 219.95 232.51 C 219.11 231.56 218.28 230.61 217.47 229.65 Z" />
</g>
<g id="#242527e5">
<path fill="#242527" opacity="0.90" d=" M 213.35 235.66 C 214.65 233.61 215.95 231.54 217.47 229.65 C 218.28 230.61 219.11 231.56 219.95 232.51 C 220.67 233.26 221.44 233.98 222.24 234.67 C 220.60 234.44 218.96 234.09 217.30 234.18 C 215.71 235.41 214.39 236.96 212.79 238.17 C 208.40 238.27 203.97 236.38 199.64 237.81 C 197.19 238.58 194.65 239.14 192.07 238.77 C 192.63 238.49 193.74 237.94 194.30 237.66 C 194.89 237.38 196.05 236.83 196.63 236.55 C 197.66 236.07 198.69 235.58 199.72 235.09 C 204.27 235.23 208.81 235.52 213.35 235.66 Z" />
</g>
<g id="#60a7bbff">
<path fill="#60a7bb" opacity="1.00" d=" M 149.51 230.85 C 150.33 232.18 151.12 233.53 151.95 234.86 C 154.22 239.30 159.11 241.26 163.89 241.32 C 161.69 241.96 159.38 242.17 157.09 242.11 C 154.99 240.94 152.69 239.79 151.33 237.70 C 150.22 235.93 150.04 233.78 149.65 231.78 L 149.51 230.85 Z" />
</g>
<g id="#272627ff">
<path fill="#272627" opacity="1.00" d=" M 159.73 239.75 C 163.30 236.34 167.37 233.52 171.35 230.63 C 173.66 232.90 176.31 234.77 178.92 236.68 C 176.29 236.85 173.66 237.19 171.11 237.87 C 169.44 238.66 167.83 239.55 166.15 240.33 C 164.00 240.21 161.87 239.98 159.73 239.75 Z" />
</g>
<g id="#44464eff">
<path fill="#44464e" opacity="1.00" d=" M 265.13 232.26 C 267.08 231.64 269.09 231.19 271.13 230.96 C 270.51 231.56 269.27 232.76 268.65 233.35 C 273.99 236.03 279.47 238.43 285.06 240.54 C 284.42 241.68 283.78 242.83 283.15 243.98 C 283.71 245.01 284.28 246.04 284.85 247.07 C 281.79 245.79 278.64 244.73 275.40 244.03 C 278.24 246.41 281.92 247.15 285.13 248.83 C 287.53 250.75 289.06 253.51 290.99 255.87 C 284.36 252.33 276.83 251.34 269.92 248.56 C 271.35 248.36 272.77 248.17 274.20 247.99 C 272.57 247.03 269.75 247.13 269.17 245.03 C 269.87 243.56 270.82 242.23 271.72 240.87 C 269.86 241.28 268.00 241.70 266.12 241.95 C 265.49 241.92 264.24 241.86 263.61 241.83 C 264.12 238.64 264.65 235.46 265.13 232.26 Z" />
</g>
<g id="#4a484aff">
<path fill="#4a484a" opacity="1.00" d=" M 148.97 233.20 C 149.14 232.85 149.48 232.14 149.65 231.78 C 150.04 233.78 150.22 235.93 151.33 237.70 C 152.69 239.79 154.99 240.94 157.09 242.11 C 159.02 243.17 160.80 244.46 162.52 245.83 C 158.45 246.56 154.32 246.80 150.22 247.30 C 149.98 246.93 149.49 246.20 149.25 245.83 C 147.39 241.87 146.61 237.14 148.97 233.20 Z" />
</g>
<g id="#6393a1ff">
<path fill="#6393a1" opacity="1.00" d=" M 192.22 231.74 C 193.74 233.34 194.15 235.52 194.30 237.66 C 193.74 237.94 192.63 238.49 192.07 238.77 L 192.04 237.69 C 192.00 235.70 192.06 233.71 192.22 231.74 Z" />
</g>
<g id="#333433ff">
<path fill="#333433" opacity="1.00" d=" M 259.23 231.93 C 260.59 232.23 261.35 233.06 261.53 234.40 C 259.97 236.21 257.44 233.39 259.23 231.93 Z" />
</g>
<g id="#88868bff">
<path fill="#88868b" opacity="1.00" d=" M 268.65 233.35 C 269.27 232.76 270.51 231.56 271.13 230.96 C 271.55 231.23 272.39 231.76 272.81 232.02 C 276.74 234.64 281.23 236.27 285.83 237.29 C 286.44 237.44 287.68 237.75 288.30 237.90 C 288.53 239.23 288.76 240.56 289.00 241.90 C 287.68 241.45 286.36 241.01 285.06 240.54 C 279.47 238.43 273.99 236.03 268.65 233.35 Z" />
</g>
<g id="#39383ba5">
<path fill="#39383b" opacity="0.65" d=" M 272.81 232.02 C 277.37 233.15 281.81 234.82 285.83 237.29 C 281.23 236.27 276.74 234.64 272.81 232.02 Z" />
</g>
<g id="#1c1c1cfe">
<path fill="#1c1c1c" opacity="1.00" d=" M 144.34 235.31 C 145.88 234.61 147.43 233.90 148.97 233.20 C 146.61 237.14 147.39 241.87 149.25 245.83 C 147.83 245.35 145.84 245.53 145.09 243.95 C 143.83 241.26 144.36 238.18 144.34 235.31 Z" />
</g>
<g id="#61636aff">
<path fill="#61636a" opacity="1.00" d=" M 235.86 234.21 C 239.41 235.10 243.06 235.92 246.32 237.67 C 248.59 238.80 249.38 241.41 250.72 243.39 C 248.64 243.00 246.55 242.67 244.46 242.31 C 244.49 242.84 244.54 243.90 244.57 244.43 C 244.59 244.79 244.63 245.51 244.65 245.87 C 243.99 246.02 242.68 246.31 242.02 246.46 C 243.88 247.45 245.74 248.44 247.61 249.43 C 247.75 250.06 248.04 251.31 248.18 251.94 C 241.91 249.80 235.51 247.57 230.20 243.47 C 231.35 242.22 232.50 240.99 233.66 239.75 C 235.74 240.30 237.84 240.83 239.94 241.36 C 238.66 240.11 237.39 238.87 236.11 237.63 C 239.79 238.77 243.48 239.90 247.26 240.65 C 244.02 237.61 239.80 236.08 235.86 234.21 M 238.73 241.90 C 239.43 243.97 241.35 244.71 243.33 245.12 C 243.11 244.49 242.68 243.21 242.47 242.58 C 241.23 242.28 239.98 242.06 238.73 241.90 Z" />
</g>
<g id="#343438ff">
<path fill="#343438" opacity="1.00" d=" M 225.23 235.67 C 227.03 235.86 228.83 235.98 230.64 236.12 C 231.65 237.32 232.66 238.53 233.66 239.75 C 232.50 240.99 231.35 242.22 230.20 243.47 C 235.51 247.57 241.91 249.80 248.18 251.94 C 248.04 251.31 247.75 250.06 247.61 249.43 C 245.74 248.44 243.88 247.45 242.02 246.46 C 242.68 246.31 243.99 246.02 244.65 245.87 C 245.44 246.75 247.59 247.50 248.02 245.86 C 247.95 244.21 245.78 243.90 244.57 244.43 C 244.54 243.90 244.49 242.84 244.46 242.31 C 246.55 242.67 248.64 243.00 250.72 243.39 C 251.77 244.57 252.89 245.71 253.80 247.01 C 253.33 248.21 252.64 249.32 251.94 250.40 C 250.63 252.01 249.28 253.63 247.62 254.89 C 245.36 254.57 243.28 253.57 241.20 252.70 C 240.63 253.42 240.07 254.15 239.51 254.88 C 235.83 253.59 232.16 252.31 228.46 251.08 C 228.43 247.73 229.00 244.42 229.14 241.09 C 228.43 238.93 226.65 237.37 225.23 235.67 M 233.14 247.42 C 230.93 248.71 235.38 251.08 235.87 248.90 C 235.71 247.69 234.20 247.10 233.14 247.42 Z" />
</g>
<g id="#232425c6">
<path fill="#232425" opacity="0.78" d=" M 173.67 240.97 C 179.48 239.66 185.24 237.74 191.25 237.71 C 187.87 239.44 184.20 240.48 180.54 241.43 C 173.89 243.20 167.66 246.33 160.89 247.65 C 156.88 248.47 152.78 247.98 148.77 247.46 C 149.14 247.42 149.86 247.34 150.22 247.30 C 154.32 246.80 158.45 246.56 162.52 245.83 C 165.25 245.34 167.94 244.62 170.54 243.65 C 171.61 242.78 172.64 241.88 173.67 240.97 Z" />
</g>
<g id="#78777eff">
<path fill="#78777e" opacity="1.00" d=" M 252.59 238.85 C 252.23 238.04 251.93 237.22 251.69 236.37 C 253.17 237.18 254.66 238.00 256.17 238.77 C 255.00 238.90 253.69 239.50 252.59 238.85 Z" />
</g>
<g id="#67686bff">
<path fill="#67686b" opacity="1.00" d=" M 166.15 240.33 C 167.83 239.55 169.44 238.66 171.11 237.87 C 170.92 239.79 170.74 241.72 170.54 243.65 C 167.94 244.62 165.25 245.34 162.52 245.83 C 160.80 244.46 159.02 243.17 157.09 242.11 C 159.38 242.17 161.69 241.96 163.89 241.32 C 164.46 241.07 165.59 240.58 166.15 240.33 Z" />
</g>
<g id="#6cc1d6ff">
<path fill="#6cc1d6" opacity="1.00" d=" M 171.11 237.87 C 171.96 238.90 172.82 239.93 173.67 240.97 C 172.64 241.88 171.61 242.78 170.54 243.65 C 170.74 241.72 170.92 239.79 171.11 237.87 Z" />
</g>
<g id="#3d3e45ff">
<path fill="#3d3e45" opacity="1.00" d=" M 288.30 237.90 C 289.14 238.23 289.98 238.56 290.82 238.90 C 291.50 240.29 292.11 241.74 293.00 243.02 C 296.46 245.24 300.75 245.58 304.35 247.53 C 306.81 249.00 308.33 251.65 310.86 253.01 C 314.37 254.04 318.17 252.99 321.67 254.13 C 325.02 255.25 326.73 258.84 329.95 260.18 C 333.53 261.34 337.40 260.76 341.00 261.82 C 343.96 263.07 346.15 265.55 348.87 267.23 C 352.89 269.90 357.76 270.85 361.86 273.37 C 362.16 274.60 362.30 275.86 362.46 277.12 L 361.69 277.47 C 360.27 278.10 358.86 278.73 357.45 279.38 C 357.80 280.12 358.52 281.60 358.88 282.34 C 359.65 281.48 360.42 280.61 361.17 279.73 C 359.86 283.00 358.25 286.29 355.65 288.72 C 353.82 290.32 351.32 289.32 349.31 288.73 C 346.03 287.58 342.61 286.94 339.19 286.39 C 339.14 285.95 339.05 285.05 339.01 284.60 C 344.01 285.46 348.87 286.99 353.55 288.95 C 353.90 287.44 354.34 285.94 354.46 284.39 C 352.00 280.64 347.81 278.61 344.06 276.42 C 343.25 277.53 342.46 278.65 341.66 279.78 C 344.25 281.44 346.78 283.20 349.20 285.12 C 345.79 284.57 342.43 283.75 339.15 282.68 C 339.90 280.61 340.64 278.53 341.36 276.45 C 340.11 275.96 338.86 275.48 337.64 274.96 C 336.02 274.17 334.43 273.33 332.80 272.57 C 337.33 273.56 342.08 273.53 346.49 272.01 C 340.84 268.35 334.22 266.77 328.19 263.89 C 324.79 262.25 321.10 260.65 317.26 261.75 C 318.66 263.10 320.10 264.41 321.56 265.71 C 320.95 266.12 320.34 266.54 319.74 266.96 C 317.04 265.19 315.33 262.43 315.06 259.21 C 311.29 257.48 307.26 256.33 303.58 254.42 C 301.82 253.58 301.58 251.42 300.85 249.81 C 299.25 250.40 297.63 251.57 295.86 251.06 C 292.04 250.16 288.47 248.50 284.85 247.07 C 284.28 246.04 283.71 245.01 283.15 243.98 C 283.78 242.83 284.42 241.68 285.06 240.54 C 286.36 241.01 287.68 241.45 289.00 241.90 C 288.76 240.56 288.53 239.23 288.30 237.90 M 345.47 274.93 C 349.56 277.34 354.36 276.92 358.90 276.81 C 355.35 275.07 351.84 273.12 347.98 272.20 C 346.81 272.73 346.29 274.02 345.47 274.93 Z" />
</g>
<g id="#65656cff">
<path fill="#65656c" opacity="1.00" d=" M 266.12 241.95 C 268.00 241.70 269.86 241.28 271.72 240.87 C 270.82 242.23 269.87 243.56 269.17 245.03 C 269.75 247.13 272.57 247.03 274.20 247.99 C 272.77 248.17 271.35 248.36 269.92 248.56 C 276.83 251.34 284.36 252.33 290.99 255.87 C 289.06 253.51 287.53 250.75 285.13 248.83 C 281.92 247.15 278.24 246.41 275.40 244.03 C 278.64 244.73 281.79 245.79 284.85 247.07 C 288.47 248.50 292.04 250.16 295.86 251.06 C 297.63 251.57 299.25 250.40 300.85 249.81 C 301.58 251.42 301.82 253.58 303.58 254.42 C 307.26 256.33 311.29 257.48 315.06 259.21 C 315.33 262.43 317.04 265.19 319.74 266.96 C 319.32 267.24 318.48 267.82 318.06 268.11 C 319.08 268.71 320.11 269.31 321.16 269.88 C 320.07 270.68 318.98 271.47 317.88 272.25 C 317.48 272.36 316.69 272.56 316.30 272.67 C 313.69 273.05 311.70 274.81 309.77 276.47 L 309.12 276.22 C 309.90 275.19 310.69 274.16 311.45 273.10 C 312.34 271.55 313.72 269.85 313.17 267.94 C 312.64 265.22 309.54 264.69 307.48 263.53 C 303.62 261.96 300.78 258.82 297.36 256.56 C 297.19 255.93 296.83 254.68 296.66 254.05 C 295.97 254.00 294.61 253.89 293.93 253.84 C 294.34 254.96 294.76 256.09 295.19 257.22 C 294.10 257.53 293.02 257.85 291.94 258.16 C 289.24 257.43 286.53 256.35 283.69 256.55 C 282.59 257.87 281.86 259.44 281.22 261.02 C 280.93 262.65 280.76 264.30 280.60 265.95 C 279.12 265.93 277.64 265.93 276.16 265.94 L 276.52 265.42 C 277.27 264.35 278.01 263.27 278.76 262.20 C 277.88 261.44 277.01 260.69 276.14 259.95 C 274.27 260.51 272.40 261.07 270.53 261.60 C 270.14 261.71 269.37 261.92 268.98 262.03 C 269.21 260.10 269.60 258.19 270.20 256.35 C 274.10 258.07 278.46 257.94 282.22 255.90 C 276.35 252.20 269.71 250.04 263.17 247.84 C 262.29 248.38 261.42 248.93 260.54 249.49 C 262.04 246.72 264.15 244.37 266.12 241.95 Z" />
</g>
<g id="#83a2cdff">
<path fill="#83a2cd" opacity="1.00" d=" M 238.73 241.90 C 239.98 242.06 241.23 242.28 242.47 242.58 C 242.68 243.21 243.11 244.49 243.33 245.12 C 241.35 244.71 239.43 243.97 238.73 241.90 Z" />
</g>
<g id="#7898c2ff">
<path fill="#7898c2" opacity="1.00" d=" M 244.57 244.43 C 245.78 243.90 247.95 244.21 248.02 245.86 C 247.59 247.50 245.44 246.75 244.65 245.87 C 244.63 245.51 244.59 244.79 244.57 244.43 Z" />
</g>
<g id="#6e6b6bff">
<path fill="#6e6b6b" opacity="1.00" d=" M 233.14 247.42 C 234.20 247.10 235.71 247.69 235.87 248.90 C 235.38 251.08 230.93 248.71 233.14 247.42 Z" />
</g>
<g id="#87858aff">
<path fill="#87858a" opacity="1.00" d=" M 260.54 249.49 C 261.42 248.93 262.29 248.38 263.17 247.84 C 269.71 250.04 276.35 252.20 282.22 255.90 C 278.46 257.94 274.10 258.07 270.20 256.35 C 269.88 256.21 269.24 255.94 268.92 255.81 C 265.97 254.38 263.02 252.94 260.02 251.63 C 260.15 251.09 260.41 250.02 260.54 249.49 Z" />
</g>
<g id="#585556f9">
<path fill="#585556" opacity="0.98" d=" M 251.94 250.40 C 251.80 251.06 251.66 251.72 251.52 252.38 C 251.14 254.19 250.77 255.99 250.42 257.81 C 247.57 257.27 244.70 256.85 241.88 256.17 C 241.29 255.85 240.10 255.20 239.51 254.88 C 240.07 254.15 240.63 253.42 241.20 252.70 C 243.28 253.57 245.36 254.57 247.62 254.89 C 249.28 253.63 250.63 252.01 251.94 250.40 Z" />
</g>
<g id="#949299ff">
<path fill="#949299" opacity="1.00" d=" M 293.93 253.84 C 294.61 253.89 295.97 254.00 296.66 254.05 C 296.83 254.68 297.19 255.93 297.36 256.56 C 296.82 256.72 295.73 257.05 295.19 257.22 C 294.76 256.09 294.34 254.96 293.93 253.84 Z" />
</g>
<g id="#1e1c1d91">
<path fill="#1e1c1d" opacity="0.57" d=" M 241.88 256.17 C 244.70 256.85 247.57 257.27 250.42 257.81 C 247.50 259.45 244.41 257.71 241.88 256.17 Z" />
</g>
<g id="#404146ff">
<path fill="#404146" opacity="1.00" d=" M 283.69 256.55 C 286.53 256.35 289.24 257.43 291.94 258.16 C 294.35 258.84 296.82 259.34 299.30 259.75 C 299.55 260.60 299.80 261.45 300.06 262.30 C 297.21 262.98 294.30 263.36 291.38 263.55 C 291.37 264.95 291.37 266.35 291.31 267.76 C 290.70 268.82 290.09 269.88 289.49 270.95 C 288.99 269.66 288.49 268.37 288.02 267.08 C 288.48 266.99 289.40 266.81 289.85 266.72 L 290.23 265.92 L 289.87 265.17 L 289.01 265.00 C 288.67 265.33 288.00 265.98 287.66 266.30 C 287.07 265.07 286.65 263.78 286.11 262.54 L 285.98 262.10 L 285.51 262.03 C 284.41 261.86 283.33 261.63 282.27 261.34 L 281.22 261.02 C 281.86 259.44 282.59 257.87 283.69 256.55 Z" />
</g>
<g id="#5c5d64ff">
<path fill="#5c5d64" opacity="1.00" d=" M 295.19 257.22 C 295.73 257.05 296.82 256.72 297.36 256.56 C 300.78 258.82 303.62 261.96 307.48 263.53 C 309.54 264.69 312.64 265.22 313.17 267.94 C 313.72 269.85 312.34 271.55 311.45 273.10 C 311.17 271.84 310.89 270.58 310.63 269.32 C 307.37 267.84 304.02 266.51 300.50 265.84 C 301.33 265.17 302.14 264.48 302.96 263.79 C 301.99 263.29 301.02 262.79 300.06 262.30 C 299.80 261.45 299.55 260.60 299.30 259.75 C 296.82 259.34 294.35 258.84 291.94 258.16 C 293.02 257.85 294.10 257.53 295.19 257.22 Z" />
</g>
<g id="#8489a5fe">
<path fill="#8489a5" opacity="1.00" d=" M 270.53 261.60 C 272.40 261.07 274.27 260.51 276.14 259.95 C 277.01 260.69 277.88 261.44 278.76 262.20 C 278.01 263.27 277.27 264.35 276.52 265.42 C 274.26 264.60 272.08 263.49 270.53 261.60 Z" />
</g>
<g id="#65646cff">
<path fill="#65646c" opacity="1.00" d=" M 317.26 261.75 C 321.10 260.65 324.79 262.25 328.19 263.89 C 326.29 265.00 324.40 266.11 322.51 267.24 C 325.77 269.33 329.22 271.10 332.80 272.57 C 334.43 273.33 336.02 274.17 337.64 274.96 C 335.10 275.25 332.50 275.11 330.12 274.12 C 327.07 272.84 324.08 271.43 321.16 269.88 C 320.11 269.31 319.08 268.71 318.06 268.11 C 318.48 267.82 319.32 267.24 319.74 266.96 C 320.34 266.54 320.95 266.12 321.56 265.71 C 320.10 264.41 318.66 263.10 317.26 261.75 Z" />
</g>
<g id="#8b898dd9">
<path fill="#8b898d" opacity="0.85" d=" M 280.60 265.95 C 280.76 264.30 280.93 262.65 281.22 261.02 L 282.27 261.34 C 283.68 263.25 281.95 264.74 280.60 265.95 Z" />
</g>
<g id="#28282bbf">
<path fill="#28282b" opacity="0.75" d=" M 285.51 262.03 L 285.98 262.10 L 286.11 262.54 L 285.60 262.54 L 285.51 262.03 Z" />
</g>
<g id="#7a7a83ff">
<path fill="#7a7a83" opacity="1.00" d=" M 300.06 262.30 C 301.02 262.79 301.99 263.29 302.96 263.79 C 302.14 264.48 301.33 265.17 300.50 265.84 C 300.25 266.02 299.76 266.38 299.51 266.56 C 298.64 266.06 297.77 265.57 296.90 265.10 C 295.19 265.71 293.53 266.45 291.93 267.29 L 291.31 267.76 C 291.37 266.35 291.37 264.95 291.38 263.55 C 294.30 263.36 297.21 262.98 300.06 262.30 Z" />
</g>
<g id="#5e5f68ff">
<path fill="#5e5f68" opacity="1.00" d=" M 328.19 263.89 C 334.22 266.77 340.84 268.35 346.49 272.01 C 342.08 273.53 337.33 273.56 332.80 272.57 C 329.22 271.10 325.77 269.33 322.51 267.24 C 324.40 266.11 326.29 265.00 328.19 263.89 Z" />
</g>
<g id="#a6a2a6f7">
<path fill="#a6a2a6" opacity="0.97" d=" M 287.66 266.30 C 288.00 265.98 288.67 265.33 289.01 265.00 L 289.87 265.17 L 290.23 265.92 L 289.85 266.72 C 289.40 266.81 288.48 266.99 288.02 267.08 L 287.66 266.30 Z" />
</g>
<g id="#bcbecdff">
<path fill="#bcbecd" opacity="1.00" d=" M 291.93 267.29 C 293.53 266.45 295.19 265.71 296.90 265.10 C 296.51 266.98 296.13 268.85 295.74 270.73 C 294.75 270.44 293.76 270.15 292.77 269.87 C 292.56 269.22 292.14 267.94 291.93 267.29 Z" />
</g>
<g id="#888791ff">
<path fill="#888791" opacity="1.00" d=" M 296.90 265.10 C 297.77 265.57 298.64 266.06 299.51 266.56 C 299.98 267.99 300.47 269.43 300.96 270.86 C 299.90 271.56 298.84 272.27 297.76 272.95 C 294.91 273.67 292.17 271.70 289.49 270.95 C 290.09 269.88 290.70 268.82 291.31 267.76 L 291.93 267.29 C 292.14 267.94 292.56 269.22 292.77 269.87 C 293.76 270.15 294.75 270.44 295.74 270.73 C 296.13 268.85 296.51 266.98 296.90 265.10 Z" />
</g>
<g id="#3e3e44fd">
<path fill="#3e3e44" opacity="1.00" d=" M 300.50 265.84 C 304.02 266.51 307.37 267.84 310.63 269.32 C 310.89 270.58 311.17 271.84 311.45 273.10 C 310.69 274.16 309.90 275.19 309.12 276.22 C 309.32 277.25 309.51 278.29 309.71 279.34 C 307.58 278.02 306.47 275.92 307.10 273.40 L 307.63 274.12 L 308.44 274.23 L 308.82 273.59 C 308.51 273.35 307.90 272.86 307.59 272.62 C 306.59 272.07 305.62 271.48 304.69 270.86 C 302.37 271.54 300.07 272.28 297.76 272.95 C 298.84 272.27 299.90 271.56 300.96 270.86 C 300.47 269.43 299.98 267.99 299.51 266.56 C 299.76 266.38 300.25 266.02 300.50 265.84 Z" />
</g>
<g id="#44454cff">
<path fill="#44454c" opacity="1.00" d=" M 317.88 272.25 C 318.98 271.47 320.07 270.68 321.16 269.88 C 324.08 271.43 327.07 272.84 330.12 274.12 C 330.61 275.29 331.09 276.46 331.58 277.64 C 330.52 278.86 329.45 280.08 328.47 281.37 C 327.65 280.06 326.74 279.96 325.74 281.07 C 325.07 280.13 324.41 279.18 323.76 278.24 C 322.46 278.45 321.16 278.67 319.87 278.89 C 319.83 278.41 319.77 277.45 319.73 276.97 C 319.13 275.39 318.50 273.82 317.88 272.25 Z" />
</g>
<g id="#f7f7fdff">
<path fill="#f7f7fd" opacity="1.00" d=" M 309.77 276.47 C 311.70 274.81 313.69 273.05 316.30 272.67 C 315.60 274.68 314.99 276.74 314.38 278.79 C 312.85 277.99 311.33 277.19 309.77 276.47 Z" />
</g>
<g id="#6c6c72ff">
<path fill="#6c6c72" opacity="1.00" d=" M 345.47 274.93 C 346.29 274.02 346.81 272.73 347.98 272.20 C 351.84 273.12 355.35 275.07 358.90 276.81 C 354.36 276.92 349.56 277.34 345.47 274.93 Z" />
</g>
<g id="#838387fd">
<path fill="#838387" opacity="1.00" d=" M 307.59 272.62 C 307.90 272.86 308.51 273.35 308.82 273.59 L 308.44 274.23 L 307.63 274.12 L 307.10 273.40 L 307.59 272.62 Z" />
</g>
<g id="#8b8c96ff">
<path fill="#8b8c96" opacity="1.00" d=" M 316.30 272.67 C 316.69 272.56 317.48 272.36 317.88 272.25 C 318.50 273.82 319.13 275.39 319.73 276.97 C 319.33 277.02 318.53 277.11 318.12 277.15 L 317.91 277.96 C 318.19 278.30 318.75 278.98 319.03 279.32 C 318.92 279.71 318.69 280.48 318.58 280.87 C 315.54 281.02 312.61 280.11 309.71 279.34 C 309.51 278.29 309.32 277.25 309.12 276.22 L 309.77 276.47 C 311.33 277.19 312.85 277.99 314.38 278.79 C 314.99 276.74 315.60 274.68 316.30 272.67 Z" />
</g>
<g id="#53545cff">
<path fill="#53545c" opacity="1.00" d=" M 330.12 274.12 C 332.50 275.11 335.10 275.25 337.64 274.96 C 338.86 275.48 340.11 275.96 341.36 276.45 C 340.64 278.53 339.90 280.61 339.15 282.68 C 342.43 283.75 345.79 284.57 349.20 285.12 C 346.78 283.20 344.25 281.44 341.66 279.78 C 342.46 278.65 343.25 277.53 344.06 276.42 C 347.81 278.61 352.00 280.64 354.46 284.39 C 354.34 285.94 353.90 287.44 353.55 288.95 C 348.87 286.99 344.01 285.46 339.01 284.60 C 338.03 282.99 337.06 281.37 335.98 279.83 C 334.54 279.04 333.05 278.35 331.58 277.64 C 331.09 276.46 330.61 275.29 330.12 274.12 Z" />
</g>
<g id="#e8e4e9f8">
<path fill="#e8e4e9" opacity="0.97" d=" M 318.12 277.15 C 318.53 277.11 319.33 277.02 319.73 276.97 C 319.77 277.45 319.83 278.41 319.87 278.89 L 319.03 279.32 C 318.75 278.98 318.19 278.30 317.91 277.96 L 318.12 277.15 Z" />
</g>
<g id="#6e6d74fb">
<path fill="#6e6d74" opacity="1.00" d=" M 357.45 279.38 C 358.86 278.73 360.27 278.10 361.69 277.47 C 361.56 278.03 361.30 279.17 361.17 279.73 C 360.42 280.61 359.65 281.48 358.88 282.34 C 358.52 281.60 357.80 280.12 357.45 279.38 Z" />
</g>
<g id="#787983ff">
<path fill="#787983" opacity="1.00" d=" M 328.47 281.37 C 329.45 280.08 330.52 278.86 331.58 277.64 C 333.05 278.35 334.54 279.04 335.98 279.83 L 335.36 280.26 C 334.14 280.93 332.91 281.55 331.66 282.13 C 330.31 282.73 328.94 283.26 327.57 283.81 C 327.70 283.39 327.97 282.54 328.10 282.11 L 328.47 281.37 Z" />
</g>
<g id="#8f8e93fc">
<path fill="#8f8e93" opacity="1.00" d=" M 325.74 281.07 C 326.74 279.96 327.65 280.06 328.47 281.37 L 328.10 282.11 L 327.07 282.35 L 326.08 281.90 L 325.74 281.07 Z" />
</g>
<g id="#cdcdd7ff">
<path fill="#cdcdd7" opacity="1.00" d=" M 331.66 282.13 C 332.91 281.55 334.14 280.93 335.36 280.26 C 334.82 281.97 334.36 283.70 333.89 285.43 C 333.14 284.33 332.40 283.23 331.66 282.13 Z" />
</g>
<g id="#8b8c9afa">
<path fill="#8b8c9a" opacity="0.98" d=" M 335.36 280.26 L 335.98 279.83 C 337.06 281.37 338.03 282.99 339.01 284.60 C 337.25 285.60 335.50 286.60 333.74 287.58 C 333.46 287.74 332.91 288.04 332.63 288.20 C 330.28 287.18 328.04 285.94 325.96 284.47 C 326.36 284.31 327.17 283.98 327.57 283.81 C 328.94 283.26 330.31 282.73 331.66 282.13 C 332.40 283.23 333.14 284.33 333.89 285.43 C 334.36 283.70 334.82 281.97 335.36 280.26 Z" />
</g>
<g id="#abaaaff9">
<path fill="#abaaaf" opacity="0.98" d=" M 333.74 287.58 C 335.50 286.60 337.25 285.60 339.01 284.60 C 339.05 285.05 339.14 285.95 339.19 286.39 C 338.09 287.07 336.90 287.42 335.61 287.42 C 335.14 287.46 334.20 287.54 333.74 287.58 Z" />
</g>
<g id="#39383b8d">
<path fill="#39383b" opacity="0.55" d=" M 332.63 288.20 C 332.91 288.04 333.46 287.74 333.74 287.58 C 334.20 287.54 335.14 287.46 335.61 287.42 C 335.95 287.56 336.65 287.85 337.00 288.00 C 337.16 289.81 333.09 289.53 332.63 288.20 Z" />
</g>
</svg>
