<?xml version="1.0" encoding="UTF-8" ?>
<!DOCTYPE svg PUBLIC "-//W3C//DTD SVG 1.1//EN" "http://www.w3.org/Graphics/SVG/1.1/DTD/svg11.dtd">
<svg width="384pt" height="384pt" viewBox="0 0 384 384" version="1.1" xmlns="http://www.w3.org/2000/svg">
<g id="#09090977">
<path fill="#090909" opacity="0.47" d=" M 211.60 142.17 C 214.61 142.45 217.55 143.27 220.22 144.72 C 216.85 144.43 213.49 144.07 210.12 143.74 C 210.49 143.35 211.23 142.56 211.60 142.17 Z" />
</g>
<g id="#2f3031f7">
<path fill="#2f3031" opacity="0.97" d=" M 210.12 143.74 C 213.49 144.07 216.85 144.43 220.22 144.72 C 221.05 146.25 221.89 147.78 222.70 149.32 C 222.16 149.00 221.07 148.34 220.52 148.02 C 219.00 147.18 217.49 146.24 215.80 145.80 C 213.83 145.58 211.87 146.05 209.93 146.30 C 208.64 146.49 207.35 146.68 206.06 146.86 C 207.41 145.81 208.76 144.77 210.12 143.74 Z" />
</g>
<g id="#454345ff">
<path fill="#454345" opacity="1.00" d=" M 209.93 146.30 C 211.87 146.05 213.83 145.58 215.80 145.80 C 217.49 146.24 219.00 147.18 220.52 148.02 C 217.98 149.29 215.45 150.57 212.93 151.86 C 212.67 151.36 212.14 150.36 211.88 149.85 C 211.24 148.66 210.58 147.48 209.93 146.30 Z" />
</g>
<g id="#457d8cfd">
<path fill="#457d8c" opacity="1.00" d=" M 205.08 147.00 L 206.06 146.86 C 207.35 146.68 208.64 146.49 209.93 146.30 C 210.58 147.48 211.24 148.66 211.88 149.85 C 209.38 149.42 206.86 149.06 204.33 148.98 C 204.51 148.48 204.89 147.49 205.08 147.00 Z" />
</g>
<g id="#232324ff">
<path fill="#232324" opacity="1.00" d=" M 204.33 148.98 C 206.86 149.06 209.38 149.42 211.88 149.85 C 212.14 150.36 212.67 151.36 212.93 151.86 C 213.09 152.15 213.41 152.73 213.58 153.02 C 217.66 151.85 221.86 150.96 226.13 151.56 C 226.79 154.13 227.49 156.69 228.18 159.26 C 227.84 159.35 227.15 159.54 226.81 159.64 C 223.36 160.23 220.40 162.27 218.84 165.44 C 217.09 164.04 215.21 162.80 213.45 161.41 C 212.57 160.58 211.76 159.69 210.95 158.80 C 209.79 157.14 209.08 154.86 207.04 154.06 C 204.48 153.07 201.70 152.88 199.01 152.50 C 200.76 151.30 202.45 150.00 204.33 148.98 Z" />
</g>
<g id="#4b8999f8">
<path fill="#4b8999" opacity="0.97" d=" M 212.93 151.86 C 215.45 150.57 217.98 149.29 220.52 148.02 C 221.07 148.34 222.16 149.00 222.70 149.32 C 223.87 150.03 224.99 150.81 226.13 151.56 C 221.86 150.96 217.66 151.85 213.58 153.02 C 213.41 152.73 213.09 152.15 212.93 151.86 Z" />
</g>
<g id="#2d5c69ff">
<path fill="#2d5c69" opacity="1.00" d=" M 196.67 154.24 C 197.25 153.80 198.42 152.94 199.01 152.50 C 201.70 152.88 204.48 153.07 207.04 154.06 C 209.08 154.86 209.79 157.14 210.95 158.80 C 206.95 155.50 201.79 154.13 196.67 154.24 Z" />
</g>
<g id="#151616ff">
<path fill="#151616" opacity="1.00" d=" M 189.17 158.19 C 191.83 157.19 193.87 154.85 196.67 154.24 C 201.79 154.13 206.95 155.50 210.95 158.80 C 211.76 159.69 212.57 160.58 213.45 161.41 C 212.59 162.78 211.73 164.16 210.89 165.54 C 213.55 166.70 216.41 167.55 219.36 167.22 C 222.15 165.01 224.43 162.26 226.81 159.64 C 227.15 159.54 227.84 159.35 228.18 159.26 C 229.43 159.44 230.66 159.75 231.90 160.03 C 231.79 160.37 231.56 161.05 231.45 161.39 C 230.53 163.96 229.90 166.63 229.73 169.36 C 229.60 174.20 227.14 178.48 225.96 183.08 C 225.94 181.15 225.91 179.23 225.88 177.31 C 225.25 177.20 223.99 176.98 223.36 176.87 C 220.94 176.52 218.47 176.04 216.02 176.43 C 213.85 177.01 212.27 178.77 210.54 180.11 C 208.29 179.66 206.05 179.21 203.79 178.84 L 203.01 178.75 C 203.99 177.28 204.98 175.82 205.98 174.36 C 207.42 174.42 208.86 174.42 210.30 174.42 C 210.95 173.48 211.60 172.54 212.26 171.61 C 210.24 171.79 208.22 171.99 206.20 172.06 C 206.55 168.67 207.58 165.07 206.35 161.76 C 204.50 159.77 201.63 159.04 199.00 159.13 C 195.61 159.42 192.74 161.46 189.87 163.12 C 188.49 162.84 187.10 162.62 185.71 162.40 C 186.88 163.28 188.06 164.14 189.27 164.98 C 189.30 167.73 189.60 170.66 188.31 173.21 C 187.38 175.04 185.91 177.12 183.65 177.24 C 181.64 177.22 179.73 176.51 177.82 175.99 C 177.79 174.84 177.77 173.70 177.74 172.56 C 176.56 173.21 175.38 173.86 174.20 174.51 C 169.80 172.49 165.24 170.61 160.36 170.16 C 159.70 170.11 158.38 170.02 157.73 169.98 C 161.37 169.39 165.08 169.60 168.72 169.03 C 171.81 166.75 173.86 163.21 177.37 161.47 C 181.09 159.68 185.33 159.60 189.17 158.19 Z" />
</g>
<g id="#303030ff">
<path fill="#303030" opacity="1.00" d=" M 189.87 163.12 C 192.74 161.46 195.61 159.42 199.00 159.13 C 201.63 159.04 204.50 159.77 206.35 161.76 C 207.58 165.07 206.55 168.67 206.20 172.06 C 205.15 171.76 204.11 171.42 203.09 171.05 C 202.70 169.10 202.42 167.10 201.64 165.26 C 199.45 163.44 196.35 164.82 193.81 164.94 C 192.54 164.26 191.22 163.65 189.87 163.12 Z" />
</g>
<g id="#414548ff">
<path fill="#414548" opacity="1.00" d=" M 218.84 165.44 C 220.40 162.27 223.36 160.23 226.81 159.64 C 224.43 162.26 222.15 165.01 219.36 167.22 C 219.23 166.77 218.97 165.89 218.84 165.44 Z" />
</g>
<g id="#5292a4ff">
<path fill="#5292a4" opacity="1.00" d=" M 185.71 162.40 C 187.10 162.62 188.49 162.84 189.87 163.12 C 191.22 163.65 192.54 164.26 193.81 164.94 C 196.79 167.15 199.69 169.52 203.09 171.05 C 204.11 171.42 205.15 171.76 206.20 172.06 C 208.22 171.99 210.24 171.79 212.26 171.61 C 211.60 172.54 210.95 173.48 210.30 174.42 C 208.86 174.42 207.42 174.42 205.98 174.36 C 205.44 174.17 204.36 173.79 203.82 173.60 C 199.80 171.85 196.14 169.42 192.44 167.09 C 191.37 166.40 190.31 165.70 189.27 164.98 C 188.06 164.14 186.88 163.28 185.71 162.40 Z" />
</g>
<g id="#2c2c2cfd">
<path fill="#2c2c2c" opacity="1.00" d=" M 229.73 169.36 C 229.90 166.63 230.53 163.96 231.45 161.39 C 232.54 162.12 234.94 163.12 234.01 164.83 C 233.44 167.00 231.53 168.27 229.73 169.36 Z" />
</g>
<g id="#5a585aff">
<path fill="#5a585a" opacity="1.00" d=" M 193.81 164.94 C 196.35 164.82 199.45 163.44 201.64 165.26 C 202.42 167.10 202.70 169.10 203.09 171.05 C 199.69 169.52 196.79 167.15 193.81 164.94 Z" />
</g>
<g id="#413f44ff">
<path fill="#413f44" opacity="1.00" d=" M 189.27 164.98 C 190.31 165.70 191.37 166.40 192.44 167.09 C 192.14 170.91 191.12 174.67 191.17 178.52 C 192.68 179.86 194.52 180.72 196.34 181.57 C 196.94 181.85 198.15 182.39 198.76 182.66 C 200.90 185.29 203.14 187.83 205.40 190.37 C 203.23 190.98 201.04 191.55 198.84 192.05 C 198.02 190.19 197.18 188.34 196.31 186.50 C 195.35 190.72 197.20 194.75 197.62 198.89 C 196.97 201.09 195.29 202.82 194.63 205.02 C 196.22 210.21 201.25 212.99 205.72 215.41 C 208.38 216.49 208.58 219.60 209.27 221.99 C 206.89 223.05 204.43 223.92 201.88 224.45 C 201.33 224.16 200.24 223.59 199.69 223.30 C 198.80 222.84 197.92 222.39 197.04 221.93 C 197.17 221.43 197.44 220.41 197.57 219.90 C 196.17 220.11 194.78 220.32 193.38 220.52 C 190.99 219.89 188.67 218.87 186.19 218.72 C 184.86 219.27 183.71 220.13 182.53 220.92 C 181.67 220.77 180.82 220.60 179.97 220.43 C 181.30 218.61 182.62 216.77 183.93 214.94 C 179.55 213.74 175.18 212.48 170.95 210.84 C 166.72 209.01 162.82 206.49 159.01 203.93 C 157.04 202.45 154.78 200.98 153.83 198.61 C 153.70 198.23 153.44 197.48 153.30 197.10 C 156.18 197.50 159.05 198.10 161.69 199.35 C 165.34 201.00 169.07 202.69 173.10 203.11 C 174.32 203.19 175.54 203.24 176.77 203.26 C 179.49 203.26 182.21 203.11 184.93 202.96 C 185.00 202.17 185.14 200.60 185.21 199.82 C 184.42 198.68 183.63 197.54 182.85 196.41 C 183.82 194.38 184.78 192.33 185.74 190.29 C 183.85 189.04 181.97 187.77 180.08 186.51 C 179.81 186.34 179.28 185.99 179.01 185.81 C 175.69 183.31 171.83 181.74 167.96 180.32 L 167.21 180.00 C 163.88 178.60 160.39 177.61 156.86 176.85 C 156.69 176.06 156.33 174.48 156.16 173.69 C 157.57 172.53 158.97 171.34 160.36 170.16 C 165.24 170.61 169.80 172.49 174.20 174.51 C 175.38 173.86 176.56 173.21 177.74 172.56 C 177.77 173.70 177.79 174.84 177.82 175.99 C 179.73 176.51 181.64 177.22 183.65 177.24 C 185.91 177.12 187.38 175.04 188.31 173.21 C 189.60 170.66 189.30 167.73 189.27 164.98 Z" />
</g>
<g id="#0c0b0c56">
<path fill="#0c0b0c" opacity="0.34" d=" M 145.02 167.29 C 147.32 167.17 149.64 167.12 151.91 167.53 C 150.80 167.78 149.70 168.05 148.60 168.33 C 148.10 170.33 147.59 172.32 147.07 174.32 C 145.42 172.31 144.42 169.91 145.02 167.29 Z" />
</g>
<g id="#585658ff">
<path fill="#585658" opacity="1.00" d=" M 192.44 167.09 C 196.14 169.42 199.80 171.85 203.82 173.60 C 200.85 174.84 197.93 176.63 197.06 179.95 C 196.88 180.35 196.52 181.17 196.34 181.57 C 194.52 180.72 192.68 179.86 191.17 178.52 C 191.12 174.67 192.14 170.91 192.44 167.09 Z" />
</g>
<g id="#1e1e1efd">
<path fill="#1e1e1e" opacity="1.00" d=" M 148.60 168.33 C 149.70 168.05 150.80 167.78 151.91 167.53 C 152.14 167.94 152.60 168.74 152.83 169.14 C 151.31 169.44 149.80 169.79 148.31 170.18 C 149.97 172.34 151.82 174.35 153.86 176.16 C 147.37 178.64 140.64 180.37 133.92 182.11 C 133.93 181.34 133.93 179.81 133.94 179.04 C 128.61 179.85 123.30 180.74 117.99 181.68 C 117.57 181.78 116.72 181.97 116.29 182.07 C 115.84 181.71 114.95 180.98 114.50 180.62 C 114.45 180.14 114.35 179.19 114.30 178.71 C 120.22 177.93 126.22 179.66 132.09 178.31 C 137.14 177.23 142.17 175.98 147.07 174.32 C 147.59 172.32 148.10 170.33 148.60 168.33 Z" />
</g>
<g id="#3b3a3aff">
<path fill="#3b3a3a" opacity="1.00" d=" M 148.31 170.18 C 149.80 169.79 151.31 169.44 152.83 169.14 C 154.24 169.41 155.60 169.85 156.98 170.26 C 155.80 170.76 154.64 171.30 153.48 171.83 C 153.89 172.86 154.29 173.90 154.67 174.94 C 155.21 178.97 155.94 182.97 156.93 186.92 C 149.91 184.33 141.77 183.94 134.75 186.71 L 134.05 186.98 C 134.02 186.54 133.96 185.66 133.93 185.22 C 133.93 184.44 133.92 182.89 133.92 182.11 C 140.64 180.37 147.37 178.64 153.86 176.16 C 151.82 174.35 149.97 172.34 148.31 170.18 Z" />
</g>
<g id="#3babb4f9">
<path fill="#3babb4" opacity="0.98" d=" M 156.98 170.26 L 157.73 169.98 C 158.38 170.02 159.70 170.11 160.36 170.16 C 158.97 171.34 157.57 172.53 156.16 173.69 C 155.79 174.00 155.04 174.63 154.67 174.94 C 154.29 173.90 153.89 172.86 153.48 171.83 C 154.64 171.30 155.80 170.76 156.98 170.26 Z" />
</g>
<g id="#5da2b3ff">
<path fill="#5da2b3" opacity="1.00" d=" M 154.67 174.94 C 155.04 174.63 155.79 174.00 156.16 173.69 C 156.33 174.48 156.69 176.06 156.86 176.85 C 157.41 179.53 157.87 182.23 158.65 184.85 C 159.37 186.17 160.17 187.45 161.04 188.69 C 159.67 188.09 158.31 187.48 156.93 186.92 C 155.94 182.97 155.21 178.97 154.67 174.94 Z" />
</g>
<g id="#373a3bff">
<path fill="#373a3b" opacity="1.00" d=" M 197.06 179.95 C 197.93 176.63 200.85 174.84 203.82 173.60 C 204.36 173.79 205.44 174.17 205.98 174.36 C 204.98 175.82 203.99 177.28 203.01 178.75 C 200.99 178.96 199.01 179.40 197.06 179.95 Z" />
</g>
<g id="#245863ff">
<path fill="#245863" opacity="1.00" d=" M 210.54 180.11 C 212.27 178.77 213.85 177.01 216.02 176.43 C 218.47 176.04 220.94 176.52 223.36 176.87 C 221.19 178.23 219.05 179.64 216.89 181.01 L 216.25 181.39 C 214.35 180.95 212.44 180.51 210.54 180.11 Z" />
</g>
<g id="#7c7b7eff">
<path fill="#7c7b7e" opacity="1.00" d=" M 156.86 176.85 C 160.39 177.61 163.88 178.60 167.21 180.00 C 167.02 180.56 166.63 181.68 166.44 182.24 C 163.83 183.08 161.23 183.93 158.65 184.85 C 157.87 182.23 157.41 179.53 156.86 176.85 Z" />
</g>
<g id="#20535eff">
<path fill="#20535e" opacity="1.00" d=" M 223.36 176.87 C 223.99 176.98 225.25 177.20 225.88 177.31 C 225.91 179.23 225.94 181.15 225.96 183.08 C 225.95 183.65 225.95 184.79 225.95 185.36 C 225.18 185.31 223.63 185.22 222.85 185.18 C 221.10 184.54 219.35 183.89 217.61 183.24 C 217.43 182.68 217.07 181.57 216.89 181.01 C 219.05 179.64 221.19 178.23 223.36 176.87 Z" />
</g>
<g id="#376c78ff">
<path fill="#376c78" opacity="1.00" d=" M 197.06 179.95 C 199.01 179.40 200.99 178.96 203.01 178.75 L 203.79 178.84 C 202.11 180.11 200.43 181.38 198.76 182.66 C 198.15 182.39 196.94 181.85 196.34 181.57 C 196.52 181.17 196.88 180.35 197.06 179.95 Z" />
</g>
<g id="#4a4c4fff">
<path fill="#4a4c4f" opacity="1.00" d=" M 110.39 180.10 C 111.70 179.65 113.00 179.19 114.30 178.71 C 114.35 179.19 114.45 180.14 114.50 180.62 C 114.95 180.98 115.84 181.71 116.29 182.07 C 115.63 183.10 115.00 184.13 114.38 185.19 C 113.04 184.48 111.70 183.76 110.37 183.04 C 110.38 182.48 110.38 181.35 110.38 180.78 L 110.39 180.10 Z" />
</g>
<g id="#5d5d5fff">
<path fill="#5d5d5f" opacity="1.00" d=" M 117.99 181.68 C 123.30 180.74 128.61 179.85 133.94 179.04 C 133.93 179.81 133.93 181.34 133.92 182.11 C 133.92 182.89 133.93 184.44 133.93 185.22 C 133.59 184.23 133.23 183.25 132.86 182.28 C 130.70 182.21 128.51 181.97 126.37 182.36 C 123.81 182.88 122.98 185.67 121.78 187.62 C 125.84 188.77 130.22 189.08 134.05 186.98 L 134.75 186.71 C 135.17 187.93 135.60 189.15 136.03 190.37 C 133.92 190.46 131.81 190.59 129.70 190.58 C 126.44 190.01 123.14 189.63 119.85 189.28 C 119.28 186.73 118.69 184.19 117.99 181.68 Z" />
</g>
<g id="#525057ff">
<path fill="#525057" opacity="1.00" d=" M 203.79 178.84 C 206.05 179.21 208.29 179.66 210.54 180.11 C 212.44 180.51 214.35 180.95 216.25 181.39 C 214.33 182.41 212.15 182.01 210.11 181.72 C 210.00 182.42 209.91 183.13 209.84 183.84 C 208.46 184.19 207.08 184.54 205.70 184.90 C 208.12 185.65 210.54 186.38 212.91 187.27 C 212.54 190.45 212.74 194.01 210.87 196.77 C 207.67 199.32 203.65 200.98 201.57 204.73 C 204.95 207.88 208.52 210.84 212.29 213.50 C 212.24 215.17 212.09 216.83 211.82 218.47 C 211.58 219.06 211.09 220.24 210.85 220.83 C 210.45 221.12 209.66 221.70 209.27 221.99 C 208.58 219.60 208.38 216.49 205.72 215.41 C 201.25 212.99 196.22 210.21 194.63 205.02 C 195.29 202.82 196.97 201.09 197.62 198.89 C 197.20 194.75 195.35 190.72 196.31 186.50 C 197.18 188.34 198.02 190.19 198.84 192.05 C 201.04 191.55 203.23 190.98 205.40 190.37 C 203.14 187.83 200.90 185.29 198.76 182.66 C 200.43 181.38 202.11 180.11 203.79 178.84 Z" />
</g>
<g id="#5e5c5eff">
<path fill="#5e5c5e" opacity="1.00" d=" M 167.21 180.00 L 167.96 180.32 C 168.20 181.45 168.44 182.58 168.67 183.72 C 166.30 185.40 163.98 187.15 161.75 189.00 L 161.04 188.69 C 160.17 187.45 159.37 186.17 158.65 184.85 C 161.23 183.93 163.83 183.08 166.44 182.24 C 166.63 181.68 167.02 180.56 167.21 180.00 Z" />
</g>
<g id="#121313ff">
<path fill="#121313" opacity="1.00" d=" M 167.96 180.32 C 171.83 181.74 175.69 183.31 179.01 185.81 C 178.66 185.75 177.95 185.61 177.60 185.54 C 176.36 185.33 175.12 185.14 173.89 184.95 C 174.00 187.11 174.15 189.28 174.18 191.46 C 173.58 195.31 173.22 199.21 173.10 203.11 C 169.07 202.69 165.34 201.00 161.69 199.35 C 163.74 199.60 165.80 199.87 167.85 200.14 C 168.97 196.86 171.14 193.47 170.05 189.88 C 169.59 187.83 169.09 185.78 168.67 183.72 C 168.44 182.58 168.20 181.45 167.96 180.32 Z" />
</g>
<g id="#6fdaeffc">
<path fill="#6fdaef" opacity="1.00" d=" M 107.53 182.97 C 108.45 182.21 109.41 181.48 110.38 180.78 C 110.38 181.35 110.38 182.48 110.37 183.04 C 110.35 184.72 110.31 186.39 110.19 188.06 C 110.07 188.97 109.81 190.78 109.69 191.69 C 108.16 189.03 107.47 186.03 107.53 182.97 Z" />
</g>
<g id="#6b8691ff">
<path fill="#6b8691" opacity="1.00" d=" M 210.11 181.72 C 212.15 182.01 214.33 182.41 216.25 181.39 L 216.89 181.01 C 217.07 181.57 217.43 182.68 217.61 183.24 L 217.88 184.06 C 217.41 184.00 216.49 183.88 216.03 183.82 C 214.73 183.84 213.43 183.86 212.14 183.87 C 212.58 185.16 213.03 186.45 213.44 187.76 L 212.91 187.27 C 210.54 186.38 208.12 185.65 205.70 184.90 C 207.08 184.54 208.46 184.19 209.84 183.84 C 209.91 183.13 210.00 182.42 210.11 181.72 Z" />
</g>
<g id="#517b88ff">
<path fill="#517b88" opacity="1.00" d=" M 114.38 185.19 C 115.00 184.13 115.63 183.10 116.29 182.07 C 116.72 181.97 117.57 181.78 117.99 181.68 C 118.69 184.19 119.28 186.73 119.85 189.28 C 119.95 189.68 120.15 190.48 120.25 190.88 C 119.35 190.21 118.46 189.53 117.58 188.83 C 117.59 186.68 117.56 184.53 117.50 182.39 C 116.16 184.70 115.43 187.31 115.46 189.98 L 115.30 189.13 C 115.01 187.81 114.70 186.50 114.38 185.19 Z" />
</g>
<g id="#8a878aff">
<path fill="#8a878a" opacity="1.00" d=" M 121.78 187.62 C 122.98 185.67 123.81 182.88 126.37 182.36 C 128.51 181.97 130.70 182.21 132.86 182.28 C 133.23 183.25 133.59 184.23 133.93 185.22 C 133.96 185.66 134.02 186.54 134.05 186.98 C 130.22 189.08 125.84 188.77 121.78 187.62 Z" />
</g>
<g id="#356572c3">
<path fill="#356572" opacity="0.76" d=" M 110.36 192.33 C 106.15 191.19 107.01 186.26 107.53 182.97 C 107.47 186.03 108.16 189.03 109.69 191.69 C 109.81 190.78 110.07 188.97 110.19 188.06 L 111.10 188.25 C 110.86 189.61 110.61 190.97 110.36 192.33 Z" />
</g>
<g id="#767578ff">
<path fill="#767578" opacity="1.00" d=" M 110.19 188.06 C 110.31 186.39 110.35 184.72 110.37 183.04 C 111.70 183.76 113.04 184.48 114.38 185.19 C 114.70 186.50 115.01 187.81 115.30 189.13 C 113.90 188.83 112.50 188.54 111.10 188.25 L 110.19 188.06 Z" />
</g>
<g id="#435f68fa">
<path fill="#435f68" opacity="0.98" d=" M 115.46 189.98 C 115.43 187.31 116.16 184.70 117.50 182.39 C 117.56 184.53 117.59 186.68 117.58 188.83 C 117.58 190.17 117.59 191.51 117.59 192.85 C 117.13 192.68 116.20 192.34 115.73 192.16 C 115.66 191.62 115.53 190.53 115.46 189.98 Z" />
</g>
<g id="#57575fff">
<path fill="#57575f" opacity="1.00" d=" M 217.61 183.24 C 219.35 183.89 221.10 184.54 222.85 185.18 C 223.54 185.78 224.17 186.45 224.74 187.17 C 228.19 191.54 231.84 195.80 234.35 200.81 C 235.03 200.86 235.71 200.92 236.40 200.98 C 235.91 202.32 235.43 203.67 234.95 205.02 C 232.42 204.73 229.77 204.75 227.42 203.70 C 225.59 202.60 224.14 201.02 222.62 199.55 C 221.34 202.20 219.50 204.78 219.34 207.81 C 220.13 209.62 221.40 211.16 222.56 212.75 C 225.10 210.77 227.95 208.47 231.39 209.62 C 227.71 215.10 221.65 217.88 216.10 221.01 C 217.59 213.32 219.07 205.50 218.32 197.64 C 218.30 197.24 218.25 196.44 218.23 196.04 C 218.17 193.29 218.19 190.55 218.15 187.80 C 218.15 187.31 218.15 186.33 218.15 185.84 C 218.08 185.39 217.94 184.50 217.88 184.06 L 217.61 183.24 Z" />
</g>
<g id="#454344ff">
<path fill="#454344" opacity="1.00" d=" M 168.67 183.72 C 169.09 185.78 169.59 187.83 170.05 189.88 C 169.43 189.86 168.19 189.82 167.57 189.80 C 165.61 189.63 163.67 189.37 161.75 189.00 C 163.98 187.15 166.30 185.40 168.67 183.72 Z" />
</g>
<g id="#c0feffff">
<path fill="#c0feff" opacity="1.00" d=" M 212.14 183.87 C 213.43 183.86 214.73 183.84 216.03 183.82 C 215.81 185.45 216.51 186.12 218.15 185.84 C 218.15 186.33 218.15 187.31 218.15 187.80 C 217.12 187.51 216.09 187.23 215.06 186.95 C 214.95 189.71 214.85 192.48 214.78 195.24 C 214.42 192.73 214.17 190.19 213.44 187.76 C 213.03 186.45 212.58 185.16 212.14 183.87 Z" />
</g>
<g id="#7eb4c6ff">
<path fill="#7eb4c6" opacity="1.00" d=" M 216.03 183.82 C 216.49 183.88 217.41 184.00 217.88 184.06 C 217.94 184.50 218.08 185.39 218.15 185.84 C 216.51 186.12 215.81 185.45 216.03 183.82 Z" />
</g>
<g id="#1a1a1aff">
<path fill="#1a1a1a" opacity="1.00" d=" M 134.75 186.71 C 141.77 183.94 149.91 184.33 156.93 186.92 C 158.31 187.48 159.67 188.09 161.04 188.69 L 161.75 189.00 C 163.67 189.37 165.61 189.63 167.57 189.80 C 162.45 191.32 157.20 189.51 152.01 189.84 C 146.68 190.09 141.36 190.45 136.03 190.37 C 135.60 189.15 135.17 187.93 134.75 186.71 Z" />
</g>
<g id="#3d4f56ff">
<path fill="#3d4f56" opacity="1.00" d=" M 173.89 184.95 C 175.12 185.14 176.36 185.33 177.60 185.54 C 176.46 187.51 175.28 189.46 174.18 191.46 C 174.15 189.28 174.00 187.11 173.89 184.95 Z" />
</g>
<g id="#25474fff">
<path fill="#25474f" opacity="1.00" d=" M 177.60 185.54 C 177.95 185.61 178.66 185.75 179.01 185.81 C 179.28 185.99 179.81 186.34 180.08 186.51 C 179.48 190.22 178.94 194.24 175.85 196.80 C 176.04 197.01 176.42 197.45 176.61 197.66 C 176.67 199.53 176.72 201.39 176.77 203.26 C 175.54 203.24 174.32 203.19 173.10 203.11 C 173.22 199.21 173.58 195.31 174.18 191.46 C 175.28 189.46 176.46 187.51 177.60 185.54 Z" />
</g>
<g id="#285b66ff">
<path fill="#285b66" opacity="1.00" d=" M 180.08 186.51 C 181.97 187.77 183.85 189.04 185.74 190.29 C 184.78 192.33 183.82 194.38 182.85 196.41 C 183.63 197.54 184.42 198.68 185.21 199.82 C 182.34 199.12 179.47 198.41 176.61 197.66 C 176.42 197.45 176.04 197.01 175.85 196.80 C 178.94 194.24 179.48 190.22 180.08 186.51 Z" />
</g>
<g id="#6c6971ff">
<path fill="#6c6971" opacity="1.00" d=" M 212.91 187.27 L 213.44 187.76 C 214.17 190.19 214.42 192.73 214.78 195.24 C 215.93 195.50 217.08 195.76 218.23 196.04 C 218.25 196.44 218.30 197.24 218.32 197.64 L 217.43 197.64 C 216.27 197.60 215.12 197.55 213.96 197.49 C 213.69 198.51 213.42 199.54 213.20 200.58 C 212.75 202.56 212.38 204.57 212.23 206.60 C 212.20 208.90 212.32 211.20 212.29 213.50 C 208.52 210.84 204.95 207.88 201.57 204.73 C 203.65 200.98 207.67 199.32 210.87 196.77 C 212.74 194.01 212.54 190.45 212.91 187.27 Z" />
</g>
<g id="#ffffffff">
<path fill="#ffffff" opacity="1.00" d=" M 215.06 186.95 C 216.09 187.23 217.12 187.51 218.15 187.80 C 218.19 190.55 218.17 193.29 218.23 196.04 C 217.08 195.76 215.93 195.50 214.78 195.24 C 214.85 192.48 214.95 189.71 215.06 186.95 Z" />
</g>
<g id="#404046ff">
<path fill="#404046" opacity="1.00" d=" M 224.74 187.17 C 230.41 189.04 237.04 193.32 236.82 200.04 C 237.22 203.26 234.65 205.76 234.23 208.78 C 235.48 211.47 238.58 212.59 240.92 214.18 C 238.71 214.76 236.10 214.77 234.33 216.35 C 231.91 219.68 231.83 224.00 231.21 227.92 C 231.94 227.97 233.41 228.08 234.14 228.13 C 234.28 225.45 234.42 222.76 234.54 220.08 C 240.02 221.05 245.38 222.69 250.35 225.23 C 249.58 228.71 250.46 232.21 251.26 235.60 C 254.69 233.58 258.61 232.70 262.20 231.05 C 264.33 229.10 263.64 225.89 263.49 223.33 C 267.82 224.20 272.35 223.11 276.59 224.51 C 280.47 225.67 284.41 226.87 287.85 229.08 C 281.98 227.65 276.40 225.08 270.36 224.34 C 271.21 225.52 272.16 226.74 273.57 227.27 C 277.04 228.78 280.61 230.04 284.17 231.29 C 282.89 232.21 281.62 233.13 280.35 234.06 C 285.00 237.72 290.86 239.58 296.77 238.80 C 296.06 239.67 295.35 240.54 294.64 241.42 C 292.35 241.03 290.06 240.65 287.75 240.58 C 287.25 240.61 286.26 240.65 285.76 240.68 C 285.65 241.36 285.42 242.73 285.31 243.41 C 285.23 243.75 285.08 244.43 285.01 244.77 C 282.41 243.17 279.51 241.90 277.37 239.69 C 276.03 237.50 275.30 235.01 274.00 232.80 C 273.75 234.29 273.52 235.79 273.28 237.29 C 271.42 237.21 269.56 237.13 267.72 237.05 C 268.18 235.16 268.62 233.27 269.11 231.39 C 265.34 232.88 261.78 235.18 259.95 238.93 C 255.84 239.92 251.78 238.62 247.96 237.20 C 247.44 237.02 246.41 236.66 245.89 236.47 C 243.25 235.64 240.65 234.70 238.16 233.53 C 235.75 232.35 233.15 231.56 230.46 231.51 C 229.97 231.50 229.00 231.46 228.51 231.45 C 225.86 231.36 223.18 231.79 220.57 231.28 C 217.41 230.21 214.83 227.98 211.94 226.40 C 213.35 224.62 214.73 222.82 216.10 221.01 C 221.65 217.88 227.71 215.10 231.39 209.62 C 227.95 208.47 225.10 210.77 222.56 212.75 C 221.40 211.16 220.13 209.62 219.34 207.81 C 219.50 204.78 221.34 202.20 222.62 199.55 C 224.14 201.02 225.59 202.60 227.42 203.70 C 229.77 204.75 232.42 204.73 234.95 205.02 C 235.43 203.67 235.91 202.32 236.40 200.98 C 235.71 200.92 235.03 200.86 234.35 200.81 C 231.84 195.80 228.19 191.54 224.74 187.17 M 220.97 223.57 C 222.05 225.80 224.03 227.34 226.05 228.67 C 226.09 226.60 226.11 224.54 226.12 222.47 C 224.40 222.83 222.68 223.20 220.97 223.57 Z" />
</g>
<g id="#464749ff">
<path fill="#464749" opacity="1.00" d=" M 111.10 188.25 C 112.50 188.54 113.90 188.83 115.30 189.13 L 115.46 189.98 C 115.53 190.53 115.66 191.62 115.73 192.16 C 113.90 192.42 112.06 192.70 110.24 193.03 L 110.36 192.33 C 110.61 190.97 110.86 189.61 111.10 188.25 Z" />
</g>
<g id="#181a1ab4">
<path fill="#181a1a" opacity="0.71" d=" M 117.59 192.85 C 117.59 191.51 117.58 190.17 117.58 188.83 C 118.46 189.53 119.35 190.21 120.25 190.88 C 123.17 193.24 127.15 191.55 130.47 191.29 C 130.87 191.23 131.66 191.12 132.06 191.06 C 130.16 192.05 128.27 193.42 126.03 193.36 C 123.21 193.39 120.40 193.05 117.59 192.85 Z" />
</g>
<g id="#4b4b4dfe">
<path fill="#4b4b4d" opacity="1.00" d=" M 119.85 189.28 C 123.14 189.63 126.44 190.01 129.70 190.58 L 130.47 191.29 C 127.15 191.55 123.17 193.24 120.25 190.88 C 120.15 190.48 119.95 189.68 119.85 189.28 Z" />
</g>
<g id="#12141575">
<path fill="#121415" opacity="0.46" d=" M 145.46 192.39 C 147.37 191.96 149.21 192.90 150.99 193.46 C 149.01 193.92 147.06 194.48 145.11 195.05 C 147.00 196.33 148.98 197.48 151.03 198.50 C 151.39 198.69 152.13 199.07 152.49 199.25 C 149.42 198.69 145.69 199.04 143.38 196.54 C 142.87 194.79 143.90 193.16 145.46 192.39 Z" />
</g>
<g id="#3a383ef2">
<path fill="#3a383e" opacity="0.95" d=" M 145.11 195.05 C 147.06 194.48 149.01 193.92 150.99 193.46 C 151.76 194.78 151.42 196.25 151.16 197.66 L 151.03 198.50 C 148.98 197.48 147.00 196.33 145.11 195.05 Z" />
</g>
<g id="#2bd1d3ed">
<path fill="#2bd1d3" opacity="0.93" d=" M 151.16 197.66 C 151.53 197.43 152.26 196.97 152.62 196.74 L 153.30 197.10 C 153.44 197.48 153.70 198.23 153.83 198.61 C 153.50 198.77 152.83 199.09 152.49 199.25 C 152.13 199.07 151.39 198.69 151.03 198.50 L 151.16 197.66 Z" />
</g>
<g id="#8bb6c0ff">
<path fill="#8bb6c0" opacity="1.00" d=" M 213.96 197.49 C 215.12 197.55 216.27 197.60 217.43 197.64 C 215.97 199.06 214.62 200.60 213.30 202.14 C 213.27 201.75 213.23 200.97 213.20 200.58 C 213.42 199.54 213.69 198.51 213.96 197.49 Z" />
</g>
<g id="#316a75ff">
<path fill="#316a75" opacity="1.00" d=" M 176.61 197.66 C 179.47 198.41 182.34 199.12 185.21 199.82 C 185.14 200.60 185.00 202.17 184.93 202.96 C 182.21 203.11 179.49 203.26 176.77 203.26 C 176.72 201.39 176.67 199.53 176.61 197.66 Z" />
</g>
<g id="#f9ffffff">
<path fill="#f9ffff" opacity="1.00" d=" M 213.30 202.14 C 214.62 200.60 215.97 199.06 217.43 197.64 L 218.32 197.64 C 217.95 200.76 217.67 203.89 217.36 207.02 C 216.15 206.72 214.94 206.41 213.73 206.11 C 213.58 204.79 213.44 203.46 213.30 202.14 Z" />
</g>
<g id="#77a2acfe">
<path fill="#77a2ac" opacity="1.00" d=" M 218.32 197.64 C 219.07 205.50 217.59 213.32 216.10 221.01 C 214.73 222.82 213.35 224.62 211.94 226.40 C 210.35 226.02 207.73 223.59 207.17 226.31 C 206.85 229.56 207.26 232.85 206.78 236.10 C 206.19 233.40 205.63 230.70 204.92 228.03 C 204.74 227.53 204.37 226.52 204.19 226.01 C 203.61 225.62 202.46 224.84 201.88 224.45 C 204.43 223.92 206.89 223.05 209.27 221.99 C 209.66 221.70 210.45 221.12 210.85 220.83 C 210.55 222.32 210.30 223.94 211.15 225.31 C 213.38 224.12 214.36 221.75 215.30 219.55 C 214.43 219.28 212.69 218.74 211.82 218.47 C 212.09 216.83 212.24 215.17 212.29 213.50 C 212.32 211.20 212.20 208.90 212.23 206.60 C 212.64 206.98 213.46 207.72 213.87 208.10 C 213.86 208.57 213.84 209.52 213.83 209.99 C 213.66 212.36 213.37 214.71 213.11 217.07 C 213.78 216.94 215.13 216.67 215.80 216.53 C 216.24 214.31 216.67 212.10 217.01 209.87 C 217.10 209.16 217.27 207.73 217.36 207.02 C 217.67 203.89 217.95 200.76 218.32 197.64 Z" />
</g>
<g id="#bbb9beff">
<path fill="#bbb9be" opacity="1.00" d=" M 212.23 206.60 C 212.38 204.57 212.75 202.56 213.20 200.58 C 213.23 200.97 213.27 201.75 213.30 202.14 C 213.44 203.46 213.58 204.79 213.73 206.11 C 213.77 206.61 213.84 207.60 213.87 208.10 C 213.46 207.72 212.64 206.98 212.23 206.60 Z" />
</g>
<g id="#bfffffff">
<path fill="#bfffff" opacity="1.00" d=" M 213.73 206.11 C 214.94 206.41 216.15 206.72 217.36 207.02 C 217.27 207.73 217.10 209.16 217.01 209.87 C 216.21 209.90 214.62 209.96 213.83 209.99 C 213.84 209.52 213.86 208.57 213.87 208.10 C 213.84 207.60 213.77 206.61 213.73 206.11 Z" />
</g>
<g id="#f5ffffff">
<path fill="#f5ffff" opacity="1.00" d=" M 213.83 209.99 C 214.62 209.96 216.21 209.90 217.01 209.87 C 216.67 212.10 216.24 214.31 215.80 216.53 C 215.13 216.67 213.78 216.94 213.11 217.07 C 213.37 214.71 213.66 212.36 213.83 209.99 Z" />
</g>
<g id="#191919ff">
<path fill="#191919" opacity="1.00" d=" M 170.95 210.84 C 175.18 212.48 179.55 213.74 183.93 214.94 C 182.62 216.77 181.30 218.61 179.97 220.43 C 178.19 220.06 176.42 219.69 174.64 219.36 C 173.28 216.58 171.88 213.80 170.95 210.84 Z" />
</g>
<g id="#616161ff">
<path fill="#616161" opacity="1.00" d=" M 240.92 214.18 C 244.27 216.49 247.96 218.25 251.68 219.90 C 251.22 221.67 250.73 223.43 250.35 225.23 C 245.38 222.69 240.02 221.05 234.54 220.08 C 234.42 222.76 234.28 225.45 234.14 228.13 C 233.41 228.08 231.94 227.97 231.21 227.92 C 231.83 224.00 231.91 219.68 234.33 216.35 C 236.10 214.77 238.71 214.76 240.92 214.18 Z" />
</g>
<g id="#615f62ff">
<path fill="#615f62" opacity="1.00" d=" M 182.53 220.92 C 183.71 220.13 184.86 219.27 186.19 218.72 C 188.67 218.87 190.99 219.89 193.38 220.52 C 189.82 221.28 186.13 221.76 182.53 220.92 Z" />
</g>
<g id="#414246fd">
<path fill="#414246" opacity="1.00" d=" M 252.89 220.47 C 253.99 219.73 255.09 218.99 256.19 218.25 C 258.61 219.60 261.02 220.99 263.40 222.43 C 260.92 223.81 258.49 225.26 256.08 226.76 C 256.22 225.23 256.37 223.71 256.51 222.19 C 255.30 221.61 254.10 221.04 252.89 220.47 Z" />
</g>
<g id="#4c8999ff">
<path fill="#4c8999" opacity="1.00" d=" M 174.64 219.36 C 176.42 219.69 178.19 220.06 179.97 220.43 C 180.82 220.60 181.67 220.77 182.53 220.92 C 186.13 221.76 189.82 221.28 193.38 220.52 C 194.78 220.32 196.17 220.11 197.57 219.90 C 197.44 220.41 197.17 221.43 197.04 221.93 C 195.81 222.36 194.59 222.79 193.37 223.23 C 189.70 223.33 186.04 223.43 182.38 223.57 C 180.14 222.62 177.87 221.76 175.71 220.63 C 175.44 220.31 174.91 219.68 174.64 219.36 Z" />
</g>
<g id="#e8fcfdff">
<path fill="#e8fcfd" opacity="1.00" d=" M 210.85 220.83 C 211.09 220.24 211.58 219.06 211.82 218.47 C 212.69 218.74 214.43 219.28 215.30 219.55 C 214.36 221.75 213.38 224.12 211.15 225.31 C 210.30 223.94 210.55 222.32 210.85 220.83 Z" />
</g>
<g id="#525257ff">
<path fill="#525257" opacity="1.00" d=" M 251.68 219.90 C 251.99 220.04 252.59 220.33 252.89 220.47 C 254.10 221.04 255.30 221.61 256.51 222.19 C 256.37 223.71 256.22 225.23 256.08 226.76 C 258.49 225.26 260.92 223.81 263.40 222.43 L 263.49 223.33 C 263.64 225.89 264.33 229.10 262.20 231.05 C 258.61 232.70 254.69 233.58 251.26 235.60 C 250.46 232.21 249.58 228.71 250.35 225.23 C 250.73 223.43 251.22 221.67 251.68 219.90 Z" />
</g>
<g id="#1c1c1cff">
<path fill="#1c1c1c" opacity="1.00" d=" M 175.71 220.63 C 177.87 221.76 180.14 222.62 182.38 223.57 C 184.32 224.80 186.18 227.26 188.77 226.32 C 190.43 225.50 191.85 224.28 193.37 223.23 C 194.59 222.79 195.81 222.36 197.04 221.93 C 197.92 222.39 198.80 222.84 199.69 223.30 C 198.54 225.43 197.58 227.65 196.77 229.93 C 199.34 228.81 201.82 227.51 204.19 226.01 C 204.37 226.52 204.74 227.53 204.92 228.03 C 203.76 229.03 202.59 230.02 201.44 231.04 C 201.34 230.64 201.13 229.84 201.03 229.43 C 200.66 229.99 199.92 231.11 199.54 231.66 C 195.47 233.05 191.44 234.57 187.38 235.99 C 186.33 235.98 185.27 235.92 184.23 235.81 C 181.34 234.19 178.37 232.46 176.33 229.77 C 174.48 227.40 172.79 224.91 170.86 222.59 C 172.49 221.97 174.11 221.31 175.71 220.63 Z" />
<path fill="#1c1c1c" opacity="1.00" d=" M 214.66 231.37 C 218.71 230.48 221.54 234.18 224.48 236.26 C 224.09 236.71 223.32 237.60 222.94 238.05 C 218.21 237.09 213.40 236.60 208.59 236.43 C 209.88 234.05 211.68 231.52 214.66 231.37 Z" />
</g>
<g id="#5f5f64ff">
<path fill="#5f5f64" opacity="1.00" d=" M 220.97 223.57 C 222.68 223.20 224.40 222.83 226.12 222.47 C 226.11 224.54 226.09 226.60 226.05 228.67 C 224.03 227.34 222.05 225.80 220.97 223.57 Z" />
</g>
<g id="#468fa2ff">
<path fill="#468fa2" opacity="1.00" d=" M 170.86 222.59 C 172.79 224.91 174.48 227.40 176.33 229.77 C 178.37 232.46 181.34 234.19 184.23 235.81 C 181.84 235.51 179.21 235.39 177.26 233.80 C 173.97 231.26 172.30 227.30 171.12 223.43 L 170.86 222.59 Z" />
</g>
<g id="#3f3e3fff">
<path fill="#3f3e3f" opacity="1.00" d=" M 182.38 223.57 C 186.04 223.43 189.70 223.33 193.37 223.23 C 191.85 224.28 190.43 225.50 188.77 226.32 C 186.18 227.26 184.32 224.80 182.38 223.57 Z" />
</g>
<g id="#292829ff">
<path fill="#292829" opacity="1.00" d=" M 159.71 234.12 C 163.05 230.11 166.20 225.64 171.12 223.43 C 172.30 227.30 173.97 231.26 177.26 233.80 C 179.21 235.39 181.84 235.51 184.23 235.81 C 185.27 235.92 186.33 235.98 187.38 235.99 C 185.48 236.70 183.61 237.50 181.77 238.37 C 181.39 238.57 180.63 238.95 180.25 239.15 C 178.21 240.19 176.17 241.26 174.15 242.36 C 171.02 242.38 167.69 242.54 164.78 241.18 C 162.15 239.68 161.12 236.62 159.71 234.12 Z" />
</g>
<g id="#6c6a6efe">
<path fill="#6c6a6e" opacity="1.00" d=" M 270.36 224.34 C 276.40 225.08 281.98 227.65 287.85 229.08 C 288.46 229.25 289.68 229.59 290.29 229.75 C 290.37 230.88 290.45 232.01 290.53 233.14 C 288.40 232.56 286.27 231.97 284.17 231.29 C 280.61 230.04 277.04 228.78 273.57 227.27 C 272.16 226.74 271.21 225.52 270.36 224.34 Z" />
</g>
<g id="#353535ff">
<path fill="#353535" opacity="1.00" d=" M 207.17 226.31 C 207.73 223.59 210.35 226.02 211.94 226.40 C 214.83 227.98 217.41 230.21 220.57 231.28 C 223.18 231.79 225.86 231.36 228.51 231.45 C 227.64 232.82 227.06 234.53 225.62 235.44 C 225.34 235.65 224.77 236.06 224.48 236.26 C 221.54 234.18 218.71 230.48 214.66 231.37 C 211.68 231.52 209.88 234.05 208.59 236.43 C 208.30 236.94 207.74 237.96 207.46 238.47 C 203.46 238.72 199.38 238.92 195.61 240.43 C 191.36 242.07 187.16 243.94 182.65 244.79 C 182.67 243.58 182.66 242.37 182.62 241.16 C 188.56 238.99 194.40 236.16 200.81 235.73 C 201.57 236.44 202.34 237.15 203.11 237.87 C 204.33 237.29 205.57 236.72 206.78 236.10 C 207.26 232.85 206.85 229.56 207.17 226.31 Z" />
</g>
<g id="#585859ff">
<path fill="#585859" opacity="1.00" d=" M 201.44 231.04 C 202.59 230.02 203.76 229.03 204.92 228.03 C 205.63 230.70 206.19 233.40 206.78 236.10 C 205.57 236.72 204.33 237.29 203.11 237.87 C 202.58 235.59 202.02 233.31 201.44 231.04 Z" />
</g>
<g id="#609cadff">
<path fill="#609cad" opacity="1.00" d=" M 199.54 231.66 C 199.92 231.11 200.66 229.99 201.03 229.43 C 201.13 229.84 201.34 230.64 201.44 231.04 C 202.02 233.31 202.58 235.59 203.11 237.87 C 202.34 237.15 201.57 236.44 200.81 235.73 C 200.38 234.37 199.97 233.01 199.54 231.66 Z" />
</g>
<g id="#34353cff">
<path fill="#34353c" opacity="1.00" d=" M 290.29 229.75 C 290.84 229.95 291.92 230.34 292.47 230.54 C 292.88 231.83 293.29 233.14 293.71 234.44 C 297.91 235.94 302.24 237.08 306.41 238.67 C 309.90 239.95 312.64 242.59 316.00 244.12 C 319.64 245.38 323.65 244.72 327.33 245.85 C 330.32 247.30 332.23 250.38 335.38 251.60 C 338.48 252.65 341.80 251.25 344.93 252.07 C 347.88 253.14 350.06 255.52 352.73 257.08 C 355.26 258.54 358.01 259.55 360.63 260.86 C 358.09 262.09 355.29 263.08 352.45 262.24 C 342.31 257.82 331.14 255.50 321.99 249.02 C 319.65 247.52 316.73 248.09 314.12 247.84 C 309.21 247.79 304.71 245.67 300.23 243.93 C 299.82 242.16 299.40 240.40 298.99 238.63 C 298.44 238.67 297.33 238.76 296.77 238.80 C 290.86 239.58 285.00 237.72 280.35 234.06 C 281.62 233.13 282.89 232.21 284.17 231.29 C 286.27 231.97 288.40 232.56 290.53 233.14 C 290.45 232.01 290.37 230.88 290.29 229.75 Z" />
</g>
<g id="#2f2f33f9">
<path fill="#2f2f33" opacity="0.98" d=" M 230.46 231.51 C 233.15 231.56 235.75 232.35 238.16 233.53 C 236.81 234.12 235.46 234.72 234.15 235.39 C 232.74 234.27 231.50 232.97 230.46 231.51 Z" />
</g>
<g id="#656366ff">
<path fill="#656366" opacity="1.00" d=" M 187.38 235.99 C 191.44 234.57 195.47 233.05 199.54 231.66 C 199.97 233.01 200.38 234.37 200.81 235.73 C 194.40 236.16 188.56 238.99 182.62 241.16 C 182.41 240.46 181.99 239.07 181.77 238.37 C 183.61 237.50 185.48 236.70 187.38 235.99 Z" />
</g>
<g id="#55555bff">
<path fill="#55555b" opacity="1.00" d=" M 259.95 238.93 C 261.78 235.18 265.34 232.88 269.11 231.39 C 268.62 233.27 268.18 235.16 267.72 237.05 C 269.56 237.13 271.42 237.21 273.28 237.29 C 273.52 235.79 273.75 234.29 274.00 232.80 C 275.30 235.01 276.03 237.50 277.37 239.69 C 279.51 241.90 282.41 243.17 285.01 244.77 C 284.66 245.43 284.28 246.08 283.89 246.72 L 283.24 246.95 C 275.52 244.13 268.03 239.90 259.65 239.52 L 259.95 238.93 Z" />
</g>
<g id="#4f8a9afb">
<path fill="#4f8a9a" opacity="1.00" d=" M 158.41 236.88 C 158.84 235.96 159.27 235.04 159.71 234.12 C 161.12 236.62 162.15 239.68 164.78 241.18 C 167.69 242.54 171.02 242.38 174.15 242.36 C 173.15 243.25 172.16 244.15 171.18 245.08 C 168.47 244.49 165.68 244.03 163.16 242.83 C 161.09 241.29 159.87 238.94 158.41 236.88 Z" />
</g>
<g id="#4f5056ff">
<path fill="#4f5056" opacity="1.00" d=" M 234.15 235.39 C 235.46 234.72 236.81 234.12 238.16 233.53 C 240.65 234.70 243.25 235.64 245.89 236.47 C 244.79 236.98 243.70 237.48 242.62 238.00 C 245.09 239.04 247.61 239.99 250.08 241.05 C 251.31 242.35 252.54 243.65 253.78 244.94 C 253.59 245.43 253.21 246.40 253.02 246.88 C 248.46 245.38 243.93 243.79 239.50 241.93 C 237.10 240.93 235.09 239.19 233.69 237.00 C 233.81 236.60 234.04 235.79 234.15 235.39 Z" />
</g>
<g id="#504f52ef">
<path fill="#504f52" opacity="0.94" d=" M 224.48 236.26 C 224.77 236.06 225.34 235.65 225.62 235.44 C 225.77 236.40 226.08 238.30 226.23 239.25 C 225.27 239.11 223.36 238.83 222.41 238.69 L 222.94 238.05 C 223.32 237.60 224.09 236.71 224.48 236.26 Z" />
</g>
<g id="#3e3d3eff">
<path fill="#3e3d3e" opacity="1.00" d=" M 157.83 246.21 C 155.89 243.31 156.87 239.70 158.41 236.88 C 159.87 238.94 161.09 241.29 163.16 242.83 C 165.68 244.03 168.47 244.49 171.18 245.08 C 174.36 246.21 177.36 244.62 179.99 242.96 C 180.87 243.85 181.75 244.74 182.64 245.63 C 177.92 247.55 173.25 249.99 168.05 250.20 C 164.32 250.47 159.89 249.70 157.83 246.21 Z" />
</g>
<g id="#3c3b3de9">
<path fill="#3c3b3d" opacity="0.91" d=" M 233.69 237.00 C 235.09 239.19 237.10 240.93 239.50 241.93 C 239.40 242.28 239.21 242.97 239.11 243.32 C 239.06 243.52 238.95 243.93 238.89 244.14 C 238.44 245.84 240.76 246.58 242.04 246.91 C 241.92 247.90 241.81 248.90 241.63 249.89 C 241.41 250.00 240.96 250.21 240.73 250.32 C 239.72 250.10 238.78 249.72 237.91 249.17 C 235.63 245.47 234.92 241.11 233.69 237.00 Z" />
</g>
<g id="#6986aeff">
<path fill="#6986ae" opacity="1.00" d=" M 242.62 238.00 C 243.70 237.48 244.79 236.98 245.89 236.47 C 246.41 236.66 247.44 237.02 247.96 237.20 C 248.69 238.47 249.36 239.77 250.08 241.05 C 247.61 239.99 245.09 239.04 242.62 238.00 Z" />
</g>
<g id="#303136ff">
<path fill="#303136" opacity="1.00" d=" M 247.96 237.20 C 251.78 238.62 255.84 239.92 259.95 238.93 L 259.65 239.52 C 259.17 240.85 258.75 242.20 258.34 243.56 C 262.99 244.75 267.30 246.88 271.71 248.70 C 271.66 250.67 271.58 252.65 271.47 254.63 C 269.86 252.86 269.49 250.68 270.52 248.52 C 268.10 248.54 265.64 248.37 263.27 248.92 C 260.77 251.10 258.94 253.91 256.88 256.48 C 254.97 255.85 253.08 255.14 251.28 254.24 C 253.37 253.85 255.81 253.90 257.51 252.46 C 258.85 250.50 259.42 248.15 260.22 245.95 C 258.11 247.51 256.20 249.46 253.74 250.47 C 251.68 250.95 249.62 250.06 247.62 249.68 C 247.39 250.22 246.93 251.32 246.70 251.86 C 244.70 251.36 242.72 250.84 240.73 250.32 C 240.96 250.21 241.41 250.00 241.63 249.89 C 241.81 248.90 241.92 247.90 242.04 246.91 C 242.97 244.79 240.86 243.20 238.89 244.14 C 238.95 243.93 239.06 243.52 239.11 243.32 C 239.21 242.97 239.40 242.28 239.50 241.93 C 243.93 243.79 248.46 245.38 253.02 246.88 C 253.21 246.40 253.59 245.43 253.78 244.94 C 252.54 243.65 251.31 242.35 250.08 241.05 C 249.36 239.77 248.69 238.47 247.96 237.20 Z" />
</g>
<g id="#4c4c53ff">
<path fill="#4c4c53" opacity="1.00" d=" M 296.77 238.80 C 297.33 238.76 298.44 238.67 298.99 238.63 C 299.40 240.40 299.82 242.16 300.23 243.93 C 304.71 245.67 309.21 247.79 314.12 247.84 C 316.73 248.09 319.65 247.52 321.99 249.02 C 331.14 255.50 342.31 257.82 352.45 262.24 C 351.85 263.01 351.24 263.80 350.65 264.58 C 344.42 263.71 338.34 262.08 332.16 260.95 C 333.99 262.65 335.76 264.40 337.45 266.23 C 331.56 265.77 326.21 263.15 320.56 261.69 C 320.29 262.18 319.76 263.18 319.50 263.68 C 318.02 265.44 316.50 267.14 315.01 268.88 C 315.24 266.88 315.45 264.88 315.64 262.88 C 315.27 263.24 314.55 263.94 314.19 264.30 C 313.58 261.25 312.91 258.22 312.15 255.21 C 310.69 256.21 309.25 257.20 307.80 258.21 C 305.67 257.85 303.53 257.48 301.40 257.12 C 302.11 255.94 302.83 254.77 303.56 253.60 C 301.92 253.20 300.28 252.78 298.66 252.34 C 295.69 249.21 291.49 248.17 287.35 247.80 C 286.18 250.16 284.97 252.50 283.87 254.89 C 283.10 253.66 282.20 253.47 281.20 254.33 C 281.10 255.68 281.78 256.33 283.25 256.29 C 282.73 257.56 282.26 258.86 281.80 260.16 C 279.76 259.60 277.58 259.31 275.71 258.26 C 274.62 257.36 273.83 256.17 272.97 255.07 C 274.60 255.50 276.25 255.95 277.94 256.04 C 279.15 255.04 280.15 253.82 281.19 252.65 C 278.72 251.93 276.25 251.24 273.78 250.55 C 276.90 249.27 280.05 248.07 283.24 246.95 L 283.89 246.72 C 284.28 246.08 284.66 245.43 285.01 244.77 C 285.08 244.43 285.23 243.75 285.31 243.41 C 286.95 243.52 288.59 243.64 290.24 243.75 C 289.40 242.69 288.58 241.63 287.75 240.58 C 290.06 240.65 292.35 241.03 294.64 241.42 C 295.35 240.54 296.06 239.67 296.77 238.80 M 291.18 242.79 C 291.18 243.63 291.18 245.31 291.18 246.15 C 291.84 246.16 293.17 246.16 293.83 246.17 C 294.16 245.60 294.80 244.48 295.12 243.92 C 293.81 243.54 292.49 243.16 291.18 242.79 Z" />
</g>
<g id="#797779ff">
<path fill="#797779" opacity="1.00" d=" M 174.15 242.36 C 176.17 241.26 178.21 240.19 180.25 239.15 C 180.14 240.42 180.05 241.69 179.99 242.96 C 177.36 244.62 174.36 246.21 171.18 245.08 C 172.16 244.15 173.15 243.25 174.15 242.36 Z" />
</g>
<g id="#6eb6c8ff">
<path fill="#6eb6c8" opacity="1.00" d=" M 180.25 239.15 C 180.63 238.95 181.39 238.57 181.77 238.37 C 181.99 239.07 182.41 240.46 182.62 241.16 C 182.66 242.37 182.67 243.58 182.65 244.79 L 182.64 245.63 C 181.75 244.74 180.87 243.85 179.99 242.96 C 180.05 241.69 180.14 240.42 180.25 239.15 Z" />
</g>
<g id="#67676cff">
<path fill="#67676c" opacity="1.00" d=" M 259.65 239.52 C 268.03 239.90 275.52 244.13 283.24 246.95 C 280.05 248.07 276.90 249.27 273.78 250.55 C 276.25 251.24 278.72 251.93 281.19 252.65 C 280.15 253.82 279.15 255.04 277.94 256.04 C 276.25 255.95 274.60 255.50 272.97 255.07 C 272.60 254.96 271.84 254.74 271.47 254.63 C 271.58 252.65 271.66 250.67 271.71 248.70 C 267.30 246.88 262.99 244.75 258.34 243.56 C 258.75 242.20 259.17 240.85 259.65 239.52 Z" />
</g>
<g id="#6f6e74ff">
<path fill="#6f6e74" opacity="1.00" d=" M 285.76 240.68 C 286.26 240.65 287.25 240.61 287.75 240.58 C 288.58 241.63 289.40 242.69 290.24 243.75 C 288.59 243.64 286.95 243.52 285.31 243.41 C 285.42 242.73 285.65 241.36 285.76 240.68 Z" />
</g>
<g id="#838187ff">
<path fill="#838187" opacity="1.00" d=" M 291.18 242.79 C 292.49 243.16 293.81 243.54 295.12 243.92 C 294.80 244.48 294.16 245.60 293.83 246.17 C 293.17 246.16 291.84 246.16 291.18 246.15 C 291.18 245.31 291.18 243.63 291.18 242.79 Z" />
</g>
<g id="#6a6767ff">
<path fill="#6a6767" opacity="1.00" d=" M 238.89 244.14 C 240.86 243.20 242.97 244.79 242.04 246.91 C 240.76 246.58 238.44 245.84 238.89 244.14 Z" />
</g>
<g id="#666264ff">
<path fill="#666264" opacity="1.00" d=" M 253.74 250.47 C 256.20 249.46 258.11 247.51 260.22 245.95 C 259.42 248.15 258.85 250.50 257.51 252.46 C 255.81 253.90 253.37 253.85 251.28 254.24 C 249.71 253.52 248.22 252.66 246.70 251.86 C 246.93 251.32 247.39 250.22 247.62 249.68 C 249.62 250.06 251.68 250.95 253.74 250.47 Z" />
</g>
<g id="#3a3b40ff">
<path fill="#3a3b40" opacity="1.00" d=" M 287.35 247.80 C 291.49 248.17 295.69 249.21 298.66 252.34 C 296.39 253.26 293.95 253.90 291.94 255.35 C 290.72 256.77 289.99 258.53 289.06 260.14 C 288.83 258.70 288.86 257.24 289.16 255.81 C 287.07 257.81 284.70 259.56 281.80 260.16 C 282.26 258.86 282.73 257.56 283.25 256.29 C 283.40 255.94 283.71 255.24 283.87 254.89 C 284.97 252.50 286.18 250.16 287.35 247.80 Z" />
</g>
<g id="#575861ff">
<path fill="#575861" opacity="1.00" d=" M 298.66 252.34 C 300.28 252.78 301.92 253.20 303.56 253.60 C 302.83 254.77 302.11 255.94 301.40 257.12 C 301.16 257.51 300.69 258.29 300.45 258.68 C 301.31 259.97 302.18 261.27 303.01 262.59 L 301.93 262.88 C 301.91 262.47 301.87 261.63 301.85 261.22 L 301.10 260.89 L 300.32 261.21 C 300.21 261.63 300.01 262.48 299.90 262.90 C 299.62 263.37 299.05 264.31 298.76 264.78 C 297.26 264.15 295.61 264.26 294.04 264.45 C 291.46 264.75 290.55 261.64 289.06 260.14 C 289.99 258.53 290.72 256.77 291.94 255.35 C 293.95 253.90 296.39 253.26 298.66 252.34 M 290.37 259.71 C 291.45 262.28 294.19 262.72 296.63 263.23 C 296.23 261.92 295.82 260.61 295.42 259.31 C 293.73 259.42 292.05 259.55 290.37 259.71 Z" />
</g>
<g id="#a3a1a4ff">
<path fill="#a3a1a4" opacity="1.00" d=" M 281.20 254.33 C 282.20 253.47 283.10 253.66 283.87 254.89 C 283.71 255.24 283.40 255.94 283.25 256.29 C 281.78 256.33 281.10 255.68 281.20 254.33 Z" />
</g>
<g id="#3f4047ff">
<path fill="#3f4047" opacity="1.00" d=" M 307.80 258.21 C 309.25 257.20 310.69 256.21 312.15 255.21 C 312.91 258.22 313.58 261.25 314.19 264.30 C 312.51 265.99 311.05 267.88 309.63 269.80 C 308.86 268.99 308.09 268.19 307.32 267.40 C 307.45 267.09 307.70 266.47 307.83 266.16 C 308.53 264.43 309.21 262.69 309.87 260.94 C 307.46 261.94 305.11 263.23 303.52 265.37 C 303.28 265.67 302.79 266.25 302.55 266.55 C 300.59 266.72 298.63 266.85 296.67 266.96 L 297.29 266.42 C 297.66 266.01 298.40 265.19 298.76 264.78 C 299.05 264.31 299.62 263.37 299.90 262.90 C 300.41 262.90 301.42 262.89 301.93 262.88 L 303.01 262.59 C 302.18 261.27 301.31 259.97 300.45 258.68 C 300.69 258.29 301.16 257.51 301.40 257.12 C 303.53 257.48 305.67 257.85 307.80 258.21 Z" />
</g>
<g id="#687196ff">
<path fill="#687196" opacity="1.00" d=" M 290.37 259.71 C 292.05 259.55 293.73 259.42 295.42 259.31 C 295.82 260.61 296.23 261.92 296.63 263.23 C 294.19 262.72 291.45 262.28 290.37 259.71 Z" />
</g>
<g id="#3e3f46ff">
<path fill="#3e3f46" opacity="1.00" d=" M 360.63 260.86 C 361.78 260.26 363.05 259.87 363.55 261.48 C 364.96 266.74 366.06 272.66 363.96 277.90 C 363.53 276.51 363.11 275.11 362.69 273.73 C 361.74 274.19 360.79 274.65 359.84 275.11 C 360.95 275.87 362.07 276.62 363.19 277.38 L 364.00 277.94 C 361.60 281.22 356.71 282.82 353.14 280.48 C 353.21 279.48 353.31 278.48 353.42 277.48 C 354.31 278.12 355.21 278.75 356.12 279.39 C 356.49 278.22 356.88 277.05 357.26 275.88 C 353.18 271.35 348.35 267.50 342.83 264.88 C 342.84 265.35 342.87 266.29 342.89 266.76 C 342.92 268.10 342.95 269.46 342.98 270.81 C 343.06 273.58 342.96 276.36 342.38 279.08 C 342.22 279.75 341.90 281.08 341.74 281.75 C 339.04 281.79 336.30 281.56 333.80 280.47 C 336.03 280.75 338.28 280.91 340.53 281.11 C 340.43 280.20 340.33 279.30 340.23 278.40 C 340.54 278.02 341.15 277.25 341.45 276.87 L 341.28 276.01 C 340.11 272.47 337.51 269.32 333.98 267.99 C 332.24 267.14 330.52 268.41 328.98 269.10 C 325.78 270.63 322.43 271.81 319.22 273.34 C 317.22 272.49 315.22 271.67 313.20 270.89 C 314.71 270.19 316.27 269.55 317.68 268.64 C 318.60 267.12 318.93 265.34 319.50 263.68 C 319.76 263.18 320.29 262.18 320.56 261.69 C 326.21 263.15 331.56 265.77 337.45 266.23 C 335.76 264.40 333.99 262.65 332.16 260.95 C 338.34 262.08 344.42 263.71 350.65 264.58 C 351.24 263.80 351.85 263.01 352.45 262.24 C 355.29 263.08 358.09 262.09 360.63 260.86 M 357.23 265.54 C 357.39 266.99 357.12 268.64 358.02 269.92 C 358.97 271.58 361.06 271.78 362.68 272.44 C 362.03 271.42 361.38 270.42 360.72 269.41 C 360.96 268.28 361.20 267.15 361.44 266.03 C 361.10 265.69 360.42 265.01 360.08 264.67 C 359.36 264.88 357.94 265.32 357.23 265.54 M 319.19 268.29 L 318.83 269.11 L 319.17 269.95 L 320.00 270.30 L 320.83 269.97 L 321.18 269.14 L 320.85 268.30 L 320.02 267.95 L 319.19 268.29 Z" />
</g>
<g id="#9d9a9eff">
<path fill="#9d9a9e" opacity="1.00" d=" M 300.32 261.21 L 301.10 260.89 L 301.85 261.22 C 301.87 261.63 301.91 262.47 301.93 262.88 C 301.42 262.89 300.41 262.90 299.90 262.90 C 300.01 262.48 300.21 261.63 300.32 261.21 Z" />
</g>
<g id="#222225d7">
<path fill="#222225" opacity="0.84" d=" M 303.52 265.37 C 305.11 263.23 307.46 261.94 309.87 260.94 C 309.21 262.69 308.53 264.43 307.83 266.16 C 306.39 265.89 304.96 265.63 303.52 265.37 Z" />
</g>
<g id="#6574a7ff">
<path fill="#6574a7" opacity="1.00" d=" M 314.19 264.30 C 314.55 263.94 315.27 263.24 315.64 262.88 C 315.45 264.88 315.24 266.88 315.01 268.88 C 316.50 267.14 318.02 265.44 319.50 263.68 C 318.93 265.34 318.60 267.12 317.68 268.64 C 316.27 269.55 314.71 270.19 313.20 270.89 C 315.22 271.67 317.22 272.49 319.22 273.34 C 318.62 273.63 317.43 274.21 316.83 274.49 C 314.32 273.10 311.90 271.55 309.63 269.80 C 311.05 267.88 312.51 265.99 314.19 264.30 Z" />
</g>
<g id="#6d6b71e2">
<path fill="#6d6b71" opacity="0.89" d=" M 294.04 264.45 C 295.61 264.26 297.26 264.15 298.76 264.78 C 298.40 265.19 297.66 266.01 297.29 266.42 C 295.68 266.56 294.60 265.91 294.04 264.45 Z" />
</g>
<g id="#8a8b95ff">
<path fill="#8a8b95" opacity="1.00" d=" M 342.83 264.88 C 348.35 267.50 353.18 271.35 357.26 275.88 C 352.03 273.68 346.45 271.40 342.89 266.76 C 342.87 266.29 342.84 265.35 342.83 264.88 Z" />
</g>
<g id="#5c5a5fff">
<path fill="#5c5a5f" opacity="1.00" d=" M 357.23 265.54 C 357.94 265.32 359.36 264.88 360.08 264.67 C 360.42 265.01 361.10 265.69 361.44 266.03 C 361.20 267.15 360.96 268.28 360.72 269.41 C 361.38 270.42 362.03 271.42 362.68 272.44 C 361.06 271.78 358.97 271.58 358.02 269.92 C 357.12 268.64 357.39 266.99 357.23 265.54 Z" />
</g>
<g id="#56555bff">
<path fill="#56555b" opacity="1.00" d=" M 328.98 269.10 C 330.52 268.41 332.24 267.14 333.98 267.99 C 337.51 269.32 340.11 272.47 341.28 276.01 C 340.85 276.02 340.00 276.06 339.58 276.07 L 339.27 276.92 C 339.51 277.29 339.99 278.03 340.23 278.40 C 340.33 279.30 340.43 280.20 340.53 281.11 C 338.28 280.91 336.03 280.75 333.80 280.47 C 331.72 279.23 330.14 277.36 328.50 275.62 C 330.71 276.28 332.93 276.93 335.16 277.54 C 334.86 276.91 334.25 275.65 333.94 275.02 C 334.62 273.31 335.28 271.58 335.94 269.86 C 334.84 271.17 333.75 272.48 332.60 273.75 C 331.24 274.39 329.87 275.01 328.50 275.62 C 328.19 275.75 327.58 276.01 327.27 276.15 C 327.16 275.31 326.94 273.63 326.82 272.79 C 327.53 271.55 328.23 270.31 328.98 269.10 Z" />
</g>
<g id="#626269ff">
<path fill="#626269" opacity="1.00" d=" M 342.89 266.76 C 346.45 271.40 352.03 273.68 357.26 275.88 C 356.88 277.05 356.49 278.22 356.12 279.39 C 355.21 278.75 354.31 278.12 353.42 277.48 C 350.10 275.01 346.64 272.73 342.98 270.81 C 342.95 269.46 342.92 268.10 342.89 266.76 Z" />
</g>
<g id="#949196ff">
<path fill="#949196" opacity="1.00" d=" M 319.19 268.29 L 320.02 267.95 L 320.85 268.30 L 321.18 269.14 L 320.83 269.97 L 320.00 270.30 L 319.17 269.95 L 318.83 269.11 L 319.19 268.29 Z" />
</g>
<g id="#18191b9d">
<path fill="#18191b" opacity="0.62" d=" M 319.22 273.34 C 322.43 271.81 325.78 270.63 328.98 269.10 C 328.23 270.31 327.53 271.55 326.82 272.79 C 323.53 273.59 320.20 274.18 316.83 274.49 C 317.43 274.21 318.62 273.63 319.22 273.34 Z" />
</g>
<g id="#828186ff">
<path fill="#828186" opacity="1.00" d=" M 332.60 273.75 C 333.75 272.48 334.84 271.17 335.94 269.86 C 335.28 271.58 334.62 273.31 333.94 275.02 C 333.61 274.70 332.94 274.06 332.60 273.75 Z" />
</g>
<g id="#36373cff">
<path fill="#36373c" opacity="1.00" d=" M 342.98 270.81 C 346.64 272.73 350.10 275.01 353.42 277.48 C 353.31 278.48 353.21 279.48 353.14 280.48 C 350.51 279.46 347.87 278.47 345.21 277.52 C 344.27 278.04 343.32 278.56 342.38 279.08 C 342.96 276.36 343.06 273.58 342.98 270.81 Z" />
</g>
<g id="#636e95ff">
<path fill="#636e95" opacity="1.00" d=" M 328.50 275.62 C 329.87 275.01 331.24 274.39 332.60 273.75 C 332.94 274.06 333.61 274.70 333.94 275.02 C 334.25 275.65 334.86 276.91 335.16 277.54 C 332.93 276.93 330.71 276.28 328.50 275.62 Z" />
</g>
<g id="#5a585bfe">
<path fill="#5a585b" opacity="1.00" d=" M 359.84 275.11 C 360.79 274.65 361.74 274.19 362.69 273.73 C 363.11 275.11 363.53 276.51 363.96 277.90 L 363.19 277.38 C 362.07 276.62 360.95 275.87 359.84 275.11 Z" />
</g>
<g id="#a09da0ff">
<path fill="#a09da0" opacity="1.00" d=" M 339.58 276.07 C 340.00 276.06 340.85 276.02 341.28 276.01 L 341.45 276.87 C 341.15 277.25 340.54 278.02 340.23 278.40 C 339.99 278.03 339.51 277.29 339.27 276.92 L 339.58 276.07 Z" />
</g>
</svg>
