<?xml version="1.0" encoding="UTF-8" ?>
<!DOCTYPE svg PUBLIC "-//W3C//DTD SVG 1.1//EN" "http://www.w3.org/Graphics/SVG/1.1/DTD/svg11.dtd">
<svg width="384pt" height="384pt" viewBox="0 0 384 384" version="1.1" xmlns="http://www.w3.org/2000/svg">
<g id="#151515ae">
<path fill="#151515" opacity="0.68" d=" M 181.42 133.53 C 186.43 132.44 191.15 135.16 195.18 137.82 C 191.30 136.26 187.11 135.83 182.98 135.48 C 180.81 135.22 178.70 135.90 176.66 136.53 C 178.09 135.31 179.39 133.68 181.42 133.53 Z" />
</g>
<g id="#3c3a3bff">
<path fill="#3c3a3b" opacity="1.00" d=" M 176.66 136.53 C 178.70 135.90 180.81 135.22 182.98 135.48 C 187.11 135.83 191.30 136.26 195.18 137.82 C 195.74 138.16 196.87 138.85 197.44 139.19 C 196.76 139.39 195.40 139.80 194.72 140.00 C 192.45 139.11 190.19 138.18 187.95 137.23 C 187.19 137.97 186.44 138.70 185.67 139.43 C 182.39 139.34 179.13 139.85 175.99 140.80 C 176.24 139.38 176.46 137.96 176.66 136.53 Z" />
</g>
<g id="#616162ff">
<path fill="#616162" opacity="1.00" d=" M 185.67 139.43 C 186.44 138.70 187.19 137.97 187.95 137.23 C 190.19 138.18 192.45 139.11 194.72 140.00 C 193.87 141.74 193.01 143.47 192.28 145.25 C 190.83 144.11 189.40 142.95 188.04 141.71 C 187.23 140.96 186.45 140.20 185.67 139.43 Z" />
</g>
<g id="#62b6caff">
<path fill="#62b6ca" opacity="1.00" d=" M 175.99 140.80 C 179.13 139.85 182.39 139.34 185.67 139.43 C 186.45 140.20 187.23 140.96 188.04 141.71 C 185.41 141.66 182.75 141.43 180.14 141.86 C 177.99 142.57 176.36 144.26 174.54 145.53 C 174.66 145.15 174.89 144.39 175.00 144.01 C 175.31 142.93 175.64 141.87 175.99 140.80 Z" />
</g>
<g id="#437c8bfa">
<path fill="#437c8b" opacity="0.98" d=" M 197.44 139.19 C 198.91 138.66 199.89 140.06 200.87 140.88 C 199.35 141.32 197.84 141.75 196.32 142.17 C 195.20 144.34 194.62 146.72 194.66 149.17 C 191.30 149.81 187.77 150.10 184.68 151.67 C 182.03 153.37 180.12 155.93 177.91 158.13 L 178.20 157.46 C 179.28 154.97 180.24 152.15 182.63 150.61 C 185.31 149.00 188.44 148.46 191.39 147.55 C 191.61 146.97 192.05 145.83 192.28 145.25 C 193.01 143.47 193.87 141.74 194.72 140.00 C 195.40 139.80 196.76 139.39 197.44 139.19 Z" />
</g>
<g id="#2b2b2cfd">
<path fill="#2b2b2c" opacity="1.00" d=" M 196.32 142.17 C 197.84 141.75 199.35 141.32 200.87 140.88 C 206.24 144.75 212.17 148.84 219.12 148.45 C 219.01 148.73 218.79 149.29 218.67 149.56 C 217.65 150.29 216.58 150.95 215.50 151.61 C 214.89 151.08 214.26 150.56 213.63 150.06 C 213.43 149.93 213.03 149.67 212.82 149.54 C 212.34 149.62 211.37 149.76 210.88 149.84 C 205.56 148.30 200.59 145.72 196.32 142.17 Z" />
</g>
<g id="#222122ff">
<path fill="#222122" opacity="1.00" d=" M 174.54 145.53 C 176.36 144.26 177.99 142.57 180.14 141.86 C 182.75 141.43 185.41 141.66 188.04 141.71 C 189.40 142.95 190.83 144.11 192.28 145.25 C 192.05 145.83 191.61 146.97 191.39 147.55 C 188.44 148.46 185.31 149.00 182.63 150.61 C 180.24 152.15 179.28 154.97 178.20 157.46 C 175.27 155.23 174.88 151.30 174.33 147.93 C 174.01 146.56 174.64 145.29 175.00 144.01 C 174.89 144.39 174.66 145.15 174.54 145.53 Z" />
</g>
<g id="#4a484aff">
<path fill="#4a484a" opacity="1.00" d=" M 194.66 149.17 C 194.62 146.72 195.20 144.34 196.32 142.17 C 200.59 145.72 205.56 148.30 210.88 149.84 C 210.15 151.68 209.40 153.51 208.64 155.34 C 204.06 153.10 199.29 151.30 194.66 149.17 Z" />
</g>
<g id="#171718ff">
<path fill="#171718" opacity="1.00" d=" M 194.66 149.17 C 199.29 151.30 204.06 153.10 208.64 155.34 C 208.79 155.71 209.09 156.46 209.23 156.84 C 206.79 156.49 204.36 156.13 201.92 155.78 C 202.29 158.42 202.73 161.06 203.21 163.68 C 207.02 163.80 210.91 163.55 214.66 164.40 C 216.88 164.85 218.44 166.59 219.84 168.24 C 218.58 168.11 217.32 168.01 216.06 167.93 C 214.08 167.80 212.11 167.67 210.14 167.52 C 208.01 166.96 205.92 166.29 203.80 165.72 C 202.64 165.42 201.47 165.13 200.30 164.85 C 199.76 162.14 199.70 159.18 198.19 156.78 C 195.62 153.66 190.68 153.41 187.35 155.40 C 185.12 156.66 184.29 159.24 183.03 161.31 C 182.64 161.48 181.86 161.82 181.48 161.99 C 180.86 161.98 179.64 161.96 179.03 161.95 C 178.68 160.67 178.30 159.39 177.91 158.13 C 180.12 155.93 182.03 153.37 184.68 151.67 C 187.77 150.10 191.30 149.81 194.66 149.17 Z" />
</g>
<g id="#4f8392fe">
<path fill="#4f8392" opacity="1.00" d=" M 210.88 149.84 C 211.37 149.76 212.34 149.62 212.82 149.54 C 213.03 149.67 213.43 149.93 213.63 150.06 C 212.16 152.74 210.90 155.53 209.78 158.37 C 209.64 157.99 209.37 157.22 209.23 156.84 C 209.09 156.46 208.79 155.71 208.64 155.34 C 209.40 153.51 210.15 151.68 210.88 149.84 Z" />
</g>
<g id="#505051ff">
<path fill="#505051" opacity="1.00" d=" M 209.78 158.37 C 210.90 155.53 212.16 152.74 213.63 150.06 C 214.26 150.56 214.89 151.08 215.50 151.61 C 214.12 154.63 213.61 157.94 213.61 161.25 C 212.34 160.27 211.07 159.31 209.78 158.37 Z" />
</g>
<g id="#4d656efe">
<path fill="#4d656e" opacity="1.00" d=" M 215.50 151.61 C 216.58 150.95 217.65 150.29 218.67 149.56 C 218.89 149.91 219.31 150.60 219.53 150.95 C 217.79 153.98 216.42 157.19 215.26 160.48 C 214.84 160.67 214.02 161.05 213.61 161.25 C 213.61 157.94 214.12 154.63 215.50 151.61 Z" />
</g>
<g id="#1a1b1bff">
<path fill="#1a1b1b" opacity="1.00" d=" M 219.53 150.95 C 224.08 151.30 229.11 149.05 233.26 151.69 C 231.48 152.37 229.61 152.93 228.05 154.08 C 226.70 155.44 225.84 157.19 224.87 158.82 C 227.31 159.72 229.75 160.62 232.19 161.53 C 230.36 161.69 228.57 162.09 226.76 162.35 C 228.44 162.92 230.17 163.57 232.00 163.90 C 229.14 163.67 226.27 163.55 223.41 163.36 C 223.17 164.10 222.68 165.60 222.44 166.34 C 219.40 165.28 217.12 163.02 215.26 160.48 C 216.42 157.19 217.79 153.98 219.53 150.95 Z" />
</g>
<g id="#484748ff">
<path fill="#484748" opacity="1.00" d=" M 228.05 154.08 C 229.61 152.93 231.48 152.37 233.26 151.69 L 234.18 151.34 C 234.93 153.16 235.91 154.92 236.34 156.86 C 236.00 158.85 234.56 160.40 233.58 162.10 C 233.23 161.96 232.54 161.67 232.19 161.53 C 229.75 160.62 227.31 159.72 224.87 158.82 C 225.84 157.19 226.70 155.44 228.05 154.08 Z" />
</g>
<g id="#1e1f1efd">
<path fill="#1e1f1e" opacity="1.00" d=" M 234.18 151.34 C 235.61 153.02 237.48 154.50 238.09 156.71 C 238.91 159.42 238.72 162.30 238.73 165.09 C 236.77 164.54 234.94 163.64 233.58 162.10 C 234.56 160.40 236.00 158.85 236.34 156.86 C 235.91 154.92 234.93 153.16 234.18 151.34 Z" />
</g>
<g id="#292829ff">
<path fill="#292829" opacity="1.00" d=" M 187.35 155.40 C 190.68 153.41 195.62 153.66 198.19 156.78 C 199.70 159.18 199.76 162.14 200.30 164.85 C 198.94 164.52 197.59 164.19 196.24 163.85 C 195.43 162.53 194.59 161.24 193.61 160.05 C 190.04 159.75 186.49 160.51 183.03 161.31 C 184.29 159.24 185.12 156.66 187.35 155.40 Z" />
</g>
<g id="#43494dff">
<path fill="#43494d" opacity="1.00" d=" M 183.03 161.31 C 186.49 160.51 190.04 159.75 193.61 160.05 C 194.59 161.24 195.43 162.53 196.24 163.85 C 191.44 162.48 186.49 161.57 181.48 161.99 C 181.86 161.82 182.64 161.48 183.03 161.31 Z" />
</g>
<g id="#455c63ff">
<path fill="#455c63" opacity="1.00" d=" M 179.03 161.95 C 179.64 161.96 180.86 161.98 181.48 161.99 C 183.38 162.61 185.27 163.31 187.21 163.86 C 187.55 166.22 187.93 168.57 188.32 170.93 C 187.96 170.74 187.26 170.36 186.91 170.17 C 186.47 168.27 186.13 166.34 185.72 164.43 C 185.29 164.36 184.45 164.23 184.03 164.16 C 182.33 163.99 180.63 163.90 178.93 163.88 C 178.96 163.39 179.01 162.43 179.03 161.95 Z" />
</g>
<g id="#5897a8ff">
<path fill="#5897a8" opacity="1.00" d=" M 181.48 161.99 C 186.49 161.57 191.44 162.48 196.24 163.85 C 197.59 164.19 198.94 164.52 200.30 164.85 C 201.47 165.13 202.64 165.42 203.80 165.72 C 203.72 166.21 203.54 167.18 203.46 167.67 C 202.44 167.60 201.42 167.52 200.41 167.43 C 199.81 167.30 198.61 167.04 198.00 166.91 C 194.47 165.68 190.84 164.76 187.21 163.86 C 185.27 163.31 183.38 162.61 181.48 161.99 Z" />
</g>
<g id="#393839fc">
<path fill="#393839" opacity="1.00" d=" M 223.41 163.36 C 226.27 163.55 229.14 163.67 232.00 163.90 L 232.90 163.93 C 233.24 164.51 233.90 165.68 234.24 166.27 C 230.68 166.19 227.12 166.20 223.56 166.32 L 222.44 166.34 C 222.68 165.60 223.17 164.10 223.41 163.36 Z" />
</g>
<g id="#161616ff">
<path fill="#161616" opacity="1.00" d=" M 169.08 174.19 C 170.65 169.71 173.83 164.53 178.93 163.88 C 180.63 163.90 182.33 163.99 184.03 164.16 C 183.93 166.64 183.76 169.11 183.64 171.59 C 178.87 172.91 173.98 173.60 169.08 174.19 Z" />
</g>
<g id="#434146ff">
<path fill="#434146" opacity="1.00" d=" M 184.03 164.16 C 184.45 164.23 185.29 164.36 185.72 164.43 C 186.13 166.34 186.47 168.27 186.91 170.17 C 187.26 170.36 187.96 170.74 188.32 170.93 C 191.44 171.35 193.61 169.06 195.51 166.96 C 196.14 166.95 197.38 166.92 198.00 166.91 C 198.61 167.04 199.81 167.30 200.41 167.43 C 199.69 168.90 198.96 170.37 198.23 171.84 C 201.45 171.63 204.66 171.28 207.88 171.09 L 208.75 171.07 C 207.24 173.30 206.19 175.79 205.65 178.42 C 203.78 179.53 201.50 180.32 200.37 182.31 C 198.86 184.77 197.79 187.45 196.62 190.07 C 198.80 193.45 200.80 196.94 202.67 200.51 C 203.99 199.46 205.31 198.40 206.63 197.36 C 208.22 200.56 209.75 203.80 211.20 207.07 C 210.88 207.86 210.55 208.64 210.22 209.43 C 211.28 209.79 212.33 210.20 213.37 210.63 L 213.65 211.26 C 209.83 211.43 206.01 211.57 202.19 211.50 C 201.92 211.81 201.37 212.44 201.10 212.76 C 202.75 213.06 204.40 213.36 206.05 213.65 C 203.40 214.08 200.75 214.52 198.12 215.05 C 195.77 214.78 193.42 214.46 191.09 214.08 C 190.40 215.73 189.71 217.38 189.03 219.04 C 187.70 219.37 186.36 219.66 185.02 219.95 C 186.32 216.43 187.22 212.78 187.84 209.08 C 181.47 209.26 174.68 208.60 168.83 211.63 C 169.12 210.19 167.56 209.47 166.37 209.69 C 162.47 209.55 158.46 208.86 155.08 206.83 C 154.97 206.38 154.76 205.49 154.66 205.05 C 157.41 204.37 160.18 203.71 163.01 203.39 C 163.41 203.36 164.20 203.29 164.59 203.26 C 168.95 203.72 173.25 202.79 176.97 200.47 C 178.08 199.97 179.21 199.51 180.35 199.08 C 182.99 200.18 185.85 200.40 188.67 200.06 C 188.11 197.26 187.19 194.41 187.70 191.54 C 188.34 187.88 189.42 184.32 190.12 180.68 C 187.86 180.31 185.54 180.43 183.30 180.91 C 183.61 181.44 184.25 182.48 184.57 183.00 C 182.39 182.72 180.20 182.26 177.99 182.39 C 176.65 182.73 175.29 183.01 173.93 183.25 C 172.37 182.34 170.82 181.13 168.91 181.27 C 163.88 181.30 158.86 181.83 153.84 182.20 C 153.87 181.73 153.94 180.80 153.97 180.34 C 158.22 176.85 163.83 175.48 169.08 174.19 C 173.98 173.60 178.87 172.91 183.64 171.59 C 183.76 169.11 183.93 166.64 184.03 164.16 M 202.42 207.13 C 201.25 208.30 203.40 209.61 204.23 208.42 C 205.40 207.25 203.24 205.94 202.42 207.13 Z" />
</g>
<g id="#5b595aff">
<path fill="#5b595a" opacity="1.00" d=" M 187.21 163.86 C 190.84 164.76 194.47 165.68 198.00 166.91 C 197.38 166.92 196.14 166.95 195.51 166.96 C 193.61 169.06 191.44 171.35 188.32 170.93 C 187.93 168.57 187.55 166.22 187.21 163.86 Z" />
</g>
<g id="#515258ff">
<path fill="#515258" opacity="1.00" d=" M 203.80 165.72 C 205.92 166.29 208.01 166.96 210.14 167.52 C 209.90 167.87 209.43 168.59 209.19 168.94 C 208.87 169.48 208.21 170.55 207.88 171.09 C 204.66 171.28 201.45 171.63 198.23 171.84 C 198.96 170.37 199.69 168.90 200.41 167.43 C 201.42 167.52 202.44 167.60 203.46 167.67 C 203.54 167.18 203.72 166.21 203.80 165.72 Z" />
</g>
<g id="#181818df">
<path fill="#181818" opacity="0.87" d=" M 223.56 166.32 C 227.12 166.20 230.68 166.19 234.24 166.27 C 230.75 167.38 227.05 167.52 223.56 166.32 Z" />
</g>
<g id="#9febf0ff">
<path fill="#9febf0" opacity="1.00" d=" M 209.19 168.94 C 209.43 168.59 209.90 167.87 210.14 167.52 C 212.11 167.67 214.08 167.80 216.06 167.93 C 216.18 168.55 216.42 169.79 216.54 170.41 C 216.84 172.28 217.07 174.16 217.28 176.04 L 216.39 175.79 C 215.85 173.55 215.43 171.29 215.02 169.03 C 213.90 169.27 212.77 169.49 211.65 169.67 C 210.78 169.57 209.96 169.33 209.19 168.94 Z" />
</g>
<g id="#444349fa">
<path fill="#444349" opacity="0.98" d=" M 216.06 167.93 C 217.32 168.01 218.58 168.11 219.84 168.24 C 223.68 169.93 227.35 172.01 230.95 174.15 C 234.20 176.06 235.87 179.63 236.46 183.23 L 235.45 182.94 C 232.73 182.25 230.02 181.24 227.94 179.28 C 228.45 179.13 229.46 178.83 229.97 178.67 C 228.93 177.44 227.90 176.20 226.78 175.05 C 223.52 173.17 219.96 171.91 216.54 170.41 C 216.42 169.79 216.18 168.55 216.06 167.93 Z" />
</g>
<g id="#83b5c1ff">
<path fill="#83b5c1" opacity="1.00" d=" M 207.88 171.09 C 208.21 170.55 208.87 169.48 209.19 168.94 C 209.96 169.33 210.78 169.57 211.65 169.67 C 212.24 171.51 212.99 173.30 213.64 175.14 C 214.33 175.30 215.70 175.63 216.39 175.79 L 217.28 176.04 C 217.39 177.01 217.50 177.98 217.61 178.95 L 216.90 179.10 C 216.54 179.18 215.82 179.35 215.46 179.44 C 215.00 179.69 214.09 180.20 213.64 180.46 L 213.05 180.83 C 213.38 177.55 212.72 174.31 211.76 171.19 C 211.01 171.16 209.50 171.10 208.75 171.07 L 207.88 171.09 Z" />
</g>
<g id="#faffffff">
<path fill="#faffff" opacity="1.00" d=" M 211.65 169.67 C 212.77 169.49 213.90 169.27 215.02 169.03 C 215.43 171.29 215.85 173.55 216.39 175.79 C 215.70 175.63 214.33 175.30 213.64 175.14 C 212.99 173.30 212.24 171.51 211.65 169.67 Z" />
</g>
<g id="#57555dff">
<path fill="#57555d" opacity="1.00" d=" M 216.54 170.41 C 219.96 171.91 223.52 173.17 226.78 175.05 C 227.15 176.46 227.48 177.89 227.94 179.28 C 230.02 181.24 232.73 182.25 235.45 182.94 C 235.27 183.81 234.90 185.54 234.71 186.40 L 233.72 186.32 C 231.98 186.16 230.20 186.07 228.52 185.57 C 226.12 184.37 224.39 182.24 222.51 180.39 C 221.17 183.41 219.23 186.35 219.09 189.74 C 219.93 191.66 221.46 193.16 222.77 194.77 C 225.84 191.61 230.07 190.28 234.38 190.08 L 235.46 189.95 C 234.21 192.67 232.93 195.37 231.57 198.04 C 231.00 197.91 229.85 197.67 229.27 197.54 C 229.26 198.09 229.25 199.19 229.24 199.74 C 227.60 200.13 225.68 200.50 224.68 202.00 C 224.43 203.00 224.55 204.04 224.69 205.06 C 223.70 206.29 222.78 207.57 221.75 208.76 L 221.29 208.40 C 220.24 207.49 219.21 206.56 218.20 205.62 C 218.03 203.48 217.82 201.35 217.64 199.23 C 216.34 199.22 215.04 199.19 213.75 199.17 C 213.01 201.84 212.24 204.50 211.20 207.07 C 209.75 203.80 208.22 200.56 206.63 197.36 C 205.31 198.40 203.99 199.46 202.67 200.51 C 200.80 196.94 198.80 193.45 196.62 190.07 C 197.79 187.45 198.86 184.77 200.37 182.31 C 201.50 180.32 203.78 179.53 205.65 178.42 C 206.19 175.79 207.24 173.30 208.75 171.07 C 209.50 171.10 211.01 171.16 211.76 171.19 C 212.72 174.31 213.38 177.55 213.05 180.83 C 209.37 182.99 206.11 185.79 203.49 189.17 C 206.73 192.41 210.56 194.97 214.43 197.39 C 215.60 197.69 216.78 197.97 217.97 198.23 C 218.49 191.81 218.48 185.34 217.61 178.95 C 217.50 177.98 217.39 177.01 217.28 176.04 C 217.07 174.16 216.84 172.28 216.54 170.41 Z" />
</g>
<g id="#5c8e9eff">
<path fill="#5c8e9e" opacity="1.00" d=" M 226.78 175.05 C 227.90 176.20 228.93 177.44 229.97 178.67 C 229.46 178.83 228.45 179.13 227.94 179.28 C 227.48 177.89 227.15 176.46 226.78 175.05 Z" />
</g>
<g id="#0f0f1164">
<path fill="#0f0f11" opacity="0.39" d=" M 142.93 180.38 C 143.80 179.92 144.66 179.45 145.51 178.96 C 145.90 180.35 146.20 181.79 146.81 183.12 C 147.77 183.88 148.86 184.46 149.91 185.10 L 149.45 185.51 C 148.33 185.69 147.21 185.85 146.09 186.00 C 144.70 184.33 143.62 182.44 142.93 180.38 Z" />
</g>
<g id="#38363cef">
<path fill="#38363c" opacity="0.94" d=" M 145.51 178.96 C 147.55 179.00 149.58 179.28 151.53 179.86 C 151.73 180.49 152.12 181.77 152.32 182.40 C 151.94 182.85 151.18 183.75 150.80 184.19 C 150.58 184.42 150.13 184.88 149.91 185.10 C 148.86 184.46 147.77 183.88 146.81 183.12 C 146.20 181.79 145.90 180.35 145.51 178.96 Z" />
</g>
<g id="#fbffffff">
<path fill="#fbffff" opacity="1.00" d=" M 213.64 180.46 C 214.09 180.20 215.00 179.69 215.46 179.44 C 215.82 179.35 216.54 179.18 216.90 179.10 C 216.91 181.61 216.82 184.12 216.71 186.63 C 215.69 185.29 214.61 183.99 213.51 182.72 C 213.54 182.16 213.61 181.03 213.64 180.46 Z" />
</g>
<g id="#c2f2f6ff">
<path fill="#c2f2f6" opacity="1.00" d=" M 216.90 179.10 L 217.61 178.95 C 218.48 185.34 218.49 191.81 217.97 198.23 C 216.78 197.97 215.60 197.69 214.43 197.39 C 213.64 195.15 212.63 192.87 212.76 190.44 C 212.88 187.85 213.36 185.30 213.51 182.72 C 214.61 183.99 215.69 185.29 216.71 186.63 C 216.82 184.12 216.91 181.61 216.90 179.10 M 214.87 188.60 C 214.77 191.46 214.85 194.32 215.09 197.17 C 215.55 197.02 216.46 196.72 216.92 196.56 C 217.46 193.93 218.48 189.35 214.87 188.60 Z" />
</g>
<g id="#2ecaccec">
<path fill="#2ecacc" opacity="0.93" d=" M 151.53 179.86 L 152.25 179.42 C 152.68 179.65 153.54 180.11 153.97 180.34 C 153.94 180.80 153.87 181.73 153.84 182.20 C 153.46 182.25 152.70 182.35 152.32 182.40 C 152.12 181.77 151.73 180.49 151.53 179.86 Z" />
</g>
<g id="#313437ff">
<path fill="#313437" opacity="1.00" d=" M 183.30 180.91 C 185.54 180.43 187.86 180.31 190.12 180.68 C 189.42 184.32 188.34 187.88 187.70 191.54 C 187.19 194.41 188.11 197.26 188.67 200.06 C 185.85 200.40 182.99 200.18 180.35 199.08 L 181.19 198.79 C 182.77 198.40 184.35 198.01 185.93 197.63 C 185.61 197.12 184.95 196.09 184.63 195.58 C 184.00 194.58 183.35 193.59 182.69 192.61 C 183.69 190.10 184.74 187.62 185.84 185.15 C 185.53 184.61 184.89 183.54 184.57 183.00 C 184.25 182.48 183.61 181.44 183.30 180.91 Z" />
</g>
<g id="#4c494fff">
<path fill="#4c494f" opacity="1.00" d=" M 222.51 180.39 C 224.39 182.24 226.12 184.37 228.52 185.57 C 230.20 186.07 231.98 186.16 233.72 186.32 C 233.93 187.57 234.15 188.83 234.38 190.08 C 230.07 190.28 225.84 191.61 222.77 194.77 C 221.46 193.16 219.93 191.66 219.09 189.74 C 219.23 186.35 221.17 183.41 222.51 180.39 Z" />
</g>
<g id="#151615ff">
<path fill="#151615" opacity="1.00" d=" M 153.84 182.20 C 158.86 181.83 163.88 181.30 168.91 181.27 C 170.82 181.13 172.37 182.34 173.93 183.25 C 174.05 188.80 174.12 194.35 173.95 199.91 C 174.70 200.05 176.21 200.33 176.97 200.47 C 173.25 202.79 168.95 203.72 164.59 203.26 C 164.79 202.89 165.18 202.15 165.37 201.79 C 166.51 200.71 168.34 200.49 169.11 199.02 C 169.70 197.63 169.97 196.14 170.28 194.67 C 170.44 193.73 170.60 192.80 170.75 191.87 C 168.82 192.79 166.49 193.37 165.27 195.28 C 163.67 197.67 163.51 200.64 163.01 203.39 C 160.18 203.71 157.41 204.37 154.66 205.05 C 152.29 203.53 150.03 201.87 147.91 200.03 C 148.24 198.35 148.46 196.62 149.13 195.04 C 150.11 193.70 151.61 192.89 153.01 192.06 C 153.44 192.08 154.32 192.11 154.76 192.13 C 157.40 192.25 160.04 192.38 162.68 192.56 C 162.32 189.92 162.00 187.28 161.71 184.63 C 161.17 184.74 160.09 184.96 159.54 185.07 C 156.60 185.21 153.67 184.81 150.80 184.19 C 151.18 183.75 151.94 182.85 152.32 182.40 C 152.70 182.35 153.46 182.25 153.84 182.20 Z" />
</g>
<g id="#6f6b75ff">
<path fill="#6f6b75" opacity="1.00" d=" M 213.05 180.83 L 213.64 180.46 C 213.61 181.03 213.54 182.16 213.51 182.72 C 213.36 185.30 212.88 187.85 212.76 190.44 C 212.63 192.87 213.64 195.15 214.43 197.39 C 210.56 194.97 206.73 192.41 203.49 189.17 C 206.11 185.79 209.37 182.99 213.05 180.83 Z" />
</g>
<g id="#2d4b54ff">
<path fill="#2d4b54" opacity="1.00" d=" M 173.93 183.25 C 175.29 183.01 176.65 182.73 177.99 182.39 C 177.76 182.81 177.30 183.65 177.06 184.07 C 176.37 185.47 175.69 186.88 174.99 188.28 C 176.13 188.12 177.28 187.92 178.42 187.72 C 179.48 192.05 177.01 196.15 176.97 200.47 C 176.21 200.33 174.70 200.05 173.95 199.91 C 174.12 194.35 174.05 188.80 173.93 183.25 Z" />
</g>
<g id="#3c7d8bff">
<path fill="#3c7d8b" opacity="1.00" d=" M 177.99 182.39 C 180.20 182.26 182.39 182.72 184.57 183.00 C 184.89 183.54 185.53 184.61 185.84 185.15 C 182.90 184.93 179.97 184.59 177.06 184.07 C 177.30 183.65 177.76 182.81 177.99 182.39 Z" />
</g>
<g id="#3c3b3efe">
<path fill="#3c3b3e" opacity="1.00" d=" M 150.80 184.19 C 153.67 184.81 156.60 185.21 159.54 185.07 C 159.36 186.04 159.19 187.01 159.02 187.99 C 157.45 187.93 155.88 187.96 154.31 187.92 C 154.47 189.32 154.61 190.73 154.76 192.13 C 154.32 192.11 153.44 192.08 153.01 192.06 C 151.96 190.51 151.03 188.89 150.10 187.27 C 149.74 189.19 149.43 191.14 148.75 192.98 C 146.15 193.81 143.47 192.63 140.91 192.18 C 140.11 193.71 139.17 195.21 138.74 196.91 C 140.45 200.23 144.47 200.67 147.67 201.67 C 147.73 201.26 147.85 200.44 147.91 200.03 C 150.03 201.87 152.29 203.53 154.66 205.05 C 154.24 205.21 153.40 205.53 152.98 205.69 C 152.62 206.20 151.90 207.21 151.54 207.72 C 150.40 210.30 147.40 209.41 145.57 208.24 C 146.27 206.81 146.98 205.39 147.69 203.97 C 144.85 203.89 142.02 203.81 139.19 203.74 L 139.09 202.92 C 139.54 202.92 140.45 202.92 140.90 202.92 C 139.46 201.81 138.01 200.71 136.56 199.61 C 136.74 196.86 136.78 194.06 135.99 191.39 C 138.89 190.41 141.90 189.85 144.88 189.18 C 146.45 188.02 147.99 186.81 149.45 185.51 L 149.91 185.10 C 150.13 184.88 150.58 184.42 150.80 184.19 Z" />
</g>
<g id="#686668ff">
<path fill="#686668" opacity="1.00" d=" M 159.54 185.07 C 160.09 184.96 161.17 184.74 161.71 184.63 C 162.00 187.28 162.32 189.92 162.68 192.56 C 160.04 192.38 157.40 192.25 154.76 192.13 C 154.61 190.73 154.47 189.32 154.31 187.92 C 155.88 187.96 157.45 187.93 159.02 187.99 C 159.19 187.01 159.36 186.04 159.54 185.07 Z" />
</g>
<g id="#27616dff">
<path fill="#27616d" opacity="1.00" d=" M 177.06 184.07 C 179.97 184.59 182.90 184.93 185.84 185.15 C 184.74 187.62 183.69 190.10 182.69 192.61 C 183.35 193.59 184.00 194.58 184.63 195.58 C 182.29 196.19 179.97 196.91 177.68 197.68 C 178.56 197.96 180.32 198.52 181.19 198.79 L 180.35 199.08 C 179.21 199.51 178.08 199.97 176.97 200.47 C 177.01 196.15 179.48 192.05 178.42 187.72 C 177.28 187.92 176.13 188.12 174.99 188.28 C 175.69 186.88 176.37 185.47 177.06 184.07 Z" />
</g>
<g id="#448595dd">
<path fill="#448595" opacity="0.87" d=" M 146.09 186.00 C 147.21 185.85 148.33 185.69 149.45 185.51 C 147.99 186.81 146.45 188.02 144.88 189.18 C 145.30 188.13 145.70 187.06 146.09 186.00 Z" />
</g>
<g id="#767375ff">
<path fill="#767375" opacity="1.00" d=" M 148.75 192.98 C 149.43 191.14 149.74 189.19 150.10 187.27 C 151.03 188.89 151.96 190.51 153.01 192.06 C 151.61 192.89 150.11 193.70 149.13 195.04 C 148.46 196.62 148.24 198.35 147.91 200.03 C 147.85 200.44 147.73 201.26 147.67 201.67 C 144.47 200.67 140.45 200.23 138.74 196.91 C 139.17 195.21 140.11 193.71 140.91 192.18 C 143.47 192.63 146.15 193.81 148.75 192.98 Z" />
</g>
<g id="#feffffff">
<path fill="#feffff" opacity="1.00" d=" M 214.87 188.60 C 218.48 189.35 217.46 193.93 216.92 196.56 C 216.46 196.72 215.55 197.02 215.09 197.17 C 214.85 194.32 214.77 191.46 214.87 188.60 Z" />
</g>
<g id="#3e3e44f8">
<path fill="#3e3e44" opacity="0.97" d=" M 235.46 189.95 C 236.38 192.29 237.35 194.92 236.31 197.38 C 234.98 199.84 232.97 201.83 231.15 203.93 C 232.91 204.21 234.89 204.19 236.27 205.52 C 234.95 205.68 233.64 205.84 232.33 205.99 C 232.75 207.45 233.14 208.94 233.56 210.41 C 233.69 210.81 233.95 211.62 234.08 212.02 C 232.61 212.03 231.14 212.09 229.68 212.17 C 229.58 209.90 229.48 207.62 229.15 205.36 L 228.19 205.25 C 227.32 205.21 225.57 205.11 224.69 205.06 C 224.55 204.04 224.43 203.00 224.68 202.00 C 225.68 200.50 227.60 200.13 229.24 199.74 C 230.36 199.60 231.14 199.03 231.57 198.04 C 232.93 195.37 234.21 192.67 235.46 189.95 Z" />
</g>
<g id="#555557ff">
<path fill="#555557" opacity="1.00" d=" M 129.50 191.40 C 131.09 191.16 132.68 190.96 134.26 190.65 C 134.12 191.14 133.83 192.12 133.68 192.61 C 133.31 193.55 132.92 194.48 132.52 195.40 C 132.73 196.36 132.95 197.33 133.17 198.29 C 133.32 199.08 133.49 199.86 133.66 200.64 C 132.35 200.60 131.05 200.50 129.76 200.38 C 129.64 197.38 129.59 194.39 129.50 191.40 Z" />
</g>
<g id="#445e67ff">
<path fill="#445e67" opacity="1.00" d=" M 134.26 190.65 C 134.69 190.83 135.56 191.21 135.99 191.39 C 136.78 194.06 136.74 196.86 136.56 199.61 C 135.60 199.97 134.63 200.31 133.66 200.64 C 133.49 199.86 133.32 199.08 133.17 198.29 C 133.27 196.39 133.42 194.49 133.68 192.61 C 133.83 192.12 134.12 191.14 134.26 190.65 Z" />
</g>
<g id="#50a1b4db">
<path fill="#50a1b4" opacity="0.86" d=" M 126.41 196.16 C 126.48 194.07 128.03 192.65 129.50 191.40 C 129.59 194.39 129.64 197.38 129.76 200.38 L 128.91 200.25 C 127.64 199.28 126.05 197.95 126.41 196.16 Z" />
</g>
<g id="#508593ff">
<path fill="#508593" opacity="1.00" d=" M 165.27 195.28 C 166.49 193.37 168.82 192.79 170.75 191.87 C 170.60 192.80 170.44 193.73 170.28 194.67 C 169.27 195.19 168.23 195.68 167.28 196.30 C 166.13 197.90 165.96 199.95 165.37 201.79 C 165.18 202.15 164.79 202.89 164.59 203.26 C 164.20 203.29 163.41 203.36 163.01 203.39 C 163.51 200.64 163.67 197.67 165.27 195.28 Z" />
</g>
<g id="#607b86ff">
<path fill="#607b86" opacity="1.00" d=" M 132.52 195.40 C 132.92 194.48 133.31 193.55 133.68 192.61 C 133.42 194.49 133.27 196.39 133.17 198.29 C 132.95 197.33 132.73 196.36 132.52 195.40 Z" />
</g>
<g id="#51575aff">
<path fill="#51575a" opacity="1.00" d=" M 167.28 196.30 C 168.23 195.68 169.27 195.19 170.28 194.67 C 169.97 196.14 169.70 197.63 169.11 199.02 C 168.34 200.49 166.51 200.71 165.37 201.79 C 165.96 199.95 166.13 197.90 167.28 196.30 Z" />
</g>
<g id="#337784ff">
<path fill="#337784" opacity="1.00" d=" M 177.68 197.68 C 179.97 196.91 182.29 196.19 184.63 195.58 C 184.95 196.09 185.61 197.12 185.93 197.63 C 184.35 198.01 182.77 198.40 181.19 198.79 C 180.32 198.52 178.56 197.96 177.68 197.68 Z" />
</g>
<g id="#5e99acff">
<path fill="#5e99ac" opacity="1.00" d=" M 229.27 197.54 C 229.85 197.67 231.00 197.91 231.57 198.04 C 231.14 199.03 230.36 199.60 229.24 199.74 C 229.25 199.19 229.26 198.09 229.27 197.54 Z" />
</g>
<g id="#1a2427d5">
<path fill="#1a2427" opacity="0.84" d=" M 133.66 200.64 C 134.63 200.31 135.60 199.97 136.56 199.61 C 138.01 200.71 139.46 201.81 140.90 202.92 C 140.45 202.92 139.54 202.92 139.09 202.92 C 135.48 203.17 131.92 202.25 128.91 200.25 L 129.76 200.38 C 131.05 200.50 132.35 200.60 133.66 200.64 Z" />
</g>
<g id="#93d7e2ff">
<path fill="#93d7e2" opacity="1.00" d=" M 213.75 199.17 C 215.04 199.19 216.34 199.22 217.64 199.23 C 217.82 201.35 218.03 203.48 218.20 205.62 C 217.75 206.19 216.84 207.34 216.39 207.91 C 216.12 208.21 215.56 208.82 215.29 209.12 C 214.81 209.50 213.85 210.25 213.37 210.63 C 212.33 210.20 211.28 209.79 210.22 209.43 C 210.55 208.64 210.88 207.86 211.20 207.07 C 212.24 204.50 213.01 201.84 213.75 199.17 M 214.23 200.01 C 213.79 202.81 213.39 205.62 213.19 208.45 C 214.07 207.88 214.95 207.31 215.83 206.74 C 216.94 205.06 217.00 202.93 217.46 201.02 C 216.38 200.68 215.30 200.34 214.23 200.01 Z" />
</g>
<g id="#f9ffffff">
<path fill="#f9ffff" opacity="1.00" d=" M 214.23 200.01 C 215.30 200.34 216.38 200.68 217.46 201.02 C 217.00 202.93 216.94 205.06 215.83 206.74 C 214.95 207.31 214.07 207.88 213.19 208.45 C 213.39 205.62 213.79 202.81 214.23 200.01 Z" />
</g>
<g id="#26adb0d4">
<path fill="#26adb0" opacity="0.83" d=" M 152.98 205.69 C 153.40 205.53 154.24 205.21 154.66 205.05 C 154.76 205.49 154.97 206.38 155.08 206.83 L 155.30 207.76 C 154.36 207.75 152.48 207.73 151.54 207.72 C 151.90 207.21 152.62 206.20 152.98 205.69 Z" />
</g>
<g id="#727276ff">
<path fill="#727276" opacity="1.00" d=" M 224.69 205.06 C 225.57 205.11 227.32 205.21 228.19 205.25 C 227.09 206.39 226.00 207.54 224.92 208.69 C 223.86 208.72 222.81 208.78 221.75 208.76 C 222.78 207.57 223.70 206.29 224.69 205.06 Z" />
</g>
<g id="#455460ff">
<path fill="#455460" opacity="1.00" d=" M 228.19 205.25 L 229.15 205.36 C 229.48 207.62 229.58 209.90 229.68 212.17 C 231.14 212.09 232.61 212.03 234.08 212.02 C 234.30 212.39 234.74 213.12 234.96 213.49 C 232.90 213.82 230.83 214.13 228.77 214.44 C 228.38 214.50 227.61 214.61 227.23 214.67 C 226.81 215.04 225.96 215.77 225.54 216.13 L 224.73 216.03 C 224.71 215.53 224.67 214.51 224.65 214.01 C 225.68 212.97 226.70 211.93 227.73 210.90 C 226.79 210.16 225.85 209.42 224.92 208.69 C 226.00 207.54 227.09 206.39 228.19 205.25 Z" />
</g>
<g id="#38434bff">
<path fill="#38434b" opacity="1.00" d=" M 216.39 207.91 C 216.84 207.34 217.75 206.19 218.20 205.62 C 219.21 206.56 220.24 207.49 221.29 208.40 C 220.25 208.83 219.20 209.26 218.19 209.78 C 217.74 209.31 216.84 208.38 216.39 207.91 Z" />
</g>
<g id="#6b6b6dfe">
<path fill="#6b6b6d" opacity="1.00" d=" M 232.33 205.99 C 233.64 205.84 234.95 205.68 236.27 205.52 C 235.89 206.79 235.49 208.05 235.05 209.30 C 234.67 209.58 233.93 210.13 233.56 210.41 C 233.14 208.94 232.75 207.45 232.33 205.99 Z" />
</g>
<g id="#5a6b75ff">
<path fill="#5a6b75" opacity="1.00" d=" M 202.42 207.13 C 203.24 205.94 205.40 207.25 204.23 208.42 C 203.40 209.61 201.25 208.30 202.42 207.13 Z" />
</g>
<g id="#475158ff">
<path fill="#475158" opacity="1.00" d=" M 241.07 207.21 C 244.67 207.23 246.61 210.48 248.46 213.07 C 247.41 214.10 246.44 215.20 245.46 216.30 C 242.85 214.31 240.76 211.48 241.11 208.04 L 241.07 207.21 Z" />
</g>
<g id="#181818ff">
<path fill="#181818" opacity="1.00" d=" M 168.83 211.63 C 174.68 208.60 181.47 209.26 187.84 209.08 C 187.22 212.78 186.32 216.43 185.02 219.95 C 183.59 220.24 182.17 220.54 180.75 220.84 C 183.00 221.29 185.24 221.74 187.49 222.22 C 189.66 223.12 191.74 224.30 194.04 224.84 C 195.81 224.90 197.60 224.10 198.79 222.81 C 199.90 220.95 200.28 218.77 200.86 216.72 C 203.28 216.26 205.75 216.06 208.20 215.85 C 207.49 215.11 206.77 214.38 206.05 213.65 C 204.40 213.36 202.75 213.06 201.10 212.76 C 201.37 212.44 201.92 211.81 202.19 211.50 C 206.01 211.57 209.83 211.43 213.65 211.26 C 213.86 211.79 214.26 212.83 214.47 213.35 C 216.35 213.79 218.23 214.21 220.12 214.64 C 219.60 216.04 219.10 217.46 218.46 218.81 C 214.13 218.61 209.80 219.04 205.52 219.66 C 205.42 222.45 205.31 225.23 205.24 228.02 C 208.61 226.25 211.95 224.40 215.05 222.19 C 214.80 222.67 214.30 223.63 214.05 224.12 L 213.67 224.88 C 210.33 229.01 205.42 231.35 201.02 234.17 C 201.36 233.30 201.70 232.44 202.03 231.57 C 196.74 232.94 191.30 232.16 186.08 230.87 C 186.74 231.77 187.40 232.66 188.05 233.56 C 187.66 235.53 187.27 237.51 186.84 239.47 C 185.89 236.71 185.14 233.88 184.86 230.97 C 184.46 228.47 184.37 225.54 182.40 223.69 C 179.75 221.90 176.50 221.09 174.12 218.89 C 171.86 216.87 170.35 214.21 168.83 211.63 Z" />
</g>
<g id="#4d6a7bff">
<path fill="#4d6a7b" opacity="1.00" d=" M 215.29 209.12 C 215.56 208.82 216.12 208.21 216.39 207.91 C 216.84 208.38 217.74 209.31 218.19 209.78 C 219.20 209.26 220.25 208.83 221.29 208.40 L 221.75 208.76 C 222.81 208.78 223.86 208.72 224.92 208.69 C 225.85 209.42 226.79 210.16 227.73 210.90 C 226.70 211.93 225.68 212.97 224.65 214.01 C 224.67 214.51 224.71 215.53 224.73 216.03 C 220.91 214.80 218.02 211.92 215.29 209.12 Z" />
</g>
<g id="#25292dff">
<path fill="#25292d" opacity="1.00" d=" M 235.05 209.30 C 237.04 208.75 239.09 208.47 241.11 208.04 C 240.76 211.48 242.85 214.31 245.46 216.30 L 246.18 216.79 C 243.51 216.51 240.84 216.22 238.18 215.89 C 235.03 215.44 231.90 214.91 228.77 214.44 C 230.83 214.13 232.90 213.82 234.96 213.49 C 234.74 213.12 234.30 212.39 234.08 212.02 C 233.95 211.62 233.69 210.81 233.56 210.41 C 233.93 210.13 234.67 209.58 235.05 209.30 Z" />
</g>
<g id="#757474ff">
<path fill="#757474" opacity="1.00" d=" M 213.37 210.63 C 213.85 210.25 214.81 209.50 215.29 209.12 C 218.02 211.92 220.91 214.80 224.73 216.03 L 225.54 216.13 C 224.68 217.22 223.97 218.44 222.97 219.41 C 221.61 220.03 220.12 220.24 218.68 220.58 C 218.67 224.53 221.31 227.47 223.80 230.22 C 221.97 229.10 219.90 228.23 218.46 226.60 C 217.50 224.76 217.13 222.69 216.60 220.70 C 217.06 220.23 217.99 219.28 218.46 218.81 C 219.10 217.46 219.60 216.04 220.12 214.64 C 218.23 214.21 216.35 213.79 214.47 213.35 C 214.26 212.83 213.86 211.79 213.65 211.26 L 213.37 210.63 Z" />
</g>
<g id="#335f6cd8">
<path fill="#335f6c" opacity="0.85" d=" M 166.37 209.69 C 167.56 209.47 169.12 210.19 168.83 211.63 C 167.77 213.09 165.22 211.06 166.37 209.69 Z" />
</g>
<g id="#b5b3b9f6">
<path fill="#b5b3b9" opacity="0.96" d=" M 248.46 213.07 C 248.86 212.98 249.67 212.80 250.08 212.71 C 249.73 214.16 249.39 215.61 249.04 217.06 C 248.32 216.99 246.90 216.86 246.18 216.79 L 245.46 216.30 C 246.44 215.20 247.41 214.10 248.46 213.07 Z" />
</g>
<g id="#1d1e2093">
<path fill="#1d1e20" opacity="0.58" d=" M 250.08 212.71 C 250.96 214.26 251.81 215.84 252.68 217.41 C 251.47 217.27 250.25 217.16 249.04 217.06 C 249.39 215.61 249.73 214.16 250.08 212.71 Z" />
</g>
<g id="#605e60ff">
<path fill="#605e60" opacity="1.00" d=" M 191.09 214.08 C 193.42 214.46 195.77 214.78 198.12 215.05 C 195.18 216.57 192.24 218.17 189.03 219.04 C 189.71 217.38 190.40 215.73 191.09 214.08 Z" />
</g>
<g id="#5195a7ff">
<path fill="#5195a7" opacity="1.00" d=" M 198.12 215.05 C 200.75 214.52 203.40 214.08 206.05 213.65 C 206.77 214.38 207.49 215.11 208.20 215.85 C 205.75 216.06 203.28 216.26 200.86 216.72 C 196.18 217.96 191.87 220.22 187.49 222.22 C 185.24 221.74 183.00 221.29 180.75 220.84 C 182.17 220.54 183.59 220.24 185.02 219.95 C 186.36 219.66 187.70 219.37 189.03 219.04 C 192.24 218.17 195.18 216.57 198.12 215.05 Z" />
</g>
<g id="#2a2e33ff">
<path fill="#2a2e33" opacity="1.00" d=" M 225.54 216.13 C 225.96 215.77 226.81 215.04 227.23 214.67 C 229.28 216.80 231.27 218.98 233.24 221.18 C 233.43 224.13 233.77 227.09 233.54 230.05 C 233.29 232.93 231.83 235.49 230.85 238.16 C 228.26 236.81 228.99 232.94 226.48 231.62 C 224.35 231.18 222.17 231.68 220.04 231.86 C 221.30 231.32 222.54 230.76 223.80 230.22 C 221.31 227.47 218.67 224.53 218.68 220.58 C 220.12 220.24 221.61 220.03 222.97 219.41 C 223.97 218.44 224.68 217.22 225.54 216.13 M 221.09 224.79 C 223.08 226.89 225.30 229.84 228.61 228.66 C 228.30 229.79 227.98 230.92 227.66 232.05 C 229.00 231.62 230.32 231.16 231.66 230.72 C 231.69 230.09 231.75 228.82 231.78 228.19 L 231.02 228.32 C 228.94 225.88 226.54 223.74 223.95 221.85 C 222.99 222.83 222.02 223.79 221.09 224.79 Z" />
</g>
<g id="#3b6b81ff">
<path fill="#3b6b81" opacity="1.00" d=" M 227.23 214.67 C 227.61 214.61 228.38 214.50 228.77 214.44 C 231.90 214.91 235.03 215.44 238.18 215.89 L 238.64 216.41 C 236.84 218.00 235.05 219.60 233.24 221.18 C 231.27 218.98 229.28 216.80 227.23 214.67 Z" />
</g>
<g id="#4f535afd">
<path fill="#4f535a" opacity="1.00" d=" M 238.18 215.89 C 240.84 216.22 243.51 216.51 246.18 216.79 C 246.90 216.86 248.32 216.99 249.04 217.06 C 250.25 217.16 251.47 217.27 252.68 217.41 C 253.29 217.63 254.51 218.07 255.12 218.29 L 254.70 218.91 C 251.35 219.04 248.01 218.67 244.66 218.71 C 243.38 218.96 242.11 219.27 240.86 219.64 C 239.35 220.57 237.84 221.54 236.46 222.66 L 235.85 223.25 C 237.04 221.34 238.39 219.53 239.75 217.74 C 239.48 217.41 238.92 216.75 238.64 216.41 L 238.18 215.89 Z" />
</g>
<g id="#4a494aff">
<path fill="#4a494a" opacity="1.00" d=" M 187.49 222.22 C 191.87 220.22 196.18 217.96 200.86 216.72 C 200.28 218.77 199.90 220.95 198.79 222.81 C 197.60 224.10 195.81 224.90 194.04 224.84 C 191.74 224.30 189.66 223.12 187.49 222.22 Z" />
</g>
<g id="#67676eff">
<path fill="#67676e" opacity="1.00" d=" M 238.64 216.41 C 238.92 216.75 239.48 217.41 239.75 217.74 C 238.39 219.53 237.04 221.34 235.85 223.25 C 234.95 226.44 237.28 229.05 239.30 231.17 C 237.34 233.99 235.08 236.58 232.51 238.85 L 231.81 239.50 C 231.57 239.17 231.09 238.49 230.85 238.16 C 231.83 235.49 233.29 232.93 233.54 230.05 C 233.77 227.09 233.43 224.13 233.24 221.18 C 235.05 219.60 236.84 218.00 238.64 216.41 Z" />
</g>
<g id="#68686fff">
<path fill="#68686f" opacity="1.00" d=" M 244.66 218.71 C 248.01 218.67 251.35 219.04 254.70 218.91 C 254.05 219.91 253.42 220.93 252.80 221.94 C 251.54 222.31 250.29 222.72 249.05 223.13 C 247.56 221.68 246.11 220.19 244.66 218.71 Z" />
</g>
<g id="#262629a9">
<path fill="#262629" opacity="0.66" d=" M 255.12 218.29 C 256.62 219.53 257.96 220.95 259.51 222.15 C 257.28 221.90 255.03 221.78 252.80 221.94 C 253.42 220.93 254.05 219.91 254.70 218.91 L 255.12 218.29 Z" />
</g>
<g id="#1a1b1eff">
<path fill="#1a1b1e" opacity="1.00" d=" M 240.86 219.64 C 242.11 219.27 243.38 218.96 244.66 218.71 C 246.11 220.19 247.56 221.68 249.05 223.13 C 250.88 224.92 253.08 226.30 255.44 227.29 C 257.03 227.42 258.63 227.49 260.23 227.31 C 261.12 226.38 261.72 225.22 262.42 224.15 C 263.85 225.69 265.45 227.08 267.04 228.46 C 265.53 229.39 263.99 230.27 262.53 231.28 L 262.49 231.94 C 262.46 233.25 262.48 234.57 262.50 235.89 C 261.19 235.90 259.88 235.92 258.58 235.99 C 256.64 233.53 254.56 231.15 252.16 229.13 C 248.86 226.34 245.49 223.64 242.21 220.85 C 241.87 220.55 241.20 219.94 240.86 219.64 Z" />
</g>
<g id="#38657bff">
<path fill="#38657b" opacity="1.00" d=" M 236.46 222.66 C 237.84 221.54 239.35 220.57 240.86 219.64 C 241.20 219.94 241.87 220.55 242.21 220.85 C 241.85 222.78 241.41 224.70 240.97 226.62 C 239.50 225.27 237.98 223.96 236.46 222.66 Z" />
</g>
<g id="#3f4547fd">
<path fill="#3f4547" opacity="1.00" d=" M 215.05 222.19 C 215.44 221.82 216.21 221.07 216.60 220.70 C 217.13 222.69 217.50 224.76 218.46 226.60 C 219.90 228.23 221.97 229.10 223.80 230.22 C 222.54 230.76 221.30 231.32 220.04 231.86 L 219.38 232.12 C 219.09 231.95 218.51 231.61 218.22 231.44 C 217.32 228.75 216.01 226.20 214.05 224.12 C 214.30 223.63 214.80 222.67 215.05 222.19 Z" />
</g>
<g id="#2f5063ff">
<path fill="#2f5063" opacity="1.00" d=" M 242.21 220.85 C 245.49 223.64 248.86 226.34 252.16 229.13 C 250.97 231.08 249.14 232.45 246.85 232.80 C 244.91 230.72 243.04 228.57 240.97 226.62 C 241.41 224.70 241.85 222.78 242.21 220.85 Z" />
</g>
<g id="#35363bff">
<path fill="#35363b" opacity="1.00" d=" M 252.80 221.94 C 255.03 221.78 257.28 221.90 259.51 222.15 C 259.96 222.60 260.88 223.50 261.34 223.95 C 260.08 224.02 258.82 224.10 257.56 224.21 C 256.85 225.23 256.15 226.26 255.44 227.29 C 253.08 226.30 250.88 224.92 249.05 223.13 C 250.29 222.72 251.54 222.31 252.80 221.94 Z" />
</g>
<g id="#50727fff">
<path fill="#50727f" opacity="1.00" d=" M 221.09 224.79 C 222.02 223.79 222.99 222.83 223.95 221.85 C 226.54 223.74 228.94 225.88 231.02 228.32 C 230.42 228.41 229.22 228.58 228.61 228.66 C 225.30 229.84 223.08 226.89 221.09 224.79 Z" />
</g>
<g id="#1f2024ff">
<path fill="#1f2024" opacity="1.00" d=" M 235.85 223.25 L 236.46 222.66 C 237.98 223.96 239.50 225.27 240.97 226.62 C 243.04 228.57 244.91 230.72 246.85 232.80 C 249.21 235.26 251.91 237.36 254.69 239.34 C 254.71 240.99 254.73 242.66 254.69 244.32 L 254.54 245.31 C 253.20 244.25 251.78 243.29 250.39 242.30 C 250.30 244.60 250.48 246.97 249.77 249.20 C 248.98 251.32 247.70 253.21 246.56 255.16 C 246.14 254.10 245.71 253.06 245.28 252.02 C 246.31 249.65 247.21 247.23 247.96 244.75 C 245.22 245.44 242.95 247.09 241.03 249.11 C 239.41 247.21 237.58 245.49 235.61 243.96 C 237.33 243.62 239.19 243.52 240.68 242.49 C 241.26 241.20 241.35 239.76 241.52 238.39 C 241.98 235.72 241.51 232.95 239.30 231.17 C 237.28 229.05 234.95 226.44 235.85 223.25 Z" />
</g>
<g id="#4a7f8dff">
<path fill="#4a7f8d" opacity="1.00" d=" M 214.05 224.12 C 216.01 226.20 217.32 228.75 218.22 231.44 L 217.49 230.99 C 215.55 229.44 214.41 227.20 213.67 224.88 L 214.05 224.12 Z" />
</g>
<g id="#6f7077ff">
<path fill="#6f7077" opacity="1.00" d=" M 257.56 224.21 C 258.82 224.10 260.08 224.02 261.34 223.95 L 262.42 224.15 C 261.72 225.22 261.12 226.38 260.23 227.31 C 258.63 227.49 257.03 227.42 255.44 227.29 C 256.15 226.26 256.85 225.23 257.56 224.21 Z" />
</g>
<g id="#353435ff">
<path fill="#353435" opacity="1.00" d=" M 201.02 234.17 C 205.42 231.35 210.33 229.01 213.67 224.88 C 214.41 227.20 215.55 229.44 217.49 230.99 C 213.51 233.07 209.25 235.54 207.96 240.19 C 205.71 238.38 203.37 236.69 201.08 234.95 L 201.02 234.17 Z" />
</g>
<g id="#c1bec4ff">
<path fill="#c1bec4" opacity="1.00" d=" M 228.61 228.66 C 229.22 228.58 230.42 228.41 231.02 228.32 L 231.78 228.19 C 231.75 228.82 231.69 230.09 231.66 230.72 C 230.32 231.16 229.00 231.62 227.66 232.05 C 227.98 230.92 228.30 229.79 228.61 228.66 Z" />
</g>
<g id="#263742ff">
<path fill="#263742" opacity="1.00" d=" M 252.16 229.13 C 254.56 231.15 256.64 233.53 258.58 235.99 C 258.32 236.31 257.80 236.95 257.55 237.26 C 256.44 239.55 255.49 241.91 254.69 244.32 C 254.73 242.66 254.71 240.99 254.69 239.34 C 251.91 237.36 249.21 235.26 246.85 232.80 C 249.14 232.45 250.97 231.08 252.16 229.13 Z" />
</g>
<g id="#737279fb">
<path fill="#737279" opacity="1.00" d=" M 262.53 231.28 C 263.99 230.27 265.53 229.39 267.04 228.46 C 267.51 228.87 268.45 229.70 268.91 230.12 C 267.76 231.15 266.62 232.20 265.47 233.25 C 264.49 232.78 263.49 232.36 262.49 231.94 L 262.53 231.28 Z" />
</g>
<g id="#171719f1">
<path fill="#171719" opacity="0.95" d=" M 268.91 230.12 C 270.28 231.07 271.41 232.28 272.93 232.99 C 271.18 233.84 269.34 234.45 267.59 235.25 C 266.90 234.56 266.20 233.89 265.47 233.25 C 266.62 232.20 267.76 231.15 268.91 230.12 Z" />
</g>
<g id="#2e5e6bff">
<path fill="#2e5e6b" opacity="1.00" d=" M 186.08 230.87 C 191.30 232.16 196.74 232.94 202.03 231.57 C 201.70 232.44 201.36 233.30 201.02 234.17 C 196.69 234.35 192.35 234.15 188.05 233.56 C 187.40 232.66 186.74 231.77 186.08 230.87 Z" />
</g>
<g id="#252526fe">
<path fill="#252526" opacity="1.00" d=" M 207.96 240.19 C 209.25 235.54 213.51 233.07 217.49 230.99 L 218.22 231.44 C 218.51 231.61 219.09 231.95 219.38 232.12 C 216.77 234.79 214.52 238.27 210.97 239.71 C 210.22 239.83 208.71 240.07 207.96 240.19 Z" />
</g>
<g id="#34353aff">
<path fill="#34353a" opacity="1.00" d=" M 239.30 231.17 C 241.51 232.95 241.98 235.72 241.52 238.39 C 239.33 239.58 237.01 240.90 236.05 243.35 C 234.84 241.87 233.66 240.37 232.51 238.85 C 235.08 236.58 237.34 233.99 239.30 231.17 Z" />
</g>
<g id="#3a3b40ff">
<path fill="#3a3b40" opacity="1.00" d=" M 262.49 231.94 C 263.49 232.36 264.49 232.78 265.47 233.25 C 266.20 233.89 266.90 234.56 267.59 235.25 C 268.37 236.10 269.12 236.97 269.88 237.85 C 270.86 239.01 271.86 240.16 272.86 241.32 C 273.23 241.59 273.97 242.13 274.34 242.40 C 273.46 243.15 272.58 243.89 271.70 244.63 C 270.00 241.89 268.43 238.86 265.71 237.00 C 263.02 236.33 260.24 236.99 257.55 237.26 C 257.80 236.95 258.32 236.31 258.58 235.99 C 259.88 235.92 261.19 235.90 262.50 235.89 C 262.48 234.57 262.46 233.25 262.49 231.94 Z" />
</g>
<g id="#212021ff">
<path fill="#212021" opacity="1.00" d=" M 188.05 233.56 C 192.35 234.15 196.69 234.35 201.02 234.17 L 201.08 234.95 C 201.10 235.39 201.14 236.27 201.16 236.70 C 200.27 237.79 199.41 238.89 198.50 239.96 C 194.62 240.62 190.64 240.56 186.84 239.47 C 187.27 237.51 187.66 235.53 188.05 233.56 Z" />
</g>
<g id="#4d4c50fd">
<path fill="#4d4c50" opacity="1.00" d=" M 267.59 235.25 C 269.34 234.45 271.18 233.84 272.93 232.99 C 273.28 233.43 273.98 234.31 274.33 234.75 C 272.85 235.79 271.36 236.81 269.88 237.85 C 269.12 236.97 268.37 236.10 267.59 235.25 Z" />
</g>
<g id="#5fa7baff">
<path fill="#5fa7ba" opacity="1.00" d=" M 201.08 234.95 C 203.37 236.69 205.71 238.38 207.96 240.19 C 207.48 240.56 206.52 241.30 206.03 241.67 C 204.30 240.13 202.56 238.56 201.16 236.70 C 201.14 236.27 201.10 235.39 201.08 234.95 Z" />
</g>
<g id="#717075fa">
<path fill="#717075" opacity="0.98" d=" M 274.33 234.75 C 274.77 234.97 275.63 235.41 276.06 235.63 C 274.63 238.40 275.68 241.33 276.56 244.08 L 276.64 244.71 C 276.05 246.34 275.26 247.89 274.34 249.34 C 273.47 247.76 272.59 246.19 271.70 244.63 C 272.58 243.89 273.46 243.15 274.34 242.40 C 274.57 242.04 275.03 241.31 275.26 240.95 L 274.83 240.19 L 273.98 240.00 C 273.70 240.33 273.14 240.99 272.86 241.32 C 271.86 240.16 270.86 239.01 269.88 237.85 C 271.36 236.81 272.85 235.79 274.33 234.75 Z" />
</g>
<g id="#25242696">
<path fill="#252426" opacity="0.59" d=" M 276.06 235.63 C 276.91 238.37 276.92 241.26 276.56 244.08 C 275.68 241.33 274.63 238.40 276.06 235.63 Z" />
</g>
<g id="#514f51ff">
<path fill="#514f51" opacity="1.00" d=" M 201.16 236.70 C 202.56 238.56 204.30 240.13 206.03 241.67 C 204.98 242.75 204.02 243.91 202.99 245.00 C 201.40 245.76 199.63 245.45 198.01 245.00 C 196.96 244.27 195.93 243.51 194.92 242.74 C 196.22 241.96 197.49 241.11 198.50 239.96 C 199.41 238.89 200.27 237.79 201.16 236.70 Z" />
</g>
<g id="#515053ff">
<path fill="#515053" opacity="1.00" d=" M 257.55 237.26 C 260.24 236.99 263.02 236.33 265.71 237.00 C 268.43 238.86 270.00 241.89 271.70 244.63 C 272.59 246.19 273.47 247.76 274.34 249.34 C 272.29 251.13 270.21 252.98 267.73 254.15 C 265.28 254.68 262.76 254.24 260.29 254.04 C 258.38 251.12 256.61 248.11 254.54 245.31 L 254.69 244.32 C 255.49 241.91 256.44 239.55 257.55 237.26 M 260.36 242.30 C 259.29 243.67 261.69 245.07 262.55 243.68 C 263.61 242.30 261.21 240.91 260.36 242.30 M 263.33 245.28 L 263.33 245.73 L 263.78 245.73 L 263.78 245.28 L 263.33 245.28 M 265.18 250.07 C 265.54 250.96 265.90 251.84 266.28 252.73 C 266.92 252.73 268.19 252.74 268.83 252.75 C 269.18 251.61 269.55 250.47 269.89 249.33 C 269.39 249.03 268.38 248.43 267.88 248.13 C 266.79 246.87 264.26 248.64 265.18 250.07 Z" />
</g>
<g id="#4a8291f7">
<path fill="#4a8291" opacity="0.97" d=" M 186.84 239.47 C 190.64 240.56 194.62 240.62 198.50 239.96 C 197.49 241.11 196.22 241.96 194.92 242.74 C 193.30 242.94 191.68 243.11 190.07 243.28 C 189.02 241.98 187.96 240.70 186.84 239.47 Z" />
</g>
<g id="#74747bfe">
<path fill="#74747b" opacity="1.00" d=" M 236.05 243.35 C 237.01 240.90 239.33 239.58 241.52 238.39 C 241.35 239.76 241.26 241.20 240.68 242.49 C 239.19 243.52 237.33 243.62 235.61 243.96 L 236.05 243.35 Z" />
</g>
<g id="#3b5961e8">
<path fill="#3b5961" opacity="0.91" d=" M 207.96 240.19 C 208.71 240.07 210.22 239.83 210.97 239.71 C 209.77 242.28 206.91 243.34 204.48 244.43 C 204.11 244.57 203.36 244.86 202.99 245.00 C 204.02 243.91 204.98 242.75 206.03 241.67 C 206.52 241.30 207.48 240.56 207.96 240.19 Z" />
</g>
<g id="#2c2b2dab">
<path fill="#2c2b2d" opacity="0.67" d=" M 272.86 241.32 C 273.14 240.99 273.70 240.33 273.98 240.00 L 274.83 240.19 L 275.26 240.95 C 275.03 241.31 274.57 242.04 274.34 242.40 C 273.97 242.13 273.23 241.59 272.86 241.32 Z" />
</g>
<g id="#3a3a40ff">
<path fill="#3a3a40" opacity="1.00" d=" M 250.39 242.30 C 251.78 243.29 253.20 244.25 254.54 245.31 C 256.61 248.11 258.38 251.12 260.29 254.04 C 259.73 255.40 259.17 256.76 258.61 258.12 C 257.35 256.74 256.07 255.37 254.90 253.91 C 253.97 252.69 253.13 251.41 252.28 250.14 C 251.06 252.37 249.85 254.60 248.69 256.86 C 250.08 256.62 251.47 256.37 252.86 256.12 C 252.74 256.77 252.48 258.06 252.35 258.71 C 251.35 258.64 250.36 258.54 249.37 258.41 C 248.18 257.57 247.45 256.26 246.56 255.16 C 247.70 253.21 248.98 251.32 249.77 249.20 C 250.48 246.97 250.30 244.60 250.39 242.30 Z" />
</g>
<g id="#817b7fff">
<path fill="#817b7f" opacity="1.00" d=" M 260.36 242.30 C 261.21 240.91 263.61 242.30 262.55 243.68 C 261.69 245.07 259.29 243.67 260.36 242.30 Z" />
</g>
<g id="#3a393afe">
<path fill="#3a393a" opacity="1.00" d=" M 190.07 243.28 C 191.68 243.11 193.30 242.94 194.92 242.74 C 195.93 243.51 196.96 244.27 198.01 245.00 C 196.17 245.69 194.33 246.38 192.52 247.13 C 191.99 246.75 190.93 245.99 190.40 245.61 C 190.32 245.03 190.15 243.86 190.07 243.28 Z" />
</g>
<g id="#191819c7">
<path fill="#191819" opacity="0.78" d=" M 192.52 247.13 C 194.33 246.38 196.17 245.69 198.01 245.00 C 199.63 245.45 201.40 245.76 202.99 245.00 C 203.36 244.86 204.11 244.57 204.48 244.43 C 201.98 248.82 196.04 248.20 191.78 247.42 L 192.52 247.13 Z" />
</g>
<g id="#717176ff">
<path fill="#717176" opacity="1.00" d=" M 241.03 249.11 C 242.95 247.09 245.22 245.44 247.96 244.75 C 247.21 247.23 246.31 249.65 245.28 252.02 C 243.57 251.49 242.15 250.49 241.03 249.11 Z" />
</g>
<g id="#acaaacff">
<path fill="#acaaac" opacity="1.00" d=" M 263.33 245.28 L 263.78 245.28 L 263.78 245.73 L 263.33 245.73 L 263.33 245.28 Z" />
</g>
<g id="#64656bff">
<path fill="#64656b" opacity="1.00" d=" M 274.34 249.34 C 275.26 247.89 276.05 246.34 276.64 244.71 C 277.38 244.98 278.86 245.51 279.60 245.77 C 279.66 248.54 279.60 251.30 279.43 254.07 C 276.46 253.86 272.82 251.88 270.29 254.27 C 268.16 255.79 268.93 258.58 268.85 260.79 C 270.44 260.81 272.04 260.84 273.63 260.87 C 274.25 261.69 274.87 262.53 275.48 263.36 C 275.81 263.60 276.48 264.08 276.82 264.32 L 277.63 263.93 C 277.75 263.52 277.99 262.69 278.11 262.28 C 278.22 261.21 278.36 260.14 278.53 259.08 L 278.63 260.03 C 278.82 261.82 279.02 263.61 279.18 265.41 C 275.91 265.49 273.03 263.87 269.94 263.11 C 266.70 263.14 263.57 264.08 260.41 264.71 C 258.49 262.45 256.48 260.27 254.32 258.24 L 253.58 257.54 C 254.06 256.34 254.48 255.13 254.90 253.91 C 256.07 255.37 257.35 256.74 258.61 258.12 C 259.17 256.76 259.73 255.40 260.29 254.04 C 262.76 254.24 265.28 254.68 267.73 254.15 C 270.21 252.98 272.29 251.13 274.34 249.34 Z" />
</g>
<g id="#4c4c4dff">
<path fill="#4c4c4d" opacity="1.00" d=" M 279.60 245.77 C 281.40 249.93 280.94 254.58 280.01 258.89 C 279.67 258.75 278.99 258.46 278.65 258.31 C 278.25 258.14 277.44 257.79 277.03 257.61 C 275.90 258.70 274.76 259.78 273.63 260.87 C 272.04 260.84 270.44 260.81 268.85 260.79 C 268.93 258.58 268.16 255.79 270.29 254.27 C 272.82 251.88 276.46 253.86 279.43 254.07 C 279.60 251.30 279.66 248.54 279.60 245.77 Z" />
</g>
<g id="#807a82ff">
<path fill="#807a82" opacity="1.00" d=" M 265.18 250.07 C 264.26 248.64 266.79 246.87 267.88 248.13 C 267.91 249.49 266.46 250.50 265.18 250.07 Z" />
</g>
<g id="#5c5a60ff">
<path fill="#5c5a60" opacity="1.00" d=" M 267.88 248.13 C 268.38 248.43 269.39 249.03 269.89 249.33 C 269.55 250.47 269.18 251.61 268.83 252.75 C 268.19 252.74 266.92 252.73 266.28 252.73 C 265.90 251.84 265.54 250.96 265.18 250.07 C 266.46 250.50 267.91 249.49 267.88 248.13 Z" />
</g>
<g id="#828187fe">
<path fill="#828187" opacity="1.00" d=" M 252.28 250.14 C 253.13 251.41 253.97 252.69 254.90 253.91 C 254.48 255.13 254.06 256.34 253.58 257.54 C 253.27 257.83 252.66 258.42 252.35 258.71 C 252.48 258.06 252.74 256.77 252.86 256.12 C 251.47 256.37 250.08 256.62 248.69 256.86 C 249.85 254.60 251.06 252.37 252.28 250.14 Z" />
</g>
<g id="#7e7c81ff">
<path fill="#7e7c81" opacity="1.00" d=" M 277.03 257.61 C 277.44 257.79 278.25 258.14 278.65 258.31 L 278.53 259.08 C 278.36 260.14 278.22 261.21 278.11 262.28 C 277.61 262.35 276.61 262.50 276.11 262.57 L 275.48 263.36 C 274.87 262.53 274.25 261.69 273.63 260.87 C 274.76 259.78 275.90 258.70 277.03 257.61 Z" />
</g>
<g id="#4b4c54fd">
<path fill="#4b4c54" opacity="1.00" d=" M 254.32 258.24 C 256.48 260.27 258.49 262.45 260.41 264.71 C 263.57 264.08 266.70 263.14 269.94 263.11 C 273.03 263.87 275.91 265.49 279.18 265.41 C 279.02 263.61 278.82 261.82 278.63 260.03 C 279.20 260.42 280.35 261.20 280.93 261.59 C 280.31 263.33 279.99 265.34 278.50 266.60 C 276.34 266.93 274.28 265.97 272.24 265.42 C 268.29 267.45 263.57 266.96 259.59 265.27 C 256.85 263.86 255.61 260.86 254.32 258.24 Z" />
</g>
<g id="#404142fe">
<path fill="#404142" opacity="1.00" d=" M 276.11 262.57 C 276.61 262.50 277.61 262.35 278.11 262.28 C 277.99 262.69 277.75 263.52 277.63 263.93 L 276.82 264.32 C 276.48 264.08 275.81 263.60 275.48 263.36 L 276.11 262.57 Z" />
</g>
</svg>
