<?xml version="1.0" encoding="UTF-8" ?>
<!DOCTYPE svg PUBLIC "-//W3C//DTD SVG 1.1//EN" "http://www.w3.org/Graphics/SVG/1.1/DTD/svg11.dtd">
<svg width="384pt" height="384pt" viewBox="0 0 384 384" version="1.1" xmlns="http://www.w3.org/2000/svg">
<g id="#191b1db5">
<path fill="#191b1d" opacity="0.71" d=" M 148.52 136.73 C 153.61 135.44 158.97 136.30 163.74 138.35 C 169.48 140.73 175.66 141.68 181.52 143.67 C 183.62 144.31 185.75 145.15 187.99 144.99 C 190.38 144.86 192.84 144.64 195.13 145.55 C 193.88 145.75 192.63 145.93 191.38 146.11 C 190.92 146.17 190.00 146.29 189.54 146.35 C 183.42 145.41 177.49 143.53 171.40 142.44 C 170.43 142.11 169.47 141.76 168.52 141.39 C 166.05 140.42 163.58 139.41 161.03 138.65 C 156.75 137.56 152.27 137.26 147.87 137.78 C 144.11 140.62 143.42 145.44 143.84 149.84 C 143.44 149.74 142.64 149.55 142.25 149.45 C 140.19 144.52 143.05 137.75 148.52 136.73 Z" />
</g>
<g id="#4a494aff">
<path fill="#4a494a" opacity="1.00" d=" M 147.87 137.78 C 152.27 137.26 156.75 137.56 161.03 138.65 C 160.27 139.55 159.52 140.45 158.76 141.36 C 154.25 142.39 150.07 144.92 148.07 149.24 C 147.12 148.08 146.18 146.93 145.24 145.77 C 146.13 143.11 147.02 140.45 147.87 137.78 Z" />
</g>
<g id="#3c3b3dfe">
<path fill="#3c3b3d" opacity="1.00" d=" M 143.84 149.84 C 143.42 145.44 144.11 140.62 147.87 137.78 C 147.02 140.45 146.13 143.11 145.24 145.77 C 146.18 146.93 147.12 148.08 148.07 149.24 C 147.66 150.63 147.30 152.03 146.93 153.44 C 145.83 152.31 144.62 151.23 143.84 149.84 Z" />
</g>
<g id="#69686aff">
<path fill="#69686a" opacity="1.00" d=" M 158.76 141.36 C 159.52 140.45 160.27 139.55 161.03 138.65 C 163.58 139.41 166.05 140.42 168.52 141.39 C 168.73 143.00 168.93 144.61 169.14 146.22 C 167.13 145.37 165.18 144.41 163.19 143.52 C 161.70 142.82 160.23 142.09 158.76 141.36 Z" />
</g>
<g id="#6dc3d9ff">
<path fill="#6dc3d9" opacity="1.00" d=" M 168.52 141.39 C 169.47 141.76 170.43 142.11 171.40 142.44 C 170.65 143.70 169.90 144.97 169.14 146.22 C 168.93 144.61 168.73 143.00 168.52 141.39 Z" />
</g>
<g id="#528d9df7">
<path fill="#528d9d" opacity="0.97" d=" M 148.07 149.24 C 150.07 144.92 154.25 142.39 158.76 141.36 C 160.23 142.09 161.70 142.82 163.19 143.52 C 158.81 143.44 153.92 144.45 151.27 148.29 C 149.24 150.40 150.34 153.37 150.76 155.86 C 149.50 155.02 148.23 154.21 146.93 153.44 C 147.30 152.03 147.66 150.63 148.07 149.24 Z" />
</g>
<g id="#414041ff">
<path fill="#414041" opacity="1.00" d=" M 171.40 142.44 C 177.49 143.53 183.42 145.41 189.54 146.35 C 188.65 147.17 187.79 148.03 186.93 148.90 C 185.11 148.37 183.24 147.99 181.37 147.75 C 180.01 147.65 178.65 147.62 177.30 147.55 C 174.55 147.37 171.80 146.97 169.14 146.22 C 169.90 144.97 170.65 143.70 171.40 142.44 Z" />
</g>
<g id="#333233ff">
<path fill="#333233" opacity="1.00" d=" M 151.27 148.29 C 153.92 144.45 158.81 143.44 163.19 143.52 C 165.18 144.41 167.13 145.37 169.14 146.22 C 171.80 146.97 174.55 147.37 177.30 147.55 C 174.93 149.75 172.39 151.85 170.53 154.52 C 168.65 157.20 167.69 160.36 166.70 163.44 C 161.00 161.79 155.95 158.64 150.76 155.86 C 150.34 153.37 149.24 150.40 151.27 148.29 Z" />
</g>
<g id="#1d1d1dfc">
<path fill="#1d1d1d" opacity="1.00" d=" M 195.55 147.38 C 200.25 146.66 204.94 145.47 209.72 145.46 C 212.10 145.60 212.95 148.17 214.02 149.89 C 208.38 149.15 202.64 148.96 197.02 150.00 C 196.55 149.11 196.06 148.24 195.55 147.38 Z" />
</g>
<g id="#53737dff">
<path fill="#53737d" opacity="1.00" d=" M 189.54 146.35 C 190.00 146.29 190.92 146.17 191.38 146.11 C 191.51 147.59 191.63 149.08 191.69 150.57 C 191.35 150.66 190.66 150.85 190.31 150.95 C 189.19 150.25 188.07 149.55 186.93 148.90 C 187.79 148.03 188.65 147.17 189.54 146.35 Z" />
</g>
<g id="#565656ff">
<path fill="#565656" opacity="1.00" d=" M 191.38 146.11 C 192.63 145.93 193.88 145.75 195.13 145.55 L 195.12 146.67 C 195.07 149.77 195.25 152.87 195.48 155.97 L 194.85 156.61 C 193.39 154.68 191.94 152.74 190.31 150.95 C 190.66 150.85 191.35 150.66 191.69 150.57 C 191.63 149.08 191.51 147.59 191.38 146.11 Z" />
</g>
<g id="#4c93a5ff">
<path fill="#4c93a5" opacity="1.00" d=" M 177.30 147.55 C 178.65 147.62 180.01 147.65 181.37 147.75 C 178.84 149.36 176.25 150.98 174.23 153.23 C 171.93 155.77 170.51 158.94 169.15 162.05 C 168.54 162.39 167.31 163.09 166.70 163.44 C 167.69 160.36 168.65 157.20 170.53 154.52 C 172.39 151.85 174.93 149.75 177.30 147.55 Z" />
</g>
<g id="#567e8bff">
<path fill="#567e8b" opacity="1.00" d=" M 195.12 146.67 L 195.55 147.38 C 196.06 148.24 196.55 149.11 197.02 150.00 C 196.81 151.79 196.48 153.56 196.11 155.32 L 195.48 155.97 C 195.25 152.87 195.07 149.77 195.12 146.67 Z" />
</g>
<g id="#201f20ff">
<path fill="#201f20" opacity="1.00" d=" M 181.37 147.75 C 183.24 147.99 185.11 148.37 186.93 148.90 C 188.07 149.55 189.19 150.25 190.31 150.95 C 191.94 152.74 193.39 154.68 194.85 156.61 C 191.40 159.27 187.39 156.47 183.60 156.66 C 181.61 157.49 180.54 159.62 179.03 161.08 C 177.17 162.25 175.27 163.34 173.37 164.41 C 171.80 164.31 170.24 164.15 168.68 163.95 C 168.80 163.47 169.04 162.52 169.15 162.05 C 170.51 158.94 171.93 155.77 174.23 153.23 C 176.25 150.98 178.84 149.36 181.37 147.75 Z" />
</g>
<g id="#48484eff">
<path fill="#48484e" opacity="1.00" d=" M 197.02 150.00 C 202.64 148.96 208.38 149.15 214.02 149.89 C 214.24 150.44 214.68 151.53 214.90 152.07 C 214.48 151.94 213.65 151.68 213.23 151.55 C 211.91 151.17 210.59 150.69 209.21 150.61 C 208.09 151.10 207.07 151.78 206.03 152.40 C 208.41 154.67 210.70 157.22 211.40 160.55 C 207.91 164.12 203.95 167.17 200.45 170.71 C 199.22 171.82 200.21 173.78 201.25 174.67 C 203.58 176.51 206.64 176.94 209.42 177.78 C 210.79 180.62 212.19 183.45 213.75 186.19 C 213.69 189.31 210.75 190.59 208.42 191.93 C 211.28 192.42 214.12 193.07 216.88 193.98 C 218.08 194.79 219.24 195.67 220.40 196.55 C 220.81 196.25 221.62 195.64 222.02 195.34 C 225.84 192.51 230.23 190.31 233.22 186.49 C 234.04 186.85 234.87 187.21 235.70 187.58 C 236.73 188.04 237.76 188.50 238.79 188.97 C 237.99 189.55 237.17 190.11 236.34 190.64 C 236.02 190.83 235.38 191.20 235.05 191.38 C 232.88 192.47 230.94 193.96 229.37 195.81 C 228.17 195.21 226.94 194.69 225.71 194.17 C 226.86 196.63 228.56 198.81 230.92 200.22 C 230.24 200.08 228.89 199.81 228.22 199.67 C 227.41 199.07 226.60 198.46 225.80 197.86 C 223.74 200.08 221.68 202.32 219.80 204.70 C 219.86 204.30 219.99 203.50 220.06 203.10 C 218.22 204.50 216.44 205.98 214.67 207.48 C 213.71 208.29 212.74 209.10 211.77 209.90 C 211.43 210.18 210.76 210.74 210.42 211.02 C 211.18 211.66 211.95 212.31 212.70 212.98 C 212.46 214.27 212.23 215.57 211.99 216.87 C 210.62 217.53 209.26 218.20 207.89 218.88 C 207.01 216.09 205.51 213.45 202.51 212.60 C 202.63 213.62 202.76 214.63 202.90 215.65 C 200.49 217.18 198.16 218.83 195.91 220.58 C 196.78 221.14 197.65 221.70 198.52 222.27 L 198.91 222.94 C 200.51 226.55 203.16 229.46 205.64 232.46 C 206.88 233.74 206.03 235.60 206.01 237.15 C 208.14 237.00 210.28 236.85 212.41 236.68 C 209.28 232.99 205.18 229.84 203.93 224.92 C 207.14 226.11 210.44 227.04 213.78 227.83 C 215.18 226.55 216.60 225.30 217.97 223.98 C 218.15 224.58 218.50 225.77 218.68 226.37 C 219.27 226.48 220.44 226.71 221.03 226.83 C 221.43 226.92 222.23 227.09 222.63 227.18 C 222.60 225.91 222.56 224.64 222.52 223.38 C 223.67 223.86 224.85 224.28 226.05 224.66 C 225.53 224.65 224.49 224.63 223.97 224.63 C 224.68 225.45 225.40 226.27 226.12 227.10 C 223.54 227.65 220.79 227.98 218.55 229.46 C 216.84 230.91 215.93 233.03 214.79 234.90 C 212.46 239.39 208.05 242.11 204.27 245.25 C 202.65 246.68 200.65 247.52 198.56 247.99 C 198.00 247.05 197.44 246.11 196.88 245.17 C 198.09 245.20 199.43 243.75 198.35 242.69 C 197.34 241.63 195.94 242.83 195.84 243.98 C 194.00 242.97 192.06 242.14 190.08 241.43 C 189.93 244.17 190.07 246.94 189.58 249.64 C 187.69 252.50 184.55 254.19 181.74 256.00 C 181.31 255.90 180.46 255.69 180.03 255.58 C 179.30 253.46 178.57 251.34 177.83 249.23 C 178.77 249.86 179.71 250.48 180.65 251.12 C 180.25 249.23 179.84 247.34 179.44 245.45 C 182.40 245.22 185.25 244.34 187.80 242.84 C 187.78 243.92 187.34 246.14 188.93 246.26 C 190.24 244.86 188.96 242.85 188.60 241.30 C 188.52 241.01 188.35 240.43 188.27 240.14 C 186.15 240.90 184.05 241.68 181.95 242.48 C 180.04 241.27 178.13 240.08 176.23 238.87 C 176.03 238.07 175.65 236.48 175.46 235.69 C 174.92 236.41 174.41 237.15 173.92 237.91 C 172.45 237.48 170.97 237.10 169.50 236.70 C 169.17 233.52 169.56 230.23 171.51 227.59 C 177.13 224.34 182.10 220.06 186.45 215.26 C 185.10 215.40 183.75 215.54 182.41 215.68 C 182.59 215.41 182.95 214.86 183.14 214.59 C 184.70 213.31 186.41 212.21 188.11 211.10 C 184.95 209.06 181.64 207.28 178.21 205.77 C 177.04 206.52 175.87 207.27 174.74 208.06 C 174.31 207.76 173.88 207.47 173.45 207.18 C 174.81 205.03 176.09 202.83 177.29 200.58 C 178.18 200.23 179.08 199.88 179.97 199.53 C 180.29 198.36 180.60 197.18 180.95 196.02 L 181.45 195.53 C 184.38 193.42 187.23 191.17 189.64 188.46 C 188.06 186.27 186.52 184.05 184.99 181.83 C 185.39 181.36 186.18 180.42 186.57 179.95 C 187.12 179.30 187.65 178.64 188.18 177.98 C 191.49 172.69 194.57 167.25 197.92 161.99 C 196.01 162.83 194.11 163.68 192.21 164.53 C 191.87 162.86 191.53 161.18 191.20 159.51 C 192.74 159.66 194.28 159.80 195.82 159.95 C 196.11 159.49 196.69 158.57 196.97 158.10 C 196.76 157.41 196.33 156.01 196.11 155.32 C 196.48 153.56 196.81 151.79 197.02 150.00 M 203.68 193.58 C 203.90 196.50 207.20 196.28 209.33 196.77 C 207.60 195.44 205.70 194.38 203.68 193.58 M 211.25 194.09 L 211.26 194.92 L 211.97 195.33 L 212.69 194.91 L 212.68 194.08 L 211.97 193.68 L 211.25 194.09 M 215.35 195.24 L 215.35 195.69 L 215.80 195.70 L 215.80 195.25 L 215.35 195.24 M 182.01 203.79 C 183.00 204.12 184.00 204.45 185.00 204.79 C 186.03 203.93 187.06 203.07 188.09 202.21 L 188.80 201.93 C 190.27 200.51 191.84 199.20 193.47 197.98 C 194.62 200.49 196.10 202.84 198.13 204.74 C 199.08 203.07 199.82 201.30 200.31 199.45 C 199.10 199.40 197.89 199.35 196.68 199.30 C 195.54 197.72 194.49 195.06 192.04 195.80 C 187.90 197.24 184.85 200.61 182.01 203.79 M 203.21 199.24 C 204.63 201.74 206.25 204.12 208.08 206.33 C 210.62 204.23 210.72 200.94 210.76 197.91 C 208.22 198.25 205.71 198.70 203.21 199.24 M 194.92 215.24 C 197.19 215.32 199.21 214.34 201.05 213.09 C 200.70 212.46 200.02 211.19 199.68 210.56 C 197.73 211.72 196.09 213.29 194.92 215.24 M 179.23 228.22 C 177.75 230.27 176.58 232.53 175.94 234.99 C 177.84 234.74 180.12 235.12 181.61 233.63 C 183.34 232.40 183.59 230.21 184.03 228.31 C 182.43 228.27 180.83 228.25 179.23 228.22 M 188.81 238.89 C 192.82 239.40 196.87 238.87 200.89 239.09 C 202.48 239.66 203.87 240.64 205.31 241.50 C 202.92 238.48 199.69 235.85 195.76 235.32 C 192.95 235.08 190.63 236.98 188.81 238.89 Z" />
</g>
<g id="#9cd9e2ff">
<path fill="#9cd9e2" opacity="1.00" d=" M 206.03 152.40 C 207.07 151.78 208.09 151.10 209.21 150.61 C 210.59 150.69 211.91 151.17 213.23 151.55 C 213.60 153.81 214.10 156.05 214.88 158.20 C 214.07 158.23 212.46 158.31 211.65 158.34 C 212.25 161.08 213.32 163.68 215.04 165.91 C 215.31 163.60 215.43 161.26 215.13 158.94 C 216.10 161.64 217.03 164.36 217.54 167.19 C 218.04 170.08 218.35 173.00 218.98 175.87 C 218.41 176.19 217.27 176.84 216.71 177.16 C 215.76 176.45 214.80 175.76 213.88 175.04 C 214.71 175.05 216.38 175.07 217.21 175.08 C 217.15 172.48 217.07 169.88 216.89 167.29 C 215.22 168.21 213.80 169.49 212.75 171.08 C 212.59 167.54 212.30 163.99 211.40 160.55 C 210.70 157.22 208.41 154.67 206.03 152.40 M 208.83 151.88 C 209.54 153.24 210.26 154.61 210.97 155.98 C 211.49 155.75 212.54 155.28 213.07 155.05 C 212.64 154.06 212.21 153.06 211.79 152.07 C 211.05 152.02 209.57 151.93 208.83 151.88 Z" />
</g>
<g id="#fcffffff">
<path fill="#fcffff" opacity="1.00" d=" M 208.83 151.88 C 209.57 151.93 211.05 152.02 211.79 152.07 C 212.21 153.06 212.64 154.06 213.07 155.05 C 212.54 155.28 211.49 155.75 210.97 155.98 C 210.26 154.61 209.54 153.24 208.83 151.88 Z" />
<path fill="#fcffff" opacity="1.00" d=" M 212.75 171.08 C 213.80 169.49 215.22 168.21 216.89 167.29 C 217.07 169.88 217.15 172.48 217.21 175.08 C 216.38 175.07 214.71 175.05 213.88 175.04 C 213.44 173.73 213.06 172.41 212.75 171.08 Z" />
</g>
<g id="#55525aff">
<path fill="#55525a" opacity="1.00" d=" M 213.23 151.55 C 213.65 151.68 214.48 151.94 214.90 152.07 C 218.28 153.13 221.73 153.95 225.10 155.03 C 224.34 155.02 222.83 155.01 222.07 155.00 C 224.10 157.05 225.98 159.43 228.61 160.75 C 230.00 160.99 231.41 160.75 232.81 160.66 C 232.72 162.52 232.62 164.38 232.53 166.24 C 229.15 165.76 225.83 164.67 222.40 164.65 C 220.63 165.18 219.12 166.28 217.54 167.19 C 217.03 164.36 216.10 161.64 215.13 158.94 L 214.88 158.20 C 214.10 156.05 213.60 153.81 213.23 151.55 Z" />
</g>
<g id="#3d3b40f8">
<path fill="#3d3b40" opacity="0.97" d=" M 222.07 155.00 C 222.83 155.01 224.34 155.02 225.10 155.03 C 228.86 155.02 232.64 157.20 234.15 160.70 C 234.62 163.03 234.21 165.41 234.09 167.76 C 233.70 167.38 232.92 166.62 232.53 166.24 C 232.62 164.38 232.72 162.52 232.81 160.66 C 231.41 160.75 230.00 160.99 228.61 160.75 C 225.98 159.43 224.10 157.05 222.07 155.00 Z" />
</g>
<g id="#413f45ff">
<path fill="#413f45" opacity="1.00" d=" M 183.60 156.66 C 187.39 156.47 191.40 159.27 194.85 156.61 L 195.48 155.97 L 196.11 155.32 C 196.33 156.01 196.76 157.41 196.97 158.10 C 196.69 158.57 196.11 159.49 195.82 159.95 C 194.28 159.80 192.74 159.66 191.20 159.51 C 191.53 161.18 191.87 162.86 192.21 164.53 C 194.11 163.68 196.01 162.83 197.92 161.99 C 194.57 167.25 191.49 172.69 188.18 177.98 C 188.42 175.24 188.55 172.50 188.64 169.75 C 185.56 172.38 182.64 175.32 178.93 177.04 C 175.21 178.77 171.46 180.47 168.07 182.81 C 165.22 184.68 162.62 186.91 159.79 188.82 C 158.20 189.67 156.59 190.51 155.00 191.38 C 154.76 190.85 154.28 189.77 154.04 189.23 C 158.81 183.00 164.47 177.37 171.20 173.26 C 173.51 171.87 176.00 170.63 177.87 168.63 C 177.77 167.21 177.48 165.81 177.22 164.41 C 181.39 163.07 186.56 163.32 189.27 159.23 C 185.77 159.20 182.25 159.67 179.03 161.08 C 180.54 159.62 181.61 157.49 183.60 156.66 Z" />
</g>
<g id="#f5ffffff">
<path fill="#f5ffff" opacity="1.00" d=" M 211.65 158.34 C 212.46 158.31 214.07 158.23 214.88 158.20 L 215.13 158.94 C 215.43 161.26 215.31 163.60 215.04 165.91 C 213.32 163.68 212.25 161.08 211.65 158.34 Z" />
</g>
<g id="#65a6b9ff">
<path fill="#65a6b9" opacity="1.00" d=" M 179.03 161.08 C 182.25 159.67 185.77 159.20 189.27 159.23 C 186.56 163.32 181.39 163.07 177.22 164.41 C 175.49 164.95 173.78 165.55 172.07 166.15 C 172.40 165.72 173.04 164.85 173.37 164.41 C 175.27 163.34 177.17 162.25 179.03 161.08 Z" />
</g>
<g id="#6c6972ff">
<path fill="#6c6972" opacity="1.00" d=" M 200.45 170.71 C 203.95 167.17 207.91 164.12 211.40 160.55 C 212.30 163.99 212.59 167.54 212.75 171.08 C 213.06 172.41 213.44 173.73 213.88 175.04 C 214.80 175.76 215.76 176.45 216.71 177.16 L 217.27 177.60 C 216.65 177.85 215.42 178.36 214.80 178.61 C 214.44 181.14 214.15 183.67 213.75 186.19 C 212.19 183.45 210.79 180.62 209.42 177.78 C 206.64 176.94 203.58 176.51 201.25 174.67 C 200.21 173.78 199.22 171.82 200.45 170.71 Z" />
</g>
<g id="#4b484eff">
<path fill="#4b484e" opacity="1.00" d=" M 222.40 164.65 C 225.83 164.67 229.15 165.76 232.53 166.24 C 232.92 166.62 233.70 167.38 234.09 167.76 C 235.05 168.71 235.96 169.71 236.85 170.73 L 236.18 170.38 C 235.82 170.20 235.09 169.85 234.73 169.67 C 231.59 171.19 228.24 172.20 224.84 172.97 C 223.44 175.35 222.02 177.72 220.51 180.04 C 219.98 178.65 219.44 177.27 218.98 175.87 C 218.35 173.00 218.04 170.08 217.54 167.19 C 219.12 166.28 220.63 165.18 222.40 164.65 Z" />
</g>
<g id="#171818ff">
<path fill="#171818" opacity="1.00" d=" M 172.07 166.15 C 173.78 165.55 175.49 164.95 177.22 164.41 C 177.48 165.81 177.77 167.21 177.87 168.63 C 176.00 170.63 173.51 171.87 171.20 173.26 C 171.26 170.98 171.34 168.70 171.36 166.41 L 172.07 166.15 Z" />
</g>
<g id="#5e5d66ff">
<path fill="#5e5d66" opacity="1.00" d=" M 224.84 172.97 C 228.24 172.20 231.59 171.19 234.73 169.67 C 235.09 169.85 235.82 170.20 236.18 170.38 C 236.39 171.53 236.61 172.68 236.83 173.83 C 233.38 175.58 229.47 176.85 226.87 179.86 C 224.45 182.67 221.89 185.34 219.34 188.02 C 219.06 184.52 219.58 180.55 217.27 177.60 L 216.71 177.16 C 217.27 176.84 218.41 176.19 218.98 175.87 C 219.44 177.27 219.98 178.65 220.51 180.04 C 222.02 177.72 223.44 175.35 224.84 172.97 Z" />
</g>
<g id="#29292bff">
<path fill="#29292b" opacity="1.00" d=" M 178.93 177.04 C 182.64 175.32 185.56 172.38 188.64 169.75 C 188.55 172.50 188.42 175.24 188.18 177.98 C 187.65 178.64 187.12 179.30 186.57 179.95 C 181.97 179.38 177.23 180.06 173.20 182.42 C 173.21 182.85 173.24 183.70 173.26 184.12 C 173.30 184.44 173.37 185.09 173.41 185.41 C 172.83 184.54 172.24 183.67 171.50 182.93 C 170.37 182.73 169.21 182.77 168.07 182.81 C 171.46 180.47 175.21 178.77 178.93 177.04 Z" />
</g>
<g id="#605f63be">
<path fill="#605f63" opacity="0.75" d=" M 236.83 173.83 C 236.61 172.68 236.39 171.53 236.18 170.38 L 236.85 170.73 C 239.20 171.72 240.24 174.14 241.39 176.22 C 239.92 175.33 238.37 174.57 236.83 173.83 Z" />
</g>
<g id="#3a3b3fff">
<path fill="#3a3b3f" opacity="1.00" d=" M 236.83 173.83 C 238.37 174.57 239.92 175.33 241.39 176.22 C 242.13 177.27 242.62 178.47 242.99 179.69 C 242.09 183.49 239.22 186.14 235.70 187.58 C 234.87 187.21 234.04 186.85 233.22 186.49 C 230.23 190.31 225.84 192.51 222.02 195.34 C 221.83 194.32 221.63 193.30 221.44 192.28 C 227.54 186.99 231.65 179.94 236.83 173.83 Z" />
</g>
<g id="#49484fff">
<path fill="#49484f" opacity="1.00" d=" M 226.87 179.86 C 229.47 176.85 233.38 175.58 236.83 173.83 C 231.65 179.94 227.54 186.99 221.44 192.28 C 221.63 193.30 221.83 194.32 222.02 195.34 C 221.62 195.64 220.81 196.25 220.40 196.55 C 219.24 195.67 218.08 194.79 216.88 193.98 C 217.52 192.44 218.12 190.89 218.76 189.35 C 218.91 189.02 219.20 188.35 219.34 188.02 C 221.89 185.34 224.45 182.67 226.87 179.86 M 221.28 188.22 L 220.93 189.04 L 221.27 189.88 L 222.09 190.23 L 222.93 189.89 L 223.28 189.07 L 222.94 188.23 L 222.11 187.88 L 221.28 188.22 Z" />
</g>
<g id="#fdffffff">
<path fill="#fdffff" opacity="1.00" d=" M 214.80 178.61 C 215.42 178.36 216.65 177.85 217.27 177.60 C 219.58 180.55 219.06 184.52 219.34 188.02 C 219.20 188.35 218.91 189.02 218.76 189.35 C 217.03 190.51 215.24 191.55 213.45 192.60 C 214.84 188.07 215.32 183.33 214.80 178.61 Z" />
</g>
<g id="#428693ff">
<path fill="#428693" opacity="1.00" d=" M 173.20 182.42 C 177.23 180.06 181.97 179.38 186.57 179.95 C 186.18 180.42 185.39 181.36 184.99 181.83 C 182.09 182.55 179.20 183.34 176.25 183.88 C 175.25 183.98 174.26 184.06 173.26 184.12 C 173.24 183.70 173.21 182.85 173.20 182.42 Z" />
</g>
<g id="#6fa1b0ff">
<path fill="#6fa1b0" opacity="1.00" d=" M 213.75 186.19 C 214.15 183.67 214.44 181.14 214.80 178.61 C 215.32 183.33 214.84 188.07 213.45 192.60 C 215.24 191.55 217.03 190.51 218.76 189.35 C 218.12 190.89 217.52 192.44 216.88 193.98 C 214.12 193.07 211.28 192.42 208.42 191.93 C 210.75 190.59 213.69 189.31 213.75 186.19 Z" />
</g>
<g id="#6c6a6dfb">
<path fill="#6c6a6d" opacity="1.00" d=" M 235.70 187.58 C 239.22 186.14 242.09 183.49 242.99 179.69 C 243.46 180.04 244.39 180.75 244.85 181.10 C 244.49 182.22 244.13 183.35 243.78 184.48 C 244.58 185.09 245.38 185.71 246.19 186.32 C 245.62 187.25 245.05 188.18 244.45 189.10 C 244.21 188.95 243.73 188.66 243.49 188.52 C 242.92 188.18 241.78 187.49 241.20 187.14 C 240.40 187.75 239.60 188.36 238.79 188.97 C 237.76 188.50 236.73 188.04 235.70 187.58 Z" />
</g>
<g id="#504f52f2">
<path fill="#504f52" opacity="0.95" d=" M 244.85 181.10 C 246.72 183.48 248.46 185.95 250.18 188.44 C 246.47 191.37 242.79 194.34 239.01 197.19 C 240.55 194.31 242.54 191.73 244.45 189.10 C 245.05 188.18 245.62 187.25 246.19 186.32 C 245.38 185.71 244.58 185.09 243.78 184.48 C 244.13 183.35 244.49 182.22 244.85 181.10 Z" />
</g>
<g id="#131313ff">
<path fill="#131313" opacity="1.00" d=" M 168.07 182.81 C 169.21 182.77 170.37 182.73 171.50 182.93 C 172.24 183.67 172.83 184.54 173.41 185.41 C 173.69 186.56 173.97 187.72 174.26 188.88 C 174.08 192.76 173.99 196.68 173.22 200.50 C 172.63 203.40 169.61 204.65 167.47 206.25 C 167.39 203.26 167.36 200.27 167.49 197.29 C 168.53 195.99 170.34 194.89 170.22 193.02 C 170.01 190.22 168.90 187.61 168.02 184.98 C 165.28 186.27 162.51 187.49 159.79 188.82 C 162.62 186.91 165.22 184.68 168.07 182.81 Z" />
</g>
<g id="#24636fff">
<path fill="#24636f" opacity="1.00" d=" M 176.25 183.88 C 179.20 183.34 182.09 182.55 184.99 181.83 C 184.55 184.44 184.06 187.04 183.46 189.62 C 180.42 188.67 177.00 187.39 176.25 183.88 Z" />
</g>
<g id="#2f3a3fff">
<path fill="#2f3a3f" opacity="1.00" d=" M 184.99 181.83 C 186.52 184.05 188.06 186.27 189.64 188.46 C 187.23 191.17 184.38 193.42 181.45 195.53 C 182.76 193.79 184.00 192.01 185.30 190.25 C 184.84 190.10 183.92 189.78 183.46 189.62 C 184.06 187.04 184.55 184.44 184.99 181.83 Z" />
</g>
<g id="#254f5aff">
<path fill="#254f5a" opacity="1.00" d=" M 173.26 184.12 C 174.26 184.06 175.25 183.98 176.25 183.88 C 177.00 187.39 180.42 188.67 183.46 189.62 C 183.92 189.78 184.84 190.10 185.30 190.25 C 184.00 192.01 182.76 193.79 181.45 195.53 L 180.95 196.02 C 179.88 196.60 178.78 197.14 177.68 197.69 C 176.60 194.73 175.37 191.82 174.26 188.88 C 173.97 187.72 173.69 186.56 173.41 185.41 C 173.37 185.09 173.30 184.44 173.26 184.12 Z" />
</g>
<g id="#07070720">
<path fill="#070707" opacity="0.13" d=" M 238.79 188.97 C 239.60 188.36 240.40 187.75 241.20 187.14 C 241.78 187.49 242.92 188.18 243.49 188.52 C 242.05 190.71 240.38 192.81 238.12 194.21 C 237.52 193.02 236.93 191.83 236.34 190.64 C 237.17 190.11 237.99 189.55 238.79 188.97 Z" />
</g>
<g id="#4e7482ff">
<path fill="#4e7482" opacity="1.00" d=" M 221.28 188.22 L 222.11 187.88 L 222.94 188.23 L 223.28 189.07 L 222.93 189.89 L 222.09 190.23 L 221.27 189.88 L 220.93 189.04 L 221.28 188.22 Z" />
</g>
<g id="#2e2d2dff">
<path fill="#2e2d2d" opacity="1.00" d=" M 243.49 188.52 C 243.73 188.66 244.21 188.95 244.45 189.10 C 242.54 191.73 240.55 194.31 239.01 197.19 C 238.40 198.23 237.83 199.29 237.26 200.36 C 234.62 198.86 232.02 197.28 229.37 195.81 C 230.94 193.96 232.88 192.47 235.05 191.38 C 235.41 192.65 235.77 193.93 236.13 195.21 C 236.63 194.96 237.62 194.46 238.12 194.21 C 240.38 192.81 242.05 190.71 243.49 188.52 Z" />
</g>
<g id="#38383dfc">
<path fill="#38383d" opacity="1.00" d=" M 250.18 188.44 L 250.82 187.95 C 250.41 193.82 243.17 195.14 241.23 200.18 C 240.22 202.72 239.42 205.35 238.80 208.01 C 237.49 213.02 239.54 218.48 236.96 223.24 L 237.02 222.39 C 237.43 218.81 237.55 215.15 236.32 211.70 C 235.35 212.84 234.40 213.99 233.53 215.20 C 232.00 214.27 230.49 213.34 228.94 212.45 C 225.66 210.44 221.92 209.41 218.14 208.87 C 218.36 208.33 218.79 207.24 219.01 206.70 C 223.06 207.32 227.11 208.25 230.79 210.11 C 231.86 210.71 232.94 211.31 234.02 211.91 C 235.13 208.65 235.84 205.25 235.67 201.79 C 236.47 202.08 237.27 202.37 238.06 202.67 C 237.80 201.90 237.53 201.13 237.26 200.36 C 237.83 199.29 238.40 198.23 239.01 197.19 C 242.79 194.34 246.47 191.37 250.18 188.44 Z" />
</g>
<g id="#23babad5">
<path fill="#23baba" opacity="0.84" d=" M 151.59 191.34 C 151.65 189.75 152.46 189.05 154.04 189.23 C 154.28 189.77 154.76 190.85 155.00 191.38 C 154.69 191.55 154.06 191.88 153.75 192.05 C 153.21 191.87 152.13 191.52 151.59 191.34 Z" />
</g>
<g id="#444247ff">
<path fill="#444247" opacity="1.00" d=" M 174.26 188.88 C 175.37 191.82 176.60 194.73 177.68 197.69 C 178.78 197.14 179.88 196.60 180.95 196.02 C 180.60 197.18 180.29 198.36 179.97 199.53 C 179.08 199.88 178.18 200.23 177.29 200.58 C 176.09 202.83 174.81 205.03 173.45 207.18 C 173.88 207.47 174.31 207.76 174.74 208.06 C 173.32 209.36 172.04 210.82 170.79 212.29 C 167.03 213.07 163.27 213.99 159.67 215.34 C 158.67 214.57 157.68 213.80 156.69 213.04 C 156.60 214.42 156.52 215.81 156.36 217.20 C 156.14 218.41 155.68 219.57 155.30 220.74 C 154.56 220.47 153.08 219.92 152.34 219.65 C 152.16 218.61 151.97 217.57 151.79 216.54 C 152.14 214.46 152.57 212.40 152.90 210.32 C 154.84 210.57 156.80 211.00 158.77 210.80 C 161.22 210.27 163.40 208.80 165.12 207.02 C 166.32 205.76 166.06 203.86 166.38 202.28 C 162.61 201.33 157.94 201.45 155.47 197.93 C 155.64 197.47 155.99 196.56 156.17 196.10 C 159.97 195.14 163.83 196.28 167.49 197.29 C 167.36 200.27 167.39 203.26 167.47 206.25 C 169.61 204.65 172.63 203.40 173.22 200.50 C 173.99 196.68 174.08 192.76 174.26 188.88 Z" />
</g>
<g id="#1721248f">
<path fill="#172124" opacity="0.56" d=" M 98.18 190.25 C 101.65 191.16 105.17 192.50 108.82 191.99 C 111.68 191.84 114.63 190.68 117.45 191.69 C 124.32 194.25 131.81 194.26 139.06 194.48 C 142.83 194.73 146.10 192.68 149.26 190.93 C 147.95 192.96 146.55 194.96 144.79 196.65 C 139.31 195.38 133.69 194.93 128.08 194.92 C 128.02 195.72 127.91 197.30 127.86 198.10 C 127.42 196.99 126.98 195.90 126.54 194.80 C 121.26 194.15 116.05 191.45 110.67 192.86 C 110.23 192.95 109.36 193.12 108.92 193.21 C 106.20 193.10 103.50 192.73 100.83 192.22 C 100.34 192.11 99.36 191.89 98.87 191.78 C 98.60 194.94 98.34 198.12 98.34 201.30 C 98.04 199.82 97.71 198.35 97.38 196.88 C 97.26 199.63 97.15 202.39 97.04 205.14 C 95.29 200.25 96.70 195.02 98.18 190.25 Z" />
</g>
<g id="#343335fc">
<path fill="#343335" opacity="1.00" d=" M 149.26 190.93 C 149.85 191.03 151.01 191.24 151.59 191.34 C 152.13 191.52 153.21 191.87 153.75 192.05 C 153.63 193.60 153.53 195.16 153.36 196.71 C 153.26 197.30 153.07 198.49 152.97 199.09 C 144.60 198.74 136.16 199.49 127.86 198.10 C 133.49 197.75 139.52 199.26 144.79 196.65 C 146.55 194.96 147.95 192.96 149.26 190.93 Z" />
</g>
<g id="#447784e3">
<path fill="#447784" opacity="0.89" d=" M 235.05 191.38 C 235.38 191.20 236.02 190.83 236.34 190.64 C 236.93 191.83 237.52 193.02 238.12 194.21 C 237.62 194.46 236.63 194.96 236.13 195.21 C 235.77 193.93 235.41 192.65 235.05 191.38 Z" />
</g>
<g id="#7ceefdff">
<path fill="#7ceefd" opacity="1.00" d=" M 98.87 191.78 C 99.36 191.89 100.34 192.11 100.83 192.22 C 100.92 193.42 100.99 194.63 101.04 195.85 C 101.08 197.19 101.10 198.53 101.12 199.88 L 101.14 200.82 C 100.53 202.39 99.84 203.93 99.15 205.46 C 98.86 204.08 98.59 202.69 98.34 201.30 C 98.34 198.12 98.60 194.94 98.87 191.78 Z" />
</g>
<g id="#324146fe">
<path fill="#324146" opacity="1.00" d=" M 100.83 192.22 C 103.50 192.73 106.20 193.10 108.92 193.21 C 108.89 194.50 108.89 195.80 108.91 197.10 C 107.67 196.08 106.69 194.48 105.08 194.09 C 103.98 194.45 102.95 194.98 101.90 195.46 L 101.04 195.85 C 100.99 194.63 100.92 193.42 100.83 192.22 Z" />
</g>
<g id="#595759ff">
<path fill="#595759" opacity="1.00" d=" M 110.67 192.86 C 116.05 191.45 121.26 194.15 126.54 194.80 C 126.98 195.90 127.42 196.99 127.86 198.10 C 136.16 199.49 144.60 198.74 152.97 199.09 C 152.39 201.48 151.61 203.83 151.01 206.22 C 142.97 203.51 134.52 202.53 126.19 201.11 C 126.14 199.66 126.08 198.22 126.01 196.78 C 122.99 196.73 119.96 196.74 116.94 196.80 C 116.96 198.84 116.99 200.88 117.03 202.92 C 120.11 203.30 123.18 203.72 126.24 204.23 L 126.22 205.25 C 121.76 205.80 117.25 205.58 112.79 205.21 C 112.27 205.17 111.23 205.09 110.71 205.06 C 110.48 204.54 110.01 203.50 109.78 202.98 C 109.83 202.31 109.94 200.95 110.00 200.27 C 112.00 200.17 114.00 200.06 116.00 199.95 C 115.88 199.38 115.63 198.24 115.50 197.67 C 113.82 196.71 112.14 195.76 110.53 194.71 C 110.56 194.25 110.63 193.32 110.67 192.86 Z" />
</g>
<g id="#538796ff">
<path fill="#538796" opacity="1.00" d=" M 108.92 193.21 C 109.36 193.12 110.23 192.95 110.67 192.86 C 110.63 193.32 110.56 194.25 110.53 194.71 C 110.36 196.56 110.16 198.41 110.00 200.27 C 109.94 200.95 109.83 202.31 109.78 202.98 C 109.48 202.07 109.22 201.14 109.01 200.21 C 108.98 199.43 108.93 197.88 108.91 197.10 C 108.89 195.80 108.89 194.50 108.92 193.21 Z" />
</g>
<g id="#545456ff">
<path fill="#545456" opacity="1.00" d=" M 101.90 195.46 C 102.95 194.98 103.98 194.45 105.08 194.09 C 106.69 194.48 107.67 196.08 108.91 197.10 C 108.93 197.88 108.98 199.43 109.01 200.21 C 106.82 201.92 104.24 203.15 101.39 202.86 C 101.33 202.35 101.20 201.33 101.14 200.82 L 101.12 199.88 C 102.64 199.92 104.15 199.96 105.66 199.99 C 108.04 200.58 108.15 196.80 105.93 196.69 C 104.59 196.25 103.25 195.84 101.90 195.46 Z" />
</g>
<g id="#6b7278ff">
<path fill="#6b7278" opacity="1.00" d=" M 203.68 193.58 C 205.70 194.38 207.60 195.44 209.33 196.77 C 207.20 196.28 203.90 196.50 203.68 193.58 Z" />
</g>
<g id="#858387ff">
<path fill="#858387" opacity="1.00" d=" M 211.25 194.09 L 211.97 193.68 L 212.68 194.08 L 212.69 194.91 L 211.97 195.33 L 211.26 194.92 L 211.25 194.09 Z" />
</g>
<g id="#7e716dfb">
<path fill="#7e716d" opacity="1.00" d=" M 225.71 194.17 C 226.94 194.69 228.17 195.21 229.37 195.81 C 232.02 197.28 234.62 198.86 237.26 200.36 C 237.53 201.13 237.80 201.90 238.06 202.67 C 237.27 202.37 236.47 202.08 235.67 201.79 C 234.10 201.24 232.51 200.71 230.92 200.22 C 228.56 198.81 226.86 196.63 225.71 194.17 Z" />
</g>
<g id="#7f7c7fff">
<path fill="#7f7c7f" opacity="1.00" d=" M 110.00 200.27 C 110.16 198.41 110.36 196.56 110.53 194.71 C 112.14 195.76 113.82 196.71 115.50 197.67 C 115.63 198.24 115.88 199.38 116.00 199.95 C 114.00 200.06 112.00 200.17 110.00 200.27 Z" />
</g>
<g id="#1c1c1cfc">
<path fill="#1c1c1c" opacity="1.00" d=" M 128.08 194.92 C 133.69 194.93 139.31 195.38 144.79 196.65 C 139.52 199.26 133.49 197.75 127.86 198.10 C 127.91 197.30 128.02 195.72 128.08 194.92 Z" />
</g>
<g id="#66a8bcff">
<path fill="#66a8bc" opacity="1.00" d=" M 215.35 195.24 L 215.80 195.25 L 215.80 195.70 L 215.35 195.69 L 215.35 195.24 Z" />
</g>
<g id="#7a797cff">
<path fill="#7a797c" opacity="1.00" d=" M 101.04 195.85 L 101.90 195.46 C 103.25 195.84 104.59 196.25 105.93 196.69 C 105.63 197.77 105.54 198.87 105.66 199.99 C 104.15 199.96 102.64 199.92 101.12 199.88 C 101.10 198.53 101.08 197.19 101.04 195.85 Z" />
</g>
<g id="#5b8693ff">
<path fill="#5b8693" opacity="1.00" d=" M 105.93 196.69 C 108.15 196.80 108.04 200.58 105.66 199.99 C 105.54 198.87 105.63 197.77 105.93 196.69 Z" />
</g>
<g id="#64a4b5ff">
<path fill="#64a4b5" opacity="1.00" d=" M 153.36 196.71 C 154.06 196.56 155.46 196.25 156.17 196.10 C 155.99 196.56 155.64 197.47 155.47 197.93 C 155.10 198.98 154.75 200.04 154.43 201.11 C 153.84 203.50 153.53 205.94 153.19 208.38 C 153.12 208.86 152.97 209.83 152.90 210.32 C 152.57 212.40 152.14 214.46 151.79 216.54 C 151.63 215.86 151.31 214.50 151.15 213.82 C 150.77 211.31 150.75 208.75 151.01 206.22 C 151.61 203.83 152.39 201.48 152.97 199.09 C 153.07 198.49 153.26 197.30 153.36 196.71 Z" />
</g>
<g id="#58575aff">
<path fill="#58575a" opacity="1.00" d=" M 182.01 203.79 C 184.85 200.61 187.90 197.24 192.04 195.80 C 194.49 195.06 195.54 197.72 196.68 199.30 C 197.89 199.35 199.10 199.40 200.31 199.45 C 199.82 201.30 199.08 203.07 198.13 204.74 C 196.10 202.84 194.62 200.49 193.47 197.98 C 191.84 199.20 190.27 200.51 188.80 201.93 C 188.80 201.53 188.79 200.72 188.78 200.32 C 187.40 198.87 186.50 201.80 188.09 202.21 C 187.06 203.07 186.03 203.93 185.00 204.79 C 184.00 204.45 183.00 204.12 182.01 203.79 Z" />
</g>
<g id="#1a1d1efe">
<path fill="#1a1d1e" opacity="1.00" d=" M 97.38 196.88 C 97.71 198.35 98.04 199.82 98.34 201.30 C 98.59 202.69 98.86 204.08 99.15 205.46 C 99.84 203.93 100.53 202.39 101.14 200.82 C 101.20 201.33 101.33 202.35 101.39 202.86 C 104.24 203.15 106.82 201.92 109.01 200.21 C 109.22 201.14 109.48 202.07 109.78 202.98 C 110.01 203.50 110.48 204.54 110.71 205.06 C 106.15 205.52 101.59 205.98 97.00 206.14 L 97.04 205.14 C 97.15 202.39 97.26 199.63 97.38 196.88 Z" />
</g>
<g id="#949194ff">
<path fill="#949194" opacity="1.00" d=" M 116.94 196.80 C 119.96 196.74 122.99 196.73 126.01 196.78 C 126.08 198.22 126.14 199.66 126.19 201.11 C 126.20 201.89 126.23 203.45 126.24 204.23 C 123.18 203.72 120.11 203.30 117.03 202.92 C 116.99 200.88 116.96 198.84 116.94 196.80 Z" />
</g>
<g id="#6a686aff">
<path fill="#6a686a" opacity="1.00" d=" M 154.43 201.11 C 154.75 200.04 155.10 198.98 155.47 197.93 C 157.94 201.45 162.61 201.33 166.38 202.28 C 166.06 203.86 166.32 205.76 165.12 207.02 C 163.40 208.80 161.22 210.27 158.77 210.80 C 156.80 211.00 154.84 210.57 152.90 210.32 C 152.97 209.83 153.12 208.86 153.19 208.38 C 156.59 208.51 160.10 208.02 162.46 205.30 C 159.75 203.96 157.05 202.61 154.43 201.11 Z" />
</g>
<g id="#595c64ff">
<path fill="#595c64" opacity="1.00" d=" M 203.21 199.24 C 205.71 198.70 208.22 198.25 210.76 197.91 C 210.72 200.94 210.62 204.23 208.08 206.33 C 206.25 204.12 204.63 201.74 203.21 199.24 Z" />
</g>
<g id="#171716ff">
<path fill="#171716" opacity="1.00" d=" M 219.80 204.70 C 221.68 202.32 223.74 200.08 225.80 197.86 C 226.60 198.46 227.41 199.07 228.22 199.67 C 228.14 203.32 228.54 207.10 230.79 210.11 C 227.11 208.25 223.06 207.32 219.01 206.70 C 219.21 206.20 219.60 205.20 219.80 204.70 Z" />
</g>
<g id="#8a878aff">
<path fill="#8a878a" opacity="1.00" d=" M 188.09 202.21 C 186.50 201.80 187.40 198.87 188.78 200.32 C 188.79 200.72 188.80 201.53 188.80 201.93 L 188.09 202.21 Z" />
</g>
<g id="#353535ff">
<path fill="#353535" opacity="1.00" d=" M 126.19 201.11 C 134.52 202.53 142.97 203.51 151.01 206.22 C 150.75 208.75 150.77 211.31 151.15 213.82 C 143.19 210.10 134.83 207.08 126.22 205.25 L 126.24 204.23 C 126.23 203.45 126.20 201.89 126.19 201.11 Z" />
</g>
<g id="#838183ff">
<path fill="#838183" opacity="1.00" d=" M 153.19 208.38 C 153.53 205.94 153.84 203.50 154.43 201.11 C 157.05 202.61 159.75 203.96 162.46 205.30 C 160.10 208.02 156.59 208.51 153.19 208.38 Z" />
<path fill="#838183" opacity="1.00" d=" M 182.41 215.68 C 183.75 215.54 185.10 215.40 186.45 215.26 C 182.10 220.06 177.13 224.34 171.51 227.59 C 171.11 227.68 170.32 227.87 169.93 227.97 C 173.52 223.29 178.76 220.27 182.41 215.68 Z" />
</g>
<g id="#5e5c61ff">
<path fill="#5e5c61" opacity="1.00" d=" M 214.67 207.48 C 216.44 205.98 218.22 204.50 220.06 203.10 C 219.99 203.50 219.86 204.30 219.80 204.70 C 219.60 205.20 219.21 206.20 219.01 206.70 C 218.79 207.24 218.36 208.33 218.14 208.87 C 221.92 209.41 225.66 210.44 228.94 212.45 C 227.41 213.54 225.88 214.65 224.37 215.77 C 222.10 214.16 219.46 213.21 216.82 212.42 C 216.11 210.77 215.40 209.12 214.67 207.48 Z" />
</g>
<g id="#161616fa">
<path fill="#161616" opacity="0.98" d=" M 112.79 205.21 C 117.25 205.58 121.76 205.80 126.22 205.25 C 134.83 207.08 143.19 210.10 151.15 213.82 C 151.31 214.50 151.63 215.86 151.79 216.54 C 151.97 217.57 152.16 218.61 152.34 219.65 C 153.08 219.92 154.56 220.47 155.30 220.74 C 153.66 221.20 152.02 221.66 150.38 222.14 C 149.97 219.79 150.59 216.97 149.21 214.95 C 145.36 213.51 141.22 212.98 137.41 211.43 C 129.51 208.29 121.21 206.26 112.79 205.21 Z" />
</g>
<g id="#525354ff">
<path fill="#525354" opacity="1.00" d=" M 174.74 208.06 C 175.87 207.27 177.04 206.52 178.21 205.77 C 181.64 207.28 184.95 209.06 188.11 211.10 C 186.41 212.21 184.70 213.31 183.14 214.59 C 182.74 214.17 181.94 213.32 181.54 212.90 C 181.29 212.03 180.78 210.31 180.53 209.45 C 179.67 208.95 178.80 208.43 177.95 207.92 C 176.77 209.17 175.58 210.41 174.49 211.74 C 173.26 211.90 172.02 212.09 170.79 212.29 C 172.04 210.82 173.32 209.36 174.74 208.06 Z" />
</g>
<g id="#434349ff">
<path fill="#434349" opacity="1.00" d=" M 174.49 211.74 C 175.58 210.41 176.77 209.17 177.95 207.92 C 178.80 208.43 179.67 208.95 180.53 209.45 C 179.48 210.16 178.38 210.82 177.41 211.65 C 177.05 213.14 176.95 214.68 176.78 216.21 C 178.39 215.13 179.96 214.01 181.54 212.90 C 181.94 213.32 182.74 214.17 183.14 214.59 C 182.95 214.86 182.59 215.41 182.41 215.68 C 178.76 220.27 173.52 223.29 169.93 227.97 C 167.81 228.42 165.69 228.85 163.58 229.30 C 163.67 232.19 163.78 235.07 163.95 237.96 C 165.13 237.35 166.32 236.75 167.50 236.15 C 168.17 236.32 168.83 236.51 169.50 236.70 C 170.97 237.10 172.45 237.48 173.92 237.91 C 174.21 239.01 174.54 240.10 174.91 241.18 C 175.84 243.88 176.87 246.54 177.83 249.23 C 178.57 251.34 179.30 253.46 180.03 255.58 C 180.46 255.69 181.31 255.90 181.74 256.00 C 178.64 258.14 176.60 261.36 174.05 264.06 C 173.30 262.54 172.56 261.01 171.82 259.49 C 173.26 259.99 174.71 260.48 176.16 260.98 C 176.28 260.13 176.40 259.29 176.52 258.45 C 176.81 256.17 176.88 253.86 176.64 251.58 C 175.91 247.52 173.86 243.88 171.55 240.52 C 170.06 239.68 168.30 238.52 166.57 239.47 C 164.38 240.84 163.87 243.62 162.86 245.82 C 164.61 245.59 166.35 245.34 168.10 245.09 C 169.74 246.40 171.37 247.73 173.01 249.05 C 172.37 250.80 171.73 252.56 171.09 254.31 C 167.97 253.00 164.92 251.51 161.99 249.82 C 162.33 252.51 162.65 255.20 162.87 257.90 C 162.93 258.60 163.04 259.98 163.10 260.67 C 162.15 261.29 161.21 261.91 160.27 262.54 C 160.83 265.35 161.83 268.07 163.56 270.38 C 163.55 270.76 163.53 271.52 163.52 271.89 C 163.57 273.36 162.27 274.36 161.38 275.35 C 158.62 278.16 155.06 279.92 151.48 281.44 C 148.93 287.76 142.75 293.44 135.57 292.88 C 133.82 294.81 132.19 296.94 129.91 298.28 C 126.82 298.68 125.67 295.56 125.40 293.09 C 126.56 292.33 127.74 291.59 128.87 290.79 C 130.35 289.73 131.80 288.61 133.24 287.49 C 132.13 287.70 131.02 287.92 129.91 288.15 C 129.49 288.05 128.64 287.84 128.21 287.74 C 129.27 285.08 130.51 282.49 131.73 279.91 C 128.97 279.49 126.19 279.17 123.40 278.93 C 123.33 279.58 123.20 280.89 123.14 281.54 C 121.56 281.11 119.99 280.70 118.41 280.31 C 119.74 282.53 121.57 284.36 123.80 285.67 C 123.70 284.86 123.49 283.22 123.38 282.41 C 124.29 284.62 125.31 286.79 126.47 288.88 C 124.37 291.86 121.77 294.44 119.05 296.85 C 116.72 295.68 114.31 294.46 112.74 292.30 C 109.69 288.35 106.54 284.48 103.44 280.57 C 101.63 278.49 101.29 275.69 100.84 273.08 C 102.41 272.11 103.78 270.38 105.78 270.44 C 108.44 270.30 111.35 270.39 113.50 268.55 C 119.57 263.99 124.84 258.46 130.95 253.94 C 137.82 248.43 145.34 243.67 151.42 237.24 C 149.89 236.50 148.36 235.78 146.83 235.05 C 150.01 231.83 153.16 228.39 157.22 226.29 C 160.47 225.22 164.15 225.03 166.98 222.97 C 170.23 219.78 172.00 215.48 174.49 211.74 M 152.35 237.38 C 151.01 238.74 153.35 240.95 154.66 239.61 C 155.99 238.25 153.66 236.04 152.35 237.38 M 161.11 247.18 L 160.77 248.02 L 161.11 248.85 L 161.94 249.19 L 162.77 248.85 L 163.11 248.02 L 162.77 247.18 L 161.94 246.84 L 161.11 247.18 M 153.81 250.80 C 152.25 251.98 150.92 253.42 150.06 255.19 C 148.02 255.57 145.99 255.96 143.96 256.37 C 144.55 258.98 145.28 261.57 146.08 264.13 C 144.69 263.31 143.31 262.49 141.96 261.63 C 139.67 262.26 137.81 263.70 136.68 265.79 C 136.26 266.06 135.41 266.59 134.99 266.86 C 135.41 267.56 136.26 268.96 136.68 269.66 L 136.10 270.13 C 138.33 269.84 140.82 269.31 141.96 267.13 C 144.46 268.33 147.11 269.15 149.62 270.32 C 149.71 268.45 149.83 266.59 149.99 264.73 C 150.64 264.78 151.95 264.88 152.60 264.93 C 151.14 266.61 155.47 268.99 154.90 266.13 C 154.66 265.85 154.20 265.30 153.96 265.02 L 154.76 265.07 C 154.20 264.06 153.70 263.03 153.02 262.10 C 151.72 261.32 150.12 261.35 148.66 261.13 L 149.26 260.41 C 149.14 259.89 148.90 258.86 148.78 258.34 L 147.96 257.99 C 148.28 257.63 148.92 256.92 149.24 256.56 C 149.88 256.83 151.18 257.37 151.83 257.64 C 154.24 257.02 155.73 254.83 157.37 253.12 C 157.23 252.39 156.95 250.92 156.81 250.18 C 155.81 250.39 154.81 250.59 153.81 250.80 M 137.54 257.50 C 133.82 260.63 129.78 263.35 125.68 265.96 C 126.11 266.49 126.97 267.54 127.40 268.07 C 131.42 265.65 134.64 262.19 138.35 259.37 C 140.48 257.76 142.38 255.87 144.01 253.76 C 141.68 254.67 139.45 255.86 137.54 257.50 M 156.40 266.12 L 156.40 266.95 L 157.12 267.35 L 157.83 266.93 L 157.82 266.11 L 157.11 265.70 L 156.40 266.12 M 133.03 271.14 L 132.68 271.97 L 133.02 272.80 L 133.85 273.15 L 134.68 272.80 L 135.03 271.97 L 134.69 271.14 L 133.86 270.80 L 133.03 271.14 M 141.19 277.70 C 139.88 276.24 138.44 274.92 136.90 273.72 C 135.24 278.95 140.44 282.74 144.33 285.12 C 144.33 284.31 144.34 283.49 144.34 282.68 C 144.80 282.59 145.72 282.39 146.18 282.30 C 145.47 281.50 144.77 280.69 143.99 279.96 L 144.30 279.18 C 145.51 278.78 146.69 278.26 147.78 277.59 C 147.71 279.56 148.06 281.51 148.33 283.46 C 149.24 282.22 150.51 280.89 150.00 279.21 C 149.67 276.93 149.04 274.70 148.16 272.57 C 145.65 274.02 143.31 275.73 141.19 277.70 M 106.19 275.17 C 106.19 275.84 106.18 277.19 106.18 277.86 C 106.91 277.91 108.39 278.02 109.12 278.08 C 109.09 277.33 109.03 275.83 109.00 275.08 C 108.30 275.10 106.90 275.15 106.19 275.17 M 116.33 276.10 L 116.33 276.93 L 117.04 277.34 L 117.76 276.93 L 117.76 276.11 L 117.05 275.69 L 116.33 276.10 M 111.23 281.16 C 111.24 282.35 111.25 283.53 111.26 284.72 C 112.44 284.72 113.62 284.72 114.81 284.72 C 114.80 284.09 114.78 282.82 114.77 282.19 C 113.59 281.84 112.41 281.50 111.23 281.16 M 134.83 288.77 C 135.94 289.23 137.06 289.66 138.20 290.06 C 137.81 288.84 137.39 287.63 136.94 286.44 C 135.58 286.64 134.88 287.42 134.83 288.77 M 117.30 288.96 C 115.39 289.40 116.23 292.52 118.11 291.89 C 120.03 291.46 119.18 288.31 117.30 288.96 M 128.05 293.01 C 128.05 293.72 128.07 295.13 128.08 295.84 C 128.80 295.84 130.24 295.85 130.96 295.85 C 130.96 295.13 130.97 293.70 130.97 292.98 C 130.24 292.99 128.78 293.00 128.05 293.01 Z" />
</g>
<g id="#726e70ff">
<path fill="#726e70" opacity="1.00" d=" M 211.77 209.90 C 212.74 209.10 213.71 208.29 214.67 207.48 C 215.40 209.12 216.11 210.77 216.82 212.42 C 216.38 212.28 215.51 212.01 215.07 211.87 C 213.97 211.22 212.87 210.56 211.77 209.90 Z" />
</g>
<g id="#202426ff">
<path fill="#202426" opacity="1.00" d=" M 177.41 211.65 C 178.38 210.82 179.48 210.16 180.53 209.45 C 180.78 210.31 181.29 212.03 181.54 212.90 C 179.96 214.01 178.39 215.13 176.78 216.21 C 176.95 214.68 177.05 213.14 177.41 211.65 Z" />
</g>
<g id="#1b1b1bff">
<path fill="#1b1b1b" opacity="1.00" d=" M 210.42 211.02 C 210.76 210.74 211.43 210.18 211.77 209.90 C 212.87 210.56 213.97 211.22 215.07 211.87 C 216.81 213.65 218.34 215.71 220.46 217.05 C 222.44 218.09 224.75 218.04 226.90 218.39 C 227.51 218.48 228.73 218.64 229.34 218.72 C 229.94 220.77 230.54 222.81 231.10 224.87 C 229.42 224.75 227.73 224.72 226.05 224.66 C 224.85 224.28 223.67 223.86 222.52 223.38 C 221.51 222.83 220.52 222.26 219.56 221.66 C 219.04 220.79 218.53 219.93 218.01 219.07 C 216.64 216.72 214.71 214.78 212.70 212.98 C 211.95 212.31 211.18 211.66 210.42 211.02 Z" />
</g>
<g id="#6e6d70ff">
<path fill="#6e6d70" opacity="1.00" d=" M 194.92 215.24 C 196.09 213.29 197.73 211.72 199.68 210.56 C 200.02 211.19 200.70 212.46 201.05 213.09 C 199.21 214.34 197.19 215.32 194.92 215.24 Z" />
</g>
<g id="#2a2a2dfe">
<path fill="#2a2a2d" opacity="1.00" d=" M 159.67 215.34 C 163.27 213.99 167.03 213.07 170.79 212.29 C 172.02 212.09 173.26 211.90 174.49 211.74 C 172.00 215.48 170.23 219.78 166.98 222.97 C 164.15 225.03 160.47 225.22 157.22 226.29 C 159.91 223.15 163.65 221.29 166.85 218.77 C 168.11 217.99 168.12 216.42 168.46 215.14 C 165.28 215.35 162.11 215.56 158.93 215.72 L 159.67 215.34 Z" />
</g>
<g id="#3c3d3fff">
<path fill="#3c3d3f" opacity="1.00" d=" M 215.07 211.87 C 215.51 212.01 216.38 212.28 216.82 212.42 C 219.46 213.21 222.10 214.16 224.37 215.77 C 225.21 216.64 226.06 217.52 226.90 218.39 C 224.75 218.04 222.44 218.09 220.46 217.05 C 218.34 215.71 216.81 213.65 215.07 211.87 Z" />
</g>
<g id="#494c52ff">
<path fill="#494c52" opacity="1.00" d=" M 233.53 215.20 C 234.40 213.99 235.35 212.84 236.32 211.70 C 237.55 215.15 237.43 218.81 237.02 222.39 C 236.82 223.11 236.42 224.56 236.21 225.29 C 235.22 225.45 234.23 225.63 233.24 225.80 C 232.71 225.57 231.64 225.11 231.10 224.87 C 230.54 222.81 229.94 220.77 229.34 218.72 C 230.34 218.82 231.34 218.91 232.35 218.99 C 232.71 217.72 233.11 216.46 233.53 215.20 Z" />
</g>
<g id="#31d1d3f6">
<path fill="#31d1d3" opacity="0.96" d=" M 156.69 213.04 C 157.68 213.80 158.67 214.57 159.67 215.34 L 158.93 215.72 C 158.29 216.09 157.00 216.83 156.36 217.20 C 156.52 215.81 156.60 214.42 156.69 213.04 Z" />
</g>
<g id="#34373eff">
<path fill="#34373e" opacity="1.00" d=" M 202.51 212.60 C 205.51 213.45 207.01 216.09 207.89 218.88 C 209.26 218.20 210.62 217.53 211.99 216.87 C 213.00 217.61 214.01 218.35 215.05 219.05 C 213.74 220.10 212.41 221.13 211.09 222.17 C 211.79 222.91 212.51 223.65 213.22 224.39 C 214.74 224.00 216.26 223.62 217.78 223.23 L 217.97 223.98 C 216.60 225.30 215.18 226.55 213.78 227.83 C 210.44 227.04 207.14 226.11 203.93 224.92 C 202.25 224.28 200.57 223.63 198.91 222.94 L 198.52 222.27 C 200.10 220.78 201.67 219.28 203.22 217.76 C 203.14 217.23 202.98 216.18 202.90 215.65 C 202.76 214.63 202.63 213.62 202.51 212.60 Z" />
</g>
<g id="#bdbbbfff">
<path fill="#bdbbbf" opacity="1.00" d=" M 211.99 216.87 C 212.23 215.57 212.46 214.27 212.70 212.98 C 214.71 214.78 216.64 216.72 218.01 219.07 C 218.08 219.50 218.23 220.34 218.30 220.77 C 217.20 220.21 216.11 219.66 215.05 219.05 C 214.01 218.35 213.00 217.61 211.99 216.87 Z" />
</g>
<g id="#736d6bff">
<path fill="#736d6b" opacity="1.00" d=" M 224.37 215.77 C 225.88 214.65 227.41 213.54 228.94 212.45 C 230.49 213.34 232.00 214.27 233.53 215.20 C 233.11 216.46 232.71 217.72 232.35 218.99 C 231.34 218.91 230.34 218.82 229.34 218.72 C 228.73 218.64 227.51 218.48 226.90 218.39 C 226.06 217.52 225.21 216.64 224.37 215.77 Z" />
</g>
<g id="#557398ff">
<path fill="#557398" opacity="1.00" d=" M 195.91 220.58 C 198.16 218.83 200.49 217.18 202.90 215.65 C 202.98 216.18 203.14 217.23 203.22 217.76 C 201.67 219.28 200.10 220.78 198.52 222.27 C 197.65 221.70 196.78 221.14 195.91 220.58 Z" />
</g>
<g id="#ada9abff">
<path fill="#ada9ab" opacity="1.00" d=" M 215.05 219.05 C 216.11 219.66 217.20 220.21 218.30 220.77 C 218.23 220.34 218.08 219.50 218.01 219.07 C 218.53 219.93 219.04 220.79 219.56 221.66 C 220.07 223.37 220.49 225.11 221.03 226.83 C 220.44 226.71 219.27 226.48 218.68 226.37 C 218.50 225.77 218.15 224.58 217.97 223.98 L 217.78 223.23 C 216.26 223.62 214.74 224.00 213.22 224.39 C 212.51 223.65 211.79 222.91 211.09 222.17 C 212.41 221.13 213.74 220.10 215.05 219.05 Z" />
</g>
<g id="#c6c4c7ff">
<path fill="#c6c4c7" opacity="1.00" d=" M 221.03 226.83 C 220.49 225.11 220.07 223.37 219.56 221.66 C 220.52 222.26 221.51 222.83 222.52 223.38 C 222.56 224.64 222.60 225.91 222.63 227.18 C 222.23 227.09 221.43 226.92 221.03 226.83 Z" />
</g>
<g id="#e8e5e9ff">
<path fill="#e8e5e9" opacity="1.00" d=" M 198.91 222.94 C 200.57 223.63 202.25 224.28 203.93 224.92 C 205.18 229.84 209.28 232.99 212.41 236.68 C 210.28 236.85 208.14 237.00 206.01 237.15 C 206.03 235.60 206.88 233.74 205.64 232.46 C 203.16 229.46 200.51 226.55 198.91 222.94 Z" />
</g>
<g id="#4e8c9dff">
<path fill="#4e8c9d" opacity="1.00" d=" M 223.97 224.63 C 224.49 224.63 225.53 224.65 226.05 224.66 C 227.73 224.72 229.42 224.75 231.10 224.87 C 231.64 225.11 232.71 225.57 233.24 225.80 C 230.87 226.24 228.49 226.67 226.12 227.10 C 225.40 226.27 224.68 225.45 223.97 224.63 Z" />
</g>
<g id="#373637ff">
<path fill="#373637" opacity="1.00" d=" M 233.24 225.80 C 234.23 225.63 235.22 225.45 236.21 225.29 C 235.17 226.59 234.16 227.93 233.02 229.15 C 230.31 229.77 227.55 230.12 224.79 230.35 C 220.71 229.79 217.97 232.99 214.79 234.90 C 215.93 233.03 216.84 230.91 218.55 229.46 C 220.79 227.98 223.54 227.65 226.12 227.10 C 228.49 226.67 230.87 226.24 233.24 225.80 Z" />
</g>
<g id="#5e5e65ff">
<path fill="#5e5e65" opacity="1.00" d=" M 163.58 229.30 C 165.69 228.85 167.81 228.42 169.93 227.97 C 170.32 227.87 171.11 227.68 171.51 227.59 C 169.56 230.23 169.17 233.52 169.50 236.70 C 168.83 236.51 168.17 236.32 167.50 236.15 C 166.32 236.75 165.13 237.35 163.95 237.96 C 163.78 235.07 163.67 232.19 163.58 229.30 Z" />
</g>
<g id="#7493beff">
<path fill="#7493be" opacity="1.00" d=" M 179.23 228.22 C 180.83 228.25 182.43 228.27 184.03 228.31 C 183.59 230.21 183.34 232.40 181.61 233.63 C 180.12 235.12 177.84 234.74 175.94 234.99 C 176.58 232.53 177.75 230.27 179.23 228.22 M 180.05 229.14 C 178.98 230.79 177.95 232.47 177.03 234.21 C 179.93 233.82 181.80 231.66 183.20 229.28 C 182.42 229.24 180.84 229.17 180.05 229.14 Z" />
</g>
<g id="#e7ffffff">
<path fill="#e7ffff" opacity="1.00" d=" M 180.05 229.14 C 180.84 229.17 182.42 229.24 183.20 229.28 C 181.80 231.66 179.93 233.82 177.03 234.21 C 177.95 232.47 178.98 230.79 180.05 229.14 Z" />
</g>
<g id="#0f0f0f97">
<path fill="#0f0f0f" opacity="0.59" d=" M 224.79 230.35 C 227.55 230.12 230.31 229.77 233.02 229.15 C 231.62 230.02 230.27 231.06 228.66 231.50 C 227.23 231.96 226.01 230.88 224.79 230.35 Z" />
</g>
<g id="#2f3035fe">
<path fill="#2f3035" opacity="1.00" d=" M 140.48 241.44 C 142.91 239.65 145.01 237.46 146.83 235.05 C 148.36 235.78 149.89 236.50 151.42 237.24 C 145.34 243.67 137.82 248.43 130.95 253.94 C 124.84 258.46 119.57 263.99 113.50 268.55 C 111.35 270.39 108.44 270.30 105.78 270.44 C 106.92 268.13 108.72 266.27 110.88 264.90 C 116.80 260.90 121.93 255.88 127.60 251.55 C 131.93 248.22 136.12 244.73 140.48 241.44 Z" />
</g>
<g id="#7b7a7bff">
<path fill="#7b7a7b" opacity="1.00" d=" M 188.81 238.89 C 190.63 236.98 192.95 235.08 195.76 235.32 C 199.69 235.85 202.92 238.48 205.31 241.50 C 203.87 240.64 202.48 239.66 200.89 239.09 C 196.87 238.87 192.82 239.40 188.81 238.89 Z" />
</g>
<g id="#a2a1a6ff">
<path fill="#a2a1a6" opacity="1.00" d=" M 173.92 237.91 C 174.41 237.15 174.92 236.41 175.46 235.69 C 175.65 236.48 176.03 238.07 176.23 238.87 C 175.90 239.45 175.24 240.61 174.91 241.18 C 174.54 240.10 174.21 239.01 173.92 237.91 Z" />
</g>
<g id="#77767fff">
<path fill="#77767f" opacity="1.00" d=" M 152.35 237.38 C 153.66 236.04 155.99 238.25 154.66 239.61 C 153.35 240.95 151.01 238.74 152.35 237.38 Z" />
</g>
<g id="#88abd6ff">
<path fill="#88abd6" opacity="1.00" d=" M 166.57 239.47 C 168.30 238.52 170.06 239.68 171.55 240.52 C 170.40 242.04 169.25 243.56 168.10 245.09 C 166.35 245.34 164.61 245.59 162.86 245.82 C 163.87 243.62 164.38 240.84 166.57 239.47 M 166.77 240.91 C 165.54 242.07 164.89 243.67 164.10 245.13 C 166.87 244.38 168.95 242.44 170.11 239.84 C 168.97 240.12 167.86 240.48 166.77 240.91 Z" />
</g>
<g id="#5e5d61ff">
<path fill="#5e5d61" opacity="1.00" d=" M 176.23 238.87 C 178.13 240.08 180.04 241.27 181.95 242.48 C 184.05 241.68 186.15 240.90 188.27 240.14 C 188.35 240.43 188.52 241.01 188.60 241.30 C 188.40 241.69 188.00 242.46 187.80 242.84 C 185.25 244.34 182.40 245.22 179.44 245.45 C 179.84 247.34 180.25 249.23 180.65 251.12 C 179.71 250.48 178.77 249.86 177.83 249.23 C 176.87 246.54 175.84 243.88 174.91 241.18 C 175.24 240.61 175.90 239.45 176.23 238.87 M 183.26 243.28 L 183.26 243.73 L 183.71 243.73 L 183.71 243.28 L 183.26 243.28 Z" />
</g>
<g id="#efffffff">
<path fill="#efffff" opacity="1.00" d=" M 166.77 240.91 C 167.86 240.48 168.97 240.12 170.11 239.84 C 168.95 242.44 166.87 244.38 164.10 245.13 C 164.89 243.67 165.54 242.07 166.77 240.91 Z" />
</g>
<g id="#4e4e53ff">
<path fill="#4e4e53" opacity="1.00" d=" M 171.55 240.52 C 173.86 243.88 175.91 247.52 176.64 251.58 C 176.24 252.05 175.44 253.01 175.04 253.49 C 174.26 255.27 175.82 256.92 176.52 258.45 C 176.40 259.29 176.28 260.13 176.16 260.98 C 174.71 260.48 173.26 259.99 171.82 259.49 C 172.56 261.01 173.30 262.54 174.05 264.06 C 170.45 266.54 166.25 268.34 163.52 271.89 C 163.53 271.52 163.55 270.76 163.56 270.38 C 163.57 267.14 163.34 263.90 163.10 260.67 C 163.04 259.98 162.93 258.60 162.87 257.90 C 165.75 256.20 169.08 255.80 172.34 256.31 C 171.92 255.64 171.51 254.98 171.09 254.31 C 171.73 252.56 172.37 250.80 173.01 249.05 C 171.37 247.73 169.74 246.40 168.10 245.09 C 169.25 243.56 170.40 242.04 171.55 240.52 Z" />
</g>
<g id="#89878afe">
<path fill="#89878a" opacity="1.00" d=" M 187.80 242.84 C 188.00 242.46 188.40 241.69 188.60 241.30 C 188.96 242.85 190.24 244.86 188.93 246.26 C 187.34 246.14 187.78 243.92 187.80 242.84 Z" />
</g>
<g id="#888993f8">
<path fill="#888993" opacity="0.97" d=" M 195.84 243.98 C 195.94 242.83 197.34 241.63 198.35 242.69 C 199.43 243.75 198.09 245.20 196.88 245.17 C 196.62 244.87 196.10 244.28 195.84 243.98 Z" />
</g>
<g id="#919096ff">
<path fill="#919096" opacity="1.00" d=" M 183.26 243.28 L 183.71 243.28 L 183.71 243.73 L 183.26 243.73 L 183.26 243.28 Z" />
</g>
<g id="#a8a4a8ff">
<path fill="#a8a4a8" opacity="1.00" d=" M 161.11 247.18 L 161.94 246.84 L 162.77 247.18 L 163.11 248.02 L 162.77 248.85 L 161.94 249.19 L 161.11 248.85 L 160.77 248.02 L 161.11 247.18 Z" />
</g>
<g id="#daedf5ff">
<path fill="#daedf5" opacity="1.00" d=" M 153.81 250.80 C 154.81 250.59 155.81 250.39 156.81 250.18 C 156.95 250.92 157.23 252.39 157.37 253.12 C 155.28 254.15 153.20 255.21 151.13 256.27 C 152.04 254.45 152.94 252.63 153.81 250.80 Z" />
</g>
<g id="#5a595eff">
<path fill="#5a595e" opacity="1.00" d=" M 161.99 249.82 C 164.92 251.51 167.97 253.00 171.09 254.31 C 171.51 254.98 171.92 255.64 172.34 256.31 C 169.08 255.80 165.75 256.20 162.87 257.90 C 162.65 255.20 162.33 252.51 161.99 249.82 Z" />
</g>
<g id="#8fbbe0ff">
<path fill="#8fbbe0" opacity="1.00" d=" M 150.06 255.19 C 150.92 253.42 152.25 251.98 153.81 250.80 C 152.94 252.63 152.04 254.45 151.13 256.27 C 153.20 255.21 155.28 254.15 157.37 253.12 C 155.73 254.83 154.24 257.02 151.83 257.64 C 151.18 257.37 149.88 256.83 149.24 256.56 C 149.44 256.22 149.85 255.54 150.06 255.19 Z" />
</g>
<g id="#7d7b7eff">
<path fill="#7d7b7e" opacity="1.00" d=" M 175.04 253.49 C 175.44 253.01 176.24 252.05 176.64 251.58 C 176.88 253.86 176.81 256.17 176.52 258.45 C 175.82 256.92 174.26 255.27 175.04 253.49 Z" />
</g>
<g id="#313238ff">
<path fill="#313238" opacity="1.00" d=" M 137.54 257.50 C 139.45 255.86 141.68 254.67 144.01 253.76 C 142.38 255.87 140.48 257.76 138.35 259.37 C 134.64 262.19 131.42 265.65 127.40 268.07 C 126.97 267.54 126.11 266.49 125.68 265.96 C 129.78 263.35 133.82 260.63 137.54 257.50 Z" />
</g>
<g id="#515155ff">
<path fill="#515155" opacity="1.00" d=" M 143.96 256.37 C 145.99 255.96 148.02 255.57 150.06 255.19 C 149.85 255.54 149.44 256.22 149.24 256.56 C 148.92 256.92 148.28 257.63 147.96 257.99 C 146.16 258.72 146.52 261.52 148.66 261.13 C 150.12 261.35 151.72 261.32 153.02 262.10 C 153.70 263.03 154.20 264.06 154.76 265.07 L 153.96 265.02 C 153.62 265.00 152.94 264.95 152.60 264.93 C 151.95 264.88 150.64 264.78 149.99 264.73 C 149.83 266.59 149.71 268.45 149.62 270.32 C 147.11 269.15 144.46 268.33 141.96 267.13 C 142.12 266.58 142.43 265.49 142.59 264.94 C 142.47 264.33 142.23 263.10 142.11 262.48 L 141.96 261.63 C 143.31 262.49 144.69 263.31 146.08 264.13 C 145.28 261.57 144.55 258.98 143.96 256.37 Z" />
</g>
<g id="#aba9acff">
<path fill="#aba9ac" opacity="1.00" d=" M 148.66 261.13 C 146.52 261.52 146.16 258.72 147.96 257.99 L 148.78 258.34 C 148.90 258.86 149.14 259.89 149.26 260.41 L 148.66 261.13 Z" />
</g>
<g id="#68666bff">
<path fill="#68666b" opacity="1.00" d=" M 160.27 262.54 C 161.21 261.91 162.15 261.29 163.10 260.67 C 163.34 263.90 163.57 267.14 163.56 270.38 C 161.83 268.07 160.83 265.35 160.27 262.54 Z" />
</g>
<g id="#658ab2ff">
<path fill="#658ab2" opacity="1.00" d=" M 136.68 265.79 C 137.81 263.70 139.67 262.26 141.96 261.63 L 142.11 262.48 C 140.33 263.62 138.49 264.68 136.68 265.79 Z" />
</g>
<g id="#ddf7fcff">
<path fill="#ddf7fc" opacity="1.00" d=" M 136.68 265.79 C 138.49 264.68 140.33 263.62 142.11 262.48 C 142.23 263.10 142.47 264.33 142.59 264.94 C 140.61 266.51 138.62 268.05 136.68 269.66 C 136.26 268.96 135.41 267.56 134.99 266.86 C 135.41 266.59 136.26 266.06 136.68 265.79 Z" />
</g>
<g id="#7d99c7ff">
<path fill="#7d99c7" opacity="1.00" d=" M 136.68 269.66 C 138.62 268.05 140.61 266.51 142.59 264.94 C 142.43 265.49 142.12 266.58 141.96 267.13 C 140.82 269.31 138.33 269.84 136.10 270.13 L 136.68 269.66 Z" />
</g>
<g id="#7f7e84ff">
<path fill="#7f7e84" opacity="1.00" d=" M 152.60 264.93 C 152.94 264.95 153.62 265.00 153.96 265.02 C 154.20 265.30 154.66 265.85 154.90 266.13 C 155.47 268.99 151.14 266.61 152.60 264.93 Z" />
</g>
<g id="#959399ff">
<path fill="#959399" opacity="1.00" d=" M 156.40 266.12 L 157.11 265.70 L 157.82 266.11 L 157.83 266.93 L 157.12 267.35 L 156.40 266.95 L 156.40 266.12 Z" />
</g>
<g id="#b9b7b9ff">
<path fill="#b9b7b9" opacity="1.00" d=" M 133.03 271.14 L 133.86 270.80 L 134.69 271.14 L 135.03 271.97 L 134.68 272.80 L 133.85 273.15 L 133.02 272.80 L 132.68 271.97 L 133.03 271.14 Z" />
</g>
<g id="#5d5c60ff">
<path fill="#5d5c60" opacity="1.00" d=" M 141.19 277.70 C 143.31 275.73 145.65 274.02 148.16 272.57 C 149.04 274.70 149.67 276.93 150.00 279.21 C 149.53 278.04 149.02 276.88 148.51 275.73 C 148.33 276.20 147.96 277.13 147.78 277.59 C 146.69 278.26 145.51 278.78 144.30 279.18 C 143.96 278.93 143.27 278.44 142.92 278.19 L 142.18 278.37 L 141.94 279.02 L 142.37 279.65 C 142.78 279.73 143.59 279.88 143.99 279.96 C 144.77 280.69 145.47 281.50 146.18 282.30 C 145.72 282.39 144.80 282.59 144.34 282.68 C 144.34 283.49 144.33 284.31 144.33 285.12 C 140.44 282.74 135.24 278.95 136.90 273.72 C 138.44 274.92 139.88 276.24 141.19 277.70 Z" />
</g>
<g id="#888486ff">
<path fill="#888486" opacity="1.00" d=" M 106.19 275.17 C 106.90 275.15 108.30 275.10 109.00 275.08 C 109.03 275.83 109.09 277.33 109.12 278.08 C 108.39 278.02 106.91 277.91 106.18 277.86 C 106.18 277.19 106.19 275.84 106.19 275.17 Z" />
</g>
<g id="#7b7a83ff">
<path fill="#7b7a83" opacity="1.00" d=" M 116.33 276.10 L 117.05 275.69 L 117.76 276.11 L 117.76 276.93 L 117.04 277.34 L 116.33 276.93 L 116.33 276.10 Z" />
</g>
<g id="#7c7a7dff">
<path fill="#7c7a7d" opacity="1.00" d=" M 148.51 275.73 C 149.02 276.88 149.53 278.04 150.00 279.21 C 150.51 280.89 149.24 282.22 148.33 283.46 C 148.06 281.51 147.71 279.56 147.78 277.59 C 147.96 277.13 148.33 276.20 148.51 275.73 Z" />
</g>
<g id="#919095ff">
<path fill="#919095" opacity="1.00" d=" M 142.92 278.19 C 143.27 278.44 143.96 278.93 144.30 279.18 L 143.99 279.96 C 143.59 279.88 142.78 279.73 142.37 279.65 L 141.94 279.02 L 142.18 278.37 L 142.92 278.19 Z" />
</g>
<g id="#2f3037ff">
<path fill="#2f3037" opacity="1.00" d=" M 123.40 278.93 C 126.19 279.17 128.97 279.49 131.73 279.91 C 130.51 282.49 129.27 285.08 128.21 287.74 L 127.93 288.47 L 128.51 289.04 C 128.86 288.82 129.56 288.37 129.91 288.15 C 131.02 287.92 132.13 287.70 133.24 287.49 C 131.80 288.61 130.35 289.73 128.87 290.79 C 128.05 290.19 127.08 289.72 126.47 288.88 C 125.31 286.79 124.29 284.62 123.38 282.41 L 123.14 281.54 C 123.20 280.89 123.33 279.58 123.40 278.93 Z" />
</g>
<g id="#8b898eff">
<path fill="#8b898e" opacity="1.00" d=" M 118.41 280.31 C 119.99 280.70 121.56 281.11 123.14 281.54 L 123.38 282.41 C 123.49 283.22 123.70 284.86 123.80 285.67 C 121.57 284.36 119.74 282.53 118.41 280.31 Z" />
</g>
<g id="#6f6c71ff">
<path fill="#6f6c71" opacity="1.00" d=" M 111.23 281.16 C 112.41 281.50 113.59 281.84 114.77 282.19 C 114.78 282.82 114.80 284.09 114.81 284.72 C 113.62 284.72 112.44 284.72 111.26 284.72 C 111.25 283.53 111.24 282.35 111.23 281.16 Z" />
</g>
<g id="#74747aff">
<path fill="#74747a" opacity="1.00" d=" M 134.83 288.77 C 134.88 287.42 135.58 286.64 136.94 286.44 C 137.39 287.63 137.81 288.84 138.20 290.06 C 137.06 289.66 135.94 289.23 134.83 288.77 Z" />
</g>
<g id="#89888aff">
<path fill="#89888a" opacity="1.00" d=" M 128.21 287.74 C 128.64 287.84 129.49 288.05 129.91 288.15 C 129.56 288.37 128.86 288.82 128.51 289.04 L 127.93 288.47 L 128.21 287.74 Z" />
</g>
<g id="#939193ff">
<path fill="#939193" opacity="1.00" d=" M 117.30 288.96 C 119.18 288.31 120.03 291.46 118.11 291.89 C 116.23 292.52 115.39 289.40 117.30 288.96 Z" />
</g>
<g id="#a2a0a7ff">
<path fill="#a2a0a7" opacity="1.00" d=" M 128.05 293.01 C 128.78 293.00 130.24 292.99 130.97 292.98 C 130.97 293.70 130.96 295.13 130.96 295.85 C 130.24 295.85 128.80 295.84 128.08 295.84 C 128.07 295.13 128.05 293.72 128.05 293.01 Z" />
</g>
</svg>
