<?xml version="1.0" encoding="UTF-8" ?>
<!DOCTYPE svg PUBLIC "-//W3C//DTD SVG 1.1//EN" "http://www.w3.org/Graphics/SVG/1.1/DTD/svg11.dtd">
<svg width="384pt" height="384pt" viewBox="0 0 384 384" version="1.1" xmlns="http://www.w3.org/2000/svg">
<g id="#2f2e2ffe">
<path fill="#2f2e2f" opacity="1.00" d=" M 167.66 133.62 C 170.52 133.34 173.45 133.17 176.24 133.97 C 184.12 136.14 191.25 140.27 198.74 143.45 C 201.64 144.72 204.80 145.10 207.90 145.62 C 210.46 145.97 212.69 147.35 215.11 148.13 C 218.64 148.41 222.11 147.15 225.65 147.49 C 227.18 147.84 228.41 148.92 229.73 149.72 C 226.11 150.48 222.52 151.44 218.82 151.70 C 215.88 151.94 213.14 150.63 210.55 149.43 L 209.82 149.05 C 208.80 148.51 207.78 147.95 206.78 147.39 C 206.74 147.02 206.65 146.28 206.61 145.91 C 205.65 146.94 204.69 147.97 203.74 149.01 C 198.01 147.49 192.43 145.48 187.08 142.94 C 187.33 141.64 187.58 140.33 187.82 139.03 C 186.89 139.16 185.95 139.28 185.02 139.41 C 182.31 137.90 179.39 136.74 176.27 136.48 C 173.49 136.23 170.74 135.54 168.36 134.01 L 167.66 133.62 Z" />
</g>
<g id="#3f3e3fff">
<path fill="#3f3e3f" opacity="1.00" d=" M 168.36 134.01 C 170.74 135.54 173.49 136.23 176.27 136.48 C 176.10 137.06 175.74 138.22 175.56 138.80 C 173.33 139.12 171.03 139.30 168.92 140.13 C 167.01 141.00 165.53 142.53 163.98 143.89 C 164.56 140.84 165.24 137.82 165.88 134.79 C 166.50 134.60 167.74 134.20 168.36 134.01 Z" />
</g>
<g id="#272627ff">
<path fill="#272627" opacity="1.00" d=" M 162.45 139.27 C 162.52 137.16 164.51 136.06 165.88 134.79 C 165.24 137.82 164.56 140.84 163.98 143.89 C 163.85 144.61 163.60 146.04 163.48 146.76 C 165.55 145.15 167.50 143.30 169.91 142.19 C 172.32 141.23 174.93 140.98 177.46 140.52 C 179.55 142.34 181.86 143.88 184.19 145.36 L 184.05 146.19 C 183.95 146.55 183.76 147.26 183.67 147.61 C 181.14 149.00 178.40 150.25 176.55 152.54 C 174.84 154.64 173.51 157.01 172.08 159.29 C 166.82 153.99 161.71 147.15 162.45 139.27 Z" />
</g>
<g id="#6a686aff">
<path fill="#6a686a" opacity="1.00" d=" M 176.27 136.48 C 179.39 136.74 182.31 137.90 185.02 139.41 C 184.74 141.39 184.49 143.38 184.19 145.36 C 181.86 143.88 179.55 142.34 177.46 140.52 C 176.99 140.09 176.03 139.23 175.56 138.80 C 175.74 138.22 176.10 137.06 176.27 136.48 Z" />
</g>
<g id="#5791a1ff">
<path fill="#5791a1" opacity="1.00" d=" M 168.92 140.13 C 171.03 139.30 173.33 139.12 175.56 138.80 C 176.03 139.23 176.99 140.09 177.46 140.52 C 174.93 140.98 172.32 141.23 169.91 142.19 C 167.50 143.30 165.55 145.15 163.48 146.76 C 163.60 146.04 163.85 144.61 163.98 143.89 C 165.53 142.53 167.01 141.00 168.92 140.13 Z" />
</g>
<g id="#6dbbcfff">
<path fill="#6dbbcf" opacity="1.00" d=" M 185.02 139.41 C 185.95 139.28 186.89 139.16 187.82 139.03 C 187.58 140.33 187.33 141.64 187.08 142.94 C 186.06 144.01 185.03 145.08 184.05 146.19 L 184.19 145.36 C 184.49 143.38 184.74 141.39 185.02 139.41 Z" />
</g>
<g id="#605e60ff">
<path fill="#605e60" opacity="1.00" d=" M 184.05 146.19 C 185.03 145.08 186.06 144.01 187.08 142.94 C 192.43 145.48 198.01 147.49 203.74 149.01 C 203.35 150.45 202.97 151.89 202.58 153.34 C 197.39 150.99 191.94 149.27 186.35 148.18 C 185.68 148.04 184.34 147.75 183.67 147.61 C 183.76 147.26 183.95 146.55 184.05 146.19 Z" />
</g>
<g id="#558e9efe">
<path fill="#558e9e" opacity="1.00" d=" M 203.74 149.01 C 204.69 147.97 205.65 146.94 206.61 145.91 C 206.65 146.28 206.74 147.02 206.78 147.39 C 206.21 150.26 205.46 153.10 204.80 155.96 C 204.03 155.11 203.31 154.22 202.58 153.34 C 202.97 151.89 203.35 150.45 203.74 149.01 Z" />
</g>
<g id="#3d7f90fb">
<path fill="#3d7f90" opacity="1.00" d=" M 176.55 152.54 C 178.40 150.25 181.14 149.00 183.67 147.61 C 184.34 147.75 185.68 148.04 186.35 148.18 C 183.96 149.52 181.48 150.74 179.33 152.44 C 176.73 154.50 175.67 157.78 174.40 160.71 C 173.49 160.47 172.64 160.09 172.08 159.29 C 173.51 157.01 174.84 154.64 176.55 152.54 Z" />
</g>
<g id="#575859ff">
<path fill="#575859" opacity="1.00" d=" M 204.80 155.96 C 205.46 153.10 206.21 150.26 206.78 147.39 C 207.78 147.95 208.80 148.51 209.82 149.05 C 209.08 151.72 208.30 154.37 207.48 157.02 C 206.57 156.70 205.68 156.35 204.80 155.96 Z" />
</g>
<g id="#1b1b1bff">
<path fill="#1b1b1b" opacity="1.00" d=" M 179.33 152.44 C 181.48 150.74 183.96 149.52 186.35 148.18 C 191.94 149.27 197.39 150.99 202.58 153.34 C 203.31 154.22 204.03 155.11 204.80 155.96 C 205.68 156.35 206.57 156.70 207.48 157.02 C 208.63 156.82 209.78 156.58 210.92 156.33 C 213.47 157.67 215.95 159.12 218.40 160.63 C 217.35 161.23 216.31 161.84 215.27 162.44 C 214.76 162.13 213.73 161.50 213.21 161.18 C 208.81 158.20 203.74 156.48 198.70 154.93 C 199.18 157.19 199.68 159.44 200.19 161.69 C 203.57 161.69 206.96 161.74 210.34 161.57 C 208.51 161.84 206.69 162.17 204.85 162.39 C 202.61 162.58 200.36 162.78 198.12 162.82 C 197.56 162.69 196.46 162.43 195.91 162.30 C 194.60 160.20 193.71 157.05 190.82 156.77 C 187.55 156.02 185.15 158.88 182.61 160.41 C 180.62 161.47 178.61 162.50 176.60 163.51 C 176.05 162.81 174.95 161.41 174.40 160.71 C 175.67 157.78 176.73 154.50 179.33 152.44 Z" />
<path fill="#1b1b1b" opacity="1.00" d=" M 137.99 199.79 C 144.59 200.35 151.02 202.01 157.27 204.15 C 157.18 204.86 157.02 206.29 156.93 207.00 C 156.58 207.17 155.88 207.49 155.53 207.65 C 154.96 207.86 153.82 208.27 153.26 208.48 C 152.11 208.54 150.97 208.56 149.82 208.54 C 148.95 208.31 148.08 208.07 147.22 207.80 C 143.16 206.45 139.03 205.22 134.75 204.88 C 131.49 204.62 128.27 205.29 125.02 205.38 C 122.28 205.50 119.86 204.00 117.41 202.99 C 118.03 202.66 119.26 201.99 119.87 201.66 C 120.26 201.44 121.04 200.98 121.43 200.75 C 121.79 201.00 122.51 201.49 122.87 201.73 C 127.76 204.12 133.31 204.11 138.60 204.81 C 138.38 203.13 138.15 201.46 137.99 199.79 Z" />
</g>
<g id="#5e7b85ff">
<path fill="#5e7b85" opacity="1.00" d=" M 209.82 149.05 L 210.55 149.43 C 210.76 151.73 210.83 154.03 210.92 156.33 C 209.78 156.58 208.63 156.82 207.48 157.02 C 208.30 154.37 209.08 151.72 209.82 149.05 Z" />
</g>
<g id="#303030ff">
<path fill="#303030" opacity="1.00" d=" M 210.55 149.43 C 213.14 150.63 215.88 151.94 218.82 151.70 C 222.52 151.44 226.11 150.48 229.73 149.72 C 230.57 150.53 231.43 151.34 232.28 152.14 C 232.08 154.49 231.91 156.84 231.77 159.20 C 231.43 159.03 230.75 158.67 230.41 158.50 C 230.40 157.85 230.39 156.56 230.38 155.91 C 228.02 154.81 225.65 153.73 223.29 152.65 C 222.95 153.24 222.27 154.41 221.93 155.00 C 223.36 155.60 224.79 156.21 226.24 156.78 C 224.56 157.44 222.92 158.18 221.28 158.92 C 222.91 159.42 224.55 159.92 226.19 160.42 C 223.56 160.22 220.94 160.49 218.34 160.81 C 221.26 162.01 224.39 162.62 227.55 162.76 L 226.70 163.18 C 223.12 163.45 219.49 163.42 215.95 162.81 L 215.27 162.44 C 216.31 161.84 217.35 161.23 218.40 160.63 C 215.95 159.12 213.47 157.67 210.92 156.33 C 210.83 154.03 210.76 151.73 210.55 149.43 Z" />
</g>
<g id="#121212bd">
<path fill="#121212" opacity="0.74" d=" M 232.28 152.14 C 233.80 155.25 233.73 158.70 232.97 162.00 C 232.39 161.86 231.24 161.59 230.67 161.45 C 229.18 161.08 227.69 160.71 226.19 160.42 C 226.47 159.31 226.76 158.20 227.05 157.09 C 228.18 157.53 229.30 158.00 230.41 158.50 C 230.75 158.67 231.43 159.03 231.77 159.20 C 231.91 156.84 232.08 154.49 232.28 152.14 Z" />
</g>
<g id="#4a494aff">
<path fill="#4a494a" opacity="1.00" d=" M 223.29 152.65 C 225.65 153.73 228.02 154.81 230.38 155.91 C 230.39 156.56 230.40 157.85 230.41 158.50 C 229.30 158.00 228.18 157.53 227.05 157.09 L 226.24 156.78 C 224.79 156.21 223.36 155.60 221.93 155.00 C 222.27 154.41 222.95 153.24 223.29 152.65 Z" />
</g>
<g id="#3b3a3bff">
<path fill="#3b3a3b" opacity="1.00" d=" M 182.61 160.41 C 185.15 158.88 187.55 156.02 190.82 156.77 C 193.71 157.05 194.60 160.20 195.91 162.30 C 191.52 161.40 187.07 160.82 182.61 160.41 Z" />
</g>
<g id="#0a0a0a82">
<path fill="#0a0a0a" opacity="0.51" d=" M 221.28 158.92 C 222.92 158.18 224.56 157.44 226.24 156.78 L 227.05 157.09 C 226.76 158.20 226.47 159.31 226.19 160.42 C 224.55 159.92 222.91 159.42 221.28 158.92 Z" />
</g>
<g id="#484748fe">
<path fill="#484748" opacity="1.00" d=" M 218.34 160.81 C 220.94 160.49 223.56 160.22 226.19 160.42 C 227.69 160.71 229.18 161.08 230.67 161.45 C 229.89 161.78 228.33 162.43 227.55 162.76 C 224.39 162.62 221.26 162.01 218.34 160.81 Z" />
</g>
<g id="#538c9cff">
<path fill="#538c9c" opacity="1.00" d=" M 176.60 163.51 C 178.61 162.50 180.62 161.47 182.61 160.41 C 187.07 160.82 191.52 161.40 195.91 162.30 C 196.46 162.43 197.56 162.69 198.12 162.82 C 199.44 163.53 200.74 164.29 202.04 165.05 C 198.86 164.81 195.69 164.51 192.53 164.08 C 189.72 163.71 186.90 163.33 184.06 163.22 C 183.04 163.24 182.02 163.29 181.00 163.37 C 179.31 163.50 177.62 163.67 175.93 163.84 L 176.60 163.51 Z" />
</g>
<g id="#78afb7e0">
<path fill="#78afb7" opacity="0.88" d=" M 210.34 161.57 C 211.06 161.47 212.49 161.28 213.21 161.18 C 213.73 161.50 214.76 162.13 215.27 162.44 L 215.95 162.81 C 215.88 164.64 215.80 166.47 215.71 168.30 C 215.20 168.65 214.19 169.36 213.68 169.71 C 211.36 166.62 208.68 163.56 204.85 162.39 C 206.69 162.17 208.51 161.84 210.34 161.57 M 210.68 162.05 C 211.20 163.91 211.60 165.83 212.49 167.56 C 213.20 167.80 214.62 168.28 215.33 168.52 C 214.94 166.41 214.48 164.31 214.01 162.21 C 213.18 162.17 211.51 162.09 210.68 162.05 Z" />
</g>
<g id="#f7ffffff">
<path fill="#f7ffff" opacity="1.00" d=" M 210.68 162.05 C 211.51 162.09 213.18 162.17 214.01 162.21 C 214.48 164.31 214.94 166.41 215.33 168.52 C 214.62 168.28 213.20 167.80 212.49 167.56 C 211.60 165.83 211.20 163.91 210.68 162.05 Z" />
<path fill="#f7ffff" opacity="1.00" d=" M 214.88 194.18 C 215.07 192.68 216.78 192.40 217.87 191.81 C 217.80 194.74 217.33 197.63 216.79 200.50 C 216.08 200.68 214.65 201.04 213.94 201.22 C 214.18 198.86 214.30 196.48 214.88 194.18 Z" />
</g>
<g id="#454349ff">
<path fill="#454349" opacity="1.00" d=" M 181.00 163.37 C 182.02 163.29 183.04 163.24 184.06 163.22 C 184.91 164.88 185.76 166.53 186.62 168.18 C 188.60 166.83 190.57 165.46 192.53 164.08 C 195.69 164.51 198.86 164.81 202.04 165.05 C 200.74 164.29 199.44 163.53 198.12 162.82 C 200.36 162.78 202.61 162.58 204.85 162.39 C 208.68 163.56 211.36 166.62 213.68 169.71 L 213.02 170.20 C 208.69 174.09 203.35 177.54 200.93 183.02 C 201.41 186.76 205.46 188.09 208.02 190.20 C 210.10 191.24 209.87 193.79 210.25 195.75 C 211.06 196.55 211.89 197.34 212.72 198.14 C 212.21 199.67 211.71 201.20 211.27 202.76 L 211.07 203.49 C 210.67 203.30 209.87 202.92 209.48 202.73 C 209.02 201.88 208.57 201.03 208.12 200.19 C 207.43 200.89 206.75 201.59 206.06 202.29 L 205.51 202.86 C 203.59 202.49 201.68 202.11 199.77 201.71 C 201.17 200.09 202.56 198.47 203.92 196.82 C 202.52 196.83 201.11 196.74 199.73 197.00 C 197.04 198.86 195.01 201.60 192.05 203.11 C 186.95 205.76 181.32 207.13 175.83 208.71 C 171.18 210.04 166.87 212.46 162.03 213.12 C 161.78 211.74 160.33 210.94 159.00 211.10 C 158.28 211.06 156.84 210.99 156.13 210.96 C 155.98 210.13 155.68 208.48 155.53 207.65 C 155.88 207.49 156.58 207.17 156.93 207.00 C 157.47 206.75 158.54 206.24 159.07 205.98 C 161.77 204.72 164.64 203.92 167.53 203.22 C 169.28 202.60 171.73 202.75 172.89 201.15 C 174.17 196.93 174.33 192.47 174.83 188.11 C 175.44 191.42 176.16 194.71 176.86 198.00 C 178.00 197.75 179.14 197.50 180.28 197.27 C 182.20 196.86 184.13 196.48 186.07 196.10 C 186.70 195.97 187.96 195.73 188.59 195.60 C 188.01 192.90 187.16 190.16 187.48 187.37 C 188.17 183.32 190.52 179.82 191.59 175.88 C 191.39 175.67 190.98 175.24 190.78 175.02 C 185.30 176.74 180.01 179.16 174.27 179.93 C 174.74 180.75 175.21 181.56 175.68 182.38 L 174.96 182.47 C 174.59 182.39 173.84 182.23 173.46 182.14 C 168.35 180.44 163.31 182.76 158.65 184.68 C 157.15 185.28 155.40 185.65 153.95 184.69 L 153.50 183.97 C 153.91 183.55 154.74 182.71 155.15 182.29 C 156.83 180.47 158.91 179.04 161.25 178.20 C 168.91 175.45 176.17 171.58 184.16 169.80 C 183.11 167.65 182.06 165.51 181.00 163.37 Z" />
</g>
<g id="#5d5b5cff">
<path fill="#5d5b5c" opacity="1.00" d=" M 184.06 163.22 C 186.90 163.33 189.72 163.71 192.53 164.08 C 190.57 165.46 188.60 166.83 186.62 168.18 C 185.76 166.53 184.91 164.88 184.06 163.22 Z" />
</g>
<g id="#57565eff">
<path fill="#57565e" opacity="1.00" d=" M 215.95 162.81 C 219.49 163.42 223.12 163.45 226.70 163.18 L 227.80 163.14 C 226.48 163.75 225.17 164.45 223.73 164.72 C 222.00 164.66 220.28 164.62 218.56 164.57 C 222.26 166.88 225.73 169.55 228.81 172.65 C 230.56 174.60 233.27 174.85 235.69 175.32 C 234.77 176.71 234.29 178.55 232.81 179.47 C 229.33 178.54 226.10 176.90 223.05 175.01 C 221.66 177.11 220.24 179.18 218.99 181.37 C 218.29 177.74 217.71 174.09 217.23 170.44 C 215.82 170.35 214.42 170.27 213.02 170.20 L 213.68 169.71 C 214.19 169.36 215.20 168.65 215.71 168.30 C 215.80 166.47 215.88 164.64 215.95 162.81 Z" />
</g>
<g id="#181819ff">
<path fill="#181819" opacity="1.00" d=" M 175.93 163.84 C 177.62 163.67 179.31 163.50 181.00 163.37 C 182.06 165.51 183.11 167.65 184.16 169.80 C 176.17 171.58 168.91 175.45 161.25 178.20 C 164.02 176.31 167.09 174.83 169.62 172.60 C 172.21 170.07 174.00 166.87 175.93 163.84 Z" />
</g>
<g id="#454349fa">
<path fill="#454349" opacity="0.98" d=" M 218.56 164.57 C 220.28 164.62 222.00 164.66 223.73 164.72 C 227.07 165.91 230.20 167.72 233.01 169.88 C 234.80 171.11 235.02 173.43 235.69 175.32 C 233.27 174.85 230.56 174.60 228.81 172.65 C 225.73 169.55 222.26 166.88 218.56 164.57 Z" />
</g>
<g id="#6a676fff">
<path fill="#6a676f" opacity="1.00" d=" M 200.93 183.02 C 203.35 177.54 208.69 174.09 213.02 170.20 C 212.74 173.21 212.50 176.23 212.46 179.27 C 212.47 181.35 212.49 183.45 212.96 185.49 C 213.42 187.76 215.21 189.27 216.97 190.59 L 217.50 191.04 C 216.86 191.20 215.57 191.54 214.93 191.71 C 214.19 193.85 213.45 195.99 212.72 198.14 C 211.89 197.34 211.06 196.55 210.25 195.75 C 209.87 193.79 210.10 191.24 208.02 190.20 C 205.46 188.09 201.41 186.76 200.93 183.02 Z" />
</g>
<g id="#9bd2daff">
<path fill="#9bd2da" opacity="1.00" d=" M 213.02 170.20 C 214.42 170.27 215.82 170.35 217.23 170.44 C 217.71 174.09 218.29 177.74 218.99 181.37 C 219.05 181.75 219.18 182.52 219.24 182.90 C 218.72 185.53 217.91 188.08 216.97 190.59 C 215.21 189.27 213.42 187.76 212.96 185.49 C 214.30 186.93 215.74 188.28 217.23 189.57 C 217.47 187.31 218.19 184.91 217.45 182.69 C 216.03 181.23 214.20 180.28 212.46 179.27 C 212.50 176.23 212.74 173.21 213.02 170.20 M 213.96 170.33 C 213.85 172.91 213.85 175.50 213.89 178.08 C 214.74 178.08 216.45 178.06 217.31 178.06 C 216.76 175.27 217.23 171.50 213.96 170.33 Z" />
</g>
<g id="#fdffffff">
<path fill="#fdffff" opacity="1.00" d=" M 213.96 170.33 C 217.23 171.50 216.76 175.27 217.31 178.06 C 216.45 178.06 214.74 178.08 213.89 178.08 C 213.85 175.50 213.85 172.91 213.96 170.33 Z" />
</g>
<g id="#4a474cff">
<path fill="#4a474c" opacity="1.00" d=" M 223.05 175.01 C 226.10 176.90 229.33 178.54 232.81 179.47 C 233.48 180.35 234.15 181.23 234.82 182.12 C 230.03 182.80 225.54 184.77 221.75 187.76 C 221.60 186.77 221.45 185.79 221.30 184.81 C 220.61 184.18 219.92 183.54 219.24 182.90 C 219.18 182.52 219.05 181.75 218.99 181.37 C 220.24 179.18 221.66 177.11 223.05 175.01 Z" />
</g>
<g id="#313337ff">
<path fill="#313337" opacity="1.00" d=" M 174.27 179.93 C 180.01 179.16 185.30 176.74 190.78 175.02 C 190.98 175.24 191.39 175.67 191.59 175.88 C 190.52 179.82 188.17 183.32 187.48 187.37 C 187.16 190.16 188.01 192.90 188.59 195.60 C 187.96 195.73 186.70 195.97 186.07 196.10 C 185.65 195.44 184.80 194.13 184.38 193.47 C 183.74 190.50 184.17 187.45 184.91 184.54 C 185.20 183.35 185.49 182.15 185.80 180.96 C 182.41 181.34 179.05 181.84 175.68 182.38 C 175.21 181.56 174.74 180.75 174.27 179.93 Z" />
</g>
<g id="#f9ffffff">
<path fill="#f9ffff" opacity="1.00" d=" M 212.46 179.27 C 214.20 180.28 216.03 181.23 217.45 182.69 C 218.19 184.91 217.47 187.31 217.23 189.57 C 215.74 188.28 214.30 186.93 212.96 185.49 C 212.49 183.45 212.47 181.35 212.46 179.27 Z" />
</g>
<g id="#121313ff">
<path fill="#121313" opacity="1.00" d=" M 158.65 184.68 C 163.31 182.76 168.35 180.44 173.46 182.14 C 173.98 184.12 174.51 186.09 174.83 188.11 C 174.33 192.47 174.17 196.93 172.89 201.15 C 171.73 202.75 169.28 202.60 167.53 203.22 C 167.71 202.80 168.06 201.95 168.23 201.53 C 169.23 198.83 170.34 196.13 170.80 193.28 C 171.15 190.88 170.15 188.58 169.36 186.38 C 168.90 185.23 168.36 184.12 167.67 183.11 C 164.64 183.50 161.68 184.28 158.65 184.68 Z" />
</g>
<g id="#3f8895ff">
<path fill="#3f8895" opacity="1.00" d=" M 175.68 182.38 C 179.05 181.84 182.41 181.34 185.80 180.96 C 185.49 182.15 185.20 183.35 184.91 184.54 C 181.52 184.25 178.19 183.52 174.96 182.47 L 175.68 182.38 Z" />
</g>
<g id="#38363bee">
<path fill="#38363b" opacity="0.93" d=" M 143.54 184.51 C 147.29 183.24 151.25 182.85 155.15 182.29 C 154.74 182.71 153.91 183.55 153.50 183.97 C 151.86 183.03 150.60 185.20 151.91 186.37 L 152.33 187.12 C 150.58 187.44 148.84 187.76 147.10 188.08 C 146.76 186.71 146.43 185.35 146.10 183.98 C 145.25 184.14 144.39 184.32 143.54 184.51 Z" />
</g>
<g id="#255a65ff">
<path fill="#255a65" opacity="1.00" d=" M 173.46 182.14 C 173.84 182.23 174.59 182.39 174.96 182.47 C 178.19 183.52 181.52 184.25 184.91 184.54 C 184.17 187.45 183.74 190.50 184.38 193.47 C 182.99 194.71 181.62 195.97 180.28 197.27 C 179.14 197.50 178.00 197.75 176.86 198.00 C 176.16 194.71 175.44 191.42 174.83 188.11 C 174.51 186.09 173.98 184.12 173.46 182.14 Z" />
</g>
<g id="#57555dff">
<path fill="#57555d" opacity="1.00" d=" M 234.82 182.12 L 235.93 181.90 C 233.95 188.36 229.71 193.86 224.55 198.14 C 224.31 198.35 223.82 198.76 223.58 198.97 C 221.86 199.37 220.12 199.70 218.41 200.10 C 218.63 197.08 219.04 193.79 217.50 191.04 L 216.97 190.59 C 217.91 188.08 218.72 185.53 219.24 182.90 C 219.92 183.54 220.61 184.18 221.30 184.81 C 221.45 185.79 221.60 186.77 221.75 187.76 C 225.54 184.77 230.03 182.80 234.82 182.12 Z" />
</g>
<g id="#3d3b41f2">
<path fill="#3d3b41" opacity="0.95" d=" M 235.93 181.90 C 236.47 185.10 237.67 188.79 235.48 191.65 C 233.69 194.24 231.95 196.94 231.54 200.13 C 230.75 199.23 229.95 198.34 229.16 197.45 C 228.64 198.69 228.12 199.92 227.61 201.16 C 226.56 200.18 225.55 199.16 224.55 198.14 C 229.71 193.86 233.95 188.36 235.93 181.90 Z" />
</g>
<g id="#13131576">
<path fill="#131315" opacity="0.46" d=" M 143.54 184.51 C 144.39 184.32 145.25 184.14 146.10 183.98 C 146.43 185.35 146.76 186.71 147.10 188.08 C 148.84 187.76 150.58 187.44 152.33 187.12 C 150.18 188.28 147.99 189.87 145.42 189.66 C 143.50 188.64 142.96 186.49 143.54 184.51 Z" />
</g>
<g id="#2dcccfeb">
<path fill="#2dcccf" opacity="0.92" d=" M 151.91 186.37 C 150.60 185.20 151.86 183.03 153.50 183.97 L 153.95 184.69 L 153.62 185.63 C 153.19 185.82 152.34 186.19 151.91 186.37 Z" />
</g>
<g id="#444547ff">
<path fill="#444547" opacity="1.00" d=" M 167.44 188.18 C 167.92 187.73 168.88 186.83 169.36 186.38 C 170.15 188.58 171.15 190.88 170.80 193.28 C 170.34 196.13 169.23 198.83 168.23 201.53 C 166.14 200.14 164.06 198.76 161.98 197.36 C 163.90 194.36 165.69 191.28 167.44 188.18 Z" />
</g>
<g id="#4d8493e7">
<path fill="#4d8493" opacity="0.91" d=" M 162.22 194.11 C 164.12 192.26 164.92 189.39 167.44 188.18 C 165.69 191.28 163.90 194.36 161.98 197.36 C 160.38 199.98 159.66 203.00 159.07 205.98 C 158.54 206.24 157.47 206.75 156.93 207.00 C 157.02 206.29 157.18 204.86 157.27 204.15 C 157.75 201.30 158.63 198.55 159.58 195.84 C 160.48 195.29 161.36 194.72 162.22 194.11 Z" />
</g>
<g id="#515153ff">
<path fill="#515153" opacity="1.00" d=" M 115.39 192.52 C 118.59 192.07 121.78 191.56 124.95 190.92 C 123.94 192.11 122.99 193.36 122.21 194.71 C 122.15 197.07 122.57 199.40 122.87 201.73 C 122.51 201.49 121.79 201.00 121.43 200.75 C 121.24 198.39 121.07 196.03 120.90 193.68 C 119.99 194.53 119.08 195.38 118.17 196.24 C 118.73 198.05 119.30 199.85 119.87 201.66 C 119.26 201.99 118.03 202.66 117.41 202.99 L 116.54 203.45 C 115.99 199.82 115.64 196.17 115.39 192.52 Z" />
</g>
<g id="#191918fe">
<path fill="#191918" opacity="1.00" d=" M 124.95 190.92 C 130.27 189.98 135.43 191.93 140.63 192.68 C 147.77 193.87 155.04 193.30 162.22 194.11 C 161.36 194.72 160.48 195.29 159.58 195.84 C 152.81 197.43 145.70 197.51 138.90 196.05 L 139.26 195.37 C 139.69 194.63 140.14 193.90 140.59 193.17 C 135.06 192.82 129.04 190.78 123.88 193.78 C 123.46 194.01 122.63 194.48 122.21 194.71 C 122.99 193.36 123.94 192.11 124.95 190.92 Z" />
</g>
<g id="#99d7e0ff">
<path fill="#99d7e0" opacity="1.00" d=" M 214.93 191.71 C 215.57 191.54 216.86 191.20 217.50 191.04 C 219.04 193.79 218.63 197.08 218.41 200.10 L 218.27 201.10 C 216.16 202.41 213.73 202.91 211.27 202.76 C 211.71 201.20 212.21 199.67 212.72 198.14 C 213.45 195.99 214.19 193.85 214.93 191.71 M 214.88 194.18 C 214.30 196.48 214.18 198.86 213.94 201.22 C 214.65 201.04 216.08 200.68 216.79 200.50 C 217.33 197.63 217.80 194.74 217.87 191.81 C 216.78 192.40 215.07 192.68 214.88 194.18 Z" />
</g>
<g id="#5db8cbee">
<path fill="#5db8cb" opacity="0.93" d=" M 114.07 193.47 C 114.38 192.98 114.99 191.98 115.30 191.49 L 115.39 192.52 C 115.64 196.17 115.99 199.82 116.54 203.45 C 115.11 202.00 112.62 200.94 112.61 198.62 C 113.07 196.90 113.57 195.18 114.07 193.47 Z" />
</g>
<g id="#525153ff">
<path fill="#525153" opacity="1.00" d=" M 123.88 193.78 C 129.04 190.78 135.06 192.82 140.59 193.17 C 140.14 193.90 139.69 194.63 139.26 195.37 C 135.99 194.59 132.67 193.48 129.27 193.82 C 128.13 195.04 127.26 196.47 126.32 197.85 C 129.23 200.57 132.95 202.07 136.89 202.48 C 137.23 201.29 137.58 200.11 137.94 198.93 L 137.99 199.79 C 138.15 201.46 138.38 203.13 138.60 204.81 C 133.31 204.11 127.76 204.12 122.87 201.73 C 123.30 199.09 123.64 196.44 123.88 193.78 Z" />
</g>
<g id="#1f3d4695">
<path fill="#1f3d46" opacity="0.58" d=" M 112.61 198.62 C 110.79 197.42 111.62 192.75 114.07 193.47 C 113.57 195.18 113.07 196.90 112.61 198.62 Z" />
</g>
<g id="#838082ff">
<path fill="#838082" opacity="1.00" d=" M 129.27 193.82 C 132.67 193.48 135.99 194.59 139.26 195.37 L 138.90 196.05 C 138.54 196.99 138.22 197.95 137.94 198.93 C 137.58 200.11 137.23 201.29 136.89 202.48 C 132.95 202.07 129.23 200.57 126.32 197.85 C 127.26 196.47 128.13 195.04 129.27 193.82 Z" />
</g>
<g id="#61818bff">
<path fill="#61818b" opacity="1.00" d=" M 118.17 196.24 C 119.08 195.38 119.99 194.53 120.90 193.68 C 121.07 196.03 121.24 198.39 121.43 200.75 C 121.04 200.98 120.26 201.44 119.87 201.66 C 119.30 199.85 118.73 198.05 118.17 196.24 Z" />
</g>
<g id="#537884ff">
<path fill="#537884" opacity="1.00" d=" M 122.21 194.71 C 122.63 194.48 123.46 194.01 123.88 193.78 C 123.64 196.44 123.30 199.09 122.87 201.73 C 122.57 199.40 122.15 197.07 122.21 194.71 Z" />
</g>
<g id="#337480ff">
<path fill="#337480" opacity="1.00" d=" M 180.28 197.27 C 181.62 195.97 182.99 194.71 184.38 193.47 C 184.80 194.13 185.65 195.44 186.07 196.10 C 184.13 196.48 182.20 196.86 180.28 197.27 Z" />
</g>
<g id="#313131ff">
<path fill="#313131" opacity="1.00" d=" M 137.94 198.93 C 138.22 197.95 138.54 196.99 138.90 196.05 C 145.70 197.51 152.81 197.43 159.58 195.84 C 158.63 198.55 157.75 201.30 157.27 204.15 C 151.02 202.01 144.59 200.35 137.99 199.79 L 137.94 198.93 Z" />
</g>
<g id="#343436ff">
<path fill="#343436" opacity="1.00" d=" M 192.05 203.11 C 195.01 201.60 197.04 198.86 199.73 197.00 C 201.11 196.74 202.52 196.83 203.92 196.82 C 202.56 198.47 201.17 200.09 199.77 201.71 C 201.68 202.11 203.59 202.49 205.51 202.86 C 203.82 204.53 202.24 206.30 200.73 208.13 C 202.33 207.40 204.05 206.83 205.45 205.73 C 205.76 204.60 205.89 203.44 206.06 202.29 C 206.75 201.59 207.43 200.89 208.12 200.19 C 208.57 201.03 209.02 201.88 209.48 202.73 C 209.56 203.36 209.73 204.60 209.82 205.23 C 210.04 205.64 210.49 206.47 210.71 206.89 C 209.68 210.19 208.23 213.33 206.49 216.30 C 205.25 216.43 204.02 216.55 202.79 216.73 C 203.88 215.03 204.81 213.24 205.74 211.46 C 203.62 211.49 201.49 211.52 199.37 211.55 C 198.36 209.40 197.92 206.20 195.07 205.83 C 190.67 208.10 190.28 213.37 189.89 217.72 C 188.84 218.29 187.81 218.87 186.81 219.50 C 185.76 215.88 184.56 212.31 183.14 208.82 C 180.70 208.74 178.27 208.64 175.83 208.71 C 181.32 207.13 186.95 205.76 192.05 203.11 Z" />
</g>
<g id="#706f71ff">
<path fill="#706f71" opacity="1.00" d=" M 159.07 205.98 C 159.66 203.00 160.38 199.98 161.98 197.36 C 164.06 198.76 166.14 200.14 168.23 201.53 C 168.06 201.95 167.71 202.80 167.53 203.22 C 164.64 203.92 161.77 204.72 159.07 205.98 Z" />
</g>
<g id="#363a3fff">
<path fill="#363a3f" opacity="1.00" d=" M 218.41 200.10 C 220.12 199.70 221.86 199.37 223.58 198.97 C 222.09 200.60 220.71 202.31 219.32 204.00 C 219.93 204.43 220.54 204.86 221.16 205.29 C 220.06 206.45 218.97 207.62 217.88 208.80 C 219.19 208.93 220.50 209.08 221.81 209.22 C 220.58 210.40 219.36 211.59 218.16 212.80 C 216.96 214.01 215.77 215.24 214.53 216.42 L 213.60 216.41 C 213.72 215.94 213.96 215.00 214.08 214.53 C 214.98 211.56 216.11 208.66 217.05 205.70 C 217.50 204.18 217.92 202.65 218.27 201.10 L 218.41 200.10 Z" />
</g>
<g id="#6d6b6ef9">
<path fill="#6d6b6e" opacity="0.98" d=" M 227.61 201.16 C 228.12 199.92 228.64 198.69 229.16 197.45 C 229.95 198.34 230.75 199.23 231.54 200.13 C 232.04 200.71 233.03 201.86 233.53 202.44 C 231.54 202.09 229.55 201.71 227.61 201.16 Z" />
</g>
<g id="#29292cfe">
<path fill="#29292c" opacity="1.00" d=" M 223.58 198.97 C 223.82 198.76 224.31 198.35 224.55 198.14 C 225.55 199.16 226.56 200.18 227.61 201.16 C 229.55 201.71 231.54 202.09 233.53 202.44 C 233.82 202.49 234.40 202.59 234.69 202.64 C 234.37 204.96 233.84 207.32 234.25 209.66 C 234.79 212.20 236.00 214.51 237.13 216.83 C 235.78 214.90 234.57 212.88 233.26 210.93 C 231.56 208.43 229.15 206.57 226.70 204.87 C 227.59 206.82 228.52 208.75 229.46 210.69 C 226.65 208.96 223.86 207.18 221.16 205.29 C 220.54 204.86 219.93 204.43 219.32 204.00 C 220.71 202.31 222.09 200.60 223.58 198.97 Z" />
</g>
<g id="#516166ff">
<path fill="#516166" opacity="1.00" d=" M 211.27 202.76 C 213.73 202.91 216.16 202.41 218.27 201.10 C 217.92 202.65 217.50 204.18 217.05 205.70 C 215.16 206.54 213.27 207.38 211.38 208.23 C 211.21 207.90 210.88 207.23 210.71 206.89 C 210.49 206.47 210.04 205.64 209.82 205.23 C 210.13 204.79 210.76 203.92 211.07 203.49 L 211.27 202.76 Z" />
</g>
<g id="#666567ff">
<path fill="#666567" opacity="1.00" d=" M 205.51 202.86 L 206.06 202.29 C 205.89 203.44 205.76 204.60 205.45 205.73 C 204.05 206.83 202.33 207.40 200.73 208.13 C 202.24 206.30 203.82 204.53 205.51 202.86 Z" />
</g>
<g id="#509ab5ff">
<path fill="#509ab5" opacity="1.00" d=" M 209.48 202.73 C 209.87 202.92 210.67 203.30 211.07 203.49 C 210.76 203.92 210.13 204.79 209.82 205.23 C 209.73 204.60 209.56 203.36 209.48 202.73 Z" />
</g>
<g id="#5a90a4ff">
<path fill="#5a90a4" opacity="1.00" d=" M 211.38 208.23 C 213.27 207.38 215.16 206.54 217.05 205.70 C 216.11 208.66 214.98 211.56 214.08 214.53 C 213.28 212.39 212.37 210.29 211.38 208.23 Z" />
</g>
<g id="#615d5eff">
<path fill="#615d5e" opacity="1.00" d=" M 226.70 204.87 C 229.15 206.57 231.56 208.43 233.26 210.93 C 232.72 211.19 231.66 211.69 231.13 211.95 C 227.66 213.39 224.52 211.16 221.81 209.22 C 221.59 207.91 221.38 206.60 221.16 205.29 C 223.86 207.18 226.65 208.96 229.46 210.69 C 228.52 208.75 227.59 206.82 226.70 204.87 Z" />
</g>
<g id="#504e4fff">
<path fill="#504e4f" opacity="1.00" d=" M 189.89 217.72 C 190.28 213.37 190.67 208.10 195.07 205.83 C 197.92 206.20 198.36 209.40 199.37 211.55 L 199.64 212.31 C 196.48 214.28 193.19 216.01 189.89 217.72 Z" />
</g>
<g id="#5d8593ff">
<path fill="#5d8593" opacity="1.00" d=" M 217.88 208.80 C 218.97 207.62 220.06 206.45 221.16 205.29 C 221.38 206.60 221.59 207.91 221.81 209.22 C 220.50 209.08 219.19 208.93 217.88 208.80 Z" />
</g>
<g id="#497c8fff">
<path fill="#497c8f" opacity="1.00" d=" M 210.71 206.89 C 210.88 207.23 211.21 207.90 211.38 208.23 C 212.37 210.29 213.28 212.39 214.08 214.53 C 213.96 215.00 213.72 215.94 213.60 216.41 C 213.36 217.30 213.12 218.19 212.88 219.09 C 210.73 218.20 208.60 217.27 206.49 216.30 C 208.23 213.33 209.68 210.19 210.71 206.89 Z" />
</g>
<g id="#1e1d20a3">
<path fill="#1e1d20" opacity="0.64" d=" M 147.22 207.80 C 148.08 208.07 148.95 208.31 149.82 208.54 C 149.49 209.63 149.15 210.72 148.82 211.82 C 149.94 212.47 151.06 213.12 152.18 213.78 C 150.15 214.24 148.12 214.63 146.07 214.98 C 145.43 212.49 146.11 210.04 147.22 207.80 Z" />
</g>
<g id="#3b3a3ff6">
<path fill="#3b3a3f" opacity="0.96" d=" M 149.82 208.54 C 150.97 208.56 152.11 208.54 153.26 208.48 C 153.18 209.07 153.02 210.25 152.94 210.84 L 152.71 211.74 C 152.58 212.25 152.31 213.27 152.18 213.78 C 151.06 213.12 149.94 212.47 148.82 211.82 C 149.15 210.72 149.49 209.63 149.82 208.54 Z" />
</g>
<g id="#2bc0c3f9">
<path fill="#2bc0c3" opacity="0.98" d=" M 153.26 208.48 C 153.82 208.27 154.96 207.86 155.53 207.65 C 155.68 208.48 155.98 210.13 156.13 210.96 C 155.33 210.93 153.74 210.87 152.94 210.84 C 153.02 210.25 153.18 209.07 153.26 208.48 Z" />
</g>
<g id="#131313ff">
<path fill="#131313" opacity="1.00" d=" M 162.03 213.12 C 166.87 212.46 171.18 210.04 175.83 208.71 C 178.27 208.64 180.70 208.74 183.14 208.82 C 184.56 212.31 185.76 215.88 186.81 219.50 C 185.80 220.22 184.84 220.99 183.87 221.77 C 186.06 221.52 188.26 221.27 190.43 220.82 C 192.11 221.76 193.79 222.69 195.48 223.63 C 196.19 221.44 196.84 219.25 197.45 217.04 C 198.47 216.20 199.45 215.32 200.43 214.43 C 200.23 213.90 199.84 212.84 199.64 212.31 L 199.37 211.55 C 201.49 211.52 203.62 211.49 205.74 211.46 C 204.81 213.24 203.88 215.03 202.79 216.73 C 200.71 218.80 198.89 221.12 197.28 223.59 C 198.23 222.98 199.18 222.38 200.14 221.78 C 200.67 221.84 201.74 221.95 202.27 222.01 C 199.76 227.94 197.94 234.11 196.00 240.24 C 194.73 241.65 193.35 242.99 192.37 244.63 C 191.51 246.88 191.73 249.37 191.59 251.74 L 190.80 251.84 C 190.54 245.07 193.47 238.93 195.19 232.55 C 197.19 232.61 197.31 229.10 195.11 230.11 C 194.85 230.44 194.33 231.09 194.07 231.42 C 192.21 229.78 190.44 228.05 188.56 226.44 C 185.36 223.58 180.65 224.02 177.03 221.96 C 173.67 220.02 171.34 216.83 168.84 213.96 C 163.35 214.07 158.09 212.54 152.71 211.74 L 152.94 210.84 C 153.74 210.87 155.33 210.93 156.13 210.96 C 156.84 210.99 158.28 211.06 159.00 211.10 C 158.98 212.58 160.67 213.65 162.03 213.12 Z" />
</g>
<g id="#2b2c31ff">
<path fill="#2b2c31" opacity="1.00" d=" M 221.81 209.22 C 224.52 211.16 227.66 213.39 231.13 211.95 C 233.05 215.37 235.60 218.38 237.75 221.65 C 238.46 222.56 237.50 223.57 237.30 224.49 L 236.77 223.82 C 235.29 222.07 233.77 220.36 232.16 218.75 C 231.13 217.85 230.07 216.97 228.86 216.33 C 225.32 216.67 222.80 219.55 220.18 221.66 C 218.08 221.16 216.07 220.36 214.07 219.57 C 213.78 219.45 213.18 219.21 212.88 219.09 C 213.12 218.19 213.36 217.30 213.60 216.41 L 214.53 216.42 C 216.92 216.79 219.23 216.14 221.25 214.87 C 220.22 214.17 219.19 213.48 218.16 212.80 C 219.36 211.59 220.58 210.40 221.81 209.22 M 224.35 213.14 L 224.00 213.97 L 224.35 214.80 L 225.18 215.15 L 226.01 214.80 L 226.35 213.97 L 226.01 213.14 L 225.18 212.80 L 224.35 213.14 Z" />
</g>
<g id="#5092a3ff">
<path fill="#5092a3" opacity="1.00" d=" M 159.00 211.10 C 160.33 210.94 161.78 211.74 162.03 213.12 C 160.67 213.65 158.98 212.58 159.00 211.10 Z" />
</g>
<g id="#474647f6">
<path fill="#474647" opacity="0.96" d=" M 231.13 211.95 C 231.66 211.69 232.72 211.19 233.26 210.93 C 234.57 212.88 235.78 214.90 237.13 216.83 C 238.78 219.49 241.67 221.69 242.15 224.89 C 241.49 226.21 240.78 227.51 239.99 228.77 C 239.11 227.33 238.25 225.88 237.30 224.49 C 237.50 223.57 238.46 222.56 237.75 221.65 C 235.60 218.38 233.05 215.37 231.13 211.95 Z" />
</g>
<g id="#75a4b5ff">
<path fill="#75a4b5" opacity="1.00" d=" M 189.89 217.72 C 193.19 216.01 196.48 214.28 199.64 212.31 C 199.84 212.84 200.23 213.90 200.43 214.43 C 199.45 215.32 198.47 216.20 197.45 217.04 C 195.21 218.47 192.86 219.75 190.43 220.82 C 188.26 221.27 186.06 221.52 183.87 221.77 C 184.84 220.99 185.80 220.22 186.81 219.50 C 187.81 218.87 188.84 218.29 189.89 217.72 Z" />
</g>
<g id="#9e9da3ff">
<path fill="#9e9da3" opacity="1.00" d=" M 218.16 212.80 C 219.19 213.48 220.22 214.17 221.25 214.87 C 219.23 216.14 216.92 216.79 214.53 216.42 C 215.77 215.24 216.96 214.01 218.16 212.80 Z" />
</g>
<g id="#4a5e77ff">
<path fill="#4a5e77" opacity="1.00" d=" M 224.35 213.14 L 225.18 212.80 L 226.01 213.14 L 226.35 213.97 L 226.01 214.80 L 225.18 215.15 L 224.35 214.80 L 224.00 213.97 L 224.35 213.14 Z" />
</g>
<g id="#6d6e77ff">
<path fill="#6d6e77" opacity="1.00" d=" M 202.79 216.73 C 204.02 216.55 205.25 216.43 206.49 216.30 C 208.60 217.27 210.73 218.20 212.88 219.09 C 213.18 219.21 213.78 219.45 214.07 219.57 C 214.64 221.14 215.20 222.72 215.74 224.31 C 214.57 223.90 213.41 223.47 212.25 223.03 C 210.39 221.99 208.65 220.77 206.84 219.66 C 204.41 219.54 202.12 220.44 200.14 221.78 C 199.18 222.38 198.23 222.98 197.28 223.59 C 198.89 221.12 200.71 218.80 202.79 216.73 Z" />
</g>
<g id="#788795ff">
<path fill="#788795" opacity="1.00" d=" M 220.18 221.66 C 222.80 219.55 225.32 216.67 228.86 216.33 C 230.07 216.97 231.13 217.85 232.16 218.75 C 231.78 219.92 231.41 221.10 231.04 222.28 C 230.40 220.89 229.76 219.51 229.13 218.12 C 228.19 219.28 227.25 220.44 226.27 221.57 C 224.24 221.65 222.21 221.73 220.18 221.66 Z" />
</g>
<g id="#464446ff">
<path fill="#464446" opacity="1.00" d=" M 190.43 220.82 C 192.86 219.75 195.21 218.47 197.45 217.04 C 196.84 219.25 196.19 221.44 195.48 223.63 C 193.79 222.69 192.11 221.76 190.43 220.82 Z" />
</g>
<g id="#52535bff">
<path fill="#52535b" opacity="1.00" d=" M 226.27 221.57 C 227.25 220.44 228.19 219.28 229.13 218.12 C 229.76 219.51 230.40 220.89 231.04 222.28 C 231.41 221.10 231.78 219.92 232.16 218.75 C 233.77 220.36 235.29 222.07 236.77 223.82 C 235.10 224.33 233.45 224.86 231.80 225.42 C 230.06 224.53 228.32 223.64 226.62 222.67 L 225.76 222.12 L 226.27 221.57 Z" />
</g>
<g id="#272f37ff">
<path fill="#272f37" opacity="1.00" d=" M 200.14 221.78 C 202.12 220.44 204.41 219.54 206.84 219.66 C 205.57 225.61 202.62 231.08 201.75 237.13 C 206.54 233.34 207.02 226.39 212.25 223.03 C 212.70 224.60 213.16 226.18 213.63 227.75 C 213.27 228.14 212.55 228.93 212.19 229.32 C 209.88 232.27 207.31 235.14 205.86 238.63 C 205.77 241.78 206.67 244.86 207.17 247.95 C 204.83 243.74 200.49 241.46 196.00 240.24 C 197.94 234.11 199.76 227.94 202.27 222.01 C 201.74 221.95 200.67 221.84 200.14 221.78 Z" />
</g>
<g id="#313439ff">
<path fill="#313439" opacity="1.00" d=" M 214.07 219.57 C 216.07 220.36 218.08 221.16 220.18 221.66 C 222.21 221.73 224.24 221.65 226.27 221.57 L 225.76 222.12 C 224.63 223.26 223.45 224.35 222.22 225.38 C 221.10 226.23 219.94 227.03 218.80 227.84 C 220.44 227.86 222.09 227.90 223.74 227.94 C 223.66 228.42 223.50 229.40 223.42 229.89 C 221.06 231.54 218.87 233.42 216.66 235.25 C 217.81 235.01 218.96 234.77 220.12 234.55 C 220.54 234.84 221.36 235.41 221.78 235.70 C 221.97 236.00 222.35 236.61 222.54 236.92 C 221.41 237.88 220.31 238.88 219.24 239.89 C 216.93 240.34 214.63 240.79 212.33 241.22 C 213.22 241.89 214.12 242.56 215.02 243.23 C 216.41 244.82 217.89 246.45 218.57 248.48 C 218.98 250.42 218.69 252.41 218.46 254.35 C 217.75 253.59 217.03 252.86 216.30 252.13 C 214.82 250.95 213.24 249.91 211.66 248.87 C 210.84 245.61 210.17 242.30 210.15 238.93 C 210.89 239.14 212.37 239.55 213.10 239.76 C 213.35 238.95 213.58 238.15 213.82 237.34 C 214.33 235.54 214.78 233.73 215.20 231.92 C 215.62 229.98 215.98 228.04 216.33 226.10 C 215.42 226.63 214.52 227.18 213.63 227.75 C 213.16 226.18 212.70 224.60 212.25 223.03 C 213.41 223.47 214.57 223.90 215.74 224.31 C 215.20 222.72 214.64 221.14 214.07 219.57 Z" />
</g>
<g id="#41505cff">
<path fill="#41505c" opacity="1.00" d=" M 206.84 219.66 C 208.65 220.77 210.39 221.99 212.25 223.03 C 207.02 226.39 206.54 233.34 201.75 237.13 C 202.62 231.08 205.57 225.61 206.84 219.66 Z" />
</g>
<g id="#86acdbff">
<path fill="#86acdb" opacity="1.00" d=" M 222.22 225.38 C 223.45 224.35 224.63 223.26 225.76 222.12 L 226.62 222.67 C 226.74 224.15 226.84 225.64 226.92 227.12 C 225.35 226.55 223.78 225.96 222.22 225.38 Z" />
</g>
<g id="#38383dff">
<path fill="#38383d" opacity="1.00" d=" M 226.62 222.67 C 228.32 223.64 230.06 224.53 231.80 225.42 C 232.06 226.66 232.34 227.89 232.61 229.13 C 230.71 228.47 228.81 227.81 226.92 227.12 C 226.84 225.64 226.74 224.15 226.62 222.67 Z" />
</g>
<g id="#6a686dff">
<path fill="#6a686d" opacity="1.00" d=" M 231.80 225.42 C 233.45 224.86 235.10 224.33 236.77 223.82 L 237.30 224.49 C 238.25 225.88 239.11 227.33 239.99 228.77 C 238.15 229.80 236.22 230.70 234.31 231.60 C 236.09 232.34 237.87 233.10 239.65 233.87 C 236.80 236.08 234.14 238.54 231.78 241.27 C 230.94 240.83 230.11 240.38 229.29 239.92 C 228.14 238.82 227.07 237.65 226.09 236.41 C 225.62 235.54 225.17 234.67 224.74 233.80 C 226.76 234.55 228.77 235.30 230.80 236.03 C 230.41 234.48 230.23 232.85 229.43 231.45 C 228.13 230.59 226.64 230.10 225.18 229.60 C 224.74 229.67 223.86 229.81 223.42 229.89 C 223.50 229.40 223.66 228.42 223.74 227.94 C 222.09 227.90 220.44 227.86 218.80 227.84 C 219.94 227.03 221.10 226.23 222.22 225.38 C 223.78 225.96 225.35 226.55 226.92 227.12 C 228.81 227.81 230.71 228.47 232.61 229.13 C 232.34 227.89 232.06 226.66 231.80 225.42 Z" />
</g>
<g id="#5a5960ff">
<path fill="#5a5960" opacity="1.00" d=" M 239.99 228.77 C 240.78 227.51 241.49 226.21 242.15 224.89 C 242.07 228.07 241.78 231.29 240.62 234.28 L 239.65 233.87 C 237.87 233.10 236.09 232.34 234.31 231.60 C 236.22 230.70 238.15 229.80 239.99 228.77 Z" />
</g>
<g id="#355767ff">
<path fill="#355767" opacity="1.00" d=" M 213.63 227.75 C 214.52 227.18 215.42 226.63 216.33 226.10 C 215.98 228.04 215.62 229.98 215.20 231.92 C 213.78 233.08 212.37 234.24 210.97 235.42 C 211.92 236.06 212.87 236.70 213.82 237.34 C 213.58 238.15 213.35 238.95 213.10 239.76 C 212.37 239.55 210.89 239.14 210.15 238.93 C 210.27 235.64 210.83 232.33 212.19 229.32 C 212.55 228.93 213.27 228.14 213.63 227.75 Z" />
</g>
<g id="#3d3f45ff">
<path fill="#3d3f45" opacity="1.00" d=" M 205.86 238.63 C 207.31 235.14 209.88 232.27 212.19 229.32 C 210.83 232.33 210.27 235.64 210.15 238.93 C 210.17 242.30 210.84 245.61 211.66 248.87 C 210.97 249.09 209.57 249.53 208.88 249.76 C 208.51 249.55 207.76 249.15 207.39 248.95 L 207.17 247.95 C 206.67 244.86 205.77 241.78 205.86 238.63 Z" />
</g>
<g id="#1f4c59f9">
<path fill="#1f4c59" opacity="0.98" d=" M 194.07 231.42 C 194.33 231.09 194.85 230.44 195.11 230.11 C 197.31 229.10 197.19 232.61 195.19 232.55 C 194.91 232.26 194.35 231.70 194.07 231.42 Z" />
</g>
<g id="#819bb2ff">
<path fill="#819bb2" opacity="1.00" d=" M 216.66 235.25 C 218.87 233.42 221.06 231.54 223.42 229.89 C 223.86 229.81 224.74 229.67 225.18 229.60 C 225.04 231.00 224.89 232.40 224.74 233.80 C 223.20 234.03 221.65 234.27 220.12 234.55 C 218.96 234.77 217.81 235.01 216.66 235.25 Z" />
</g>
<g id="#35363bff">
<path fill="#35363b" opacity="1.00" d=" M 225.18 229.60 C 226.64 230.10 228.13 230.59 229.43 231.45 C 230.23 232.85 230.41 234.48 230.80 236.03 C 228.77 235.30 226.76 234.55 224.74 233.80 C 224.89 232.40 225.04 231.00 225.18 229.60 Z" />
</g>
<g id="#427991ff">
<path fill="#427991" opacity="1.00" d=" M 210.97 235.42 C 212.37 234.24 213.78 233.08 215.20 231.92 C 214.78 233.73 214.33 235.54 213.82 237.34 C 212.87 236.70 211.92 236.06 210.97 235.42 Z" />
</g>
<g id="#55555bfe">
<path fill="#55555b" opacity="1.00" d=" M 220.12 234.55 C 221.65 234.27 223.20 234.03 224.74 233.80 C 225.17 234.67 225.62 235.54 226.09 236.41 C 225.22 237.31 224.35 238.22 223.49 239.13 C 225.23 240.73 226.98 242.32 228.74 243.91 C 228.92 242.58 229.10 241.24 229.29 239.92 C 230.11 240.38 230.94 240.83 231.78 241.27 C 231.86 242.82 231.92 244.37 231.98 245.93 C 231.50 245.12 230.99 244.34 230.44 243.59 C 230.03 245.18 229.84 246.84 230.15 248.47 C 230.26 249.38 230.48 251.21 230.59 252.13 C 229.04 251.87 227.48 251.65 225.95 251.28 C 226.90 250.67 227.85 250.07 228.81 249.46 C 227.25 247.42 225.70 245.37 224.17 243.31 C 222.92 243.78 221.67 244.26 220.43 244.74 C 220.20 244.25 219.76 243.27 219.53 242.78 C 220.28 242.10 221.02 241.42 221.78 240.74 C 222.08 240.46 222.70 239.88 223.01 239.59 L 223.34 238.66 L 222.95 237.77 L 222.54 236.92 C 222.35 236.61 221.97 236.00 221.78 235.70 C 221.36 235.41 220.54 234.84 220.12 234.55 Z" />
</g>
<g id="#83bcedff">
<path fill="#83bced" opacity="1.00" d=" M 219.24 239.89 C 220.31 238.88 221.41 237.88 222.54 236.92 L 222.95 237.77 C 220.39 236.79 220.56 241.23 223.01 239.59 C 222.70 239.88 222.08 240.46 221.78 240.74 C 221.14 240.53 219.87 240.11 219.24 239.89 Z" />
</g>
<g id="#2b2c30ff">
<path fill="#2b2c30" opacity="1.00" d=" M 223.49 239.13 C 224.35 238.22 225.22 237.31 226.09 236.41 C 227.07 237.65 228.14 238.82 229.29 239.92 C 229.10 241.24 228.92 242.58 228.74 243.91 C 226.98 242.32 225.23 240.73 223.49 239.13 Z" />
</g>
<g id="#e0ffffff">
<path fill="#e0ffff" opacity="1.00" d=" M 223.01 239.59 C 220.56 241.23 220.39 236.79 222.95 237.77 L 223.34 238.66 L 223.01 239.59 Z" />
</g>
<g id="#707075ff">
<path fill="#707075" opacity="1.00" d=" M 212.33 241.22 C 214.63 240.79 216.93 240.34 219.24 239.89 C 219.87 240.11 221.14 240.53 221.78 240.74 C 221.02 241.42 220.28 242.10 219.53 242.78 C 219.76 243.27 220.20 244.25 220.43 244.74 L 220.69 245.40 C 218.78 244.71 216.87 244.05 215.02 243.23 C 214.12 242.56 213.22 241.89 212.33 241.22 Z" />
</g>
<g id="#6e6d73fc">
<path fill="#6e6d73" opacity="1.00" d=" M 192.37 244.63 C 193.35 242.99 194.73 241.65 196.00 240.24 C 200.49 241.46 204.83 243.74 207.17 247.95 L 207.39 248.95 C 204.37 247.69 201.73 245.78 199.04 243.99 C 197.36 242.88 195.26 243.88 193.68 244.68 C 192.96 247.90 193.88 251.15 194.30 254.35 C 193.40 253.47 192.49 252.60 191.59 251.74 C 191.73 249.37 191.51 246.88 192.37 244.63 Z" />
</g>
<g id="#515155ff">
<path fill="#515155" opacity="1.00" d=" M 193.68 244.68 C 195.26 243.88 197.36 242.88 199.04 243.99 C 201.73 245.78 204.37 247.69 207.39 248.95 C 207.76 249.15 208.51 249.55 208.88 249.76 C 210.96 251.47 212.84 253.40 214.79 255.26 C 215.29 254.21 215.80 253.17 216.30 252.13 C 217.03 252.86 217.75 253.59 218.46 254.35 C 218.12 256.21 217.72 258.06 217.34 259.91 C 218.77 259.82 220.21 259.73 221.65 259.64 C 221.44 255.39 221.38 251.13 220.95 246.89 C 221.29 247.20 221.95 247.82 222.28 248.13 C 222.66 249.73 222.71 251.52 223.65 252.93 C 225.18 254.49 227.25 255.34 229.13 256.39 C 229.22 257.87 229.35 259.37 229.26 260.86 C 228.37 262.68 226.55 263.79 225.16 265.19 C 223.00 267.04 221.36 269.41 219.30 271.37 C 217.31 272.07 215.23 271.15 213.30 270.65 C 209.44 269.39 205.42 268.68 201.63 267.22 C 199.83 266.68 199.26 264.71 198.35 263.28 C 201.75 266.04 205.94 267.50 210.13 268.56 C 206.76 265.28 203.19 262.21 199.79 258.97 C 198.90 259.91 198.01 260.86 197.13 261.81 L 196.60 262.37 C 196.19 261.98 195.36 261.19 194.95 260.79 C 194.76 258.64 194.61 256.48 194.30 254.35 C 193.88 251.15 192.96 247.90 193.68 244.68 M 195.95 247.01 C 196.34 248.77 196.76 250.54 197.22 252.29 C 198.82 250.66 200.14 248.78 201.08 246.69 C 199.37 246.76 197.66 246.87 195.95 247.01 M 203.45 253.17 C 202.41 254.49 204.69 256.04 205.61 254.68 C 206.64 253.36 204.36 251.81 203.45 253.17 M 211.22 266.87 C 212.26 266.77 213.31 266.69 214.37 266.60 C 214.99 268.17 215.62 269.74 216.29 271.30 C 217.32 271.00 218.33 270.62 219.31 270.17 C 220.23 269.04 220.34 267.09 219.13 266.12 C 217.62 264.47 216.03 262.91 214.58 261.23 C 213.47 263.11 212.34 264.99 211.22 266.87 Z" />
</g>
<g id="#666669ff">
<path fill="#666669" opacity="1.00" d=" M 215.02 243.23 C 216.87 244.05 218.78 244.71 220.69 245.40 C 220.76 245.77 220.89 246.52 220.95 246.89 C 221.38 251.13 221.44 255.39 221.65 259.64 C 220.21 259.73 218.77 259.82 217.34 259.91 C 217.72 258.06 218.12 256.21 218.46 254.35 C 218.69 252.41 218.98 250.42 218.57 248.48 C 217.89 246.45 216.41 244.82 215.02 243.23 Z" />
</g>
<g id="#313034ff">
<path fill="#313034" opacity="1.00" d=" M 220.43 244.74 C 221.67 244.26 222.92 243.78 224.17 243.31 C 225.70 245.37 227.25 247.42 228.81 249.46 C 227.85 250.07 226.90 250.67 225.95 251.28 C 224.68 250.28 223.47 249.21 222.28 248.13 C 221.95 247.82 221.29 247.20 220.95 246.89 C 220.89 246.52 220.76 245.77 220.69 245.40 L 220.43 244.74 Z" />
</g>
<g id="#747276e3">
<path fill="#747276" opacity="0.89" d=" M 230.15 248.47 C 229.84 246.84 230.03 245.18 230.44 243.59 C 230.99 244.34 231.50 245.12 231.98 245.93 C 232.22 247.24 231.76 248.16 230.60 248.70 L 230.15 248.47 Z" />
</g>
<g id="#726e71ff">
<path fill="#726e71" opacity="1.00" d=" M 195.95 247.01 C 197.66 246.87 199.37 246.76 201.08 246.69 C 200.14 248.78 198.82 250.66 197.22 252.29 C 196.76 250.54 196.34 248.77 195.95 247.01 Z" />
</g>
<g id="#6e6d72fe">
<path fill="#6e6d72" opacity="1.00" d=" M 223.65 252.93 C 222.71 251.52 222.66 249.73 222.28 248.13 C 223.47 249.21 224.68 250.28 225.95 251.28 C 227.48 251.65 229.04 251.87 230.59 252.13 C 230.11 253.55 229.62 254.97 229.13 256.39 C 227.25 255.34 225.18 254.49 223.65 252.93 Z" />
</g>
<g id="#e0dfe8ff">
<path fill="#e0dfe8" opacity="1.00" d=" M 208.88 249.76 C 209.57 249.53 210.97 249.09 211.66 248.87 C 213.24 249.91 214.82 250.95 216.30 252.13 C 215.80 253.17 215.29 254.21 214.79 255.26 C 212.84 253.40 210.96 251.47 208.88 249.76 Z" />
</g>
<g id="#827e85ff">
<path fill="#827e85" opacity="1.00" d=" M 203.45 253.17 C 204.36 251.81 206.64 253.36 205.61 254.68 C 204.69 256.04 202.41 254.49 203.45 253.17 Z" />
</g>
<g id="#6d6c74ff">
<path fill="#6d6c74" opacity="1.00" d=" M 197.13 261.81 C 198.01 260.86 198.90 259.91 199.79 258.97 C 203.19 262.21 206.76 265.28 210.13 268.56 C 205.94 267.50 201.75 266.04 198.35 263.28 C 198.04 262.92 197.43 262.18 197.13 261.81 Z" />
</g>
<g id="#6f6e73ff">
<path fill="#6f6e73" opacity="1.00" d=" M 211.22 266.87 C 212.34 264.99 213.47 263.11 214.58 261.23 C 216.03 262.91 217.62 264.47 219.13 266.12 C 220.34 267.09 220.23 269.04 219.31 270.17 C 218.33 270.62 217.32 271.00 216.29 271.30 C 215.62 269.74 214.99 268.17 214.37 266.60 C 213.31 266.69 212.26 266.77 211.22 266.87 M 217.21 267.12 C 215.88 267.76 215.87 268.43 217.16 269.14 C 218.49 268.50 218.50 267.82 217.21 267.12 Z" />
</g>
<g id="#3b3b3dff">
<path fill="#3b3b3d" opacity="1.00" d=" M 217.21 267.12 C 218.50 267.82 218.49 268.50 217.16 269.14 C 215.87 268.43 215.88 267.76 217.21 267.12 Z" />
</g>
</svg>
