<?xml version="1.0" encoding="UTF-8" ?>
<!DOCTYPE svg PUBLIC "-//W3C//DTD SVG 1.1//EN" "http://www.w3.org/Graphics/SVG/1.1/DTD/svg11.dtd">
<svg width="384pt" height="384pt" viewBox="0 0 384 384" version="1.1" xmlns="http://www.w3.org/2000/svg">
<g id="#131313ad">
<path fill="#131313" opacity="0.68" d=" M 216.81 149.96 C 219.24 148.87 221.85 148.30 224.50 148.06 C 224.86 148.52 225.59 149.42 225.96 149.88 C 222.91 149.69 219.85 149.78 216.81 149.96 Z" />
</g>
<g id="#3b3b3dff">
<path fill="#3b3b3d" opacity="1.00" d=" M 213.90 150.20 C 214.63 150.14 216.08 150.02 216.81 149.96 C 219.85 149.78 222.91 149.69 225.96 149.88 C 226.42 150.17 227.36 150.75 227.82 151.04 C 228.38 151.80 228.94 152.57 229.48 153.35 C 225.94 153.79 222.42 154.40 218.95 155.21 C 218.86 154.91 218.67 154.30 218.58 153.99 C 218.50 153.72 218.32 153.17 218.23 152.89 C 217.09 152.04 215.87 151.30 214.63 150.61 L 213.90 150.20 Z" />
</g>
<g id="#437988f8">
<path fill="#437988" opacity="0.97" d=" M 212.78 152.76 C 213.24 152.23 214.17 151.15 214.63 150.61 C 215.87 151.30 217.09 152.04 218.23 152.89 C 218.32 153.17 218.50 153.72 218.58 153.99 C 216.65 153.56 214.72 153.11 212.78 152.76 Z" />
</g>
<g id="#171717ff">
<path fill="#171717" opacity="1.00" d=" M 227.82 151.04 C 229.77 152.36 232.01 153.82 232.49 156.32 C 233.16 160.16 232.60 164.09 232.13 167.93 C 231.74 171.69 229.10 174.63 228.03 178.16 C 227.31 181.19 227.23 184.33 226.96 187.43 C 226.37 187.54 225.20 187.76 224.61 187.87 C 224.62 188.29 224.63 189.12 224.64 189.53 C 223.34 188.78 222.00 188.09 220.65 187.45 C 222.39 186.85 224.14 186.25 225.88 185.64 C 226.22 183.59 226.57 181.53 226.91 179.48 C 224.99 179.40 223.07 179.34 221.17 179.11 C 219.79 178.79 218.43 178.41 217.08 178.04 C 215.03 179.38 213.08 180.95 210.77 181.83 C 208.66 181.84 206.62 181.22 204.57 180.86 C 205.18 179.28 205.81 177.71 206.47 176.15 C 208.53 176.52 210.61 176.84 212.69 177.15 C 212.86 176.50 213.21 175.20 213.39 174.55 C 211.22 174.50 209.04 174.47 206.88 174.28 C 207.73 171.66 208.92 169.04 208.86 166.24 C 208.46 163.82 205.89 162.59 203.73 162.12 C 199.98 161.23 196.28 162.75 192.85 164.09 C 191.72 163.65 190.57 163.27 189.42 162.88 C 189.53 163.26 189.75 164.04 189.86 164.43 C 189.96 167.87 189.47 171.47 187.53 174.40 C 186.28 176.49 183.98 177.55 182.00 178.81 C 180.68 177.95 179.36 177.08 178.05 176.23 C 179.52 172.51 181.43 168.99 183.53 165.60 C 180.48 168.28 177.86 171.44 174.63 173.90 C 172.17 173.66 170.03 172.30 167.78 171.39 C 164.68 169.93 161.25 169.54 157.90 169.00 C 157.32 168.88 156.15 168.65 155.57 168.53 C 155.35 168.25 154.90 167.69 154.68 167.42 C 159.06 168.32 163.50 168.83 167.94 169.42 C 170.63 166.64 173.08 163.51 176.41 161.45 C 181.13 158.76 186.70 158.37 192.02 158.21 C 196.06 158.12 199.55 155.69 203.50 155.18 C 208.44 156.88 212.19 160.57 216.21 163.71 C 221.38 162.17 226.58 160.75 231.90 159.89 C 231.94 159.15 232.02 157.67 232.06 156.93 C 231.19 155.74 230.33 154.55 229.48 153.35 C 228.94 152.57 228.38 151.80 227.82 151.04 Z" />
</g>
<g id="#202021ff">
<path fill="#202021" opacity="1.00" d=" M 208.03 154.79 C 209.58 154.05 211.13 153.27 212.78 152.76 C 214.72 153.11 216.65 153.56 218.58 153.99 C 218.67 154.30 218.86 154.91 218.95 155.21 C 219.05 155.54 219.26 156.19 219.36 156.52 C 223.59 156.12 227.89 155.87 232.06 156.93 C 232.02 157.67 231.94 159.15 231.90 159.89 C 226.58 160.75 221.38 162.17 216.21 163.71 C 214.63 159.84 211.81 156.63 208.03 154.79 Z" />
</g>
<g id="#2d5e6bf7">
<path fill="#2d5e6b" opacity="0.97" d=" M 203.50 155.18 C 204.99 155.02 206.53 154.41 208.03 154.79 C 211.81 156.63 214.63 159.84 216.21 163.71 C 212.19 160.57 208.44 156.88 203.50 155.18 Z" />
</g>
<g id="#498696ff">
<path fill="#498696" opacity="1.00" d=" M 218.95 155.21 C 222.42 154.40 225.94 153.79 229.48 153.35 C 230.33 154.55 231.19 155.74 232.06 156.93 C 227.89 155.87 223.59 156.12 219.36 156.52 C 219.26 156.19 219.05 155.54 218.95 155.21 Z" />
</g>
<g id="#39383aff">
<path fill="#39383a" opacity="1.00" d=" M 192.85 164.09 C 196.28 162.75 199.98 161.23 203.73 162.12 C 205.89 162.59 208.46 163.82 208.86 166.24 C 208.92 169.04 207.73 171.66 206.88 174.28 C 205.97 173.88 205.08 173.45 204.20 172.99 C 203.87 171.01 204.46 168.49 202.69 167.06 C 200.73 166.83 198.75 166.94 196.79 166.99 C 195.53 165.95 194.22 164.97 192.85 164.09 Z" />
</g>
<g id="#12121372">
<path fill="#121213" opacity="0.45" d=" M 147.18 164.24 C 148.58 163.69 150.04 163.35 151.50 163.01 C 151.78 163.33 152.32 163.99 152.60 164.32 C 151.67 164.95 150.75 165.61 149.85 166.28 C 150.14 167.59 150.64 168.85 151.18 170.08 C 150.10 170.33 149.04 170.60 147.98 170.89 C 148.15 170.47 148.51 169.62 148.68 169.19 C 148.13 167.56 147.56 165.92 147.18 164.24 Z" />
</g>
<g id="#5a9daeff">
<path fill="#5a9dae" opacity="1.00" d=" M 189.42 162.88 C 190.57 163.27 191.72 163.65 192.85 164.09 C 194.22 164.97 195.53 165.95 196.79 166.99 C 199.15 169.11 201.48 171.33 204.20 172.99 C 205.08 173.45 205.97 173.88 206.88 174.28 C 209.04 174.47 211.22 174.50 213.39 174.55 C 213.21 175.20 212.86 176.50 212.69 177.15 C 210.61 176.84 208.53 176.52 206.47 176.15 C 206.09 176.08 205.33 175.94 204.95 175.87 C 201.07 173.78 197.67 170.95 194.28 168.18 C 192.78 166.95 191.27 165.74 189.86 164.43 C 189.75 164.04 189.53 163.26 189.42 162.88 Z" />
</g>
<g id="#3c3a40eb">
<path fill="#3c3a40" opacity="0.92" d=" M 149.85 166.28 C 150.75 165.61 151.67 164.95 152.60 164.32 C 153.26 165.37 153.95 166.40 154.68 167.42 C 154.90 167.69 155.35 168.25 155.57 168.53 C 154.57 169.32 153.58 170.13 152.59 170.94 L 151.87 171.57 C 151.70 171.20 151.35 170.46 151.18 170.08 C 150.64 168.85 150.14 167.59 149.85 166.28 Z" />
</g>
<g id="#333232ff">
<path fill="#333232" opacity="1.00" d=" M 189.86 164.43 C 191.27 165.74 192.78 166.95 194.28 168.18 C 192.98 171.98 190.94 175.62 190.47 179.66 C 191.49 182.14 194.09 183.34 196.51 184.02 C 198.66 184.19 200.81 184.25 202.96 184.31 C 202.77 183.81 202.37 182.80 202.17 182.29 C 205.51 183.55 209.02 184.17 212.53 184.71 C 213.15 184.87 214.39 185.18 215.02 185.34 C 210.95 185.22 206.78 184.82 202.79 185.81 C 200.81 186.60 199.00 187.74 197.02 188.52 C 194.54 187.24 192.73 185.02 190.52 183.36 C 188.46 181.70 185.96 180.75 183.53 179.78 C 183.01 179.46 182.51 179.13 182.00 178.81 C 183.98 177.55 186.28 176.49 187.53 174.40 C 189.47 171.47 189.96 167.87 189.86 164.43 Z" />
</g>
<g id="#434147ff">
<path fill="#434147" opacity="1.00" d=" M 174.63 173.90 C 177.86 171.44 180.48 168.28 183.53 165.60 C 181.43 168.99 179.52 172.51 178.05 176.23 C 179.36 177.08 180.68 177.95 182.00 178.81 C 182.51 179.13 183.01 179.46 183.53 179.78 C 185.96 180.75 188.46 181.70 190.52 183.36 C 192.73 185.02 194.54 187.24 197.02 188.52 C 199.00 187.74 200.81 186.60 202.79 185.81 L 202.24 186.46 C 201.43 187.57 200.68 188.71 199.92 189.86 C 201.75 191.28 203.58 192.72 205.40 194.16 C 203.62 194.91 201.83 195.66 200.04 196.41 C 199.17 194.12 198.28 191.84 197.33 189.58 C 196.43 191.49 195.15 193.53 195.83 195.73 C 196.20 198.68 198.75 200.47 200.93 202.14 C 198.63 204.25 196.31 206.34 193.97 208.39 C 195.67 210.88 197.25 213.47 199.32 215.68 C 201.56 218.00 204.80 218.86 207.35 220.76 C 208.59 221.85 209.43 223.30 210.37 224.65 C 209.22 225.85 208.06 227.05 206.89 228.25 C 207.93 229.02 208.97 229.80 210.04 230.56 C 210.70 231.00 211.38 231.42 212.08 231.83 C 210.45 231.62 208.80 231.37 207.17 231.61 C 205.30 232.16 203.76 233.42 202.15 234.46 C 202.00 232.87 201.83 231.29 201.70 229.71 L 201.65 228.91 C 201.56 227.88 201.47 226.85 201.38 225.83 C 200.07 225.68 198.77 225.53 197.46 225.43 C 197.35 225.76 197.12 226.40 197.00 226.73 C 196.79 226.21 196.36 225.18 196.15 224.66 C 196.16 223.57 196.18 222.48 196.20 221.40 C 194.57 222.04 192.95 222.71 191.30 223.30 L 191.31 222.40 C 191.37 221.23 191.44 220.05 191.53 218.88 C 186.83 215.12 181.01 213.62 175.25 212.40 C 174.26 211.89 173.27 211.39 172.28 210.89 C 172.10 212.54 171.93 214.19 171.84 215.85 C 170.57 213.81 169.64 211.58 168.32 209.58 C 164.01 205.04 157.20 202.57 154.68 196.49 C 154.52 196.05 154.20 195.17 154.04 194.73 C 155.63 195.24 157.25 195.69 158.82 196.28 C 160.93 197.41 162.90 198.78 164.93 200.06 C 170.36 203.92 177.29 204.60 182.82 208.28 C 185.29 210.91 187.69 213.60 190.35 216.05 C 189.44 210.52 188.72 204.93 189.14 199.32 C 190.68 198.51 192.21 197.70 193.75 196.89 C 191.22 195.15 188.70 193.39 186.13 191.72 C 183.38 189.93 180.47 188.42 177.52 187.00 C 176.51 189.77 175.49 192.55 174.17 195.19 C 173.99 191.03 174.27 186.74 173.14 182.69 C 171.91 180.75 169.52 179.99 167.66 178.81 C 168.05 182.22 168.83 185.56 169.78 188.85 C 165.20 188.87 160.61 189.09 156.02 189.10 L 155.85 188.30 C 156.32 187.98 157.25 187.34 157.72 187.02 C 160.59 185.57 163.64 184.56 166.55 183.21 C 166.76 182.80 167.18 181.99 167.40 181.59 C 165.36 176.17 159.06 175.12 154.59 172.48 C 155.31 172.25 156.76 171.81 157.48 171.59 C 157.58 170.94 157.79 169.65 157.90 169.00 C 161.25 169.54 164.68 169.93 167.78 171.39 C 170.03 172.30 172.17 173.66 174.63 173.90 Z" />
</g>
<g id="#5f5d5fff">
<path fill="#5f5d5f" opacity="1.00" d=" M 196.79 166.99 C 198.75 166.94 200.73 166.83 202.69 167.06 C 204.46 168.49 203.87 171.01 204.20 172.99 C 201.48 171.33 199.15 169.11 196.79 166.99 Z" />
</g>
<g id="#575557ff">
<path fill="#575557" opacity="1.00" d=" M 194.28 168.18 C 197.67 170.95 201.07 173.78 204.95 175.87 C 202.97 176.40 200.87 176.88 199.22 178.18 C 198.13 179.68 197.58 181.48 196.86 183.17 L 196.51 184.02 C 194.09 183.34 191.49 182.14 190.47 179.66 C 190.94 175.62 192.98 171.98 194.28 168.18 Z" />
</g>
<g id="#3aa9aefc">
<path fill="#3aa9ae" opacity="1.00" d=" M 152.59 170.94 C 153.58 170.13 154.57 169.32 155.57 168.53 C 156.15 168.65 157.32 168.88 157.90 169.00 C 157.79 169.65 157.58 170.94 157.48 171.59 C 156.76 171.81 155.31 172.25 154.59 172.48 L 153.85 172.06 C 153.54 171.78 152.91 171.22 152.59 170.94 Z" />
</g>
<g id="#1e1e1efe">
<path fill="#1e1e1e" opacity="1.00" d=" M 147.98 170.89 C 149.04 170.60 150.10 170.33 151.18 170.08 C 151.35 170.46 151.70 171.20 151.87 171.57 C 151.91 171.98 151.99 172.81 152.03 173.22 C 147.80 175.08 143.47 176.75 139.03 178.08 C 135.54 179.11 131.93 180.34 128.24 179.81 C 127.16 179.54 126.08 179.30 125.00 179.11 C 120.98 178.95 116.97 179.27 113.01 179.91 C 112.53 180.00 111.59 180.19 111.12 180.28 C 110.27 184.26 111.18 188.27 112.71 191.96 C 110.38 192.18 108.06 192.44 105.74 192.72 C 105.18 191.07 104.62 189.41 104.11 187.75 C 105.72 188.20 107.35 188.58 108.98 188.96 C 109.21 189.01 109.65 189.12 109.88 189.17 C 110.19 187.31 110.54 185.30 109.76 183.51 C 109.61 183.15 109.30 182.43 109.15 182.07 C 107.60 181.50 106.03 181.01 104.46 180.52 C 104.56 179.87 104.78 178.57 104.89 177.91 C 115.28 179.85 125.88 177.96 135.86 174.89 C 139.86 173.44 143.85 171.96 147.98 170.89 Z" />
</g>
<g id="#65a7b9ff">
<path fill="#65a7b9" opacity="1.00" d=" M 151.87 171.57 L 152.59 170.94 C 152.91 171.22 153.54 171.78 153.85 172.06 C 154.34 175.97 154.54 179.99 155.97 183.71 C 156.52 184.83 157.12 185.93 157.72 187.02 C 157.25 187.34 156.32 187.98 155.85 188.30 C 155.70 187.91 155.41 187.14 155.26 186.76 C 154.51 185.14 153.68 183.56 152.96 181.94 C 152.46 179.05 152.30 176.13 152.03 173.22 C 151.99 172.81 151.91 171.98 151.87 171.57 Z" />
</g>
<g id="#817f81ff">
<path fill="#817f81" opacity="1.00" d=" M 153.85 172.06 L 154.59 172.48 C 159.06 175.12 165.36 176.17 167.40 181.59 C 163.52 181.91 159.68 182.55 155.97 183.71 C 154.54 179.99 154.34 175.97 153.85 172.06 Z" />
</g>
<g id="#514f50ff">
<path fill="#514f50" opacity="1.00" d=" M 139.03 178.08 C 143.47 176.75 147.80 175.08 152.03 173.22 C 152.30 176.13 152.46 179.05 152.96 181.94 C 145.47 183.30 137.79 182.65 130.33 184.15 C 130.28 184.60 130.17 185.50 130.12 185.94 C 130.00 187.18 129.89 188.43 129.79 189.67 C 127.84 189.94 125.89 190.23 123.95 190.49 C 123.53 190.54 122.71 190.64 122.30 190.69 C 119.85 190.91 117.39 191.13 114.95 191.39 C 114.59 190.80 113.86 189.62 113.50 189.03 C 115.69 188.74 117.88 188.46 120.07 188.18 C 122.75 187.83 125.42 187.48 128.09 187.13 C 128.15 185.33 128.22 183.54 128.25 181.75 C 128.24 181.27 128.24 180.30 128.24 179.81 C 131.93 180.34 135.54 179.11 139.03 178.08 Z" />
</g>
<g id="#3d4042ff">
<path fill="#3d4042" opacity="1.00" d=" M 199.22 178.18 C 200.87 176.88 202.97 176.40 204.95 175.87 C 205.33 175.94 206.09 176.08 206.47 176.15 C 205.81 177.71 205.18 179.28 204.57 180.86 C 201.72 180.00 199.02 181.39 196.86 183.17 C 197.58 181.48 198.13 179.68 199.22 178.18 Z" />
</g>
<g id="#82f8ffff">
<path fill="#82f8ff" opacity="1.00" d=" M 100.72 182.01 C 101.39 180.05 103.30 179.02 104.89 177.91 C 104.78 178.57 104.56 179.87 104.46 180.52 C 104.14 182.35 103.82 184.17 103.59 186.01 C 103.72 186.45 103.98 187.32 104.11 187.75 C 104.62 189.41 105.18 191.07 105.74 192.72 C 104.62 192.58 103.50 192.46 102.38 192.35 C 101.68 188.93 101.04 185.49 100.72 182.01 Z" />
</g>
<g id="#2a626dff">
<path fill="#2a626d" opacity="1.00" d=" M 210.77 181.83 C 213.08 180.95 215.03 179.38 217.08 178.04 C 218.43 178.41 219.79 178.79 221.17 179.11 C 220.29 180.15 219.42 181.19 218.54 182.23 C 217.44 181.91 216.35 181.60 215.25 181.29 C 214.34 182.43 213.43 183.56 212.53 184.71 C 209.02 184.17 205.51 183.55 202.17 182.29 C 202.37 182.80 202.77 183.81 202.96 184.31 C 200.81 184.25 198.66 184.19 196.51 184.02 L 196.86 183.17 C 199.02 181.39 201.72 180.00 204.57 180.86 C 206.62 181.22 208.66 181.84 210.77 181.83 Z" />
</g>
<g id="#565556ff">
<path fill="#565556" opacity="1.00" d=" M 113.01 179.91 C 116.97 179.27 120.98 178.95 125.00 179.11 C 120.58 179.85 117.68 184.09 113.04 184.30 C 113.01 182.83 113.00 181.37 113.01 179.91 Z" />
</g>
<g id="#787577ff">
<path fill="#787577" opacity="1.00" d=" M 125.00 179.11 C 126.08 179.30 127.16 179.54 128.24 179.81 C 128.24 180.30 128.24 181.27 128.25 181.75 C 125.46 181.85 122.68 181.93 119.89 182.01 C 119.95 184.06 120.01 186.12 120.07 188.18 C 117.88 188.46 115.69 188.74 113.50 189.03 C 113.23 187.46 113.10 185.88 113.04 184.30 C 117.68 184.09 120.58 179.85 125.00 179.11 Z" />
</g>
<g id="#131414ff">
<path fill="#131414" opacity="1.00" d=" M 167.66 178.81 C 169.52 179.99 171.91 180.75 173.14 182.69 C 174.27 186.74 173.99 191.03 174.17 195.19 C 173.55 196.40 172.90 197.59 172.28 198.80 C 171.84 198.62 170.96 198.27 170.52 198.10 L 169.53 198.53 C 169.33 198.95 168.95 199.79 168.75 200.22 C 167.48 200.14 166.20 200.09 164.93 200.06 C 162.90 198.78 160.93 197.41 158.82 196.28 C 161.73 197.28 164.60 198.57 167.69 198.92 C 169.67 196.00 170.99 192.34 169.78 188.85 C 168.83 185.56 168.05 182.22 167.66 178.81 Z" />
</g>
<g id="#1e515cff">
<path fill="#1e515c" opacity="1.00" d=" M 221.17 179.11 C 223.07 179.34 224.99 179.40 226.91 179.48 C 226.57 181.53 226.22 183.59 225.88 185.64 C 224.14 186.25 222.39 186.85 220.65 187.45 C 220.30 187.30 219.61 186.99 219.27 186.84 C 217.87 186.27 216.46 185.73 215.02 185.34 C 214.39 185.18 213.15 184.87 212.53 184.71 C 213.43 183.56 214.34 182.43 215.25 181.29 C 216.35 181.60 217.44 181.91 218.54 182.23 C 219.42 181.19 220.29 180.15 221.17 179.11 Z" />
</g>
<g id="#47646efb">
<path fill="#47646e" opacity="1.00" d=" M 111.12 180.28 C 111.59 180.19 112.53 180.00 113.01 179.91 C 113.00 181.37 113.01 182.83 113.04 184.30 C 113.10 185.88 113.23 187.46 113.50 189.03 C 113.86 189.62 114.59 190.80 114.95 191.39 C 117.39 191.13 119.85 190.91 122.30 190.69 C 119.77 193.42 115.94 192.09 112.71 191.96 C 111.18 188.27 110.27 184.26 111.12 180.28 Z" />
</g>
<g id="#545355ff">
<path fill="#545355" opacity="1.00" d=" M 103.59 186.01 C 103.82 184.17 104.14 182.35 104.46 180.52 C 106.03 181.01 107.60 181.50 109.15 182.07 C 109.30 182.43 109.61 183.15 109.76 183.51 C 109.54 183.60 109.09 183.79 108.86 183.88 C 107.10 184.59 105.34 185.29 103.59 186.01 Z" />
</g>
<g id="#253d44ab">
<path fill="#253d44" opacity="0.67" d=" M 102.38 192.35 C 99.40 189.73 99.91 185.49 100.72 182.01 C 101.04 185.49 101.68 188.93 102.38 192.35 Z" />
</g>
<g id="#918e91ff">
<path fill="#918e91" opacity="1.00" d=" M 119.89 182.01 C 122.68 181.93 125.46 181.85 128.25 181.75 C 128.22 183.54 128.15 185.33 128.09 187.13 C 125.42 187.48 122.75 187.83 120.07 188.18 C 120.01 186.12 119.95 184.06 119.89 182.01 Z" />
</g>
<g id="#3a3a3aff">
<path fill="#3a3a3a" opacity="1.00" d=" M 130.33 184.15 C 137.79 182.65 145.47 183.30 152.96 181.94 C 153.68 183.56 154.51 185.14 155.26 186.76 C 146.95 185.40 138.50 185.58 130.12 185.94 C 130.17 185.50 130.28 184.60 130.33 184.15 Z" />
</g>
<g id="#605f60ff">
<path fill="#605f60" opacity="1.00" d=" M 155.97 183.71 C 159.68 182.55 163.52 181.91 167.40 181.59 C 167.18 181.99 166.76 182.80 166.55 183.21 C 163.64 184.56 160.59 185.57 157.72 187.02 C 157.12 185.93 156.52 184.83 155.97 183.71 Z" />
</g>
<g id="#568492ff">
<path fill="#568492" opacity="1.00" d=" M 108.86 183.88 C 109.09 183.79 109.54 183.60 109.76 183.51 C 110.54 185.30 110.19 187.31 109.88 189.17 C 109.65 189.12 109.21 189.01 108.98 188.96 C 108.68 187.28 108.64 185.56 108.86 183.88 Z" />
</g>
<g id="#7d7d7fff">
<path fill="#7d7d7f" opacity="1.00" d=" M 103.59 186.01 C 105.34 185.29 107.10 184.59 108.86 183.88 C 108.64 185.56 108.68 187.28 108.98 188.96 C 107.35 188.58 105.72 188.20 104.11 187.75 C 103.98 187.32 103.72 186.45 103.59 186.01 Z" />
</g>
<g id="#5e5f66ff">
<path fill="#5e5f66" opacity="1.00" d=" M 202.79 185.81 C 206.78 184.82 210.95 185.22 215.02 185.34 C 216.46 185.73 217.87 186.27 219.27 186.84 C 219.22 187.66 219.14 189.29 219.10 190.11 L 218.36 189.81 C 217.77 189.55 216.59 189.04 216.01 188.79 L 215.30 188.49 C 212.57 188.55 209.85 188.89 207.13 189.14 C 209.22 189.90 211.32 190.66 213.33 191.62 C 210.57 191.27 207.65 191.27 205.11 190.03 C 204.00 188.97 203.15 187.68 202.24 186.46 L 202.79 185.81 Z" />
</g>
<g id="#1b1b1bfe">
<path fill="#1b1b1b" opacity="1.00" d=" M 130.12 185.94 C 138.50 185.58 146.95 185.40 155.26 186.76 C 155.41 187.14 155.70 187.91 155.85 188.30 L 156.02 189.10 C 153.97 189.11 151.91 189.13 149.86 189.15 C 148.21 189.17 146.57 189.20 144.92 189.23 C 140.51 189.32 136.06 189.10 131.70 189.90 C 129.15 190.39 126.55 190.60 123.95 190.49 C 125.89 190.23 127.84 189.94 129.79 189.67 C 129.89 188.43 130.00 187.18 130.12 185.94 Z" />
</g>
<g id="#265762ff">
<path fill="#265762" opacity="1.00" d=" M 177.52 187.00 C 180.47 188.42 183.38 189.93 186.13 191.72 C 184.88 194.13 183.47 196.74 184.21 199.54 C 181.36 199.06 178.48 198.79 175.60 198.75 C 176.64 200.58 177.70 202.40 178.77 204.21 C 175.90 203.84 173.47 202.21 171.35 200.34 C 171.58 199.96 172.05 199.18 172.28 198.80 C 172.90 197.59 173.55 196.40 174.17 195.19 C 175.49 192.55 176.51 189.77 177.52 187.00 Z" />
</g>
<g id="#504e55ff">
<path fill="#504e55" opacity="1.00" d=" M 199.92 189.86 C 200.68 188.71 201.43 187.57 202.24 186.46 C 203.15 187.68 204.00 188.97 205.11 190.03 C 207.65 191.27 210.57 191.27 213.33 191.62 C 213.42 192.17 213.61 193.26 213.70 193.81 C 211.23 196.24 210.06 199.53 209.21 202.82 C 205.74 203.76 200.88 205.32 201.09 209.75 C 203.89 213.93 208.62 216.29 211.59 220.34 C 211.79 220.98 212.21 222.24 212.41 222.87 C 213.56 222.96 214.71 223.05 215.87 223.13 C 217.28 216.59 218.27 209.97 219.04 203.33 C 220.02 203.34 221.01 203.35 222.00 203.37 C 223.91 204.71 225.84 206.01 227.79 207.29 C 227.86 204.11 227.45 200.95 226.58 197.90 C 227.02 197.55 227.91 196.84 228.36 196.49 C 230.02 198.90 231.90 201.17 233.39 203.71 C 232.78 203.65 231.57 203.53 230.96 203.47 C 230.57 204.99 230.18 206.51 229.80 208.03 C 231.25 208.98 232.70 209.93 234.17 210.87 C 233.65 212.97 233.74 215.13 234.15 217.25 C 236.85 217.53 239.46 218.38 241.33 220.44 C 239.31 220.09 237.27 219.85 235.24 219.59 C 233.95 221.14 232.64 222.67 231.45 224.30 C 231.62 222.26 232.86 218.73 230.08 218.02 C 226.50 220.35 223.47 223.39 220.05 225.93 C 221.55 227.21 223.04 228.49 224.53 229.78 C 222.94 229.96 221.35 230.14 219.76 230.32 C 218.73 229.43 217.68 228.57 216.63 227.72 C 216.56 229.86 216.49 232.00 216.44 234.13 C 214.98 233.36 213.53 232.59 212.08 231.83 C 211.38 231.42 210.70 231.00 210.04 230.56 C 211.18 229.85 212.37 229.20 213.41 228.34 C 213.89 227.01 214.16 225.62 214.47 224.26 C 213.10 224.38 211.74 224.51 210.37 224.65 C 209.43 223.30 208.59 221.85 207.35 220.76 C 204.80 218.86 201.56 218.00 199.32 215.68 C 197.25 213.47 195.67 210.88 193.97 208.39 C 196.31 206.34 198.63 204.25 200.93 202.14 C 198.75 200.47 196.20 198.68 195.83 195.73 C 195.15 193.53 196.43 191.49 197.33 189.58 C 198.28 191.84 199.17 194.12 200.04 196.41 C 201.83 195.66 203.62 194.91 205.40 194.16 C 203.58 192.72 201.75 191.28 199.92 189.86 Z" />
</g>
<g id="#41454bff">
<path fill="#41454b" opacity="1.00" d=" M 219.27 186.84 C 219.61 186.99 220.30 187.30 220.65 187.45 C 222.00 188.09 223.34 188.78 224.64 189.53 C 224.84 189.90 225.25 190.64 225.46 191.01 C 223.31 190.97 221.14 190.81 219.10 190.11 C 219.14 189.29 219.22 187.66 219.27 186.84 Z" />
</g>
<g id="#3e6e7cd8">
<path fill="#3e6e7c" opacity="0.85" d=" M 224.61 187.87 C 225.20 187.76 226.37 187.54 226.96 187.43 C 226.88 189.11 226.80 190.79 226.71 192.48 L 226.10 192.13 C 225.94 191.85 225.62 191.29 225.46 191.01 C 225.25 190.64 224.84 189.90 224.64 189.53 C 224.63 189.12 224.62 188.29 224.61 187.87 Z" />
</g>
<g id="#98dbe4ff">
<path fill="#98dbe4" opacity="1.00" d=" M 207.13 189.14 C 209.85 188.89 212.57 188.55 215.30 188.49 C 213.98 188.42 212.46 190.59 214.25 191.16 C 215.58 190.98 216.17 190.19 216.01 188.79 C 216.59 189.04 217.77 189.55 218.36 189.81 C 219.08 194.04 219.52 198.46 218.08 202.61 C 216.94 202.23 215.81 201.85 214.67 201.47 C 214.38 198.91 214.08 196.36 213.70 193.81 C 213.61 193.26 213.42 192.17 213.33 191.62 C 211.32 190.66 209.22 189.90 207.13 189.14 M 215.16 191.48 C 215.00 194.82 214.66 198.31 215.99 201.48 C 216.49 201.36 217.47 201.12 217.97 201.00 C 218.54 198.49 218.67 195.83 218.03 193.33 C 217.10 192.67 216.14 192.06 215.16 191.48 Z" />
</g>
<g id="#353338e7">
<path fill="#353338" opacity="0.91" d=" M 144.92 189.23 C 146.57 189.20 148.21 189.17 149.86 189.15 C 150.71 190.25 151.56 191.35 152.39 192.46 C 151.93 193.18 151.02 194.60 150.57 195.31 C 148.94 194.97 147.31 194.68 145.72 194.21 C 145.26 192.59 145.12 190.90 144.92 189.23 Z" />
</g>
<g id="#ebffffff">
<path fill="#ebffff" opacity="1.00" d=" M 214.25 191.16 C 212.46 190.59 213.98 188.42 215.30 188.49 L 216.01 188.79 C 216.17 190.19 215.58 190.98 214.25 191.16 Z" />
</g>
<g id="#5a5c65ff">
<path fill="#5a5c65" opacity="1.00" d=" M 218.36 189.81 L 219.10 190.11 C 221.14 190.81 223.31 190.97 225.46 191.01 C 225.62 191.29 225.94 191.85 226.10 192.13 C 226.85 193.58 227.53 195.08 228.36 196.49 C 227.91 196.84 227.02 197.55 226.58 197.90 C 227.45 200.95 227.86 204.11 227.79 207.29 C 225.84 206.01 223.91 204.71 222.00 203.37 C 221.01 203.35 220.02 203.34 219.04 203.33 C 218.67 203.34 217.93 203.35 217.56 203.35 L 218.08 202.61 C 219.52 198.46 219.08 194.04 218.36 189.81 Z" />
</g>
<g id="#36363aff">
<path fill="#36363a" opacity="1.00" d=" M 186.13 191.72 C 188.70 193.39 191.22 195.15 193.75 196.89 C 192.21 197.70 190.68 198.51 189.14 199.32 C 188.72 204.93 189.44 210.52 190.35 216.05 C 187.69 213.60 185.29 210.91 182.82 208.28 C 183.60 208.12 185.17 207.80 185.96 207.65 C 185.69 206.39 185.43 205.13 185.16 203.88 C 184.84 202.43 184.50 200.99 184.21 199.54 C 183.47 196.74 184.88 194.13 186.13 191.72 Z" />
</g>
<g id="#fcffffff">
<path fill="#fcffff" opacity="1.00" d=" M 215.16 191.48 C 216.14 192.06 217.10 192.67 218.03 193.33 C 218.67 195.83 218.54 198.49 217.97 201.00 C 217.47 201.12 216.49 201.36 215.99 201.48 C 214.66 198.31 215.00 194.82 215.16 191.48 Z" />
</g>
<g id="#46454bf3">
<path fill="#46454b" opacity="0.95" d=" M 226.10 192.13 L 226.71 192.48 C 231.88 194.69 236.15 199.43 236.71 205.16 C 237.07 207.40 235.97 209.46 235.04 211.41 C 234.55 208.83 234.09 206.24 233.39 203.71 C 231.90 201.17 230.02 198.90 228.36 196.49 C 227.53 195.08 226.85 193.58 226.10 192.13 Z" />
</g>
<g id="#25a2a4cc">
<path fill="#25a2a4" opacity="0.80" d=" M 150.57 195.31 C 151.02 194.60 151.93 193.18 152.39 192.46 C 152.94 193.21 153.50 193.97 154.04 194.73 C 154.20 195.17 154.52 196.05 154.68 196.49 C 153.30 196.11 151.93 195.72 150.57 195.31 Z" />
</g>
<g id="#6a6770ff">
<path fill="#6a6770" opacity="1.00" d=" M 209.21 202.82 C 210.06 199.53 211.23 196.24 213.70 193.81 C 214.08 196.36 214.38 198.91 214.67 201.47 C 215.81 201.85 216.94 202.23 218.08 202.61 L 217.56 203.35 C 216.15 203.69 214.73 204.05 213.34 204.47 C 212.06 207.20 212.78 210.13 213.57 212.88 C 213.60 213.32 213.67 214.20 213.71 214.64 C 213.38 215.69 213.04 216.73 212.68 217.77 C 212.41 218.42 211.86 219.70 211.59 220.34 C 208.62 216.29 203.89 213.93 201.09 209.75 C 200.88 205.32 205.74 203.76 209.21 202.82 Z" />
</g>
<g id="#4b4d54fe">
<path fill="#4b4d54" opacity="1.00" d=" M 169.53 198.53 L 170.52 198.10 C 170.96 198.27 171.84 198.62 172.28 198.80 C 172.05 199.18 171.58 199.96 171.35 200.34 C 170.70 200.31 169.40 200.25 168.75 200.22 C 168.95 199.79 169.33 198.95 169.53 198.53 Z" />
</g>
<g id="#377885ff">
<path fill="#377885" opacity="1.00" d=" M 175.60 198.75 C 178.48 198.79 181.36 199.06 184.21 199.54 C 184.50 200.99 184.84 202.43 185.16 203.88 C 183.03 204.00 180.90 204.15 178.77 204.21 C 177.70 202.40 176.64 200.58 175.60 198.75 M 178.23 200.74 C 178.12 202.38 181.92 203.01 182.29 201.40 C 181.41 200.28 179.41 199.90 178.23 200.74 Z" />
</g>
<g id="#252628ff">
<path fill="#252628" opacity="1.00" d=" M 164.93 200.06 C 166.20 200.09 167.48 200.14 168.75 200.22 C 169.40 200.25 170.70 200.31 171.35 200.34 C 173.47 202.21 175.90 203.84 178.77 204.21 C 180.90 204.15 183.03 204.00 185.16 203.88 C 185.43 205.13 185.69 206.39 185.96 207.65 C 185.17 207.80 183.60 208.12 182.82 208.28 C 177.29 204.60 170.36 203.92 164.93 200.06 Z" />
</g>
<g id="#2b5d68ff">
<path fill="#2b5d68" opacity="1.00" d=" M 178.23 200.74 C 179.41 199.90 181.41 200.28 182.29 201.40 C 181.92 203.01 178.12 202.38 178.23 200.74 Z" />
</g>
<g id="#9ed7ddff">
<path fill="#9ed7dd" opacity="1.00" d=" M 213.34 204.47 C 214.73 204.05 216.15 203.69 217.56 203.35 C 217.93 203.35 218.67 203.34 219.04 203.33 C 218.27 209.97 217.28 216.59 215.87 223.13 C 214.71 223.05 213.56 222.96 212.41 222.87 C 212.21 222.24 211.79 220.98 211.59 220.34 C 211.86 219.70 212.41 218.42 212.68 217.77 C 212.80 219.46 212.97 221.14 213.19 222.83 C 215.04 221.01 216.05 218.65 216.71 216.19 C 215.96 215.80 214.46 215.03 213.71 214.64 C 213.67 214.20 213.60 213.32 213.57 212.88 C 214.64 212.15 215.66 211.35 216.65 210.50 C 217.49 208.57 217.70 206.44 218.09 204.39 C 216.51 204.41 214.92 204.44 213.34 204.47 Z" />
</g>
<g id="#605d65f9">
<path fill="#605d65" opacity="0.98" d=" M 230.96 203.47 C 231.57 203.53 232.78 203.65 233.39 203.71 C 234.09 206.24 234.55 208.83 235.04 211.41 L 234.17 210.87 C 232.70 209.93 231.25 208.98 229.80 208.03 C 230.18 206.51 230.57 204.99 230.96 203.47 Z" />
</g>
<g id="#f4ffffff">
<path fill="#f4ffff" opacity="1.00" d=" M 213.34 204.47 C 214.92 204.44 216.51 204.41 218.09 204.39 C 217.70 206.44 217.49 208.57 216.65 210.50 C 215.66 211.35 214.64 212.15 213.57 212.88 C 212.78 210.13 212.06 207.20 213.34 204.47 Z" />
</g>
<g id="#1a1a1aff">
<path fill="#1a1a1a" opacity="1.00" d=" M 171.84 215.85 C 171.93 214.19 172.10 212.54 172.28 210.89 C 173.27 211.39 174.26 211.89 175.25 212.40 C 176.80 213.67 178.28 215.03 179.76 216.38 C 179.50 217.59 179.23 218.81 178.97 220.03 C 177.04 219.40 175.13 218.73 173.21 218.09 C 172.86 217.53 172.18 216.41 171.84 215.85 Z" />
</g>
<g id="#39373bff">
<path fill="#39373b" opacity="1.00" d=" M 175.25 212.40 C 181.01 213.62 186.83 215.12 191.53 218.88 C 191.44 220.05 191.37 221.23 191.31 222.40 C 190.86 222.21 189.96 221.82 189.51 221.62 C 186.78 220.16 183.70 218.98 180.73 220.53 C 180.29 220.41 179.41 220.15 178.97 220.03 C 179.23 218.81 179.50 217.59 179.76 216.38 C 178.28 215.03 176.80 213.67 175.25 212.40 Z" />
</g>
<g id="#f8ffffff">
<path fill="#f8ffff" opacity="1.00" d=" M 213.71 214.64 C 214.46 215.03 215.96 215.80 216.71 216.19 C 216.05 218.65 215.04 221.01 213.19 222.83 C 212.97 221.14 212.80 219.46 212.68 217.77 C 213.04 216.73 213.38 215.69 213.71 214.64 Z" />
</g>
<g id="#497e8dfe">
<path fill="#497e8d" opacity="1.00" d=" M 173.21 218.09 C 175.13 218.73 177.04 219.40 178.97 220.03 C 179.41 220.15 180.29 220.41 180.73 220.53 C 183.59 221.32 186.56 221.45 189.51 221.62 C 189.96 221.82 190.86 222.21 191.31 222.40 L 191.30 223.30 C 187.33 224.65 183.02 224.35 179.17 222.72 C 177.07 221.77 175.02 220.73 172.88 219.89 C 172.96 219.44 173.12 218.54 173.21 218.09 Z" />
</g>
<g id="#3e3e41ff">
<path fill="#3e3e41" opacity="1.00" d=" M 220.05 225.93 C 223.47 223.39 226.50 220.35 230.08 218.02 C 232.86 218.73 231.62 222.26 231.45 224.30 C 231.04 225.71 230.64 227.12 230.32 228.55 C 230.59 230.44 230.75 232.45 231.76 234.12 C 232.92 235.71 234.55 236.86 236.15 237.97 C 234.94 239.10 233.74 240.24 232.59 241.43 C 231.58 239.79 230.81 237.94 229.36 236.63 C 227.09 235.05 224.29 234.34 222.20 232.48 C 221.38 231.77 220.58 231.04 219.76 230.32 C 221.35 230.14 222.94 229.96 224.53 229.78 C 223.04 228.49 221.55 227.21 220.05 225.93 Z" />
</g>
<g id="#555558ff">
<path fill="#555558" opacity="1.00" d=" M 180.73 220.53 C 183.70 218.98 186.78 220.16 189.51 221.62 C 186.56 221.45 183.59 221.32 180.73 220.53 Z" />
</g>
<g id="#656465ff">
<path fill="#656465" opacity="1.00" d=" M 235.24 219.59 C 237.27 219.85 239.31 220.09 241.33 220.44 C 244.88 221.31 248.08 223.20 251.12 225.18 C 253.57 226.82 256.09 228.36 258.69 229.75 C 258.85 230.87 259.01 232.00 259.17 233.12 C 261.15 232.08 263.13 231.05 265.13 230.04 L 265.62 229.79 C 264.14 232.82 263.04 236.02 262.41 239.34 C 258.94 238.18 255.45 237.12 251.93 236.10 C 252.13 234.74 252.33 233.37 252.54 232.01 C 247.53 229.14 242.07 227.16 236.38 226.14 C 235.58 227.01 234.77 227.88 233.97 228.76 C 232.75 228.68 231.54 228.61 230.32 228.55 C 230.64 227.12 231.04 225.71 231.45 224.30 C 232.64 222.67 233.95 221.14 235.24 219.59 Z" />
</g>
<g id="#1c1c1cff">
<path fill="#1c1c1c" opacity="1.00" d=" M 166.32 222.22 C 168.33 221.05 170.49 219.88 172.88 219.89 C 175.02 220.73 177.07 221.77 179.17 222.72 C 180.59 225.17 181.73 228.87 185.13 228.96 C 189.16 228.80 192.61 226.34 196.15 224.66 C 196.36 225.18 196.79 226.21 197.00 226.73 C 197.12 227.04 197.34 227.66 197.45 227.97 C 196.61 228.62 195.77 229.28 194.95 229.95 C 194.47 230.35 193.51 231.14 193.03 231.54 C 190.30 234.01 187.02 235.88 183.36 236.49 C 180.11 234.60 176.62 232.79 174.32 229.72 C 172.29 227.03 170.84 223.98 169.25 221.03 C 169.12 221.78 168.85 223.29 168.72 224.04 C 163.59 227.26 158.37 230.46 154.20 234.92 C 153.76 233.58 153.37 232.24 152.98 230.89 C 157.46 228.05 161.79 224.97 166.32 222.22 Z" />
</g>
<g id="#4993a5ff">
<path fill="#4993a5" opacity="1.00" d=" M 169.25 221.03 C 170.84 223.98 172.29 227.03 174.32 229.72 C 176.62 232.79 180.11 234.60 183.36 236.49 C 182.18 236.61 181.01 236.71 179.83 236.81 C 177.43 235.15 175.01 233.50 172.81 231.57 C 171.27 229.16 170.02 226.58 168.72 224.04 C 168.85 223.29 169.12 221.78 169.25 221.03 Z" />
</g>
<g id="#323132ff">
<path fill="#323132" opacity="1.00" d=" M 191.30 223.30 C 192.95 222.71 194.57 222.04 196.20 221.40 C 196.18 222.48 196.16 223.57 196.15 224.66 C 192.61 226.34 189.16 228.80 185.13 228.96 C 181.73 228.87 180.59 225.17 179.17 222.72 C 183.02 224.35 187.33 224.65 191.30 223.30 Z" />
<path fill="#323132" opacity="1.00" d=" M 154.20 234.92 C 158.37 230.46 163.59 227.26 168.72 224.04 C 170.02 226.58 171.27 229.16 172.81 231.57 C 168.71 233.89 165.25 237.18 162.70 241.14 C 158.91 240.82 155.43 238.64 154.20 234.92 Z" />
</g>
<g id="#fdffffff">
<path fill="#fdffff" opacity="1.00" d=" M 210.37 224.65 C 211.74 224.51 213.10 224.38 214.47 224.26 C 214.16 225.62 213.89 227.01 213.41 228.34 C 212.37 229.20 211.18 229.85 210.04 230.56 C 208.97 229.80 207.93 229.02 206.89 228.25 C 208.06 227.05 209.22 225.85 210.37 224.65 Z" />
</g>
<g id="#575859ff">
<path fill="#575859" opacity="1.00" d=" M 197.46 225.43 C 198.77 225.53 200.07 225.68 201.38 225.83 C 201.47 226.85 201.56 227.88 201.65 228.91 C 200.92 228.77 199.48 228.48 198.75 228.34 C 199.26 230.95 199.77 233.56 200.28 236.17 C 198.98 236.98 197.63 237.73 196.34 238.56 C 196.30 235.63 195.78 232.75 194.95 229.95 C 195.77 229.28 196.61 228.62 197.45 227.97 C 197.34 227.66 197.12 227.04 197.00 226.73 C 197.12 226.40 197.35 225.76 197.46 225.43 Z" />
</g>
<g id="#46474cfe">
<path fill="#46474c" opacity="1.00" d=" M 251.12 225.18 C 254.11 225.41 257.17 225.26 260.10 226.04 C 262.28 226.58 263.76 228.38 265.13 230.04 C 263.13 231.05 261.15 232.08 259.17 233.12 C 259.01 232.00 258.85 230.87 258.69 229.75 C 256.09 228.36 253.57 226.82 251.12 225.18 Z" />
</g>
<g id="#45464cff">
<path fill="#45464c" opacity="1.00" d=" M 233.97 228.76 C 234.77 227.88 235.58 227.01 236.38 226.14 C 242.07 227.16 247.53 229.14 252.54 232.01 C 252.33 233.37 252.13 234.74 251.93 236.10 C 255.45 237.12 258.94 238.18 262.41 239.34 C 263.04 236.02 264.14 232.82 265.62 229.79 C 269.35 230.23 273.62 228.26 276.74 231.10 C 274.39 230.77 272.01 230.73 269.65 230.79 C 274.93 234.30 281.03 236.22 286.95 238.34 C 285.49 239.46 284.04 240.59 282.59 241.73 C 284.08 242.83 285.56 243.94 287.10 244.97 C 286.78 244.82 286.12 244.53 285.80 244.38 C 286.98 246.49 288.17 248.59 289.37 250.69 C 289.80 250.87 290.67 251.25 291.10 251.43 C 290.41 251.55 289.03 251.77 288.34 251.89 C 284.58 249.98 281.13 247.53 277.33 245.70 C 274.81 244.41 271.90 244.80 269.18 244.90 C 269.67 242.69 270.81 240.73 271.91 238.78 C 269.31 238.69 267.16 239.90 265.51 241.84 C 264.05 242.82 262.57 243.84 261.58 245.33 C 261.11 246.90 260.70 248.50 260.27 250.09 C 260.76 250.28 261.75 250.64 262.24 250.83 C 259.70 251.10 257.17 251.37 254.65 251.68 C 254.70 250.83 254.79 249.98 254.90 249.14 C 255.27 248.01 255.65 246.87 256.03 245.74 C 254.40 244.40 252.77 243.06 251.05 241.85 C 250.48 240.12 249.90 238.41 249.32 236.69 C 248.40 236.39 247.47 236.09 246.55 235.79 C 246.59 236.77 246.64 237.74 246.69 238.72 C 244.18 238.02 241.66 237.33 239.14 236.67 C 240.27 237.88 241.39 239.10 242.59 240.25 C 242.20 240.13 241.43 239.89 241.05 239.77 C 239.39 239.25 237.74 238.67 236.15 237.97 C 234.55 236.86 232.92 235.71 231.76 234.12 C 230.75 232.45 230.59 230.44 230.32 228.55 C 231.54 228.61 232.75 228.68 233.97 228.76 M 252.12 237.79 C 252.33 239.07 252.56 240.34 252.80 241.62 C 253.54 241.17 255.01 240.27 255.74 239.82 C 254.54 239.12 253.31 238.49 252.12 237.79 Z" />
</g>
<g id="#5e8490ff">
<path fill="#5e8490" opacity="1.00" d=" M 198.75 228.34 C 199.48 228.48 200.92 228.77 201.65 228.91 L 201.70 229.71 C 201.40 231.89 200.94 234.06 200.28 236.17 C 199.77 233.56 199.26 230.95 198.75 228.34 Z" />
</g>
<g id="#292929ff">
<path fill="#292929" opacity="1.00" d=" M 216.63 227.72 C 217.68 228.57 218.73 229.43 219.76 230.32 C 220.58 231.04 221.38 231.77 222.20 232.48 C 219.96 234.54 218.02 236.92 215.65 238.85 C 211.68 238.92 207.91 237.14 203.93 237.27 C 201.20 237.67 198.63 238.76 196.01 239.56 L 196.34 238.56 C 197.63 237.73 198.98 236.98 200.28 236.17 C 200.94 234.06 201.40 231.89 201.70 229.71 C 201.83 231.29 202.00 232.87 202.15 234.46 C 203.76 233.42 205.30 232.16 207.17 231.61 C 208.80 231.37 210.45 231.62 212.08 231.83 C 213.53 232.59 214.98 233.36 216.44 234.13 C 216.49 232.00 216.56 229.86 216.63 227.72 Z" />
</g>
<g id="#588997ff">
<path fill="#588997" opacity="1.00" d=" M 193.03 231.54 C 193.51 231.14 194.47 230.35 194.95 229.95 C 195.78 232.75 196.30 235.63 196.34 238.56 L 196.01 239.56 C 195.56 239.06 194.67 238.05 194.22 237.55 C 194.13 237.13 193.95 236.29 193.86 235.87 C 193.56 234.43 193.29 232.98 193.03 231.54 Z" />
</g>
<g id="#828185ff">
<path fill="#828185" opacity="1.00" d=" M 269.65 230.79 C 272.01 230.73 274.39 230.77 276.74 231.10 C 277.27 231.34 278.32 231.83 278.84 232.07 C 283.14 234.45 288.76 235.06 291.54 239.57 C 290.00 239.19 288.47 238.80 286.95 238.34 C 281.03 236.22 274.93 234.30 269.65 230.79 Z" />
</g>
<g id="#5591a2fd">
<path fill="#5591a2" opacity="1.00" d=" M 152.98 230.89 C 153.37 232.24 153.76 233.58 154.20 234.92 C 155.43 238.64 158.91 240.82 162.70 241.14 C 164.47 241.23 166.24 241.26 168.01 241.20 C 166.54 241.97 165.09 242.79 163.66 243.62 C 161.28 243.04 158.71 242.73 156.67 241.27 C 154.67 239.83 152.96 238.03 151.15 236.37 C 151.52 235.25 151.89 234.14 152.26 233.03 C 152.44 232.50 152.80 231.43 152.98 230.89 Z" />
</g>
<g id="#272627ff">
<path fill="#272627" opacity="1.00" d=" M 162.70 241.14 C 165.25 237.18 168.71 233.89 172.81 231.57 C 175.01 233.50 177.43 235.15 179.83 236.81 C 179.10 236.88 177.64 237.03 176.91 237.10 C 175.54 237.60 174.19 238.18 172.87 238.80 C 171.24 239.58 169.63 240.40 168.01 241.20 C 166.24 241.26 164.47 241.23 162.70 241.14 Z" />
</g>
<g id="#585759ff">
<path fill="#585759" opacity="1.00" d=" M 183.36 236.49 C 187.02 235.88 190.30 234.01 193.03 231.54 C 193.29 232.98 193.56 234.43 193.86 235.87 C 187.98 237.43 182.09 238.93 176.18 240.34 C 176.41 239.26 176.65 238.18 176.91 237.10 C 177.64 237.03 179.10 236.88 179.83 236.81 C 181.01 236.71 182.18 236.61 183.36 236.49 Z" />
</g>
<g id="#3c3d44ff">
<path fill="#3c3d44" opacity="1.00" d=" M 278.84 232.07 C 283.81 233.16 288.69 234.74 293.17 237.18 C 293.43 238.23 293.40 239.40 294.03 240.33 C 297.97 243.06 302.87 243.76 307.16 245.77 C 310.20 247.37 312.42 250.29 315.73 251.43 C 318.79 252.49 322.11 251.74 325.23 252.49 C 328.43 253.86 330.43 257.12 333.74 258.31 C 337.28 259.23 341.04 258.60 344.57 259.57 C 346.86 260.38 348.68 262.05 350.62 263.45 C 355.13 267.06 360.92 268.27 365.92 271.01 C 365.20 271.82 364.46 272.62 363.72 273.41 C 362.36 274.79 360.97 276.13 359.59 277.49 C 360.82 278.50 362.05 279.50 363.29 280.51 C 362.32 282.46 361.57 284.54 360.27 286.30 C 359.22 286.85 358.14 287.35 357.04 287.79 C 357.22 285.89 357.40 284.00 357.60 282.10 C 354.21 279.00 350.69 276.06 346.91 273.46 C 345.86 274.80 344.81 276.15 343.77 277.50 C 348.88 279.97 352.84 284.08 357.04 287.79 C 351.78 287.55 347.21 283.73 341.84 284.76 C 341.67 284.16 341.33 282.96 341.17 282.36 C 340.89 281.06 340.70 279.74 340.51 278.42 C 341.45 276.92 342.38 275.43 343.31 273.92 C 342.02 273.48 340.74 273.06 339.47 272.59 C 337.70 271.72 335.97 270.78 334.33 269.69 L 334.01 269.12 C 337.20 269.54 340.43 269.72 343.57 270.44 C 346.86 271.19 349.76 273.07 353.05 273.85 C 354.38 273.72 355.53 272.94 356.76 272.46 C 350.25 268.82 343.10 266.64 336.20 263.91 C 332.13 262.28 328.16 260.40 324.02 258.95 C 318.36 256.95 312.55 255.36 307.02 253.01 C 305.75 252.42 304.39 251.88 303.40 250.87 C 302.67 249.56 302.29 248.10 301.84 246.69 C 299.69 247.71 297.40 248.67 294.97 248.32 C 292.31 247.29 289.69 246.16 287.10 244.97 C 285.56 243.94 284.08 242.83 282.59 241.73 C 284.04 240.59 285.49 239.46 286.95 238.34 C 288.47 238.80 290.00 239.19 291.54 239.57 C 288.76 235.06 283.14 234.45 278.84 232.07 Z" />
</g>
<g id="#1a1a1ac1">
<path fill="#1a1a1a" opacity="0.76" d=" M 148.21 236.42 C 148.93 234.69 150.76 233.94 152.26 233.03 C 151.89 234.14 151.52 235.25 151.15 236.37 C 150.63 238.28 149.52 240.33 150.43 242.31 C 151.40 244.65 152.83 247.79 155.83 247.68 C 160.91 247.91 165.98 247.04 170.90 245.86 C 167.07 248.09 162.67 249.43 158.23 249.42 C 154.78 249.16 150.87 248.03 149.04 244.83 C 147.58 242.35 146.92 239.11 148.21 236.42 Z" />
</g>
<g id="#353435fe">
<path fill="#353435" opacity="1.00" d=" M 176.18 240.34 C 182.09 238.93 187.98 237.43 193.86 235.87 C 193.95 236.29 194.13 237.13 194.22 237.55 C 188.30 240.37 181.97 242.32 175.61 243.89 C 175.78 242.70 175.97 241.52 176.18 240.34 Z" />
</g>
<g id="#5c5d64ff">
<path fill="#5c5d64" opacity="1.00" d=" M 246.55 235.79 C 247.47 236.09 248.40 236.39 249.32 236.69 C 249.90 238.41 250.48 240.12 251.05 241.85 C 248.70 241.33 246.31 241.07 243.94 240.68 C 243.60 240.57 242.93 240.35 242.59 240.25 C 241.39 239.10 240.27 237.88 239.14 236.67 C 241.66 237.33 244.18 238.02 246.69 238.72 C 246.64 237.74 246.59 236.77 246.55 235.79 Z" />
</g>
<g id="#464546ff">
<path fill="#464546" opacity="1.00" d=" M 150.43 242.31 C 149.52 240.33 150.63 238.28 151.15 236.37 C 152.96 238.03 154.67 239.83 156.67 241.27 C 158.71 242.73 161.28 243.04 163.66 243.62 C 164.06 244.00 164.88 244.77 165.29 245.16 C 167.91 244.12 170.52 243.06 173.12 241.98 C 173.18 242.76 173.30 244.32 173.36 245.09 C 172.74 245.28 171.51 245.67 170.90 245.86 C 165.98 247.04 160.91 247.91 155.83 247.68 C 152.83 247.79 151.40 244.65 150.43 242.31 Z" />
</g>
<g id="#7adff6ff">
<path fill="#7adff6" opacity="1.00" d=" M 172.87 238.80 C 174.19 238.18 175.54 237.60 176.91 237.10 C 176.65 238.18 176.41 239.26 176.18 240.34 C 175.97 241.52 175.78 242.70 175.61 243.89 C 174.86 244.29 174.11 244.69 173.36 245.09 C 173.30 244.32 173.18 242.76 173.12 241.98 C 173.06 241.19 172.93 239.60 172.87 238.80 Z" />
</g>
<g id="#5b5c63ff">
<path fill="#5b5c63" opacity="1.00" d=" M 232.59 241.43 C 233.74 240.24 234.94 239.10 236.15 237.97 C 237.74 238.67 239.39 239.25 241.05 239.77 C 241.11 240.54 241.24 242.06 241.30 242.83 C 243.94 243.59 246.57 244.35 249.22 245.07 C 249.20 244.62 249.14 243.71 249.11 243.25 C 249.89 245.62 250.29 248.09 250.47 250.58 C 243.80 248.71 237.52 245.76 231.32 242.74 C 231.64 242.42 232.27 241.76 232.59 241.43 Z" />
</g>
<g id="#5d5d5eff">
<path fill="#5d5d5e" opacity="1.00" d=" M 252.12 237.79 C 253.31 238.49 254.54 239.12 255.74 239.82 C 255.01 240.27 253.54 241.17 252.80 241.62 C 252.56 240.34 252.33 239.07 252.12 237.79 Z" />
</g>
<g id="#6f6e71ff">
<path fill="#6f6e71" opacity="1.00" d=" M 168.01 241.20 C 169.63 240.40 171.24 239.58 172.87 238.80 C 172.93 239.60 173.06 241.19 173.12 241.98 C 170.52 243.06 167.91 244.12 165.29 245.16 C 164.88 244.77 164.06 244.00 163.66 243.62 C 165.09 242.79 166.54 241.97 168.01 241.20 Z" />
</g>
<g id="#595a61ff">
<path fill="#595a61" opacity="1.00" d=" M 265.51 241.84 C 267.16 239.90 269.31 238.69 271.91 238.78 C 270.81 240.73 269.67 242.69 269.18 244.90 C 274.93 249.36 282.24 250.86 288.64 254.15 C 288.56 253.58 288.41 252.45 288.34 251.89 C 289.03 251.77 290.41 251.55 291.10 251.43 C 292.54 252.02 293.91 252.77 295.27 253.54 C 296.01 253.65 297.48 253.88 298.22 253.99 C 297.54 252.80 296.87 251.62 296.19 250.44 C 295.78 249.73 295.37 249.02 294.97 248.32 C 297.40 248.67 299.69 247.71 301.84 246.69 C 302.29 248.10 302.67 249.56 303.40 250.87 C 304.39 251.88 305.75 252.42 307.02 253.01 C 312.55 255.36 318.36 256.95 324.02 258.95 C 328.16 260.40 332.13 262.28 336.20 263.91 C 336.48 265.09 336.77 266.28 337.07 267.47 C 335.74 267.40 334.41 267.35 333.09 267.30 C 333.32 267.76 333.78 268.67 334.01 269.12 L 334.33 269.69 C 331.71 268.06 329.22 266.00 326.14 265.33 C 323.69 264.77 321.19 264.62 318.70 264.41 C 320.42 265.58 322.16 266.73 324.00 267.74 C 322.30 268.32 320.61 268.89 318.95 269.58 L 318.30 270.04 C 317.02 270.96 315.74 271.88 314.47 272.83 C 313.02 273.90 311.59 275.00 310.16 276.10 C 309.77 274.89 309.39 273.67 309.04 272.45 C 310.41 271.54 311.80 270.67 313.07 269.62 C 313.26 268.57 313.08 267.58 312.55 266.67 C 309.38 265.11 305.85 264.51 302.39 264.03 C 303.20 262.93 304.02 261.84 304.84 260.75 C 303.37 260.57 301.91 260.39 300.44 260.28 C 300.64 259.11 300.84 257.95 301.04 256.79 C 295.11 256.10 289.24 254.90 283.27 254.82 C 283.58 256.71 283.90 258.60 284.15 260.50 C 283.72 260.30 282.87 259.89 282.44 259.68 C 280.69 259.03 279.00 258.15 277.15 257.77 C 275.40 258.11 273.84 259.06 272.24 259.81 L 271.38 260.23 C 271.05 258.18 270.79 256.12 270.76 254.04 C 273.37 254.86 276.02 255.88 278.80 255.79 C 280.79 255.45 282.53 254.35 284.31 253.47 C 276.90 250.35 269.54 246.80 261.58 245.33 C 262.57 243.84 264.05 242.82 265.51 241.84 Z" />
</g>
<g id="#738fb7ff">
<path fill="#738fb7" opacity="1.00" d=" M 241.05 239.77 C 241.43 239.89 242.20 240.13 242.59 240.25 C 242.93 240.35 243.60 240.57 243.94 240.68 C 245.71 241.44 247.43 242.30 249.11 243.25 C 249.14 243.71 249.20 244.62 249.22 245.07 C 246.57 244.35 243.94 243.59 241.30 242.83 C 241.24 242.06 241.11 240.54 241.05 239.77 Z" />
</g>
<g id="#333438ff">
<path fill="#333438" opacity="1.00" d=" M 243.94 240.68 C 246.31 241.07 248.70 241.33 251.05 241.85 C 252.77 243.06 254.40 244.40 256.03 245.74 C 255.65 246.87 255.27 248.01 254.90 249.14 C 253.55 250.97 252.23 252.97 250.22 254.13 C 248.10 254.19 246.15 253.16 244.18 252.51 C 243.72 252.86 242.79 253.56 242.33 253.92 L 241.69 254.40 C 238.33 253.15 234.50 252.45 231.86 249.86 C 231.44 247.51 231.44 245.12 231.32 242.74 C 237.52 245.76 243.80 248.71 250.47 250.58 C 250.29 248.09 249.89 245.62 249.11 243.25 C 247.43 242.30 245.71 241.44 243.94 240.68 M 235.55 247.25 C 234.51 249.07 238.38 250.19 238.59 248.16 C 238.42 246.82 236.43 246.28 235.55 247.25 Z" />
</g>
<g id="#67676dff">
<path fill="#67676d" opacity="1.00" d=" M 269.18 244.90 C 271.90 244.80 274.81 244.41 277.33 245.70 C 281.13 247.53 284.58 249.98 288.34 251.89 C 288.41 252.45 288.56 253.58 288.64 254.15 C 282.24 250.86 274.93 249.36 269.18 244.90 Z" />
</g>
<g id="#7e7c81ff">
<path fill="#7e7c81" opacity="1.00" d=" M 261.58 245.33 C 269.54 246.80 276.90 250.35 284.31 253.47 C 282.53 254.35 280.79 255.45 278.80 255.79 C 276.02 255.88 273.37 254.86 270.76 254.04 C 267.90 253.01 265.09 251.87 262.24 250.83 C 261.75 250.64 260.76 250.28 260.27 250.09 C 260.70 248.50 261.11 246.90 261.58 245.33 Z" />
</g>
<g id="#68686fff">
<path fill="#68686f" opacity="1.00" d=" M 285.80 244.38 C 286.12 244.53 286.78 244.82 287.10 244.97 C 289.69 246.16 292.31 247.29 294.97 248.32 C 295.37 249.02 295.78 249.73 296.19 250.44 C 295.87 251.47 295.57 252.50 295.27 253.54 C 293.91 252.77 292.54 252.02 291.10 251.43 C 290.67 251.25 289.80 250.87 289.37 250.69 C 288.17 248.59 286.98 246.49 285.80 244.38 Z" />
</g>
<g id="#726e6eff">
<path fill="#726e6e" opacity="1.00" d=" M 235.55 247.25 C 236.43 246.28 238.42 246.82 238.59 248.16 C 238.38 250.19 234.51 249.07 235.55 247.25 Z" />
</g>
<g id="#5a5758fb">
<path fill="#5a5758" opacity="1.00" d=" M 254.90 249.14 C 254.79 249.98 254.70 250.83 254.65 251.68 C 254.58 253.00 254.54 254.33 254.54 255.66 C 251.75 256.50 248.82 257.02 245.92 256.46 C 244.68 255.67 243.51 254.78 242.33 253.92 C 242.79 253.56 243.72 252.86 244.18 252.51 C 246.15 253.16 248.10 254.19 250.22 254.13 C 252.23 252.97 253.55 250.97 254.90 249.14 Z" />
</g>
<g id="#929096ff">
<path fill="#929096" opacity="1.00" d=" M 295.27 253.54 C 295.57 252.50 295.87 251.47 296.19 250.44 C 296.87 251.62 297.54 252.80 298.22 253.99 C 297.48 253.88 296.01 253.65 295.27 253.54 Z" />
</g>
<g id="#1e1d1e9c">
<path fill="#1e1d1e" opacity="0.61" d=" M 245.92 256.46 C 248.82 257.02 251.75 256.50 254.54 255.66 C 253.61 256.48 252.69 257.33 251.69 258.06 C 249.63 258.45 247.77 257.13 245.92 256.46 Z" />
</g>
<g id="#3f4045ff">
<path fill="#3f4045" opacity="1.00" d=" M 283.27 254.82 C 289.24 254.90 295.11 256.10 301.04 256.79 C 300.84 257.95 300.64 259.11 300.44 260.28 C 296.90 260.79 293.46 261.80 290.05 262.86 C 288.67 261.90 287.28 260.95 285.90 259.99 C 285.21 261.49 284.92 263.44 283.41 264.36 C 280.85 265.33 278.18 264.47 275.83 263.36 C 277.43 263.70 279.05 263.97 280.67 264.26 C 280.32 263.61 279.97 262.97 279.63 262.33 C 280.35 261.65 281.08 260.97 281.80 260.29 C 282.04 260.70 282.51 261.53 282.74 261.94 L 283.65 261.95 L 284.23 261.32 L 284.15 260.50 C 283.90 258.60 283.58 256.71 283.27 254.82 Z" />
</g>
<g id="#717483fe">
<path fill="#717483" opacity="1.00" d=" M 272.24 259.81 C 273.84 259.06 275.40 258.11 277.15 257.77 C 279.00 258.15 280.69 259.03 282.44 259.68 L 281.80 260.29 C 281.08 260.97 280.35 261.65 279.63 262.33 C 279.97 262.97 280.32 263.61 280.67 264.26 C 279.05 263.97 277.43 263.70 275.83 263.36 C 274.20 262.71 273.34 261.05 272.24 259.81 M 277.09 258.33 L 276.68 259.05 L 277.09 259.76 L 277.91 259.76 L 278.33 259.05 L 277.92 258.33 L 277.09 258.33 Z" />
</g>
<g id="#aba9b4ff">
<path fill="#aba9b4" opacity="1.00" d=" M 277.09 258.33 L 277.92 258.33 L 278.33 259.05 L 277.91 259.76 L 277.09 259.76 L 276.68 259.05 L 277.09 258.33 Z" />
</g>
<g id="#d6d1d7ff">
<path fill="#d6d1d7" opacity="1.00" d=" M 282.44 259.68 C 282.87 259.89 283.72 260.30 284.15 260.50 L 284.23 261.32 L 283.65 261.95 L 282.74 261.94 C 282.51 261.53 282.04 260.70 281.80 260.29 L 282.44 259.68 Z" />
</g>
<g id="#6f717cff">
<path fill="#6f717c" opacity="1.00" d=" M 290.05 262.86 C 293.46 261.80 296.90 260.79 300.44 260.28 C 301.91 260.39 303.37 260.57 304.84 260.75 C 304.02 261.84 303.20 262.93 302.39 264.03 C 302.21 264.28 301.85 264.78 301.67 265.03 C 301.87 266.01 302.11 266.98 302.37 267.96 C 301.95 267.99 301.13 268.05 300.71 268.08 L 300.44 268.74 C 300.35 268.98 300.18 269.48 300.09 269.73 C 299.88 270.58 299.68 271.43 299.50 272.29 C 297.11 271.49 294.51 271.00 292.48 269.44 C 290.83 267.68 290.18 265.28 289.28 263.10 L 290.05 262.86 M 295.89 265.99 C 296.09 266.67 296.49 268.03 296.69 268.71 C 297.39 266.77 297.84 264.76 298.07 262.72 C 297.36 263.79 295.90 264.59 295.89 265.99 Z" />
</g>
<g id="#bcbcc8ff">
<path fill="#bcbcc8" opacity="1.00" d=" M 295.89 265.99 C 295.90 264.59 297.36 263.79 298.07 262.72 C 297.84 264.76 297.39 266.77 296.69 268.71 C 296.49 268.03 296.09 266.67 295.89 265.99 Z" />
</g>
<g id="#3b3c41fe">
<path fill="#3b3c41" opacity="1.00" d=" M 302.39 264.03 C 305.85 264.51 309.38 265.11 312.55 266.67 C 313.08 267.58 313.26 268.57 313.07 269.62 C 311.80 270.67 310.41 271.54 309.04 272.45 C 308.16 271.23 307.84 269.21 306.12 268.88 C 303.85 269.89 301.73 271.19 299.50 272.29 C 299.68 271.43 299.88 270.58 300.09 269.73 C 300.18 269.48 300.35 268.98 300.44 268.74 C 300.96 268.93 302.00 269.31 302.52 269.50 C 302.48 269.11 302.40 268.34 302.37 267.96 C 302.11 266.98 301.87 266.01 301.67 265.03 C 301.85 264.78 302.21 264.28 302.39 264.03 Z" />
</g>
<g id="#6a6a71ff">
<path fill="#6a6a71" opacity="1.00" d=" M 318.70 264.41 C 321.19 264.62 323.69 264.77 326.14 265.33 C 329.22 266.00 331.71 268.06 334.33 269.69 C 335.97 270.78 337.70 271.72 339.47 272.59 C 335.50 273.59 331.84 271.24 328.28 269.83 C 326.85 269.14 325.41 268.47 324.00 267.74 C 322.16 266.73 320.42 265.58 318.70 264.41 Z" />
</g>
<g id="#626268ff">
<path fill="#626268" opacity="1.00" d=" M 336.20 263.91 C 343.10 266.64 350.25 268.82 356.76 272.46 C 355.53 272.94 354.38 273.72 353.05 273.85 C 349.76 273.07 346.86 271.19 343.57 270.44 C 340.43 269.72 337.20 269.54 334.01 269.12 C 333.78 268.67 333.32 267.76 333.09 267.30 C 334.41 267.35 335.74 267.40 337.07 267.47 C 336.77 266.28 336.48 265.09 336.20 263.91 Z" />
</g>
<g id="#acaaadfe">
<path fill="#acaaad" opacity="1.00" d=" M 300.71 268.08 C 301.13 268.05 301.95 267.99 302.37 267.96 C 302.40 268.34 302.48 269.11 302.52 269.50 C 302.00 269.31 300.96 268.93 300.44 268.74 L 300.71 268.08 Z" />
</g>
<g id="#43444aff">
<path fill="#43444a" opacity="1.00" d=" M 318.95 269.58 C 320.61 268.89 322.30 268.32 324.00 267.74 C 325.41 268.47 326.85 269.14 328.28 269.83 C 329.86 271.68 331.20 273.72 332.52 275.76 C 332.01 276.77 331.50 277.77 331.00 278.79 C 330.50 278.56 329.50 278.11 329.00 277.89 C 327.74 277.33 326.50 276.69 325.17 276.35 C 323.53 277.27 322.11 278.52 320.46 279.41 C 318.26 280.41 315.95 279.30 314.00 278.27 C 315.38 278.60 316.79 278.87 318.19 279.15 C 318.57 277.97 318.96 276.80 319.35 275.63 C 320.12 275.97 321.65 276.64 322.42 276.98 C 321.79 275.35 321.18 273.71 320.47 272.12 C 319.98 271.26 319.47 270.41 318.95 269.58 Z" />
</g>
<g id="#b5b4bbff">
<path fill="#b5b4bb" opacity="1.00" d=" M 314.47 272.83 C 315.74 271.88 317.02 270.96 318.30 270.04 C 317.71 271.82 317.21 273.63 316.70 275.44 C 315.96 274.56 315.21 273.69 314.47 272.83 Z" />
</g>
<g id="#797c8ffe">
<path fill="#797c8f" opacity="1.00" d=" M 318.30 270.04 L 318.95 269.58 C 319.47 270.41 319.98 271.26 320.47 272.12 C 320.10 273.29 319.73 274.46 319.35 275.63 C 318.96 276.80 318.57 277.97 318.19 279.15 C 316.79 278.87 315.38 278.60 314.00 278.27 C 312.66 277.65 311.42 276.85 310.16 276.10 C 311.59 275.00 313.02 273.90 314.47 272.83 C 315.21 273.69 315.96 274.56 316.70 275.44 C 317.21 273.63 317.71 271.82 318.30 270.04 Z" />
</g>
<g id="#4f5058ff">
<path fill="#4f5058" opacity="1.00" d=" M 328.28 269.83 C 331.84 271.24 335.50 273.59 339.47 272.59 C 340.74 273.06 342.02 273.48 343.31 273.92 C 342.38 275.43 341.45 276.92 340.51 278.42 C 339.99 278.28 338.96 277.98 338.44 277.83 C 337.89 277.66 336.80 277.32 336.26 277.15 C 335.00 276.71 333.76 276.24 332.52 275.76 C 331.20 273.72 329.86 271.68 328.28 269.83 Z" />
</g>
<g id="#a3a0a6ff">
<path fill="#a3a0a6" opacity="1.00" d=" M 319.35 275.63 C 319.73 274.46 320.10 273.29 320.47 272.12 C 321.18 273.71 321.79 275.35 322.42 276.98 C 321.65 276.64 320.12 275.97 319.35 275.63 Z" />
</g>
<g id="#57575fff">
<path fill="#57575f" opacity="1.00" d=" M 343.77 277.50 C 344.81 276.15 345.86 274.80 346.91 273.46 C 350.69 276.06 354.21 279.00 357.60 282.10 C 357.40 284.00 357.22 285.89 357.04 287.79 C 352.84 284.08 348.88 279.97 343.77 277.50 Z" />
</g>
<g id="#58575cea">
<path fill="#58575c" opacity="0.92" d=" M 359.59 277.49 C 360.97 276.13 362.36 274.79 363.72 273.41 C 363.96 275.79 363.77 278.17 363.29 280.51 C 362.05 279.50 360.82 278.50 359.59 277.49 Z" />
</g>
<g id="#646671ff">
<path fill="#646671" opacity="1.00" d=" M 332.52 275.76 C 333.76 276.24 335.00 276.71 336.26 277.15 C 334.67 279.17 333.01 281.14 331.14 282.91 C 330.74 282.91 329.93 282.90 329.53 282.90 C 329.17 282.89 328.45 282.88 328.09 282.88 C 328.18 281.13 328.26 279.38 328.41 277.63 L 329.00 277.89 C 329.50 278.11 330.50 278.56 331.00 278.79 C 331.50 277.77 332.01 276.77 332.52 275.76 Z" />
</g>
<g id="#9d9fafff">
<path fill="#9d9faf" opacity="1.00" d=" M 336.26 277.15 C 336.80 277.32 337.89 277.66 338.44 277.83 C 337.59 279.74 336.74 281.64 335.87 283.54 C 334.30 283.30 332.73 283.05 331.14 282.91 C 333.01 281.14 334.67 279.17 336.26 277.15 Z" />
</g>
<g id="#757887ff">
<path fill="#757887" opacity="1.00" d=" M 338.44 277.83 C 338.96 277.98 339.99 278.28 340.51 278.42 C 340.70 279.74 340.89 281.06 341.17 282.36 C 338.84 282.27 339.15 285.68 341.38 285.39 C 339.31 288.02 335.79 286.87 333.17 285.87 C 331.62 285.36 330.62 284.01 329.53 282.90 C 329.93 282.90 330.74 282.91 331.14 282.91 C 332.73 283.05 334.30 283.30 335.87 283.54 C 336.74 281.64 337.59 279.74 338.44 277.83 Z" />
</g>
<g id="#d4d1d4fc">
<path fill="#d4d1d4" opacity="1.00" d=" M 341.38 285.39 C 339.15 285.68 338.84 282.27 341.17 282.36 C 341.33 282.96 341.67 284.16 341.84 284.76 L 341.38 285.39 Z" />
</g>
</svg>
