<?xml version="1.0" encoding="UTF-8" ?>
<!DOCTYPE svg PUBLIC "-//W3C//DTD SVG 1.1//EN" "http://www.w3.org/Graphics/SVG/1.1/DTD/svg11.dtd">
<svg width="384pt" height="384pt" viewBox="0 0 384 384" version="1.1" xmlns="http://www.w3.org/2000/svg">
<g id="#515b60ff">
<path fill="#515b60" opacity="1.00" d=" M 248.84 149.63 C 252.12 148.87 255.49 148.65 258.86 148.66 C 257.17 150.01 255.30 151.21 254.01 152.97 C 253.26 154.83 253.22 156.87 253.09 158.85 C 252.69 158.92 251.90 159.05 251.51 159.11 C 250.67 156.88 249.81 154.66 248.94 152.45 C 248.81 154.45 248.70 156.46 248.58 158.47 C 246.58 156.37 244.62 154.24 242.69 152.08 C 246.47 151.38 250.28 150.82 254.09 150.29 C 252.34 150.05 250.59 149.78 248.84 149.63 Z" />
</g>
<g id="#1f1e1eff">
<path fill="#1f1e1e" opacity="1.00" d=" M 205.86 152.26 C 211.09 149.21 217.55 148.48 223.12 151.08 C 226.35 153.48 228.01 157.22 229.22 160.94 C 228.47 161.03 226.98 161.20 226.23 161.29 C 224.51 159.47 222.85 157.39 220.44 156.48 C 216.47 154.88 212.09 155.22 207.95 155.75 C 207.75 155.47 207.35 154.93 207.15 154.66 C 206.69 153.87 206.26 153.07 205.86 152.26 Z" />
</g>
<g id="#262526ff">
<path fill="#262526" opacity="1.00" d=" M 227.20 152.39 C 234.62 153.47 241.54 149.87 248.84 149.63 C 250.59 149.78 252.34 150.05 254.09 150.29 C 250.28 150.82 246.47 151.38 242.69 152.08 C 244.62 154.24 246.58 156.37 248.58 158.47 C 248.70 156.46 248.81 154.45 248.94 152.45 C 249.81 154.66 250.67 156.88 251.51 159.11 C 250.13 159.35 248.74 159.60 247.37 159.85 C 246.23 158.89 245.10 157.94 243.97 156.97 C 244.36 158.56 244.76 160.15 245.09 161.76 C 240.55 161.42 236.00 161.40 231.46 161.60 C 230.13 158.49 228.74 155.41 227.20 152.39 M 233.77 152.93 C 236.35 155.65 239.85 157.08 243.49 157.74 C 242.78 156.38 242.23 154.90 241.18 153.76 C 238.95 152.45 236.22 152.98 233.77 152.93 Z" />
</g>
<g id="#3a3c3dff">
<path fill="#3a3c3d" opacity="1.00" d=" M 258.86 148.66 C 260.78 150.17 263.04 151.42 264.39 153.53 C 265.20 155.62 265.46 158.70 263.26 160.04 C 262.67 160.06 261.49 160.09 260.90 160.11 C 262.19 158.89 263.47 157.66 264.76 156.44 C 262.57 155.09 260.32 153.82 258.08 152.56 C 257.07 154.78 256.07 157.01 255.09 159.24 C 254.59 159.14 253.59 158.95 253.09 158.85 C 253.22 156.87 253.26 154.83 254.01 152.97 C 255.30 151.21 257.17 150.01 258.86 148.66 Z" />
</g>
<g id="#7bcde4ff">
<path fill="#7bcde4" opacity="1.00" d=" M 223.12 151.08 C 224.47 151.52 225.83 151.95 227.20 152.39 C 228.74 155.41 230.13 158.49 231.46 161.60 C 231.97 162.76 232.49 163.91 233.00 165.07 C 233.40 166.94 233.67 168.84 233.89 170.74 C 233.45 170.83 232.57 171.02 232.12 171.12 C 232.09 168.77 232.04 166.43 231.99 164.09 C 231.15 164.01 229.48 163.84 228.64 163.76 C 229.13 166.26 229.62 168.76 230.24 171.24 C 228.68 168.74 227.12 166.25 225.49 163.80 C 225.73 162.96 225.98 162.12 226.23 161.29 C 226.98 161.20 228.47 161.03 229.22 160.94 C 228.01 157.22 226.35 153.48 223.12 151.08 Z" />
</g>
<g id="#6c696cff">
<path fill="#6c696c" opacity="1.00" d=" M 233.77 152.93 C 236.22 152.98 238.95 152.45 241.18 153.76 C 242.23 154.90 242.78 156.38 243.49 157.74 C 239.85 157.08 236.35 155.65 233.77 152.93 Z" />
</g>
<g id="#565456ff">
<path fill="#565456" opacity="1.00" d=" M 258.08 152.56 C 260.32 153.82 262.57 155.09 264.76 156.44 C 263.47 157.66 262.19 158.89 260.90 160.11 C 258.95 159.89 257.01 159.58 255.09 159.24 C 256.07 157.01 257.07 154.78 258.08 152.56 Z" />
</g>
<g id="#161615ff">
<path fill="#161615" opacity="1.00" d=" M 191.85 163.54 C 194.26 158.71 199.14 156.12 203.65 153.62 C 203.89 154.08 204.37 155.01 204.60 155.47 C 204.02 157.91 203.65 161.01 201.19 162.30 C 198.26 163.59 194.98 163.45 191.85 163.54 Z" />
</g>
<g id="#5f8c9aff">
<path fill="#5f8c9a" opacity="1.00" d=" M 204.47 153.47 C 205.14 153.76 206.48 154.36 207.15 154.66 C 207.35 154.93 207.75 155.47 207.95 155.75 C 208.28 156.22 208.94 157.18 209.27 157.65 C 210.27 159.75 211.03 161.96 211.74 164.17 C 207.47 162.81 206.17 158.23 204.81 154.47 L 204.47 153.47 Z" />
</g>
<g id="#444248ff">
<path fill="#444248" opacity="1.00" d=" M 204.60 155.47 L 204.81 154.47 C 206.17 158.23 207.47 162.81 211.74 164.17 C 215.94 165.09 220.24 165.37 224.51 165.73 C 224.16 168.09 223.81 170.44 223.41 172.79 C 220.80 173.84 217.94 174.91 216.38 177.42 C 214.81 179.76 212.99 182.77 214.32 185.62 C 216.00 189.49 220.36 190.89 223.14 193.76 C 223.73 196.16 223.23 198.65 222.96 201.07 C 222.84 201.62 222.61 202.74 222.50 203.30 C 223.68 203.52 224.86 203.74 226.06 203.95 C 226.53 204.03 227.46 204.17 227.93 204.25 C 223.33 205.38 218.51 205.07 214.07 203.42 C 212.70 201.96 211.40 200.33 209.64 199.32 C 208.01 198.72 206.24 198.84 204.54 198.77 C 204.69 201.20 204.85 203.63 205.03 206.06 L 204.23 205.83 C 202.93 204.39 201.76 202.81 200.29 201.53 C 198.18 201.25 196.16 202.26 194.15 202.76 C 194.43 204.17 194.71 205.59 194.99 207.00 C 193.91 207.21 192.84 207.45 191.79 207.73 C 192.46 205.04 193.14 202.35 193.79 199.65 C 190.85 199.55 187.90 199.57 184.96 199.69 C 184.88 201.80 184.78 203.90 184.71 206.01 C 183.85 203.95 182.97 201.90 182.08 199.86 C 176.75 197.98 170.43 198.24 165.92 194.53 C 165.47 193.08 162.64 191.30 162.53 193.87 C 162.75 194.25 163.19 195.00 163.40 195.38 C 161.17 194.98 158.94 194.59 156.71 194.20 C 157.32 193.28 157.91 192.35 158.49 191.42 C 159.46 191.40 160.43 191.36 161.40 191.29 C 169.30 192.21 177.28 191.80 185.18 191.20 C 185.55 191.16 186.28 191.10 186.65 191.06 C 189.60 190.70 192.57 190.34 195.55 190.58 C 199.17 191.30 202.84 191.76 206.54 191.80 C 205.34 188.83 203.58 185.75 204.22 182.43 C 204.77 178.76 207.44 176.00 209.76 173.31 C 205.34 171.40 200.51 171.18 195.80 171.91 C 192.51 171.71 189.23 171.49 185.95 171.34 C 179.89 171.15 173.82 170.95 167.79 170.20 C 167.78 169.45 167.74 167.94 167.72 167.18 C 175.48 164.56 183.68 163.47 191.85 163.54 C 194.98 163.45 198.26 163.59 201.19 162.30 C 203.65 161.01 204.02 157.91 204.60 155.47 Z" />
</g>
<g id="#3d3c3dff">
<path fill="#3d3c3d" opacity="1.00" d=" M 207.95 155.75 C 212.09 155.22 216.47 154.88 220.44 156.48 C 222.85 157.39 224.51 159.47 226.23 161.29 C 220.58 160.05 214.98 158.58 209.27 157.65 C 208.94 157.18 208.28 156.22 207.95 155.75 Z" />
</g>
<g id="#548391ff">
<path fill="#548391" opacity="1.00" d=" M 243.97 156.97 C 245.10 157.94 246.23 158.89 247.37 159.85 C 247.54 161.87 247.71 163.89 247.86 165.92 L 247.92 166.74 C 247.31 168.32 246.61 169.87 245.94 171.42 C 245.76 168.19 245.63 164.95 245.09 161.76 C 244.76 160.15 244.36 158.56 243.97 156.97 Z" />
</g>
<g id="#58565dff">
<path fill="#58565d" opacity="1.00" d=" M 209.27 157.65 C 214.98 158.58 220.58 160.05 226.23 161.29 C 225.98 162.12 225.73 162.96 225.49 163.80 C 227.12 166.25 228.68 168.74 230.24 171.24 C 230.71 171.21 231.65 171.15 232.12 171.12 C 232.57 171.02 233.45 170.83 233.89 170.74 C 233.67 168.84 233.40 166.94 233.00 165.07 C 235.90 167.13 239.01 168.89 241.85 171.03 C 241.44 170.95 240.63 170.78 240.22 170.70 C 241.34 172.45 242.52 174.17 243.85 175.78 C 245.28 177.70 247.57 178.48 249.78 179.12 C 249.40 180.58 249.05 182.04 248.77 183.53 C 246.72 182.83 244.60 182.26 242.72 181.19 C 240.78 179.93 239.46 177.97 238.01 176.22 C 236.75 177.55 235.44 178.82 234.23 180.20 C 233.98 177.50 233.52 174.84 233.06 172.18 C 231.54 172.96 230.03 173.74 228.55 174.56 C 225.07 176.65 221.06 178.60 219.02 182.29 C 218.99 182.67 218.94 183.43 218.92 183.81 C 220.83 187.44 224.90 189.09 228.17 191.24 C 227.57 195.02 226.60 199.09 222.96 201.07 C 223.23 198.65 223.73 196.16 223.14 193.76 C 220.36 190.89 216.00 189.49 214.32 185.62 C 212.99 182.77 214.81 179.76 216.38 177.42 C 217.94 174.91 220.80 173.84 223.41 172.79 C 223.81 170.44 224.16 168.09 224.51 165.73 C 220.24 165.37 215.94 165.09 211.74 164.17 C 211.03 161.96 210.27 159.75 209.27 157.65 Z" />
</g>
<g id="#555455ff">
<path fill="#555455" opacity="1.00" d=" M 251.51 159.11 C 251.90 159.05 252.69 158.92 253.09 158.85 C 253.83 160.43 254.12 162.44 255.53 163.59 C 258.39 164.81 261.60 164.24 264.62 164.42 C 267.34 164.34 269.21 166.68 271.24 168.15 C 270.74 169.04 270.26 169.94 269.78 170.85 C 267.51 169.54 265.30 168.05 262.76 167.33 C 260.96 167.07 259.19 167.82 257.43 168.13 C 260.25 171.28 263.69 173.78 267.27 176.00 C 266.67 177.68 266.16 179.38 265.71 181.11 L 265.09 180.76 C 261.00 177.93 257.93 173.88 256.52 169.08 C 255.34 169.38 254.15 169.68 252.98 169.99 C 253.26 168.01 253.54 166.03 253.82 164.06 C 251.83 164.68 249.85 165.30 247.86 165.92 C 247.71 163.89 247.54 161.87 247.37 159.85 C 248.74 159.60 250.13 159.35 251.51 159.11 Z" />
</g>
<g id="#1e1e1eff">
<path fill="#1e1e1e" opacity="1.00" d=" M 253.09 158.85 C 253.59 158.95 254.59 159.14 255.09 159.24 C 257.01 159.58 258.95 159.89 260.90 160.11 C 261.49 160.09 262.67 160.06 263.26 160.04 C 263.69 161.50 264.16 162.96 264.62 164.42 C 261.60 164.24 258.39 164.81 255.53 163.59 C 254.12 162.44 253.83 160.43 253.09 158.85 Z" />
</g>
<g id="#414043ff">
<path fill="#414043" opacity="1.00" d=" M 231.46 161.60 C 236.00 161.40 240.55 161.42 245.09 161.76 C 245.63 164.95 245.76 168.19 245.94 171.42 C 246.61 169.87 247.31 168.32 247.92 166.74 C 249.56 167.89 251.26 168.95 252.98 169.99 C 253.06 170.30 253.24 170.91 253.33 171.22 C 252.63 172.26 251.93 173.30 251.24 174.35 C 250.67 175.91 250.21 177.51 249.78 179.12 C 247.57 178.48 245.28 177.70 243.85 175.78 C 243.82 173.98 243.74 171.90 241.85 171.03 C 239.01 168.89 235.90 167.13 233.00 165.07 C 232.49 163.91 231.97 162.76 231.46 161.60 Z" />
</g>
<g id="#faffffff">
<path fill="#faffff" opacity="1.00" d=" M 228.64 163.76 C 229.48 163.84 231.15 164.01 231.99 164.09 C 232.04 166.43 232.09 168.77 232.12 171.12 C 231.65 171.15 230.71 171.21 230.24 171.24 C 229.62 168.76 229.13 166.26 228.64 163.76 Z" />
<path fill="#faffff" opacity="1.00" d=" M 230.45 183.53 C 232.08 185.94 232.42 188.85 232.08 191.68 C 231.32 191.75 229.80 191.89 229.04 191.95 C 228.96 191.16 228.80 189.58 228.72 188.79 C 229.27 187.03 229.86 185.28 230.45 183.53 Z" />
</g>
<g id="#716f71ff">
<path fill="#716f71" opacity="1.00" d=" M 247.86 165.92 C 249.85 165.30 251.83 164.68 253.82 164.06 C 253.54 166.03 253.26 168.01 252.98 169.99 C 251.26 168.95 249.56 167.89 247.92 166.74 L 247.86 165.92 Z" />
</g>
<g id="#1110126c">
<path fill="#111012" opacity="0.42" d=" M 155.77 166.19 C 158.67 165.30 161.75 164.93 164.41 166.68 C 162.32 166.86 160.22 167.05 158.13 167.29 C 159.44 168.89 160.88 170.39 162.64 171.50 C 162.95 171.70 163.57 172.09 163.88 172.28 C 161.73 171.70 159.33 171.79 157.37 170.66 C 156.65 169.24 156.24 167.70 155.77 166.19 Z" />
</g>
<g id="#39373cee">
<path fill="#39373c" opacity="0.93" d=" M 158.13 167.29 C 160.22 167.05 162.32 166.86 164.41 166.68 L 165.46 166.61 C 164.84 167.70 164.21 168.79 163.59 169.88 C 163.35 170.28 162.87 171.10 162.64 171.50 C 160.88 170.39 159.44 168.89 158.13 167.29 Z" />
</g>
<g id="#279698cc">
<path fill="#279698" opacity="0.80" d=" M 165.46 166.61 C 166.02 166.75 167.16 167.04 167.72 167.18 C 167.74 167.94 167.78 169.45 167.79 170.20 C 166.39 170.09 164.99 169.98 163.59 169.88 C 164.21 168.79 164.84 167.70 165.46 166.61 Z" />
</g>
<g id="#777477ff">
<path fill="#777477" opacity="1.00" d=" M 257.43 168.13 C 259.19 167.82 260.96 167.07 262.76 167.33 C 265.30 168.05 267.51 169.54 269.78 170.85 C 268.88 172.53 268.01 174.24 267.27 176.00 C 263.69 173.78 260.25 171.28 257.43 168.13 Z" />
</g>
<g id="#64a8baf6">
<path fill="#64a8ba" opacity="0.96" d=" M 271.24 168.15 C 272.08 168.58 272.93 169.01 273.79 169.44 L 273.50 169.90 C 272.95 170.75 272.41 171.61 271.88 172.47 C 270.96 173.95 270.07 175.45 269.25 176.99 C 268.44 178.57 267.71 180.19 266.98 181.81 C 266.66 181.64 266.03 181.28 265.71 181.11 C 266.16 179.38 266.67 177.68 267.27 176.00 C 268.01 174.24 268.88 172.53 269.78 170.85 C 270.26 169.94 270.74 169.04 271.24 168.15 Z" />
</g>
<g id="#373737f7">
<path fill="#373737" opacity="0.97" d=" M 252.98 169.99 C 254.15 169.68 255.34 169.38 256.52 169.08 C 257.93 173.88 261.00 177.93 265.09 180.76 C 262.44 179.89 259.73 179.18 257.17 178.05 C 255.93 175.75 254.59 173.50 253.33 171.22 C 253.24 170.91 253.06 170.30 252.98 169.99 Z" />
</g>
<g id="#323233e8">
<path fill="#323233" opacity="0.91" d=" M 271.88 172.47 C 272.41 171.61 272.95 170.75 273.50 169.90 C 278.99 173.47 284.20 177.44 289.38 181.44 C 289.01 181.62 288.28 181.97 287.91 182.14 C 282.25 179.47 277.36 175.48 271.88 172.47 Z" />
</g>
<g id="#242b2ef8">
<path fill="#242b2e" opacity="0.97" d=" M 185.95 171.34 C 189.23 171.49 192.51 171.71 195.80 171.91 C 197.11 172.29 198.42 172.72 199.72 173.14 C 198.63 174.31 197.55 175.50 196.46 176.67 C 193.43 175.27 190.38 173.91 187.20 172.89 L 186.99 173.67 C 185.76 179.34 183.57 185.58 186.65 191.06 C 186.28 191.10 185.55 191.16 185.18 191.20 C 184.32 189.96 183.87 188.48 183.72 186.99 C 183.11 181.69 183.82 176.24 185.95 171.34 Z" />
</g>
<g id="#353337ff">
<path fill="#353337" opacity="1.00" d=" M 195.80 171.91 C 200.51 171.18 205.34 171.40 209.76 173.31 C 207.44 176.00 204.77 178.76 204.22 182.43 C 203.58 185.75 205.34 188.83 206.54 191.80 C 202.84 191.76 199.17 191.30 195.55 190.58 C 195.57 188.32 195.56 186.07 195.65 183.81 C 195.73 182.39 195.87 180.97 196.05 179.56 C 196.17 178.59 196.31 177.63 196.46 176.67 C 197.55 175.50 198.63 174.31 199.72 173.14 C 198.42 172.72 197.11 172.29 195.80 171.91 M 198.11 176.38 C 197.56 180.19 198.18 184.03 198.33 187.85 C 198.94 187.84 200.17 187.82 200.78 187.81 C 201.04 183.39 201.13 178.95 200.85 174.53 C 199.87 175.06 198.96 175.68 198.11 176.38 Z" />
</g>
<g id="#567785ff">
<path fill="#567785" opacity="1.00" d=" M 240.22 170.70 C 240.63 170.78 241.44 170.95 241.85 171.03 C 243.74 171.90 243.82 173.98 243.85 175.78 C 242.52 174.17 241.34 172.45 240.22 170.70 Z" />
</g>
<g id="#1b1b1ceb">
<path fill="#1b1b1c" opacity="0.92" d=" M 251.24 174.35 C 251.93 173.30 252.63 172.26 253.33 171.22 C 254.59 173.50 255.93 175.75 257.17 178.05 C 255.10 176.96 253.15 175.69 251.24 174.35 Z" />
</g>
<g id="#347583ff">
<path fill="#347583" opacity="1.00" d=" M 187.20 172.89 C 190.38 173.91 193.43 175.27 196.46 176.67 C 196.31 177.63 196.17 178.59 196.05 179.56 C 193.59 178.47 191.12 177.41 188.74 176.16 C 188.15 175.33 187.57 174.50 186.99 173.67 L 187.20 172.89 Z" />
</g>
<g id="#9ad8e2ff">
<path fill="#9ad8e2" opacity="1.00" d=" M 228.55 174.56 C 230.03 173.74 231.54 172.96 233.06 172.18 C 233.52 174.84 233.98 177.50 234.23 180.20 C 234.19 180.59 234.11 181.38 234.07 181.77 C 233.39 188.11 231.11 194.14 230.52 200.49 C 230.63 198.47 230.55 196.46 230.63 194.45 C 230.02 194.67 228.81 195.11 228.20 195.33 C 227.46 197.54 226.71 199.76 225.96 201.97 C 227.47 201.81 228.97 201.65 230.48 201.50 C 228.97 202.25 227.51 203.11 226.06 203.95 C 224.86 203.74 223.68 203.52 222.50 203.30 C 222.61 202.74 222.84 201.62 222.96 201.07 C 226.60 199.09 227.57 195.02 228.17 191.24 C 228.25 190.84 228.41 190.02 228.49 189.62 L 228.72 188.79 C 228.80 189.58 228.96 191.16 229.04 191.95 C 229.80 191.89 231.32 191.75 232.08 191.68 C 232.42 188.85 232.08 185.94 230.45 183.53 C 230.29 182.94 229.96 181.76 229.79 181.17 C 230.63 181.06 232.32 180.82 233.16 180.70 C 232.79 178.09 232.43 175.48 231.91 172.89 C 230.82 174.92 229.83 177.03 229.29 179.28 C 229.17 178.80 228.93 177.83 228.81 177.35 C 228.74 176.65 228.61 175.26 228.55 174.56 Z" />
</g>
<g id="#5e5c5eff">
<path fill="#5e5c5e" opacity="1.00" d=" M 269.25 176.99 C 270.07 175.45 270.96 173.95 271.88 172.47 C 277.36 175.48 282.25 179.47 287.91 182.14 C 286.89 183.59 285.99 185.11 285.18 186.69 C 279.99 183.27 274.43 180.44 269.25 176.99 Z" />
</g>
<g id="#25545fff">
<path fill="#25545f" opacity="1.00" d=" M 186.65 191.06 C 183.57 185.58 185.76 179.34 186.99 173.67 C 187.57 174.50 188.15 175.33 188.74 176.16 C 189.95 179.35 190.81 182.64 191.70 185.93 C 193.02 185.22 194.33 184.52 195.65 183.81 C 195.56 186.07 195.57 188.32 195.55 190.58 C 192.57 190.34 189.60 190.70 186.65 191.06 Z" />
</g>
<g id="#feffffff">
<path fill="#feffff" opacity="1.00" d=" M 229.29 179.28 C 229.83 177.03 230.82 174.92 231.91 172.89 C 232.43 175.48 232.79 178.09 233.16 180.70 C 232.32 180.82 230.63 181.06 229.79 181.17 C 229.67 180.70 229.42 179.75 229.29 179.28 Z" />
</g>
<g id="#484647ff">
<path fill="#484647" opacity="1.00" d=" M 198.11 176.38 C 198.96 175.68 199.87 175.06 200.85 174.53 C 201.13 178.95 201.04 183.39 200.78 187.81 C 200.17 187.82 198.94 187.84 198.33 187.85 C 198.18 184.03 197.56 180.19 198.11 176.38 Z" />
</g>
<g id="#6c6972ff">
<path fill="#6c6972" opacity="1.00" d=" M 219.02 182.29 C 221.06 178.60 225.07 176.65 228.55 174.56 C 228.61 175.26 228.74 176.65 228.81 177.35 C 227.60 181.36 227.40 185.55 228.49 189.62 C 228.41 190.02 228.25 190.84 228.17 191.24 C 224.90 189.09 220.83 187.44 218.92 183.81 C 218.94 183.43 218.99 182.67 219.02 182.29 Z" />
</g>
<g id="#26626eff">
<path fill="#26626e" opacity="1.00" d=" M 188.74 176.16 C 191.12 177.41 193.59 178.47 196.05 179.56 C 195.87 180.97 195.73 182.39 195.65 183.81 C 194.33 184.52 193.02 185.22 191.70 185.93 C 190.81 182.64 189.95 179.35 188.74 176.16 Z" />
</g>
<g id="#4a474dff">
<path fill="#4a474d" opacity="1.00" d=" M 234.23 180.20 C 235.44 178.82 236.75 177.55 238.01 176.22 C 239.46 177.97 240.78 179.93 242.72 181.19 C 244.60 182.26 246.72 182.83 248.77 183.53 C 248.77 184.66 248.84 185.80 248.93 186.94 C 246.44 186.84 243.84 186.50 241.43 187.30 C 239.56 188.17 237.98 189.52 236.35 190.75 C 235.43 187.80 234.51 184.83 234.07 181.77 C 234.11 181.38 234.19 180.59 234.23 180.20 Z" />
</g>
<g id="#323233ff">
<path fill="#323233" opacity="1.00" d=" M 266.98 181.81 C 267.71 180.19 268.44 178.57 269.25 176.99 C 274.43 180.44 279.99 183.27 285.18 186.69 C 285.02 187.18 284.69 188.16 284.52 188.66 C 278.26 187.63 272.54 184.74 266.98 181.81 Z" />
</g>
<g id="#f2f1f4ff">
<path fill="#f2f1f4" opacity="1.00" d=" M 228.49 189.62 C 227.40 185.55 227.60 181.36 228.81 177.35 C 228.93 177.83 229.17 178.80 229.29 179.28 C 229.42 179.75 229.67 180.70 229.79 181.17 C 229.96 181.76 230.29 182.94 230.45 183.53 C 229.86 185.28 229.27 187.03 228.72 188.79 L 228.49 189.62 Z" />
</g>
<g id="#5d9cadff">
<path fill="#5d9cad" opacity="1.00" d=" M 289.38 181.44 C 289.81 181.24 290.68 180.83 291.11 180.63 C 289.31 183.75 287.52 186.88 285.76 190.02 C 285.45 189.68 284.83 189.00 284.52 188.66 C 284.69 188.16 285.02 187.18 285.18 186.69 C 285.99 185.11 286.89 183.59 287.91 182.14 C 288.28 181.97 289.01 181.62 289.38 181.44 Z" />
</g>
<g id="#4f4f4fff">
<path fill="#4f4f4f" opacity="1.00" d=" M 291.11 180.63 C 292.56 181.40 294.08 182.15 295.23 183.37 C 292.87 185.80 290.55 188.29 288.70 191.14 C 288.51 190.74 288.14 189.95 287.95 189.56 C 287.40 189.67 286.31 189.91 285.76 190.02 C 287.52 186.88 289.31 183.75 291.11 180.63 Z" />
</g>
<g id="#54535bff">
<path fill="#54535b" opacity="1.00" d=" M 234.07 181.77 C 234.51 184.83 235.43 187.80 236.35 190.75 C 237.98 189.52 239.56 188.17 241.43 187.30 C 243.84 186.50 246.44 186.84 248.93 186.94 C 248.97 187.39 249.04 188.29 249.07 188.74 C 247.47 189.26 245.83 189.70 244.32 190.48 C 243.57 191.57 243.12 192.83 242.67 194.07 C 240.55 193.55 238.29 196.34 240.91 197.43 C 237.54 199.05 233.93 200.09 230.48 201.50 L 230.52 200.49 C 231.11 194.14 233.39 188.11 234.07 181.77 Z" />
</g>
<g id="#618a97ff">
<path fill="#618a97" opacity="1.00" d=" M 288.70 191.14 C 290.55 188.29 292.87 185.80 295.23 183.37 C 295.33 183.82 295.52 184.73 295.62 185.19 C 294.44 187.47 292.95 189.56 291.47 191.66 C 290.92 191.85 289.83 192.23 289.28 192.43 C 289.14 192.10 288.84 191.46 288.70 191.14 Z" />
</g>
<g id="#4c4a4bff">
<path fill="#4c4a4b" opacity="1.00" d=" M 295.62 185.19 C 298.73 185.57 301.86 185.63 304.98 185.91 C 308.26 186.19 310.99 188.27 314.13 189.05 C 316.03 189.41 317.97 189.34 319.89 189.40 L 319.30 189.77 C 317.48 190.91 315.69 192.09 313.89 193.27 C 313.02 193.09 312.14 192.91 311.28 192.74 C 310.97 192.18 310.35 191.08 310.04 190.52 C 308.25 190.17 306.25 189.32 304.54 190.34 C 302.01 191.70 300.06 193.86 298.04 195.86 L 297.37 195.86 C 295.84 195.64 294.32 195.32 292.80 195.06 C 292.36 193.92 291.92 192.79 291.47 191.66 C 292.95 189.56 294.44 187.47 295.62 185.19 Z" />
</g>
<g id="#424249ff">
<path fill="#424249" opacity="1.00" d=" M 334.95 189.50 C 337.25 187.44 340.01 185.95 343.18 185.98 C 341.28 186.52 339.28 187.25 338.24 189.06 C 340.35 189.59 342.52 189.88 344.68 190.22 C 344.77 188.76 344.86 187.30 344.96 185.85 C 347.38 188.22 350.75 187.75 353.83 187.71 C 356.68 187.50 358.75 189.79 360.76 191.46 C 355.98 191.78 351.26 192.61 346.67 193.95 C 341.41 195.56 335.86 195.20 330.46 195.92 C 328.39 196.20 326.32 196.55 324.24 196.75 C 322.38 196.88 320.52 196.88 318.66 196.99 C 322.32 195.66 326.03 194.40 329.45 192.53 C 331.21 191.73 331.66 189.71 332.36 188.10 C 329.63 188.87 327.22 190.34 324.85 191.84 C 323.78 192.65 322.40 192.48 321.15 192.42 C 323.58 190.42 325.93 187.86 329.17 187.33 C 331.38 186.89 333.22 188.38 334.95 189.50 Z" />
</g>
<g id="#6d6d75ff">
<path fill="#6d6d75" opacity="1.00" d=" M 343.18 185.98 C 343.63 185.95 344.51 185.88 344.96 185.85 C 344.86 187.30 344.77 188.76 344.68 190.22 C 342.52 189.88 340.35 189.59 338.24 189.06 C 339.28 187.25 341.28 186.52 343.18 185.98 Z" />
</g>
<g id="#5e5e65fe">
<path fill="#5e5e65" opacity="1.00" d=" M 324.85 191.84 C 327.22 190.34 329.63 188.87 332.36 188.10 C 331.66 189.71 331.21 191.73 329.45 192.53 C 326.03 194.40 322.32 195.66 318.66 196.99 C 318.08 197.10 316.92 197.32 316.34 197.43 C 315.52 196.04 314.71 194.65 313.89 193.27 C 315.69 192.09 317.48 190.91 319.30 189.77 C 319.77 190.43 320.69 191.75 321.15 192.42 C 322.40 192.48 323.78 192.65 324.85 191.84 Z" />
</g>
<g id="#434147f7">
<path fill="#434147" opacity="0.97" d=" M 244.32 190.48 C 245.83 189.70 247.47 189.26 249.07 188.74 C 249.05 190.90 248.78 193.05 248.25 195.14 C 246.37 195.29 244.48 195.46 242.61 195.63 C 242.62 195.24 242.65 194.46 242.67 194.07 C 243.12 192.83 243.57 191.57 244.32 190.48 Z" />
</g>
<g id="#141516f9">
<path fill="#141516" opacity="0.98" d=" M 285.76 190.02 C 286.31 189.91 287.40 189.67 287.95 189.56 C 288.14 189.95 288.51 190.74 288.70 191.14 C 288.84 191.46 289.14 192.10 289.28 192.43 C 289.83 192.23 290.92 191.85 291.47 191.66 C 291.92 192.79 292.36 193.92 292.80 195.06 C 292.97 195.49 293.30 196.35 293.46 196.78 C 291.50 197.25 289.54 197.70 287.57 198.11 C 282.75 195.90 277.37 196.61 272.57 198.45 C 272.49 198.90 272.32 199.80 272.23 200.25 L 272.08 201.20 C 270.69 201.46 269.30 201.72 267.91 201.92 C 268.20 200.55 268.49 199.19 268.79 197.82 C 273.00 197.12 277.21 196.20 281.50 196.12 C 284.83 196.12 288.13 196.56 291.45 196.73 C 289.62 194.44 287.74 192.19 285.76 190.02 Z" />
</g>
<g id="#100f1168">
<path fill="#100f11" opacity="0.41" d=" M 154.93 191.98 C 156.55 189.43 159.80 190.55 162.18 190.95 L 161.40 191.29 C 160.43 191.36 159.46 191.40 158.49 191.42 C 157.91 192.35 157.32 193.28 156.71 194.20 C 158.94 194.59 161.17 194.98 163.40 195.38 C 161.41 195.99 159.39 196.94 157.25 196.74 C 155.16 196.53 153.21 193.76 154.93 191.98 Z" />
</g>
<g id="#2f2f2fff">
<path fill="#2f2f2f" opacity="1.00" d=" M 298.04 195.86 C 300.06 193.86 302.01 191.70 304.54 190.34 C 306.25 189.32 308.25 190.17 310.04 190.52 C 308.32 190.81 307.93 193.06 309.22 194.10 C 307.73 194.64 306.24 195.18 304.73 195.66 C 303.45 195.70 302.17 195.74 300.90 195.78 C 300.18 195.80 298.76 195.84 298.04 195.86 Z" />
</g>
<g id="#181819a5">
<path fill="#181819" opacity="0.65" d=" M 309.22 194.10 C 307.93 193.06 308.32 190.81 310.04 190.52 C 310.35 191.08 310.97 192.18 311.28 192.74 C 310.76 193.08 309.74 193.76 309.22 194.10 Z" />
</g>
<g id="#8a8d9bff">
<path fill="#8a8d9b" opacity="1.00" d=" M 346.67 193.95 C 351.26 192.61 355.98 191.78 360.76 191.46 L 360.00 191.94 C 358.81 192.45 358.44 193.27 358.90 194.41 C 351.16 196.53 343.14 197.31 335.23 198.48 C 333.63 197.62 332.05 196.77 330.46 195.92 C 335.86 195.20 341.41 195.56 346.67 193.95 Z" />
</g>
<g id="#c2c3cefa">
<path fill="#c2c3ce" opacity="0.98" d=" M 358.90 194.41 C 358.44 193.27 358.81 192.45 360.00 191.94 L 360.54 192.51 C 360.33 192.93 359.90 193.76 359.69 194.18 L 358.90 194.41 Z" />
</g>
<g id="#2cb6b8e4">
<path fill="#2cb6b8" opacity="0.89" d=" M 162.53 193.87 C 162.64 191.30 165.47 193.08 165.92 194.53 L 165.42 195.16 C 164.91 195.21 163.91 195.32 163.40 195.38 C 163.19 195.00 162.75 194.25 162.53 193.87 Z" />
</g>
<g id="#54545bff">
<path fill="#54545b" opacity="1.00" d=" M 311.28 192.74 C 312.14 192.91 313.02 193.09 313.89 193.27 C 314.71 194.65 315.52 196.04 316.34 197.43 C 315.94 197.51 315.13 197.68 314.73 197.76 C 314.31 197.85 313.47 198.03 313.05 198.11 C 309.51 198.72 305.93 199.05 302.37 199.44 C 302.45 200.50 302.54 201.56 302.62 202.63 C 301.21 202.23 299.80 201.84 298.40 201.45 C 299.53 202.31 300.66 203.17 301.80 204.03 C 301.62 204.51 301.26 205.48 301.08 205.96 C 298.93 206.15 296.78 206.38 294.64 206.62 C 294.23 204.09 293.84 201.56 293.47 199.03 C 294.54 199.09 295.61 199.15 296.68 199.22 C 297.13 198.10 297.59 196.98 298.04 195.86 C 298.76 195.84 300.18 195.80 300.90 195.78 C 300.74 196.43 300.41 197.71 300.25 198.36 C 303.25 197.67 306.24 196.93 309.20 196.10 C 307.71 195.93 306.22 195.78 304.73 195.66 C 306.24 195.18 307.73 194.64 309.22 194.10 C 309.74 193.76 310.76 193.08 311.28 192.74 Z" />
</g>
<g id="#3f4047fe">
<path fill="#3f4047" opacity="1.00" d=" M 360.54 192.51 C 360.49 194.09 360.77 196.16 358.88 196.80 C 355.24 198.51 351.45 200.24 347.48 200.96 C 344.32 200.74 341.13 200.67 338.00 201.29 C 336.94 201.46 335.89 201.65 334.86 201.90 C 332.02 202.55 329.28 203.57 326.63 204.76 L 325.92 205.06 C 325.73 204.66 325.36 203.84 325.17 203.44 C 326.52 202.72 327.91 202.06 329.30 201.39 C 327.54 200.95 325.78 200.50 324.01 200.15 C 324.46 200.05 325.38 199.83 325.83 199.73 C 328.94 199.14 332.09 198.87 335.23 198.48 C 343.14 197.31 351.16 196.53 358.90 194.41 L 359.69 194.18 C 359.90 193.76 360.33 192.93 360.54 192.51 Z" />
</g>
<g id="#578a9bff">
<path fill="#578a9b" opacity="1.00" d=" M 240.91 197.43 C 238.29 196.34 240.55 193.55 242.67 194.07 C 242.65 194.46 242.62 195.24 242.61 195.63 C 242.18 196.08 241.33 196.98 240.91 197.43 Z" />
</g>
<g id="#adabafff">
<path fill="#adabaf" opacity="1.00" d=" M 292.80 195.06 C 294.32 195.32 295.84 195.64 297.37 195.86 C 296.06 196.13 294.76 196.46 293.46 196.78 C 293.30 196.35 292.97 195.49 292.80 195.06 Z" />
</g>
<g id="#f9ffffff">
<path fill="#f9ffff" opacity="1.00" d=" M 228.20 195.33 C 228.81 195.11 230.02 194.67 230.63 194.45 C 230.55 196.46 230.63 198.47 230.52 200.49 L 230.48 201.50 C 228.97 201.65 227.47 201.81 225.96 201.97 C 226.71 199.76 227.46 197.54 228.20 195.33 Z" />
</g>
<g id="#2a2b2fce">
<path fill="#2a2b2f" opacity="0.81" d=" M 242.61 195.63 C 244.48 195.46 246.37 195.29 248.25 195.14 C 243.30 200.23 236.30 202.22 229.62 203.93 C 229.20 204.01 228.35 204.17 227.93 204.25 C 227.46 204.17 226.53 204.03 226.06 203.95 C 227.51 203.11 228.97 202.25 230.48 201.50 C 233.93 200.09 237.54 199.05 240.91 197.43 C 241.33 196.98 242.18 196.08 242.61 195.63 Z" />
</g>
<g id="#4e4f54fe">
<path fill="#4e4f54" opacity="1.00" d=" M 272.57 198.45 C 277.37 196.61 282.75 195.90 287.57 198.11 C 287.19 199.23 286.82 200.36 286.45 201.49 C 281.73 200.89 276.99 200.43 272.23 200.25 C 272.32 199.80 272.49 198.90 272.57 198.45 Z" />
</g>
<g id="#737172ff">
<path fill="#737172" opacity="1.00" d=" M 297.37 195.86 L 298.04 195.86 C 297.59 196.98 297.13 198.10 296.68 199.22 C 295.61 199.15 294.54 199.09 293.47 199.03 C 293.84 201.56 294.23 204.09 294.64 206.62 C 296.78 206.38 298.93 206.15 301.08 205.96 C 304.52 205.67 307.97 205.40 311.42 205.16 C 311.31 205.89 311.09 207.34 310.98 208.07 C 310.35 207.96 309.08 207.75 308.44 207.65 C 306.09 207.28 303.73 206.81 301.35 206.93 C 299.07 207.08 297.12 208.37 295.15 209.39 C 296.84 209.67 298.54 209.91 300.25 210.12 C 297.56 211.06 295.13 209.72 292.76 208.61 C 289.96 207.59 286.98 206.90 283.99 207.17 C 280.38 207.49 277.01 209.06 273.39 209.23 C 270.11 209.40 266.83 209.01 263.55 209.05 C 262.57 207.92 261.60 206.80 260.58 205.72 C 264.33 205.45 268.01 204.69 271.68 203.92 C 271.78 203.24 271.98 201.88 272.08 201.20 L 272.23 200.25 C 276.99 200.43 281.73 200.89 286.45 201.49 C 286.82 200.36 287.19 199.23 287.57 198.11 C 289.54 197.70 291.50 197.25 293.46 196.78 C 294.76 196.46 296.06 196.13 297.37 195.86 M 289.07 199.36 C 286.92 200.07 288.77 202.80 290.46 201.76 C 292.58 201.04 290.74 198.35 289.07 199.36 Z" />
</g>
<g id="#67676eff">
<path fill="#67676e" opacity="1.00" d=" M 300.90 195.78 C 302.17 195.74 303.45 195.70 304.73 195.66 C 306.22 195.78 307.71 195.93 309.20 196.10 C 306.24 196.93 303.25 197.67 300.25 198.36 C 300.41 197.71 300.74 196.43 300.90 195.78 Z" />
</g>
<g id="#797d89ff">
<path fill="#797d89" opacity="1.00" d=" M 324.24 196.75 C 326.32 196.55 328.39 196.20 330.46 195.92 C 332.05 196.77 333.63 197.62 335.23 198.48 C 332.09 198.87 328.94 199.14 325.83 199.73 C 325.30 198.73 324.77 197.74 324.24 196.75 Z" />
</g>
<g id="#aeb1bdff">
<path fill="#aeb1bd" opacity="1.00" d=" M 314.73 197.76 C 315.13 197.68 315.94 197.51 316.34 197.43 C 316.92 197.32 318.08 197.10 318.66 196.99 C 320.52 196.88 322.38 196.88 324.24 196.75 C 324.77 197.74 325.30 198.73 325.83 199.73 C 325.38 199.83 324.46 200.05 324.01 200.15 C 322.67 200.47 321.36 200.87 320.04 201.24 C 318.87 201.04 317.72 200.85 316.56 200.66 C 315.95 199.69 315.34 198.72 314.73 197.76 Z" />
</g>
<g id="#272728ff">
<path fill="#272728" opacity="1.00" d=" M 204.54 198.77 C 206.24 198.84 208.01 198.72 209.64 199.32 C 211.40 200.33 212.70 201.96 214.07 203.42 C 212.93 204.78 211.81 206.17 210.70 207.56 C 208.80 207.10 206.91 206.60 205.03 206.06 C 204.85 203.63 204.69 201.20 204.54 198.77 Z" />
</g>
<g id="#a9abb9ff">
<path fill="#a9abb9" opacity="1.00" d=" M 302.37 199.44 C 305.93 199.05 309.51 198.72 313.05 198.11 C 313.10 199.34 313.20 200.56 313.34 201.79 L 313.50 202.43 C 309.57 202.75 305.67 203.31 301.80 204.03 C 300.66 203.17 299.53 202.31 298.40 201.45 C 299.80 201.84 301.21 202.23 302.62 202.63 C 302.54 201.56 302.45 200.50 302.37 199.44 Z" />
</g>
<g id="#858590ff">
<path fill="#858590" opacity="1.00" d=" M 313.05 198.11 C 313.47 198.03 314.31 197.85 314.73 197.76 C 315.34 198.72 315.95 199.69 316.56 200.66 C 317.72 200.85 318.87 201.04 320.04 201.24 C 317.86 201.85 315.58 201.88 313.34 201.79 C 313.20 200.56 313.10 199.34 313.05 198.11 Z" />
</g>
<g id="#191919ff">
<path fill="#191919" opacity="1.00" d=" M 184.96 199.69 C 187.90 199.57 190.85 199.55 193.79 199.65 C 193.14 202.35 192.46 205.04 191.79 207.73 C 189.71 208.62 187.73 209.70 185.75 210.78 C 186.18 211.00 187.03 211.42 187.45 211.64 C 190.76 216.03 194.64 220.26 196.24 225.65 C 194.98 225.35 193.73 225.03 192.49 224.66 C 191.09 224.23 189.74 223.60 188.28 223.36 C 185.93 223.45 183.68 224.19 181.42 224.76 L 182.05 224.46 C 184.20 223.28 186.27 221.97 188.37 220.70 C 188.06 219.24 187.76 217.78 187.37 216.34 C 186.27 214.04 184.95 211.86 183.81 209.59 C 183.17 207.96 182.67 206.29 182.28 204.59 C 182.09 203.02 182.10 201.43 182.08 199.86 C 182.97 201.90 183.85 203.95 184.71 206.01 C 184.78 203.90 184.88 201.80 184.96 199.69 Z" />
</g>
<g id="#151516a5">
<path fill="#151516" opacity="0.65" d=" M 248.28 205.26 C 251.41 204.32 253.62 201.78 255.90 199.59 C 258.31 200.41 260.72 201.25 263.18 201.92 C 261.03 202.07 258.90 202.36 256.81 202.85 C 251.87 205.50 246.52 207.44 240.84 207.39 L 240.00 207.44 C 242.77 206.74 245.56 206.14 248.28 205.26 Z" />
</g>
<g id="#919198ff">
<path fill="#919198" opacity="1.00" d=" M 289.07 199.36 C 290.74 198.35 292.58 201.04 290.46 201.76 C 288.77 202.80 286.92 200.07 289.07 199.36 Z" />
</g>
<g id="#595a62fd">
<path fill="#595a62" opacity="1.00" d=" M 320.04 201.24 C 321.36 200.87 322.67 200.47 324.01 200.15 C 325.78 200.50 327.54 200.95 329.30 201.39 C 327.91 202.06 326.52 202.72 325.17 203.44 C 323.27 204.50 321.69 206.04 319.80 207.11 C 317.34 207.76 313.83 207.89 312.68 205.07 C 313.08 205.04 313.87 204.98 314.27 204.95 C 314.00 204.11 313.74 203.27 313.50 202.43 L 313.34 201.79 C 315.58 201.88 317.86 201.85 320.04 201.24 Z" />
</g>
<g id="#5b5b62fd">
<path fill="#5b5b62" opacity="1.00" d=" M 338.00 201.29 C 341.13 200.67 344.32 200.74 347.48 200.96 C 347.27 201.51 346.83 202.62 346.62 203.17 C 343.75 204.10 339.35 204.81 338.00 201.29 Z" />
</g>
<g id="#5a585aff">
<path fill="#5a585a" opacity="1.00" d=" M 194.15 202.76 C 196.16 202.26 198.18 201.25 200.29 201.53 C 201.76 202.81 202.93 204.39 204.23 205.83 C 201.13 206.06 198.04 206.46 194.99 207.00 C 194.71 205.59 194.43 204.17 194.15 202.76 Z" />
</g>
<g id="#6c6b6eff">
<path fill="#6c6b6e" opacity="1.00" d=" M 267.91 201.92 C 269.30 201.72 270.69 201.46 272.08 201.20 C 271.98 201.88 271.78 203.24 271.68 203.92 C 268.01 204.69 264.33 205.45 260.58 205.72 C 260.11 205.72 259.16 205.70 258.69 205.70 C 258.06 204.74 257.44 203.80 256.81 202.85 C 258.90 202.36 261.03 202.07 263.18 201.92 C 264.75 201.95 266.33 201.97 267.91 201.92 Z" />
</g>
<g id="#55555cfa">
<path fill="#55555c" opacity="0.98" d=" M 326.63 204.76 C 329.28 203.57 332.02 202.55 334.86 201.90 C 334.51 203.26 334.14 204.61 333.78 205.97 C 331.38 205.66 328.98 205.29 326.63 204.76 Z" />
</g>
<g id="#353435ff">
<path fill="#353435" opacity="1.00" d=" M 240.84 207.39 C 246.52 207.44 251.87 205.50 256.81 202.85 C 257.44 203.80 258.06 204.74 258.69 205.70 C 258.68 207.15 258.66 208.60 258.72 210.06 C 258.78 211.19 258.88 212.32 258.98 213.46 C 255.13 214.09 250.05 213.99 248.36 218.33 C 247.66 219.69 247.13 221.13 246.35 222.45 C 244.92 223.75 243.08 224.45 241.47 225.46 C 238.34 227.23 236.34 230.33 233.93 232.88 C 231.95 235.17 229.52 236.99 226.99 238.61 L 226.60 237.58 C 229.22 231.36 234.90 227.43 239.87 223.22 C 241.00 223.37 242.13 223.52 243.26 223.67 C 244.44 222.64 245.63 221.61 246.81 220.58 C 245.66 218.25 244.43 215.96 243.19 213.68 C 244.57 212.84 245.95 211.99 247.37 211.22 C 248.01 211.14 249.28 210.98 249.92 210.90 C 251.88 210.73 253.84 210.63 255.80 210.53 C 255.74 209.35 255.69 208.18 255.65 207.01 C 254.47 207.11 253.29 207.22 252.11 207.32 C 248.36 207.69 244.59 207.48 240.84 207.39 Z" />
</g>
<g id="#3b3b3efe">
<path fill="#3b3b3e" opacity="1.00" d=" M 301.80 204.03 C 305.67 203.31 309.57 202.75 313.50 202.43 C 313.74 203.27 314.00 204.11 314.27 204.95 C 313.87 204.98 313.08 205.04 312.68 205.07 C 312.37 205.09 311.74 205.14 311.42 205.16 C 307.97 205.40 304.52 205.67 301.08 205.96 C 301.26 205.48 301.62 204.51 301.80 204.03 Z" />
</g>
<g id="#131413ff">
<path fill="#131413" opacity="1.00" d=" M 210.70 207.56 C 211.81 206.17 212.93 204.78 214.07 203.42 C 218.51 205.07 223.33 205.38 227.93 204.25 C 228.35 204.17 229.20 204.01 229.62 203.93 C 229.76 205.60 229.89 207.28 230.03 208.96 C 232.14 208.79 234.25 208.64 236.35 208.39 C 235.03 208.82 233.73 209.30 232.43 209.77 C 232.65 210.58 233.11 212.19 233.34 213.00 C 234.06 213.04 235.50 213.12 236.22 213.17 C 234.96 213.36 233.72 213.60 232.48 213.84 C 232.14 212.72 231.80 211.61 231.44 210.50 C 229.36 210.16 227.25 210.05 225.15 210.11 C 224.09 210.41 223.03 210.72 221.97 211.05 C 222.78 212.55 223.58 214.06 224.39 215.57 C 219.32 218.25 214.78 221.80 209.88 224.77 L 209.43 224.33 C 209.08 224.24 208.37 224.08 208.02 223.99 C 207.83 221.96 207.46 219.91 207.79 217.88 C 208.43 215.82 209.80 214.11 210.96 212.34 C 211.94 213.34 212.92 214.35 213.90 215.36 C 213.55 212.51 212.47 209.83 210.70 207.56 Z" />
</g>
<g id="#4a494bff">
<path fill="#4a494b" opacity="1.00" d=" M 174.70 205.38 C 177.22 205.09 179.75 204.81 182.28 204.59 C 182.67 206.29 183.17 207.96 183.81 209.59 C 181.32 210.58 177.85 210.94 176.84 213.85 C 175.57 216.41 177.81 219.14 180.14 220.04 C 183.01 220.10 185.17 217.85 187.37 216.34 C 187.76 217.78 188.06 219.24 188.37 220.70 C 186.27 221.97 184.20 223.28 182.05 224.46 C 179.40 223.88 176.24 223.88 174.32 221.67 C 172.38 219.45 170.83 216.39 171.63 213.38 C 172.24 210.77 173.40 208.34 174.47 205.89 L 174.70 205.38 Z" />
</g>
<g id="#4d8a9aec">
<path fill="#4d8a9a" opacity="0.93" d=" M 174.47 205.89 C 173.40 208.34 172.24 210.77 171.63 213.38 C 170.83 216.39 172.38 219.45 174.32 221.67 C 176.24 223.88 179.40 223.88 182.05 224.46 L 181.42 224.76 C 179.01 226.04 176.06 225.41 173.97 223.80 C 172.03 221.88 170.19 219.64 169.72 216.88 C 169.02 213.40 170.54 210.05 171.74 206.87 C 172.42 206.63 173.79 206.14 174.47 205.89 Z" />
</g>
<g id="#5795a6ff">
<path fill="#5795a6" opacity="1.00" d=" M 194.99 207.00 C 198.04 206.46 201.13 206.06 204.23 205.83 L 205.03 206.06 C 206.91 206.60 208.80 207.10 210.70 207.56 C 212.47 209.83 213.55 212.51 213.90 215.36 C 212.92 214.35 211.94 213.34 210.96 212.34 C 209.52 210.86 207.94 209.51 206.26 208.32 C 204.98 208.24 203.69 208.22 202.41 208.26 C 199.63 208.57 196.89 209.18 194.19 209.91 C 193.01 210.22 191.84 210.54 190.67 210.86 C 189.60 211.14 188.53 211.40 187.45 211.64 C 187.03 211.42 186.18 211.00 185.75 210.78 C 187.73 209.70 189.71 208.62 191.79 207.73 C 192.84 207.45 193.91 207.21 194.99 207.00 Z" />
</g>
<g id="#9ea0adff">
<path fill="#9ea0ad" opacity="1.00" d=" M 258.72 210.06 C 258.66 208.60 258.68 207.15 258.69 205.70 C 259.16 205.70 260.11 205.72 260.58 205.72 C 261.60 206.80 262.57 207.92 263.55 209.05 C 261.92 209.33 260.32 209.70 258.72 210.06 Z" />
</g>
<g id="#151515ff">
<path fill="#151515" opacity="1.00" d=" M 165.35 209.21 C 167.49 208.45 169.63 207.70 171.74 206.87 C 170.54 210.05 169.02 213.40 169.72 216.88 C 170.19 219.64 172.03 221.88 173.97 223.80 C 166.09 224.66 157.77 225.08 150.49 221.36 C 150.75 221.38 151.27 221.40 151.53 221.42 C 155.77 222.08 159.99 223.00 164.30 222.98 C 164.78 223.02 165.74 223.10 166.21 223.14 C 163.85 221.06 161.06 219.32 159.37 216.61 C 158.90 214.27 160.97 212.40 161.97 210.48 C 163.09 210.05 164.22 209.62 165.35 209.21 Z" />
</g>
<g id="#f4f7ffff">
<path fill="#f4f7ff" opacity="1.00" d=" M 237.94 207.97 C 238.46 207.84 239.49 207.58 240.00 207.44 L 240.84 207.39 C 244.59 207.48 248.36 207.69 252.11 207.32 C 251.38 208.51 250.65 209.70 249.92 210.90 C 249.28 210.98 248.01 211.14 247.37 211.22 C 242.75 211.78 238.08 211.85 233.44 211.56 C 234.91 210.33 236.38 209.10 237.94 207.97 Z" />
</g>
<g id="#8d8c96ff">
<path fill="#8d8c96" opacity="1.00" d=" M 252.11 207.32 C 253.29 207.22 254.47 207.11 255.65 207.01 C 255.69 208.18 255.74 209.35 255.80 210.53 C 253.84 210.63 251.88 210.73 249.92 210.90 C 250.65 209.70 251.38 208.51 252.11 207.32 Z" />
</g>
<g id="#5a595efd">
<path fill="#5a595e" opacity="1.00" d=" M 273.39 209.23 C 277.01 209.06 280.38 207.49 283.99 207.17 C 286.98 206.90 289.96 207.59 292.76 208.61 C 286.57 210.15 280.13 210.26 274.01 212.07 C 272.46 211.52 270.94 210.82 269.30 210.63 C 267.06 211.10 265.03 212.21 262.84 212.82 C 261.56 213.06 260.27 213.27 258.98 213.46 C 258.88 212.32 258.78 211.19 258.72 210.06 C 260.32 209.70 261.92 209.33 263.55 209.05 C 266.83 209.01 270.11 209.40 273.39 209.23 Z" />
</g>
<g id="#f9f8fafd">
<path fill="#f9f8fa" opacity="1.00" d=" M 301.35 206.93 C 303.73 206.81 306.09 207.28 308.44 207.65 C 306.14 209.54 303.13 209.99 300.25 210.12 C 298.54 209.91 296.84 209.67 295.15 209.39 C 297.12 208.37 299.07 207.08 301.35 206.93 Z" />
</g>
<g id="#636163ff">
<path fill="#636163" opacity="1.00" d=" M 194.19 209.91 C 196.89 209.18 199.63 208.57 202.41 208.26 C 202.23 210.99 201.85 213.70 201.30 216.39 C 198.28 215.02 195.77 212.84 194.19 209.91 Z" />
</g>
<g id="#4a484aff">
<path fill="#4a484a" opacity="1.00" d=" M 202.41 208.26 C 203.69 208.22 204.98 208.24 206.26 208.32 C 205.39 211.94 204.98 215.80 203.06 219.05 C 201.62 220.06 199.80 219.37 198.35 218.77 C 194.85 217.24 192.79 213.85 190.67 210.86 C 191.84 210.54 193.01 210.22 194.19 209.91 C 195.77 212.84 198.28 215.02 201.30 216.39 C 201.85 213.70 202.23 210.99 202.41 208.26 Z" />
</g>
<g id="#565657ff">
<path fill="#565657" opacity="1.00" d=" M 236.35 208.39 C 236.75 208.29 237.54 208.08 237.94 207.97 C 236.38 209.10 234.91 210.33 233.44 211.56 C 238.08 211.85 242.75 211.78 247.37 211.22 C 245.95 211.99 244.57 212.84 243.19 213.68 C 242.49 213.62 241.09 213.51 240.40 213.46 C 242.19 216.12 244.30 218.57 246.81 220.58 C 245.63 221.61 244.44 222.64 243.26 223.67 C 241.34 221.16 239.46 218.62 237.63 216.06 C 238.02 215.07 238.42 214.09 238.83 213.11 C 238.18 213.12 236.87 213.15 236.22 213.17 C 235.50 213.12 234.06 213.04 233.34 213.00 C 233.11 212.19 232.65 210.58 232.43 209.77 C 233.73 209.30 235.03 208.82 236.35 208.39 Z" />
</g>
<g id="#3d3e3fff">
<path fill="#3d3e3f" opacity="1.00" d=" M 147.55 210.98 C 153.54 210.82 159.30 208.60 165.35 209.21 C 164.22 209.62 163.09 210.05 161.97 210.48 C 158.87 211.84 155.61 212.83 152.24 213.19 C 152.24 214.61 152.22 216.03 152.39 217.44 C 156.30 219.40 160.50 220.76 164.30 222.98 C 159.99 223.00 155.77 222.08 151.53 221.42 C 151.27 221.40 150.75 221.38 150.49 221.36 C 149.14 221.30 147.80 221.41 146.46 221.46 C 146.09 219.43 145.41 217.40 145.59 215.33 C 146.03 213.79 146.84 212.40 147.55 210.98 M 148.05 213.59 C 146.80 214.13 146.22 216.16 147.19 217.19 C 148.86 217.56 149.81 213.86 148.05 213.59 Z" />
</g>
<g id="#282728ff">
<path fill="#282728" opacity="1.00" d=" M 203.06 219.05 C 204.98 215.80 205.39 211.94 206.26 208.32 C 207.94 209.51 209.52 210.86 210.96 212.34 C 209.80 214.11 208.43 215.82 207.79 217.88 C 207.46 219.91 207.83 221.96 208.02 223.99 C 204.22 225.23 200.26 226.70 196.24 225.65 C 194.64 220.26 190.76 216.03 187.45 211.64 C 188.53 211.40 189.60 211.14 190.67 210.86 C 192.79 213.85 194.85 217.24 198.35 218.77 C 199.80 219.37 201.62 220.06 203.06 219.05 Z" />
</g>
<g id="#676467ff">
<path fill="#676467" opacity="1.00" d=" M 152.24 213.19 C 155.61 212.83 158.87 211.84 161.97 210.48 C 160.97 212.40 158.90 214.27 159.37 216.61 C 161.06 219.32 163.85 221.06 166.21 223.14 C 165.74 223.10 164.78 223.02 164.30 222.98 C 160.50 220.76 156.30 219.40 152.39 217.44 C 152.22 216.03 152.24 214.61 152.24 213.19 Z" />
</g>
<g id="#615f60ff">
<path fill="#615f60" opacity="1.00" d=" M 176.84 213.85 C 177.85 210.94 181.32 210.58 183.81 209.59 C 184.95 211.86 186.27 214.04 187.37 216.34 C 185.17 217.85 183.01 220.10 180.14 220.04 C 177.81 219.14 175.57 216.41 176.84 213.85 Z" />
</g>
<g id="#535156d3">
<path fill="#535156" opacity="0.83" d=" M 221.97 211.05 C 223.03 210.72 224.09 210.41 225.15 210.11 C 225.16 211.48 225.16 212.85 225.17 214.23 C 226.99 214.08 228.80 213.95 230.62 213.81 C 230.83 212.98 231.24 211.33 231.44 210.50 C 231.80 211.61 232.14 212.72 232.48 213.84 C 229.77 214.38 227.06 214.87 224.39 215.57 C 223.58 214.06 222.78 212.55 221.97 211.05 Z" />
</g>
<g id="#d0d4e6fe">
<path fill="#d0d4e6" opacity="1.00" d=" M 225.15 210.11 C 227.25 210.05 229.36 210.16 231.44 210.50 C 231.24 211.33 230.83 212.98 230.62 213.81 C 228.80 213.95 226.99 214.08 225.17 214.23 C 225.16 212.85 225.16 211.48 225.15 210.11 Z" />
</g>
<g id="#396e7cc7">
<path fill="#396e7c" opacity="0.78" d=" M 142.99 216.09 C 142.99 213.40 145.63 212.23 147.55 210.98 C 146.84 212.40 146.03 213.79 145.59 215.33 C 145.41 217.40 146.09 219.43 146.46 221.46 C 144.99 219.93 142.59 218.55 142.99 216.09 Z" />
</g>
<g id="#53656dff">
<path fill="#53656d" opacity="1.00" d=" M 148.05 213.59 C 149.81 213.86 148.86 217.56 147.19 217.19 C 146.22 216.16 146.80 214.13 148.05 213.59 Z" />
</g>
<g id="#618d9bff">
<path fill="#618d9b" opacity="1.00" d=" M 240.40 213.46 C 241.09 213.51 242.49 213.62 243.19 213.68 C 244.43 215.96 245.66 218.25 246.81 220.58 C 244.30 218.57 242.19 216.12 240.40 213.46 Z" />
</g>
<g id="#141414b1">
<path fill="#141414" opacity="0.69" d=" M 258.98 213.46 C 260.27 213.27 261.56 213.06 262.84 212.82 C 258.13 214.95 253.14 216.38 248.36 218.33 C 250.05 213.99 255.13 214.09 258.98 213.46 Z" />
</g>
<g id="#5b9aacff">
<path fill="#5b9aac" opacity="1.00" d=" M 235.96 217.18 C 236.38 216.90 237.21 216.34 237.63 216.06 C 239.46 218.62 241.34 221.16 243.26 223.67 C 242.13 223.52 241.00 223.37 239.87 223.22 C 239.28 222.32 238.70 221.43 238.13 220.54 C 237.40 219.42 236.68 218.30 235.96 217.18 Z" />
</g>
<g id="#333233ff">
<path fill="#333233" opacity="1.00" d=" M 224.15 225.23 C 227.90 222.29 232.06 219.92 235.96 217.18 C 236.68 218.30 237.40 219.42 238.13 220.54 C 232.93 224.15 228.05 228.16 222.98 231.93 C 222.49 231.43 221.52 230.43 221.04 229.93 C 221.83 228.23 222.59 226.39 224.15 225.23 Z" />
</g>
<g id="#676567ff">
<path fill="#676567" opacity="1.00" d=" M 222.98 231.93 C 228.05 228.16 232.93 224.15 238.13 220.54 C 238.70 221.43 239.28 222.32 239.87 223.22 C 234.90 227.43 229.22 231.36 226.60 237.58 C 225.54 235.60 224.34 233.70 222.98 231.93 Z" />
</g>
<g id="#3f8293f5">
<path fill="#3f8293" opacity="0.96" d=" M 208.02 223.99 C 208.37 224.08 209.08 224.24 209.43 224.33 C 207.38 225.75 205.36 227.52 202.78 227.81 C 199.39 228.22 195.97 227.97 192.57 227.91 C 192.22 226.74 191.87 225.57 191.54 224.40 L 192.49 224.66 C 193.73 225.03 194.98 225.35 196.24 225.65 C 200.26 226.70 204.22 225.23 208.02 223.99 Z" />
</g>
<g id="#292829ff">
<path fill="#292829" opacity="1.00" d=" M 209.43 224.33 L 209.88 224.77 C 211.28 226.77 212.47 228.89 213.73 230.97 C 214.79 230.69 215.85 230.41 216.91 230.15 C 215.43 232.39 214.04 234.68 212.55 236.91 C 208.54 239.95 203.73 241.58 198.87 242.66 C 196.52 237.85 194.16 233.04 192.57 227.91 C 195.97 227.97 199.39 228.22 202.78 227.81 C 205.36 227.52 207.38 225.75 209.43 224.33 Z" />
</g>
<g id="#4f4e4fff">
<path fill="#4f4e4f" opacity="1.00" d=" M 216.91 230.15 C 217.88 229.93 218.87 229.75 219.86 229.61 C 220.30 230.68 220.76 231.75 221.24 232.82 C 219.03 235.11 216.53 237.26 215.01 240.11 C 215.36 241.67 215.99 243.15 216.56 244.65 C 219.18 242.45 221.73 240.17 224.23 237.83 C 224.82 238.19 226.00 238.91 226.59 239.27 L 225.99 239.82 C 223.50 241.91 221.25 244.53 218.14 245.70 C 216.18 245.84 214.25 245.32 212.34 244.96 C 211.89 246.47 211.44 247.99 211.00 249.50 C 208.99 249.33 206.99 249.17 205.00 248.92 C 203.48 247.67 202.27 246.10 201.07 244.56 C 203.27 244.06 205.48 243.51 207.50 242.49 C 209.78 241.27 211.14 238.98 212.55 236.91 C 214.04 234.68 215.43 232.39 216.91 230.15 Z" />
</g>
<g id="#71c0d5ff">
<path fill="#71c0d5" opacity="1.00" d=" M 219.86 229.61 C 220.15 229.69 220.74 229.85 221.04 229.93 C 221.52 230.43 222.49 231.43 222.98 231.93 C 224.34 233.70 225.54 235.60 226.60 237.58 L 226.99 238.61 L 227.39 239.74 L 226.59 239.27 C 226.00 238.91 224.82 238.19 224.23 237.83 C 223.09 236.25 222.10 234.57 221.24 232.82 C 220.76 231.75 220.30 230.68 219.86 229.61 Z" />
</g>
<g id="#817f81ff">
<path fill="#817f81" opacity="1.00" d=" M 221.24 232.82 C 222.10 234.57 223.09 236.25 224.23 237.83 C 221.73 240.17 219.18 242.45 216.56 244.65 C 215.99 243.15 215.36 241.67 215.01 240.11 C 216.53 237.26 219.03 235.11 221.24 232.82 Z" />
</g>
<g id="#5796a7fb">
<path fill="#5796a7" opacity="1.00" d=" M 198.87 242.66 C 203.73 241.58 208.54 239.95 212.55 236.91 C 211.14 238.98 209.78 241.27 207.50 242.49 C 205.48 243.51 203.27 244.06 201.07 244.56 C 200.33 243.93 199.59 243.30 198.87 242.66 Z" />
</g>
<g id="#313031ff">
<path fill="#313031" opacity="1.00" d=" M 218.14 245.70 C 221.25 244.53 223.50 241.91 225.99 239.82 C 223.47 243.84 220.42 247.63 216.55 250.44 C 213.04 252.98 207.26 253.21 205.00 248.92 C 206.99 249.17 208.99 249.33 211.00 249.50 C 211.44 247.99 211.89 246.47 212.34 244.96 C 214.25 245.32 216.18 245.84 218.14 245.70 Z" />
</g>
</svg>
