<?xml version="1.0" encoding="UTF-8" ?>
<!DOCTYPE svg PUBLIC "-//W3C//DTD SVG 1.1//EN" "http://www.w3.org/Graphics/SVG/1.1/DTD/svg11.dtd">
<svg width="384pt" height="384pt" viewBox="0 0 384 384" version="1.1" xmlns="http://www.w3.org/2000/svg">
<g id="#212021ff">
<path fill="#212021" opacity="1.00" d=" M 211.98 149.09 C 217.64 147.63 223.67 148.17 229.26 149.71 L 228.52 149.82 C 228.14 149.87 227.38 149.98 226.99 150.04 C 228.72 152.78 230.66 155.63 230.66 159.01 C 227.06 157.83 223.62 156.22 220.00 155.11 C 216.80 154.12 213.41 154.60 210.15 154.92 C 209.22 154.18 208.28 153.46 207.33 152.77 C 208.65 151.30 209.91 149.51 211.98 149.09 Z" />
</g>
<g id="#73b7c4ff">
<path fill="#73b7c4" opacity="1.00" d=" M 226.99 150.04 C 227.38 149.98 228.14 149.87 228.52 149.82 C 228.82 150.13 229.41 150.75 229.70 151.06 C 231.67 154.65 232.98 158.80 236.30 161.43 C 236.79 161.84 237.76 162.65 238.25 163.06 C 237.98 164.98 237.72 166.90 237.36 168.81 C 236.25 168.96 235.16 169.11 234.06 169.25 C 233.08 166.43 231.62 163.82 229.56 161.64 C 229.93 160.77 230.31 159.89 230.66 159.01 C 230.66 155.63 228.72 152.78 226.99 150.04 M 232.96 160.76 C 233.25 163.08 233.52 165.44 234.35 167.65 C 235.12 167.86 236.65 168.27 237.41 168.48 C 237.09 166.60 237.11 164.57 236.21 162.85 C 235.18 162.06 234.06 161.42 232.96 160.76 Z" />
</g>
<g id="#2b2a2bff">
<path fill="#2b2a2b" opacity="1.00" d=" M 229.70 151.06 C 234.52 151.03 239.33 151.49 244.11 152.08 C 249.32 152.75 255.00 151.38 259.76 154.20 C 264.87 156.48 268.75 160.78 271.16 165.76 C 267.96 161.10 261.34 162.51 257.62 158.63 C 255.62 156.59 253.13 155.18 250.37 154.45 C 249.45 153.85 248.53 153.24 247.62 152.63 C 247.55 153.65 247.49 154.67 247.42 155.70 C 247.28 156.33 246.98 157.60 246.84 158.24 C 243.20 158.83 239.64 159.85 236.30 161.43 C 232.98 158.80 231.67 154.65 229.70 151.06 Z" />
</g>
<g id="#151515ff">
<path fill="#151515" opacity="1.00" d=" M 192.66 161.83 C 197.02 159.13 200.24 154.63 205.29 153.02 C 205.65 153.33 206.35 153.94 206.70 154.25 C 206.04 156.50 205.38 159.04 203.35 160.46 C 200.73 162.37 197.43 162.78 194.29 162.93 C 188.78 163.17 183.31 163.90 177.86 164.72 C 182.54 162.63 187.72 162.76 192.66 161.83 Z" />
</g>
<g id="#5e909fff">
<path fill="#5e909f" opacity="1.00" d=" M 206.58 152.23 L 207.33 152.77 C 208.28 153.46 209.22 154.18 210.15 154.92 C 211.64 157.03 212.90 159.29 214.11 161.58 C 212.76 161.13 211.28 160.82 210.19 159.87 C 208.59 157.98 207.87 155.55 206.97 153.30 L 206.58 152.23 Z" />
</g>
<g id="#5b96a7ff">
<path fill="#5b96a7" opacity="1.00" d=" M 247.42 155.70 C 247.49 154.67 247.55 153.65 247.62 152.63 C 248.53 153.24 249.45 153.85 250.37 154.45 C 250.20 157.63 250.11 160.81 249.81 163.98 C 249.73 164.55 249.57 165.68 249.50 166.25 C 249.18 166.35 248.56 166.57 248.25 166.67 C 248.12 163.00 247.74 159.35 247.42 155.70 Z" />
</g>
<g id="#424045ff">
<path fill="#424045" opacity="1.00" d=" M 206.70 154.25 L 206.97 153.30 C 207.87 155.55 208.59 157.98 210.19 159.87 C 211.28 160.82 212.76 161.13 214.11 161.58 C 218.25 162.58 222.46 163.25 226.65 164.02 C 224.76 167.33 223.12 170.80 220.87 173.89 C 219.19 176.29 216.50 177.59 213.99 178.93 C 217.10 182.28 219.73 186.25 219.84 190.98 C 221.85 191.12 223.86 191.25 225.88 191.39 C 224.88 193.04 223.99 194.80 222.59 196.16 C 220.60 196.60 218.54 196.56 216.52 196.65 C 216.36 197.21 216.03 198.33 215.87 198.89 C 213.85 197.74 211.72 196.79 209.61 195.83 C 208.67 198.94 208.89 202.19 209.62 205.32 C 206.84 204.73 204.12 203.91 201.41 203.08 C 201.27 204.38 201.14 205.68 201.01 206.98 C 199.49 207.49 198.01 208.08 196.55 208.73 C 196.76 205.17 197.08 201.60 198.10 198.17 C 199.20 196.66 200.39 195.23 201.57 193.78 C 200.78 191.89 199.97 190.01 199.28 188.08 C 198.83 186.40 198.47 184.69 198.23 182.97 C 198.35 181.33 198.57 179.70 198.78 178.08 C 198.84 177.62 198.95 176.72 199.01 176.26 L 199.11 175.45 C 199.47 175.30 200.18 175.00 200.53 174.85 C 201.19 176.98 201.85 179.11 202.53 181.23 C 203.19 178.59 203.81 175.94 204.41 173.29 C 204.50 172.89 204.69 172.09 204.78 171.70 C 198.63 170.37 192.33 169.69 186.04 170.04 C 180.34 170.39 174.61 170.58 168.92 169.98 C 168.94 169.26 168.99 167.80 169.02 167.07 C 171.92 166.14 174.84 165.21 177.86 164.72 C 183.31 163.90 188.78 163.17 194.29 162.93 C 197.43 162.78 200.73 162.37 203.35 160.46 C 205.38 159.04 206.04 156.50 206.70 154.25 Z" />
</g>
<g id="#525157ff">
<path fill="#525157" opacity="1.00" d=" M 210.15 154.92 C 213.41 154.60 216.80 154.12 220.00 155.11 C 223.62 156.22 227.06 157.83 230.66 159.01 C 230.31 159.89 229.93 160.77 229.56 161.64 C 231.62 163.82 233.08 166.43 234.06 169.25 C 229.86 173.20 225.02 176.50 221.52 181.14 C 224.89 184.73 229.07 187.57 231.69 191.83 C 230.37 195.19 227.96 197.88 224.86 199.71 C 225.53 200.05 226.20 200.38 226.87 200.71 C 228.96 200.77 231.05 200.64 233.13 200.45 C 234.50 200.34 235.88 200.22 237.26 200.09 C 235.56 200.76 233.90 201.52 232.19 202.18 C 228.53 202.78 224.81 202.70 221.12 202.87 C 219.41 201.48 217.70 200.10 215.87 198.89 C 216.03 198.33 216.36 197.21 216.52 196.65 C 218.54 196.56 220.60 196.60 222.59 196.16 C 223.99 194.80 224.88 193.04 225.88 191.39 C 223.86 191.25 221.85 191.12 219.84 190.98 C 219.73 186.25 217.10 182.28 213.99 178.93 C 216.50 177.59 219.19 176.29 220.87 173.89 C 223.12 170.80 224.76 167.33 226.65 164.02 C 222.46 163.25 218.25 162.58 214.11 161.58 C 212.90 159.29 211.64 157.03 210.15 154.92 Z" />
</g>
<g id="#646365ff">
<path fill="#646365" opacity="1.00" d=" M 250.37 154.45 C 253.13 155.18 255.62 156.59 257.62 158.63 C 256.81 161.06 256.01 163.49 255.21 165.93 C 253.40 165.30 251.60 164.64 249.81 163.98 C 250.11 160.81 250.20 157.63 250.37 154.45 Z" />
</g>
<g id="#3e3d40ff">
<path fill="#3e3d40" opacity="1.00" d=" M 247.42 155.70 C 247.74 159.35 248.12 163.00 248.25 166.67 C 248.56 166.57 249.18 166.35 249.50 166.25 C 251.23 166.34 252.95 166.55 254.68 166.74 C 254.46 167.09 254.01 167.78 253.79 168.13 C 252.64 168.26 251.50 168.38 250.36 168.48 C 251.96 170.78 253.44 173.18 254.36 175.84 C 252.96 176.05 251.57 176.25 250.17 176.46 C 247.35 171.07 243.10 166.66 238.25 163.06 C 237.76 162.65 236.79 161.84 236.30 161.43 C 239.64 159.85 243.20 158.83 246.84 158.24 C 246.98 157.60 247.28 156.33 247.42 155.70 Z" />
</g>
<g id="#4f4e4fff">
<path fill="#4f4e4f" opacity="1.00" d=" M 257.62 158.63 C 261.34 162.51 267.96 161.10 271.16 165.76 C 271.98 166.92 272.70 168.16 273.46 169.36 C 272.85 169.86 271.64 170.85 271.04 171.35 C 268.86 168.97 266.77 166.51 264.78 163.97 C 263.11 164.08 261.44 164.20 259.78 164.33 C 260.44 168.85 263.38 172.38 266.23 175.75 C 265.28 176.68 264.35 177.63 263.43 178.60 C 260.99 175.00 258.89 171.14 257.90 166.87 C 257.00 166.55 256.10 166.24 255.21 165.93 C 256.01 163.49 256.81 161.06 257.62 158.63 Z" />
</g>
<g id="#faffffff">
<path fill="#faffff" opacity="1.00" d=" M 232.96 160.76 C 234.06 161.42 235.18 162.06 236.21 162.85 C 237.11 164.57 237.09 166.60 237.41 168.48 C 236.65 168.27 235.12 167.86 234.35 167.65 C 233.52 165.44 233.25 163.08 232.96 160.76 Z" />
</g>
<g id="#56545cff">
<path fill="#56545c" opacity="1.00" d=" M 238.25 163.06 C 243.10 166.66 247.35 171.07 250.17 176.46 C 251.57 176.25 252.96 176.05 254.36 175.84 C 254.01 177.39 253.61 178.93 253.23 180.47 C 251.11 180.11 248.88 180.03 246.90 179.11 C 244.83 177.04 243.55 174.35 242.05 171.88 C 241.21 174.39 240.26 176.88 239.76 179.48 C 239.16 182.57 239.75 185.71 240.08 188.79 C 243.50 185.60 247.89 183.91 252.51 183.48 L 252.87 184.23 C 252.88 185.32 252.88 186.41 252.86 187.50 C 251.49 187.62 250.10 187.64 248.78 188.06 C 247.29 189.10 246.20 190.61 245.04 191.99 C 244.32 192.78 243.91 193.72 243.82 194.80 C 241.59 195.46 239.37 196.19 237.26 197.16 C 236.53 195.15 235.85 193.12 234.94 191.18 L 234.69 190.67 C 235.90 189.23 237.42 187.82 237.64 185.83 C 238.43 180.44 239.46 174.68 237.21 169.50 L 237.36 168.81 C 237.72 166.90 237.98 164.98 238.25 163.06 Z" />
</g>
<g id="#212122ff">
<path fill="#212122" opacity="1.00" d=" M 249.81 163.98 C 251.60 164.64 253.40 165.30 255.21 165.93 C 256.10 166.24 257.00 166.55 257.90 166.87 C 258.89 171.14 260.99 175.00 263.43 178.60 L 263.90 179.29 C 260.05 176.04 256.48 172.41 253.79 168.13 C 254.01 167.78 254.46 167.09 254.68 166.74 C 252.95 166.55 251.23 166.34 249.50 166.25 C 249.57 165.68 249.73 164.55 249.81 163.98 Z" />
</g>
<g id="#7f7d7fff">
<path fill="#7f7d7f" opacity="1.00" d=" M 259.78 164.33 C 261.44 164.20 263.11 164.08 264.78 163.97 C 266.77 166.51 268.86 168.97 271.04 171.35 C 269.38 172.75 267.78 174.23 266.23 175.75 C 263.38 172.38 260.44 168.85 259.78 164.33 Z" />
</g>
<g id="#0c0c0d57">
<path fill="#0c0c0d" opacity="0.34" d=" M 156.91 165.80 C 157.36 165.95 158.25 166.26 158.70 166.42 C 159.13 167.74 159.51 169.08 159.90 170.42 C 161.37 170.58 162.83 170.88 164.30 171.11 L 165.15 171.24 C 162.88 171.48 160.19 172.41 158.22 170.77 C 156.60 169.64 157.23 167.45 156.91 165.80 Z" />
</g>
<g id="#38363bec">
<path fill="#38363b" opacity="0.93" d=" M 158.70 166.42 C 161.10 166.25 163.52 166.35 165.91 166.67 C 165.92 167.92 165.94 169.16 165.98 170.41 C 165.56 170.59 164.72 170.93 164.30 171.11 C 162.83 170.88 161.37 170.58 159.90 170.42 C 159.51 169.08 159.13 167.74 158.70 166.42 Z" />
</g>
<g id="#23a1a3c9">
<path fill="#23a1a3" opacity="0.79" d=" M 165.91 166.67 C 166.68 166.77 168.24 166.97 169.02 167.07 C 168.99 167.80 168.94 169.26 168.92 169.98 C 168.18 170.09 166.72 170.30 165.98 170.41 C 165.94 169.16 165.92 167.92 165.91 166.67 Z" />
</g>
<g id="#282728ff">
<path fill="#282728" opacity="1.00" d=" M 186.04 170.04 C 192.33 169.69 198.63 170.37 204.78 171.70 C 204.69 172.09 204.50 172.89 204.41 173.29 C 203.13 173.83 201.82 174.33 200.53 174.85 C 200.18 175.00 199.47 175.30 199.11 175.45 C 195.86 173.58 192.25 172.49 188.62 171.62 C 188.77 172.88 188.90 174.14 189.03 175.41 C 189.09 176.27 189.16 177.13 189.24 178.00 C 188.65 179.04 188.04 180.08 187.49 181.15 C 186.99 179.98 186.50 178.82 186.00 177.66 C 185.65 178.25 184.95 179.43 184.60 180.03 C 184.00 183.92 184.00 187.88 183.87 191.81 C 178.12 191.76 172.37 191.92 166.63 192.14 L 167.17 191.44 C 172.43 190.74 177.73 190.59 183.01 190.24 C 182.07 183.38 182.91 176.26 186.04 170.04 Z" />
</g>
<g id="#6c6972ff">
<path fill="#6c6972" opacity="1.00" d=" M 234.06 169.25 C 235.16 169.11 236.25 168.96 237.36 168.81 L 237.21 169.50 C 236.54 169.75 235.20 170.27 234.53 170.52 C 233.74 174.68 232.58 178.78 232.16 183.01 C 231.84 185.81 233.52 188.26 234.69 190.67 L 234.94 191.18 C 233.85 191.39 232.77 191.61 231.69 191.83 C 229.07 187.57 224.89 184.73 221.52 181.14 C 225.02 176.50 229.86 173.20 234.06 169.25 Z" />
</g>
<g id="#a9dce3ff">
<path fill="#a9dce3" opacity="1.00" d=" M 234.53 170.52 C 235.20 170.27 236.54 169.75 237.21 169.50 C 239.46 174.68 238.43 180.44 237.64 185.83 C 237.42 187.82 235.90 189.23 234.69 190.67 C 233.52 188.26 231.84 185.81 232.16 183.01 C 232.58 178.78 233.74 174.68 234.53 170.52 M 234.91 170.87 C 234.58 173.41 234.73 175.98 234.88 178.53 C 238.52 178.02 237.29 173.52 237.08 170.96 C 236.54 170.94 235.45 170.89 234.91 170.87 M 233.81 180.88 C 233.75 183.65 233.73 186.43 234.07 189.19 C 237.62 188.20 236.49 183.72 237.08 180.95 C 236.27 180.93 234.63 180.90 233.81 180.88 Z" />
</g>
<g id="#6abbcfff">
<path fill="#6abbcf" opacity="1.00" d=" M 271.04 171.35 C 271.64 170.85 272.85 169.86 273.46 169.36 C 273.53 169.87 273.67 170.90 273.74 171.41 C 272.99 172.27 272.21 173.10 271.40 173.91 C 270.46 174.83 269.51 175.74 268.56 176.66 C 267.31 177.87 266.07 179.09 264.84 180.33 C 264.61 180.07 264.13 179.55 263.90 179.29 L 263.43 178.60 C 264.35 177.63 265.28 176.68 266.23 175.75 C 267.78 174.23 269.38 172.75 271.04 171.35 Z" />
</g>
<g id="#ffffffff">
<path fill="#ffffff" opacity="1.00" d=" M 234.91 170.87 C 235.45 170.89 236.54 170.94 237.08 170.96 C 237.29 173.52 238.52 178.02 234.88 178.53 C 234.73 175.98 234.58 173.41 234.91 170.87 Z" />
</g>
<g id="#26636fff">
<path fill="#26636f" opacity="1.00" d=" M 188.62 171.62 C 192.25 172.49 195.86 173.58 199.11 175.45 L 199.01 176.26 C 196.37 175.08 193.55 174.39 190.72 173.85 C 193.25 175.55 195.95 176.96 198.78 178.08 C 198.57 179.70 198.35 181.33 198.23 182.97 C 197.11 183.62 196.01 184.27 194.90 184.93 C 193.87 181.25 191.85 177.98 189.03 175.41 C 188.90 174.14 188.77 172.88 188.62 171.62 Z" />
</g>
<g id="#4a464cff">
<path fill="#4a464c" opacity="1.00" d=" M 239.76 179.48 C 240.26 176.88 241.21 174.39 242.05 171.88 C 243.55 174.35 244.83 177.04 246.90 179.11 C 248.88 180.03 251.11 180.11 253.23 180.47 C 252.97 181.47 252.74 182.48 252.51 183.48 C 247.89 183.91 243.50 185.60 240.08 188.79 C 239.75 185.71 239.16 182.57 239.76 179.48 Z" />
</g>
<g id="#202121ff">
<path fill="#202121" opacity="1.00" d=" M 271.40 173.91 C 272.21 173.10 272.99 172.27 273.74 171.41 C 277.71 174.62 279.54 179.49 282.36 183.59 C 284.08 186.15 286.81 187.75 288.79 190.07 C 290.00 191.78 290.67 193.79 291.51 195.70 C 294.12 196.38 296.84 196.74 299.32 197.83 C 301.09 199.18 302.33 201.10 304.11 202.45 C 307.09 202.63 310.10 202.33 313.08 202.66 C 310.61 202.75 308.16 203.00 305.71 203.21 C 303.48 203.38 301.26 203.67 299.10 204.23 C 296.22 205.96 293.00 206.97 289.63 207.00 C 289.61 206.04 289.61 205.08 289.60 204.13 C 285.42 203.85 281.23 203.72 277.05 204.05 C 277.29 205.34 277.57 206.63 277.85 207.93 C 276.92 207.63 275.99 207.32 275.06 207.02 C 274.85 207.51 274.42 208.50 274.21 208.99 L 273.89 209.73 L 273.18 209.75 C 269.86 208.47 266.60 206.60 262.95 206.66 C 259.60 206.71 256.72 208.62 253.80 210.02 L 252.96 210.18 C 250.84 209.70 248.76 209.08 246.63 208.64 C 249.55 208.47 252.65 208.71 255.38 207.47 C 257.36 206.33 259.13 204.86 261.16 203.78 C 265.17 204.51 268.80 206.53 272.65 207.82 C 273.99 206.51 275.26 205.12 276.80 204.04 C 278.89 203.19 281.17 202.98 283.36 202.51 C 282.00 200.22 280.58 197.96 278.99 195.83 C 279.71 195.15 280.44 194.47 281.17 193.79 C 282.05 194.73 282.94 195.67 283.82 196.62 C 283.65 197.12 283.31 198.11 283.13 198.60 C 283.50 198.78 284.24 199.12 284.61 199.29 C 287.30 200.58 289.94 202.20 292.97 202.56 C 296.03 202.93 299.13 202.70 302.20 202.53 C 301.15 201.42 300.16 200.22 298.89 199.35 C 295.60 197.83 291.23 198.23 288.96 194.94 C 288.82 194.59 288.53 193.90 288.39 193.56 C 287.74 192.05 286.99 190.60 286.09 189.24 C 285.69 189.11 284.88 188.85 284.48 188.72 C 279.09 184.74 276.53 178.18 271.40 173.91 Z" />
<path fill="#202121" opacity="1.00" d=" M 247.96 214.24 C 248.50 214.26 249.57 214.29 250.11 214.30 C 251.66 214.34 253.21 214.42 254.76 214.47 C 256.73 215.84 258.64 217.67 261.12 217.97 C 264.28 217.92 267.18 216.46 270.18 215.65 C 272.48 216.05 274.70 216.82 277.01 217.18 C 281.41 217.79 285.87 217.94 290.30 218.19 C 285.61 218.53 280.88 218.90 276.18 218.55 C 274.44 218.45 273.24 217.01 271.89 216.10 C 266.71 218.20 261.12 218.57 255.67 219.50 C 251.84 220.10 250.53 224.44 247.25 225.98 C 244.54 227.28 241.63 228.32 239.39 230.40 C 236.22 233.21 232.99 235.97 229.49 238.36 C 229.26 237.81 228.79 236.70 228.56 236.15 C 232.97 231.69 238.01 227.93 242.94 224.07 C 244.07 224.64 245.20 225.22 246.33 225.80 C 247.51 224.69 248.69 223.57 249.87 222.45 C 249.24 219.71 248.60 216.98 247.96 214.24 Z" />
</g>
<g id="#575557ff">
<path fill="#575557" opacity="1.00" d=" M 200.53 174.85 C 201.82 174.33 203.13 173.83 204.41 173.29 C 203.81 175.94 203.19 178.59 202.53 181.23 C 201.85 179.11 201.19 176.98 200.53 174.85 Z" />
</g>
<g id="#418c9aff">
<path fill="#418c9a" opacity="1.00" d=" M 190.72 173.85 C 193.55 174.39 196.37 175.08 199.01 176.26 C 198.95 176.72 198.84 177.62 198.78 178.08 C 195.95 176.96 193.25 175.55 190.72 173.85 Z" />
</g>
<g id="#676567ff">
<path fill="#676567" opacity="1.00" d=" M 271.40 173.91 C 276.53 178.18 279.09 184.74 284.48 188.72 C 283.01 189.70 281.57 190.74 280.23 191.89 C 276.76 186.50 272.40 181.77 268.56 176.66 C 269.51 175.74 270.46 174.83 271.40 173.91 Z" />
</g>
<g id="#24505bff">
<path fill="#24505b" opacity="1.00" d=" M 189.03 175.41 C 191.85 177.98 193.87 181.25 194.90 184.93 C 196.01 184.27 197.11 183.62 198.23 182.97 C 198.47 184.69 198.83 186.40 199.28 188.08 C 195.03 188.85 190.70 189.02 186.39 188.99 C 186.24 188.37 185.95 187.14 185.80 186.52 C 186.33 184.72 186.85 182.92 187.49 181.15 C 188.04 180.08 188.65 179.04 189.24 178.00 C 189.16 177.13 189.09 176.27 189.03 175.41 Z" />
</g>
<g id="#353435ff">
<path fill="#353435" opacity="1.00" d=" M 264.84 180.33 C 266.07 179.09 267.31 177.87 268.56 176.66 C 272.40 181.77 276.76 186.50 280.23 191.89 C 279.49 192.79 278.80 193.73 278.15 194.70 C 274.02 189.63 269.18 185.21 264.84 180.33 Z" />
</g>
<g id="#6e5849ff">
<path fill="#6e5849" opacity="1.00" d=" M 186.00 177.66 C 186.50 178.82 186.99 179.98 187.49 181.15 C 186.85 182.92 186.33 184.72 185.80 186.52 C 185.33 184.37 184.95 182.20 184.60 180.03 C 184.95 179.43 185.65 178.25 186.00 177.66 Z" />
</g>
<g id="#46444aff">
<path fill="#46444a" opacity="1.00" d=" M 183.87 191.81 C 184.00 187.88 184.00 183.92 184.60 180.03 C 184.95 182.20 185.33 184.37 185.80 186.52 C 185.95 187.14 186.24 188.37 186.39 188.99 C 190.70 189.02 195.03 188.85 199.28 188.08 C 199.97 190.01 200.78 191.89 201.57 193.78 C 200.39 195.23 199.20 196.66 198.10 198.17 C 194.32 197.76 190.47 197.62 186.76 198.53 C 186.08 199.44 185.44 200.37 184.84 201.33 L 184.50 202.16 L 184.87 202.93 L 185.19 203.55 C 184.05 201.70 183.07 199.76 182.06 197.84 C 177.27 196.67 172.43 195.74 167.58 194.90 L 166.46 194.70 C 166.50 194.27 166.56 193.41 166.59 192.98 L 166.63 192.14 C 172.37 191.92 178.12 191.76 183.87 191.81 Z" />
</g>
<g id="#fdffffff">
<path fill="#fdffff" opacity="1.00" d=" M 233.81 180.88 C 234.63 180.90 236.27 180.93 237.08 180.95 C 236.49 183.72 237.62 188.20 234.07 189.19 C 233.73 186.43 233.75 183.65 233.81 180.88 Z" />
</g>
<g id="#37363bf7">
<path fill="#37363b" opacity="0.97" d=" M 252.87 184.23 C 253.68 186.07 255.33 188.07 254.10 190.12 C 251.84 194.89 246.71 197.49 241.86 198.90 C 239.47 199.18 237.05 199.26 234.65 199.32 C 235.50 198.58 236.38 197.87 237.26 197.16 C 239.37 196.19 241.59 195.46 243.82 194.80 C 245.31 194.61 246.94 193.47 246.57 191.78 C 248.65 191.48 250.72 191.10 252.79 190.72 C 252.81 189.92 252.84 188.30 252.86 187.50 C 252.88 186.41 252.88 185.32 252.87 184.23 Z" />
</g>
<g id="#46444af4">
<path fill="#46444a" opacity="0.96" d=" M 248.78 188.06 C 250.10 187.64 251.49 187.62 252.86 187.50 C 252.84 188.30 252.81 189.92 252.79 190.72 C 250.72 191.10 248.65 191.48 246.57 191.78 C 246.19 191.83 245.42 191.94 245.04 191.99 C 246.20 190.61 247.29 189.10 248.78 188.06 Z" />
</g>
<g id="#5ca0b2f8">
<path fill="#5ca0b2" opacity="0.97" d=" M 284.48 188.72 C 284.88 188.85 285.69 189.11 286.09 189.24 C 284.44 190.74 282.80 192.26 281.17 193.79 C 280.44 194.47 279.71 195.15 278.99 195.83 C 278.78 195.55 278.36 194.98 278.15 194.70 C 278.80 193.73 279.49 192.79 280.23 191.89 C 281.57 190.74 283.01 189.70 284.48 188.72 Z" />
</g>
<g id="#575657ff">
<path fill="#575657" opacity="1.00" d=" M 286.09 189.24 C 286.99 190.60 287.74 192.05 288.39 193.56 C 286.86 194.57 285.34 195.60 283.82 196.62 C 282.94 195.67 282.05 194.73 281.17 193.79 C 282.80 192.26 284.44 190.74 286.09 189.24 Z" />
</g>
<g id="#201f21a7">
<path fill="#201f21" opacity="0.65" d=" M 155.30 192.31 C 157.87 191.41 160.64 190.33 163.31 191.57 C 161.85 191.69 160.39 191.81 158.93 191.93 C 158.93 192.72 158.93 194.30 158.93 195.08 C 160.40 195.13 161.88 195.17 163.36 195.20 C 160.97 197.20 157.97 196.68 155.22 195.85 C 155.25 194.67 155.28 193.49 155.30 192.31 Z" />
</g>
<g id="#6a99a4f2">
<path fill="#6a99a4" opacity="0.95" d=" M 231.69 191.83 C 232.77 191.61 233.85 191.39 234.94 191.18 C 235.85 193.12 236.53 195.15 237.26 197.16 C 236.38 197.87 235.50 198.58 234.65 199.32 C 237.05 199.26 239.47 199.18 241.86 198.90 C 240.33 199.32 238.80 199.70 237.26 200.09 C 235.88 200.22 234.50 200.34 233.13 200.45 L 233.51 199.56 C 234.38 197.01 234.88 194.34 234.99 191.65 C 232.23 192.93 230.95 195.75 229.66 198.32 C 228.73 199.13 227.80 199.92 226.87 200.71 C 226.20 200.38 225.53 200.05 224.86 199.71 C 227.96 197.88 230.37 195.19 231.69 191.83 Z" />
</g>
<g id="#3b3b40eb">
<path fill="#3b3b40" opacity="0.92" d=" M 158.93 191.93 C 160.39 191.81 161.85 191.69 163.31 191.57 L 164.45 191.49 L 164.29 192.26 C 163.99 193.25 164.03 194.24 164.41 195.21 L 163.36 195.20 C 161.88 195.17 160.40 195.13 158.93 195.08 C 158.93 194.30 158.93 192.72 158.93 191.93 Z" />
</g>
<g id="#f6ffffff">
<path fill="#f6ffff" opacity="1.00" d=" M 229.66 198.32 C 230.95 195.75 232.23 192.93 234.99 191.65 C 234.88 194.34 234.38 197.01 233.51 199.56 C 232.54 199.25 230.62 198.63 229.66 198.32 Z" />
</g>
<g id="#5a92a3ff">
<path fill="#5a92a3" opacity="1.00" d=" M 245.04 191.99 C 245.42 191.94 246.19 191.83 246.57 191.78 C 246.94 193.47 245.31 194.61 243.82 194.80 C 243.91 193.72 244.32 192.78 245.04 191.99 Z" />
</g>
<g id="#28aeb0d8">
<path fill="#28aeb0" opacity="0.85" d=" M 164.41 195.21 C 164.03 194.24 163.99 193.25 164.29 192.26 C 164.71 192.27 165.55 192.30 165.97 192.31 L 166.59 192.98 C 166.56 193.41 166.50 194.27 166.46 194.70 L 165.87 195.28 C 165.51 195.27 164.78 195.23 164.41 195.21 Z" />
</g>
<g id="#669eaeff">
<path fill="#669eae" opacity="1.00" d=" M 283.82 196.62 C 285.34 195.60 286.86 194.57 288.39 193.56 C 288.53 193.90 288.82 194.59 288.96 194.94 C 287.58 196.46 286.12 197.91 284.61 199.29 C 284.24 199.12 283.50 198.78 283.13 198.60 C 283.31 198.11 283.65 197.12 283.82 196.62 Z" />
</g>
<g id="#131313ff">
<path fill="#131313" opacity="1.00" d=" M 167.58 194.90 C 172.43 195.74 177.27 196.67 182.06 197.84 C 182.46 200.93 182.66 204.15 184.04 207.01 C 185.70 210.50 188.54 213.21 191.26 215.87 C 191.53 215.20 192.06 213.86 192.33 213.19 L 192.99 212.73 C 195.88 217.19 199.10 221.44 202.65 225.40 C 201.23 225.22 199.83 225.00 198.43 224.78 C 195.38 223.40 192.29 222.02 188.93 221.58 C 189.39 221.34 190.31 220.85 190.77 220.60 C 188.88 218.79 186.98 216.98 185.26 215.00 C 184.11 213.27 183.11 211.44 182.24 209.56 C 182.15 209.22 181.97 208.56 181.88 208.23 C 181.76 207.57 181.52 206.25 181.40 205.59 C 181.09 203.35 181.11 201.10 181.07 198.85 C 176.57 197.56 171.86 196.90 167.58 194.90 Z" />
</g>
<g id="#504f50ff">
<path fill="#504f50" opacity="1.00" d=" M 284.61 199.29 C 286.12 197.91 287.58 196.46 288.96 194.94 C 291.23 198.23 295.60 197.83 298.89 199.35 C 300.16 200.22 301.15 201.42 302.20 202.53 C 299.13 202.70 296.03 202.93 292.97 202.56 C 289.94 202.20 287.30 200.58 284.61 199.29 Z" />
</g>
<g id="#232424ff">
<path fill="#232424" opacity="1.00" d=" M 209.61 195.83 C 211.72 196.79 213.85 197.74 215.87 198.89 C 217.70 200.10 219.41 201.48 221.12 202.87 C 219.52 202.97 217.93 203.11 216.35 203.24 C 216.25 203.87 216.05 205.14 215.95 205.77 C 215.24 205.75 213.82 205.71 213.11 205.69 C 211.94 205.60 210.78 205.48 209.62 205.32 C 208.89 202.19 208.67 198.94 209.61 195.83 Z" />
<path fill="#232424" opacity="1.00" d=" M 209.72 217.86 C 210.87 214.24 211.42 210.46 212.83 206.92 C 214.11 208.34 215.39 209.77 216.63 211.24 C 214.09 214.21 213.58 218.08 214.39 221.82 C 212.93 223.00 211.59 224.45 209.79 225.11 C 207.47 225.77 205.02 225.58 202.65 225.40 C 199.10 221.44 195.88 217.19 192.99 212.73 C 194.20 212.12 195.43 211.58 196.69 211.08 C 198.21 214.12 199.92 217.47 203.29 218.78 C 205.33 219.94 208.42 220.25 209.72 217.86 Z" />
</g>
<g id="#191918ff">
<path fill="#191918" opacity="1.00" d=" M 186.76 198.53 C 190.47 197.62 194.32 197.76 198.10 198.17 C 197.08 201.60 196.76 205.17 196.55 208.73 C 194.79 209.58 193.09 210.52 191.39 211.47 C 189.51 208.05 188.00 204.42 187.08 200.62 C 187.00 200.10 186.84 199.05 186.76 198.53 Z" />
</g>
<g id="#553f34ff">
<path fill="#553f34" opacity="1.00" d=" M 182.06 197.84 C 183.07 199.76 184.05 201.70 185.19 203.55 C 185.80 204.53 186.44 205.49 187.10 206.43 C 187.13 204.49 187.15 202.55 187.08 200.62 C 188.00 204.42 189.51 208.05 191.39 211.47 C 191.63 211.90 192.10 212.76 192.33 213.19 C 192.06 213.86 191.53 215.20 191.26 215.87 C 188.54 213.21 185.70 210.50 184.04 207.01 C 182.66 204.15 182.46 200.93 182.06 197.84 Z" />
</g>
<g id="#755744f9">
<path fill="#755744" opacity="0.98" d=" M 184.84 201.33 C 185.44 200.37 186.08 199.44 186.76 198.53 C 186.84 199.05 187.00 200.10 187.08 200.62 C 187.15 202.55 187.13 204.49 187.10 206.43 C 186.44 205.49 185.80 204.53 185.19 203.55 L 184.87 202.93 C 185.17 202.72 185.77 202.31 186.07 202.10 L 185.66 201.41 L 184.84 201.33 Z" />
</g>
<g id="#c9ffffff">
<path fill="#c9ffff" opacity="1.00" d=" M 226.87 200.71 C 227.80 199.92 228.73 199.13 229.66 198.32 C 230.62 198.63 232.54 199.25 233.51 199.56 L 233.13 200.45 C 231.05 200.64 228.96 200.77 226.87 200.71 Z" />
</g>
<g id="#4f3c30ab">
<path fill="#4f3c30" opacity="0.67" d=" M 184.84 201.33 L 185.66 201.41 L 186.07 202.10 C 185.77 202.31 185.17 202.72 184.87 202.93 L 184.50 202.16 L 184.84 201.33 Z" />
</g>
<g id="#111211ff">
<path fill="#111211" opacity="1.00" d=" M 221.12 202.87 C 224.81 202.70 228.53 202.78 232.19 202.18 C 231.72 204.42 231.25 206.67 230.81 208.92 C 229.14 209.03 227.49 209.25 225.84 209.47 C 225.53 211.22 225.23 212.98 224.92 214.74 C 220.51 215.80 216.50 218.40 214.49 222.58 L 214.39 221.82 C 213.58 218.08 214.09 214.21 216.63 211.24 C 217.34 211.57 218.75 212.23 219.45 212.55 C 218.31 210.28 217.14 208.02 215.95 205.77 C 216.05 205.14 216.25 203.87 216.35 203.24 C 217.93 203.11 219.52 202.97 221.12 202.87 Z" />
</g>
<g id="#70717ad3">
<path fill="#70717a" opacity="0.83" d=" M 333.45 203.07 C 335.73 202.59 339.64 200.95 340.62 204.09 C 339.95 204.82 339.28 205.55 338.60 206.28 C 337.83 205.15 337.16 203.96 336.62 202.72 C 336.34 203.69 335.77 205.63 335.49 206.60 C 334.80 205.43 334.12 204.25 333.45 203.07 Z" />
</g>
<g id="#5b6469ff">
<path fill="#5b6469" opacity="1.00" d=" M 201.01 206.98 C 201.14 205.68 201.27 204.38 201.41 203.08 C 204.12 203.91 206.84 204.73 209.62 205.32 C 210.78 205.48 211.94 205.60 213.11 205.69 C 209.05 205.76 204.99 206.16 201.01 206.98 Z" />
</g>
<g id="#57565abe">
<path fill="#57565a" opacity="0.75" d=" M 305.71 203.21 C 308.16 203.00 310.61 202.75 313.08 202.66 C 314.24 203.17 315.35 203.80 316.47 204.41 C 316.90 204.36 317.75 204.27 318.18 204.22 C 318.71 205.08 319.24 205.94 319.77 206.80 C 318.63 206.80 317.49 206.80 316.35 206.80 C 315.49 206.06 314.64 205.33 313.79 204.60 L 313.25 204.13 C 310.77 203.59 308.24 203.33 305.71 203.21 Z" />
</g>
<g id="#616166ff">
<path fill="#616166" opacity="1.00" d=" M 318.18 204.22 C 319.16 203.85 320.14 203.49 321.13 203.12 L 320.74 203.88 L 321.00 204.66 L 321.77 204.75 L 322.20 204.06 L 321.99 203.23 C 322.47 203.02 323.43 202.61 323.91 202.40 C 323.79 204.64 323.72 206.89 323.95 209.13 C 325.30 209.82 326.68 210.44 328.09 211.01 C 327.37 210.96 325.93 210.87 325.21 210.83 C 324.75 210.78 323.82 210.69 323.36 210.65 C 320.33 210.17 317.38 209.31 314.48 208.35 L 314.27 207.24 C 314.15 206.58 313.91 205.26 313.79 204.60 C 314.64 205.33 315.49 206.06 316.35 206.80 C 317.49 206.80 318.63 206.80 319.77 206.80 C 319.24 205.94 318.71 205.08 318.18 204.22 Z" />
</g>
<g id="#9394a0fe">
<path fill="#9394a0" opacity="1.00" d=" M 321.13 203.12 L 321.99 203.23 L 322.20 204.06 L 321.77 204.75 L 321.00 204.66 L 320.74 203.88 L 321.13 203.12 Z" />
</g>
<g id="#86868fff">
<path fill="#86868f" opacity="1.00" d=" M 323.91 202.40 C 324.93 202.90 325.77 203.60 326.45 204.50 C 326.76 204.96 327.38 205.89 327.70 206.36 C 329.75 206.61 331.80 206.84 333.86 207.07 C 333.89 207.51 333.93 208.37 333.96 208.81 C 330.62 208.91 327.29 209.02 323.95 209.13 C 323.72 206.89 323.79 204.64 323.91 202.40 Z" />
</g>
<g id="#43444bff">
<path fill="#43444b" opacity="1.00" d=" M 330.09 205.78 C 331.44 205.22 332.39 204.03 333.45 203.07 C 334.12 204.25 334.80 205.43 335.49 206.60 C 335.77 205.63 336.34 203.69 336.62 202.72 C 337.16 203.96 337.83 205.15 338.60 206.28 C 339.28 205.55 339.95 204.82 340.62 204.09 L 341.14 203.51 C 341.66 204.55 342.17 205.60 342.68 206.65 C 343.12 206.61 343.99 206.51 344.42 206.47 C 344.63 205.87 345.04 204.69 345.25 204.09 C 347.65 206.18 350.77 206.84 353.87 207.02 C 353.80 206.37 353.66 205.07 353.59 204.42 C 356.63 205.20 359.71 205.78 362.79 206.36 C 364.77 206.54 366.27 208.09 367.20 209.73 C 367.86 211.73 367.69 213.88 367.85 215.95 C 363.68 217.88 358.83 217.30 354.75 219.47 C 353.39 218.71 352.05 217.90 350.58 217.40 C 348.76 217.59 347.18 218.63 345.56 219.41 C 344.82 218.93 344.08 218.45 343.35 217.99 C 341.40 219.24 339.47 221.01 336.98 220.85 C 334.45 221.25 332.73 219.21 330.72 218.09 C 327.95 217.45 325.13 217.01 322.42 216.12 C 330.00 216.41 337.43 214.34 345.01 214.76 C 352.32 215.05 359.65 215.05 366.97 214.75 C 366.96 213.56 366.96 212.38 366.96 211.21 C 363.56 211.24 360.16 211.27 356.77 211.17 C 347.21 210.57 337.64 211.48 328.09 211.01 C 326.68 210.44 325.30 209.82 323.95 209.13 C 327.29 209.02 330.62 208.91 333.96 208.81 C 333.93 208.37 333.89 207.51 333.86 207.07 C 331.80 206.84 329.75 206.61 327.70 206.36 C 327.38 205.89 326.76 204.96 326.45 204.50 C 327.65 204.94 328.84 205.44 330.09 205.78 Z" />
</g>
<g id="#787881fe">
<path fill="#787881" opacity="1.00" d=" M 344.63 203.66 C 347.15 203.01 349.76 202.78 352.35 203.06 C 352.21 203.46 351.93 204.27 351.79 204.68 L 352.19 205.30 L 352.89 205.30 L 353.36 204.69 C 353.30 204.29 353.19 203.48 353.14 203.08 C 353.25 203.42 353.48 204.09 353.59 204.42 C 353.66 205.07 353.80 206.37 353.87 207.02 C 350.77 206.84 347.65 206.18 345.25 204.09 L 344.63 203.66 Z" />
</g>
<g id="#a8a9b4fc">
<path fill="#a8a9b4" opacity="1.00" d=" M 352.35 203.06 L 353.14 203.08 C 353.19 203.48 353.30 204.29 353.36 204.69 L 352.89 205.30 L 352.19 205.30 L 351.79 204.68 C 351.93 204.27 352.21 203.46 352.35 203.06 Z" />
</g>
<g id="#53545aff">
<path fill="#53545a" opacity="1.00" d=" M 277.05 204.05 C 281.23 203.72 285.42 203.85 289.60 204.13 C 289.61 205.08 289.61 206.04 289.63 207.00 C 293.00 206.97 296.22 205.96 299.10 204.23 C 299.76 205.07 300.43 205.91 301.11 206.76 C 300.04 206.98 298.98 207.22 297.92 207.47 C 299.13 209.82 300.37 212.15 301.61 214.49 C 300.75 214.81 299.04 215.46 298.18 215.78 C 298.20 216.36 298.23 217.51 298.25 218.09 C 298.27 218.53 298.31 219.42 298.34 219.86 C 303.47 220.32 309.56 221.99 313.85 218.21 L 314.76 217.61 C 310.54 217.25 306.31 217.22 302.08 217.24 C 303.34 214.49 303.85 211.48 302.56 208.64 C 302.94 208.66 303.69 208.72 304.07 208.74 C 307.54 209.08 311.02 208.75 314.48 208.35 C 317.38 209.31 320.33 210.17 323.36 210.65 C 321.17 210.70 319.00 210.74 316.82 210.75 C 312.95 210.73 309.09 210.78 305.24 210.94 C 305.22 212.20 305.21 213.46 305.20 214.72 C 310.29 214.89 315.42 214.86 320.46 215.77 L 321.07 216.54 C 319.82 217.16 318.62 217.88 317.42 218.58 C 315.72 219.53 313.98 220.62 311.97 220.70 C 307.15 220.99 302.32 220.65 297.49 220.65 C 297.32 219.95 296.99 218.56 296.82 217.87 C 294.65 218.05 292.48 218.27 290.30 218.19 C 285.87 217.94 281.41 217.79 277.01 217.18 C 280.12 216.94 283.20 216.19 286.33 216.36 C 288.67 216.47 290.99 216.85 293.33 216.96 C 293.99 216.98 295.31 217.01 295.96 217.03 C 296.03 214.28 296.08 211.52 296.10 208.77 C 293.41 208.42 290.63 208.53 288.31 210.09 C 284.78 209.57 281.25 209.02 277.85 207.93 C 277.57 206.63 277.29 205.34 277.05 204.05 Z" />
</g>
<g id="#fefdfeff">
<path fill="#fefdfe" opacity="1.00" d=" M 299.10 204.23 C 301.26 203.67 303.48 203.38 305.71 203.21 C 308.24 203.33 310.77 203.59 313.25 204.13 C 310.28 207.67 305.11 205.91 301.11 206.76 C 300.43 205.91 299.76 205.07 299.10 204.23 Z" />
</g>
<g id="#aaadbcff">
<path fill="#aaadbc" opacity="1.00" d=" M 313.25 204.13 L 313.79 204.60 C 313.91 205.26 314.15 206.58 314.27 207.24 C 310.25 206.73 306.19 206.89 302.19 207.42 C 302.66 207.75 303.60 208.41 304.07 208.74 C 303.69 208.72 302.94 208.66 302.56 208.64 C 303.85 211.48 303.34 214.49 302.08 217.24 C 306.31 217.22 310.54 217.25 314.76 217.61 L 313.85 218.21 C 308.66 217.83 303.44 217.60 298.25 218.09 C 298.23 217.51 298.20 216.36 298.18 215.78 C 299.04 215.46 300.75 214.81 301.61 214.49 C 300.37 212.15 299.13 209.82 297.92 207.47 C 298.98 207.22 300.04 206.98 301.11 206.76 C 305.11 205.91 310.28 207.67 313.25 204.13 Z" />
</g>
<g id="#4e4d4fff">
<path fill="#4e4d4f" opacity="1.00" d=" M 168.99 207.83 C 170.54 206.97 172.18 206.29 173.83 205.64 C 173.27 206.98 172.70 208.33 172.14 209.68 C 175.42 209.42 178.68 208.98 181.88 208.23 C 181.97 208.56 182.15 209.22 182.24 209.56 C 179.83 210.68 176.85 211.29 175.19 213.53 C 173.64 216.19 176.21 218.45 177.70 220.39 C 179.87 219.27 182.06 218.19 184.25 217.12 C 184.50 216.59 185.01 215.53 185.26 215.00 C 186.98 216.98 188.88 218.79 190.77 220.60 C 190.31 220.85 189.39 221.34 188.93 221.58 C 185.93 223.23 182.76 224.64 179.38 225.33 C 177.10 224.95 174.69 224.63 172.71 223.32 C 170.20 221.43 168.87 218.14 169.19 215.04 C 169.42 212.46 170.11 209.96 170.67 207.44 C 170.25 207.54 169.41 207.73 168.99 207.83 Z" />
</g>
<g id="#3a393aff">
<path fill="#3a393a" opacity="1.00" d=" M 173.83 205.64 C 176.35 205.63 178.88 205.60 181.40 205.59 C 181.52 206.25 181.76 207.57 181.88 208.23 C 178.68 208.98 175.42 209.42 172.14 209.68 C 172.70 208.33 173.27 206.98 173.83 205.64 Z" />
</g>
<g id="#5599abff">
<path fill="#5599ab" opacity="1.00" d=" M 201.01 206.98 C 204.99 206.16 209.05 205.76 213.11 205.69 C 213.82 205.71 215.24 205.75 215.95 205.77 C 217.14 208.02 218.31 210.28 219.45 212.55 C 218.75 212.23 217.34 211.57 216.63 211.24 C 215.39 209.77 214.11 208.34 212.83 206.92 C 210.82 207.19 208.80 207.47 206.80 207.82 C 203.59 208.50 200.50 209.62 197.44 210.81 L 196.69 211.08 C 195.43 211.58 194.20 212.12 192.99 212.73 L 192.33 213.19 C 192.10 212.76 191.63 211.90 191.39 211.47 C 193.09 210.52 194.79 209.58 196.55 208.73 C 198.01 208.08 199.49 207.49 201.01 206.98 Z" />
</g>
<g id="#454445ff">
<path fill="#454445" opacity="1.00" d=" M 206.80 207.82 C 208.80 207.47 210.82 207.19 212.83 206.92 C 211.42 210.46 210.87 214.24 209.72 217.86 C 208.42 220.25 205.33 219.94 203.29 218.78 C 199.92 217.47 198.21 214.12 196.69 211.08 L 197.44 210.81 C 199.38 212.09 201.16 213.66 203.30 214.62 C 204.95 214.74 206.60 214.38 208.23 214.18 C 207.77 212.05 207.29 209.94 206.80 207.82 Z" />
</g>
<g id="#51525bff">
<path fill="#51525b" opacity="1.00" d=" M 253.80 210.02 C 256.72 208.62 259.60 206.71 262.95 206.66 C 266.60 206.60 269.86 208.47 273.18 209.75 C 270.46 210.20 267.76 210.78 265.07 211.32 C 265.02 212.45 264.98 213.59 264.94 214.72 C 266.69 215.01 268.44 215.31 270.18 215.65 C 267.18 216.46 264.28 217.92 261.12 217.97 C 258.64 217.67 256.73 215.84 254.76 214.47 C 255.62 213.12 256.48 211.75 257.31 210.38 C 256.43 210.29 254.68 210.11 253.80 210.02 M 259.90 210.96 C 259.96 212.24 260.02 213.53 260.07 214.82 C 261.31 214.80 262.55 214.80 263.79 214.79 C 263.78 213.55 263.78 212.32 263.78 211.09 C 262.48 211.05 261.19 211.01 259.90 210.96 Z" />
</g>
<g id="#727171ff">
<path fill="#727171" opacity="1.00" d=" M 275.06 207.02 C 275.99 207.32 276.92 207.63 277.85 207.93 C 281.25 209.02 284.78 209.57 288.31 210.09 C 290.57 210.51 292.82 211.00 295.08 211.47 C 294.08 211.78 293.09 212.09 292.10 212.40 C 293.04 212.70 293.98 213.00 294.93 213.30 C 294.39 214.52 293.86 215.74 293.33 216.96 C 290.99 216.85 288.67 216.47 286.33 216.36 C 283.20 216.19 280.12 216.94 277.01 217.18 C 274.70 216.82 272.48 216.05 270.18 215.65 C 268.44 215.31 266.69 215.01 264.94 214.72 C 264.98 213.59 265.02 212.45 265.07 211.32 C 267.76 210.78 270.46 210.20 273.18 209.75 L 273.89 209.73 C 274.58 211.14 275.56 211.46 276.82 210.68 C 277.99 209.05 275.34 207.95 274.21 208.99 C 274.42 208.50 274.85 207.51 275.06 207.02 Z" />
</g>
<g id="#86868dff">
<path fill="#86868d" opacity="1.00" d=" M 302.19 207.42 C 306.19 206.89 310.25 206.73 314.27 207.24 L 314.48 208.35 C 311.02 208.75 307.54 209.08 304.07 208.74 C 303.60 208.41 302.66 207.75 302.19 207.42 Z" />
</g>
<g id="#4e8b9ced">
<path fill="#4e8b9c" opacity="0.93" d=" M 168.19 208.01 L 168.99 207.83 C 169.41 207.73 170.25 207.54 170.67 207.44 C 170.11 209.96 169.42 212.46 169.19 215.04 C 168.87 218.14 170.20 221.43 172.71 223.32 C 174.69 224.63 177.10 224.95 179.38 225.33 L 180.21 225.46 C 177.51 225.42 174.41 226.36 172.00 224.78 C 169.78 222.91 167.70 220.59 167.16 217.65 C 166.63 214.70 167.26 211.70 167.94 208.82 L 168.19 208.01 Z" />
</g>
<g id="#646264ff">
<path fill="#646264" opacity="1.00" d=" M 197.44 210.81 C 200.50 209.62 203.59 208.50 206.80 207.82 C 207.29 209.94 207.77 212.05 208.23 214.18 C 206.60 214.38 204.95 214.74 203.30 214.62 C 201.16 213.66 199.38 212.09 197.44 210.81 Z" />
</g>
<g id="#46474ffe">
<path fill="#46474f" opacity="1.00" d=" M 225.84 209.47 C 227.49 209.25 229.14 209.03 230.81 208.92 C 236.09 209.04 241.36 208.74 246.63 208.64 C 248.76 209.08 250.84 209.70 252.96 210.18 C 251.75 210.46 250.56 210.78 249.38 211.10 C 249.62 212.16 249.86 213.23 250.11 214.30 C 249.57 214.29 248.50 214.26 247.96 214.24 C 245.91 214.29 243.87 214.32 241.83 214.35 C 236.48 214.45 231.14 214.59 225.80 214.63 C 227.88 214.36 229.97 214.09 232.06 213.83 C 232.11 212.53 232.16 211.24 232.21 209.95 C 230.08 209.80 227.96 209.64 225.84 209.47 M 235.24 209.90 C 235.22 210.66 235.17 212.20 235.15 212.96 C 237.98 212.89 240.81 212.81 243.64 212.74 C 244.16 211.72 244.68 210.71 245.21 209.70 C 241.88 209.64 238.56 209.71 235.24 209.90 Z" />
</g>
<g id="#96959dfe">
<path fill="#96959d" opacity="1.00" d=" M 288.31 210.09 C 290.63 208.53 293.41 208.42 296.10 208.77 C 296.08 211.52 296.03 214.28 295.96 217.03 C 295.31 217.01 293.99 216.98 293.33 216.96 C 293.86 215.74 294.39 214.52 294.93 213.30 C 293.98 213.00 293.04 212.70 292.10 212.40 C 293.09 212.09 294.08 211.78 295.08 211.47 C 292.82 211.00 290.57 210.51 288.31 210.09 Z" />
</g>
<g id="#393739fc">
<path fill="#393739" opacity="1.00" d=" M 141.54 211.56 C 147.13 212.09 152.31 208.84 157.87 209.69 C 158.89 209.82 159.91 209.96 160.94 210.10 C 160.20 210.36 158.73 210.89 157.99 211.15 C 155.23 212.42 152.43 213.65 149.43 214.23 C 148.84 214.55 147.68 215.19 147.10 215.50 C 145.54 213.82 143.50 212.70 141.54 211.56 Z" />
</g>
<g id="#151615ff">
<path fill="#151615" opacity="1.00" d=" M 157.87 209.69 C 161.20 209.18 164.56 208.86 167.94 208.82 C 167.26 211.70 166.63 214.70 167.16 217.65 C 167.70 220.59 169.78 222.91 172.00 224.78 C 166.72 223.15 161.31 225.20 155.95 224.73 C 151.84 224.34 147.22 224.34 143.98 221.40 C 149.06 220.75 153.61 224.20 158.71 223.55 C 160.12 223.40 161.53 223.20 162.95 223.02 C 160.64 221.60 158.13 220.39 156.25 218.40 C 154.74 215.90 156.85 213.31 157.99 211.15 C 158.73 210.89 160.20 210.36 160.94 210.10 C 159.91 209.96 158.89 209.82 157.87 209.69 Z" />
</g>
<g id="#8d8d94ff">
<path fill="#8d8d94" opacity="1.00" d=" M 274.21 208.99 C 275.34 207.95 277.99 209.05 276.82 210.68 C 275.56 211.46 274.58 211.14 273.89 209.73 L 274.21 208.99 Z" />
</g>
<g id="#686667ff">
<path fill="#686667" opacity="1.00" d=" M 175.19 213.53 C 176.85 211.29 179.83 210.68 182.24 209.56 C 183.11 211.44 184.11 213.27 185.26 215.00 C 185.01 215.53 184.50 216.59 184.25 217.12 C 182.06 218.19 179.87 219.27 177.70 220.39 C 176.21 218.45 173.64 216.19 175.19 213.53 Z" />
</g>
<g id="#9597a7fe">
<path fill="#9597a7" opacity="1.00" d=" M 224.92 214.74 C 225.23 212.98 225.53 211.22 225.84 209.47 C 227.96 209.64 230.08 209.80 232.21 209.95 C 232.16 211.24 232.11 212.53 232.06 213.83 C 229.97 214.09 227.88 214.36 225.80 214.63 L 224.92 214.74 Z" />
</g>
<g id="#abaebdff">
<path fill="#abaebd" opacity="1.00" d=" M 235.24 209.90 C 238.56 209.71 241.88 209.64 245.21 209.70 C 244.68 210.71 244.16 211.72 243.64 212.74 C 240.81 212.81 237.98 212.89 235.15 212.96 C 235.17 212.20 235.22 210.66 235.24 209.90 Z" />
</g>
<g id="#909099ff">
<path fill="#909099" opacity="1.00" d=" M 252.96 210.18 L 253.80 210.02 C 254.68 210.11 256.43 210.29 257.31 210.38 C 256.48 211.75 255.62 213.12 254.76 214.47 C 253.21 214.42 251.66 214.34 250.11 214.30 C 249.86 213.23 249.62 212.16 249.38 211.10 C 250.56 210.78 251.75 210.46 252.96 210.18 Z" />
</g>
<g id="#6d6a6cff">
<path fill="#6d6a6c" opacity="1.00" d=" M 149.43 214.23 C 152.43 213.65 155.23 212.42 157.99 211.15 C 156.85 213.31 154.74 215.90 156.25 218.40 C 158.13 220.39 160.64 221.60 162.95 223.02 C 161.53 223.20 160.12 223.40 158.71 223.55 C 157.12 221.79 155.51 220.04 153.86 218.35 C 152.49 218.45 151.08 218.76 149.72 218.43 C 148.78 217.51 147.97 216.48 147.10 215.50 C 147.68 215.19 148.84 214.55 149.43 214.23 Z" />
</g>
<g id="#979aa7ff">
<path fill="#979aa7" opacity="1.00" d=" M 259.90 210.96 C 261.19 211.01 262.48 211.05 263.78 211.09 C 263.78 212.32 263.78 213.55 263.79 214.79 C 262.55 214.80 261.31 214.80 260.07 214.82 C 260.02 213.53 259.96 212.24 259.90 210.96 Z" />
</g>
<g id="#c2c3d3ff">
<path fill="#c2c3d3" opacity="1.00" d=" M 305.24 210.94 C 309.09 210.78 312.95 210.73 316.82 210.75 C 318.02 212.43 319.21 214.12 320.46 215.77 C 315.42 214.86 310.29 214.89 305.20 214.72 C 305.21 213.46 305.22 212.20 305.24 210.94 Z" />
</g>
<g id="#d5d8e7ff">
<path fill="#d5d8e7" opacity="1.00" d=" M 316.82 210.75 C 319.00 210.74 321.17 210.70 323.36 210.65 C 323.04 212.47 322.72 214.29 322.42 216.12 C 322.08 216.22 321.41 216.43 321.07 216.54 L 320.46 215.77 C 319.21 214.12 318.02 212.43 316.82 210.75 Z" />
</g>
<g id="#9c9ea9fe">
<path fill="#9c9ea9" opacity="1.00" d=" M 323.36 210.65 C 323.82 210.69 324.75 210.78 325.21 210.83 C 324.85 211.45 324.15 212.69 323.79 213.31 C 324.33 213.35 325.41 213.43 325.95 213.47 C 331.92 214.37 337.97 214.53 344.00 214.35 C 351.06 214.10 358.26 215.22 365.18 213.32 C 365.52 213.25 366.19 213.11 366.53 213.04 C 363.39 211.93 360.10 211.28 356.77 211.17 C 360.16 211.27 363.56 211.24 366.96 211.21 C 366.96 212.38 366.96 213.56 366.97 214.75 C 359.65 215.05 352.32 215.05 345.01 214.76 C 337.43 214.34 330.00 216.41 322.42 216.12 C 322.72 214.29 323.04 212.47 323.36 210.65 Z" />
</g>
<g id="#bec1cfff">
<path fill="#bec1cf" opacity="1.00" d=" M 325.21 210.83 C 325.93 210.87 327.37 210.96 328.09 211.01 C 337.64 211.48 347.21 210.57 356.77 211.17 C 360.10 211.28 363.39 211.93 366.53 213.04 C 366.19 213.11 365.52 213.25 365.18 213.32 C 360.65 212.89 356.13 212.10 351.57 212.39 C 343.03 212.94 334.45 212.21 325.95 213.47 C 325.41 213.43 324.33 213.35 323.79 213.31 C 324.15 212.69 324.85 211.45 325.21 210.83 Z" />
</g>
<g id="#3d7280c8">
<path fill="#3d7280" opacity="0.78" d=" M 138.40 218.47 C 137.57 215.63 139.63 213.33 141.54 211.56 C 141.13 214.88 141.13 218.23 141.44 221.56 C 140.38 220.58 139.29 219.61 138.40 218.47 Z" />
</g>
<g id="#444548ff">
<path fill="#444548" opacity="1.00" d=" M 141.54 211.56 C 143.50 212.70 145.54 213.82 147.10 215.50 C 147.97 216.48 148.78 217.51 149.72 218.43 C 151.08 218.76 152.49 218.45 153.86 218.35 C 155.51 220.04 157.12 221.79 158.71 223.55 C 153.61 224.20 149.06 220.75 143.98 221.40 C 143.35 221.44 142.07 221.52 141.44 221.56 C 141.13 218.23 141.13 214.88 141.54 211.56 M 143.35 214.63 C 141.92 215.10 141.82 217.87 143.27 218.38 C 144.72 217.95 144.83 215.08 143.35 214.63 Z" />
</g>
<g id="#dce0f0ff">
<path fill="#dce0f0" opacity="1.00" d=" M 325.95 213.47 C 334.45 212.21 343.03 212.94 351.57 212.39 C 356.13 212.10 360.65 212.89 365.18 213.32 C 358.26 215.22 351.06 214.10 344.00 214.35 C 337.97 214.53 331.92 214.37 325.95 213.47 Z" />
</g>
<g id="#556a73ff">
<path fill="#556a73" opacity="1.00" d=" M 143.35 214.63 C 144.83 215.08 144.72 217.95 143.27 218.38 C 141.82 217.87 141.92 215.10 143.35 214.63 Z" />
</g>
<g id="#627e88ff">
<path fill="#627e88" opacity="1.00" d=" M 241.83 214.35 C 243.87 214.32 245.91 214.29 247.96 214.24 C 248.60 216.98 249.24 219.71 249.87 222.45 C 248.03 220.07 246.27 217.63 244.29 215.37 C 243.90 215.17 243.11 214.76 242.72 214.56 L 241.83 214.35 Z" />
</g>
<g id="#545455ff">
<path fill="#545455" opacity="1.00" d=" M 242.72 214.56 C 243.11 214.76 243.90 215.17 244.29 215.37 C 246.27 217.63 248.03 220.07 249.87 222.45 C 248.69 223.57 247.51 224.69 246.33 225.80 C 244.77 222.79 243.15 219.81 241.48 216.86 C 241.79 216.28 242.41 215.14 242.72 214.56 Z" />
</g>
<g id="#5d5e65fd">
<path fill="#5d5e65" opacity="1.00" d=" M 321.07 216.54 C 321.41 216.43 322.08 216.22 322.42 216.12 C 325.13 217.01 327.95 217.45 330.72 218.09 C 328.20 218.99 325.79 220.50 323.05 220.55 C 320.97 220.69 319.20 219.43 317.42 218.58 C 318.62 217.88 319.82 217.16 321.07 216.54 Z" />
</g>
<g id="#333233ff">
<path fill="#333233" opacity="1.00" d=" M 223.67 227.70 C 228.35 223.15 234.65 220.94 240.15 217.60 C 240.72 218.95 241.30 220.31 241.89 221.67 C 236.14 224.18 230.97 227.74 225.83 231.29 C 225.11 230.09 224.39 228.89 223.67 227.70 Z" />
</g>
<g id="#5a9aabff">
<path fill="#5a9aab" opacity="1.00" d=" M 240.15 217.60 C 240.49 217.41 241.15 217.04 241.48 216.86 C 243.15 219.81 244.77 222.79 246.33 225.80 C 245.20 225.22 244.07 224.64 242.94 224.07 C 242.68 223.47 242.15 222.27 241.89 221.67 C 241.30 220.31 240.72 218.95 240.15 217.60 Z" />
</g>
<g id="#5b5b63fe">
<path fill="#5b5b63" opacity="1.00" d=" M 345.56 219.41 C 347.18 218.63 348.76 217.59 350.58 217.40 C 352.05 217.90 353.39 218.71 354.75 219.47 C 351.87 221.32 348.44 221.09 345.56 219.41 Z" />
</g>
<g id="#f1eff2fd">
<path fill="#f1eff2" opacity="1.00" d=" M 298.25 218.09 C 303.44 217.60 308.66 217.83 313.85 218.21 C 309.56 221.99 303.47 220.32 298.34 219.86 C 298.31 219.42 298.27 218.53 298.25 218.09 Z" />
</g>
<g id="#3c7888fb">
<path fill="#3c7888" opacity="1.00" d=" M 214.39 221.82 L 214.49 222.58 C 214.60 223.20 214.80 224.43 214.90 225.04 C 212.02 226.26 209.09 227.61 205.92 227.81 C 202.73 228.02 199.65 226.93 196.67 225.93 C 197.11 225.64 197.99 225.07 198.43 224.78 C 199.83 225.00 201.23 225.22 202.65 225.40 C 205.02 225.58 207.47 225.77 209.79 225.11 C 211.59 224.45 212.93 223.00 214.39 221.82 Z" />
</g>
<g id="#676568ff">
<path fill="#676568" opacity="1.00" d=" M 225.83 231.29 C 230.97 227.74 236.14 224.18 241.89 221.67 C 242.15 222.27 242.68 223.47 242.94 224.07 C 238.01 227.93 232.97 231.69 228.56 236.15 C 227.71 234.49 226.77 232.89 225.83 231.29 Z" />
</g>
<g id="#272627ff">
<path fill="#272627" opacity="1.00" d=" M 205.92 227.81 C 209.09 227.61 212.02 226.26 214.90 225.04 C 215.30 226.47 215.75 227.88 216.19 229.30 C 216.85 229.19 218.17 228.96 218.83 228.85 C 217.64 231.30 216.47 233.76 215.14 236.14 C 212.88 237.29 210.65 238.53 208.26 239.39 C 205.76 240.32 203.05 239.81 200.46 239.69 C 199.10 235.13 197.80 230.55 196.67 225.93 C 199.65 226.93 202.73 228.02 205.92 227.81 Z" />
</g>
<g id="#4c4c4dff">
<path fill="#4c4c4d" opacity="1.00" d=" M 218.83 228.85 C 219.86 228.66 220.89 228.47 221.92 228.28 C 222.08 228.71 222.40 229.56 222.56 229.98 L 222.84 230.74 C 222.84 231.42 222.83 232.76 222.82 233.44 C 221.00 233.82 219.18 234.21 217.36 234.59 C 216.57 237.43 215.82 240.28 215.15 243.15 C 219.33 242.12 223.25 240.29 226.82 237.90 C 227.20 238.31 227.95 239.14 228.33 239.55 C 225.98 241.77 224.04 245.66 220.38 245.59 C 215.54 245.24 210.97 247.46 206.12 246.99 L 205.27 246.97 C 204.62 245.44 203.92 243.93 203.19 242.44 C 205.73 242.18 208.36 241.90 210.70 240.78 C 212.66 239.79 213.93 237.90 215.14 236.14 C 216.47 233.76 217.64 231.30 218.83 228.85 Z" />
</g>
<g id="#68b2c5f7">
<path fill="#68b2c5" opacity="0.97" d=" M 222.56 229.98 C 222.83 229.41 223.39 228.27 223.67 227.70 C 224.39 228.89 225.11 230.09 225.83 231.29 C 226.77 232.89 227.71 234.49 228.56 236.15 C 228.79 236.70 229.26 237.81 229.49 238.36 C 229.66 238.79 229.99 239.67 230.16 240.10 C 229.70 239.96 228.79 239.69 228.33 239.55 C 227.95 239.14 227.20 238.31 226.82 237.90 C 225.36 235.59 224.08 233.18 222.84 230.74 L 222.56 229.98 Z" />
</g>
<g id="#7f7d80ff">
<path fill="#7f7d80" opacity="1.00" d=" M 222.84 230.74 C 224.08 233.18 225.36 235.59 226.82 237.90 C 223.25 240.29 219.33 242.12 215.15 243.15 C 215.82 240.28 216.57 237.43 217.36 234.59 C 219.18 234.21 221.00 233.82 222.82 233.44 C 222.83 232.76 222.84 231.42 222.84 230.74 Z" />
</g>
<g id="#508b9cff">
<path fill="#508b9c" opacity="1.00" d=" M 208.26 239.39 C 210.65 238.53 212.88 237.29 215.14 236.14 C 213.93 237.90 212.66 239.79 210.70 240.78 C 208.36 241.90 205.73 242.18 203.19 242.44 C 202.17 241.63 201.33 240.64 200.46 239.69 C 203.05 239.81 205.76 240.32 208.26 239.39 Z" />
</g>
<g id="#2c2c2cfe">
<path fill="#2c2c2c" opacity="1.00" d=" M 206.12 246.99 C 210.97 247.46 215.54 245.24 220.38 245.59 C 219.09 247.16 217.96 249.28 215.75 249.63 C 212.35 250.45 207.89 250.67 206.12 246.99 Z" />
</g>
</svg>
