<?xml version="1.0" encoding="UTF-8" ?>
<!DOCTYPE svg PUBLIC "-//W3C//DTD SVG 1.1//EN" "http://www.w3.org/Graphics/SVG/1.1/DTD/svg11.dtd">
<svg width="384pt" height="384pt" viewBox="0 0 384 384" version="1.1" xmlns="http://www.w3.org/2000/svg">
<g id="#414143ff">
<path fill="#414143" opacity="1.00" d=" M 247.66 148.88 C 251.83 147.84 256.45 146.71 260.57 148.55 C 263.27 149.63 265.60 152.05 265.73 155.08 C 266.08 156.96 265.08 159.48 262.88 159.50 C 262.36 159.46 261.31 159.37 260.78 159.33 C 262.05 158.11 263.32 156.89 264.58 155.67 C 262.89 154.63 261.20 153.59 259.50 152.56 C 258.04 154.15 256.56 155.74 255.07 157.30 C 254.63 156.18 254.13 155.07 253.86 153.89 C 254.14 151.88 255.29 150.13 256.12 148.31 C 252.16 149.37 248.18 150.40 244.25 151.54 C 245.83 153.73 247.40 155.93 248.95 158.15 C 249.10 155.96 249.25 153.77 249.40 151.59 C 250.86 154.08 252.23 156.62 253.63 159.14 C 253.32 160.31 253.02 161.48 252.73 162.65 C 250.94 162.77 249.15 162.89 247.37 163.01 C 246.28 161.13 245.18 159.25 244.15 157.33 C 243.30 155.74 242.58 153.96 241.12 152.82 C 239.05 151.94 236.75 152.09 234.57 151.99 L 233.87 151.96 C 238.47 150.94 243.12 150.15 247.66 148.88 Z" />
</g>
<g id="#575657ff">
<path fill="#575657" opacity="1.00" d=" M 244.25 151.54 C 248.18 150.40 252.16 149.37 256.12 148.31 C 255.29 150.13 254.14 151.88 253.86 153.89 C 254.13 155.07 254.63 156.18 255.07 157.30 C 256.56 155.74 258.04 154.15 259.50 152.56 C 261.20 153.59 262.89 154.63 264.58 155.67 C 263.32 156.89 262.05 158.11 260.78 159.33 C 260.25 159.24 259.17 159.06 258.63 158.97 C 257.20 158.53 255.71 158.70 254.29 159.08 L 253.63 159.14 C 252.23 156.62 250.86 154.08 249.40 151.59 C 249.25 153.77 249.10 155.96 248.95 158.15 C 247.40 155.93 245.83 153.73 244.25 151.54 Z" />
<path fill="#575657" opacity="1.00" d=" M 289.98 185.97 C 291.07 186.18 292.16 186.40 293.25 186.65 C 293.66 187.06 294.49 187.88 294.91 188.28 C 294.24 188.92 293.57 189.57 292.91 190.21 C 291.13 191.93 289.34 193.64 287.63 195.42 C 287.05 194.37 286.44 193.34 285.81 192.32 C 287.35 190.31 288.66 188.13 289.98 185.97 Z" />
</g>
<g id="#212121ff">
<path fill="#212121" opacity="1.00" d=" M 204.41 153.55 C 206.38 152.03 208.51 150.45 211.10 150.37 C 214.98 150.16 219.40 149.74 222.78 152.03 C 224.77 154.06 226.60 156.25 228.48 158.39 C 228.16 159.84 227.76 161.27 227.27 162.68 C 226.70 162.54 225.54 162.27 224.97 162.13 C 223.21 160.19 221.50 158.00 219.00 157.00 C 215.40 155.46 211.41 156.20 207.67 156.69 C 206.66 155.56 205.56 154.52 204.41 153.55 Z" />
</g>
<g id="#386e7dfe">
<path fill="#386e7d" opacity="1.00" d=" M 222.78 152.03 C 225.43 152.04 228.88 150.90 230.86 153.27 C 231.58 154.09 232.27 154.95 232.97 155.80 C 231.43 155.22 229.90 154.63 228.38 154.03 C 228.48 154.95 228.59 155.87 228.70 156.78 C 228.64 157.19 228.54 157.99 228.48 158.39 C 226.60 156.25 224.77 154.06 222.78 152.03 Z" />
</g>
<g id="#5e5c5eff">
<path fill="#5e5c5e" opacity="1.00" d=" M 234.57 151.99 C 236.75 152.09 239.05 151.94 241.12 152.82 C 242.58 153.96 243.30 155.74 244.15 157.33 C 244.01 157.79 243.73 158.72 243.59 159.18 C 240.16 157.03 236.79 154.78 233.75 152.09 L 234.57 151.99 Z" />
</g>
<g id="#568fa0f8">
<path fill="#568fa0" opacity="0.97" d=" M 203.39 152.74 C 203.64 152.94 204.15 153.35 204.41 153.55 C 205.56 154.52 206.66 155.56 207.67 156.69 C 208.01 157.19 208.68 158.19 209.02 158.69 C 210.11 160.77 211.03 162.92 211.93 165.09 C 208.17 162.57 205.41 158.82 203.65 154.70 L 203.52 153.79 L 203.39 152.74 Z" />
</g>
<g id="#1e1e1eff">
<path fill="#1e1e1e" opacity="1.00" d=" M 230.86 153.27 C 231.58 152.97 233.03 152.38 233.75 152.09 C 236.79 154.78 240.16 157.03 243.59 159.18 L 243.72 160.01 C 238.81 159.99 233.93 159.48 229.14 158.43 C 229.03 158.02 228.81 157.20 228.70 156.78 C 228.59 155.87 228.48 154.95 228.38 154.03 C 229.90 154.63 231.43 155.22 232.97 155.80 C 232.27 154.95 231.58 154.09 230.86 153.27 Z" />
</g>
<g id="#151615ff">
<path fill="#151615" opacity="1.00" d=" M 195.15 159.18 C 197.61 156.91 200.58 155.34 203.52 153.79 L 203.65 154.70 C 203.54 157.08 203.71 159.95 201.76 161.69 C 199.26 163.51 196.03 163.76 193.05 164.16 C 186.09 164.79 179.09 165.13 172.14 166.01 C 177.62 163.39 183.84 164.53 189.65 163.57 C 191.78 162.54 193.35 160.68 195.15 159.18 Z" />
</g>
<g id="#444247ff">
<path fill="#444247" opacity="1.00" d=" M 203.65 154.70 C 205.41 158.82 208.17 162.57 211.93 165.09 C 214.82 165.88 217.83 166.04 220.82 165.90 C 221.86 165.27 222.90 164.67 223.99 164.14 L 224.48 164.94 C 224.43 167.94 224.04 170.93 223.50 173.89 C 220.67 175.09 217.47 176.11 215.65 178.77 C 213.60 181.37 212.29 185.31 214.56 188.20 C 216.63 190.33 219.58 191.30 221.74 193.32 C 222.90 195.34 223.33 197.67 223.97 199.88 C 223.03 201.22 222.03 202.52 221.05 203.83 C 223.13 204.03 225.21 204.23 227.29 204.44 L 226.73 205.01 C 223.20 205.83 219.55 205.75 216.01 205.06 C 212.62 202.63 209.01 200.48 205.10 198.98 C 204.92 201.35 204.75 203.72 204.59 206.10 C 202.01 204.89 199.44 203.66 196.84 202.49 C 196.49 204.30 196.15 206.12 195.83 207.94 C 194.81 208.19 193.81 208.48 192.82 208.81 C 192.99 205.92 193.15 203.04 193.29 200.15 C 190.51 199.89 187.72 199.68 184.93 199.44 C 183.34 199.30 181.75 199.13 180.16 198.96 C 174.93 198.46 169.54 197.60 165.03 194.73 C 164.69 193.60 163.99 192.84 162.92 192.47 L 163.51 191.96 C 170.29 191.35 177.14 192.45 183.90 191.46 C 185.14 191.28 186.38 191.09 187.62 190.93 C 189.91 190.67 192.23 190.51 194.54 190.70 C 197.16 191.24 199.85 191.52 202.52 191.16 C 202.48 188.31 202.34 185.45 202.74 182.63 C 203.20 179.25 205.10 176.34 206.73 173.43 C 199.83 172.01 192.77 171.24 185.74 172.01 L 185.00 171.92 C 178.82 171.13 172.48 171.54 166.43 169.82 C 167.38 168.97 168.32 168.12 169.31 167.31 C 170.14 166.64 171.09 166.21 172.14 166.01 C 179.09 165.13 186.09 164.79 193.05 164.16 C 196.03 163.76 199.26 163.51 201.76 161.69 C 203.71 159.95 203.54 157.08 203.65 154.70 Z" />
</g>
<g id="#434243ff">
<path fill="#434243" opacity="1.00" d=" M 207.67 156.69 C 211.41 156.20 215.40 155.46 219.00 157.00 C 221.50 158.00 223.21 160.19 224.97 162.13 C 219.67 160.89 214.40 159.52 209.02 158.69 C 208.68 158.19 208.01 157.19 207.67 156.69 Z" />
</g>
<g id="#7ebecaff">
<path fill="#7ebeca" opacity="1.00" d=" M 228.48 158.39 C 228.54 157.99 228.64 157.19 228.70 156.78 C 228.81 157.20 229.03 158.02 229.14 158.43 C 229.95 161.02 231.00 163.52 231.86 166.09 C 232.10 168.06 232.23 170.05 232.37 172.04 L 231.34 172.04 C 231.17 169.72 231.02 167.40 230.88 165.09 C 230.05 164.98 228.39 164.78 227.57 164.67 C 227.69 166.50 227.81 168.33 228.00 170.16 C 226.88 168.38 225.64 166.68 224.48 164.94 L 223.99 164.14 C 225.08 163.63 226.18 163.17 227.27 162.68 C 227.76 161.27 228.16 159.84 228.48 158.39 Z" />
</g>
<g id="#3c3b3eff">
<path fill="#3c3b3e" opacity="1.00" d=" M 229.14 158.43 C 233.93 159.48 238.81 159.99 243.72 160.01 C 244.20 162.85 244.63 165.71 244.98 168.57 C 244.93 169.20 244.82 170.46 244.77 171.09 C 247.16 171.30 249.54 171.54 251.92 171.81 C 250.46 173.08 249.10 174.45 247.74 175.83 C 246.23 175.02 244.72 174.21 243.25 173.33 C 242.00 172.55 240.78 171.75 239.59 170.90 C 237.22 168.98 234.58 167.45 231.86 166.09 C 231.00 163.52 229.95 161.02 229.14 158.43 Z" />
</g>
<g id="#568e9eff">
<path fill="#568e9e" opacity="1.00" d=" M 243.59 159.18 C 243.73 158.72 244.01 157.79 244.15 157.33 C 245.18 159.25 246.28 161.13 247.37 163.01 C 246.86 165.42 246.32 167.81 245.70 170.19 C 245.52 169.79 245.16 168.98 244.98 168.57 C 244.63 165.71 244.20 162.85 243.72 160.01 L 243.59 159.18 Z" />
</g>
<g id="#457381ff">
<path fill="#457381" opacity="1.00" d=" M 254.29 159.08 C 255.71 158.70 257.20 158.53 258.63 158.97 C 258.02 161.21 255.39 160.46 254.29 159.08 Z" />
</g>
<g id="#5b595fff">
<path fill="#5b595f" opacity="1.00" d=" M 209.02 158.69 C 214.40 159.52 219.67 160.89 224.97 162.13 C 225.54 162.27 226.70 162.54 227.27 162.68 C 226.18 163.17 225.08 163.63 223.99 164.14 C 222.90 164.67 221.86 165.27 220.82 165.90 C 217.83 166.04 214.82 165.88 211.93 165.09 C 211.03 162.92 210.11 160.77 209.02 158.69 Z" />
</g>
<g id="#232323ff">
<path fill="#232323" opacity="1.00" d=" M 253.63 159.14 L 254.29 159.08 C 255.39 160.46 258.02 161.21 258.63 158.97 C 259.17 159.06 260.25 159.24 260.78 159.33 C 261.31 159.37 262.36 159.46 262.88 159.50 C 261.67 160.16 260.45 160.82 259.24 161.47 C 261.14 162.68 263.02 163.92 264.89 165.17 C 263.37 165.78 261.85 166.39 260.34 167.00 C 257.79 165.56 255.25 164.12 252.73 162.65 C 253.02 161.48 253.32 160.31 253.63 159.14 Z" />
</g>
<g id="#585658ff">
<path fill="#585658" opacity="1.00" d=" M 247.37 163.01 C 249.15 162.89 250.94 162.77 252.73 162.65 C 255.25 164.12 257.79 165.56 260.34 167.00 C 261.85 166.39 263.37 165.78 264.89 165.17 C 267.31 166.99 269.51 169.08 271.42 171.43 C 271.06 171.88 270.35 172.78 269.99 173.23 C 267.44 171.60 265.03 169.56 262.07 168.73 C 260.72 168.89 259.42 169.34 258.12 169.71 C 260.52 173.02 263.61 175.74 266.99 178.03 C 266.17 179.34 265.35 180.65 264.54 181.97 C 262.32 180.53 259.76 179.31 258.26 177.06 C 257.08 174.55 256.74 171.76 256.14 169.08 C 254.71 169.97 253.29 170.85 251.92 171.81 C 249.54 171.54 247.16 171.30 244.77 171.09 C 244.82 170.46 244.93 169.20 244.98 168.57 C 245.16 168.98 245.52 169.79 245.70 170.19 C 246.32 167.81 246.86 165.42 247.37 163.01 M 247.82 166.32 C 248.78 168.41 250.35 170.03 252.75 170.30 C 252.78 168.53 252.79 166.76 252.80 165.00 C 251.14 165.43 249.48 165.87 247.82 166.32 Z" />
</g>
<g id="#13131476">
<path fill="#131314" opacity="0.46" d=" M 155.81 166.21 C 158.18 166.02 161.88 163.76 163.24 166.78 C 161.62 167.23 158.53 166.24 158.66 168.81 C 159.79 169.88 161.06 170.79 162.34 171.68 L 163.02 172.15 C 161.33 171.80 159.55 171.72 157.97 170.98 C 156.55 169.83 156.44 167.81 155.81 166.21 Z" />
</g>
<g id="#fdffffff">
<path fill="#fdffff" opacity="1.00" d=" M 227.57 164.67 C 228.39 164.78 230.05 164.98 230.88 165.09 C 231.02 167.40 231.17 169.72 231.34 172.04 C 230.61 172.04 229.14 172.03 228.41 172.03 C 228.31 171.56 228.10 170.62 228.00 170.16 C 227.81 168.33 227.69 166.50 227.57 164.67 Z" />
<path fill="#fdffff" opacity="1.00" d=" M 226.83 184.77 C 226.86 183.38 227.03 181.99 227.16 180.61 C 227.55 181.86 227.96 183.12 228.38 184.36 C 229.15 184.65 230.68 185.23 231.45 185.52 C 230.97 187.91 230.56 190.33 229.85 192.67 C 229.48 192.63 228.74 192.55 228.38 192.52 C 227.42 190.05 226.96 187.41 226.83 184.77 Z" />
</g>
<g id="#6f6d6fff">
<path fill="#6f6d6f" opacity="1.00" d=" M 247.82 166.32 C 249.48 165.87 251.14 165.43 252.80 165.00 C 252.79 166.76 252.78 168.53 252.75 170.30 C 250.35 170.03 248.78 168.41 247.82 166.32 Z" />
</g>
<g id="#58565eff">
<path fill="#58565e" opacity="1.00" d=" M 224.48 164.94 C 225.64 166.68 226.88 168.38 228.00 170.16 C 228.10 170.62 228.31 171.56 228.41 172.03 C 229.14 172.03 230.61 172.04 231.34 172.04 L 232.37 172.04 C 232.23 170.05 232.10 168.06 231.86 166.09 C 234.58 167.45 237.22 168.98 239.59 170.90 C 240.25 172.21 240.85 173.55 241.47 174.89 C 241.91 174.50 242.81 173.72 243.25 173.33 C 244.72 174.21 246.23 175.02 247.74 175.83 C 248.06 177.52 248.37 179.21 248.66 180.91 C 248.43 181.51 247.98 182.73 247.75 183.34 C 245.56 182.93 243.17 182.96 241.21 181.80 C 239.09 180.12 237.59 177.82 235.91 175.73 C 234.93 178.46 233.70 181.16 233.42 184.07 C 233.30 186.80 234.04 189.47 234.56 192.13 C 236.26 190.68 237.85 189.04 239.85 188.00 C 242.26 186.97 244.94 186.87 247.51 186.53 L 247.64 187.26 C 247.71 187.69 247.84 188.55 247.91 188.98 C 246.31 189.39 244.71 189.81 243.11 190.23 C 242.69 191.52 242.27 192.82 241.87 194.12 C 240.38 194.80 239.04 195.74 237.82 196.81 C 235.16 198.88 232.29 200.64 229.43 202.40 C 229.95 195.47 232.14 188.75 232.10 181.76 C 232.22 179.14 232.14 176.51 232.07 173.88 C 231.44 173.91 230.18 173.97 229.56 174.00 C 229.05 174.35 228.04 175.06 227.54 175.41 C 223.96 177.75 220.42 180.16 217.32 183.12 C 219.22 187.10 222.84 189.65 226.84 191.25 C 226.89 194.37 225.69 197.32 223.97 199.88 C 223.33 197.67 222.90 195.34 221.74 193.32 C 219.58 191.30 216.63 190.33 214.56 188.20 C 212.29 185.31 213.60 181.37 215.65 178.77 C 217.47 176.11 220.67 175.09 223.50 173.89 C 224.04 170.93 224.43 167.94 224.48 164.94 Z" />
</g>
<g id="#38363bed">
<path fill="#38363b" opacity="0.93" d=" M 158.66 168.81 C 158.53 166.24 161.62 167.23 163.24 166.78 L 164.34 166.71 C 164.20 167.59 163.92 169.36 163.78 170.24 C 163.42 170.60 162.70 171.32 162.34 171.68 C 161.06 170.79 159.79 169.88 158.66 168.81 Z" />
</g>
<g id="#238f91c2">
<path fill="#238f91" opacity="0.76" d=" M 164.34 166.71 C 165.99 166.94 167.65 167.13 169.31 167.31 C 168.32 168.12 167.38 168.97 166.43 169.82 C 165.77 169.92 164.44 170.13 163.78 170.24 C 163.92 169.36 164.20 167.59 164.34 166.71 Z" />
</g>
<g id="#827f81ff">
<path fill="#827f81" opacity="1.00" d=" M 262.07 168.73 C 265.03 169.56 267.44 171.60 269.99 173.23 C 268.93 174.80 267.97 176.42 266.99 178.03 C 263.61 175.74 260.52 173.02 258.12 169.71 C 259.42 169.34 260.72 168.89 262.07 168.73 Z" />
</g>
<g id="#323233ff">
<path fill="#323233" opacity="1.00" d=" M 251.92 171.81 C 253.29 170.85 254.71 169.97 256.14 169.08 C 256.74 171.76 257.08 174.55 258.26 177.06 C 259.76 179.31 262.32 180.53 264.54 181.97 C 264.84 182.13 265.45 182.47 265.75 182.64 C 266.94 181.57 268.05 180.42 269.10 179.22 C 274.12 183.14 279.44 186.66 285.08 189.65 C 284.38 190.73 283.72 191.83 283.10 192.95 C 276.76 188.96 269.95 185.77 263.16 182.64 C 258.81 180.59 254.77 177.99 250.55 175.73 C 249.92 177.46 249.30 179.19 248.66 180.91 C 248.37 179.21 248.06 177.52 247.74 175.83 C 249.10 174.45 250.46 173.08 251.92 171.81 Z" />
</g>
<g id="#313034ff">
<path fill="#313034" opacity="1.00" d=" M 185.74 172.01 C 192.77 171.24 199.83 172.01 206.73 173.43 C 205.10 176.34 203.20 179.25 202.74 182.63 C 202.34 185.45 202.48 188.31 202.52 191.16 C 199.85 191.52 197.16 191.24 194.54 190.70 C 194.06 186.47 194.80 182.27 195.72 178.15 L 195.20 177.83 C 192.25 176.07 189.11 174.60 186.38 172.50 L 185.74 172.01 M 197.79 174.74 C 196.80 179.27 195.87 184.54 198.86 188.55 C 200.32 184.60 200.36 180.36 200.18 176.20 C 199.59 175.84 198.39 175.11 197.79 174.74 Z" />
</g>
<g id="#567987ff">
<path fill="#567987" opacity="1.00" d=" M 241.47 174.89 C 240.85 173.55 240.25 172.21 239.59 170.90 C 240.78 171.75 242.00 172.55 243.25 173.33 C 242.81 173.72 241.91 174.50 241.47 174.89 Z" />
</g>
<g id="#6ab1c5fb">
<path fill="#6ab1c5" opacity="1.00" d=" M 271.42 171.43 C 271.87 171.29 272.77 171.00 273.22 170.86 C 273.10 171.29 272.86 172.15 272.73 172.58 C 272.54 173.14 272.15 174.26 271.95 174.83 C 271.09 176.34 270.13 177.81 269.10 179.22 C 268.05 180.42 266.94 181.57 265.75 182.64 C 265.45 182.47 264.84 182.13 264.54 181.97 C 265.35 180.65 266.17 179.34 266.99 178.03 C 267.97 176.42 268.93 174.80 269.99 173.23 C 270.35 172.78 271.06 171.88 271.42 171.43 Z" />
</g>
<g id="#224f59ff">
<path fill="#224f59" opacity="1.00" d=" M 185.00 171.92 L 185.74 172.01 L 186.38 172.50 C 186.94 174.12 187.43 175.76 188.02 177.37 C 188.91 179.95 190.51 182.40 190.64 185.18 C 189.94 187.24 188.62 189.01 187.62 190.93 C 186.38 191.09 185.14 191.28 183.90 191.46 C 183.30 184.91 184.15 178.40 185.00 171.92 Z" />
</g>
<g id="#377a88ff">
<path fill="#377a88" opacity="1.00" d=" M 186.38 172.50 C 189.11 174.60 192.25 176.07 195.20 177.83 C 192.82 178.73 190.35 178.08 188.02 177.37 C 187.43 175.76 186.94 174.12 186.38 172.50 Z" />
</g>
<g id="#2c2d2ed2">
<path fill="#2c2d2e" opacity="0.82" d=" M 272.73 172.58 C 276.38 174.31 279.45 176.95 282.37 179.69 C 285.72 182.89 290.33 184.11 294.02 186.81 L 293.25 186.65 C 292.16 186.40 291.07 186.18 289.98 185.97 C 289.46 185.86 288.43 185.64 287.92 185.53 C 281.83 183.24 277.31 178.33 271.95 174.83 C 272.15 174.26 272.54 173.14 272.73 172.58 Z" />
</g>
<g id="#cbfeffff">
<path fill="#cbfeff" opacity="1.00" d=" M 227.54 175.41 C 228.04 175.06 229.05 174.35 229.56 174.00 C 230.18 173.97 231.44 173.91 232.07 173.88 C 232.14 176.51 232.22 179.14 232.10 181.76 C 231.90 183.02 231.68 184.27 231.45 185.52 C 230.68 185.23 229.15 184.65 228.38 184.36 C 227.96 183.12 227.55 181.86 227.16 180.61 C 227.28 178.87 227.42 177.14 227.54 175.41 M 228.93 182.13 C 229.55 181.76 230.78 181.02 231.40 180.65 C 231.26 178.40 230.87 176.18 230.13 174.05 C 229.39 176.68 229.07 179.40 228.93 182.13 Z" />
</g>
<g id="#474647ff">
<path fill="#474647" opacity="1.00" d=" M 197.79 174.74 C 198.39 175.11 199.59 175.84 200.18 176.20 C 200.36 180.36 200.32 184.60 198.86 188.55 C 195.87 184.54 196.80 179.27 197.79 174.74 Z" />
</g>
<g id="#ffffffff">
<path fill="#ffffff" opacity="1.00" d=" M 228.93 182.13 C 229.07 179.40 229.39 176.68 230.13 174.05 C 230.87 176.18 231.26 178.40 231.40 180.65 C 230.78 181.02 229.55 181.76 228.93 182.13 Z" />
<path fill="#ffffff" opacity="1.00" d=" M 294.39 203.58 C 294.81 202.86 295.63 201.43 296.04 200.71 C 300.97 200.34 305.98 200.39 310.76 201.79 C 305.96 203.41 300.90 204.19 295.83 204.07 C 295.47 203.95 294.75 203.71 294.39 203.58 Z" />
</g>
<g id="#6a6769ff">
<path fill="#6a6769" opacity="1.00" d=" M 269.10 179.22 C 270.13 177.81 271.09 176.34 271.95 174.83 C 277.31 178.33 281.83 183.24 287.92 185.53 C 286.96 186.89 285.99 188.25 285.08 189.65 C 279.44 186.66 274.12 183.14 269.10 179.22 Z" />
</g>
<g id="#6d6a73ff">
<path fill="#6d6a73" opacity="1.00" d=" M 217.32 183.12 C 220.42 180.16 223.96 177.75 227.54 175.41 C 227.42 177.14 227.28 178.87 227.16 180.61 C 227.03 181.99 226.86 183.38 226.83 184.77 C 226.79 186.93 226.86 189.09 226.84 191.25 C 222.84 189.65 219.22 187.10 217.32 183.12 Z" />
</g>
<g id="#4b484eff">
<path fill="#4b484e" opacity="1.00" d=" M 233.42 184.07 C 233.70 181.16 234.93 178.46 235.91 175.73 C 237.59 177.82 239.09 180.12 241.21 181.80 C 243.17 182.96 245.56 182.93 247.75 183.34 C 247.55 184.39 247.46 185.46 247.51 186.53 C 244.94 186.87 242.26 186.97 239.85 188.00 C 237.85 189.04 236.26 190.68 234.56 192.13 C 234.04 189.47 233.30 186.80 233.42 184.07 Z" />
</g>
<g id="#27616eff">
<path fill="#27616e" opacity="1.00" d=" M 188.02 177.37 C 190.35 178.08 192.82 178.73 195.20 177.83 L 195.72 178.15 C 194.80 182.27 194.06 186.47 194.54 190.70 C 192.23 190.51 189.91 190.67 187.62 190.93 C 188.62 189.01 189.94 187.24 190.64 185.18 C 190.51 182.40 188.91 179.95 188.02 177.37 Z" />
</g>
<g id="#94d0d9ff">
<path fill="#94d0d9" opacity="1.00" d=" M 231.45 185.52 C 231.68 184.27 231.90 183.02 232.10 181.76 C 232.14 188.75 229.95 195.47 229.43 202.40 C 228.69 203.06 227.98 203.74 227.29 204.44 C 225.21 204.23 223.13 204.03 221.05 203.83 C 222.03 202.52 223.03 201.22 223.97 199.88 C 225.69 197.32 226.89 194.37 226.84 191.25 C 226.86 189.09 226.79 186.93 226.83 184.77 C 226.96 187.41 227.42 190.05 228.38 192.52 C 228.74 192.55 229.48 192.63 229.85 192.67 C 230.56 190.33 230.97 187.91 231.45 185.52 M 224.85 202.97 C 225.57 202.87 227.00 202.65 227.72 202.55 C 228.54 200.28 229.13 197.93 229.40 195.53 C 225.49 195.59 225.75 200.24 224.85 202.97 Z" />
</g>
<g id="#61a3b5ff">
<path fill="#61a3b5" opacity="1.00" d=" M 287.92 185.53 C 288.43 185.64 289.46 185.86 289.98 185.97 C 288.66 188.13 287.35 190.31 285.81 192.32 C 285.46 192.74 284.75 193.56 284.40 193.98 C 284.07 193.72 283.42 193.21 283.10 192.95 C 283.72 191.83 284.38 190.73 285.08 189.65 C 285.99 188.25 286.96 186.89 287.92 185.53 Z" />
</g>
<g id="#323135f7">
<path fill="#323135" opacity="0.97" d=" M 247.64 187.26 C 248.04 188.82 248.58 190.37 248.78 191.98 C 248.82 194.53 246.88 196.51 244.93 197.88 C 240.46 200.96 235.26 202.76 230.07 204.24 C 228.96 204.52 227.84 204.78 226.73 205.01 L 227.29 204.44 C 227.98 203.74 228.69 203.06 229.43 202.40 C 232.29 200.64 235.16 198.88 237.82 196.81 C 239.31 197.35 241.51 197.72 242.06 195.69 C 243.65 195.43 245.26 195.21 246.81 194.73 C 248.14 193.14 247.81 190.90 247.91 188.98 C 247.84 188.55 247.71 187.69 247.64 187.26 Z" />
</g>
<g id="#1c2224c0">
<path fill="#1c2224" opacity="0.75" d=" M 294.91 188.28 C 296.50 189.00 298.13 189.88 299.95 189.79 C 302.31 189.91 304.97 189.34 306.94 191.03 C 303.68 191.51 300.39 191.88 297.10 191.89 C 296.15 191.54 295.22 191.17 294.30 190.80 C 293.95 190.65 293.26 190.36 292.91 190.21 C 293.57 189.57 294.24 188.92 294.91 188.28 Z" />
</g>
<g id="#444248f7">
<path fill="#444248" opacity="0.97" d=" M 243.11 190.23 C 244.71 189.81 246.31 189.39 247.91 188.98 C 247.81 190.90 248.14 193.14 246.81 194.73 C 245.26 195.21 243.65 195.43 242.06 195.69 C 242.01 195.30 241.92 194.51 241.87 194.12 C 242.27 192.82 242.69 191.52 243.11 190.23 Z" />
</g>
<g id="#6698a8ff">
<path fill="#6698a8" opacity="1.00" d=" M 287.63 195.42 C 289.34 193.64 291.13 191.93 292.91 190.21 C 293.26 190.36 293.95 190.65 294.30 190.80 C 293.24 192.29 292.19 193.80 291.08 195.26 C 290.77 195.53 290.14 196.08 289.83 196.36 C 289.52 196.62 288.90 197.14 288.59 197.40 L 288.10 196.91 C 287.99 196.54 287.75 195.79 287.63 195.42 Z" />
</g>
<g id="#39373cea">
<path fill="#39373c" opacity="0.92" d=" M 155.46 192.76 C 157.74 190.57 160.78 190.97 163.51 191.96 L 162.92 192.47 L 162.32 193.02 C 162.30 193.49 162.26 194.43 162.24 194.90 L 162.38 195.87 C 160.32 195.87 158.27 195.87 156.22 195.87 C 156.03 195.10 155.65 193.54 155.46 192.76 Z" />
</g>
<g id="#525052ff">
<path fill="#525052" opacity="1.00" d=" M 294.30 190.80 C 295.22 191.17 296.15 191.54 297.10 191.89 C 298.80 192.54 300.49 193.23 302.18 193.94 C 298.71 195.67 294.83 195.45 291.08 195.26 C 292.19 193.80 293.24 192.29 294.30 190.80 Z" />
</g>
<g id="#454446fe">
<path fill="#454446" opacity="1.00" d=" M 297.10 191.89 C 300.39 191.88 303.68 191.51 306.94 191.03 C 309.41 192.86 312.03 194.50 314.52 196.32 C 312.31 197.05 310.04 197.51 307.74 197.81 C 306.89 196.70 306.02 195.60 305.16 194.50 C 302.89 195.53 300.66 196.82 298.16 197.15 C 295.36 197.32 292.60 196.64 289.83 196.36 C 290.14 196.08 290.77 195.53 291.08 195.26 C 294.83 195.45 298.71 195.67 302.18 193.94 C 300.49 193.23 298.80 192.54 297.10 191.89 Z" />
</g>
<g id="#2bc1c3e5">
<path fill="#2bc1c3" opacity="0.90" d=" M 162.32 193.02 L 162.92 192.47 C 163.99 192.84 164.69 193.60 165.03 194.73 C 164.57 194.91 163.64 195.25 163.18 195.43 L 162.24 194.90 C 162.26 194.43 162.30 193.49 162.32 193.02 Z" />
</g>
<g id="#282b2cd1">
<path fill="#282b2c" opacity="0.82" d=" M 284.40 193.98 C 284.75 193.56 285.46 192.74 285.81 192.32 C 286.44 193.34 287.05 194.37 287.63 195.42 C 287.75 195.79 287.99 196.54 288.10 196.91 C 286.88 195.91 285.63 194.96 284.40 193.98 Z" />
</g>
<g id="#527f8eff">
<path fill="#527f8e" opacity="1.00" d=" M 237.82 196.81 C 239.04 195.74 240.38 194.80 241.87 194.12 C 241.92 194.51 242.01 195.30 242.06 195.69 C 241.51 197.72 239.31 197.35 237.82 196.81 Z" />
</g>
<g id="#282828ff">
<path fill="#282828" opacity="1.00" d=" M 298.16 197.15 C 300.66 196.82 302.89 195.53 305.16 194.50 C 306.02 195.60 306.89 196.70 307.74 197.81 C 307.99 198.13 308.49 198.78 308.73 199.10 C 304.46 199.21 300.25 200.05 296.04 200.71 C 295.63 201.43 294.81 202.86 294.39 203.58 C 292.12 203.97 289.87 204.43 287.59 204.73 C 287.48 204.33 287.27 203.52 287.16 203.11 C 288.45 203.14 289.75 203.18 291.05 203.21 C 290.24 201.27 289.42 199.33 288.59 197.40 C 288.90 197.14 289.52 196.62 289.83 196.36 C 292.60 196.64 295.36 197.32 298.16 197.15 Z" />
</g>
<g id="#faffffff">
<path fill="#faffff" opacity="1.00" d=" M 224.85 202.97 C 225.75 200.24 225.49 195.59 229.40 195.53 C 229.13 197.93 228.54 200.28 227.72 202.55 C 227.00 202.65 225.57 202.87 224.85 202.97 Z" />
</g>
<g id="#4c4c53ff">
<path fill="#4c4c53" opacity="1.00" d=" M 325.76 200.52 C 328.25 198.32 331.26 196.16 334.78 196.60 C 336.43 197.30 337.66 198.67 339.02 199.80 C 340.05 198.89 341.07 197.98 342.10 197.08 C 343.25 198.61 344.42 200.13 345.61 201.64 C 345.58 202.40 345.54 203.16 345.52 203.93 C 350.37 203.99 355.22 204.32 360.07 204.06 C 356.08 204.82 352.00 204.81 347.96 205.04 C 340.60 205.32 333.29 206.53 325.91 206.25 C 321.23 206.05 316.55 206.25 311.88 206.62 C 311.21 206.65 309.87 206.71 309.20 206.74 C 308.02 206.51 306.83 206.29 305.65 206.06 C 307.23 205.54 308.79 204.97 310.36 204.41 C 310.64 203.15 310.92 201.90 311.21 200.65 C 312.58 200.35 313.94 200.02 315.31 199.69 C 317.32 200.54 319.34 201.39 321.37 202.22 C 321.07 202.90 320.78 203.58 320.49 204.27 C 323.91 203.94 327.32 203.57 330.74 203.25 C 326.10 202.29 321.90 200.06 318.10 197.30 C 321.09 197.07 323.69 198.45 325.76 200.52 M 332.98 199.20 C 331.90 198.87 330.87 198.38 329.84 197.95 C 329.90 198.74 330.02 200.31 330.08 201.09 C 332.05 200.99 334.02 200.87 335.99 200.75 C 335.78 199.58 335.58 198.42 335.38 197.27 C 334.59 197.92 333.83 198.62 332.98 199.20 Z" />
</g>
<g id="#8e8e97ff">
<path fill="#8e8e97" opacity="1.00" d=" M 341.64 196.46 C 344.41 196.31 347.19 196.32 349.95 196.67 L 349.71 197.48 C 349.47 198.28 349.23 199.08 349.00 199.88 C 347.87 200.46 346.74 201.05 345.61 201.64 C 344.42 200.13 343.25 198.61 342.10 197.08 L 341.64 196.46 Z" />
</g>
<g id="#9d9fabfc">
<path fill="#9d9fab" opacity="1.00" d=" M 332.98 199.20 C 333.83 198.62 334.59 197.92 335.38 197.27 C 335.58 198.42 335.78 199.58 335.99 200.75 C 334.02 200.87 332.05 200.99 330.08 201.09 C 330.02 200.31 329.90 198.74 329.84 197.95 C 330.87 198.38 331.90 198.87 332.98 199.20 Z" />
</g>
<g id="#3f4045ff">
<path fill="#3f4045" opacity="1.00" d=" M 349.71 197.48 C 352.85 198.77 356.29 198.67 359.58 199.29 C 361.13 200.13 362.28 201.51 363.54 202.71 C 362.40 203.20 361.26 203.71 360.07 204.06 C 355.22 204.32 350.37 203.99 345.52 203.93 C 345.54 203.16 345.58 202.40 345.61 201.64 C 346.74 201.05 347.87 200.46 349.00 199.88 C 349.23 199.08 349.47 198.28 349.71 197.48 Z" />
</g>
<g id="#8c8c96ff">
<path fill="#8c8c96" opacity="1.00" d=" M 315.31 199.69 C 316.01 199.09 317.40 197.89 318.10 197.30 C 321.90 200.06 326.10 202.29 330.74 203.25 C 327.32 203.57 323.91 203.94 320.49 204.27 C 320.78 203.58 321.07 202.90 321.37 202.22 C 319.34 201.39 317.32 200.54 315.31 199.69 Z" />
</g>
<g id="#323132ff">
<path fill="#323132" opacity="1.00" d=" M 180.16 198.96 C 181.75 199.13 183.34 199.30 184.93 199.44 C 184.64 202.34 184.37 205.24 183.88 208.11 C 181.31 207.91 178.73 207.68 176.21 207.10 C 175.38 206.78 174.56 206.44 173.75 206.09 C 176.55 205.15 179.41 204.40 182.27 203.65 C 181.85 201.97 181.22 200.34 180.16 198.96 Z" />
</g>
<g id="#181818ff">
<path fill="#181818" opacity="1.00" d=" M 184.93 199.44 C 187.72 199.68 190.51 199.89 193.29 200.15 C 193.15 203.04 192.99 205.92 192.82 208.81 C 190.75 209.76 188.78 210.87 186.80 211.99 C 187.42 212.31 188.65 212.95 189.27 213.27 C 191.84 217.98 195.39 222.02 198.79 226.13 C 198.29 226.19 197.30 226.32 196.81 226.38 C 195.60 226.28 194.40 226.17 193.20 226.06 C 193.32 226.66 193.55 227.88 193.67 228.49 C 193.74 228.87 193.90 229.63 193.97 230.02 C 193.02 227.79 192.14 225.52 191.33 223.24 C 188.85 223.35 186.37 223.60 183.93 224.06 C 185.48 222.91 187.13 221.84 188.44 220.41 C 188.59 219.22 188.49 218.02 188.38 216.84 C 186.89 214.27 185.19 211.84 183.51 209.40 C 183.60 209.08 183.79 208.43 183.88 208.11 C 184.37 205.24 184.64 202.34 184.93 199.44 Z" />
</g>
<g id="#2a2b2bff">
<path fill="#2a2b2b" opacity="1.00" d=" M 205.10 198.98 C 209.01 200.48 212.62 202.63 216.01 205.06 C 214.36 204.82 212.70 204.62 211.04 204.42 C 210.76 205.40 210.49 206.39 210.22 207.38 C 208.85 207.18 207.49 206.98 206.13 206.77 C 205.75 206.61 204.97 206.27 204.59 206.10 C 204.75 203.72 204.92 201.35 205.10 198.98 Z" />
</g>
<g id="#919097fe">
<path fill="#919097" opacity="1.00" d=" M 296.04 200.71 C 300.25 200.05 304.46 199.21 308.73 199.10 C 309.35 199.49 310.59 200.26 311.21 200.65 C 310.92 201.90 310.64 203.15 310.36 204.41 C 308.79 204.97 307.23 205.54 305.65 206.06 C 302.31 205.77 298.96 205.30 295.83 204.07 C 300.90 204.19 305.96 203.41 310.76 201.79 C 305.98 200.39 300.97 200.34 296.04 200.71 Z" />
</g>
<g id="#202120f8">
<path fill="#202120" opacity="0.97" d=" M 271.72 201.65 C 276.63 201.22 281.53 200.58 286.46 200.50 L 286.69 201.31 C 284.56 201.42 282.43 201.53 280.32 201.81 C 277.95 202.41 275.64 203.22 273.34 204.05 C 275.04 204.23 276.74 204.38 278.45 204.52 C 278.10 205.82 277.75 207.11 277.45 208.42 L 277.28 209.25 L 276.53 209.08 C 275.58 208.16 274.66 207.20 273.75 206.25 C 273.08 206.96 272.42 207.66 271.76 208.38 C 267.10 207.30 262.30 206.67 257.53 207.29 C 253.79 207.62 250.17 208.66 246.60 209.76 C 246.28 209.86 245.66 210.05 245.34 210.15 C 242.79 210.20 240.24 210.12 237.69 210.19 C 244.58 209.27 251.89 208.35 257.34 203.59 C 261.65 204.96 266.04 206.16 270.53 206.80 C 270.92 205.08 271.32 203.36 271.72 201.65 Z" />
</g>
<g id="#52535aff">
<path fill="#52535a" opacity="1.00" d=" M 280.32 201.81 C 282.43 201.53 284.56 201.42 286.69 201.31 C 286.81 201.76 287.04 202.66 287.16 203.11 C 287.27 203.52 287.48 204.33 287.59 204.73 C 289.87 204.43 292.12 203.97 294.39 203.58 C 294.75 203.71 295.47 203.95 295.83 204.07 C 298.96 205.30 302.31 205.77 305.65 206.06 C 306.83 206.29 308.02 206.51 309.20 206.74 C 307.28 206.98 305.38 207.29 303.47 207.58 C 303.37 208.75 303.26 209.91 303.16 211.08 C 306.80 211.26 310.45 211.42 314.09 211.23 C 318.05 210.97 321.96 210.27 325.90 209.79 C 325.30 210.61 324.70 211.44 324.11 212.27 C 325.83 212.15 327.54 212.03 329.26 211.88 C 332.13 211.76 334.98 212.25 337.72 213.09 C 337.01 213.56 335.59 214.52 334.88 215.00 C 332.08 215.95 329.48 214.05 326.81 213.52 C 324.74 214.13 322.91 215.34 320.85 215.94 C 318.35 216.15 315.93 215.29 313.52 214.78 C 310.33 218.60 305.06 217.44 300.69 217.56 C 304.48 217.38 308.17 216.41 311.71 215.08 C 306.48 213.77 301.04 213.73 295.76 214.69 C 295.40 214.74 294.69 214.84 294.34 214.89 C 294.49 212.21 294.39 209.50 293.56 206.93 C 291.57 206.98 289.58 207.17 287.62 207.46 C 285.83 207.71 284.08 208.13 282.32 208.52 C 282.03 206.18 281.37 203.91 280.32 201.81 M 298.73 208.35 C 299.42 209.87 300.13 211.53 301.74 212.31 C 301.91 210.83 302.09 209.35 302.26 207.86 C 301.37 207.99 299.61 208.23 298.73 208.35 Z" />
</g>
<g id="#706f70ff">
<path fill="#706f70" opacity="1.00" d=" M 273.34 204.05 C 275.64 203.22 277.95 202.41 280.32 201.81 C 281.37 203.91 282.03 206.18 282.32 208.52 C 284.08 208.13 285.83 207.71 287.62 207.46 C 288.44 207.96 289.26 208.47 290.06 208.99 C 291.23 208.31 292.39 207.62 293.56 206.93 C 294.39 209.50 294.49 212.21 294.34 214.89 C 287.75 215.71 281.03 216.55 274.42 215.47 C 270.81 214.87 267.15 214.65 263.50 214.72 C 263.81 215.36 264.44 216.65 264.75 217.29 C 262.37 217.32 259.98 217.34 257.61 217.12 C 257.71 216.68 257.91 215.81 258.02 215.38 C 259.29 215.00 260.57 214.65 261.86 214.31 C 261.81 213.30 261.76 212.30 261.71 211.29 C 261.02 211.06 259.66 210.58 258.98 210.34 C 260.63 210.16 262.29 209.99 263.96 209.85 C 261.76 209.12 259.61 208.28 257.53 207.29 C 262.30 206.67 267.10 207.30 271.76 208.38 C 273.34 208.66 274.94 208.85 276.53 209.08 L 277.28 209.25 C 278.28 210.15 280.73 208.54 278.99 207.71 C 278.61 207.89 277.83 208.24 277.45 208.42 C 277.75 207.11 278.10 205.82 278.45 204.52 C 276.74 204.38 275.04 204.23 273.34 204.05 Z" />
</g>
<g id="#a5a8b6ff">
<path fill="#a5a8b6" opacity="1.00" d=" M 363.54 202.71 L 364.16 202.44 C 364.00 204.41 363.90 206.38 363.83 208.36 L 363.11 208.32 C 355.13 207.76 347.18 208.96 339.21 209.01 C 334.77 209.20 330.32 209.29 325.90 209.79 C 321.96 210.27 318.05 210.97 314.09 211.23 C 313.35 209.69 312.61 208.15 311.88 206.62 C 316.55 206.25 321.23 206.05 325.91 206.25 C 333.29 206.53 340.60 205.32 347.96 205.04 C 352.00 204.81 356.08 204.82 360.07 204.06 C 361.26 203.71 362.40 203.20 363.54 202.71 M 315.80 207.13 C 316.90 208.46 318.08 209.77 319.66 210.55 C 320.12 209.38 320.58 208.22 321.03 207.05 C 319.28 207.06 317.54 207.08 315.80 207.13 Z" />
</g>
<g id="#5c5a5cff">
<path fill="#5c5a5c" opacity="1.00" d=" M 195.83 207.94 C 196.15 206.12 196.49 204.30 196.84 202.49 C 199.44 203.66 202.01 204.89 204.59 206.10 C 204.97 206.27 205.75 206.61 206.13 206.77 C 202.68 206.95 199.23 207.32 195.83 207.94 Z" />
</g>
<g id="#121313ff">
<path fill="#121313" opacity="1.00" d=" M 211.04 204.42 C 212.70 204.62 214.36 204.82 216.01 205.06 C 219.55 205.75 223.20 205.83 226.73 205.01 C 227.84 204.78 228.96 204.52 230.07 204.24 C 229.81 206.25 229.54 208.26 229.28 210.27 C 230.47 210.30 231.66 210.33 232.85 210.35 C 232.94 211.87 233.03 213.39 233.17 214.91 L 233.28 215.89 C 232.81 215.93 231.88 216.03 231.42 216.07 C 231.15 214.67 230.89 213.28 230.63 211.89 C 228.31 211.94 225.99 212.02 223.68 212.11 C 223.31 213.45 222.94 214.79 222.58 216.14 C 218.57 218.85 214.84 222.01 210.46 224.15 C 210.07 224.33 209.29 224.69 208.90 224.87 C 208.12 220.41 209.21 215.98 210.94 211.88 C 212.05 213.28 213.11 214.72 214.21 216.14 C 214.25 214.65 214.38 213.15 214.20 211.67 C 213.17 210.00 211.60 208.74 210.22 207.38 C 210.49 206.39 210.76 205.40 211.04 204.42 Z" />
</g>
<g id="#4a8190f3">
<path fill="#4a8190" opacity="0.95" d=" M 171.82 207.05 C 172.30 206.81 173.27 206.33 173.75 206.09 C 174.56 206.44 175.38 206.78 176.21 207.10 C 175.05 208.42 173.76 209.67 172.88 211.21 C 171.55 214.97 172.83 219.50 175.82 222.11 C 177.97 223.62 180.69 223.91 183.16 224.62 C 180.41 224.68 177.38 225.31 174.88 223.81 C 172.68 221.64 170.51 219.05 170.23 215.84 C 170.04 212.83 171.05 209.92 171.82 207.05 Z" />
</g>
<g id="#7e7d82ff">
<path fill="#7e7d82" opacity="1.00" d=" M 271.76 208.38 C 272.42 207.66 273.08 206.96 273.75 206.25 C 274.66 207.20 275.58 208.16 276.53 209.08 C 274.94 208.85 273.34 208.66 271.76 208.38 Z" />
</g>
<g id="#ababb3ff">
<path fill="#ababb3" opacity="1.00" d=" M 287.62 207.46 C 289.58 207.17 291.57 206.98 293.56 206.93 C 292.39 207.62 291.23 208.31 290.06 208.99 C 289.26 208.47 288.44 207.96 287.62 207.46 Z" />
</g>
<g id="#151515ff">
<path fill="#151515" opacity="1.00" d=" M 166.17 209.03 C 168.04 208.33 169.94 207.72 171.82 207.05 C 171.05 209.92 170.04 212.83 170.23 215.84 C 170.51 219.05 172.68 221.64 174.88 223.81 C 168.43 223.51 161.95 224.06 155.54 223.23 C 153.20 223.00 151.06 221.98 149.04 220.85 C 154.73 221.13 160.21 223.25 165.96 222.66 C 166.32 222.66 167.04 222.68 167.39 222.68 C 165.25 221.04 162.86 219.63 161.10 217.54 C 159.72 215.10 161.77 212.51 162.91 210.40 C 163.98 209.91 165.07 209.46 166.17 209.03 Z" />
</g>
<g id="#5390a0ff">
<path fill="#5390a0" opacity="1.00" d=" M 195.83 207.94 C 199.23 207.32 202.68 206.95 206.13 206.77 C 207.49 206.98 208.85 207.18 210.22 207.38 C 211.60 208.74 213.17 210.00 214.20 211.67 C 214.38 213.15 214.25 214.65 214.21 216.14 C 213.11 214.72 212.05 213.28 210.94 211.88 C 209.64 210.44 207.93 209.49 206.10 208.92 C 204.85 208.92 203.60 208.97 202.35 209.05 C 199.70 209.56 197.10 210.35 194.56 211.26 C 193.99 211.47 192.85 211.90 192.28 212.11 C 191.28 212.49 190.27 212.88 189.27 213.27 C 188.65 212.95 187.42 212.31 186.80 211.99 C 188.78 210.87 190.75 209.76 192.82 208.81 C 193.81 208.48 194.81 208.19 195.83 207.94 Z" />
</g>
<g id="#41434aff">
<path fill="#41434a" opacity="1.00" d=" M 246.60 209.76 C 250.17 208.66 253.79 207.62 257.53 207.29 C 259.61 208.28 261.76 209.12 263.96 209.85 C 262.29 209.99 260.63 210.16 258.98 210.34 C 258.66 212.02 258.36 213.70 258.02 215.38 C 257.91 215.81 257.71 216.68 257.61 217.12 C 256.33 216.66 255.07 216.14 253.81 215.63 C 254.13 214.05 254.44 212.47 254.76 210.89 C 252.26 211.33 249.75 211.76 247.25 212.19 C 247.00 211.38 246.80 210.57 246.60 209.76 Z" />
</g>
<g id="#b1b3c1ff">
<path fill="#b1b3c1" opacity="1.00" d=" M 303.47 207.58 C 305.38 207.29 307.28 206.98 309.20 206.74 C 309.87 206.71 311.21 206.65 311.88 206.62 C 312.61 208.15 313.35 209.69 314.09 211.23 C 310.45 211.42 306.80 211.26 303.16 211.08 C 303.26 209.91 303.37 208.75 303.47 207.58 Z" />
</g>
<g id="#bbbdcbff">
<path fill="#bbbdcb" opacity="1.00" d=" M 315.80 207.13 C 317.54 207.08 319.28 207.06 321.03 207.05 C 320.58 208.22 320.12 209.38 319.66 210.55 C 318.08 209.77 316.90 208.46 315.80 207.13 Z" />
</g>
<g id="#3b3c3eff">
<path fill="#3b3c3e" opacity="1.00" d=" M 157.15 209.37 C 160.06 208.39 163.17 208.80 166.17 209.03 C 165.07 209.46 163.98 209.91 162.91 210.40 C 160.05 211.77 156.99 212.69 153.85 213.07 C 153.62 214.73 153.03 216.48 153.62 218.13 C 157.51 220.17 161.86 221.12 165.96 222.66 C 160.21 223.25 154.73 221.13 149.04 220.85 C 148.42 220.81 147.18 220.73 146.56 220.70 C 146.52 217.30 147.09 213.93 148.39 210.78 C 151.38 210.93 154.32 210.31 157.15 209.37 M 147.67 215.20 C 147.96 216.47 148.39 217.70 148.96 218.89 C 149.54 216.84 149.94 214.75 150.19 212.64 C 149.32 213.46 148.48 214.31 147.67 215.20 Z" />
</g>
<g id="#4b4a4bff">
<path fill="#4b4a4b" opacity="1.00" d=" M 172.88 211.21 C 173.76 209.67 175.05 208.42 176.21 207.10 C 178.73 207.68 181.31 207.91 183.88 208.11 C 183.79 208.43 183.60 209.08 183.51 209.40 C 180.76 210.79 176.86 212.05 177.05 215.85 C 177.95 217.62 179.54 218.89 180.91 220.28 C 183.38 219.10 185.87 217.95 188.38 216.84 C 188.49 218.02 188.59 219.22 188.44 220.41 C 187.13 221.84 185.48 222.91 183.93 224.06 L 183.16 224.62 C 180.69 223.91 177.97 223.62 175.82 222.11 C 172.83 219.50 171.55 214.97 172.88 211.21 Z" />
</g>
<g id="#949094ff">
<path fill="#949094" opacity="1.00" d=" M 277.45 208.42 C 277.83 208.24 278.61 207.89 278.99 207.71 C 280.73 208.54 278.28 210.15 277.28 209.25 L 277.45 208.42 Z" />
</g>
<g id="#9495a0ff">
<path fill="#9495a0" opacity="1.00" d=" M 298.73 208.35 C 299.61 208.23 301.37 207.99 302.26 207.86 C 302.09 209.35 301.91 210.83 301.74 212.31 C 300.13 211.53 299.42 209.87 298.73 208.35 Z" />
</g>
<g id="#3c3d44fe">
<path fill="#3c3d44" opacity="1.00" d=" M 339.21 209.01 C 347.18 208.96 355.13 207.76 363.11 208.32 C 359.71 209.79 356.13 211.06 352.38 211.06 C 348.92 211.00 345.15 210.76 342.41 213.30 C 340.89 212.76 339.28 212.65 337.72 213.09 C 334.98 212.25 332.13 211.76 329.26 211.88 C 332.48 210.63 335.71 209.19 339.21 209.01 Z" />
</g>
<g id="#646264ff">
<path fill="#646264" opacity="1.00" d=" M 194.56 211.26 C 197.10 210.35 199.70 209.56 202.35 209.05 C 202.56 211.17 203.00 213.34 202.42 215.44 C 199.00 217.31 196.51 213.45 194.56 211.26 Z" />
</g>
<g id="#4b494aff">
<path fill="#4b494a" opacity="1.00" d=" M 202.35 209.05 C 203.60 208.97 204.85 208.92 206.10 208.92 C 205.86 212.46 206.18 216.31 204.32 219.50 C 201.82 220.38 199.08 219.52 196.95 218.13 C 194.81 216.65 193.65 214.23 192.28 212.11 C 192.85 211.90 193.99 211.47 194.56 211.26 C 196.51 213.45 199.00 217.31 202.42 215.44 C 203.00 213.34 202.56 211.17 202.35 209.05 Z" />
</g>
<g id="#282728ff">
<path fill="#282728" opacity="1.00" d=" M 206.10 208.92 C 207.93 209.49 209.64 210.44 210.94 211.88 C 209.21 215.98 208.12 220.41 208.90 224.87 C 205.16 226.77 200.90 227.11 196.81 226.38 C 197.30 226.32 198.29 226.19 198.79 226.13 C 195.39 222.02 191.84 217.98 189.27 213.27 C 190.27 212.88 191.28 212.49 192.28 212.11 C 193.65 214.23 194.81 216.65 196.95 218.13 C 199.08 219.52 201.82 220.38 204.32 219.50 C 206.18 216.31 205.86 212.46 206.10 208.92 Z" />
</g>
<g id="#6a6b74fe">
<path fill="#6a6b74" opacity="1.00" d=" M 325.90 209.79 C 330.32 209.29 334.77 209.20 339.21 209.01 C 335.71 209.19 332.48 210.63 329.26 211.88 C 327.54 212.03 325.83 212.15 324.11 212.27 C 324.70 211.44 325.30 210.61 325.90 209.79 Z" />
</g>
<g id="#676466ff">
<path fill="#676466" opacity="1.00" d=" M 153.85 213.07 C 156.99 212.69 160.05 211.77 162.91 210.40 C 161.77 212.51 159.72 215.10 161.10 217.54 C 162.86 219.63 165.25 221.04 167.39 222.68 C 167.04 222.68 166.32 222.66 165.96 222.66 C 161.86 221.12 157.51 220.17 153.62 218.13 C 153.03 216.48 153.62 214.73 153.85 213.07 Z" />
</g>
<g id="#605e60ff">
<path fill="#605e60" opacity="1.00" d=" M 177.05 215.85 C 176.86 212.05 180.76 210.79 183.51 209.40 C 185.19 211.84 186.89 214.27 188.38 216.84 C 185.87 217.95 183.38 219.10 180.91 220.28 C 179.54 218.89 177.95 217.62 177.05 215.85 Z" />
</g>
<g id="#9698a4ee">
<path fill="#9698a4" opacity="0.93" d=" M 232.85 210.35 C 234.46 210.34 236.07 210.27 237.69 210.19 C 240.24 210.12 242.79 210.20 245.34 210.15 C 244.98 210.45 244.26 211.04 243.89 211.33 C 240.30 211.11 235.58 209.40 233.20 213.09 C 236.11 213.24 239.02 213.22 241.93 212.96 C 240.88 213.75 239.81 214.51 238.75 215.27 C 236.89 215.05 235.03 214.98 233.17 214.91 C 233.03 213.39 232.94 211.87 232.85 210.35 Z" />
</g>
<g id="#6c6e78ff">
<path fill="#6c6e78" opacity="1.00" d=" M 245.34 210.15 C 245.66 210.05 246.28 209.86 246.60 209.76 C 246.80 210.57 247.00 211.38 247.25 212.19 C 247.41 212.45 247.73 212.98 247.90 213.24 C 246.81 214.42 245.76 215.62 244.74 216.85 C 243.93 216.89 243.13 216.93 242.33 216.95 C 241.14 216.36 239.96 215.78 238.75 215.27 C 239.81 214.51 240.88 213.75 241.93 212.96 C 242.42 212.55 243.40 211.74 243.89 211.33 C 244.26 211.04 244.98 210.45 245.34 210.15 Z" />
</g>
<g id="#3a6e7bc5">
<path fill="#3a6e7b" opacity="0.77" d=" M 144.33 216.11 C 144.45 213.64 146.79 212.31 148.39 210.78 C 147.09 213.93 146.52 217.30 146.56 220.70 C 145.72 219.24 144.18 217.92 144.33 216.11 Z" />
</g>
<g id="#eceffaff">
<path fill="#eceffa" opacity="1.00" d=" M 233.20 213.09 C 235.58 209.40 240.30 211.11 243.89 211.33 C 243.40 211.74 242.42 212.55 241.93 212.96 C 239.02 213.22 236.11 213.24 233.20 213.09 Z" />
</g>
<g id="#b1b1baff">
<path fill="#b1b1ba" opacity="1.00" d=" M 247.25 212.19 C 249.75 211.76 252.26 211.33 254.76 210.89 C 254.44 212.47 254.13 214.05 253.81 215.63 C 251.84 214.83 249.85 214.08 247.90 213.24 C 247.73 212.98 247.41 212.45 247.25 212.19 Z" />
</g>
<g id="#9c9facff">
<path fill="#9c9fac" opacity="1.00" d=" M 258.02 215.38 C 258.36 213.70 258.66 212.02 258.98 210.34 C 259.66 210.58 261.02 211.06 261.71 211.29 C 261.76 212.30 261.81 213.30 261.86 214.31 C 260.57 214.65 259.29 215.00 258.02 215.38 Z" />
</g>
<g id="#56565dfc">
<path fill="#56565d" opacity="1.00" d=" M 342.41 213.30 C 345.15 210.76 348.92 211.00 352.38 211.06 C 351.50 212.01 350.70 213.06 349.62 213.79 C 347.29 214.91 344.70 214.04 342.41 213.30 Z" />
</g>
<g id="#a6aabaff">
<path fill="#a6aaba" opacity="1.00" d=" M 223.68 212.11 C 225.99 212.02 228.31 211.94 230.63 211.89 C 230.89 213.28 231.15 214.67 231.42 216.07 C 228.48 216.43 225.52 216.39 222.58 216.14 C 222.94 214.79 223.31 213.45 223.68 212.11 Z" />
</g>
<g id="#4d5e66ff">
<path fill="#4d5e66" opacity="1.00" d=" M 147.67 215.20 C 148.48 214.31 149.32 213.46 150.19 212.64 C 149.94 214.75 149.54 216.84 148.96 218.89 C 148.39 217.70 147.96 216.47 147.67 215.20 Z" />
</g>
<g id="#f7f5f9fd">
<path fill="#f7f5f9" opacity="1.00" d=" M 295.76 214.69 C 301.04 213.73 306.48 213.77 311.71 215.08 C 308.17 216.41 304.48 217.38 300.69 217.56 C 299.32 217.61 297.95 217.53 296.58 217.45 C 296.38 216.76 295.96 215.38 295.76 214.69 Z" />
</g>
<g id="#252526ff">
<path fill="#252526" opacity="1.00" d=" M 244.74 216.85 C 245.76 215.62 246.81 214.42 247.90 213.24 C 249.85 214.08 251.84 214.83 253.81 215.63 C 255.07 216.14 256.33 216.66 257.61 217.12 C 259.98 217.34 262.37 217.32 264.75 217.29 C 264.44 216.65 263.81 215.36 263.50 214.72 C 267.15 214.65 270.81 214.87 274.42 215.47 C 281.03 216.55 287.75 215.71 294.34 214.89 C 294.69 214.84 295.40 214.74 295.76 214.69 C 295.96 215.38 296.38 216.76 296.58 217.45 C 295.18 216.84 293.78 216.01 292.20 216.13 C 286.90 216.24 281.62 216.79 276.33 217.17 C 274.15 217.38 272.20 216.22 270.13 215.82 C 268.27 216.11 266.57 216.97 264.79 217.52 C 261.65 218.63 258.27 218.42 255.02 218.97 C 252.40 219.34 249.96 220.45 247.56 221.51 C 246.71 219.90 245.73 218.37 244.74 216.85 Z" />
</g>
<g id="#4c4c4cff">
<path fill="#4c4c4c" opacity="1.00" d=" M 233.17 214.91 C 235.03 214.98 236.89 215.05 238.75 215.27 C 239.96 215.78 241.14 216.36 242.33 216.95 C 243.92 219.39 245.71 221.71 248.00 223.55 C 246.63 224.48 245.26 225.42 243.88 226.34 C 242.06 223.09 240.19 219.86 237.97 216.86 L 237.45 216.26 C 236.06 216.09 234.67 215.98 233.28 215.89 L 233.17 214.91 Z" />
</g>
<g id="#5c818dfe">
<path fill="#5c818d" opacity="1.00" d=" M 242.33 216.95 C 243.13 216.93 243.93 216.89 244.74 216.85 C 245.73 218.37 246.71 219.90 247.56 221.51 C 247.67 222.02 247.89 223.04 248.00 223.55 C 245.71 221.71 243.92 219.39 242.33 216.95 Z" />
</g>
<g id="#5a96a7fa">
<path fill="#5a96a7" opacity="0.98" d=" M 236.67 219.00 C 237.00 218.47 237.65 217.40 237.97 216.86 C 240.19 219.86 242.06 223.09 243.88 226.34 C 241.84 224.80 239.82 223.19 238.22 221.19 C 237.83 220.65 237.06 219.55 236.67 219.00 Z" />
</g>
<g id="#343334ff">
<path fill="#343334" opacity="1.00" d=" M 217.04 230.31 C 223.33 226.12 229.98 222.51 236.67 219.00 C 237.06 219.55 237.83 220.65 238.22 221.19 C 233.61 225.47 228.27 228.79 223.00 232.16 C 222.33 231.23 221.62 230.32 220.87 229.45 C 220.49 229.52 219.74 229.65 219.36 229.72 C 218.78 229.87 217.62 230.16 217.04 230.31 Z" />
</g>
<g id="#615f61ff">
<path fill="#615f61" opacity="1.00" d=" M 238.22 221.19 C 239.82 223.19 241.84 224.80 243.88 226.34 C 237.23 228.98 232.79 234.87 227.31 239.20 C 225.90 236.84 224.54 234.45 223.00 232.16 C 228.27 228.79 233.61 225.47 238.22 221.19 Z" />
</g>
<g id="#3f8091fb">
<path fill="#3f8091" opacity="1.00" d=" M 208.90 224.87 C 209.29 224.69 210.07 224.33 210.46 224.15 C 210.53 224.56 210.66 225.40 210.73 225.82 C 205.67 229.15 199.47 229.34 193.67 228.49 C 193.55 227.88 193.32 226.66 193.20 226.06 C 194.40 226.17 195.60 226.28 196.81 226.38 C 200.90 227.11 205.16 226.77 208.90 224.87 Z" />
</g>
<g id="#272728ff">
<path fill="#272728" opacity="1.00" d=" M 193.67 228.49 C 199.47 229.34 205.67 229.15 210.73 225.82 C 211.74 228.07 213.27 230.03 214.94 231.83 C 213.79 233.85 212.86 236.00 211.59 237.95 C 207.79 240.13 203.55 241.31 199.30 242.25 C 199.41 242.89 199.62 244.18 199.73 244.82 C 196.92 240.28 194.94 235.27 193.97 230.02 C 193.90 229.63 193.74 228.87 193.67 228.49 Z" />
</g>
<g id="#68b4c7fa">
<path fill="#68b4c7" opacity="0.98" d=" M 219.36 229.72 C 219.74 229.65 220.49 229.52 220.87 229.45 C 221.62 230.32 222.33 231.23 223.00 232.16 C 224.54 234.45 225.90 236.84 227.31 239.20 L 227.65 239.78 C 227.24 240.11 226.41 240.78 225.99 241.11 C 225.28 240.11 224.57 239.11 223.88 238.11 C 222.92 236.67 222.01 235.21 221.19 233.70 C 220.54 232.38 219.95 231.05 219.36 229.72 Z" />
</g>
<g id="#4f4f50ff">
<path fill="#4f4f50" opacity="1.00" d=" M 217.04 230.31 C 217.62 230.16 218.78 229.87 219.36 229.72 C 219.95 231.05 220.54 232.38 221.19 233.70 C 218.48 235.79 215.36 237.71 213.78 240.87 C 214.68 242.16 215.72 243.33 216.74 244.53 C 219.15 242.42 221.54 240.29 223.88 238.11 C 224.57 239.11 225.28 240.11 225.99 241.11 C 224.00 243.13 221.93 245.06 219.84 246.97 C 217.38 246.59 214.92 246.25 212.45 246.05 C 211.30 246.82 210.18 247.67 208.91 248.23 C 206.37 247.84 204.15 246.42 201.91 245.26 C 201.61 245.09 201.01 244.74 200.70 244.57 C 204.94 243.65 209.46 242.05 211.59 237.95 C 212.86 236.00 213.79 233.85 214.94 231.83 C 215.47 231.45 216.52 230.69 217.04 230.31 Z" />
</g>
<g id="#817e81ff">
<path fill="#817e81" opacity="1.00" d=" M 221.19 233.70 C 222.01 235.21 222.92 236.67 223.88 238.11 C 221.54 240.29 219.15 242.42 216.74 244.53 C 215.72 243.33 214.68 242.16 213.78 240.87 C 215.36 237.71 218.48 235.79 221.19 233.70 Z" />
</g>
<g id="#5998a9ff">
<path fill="#5998a9" opacity="1.00" d=" M 199.30 242.25 C 203.55 241.31 207.79 240.13 211.59 237.95 C 209.46 242.05 204.94 243.65 200.70 244.57 L 199.73 244.82 C 199.62 244.18 199.41 242.89 199.30 242.25 Z" />
</g>
<g id="#292929fe">
<path fill="#292929" opacity="1.00" d=" M 201.91 245.26 C 204.15 246.42 206.37 247.84 208.91 248.23 C 210.18 247.67 211.30 246.82 212.45 246.05 C 214.92 246.25 217.38 246.59 219.84 246.97 C 216.67 250.32 212.02 252.54 207.35 251.57 C 204.33 250.88 202.95 247.86 201.91 245.26 Z" />
</g>
</svg>
