<?xml version="1.0" encoding="UTF-8" ?>
<!DOCTYPE svg PUBLIC "-//W3C//DTD SVG 1.1//EN" "http://www.w3.org/Graphics/SVG/1.1/DTD/svg11.dtd">
<svg width="384pt" height="384pt" viewBox="0 0 384 384" version="1.1" xmlns="http://www.w3.org/2000/svg">
<g id="#222223ff">
<path fill="#222223" opacity="1.00" d=" M 230.04 151.46 C 238.86 150.33 247.28 147.03 256.18 146.42 C 258.27 146.24 260.28 146.93 262.24 147.54 C 260.53 147.44 258.83 147.40 257.13 147.45 C 253.07 148.02 249.12 149.18 245.12 150.07 C 244.10 150.28 243.08 150.47 242.06 150.64 C 239.84 150.92 237.61 151.07 235.38 151.22 C 235.77 151.35 236.54 151.62 236.92 151.76 C 237.89 153.22 238.81 154.72 239.75 156.21 C 240.68 157.89 241.57 159.59 242.41 161.32 L 242.63 162.11 C 237.93 162.93 232.84 163.25 228.75 160.36 C 228.51 159.02 228.27 157.67 228.03 156.34 C 230.90 156.82 233.77 157.21 236.66 157.55 C 234.57 155.39 232.38 153.34 230.04 151.46 Z" />
</g>
<g id="#4e5c61f8">
<path fill="#4e5c61" opacity="0.97" d=" M 245.12 150.07 C 249.12 149.18 253.07 148.02 257.13 147.45 C 256.24 148.97 255.21 150.44 254.67 152.13 C 254.81 153.58 255.47 154.90 256.07 156.19 C 258.11 157.38 260.22 158.44 262.31 159.52 L 262.97 159.86 C 260.20 159.66 257.28 159.87 254.70 158.67 C 254.27 158.48 253.41 158.09 252.99 157.89 C 252.42 155.21 251.46 152.63 250.14 150.23 C 249.91 152.56 249.78 154.90 249.64 157.23 C 248.16 154.83 246.64 152.45 245.12 150.07 Z" />
</g>
<g id="#363738fe">
<path fill="#363738" opacity="1.00" d=" M 257.13 147.45 C 258.83 147.40 260.53 147.44 262.24 147.54 C 264.48 148.93 265.38 151.55 266.61 153.75 C 264.18 152.62 261.78 151.39 259.20 150.67 C 258.02 152.43 257.03 154.31 256.07 156.19 C 255.47 154.90 254.81 153.58 254.67 152.13 C 255.21 150.44 256.24 148.97 257.13 147.45 Z" />
</g>
<g id="#1f1e1fff">
<path fill="#1f1e1f" opacity="1.00" d=" M 202.69 153.77 C 206.02 152.43 209.29 150.43 212.99 150.46 C 215.96 150.66 218.90 151.39 221.67 152.46 C 222.00 152.65 222.66 153.02 222.99 153.21 C 225.63 155.81 227.02 159.35 227.26 163.02 C 226.83 162.92 225.96 162.73 225.52 162.64 C 222.78 160.57 220.27 158.01 216.92 156.96 C 213.59 155.86 210.05 156.46 206.67 156.95 C 205.39 155.84 204.04 154.81 202.69 153.77 Z" />
</g>
<g id="#3c3c3dff">
<path fill="#3c3c3d" opacity="1.00" d=" M 242.06 150.64 C 243.08 150.47 244.10 150.28 245.12 150.07 C 246.64 152.45 248.16 154.83 249.64 157.23 C 249.78 154.90 249.91 152.56 250.14 150.23 C 251.46 152.63 252.42 155.21 252.99 157.89 C 253.41 158.09 254.27 158.48 254.70 158.67 L 255.33 158.95 C 252.27 159.27 249.21 159.57 246.20 160.22 L 245.71 159.79 C 244.51 156.73 243.48 153.60 242.06 150.64 Z" />
</g>
<g id="#373e42ff">
<path fill="#373e42" opacity="1.00" d=" M 221.67 152.46 C 222.36 151.92 223.08 151.42 223.83 150.95 C 225.52 152.22 227.13 153.60 228.73 154.98 C 228.98 153.66 229.24 152.34 229.51 151.02 L 230.04 151.46 C 232.38 153.34 234.57 155.39 236.66 157.55 C 233.77 157.21 230.90 156.82 228.03 156.34 C 226.37 155.26 224.70 154.20 222.99 153.21 C 222.66 153.02 222.00 152.65 221.67 152.46 Z" />
</g>
<g id="#437d8dfb">
<path fill="#437d8d" opacity="1.00" d=" M 223.83 150.95 C 225.72 150.96 227.61 150.96 229.51 151.02 C 229.24 152.34 228.98 153.66 228.73 154.98 C 227.13 153.60 225.52 152.22 223.83 150.95 Z" />
</g>
<g id="#5d5c5eff">
<path fill="#5d5c5e" opacity="1.00" d=" M 235.38 151.22 C 237.61 151.07 239.84 150.92 242.06 150.64 C 243.48 153.60 244.51 156.73 245.71 159.79 L 246.20 160.22 C 247.26 161.05 248.39 161.78 249.48 162.56 C 251.21 163.78 252.87 165.11 254.75 166.11 C 257.60 167.57 260.84 168.01 263.77 169.26 C 265.93 170.20 267.47 172.05 269.09 173.68 C 266.05 172.48 263.07 171.12 260.12 169.71 C 259.10 170.56 258.11 171.41 257.13 172.29 C 259.92 174.84 262.89 177.20 266.05 179.28 C 265.33 180.70 264.64 182.15 264.01 183.61 C 262.00 182.13 259.80 180.86 258.02 179.07 C 256.20 177.08 255.15 174.55 253.94 172.18 C 252.53 172.61 251.12 173.05 249.71 173.48 C 248.26 173.20 246.82 172.92 245.38 172.66 C 245.90 168.16 245.76 163.44 243.20 159.53 C 243.00 159.98 242.61 160.88 242.41 161.32 C 241.57 159.59 240.68 157.89 239.75 156.21 C 240.52 157.22 241.31 158.21 242.12 159.19 C 241.91 157.44 241.81 155.64 241.27 153.95 C 240.25 152.60 238.34 152.51 236.92 151.76 C 236.54 151.62 235.77 151.35 235.38 151.22 Z" />
</g>
<g id="#555355ff">
<path fill="#555355" opacity="1.00" d=" M 256.07 156.19 C 257.03 154.31 258.02 152.43 259.20 150.67 C 261.78 151.39 264.18 152.62 266.61 153.75 C 266.33 155.02 266.05 156.29 265.78 157.56 C 264.62 158.21 263.46 158.86 262.31 159.52 C 260.22 158.44 258.11 157.38 256.07 156.19 Z" />
</g>
<g id="#747173ff">
<path fill="#747173" opacity="1.00" d=" M 236.92 151.76 C 238.34 152.51 240.25 152.60 241.27 153.95 C 241.81 155.64 241.91 157.44 242.12 159.19 C 241.31 158.21 240.52 157.22 239.75 156.21 C 238.81 154.72 237.89 153.22 236.92 151.76 Z" />
</g>
<g id="#62a0aeff">
<path fill="#62a0ae" opacity="1.00" d=" M 222.99 153.21 C 224.70 154.20 226.37 155.26 228.03 156.34 C 228.27 157.67 228.51 159.02 228.75 160.36 C 229.16 162.59 229.57 164.82 229.84 167.08 C 229.95 168.40 230.06 169.73 230.16 171.06 C 229.25 168.65 227.82 166.50 226.26 164.46 L 225.79 163.76 C 226.15 163.58 226.89 163.21 227.26 163.02 C 227.02 159.35 225.63 155.81 222.99 153.21 Z" />
</g>
<g id="#6095a5ff">
<path fill="#6095a5" opacity="1.00" d=" M 202.69 153.77 C 204.04 154.81 205.39 155.84 206.67 156.95 C 207.35 157.72 208.01 158.51 208.64 159.33 C 209.29 161.41 209.73 163.55 210.14 165.69 C 207.59 163.62 205.53 160.98 204.32 157.93 C 203.85 156.82 203.41 155.70 202.99 154.57 L 202.69 153.77 Z" />
</g>
<g id="#171716ff">
<path fill="#171716" opacity="1.00" d=" M 190.67 164.39 C 192.68 159.09 198.14 156.63 202.99 154.57 C 203.41 155.70 203.85 156.82 204.32 157.93 C 203.02 159.71 201.90 161.72 200.09 163.04 C 197.18 164.45 193.82 164.21 190.67 164.39 Z" />
</g>
<g id="#3f3e40ff">
<path fill="#3f3e40" opacity="1.00" d=" M 206.67 156.95 C 210.05 156.46 213.59 155.86 216.92 156.96 C 220.27 158.01 222.78 160.57 225.52 162.64 C 219.87 161.64 214.34 160.05 208.64 159.33 C 208.01 158.51 207.35 157.72 206.67 156.95 Z" />
</g>
<g id="#454349ff">
<path fill="#454349" opacity="1.00" d=" M 200.09 163.04 C 201.90 161.72 203.02 159.71 204.32 157.93 C 205.53 160.98 207.59 163.62 210.14 165.69 C 214.00 167.40 218.32 166.86 222.16 165.38 C 222.42 165.71 222.92 166.35 223.18 166.67 C 222.85 168.98 222.68 171.43 221.55 173.52 C 219.10 176.17 215.30 177.55 213.75 180.99 C 212.37 183.67 211.73 187.36 213.99 189.76 C 216.14 191.51 218.85 192.38 221.06 194.04 C 222.18 195.53 222.56 197.40 223.15 199.13 C 221.98 201.02 220.91 202.98 219.85 204.94 C 221.95 205.09 224.05 205.26 226.16 205.32 C 222.53 205.92 218.83 206.37 215.15 206.01 C 213.07 204.42 211.17 202.62 209.26 200.84 C 211.39 200.48 213.52 200.08 215.66 199.72 C 213.89 198.62 212.18 197.36 210.18 196.72 C 208.68 197.47 207.34 198.50 205.98 199.48 C 203.91 198.37 201.84 197.27 199.76 196.19 C 199.29 197.51 198.84 198.83 198.36 200.14 C 194.61 199.52 190.81 199.88 187.03 199.90 C 180.26 199.43 173.68 197.73 167.14 196.05 C 166.58 195.91 165.45 195.65 164.89 195.52 C 164.91 194.70 164.95 193.07 164.97 192.25 C 171.36 192.22 177.76 192.38 184.11 191.58 C 187.35 191.31 190.59 191.16 193.83 190.96 C 194.24 191.84 194.65 192.72 195.08 193.60 C 197.95 193.28 200.82 193.02 203.69 192.79 C 202.74 190.07 201.23 187.22 202.04 184.27 C 202.94 180.92 205.72 178.61 208.04 176.22 C 206.48 174.98 205.04 173.47 203.13 172.80 C 200.74 172.52 198.37 172.99 195.99 173.13 C 191.75 173.10 187.60 172.15 183.42 171.55 C 177.95 170.73 172.43 170.39 166.93 169.84 C 166.86 169.25 166.71 168.07 166.63 167.48 C 174.41 165.04 182.56 164.34 190.67 164.39 C 193.82 164.21 197.18 164.45 200.09 163.04 Z" />
</g>
<g id="#5a595eff">
<path fill="#5a595e" opacity="1.00" d=" M 208.64 159.33 C 214.34 160.05 219.87 161.64 225.52 162.64 C 225.96 162.73 226.83 162.92 227.26 163.02 C 226.89 163.21 226.15 163.58 225.79 163.76 C 224.59 164.33 223.39 164.89 222.16 165.38 C 218.32 166.86 214.00 167.40 210.14 165.69 C 209.73 163.55 209.29 161.41 208.64 159.33 Z" />
</g>
<g id="#403f42ff">
<path fill="#403f42" opacity="1.00" d=" M 228.75 160.36 C 232.84 163.25 237.93 162.93 242.63 162.11 C 243.71 165.41 243.84 168.91 243.58 172.35 C 244.03 172.42 244.93 172.58 245.38 172.66 C 246.82 172.92 248.26 173.20 249.71 173.48 C 249.30 174.96 248.91 176.43 248.48 177.90 C 248.07 179.25 247.63 180.58 247.17 181.91 C 245.35 180.79 243.54 179.67 241.71 178.57 C 241.74 178.14 241.78 177.30 241.81 176.88 C 242.02 175.27 241.62 173.34 240.07 172.51 C 236.92 170.25 233.45 168.47 229.84 167.08 C 229.57 164.82 229.16 162.59 228.75 160.36 Z" />
</g>
<g id="#538492ff">
<path fill="#538492" opacity="1.00" d=" M 242.41 161.32 C 242.61 160.88 243.00 159.98 243.20 159.53 C 245.76 163.44 245.90 168.16 245.38 172.66 C 244.93 172.58 244.03 172.42 243.58 172.35 C 243.84 168.91 243.71 165.41 242.63 162.11 L 242.41 161.32 Z" />
</g>
<g id="#202020fe">
<path fill="#202020" opacity="1.00" d=" M 249.48 162.56 C 256.62 160.95 262.68 166.07 268.05 169.98 C 274.69 175.33 281.79 180.06 288.55 185.26 C 288.18 185.39 287.46 185.65 287.10 185.78 C 281.24 183.25 276.10 179.39 271.05 175.57 C 271.03 174.98 271.01 173.80 271.00 173.22 C 270.52 173.33 269.57 173.57 269.09 173.68 C 267.47 172.05 265.93 170.20 263.77 169.26 C 260.84 168.01 257.60 167.57 254.75 166.11 C 252.87 165.11 251.21 163.78 249.48 162.56 Z" />
</g>
<g id="#9bdae3ff">
<path fill="#9bdae3" opacity="1.00" d=" M 222.16 165.38 C 223.39 164.89 224.59 164.33 225.79 163.76 L 226.26 164.46 C 226.57 167.33 226.79 170.21 227.12 173.09 C 225.96 170.86 224.72 168.66 223.18 166.67 C 222.92 166.35 222.42 165.71 222.16 165.38 Z" />
</g>
<g id="#1414157b">
<path fill="#141415" opacity="0.48" d=" M 156.11 166.36 C 158.17 164.19 161.09 165.58 163.31 166.64 C 161.57 166.85 159.84 167.08 158.11 167.32 C 159.46 168.98 160.97 170.49 162.85 171.56 C 161.41 171.56 159.96 171.62 158.53 171.47 C 156.40 170.81 155.77 168.34 156.11 166.36 Z" />
</g>
<g id="#f5ffffff">
<path fill="#f5ffff" opacity="1.00" d=" M 226.26 164.46 C 227.82 166.50 229.25 168.65 230.16 171.06 C 230.21 171.52 230.31 172.46 230.35 172.93 C 229.54 172.97 227.93 173.05 227.12 173.09 C 226.79 170.21 226.57 167.33 226.26 164.46 Z" />
</g>
<g id="#38373cf1">
<path fill="#38373c" opacity="0.95" d=" M 158.11 167.32 C 159.84 167.08 161.57 166.85 163.31 166.64 L 164.37 166.53 C 163.86 168.20 163.36 169.88 162.85 171.56 C 160.97 170.49 159.46 168.98 158.11 167.32 Z" />
</g>
<g id="#24ccccce">
<path fill="#24cccc" opacity="0.81" d=" M 164.37 166.53 C 164.93 166.77 166.06 167.24 166.63 167.48 C 166.71 168.07 166.86 169.25 166.93 169.84 L 167.06 170.56 C 165.65 170.87 164.24 171.20 162.85 171.56 C 163.36 169.88 163.86 168.20 164.37 166.53 Z" />
</g>
<g id="#57565eff">
<path fill="#57565e" opacity="1.00" d=" M 223.18 166.67 C 224.72 168.66 225.96 170.86 227.12 173.09 C 227.93 173.05 229.54 172.97 230.35 172.93 C 230.31 172.46 230.21 171.52 230.16 171.06 C 230.06 169.73 229.95 168.40 229.84 167.08 C 233.45 168.47 236.92 170.25 240.07 172.51 C 238.56 174.12 239.70 176.62 241.81 176.88 C 241.78 177.30 241.74 178.14 241.71 178.57 C 243.54 179.67 245.35 180.79 247.17 181.91 C 246.91 182.64 246.38 184.10 246.12 184.83 C 242.45 183.64 238.89 182.14 235.54 180.23 C 234.32 181.46 233.06 182.68 232.06 184.10 C 232.42 186.44 233.40 188.61 234.26 190.80 C 238.02 188.74 242.23 187.77 246.51 187.71 L 246.60 188.61 C 244.06 190.75 241.33 192.69 239.08 195.14 C 238.28 196.40 237.58 197.71 236.86 199.01 C 235.97 199.50 235.08 199.99 234.19 200.48 C 233.29 199.21 230.76 200.10 231.97 201.68 C 230.56 201.97 229.17 202.29 227.78 202.60 C 227.97 201.92 228.35 200.57 228.54 199.89 L 228.81 198.98 C 228.80 197.75 228.79 196.52 228.78 195.29 C 226.60 196.08 224.32 196.98 223.15 199.13 C 222.56 197.40 222.18 195.53 221.06 194.04 C 218.85 192.38 216.14 191.51 213.99 189.76 C 211.73 187.36 212.37 183.67 213.75 180.99 C 215.30 177.55 219.10 176.17 221.55 173.52 C 222.68 171.43 222.85 168.98 223.18 166.67 M 226.43 174.99 C 226.32 175.49 226.10 176.47 225.99 176.96 C 222.39 178.72 218.33 180.44 216.29 184.11 C 216.91 186.10 218.02 188.05 219.76 189.26 C 221.25 189.83 222.83 190.15 224.37 190.59 C 224.79 191.81 225.24 193.03 225.80 194.21 C 226.96 194.84 228.31 194.94 229.58 195.25 C 230.17 188.46 230.99 181.68 230.86 174.87 C 229.38 174.90 227.90 174.95 226.43 174.99 Z" />
</g>
<g id="#1d2327d2">
<path fill="#1d2327" opacity="0.82" d=" M 166.93 169.84 C 172.43 170.39 177.95 170.73 183.42 171.55 C 187.60 172.15 191.75 173.10 195.99 173.13 C 195.59 174.51 195.20 175.89 194.82 177.28 C 191.79 176.06 188.73 174.91 185.61 173.92 C 185.71 176.77 185.35 179.62 184.40 182.32 C 184.17 179.16 184.12 175.99 184.15 172.83 C 180.47 172.00 176.72 171.62 172.96 171.64 C 170.99 171.48 168.76 171.78 167.06 170.56 L 166.93 169.84 Z" />
</g>
<g id="#807d80ff">
<path fill="#807d80" opacity="1.00" d=" M 257.13 172.29 C 258.11 171.41 259.10 170.56 260.12 169.71 C 263.07 171.12 266.05 172.48 269.09 173.68 C 268.06 175.54 267.02 177.39 266.05 179.28 C 262.89 177.20 259.92 174.84 257.13 172.29 Z" />
</g>
<g id="#373539ff">
<path fill="#373539" opacity="1.00" d=" M 195.99 173.13 C 198.37 172.99 200.74 172.52 203.13 172.80 C 205.04 173.47 206.48 174.98 208.04 176.22 C 205.72 178.61 202.94 180.92 202.04 184.27 C 201.23 187.22 202.74 190.07 203.69 192.79 C 200.82 193.02 197.95 193.28 195.08 193.60 C 194.65 192.72 194.24 191.84 193.83 190.96 C 192.92 187.60 193.18 184.07 193.94 180.71 C 194.19 179.55 194.50 178.41 194.82 177.28 C 195.20 175.89 195.59 174.51 195.99 173.13 M 196.29 177.51 C 195.48 181.15 196.05 184.94 197.46 188.32 C 198.47 184.21 198.75 179.96 198.74 175.73 C 197.84 176.21 197.02 176.80 196.29 177.51 Z" />
</g>
<g id="#282829ff">
<path fill="#282829" opacity="1.00" d=" M 249.71 173.48 C 251.12 173.05 252.53 172.61 253.94 172.18 C 255.15 174.55 256.20 177.08 258.02 179.07 C 259.80 180.86 262.00 182.13 264.01 183.61 L 263.71 184.38 C 258.61 182.26 253.51 180.15 248.48 177.90 C 248.91 176.43 249.30 174.96 249.71 173.48 Z" />
</g>
<g id="#5e91a2ff">
<path fill="#5e91a2" opacity="1.00" d=" M 241.81 176.88 C 239.70 176.62 238.56 174.12 240.07 172.51 C 241.62 173.34 242.02 175.27 241.81 176.88 Z" />
</g>
<g id="#6eb7cafe">
<path fill="#6eb7ca" opacity="1.00" d=" M 269.09 173.68 C 269.57 173.57 270.52 173.33 271.00 173.22 C 271.01 173.80 271.03 174.98 271.05 175.57 C 270.03 177.13 269.02 178.69 268.03 180.27 C 267.33 181.39 266.63 182.51 265.92 183.62 C 265.69 183.95 265.25 184.62 265.03 184.95 C 264.70 184.81 264.04 184.52 263.71 184.38 L 264.01 183.61 C 264.64 182.15 265.33 180.70 266.05 179.28 C 267.02 177.39 268.06 175.54 269.09 173.68 Z" />
</g>
<g id="#245661ff">
<path fill="#245661" opacity="1.00" d=" M 184.40 182.32 C 185.35 179.62 185.71 176.77 185.61 173.92 C 187.62 177.01 190.64 179.16 193.94 180.71 C 193.18 184.07 192.92 187.60 193.83 190.96 C 190.59 191.16 187.35 191.31 184.11 191.58 C 183.72 188.50 183.27 185.30 184.40 182.32 Z" />
</g>
<g id="#347684ff">
<path fill="#347684" opacity="1.00" d=" M 185.61 173.92 C 188.73 174.91 191.79 176.06 194.82 177.28 C 194.50 178.41 194.19 179.55 193.94 180.71 C 190.64 179.16 187.62 177.01 185.61 173.92 Z" />
</g>
<g id="#9bd6e2ff">
<path fill="#9bd6e2" opacity="1.00" d=" M 226.43 174.99 C 227.90 174.95 229.38 174.90 230.86 174.87 C 230.99 181.68 230.17 188.46 229.58 195.25 C 228.31 194.94 226.96 194.84 225.80 194.21 C 225.24 193.03 224.79 191.81 224.37 190.59 L 225.08 190.80 C 226.40 191.94 227.70 193.10 229.01 194.26 C 228.77 190.47 228.13 186.63 228.81 182.85 C 229.22 180.31 229.73 177.78 230.09 175.23 C 228.39 176.57 226.70 177.91 225.37 179.63 C 225.53 178.97 225.84 177.63 225.99 176.96 C 226.10 176.47 226.32 175.49 226.43 174.99 Z" />
</g>
<g id="#464547ff">
<path fill="#464547" opacity="1.00" d=" M 196.29 177.51 C 197.02 176.80 197.84 176.21 198.74 175.73 C 198.75 179.96 198.47 184.21 197.46 188.32 C 196.05 184.94 195.48 181.15 196.29 177.51 Z" />
</g>
<g id="#faffffff">
<path fill="#faffff" opacity="1.00" d=" M 225.37 179.63 C 226.70 177.91 228.39 176.57 230.09 175.23 C 229.73 177.78 229.22 180.31 228.81 182.85 C 228.13 186.63 228.77 190.47 229.01 194.26 C 227.70 193.10 226.40 191.94 225.08 190.80 C 224.54 187.10 224.50 183.29 225.37 179.63 Z" />
</g>
<g id="#686668ff">
<path fill="#686668" opacity="1.00" d=" M 268.03 180.27 C 269.02 178.69 270.03 177.13 271.05 175.57 C 276.10 179.39 281.24 183.25 287.10 185.78 C 286.11 187.15 285.20 188.58 284.29 190.00 C 278.94 186.63 273.30 183.76 268.03 180.27 Z" />
</g>
<g id="#6d6972ff">
<path fill="#6d6972" opacity="1.00" d=" M 216.29 184.11 C 218.33 180.44 222.39 178.72 225.99 176.96 C 225.84 177.63 225.53 178.97 225.37 179.63 C 224.50 183.29 224.54 187.10 225.08 190.80 L 224.37 190.59 C 222.83 190.15 221.25 189.83 219.76 189.26 C 218.02 188.05 216.91 186.10 216.29 184.11 Z" />
</g>
<g id="#4a474dff">
<path fill="#4a474d" opacity="1.00" d=" M 235.54 180.23 C 238.89 182.14 242.45 183.64 246.12 184.83 C 246.25 185.79 246.38 186.75 246.51 187.71 C 242.23 187.77 238.02 188.74 234.26 190.80 C 233.40 188.61 232.42 186.44 232.06 184.10 C 233.06 182.68 234.32 181.46 235.54 180.23 Z" />
</g>
<g id="#464648ff">
<path fill="#464648" opacity="1.00" d=" M 265.92 183.62 C 266.63 182.51 267.33 181.39 268.03 180.27 C 273.30 183.76 278.94 186.63 284.29 190.00 C 283.92 190.61 283.17 191.82 282.79 192.42 C 278.36 187.68 271.72 186.07 265.92 183.62 Z" />
</g>
<g id="#232324dd">
<path fill="#232324" opacity="0.87" d=" M 265.03 184.95 C 265.25 184.62 265.69 183.95 265.92 183.62 C 271.72 186.07 278.36 187.68 282.79 192.42 L 283.30 193.09 C 277.04 190.76 271.04 187.83 265.03 184.95 Z" />
</g>
<g id="#121b1e76">
<path fill="#121b1e" opacity="0.46" d=" M 289.20 185.06 C 289.39 182.62 293.76 184.55 292.24 186.38 C 291.22 185.95 290.20 185.51 289.20 185.06 Z" />
</g>
<g id="#598896fb">
<path fill="#598896" opacity="1.00" d=" M 288.55 185.26 L 289.20 185.06 C 290.20 185.51 291.22 185.95 292.24 186.38 C 293.57 187.05 294.80 187.92 296.05 188.73 L 295.48 189.38 C 295.23 189.65 294.75 190.20 294.51 190.48 C 293.30 191.95 292.13 193.47 290.91 194.93 C 290.63 195.22 290.06 195.79 289.78 196.07 C 289.51 196.35 288.96 196.92 288.69 197.20 L 287.88 197.02 C 288.02 196.60 288.29 195.76 288.42 195.34 C 289.72 192.79 291.30 190.40 292.85 188.00 C 291.69 187.42 290.53 186.84 289.38 186.27 C 287.90 188.44 286.39 190.60 285.02 192.83 C 284.83 193.17 284.45 193.83 284.26 194.16 C 284.02 193.89 283.54 193.36 283.30 193.09 L 282.79 192.42 C 283.17 191.82 283.92 190.61 284.29 190.00 C 285.20 188.58 286.11 187.15 287.10 185.78 C 287.46 185.65 288.18 185.39 288.55 185.26 Z" />
</g>
<g id="#565556ff">
<path fill="#565556" opacity="1.00" d=" M 289.38 186.27 C 290.53 186.84 291.69 187.42 292.85 188.00 C 291.30 190.40 289.72 192.79 288.42 195.34 C 287.30 194.47 286.16 193.65 285.02 192.83 C 286.39 190.60 287.90 188.44 289.38 186.27 Z" />
<path fill="#565556" opacity="1.00" d=" M 193.40 203.17 C 196.08 202.79 198.76 202.43 201.44 202.07 C 201.95 203.80 202.46 205.53 202.97 207.26 C 199.59 207.40 196.24 208.04 192.99 208.97 C 193.12 207.03 193.26 205.10 193.40 203.17 Z" />
<path fill="#565556" opacity="1.00" d=" M 229.58 213.02 C 233.59 213.97 237.29 215.91 241.32 216.76 C 242.74 218.60 244.19 220.43 245.68 222.23 C 244.79 223.35 243.91 224.48 243.09 225.65 C 241.28 223.01 239.37 220.44 237.33 217.97 C 237.40 217.55 237.55 216.71 237.63 216.28 C 234.96 215.83 232.26 215.28 229.92 213.86 L 229.58 213.02 Z" />
</g>
<g id="#434248f7">
<path fill="#434248" opacity="0.97" d=" M 246.60 188.61 C 247.05 191.37 246.81 194.21 245.51 196.72 C 244.27 196.49 243.03 196.25 241.81 195.98 C 241.12 195.77 239.76 195.35 239.08 195.14 C 241.33 192.69 244.06 190.75 246.60 188.61 Z" />
</g>
<g id="#3b3c3fff">
<path fill="#3b3c3f" opacity="1.00" d=" M 294.51 190.48 C 294.75 190.20 295.23 189.65 295.48 189.38 C 298.31 189.30 301.16 189.46 303.98 189.84 C 307.88 190.35 310.96 193.05 313.82 195.53 C 310.97 196.17 308.18 195.25 305.56 194.21 C 305.59 195.15 305.63 196.10 305.67 197.05 C 304.42 197.35 303.18 197.65 301.94 197.93 C 300.53 198.22 299.13 198.53 297.73 198.80 C 296.39 199.01 295.07 199.23 293.74 199.46 C 292.42 198.33 291.10 197.20 289.78 196.07 C 290.06 195.79 290.63 195.22 290.91 194.93 C 294.57 194.88 298.23 195.00 301.89 195.03 C 301.84 194.46 301.74 193.32 301.69 192.75 C 299.29 192.00 296.90 191.25 294.51 190.48 Z" />
</g>
<g id="#13131475">
<path fill="#131314" opacity="0.46" d=" M 155.30 191.27 C 156.97 189.77 159.80 189.84 161.58 191.13 L 161.78 191.99 C 160.62 191.98 159.46 191.96 158.31 191.94 C 157.78 192.55 156.72 193.77 156.19 194.39 C 157.91 194.70 159.65 194.88 161.38 195.12 C 159.88 198.11 156.26 195.98 153.82 195.76 C 154.25 194.25 154.54 192.66 155.30 191.27 Z" />
</g>
<g id="#535255ff">
<path fill="#535255" opacity="1.00" d=" M 290.91 194.93 C 292.13 193.47 293.30 191.95 294.51 190.48 C 296.90 191.25 299.29 192.00 301.69 192.75 C 301.74 193.32 301.84 194.46 301.89 195.03 C 298.23 195.00 294.57 194.88 290.91 194.93 Z" />
</g>
<g id="#208d8fb5">
<path fill="#208d8f" opacity="0.71" d=" M 161.58 191.13 C 162.71 191.50 163.84 191.87 164.97 192.25 C 164.95 193.07 164.91 194.70 164.89 195.52 C 163.97 195.05 163.07 194.55 162.19 194.01 C 162.09 193.50 161.88 192.50 161.78 191.99 L 161.58 191.13 Z" />
</g>
<g id="#38383dea">
<path fill="#38383d" opacity="0.92" d=" M 158.31 191.94 C 159.46 191.96 160.62 191.98 161.78 191.99 C 161.88 192.50 162.09 193.50 162.19 194.01 L 162.43 195.27 L 161.38 195.12 C 159.65 194.88 157.91 194.70 156.19 194.39 C 156.72 193.77 157.78 192.55 158.31 191.94 Z" />
</g>
<g id="#2e3233dc">
<path fill="#2e3233" opacity="0.86" d=" M 285.02 192.83 C 286.16 193.65 287.30 194.47 288.42 195.34 C 288.29 195.76 288.02 196.60 287.88 197.02 C 286.57 196.21 285.29 195.32 284.26 194.16 C 284.45 193.83 284.83 193.17 285.02 192.83 Z" />
</g>
<g id="#44454bff">
<path fill="#44454b" opacity="1.00" d=" M 337.04 196.68 C 338.86 195.25 340.58 193.24 343.07 193.14 C 345.21 192.80 347.08 194.13 349.01 194.82 C 351.71 196.02 354.78 195.45 357.58 196.29 C 359.34 197.06 360.83 198.32 362.37 199.46 C 358.76 200.78 354.93 201.26 351.11 201.49 C 342.76 202.20 334.32 202.54 326.14 204.48 L 325.35 204.63 C 322.91 204.21 320.51 203.64 318.10 203.11 C 323.62 202.11 329.09 200.62 333.96 197.76 C 334.00 197.16 334.08 195.97 334.11 195.38 C 332.40 195.50 330.68 195.58 328.97 195.74 C 328.06 196.97 327.21 198.26 326.11 199.32 C 324.64 199.80 323.16 200.20 321.64 200.45 C 321.29 198.81 320.93 197.17 320.59 195.54 C 321.71 196.41 322.90 197.21 324.04 198.08 C 325.79 196.49 327.46 194.24 330.07 194.24 C 332.72 193.69 335.00 195.23 337.04 196.68 M 340.48 194.48 C 341.04 195.56 341.45 196.76 342.32 197.66 C 343.91 197.61 345.49 197.36 347.07 197.14 C 347.08 196.42 347.11 194.98 347.13 194.26 C 344.95 194.91 342.69 194.87 340.48 194.48 Z" />
</g>
<g id="#868690fe">
<path fill="#868690" opacity="1.00" d=" M 340.48 194.48 C 342.69 194.87 344.95 194.91 347.13 194.26 C 347.11 194.98 347.08 196.42 347.07 197.14 C 345.49 197.36 343.91 197.61 342.32 197.66 C 341.45 196.76 341.04 195.56 340.48 194.48 Z" />
</g>
<g id="#4f7887ff">
<path fill="#4f7887" opacity="1.00" d=" M 239.08 195.14 C 239.76 195.35 241.12 195.77 241.81 195.98 C 240.19 197.04 238.54 198.06 236.86 199.01 C 237.58 197.71 238.28 196.40 239.08 195.14 Z" />
</g>
<g id="#7d7e87fe">
<path fill="#7d7e87" opacity="1.00" d=" M 328.97 195.74 C 330.68 195.58 332.40 195.50 334.11 195.38 C 334.08 195.97 334.00 197.16 333.96 197.76 C 329.09 200.62 323.62 202.11 318.10 203.11 C 320.51 203.64 322.91 204.21 325.35 204.63 C 322.25 205.37 319.05 205.27 315.91 205.01 C 315.98 205.79 316.13 207.35 316.21 208.13 C 317.46 208.15 318.72 208.14 319.99 208.12 C 317.74 208.50 315.49 208.89 313.23 209.13 C 313.26 207.72 313.29 206.32 313.29 204.92 C 312.92 204.90 312.19 204.85 311.82 204.83 C 313.35 204.58 314.87 204.29 316.40 204.00 C 316.17 203.09 315.96 202.19 315.74 201.28 C 317.24 201.02 318.73 200.77 320.24 200.51 C 318.33 199.98 316.46 199.37 314.56 198.84 C 316.14 197.90 317.76 197.01 319.39 196.16 C 319.69 196.01 320.29 195.69 320.59 195.54 C 320.93 197.17 321.29 198.81 321.64 200.45 C 323.16 200.20 324.64 199.80 326.11 199.32 C 327.21 198.26 328.06 196.97 328.97 195.74 Z" />
</g>
<g id="#151515ff">
<path fill="#151515" opacity="1.00" d=" M 167.14 196.05 C 173.68 197.73 180.26 199.43 187.03 199.90 C 188.30 201.10 190.36 202.11 190.27 204.14 C 190.10 206.32 189.17 208.34 188.40 210.36 C 187.67 210.56 186.22 210.98 185.49 211.19 L 185.20 210.33 C 184.43 208.20 183.64 206.06 183.02 203.88 C 182.75 202.83 182.52 201.78 182.32 200.73 C 177.12 199.66 171.88 198.53 167.14 196.05 Z" />
</g>
<g id="#333334ff">
<path fill="#333334" opacity="1.00" d=" M 199.76 196.19 C 201.84 197.27 203.91 198.37 205.98 199.48 C 207.34 198.50 208.68 197.47 210.18 196.72 C 212.18 197.36 213.89 198.62 215.66 199.72 C 213.52 200.08 211.39 200.48 209.26 200.84 C 211.17 202.62 213.07 204.42 215.15 206.01 C 213.45 205.88 211.75 205.73 210.05 205.57 C 209.61 206.25 209.16 206.94 208.72 207.63 C 206.80 207.49 204.89 207.32 202.97 207.26 C 202.46 205.53 201.95 203.80 201.44 202.07 C 198.76 202.43 196.08 202.79 193.40 203.17 C 193.26 205.10 193.12 207.03 192.99 208.97 C 191.45 209.41 189.93 209.89 188.40 210.36 C 189.17 208.34 190.10 206.32 190.27 204.14 C 190.36 202.11 188.30 201.10 187.03 199.90 C 190.81 199.88 194.61 199.52 198.36 200.14 C 198.84 198.83 199.29 197.51 199.76 196.19 Z" />
</g>
<g id="#94d5deff">
<path fill="#94d5de" opacity="1.00" d=" M 223.15 199.13 C 224.32 196.98 226.60 196.08 228.78 195.29 C 228.79 196.52 228.80 197.75 228.81 198.98 C 227.63 198.13 226.50 197.14 225.02 196.92 C 224.43 199.35 224.14 201.84 223.84 204.33 C 225.46 202.91 227.07 201.46 228.54 199.89 C 228.35 200.57 227.97 201.92 227.78 202.60 C 227.59 203.25 227.23 204.53 227.05 205.18 L 226.16 205.32 C 224.05 205.26 221.95 205.09 219.85 204.94 C 220.91 202.98 221.98 201.02 223.15 199.13 Z" />
</g>
<g id="#2a2a2ed9">
<path fill="#2a2a2e" opacity="0.85" d=" M 241.81 195.98 C 243.03 196.25 244.27 196.49 245.51 196.72 C 240.99 201.25 234.74 203.19 228.72 204.79 C 228.30 204.89 227.47 205.08 227.05 205.18 C 227.23 204.53 227.59 203.25 227.78 202.60 C 229.17 202.29 230.56 201.97 231.97 201.68 C 232.52 201.38 233.63 200.78 234.19 200.48 C 235.08 199.99 235.97 199.50 236.86 199.01 C 238.54 198.06 240.19 197.04 241.81 195.98 Z" />
</g>
<g id="#181919fb">
<path fill="#181919" opacity="1.00" d=" M 288.69 197.20 C 288.96 196.92 289.51 196.35 289.78 196.07 C 291.10 197.20 292.42 198.33 293.74 199.46 C 293.88 200.18 294.14 201.63 294.28 202.35 C 292.11 202.52 289.97 202.87 287.88 203.44 C 287.69 203.88 287.31 204.77 287.12 205.22 C 286.93 205.69 286.54 206.62 286.35 207.09 C 286.05 206.93 285.46 206.60 285.17 206.44 C 285.09 204.36 285.10 202.28 285.03 200.21 C 280.69 200.48 276.40 201.19 272.14 202.01 C 272.09 202.72 271.99 204.15 271.94 204.86 C 271.85 206.09 271.76 207.32 271.69 208.56 C 271.07 208.71 269.81 209.02 269.19 209.18 C 269.24 208.02 269.32 206.87 269.40 205.71 C 269.50 204.07 269.55 202.43 269.65 200.79 C 273.77 200.29 277.88 199.51 282.05 199.54 C 284.94 199.47 287.40 201.15 289.92 202.34 C 289.48 200.63 289.06 198.92 288.69 197.20 Z" />
</g>
<g id="#53545bff">
<path fill="#53545b" opacity="1.00" d=" M 310.35 199.58 C 313.13 197.83 315.79 195.24 319.39 196.16 C 317.76 197.01 316.14 197.90 314.56 198.84 C 316.46 199.37 318.33 199.98 320.24 200.51 C 318.73 200.77 317.24 201.02 315.74 201.28 C 315.96 202.19 316.17 203.09 316.40 204.00 C 314.87 204.29 313.35 204.58 311.82 204.83 C 308.90 205.21 306.00 205.64 303.09 206.06 C 303.02 206.86 302.87 208.46 302.80 209.25 C 306.28 209.29 309.75 209.35 313.23 209.13 C 315.49 208.89 317.74 208.50 319.99 208.12 C 322.38 207.77 324.76 207.32 327.16 207.01 C 327.65 206.95 328.64 206.85 329.13 206.80 C 329.23 207.40 329.43 208.60 329.53 209.21 C 328.65 209.38 327.77 209.56 326.89 209.73 C 323.68 209.97 321.10 211.98 318.85 214.10 C 316.75 213.60 314.66 213.08 312.56 212.59 C 311.33 213.60 310.26 215.04 308.57 215.21 C 304.98 215.79 301.34 216.18 297.71 216.36 C 295.75 216.60 294.37 214.96 292.78 214.13 C 287.94 215.25 282.96 215.29 278.05 215.85 C 273.70 216.54 269.38 215.03 265.03 215.75 C 268.99 213.91 273.43 214.79 277.60 213.97 C 283.05 212.92 288.62 213.19 294.13 213.11 C 293.78 210.52 293.40 207.93 293.02 205.34 C 291.05 205.28 289.09 205.18 287.12 205.22 C 287.31 204.77 287.69 203.88 287.88 203.44 C 289.97 202.87 292.11 202.52 294.28 202.35 C 297.22 202.24 300.17 202.34 303.11 202.24 C 305.64 201.72 308.11 200.87 310.35 199.58 M 297.62 209.58 C 298.54 209.71 300.38 209.96 301.29 210.08 C 301.10 208.53 300.92 206.98 300.74 205.43 C 299.44 206.60 298.44 208.05 297.62 209.58 M 296.43 211.51 C 296.32 212.80 296.20 214.08 296.09 215.38 C 301.03 215.53 306.19 215.43 310.64 212.97 C 305.93 212.20 301.15 212.20 296.43 211.51 Z" />
</g>
<g id="#f8ffffff">
<path fill="#f8ffff" opacity="1.00" d=" M 225.02 196.92 C 226.50 197.14 227.63 198.13 228.81 198.98 L 228.54 199.89 C 227.07 201.46 225.46 202.91 223.84 204.33 C 224.14 201.84 224.43 199.35 225.02 196.92 Z" />
</g>
<g id="#d8d5dcff">
<path fill="#d8d5dc" opacity="1.00" d=" M 297.73 198.80 C 299.13 198.53 300.53 198.22 301.94 197.93 C 304.89 197.11 308.11 197.26 310.35 199.58 C 308.11 200.87 305.64 201.72 303.11 202.24 C 303.75 201.07 304.39 199.90 305.04 198.74 C 302.60 198.72 300.16 198.70 297.73 198.80 Z" />
</g>
<g id="#fdfdfeff">
<path fill="#fdfdfe" opacity="1.00" d=" M 293.74 199.46 C 295.07 199.23 296.39 199.01 297.73 198.80 C 300.16 198.70 302.60 198.72 305.04 198.74 C 304.39 199.90 303.75 201.07 303.11 202.24 C 300.17 202.34 297.22 202.24 294.28 202.35 C 294.14 201.63 293.88 200.18 293.74 199.46 Z" />
</g>
<g id="#8c909eff">
<path fill="#8c909e" opacity="1.00" d=" M 351.11 201.49 C 354.93 201.26 358.76 200.78 362.37 199.46 C 362.29 200.96 362.22 202.46 362.17 203.97 C 357.79 204.14 353.43 204.58 349.08 205.03 C 347.63 204.90 346.19 204.74 344.76 204.56 C 346.80 203.38 348.89 202.28 351.11 201.49 Z" />
</g>
<g id="#557f8eff">
<path fill="#557f8e" opacity="1.00" d=" M 231.97 201.68 C 230.76 200.10 233.29 199.21 234.19 200.48 C 233.63 200.78 232.52 201.38 231.97 201.68 Z" />
</g>
<g id="#55565bff">
<path fill="#55565b" opacity="1.00" d=" M 272.14 202.01 C 276.40 201.19 280.69 200.48 285.03 200.21 C 285.10 202.28 285.09 204.36 285.17 206.44 C 282.02 206.45 278.90 206.87 275.84 207.55 C 274.53 206.65 273.24 205.75 271.94 204.86 C 271.99 204.15 272.09 202.72 272.14 202.01 Z" />
</g>
<g id="#888b99ff">
<path fill="#888b99" opacity="1.00" d=" M 326.14 204.48 C 334.32 202.54 342.76 202.20 351.11 201.49 C 348.89 202.28 346.80 203.38 344.76 204.56 C 346.19 204.74 347.63 204.90 349.08 205.03 C 342.47 206.04 335.80 206.47 329.13 206.80 C 328.64 206.85 327.65 206.95 327.16 207.01 C 326.81 206.16 326.47 205.32 326.14 204.48 Z" />
</g>
<g id="#313236fc">
<path fill="#313236" opacity="1.00" d=" M 246.98 208.15 C 250.95 207.00 254.24 203.57 258.59 203.97 C 256.06 206.30 253.48 208.57 250.84 210.78 C 249.22 210.64 247.60 210.49 245.98 210.41 C 243.95 210.35 241.92 210.45 239.89 210.58 C 237.39 210.68 234.90 210.90 232.40 211.00 C 231.73 211.03 230.38 211.10 229.71 211.13 C 235.44 209.98 241.37 209.86 246.98 208.15 Z" />
</g>
<g id="#484748ff">
<path fill="#484748" opacity="1.00" d=" M 174.80 205.92 C 177.44 204.89 180.22 204.31 183.02 203.88 C 183.64 206.06 184.43 208.20 185.20 210.33 C 182.67 210.56 179.30 210.49 178.31 213.42 C 177.22 216.61 180.78 218.74 182.63 220.75 C 183.95 219.05 185.33 217.40 186.64 215.69 C 187.08 218.09 187.37 220.51 187.66 222.94 C 186.10 223.48 184.54 224.05 182.95 224.49 C 180.10 223.53 176.77 222.67 175.11 219.91 C 173.91 217.85 173.14 215.42 173.42 213.02 C 173.94 210.41 175.46 208.16 176.71 205.85 C 176.39 205.86 175.76 205.89 175.44 205.91 L 174.80 205.92 Z" />
</g>
<g id="#404149ff">
<path fill="#404149" opacity="1.00" d=" M 258.59 203.97 C 259.76 204.18 260.92 204.40 262.09 204.64 C 260.34 205.66 258.60 206.68 256.85 207.69 C 257.49 208.33 258.14 208.98 258.81 209.61 C 258.60 211.15 258.42 212.69 258.28 214.23 C 258.24 214.85 258.15 216.09 258.11 216.71 C 254.06 215.68 249.89 214.60 245.69 215.37 C 246.03 215.08 246.71 214.48 247.06 214.18 C 249.33 214.00 251.61 213.84 253.89 213.68 C 253.85 213.02 253.78 211.71 253.75 211.06 C 253.02 210.99 251.57 210.85 250.84 210.78 C 253.48 208.57 256.06 206.30 258.59 203.97 Z" />
</g>
<g id="#57585eff">
<path fill="#57585e" opacity="1.00" d=" M 262.09 204.64 C 264.50 205.12 266.95 205.44 269.40 205.71 C 269.32 206.87 269.24 208.02 269.19 209.18 C 266.85 209.73 264.53 210.29 262.20 210.87 C 261.06 210.47 259.93 210.05 258.81 209.61 C 258.14 208.98 257.49 208.33 256.85 207.69 C 258.60 206.68 260.34 205.66 262.09 204.64 Z" />
</g>
<g id="#adafbdff">
<path fill="#adafbd" opacity="1.00" d=" M 325.35 204.63 L 326.14 204.48 C 326.47 205.32 326.81 206.16 327.16 207.01 C 324.76 207.32 322.38 207.77 319.99 208.12 C 318.72 208.14 317.46 208.15 316.21 208.13 C 316.13 207.35 315.98 205.79 315.91 205.01 C 319.05 205.27 322.25 205.37 325.35 204.63 Z" />
</g>
<g id="#44454bf9">
<path fill="#44454b" opacity="0.98" d=" M 349.08 205.03 C 353.43 204.58 357.79 204.14 362.17 203.97 C 357.71 206.23 352.78 207.44 347.80 207.82 C 345.89 207.88 343.98 208.00 342.07 208.01 C 341.62 208.05 340.74 208.13 340.29 208.18 L 339.80 208.91 L 338.87 209.13 C 337.63 209.44 336.39 209.71 335.14 209.94 C 332.39 210.13 329.64 209.90 326.89 209.73 C 327.77 209.56 328.65 209.38 329.53 209.21 C 329.43 208.60 329.23 207.40 329.13 206.80 C 335.80 206.47 342.47 206.04 349.08 205.03 Z" />
</g>
<g id="#141414ff">
<path fill="#141414" opacity="1.00" d=" M 210.05 205.57 C 211.75 205.73 213.45 205.88 215.15 206.01 C 218.83 206.37 222.53 205.92 226.16 205.32 L 227.05 205.18 C 227.47 205.08 228.30 204.89 228.72 204.79 C 228.78 206.95 228.84 209.11 228.90 211.27 C 227.09 211.63 225.32 212.15 223.54 212.62 C 223.72 214.18 223.93 215.75 224.17 217.31 C 226.45 216.77 229.87 217.02 229.92 213.86 C 232.26 215.28 234.96 215.83 237.63 216.28 C 237.55 216.71 237.40 217.55 237.33 217.97 L 236.54 217.84 C 231.34 216.95 225.86 216.60 220.75 218.08 C 216.70 220.00 213.18 222.92 208.93 224.46 C 203.46 226.95 197.12 228.00 191.42 225.59 C 190.09 224.81 188.89 223.86 187.66 222.94 C 187.37 220.51 187.08 218.09 186.64 215.69 C 186.49 215.01 186.18 213.66 186.03 212.98 C 186.44 212.91 187.26 212.75 187.68 212.67 C 191.13 217.34 194.17 223.32 200.24 224.95 C 202.12 225.79 203.80 224.12 204.56 222.54 C 206.38 218.90 207.03 214.83 207.85 210.89 C 209.75 212.58 211.57 214.36 213.48 216.05 C 213.31 214.71 213.33 213.31 212.84 212.04 C 211.71 210.36 210.14 209.05 208.72 207.63 C 209.16 206.94 209.61 206.25 210.05 205.57 Z" />
</g>
<g id="#818086ff">
<path fill="#818086" opacity="1.00" d=" M 271.94 204.86 C 273.24 205.75 274.53 206.65 275.84 207.55 C 274.45 207.87 273.07 208.22 271.69 208.56 C 271.76 207.32 271.85 206.09 271.94 204.86 Z" />
</g>
<g id="#8f8e94ff">
<path fill="#8f8e94" opacity="1.00" d=" M 287.12 205.22 C 289.09 205.18 291.05 205.28 293.02 205.34 C 292.64 206.95 292.26 208.57 291.90 210.19 C 290.06 209.14 288.18 208.14 286.35 207.09 C 286.54 206.62 286.93 205.69 287.12 205.22 Z" />
</g>
<g id="#a2a5b4ff">
<path fill="#a2a5b4" opacity="1.00" d=" M 303.09 206.06 C 306.00 205.64 308.90 205.21 311.82 204.83 C 312.19 204.85 312.92 204.90 313.29 204.92 C 313.29 206.32 313.26 207.72 313.23 209.13 C 309.75 209.35 306.28 209.29 302.80 209.25 C 302.87 208.46 303.02 206.86 303.09 206.06 Z" />
</g>
<g id="#48808ff0">
<path fill="#48808f" opacity="0.94" d=" M 175.44 205.91 C 175.76 205.89 176.39 205.86 176.71 205.85 C 175.46 208.16 173.94 210.41 173.42 213.02 C 173.14 215.42 173.91 217.85 175.11 219.91 C 176.77 222.67 180.10 223.53 182.95 224.49 C 179.80 224.86 176.43 224.50 173.97 222.30 C 172.66 220.02 171.34 217.60 171.14 214.92 C 171.08 212.11 172.05 209.43 172.79 206.77 C 173.45 206.55 174.78 206.12 175.44 205.91 Z" />
</g>
<g id="#717071ff">
<path fill="#717071" opacity="1.00" d=" M 275.84 207.55 C 278.90 206.87 282.02 206.45 285.17 206.44 C 285.46 206.60 286.05 206.93 286.35 207.09 C 288.18 208.14 290.06 209.14 291.90 210.19 C 292.26 208.57 292.64 206.95 293.02 205.34 C 293.40 207.93 293.78 210.52 294.13 213.11 C 288.62 213.19 283.05 212.92 277.60 213.97 C 273.43 214.79 268.99 213.91 265.03 215.75 C 264.63 215.90 263.82 216.20 263.42 216.35 C 261.67 216.68 259.88 216.78 258.11 216.71 C 258.15 216.09 258.24 214.85 258.28 214.23 C 259.28 213.90 260.27 213.57 261.27 213.25 C 261.51 212.66 261.97 211.47 262.20 210.87 C 264.53 210.29 266.85 209.73 269.19 209.18 C 269.81 209.02 271.07 208.71 271.69 208.56 C 273.07 208.22 274.45 207.87 275.84 207.55 Z" />
</g>
<g id="#868792ff">
<path fill="#868792" opacity="1.00" d=" M 297.62 209.58 C 298.44 208.05 299.44 206.60 300.74 205.43 C 300.92 206.98 301.10 208.53 301.29 210.08 C 300.38 209.96 298.54 209.71 297.62 209.58 Z" />
</g>
<g id="#141514ff">
<path fill="#141514" opacity="1.00" d=" M 164.70 209.01 C 167.41 208.30 170.12 207.62 172.79 206.77 C 172.05 209.43 171.08 212.11 171.14 214.92 C 171.34 217.60 172.66 220.02 173.97 222.30 C 168.89 224.65 163.18 223.61 157.84 223.00 C 155.45 222.75 153.21 221.88 151.15 220.69 C 157.28 221.47 163.36 223.38 169.61 222.45 L 168.66 222.01 C 166.42 220.65 164.00 219.41 162.31 217.37 C 160.93 214.99 163.11 212.51 163.90 210.31 C 164.96 209.97 166.02 209.62 167.08 209.27 C 166.48 209.20 165.30 209.08 164.70 209.01 Z" />
</g>
<g id="#5492a2ff">
<path fill="#5492a2" opacity="1.00" d=" M 192.99 208.97 C 196.24 208.04 199.59 207.40 202.97 207.26 C 204.89 207.32 206.80 207.49 208.72 207.63 C 210.14 209.05 211.71 210.36 212.84 212.04 C 213.33 213.31 213.31 214.71 213.48 216.05 C 211.57 214.36 209.75 212.58 207.85 210.89 C 207.34 210.47 206.31 209.65 205.79 209.23 C 203.86 209.22 201.94 209.37 200.03 209.64 C 197.83 210.07 195.66 210.62 193.50 211.20 C 192.55 211.45 191.59 211.70 190.64 211.96 C 189.65 212.20 188.66 212.44 187.68 212.67 C 187.26 212.75 186.44 212.91 186.03 212.98 C 185.90 212.53 185.62 211.64 185.49 211.19 C 186.22 210.98 187.67 210.56 188.40 210.36 C 189.93 209.89 191.45 209.41 192.99 208.97 Z" />
</g>
<g id="#2a2a2ecb">
<path fill="#2a2a2e" opacity="0.80" d=" M 340.29 208.18 C 340.74 208.13 341.62 208.05 342.07 208.01 L 341.58 208.74 C 341.13 208.78 340.24 208.87 339.80 208.91 L 340.29 208.18 Z" />
</g>
<g id="#54555dfc">
<path fill="#54555d" opacity="1.00" d=" M 342.07 208.01 C 343.98 208.00 345.89 207.88 347.80 207.82 C 348.42 207.82 349.65 207.83 350.27 207.83 C 349.06 208.88 349.00 210.84 347.19 211.22 C 344.19 212.45 341.22 210.95 338.87 209.13 L 339.80 208.91 C 340.24 208.87 341.13 208.78 341.58 208.74 L 342.07 208.01 Z" />
</g>
<g id="#3b3b3dff">
<path fill="#3b3b3d" opacity="1.00" d=" M 147.24 211.79 C 153.04 210.78 158.77 208.69 164.70 209.01 C 165.30 209.08 166.48 209.20 167.08 209.27 C 166.02 209.62 164.96 209.97 163.90 210.31 C 160.95 211.33 157.83 211.97 155.09 213.52 C 154.19 215.02 154.38 217.02 155.33 218.46 C 159.21 221.18 164.20 220.98 168.66 222.01 L 169.61 222.45 C 163.36 223.38 157.28 221.47 151.15 220.69 C 150.61 220.62 149.54 220.47 149.01 220.40 C 148.53 217.78 148.02 215.17 147.42 212.58 L 147.24 211.79 M 150.09 214.56 C 149.12 215.67 149.38 216.30 150.84 216.44 C 151.80 215.32 151.55 214.69 150.09 214.56 Z" />
</g>
<g id="#504e4fff">
<path fill="#504e4f" opacity="1.00" d=" M 200.03 209.64 C 201.94 209.37 203.86 209.22 205.79 209.23 C 204.57 212.62 203.69 216.14 202.15 219.40 C 196.92 220.85 193.28 215.62 190.64 211.96 C 191.59 211.70 192.55 211.45 193.50 211.20 C 195.39 213.74 198.01 215.53 201.05 216.41 C 200.75 214.14 200.39 211.89 200.03 209.64 Z" />
</g>
<g id="#37373baf">
<path fill="#37373b" opacity="0.69" d=" M 318.85 214.10 C 321.10 211.98 323.68 209.97 326.89 209.73 C 329.64 209.90 332.39 210.13 335.14 209.94 C 335.59 209.92 336.48 209.89 336.93 209.87 C 335.33 211.04 333.80 212.83 331.63 212.66 C 329.44 212.58 327.34 211.94 325.22 211.46 C 323.16 212.47 321.04 213.37 318.85 214.10 Z" />
</g>
<g id="#625f61ff">
<path fill="#625f61" opacity="1.00" d=" M 155.09 213.52 C 157.83 211.97 160.95 211.33 163.90 210.31 C 163.11 212.51 160.93 214.99 162.31 217.37 C 164.00 219.41 166.42 220.65 168.66 222.01 C 164.20 220.98 159.21 221.18 155.33 218.46 C 154.38 217.02 154.19 215.02 155.09 213.52 Z" />
</g>
<g id="#5f5d5fff">
<path fill="#5f5d5f" opacity="1.00" d=" M 178.31 213.42 C 179.30 210.49 182.67 210.56 185.20 210.33 L 185.49 211.19 C 185.62 211.64 185.90 212.53 186.03 212.98 C 186.18 213.66 186.49 215.01 186.64 215.69 C 185.33 217.40 183.95 219.05 182.63 220.75 C 180.78 218.74 177.22 216.61 178.31 213.42 Z" />
</g>
<g id="#646264ff">
<path fill="#646264" opacity="1.00" d=" M 193.50 211.20 C 195.66 210.62 197.83 210.07 200.03 209.64 C 200.39 211.89 200.75 214.14 201.05 216.41 C 198.01 215.53 195.39 213.74 193.50 211.20 Z" />
</g>
<g id="#2e2d2eff">
<path fill="#2e2d2e" opacity="1.00" d=" M 202.15 219.40 C 203.69 216.14 204.57 212.62 205.79 209.23 C 206.31 209.65 207.34 210.47 207.85 210.89 C 207.03 214.83 206.38 218.90 204.56 222.54 C 203.80 224.12 202.12 225.79 200.24 224.95 C 194.17 223.32 191.13 217.34 187.68 212.67 C 188.66 212.44 189.65 212.20 190.64 211.96 C 193.28 215.62 196.92 220.85 202.15 219.40 Z" />
</g>
<g id="#64656dff">
<path fill="#64656d" opacity="1.00" d=" M 239.89 210.58 C 241.92 210.45 243.95 210.35 245.98 210.41 C 246.33 211.67 246.69 212.92 247.06 214.18 C 246.71 214.48 246.03 215.08 245.69 215.37 C 245.28 215.73 244.46 216.44 244.05 216.79 C 243.14 216.80 242.23 216.78 241.32 216.76 C 237.29 215.91 233.59 213.97 229.58 213.02 C 227.57 212.82 225.55 212.70 223.54 212.62 C 225.32 212.15 227.09 211.63 228.90 211.27 L 229.71 211.13 C 230.38 211.10 231.73 211.03 232.40 211.00 C 233.07 212.09 233.80 213.15 234.57 214.18 C 238.17 215.18 241.59 213.23 244.40 211.19 C 242.90 210.95 241.40 210.75 239.89 210.58 Z" />
</g>
<g id="#989aa7ff">
<path fill="#989aa7" opacity="1.00" d=" M 258.28 214.23 C 258.42 212.69 258.60 211.15 258.81 209.61 C 259.93 210.05 261.06 210.47 262.20 210.87 C 261.97 211.47 261.51 212.66 261.27 213.25 C 260.27 213.57 259.28 213.90 258.28 214.23 Z" />
</g>
<g id="#f2f5ffff">
<path fill="#f2f5ff" opacity="1.00" d=" M 232.40 211.00 C 234.90 210.90 237.39 210.68 239.89 210.58 C 241.40 210.75 242.90 210.95 244.40 211.19 C 241.59 213.23 238.17 215.18 234.57 214.18 C 233.80 213.15 233.07 212.09 232.40 211.00 Z" />
</g>
<g id="#aeafbaff">
<path fill="#aeafba" opacity="1.00" d=" M 247.06 214.18 C 246.69 212.92 246.33 211.67 245.98 210.41 C 247.60 210.49 249.22 210.64 250.84 210.78 C 251.57 210.85 253.02 210.99 253.75 211.06 C 253.78 211.71 253.85 213.02 253.89 213.68 C 251.61 213.84 249.33 214.00 247.06 214.18 Z" />
</g>
<g id="#e9e6ecfe">
<path fill="#e9e6ec" opacity="1.00" d=" M 296.43 211.51 C 301.15 212.20 305.93 212.20 310.64 212.97 C 306.19 215.43 301.03 215.53 296.09 215.38 C 296.20 214.08 296.32 212.80 296.43 211.51 Z" />
</g>
<g id="#3e7989ca">
<path fill="#3e7989" opacity="0.79" d=" M 147.42 212.58 C 148.02 215.17 148.53 217.78 149.01 220.40 C 148.14 219.77 147.30 219.10 146.51 218.40 C 145.39 216.50 146.91 214.43 147.42 212.58 Z" />
</g>
<g id="#a0a4b4fe">
<path fill="#a0a4b4" opacity="1.00" d=" M 223.54 212.62 C 225.55 212.70 227.57 212.82 229.58 213.02 L 229.92 213.86 C 229.87 217.02 226.45 216.77 224.17 217.31 C 223.93 215.75 223.72 214.18 223.54 212.62 Z" />
</g>
<g id="#576c76ff">
<path fill="#576c76" opacity="1.00" d=" M 150.09 214.56 C 151.55 214.69 151.80 215.32 150.84 216.44 C 149.38 216.30 149.12 215.67 150.09 214.56 Z" />
</g>
<g id="#262626ff">
<path fill="#262626" opacity="1.00" d=" M 245.69 215.37 C 249.89 214.60 254.06 215.68 258.11 216.71 C 259.88 216.78 261.67 216.68 263.42 216.35 L 263.80 217.51 C 259.12 217.77 254.09 217.57 249.87 219.91 C 247.53 222.15 245.79 225.06 242.77 226.50 L 243.09 225.65 C 243.91 224.48 244.79 223.35 245.68 222.23 C 245.14 220.42 244.62 218.60 244.05 216.79 C 244.46 216.44 245.28 215.73 245.69 215.37 Z" />
</g>
<g id="#608795ff">
<path fill="#608795" opacity="1.00" d=" M 241.32 216.76 C 242.23 216.78 243.14 216.80 244.05 216.79 C 244.62 218.60 245.14 220.42 245.68 222.23 C 244.19 220.43 242.74 218.60 241.32 216.76 Z" />
</g>
<g id="#5693a4f5">
<path fill="#5693a4" opacity="0.96" d=" M 236.54 217.84 L 237.33 217.97 C 239.37 220.44 241.28 223.01 243.09 225.65 L 242.77 226.50 L 242.43 227.38 C 242.16 227.12 241.64 226.60 241.37 226.33 C 241.01 225.96 240.29 225.20 239.93 224.82 C 238.96 223.63 238.08 222.37 237.27 221.07 C 236.90 220.40 236.16 219.05 235.79 218.38 L 236.54 217.84 Z" />
</g>
<g id="#333233ff">
<path fill="#333233" opacity="1.00" d=" M 219.97 228.27 C 225.21 224.93 230.82 222.15 235.79 218.38 C 236.16 219.05 236.90 220.40 237.27 221.07 C 232.89 225.61 227.56 229.06 222.11 232.19 C 221.38 230.89 220.68 229.58 219.97 228.27 Z" />
</g>
<g id="#676466ff">
<path fill="#676466" opacity="1.00" d=" M 237.27 221.07 C 238.08 222.37 238.96 223.63 239.93 224.82 C 235.76 227.97 231.62 231.18 227.83 234.79 C 226.90 235.64 225.92 236.44 224.95 237.25 C 224.03 235.55 223.06 233.87 222.11 232.19 C 227.56 229.06 232.89 225.61 237.27 221.07 Z" />
</g>
<g id="#3f8293fe">
<path fill="#3f8293" opacity="1.00" d=" M 191.42 225.59 C 197.12 228.00 203.46 226.95 208.93 224.46 C 208.96 224.83 209.02 225.56 209.05 225.92 C 206.60 227.45 203.96 228.96 201.00 229.09 C 197.93 229.25 194.89 228.78 191.86 228.40 C 191.75 227.70 191.53 226.29 191.42 225.59 Z" />
</g>
<g id="#333233fc">
<path fill="#333233" opacity="1.00" d=" M 227.83 234.79 C 231.62 231.18 235.76 227.97 239.93 224.82 C 240.29 225.20 241.01 225.96 241.37 226.33 C 237.22 229.83 233.51 233.82 229.50 237.46 C 228.51 238.58 227.00 238.43 225.67 238.27 C 226.32 237.06 226.93 235.83 227.83 234.79 Z" />
</g>
<g id="#272728ff">
<path fill="#272728" opacity="1.00" d=" M 201.00 229.09 C 203.96 228.96 206.60 227.45 209.05 225.92 C 210.01 227.60 211.02 229.29 212.44 230.62 C 213.92 230.78 215.41 230.59 216.87 230.38 C 214.29 232.49 212.48 235.33 210.67 238.09 C 206.73 240.87 201.99 242.16 197.20 242.30 C 194.80 237.92 193.17 233.20 191.86 228.40 C 194.89 228.78 197.93 229.25 201.00 229.09 Z" />
</g>
<g id="#68b2c5fa">
<path fill="#68b2c5" opacity="0.98" d=" M 218.70 229.13 C 219.02 228.92 219.65 228.49 219.97 228.27 C 220.68 229.58 221.38 230.89 222.11 232.19 C 223.06 233.87 224.03 235.55 224.95 237.25 C 225.16 238.32 227.00 239.76 225.69 240.64 L 225.12 241.21 C 224.48 240.38 223.85 239.56 223.24 238.72 C 222.13 237.16 221.10 235.55 220.20 233.86 C 219.62 232.30 219.13 230.72 218.70 229.13 Z" />
</g>
<g id="#514f51ff">
<path fill="#514f51" opacity="1.00" d=" M 216.87 230.38 C 217.33 230.07 218.25 229.44 218.70 229.13 C 219.13 230.72 219.62 232.30 220.20 233.86 C 217.79 236.01 215.38 238.15 212.96 240.29 C 213.87 241.68 214.78 243.07 215.70 244.46 C 218.23 242.57 220.74 240.66 223.24 238.72 C 223.85 239.56 224.48 240.38 225.12 241.21 C 222.64 243.36 220.22 245.86 217.03 246.90 C 214.81 246.49 212.77 245.49 210.70 244.62 C 210.31 246.36 209.90 248.10 209.49 249.84 C 206.86 248.67 204.27 247.12 203.20 244.29 C 206.38 243.20 209.04 241.03 210.67 238.09 C 212.48 235.33 214.29 232.49 216.87 230.38 Z" />
</g>
<g id="#817f81ff">
<path fill="#817f81" opacity="1.00" d=" M 220.20 233.86 C 221.10 235.55 222.13 237.16 223.24 238.72 C 220.74 240.66 218.23 242.57 215.70 244.46 C 214.78 243.07 213.87 241.68 212.96 240.29 C 215.38 238.15 217.79 236.01 220.20 233.86 Z" />
</g>
<g id="#538d9dfa">
<path fill="#538d9d" opacity="0.98" d=" M 197.20 242.30 C 201.99 242.16 206.73 240.87 210.67 238.09 C 209.04 241.03 206.38 243.20 203.20 244.29 C 201.91 244.26 200.62 244.20 199.34 244.14 L 198.50 244.09 C 198.18 243.64 197.53 242.75 197.20 242.30 Z" />
</g>
<g id="#343334ff">
<path fill="#343334" opacity="1.00" d=" M 217.03 246.90 C 220.22 245.86 222.64 243.36 225.12 241.21 L 225.69 240.64 C 223.03 244.30 219.79 247.58 215.96 250.01 C 211.63 251.27 206.84 251.53 202.79 249.25 C 201.55 247.61 200.49 245.84 199.34 244.14 C 200.62 244.20 201.91 244.26 203.20 244.29 C 204.27 247.12 206.86 248.67 209.49 249.84 C 209.90 248.10 210.31 246.36 210.70 244.62 C 212.77 245.49 214.81 246.49 217.03 246.90 Z" />
</g>
<g id="#0b0b0ba2">
<path fill="#0b0b0b" opacity="0.64" d=" M 202.79 249.25 C 206.84 251.53 211.63 251.27 215.96 250.01 C 213.35 251.43 210.49 253.14 207.39 252.49 C 205.38 252.30 204.10 250.57 202.79 249.25 Z" />
</g>
</svg>
