<svg xmlns="http://www.w3.org/2000/svg" width="512" height="512" viewBox="0 0 384 384" xmlns:v="https://vecta.io/nano"><path fill="#585f33" d="M183.53 33.55c2.37 2.11 4.58-.31 6.55-1.72a7.19 7.19 0 0 0 3.93-.01c2.78 4.96 7.51.65 10.89 2.02-3.63-.81-4.54 1.96-4.79 4.92-1.3 3.79-4.1 2.41-6.93 1.36-3.11 1.78-5.84 5.63-9.84 4.5-3.11-1.32-5.6 4.93-8.24 1.31-2.29-3.88-7.44-1.17-9.14 1.86 3.39 1.32 5.96 3.07 3.99 6.94 2.38-1.57 5.17-.24 7.76-1.05 3.36.22 5.67-3.5 9.07-2.58 3.08 2.2-1.76 4.37-1.88 6.91-1.44 2.73 1.38 4.68 2.35 6.97-2.97-.79-5.07-3.04-7.27-5.02-3.85 1.07-5.72 4.68-7.25 8.02-2.95-.37-5.75-2.28-8.73-.83.56 4.61 3.43 8.88 2.87 13.6-2.97 4.24-9.27-6.64-9.72-1.01 3.75 3.4 7.4 9.12 13.73 5.84 3.08 3.78-.61 10.37 1.01 15.39-5.68 3.66-.8-9.93-8.52-4.66-4.97.62-3.2 7.55-8.25 7.82-2.13.32-4.3 1.76-1.74 3.45 4.05 1.65.15 9.98 5.21 8.15 1.36-2.4 2.52-5.01 1.93-7.83l14.87.42c-3.49 2.15-9.07 1.01-11.53 4.61 2.15 2.64 4.34 5.25 6.01 8.24l5.18.13.86-.12c2.69-.01 5.37-.07 8.06-.16 2.48-.01 3.83-3.82 6.42-1.86-1.32 2.06-3.02 3.86-5.4 4.65-4.25-2.51-4.35 2.43-6.01 5.15-1.65 2.75-6.5 2.73-7.07 6.06-.21 4.97 10.33 3.4 6.8 7.77-3.6.26-7.16-.72-10.76-.8-.3 2.23.87 4.13 1.79 6.05-1.25 2.29-3.1 4.52-1.58 7.21.19 7.83-11.88-4.7-12.07 2.86-.15 5.08 8.33.03 9.28 5.58-4.02-.95-8.08-1.76-11.99-3.06-2.22 5.55-10.2-1.57-11.61 4.21-2.22 4.58-6.81-1.37-9.93 2.35-.93-3.79-1.02-7.71 1.27-11.01l.99-1.15c1.64-2.98.58-6.89.73-10.2l2.24-8.84c4-5.46-4.52-12.75.14-19.04 1.39-1.32 1.1-3.32.59-4.96 3.8-5.8 7.16-11.82 6.3-18.99.89-3.36 3.46-6.19 3.69-9.68.11-3.21.63-6.52-.51-9.6-.85-3.04-2.01-6.12-1.07-9.37 2-4.06 7.48-4.5 10.07-8.19 3.57-2.63 3.39-7.62 5.92-10.96 3.68-3.84 9.71-1.2 14.19-2.81-.04-3.56 1.96-11.38 7.14-8.84z"/><path fill="#7e7f39" d="M200.11 38.76c.25-2.96 1.16-5.73 4.79-4.92.68 1.4 1.13 2.92 1.98 4.24 1.58 2.53 5.78.14 8.33.74 2.54 2.36 2.72 6.62 3.7 9.9-2.16 1.47.24 3.15 1.97 2.3l1.28.51c-3.5.28-5.57 4.06-9.21 3.54 2.07-3.33 2.59-6.32-2.24-5.96-2.94-4-5.27-8.4-10.6-10.35z"/><path fill="#727e3b" d="M193.18 40.12c2.83 1.05 5.63 2.43 6.93-1.36-.97 5.3 3.26 8.1 7.71 9.47 1.47 4.66.27 9.84 1.7 14.62 7.53 3.45 13.22-4.95 19.02-7.98 3.61 3.22-.08 7.13-3.34 8.63-1.65-.8-3.79-1.17-5.22.26-4.5 3.78-10.19 5.04-15.7 6.53-4.04 4.66-8.92 8.96-11.33 14.79.19 8.43-11.11-2.96-11.36 4.84-3.66-.71-5.96-6.06-10.71-4.34-6.33 3.28-9.98-2.44-13.73-5.84.45-5.63 6.75 5.25 9.72 1.01.56-4.72-2.31-8.99-2.87-13.6 2.98-1.45 5.78.46 8.73.83 1.53-3.34 3.4-6.95 7.25-8.02 2.2 1.98 4.3 4.23 7.27 5.02-.97-2.29-3.79-4.24-2.35-6.97.12-2.54 4.96-4.71 1.88-6.91-3.4-.92-5.71 2.8-9.07 2.58-2.59.81-5.38-.52-7.76 1.05 1.97-3.87-.6-5.62-3.99-6.94 1.7-3.03 6.85-5.74 9.14-1.86 2.64 3.62 5.13-2.63 8.24-1.31 4 1.13 6.73-2.72 9.84-4.5m-3.12 13.89c.15 3 .16 6.07 1.69 8.75-5.78-.27-2.48 8.26-7.57 7.24 3.62-4.31-5.06-8.44-4.23-3.01-4.48 7.26 8.62 5.17 5.1 11.12 6.01-3.63 16.1-6.31 15.99-15.12-2.6-.8-3.56 1.33-4.9 3-3.34-3.99 1.91-13.64-6.08-11.98m14.11 7.2c-4.31 4.26 5.18 1.8 0 0z"/><path fill="#899a57" d="M200.11 38.76c5.33 1.95 7.66 6.35 10.6 10.35 4.83-.36 4.31 2.63 2.24 5.96 3.64.52 5.71-3.26 9.21-3.54 2.55.3 5.2.73 6.38 3.34-5.8 3.03-11.49 11.43-19.02 7.98-1.43-4.78-.23-9.96-1.7-14.62-4.45-1.37-8.68-4.17-7.71-9.47z"/><path fill="#39431a" opacity=".64" d="M220.88 51.02c-1.73.85-4.13-.83-1.97-2.3.72.71 1.38 1.47 1.97 2.3z"/><path fill="#8a9b52" d="M190.06 54.01c7.99-1.66 2.74 7.99 6.08 11.98 1.34-1.67 2.3-3.8 4.9-3 .11 8.81-9.98 11.49-15.99 15.12 3.52-5.95-9.58-3.86-5.1-11.12-.83-5.43 7.85-1.3 4.23 3.01 5.09 1.02 1.79-7.51 7.57-7.24-1.53-2.68-1.54-5.75-1.69-8.75z"/><path fill="#c5b69d" d="M204.17 61.21c5.18 1.8-4.31 4.26 0 0z"/><path fill="#293019" opacity=".63" d="M219.98 63.76c1.43-1.43 3.57-1.06 5.22-.26l-1.06.71c-1.41.04-2.79-.11-4.16-.45z"/><path fill="#686f2f" d="M170.88 85.58c4.75-1.72 7.05 3.63 10.71 4.34.25-7.8 11.55 3.59 11.36-4.84-.58 4.06 2.44 7 5.1 9.56-2.4 1.35-4.67 3.9-7.65 2.52 1.74 4.75-5 4.31-7 1.42-2.52-2.95-5.39-.9-6.76 1.91-1.76-1.24-3.47-1.63-4.75.48-1.62-5.02 2.07-11.61-1.01-15.39z"/><path fill="#7e893c" d="M190.4 97.16c2.98 1.38 5.25-1.17 7.65-2.52l2.98 3.06c-.26 4.23-.64 8.6-5.33 10.04-1.76 1.11-1.8 2.63.2 3.47-2.27 2.81-7.47 5.95-5.11 0-3.81-.93-9.73-8.63-11.14-2.16-1.57-3.56-8.78-3.97-7.76-8.08 1.28-2.11 2.99-1.72 4.75-.48 1.37-2.81 4.24-4.86 6.76-1.91 2 2.89 8.74 3.33 7-1.42z"/><path fill="#6d753e" d="M163.37 96.31c7.72-5.27 2.84 8.32 8.52 4.66-1.02 4.11 6.19 4.52 7.76 8.08 2.24 3.74 2.14 8.28 4.32 11.97l-8.06.16c2.54-3.26 6.08-7.38.79-9.99-6.83-1.24-7.41 4.54-6.83 9.98-1.67-2.99-3.86-5.6-6.01-8.24 2.46-3.6 8.04-2.46 11.53-4.61l-14.87-.42c.59 2.82-.57 5.43-1.93 7.83-5.06 1.83-1.16-6.5-5.21-8.15-2.56-1.69-.39-3.13 1.74-3.45 5.05-.27 3.28-7.2 8.25-7.82z"/><path fill="#766a30" opacity=".98" d="M201.03 97.7l3.16 2.44c2.32 1.7 4.58 1.87 6.79.5 7.63 3.43 10.53 13.46 6.33 20.66l-.13-1.04c-.45-3.88-.76-7.82-2.06-11.53-.51-4.2-3.75-5.8-6.62-2.37-5.6.29-6.26 6.86-11.51 7.71.05-2.58 3.58-3.38 3.11-6.2-1.89.39-2.93 2.08-4.2 3.34-2-.84-1.96-2.36-.2-3.47 4.69-1.44 5.07-5.81 5.33-10.04z"/><path fill="#3a3116" opacity=".71" d="M204.19 100.14c2.23-1.14 4.49-.97 6.79.5-2.21 1.37-4.47 1.2-6.79-.5z"/><path fill="#8d7f4f" d="M208.5 106.36c2.87-3.43 6.11-1.83 6.62 2.37-4.92-1.08-5.92 11.09-.22 8.75l.21 2.54c-4.68.53-6.81-3.62-6.45-7.97-4.58-.53-6.88 2.46-8.58 6.15 2.3-5.01-1.67-3.22-3.09-4.13 5.25-.85 5.91-7.42 11.51-7.71z"/><path fill="#8e9d5b" d="M179.65 109.05c1.41-6.47 7.33 1.23 11.14 2.16-2.36 5.95 2.84 2.81 5.11 0 1.27-1.26 2.31-2.95 4.2-3.34.47 2.82-3.06 3.62-3.11 6.2 1.42.91 5.39-.88 3.09 4.13 1.7-3.69 4-6.68 8.58-6.15-.36 4.35 1.77 8.5 6.45 7.97l2.07.24.13 1.04-.78 1.61.07 5.18.65.68c-3.36 7.38-4.54-6.17-8.06-5.73-.73 2.94-1.64 5.91-5.29 5.83-5.26-1.27-7.55-5.36-7.57-11.21-.67-3.87-4.55-.04-5.94 1.5-2.59-1.96-3.94 1.85-6.42 1.86-2.18-3.69-2.08-8.23-4.32-11.97z"/><path fill="#b09e80" d="M214.9 117.48c-5.7 2.34-4.7-9.83.22-8.75 1.3 3.71 1.61 7.65 2.06 11.53l-2.07-.24-.21-2.54z"/><path fill="#907e49" d="M169.87 121.17c-.58-5.44 0-11.22 6.83-9.98 5.29 2.61 1.75 6.73-.79 9.99l-.86.12c3.85-7.41-5.97-2.2 0 0l-5.18-.13z"/><path fill="#7d8440" d="M190.39 119.16c1.39-1.54 5.27-5.37 5.94-1.5.02 5.85 2.31 9.94 7.57 11.21 3.65.08 4.56-2.89 5.29-5.83 3.52-.44 4.7 13.11 8.06 5.73 6.79 8.23 14.19 16.56 17 27.13l-.33 7.17c-6.92-4.28-14.02 4.02-21.14.74.83-4.2-2.08 1.33-3.29-1.28-4.34-2.35 0-6.09.78-9.34 4.19.75 6.31-2.75 8.85-5.34 1.47 2.45-1.33 6.54 1.73 8.11.42-2.02.33-4.61 3.2-4.08.63-1.5-1.55-14.36-6.23-7.6-.39-3.99-4.74-7.73.25-10.46-5.75 5.38-10.52-2.25-17.06-.67.23 4.69 2.04 9.21 4.91 12.89-2.25.31-4.51.62-6.74 1.05.88 1.6 1.96 3.09 2.7 4.76-1.95 3.41-5.38.6-8.28.59 1.4-2.58.83-10.58 5.07-6.86 5.15-3.86-2.65-7.04-4.19-2.2.35 4.74-4.6 2.41-7.54 3.39-.84-3.45 3.1-2.39 4.92-3.93 1.13-2.55-2.18-1.54-3.63-1.98.73-1.93 1.72-3.8 1.86-5.89-2.29-.37-4.13 1.06-6.04 2.02-1.57-4.49 2.7-8.74.94-13.18 2.38-.79 4.08-2.59 5.4-4.65z"/><path fill="#d3c5af" d="M175.05 121.3c3.85-7.41-5.97-2.2 0 0z"/><path fill="#6b7541" d="M178.98 128.96c1.66-2.72 1.76-7.66 6.01-5.15 1.76 4.44-2.51 8.69-.94 13.18 1.91-.96 3.75-2.39 6.04-2.02-.14 2.09-1.13 3.96-1.86 5.89 1.45.44 4.76-.57 3.63 1.98-1.82 1.54-5.76.48-4.92 3.93 2.94-.98 7.89 1.35 7.54-3.39 1.54-4.84 9.34-1.66 4.19 2.2-4.24-3.72-3.67 4.28-5.07 6.86-1.42 2.82.14 3.92 2.93 3.93.15 3.45 3.78 11.4-1.48 10.61 3.26-3.46-3.89-10.23-2.71-4.16-7.85 4.77-2.35-8.36-4.05-12.11-2.4-3.69-3.06 1.63-4.52 3.38-2.26-.97-.5-5.96-3.6-4.87-3.98 2.08-8.34 3.39-12.01 6.03-1.52-2.69.33-4.92 1.58-7.21-.92-1.92-2.09-3.82-1.79-6.05 3.6.08 7.16 1.06 10.76.8 3.53-4.37-7.01-2.8-6.8-7.77.57-3.33 5.42-3.31 7.07-6.06z"/><path fill="#505e2d" opacity=".75" d="M216.6 128.09l-.07-5.18c1.14 1.5 1.28 3.67.07 5.18z"/><path fill="#806d2f" d="M201.01 133.15c6.54-1.58 11.31 6.05 17.06.67-4.99 2.73-.64 6.47-.25 10.46.29 1.24.82 2.4 1.3 3.57-2.54 2.59-4.66 6.09-8.85 5.34-1.32-2.46-2.66-4.92-4.35-7.15-2.87-3.68-4.68-8.2-4.91-12.89m8.2 7.95c-2.88 1.83-.46 6.2 2.72 4.9 4.24-.49-.48-5.3-2.72-4.9z"/><path fill="#b5a284" d="M209.21 141.1c2.24-.4 6.96 4.41 2.72 4.9-3.18 1.3-5.6-3.07-2.72-4.9z"/><path fill="#8e9860" d="M217.82 144.28c4.68-6.76 6.86 6.1 6.23 7.6-2.87-.53-2.78 2.06-3.2 4.08-3.06-1.57-.26-5.66-1.73-8.11-.48-1.17-1.01-2.33-1.3-3.57z"/><path fill="#262a17" opacity=".64" d="M133.88 150.03c.16-1.76.42-3.52.95-5.2-.15 3.31.91 7.22-.73 10.2l-.04-.94-.18-4.06z"/><path fill="#909c59" d="M199.18 147.09l6.74-1.05c1.69 2.23 3.03 4.69 4.35 7.15-.78 3.25-5.12 6.99-.78 9.34 1.21 2.61 4.12-2.92 3.29 1.28l-1.85 6.11c-2.51.33-5.81.71-6.12 3.89 5.89-2.44 3.24 5.68.61 8.06-.77-3.66-2.55 2.21-5.01 1.36 1.93-4.09-3.01-3.85-5.48-5.31-1.88-3.86-3.58-.99-5.91-2.11 2.27-3.89 3.88-8.34 3.32-12.99-1.18-6.07 5.97.7 2.71 4.16 5.26.79 1.63-7.16 1.48-10.61-2.79-.01-4.35-1.11-2.93-3.93 2.9.01 6.33 2.82 8.28-.59-.74-1.67-1.82-3.16-2.7-4.76z"/><path fill="#5e663b" d="M168.16 155.25c3.67-2.64 8.03-3.95 12.01-6.03 3.1-1.09 1.34 3.9 3.6 4.87 1.46-1.75 2.12-7.07 4.52-3.38 1.7 3.75-3.8 16.88 4.05 12.11.56 4.65-1.05 9.1-3.32 12.99 2.33 1.12 4.03-1.75 5.91 2.11-.59 1.39-.68 2.85-.24 4.3-.37 2.17-1.4 4.21-1.03 6.46-2.37-.96-5.2 1.04-2.08 2.75 4.45 2.08-4.24 4.09-.55 6.48 3.27 1.17.69 4.77-1.97 4.31-4.14-6.08-5.01.75-8.78 3.24-1.04 3.23 1.55 5.15 2.82 7.57-2 1.57-6.43 6.6-4.59-1.58-.54-2.96-3.42-1.03-3.35 1.14-4.48-1.22-8.47 1.97-12.74 2.8-.12 3.13 1.24 10.05-3.21 9.5-2.32-2.21-2.83-5.5-.7-8-1.14-3.61-.01-8.71-3.64-10.79-3.11-2.87-9.29 2.64-10.67-2.97 2.38-4.16 2.21-9.04.05-13.19.96-3.99 6.22-4.05 9.59-3.03 1.02-7.35 11.5-18.76 18-10.74 3.68 6.21 14.26-5.03 5.15-4.4 3.47-4.09.94-7.28-3.84-7.88 2.75 7.5-4.99 2.48-7.78-.2-.95-5.55-9.43-.5-9.28-5.58.19-7.56 12.26 4.97 12.07-2.86m20.13 23.02c-5.65 1.33-3.12 11.79 3.46 7.63 2.83-3.17.47-7.94-3.46-7.63z"/><path fill="#4c5129" d="M153.38 160.63c3.91 1.3 7.97 2.11 11.99 3.06 2.79 2.68 10.53 7.7 7.78.2 4.78.6 7.31 3.79 3.84 7.88 9.11-.63-1.47 10.61-5.15 4.4-6.5-8.02-16.98 3.39-18 10.74-3.37-1.02-8.63-.96-9.59 3.03 2.16 4.15 2.33 9.03-.05 13.19 1.38 5.61 7.56.1 10.67 2.97 3.63 2.08 2.5 7.18 3.64 10.79-2.13 2.5-1.62 5.79.7 8 4.45.55 3.09-6.37 3.21-9.5 4.27-.83 8.26-4.02 12.74-2.8.21 3.59-5.5 1.54-5.39 5.25-3.7 8.35 5.04 17.79 13.15 18.23l.01.8c-8.53 4.14-20.25-8.14-24.6 4.25 3.29 5.26 4.06 12.39 9.95 15.58 3.89 1.78 3.78 8.73 9.74 6.34 2.46-.41 2.97 2.45 4.1 4l-2.33.21c-6.05-1.99-11.66-5.22-17.78-7.08-1.98-2.52-3.7-5.23-4.95-8.17l-2.88-9.09c-.31-1.47-.56-3.06-1.81-4.05l-1.21-1.11c-.9-.77-1.9-1.39-2.91-1.97-7.29-5.25-9.98-14.1-9.82-22.76-.93-1.12-1.96-2.14-2.94-3.2l-2-3c-.54-1.24-1.11-2.46-1.56-3.73l-.07-13.23c1.11-4.31 8.17-8.52 2.49-12.17l-1.34-3.62-.83-2.16-.34-4.72c3.12-3.72 7.71 2.23 9.93-2.35 1.41-5.78 9.39 1.34 11.61-4.21z"/><path fill="#58662d" d="M212.78 163.81c7.12 3.28 14.22-5.02 21.14-.74l.66.23c.34.18 1.01.55 1.34.74 3.86 1.39 8.18.64 12.24.92 7.65 1.42 16.19 2.87 21.91 8.58-3.19 1.72.65 3.58-.68 6.1-.01 1.95-3.05 5.68.48 5.47-1.2 1.03-2.53 1.89-3.8 2.83l-4.18 2.04a95.9 95.9 0 0 1 .93-6.08c5.64-3.64 1.84-13.88-4.66-12.72-3.91-.21.13-8.74-7.18-4.08-4.2-.91-6.24 2.99-7.98 5.63-1.77-3.3-7.03-2.61-10.69-4.27-1.49 2.6-3.36 7.81-5.86 3.09-3.38.03-4.6 7.54-4.42 10.26 2.86 3.37 8.88.34 8.28-3.9.97 4.1 4.73 6.45 6.52 10.15 1.71-2.26 2.46-7.98 6.01-4.81.11 2.75-1.8 6.89 2.15 7.67 3.23-.07 2.74-2.5 1.76-4.77 2.53.63 5.26 2.35 7.52.14 7.04-2.45-3.36 7.83 3.83 5.91-2.08 1.2-4.44 1.93-6.85 1.65-4.08-.41-8.55-1.8-12.5-.11-1.28.43-2.53.94-3.8 1.39-2.86-.91-5.81-1.48-8.76-2-8.56-2.29-16.84-8.3-15.38-18.46l.12-4.75a159.35 159.35 0 0 1 1.85-6.11z"/><path fill="#495a2a" opacity=".98" d="M299.16 167.13c3.85-2.7 9.04-6.52 12.91-1.55-4.05 1.18-5.48 5.39-6.69 9.03-.78 2.81-4.57.85-6.35 2.59-.1 4.19 3.71 7.25 7.21 8.87-6.52 2.83-7.37-6.71-13.67-3.88.91-2.5 2.75-4.84 1.72-7.89 3.16-1.75 11.97-4.15 4.87-7.17z"/><path fill="#414c21" d="M271.76 175.14c3.22-3.53 5.75-8.04 10.08-10.31l3.22.07-.42.78c-4.48 1.01-.4 7.91-4.63 8.36-7.95 1.48-.78 14.33-6.75 17.43-5.84-4.13-8.58 5.87-6.91 10.3-3.32 2.77-1.69 6.62-1.33 10.27-2.08.38-3.75-.69-5.23-1.98-4.16 1.84-3.64 7.13-2.93 10.78-5.94-2.47-11.03 2.54-11.99 7.94-2.6.16-6.62 3.89-8.24.74 6.2.74 5.94-5.21 5.33-9.76-.33-2.35-1.44-4.49-1.99-6.79 6.15 3.52 6.36-5.92 10.42-8.61 4.4-6 14.37-8.52 15.68-16.42 1.27-.94 2.6-1.8 3.8-2.83 2.89-2.64 3.65-6.46 1.89-9.97z"/><path fill="#7a8c4d" d="M285.06 164.9l5.17-.09 2.82 1.09c1.61 2.89 4.68 9.76-2.85 7.45-1.52 2.57 1.01 6.46-1.44 8.24-1.83-.32-3.08.14-3.15 2.21-2.21-1.33-4.5-1.03-6.68.19-.68-3.72 1.88-6.48 4.75-8.34 3.43-2.37 1.21-6.69.96-9.97l.42-.78z"/><path fill="#636e36" d="M280.01 174.04c4.23-.45.15-7.35 4.63-8.36.25 3.28 2.47 7.6-.96 9.97-2.87 1.86-5.43 4.62-4.75 8.34 2.18-1.22 4.47-1.52 6.68-.19.07-2.07 1.32-2.53 3.15-2.21 2.45-1.78-.08-5.67 1.44-8.24 7.53 2.31 4.46-4.56 2.85-7.45l6.11 1.23c7.1 3.02-1.71 5.42-4.87 7.17 1.03 3.05-.81 5.39-1.72 7.89.22 3.79 2.83 6.69 4.48 9.93-3.21-.47-3.86-4.49-6.6-5.86-1.46 1.17-2.94 2.35-4.03 3.9-1.11-1.54-1.72-3.33-2.21-5.14-6.4-2.84-5.8 2.81-5.01 6.72 2.28 2.95 5.27 5.25 7.85 7.93-3.71 6.22-4.63-7.6-8.08-1.71-1.84 5.15-6.16 3.25-10.05 1.9.42 1.61 3.73 4.59.15 4.17-4.81-.1-.24 6.92-2.28 9.88l-.88.39c-5.06.93 1.46 5.07-3.53 5.32-2.15 12.22-.08-2.61-4.36-1.73 2.62 4.5-.39 8.78.75 13.29-2.61-2.3-7.71-6.03-9.71-1.12-2.11 3.05-6.05 13.03.72 11.47 3.41-1.05 5.68 2.88 9.01 2.45 2.68-2.7.56-9.55 6.08-8.02-2.66 5.51 2.68 2.17 5.23 5.15-2.74 4.09-2.59 12.1-10.13 9.82-4.98-.87-7.35 3.85-10.78 6.27l-9.35-.15c-1.04-.22-2.08-.37-3.13-.45 1.79-1.54 4.3-1.55 6.42-2.43 1.87-.93 3.54-2.22 5.21-3.46 3.34-1.43-.04-3.1-1.55-4.58.24-2.42 8.67 2.3 7.12-1.93-3.48-1.23-9.04.19-10.57-4.25-.12-2.01-.45-3.83-2.41-1.89-4.06.47-.77-7.68 2.4-5.5 2.69 1.29 1.25-2.33 1.54-3.78.96-5.4 6.05-10.41 11.99-7.94-.71-3.65-1.23-8.94 2.93-10.78 1.48 1.29 3.15 2.36 5.23 1.98-.36-3.65-1.99-7.5 1.33-10.27-1.67-4.43 1.07-14.43 6.91-10.3 5.97-3.1-1.2-15.95 6.75-17.43z"/><path fill="#828b4d" d="M305.38 174.61c1.21-3.64 2.64-7.85 6.69-9.03l3 2.39c.84 3.84-.66 8.23 3.9 10.17a9.15 9.15 0 0 0 .16 3.86c-3.5 2.93-.16 7.95-3.17 11.13-3.18 5.7-11.54-1.52-5.06-4.14-2.85 3.62 1.92 7.21 3.87 2.65 3.52-8.14-1.2-2.51-3.87-2.65.86-1.78 3.7-5.09.4-5.83-2.1 2.63-4.74 4.7-7.27 6.88-1.68 3.41.26 8.24-3.46 10.64.9 2.42 3.88 4.28 3.23 7.05-.91 2.64-3.28-.07-4.86-.58.01 1.69.1 3.39.18 5.08-11.01-.78-7.11-15.38-12.7-22.07 1.09-1.55 2.57-2.73 4.03-3.9 2.74 1.37 3.39 5.39 6.6 5.86-1.65-3.24-4.26-6.14-4.48-9.93 6.3-2.83 7.15 6.71 13.67 3.88-3.5-1.62-7.31-4.68-7.21-8.87 1.78-1.74 5.57.22 6.35-2.59m1.79 1.6c-2.26 1.36-5.28 7.82-.82 7.27 4.03.7 4.17-7.18.82-7.27z"/><path fill="#758745" d="M243 172.73c1.74-2.64 3.78-6.54 7.98-5.63 7.31-4.66 3.27 3.87 7.18 4.08-3.26 3.81-8.42 2.27-12.07-.23-2.21 4.46-4.97 12.02.66 15.2.98 2.27 1.47 4.7-1.76 4.77-3.95-.78-2.04-4.92-2.15-7.67-3.55-3.17-4.3 2.55-6.01 4.81-1.79-3.7-5.55-6.05-6.52-10.15.6 4.24-5.42 7.27-8.28 3.9-.18-2.72 1.04-10.23 4.42-10.26 2.5 4.72 4.37-.49 5.86-3.09 3.66 1.66 8.92.97 10.69 4.27z"/><path fill="#80823f" d="M204.81 173.81c.31-3.18 3.61-3.56 6.12-3.89l-.12 4.75c-4.1 3.34-1.53 9.27-3.81 13.24 4.97-2.19 6.71 2.77 7.04 7.06 3.45-5.58 10.35 1.95 12.15-1.84 2.95.52 5.9 1.09 8.76 2 1.22 4.57.47 9.15-.52 13.69 1.77 1.48 3.74 2.7 5.54 4.15.55 2.3 1.66 4.44 1.99 6.79-3.69 3.25-7.2-.35-10.91 1.4 1.36 3 1.94 7.38 5.58 8.36 1.62 3.15 5.64-.58 8.24-.74-.29 1.45 1.15 5.07-1.54 3.78-3.17-2.18-6.46 5.97-2.4 5.5-1.99 3.47-6.62 2.69-9.89 4.07-6.03-6.65 7.17-3.72 1.22-7.45-7.03-9.39-8.23 10.32-15.32 6.53.44-1.23.85-2.47 1.25-3.71 5.06-.67 8.3-6.49 4.6-10.44-4.5.38-3.97 6.95-4.6 10.44-4.43-3.35.32-11.91 5.5-11.97 1.32-2.71.94-5.76.8-8.66 1.56-2.48-.11-4.96.07-7.58-2.91-.52-5.83-1.12-8.45-2.56 1.66-1.6 3.74-3.12 2.89-5.75-4.49-1.58-2.45 5.84-6.76 4.47-3.01 2.82 1.35 7.73 1.64 11.36-2.65.46-5.78 5.61-8.46 2.84-1.68-1.65-3.12 1.24-1.41 2.34 2.97 3.21-7.67 10.5-3.05 5.07-2.47.63-11.87-4.06-6.78 1.71-6.87-2.51-7.73 4.67-10.64 8.46l-.61-.36-.01-.8c.95-4.88-4.14-7.86-4.35-12.51-.19-3.89-.44-8.1-3.41-10.97-.07-2.17 2.81-4.1 3.35-1.14-1.84 8.18 2.59 3.15 4.59 1.58-1.27-2.42-3.86-4.34-2.82-7.57 3.77-2.49 4.64-9.32 8.78-3.24-3.81 3.36-.83 10.11 4.81 6.21 2.37-1.58 5.09-2.35 7.8-3.17 2.67-1.66 4.9 1.14 7.38 1.87-.63-5.98-4.17-10.96-8.25-14.85.11-1.96-5.21-15.79-6.11-10.06-.44-1.45-.35-2.91.24-4.3 2.47 1.46 7.41 1.22 5.48 5.31 2.46.85 4.24-5.02 5.01-1.36 2.63-2.38 5.28-10.5-.61-8.06m25.35 21.35c-1 4.64 4.64-1 0 0m-2.51 1.92l-7.82 2.02c.56 2.38 2.62 3.97 3.96 5.93-1.43-4.94 8.04-3.4 3.86-7.95m-45.45 19.27c-4.08.93-3.74 10.45 1.6 9.54 2.66-1.84-.83-4.65-.89-6.99 2.73.87 3.17 4.58 5.87 5.14-.79-4.72 3.5-2.17 6.23-2 .01-6.7-8.59-3.47-12.81-5.69z"/><path fill="#98a964" d="M246.09 170.95c3.65 2.5 8.81 4.04 12.07.23 6.5-1.16 10.3 9.08 4.66 12.72-1.63.77-5.34 3.93-4.81.13.48-3.6-3.99-1.91-3.42.91-2.42.23-2.45-3.41-4.47-3.75-1.39 1.46-2.36 3.24-3.37 4.96-5.63-3.18-2.87-10.74-.66-15.2z"/><path fill="#879249" d="M269.39 179.64c1.33-2.52-2.51-4.38.68-6.1l1.69 1.6c1.76 3.51 1 7.33-1.89 9.97-3.53.21-.49-3.52-.48-5.47z"/><path fill="#8d9d5f" d="M207 187.91c2.28-3.97-.29-9.9 3.81-13.24-1.46 10.16 6.82 16.17 15.38 18.46-1.8 3.79-8.7-3.74-12.15 1.84-.33-4.29-2.07-9.25-7.04-7.06z"/><path fill="#b3ae5a" d="M307.17 176.21c3.35.09 3.21 7.97-.82 7.27-4.46.55-1.44-5.91.82-7.27z"/><path fill="#7b8950" d="M188.29 178.27c3.93-.31 6.29 4.46 3.46 7.63-6.58 4.16-9.11-6.3-3.46-7.63z"/><path fill="#919957" d="M194.69 182.22c.9-5.73 6.22 8.1 6.11 10.06 4.08 3.89 7.62 8.87 8.25 14.85-2.48-.73-4.71-3.53-7.38-1.87 2.39-4.85.86-11.75-5.64-11.45.66 2.71 2.3 4.96 3.89 7.19-1.69 1.39-3.91.01-5.84.1-.51 2.34-1.12 4.99-.21 7.33-5.64 3.9-8.62-2.85-4.81-6.21 2.66.46 5.24-3.14 1.97-4.31-3.69-2.39 5-4.4.55-6.48-3.12-1.71-.29-3.71 2.08-2.75-.37-2.25.66-4.29 1.03-6.46z"/><path fill="#738137" d="M250.12 181.19c2.02.34 2.05 3.98 4.47 3.75-.57-2.82 3.9-4.51 3.42-.91-.53 3.8 3.18.64 4.81-.13l-.93 6.08-3.79 2.22c-7.19 1.92 3.21-8.36-3.83-5.91-2.26 2.21-4.99.49-7.52-.14 1.01-1.72 1.98-3.5 3.37-4.96z"/><path fill="#535930" d="M311.3 183.16c3.3.74.46 4.05-.4 5.83-6.48 2.62 1.88 9.84 5.06 4.14l1.2 2.62c-4.71.32-8.6 3.27-12.2-.92.85 5.02 6.31 9.3 3.51 14.49-1.33 2.09 1.17 1.73 2.54 2.01-4.07.51-8.22-1.87-11.89.9l-.18-5.08c1.58.51 3.95 3.22 4.86.58.65-2.77-2.33-4.63-3.23-7.05 3.72-2.4 1.78-7.23 3.46-10.64 2.53-2.18 5.17-4.25 7.27-6.88z"/><path fill="#4a491e" d="M279.2 191.74c-.79-3.91-1.39-9.56 5.01-6.72.49 1.81 1.1 3.6 2.21 5.14 5.59 6.69 1.69 21.29 12.7 22.07-1.37.59-2.76 1.12-4.14 1.66-2.25.72-4.44 1.69-6.24 3.26-3.03-5.48 3.45-13.24-1.69-17.48-2.58-2.68-5.57-4.98-7.85-7.93z"/><path fill="#b4b160" d="M310.9 188.99c2.67.14 7.39-5.49 3.87 2.65-1.95 4.56-6.72.97-3.87-2.65z"/><path fill="#a7b56c" d="M196.03 193.81c6.5-.3 8.03 6.6 5.64 11.45-2.71.82-5.43 1.59-7.8 3.17-.91-2.34-.3-4.99.21-7.33 1.93-.09 4.15 1.29 5.84-.1-1.59-2.23-3.23-4.48-3.89-7.19z"/><path fill="#d7cdbf" d="M230.16 195.16c4.64-1-1 4.64 0 0z"/><path fill="#878950" opacity=".98" d="M304.96 194.83c3.6 4.19 7.49 1.24 12.2.92 1.26 1.44-.24 2.97-.73 4.4-.98-4.74-5.77-1-6.49 1.98 2.35.1 4.49-.86 6.49-1.98-.44 2.65-.64 5.31-.99 7.99.17-5.28-9.57 1.71-3.17 2.46l-1.26.73c-1.37-.28-3.87.08-2.54-2.01 2.8-5.19-2.66-9.47-3.51-14.49z"/><path fill="#858c50" d="M278.97 197.96c3.45-5.89 4.37 7.93 8.08 1.71 5.14 4.24-1.34 12 1.69 17.48-.35 1.04-.77 2.06-1.26 3.05l-.87-.28c-2.76-1.37-4.46.94-2.85 3.44-3.18 1.89-7.44 2.64-8.5 6.85-1.8 2.43 2.81.14 1.97 2.9-1.47 3.35-4.44 5.65-7.13 8-2.55-2.98-7.89.36-5.23-5.15-5.52-1.53-3.4 5.32-6.08 8.02-3.33.43-5.6-3.5-9.01-2.45-6.77 1.56-2.83-8.42-.72-11.47 2-4.91 7.1-1.18 9.71 1.12-1.14-4.51 1.87-8.79-.75-13.29 4.28-.88 2.21 13.95 4.36 1.73 4.99-.25-1.53-4.39 3.53-5.32 1.98 2.36 3.22 4.83 1.09 7.57 11.54 1.17.98.94-1.68 2.36-2.04 4.57-6.27 7.4-10.45 9.57 3.96 1.39 10.14 1.96 11.8-2.98.7-3.81 3.8-4.42 6.92-4.8-.33-2.37-1.53-6.11 2.14-6.1.54 1.54-.49 4.87 2.2 4.03 2.61-5.35-.93-9.35-3.27-13.66-2.6 1.25-5.11 2.73-7.87 3.62 2.04-2.96-2.53-9.98 2.28-9.88 3.58.42.27-2.56-.15-4.17 3.89 1.35 8.21 3.25 10.05-1.9z"/><path fill="#5f5c27" d="M227.65 197.08c4.18 4.55-5.29 3.01-3.86 7.95-1.34-1.96-3.4-3.55-3.96-5.93l7.82-2.02z"/><path fill="#b9b980" d="M309.94 202.13c.72-2.98 5.51-6.72 6.49-1.98-2 1.12-4.14 2.08-6.49 1.98z"/><path fill="#819053" d="M212.24 205.45c4.31 1.37 2.27-6.05 6.76-4.47.85 2.63-1.23 4.15-2.89 5.75 2.62 1.44 5.54 2.04 8.45 2.56-.18 2.62 1.49 5.1-.07 7.58-1.6-1.81-3.69-2.88-6.06-3.26.83-2.58-1.29-3.42-3.5-3.7-1.87 3.5 7.41 7.48 2.08 8.08-5.08.52 1.91 2.41 2.23 4.72-7.41.42-11 8.51-6.17 14.19a93.02 93.02 0 0 1-2.91 2.34c-.52-5.15-4.47.28-3.48 3-1.38-5.39-4.75-5.25-8.03-1.24-.86-2.68-1.3-6.59-4.83-4.08-.3-1.99-.66-3.97-1.08-5.94-7.48.51-.87 10.68 2.34 12.55.99.57 1.94 1.19 2.94 1.77-1.79 1.26-2.23 3.52-2.86 5.48-2.54-5.62-8.14-8.69-11.62-13.55 2.91-3.79 3.77-10.97 10.64-8.46-5.09-5.77 4.31-1.08 6.78-1.71-4.62 5.43 6.02-1.86 3.05-5.07-1.71-1.1-.27-3.99 1.41-2.34 2.68 2.77 5.81-2.38 8.46-2.84-.29-3.63-4.65-8.54-1.64-11.36z"/><path fill="#b7b47d" opacity=".97" d="M312.27 210.6c-6.4-.75 3.34-7.74 3.17-2.46-.91.99-2.03 1.76-3.17 2.46z"/><path fill="#6e7d38" d="M214.93 209.91c2.21.28 4.33 1.12 3.5 3.7 2.37.38 4.46 1.45 6.06 3.26-3.09.77-3.42 4.11-5.25 5.84-.32-2.31-7.31-4.2-2.23-4.72 5.33-.6-3.95-4.58-2.08-8.08z"/><path fill="#96a562" d="M266.79 213.91c2.76-.89 5.27-2.37 7.87-3.62 2.34 4.31 5.88 8.31 3.27 13.66-2.69.84-1.66-2.49-2.2-4.03-3.67-.01-2.47 3.73-2.14 6.1-3.12.38-6.22.99-6.92 4.8-1.66 4.94-7.84 4.37-11.8 2.98 4.18-2.17 8.41-5 10.45-9.57 2.66-1.42 13.22-1.19 1.68-2.36 2.13-2.74.89-5.21-1.09-7.57l.88-.39z"/><path fill="#6b5a34" d="M175.16 212.59c2.97 2.87 3.22 7.08 3.41 10.97.21 4.65 5.3 7.63 4.35 12.51-8.11-.44-16.85-9.88-13.15-18.23-.11-3.71 5.6-1.66 5.39-5.25z"/><path fill="#9d9d62" d="M182.2 216.35c4.22 2.22 12.82-1.01 12.81 5.69-2.73-.17-7.02-2.72-6.23 2-2.7-.56-3.14-4.27-5.87-5.14.06 2.34 3.55 5.15.89 6.99-5.34.91-5.68-8.61-1.6-9.54z"/><path fill="#575629" d="M219.24 222.71c1.83-1.73 2.16-5.07 5.25-5.84.14 2.9.52 5.95-.8 8.66-5.18.06-9.93 8.62-5.5 11.97l-1.25 3.71c-2.09-.49-2.68-2.8-3.87-4.31-4.83-5.68-1.24-13.77 6.17-14.19z"/><path fill="#c6b89f" d="M283.76 223.36c-1.61-2.5.09-4.81 2.85-3.44l-2.85 3.44z"/><path fill="#869b57" d="M231.05 221.16c3.71-1.75 7.22 1.85 10.91-1.4.61 4.55.87 10.5-5.33 9.76-3.64-.98-4.22-5.36-5.58-8.36z"/><path fill="#6e652a" opacity=".92" d="M286.61 219.92l.87.28c-1.29 6.08-8.46 7.27-10.25 12.91.84-2.76-3.77-.47-1.97-2.9 1.06-4.21 5.32-4.96 8.5-6.85 1.01-1.09 1.91-2.29 2.85-3.44z"/><path fill="#a08b68" d="M218.19 237.5c.63-3.49.1-10.06 4.6-10.44 3.7 3.95.46 9.77-4.6 10.44z"/><path fill="#9aaf71" d="M195.08 243.53c-3.21-1.87-9.82-12.04-2.34-12.55.42 1.97.78 3.95 1.08 5.94.15 2.25.48 4.48 1.26 6.61z"/><path fill="#93a160" d="M216.94 241.21c7.09 3.79 8.29-15.92 15.32-6.53 5.95 3.73-7.25.8-1.22 7.45 3.27-1.38 7.9-.6 9.89-4.07 1.96-1.94 2.29-.12 2.41 1.89-2.42 7.64-13.3 5.72-18.44 2.07-2.29 3.16-5.56 5.46-9.66 4.32-1.03 2.59-2.98 4.47-5.89 4.62 1.06-3.67-4.18-3.32-2.45-6.11 5.18 1.29 5.21-2.08 3.26-5.61a93.02 93.02 0 0 0 2.91-2.34c1.19 1.51 1.78 3.82 3.87 4.31z"/><path fill="#625d2f" d="M158.33 241.12c4.35-12.39 16.07-.11 24.6-4.25l.61.36c3.48 4.86 9.08 7.93 11.62 13.55l.57.65c1.28 3.4-3.1 4.89-4.41 1.65-3.04-3.96-9.42-4.69-10.2-10.28-2.59-1.52-7.96-6.45-9.18-1.21-4.85 6.09 2.15 13.2 3.43 19.21 4.34 2.67 8.31-1.2 12.65-.05-.44-1.87-3.76-5.36.14-4.96l.94-.06c2.28.75 2 4.72 4.76 4.26 2.34.57-.03-4.66 2.22-3.9 3.12.82.33 4.8 2.05 6.89 3.11-2.1 6.52-1.95 9.71-.07 2.6 1.22 5.67 1.07 8.4.37l.83-.18c-2.03 2.69-4.6 5.03-7.78 6.23l-8.48-.17c-2.74-1.06-5.44-2.61-8.5-1.96l-10.19-.16c-1.13-1.55-1.64-4.41-4.1-4-5.96 2.39-5.85-4.56-9.74-6.34-5.89-3.19-6.66-10.32-9.95-15.58z"/><path fill="#756a3a" d="M193.82 236.92c3.53-2.51 3.97 1.4 4.83 4.08 4.42.71 3.56 4.4-.63 4.3l-2.94-1.77c-.78-2.13-1.11-4.36-1.26-6.61z"/><path fill="#92a169" d="M198.65 241c3.28-4.01 6.65-4.15 8.03 1.24l.22 2.61c-1.95 1.88-7.73 2.72-5.11 6.32 3.36 4.14-3.84.86-6.06.26l-.57-.65c.63-1.96 1.07-4.22 2.86-5.48 4.19.1 5.05-3.59.63-4.3z"/><path fill="#676839" d="M206.68 242.24c-.99-2.72 2.96-8.15 3.48-3 1.95 3.53 1.92 6.9-3.26 5.61l-.22-2.61z"/><path fill="#8a8355" d="M171.94 241.59c1.22-5.24 6.59-.31 9.18 1.21.78 5.59 7.16 6.32 10.2 10.28-.7.92-1.44 1.8-2.22 2.65l-.94.06c-2.04-3.43-6-5.16-7.74-8.74-1.79 1.94-3.57 4.63.6 4.28-.16 3.88-4.31 6.31-3.47.91-5.74-.09-1.8-7.14-5.61-10.65z"/><path fill="#79853a" d="M243.34 239.95c1.53 4.44 7.09 3.02 10.57 4.25 1.55 4.23-6.88-.49-7.12 1.93 1.51 1.48 4.89 3.15 1.55 4.58-4.56-1.55-19.06 5.08-5.21 3.46-2.12.88-4.63.89-6.42 2.43-5.78 5.12-16.44-1.42-19.64 6.5l-.83.18c.16-1.86 1.19-4.14-.72-5.43-.79-1.34-2.45.15-3.56.22-2.3.63-4.43 2.18-4.12 4.84-3.19-1.88-6.6-2.03-9.71.07-1.72-2.09 1.07-6.07-2.05-6.89-2.25-.76.12 4.47-2.22 3.9-2.76.46-2.48-3.51-4.76-4.26.78-.85 1.52-1.73 2.22-2.65 1.31 3.24 5.69 1.75 4.41-1.65 2.22.6 9.42 3.88 6.06-.26-2.62-3.6 3.16-4.44 5.11-6.32-1.73 2.79 3.51 2.44 2.45 6.11 2.91-.15 4.86-2.03 5.89-4.62 4.1 1.14 7.37-1.16 9.66-4.32 5.14 3.65 16.02 5.57 18.44-2.07z"/><path fill="#7a6e34" d="M171.94 241.59c3.81 3.51-.13 10.56 5.61 10.65-.84 5.4 3.31 2.97 3.47-.91-4.17.35-2.39-2.34-.6-4.28 1.74 3.58 5.7 5.31 7.74 8.74-3.9-.4-.58 3.09-.14 4.96-4.34-1.15-8.31 2.72-12.65.05-1.28-6.01-8.28-13.12-3.43-19.21z"/><path fill="#a2b269" d="M243.13 254.17c-13.85 1.62.65-5.01 5.21-3.46-1.67 1.24-3.34 2.53-5.21 3.46z"/><path fill="#d2c5ae" d="M211.96 258.07c1.11-.07 2.77-1.56 3.56-.22-.58 3.15-4.53 4.61-3.56.22z"/><path fill="#a49267" d="M207.84 262.91c-.31-2.66 1.82-4.21 4.12-4.84-.97 4.39 2.98 2.93 3.56-.22 1.91 1.29.88 3.57.72 5.43-2.73.7-5.8.85-8.4-.37z"/><path fill="#2f3617" opacity=".73" d="M179.79 267.25l2.33-.21c3.4-.02 6.78.08 10.19.16-3.99 1.52-8.45.82-12.52.05z"/></svg>