<svg xmlns="http://www.w3.org/2000/svg" width="512" height="512" viewBox="0 0 384 384" xmlns:v="https://vecta.io/nano"><path fill="#5a6135" d="M181.09 26.13c2.76-2.72 6.76-4.4 9.65-.82 2.75 3.56 5.1-3.9 8.47-.68-5.26-.63-1.53 2.81-.07 5.12-4.56-1.71-8.02 2.26-9.39 6.18-5.22-3.89-7.82 1.83-12.24 3.49-.55 5.32-5.58-1.51-8.17 1.89-1.88.89-.31 1.92.62 2.89-.2 2.27-1.96 4.03-2.87 6.05 3.35-.07 5.5-5.02 8.77-2.01 2.4 4.52-7.24 8.25-2.1 11.56 1.03.63 1.79 1.46 2.3 2.5-2.7.69-4.96-1.33-7.08-2.66-4.02-7.32-7.86 9.15-14.97 6.13l-3.16 1.11c-2.51.42-7.71 2.21-5.2 5.52 1.69 1.74.35 3.97-.02 5.96-1.76-1.72-5.81-5.76-6.23-.97-4.62 8.89 7.16 1.32 8.54 6.63 1.58 5.35 8.03 2.28 11.88 1.38 4.31 2.56 5.74 7.8 9.03 11.39l-3.22 1.26c-3.43 2.7-9.13 1.97-10.8 6.28-4.27 1.91-1.91-4.93-6.01-4.99-6.17.37-5.35 9.34-11.87 9.92 2.31 3.45 4.09 7.07 5.67 10.9 2.31-3.14-.23-10.19 6.23-8.48 3.35.47 9.78-5.51 10.13.16-3.3 2.28-7.68 2.16-11.07 4.28 1.68 3.28 3.38 8.24 7.19 8.95 1.37-.03 2.74-.28 4.07-.62l.89-.23c1.99-.46 3.99-.93 6.02-1.2 3.16 1.08 4.15-3.1 6.96-2.65 1.89 5.09-6.62 4.22-4.5 8.96.71 3.38-3.89 2.25-5.41.7-3.06 3.88 4.11 4.39 3.34 8.07 1.09 3.7-3.95 6.61-2.35 9.94 4.19-1.81 3.39-9.99 8.93-9.1-2.48 4.27-3.2 8.48 3.1 6.04-2.36 2.97-6.31 3.46-9.25 5.63 9.32-.76 4.29 9.48 6.89 14.58 7.72 2 1.67 10.56 1 15.7 1.27-.58 2.51-1.23 3.78-1.82 1.18.31 2.36.58 3.55.81.1 2.75-1.05 5.41-.3 8.19l-2.66 1.09c2.21-4.78-4.9-9.54-8.12-4.93-1.68 7.19 3.02 7.46 8.12 4.93 2.57 4.49-5.04 3.84.49 7.14-2.76 2.13-2.64 5.8-.93 8.77-2.58.91-4.94-.4-7.3-1.24 2.75 5.24-7.65 3.77-3.97 9.64 2.21 4.9 8.47 4 10.4-.6-.16 2.31-.21 4.62-.22 6.93-2.87 1.85-6.66.67-9.61-.54-2.08 2.45-2.25 5.7-2.14 8.81.05 3 .24 6.05 1.08 8.96-3.85-4.32-10.02-8.37-8.96-15-1.04-3.63 5.98-.5 3.83-4.79-3.07-2.68-7.4 2.58-11.45 1.09-1.16 6.18-4.17-2.69-4.49-5.23-2.45-4.35-8.3-.97-11.85-3.28.18-2.97 1.04-5.89 2.15-8.64 2.65-1.01 1.05 3.77 3.92 2.83.64-3.97-4.47-4.4-5.54-7.64-1.85-2.69 1.77-4.45 2.37-6.87-2.3-.76-4.92-1.59-3.95-4.59 3.27.7 6.33 2.11 9.63 2.75 1.94-4.54 6.83-6.45 9.86-10.12 4.92-.33 8.69 7.66 13.38 3.21 2-3.19-3.81-3.93-1.85-6.74 1.76-3.63-3.97-5.79-6.85-6.24.61 1.76 1.36 3.48 1.94 5.26-5.97-3.59-12.04-8.16-19.44-6.39-5.44 1.73-7.25-5-11.59-6.63-2.92 3.07 4.84 3.13 2.88 6.86-.11 4.64-4.51 2.78-7.01 1.12-.87-7.61 6.34-12.41 3.03-20.04l.99-7.13c2.23-3.99-.92-7.64-2.8-11.03-1.84-8.51.24-16.7 5.03-23.7 5.39-3.19 2.55-10.1 5.02-14.93 3.08-5.64 3.56-12.24 2.18-18.47l-.47-2.62-.2-7.21c6.62-4.52 13.5-10.02 13.4-18.8 1.39-1.28 2.81-2.64 4.59-3.35 3.11-.17 6.65 1.17 9.48-.55 2.52-1.44 4.74-3.31 6.98-5.14 1.76-1.17.97-3.52.43-5.14 1.1-5.47 6.12-2.58 9.49-3.75z"/><path fill="#747a39" d="M199.14 29.75c-1.46-2.31-5.19-5.75.07-5.12 1.25.64 1.21 2.31 1.76 3.45.64 2.38 2.62 3.04 5.94 1.99 1.27 2.94 1.47 4.58-1.66 2.29-4.78 5.03 1.78 1.51 3.58 5.76 2.13.99 5.02.21 7.38 1.1l-.58 1.67c-2.99 6.4 8.43 1.95 12.28 3.12l.52.64c-6.31.55-13.43-.98-19.01 2.82-4.31 3.84-5.72-4.92-7.8-7.95-.81-3.55-4.38-5.26-7.45-6.55-6.27 6.56 7.55 6.47 7.32 12.8-.54 3.47.45 6.75 1.23 10.05 2.86-1.01 5.28-.6 6.61 1.94 3.79.5 3.76-8.22 6.71-3.88 3.11-2.55 7.37-3.84 11.31-2.79-2.54 2.55-6.35 3.05-9.39 4.74-3 1.28-5.97 2.63-8.8 4.24-3.61 2.36-9.56-3.16-10.25 1.96-4.27 6.37-11.05 10.86-14.36 17.86l-.7.16c1.1-4.23 1.6-9.03 5.38-11.83 1.63-.69 2.86-4.38.17-4.35-.55-1.67-.85-3.47-1.89-4.92-1.05 1.42-1.09 4.28-3.41 4.05-1.36-4.27 1.97-13.4-5.1-13.07-4.16 2.85 5.48 10.12-.75 9.93-1.53-1.61-3.09-2.11-4.49-.06-5.14-3.31 4.5-7.04 2.1-11.56-3.27-3.01-5.42 1.94-8.77 2.01.91-2.02 2.67-3.78 2.87-6.05-.93-.97-2.5-2-.62-2.89 2.59-3.4 7.62 3.43 8.17-1.89 4.42-1.66 7.02-7.38 12.24-3.49 1.37-3.92 4.83-7.89 9.39-6.18m6.89 12.19c-1.29 6.63 6.77.54 0 0m-8.83 3.21c-.75 1.52-1.33 3.16-1.24 4.89 3.34 1.29 4.7-6.28 1.24-4.89m-2.95 10.05c-1.98.68-3.3 4.66-.51 4.43 4.34-.19 6.28-6.45.51-4.43z"/><path fill="#2c2b19" opacity=".64" d="M171.17 35.02c-.45-1.7-.68-3.64.43-5.14.54 1.62 1.33 3.97-.43 5.14z"/><path fill="#899346" opacity=".98" d="M206.91 30.07l4.32-.29c3.53 1.16 7.22 5.7 4.98 9.44-2.36-.89-5.25-.11-7.38-1.1-1.8-4.25-8.36-.73-3.58-5.76 3.13 2.29 2.93.65 1.66-2.29z"/><path fill="#8c9e5a" d="M194.17 32.97c3.07 1.29 6.64 3 7.45 6.55 2.08 3.03 3.49 11.79 7.8 7.95 5.58-3.8 12.7-2.27 19.01-2.82 2.58 1.98 1.38 5.04-1.08 6.44-3.94-1.05-8.2.24-11.31 2.79-2.95-4.34-2.92 4.38-6.71 3.88-1.33-2.54-3.75-2.95-6.61-1.94-.78-3.3-1.77-6.58-1.23-10.05.23-6.33-13.59-6.24-7.32-12.8z"/><path fill="#322a18" opacity=".67" d="M154.71 40.71c2.97-1.35 6.33-.42 9.48-.55-2.83 1.72-6.37.38-9.48.55z"/><path fill="#cabca3" d="M206.03 41.94c6.77.54-1.29 6.63 0 0z"/><path fill="#b2a480" d="M197.2 45.15c3.46-1.39 2.1 6.18-1.24 4.89-.09-1.73.49-3.37 1.24-4.89z"/><path fill="#8f9f58" d="M179 49.93c7.07-.33 3.74 8.8 5.1 13.07 2.32.23 2.36-2.63 3.41-4.05 1.04 1.45 1.34 3.25 1.89 4.92-5.04 3.86-10.02 7.9-15.39 11.31 2.1-4 1.58-8.54 2.05-12.88-.51-1.04-1.27-1.87-2.3-2.5 1.4-2.05 2.96-1.55 4.49.06 6.23.19-3.41-7.08.75-9.93z"/><path fill="#aa926a" d="M194.25 55.2c5.77-2.02 3.83 4.24-.51 4.43-2.79.23-1.47-3.75.51-4.43z"/><path fill="#61743c" d="M154.01 65.77c7.11 3.02 10.95-13.45 14.97-6.13-4.33 3.13 3.37 13.21-3.16 10.66-.01 2.78 3.52 6.49.94 8.52-3.3 1.02-2.45-4.98-5.6-4.87-1.06 1.64-1.28 6.15-3.48 2.28-4.69-2.7 2.29-8.4-3.67-10.46z"/><path fill="#3f4d1b" opacity=".89" d="M198.91 62.03c.69-5.12 6.64.4 10.25-1.96-2.84 2.51-6.69 2.17-10.25 1.96z"/><path fill="#748942" d="M165.82 70.3c6.53 2.55-1.17-7.53 3.16-10.66 2.12 1.33 4.38 3.35 7.08 2.66-.47 4.34.05 8.88-2.05 12.88 5.37-3.41 10.35-7.45 15.39-11.31 2.69-.03 1.46 3.66-.17 4.35-3.78 2.8-4.28 7.6-5.38 11.83l.82 5.98c.12 1.72.2 3.45.27 5.17-3.81-1.13-4.93-5.34-6.9-8.33 1.02-3.78 3.64-7.02 4.1-10.98-3.81 3.72-10.3 6.7-7.18 12.97-6.07 3.1-10.82-.12-14.54-4.76-.37 4.5-5.34 4.62-8.69 5.72.61-1.66 1.54-3.17 2.28-4.78 0-4.87-1.26-9.69-3.16-14.16l3.16-1.11c5.96 2.06-1.02 7.76 3.67 10.46 2.2 3.87 2.42-.64 3.48-2.28 3.15-.11 2.3 5.89 5.6 4.87 2.58-2.03-.95-5.74-.94-8.52z"/><path fill="#2d2c18" opacity=".61" d="M136.92 70.07c-2.19-1.53-2.45-5.52-.2-7.21l.2 7.21z"/><path fill="#454f27" d="M145.65 72.4c-2.51-3.31 2.69-5.1 5.2-5.52 1.9 4.47 3.16 9.29 3.16 14.16-3.24.3-6.28-.15-8.38-2.68.37-1.99 1.71-4.22.02-5.96z"/><path fill="#667431" d="M174.96 84.86c-3.12-6.27 3.37-9.25 7.18-12.97-.46 3.96-3.08 7.2-4.1 10.98 1.97 2.99 3.09 7.2 6.9 8.33 3.26 2.48 5.72 7.01 10.24 6.9-2.71 2.16-4.83 4.83-6.01 8.12-2.71.63-5.88.4-7.19 3.2l-1.86 1.84c-3.71.34-.27-3.06.41-4.65 2.14-.86 5.49-1.24 4.47-4.37-6.3-3.76-14.25 2.32-19.37-4.19l3.22-1.26c-3.29-3.59-4.72-8.83-9.03-11.39-3.85.9-10.3 3.97-11.88-1.38-1.38-5.31-13.16 2.26-8.54-6.63.42-4.79 4.47-.75 6.23.97 2.1 2.53 5.14 2.98 8.38 2.68-.74 1.61-1.67 3.12-2.28 4.78 3.35-1.1 8.32-1.22 8.69-5.72 3.72 4.64 8.47 7.86 14.54 4.76z"/><path fill="#7d8740" d="M154.83 104.33c1.67-4.31 7.37-3.58 10.8-6.28 5.12 6.51 13.07.43 19.37 4.19 1.02 3.13-2.33 3.51-4.47 4.37-.68 1.59-4.12 4.99-.41 4.65-1.6 1.4-6.98 7.43-5.58 2.42-.65-2.72-6.11 0-6.83-3.37-.89-3.58-4.79-2.46-5.17.78-2.52-2.3-5.19-4.45-7.71-6.76z"/><path fill="#7c6b37" opacity=".98" d="M195.18 98.1c12.44-.13 13.28 16.07 10.58 25.06l-1.79-6.04.16-1.79.25-1.03c1.19-4.59-3.33-9.24-6.29-12.29-2.48 2.76-1.19 6.59-1.97 9.85-4.86-3.92-9.81 1.92-14.16 4.02-1.28-2.22 1.41-4.33.02-6.46 1.31-2.8 4.48-2.57 7.19-3.2 1.18-3.29 3.3-5.96 6.01-8.12z"/><path fill="#6c713f" d="M136.95 109.26c6.52-.58 5.7-9.55 11.87-9.92 4.1.06 1.74 6.9 6.01 4.99 2.52 2.31 5.19 4.46 7.71 6.76.91 4.18 4.77 7.15 3.54 11.93-2.03.27-4.03.74-6.02 1.2l.26-.98c2.62-3.13 4.94-10.93-2.97-7.98-4.63 1.2-2.39 6.51-2.25 9.81-3.81-.71-5.51-5.67-7.19-8.95 3.39-2.12 7.77-2 11.07-4.28-.35-5.67-6.78.31-10.13-.16-6.46-1.71-3.92 5.34-6.23 8.48-1.58-3.83-3.36-7.45-5.67-10.9z"/><path fill="#8e955a" d="M198.09 102.01c2.96 3.05 7.48 7.7 6.29 12.29-1.78-6.06-5.36-1.51-.25 1.03l-.16 1.79c-3.33-.75-6.24-2.49-9.12-4.22.73 2.55 3.41 4.29 3.23 7.12-2.33.39-4.32-.78-6.23-1.91-1.55 2.27 2.73 6.79-.11 8.64-2.57-.19-5.2-.43-7.46 1.05-.89-2.12-2.88-9.31-5.17-4.68-3.9 3.52-1.85-6.66 2.1-3.54-1.08-7.99-4.55 1.32-8.17.79-2.81-.45-3.8 3.73-6.96 2.65 1.23-4.78-2.63-7.75-3.54-11.93.38-3.24 4.28-4.36 5.17-.78.72 3.37 6.18.65 6.83 3.37-1.4 5.01 3.98-1.02 5.58-2.42l1.86-1.84c1.39 2.13-1.3 4.24-.02 6.46 4.35-2.1 9.3-7.94 14.16-4.02.78-3.26-.51-7.09 1.97-9.85z"/><path fill="#c8baa3" d="M204.13 115.33c-5.11-2.54-1.53-7.09.25-1.03l-.25 1.03z"/><path fill="#737d41" d="M194.85 112.9c2.88 1.73 5.79 3.47 9.12 4.22l1.79 6.04c11.72 10.23 22.62 21.76 27.28 36.97l-4.99 1.95c-2.09-10.15-9.22-16.38-15.75-23.25.79-4.57-5.67.23-4.28-4.21 6.29.32-1.69-6.56-4.12-6.51-9.02-4.65 2.88 6.08-5.12 6.66-.98-.37-1.81-1-2.57-1.71-3.16-.83-8.91-2.36-10.5 1.7-2.66 4.96 2.07 8.77 4.57 12.46-2.88.11-5.85.53-8.27-1.31.32 3.93 4.8 6.16 4.84 9.83-1.99 3.25-4.41-.47-3.11-2.87-2.41 2.77-4.19 4.42-4.01-1.03-3.92 3.14 1.15 9.4 5.01 10.24.61 1.97.26 3.09-1.93 2.34.46 2.52 1.54 4.89 2.3 7.34-4.94-2.15-4.08 4.63-6.54 7.31l-3.78 1.82c.67-5.14 6.72-13.7-1-15.7-2.6-5.1 2.43-15.34-6.89-14.58 2.94-2.17 6.89-2.66 9.25-5.63-6.3 2.44-5.58-1.77-3.1-6.04-5.54-.89-4.74 7.29-8.93 9.1-1.6-3.33 3.44-6.24 2.35-9.94.77-3.68-6.4-4.19-3.34-8.07 1.52 1.55 6.12 2.68 5.41-.7-2.12-4.74 6.39-3.87 4.5-8.96 3.62.53 7.09-8.78 8.17-.79-3.95-3.12-6 7.06-2.1 3.54 2.29-4.63 4.28 2.56 5.17 4.68 2.26-1.48 4.89-1.24 7.46-1.05 2.84-1.85-1.44-6.37.11-8.64 1.91 1.13 3.9 2.3 6.23 1.91.18-2.83-2.5-4.57-3.23-7.12z"/><path fill="#958558" d="M157.35 115.26c7.91-2.95 5.59 4.85 2.97 7.98-.42-5.55-6.66.39-1.15 1.21-1.33.34-2.7.59-4.07.62-.14-3.3-2.38-8.61 2.25-9.81z"/><path fill="#d4c9b8" d="M159.17 124.45c-5.51-.82.73-6.76 1.15-1.21l-.26.98-.89.23z"/><path fill="#586a39" d="M288.25 124.29c2.83-3.38 9.34-3.1 11 1.26-4.88 5.54-8.23 12.3-12.09 18.58-2.89 3.81.58 11.68-5.07 12.55-.15-3.11-3.14-4.71-4.99-6.82l-1.39-6.85c-3.17.56-9.32 3.63-7.13-2.38 8.07-3.53 14.09-9.67 19.67-16.34z"/><path fill="#5e713c" d="M300.82 128.1c1.66-3.09 4.72-4.39 8.31-2.64-2.97.71-3.52 2.5-1.78 4.87-.34 3.67-5.14 4.45-7.6 6.39-.78 4.6-2.51 10.17 2.23 13.4-.6 1.01-1.15 2.04-1.73 3.06-.51-2.28-.52-6.22-3.94-5.19 2.57 7.3-5.94 6.71-8.1 11.33-1.51 3.5 1.28 5.71 2.94 8.12-1.89 1.56-4.48-.5-6.1-1.66.9-8.37 7.3-16.01 6.1-24.67 2.52-4.76 6.49-8.65 9.67-13.01z"/><path fill="#404c24" d="M287.16 144.13c3.86-6.28 7.21-13.04 12.09-18.58l1.57 2.55c-3.18 4.36-7.15 8.25-9.67 13.01 1.2 8.66-5.2 16.3-6.1 24.67 1.62 1.16 4.21 3.22 6.1 1.66 4.26-3.94 6.37-9.31 9.1-14.26l1.73-3.06 1.12-1.44c4.07 5.1-3.16 10.52-1.97 16.39-5.04.59-7.39 7.36-4.28 11.15-6.58 1.35-8.73-8.42-15.01-6.55-2.11.63-3.68-1.28-5.65-1.57-1.51 1.63.02 4.02-.22 5.99-3.99.04-6.99-3.44-11-3.17 1.04 2.98 2.22 5.96 2.03 9.19-1.22-.91-2.03-3.37-3.83-2.15 1.07-2.76.72-5.72-1.3-7.97-3 .77-1.09 4.26-1.59 6.42.11 2.38-3.33 3.75-2.28 6.1-1.38.81-2.72 1.67-4.07 2.53.37-1.67.79-3.32 1.32-4.93 4.45-4.17 1.87-9.99-2.15-13.4l.21-2.08c2.68.89 5.11 2.34 7.65 3.55.27-6.84-3.61-13.06-2.81-19.87 2.54-2.94 5.76-5.17 8.99-7.29l1.44-.39c-2.19 6.01 3.96 2.94 7.13 2.38.51 2.27.93 4.57 1.39 6.85-6.25-2.91-6.06 7.9-2.86 11.05 3.28.51 4.23-4.55 7.85-4.23 5.65-.87 2.18-8.74 5.07-12.55z"/><path fill="#91a260" d="M307.35 130.33c-1.74-2.37-1.19-4.16 1.78-4.87 2.71 1.92 3.36 4.96 2.8 8.24-3.17 4.86-5.45 10.26-8.83 14.98l-1.12 1.44c-4.74-3.23-3.01-8.8-2.23-13.4 2.46-1.94 7.26-2.72 7.6-6.39z"/><path fill="#576030" d="M198.78 134.77c8-.58-3.9-11.31 5.12-6.66 2.43-.05 10.41 6.83 4.12 6.51-1.39 4.44 5.07-.36 4.28 4.21 6.53 6.87 13.66 13.1 15.75 23.25l4.99-1.95 1.05.85c4.01 1.77 8.77.73 13.13.84 2.14.66 4.08 1.82 6.09 2.81l-.21 2.08c-5.1 2.49-7.67-3.56-13.08-1.82-1.58.26-4.44 3.4-4.17.07-1.39-3.92-4.67 5.85-5.06 1.22-1.99-4.16-7.06-.18-7.43 3.22-1.19 3.79-3-1.85-5.2-1.38-.8 1.9-1.05 3.95-1.27 5.98-2.26 1.67-1.78 4.59-2.14 7.15-4.96-4.2.9-10.16 1.29-15.11-7.29-3.65-3.17 1.81-4.78 4.24-2.87 4.89-1.52 10.91-3.92 15.94.86-8.22-.99-8.49-3.24-2.98.06-4.84-.57-9.63-1.28-14.4-.14-1.77-.26-3.55-.01-5.31l1.41 2.19c3.28-2.96 8.23-2.04 11.44-5.1 1.95-4.17-5.62.25-4.26-5.37-4.15 2.06-3.03-3.1-5.79-4.8 1.2-6.24-3.33-11.16-6.83-15.68z"/><path fill="#646231" d="M185.71 134.76c1.59-4.06 7.34-2.53 10.5-1.7.26 3.24-2.93 4.5-4.98 6.3-.51 2.72 1.47 5.55-.12 8.17l-.83-.31c-2.5-3.69-7.23-7.5-4.57-12.46z"/><path fill="#7f7835" d="M196.21 133.06c.76.71 1.59 1.34 2.57 1.71 3.5 4.52 8.03 9.44 6.83 15.68 2.76 1.7 1.64 6.86 5.79 4.8-1.36 5.62 6.21 1.2 4.26 5.37-3.21 3.06-8.16 2.14-11.44 5.1l-1.41-2.19c.41-3.54-2.2 1.39-3.66-.64-4.7-1.49 1.95-6.28-3.27-7.68 9.43-.28-2.91-4.09-4.77-7.68 1.59-2.62-.39-5.45.12-8.17 2.05-1.8 5.24-3.06 4.98-6.3m-2.47 13.25c1.65 4.01 11.19-1.38 4.5-2.55-1.19-5.67-6.48-1.24-4.5 2.55z"/><path fill="#566b3b" d="M303.1 148.68c3.38-4.72 5.66-10.12 8.83-14.98l2.12 1.21c1.73 3.55-.88 5.73-3.56 7.58 2.57 9.08-5.08 16.09-9.36 22.58-1.19-5.87 6.04-11.29 1.97-16.39z"/><path fill="#869457" d="M314.05 134.91c4.24.36 6.2 4.26 5.59 8.17l-.96 1.82-.74 1.55c-5.04 9.57-8.75 20.23-14.97 28.95-4.91-.17-2.18-7.04-1.84-10.33 4.28-6.49 11.93-13.5 9.36-22.58 2.68-1.85 5.29-4.03 3.56-7.58z"/><path fill="#a28b65" d="M193.74 146.31c-1.98-3.79 3.31-8.22 4.5-2.55-5.8-1.64 1.63 5.8 0 0 6.69 1.17-2.85 6.56-4.5 2.55z"/><path fill="#d9cdbc" d="M198.24 143.76c-5.8-1.64 1.63 5.8 0 0z"/><path fill="#5d6f3b" d="M317.94 146.45l.74-1.55c1.2 1.8 3.54 1.15 5.29.81l1.92.27c.91 1.23 1.89 2.47 2.27 4-5.99-4.68-7.49 2.48-7.58 7.68-.37 4.23-4.83 5.91-6.67 9.37-.45-7.43 6.23-13.55 4.03-20.58z"/><path fill="#8a9455" d="M182.01 145.91c2.42 1.84 5.39 1.42 8.27 1.31l.83.31c1.86 3.59 14.2 7.4 4.77 7.68 5.22 1.4-1.43 6.19 3.27 7.68 1.46 2.03 4.07-2.9 3.66.64-.25 1.76-.13 3.54.01 5.31-2.8 2.61-7.44 5.1-3.95 9.01l-3.45 2.28c-.43-4.75 1.19-9.26 1.54-13.93-3.2-.81-6.49-.81-9.76-.55.88-4.51.06-5.7-2.46-3.57-3.86-.84-8.93-7.1-5.01-10.24-.18 5.45 1.6 3.8 4.01 1.03-1.3 2.4 1.12 6.12 3.11 2.87-.04-3.67-4.52-5.9-4.84-9.83z"/><path fill="#3b4823" d="M302.97 175.4c6.22-8.72 9.93-19.38 14.97-28.95 2.2 7.03-4.48 13.15-4.03 20.58l-.09.83c-2.65 3.8-3.1 10.86-8.9 10.47l-1.95-2.93z"/><path fill="#8b9358" d="M296.31 147.99c3.42-1.03 3.43 2.91 3.94 5.19-2.73 4.95-4.84 10.32-9.1 14.26-1.66-2.41-4.45-4.62-2.94-8.12 2.16-4.62 10.67-4.03 8.1-11.33z"/><path fill="#8f9b56" opacity=".98" d="M320.58 157.66c.09-5.2 1.59-12.36 7.58-7.68.15 5.16-1.86 10.08-5.28 13.91-3.51 3.36-2.71 8.89-6.15 12.23-4.05-.78-1.88-5.42-2.91-8.26l.09-.83c1.84-3.46 6.3-5.14 6.67-9.37z"/><path fill="#78783f" d="M274.24 160.91c-3.2-3.15-3.39-13.96 2.86-11.05 1.85 2.11 4.84 3.71 4.99 6.82-3.62-.32-4.57 4.74-7.85 4.23z"/><path fill="#4c4f28" d="M128.07 160.01c4.34 1.63 6.15 8.36 11.59 6.63 7.4-1.77 13.47 2.8 19.44 6.39-.58-1.78-1.33-3.5-1.94-5.26 2.88.45 8.61 2.61 6.85 6.24-1.96 2.81 3.85 3.55 1.85 6.74-4.69 4.45-8.46-3.54-13.38-3.21-3.03 3.67-7.92 5.58-9.86 10.12-3.3-.64-6.36-2.05-9.63-2.75-.97 3 1.65 3.83 3.95 4.59-.6 2.42-4.22 4.18-2.37 6.87 1.07 3.24 6.18 3.67 5.54 7.64-2.87.94-1.27-3.84-3.92-2.83-1.11 2.75-1.97 5.67-2.15 8.64 3.55 2.31 9.4-1.07 11.85 3.28.32 2.54 3.33 11.41 4.49 5.23 4.05 1.49 8.38-3.77 11.45-1.09 2.15 4.29-4.87 1.16-3.83 4.79-1.06 6.63 5.11 10.68 8.96 15 1.57 1.72 3.83 1.48 5.92 1.31.99 7.04 13.79 5.68 11.32 13.48-.17 7.66-6.94-3.21-11.07-3.93-.68-1.11-1.34-2.22-2.09-3.27-3.92-5.38-10.25-1.54-15.09-4.56-4.97-1.72-1.56 7.64-.03 9.01 3.08 5.87 9.86 8.5 12.46 14.8 5.27 1.14 10.13-.8 14.53-3.38 3.58-.13 4.46 3.43 2.29 5.81 2.12-.52 3.98-1.66 5.82-2.77 4.37-1.8 9.67-3.98 13.19.42l-2.68 3.72-1.53.78-3-1.59c-2.21-1.65-5.68-2.56-7.05.21-4.94-.13-9.92-.09-14.75-1.18-8.39-.27-17.12-3.25-20.34-11.78-.65-2.07-1.18-4.17-1.79-6.24l-.06-2.83c.01-.51.01-1.52.01-2.02l-.05-3c-5.86-6.65-16.49-12.1-16.55-23.06-.16-2.03-1.56-3.26-3.25-4.14-3.79-5.11-6.06-11.12-7.33-17.33-.31-5.71 3.45-10.02 6.27-14.53-2.74-3.3-6.1-6.08-8.36-9.76l.19-3.21c2.5 1.66 6.9 3.52 7.01-1.12 1.96-3.73-5.8-3.79-2.88-6.86z"/><path fill="#95a261" d="M184.74 162.08c2.52-2.13 3.34-.94 2.46 3.57 3.27-.26 6.56-.26 9.76.55-.35 4.67-1.97 9.18-1.54 13.93 1.18-.71 2.29-1.52 3.45-2.28 2.66 3.2-1.15 3.69-3.61 4.64-1.06 2.64.15 5.93-1.39 8.42-3.69-.54.16-11.64-4.43-7.46-3.28 1.57-4.28-4.61-7.32-3.57-1.19-.23-2.37-.5-3.55-.81 2.46-2.68 1.6-9.46 6.54-7.31-.76-2.45-1.84-4.82-2.3-7.34 2.19.75 2.54-.37 1.93-2.34z"/><path fill="#667b40" d="M223.36 169.4c.37-3.4 5.44-7.38 7.43-3.22.39 4.63 3.67-5.14 5.06-1.22-.27 3.33 2.59.19 4.17-.07-1.35 1.64-2 3.63-2.15 5.74-1.43 3.84-1.93.73-3.06-1.45-3.81 1.78-9.84-2.19-11.55 3.06-4.27 1.34.4 4.23-1.36 6.82-4.19-1.58-2.12-5.88-1.77-9.16-1.01 1.42-2 2.86-3.24 4.1.22-2.03.47-4.08 1.27-5.98 2.2-.47 4.01 5.17 5.2 1.38z"/><path fill="#829446" d="M240.02 164.89c5.41-1.74 7.98 4.31 13.08 1.82 4.02 3.41 6.6 9.23 2.15 13.4-2.64-3.82 1.3-10.43-5.52-10.79-3.12 2.7-7.22 1.75-11.86 1.31.15-2.11.8-4.1 2.15-5.74z"/><path fill="#555b31" d="M296.85 176.22c-3.11-3.79-.76-10.56 4.28-11.15-.34 3.29-3.07 10.16 1.84 10.33l1.95 2.93c3.19 5.01-5.75 1.7-8.54 2.21-2.83-2.26-5.38-2.25-7.22 1.23-1.02-1.88-1.88-3.84-2.69-5.81-2.14 2.7-.88 6.07-.22 9.06 2.39 0 7.55-5.29 7.07-.68-1.76 3.3 3.07 8.05 5.42 4.36 1.82-1.44-.6-6.66 2.54-3.96 2.26 4.3-5.36 8.75-1.72 12.72.9 1.08-1.17 1.71-1.61 2.54-5.27-.7-5.38-6.09-3.99-10.1-2.44-.37-3.23 2.25-5.07 3.05-2.47.36-2.2-3.08-3.93-4.07-2.28 1.85-4.27 5.15-7.24 2.32 1.37 3.2 4.34 6.41 7.91 7.13-1.6 6.11-1.47 11.92 2.71 16.81-3.38 0-6.75.38-8.26 3.93.92 2.7 2.11 5.3 2.92 8.05-4.7.48-6.84-3.99-7.28-7.9.84-2.6 2.21-5.6-.3-7.75-2.07-2.74-5.12-5.26-8.28-6.31-1.12 2.22-.92 4.83-1.63 7.18.87-4.69-2.71-9.39-7.34-9.65 2.23-2.61-3.09-6.07 1.27-7.23 2.32 2.61 5.69.2 8.22-.78-.11-2.23-1.29-4.71.34-6.67 1.72 1.56 6.04 5.01 5.63.32 1.56-5.08-3.81-5.59-6.63-8.22.19-3.23-.99-6.21-2.03-9.19 4.01-.27 7.01 3.21 11 3.17.24-1.97-1.29-4.36.22-5.99 1.97.29 3.54 2.2 5.65 1.57 6.28-1.87 8.43 7.9 15.01 6.55m-23.59-1.03c-5.56 3.96 3.02 10 7.67 8.91-1.96-3.26-2.43-10.52-7.67-8.91z"/><path fill="#6a7c3c" d="M211.26 170.28c1.61-2.43-2.51-7.89 4.78-4.24-.39 4.95-6.25 10.91-1.29 15.11.36-2.56-.12-5.48 2.14-7.15-.37 2.32-.69 4.65-.87 7 2.38-2.07 5.28-1.18 7.9-.1-.74 1.61-1.65 6.37-4.06 4.25-3.02-4.04-7.22.43-5.01 4.95-2.59-.73-6.74-.72-7.51-3.88 2.4-5.03 1.05-11.05 3.92-15.94z"/><path fill="#717538" opacity=".98" d="M304.92 178.33c5.8.39 6.25-6.67 8.9-10.47 1.03 2.84-1.14 7.48 2.91 8.26-2.72 2.49-4.75 5.58-6.81 8.61-3.31 1.08-4.54 4.43-6.1 7.2-1.24 1.02-1.25 2.7-.73 4.11-1.04 1.97-1.97 3.99-2.81 6.05-.28-1.26-1.05-1.96-2.33-2.09.44-.83 2.51-1.46 1.61-2.54-3.64-3.97 3.98-8.42 1.72-12.72-3.14-2.7-.72 2.52-2.54 3.96-2.35 3.69-7.18-1.06-5.42-4.36.48-4.61-4.68.68-7.07.68-.66-2.99-1.92-6.36.22-9.06.81 1.97 1.67 3.93 2.69 5.81 1.84-3.48 4.39-3.49 7.22-1.23 2.79-.51 11.73 2.8 8.54-2.21z"/><path fill="#818849" d="M198.87 177.85c-3.49-3.91 1.15-6.4 3.95-9.01.71 4.77 1.34 9.56 1.28 14.4 2.25-5.51 4.1-5.24 3.24 2.98.77 3.16 4.92 3.15 7.51 3.88l6.88 3.1c.1 3.07 3.46 1.5 2.31-.9l1.3 1.71-1.39 2.16c-4.9-.98-9.54-.57-14.6.78.96-5.55-6.89-.54-3.67 2.35 2.41 3.75 7.46-3.1 9.95 1.12 3.43 1.38-4.13 8.43.73 7.08 2.46.51 5.73-2.64 1.59-2.56-4.83.04 2.43-3.21 4.11-1.04.94 2.93-1.73 8.15 2.69 8.56l.22 2.41c-3.94 8.87-11.59-6.74-13.87 2.21-5.9-2.37-8.77 6.09-13.83 9.27-.44 3.9-1.12 7.01-5.12 8.9.86 3.01 6.17 6.8 2.1 9.98-4.24 2.21-4.55 8 .86 7.88-1-1.28-3.15-4.9-.4-4.81 4.17.34 2.33 7.72-.22 8.82-2.49-3.26-6.68-3.94-10.29-5.3 2.47-7.8-10.33-6.44-11.32-13.48 3.17-2.49 4.66-8.22.62-10.65-1.94-3.63-5.87-3.31-4.56 1.39-1.04-.29-2.06-.63-3.06-1.01-.11-3.11.06-6.36 2.14-8.81 2.95 1.21 6.74 2.39 9.61.54.01-2.31.06-4.62.22-6.93-1.93 4.6-8.19 5.5-10.4.6-3.68-5.87 6.72-4.4 3.97-9.64 2.36.84 4.72 2.15 7.3 1.24-1.71-2.97-1.83-6.64.93-8.77-5.53-3.3 2.08-2.65-.49-7.14l2.66-1.09c0 3.42 3.85 4.39 5.18 7.01-.94 2.58-3.93 6.56.53 7.51 3.74 1.73-1.93 2.26-3.63 1.74-3.61-1.14-2.21 4.85-3.61 6.96 6.4-2.02 13.23-7.55 19.98-4.5-1.47-5.52-8.77-6.31-10.51-11.57.7-3.82-4.86-11.53-7.94-7.15-.75-2.78.4-5.44.3-8.19 3.04-1.04 4.04 5.14 7.32 3.57 4.59-4.18.74 6.92 4.43 7.46 1.54-2.49.33-5.78 1.39-8.42 2.46-.95 6.27-1.44 3.61-4.64m-8.65 61.29c-2.48 1.77-1.18 5.58 1.59 2.71 4.11.31 1.97-4.65-1.59-2.71z"/><path fill="#80914e" d="M223.26 172.24c1.71-5.25 7.74-1.28 11.55-3.06 1.13 2.18 1.63 5.29 3.06 1.45-.14 4.55-1.99 10.96 3 13.69-.59 1.73-1.6 3.19-3.66 2.65-1.16-2.29-.03-5.27-2.61-6.97-1.38 1.56-2.25 3.48-3.56 5.09-3.16-1.97-6.34-4.33-6.79-8.32a143.51 143.51 0 0 1-.33 4.13c-2.62-1.08-5.52-1.97-7.9.1.18-2.35.5-4.68.87-7 1.24-1.24 2.23-2.68 3.24-4.1-.35 3.28-2.42 7.58 1.77 9.16 1.76-2.59-2.91-5.48 1.36-6.82z"/><path fill="#a1b16c" d="M237.87 170.63c4.64.44 8.74 1.39 11.86-1.31 6.82.36 2.88 6.97 5.52 10.79-1.62.67-4.56 3.44-4.37-.09-1.5-3.92-3.84 4.03-5.46.61-2.2-4.01-4.18 1.49-4.55 3.69-4.99-2.73-3.14-9.14-3-13.69z"/><path fill="#79813b" d="M260.28 176.41c.5-2.16-1.41-5.65 1.59-6.42 2.02 2.25 2.37 5.21 1.3 7.97-1.3 1.49-2.76 2.83-4.27 4.09l-.9.46c-1.05-2.35 2.39-3.72 2.28-6.1z"/><path fill="#80764f" d="M273.26 175.19c5.24-1.61 5.71 5.65 7.67 8.91-4.65 1.09-13.23-4.95-7.67-8.91z"/><path fill="#5b6a26" d="M224.25 176.77c.45 3.99 3.63 6.35 6.79 8.32 1.31-1.61 2.18-3.53 3.56-5.09 2.58 1.7 1.45 4.68 2.61 6.97 2.06.54 3.07-.92 3.66-2.65 2.99-.45 5.97-1.09 8.98-1.43-.3 1.67-3.11 4.72.24 4.45-1.25.71-2.5 1.43-3.83 1.97-4.37-.19-8.72-.37-13.06-.79-3.82-1.23-4.5 4.19-7.86 5.49l-1.3-1.71-2.31.9-6.88-3.1c-2.21-4.52 1.99-8.99 5.01-4.95 2.41 2.12 3.32-2.64 4.06-4.25l.33-4.13z"/><path fill="#343d1a" d="M263.17 177.96c1.8-1.22 2.61 1.24 3.83 2.15 2.82 2.63 8.19 3.14 6.63 8.22.41 4.69-3.91 1.24-5.63-.32-1.63 1.96-.45 4.44-.34 6.67-2.53.98-5.9 3.39-8.22.78-4.36 1.16.96 4.62-1.27 7.23-6.28 1.06-6.25 10.23-.19 11.51 1.39 4.27 1.77 8.78 1.31 13.26-4.85 3.39-7.68 9.16-14 10.14-.54-1.41-1-2.84-1.54-4.24.9-3.34 6.42-.68 6.38-4.2-4.02.39-8.54 1.14-12.26-1.06 3.29-.51 6.63-.77 9.91-1.41 1.78-3.35-1.3-7.43-4.13-9.28-.87-6.31-8.73-4.87-12.8-2.39 1.76-3.69 3.26-10.79-2.61-10.97-5.04 3.87.98 9.19-3.23 12.91l-.04-2.09-.22-2.41c-4.42-.41-1.75-5.63-2.69-8.56.01-2.77-.01-5.58 1.89-7.73l1.39-2.16c3.36-1.3 4.04-6.72 7.86-5.49l-1.37 1.3c-.26 2.42-3.83 15.83 2.02 12.05l8.38-.1c2.98.79 5.73 2.26 8.66 3.23l8.01-22.95c1.51-1.26 2.97-2.6 4.27-4.09z"/><path fill="#7a873b" d="M240.87 184.32c.37-2.2 2.35-7.7 4.55-3.69 1.62 3.42 3.96-4.53 5.46-.61-.19 3.53 2.75.76 4.37.09-.53 1.61-.95 3.26-1.32 4.93l-3.84 2.3c-3.35.27-.54-2.78-.24-4.45l-8.98 1.43z"/><path fill="#73804c" d="M171.04 184.23c3.22-4.61 10.33.15 8.12 4.93-5.1 2.53-9.8 2.26-8.12-4.93z"/><path fill="#9fae69" d="M181.82 188.07c3.08-4.38 8.64 3.33 7.94 7.15 1.74 5.26 9.04 6.05 10.51 11.57-6.75-3.05-13.58 2.48-19.98 4.5 1.4-2.11 0-8.1 3.61-6.96 1.7.52 7.37-.01 3.63-1.74-4.46-.95-1.47-4.93-.53-7.51-1.33-2.62-5.18-3.59-5.18-7.01z"/><path fill="#2a3011" opacity=".67" d="M231.83 189.82l1.37-1.3c4.34.42 8.69.6 13.06.79-4.57 1.79-9.7.1-14.43.51z"/><path fill="#818346" d="M277.72 191.2c2.97 2.83 4.96-.47 7.24-2.32 1.73.99 1.46 4.43 3.93 4.07 1.84-.8 2.63-3.42 5.07-3.05-1.39 4.01-1.28 9.4 3.99 10.1 1.28.13 2.05.83 2.33 2.09-2.15 5.43-1.87 11.44-3.16 17.08 3.37-10.38-5.23-7.24-8.78-4.03-4.18-4.89-4.31-10.7-2.71-16.81-3.57-.72-6.54-3.93-7.91-7.13m9.5 11.92c-3.06 1.54.8 6.16 3.15 4.33 3.87-.81-.65-5.75-3.15-4.33z"/><path fill="#d2c6b2" d="M221.73 193.2l2.31-.9c1.15 2.4-2.21 3.97-2.31.9z"/><path fill="#666228" d="M205.68 199.3c-3.22-2.89 4.63-7.9 3.67-2.35 5.06-1.35 9.7-1.76 14.6-.78-1.9 2.15-1.88 4.96-1.89 7.73-1.68-2.17-8.94 1.08-4.11 1.04 4.14-.08.87 3.07-1.59 2.56-4.86 1.35 2.7-5.7-.73-7.08-2.49-4.22-7.54 2.63-9.95-1.12z"/><path fill="#5c4e2f" d="M257.98 214.2c-6.06-1.28-6.09-10.45.19-11.51-.15 3.99-2.62 7.69-.19 11.51z"/><path fill="#727947" d="M258.17 202.69c4.63.26 8.21 4.96 7.34 9.65.71-2.35.51-4.96 1.63-7.18 3.16 1.05 6.21 3.57 8.28 6.31-2.95-.93-5.97.55-5.7 3.91-3.54-.25-1.75 5.46 1.52 2.99-3.71 4.53-6.79 10.14-7.65 15.96-1.73-.82-3.45-2.11-3.78-4.13 5.42 2.21 4.26-6.19-.52-2.74.46-4.48.08-8.99-1.31-13.26-2.43-3.82.04-7.52.19-11.51z"/><path fill="#baa789" d="M287.22 203.12c2.5-1.42 7.02 3.52 3.15 4.33-2.35 1.83-6.21-2.79-3.15-4.33z"/><path fill="#1b1e08" d="M228.24 204.05c5.87.18 4.37 7.28 2.61 10.97-2.11 3.96 2.03 9.67-2.71 12.15-1.57-1.22-3.07-2.52-4.56-3.83l1.43-6.38c4.21-3.72-1.81-9.04 3.23-12.91z"/><path fill="#879355" d="M269.72 215.38c-.27-3.36 2.75-4.84 5.7-3.91 2.51 2.15 1.14 5.15.3 7.75.44 3.91 2.58 8.38 7.28 7.9-.81-2.75-2-5.35-2.92-8.05 1.51-3.55 4.88-3.93 8.26-3.93 3.55-3.21 12.15-6.35 8.78 4.03-.75 2.9-1.77 5.75-1.99 8.76a15.97 15.97 0 0 0-.2 5.56c-3.92 1.38-4.86-5.06-9.6-1.78-.57-4.52-.3-3.29-2.51-.81-3.46-3.72-9.81-1.92-13.98.6-1.77.9-3.06 4.68-5.25 2.83.86-5.82 3.94-11.43 7.65-15.96-3.27 2.47-5.06-3.24-1.52-2.99z"/><path fill="#535525" d="M211.1 217.08c2.28-8.95 9.93 6.66 13.87-2.21l.04 2.09-1.43 6.38c-2.04-1.19-2.9-4.14-5.41-4.35-1.57 3.64-3.12 7.23-7.64 7.55-1.68 3.87-3.57 7.92-2.91 12.24-1.49 2.72-4.62.72-4.97-1.75-2.21-4.43-1.84-11.66 3.34-13.56 3.94.25 5.28-3.01 5.11-6.39z"/><path fill="#4e6032" d="M230.85 215.02c4.07-2.48 11.93-3.92 12.8 2.39 2.83 1.85 5.91 5.93 4.13 9.28-3.28.64-6.62.9-9.91 1.41-1.74-.67-5.03-6.32-4.86-2.19.51 2.69-3.36 1.78-4.87 1.26 4.74-2.48.6-8.19 2.71-12.15z"/><path fill="#687432" d="M197.27 226.35c5.06-3.18 7.93-11.64 13.83-9.27.17 3.38-1.17 6.64-5.11 6.39-5.18 1.9-5.55 9.13-3.34 13.56-5.27-.68-.7 8.67-6.64 8.46 3.23 2.66 2.82 6.75 3.18 10.59 7.03-.2 3.38-10.41 9.99-11.79 3.62 1.41 6.67 4.33 10.71 4.75 2.21-1.8 3.83-4.18 5.31-6.58 4.97-2.68 10.28-4.62 15.58-6.51-.08 3.08-.61 11.39 5.88 7.81 2.65-.75-.45-2.99-.94-4.44 4.18.09 3.68 7.09 7.63 6.09 3.23-1.54 10.16 4.98 9.37-1.22-.82-5.39 5.75-1.68 9.15-2.18-.75-3.51.83-9.08-3.03-10.51 4.17-2.52 10.52-4.32 13.98-.6 2.21-2.48 1.94-3.71 2.51.81 4.74-3.28 5.68 3.16 9.6 1.78l.52.46c-5.28 6.68-10.67 13.22-19.37 15.22-2.54-.72-4.94-.62-7.17.3-5.35 1.16-10.32 3.63-15.65 4.79-5.51-.15-11.03-.32-16.49.42-5.53-1.14-11.31-2.76-16.5.24-2.32-3.45-6.94-.41-10.31-.02-4.32.44-3.21 6.19-5.01 9.18l-.74-.13c-3.52-4.4-8.82-2.22-13.19-.42-2.73-4.56-.16-5.78 3.47-6.41 2.55-1.1 4.39-8.48.22-8.82-2.75-.09-.6 3.53.4 4.81-5.41.12-5.1-5.67-.86-7.88 4.07-3.18-1.24-6.97-2.1-9.98 4-1.89 4.68-5 5.12-8.9m76.77 6.61c.18 1.5-1.05 5.33 1.66 3.69 4.23-.25 1.48-4.97-1.66-3.69m-44.8 13.48c-1.86 1.27-9.22 3.91-4.28 5.54 1.76-2.01 10.56-4.68 4.28-5.54z"/><path fill="#7f8648" d="M218.17 218.99c2.51.21 3.37 3.16 5.41 4.35l4.56 3.83c1.51.52 5.38 1.43 4.87-1.26-.17-4.13 3.12 1.52 4.86 2.19 3.72 2.2 8.24 1.45 12.26 1.06.04 3.52-5.48.86-6.38 4.2-2.84 2.07-1.24 5.63 1.97 5.96.49 1.45 3.59 3.69.94 4.44-6.49 3.58-5.96-4.73-5.88-7.81-5.3 1.89-10.61 3.83-15.58 6.51.77-2.73 2.01-6.46-2.18-4.68-.1-1.81-.16-15.93-1.7-8.22-4.01 1.78-5.64 6.59-6.41 10.61 1.65-1.22 2.71-3.22 4.63-4.05 1.49 2.48 2.16 6.17 5.66 6.34-1.48 2.4-3.1 4.78-5.31 6.58-4.04-.42-7.09-3.34-10.71-4.75-6.61 1.38-2.96 11.59-9.99 11.79-.36-3.84.05-7.93-3.18-10.59 5.94.21 1.37-9.14 6.64-8.46.35 2.47 3.48 4.47 4.97 1.75-.66-4.32 1.23-8.37 2.91-12.24 4.52-.32 6.07-3.91 7.64-7.55m-3.92 9.23c-1.99.69-3.89 5.87-.5 4.56 1.99-.7 3.88-5.88.5-4.56z"/><path fill="#c1b190" d="M168.94 229.08c-1.31-4.7 2.62-5.02 4.56-1.39-1.46.63-2.93 1.36-4.56 1.39z"/><path fill="#525f2f" d="M259.29 227.46c4.78-3.45 5.94 4.95.52 2.74.33 2.02 2.05 3.31 3.78 4.13 2.19 1.85 3.48-1.93 5.25-2.83 3.86 1.43 2.28 7 3.03 10.51-3.4.5-9.97-3.21-9.15 2.18.79 6.2-6.14-.32-9.37 1.22-3.95 1-3.45-6-7.63-6.09-3.21-.33-4.81-3.89-1.97-5.96.54 1.4 1 2.83 1.54 4.24 6.32-.98 9.15-6.75 14-10.14z"/><path fill="#98a863" d="M221.32 229.56c1.54-7.71 1.6 6.41 1.7 8.22 4.19-1.78 2.95 1.95 2.18 4.68-3.5-.17-4.17-3.86-5.66-6.34-1.92.83-2.98 2.83-4.63 4.05.77-4.02 2.4-8.83 6.41-10.61z"/><path fill="#876f27" d="M165.88 228.07l3.06 1.01c1.63-.03 3.1-.76 4.56-1.39 4.04 2.43 2.55 8.16-.62 10.65-2.09.17-4.35.41-5.92-1.31-.84-2.91-1.03-5.96-1.08-8.96z"/><path fill="#c1b195" d="M214.25 228.22c3.38-1.32 1.49 3.86-.5 4.56-3.39 1.31-1.49-3.87.5-4.56z"/><path fill="#ad9773" d="M274.04 232.96c3.14-1.28 5.89 3.44 1.66 3.69-2.71 1.64-1.48-2.19-1.66-3.69z"/><path fill="#a8a378" d="M190.22 239.14c3.56-1.94 5.7 3.02 1.59 2.71-2.77 2.87-4.07-.94-1.59-2.71z"/><path fill="#656030" d="M155.92 249.07c-1.53-1.37-4.94-10.73.03-9.01 4.84 3.02 11.17-.82 15.09 4.56-1.34 6.56-3.98.16-7-.73-.79 6.24 2.17 11.87 7.77 14.08 2.12-2.77.28-6.82 1.32-10.08 4.13.72 10.9 11.59 11.07 3.93 3.61 1.36 7.8 2.04 10.29 5.3-3.63.63-6.2 1.85-3.47 6.41-1.84 1.11-3.7 2.25-5.82 2.77 2.17-2.38 1.29-5.94-2.29-5.81-4.4 2.58-9.26 4.52-14.53 3.38-2.6-6.3-9.38-8.93-12.46-14.8z"/><path fill="#817243" d="M164.04 243.89c3.02.89 5.66 7.29 7 .73.75 1.05 1.41 2.16 2.09 3.27-1.04 3.26.8 7.31-1.32 10.08-5.6-2.21-8.56-7.84-7.77-14.08z"/><path fill="#879b52" d="M229.24 246.44c6.28.86-2.52 3.53-4.28 5.54-4.94-1.63 2.42-4.27 4.28-5.54z"/><path fill="#3c3e15" opacity=".66" d="M268.91 249.47c2.23-.92 4.63-1.02 7.17-.3-.88.61-1.82 1.08-2.82 1.44-1.5-.21-2.95-.59-4.35-1.14z"/><path fill="#958052" d="M209.96 254.9c3.37-.39 7.99-3.43 10.31.02-1.37 3.2-2.23 6.94-5.09 9.2-3.38-1.67-6.81.8-10.23-.04 1.8-2.99.69-8.74 5.01-9.18z"/><path fill="#434e1e" opacity=".82" d="M236.77 254.68c5.46-.74 10.98-.57 16.49-.42-5.43 1.14-11.01.79-16.49.42z"/><path fill="#745e28" opacity=".96" d="M204.95 264.08c3.42.84 6.85-1.63 10.23.04-2.35 2.04-5.28 3.17-8.14 4.28-1.8-.47-3.65-.78-5.51-.73l2.68-3.72.74.13z"/><path fill="#1f2111" opacity=".62" d="M189.95 267.07c1.37-2.77 4.84-1.86 7.05-.21l-7.05.21z"/></svg>