<svg xmlns="http://www.w3.org/2000/svg" width="512" height="512" viewBox="0 0 384 384" xmlns:v="https://vecta.io/nano"><path fill="#596033" d="M183.6 33.57c3.88.47 8.38-5.22 11.63-.79 1.38 2.46 3.23 1.7 4.98.04l1.94.43c-1.23 1.86-2.32 3.81-3.36 5.78-1.37 3.09-4.19 1.53-6.51.55-3.43 3.39-7.92 5.34-12.63 5.1-2.17 1.68-14.28 8.19-6.13 9.42-.86-2.67 1.07-5.29 3.6-5.99 3.35-1.16.49 3.5.17 5.09 3.17-1.21 6.38-2.22 9.85-2.22-1.33 4.42-7.37 10.32-.95 13.49-2.26 1.05-3.71-1.51-5.21-2.72-3.95-10.02-9.04 5.93-15.05 4.43-1.5.13-2.84.87-4.2 1.46-2.86-1.77-8.9 1.51-6.04 4.42 3.68-.05 1.13 3.51.91 5.66-1.04 5.35 7.34 9.47 12.13 8.01 6.15.71-4.41 14.27 7.16 9.28-3.34-6.81 5.03-2.17 2.21 1.99-2.4 1.6-4.91 3.14-7.63 1.28-.53 1.74-1.66 3.11-3.36 3.8-.82-2.54-1.79-7.24-5.5-5.56-4.92.77-3.89 7.55-8.79 8.39-4.76 2.49 2.04 5.75 4.78 6.34-1.75-6.94 9.98-1.72 14.39-4.98 4.92 5.73-10.66 1.43-7.57 7.37 1.42 3.82 1.17 11.57 7.78 7.73l1.74-.41c.45 4.08-4.04 6.56-1.43 10.66-7.42 2.6-11.3 10.06-17.26 14.71-1.52 2.66 4.19 3.97 3.93.84.08-6.39 8.83-1.37 5.28 3.42-.9 6.49 5.1 10.63 9.42 14.25-3.14-.6-2.57 4.26-5.72 3.07-5.12-3.13-10.63-6.94-16.9-6.53-3.55 2.21-8.35 2.01-11.1-1.35 2.22 8.67-6.04 4.21-10.34 5.98-1-3.89-.46-7.88 2.24-10.9 1.45-3.07.62-6.84.99-10.18l1.03-6.93c1.38-2.02 3.72-4.5 1.95-6.99-2.89-5.58-1.88-12.13-1.06-18.08 2.21-4.04 5.16-7.63 7.33-11.69.44-2.82.53-5.68.43-8.53.44-2.52 1.87-4.66 3.16-6.81 1.21-3.7 2.2-8.4.33-12.1l-1.02-2.06c.19-3.5-1.93-8.61 2.18-10.31 4.45-1.58 7.53-5.19 10.85-8.37 1.6-1.25.97-3.47.49-5.12 2.46-7.1 11.13-4.21 16.44-5.92l1.11-.95c1.57-1.25.83-3.5.46-5.13 1.73-1.88 3.58-4.54 6.87-2.37z"/><path fill="#7d7e3a" opacity=".98" d="M202.15 33.25l1.89-.6c1.46 2.58 2.05 6.36 5.92 5.38 5.92-2.54 6.13 3.85 8.2 7.02-.55 1.79-1.07 5.07 1.73 5.01l2.3.48c-4.28-.6-6.31 5.52-10.14 3.32.5-1.6 1.32-3.07 1.96-4.62-2.92 1.14-5.82-.48-6.36-3.58-.19-3.72-4.73-4.68-7.58-5.88-.32-.18-.96-.56-1.28-.75 1.04-1.97 2.13-3.92 3.36-5.78z"/><path fill="#2f2d19" opacity=".63" d="M176.27 41.07c-.45-1.66-.99-3.8.46-5.13.37 1.63 1.11 3.88-.46 5.13z"/><path fill="#767c3a" d="M192.28 39.58c2.32.98 5.14 2.54 6.51-.55l1.28.75c-3.77 6.45 5.52 5.39 7.73 9.58.04 4.53-.16 9.06-.57 13.57 2.34-.48 4.83-2.11 6.97-.25 4.85-2.67 9.54-5.93 14.35-8.76 3.61 3.2-.11 7.08-3.35 8.54-1.67-.76-3.74-1.02-5.21.3l-5.8 3.37c-3.63-1.27-8.04-.42-10.18 2.98-4.22 4.83-9.13 9.2-12.27 14.85-.23-5.99 5.15-9.9 6.22-15.23 2.12-8.85-1.8-5.51-3.76-1.49-1.65-4.48 2.38-14.34-5-13.24-.89 4.04 4.15 9.59-2.18 10.27l-.83.2c-6.42-3.17-.38-9.07.95-13.49-3.47 0-6.68 1.01-9.85 2.22.32-1.59 3.18-6.25-.17-5.09-2.53.7-4.46 3.32-3.6 5.99-8.15-1.23 3.96-7.74 6.13-9.42 4.71.24 9.2-1.71 12.63-5.1m11.95 12.65c-2 .67-.36 2.49-.05 3.79 2.22-.29 2.96-5.36.05-3.79m-1.94 9.05c-1.92 6.05 6.44-1.78 0 0z"/><path fill="#899a57" d="M200.07 39.78c2.85 1.2 7.39 2.16 7.58 5.88.54 3.1 3.44 4.72 6.36 3.58l-1.96 4.62c3.83 2.2 5.86-3.92 10.14-3.32 2.58.23 5.17.8 6.36 3.38-4.81 2.83-9.5 6.09-14.35 8.76-2.14-1.86-4.63-.23-6.97.25.41-4.51.61-9.04.57-13.57-2.21-4.19-11.5-3.13-7.73-9.58z"/><path fill="#404b1c" opacity=".64" d="M218.16 45.05c.97 1.51 1.37 3.27 1.73 5.01-2.8.06-2.28-3.22-1.73-5.01z"/><path fill="#292617" opacity=".6" d="M158.23 53.06c-.52-1.68-.79-3.69.49-5.12.48 1.65 1.11 3.87-.49 5.12z"/><path fill="#b2a682" d="M204.23 52.23c2.91-1.57 2.17 3.5-.05 3.79-.31-1.3-1.95-3.12.05-3.79z"/><path fill="#8fa156" d="M189.2 54c7.38-1.1 3.35 8.76 5 13.24 1.96-4.02 5.88-7.36 3.76 1.49-5.36 2.56-10.16 6.11-14.9 9.55 3.36-4.14 1.82-9.43 3.96-14.01 6.33-.68 1.29-6.23 2.18-10.27z"/><path fill="#63763b" d="M165.93 66.18c6.01 1.5 11.1-14.45 15.05-4.43-5.09 3.12-4.25 11.9-2.95 17.36-3.82.21-4.65-8.16-7.64-2.57-5.31.45-1.37-7.39-4.46-10.36z"/><path fill="#b9a687" d="M202.29 61.28c6.44-1.78-1.92 6.05 0 0z"/><path fill="#758a41" d="M178.03 79.11c-1.3-5.46-2.14-14.24 2.95-17.36 1.5 1.21 2.95 3.77 5.21 2.72l.83-.2c-2.14 4.58-.6 9.87-3.96 14.01 4.74-3.44 9.54-6.99 14.9-9.55-1.07 5.33-6.45 9.24-6.22 15.23-.27 2.19-1.2 5.71-3.56 2.87-3.22-3.28 2.48-7.37 2.91-10.89-3.73.78-7.35 5.51-6.39 9.63-3-.47-7.11 5.22-8.38 1.02-1.68-2.73-5.47-3.63-7.59-.86-4.79 1.46-13.17-2.66-12.13-8.01 2.37 1.51 4.78 2.99 7.32 4.25 2.54-4.42-.2-10.02-2.19-14.33 1.36-.59 2.7-1.33 4.2-1.46 3.09 2.97-.85 10.81 4.46 10.36 2.99-5.59 3.82 2.78 7.64 2.57z"/><path fill="#2c331b" opacity=".68" d="M219.99 62.76c1.47-1.32 3.54-1.06 5.21-.3l-1.01.81c-1.42 0-2.82-.17-4.2-.51z"/><path fill="#45551e" opacity=".91" d="M204.01 69.11c2.14-3.4 6.55-4.25 10.18-2.98-2.98 2.09-6.58 2.95-10.18 2.98z"/><path fill="#465127" d="M155.69 72.06c-2.86-2.91 3.18-6.19 6.04-4.42 1.99 4.31 4.73 9.91 2.19 14.33-2.54-1.26-4.95-2.74-7.32-4.25.22-2.15 2.77-5.71-.91-5.66z"/><path fill="#333b20" opacity=".71" d="M146.22 73.8c1.87 3.7.88 8.4-.33 12.1a407.17 407.17 0 0 0 .33-12.1z"/><path fill="#6d712f" d="M184.7 85.57c-.96-4.12 2.66-8.85 6.39-9.63-.43 3.52-6.13 7.61-2.91 10.89 2.36 2.84 3.29-.68 3.56-2.87-.75 9.29 8.83 16.94 17.58 16.8 7.46 3.27 10.01 13.64 5.77 20.49l-.12-3.38c-.11-2.67-.58-5.32-.99-7.96-.47-2.21-1.88-4.07-3.25-5.81-4.27.51-7.88 3.56-11.7 5.43-2.23-2.06-4.67.17-7.08.67 1.12-2.62 3.01-4.55 6.01-4.6-3.13-8.45-14.54-2.43-19.86-8.6 2.82-4.16-5.55-8.8-2.21-1.99-11.57 4.99-1.01-8.57-7.16-9.28 2.12-2.77 5.91-1.87 7.59.86 1.27 4.2 5.38-1.49 8.38-1.02z"/><path fill="#7c7f41" d="M161.61 96.52c3.71-1.68 4.68 3.02 5.5 5.56 1.7-.69 2.83-2.06 3.36-3.8 2.72 1.86 5.23.32 7.63-1.28 5.32 6.17 16.73.15 19.86 8.6-3 .05-4.89 1.98-6.01 4.6 2.41-.5 4.85-2.73 7.08-.67 3.82-1.87 7.43-4.92 11.7-5.43 1.37 1.74 2.78 3.6 3.25 5.81-2.32-.98-4.94-1.64-3.72 1.86-3.64-.04-7.28-.07-10.91.2-1.35-2.75-5.25-.07-2.16 1.6-3.26 3.04-5.67-4.71-8.82 1.09-1.22-4.58-5.63-8.1-10.2-9.71-4.49 5.35 3.66 9.74 1.66 15.4-2.03-.17-4.79-2.05-5.89.61l-1.74.41c3.88-7.54-6.35-2.22 0 0-6.61 3.84-6.36-3.91-7.78-7.73-3.09-5.94 12.49-1.64 7.57-7.37-4.41 3.26-16.14-1.96-14.39 4.98-2.74-.59-9.54-3.85-4.78-6.34 4.9-.84 3.87-7.62 8.79-8.39z"/><path fill="#8e985a" d="M178.17 104.95c4.57 1.61 8.98 5.13 10.2 9.71 3.15-5.8 5.56 1.95 8.82-1.09l2.16-1.6c3.63-.27 7.27-.24 10.91-.2 2.12 2.13-3.41 5.35.61 5.27 2.84-.14 2.01 4.93 4.1.83l.12 3.38-.35.78c-1.79 2.44-1.82 4.46-.1 6.06 1.55 1.57 3.24 3.04 4.55 4.84.44 5.16-1.77 1.53-3.47-.67-3.4 1.63-7.46 3.34-10.98 1.06-.17-2.04 2.57-5.74-1.38-4.85-6.51 1.99-9.62-5.92-9.84-11.07-.89-3.18-3.73-.27-4.92 1.13-2.44-.23-5.09-.87-6.01 2.09a6.45 6.45 0 0 1-2.76-.27c2-5.66-6.15-10.05-1.66-15.4z"/><path fill="#b2a082" d="M210.26 111.77c-1.22-3.5 1.4-2.84 3.72-1.86l.99 7.96c-2.09 4.1-1.26-.97-4.1-.83-4.02.08 1.51-3.14-.61-5.27z"/><path fill="#7a6932" d="M197.19 113.57c-3.09-1.67.81-4.35 2.16-1.6l-2.16 1.6z"/><path fill="#7a8040" d="M188.6 118.53c1.19-1.4 4.03-4.31 4.92-1.13.22 5.15 3.33 13.06 9.84 11.07 3.95-.89 1.21 2.81 1.38 4.85-2.14.42-4.98-1.04-6.51.93-.23 3.67 1.67 7.92 4.62 9.89-2.41-5.65 3.82-7.53 6.35-2.66-4.52 1.19-3.45 4.74 1.08 3.89-1.66 1.45-4.5 1.29-5.48 3.44-1.38-4.02-4.98-4.53-8.96-2.7.5 4 4.47 5.71 6.39 8.83-3.88-1.6-8.04-2.13-12.24-1.88-.11 3.72 7.78 4.53 4.51 9.59 5.36 2.63.55 8.91-3.11 4.03 1.5-3.1-.6-8.85-2.33-3.79-7.43-.83-2.76-12.13-.91-16.94-2.2.89-4.98 2.97-4.93-.86-.23-1.52 7.46-1.54 3.78-3.95-5.19.02 2.54-5.74-2.04-6.09-4.28.51-3 8.63-8.07 9.07.14-4.01 3.71-6.93 3.74-10.98-3.24-3.29 3.4-5.6 1.83-9.59 3.59-.97 4.99-4.63.13-2.93.92-2.96 3.57-2.32 6.01-2.09z"/><path fill="#d5c9b5" d="M172.2 121.37c3.88-7.54-6.35-2.22 0 0z"/><path fill="#60683b" d="M173.94 120.96c1.1-2.66 3.86-.78 5.89-.61a6.45 6.45 0 0 0 2.76.27c4.86-1.7 3.46 1.96-.13 2.93 1.57 3.99-5.07 6.3-1.83 9.59-.03 4.05-3.6 6.97-3.74 10.98 5.07-.44 3.79-8.56 8.07-9.07 4.58.35-3.15 6.11 2.04 6.09 3.68 2.41-4.01 2.43-3.78 3.95-.05 3.83 2.73 1.75 4.93.86-1.85 4.81-6.52 16.11.91 16.94 1.92 4.89-2.04 8.84-3.22 13.16 2.31-2.39 4.91-1.14 6.1 1.61a10.47 10.47 0 0 0-.75 3.01l.12 2.22c-.57 2.74-.47 6.03-4.29 5.46-.91 2.62 4.13 3.14 1.86 5.41-4.54.72-1.99 4.66-.83 7.34-2.41.07-4.5-1.13-6.68-1.94-.98 2.11-1.67 4.54-3.97 5.59-2.45 5.82 4.78 7.85 6.72 12.34-3.18 2.05-6.67-5.62-7.2-1.34l-1.06 1.15c-1.76 1.14-1.92 3.2-1.98 5.11-3.49-3.29-9.99 1.36-5.97-6.94 2.31.18 3.75-.62 3.08-3.11-4.43-.2-8.18 2.75-12.5 3.26.78 2.7.91 11.33-3.79 8.07-3.6-2.95 2.43-5.05.49-8.31-.85-3.23-.61-7.49-4.14-9.06-3.05-2.38-7.76 2.09-9.8-2.14.97-2.03.75-10.8 3.16-6.16 2.55 6.08 5.93-3.57 1.58-4.36-3.68 1.54-7.04-4.56-2.44-5.78 2.47-3.41 6.49 3.16 7.92-1.88.99-6.65 10.37-15.2 16.4-10.51 1.46 6.51 13.65.55 8.3-3.32-4.19-.68 1.76-5.15-2.29-6.93-4.32-3.62-10.32-7.76-9.42-14.25 3.55-4.79-5.2-9.81-5.28-3.42.26 3.13-5.45 1.82-3.93-.84 5.96-4.65 9.84-12.11 17.26-14.71-2.61-4.1 1.88-6.58 1.43-10.66m11.4 57.37c-1.86 1.12-3.78 2.44-4.36 4.67.72 3.05 5.22 3.12 7.29 2.25 3.42-2.42.19-7.37-2.93-6.92z"/><path fill="#4f5c2d" opacity=".73" d="M214.64 128.09c-1.72-1.6-1.69-3.62.1-6.06.76 1.95.91 4.16-.1 6.06z"/><path fill="#7d6d2b" d="M204.74 133.32c3.52 2.28 7.58.57 10.98-1.06 1.7 2.2 3.91 5.83 3.47.67.79 1.19 1.42 2.48 2.07 3.76-5.04 3.04-4.82-3.03-9.29-.47 2.1 3.64 3.57 7.58 4.69 11.63-2.32 3.01-7.08 7.74-10.64 3.06l-1.22-2.1c.98-2.15 3.82-1.99 5.48-3.44 1.56-.79-.8-2.73-1.08-3.89-2.53-4.87-8.76-2.99-6.35 2.66-2.95-1.97-4.85-6.22-4.62-9.89 1.53-1.97 4.37-.51 6.51-.93z"/><path fill="#818949" d="M211.97 136.22c4.47-2.56 4.25 3.51 9.29.47a34.44 34.44 0 0 1 11.14 18.04c-.46 2.83 1.12 7.36-2.54 7.89-2.35-.87-6.02-4.56-6.36.01-4.34 1.35-8.94 1.35-13.43 1.75-4.05 7.67-3.51 21.02 6.3 25.18 4.71 1.24 8.31 6.13 13.53 4.66 2.85-.16 3.35 2.84 3.78 5.01-1.7 5.35 2.04 7.72 5.8 9.76-1.7 1.43-3.77 2.23-5.79 3.07-2.66-1.08-5.44-1.89-8.32-1.97-.83 2.27-1.57 4.58-1.86 6.99-3.07-1.68-5.67-4.83-9.55-4.16-.76 2.79 3.75 1.31 2.96 3.93-1.28.67-2.65 1.15-3.98 1.7 3.14.89 5.59 3.6.85 4.29-5.83 1.62-7.13 9.02-3.15 13.22-.82 1.39-3.6 2.62-1.95 4.34 2.45 3.02-2.87 4.34-4.6 6.03 2.32.83 3.26 3.52 5.84 3.82 1.18 8.64-11.61 5.97-15.16 1.91 3.96 1.62 6.42.94 3.57-3.11 4.71-2.04 8.48-11.13 1.96-12.02 3.15 9.84-7.73 5.02-7.83 12.14-3.53-4.59-9.97-7.19-11.75-12.89 1.74-3.81 6.52-7.58 3.3-11.88 2.08-.16 1.48-2.02 1.46-3.47 1.76-.39 6.55 2.53 5.36-.73-2.88-6.34-11.35 2.23-13.92-4.45.53-4.28 4.02 3.39 7.2 1.34-1.94-4.49-9.17-6.52-6.72-12.34 2.3-1.05 2.99-3.48 3.97-5.59 2.18.81 4.27 2.01 6.68 1.94-1.16-2.68-3.71-6.62.83-7.34-2.72 4.96 5.76 2.81 7.35 6.95-3.85 1.32-14.4-.79-11.25 7.33 5.5.77 10.63-1.86 15.08-4.74 2 .88 4.95 5.8 5.93 1.8-3.98-2.49-6.41-6.5-8.4-10.77-2.92-.27-5.79-.41-8.71-.57 2.27-2.27-2.77-2.79-1.86-5.41 3.82.57 3.72-2.72 4.29-5.46.13 4.3 3.31 7.14 5.8 10.26-.48-3.74-2.1-11.49-5.92-12.48a10.47 10.47 0 0 1 .75-3.01c1.74.52 8.19 1.89 4.28 3.78 1.94 3.64 6.11-1.72 8.62-2.78.5-4.22-9.84-7.41-4.09-11.95-2.28 10.8 3.04 3.66 2.84.51-1-2.3-3.05-4.15-3.42-6.69 4.69-.98 5.74-5.52 5.85-9.62 3.56 4.68 8.32-.05 10.64-3.06-1.12-4.05-2.59-7.99-4.69-11.63m11.11 15.85c-1.21 2.75-2.32 5.55-4.06 8.02 1.93.01 3.88-.26 5.61-1.18-2.02-3.41 4.1-5.82-1.55-6.84M201.86 161c.95 1.74 3.31 4.5 4.97 1.85.12-2.41-3.37-1.79-4.97-1.85m11.31 33.32c-2.55.52-4.78 3.75-1.92 5.45 3.08-.47 13.03 1.53 7.82 5.39-2.3 3.42 4.26 3.6 3.56 2.17-7.46-4.01 11.1-7.65 2.25-11.33-4.1 2.02-10.88 2.14-11.71-1.68m14.99.84c-1 4.64 4.64-1 0 0m-38.96 35.17c-6.67 3.01.33 10.21 2.82 13.83-.8-4.31-.61-11.57-2.82-13.83z"/><path fill="#c3b298" d="M210.28 145.37c-4.53.85-5.6-2.7-1.08-3.89.28 1.16 2.64 3.1 1.08 3.89z"/><path fill="#93a15c" d="M195.84 146.11c3.98-1.83 7.58-1.32 8.96 2.7l1.22 2.1c-.11 4.1-1.16 8.64-5.85 9.62.37 2.54 2.42 4.39 3.42 6.69.2 3.15-5.12 10.29-2.84-.51-5.75 4.54 4.59 7.73 4.09 11.95-2.51 1.06-6.68 6.42-8.62 2.78 3.91-1.89-2.54-3.26-4.28-3.78-1.19-2.75-3.79-4-6.1-1.61 1.18-4.32 5.14-8.27 3.22-13.16 1.73-5.06 3.83.69 2.33 3.79 3.66 4.88 8.47-1.4 3.11-4.03 3.27-5.06-4.62-5.87-4.51-9.59 4.2-.25 8.36.28 12.24 1.88-1.92-3.12-5.89-4.83-6.39-8.83z"/><path fill="#645b28" d="M223.08 152.07c5.65 1.02-.47 3.43 1.55 6.84-1.73.92-3.68 1.19-5.61 1.18 1.74-2.47 2.85-5.27 4.06-8.02z"/><path fill="#58662d" d="M232.4 154.73c.81 3 .45 6.12.68 9.19 1.94 2.66 8.49.24 12.17.99l1.78.29c2.45 1.67 4.78 1.81 6.99.42 4.61 2.68 9.93 4.36 13.97 7.92-2.38 3.05-2.84 8.69-3.23 12.85-1.55 1.23-3.1 2.48-4.87 3.38.04-2 0-4-.02-5.99 1.59-2.08 5.45-4.73 3.22-7.51-1.92-3.66-5.06-7.33-9.6-5.73-1.4-6.4-11.81-4.11-12.63 1.76-1.57-5.65-7.48-2.05-11.58-5.26-.66 3.38-2.1 6.41-5.62 3.59-4.04 1.69-7.97 11.54-1.4 13.05 3.28 1.17 4.37-6.57 6.65-2.85 2.09 1.89 3.92 4.03 5.8 6.13 1.04-3.08 1.88-7.31 5.95-4.94.09 2.78 1.1 6.57 4.28 3.89 3.01 1.47 6.06 1.39 9.06-.01.49 2.08-2.34 6.26 1.04 6.36l-1.92 1.26c-1.47-1.26-3.65-1.29-5.22-.2-5.28-.35-15.89-2.68-14.22 5.91-.43-2.17-.93-5.17-3.78-5.01-5.22 1.47-8.82-3.42-13.53-4.66-9.81-4.16-10.35-17.51-6.3-25.18 4.49-.4 9.09-.4 13.43-1.75.34-4.57 4.01-.88 6.36-.01 3.66-.53 2.08-5.06 2.54-7.89z"/><path fill="#535e31" d="M295.96 159.98c7.97 4.97 10.49-6 17.93-4.05l1.02 1.89c-7.27 1.38-7 10.8-12.51 14.54-1.74 5.09 6.54 4.44 4.88 8.75 8.37-.51 1.96-11.03 9.6-12.42-5.04 4.27.98 8.87-3.11 13.17-4.2 2.49-.33 8.16 3.45 5 4.66 3.44-11.6 4.45-4.56 10.23.93 1.16 1.8 2.38 2.51 3.7-1.56 2.37-1.18 3.89 1.95 3.57-2.98 1.65-8.21-2.12-10.08 1.59l-1.82.04-2.11-5.1c2.01.65 5.4 3.83 5.89.04.47-3.49-10.53-7.61-3.01-8.05 1.94-1.56-.35-6.9-3.49-7.53-1.7-4.52-.75-12.91-9.14-8.16-.8-1.53-.85-3.15.08-4.64 1.28-2.23-4.38-5.41-.46-6.03l.88.08c4.9 1.1 6.21-4.29 2.1-6.62z"/><path fill="#7d8c4d" d="M302.4 172.36c5.51-3.74 5.24-13.16 12.51-14.54 3.49 3.53 4.76 8.52 8.25 12.04 2.73 2.69-2.44 6.12.01 8.96 2.19 2.93-3.19 6.4.15 8.89 2.17 1.43.51 3.53-.27 5.27-1.62 1.27-1.71 3.45-1.11 5.27-2.39.44-4.6 1.5-6.77 2.54-.71-1.32-1.58-2.54-2.51-3.7 4.08 1.91 8.38-1.72 7.41-6.06-5.13-2.31-5.96 3.04-7.41 6.06-7.04-5.78 9.22-6.79 4.56-10.23.97-4.36 1.68-8.34-3.45-5 4.09-4.3-1.93-8.9 3.11-13.17-7.64 1.39-1.23 11.91-9.6 12.42 1.66-4.31-6.62-3.66-4.88-8.75m5.78-3.29c-2.03 2.12-4.57 9.5.51 7.69 4.3 1.14 3.78-8.65-.51-7.69z"/><path fill="#3f4c21" opacity=".97" d="M272.77 171.71c3.17-4.64 5.86-10.34 11.11-12.89l.96-.03c-3.89 3.09 1.94 10.76-4.07 10.76-3.5-.24-2.48 2.92-2.17 5.29-.65 5.88-3.33 11.07-9.71 11.85.45-1.52.85-3.08.71-4.68.13-2.03-.03-4.07-.35-6.07 2.54 2.29 2.27-2.83 3.52-4.23z"/><path fill="#61743d" d="M284.84 158.79l7.47-.16 3.65 1.35c4.11 2.33 2.8 7.72-2.1 6.62 5.81-1.74-1.92-9.68-5.91-6.58-5.35-.02 2.38 6.31 5.03 6.5-3.92.62 1.74 3.8.46 6.03-.93 1.49-.88 3.11-.08 4.64l.33 1.02c-2.33-.51-4.26-1.91-6.27-3.1-.4 3.89-9.41 5.15-8.82-.27-.31-2.37-1.33-5.53 2.17-5.29 6.01 0 .18-7.67 4.07-10.76z"/><path fill="#4b5029" d="M140.16 160.03c2.75 3.36 7.55 3.56 11.1 1.35 6.27-.41 11.78 3.4 16.9 6.53 3.15 1.19 2.58-3.67 5.72-3.07 4.05 1.78-1.9 6.25 2.29 6.93 5.35 3.87-6.84 9.83-8.3 3.32-6.03-4.69-15.41 3.86-16.4 10.51-1.43 5.04-5.45-1.53-7.92 1.88-4.6 1.22-1.24 7.32 2.44 5.78 4.35.79.97 10.44-1.58 4.36-2.41-4.64-2.19 4.13-3.16 6.16 2.04 4.23 6.75-.24 9.8 2.14 3.53 1.57 3.29 5.83 4.14 9.06 1.94 3.26-4.09 5.36-.49 8.31 4.7 3.26 4.57-5.37 3.79-8.07 4.32-.51 8.07-3.46 12.5-3.26.67 2.49-.77 3.29-3.08 3.11-5.34 3.22-4.1 14.04 2.01 17.03 1.63 2.84 6.4 2.72 7.19 6.01-7.16-.59-17.84-7.02-21.1 2.97 2.46 5.77 4.37 12.37 9.99 15.9 2.71 1.53 4.17 4.25 5.01 7.14-3.93-1.54-7.86-3.23-10.99-6.12-2.43-3.8-4.04-8.04-5.8-12.17l-1-3.93c-.04-1.21-.42-2.22-1.15-3.01-.94-.73-1.94-1.37-2.93-2.01-10-4.82-10.04-16.18-13.67-24.94l-2.2-2.93c-1.21-2.02-2.24-4.14-3.23-6.27.23-6.31-1.53-13.51 3.2-18.6 4.85-3.39-.6-6.88-2.07-10.28l-1.18-2.77-.17-5.08c4.3-1.77 12.56 2.69 10.34-5.98z"/><path fill="#849652" d="M292.98 166.52c-2.65-.19-10.38-6.52-5.03-6.5 3.99-3.1 11.72 4.84 5.91 6.58l-.88-.08z"/><path fill="#baac8f" d="M201.86 161c1.6.06 5.09-.56 4.97 1.85-1.66 2.65-4.02-.11-4.97-1.85z"/><path fill="#303718" opacity=".67" d="M233.08 163.92c4.07.12 8.15.19 12.17.99-3.68-.75-10.23 1.67-12.17-.99z"/><path fill="#687b43" d="M229.28 167.04c4.1 3.21 10.01-.39 11.58 5.26.02 4.14-2.57 4.38-1.94-.11-2.49 2.72-4.85.54-7.56-.05-1.13 2.79-2.25 5.65-2.45 8.69-2.28-3.72-3.37 4.02-6.65 2.85-6.57-1.51-2.64-11.36 1.4-13.05 3.52 2.82 4.96-.21 5.62-3.59z"/><path fill="#7e9049" d="M240.86 172.3c.82-5.87 11.23-8.16 12.63-1.76 4.54-1.6 7.68 2.07 9.6 5.73-3.19.6-4.23-3.82-7.17-4.26-4.12.97-8.94 2.22-12.69-.02.11 3.58-1.35 6.79-2.57 10.03-4.07-2.37-4.91 1.86-5.95 4.94-1.88-2.1-3.71-4.24-5.8-6.13.2-3.04 1.32-5.9 2.45-8.69 2.71.59 5.07 2.77 7.56.05-.63 4.49 1.96 4.25 1.94.11z"/><path fill="#b2ad5b" d="M308.18 169.07c4.29-.96 4.81 8.83.51 7.69-5.08 1.81-2.54-5.57-.51-7.69z"/><path fill="#98aa65" d="M243.23 171.99c3.75 2.24 8.57.99 12.69.02 2.94.44 3.98 4.86 7.17 4.26 2.23 2.78-1.63 5.43-3.22 7.51-1.86 1.03-4.63 2.95-4.54-.52-.71-6.39-3.98 4.92-5.66.1-1.1-4.73-5.2-.52-4.73 2.55-3.18 2.68-4.19-1.11-4.28-3.89 1.22-3.24 2.68-6.45 2.57-10.03z"/><path fill="#7f8a46" opacity=".96" d="M264.76 186.39c.39-4.16.85-9.8 3.23-12.85l1.26 2.4c.32 2 .48 4.04.35 6.07-.94.88-1.87 1.77-2.72 2.74l-2.12 1.64z"/><path fill="#536032" d="M268.89 186.69c6.38-.78 9.06-5.97 9.71-11.85-.59 5.42 8.42 4.16 8.82.27 2.01 1.19 3.94 2.59 6.27 3.1 1.82 2.62 3.84 5.14 5.37 7.96-4.23-1.34-7.9-8.54-12.32-2.26-1.25-2.24-2.64-4.95-5.74-3.93-2.95 7.76 5.61 10.02 9 15.05-4.08 2.05-5.15-3.2-8.81-3.3-4.27-2.76-2.38 5.36-7.62 2.02-.21-3.47-3.48-2.84-5.84-1.96l.17-4.11.43-.77.56-.22z"/><path fill="#80884d" d="M293.36 177.19c8.39-4.75 7.44 3.64 9.14 8.16 3.14.63 5.43 5.97 3.49 7.53-7.52.44 3.48 4.56 3.01 8.05-.49 3.79-3.88.61-5.89-.04.67 1.71 1.41 3.39 2.11 5.1l-4.07 1.59c-4.55-3.4-7.97-8.66-9.18-14.26 2.9.08 1.47-1.6.39-3.02 1.54-1.56 3.31-.22 4.94.46-.34-3.07-7.66-8.21-8.42-3.85-.73-.99-1.47-1.97-2.14-3 4.42-6.28 8.09.92 12.32 2.26-1.53-2.82-3.55-5.34-5.37-7.96l-.33-1.02z"/><path fill="#7c8851" d="M185.34 178.33c3.12-.45 6.35 4.5 2.93 6.92-2.07.87-6.57.8-7.29-2.25.58-2.23 2.5-3.55 4.36-4.67z"/><path fill="#9ca965" d="M191.19 180.67c3.82.99 5.44 8.74 5.92 12.48-2.49-3.12-5.67-5.96-5.8-10.26l-.12-2.22z"/><path fill="#49481d" d="M281 179.98c3.1-1.02 4.49 1.69 5.74 3.93l2.14 3c1.19 2.06 2.11 4.25 3.09 6.41 1.21 5.6 4.63 10.86 9.18 14.26-2.34 1.19-4.74 2.27-7.01 3.59-3.63-4.75.02-11.81-4.14-16.14-3.39-5.03-11.95-7.29-9-15.05z"/><path fill="#aca756" d="M313.77 181.86c5.13-3.34 4.42.64 3.45 5-3.78 3.16-7.65-2.51-3.45-5z"/><path fill="#748237" d="M244.94 185.91c-.47-3.07 3.63-7.28 4.73-2.55 1.68 4.82 4.95-6.49 5.66-.1-.09 3.47 2.68 1.55 4.54.52l.02 5.99-4.85 2.49c-3.38-.1-.55-4.28-1.04-6.36-3 1.4-6.05 1.48-9.06.01z"/><path fill="#a9986f" d="M288.88 186.91c.76-4.36 8.08.78 8.42 3.85-1.63-.68-3.4-2.02-4.94-.46 1.08 1.42 2.51 3.1-.39 3.02l-3.09-6.41z"/><path fill="#3e481f" d="M247.95 208.99c2.86-9.84 13.07-14.58 19.95-21.31l-.17 4.11c.75 6.27-4.7 10.78-1.8 17.22-5.83-2.59-8.76 1.87-7.56 7.91-2.11 2.42-4.79 2.11-7.25.49-2.62 2.59-3.22 7.59-6.94 8.8.78-5.63.06-11.51-2.96-16.4 2.29.35 5.99 2.67 6.73-.82z"/><path fill="#6c703b" d="M267.73 191.79c2.36-.88 5.63-1.51 5.84 1.96 5.24 3.34 3.35-4.78 7.62-2.02 1.78 3.83-2.72 5.36-5.16 7.21-1.91-1.25-3.61-2.94-5.99-3.18 1.07 1.79 5.56 7.05.82 5.52-5.37-2.13-3.08 5.85-.63 7.99-1.71 1.43-4.06 2.79-4.17 5.29 3.51-.15 2.85 3.35 1.92 5.58-4.58-6.96-7.62 3.36-7.67 7.69-.71 2.05-1.59.43-1.99-.87 1.61-3.34.65-6.69.05-10.04-1.2-6.04 1.73-10.5 7.56-7.91-2.9-6.44 2.55-10.95 1.8-17.22z"/><path fill="#aaa865" d="M312.66 197.09c1.45-3.02 2.28-8.37 7.41-6.06.97 4.34-3.33 7.97-7.41 6.06z"/><path fill="#848b50" d="M281.19 191.73c3.66.1 4.73 5.35 8.81 3.3 4.16 4.33.51 11.39 4.14 16.14a9.88 9.88 0 0 1-1.1 2.9l-2.68.62c-2.94-2.79-6.28 3.53-2.52 3.39-4.79-1.95-14.43 13.27-6.81 8.07l.17 3c-1.66 3.26-4.5 5.66-7.09 8.16-2.69-3.84-10.12 1.41-7.08-5.24-6.06-.37-1.69 8.99-7.76 7.99 1.92-4.43-3.83-3.65-6.43-5 .3 2.88 4.2 2.28 5.54 4.48l-6.52-.46c-6.25 1.27-5.1-5.22-2.57-8.54.91.1 5.32-.79 2.83-1.32-4.96.98 1.31-8.35 2.01-3.52.64 1.38 2.95.44 4.19 1.26.4 1.3 1.28 2.92 1.99.87.05-4.33 3.09-14.65 7.67-7.69-3.14 3.9-7.19 7.32-7.17 12.87 6.15-4.35 14.7-8.45 14.24-17.09 2 1.25 3.59 3.04 5.59 4.28 1.33-5.37-1.74-9.29-3.36-14.05-2.75-.13-4.87 1.74-7.05 3.12-2.45-2.14-4.74-10.12.63-7.99 4.74 1.53.25-3.73-.82-5.52 2.38.24 4.08 1.93 5.99 3.18 2.44-1.85 6.94-3.38 5.16-7.21m-11.01 10.42c-2.33 1.38-1.17 5.43 1.71 4.9-.4-1.48.36-4.85-1.71-4.9z"/><path fill="#282f11" opacity=".64" d="M247.9 193.32c1.57-1.09 3.75-1.06 5.22.2l-5.22-.2z"/><path fill="#9faa67" d="M188.88 193.76l8.71.57c1.99 4.27 4.42 8.28 8.4 10.77-.98 4-3.93-.92-5.93-1.8-4.45 2.88-9.58 5.51-15.08 4.74-3.15-8.12 7.4-6.01 11.25-7.33-1.59-4.14-10.07-1.99-7.35-6.95z"/><path fill="#6a632a" d="M213.17 194.32c.83 3.82 7.61 3.7 11.71 1.68 8.85 3.68-9.71 7.32-2.25 11.33.7 1.43-5.86 1.25-3.56-2.17 5.21-3.86-4.74-5.86-7.82-5.39-2.86-1.7-.63-4.93 1.92-5.45z"/><path fill="#dcd1c0" d="M228.16 195.16c4.64-1-1 4.64 0 0z"/><path fill="#a4a266" opacity=".95" d="M315.17 200.79c2.17-1.04 4.38-2.1 6.77-2.54l.65.66c-1.14 2.4-3.13 4.24-5.47 5.45-3.13.32-3.51-1.2-1.95-3.57z"/><path fill="#c5b498" d="M270.18 202.15c2.07.05 1.31 3.42 1.71 4.9-2.88.53-4.04-3.52-1.71-4.9z"/><path fill="#97a664" d="M270.23 209.27c2.18-1.38 4.3-3.25 7.05-3.12 1.62 4.76 4.69 8.68 3.36 14.05-2-1.24-3.59-3.03-5.59-4.28.46 8.64-8.09 12.74-14.24 17.09-.02-5.55 4.03-8.97 7.17-12.87.93-2.23 1.59-5.73-1.92-5.58.11-2.5 2.46-3.86 4.17-5.29z"/><path fill="#556631" d="M239.48 208.99l1.74.82c3.02 4.89 3.74 10.77 2.96 16.4 3.72-1.21 4.32-6.21 6.94-8.8 2.46 1.62 5.14 1.93 7.25-.49.6 3.35 1.56 6.7-.05 10.04-1.24-.82-3.55.12-4.19-1.26-.7-4.83-6.97 4.5-2.01 3.52 2.49.53-1.92 1.42-2.83 1.32-2.53 3.32-3.68 9.81 2.57 8.54 5.14 2.97-1.63 1.97-4.81 1.81-1.54-1.65-2.67-3.61-3.51-5.69-1.81.81-3.6 4.13-5.4 1.61-.18-5.47 7.74-5.63 7.92-9.77-3.26.6-7.74 3.6-10.33.37 7.68 3.65 11.11-12.78 3.73-9.95-1.86.07 2.55-1.84 2.79-3.16-2.94-.19-5.83-.27-8.55-1.41l-.01-.83c2.02-.84 4.09-1.64 5.79-3.07z"/><path fill="#737033" d="M225.37 210.09c2.88.08 5.66.89 8.32 1.97l.01.83c-3.92 2.45 1.23 6.73-3.95 6.94-3.21-1.79-2.27 3.61-2.13 5.45-1.44-1.48-2.3-3.88-4.51-4.31-2.4 2.88 3.19 8.16-.84 9.15-1.63-6.63-5.61-2.38-5.81 2.32-3.73 8.02 2.74 2.89 5.6 2.49-.75 4.1-7.43 7.62-10.02 3.39 4.21-.92-.81-6.89 2.11-9.17.98-2.87 7.05-3.22 4.78-6.67-1.72.05-3.43.22-5.14.36 4.74-.69 2.29-3.4-.85-4.29 1.33-.55 2.7-1.03 3.98-1.7.79-2.62-3.72-1.14-2.96-3.93 3.88-.67 6.48 2.48 9.55 4.16.29-2.41 1.03-4.72 1.86-6.99z"/><path fill="#8b9656" d="M229.75 219.83c5.18-.21.03-4.49 3.95-6.94 2.72 1.14 5.61 1.22 8.55 1.41-.24 1.32-4.65 3.23-2.79 3.16 7.38-2.83 3.95 13.6-3.73 9.95 2.59 3.23 7.07.23 10.33-.37-.18 4.14-8.1 4.3-7.92 9.77 1.8 2.52 3.59-.8 5.4-1.61.84 2.08 1.97 4.04 3.51 5.69-5.12-1.95-8.86 6.24-13.61 1.05.25-2.53 1.62-6.28-2.42-4.92-4.72.77 4.65 6.22-.87 6.1-2.71-1.02-8.19 3.16-2.83 2.29-3.47 6.23-8.01-2.37-12.31.54-2.22.64-3.46 2.82-5.08 4.3-2.58-.3-3.52-2.99-5.84-3.82 1.73-1.69 7.05-3.01 4.6-6.03-1.65-1.72 1.13-2.95 1.95-4.34l1.4 2.26c2.59 4.23 9.27.71 10.02-3.39-2.86.4-9.33 5.53-5.6-2.49.2-4.7 4.18-8.95 5.81-2.32-5.57-.21.56 6.05 0 0 4.03-.99-1.56-6.27.84-9.15 2.21.43 3.07 2.83 4.51 4.31 1.32 1.83 3.18 3.44 5.46 3.86-.14-3.38-1.9-6.34-3.33-9.31z"/><path fill="#b9a88a" d="M287.84 218.08c-3.76.14-.42-6.18 2.52-3.39l-2.52 3.39z"/><path fill="#72692e" opacity=".94" d="M290.36 214.69l2.68-.62c-3.22 5.62-8.73 9.44-11.84 15.08l-.17-3c-7.62 5.2 2.02-10.02 6.81-8.07.9-1.09 1.7-2.25 2.52-3.39z"/><path fill="#5f592e" d="M169.92 232.1c-6.11-2.99-7.35-13.81-2.01-17.03-4.02 8.3 2.48 3.65 5.97 6.94.18 5.76.95 11.77 6.84 14.27 1.78 5.7 8.22 8.3 11.75 12.89l.09 1.47c1.14 3.62-.34 5.79-3.38 2.74-3.92-3.43-9.21-5.63-11.28-10.71-2.26-1.62-6.88-7.12-8.43-2.26-5.31 6.98 1.31 14.41 4.23 20.91 3.93 4.6 8.64-2.57 12.55.44-.46-2.02-2.3-3.95-1.38-6.08l.91.45c3.73 1.07 4.64 5.33 7.74 7.24-.09-2.01-1.23-4.69 1.39-5.51 1.12 2.35.7 6.68 4.29 4.33 6.02-3.93 6.82 4.21 11.89 5.18l-1.75.97-9.53-.24c-3.08-1.54-6.28-2.32-9.59-.96l-10.46.07c-3.07-.52-5.94-1.81-8.75-3.09-.84-2.89-2.3-5.61-5.01-7.14-5.62-3.53-7.53-10.13-9.99-15.9 3.26-9.99 13.94-3.56 21.1-2.97-.79-3.29-5.56-3.17-7.19-6.01z"/><path fill="#9c9a60" d="M176.92 215.75c2.57 6.68 11.04-1.89 13.92 4.45 1.19 3.26-3.6.34-5.36.73.02 1.45.62 3.31-1.46 3.47-1.43-4.2-2.4-.69-3.32 1.54-5.69.95-4.85-5.04-4.84-9.04l1.06-1.15z"/><path fill="#88722f" d="M173.88 222.01c.06-1.91.22-3.97 1.98-5.11-.01 4-.85 9.99 4.84 9.04.92-2.23 1.89-5.74 3.32-1.54 3.22 4.3-1.56 8.07-3.3 11.88-5.89-2.5-6.66-8.51-6.84-14.27z"/><path fill="#404317" d="M227.62 225.28c-.14-1.84-1.08-7.24 2.13-5.45 1.43 2.97 3.19 5.93 3.33 9.31-2.28-.42-4.14-2.03-5.46-3.86z"/><path fill="#4e4c23" d="M213.79 222.84l5.14-.36c2.27 3.45-3.8 3.8-4.78 6.67-2.92 2.28 2.1 8.25-2.11 9.17l-1.4-2.26c-3.98-4.2-2.68-11.6 3.15-13.22z"/><path fill="#96ab6d" d="M189.2 230.33c2.21 2.26 2.02 9.52 2.82 13.83-2.49-3.62-9.49-10.82-2.82-13.83z"/><path fill="#cfc0a5" d="M222.27 230.12c-5.57-.21.56 6.05 0 0z"/><path fill="#747d35" d="M259.27 240.06c6.07 1 1.7-8.36 7.76-7.99-3.04 6.65 4.39 1.4 7.08 5.24-.9 2.94-1.46 6.01-2.88 8.77l-2.13 1.11c-2.83-1.29-5.25-1.11-7.25.53-4.2 2.18-5.58 8.56-11.63 6.54-2.97-.08-6.59-2.35-9.19-.25l-3.87 2.34c-1.38-.67-3.35-.94-4.25.62-4.53-.07-9.04-.56-13.56-.64-1 4.73-3.57 9.09-8.26 11.04-5.07-.97-5.87-9.11-11.89-5.18-3.59 2.35-3.17-1.98-4.29-4.33-2.62.82-1.48 3.5-1.39 5.51-3.1-1.91-4.01-6.17-7.74-7.24 1.28-.71 2.64-1.44 3.4-2.75 3.04 3.05 4.52.88 3.38-2.74a78.93 78.93 0 0 1 2.21 1.52c3.55 4.06 16.34 6.73 15.16-1.91 1.62-1.48 2.86-3.66 5.08-4.3 4.3-2.91 8.84 5.69 12.31-.54-5.36.87.12-3.31 2.83-2.29 5.52.12-3.85-5.33.87-6.1 4.04-1.36 2.67 2.39 2.42 4.92 4.75 5.19 8.49-3 13.61-1.05 3.18.16 9.95 1.16 4.81-1.81 2.17.09 4.34.28 6.52.46-1.34-2.2-5.24-1.6-5.54-4.48 2.6 1.35 8.35.57 6.43 5m-10.94 7.31c-3.86.05-7.63.99-9.47 4.63 4.39-.07 10.99.49 12.16-5.05l-2.69.42M211 258.51c-2.11-1.54-2.89 1.24-3.71 2.69.12 6.51 13.9-.27 7.05-4.16-.65-2.02-3.17.18-3.34 1.47z"/><path fill="#8b9f66" d="M200.3 237.03c6.52.89 2.75 9.98-1.96 12.02 2.85 4.05.39 4.73-3.57 3.11a78.93 78.93 0 0 0-2.21-1.52l-.09-1.47c.1-7.12 10.98-2.3 7.83-12.14z"/><path fill="#776b34" d="M169.47 240.41c1.55-4.86 6.17.64 8.43 2.26-1.06 8.14-3.72-4.04-6.67-.46 1.15 4.11-2.51 10.82 4.07 10.43-.9 5.1 2.59 2.77 3.36-.61-4.43-5.31 8.23-.95 6.21 3.65-.92 2.13.92 4.06 1.38 6.08-3.91-3.01-8.62 4.16-12.55-.44-2.92-6.5-9.54-13.93-4.23-20.91z"/><path fill="#8b8355" d="M171.23 242.21c2.95-3.58 5.61 8.6 6.67.46 2.07 5.08 7.36 7.28 11.28 10.71-.76 1.31-2.12 2.04-3.4 2.75l-.91-.45c2.02-4.6-10.64-8.96-6.21-3.65-.77 3.38-4.26 5.71-3.36.61-6.58.39-2.92-6.32-4.07-10.43z"/><path fill="#99a95f" d="M248.33 247.37l2.69-.42c-1.17 5.54-7.77 4.98-12.16 5.05 1.84-3.64 5.61-4.58 9.47-4.63z"/><path fill="#343115" opacity=".75" d="M261.85 247.72c2-1.64 4.42-1.82 7.25-.53-1.97 1.77-4.39 1.94-7.25.53z"/><path fill="#3a3c17" opacity=".8" d="M241.03 254.01c2.6-2.1 6.22.17 9.19.25-3.08.15-6.13-.04-9.19-.25z"/><path fill="#e9e3d4" d="M211 258.51c.17-1.29 2.69-3.49 3.34-1.47-.18 1.75-1.95 2.43-3.34 1.47z"/><path fill="#2f3817" opacity=".61" d="M232.91 256.97c.9-1.56 2.87-1.29 4.25-.62-1.18 1.05-2.82 1.03-4.25.62z"/><path fill="#a7966f" d="M214.34 257.04c6.85 3.89-6.93 10.67-7.05 4.16.82-1.45 1.6-4.23 3.71-2.69 1.39.96 3.16.28 3.34-1.47z"/><path fill="#332a16" opacity=".72" d="M199.81 268.1l9.53.24-1.18.96-8.35-1.2z"/></svg>