<?xml version="1.0" encoding="UTF-8" ?>
<!DOCTYPE svg PUBLIC "-//W3C//DTD SVG 1.1//EN" "http://www.w3.org/Graphics/SVG/1.1/DTD/svg11.dtd">
<svg width="384pt" height="384pt" viewBox="0 0 384 384" version="1.1" xmlns="http://www.w3.org/2000/svg">
<g id="#0000000e">
</g>
<g id="#00000017">
</g>
<g id="#5a5d32f7">
<path fill="#5a5d32" opacity="0.97" d=" M 177.30 25.34 C 181.41 20.56 186.00 20.47 190.00 24.96 C 193.42 20.54 198.97 21.69 199.98 27.34 L 200.07 28.02 C 195.89 28.88 187.21 26.95 188.66 34.02 C 181.74 29.24 180.93 36.87 174.93 38.07 C 168.49 38.20 164.15 44.14 157.39 41.46 C 153.54 41.07 150.74 44.45 147.67 46.23 C 147.98 44.73 148.39 43.26 148.85 41.81 C 150.17 41.15 151.49 40.49 152.84 39.88 C 155.91 39.64 159.38 40.79 162.21 39.18 C 170.94 37.62 166.82 19.96 177.30 25.34 Z" />
</g>
<g id="#272a1494">
</g>
<g id="#79823efd">
<path fill="#79823e" opacity="1.00" d=" M 205.05 27.20 C 207.03 27.08 209.02 26.98 211.02 26.94 C 215.54 30.62 216.94 36.59 212.69 41.14 C 212.13 41.87 212.21 42.58 212.92 43.28 C 210.56 44.45 208.34 45.89 205.96 47.01 C 203.18 44.70 201.47 41.42 199.86 38.25 C 200.91 30.79 198.15 34.46 196.25 35.66 C 196.24 31.71 189.73 30.38 190.36 35.28 C 192.27 38.57 201.87 39.49 199.58 45.63 C 197.72 48.88 202.66 51.24 199.69 54.18 C 198.39 56.43 197.37 58.82 196.17 61.11 C 192.38 69.37 181.09 74.17 183.27 84.70 C 182.62 89.72 186.37 92.94 189.36 96.21 C 184.01 95.02 183.85 100.95 183.56 104.75 C 180.47 106.32 177.25 108.17 176.82 112.02 C 179.41 110.52 181.72 108.62 184.23 107.00 C 184.59 109.32 178.58 113.67 183.14 112.86 C 182.52 119.88 178.23 109.48 174.57 114.54 C 171.69 117.29 172.47 115.44 173.85 112.92 C 170.83 112.25 167.07 113.03 165.54 109.41 C 164.08 106.29 162.06 109.58 160.70 111.01 C 157.79 109.48 155.36 107.26 152.75 105.29 C 156.01 104.87 152.55 98.98 155.21 100.86 C 158.45 103.55 161.11 98.20 164.45 97.83 C 168.13 105.89 176.40 97.63 182.08 102.13 C 182.07 99.13 178.36 98.80 176.26 97.69 C 178.21 95.85 180.32 94.11 181.78 91.84 C 180.33 88.13 176.99 85.04 176.19 81.20 C 178.27 78.50 180.01 75.43 180.06 71.93 C 176.54 72.38 176.21 77.47 173.06 79.18 C 176.79 87.77 162.20 87.16 159.06 81.19 C 156.98 84.78 146.31 88.53 151.80 81.97 C 155.83 76.99 144.70 67.76 151.90 65.63 C 159.07 67.41 150.77 74.12 156.33 76.77 C 158.30 77.96 158.10 74.80 159.19 73.96 C 162.82 70.43 161.68 82.53 165.84 77.85 C 165.10 72.21 163.10 63.57 167.90 59.57 C 169.68 60.14 173.45 63.96 173.23 60.00 C 173.96 65.16 173.93 70.29 171.88 75.11 C 174.77 74.73 175.71 71.41 178.14 70.13 C 181.80 67.26 188.54 65.33 186.88 59.29 C 184.37 55.83 185.05 62.62 182.18 62.01 C 181.12 57.72 182.24 52.75 179.80 48.97 C 175.15 49.16 179.37 54.56 178.67 57.34 C 179.93 61.60 171.73 55.22 173.23 60.00 C 172.63 59.69 171.43 59.06 170.83 58.74 C 173.61 54.35 174.41 47.22 180.67 46.64 C 184.95 46.59 183.29 41.90 183.65 39.04 C 181.74 40.04 179.76 40.85 177.91 39.23 C 177.57 40.80 177.79 42.51 176.90 43.92 C 174.27 43.72 175.22 39.93 174.93 38.07 C 180.93 36.87 181.74 29.24 188.66 34.02 C 187.21 26.95 195.89 28.88 200.07 28.02 C 201.77 28.42 203.63 28.31 205.05 27.20 M 205.24 41.30 C 203.62 47.37 211.35 40.44 205.24 41.30 M 195.19 44.15 C 195.06 45.23 192.69 48.33 194.94 48.01 C 197.94 49.68 198.05 42.45 195.19 44.15 M 193.28 54.28 C 191.10 54.89 188.60 56.95 191.10 58.96 C 193.38 57.92 199.01 52.87 193.28 54.28 Z" />
</g>
<g id="#899b57fd">
<path fill="#899b57" opacity="1.00" d=" M 190.36 35.28 C 189.73 30.38 196.24 31.71 196.25 35.66 C 198.15 34.46 200.91 30.79 199.86 38.25 C 201.47 41.42 203.18 44.70 205.96 47.01 C 208.34 45.89 210.56 44.45 212.92 43.28 C 218.06 43.21 223.33 42.44 228.41 43.62 C 230.93 49.55 221.21 52.18 217.09 53.09 C 214.68 52.81 211.85 51.82 210.68 54.68 C 207.92 57.80 203.03 54.36 199.69 54.18 C 202.66 51.24 197.72 48.88 199.58 45.63 C 201.87 39.49 192.27 38.57 190.36 35.28 Z" />
</g>
<g id="#657139ff">
<path fill="#657139" opacity="1.00" d=" M 157.39 41.46 C 164.15 44.14 168.49 38.20 174.93 38.07 C 175.22 39.93 174.27 43.72 176.90 43.92 C 177.79 42.51 177.57 40.80 177.91 39.23 C 179.76 40.85 181.74 40.04 183.65 39.04 C 183.29 41.90 184.95 46.59 180.67 46.64 C 174.41 47.22 173.61 54.35 170.83 58.74 C 169.86 58.22 168.93 57.63 168.00 57.04 C 168.85 54.35 169.68 51.64 170.74 49.01 C 165.76 48.21 156.18 54.94 154.46 47.42 C 153.43 44.70 149.82 47.52 147.67 46.23 C 150.74 44.45 153.54 41.07 157.39 41.46 Z" />
</g>
<g id="#1a180d74">
</g>
<g id="#dacebaff">
<path fill="#daceba" opacity="1.00" d=" M 205.24 41.30 C 211.35 40.44 203.62 47.37 205.24 41.30 Z" />
</g>
<g id="#565f27d5">
<path fill="#565f27" opacity="0.84" d=" M 212.92 43.28 C 212.21 42.58 212.13 41.87 212.69 41.14 C 217.34 43.15 225.07 39.73 228.41 43.62 C 223.33 42.44 218.06 43.21 212.92 43.28 Z" />
</g>
<g id="#b3a480ff">
<path fill="#b3a480" opacity="1.00" d=" M 195.19 44.15 C 198.05 42.45 197.94 49.68 194.94 48.01 C 192.69 48.33 195.06 45.23 195.19 44.15 Z" />
</g>
<g id="#535c31fd">
<path fill="#535c31" opacity="1.00" d=" M 134.91 62.03 C 140.96 58.73 147.76 53.93 147.67 46.23 C 149.82 47.52 153.43 44.70 154.46 47.42 C 156.18 54.94 165.76 48.21 170.74 49.01 C 169.68 51.64 168.85 54.35 168.00 57.04 C 161.59 51.10 159.74 66.65 151.90 65.63 C 144.70 67.76 155.83 76.99 151.80 81.97 C 146.68 81.99 143.38 78.06 140.70 74.19 C 138.99 74.82 138.21 76.77 137.13 78.13 C 137.01 76.31 136.72 74.51 136.19 72.76 C 135.30 69.26 134.98 65.64 134.91 62.03 Z" />
</g>
<g id="#8f9f59ff">
<path fill="#8f9f59" opacity="1.00" d=" M 178.67 57.34 C 179.37 54.56 175.15 49.16 179.80 48.97 C 182.24 52.75 181.12 57.72 182.18 62.01 C 185.05 62.62 184.37 55.83 186.88 59.29 C 188.54 65.33 181.80 67.26 178.14 70.13 C 175.71 71.41 174.77 74.73 171.88 75.11 C 173.93 70.29 173.96 65.16 173.23 60.00 C 171.73 55.22 179.93 61.60 178.67 57.34 Z" />
</g>
<g id="#55662aef">
<path fill="#55662a" opacity="0.94" d=" M 210.68 54.68 C 211.85 51.82 214.68 52.81 217.09 53.09 C 215.37 54.32 213.65 55.57 211.93 56.79 C 207.01 59.49 201.44 59.59 196.17 61.11 C 197.37 58.82 198.39 56.43 199.69 54.18 C 203.03 54.36 207.92 57.80 210.68 54.68 Z" />
</g>
<g id="#0000001f">
</g>
<g id="#ac9773ff">
<path fill="#ac9773" opacity="1.00" d=" M 193.28 54.28 C 199.01 52.87 193.38 57.92 191.10 58.96 C 188.60 56.95 191.10 54.89 193.28 54.28 Z" />
</g>
<g id="#60723cff">
<path fill="#60723c" opacity="1.00" d=" M 151.90 65.63 C 159.74 66.65 161.59 51.10 168.00 57.04 C 167.97 57.67 167.92 58.94 167.90 59.57 C 163.10 63.57 165.10 72.21 165.84 77.85 C 161.68 82.53 162.82 70.43 159.19 73.96 C 158.10 74.80 158.30 77.96 156.33 76.77 C 150.77 74.12 159.07 67.41 151.90 65.63 Z" />
</g>
<g id="#585d30ff">
<path fill="#585d30" opacity="1.00" d=" M 168.00 57.04 C 168.93 57.63 169.86 58.22 170.83 58.74 C 171.43 59.06 172.63 59.69 173.23 60.00 C 173.45 63.96 169.68 60.14 167.90 59.57 C 167.92 58.94 167.97 57.67 168.00 57.04 Z" />
</g>
<g id="#01010018">
</g>
<g id="#647232ff">
<path fill="#647232" opacity="1.00" d=" M 173.06 79.18 C 176.21 77.47 176.54 72.38 180.06 71.93 C 180.01 75.43 178.27 78.50 176.19 81.20 C 176.99 85.04 180.33 88.13 181.78 91.84 C 180.32 94.11 178.21 95.85 176.26 97.69 C 178.36 98.80 182.07 99.13 182.08 102.13 C 176.40 97.63 168.13 105.89 164.45 97.83 C 169.36 96.94 162.34 93.66 162.62 90.54 C 161.94 84.70 154.89 86.22 151.08 87.89 C 146.40 89.01 146.11 79.31 142.40 83.38 C 140.75 86.79 138.69 82.24 136.87 81.14 C 136.93 80.39 137.07 78.88 137.13 78.13 C 138.21 76.77 138.99 74.82 140.70 74.19 C 143.38 78.06 146.68 81.99 151.80 81.97 C 146.31 88.53 156.98 84.78 159.06 81.19 C 162.20 87.16 176.79 87.77 173.06 79.18 Z" />
</g>
<g id="#2428158f">
</g>
<g id="#585c32fd">
<path fill="#585c32" opacity="1.00" d=" M 136.87 81.14 C 138.69 82.24 140.75 86.79 142.40 83.38 C 146.11 79.31 146.40 89.01 151.08 87.89 C 154.89 86.22 161.94 84.70 162.62 90.54 C 162.34 93.66 169.36 96.94 164.45 97.83 C 161.11 98.20 158.45 103.55 155.21 100.86 C 152.55 98.98 156.01 104.87 152.75 105.29 C 150.66 103.48 150.57 99.91 146.89 100.11 C 140.82 99.59 141.94 107.60 137.06 109.06 C 128.89 112.15 144.06 115.17 140.28 121.05 C 143.36 120.39 142.85 115.90 143.57 113.34 C 148.10 112.39 152.63 111.39 157.07 110.04 C 157.82 116.74 147.82 112.74 145.85 117.91 C 148.50 120.75 150.87 123.89 153.77 126.48 C 155.92 128.24 159.46 126.61 157.98 130.81 C 153.60 128.86 146.63 131.60 148.00 137.17 C 150.82 134.99 158.69 131.67 157.56 137.53 C 151.65 139.97 147.31 144.64 145.55 150.74 C 142.64 150.40 139.29 149.37 137.90 152.83 C 140.45 154.13 143.10 155.27 145.86 156.03 C 146.76 154.05 147.23 151.90 148.16 149.93 C 153.50 150.35 151.36 156.14 151.35 159.67 C 154.40 162.64 156.98 166.03 159.96 169.06 C 153.44 166.26 158.61 170.50 159.09 174.14 C 151.35 168.34 140.66 166.23 131.88 167.74 C 131.24 172.50 126.67 170.77 123.82 169.14 C 123.96 162.04 129.49 156.26 127.05 149.06 L 127.17 148.21 C 127.62 145.40 128.02 142.60 127.97 139.76 C 127.89 134.12 122.99 129.68 123.63 123.78 C 121.84 111.84 135.61 104.82 133.01 92.92 C 134.71 89.16 137.33 85.48 136.87 81.14 Z" />
</g>
<g id="#00000029">
</g>
<g id="#696532fb">
<path fill="#696532" opacity="1.00" d=" M 183.56 104.75 C 183.85 100.95 184.01 95.02 189.36 96.21 C 193.88 96.80 198.78 97.25 202.15 100.72 C 196.25 98.72 193.77 102.51 191.84 106.96 C 190.23 105.39 188.70 103.47 186.18 103.72 C 188.97 106.60 185.93 111.09 183.14 112.86 C 178.58 113.67 184.59 109.32 184.23 107.00 C 181.72 108.62 179.41 110.52 176.82 112.02 C 177.25 108.17 180.47 106.32 183.56 104.75 Z" />
</g>
<g id="#6a703fff">
<path fill="#6a703f" opacity="1.00" d=" M 137.06 109.06 C 141.94 107.60 140.82 99.59 146.89 100.11 C 150.57 99.91 150.66 103.48 152.75 105.29 C 155.36 107.26 157.79 109.48 160.70 111.01 C 164.67 114.50 163.54 127.36 170.29 121.18 C 170.30 126.47 163.61 122.75 160.20 123.86 C 163.44 120.19 161.95 112.51 155.41 115.34 C 150.30 116.04 153.81 123.00 153.77 126.48 C 150.87 123.89 148.50 120.75 145.85 117.91 C 147.82 112.74 157.82 116.74 157.07 110.04 C 152.63 111.39 148.10 112.39 143.57 113.34 C 142.85 115.90 143.36 120.39 140.28 121.05 C 144.06 115.17 128.89 112.15 137.06 109.06 Z" />
</g>
<g id="#7a7e40fb">
<path fill="#7a7e40" opacity="1.00" d=" M 191.84 106.96 C 193.77 102.51 196.25 98.72 202.15 100.72 C 208.39 106.71 204.43 115.31 205.10 122.73 C 217.26 131.66 229.77 143.39 231.86 159.19 C 231.90 159.66 231.96 160.58 231.99 161.05 C 231.43 161.08 230.30 161.14 229.74 161.16 C 229.04 161.14 227.64 161.09 226.93 161.06 C 224.24 159.42 222.16 156.61 222.73 153.14 C 220.89 145.76 208.92 149.18 207.96 140.87 C 208.37 137.18 199.81 136.42 203.35 133.42 C 204.68 132.63 206.27 131.82 205.25 130.07 C 203.14 125.21 204.12 120.13 202.94 115.20 C 203.74 113.19 203.98 111.10 202.34 109.44 C 200.79 106.86 199.38 103.27 195.97 102.88 C 196.26 106.38 198.38 109.94 196.51 113.34 C 195.83 115.95 201.67 114.27 200.68 116.70 C 199.78 123.94 195.32 114.75 193.83 112.13 C 192.96 108.08 185.01 111.40 185.93 115.10 C 185.69 117.29 184.63 112.75 183.14 112.86 C 185.93 111.09 188.97 106.60 186.18 103.72 C 188.70 103.47 190.23 105.39 191.84 106.96 Z" />
</g>
<g id="#8b955aff">
<path fill="#8b955a" opacity="1.00" d=" M 195.97 102.88 C 199.38 103.27 200.79 106.86 202.34 109.44 C 198.00 109.71 201.68 113.46 202.94 115.20 C 204.12 120.13 203.14 125.21 205.25 130.07 C 199.33 128.06 196.09 115.10 188.40 120.24 C 179.71 117.75 188.41 127.41 182.97 127.01 C 181.61 123.81 180.46 120.52 179.59 117.16 C 175.49 115.15 175.95 122.05 172.07 120.45 C 171.62 120.63 170.74 120.99 170.29 121.18 C 163.54 127.36 164.67 114.50 160.70 111.01 C 162.06 109.58 164.08 106.29 165.54 109.41 C 167.07 113.03 170.83 112.25 173.85 112.92 C 172.47 115.44 171.69 117.29 174.57 114.54 C 178.23 109.48 182.52 119.88 183.14 112.86 C 184.63 112.75 185.69 117.29 185.93 115.10 C 185.01 111.40 192.96 108.08 193.83 112.13 C 195.32 114.75 199.78 123.94 200.68 116.70 C 201.67 114.27 195.83 115.95 196.51 113.34 C 198.38 109.94 196.26 106.38 195.97 102.88 Z" />
</g>
<g id="#c6b599ff">
<path fill="#c6b599" opacity="1.00" d=" M 202.94 115.20 C 201.68 113.46 198.00 109.71 202.34 109.44 C 203.98 111.10 203.74 113.19 202.94 115.20 Z" />
</g>
<g id="#8f8052ff">
<path fill="#8f8052" opacity="1.00" d=" M 155.41 115.34 C 161.95 112.51 163.44 120.19 160.20 123.86 L 159.52 124.17 C 158.97 117.47 151.30 124.21 157.14 125.30 C 156.03 125.74 154.91 126.13 153.77 126.48 C 153.81 123.00 150.30 116.04 155.41 115.34 Z" />
</g>
<g id="#767e40ff">
<path fill="#767e40" opacity="1.00" d=" M 172.07 120.45 C 175.95 122.05 175.49 115.15 179.59 117.16 C 180.46 120.52 181.61 123.81 182.97 127.01 C 178.34 129.28 181.36 130.86 184.77 132.20 C 182.71 138.25 185.30 144.22 190.22 147.84 C 187.70 149.15 185.20 148.28 182.80 147.19 C 182.25 151.10 191.33 156.86 183.15 157.10 C 185.05 153.17 182.05 151.42 180.74 155.84 C 178.55 159.12 182.07 162.25 185.36 161.85 C 182.15 165.59 183.89 168.91 185.22 172.91 C 180.29 168.24 181.15 176.86 179.81 180.18 C 176.62 181.16 173.07 180.92 176.30 177.29 C 182.98 169.18 167.69 164.92 173.03 156.06 C 173.89 150.89 177.91 160.45 176.98 155.10 C 176.69 150.59 171.10 151.93 168.07 150.93 C 168.71 148.29 177.21 147.35 171.66 145.32 C 166.93 144.05 175.40 140.44 171.69 139.30 C 169.32 137.49 166.68 145.02 165.65 140.37 C 163.20 135.40 168.90 132.10 167.64 127.31 C 170.70 126.03 172.89 124.05 172.07 120.45 Z" />
</g>
<g id="#696c3bff">
<path fill="#696c3b" opacity="1.00" d=" M 188.40 120.24 C 196.09 115.10 199.33 128.06 205.25 130.07 C 206.27 131.82 204.68 132.63 203.35 133.42 C 199.81 136.42 208.37 137.18 207.96 140.87 C 203.88 140.03 206.02 144.07 204.60 146.27 C 203.46 141.57 200.86 136.50 195.98 134.94 C 193.53 135.83 192.52 138.33 192.91 140.80 C 193.13 143.31 193.41 145.82 193.75 148.34 L 193.73 149.29 C 192.57 148.79 191.40 148.29 190.22 147.84 C 185.30 144.22 182.71 138.25 184.77 132.20 C 181.36 130.86 178.34 129.28 182.97 127.01 C 188.41 127.41 179.71 117.75 188.40 120.24 Z" />
</g>
<g id="#5d6538ff">
<path fill="#5d6538" opacity="1.00" d=" M 170.29 121.18 C 170.74 120.99 171.62 120.63 172.07 120.45 C 172.89 124.05 170.70 126.03 167.64 127.31 C 168.90 132.10 163.20 135.40 165.65 140.37 C 166.68 145.02 169.32 137.49 171.69 139.30 C 175.40 140.44 166.93 144.05 171.66 145.32 C 177.21 147.35 168.71 148.29 168.07 150.93 C 171.10 151.93 176.69 150.59 176.98 155.10 C 177.91 160.45 173.89 150.89 173.03 156.06 C 167.69 164.92 182.98 169.18 176.30 177.29 C 173.07 180.92 176.62 181.16 179.81 180.18 C 181.78 180.62 183.19 181.61 182.68 183.79 C 182.53 185.23 182.39 186.68 182.03 188.08 C 178.81 188.93 181.98 193.24 178.42 193.53 C 175.16 194.52 179.06 196.71 180.45 197.53 L 179.73 198.30 C 176.71 200.06 178.94 203.40 178.98 206.06 C 176.75 206.30 174.83 205.19 172.94 204.21 C 170.94 205.98 172.72 207.98 174.96 207.57 C 173.89 209.96 173.01 212.46 173.78 215.09 C 169.79 214.37 172.75 207.51 168.20 209.10 C 164.91 214.77 173.03 220.76 177.15 215.16 C 180.92 211.79 176.06 218.01 178.60 219.76 C 176.53 220.13 174.57 220.83 172.85 222.06 C 168.66 217.02 166.35 224.14 167.00 227.94 C 166.57 229.70 166.06 231.44 165.62 233.20 C 162.06 231.06 154.48 221.99 161.72 220.24 C 164.46 219.79 162.04 217.19 160.90 216.28 C 156.92 218.26 152.44 218.41 148.33 219.99 C 148.84 212.12 141.50 210.11 135.03 209.86 C 135.38 207.79 136.03 205.75 137.12 203.95 C 138.73 204.61 140.24 206.80 141.88 204.97 C 141.64 200.28 135.99 198.76 135.40 194.30 C 137.07 191.46 140.74 186.23 142.57 191.95 C 144.90 186.02 148.95 179.80 155.92 178.97 C 158.99 181.08 161.25 184.64 165.80 182.95 C 168.43 178.60 163.23 176.69 164.46 172.42 C 163.04 171.20 161.48 170.16 159.96 169.06 C 156.98 166.03 154.40 162.64 151.35 159.67 C 151.36 156.14 153.50 150.35 148.16 149.93 C 147.23 151.90 146.76 154.05 145.86 156.03 C 143.10 155.27 140.45 154.13 137.90 152.83 C 139.29 149.37 142.64 150.40 145.55 150.74 C 147.31 144.64 151.65 139.97 157.56 137.53 C 158.69 131.67 150.82 134.99 148.00 137.17 C 146.63 131.60 153.60 128.86 157.98 130.81 C 159.46 126.61 155.92 128.24 153.77 126.48 C 154.91 126.13 156.03 125.74 157.14 125.30 C 157.74 125.02 158.93 124.46 159.52 124.17 L 160.20 123.86 C 163.61 122.75 170.30 126.47 170.29 121.18 M 173.26 184.19 C 172.14 185.21 170.63 186.25 170.95 188.00 C 170.85 193.02 177.84 190.09 179.87 187.85 C 178.81 185.45 176.10 183.00 173.26 184.19 Z" />
</g>
<g id="#c5b8a4ff">
<path fill="#c5b8a4" opacity="1.00" d=" M 157.14 125.30 C 151.30 124.21 158.97 117.47 159.52 124.17 C 158.93 124.46 157.74 125.02 157.14 125.30 Z" />
</g>
<g id="#5a6c3af9">
<path fill="#5a6c3a" opacity="0.98" d=" M 268.92 135.17 C 274.53 131.38 277.09 123.85 284.02 122.07 C 286.20 122.59 287.76 124.29 289.22 125.88 C 283.27 129.66 283.36 137.83 278.51 142.71 C 273.38 144.06 268.07 140.71 268.92 135.17 Z" />
</g>
<g id="#00000036">
</g>
<g id="#5e713dfd">
<path fill="#5e713d" opacity="1.00" d=" M 291.58 128.06 C 293.41 124.75 297.38 124.03 300.16 126.67 C 296.83 126.09 296.19 128.63 298.57 130.56 C 295.17 135.59 287.76 138.85 288.39 145.74 C 290.19 146.99 287.29 149.27 289.85 149.33 C 290.85 152.73 288.89 151.36 287.00 150.10 C 287.29 156.18 282.46 158.64 277.90 160.98 C 280.48 155.79 286.72 148.90 281.00 143.93 C 284.91 138.90 287.39 132.88 291.58 128.06 Z" />
</g>
<g id="#44522afe">
<path fill="#44522a" opacity="1.00" d=" M 289.22 125.88 C 289.98 126.62 290.76 127.36 291.58 128.06 C 287.39 132.88 284.91 138.90 281.00 143.93 C 286.72 148.90 280.48 155.79 277.90 160.98 C 275.17 164.54 276.39 169.28 280.96 169.96 C 288.35 165.97 288.88 156.65 293.13 150.19 C 295.45 146.83 297.11 143.09 299.28 139.64 C 301.35 148.79 296.59 156.62 293.98 165.14 C 289.48 167.69 286.01 172.45 289.83 177.09 C 294.96 183.41 286.92 179.72 283.44 177.91 C 284.36 173.84 281.37 178.71 279.36 177.55 C 276.99 176.62 275.39 177.97 274.08 179.80 C 270.27 176.35 264.79 176.70 260.20 174.90 C 260.44 170.42 267.29 178.03 265.86 173.14 C 265.39 167.25 258.20 169.16 255.05 165.85 C 256.14 161.62 263.24 169.32 262.93 163.30 C 260.48 162.07 258.15 160.55 256.91 158.00 C 258.61 157.56 260.37 157.47 262.11 157.24 C 263.19 159.53 264.36 166.45 267.67 162.69 C 268.96 160.28 274.00 159.81 272.66 156.54 C 269.93 155.01 267.35 152.88 264.08 152.77 C 268.75 147.69 263.08 147.43 258.57 149.09 C 259.82 154.00 251.26 159.31 251.47 151.77 C 254.44 147.12 259.85 144.50 263.13 139.99 C 265.05 138.37 266.96 136.75 268.92 135.17 C 268.07 140.71 273.38 144.06 278.51 142.71 C 283.36 137.83 283.27 129.66 289.22 125.88 Z" />
</g>
<g id="#92a264fe">
<path fill="#92a264" opacity="1.00" d=" M 298.57 130.56 C 296.19 128.63 296.83 126.09 300.16 126.67 C 301.24 127.41 302.03 128.51 302.26 129.81 C 302.59 133.49 301.38 136.76 299.28 139.64 C 297.11 143.09 295.45 146.83 293.13 150.19 C 292.03 149.91 290.94 149.62 289.85 149.33 C 287.29 149.27 290.19 146.99 288.39 145.74 C 287.76 138.85 295.17 135.59 298.57 130.56 Z" />
</g>
<g id="#64713dfb">
<path fill="#64713d" opacity="1.00" d=" M 302.26 129.81 C 300.83 136.91 308.87 133.65 311.06 137.84 C 308.56 142.26 300.97 142.32 301.20 148.97 C 302.99 156.84 297.38 165.00 291.98 169.10 C 291.61 172.18 294.44 174.27 296.05 176.53 L 295.69 177.28 C 293.73 177.14 291.78 177.11 289.83 177.09 C 286.01 172.45 289.48 167.69 293.98 165.14 C 296.59 156.62 301.35 148.79 299.28 139.64 C 301.38 136.76 302.59 133.49 302.26 129.81 Z" />
</g>
<g id="#8a6f28ff">
<path fill="#8a6f28" opacity="1.00" d=" M 192.91 140.80 C 192.52 138.33 193.53 135.83 195.98 134.94 C 200.86 136.50 203.46 141.57 204.60 146.27 C 203.46 148.78 203.07 151.77 201.21 153.88 C 198.61 152.52 195.84 151.39 193.73 149.29 L 193.75 148.34 C 195.66 147.64 197.57 146.96 199.47 146.26 C 202.86 144.82 195.76 139.32 192.91 140.80 Z" />
</g>
<g id="#89985efd">
<path fill="#89985e" opacity="1.00" d=" M 301.20 148.97 C 300.97 142.32 308.56 142.26 311.06 137.84 C 312.34 140.29 311.36 143.17 311.03 145.78 C 308.43 148.70 306.98 152.34 305.43 155.86 C 302.28 162.74 299.20 169.65 296.05 176.53 C 294.44 174.27 291.61 172.18 291.98 169.10 C 297.38 165.00 302.99 156.84 301.20 148.97 Z" />
</g>
<g id="#00000048">
</g>
<g id="#9d845bff">
<path fill="#9d845b" opacity="1.00" d=" M 192.91 140.80 C 195.76 139.32 202.86 144.82 199.47 146.26 C 198.35 145.38 196.16 141.26 195.39 144.27 C 193.52 146.96 198.02 145.72 199.47 146.26 C 197.57 146.96 195.66 147.64 193.75 148.34 C 193.41 145.82 193.13 143.31 192.91 140.80 Z" />
</g>
<g id="#545a2bff">
<path fill="#545a2b" opacity="1.00" d=" M 204.60 146.27 C 206.02 144.07 203.88 140.03 207.96 140.87 C 208.92 149.18 220.89 145.76 222.73 153.14 C 222.16 156.61 224.24 159.42 226.93 161.06 C 230.92 162.61 225.22 164.58 225.20 167.19 C 224.25 171.02 221.80 166.88 220.81 165.31 C 219.24 165.93 216.48 168.43 217.63 165.17 C 213.24 164.02 211.04 169.15 207.19 166.12 C 205.17 168.34 208.27 172.99 204.23 168.97 C 203.67 166.90 203.03 164.74 204.05 162.69 C 205.54 167.19 208.67 161.51 211.72 162.46 C 216.08 159.73 207.17 152.67 204.57 156.55 C 203.17 158.76 201.46 155.66 199.94 155.06 C 200.25 154.76 200.89 154.17 201.21 153.88 C 203.07 151.77 203.46 148.78 204.60 146.27 Z" />
</g>
<g id="#d3c7b4ff">
<path fill="#d3c7b4" opacity="1.00" d=" M 195.39 144.27 C 196.16 141.26 198.35 145.38 199.47 146.26 C 198.02 145.72 193.52 146.96 195.39 144.27 Z" />
</g>
<g id="#00000056">
</g>
<g id="#2f3c19b6">
<path fill="#2f3c19" opacity="0.71" d=" M 305.43 155.86 C 306.98 152.34 308.43 148.70 311.03 145.78 C 311.55 145.83 312.58 145.91 313.09 145.96 C 312.34 146.89 311.58 147.82 310.85 148.78 C 308.19 150.33 308.49 157.71 305.43 155.86 Z" />
</g>
<g id="#5d6f3cfc">
<path fill="#5d6f3c" opacity="1.00" d=" M 313.09 145.96 C 315.70 146.09 318.51 145.94 320.60 147.74 C 320.43 152.27 314.61 146.89 314.05 151.06 C 312.97 156.82 313.69 165.78 305.98 167.08 C 305.78 160.38 311.18 155.18 310.85 148.78 C 311.58 147.82 312.34 146.89 313.09 145.96 Z" />
</g>
<g id="#8a9454ff">
<path fill="#8a9454" opacity="1.00" d=" M 182.80 147.19 C 185.20 148.28 187.70 149.15 190.22 147.84 C 191.40 148.29 192.57 148.79 193.73 149.29 C 195.84 151.39 198.61 152.52 201.21 153.88 C 200.89 154.17 200.25 154.76 199.94 155.06 C 196.51 157.93 198.26 161.95 200.43 164.91 C 201.05 163.34 203.51 158.86 204.05 162.69 C 203.03 164.74 203.67 166.90 204.23 168.97 C 203.94 171.59 200.78 171.39 198.84 172.03 C 200.57 168.53 203.36 166.88 197.93 169.00 C 197.78 168.68 197.48 168.05 197.33 167.73 C 195.85 164.13 190.36 167.27 187.22 166.75 C 186.94 165.06 188.43 160.03 185.36 161.85 C 182.07 162.25 178.55 159.12 180.74 155.84 C 182.05 151.42 185.05 153.17 183.15 157.10 C 191.33 156.86 182.25 151.10 182.80 147.19 Z" />
</g>
<g id="#323b19fc">
<path fill="#323b19" opacity="1.00" d=" M 258.57 149.09 C 263.08 147.43 268.75 147.69 264.08 152.77 C 263.17 154.14 262.74 155.74 262.11 157.24 C 260.37 157.47 258.61 157.56 256.91 158.00 C 258.15 160.55 260.48 162.07 262.93 163.30 C 263.24 169.32 256.14 161.62 255.05 165.85 C 258.20 169.16 265.39 167.25 265.86 173.14 C 267.29 178.03 260.44 170.42 260.20 174.90 C 259.08 180.21 259.50 187.36 267.08 185.97 C 267.98 189.24 269.54 192.69 267.97 195.99 C 266.96 193.50 262.37 190.25 262.48 194.67 C 263.96 198.11 257.77 203.08 255.42 199.33 C 252.58 200.36 255.14 203.33 255.73 205.14 C 256.69 208.34 250.39 206.55 250.86 209.99 C 249.50 213.35 251.95 216.82 255.03 218.10 C 256.90 222.25 256.39 227.00 258.07 231.21 C 254.54 233.43 252.70 238.21 248.05 238.17 C 245.05 239.83 244.78 235.18 245.11 233.19 C 246.98 232.02 249.14 232.55 251.19 232.73 C 249.57 227.92 242.62 232.12 238.72 229.74 C 242.07 227.91 247.73 229.72 248.95 225.31 C 243.22 226.42 249.63 218.50 244.30 220.73 C 245.63 212.77 236.26 213.65 231.58 215.74 C 230.82 212.82 233.58 211.19 234.99 209.06 C 234.11 207.45 232.32 206.17 232.50 204.16 C 233.56 203.64 234.65 203.15 235.76 202.72 C 238.58 202.70 241.40 202.71 244.23 202.76 C 246.22 203.17 248.04 204.09 249.95 204.76 C 250.69 196.72 254.45 189.54 257.12 182.05 C 256.61 182.31 255.60 182.82 255.09 183.08 C 255.09 182.34 255.11 180.85 255.12 180.10 C 255.42 179.57 256.01 178.51 256.31 177.97 C 260.72 173.02 253.72 170.67 253.06 165.87 C 252.70 164.89 252.36 163.92 252.02 162.94 C 259.78 165.80 248.65 155.63 251.47 151.77 C 251.26 159.31 259.82 154.00 258.57 149.09 Z" />
</g>
<g id="#8f9a57f9">
<path fill="#8f9a57" opacity="0.98" d=" M 320.60 147.74 L 321.35 147.98 C 320.52 149.60 320.83 151.44 321.37 153.09 C 319.23 161.91 312.67 168.71 310.23 177.46 C 305.87 177.67 306.72 172.83 305.78 169.81 C 305.83 169.13 305.93 167.76 305.98 167.08 C 313.69 165.78 312.97 156.82 314.05 151.06 C 314.61 146.89 320.43 152.27 320.60 147.74 Z" />
</g>
<g id="#3f431c89">
</g>
<g id="#01010066">
</g>
<g id="#7f884dff">
<path fill="#7f884d" opacity="1.00" d=" M 289.85 149.33 C 290.94 149.62 292.03 149.91 293.13 150.19 C 288.88 156.65 288.35 165.97 280.96 169.96 C 276.39 169.28 275.17 164.54 277.90 160.98 C 282.46 158.64 287.29 156.18 287.00 150.10 C 288.89 151.36 290.85 152.73 289.85 149.33 Z" />
</g>
<g id="#364321fd">
<path fill="#364321" opacity="1.00" d=" M 305.43 155.86 C 308.49 157.71 308.19 150.33 310.85 148.78 C 311.18 155.18 305.78 160.38 305.98 167.08 C 305.93 167.76 305.83 169.13 305.78 169.81 C 304.83 171.49 303.83 173.15 302.84 174.81 C 301.61 178.30 298.79 180.18 295.69 177.28 L 296.05 176.53 C 299.20 169.65 302.28 162.74 305.43 155.86 Z" />
</g>
<g id="#6f713bff">
<path fill="#6f713b" opacity="1.00" d=" M 262.11 157.24 C 262.74 155.74 263.17 154.14 264.08 152.77 C 267.35 152.88 269.93 155.01 272.66 156.54 C 274.00 159.81 268.96 160.28 267.67 162.69 C 264.36 166.45 263.19 159.53 262.11 157.24 Z" />
</g>
<g id="#767c3aff">
<path fill="#767c3a" opacity="1.00" d=" M 200.43 164.91 C 198.26 161.95 196.51 157.93 199.94 155.06 C 201.46 155.66 203.17 158.76 204.57 156.55 C 207.17 152.67 216.08 159.73 211.72 162.46 C 208.67 161.51 205.54 167.19 204.05 162.69 C 203.51 158.86 201.05 163.34 200.43 164.91 Z" />
</g>
<g id="#2327139a">
<path fill="#232713" opacity="0.60" d=" M 231.86 159.19 C 236.86 160.60 242.13 159.90 247.22 160.75 C 242.14 160.83 237.07 160.96 231.99 161.05 C 231.96 160.58 231.90 159.66 231.86 159.19 Z" />
</g>
<g id="#9aa766ff">
<path fill="#9aa766" opacity="1.00" d=" M 185.36 161.85 C 188.43 160.03 186.94 165.06 187.22 166.75 C 190.36 167.27 195.85 164.13 197.33 167.73 C 197.74 172.19 195.64 172.88 195.70 168.11 C 188.53 166.46 189.85 175.01 191.23 179.51 C 193.27 179.40 194.86 180.55 196.30 181.88 C 196.30 185.61 195.92 189.48 193.74 192.62 C 192.22 192.66 188.99 191.52 189.10 193.95 C 191.60 199.12 200.46 200.67 201.11 207.03 C 195.11 202.90 190.89 210.09 184.76 209.65 C 183.12 211.24 179.88 213.61 181.45 209.58 C 179.73 202.74 187.00 206.07 190.12 203.49 C 187.49 202.77 183.86 202.13 185.97 198.83 C 188.74 194.31 182.06 192.17 182.03 188.08 C 182.39 186.68 182.53 185.23 182.68 183.79 C 184.78 187.21 187.72 190.19 191.84 190.91 C 195.09 189.35 191.85 176.60 189.68 184.89 C 186.98 183.47 184.47 181.49 184.70 178.12 C 183.09 178.86 181.52 179.70 179.81 180.18 C 181.15 176.86 180.29 168.24 185.22 172.91 C 183.89 168.91 182.15 165.59 185.36 161.85 Z" />
</g>
<g id="#687638ff">
<path fill="#687638" opacity="1.00" d=" M 226.93 161.06 C 227.64 161.09 229.04 161.14 229.74 161.16 C 233.45 165.74 240.58 163.53 245.62 164.41 C 247.76 166.35 250.33 166.67 253.06 165.87 C 253.72 170.67 260.72 173.02 256.31 177.97 C 253.34 175.35 251.88 166.54 247.10 170.68 C 244.24 167.13 236.96 163.15 238.93 171.03 C 236.55 173.08 237.05 169.86 236.69 168.17 C 233.30 168.45 229.93 168.27 226.55 168.40 C 225.45 172.33 220.61 174.89 221.67 168.76 C 219.90 172.23 216.76 175.67 217.10 179.75 C 220.78 183.27 226.11 179.11 226.62 174.75 C 224.60 179.89 230.16 182.56 234.07 182.27 C 233.13 188.53 228.19 186.11 224.91 182.96 C 221.40 184.03 223.21 188.29 223.03 191.13 C 225.31 190.51 227.36 189.02 229.84 189.63 C 226.87 191.23 225.75 194.41 223.78 196.91 C 221.03 197.32 214.43 193.84 215.57 199.05 C 212.47 199.21 204.95 202.03 205.97 196.01 C 206.97 195.39 207.97 194.78 208.96 194.15 C 211.85 191.74 215.91 192.61 219.29 191.74 C 214.68 190.03 207.85 188.69 207.70 182.54 C 202.61 184.18 205.84 176.92 204.89 173.95 C 201.63 174.18 202.70 179.09 201.33 181.39 C 198.48 181.64 203.48 172.28 199.64 173.58 C 196.84 174.70 198.41 170.53 197.93 169.00 C 203.36 166.88 200.57 168.53 198.84 172.03 C 200.78 171.39 203.94 171.59 204.23 168.97 C 208.27 172.99 205.17 168.34 207.19 166.12 C 211.04 169.15 213.24 164.02 217.63 165.17 C 216.48 168.43 219.24 165.93 220.81 165.31 C 221.80 166.88 224.25 171.02 225.20 167.19 C 225.22 164.58 230.92 162.61 226.93 161.06 M 223.29 192.10 C 218.47 196.70 228.66 193.09 223.29 192.10 M 211.20 194.24 C 211.06 199.52 217.02 192.22 211.20 194.24 Z" />
</g>
<g id="#495726fb">
<path fill="#495726" opacity="1.00" d=" M 229.74 161.16 C 230.30 161.14 231.43 161.08 231.99 161.05 C 237.07 160.96 242.14 160.83 247.22 160.75 C 248.92 161.24 250.47 162.10 252.02 162.94 C 252.36 163.92 252.70 164.89 253.06 165.87 C 250.33 166.67 247.76 166.35 245.62 164.41 C 240.58 163.53 233.45 165.74 229.74 161.16 Z" />
</g>
<g id="#00000039">
</g>
<g id="#9bab64ff">
<path fill="#9bab64" opacity="1.00" d=" M 238.93 171.03 C 236.96 163.15 244.24 167.13 247.10 170.68 C 251.88 166.54 253.34 175.35 256.31 177.97 C 256.01 178.51 255.42 179.57 255.12 180.10 C 254.59 180.43 253.52 181.08 252.98 181.41 C 250.90 176.71 248.55 180.65 245.02 178.29 C 243.64 179.72 242.79 181.55 241.91 183.30 C 237.73 181.15 239.49 175.08 238.93 171.03 Z" />
</g>
<g id="#4d4f28fc">
<path fill="#4d4f28" opacity="1.00" d=" M 131.88 167.74 C 140.66 166.23 151.35 168.34 159.09 174.14 C 158.61 170.50 153.44 166.26 159.96 169.06 C 161.48 170.16 163.04 171.20 164.46 172.42 C 163.23 176.69 168.43 178.60 165.80 182.95 C 161.25 184.64 158.99 181.08 155.92 178.97 C 148.95 179.80 144.90 186.02 142.57 191.95 C 140.74 186.23 137.07 191.46 135.40 194.30 C 135.99 198.76 141.64 200.28 141.88 204.97 C 140.24 206.80 138.73 204.61 137.12 203.95 C 136.03 205.75 135.38 207.79 135.03 209.86 C 141.50 210.11 148.84 212.12 148.33 219.99 C 152.44 218.41 156.92 218.26 160.90 216.28 C 162.04 217.19 164.46 219.79 161.72 220.24 C 154.48 221.99 162.06 231.06 165.62 233.20 C 166.08 237.47 169.95 239.30 173.82 238.82 C 172.59 243.28 178.95 241.01 178.11 245.15 C 179.29 248.96 185.34 250.00 185.10 255.14 C 176.43 253.53 173.13 243.97 165.27 241.42 C 162.13 240.68 160.98 246.87 158.95 243.04 C 156.34 239.99 154.88 245.94 157.61 247.35 C 163.80 253.14 166.12 266.52 176.70 263.87 C 177.30 257.33 187.55 258.22 186.47 264.40 C 185.39 268.09 189.47 263.87 190.92 263.19 C 193.25 263.34 195.02 262.09 196.42 260.36 C 200.82 259.98 205.83 263.04 205.18 267.98 C 203.39 268.05 201.59 268.15 199.80 268.22 C 198.82 267.77 197.88 267.28 196.96 266.74 C 194.45 264.90 192.44 264.92 190.93 266.80 C 187.04 266.83 183.15 266.80 179.27 266.70 C 170.20 264.83 159.06 264.20 155.18 253.85 C 154.72 251.96 154.27 250.08 153.87 248.18 C 159.15 235.66 143.25 235.39 140.09 225.95 C 138.91 224.05 138.11 221.96 137.28 219.91 C 137.18 218.63 137.06 217.36 136.91 216.10 C 132.81 210.10 127.64 204.45 127.05 196.79 C 125.89 190.69 129.70 185.91 132.69 181.11 C 130.15 178.71 127.26 176.70 125.00 174.03 C 124.55 172.74 124.12 171.44 123.75 170.13 L 123.82 169.14 C 126.67 170.77 131.24 172.50 131.88 167.74 Z" />
</g>
<g id="#8a9957ff">
<path fill="#8a9957" opacity="1.00" d=" M 191.23 179.51 C 189.85 175.01 188.53 166.46 195.70 168.11 C 195.64 172.88 197.74 172.19 197.33 167.73 C 197.48 168.05 197.78 168.68 197.93 169.00 C 198.41 170.53 196.84 174.70 199.64 173.58 C 203.48 172.28 198.48 181.64 201.33 181.39 C 202.70 179.09 201.63 174.18 204.89 173.95 C 205.84 176.92 202.61 184.18 207.70 182.54 C 207.85 188.69 214.68 190.03 219.29 191.74 C 215.91 192.61 211.85 191.74 208.96 194.15 C 207.80 191.56 206.26 189.51 203.20 190.69 C 205.39 184.78 201.02 182.18 196.30 181.88 C 194.86 180.55 193.27 179.40 191.23 179.51 Z" />
</g>
<g id="#829350ff">
<path fill="#829350" opacity="1.00" d=" M 226.55 168.40 C 229.93 168.27 233.30 168.45 236.69 168.17 C 237.05 169.86 236.55 173.08 238.93 171.03 C 239.49 175.08 237.73 181.15 241.91 183.30 C 241.45 185.61 237.89 189.06 237.39 185.07 C 238.91 182.47 234.87 177.68 234.07 182.27 C 230.16 182.56 224.60 179.89 226.62 174.75 C 226.11 179.11 220.78 183.27 217.10 179.75 C 216.76 175.67 219.90 172.23 221.67 168.76 C 220.61 174.89 225.45 172.33 226.55 168.40 Z" />
</g>
<g id="#0000002c">
</g>
<g id="#757737fb">
<path fill="#757737" opacity="1.00" d=" M 302.84 174.81 C 303.83 173.15 304.83 171.49 305.78 169.81 C 306.72 172.83 305.87 177.67 310.23 177.46 C 308.34 183.75 302.74 187.83 300.67 193.95 C 299.76 195.53 299.56 197.36 299.66 199.15 C 298.53 199.76 297.44 200.47 296.24 200.96 C 296.58 198.67 291.79 196.68 293.96 195.14 C 298.35 194.34 295.88 189.09 296.86 186.01 C 292.54 185.08 294.70 191.96 290.22 192.29 C 286.65 189.53 290.15 185.06 287.16 182.02 C 290.75 183.97 293.49 182.39 294.77 178.75 C 291.44 186.94 305.34 180.73 302.84 174.81 Z" />
</g>
<g id="#52582fff">
<path fill="#52582f" opacity="1.00" d=" M 260.20 174.90 C 264.79 176.70 270.27 176.35 274.08 179.80 C 275.39 177.97 276.99 176.62 279.36 177.55 C 281.37 178.71 284.36 173.84 283.44 177.91 C 286.92 179.72 294.96 183.41 289.83 177.09 C 291.78 177.11 293.73 177.14 295.69 177.28 C 298.79 180.18 301.61 178.30 302.84 174.81 C 305.34 180.73 291.44 186.94 294.77 178.75 C 293.49 182.39 290.75 183.97 287.16 182.02 C 290.15 185.06 286.65 189.53 290.22 192.29 C 280.88 187.00 287.54 196.71 282.69 195.95 C 282.72 193.50 280.07 190.44 277.83 192.77 C 276.70 195.76 269.76 195.60 275.67 197.27 C 271.50 203.62 277.75 197.21 280.59 201.25 C 280.96 206.90 280.13 213.13 284.11 217.66 C 283.30 217.82 281.69 218.13 280.89 218.29 C 273.31 220.44 284.80 229.52 278.19 229.21 C 273.47 225.67 273.06 219.45 272.56 214.48 C 270.02 210.59 260.46 205.39 262.82 215.25 C 262.37 217.36 260.65 212.79 260.37 211.71 L 260.09 210.83 C 256.40 203.15 250.57 214.03 255.03 218.10 C 251.95 216.82 249.50 213.35 250.86 209.99 C 250.39 206.55 256.69 208.34 255.73 205.14 C 255.14 203.33 252.58 200.36 255.42 199.33 C 257.77 203.08 263.96 198.11 262.48 194.67 C 262.37 190.25 266.96 193.50 267.97 195.99 C 269.54 192.69 267.98 189.24 267.08 185.97 C 269.42 186.25 271.74 186.71 274.09 186.96 C 272.79 183.70 271.32 180.42 269.01 177.74 C 265.46 179.23 265.61 182.98 267.08 185.97 C 259.50 187.36 259.08 180.21 260.20 174.90 Z" />
</g>
<g id="#848249ff">
<path fill="#848249" opacity="1.00" d=" M 179.81 180.18 C 181.52 179.70 183.09 178.86 184.70 178.12 C 184.47 181.49 186.98 183.47 189.68 184.89 C 191.85 176.60 195.09 189.35 191.84 190.91 C 187.72 190.19 184.78 187.21 182.68 183.79 C 183.19 181.61 181.78 180.62 179.81 180.18 Z" />
</g>
<g id="#7c883aff">
<path fill="#7c883a" opacity="1.00" d=" M 245.02 178.29 C 248.55 180.65 250.90 176.71 252.98 181.41 C 249.35 182.37 245.60 182.76 241.91 183.30 C 242.79 181.55 243.64 179.72 245.02 178.29 Z" />
</g>
<g id="#746b45ff">
<path fill="#746b45" opacity="1.00" d=" M 267.08 185.97 C 265.61 182.98 265.46 179.23 269.01 177.74 C 271.32 180.42 272.79 183.70 274.09 186.96 C 271.74 186.71 269.42 186.25 267.08 185.97 Z" />
</g>
<g id="#546223f9">
<path fill="#546223" opacity="0.98" d=" M 234.07 182.27 C 234.87 177.68 238.91 182.47 237.39 185.07 C 237.89 189.06 241.45 185.61 241.91 183.30 C 245.60 182.76 249.35 182.37 252.98 181.41 C 253.52 181.08 254.59 180.43 255.12 180.10 C 255.11 180.85 255.09 182.34 255.09 183.08 C 252.23 184.94 249.45 186.99 246.28 188.27 C 242.73 188.10 239.18 187.75 235.71 188.59 C 234.18 188.83 232.66 189.05 231.15 189.36 C 230.82 189.43 230.17 189.56 229.84 189.63 C 227.36 189.02 225.31 190.51 223.03 191.13 C 223.21 188.29 221.40 184.03 224.91 182.96 C 228.19 186.11 233.13 188.53 234.07 182.27 Z" />
</g>
<g id="#808745ff">
<path fill="#808745" opacity="1.00" d=" M 196.30 181.88 C 201.02 182.18 205.39 184.78 203.20 190.69 C 206.26 189.51 207.80 191.56 208.96 194.15 C 207.97 194.78 206.97 195.39 205.97 196.01 C 205.07 193.86 200.62 193.02 198.04 191.83 C 194.45 198.50 204.36 201.52 205.97 196.01 C 204.95 202.03 212.47 199.21 215.57 199.05 L 216.21 199.57 C 219.76 202.81 214.98 202.91 212.84 200.99 C 212.64 205.38 218.48 206.54 220.64 208.07 C 219.41 210.57 223.63 217.64 219.16 216.08 C 216.24 214.93 213.28 213.96 211.24 217.13 C 205.84 216.07 202.60 223.08 198.20 225.68 C 193.75 222.74 193.05 229.50 190.16 230.76 C 188.41 229.13 184.39 227.62 184.81 231.47 C 180.67 234.62 187.10 238.47 184.54 242.63 C 184.58 245.09 186.84 246.23 189.03 246.31 C 188.31 248.07 187.99 251.00 185.79 248.71 C 184.58 246.32 182.99 244.15 181.34 242.05 C 181.22 244.08 180.22 245.28 178.11 245.15 C 178.95 241.01 172.59 243.28 173.82 238.82 C 175.76 235.59 178.24 229.40 172.87 228.69 C 173.35 226.04 180.42 228.30 176.56 225.45 C 170.52 221.11 186.89 227.97 182.03 222.92 C 179.46 219.20 175.66 223.83 172.85 222.06 C 174.57 220.83 176.53 220.13 178.60 219.76 C 176.06 218.01 180.92 211.79 177.15 215.16 C 173.03 220.76 164.91 214.77 168.20 209.10 C 172.75 207.51 169.79 214.37 173.78 215.09 C 173.01 212.46 173.89 209.96 174.96 207.57 C 172.72 207.98 170.94 205.98 172.94 204.21 C 174.83 205.19 176.75 206.30 178.98 206.06 C 178.94 203.40 176.71 200.06 179.73 198.30 C 177.10 204.64 187.72 198.76 180.45 197.53 C 179.06 196.71 175.16 194.52 178.42 193.53 C 181.98 193.24 178.81 188.93 182.03 188.08 C 182.06 192.17 188.74 194.31 185.97 198.83 C 183.86 202.13 187.49 202.77 190.12 203.49 C 187.00 206.07 179.73 202.74 181.45 209.58 C 179.88 213.61 183.12 211.24 184.76 209.65 C 190.89 210.09 195.11 202.90 201.11 207.03 C 200.46 200.67 191.60 199.12 189.10 193.95 C 188.99 191.52 192.22 192.66 193.74 192.62 C 195.92 189.48 196.30 185.61 196.30 181.88 Z" />
</g>
<g id="#01010023">
</g>
<g id="#76814eff">
<path fill="#76814e" opacity="1.00" d=" M 173.26 184.19 C 176.10 183.00 178.81 185.45 179.87 187.85 C 177.84 190.09 170.85 193.02 170.95 188.00 C 170.63 186.25 172.14 185.21 173.26 184.19 Z" />
</g>
<g id="#555425ff">
<path fill="#555425" opacity="1.00" d=" M 290.22 192.29 C 294.70 191.96 292.54 185.08 296.86 186.01 C 295.88 189.09 298.35 194.34 293.96 195.14 C 291.79 196.68 296.58 198.67 296.24 200.96 C 293.40 201.61 290.72 200.63 288.62 198.72 C 289.01 196.54 289.63 194.42 290.22 192.29 Z" />
</g>
<g id="#191d0d87">
</g>
<g id="#3b4018fe">
<path fill="#3b4018" opacity="1.00" d=" M 229.84 189.63 C 230.17 189.56 230.82 189.43 231.15 189.36 C 231.21 189.94 231.33 191.11 231.38 191.70 C 230.69 196.94 232.97 203.47 228.01 207.05 C 227.22 212.34 225.97 217.75 224.76 223.09 C 219.96 219.02 228.06 213.38 222.57 209.75 C 225.65 205.19 220.54 200.54 216.21 199.57 L 215.57 199.05 C 214.43 193.84 221.03 197.32 223.78 196.91 C 225.75 194.41 226.87 191.23 229.84 189.63 Z" />
</g>
<g id="#93a864ff">
<path fill="#93a864" opacity="1.00" d=" M 198.04 191.83 C 200.62 193.02 205.07 193.86 205.97 196.01 C 204.36 201.52 194.45 198.50 198.04 191.83 Z" />
</g>
<g id="#baab95ff">
<path fill="#baab95" opacity="1.00" d=" M 223.29 192.10 C 228.66 193.09 218.47 196.70 223.29 192.10 Z" />
</g>
<g id="#1b1e0af8">
<path fill="#1b1e0a" opacity="0.97" d=" M 231.38 191.70 C 232.01 195.82 232.10 200.00 232.50 204.16 C 232.32 206.17 234.11 207.45 234.99 209.06 C 233.58 211.19 230.82 212.82 231.58 215.74 C 227.54 219.43 234.78 226.24 228.55 227.36 L 227.93 226.69 C 226.87 225.49 225.75 224.34 224.76 223.09 C 225.97 217.75 227.22 212.34 228.01 207.05 C 232.97 203.47 230.69 196.94 231.38 191.70 Z" />
</g>
<g id="#787841ff">
<path fill="#787841" opacity="1.00" d=" M 277.83 192.77 C 280.07 190.44 282.72 193.50 282.69 195.95 C 287.54 196.71 280.88 187.00 290.22 192.29 C 289.63 194.42 289.01 196.54 288.62 198.72 C 288.27 202.03 293.59 204.74 289.05 207.30 L 288.28 206.83 C 286.43 205.53 284.30 204.59 281.99 204.98 C 280.67 209.48 286.95 215.01 289.01 208.90 C 291.48 207.69 292.29 212.08 294.98 212.39 C 291.55 214.37 287.93 216.47 284.11 217.66 C 280.13 213.13 280.96 206.90 280.59 201.25 C 277.75 197.21 271.50 203.62 275.67 197.27 C 269.76 195.60 276.70 195.76 277.83 192.77 Z" />
</g>
<g id="#ac9367ff">
<path fill="#ac9367" opacity="1.00" d=" M 211.20 194.24 C 217.02 192.22 211.06 199.52 211.20 194.24 Z" />
</g>
<g id="#2b2d137b">
</g>
<g id="#0000004c">
</g>
<g id="#b0ae87ff">
<path fill="#b0ae87" opacity="1.00" d=" M 180.45 197.53 C 187.72 198.76 177.10 204.64 179.73 198.30 L 180.45 197.53 Z" />
</g>
<g id="#8c9653fd">
<path fill="#8c9653" opacity="1.00" d=" M 289.05 207.30 C 293.59 204.74 288.27 202.03 288.62 198.72 C 290.72 200.63 293.40 201.61 296.24 200.96 C 297.44 200.47 298.53 199.76 299.66 199.15 C 299.87 199.59 300.28 200.49 300.48 200.94 C 299.70 202.66 298.84 204.34 298.09 206.08 C 296.39 210.94 297.11 216.16 297.12 221.21 L 297.04 222.00 C 295.51 222.81 295.57 224.69 296.12 226.10 C 296.08 228.85 297.26 231.86 296.18 234.49 C 293.05 233.35 291.41 229.88 288.29 233.27 C 286.04 236.38 283.08 229.39 286.32 230.58 C 290.51 232.05 287.30 221.55 285.52 225.65 C 283.56 223.49 281.90 221.04 280.89 218.29 C 281.69 218.13 283.30 217.82 284.11 217.66 C 287.93 216.47 291.55 214.37 294.98 212.39 C 292.29 212.08 291.48 207.69 289.01 208.90 C 289.02 208.50 289.04 207.70 289.05 207.30 Z" />
</g>
<g id="#65682bff">
<path fill="#65682b" opacity="1.00" d=" M 216.21 199.57 C 220.54 200.54 225.65 205.19 222.57 209.75 C 228.06 213.38 219.96 219.02 224.76 223.09 C 225.75 224.34 226.87 225.49 227.93 226.69 C 221.69 236.75 224.12 213.81 217.91 221.38 C 217.49 221.86 216.65 222.81 216.23 223.29 C 215.52 220.32 216.99 217.93 219.16 216.08 C 223.63 217.64 219.41 210.57 220.64 208.07 C 218.48 206.54 212.64 205.38 212.84 200.99 C 214.98 202.91 219.76 202.81 216.21 199.57 Z" />
</g>
<g id="#0f130b8d">
</g>
<g id="#a99678ff">
<path fill="#a99678" opacity="1.00" d=" M 281.99 204.98 C 284.30 204.59 286.43 205.53 288.28 206.83 C 283.70 205.87 285.61 210.27 289.01 208.90 C 286.95 215.01 280.67 209.48 281.99 204.98 Z" />
</g>
<g id="#676734d4">
<path fill="#676734" opacity="0.83" d=" M 297.12 221.21 C 297.11 216.16 296.39 210.94 298.09 206.08 C 297.92 211.13 298.01 216.20 297.12 221.21 Z" />
</g>
<g id="#ebe3d5ff">
<path fill="#ebe3d5" opacity="1.00" d=" M 289.01 208.90 C 285.61 210.27 283.70 205.87 288.28 206.83 L 289.05 207.30 C 289.04 207.70 289.02 208.50 289.01 208.90 Z" />
</g>
<g id="#687041ff">
<path fill="#687041" opacity="1.00" d=" M 255.03 218.10 C 250.57 214.03 256.40 203.15 260.09 210.83 C 256.36 208.67 257.58 213.87 258.18 215.85 C 260.94 217.02 259.86 213.26 260.37 211.71 C 260.65 212.79 262.37 217.36 262.82 215.25 C 260.46 205.39 270.02 210.59 272.56 214.48 C 271.01 217.33 268.98 216.64 266.86 214.90 C 269.58 220.93 267.95 229.43 262.12 233.10 C 262.11 230.03 260.54 229.68 258.07 231.21 C 256.39 227.00 256.90 222.25 255.03 218.10 Z" />
</g>
<g id="#9c9873ff">
<path fill="#9c9873" opacity="1.00" d=" M 258.18 215.85 C 257.58 213.87 256.36 208.67 260.09 210.83 L 260.37 211.71 C 259.86 213.26 260.94 217.02 258.18 215.85 Z" />
</g>
<g id="#4a4c20ff">
<path fill="#4a4c20" opacity="1.00" d=" M 211.24 217.13 C 213.28 213.96 216.24 214.93 219.16 216.08 C 216.99 217.93 215.52 220.32 216.23 223.29 C 209.14 224.99 206.27 232.16 206.79 239.13 C 205.30 238.55 203.94 237.70 202.59 236.87 C 199.53 229.81 205.17 223.08 211.82 221.55 C 211.79 220.06 211.47 218.59 211.24 217.13 Z" />
</g>
<g id="#485a2eff">
<path fill="#485a2e" opacity="1.00" d=" M 231.58 215.74 C 236.26 213.65 245.63 212.77 244.30 220.73 C 249.63 218.50 243.22 226.42 248.95 225.31 C 247.73 229.72 242.07 227.91 238.72 229.74 C 235.95 225.07 231.61 230.81 228.55 227.36 C 234.78 226.24 227.54 219.43 231.58 215.74 Z" />
</g>
<g id="#869759ff">
<path fill="#869759" opacity="1.00" d=" M 266.86 214.90 C 268.98 216.64 271.01 217.33 272.56 214.48 C 273.06 219.45 273.47 225.67 278.19 229.21 C 279.25 234.67 273.29 232.37 269.83 233.48 C 267.46 234.34 265.91 236.42 264.07 238.02 C 263.24 236.46 262.59 234.80 262.12 233.10 C 267.95 229.43 269.58 220.93 266.86 214.90 Z" />
</g>
<g id="#00000061">
</g>
<g id="#5e6f3cff">
<path fill="#5e6f3c" opacity="1.00" d=" M 198.20 225.68 C 202.60 223.08 205.84 216.07 211.24 217.13 C 211.47 218.59 211.79 220.06 211.82 221.55 C 205.17 223.08 199.53 229.81 202.59 236.87 C 199.65 237.42 199.98 239.93 200.44 242.29 C 200.72 244.55 193.65 246.22 197.77 247.22 C 201.30 247.72 198.50 251.80 198.86 254.11 C 197.41 254.97 196.54 254.84 196.95 252.90 C 197.33 250.46 196.75 248.34 194.02 248.04 C 191.19 249.69 197.47 254.14 193.38 252.62 C 186.21 250.23 198.76 243.17 194.49 238.47 C 191.68 235.84 194.98 233.80 196.53 231.60 C 196.55 229.48 196.73 227.36 198.20 225.68 Z" />
</g>
<g id="#727335fc">
<path fill="#727335" opacity="1.00" d=" M 278.19 229.21 C 284.80 229.52 273.31 220.44 280.89 218.29 C 281.90 221.04 283.56 223.49 285.52 225.65 C 287.30 221.55 290.51 232.05 286.32 230.58 C 283.08 229.39 286.04 236.38 288.29 233.27 C 291.41 229.88 293.05 233.35 296.18 234.49 C 294.70 237.78 292.49 240.68 291.06 244.00 C 287.58 246.06 284.12 248.31 280.21 249.47 C 277.21 247.84 274.45 245.80 272.23 243.20 C 269.70 240.20 274.08 235.52 269.83 233.48 C 273.29 232.37 279.25 234.67 278.19 229.21 M 274.97 235.95 C 274.93 237.34 274.85 240.03 276.85 239.86 C 279.23 238.51 277.38 235.34 274.97 235.95 Z" />
</g>
<g id="#81884aff">
<path fill="#81884a" opacity="1.00" d=" M 217.91 221.38 C 224.12 213.81 221.69 236.75 227.93 226.69 L 228.55 227.36 C 231.61 230.81 235.95 225.07 238.72 229.74 C 241.62 231.04 245.95 232.18 242.89 235.96 C 239.11 236.65 235.60 238.24 232.06 239.66 C 229.00 235.99 229.15 245.62 225.07 241.96 C 225.24 240.52 227.59 236.47 224.68 237.59 C 220.42 239.00 225.80 231.06 222.05 229.94 C 220.10 228.08 219.06 230.56 217.99 231.99 C 216.91 232.27 215.82 232.52 214.73 232.75 C 218.08 230.75 216.57 226.49 212.79 228.80 C 215.91 226.51 220.92 226.51 217.91 221.38 Z" />
</g>
<g id="#01010078">
</g>
<g id="#9a9760ff">
<path fill="#9a9760" opacity="1.00" d=" M 167.00 227.94 C 166.35 224.14 168.66 217.02 172.85 222.06 C 175.66 223.83 179.46 219.20 182.03 222.92 C 186.89 227.97 170.52 221.11 176.56 225.45 C 180.42 228.30 173.35 226.04 172.87 228.69 C 170.97 230.83 168.71 229.55 167.00 227.94 Z" />
</g>
<g id="#00000028">
</g>
<g id="#727937fe">
<path fill="#727937" opacity="1.00" d=" M 216.23 223.29 C 216.65 222.81 217.49 221.86 217.91 221.38 C 220.92 226.51 215.91 226.51 212.79 228.80 C 211.82 231.06 211.22 234.32 214.73 232.75 C 215.82 232.52 216.91 232.27 217.99 231.99 C 216.75 234.80 215.38 237.55 214.23 240.40 C 216.32 239.29 217.65 237.26 219.57 235.94 C 221.36 239.99 223.32 245.35 217.74 247.24 C 218.12 245.21 218.56 243.20 218.99 241.18 C 216.95 242.76 214.58 242.86 212.15 242.28 C 209.10 244.42 215.35 248.29 217.74 247.24 C 219.20 251.27 224.23 244.51 225.07 241.96 C 229.15 245.62 229.00 235.99 232.06 239.66 C 235.60 238.24 239.11 236.65 242.89 235.96 C 242.29 239.48 246.18 240.06 248.19 241.97 C 248.01 248.96 239.19 244.37 240.62 238.95 C 236.22 240.32 233.49 244.02 236.84 248.06 C 234.50 247.37 232.19 246.55 229.81 246.02 C 232.34 250.53 249.43 255.46 234.78 255.28 C 234.13 255.17 232.85 254.96 232.21 254.86 C 233.37 248.94 227.43 251.17 224.84 253.73 C 222.83 255.04 220.91 256.49 219.18 258.15 C 222.29 252.08 214.47 255.08 210.88 254.80 C 206.16 255.04 207.78 260.39 205.16 263.08 C 208.71 264.68 212.53 260.17 216.26 263.26 C 214.10 265.61 211.16 267.04 208.28 268.30 C 207.50 268.22 205.96 268.06 205.18 267.98 C 205.83 263.04 200.82 259.98 196.42 260.36 C 195.02 262.09 193.25 263.34 190.92 263.19 C 188.74 259.97 192.34 258.27 194.28 256.29 C 195.27 255.24 196.11 254.06 196.95 252.90 C 196.54 254.84 197.41 254.97 198.86 254.11 C 198.57 257.73 202.11 254.68 203.55 253.70 C 203.36 250.90 203.32 248.06 204.27 245.39 C 206.21 245.01 208.88 245.09 207.89 242.36 C 204.32 242.69 203.10 239.92 202.59 236.87 C 203.94 237.70 205.30 238.55 206.79 239.13 C 206.27 232.16 209.14 224.99 216.23 223.29 Z" />
</g>
<g id="#515623ab">
<path fill="#515623" opacity="0.67" d=" M 296.12 226.10 C 295.57 224.69 295.51 222.81 297.04 222.00 C 297.40 223.42 297.39 225.11 296.12 226.10 Z" />
</g>
<g id="#869058ff">
<path fill="#869058" opacity="1.00" d=" M 190.16 230.76 C 193.05 229.50 193.75 222.74 198.20 225.68 C 196.73 227.36 196.55 229.48 196.53 231.60 C 194.98 233.80 191.68 235.84 194.49 238.47 C 198.76 243.17 186.21 250.23 193.38 252.62 C 197.47 254.14 191.19 249.69 194.02 248.04 C 196.75 248.34 197.33 250.46 196.95 252.90 C 196.11 254.06 195.27 255.24 194.28 256.29 C 192.65 251.44 182.80 254.55 185.79 248.71 C 187.99 251.00 188.31 248.07 189.03 246.31 C 189.91 245.12 193.54 243.25 190.31 242.75 C 187.83 239.65 187.00 235.03 184.81 231.47 C 184.39 227.62 188.41 229.13 190.16 230.76 Z" />
</g>
<g id="#836b26ff">
<path fill="#836b26" opacity="1.00" d=" M 167.00 227.94 C 168.71 229.55 170.97 230.83 172.87 228.69 C 178.24 229.40 175.76 235.59 173.82 238.82 C 169.95 239.30 166.08 237.47 165.62 233.20 C 166.06 231.44 166.57 229.70 167.00 227.94 Z" />
</g>
<g id="#b8a887ff">
<path fill="#b8a887" opacity="1.00" d=" M 212.79 228.80 C 216.57 226.49 218.08 230.75 214.73 232.75 C 211.22 234.32 211.82 231.06 212.79 228.80 Z" />
</g>
<g id="#0000001c">
</g>
<g id="#94a260ff">
<path fill="#94a260" opacity="1.00" d=" M 217.99 231.99 C 219.06 230.56 220.10 228.08 222.05 229.94 C 225.80 231.06 220.42 239.00 224.68 237.59 C 227.59 236.47 225.24 240.52 225.07 241.96 C 224.23 244.51 219.20 251.27 217.74 247.24 C 223.32 245.35 221.36 239.99 219.57 235.94 C 217.65 237.26 216.32 239.29 214.23 240.40 C 215.38 237.55 216.75 234.80 217.99 231.99 Z" />
</g>
<g id="#505d2eff">
<path fill="#505d2e" opacity="1.00" d=" M 238.72 229.74 C 242.62 232.12 249.57 227.92 251.19 232.73 C 249.14 232.55 246.98 232.02 245.11 233.19 C 244.78 235.18 245.05 239.83 248.05 238.17 C 252.70 238.21 254.54 233.43 258.07 231.21 C 260.54 229.68 262.11 230.03 262.12 233.10 C 262.59 234.80 263.24 236.46 264.07 238.02 C 265.91 236.42 267.46 234.34 269.83 233.48 C 274.08 235.52 269.70 240.20 272.23 243.20 C 268.51 244.98 263.17 243.11 262.48 248.75 C 257.25 246.74 250.69 248.00 248.19 241.97 C 246.18 240.06 242.29 239.48 242.89 235.96 C 245.95 232.18 241.62 231.04 238.72 229.74 Z" />
</g>
<g id="#676236ff">
<path fill="#676236" opacity="1.00" d=" M 184.54 242.63 C 187.10 238.47 180.67 234.62 184.81 231.47 C 187.00 235.03 187.83 239.65 190.31 242.75 C 193.54 243.25 189.91 245.12 189.03 246.31 C 186.84 246.23 184.58 245.09 184.54 242.63 Z" />
</g>
<g id="#c2b193ff">
<path fill="#c2b193" opacity="1.00" d=" M 274.97 235.95 C 277.38 235.34 279.23 238.51 276.85 239.86 C 274.85 240.03 274.93 237.34 274.97 235.95 Z" />
</g>
<g id="#889653ff">
<path fill="#889653" opacity="1.00" d=" M 200.44 242.29 C 199.98 239.93 199.65 237.42 202.59 236.87 C 203.10 239.92 204.32 242.69 207.89 242.36 C 208.88 245.09 206.21 245.01 204.27 245.39 C 203.32 248.06 203.36 250.90 203.55 253.70 C 202.11 254.68 198.57 257.73 198.86 254.11 C 198.50 251.80 201.30 247.72 197.77 247.22 C 193.65 246.22 200.72 244.55 200.44 242.29 Z" />
</g>
<g id="#5e6f2cfb">
<path fill="#5e6f2c" opacity="1.00" d=" M 236.84 248.06 C 233.49 244.02 236.22 240.32 240.62 238.95 C 239.19 244.37 248.01 248.96 248.19 241.97 C 250.69 248.00 257.25 246.74 262.48 248.75 C 263.17 243.11 268.51 244.98 272.23 243.20 C 274.45 245.80 277.21 247.84 280.21 249.47 C 275.55 250.93 270.62 251.23 266.01 252.87 C 255.80 255.34 245.34 257.60 234.78 255.28 C 249.43 255.46 232.34 250.53 229.81 246.02 C 232.19 246.55 234.50 247.37 236.84 248.06 Z" />
</g>
<g id="#6a6534ff">
<path fill="#6a6534" opacity="1.00" d=" M 165.27 241.42 C 173.13 243.97 176.43 253.53 185.10 255.14 C 185.34 250.00 179.29 248.96 178.11 245.15 C 180.22 245.28 181.22 244.08 181.34 242.05 C 182.99 244.15 184.58 246.32 185.79 248.71 C 182.80 254.55 192.65 251.44 194.28 256.29 C 192.34 258.27 188.74 259.97 190.92 263.19 C 189.47 263.87 185.39 268.09 186.47 264.40 C 187.55 258.22 177.30 257.33 176.70 263.87 C 166.12 266.52 163.80 253.14 157.61 247.35 C 154.88 245.94 156.34 239.99 158.95 243.04 C 160.98 246.87 162.13 240.68 165.27 241.42 Z" />
</g>
<g id="#8d965dff">
<path fill="#8d965d" opacity="1.00" d=" M 212.15 242.28 C 214.58 242.86 216.95 242.76 218.99 241.18 C 218.56 243.20 218.12 245.21 217.74 247.24 C 215.35 248.29 209.10 244.42 212.15 242.28 Z" />
</g>
<g id="#00000014">
</g>
<g id="#45531ee6">
<path fill="#45531e" opacity="0.90" d=" M 224.84 253.73 C 227.43 251.17 233.37 248.94 232.21 254.86 C 229.75 254.45 227.29 254.07 224.84 253.73 Z" />
</g>
<g id="#99855afe">
<path fill="#99855a" opacity="1.00" d=" M 210.88 254.80 C 214.47 255.08 222.29 252.08 219.18 258.15 C 218.45 259.97 217.76 261.91 216.26 263.26 C 212.53 260.17 208.71 264.68 205.16 263.08 C 207.78 260.39 206.16 255.04 210.88 254.80 Z" />
</g>
<g id="#212412a4">
<path fill="#212412" opacity="0.64" d=" M 190.93 266.80 C 192.44 264.92 194.45 264.90 196.96 266.74 C 195.02 267.47 192.87 267.59 190.93 266.80 Z" />
</g>
<g id="#1f190e8e">
</g>
</svg>



