<svg xmlns="http://www.w3.org/2000/svg" width="512" height="512" viewBox="0 0 384 384" xmlns:v="https://vecta.io/nano"><path fill="#595f34" d="M165.84 23.69c3.13-5.11 10.23.91 12.1-6.13 1.52 1.03 3.56 1.02 5.09.02 1.95 3.77 4.04 3.67 5.98-.06l.62.6c1.96 1.68 7.15 6.25 2.33 7.37-3.21-2.64-7.18 1.82-7.52 5.11-.76 3.15-4.2-.16-6.13-.51-1.44 3.68-5.35 4.96-7.65 7.95-4.4-1.04-7.38 1.98-10.75 3.93-3.46-2.5-9.25-1.7-10.73 2.65 1.19.95 3.76 1.04 3.39 3.06.48 7.56 11.15-7.47 8.59 1.43 2.81.07 5.12-1.76 7.81-2.27-.27 3.56-3.86 8.31-2.25 11.07l1.98.98 1.37 1.17c.11 4.64-9.75-5.08-9 .89.31 2.88 4.48 8.28-.7 8.56-4.54 1.91-9.38-5.18-13.29-1.26.74 5.29 3.49 10.27 2.94 15.81-3.23.16-5.99-1.8-9.13-2.17 1.88 5.6 8.85 8.76 13.85 4.65 6.83.9 5.02 7.52 9.42 11.29 1.83 1.85-.86 2.34-2.19 3.09-2.56 1.98-5.07 4.66-8.63 3.69-.48 1.78-1.11 3.5-2.61 4.67-2.3-.24-.93-2.58-1.06-4.06-3.19-1.63-7.82-1.93-9.09 2.23.59 4.99-4.8 5.23-6.84 8.48 3.31 2.2 6.87 4.64 6.6 9.16 3.38-3.28-.26-10.45 7-8.74 3.3.78 6.03-5.3 8.52-2.11 1.44 6.27-9.39 2.44-9.61 8.43 4.04 2.35 6.1 11.39 11.89 6.68 2.79-2.63 6.91-1.36 9.7-2.13.78-1.21 1.49-2.46 2.31-3.64 3.88 5.52-6.61 6.2-2.41 10.54.31 3.39-7.82-.68-5.5 4.51 3.4 2.13 3.91 5.66 3.99 9.47 1.94-1.6 3.66-6.95 6.54-4.13-.75 1.81-3.66 5.91.05 5.75 3.1 1.03-1 3.24-2.54 3.67-4.82 2.95-10.27 1.18-15.23-.09-3.28 2.71 4.74 3.64 2.16 6.85-2.24.46-5.34 5.55-1.47 4.69 3.85-3.8 8.83-7.35 14.28-8.69 7.16 1.33.33 12.59 7.12 14.66 4.95 1.69 4.61 9.39.56 11.87-2.5 5.01 3.07-.49 5.27 1.19 1.84 1.6 2.21 3.97 2.81 6.26a7.18 7.18 0 0 1-1.18 2.81c-.54 4.3-7.8 5.94-.53 7.15-4.94 1.83.5 8.15-2.87 9.13-5.54-4.12-15.46 7.16-7.32 10.06-7.19 5.03-5.47 15.99.71 21.17-5.81-.85-8.24-7.32-12.31-10.88-3.96-5.67 3.58-5.56 3.67-9.44-4.37-1.82-8.81 1.42-12.94 2.42-2.32-1.75-1.67-5.14-3.23-7.38-3.83-1.53-8.16-1.42-11.86-3.29.59-2.48 1.74-4.89 3.51-6.75 1.01 1.28 1.73 3.14 3.69 2.96-.05-3.76-4.69-4.36-5.55-7.73-1.27-2.33.95-4.63 1.25-6.96-1.27-1.04-4.2-1-3.7-3.21 2.41-3.24 6.57-.14 8.82 1.74 4.47-4.27 10.85-11.27 16.78-5.65 7.01 3.79 7.09-2.58 3.51-5.49 2.45-5.8-9.1-12.02-10.45-5.83-7.58-3.6-16.78-2.09-23.38-8.24 1.95 4.82-.83 10.48-5.44 6.3.04-1.3.13-2.59.27-3.87l.99-5.84c2.39-6.24 2-14.64 1.11-21.46-1.39-2.99-3.14-5.81-4.53-8.8 1.3-2.83 1.06-5.21-.72-7.12-.94-5.45 2-10.1 4.11-14.82 5.99-5.39 2.19-13.88 5.51-20.41 1.63-5 2.29-10.86.56-15.92-.47-1.2-1.02-2.35-1.49-3.54l.09-8.34c2.06-1.68 4.46-2.93 6.32-4.86 3.45-3.69 5.66-8.58 5.26-13.74 4.8-7.4 16.07-4.26 20.8-12.11.98-2.69.49-5.69.6-8.5m10.47 164.6c-5.62 2.07-.27 9.55 4.4 5.37 3.76-2.05-1.23-7.49-4.4-5.37z"/><path fill="#777d3c" d="M189.63 18.12a6.32 6.32 0 0 0 4.24-.35c1.38 8.68 9.94 2.15 15.29 4.05l-6.88 1.22c1.51 2.86 1.21 5.97.76 9.05 3.73-1.42 10.45-.81 10.33-6.2 2.15 3.16-1.39 6.13-3.41 8.24-1.48-.31-3.2.19-3.3 1.96-2.42-.11-7.13-2.59-5.6 1.81 1.07 4.55 5.5 2.93 5.97-1.07l.63.15 2.26 2.5 5.06-.17c3.73-2.17 10.22-2.76 13.34.57a7.55 7.55 0 0 0-.27 4.05c-4.11 4.25-10.2 4.9-15.3 7.4.51-5.01 8.73-4.55 7.3-10.08-6.24.83-12.76-1.55-17.87 3.58-1.69-4.89-6.93-8.53-6.68-13.89-3.01 2.1-5.3 2.65-4.77-1.98-7.42-.16-.13 6.16 2.85 7.56 5.76 1.77.26 8.41 4.97 10.87-1.15 10.42 11.56-5.83 14.2 3.94-3.03 1.91-6.37 3.29-9.71 4.56-10.72-2.31-11.6 10.03-17.84 15.3-3.63 2.91-3.16 7.54-3.19 11.72-.42 1.46-.36 3.13.82 4.23l.37.72c-.47 1.38-.89 3.3.55 4.27a39.9 39.9 0 0 0 3.46 3.03c-.06 2.61-4.09.92-4.19 3.04-1.01 4.54 5.56 4.53 6.48 8.42.78 3 2.47-.74 3.45-1.75.08 2.19.25 4.55-1.74 5.96-4.01 1.52-7.57 3.87-10.31 7.19-2.78-1.6-4.79-4.12-6.19-6.96-2.87 1.34-.38 5.44-.82 7.87-3.31 1.36.18-4-2.77-3.57-5 2.89-7.54-7.78-11.64-1.16-2.97-1.55-5.63-3.65-8.75-4.92 1.5-1.17 2.13-2.89 2.61-4.67 3.56.97 6.07-1.71 8.63-3.69 3.3 1.96 6.82 4.33 10.36 1.38 3.79-.85-1.09-2.19-2.41-2.91 3.76-1.41 8.13-2.57 10.1-6.49-.42-3.81-3.65-6.44-5.05-9.88 7.76 2.66 3.23-10.36 6.58-14.34 2.46-2.9-.14-12.09 5.5-9.86-1.77-4.75-5.89-2.1-6.26 1.79-4.45-1.38.24-10.72-4.79-12.62-4.88 1.81-.42 7.54-.05 11.1-2.99.77-5.13-3.83-7.25-.2l-1.98-.98c5.47-4.86 5.22-13.37 13.93-14.36-2.19-1.56-.49-4.39-.66-6.55-3.02 1.72-6.06.52-9.33 1.04 2.3-2.99 6.21-4.27 7.65-7.95 1.93.35 5.37 3.66 6.13.51.34-3.29 4.31-7.75 7.52-5.11 4.82-1.12-.37-5.69-2.33-7.37m2.59 22.01c-.34 1.84-2.44 5.4.64 5.78 1.5-1.27 2.4-6.93-.64-5.78m-1.96 12.04c-1.49.99-3.47 3.34-1.11 4.6 2.19-1.5 7.55-5.11 1.11-4.6z"/><path fill="#8f9b4a" d="M202.28 23.04l6.88-1.22c1.58 1.15 2.97 2.56 4.21 4.07.12 5.39-6.6 4.78-10.33 6.2.45-3.08.75-6.19-.76-9.05z"/><path fill="#33331c" opacity=".69" d="M164.95 23.94l.89-.25c-.11 2.81.38 5.81-.6 8.5l-.29-8.25z"/><path fill="#92a464" d="M193.58 36.52c-2.98-1.4-10.27-7.72-2.85-7.56-.53 4.63 1.76 4.08 4.77 1.98-.25 5.36 4.99 9 6.68 13.89 5.11-5.13 11.63-2.75 17.87-3.58 1.43 5.53-6.79 5.07-7.3 10.08-2.64-9.77-15.35 6.48-14.2-3.94-4.71-2.46.79-9.1-4.97-10.87z"/><path fill="#aa966e" d="M201.06 37.9c-1.53-4.4 3.18-1.92 5.6-1.81l.37.74c-.47 4-4.9 5.62-5.97 1.07z"/><path fill="#657239" d="M170.66 38.04c3.27-.52 6.31.68 9.33-1.04.17 2.16-1.53 4.99.66 6.55-8.71.99-8.46 9.5-13.93 14.36-1.61-2.76 1.98-7.51 2.25-11.07-2.69.51-5 2.34-7.81 2.27 2.56-8.9-8.11 6.13-8.59-1.43.37-2.02-2.2-2.11-3.39-3.06 1.48-4.35 7.27-5.15 10.73-2.65 3.37-1.95 6.35-4.97 10.75-3.93z"/><path fill="#2f3917" opacity=".62" d="M209.92 39.48c1.42-1.25 3.52-1.16 5.06-.17l-5.06.17z"/><path fill="#afa07a" d="M192.22 40.13c3.04-1.15 2.14 4.51.64 5.78-3.08-.38-.98-3.94-.64-5.78z"/><path fill="#8a9c54" d="M175.95 59.09c-.37-3.56-4.83-9.29.05-11.1 5.03 1.9.34 11.24 4.79 12.62.37-3.89 4.49-6.54 6.26-1.79-5.64-2.23-3.04 6.96-5.5 9.86-3.35 3.98 1.18 17-6.58 14.34-.9-5 4.2-9.84 3.77-15.26-2.19.72-2.61 3.3-3.72 5.05-3.25.4-4.58 3.73-7.13 5.34 2.44-5.71 6.55-11.96 2.18-18.09l-1.37-1.17c2.12-3.63 4.26.97 7.25.2z"/><path fill="#b19c78" d="M190.26 52.17c6.44-.51 1.08 3.1-1.11 4.6-2.36-1.26-.38-3.61 1.11-4.6z"/><path fill="#6d8141" d="M161.07 60.95c-.75-5.97 9.11 3.75 9-.89 4.37 6.13.26 12.38-2.18 18.09 2.55-1.61 3.88-4.94 7.13-5.34.16 4.55-6.99 6.47-2.28 11.12-3.62.93-7.72 6.14-11.02 2.36-1.92-2.39-4.79-.79-6.98.25-5 4.11-11.97.95-13.85-4.65 3.14.37 5.9 2.33 9.13 2.17.55-5.54-2.2-10.52-2.94-15.81 3.91-3.92 8.75 3.17 13.29 1.26 5.18-.28 1.01-5.68.7-8.56z"/><path fill="#2f2d1a" opacity=".64" d="M132.77 71.24c-.87-2.44-2.11-6.41.09-8.34l-.09 8.34z"/><path fill="#62702f" d="M175.02 72.81c1.11-1.75 1.53-4.33 3.72-5.05.43 5.42-4.67 10.26-3.77 15.26 1.4 3.44 4.63 6.07 5.05 9.88-1.97 3.92-6.34 5.08-10.1 6.49 1.32.72 6.2 2.06 2.41 2.91-3.54 2.95-7.06.58-10.36-1.38 1.33-.75 4.02-1.24 2.19-3.09-4.4-3.77-2.59-10.39-9.42-11.29 2.19-1.04 5.06-2.64 6.98-.25 3.3 3.78 7.4-1.43 11.02-2.36-4.71-4.65 2.44-6.57 2.28-11.12z"/><path fill="#696132" d="M187.21 95.16l2.91 1.84 6.03.64c2.27.97 4.53 2.14 6.01 4.19-3.32-.71-8.01-.99-9.21 3.04-.98 1.01-2.67 4.75-3.45 1.75-.92-3.89-7.49-3.88-6.48-8.42.1-2.12 4.13-.43 4.19-3.04z"/><path fill="#342e16" opacity=".67" d="M190.12 97l6.03.64-6.03-.64z"/><path fill="#808344" d="M192.95 104.87c1.2-4.03 5.89-3.75 9.21-3.04 1.41 1.73 2.68 3.66 3.24 5.85l-.26 8.55c-.8 3.04.76 5.61 2.82 7.7 1.41 2.79 4.33 3.52 7.18 3.99 8.32 9.31 20.44 18.56 19.67 32.35-7.38 2.58-12.41-4.83-15.99-10.02 12.77 1.06-.05-3.47-2.33-2.29-.25 2.7-.38 5.4-.61 8.12-8.3-4.43-9.64-14.79-17.77-18.91 1.64-1.3 2.82-3.96 3.81-6-2.84-1.47-7.34 1.62-5.18 5.09l-1.58-.35c-1.55-2.56-.92-7.91-5.19-6.98 4.89-1.39 4.3-5.25.7-7.85 8.87-3.04 7.35 7.82 14.41 9.01-2.17-4.94-.91-10.07-1.98-15.12 3.23-7.44-8.54-4.49-2.1.35-.39 9.31-7.75-.65-9.79-4.49 1.99-1.41 1.82-3.77 1.74-5.96m17.25 33.28c-.5 1.41-1.76 2.99-.91 4.5 3.46 2.33 1.81 8.89 6.44 3.98-.64-3.08-3.8-7.36-5.53-8.48z"/><path fill="#6a703f" d="M140.58 107.45c1.27-4.16 5.9-3.86 9.09-2.23.13 1.48-1.24 3.82 1.06 4.06 3.12 1.27 5.78 3.37 8.75 4.92 1.2 3.81 5.32 6.19 5.08 10.48-.25 1.82 2.14 1.82 3.28 2.54-2.79.77-6.91-.5-9.7 2.13l1.26-3.17c2.16-2.54 2.57-8.46-2.29-7.15-5.36.29-4.74 7.48-2.23 9.85l3.26.47c-5.79 4.71-7.85-4.33-11.89-6.68.22-5.99 11.05-2.16 9.61-8.43-2.49-3.19-5.22 2.89-8.52 2.11-7.26-1.71-3.62 5.46-7 8.74.27-4.52-3.29-6.96-6.6-9.16 2.04-3.25 7.43-3.49 6.84-8.48z"/><path fill="#4b3c1e" opacity=".66" d="M205.4 107.68c1.1 2.78.12 5.71-.26 8.55l.26-8.55z"/><path fill="#bdab8f" d="M201 115.32c-6.44-4.84 5.33-7.79 2.1-.35l-2.1.35z"/><path fill="#8c9b5d" d="M173.89 118.93c.44-2.43-2.05-6.53.82-7.87 1.4 2.84 3.41 5.36 6.19 6.96 2.74-3.32 6.3-5.67 10.31-7.19 2.04 3.84 9.4 13.8 9.79 4.49l2.1-.35c1.07 5.05-.19 10.18 1.98 15.12-7.06-1.19-5.54-12.05-14.41-9.01 3.6 2.6 4.19 6.46-.7 7.85-6.72 3.55-9.17-4.13-10.97-9.02-1.79-2.64-4.01.58-4.54 2.63-.47 2.34-3.37-.46-4.31 1.04-.82 1.18-1.53 2.43-2.31 3.64-1.14-.72-3.53-.72-3.28-2.54.24-4.29-3.88-6.67-5.08-10.48 4.1-6.62 6.64 4.05 11.64 1.16 2.95-.43-.54 4.93 2.77 3.57z"/><path fill="#94865a" d="M154.88 128.88c-2.51-2.37-3.13-9.56 2.23-9.85 4.86-1.31 4.45 4.61 2.29 7.15-2.75-2.15-4.6-.49-4.52 2.7z"/><path fill="#717940" d="M174.46 122.54c.53-2.05 2.75-5.27 4.54-2.63 1.8 4.89 4.25 12.57 10.97 9.02 4.27-.93 3.64 4.42 5.19 6.98-3.38 2.18-4.43-1.81-6.49-3.67-2.91-.67-5.85-1.2-8.84-1.26 8.57 2.6 2.19 13.21 9.43 17.83 6.15 1.68-1.68-5.67 1.41-8.16 2.52-2.34 6.78-1.09 7.63 1.99-5.67-1.3-5.66 5.5-2.5 8.42-4.37.82-8.83 1-12.95-.87-.94 5.22 5.11 6.13 8.28 8.56-2.53.56-6.73 2.73-6.48-1.62-3.95.95-3.78 9.45 1.52 7.1 3.98-2.91.64 3.29-.25 5.02 1.05 3.68 3.61 6.82 4.44 10.64 5.52-4.61 5.14 3.25.7 5.13 4.01 1.88 1.03 6.89 5.78 8.13l-2.86-.13c-4.14.65-8.04-10.1-8.2-2.89-.6-2.29-.97-4.66-2.81-6.26 5.73 2.67 6.69-8.37 2.14-8.97l-2.14 8.97c-2.2-1.68-7.77 3.82-5.27-1.19 4.05-2.48 4.39-10.18-.56-11.87-6.79-2.07.04-13.33-7.12-14.66-5.45 1.34-10.43 4.89-14.28 8.69-3.87.86-.77-4.23 1.47-4.69 2.58-3.21-5.44-4.14-2.16-6.85 4.96 1.27 10.41 3.04 15.23.09 1.54-.43 5.64-2.64 2.54-3.67-3.71.16-.8-3.94-.05-5.75-2.88-2.82-4.6 2.53-6.54 4.13-.08-3.81-.59-7.34-3.99-9.47-2.32-5.19 5.81-1.12 5.5-4.51-4.2-4.34 6.29-5.02 2.41-10.54.94-1.5 3.84 1.3 4.31-1.04z"/><path fill="#465622" opacity=".86" d="M207.96 123.93c2.5 1.12 5.2 1.97 7.18 3.99-2.85-.47-5.77-1.2-7.18-3.99z"/><path fill="#c2b5a1" d="M154.88 128.88c-.08-3.19 1.77-4.85 4.52-2.7l-1.26 3.17-3.26-.47z"/><path fill="#33361b" opacity=".65" d="M124.08 125.93c1.78 1.91 2.02 4.29.72 7.12l-.7-.11-.02-7.01z"/><path fill="#aa9a79" d="M196.74 136.26c-2.16-3.47 2.34-6.56 5.18-5.09-.99 2.04-2.17 4.7-3.81 6l-1.37-.91z"/><path fill="#5a612b" d="M179.83 130.98c2.99.06 5.93.59 8.84 1.26 2.06 1.86 3.11 5.85 6.49 3.67l1.58.35 1.37.91c8.13 4.12 9.47 14.48 17.77 18.91l.61-8.12c2.28-1.18 15.1 3.35 2.33 2.29 3.58 5.19 8.61 12.6 15.99 10.02 3.79 5.78 17.31-1.18 14.81 8.06-.16 4.68.08 9.37-.25 14.05-1.98 1.8-4.11 3.43-6.41 4.79-2.52.31-5.04.55-7.55.77-4.53-4.22-6.64 2.86-11.34 2.29 1.37 1.42 4.19 2.2 3.89 4.58-2.07 2.23-5.25 1.41-7.86 2.23-1.16-3.73-2.68-7.34-4.14-10.96 3.14.66 7.29 1.91 5.09-2.82 4.67.71 11.63-.07 13.26-5.06 2.39 5.14 8.28.58 12.55 1.17 4.34-3.75.61-9.93-.2-14.55-1.71 2.45-1.91 5.49-3.97 1.39-5.81 1.68-11.79 1.41-17.55 3.32-2.29-5.89-9.99-1.96-13.19 1.6-2.37-3.03-1.47-12.42-6.59-7.14-2.34-1.26-3.58-2.85-1.5-5.09-4.55-.45-7.53-.86-3.04-3.77-2.68-2.1.52-4.81 1.08-7.18-.78-2.01-2.39-3.55-3.6-5.31-.85-3.08-5.11-4.33-7.63-1.99-3.09 2.49 4.74 9.84-1.41 8.16-7.24-4.62-.86-15.23-9.43-17.83z"/><path fill="#919c68" d="M210.2 138.15c1.73 1.12 4.89 5.4 5.53 8.48-4.63 4.91-2.98-1.65-6.44-3.98-.85-1.51.41-3.09.91-4.5z"/><path fill="#566638" opacity=".97" d="M264.92 149.8c2.41-5.44 6.9-13.6 14.09-9.82.88 1.22 1.65 2.51 2.39 3.82-7.47 3.43-6.47 14.28-13.31 18.19-2.13-2.09-6.56-3.2-5.44-6.91.55-5.29-8.21-.58-6.93-6.26.44-4.77 6.85-.37 9.2.98z"/><path fill="#838850" d="M195.8 151.06c-3.16-2.92-3.17-9.72 2.5-8.42 1.21 1.76 2.82 3.3 3.6 5.31-.56 2.37-3.76 5.08-1.08 7.18-4.49 2.91-1.51 3.32 3.04 3.77-2.08 2.24-.84 3.83 1.5 5.09-.06 2.21 1.99 5.76-1.11 6.2-1.32-4.51-10.1-1.91-6.7.29 4.96-5.11 7.21 5.13 1.45 4.92 1.05 2.66 2.64 5.07 3.93 7.63-7.07-.68-6.86-8.55-7.86-14.06-1.6-4.34-6.07.66-9.15.28.89-1.73 4.23-7.93.25-5.02-5.3 2.35-5.47-6.15-1.52-7.1-.25 4.35 3.95 2.18 6.48 1.62-3.17-2.43-9.22-3.34-8.28-8.56 4.12 1.87 8.58 1.69 12.95.87z"/><path fill="#566938" d="M282.76 146.05c1.36-2.32 3.83-4.12 6.49-2.49-5.25-.89-3.21 5.52.47 5.97.59 3.02-5.22 2.19-5.22 5.52 3.25 2.88-4.36 4.52-5.27 8.01-2.4 3.52 1.77 8.79 5.72 5.95-2.06 4.64-4.2 9.26-7.47 13.2.15-4.77-4.11-4.76-7.46-3.25 3.11-4.58 6.37-10.34 3.46-15.8 2.37-6 5.84-11.64 9.28-17.11z"/><path fill="#424d26" d="M281.4 143.8l1.36 2.25c-3.44 5.47-6.91 11.11-9.28 17.11 2.91 5.46-.35 11.22-3.46 15.8-3.01 3.28-1.88 10.81 3.73 8.9 1.71-1.53 2.67-3.66 3.73-5.65 3.27-3.94 5.41-8.56 7.47-13.2l5.93-11.09.94 2.35c-.72 9.76-1.91 22.89-11.51 28.27-2.37 5.46.46 9 5.75 8.78.98 5.57-4.06 5.21-7.11 1.75-3.65-4.89-9.37 3.75-12.74-1.27-4.52-4.87-14.99-3.05-11.07 5.89 6.63 1.38 13.78 5.2 20.55 3.06 3.09-1.9 2.93 3.09 3.93 5.02-4.26 3.14-10.66-.48-14.88-2.73 4.56 4.25-.08 14.71 9.25 13.2-7.28 6.05 8.26 15.26-1 17.84-1.03-1.05-1.87-2.27-2.72-3.46-1.82-4.01-6.22-10.45-10.99-7.35-3.44 2.12-5.53-3.45-9.3-2.5 3.01-1.28 1.67-3.96.23-5.99-.03-2.83 2.73-3.26 5.42-3.21 2.03-4.8 1.31-10.82-2.59-14.48l-1.04-1.66c1.83-3.77 3.07-8.17 7.88-8.78.09-4.03-4.05-7.04-3.16-11.41 2.71 1.14 11.72-5 5.81-6.89-1.74-1.44-2.99-3.61-5.52-3.63 2.44-2.52 5.79-12.21-.41-9.18-10.97 1.96 1.39 17.25-7.23 20.84.33-4.68.09-9.37.25-14.05 2.5-9.24-11.02-2.28-14.81-8.06l1.87-.55c4.18.09 8.36.11 12.56.06 4.9-.35 6.16-7.13 6.48-10.96-1.28 5.68 7.48.97 6.93 6.26-1.12 3.71 3.31 4.82 5.44 6.91 6.84-3.91 5.84-14.76 13.31-18.19m7.01 21.41c-.78.86-1.81 2.22-1.19 3.42 1.98.73 4.24-4.25 1.19-3.42z"/><path fill="#7f8e53" d="M289.72 149.53c-3.68-.45-5.72-6.86-.47-5.97 4.43 1.79 7.75 7.49 3.56 11.35-.66.99-1.34 1.98-1.93 3.01-2.06 3.65-3.93 7.4-5.93 11.09-3.95 2.84-8.12-2.43-5.72-5.95.91-3.49 8.52-5.13 5.27-8.01 0-3.33 5.81-2.5 5.22-5.52z"/><path fill="#5d6c3a" d="M293.71 157.11c2.25-4.91 8.66-3.25 11.38.4-2.96 4.56-6.27 8.95-10.5 12.4-3.1 2.39.07 7.13 3.27 7.24-1.03 3.2-2.32 6.41-4.89 8.7.71-6.23-4.01.91-6.82 1.33-4.67 1.37-.76 6.83.97 9.31l-1.06.83c-5.29.22-8.12-3.32-5.75-8.78 9.6-5.38 10.79-18.51 11.51-28.27l1.89-3.16z"/><path fill="#82945a" opacity=".98" d="M294.59 169.91c4.23-3.45 7.54-7.84 10.5-12.4 4.02 2.77-.16 7.16-1.3 10.41l-4.01 6.94-1.92 2.29c-3.2-.11-6.37-4.85-3.27-7.24z"/><path fill="#323a15" d="M256.6 161.54c6.2-3.03 2.85 6.66.41 9.18-1.82 3.12-1.04 7.15-.29 10.52-.89 4.37 3.25 7.38 3.16 11.41-4.81.61-6.05 5.01-7.88 8.78-2.19-3.2-1.22-6.9.95-9.55.95-2.03 2.8-10.54-1.85-6.99-2.4 1.71-5.25 2.24-8.14 2.28 2.3-1.36 4.43-2.99 6.41-4.79 8.62-3.59-3.74-18.88 7.23-20.84z"/><path fill="#6d7e45" d="M205.36 163.99c5.12-5.28 4.22 4.11 6.59 7.14 3.2-3.56 10.9-7.49 13.19-1.6 5.76-1.91 11.74-1.64 17.55-3.32 2.06 4.1 2.26 1.06 3.97-1.39.81 4.62 4.54 10.8.2 14.55-4.27-.59-10.16 3.97-12.55-1.17-1.63 4.99-8.59 5.77-13.26 5.06 2.2 4.73-1.95 3.48-5.09 2.82l-1.68-.95c-4.66-2.52 2.61-8.23-2.16-10.22-1.51 2.12-2.04 4.7-2.52 7.21-1.68-4.35-7.46-6.36-5.35-11.93 3.1-.44 1.05-3.99 1.11-6.2z"/><path fill="#4e4e28" d="M132.4 166.72c6.6 6.15 15.8 4.64 23.38 8.24 1.35-6.19 12.9.03 10.45 5.83 3.58 2.91 3.5 9.28-3.51 5.49-5.93-5.62-12.31 1.38-16.78 5.65-2.25-1.88-6.41-4.98-8.82-1.74-.5 2.21 2.43 2.17 3.7 3.21-.3 2.33-2.52 4.63-1.25 6.96.86 3.37 5.5 3.97 5.55 7.73-1.96.18-2.68-1.68-3.69-2.96-1.77 1.86-2.92 4.27-3.51 6.75 3.7 1.87 8.03 1.76 11.86 3.29 1.56 2.24.91 5.63 3.23 7.38 4.13-1 8.57-4.24 12.94-2.42-.09 3.88-7.63 3.77-3.67 9.44 4.07 3.56 6.5 10.03 12.31 10.88 2.55 3.35 5.15 7.05 9.14 8.77-.84 2.78 3.88 6.59.31 7.87-6.58-3.82-10.01-11.33-17.19-13.93-4.58-.69-1.5 5-2.33 7.48-1.63 4.59 4.3 6.97 4.26 11.46 3.37.85 8.41 1.9 8.27-3.11 3.6-3.82 7.11 5.48 10.76 1.03 1.25 2.53 2.08 6.39 5.77 4.82.89-6.07 7.37-.43 9.11 2.51-.92 5.76 3.55-.08 6.52 4.07-4.76 1.17-9.7.55-14.13-1.38-3.35-1.17-6.86-1.05-10.32-.84l-3.52-.31c-7.21-4.79-18.45-2.68-23.01-11.12-.73-1.6-1.43-3.22-2.1-4.84l-1.07-4.12-.19-1.92.51-2.6c-.32-7.44-9.53-12.06-12.05-19.28l-.86-2.06-.99-3.14c-.56-1.77-.04-4.47-2.3-5.07-7.87-8.36-11.03-21.35-3.27-30.79-1.86-3.45-9.98-4.59-8.95-10.93 4.61 4.18 7.39-1.48 5.44-6.3z"/><path fill="#919d5f" d="M185.92 169.25c3.08.38 7.55-4.62 9.15-.28 1 5.51.79 13.38 7.86 14.06-1.29-2.56-2.88-4.97-3.93-7.63 5.76.21 3.51-10.03-1.45-4.92-3.4-2.2 5.38-4.8 6.7-.29-2.11 5.57 3.67 7.58 5.35 11.93.48-2.51 1.01-5.09 2.52-7.21 4.77 1.99-2.5 7.7 2.16 10.22-3.09 5.15-11.06-7.8-11.3 1.86-.51 2.04-4.14 12.57-6.14 6.16-4.75-1.24-1.77-6.25-5.78-8.13 4.44-1.88 4.82-9.74-.7-5.13-.83-3.82-3.39-6.96-4.44-10.64z"/><path fill="#667239" d="M304.88 170.25c2.76-3.81 7.37-3.82 11.36-1.89-3.43 1.48-2.7 8.6-7.38 7.93-2.27-.68-3.16 2.47-3.24 4.15-.11 3.82 4.32 3.02 6.8 3.87-1.19 1.86-2.72 3.48-4.23 5.08-3.52-10.24-11.49 5.96-9.4 9.78 4.8.27.85 5.17 4 7.04a24.21 24.21 0 0 1-1.64 2l-1.65 1.89c-.65-.86-1.32-1.7-2.02-2.52-.67-2.75-2.77-4.55-5.33-5.54 2.93-11.08 13.52-19.03 12.66-31.07l.07-.72z"/><path fill="#8b9957" opacity=".96" d="M308.86 176.29c4.68.67 3.95-6.45 7.38-7.93l.9.36c1.7 5.44-2.25 10.92-4.72 15.59-2.48-.85-6.91-.05-6.8-3.87.08-1.68.97-4.83 3.24-4.15z"/><path fill="#696b38" d="M256.72 181.24c-.75-3.37-1.53-7.4.29-10.52 2.53.02 3.78 2.19 5.52 3.63 5.91 1.89-3.1 8.03-5.81 6.89z"/><path fill="#3a4623" d="M299.78 174.86c-.19 7.06 3.42-1.6 5.03-3.89.86 12.04-9.73 19.99-12.66 31.07-4.69 3.29-1.45-3.79-4.3-6.02 1.65-3.42 2.15-7.54 5.12-10.17 2.57-2.29 3.86-5.5 4.89-8.7l1.92-2.29z"/><path fill="#869a5d" d="M185.11 174.9c4.55.6 3.59 11.64-2.14 8.97l2.14-8.97z"/><path fill="#7c7d44" d="M270.02 178.96c3.35-1.51 7.61-1.52 7.46 3.25-1.06 1.99-2.02 4.12-3.73 5.65-5.61 1.91-6.74-5.62-3.73-8.9z"/><path fill="#7f8747" d="M202.98 186.99c.24-9.66 8.21 3.29 11.3-1.86l1.68.95c1.46 3.62 2.98 7.23 4.14 10.96-2.58-1.17-5.82-2.31-8.07.22-2.18 4.38 1.03 6.81 3.53 9.35 1.93 4.34-3.26 8.67.3 12.47-3.51 1.04-6.05 11.05-8.3 3.99-3.12 2.98-9.6 5.3-8.49 10.66-1.8 1.4-3.79 2.51-5.78 3.61 3.87 3.52 3.03 8.96-1.06 11.9-2.85 2.39-.16 4.68 2.6 4.98-.5-1.68-3.61-5.14.12-4.24 4.53-1.27.79 11.63-2.55 6.64-1.9-3.24-8.12-2.08-7.45-6.73 1.99-1.59 4.43-2.46 6.48-3.97-.89-4.91-2.98-11.15-6.67-15.57 5.97 2.84 9.3-.72 13.22-4-3.29-1.29-10.55-.26-8.15-5.92-3.57 1.51-3.13-2.95-4.19-5.18-2.58.11-5.09.56-7.66.65-.71-2.86 1.24-4.97 3.22-6.68 3.37-.98-2.07-7.3 2.87-9.13-7.27-1.21-.01-2.85.53-7.15.79 2.58 4.89 1.22 5.4 4.13 1.54 3.22-2.14 10.17 4.09 8.22-1.84 3.79-9.04 2.56-8.99 8.82 3.59-2.39 8.72-2.29 11.67-5.32 2.03-4.68 5.08-.2 9.22.29 1.65-4.72-3.82-3.5-5.15-6.92-2.1-1.86-5.23-2.23-7.72-3.53-.39-2.31 4.36-4.32.86-5.61l2.86.13c2 6.41 5.63-4.12 6.14-6.16m-18.77 15.1c-4.87 5.77 7.49.87 0 0z"/><path fill="#868b57" d="M286.15 187.18c2.81-.42 7.53-7.56 6.82-1.33-2.97 2.63-3.47 6.75-5.12 10.17l-.73.47c-1.73-2.48-5.64-7.94-.97-9.31z"/><path fill="#171b0b" opacity=".67" d="M251.1 184.89c4.65-3.55 2.8 4.96 1.85 6.99-.35-2.51 1.66-7.07-1.85-6.99z"/><path fill="#8d9348" opacity=".98" d="M298.79 199.17c-2.09-3.82 5.88-20.02 9.4-9.78-.65 5.86-2.35 11.76-5.4 16.82-3.15-1.87.8-6.77-4-7.04z"/><path fill="#39421d" d="M224.07 190.23c4.7.57 6.81-6.51 11.34-2.29l-1.5 1.03c-8.02 3.28-.2 11.52.98 17.33l.37 1.96c-.87 7.14-6.4 12.33-8.16 19.08 1.09 2.21 3.58 2.95 5.79 3.53 1.72-3.4 2.95-9.71 7.84-8.74 2.17 1.62 2.78 4.35 3.69 6.75 3.38-.64 4.76-5.16 5.79-8.1 1.44 2.03 2.78 4.71-.23 5.99-4.95 3.25-1.57 9.54 2.42 11.78.29 4.52 2.89 8.69 2.49 13.25-4.1 1.62-13.44.35-10.93-5.84 3.84-6.53-6.92-4.7-7.03-11.59-4.7 2.53-8.25-4.44-12.2-6.47l-.7-3.99c.07-2.67-3.35-2.36-5.07-3.36 1.3-2.36 4.09-.38 5.95-1.64-2.72-3.21 1.16-8.8-3.64-10.25-5.68-2.07-4.16-7.79-1.17-11.62 2.61-.82 5.79 0 7.86-2.23.3-2.38-2.52-3.16-3.89-4.58z"/><path fill="#99a663" d="M185.78 190.13c.16-7.21 4.06 3.54 8.2 2.89 3.5 1.29-1.25 3.3-.86 5.61 2.49 1.3 5.62 1.67 7.72 3.53 1.33 3.42 6.8 2.2 5.15 6.92-4.14-.49-7.19-4.97-9.22-.29-2.95 3.03-8.08 2.93-11.67 5.32-.05-6.26 7.15-5.03 8.99-8.82-6.23 1.95-2.55-5-4.09-8.22-.51-2.91-4.61-1.55-5.4-4.13a7.18 7.18 0 0 0 1.18-2.81z"/><path fill="#737f4d" d="M176.31 188.29c3.17-2.12 8.16 3.32 4.4 5.37-4.67 4.18-10.02-3.3-4.4-5.37z"/><path fill="#5c6836" d="M234.89 206.3c-1.18-5.81-9-14.05-.98-17.33l1.26 2.87-.28 14.46z"/><path fill="#383c1e" opacity=".64" d="M235.17 191.84c1.78 5.2.81 11.08.09 16.42l-.37-1.96c.02-4.83.22-9.65.28-14.46z"/><path fill="#555c2d" d="M212.03 197.26c2.25-2.53 5.49-1.39 8.07-.22-2.99 3.83-4.51 9.55 1.17 11.62 4.8 1.45.92 7.04 3.64 10.25-1.86 1.26-4.65-.72-5.95 1.64 1.72 1 5.14.69 5.07 3.36-4.39-3.06-4.31 4.95-7.73 5.54-4.55-1.48-5.87 4.41-7.77 7.38.28 4.57-.4 6.91-4.62 3.03-1.4-2.2-2.92-4.35-4.84-6.13-1.11-5.36 5.37-7.68 8.49-10.66 2.25 7.06 4.79-2.95 8.3-3.99-3.56-3.8 1.63-8.13-.3-12.47-2.5-2.54-5.71-4.97-3.53-9.35z"/><path fill="#585b31" d="M255.14 203.69c-3.92-8.94 6.55-10.76 11.07-5.89 3.37 5.02 9.09-3.62 12.74 1.27 3.05 3.46 8.09 3.82 7.11-1.75l1.06-.83.73-.47c2.85 2.23-.39 9.31 4.3 6.02 2.56.99 4.66 2.79 5.33 5.54-2.32.98-5.07 2.29-4.82-1.45-3.97.55-1.85 6.66-.63 9.35l-1 .44c-2.49 1.36 1.42 5.91-2.11 7.17-1.38-.28-2.74-.65-4.11-.93-2.98-1.83.23 3.54-2.37 1.32-4.28-3.75-10 3.07-6.05 7.15 2.67 3.45 9 7.75.91 8.52 2.94 3.45-1.95 6.38 2.02 9.29-1.55.46-3.16.19-4.72.01-3.46-3.07-7.59-7-4.33-11.83.85 1.19 1.69 2.41 2.72 3.46 9.26-2.58-6.28-11.79 1-17.84-9.33 1.51-4.69-8.95-9.25-13.2 4.22 2.25 10.62 5.87 14.88 2.73-1-1.93-.84-6.92-3.93-5.02-6.77 2.14-13.92-1.68-20.55-3.06m30.01 3.47c-6.58 5.14 8.53 2.32 0 0z"/><path fill="#bbb593" d="M184.21 202.09c7.49.87-4.87 5.77 0 0z"/><path fill="#242a12" opacity=".98" d="M253.04 203.09c3.9 3.66 4.62 9.68 2.59 14.48-2.69-.05-5.45.38-5.42 3.21-1.03 2.94-2.41 7.46-5.79 8.1-.91-2.4-1.52-5.13-3.69-6.75-4.89-.97-6.12 5.34-7.84 8.74-2.21-.58-4.7-1.32-5.79-3.53 5-2.05 6.37-7.82 9.65-11.58 3.49-3.15 8.79-1.06 12.97-1.98 2.62-2.84 3.31-6.95 3.32-10.69z"/><path fill="#808443" d="M292.03 215.48c-1.22-2.69-3.34-8.8.63-9.35-.25 3.74 2.5 2.43 4.82 1.45l2.02 2.52 1.46 1.93-.17 9.73c-.78 5.12-.93 10.33-.56 15.5-.2 1.32-.49 2.63-.81 3.94-2.87-2.54-1.87-5.96-1.4-9.24-2.93-.02-8.51.76-7.38 4.83.03 1.9-3.72 1.25-3.61 3.34.87 3.28 11.71-7.08 7.66-.44-1.38 4.04-8.29.75-8.84 6.06-1.55-2.19-2.86.79-4.81-1.61.64 2.12 1.5 4.56-1.72 4.3-3.97-2.91.92-5.84-2.02-9.29 8.09-.77 1.76-5.07-.91-8.52-3.95-4.08 1.77-10.9 6.05-7.15 2.6 2.22-.61-3.15 2.37-1.32 3.17 2.42 5.71 5.57 6.5 9.57 1.79-.95 3.57-1.94 5.17-3.18-1.19-2.01-1.92-4.23-2.75-6.39-1.59.39-3.12 1.57-4.81.93 3.53-1.26-.38-5.81 2.11-7.17-1.53 6 6.66 1.69 1-.44m-10.09 12.55c.54 6.77 6.62-1.29 0 0z"/><path fill="#968556" d="M285.15 207.16c8.53 2.32-6.58 5.14 0 0z"/><path fill="#757738" d="M173.88 219.28c-8.14-2.9 1.78-14.18 7.32-10.06-1.98 1.71-3.93 3.82-3.22 6.68 2.57-.09 5.08-.54 7.66-.65 1.06 2.23.62 6.69 4.19 5.18-2.4 5.66 4.86 4.63 8.15 5.92-3.92 3.28-7.25 6.84-13.22 4 3.69 4.42 5.78 10.66 6.67 15.57-2.05 1.51-4.49 2.38-6.48 3.97l-1.22-.67c-3.99-1.72-6.59-5.42-9.14-8.77-6.18-5.18-7.9-16.14-.71-21.17m-1.83 3.67c.3 2.87-1.88 8.41 1.9 8.94 2.4-1.62 7.45-2.05 5.09-5.91 1.69.01 4.07-.44 4.36 1.85 5.35.38-.93-6.58-3.49-3.97-2.88 2.39-4.93-1.16-7.86-.91m5.9 10.97c2.82 3.66 3.9 8.63 7.03 12.25.08-3.67-.55-7.31-.26-10.97-1.73-1.52-4.62-.28-6.77-1.28z"/><path fill="#bfab8f" d="M291.03 215.92l1-.44c5.66 2.13-2.53 6.44-1 .44z"/><path fill="#99a462" d="M284.81 222.16l4.11.93c1.69.64 3.22-.54 4.81-.93.83 2.16 1.56 4.38 2.75 6.39-1.6 1.24-3.38 2.23-5.17 3.18-.79-4-3.33-7.15-6.5-9.57z"/><path fill="#9c9c63" d="M172.05 222.95c2.93-.25 4.98 3.3 7.86.91 2.56-2.61 8.84 4.35 3.49 3.97-.29-2.29-2.67-1.84-4.36-1.85 2.36 3.86-2.69 4.29-5.09 5.91-3.78-.53-1.6-6.07-1.9-8.94z"/><path fill="#817845" d="M216.3 229.45c3.42-.59 3.34-8.6 7.73-5.54l.7 3.99.52 4.26c-2.53-1.53-4.28 1.73-6.36 2.74l-1.71.39c4.3-5.1-2.06-5.59-3.21-.41l3.21.41c-.06 4.66-7.88 5.78-8.65 1.54 1.9-2.97 3.22-8.86 7.77-7.38z"/><path fill="#525f2e" d="M252.4 238.55c-3.99-2.24-7.37-8.53-2.42-11.78 3.77-.95 5.86 4.62 9.3 2.5 4.77-3.1 9.17 3.34 10.99 7.35-2.47-.77-4.7.67-6.86 1.66 2.62 5.53-2.43 10.09-3.03 15.43 1.93 4.72 5.13-2.02 8.65-1.06.98 3.61-1.22 8.66 3.14 10.71 3.19-.24 6.2.8 9.11 2.02l-3.17.92c-1.72-.66-3.79-.9-5.24.47l-.7.4-6.26.64-3.62.52c-5.52-.19-11.02-.47-16.52-.11l-4.59-.4c-7.53-1.28-15.46-7.76-22.97-2.77.33-2.1.28-4.16-.16-6.18-3.83-6.3 4.66-2.48 6.3.87 4.38-.74 8.06-.82 10.71 3.43.55-4.19-3.71-5.99-5.99-8.7 5.58-1.79 8.04-9.46 14.89-8.51-2.51 6.19 6.83 7.46 10.93 5.84.4-4.56-2.2-8.73-2.49-13.25z"/><path fill="#6a7035" d="M224.73 227.9c3.95 2.03 7.5 9 12.2 6.47.11 6.89 10.87 5.06 7.03 11.59-6.85-.95-9.31 6.72-14.89 8.51 2.28 2.71 6.54 4.51 5.99 8.7-2.65-4.25-6.33-4.17-10.71-3.43-1.64-3.35-10.13-7.17-6.3-.87-3.93-.59-7.9-1.06-11.87-.9-1.38 3.03-2.09 6.34-3.49 9.38-1.74-2.94-8.22-8.58-9.11-2.51-3.69 1.57-4.52-2.29-5.77-4.82-3.65 4.45-7.16-4.85-10.76-1.03.14 5.01-4.9 3.96-8.27 3.11.04-4.49-5.89-6.87-4.26-11.46.83-2.48-2.25-8.17 2.33-7.48 7.18 2.6 10.61 10.11 17.19 13.93 3.57-1.28-1.15-5.09-.31-7.87l1.22.67c-.67 4.65 5.55 3.49 7.45 6.73 3.34 4.99 7.08-7.91 2.55-6.64-3.73-.9-.62 2.56-.12 4.24-2.76-.3-5.45-2.59-2.6-4.98 4.09-2.94 4.93-8.38 1.06-11.9 1.99-1.1 3.98-2.21 5.78-3.61 1.92 1.78 3.44 3.93 4.84 6.13-4.68-.46-.92 8.69-7.76 7.49 2.95 1.94 2.67 5.66 2.07 9.65 5.83 1.72 3.89-4.82 5.65-8.02.05-2.86 4.85-1.5 5.01-3.75-2.28-1.32-5.66-1.98-4.97-5.37 4.22 3.88 4.9 1.54 4.62-3.03.77 4.24 8.59 3.12 8.65-1.54l1.71-.39-3.9 7.87c5.68-2.23 7.64 3.63 7.13 8.18 3.57-2.31 3.96-10.87 10.69-10.44.9 3.25 6.18 10.8 4.23.51-.13-5.61-6.1-2.41-9.5-2.55-.99 1.47-1.24 4.1-3.6 3.6-.04-3.39 2.11-6.47 1.31-9.91-.13-1.43-.4-2.84-.52-4.26m-12.66 16.19c-4.61 6.32 8.72 5.04 5.08 9.03 7.62-.69-.96-4.44 1.65-8.17-2.42 1.25-4.76 1.07-6.73-.86z"/><path fill="#dbd1c0" d="M281.94 228.03c6.62-1.29.54 6.77 0 0z"/><path fill="#bbac8d" d="M213.97 234.88c1.15-5.18 7.51-4.69 3.21.41l-3.21-.41z"/><path fill="#8d9959" d="M218.89 234.9c2.08-1.01 3.83-4.27 6.36-2.74.8 3.44-1.35 6.52-1.31 9.91 2.36.5 2.61-2.13 3.6-3.6 3.4.14 9.37-3.06 9.5 2.55 1.95 10.29-3.33 2.74-4.23-.51-6.73-.43-7.12 8.13-10.69 10.44.51-4.55-1.45-10.41-7.13-8.18l3.9-7.87z"/><path fill="#929b51" d="M290.64 236.79c-1.13-4.07 4.45-4.85 7.38-4.83-.47 3.28-1.47 6.7 1.4 9.24l-.35 1.65c-1.38 4.04-6.39 4.21-8.58 7.63-1.08 1.98-3.15 2.56-5.27 2.33-4.23-2.65 6.1-4.67.63-7.06.55-5.31 7.46-2.02 8.84-6.06 4.05-6.64-6.79 3.72-7.66.44-.11-2.09 3.64-1.44 3.61-3.34z"/><path fill="#829754" d="M177.95 233.92c2.15 1 5.04-.24 6.77 1.28-.29 3.66.34 7.3.26 10.97-3.13-3.62-4.21-8.59-7.03-12.25z"/><path fill="#778749" d="M263.41 238.28c2.16-.99 4.39-2.43 6.86-1.66-3.26 4.83.87 8.76 4.33 11.83.43 3.59 6.9 5.22 2.57 8.53.63-3.07-1.81-3.24-4.21-3.18 2.38-3.22-2.08-1.34-3.93-1.15-3.52-.96-6.72 5.78-8.65 1.06.6-5.34 5.65-9.9 3.03-15.43z"/><path fill="#869451" d="M196.15 247.35c6.84 1.2 3.08-7.95 7.76-7.49-.69 3.39 2.69 4.05 4.97 5.37-.16 2.25-4.96.89-5.01 3.75-1.76 3.2.18 9.74-5.65 8.02.6-3.99.88-7.71-2.07-9.65z"/><path fill="#696b2e" d="M290.49 250.48c2.19-3.42 7.2-3.59 8.58-7.63.04 6.79-.59 14.33-6.07 19.08-3.89 1.22-7.74 2.6-11.72 3.45-2.91-1.22-5.92-2.26-9.11-2.02-4.36-2.05-2.16-7.1-3.14-10.71 1.85-.19 6.31-2.07 3.93 1.15-4.69 5.59 2.13 6.95 4.21 3.18 4.33-3.31-2.14-4.94-2.57-8.53 1.56.18 3.17.45 4.72-.01 3.22.26 2.36-2.18 1.72-4.3 1.95 2.4 3.26-.58 4.81 1.61 5.47 2.39-4.86 4.41-.63 7.06 2.12.23 4.19-.35 5.27-2.33m4.53-2.46c-1.09 7.32 7.32-1.09 0 0z"/><path fill="#899359" d="M212.07 244.09c1.97 1.93 4.31 2.11 6.73.86-2.61 3.73 5.97 7.48-1.65 8.17 3.64-3.99-9.69-2.71-5.08-9.03z"/><path fill="#b19c7c" d="M295.02 248.02c7.32-1.09-1.09 7.32 0 0z"/><path fill="#a89473" d="M277.17 256.98c-2.08 3.77-8.9 2.41-4.21-3.18 2.4-.06 4.84.11 4.21 3.18z"/><path fill="#8a7647" d="M206.18 257.97c3.97-.16 7.94.31 11.87.9.44 2.02.49 4.08.16 6.18-2.47 2.74-5.06 5.91-9 6.37-2.97-4.15-7.44 1.69-6.52-4.07 1.4-3.04 2.11-6.35 3.49-9.38m7.05 2.18c-1.98 1.58-3 3.31.41 3.32 3.74 2.59 2.83-4.66-.41-3.32z"/><path fill="#c8b99e" d="M213.23 260.15c3.24-1.34 4.15 5.91.41 3.32-3.41-.01-2.39-1.74-.41-3.32z"/></svg>