<svg xmlns="http://www.w3.org/2000/svg" width="512" height="512" viewBox="0 0 384 384" xmlns:v="https://vecta.io/nano"><path fill="#5b6135" d="M191.12 25.12c2.67-3.87 8.7-2.73 10.33 1.56 5.93-8.21 14.32 2.29 21.98.86-5.49-1.12-5.92 6.47-10.38 3.13-3.88 1.24-7.75 2.35-11.84 1.45-1.89 1.76.61 4.98-2.26 6.3-2.11-1.27-4.34-2.36-6.67-3.15-.04 6.04-9.78 3.51-7.77 9.93-2.73-.99-5.59-3.18-8.37-1.03.31 4.05 1.47 8.58 7.09 7.63 1.06 3.59-7.6 9.44-2.45 13.49l.47.89c-2.86.99-5.42-1.52-8.17-1.99-3.01 2.82 4.41 10.16-1.91 10.18-5.31 2.34-8.88-5.35-14.18-2.51-7.76-2.14-6 10.08-4.35 14.37-5.29-1.33.59 3.44 1.9 5.24 2.8 3.25 6.97.24 10.23-.54 4.47 3.52 5.28 9.38 7.92 14.15-1.46 1.32-4.2-.79-4.87 1.52-2.04 2.75-5.17 3.67-8.41 2.79-.4 4.34-5.21 5.43-7.33 8.75-1.21 1.94-5.01.44-3.86-1.85 2.56-2.18 7.83-1.73 7.79-6.09-5.62-4.19-6.9 6.06-12 7.82-4.13.91-.25 6.51 2.51 4.43 3.28-2.59 8.94-.05 10.07-5.06 3.41-1.45 6.17 2.49 9.07 3.81 2.31 3.64 2.64 8.04 4.53 11.79 3.71 1.44 3.67-5.34 7.15-3.2-1.19 3.02-2.56 6.05-5.71 7.41.73 3.21-1.74 5.29-3.06 7.89.69 2.04.8 4.15.52 6.28-4.03 2.4-5.48-2.65-9.22-2.45-.31 5.23 9.92 5.73 5.4 10.39-3.07 2.67-7.2-5.26-10.16-1.06-1.24 2.8 4.03 4.45 2.08 6.92-.79 1.73-3.53 4.28-1.01 5.75 5.5-2.14 10.55-5.4 15.89-7.94 6.12 4.2.51 14.21 8.8 16.39 2.75 7.36-1.65 9.1-6.74 5.63-3.04 3.67.26 4.48 3.58 3.26-.7 4.56 3.27 3.09 6.27 3.24 7.63 1.96.5 9.44-1.84 12.68-4.3 1.56 1.05 1.91 2.16 4.1-4.87.99-1.51 4.66-1.19 7.77-2.33.25-4.38-.83-6.37-1.87.88 2.98 1.87 5.96 1.94 9.11-2.55-.41-2.48-3.14-3.1-5.09-5.15-1.9-1.38 5.11.02 7.36-3.66 2.14-7.67 6.69-3.86 10.67.89 2.54 4.01 4.62 3.25 7.48-3.24 5.92 4.97 7.46 6.21 12.27l.77 3-2.29 3.83-.5.78c-5.15-5.27-8.08-12.43-13.19-17.74 2.28.23 6.33 3.98 6.99.08-.61-7.71-14.17-6.84-10.71-15.63.56-2.8 3.65-3.23 5.72-4.53-2.1-3.86-8-.65-11.67-1.34 2.22 5.35-4.58 10.4-6.12 3.91 4.21-1.75 2.36-6.91.41-9.95-3.23-3.03-8.04-2.51-11.99-3.85-.45-1.79-1.25-2.77-2.97-1.47-.87-4.21 6.39-1.21 5.17-6.03-2.36-4.45 2.33-10.47 6.85-7.15-.02-4.69 4.51-6.96 7.76-9.59 5.41-3.11 8.51 6.54 13.43 2.48.28-7.02-2.93-14.17-10.66-14.91 2.05 5.38-3.12 2.34-5.33.32-3.45-3.46-9.68.59-12.55-3.49-1.88-2.4-4.6-3.96-7.5-4.79 4.69 3.11 3.72 11.83-2.92 8.11-.17-4.19 1.88-8.03 3.14-11.92l1-5.99.85-6.2c1.76-1.93 3.53-3.84 5.45-5.6 3.63-2.01 10.37.25 10.96-5.14.22-3.79 7.12-2.61 5.53-6.83-4.88-1.81-6.83-6.03-8.67-10.41-3.59 5.55 4.8 11.57-1.45 15.93-2.98-.25-5.66-2.37-8.57-3.23 2.42-1.69 5.46-4.01 4.76-7.39-1.5-2.29-6.79-.99-6.87 1.78.21 2.89-3.22 1.67-5.02 2.09-.15-1.82-.39-3.62-.7-5.41-.33-3.35.41-6.55 1.74-9.58l8.35-13.23c1.16-2.31 1.3-4.61.42-6.9 1.83-4.45 3.89-8.91 4.43-13.74.64-3.16 1.19-6.43-.03-9.49-.96-3.48-1.23-7.11-1.28-10.7 5.61-1.85 9.13-6.21 12.28-10.99l.44-6.22c1.37-2.07 2.97-4.05 5.31-5.06l7.14.22c3.81-1.43 6.8-4.43 9.68-7.19 2.15-3.47.54-8.44 4.08-11.14a10.23 10.23 0 0 0 4.08.4c1.61.73 3.24.78 4.17-.96m-33.47 98.53c-6.72 1.71 1.05 14.52 4.02 10.77 3.41-1.69.65-4.98 4.8-5.83 1.24-1.74-4.5-9.3-8.82-4.94z"/><path fill="#828a45" d="M223.43 27.54c1.9-.41 3.83-.69 5.77-.89 8.52 6.52-7.14 11.68-7.7 17.66-2.39-.22-5.69-5.39-6.49-1.23-1.14 4.49 5.15 4.68 7.18 1.75.99.79 2.09 1.44 3.09 2.24l-.37.86c-3.21 1.56-6.41 3.2-9.92 3.93.35-5.82-5.72-9.36-5.31-14.85-2.1 1.08-4.4 1.97-6.01 3.75-1.82-.18-3.35-1.23-4.72-2.34 2.87-1.32.37-4.54 2.26-6.3 4.09.9 7.96-.21 11.84-1.45 4.46 3.34 4.89-4.25 10.38-3.13z"/><path fill="#747d3c" d="M192.28 35.27c2.33.79 4.56 1.88 6.67 3.15 1.37 1.11 2.9 2.16 4.72 2.34l3.4.82c-1.84 1.62-3.32 3.85-2.86 6.41-.01 1.53.28 3.03.7 4.5-3.57 2.77-7.85 7.62-4.62 12.21 1.18 2.75 4.25.29 6.05-.45-1.7 3.46-4.22 6.43-6.3 9.65-8.16 4.06-8.84 13.11-6.86 21.03-.51 1.69-.86 3.79.63 5.1l1.37 1.81c2.59 3.93-4.54.65-4.75 4.32.09 2.06 3.41 3 5.38 2.83.01 4.62 3.49 7.89 4.09 12.22-2.89-7.03-9.45 1.5-13.72 2.61-3.74-3 3.94-4.39 2.92-7.96-3.14 1-4.79 4.16-7.1 6.29.14-1.8.41-3.58.61-5.37-6.29-.63-.22 9.17-6.48 8.5 4.06-3.55-.88-4.42-3.99-3.32.08-5.35-7.54-7.35-6.48-.76-2.9-1.32-5.66-5.26-9.07-3.81-1.13 5.01-6.79 2.47-10.07 5.06-2.76 2.08-6.64-3.52-2.51-4.43 5.1-1.76 6.38-12.01 12-7.82.04 4.36-5.23 3.91-7.79 6.09-1.15 2.29 2.65 3.79 3.86 1.85 2.12-3.32 6.93-4.41 7.33-8.75 3.24.88 6.37-.04 8.41-2.79 3.94.56 7.6 5.93 11.2 1.46 4.1-4.76-6.68 1.53-4.86-2.83 4.56-1.09 12.33.48 9-6.3 8.76 4.74 1.71-7.28.93-11.24 5.2 6.62 6.23-2.24 6.49-7.07 1.3-5.28 5.38-9.65 4.98-15.42 4.51 2.32 2.1-5-1.34-3.15-2.38.81-2.86 12.98-3.59 1.42-.27-3.67.6-12.8-5.38-8.52 2.33 2.87-.51 6.13 1.69 9.15-2.94.4-5.6-3.86-6.16 1.19-5.15-4.05 3.51-9.9 2.45-13.49-5.62.95-6.78-3.58-7.09-7.63 2.78-2.15 5.64.04 8.37 1.03-2.01-6.42 7.73-3.89 7.77-9.93z"/><path fill="#93a666" d="M203.67 40.76c1.61-1.78 3.91-2.67 6.01-3.75-.41 5.49 5.66 9.03 5.31 14.85 3.51-.73 6.71-2.37 9.92-3.93 3.09 1.77 6.64 1.59 10.03 2.17.6 4.8-7.01 5.85-10.79 5.92-4.35-3.73-9.26 4.18-12.77.12 2.32-1.34-.04-3.09-.72-4.7-.54-3.41-.05-7.86-3.59-9.86a36.55 36.55 0 0 0-3.4-.82z"/><path fill="#b09d78" d="M215.01 43.08c.8-4.16 4.1 1.01 6.49 1.23l.69.52c-2.03 2.93-8.32 2.74-7.18-1.75z"/><path fill="#8e7e3d" d="M204.21 47.99c-.46-2.56 1.02-4.79 2.86-6.41 3.54 2 3.05 6.45 3.59 9.86.68 1.61 3.04 3.36.72 4.7-.29-2.15-2.39-2.19-4.1-2.33 1.12 2.66.69 5.4.62 8.16l.02.94-1.58 1.34c-1.8.74-4.87 3.2-6.05.45-3.23-4.59 1.05-9.44 4.62-12.21 3.87-1.61 2.87-9.85-.7-4.5m-3.14 9.95c-.59 3.25-.23 4.56 2.74 2.68 4.45-.77-.44-3.06-2.74-2.68z"/><path fill="#ad9f7a" d="M204.21 47.99c3.57-5.35 4.57 2.89.7 4.5-.42-1.47-.71-2.97-.7-4.5z"/><path fill="#71813c" opacity=".98" d="M225.28 47.07l5.43-.31 9.55-.06c1.69.08 3.13.9 4.07 2.31l-1 5.05c-2.33 1.23-4.74 2.29-7.18 3.26l-6.3.4-12.7 4.45-9.25-.2c.07-2.76.5-5.5-.62-8.16 1.71.14 3.81.18 4.1 2.33 3.51 4.06 8.42-3.85 12.77-.12 3.78-.07 11.39-1.12 10.79-5.92-3.39-.58-6.94-.4-10.03-2.17l.37-.86z"/><path fill="#57542b" opacity=".61" d="M244.33 49.01c1.23 1.3.86 3.27.64 4.86l-1.64.19 1-5.05z"/><path fill="#8c9d56" d="M185.25 54.95c5.98-4.28 5.11 4.85 5.38 8.52.73 11.56 1.21-.61 3.59-1.42 3.44-1.85 5.85 5.47 1.34 3.15.4 5.77-3.68 10.14-4.98 15.42-.26 4.83-1.29 13.69-6.49 7.07.8-3.1 3.06-5.62 4.34-8.54 1.14-1.89 1.7-4.04 1.68-6.24-4.35 3.05-7.98 7.02-12.28 10.15 3.41-5.04 5.42-10.78 3.42-16.88l-.47-.89c.56-5.05 3.22-.79 6.16-1.19-2.2-3.02.64-6.28-1.69-9.15z"/><path fill="#bca889" d="M201.07 57.94c2.3-.38 7.19 1.91 2.74 2.68-2.97 1.88-3.33.57-2.74-2.68z"/><path fill="#293113" opacity=".71" d="M207.9 61.97l9.25.2c-2.91 1.29-6.16.7-9.23.74l-.02-.94z"/><path fill="#6d8241" d="M173.08 64.19c2.75.47 5.31 2.98 8.17 1.99 2 6.1-.01 11.84-3.42 16.88 4.3-3.13 7.93-7.1 12.28-10.15.02 2.2-.54 4.35-1.68 6.24-3.46-6.7-2.23 7.9-7.4 5.17 3.9 8.13-7.73 5.79-9.38 12.36-2.39 1.58-.93-1.56-.96-2.83.78-3.32-3.54-4.71-5.92-2.92-3.26.78-7.43 3.79-10.23.54-1.31-1.8-7.19-6.57-1.9-5.24 1.93 1.16 4.04 2.11 6.36 1.83.4-5.51-.08-11.02-2.01-16.2 5.3-2.84 8.87 4.85 14.18 2.51 6.32-.02-1.1-7.36 1.91-10.18z"/><path fill="#465028" d="M152.64 86.23c-1.65-4.29-3.41-16.51 4.35-14.37 1.93 5.18 2.41 10.69 2.01 16.2-2.32.28-4.43-.67-6.36-1.83z"/><path fill="#31361b" opacity=".66" d="M145.22 76.76c1.22 3.06.67 6.33.03 9.49l-.03-9.49z"/><path fill="#626f2d" d="M181.03 84.32c5.17 2.73 3.94-11.87 7.4-5.17-1.28 2.92-3.54 5.44-4.34 8.54.78 3.96 7.83 15.98-.93 11.24 3.33 6.78-4.44 5.21-9 6.3-1.82 4.36 8.96-1.93 4.86 2.83-3.6 4.47-7.26-.9-11.2-1.46.67-2.31 3.41-.2 4.87-1.52-2.64-4.77-3.45-10.63-7.92-14.15 2.38-1.79 6.7-.4 5.92 2.92.03 1.27-1.43 4.41.96 2.83 1.65-6.57 13.28-4.23 9.38-12.36z"/><path fill="#5a5b28" opacity=".96" d="M195.18 101.84c2.23 1.22 4.61 2.14 7.06 2.81-2.24 1.3-4.38 2.76-6.43 4.34-1.97.17-5.29-.77-5.38-2.83.21-3.67 7.34-.39 4.75-4.32z"/><path fill="#7e7337" d="M195.81 108.99c2.05-1.58 4.19-3.04 6.43-4.34 5.38.66 8.37 5.44 9.92 10.2l.05 7.32-.69 1.69.23 5.07c7.17 3.31 11.52 10.06 17.42 15.03-4.53 1.29-5.47-5.49-10.09-4 .18 2.37 1.67 5.55-1.76 5.93-.17-7.35-11.54-6.41-11.3.92 4.42 2.51 2.54 7.72 5.79 10.92-.89.7-1.73 1.46-2.57 2.22-.73-1.86-1.4-3.87-3.06-5.12-2.22-1.34-5.36-5.74-7.8-2.74.24 2 .68 3.97 1.05 5.95a16.85 16.85 0 0 1-3.08 1.02c-.03-5.5-2.97-11.28 2.98-14.71l1.8-.25c2.25.96 4.38 1.44 3.47-1.71 2.24-.24 2.73-2.11 2.35-4.07-2.31-.21-4.91-.29-3.93-3.35 3.17-.74 5.17 2.12 7.84 3.16 1.72-5.77-2.43-11.28-.98-17.05.35-1.53-.06-3.07-1.15-4.19-2.79-1.95-2.47-7.14-5.61-7.79-1.9 4.33-.31 9.14.1 13.66 2.07.97 4.66 1.62 2.58 4.21-2.56-1.05-4.56-3.38-5.9-5.76-.6-4.33-4.08-7.6-4.09-12.22z"/><path fill="#8e975d" d="M203.12 109.1c3.14.65 2.82 5.84 5.61 7.79-4.57-.13-2.02 6.37 1.15 4.19-1.45 5.77 2.7 11.28.98 17.05-2.67-1.04-4.67-3.9-7.84-3.16-.98 3.06 1.62 3.14 3.93 3.35.38 1.96-.11 3.83-2.35 4.07.91 3.15-1.22 2.67-3.47 1.71-.65-3.06-1.61-6.03-2.39-9.06-3.47.77-6.89 2-10.51 1.39-2.05-3.56-2.74-7.7-4.4-11.42-4.4-1.55-2.31 5.96-6.49 4.78-3.48-2.14-3.44 4.64-7.15 3.2-1.89-3.75-2.22-8.15-4.53-11.79-1.06-6.59 6.56-4.59 6.48.76 3.11-1.1 8.05-.23 3.99 3.32 6.26.67.19-9.13 6.48-8.5-.2 1.79-.47 3.57-.61 5.37 2.31-2.13 3.96-5.29 7.1-6.29 1.02 3.57-6.66 4.96-2.92 7.96 4.27-1.11 10.83-9.64 13.72-2.61 1.34 2.38 3.34 4.71 5.9 5.76 2.08-2.59-.51-3.24-2.58-4.21-.41-4.52-2-9.33-.1-13.66z"/><path fill="#c5b59b" d="M209.88 121.08c-3.17 2.18-5.72-4.32-1.15-4.19 1.09 1.12 1.5 2.66 1.15 4.19z"/><path fill="#87774e" d="M157.65 123.65c4.32-4.36 10.06 3.2 8.82 4.94-3.64-4.19-9.11 3.84-4.8 5.83-2.97 3.75-10.74-9.06-4.02-10.77z"/><path fill="#7b8443" d="M177.34 129.79c4.18 1.18 2.09-6.33 6.49-4.78 1.66 3.72 2.35 7.86 4.4 11.42 3.62.61 7.04-.62 10.51-1.39.78 3.03 1.74 6 2.39 9.06l-1.8.25c-5.25 1.14-4.52-6.86-9.81-5.46-1.03 7.49-3.1 18.06 6.83 20.17a16.85 16.85 0 0 0 3.08-1.02c-.12 3.78 3.14 5.41 6.57 5.12-7.59-.26-8.04 8.33-4.9 12.98 2.15-1.08 3.12-3.01 2.2-5.3-1.85-5.26 7.92-7.46 9.02-2.27-4.49-1.92-6.99 1.02-6.5 5.54 1.66-4.05 6.56-2.14 9.79-4.07.63 3.06 1.28 7.47 5.23 7.64 3.7-2.47 8.04-3.06 12.17-4.33-2.05 11.49 5.55-4.61 5.65 5.6-5.72 2.79-6.3 17.71 1.88 11.28 3.22-6.51 1.31 2.25 6.54 2.01-2.65 4.85-7.71.83-11.87 1.6-5.45-2.96-7.2 4.74-12.25.15.81 3.95 2.3 8.01.84 12.01-5.56.64-6.76-5.87-11.58-7.21-3.28-1.77-4.32-4.27-2.35-7.58-8.38-.9-10.29-11.5-11.1-18.32-4.48.9-4.72 6.42-7.67 9.14-.43-1.92-3.77-2.05-2.29.14 3.18 5.27-3.48 16.96 5 18.08-2.42-3.54-2.59-8.28 2.14-4.32 2.35 2.38 4.16 5.29 6.9 7.28 2.04 5.12-3.79 1.5-2.91 5.65-3.88.68-6.25-2.85-8.98-4.89-.47 2.85-.79 5.74-.78 8.63 1.78.47 3.8.61 5.02 2.2-4.91.77-9.93-.5-9.11 6.35 4.13-2.83 11.61-.41 12.19-6.66 1.92 1.41 3.82.46 5.16-1.23 1.57-.15 3.14-.25 4.72-.38-6.28-1.16.05-7.6-3.19-10.97 2.84.92 12.37.01 10.51 5.4-.87 2.48 2.92 1.89 4.38 2.74.91 3.58-.55 5.63-4.25 5.65 10.89-4.42 4.82 5.84-1.35 3.32.9-2.7-.15-4.62-2.74-5.68-2.52 4.65-6.98 11.19-12.75 6.85.15 8.27 9.96-2.22 11.29 5.99.63 4.36-8.16 8.81-.89 11.29l-2.76.43c-6.04-6.57-12.38.83-19.05 1.54-3.26.82 1.57 2.92 2.6 4.14-3.4.05-3.44 3.67-3.8 6.24 2.79 5.01 7.46-9.34 4.69 2.91-2.29 1.07-6.21 2.81-7.71-.03-1.26-3.18 3.53-15.72-3.43-9.97-.75 3.94 1.93 9.33 4.12 13.28l-2.63-.03c-1.24-4.81-9.45-6.35-6.21-12.27.76-2.86-2.36-4.94-3.25-7.48 4.78 2.46 4.97-5.49 8.92-1.08-2.11-5.18 2.77-2.05 5.51-1.14-.45-5.68-6.29-2.36-9.34-4.84-3.91-3.36-6.34 4.22-5.09 7.06-3.81-3.98.2-8.53 3.86-10.67-1.4-2.25-5.17-9.26-.02-7.36.62 1.95.55 4.68 3.1 5.09-.07-3.15-1.06-6.13-1.94-9.11 1.99 1.04 4.04 2.12 6.37 1.87-.32-3.11-3.68-6.78 1.19-7.77-4.89 6.26 6.77 3 0 0-1.11-2.19-6.46-2.54-2.16-4.1 2.34-3.24 9.47-10.72 1.84-12.68 1.78-4.8 2.3-10.06 4.68-14.62.63 5.75 6.55-2.76.47-.78 1.31-1.85 1.94-3.94 1.89-6.28-2.49 1.4-4.16 3.65-5.33 6.21-2.34-1.02-1.05-3.57-1.28-5.51-2.71-1.96-5.29-4.91-3.23-8.34 4.47-2.02-1.12 6.41 2.66 4.7 5.04-2.98-.33-9.13 3.18-12.98-7.03-1.2-6.86 8.11-13.24 7.68-4.21-1.19 2.72-3.44 4.17-5.13-12-4.54 14.79-11.05 3.28-16.73-11.83-5.15-2.01 12.1-12.14 11.65.28-2.13.17-4.24-.52-6.28 1.32-2.6 3.79-4.68 3.06-7.89 3.15-1.36 4.52-4.39 5.71-7.41m31.76 46.25c.65 2.59.64 6.65-3.05 6.25.55 7.75 8.27 11.6 14.95 12.75 1.95-5.54-8.46-2.84-5.39-9.62-6.58-.7-1.9-8.36-6.51-9.38m12.09 7.2c-1.99 1.65-3.27 4.08-3.34 6.68 3.45-.53 7.85-4.96 3.34-6.68z"/><path fill="#50542c" d="M148.16 125.93c1.84 4.38 3.79 8.6 8.67 10.41 1.59 4.22-5.31 3.04-5.53 6.83-.59 5.39-7.33 3.13-10.96 5.14-1.92 1.76-3.69 3.67-5.45 5.6 2.76-7.16-3.31-12.3-3.88-18.8 1.8-.42 5.23.8 5.02-2.09.08-2.77 5.37-4.07 6.87-1.78.7 3.38-2.34 5.7-4.76 7.39 2.91.86 5.59 2.98 8.57 3.23 6.25-4.36-2.14-10.38 1.45-15.93z"/><path fill="#bdb296" d="M161.67 134.42c-4.31-1.99 1.16-10.02 4.8-5.83-4.15.85-1.39 4.14-4.8 5.83z"/><path fill="#646f3d" d="M169.09 151.37c10.13.45.31-16.8 12.14-11.65 11.51 5.68-15.28 12.19-3.28 16.73-1.45 1.69-8.38 3.94-4.17 5.13 6.38.43 6.21-8.88 13.24-7.68-3.51 3.85 1.86 10-3.18 12.98-3.78 1.71 1.81-6.72-2.66-4.7-2.06 3.43.52 6.38 3.23 8.34.23 1.94-1.06 4.49 1.28 5.51 1.17-2.56 2.84-4.81 5.33-6.21.05 2.34-.58 4.43-1.89 6.28l-.47.78c-2.38 4.56-2.9 9.82-4.68 14.62-3-.15-6.97 1.32-6.27-3.24-3.32 1.22-6.62.41-3.58-3.26 5.09 3.47 9.49 1.73 6.74-5.63-8.29-2.18-2.68-12.19-8.8-16.39-5.34 2.54-10.39 5.8-15.89 7.94-2.52-1.47.22-4.02 1.01-5.75 1.95-2.47-3.32-4.12-2.08-6.92 2.96-4.2 7.09 3.73 10.16 1.06 4.52-4.66-5.71-5.16-5.4-10.39 3.74-.2 5.19 4.85 9.22 2.45z"/><path fill="#626332" d="M189.52 138.89c5.29-1.4 4.56 6.6 9.81 5.46-5.95 3.43-3.01 9.21-2.98 14.71-9.93-2.11-7.86-12.68-6.83-20.17z"/><path fill="#858f4c" d="M206.02 146.81c-.24-7.33 11.13-8.27 11.3-.92 3.43-.38 1.94-3.56 1.76-5.93 4.62-1.49 5.56 5.29 10.09 4 4.58 4.19 6.97 10.09 9.11 15.79l-.29 10.24c-4.32 1.79-10.2-.51-8.08-5.48-4.53 1.81-8.84-7.53-1.9-5.77-.35-3.85-6.1-2.4-9.07-2.76.02 3.18 1.31 6.13 2.05 9.17-3.04-2.93-8.36-2.59-9.18-7.42-3.25-3.2-1.37-8.41-5.79-10.92z"/><path fill="#9b895e" d="M198.38 152.09c2.44-3 5.58 1.4 7.8 2.74-3.26-.52-5.16.71-4.15 4.14 3.41 1 4.64-.89 4.15-4.14 1.66 1.25 2.33 3.26 3.06 5.12l-3.24 3.21c-3.43.29-6.69-1.34-6.57-5.12l-1.05-5.95z"/><path fill="#d6c9b6" d="M202.03 158.97c-1.01-3.43.89-4.66 4.15-4.14.49 3.25-.74 5.14-4.15 4.14z"/><path fill="#646c2f" d="M218.94 155.98c2.97.36 8.72-1.09 9.07 2.76-6.94-1.76-2.63 7.58 1.9 5.77-2.12 4.97 3.76 7.27 8.08 5.48h1.04c8.35-1.35 15.84 2.25 23.06 5.74-4.19 5.63-5.8-4.9-8.83.49-1.98 5.21-3.02-5.23-5.12-1.21-.3 3.56-4.6.53-6.88 1.02-.29 2.05.03 5.3-2.6 2.92-.1-10.21-7.7 5.89-5.65-5.6-4.13 1.27-8.47 1.86-12.17 4.33-3.95-.17-4.6-4.58-5.23-7.64-3.23 1.93-8.13.02-9.79 4.07-.49-4.52 2.01-7.46 6.5-5.54-1.1-5.19-10.87-2.99-9.02 2.27.92 2.29-.05 4.22-2.2 5.3-3.14-4.65-2.69-13.24 4.9-12.98 1.14-1.01 2.16-2.13 3.24-3.21.84-.76 1.68-1.52 2.57-2.22.82 4.83 6.14 4.49 9.18 7.42-.74-3.04-2.03-5.99-2.05-9.17z"/><path fill="#4a4d28" d="M132.82 169.91c2.9.83 5.62 2.39 7.5 4.79 2.87 4.08 9.1.03 12.55 3.49 2.21 2.02 7.38 5.06 5.33-.32 7.73.74 10.94 7.89 10.66 14.91-4.92 4.06-8.02-5.59-13.43-2.48-3.25 2.63-7.78 4.9-7.76 9.59-4.52-3.32-9.21 2.7-6.85 7.15 1.22 4.82-6.04 1.82-5.17 6.03-4.16-8.17-3.6-18.22 4.28-23.9-3.92-2.96-10.26-5.21-10.03-11.15 6.64 3.72 7.61-5 2.92-8.11z"/><path fill="#899358" d="M191.1 182.03c2.95-2.72 3.19-8.24 7.67-9.14.81 6.82 2.72 17.42 11.1 18.32-1.97 3.31-.93 5.81 2.35 7.58-2.39 4.44-4.56-2.26-8.44.61-1.16-2.28 1.63-8.84-2.51-7.18-2.54 2.91-.69 6.03 2.51 7.18-.34 1.26-.67 2.53-.93 3.81-2.74-1.99-4.55-4.9-6.9-7.28 1.29-2.87 4.69-10.94-.3-9.39-2.55.65-2.98-3.11-4.55-4.51z"/><path fill="#88994d" d="M248.14 175.01c2.1-4.02 3.14 6.42 5.12 1.21 3.03-5.39 4.64 5.14 8.83-.49l.99 13.29c-3.25 2.77-7.12 4.62-10.93 6.46-3.16-.51-1.27-6.63-5.07-3.24-5.23.24-3.32-8.52-6.54-2.01-8.18 6.43-7.6-8.49-1.88-11.28 2.63 2.38 2.31-.87 2.6-2.92 2.28-.49 6.58 2.54 6.88-1.02m-1.01 3.21c-3.24 2.09-4.64 14.1-.36 6.86.24 5.29 5.94 3.56 9.44 3.11 5.88-.4.1-6.23.77-10.01-2.28.4-4.6.98-4.19 3.83-1.18-2.22-3.17-3.52-5.66-3.79z"/><path fill="#aea787" d="M189.13 176.1c6.08-1.98.16 6.53-.47.78l.47-.78z"/><path fill="#8fa262" d="M209.1 176.04c4.61 1.02-.07 8.68 6.51 9.38-3.07 6.78 7.34 4.08 5.39 9.62-6.68-1.15-14.4-5-14.95-12.75 3.69.4 3.7-3.66 3.05-6.25z"/><path fill="#636b35" opacity=".92" d="M262.09 175.73c5.57 2.27 6.53 10.43.99 13.29l-.99-13.29z"/><path fill="#a9b770" d="M247.13 178.22c2.49.27 4.48 1.57 5.66 3.79-.41-2.85 1.91-3.43 4.19-3.83-.67 3.78 5.11 9.61-.77 10.01-3.5.45-9.2 2.18-9.44-3.11-4.28 7.24-2.88-4.77.36-6.86z"/><path fill="#636f40" d="M188.81 182.17c-1.48-2.19 1.86-2.06 2.29-.14 1.57 1.4 2 5.16 4.55 4.51 4.99-1.55 1.59 6.52.3 9.39-4.73-3.96-4.56.78-2.14 4.32-8.48-1.12-1.82-12.81-5-18.08z"/><path fill="#9bac68" d="M221.19 183.24c4.51 1.72.11 6.15-3.34 6.68.07-2.6 1.35-5.03 3.34-6.68z"/><path fill="#676f2c" d="M247.08 192.24c3.8-3.39 1.91 2.73 5.07 3.24-3.63 3.93-13.24-.15-13.19 5.57-1.96-3.9-9.31-1.78-8.09 2.78-1.9-4.34-7.89 2.57-1.68 1.53-2.17 3.45-8.49.44-9.33 4.69-1.46-.85-5.25-.26-4.38-2.74 1.86-5.39-7.67-4.48-10.51-5.4 3.24 3.37-3.09 9.81 3.19 10.97l-4.72.38c-1.03-1.58-1.39-3.93-3.5-4.4-.88-4.15 4.95-.53 2.91-5.65.26-1.28.59-2.55.93-3.81 3.88-2.87 6.05 3.83 8.44-.61 4.82 1.34 6.02 7.85 11.58 7.21 1.46-4-.03-8.06-.84-12.01 5.05 4.59 6.8-3.11 12.25-.15 4.16-.77 9.22 3.25 11.87-1.6z"/><path fill="#67643a" d="M201.27 192.22c4.14-1.66 1.35 4.9 2.51 7.18-3.2-1.15-5.05-4.27-2.51-7.18z"/><path fill="#849250" d="M230.87 203.83c-1.22-4.56 6.13-6.68 8.09-2.78.56 8.68-.04 17.6-4.67 25.18-5.38 3.67-2.32-1.41-.3-4.22-3.15-2.98-4.81 4.62-7.52-.11.17-2.18-3.8-7.74-3.16-3.07 2.34 6.02-6.11-.72-9.19 2.28 2.53 3.14-.25 8.62-4.06 5.07-1.33-8.21-11.14 2.28-11.29-5.99 5.77 4.34 10.23-2.2 12.75-6.85 2.59 1.06 3.64 2.98 2.74 5.68 6.17 2.52 12.24-7.74 1.35-3.32 3.7-.02 5.16-2.07 4.25-5.65.84-4.25 7.16-1.24 9.33-4.69-6.21 1.04-.22-5.87 1.68-1.53z"/><path fill="#94a55b" d="M190.96 203.97c2.73 2.04 5.1 5.57 8.98 4.89 2.11.47 2.47 2.82 3.5 4.4-1.34 1.69-3.24 2.64-5.16 1.23-.58 6.25-8.06 3.83-12.19 6.66-.82-6.85 4.2-5.58 9.11-6.35-1.22-1.59-3.24-1.73-5.02-2.2-.01-2.89.31-5.78.78-8.63z"/><path fill="#bab494" d="M184.3 208.28c-4.89 6.26 6.77 3 0 0z"/><path fill="#4f512a" d="M135.65 213.07c1.72-1.3 2.52-.32 2.97 1.47 3.95 1.34 8.76.82 11.99 3.85 1.95 3.04 3.8 8.2-.41 9.95 1.54 6.49 8.34 1.44 6.12-3.91 3.67.69 9.57-2.52 11.67 1.34-2.07 1.3-5.16 1.73-5.72 4.53-3.46 8.79 10.1 7.92 10.71 15.63-.66 3.9-4.71.15-6.99-.08l-1.96-1.07c-5.21-2.35-15.12-6.28-16.95 1.42l-.18-5.44c.15-5.42-2.18-10.7-5.64-14.79l-.93-6.05c-1.46-2.36-3.22-4.51-4.68-6.85z"/><path fill="#8f9d68" d="M223.31 218.83c-.64-4.67 3.33.89 3.16 3.07-5.19-2.14-9.45 4.15-3.4 4.54-2.06 5.2-8.43 4.93-12.87 6.43 1.33 1.34 3.01 4.49-.22 4.49l-.81.11c-7.27-2.48 1.52-6.93.89-11.29 3.81 3.55 6.59-1.93 4.06-5.07 3.08-3 11.53 3.74 9.19-2.28z"/><path fill="#7c7c3e" d="M226.47 221.9c2.71 4.73 4.37-2.87 7.52.11-2.02 2.81-5.08 7.89.3 4.22-3.07 5.15-7.58 9.25-11.29 13.89-2.5 7.66 7.17 8.59 10.25 13.69-4.23 1.42-7.02-2.83-11.12-2.09.29-2.2 1.66-6.3-2.12-5.78-5.78 1.67-9.2 9.06-15.81 9.08-.97-1.16-1.01-2.7-1.26-4.11 1.44 2.73 6.66 3.3 3.86-.66-3.9-5.83 1.64-7.46 5.34-9.5-1.41 2.35-2.97 4.63-4.18 7.1 4.25 4.33 10.54-5.33 4.18-7.1 3.63-1.17-.34-2.86-2.16-3.39 3.23 0 1.55-3.15.22-4.49 4.44-1.5 10.81-1.23 12.87-6.43-6.05-.39-1.79-6.68 3.4-4.54z"/><path fill="#9a965e" d="M171.74 236.23c-1.25-2.84 1.18-10.42 5.09-7.06 3.05 2.48 8.89-.84 9.34 4.84-2.74-.91-7.62-4.04-5.51 1.14-3.95-4.41-4.14 3.54-8.92 1.08z"/><path fill="#666f3b" opacity=".97" d="M317.74 233.87c2.73-2.04 4.46.6 5.6 2.87-2.96-.47-3.14 2.02-3.57 4.21-3.59-.84-7.22-2.01-10.58.28.66-3.21 4.4-3.3 6.95-2.56 3.02 1.17 1.11-3.1 1.6-4.8z"/><path fill="#415024" opacity=".97" d="M285.06 251.98c9.76-7.86 21.57-12.39 32.68-18.11-.49 1.7 1.42 5.97-1.6 4.8-2.55-.74-6.29-.65-6.95 2.56-.98 1.3-.17 6.41-2.4 4.67-9.16-6.31-14.21 8.36-17.91 14.17-3.49 3.49-8.75 6.29-9.31 11.73-7.58 2.9 1.55-9.7-5.75-8.04 5.96-1.21 7.88-7.53 11.24-11.78z"/><path fill="#899a5b" d="M187.36 239.44c6.67-.71 13.01-8.11 19.05-1.54-5.58 2.26-5.63 8.29-3.47 13.01.25 1.41.29 2.95 1.26 4.11 6.61-.02 10.03-7.41 15.81-9.08 3.78-.52 2.41 3.58 2.12 5.78 4.1-.74 6.89 3.51 11.12 2.09 2.84 2.23 3.92 5.76 5.09 9.01-.03 4.28-4.05 9.2-8.52 8.72 2.95 3.29 1.03 7.39-1.29 10.45-1.24-2.28-2.57-4.51-4.22-6.52-1.1-1.8-2.33-3.51-3.55-5.22 1.68-2.55 5.49-3.71 6.13-6.77-4.66-.5-2.19-5.99-3.03-9.23-6.35-1.88-5.18 12.44-10.05 7.84-1.89.77-3.51 2.05-5.36 2.92-4.49-5.6 3.45-5.05 7.57-5.18-.86-4.95-8.12-.86-11.1-1.14-4.05-1.01-6.63 3.03-10.72 2.36 1.09-3.3.82-6.18-3.33-6.12.4 2.18 1.42 4.16 2.13 6.25-2.83-.19-3.73-2.92-4.51-5.17-4.65 4.09 3.99 8.36 7.72 6.2-2.19 5.76-11.49.46-14.24-3.23l-.77-3 2.63.03c-2.19-3.95-4.87-9.34-4.12-13.28 6.96-5.75 2.17 6.79 3.43 9.97 1.5 2.84 5.42 1.1 7.71.03 2.77-12.25-1.9 2.1-4.69-2.91.36-2.57.4-6.19 3.8-6.24-1.03-1.22-5.86-3.32-2.6-4.14m4.53 5.49c3.01 3.67 2.03 13.88 8.13 8.43-2.84-.02-1.61-2.57-1.33-4.33-2.91-.5-4.19-3.36-6.8-4.1z"/><path fill="#575125" d="M209.17 237.47l.81-.11c1.82.53 5.79 2.22 2.16 3.39-3.7 2.04-9.24 3.67-5.34 9.5 2.8 3.96-2.42 3.39-3.86.66-2.16-4.72-2.11-10.75 3.47-13.01l2.76-.43z"/><path fill="#829558" d="M319.77 240.95c.43-2.19.61-4.68 3.57-4.21-.55 1.43-.58 2.88-.09 4.35-4.31 5.88-10.99 8.84-17.46 11.69-2.81 2.38-.25 15.54-7.48 9.3.62 6.8-8.08-1.35-3.62-3.34 5.9-2.86 5.18-11.76 12.1-12.84 2.23 1.74 1.42-3.37 2.4-4.67 3.36-2.29 6.99-1.12 10.58-.28z"/><path fill="#292b18" opacity=".69" d="M145.98 248.04l.92-7.28.18 5.44-.03 7.55-.32 2.47-.74-1.32-.09-2.73.01-2.02.07-2.11z"/><path fill="#a99576" d="M212.14 240.75c6.36 1.77.07 11.43-4.18 7.1 1.21-2.47 2.77-4.75 4.18-7.1z"/><path fill="#645633" d="M147.08 246.2c1.83-7.7 11.74-3.77 16.95-1.42-4.37 1.32-2.43 6.55-3.43 10.05 2.34 3.26 3.97 6.88 5.53 10.57-.3 2.73-3.84.17-5.47-.11-4.66-3.62-8.67-8.19-13.61-11.54l.03-7.55z"/><path fill="#6f7840" d="M288.88 260.07c3.7-5.81 8.75-20.48 17.91-14.17-6.92 1.08-6.2 9.98-12.1 12.84-4.46 1.99 4.24 10.14 3.62 3.34 7.23 6.24 4.67-6.92 7.48-9.3-1.61 2.44 1.25 3.48 2.99 4.49l.48.83c2 3.72-6.5 6.15-2.15 7.53-5.19 1.46-.2 7.81.63 11.08-4.13 1.07-1.29 6.85 2.05 6.51-2.6-4.02-.34-8.44 2.25-11.93 4.73-.95-3.37-8.33 1.58-9.74 1.77-1.05 3.75-.16 5.53.35-3.61 1.93-6.74 10.65-.12 9.35-1.08 2.45-5.84 6.62 3.03 3.84 3.04 1.21-2.08 3.37-3.75 3.87-1.42-3.16-6.75-1.98-6.76 1.35-.05 5.71-5.95 9.51-3.69 15.45-3.07 2.47-3.83.09-4.21-2.79-.52 2.17-2.12 3.58-3.93 4.69-.35 0-1.05 0-1.39-.01-2.49-1.55-4.26-2.4-4.43-5.64-2.64 1.68-5.38 1.84-8.09.17-.21 2.51 1.22 4.66 2.29 6.75-1 1.21-1.95 2.46-3.04 3.59-2-.64-2.85-2.48-3.61-4.25-2.52-.75-4.57 1.55-6.48 2.83-9.05 3.42-3.95-5.49-7.17-9.12-2.83.23-4.23 3.37-6.4 4.85-3.27-.09-6.71-.51-4.35-4.48 3.68 2.75 6.02-.41 4.06-4.1 3.46 1.09 8.45 3.18 9.04-2.13 5.07 1.43 10.08 8.89 12.78 1.12 1.31-2.11-2.45-6.88 2.86-6.32l3.3 4.06c-2.36 6.24 8.46.69 9.18-2.78 7.65 4.1-7.25 4.62-2.25 10.74 3.65 6.46 6.15-7.54 8.92-7.24 1.98 3.6 1.82-4.2-1.1-3.45-5.72-.24 1.73-6.4.57-9.64-1.69-5.51-11.26-3.2-10.73 2.46-1.19-1.98-.18-4.13.54-6.06 1.67-2.12-.47-3.48-2.24-4.34-1.13-1.47-2.15-3.02-3.1-4.6m-14.87 34.94c-1.53 7.15 7.15-1.53 0 0z"/><path fill="#7d7541" d="M160.6 254.83c1-3.5-.94-8.73 3.43-10.05l1.96 1.07c5.11 5.31 8.04 12.47 13.19 17.74-1.74 4.95-3.67-.59-4.39-2.36-4.05.49-3.26-5.44-6.66-5.2-.52 2.94-.42 5.97-1.16 8.88l-.84.49c-1.56-3.69-3.19-7.31-5.53-10.57z"/><path fill="#64693b" d="M191.89 244.93c2.61.74 3.89 3.6 6.8 4.1-.28 1.76-1.51 4.31 1.33 4.33-6.1 5.45-5.12-4.76-8.13-8.43z"/><path fill="#3b481e" opacity=".8" d="M331.99 253.86c3.52-1.97 8.46-3.02 11.94-.9a75.99 75.99 0 0 0-3.69.2c-2.76.11-5.5.46-8.25.7z"/><path fill="#6e8245" d="M331.99 253.86l8.25-.7c-4.16 3.33-12.56 1.67-10.44 9.84 2.2-3.37 2.14.48 4.29 1.62l-1.41.95c-4.15-2.39-3.4 2.12-7.69 1.47.59-2.82 4.57-6.66.93-8.66-1.65.55-3.23 1.26-4.86 1.85 1.88-4.76 8.32-2.11 10.93-6.37z"/><path fill="#92a263" d="M340.24 253.16l3.69-.2 1.39 1.96c-.49 1.39-.5 2.79-.04 4.19l-1.08.83c-2.92-1.86-5.22 1.28-7.39 2.83l-2.72 1.85c-2.15-1.14-2.09-4.99-4.29-1.62-2.12-8.17 6.28-6.51 10.44-9.84z"/><path fill="#4a4a21" opacity=".97" d="M147.05 253.75c4.94 3.35 8.95 7.92 13.61 11.54 1.63.28 5.17 2.84 5.47.11l.84-.49c4.57-.97 2.87 3.01.38 4.55-1.03 3.61 4.26 1.71 6.04 1.04 5.28-2.46 5.87 5.52 9.57 7.57 3.22 3.23 7.52 4.41 12.06 4.18.51 3.64.49 7.31.73 10.98-5.93-6.67-12.08-13.26-21.5-14.4-8.84-4.52-17.11-10.06-25.13-15.89-.89-2.21-1.72-4.44-2.39-6.72l.32-2.47z"/><path fill="#878949" d="M213.81 262.09c4.87 4.6 3.7-9.72 10.05-7.84.84 3.24-1.63 8.73 3.03 9.23-.64 3.06-4.45 4.22-6.13 6.77-3.72-3.65-9.3-1.72-13.83-1.16.95-1.3 3.41-2.47 1.52-4.08 1.85-.87 3.47-2.15 5.36-2.92z"/><path fill="#495c2c" d="M319.24 257.21c4.13-1.54 8.36-2.81 12.75-3.35-2.61 4.26-9.05 1.61-10.93 6.37-.63.57-1.26 1.13-1.91 1.67-1.78-.51-3.76-1.4-5.53-.35-4.95 1.41 3.15 8.79-1.58 9.74-1.11-2.29-2.23-4.92-4.93-5.66-4.35-1.38 4.15-3.81 2.15-7.53 3.3-.13 6.82.37 9.98-.89z"/><path fill="#727833" d="M190.87 254.93c4.15-.06 4.42 2.82 3.33 6.12 4.09.67 6.67-3.37 10.72-2.36 2.98.28 10.24-3.81 11.1 1.14-4.12.13-12.06-.42-7.57 5.18 1.89 1.61-.57 2.78-1.52 4.08 4.53-.56 10.11-2.49 13.83 1.16 1.22 1.71 2.45 3.42 3.55 5.22a77.89 77.89 0 0 0-2.3 2.49c-3.03-.36-6.95-1.96-7.33 2.41-2.16 1.73-3.48 5.12-6.74 4.71-.47-3.38 2.85-5.67 2.92-8.8-1.91-1.89-6.89-3.67-2.97-6.33-5.27 2.56-6.99-1.45-6.47-5.23-1.62 1.22-3.02 2.7-4.51 4.07-2.73 1.54-8.92.65-7.9 5.13.92 4.24 11.46 4.54 8.37-1.32l-.15-.86-.32-2.95c6.88 2.94 3.42 10.92-1.89 13.46-4.54.23-8.84-.95-12.06-4.18 4.14-2.94 6.74-8.57.31-9.96-.71 3.63-4.28 2.57-3.06-.83 1.8-1.71 1.71-3.24-.53-4.47.74-1.3 1.52-2.56 2.29-3.83 2.75 3.69 12.05 8.99 14.24 3.23-3.73 2.16-12.37-2.11-7.72-6.2.78 2.25 1.68 4.98 4.51 5.17-.71-2.09-1.73-4.07-2.13-6.25z"/><path fill="#5d632e" d="M168.13 256.03c3.4-.24 2.61 5.69 6.66 5.2.72 1.77 2.65 7.31 4.39 2.36l.5-.78c2.24 1.23 2.33 2.76.53 4.47-1.22 3.4 2.35 4.46 3.06.83 6.43 1.39 3.83 7.02-.31 9.96-3.7-2.05-4.29-10.03-9.57-7.57-1.78.67-7.07 2.57-6.04-1.04 2.49-1.54 4.19-5.52-.38-4.55.74-2.91.64-5.94 1.16-8.88z"/><path fill="#1e290f" opacity=".62" d="M308.78 257.27c3.49-.22 6.95-.11 10.46-.06-3.16 1.26-6.68.76-9.98.89l-.48-.83z"/><path fill="#879457" d="M321.06 260.23l4.86-1.85c3.64 2-.34 5.84-.93 8.66-2.46.32-4.18 2.83-1.95 4.73 7.55-3.17 14.95-5.81 23.15-7.16 3.12 1.87 3.24 8.04-.92 8.68-3.2-1.16-5.4-.6-6.6 1.68-5.31 2.31-12.23 1.67-15.87 7.1 5.81-.69 11.34-2.23 16.27-5.45l1.32 1.33c-.99 1.57-1 3.66.12 5.19-2.58 2.78-6.76 2.79-10.2 3.56-3.76.49-10.96-.35-9.31 5.34 3.5.4 6.47-1.76 9.37-3.38 2.76 5.8-1.94 7.91-6.3 8.58-1.63-.62-3.92-1.04-4.9.83-1.32 1.62-2.93 2.98-5.03 3.36-1.42-.67-2.86-.77-4.33-.31 1.47-2.46 3.72-4.47 4.89-7.08-1.64-3.49-2.31-9.74 3.06-9.53l.55-5.55c1.67-.5 6.79-2.66 3.75-3.87-8.87 2.78-4.11-1.39-3.03-3.84-6.62 1.3-3.49-7.42.12-9.35.65-.54 1.28-1.1 1.91-1.67m-1.84 3.94c-1.75.93-2.08 4.98.77 3.85 1.76.43 1.79-5.7-.77-3.85z"/><path fill="#647134" opacity=".92" d="M336.81 262.77c2.17-1.55 4.47-4.69 7.39-2.83-1.71 1.34-3.61 2.38-5.52 3.39l-1.87-.56z"/><path fill="#58673a" d="M279.57 271.8c.56-5.44 5.82-8.24 9.31-11.73.95 1.58 1.97 3.13 3.1 4.6-3.24 1.34-6.14 3.37-8.77 5.66-.51 3.64.79 7.42 2.58 10.59-5.31-.56-1.55 4.21-2.86 6.32-3.95-4.47-8.52-8.36-12.68-12.5 1.04-3.7-1.01-8.19-5.32-5.78-2.4-4.12 3.84-1.34 5.18-3.78l1.18-1.06 2.53-.36c7.3-1.66-1.83 10.94 5.75 8.04z"/><path fill="#5c6731" d="M238.34 262.82l.98 2.95c1.35 5.3-2.65 8.76-4.32 13.18-1.09 1.08-5.08 1.84-2.73 3.64 1.61 3.11-2.2 8.11 1.36 10.42 2.38-4.02 2.27-8.8 2.67-13.31 2.6-.06 2.73 2.22 3.07 4.25 4.44.59 3.23-6.74 7.72-6.94 3.85-1.36 2.62 5.65 6.46 3.78 1.26-2.35 1.4-5.95 4.21-6.99-1.3 3.63-.88 7.26 3.09 8.75-2.5 5.64-10.13-3.22-10.14 3.36-1.87-1.11-3.47-2.86-5.75-3.07 1.49 3.01 3.12 5.99 3.93 9.28-3.72-.2-6.96-1.81-9.73-4.19-1.99 2.79 1.66 5.02-1.56 7.34 2.14 3.26 1.63 12.52 7.14 8.52 2.07-2.23 1.16-9.09 4.92-4.61-1.98-6.62 4.58-.51 6.9 1.31 5.26 3.67 4.15-1.3 4.84-3.66 2.17-1.48 3.57-4.62 6.4-4.85 3.22 3.63-1.88 12.54 7.17 9.12-1.31 1.47-3.03 2.46-4.78 3.3-1.38-.78-3.17-.92-4.34.29-6.66 4.67-16.2 2.07-21.61 8.78-7.43 1.18-5.09-9.28-10.15-11.11-10.73 3.84-6.32-16.95-17.22-14.37 1.44 3.64 3.91 13.2-.69 13.57.22-3.5-2.15-6.33-5.33-7.49-3.1-1.28-1.3-5.36-3.65-7.26-4.74-3.33 4.03-13.8-5.31-11.81 1.96 4.47 2.21 8.06-1.48 11.59-3.63 3.72 2.57 7.14 1.62 11.1-2.29-1.19-4.53-2.55-6.28-4.46-.24-3.67-.22-7.34-.73-10.98 5.31-2.54 8.77-10.52 1.89-13.46 1.49-1.37 2.89-2.85 4.51-4.07-.52 3.78 1.2 7.79 6.47 5.23-3.92 2.66 1.06 4.44 2.97 6.33-.07 3.13-3.39 5.42-2.92 8.8 3.26.41 4.58-2.98 6.74-4.71.34 5.87 7.88 9.6 10.14 2.94-3.78-.53-2.85-2.53-2.81-5.35a77.89 77.89 0 0 1 2.3-2.49c1.65 2.01 2.98 4.24 4.22 6.52 2.32-3.06 4.24-7.16 1.29-10.45 4.47.48 8.49-4.44 8.52-8.72z"/><path fill="#cbc890" d="M319.22 264.17c2.56-1.85 2.53 4.28.77 3.85-2.85 1.13-2.52-2.92-.77-3.85z"/><path fill="#445722" opacity=".98" d="M324.99 267.04c4.29.65 3.54-3.86 7.69-1.47 2.94.57 5.73-.78 8.55-1.41 1.65-.01 3.4-.31 4.96.45-8.2 1.35-15.6 3.99-23.15 7.16-2.23-1.9-.51-4.41 1.95-4.73z"/><path fill="#404920" d="M261.05 265.04l1.63-.35 7.43.49c-1.34 2.44-7.58-.34-5.18 3.78-1.58 2.67-4.46 3.73-7.17 4.84-2.81 1.04-2.95 4.64-4.21 6.99-3.84 1.87-2.61-5.14-6.46-3.78-4.49.2-3.28 7.53-7.72 6.94-.34-2.03-.47-4.31-3.07-4.25l-1.3-.75c1.67-4.42 5.67-7.88 4.32-13.18.98 1.62 1.12 6.84 3.76 4.33 2.63-3.23 6.63-4.64 10.83-4.3 2.97 1.42 5.35 1.16 7.14-.76z"/><path fill="#4a461f" d="M283.21 270.33c2.63-2.29 5.53-4.32 8.77-5.66 1.77.86 3.91 2.22 2.24 4.34-7.31 1.64-5.03 11.08-2.35 15.92l-2.78.05-3.3-4.06c-1.79-3.17-3.09-6.95-2.58-10.59z"/><path fill="#859458" d="M307.74 276.71c-.83-3.27-5.82-9.62-.63-11.08 2.7.74 3.82 3.37 4.93 5.66-2.59 3.49-4.85 7.91-2.25 11.93-3.34.34-6.18-5.44-2.05-6.51z"/><path fill="#848b52" d="M264.93 268.96c4.31-2.41 6.36 2.08 5.32 5.78 4.16 4.14 8.73 8.03 12.68 12.5-2.7 7.77-7.71.31-12.78-1.12-.59 5.31-5.58 3.22-9.04 2.13 1.96 3.69-.38 6.85-4.06 4.1-2.36 3.97 1.08 4.39 4.35 4.48-.69 2.36.42 7.33-4.84 3.66-2.32-1.82-8.88-7.93-6.9-1.31-3.76-4.48-2.85 2.38-4.92 4.61-5.51 4-5-5.26-7.14-8.52 3.22-2.32-.43-4.55 1.56-7.34 2.77 2.38 6.01 3.99 9.73 4.19-.81-3.29-2.44-6.27-3.93-9.28 2.28.21 3.88 1.96 5.75 3.07.01-6.58 7.64 2.28 10.14-3.36-3.97-1.49-4.39-5.12-3.09-8.75 2.71-1.11 5.59-2.17 7.17-4.84m-3.75 6.01c-.86 1.98-2.32 5.16.64 6.06.86-1.98 2.32-5.17-.64-6.06z"/><path fill="#a29166" d="M189.01 273.92c-1.02-4.48 5.17-3.59 7.9-5.13l.32 2.95c-5.72-3.52-2.28 6.96.15.86 3.09 5.86-7.45 5.56-8.37 1.32z"/><path fill="#6a5b2e" d="M291.87 284.93c-2.68-4.84-4.96-14.28 2.35-15.92-.72 1.93-1.73 4.08-.54 6.06 1.06 2.64 1.79 5.76 4.59 7.13-.72 3.47-11.54 9.02-9.18 2.78l2.78-.05z"/><path fill="#8f894f" d="M293.68 275.07c-.53-5.66 9.04-7.97 10.73-2.46 1.16 3.24-6.29 9.4-.57 9.64 2.92-.75 3.08 7.05 1.1 3.45-2.77-.3-5.27 13.7-8.92 7.24-5-6.12 9.9-6.64 2.25-10.74-2.8-1.37-3.53-4.49-4.59-7.13m5.56-1.75c-1.63.62-4.63 2.1-2.58 4.03 2.44 2.72 6.47-4.2 2.58-4.03z"/><path fill="#e5ddce" d="M197.38 272.6c-2.43 6.1-5.87-4.38-.15-.86l.15.86z"/><path fill="#beae98" d="M299.24 273.32c3.89-.17-.14 6.75-2.58 4.03-2.05-1.93.95-3.41 2.58-4.03z"/><path fill="#586728" opacity=".87" d="M338.67 274.97c1.2-2.28 3.4-2.84 6.6-1.68-2.09.95-4.33 1.46-6.6 1.68z"/><path fill="#6d7f35" d="M201.89 275c9.34-1.99.57 8.48 5.31 11.81 2.35 1.9.55 5.98 3.65 7.26 3.18 1.16 5.55 3.99 5.33 7.49-7.1-2.69-9.49-11.07-15.77-14.97 3.69-3.53 3.44-7.12 1.48-11.59z"/><path fill="#d2c4ae" d="M261.18 274.97c2.96.89 1.5 4.08.64 6.06-2.96-.9-1.5-4.08-.64-6.06z"/><path fill="#556929" d="M322.8 282.07c3.64-5.43 10.56-4.79 15.87-7.1l.4 1.65c-4.93 3.22-10.46 4.76-16.27 5.45z"/><path fill="#7f9352" d="M214.68 280.37c.38-4.37 4.3-2.77 7.33-2.41-.04 2.82-.97 4.82 2.81 5.35-2.26 6.66-9.8 2.93-10.14-2.94z"/><path fill="#4e532f" d="M311.55 280.31c.01-3.33 5.34-4.51 6.76-1.35l-.55 5.55c-5.37-.21-4.7 6.04-3.06 9.53-1.17 2.61-3.42 4.62-4.89 7.08l-1.54-.35a38.24 38.24 0 0 0-2.18-1.86l-6.37-1.25c1.81-1.11 3.41-2.52 3.93-4.69.38 2.88 1.14 5.26 4.21 2.79-2.26-5.94 3.64-9.74 3.69-15.45z"/><path fill="#4f4a2a" opacity=".64" d="M340.39 277.95l.12 5.19c-1.12-1.53-1.11-3.62-.12-5.19z"/><path fill="#727c4c" d="M235 278.95l1.3.75c-.4 4.51-.29 9.29-2.67 13.31-3.56-2.31.25-7.31-1.36-10.42-2.35-1.8 1.64-2.56 2.73-3.64z"/><path fill="#667b39" d="M321 292.04c-1.65-5.69 5.55-4.85 9.31-5.34l.06 1.96c-2.9 1.62-5.87 3.78-9.37 3.38z"/><path fill="#454f24" opacity=".97" d="M202.03 297.69c.95-3.96-5.25-7.38-1.62-11.1 6.28 3.9 8.67 12.28 15.77 14.97 4.6-.37 2.13-9.93.69-13.57 10.9-2.58 6.49 18.21 17.22 14.37 5.06 1.83 2.72 12.29 10.15 11.11-6.14 3.4-9.34-4.75-15.25-3.44-8.1 1.28-11.62-7.65-18.6-9.27-2.85-.84-5.8-1.51-8.36-3.07z"/><path fill="#545526" d="M285.81 292.18c2.71 1.67 5.45 1.51 8.09-.17.17 3.24 1.94 4.09 4.43 5.64l-5.61 1.07-4.62.21c-1.07-2.09-2.5-4.24-2.29-6.75z"/><path fill="#cabda5" d="M274.01 295.01c7.15-1.53-1.53 7.15 0 0z"/><path fill="#3e481d" opacity=".76" d="M319.17 298.07c.98-1.87 3.27-1.45 4.9-.83-1.39 1.13-3.23 1.15-4.9.83z"/><path fill="#4f4222" opacity=".93" d="M274.97 301.1c1.91-1.28 3.96-3.58 6.48-2.83.76 1.77 1.61 3.61 3.61 4.25-3.3 1.42-6.92-.44-10.09-1.42z"/><path fill="#292b15" opacity=".63" d="M292.72 298.72l5.61-1.07 1.39.01 6.37 1.25-13.37-.19z"/><path fill="#423e14" opacity=".69" d="M309.81 301.12c1.47-.46 2.91-.36 4.33.31-1.28 1.1-3.3 1.14-4.33-.31z"/></svg>