<svg xmlns="http://www.w3.org/2000/svg" width="512" height="512" viewBox="0 0 384 384" xmlns:v="https://vecta.io/nano"><path fill="#596132" d="M169.42 25.39c2.56-6.32 10.63.51 12.52-6.83 1.52 1.04 3.56 1.02 5.1.03 1.93 3.63 4.19 4.04 5.98.04 1.47 1.02 3.47 1.01 4.95.01 1.63 2.67 4.2 4.5 7.09 5.58-3.67 3.91-13.43-1.09-16.53 5.48 2 5.09-3.47 2.73-6.45 1.69-.92 3.72-4.31 4.92-7.26 6.69-3.92 1.88-8.36 2.62-11.73 5.65-3.29-1.91-10.92-1.75-11.7 1.84 3.88.51 5.28 8.63 9.05 3.85 1.01-1.6 6.49-4.3 5.11-.78-1.72 5.19 3.68-2.32 6.14-.36 4.05 1.74-5.44 5.91-.7 7.81-2 2.64-.19 4.92 2.34 6.17-3.22 1.27-6.14-1.64-9.21-2.2-4.13 3.07 7.03 8.29-.05 10.1-4.94 3.34-11.1-5.37-14.33.56-3.51-3.25-8.41 4.75-3.14 4.52-.89 2.63-1.23 5.37-1.62 8.11-2.59-.11-3.27-2.46-4.23-4.43-2.73 1.22-1.81 4.33-1.73 6.89 3.42-.56 7.19-.17 8.93 3.27 4.19 4.78 9.36-3.27 13.75.2 2.73 1.8 2.03 5.96 4.86 7.78 2.12-2.81.71-12.2 6.16-7.78 2.19 2.53 5.46.91 8.28 1.48.62 3.2-4.94 3.29-3.43 6.57 2.23 5.81-9.63.34-8.58 5.64 2.06-.23 4.08-.71 6.15-.94-.46 2.79-3.78 3.64-6.13 4.23-3.83-5.37-9.01-1.69-10.34 3.51-1.39-3.34-4.2-2.87-5.07.6-2.31-4.95-8.27-5.74-12.75-3.41-.01-2.3 1.62-3.89 2.89-5.59-6.34-.23-2.37-8.69-6.58-10.72 1.21-6.59 1.65-13.51-1.37-19.65l.22-6.87c6.26-3.66 12.08-9.63 11.7-17.47.04-2.96 2.77-4.6 5.09-5.84 2.71-.24 6.26 1.5 8.11-.94l1.44-1.58c5.05-2.34 8.2-7.07 7.07-12.91z"/><path fill="#8b9748" opacity=".98" d="M205.84 23.88c4.3-3.59 15.25-.98 12.51 5.35-3.82 1.7-7.98 5.79-12.29 3.63 1.35-3.04 2.35-6.22-.22-8.98z"/><path fill="#797a3a" d="M205.06 24.22l.78-.34c2.57 2.76 1.57 5.94.22 8.98 4.31 2.16 8.47-1.93 12.29-3.63-1.14 2.84-3.81 4.47-6.3 5.97-1.07.68-1.52 1.69-1.37 3.03-2.63-.9-8.87-5.64-5.29 2.24 1.98 4.01 4.62 1.8 5.78-1.47l.62.07c2.22 1.9 5.04 1.95 7.89 1.64 4.17.09 8.34.11 12.52.06 1.19 1.35 1.1 3.38 1.47 5.08-4.86 4.77-12.01 4.68-17.82 7.57 1.96-4.23 7.67-4.91 9.19-9.37-3.04-1.17-6.55-.1-9.68-1.38-3.79-1.03-6.08 4.88-9.93 3.03-1.67-4.73-4.97-8.66-6.55-13.41-1.33.52-3.21 2.48-3.32-.05.28-3.57-5.52-2.62-4.49.66 1.95 4.32 11.63 3.95 8.94 11.14-.47 3.05 3.96 4.8 1.45 7.68 2.64.78 5.04 2.13 7.53 3.26 6.36-.9-9.23-8.22 3.65-4.83 1.59.32 1.89 2.42 3.21 3.27-2.73 1.59-5.7 2.69-8.68 3.73-2.79.2-6.03-1.18-8.32.74-1.41 1.86-2.51 3.95-3.79 5.9-6.46 7.36-13.05 15.92-8.82 26.09-.56 1.37-.86 3.23.54 4.23 1.18 1.3 2.4 2.56 3.64 3.8-.29 2.88-3.67.73-5.51 1.14-.08 5.06 5.05 7.65 8.08 10.88 2.9-2.78 2.84-9.19 9.2-8.07 4.98 3.17 6.17 9.58 5.54 15.07-1.8 2.55-1.85 4.63-.16 6.24 6.03 3.68 11.72 7.62 15.53 13.8-2.29-.98-8.43-4.24-6.69.7 1.08 2.41-3.82 3.53-3.12.56.26-3.58-3.65-.51-5.45-2.12-4.32-3.64-4.85 11.13-.86 4.77 1.1 2.61-1.7 7.69 1.93 9.26.47-2.41.39-4.86.31-7.3 2.83 1.87 5.49 5.56 3.95 9.09-4.26-.73-5.2 3.25-7.95 5.42-2.24.94-6.7-2.38-2.59-1.93 2.58 1.59 3.97-2.21 1.91-3.64-.82-1.08-1.71-2.11-2.62-3.11-3.88-5.76-7.32.58-4.52 4.8 1.59 2.25-.88 1.08-2.18.82-.67-6.31-3.76-13.32 1.61-18.35 1.47 1.52 2.67 3.54 4.79 4.22-1.3-3.09 2.78-4.19 2.25-6.9-1.84-3.38-3.34 4.3-4.23.19-.96-3.21-6.84-11.26.09-9.29-.22 4.64 3.8 7.76 8.18 7.97-1.2-4.91-1.94-9.92-3.02-14.85.19-1.46 1.18-3.07.1-4.4-2.07-2.83-4.01-5.93-6.89-7.99-1.61 3.25 1.37 6.42.46 9.76-1.36 3.47 4.26 3.95 3.53 7.51-3.69-1.91-6.63-5.05-8.26-8.88-4.62.96-8.32 3.78-11.83 6.76-1.71-2.07.48-4.12 1.06-6.16-3.1.42-3.47 4.73-6.93 5.07-3.35-1.55-8.47-2.74-7.1-7.66 5.33.55 9.76-3.39 15.05-2.45-.13-3.24-4.61-3.14-6.92-4.42-1.86 3.17-5.22 5.02-8.15 1.84 2.35-.59 5.67-1.44 6.13-4.23-2.07.23-4.09.71-6.15.94-1.05-5.3 10.81.17 8.58-5.64-1.51-3.28 4.05-3.37 3.43-6.57l.32-3.37c2.26-5.86 1.04-12.54 3.95-18.2 1.72-3.46 3.06-7.26 1.57-11.08-3.12-1.19-2.21 9.21-3.96 4.06-3.55-3.86 2.05-13.49-5.76-12.17.02 3.42.42 6.85 1.83 9.99-2.77-.26-7.46-2.55-5.62 2.27-2.53-1.25-4.34-3.53-2.34-6.17 3.41-.84 3.96-4.18 5.22-6.91 3.39-3.29 8.38-4.6 12.93-3.26-.01-3.69-3.36-2.74-5.77-2.03.85-2.27.95-7.19-2.56-4.78-2.09-2.07-6.01 2.8-5.99-1.03 2.95-1.77 6.34-2.97 7.26-6.69 2.98 1.04 8.45 3.4 6.45-1.69 3.1-6.57 12.86-1.57 16.53-5.48m-8.91 16.91c-1.85 1.38-1.02 3.96-1.12 5.93 3.58.88 4.23-5.65 1.12-5.93m-2.97 10.91c-1.38 1.71-1.71 3.97-2.2 6.05 5.82 0 9.47-6.16 2.2-6.05z"/><path fill="#91a363" d="M191.07 32.9c-1.03-3.28 4.77-4.23 4.49-.66.11 2.53 1.99.57 3.32.05 1.58 4.75 4.88 8.68 6.55 13.41 3.85 1.85 6.14-4.06 9.93-3.03 3.13 1.28 6.64.21 9.68 1.38-1.52 4.46-7.23 5.14-9.19 9.37-1.32-.85-1.62-2.95-3.21-3.27-12.88-3.39 2.71 3.93-3.65 4.83-2.49-1.13-4.89-2.48-7.53-3.26 2.51-2.88-1.92-4.63-1.45-7.68 2.69-7.19-6.99-6.82-8.94-11.14z"/><path fill="#a89469" d="M205.39 40.47c-3.58-7.88 2.66-3.14 5.29-2.24l.49.77c-1.16 3.27-3.8 5.48-5.78 1.47z"/><path fill="#667339" d="M163.09 43.73c3.37-3.03 7.81-3.77 11.73-5.65-.02 3.83 3.9-1.04 5.99 1.03 3.51-2.41 3.41 2.51 2.56 4.78 2.41-.71 5.76-1.66 5.77 2.03-4.55-1.34-9.54-.03-12.93 3.26-1.26 2.73-1.81 6.07-5.22 6.91-4.74-1.9 4.75-6.07.7-7.81-2.46-1.96-7.86 5.55-6.14.36 1.38-3.52-4.1-.82-5.11.78-3.77 4.78-5.17-3.34-9.05-3.85.78-3.59 8.41-3.75 11.7-1.84z"/><path fill="#485522" opacity=".81" d="M219.68 40.71c4.03-.95 8.68-1.38 12.52.06-4.18.05-8.35.03-12.52-.06z"/><path fill="#ad9b71" d="M196.15 41.13c3.11.28 2.46 6.81-1.12 5.93.1-1.97-.73-4.55 1.12-5.93z"/><path fill="#8b9d55" d="M177.12 50c7.81-1.32 2.21 8.31 5.76 12.17 1.75 5.15.84-5.25 3.96-4.06 1.49 3.82.15 7.62-1.57 11.08-2.91 5.66-1.69 12.34-3.95 18.2-9.25-4.5 3.19-11.49.68-18.57-3.62 3.88-7.35 7.52-11.24 11.19-.1-3.91 5.45-6.39 3.45-10.21-.99-2.39-.59-5.03-.88-7.54-1.84-4.82 2.85-2.53 5.62-2.27-1.41-3.14-1.81-6.57-1.83-9.99z"/><path fill="#aa946a" d="M193.18 52.04c7.27-.11 3.62 6.05-2.2 6.05.49-2.08.82-4.34 2.2-6.05z"/><path fill="#283212" opacity=".69" d="M198.85 57.89c2.29-1.92 5.53-.54 8.32-.74-2.62 1.14-5.55.65-8.32.74z"/><path fill="#6a7e3e" d="M164.12 60.06c3.07.56 5.99 3.47 9.21 2.2.29 2.51-.11 5.15.88 7.54 2 3.82-3.55 6.3-3.45 10.21 3.89-3.67 7.62-7.31 11.24-11.19 2.51 7.08-9.93 14.07-.68 18.57l-.32 3.37c-2.82-.57-6.09 1.05-8.28-1.48-5.45-4.42-4.04 4.97-6.16 7.78-2.83-1.82-2.13-5.98-4.86-7.78-4.39-3.47-9.56 4.58-13.75-.2-1.74-3.44-5.51-3.83-8.93-3.27-.08-2.56-1-5.67 1.73-6.89.96 1.97 1.64 4.32 4.23 4.43 2.47 1.36 5.25 1.55 8.04 1.69-.03-4.94-1.76-9.67-3.28-14.32 3.23-5.93 9.39 2.78 14.33-.56 7.08-1.81-4.08-7.03.05-10.1z"/><path fill="#454f27" d="M146.6 75.24c-5.27.23-.37-7.77 3.14-4.52 1.52 4.65 3.25 9.38 3.28 14.32-2.79-.14-5.57-.33-8.04-1.69.39-2.74.73-5.48 1.62-8.11z"/><path fill="#5e6639" d="M137.16 90.65c4.21 2.03.24 10.49 6.58 10.72-1.27 1.7-2.9 3.29-2.89 5.59 4.48-2.33 10.44-1.54 12.75 3.41 4.88 5.12 12.64 10.27 13.3 18.8 3.89 1.35 3.97-5.6 7.46-3.27-2.66 7.36-10.29 13.9-6.25 22.06 1.97-.68 3.84-1.64 5.87-2.14-1.8 2.85-3.06 7.5 2.11 6.47-1.4 2.65-4.66 3.26-6.31 5.69 3.44-.43 7.36-1.68 8.19 1.79 3.23-5.93 3.92.51.55 4.16-3.37-7.1-4.33 3.1-3.38 6.8 3.71 1.08 7.25 3.66 6.23 8.41 4.76-1.97 2.27-10.1 7.63-12.31-.16 1.46-.42 2.92-.74 4.36-.65 1.9-1.44 3.77-1.7 5.77.14 3.83-5.67 10.96 1.14 10.3-1.13 2.79 1.51 7.25-2.02 8.43-2.82.49.66 4.71-2.77 4.45-2.3.81 1.48 2.74 2.42 3.49l-.64.71c-2.77 1.64-.86 4.66-.96 7.15-4.15.83-5 4.78-5.04 8.65-2.6-1.08-2.99-4.61-5.73-5.27-.66 2.92 1.44 5.07 3.39 6.89 3.49 1.43 4.84-5 8.33-3.5 3.5.77 4.01 4.69 4.4 7.65-5.29-1.25-10.81.53-15.88-1.76-2.49 1.83-2.43 4.93-2.65 7.8l-1.6 3.05c-2.14-2.43-6.85-3.3-4.86-7.88.17-2.28 4.43-2.24 3.8-4.9-3.84-4.56-14.95 5.11-15.38-2.87-1.1-4.93-7.61-4.63-11.43-6.63-.44-3.75 3.84-1.92 5.95-1.78 1.73-5.18-5.81-6.99-4.81-11.64 1.23-3.03 3.56-1.15 5.66-.29.47-5.47 3.77-9.22 8.49-11.73 5.65-4.24 5.92 5.79 10.8 3.07 9.07-.82-3.67-9.84 4.62-12.75-2.57-4.61-4.34-3.12-4.77 1.61l-2.95-2.6c-1.99-2.08-5.57-3.24-5.21-6.67 2.45 1.33 4.26 4.09 7.25 4.16-.45-4.31-5.52-9.93-9.34-5.17-6.12-2.33.6-12.07-7.66-11.34-.8-7.01 5.5-10.73 10.09-14.57-2.02-5.56-5.92-.11-9.14 1.24-3.34-6.26 3.85-6.23 6.88-8.58-2.3-4.9-10.64-6.44-9.8-12.42 2.36-3.07 6.64-2.68 10.06-3.46-6.37 1.6-4.42 13.68 1.96 11.74l1.3-1.37c4.14-3.61 2.68-10.28-3.26-10.37 2.26-4.68-7.39-1.03-10.01-.65-3.19 3.28-5.49 9.65-2.19 13.87 3.14 5.75-6.53 6.12-9.94 3.63 2.7-1.74 7.79-4.1 5.37-8.03-1.04-3.8-5.33-1.95-8.17-2.21 1.91 5.32-1.3 5.85-4.78 5.72-.2-1.47-.63-2.91-1.38-4.19-.55-5.14 1.7-9.73 3.79-14.2 1.65-2.04 3.14-4.23 4.27-6.61.88-3.37.79-6.87.76-10.32.48-2.14 1.39-4.15 2.24-6.16z"/><path fill="#686133" d="M190.42 97.91l2.53 1.3c1.42 1.4 3.51 1.16 5.19.4l4.05 2.25c-6.36-1.12-6.3 5.29-9.2 8.07-3.03-3.23-8.16-5.82-8.08-10.88 1.84-.41 5.22 1.74 5.51-1.14z"/><path fill="#808c49" d="M158.67 109.77c1.33-5.2 6.51-8.88 10.34-3.51 2.93 3.18 6.29 1.33 8.15-1.84 2.31 1.28 6.79 1.18 6.92 4.42-5.29-.94-9.72 3-15.05 2.45-1.37 4.92 3.75 6.11 7.1 7.66-.81 4.17-9.23-.68-4.5 3.5-2.47 1.69-5.44 3.14-4.73 6.72-.66-8.53-8.42-13.68-13.3-18.8.87-3.47 3.68-3.94 5.07-.6z"/><path fill="#909960" d="M198.1 104.89c2.88 2.06 4.82 5.16 6.89 7.99-4.69-.87-2.38 2.82-.1 4.4 1.08 4.93 1.82 9.94 3.02 14.85-4.38-.21-8.4-3.33-8.18-7.97-6.93-1.97-1.05 6.08-.09 9.29.89 4.11 2.39-3.57 4.23-.19.53 2.71-3.55 3.81-2.25 6.9-2.12-.68-3.32-2.7-4.79-4.22-1.65-1.22-1.21-3.24-1.16-5.01-3.79.54-10 3.22-11.82-1.79-.83-3.91-4.76-.95-7.13-.34-.45-4.03 6.24-4.83 3.1-7.71-3.18-.71-2.27 4.69-5.46 4.81-3.49-2.33-3.57 4.62-7.46 3.27-.71-3.58 2.26-5.03 4.73-6.72-4.73-4.18 3.69.67 4.5-3.5 3.46-.34 3.83-4.65 6.93-5.07-.58 2.04-2.77 4.09-1.06 6.16 3.51-2.98 7.21-5.8 11.83-6.76 1.63 3.83 4.57 6.97 8.26 8.88.73-3.56-4.89-4.04-3.53-7.51.91-3.34-2.07-6.51-.46-9.76z"/><path fill="#cdbfa6" d="M204.89 117.28c-2.28-1.58-4.59-5.27.1-4.4 1.08 1.33.09 2.94-.1 4.4z"/><path fill="#555831" d="M147.19 119.15c2.62-.38 12.27-4.03 10.01.65-3.42.78-7.7.39-10.06 3.46-.84 5.98 7.5 7.52 9.8 12.42-3.03 2.35-10.22 2.32-6.88 8.58 3.22-1.35 7.12-6.8 9.14-1.24-4.59 3.84-10.89 7.56-10.09 14.57 8.26-.73 1.54 9.01 7.66 11.34 3.82-4.76 8.89.86 9.34 5.17-2.99-.07-4.8-2.83-7.25-4.16-.36 3.43 3.22 4.59 5.21 6.67-3.57-.29.92 5.91-2.91 4.2-6.7-5.41-15.37-6.42-23.75-6.6.3 5.97-4.91 5.19-8.59 2.78-1.51-3.19.12-6.61.67-9.82l1-2.05.92-2.07c-.64-6.71 1.18-13.59.1-20.19l-1.12-1.87c-.66-1.01-1.34-2.01-2.03-3-.62-1.01-1.23-2.02-1.81-3.05l.93-2.81c3.48.13 6.69-.4 4.78-5.72 2.84.26 7.13-1.59 8.17 2.21 2.42 3.93-2.67 6.29-5.37 8.03 3.41 2.49 13.08 2.12 9.94-3.63-3.3-4.22-1-10.59 2.19-13.87z"/><path fill="#908157" d="M157.2 119.8c5.94.09 7.4 6.76 3.26 10.37-1.01-5.25-6.54.27-1.3 1.37-6.38 1.94-8.33-10.14-1.96-11.74z"/><path fill="#717b3e" d="M174.36 125.9c3.19-.12 2.28-5.52 5.46-4.81 3.14 2.88-3.55 3.68-3.1 7.71 2.37-.61 6.3-3.57 7.13.34 1.82 5.01 8.03 2.33 11.82 1.79-.05 1.77-.49 3.79 1.16 5.01-5.37 5.03-2.28 12.04-1.61 18.35-3.11 2.52-6.85-.22-10.3-.32.11 5.13 6.99 6.84 11.09 4.94-1.84.97-2.13 2.18-.19 3.2 2.17-3.28 5.45-4.67 9.4-4.76 2.75-2.17 3.69-6.15 7.95-5.42 1.73-1.25 3.62-2.38 5.86-2-.22 4.27-3.32 11.37 2.68 12.59-.24 3.14-6.81 4.03-7.15 7.39 1.92 3.9 5.76-1.11 8.69-1.46 2.5.55 6.84-2.95 5.87 1.62.69 2.72 2.58-1.87 3.09-3.04 1.93.56 1.83 3.49 2.62 5.12-5.29 2.95-7 12.98-.1 14.98-1.44 2.4-3.62.45-5.52-.15-.81-4.29-.93-8.7-.32-13.02-4.05-5.67-8.47 15.69-2.08 9.23.36 1.66-.17 4.3 2.4 3.79-1.21 2.84-3.72 3.48-6.22 4.52 2.47 1.84 5.94 2.69 7.46 5.56-1.95 2.58-5.71 1.92-8.54 2.91 1.41-3.23.73-5.82-2.6-7.21 1.14-6.29 2.72-12.52 3.54-18.88-2.68-.27-3.29 2.44-4.54 4.19-3.99-.06-4.02 4.16-4.69 7.05-4.91-1.65 3.22-15.66-3.71-11 2.62 1.95 1.14 4.66-1.74 5.12 1.1-3.69-1.37-7.84.77-11.29-2.76 1.73-14.99 3.99-4.41 4.53 4.11 2.23-5.86 6.13-.19 9.5-.79 1.15-1.76 2.01-3.15 1.26-2.49-5.13-3.54-10.69-4.47-16.26-3.4.79-4.1 6.8-8.46 4.21.32-1.44.58-2.9.74-4.36-5.36 2.21-2.87 10.34-7.63 12.31 1.02-4.75-2.52-7.33-6.23-8.41-.95-3.7.01-13.9 3.38-6.8 3.37-3.65 2.68-10.09-.55-4.16-.83-3.47-4.75-2.22-8.19-1.79 1.65-2.43 4.91-3.04 6.31-5.69-5.17 1.03-3.91-3.62-2.11-6.47-2.03.5-3.9 1.46-5.87 2.14-4.04-8.16 3.59-14.7 6.25-22.06m9.65 33.06c-3.55 9.96 6.25 6.76 8.96 3.93-.18-2.15-3.95.46-5.65.05-.42-1.76-.79-4.6-3.31-3.98z"/><path fill="#d5cbbb" d="M159.16 131.54c-5.24-1.1.29-6.62 1.3-1.37l-1.3 1.37z"/><path fill="#838e4b" d="M206.98 140.88c-3.99 6.36-3.46-8.41.86-4.77 1.8 1.61 5.71-1.46 5.45 2.12-.7 2.97 4.2 1.85 3.12-.56-1.74-4.94 4.4-1.68 6.69-.7 6.98 4.47 11.46 11.73 13.23 19.79 3.25 10.01-8.16 8.36-9.52 1.9-4 .96-9.5-9.56-.75-5.85-.16-3.11-4.75-2.41-7.03-2.88-2.24-.38-4.13.75-5.86 2 1.54-3.53-1.12-7.22-3.95-9.09.08 2.44.16 4.89-.31 7.3-3.63-1.57-.83-6.65-1.93-9.26z"/><path fill="#91935a" d="M197.4 153.47c-2.8-4.22.64-10.56 4.52-4.8-4.01 3.62-1.28 6.69 2.62 3.11 2.06 1.43.67 5.23-1.91 3.64-4.11-.45.35 2.87 2.59 1.93-3.95.09-7.23 1.48-9.4 4.76-1.94-1.02-1.65-2.23.19-3.2-4.1 1.9-10.98.19-11.09-4.94 3.45.1 7.19 2.84 10.3.32 1.3.26 3.77 1.43 2.18-.82z"/><path fill="#c3b298" d="M204.54 151.78c-3.9 3.58-6.63.51-2.62-3.11l2.62 3.11z"/><path fill="#5b612a" d="M219.03 149.93c2.28.47 6.87-.23 7.03 2.88-8.75-3.71-3.25 6.81.75 5.85 1.36 6.46 12.77 8.11 9.52-1.9.78 2.09-.87 6.71 2.42 5.96 3.81.17 7.66.27 11.48.07 1.42.42 2.62 1.33 3.86 2.11-4.48 1.38-9.59 3.16-14.15 1.2-4.28-1.21-1.7 5.78-5.11 6.05-.79-1.63-.69-4.56-2.62-5.12-.51 1.17-2.4 5.76-3.09 3.04.97-4.57-3.37-1.07-5.87-1.62-2.93.35-6.77 5.36-8.69 1.46.34-3.36 6.91-4.25 7.15-7.39-6-1.22-2.9-8.32-2.68-12.59z"/><path fill="#919360" d="M184.01 158.96c2.52-.62 2.89 2.22 3.31 3.98 1.7.41 5.47-2.2 5.65-.05-2.71 2.83-12.51 6.03-8.96-3.93z"/><path fill="#60723f" opacity=".98" d="M297.69 173.11c5.84-3.87 12.32-15.99 19.41-8.53-5.22.24.63 7.98 1.46 2.27.42 1.06.35 2.22-.37 3.15-5.45 2.99-8.03 9.62-13.2 13.22-2.59-2.6-5.44-5.11-7.33-8.29l.03-1.82z"/><path fill="#48592c" opacity=".98" d="M286.72 163.67c4.59-2.47 7.4 4.11 9.55 7.24.15 3.91-2.25 7.04-5.16 9.34-.66-2.86 5.64-9.39 1.21-8.91-3.07 7.22-14.11 8.1-14.15 16.79.46 3.98 3.62 9.41-.96 12.03 1.47-5.68-2.65-10-5.48-14.36l.09-.87c5.82-6.41 10.12-13.98 14.9-21.26z"/><path fill="#71833b" d="M239.94 166.1c4.56 1.96 9.67.18 14.15-1.2.89 3.56 5.92 2.05 6.43 5.52.46 3.92 1.83 7.91.94 11.89l-1.27.8c-2.89-.14-5.48 1.12-8.05 2.25.67-2.42 1.88-4.98 4.81-3.85 1.13-3.45 4.03-7.48 2.05-11.18-3.28 3.02-5.24-2.61-8.8-1.28 1.76 9.1-.62 4.8-2.21 3-1.97-3.63-8.94-3.26-10.42.62-.63 2.11-1.8.29-2.74-.52 3.41-.27.83-7.26 5.11-6.05z"/><path fill="#464f26" opacity=".93" d="M254.09 164.9c5.14-.5 9.28 2.99 12.8 6.31 1.46 4.74-1.49 9.01-5.43 11.1.89-3.98-.48-7.97-.94-11.89-.51-3.47-5.54-1.96-6.43-5.52z"/><path fill="#9c9e6a" opacity=".97" d="M318.56 166.85c-.83 5.71-6.68-2.03-1.46-2.27l1.46 2.27z"/><path fill="#8f995f" d="M188.26 171.19c4.36 2.59 5.06-3.42 8.46-4.21.93 5.57 1.98 11.13 4.47 16.26-.2 3.13-5.12 6.46-1.67 9.09 2.91.82 3.58 5.15.94 6.68-.05-3.86-4.37-4.81-5.01-8.18.08-3.15-.69-7.75 3.26-8.35 2.12-4.35-4.86-.84-6.33-1.83-2.61-2.89-1.22-8.35-5.82-3.69.26-2 1.05-3.87 1.7-5.77z"/><path fill="#919f60" d="M204.53 172.48c-10.58-.54 1.65-2.8 4.41-4.53-2.14 3.45.33 7.6-.77 11.29 2.88-.46 4.36-3.17 1.74-5.12 6.93-4.66-1.2 9.35 3.71 11 .67-2.89.7-7.11 4.69-7.05-.83 3.57-2.85 7.11-.55 10.55-3.76.5-.54 5.95-3.46 5.2 2.17-6.11-3.51-6.3-7.1-7.9l-2.86-3.94c-5.67-3.37 4.3-7.27.19-9.5z"/><path fill="#9fae64" d="M250.2 169.05c3.56-1.33 5.52 4.3 8.8 1.28 1.98 3.7-.92 7.73-2.05 11.18-2.93-1.13-4.14 1.43-4.81 3.85-3.46 3.61-3.08-2.39-6.05-2.11-9.97 3.77-6.68-16.37 1.9-11.2 1.59 1.8 3.97 6.1 2.21-3z"/><path fill="#61733f" d="M318.93 173.29c2.66-1.64 5.7-5.84 9.08-3.72-3.51 3.83-1.94 11.16-7.63 12.87-5.35 1.27-8.48 10.96-1.31 11.94-1.02.98-2.13 1.85-3.21 2.75-4.31 2.31-3.18 10.12-8.87 10.04.7-2.72 4.63-9.6-.9-8.09-5.64.24-5.04 7.9-.31 9.18-2.6 2.19-6.53-.79-7.92-3.25 2.25-4.59 7.29-6.95 9.9-11.27 2.73-3.93 1.38-9.42 5.13-12.83 1.9-2.63 3.85-5.22 6.04-7.62z"/><path fill="#82954e" d="M237.57 172.67c1.48-3.88 8.45-4.25 10.42-.62-8.58-5.17-11.87 14.97-1.9 11.2-2.05 1.78-3.39 6.13-6.75 4.5-1.61-1.35-3.15-3.27-4.61-.62-6.9-2-5.19-12.03.1-14.98.94.81 2.11 2.63 2.74.52z"/><path fill="#4c562e" d="M304.99 183.22c5.17-3.6 7.75-10.23 13.2-13.22l-.41.82c-2.63 3.71-5.82 7.03-8.07 11 1.06-.28 2.12-.59 3.18-.91-3.75 3.41-2.4 8.9-5.13 12.83-2.61 4.32-7.65 6.68-9.9 11.27 1.39 2.46 5.32 5.44 7.92 3.25l1.21-1.09c5.69.08 4.56-7.73 8.87-10.04-.07 1.55.58 2.1 1.93 1.63L330.01 184a23.84 23.84 0 0 1 2.91-1.02c2.1 1.64 4.56 3.27 5.33 5.99-2.66-1.06-4.98-3.49-8.06-2.97-1.9 4.45-3.54 9.16-4.51 13.9-4.05 6.76-16.88 8.38-16.61 17.86 1.73 2.49 6.43 2.24 7.87-.35 1.07-1.4 2.04-2.88 3.18-4.23 1.43-.79 2.67-1.87 3.7-3.14l.38 1.96c5.22-2.53 11.65-6.03 12.61-12.33 1.78-1.23 4.28-2.52 6.32-1.05-7.93.88-5.04 15.75-14.07 14.5-2.6-.11-2.68 3.25-4.03 4.85-2.64 2.2-7.1 3.68-5.59 7.9-7.12 4.73-15.32-2.36-21.62-5.73-2.15-2.32-3.95.94-5.9 1.88-3.03-1.24-2.19-5.54-4.18-7.74-3.13-1.64-5.93-4.71-9.73-4.33-3.24 12.5 10.62 17.89 20.64 16.24-1.34 6.88 6.78 10.91 7.82 2.92 5.32 2.69-2.8 6.99-4.62 9.64-6.4-.29 1.62 5.37-2.78 7.1-1.47-.29-2.93-.66-4.39-1.02-3.62-4.44 2.02-6.77 4.31-9.74-2.64-2.03-6.41.42-9.25-.96-3.15-2.2-5.31-5.72-8.86-7.28.58 3.03 2.68 5.77 1.54 8.97-1.27 2.71 2.19 4.23 2.09 6.76-1.94 4.63-.65 10.32-.52 15.38-1.41-.19-2.78-.53-4.17-.77-7.35-.1-3.68 6.88-1.65 10.72-1.49-.58-2.95-1.22-4.41-1.87-1.13-1.05-7.04-4.62-3.19-3.53 3.78 1.78.97-3.16 1.22-5.14 6.64.09-.79-6.76-.5-10.53-.21-5.54-5.75-1.82-7.02 1.23-.77-3.9-.68-8.7-5.07-10.33.4-1.81-.43-4.04 1-5.47 3.01-.11 6.69 1.64 8.62-1.48 2.91-1.95-.04-6.17 2.89-7.85 1.06 2.29 1.89 4.67 2.68 7.07 1.24-1.72 2.31-3.62 4.28-4.59-.62-4.19-9.1-6.94-5.51-12.16 1.22-5.72 6.47-7.47 11.83-5.24-1.33-2.59-4.17-4.71-3.97-7.83 1.84-.67 3.76-1.01 5.67-1.41-2.28-4.32-1.57-11.85 2.45-14.77-.35 1.09-.68 2.19-.98 3.3 4.94-2.23 5.86-8.62 9.5-12.38 1.89 3.18 4.74 5.69 7.33 8.29m1.31 3.02c-5.41 2.78 2.59 3.46 0 0m-17.02 1.91c-2.21 2.99-4.07 11.91 1.36 10.53 1.6-2.95 6.17-1.86 7.32-4.56-4.08-.48-4.53-5.93-8.68-5.97z"/><path fill="#839152" opacity=".98" d="M320.38 182.44c5.69-1.71 4.12-9.04 7.63-12.87 1.83 1.41 3.25 3.27 4.4 5.26-.58 1.39-.64 2.81-.19 4.26l-3.55 3.78c-3.52 3.56-6.04 7.99-9.6 11.51-7.17-.98-4.04-10.67 1.31-11.94z"/><path fill="#37431e" d="M292.32 171.34c4.43-.48-1.87 6.05-1.21 8.91l-1.97 3.76c-4.02 2.92-4.73 10.45-2.45 14.77-1.91.4-3.83.74-5.67 1.41-.2 3.12 2.64 5.24 3.97 7.83-5.36-2.23-10.61-.48-11.83 5.24-3.59 5.22 4.89 7.97 5.51 12.16-1.97.97-3.04 2.87-4.28 4.59-.79-2.4-1.62-4.78-2.68-7.07-2.93 1.68.02 5.9-2.89 7.85-1.93 3.12-5.61 1.37-8.62 1.48-1.43 1.43-.6 3.66-1 5.47-5.29.05-8.38 7.54-3.9 10.99 1.37 1.28 1.64 2.85.55 4.42-2.78 2.02 1.14 12.48-4.31 10.44-3.01-.99-13.81-.7-10.54-6.57 4.23-2.08.92-5.77-1.9-7.24l-.37-.81c3.18-1.73 9.51 5.13 5.82-3.77.37-5.67.63-15.1-8.6-12.19-.64 2.7 2.18 2.94 3.39 4.64l-8.46-.44-.98-.92c7.98-.26 4.93-14.47 14.32-10.6 4.75.41 7.93 5.04 12.28 6.04 2.88-7.3 9.73-12.03 13.31-18.86 3.45-8.75 1.02-18.04 1.92-27.07 2.83 4.36 6.95 8.68 5.48 14.36 4.58-2.62 1.42-8.05.96-12.03.04-8.69 11.08-9.57 14.15-16.79z"/><path fill="#84995b" d="M226.81 183.19c-6.39 6.46-1.97-14.9 2.08-9.23-.61 4.32-.49 8.73.32 13.02-2.57.51-2.04-2.13-2.4-3.79z"/><path fill="#434822" d="M137.41 174.21c8.38.18 17.05 1.19 23.75 6.6 3.83 1.71-.66-4.49 2.91-4.2 1 .84 1.97 1.73 2.95 2.6-1.21 7.28-8.75 8.71-11.17 1.86-5.31-5.08-4.78 3.14-.03 4.45-2.37 1.35-4.35 3.57-6.86 4.47-3.74-.79-7.03-2.94-10.53-4.41-3.74-2.29-9.03-3.37-9.61-8.59 3.68 2.41 8.89 3.19 8.59-2.78z"/><path fill="#52522b" d="M167.02 179.21c.43-4.73 2.2-6.22 4.77-1.61-8.29 2.91 4.45 11.93-4.62 12.75-4.88 2.72-5.15-7.31-10.8-3.07-4.72 2.51-8.02 6.26-8.49 11.73-2.1-.86-4.43-2.74-5.66.29-1 4.65 6.54 6.46 4.81 11.64-2.11-.14-6.39-1.97-5.95 1.78 3.82 2 10.33 1.7 11.43 6.63.43 7.98 11.54-1.69 15.38 2.87.63 2.66-3.63 2.62-3.8 4.9-1.99 4.58 2.72 5.45 4.86 7.88.59 4.21 4.59 5.76 6.93 8.76 2.5 4.43 10.61 5.08 8.39 11.06-.52 1.82-.81 5.86-3.02 2.93-6.54-3.67-8.82-14.15-17.2-13.78 1.78 5.23-3.69 11.25 3.01 14.15-5.17 4.65 4.16 7.91 6.8 3.81.63-3.27 5.99-3.72 6.68-.36.82 3.04 3.87-.04 5.56-.64.24 2.21-.91 3.99-2.15 5.68 5.57.33 13.58-4.25 14.7 4.44 3.16 2.37 7.68 1.66 11.51 2.2-1.63 1.56-3.8 2.33-5.89 3.07l-8.47-.11c-7.59-4.14-16.65-3.77-24.54-7.31-5.22-4.42-13.95-4.18-16.29-11.92l-1-2.93-.26-.78c-1.79-5.49 4-12.46-1.06-16.95-3.23-3.45-7.25-6.59-8.31-11.47l-.84-3.11c-.44-1.73-.73-3.61-2.16-4.83-9.23-7.81-12.7-22.57-2.91-31.33 3.5 1.47 6.79 3.62 10.53 4.41 2.51-.9 4.49-3.12 6.86-4.47-4.75-1.31-5.28-9.53.03-4.45 2.42 6.85 9.96 5.42 11.17-1.86z"/><path fill="#7f8749" d="M218.31 178.07c1.25-1.75 1.86-4.46 4.54-4.19-.82 6.36-2.4 12.59-3.54 18.88 3.33 1.39 4.01 3.98 2.6 7.21-4.03-3.58-9.98-.08-7.88 4.7 3.3-2.41 6.64-1.46 4.93 4.37-.74 3.82 3.09 4.68 5.92 5.17-3.01 2.87 1.55 6.32-.82 9.41-2.23-.58-4.52-1-6.59-2.03-2.76 1.95-3.6 4.96-2.14 8.03-5.8-.81-12.43 3.4-13.19 9.4.92 3.23 3.69 6.64 7.41 6.11-1.21-4.69.81-9.11 4.64-11.89 5.29 2.16 6.23-8.6 10.13-3.54 2.54 2.61.39 6.83 1.66 10.1 1.39-1.62 3.22-1.96 5.14-1.01 1.79 4.06 6.21 5.87 7.61 10.18l.37.81c.58 2.15 1.34 4.69-1.23 5.8-4.36-.54-8.57-1.93-12.98-2.16 2.69-3.47-1.65-6.79.13-10.55 2.16-3.26-4.12-6.95-5.56-3.47-1.54 2.8-5.88 10.57-.42 5.39 5.09-.33-.74 9.7 5.06 8.58-1.6 2.72-4.86 4.7-7.72 5.32-2.81-3.66-7.15-10.93-12.1-6.4-3.15 2.99-1.33 10.75-8.26 7.76 1.82-3.72 2.55-8.23-1.46-10.82-3.26 1.11.06 3.71 1.47 4.94-.81 2.05-1.12 5.99-3.92 5.81-2.43-2-4.95-3.89-7.84-5.16 2.22-5.98-5.89-6.63-8.39-11.06.83-2.73 3.2-4.66 3.68-7.56 8.22-3.68 5.51 6.92 5.61 10.81-.73 3.36 4.35 3.44 5.95 1.27 2.45-1.54-3.15-.96-2.56-3.48 1.33-4.93-2.01-8.49-3.74-12.63 2.76.2 5.48.57 8.25.85-2.93-3.2-7.03-5.81-10.87-2.82-1.41 4.99-8.39 4.54-11.65 1.75.22-2.87.16-5.97 2.65-7.8 5.07 2.29 10.59.51 15.88 1.76-.39-2.96-.9-6.88-4.4-7.65-3.49-1.5-4.84 4.93-8.33 3.5-1.95-1.82-4.05-3.97-3.39-6.89 2.74.66 3.13 4.19 5.73 5.27.04-3.87.89-7.82 5.04-8.65.1-2.49-1.81-5.51.96-7.15-2.37 5.68 7.43 1.45.64-.71-.94-.75-4.72-2.68-2.42-3.49 3.43.26-.05-3.96 2.77-4.45 3.53-1.18.89-5.64 2.02-8.43-6.81.66-1-6.47-1.14-10.3 4.6-4.66 3.21.8 5.82 3.69 1.47.99 8.45-2.52 6.33 1.83-3.95.6-3.18 5.2-3.26 8.35.64 3.37 4.96 4.32 5.01 8.18 2.64-1.53 1.97-5.86-.94-6.68-3.45-2.63 1.47-5.96 1.67-9.09 1.39.75 2.36-.11 3.15-1.26.99 1.29 1.92 2.62 2.86 3.94-6.21-3.25-6.76 3.94-3.85 7.81 3.24.27 2.45-5.48 3.85-7.81 3.59 1.6 9.27 1.79 7.1 7.9 2.92.75-.3-4.7 3.46-5.2-2.3-3.44-.28-6.98.55-10.55m-25.23 23.12c-1.64 1.79-1.79 4.32-1.96 6.61 1.15-2.79 9.15 2.85 3.94 2.3-4.56-.12-7.73 2.9-9.13 7 3.93-1.07 7.47-4.91 11.78-3.29-.34-6.24 6.36-4.93 9.38-1.79-.45-5.92-8.06-9.3-14.01-10.83m-19.01 26.63c-.11 1.75-.13 3.5-.02 5.26 4.23.31 2.42-4.01.02-5.26m42.16 8.32c-4.34 6.6 7.78-1.15 0 0m-21.1 3.27c-1.93 1.91 3.4 14.51 4.99 6.61 2.36-5.44-3.55-3.95-4.99-6.61z"/><path fill="#5d6b29" opacity=".98" d="M246.09 183.25c2.97-.28 2.59 5.72 6.05 2.11 2.57-1.13 5.16-2.39 8.05-2.25-4.13 2.71-8.44 5.19-13.02 7.06-3.1.23-6.56-1.04-9.37.63-.75.67-.95 1.63-.6 2.88l-.41 5.57c-.98-4.97-5.3-13.18-6.34-2.19-1.52-2.87-4.99-3.72-7.46-5.56 2.5-1.04 5.01-1.68 6.22-4.52 1.9.6 4.08 2.55 5.52.15 1.46-2.65 3-.73 4.61.62 3.36 1.63 4.7-2.72 6.75-4.5z"/><path fill="#76854c" d="M332.92 182.98c11.34.76 8.61 13.84.11 17.16-2.18 2.14-4.12 4.5-6.18 6.74-1.07 1-2.09 2.04-3.03 3.16-1.03 1.27-2.27 2.35-3.7 3.14 2.41-4.28-3.87-2.6-6.04-1.94-.61 2.47.43 5.16 2.86 6.17-1.44 2.59-6.14 2.84-7.87.35-.27-9.48 12.56-11.1 16.61-17.86.97-4.74 2.61-9.45 4.51-13.9 3.08-.52 5.4 1.91 8.06 2.97-.77-2.72-3.23-4.35-5.33-5.99z"/><path fill="#9ca462" d="M203.35 193.73c-2.91-3.87-2.36-11.06 3.85-7.81-1.4 2.33-.61 8.08-3.85 7.81z"/><path fill="#797a40" d="M289.28 188.15c4.15.04 4.6 5.49 8.68 5.97-1.15 2.7-5.72 1.61-7.32 4.56-5.43 1.38-3.57-7.54-1.36-10.53z"/><path fill="#2d3613" opacity=".75" d="M237.8 190.8c2.81-1.67 6.27-.4 9.37-.63-2.91 1.43-6.27.56-9.37.63z"/><path fill="#485123" d="M230.45 197.06c1.04-10.99 5.36-2.78 6.34 2.19l.39 11.94c-1.33 7.69-6.95 13.28-10.01 20.15-1.41-4.35-.12-8.35 2.02-12.13-5.17 1.97-2.38-2.8-1.48-5.82-3.59-1.46-3.97-6.64-7.72-7.89 1.46-1.68 3.42-3.12 1.92-5.53 2.83-.99 6.59-.33 8.54-2.91z"/><path fill="#63672d" d="M214.03 204.67c-2.1-4.78 3.85-8.28 7.88-4.7 1.5 2.41-.46 3.85-1.92 5.53 3.75 1.25 4.13 6.43 7.72 7.89-.9 3.02-3.69 7.79 1.48 5.82-2.14 3.78-3.43 7.78-2.02 12.13l.13.94c.3 1.62 1.35 2.96 2.6 4.01l.98.92.24 1.58c-1.92-.95-3.75-.61-5.14 1.01-1.27-3.27.88-7.49-1.66-10.1-3.9-5.06-4.84 5.7-10.13 3.54.76-1.09 1.99-2.2 1.14-3.62-1.46-3.07-.62-6.08 2.14-8.03 2.07 1.03 4.36 1.45 6.59 2.03 2.37-3.09-2.19-6.54.82-9.41-2.83-.49-6.66-1.35-5.92-5.17 1.71-5.83-1.63-6.78-4.93-4.37z"/><path fill="#9c9b5f" d="M305.78 208.26c-4.73-1.28-5.33-8.94.31-9.18 5.53-1.51 1.6 5.37.9 8.09l-1.21 1.09z"/><path fill="#869151" opacity=".98" d="M329.06 213.12c9.03 1.25 6.14-13.62 14.07-14.5 8.46 4.69-.17 12.8-4.98 16.35-3.15 1.32-6.37 2.93-7.92 6.16-1.93 1.26-3.76 3.02-6.22 2.97.17-2.07.62-4.09 1.02-6.13 1.35-1.6 1.43-4.96 4.03-4.85z"/><path fill="#2d3e17" opacity=".95" d="M333.7 202.15c.97-.9 1.98-1.77 3.11-2.48-.96 6.3-7.39 9.8-12.61 12.33l-.38-1.96c.94-1.12 1.96-2.16 3.03-3.16a20.57 20.57 0 0 0 6.85-4.73z"/><path fill="#9ba863" d="M193.08 201.19c5.95 1.53 13.56 4.91 14.01 10.83-3.02-3.14-9.72-4.45-9.38 1.79-4.31-1.62-7.85 2.22-11.78 3.29 1.4-4.1 4.57-7.12 9.13-7 5.21.55-2.79-5.09-3.94-2.3.17-2.29.32-4.82 1.96-6.61z"/><path fill="#b3b28d" d="M185.33 203.63c6.79 2.16-3.01 6.39-.64.71l.64-.71z"/><path fill="#6d6e3b" opacity=".98" d="M278.01 209.95c3.8-.38 6.6 2.69 9.73 4.33 1.99 2.2 1.15 6.5 4.18 7.74 1.95-.94 3.75-4.2 5.9-1.88 6.3 3.37 14.5 10.46 21.62 5.73-1.51-4.22 2.95-5.7 5.59-7.9-.4 2.04-.85 4.06-1.02 6.13 2.46.05 4.29-1.71 6.22-2.97-2.92 5.67-10.69 6.42-14.75 11.28-8.21 3.25-10.74 11.84-16.19 17.87-.07-1.52 2.62-4.51-.22-4.43 4.4-1.73-3.62-7.39 2.78-7.1 1.82-2.65 9.94-6.95 4.62-9.64-1.04 7.99-9.16 3.96-7.82-2.92-10.02 1.65-23.88-3.74-20.64-16.24z"/><path fill="#9fa26d" d="M314.08 211.24c2.17-.66 8.45-2.34 6.04 1.94-1.14 1.35-2.11 2.83-3.18 4.23-2.43-1.01-3.47-3.7-2.86-6.17z"/><path fill="#1c240b" opacity=".92" d="M227.3 232.28c5.25-3.47 9.56-10.37 16.92-6.59-9.39-3.87-6.34 10.34-14.32 10.6-1.25-1.05-2.3-2.39-2.6-4.01z"/><path fill="#606b3a" d="M280.88 226.85c3.55 1.56 5.71 5.08 8.86 7.28 2.84 1.38 6.61-1.07 9.25.96-2.29 2.97-7.93 5.3-4.31 9.74.77 2.89-1.45 4.56-2.99 1.5-2.39-4.07-6.2-6.99-9.27-10.51 1.14-3.2-.96-5.94-1.54-8.97z"/><path fill="#c3b192" d="M174.07 227.82c2.4 1.25 4.21 5.57-.02 5.26-.11-1.76-.09-3.51.02-5.26z"/><path fill="#726d2e" d="M182.2 230.2c3.84-2.99 7.94-.38 10.87 2.82-2.77-.28-5.49-.65-8.25-.85 1.73 4.14 5.07 7.7 3.74 12.63-.59 2.52 5.01 1.94 2.56 3.48-1.6 2.17-6.68 2.09-5.95-1.27-.1-3.89 2.61-14.49-5.61-10.81-.48 2.9-2.85 4.83-3.68 7.56-2.34-3-6.34-4.55-6.93-8.76l1.6-3.05c3.26 2.79 10.24 3.24 11.65-1.75z"/><path fill="#514e25" d="M202.14 239.02c.76-6 7.39-10.21 13.19-9.4.85 1.42-.38 2.53-1.14 3.62-3.83 2.78-5.85 7.2-4.64 11.89-3.72.53-6.49-2.88-7.41-6.11z"/><path fill="#43552b" d="M235.95 233.01c9.23-2.91 8.97 6.52 8.6 12.19 3.69 8.9-2.64 2.04-5.82 3.77-1.4-4.31-5.82-6.12-7.61-10.18l-.24-1.58 8.46.44c-1.21-1.7-4.03-1.94-3.39-4.64z"/><path fill="#c0b08e" d="M216.23 236.14c7.78-1.15-4.34 6.6 0 0z"/><path fill="#878c4b" d="M282.42 235.82c3.07 3.52 6.88 6.44 9.27 10.51 1.54 3.06 3.76 1.39 2.99-1.5 1.46.36 2.92.73 4.39 1.02 2.84-.08.15 2.91.22 4.43-.38 1.29-.7 2.61-1.13 3.9-5.08 2.02-4.07-1.59-3.16-5.21-1.66.14-3.3.46-4.94.72.37-3.49-2.44-4.32-5.15-2.89-.24-1.4-.32-2.81-.4-4.22.1-2.53-3.36-4.05-2.09-6.76z"/><path fill="#96a660" d="M219.46 239.4c1.44-3.48 7.72.21 5.56 3.47-1.78 3.76 2.56 7.08-.13 10.55l-.79-.05c-5.8 1.12.03-8.91-5.06-8.58-5.46 5.18-1.12-2.59.42-5.39z"/><path fill="#62683c" d="M255.3 248.73c-4.48-3.45-1.39-10.94 3.9-10.99 4.39 1.63 4.3 6.43 5.07 10.33 1.27-3.05 6.81-6.77 7.02-1.23-.29 3.77 7.14 10.62.5 10.53.19-2.45-.91-4.05-3.47-4.1-1.72 4.97-4.69 10.7-10.19 11.93 1.68-4.13 3.32-10.44-2.28-12.05 1.09-1.57.82-3.14-.55-4.42z"/><path fill="#596237" d="M195.13 239.41c1.44 2.66 7.35 1.17 4.99 6.61-1.59 7.9-6.92-4.7-4.99-6.61z"/><path fill="#796e33" d="M283.99 257.96c-.13-5.06-1.42-10.75.52-15.38.08 1.41.16 2.82.4 4.22.86 2.13 2.7 3.95 5.15 2.89 1.64-.26 3.28-.58 4.94-.72-.91 3.62-1.92 7.23 3.16 5.21-.53 1.7-1.1 3.39-1.73 5.06-.19-7.44-8.35.01-12.44-1.28z"/><path fill="#6c7234" d="M164.05 243.97c8.38-.37 10.66 10.11 17.2 13.78 2.21 2.93 2.5-1.11 3.02-2.93 2.89 1.27 5.41 3.16 7.84 5.16 2.8.18 3.11-3.76 3.92-5.81-1.41-1.23-4.73-3.83-1.47-4.94 4.01 2.59 3.28 7.1 1.46 10.82 6.93 2.99 5.11-4.77 8.26-7.76 4.95-4.53 9.29 2.74 12.1 6.4 2.86-.62 6.12-2.6 7.72-5.32l.79.05c4.41.23 8.62 1.62 12.98 2.16 2.57-1.11 1.81-3.65 1.23-5.8 2.82 1.47 6.13 5.16 1.9 7.24-5.86-1.01-7.97 5.93-12.56 7.98-.01-2.77-2.02-3.35-4.42-3.13 1.06 1.63 2.41 3.1 3.1 4.95-2.61.53-5.35 1.02-7.9-.04-.31-2.95-1.19-5.72-4.41-6.55-3.27-1.51-1.47 3.12-.68 4.63-4.18 5.19-2.45-4.23-7.11-2.55-5.5-1.74-5.73 5.51-8.37 8.74-1.12-8.69-9.13-4.11-14.7-4.44 1.24-1.69 2.39-3.47 2.15-5.68-1.69.6-4.74 3.68-5.56.64-.69-3.36-6.05-2.91-6.68.36-2.64 4.1-11.97.84-6.8-3.81-6.7-2.9-1.23-8.92-3.01-14.15z"/><path fill="#cabca3" d="M284.91 246.8c2.71-1.43 5.52-.6 5.15 2.89-2.45 1.06-4.29-.76-5.15-2.89z"/><path fill="#4e5d2b" d="M251.54 263.59c5.45 2.04 1.53-8.42 4.31-10.44 5.6 1.61 3.96 7.92 2.28 12.05-1.07 3.66.21 6.02 3.95 3.98.75 4.75 2.52 9.38 6.03 12.76l-12.38.31-6.86-1c1.86-.21 4.04-.08 5.21-1.84-4.21-.28-10.04-6.1-13.14-1.59 1.99 1.23 4.13 2.18 6.23 3.19-7.55.18-14.89-1.65-22-4.05-3.72-2.7-7.38-6.17-12.26-6.26.85-1.85 2.86-3.83 1.22-5.84-.79-1.51-2.59-6.14.68-4.63 3.22.83 4.1 3.6 4.41 6.55 2.55 1.06 5.29.57 7.9.04-.69-1.85-2.04-3.32-3.1-4.95 2.4-.22 4.41.36 4.42 3.13 4.59-2.05 6.7-8.99 12.56-7.98-3.27 5.87 7.53 5.58 10.54 6.57z"/><path fill="#7d894b" d="M268.32 253.27c2.56.05 3.66 1.65 3.47 4.1-.25 1.98 2.56 6.92-1.22 5.14-3.85-1.09 2.06 2.48 3.19 3.53-.23 4.71-.39 11.17-7.66 8.97 2.04-2.98-1.25-10.85-4.02-5.83-3.74 2.04-5.02-.32-3.95-3.98 5.5-1.23 8.47-6.96 10.19-11.93m1.9 16.97c-1.2.54-1.75 2.23-1.01 3.35 1.92.67 3.86-3.51 1.01-3.35z"/><path fill="#818b49" d="M283.99 257.96c4.09 1.29 12.25-6.16 12.44 1.28-1.96 4.76-6.03 8.5-6.36 13.99 1.42-5.9-5.46-1.09 0 0l-.28.9c-2.83-3.24-9.84-.7-9.96-4.94 2.15 1.84 4.02 1.23 5.2-1.28-1.5-3.55-8.36-6.71-5.21-10.72 1.39.24 2.76.58 4.17.77z"/><path fill="#63642d" d="M278.17 267.91c-2.03-3.84-5.7-10.82 1.65-10.72-3.15 4.01 3.71 7.17 5.21 10.72-1.18 2.51-3.05 3.12-5.2 1.28.12 4.24 7.13 1.7 9.96 4.94-4.2 4.59-11.36 6.95-17.51 8.31l-4.17-.5c-3.51-3.38-5.28-8.01-6.03-12.76 2.77-5.02 6.06 2.85 4.02 5.83 7.27 2.2 7.43-4.26 7.66-8.97 1.46.65 2.92 1.29 4.41 1.87z"/><path fill="#968253" d="M198.65 271.05c2.64-3.23 2.87-10.48 8.37-8.74 4.66-1.68 2.93 7.74 7.11 2.55 1.64 2.01-.37 3.99-1.22 5.84-.91.86-1.8 1.74-2.75 2.55-3.83-.54-8.35.17-11.51-2.2z"/><path fill="#beae90" d="M270.22 270.24c2.85-.16.91 4.02-1.01 3.35-.74-1.12-.19-2.81 1.01-3.35z"/><path fill="#c7baa5" d="M290.07 273.23c1.42-5.9-5.46-1.09 0 0z"/><path fill="#6d7d39" d="M240.94 277.82c3.1-4.51 8.93 1.31 13.14 1.59-1.17 1.76-3.35 1.63-5.21 1.84l-1.7-.24c-2.1-1.01-4.24-1.96-6.23-3.19z"/></svg>