<svg xmlns="http://www.w3.org/2000/svg" width="512" height="512" viewBox="0 0 384 384" xmlns:v="https://vecta.io/nano"><path fill="#586034" d="M182.53 24.55c4.71 4.03 6.06-8.04 11.62-2.76 2.02 3.12 4.54 3.15 6.67.11 1.65 1.91 3.62 3.87 3.34 6.63-4.15-.8-9.74 1.47-9.56 6.36-2.48 1.3-5.42-3.52-6.65-.05-1.24 4.24-7.33 3.42-8.21 7.88-5.19-2.22-11.04 1.85-8.46 7.92-.7 4.01 8.6-4.84 7.71.33.14 4.14-6.4 8.71-2.29 12.02.97.88 2.19 1.67 2.24 3.14-2.86-1.33-11.91-7.14-9.16.07 5.07 7.9-6.22 7.71-10.61 4.62-1.61-1.37-3.17-.45-4.43.86-2.48-1.17-7.12.94-5.42 4.03 2.08 2.74 1.08 6.12.65 9.3-3.86.57-5.36-7.56-6.7-.83-.22-2.83-.19-5.7-1.06-8.42-1.13-3.98-2.38-8.56.74-11.91 11.75-1.88 6.89-17.03 15.85-21.03 2.77-.17 5.97 1.05 8.32-.76l1.24-.85c3.05-2.19 6.55-4.61 8.14-7.95-1.41-3.42 1.17-11.41 6.03-8.71z"/><path fill="#6e7739" d="M200.82 21.9c6.18-3.32 11.25 8.65 18.65 3.43-3.05 1.93-7.96.61-5.66 5.38-4.33-1.43-8.56 5.95-12.4 1.91-3.76-5.76-7.81 6.77-1.51 6.02a30.68 30.68 0 0 1 3.34 1.16c-1.97 2.44-4.25 5.36-2.27 8.52l-.09 1.71c-.6 4.4-7.42 7.68-3.56 12.63 1.31 3.68 3.84.85 5.87-.56l-.48 2.62c-3.28 6.96-11.59 10.5-13.13 18.3l-.78.08c-2.22-7.31 7.5-12.56 4.04-19.92 5.57 5.4 2.16-5.74-2.58-3.13 1.1 12.96-7.23-2.82-.76-3.64 4.01-1.78-3.63-.74-3.04-4.11-5.87-2.22-4.99 6.94-2.8 9.86-2.44 1.42-6.58-3.38-6.96.83-4.11-3.31 2.43-7.88 2.29-12.02.89-5.17-8.41 3.68-7.71-.33-2.58-6.07 3.27-10.14 8.46-7.92.88-4.46 6.97-3.64 8.21-7.88 1.23-3.47 4.17 1.35 6.65.05-.18-4.89 5.41-7.16 9.56-6.36.28-2.76-1.69-4.72-3.34-6.63z"/><path fill="#87944a" d="M219.47 25.33c3.56-.6 10.25.97 7.35 6.33-2.52 2.97-5.88 5.07-8.84 7.57-2.88-3.63-11.8-8.25-11.15-.17-1.44-3.78-4.39-2.08-6.93-.42-6.3.75-2.25-11.78 1.51-6.02 3.84 4.04 8.07-3.34 12.4-1.91-2.3-4.77 2.61-3.45 5.66-5.38z"/><path fill="#7c783a" d="M206.83 39.06c-.65-8.08 8.27-3.46 11.15.17l.31 2.68c-2.33-.3-4.24-1.67-6.22-2.8-3.81 4.74 5.12 8.88 6.22 2.8.93 1.04 1.83 2.12 2.71 3.23-2.82 1.1-5.41 4.26-8.59 3.61-1.92-3.19-3.41-6.65-5.58-9.69z"/><path fill="#90a363" d="M199.9 38.64c2.54-1.66 5.49-3.36 6.93.42 2.17 3.04 3.66 6.5 5.58 9.69 3.18.65 5.77-2.51 8.59-3.61 2.68 3.02 7.01 1.24 9.94 3.08 1.32 5.27-8.17 3.2-7.94 8.12-2.1-1.17-4.03-4.03-6.71-3.12-4.33 1.51 9.17 7.57-2.55 4.36-.96-2.96-4.34-2.37-6.77-2.75 2.16-1.79 1.32-3.55-.48-5.2.78-3.68.21-7.7-3.25-9.83a30.68 30.68 0 0 0-3.34-1.16z"/><path fill="#ae9b76" d="M212.07 39.11c1.98 1.13 3.89 2.5 6.22 2.8-1.1 6.08-10.03 1.94-6.22-2.8z"/><path fill="#8d7f3e" d="M203.24 39.8c3.46 2.13 4.03 6.15 3.25 9.83 1.8 1.65 2.64 3.41.48 5.2-1.43 1.83-2.12 4.08-2.91 6.23-.21.26-.65.78-.87 1.04-2.03 1.41-4.56 4.24-5.87.56-3.86-4.95 2.96-8.23 3.56-12.63 5.99-.31 1.95-9.09.09-1.71-1.98-3.16.3-6.08 2.27-8.52m-4.13 16.28c-5.16 6.59 7.92 1.71 0 0z"/><path fill="#2b2414" opacity=".6" d="M158.8 42.82c2.51-1.42 5.53-.59 8.32-.76-2.35 1.81-5.55.59-8.32.76z"/><path fill="#3d4a1e" opacity=".76" d="M226.72 44.73c3.82-.61 7.7-1.18 11.52-.01-3.85.14-7.68.3-11.52.01z"/><path fill="#b5a681" d="M200.97 48.32c1.86-7.38 5.9 1.4-.09 1.71l.09-1.71z"/><path fill="#78863e" opacity=".96" d="M221 45.14l5.72-.41c3.84.29 7.67.13 11.52-.01 2.1.15 2.56 2.6 2.84 4.28-2.83 6.32-12.31 5.42-18.08 7.34-.23-4.92 9.26-2.85 7.94-8.12-2.93-1.84-7.26-.06-9.94-3.08z"/><path fill="#879850" d="M183.66 62.16c-2.19-2.92-3.07-12.08 2.8-9.86-.59 3.37 7.05 2.33 3.04 4.11-6.47.82 1.86 16.6.76 3.64 4.74-2.61 8.15 8.53 2.58 3.13 3.46 7.36-6.26 12.61-4.04 19.92-.25 1.41-.02 2.89.96 3.98.47 3.35 1.1 6.67 1.21 10.06-5.91-1.1-3.84-8-8.45-10.76-1.04-4.32 6.59-8.83 3.46-13.41-4.19 2.47-6.83 7-11.13 9.16 3.63-4.9 4.66-10.06 4.09-16-.05-1.47-1.27-2.26-2.24-3.14.38-4.21 4.52.59 6.96-.83z"/><path fill="#5a6c2e" opacity=".96" d="M216.29 53.22c2.68-.91 4.61 1.95 6.71 3.12-5.86 3.02-12.15 5.8-18.94 4.72.79-2.15 1.48-4.4 2.91-6.23 2.43.38 5.81-.21 6.77 2.75 11.72 3.21-1.78-2.85 2.55-4.36z"/><path fill="#bfad8f" d="M199.11 56.08c7.92 1.71-5.16 6.59 0 0z"/><path fill="#6c7d3c" d="M169.78 66.2c-2.75-7.21 6.3-1.4 9.16-.07.57 5.94-.46 11.1-4.09 16 4.3-2.16 6.94-6.69 11.13-9.16 3.13 4.58-4.5 9.09-3.46 13.41 4.61 2.76 2.54 9.66 8.45 10.76l3.39 3.86c-.2 3.04-3.58.81-5.45 1.08-.18 5.63 6.34 6.48 7.94 11.28.38 4.79-7.82-3.81-6.55 1.49.81 2.48-1.92 3.73-2.95 5.61-.83 1.43-1.72 2.89-3.38 1.48 1.8-4.71-.01-6.21-3.08-1.97 2.15-4.73-.04-5.62-4.37-3.8 2.53 5.19-9.44 4.29-4.43-1.92 5.07-.55 9.81-3.11 14.92-2.42-2.24-10.78-14.67 4.33-18.31-5.71 3.37.36 3.43-3.93 7.02-2.65 8.95 2.21 3.27-6.42 8.47-9.26 2.68-4.72-9.5 4.56-7.65-2.25-3-6.21-5.6 6.11-5.79 8.15-4.05-.31-2.53-5.36-3.9-7.96-3.94-3.56-9.26.44-13.67-.09-2.23-3.4-5.82-6.12-10.03-6.19l.12-1.69c1.34-6.73 2.84 1.4 6.7.83 2.14 1.3 4.13 2.99 7.07 2.03.51-5.28-1.27-10.28-2.3-15.36 1.26-1.31 2.82-2.23 4.43-.86 4.39 3.09 15.68 3.28 10.61-4.62z"/><path fill="#454f27" d="M149.32 75.71c-1.7-3.09 2.94-5.2 5.42-4.03 1.03 5.08 2.81 10.08 2.3 15.36-2.94.96-4.93-.73-7.07-2.03.43-3.18 1.43-6.56-.65-9.3z"/><path fill="#595f34" d="M143.15 85.87c4.21.07 7.8 2.79 10.03 6.19 4.41.53 9.73-3.47 13.67.09 1.37 2.6-.15 7.65 3.9 7.96.19-2.04 2.79-14.36 5.79-8.15-1.85 6.81 10.33-2.47 7.65 2.25-5.2 2.84.48 11.47-8.47 9.26-3.59-1.28-3.65 3.01-7.02 2.65-4.13-1.21-5.43 6.22-9.1 3.49-1.97-1.62-1.57 1.08-1.87 2.37-3.31 1.7-4.22.42-3.16-2.95-5.2-3.01-9.81.27-10.1 5.58-6.47 2.16-5.96 6.13-.86 8.86-1.18 9.75 4.24.81 3.03-2.3 4.86-.85 9.56-2.43 14.46-3.13 1.38 6.98-11.66 1.99-9.97 8.75 2.51 2.45 3.98 9.23 7.95 7.6l2.2-.88.92-.34c2.54-.71 5.15-1.03 7.78-1.22 2.99.59 2.97-4.49 5.9-3.63-.67 3.1-1.73 6.31-5.21 7.08.77 4.89-4.03 8.34-2.42 13.51 1.29 5.03-8.69 1.6-3.31 5.19 5.32 8.75-4.85 3-8.69 3.07-3.34 2.07 1.6 4.13 2.93 5.77-1.07 2.23-6.08 4.52-3.01 6.95 5.98-1.35 10.22-8.23 16.56-7.74 1.84 1.3 2.68 3.44 2.71 5.64-2.35 7.95 8.16 9.88 7.32 17.72-2.3-.14-7.4 5.15-3.06 4.16 2.43-2.45 7.39.44 7.25 3.6 1.21 3.09.6 5.23-2.81 5.96.98 3 .08 4.44-3.23 4.03.55 1.95 2.94 2.1 4.21 3.43-.92 1.61-1.23 3.47.09 4.98-.92 1.64-2.37 2.83-4.04 3.65-4.64-6.27-11.72 5.77-5.05 8.7-9.28 3.02-5.08 12.58-2.47 19.29-3.03-4.1-9-5.23-11.39-9.62-.92-3.64 1.53-8.38 5.71-8.06-.03-4-4.87-1.92-7.37-1.97-7.83-3.27-1.75 8.26-7.52 7.32-4.47-.85.26-5.1-.33-7.66.6-8.49-9.29-7.71-15.15-8.57-2.99-5.46-7.08-14.21-2.99-20.01 2.53.84 4.3-.52 5.82-2.37 2.95-.89 5.74 4.07 8.48 1.54 2.82-1.86 5.24-4.3 8.22-5.91 4.69-.72 6.86 6 12.04 3.96-.82-3.24-2.39-6.35-1.78-9.79-2.34-2.43-5.33-4.18-8.56-5.14 1.19 1.99 2.82 3.78 3.29 6.12-2.41-.83-4.06-2.92-6.36-3.97-5.94-3.85-14.78-.93-19.23-7.35.78 5.28-1.3 8.9-6.93 6.48-1.27-4.93 1.99-9.76 3.77-14.26.89-1.36.46-2.94-.05-4.34.04-7.06 2.32-15.06-2.89-20.82l-1.12-3.01a303.67 303.67 0 0 1-.45-12.06c1.47-4.22 3.8-8.06 6.27-11.76 1.08-1.56 2.15-3.17 2.9-4.94.82-2.67.64-5.54.93-8.29.3-1.62.8-3.19 1.25-4.77.92-1.48 1.69-3.06 2.08-4.77.31-1.13.6-2.27.86-3.42z"/><path fill="#685f30" opacity=".98" d="M194.36 101c3.65 2.42 8.78 1.4 11.88 4.7-4.9.31-8.95 2.38-9.39 7.66-1.6-4.8-8.12-5.65-7.94-11.28 1.87-.27 5.25 1.96 5.45-1.08z"/><path fill="#818d49" d="M159.6 109.61c3.67 2.73 4.97-4.7 9.1-3.49 3.64 10.04 16.07-5.07 18.31 5.71-5.11-.69-9.85 1.87-14.92 2.42-5.01 6.21 6.96 7.11 4.43 1.92 4.33-1.82 6.52-.93 4.37 3.8 3.07-4.24 4.88-2.74 3.08 1.97-3.26-4.31-8.85 5.61-7.39-.33 1.41-3.03-2.65-1.35-2.02.72.6 4.14-5.03 4.08-5.81 7.59-1.65-7.16-6.3-12.64-11.02-17.94.3-1.29-.1-3.99 1.87-2.37z"/><path fill="#7f7d3f" d="M196.85 113.36c.44-5.28 4.49-7.35 9.39-7.66 6.55 5.14 4.22 13.99 3.86 21.07 7.5 3.63 12.44 10.24 18.03 16.19-4.17-.15-5.58-5.93-10.24-5.03.37 2.41 1.62 4.53 2.34 6.83-2.34-.43-5.76-.22-4.61-3.55-2.59-.99-5.65-1.13-8.34-2.22-.47 2-.88 4.01-1.21 6.04 1.83-.7 3.55-1.69 5.49-2.09-.71 4.51 5.21 6.98 3.91 11.42-.56 1.75.58 3.29 1.27 4.81-3.27 1.26-5.57.82-5.03-3.25-3.12.36-3.75 4.13-5.64 6.12-.41-1.05-1.55-2.01-1.06-3.22.56-2.28 2.08-5.32-.7-6.46-4.83-5.31-6.32.47-5.67 5.22-4.35 3.27-8.42.22-12.91-.51-.62-2.03 1.5-6.27-2.1-4.49-5.82 3.16 2.78-8.29-2.23-4.21-3.88 1.18-2.57 7.24-7.46 5.63.31-6.21 10.82-6.85 9.43-13.43-2.29-2.08-1.73-4.97-1.45-7.71-4.2 1.67-9.59 7.47-7.62 12-2.79 1.22-3.34 9.18-6.05 4.05-1.61-5.17 3.19-8.62 2.42-13.51 3.48-.77 4.54-3.98 5.21-7.08 3.94 1.51 2.69-6.06 6.93-4.3 1.79 3.17 1.97 7.08 4.02 10.1 3 3.27 14.29-3.23 10.85 3.46 1.64 1.73 3.16 3.59 4.46 5.6-6.44-.49-9.21-6.91-16.2-7.08-4.9-.43.48 4.06 3.04 3.29-2.84 6.04-2.59 18.54 7.06 17.47-.08-4.74-3.94-14.07 5.26-10.17 4.53 1.63 4.2-1.85.84-3.51 1.5-2.08 4.26-3.77 3.91-7.23-5.35 4.46-6.34-4.2-7.79-7.9 2.99-3.37 7.79 2.08 4.02 4.68 2.93.34 5.19 2.22 7.77 3.44-1.98-4.86-.83-10-2.18-14.84.18-1.82 1.97-4.13.31-5.68-1.52-2.03-8.53-9.33-6.9-2.82 2.42 3.47-.97 9.13 4.66 9.34-2.26 8.23-6.41-2.08-9.2-5.02-3.53-.09-5.94 3.21-9.39 3.31 1.03-1.88 3.76-3.13 2.95-5.61-1.27-5.3 6.93 3.3 6.55-1.49z"/><path fill="#69703f" d="M144.47 114.61c.29-5.31 4.9-8.59 10.1-5.58-1.06 3.37-.15 4.65 3.16 2.95 4.72 5.3 9.37 10.78 11.02 17.94l1.23 2.03c-2.63.19-5.24.51-7.78 1.22.94-1.61.19-2.95-1-4.12 1.69-.28 4.68.6 3.83-2.17 1.19-3.96-4.23-4-6.71-3.75-4.08 2.53-3.3 9.14.76 11.26-3.97 1.63-5.44-5.15-7.95-7.6-1.69-6.76 11.35-1.77 9.97-8.75-4.9.7-9.6 2.28-14.46 3.13 1.21 3.11-4.21 12.05-3.03 2.3-5.1-2.73-5.61-6.7.86-8.86z"/><path fill="#919a62" d="M201.28 112.83c-1.63-6.51 5.38.79 6.9 2.82-4.73-.93-3.43 4.52-.31 5.68 1.35 4.84.2 9.98 2.18 14.84-2.58-1.22-4.84-3.1-7.77-3.44 3.77-2.6-1.03-8.05-4.02-4.68 1.45 3.7 2.44 12.36 7.79 7.9.35 3.46-2.41 5.15-3.91 7.23-1.3-2.01-2.82-3.87-4.46-5.6 3.44-6.69-7.85-.19-10.85-3.46-2.05-3.02-2.23-6.93-4.02-10.1-4.24-1.76-2.99 5.81-6.93 4.3-2.93-.86-2.91 4.22-5.9 3.63l-1.23-2.03c.78-3.51 6.41-3.45 5.81-7.59-.63-2.07 3.43-3.75 2.02-.72-1.46 5.94 4.13-3.98 7.39.33 1.66 1.41 2.55-.05 3.38-1.48 3.45-.1 5.86-3.4 9.39-3.31 2.79 2.94 6.94 13.25 9.2 5.02-5.63-.21-2.24-5.87-4.66-9.34z"/><path fill="#c2b093" d="M207.87 121.33c-3.12-1.16-4.42-6.61.31-5.68 1.66 1.55-.13 3.86-.31 5.68z"/><path fill="#8e7d54" d="M158.32 123.13c2.48-.25 7.9-.21 6.71 3.75-4.61-2.29-8.55 5.56-3.75 6.63l-2.2.88c-4.06-2.12-4.84-8.73-.76-11.26z"/><path fill="#c0b59b" d="M161.28 133.51c-4.8-1.07-.86-8.92 3.75-6.63.85 2.77-2.14 1.89-3.83 2.17 1.19 1.17 1.94 2.51 1 4.12l-.92.34z"/><path fill="#697440" d="M174.3 144.86c-1.97-4.53 3.42-10.33 7.62-12-.28 2.74-.84 5.63 1.45 7.71 1.39 6.58-9.12 7.22-9.43 13.43 4.89 1.61 3.58-4.45 7.46-5.63 5.01-4.08-3.59 7.37 2.23 4.21 3.6-1.78 1.48 2.46 2.1 4.49l.36 2.7v1.81c-1.69 4.02-1.54 8.59 3.75 7.39 1.35 1.66.39 3.42-.41 5.08-1.42 2.91-3.55 6.1 1.2 4.25 1.43 3.75 2.51 8.23 7.42 5.93 2.22 5.1-3.77 8.74-.85 13.53l-1.3 1.45c-1.47-2.59-3.33-12.66-3.1-1.11-4.45-.14-.4-10.93-5.85-4.83.14-3.16-4.82-6.05-7.25-3.6-4.34.99.76-4.3 3.06-4.16.84-7.84-9.67-9.77-7.32-17.72-.03-2.2-.87-4.34-2.71-5.64-6.34-.49-10.58 6.39-16.56 7.74-3.07-2.43 1.94-4.72 3.01-6.95-1.33-1.64-6.27-3.7-2.93-5.77 3.84-.07 14.01 5.68 8.69-3.07-5.38-3.59 4.6-.16 3.31-5.19 2.71 5.13 3.26-2.83 6.05-4.05z"/><path fill="#686731" d="M188.98 139.39c-2.56.77-7.94-3.72-3.04-3.29 6.99.17 9.76 6.59 16.2 7.08 3.36 1.66 3.69 5.14-.84 3.51-9.2-3.9-5.34 5.43-5.26 10.17-9.65 1.07-9.9-11.43-7.06-17.47z"/><path fill="#85924e" d="M217.89 137.93c4.66-.9 6.07 4.88 10.24 5.03 7.51 5.39 10.88 15.92 9.87 24.93-1.2.15-2.39.27-3.59.36-2.69-2.11-7.55-3.36-5.39-8.28-.73-4.82-1.4 1.52-1.15 3.37-3.25-.71-6.02-6.89-.98-6.73-2.1-5.8-8.73-.97-6.76 4.41-1.44 2.24-2.38-.86-3.39-1.85-.69-1.52-1.83-3.06-1.27-4.81 1.3-4.44-4.62-6.91-3.91-11.42-1.94.4-3.66 1.39-5.49 2.09.33-2.03.74-4.04 1.21-6.04 2.69 1.09 5.75 1.23 8.34 2.22-1.15 3.33 2.27 3.12 4.61 3.55-.72-2.3-1.97-4.42-2.34-6.83z"/><path fill="#8d9258" d="M198.64 157.58c-.65-4.75.84-10.53 5.67-5.22-5 .66-3.1 5.7.7 6.46-.49 1.21.65 2.17 1.06 3.22-5.11-4.43-11.06 9.57-9.42.06-3.84 1.85-7.35-.27-10.56-2.33l-.36-2.7c4.49.73 8.56 3.78 12.91.51z"/><path fill="#c6b59a" d="M205.01 158.82c-3.8-.76-5.7-5.8-.7-6.46 2.78 1.14 1.26 4.18.7 6.46z"/><path fill="#635321" d="M220.13 161.02c-1.97-5.38 4.66-10.21 6.76-4.41-5.04-.16-2.27 6.02.98 6.73.2 3.08-7.1.48-7.74-2.32z"/><path fill="#707938" d="M206.07 162.04c1.89-1.99 2.52-5.76 5.64-6.12-.54 4.07 1.76 4.51 5.03 3.25 1.01.99 1.95 4.09 3.39 1.85.64 2.8 7.94 5.4 7.74 2.32-.25-1.85.42-8.19 1.15-3.37-2.16 4.92 2.7 6.17 5.39 8.28-3.95-.29-9.36-3.7-11.46 1.72-3.92 7.24 10.32-2.07 9.29 4.02 1.48-1.93 3-3.68 4.99-1.21 2.9-.85 5.74-3.65 8.85-4.93 1.6.45 3.28.31 4.9 0 5.14 3.24 13.01 3.36 15.76 9.53 2.4 4.52-1.7 7.39-4.72 9.5.97-3.7 1.38-8.4-1.2-11.51-4.56 1.86-10.86-7.61-9.63 2.84-.63-5.78-11-4.67-11.38.76-5.87-5.76-8.57 7.36-4.64 10.99 2.54-.68 5.6-1.86 6.18-4.73 1.67 3.92 5.17 4.24 8.53 2.08.43 1.52.69 3.09 1.14 4.61 2.62-2.17 5.66-3.85 9.17-3.81-4.15 3.23-9 5.43-13.94 7.12-2.62.69-8.15-2.14-8.38 1.73-2.86-1.21-15 5.98-6.48 4.46-4.34 6.83-15.63 2.68-17.64 10.63-7.98-2.43 7.77-10.92-4.75-8.1-5.2-1.64-4.3 6.68-.12 6.3 1.34.29 2.83 2.8 1.06 3.59-1.97-1.35-3.87-3.04-6.43-2.89-.25-2.32-1.78-4.14-4.2-4.23-1.61-.79-6.35-2.88-2.89-4.27 3.86 4.19 3.34-3.25-.52-3.24l1.3-1.45c2.6.61 3.98 3.48 6.83 3.43-.84-3.89-6.88-7.38-2.65-10.87 4.62-2.27.16 7.13 4.21 7.16 2.41-2.37 3.06 1.69 5.5 1.63.74-3.59-4.64-5.55-1.98-8.96 2.12 1.17 4.46 1.57 6.86 1.4 1.03 2.71-1.38 1.93-3.18 1.68 1.55 2.55 4.96 6.81 4.86 1.29 5.17-.8 1.16-5.41 3.29-8.34 6.57 5.68 6.51-7 3.31-10.42-5.64-3.34-.14 5.19-.22 8.33-2.4.45-2.1-2.1-2.68-3.65-3.66 1.01-3.83-4.71-7.17-4.41-2.23 1.49 1.03 6.53-2.98 5.92-2.31-3.67 1.8-7.18-.1-10.87-2.61 1.97-5.53 3.21-8.9 3.2-1.12 3.2 3.85.07 5.62.77 2.87 2.53-2.12 4.46-2.87 6.98.94 2.06 2.22 3.95 3.08 6.05-8.79.48-6.83-12.4-10.12-18.19-3.05 2.48-3.89 7.35-8.48 4.16.8-1.66 1.76-3.42.41-5.08.01-2.91 4.68-.9 4.21-3.92-3.77 1.31-6.77.59-7.96-3.47v-1.81c3.21 2.06 6.72 4.18 10.56 2.33-1.64 9.51 4.31-4.49 9.42-.06m23.17 15.11c-1.5 3.24-3.81 9.96-1.6 11.45 3.91-4.29.58 3.6 4.41 2.38-1.08-4.65-.41-9.3-.06-14l-2.75.17z"/><path fill="#8f935f" d="M186.09 161.58c1.19 4.06 4.19 4.78 7.96 3.47.47 3.02-4.2 1.01-4.21 3.92-5.29 1.2-5.44-3.37-3.75-7.39z"/><path fill="#545f28" d="M222.95 169.97c2.1-5.42 7.51-2.01 11.46-1.72 1.2-.09 2.39-.21 3.59-.36l8.09-.76-.01.72c-3.11 1.28-5.95 4.08-8.85 4.93-1.99-2.47-3.51-.72-4.99 1.21 1.03-6.09-13.21 3.22-9.29-4.02z"/><path fill="#8a965a" d="M189.43 174.05c4.59 3.19 5.43-1.68 8.48-4.16 3.29 5.79 1.33 18.67 10.12 18.19-.86-2.1-2.14-3.99-3.08-6.05.75-2.52 5.74-4.45 2.87-6.98-1.77-.7-6.74 2.43-5.62-.77 3.37.01 6.29-1.23 8.9-3.2 1.9 3.69-2.21 7.2.1 10.87 4.01.61.75-4.43 2.98-5.92 3.34-.3 3.51 5.42 7.17 4.41.58 1.55.28 4.1 2.68 3.65.08-3.14-5.42-11.67.22-8.33 3.2 3.42 3.26 16.1-3.31 10.42-2.13 2.93 1.88 7.54-3.29 8.34.1 5.52-3.31 1.26-4.86-1.29 1.8.25 4.21 1.03 3.18-1.68-2.4.17-4.74-.23-6.86-1.4-2.66 3.41 2.72 5.37 1.98 8.96-2.44.06-3.09-4-5.5-1.63-4.05-.03.41-9.43-4.21-7.16-4.23 3.49 1.81 6.98 2.65 10.87-2.85.05-4.23-2.82-6.83-3.43-2.92-4.79 3.07-8.43.85-13.53-4.91 2.3-5.99-2.18-7.42-5.93-4.75 1.85-2.62-1.34-1.2-4.25z"/><path fill="#474b25" d="M136.53 171.83c4.45 6.42 13.29 3.5 19.23 7.35 2.3 1.05 3.95 3.14 6.36 3.97-.47-2.34-2.1-4.13-3.29-6.12 3.23.96 6.22 2.71 8.56 5.14-.61 3.44.96 6.55 1.78 9.79-5.18 2.04-7.35-4.68-12.04-3.96-2.98 1.61-5.4 4.05-8.22 5.91-2.74 2.53-5.53-2.43-8.48-1.54-1.52 1.85-3.29 3.21-5.82 2.37 1.48-2.48 4.05-4.56 4.38-7.55-4.04-2-8.98-3.56-9.39-8.88 5.63 2.42 7.71-1.2 6.93-6.48z"/><path fill="#90a155" d="M251.19 178.21c-1.23-10.45 5.07-.98 9.63-2.84 2.58 3.11 2.17 7.81 1.2 11.51l-1.83 1.23c-3.51-.04-6.55 1.64-9.17 3.81-.45-1.52-.71-3.09-1.14-4.61-3.36 2.16-6.86 1.84-8.53-2.08-.58 2.87-3.64 4.05-6.18 4.73-3.93-3.63-1.23-16.75 4.64-10.99.38-5.43 10.75-6.54 11.38-.76-4.08-3.37-4.42 5.71-4.21 7.66 2.91-.42 5.83-.37 8.75-.14 5.2-2.83-.67-10.67-4.54-7.52z"/><path fill="#869b5c" d="M229.24 177.15l2.75-.17c-.35 4.7-1.02 9.35.06 14-3.83 1.22-.5-6.67-4.41-2.38-2.21-1.49.1-8.21 1.6-11.45z"/><path fill="#afbd76" d="M246.98 185.87c-.21-1.95.13-11.03 4.21-7.66 3.87-3.15 9.74 4.69 4.54 7.52-2.92-.23-5.84-.28-8.75.14z"/><path fill="#818c4a" d="M186.95 193.27c5.45-6.1 1.4 4.69 5.85 4.83-.23-11.55 1.63-1.48 3.1 1.11 3.86-.01 4.38 7.43.52 3.24-3.46 1.39 1.28 3.48 2.89 4.27-2.88-.16-5.65-1.03-7.21-3.62-1.5 4.42-1.62 8.85 3.93 9.43-3.89 1.71-9.02 2.87-10.27 7.58-4.53 1.98-7.54-.01-4.59-4.79 1.67-.82 3.12-2.01 4.04-3.65 1.77-1.65 2.34-3.64-.09-4.98-1.27-1.33-3.66-1.48-4.21-3.43 3.31.41 4.21-1.03 3.23-4.03 3.41-.73 4.02-2.87 2.81-5.96z"/><path fill="#3c4520" opacity=".64" d="M237.87 196.96c.23-3.87 5.76-1.04 8.38-1.73-12.34-1.94-5.37 11.75-8.08 18.97l-.3-17.24z"/><path fill="#828c49" d="M231.39 201.42c-8.52 1.52 3.62-5.67 6.48-4.46l.3 17.24c-1.09 3.47-2.14 7.03-3.96 10.2-3.6 1.49-4.48-3.09-6.83-4.79-.93-1.75-.26-6.34-3.16-5.4-4.12 1.67 7.05 8.43-3.6 4.03-5.25-4.1-3.46 10.21-8.29 5.14-1.28 3.37-4.07 5.97-5.11 9.65 1.57 1.4 4.31-.76 5.24 1.61-2.02.37-4.01.78-6.01 1.22-1.28-3.07-4.51-2.64-7.16-2.11-2.47-3.37-12.71-2-7.25-8.32-3.72 1.53-4.1-3.11-5.39-5.51 3.62-1.52 7.23-4.07 11.35-3.22-2.43-6 2.11-3.33 5.51-5.75 2.56-.15 4.46 1.54 6.43 2.89 1.77-.79.28-3.3-1.06-3.59-4.18.38-5.08-7.94.12-6.3 12.52-2.82-3.23 5.67 4.75 8.1 2.01-7.95 13.3-3.8 17.64-10.63z"/><path fill="#98a860" d="M192.1 203.1c1.56 2.59 4.33 3.46 7.21 3.62 2.42.09 3.95 1.91 4.2 4.23-3.4 2.42-7.94-.25-5.51 5.75-4.12-.85-7.73 1.7-11.35 3.22l-.89.19c1.25-4.71 6.38-5.87 10.27-7.58-5.55-.58-5.43-5.01-3.93-9.43z"/><path fill="#6f7f48" opacity=".97" d="M316.93 205c6.21-1.85 8.29 10.42 2.3 13.14-4.02 1.88-8.76 1.62-12.37-1.1-1.1-5.46 7.46-4.96 11.29-4.32-.76-2.55-2.49-5.01-1.22-7.72z"/><path fill="#445227" opacity=".94" d="M303.15 215.01c4.66-3.24 9.06-6.86 13.78-10.01-1.27 2.71.46 5.17 1.22 7.72-3.83-.64-12.39-1.14-11.29 4.32-1.68 2.85-5.33 1.41-8.1 1.76 1.5-1.22 2.97-2.48 4.39-3.79z"/><path fill="#bbb394" d="M185.12 206.69c2.43 1.34 1.86 3.33.09 4.98-1.32-1.51-1.01-3.37-.09-4.98z"/><path fill="#767939" d="M176.12 224.02c-6.67-2.93.41-14.97 5.05-8.7-2.95 4.78.06 6.77 4.59 4.79l.89-.19c1.29 2.4 1.67 7.04 5.39 5.51-5.46 6.32 4.78 4.95 7.25 8.32-3.7 2.25-7.78 3.36-12.11 3.48.69 4.72-2.72 12.36 3.85 13.31-7.36 7.5-9.49-6.73-7.07-11.6-10.74 2.61 3.41 11.54-1.94 17.24-2.41-4.56-6.96-7.78-8.37-12.87-2.61-6.71-6.81-16.27 2.47-19.29m-2.9 3.1c-1.96 3.24-2.5 9.19 2.6 8.86 1.21-3.63 1.61-4.08 4.94-1.91-.97-6.99 5.45 1.31 6.2-3-1.21-2.12-3.78-4.43-6.6-2.46-2.67.63-4.38-2.72-7.14-1.49z"/><path fill="#4e5027" d="M137.6 214.75c5.86.86 15.75.08 15.15 8.57.59 2.56-4.14 6.81.33 7.66 5.77.94-.31-10.59 7.52-7.32 2.5.05 7.34-2.03 7.37 1.97-4.18-.32-6.63 4.42-5.71 8.06 2.39 4.39 8.36 5.52 11.39 9.62 1.41 5.09 5.96 8.31 8.37 12.87l.4.69c-.49 1.08-1.01 2.15-1.58 3.2-4.73-3.08-8.65-7.67-10.86-12.88-3.52-5.21-12.19-4.46-17.75-5.1-3.97 7.1.51 15.6 7.27 19.34 1.77 3.76 5.84 4.52 9.53 2.89 3.26-.51 6.08-.28 4.11-4.46 4.23 1.62 4.88 12.88 8.59 6.35-.11 7.39 6.69-1.08 8.28 4.73-.94 2.04-2.3 3.86-3.16 5.94 3.87 2.42 8.96 4.73 13.42 2.43 1.3-.62 2.49-1.42 3.71-2.16 2.87-2.08 6.05-2.15 8.3.87-1.4 2.19-3.89 3.12-6 4.45-.67 2.6 1.69 4.77 2.62 7.04-2.1-1.27-3.89-2.94-5.71-4.56-3.25-6.08-10.71-2.73-16.04-5.13-8.36-3.5-17.58-5.41-25.02-10.82-3.85-3.6-9.1-5.97-10.88-11.28l-1.15-3.75-.07-.94-.04-1.97c3.14-10.53-2.57-18.8-7.56-27.18-.32-1.66-.5-3.36-1.13-4.93-1.17-1.46-2.51-2.76-3.7-4.2z"/><path fill="#8c9a64" d="M224.22 214.21c2.9-.94 2.23 3.65 3.16 5.4-1.65.69-8.45 1.5-5.41 3.28 4.94-.91.27 3.07 1.83 5.67-3.82-.16-8.13-1.02-11.38 1.55.6 1.52 1.45 3.03.98 4.71l-.94-.18c-.93-2.37-3.67-.21-5.24-1.61 1.04-3.68 3.83-6.28 5.11-9.65 4.83 5.07 3.04-9.24 8.29-5.14 10.65 4.4-.52-2.36 3.6-4.03z"/><path fill="#556837" d="M298.76 218.8c2.77-.35 6.42 1.09 8.1-1.76 3.61 2.72 8.35 2.98 12.37 1.1-3.32 4.36-10.77 5.45-12.27 10.79 4.29 3.24 2.7 7.13-1.28 9.68l6.29 1.35c-16.32-1.54 5.89 8.18-3.95 12.47l-1.08-2.28c-.93-4.34-4.43-7.03-8.94-6.37 2.93-5.69-8.95.88-7.94-4.76.42-2.49.54-5.56 2.94-6.99 3.77-2.25 1.37-7.57 1.89-11.19 1.18-.86 2.54-1.44 3.87-2.04z"/><path fill="#5f733c" opacity=".98" d="M331.98 221.86c5.32-1.56 10.52-7.26 16.02-4.01-7.39-.49-14.09 5.13-16.35 11.94 3.77-3.79 2.56 1.2 5.34 2.7-1.16 2.8-4.37 2.78-6.91 3.36-.6-2.04-1.21-4.09-2.22-5.96-2.28.74-3.69 2.86-5.74 4l-1.1-2.2c1.04-5.86 8.35-5.34 10.96-9.83z"/><path fill="#829255" opacity=".98" d="M331.65 229.79c2.26-6.81 8.96-12.43 16.35-11.94 6.47 7.76-5.02 11.48-10.27 14.67l-.74-.03c-2.78-1.5-1.57-6.49-5.34-2.7z"/><path fill="#797739" d="M221.97 222.89c-3.04-1.78 3.76-2.59 5.41-3.28 2.35 1.7 3.23 6.28 6.83 4.79-2.79 4.92-8.1 8.81-9.29 14.43-.43 3.14 1.87 5.45 4.18 7.14-2.11.57-6.46 3.66-4.7-.62-.5-3.69-3.17-7.33-3.03-11.58-2.43.65-5.4 4.94-1.39 5.38 2.86 1.46-.87 4.09-2.57 5.02.97-9.55-10.79-2-7.27 2.83 2.53-.65 4.85-1.89 7.27-2.83-2.53 3.89-12.86 12.17-13.57 3.78 1.89 3.02 5.45 2.47 3.77-1.43-5.61-6.25 11.51-7.98 5.79-11.7.47-1.68-.38-3.19-.98-4.71 3.25-2.57 7.56-1.71 11.38-1.55-1.56-2.6 3.11-6.58-1.83-5.67z"/><path fill="#414820" d="M282.3 242.34c4.49-6.82 5.33-16.69 12.59-21.5-.52 3.62 1.88 8.94-1.89 11.19-2.4 1.43-2.52 4.5-2.94 6.99-1.01 5.64 10.87-.93 7.94 4.76-9.54 2.26-1.45 12.85.01 18.17-.75 4.02-3.57-.44-5.56-1.2-5.76-.82-7.34-4.54-8.51-9.68-2.56 1.17-2.56 6.26-5.98 6.88-3.73.33-2.63-6.39-4.36-8.02-5.95 2.96-10.91 7.52-14.98 12.77a17.67 17.67 0 0 0-2.01 6.23c-2.59 1.06-4.27-3.07-6.61-1.01-3.75 2.32.9 8.22-3.11 9.98-3.57 3.5-1.13-4.55-3.83-5.97-4.49-4.74 2.55-11.29 5.18-15.71.58.61 1.1 1.94 1.95.84 9.86-6.54 22.3-8.04 32.11-14.72z"/><path fill="#445327" opacity=".96" d="M306.96 228.93c9.21 3.42 17-4.08 25.02-7.07-2.61 4.49-9.92 3.97-10.96 9.83-4.08 2.33-10.11 6.04-4.6 10.58-1.09.2-2.19.14-3.27-.06l-1.18-2.25-6.29-1.35c3.98-2.55 5.57-6.44 1.28-9.68z"/><path fill="#97965b" d="M173.22 227.12c2.76-1.23 4.47 2.12 7.14 1.49 2.82-1.97 5.39.34 6.6 2.46-.75 4.31-7.17-3.99-6.2 3-3.33-2.17-3.73-1.72-4.94 1.91-5.1.33-4.56-5.62-2.6-8.86z"/><path fill="#35461d" opacity=".89" d="M337.73 232.52c6.23 1.24 11.34-5.96 17.45-3.98-6.58 1.13-11.57 6.11-17.98 7.48-3.47 1.5-6.68 3.56-10.09 5.18-.48-2.45 1.02-4.14 2.97-5.35 2.54-.58 5.75-.56 6.91-3.36l.74.03z"/><path fill="#839152" d="M337.2 236.02c6.41-1.37 11.4-6.35 17.98-7.48.92 1 1.67 2.16 2.43 3.31-1.15 1.43-1.41 3.52-.35 5.09-2.37 1.55-4.75 3.08-7.29 4.33-5.77 4.49-15.42 5.13-19.31 11.62-.58 5.77-6.64 1.77-7.55-1.75 3.93-3.54 7.68-7.67 13.04-8.96 3.26-.26 1.04-3.94 1.05-6.16z"/><path fill="#7f864b" d="M322.12 233.89c2.05-1.14 3.46-3.26 5.74-4 1.01 1.87 1.62 3.92 2.22 5.96-1.95 1.21-3.45 2.9-2.97 5.35 1.31 4.51-8.88 7.94-6.7 2.17 1.09-2.62-2.62-.89-3.99-1.1-5.51-4.54.52-8.25 4.6-10.58l1.1 2.2c-5.35 3.02-.65 8.63 4.07 9.05-.2-3.42-2.29-6.28-4.07-9.05z"/><path fill="#58552b" opacity=".64" d="M357.61 231.85l-.35 5.09c-1.06-1.57-.8-3.66.35-5.09z"/><path fill="#899556" d="M199.29 233.75c2.65-.53 5.88-.96 7.16 2.11-4.38 2.81-4.94 7.67-2.61 12.09.71 8.39 11.04.11 13.57-3.78 1.7-.93 5.43-3.56 2.57-5.02-4.01-.44-1.04-4.73 1.39-5.38-.14 4.25 2.53 7.89 3.03 11.58-1.76 4.28 2.59 1.19 4.7.62 2.56 3.96 1.06 9.54 2.01 14.01.06 3.74 3.6 6.59 3.14 10.38l-2.95-.5c-2.41-2.38-5-4.61-7.93-6.33-4.67-2.17-8.12 2.13-12.44 2.59-.86-5.37 9.54-2.05 6.22-7.33-1.2-1.63-6.78 7.03-7.28 1.34 1.27-6.59-8.87-4.03-11.28-.62-2.68 8.78-11.87.85-16.17-2.64l-.4-.69c5.35-5.7-8.8-14.63 1.94-17.24-2.42 4.87-.29 19.1 7.07 11.6-6.57-.95-3.16-8.59-3.85-13.31 4.33-.12 8.41-1.23 12.11-3.48m-7.35 9.23c1.67 3.27 4.45 6.11 4.3 10.04 4.61.35 3.33-5.11 2.66-7.66-3.98 1.98-2.22-4.36-6.96-2.38m.02 9.94c-.41 2.37 1.73 3.93 2.14 6.11-2.5.44-3.39-2.22-4.5-3.89-4.5 2.42 2.56 5.38 4.22 6.38 5.07-1.49 2.44-8.12-1.86-8.6z"/><path fill="#b3b378" d="M326.19 242.94c-4.72-.42-9.42-6.03-4.07-9.05 1.78 2.77 3.87 5.63 4.07 9.05z"/><path fill="#524e23" d="M206.45 235.86l6.01-1.22.94.18c5.72 3.72-11.4 5.45-5.79 11.7 1.68 3.9-1.88 4.45-3.77 1.43-2.33-4.42-1.77-9.28 2.61-12.09z"/><path fill="#586035" d="M327.11 241.2c3.41-1.62 6.62-3.68 10.09-5.18-.01 2.22 2.21 5.9-1.05 6.16-5.36 1.29-9.11 5.42-13.04 8.96.91 3.52 6.97 7.52 7.55 1.75l2.01 1.12c-.21 4.84-4.49 5.47-7.47 8.3-1.3 3.47 2.99 4.89 5.65 4.95-2.13 3.07-6.59 8.11.37 7.12-9.7-1.5-19.19.98-28.67 3.67-1.74-2.05-3.88-3.73-5.55-5.83 2.59-1.77 5.33-3.79 8.56-4 1.36 3.7 5.23 8.86 9.19 4.17 2.78-1.9-.64-6.14.22-8.38-2.14-7.11-1.18-14.52-1.82-21.8 1.08.2 2.18.26 3.27.06 1.37.21 5.08-1.52 3.99 1.1-2.18 5.77 8.01 2.34 6.7-2.17z"/><path fill="#a08b66" d="M210.14 247c-3.52-4.83 8.24-12.38 7.27-2.83-2.42.94-4.74 2.18-7.27 2.83z"/><path fill="#536737" d="M224.92 238.83c9.98.06 19.17 6.68 22.33 16.13-2.46-.5-4.79-1.46-7.21-2.08 2.07 5.11 3.34 15.59-3.8 16.27 1.49 1.7 3.16 3.47 2.84 5.94-2.68.05-3.49-2.94-4.83-4.73.46-3.79-3.08-6.64-3.14-10.38-.95-4.47.55-10.05-2.01-14.01-2.31-1.69-4.61-4-4.18-7.14m5.98 7.11c2.95 3.84.7 14.27 7.43 9.32 1.34-3.42-3.03-9.25-7.43-9.32z"/><path fill="#7a874c" d="M308.02 252.43c9.84-4.29-12.37-14.01 3.95-12.47l1.18 2.25c.64 7.28-.32 14.69 1.82 21.8-.86 2.24 2.56 6.48-.22 8.38-1.34-2.66-3.93-1.86-6.31-1.64-.56-4.34-4.98-6.09-8.25-8.17 1.12-1.52 2.46-2.84 3.79-4.17 4.71 1.99 4.45-2.01 4.04-5.98z"/><path fill="#3e501f" opacity=".97" d="M330.66 252.89c3.89-6.49 13.54-7.13 19.31-11.62 1.04.41 2.06.86 3.07 1.35-6.32 4.64-13.41 7.69-20.37 11.39l-2.01-1.12z"/><path fill="#645533" d="M152.23 242.09c5.56.64 14.23-.11 17.75 5.1-2.86 1.76-4.19-3.32-7.36-1.64-2.61 7.24 1.58 14.14 6.41 18.77-3.69 1.63-7.76.87-9.53-2.89-6.76-3.74-11.24-12.24-7.27-19.34z"/><path fill="#636a3b" d="M191.94 242.98c4.74-1.98 2.98 4.36 6.96 2.38.67 2.55 1.95 8.01-2.66 7.66.15-3.93-2.63-6.77-4.3-10.04z"/><path fill="#808d53" d="M332.67 254.01c6.96-3.7 14.05-6.75 20.37-11.39 6.36 4.94.31 11.79-6.07 12.46-4.21 2.88-12.35 2.61-13.15 8.56 5.75.44 10.64-2.91 15.27-5.84 6.49 4.85-2.23 9.99-7.15 11.31-1.6-.25-3.75-.87-4.84.74-1.59 1.92-3.37 3.89-5.88 4.53-6.96.99-2.5-4.05-.37-7.12-2.66-.06-6.95-1.48-5.65-4.95 2.98-2.83 7.26-3.46 7.47-8.3z"/><path fill="#73723d" d="M298.01 261.95c-1.46-5.32-9.55-15.91-.01-18.17 4.51-.66 8.01 2.03 8.94 6.37-.4-.13-1.18-.41-1.57-.54-4.39-3.39-6.85 1.88-8.31 5.36.56 3.06 4.44 3.07 6.92 3.44-1.33 1.33-2.67 2.65-3.79 4.17 3.27 2.08 7.69 3.83 8.25 8.17 2.38-.22 4.97-1.02 6.31 1.64-3.96 4.69-7.83-.47-9.19-4.17-3.23.21-5.97 2.23-8.56 4 1.67 2.1 3.81 3.78 5.55 5.83a61.74 61.74 0 0 1-1.62 3.13c-3.07.46-4.31-1.68-5.18-4.21-2.89.12-4.31 2.99-5.96 4.94l-5.78 5.43c-5.63-1.43-3.5-9.73-1.34-13.63 4.58-3.63 5.43-10.12 9.78-12.96 1.99.76 4.81 5.22 5.56 1.2m-12.87 14.16c-1.84 1.43-.98 4.03-1.11 6.03 2.56-.82 4.63-5.31 1.11-6.03z"/><path fill="#6b7434" d="M162.62 245.55c3.17-1.68 4.5 3.4 7.36 1.64 2.21 5.21 6.13 9.8 10.86 12.88.57-1.05 1.09-2.12 1.58-3.2 4.3 3.49 13.49 11.42 16.17 2.64 2.41-3.41 12.55-5.97 11.28.62.5 5.69 6.08-2.97 7.28-1.34 3.32 5.28-7.08 1.96-6.22 7.33 4.32-.46 7.77-4.76 12.44-2.59 2.93 1.72 5.52 3.95 7.93 6.33-.35 1.91-.84 3.8-1.04 5.73 4.24-.04 2.71 4.59-.23 5.49-2.88 2.57-4.5-2.09-6.72-3.36-3.22-3.36-.41 4.32-.62 6.38 1.18 2.66-3.62 1.13-2.56 3.81 5.36-.1 9.72 3.8 11.75 7.92l-2.03.56-3.95-1.19c-4.4-4.73-9.38-8.91-15.08-11.98-5.29-1.36 3.67 6.19-1.92 6.29-.93-2.27-3.29-4.44-2.62-7.04 2.11-1.33 4.6-2.26 6-4.45-2.25-3.02-5.43-2.95-8.3-.87 4-4.19.46-11.68-5.47-9.79l-.57.12c-2.22.5-4.44 1.03-6.61 1.71.67 5.11 3.89 8.85 8.94 10.12-4.46 2.3-9.55-.01-13.42-2.43.86-2.08 2.22-3.9 3.16-5.94-1.59-5.81-8.39 2.66-8.28-4.73-3.71 6.53-4.36-4.73-8.59-6.35 1.97 4.18-.85 3.95-4.11 4.46-4.83-4.63-9.02-11.53-6.41-18.77z"/><path fill="#7e9357" d="M230.9 245.94c4.4.07 8.77 5.9 7.43 9.32-6.73 4.95-4.48-5.48-7.43-9.32z"/><path fill="#998b5f" d="M297.06 254.97c1.46-3.48 3.92-8.75 8.31-5.36-10.38-1.19 2.82 9.02 0 0l1.57.54 1.08 2.28c.41 3.97.67 7.97-4.04 5.98-2.48-.37-6.36-.38-6.92-3.44z"/><path fill="#606737" d="M258.62 262.7c4.07-5.25 9.03-9.81 14.98-12.77 1.73 1.63.63 8.35 4.36 8.02 3.42-.62 3.42-5.71 5.98-6.88 1.17 5.14 2.75 8.86 8.51 9.68-4.35 2.84-5.2 9.33-9.78 12.96-2.16 3.9-4.29 12.2 1.34 13.63-6.52 6.41-16 8.17-21.81 15.03-6.21.77 2.59-7.91-4.94-8.53l.14-.69c-.52-4.81 5.34-3.96 2.9-8.41.32-3.09 2.88 3.8 4.43.95 3.01-3.64 4.4 4.09 8.35 2.36.61-3.73-5.73-4.21-2.81-8.71 1.09-3.17 4.92-5.21 6.36-7.24-3.2-2.72 3.11-6.2-.1-7.92-.85 2.15-2.7 3.51-4.53 4.79-2.82-3.75 1.59-11.38-3.76-12.86.22 6.07-7.31 2.75-7.23 8.87 1.54 3 2.85 8.46-2.29 6.09.02-2.8-.1-5.59-.1-8.37z"/><path fill="#cbbda4" d="M305.37 249.61c-10.38-1.19 2.82 9.02 0 0z"/><path fill="#6e753a" d="M191.96 252.92c4.3.48 6.93 7.11 1.86 8.6-1.66-1-8.72-3.96-4.22-6.38 1.11 1.67 2 4.33 4.5 3.89-.41-2.18-2.55-3.74-2.14-6.11z"/><path fill="#4c592b" d="M240.04 252.88l7.21 2.08.99 1.26c-2.63 4.42-9.67 10.97-5.18 15.71 2.7 1.42.26 9.47 3.83 5.97 4.01-1.76-.64-7.66 3.11-9.98 2.34-2.06 4.02 2.07 6.61 1.01a17.67 17.67 0 0 1 2.01-6.23l.1 8.37c-3.37-.23-4.2 1.51-1.84 3.86-2.3-.86-4.53-.99-5.44 1.73-1.64 4.2-7.77 1.81-6.06 8.72-3.93 2.02-1.55 6.84 2.44 4.77.31 5.31 7.49 11.89 9.44 3.69 7.53.62-1.27 9.3 4.94 8.53l-5.93.42c-4.05-3.62-9.23.69-13.83-1.26-4.55-.77-8.41-3.39-12.59-5.14l2.03-.56c-2.03-4.12-6.39-8.02-11.75-7.92-1.06-2.68 3.74-1.15 2.56-3.81.21-2.06-2.6-9.74.62-6.38 2.22 1.27 3.84 5.93 6.72 3.36 2.94-.9 4.47-5.53.23-5.49.2-1.93.69-3.82 1.04-5.73l2.95.5c1.34 1.79 2.15 4.78 4.83 4.73.32-2.47-1.35-4.24-2.84-5.94 7.14-.68 5.87-11.16 3.8-16.27z"/><path fill="#51662a" d="M333.82 263.64c.8-5.95 8.94-5.68 13.15-8.56-1.56 1.83.78 2.06 2.12 2.72-4.63 2.93-9.52 6.28-15.27 5.84z"/><path fill="#80894f" d="M268.24 256.11c5.35 1.48.94 9.11 3.76 12.86 1.83-1.28 3.68-2.64 4.53-4.79 3.21 1.72-3.1 5.2.1 7.92-1.44 2.03-5.27 4.07-6.36 7.24-2.92 4.5 3.42 4.98 2.81 8.71-3.95 1.73-5.34-6-8.35-2.36-1.55 2.85-4.11-4.04-4.43-.95 2.44 4.45-3.42 3.6-2.9 8.41-1.76.86-4.91 3.28-6.06.46 3.06-2.64-.98-6.63-4.26-5.89 1.2-1.99 2.44-3.99 3.98-5.73 1.64-1.35 5.89 1.45 4.88-1.92-.33-1.95-3.14-2.22-4.5-3.41.91-2.72 3.14-2.59 5.44-1.73-2.36-2.35-1.53-4.09 1.84-3.86 5.14 2.37 3.83-3.09 2.29-6.09-.08-6.12 7.45-2.8 7.23-8.87m-3.08 6.04c-1.61 1-1.69 3.77.05 4.68 3.01 1.69 2.33-5.02-.05-4.68z"/><path fill="#c3b699" d="M265.16 262.15c2.38-.34 3.06 6.37.05 4.68-1.74-.91-1.66-3.68-.05-4.68z"/><path fill="#8f7a3e" d="M198.51 267.36c5.93-1.89 9.47 5.6 5.47 9.79-1.22.74-2.41 1.54-3.71 2.16-5.05-1.27-8.27-5.01-8.94-10.12 2.17-.68 4.39-1.21 6.61-1.71.75 3.56-7.27 6.13-1.33 7.02 5.12 2.37 7.09-5.73 1.9-7.14z"/><path fill="#bcac90" d="M198.51 267.36c5.19 1.41 3.22 9.51-1.9 7.14-5.94-.89 2.08-3.46 1.33-7.02z"/><path fill="#343d17" opacity=".63" d="M337.1 269.85c1.09-1.61 3.24-.99 4.84-.74l-1.74 1.31-3.1-.57z"/><path fill="#b39f80" d="M285.14 276.11c3.52.72 1.45 5.21-1.11 6.03.13-2-.73-4.6 1.11-6.03z"/><path fill="#6b6a37" d="M245.38 285.38c-1.71-6.91 4.42-4.52 6.06-8.72 1.36 1.19 4.17 1.46 4.5 3.41 1.01 3.37-3.24.57-4.88 1.92-1.54 1.74-2.78 3.74-3.98 5.73 3.28-.74 7.32 3.25 4.26 5.89 1.15 2.82 4.3.4 6.06-.46l-.14.69c-1.95 8.2-9.13 1.62-9.44-3.69-3.99 2.07-6.37-2.75-2.44-4.77z"/><path fill="#4d3f21" opacity=".93" d="M289.79 281.91c1.65-1.95 3.07-4.82 5.96-4.94.87 2.53 2.11 4.67 5.18 4.21-2.88 3.35-7.42 1.21-11.14.73z"/><path fill="#465228" opacity=".96" d="M208.9 289.51c5.59-.1-3.37-7.65 1.92-6.29 5.7 3.07 10.68 7.25 15.08 11.98-6.08-.29-11.98-2.26-17-5.69z"/></svg>