<?xml version="1.0" encoding="UTF-8" ?>
<!DOCTYPE svg PUBLIC "-//W3C//DTD SVG 1.1//EN" "http://www.w3.org/Graphics/SVG/1.1/DTD/svg11.dtd">
<svg width="384pt" height="384pt" viewBox="0 0 384 384" version="1.1" xmlns="http://www.w3.org/2000/svg">
<g id="#0000000c">
</g>
<g id="#00000013">
</g>
<g id="#586034fc">
<path fill="#586034" opacity="1.00" d=" M 182.53 24.55 C 187.24 28.58 188.59 16.51 194.15 21.79 C 196.17 24.91 198.69 24.94 200.82 21.90 C 202.47 23.81 204.44 25.77 204.16 28.53 C 200.01 27.73 194.42 30.00 194.60 34.89 C 192.12 36.19 189.18 31.37 187.95 34.84 C 186.71 39.08 180.62 38.26 179.74 42.72 C 174.55 40.50 168.70 44.57 171.28 50.64 C 170.58 54.65 179.88 45.80 178.99 50.97 C 179.13 55.11 172.59 59.68 176.70 62.99 C 177.67 63.87 178.89 64.66 178.94 66.13 C 176.08 64.80 167.03 58.99 169.78 66.20 C 174.85 74.10 163.56 73.91 159.17 70.82 C 157.56 69.45 156.00 70.37 154.74 71.68 C 152.26 70.51 147.62 72.62 149.32 75.71 C 151.40 78.45 150.40 81.83 149.97 85.01 C 146.11 85.58 144.61 77.45 143.27 84.18 C 143.05 81.35 143.08 78.48 142.21 75.76 C 141.08 71.78 139.83 67.20 142.95 63.85 C 154.70 61.97 149.84 46.82 158.80 42.82 C 161.57 42.65 164.77 43.87 167.12 42.06 C 167.43 41.85 168.05 41.42 168.36 41.21 C 171.41 39.02 174.91 36.60 176.50 33.26 C 175.09 29.84 177.67 21.85 182.53 24.55 Z" />
</g>
<g id="#6e7739fc">
<path fill="#6e7739" opacity="1.00" d=" M 200.82 21.90 C 207.00 18.58 212.07 30.55 219.47 25.33 C 216.42 27.26 211.51 25.94 213.81 30.71 C 209.48 29.28 205.25 36.66 201.41 32.62 C 197.65 26.86 193.60 39.39 199.90 38.64 C 201.03 38.96 202.15 39.35 203.24 39.80 C 201.27 42.24 198.99 45.16 200.97 48.32 C 200.95 48.75 200.90 49.60 200.88 50.03 C 200.28 54.43 193.46 57.71 197.32 62.66 C 198.63 66.34 201.16 63.51 203.19 62.10 C 203.07 62.76 202.83 64.07 202.71 64.72 C 199.43 71.68 191.12 75.22 189.58 83.02 L 188.80 83.10 C 186.58 75.79 196.30 70.54 192.84 63.18 C 198.41 68.58 195.00 57.44 190.26 60.05 C 191.36 73.01 183.03 57.23 189.50 56.41 C 193.51 54.63 185.87 55.67 186.46 52.30 C 180.59 50.08 181.47 59.24 183.66 62.16 C 181.22 63.58 177.08 58.78 176.70 62.99 C 172.59 59.68 179.13 55.11 178.99 50.97 C 179.88 45.80 170.58 54.65 171.28 50.64 C 168.70 44.57 174.55 40.50 179.74 42.72 C 180.62 38.26 186.71 39.08 187.95 34.84 C 189.18 31.37 192.12 36.19 194.60 34.89 C 194.42 30.00 200.01 27.73 204.16 28.53 C 204.44 25.77 202.47 23.81 200.82 21.90 Z" />
</g>
<g id="#87944afb">
<path fill="#87944a" opacity="1.00" d=" M 219.47 25.33 C 223.03 24.73 229.72 26.30 226.82 31.66 C 224.30 34.63 220.94 36.73 217.98 39.23 C 215.10 35.60 206.18 30.98 206.83 39.06 C 205.39 35.28 202.44 36.98 199.90 38.64 C 193.60 39.39 197.65 26.86 201.41 32.62 C 205.25 36.66 209.48 29.28 213.81 30.71 C 211.51 25.94 216.42 27.26 219.47 25.33 Z" />
</g>
<g id="#00000019">
</g>
<g id="#7c783afc">
<path fill="#7c783a" opacity="1.00" d=" M 206.83 39.06 C 206.18 30.98 215.10 35.60 217.98 39.23 C 218.06 39.90 218.21 41.24 218.29 41.91 C 215.96 41.61 214.05 40.24 212.07 39.11 C 208.26 43.85 217.19 47.99 218.29 41.91 C 219.22 42.95 220.12 44.03 221.00 45.14 C 218.18 46.24 215.59 49.40 212.41 48.75 C 210.49 45.56 209.00 42.10 206.83 39.06 Z" />
</g>
<g id="#90a363ff">
<path fill="#90a363" opacity="1.00" d=" M 199.90 38.64 C 202.44 36.98 205.39 35.28 206.83 39.06 C 209.00 42.10 210.49 45.56 212.41 48.75 C 215.59 49.40 218.18 46.24 221.00 45.14 C 223.68 48.16 228.01 46.38 230.94 48.22 C 232.26 53.49 222.77 51.42 223.00 56.34 C 220.90 55.17 218.97 52.31 216.29 53.22 C 211.96 54.73 225.46 60.79 213.74 57.58 C 212.78 54.62 209.40 55.21 206.97 54.83 C 209.13 53.04 208.29 51.28 206.49 49.63 C 207.27 45.95 206.70 41.93 203.24 39.80 C 202.15 39.35 201.03 38.96 199.90 38.64 Z" />
</g>
<g id="#ae9b76ff">
<path fill="#ae9b76" opacity="1.00" d=" M 212.07 39.11 C 214.05 40.24 215.96 41.61 218.29 41.91 C 217.19 47.99 208.26 43.85 212.07 39.11 Z" />
</g>
<g id="#8d7f3eff">
<path fill="#8d7f3e" opacity="1.00" d=" M 203.24 39.80 C 206.70 41.93 207.27 45.95 206.49 49.63 C 208.29 51.28 209.13 53.04 206.97 54.83 C 205.54 56.66 204.85 58.91 204.06 61.06 C 203.85 61.32 203.41 61.84 203.19 62.10 C 201.16 63.51 198.63 66.34 197.32 62.66 C 193.46 57.71 200.28 54.43 200.88 50.03 C 206.87 49.72 202.83 40.94 200.97 48.32 C 198.99 45.16 201.27 42.24 203.24 39.80 M 199.11 56.08 C 193.95 62.67 207.03 57.79 199.11 56.08 Z" />
</g>
<g id="#2b24149a">
<path fill="#2b2414" opacity="0.60" d=" M 158.80 42.82 C 161.31 41.40 164.33 42.23 167.12 42.06 C 164.77 43.87 161.57 42.65 158.80 42.82 Z" />
</g>
<g id="#3d4a1ec2">
<path fill="#3d4a1e" opacity="0.76" d=" M 226.72 44.73 C 230.54 44.12 234.42 43.55 238.24 44.72 C 234.39 44.86 230.56 45.02 226.72 44.73 Z" />
</g>
<g id="#b5a681ff">
<path fill="#b5a681" opacity="1.00" d=" M 200.97 48.32 C 202.83 40.94 206.87 49.72 200.88 50.03 C 200.90 49.60 200.95 48.75 200.97 48.32 Z" />
</g>
<g id="#78863ef5">
<path fill="#78863e" opacity="0.96" d=" M 221.00 45.14 C 222.90 45.04 224.81 44.90 226.72 44.73 C 230.56 45.02 234.39 44.86 238.24 44.72 C 240.34 44.87 240.80 47.32 241.08 49.00 C 238.25 55.32 228.77 54.42 223.00 56.34 C 222.77 51.42 232.26 53.49 230.94 48.22 C 228.01 46.38 223.68 48.16 221.00 45.14 Z" />
</g>
<g id="#879850fe">
<path fill="#879850" opacity="1.00" d=" M 183.66 62.16 C 181.47 59.24 180.59 50.08 186.46 52.30 C 185.87 55.67 193.51 54.63 189.50 56.41 C 183.03 57.23 191.36 73.01 190.26 60.05 C 195.00 57.44 198.41 68.58 192.84 63.18 C 196.30 70.54 186.58 75.79 188.80 83.10 C 188.55 84.51 188.78 85.99 189.76 87.08 C 190.23 90.43 190.86 93.75 190.97 97.14 C 185.06 96.04 187.13 89.14 182.52 86.38 C 181.48 82.06 189.11 77.55 185.98 72.97 C 181.79 75.44 179.15 79.97 174.85 82.13 C 178.48 77.23 179.51 72.07 178.94 66.13 C 178.89 64.66 177.67 63.87 176.70 62.99 C 177.08 58.78 181.22 63.58 183.66 62.16 Z" />
</g>
<g id="#5a6c2ef5">
<path fill="#5a6c2e" opacity="0.96" d=" M 216.29 53.22 C 218.97 52.31 220.90 55.17 223.00 56.34 C 217.14 59.36 210.85 62.14 204.06 61.06 C 204.85 58.91 205.54 56.66 206.97 54.83 C 209.40 55.21 212.78 54.62 213.74 57.58 C 225.46 60.79 211.96 54.73 216.29 53.22 Z" />
</g>
<g id="#bfad8fff">
<path fill="#bfad8f" opacity="1.00" d=" M 199.11 56.08 C 207.03 57.79 193.95 62.67 199.11 56.08 Z" />
</g>
<g id="#6c7d3cff">
<path fill="#6c7d3c" opacity="1.00" d=" M 169.78 66.20 C 167.03 58.99 176.08 64.80 178.94 66.13 C 179.51 72.07 178.48 77.23 174.85 82.13 C 179.15 79.97 181.79 75.44 185.98 72.97 C 189.11 77.55 181.48 82.06 182.52 86.38 C 187.13 89.14 185.06 96.04 190.97 97.14 C 192.08 98.44 193.22 99.72 194.36 101.00 C 194.16 104.04 190.78 101.81 188.91 102.08 C 188.73 107.71 195.25 108.56 196.85 113.36 C 197.23 118.15 189.03 109.55 190.30 114.85 C 191.11 117.33 188.38 118.58 187.35 120.46 C 186.52 121.89 185.63 123.35 183.97 121.94 C 185.77 117.23 183.96 115.73 180.89 119.97 C 183.04 115.24 180.85 114.35 176.52 116.17 C 179.05 121.36 167.08 120.46 172.09 114.25 C 177.16 113.70 181.90 111.14 187.01 111.83 C 184.77 101.05 172.34 116.16 168.70 106.12 C 172.07 106.48 172.13 102.19 175.72 103.47 C 184.67 105.68 178.99 97.05 184.19 94.21 C 186.87 89.49 174.69 98.77 176.54 91.96 C 173.54 85.75 170.94 98.07 170.75 100.11 C 166.70 99.80 168.22 94.75 166.85 92.15 C 162.91 88.59 157.59 92.59 153.18 92.06 C 150.95 88.66 147.36 85.94 143.15 85.87 C 143.18 85.45 143.24 84.60 143.27 84.18 C 144.61 77.45 146.11 85.58 149.97 85.01 C 152.11 86.31 154.10 88.00 157.04 87.04 C 157.55 81.76 155.77 76.76 154.74 71.68 C 156.00 70.37 157.56 69.45 159.17 70.82 C 163.56 73.91 174.85 74.10 169.78 66.20 Z" />
</g>
<g id="#00000020">
</g>
<g id="#01010018">
</g>
<g id="#454f27ff">
<path fill="#454f27" opacity="1.00" d=" M 149.32 75.71 C 147.62 72.62 152.26 70.51 154.74 71.68 C 155.77 76.76 157.55 81.76 157.04 87.04 C 154.10 88.00 152.11 86.31 149.97 85.01 C 150.40 81.83 151.40 78.45 149.32 75.71 Z" />
</g>
<g id="#20231280">
</g>
<g id="#303c1895">
</g>
<g id="#595f34fe">
<path fill="#595f34" opacity="1.00" d=" M 143.15 85.87 C 147.36 85.94 150.95 88.66 153.18 92.06 C 157.59 92.59 162.91 88.59 166.85 92.15 C 168.22 94.75 166.70 99.80 170.75 100.11 C 170.94 98.07 173.54 85.75 176.54 91.96 C 174.69 98.77 186.87 89.49 184.19 94.21 C 178.99 97.05 184.67 105.68 175.72 103.47 C 172.13 102.19 172.07 106.48 168.70 106.12 C 164.57 104.91 163.27 112.34 159.60 109.61 C 157.63 107.99 158.03 110.69 157.73 111.98 C 154.42 113.68 153.51 112.40 154.57 109.03 C 149.37 106.02 144.76 109.30 144.47 114.61 C 138.00 116.77 138.51 120.74 143.61 123.47 C 142.43 133.22 147.85 124.28 146.64 121.17 C 151.50 120.32 156.20 118.74 161.10 118.04 C 162.48 125.02 149.44 120.03 151.13 126.79 C 153.64 129.24 155.11 136.02 159.08 134.39 C 159.63 134.17 160.73 133.73 161.28 133.51 L 162.20 133.17 C 164.74 132.46 167.35 132.14 169.98 131.95 C 172.97 132.54 172.95 127.46 175.88 128.32 C 175.21 131.42 174.15 134.63 170.67 135.40 C 171.44 140.29 166.64 143.74 168.25 148.91 C 169.54 153.94 159.56 150.51 164.94 154.10 C 170.26 162.85 160.09 157.10 156.25 157.17 C 152.91 159.24 157.85 161.30 159.18 162.94 C 158.11 165.17 153.10 167.46 156.17 169.89 C 162.15 168.54 166.39 161.66 172.73 162.15 C 174.57 163.45 175.41 165.59 175.44 167.79 C 173.09 175.74 183.60 177.67 182.76 185.51 C 180.46 185.37 175.36 190.66 179.70 189.67 C 182.13 187.22 187.09 190.11 186.95 193.27 C 188.16 196.36 187.55 198.50 184.14 199.23 C 185.12 202.23 184.22 203.67 180.91 203.26 C 181.46 205.21 183.85 205.36 185.12 206.69 C 184.20 208.30 183.89 210.16 185.21 211.67 C 184.29 213.31 182.84 214.50 181.17 215.32 C 176.53 209.05 169.45 221.09 176.12 224.02 C 166.84 227.04 171.04 236.60 173.65 243.31 C 170.62 239.21 164.65 238.08 162.26 233.69 C 161.34 230.05 163.79 225.31 167.97 225.63 C 167.94 221.63 163.10 223.71 160.60 223.66 C 152.77 220.39 158.85 231.92 153.08 230.98 C 148.61 230.13 153.34 225.88 152.75 223.32 C 153.35 214.83 143.46 215.61 137.60 214.75 C 134.61 209.29 130.52 200.54 134.61 194.74 C 137.14 195.58 138.91 194.22 140.43 192.37 C 143.38 191.48 146.17 196.44 148.91 193.91 C 151.73 192.05 154.15 189.61 157.13 188.00 C 161.82 187.28 163.99 194.00 169.17 191.96 C 168.35 188.72 166.78 185.61 167.39 182.17 C 165.05 179.74 162.06 177.99 158.83 177.03 C 160.02 179.02 161.65 180.81 162.12 183.15 C 159.71 182.32 158.06 180.23 155.76 179.18 C 149.82 175.33 140.98 178.25 136.53 171.83 C 137.31 177.11 135.23 180.73 129.60 178.31 C 128.33 173.38 131.59 168.55 133.37 164.05 C 134.26 162.69 133.83 161.11 133.32 159.71 C 133.36 152.65 135.64 144.65 130.43 138.89 C 130.05 137.89 129.68 136.88 129.31 135.88 C 129.08 131.86 128.93 127.84 128.86 123.82 C 130.33 119.60 132.66 115.76 135.13 112.06 C 136.21 110.50 137.28 108.89 138.03 107.12 C 138.85 104.45 138.67 101.58 138.96 98.83 C 139.26 97.21 139.76 95.64 140.21 94.06 C 141.13 92.58 141.90 91.00 142.29 89.29 C 142.60 88.16 142.89 87.02 143.15 85.87 Z" />
</g>
<g id="#282a178e">
</g>
<g id="#685f30fa">
<path fill="#685f30" opacity="0.98" d=" M 194.36 101.00 C 198.01 103.42 203.14 102.40 206.24 105.70 C 201.34 106.01 197.29 108.08 196.85 113.36 C 195.25 108.56 188.73 107.71 188.91 102.08 C 190.78 101.81 194.16 104.04 194.36 101.00 Z" />
</g>
<g id="#0000002b">
</g>
<g id="#818d49ff">
<path fill="#818d49" opacity="1.00" d=" M 159.60 109.61 C 163.27 112.34 164.57 104.91 168.70 106.12 C 172.34 116.16 184.77 101.05 187.01 111.83 C 181.90 111.14 177.16 113.70 172.09 114.25 C 167.08 120.46 179.05 121.36 176.52 116.17 C 180.85 114.35 183.04 115.24 180.89 119.97 C 183.96 115.73 185.77 117.23 183.97 121.94 C 180.71 117.63 175.12 127.55 176.58 121.61 C 177.99 118.58 173.93 120.26 174.56 122.33 C 175.16 126.47 169.53 126.41 168.75 129.92 C 167.10 122.76 162.45 117.28 157.73 111.98 C 158.03 110.69 157.63 107.99 159.60 109.61 Z" />
</g>
<g id="#7f7d3ffe">
<path fill="#7f7d3f" opacity="1.00" d=" M 196.85 113.36 C 197.29 108.08 201.34 106.01 206.24 105.70 C 212.79 110.84 210.46 119.69 210.10 126.77 C 217.60 130.40 222.54 137.01 228.13 142.96 C 223.96 142.81 222.55 137.03 217.89 137.93 C 218.26 140.34 219.51 142.46 220.23 144.76 C 217.89 144.33 214.47 144.54 215.62 141.21 C 213.03 140.22 209.97 140.08 207.28 138.99 C 206.81 140.99 206.40 143.00 206.07 145.03 C 207.90 144.33 209.62 143.34 211.56 142.94 C 210.85 147.45 216.77 149.92 215.47 154.36 C 214.91 156.11 216.05 157.65 216.74 159.17 C 213.47 160.43 211.17 159.99 211.71 155.92 C 208.59 156.28 207.96 160.05 206.07 162.04 C 205.66 160.99 204.52 160.03 205.01 158.82 C 205.57 156.54 207.09 153.50 204.31 152.36 C 199.48 147.05 197.99 152.83 198.64 157.58 C 194.29 160.85 190.22 157.80 185.73 157.07 C 185.11 155.04 187.23 150.80 183.63 152.58 C 177.81 155.74 186.41 144.29 181.40 148.37 C 177.52 149.55 178.83 155.61 173.94 154.00 C 174.25 147.79 184.76 147.15 183.37 140.57 C 181.08 138.49 181.64 135.60 181.92 132.86 C 177.72 134.53 172.33 140.33 174.30 144.86 C 171.51 146.08 170.96 154.04 168.25 148.91 C 166.64 143.74 171.44 140.29 170.67 135.40 C 174.15 134.63 175.21 131.42 175.88 128.32 C 179.82 129.83 178.57 122.26 182.81 124.02 C 184.60 127.19 184.78 131.10 186.83 134.12 C 189.83 137.39 201.12 130.89 197.68 137.58 C 199.32 139.31 200.84 141.17 202.14 143.18 C 195.70 142.69 192.93 136.27 185.94 136.10 C 181.04 135.67 186.42 140.16 188.98 139.39 C 186.14 145.43 186.39 157.93 196.04 156.86 C 195.96 152.12 192.10 142.79 201.30 146.69 C 205.83 148.32 205.50 144.84 202.14 143.18 C 203.64 141.10 206.40 139.41 206.05 135.95 C 200.70 140.41 199.71 131.75 198.26 128.05 C 201.25 124.68 206.05 130.13 202.28 132.73 C 205.21 133.07 207.47 134.95 210.05 136.17 C 208.07 131.31 209.22 126.17 207.87 121.33 C 208.05 119.51 209.84 117.20 208.18 115.65 C 206.66 113.62 199.65 106.32 201.28 112.83 C 203.70 116.30 200.31 121.96 205.94 122.17 C 203.68 130.40 199.53 120.09 196.74 117.15 C 193.21 117.06 190.80 120.36 187.35 120.46 C 188.38 118.58 191.11 117.33 190.30 114.85 C 189.03 109.55 197.23 118.15 196.85 113.36 Z" />
</g>
<g id="#69703fff">
<path fill="#69703f" opacity="1.00" d=" M 144.47 114.61 C 144.76 109.30 149.37 106.02 154.57 109.03 C 153.51 112.40 154.42 113.68 157.73 111.98 C 162.45 117.28 167.10 122.76 168.75 129.92 C 169.06 130.43 169.67 131.44 169.98 131.95 C 167.35 132.14 164.74 132.46 162.20 133.17 C 163.14 131.56 162.39 130.22 161.20 129.05 C 162.89 128.77 165.88 129.65 165.03 126.88 C 166.22 122.92 160.80 122.88 158.32 123.13 C 154.24 125.66 155.02 132.27 159.08 134.39 C 155.11 136.02 153.64 129.24 151.13 126.79 C 149.44 120.03 162.48 125.02 161.10 118.04 C 156.20 118.74 151.50 120.32 146.64 121.17 C 147.85 124.28 142.43 133.22 143.61 123.47 C 138.51 120.74 138.00 116.77 144.47 114.61 Z" />
</g>
<g id="#919a62ff">
<path fill="#919a62" opacity="1.00" d=" M 201.28 112.83 C 199.65 106.32 206.66 113.62 208.18 115.65 C 203.45 114.72 204.75 120.17 207.87 121.33 C 209.22 126.17 208.07 131.31 210.05 136.17 C 207.47 134.95 205.21 133.07 202.28 132.73 C 206.05 130.13 201.25 124.68 198.26 128.05 C 199.71 131.75 200.70 140.41 206.05 135.95 C 206.40 139.41 203.64 141.10 202.14 143.18 C 200.84 141.17 199.32 139.31 197.68 137.58 C 201.12 130.89 189.83 137.39 186.83 134.12 C 184.78 131.10 184.60 127.19 182.81 124.02 C 178.57 122.26 179.82 129.83 175.88 128.32 C 172.95 127.46 172.97 132.54 169.98 131.95 C 169.67 131.44 169.06 130.43 168.75 129.92 C 169.53 126.41 175.16 126.47 174.56 122.33 C 173.93 120.26 177.99 118.58 176.58 121.61 C 175.12 127.55 180.71 117.63 183.97 121.94 C 185.63 123.35 186.52 121.89 187.35 120.46 C 190.80 120.36 193.21 117.06 196.74 117.15 C 199.53 120.09 203.68 130.40 205.94 122.17 C 200.31 121.96 203.70 116.30 201.28 112.83 Z" />
</g>
<g id="#c2b093ff">
<path fill="#c2b093" opacity="1.00" d=" M 207.87 121.33 C 204.75 120.17 203.45 114.72 208.18 115.65 C 209.84 117.20 208.05 119.51 207.87 121.33 Z" />
</g>
<g id="#8e7d54ff">
<path fill="#8e7d54" opacity="1.00" d=" M 158.32 123.13 C 160.80 122.88 166.22 122.92 165.03 126.88 C 160.42 124.59 156.48 132.44 161.28 133.51 C 160.73 133.73 159.63 134.17 159.08 134.39 C 155.02 132.27 154.24 125.66 158.32 123.13 Z" />
</g>
<g id="#0000003b">
</g>
<g id="#c0b59bff">
<path fill="#c0b59b" opacity="1.00" d=" M 161.28 133.51 C 156.48 132.44 160.42 124.59 165.03 126.88 C 165.88 129.65 162.89 128.77 161.20 129.05 C 162.39 130.22 163.14 131.56 162.20 133.17 L 161.28 133.51 Z" />
</g>
<g id="#697440ff">
<path fill="#697440" opacity="1.00" d=" M 174.30 144.86 C 172.33 140.33 177.72 134.53 181.92 132.86 C 181.64 135.60 181.08 138.49 183.37 140.57 C 184.76 147.15 174.25 147.79 173.94 154.00 C 178.83 155.61 177.52 149.55 181.40 148.37 C 186.41 144.29 177.81 155.74 183.63 152.58 C 187.23 150.80 185.11 155.04 185.73 157.07 C 185.82 157.74 186.00 159.09 186.09 159.77 C 186.09 160.22 186.09 161.13 186.09 161.58 C 184.40 165.60 184.55 170.17 189.84 168.97 C 191.19 170.63 190.23 172.39 189.43 174.05 C 188.01 176.96 185.88 180.15 190.63 178.30 C 192.06 182.05 193.14 186.53 198.05 184.23 C 200.27 189.33 194.28 192.97 197.20 197.76 C 196.87 198.12 196.22 198.85 195.90 199.21 C 194.43 196.62 192.57 186.55 192.80 198.10 C 188.35 197.96 192.40 187.17 186.95 193.27 C 187.09 190.11 182.13 187.22 179.70 189.67 C 175.36 190.66 180.46 185.37 182.76 185.51 C 183.60 177.67 173.09 175.74 175.44 167.79 C 175.41 165.59 174.57 163.45 172.73 162.15 C 166.39 161.66 162.15 168.54 156.17 169.89 C 153.10 167.46 158.11 165.17 159.18 162.94 C 157.85 161.30 152.91 159.24 156.25 157.17 C 160.09 157.10 170.26 162.85 164.94 154.10 C 159.56 150.51 169.54 153.94 168.25 148.91 C 170.96 154.04 171.51 146.08 174.30 144.86 Z" />
</g>
<g id="#0000004e">
</g>
<g id="#0000005c">
</g>
<g id="#686731ff">
<path fill="#686731" opacity="1.00" d=" M 188.98 139.39 C 186.42 140.16 181.04 135.67 185.94 136.10 C 192.93 136.27 195.70 142.69 202.14 143.18 C 205.50 144.84 205.83 148.32 201.30 146.69 C 192.10 142.79 195.96 152.12 196.04 156.86 C 186.39 157.93 186.14 145.43 188.98 139.39 Z" />
</g>
<g id="#85924efd">
<path fill="#85924e" opacity="1.00" d=" M 217.89 137.93 C 222.55 137.03 223.96 142.81 228.13 142.96 C 235.64 148.35 239.01 158.88 238.00 167.89 C 236.80 168.04 235.61 168.16 234.41 168.25 C 231.72 166.14 226.86 164.89 229.02 159.97 C 228.29 155.15 227.62 161.49 227.87 163.34 C 224.62 162.63 221.85 156.45 226.89 156.61 C 224.79 150.81 218.16 155.64 220.13 161.02 C 218.69 163.26 217.75 160.16 216.74 159.17 C 216.05 157.65 214.91 156.11 215.47 154.36 C 216.77 149.92 210.85 147.45 211.56 142.94 C 209.62 143.34 207.90 144.33 206.07 145.03 C 206.40 143.00 206.81 140.99 207.28 138.99 C 209.97 140.08 213.03 140.22 215.62 141.21 C 214.47 144.54 217.89 144.33 220.23 144.76 C 219.51 142.46 218.26 140.34 217.89 137.93 Z" />
</g>
<g id="#0101006f">
</g>
<g id="#8d9258ff">
<path fill="#8d9258" opacity="1.00" d=" M 198.64 157.58 C 197.99 152.83 199.48 147.05 204.31 152.36 C 199.31 153.02 201.21 158.06 205.01 158.82 C 204.52 160.03 205.66 160.99 206.07 162.04 C 200.96 157.61 195.01 171.61 196.65 162.10 C 192.81 163.95 189.30 161.83 186.09 159.77 C 186.00 159.09 185.82 157.74 185.73 157.07 C 190.22 157.80 194.29 160.85 198.64 157.58 Z" />
</g>
<g id="#c6b59aff">
<path fill="#c6b59a" opacity="1.00" d=" M 205.01 158.82 C 201.21 158.06 199.31 153.02 204.31 152.36 C 207.09 153.50 205.57 156.54 205.01 158.82 Z" />
</g>
<g id="#635321ff">
<path fill="#635321" opacity="1.00" d=" M 220.13 161.02 C 218.16 155.64 224.79 150.81 226.89 156.61 C 221.85 156.45 224.62 162.63 227.87 163.34 C 228.07 166.42 220.77 163.82 220.13 161.02 Z" />
</g>
<g id="#00000040">
</g>
<g id="#707938fe">
<path fill="#707938" opacity="1.00" d=" M 206.07 162.04 C 207.96 160.05 208.59 156.28 211.71 155.92 C 211.17 159.99 213.47 160.43 216.74 159.17 C 217.75 160.16 218.69 163.26 220.13 161.02 C 220.77 163.82 228.07 166.42 227.87 163.34 C 227.62 161.49 228.29 155.15 229.02 159.97 C 226.86 164.89 231.72 166.14 234.41 168.25 C 230.46 167.96 225.05 164.55 222.95 169.97 C 219.03 177.21 233.27 167.90 232.24 173.99 C 233.72 172.06 235.24 170.31 237.23 172.78 C 240.13 171.93 242.97 169.13 246.08 167.85 C 247.68 168.30 249.36 168.16 250.98 167.85 C 256.12 171.09 263.99 171.21 266.74 177.38 C 269.14 181.90 265.04 184.77 262.02 186.88 C 262.99 183.18 263.40 178.48 260.82 175.37 C 256.26 177.23 249.96 167.76 251.19 178.21 C 250.56 172.43 240.19 173.54 239.81 178.97 C 233.94 173.21 231.24 186.33 235.17 189.96 C 237.71 189.28 240.77 188.10 241.35 185.23 C 243.02 189.15 246.52 189.47 249.88 187.31 C 250.31 188.83 250.57 190.40 251.02 191.92 C 253.64 189.75 256.68 188.07 260.19 188.11 C 256.04 191.34 251.19 193.54 246.25 195.23 C 243.63 195.92 238.10 193.09 237.87 196.96 C 235.01 195.75 222.87 202.94 231.39 201.42 C 227.05 208.25 215.76 204.10 213.75 212.05 C 205.77 209.62 221.52 201.13 209.00 203.95 C 203.80 202.31 204.70 210.63 208.88 210.25 C 210.22 210.54 211.71 213.05 209.94 213.84 C 207.97 212.49 206.07 210.80 203.51 210.95 C 203.26 208.63 201.73 206.81 199.31 206.72 C 197.70 205.93 192.96 203.84 196.42 202.45 C 200.28 206.64 199.76 199.20 195.90 199.21 C 196.22 198.85 196.87 198.12 197.20 197.76 C 199.80 198.37 201.18 201.24 204.03 201.19 C 203.19 197.30 197.15 193.81 201.38 190.32 C 206.00 188.05 201.54 197.45 205.59 197.48 C 208.00 195.11 208.65 199.17 211.09 199.11 C 211.83 195.52 206.45 193.56 209.11 190.15 C 211.23 191.32 213.57 191.72 215.97 191.55 C 217.00 194.26 214.59 193.48 212.79 193.23 C 214.34 195.78 217.75 200.04 217.65 194.52 C 222.82 193.72 218.81 189.11 220.94 186.18 C 227.51 191.86 227.45 179.18 224.25 175.76 C 218.61 172.42 224.11 180.95 224.03 184.09 C 221.63 184.54 221.93 181.99 221.35 180.44 C 217.69 181.45 217.52 175.73 214.18 176.03 C 211.95 177.52 215.21 182.56 211.20 181.95 C 208.89 178.28 213.00 174.77 211.10 171.08 C 208.49 173.05 205.57 174.29 202.20 174.28 C 201.08 177.48 206.05 174.35 207.82 175.05 C 210.69 177.58 205.70 179.51 204.95 182.03 C 205.89 184.09 207.17 185.98 208.03 188.08 C 199.24 188.56 201.20 175.68 197.91 169.89 C 194.86 172.37 194.02 177.24 189.43 174.05 C 190.23 172.39 191.19 170.63 189.84 168.97 C 189.85 166.06 194.52 168.07 194.05 165.05 C 190.28 166.36 187.28 165.64 186.09 161.58 C 186.09 161.13 186.09 160.22 186.09 159.77 C 189.30 161.83 192.81 163.95 196.65 162.10 C 195.01 171.61 200.96 157.61 206.07 162.04 M 229.24 177.15 C 227.74 180.39 225.43 187.11 227.64 188.60 C 231.55 184.31 228.22 192.20 232.05 190.98 C 230.97 186.33 231.64 181.68 231.99 176.98 C 231.30 177.02 229.93 177.11 229.24 177.15 Z" />
</g>
<g id="#00000036">
</g>
<g id="#8f935fff">
<path fill="#8f935f" opacity="1.00" d=" M 186.09 161.58 C 187.28 165.64 190.28 166.36 194.05 165.05 C 194.52 168.07 189.85 166.06 189.84 168.97 C 184.55 170.17 184.40 165.60 186.09 161.58 Z" />
</g>
<g id="#545f28fb">
<path fill="#545f28" opacity="1.00" d=" M 222.95 169.97 C 225.05 164.55 230.46 167.96 234.41 168.25 C 235.61 168.16 236.80 168.04 238.00 167.89 C 240.70 167.60 243.37 167.35 246.09 167.13 L 246.08 167.85 C 242.97 169.13 240.13 171.93 237.23 172.78 C 235.24 170.31 233.72 172.06 232.24 173.99 C 233.27 167.90 219.03 177.21 222.95 169.97 Z" />
</g>
<g id="#0000002e">
</g>
<g id="#1f240e88">
</g>
<g id="#8a965aff">
<path fill="#8a965a" opacity="1.00" d=" M 189.43 174.05 C 194.02 177.24 194.86 172.37 197.91 169.89 C 201.20 175.68 199.24 188.56 208.03 188.08 C 207.17 185.98 205.89 184.09 204.95 182.03 C 205.70 179.51 210.69 177.58 207.82 175.05 C 206.05 174.35 201.08 177.48 202.20 174.28 C 205.57 174.29 208.49 173.05 211.10 171.08 C 213.00 174.77 208.89 178.28 211.20 181.95 C 215.21 182.56 211.95 177.52 214.18 176.03 C 217.52 175.73 217.69 181.45 221.35 180.44 C 221.93 181.99 221.63 184.54 224.03 184.09 C 224.11 180.95 218.61 172.42 224.25 175.76 C 227.45 179.18 227.51 191.86 220.94 186.18 C 218.81 189.11 222.82 193.72 217.65 194.52 C 217.75 200.04 214.34 195.78 212.79 193.23 C 214.59 193.48 217.00 194.26 215.97 191.55 C 213.57 191.72 211.23 191.32 209.11 190.15 C 206.45 193.56 211.83 195.52 211.09 199.11 C 208.65 199.17 208.00 195.11 205.59 197.48 C 201.54 197.45 206.00 188.05 201.38 190.32 C 197.15 193.81 203.19 197.30 204.03 201.19 C 201.18 201.24 199.80 198.37 197.20 197.76 C 194.28 192.97 200.27 189.33 198.05 184.23 C 193.14 186.53 192.06 182.05 190.63 178.30 C 185.88 180.15 188.01 176.96 189.43 174.05 Z" />
</g>
<g id="#474b25fd">
<path fill="#474b25" opacity="1.00" d=" M 136.53 171.83 C 140.98 178.25 149.82 175.33 155.76 179.18 C 158.06 180.23 159.71 182.32 162.12 183.15 C 161.65 180.81 160.02 179.02 158.83 177.03 C 162.06 177.99 165.05 179.74 167.39 182.17 C 166.78 185.61 168.35 188.72 169.17 191.96 C 163.99 194.00 161.82 187.28 157.13 188.00 C 154.15 189.61 151.73 192.05 148.91 193.91 C 146.17 196.44 143.38 191.48 140.43 192.37 C 138.91 194.22 137.14 195.58 134.61 194.74 C 136.09 192.26 138.66 190.18 138.99 187.19 C 134.95 185.19 130.01 183.63 129.60 178.31 C 135.23 180.73 137.31 177.11 136.53 171.83 Z" />
</g>
<g id="#90a155ff">
<path fill="#90a155" opacity="1.00" d=" M 251.19 178.21 C 249.96 167.76 256.26 177.23 260.82 175.37 C 263.40 178.48 262.99 183.18 262.02 186.88 C 261.56 187.19 260.65 187.80 260.19 188.11 C 256.68 188.07 253.64 189.75 251.02 191.92 C 250.57 190.40 250.31 188.83 249.88 187.31 C 246.52 189.47 243.02 189.15 241.35 185.23 C 240.77 188.10 237.71 189.28 235.17 189.96 C 231.24 186.33 233.94 173.21 239.81 178.97 C 240.19 173.54 250.56 172.43 251.19 178.21 C 247.11 174.84 246.77 183.92 246.98 185.87 C 249.89 185.45 252.81 185.50 255.73 185.73 C 260.93 182.90 255.06 175.06 251.19 178.21 Z" />
</g>
<g id="#869b5cff">
<path fill="#869b5c" opacity="1.00" d=" M 229.24 177.15 C 229.93 177.11 231.30 177.02 231.99 176.98 C 231.64 181.68 230.97 186.33 232.05 190.98 C 228.22 192.20 231.55 184.31 227.64 188.60 C 225.43 187.11 227.74 180.39 229.24 177.15 Z" />
</g>
<g id="#afbd76ff">
<path fill="#afbd76" opacity="1.00" d=" M 246.98 185.87 C 246.77 183.92 247.11 174.84 251.19 178.21 C 255.06 175.06 260.93 182.90 255.73 185.73 C 252.81 185.50 249.89 185.45 246.98 185.87 Z" />
</g>
<g id="#818c4aff">
<path fill="#818c4a" opacity="1.00" d=" M 186.95 193.27 C 192.40 187.17 188.35 197.96 192.80 198.10 C 192.57 186.55 194.43 196.62 195.90 199.21 C 199.76 199.20 200.28 206.64 196.42 202.45 C 192.96 203.84 197.70 205.93 199.31 206.72 C 196.43 206.56 193.66 205.69 192.10 203.10 C 190.60 207.52 190.48 211.95 196.03 212.53 C 192.14 214.24 187.01 215.40 185.76 220.11 C 181.23 222.09 178.22 220.10 181.17 215.32 C 182.84 214.50 184.29 213.31 185.21 211.67 C 186.98 210.02 187.55 208.03 185.12 206.69 C 183.85 205.36 181.46 205.21 180.91 203.26 C 184.22 203.67 185.12 202.23 184.14 199.23 C 187.55 198.50 188.16 196.36 186.95 193.27 Z" />
</g>
<g id="#3c4520a4">
<path fill="#3c4520" opacity="0.64" d=" M 237.87 196.96 C 238.10 193.09 243.63 195.92 246.25 195.23 C 233.91 193.29 240.88 206.98 238.17 214.20 C 238.12 208.45 237.97 202.70 237.87 196.96 Z" />
</g>
<g id="#828c49fe">
<path fill="#828c49" opacity="1.00" d=" M 231.39 201.42 C 222.87 202.94 235.01 195.75 237.87 196.96 C 237.97 202.70 238.12 208.45 238.17 214.20 C 237.08 217.67 236.03 221.23 234.21 224.40 C 230.61 225.89 229.73 221.31 227.38 219.61 C 226.45 217.86 227.12 213.27 224.22 214.21 C 220.10 215.88 231.27 222.64 220.62 218.24 C 215.37 214.14 217.16 228.45 212.33 223.38 C 211.05 226.75 208.26 229.35 207.22 233.03 C 208.79 234.43 211.53 232.27 212.46 234.64 C 210.44 235.01 208.45 235.42 206.45 235.86 C 205.17 232.79 201.94 233.22 199.29 233.75 C 196.82 230.38 186.58 231.75 192.04 225.43 C 188.32 226.96 187.94 222.32 186.65 219.92 C 190.27 218.40 193.88 215.85 198.00 216.70 C 195.57 210.70 200.11 213.37 203.51 210.95 C 206.07 210.80 207.97 212.49 209.94 213.84 C 211.71 213.05 210.22 210.54 208.88 210.25 C 204.70 210.63 203.80 202.31 209.00 203.95 C 221.52 201.13 205.77 209.62 213.75 212.05 C 215.76 204.10 227.05 208.25 231.39 201.42 Z" />
</g>
<g id="#98a860ff">
<path fill="#98a860" opacity="1.00" d=" M 192.10 203.10 C 193.66 205.69 196.43 206.56 199.31 206.72 C 201.73 206.81 203.26 208.63 203.51 210.95 C 200.11 213.37 195.57 210.70 198.00 216.70 C 193.88 215.85 190.27 218.40 186.65 219.92 L 185.76 220.11 C 187.01 215.40 192.14 214.24 196.03 212.53 C 190.48 211.95 190.60 207.52 192.10 203.10 Z" />
</g>
<g id="#6f7f48f7">
<path fill="#6f7f48" opacity="0.97" d=" M 316.93 205.00 C 323.14 203.15 325.22 215.42 319.23 218.14 C 315.21 220.02 310.47 219.76 306.86 217.04 C 305.76 211.58 314.32 212.08 318.15 212.72 C 317.39 210.17 315.66 207.71 316.93 205.00 Z" />
</g>
<g id="#445227f0">
<path fill="#445227" opacity="0.94" d=" M 303.15 215.01 C 307.81 211.77 312.21 208.15 316.93 205.00 C 315.66 207.71 317.39 210.17 318.15 212.72 C 314.32 212.08 305.76 211.58 306.86 217.04 C 305.18 219.89 301.53 218.45 298.76 218.80 C 300.26 217.58 301.73 216.32 303.15 215.01 Z" />
</g>
<g id="#bbb394ff">
<path fill="#bbb394" opacity="1.00" d=" M 185.12 206.69 C 187.55 208.03 186.98 210.02 185.21 211.67 C 183.89 210.16 184.20 208.30 185.12 206.69 Z" />
</g>
<g id="#767939ff">
<path fill="#767939" opacity="1.00" d=" M 176.12 224.02 C 169.45 221.09 176.53 209.05 181.17 215.32 C 178.22 220.10 181.23 222.09 185.76 220.11 L 186.65 219.92 C 187.94 222.32 188.32 226.96 192.04 225.43 C 186.58 231.75 196.82 230.38 199.29 233.75 C 195.59 236.00 191.51 237.11 187.18 237.23 C 187.87 241.95 184.46 249.59 191.03 250.54 C 183.67 258.04 181.54 243.81 183.96 238.94 C 173.22 241.55 187.37 250.48 182.02 256.18 C 179.61 251.62 175.06 248.40 173.65 243.31 C 171.04 236.60 166.84 227.04 176.12 224.02 M 173.22 227.12 C 171.26 230.36 170.72 236.31 175.82 235.98 C 177.03 232.35 177.43 231.90 180.76 234.07 C 179.79 227.08 186.21 235.38 186.96 231.07 C 185.75 228.95 183.18 226.64 180.36 228.61 C 177.69 229.24 175.98 225.89 173.22 227.12 Z" />
</g>
<g id="#4e5027fb">
<path fill="#4e5027" opacity="1.00" d=" M 137.60 214.75 C 143.46 215.61 153.35 214.83 152.75 223.32 C 153.34 225.88 148.61 230.13 153.08 230.98 C 158.85 231.92 152.77 220.39 160.60 223.66 C 163.10 223.71 167.94 221.63 167.97 225.63 C 163.79 225.31 161.34 230.05 162.26 233.69 C 164.65 238.08 170.62 239.21 173.65 243.31 C 175.06 248.40 179.61 251.62 182.02 256.18 L 182.42 256.87 C 181.93 257.95 181.41 259.02 180.84 260.07 C 176.11 256.99 172.19 252.40 169.98 247.19 C 166.46 241.98 157.79 242.73 152.23 242.09 C 148.26 249.19 152.74 257.69 159.50 261.43 C 161.27 265.19 165.34 265.95 169.03 264.32 C 172.29 263.81 175.11 264.04 173.14 259.86 C 177.37 261.48 178.02 272.74 181.73 266.21 C 181.62 273.60 188.42 265.13 190.01 270.94 C 189.07 272.98 187.71 274.80 186.85 276.88 C 190.72 279.30 195.81 281.61 200.27 279.31 C 201.57 278.69 202.76 277.89 203.98 277.15 C 206.85 275.07 210.03 275.00 212.28 278.02 C 210.88 280.21 208.39 281.14 206.28 282.47 C 205.61 285.07 207.97 287.24 208.90 289.51 C 206.80 288.24 205.01 286.57 203.19 284.95 C 199.94 278.87 192.48 282.22 187.15 279.82 C 178.79 276.32 169.57 274.41 162.13 269.00 C 158.28 265.40 153.03 263.03 151.25 257.72 C 150.87 256.47 150.49 255.21 150.10 253.97 L 150.03 253.03 C 150.02 252.54 150.00 251.56 149.99 251.06 C 153.13 240.53 147.42 232.26 142.43 223.88 C 142.11 222.22 141.93 220.52 141.30 218.95 C 140.13 217.49 138.79 216.19 137.60 214.75 Z" />
</g>
<g id="#8c9a64ff">
<path fill="#8c9a64" opacity="1.00" d=" M 224.22 214.21 C 227.12 213.27 226.45 217.86 227.38 219.61 C 225.73 220.30 218.93 221.11 221.97 222.89 C 226.91 221.98 222.24 225.96 223.80 228.56 C 219.98 228.40 215.67 227.54 212.42 230.11 C 213.02 231.63 213.87 233.14 213.40 234.82 L 212.46 234.64 C 211.53 232.27 208.79 234.43 207.22 233.03 C 208.26 229.35 211.05 226.75 212.33 223.38 C 217.16 228.45 215.37 214.14 220.62 218.24 C 231.27 222.64 220.10 215.88 224.22 214.21 Z" />
</g>
<g id="#556837fd">
<path fill="#556837" opacity="1.00" d=" M 298.76 218.80 C 301.53 218.45 305.18 219.89 306.86 217.04 C 310.47 219.76 315.21 220.02 319.23 218.14 C 315.91 222.50 308.46 223.59 306.96 228.93 C 311.25 232.17 309.66 236.06 305.68 238.61 C 307.25 238.95 310.40 239.63 311.97 239.96 C 295.65 238.42 317.86 248.14 308.02 252.43 C 307.75 251.86 307.21 250.72 306.94 250.15 C 306.01 245.81 302.51 243.12 298.00 243.78 C 300.93 238.09 289.05 244.66 290.06 239.02 C 290.48 236.53 290.60 233.46 293.00 232.03 C 296.77 229.78 294.37 224.46 294.89 220.84 C 296.07 219.98 297.43 219.40 298.76 218.80 Z" />
</g>
<g id="#5f733cfa">
<path fill="#5f733c" opacity="0.98" d=" M 331.98 221.86 C 337.30 220.30 342.50 214.60 348.00 217.85 C 340.61 217.36 333.91 222.98 331.65 229.79 C 335.42 226.00 334.21 230.99 336.99 232.49 C 335.83 235.29 332.62 235.27 330.08 235.85 C 329.48 233.81 328.87 231.76 327.86 229.89 C 325.58 230.63 324.17 232.75 322.12 233.89 C 321.84 233.34 321.29 232.24 321.02 231.69 C 322.06 225.83 329.37 226.35 331.98 221.86 Z" />
</g>
<g id="#829255f9">
<path fill="#829255" opacity="0.98" d=" M 331.65 229.79 C 333.91 222.98 340.61 217.36 348.00 217.85 C 354.47 225.61 342.98 229.33 337.73 232.52 L 336.99 232.49 C 334.21 230.99 335.42 226.00 331.65 229.79 Z" />
</g>
<g id="#0000005f">
</g>
<g id="#797739fc">
<path fill="#797739" opacity="1.00" d=" M 221.97 222.89 C 218.93 221.11 225.73 220.30 227.38 219.61 C 229.73 221.31 230.61 225.89 234.21 224.40 C 231.42 229.32 226.11 233.21 224.92 238.83 C 224.49 241.97 226.79 244.28 229.10 245.97 C 226.99 246.54 222.64 249.63 224.40 245.35 C 223.90 241.66 221.23 238.02 221.37 233.77 C 218.94 234.42 215.97 238.71 219.98 239.15 C 222.84 240.61 219.11 243.24 217.41 244.17 C 218.38 234.62 206.62 242.17 210.14 247.00 C 212.67 246.35 214.99 245.11 217.41 244.17 C 214.88 248.06 204.55 256.34 203.84 247.95 C 205.73 250.97 209.29 250.42 207.61 246.52 C 202.00 240.27 219.12 238.54 213.40 234.82 C 213.87 233.14 213.02 231.63 212.42 230.11 C 215.67 227.54 219.98 228.40 223.80 228.56 C 222.24 225.96 226.91 221.98 221.97 222.89 Z" />
</g>
<g id="#414820fb">
<path fill="#414820" opacity="1.00" d=" M 282.30 242.34 C 286.79 235.52 287.63 225.65 294.89 220.84 C 294.37 224.46 296.77 229.78 293.00 232.03 C 290.60 233.46 290.48 236.53 290.06 239.02 C 289.05 244.66 300.93 238.09 298.00 243.78 C 288.46 246.04 296.55 256.63 298.01 261.95 C 297.26 265.97 294.44 261.51 292.45 260.75 C 286.69 259.93 285.11 256.21 283.94 251.07 C 281.38 252.24 281.38 257.33 277.96 257.95 C 274.23 258.28 275.33 251.56 273.60 249.93 C 267.65 252.89 262.69 257.45 258.62 262.70 C 257.57 264.63 256.90 266.70 256.61 268.93 C 254.02 269.99 252.34 265.86 250.00 267.92 C 246.25 270.24 250.90 276.14 246.89 277.90 C 243.32 281.40 245.76 273.35 243.06 271.93 C 238.57 267.19 245.61 260.64 248.24 256.22 C 248.82 256.83 249.34 258.16 250.19 257.06 C 260.05 250.52 272.49 249.02 282.30 242.34 Z" />
</g>
<g id="#445327f6">
<path fill="#445327" opacity="0.96" d=" M 306.96 228.93 C 316.17 232.35 323.96 224.85 331.98 221.86 C 329.37 226.35 322.06 225.83 321.02 231.69 C 316.94 234.02 310.91 237.73 316.42 242.27 C 315.33 242.47 314.23 242.41 313.15 242.21 C 312.86 241.65 312.27 240.53 311.97 239.96 C 310.40 239.63 307.25 238.95 305.68 238.61 C 309.66 236.06 311.25 232.17 306.96 228.93 Z" />
</g>
<g id="#01010075">
</g>
<g id="#0000002a">
</g>
<g id="#97965bff">
<path fill="#97965b" opacity="1.00" d=" M 173.22 227.12 C 175.98 225.89 177.69 229.24 180.36 228.61 C 183.18 226.64 185.75 228.95 186.96 231.07 C 186.21 235.38 179.79 227.08 180.76 234.07 C 177.43 231.90 177.03 232.35 175.82 235.98 C 170.72 236.31 171.26 230.36 173.22 227.12 Z" />
</g>
<g id="#35461de4">
<path fill="#35461d" opacity="0.89" d=" M 337.73 232.52 C 343.96 233.76 349.07 226.56 355.18 228.54 C 348.60 229.67 343.61 234.65 337.20 236.02 C 333.73 237.52 330.52 239.58 327.11 241.20 C 326.63 238.75 328.13 237.06 330.08 235.85 C 332.62 235.27 335.83 235.29 336.99 232.49 L 337.73 232.52 Z" />
</g>
<g id="#839152fd">
<path fill="#839152" opacity="1.00" d=" M 337.20 236.02 C 343.61 234.65 348.60 229.67 355.18 228.54 C 356.10 229.54 356.85 230.70 357.61 231.85 C 356.46 233.28 356.20 235.37 357.26 236.94 C 354.89 238.49 352.51 240.02 349.97 241.27 C 344.20 245.76 334.55 246.40 330.66 252.89 C 330.08 258.66 324.02 254.66 323.11 251.14 C 327.04 247.60 330.79 243.47 336.15 242.18 C 339.41 241.92 337.19 238.24 337.20 236.02 Z" />
</g>
<g id="#7f864bff">
<path fill="#7f864b" opacity="1.00" d=" M 322.12 233.89 C 324.17 232.75 325.58 230.63 327.86 229.89 C 328.87 231.76 329.48 233.81 330.08 235.85 C 328.13 237.06 326.63 238.75 327.11 241.20 C 328.42 245.71 318.23 249.14 320.41 243.37 C 321.50 240.75 317.79 242.48 316.42 242.27 C 310.91 237.73 316.94 234.02 321.02 231.69 C 321.29 232.24 321.84 233.34 322.12 233.89 C 316.77 236.91 321.47 242.52 326.19 242.94 C 325.99 239.52 323.90 236.66 322.12 233.89 Z" />
</g>
<g id="#58552ba3">
<path fill="#58552b" opacity="0.64" d=" M 357.61 231.85 C 357.52 233.12 357.35 235.67 357.26 236.94 C 356.20 235.37 356.46 233.28 357.61 231.85 Z" />
</g>
<g id="#899556ff">
<path fill="#899556" opacity="1.00" d=" M 199.29 233.75 C 201.94 233.22 205.17 232.79 206.45 235.86 C 202.07 238.67 201.51 243.53 203.84 247.95 C 204.55 256.34 214.88 248.06 217.41 244.17 C 219.11 243.24 222.84 240.61 219.98 239.15 C 215.97 238.71 218.94 234.42 221.37 233.77 C 221.23 238.02 223.90 241.66 224.40 245.35 C 222.64 249.63 226.99 246.54 229.10 245.97 C 231.66 249.93 230.16 255.51 231.11 259.98 C 231.17 263.72 234.71 266.57 234.25 270.36 C 233.51 270.24 232.04 269.99 231.30 269.86 C 228.89 267.48 226.30 265.25 223.37 263.53 C 218.70 261.36 215.25 265.66 210.93 266.12 C 210.07 260.75 220.47 264.07 217.15 258.79 C 215.95 257.16 210.37 265.82 209.87 260.13 C 211.14 253.54 201.00 256.10 198.59 259.51 C 195.91 268.29 186.72 260.36 182.42 256.87 L 182.02 256.18 C 187.37 250.48 173.22 241.55 183.96 238.94 C 181.54 243.81 183.67 258.04 191.03 250.54 C 184.46 249.59 187.87 241.95 187.18 237.23 C 191.51 237.11 195.59 236.00 199.29 233.75 M 191.94 242.98 C 193.61 246.25 196.39 249.09 196.24 253.02 C 200.85 253.37 199.57 247.91 198.90 245.36 C 194.92 247.34 196.68 241.00 191.94 242.98 M 191.96 252.92 C 191.55 255.29 193.69 256.85 194.10 259.03 C 191.60 259.47 190.71 256.81 189.60 255.14 C 185.10 257.56 192.16 260.52 193.82 261.52 C 198.89 260.03 196.26 253.40 191.96 252.92 Z" />
</g>
<g id="#b3b378ff">
<path fill="#b3b378" opacity="1.00" d=" M 326.19 242.94 C 321.47 242.52 316.77 236.91 322.12 233.89 C 323.90 236.66 325.99 239.52 326.19 242.94 Z" />
</g>
<g id="#524e23ff">
<path fill="#524e23" opacity="1.00" d=" M 206.45 235.86 C 208.45 235.42 210.44 235.01 212.46 234.64 L 213.40 234.82 C 219.12 238.54 202.00 240.27 207.61 246.52 C 209.29 250.42 205.73 250.97 203.84 247.95 C 201.51 243.53 202.07 238.67 206.45 235.86 Z" />
</g>
<g id="#586035fd">
<path fill="#586035" opacity="1.00" d=" M 327.11 241.20 C 330.52 239.58 333.73 237.52 337.20 236.02 C 337.19 238.24 339.41 241.92 336.15 242.18 C 330.79 243.47 327.04 247.60 323.11 251.14 C 324.02 254.66 330.08 258.66 330.66 252.89 C 331.16 253.17 332.17 253.73 332.67 254.01 C 332.46 258.85 328.18 259.48 325.20 262.31 C 323.90 265.78 328.19 267.20 330.85 267.26 C 328.72 270.33 324.26 275.37 331.22 274.38 C 321.52 272.88 312.03 275.36 302.55 278.05 C 300.81 276.00 298.67 274.32 297.00 272.22 C 299.59 270.45 302.33 268.43 305.56 268.22 C 306.92 271.92 310.79 277.08 314.75 272.39 C 317.53 270.49 314.11 266.25 314.97 264.01 C 312.83 256.90 313.79 249.49 313.15 242.21 C 314.23 242.41 315.33 242.47 316.42 242.27 C 317.79 242.48 321.50 240.75 320.41 243.37 C 318.23 249.14 328.42 245.71 327.11 241.20 Z" />
</g>
<g id="#a08b66ff">
<path fill="#a08b66" opacity="1.00" d=" M 210.14 247.00 C 206.62 242.17 218.38 234.62 217.41 244.17 C 214.99 245.11 212.67 246.35 210.14 247.00 Z" />
</g>
<g id="#536737fc">
<path fill="#536737" opacity="1.00" d=" M 224.92 238.83 C 234.90 238.89 244.09 245.51 247.25 254.96 C 244.79 254.46 242.46 253.50 240.04 252.88 C 242.11 257.99 243.38 268.47 236.24 269.15 C 237.73 270.85 239.40 272.62 239.08 275.09 C 236.40 275.14 235.59 272.15 234.25 270.36 C 234.71 266.57 231.17 263.72 231.11 259.98 C 230.16 255.51 231.66 249.93 229.10 245.97 C 226.79 244.28 224.49 241.97 224.92 238.83 M 230.90 245.94 C 233.85 249.78 231.60 260.21 238.33 255.26 C 239.67 251.84 235.30 246.01 230.90 245.94 Z" />
</g>
<g id="#7a874cff">
<path fill="#7a874c" opacity="1.00" d=" M 308.02 252.43 C 317.86 248.14 295.65 238.42 311.97 239.96 C 312.27 240.53 312.86 241.65 313.15 242.21 C 313.79 249.49 312.83 256.90 314.97 264.01 C 314.11 266.25 317.53 270.49 314.75 272.39 C 313.41 269.73 310.82 270.53 308.44 270.75 C 307.88 266.41 303.46 264.66 300.19 262.58 C 301.31 261.06 302.65 259.74 303.98 258.41 C 308.69 260.40 308.43 256.40 308.02 252.43 Z" />
</g>
<g id="#3e501ff8">
<path fill="#3e501f" opacity="0.97" d=" M 330.66 252.89 C 334.55 246.40 344.20 245.76 349.97 241.27 C 351.01 241.68 352.03 242.13 353.04 242.62 C 346.72 247.26 339.63 250.31 332.67 254.01 C 332.17 253.73 331.16 253.17 330.66 252.89 Z" />
</g>
<g id="#645533ff">
<path fill="#645533" opacity="1.00" d=" M 152.23 242.09 C 157.79 242.73 166.46 241.98 169.98 247.19 C 167.12 248.95 165.79 243.87 162.62 245.55 C 160.01 252.79 164.20 259.69 169.03 264.32 C 165.34 265.95 161.27 265.19 159.50 261.43 C 152.74 257.69 148.26 249.19 152.23 242.09 Z" />
</g>
<g id="#636a3bff">
<path fill="#636a3b" opacity="1.00" d=" M 191.94 242.98 C 196.68 241.00 194.92 247.34 198.90 245.36 C 199.57 247.91 200.85 253.37 196.24 253.02 C 196.39 249.09 193.61 246.25 191.94 242.98 Z" />
</g>
<g id="#808d53fb">
<path fill="#808d53" opacity="1.00" d=" M 332.67 254.01 C 339.63 250.31 346.72 247.26 353.04 242.62 C 359.40 247.56 353.35 254.41 346.97 255.08 C 342.76 257.96 334.62 257.69 333.82 263.64 C 339.57 264.08 344.46 260.73 349.09 257.80 C 355.58 262.65 346.86 267.79 341.94 269.11 C 340.34 268.86 338.19 268.24 337.10 269.85 C 335.51 271.77 333.73 273.74 331.22 274.38 C 324.26 275.37 328.72 270.33 330.85 267.26 C 328.19 267.20 323.90 265.78 325.20 262.31 C 328.18 259.48 332.46 258.85 332.67 254.01 Z" />
</g>
<g id="#73723dfe">
<path fill="#73723d" opacity="1.00" d=" M 298.01 261.95 C 296.55 256.63 288.46 246.04 298.00 243.78 C 302.51 243.12 306.01 245.81 306.94 250.15 C 306.54 250.02 305.76 249.74 305.37 249.61 C 300.98 246.22 298.52 251.49 297.06 254.97 C 297.62 258.03 301.50 258.04 303.98 258.41 C 302.65 259.74 301.31 261.06 300.19 262.58 C 303.46 264.66 307.88 266.41 308.44 270.75 C 310.82 270.53 313.41 269.73 314.75 272.39 C 310.79 277.08 306.92 271.92 305.56 268.22 C 302.33 268.43 299.59 270.45 297.00 272.22 C 298.67 274.32 300.81 276.00 302.55 278.05 C 302.04 279.11 301.50 280.15 300.93 281.18 C 297.86 281.64 296.62 279.50 295.75 276.97 C 292.86 277.09 291.44 279.96 289.79 281.91 C 287.87 283.73 285.98 285.57 284.01 287.34 C 278.38 285.91 280.51 277.61 282.67 273.71 C 287.25 270.08 288.10 263.59 292.45 260.75 C 294.44 261.51 297.26 265.97 298.01 261.95 M 285.14 276.11 C 283.30 277.54 284.16 280.14 284.03 282.14 C 286.59 281.32 288.66 276.83 285.14 276.11 Z" />
</g>
<g id="#00000018">
</g>
<g id="#6b7434ff">
<path fill="#6b7434" opacity="1.00" d=" M 162.62 245.55 C 165.79 243.87 167.12 248.95 169.98 247.19 C 172.19 252.40 176.11 256.99 180.84 260.07 C 181.41 259.02 181.93 257.95 182.42 256.87 C 186.72 260.36 195.91 268.29 198.59 259.51 C 201.00 256.10 211.14 253.54 209.87 260.13 C 210.37 265.82 215.95 257.16 217.15 258.79 C 220.47 264.07 210.07 260.75 210.93 266.12 C 215.25 265.66 218.70 261.36 223.37 263.53 C 226.30 265.25 228.89 267.48 231.30 269.86 C 230.95 271.77 230.46 273.66 230.26 275.59 C 234.50 275.55 232.97 280.18 230.03 281.08 C 227.15 283.65 225.53 278.99 223.31 277.72 C 220.09 274.36 222.90 282.04 222.69 284.10 C 223.87 286.76 219.07 285.23 220.13 287.91 C 225.49 287.81 229.85 291.71 231.88 295.83 C 231.37 295.97 230.36 296.25 229.85 296.39 C 228.52 296.00 227.20 295.63 225.90 295.20 C 221.50 290.47 216.52 286.29 210.82 283.22 C 205.53 281.86 214.49 289.41 208.90 289.51 C 207.97 287.24 205.61 285.07 206.28 282.47 C 208.39 281.14 210.88 280.21 212.28 278.02 C 210.03 275.00 206.85 275.07 203.98 277.15 C 207.98 272.96 204.44 265.47 198.51 267.36 L 197.94 267.48 C 195.72 267.98 193.50 268.51 191.33 269.19 C 192.00 274.30 195.22 278.04 200.27 279.31 C 195.81 281.61 190.72 279.30 186.85 276.88 C 187.71 274.80 189.07 272.98 190.01 270.94 C 188.42 265.13 181.62 273.60 181.73 266.21 C 178.02 272.74 177.37 261.48 173.14 259.86 C 175.11 264.04 172.29 263.81 169.03 264.32 C 164.20 259.69 160.01 252.79 162.62 245.55 Z" />
</g>
<g id="#7e9357ff">
<path fill="#7e9357" opacity="1.00" d=" M 230.90 245.94 C 235.30 246.01 239.67 251.84 238.33 255.26 C 231.60 260.21 233.85 249.78 230.90 245.94 Z" />
</g>
<g id="#998b5fff">
<path fill="#998b5f" opacity="1.00" d=" M 297.06 254.97 C 298.52 251.49 300.98 246.22 305.37 249.61 C 294.99 248.42 308.19 258.63 305.37 249.61 C 305.76 249.74 306.54 250.02 306.94 250.15 C 307.21 250.72 307.75 251.86 308.02 252.43 C 308.43 256.40 308.69 260.40 303.98 258.41 C 301.50 258.04 297.62 258.03 297.06 254.97 Z" />
</g>
<g id="#606737fd">
<path fill="#606737" opacity="1.00" d=" M 258.62 262.70 C 262.69 257.45 267.65 252.89 273.60 249.93 C 275.33 251.56 274.23 258.28 277.96 257.95 C 281.38 257.33 281.38 252.24 283.94 251.07 C 285.11 256.21 286.69 259.93 292.45 260.75 C 288.10 263.59 287.25 270.08 282.67 273.71 C 280.51 277.61 278.38 285.91 284.01 287.34 C 277.49 293.75 268.01 295.51 262.20 302.37 C 255.99 303.14 264.79 294.46 257.26 293.84 L 257.40 293.15 C 256.88 288.34 262.74 289.19 260.30 284.74 C 260.62 281.65 263.18 288.54 264.73 285.69 C 267.74 282.05 269.13 289.78 273.08 288.05 C 273.69 284.32 267.35 283.84 270.27 279.34 C 271.36 276.17 275.19 274.13 276.63 272.10 C 273.43 269.38 279.74 265.90 276.53 264.18 C 275.68 266.33 273.83 267.69 272.00 268.97 C 269.18 265.22 273.59 257.59 268.24 256.11 C 268.46 262.18 260.93 258.86 261.01 264.98 C 262.55 267.98 263.86 273.44 258.72 271.07 C 258.74 268.27 258.62 265.48 258.62 262.70 Z" />
</g>
<g id="#cbbda4ff">
<path fill="#cbbda4" opacity="1.00" d=" M 305.37 249.61 C 294.99 248.42 308.19 258.63 305.37 249.61 Z" />
</g>
<g id="#6e753aff">
<path fill="#6e753a" opacity="1.00" d=" M 191.96 252.92 C 196.26 253.40 198.89 260.03 193.82 261.52 C 192.16 260.52 185.10 257.56 189.60 255.14 C 190.71 256.81 191.60 259.47 194.10 259.03 C 193.69 256.85 191.55 255.29 191.96 252.92 Z" />
</g>
<g id="#4c592bfd">
<path fill="#4c592b" opacity="1.00" d=" M 240.04 252.88 C 242.46 253.50 244.79 254.46 247.25 254.96 C 247.50 255.28 248.00 255.91 248.24 256.22 C 245.61 260.64 238.57 267.19 243.06 271.93 C 245.76 273.35 243.32 281.40 246.89 277.90 C 250.90 276.14 246.25 270.24 250.00 267.92 C 252.34 265.86 254.02 269.99 256.61 268.93 C 256.90 266.70 257.57 264.63 258.62 262.70 C 258.62 265.48 258.74 268.27 258.72 271.07 C 255.35 270.84 254.52 272.58 256.88 274.93 C 254.58 274.07 252.35 273.94 251.44 276.66 C 249.80 280.86 243.67 278.47 245.38 285.38 C 241.45 287.40 243.83 292.22 247.82 290.15 C 248.13 295.46 255.31 302.04 257.26 293.84 C 264.79 294.46 255.99 303.14 262.20 302.37 C 260.72 302.47 257.75 302.68 256.27 302.79 C 252.22 299.17 247.04 303.48 242.44 301.53 C 237.89 300.76 234.03 298.14 229.85 296.39 C 230.36 296.25 231.37 295.97 231.88 295.83 C 229.85 291.71 225.49 287.81 220.13 287.91 C 219.07 285.23 223.87 286.76 222.69 284.10 C 222.90 282.04 220.09 274.36 223.31 277.72 C 225.53 278.99 227.15 283.65 230.03 281.08 C 232.97 280.18 234.50 275.55 230.26 275.59 C 230.46 273.66 230.95 271.77 231.30 269.86 C 232.04 269.99 233.51 270.24 234.25 270.36 C 235.59 272.15 236.40 275.14 239.08 275.09 C 239.40 272.62 237.73 270.85 236.24 269.15 C 243.38 268.47 242.11 257.99 240.04 252.88 Z" />
</g>
<g id="#51662afb">
<path fill="#51662a" opacity="1.00" d=" M 333.82 263.64 C 334.62 257.69 342.76 257.96 346.97 255.08 C 345.41 256.91 347.75 257.14 349.09 257.80 C 344.46 260.73 339.57 264.08 333.82 263.64 Z" />
</g>
<g id="#80894fff">
<path fill="#80894f" opacity="1.00" d=" M 268.24 256.11 C 273.59 257.59 269.18 265.22 272.00 268.97 C 273.83 267.69 275.68 266.33 276.53 264.18 C 279.74 265.90 273.43 269.38 276.63 272.10 C 275.19 274.13 271.36 276.17 270.27 279.34 C 267.35 283.84 273.69 284.32 273.08 288.05 C 269.13 289.78 267.74 282.05 264.73 285.69 C 263.18 288.54 260.62 281.65 260.30 284.74 C 262.74 289.19 256.88 288.34 257.40 293.15 C 255.64 294.01 252.49 296.43 251.34 293.61 C 254.40 290.97 250.36 286.98 247.08 287.72 C 248.28 285.73 249.52 283.73 251.06 281.99 C 252.70 280.64 256.95 283.44 255.94 280.07 C 255.61 278.12 252.80 277.85 251.44 276.66 C 252.35 273.94 254.58 274.07 256.88 274.93 C 254.52 272.58 255.35 270.84 258.72 271.07 C 263.86 273.44 262.55 267.98 261.01 264.98 C 260.93 258.86 268.46 262.18 268.24 256.11 M 265.16 262.15 C 263.55 263.15 263.47 265.92 265.21 266.83 C 268.22 268.52 267.54 261.81 265.16 262.15 Z" />
</g>
<g id="#c3b699ff">
<path fill="#c3b699" opacity="1.00" d=" M 265.16 262.15 C 267.54 261.81 268.22 268.52 265.21 266.83 C 263.47 265.92 263.55 263.15 265.16 262.15 Z" />
</g>
<g id="#8f7a3eff">
<path fill="#8f7a3e" opacity="1.00" d=" M 198.51 267.36 C 204.44 265.47 207.98 272.96 203.98 277.15 C 202.76 277.89 201.57 278.69 200.27 279.31 C 195.22 278.04 192.00 274.30 191.33 269.19 C 193.50 268.51 195.72 267.98 197.94 267.48 C 198.69 271.04 190.67 273.61 196.61 274.50 C 201.73 276.87 203.70 268.77 198.51 267.36 Z" />
</g>
<g id="#bcac90ff">
<path fill="#bcac90" opacity="1.00" d=" M 198.51 267.36 C 203.70 268.77 201.73 276.87 196.61 274.50 C 190.67 273.61 198.69 271.04 197.94 267.48 Z" />
</g>
<g id="#343d17a1">
<path fill="#343d17" opacity="0.63" d=" M 337.10 269.85 C 338.19 268.24 340.34 268.86 341.94 269.11 C 341.50 269.44 340.63 270.09 340.20 270.42 C 339.42 270.28 337.87 269.99 337.10 269.85 Z" />
</g>
<g id="#00000012">
</g>
<g id="#b39f80ff">
<path fill="#b39f80" opacity="1.00" d=" M 285.14 276.11 C 288.66 276.83 286.59 281.32 284.03 282.14 C 284.16 280.14 283.30 277.54 285.14 276.11 Z" />
</g>
<g id="#6b6a37ff">
<path fill="#6b6a37" opacity="1.00" d=" M 245.38 285.38 C 243.67 278.47 249.80 280.86 251.44 276.66 C 252.80 277.85 255.61 278.12 255.94 280.07 C 256.95 283.44 252.70 280.64 251.06 281.99 C 249.52 283.73 248.28 285.73 247.08 287.72 C 250.36 286.98 254.40 290.97 251.34 293.61 C 252.49 296.43 255.64 294.01 257.40 293.15 L 257.26 293.84 C 255.31 302.04 248.13 295.46 247.82 290.15 C 243.83 292.22 241.45 287.40 245.38 285.38 Z" />
</g>
<g id="#4d3f21ee">
<path fill="#4d3f21" opacity="0.93" d=" M 289.79 281.91 C 291.44 279.96 292.86 277.09 295.75 276.97 C 296.62 279.50 297.86 281.64 300.93 281.18 C 298.05 284.53 293.51 282.39 289.79 281.91 Z" />
</g>
<g id="#465228f4">
<path fill="#465228" opacity="0.96" d=" M 208.90 289.51 C 214.49 289.41 205.53 281.86 210.82 283.22 C 216.52 286.29 221.50 290.47 225.90 295.20 C 219.82 294.91 213.92 292.94 208.90 289.51 Z" />
</g>
</svg>



