<?xml version="1.0" encoding="UTF-8" ?>
<!DOCTYPE svg PUBLIC "-//W3C//DTD SVG 1.1//EN" "http://www.w3.org/Graphics/SVG/1.1/DTD/svg11.dtd">
<svg width="384pt" height="384pt" viewBox="0 0 384 384" version="1.1" xmlns="http://www.w3.org/2000/svg">
<g id="#0000000f">
</g>
<g id="#00000018">
</g>
<g id="#28271185">
</g>
<g id="#585e32fd">
<path fill="#585e32" opacity="1.00" d=" M 179.76 36.91 C 182.15 30.75 188.41 35.92 192.00 31.89 C 193.39 32.22 194.77 32.16 196.12 31.70 C 197.60 32.92 198.93 34.31 200.31 35.64 C 202.42 34.17 204.50 32.13 207.24 33.51 C 201.71 33.66 200.87 44.19 194.97 41.04 C 190.48 39.75 187.37 46.74 182.66 45.42 C 180.54 44.80 177.02 45.09 177.35 48.05 C 173.36 47.21 169.53 42.88 165.06 46.22 C 164.92 49.92 169.03 52.05 171.27 54.54 C 175.37 53.33 180.67 53.36 185.14 52.03 C 185.18 56.05 177.88 58.95 182.67 63.12 C 186.15 67.76 180.91 64.71 178.92 62.78 C 175.65 52.85 170.51 68.67 164.10 67.15 C 156.06 67.29 164.45 77.07 161.85 82.04 C 158.59 82.16 155.90 80.20 152.97 79.10 C 150.06 78.81 151.93 73.61 148.23 75.12 C 146.35 77.72 146.85 80.77 149.19 82.83 C 150.35 92.45 150.53 84.01 152.19 82.01 C 157.30 80.48 155.67 90.46 162.04 86.92 C 175.27 82.96 156.52 100.58 170.14 95.98 C 172.36 95.51 168.69 91.74 168.17 89.98 C 171.03 87.22 172.80 92.08 173.96 94.13 C 174.39 98.25 167.65 100.05 164.93 97.17 C 164.91 99.80 162.09 104.71 160.96 100.05 C 160.53 93.15 151.64 97.46 150.99 101.97 C 150.78 105.59 141.30 104.73 145.29 108.70 C 148.47 110.59 146.79 117.15 150.66 116.89 C 151.46 114.39 152.08 111.85 152.58 109.27 C 157.39 108.91 162.20 108.44 167.01 108.02 C 167.58 111.94 161.64 109.78 159.33 111.35 C 152.62 112.84 159.16 120.36 162.04 123.15 C 163.50 123.06 164.95 122.79 166.37 122.44 L 167.28 122.23 C 167.44 125.93 164.12 129.00 165.46 132.87 C 157.67 135.51 155.31 144.27 148.04 147.28 C 147.97 151.75 154.84 150.53 153.31 146.07 C 159.32 144.34 157.58 150.85 157.46 154.72 C 159.83 159.00 162.11 163.64 166.80 165.78 C 164.27 166.06 163.57 171.38 161.11 168.87 C 154.49 161.46 143.03 162.32 134.99 163.98 C 134.69 169.91 129.49 167.30 125.98 165.82 C 123.00 160.38 130.37 156.73 129.51 151.81 C 129.38 151.10 129.12 149.66 129.00 148.94 C 129.03 148.50 129.09 147.60 129.13 147.15 C 134.05 138.33 132.06 129.95 129.82 120.91 C 130.49 115.61 132.35 110.57 134.99 105.95 C 140.64 103.64 139.32 97.61 140.90 92.89 C 144.82 86.62 146.37 78.90 144.28 71.71 C 139.83 60.41 154.19 61.51 157.43 53.61 C 158.15 50.98 158.91 48.35 159.84 45.78 C 161.16 45.10 162.49 44.45 163.84 43.83 C 165.67 43.87 169.31 43.95 171.13 43.99 C 174.15 44.27 176.77 42.78 179.05 40.98 C 180.65 40.24 180.27 38.22 179.76 36.91 Z" />
</g>
<g id="#747938fd">
<path fill="#747938" opacity="1.00" d=" M 194.97 41.04 C 200.87 44.19 201.71 33.66 207.24 33.51 L 208.13 33.70 C 207.36 42.68 218.27 36.13 220.91 42.97 C 221.33 43.98 221.76 44.98 222.19 45.97 C 221.63 47.68 221.47 49.74 222.90 51.08 L 223.02 51.77 C 219.72 53.07 216.54 54.95 212.92 55.15 C 214.49 53.36 216.79 51.76 216.02 49.03 C 212.78 47.93 212.85 50.84 212.64 53.22 C 209.26 48.41 208.92 40.58 201.22 41.06 C 197.51 45.92 204.71 47.39 207.78 49.26 C 210.86 53.92 206.19 59.04 208.17 63.92 C 211.19 62.89 214.22 61.97 216.96 63.92 C 221.72 60.12 227.12 56.52 233.23 59.29 C 231.73 60.89 229.91 62.11 228.08 63.28 C 226.38 62.67 224.36 62.41 222.88 63.67 C 220.32 65.08 217.86 66.67 215.27 68.03 C 211.83 67.38 206.32 65.47 204.62 69.72 C 203.05 71.43 201.53 73.19 200.20 75.09 C 197.50 77.19 194.84 79.35 191.94 81.16 C 191.91 76.42 197.20 73.76 197.05 69.04 L 197.16 68.28 C 202.02 65.35 194.68 58.54 195.58 54.33 C 192.91 51.13 184.04 54.89 186.71 60.16 C 189.06 66.01 182.22 58.08 182.67 63.12 C 177.88 58.95 185.18 56.05 185.14 52.03 C 180.67 53.36 175.37 53.33 171.27 54.54 C 169.03 52.05 164.92 49.92 165.06 46.22 C 169.53 42.88 173.36 47.21 177.35 48.05 C 177.02 45.09 180.54 44.80 182.66 45.42 C 187.37 46.74 190.48 39.75 194.97 41.04 M 205.15 51.13 C 203.30 52.51 204.13 55.09 204.03 57.06 C 207.61 57.94 208.26 51.40 205.15 51.13 M 202.08 60.22 C 201.21 61.33 200.58 62.60 200.05 63.90 C 203.54 67.14 209.17 59.46 202.08 60.22 Z" />
</g>
<g id="#29281695">
</g>
<g id="#889856fd">
<path fill="#889856" opacity="1.00" d=" M 201.22 41.06 C 208.92 40.58 209.26 48.41 212.64 53.22 C 212.85 50.84 212.78 47.93 216.02 49.03 C 216.79 51.76 214.49 53.36 212.92 55.15 C 216.54 54.95 219.72 53.07 223.02 51.77 C 224.93 52.52 227.02 52.40 228.94 51.73 C 230.62 53.89 235.79 56.13 233.23 59.29 C 227.12 56.52 221.72 60.12 216.96 63.92 C 214.22 61.97 211.19 62.89 208.17 63.92 C 206.19 59.04 210.86 53.92 207.78 49.26 C 204.71 47.39 197.51 45.92 201.22 41.06 Z" />
</g>
<g id="#211b0f87">
</g>
<g id="#0000000d">
</g>
<g id="#333b168a">
</g>
<g id="#a6966bff">
<path fill="#a6966b" opacity="1.00" d=" M 205.15 51.13 C 208.26 51.40 207.61 57.94 204.03 57.06 C 204.13 55.09 203.30 52.51 205.15 51.13 Z" />
</g>
<g id="#1e220d6b">
</g>
<g id="#798b42ff">
<path fill="#798b42" opacity="1.00" d=" M 186.71 60.16 C 184.04 54.89 192.91 51.13 195.58 54.33 C 194.68 58.54 202.02 65.35 197.16 68.28 C 196.99 66.69 195.96 60.63 194.83 64.76 C 193.04 70.16 190.98 63.64 190.70 61.03 C 182.65 64.51 185.31 74.21 179.76 79.94 C 185.05 75.60 191.04 72.27 197.05 69.04 C 197.20 73.76 191.91 76.42 191.94 81.16 C 191.60 82.42 191.23 83.67 190.87 84.92 C 189.72 86.52 189.34 88.49 189.47 90.43 C 181.94 87.36 187.38 81.14 189.14 75.92 C 186.11 76.59 185.70 80.67 182.66 81.76 C 183.39 92.17 171.62 85.88 168.47 81.30 C 167.46 85.67 156.92 87.37 161.85 82.04 C 164.45 77.07 156.06 67.29 164.10 67.15 C 165.65 70.91 162.16 75.95 166.74 78.26 C 168.58 80.06 169.12 77.78 169.41 76.15 C 173.58 74.29 171.10 83.69 175.33 80.32 C 176.64 75.26 172.67 66.06 178.92 62.78 C 180.91 64.71 186.15 67.76 182.67 63.12 C 182.22 58.08 189.06 66.01 186.71 60.16 Z" />
</g>
<g id="#00000021">
</g>
<g id="#64773cff">
<path fill="#64773c" opacity="1.00" d=" M 164.10 67.15 C 170.51 68.67 175.65 52.85 178.92 62.78 C 172.67 66.06 176.64 75.26 175.33 80.32 C 171.10 83.69 173.58 74.29 169.41 76.15 C 169.12 77.78 168.58 80.06 166.74 78.26 C 162.16 75.95 165.65 70.91 164.10 67.15 Z" />
</g>
<g id="#a79065ff">
<path fill="#a79065" opacity="1.00" d=" M 202.08 60.22 C 209.17 59.46 203.54 67.14 200.05 63.90 C 200.58 62.60 201.21 61.33 202.08 60.22 Z" />
</g>
<g id="#91a35bff">
<path fill="#91a35b" opacity="1.00" d=" M 179.76 79.94 C 185.31 74.21 182.65 64.51 190.70 61.03 C 190.98 63.64 193.04 70.16 194.83 64.76 C 195.96 60.63 196.99 66.69 197.16 68.28 L 197.05 69.04 C 191.04 72.27 185.05 75.60 179.76 79.94 Z" />
</g>
<g id="#1b1f0f82">
</g>
<g id="#41501ceb">
<path fill="#41501c" opacity="0.92" d=" M 204.62 69.72 C 206.32 65.47 211.83 67.38 215.27 68.03 C 212.13 70.19 208.29 70.13 204.62 69.72 Z" />
</g>
<g id="#6d7336fe">
<path fill="#6d7336" opacity="1.00" d=" M 148.23 75.12 C 151.93 73.61 150.06 78.81 152.97 79.10 C 155.90 80.20 158.59 82.16 161.85 82.04 C 156.92 87.37 167.46 85.67 168.47 81.30 C 171.62 85.88 183.39 92.17 182.66 81.76 C 185.70 80.67 186.11 76.59 189.14 75.92 C 187.38 81.14 181.94 87.36 189.47 90.43 C 189.82 90.84 190.52 91.66 190.87 92.07 C 192.83 95.15 195.71 97.45 198.19 100.10 C 200.45 101.83 202.72 102.01 204.99 100.66 C 211.40 103.69 214.95 111.41 212.40 118.20 C 212.16 116.23 211.58 114.33 210.41 112.71 C 210.15 112.21 209.64 111.20 209.38 110.70 C 208.40 108.52 207.87 103.63 204.45 105.33 C 202.51 108.91 200.17 112.81 196.14 109.18 C 194.41 111.54 193.11 115.40 188.67 114.78 C 189.59 112.05 193.36 111.11 193.10 107.88 C 190.10 108.51 187.97 110.88 185.90 112.96 C 186.21 111.30 186.62 109.67 186.88 108.01 C 180.12 104.52 183.01 109.45 183.01 111.94 C 180.98 110.83 177.13 110.49 178.13 107.31 C 182.49 105.15 187.39 105.40 192.09 105.85 C 191.79 102.86 187.54 102.14 185.13 101.38 C 180.84 103.91 176.71 99.77 172.90 98.09 C 169.98 98.52 170.85 103.77 167.47 102.86 C 166.96 101.49 166.82 99.63 164.87 99.96 C 165.73 107.49 176.05 112.52 172.89 121.04 C 171.19 121.24 169.50 121.52 167.82 121.80 C 169.82 118.77 173.45 113.49 167.69 112.27 C 160.50 110.86 160.28 117.97 162.04 123.15 C 159.16 120.36 152.62 112.84 159.33 111.35 C 161.64 109.78 167.58 111.94 167.01 108.02 C 162.20 108.44 157.39 108.91 152.58 109.27 C 152.08 111.85 151.46 114.39 150.66 116.89 C 146.79 117.15 148.47 110.59 145.29 108.70 C 141.30 104.73 150.78 105.59 150.99 101.97 C 151.64 97.46 160.53 93.15 160.96 100.05 C 162.09 104.71 164.91 99.80 164.93 97.17 C 167.65 100.05 174.39 98.25 173.96 94.13 C 172.80 92.08 171.03 87.22 168.17 89.98 C 168.69 91.74 172.36 95.51 170.14 95.98 C 156.52 100.58 175.27 82.96 162.04 86.92 C 155.67 90.46 157.30 80.48 152.19 82.01 C 150.53 84.01 150.35 92.45 149.19 82.83 C 146.85 80.77 146.35 77.72 148.23 75.12 Z" />
</g>
<g id="#0102011d">
</g>
<g id="#343f199a">
<path fill="#343f19" opacity="0.60" d=" M 189.47 90.43 C 189.34 88.49 189.72 86.52 190.87 84.92 C 190.87 86.70 190.87 90.28 190.87 92.07 C 190.52 91.66 189.82 90.84 189.47 90.43 Z" />
</g>
<g id="#868e4dfe">
<path fill="#868e4d" opacity="1.00" d=" M 167.47 102.86 C 170.85 103.77 169.98 98.52 172.90 98.09 C 176.71 99.77 180.84 103.91 185.13 101.38 C 187.54 102.14 191.79 102.86 192.09 105.85 C 187.39 105.40 182.49 105.15 178.13 107.31 C 177.13 110.49 180.98 110.83 183.01 111.94 C 183.01 109.45 180.12 104.52 186.88 108.01 C 186.62 109.67 186.21 111.30 185.90 112.96 C 187.97 110.88 190.10 108.51 193.10 107.88 C 193.36 111.11 189.59 112.05 188.67 114.78 C 193.11 115.40 194.41 111.54 196.14 109.18 C 200.17 112.81 202.51 108.91 204.45 105.33 C 207.87 103.63 208.40 108.52 209.38 110.70 C 202.78 105.02 204.71 117.26 207.92 119.95 C 204.49 122.82 204.13 130.57 210.01 130.10 C 206.45 124.79 211.91 118.64 210.41 112.71 C 211.58 114.33 212.16 116.23 212.40 118.20 C 211.35 121.54 210.18 124.97 211.27 128.54 C 220.69 138.03 229.18 148.51 232.08 161.95 C 231.94 171.50 212.44 157.41 223.11 154.59 C 220.49 150.60 215.32 154.58 216.59 158.48 C 211.53 160.50 215.84 161.45 219.00 160.15 C 220.56 167.74 209.69 163.56 205.31 162.07 C 204.07 166.65 202.89 171.34 200.03 175.09 C 198.11 180.78 208.11 167.02 203.00 179.98 C 203.52 188.56 213.01 192.25 220.12 194.01 C 219.09 194.82 218.37 197.39 216.79 196.14 C 214.09 194.01 212.43 199.42 209.51 197.74 C 209.28 195.13 207.21 194.98 205.12 195.43 C 203.73 198.46 206.76 201.41 203.97 204.09 C 207.62 204.91 209.54 200.86 213.01 200.86 C 212.55 202.92 211.82 204.89 211.21 206.91 C 213.39 206.21 215.45 205.82 215.39 208.84 C 217.36 208.47 219.25 207.75 221.18 207.19 C 219.25 210.24 220.93 213.82 219.23 216.99 C 218.96 216.70 218.41 216.13 218.14 215.84 C 216.22 214.08 213.92 211.27 211.10 213.01 C 207.96 213.70 207.14 221.64 203.66 217.47 C 203.10 214.90 198.08 210.16 197.94 214.96 C 197.05 218.20 201.63 214.77 202.09 217.92 C 198.56 219.78 193.88 215.15 191.75 219.87 C 193.75 222.91 204.67 217.21 202.57 222.52 C 199.08 226.37 199.84 232.88 194.20 235.21 C 196.02 238.28 197.75 241.40 198.98 244.77 C 196.29 245.98 194.27 248.29 192.97 250.89 C 194.78 252.19 196.91 252.95 199.13 253.12 C 197.53 252.23 192.37 248.49 196.95 248.98 C 201.94 247.94 201.08 258.22 196.27 255.69 C 193.27 253.40 186.25 253.78 187.33 248.76 C 187.44 246.42 185.30 243.39 182.79 244.82 C 179.73 243.40 175.16 241.95 174.73 238.13 C 176.51 235.12 177.30 231.23 180.94 229.89 C 184.86 227.03 176.49 227.37 174.58 225.88 C 172.76 221.48 169.87 223.19 170.72 227.57 C 169.49 227.68 168.68 226.78 167.92 225.97 C 166.98 220.95 170.42 212.06 174.27 219.75 C 178.52 216.31 182.89 220.36 187.06 218.85 C 185.06 215.85 181.02 208.67 177.25 213.22 C 173.70 218.26 166.76 211.30 169.96 207.01 C 173.00 202.98 170.94 213.01 175.74 212.12 C 173.25 208.02 181.32 202.04 174.01 204.92 C 172.37 198.26 177.51 203.58 181.11 203.05 C 179.81 199.53 178.10 196.25 182.83 194.73 C 178.59 190.82 182.27 189.98 184.02 186.09 C 184.89 188.06 186.06 189.89 187.60 191.41 C 191.51 193.74 183.92 198.39 188.49 200.59 C 191.85 203.06 185.80 202.71 184.16 202.11 C 183.60 204.45 182.85 207.16 182.72 209.38 C 186.54 208.46 196.18 201.49 198.73 208.14 C 203.41 202.06 190.69 202.28 192.15 195.97 C 191.88 189.99 187.53 185.92 185.22 180.81 C 184.66 179.36 184.02 177.95 183.46 176.50 C 185.13 180.96 195.72 179.57 190.88 185.17 C 193.96 184.30 195.50 180.86 199.01 180.81 C 199.74 177.40 192.56 176.80 195.96 173.00 C 199.85 169.23 196.30 165.58 193.80 162.35 C 189.04 166.18 191.20 157.93 189.97 155.13 C 190.42 154.06 190.87 152.97 191.30 151.89 C 192.51 153.44 194.25 153.82 196.13 153.52 C 195.48 156.03 194.37 158.40 193.81 160.93 C 199.45 160.37 199.98 156.65 200.05 151.92 C 202.10 153.09 204.30 154.56 206.79 153.93 C 210.06 150.35 208.23 144.58 209.28 140.57 C 204.06 137.01 211.04 136.42 212.08 132.84 C 208.71 133.98 204.15 137.80 201.10 134.12 C 198.98 132.84 198.94 131.33 200.90 129.87 C 192.22 133.35 188.35 123.55 187.20 116.71 C 185.68 113.28 181.67 120.89 185.33 119.41 C 188.22 118.30 186.39 122.56 185.88 123.98 C 183.14 124.57 183.50 120.66 181.42 119.77 C 178.60 117.90 176.61 124.52 172.89 121.04 C 176.05 112.52 165.73 107.49 164.87 99.96 C 166.82 99.63 166.96 101.49 167.47 102.86 M 195.20 113.07 C 194.66 116.03 194.26 118.99 193.95 121.98 C 195.87 121.46 197.57 120.49 198.99 119.10 C 200.39 121.39 208.84 123.25 203.13 117.93 C 201.42 116.73 201.84 112.72 199.04 112.92 C 199.01 114.73 201.67 118.93 198.15 117.97 C 199.35 113.91 198.36 112.28 195.20 113.07 M 184.94 231.95 C 186.84 236.56 183.51 242.42 188.25 245.86 C 192.29 247.32 193.82 246.43 192.85 243.19 C 196.10 239.71 191.80 237.07 190.99 241.98 C 187.83 239.97 190.30 232.50 184.94 231.95 Z" />
</g>
<g id="#372f15ae">
<path fill="#372f15" opacity="0.68" d=" M 198.19 100.10 C 200.43 99.03 202.70 99.21 204.99 100.66 C 202.72 102.01 200.45 101.83 198.19 100.10 Z" />
</g>
<g id="#0000002c">
</g>
<g id="#a19f72ff">
<path fill="#a19f72" opacity="1.00" d=" M 207.92 119.95 C 204.71 117.26 202.78 105.02 209.38 110.70 C 209.64 111.20 210.15 112.21 210.41 112.71 C 211.91 118.64 206.45 124.79 210.01 130.10 C 204.13 130.57 204.49 122.82 207.92 119.95 Z" />
</g>
<g id="#907f4fff">
<path fill="#907f4f" opacity="1.00" d=" M 162.04 123.15 C 160.28 117.97 160.50 110.86 167.69 112.27 C 173.45 113.49 169.82 118.77 167.82 121.80 L 167.28 122.23 L 166.37 122.44 C 169.90 114.67 159.76 120.37 166.37 122.44 C 164.95 122.79 163.50 123.06 162.04 123.15 Z" />
</g>
<g id="#95a667ff">
<path fill="#95a667" opacity="1.00" d=" M 195.20 113.07 C 198.36 112.28 199.35 113.91 198.15 117.97 C 201.67 118.93 199.01 114.73 199.04 112.92 C 201.84 112.72 201.42 116.73 203.13 117.93 C 208.84 123.25 200.39 121.39 198.99 119.10 C 197.57 120.49 195.87 121.46 193.95 121.98 C 194.26 118.99 194.66 116.03 195.20 113.07 Z" />
</g>
<g id="#797f3fff">
<path fill="#797f3f" opacity="1.00" d=" M 185.33 119.41 C 181.67 120.89 185.68 113.28 187.20 116.71 C 188.35 123.55 192.22 133.35 200.90 129.87 C 198.94 131.33 198.98 132.84 201.10 134.12 C 191.54 128.68 189.56 140.23 195.26 144.82 C 198.76 145.84 196.74 140.28 198.98 138.77 C 200.02 139.67 201.06 140.58 202.06 141.53 C 198.73 142.67 197.87 147.10 202.15 147.43 C 200.84 147.94 199.18 148.18 198.83 149.79 C 196.96 144.67 185.92 146.44 191.30 151.89 C 190.87 152.97 190.42 154.06 189.97 155.13 C 188.14 154.78 183.51 152.86 184.37 156.42 C 187.07 157.96 190.50 161.19 187.40 164.09 C 189.91 167.02 188.17 170.85 184.19 169.64 C 185.87 166.59 183.18 159.04 182.11 164.04 C 175.93 162.85 178.43 155.84 179.69 151.70 C 182.35 149.05 181.35 154.93 184.12 154.02 C 186.39 147.47 168.05 146.87 180.50 144.51 C 184.47 142.18 178.63 143.65 176.85 143.83 C 176.88 141.06 181.22 138.47 178.84 136.03 C 173.55 136.10 175.29 144.95 169.90 145.13 C 173.17 136.22 173.81 126.46 181.42 119.77 C 183.50 120.66 183.14 124.57 185.88 123.98 C 186.39 122.56 188.22 118.30 185.33 119.41 Z" />
</g>
<g id="#d2c6b4ff">
<path fill="#d2c6b4" opacity="1.00" d=" M 166.37 122.44 C 169.90 114.67 159.76 120.37 166.37 122.44 Z" />
</g>
<g id="#60683aff">
<path fill="#60683a" opacity="1.00" d=" M 172.89 121.04 C 176.61 124.52 178.60 117.90 181.42 119.77 C 173.81 126.46 173.17 136.22 169.90 145.13 C 175.29 144.95 173.55 136.10 178.84 136.03 C 181.22 138.47 176.88 141.06 176.85 143.83 C 178.63 143.65 184.47 142.18 180.50 144.51 C 168.05 146.87 186.39 147.47 184.12 154.02 C 181.35 154.93 182.35 149.05 179.69 151.70 C 178.43 155.84 175.93 162.85 182.11 164.04 C 182.72 168.18 181.79 172.51 183.46 176.50 C 184.02 177.95 184.66 179.36 185.22 180.81 C 184.86 182.58 184.51 184.35 184.02 186.09 C 182.27 189.98 178.59 190.82 182.83 194.73 C 178.10 196.25 179.81 199.53 181.11 203.05 C 177.51 203.58 172.37 198.26 174.01 204.92 C 181.32 202.04 173.25 208.02 175.74 212.12 C 170.94 213.01 173.00 202.98 169.96 207.01 C 166.76 211.30 173.70 218.26 177.25 213.22 C 181.02 208.67 185.06 215.85 187.06 218.85 C 182.89 220.36 178.52 216.31 174.27 219.75 C 170.42 212.06 166.98 220.95 167.92 225.97 C 167.87 226.78 167.77 228.41 167.72 229.23 C 166.70 224.87 164.93 223.09 161.81 227.29 C 160.08 224.57 157.93 218.59 161.79 217.57 C 165.71 217.55 163.38 212.50 160.37 214.41 C 156.79 216.86 149.65 212.84 150.69 219.16 C 146.57 215.73 148.40 205.34 140.35 207.39 C 134.63 209.26 135.38 201.86 138.34 199.30 C 142.64 204.80 143.58 195.23 138.98 195.00 C 133.36 194.29 139.62 184.04 143.38 188.39 C 147.39 188.65 145.43 182.05 148.64 180.60 C 152.24 178.29 157.98 171.73 161.87 177.07 C 164.12 184.19 175.35 175.96 168.16 171.99 C 170.58 169.63 169.68 167.20 166.80 165.78 C 162.11 163.64 159.83 159.00 157.46 154.72 C 157.58 150.85 159.32 144.34 153.31 146.07 C 154.84 150.53 147.97 151.75 148.04 147.28 C 155.31 144.27 157.67 135.51 165.46 132.87 C 164.12 129.00 167.44 125.93 167.28 122.23 L 167.82 121.80 C 169.50 121.52 171.19 121.24 172.89 121.04 M 178.29 180.26 C 172.68 181.40 172.95 190.84 180.71 186.85 C 185.03 185.12 181.44 179.86 178.29 180.26 Z" />
</g>
<g id="#0000003a">
</g>
<g id="#676131ff">
<path fill="#676131" opacity="1.00" d=" M 195.26 144.82 C 189.56 140.23 191.54 128.68 201.10 134.12 C 200.85 135.86 200.02 137.38 198.98 138.77 C 196.74 140.28 198.76 145.84 195.26 144.82 Z" />
</g>
<g id="#897228ff">
<path fill="#897228" opacity="1.00" d=" M 201.10 134.12 C 204.15 137.80 208.71 133.98 212.08 132.84 C 211.04 136.42 204.06 137.01 209.28 140.57 C 208.23 144.58 210.06 150.35 206.79 153.93 C 204.30 154.56 202.10 153.09 200.05 151.92 C 199.74 151.39 199.13 150.32 198.83 149.79 C 199.18 148.18 200.84 147.94 202.15 147.43 C 206.83 147.70 204.62 142.96 202.06 141.53 C 201.06 140.58 200.02 139.67 198.98 138.77 C 200.02 137.38 200.85 135.86 201.10 134.12 Z" />
</g>
<g id="#313918b2">
<path fill="#313918" opacity="0.70" d=" M 311.71 143.81 C 312.96 140.65 315.40 138.50 319.19 140.46 C 316.40 140.83 313.96 142.21 311.71 143.81 Z" />
</g>
<g id="#6c7b3efc">
<path fill="#6c7b3e" opacity="1.00" d=" M 311.71 143.81 C 313.96 142.21 316.40 140.83 319.19 140.46 C 321.03 142.12 321.69 144.59 322.40 146.87 C 322.08 147.97 321.72 149.05 321.32 150.13 C 318.09 150.29 313.27 147.45 312.04 152.06 C 312.73 154.04 315.10 159.49 310.96 156.92 C 310.00 156.42 309.00 156.03 307.97 155.75 C 304.56 157.77 305.74 162.47 304.87 165.81 C 296.18 159.88 310.21 154.99 310.05 147.16 C 310.57 146.03 311.10 144.90 311.71 143.81 Z" />
</g>
<g id="#b19c7bff">
<path fill="#b19c7b" opacity="1.00" d=" M 202.15 147.43 C 197.87 147.10 198.73 142.67 202.06 141.53 C 204.62 142.96 206.83 147.70 202.15 147.43 Z" />
</g>
<g id="#0000004b">
</g>
<g id="#93a55dff">
<path fill="#93a55d" opacity="1.00" d=" M 191.30 151.89 C 185.92 146.44 196.96 144.67 198.83 149.79 C 199.13 150.32 199.74 151.39 200.05 151.92 C 199.98 156.65 199.45 160.37 193.81 160.93 C 194.37 158.40 195.48 156.03 196.13 153.52 C 194.25 153.82 192.51 153.44 191.30 151.89 Z" />
</g>
<g id="#00000059">
</g>
<g id="#191f0d7e">
</g>
<g id="#4e5b2efe">
<path fill="#4e5b2e" opacity="1.00" d=" M 305.25 147.84 C 306.87 147.89 308.49 147.65 310.05 147.16 C 310.21 154.99 296.18 159.88 304.87 165.81 C 307.62 165.27 312.09 166.66 313.42 163.53 C 313.79 157.81 319.88 155.35 321.32 150.13 C 321.72 149.05 322.08 147.97 322.40 146.87 C 324.02 147.16 325.96 146.75 327.33 147.84 C 324.01 152.95 317.12 157.05 318.32 163.83 C 317.90 167.93 309.79 170.56 315.49 174.36 C 320.77 177.01 321.68 169.03 323.81 165.91 C 325.16 165.27 327.69 162.78 327.09 165.93 C 324.14 168.41 324.44 171.94 324.53 175.46 C 318.83 176.79 314.83 187.45 324.09 184.96 C 324.40 185.51 325.03 186.62 325.34 187.18 C 322.86 189.01 322.00 192.03 326.23 191.28 C 323.25 191.73 320.30 192.16 317.40 192.94 C 315.42 192.23 313.12 191.94 311.83 190.09 C 313.51 189.15 317.63 190.95 317.01 187.98 C 318.04 184.14 311.20 186.57 310.14 184.77 C 306.82 183.86 301.25 175.82 307.87 179.98 C 312.18 174.31 302.16 174.46 300.66 169.27 C 295.27 168.69 301.71 174.94 298.08 177.03 C 297.78 176.76 297.20 176.23 296.90 175.96 C 294.03 173.04 288.59 168.16 285.87 173.91 C 284.69 169.00 275.80 170.85 278.92 163.96 C 278.10 161.14 280.68 160.32 282.72 159.36 C 283.01 156.14 282.29 153.03 281.78 149.89 C 282.19 149.59 283.02 149.00 283.43 148.70 C 284.31 151.27 285.84 153.48 288.22 154.87 C 290.49 159.57 278.71 162.91 283.00 167.05 C 286.49 169.38 288.16 164.60 291.72 165.64 C 294.02 161.96 292.52 158.20 289.96 155.20 C 294.30 154.49 297.73 153.28 295.15 147.98 C 298.52 147.96 301.86 147.89 305.25 147.84 Z" />
</g>
<g id="#5b6e3bfe">
<path fill="#5b6e3b" opacity="1.00" d=" M 283.43 148.70 C 283.79 148.49 284.50 148.06 284.86 147.85 C 288.29 147.90 291.70 147.94 295.15 147.98 C 297.73 153.28 294.30 154.49 289.96 155.20 C 292.52 158.20 294.02 161.96 291.72 165.64 C 288.16 164.60 286.49 169.38 283.00 167.05 C 278.71 162.91 290.49 159.57 288.22 154.87 C 285.84 153.48 284.31 151.27 283.43 148.70 Z" />
</g>
<g id="#718443fd">
<path fill="#718443" opacity="1.00" d=" M 327.33 147.84 C 328.38 148.70 329.39 149.66 330.15 150.81 C 330.21 153.55 329.41 156.59 331.05 159.00 C 331.84 160.57 332.72 162.13 333.04 163.88 C 330.57 162.26 328.34 163.58 327.09 165.93 C 327.69 162.78 325.16 165.27 323.81 165.91 C 324.50 163.44 327.79 162.76 328.03 160.16 C 325.93 157.66 322.07 159.62 321.41 162.37 C 319.96 166.62 315.15 169.65 315.49 174.36 C 309.79 170.56 317.90 167.93 318.32 163.83 C 317.12 157.05 324.01 152.95 327.33 147.84 Z" />
</g>
<g id="#899354ff">
<path fill="#899354" opacity="1.00" d=" M 312.04 152.06 C 313.27 147.45 318.09 150.29 321.32 150.13 C 319.88 155.35 313.79 157.81 313.42 163.53 C 312.09 166.66 307.62 165.27 304.87 165.81 C 305.74 162.47 304.56 157.77 307.97 155.75 C 308.00 157.55 308.07 161.17 308.11 162.98 C 316.66 166.24 311.10 160.00 310.96 156.92 C 315.10 159.49 312.73 154.04 312.04 152.06 Z" />
</g>
<g id="#3c451ef9">
<path fill="#3c451e" opacity="0.98" d=" M 273.25 177.20 C 276.75 168.37 275.87 157.59 281.78 149.89 C 282.29 153.03 283.01 156.14 282.72 159.36 C 280.68 160.32 278.10 161.14 278.92 163.96 C 275.80 170.85 284.69 169.00 285.87 173.91 C 287.42 176.31 288.97 178.72 290.75 180.96 C 291.02 181.25 291.57 181.82 291.84 182.10 C 292.53 182.78 293.25 183.44 293.98 184.08 C 296.56 187.95 293.29 186.07 290.85 184.94 C 286.89 181.98 282.37 178.95 281.13 173.86 C 279.55 171.32 279.29 176.21 279.42 177.46 C 282.75 186.90 276.07 179.00 273.50 177.86 L 273.25 177.20 Z" />
</g>
<g id="#505929ad">
<path fill="#505929" opacity="0.68" d=" M 330.15 150.81 C 331.76 153.20 330.77 156.25 331.05 159.00 C 329.41 156.59 330.21 153.55 330.15 150.81 Z" />
</g>
<g id="#01010069">
</g>
<g id="#59662dfd">
<path fill="#59662d" opacity="1.00" d=" M 216.59 158.48 C 215.32 154.58 220.49 150.60 223.11 154.59 C 212.44 157.41 231.94 171.50 232.08 161.95 C 232.79 163.26 233.10 165.25 235.05 164.95 C 243.35 165.40 251.46 166.47 258.90 170.22 C 259.60 170.77 260.29 171.33 261.00 171.87 C 261.63 172.51 262.24 173.17 262.83 173.85 C 259.50 174.30 261.57 178.57 260.91 180.97 C 261.16 183.52 256.67 185.27 259.10 187.60 C 257.77 188.50 256.39 189.31 255.01 190.12 C 255.16 187.81 255.56 185.52 256.26 183.31 C 257.46 181.53 260.35 178.97 258.11 176.92 C 255.77 173.04 253.44 169.83 248.27 171.47 C 248.31 165.10 236.85 167.43 235.77 172.83 C 234.44 175.91 233.77 174.84 233.81 171.84 C 234.19 170.20 234.62 168.57 234.98 166.93 C 233.40 168.18 231.98 169.62 230.33 170.79 C 227.79 166.02 222.46 168.19 221.78 172.97 C 216.28 168.21 213.33 178.95 214.05 182.80 C 217.00 186.71 221.90 182.85 222.42 179.07 C 224.91 181.30 227.16 193.27 229.91 186.13 C 230.79 183.26 232.58 181.40 235.58 183.03 C 235.99 184.74 236.44 187.09 238.71 186.98 C 241.96 187.96 245.35 187.65 248.65 187.09 C 248.51 189.55 247.20 192.97 251.12 192.33 C 248.80 193.92 245.96 193.83 243.25 193.82 C 239.43 192.93 235.58 193.13 231.75 193.68 L 230.91 193.75 L 230.12 193.67 C 226.80 193.06 223.40 193.27 220.12 194.01 C 213.01 192.25 203.52 188.56 203.00 179.98 C 208.11 167.02 198.11 180.78 200.03 175.09 C 202.89 171.34 204.07 166.65 205.31 162.07 C 209.69 163.56 220.56 167.74 219.00 160.15 C 215.84 161.45 211.53 160.50 216.59 158.48 Z" />
</g>
<g id="#95a360ff">
<path fill="#95a360" opacity="1.00" d=" M 184.37 156.42 C 183.51 152.86 188.14 154.78 189.97 155.13 C 191.20 157.93 189.04 166.18 193.80 162.35 C 196.30 165.58 199.85 169.23 195.96 173.00 C 192.56 176.80 199.74 177.40 199.01 180.81 C 195.50 180.86 193.96 184.30 190.88 185.17 C 195.72 179.57 185.13 180.96 183.46 176.50 C 181.79 172.51 182.72 168.18 182.11 164.04 C 183.18 159.04 185.87 166.59 184.19 169.64 C 188.17 170.85 189.91 167.02 187.40 164.09 C 190.50 161.19 187.07 157.96 184.37 156.42 Z" />
</g>
<g id="#bab772ff">
<path fill="#bab772" opacity="1.00" d=" M 307.97 155.75 C 309.00 156.03 310.00 156.42 310.96 156.92 C 311.10 160.00 316.66 166.24 308.11 162.98 C 308.07 161.17 308.00 157.55 307.97 155.75 Z" />
</g>
<g id="#9da35aff">
<path fill="#9da35a" opacity="1.00" d=" M 321.41 162.37 C 322.07 159.62 325.93 157.66 328.03 160.16 C 327.79 162.76 324.50 163.44 323.81 165.91 C 321.68 169.03 320.77 177.01 315.49 174.36 C 315.15 169.65 319.96 166.62 321.41 162.37 Z" />
</g>
<g id="#4b512afd">
<path fill="#4b512a" opacity="1.00" d=" M 134.99 163.98 C 143.03 162.32 154.49 161.46 161.11 168.87 C 163.57 171.38 164.27 166.06 166.80 165.78 C 169.68 167.20 170.58 169.63 168.16 171.99 C 175.35 175.96 164.12 184.19 161.87 177.07 C 157.98 171.73 152.24 178.29 148.64 180.60 C 145.43 182.05 147.39 188.65 143.38 188.39 C 139.62 184.04 133.36 194.29 138.98 195.00 C 143.58 195.23 142.64 204.80 138.34 199.30 C 135.38 201.86 134.63 209.26 140.35 207.39 C 148.40 205.34 146.57 215.73 150.69 219.16 C 149.65 212.84 156.79 216.86 160.37 214.41 C 163.38 212.50 165.71 217.55 161.79 217.57 C 157.93 218.59 160.08 224.57 161.81 227.29 C 156.07 235.10 171.43 236.57 174.10 240.89 C 167.94 240.26 161.95 238.61 155.98 237.07 C 152.77 236.36 153.29 241.06 152.82 243.12 C 152.66 242.76 152.33 242.06 152.17 241.70 C 151.67 240.66 151.17 239.53 150.21 238.82 C 149.31 238.04 148.33 237.37 147.32 236.73 C 137.92 232.19 136.34 221.48 133.41 212.99 C 132.74 212.31 132.07 211.63 131.39 210.98 C 130.70 209.97 130.03 208.95 129.39 207.92 C 128.48 206.05 127.52 204.20 126.79 202.26 C 126.81 197.76 126.78 193.27 126.82 188.79 C 128.26 186.04 130.38 183.71 131.92 181.03 C 130.17 178.44 128.30 175.92 126.96 173.08 C 126.67 172.05 126.37 171.02 126.07 169.99 C 126.05 169.49 126.03 168.49 126.01 167.99 C 126.00 167.45 125.99 166.36 125.98 165.82 C 129.49 167.30 134.69 169.91 134.99 163.98 Z" />
</g>
<g id="#879354ff">
<path fill="#879354" opacity="1.00" d=" M 327.09 165.93 C 328.34 163.58 330.57 162.26 333.04 163.88 C 333.01 164.60 332.95 166.06 332.92 166.79 C 329.46 172.61 327.48 179.15 324.09 184.96 C 314.83 187.45 318.83 176.79 324.53 175.46 C 324.44 171.94 324.14 168.41 327.09 165.93 Z" />
</g>
<g id="#6a7c41ff">
<path fill="#6a7c41" opacity="1.00" d=" M 230.33 170.79 C 231.98 169.62 233.40 168.18 234.98 166.93 C 234.62 168.57 234.19 170.20 233.81 171.84 C 232.35 173.26 230.89 174.69 229.32 175.98 C 229.10 169.14 222.97 176.47 224.52 179.38 C 226.74 181.26 228.52 183.57 229.91 186.13 C 227.16 193.27 224.91 181.30 222.42 179.07 C 221.90 182.85 217.00 186.71 214.05 182.80 C 213.33 178.95 216.28 168.21 221.78 172.97 C 222.46 168.19 227.79 166.02 230.33 170.79 Z" />
</g>
<g id="#61713dfc">
<path fill="#61713d" opacity="1.00" d=" M 324.09 184.96 C 327.48 179.15 329.46 172.61 332.92 166.79 C 334.02 168.37 335.28 169.85 336.21 171.55 C 328.05 173.03 333.98 185.10 325.34 187.18 C 325.03 186.62 324.40 185.51 324.09 184.96 Z" />
</g>
<g id="#80914bff">
<path fill="#80914b" opacity="1.00" d=" M 235.77 172.83 C 236.85 167.43 248.31 165.10 248.27 171.47 C 253.44 169.83 255.77 173.04 258.11 176.92 C 252.12 171.12 245.23 175.35 238.20 173.20 C 237.22 176.32 237.71 180.03 235.58 183.03 C 232.58 181.40 230.79 183.26 229.91 186.13 C 228.52 183.57 226.74 181.26 224.52 179.38 C 222.97 176.47 229.10 169.14 229.32 175.98 C 230.89 174.69 232.35 173.26 233.81 171.84 C 233.77 174.84 234.44 175.91 235.77 172.83 Z" />
</g>
<g id="#7e834bfe">
<path fill="#7e834b" opacity="1.00" d=" M 298.08 177.03 C 301.71 174.94 295.27 168.69 300.66 169.27 C 302.16 174.46 312.18 174.31 307.87 179.98 C 301.25 175.82 306.82 183.86 310.14 184.77 C 311.20 186.57 318.04 184.14 317.01 187.98 C 317.63 190.95 313.51 189.15 311.83 190.09 C 313.12 191.94 315.42 192.23 317.40 192.94 C 316.87 193.27 315.82 193.92 315.30 194.25 C 312.04 194.66 308.59 196.31 305.41 194.72 C 303.39 191.31 300.04 188.70 296.19 187.74 C 297.79 192.79 299.53 199.06 304.98 201.13 C 304.92 201.62 304.80 202.62 304.74 203.11 C 300.23 200.59 297.51 200.80 298.14 207.24 C 297.15 209.29 296.22 211.38 295.08 213.35 C 288.55 212.84 290.70 202.60 293.77 198.99 C 284.31 195.66 282.40 210.75 288.36 215.67 C 289.48 219.23 293.81 212.73 293.20 217.04 C 291.17 222.71 287.23 227.18 283.73 231.93 C 282.32 233.35 282.69 235.46 283.38 237.13 C 281.14 238.48 278.38 240.10 278.67 236.06 C 275.79 237.23 271.36 240.23 269.07 237.18 C 271.63 236.61 276.42 236.84 276.01 232.97 C 276.96 229.01 272.81 232.32 271.10 232.97 C 269.09 230.79 271.08 227.63 271.10 225.05 C 275.24 224.40 278.58 220.37 274.95 216.83 C 276.82 217.16 278.53 218.02 280.26 218.79 C 281.20 215.76 274.32 211.92 279.36 211.36 C 282.22 209.68 281.13 214.04 284.05 214.11 C 284.69 208.86 284.07 203.58 279.44 200.59 C 277.95 202.80 276.13 200.72 274.55 199.78 C 273.17 198.46 269.55 196.46 269.53 199.81 C 269.33 200.80 269.19 201.81 269.13 202.82 C 268.55 201.57 267.38 199.06 266.80 197.80 L 266.58 197.01 C 269.47 194.67 272.62 193.15 271.79 188.84 C 272.54 182.97 275.09 193.48 276.21 189.56 C 279.44 192.71 283.02 187.10 283.41 184.08 C 287.41 183.54 291.60 193.28 290.85 184.94 C 293.29 186.07 296.56 187.95 293.98 184.08 C 300.09 186.78 301.98 181.40 298.08 177.03 M 293.04 206.03 C 290.51 214.60 299.82 204.35 293.04 206.03 Z" />
</g>
<g id="#0000002d">
</g>
<g id="#7a693eff">
<path fill="#7a693e" opacity="1.00" d=" M 285.87 173.91 C 288.59 168.16 294.03 173.04 296.90 175.96 C 295.34 176.35 292.60 175.27 291.89 177.04 C 291.36 178.30 291.05 179.63 290.75 180.96 C 288.97 178.72 287.42 176.31 285.87 173.91 Z" />
</g>
<g id="#03030126">
</g>
<g id="#889051f4">
<path fill="#889051" opacity="0.96" d=" M 325.34 187.18 C 333.98 185.10 328.05 173.03 336.21 171.55 C 337.17 178.48 332.24 185.44 328.03 191.03 C 327.58 191.09 326.68 191.22 326.23 191.28 C 322.00 192.03 322.86 189.01 325.34 187.18 Z" />
</g>
<g id="#99aa66ff">
<path fill="#99aa66" opacity="1.00" d=" M 238.20 173.20 C 245.23 175.35 252.12 171.12 258.11 176.92 C 260.35 178.97 257.46 181.53 256.26 183.31 C 253.88 184.90 250.14 187.62 249.90 182.91 C 248.73 180.81 245.94 187.30 244.45 183.57 C 242.42 179.91 239.70 184.93 238.71 186.98 C 236.44 187.09 235.99 184.74 235.58 183.03 C 237.71 180.03 237.22 176.32 238.20 173.20 Z" />
</g>
<g id="#4f592efd">
<path fill="#4f592e" opacity="1.00" d=" M 279.42 177.46 C 279.29 176.21 279.55 171.32 281.13 173.86 C 282.37 178.95 286.89 181.98 290.85 184.94 C 291.60 193.28 287.41 183.54 283.41 184.08 C 283.02 187.10 279.44 192.71 276.21 189.56 C 275.09 193.48 272.54 182.97 271.79 188.84 C 272.62 193.15 269.47 194.67 266.58 197.01 C 264.89 193.55 269.50 189.63 265.85 186.82 C 267.26 185.02 268.60 183.17 269.98 181.35 C 270.24 181.04 270.77 180.40 271.03 180.08 C 272.07 179.57 272.89 178.83 273.50 177.86 C 276.07 179.00 282.75 186.90 279.42 177.46 Z" />
</g>
<g id="#788340ef">
<path fill="#788340" opacity="0.94" d=" M 260.91 180.97 C 261.57 178.57 259.50 174.30 262.83 173.85 C 267.66 178.01 264.17 185.43 259.10 187.60 C 256.67 185.27 261.16 183.52 260.91 180.97 Z" />
</g>
<g id="#9d9d6fff">
<path fill="#9d9d6f" opacity="1.00" d=" M 291.89 177.04 C 292.60 175.27 295.34 176.35 296.90 175.96 C 297.20 176.23 297.78 176.76 298.08 177.03 C 301.98 181.40 300.09 186.78 293.98 184.08 C 293.25 183.44 292.53 182.78 291.84 182.10 C 298.81 186.19 297.96 175.74 291.89 177.04 Z" />
</g>
<g id="#0b0d0651">
</g>
<g id="#d1c5b1ff">
<path fill="#d1c5b1" opacity="1.00" d=" M 291.89 177.04 C 297.96 175.74 298.81 186.19 291.84 182.10 C 291.57 181.82 291.02 181.25 290.75 180.96 C 291.05 179.63 291.36 178.30 291.89 177.04 Z" />
</g>
<g id="#7b8751ff">
<path fill="#7b8751" opacity="1.00" d=" M 178.29 180.26 C 181.44 179.86 185.03 185.12 180.71 186.85 C 172.95 190.84 172.68 181.40 178.29 180.26 Z" />
</g>
<g id="#9fac66ff">
<path fill="#9fac66" opacity="1.00" d=" M 185.22 180.81 C 187.53 185.92 191.88 189.99 192.15 195.97 C 190.69 202.28 203.41 202.06 198.73 208.14 C 196.18 201.49 186.54 208.46 182.72 209.38 C 182.85 207.16 183.60 204.45 184.16 202.11 C 185.80 202.71 191.85 203.06 188.49 200.59 C 183.92 198.39 191.51 193.74 187.60 191.41 C 186.06 189.89 184.89 188.06 184.02 186.09 C 184.51 184.35 184.86 182.58 185.22 180.81 Z" />
</g>
<g id="#748237fd">
<path fill="#748237" opacity="1.00" d=" M 238.71 186.98 C 239.70 184.93 242.42 179.91 244.45 183.57 C 245.94 187.30 248.73 180.81 249.90 182.91 C 250.14 187.62 253.88 184.90 256.26 183.31 C 255.56 185.52 255.16 187.81 255.01 190.12 C 253.74 190.90 252.43 191.62 251.12 192.33 C 247.20 192.97 248.51 189.55 248.65 187.09 C 245.35 187.65 241.96 187.96 238.71 186.98 Z" />
</g>
<g id="#38411bfc">
<path fill="#38411b" opacity="1.00" d=" M 252.72 200.90 C 256.12 195.39 261.35 191.38 265.85 186.82 C 269.50 189.63 264.89 193.55 266.58 197.01 L 266.80 197.80 C 266.96 202.42 266.46 207.11 261.89 203.47 C 256.68 205.68 260.38 213.01 258.79 216.86 C 252.08 213.52 250.19 221.99 246.01 224.18 C 245.37 218.00 249.82 211.75 245.95 206.03 C 247.93 206.57 249.96 207.04 252.04 206.96 C 252.21 205.45 252.55 202.42 252.72 200.90 Z" />
</g>
<g id="#565726f8">
<path fill="#565726" opacity="0.97" d=" M 296.19 187.74 C 300.04 188.70 303.39 191.31 305.41 194.72 C 308.59 196.31 312.04 194.66 315.30 194.25 C 311.92 196.66 307.78 197.93 304.98 201.13 C 299.53 199.06 297.79 192.79 296.19 187.74 Z" />
</g>
<g id="#2524149c">
<path fill="#252414" opacity="0.61" d=" M 125.56 198.74 C 126.02 195.43 126.26 192.08 126.82 188.79 C 126.78 193.27 126.81 197.76 126.79 202.26 C 126.34 201.10 125.93 199.92 125.56 198.74 Z" />
</g>
<g id="#00000013">
</g>
<g id="#0000004a">
</g>
<g id="#707835fd">
<path fill="#707835" opacity="1.00" d=" M 220.12 194.01 C 223.40 193.27 226.80 193.06 230.12 193.67 C 230.06 197.08 229.87 200.53 230.08 203.95 C 232.75 204.05 236.87 201.35 238.09 204.93 C 235.74 207.38 233.63 210.09 238.22 211.38 C 236.26 211.66 234.28 211.73 232.31 211.93 C 229.47 210.36 228.63 208.35 231.10 205.91 C 227.99 205.27 224.55 209.44 225.81 212.16 C 229.84 216.55 219.95 221.18 225.67 225.33 C 228.71 229.49 232.51 225.03 230.94 221.21 C 234.26 226.25 231.72 232.19 227.87 235.86 C 233.36 240.56 238.32 233.87 241.89 229.93 C 241.61 233.07 241.58 236.13 245.11 233.57 C 247.23 236.84 254.94 241.45 258.50 236.91 C 262.12 237.63 262.36 236.24 260.19 233.68 C 262.10 233.74 263.05 235.00 263.50 236.73 C 267.61 238.52 265.61 233.39 264.85 231.26 C 265.48 227.90 267.65 225.51 271.10 225.05 C 271.08 227.63 269.09 230.79 271.10 232.97 C 272.81 232.32 276.96 229.01 276.01 232.97 C 276.42 236.84 271.63 236.61 269.07 237.18 C 271.36 240.23 275.79 237.23 278.67 236.06 C 278.38 240.10 281.14 238.48 283.38 237.13 C 280.53 244.36 270.25 240.59 268.05 248.94 C 264.38 249.19 260.70 249.54 257.03 249.80 C 255.56 248.77 253.60 248.29 251.93 249.14 C 254.51 247.74 256.97 245.86 258.22 243.12 C 254.09 243.62 249.39 243.27 246.08 246.21 C 245.39 249.58 249.82 248.97 251.93 249.14 L 251.95 249.80 C 249.32 250.91 246.72 252.07 244.11 253.22 C 242.71 252.63 240.82 252.44 239.92 253.93 C 233.31 254.07 226.71 254.12 220.17 253.13 C 217.95 258.89 215.60 265.28 209.19 267.48 C 204.56 266.22 202.28 257.54 196.61 262.60 C 191.81 267.76 192.75 257.28 188.40 257.80 C 188.59 259.58 188.84 261.36 188.95 263.16 C 187.00 261.40 184.94 259.67 183.92 257.18 C 183.96 256.64 184.05 255.56 184.10 255.02 C 190.22 258.72 187.02 250.88 184.51 248.57 C 182.27 248.19 181.96 246.72 182.79 244.82 C 185.30 243.39 187.44 246.42 187.33 248.76 C 186.25 253.78 193.27 253.40 196.27 255.69 C 201.08 258.22 201.94 247.94 196.95 248.98 C 192.37 248.49 197.53 252.23 199.13 253.12 C 196.91 252.95 194.78 252.19 192.97 250.89 C 194.27 248.29 196.29 245.98 198.98 244.77 C 198.40 246.32 197.16 248.49 199.96 248.03 C 204.40 247.57 200.80 253.46 201.24 256.09 C 204.21 256.58 206.17 253.82 205.62 251.10 C 207.23 247.04 213.36 242.66 217.15 246.83 C 220.29 250.51 224.30 246.45 228.19 247.49 C 225.25 244.19 227.04 242.01 230.26 239.99 C 228.70 236.98 223.52 237.85 226.61 232.70 C 226.53 224.82 211.79 225.11 211.37 233.34 C 209.27 237.71 213.17 236.68 216.10 236.01 C 214.95 238.63 209.64 242.97 207.80 240.60 C 211.05 238.41 208.95 234.31 209.31 231.11 C 210.04 227.48 213.21 225.24 216.72 224.65 C 217.87 222.17 217.34 219.20 219.23 216.99 C 220.93 213.82 219.25 210.24 221.18 207.19 C 219.25 207.75 217.36 208.47 215.39 208.84 C 215.45 205.82 213.39 206.21 211.21 206.91 C 211.82 204.89 212.55 202.92 213.01 200.86 C 209.54 200.86 207.62 204.91 203.97 204.09 C 206.76 201.41 203.73 198.46 205.12 195.43 C 207.21 194.98 209.28 195.13 209.51 197.74 C 212.43 199.42 214.09 194.01 216.79 196.14 C 218.37 197.39 219.09 194.82 220.12 194.01 M 223.26 195.23 C 221.05 200.64 228.14 194.84 223.26 195.23 M 238.96 234.88 C 234.58 244.40 246.53 242.53 245.05 235.97 C 242.82 236.15 240.04 237.76 238.96 234.88 M 213.40 254.43 C 208.49 255.45 207.55 258.72 206.22 263.16 C 209.12 267.57 221.37 254.00 213.40 254.43 Z" />
</g>
<g id="#1f230d96">
</g>
<g id="#4b5a2cfd">
<path fill="#4b5a2c" opacity="1.00" d=" M 230.12 193.67 L 230.91 193.75 C 228.27 203.64 240.56 202.17 245.95 206.03 C 249.82 211.75 245.37 218.00 246.01 224.18 C 250.19 221.99 252.08 213.52 258.79 216.86 C 260.38 213.01 256.68 205.68 261.89 203.47 C 266.46 207.11 266.96 202.42 266.80 197.80 C 267.38 199.06 268.55 201.57 269.13 202.82 C 270.33 204.43 268.39 205.73 267.73 207.08 C 266.14 213.73 259.31 219.01 262.01 226.00 C 259.01 224.58 256.16 224.29 254.07 221.89 C 255.38 226.24 254.21 230.84 251.23 234.25 C 253.14 230.36 249.76 224.73 249.39 233.55 C 248.22 238.36 255.55 235.82 258.50 236.91 C 254.94 241.45 247.23 236.84 245.11 233.57 C 241.58 236.13 241.61 233.07 241.89 229.93 C 242.92 227.99 245.16 228.07 247.03 227.63 C 246.22 221.73 238.62 230.05 235.75 226.29 C 231.88 221.30 246.78 227.43 243.33 221.60 C 240.18 219.18 247.00 214.84 241.32 214.60 C 242.27 211.60 241.49 210.27 238.22 211.38 C 233.63 210.09 235.74 207.38 238.09 204.93 C 236.87 201.35 232.75 204.05 230.08 203.95 C 229.87 200.53 230.06 197.08 230.12 193.67 Z" />
</g>
<g id="#cfc4b3ff">
<path fill="#cfc4b3" opacity="1.00" d=" M 223.26 195.23 C 228.14 194.84 221.05 200.64 223.26 195.23 Z" />
</g>
<g id="#c2b39aff">
<path fill="#c2b39a" opacity="1.00" d=" M 269.53 199.81 C 269.55 196.46 273.17 198.46 274.55 199.78 C 274.55 202.78 269.30 202.97 269.53 199.81 Z" />
</g>
<g id="#616839fd">
<path fill="#616839" opacity="1.00" d=" M 288.36 215.67 C 282.40 210.75 284.31 195.66 293.77 198.99 C 290.70 202.60 288.55 212.84 295.08 213.35 C 294.43 214.57 293.81 215.81 293.20 217.04 C 293.81 212.73 289.48 219.23 288.36 215.67 Z" />
</g>
<g id="#95a367ff">
<path fill="#95a367" opacity="1.00" d=" M 269.13 202.82 C 269.19 201.81 269.33 200.80 269.53 199.81 C 269.30 202.97 274.55 202.78 274.55 199.78 C 276.13 200.72 277.95 202.80 279.44 200.59 C 284.07 203.58 284.69 208.86 284.05 214.11 C 281.13 214.04 282.22 209.68 279.36 211.36 C 274.32 211.92 281.20 215.76 280.26 218.79 C 278.53 218.02 276.82 217.16 274.95 216.83 C 278.58 220.37 275.24 224.40 271.10 225.05 C 267.65 225.51 265.48 227.90 264.85 231.26 C 261.84 231.12 263.58 228.07 264.37 226.50 C 266.64 222.87 266.85 218.10 270.57 215.50 C 267.48 213.45 272.39 211.59 273.08 209.30 C 271.07 209.56 268.20 209.68 267.73 207.08 C 268.39 205.73 270.33 204.43 269.13 202.82 Z" />
</g>
<g id="#13150a93">
</g>
<g id="#665024f1">
<path fill="#665024" opacity="0.95" d=" M 298.14 207.24 C 297.51 200.80 300.23 200.59 304.74 203.11 C 304.05 205.99 300.57 206.54 298.14 207.24 Z" />
</g>
<g id="#303311ff">
<path fill="#303311" opacity="1.00" d=" M 225.81 212.16 C 224.55 209.44 227.99 205.27 231.10 205.91 C 228.63 208.35 229.47 210.36 232.31 211.93 C 229.68 214.21 227.56 218.61 230.94 221.21 C 232.51 225.03 228.71 229.49 225.67 225.33 C 219.95 221.18 229.84 216.55 225.81 212.16 Z" />
</g>
<g id="#c0b197ff">
<path fill="#c0b197" opacity="1.00" d=" M 293.04 206.03 C 299.82 204.35 290.51 214.60 293.04 206.03 Z" />
</g>
<g id="#78824aff">
<path fill="#78824a" opacity="1.00" d=" M 262.01 226.00 C 259.31 219.01 266.14 213.73 267.73 207.08 C 268.20 209.68 271.07 209.56 273.08 209.30 C 272.39 211.59 267.48 213.45 270.57 215.50 C 266.85 218.10 266.64 222.87 264.37 226.50 C 263.58 228.07 261.84 231.12 264.85 231.26 C 265.61 233.39 267.61 238.52 263.50 236.73 C 263.05 235.00 262.10 233.74 260.19 233.68 C 262.36 236.24 262.12 237.63 258.50 236.91 C 255.55 235.82 248.22 238.36 249.39 233.55 C 249.76 224.73 253.14 230.36 251.23 234.25 C 254.21 230.84 255.38 226.24 254.07 221.89 C 256.16 224.29 259.01 224.58 262.01 226.00 Z" />
</g>
<g id="#0000006a">
</g>
<g id="#819452ff">
<path fill="#819452" opacity="1.00" d=" M 232.31 211.93 C 234.28 211.73 236.26 211.66 238.22 211.38 C 241.49 210.27 242.27 211.60 241.32 214.60 C 247.00 214.84 240.18 219.18 243.33 221.60 C 246.78 227.43 231.88 221.30 235.75 226.29 C 238.62 230.05 246.22 221.73 247.03 227.63 C 245.16 228.07 242.92 227.99 241.89 229.93 C 238.32 233.87 233.36 240.56 227.87 235.86 C 231.72 232.19 234.26 226.25 230.94 221.21 C 227.56 218.61 229.68 214.21 232.31 211.93 Z" />
</g>
<g id="#6a773fff">
<path fill="#6a773f" opacity="1.00" d=" M 211.10 213.01 C 213.92 211.27 216.22 214.08 218.14 215.84 C 213.15 214.73 209.37 218.53 213.09 222.64 C 205.79 221.82 200.17 230.89 204.91 236.66 C 198.36 237.71 207.45 246.08 198.98 244.77 C 197.75 241.40 196.02 238.28 194.20 235.21 C 199.84 232.88 199.08 226.37 202.57 222.52 C 204.67 217.21 193.75 222.91 191.75 219.87 C 193.88 215.15 198.56 219.78 202.09 217.92 C 201.63 214.77 197.05 218.20 197.94 214.96 C 198.08 210.16 203.10 214.90 203.66 217.47 C 207.14 221.64 207.96 213.70 211.10 213.01 Z" />
</g>
<g id="#00000036">
</g>
<g id="#0101017d">
</g>
<g id="#505224ff">
<path fill="#505224" opacity="1.00" d=" M 213.09 222.64 C 209.37 218.53 213.15 214.73 218.14 215.84 C 218.41 216.13 218.96 216.70 219.23 216.99 C 217.34 219.20 217.87 222.17 216.72 224.65 C 213.21 225.24 210.04 227.48 209.31 231.11 C 208.95 234.31 211.05 238.41 207.80 240.60 C 206.85 239.27 205.89 237.96 204.91 236.66 C 200.17 230.89 205.79 221.82 213.09 222.64 Z" />
</g>
<g id="#00000025">
</g>
<g id="#bfad8bff">
<path fill="#bfad8b" opacity="1.00" d=" M 170.72 227.57 C 169.87 223.19 172.76 221.48 174.58 225.88 C 173.56 227.04 172.37 228.17 170.72 227.57 Z" />
</g>
<g id="#5e572bfc">
<path fill="#5e572b" opacity="1.00" d=" M 161.81 227.29 C 164.93 223.09 166.70 224.87 167.72 229.23 C 168.32 233.44 170.63 236.71 174.73 238.13 C 175.16 241.95 179.73 243.40 182.79 244.82 C 181.96 246.72 182.27 248.19 184.51 248.57 C 187.02 250.88 190.22 258.72 184.10 255.02 C 176.23 252.59 172.89 240.81 164.18 242.10 C 166.08 247.62 163.66 255.72 170.93 257.28 C 166.83 263.03 174.10 261.27 178.03 261.84 C 178.57 257.86 173.62 256.00 173.95 251.82 C 177.66 252.95 179.33 259.52 183.92 257.18 C 184.94 259.67 187.00 261.40 188.95 263.16 C 188.84 261.36 188.59 259.58 188.40 257.80 C 192.75 257.28 191.81 267.76 196.61 262.60 C 202.28 257.54 204.56 266.22 209.19 267.48 C 208.70 267.69 207.73 268.10 207.25 268.31 C 204.43 268.28 201.62 268.21 198.82 268.11 C 197.38 267.74 195.98 267.23 194.54 266.84 C 193.12 266.07 191.65 266.79 190.25 267.19 C 185.75 267.18 181.27 267.22 176.78 267.19 C 167.88 264.84 157.08 263.29 154.28 252.80 C 153.85 250.91 153.42 249.03 152.96 247.15 C 152.90 245.80 152.86 244.46 152.82 243.12 C 153.29 241.06 152.77 236.36 155.98 237.07 C 161.95 238.61 167.94 240.26 174.10 240.89 C 171.43 236.57 156.07 235.10 161.81 227.29 Z" />
</g>
<g id="#88752aff">
<path fill="#88752a" opacity="1.00" d=" M 167.92 225.97 C 168.68 226.78 169.49 227.68 170.72 227.57 C 172.37 228.17 173.56 227.04 174.58 225.88 C 176.49 227.37 184.86 227.03 180.94 229.89 C 177.30 231.23 176.51 235.12 174.73 238.13 C 170.63 236.71 168.32 233.44 167.72 229.23 C 167.77 228.41 167.87 226.78 167.92 225.97 Z" />
</g>
<g id="#0000001b">
</g>
<g id="#8b9455ff">
<path fill="#8b9455" opacity="1.00" d=" M 211.37 233.34 C 211.79 225.11 226.53 224.82 226.61 232.70 C 223.52 237.85 228.70 236.98 230.26 239.99 C 227.04 242.01 225.25 244.19 228.19 247.49 C 224.30 246.45 220.29 250.51 217.15 246.83 C 213.36 242.66 207.23 247.04 205.62 251.10 C 206.17 253.82 204.21 256.58 201.24 256.09 C 200.80 253.46 204.40 247.57 199.96 248.03 C 197.16 248.49 198.40 246.32 198.98 244.77 C 207.45 246.08 198.36 237.71 204.91 236.66 C 205.89 237.96 206.85 239.27 207.80 240.60 C 209.64 242.97 214.95 238.63 216.10 236.01 C 213.17 236.68 209.27 237.71 211.37 233.34 M 215.22 230.17 C 213.70 230.93 214.01 232.63 213.98 234.05 C 216.93 235.26 218.70 228.70 215.22 230.17 Z" />
</g>
<g id="#c9b9a0ff">
<path fill="#c9b9a0" opacity="1.00" d=" M 215.22 230.17 C 218.70 228.70 216.93 235.26 213.98 234.05 C 214.01 232.63 213.70 230.93 215.22 230.17 Z" />
</g>
<g id="#6b6638ff">
<path fill="#6b6638" opacity="1.00" d=" M 184.94 231.95 C 190.30 232.50 187.83 239.97 190.99 241.98 C 191.45 242.28 192.38 242.89 192.85 243.19 C 193.82 246.43 192.29 247.32 188.25 245.86 C 183.51 242.42 186.84 236.56 184.94 231.95 Z" />
</g>
<g id="#3e331696">
</g>
<g id="#90a464ff">
<path fill="#90a464" opacity="1.00" d=" M 238.96 234.88 C 240.04 237.76 242.82 236.15 245.05 235.97 C 246.53 242.53 234.58 244.40 238.96 234.88 Z" />
</g>
<g id="#c3b596ff">
<path fill="#c3b596" opacity="1.00" d=" M 190.99 241.98 C 191.80 237.07 196.10 239.71 192.85 243.19 C 192.38 242.89 191.45 242.28 190.99 241.98 Z" />
</g>
<g id="#7f7542ff">
<path fill="#7f7542" opacity="1.00" d=" M 164.18 242.10 C 172.89 240.81 176.23 252.59 184.10 255.02 C 184.05 255.56 183.96 256.64 183.92 257.18 C 179.33 259.52 177.66 252.95 173.95 251.82 C 173.62 256.00 178.57 257.86 178.03 261.84 C 174.10 261.27 166.83 263.03 170.93 257.28 C 163.66 255.72 166.08 247.62 164.18 242.10 Z" />
</g>
<g id="#8a9c51ff">
<path fill="#8a9c51" opacity="1.00" d=" M 246.08 246.21 C 249.39 243.27 254.09 243.62 258.22 243.12 C 256.97 245.86 254.51 247.74 251.93 249.14 C 249.82 248.97 245.39 249.58 246.08 246.21 Z" />
</g>
<g id="#2d3212a7">
<path fill="#2d3212" opacity="0.65" d=" M 251.93 249.14 C 253.60 248.29 255.56 248.77 257.03 249.80 C 255.35 250.12 253.62 250.23 251.95 249.80 L 251.93 249.14 Z" />
</g>
<g id="#2a34149e">
<path fill="#2a3414" opacity="0.62" d=" M 239.92 253.93 C 240.82 252.44 242.71 252.63 244.11 253.22 C 243.00 254.38 241.34 254.41 239.92 253.93 Z" />
</g>
<g id="#a99875ff">
<path fill="#a99875" opacity="1.00" d=" M 213.40 254.43 C 221.37 254.00 209.12 267.57 206.22 263.16 C 207.55 258.72 208.49 255.45 213.40 254.43 Z" />
</g>
<g id="#282e13a7">
<path fill="#282e13" opacity="0.65" d=" M 176.78 267.19 C 181.27 267.22 185.75 267.18 190.25 267.19 C 185.96 268.91 181.16 267.96 176.78 267.19 Z" />
</g>
<g id="#292112a0">
<path fill="#292112" opacity="0.63" d=" M 198.82 268.11 C 201.62 268.21 204.43 268.28 207.25 268.31 C 204.57 269.62 201.56 268.79 198.82 268.11 Z" />
</g>
</svg>



