<?xml version="1.0" encoding="UTF-8" ?>
<!DOCTYPE svg PUBLIC "-//W3C//DTD SVG 1.1//EN" "http://www.w3.org/Graphics/SVG/1.1/DTD/svg11.dtd">
<svg width="384pt" height="384pt" viewBox="0 0 384 384" version="1.1" xmlns="http://www.w3.org/2000/svg">
<g id="#00000010">
</g>
<g id="#00000019">
</g>
<g id="#585f33fd">
<path fill="#585f33" opacity="1.00" d=" M 190.53 29.42 C 195.23 25.42 196.72 35.42 200.27 31.46 L 201.10 30.92 L 201.94 31.26 C 200.31 35.64 196.07 42.71 191.04 38.27 C 187.32 41.11 182.94 44.77 177.96 43.45 C 175.38 43.21 173.55 48.98 171.43 45.61 C 169.40 40.95 158.28 45.30 164.33 48.66 C 165.73 50.61 168.44 56.71 170.80 52.40 C 167.18 51.53 171.49 49.55 173.05 49.10 C 174.83 48.43 172.87 52.06 173.16 53.15 C 176.55 53.25 178.61 48.16 181.90 51.24 C 182.67 55.05 174.71 58.75 179.75 62.00 C 180.09 62.29 180.77 62.89 181.11 63.18 C 180.34 67.51 175.99 61.23 173.79 60.27 C 169.99 61.09 168.93 65.70 167.54 68.81 C 163.75 69.14 160.49 63.75 157.09 68.16 C 158.60 72.62 159.41 77.30 159.01 82.04 C 155.55 82.61 152.95 79.95 149.91 78.88 C 151.35 85.14 157.51 89.28 164.02 85.58 C 164.55 89.84 165.31 89.47 168.58 88.09 C 167.47 92.96 178.07 97.59 169.75 97.69 C 166.32 102.08 160.07 97.03 160.02 103.42 C 157.07 103.71 157.53 101.52 157.61 99.40 C 155.05 94.81 148.53 98.90 148.02 103.01 C 148.13 107.00 138.15 105.53 142.38 109.58 C 146.17 111.10 142.84 118.18 146.75 117.96 C 149.88 115.93 147.32 107.18 154.04 110.01 C 157.45 110.90 163.09 105.46 163.85 110.78 C 159.94 112.17 155.01 111.77 152.10 115.12 C 155.38 117.68 156.86 126.56 162.07 123.67 L 162.90 123.16 C 165.63 122.69 168.37 122.30 171.12 121.98 C 174.07 122.72 175.92 117.81 178.46 120.03 C 176.92 121.98 176.24 125.28 173.17 125.07 C 166.53 124.18 167.39 135.31 160.18 135.46 C 158.56 140.41 164.53 141.66 167.70 143.20 C 167.27 149.75 153.63 139.89 155.76 147.29 C 158.10 150.57 155.10 153.74 154.96 157.12 C 157.06 161.73 161.06 164.97 164.98 167.97 C 161.79 166.29 160.39 167.60 160.72 171.12 C 154.93 168.39 150.19 162.78 143.09 163.43 C 139.87 164.72 136.24 164.84 133.10 163.28 C 135.00 170.53 128.35 168.60 125.07 166.78 C 124.98 164.78 124.86 162.78 124.79 160.78 C 126.68 156.16 131.32 152.68 127.90 146.87 C 128.23 146.42 128.88 145.52 129.20 145.07 C 129.42 143.56 129.86 140.52 130.08 139.00 C 130.34 136.95 130.45 134.90 130.43 132.84 C 129.25 129.40 127.66 126.03 128.15 122.24 C 128.43 119.45 128.73 116.69 128.99 113.90 C 130.22 111.18 131.71 108.59 133.02 105.92 C 140.49 101.99 136.59 91.74 141.97 85.94 C 143.38 81.38 143.69 76.31 142.25 71.71 C 142.36 68.27 140.20 62.98 144.43 61.52 C 149.00 60.11 152.28 56.62 155.27 53.05 C 156.59 52.03 156.23 50.19 155.66 48.87 C 156.46 46.14 158.29 44.02 160.88 42.83 C 162.69 42.87 166.32 42.95 168.14 42.99 C 171.53 42.76 174.66 41.31 177.21 39.10 C 178.81 38.23 178.17 36.15 177.60 34.85 C 179.34 28.21 187.09 34.43 190.53 29.42 Z" />
</g>
<g id="#27281082">
</g>
<g id="#727838fc">
<path fill="#727838" opacity="1.00" d=" M 201.94 31.26 C 202.73 31.11 204.30 30.81 205.09 30.66 C 207.04 35.73 209.98 37.47 216.15 36.69 C 214.45 36.91 211.51 36.31 212.59 38.90 C 209.50 37.49 206.49 38.52 203.79 40.26 C 201.76 39.33 198.49 37.89 198.25 41.31 C 197.89 46.07 206.29 44.46 206.58 49.35 C 205.53 53.67 206.78 57.77 207.46 61.97 C 210.14 62.20 212.58 59.58 214.92 61.98 C 219.81 57.99 225.89 55.40 232.35 56.21 C 231.67 58.64 229.20 59.46 227.11 60.30 C 225.77 59.75 224.14 59.56 222.99 60.63 C 219.56 62.12 216.54 64.36 213.22 66.06 C 208.56 63.84 203.59 63.36 201.61 68.69 C 198.10 74.43 191.22 77.53 188.72 83.84 L 187.82 84.19 C 186.61 77.44 192.81 71.96 194.35 65.58 C 198.79 67.52 196.49 60.51 193.20 62.03 C 191.64 62.13 190.92 70.23 189.85 65.14 C 187.26 60.82 193.09 56.73 188.62 53.26 C 183.52 51.92 184.35 59.80 184.98 62.99 C 183.41 61.96 179.81 57.96 179.75 62.00 C 174.71 58.75 182.67 55.05 181.90 51.24 C 178.61 48.16 176.55 53.25 173.16 53.15 C 172.87 52.06 174.83 48.43 173.05 49.10 C 171.49 49.55 167.18 51.53 170.80 52.40 C 168.44 56.71 165.73 50.61 164.33 48.66 C 158.28 45.30 169.40 40.95 171.43 45.61 C 173.55 48.98 175.38 43.21 177.96 43.45 C 182.94 44.77 187.32 41.11 191.04 38.27 C 196.07 42.71 200.31 35.64 201.94 31.26 M 203.21 50.16 C 201.44 51.16 202.08 53.38 202.01 55.05 C 205.33 56.28 206.62 48.73 203.21 50.16 M 201.19 59.29 C 199.64 60.07 197.44 60.87 197.97 63.04 C 201.23 63.57 207.15 60.31 201.19 59.29 Z" />
</g>
<g id="#26251593">
</g>
<g id="#828640fc">
<path fill="#828640" opacity="1.00" d=" M 212.59 38.90 C 211.51 36.31 214.45 36.91 216.15 36.69 C 218.60 38.59 220.55 41.20 221.52 44.17 C 221.17 45.96 219.48 48.10 221.89 49.13 L 221.95 49.79 C 217.15 49.59 216.14 54.79 212.29 53.83 C 208.50 49.89 207.96 43.83 203.79 40.26 C 206.49 38.52 209.50 37.49 212.59 38.90 Z" />
</g>
<g id="#889b58fe">
<path fill="#889b58" opacity="1.00" d=" M 198.25 41.31 C 198.49 37.89 201.76 39.33 203.79 40.26 C 207.96 43.83 208.50 49.89 212.29 53.83 C 216.14 54.79 217.15 49.59 221.95 49.79 C 223.89 50.68 226.08 50.50 228.00 49.65 C 230.87 50.74 234.88 52.58 232.35 56.21 C 225.89 55.40 219.81 57.99 214.92 61.98 C 212.58 59.58 210.14 62.20 207.46 61.97 C 206.78 57.77 205.53 53.67 206.58 49.35 C 206.29 44.46 197.89 46.07 198.25 41.31 Z" />
</g>
<g id="#1f1a0e82">
</g>
<g id="#28261a97">
</g>
<g id="#404b21b6">
<path fill="#404b21" opacity="0.71" d=" M 221.89 49.13 C 223.42 49.26 226.47 49.52 228.00 49.65 C 226.08 50.50 223.89 50.68 221.95 49.79 L 221.89 49.13 Z" />
</g>
<g id="#ab9a6fff">
<path fill="#ab9a6f" opacity="1.00" d=" M 203.21 50.16 C 206.62 48.73 205.33 56.28 202.01 55.05 C 202.08 53.38 201.44 51.16 203.21 50.16 Z" />
</g>
<g id="#8a9a52ff">
<path fill="#8a9a52" opacity="1.00" d=" M 184.98 62.99 C 184.35 59.80 183.52 51.92 188.62 53.26 C 193.09 56.73 187.26 60.82 189.85 65.14 C 190.92 70.23 191.64 62.13 193.20 62.03 C 196.49 60.51 198.79 67.52 194.35 65.58 C 192.81 71.96 186.61 77.44 187.82 84.19 L 187.85 85.02 C 186.56 86.63 184.82 86.99 183.06 85.83 C 182.76 82.63 185.32 80.22 186.46 77.44 C 189.96 69.80 186.54 73.42 184.72 74.61 C 182.13 76.07 179.60 77.64 177.02 79.10 C 180.88 74.84 181.61 68.09 181.11 63.18 C 180.77 62.89 180.09 62.29 179.75 62.00 C 179.81 57.96 183.41 61.96 184.98 62.99 Z" />
</g>
<g id="#b09972ff">
<path fill="#b09972" opacity="1.00" d=" M 201.19 59.29 C 207.15 60.31 201.23 63.57 197.97 63.04 C 197.44 60.87 199.64 60.07 201.19 59.29 Z" />
</g>
<g id="#6e833fff">
<path fill="#6e833f" opacity="1.00" d=" M 167.54 68.81 C 168.93 65.70 169.99 61.09 173.79 60.27 C 175.99 61.23 180.34 67.51 181.11 63.18 C 181.61 68.09 180.88 74.84 177.02 79.10 C 179.60 77.64 182.13 76.07 184.72 74.61 C 185.50 80.41 175.39 80.28 180.76 85.98 C 174.45 90.84 170.15 84.06 164.02 85.58 C 157.51 89.28 151.35 85.14 149.91 78.88 C 152.95 79.95 155.55 82.61 159.01 82.04 C 159.41 77.30 158.60 72.62 157.09 68.16 C 160.49 63.75 163.75 69.14 167.54 68.81 Z" />
</g>
<g id="#22291595">
</g>
<g id="#00000022">
</g>
<g id="#01010019">
</g>
<g id="#3f4c1ce4">
<path fill="#3f4c1c" opacity="0.89" d=" M 201.61 68.69 C 203.59 63.36 208.56 63.84 213.22 66.06 C 209.64 67.91 205.51 68.02 201.61 68.69 Z" />
</g>
<g id="#16180c68">
</g>
<g id="#6d7432fd">
<path fill="#6d7432" opacity="1.00" d=" M 184.72 74.61 C 186.54 73.42 189.96 69.80 186.46 77.44 C 185.32 80.22 182.76 82.63 183.06 85.83 C 184.82 86.99 186.56 86.63 187.85 85.02 C 187.45 87.59 187.78 89.97 188.82 92.18 C 193.17 101.26 205.35 97.75 209.26 106.81 C 206.60 104.57 200.89 101.83 199.71 106.70 C 198.88 110.39 194.94 107.74 192.39 108.12 C 192.08 110.47 191.18 112.60 189.16 113.96 C 183.29 118.75 187.57 111.17 190.19 108.96 C 185.34 107.87 180.44 118.40 177.95 112.05 C 176.95 110.83 174.86 110.13 175.11 108.25 C 179.60 105.30 185.19 107.18 190.13 105.89 C 189.60 102.28 184.32 102.72 182.04 100.23 C 178.17 103.13 172.63 101.10 169.75 97.69 C 178.07 97.59 167.47 92.96 168.58 88.09 C 165.31 89.47 164.55 89.84 164.02 85.58 C 170.15 84.06 174.45 90.84 180.76 85.98 C 175.39 80.28 185.50 80.41 184.72 74.61 Z" />
</g>
<g id="#3f4c1daf">
<path fill="#3f4c1d" opacity="0.69" d=" M 187.82 84.19 L 188.72 83.84 C 188.77 86.61 188.80 89.40 188.82 92.18 C 187.78 89.97 187.45 87.59 187.85 85.02 L 187.82 84.19 Z" />
</g>
<g id="#6d723fff">
<path fill="#6d723f" opacity="1.00" d=" M 148.02 103.01 C 148.53 98.90 155.05 94.81 157.61 99.40 C 157.53 101.52 157.07 103.71 160.02 103.42 C 162.65 105.85 165.88 107.84 167.59 111.10 C 169.39 114.50 171.48 117.95 171.12 121.98 C 168.37 122.30 165.63 122.69 162.90 123.16 C 163.76 122.21 164.61 121.26 165.43 120.28 C 169.58 117.80 167.79 112.73 163.09 113.03 C 157.75 113.60 157.23 120.36 161.16 123.05 L 162.07 123.67 C 156.86 126.56 155.38 117.68 152.10 115.12 C 155.01 111.77 159.94 112.17 163.85 110.78 C 163.09 105.46 157.45 110.90 154.04 110.01 C 147.32 107.18 149.88 115.93 146.75 117.96 C 142.84 118.18 146.17 111.10 142.38 109.58 C 138.15 105.53 148.13 107.00 148.02 103.01 Z" />
</g>
<g id="#7f8a41ff">
<path fill="#7f8a41" opacity="1.00" d=" M 160.02 103.42 C 160.07 97.03 166.32 102.08 169.75 97.69 C 172.63 101.10 178.17 103.13 182.04 100.23 C 184.32 102.72 189.60 102.28 190.13 105.89 C 185.19 107.18 179.60 105.30 175.11 108.25 C 174.86 110.13 176.95 110.83 177.95 112.05 C 174.95 112.44 170.95 111.85 172.55 107.91 C 170.01 107.37 168.20 108.60 167.59 111.10 C 165.88 107.84 162.65 105.85 160.02 103.42 Z" />
</g>
<g id="#7f8042fd">
<path fill="#7f8042" opacity="1.00" d=" M 199.71 106.70 C 200.89 101.83 206.60 104.57 209.26 106.81 C 209.52 107.30 210.03 108.26 210.29 108.74 C 210.22 111.87 210.20 115.03 210.05 118.17 C 209.27 121.24 208.28 124.34 209.18 127.58 C 211.44 129.39 214.08 130.96 215.24 133.77 C 219.49 138.02 218.44 142.84 216.35 147.69 C 221.09 148.72 220.25 152.23 215.68 152.38 C 215.96 156.48 210.54 162.66 218.04 160.21 C 217.70 165.62 209.00 162.81 205.08 165.77 C 205.21 162.92 204.96 160.99 202.76 164.00 C 202.73 161.95 202.80 159.91 202.82 157.87 C 199.69 159.28 200.25 162.23 201.05 164.98 C 195.32 162.42 198.58 157.23 202.33 154.47 C 207.78 152.07 206.43 145.08 207.53 140.37 C 204.48 140.26 205.13 137.27 205.01 135.08 C 205.16 133.21 204.50 129.70 202.49 132.40 C 200.42 131.29 195.13 122.00 201.63 123.12 C 202.33 127.29 204.52 130.81 208.14 133.07 C 206.32 127.71 207.19 122.69 207.96 117.23 C 207.85 115.68 207.49 114.18 207.06 112.69 C 206.41 109.69 205.93 106.20 202.24 105.77 C 202.87 109.37 202.44 112.97 202.35 116.57 C 204.33 117.88 206.53 120.77 203.23 122.02 C 200.89 119.02 199.50 115.46 197.80 112.09 C 194.27 112.09 191.57 113.97 190.27 117.22 C 190.16 115.93 191.47 113.43 189.16 113.96 C 191.18 112.60 192.08 110.47 192.39 108.12 C 194.94 107.74 198.88 110.39 199.71 106.70 M 211.20 142.15 C 209.03 145.49 212.54 155.70 215.89 150.00 C 213.69 147.81 213.93 142.26 211.20 142.15 Z" />
</g>
<g id="#0000002f">
</g>
<g id="#919b5fff">
<path fill="#919b5f" opacity="1.00" d=" M 202.24 105.77 C 205.93 106.20 206.41 109.69 207.06 112.69 C 203.12 112.83 206.32 116.16 207.96 117.23 C 207.19 122.69 206.32 127.71 208.14 133.07 C 204.52 130.81 202.33 127.29 201.63 123.12 C 195.13 122.00 200.42 131.29 202.49 132.40 C 204.50 129.70 205.16 133.21 205.01 135.08 C 203.12 136.10 201.02 136.19 199.16 135.06 L 198.72 134.38 C 195.91 132.31 200.32 126.04 193.45 129.39 C 186.04 129.51 185.94 121.07 183.94 115.91 C 182.00 117.13 180.35 118.74 178.46 120.03 C 175.92 117.81 174.07 122.72 171.12 121.98 C 171.48 117.95 169.39 114.50 167.59 111.10 C 168.20 108.60 170.01 107.37 172.55 107.91 C 170.95 111.85 174.95 112.44 177.95 112.05 C 180.44 118.40 185.34 107.87 190.19 108.96 C 187.57 111.17 183.29 118.75 189.16 113.96 C 191.47 113.43 190.16 115.93 190.27 117.22 C 191.57 113.97 194.27 112.09 197.80 112.09 C 199.50 115.46 200.89 119.02 203.23 122.02 C 206.53 120.77 204.33 117.88 202.35 116.57 C 202.44 112.97 202.87 109.37 202.24 105.77 Z" />
</g>
<g id="#503f1cad">
<path fill="#503f1c" opacity="0.68" d=" M 210.29 108.74 C 211.82 111.71 210.68 115.12 210.05 118.17 C 210.20 115.03 210.22 111.87 210.29 108.74 Z" />
</g>
<g id="#938351ff">
<path fill="#938351" opacity="1.00" d=" M 161.16 123.05 C 157.23 120.36 157.75 113.60 163.09 113.03 C 167.79 112.73 169.58 117.80 165.43 120.28 C 163.06 117.83 160.07 119.95 161.16 123.05 Z" />
</g>
<g id="#cdbfa6ff">
<path fill="#cdbfa6" opacity="1.00" d=" M 207.96 117.23 C 206.32 116.16 203.12 112.83 207.06 112.69 C 207.49 114.18 207.85 115.68 207.96 117.23 Z" />
</g>
<g id="#23251382">
</g>
<g id="#79803dff">
<path fill="#79803d" opacity="1.00" d=" M 178.46 120.03 C 180.35 118.74 182.00 117.13 183.94 115.91 C 185.94 121.07 186.04 129.51 193.45 129.39 C 200.32 126.04 195.91 132.31 198.72 134.38 C 195.56 135.05 191.69 133.05 189.03 135.21 C 189.19 139.37 189.57 144.04 193.10 146.81 C 190.72 147.47 188.32 148.04 186.04 148.98 C 187.54 151.07 189.31 152.95 190.97 154.92 C 188.40 157.60 179.79 152.51 181.91 158.02 C 177.89 157.22 182.32 151.44 182.06 148.41 C 179.06 147.70 174.84 150.18 172.90 147.20 C 174.75 145.83 181.96 144.63 176.40 143.49 C 172.87 142.47 177.44 139.26 177.09 137.00 C 174.36 136.16 172.76 138.33 171.06 140.01 C 168.76 134.94 173.57 130.25 173.17 125.07 C 176.24 125.28 176.92 121.98 178.46 120.03 Z" />
</g>
<g id="#cabda8ff">
<path fill="#cabda8" opacity="1.00" d=" M 161.16 123.05 C 160.07 119.95 163.06 117.83 165.43 120.28 C 164.61 121.26 163.76 122.21 162.90 123.16 L 162.07 123.67 L 161.16 123.05 Z" />
</g>
<g id="#677240ff">
<path fill="#677240" opacity="1.00" d=" M 160.18 135.46 C 167.39 135.31 166.53 124.18 173.17 125.07 C 173.57 130.25 168.76 134.94 171.06 140.01 C 172.76 138.33 174.36 136.16 177.09 137.00 C 177.44 139.26 172.87 142.47 176.40 143.49 C 181.96 144.63 174.75 145.83 172.90 147.20 C 174.84 150.18 179.06 147.70 182.06 148.41 C 182.32 151.44 177.89 157.22 181.91 158.02 C 182.42 158.20 183.43 158.54 183.94 158.71 C 184.59 164.92 177.09 159.93 179.25 165.82 C 171.16 166.74 179.32 154.67 173.51 152.21 C 171.47 155.92 169.77 156.59 168.83 151.96 C 164.05 153.26 159.93 156.49 154.96 157.12 C 155.10 153.74 158.10 150.57 155.76 147.29 C 153.63 139.89 167.27 149.75 167.70 143.20 C 164.53 141.66 158.56 140.41 160.18 135.46 Z" />
</g>
<g id="#68753dfb">
<path fill="#68753d" opacity="1.00" d=" M 305.06 140.10 C 307.00 135.62 311.82 129.58 317.11 131.48 C 312.25 132.45 314.75 137.31 314.68 140.85 C 312.56 144.35 310.58 148.69 307.19 143.86 C 303.80 148.15 311.44 151.39 307.09 154.32 C 306.03 150.29 297.32 148.51 300.96 156.01 C 300.66 160.92 306.27 158.08 308.37 156.35 L 309.03 155.91 C 307.15 161.33 293.16 165.26 297.04 154.09 C 299.99 149.63 303.47 145.65 305.06 140.10 Z" />
</g>
<g id="#7e914ffe">
<path fill="#7e914f" opacity="1.00" d=" M 314.68 140.85 C 314.75 137.31 312.25 132.45 317.11 131.48 C 318.30 132.57 319.33 133.81 320.26 135.12 C 320.10 135.81 319.80 137.17 319.64 137.85 C 316.88 144.36 310.77 148.90 309.03 155.91 L 308.37 156.35 C 308.05 155.84 307.41 154.83 307.09 154.32 C 311.44 151.39 303.80 148.15 307.19 143.86 C 310.58 148.69 312.56 144.35 314.68 140.85 Z" />
</g>
<g id="#0000003e">
</g>
<g id="#696133ff">
<path fill="#696133" opacity="1.00" d=" M 189.03 135.21 C 191.69 133.05 195.56 135.05 198.72 134.38 L 199.16 135.06 C 197.21 137.35 195.34 139.85 195.96 143.06 C 195.96 144.41 195.98 145.76 196.03 147.11 C 195.70 147.44 195.03 148.10 194.70 148.43 C 194.30 148.02 193.50 147.21 193.10 146.81 C 189.57 144.04 189.19 139.37 189.03 135.21 Z" />
</g>
<g id="#5a6730fb">
<path fill="#5a6730" opacity="1.00" d=" M 215.24 133.77 C 225.07 141.36 228.30 153.53 234.60 163.65 C 243.81 165.23 253.72 165.62 260.88 172.52 C 261.01 176.34 257.96 181.49 261.03 184.43 C 258.98 186.31 256.52 187.67 254.15 189.10 C 254.04 187.32 253.91 185.54 253.81 183.77 C 260.65 180.30 256.93 170.69 250.19 171.16 C 247.91 171.34 246.88 169.67 245.92 167.94 C 241.96 166.87 234.62 167.08 235.74 173.04 C 232.30 169.73 227.32 170.29 223.21 168.36 C 222.10 171.96 220.94 175.66 217.19 172.04 C 215.63 175.58 211.01 179.64 214.73 183.32 C 217.31 185.54 220.63 181.69 221.51 179.23 C 225.87 179.62 224.88 189.49 228.94 188.09 C 227.77 189.79 226.85 191.50 228.76 193.07 C 227.35 194.42 225.76 195.73 225.91 197.90 C 225.27 194.39 223.17 192.93 219.23 194.35 C 214.07 190.70 206.45 190.78 203.53 184.51 C 200.55 181.68 204.25 171.79 198.80 176.84 C 198.31 174.25 199.61 173.28 201.84 172.76 C 202.25 169.84 202.42 166.92 202.76 164.00 C 204.96 160.99 205.21 162.92 205.08 165.77 C 209.00 162.81 217.70 165.62 218.04 160.21 C 210.54 162.66 215.96 156.48 215.68 152.38 C 220.25 152.23 221.09 148.72 216.35 147.69 C 218.44 142.84 219.49 138.02 215.24 133.77 M 218.95 155.00 C 219.32 157.91 220.41 162.83 223.79 163.15 C 222.26 160.26 224.08 153.76 218.95 155.00 Z" />
</g>
<g id="#8a7129ff">
<path fill="#8a7129" opacity="1.00" d=" M 199.16 135.06 C 201.02 136.19 203.12 136.10 205.01 135.08 C 205.13 137.27 204.48 140.26 207.53 140.37 C 206.43 145.08 207.78 152.07 202.33 154.47 C 201.26 154.10 200.19 153.72 199.13 153.34 C 197.38 151.96 195.84 150.34 194.70 148.43 C 195.03 148.10 195.70 147.44 196.03 147.11 C 198.31 147.79 200.68 147.65 202.91 146.81 C 204.82 142.91 197.84 139.02 195.96 143.06 C 195.34 139.85 197.21 137.35 199.16 135.06 Z" />
</g>
<g id="#2429129a">
<path fill="#242912" opacity="0.60" d=" M 320.26 135.12 C 320.95 136.07 321.44 137.15 322.00 138.19 C 321.43 140.03 319.62 139.95 319.64 137.85 C 319.80 137.17 320.10 135.81 320.26 135.12 Z" />
</g>
<g id="#282d1087">
</g>
<g id="#48552afd">
<path fill="#48552a" opacity="1.00" d=" M 322.00 138.19 C 322.27 137.81 322.80 137.05 323.06 136.67 C 323.54 136.85 324.48 137.20 324.96 137.37 C 319.08 143.57 311.84 151.11 313.45 160.35 C 312.22 161.87 310.70 163.09 309.30 164.44 C 307.40 168.50 315.88 171.75 316.82 167.08 C 317.27 166.09 317.73 165.11 318.19 164.13 C 319.80 161.68 321.35 159.19 323.18 156.90 C 328.48 158.32 317.53 164.59 322.71 167.55 C 319.21 169.84 310.71 178.09 318.83 179.02 C 320.18 179.11 321.53 179.08 322.87 178.93 C 325.87 172.73 328.80 166.44 332.86 160.84 C 338.13 159.00 333.81 164.49 332.22 166.29 C 330.36 169.11 328.63 173.14 329.86 176.40 C 329.61 176.79 329.09 177.58 328.83 177.97 C 326.59 179.72 321.41 182.63 326.05 184.91 C 324.02 185.20 322.10 185.90 320.33 186.89 C 319.57 183.26 314.39 187.94 312.58 184.53 C 311.77 178.55 304.25 178.95 301.69 175.77 C 301.59 174.14 301.35 172.53 301.14 170.92 C 302.51 172.33 303.70 174.39 306.01 174.09 C 307.13 167.73 298.62 172.65 297.33 167.65 C 292.10 164.49 298.19 173.43 294.12 173.13 L 293.33 172.67 C 289.95 170.48 286.10 168.74 281.96 168.95 C 280.38 173.30 284.12 175.74 286.75 178.08 C 288.11 179.14 289.63 179.99 291.12 180.87 C 294.05 184.56 286.62 181.43 288.28 184.90 C 289.10 192.13 280.97 177.51 280.32 183.61 C 279.71 188.75 273.38 192.41 270.14 187.00 C 268.38 194.50 261.93 199.92 267.06 207.95 C 266.71 208.23 266.03 208.78 265.68 209.06 C 264.94 215.52 258.70 221.89 262.85 228.07 C 260.79 227.10 258.62 226.22 256.29 226.45 C 254.36 228.91 254.95 234.92 250.91 234.58 C 250.19 241.27 261.71 233.94 259.82 239.80 C 254.84 241.82 250.37 235.63 245.31 235.54 C 243.43 235.76 242.21 234.32 240.93 233.22 C 242.39 230.30 244.68 228.09 248.01 227.53 C 245.27 224.00 239.87 229.15 236.51 227.01 C 239.86 224.58 245.62 225.76 247.04 221.20 C 241.51 221.95 243.40 218.78 246.27 216.31 C 239.25 219.28 241.55 214.79 241.54 212.08 C 239.47 210.47 235.65 208.84 233.86 211.70 C 233.55 212.01 232.93 212.63 232.63 212.94 C 231.66 213.60 230.68 214.24 229.69 214.85 C 229.25 211.07 231.80 203.53 225.76 206.79 C 227.53 203.86 227.81 200.82 225.91 197.90 C 225.76 195.73 227.35 194.42 228.76 193.07 C 226.85 191.50 227.77 189.79 228.94 188.09 C 229.43 187.02 229.89 185.94 230.32 184.85 C 236.43 185.18 227.76 192.00 232.89 191.99 L 233.04 192.94 C 228.37 191.11 228.00 201.56 232.67 200.60 C 237.86 200.09 242.52 202.83 247.14 204.79 C 249.70 210.97 248.56 217.71 248.07 224.14 C 251.94 223.50 250.72 215.67 256.57 219.21 C 257.71 220.46 258.68 221.85 259.78 223.13 C 259.99 217.37 255.50 209.65 263.64 207.53 C 263.11 200.56 264.00 193.69 264.03 186.76 C 271.13 178.69 276.19 169.51 275.16 158.21 C 275.65 155.08 275.98 151.95 275.90 148.80 C 277.95 145.81 281.10 143.41 284.69 142.63 C 287.54 142.63 290.48 143.09 293.30 142.33 C 297.19 141.43 301.11 140.76 305.06 140.10 C 303.47 145.65 299.99 149.63 297.04 154.09 C 293.16 165.26 307.15 161.33 309.03 155.91 C 310.77 148.90 316.88 144.36 319.64 137.85 C 319.62 139.95 321.43 140.03 322.00 138.19 Z" />
</g>
<g id="#64783ffc">
<path fill="#64783f" opacity="1.00" d=" M 324.96 137.37 C 326.27 137.23 327.58 137.02 328.88 136.76 C 332.18 140.38 330.75 145.72 332.95 149.88 C 327.83 148.95 331.82 153.91 331.76 156.64 C 328.85 158.83 325.98 161.33 325.00 165.00 C 323.42 169.90 318.96 173.63 318.83 179.02 C 310.71 178.09 319.21 169.84 322.71 167.55 C 317.53 164.59 328.48 158.32 323.18 156.90 C 327.91 152.63 330.74 146.59 330.10 140.08 C 323.28 140.11 325.45 147.31 323.44 151.52 C 317.28 150.75 317.62 157.96 313.45 160.35 C 311.84 151.11 319.08 143.57 324.96 137.37 Z" />
</g>
<g id="#272c18b1">
<path fill="#272c18" opacity="0.69" d=" M 129.20 145.07 C 129.42 143.56 129.86 140.52 130.08 139.00 C 129.86 140.52 129.42 143.56 129.20 145.07 Z" />
</g>
<g id="#889751ff">
<path fill="#889751" opacity="1.00" d=" M 323.44 151.52 C 325.45 147.31 323.28 140.11 330.10 140.08 C 330.74 146.59 327.91 152.63 323.18 156.90 C 321.35 159.19 319.80 161.68 318.19 164.13 C 320.82 152.24 306.75 167.28 316.82 167.08 C 315.88 171.75 307.40 168.50 309.30 164.44 C 310.70 163.09 312.22 161.87 313.45 160.35 C 317.62 157.96 317.28 150.75 323.44 151.52 Z" />
</g>
<g id="#a08961ff">
<path fill="#a08961" opacity="1.00" d=" M 195.96 143.06 C 197.84 139.02 204.82 142.91 202.91 146.81 C 200.68 147.65 198.31 147.79 196.03 147.11 C 195.98 145.76 195.96 144.41 195.96 143.06 M 199.19 144.27 C 199.07 149.13 204.51 143.03 199.19 144.27 Z" />
</g>
<g id="#919e69ff">
<path fill="#919e69" opacity="1.00" d=" M 211.20 142.15 C 213.93 142.26 213.69 147.81 215.89 150.00 C 212.54 155.70 209.03 145.49 211.20 142.15 Z" />
</g>
<g id="#181e0e81">
</g>
<g id="#0000004f">
</g>
<g id="#ddd0bcff">
<path fill="#ddd0bc" opacity="1.00" d=" M 199.19 144.27 C 204.51 143.03 199.07 149.13 199.19 144.27 Z" />
</g>
<g id="#00000062">
</g>
<g id="#95a35fff">
<path fill="#95a35f" opacity="1.00" d=" M 186.04 148.98 C 188.32 148.04 190.72 147.47 193.10 146.81 C 193.50 147.21 194.30 148.02 194.70 148.43 C 195.84 150.34 197.38 151.96 199.13 153.34 C 195.96 155.71 195.39 159.99 191.97 162.17 C 191.41 166.50 199.12 165.83 196.50 170.38 C 195.68 175.74 192.54 171.03 193.65 167.91 C 188.22 169.82 193.66 175.51 196.41 177.61 C 200.72 178.81 194.25 188.08 195.62 181.67 C 191.07 182.81 194.23 187.86 193.90 191.19 C 191.89 190.37 191.00 187.21 188.50 188.97 C 189.09 187.39 193.37 186.84 190.95 185.11 C 186.58 181.47 177.73 177.67 182.93 170.99 C 187.85 171.00 188.69 161.36 183.94 158.71 C 183.43 158.54 182.42 158.20 181.91 158.02 C 179.79 152.51 188.40 157.60 190.97 154.92 C 189.31 152.95 187.54 151.07 186.04 148.98 Z" />
</g>
<g id="#13160a73">
</g>
<g id="#899653fe">
<path fill="#899653" opacity="1.00" d=" M 331.76 156.64 C 331.82 153.91 327.83 148.95 332.95 149.88 C 333.31 150.37 334.03 151.34 334.39 151.83 C 333.83 153.36 333.68 155.01 333.94 156.62 C 333.52 158.01 333.18 159.42 332.86 160.84 C 328.80 166.44 325.87 172.73 322.87 178.93 C 321.53 179.08 320.18 179.11 318.83 179.02 C 318.96 173.63 323.42 169.90 325.00 165.00 C 325.98 161.33 328.85 158.83 331.76 156.64 Z" />
</g>
<g id="#aca86aff">
<path fill="#aca86a" opacity="1.00" d=" M 300.96 156.01 C 297.32 148.51 306.03 150.29 307.09 154.32 C 307.41 154.83 308.05 155.84 308.37 156.35 C 306.27 158.08 300.66 160.92 300.96 156.01 Z" />
</g>
<g id="#5f6539ff">
<path fill="#5f6539" opacity="1.00" d=" M 154.96 157.12 C 159.93 156.49 164.05 153.26 168.83 151.96 C 169.77 156.59 171.47 155.92 173.51 152.21 C 179.32 154.67 171.16 166.74 179.25 165.82 C 180.96 170.23 178.81 174.58 176.00 177.93 C 177.42 180.18 179.10 176.68 180.65 178.25 C 183.97 179.21 181.87 183.14 182.69 185.66 C 178.24 187.88 184.35 192.42 177.90 191.20 C 181.75 194.61 179.78 196.71 177.17 199.81 C 181.70 203.74 174.78 204.21 173.79 207.75 C 173.07 209.44 173.60 211.39 173.53 213.18 C 171.11 212.11 167.64 211.09 169.68 206.85 C 162.50 208.03 171.00 220.83 174.89 213.90 C 178.40 207.80 186.95 218.99 182.01 220.95 C 177.86 217.48 172.25 221.59 168.05 218.29 C 164.89 220.46 166.26 224.62 165.98 227.93 C 165.93 230.61 165.93 233.31 165.95 236.00 C 162.96 231.77 158.44 227.86 157.50 222.61 C 154.36 215.22 161.41 221.08 162.14 217.02 C 159.92 212.55 154.37 217.99 150.47 216.84 C 146.46 222.08 145.90 214.42 145.04 210.96 C 142.84 204.91 130.11 213.09 134.61 203.66 C 133.73 196.40 144.26 209.55 139.89 198.36 C 130.79 196.76 137.01 182.87 143.61 188.96 C 144.11 181.28 154.99 171.74 161.31 179.50 C 165.49 183.10 171.52 176.19 165.56 173.62 C 166.66 171.55 167.76 169.23 164.98 167.97 C 161.06 164.97 157.06 161.73 154.96 157.12 M 174.36 181.24 C 170.78 183.92 171.81 191.15 177.03 188.10 C 184.03 187.45 179.20 179.75 174.36 181.24 Z" />
</g>
<g id="#37401e93">
</g>
<g id="#0000000d">
</g>
<g id="#858e4eff">
<path fill="#858e4e" opacity="1.00" d=" M 199.13 153.34 C 200.19 153.72 201.26 154.10 202.33 154.47 C 198.58 157.23 195.32 162.42 201.05 164.98 C 200.25 162.23 199.69 159.28 202.82 157.87 C 202.80 159.91 202.73 161.95 202.76 164.00 C 202.42 166.92 202.25 169.84 201.84 172.76 C 199.61 173.28 198.31 174.25 198.80 176.84 C 204.25 171.79 200.55 181.68 203.53 184.51 C 206.45 190.78 214.07 190.70 219.23 194.35 C 216.75 196.44 213.04 195.01 210.75 197.78 C 207.45 199.85 208.81 193.95 206.27 195.38 C 202.24 195.79 204.70 200.49 205.22 202.95 C 207.38 202.12 209.44 200.80 211.85 200.90 C 211.72 203.28 209.46 207.37 213.51 206.76 C 219.82 205.72 220.71 213.09 218.19 216.93 C 217.94 216.69 217.43 216.23 217.18 216.00 C 215.32 214.18 213.34 212.44 211.11 211.10 C 208.80 213.34 206.46 215.72 205.54 218.89 C 201.96 216.02 195.88 209.18 195.60 217.71 C 192.45 216.90 189.81 218.53 187.83 220.86 C 192.56 220.13 197.34 220.78 202.07 220.14 C 202.84 223.82 197.74 224.05 197.56 227.42 C 198.09 231.90 194.67 233.87 191.35 235.25 C 193.74 238.11 198.20 242.95 194.25 246.24 C 190.40 248.76 190.13 254.54 196.09 253.11 C 188.56 249.29 200.45 247.13 197.74 253.69 C 195.89 260.62 191.16 252.35 186.71 253.26 C 184.85 250.02 184.42 246.02 181.53 243.41 C 180.20 245.37 177.74 245.36 177.64 242.65 C 175.47 243.14 174.13 241.73 173.24 239.90 L 172.97 239.03 C 175.12 234.60 179.11 228.97 172.53 226.81 C 169.25 221.89 168.24 222.77 169.85 229.15 C 168.54 228.80 167.26 228.35 165.98 227.93 C 166.26 224.62 164.89 220.46 168.05 218.29 C 172.25 221.59 177.86 217.48 182.01 220.95 C 186.95 218.99 178.40 207.80 174.89 213.90 C 171.00 220.83 162.50 208.03 169.68 206.85 C 167.64 211.09 171.11 212.11 173.53 213.18 C 173.60 211.39 173.07 209.44 173.79 207.75 C 174.78 204.21 181.70 203.74 177.17 199.81 C 179.78 196.71 181.75 194.61 177.90 191.20 C 184.35 192.42 178.24 187.88 182.69 185.66 C 180.66 190.77 191.63 193.29 185.86 196.91 C 181.84 199.56 192.35 205.04 185.35 203.54 C 180.83 201.37 181.62 207.35 180.29 210.24 C 184.30 208.90 188.22 207.29 191.93 205.26 C 193.15 207.21 194.70 206.22 195.93 204.86 C 191.52 200.65 188.77 195.13 188.50 188.97 C 191.00 187.21 191.89 190.37 193.90 191.19 C 194.23 187.86 191.07 182.81 195.62 181.67 C 194.25 188.08 200.72 178.81 196.41 177.61 C 193.66 175.51 188.22 169.82 193.65 167.91 C 192.54 171.03 195.68 175.74 196.50 170.38 C 199.12 165.83 191.41 166.50 191.97 162.17 C 195.39 159.99 195.96 155.71 199.13 153.34 M 182.96 231.94 C 184.25 237.30 182.42 250.15 190.96 245.78 C 186.08 242.73 189.05 233.83 182.96 231.94 M 190.26 240.23 C 188.05 245.65 195.13 239.84 190.26 240.23 Z" />
</g>
<g id="#9a875aff">
<path fill="#9a875a" opacity="1.00" d=" M 218.95 155.00 C 224.08 153.76 222.26 160.26 223.79 163.15 C 220.41 162.83 219.32 157.91 218.95 155.00 Z" />
</g>
<g id="#697c41f7">
<path fill="#697c41" opacity="0.97" d=" M 332.86 160.84 C 333.18 159.42 333.52 158.01 333.94 156.62 L 334.72 156.67 C 338.75 159.16 341.97 164.21 339.43 168.94 C 338.43 167.35 336.97 166.12 335.40 165.14 C 333.58 168.90 332.17 172.89 329.86 176.40 C 328.63 173.14 330.36 169.11 332.22 166.29 C 333.81 164.49 338.13 159.00 332.86 160.84 Z" />
</g>
<g id="#83874eff">
<path fill="#83874e" opacity="1.00" d=" M 179.25 165.82 C 177.09 159.93 184.59 164.92 183.94 158.71 C 188.69 161.36 187.85 171.00 182.93 170.99 C 177.73 177.67 186.58 181.47 190.95 185.11 C 193.37 186.84 189.09 187.39 188.50 188.97 C 186.64 187.67 185.33 184.80 182.69 185.66 C 181.87 183.14 183.97 179.21 180.65 178.25 C 179.10 176.68 177.42 180.18 176.00 177.93 C 178.81 174.58 180.96 170.23 179.25 165.82 Z" />
</g>
<g id="#b9b673ff">
<path fill="#b9b673" opacity="1.00" d=" M 316.82 167.08 C 306.75 167.28 320.82 152.24 318.19 164.13 C 317.73 165.11 317.27 166.09 316.82 167.08 Z" />
</g>
<g id="#0000003a">
</g>
<g id="#2f291ba9">
<path fill="#2f291b" opacity="0.66" d=" M 123.74 167.10 C 124.00 165.52 124.53 162.36 124.79 160.78 C 124.86 162.78 124.98 164.78 125.07 166.78 C 124.99 167.65 124.83 169.38 124.75 170.25 C 124.40 169.20 124.06 168.15 123.74 167.10 Z" />
</g>
<g id="#4c4f29fd">
<path fill="#4c4f29" opacity="1.00" d=" M 133.10 163.28 C 136.24 164.84 139.87 164.72 143.09 163.43 C 150.19 162.78 154.93 168.39 160.72 171.12 C 160.39 167.60 161.79 166.29 164.98 167.97 C 167.76 169.23 166.66 171.55 165.56 173.62 C 171.52 176.19 165.49 183.10 161.31 179.50 C 154.99 171.74 144.11 181.28 143.61 188.96 C 137.01 182.87 130.79 196.76 139.89 198.36 C 144.26 209.55 133.73 196.40 134.61 203.66 C 130.11 213.09 142.84 204.91 145.04 210.96 C 145.90 214.42 146.46 222.08 150.47 216.84 C 154.37 217.99 159.92 212.55 162.14 217.02 C 161.41 221.08 154.36 215.22 157.50 222.61 C 158.44 227.86 162.96 231.77 165.95 236.00 C 167.97 237.66 170.57 238.16 172.97 239.03 L 173.24 239.90 C 172.25 246.16 166.43 239.10 162.65 240.51 C 158.41 241.48 149.90 233.42 153.01 242.96 C 152.36 253.13 163.86 256.84 167.78 264.81 L 167.12 265.49 C 163.97 264.27 160.83 262.97 157.99 261.13 C 155.76 257.20 153.81 253.12 152.11 248.94 C 152.09 248.21 152.06 246.77 152.04 246.05 C 152.05 244.70 152.04 243.36 152.02 242.02 C 152.00 241.52 151.97 240.53 151.95 240.04 C 151.91 238.65 150.17 238.45 149.31 237.72 C 145.20 234.55 140.98 231.29 138.02 226.98 C 135.38 223.10 136.49 217.56 133.41 213.95 C 132.79 213.23 132.16 212.51 131.51 211.81 C 131.21 211.37 130.59 210.50 130.28 210.06 C 125.73 204.24 125.46 196.91 125.82 189.80 C 126.58 186.17 129.99 183.99 132.02 181.11 C 128.80 178.75 127.22 175.08 125.23 171.76 C 125.11 171.38 124.87 170.63 124.75 170.25 C 124.83 169.38 124.99 167.65 125.07 166.78 C 128.35 168.60 135.00 170.53 133.10 163.28 Z" />
</g>
<g id="#919a5cf7">
<path fill="#919a5c" opacity="0.97" d=" M 335.40 165.14 C 336.97 166.12 338.43 167.35 339.43 168.94 C 334.82 172.27 334.49 178.22 331.09 182.40 C 328.58 182.32 329.11 179.73 328.83 177.97 C 329.09 177.58 329.61 176.79 329.86 176.40 C 332.17 172.89 333.58 168.90 335.40 165.14 Z" />
</g>
<g id="#7d8f43ff">
<path fill="#7d8f43" opacity="1.00" d=" M 235.74 173.04 C 234.62 167.08 241.96 166.87 245.92 167.94 C 246.88 169.67 247.91 171.34 250.19 171.16 C 245.94 175.22 240.50 170.89 235.74 173.04 Z" />
</g>
<g id="#656e3eff">
<path fill="#656e3e" opacity="1.00" d=" M 294.12 173.13 C 298.19 173.43 292.10 164.49 297.33 167.65 C 298.62 172.65 307.13 167.73 306.01 174.09 C 303.70 174.39 302.51 172.33 301.14 170.92 C 301.35 172.53 301.59 174.14 301.69 175.77 C 299.29 178.65 303.06 182.38 299.81 186.00 C 298.55 185.44 297.20 185.26 295.85 185.55 C 294.23 185.13 292.65 184.62 291.03 184.24 C 289.29 187.76 292.46 192.52 289.04 195.70 C 298.26 194.96 292.13 203.26 292.31 208.86 C 293.35 210.80 294.34 212.90 292.80 214.93 C 289.55 215.05 287.32 211.92 284.34 210.94 C 284.62 205.58 281.25 197.51 275.26 201.60 C 274.58 198.61 271.59 197.19 269.06 196.00 C 265.23 199.56 270.76 205.60 267.06 207.95 C 261.93 199.92 268.38 194.50 270.14 187.00 C 273.38 192.41 279.71 188.75 280.32 183.61 C 280.97 177.51 289.10 192.13 288.28 184.90 C 286.62 181.43 294.05 184.56 291.12 180.87 C 292.86 181.80 294.47 182.96 296.14 184.01 C 295.96 180.40 296.91 176.04 294.12 173.13 M 284.17 192.26 C 281.88 194.05 282.70 197.47 282.03 200.03 C 287.28 201.76 286.84 192.95 284.17 192.26 Z" />
</g>
<g id="#768847ff">
<path fill="#768847" opacity="1.00" d=" M 223.21 168.36 C 227.32 170.29 232.30 169.73 235.74 173.04 C 238.05 177.25 233.24 183.00 237.70 187.14 C 239.80 189.75 237.81 190.80 235.13 190.97 C 233.11 188.52 236.81 183.79 232.68 183.33 C 231.21 182.35 230.68 183.62 230.32 184.85 C 229.89 185.94 229.43 187.02 228.94 188.09 C 224.88 189.49 225.87 179.62 221.51 179.23 C 220.63 181.69 217.31 185.54 214.73 183.32 C 211.01 179.64 215.63 175.58 217.19 172.04 C 220.94 175.66 222.10 171.96 223.21 168.36 Z" />
</g>
<g id="#70603cff">
<path fill="#70603c" opacity="1.00" d=" M 281.96 168.95 C 286.10 168.74 289.95 170.48 293.33 172.67 C 289.59 172.19 285.91 173.68 286.75 178.08 C 284.12 175.74 280.38 173.30 281.96 168.95 Z" />
</g>
<g id="#0000002d">
</g>
<g id="#98aa64ff">
<path fill="#98aa64" opacity="1.00" d=" M 250.19 171.16 C 256.93 170.69 260.65 180.30 253.81 183.77 C 252.49 183.87 249.32 186.89 249.32 185.19 C 251.09 182.19 245.71 180.36 245.86 184.00 C 244.49 186.95 242.92 182.52 242.54 181.04 C 240.47 182.67 238.99 184.87 237.70 187.14 C 233.24 183.00 238.05 177.25 235.74 173.04 C 240.50 170.89 245.94 175.22 250.19 171.16 Z" />
</g>
<g id="#818b45f4">
<path fill="#818b45" opacity="0.96" d=" M 261.03 184.43 C 257.96 181.49 261.01 176.34 260.88 172.52 C 261.73 173.30 262.56 174.10 263.38 174.92 C 262.47 176.90 262.56 179.17 263.51 181.12 C 262.82 182.31 262.04 183.48 261.03 184.43 Z" />
</g>
<g id="#a19671ff">
<path fill="#a19671" opacity="1.00" d=" M 286.75 178.08 C 285.91 173.68 289.59 172.19 293.33 172.67 L 294.12 173.13 C 296.91 176.04 295.96 180.40 296.14 184.01 C 294.47 182.96 292.86 181.80 291.12 180.87 C 289.63 179.99 288.11 179.14 286.75 178.08 Z" />
</g>
<g id="#48502a9b">
<path fill="#48502a" opacity="0.61" d=" M 263.38 174.92 C 265.01 176.62 265.05 178.69 263.51 181.12 C 262.56 179.17 262.47 176.90 263.38 174.92 Z" />
</g>
<g id="#798049fe">
<path fill="#798049" opacity="1.00" d=" M 299.81 186.00 C 303.06 182.38 299.29 178.65 301.69 175.77 C 304.25 178.95 311.77 178.55 312.58 184.53 C 314.39 187.94 319.57 183.26 320.33 186.89 C 320.02 187.15 319.38 187.68 319.07 187.94 C 314.30 186.87 307.91 194.16 305.21 187.82 C 304.69 185.07 301.55 187.18 299.81 186.00 Z" />
</g>
<g id="#787633f2">
<path fill="#787633" opacity="0.95" d=" M 326.05 184.91 C 321.41 182.63 326.59 179.72 328.83 177.97 C 329.11 179.73 328.58 182.32 331.09 182.40 C 329.87 183.96 327.93 184.62 326.05 184.91 Z" />
</g>
<g id="#78844eff">
<path fill="#78844e" opacity="1.00" d=" M 174.36 181.24 C 179.20 179.75 184.03 187.45 177.03 188.10 C 171.81 191.15 170.78 183.92 174.36 181.24 Z" />
</g>
<g id="#758338fc">
<path fill="#758338" opacity="1.00" d=" M 237.70 187.14 C 238.99 184.87 240.47 182.67 242.54 181.04 C 242.92 182.52 244.49 186.95 245.86 184.00 C 245.71 180.36 251.09 182.19 249.32 185.19 C 249.32 186.89 252.49 183.87 253.81 183.77 C 253.91 185.54 254.04 187.32 254.15 189.10 C 252.82 189.90 251.45 190.64 250.08 191.37 C 246.70 191.35 249.50 187.65 247.81 185.99 C 244.53 187.08 241.18 187.63 237.70 187.14 Z" />
</g>
<g id="#5b6a25fc">
<path fill="#5b6a25" opacity="1.00" d=" M 230.32 184.85 C 230.68 183.62 231.21 182.35 232.68 183.33 C 236.81 183.79 233.11 188.52 235.13 190.97 C 237.81 190.80 239.80 189.75 237.70 187.14 C 241.18 187.63 244.53 187.08 247.81 185.99 C 249.50 187.65 246.70 191.35 250.08 191.37 C 247.77 192.95 244.94 192.83 242.25 192.81 C 239.12 192.42 236.03 192.06 232.89 191.99 C 227.76 192.00 236.43 185.18 230.32 184.85 Z" />
</g>
<g id="#818349fc">
<path fill="#818349" opacity="1.00" d=" M 291.03 184.24 C 292.65 184.62 294.23 185.13 295.85 185.55 C 297.28 189.69 298.79 193.35 303.89 192.91 C 301.46 196.15 300.81 199.98 300.90 203.99 C 297.96 212.60 295.87 221.90 289.71 228.88 C 289.61 230.44 289.42 233.57 289.33 235.13 C 289.10 235.44 288.63 236.07 288.40 236.39 C 282.94 238.91 284.85 234.07 284.33 230.46 C 285.51 225.26 279.11 221.61 276.00 217.92 C 278.11 218.10 282.79 220.27 280.40 216.48 C 276.96 212.58 283.67 214.05 284.34 210.94 C 287.32 211.92 289.55 215.05 292.80 214.93 C 294.34 212.90 293.35 210.80 292.31 208.86 C 292.13 203.26 298.26 194.96 289.04 195.70 C 292.46 192.52 289.29 187.76 291.03 184.24 Z" />
</g>
<g id="#a0b067ff">
<path fill="#a0b067" opacity="1.00" d=" M 182.69 185.66 C 185.33 184.80 186.64 187.67 188.50 188.97 C 188.77 195.13 191.52 200.65 195.93 204.86 C 194.70 206.22 193.15 207.21 191.93 205.26 C 188.22 207.29 184.30 208.90 180.29 210.24 C 181.62 207.35 180.83 201.37 185.35 203.54 C 192.35 205.04 181.84 199.56 185.86 196.91 C 191.63 193.29 180.66 190.77 182.69 185.66 Z" />
</g>
<g id="#5b5729f7">
<path fill="#5b5729" opacity="0.97" d=" M 295.85 185.55 C 297.20 185.26 298.55 185.44 299.81 186.00 C 301.55 187.18 304.69 185.07 305.21 187.82 C 307.91 194.16 314.30 186.87 319.07 187.94 C 318.00 188.87 316.93 189.80 315.89 190.76 C 312.86 191.87 309.52 193.56 308.97 197.11 C 305.22 193.16 303.46 200.05 308.74 197.80 C 308.27 201.78 303.77 202.29 300.90 203.99 C 300.81 199.98 301.46 196.15 303.89 192.91 C 298.79 193.35 297.28 189.69 295.85 185.55 Z" />
</g>
<g id="#343d19fc">
<path fill="#343d19" opacity="1.00" d=" M 254.00 200.90 C 256.53 195.68 260.72 191.47 264.03 186.76 C 264.00 193.69 263.11 200.56 263.64 207.53 C 255.50 209.65 259.99 217.37 259.78 223.13 C 258.68 221.85 257.71 220.46 256.57 219.21 C 250.72 215.67 251.94 223.50 248.07 224.14 C 248.56 217.71 249.70 210.97 247.14 204.79 C 248.43 205.29 249.71 205.82 251.01 206.32 C 254.96 208.74 254.29 204.43 254.00 200.90 Z" />
</g>
<g id="#0000004b">
</g>
<g id="#00000013">
</g>
<g id="#2c3214b6">
<path fill="#2c3214" opacity="0.71" d=" M 232.89 191.99 C 236.03 192.06 239.12 192.42 242.25 192.81 C 239.18 192.94 236.09 192.90 233.04 192.94 L 232.89 191.99 Z" />
</g>
<g id="#8b9160ff">
<path fill="#8b9160" opacity="1.00" d=" M 284.17 192.26 C 286.84 192.95 287.28 201.76 282.03 200.03 C 282.70 197.47 281.88 194.05 284.17 192.26 Z" />
</g>
<g id="#6e7436ff">
<path fill="#6e7436" opacity="1.00" d=" M 219.23 194.35 C 223.17 192.93 225.27 194.39 225.91 197.90 C 227.81 200.82 227.53 203.86 225.76 206.79 C 223.30 209.97 226.50 214.04 225.16 217.06 C 219.64 220.34 225.84 229.98 230.87 225.76 C 231.34 222.09 227.87 218.67 229.69 214.85 C 230.68 214.24 231.66 213.60 232.63 212.94 C 233.89 216.00 235.72 220.30 239.68 220.06 C 240.36 215.40 239.81 210.98 233.86 211.70 C 235.65 208.84 239.47 210.47 241.54 212.08 C 241.55 214.79 239.25 219.28 246.27 216.31 C 243.40 218.78 241.51 221.95 247.04 221.20 C 245.62 225.76 239.86 224.58 236.51 227.01 C 233.81 225.80 237.43 221.35 234.01 221.07 C 230.34 221.82 235.09 228.31 230.53 228.46 C 231.99 232.36 222.83 233.76 227.68 236.41 C 230.42 237.86 226.97 239.08 225.56 237.78 C 218.61 236.45 233.08 225.74 224.75 230.42 C 222.37 228.50 220.29 215.06 215.89 223.19 C 215.79 220.77 216.09 218.42 218.19 216.93 C 220.71 213.09 219.82 205.72 213.51 206.76 C 209.46 207.37 211.72 203.28 211.85 200.90 C 209.44 200.80 207.38 202.12 205.22 202.95 C 204.70 200.49 202.24 195.79 206.27 195.38 C 208.81 193.95 207.45 199.85 210.75 197.78 C 213.04 195.01 216.75 196.44 219.23 194.35 M 222.16 195.16 C 221.16 199.80 226.80 194.16 222.16 195.16 Z" />
</g>
<g id="#dacebdff">
<path fill="#dacebd" opacity="1.00" d=" M 222.16 195.16 C 226.80 194.16 221.16 199.80 222.16 195.16 Z" />
</g>
<g id="#8d9a5fff">
<path fill="#8d9a5f" opacity="1.00" d=" M 269.06 196.00 C 271.59 197.19 274.58 198.61 275.26 201.60 C 281.25 197.51 284.62 205.58 284.34 210.94 C 283.67 214.05 276.96 212.58 280.40 216.48 C 282.79 220.27 278.11 218.10 276.00 217.92 C 279.11 221.61 285.51 225.26 284.33 230.46 C 279.23 230.56 278.26 222.42 272.39 225.34 C 270.68 226.06 268.56 226.69 267.78 228.54 C 266.91 230.04 266.23 231.64 265.57 233.24 C 263.23 228.96 266.39 221.18 269.88 217.11 C 266.48 214.88 271.79 212.81 272.23 210.22 C 269.92 210.41 267.03 211.73 265.68 209.06 C 266.03 208.78 266.71 208.23 267.06 207.95 C 270.76 205.60 265.23 199.56 269.06 196.00 M 271.25 199.26 C 269.75 199.38 268.61 200.84 269.84 202.12 C 271.24 204.27 273.37 199.61 271.25 199.26 Z" />
</g>
<g id="#b3a288f9">
<path fill="#b3a288" opacity="0.98" d=" M 308.74 197.80 C 303.46 200.05 305.22 193.16 308.97 197.11 L 308.74 197.80 Z" />
</g>
<g id="#d3c7b3ff">
<path fill="#d3c7b3" opacity="1.00" d=" M 271.25 199.26 C 273.37 199.61 271.24 204.27 269.84 202.12 C 268.61 200.84 269.75 199.38 271.25 199.26 Z" />
</g>
<g id="#1113098b">
</g>
<g id="#23260aff">
<path fill="#23260a" opacity="1.00" d=" M 225.76 206.79 C 231.80 203.53 229.25 211.07 229.69 214.85 C 227.87 218.67 231.34 222.09 230.87 225.76 C 225.84 229.98 219.64 220.34 225.16 217.06 C 226.50 214.04 223.30 209.97 225.76 206.79 Z" />
</g>
<g id="#00000059">
</g>
<g id="#6f7838fd">
<path fill="#6f7838" opacity="1.00" d=" M 262.85 228.07 C 258.70 221.89 264.94 215.52 265.68 209.06 C 267.03 211.73 269.92 210.41 272.23 210.22 C 271.79 212.81 266.48 214.88 269.88 217.11 C 266.39 221.18 263.23 228.96 265.57 233.24 C 267.22 235.36 269.74 240.18 272.66 236.95 C 271.44 233.83 272.27 228.48 267.78 228.54 C 268.56 226.69 270.68 226.06 272.39 225.34 C 278.26 222.42 279.23 230.56 284.33 230.46 C 284.85 234.07 282.94 238.91 288.40 236.39 C 285.15 241.39 277.59 239.97 275.93 246.98 C 259.86 246.54 245.79 257.09 229.62 253.40 C 225.55 251.41 219.30 251.98 218.34 257.26 C 213.16 251.08 204.04 255.90 206.11 264.12 C 210.74 263.26 213.42 258.74 218.10 257.98 C 217.40 261.18 215.15 263.62 212.92 265.89 C 211.66 266.42 210.41 266.95 209.14 267.48 C 205.09 263.30 197.28 257.18 192.94 264.18 C 190.64 260.65 186.28 257.65 186.71 253.26 C 191.16 252.35 195.89 260.62 197.74 253.69 C 200.45 247.13 188.56 249.29 196.09 253.11 C 190.13 254.54 190.40 248.76 194.25 246.24 C 198.20 242.95 193.74 238.11 191.35 235.25 C 194.67 233.87 198.09 231.90 197.56 227.42 C 197.74 224.05 202.84 223.82 202.07 220.14 C 197.34 220.78 192.56 220.13 187.83 220.86 C 189.81 218.53 192.45 216.90 195.60 217.71 C 195.88 209.18 201.96 216.02 205.54 218.89 C 206.46 215.72 208.80 213.34 211.11 211.10 C 213.34 212.44 215.32 214.18 217.18 216.00 C 214.17 215.79 209.61 215.59 209.58 219.44 C 214.23 224.44 204.88 222.07 203.21 226.20 C 199.32 229.85 201.92 235.14 203.95 239.03 C 202.45 237.42 199.28 238.24 200.14 240.76 C 203.30 242.93 199.36 245.81 197.09 246.54 C 201.57 249.32 197.54 258.88 204.74 254.89 C 202.29 251.35 204.86 245.62 208.97 245.68 C 209.56 242.00 203.86 242.90 203.95 239.03 C 208.50 241.91 208.31 237.71 207.36 234.22 C 206.53 229.45 210.75 224.73 215.65 225.12 C 223.41 226.17 214.20 227.09 212.88 229.76 C 212.38 230.82 211.87 231.87 211.36 232.93 C 207.73 237.67 212.61 235.95 215.87 237.16 C 214.03 241.93 217.34 240.79 220.76 240.08 C 221.98 242.17 224.00 247.36 225.71 242.62 C 230.41 239.02 235.63 235.94 240.93 233.22 C 242.21 234.32 243.43 235.76 245.31 235.54 C 250.37 235.63 254.84 241.82 259.82 239.80 C 261.71 233.94 250.19 241.27 250.91 234.58 C 254.95 234.92 254.36 228.91 256.29 226.45 C 258.62 226.22 260.79 227.10 262.85 228.07 M 275.16 229.16 C 274.16 233.80 279.80 228.16 275.16 229.16 M 239.94 236.18 C 239.97 237.63 240.01 240.55 240.03 242.01 C 249.21 244.91 245.78 234.94 239.94 236.18 M 213.19 242.14 C 210.29 244.00 214.10 246.24 215.66 247.39 C 219.12 250.84 221.59 238.78 218.00 243.03 C 216.21 246.05 215.09 241.55 213.19 242.14 Z" />
</g>
<g id="#00000039">
</g>
<g id="#0000006b">
</g>
<g id="#8ca166ff">
<path fill="#8ca166" opacity="1.00" d=" M 232.63 212.94 C 232.93 212.63 233.55 212.01 233.86 211.70 C 239.81 210.98 240.36 215.40 239.68 220.06 C 235.72 220.30 233.89 216.00 232.63 212.94 Z" />
</g>
<g id="#0202017f">
</g>
<g id="#4f5124ff">
<path fill="#4f5124" opacity="1.00" d=" M 209.58 219.44 C 209.61 215.59 214.17 215.79 217.18 216.00 C 217.43 216.23 217.94 216.69 218.19 216.93 C 216.09 218.42 215.79 220.77 215.89 223.19 C 215.83 223.67 215.71 224.64 215.65 225.12 C 210.75 224.73 206.53 229.45 207.36 234.22 C 208.31 237.71 208.50 241.91 203.95 239.03 C 201.92 235.14 199.32 229.85 203.21 226.20 C 204.88 222.07 214.23 224.44 209.58 219.44 Z" />
</g>
<g id="#0000002a">
</g>
<g id="#8a9453ff">
<path fill="#8a9453" opacity="1.00" d=" M 215.89 223.19 C 220.29 215.06 222.37 228.50 224.75 230.42 C 233.08 225.74 218.61 236.45 225.56 237.78 C 226.97 239.08 230.42 237.86 227.68 236.41 C 222.83 233.76 231.99 232.36 230.53 228.46 C 235.09 228.31 230.34 221.82 234.01 221.07 C 237.43 221.35 233.81 225.80 236.51 227.01 C 239.87 229.15 245.27 224.00 248.01 227.53 C 244.68 228.09 242.39 230.30 240.93 233.22 C 235.63 235.94 230.41 239.02 225.71 242.62 C 224.00 247.36 221.98 242.17 220.76 240.08 C 217.34 240.79 214.03 241.93 215.87 237.16 C 212.61 235.95 207.73 237.67 211.36 232.93 C 215.00 236.88 218.41 228.31 212.88 229.76 C 214.20 227.09 223.41 226.17 215.65 225.12 C 215.71 224.64 215.83 223.67 215.89 223.19 Z" />
</g>
<g id="#c3b394ff">
<path fill="#c3b394" opacity="1.00" d=" M 169.85 229.15 C 168.24 222.77 169.25 221.89 172.53 226.81 C 171.67 227.63 170.78 228.41 169.85 229.15 Z" />
</g>
<g id="#0000001f">
</g>
<g id="#877027ff">
<path fill="#877027" opacity="1.00" d=" M 172.53 226.81 C 179.11 228.97 175.12 234.60 172.97 239.03 C 170.57 238.16 167.97 237.66 165.95 236.00 C 165.93 233.31 165.93 230.61 165.98 227.93 C 167.26 228.35 168.54 228.80 169.85 229.15 C 170.78 228.41 171.67 227.63 172.53 226.81 Z" />
</g>
<g id="#55582bff">
<path fill="#55582b" opacity="1.00" d=" M 265.57 233.24 C 266.23 231.64 266.91 230.04 267.78 228.54 C 272.27 228.48 271.44 233.83 272.66 236.95 C 269.74 240.18 267.22 235.36 265.57 233.24 Z" />
</g>
<g id="#cfc1acff">
<path fill="#cfc1ac" opacity="1.00" d=" M 275.16 229.16 C 279.80 228.16 274.16 233.80 275.16 229.16 Z" />
</g>
<g id="#352e148b">
</g>
<g id="#c8b99eff">
<path fill="#c8b99e" opacity="1.00" d=" M 212.88 229.76 C 218.41 228.31 215.00 236.88 211.36 232.93 C 211.87 231.87 212.38 230.82 212.88 229.76 Z" />
</g>
<g id="#676336ff">
<path fill="#676336" opacity="1.00" d=" M 182.96 231.94 C 189.05 233.83 186.08 242.73 190.96 245.78 C 182.42 250.15 184.25 237.30 182.96 231.94 Z" />
</g>
<g id="#8ca05eff">
<path fill="#8ca05e" opacity="1.00" d=" M 239.94 236.18 C 245.78 234.94 249.21 244.91 240.03 242.01 C 240.01 240.55 239.97 237.63 239.94 236.18 Z" />
</g>
<g id="#605d2ffe">
<path fill="#605d2f" opacity="1.00" d=" M 153.01 242.96 C 149.90 233.42 158.41 241.48 162.65 240.51 C 166.43 239.10 172.25 246.16 173.24 239.90 C 174.13 241.73 175.47 243.14 177.64 242.65 C 177.74 245.36 180.20 245.37 181.53 243.41 C 184.42 246.02 184.85 250.02 186.71 253.26 C 186.28 257.65 190.64 260.65 192.94 264.18 C 197.28 257.18 205.09 263.30 209.14 267.48 C 208.67 267.67 207.72 268.06 207.24 268.26 C 204.42 268.26 201.62 268.23 198.81 268.17 C 197.53 267.81 196.31 267.28 195.07 266.81 C 194.10 265.31 191.77 265.25 191.03 267.00 L 190.26 267.23 C 185.77 267.17 181.29 267.21 176.80 267.19 C 175.81 266.78 174.84 266.32 173.90 265.81 C 172.37 265.56 169.31 265.06 167.78 264.81 C 163.86 256.84 152.36 253.13 153.01 242.96 M 162.96 242.98 C 163.53 246.57 164.46 250.09 164.19 253.79 C 169.86 255.38 169.38 262.69 176.04 261.97 C 176.51 258.17 170.33 256.09 172.81 251.80 C 174.69 250.25 170.86 242.05 169.60 246.80 C 166.53 247.35 166.81 241.31 162.96 242.98 Z" />
</g>
<g id="#8b9a56ff">
<path fill="#8b9a56" opacity="1.00" d=" M 200.14 240.76 C 199.28 238.24 202.45 237.42 203.95 239.03 C 203.86 242.90 209.56 242.00 208.97 245.68 C 204.86 245.62 202.29 251.35 204.74 254.89 C 197.54 258.88 201.57 249.32 197.09 246.54 C 199.36 245.81 203.30 242.93 200.14 240.76 Z" />
</g>
<g id="#cdc0a8ff">
<path fill="#cdc0a8" opacity="1.00" d=" M 190.26 240.23 C 195.13 239.84 188.05 245.65 190.26 240.23 Z" />
</g>
<g id="#919a61ff">
<path fill="#919a61" opacity="1.00" d=" M 213.19 242.14 C 215.09 241.55 216.21 246.05 218.00 243.03 C 221.59 238.78 219.12 250.84 215.66 247.39 C 214.10 246.24 210.29 244.00 213.19 242.14 Z" />
</g>
<g id="#817140ff">
<path fill="#817140" opacity="1.00" d=" M 162.96 242.98 C 166.81 241.31 166.53 247.35 169.60 246.80 C 170.86 242.05 174.69 250.25 172.81 251.80 C 170.33 256.09 176.51 258.17 176.04 261.97 C 169.38 262.69 169.86 255.38 164.19 253.79 C 164.46 250.09 163.53 246.57 162.96 242.98 Z" />
</g>
<g id="#a28f6aff">
<path fill="#a28f6a" opacity="1.00" d=" M 206.11 264.12 C 204.04 255.90 213.16 251.08 218.34 257.26 L 218.10 257.98 C 213.42 258.74 210.74 263.26 206.11 264.12 Z" />
</g>
<g id="#272012a2">
<path fill="#272012" opacity="0.64" d=" M 167.12 265.49 L 167.78 264.81 C 169.31 265.06 172.37 265.56 173.90 265.81 C 171.68 266.96 169.42 266.85 167.12 265.49 Z" />
</g>
<g id="#1f2013a4">
<path fill="#1f2013" opacity="0.64" d=" M 191.03 267.00 C 191.77 265.25 194.10 265.31 195.07 266.81 C 193.74 267.16 192.39 267.22 191.03 267.00 Z" />
</g>
<g id="#2329119d">
<path fill="#232911" opacity="0.62" d=" M 176.80 267.19 C 181.29 267.21 185.77 267.17 190.26 267.23 C 185.97 268.89 181.17 268.04 176.80 267.19 Z" />
</g>
<g id="#2a2313a3">
<path fill="#2a2313" opacity="0.64" d=" M 198.81 268.17 C 201.62 268.23 204.42 268.26 207.24 268.26 C 204.58 269.63 201.56 268.86 198.81 268.17 Z" />
</g>
</svg>



