<?xml version="1.0" encoding="UTF-8" ?>
<!DOCTYPE svg PUBLIC "-//W3C//DTD SVG 1.1//EN" "http://www.w3.org/Graphics/SVG/1.1/DTD/svg11.dtd">
<svg width="384pt" height="384pt" viewBox="0 0 384 384" version="1.1" xmlns="http://www.w3.org/2000/svg">
<g id="#00000010">
</g>
<g id="#00000018">
</g>
<g id="#5c6033f8">
<path fill="#5c6033" opacity="0.97" d=" M 187.78 33.47 C 190.64 31.91 193.58 30.75 196.96 30.88 C 198.25 33.29 199.48 35.98 201.84 32.87 C 207.83 28.39 207.16 40.56 213.23 38.06 C 211.60 41.04 204.30 38.14 202.17 36.48 C 198.42 36.95 200.13 43.27 196.20 41.78 C 192.30 38.35 189.15 44.01 184.87 44.11 C 179.36 42.40 175.07 48.43 170.02 44.14 C 174.62 42.90 180.18 40.77 179.88 34.80 C 181.33 31.07 184.96 32.38 187.78 33.47 Z" />
</g>
<g id="#848241fe">
<path fill="#848241" opacity="1.00" d=" M 202.17 36.48 C 204.30 38.14 211.60 41.04 213.23 38.06 C 221.59 36.67 220.30 46.92 223.03 50.83 C 219.84 51.31 217.25 52.95 215.68 55.79 C 210.22 54.28 209.62 47.83 207.42 43.49 C 205.25 41.36 201.15 38.18 200.48 43.11 C 201.69 46.66 209.29 47.43 208.40 52.43 C 203.60 56.99 214.22 60.51 206.97 62.49 C 204.93 65.57 202.37 68.83 198.83 65.09 C 198.92 61.67 199.21 58.19 202.80 56.70 C 200.94 54.65 199.58 51.02 196.39 51.12 L 195.37 51.06 C 191.39 51.91 193.79 47.46 193.78 45.27 C 190.84 45.20 185.86 44.61 187.68 49.18 C 185.05 48.92 185.38 46.01 184.87 44.11 C 189.15 44.01 192.30 38.35 196.20 41.78 C 200.13 43.27 198.42 36.95 202.17 36.48 Z" />
</g>
<g id="#879a56fd">
<path fill="#879a56" opacity="1.00" d=" M 200.48 43.11 C 201.15 38.18 205.25 41.36 207.42 43.49 C 209.62 47.83 210.22 54.28 215.68 55.79 C 217.25 52.95 219.84 51.31 223.03 50.83 C 227.67 50.12 238.03 54.54 232.23 59.32 C 222.93 54.66 216.56 67.40 206.97 62.49 C 214.22 60.51 203.60 56.99 208.40 52.43 C 209.29 47.43 201.69 46.66 200.48 43.11 Z" />
</g>
<g id="#575d32fd">
<path fill="#575d32" opacity="1.00" d=" M 149.29 60.23 C 158.74 56.85 155.84 40.11 169.03 42.82 C 169.27 43.15 169.77 43.81 170.02 44.14 C 167.17 43.37 159.76 46.06 163.71 49.27 C 165.90 55.35 172.96 55.58 178.10 53.24 C 178.59 56.69 178.07 61.28 181.63 63.24 C 182.05 63.52 182.89 64.07 183.31 64.35 C 181.22 65.38 179.27 64.42 177.84 62.82 C 177.41 61.07 177.91 57.11 175.07 58.09 C 170.72 60.38 168.33 66.28 162.90 67.09 C 155.00 67.29 162.86 76.79 161.15 81.09 C 155.38 84.22 151.92 76.27 148.05 73.92 C 144.34 78.08 144.23 82.57 149.62 84.48 C 151.61 80.14 155.33 82.49 155.61 86.39 C 160.64 87.67 154.50 90.14 154.82 92.93 C 161.82 96.60 159.46 91.78 159.48 89.09 C 161.09 87.19 163.72 86.84 166.07 86.96 C 165.31 91.32 161.06 95.52 162.96 100.04 C 162.69 100.65 162.17 101.87 161.90 102.48 C 157.01 104.68 161.74 98.75 158.04 97.93 C 155.01 96.08 150.21 98.68 149.47 101.98 C 149.94 104.75 146.43 104.62 144.79 105.85 C 139.46 109.19 151.04 112.82 147.25 118.02 C 150.94 117.94 150.21 112.80 151.39 110.30 C 155.83 109.04 160.50 109.03 165.08 108.94 C 164.42 113.96 152.83 109.40 154.02 115.80 C 157.17 117.45 157.52 122.66 161.00 122.95 C 162.43 122.99 163.85 122.99 165.28 122.97 C 164.03 127.11 165.39 133.66 160.42 135.57 C 155.16 139.35 151.94 145.37 146.00 148.33 C 148.13 152.87 152.93 150.78 152.40 146.08 C 158.11 145.37 156.60 151.93 156.45 155.73 C 158.05 160.42 162.07 163.82 165.86 166.77 C 163.15 166.68 161.42 171.87 158.94 169.10 C 154.40 163.98 146.57 161.94 140.30 164.63 C 137.67 165.62 133.82 160.96 133.45 165.36 C 132.85 170.48 127.24 166.90 124.95 164.95 C 123.58 159.67 130.55 155.90 128.37 150.86 L 128.06 149.95 C 128.28 148.64 128.54 147.35 128.87 146.07 C 133.00 137.78 130.34 129.47 128.92 121.05 C 129.66 114.89 131.53 108.43 136.18 104.05 C 140.96 101.01 137.66 94.19 141.09 90.06 C 145.05 85.25 143.94 78.80 143.97 72.97 C 143.92 69.90 143.88 66.85 143.77 63.79 C 144.96 61.81 147.35 61.21 149.29 60.23 Z" />
</g>
<g id="#6a7438ff">
<path fill="#6a7438" opacity="1.00" d=" M 170.02 44.14 C 175.07 48.43 179.36 42.40 184.87 44.11 C 185.38 46.01 185.05 48.92 187.68 49.18 C 185.86 44.61 190.84 45.20 193.78 45.27 C 193.79 47.46 191.39 51.91 195.37 51.06 C 192.50 51.85 189.57 52.44 186.86 53.69 C 185.80 56.71 186.44 59.94 186.80 63.02 C 184.87 62.55 181.47 59.33 181.63 63.24 C 178.07 61.28 178.59 56.69 178.10 53.24 C 172.96 55.58 165.90 55.35 163.71 49.27 C 159.76 46.06 167.17 43.37 170.02 44.14 Z" />
</g>
<g id="#758840fe">
<path fill="#758840" opacity="1.00" d=" M 195.37 51.06 L 196.39 51.12 C 194.53 56.10 195.34 60.96 198.83 65.09 C 201.34 69.27 193.21 73.79 197.19 76.17 C 194.51 78.86 190.79 80.94 189.89 84.91 C 191.48 91.07 186.97 92.62 184.92 88.04 C 181.93 83.63 188.69 80.44 188.09 75.89 C 181.13 78.08 181.46 90.11 172.86 88.12 C 169.87 79.82 160.48 90.04 156.89 83.29 C 158.47 82.75 161.56 83.69 161.15 81.09 C 162.86 76.79 155.00 67.29 162.90 67.09 C 167.06 70.66 160.03 75.79 165.86 78.13 C 169.15 71.79 170.42 78.99 173.83 80.20 C 174.19 74.86 171.91 65.57 177.84 62.82 C 179.27 64.42 181.22 65.38 183.31 64.35 C 182.98 69.41 182.76 75.55 178.76 79.94 C 183.80 73.80 197.10 72.89 195.96 62.89 C 193.58 63.13 192.72 65.70 191.12 67.13 C 189.37 62.58 193.99 53.89 186.86 53.69 C 189.57 52.44 192.50 51.85 195.37 51.06 Z" />
</g>
<g id="#6f6a37ff">
<path fill="#6f6a37" opacity="1.00" d=" M 196.39 51.12 C 199.58 51.02 200.94 54.65 202.80 56.70 C 199.21 58.19 198.92 61.67 198.83 65.09 C 195.34 60.96 194.53 56.10 196.39 51.12 Z" />
</g>
<g id="#8f9e56ff">
<path fill="#8f9e56" opacity="1.00" d=" M 186.86 53.69 C 193.99 53.89 189.37 62.58 191.12 67.13 C 192.72 65.70 193.58 63.13 195.96 62.89 C 197.10 72.89 183.80 73.80 178.76 79.94 C 182.76 75.55 182.98 69.41 183.31 64.35 C 182.89 64.07 182.05 63.52 181.63 63.24 C 181.47 59.33 184.87 62.55 186.80 63.02 C 186.44 59.94 185.80 56.71 186.86 53.69 Z" />
</g>
<g id="#00000021">
</g>
<g id="#62743cff">
<path fill="#62743c" opacity="1.00" d=" M 162.90 67.09 C 168.33 66.28 170.72 60.38 175.07 58.09 C 177.91 57.11 177.41 61.07 177.84 62.82 C 171.91 65.57 174.19 74.86 173.83 80.20 C 170.42 78.99 169.15 71.79 165.86 78.13 C 160.03 75.79 167.06 70.66 162.90 67.09 Z" />
</g>
<g id="#636e2ef6">
<path fill="#636e2e" opacity="0.96" d=" M 206.97 62.49 C 216.56 67.40 222.93 54.66 232.23 59.32 C 227.74 63.70 220.07 61.45 215.99 66.89 C 208.90 68.64 201.14 68.99 197.19 76.17 C 193.21 73.79 201.34 69.27 198.83 65.09 C 202.37 68.83 204.93 65.57 206.97 62.49 Z" />
</g>
<g id="#38371eb4">
<path fill="#38371e" opacity="0.71" d=" M 142.85 73.01 C 143.05 69.93 143.15 66.82 143.77 63.79 C 143.88 66.85 143.92 69.90 143.97 72.97 L 142.85 73.01 Z" />
</g>
<g id="#0101011b">
</g>
<g id="#657031fd">
<path fill="#657031" opacity="1.00" d=" M 148.05 73.92 C 151.92 76.27 155.38 84.22 161.15 81.09 C 161.56 83.69 158.47 82.75 156.89 83.29 C 160.48 90.04 169.87 79.82 172.86 88.12 C 181.46 90.11 181.13 78.08 188.09 75.89 C 188.69 80.44 181.93 83.63 184.92 88.04 C 186.97 92.62 191.48 91.07 189.89 84.91 C 189.55 89.53 190.26 94.03 194.07 97.01 C 189.72 92.71 186.00 99.36 181.29 97.22 C 182.96 104.21 174.30 99.07 171.07 98.01 C 167.22 99.71 166.96 104.56 162.96 100.04 C 161.06 95.52 165.31 91.32 166.07 86.96 C 163.72 86.84 161.09 87.19 159.48 89.09 C 159.46 91.78 161.82 96.60 154.82 92.93 C 154.50 90.14 160.64 87.67 155.61 86.39 C 155.33 82.49 151.61 80.14 149.62 84.48 C 144.23 82.57 144.34 78.08 148.05 73.92 Z" />
</g>
<g id="#7c8140fd">
<path fill="#7c8140" opacity="1.00" d=" M 181.29 97.22 C 186.00 99.36 189.72 92.71 194.07 97.01 C 194.33 97.24 194.84 97.72 195.10 97.96 C 189.83 100.70 195.56 107.11 199.77 105.72 C 202.51 104.72 205.34 104.13 208.22 103.62 C 215.89 110.20 209.09 119.49 210.35 127.50 C 216.86 136.77 227.29 143.47 229.20 155.45 C 225.94 157.38 228.86 161.47 226.79 163.96 C 223.74 164.66 221.89 161.76 220.16 159.81 C 219.10 157.37 219.49 155.01 221.03 152.90 C 216.51 152.29 216.06 158.05 213.95 160.89 C 216.02 160.55 218.08 160.13 220.16 159.81 C 217.91 166.54 208.75 163.45 203.78 164.90 C 204.65 170.02 201.09 173.74 199.52 177.06 C 199.85 178.26 199.71 179.28 199.10 180.13 C 196.72 176.44 194.36 171.68 198.46 168.24 C 196.43 166.37 193.87 164.83 192.98 162.05 C 196.50 158.92 195.96 165.47 198.89 165.98 C 202.24 163.40 196.10 162.11 197.26 159.53 C 200.30 158.98 200.11 155.61 200.17 153.18 C 204.19 155.11 207.37 151.81 207.97 147.97 C 209.51 139.68 213.31 148.83 213.19 152.63 C 220.18 153.71 216.43 146.42 215.36 142.40 C 212.08 142.61 212.27 140.33 212.83 137.77 C 211.47 139.51 210.73 142.03 208.18 142.24 C 206.95 140.32 205.96 138.25 206.36 135.92 C 207.35 132.45 204.27 132.20 201.71 131.90 C 201.42 129.05 197.67 122.91 202.81 123.10 C 204.60 126.61 205.17 130.77 208.97 133.11 C 209.09 123.73 211.13 114.44 205.80 106.09 C 200.63 105.38 203.93 113.83 203.28 117.61 C 206.42 118.53 207.76 120.06 204.40 121.88 C 200.12 118.32 201.55 108.27 193.50 113.23 C 193.23 116.83 190.36 118.63 191.85 113.92 C 189.95 115.39 185.92 116.63 187.77 112.83 C 191.53 103.85 178.71 121.79 180.67 112.14 C 177.69 110.97 174.00 111.06 173.48 107.24 C 169.78 105.79 169.64 110.50 170.04 112.94 C 168.69 108.46 164.04 106.44 161.90 102.48 C 162.17 101.87 162.69 100.65 162.96 100.04 C 166.96 104.56 167.22 99.71 171.07 98.01 C 174.30 99.07 182.96 104.21 181.29 97.22 Z" />
</g>
<g id="#6c723eff">
<path fill="#6c723e" opacity="1.00" d=" M 149.47 101.98 C 150.21 98.68 155.01 96.08 158.04 97.93 C 161.74 98.75 157.01 104.68 161.90 102.48 C 164.04 106.44 168.69 108.46 170.04 112.94 C 171.65 115.68 171.87 118.94 172.96 121.90 C 170.90 121.55 168.81 121.13 166.74 121.62 C 168.97 118.13 171.18 110.22 163.12 113.06 C 157.79 113.36 160.76 119.46 161.00 122.95 C 157.52 122.66 157.17 117.45 154.02 115.80 C 152.83 109.40 164.42 113.96 165.08 108.94 C 160.50 109.03 155.83 109.04 151.39 110.30 C 150.21 112.80 150.94 117.94 147.25 118.02 C 151.04 112.82 139.46 109.19 144.79 105.85 C 146.43 104.62 149.94 104.75 149.47 101.98 Z" />
</g>
<g id="#675e2ef6">
<path fill="#675e2e" opacity="0.96" d=" M 195.10 97.96 C 199.07 100.76 204.63 100.01 208.22 103.62 C 205.34 104.13 202.51 104.72 199.77 105.72 C 195.56 107.11 189.83 100.70 195.10 97.96 Z" />
</g>
<g id="#0000002b">
</g>
<g id="#929b60ff">
<path fill="#929b60" opacity="1.00" d=" M 203.28 117.61 C 203.93 113.83 200.63 105.38 205.80 106.09 C 211.13 114.44 209.09 123.73 208.97 133.11 C 205.17 130.77 204.60 126.61 202.81 123.10 C 197.67 122.91 201.42 129.05 201.71 131.90 C 204.27 132.20 207.35 132.45 206.36 135.92 C 204.27 135.97 202.13 135.96 200.18 135.11 L 199.73 134.45 C 198.49 133.01 197.73 131.51 199.75 130.35 C 196.90 128.10 192.69 129.02 189.46 127.40 C 187.88 123.74 187.15 119.79 185.75 116.07 C 183.09 115.46 182.03 118.66 180.34 120.10 C 176.98 117.23 176.10 122.89 172.96 121.90 C 171.87 118.94 171.65 115.68 170.04 112.94 C 169.64 110.50 169.78 105.79 173.48 107.24 C 174.00 111.06 177.69 110.97 180.67 112.14 C 178.71 121.79 191.53 103.85 187.77 112.83 C 185.92 116.63 189.95 115.39 191.85 113.92 C 190.36 118.63 193.23 116.83 193.50 113.23 C 201.55 108.27 200.12 118.32 204.40 121.88 C 207.76 120.06 206.42 118.53 203.28 117.61 Z" />
</g>
<g id="#938251ff">
<path fill="#938251" opacity="1.00" d=" M 161.00 122.95 C 160.76 119.46 157.79 113.36 163.12 113.06 C 171.18 110.22 168.97 118.13 166.74 121.62 L 165.97 121.88 C 166.24 119.90 165.37 117.61 162.99 117.91 C 163.05 119.68 162.38 122.43 165.08 122.19 L 165.28 122.97 C 163.85 122.99 162.43 122.99 161.00 122.95 Z" />
</g>
<g id="#7a8142ff">
<path fill="#7a8142" opacity="1.00" d=" M 180.34 120.10 C 182.03 118.66 183.09 115.46 185.75 116.07 C 187.15 119.79 187.88 123.74 189.46 127.40 C 192.69 129.02 196.90 128.10 199.75 130.35 C 197.73 131.51 198.49 133.01 199.73 134.45 C 196.40 134.88 192.22 131.40 190.15 135.30 C 190.23 139.13 191.43 144.82 195.66 146.19 C 195.91 143.69 195.77 140.87 197.53 138.91 C 199.28 140.37 201.21 141.59 202.97 143.05 C 199.03 140.75 197.38 144.36 198.56 147.84 C 198.38 148.39 198.01 149.48 197.83 150.03 C 195.30 147.24 191.27 148.07 187.86 148.02 C 187.91 151.05 191.59 152.06 192.01 154.86 C 189.41 156.19 186.57 155.10 183.85 155.04 C 184.28 158.31 191.32 163.85 185.10 164.04 C 186.26 167.29 188.80 173.20 183.95 169.08 C 183.48 171.16 182.53 175.33 182.05 177.42 C 180.38 177.84 177.20 180.13 177.10 177.04 C 179.28 173.53 181.00 169.49 180.49 165.27 C 173.72 161.62 178.47 153.61 180.12 148.16 C 176.93 150.22 168.85 144.36 178.55 145.63 C 181.41 142.49 178.45 143.03 175.76 143.65 C 175.16 140.93 179.83 139.36 177.81 137.05 C 171.62 135.65 174.36 146.32 168.01 145.18 C 172.75 140.38 171.14 133.26 174.42 127.95 C 173.73 123.93 179.28 123.66 180.34 120.10 Z" />
</g>
<g id="#cfc2aeff">
<path fill="#cfc2ae" opacity="1.00" d=" M 162.99 117.91 C 165.37 117.61 166.24 119.90 165.97 121.88 L 165.08 122.19 C 162.38 122.43 163.05 119.68 162.99 117.91 Z" />
</g>
<g id="#606739ff">
<path fill="#606739" opacity="1.00" d=" M 172.96 121.90 C 176.10 122.89 176.98 117.23 180.34 120.10 C 179.28 123.66 173.73 123.93 174.42 127.95 C 171.14 133.26 172.75 140.38 168.01 145.18 C 174.36 146.32 171.62 135.65 177.81 137.05 C 179.83 139.36 175.16 140.93 175.76 143.65 C 178.45 143.03 181.41 142.49 178.55 145.63 C 168.85 144.36 176.93 150.22 180.12 148.16 C 178.47 153.61 173.72 161.62 180.49 165.27 C 181.00 169.49 179.28 173.53 177.10 177.04 C 177.20 180.13 180.38 177.84 182.05 177.42 C 182.56 177.78 183.56 178.50 184.07 178.86 C 183.42 182.03 183.75 185.52 181.31 188.03 C 184.29 189.91 180.80 190.72 179.06 191.52 C 180.00 193.25 183.42 194.93 180.02 196.01 C 175.57 197.68 181.01 201.05 180.04 204.04 C 176.60 204.69 171.54 199.26 172.93 205.69 C 178.80 203.12 173.01 210.68 173.73 213.04 C 170.52 212.12 170.88 208.81 170.77 205.92 C 165.07 206.24 168.96 215.07 173.00 215.08 C 176.09 215.34 177.49 209.18 180.43 212.50 C 182.95 215.30 188.40 219.46 182.07 221.20 C 178.99 217.18 174.14 222.56 171.13 218.89 C 166.34 215.50 167.24 224.05 166.84 226.98 C 166.41 229.33 166.00 231.68 165.82 234.07 C 162.95 228.91 155.41 225.01 159.31 218.39 C 165.46 219.54 161.84 212.02 157.91 214.87 C 155.19 217.21 149.62 214.48 149.56 219.08 C 146.08 216.60 147.49 211.39 144.32 208.68 C 141.88 205.42 137.14 208.60 133.96 207.94 C 134.67 204.93 135.84 202.05 137.12 199.24 C 138.31 200.36 139.31 201.78 140.95 202.26 C 143.92 196.07 136.07 195.86 135.15 191.22 C 136.71 189.26 138.70 187.41 141.35 188.56 C 146.43 190.34 144.78 182.69 147.88 180.82 C 151.37 177.85 159.56 172.77 161.53 179.74 C 163.76 178.86 172.80 181.00 168.07 174.77 C 166.07 171.71 170.61 168.41 165.86 166.77 C 162.07 163.82 158.05 160.42 156.45 155.73 C 156.60 151.93 158.11 145.37 152.40 146.08 C 152.93 150.78 148.13 152.87 146.00 148.33 C 151.94 145.37 155.16 139.35 160.42 135.57 C 165.39 133.66 164.03 127.11 165.28 122.97 L 165.08 122.19 L 165.97 121.88 L 166.74 121.62 C 168.81 121.13 170.90 121.55 172.96 121.90 M 175.26 181.20 C 169.76 184.29 175.73 190.69 179.79 186.80 C 184.49 184.41 178.70 179.45 175.26 181.20 Z" />
</g>
<g id="#00000037">
</g>
<g id="#676230ff">
<path fill="#676230" opacity="1.00" d=" M 190.15 135.30 C 192.22 131.40 196.40 134.88 199.73 134.45 L 200.18 135.11 C 199.30 136.38 198.43 137.65 197.53 138.91 C 195.77 140.87 195.91 143.69 195.66 146.19 C 191.43 144.82 190.23 139.13 190.15 135.30 Z" />
</g>
<g id="#8c7127ff">
<path fill="#8c7127" opacity="1.00" d=" M 200.18 135.11 C 202.13 135.96 204.27 135.97 206.36 135.92 C 205.96 138.25 206.95 140.32 208.18 142.24 C 208.11 144.15 208.07 146.06 207.97 147.97 C 207.37 151.81 204.19 155.11 200.17 153.18 C 199.36 152.15 198.59 151.09 197.83 150.03 C 198.01 149.48 198.38 148.39 198.56 147.84 C 201.56 147.58 206.13 146.68 202.97 143.05 C 201.21 141.59 199.28 140.37 197.53 138.91 C 198.43 137.65 199.30 136.38 200.18 135.11 Z" />
</g>
<g id="#353e19b3">
<path fill="#353e19" opacity="0.70" d=" M 311.94 139.99 C 312.80 136.64 315.34 134.44 319.16 136.51 C 316.35 136.72 313.97 138.13 311.94 139.99 Z" />
</g>
<g id="#768447fe">
<path fill="#768447" opacity="1.00" d=" M 311.94 139.99 C 313.97 138.13 316.35 136.72 319.16 136.51 C 321.29 138.01 322.23 140.39 322.32 142.92 C 320.13 149.96 313.01 154.13 311.38 161.40 C 314.81 156.63 302.56 148.66 305.97 158.95 C 305.16 162.19 309.51 160.73 311.38 161.40 C 308.87 163.51 305.36 163.68 302.22 163.94 C 298.06 154.02 310.60 149.22 311.94 139.99 Z" />
</g>
<g id="#929861ff">
<path fill="#929861" opacity="1.00" d=" M 208.18 142.24 C 210.73 142.03 211.47 139.51 212.83 137.77 C 212.27 140.33 212.08 142.61 215.36 142.40 C 216.43 146.42 220.18 153.71 213.19 152.63 C 213.31 148.83 209.51 139.68 207.97 147.97 C 208.07 146.06 208.11 144.15 208.18 142.24 Z" />
</g>
<g id="#49562bfd">
<path fill="#49562b" opacity="1.00" d=" M 285.70 145.65 C 294.43 143.30 305.85 148.61 311.94 139.99 C 310.60 149.22 298.06 154.02 302.22 163.94 C 305.36 163.68 308.87 163.51 311.38 161.40 C 313.01 154.13 320.13 149.96 322.32 142.92 C 324.57 142.60 326.81 142.39 329.11 142.31 C 320.12 147.84 319.63 159.20 313.59 166.74 C 309.92 171.75 316.13 174.49 319.13 171.43 C 320.51 169.53 321.07 167.20 321.92 165.04 C 323.63 163.64 325.33 162.23 327.15 160.96 C 325.85 164.43 322.08 168.03 324.51 171.82 C 321.56 174.01 318.31 176.91 318.04 180.79 C 320.03 182.70 323.07 183.86 324.90 181.09 C 325.81 180.04 326.66 178.94 327.50 177.84 C 327.77 179.56 328.00 181.30 328.19 183.04 C 325.89 183.88 322.95 188.19 327.13 188.31 C 324.55 188.90 321.99 189.34 319.44 189.98 C 317.02 189.29 314.63 188.75 312.27 187.98 C 317.84 181.71 302.85 182.16 303.91 176.21 C 305.86 176.62 309.61 177.50 308.94 174.19 C 306.82 170.48 302.85 177.73 303.91 172.07 C 301.80 175.24 301.88 172.47 301.81 169.97 C 293.34 170.58 305.00 176.26 301.89 180.88 C 299.13 181.55 300.47 177.47 298.36 176.63 C 297.29 175.61 296.19 174.63 295.03 173.73 C 292.55 171.63 285.28 167.20 285.02 172.92 C 285.71 175.49 287.78 177.32 289.61 179.13 C 290.68 180.19 291.78 181.21 292.90 182.22 C 294.61 184.03 295.86 185.83 292.37 184.57 C 286.45 181.78 295.25 191.07 290.15 187.97 C 286.48 188.31 284.87 180.76 282.34 183.83 C 282.33 186.66 279.13 188.15 277.94 190.59 C 275.77 189.90 273.91 188.61 272.15 187.22 C 269.64 189.65 271.97 194.23 267.77 194.90 C 265.63 198.14 268.10 203.08 267.74 207.02 C 265.66 212.27 262.52 217.75 261.24 222.83 C 264.93 228.36 255.60 226.57 255.18 222.75 C 255.03 224.24 254.75 227.23 254.61 228.73 C 249.58 227.92 250.74 234.01 249.71 237.11 C 246.67 237.74 247.82 231.46 244.82 233.86 C 241.86 236.22 241.65 233.45 241.63 230.73 C 242.83 228.24 245.76 228.14 248.12 227.60 C 245.00 223.83 239.18 229.08 235.57 226.07 C 238.49 226.72 250.20 222.38 242.04 220.67 C 244.60 218.56 246.07 214.24 241.11 215.70 C 243.90 210.72 235.22 208.00 232.74 211.85 C 231.91 212.63 231.08 213.41 230.22 214.15 C 229.41 211.50 230.21 207.18 227.30 205.89 C 230.08 203.77 227.93 200.88 227.36 198.26 C 227.91 196.96 228.11 195.35 229.51 194.67 C 229.16 204.65 242.19 200.67 247.82 205.88 C 248.78 211.98 247.99 217.96 247.01 224.10 C 249.72 218.07 254.89 217.40 259.85 216.83 C 257.54 212.74 258.30 203.55 264.84 205.83 C 264.54 199.14 267.21 192.39 265.88 185.85 C 276.22 177.53 276.50 164.05 277.91 151.88 C 279.15 149.96 280.38 147.79 282.48 146.71 C 282.17 149.54 283.27 152.28 286.30 152.89 C 289.20 157.13 275.20 164.57 283.87 166.36 C 287.26 168.51 286.13 160.54 289.18 164.75 C 293.49 163.24 291.97 155.70 288.03 153.20 C 290.30 152.64 292.60 152.22 294.87 151.64 C 298.46 143.52 289.99 146.51 285.70 145.65 Z" />
</g>
<g id="#00000048">
</g>
<g id="#b39d7dff">
<path fill="#b39d7d" opacity="1.00" d=" M 198.56 147.84 C 197.38 144.36 199.03 140.75 202.97 143.05 C 206.13 146.68 201.56 147.58 198.56 147.84 Z" />
</g>
<g id="#768747fd">
<path fill="#768747" opacity="1.00" d=" M 313.59 166.74 C 319.63 159.20 320.12 147.84 329.11 142.31 C 333.36 146.27 329.62 153.12 334.28 157.03 C 333.57 158.94 333.22 161.22 334.59 162.95 C 332.82 167.99 328.21 171.65 327.41 177.07 C 326.93 167.66 317.35 182.41 324.90 181.09 C 323.07 183.86 320.03 182.70 318.04 180.79 C 318.31 176.91 321.56 174.01 324.51 171.82 C 322.08 168.03 325.85 164.43 327.15 160.96 C 325.33 162.23 323.63 163.64 321.92 165.04 C 321.87 160.57 330.68 158.24 324.33 155.08 C 321.45 160.18 316.80 164.28 315.06 169.96 C 316.32 170.69 317.73 171.05 319.13 171.43 C 316.13 174.49 309.92 171.75 313.59 166.74 Z" />
</g>
<g id="#00000056">
</g>
<g id="#566938fe">
<path fill="#566938" opacity="1.00" d=" M 282.48 146.71 C 283.50 146.20 284.57 145.85 285.70 145.65 C 289.99 146.51 298.46 143.52 294.87 151.64 C 292.60 152.22 290.30 152.64 288.03 153.20 C 291.97 155.70 293.49 163.24 289.18 164.75 C 286.13 160.54 287.26 168.51 283.87 166.36 C 275.20 164.57 289.20 157.13 286.30 152.89 C 283.27 152.28 282.17 149.54 282.48 146.71 Z" />
</g>
<g id="#95a15eff">
<path fill="#95a15e" opacity="1.00" d=" M 187.86 148.02 C 191.27 148.07 195.30 147.24 197.83 150.03 C 198.59 151.09 199.36 152.15 200.17 153.18 C 200.11 155.61 200.30 158.98 197.26 159.53 C 196.10 162.11 202.24 163.40 198.89 165.98 C 195.96 165.47 196.50 158.92 192.98 162.05 C 193.87 164.83 196.43 166.37 198.46 168.24 C 194.36 171.68 196.72 176.44 199.10 180.13 C 196.35 181.73 193.38 182.85 191.00 185.17 C 188.60 183.17 186.70 180.60 184.07 178.86 C 183.56 178.50 182.56 177.78 182.05 177.42 C 182.53 175.33 183.48 171.16 183.95 169.08 C 188.80 173.20 186.26 167.29 185.10 164.04 C 191.32 163.85 184.28 158.31 183.85 155.04 C 186.57 155.10 189.41 156.19 192.01 154.86 C 191.59 152.06 187.91 151.05 187.86 148.02 Z" />
</g>
<g id="#00000066">
</g>
<g id="#615727ff">
<path fill="#615727" opacity="1.00" d=" M 213.95 160.89 C 216.06 158.05 216.51 152.29 221.03 152.90 C 219.49 155.01 219.10 157.37 220.16 159.81 C 218.08 160.13 216.02 160.55 213.95 160.89 Z" />
</g>
<g id="#b5b273ff">
<path fill="#b5b273" opacity="1.00" d=" M 305.97 158.95 C 302.56 148.66 314.81 156.63 311.38 161.40 C 309.51 160.73 305.16 162.19 305.97 158.95 Z" />
</g>
<g id="#a2a862ff">
<path fill="#a2a862" opacity="1.00" d=" M 324.33 155.08 C 330.68 158.24 321.87 160.57 321.92 165.04 C 321.07 167.20 320.51 169.53 319.13 171.43 C 317.73 171.05 316.32 170.69 315.06 169.96 C 316.80 164.28 321.45 160.18 324.33 155.08 Z" />
</g>
<g id="#5b6930fd">
<path fill="#5b6930" opacity="1.00" d=" M 226.79 163.96 C 228.86 161.47 225.94 157.38 229.20 155.45 C 230.87 158.11 232.63 160.75 233.94 163.62 C 233.24 165.98 234.95 166.41 239.06 164.91 C 247.30 165.88 255.63 168.05 262.05 173.58 C 259.68 176.53 260.87 181.83 260.95 185.50 C 258.86 187.39 256.35 188.72 253.88 190.02 C 254.17 187.74 254.60 185.49 255.22 183.28 C 258.06 181.54 259.22 177.03 256.03 175.07 C 254.82 172.43 253.23 169.53 249.29 170.73 C 245.32 165.44 235.04 167.39 234.46 175.03 C 234.21 169.32 227.36 171.02 223.33 170.18 C 221.19 173.66 217.60 176.76 220.19 181.09 C 221.77 179.17 224.05 172.10 223.48 181.44 C 225.45 183.36 227.25 185.42 228.65 187.80 C 229.62 184.90 231.45 182.53 234.76 183.10 C 234.69 185.79 235.67 189.17 238.79 186.93 C 242.16 188.73 245.19 186.09 248.50 187.01 C 248.66 188.95 246.84 192.45 250.05 192.27 C 247.98 193.43 245.63 194.09 243.25 193.84 C 239.26 193.81 234.55 191.53 230.82 193.78 C 230.49 194.01 229.84 194.45 229.51 194.67 C 228.11 195.35 227.91 196.96 227.36 198.26 C 226.37 197.04 225.82 195.11 223.96 195.09 C 223.47 195.07 222.51 195.02 222.03 195.00 C 220.78 194.75 219.56 194.39 218.32 194.14 C 212.65 191.27 205.66 189.62 202.83 183.24 C 201.15 181.24 203.72 173.73 199.52 177.06 C 201.09 173.74 204.65 170.02 203.78 164.90 C 208.75 163.45 217.91 166.54 220.16 159.81 C 221.89 161.76 223.74 164.66 226.79 163.96 Z" />
</g>
<g id="#3b45209a">
<path fill="#3b4520" opacity="0.60" d=" M 334.28 157.03 C 334.53 158.46 335.04 161.32 335.29 162.75 L 334.59 162.95 C 333.22 161.22 333.57 158.94 334.28 157.03 Z" />
</g>
<g id="#0000003b">
</g>
<g id="#4c512afd">
<path fill="#4c512a" opacity="1.00" d=" M 133.45 165.36 C 133.82 160.96 137.67 165.62 140.30 164.63 C 146.57 161.94 154.40 163.98 158.94 169.10 C 161.42 171.87 163.15 166.68 165.86 166.77 C 170.61 168.41 166.07 171.71 168.07 174.77 C 172.80 181.00 163.76 178.86 161.53 179.74 C 159.56 172.77 151.37 177.85 147.88 180.82 C 144.78 182.69 146.43 190.34 141.35 188.56 C 138.70 187.41 136.71 189.26 135.15 191.22 C 136.07 195.86 143.92 196.07 140.95 202.26 C 139.31 201.78 138.31 200.36 137.12 199.24 C 135.84 202.05 134.67 204.93 133.96 207.94 C 137.14 208.60 141.88 205.42 144.32 208.68 C 147.49 211.39 146.08 216.60 149.56 219.08 C 149.62 214.48 155.19 217.21 157.91 214.87 C 161.84 212.02 165.46 219.54 159.31 218.39 C 155.41 225.01 162.95 228.91 165.82 234.07 C 167.44 237.07 170.72 238.12 173.78 239.00 C 172.99 243.78 180.87 240.23 178.29 245.21 C 177.44 248.58 182.14 248.65 184.20 249.83 C 185.44 251.79 186.08 254.07 186.86 256.23 C 181.48 255.14 177.91 250.28 173.18 247.72 C 172.87 246.70 172.56 245.68 172.25 244.66 C 171.49 238.91 164.37 240.24 160.33 238.70 C 157.34 236.90 153.93 236.73 152.04 240.10 L 151.26 239.87 C 150.55 239.20 149.82 238.56 149.08 237.94 C 144.26 234.43 138.92 231.04 136.97 225.02 C 134.77 221.20 136.32 215.80 132.49 212.96 C 132.22 212.68 131.67 212.10 131.39 211.82 C 130.75 210.84 130.11 209.87 129.47 208.90 C 125.60 203.03 125.75 195.84 126.01 189.07 C 127.84 186.29 129.99 183.75 131.85 181.01 C 130.26 178.66 128.53 176.43 126.87 174.14 C 126.69 173.59 126.31 172.50 126.12 171.95 C 125.77 170.60 125.45 169.24 125.08 167.90 C 125.05 167.16 124.98 165.69 124.95 164.95 C 127.24 166.90 132.85 170.48 133.45 165.36 Z" />
</g>
<g id="#5c6f39fb">
<path fill="#5c6f39" opacity="1.00" d=" M 334.59 162.95 L 335.29 162.75 C 337.01 164.44 338.60 166.38 339.18 168.78 C 330.25 166.48 334.70 179.98 328.19 183.04 C 328.00 181.30 327.77 179.56 327.50 177.84 L 327.41 177.07 C 328.21 171.65 332.82 167.99 334.59 162.95 Z" />
</g>
<g id="#1f231083">
</g>
<g id="#7b8c48ff">
<path fill="#7b8c48" opacity="1.00" d=" M 234.46 175.03 C 235.04 167.39 245.32 165.44 249.29 170.73 C 253.23 169.53 254.82 172.43 256.03 175.07 C 250.04 172.26 243.20 175.29 237.23 173.10 C 236.45 176.44 235.40 179.72 234.76 183.10 C 231.45 182.53 229.62 184.90 228.65 187.80 C 227.25 185.42 225.45 183.36 223.48 181.44 C 224.05 172.10 221.77 179.17 220.19 181.09 C 217.60 176.76 221.19 173.66 223.33 170.18 C 227.36 171.02 234.21 169.32 234.46 175.03 Z" />
</g>
<g id="#889051f5">
<path fill="#889051" opacity="0.96" d=" M 328.19 183.04 C 334.70 179.98 330.25 166.48 339.18 168.78 C 339.22 170.86 338.84 172.93 338.08 174.87 C 332.99 178.31 334.34 187.35 327.13 188.31 C 322.95 188.19 325.89 183.88 328.19 183.04 Z" />
</g>
<g id="#0000002e">
</g>
<g id="#77653fff">
<path fill="#77653f" opacity="1.00" d=" M 285.02 172.92 C 285.28 167.20 292.55 171.63 295.03 173.73 C 291.92 173.65 289.74 176.13 289.61 179.13 C 287.78 177.32 285.71 175.49 285.02 172.92 Z" />
</g>
<g id="#7b8148fe">
<path fill="#7b8148" opacity="1.00" d=" M 301.89 180.88 C 305.00 176.26 293.34 170.58 301.81 169.97 C 301.88 172.47 301.80 175.24 303.91 172.07 C 302.85 177.73 306.82 170.48 308.94 174.19 C 309.61 177.50 305.86 176.62 303.91 176.21 C 302.85 182.16 317.84 181.71 312.27 187.98 C 314.63 188.75 317.02 189.29 319.44 189.98 C 319.11 190.21 318.45 190.68 318.12 190.91 C 314.45 190.85 310.94 193.42 307.39 192.69 C 304.87 189.46 301.09 187.87 297.25 186.76 C 298.64 191.17 297.65 195.76 303.78 195.99 C 301.63 198.59 299.64 201.53 299.92 205.08 L 299.82 205.88 C 295.26 213.86 294.09 223.64 286.77 229.92 C 286.69 231.48 286.52 234.61 286.43 236.17 C 284.14 237.43 281.32 239.14 281.72 235.03 C 279.08 236.52 276.85 238.60 274.63 240.64 C 269.77 240.03 276.57 237.22 270.82 237.68 C 273.01 236.19 279.35 235.55 275.89 232.04 C 274.27 232.76 272.78 233.83 271.00 234.14 C 270.79 231.26 273.26 227.44 269.98 225.61 C 276.25 220.18 278.30 230.33 283.70 231.15 C 284.35 225.30 278.21 221.86 276.04 216.86 C 277.41 217.46 278.73 218.17 280.10 218.79 C 284.01 220.63 275.74 207.46 284.68 212.87 C 284.06 208.85 285.59 202.64 280.21 201.74 C 277.48 199.68 277.28 204.13 275.33 205.20 C 276.73 199.37 267.52 194.48 269.06 202.91 C 271.98 204.44 269.51 205.92 267.74 207.02 C 268.10 203.08 265.63 198.14 267.77 194.90 C 271.97 194.23 269.64 189.65 272.15 187.22 C 273.91 188.61 275.77 189.90 277.94 190.59 C 279.13 188.15 282.33 186.66 282.34 183.83 C 284.87 180.76 286.48 188.31 290.15 187.97 C 295.25 191.07 286.45 181.78 292.37 184.57 C 295.86 185.83 294.61 184.03 292.90 182.22 C 296.88 182.91 300.31 180.91 298.36 176.63 C 300.47 177.47 299.13 181.55 301.89 180.88 M 291.73 215.78 C 296.19 213.92 290.09 210.91 292.69 207.86 C 294.59 211.40 297.65 205.23 297.04 202.86 C 295.32 203.89 294.10 205.51 292.93 207.09 C 292.53 203.58 290.93 199.54 295.17 198.07 C 282.86 192.35 281.86 214.42 291.73 215.78 M 274.25 228.08 C 270.39 232.78 280.18 229.54 274.25 228.08 Z" />
</g>
<g id="#99aa65ff">
<path fill="#99aa65" opacity="1.00" d=" M 237.23 173.10 C 243.20 175.29 250.04 172.26 256.03 175.07 C 259.22 177.03 258.06 181.54 255.22 183.28 C 252.76 185.46 249.50 186.67 247.89 182.96 C 245.01 185.34 243.09 185.07 242.57 181.05 C 240.62 182.48 238.93 184.40 238.79 186.93 C 235.67 189.17 234.69 185.79 234.76 183.10 C 235.40 179.72 236.45 176.44 237.23 173.10 Z" />
</g>
<g id="#7f8945f1">
<path fill="#7f8945" opacity="0.95" d=" M 260.95 185.50 C 260.87 181.83 259.68 176.53 262.05 173.58 C 265.13 176.91 265.16 183.06 260.95 185.50 Z" />
</g>
<g id="#aca180ff">
<path fill="#aca180" opacity="1.00" d=" M 289.61 179.13 C 289.74 176.13 291.92 173.65 295.03 173.73 C 296.19 174.63 297.29 175.61 298.36 176.63 C 300.31 180.91 296.88 182.91 292.90 182.22 C 291.78 181.21 290.68 180.19 289.61 179.13 M 294.44 178.15 C 294.01 183.99 299.93 176.90 294.44 178.15 Z" />
</g>
<g id="#a5a25aff">
<path fill="#a5a25a" opacity="1.00" d=" M 324.90 181.09 C 317.35 182.41 326.93 167.66 327.41 177.07 L 327.50 177.84 C 326.66 178.94 325.81 180.04 324.90 181.09 Z" />
</g>
<g id="#0000000f">
</g>
<g id="#858d4dff">
<path fill="#858d4d" opacity="1.00" d=" M 199.52 177.06 C 203.72 173.73 201.15 181.24 202.83 183.24 C 205.66 189.62 212.65 191.27 218.32 194.14 C 215.05 199.89 209.44 188.42 207.70 194.88 C 205.91 196.11 203.13 197.05 204.07 199.78 C 206.35 202.53 209.79 201.12 212.77 201.16 C 216.19 203.25 212.26 210.97 218.49 208.13 C 219.72 211.41 220.02 215.30 215.09 213.86 C 208.13 209.33 209.11 217.85 204.80 219.58 C 197.95 222.89 199.88 232.04 193.17 235.19 C 194.96 238.15 196.85 241.15 197.49 244.61 C 195.33 246.61 188.68 251.01 194.34 252.68 C 198.31 254.81 190.96 247.03 195.84 249.17 C 200.83 248.75 199.20 256.07 196.10 256.82 C 192.73 253.98 185.29 254.08 186.20 248.28 C 183.89 244.58 182.58 239.23 178.02 237.74 C 179.87 240.49 184.97 246.17 178.29 245.21 C 180.87 240.23 172.99 243.78 173.78 239.00 C 176.10 235.44 180.16 226.60 172.97 227.96 C 171.82 222.28 174.48 226.10 177.93 226.19 C 172.01 219.68 186.03 227.25 182.07 221.20 C 188.40 219.46 182.95 215.30 180.43 212.50 C 177.49 209.18 176.09 215.34 173.00 215.08 C 168.96 215.07 165.07 206.24 170.77 205.92 C 170.88 208.81 170.52 212.12 173.73 213.04 C 173.01 210.68 178.80 203.12 172.93 205.69 C 171.54 199.26 176.60 204.69 180.04 204.04 C 181.01 201.05 175.57 197.68 180.02 196.01 C 183.42 194.93 180.00 193.25 179.06 191.52 C 180.80 190.72 184.29 189.91 181.31 188.03 C 183.75 185.52 183.42 182.03 184.07 178.86 C 186.70 180.60 188.60 183.17 191.00 185.17 C 193.38 182.85 196.35 181.73 199.10 180.13 C 199.71 179.28 199.85 178.26 199.52 177.06 M 185.14 185.01 C 180.62 189.36 190.04 191.23 187.73 195.55 C 183.97 196.99 187.32 200.57 188.10 202.89 C 180.62 199.89 183.35 206.16 180.92 210.10 C 184.91 208.77 188.68 206.37 192.71 205.46 C 194.93 208.70 197.16 203.91 194.66 202.31 C 188.77 197.94 191.86 188.36 185.14 185.01 M 183.98 231.98 C 184.04 233.61 183.45 236.10 185.76 236.30 C 182.48 239.76 185.61 249.06 190.94 245.84 C 187.21 242.21 188.62 233.91 183.98 231.98 Z" />
</g>
<g id="#eae2d2ff">
<path fill="#eae2d2" opacity="1.00" d=" M 294.44 178.15 C 299.93 176.90 294.01 183.99 294.44 178.15 Z" />
</g>
<g id="#7a864fff">
<path fill="#7a864f" opacity="1.00" d=" M 175.26 181.20 C 178.70 179.45 184.49 184.41 179.79 186.80 C 175.73 190.69 169.76 184.29 175.26 181.20 Z" />
</g>
<g id="#748236fd">
<path fill="#748236" opacity="1.00" d=" M 238.79 186.93 C 238.93 184.40 240.62 182.48 242.57 181.05 C 243.09 185.07 245.01 185.34 247.89 182.96 C 249.50 186.67 252.76 185.46 255.22 183.28 C 254.60 185.49 254.17 187.74 253.88 190.02 C 252.61 190.78 251.35 191.56 250.05 192.27 C 246.84 192.45 248.66 188.95 248.50 187.01 C 245.19 186.09 242.16 188.73 238.79 186.93 Z" />
</g>
<g id="#a0af67ff">
<path fill="#a0af67" opacity="1.00" d=" M 185.14 185.01 C 191.86 188.36 188.77 197.94 194.66 202.31 C 197.16 203.91 194.93 208.70 192.71 205.46 C 188.68 206.37 184.91 208.77 180.92 210.10 C 183.35 206.16 180.62 199.89 188.10 202.89 C 187.32 200.57 183.97 196.99 187.73 195.55 C 190.04 191.23 180.62 189.36 185.14 185.01 Z" />
</g>
<g id="#363e1afa">
<path fill="#363e1a" opacity="0.98" d=" M 252.77 206.85 C 251.99 197.43 261.40 192.70 265.88 185.85 C 267.21 192.39 264.54 199.14 264.84 205.83 C 258.30 203.55 257.54 212.74 259.85 216.83 C 254.89 217.40 249.72 218.07 247.01 224.10 C 247.99 217.96 248.78 211.98 247.82 205.88 C 249.47 206.21 251.11 206.62 252.77 206.85 Z" />
</g>
<g id="#5b5728f8">
<path fill="#5b5728" opacity="0.97" d=" M 297.25 186.76 C 301.09 187.87 304.87 189.46 307.39 192.69 C 310.94 193.42 314.45 190.85 318.12 190.91 C 314.84 193.46 311.23 195.54 308.04 198.20 C 307.75 198.44 307.17 198.92 306.88 199.16 C 304.03 195.49 302.61 201.52 306.67 201.21 L 307.15 201.86 C 305.03 203.50 302.66 204.94 299.92 205.08 C 299.64 201.53 301.63 198.59 303.78 195.99 C 297.65 195.76 298.64 191.17 297.25 186.76 Z" />
</g>
<g id="#0000004a">
</g>
<g id="#7a8041ff">
<path fill="#7a8041" opacity="1.00" d=" M 207.70 194.88 C 209.44 188.42 215.05 199.89 218.32 194.14 C 219.56 194.39 220.78 194.75 222.03 195.00 C 220.86 197.56 225.08 197.72 223.96 195.09 C 225.82 195.11 226.37 197.04 227.36 198.26 C 227.93 200.88 230.08 203.77 227.30 205.89 C 223.94 208.84 226.13 213.65 225.02 217.04 C 219.96 220.34 226.15 230.94 230.90 225.75 C 231.41 221.92 227.11 217.68 230.22 214.15 C 231.08 213.41 231.91 212.63 232.74 211.85 C 233.16 215.76 235.07 219.61 238.96 221.05 C 239.90 216.72 239.87 210.12 232.74 211.85 C 235.22 208.00 243.90 210.72 241.11 215.70 C 246.07 214.24 244.60 218.56 242.04 220.67 C 250.20 222.38 238.49 226.72 235.57 226.07 C 233.45 224.68 235.25 221.93 234.97 219.92 C 231.31 219.83 232.55 224.44 232.56 226.81 C 231.52 229.72 230.29 232.79 227.45 234.39 C 228.71 235.65 230.05 236.82 231.28 238.12 C 230.23 239.91 228.91 241.53 226.98 242.42 C 228.20 237.53 224.24 232.76 223.40 227.79 C 219.42 231.23 217.79 236.32 215.91 241.06 C 219.47 242.16 218.93 237.30 221.70 237.07 C 222.45 240.22 222.79 244.21 226.98 242.42 C 227.59 247.46 232.64 249.27 237.01 250.06 C 236.32 254.63 231.05 252.71 227.67 253.13 L 226.71 252.98 C 229.82 252.59 230.45 250.59 228.83 248.06 C 225.99 248.95 223.80 252.26 220.98 249.06 C 221.65 247.65 222.31 246.24 222.93 244.82 C 219.61 248.85 219.89 242.63 215.66 243.36 C 211.50 241.81 213.74 244.86 215.22 246.80 C 213.56 246.35 211.88 245.99 210.21 245.64 C 210.02 242.06 204.84 243.32 204.81 239.20 C 213.35 242.95 203.74 226.43 213.00 226.01 C 218.63 226.12 214.35 218.55 218.98 218.59 C 218.29 217.48 217.38 216.54 216.36 215.74 C 216.05 215.27 215.41 214.33 215.09 213.86 C 220.02 215.30 219.72 211.41 218.49 208.13 C 215.29 204.00 219.75 201.38 222.97 199.47 C 218.79 194.05 209.06 203.20 207.70 194.88 M 215.16 229.22 C 213.56 230.36 212.63 232.02 212.97 234.03 C 216.08 235.07 220.05 228.94 215.16 229.22 Z" />
</g>
<g id="#171b0b7d">
</g>
<g id="#68622aff">
<path fill="#68622a" opacity="1.00" d=" M 204.07 199.78 C 203.13 197.05 205.91 196.11 207.70 194.88 C 209.06 203.20 218.79 194.05 222.97 199.47 C 219.75 201.38 215.29 204.00 218.49 208.13 C 212.26 210.97 216.19 203.25 212.77 201.16 C 209.79 201.12 206.35 202.53 204.07 199.78 Z" />
</g>
<g id="#cec4b4ff">
<path fill="#cec4b4" opacity="1.00" d=" M 222.03 195.00 C 222.51 195.02 223.47 195.07 223.96 195.09 C 225.08 197.72 220.86 197.56 222.03 195.00 Z" />
</g>
<g id="#5d6438ff">
<path fill="#5d6438" opacity="1.00" d=" M 291.73 215.78 C 281.86 214.42 282.86 192.35 295.17 198.07 C 290.93 199.54 292.53 203.58 292.93 207.09 L 292.69 207.86 C 290.09 210.91 296.19 213.92 291.73 215.78 Z" />
</g>
<g id="#b2ae8bff">
<path fill="#b2ae8b" opacity="1.00" d=" M 269.06 202.91 C 267.52 194.48 276.73 199.37 275.33 205.20 C 271.53 210.78 272.79 196.93 269.06 202.91 Z" />
</g>
<g id="#b4a183fd">
<path fill="#b4a183" opacity="1.00" d=" M 306.67 201.21 C 302.61 201.52 304.03 195.49 306.88 199.16 C 306.83 199.67 306.72 200.70 306.67 201.21 Z" />
</g>
<g id="#3229127e">
</g>
<g id="#91a064ff">
<path fill="#91a064" opacity="1.00" d=" M 269.06 202.91 C 272.79 196.93 271.53 210.78 275.33 205.20 C 277.28 204.13 277.48 199.68 280.21 201.74 C 285.59 202.64 284.06 208.85 284.68 212.87 C 275.74 207.46 284.01 220.63 280.10 218.79 C 278.73 218.17 277.41 217.46 276.04 216.86 C 278.21 221.86 284.35 225.30 283.70 231.15 C 278.30 230.33 276.25 220.18 269.98 225.61 C 268.41 226.87 267.08 228.38 265.80 229.92 C 265.17 230.65 264.52 231.37 263.86 232.08 C 264.22 227.66 266.40 223.68 267.49 219.43 C 272.09 217.11 268.59 213.05 273.08 209.97 C 270.79 209.75 268.22 209.91 267.74 207.02 C 269.51 205.92 271.98 204.44 269.06 202.91 Z" />
</g>
<g id="#b4a283ff">
<path fill="#b4a283" opacity="1.00" d=" M 292.93 207.09 C 294.10 205.51 295.32 203.89 297.04 202.86 C 297.65 205.23 294.59 211.40 292.69 207.86 L 292.93 207.09 Z" />
</g>
<g id="#282b0cff">
<path fill="#282b0c" opacity="1.00" d=" M 227.30 205.89 C 230.21 207.18 229.41 211.50 230.22 214.15 C 227.11 217.68 231.41 221.92 230.90 225.75 C 226.15 230.94 219.96 220.34 225.02 217.04 C 226.13 213.65 223.94 208.84 227.30 205.89 Z" />
</g>
<g id="#00000015">
</g>
<g id="#00000057">
</g>
<g id="#78804aff">
<path fill="#78804a" opacity="1.00" d=" M 261.24 222.83 C 262.52 217.75 265.66 212.27 267.74 207.02 C 268.22 209.91 270.79 209.75 273.08 209.97 C 268.59 213.05 272.09 217.11 267.49 219.43 C 266.40 223.68 264.22 227.66 263.86 232.08 C 264.52 231.37 265.17 230.65 265.80 229.92 C 266.05 232.66 266.65 235.35 266.95 238.08 C 263.81 238.89 264.97 233.59 262.15 234.16 C 259.79 235.60 265.43 239.18 261.36 237.61 C 256.47 237.60 263.16 232.12 259.27 231.11 C 256.90 232.50 258.40 237.51 255.25 236.90 C 254.12 234.29 254.03 231.47 254.61 228.73 C 254.75 227.23 255.03 224.24 255.18 222.75 C 255.60 226.57 264.93 228.36 261.24 222.83 Z" />
</g>
<g id="#00000039">
</g>
<g id="#00000067">
</g>
<g id="#8fa567ff">
<path fill="#8fa567" opacity="1.00" d=" M 232.74 211.85 C 239.87 210.12 239.90 216.72 238.96 221.05 C 235.07 219.61 233.16 215.76 232.74 211.85 Z" />
</g>
<g id="#0101007b">
</g>
<g id="#6d7437fd">
<path fill="#6d7437" opacity="1.00" d=" M 204.80 219.58 C 209.11 217.85 208.13 209.33 215.09 213.86 C 215.41 214.33 216.05 215.27 216.36 215.74 C 212.03 215.82 208.55 218.81 212.11 222.60 C 205.01 221.85 199.22 230.98 203.78 236.89 C 201.47 237.69 199.83 240.04 202.08 242.02 C 204.12 245.76 194.78 245.81 197.96 247.88 C 204.64 246.67 196.49 259.78 204.07 255.12 C 204.64 252.08 204.58 245.45 210.21 245.64 C 211.88 245.99 213.56 246.35 215.22 246.80 C 217.13 247.57 219.04 248.34 220.98 249.06 C 223.80 252.26 225.99 248.95 228.83 248.06 C 230.45 250.59 229.82 252.59 226.71 252.98 C 215.94 249.49 217.86 267.48 207.35 268.25 L 206.37 268.18 C 206.13 263.75 201.94 261.40 197.93 261.22 C 195.19 260.00 196.79 264.97 193.94 264.02 C 189.87 264.81 191.56 257.87 187.90 257.93 C 187.15 260.48 190.48 262.84 188.95 265.01 C 186.62 262.11 181.68 254.98 178.23 260.19 C 177.07 266.04 161.61 261.44 170.37 258.36 C 176.20 257.97 172.97 251.35 173.18 247.72 C 177.91 250.28 181.48 255.14 186.86 256.23 C 186.08 254.07 185.44 251.79 184.20 249.83 C 182.14 248.65 177.44 248.58 178.29 245.21 C 184.97 246.17 179.87 240.49 178.02 237.74 C 182.58 239.23 183.89 244.58 186.20 248.28 C 185.29 254.08 192.73 253.98 196.10 256.82 C 199.20 256.07 200.83 248.75 195.84 249.17 C 190.96 247.03 198.31 254.81 194.34 252.68 C 188.68 251.01 195.33 246.61 197.49 244.61 C 196.85 241.15 194.96 238.15 193.17 235.19 C 199.88 232.04 197.95 222.89 204.80 219.58 M 212.40 254.45 C 207.10 254.83 207.91 260.31 205.91 264.02 C 208.86 263.15 213.51 262.49 214.05 259.00 C 217.49 258.46 215.32 252.22 212.40 254.45 Z" />
</g>
<g id="#505224ff">
<path fill="#505224" opacity="1.00" d=" M 212.11 222.60 C 208.55 218.81 212.03 215.82 216.36 215.74 C 217.38 216.54 218.29 217.48 218.98 218.59 C 214.35 218.55 218.63 226.12 213.00 226.01 C 203.74 226.43 213.35 242.95 204.81 239.20 C 204.55 238.62 204.04 237.46 203.78 236.89 C 199.22 230.98 205.01 221.85 212.11 222.60 Z" />
</g>
<g id="#00000029">
</g>
<g id="#98975eff">
<path fill="#98975e" opacity="1.00" d=" M 166.84 226.98 C 167.24 224.05 166.34 215.50 171.13 218.89 C 174.14 222.56 178.99 217.18 182.07 221.20 C 186.03 227.25 172.01 219.68 177.93 226.19 C 174.48 226.10 171.82 222.28 172.97 227.96 C 170.92 229.56 168.78 227.87 166.84 226.98 Z" />
</g>
<g id="#879752ff">
<path fill="#879752" opacity="1.00" d=" M 232.56 226.81 C 232.55 224.44 231.31 219.83 234.97 219.92 C 235.25 221.93 233.45 224.68 235.57 226.07 C 239.18 229.08 245.00 223.83 248.12 227.60 C 245.76 228.14 242.83 228.24 241.63 230.73 C 238.54 233.32 235.19 237.96 231.28 238.12 C 230.05 236.82 228.71 235.65 227.45 234.39 C 230.29 232.79 231.52 229.72 232.56 226.81 Z" />
</g>
<g id="#0000001d">
</g>
<g id="#667330fb">
<path fill="#667330" opacity="1.00" d=" M 265.80 229.92 C 267.08 228.38 268.41 226.87 269.98 225.61 C 273.26 227.44 270.79 231.26 271.00 234.14 C 272.78 233.83 274.27 232.76 275.89 232.04 C 279.35 235.55 273.01 236.19 270.82 237.68 C 276.57 237.22 269.77 240.03 274.63 240.64 C 276.85 238.60 279.08 236.52 281.72 235.03 C 281.32 239.14 284.14 237.43 286.43 236.17 C 284.79 240.19 280.44 241.44 276.42 241.55 C 274.11 247.77 268.01 249.12 262.20 249.70 C 259.82 249.41 257.45 249.17 255.08 248.99 C 258.15 248.22 260.13 245.91 261.01 242.93 C 257.34 244.01 254.01 243.76 251.11 241.17 C 249.03 242.41 246.15 244.11 244.77 241.01 C 248.34 235.85 242.19 236.54 238.91 235.05 C 237.10 239.09 239.21 241.97 242.80 242.36 C 243.00 245.64 243.55 249.22 246.17 251.50 C 248.10 250.72 250.07 250.08 252.18 250.09 C 245.18 255.22 235.75 254.52 227.67 253.13 C 231.05 252.71 236.32 254.63 237.01 250.06 C 232.64 249.27 227.59 247.46 226.98 242.42 C 228.91 241.53 230.23 239.91 231.28 238.12 C 235.19 237.96 238.54 233.32 241.63 230.73 C 241.65 233.45 241.86 236.22 244.82 233.86 C 247.82 231.46 246.67 237.74 249.71 237.11 C 250.74 234.01 249.58 227.92 254.61 228.73 C 254.03 231.47 254.12 234.29 255.25 236.90 C 258.40 237.51 256.90 232.50 259.27 231.11 C 263.16 232.12 256.47 237.60 261.36 237.61 C 265.43 239.18 259.79 235.60 262.15 234.16 C 264.97 233.59 263.81 238.89 266.95 238.08 C 266.65 235.35 266.05 232.66 265.80 229.92 Z" />
</g>
<g id="#846e27ff">
<path fill="#846e27" opacity="1.00" d=" M 166.84 226.98 C 168.78 227.87 170.92 229.56 172.97 227.96 C 180.16 226.60 176.10 235.44 173.78 239.00 C 170.72 238.12 167.44 237.07 165.82 234.07 C 166.00 231.68 166.41 229.33 166.84 226.98 Z" />
</g>
<g id="#96a45dff">
<path fill="#96a45d" opacity="1.00" d=" M 215.91 241.06 C 217.79 236.32 219.42 231.23 223.40 227.79 C 224.24 232.76 228.20 237.53 226.98 242.42 C 222.79 244.21 222.45 240.22 221.70 237.07 C 218.93 237.30 219.47 242.16 215.91 241.06 Z" />
</g>
<g id="#bba98bff">
<path fill="#bba98b" opacity="1.00" d=" M 274.25 228.08 C 280.18 229.54 270.39 232.78 274.25 228.08 Z" />
</g>
<g id="#c9ba9dff">
<path fill="#c9ba9d" opacity="1.00" d=" M 215.16 229.22 C 220.05 228.94 216.08 235.07 212.97 234.03 C 212.63 232.02 213.56 230.36 215.16 229.22 Z" />
</g>
<g id="#322e138b">
</g>
<g id="#646036ff">
<path fill="#646036" opacity="1.00" d=" M 183.98 231.98 C 188.62 233.91 187.21 242.21 190.94 245.84 C 185.61 249.06 182.48 239.76 185.76 236.30 C 183.45 236.10 184.04 233.61 183.98 231.98 Z" />
</g>
<g id="#899e5bff">
<path fill="#899e5b" opacity="1.00" d=" M 238.91 235.05 C 242.19 236.54 248.34 235.85 244.77 241.01 C 244.28 241.34 243.29 242.02 242.80 242.36 C 239.21 241.97 237.10 239.09 238.91 235.05 Z" />
</g>
<g id="#5c532bfc">
<path fill="#5c532b" opacity="1.00" d=" M 152.04 240.10 C 153.93 236.73 157.34 236.90 160.33 238.70 C 164.37 240.24 171.49 238.91 172.25 244.66 C 168.17 247.66 167.55 239.71 163.19 243.15 C 164.39 248.95 164.19 255.56 170.37 258.36 C 161.61 261.44 177.07 266.04 178.23 260.19 C 181.68 254.98 186.62 262.11 188.95 265.01 C 190.48 262.84 187.15 260.48 187.90 257.93 C 191.56 257.87 189.87 264.81 193.94 264.02 C 196.79 264.97 195.19 260.00 197.93 261.22 C 201.94 261.40 206.13 263.75 206.37 268.18 C 204.47 268.20 200.66 268.23 198.75 268.25 C 195.90 267.65 193.12 265.40 190.25 267.19 C 185.75 267.18 181.26 267.22 176.77 267.22 C 175.46 266.94 174.22 266.44 173.00 265.95 C 171.74 264.31 169.54 264.60 167.88 265.35 C 165.57 264.68 163.21 264.10 161.07 262.99 C 157.64 259.55 155.08 255.40 152.99 251.04 C 152.56 248.69 152.16 246.33 151.97 243.95 C 151.97 243.43 151.99 242.38 151.99 241.85 C 152.01 241.41 152.03 240.53 152.04 240.10 Z" />
</g>
<g id="#8d9b58ff">
<path fill="#8d9b58" opacity="1.00" d=" M 202.08 242.02 C 199.83 240.04 201.47 237.69 203.78 236.89 C 204.04 237.46 204.55 238.62 204.81 239.20 C 204.84 243.32 210.02 242.06 210.21 245.64 C 204.58 245.45 204.64 252.08 204.07 255.12 C 196.49 259.78 204.64 246.67 197.96 247.88 C 194.78 245.81 204.12 245.76 202.08 242.02 Z" />
</g>
<g id="#798d41fe">
<path fill="#798d41" opacity="1.00" d=" M 242.80 242.36 C 243.29 242.02 244.28 241.34 244.77 241.01 C 246.15 244.11 249.03 242.41 251.11 241.17 C 254.01 243.76 257.34 244.01 261.01 242.93 C 260.13 245.91 258.15 248.22 255.08 248.99 C 254.75 249.15 254.09 249.46 253.77 249.62 C 253.37 249.74 252.58 249.97 252.18 250.09 C 250.07 250.08 248.10 250.72 246.17 251.50 C 243.55 249.22 243.00 245.64 242.80 242.36 Z" />
</g>
<g id="#847345ff">
<path fill="#847345" opacity="1.00" d=" M 163.19 243.15 C 167.55 239.71 168.17 247.66 172.25 244.66 C 172.56 245.68 172.87 246.70 173.18 247.72 C 172.97 251.35 176.20 257.97 170.37 258.36 C 164.19 255.56 164.39 248.95 163.19 243.15 Z" />
</g>
<g id="#969c64ff">
<path fill="#969c64" opacity="1.00" d=" M 215.22 246.80 C 213.74 244.86 211.50 241.81 215.66 243.36 C 219.89 242.63 219.61 248.85 222.93 244.82 C 222.31 246.24 221.65 247.65 220.98 249.06 C 219.04 248.34 217.13 247.57 215.22 246.80 Z" />
</g>
<g id="#1e200c79">
</g>
<g id="#a79672ff">
<path fill="#a79672" opacity="1.00" d=" M 212.40 254.45 C 215.32 252.22 217.49 258.46 214.05 259.00 C 213.51 262.49 208.86 263.15 205.91 264.02 C 207.91 260.31 207.10 254.83 212.40 254.45 Z" />
</g>
<g id="#292113a4">
<path fill="#292113" opacity="0.64" d=" M 167.88 265.35 C 169.54 264.60 171.74 264.31 173.00 265.95 C 171.28 266.37 169.38 266.43 167.88 265.35 Z" />
</g>
<g id="#292f13ab">
<path fill="#292f13" opacity="0.67" d=" M 176.77 267.22 C 181.26 267.22 185.75 267.18 190.25 267.19 C 185.97 268.97 181.15 267.91 176.77 267.22 Z" />
</g>
<g id="#2c2413a7">
<path fill="#2c2413" opacity="0.65" d=" M 198.75 268.25 C 200.66 268.23 204.47 268.20 206.37 268.18 L 207.35 268.25 C 204.65 269.63 201.57 268.84 198.75 268.25 Z" />
</g>
</svg>



