<?xml version="1.0" encoding="UTF-8" ?>
<!DOCTYPE svg PUBLIC "-//W3C//DTD SVG 1.1//EN" "http://www.w3.org/Graphics/SVG/1.1/DTD/svg11.dtd">
<svg width="384pt" height="384pt" viewBox="0 0 384 384" version="1.1" xmlns="http://www.w3.org/2000/svg">
<g id="#0000000f">
</g>
<g id="#00000017">
</g>
<g id="#596033fd">
<path fill="#596033" opacity="1.00" d=" M 183.60 33.57 C 187.48 34.04 191.98 28.35 195.23 32.78 C 196.61 35.24 198.46 34.48 200.21 32.82 C 200.69 32.93 201.66 33.14 202.15 33.25 C 200.92 35.11 199.83 37.06 198.79 39.03 C 197.42 42.12 194.60 40.56 192.28 39.58 C 188.85 42.97 184.36 44.92 179.65 44.68 C 177.48 46.36 165.37 52.87 173.52 54.10 C 172.66 51.43 174.59 48.81 177.12 48.11 C 180.47 46.95 177.61 51.61 177.29 53.20 C 180.46 51.99 183.67 50.98 187.14 50.98 C 185.81 55.40 179.77 61.30 186.19 64.47 C 183.93 65.52 182.48 62.96 180.98 61.75 C 177.03 51.73 171.94 67.68 165.93 66.18 C 164.43 66.31 163.09 67.05 161.73 67.64 C 158.87 65.87 152.83 69.15 155.69 72.06 C 159.37 72.01 156.82 75.57 156.60 77.72 C 155.56 83.07 163.94 87.19 168.73 85.73 C 174.88 86.44 164.32 100.00 175.89 95.01 C 172.55 88.20 180.92 92.84 178.10 97.00 C 175.70 98.60 173.19 100.14 170.47 98.28 C 169.94 100.02 168.81 101.39 167.11 102.08 C 166.29 99.54 165.32 94.84 161.61 96.52 C 156.69 97.29 157.72 104.07 152.82 104.91 C 148.06 107.40 154.86 110.66 157.60 111.25 C 155.85 104.31 167.58 109.53 171.99 106.27 C 176.91 112.00 161.33 107.70 164.42 113.64 C 165.84 117.46 165.59 125.21 172.20 121.37 C 172.64 121.27 173.51 121.06 173.94 120.96 C 174.39 125.04 169.90 127.52 172.51 131.62 C 165.09 134.22 161.21 141.68 155.25 146.33 C 153.73 148.99 159.44 150.30 159.18 147.17 C 159.26 140.78 168.01 145.80 164.46 150.59 C 163.56 157.08 169.56 161.22 173.88 164.84 C 170.74 164.24 171.31 169.10 168.16 167.91 C 163.04 164.78 157.53 160.97 151.26 161.38 C 147.71 163.59 142.91 163.39 140.16 160.03 C 142.38 168.70 134.12 164.24 129.82 166.01 C 128.82 162.12 129.36 158.13 132.06 155.11 C 133.51 152.04 132.68 148.27 133.05 144.93 C 133.41 142.62 133.75 140.30 134.08 138.00 C 135.46 135.98 137.80 133.50 136.03 131.01 C 133.14 125.43 134.15 118.88 134.97 112.93 C 137.18 108.89 140.13 105.30 142.30 101.24 C 142.74 98.42 142.83 95.56 142.73 92.71 C 143.17 90.19 144.60 88.05 145.89 85.90 C 147.10 82.20 148.09 77.50 146.22 73.80 C 145.96 73.29 145.45 72.25 145.20 71.74 C 145.39 68.24 143.27 63.13 147.38 61.43 C 151.83 59.85 154.91 56.24 158.23 53.06 C 159.83 51.81 159.20 49.59 158.72 47.94 C 161.18 40.84 169.85 43.73 175.16 42.02 C 175.44 41.78 176.00 41.31 176.27 41.07 C 177.84 39.82 177.10 37.57 176.73 35.94 C 178.46 34.06 180.31 31.40 183.60 33.57 Z" />
</g>
<g id="#27291083">
</g>
<g id="#7d7e3af9">
<path fill="#7d7e3a" opacity="0.98" d=" M 202.15 33.25 C 202.62 33.10 203.57 32.80 204.04 32.65 C 205.50 35.23 206.09 39.01 209.96 38.03 C 215.88 35.49 216.09 41.88 218.16 45.05 C 217.61 46.84 217.09 50.12 219.89 50.06 C 220.46 50.18 221.61 50.42 222.19 50.54 C 217.91 49.94 215.88 56.06 212.05 53.86 C 212.55 52.26 213.37 50.79 214.01 49.24 C 211.09 50.38 208.19 48.76 207.65 45.66 C 207.46 41.94 202.92 40.98 200.07 39.78 C 199.75 39.60 199.11 39.22 198.79 39.03 C 199.83 37.06 200.92 35.11 202.15 33.25 Z" />
</g>
<g id="#2f2d19a1">
<path fill="#2f2d19" opacity="0.63" d=" M 176.27 41.07 C 175.82 39.41 175.28 37.27 176.73 35.94 C 177.10 37.57 177.84 39.82 176.27 41.07 Z" />
</g>
<g id="#767c3afd">
<path fill="#767c3a" opacity="1.00" d=" M 192.28 39.58 C 194.60 40.56 197.42 42.12 198.79 39.03 C 199.11 39.22 199.75 39.60 200.07 39.78 C 196.30 46.23 205.59 45.17 207.80 49.36 C 207.84 53.89 207.64 58.42 207.23 62.93 C 209.57 62.45 212.06 60.82 214.20 62.68 C 219.05 60.01 223.74 56.75 228.55 53.92 C 232.16 57.12 228.44 61.00 225.20 62.46 C 223.53 61.70 221.46 61.44 219.99 62.76 C 218.06 63.89 216.13 65.02 214.19 66.13 C 210.56 64.86 206.15 65.71 204.01 69.11 C 199.79 73.94 194.88 78.31 191.74 83.96 C 191.51 77.97 196.89 74.06 197.96 68.73 C 200.08 59.88 196.16 63.22 194.20 67.24 C 192.55 62.76 196.58 52.90 189.20 54.00 C 188.31 58.04 193.35 63.59 187.02 64.27 L 186.19 64.47 C 179.77 61.30 185.81 55.40 187.14 50.98 C 183.67 50.98 180.46 51.99 177.29 53.20 C 177.61 51.61 180.47 46.95 177.12 48.11 C 174.59 48.81 172.66 51.43 173.52 54.10 C 165.37 52.87 177.48 46.36 179.65 44.68 C 184.36 44.92 188.85 42.97 192.28 39.58 M 204.23 52.23 C 202.23 52.90 203.87 54.72 204.18 56.02 C 206.40 55.73 207.14 50.66 204.23 52.23 M 202.29 61.28 C 200.37 67.33 208.73 59.50 202.29 61.28 Z" />
</g>
<g id="#0000001d">
</g>
<g id="#899a57fe">
<path fill="#899a57" opacity="1.00" d=" M 200.07 39.78 C 202.92 40.98 207.46 41.94 207.65 45.66 C 208.19 48.76 211.09 50.38 214.01 49.24 C 213.37 50.79 212.55 52.26 212.05 53.86 C 215.88 56.06 217.91 49.94 222.19 50.54 C 224.77 50.77 227.36 51.34 228.55 53.92 C 223.74 56.75 219.05 60.01 214.20 62.68 C 212.06 60.82 209.57 62.45 207.23 62.93 C 207.64 58.42 207.84 53.89 207.80 49.36 C 205.59 45.17 196.30 46.23 200.07 39.78 Z" />
</g>
<g id="#404b1ca3">
<path fill="#404b1c" opacity="0.64" d=" M 218.16 45.05 C 219.13 46.56 219.53 48.32 219.89 50.06 C 217.09 50.12 217.61 46.84 218.16 45.05 Z" />
</g>
<g id="#29261798">
<path fill="#292617" opacity="0.60" d=" M 158.23 53.06 C 157.71 51.38 157.44 49.37 158.72 47.94 C 159.20 49.59 159.83 51.81 158.23 53.06 Z" />
</g>
<g id="#b2a682ff">
<path fill="#b2a682" opacity="1.00" d=" M 204.23 52.23 C 207.14 50.66 206.40 55.73 204.18 56.02 C 203.87 54.72 202.23 52.90 204.23 52.23 Z" />
</g>
<g id="#8fa156ff">
<path fill="#8fa156" opacity="1.00" d=" M 189.20 54.00 C 196.58 52.90 192.55 62.76 194.20 67.24 C 196.16 63.22 200.08 59.88 197.96 68.73 C 192.60 71.29 187.80 74.84 183.06 78.28 C 186.42 74.14 184.88 68.85 187.02 64.27 C 193.35 63.59 188.31 58.04 189.20 54.00 Z" />
</g>
<g id="#63763bff">
<path fill="#63763b" opacity="1.00" d=" M 165.93 66.18 C 171.94 67.68 177.03 51.73 180.98 61.75 C 175.89 64.87 176.73 73.65 178.03 79.11 C 174.21 79.32 173.38 70.95 170.39 76.54 C 165.08 76.99 169.02 69.15 165.93 66.18 Z" />
</g>
<g id="#b9a687ff">
<path fill="#b9a687" opacity="1.00" d=" M 202.29 61.28 C 208.73 59.50 200.37 67.33 202.29 61.28 Z" />
</g>
<g id="#758a41ff">
<path fill="#758a41" opacity="1.00" d=" M 178.03 79.11 C 176.73 73.65 175.89 64.87 180.98 61.75 C 182.48 62.96 183.93 65.52 186.19 64.47 L 187.02 64.27 C 184.88 68.85 186.42 74.14 183.06 78.28 C 187.80 74.84 192.60 71.29 197.96 68.73 C 196.89 74.06 191.51 77.97 191.74 83.96 C 191.47 86.15 190.54 89.67 188.18 86.83 C 184.96 83.55 190.66 79.46 191.09 75.94 C 187.36 76.72 183.74 81.45 184.70 85.57 C 181.70 85.10 177.59 90.79 176.32 86.59 C 174.64 83.86 170.85 82.96 168.73 85.73 C 163.94 87.19 155.56 83.07 156.60 77.72 C 158.97 79.23 161.38 80.71 163.92 81.97 C 166.46 77.55 163.72 71.95 161.73 67.64 C 163.09 67.05 164.43 66.31 165.93 66.18 C 169.02 69.15 165.08 76.99 170.39 76.54 C 173.38 70.95 174.21 79.32 178.03 79.11 Z" />
</g>
<g id="#2c331bad">
<path fill="#2c331b" opacity="0.68" d=" M 219.99 62.76 C 221.46 61.44 223.53 61.70 225.20 62.46 C 224.94 62.66 224.44 63.07 224.19 63.27 C 222.77 63.27 221.37 63.10 219.99 62.76 Z" />
</g>
<g id="#01010016">
</g>
<g id="#45551ee9">
<path fill="#45551e" opacity="0.91" d=" M 204.01 69.11 C 206.15 65.71 210.56 64.86 214.19 66.13 C 211.21 68.22 207.61 69.08 204.01 69.11 Z" />
</g>
<g id="#465127ff">
<path fill="#465127" opacity="1.00" d=" M 155.69 72.06 C 152.83 69.15 158.87 65.87 161.73 67.64 C 163.72 71.95 166.46 77.55 163.92 81.97 C 161.38 80.71 158.97 79.23 156.60 77.72 C 156.82 75.57 159.37 72.01 155.69 72.06 Z" />
</g>
<g id="#00000023">
</g>
<g id="#333b20b6">
<path fill="#333b20" opacity="0.71" d=" M 146.22 73.80 C 148.09 77.50 147.10 82.20 145.89 85.90 C 146.06 81.87 146.17 77.83 146.22 73.80 Z" />
</g>
<g id="#6d712ffb">
<path fill="#6d712f" opacity="1.00" d=" M 184.70 85.57 C 183.74 81.45 187.36 76.72 191.09 75.94 C 190.66 79.46 184.96 83.55 188.18 86.83 C 190.54 89.67 191.47 86.15 191.74 83.96 C 190.99 93.25 200.57 100.90 209.32 100.76 C 216.78 104.03 219.33 114.40 215.09 121.25 C 215.06 120.40 215.00 118.72 214.97 117.87 C 214.86 115.20 214.39 112.55 213.98 109.91 C 213.51 107.70 212.10 105.84 210.73 104.10 C 206.46 104.61 202.85 107.66 199.03 109.53 C 196.80 107.47 194.36 109.70 191.95 110.20 C 193.07 107.58 194.96 105.65 197.96 105.60 C 194.83 97.15 183.42 103.17 178.10 97.00 C 180.92 92.84 172.55 88.20 175.89 95.01 C 164.32 100.00 174.88 86.44 168.73 85.73 C 170.85 82.96 174.64 83.86 176.32 86.59 C 177.59 90.79 181.70 85.10 184.70 85.57 Z" />
</g>
<g id="#2d301994">
</g>
<g id="#7c7f41ff">
<path fill="#7c7f41" opacity="1.00" d=" M 161.61 96.52 C 165.32 94.84 166.29 99.54 167.11 102.08 C 168.81 101.39 169.94 100.02 170.47 98.28 C 173.19 100.14 175.70 98.60 178.10 97.00 C 183.42 103.17 194.83 97.15 197.96 105.60 C 194.96 105.65 193.07 107.58 191.95 110.20 C 194.36 109.70 196.80 107.47 199.03 109.53 C 202.85 107.66 206.46 104.61 210.73 104.10 C 212.10 105.84 213.51 107.70 213.98 109.91 C 211.66 108.93 209.04 108.27 210.26 111.77 C 206.62 111.73 202.98 111.70 199.35 111.97 C 198.00 109.22 194.10 111.90 197.19 113.57 C 193.93 116.61 191.52 108.86 188.37 114.66 C 187.15 110.08 182.74 106.56 178.17 104.95 C 173.68 110.30 181.83 114.69 179.83 120.35 C 177.80 120.18 175.04 118.30 173.94 120.96 C 173.51 121.06 172.64 121.27 172.20 121.37 C 176.08 113.83 165.85 119.15 172.20 121.37 C 165.59 125.21 165.84 117.46 164.42 113.64 C 161.33 107.70 176.91 112.00 171.99 106.27 C 167.58 109.53 155.85 104.31 157.60 111.25 C 154.86 110.66 148.06 107.40 152.82 104.91 C 157.72 104.07 156.69 97.29 161.61 96.52 Z" />
</g>
<g id="#8e985aff">
<path fill="#8e985a" opacity="1.00" d=" M 178.17 104.95 C 182.74 106.56 187.15 110.08 188.37 114.66 C 191.52 108.86 193.93 116.61 197.19 113.57 C 197.73 113.17 198.81 112.37 199.35 111.97 C 202.98 111.70 206.62 111.73 210.26 111.77 C 212.38 113.90 206.85 117.12 210.87 117.04 C 213.71 116.90 212.88 121.97 214.97 117.87 C 215.00 118.72 215.06 120.40 215.09 121.25 L 214.74 122.03 C 212.95 124.47 212.92 126.49 214.64 128.09 C 216.19 129.66 217.88 131.13 219.19 132.93 C 219.63 138.09 217.42 134.46 215.72 132.26 C 212.32 133.89 208.26 135.60 204.74 133.32 C 204.57 131.28 207.31 127.58 203.36 128.47 C 196.85 130.46 193.74 122.55 193.52 117.40 C 192.63 114.22 189.79 117.13 188.60 118.53 C 186.16 118.30 183.51 117.66 182.59 120.62 C 181.65 120.73 180.73 120.64 179.83 120.35 C 181.83 114.69 173.68 110.30 178.17 104.95 Z" />
</g>
<g id="#b2a082ff">
<path fill="#b2a082" opacity="1.00" d=" M 210.26 111.77 C 209.04 108.27 211.66 108.93 213.98 109.91 C 214.39 112.55 214.86 115.20 214.97 117.87 C 212.88 121.97 213.71 116.90 210.87 117.04 C 206.85 117.12 212.38 113.90 210.26 111.77 Z" />
</g>
<g id="#7a6932ff">
<path fill="#7a6932" opacity="1.00" d=" M 197.19 113.57 C 194.10 111.90 198.00 109.22 199.35 111.97 C 198.81 112.37 197.73 113.17 197.19 113.57 Z" />
</g>
<g id="#0000002e">
</g>
<g id="#7a8040ff">
<path fill="#7a8040" opacity="1.00" d=" M 188.60 118.53 C 189.79 117.13 192.63 114.22 193.52 117.40 C 193.74 122.55 196.85 130.46 203.36 128.47 C 207.31 127.58 204.57 131.28 204.74 133.32 C 202.60 133.74 199.76 132.28 198.23 134.25 C 198.00 137.92 199.90 142.17 202.85 144.14 C 200.44 138.49 206.67 136.61 209.20 141.48 C 204.68 142.67 205.75 146.22 210.28 145.37 C 208.62 146.82 205.78 146.66 204.80 148.81 C 203.42 144.79 199.82 144.28 195.84 146.11 C 196.34 150.11 200.31 151.82 202.23 154.94 C 198.35 153.34 194.19 152.81 189.99 153.06 C 189.88 156.78 197.77 157.59 194.50 162.65 C 199.86 165.28 195.05 171.56 191.39 166.68 C 192.89 163.58 190.79 157.83 189.06 162.89 C 181.63 162.06 186.30 150.76 188.15 145.95 C 185.95 146.84 183.17 148.92 183.22 145.09 C 182.99 143.57 190.68 143.55 187.00 141.14 C 181.81 141.16 189.54 135.40 184.96 135.05 C 180.68 135.56 181.96 143.68 176.89 144.12 C 177.03 140.11 180.60 137.19 180.63 133.14 C 177.39 129.85 184.03 127.54 182.46 123.55 C 186.05 122.58 187.45 118.92 182.59 120.62 C 183.51 117.66 186.16 118.30 188.60 118.53 Z" />
</g>
<g id="#d5c9b5ff">
<path fill="#d5c9b5" opacity="1.00" d=" M 172.20 121.37 C 176.08 113.83 165.85 119.15 172.20 121.37 Z" />
</g>
<g id="#60683bff">
<path fill="#60683b" opacity="1.00" d=" M 173.94 120.96 C 175.04 118.30 177.80 120.18 179.83 120.35 C 180.73 120.64 181.65 120.73 182.59 120.62 C 187.45 118.92 186.05 122.58 182.46 123.55 C 184.03 127.54 177.39 129.85 180.63 133.14 C 180.60 137.19 177.03 140.11 176.89 144.12 C 181.96 143.68 180.68 135.56 184.96 135.05 C 189.54 135.40 181.81 141.16 187.00 141.14 C 190.68 143.55 182.99 143.57 183.22 145.09 C 183.17 148.92 185.95 146.84 188.15 145.95 C 186.30 150.76 181.63 162.06 189.06 162.89 C 190.98 167.78 187.02 171.73 185.84 176.05 C 188.15 173.66 190.75 174.91 191.94 177.66 C 191.54 178.63 191.29 179.63 191.19 180.67 C 191.22 181.23 191.28 182.33 191.31 182.89 C 190.74 185.63 190.84 188.92 187.02 188.35 C 186.11 190.97 191.15 191.49 188.88 193.76 C 184.34 194.48 186.89 198.42 188.05 201.10 C 185.64 201.17 183.55 199.97 181.37 199.16 C 180.39 201.27 179.70 203.70 177.40 204.75 C 174.95 210.57 182.18 212.60 184.12 217.09 C 180.94 219.14 177.45 211.47 176.92 215.75 C 176.65 216.04 176.12 216.61 175.86 216.90 C 174.10 218.04 173.94 220.10 173.88 222.01 C 170.39 218.72 163.89 223.37 167.91 215.07 C 170.22 215.25 171.66 214.45 170.99 211.96 C 166.56 211.76 162.81 214.71 158.49 215.22 C 159.27 217.92 159.40 226.55 154.70 223.29 C 151.10 220.34 157.13 218.24 155.19 214.98 C 154.34 211.75 154.58 207.49 151.05 205.92 C 148.00 203.54 143.29 208.01 141.25 203.78 C 142.22 201.75 142.00 192.98 144.41 197.62 C 146.96 203.70 150.34 194.05 145.99 193.26 C 142.31 194.80 138.95 188.70 143.55 187.48 C 146.02 184.07 150.04 190.64 151.47 185.60 C 152.46 178.95 161.84 170.40 167.87 175.09 C 169.33 181.60 181.52 175.64 176.17 171.77 C 171.98 171.09 177.93 166.62 173.88 164.84 C 169.56 161.22 163.56 157.08 164.46 150.59 C 168.01 145.80 159.26 140.78 159.18 147.17 C 159.44 150.30 153.73 148.99 155.25 146.33 C 161.21 141.68 165.09 134.22 172.51 131.62 C 169.90 127.52 174.39 125.04 173.94 120.96 M 185.34 178.33 C 183.48 179.45 181.56 180.77 180.98 183.00 C 181.70 186.05 186.20 186.12 188.27 185.25 C 191.69 182.83 188.46 177.88 185.34 178.33 Z" />
</g>
<g id="#4f5c2dbb">
<path fill="#4f5c2d" opacity="0.73" d=" M 214.64 128.09 C 212.92 126.49 212.95 124.47 214.74 122.03 C 215.50 123.98 215.65 126.19 214.64 128.09 Z" />
</g>
<g id="#7d6d2bfe">
<path fill="#7d6d2b" opacity="1.00" d=" M 204.74 133.32 C 208.26 135.60 212.32 133.89 215.72 132.26 C 217.42 134.46 219.63 138.09 219.19 132.93 C 219.98 134.12 220.61 135.41 221.26 136.69 C 216.22 139.73 216.44 133.66 211.97 136.22 C 214.07 139.86 215.54 143.80 216.66 147.85 C 214.34 150.86 209.58 155.59 206.02 150.91 C 205.72 150.39 205.11 149.34 204.80 148.81 C 205.78 146.66 208.62 146.82 210.28 145.37 C 211.84 144.58 209.48 142.64 209.20 141.48 C 206.67 136.61 200.44 138.49 202.85 144.14 C 199.90 142.17 198.00 137.92 198.23 134.25 C 199.76 132.28 202.60 133.74 204.74 133.32 Z" />
</g>
<g id="#818949fe">
<path fill="#818949" opacity="1.00" d=" M 211.97 136.22 C 216.44 133.66 216.22 139.73 221.26 136.69 C 226.78 141.39 230.67 147.68 232.40 154.73 C 231.94 157.56 233.52 162.09 229.86 162.62 C 227.51 161.75 223.84 158.06 223.50 162.63 C 219.16 163.98 214.56 163.98 210.07 164.38 C 206.02 172.05 206.56 185.40 216.37 189.56 C 221.08 190.80 224.68 195.69 229.90 194.22 C 232.75 194.06 233.25 197.06 233.68 199.23 C 231.98 204.58 235.72 206.95 239.48 208.99 C 237.78 210.42 235.71 211.22 233.69 212.06 C 231.03 210.98 228.25 210.17 225.37 210.09 C 224.54 212.36 223.80 214.67 223.51 217.08 C 220.44 215.40 217.84 212.25 213.96 212.92 C 213.20 215.71 217.71 214.23 216.92 216.85 C 215.64 217.52 214.27 218.00 212.94 218.55 C 216.08 219.44 218.53 222.15 213.79 222.84 C 207.96 224.46 206.66 231.86 210.64 236.06 C 209.82 237.45 207.04 238.68 208.69 240.40 C 211.14 243.42 205.82 244.74 204.09 246.43 C 206.41 247.26 207.35 249.95 209.93 250.25 C 211.11 258.89 198.32 256.22 194.77 252.16 C 198.73 253.78 201.19 253.10 198.34 249.05 C 203.05 247.01 206.82 237.92 200.30 237.03 C 203.45 246.87 192.57 242.05 192.47 249.17 C 188.94 244.58 182.50 241.98 180.72 236.28 C 182.46 232.47 187.24 228.70 184.02 224.40 C 186.10 224.24 185.50 222.38 185.48 220.93 C 187.24 220.54 192.03 223.46 190.84 220.20 C 187.96 213.86 179.49 222.43 176.92 215.75 C 177.45 211.47 180.94 219.14 184.12 217.09 C 182.18 212.60 174.95 210.57 177.40 204.75 C 179.70 203.70 180.39 201.27 181.37 199.16 C 183.55 199.97 185.64 201.17 188.05 201.10 C 186.89 198.42 184.34 194.48 188.88 193.76 C 186.16 198.72 194.64 196.57 196.23 200.71 C 192.38 202.03 181.83 199.92 184.98 208.04 C 190.48 208.81 195.61 206.18 200.06 203.30 C 202.06 204.18 205.01 209.10 205.99 205.10 C 202.01 202.61 199.58 198.60 197.59 194.33 C 194.67 194.06 191.80 193.92 188.88 193.76 C 191.15 191.49 186.11 190.97 187.02 188.35 C 190.84 188.92 190.74 185.63 191.31 182.89 C 191.44 187.19 194.62 190.03 197.11 193.15 C 196.63 189.41 195.01 181.66 191.19 180.67 C 191.29 179.63 191.54 178.63 191.94 177.66 C 193.68 178.18 200.13 179.55 196.22 181.44 C 198.16 185.08 202.33 179.72 204.84 178.66 C 205.34 174.44 195.00 171.25 200.75 166.71 C 198.47 177.51 203.79 170.37 203.59 167.22 C 202.59 164.92 200.54 163.07 200.17 160.53 C 204.86 159.55 205.91 155.01 206.02 150.91 C 209.58 155.59 214.34 150.86 216.66 147.85 C 215.54 143.80 214.07 139.86 211.97 136.22 M 223.08 152.07 C 221.87 154.82 220.76 157.62 219.02 160.09 C 220.95 160.10 222.90 159.83 224.63 158.91 C 222.61 155.50 228.73 153.09 223.08 152.07 M 201.86 161.00 C 202.81 162.74 205.17 165.50 206.83 162.85 C 206.95 160.44 203.46 161.06 201.86 161.00 M 213.17 194.32 C 210.62 194.84 208.39 198.07 211.25 199.77 C 214.33 199.30 224.28 201.30 219.07 205.16 C 216.77 208.58 223.33 208.76 222.63 207.33 C 215.17 203.32 233.73 199.68 224.88 196.00 C 220.78 198.02 214.00 198.14 213.17 194.32 M 228.16 195.16 C 227.16 199.80 232.80 194.16 228.16 195.16 M 189.20 230.33 C 182.53 233.34 189.53 240.54 192.02 244.16 C 191.22 239.85 191.41 232.59 189.20 230.33 Z" />
</g>
<g id="#00000040">
</g>
<g id="#c3b298ff">
<path fill="#c3b298" opacity="1.00" d=" M 210.28 145.37 C 205.75 146.22 204.68 142.67 209.20 141.48 C 209.48 142.64 211.84 144.58 210.28 145.37 Z" />
</g>
<g id="#00000053">
</g>
<g id="#93a15cff">
<path fill="#93a15c" opacity="1.00" d=" M 195.84 146.11 C 199.82 144.28 203.42 144.79 204.80 148.81 C 205.11 149.34 205.72 150.39 206.02 150.91 C 205.91 155.01 204.86 159.55 200.17 160.53 C 200.54 163.07 202.59 164.92 203.59 167.22 C 203.79 170.37 198.47 177.51 200.75 166.71 C 195.00 171.25 205.34 174.44 204.84 178.66 C 202.33 179.72 198.16 185.08 196.22 181.44 C 200.13 179.55 193.68 178.18 191.94 177.66 C 190.75 174.91 188.15 173.66 185.84 176.05 C 187.02 171.73 190.98 167.78 189.06 162.89 C 190.79 157.83 192.89 163.58 191.39 166.68 C 195.05 171.56 199.86 165.28 194.50 162.65 C 197.77 157.59 189.88 156.78 189.99 153.06 C 194.19 152.81 198.35 153.34 202.23 154.94 C 200.31 151.82 196.34 150.11 195.84 146.11 Z" />
</g>
<g id="#645b28ff">
<path fill="#645b28" opacity="1.00" d=" M 223.08 152.07 C 228.73 153.09 222.61 155.50 224.63 158.91 C 222.90 159.83 220.95 160.10 219.02 160.09 C 220.76 157.62 221.87 154.82 223.08 152.07 Z" />
</g>
<g id="#00000066">
</g>
<g id="#58662dfc">
<path fill="#58662d" opacity="1.00" d=" M 232.40 154.73 C 233.21 157.73 232.85 160.85 233.08 163.92 C 235.02 166.58 241.57 164.16 245.25 164.91 C 245.70 164.98 246.59 165.12 247.03 165.20 C 249.48 166.87 251.81 167.01 254.02 165.62 C 258.63 168.30 263.95 169.98 267.99 173.54 C 265.61 176.59 265.15 182.23 264.76 186.39 C 263.21 187.62 261.66 188.87 259.89 189.77 C 259.93 187.77 259.89 185.77 259.87 183.78 C 261.46 181.70 265.32 179.05 263.09 176.27 C 261.17 172.61 258.03 168.94 253.49 170.54 C 252.09 164.14 241.68 166.43 240.86 172.30 C 239.29 166.65 233.38 170.25 229.28 167.04 C 228.62 170.42 227.18 173.45 223.66 170.63 C 219.62 172.32 215.69 182.17 222.26 183.68 C 225.54 184.85 226.63 177.11 228.91 180.83 C 231.00 182.72 232.83 184.86 234.71 186.96 C 235.75 183.88 236.59 179.65 240.66 182.02 C 240.75 184.80 241.76 188.59 244.94 185.91 C 247.95 187.38 251.00 187.30 254.00 185.90 C 254.49 187.98 251.66 192.16 255.04 192.26 C 254.56 192.58 253.60 193.21 253.12 193.52 C 251.65 192.26 249.47 192.23 247.90 193.32 C 242.62 192.97 232.01 190.64 233.68 199.23 C 233.25 197.06 232.75 194.06 229.90 194.22 C 224.68 195.69 221.08 190.80 216.37 189.56 C 206.56 185.40 206.02 172.05 210.07 164.38 C 214.56 163.98 219.16 163.98 223.50 162.63 C 223.84 158.06 227.51 161.75 229.86 162.62 C 233.52 162.09 231.94 157.56 232.40 154.73 Z" />
</g>
<g id="#535e31fc">
<path fill="#535e31" opacity="1.00" d=" M 295.96 159.98 C 303.93 164.95 306.45 153.98 313.89 155.93 C 314.14 156.40 314.65 157.35 314.91 157.82 C 307.64 159.20 307.91 168.62 302.40 172.36 C 300.66 177.45 308.94 176.80 307.28 181.11 C 315.65 180.60 309.24 170.08 316.88 168.69 C 311.84 172.96 317.86 177.56 313.77 181.86 C 309.57 184.35 313.44 190.02 317.22 186.86 C 321.88 190.30 305.62 191.31 312.66 197.09 C 313.59 198.25 314.46 199.47 315.17 200.79 C 313.61 203.16 313.99 204.68 317.12 204.36 C 314.14 206.01 308.91 202.24 307.04 205.95 C 306.58 205.96 305.67 205.98 305.22 205.99 C 304.52 204.28 303.78 202.60 303.11 200.89 C 305.12 201.54 308.51 204.72 309.00 200.93 C 309.47 197.44 298.47 193.32 305.99 192.88 C 307.93 191.32 305.64 185.98 302.50 185.35 C 300.80 180.83 301.75 172.44 293.36 177.19 C 292.56 175.66 292.51 174.04 293.44 172.55 C 294.72 170.32 289.06 167.14 292.98 166.52 L 293.86 166.60 C 298.76 167.70 300.07 162.31 295.96 159.98 Z" />
</g>
<g id="#0000000e">
</g>
<g id="#00000045">
</g>
<g id="#1e240f8b">
</g>
<g id="#7d8c4dfb">
<path fill="#7d8c4d" opacity="1.00" d=" M 302.40 172.36 C 307.91 168.62 307.64 159.20 314.91 157.82 C 318.40 161.35 319.67 166.34 323.16 169.86 C 325.89 172.55 320.72 175.98 323.17 178.82 C 325.36 181.75 319.98 185.22 323.32 187.71 C 325.49 189.14 323.83 191.24 323.05 192.98 C 321.43 194.25 321.34 196.43 321.94 198.25 C 319.55 198.69 317.34 199.75 315.17 200.79 C 314.46 199.47 313.59 198.25 312.66 197.09 C 316.74 199.00 321.04 195.37 320.07 191.03 C 314.94 188.72 314.11 194.07 312.66 197.09 C 305.62 191.31 321.88 190.30 317.22 186.86 C 318.19 182.50 318.90 178.52 313.77 181.86 C 317.86 177.56 311.84 172.96 316.88 168.69 C 309.24 170.08 315.65 180.60 307.28 181.11 C 308.94 176.80 300.66 177.45 302.40 172.36 M 308.18 169.07 C 306.15 171.19 303.61 178.57 308.69 176.76 C 312.99 177.90 312.47 168.11 308.18 169.07 Z" />
</g>
<g id="#3f4c21f7">
<path fill="#3f4c21" opacity="0.97" d=" M 272.77 171.71 C 275.94 167.07 278.63 161.37 283.88 158.82 L 284.84 158.79 C 280.95 161.88 286.78 169.55 280.77 169.55 C 277.27 169.31 278.29 172.47 278.60 174.84 C 277.95 180.72 275.27 185.91 268.89 186.69 C 269.34 185.17 269.74 183.61 269.60 182.01 C 269.73 179.98 269.57 177.94 269.25 175.94 C 271.79 178.23 271.52 173.11 272.77 171.71 Z" />
</g>
<g id="#61743dfe">
<path fill="#61743d" opacity="1.00" d=" M 284.84 158.79 C 286.70 158.75 290.44 158.67 292.31 158.63 C 293.54 159.04 294.75 159.50 295.96 159.98 C 300.07 162.31 298.76 167.70 293.86 166.60 C 299.67 164.86 291.94 156.92 287.95 160.02 C 282.60 160.00 290.33 166.33 292.98 166.52 C 289.06 167.14 294.72 170.32 293.44 172.55 C 292.51 174.04 292.56 175.66 293.36 177.19 L 293.69 178.21 C 291.36 177.70 289.43 176.30 287.42 175.11 C 287.02 179.00 278.01 180.26 278.60 174.84 C 278.29 172.47 277.27 169.31 280.77 169.55 C 286.78 169.55 280.95 161.88 284.84 158.79 Z" />
</g>
<g id="#4b5029fd">
<path fill="#4b5029" opacity="1.00" d=" M 140.16 160.03 C 142.91 163.39 147.71 163.59 151.26 161.38 C 157.53 160.97 163.04 164.78 168.16 167.91 C 171.31 169.10 170.74 164.24 173.88 164.84 C 177.93 166.62 171.98 171.09 176.17 171.77 C 181.52 175.64 169.33 181.60 167.87 175.09 C 161.84 170.40 152.46 178.95 151.47 185.60 C 150.04 190.64 146.02 184.07 143.55 187.48 C 138.95 188.70 142.31 194.80 145.99 193.26 C 150.34 194.05 146.96 203.70 144.41 197.62 C 142.00 192.98 142.22 201.75 141.25 203.78 C 143.29 208.01 148.00 203.54 151.05 205.92 C 154.58 207.49 154.34 211.75 155.19 214.98 C 157.13 218.24 151.10 220.34 154.70 223.29 C 159.40 226.55 159.27 217.92 158.49 215.22 C 162.81 214.71 166.56 211.76 170.99 211.96 C 171.66 214.45 170.22 215.25 167.91 215.07 C 162.57 218.29 163.81 229.11 169.92 232.10 C 171.55 234.94 176.32 234.82 177.11 238.11 C 169.95 237.52 159.27 231.09 156.01 241.08 C 158.47 246.85 160.38 253.45 166.00 256.98 C 168.71 258.51 170.17 261.23 171.01 264.12 C 167.08 262.58 163.15 260.89 160.02 258.00 C 157.59 254.20 155.98 249.96 154.22 245.83 C 153.89 244.52 153.55 243.21 153.22 241.90 C 153.18 240.69 152.80 239.68 152.07 238.89 C 151.13 238.16 150.13 237.52 149.14 236.88 C 139.14 232.06 139.10 220.70 135.47 211.94 C 134.74 210.95 134.00 209.99 133.27 209.01 C 132.06 206.99 131.03 204.87 130.04 202.74 C 130.27 196.43 128.51 189.23 133.24 184.14 C 138.09 180.75 132.64 177.26 131.17 173.86 C 130.78 172.94 130.38 172.01 129.99 171.09 C 129.94 169.39 129.89 167.70 129.82 166.01 C 134.12 164.24 142.38 168.70 140.16 160.03 Z" />
</g>
<g id="#849652ff">
<path fill="#849652" opacity="1.00" d=" M 292.98 166.52 C 290.33 166.33 282.60 160.00 287.95 160.02 C 291.94 156.92 299.67 164.86 293.86 166.60 L 292.98 166.52 Z" />
</g>
<g id="#baac8fff">
<path fill="#baac8f" opacity="1.00" d=" M 201.86 161.00 C 203.46 161.06 206.95 160.44 206.83 162.85 C 205.17 165.50 202.81 162.74 201.86 161.00 Z" />
</g>
<g id="#303718ac">
<path fill="#303718" opacity="0.67" d=" M 233.08 163.92 C 237.15 164.04 241.23 164.11 245.25 164.91 C 241.57 164.16 235.02 166.58 233.08 163.92 Z" />
</g>
<g id="#00000038">
</g>
<g id="#1e240e8a">
</g>
<g id="#687b43ff">
<path fill="#687b43" opacity="1.00" d=" M 229.28 167.04 C 233.38 170.25 239.29 166.65 240.86 172.30 C 240.88 176.44 238.29 176.68 238.92 172.19 C 236.43 174.91 234.07 172.73 231.36 172.14 C 230.23 174.93 229.11 177.79 228.91 180.83 C 226.63 177.11 225.54 184.85 222.26 183.68 C 215.69 182.17 219.62 172.32 223.66 170.63 C 227.18 173.45 228.62 170.42 229.28 167.04 Z" />
</g>
<g id="#7e9049ff">
<path fill="#7e9049" opacity="1.00" d=" M 240.86 172.30 C 241.68 166.43 252.09 164.14 253.49 170.54 C 258.03 168.94 261.17 172.61 263.09 176.27 C 259.90 176.87 258.86 172.45 255.92 172.01 C 251.80 172.98 246.98 174.23 243.23 171.99 C 243.34 175.57 241.88 178.78 240.66 182.02 C 236.59 179.65 235.75 183.88 234.71 186.96 C 232.83 184.86 231.00 182.72 228.91 180.83 C 229.11 177.79 230.23 174.93 231.36 172.14 C 234.07 172.73 236.43 174.91 238.92 172.19 C 238.29 176.68 240.88 176.44 240.86 172.30 Z" />
</g>
<g id="#b2ad5bff">
<path fill="#b2ad5b" opacity="1.00" d=" M 308.18 169.07 C 312.47 168.11 312.99 177.90 308.69 176.76 C 303.61 178.57 306.15 171.19 308.18 169.07 Z" />
</g>
<g id="#98aa65ff">
<path fill="#98aa65" opacity="1.00" d=" M 243.23 171.99 C 246.98 174.23 251.80 172.98 255.92 172.01 C 258.86 172.45 259.90 176.87 263.09 176.27 C 265.32 179.05 261.46 181.70 259.87 183.78 C 258.01 184.81 255.24 186.73 255.33 183.26 C 254.62 176.87 251.35 188.18 249.67 183.36 C 248.57 178.63 244.47 182.84 244.94 185.91 C 241.76 188.59 240.75 184.80 240.66 182.02 C 241.88 178.78 243.34 175.57 243.23 171.99 Z" />
</g>
<g id="#0000002d">
</g>
<g id="#7f8a46f5">
<path fill="#7f8a46" opacity="0.96" d=" M 264.76 186.39 C 265.15 182.23 265.61 176.59 267.99 173.54 C 268.31 174.14 268.94 175.34 269.25 175.94 C 269.57 177.94 269.73 179.98 269.60 182.01 C 268.66 182.89 267.73 183.78 266.88 184.75 C 266.35 185.16 265.29 185.98 264.76 186.39 Z" />
</g>
<g id="#536032ff">
<path fill="#536032" opacity="1.00" d=" M 268.89 186.69 C 275.27 185.91 277.95 180.72 278.60 174.84 C 278.01 180.26 287.02 179.00 287.42 175.11 C 289.43 176.30 291.36 177.70 293.69 178.21 C 295.51 180.83 297.53 183.35 299.06 186.17 C 294.83 184.83 291.16 177.63 286.74 183.91 C 285.49 181.67 284.10 178.96 281.00 179.98 C 278.05 187.74 286.61 190.00 290.00 195.03 C 285.92 197.08 284.85 191.83 281.19 191.73 C 276.92 188.97 278.81 197.09 273.57 193.75 C 273.36 190.28 270.09 190.91 267.73 191.79 C 267.80 190.42 267.85 189.05 267.90 187.68 L 268.33 186.91 L 268.89 186.69 Z" />
</g>
<g id="#80884dff">
<path fill="#80884d" opacity="1.00" d=" M 293.36 177.19 C 301.75 172.44 300.80 180.83 302.50 185.35 C 305.64 185.98 307.93 191.32 305.99 192.88 C 298.47 193.32 309.47 197.44 309.00 200.93 C 308.51 204.72 305.12 201.54 303.11 200.89 C 303.78 202.60 304.52 204.28 305.22 205.99 C 303.86 206.51 302.50 207.04 301.15 207.58 C 296.60 204.18 293.18 198.92 291.97 193.32 C 294.87 193.40 293.44 191.72 292.36 190.30 C 293.90 188.74 295.67 190.08 297.30 190.76 C 296.96 187.69 289.64 182.55 288.88 186.91 C 288.15 185.92 287.41 184.94 286.74 183.91 C 291.16 177.63 294.83 184.83 299.06 186.17 C 297.53 183.35 295.51 180.83 293.69 178.21 L 293.36 177.19 Z" />
</g>
<g id="#7c8851ff">
<path fill="#7c8851" opacity="1.00" d=" M 185.34 178.33 C 188.46 177.88 191.69 182.83 188.27 185.25 C 186.20 186.12 181.70 186.05 180.98 183.00 C 181.56 180.77 183.48 179.45 185.34 178.33 Z" />
</g>
<g id="#9ca965ff">
<path fill="#9ca965" opacity="1.00" d=" M 191.19 180.67 C 195.01 181.66 196.63 189.41 197.11 193.15 C 194.62 190.03 191.44 187.19 191.31 182.89 C 191.28 182.33 191.22 181.23 191.19 180.67 Z" />
</g>
<g id="#49481dfc">
<path fill="#49481d" opacity="1.00" d=" M 281.00 179.98 C 284.10 178.96 285.49 181.67 286.74 183.91 C 287.41 184.94 288.15 185.92 288.88 186.91 C 290.07 188.97 290.99 191.16 291.97 193.32 C 293.18 198.92 296.60 204.18 301.15 207.58 C 298.81 208.77 296.41 209.85 294.14 211.17 C 290.51 206.42 294.16 199.36 290.00 195.03 C 286.61 190.00 278.05 187.74 281.00 179.98 Z" />
</g>
<g id="#aca756ff">
<path fill="#aca756" opacity="1.00" d=" M 313.77 181.86 C 318.90 178.52 318.19 182.50 317.22 186.86 C 313.44 190.02 309.57 184.35 313.77 181.86 Z" />
</g>
<g id="#748237fd">
<path fill="#748237" opacity="1.00" d=" M 244.94 185.91 C 244.47 182.84 248.57 178.63 249.67 183.36 C 251.35 188.18 254.62 176.87 255.33 183.26 C 255.24 186.73 258.01 184.81 259.87 183.78 C 259.89 185.77 259.93 187.77 259.89 189.77 C 258.27 190.59 256.63 191.38 255.04 192.26 C 251.66 192.16 254.49 187.98 254.00 185.90 C 251.00 187.30 247.95 187.38 244.94 185.91 Z" />
</g>
<g id="#20241184">
</g>
<g id="#03030126">
</g>
<g id="#a9986fff">
<path fill="#a9986f" opacity="1.00" d=" M 288.88 186.91 C 289.64 182.55 296.96 187.69 297.30 190.76 C 295.67 190.08 293.90 188.74 292.36 190.30 C 293.44 191.72 294.87 193.40 291.97 193.32 C 290.99 191.16 290.07 188.97 288.88 186.91 Z" />
</g>
<g id="#3e481ffb">
<path fill="#3e481f" opacity="1.00" d=" M 247.95 208.99 C 250.81 199.15 261.02 194.41 267.90 187.68 C 267.85 189.05 267.80 190.42 267.73 191.79 C 268.48 198.06 263.03 202.57 265.93 209.01 C 260.10 206.42 257.17 210.88 258.37 216.92 C 256.26 219.34 253.58 219.03 251.12 217.41 C 248.50 220.00 247.90 225.00 244.18 226.21 C 244.96 220.58 244.24 214.70 241.22 209.81 C 243.51 210.16 247.21 212.48 247.95 208.99 Z" />
</g>
<g id="#6c703bff">
<path fill="#6c703b" opacity="1.00" d=" M 267.73 191.79 C 270.09 190.91 273.36 190.28 273.57 193.75 C 278.81 197.09 276.92 188.97 281.19 191.73 C 282.97 195.56 278.47 197.09 276.03 198.94 C 274.12 197.69 272.42 196.00 270.04 195.76 C 271.11 197.55 275.60 202.81 270.86 201.28 C 265.49 199.15 267.78 207.13 270.23 209.27 C 268.52 210.70 266.17 212.06 266.06 214.56 C 269.57 214.41 268.91 217.91 267.98 220.14 C 263.40 213.18 260.36 223.50 260.31 227.83 C 259.60 229.88 258.72 228.26 258.32 226.96 C 259.93 223.62 258.97 220.27 258.37 216.92 C 257.17 210.88 260.10 206.42 265.93 209.01 C 263.03 202.57 268.48 198.06 267.73 191.79 Z" />
</g>
<g id="#aaa865ff">
<path fill="#aaa865" opacity="1.00" d=" M 312.66 197.09 C 314.11 194.07 314.94 188.72 320.07 191.03 C 321.04 195.37 316.74 199.00 312.66 197.09 Z" />
</g>
<g id="#848b50ff">
<path fill="#848b50" opacity="1.00" d=" M 281.19 191.73 C 284.85 191.83 285.92 197.08 290.00 195.03 C 294.16 199.36 290.51 206.42 294.14 211.17 C 293.92 212.20 293.56 213.17 293.04 214.07 C 292.14 214.27 291.25 214.48 290.36 214.69 C 287.42 211.90 284.08 218.22 287.84 218.08 C 283.05 216.13 273.41 231.35 281.03 226.15 C 281.07 226.90 281.15 228.40 281.20 229.15 C 279.54 232.41 276.70 234.81 274.11 237.31 C 271.42 233.47 263.99 238.72 267.03 232.07 C 260.97 231.70 265.34 241.06 259.27 240.06 C 261.19 235.63 255.44 236.41 252.84 235.06 C 253.14 237.94 257.04 237.34 258.38 239.54 C 256.20 239.36 254.03 239.17 251.86 239.08 C 245.61 240.35 246.76 233.86 249.29 230.54 C 250.20 230.64 254.61 229.75 252.12 229.22 C 247.16 230.20 253.43 220.87 254.13 225.70 C 254.77 227.08 257.08 226.14 258.32 226.96 C 258.72 228.26 259.60 229.88 260.31 227.83 C 260.36 223.50 263.40 213.18 267.98 220.14 C 264.84 224.04 260.79 227.46 260.81 233.01 C 266.96 228.66 275.51 224.56 275.05 215.92 C 277.05 217.17 278.64 218.96 280.64 220.20 C 281.97 214.83 278.90 210.91 277.28 206.15 C 274.53 206.02 272.41 207.89 270.23 209.27 C 267.78 207.13 265.49 199.15 270.86 201.28 C 275.60 202.81 271.11 197.55 270.04 195.76 C 272.42 196.00 274.12 197.69 276.03 198.94 C 278.47 197.09 282.97 195.56 281.19 191.73 M 270.18 202.15 C 267.85 203.53 269.01 207.58 271.89 207.05 C 271.49 205.57 272.25 202.20 270.18 202.15 Z" />
</g>
<g id="#282f11a3">
<path fill="#282f11" opacity="0.64" d=" M 247.90 193.32 C 249.47 192.23 251.65 192.26 253.12 193.52 C 251.81 193.47 249.21 193.37 247.90 193.32 Z" />
</g>
<g id="#282b1272">
</g>
<g id="#9faa67ff">
<path fill="#9faa67" opacity="1.00" d=" M 188.88 193.76 C 191.80 193.92 194.67 194.06 197.59 194.33 C 199.58 198.60 202.01 202.61 205.99 205.10 C 205.01 209.10 202.06 204.18 200.06 203.30 C 195.61 206.18 190.48 208.81 184.98 208.04 C 181.83 199.92 192.38 202.03 196.23 200.71 C 194.64 196.57 186.16 198.72 188.88 193.76 Z" />
</g>
<g id="#6a632aff">
<path fill="#6a632a" opacity="1.00" d=" M 213.17 194.32 C 214.00 198.14 220.78 198.02 224.88 196.00 C 233.73 199.68 215.17 203.32 222.63 207.33 C 223.33 208.76 216.77 208.58 219.07 205.16 C 224.28 201.30 214.33 199.30 211.25 199.77 C 208.39 198.07 210.62 194.84 213.17 194.32 Z" />
</g>
<g id="#dcd1c0ff">
<path fill="#dcd1c0" opacity="1.00" d=" M 228.16 195.16 C 232.80 194.16 227.16 199.80 228.16 195.16 Z" />
</g>
<g id="#a4a266f2">
<path fill="#a4a266" opacity="0.95" d=" M 315.17 200.79 C 317.34 199.75 319.55 198.69 321.94 198.25 L 322.59 198.91 C 321.45 201.31 319.46 203.15 317.12 204.36 C 313.99 204.68 313.61 203.16 315.17 200.79 Z" />
</g>
<g id="#00000050">
</g>
<g id="#c5b498ff">
<path fill="#c5b498" opacity="1.00" d=" M 270.18 202.15 C 272.25 202.20 271.49 205.57 271.89 207.05 C 269.01 207.58 267.85 203.53 270.18 202.15 Z" />
</g>
<g id="#97a664ff">
<path fill="#97a664" opacity="1.00" d=" M 270.23 209.27 C 272.41 207.89 274.53 206.02 277.28 206.15 C 278.90 210.91 281.97 214.83 280.64 220.20 C 278.64 218.96 277.05 217.17 275.05 215.92 C 275.51 224.56 266.96 228.66 260.81 233.01 C 260.79 227.46 264.84 224.04 267.98 220.14 C 268.91 217.91 269.57 214.41 266.06 214.56 C 266.17 212.06 268.52 210.70 270.23 209.27 Z" />
</g>
<g id="#00000014">
</g>
<g id="#0000003f">
</g>
<g id="#00000063">
</g>
<g id="#556631ff">
<path fill="#556631" opacity="1.00" d=" M 239.48 208.99 C 239.92 209.20 240.79 209.61 241.22 209.81 C 244.24 214.70 244.96 220.58 244.18 226.21 C 247.90 225.00 248.50 220.00 251.12 217.41 C 253.58 219.03 256.26 219.34 258.37 216.92 C 258.97 220.27 259.93 223.62 258.32 226.96 C 257.08 226.14 254.77 227.08 254.13 225.70 C 253.43 220.87 247.16 230.20 252.12 229.22 C 254.61 229.75 250.20 230.64 249.29 230.54 C 246.76 233.86 245.61 240.35 251.86 239.08 C 257.00 242.05 250.23 241.05 247.05 240.89 C 245.51 239.24 244.38 237.28 243.54 235.20 C 241.73 236.01 239.94 239.33 238.14 236.81 C 237.96 231.34 245.88 231.18 246.06 227.04 C 242.80 227.64 238.32 230.64 235.73 227.41 C 243.41 231.06 246.84 214.63 239.46 217.46 C 237.60 217.53 242.01 215.62 242.25 214.30 C 239.31 214.11 236.42 214.03 233.70 212.89 L 233.69 212.06 C 235.71 211.22 237.78 210.42 239.48 208.99 Z" />
</g>
<g id="#737033ff">
<path fill="#737033" opacity="1.00" d=" M 225.37 210.09 C 228.25 210.17 231.03 210.98 233.69 212.06 L 233.70 212.89 C 229.78 215.34 234.93 219.62 229.75 219.83 C 226.54 218.04 227.48 223.44 227.62 225.28 C 226.18 223.80 225.32 221.40 223.11 220.97 C 220.71 223.85 226.30 229.13 222.27 230.12 C 220.64 223.49 216.66 227.74 216.46 232.44 C 212.73 240.46 219.20 235.33 222.06 234.93 C 221.31 239.03 214.63 242.55 212.04 238.32 C 216.25 237.40 211.23 231.43 214.15 229.15 C 215.13 226.28 221.20 225.93 218.93 222.48 C 217.21 222.53 215.50 222.70 213.79 222.84 C 218.53 222.15 216.08 219.44 212.94 218.55 C 214.27 218.00 215.64 217.52 216.92 216.85 C 217.71 214.23 213.20 215.71 213.96 212.92 C 217.84 212.25 220.44 215.40 223.51 217.08 C 223.80 214.67 224.54 212.36 225.37 210.09 Z" />
</g>
<g id="#01010078">
</g>
<g id="#8b9656ff">
<path fill="#8b9656" opacity="1.00" d=" M 229.75 219.83 C 234.93 219.62 229.78 215.34 233.70 212.89 C 236.42 214.03 239.31 214.11 242.25 214.30 C 242.01 215.62 237.60 217.53 239.46 217.46 C 246.84 214.63 243.41 231.06 235.73 227.41 C 238.32 230.64 242.80 227.64 246.06 227.04 C 245.88 231.18 237.96 231.34 238.14 236.81 C 239.94 239.33 241.73 236.01 243.54 235.20 C 244.38 237.28 245.51 239.24 247.05 240.89 C 241.93 238.94 238.19 247.13 233.44 241.94 C 233.69 239.41 235.06 235.66 231.02 237.02 C 226.30 237.79 235.67 243.24 230.15 243.12 C 227.44 242.10 221.96 246.28 227.32 245.41 C 223.85 251.64 219.31 243.04 215.01 245.95 C 212.79 246.59 211.55 248.77 209.93 250.25 C 207.35 249.95 206.41 247.26 204.09 246.43 C 205.82 244.74 211.14 243.42 208.69 240.40 C 207.04 238.68 209.82 237.45 210.64 236.06 C 210.99 236.62 211.69 237.76 212.04 238.32 C 214.63 242.55 221.31 239.03 222.06 234.93 C 219.20 235.33 212.73 240.46 216.46 232.44 C 216.66 227.74 220.64 223.49 222.27 230.12 C 216.70 229.91 222.83 236.17 222.27 230.12 C 226.30 229.13 220.71 223.85 223.11 220.97 C 225.32 221.40 226.18 223.80 227.62 225.28 C 228.94 227.11 230.80 228.72 233.08 229.14 C 232.94 225.76 231.18 222.80 229.75 219.83 Z" />
</g>
<g id="#b9a88aff">
<path fill="#b9a88a" opacity="1.00" d=" M 287.84 218.08 C 284.08 218.22 287.42 211.90 290.36 214.69 C 289.54 215.83 288.74 216.99 287.84 218.08 Z" />
</g>
<g id="#72692eef">
<path fill="#72692e" opacity="0.94" d=" M 290.36 214.69 C 291.25 214.48 292.14 214.27 293.04 214.07 C 289.82 219.69 284.31 223.51 281.20 229.15 C 281.15 228.40 281.07 226.90 281.03 226.15 C 273.41 231.35 283.05 216.13 287.84 218.08 C 288.74 216.99 289.54 215.83 290.36 214.69 Z" />
</g>
<g id="#5f592efe">
<path fill="#5f592e" opacity="1.00" d=" M 169.92 232.10 C 163.81 229.11 162.57 218.29 167.91 215.07 C 163.89 223.37 170.39 218.72 173.88 222.01 C 174.06 227.77 174.83 233.78 180.72 236.28 C 182.50 241.98 188.94 244.58 192.47 249.17 C 192.49 249.54 192.54 250.28 192.56 250.64 C 193.70 254.26 192.22 256.43 189.18 253.38 C 185.26 249.95 179.97 247.75 177.90 242.67 C 175.64 241.05 171.02 235.55 169.47 240.41 C 164.16 247.39 170.78 254.82 173.70 261.32 C 177.63 265.92 182.34 258.75 186.25 261.76 C 185.79 259.74 183.95 257.81 184.87 255.68 L 185.78 256.13 C 189.51 257.20 190.42 261.46 193.52 263.37 C 193.43 261.36 192.29 258.68 194.91 257.86 C 196.03 260.21 195.61 264.54 199.20 262.19 C 205.22 258.26 206.02 266.40 211.09 267.37 C 210.66 267.61 209.78 268.09 209.34 268.34 C 206.15 268.24 202.99 268.21 199.81 268.10 C 196.73 266.56 193.53 265.78 190.22 267.14 C 186.72 267.15 183.25 267.14 179.76 267.21 C 176.69 266.69 173.82 265.40 171.01 264.12 C 170.17 261.23 168.71 258.51 166.00 256.98 C 160.38 253.45 158.47 246.85 156.01 241.08 C 159.27 231.09 169.95 237.52 177.11 238.11 C 176.32 234.82 171.55 234.94 169.92 232.10 Z" />
</g>
<g id="#9c9a60ff">
<path fill="#9c9a60" opacity="1.00" d=" M 176.92 215.75 C 179.49 222.43 187.96 213.86 190.84 220.20 C 192.03 223.46 187.24 220.54 185.48 220.93 C 185.50 222.38 186.10 224.24 184.02 224.40 C 182.59 220.20 181.62 223.71 180.70 225.94 C 175.01 226.89 175.85 220.90 175.86 216.90 C 176.12 216.61 176.65 216.04 176.92 215.75 Z" />
</g>
<g id="#88722fff">
<path fill="#88722f" opacity="1.00" d=" M 173.88 222.01 C 173.94 220.10 174.10 218.04 175.86 216.90 C 175.85 220.90 175.01 226.89 180.70 225.94 C 181.62 223.71 182.59 220.20 184.02 224.40 C 187.24 228.70 182.46 232.47 180.72 236.28 C 174.83 233.78 174.06 227.77 173.88 222.01 Z" />
</g>
<g id="#404317ff">
<path fill="#404317" opacity="1.00" d=" M 227.62 225.28 C 227.48 223.44 226.54 218.04 229.75 219.83 C 231.18 222.80 232.94 225.76 233.08 229.14 C 230.80 228.72 228.94 227.11 227.62 225.28 Z" />
</g>
<g id="#00000022">
</g>
<g id="#4e4c23ff">
<path fill="#4e4c23" opacity="1.00" d=" M 213.79 222.84 C 215.50 222.70 217.21 222.53 218.93 222.48 C 221.20 225.93 215.13 226.28 214.15 229.15 C 211.23 231.43 216.25 237.40 212.04 238.32 C 211.69 237.76 210.99 236.62 210.64 236.06 C 206.66 231.86 207.96 224.46 213.79 222.84 Z" />
</g>
<g id="#0000001a">
</g>
<g id="#96ab6dff">
<path fill="#96ab6d" opacity="1.00" d=" M 189.20 230.33 C 191.41 232.59 191.22 239.85 192.02 244.16 C 189.53 240.54 182.53 233.34 189.20 230.33 Z" />
</g>
<g id="#cfc0a5ff">
<path fill="#cfc0a5" opacity="1.00" d=" M 222.27 230.12 C 216.70 229.91 222.83 236.17 222.27 230.12 Z" />
</g>
<g id="#747d35fd">
<path fill="#747d35" opacity="1.00" d=" M 259.27 240.06 C 265.34 241.06 260.97 231.70 267.03 232.07 C 263.99 238.72 271.42 233.47 274.11 237.31 C 273.21 240.25 272.65 243.32 271.23 246.08 C 270.70 246.36 269.63 246.91 269.10 247.19 C 266.27 245.90 263.85 246.08 261.85 247.72 C 257.65 249.90 256.27 256.28 250.22 254.26 C 247.25 254.18 243.63 251.91 241.03 254.01 C 239.75 254.81 238.47 255.61 237.16 256.35 C 235.78 255.68 233.81 255.41 232.91 256.97 C 228.38 256.90 223.87 256.41 219.35 256.33 C 218.35 261.06 215.78 265.42 211.09 267.37 C 206.02 266.40 205.22 258.26 199.20 262.19 C 195.61 264.54 196.03 260.21 194.91 257.86 C 192.29 258.68 193.43 261.36 193.52 263.37 C 190.42 261.46 189.51 257.20 185.78 256.13 C 187.06 255.42 188.42 254.69 189.18 253.38 C 192.22 256.43 193.70 254.26 192.56 250.64 C 193.30 251.13 194.04 251.64 194.77 252.16 C 198.32 256.22 211.11 258.89 209.93 250.25 C 211.55 248.77 212.79 246.59 215.01 245.95 C 219.31 243.04 223.85 251.64 227.32 245.41 C 221.96 246.28 227.44 242.10 230.15 243.12 C 235.67 243.24 226.30 237.79 231.02 237.02 C 235.06 235.66 233.69 239.41 233.44 241.94 C 238.19 247.13 241.93 238.94 247.05 240.89 C 250.23 241.05 257.00 242.05 251.86 239.08 C 254.03 239.17 256.20 239.36 258.38 239.54 C 257.04 237.34 253.14 237.94 252.84 235.06 C 255.44 236.41 261.19 235.63 259.27 240.06 M 248.33 247.37 C 244.47 247.42 240.70 248.36 238.86 252.00 C 243.25 251.93 249.85 252.49 251.02 246.95 C 250.35 247.06 249.00 247.27 248.33 247.37 M 211.00 258.51 C 208.89 256.97 208.11 259.75 207.29 261.20 C 207.41 267.71 221.19 260.93 214.34 257.04 C 213.69 255.02 211.17 257.22 211.00 258.51 Z" />
</g>
<g id="#8b9f66ff">
<path fill="#8b9f66" opacity="1.00" d=" M 200.30 237.03 C 206.82 237.92 203.05 247.01 198.34 249.05 C 201.19 253.10 198.73 253.78 194.77 252.16 C 194.04 251.64 193.30 251.13 192.56 250.64 C 192.54 250.28 192.49 249.54 192.47 249.17 C 192.57 242.05 203.45 246.87 200.30 237.03 Z" />
</g>
<g id="#776b34ff">
<path fill="#776b34" opacity="1.00" d=" M 169.47 240.41 C 171.02 235.55 175.64 241.05 177.90 242.67 C 176.84 250.81 174.18 238.63 171.23 242.21 C 172.38 246.32 168.72 253.03 175.30 252.64 C 174.40 257.74 177.89 255.41 178.66 252.03 C 174.23 246.72 186.89 251.08 184.87 255.68 C 183.95 257.81 185.79 259.74 186.25 261.76 C 182.34 258.75 177.63 265.92 173.70 261.32 C 170.78 254.82 164.16 247.39 169.47 240.41 Z" />
</g>
<g id="#8b8355ff">
<path fill="#8b8355" opacity="1.00" d=" M 171.23 242.21 C 174.18 238.63 176.84 250.81 177.90 242.67 C 179.97 247.75 185.26 249.95 189.18 253.38 C 188.42 254.69 187.06 255.42 185.78 256.13 L 184.87 255.68 C 186.89 251.08 174.23 246.72 178.66 252.03 C 177.89 255.41 174.40 257.74 175.30 252.64 C 168.72 253.03 172.38 246.32 171.23 242.21 Z" />
</g>
<g id="#99a95fff">
<path fill="#99a95f" opacity="1.00" d=" M 248.33 247.37 C 249.00 247.27 250.35 247.06 251.02 246.95 C 249.85 252.49 243.25 251.93 238.86 252.00 C 240.70 248.36 244.47 247.42 248.33 247.37 Z" />
</g>
<g id="#343115be">
<path fill="#343115" opacity="0.75" d=" M 261.85 247.72 C 263.85 246.08 266.27 245.90 269.10 247.19 C 267.13 248.96 264.71 249.13 261.85 247.72 Z" />
</g>
<g id="#3a3c17cd">
<path fill="#3a3c17" opacity="0.80" d=" M 241.03 254.01 C 243.63 251.91 247.25 254.18 250.22 254.26 C 247.14 254.41 244.09 254.22 241.03 254.01 Z" />
</g>
<g id="#e9e3d4ff">
<path fill="#e9e3d4" opacity="1.00" d=" M 211.00 258.51 C 211.17 257.22 213.69 255.02 214.34 257.04 C 214.16 258.79 212.39 259.47 211.00 258.51 Z" />
</g>
<g id="#2f38179c">
<path fill="#2f3817" opacity="0.61" d=" M 232.91 256.97 C 233.81 255.41 235.78 255.68 237.16 256.35 C 235.98 257.40 234.34 257.38 232.91 256.97 Z" />
</g>
<g id="#a7966fff">
<path fill="#a7966f" opacity="1.00" d=" M 214.34 257.04 C 221.19 260.93 207.41 267.71 207.29 261.20 C 208.11 259.75 208.89 256.97 211.00 258.51 C 212.39 259.47 214.16 258.79 214.34 257.04 Z" />
</g>
<g id="#1e220f8c">
</g>
<g id="#332a16b8">
<path fill="#332a16" opacity="0.72" d=" M 199.81 268.10 C 202.99 268.21 206.15 268.24 209.34 268.34 C 209.05 268.58 208.46 269.06 208.16 269.30 C 205.37 268.99 202.55 268.64 199.81 268.10 Z" />
</g>
</svg>



