<svg xmlns="http://www.w3.org/2000/svg" width="512" height="512" viewBox="0 0 384 384" xmlns:v="https://vecta.io/nano"><path fill="#595e33" d="M151.04 92.08c2.56-1.38 4.7-3.34 6.96-5.14l7.08-.13c4.61 2.62 9.74 4.07 14.93 5-.45 3.85-3.15 2.12-5.67 1.39-1.63 4.52-5.97 3.85-9.38 5.93-2.57-1.5-2.36-7.13-5.4-6.77-.71 4-7.63 2.94-6.18 7.57-1.48 1.93-9.27 3.03-6.36 5.91 5.9 1.78 3.57 10.19 2.72 14.74-3.02-.04-4.49 1.46-3.74 4.51 2.56-.68 5.06-1.69 7.76-1.58 2.78-1.22-.3-4.55-.5-6.64-.17-9.05 9.2-14.6 16.75-10.02-2.95.98-5.93 1.81-8.95 2.51.54 5.34 2.3 15.41 9.37 11.05l.97-.37c.18 4.82-.01 11.25-4.96 13.52-2.08 3.67 3.12 6.8 6.44 6.75-2.05 6.42-10.16-2.41-14.18.38-2.12 1.98 2.07 3.22 2.46 5.22 2.32 3.16-2.27 6.32-.48 9.56.99 4.66 4.6 7.56 8.22 10.22-5.02 7.13-9.58-1.18-15.36-2.18-4.81-2.44-9.55.39-14.41.22-3.09-1.02-2.45 4.24-5.21 4.26-2.47-.12-4.64-1.59-7.04-2.11-3.42-5.63 3.27-9.14 2.63-14.04-.29-1.98-.56-3.96-.71-5.95 1.74-7.13 4.74-14.33.34-21.13.49-5.81 1.96-11.71 4.85-16.83l1.35-.67c3.67-1.56.79-7.23 1.52-10.42 1.1-1.51 2.55-2.73 3.89-4.02 3.34-.28 7.23 1.15 10.29-.74z"/><path fill="#303319" opacity=".71" d="M141.16 92.01l9.88.07c-3.06 1.89-6.95.46-10.29.74l.41-.81z"/><path fill="#67733c" d="M159.56 92.36c3.04-.36 2.83 5.27 5.4 6.77 3.33 2.53 7.72 4.05 9.74 7.96 2.06 3.74.36 15.31 6.21 11.84 1.09-1.14 2.34-2.63 3.67-.79-3.85 6.14-6.88 12.74-7.65 20.02 2.44-1.37 8.01-3.55 4.73-6.74-1.54-4.5 4.82-4.33 5.7-8.17 4.86-2.03-.41 3.63 1.9 5.47 3.34 2.56-.1 8.57-4.06 6.66-1.55.96-6.29 6.07-1.97 6.46 4.27 1.09-2.72 1.92-4.15 2.57-.24 4.25 6.85 1.05 8.68 2.5-1.09 2.46-3.62 10.84-4.03 4.01-1 .99-1.91 2.06-2.83 3.12-.14-2.06-1.89-6.01-3.11-2.23-.94 4.29-3.47.5-4.04-1.82-4.69.83-9.08 2.93-13.07 5.48-1.79-3.24 2.8-6.4.48-9.56-.39-2-4.58-3.24-2.46-5.22 4.02-2.79 12.13 6.04 14.18-.38-3.32.05-8.52-3.08-6.44-6.75 4.95-2.27 5.14-8.7 4.96-13.52l-.02-.87c5.27-3.31 3.22-9.59-1.37-12.32-7.55-4.58-16.92.97-16.75 10.02.2 2.09 3.28 5.42.5 6.64-2.7-.11-5.2.9-7.76 1.58-.75-3.05.72-4.55 3.74-4.51.85-4.55 3.18-12.96-2.72-14.74-2.91-2.88 4.88-3.98 6.36-5.91-1.45-4.63 5.47-3.57 6.18-7.57z"/><path fill="#7b7c36" d="M174.34 93.2c2.52.73 5.22 2.46 5.67-1.39 6.15 1.39 7.2 8.74 13.22 10.13-1.56 6.94 9.79 6.06 12.03 1.73 3.56 1.26 5.2 5.09 6.92 8.16l-.29 9.32-1.03-.9c-.17-1.44-.35-2.88-.61-4.3-.37-2.57-.67-6.69-4.13-6.61-3.22 1.01-8.89 3.81-8.62-1.54-1.26 2.89-2.02 6.23-6.05 4.99-.84-8.77-8.13 9.12-7.08-3-3.72-1.55-8.96-11.27-9.67-2.7-2.02-3.91-6.41-5.43-9.74-7.96 3.41-2.08 7.75-1.41 9.38-5.93z"/><path fill="#605627" opacity=".96" d="M193.23 101.94c3.99.74 8.04 1 12.03 1.73-2.24 4.33-13.59 5.21-12.03-1.73z"/><path fill="#8f9b59" d="M174.7 107.09c.71-8.57 5.95 1.15 9.67 2.7-1.05 12.12 6.24-5.77 7.08 3 4.03 1.24 4.79-2.1 6.05-4.99-.27 5.35 5.4 2.55 8.62 1.54 3.46-.08 3.76 4.04 4.13 6.61-3.54-4.38-5.75 5.51.61 4.3l1.03.9 1.05.9c2.29 1.16 5.26 1.47 5.68 4.62-.99 4.54-6.38-1.11-9.66-.71.63 1.73 1.47 3.38 2.08 5.12-6.23.3-3.62-9.73-9.28-10.87-7.48-4.14 3.72 9.38-3.85 8.7-2.45-1.71-7.3-1.76-5.92-6.02 1.33.43 4.33 3.37 2.94.2-.43-3.91-7.91 1.8-4.12-5.99-.68-4.3-4.6-.61-6.23 1.04-1.33-1.84-2.58-.35-3.67.79-5.85 3.47-4.15-8.1-6.21-11.84z"/><path fill="#897641" d="M161.06 109.36l8.95-2.51c4.59 2.73 6.64 9.01 1.37 12.32-.05-9.44-9.03 1.88-.95 1.24-7.07 4.36-8.83-5.71-9.37-11.05z"/><path fill="#c0b398" d="M210.86 120.25c-6.36 1.21-4.15-8.68-.61-4.3l.61 4.3z"/><path fill="#c2b093" d="M170.43 120.41c-8.08.64.9-10.68.95-1.24l.02.87-.97.37z"/><path fill="#7f8846" d="M184.58 118.14c1.63-1.65 5.55-5.34 6.23-1.04-3.79 7.79 3.69 2.08 4.12 5.99 1.39 3.17-1.61.23-2.94-.2-1.38 4.26 3.47 4.31 5.92 6.02 7.57.68-3.63-12.84 3.85-8.7 5.66 1.14 3.05 11.17 9.28 10.87-.61-1.74-1.45-3.39-2.08-5.12 3.28-.4 8.67 5.25 9.66.71 5 2.48 2.86 7-1.49 8.63 7.77 5.47 12.8 14.02 14.12 23.46l-.37 5.27c-3.3-1.7-7.28-1.26-10.01-4.14-.07-2.54.93-4.81 2.16-6.96-5.46-1.85-9.98 10.08-2.16 6.96-.37 7.05-10.84 2.03-15.01 3.75.65-2.49-1.09-.97-2.29-.35-2.1-.81-4.42-2.31-4.47-4.82 3.6-.14 2.27-3.84 2.68-6.27 7.53 4.92 9.62-6.01 9.25-11.36-3.62-5.86-10.71-7.63-17.03-8.91-.08 5.14 1.1 10.58 4.21 14.81-13.31-2.73-3.68 5.13-.06 8.12-4.03-.24-8.06-.35-12.07-.83 1.74 2.51 3.53 5.03 4.71 7.88-1.84 1.64-1.41 2.4 1.07 2.52 2.91 4.19-2.51 7.53-4.5 3.86-1.47 2.48-2.2 5.35-2.31 8.22l-5.19.37c1.96-3.94 4.23-8.09 3.64-12.64-3.44-2.23-4.37-6.53-2.6-10.2.92-1.06 1.83-2.13 2.83-3.12.41 6.83 2.94-1.55 4.03-4.01-1.83-1.45-8.92 1.75-8.68-2.5 1.43-.65 8.42-1.48 4.15-2.57-4.32-.39.42-5.5 1.97-6.46 3.96 1.91 7.4-4.1 4.06-6.66-2.31-1.84 2.96-7.5-1.9-5.47-.88 3.84-7.24 3.67-5.7 8.17 3.28 3.19-2.29 5.37-4.73 6.74.77-7.28 3.8-13.88 7.65-20.02z"/><path fill="#7f6d2f" d="M194 131.93c6.32 1.28 13.41 3.05 17.03 8.91.37 5.35-1.72 16.28-9.25 11.36l-3.57-5.46c-3.11-4.23-4.29-9.67-4.21-14.81m8.14 9.13c-1.01 2.7-3.47 8.62 3.89 4.92.83-2.83-1.65-4.11-3.89-4.92z"/><path fill="#b7a388" d="M202.14 141.06c2.24.81 4.72 2.09 3.89 4.92-7.36 3.7-4.9-2.22-3.89-4.92z"/><path fill="#94a05e" d="M198.15 154.86c-3.62-2.99-13.25-10.85.06-8.12l3.57 5.46c-.41 2.43.92 6.13-2.68 6.27.05 2.51 2.37 4.01 4.47 4.82 1.2-.62 2.94-2.14 2.29.35-.68 2.03-1.21 4.14-2.21 6.05-3.43-6.09-9.14 6.74-2.52 3.75v5.66c-2.08 1.7-11.85 8.14-7.45 2.22-1.71-1.68-4.31-1.66-6.46-2.5l-2.17-2.31c.11-2.87.84-5.74 2.31-8.22 1.99 3.67 7.41.33 4.5-3.86-2.48-.12-2.91-.88-1.07-2.52-1.18-2.85-2.97-5.37-4.71-7.88 4.01.48 8.04.59 12.07.83z"/><path fill="#5e663b" d="M160.68 155.47c3.99-2.55 8.38-4.65 13.07-5.48.57 2.32 3.1 6.11 4.04 1.82 1.22-3.78 2.97.17 3.11 2.23-1.77 3.67-.84 7.97 2.6 10.2.59 4.55-1.68 8.7-3.64 12.64 1.73-.07 3.46-.26 5.19-.37a52.47 52.47 0 0 1 2.17 2.31c.04 3.49-4.45 7.33-1.41 10.15-5.21-.92-3.31 1.99-1.15 4.76-4.1 1.76-2.03 5.38-.61 8.37-2.55.07-4.78-1.19-7.06-2.12-4.74 3.17-6.18 8.65-1.94 12.81-4.9 4.57-4.93-7.86-7.96-2.27-4.31-.72-8.49.62-12.73 1.03-.83 1.66-1.34 11.38-5.17 7.28-4.65-4.13 5.71-6.6.9-11.84-.41-3.94-5.13-6.2-8.75-4.54-4.67.39-2.93-6.26-2.26-8.63 2.62.32 1.91 4.63 4.82 4.26.08-3.45-.85-7.16-4.89-7.61 4.52-3.11 10.76-2.93 10.27-10.14 3.6-1.89 6.28-6.52 10.61-6.32 3.76 1.52 6.34 5.53 11.13 4.01.68-2.73-1.07-4.63-3.05-6.14 1.35-2.19 4.45-4.35.93-6.19-3.62-2.66-7.23-5.56-8.22-10.22m19.52 23.84c-5.38.69-4.79 9.82.93 6.92 5.41-.48 3.39-6.74-.93-6.92z"/><path fill="#655928" d="M220.87 159.89c-7.82 3.12-3.3-8.81 2.16-6.96-1.23 2.15-2.23 4.42-2.16 6.96z"/><path fill="#5d692f" d="M220.87 159.89c2.73 2.88 6.71 2.44 10.01 4.14 3.72.75 7.51 1.06 11.38.93l1.76.26c2.49 1.65 4.84 1.77 7.04.35 4.29 2.74 9.54 4.1 13.04 7.95-.65 1.04-3.95 3.75-.85 2.91 2.52 1.1-3.87 7.72.84 7.97-2.72 2.55-6.13 4.21-9.11 6.42a83.67 83.67 0 0 0-5.87 2.66c-1.49-1.22-3.65-1.28-5.22-.17-3.94.81-11.4-2.68-13.14 2.68l-4.63-.87-2.63.57c-4.2 1.32 7.38 9.34-4.47 5.37-4.22-.21-13.64 2.15-13.07-4.9 4.08-2.52 7.82-4.3 3.89.79 2.58-1.57 10.85 1.68 11.19-2.85-7.52-3.05-18.44-7.02-17.1-17.18.24-4.46-1.87.8-2.8 2.18v-5.66c-6.62 2.99-.91-9.84 2.52-3.75 1-1.91 1.53-4.02 2.21-6.05 4.17-1.72 14.64 3.3 15.01-3.75m16.07 12.95c-1.73-4.84-7.54-.3-10.08-3.78-2.76.02-4.63 9.04-7.24 2.94-2.66 1.83-3.42 5.6-4.05 8.38.94 3.84 2.45-1.11 4.53.34.11-1.92-2.94-6.74.79-5.6.73 1.54-.03 3.76 1.64 4.77 1.43-1.92 4.08-7.62 2.74 1.75 2.2 1.35 3.6 3.55 5.42 5.26.62-4.25 3.42-4.11 6.01-5.11-1.14 6.81 6.11 6.14 6.45.2 3.79 3.28 10.11 6.51 13.98 1.15 6.3-2.91.83-13.74-4.89-11.82-2.7.26-3.41-.78-2.36-3.15-4.92-2.06-11.6-1.09-12.94 4.67z"/><path fill="#464d26" d="M139.13 163.73c4.86.17 9.6-2.66 14.41-.22 5.78 1 10.34 9.31 15.36 2.18 3.52 1.84.42 4-.93 6.19 1.98 1.51 3.73 3.41 3.05 6.14-4.79 1.52-7.37-2.49-11.13-4.01-4.33-.2-7.01 4.43-10.61 6.32-3.43 1.26-7.38 3.63-10.76 1.23-3.84-2.39-3.41 4.18-7.66 2.38 3.91-2.63.18-5.51-1.64-8.16l-2.18-4.73-.06-2.07-.1-3.1c2.4.52 4.57 1.99 7.04 2.11 2.76-.02 2.12-5.28 5.21-4.26z"/><path fill="#778948" d="M236.94 172.84c1.34-5.76 8.02-6.73 12.94-4.67-1.05 2.37-.34 3.41 2.36 3.15-3.13 1.8-10.85 3.65-10.54-.36-4.84.91-2.77 7.49-5 10.83-2.59 1-5.39.86-6.01 5.11-1.82-1.71-3.22-3.91-5.42-5.26 1.34-9.37-1.31-3.67-2.74-1.75-1.67-1.01-.91-3.23-1.64-4.77-3.73-1.14-.68 3.68-.79 5.6-2.08-1.45-3.59 3.5-4.53-.34.63-2.78 1.39-6.55 4.05-8.38 2.61 6.1 4.48-2.92 7.24-2.94 2.54 3.48 8.35-1.06 10.08 3.78z"/><path fill="#95a660" d="M236.7 181.79c2.23-3.34.16-9.92 5-10.83-.31 4.01 7.41 2.16 10.54.36 5.72-1.92 11.19 8.91 4.89 11.82-3.87 5.36-10.19 2.13-13.98-1.15-.34 5.94-7.59 6.61-6.45-.2z"/><path fill="#838d48" opacity=".94" d="M263.25 176.43c-3.1.84.2-1.87.85-2.91 3.28 2.59 2.58 7.98-.01 10.88-4.71-.25 1.68-6.87-.84-7.97z"/><path fill="#88904f" d="M201.13 179.1c.93-1.38 3.04-6.64 2.8-2.18-1.34 10.16 9.58 14.13 17.1 17.18-.34 4.53-8.61 1.28-11.19 2.85 3.93-5.09.19-3.31-3.89-.79-.57 7.05 8.85 4.69 13.07 4.9 11.85 3.97.27-4.05 4.47-5.37.37 1.97 3.39 1.48 2.63-.57l4.63.87c.29 6.03.79 12.3-1.61 18-2.93-.32-5.72.17-7.04 3.06.89-4.09-1.13-7.82-4.18-10.24.4 3.05 2.14 5.8 2.1 8.93-12.64-.24 2.5 2.31-4.36 5.86 4.39 5.62-4.17.58-7.49 1.22.07-1.2.12-2.4.11-3.6 2.56-4.52-.12-5.82-4.2-3.18 4.72-9.59-8.79 1.14-12.16-5.63 5.61-.21 2.87-6.77-2.94-3.36 3.05-.99 6.11-5.04 9.2-2.01-1.83-4.82-5.07-9.05-5.95-14.21-.37-2.76-2.3-5.66-5.26-5.95-1.81 4.59 6.84 6.55 2.67 10.74-2.49 2.12 4.28 7.58-.98 5.8-4.19-2.74-5.31 8.15-1.12 6.46 4.4 1.32 5.07 8.21-.27 8.16-.41-3.14.62-9.52-5.3-7.09-4.05-.32-1.45-6.85-4.98-8.97 2.28.93 4.51 2.19 7.06 2.12-1.42-2.99-3.49-6.61.61-8.37-2.16-2.77-4.06-5.68 1.15-4.76-3.04-2.82 1.45-6.66 1.41-10.15 2.15.84 4.75.82 6.46 2.5-4.4 5.92 5.37-.52 7.45-2.22z"/><path fill="#7b8750" d="M180.2 179.31c4.32.18 6.34 6.44.93 6.92-5.72 2.9-6.31-6.23-.93-6.92z"/><path fill="#51562e" d="M138.52 181.56c3.38 2.4 7.33.03 10.76-1.23.49 7.21-5.75 7.03-10.27 10.14 4.04.45 4.97 4.16 4.89 7.61-2.91.37-2.2-3.94-4.82-4.26-.67 2.37-2.41 9.02 2.26 8.63 3.62-1.66 8.34.6 8.75 4.54 4.81 5.24-5.55 7.71-.9 11.84 3.83 4.1 4.34-5.62 5.17-7.28 4.24-.41 8.42-1.75 12.73-1.03l.95 2.33c-6.46-1.94-12.01 8.55-6.78 12.94 2.99 2.57 6.07 5.08 9.32 7.33 2.47 5.14 3.26 11.18 7.63 15.15.25.48.73 1.45.97 1.94-.37 1.44-1.69 2.15-2.95 2.72-2.83-4.78-6.59-8.93-9-13.96-1.3-1.43-2.85-2.61-4.16-4.03-4.2-5.52-19.96-6.5-18.42 3.62-2.75.1-4.36 1.78-4.83 4.42l-.78-.2-.17-1.59c3.88-11.27-6.99-19.33-6.47-30.35-.91-3.42-3.63-5.92-5.27-8.98.34-5.94-1.99-13.98 3.73-17.92 4.25 1.8 3.82-4.77 7.66-2.38z"/><path fill="#a2b269" d="M186.97 184.88c2.96.29 4.89 3.19 5.26 5.95.88 5.16 4.12 9.39 5.95 14.21-3.09-3.03-6.15 1.02-9.2 2.01l-1.44.83c-4.19 1.69-3.07-9.2 1.12-6.46 5.26 1.78-1.51-3.68.98-5.8 4.17-4.19-4.48-6.15-2.67-10.74z"/><path fill="#262d12" opacity=".64" d="M243.89 193.31c1.57-1.11 3.73-1.05 5.22.17l-5.22-.17z"/><path fill="#d9d0c3" d="M223.49 195.69l2.63-.57c.76 2.05-2.26 2.54-2.63.57z"/><path fill="#7b7f3e" d="M175.05 212.79c-4.24-4.16-2.8-9.64 1.94-12.81 3.53 2.12.93 8.65 4.98 8.97 5.92-2.43 4.89 3.95 5.3 7.09 5.34.05 4.67-6.84.27-8.16l1.44-.83c5.81-3.41 8.55 3.15 2.94 3.36 3.37 6.77 16.88-3.96 12.16 5.63 4.08-2.64 6.76-1.34 4.2 3.18l-1.68-2.17c-4.81 8.01-14.93 11.85-23.57 12.08 4.24 3.66-2.69 13.74 3.83 12.83-.08-2.43-.48-4.99 1.23-7 2.65-.42 6.95.03 4.16 3.28-4.9 1.14-3.48 9.78-10.15 6.74-5.43-2.98 3.91-15.08-4.83-15.68-4.97 6.07 6.21 13.14.94 18.97-4.37-3.97-5.16-10.01-7.63-15.15.9-.82 4-.79 2.67-2.49-3.8-5.34-3.52-11.81-5.21-17.78l-.95-2.33c3.03-5.59 3.06 6.84 7.96 2.27m-3.82 2.28c-1.31 2.82-1.56 10.18 3.14 8.37 3.12.25-1.23-6.42 1.82-3.65.58 1.16 1.73 5.13 2.75 2.21-.81-5.41 7 3.9 5.98-1.87-1.42-5.07-7.3-.66-9.71-4.33-1-1.17-2.65-.8-3.98-.73z"/><path fill="#80823f" d="M217.92 206.81c3.05 2.42 5.07 6.15 4.18 10.24 1.32-2.89 4.11-3.38 7.04-3.06-2.05 6.64-6.87 11.81-11.14 17.1-2.02 1.89-2.55 5.49-.1 7.03 1.15 2.97 2.33 5.93 3.21 8.99l.99 3.73c-1.36 3.53-1.46 7.84-5.27 9.78-1.29-.48-2.5-1.17-3.76-1.71-2.78-2.46-8.39 2.43-8.66-2.65-.17-4.44-4.6-2.76-7.81-2.99l-.36-2.21c5.26.73 10.43-.74 15.66-.23.02-2.02-1.53-4.57.65-5.93-.07 2.83 1.87 3.55 4.37 3.14-.69-3.03-1.66-6.03-2.17-9.09-3.58 1.41-5.24 5.22-8.51 7.04-.57-3.41-5-5.12-4.23-8.88.63-3.86 8.74-4.09 6.3-8.48-.54-2.05-3.15-4.55-.14-5.81 3.32-.64 11.88 4.4 7.49-1.22 6.86-3.55-8.28-6.1 4.36-5.86.04-3.13-1.7-5.88-2.1-8.93m-10.74 28.24c-1.31 1.7-2.44 3.71-2.22 5.95 4.81 1.86 8.45-5.93 2.22-5.95z"/><path fill="#6c5b36" d="M161.26 225.79c-5.23-4.39.32-14.88 6.78-12.94 1.69 5.97 1.41 12.44 5.21 17.78 1.33 1.7-1.77 1.67-2.67 2.49-3.25-2.25-6.33-4.76-9.32-7.33z"/><path fill="#9a985c" d="M171.23 215.07c1.33-.07 2.98-.44 3.98.73 2.41 3.67 8.29-.74 9.71 4.33 1.02 5.77-6.79-3.54-5.98 1.87-1.02 2.92-2.17-1.05-2.75-2.21-3.05-2.77 1.3 3.9-1.82 3.65-4.7 1.81-4.45-5.55-3.14-8.37z"/><path fill="#8d9d5e" d="M183.03 229.13c8.64-.23 18.76-4.07 23.57-12.08l1.68 2.17c.01 1.2-.04 2.4-.11 3.6-3.01 1.26-.4 3.76.14 5.81-13.18-3.89-12.47 18.53-2.07 17.36 3.27-1.82 4.93-5.63 8.51-7.04.51 3.06 1.48 6.06 2.17 9.09-2.5.41-4.44-.31-4.37-3.14-2.18 1.36-.63 3.91-.65 5.93-5.23-.51-10.4.96-15.66.23l.36 2.21c-6.43 2.19-2.58-7.88-8.62-6.29-2.09 2.54 5.31 7 1.41 5.62-4.36.65-1.45-6.99-4.48-3.63-3.37 5.96 11.17 4.37 6.87 8.95-4.88-.33-9.98-3.48-12.6-7.71l-.97-1.94c5.27-5.83-5.91-12.9-.94-18.97 8.74.6-.6 12.7 4.83 15.68 6.67 3.04 5.25-5.6 10.15-6.74 2.79-3.25-1.51-3.7-4.16-3.28.19-4.75-4.7.69 0 0-1.71 2.01-1.31 4.57-1.23 7-6.52.91.41-9.17-3.83-12.83m10.2 10.97c-2.14 1.5-3.22 8.24.78 6.92 1.96.6 4.36-2.38 1.12-2.34.26-1.8 1.26-5.33-1.9-4.58z"/><path fill="#576734" d="M284.24 227.2c1.55-.3 3.03-.9 4.53-1.4l9.35.15c3.91 8.27-6.59-2.17-8.48 4.89-.59 1.42-1.74 2.14-3.27 2.17-1.67-3.28-4.13-5.54-8.35-4.09-2.21 1.19-1.14 4.94-3.5 6.02-2.17 1.94-4.74-.39-7.09-.75-.28 5.47-8.13 7.26-6.02 13.04-.64 6.16 4.8 12.2.74 18.03-2.61-7.36-5.01-15.34-7.01-23.13 2.1-.6 6.68-.06 5.36-3.47.16-7.63 14.94-2.13 12.43-10.82a49.28 49.28 0 0 0 11.31-.64z"/><path fill="#8c9959" d="M298.12 225.95l3.87.06c2.07 3.26.18 6.46-2.86 8.15-3.32.56-9.69 1.74-9.49-3.32 1.89-7.06 12.39 3.38 8.48-4.89z"/><path fill="#2a3415" opacity=".71" d="M271.81 227.78c4-1.21 8.32-.28 12.43-.58a49.28 49.28 0 0 1-11.31.64l-1.12-.06z"/><path fill="#3f4c20" opacity=".97" d="M254.21 237.05c4.74-5.08 11.01-7.6 17.6-9.27l1.12.06c2.51 8.69-12.27 3.19-12.43 10.82 1.32 3.41-3.26 2.87-5.36 3.47-1.34.19-2.65.53-3.93.92-4.18 1.36-8.35 2.76-12.73 3.35-.2 3.55-2.41 1.67-4.36.59-1.59 4.53-3.81 8.72-6.48 12.7-2.1-2.83-5.03-5.09-5.54-8.85l-.99-3.73c4.5-.06 8.57-2.11 12.8-3.37 1.7.65 3.79.85 5.16-.6 5.34-1.31 11.53-1.3 15.14-6.09z"/><path fill="#5e5728" d="M206.24 245.99c-10.4 1.17-11.11-21.25 2.07-17.36 2.44 4.39-5.67 4.62-6.3 8.48-.77 3.76 3.66 5.47 4.23 8.88z"/><path fill="#6e7a3e" d="M274.52 234.94c2.36-1.08 1.29-4.83 3.5-6.02-2.06 4.48 2.56 9.66 6.96 6.66 2.25-.13 3.34-.8 1.39-2.57 1.53-.03 2.68-.75 3.27-2.17-.2 5.06 6.17 3.88 9.49 3.32-4.92 3.73-11.45 2.64-17.13 4.01-.3 1.82.66 3.25 2.09 4.27-4.13 3.85-4.24 9.86-.36 13.89.42-4.02-1.02-9.63 3.44-11.93 4.38.19 8.84.35 13.14 1.37-4.22 2.29-14.19 1.13-13.2 8.07 1.41 6.4 8.59 7.27 14.12 7.24-2.76 1.32-5.61 2.57-5.94 6 .19-5.17-8.03-7.27-9.27-1.99-.42 4.99 6.21 1.82 9.27 1.99-1.66 1.83-4.65 2.45-5.36 5.02-3.07-2.2-6.75-2.1-10.3-1.47.81-4.31 8.97-.79 5.38-7.71 1.11-4.25-5.32-1.6-6.54.59-3.58 5.11-8.97 8.47-14.36 11.44-3.67-6.96 3.63-12.84 4.18-19.59 2.57-.51 4.86-1.74 2.86-4.45-2.01-2.81-2.58 1.79-2.75 3.48-.18-3.71.43-7.85-2.31-10.76 2.53-2.33 3.76-.77 4.23 2.2 3.39-6.37 4.67 4.16 8.94-1.59 6.24-9.34-13.5-10.37-13.69-1.37l-4.16 4.36c-2.11-5.78 5.74-7.57 6.02-13.04 2.35.36 4.92 2.69 7.09.75z"/><path fill="#869856" d="M278.02 228.92c4.22-1.45 6.68.81 8.35 4.09 1.95 1.77.86 2.44-1.39 2.57-4.4 3-9.02-2.18-6.96-6.66z"/><path fill="#685a35" d="M144.65 238.56c-1.54-10.12 14.22-9.14 18.42-3.62-6.28-1.65-2.51 4.51-4.21 7.95-1.35 2.94 1.02 6.1 3.35 7.73-.82 1.6-2.41 2.34-4.09 2.71 1.99.93 3.84 2.14 5.4 3.7-11.51 4.4-12.5-16.18-23.57-12-.04-.51-.1-1.53-.13-2.05.47-2.64 2.08-4.32 4.83-4.42z"/><path fill="#858742" d="M188.09 234.96c.19-4.75-4.7.69 0 0z"/><path fill="#907f54" d="M158.86 242.89c1.7-3.44-2.07-9.6 4.21-7.95 1.31 1.42 2.86 2.6 4.16 4.03 0 2.13-.42 4.21-2.85 4.55.37 2.67-.18 5.16-2.17 7.1-2.33-1.63-4.7-4.79-3.35-7.73z"/><path fill="#c1b29a" d="M207.18 235.05c6.23.02 2.59 7.81-2.22 5.95-.22-2.24.91-4.25 2.22-5.95z"/><path fill="#899c5e" d="M265.57 242.87c.19-9 19.93-7.97 13.69 1.37-4.27 5.75-5.55-4.78-8.94 1.59-.47-2.97-1.7-4.53-4.23-2.2l-.52-.76z"/><path fill="#717932" d="M167.23 238.97c2.41 5.03 6.17 9.18 9 13.96 1.26-.57 2.58-1.28 2.95-2.72 2.62 4.23 7.72 7.38 12.6 7.71 4.3-4.58-10.24-2.99-6.87-8.95 3.03-3.36.12 4.28 4.48 3.63 3.9 1.38-3.5-3.08-1.41-5.62 6.04-1.59 2.19 8.48 8.62 6.29 3.21.23 7.64-1.45 7.81 2.99.27 5.08 5.88.19 8.66 2.65 1.3 2.12 2.75 4.15 1.97 7.01-2.46-.58-6.89-.06-5.31-3.81-6.22-.48-5.66 3.25-3.7 7.84l-1.17.07c-5.6-.15 5.95 4.8 2.11 6.91-2.26 1.32-.69 5.02-4.06 5.02-6.2-.02-8.27-8.31-13.92-9.98-2.74.37-2.68 4.39-5.64 4.11 1.16-3.33-2.26-4.49-4.19-6.38-.3-2.28 1.82-4.07 1.8-6.36-2.84-1.69-9.54-.26-8.64-5.14-2.18-1.48-5.96-1.27-8.8-1.17-1.56-1.56-3.41-2.77-5.4-3.7 1.68-.37 3.27-1.11 4.09-2.71 1.99-1.94 2.54-4.43 2.17-7.1 2.43-.34 2.85-2.42 2.85-4.55m20.09 23.32c-4.39-.05-1.68 8.27 1.71 4.78 3.7-.74 1.76-6.79-1.71-4.78z"/><path fill="#67683b" d="M193.23 240.1c3.16-.75 2.16 2.78 1.9 4.58 3.24-.04.84 2.94-1.12 2.34-4 1.32-2.92-5.42-.78-6.92z"/><path fill="#838c4e" d="M251.21 243.05c1.28-.39 2.59-.73 3.93-.92 2 7.79 4.4 15.77 7.01 23.13-2.78 3.09-8.37 4.79-7 9.81-.9.82-1.83 1.63-2.83 2.34-4.92.81-9.28-2.52-14.05.52 1.2-7.85-8.64-1.53-7.12 3.33-4.16 6.15-9.56-11.35-10.32-2.11-2.2 1.91-2.73-11.57-7.53-6.49-.12-3.95-4.47-2.38-7.27-2.71-1.96-4.59-2.52-8.32 3.7-7.84-1.58 3.75 2.85 3.23 5.31 3.81.78-2.86-.67-4.89-1.97-7.01 1.26.54 2.47 1.23 3.76 1.71 6.48-3.12 8.64.23 12.89 3.2 1.62-4.08 5.39-11.61 8.95-4.59 1.56 1.51 3.24 2.93 5.1 4.08-.91-3.33-3.78-8.92 1.22-10.33 3.57-1.77 4.12-6.76 6.22-9.93m-5.97 12.25c-1.61 6.07 6.11-.87 0 0m4.98 11.83c-2.27 1.86.68 5.23-.85 7.78 4.42 4.4 7.58-10.3.85-7.78m-30.06 6.03c-1 4.64 4.64-1 0 0z"/><path fill="#404f22" opacity=".92" d="M284.09 242.44c7.96 3.49 17.16-2.02 24.18 1.3-2.6.88-5.2 1.86-7.96 2.03-4.3-1.02-8.76-1.18-13.14-1.37-4.46 2.3-3.02 7.91-3.44 11.93-3.88-4.03-3.77-10.04.36-13.89z"/><path fill="#5e6b32" d="M238.48 246.4c4.38-.59 8.55-1.99 12.73-3.35-2.1 3.17-2.65 8.16-6.22 9.93 3.79-4.45-5.04-4.68-6.07-1.01-1.4 2.16-.37 4.83-.25 7.26-3.56-7.02-7.33.51-8.95 4.59-4.25-2.97-6.41-6.32-12.89-3.2 3.81-1.94 3.91-6.25 5.27-9.78.51 3.76 3.44 6.02 5.54 8.85 2.67-3.98 4.89-8.17 6.48-12.7 1.95 1.08 4.16 2.96 4.36-.59z"/><path fill="#464822" d="M261.41 247.23l4.16-4.36.52.76c2.74 2.91 2.13 7.05 2.31 10.76l-.11.97c-.55 6.75-7.85 12.63-4.18 19.59 5.39-2.97 10.78-6.33 14.36-11.44 1.22-2.19 7.65-4.84 6.54-.59 3.59 6.92-4.57 3.4-5.38 7.71.66 4.88-1.47 7.41-5.05 10.48l-1.44-.32c-2.82-6.92-12.29-3.79-17.99-5.72-1.37-5.02 4.22-6.72 7-9.81 4.06-5.83-1.38-11.87-.74-18.03z"/><path fill="#4f5324" opacity=".98" d="M139.95 245.03c11.07-4.18 12.06 16.4 23.57 12 2.84-.1 6.62-.31 8.8 1.17-.9 4.88 5.8 3.45 8.64 5.14.02 2.29-2.1 4.08-1.8 6.36 1.93 1.89 5.35 3.05 4.19 6.38 2.96.28 2.9-3.74 5.64-4.11 5.65 1.67 7.72 9.96 13.92 9.98 3.37 0 1.8-3.7 4.06-5.02 3.84-2.11-7.71-7.06-2.11-6.91 2.07 1.88 4.46 3.84 6.85 1.3.77 3.8 3.19 6.92 4.7 10.44 2.43.32 4.81-.7 7.25-.7.18 2.37.6 4.63 3.53 4.32-5.55 2.46-11.9 5.97-17.13.61-3.82-1.5-8.13-.64-12.16-.82l-.79-.13c-2.67-2.65-5.65-5.35-9.67-5.6-8.12-2.5-13.03-11.67-21.99-11.99-6.59-.9-10.71-7.17-17.15-8.48-3.55-2.13-7.16-4.66-8.3-8.89-.05-1.69-.04-3.37-.05-5.05z"/><path fill="#909e5c" d="M300.31 245.77c2.76-.17 5.36-1.15 7.96-2.03 2.52 4.05-1.09 8.23-4.26 10.49-3.12-5.62-8.82-.83-12.74 1.05-.56 3.54 6.68.01 9.41 1.37.09 1.49.27 2.97.55 4.43-5.53.03-12.71-.84-14.12-7.24-.99-6.94 8.98-5.78 13.2-8.07z"/><path fill="#4d491f" d="M238.92 251.97c1.03-3.67 9.86-3.44 6.07 1.01-5 1.41-2.13 7-1.22 10.33-1.86-1.15-3.54-2.57-5.1-4.08-.12-2.43-1.15-5.1.25-7.26z"/><path fill="#c2b092" d="M268.4 254.39c.17-1.69.74-6.29 2.75-3.48 2 2.71-.29 3.94-2.86 4.45l.11-.97z"/><path fill="#68793c" d="M291.27 255.28c3.92-1.88 9.62-6.67 12.74-1.05l-1.12.85c-.85.37-1.59.9-2.21 1.57-2.73-1.36-9.97 2.17-9.41-1.37z"/><path fill="#cfbfa5" d="M245.24 255.3c6.11-.87-1.61 6.07 0 0z"/><path fill="#afa17e" d="M187.32 262.29c3.47-2.01 5.41 4.04 1.71 4.78-3.39 3.49-6.1-4.83-1.71-4.78z"/><path fill="#9ea258" d="M286.02 265.09c1.24-5.28 9.46-3.18 9.27 1.99-3.06-.17-9.69 3-9.27-1.99z"/><path fill="#a6a97f" d="M250.22 267.13c6.73-2.52 3.57 12.18-.85 7.78 1.53-2.55-1.42-5.92.85-7.78z"/><path fill="#656c2f" opacity=".98" d="M204.86 270.02l1.17-.07c2.8.33 7.15-1.24 7.27 2.71 4.8-5.08 5.33 8.4 7.53 6.49.76-9.24 6.16 8.26 10.32 2.11-1.52-4.86 8.32-11.18 7.12-3.33 4.77-3.04 9.13.29 14.05-.52-3.45 3.22-8.5 2.32-12.76 3.22-3.79 2.34-7.84 4.45-12.37 4.75-2.93.31-3.35-1.95-3.53-4.32-2.44 0-4.82 1.02-7.25.7-1.51-3.52-3.93-6.64-4.7-10.44-2.39 2.54-4.78.58-6.85-1.3z"/><path fill="#8a8c4f" opacity=".97" d="M279.63 270.63c3.55-.63 7.23-.73 10.3 1.47-2.74 4.78-8.43 12.65-15.35 9.01 3.58-3.07 5.71-5.6 5.05-10.48z"/><path fill="#73793d" d="M220.16 273.16c4.64-1-1 4.64 0 0z"/><path fill="#1e1f0f" opacity=".6" d="M197.9 285.17c4.03.18 8.34-.68 12.16.82-4.06-.17-8.14-.13-12.16-.82z"/></svg>