<svg xmlns="http://www.w3.org/2000/svg" width="512" height="512" viewBox="0 0 384 384" xmlns:v="https://vecta.io/nano"><path fill="#52592c" opacity=".97" d="M193.11 98.19c10.29 1.28 19.33-3.79 28.96-5.35.99.69 2.02 1.31 3.02 1.99-3.54-2-11.88 2.87-7.29 6.56 3.22.6 1.36 4.46 1.89 6.76-2.41-4.27-6.69-6.69-11.24-3.58-3.54 3.09-5.7-3.45-9.34-2.56-4.9 1.14-5.47 7.99-9.87 9.63-3.18.71-4.46-3.1-7.19-3.81.82 3.48 1.4 7-1.55 9.65-2.6 3.62 6.46.32 2.27 3.3-2.17 4.26-8.46-4.28-6.3 2.09-1.39.16-4.96 2.75-4.02-.26 3.22-9.51-5.81-2.68-9.78-4.63 3.9-6.08 13.06-3.39 16.45-9.96 5.01-2.73 9.09-7.1 13.99-9.83z"/><path fill="#6b7635" d="M217.8 101.39c-4.59-3.69 3.75-8.56 7.29-6.56 2.49 1.62 4.32 4.03 6.73 5.76 1.27 5.92-5.16 5.4-9.03 3.99-3.41.98-3.56 11.61-10.24 10.94-11.33 5.61 1.06-6.13-4.35-4.37-1.97 2.51-6.95 12.11 1.24 8.37 4.8-4.34 11.78-1.73 17.59-1.11 2.5-2.08 3.68 2.45 5.25 3.96-5.32 6.74 2.37 10.19 4.72 15.48a78.17 78.17 0 0 1-4.02.41c-.91-5.22-7.02-6.67-8.99-11.38.03 1.58.11 3.17.24 4.75-5.43-2.68-11.74.23-11.59 6.41-2.33-1.56-3.99-4.84-7.26-4.05 1.37 4.98-3.64 6.24-7.4 7.15-.06-3.07 3.56-4.06 5.2-6.19-3.64-1.65-8.84 8.26-7.89 1.13l3.69-5.64c1.93 1.54 6.48 2.93 4.85-1.12-3.32-1.6-6.09-6.18-9.21-1.84-3.5-.52-6.79-4.24-9.67-6.68-2.78 2.53-5.94 8-8.48 2.07-2.16-6.37 4.13 2.17 6.3-2.09 4.19-2.98-4.87.32-2.27-3.3 2.95-2.65 2.37-6.17 1.55-9.65 2.73.71 4.01 4.52 7.19 3.81 4.4-1.64 4.97-8.49 9.87-9.63 3.64-.89 5.8 5.65 9.34 2.56 4.55-3.11 8.83-.69 11.24 3.58-.53-2.3 1.33-6.16-1.89-6.76z"/><path fill="#888849" opacity=".97" d="M263.71 101.18c6.34-4.39 11.11 3.34 14.59 7.64 1.14 5.4-8.71 4.71-7.87-.2.53-4.74-4.99-4.28-6.72-7.44z"/><path fill="#7b8443" d="M222.79 104.58c3.87 1.41 10.3 1.93 9.03-3.99 3.92 3.39 9.9 2.52 13.38 6.33l.77 1.2c1.63 4.02 5.02 4.34 8.6 5.18 1.08 4.72 2.57 9.66 6.43 12.9 1.65-4.96-8.52-13.45-.23-13.46-2.17-4.55 1.49-4.81 5.08-5.56 2.65 2.86 1.22 8.16 5.54 9.59.68 11.23 2.27-1.22 5.64 1.15-5.5 6.09 7.57 3.75 7.26-1.88 1.66 1.71 3.9 2.64 5.87 3.94-.37 1.22-.86 3.48.93 3.81 2.24.94 5.49 1.09 6.11 3.98-5.54.58-10.58-2.46-15.97-2.71-2.71 2.68-1.24 5.79 2.52 4.16 2.45 3.95 6.34 4.55 10.56 4.92-4.14.76-8.56.19-12.53 1.7l-.84.31c-4.32-2.96-1.05-9.44-4.18-12.93-3.19-1.64-1.89 3.47-2.57 5.55-2.38 2.63-4.83.37-7.26-.78.49 2.66 2.05 6.69-1.63 3.45-3.65-5.86-15.77 7.33-13.99-3.52 10.2 8.11 6.81-6.79.22-1.75.2-1.99 1.76-3.46 2.57-5.22-7.6-.24-4.72 9.52-5.01 14.37-.77 1.73-.43 3.34.94 4.66-2.08-.38-4.04-1.16-5.97-1.98.1-3.25-2.65-6.43-.66-9.46 2.48-4.01-5.18-1.31-4.5-5.51 5.51 2.71 5.88-1.13 2.94-5.14-1.09-2.36-3.32-3.9-5.85-4.39 1.37-3.18-2.53-5.2-4.33-7.25-2.61-.67-4.29 2.39-6.46 3.42-.84-1.68-1.59-3.4-2.41-5.09m42.42 7.58c-4.27 3.32 3.79 3.07 0 0z"/><path fill="#55592f" d="M261.25 103.12l2.46-1.94c1.73 3.16 7.25 2.7 6.72 7.44-.84 4.91 9.01 5.6 7.87.2.7 1.44 1.46 2.87 2.69 3.93-3.14-.19-3.34 2.54-3.96 5.17-3.37-2.37-4.96 10.08-5.64-1.15-4.32-1.43-2.89-6.73-5.54-9.59-3.59.75-7.25 1.01-5.08 5.56-8.29.01 1.88 8.5.23 13.46-3.86-3.24-5.35-8.18-6.43-12.9-3.58-.84-6.97-1.16-8.6-5.18 1.44.4 2.95-.01 4.15-.86l1.73-.5c1.73.61 3.68.69 5.29-.33 2.05-.15 3.37-1.48 4.11-3.31z"/><path fill="#899855" d="M212.55 115.52c6.68.67 6.83-9.96 10.24-10.94l2.41 5.09c2.17-1.03 3.85-4.09 6.46-3.42 1.8 2.05 5.7 4.07 4.33 7.25-1.7 1.69-2.17 4.06-2.81 6.28l-.9 2.59c-1.57-1.51-2.75-6.04-5.25-3.96-5.81-.62-12.79-3.23-17.59 1.11-8.19 3.74-3.21-5.86-1.24-8.37 5.41-1.76-6.98 9.98 4.35 4.37z"/><path fill="#c4bda4" d="M265.21 112.16c3.79 3.07-4.27 3.32 0 0z"/><path fill="#959a5f" d="M277.03 117.92c.62-2.63.82-5.36 3.96-5.17l3.3 3.29c.31 5.63-12.76 7.97-7.26 1.88z"/><path fill="#6e632d" d="M233.18 119.78c.64-2.22 1.11-4.59 2.81-6.28 2.53.49 4.76 2.03 5.85 4.39-3.53-.38-4.41 2.39-2.94 5.14-.68 4.2 6.98 1.5 4.5 5.51-1.99 3.03.76 6.21.66 9.46-4.51 1.57-8.25-3.29-5.34-7.06-3.28-3.04-2.23-8.65-5.54-11.16z"/><path fill="#616a3c" d="M162.67 117.98c3.97 1.95 13-4.88 9.78 4.63-.94 3.01 2.63.42 4.02.26-.68 1.3-1.94 1.95-3.2 2.59 4.87 5.82 7.15 13.06 7.64 20.54.23 1.67-.34 4.92 2.1 4.95 2.97.52 1.75-4.9 4.95-4.03.4 4.07-2.04 6.92-5.56 8.57.89 5.98-5.87 10.18-2.29 16.56 2.37-1.58 3.94-4.01 6.66-1.05-1.25 2.56-2.7 5.11-2.91 8.02 1.71-.77 3.35-1.73 5.17-2.22-.47 2.56-2.5 3.39-4.87 3.59-1.47 4.15 3.67 1.35 5.85 2.72-.89 5.03-5.05 12.22.14 15.77 4.59 2.98 2.18 10.17-1.29 13.23.98 2.36 2.86 2.14 3.97.04.47 1.49 2.02 1.88 3.26 2.55-2.12 3.52.64 10.4-3.91 11.71 2.8 3.21-.38 7.59 2.67 10.77-2.15-.31-4.24-.86-6.38-1.18 1.9 4.17-5.72 2.38-2.31 7.72 2.26 3.99 8.65 1.68 10.01 6.33-4.82 3.76-12.78-8.9-13.49-.25-.43 3.23-.56 6.59-1.94 9.6-.59-6.2-5.42-.75-7.5-5.74-.96-4.34 3.53-7.76 7.56-5.83 3.57-4.33-7.43-3.45-10.49-3.52-4.58-1.45-2.98 4.52-5.49 6.67-2.31-.22-5.75-1.66-4.67-4.54 6.9-1.95.27-13.78-6.13-12.92-4.42 1.21-6.57-3.79-5-7.69 1.76 1.69 2.92 4.43 5.72 4.41-3.06-6.52.37-12.13 4.2-17.31 3.43-2.35 10.08-6.36 12.53-1.35 1.79 2.72 5.62 2.2 8.42 2.88 2.79.38 3.63-3.27 1.63-4.95-2.27-3.35 2.53-4.3 4.53-5.75-2.32-3.98-10.75-5.85-9.11-10.76 7.22-1-1.91-7.6-1.93-1.93.25 5.16-2.44-4.98-5.15-1.23-3.2 4.72-6.97-2.32-4.51-5.5 1.94-3.86-4.65-9.83-6.1-4.18.4 5.72-6.13.38-5.27-2.78 6.27 1.5 5.99-5.19 9.58-7.79 3.94-3 9.31-5.31 7.54-11.5-3.12.79-6.13 1.89-9.18 2.88-1.7-6.83 12.55-3.24 7.14-9.73a26.81 26.81 0 0 0 2.93-.76c1.18-.46 2.2-1.23 3.13-2.08 3.29-1.9 3.13-5.55 2.26-8.89.5-3.74-2.71-3.85-5.61-3.85 8.39-2.48-3.27-3.79-6.93-1.89-4.73.94-4.01 7.49-7.77 9.2-2.15-3.75.87-8.44-.98-12.15-3.54-6.01 10-4.36 4.79-11.04l1.79-1.8m25.59 98.19c-4.39 1.92-1.87 9.57 2.76 6.95 5.55-.7 1.36-8.4-2.76-6.95z"/><path fill="#aa9574" d="M238.9 123.03c-1.47-2.75-.59-5.52 2.94-5.14 2.94 4.01 2.57 7.85-2.94 5.14z"/><path fill="#585c33" d="M160.18 120.19l.7-.41c5.21 6.68-8.33 5.03-4.79 11.04 1.85 3.71-1.17 8.4.98 12.15 3.76-1.71 3.04-8.26 7.77-9.2 3.66-1.9 15.32-.59 6.93 1.89-2.7.53-6.69 1.09-7.48 4.16 1.71 3.75 3.22 7.59 4.77 11.42 5.41 6.49-8.84 2.9-7.14 9.73 3.05-.99 6.06-2.09 9.18-2.88 1.77 6.19-3.6 8.5-7.54 11.5-3.59 2.6-3.31 9.29-9.58 7.79-.86 3.16 5.67 8.5 5.27 2.78 1.45-5.65 8.04.32 6.1 4.18-2.46 3.18 1.31 10.22 4.51 5.5 2.71-3.75 5.4 6.39 5.15 1.23.02-5.67 9.15.93 1.93 1.93-1.64 4.91 6.79 6.78 9.11 10.76-2 1.45-6.8 2.4-4.53 5.75 2 1.68 1.16 5.33-1.63 4.95.88-3.49-2.58-4.2-4.86-5.65 1.19-1.77 2.67-3.31 4-4.96-2.5-2.25-5.48-3.9-8.28-5.72.64 2.05 1.58 3.98 2.27 6.01-7.58-2.38-13.65-11.24-22.37-9.89-5.04.32-6.52-5.06-6.98-9.09-8.02-1.85 1.1 8.23-3.75 11.82-2.28-1.73-4.45-3.61-6.75-5.31-3.16-5.2-1.37-11.72 3.03-15.6.87-3.94.83-8.1 2.23-11.91l.76-2.03c2.4-7.34 7.08-13.4 4.06-21.82.51-1.78.6-3.64.66-5.49l.12-.8.84-2.06c1.37-1.65 2.8-3.24 4.26-4.8 3.65-2.38 7.39-4.62 11.05-6.97z"/><path fill="#434a1d" opacity=".98" d="M233.18 119.78c3.31 2.51 2.26 8.12 5.54 11.16-2.91 3.77.83 8.63 5.34 7.06 1.93.82 3.89 1.6 5.97 1.98 2.37.49.98 4.22 3.6 5.25-.11-6.09 5.22-9.77 8.07-14.58-.31 4.25.34 8.43 2.26 12.2-1.95.71-6.2-.45-4.82 2.92 4.1 1.68 11.48.01 7.78 6.23l-1.01.03c-7.36-1.82-15.08-3.51-20.08-9.81-3.28-3.6-8.54-2.73-12.85-3.96a78.17 78.17 0 0 0 4.02-.41c-2.35-5.29-10.04-8.74-4.72-15.48l.9-2.59z"/><path fill="#858e49" d="M176.47 122.87c2.54 5.93 5.7.46 8.48-2.07 2.88 2.44 6.17 6.16 9.67 6.68 3.12-4.34 5.89.24 9.21 1.84 1.63 4.05-2.92 2.66-4.85 1.12l-3.69 5.64c-1.94-2.98-4.14-2.24-2.8 1.27.9 6.48-7.81 5.62-11.58 8.65-.49-7.48-2.77-14.72-7.64-20.54 1.26-.64 2.52-1.29 3.2-2.59z"/><path fill="#636c32" d="M249.09 135.32c.29-4.85-2.59-14.61 5.01-14.37-.81 1.76-2.37 3.23-2.57 5.22l-.22 1.75c-1.78 10.85 10.34-2.34 13.99 3.52-4.07 2.19-2 7.17 1.53 8.67 1.74 3.79 5.11 6.67 6.68 10.64 3.9.63 6.43-3.46 10-3.27 1.04 5.24 6.92 3.7 10.57 5.75-3.94 1.47-8.91 1.16-13.04-.19-4.6-1.36-9.4-1.02-14.12-1.04 3.7-6.22-3.68-4.55-7.78-6.23-1.38-3.37 2.87-2.21 4.82-2.92-1.92-3.77-2.57-7.95-2.26-12.2-2.85 4.81-8.18 8.49-8.07 14.58-2.62-1.03-1.23-4.76-3.6-5.25-1.37-1.32-1.71-2.93-.94-4.66z"/><path fill="#53622e" opacity=".97" d="M274.19 128.77c.68-2.08-.62-7.19 2.57-5.55 3.13 3.49-.14 9.97 4.18 12.93l-5.28 2.86c1.93-3.36-.68-6.93-1.47-10.24z"/><path fill="#aa9772" d="M251.53 126.17c6.59-5.04 9.98 9.86-.22 1.75l.22-1.75z"/><path fill="#9ba65c" d="M281.23 125.06c5.39.25 10.43 3.29 15.97 2.71 1.21 2.63 2.73 5.74.79 8.45-1.24-.68-2.43-1.44-3.68-2.08-4.22-.37-8.11-.97-10.56-4.92-3.76 1.63-5.23-1.48-2.52-4.16z"/><path fill="#56531f" opacity=".95" d="M223.99 126.88c1.97 4.71 8.08 6.16 8.99 11.38-4.35-1.55-6.3.17-6.77 3.95.2-3.69.17-7.46-1.98-10.58-.13-1.58-.21-3.17-.24-4.75z"/><path fill="#879354" d="M266.93 127.99c2.43 1.15 4.88 3.41 7.26.78.79 3.31 3.4 6.88 1.47 10.24-1.87 1.84.19 3.77 2.34 3.11l.85.21c2.48 1.53 4.85 1.65 7.1.39 3.24 1.46 6.53 2.91 9.26 5.23-.35 1.39-.32 2.78.1 4.17l-1.23 1.11c-3.65-2.05-9.53-.51-10.57-5.75-3.57-.19-6.1 3.9-10 3.27-1.57-3.97-4.94-6.85-6.68-10.64-3.53-1.5-5.6-6.48-1.53-8.67 3.68 3.24 2.12-.79 1.63-3.45z"/><path fill="#887643" d="M212.64 138.04c-.15-6.18 6.16-9.09 11.59-6.41 2.15 3.12 2.18 6.89 1.98 10.58-1.07 2.78-2.57 5.37-3.98 7.99-.4-3.14-4.02-3.67-6.37-2.31-3.93-3.45-4.78-12.26-11.34-7.51.8 5.42-7.11 5.83-6.54.76 3.76-.91 8.77-2.17 7.4-7.15 3.27-.79 4.93 2.49 7.26 4.05m8.53.08c-.85 2.26-.73 4.64-.04 6.93 1.94-1.17 4.11-8.59.04-6.93z"/><path fill="#8f9e64" d="M192.49 137.35c-1.34-3.51.86-4.25 2.8-1.27-.95 7.13 4.25-2.78 7.89-1.13-1.64 2.13-5.26 3.12-5.2 6.19-.57 5.07 7.34 4.66 6.54-.76 6.56-4.75 7.41 4.06 11.34 7.51-.1 3.89 5.61 3.7 5.2 7.97-3.71.69-5.56 1.95-4.11 5.97-2.9-.41-8.84 1.21-7.55-3.71-1.99-3.03-4.65-1.62-6.28.88-.63-2.01-1.08-4.07-1.55-6.12-1.3 2.05-3.4 9.02-3.3.11-.53-2.68-.59-11.58-5.6-8.34-3.81 3.43 4.5 5.27.63 7.65-3.54 2.49-2.47-4.97-5.34-5.38-3.2-.87-1.98 4.55-4.95 4.03-2.44-.03-1.87-3.28-2.1-4.95 3.77-3.03 12.48-2.17 11.58-8.65m18.65 13.57c.52 2.04.68 5.21 3.62 3.9 2.77-1.9-1.08-5.01-3.62-3.9z"/><path fill="#39471c" opacity=".85" d="M294.31 134.14l3.68 2.08-1 1.91c-5.18-.06-10.07-1.94-15.21-2.29 3.97-1.51 8.39-.94 12.53-1.7z"/><path fill="#826f48" d="M164.29 139.82c.79-3.07 4.78-3.63 7.48-4.16 2.9 0 6.11.11 5.61 3.85-5.24.15-8.18 6.61-5.39 10.97a26.81 26.81 0 0 1-2.93.76c-1.55-3.83-3.06-7.67-4.77-11.42z"/><path fill="#cbbba2" d="M221.17 138.12c4.07-1.66 1.9 5.76-.04 6.93-.69-2.29-.81-4.67.04-6.93z"/><path fill="#a59c7a" d="M171.99 150.48c-2.79-4.36.15-10.82 5.39-10.97.87 3.34 1.03 6.99-2.26 8.89-1.4-2.3-1.1-3.84 1.88-3.77-.84-7.3-9.08 5.12-1.88 3.77-.93.85-1.95 1.62-3.13 2.08z"/><path fill="#d7ceba" d="M175.12 148.4c-7.2 1.35 1.04-11.07 1.88-3.77-2.98-.07-3.28 1.47-1.88 3.77z"/><path fill="#808847" d="M192.67 144.65c5.01-3.24 5.07 5.66 5.6 8.34-.1 8.91 2 1.94 3.3-.11.47 2.05.92 4.11 1.55 6.12 1.63-2.5 4.29-3.91 6.28-.88-1.29 4.92 4.65 3.3 7.55 3.71-1.45-4.02.4-5.28 4.11-5.97.41-4.27-5.3-4.08-5.2-7.97 2.35-1.36 5.97-.83 6.37 2.31 3.3 8.75 11.73 14.75 13.13 24.5l-.29 14.57c-9.68 3.76-3.75-5.54-7.72-9.12 1.68-1.86 3.78-4.28-.28-4.12-5.66 2.68-.92 8.78-5.22 13.08 2.22.13 5.47-3.96 6.15-.12-1.63 5.21-8.43 4.07-12.45 6.11.56 2.51-1.02 1.77-2.58.86 2.41-5.13-2.81-2.49-2.91.99-1.95-2.7-2.59-8.22-1.1-12.65 10.95.24 10.26-18.54-.51-18.64-3.11-1.09-9.38-2.9-9.84 1.95-.13 4.98 2.49 9.55 6.61 12.31-2.36.77-4.77 1.39-7.1 2.26 1.39 3.02 3.44 5.83 7.1 4.25-.3 2.25-1.25 4.76-3.9 4.8 4.12 2.81-2.5 4.98-1.85 8.18-.28.24 1.33 9.36-1.91 6.89-3.61-3.16-3.01 3.8-4.73 5.85-1.11 2.1-2.99 2.32-3.97-.04 3.47-3.06 5.88-10.25 1.29-13.23-5.19-3.55-1.03-10.74-.14-15.77-2.18-1.37-7.32 1.43-5.85-2.72 2.37-.2 4.4-1.03 4.87-3.59-1.82.49-3.46 1.45-5.17 2.22.21-2.91 1.66-5.46 2.91-8.02-2.72-2.96-4.29-.53-6.66 1.05-3.58-6.38 3.18-10.58 2.29-16.56 3.52-1.65 5.96-4.5 5.56-8.57 2.87.41 1.8 7.87 5.34 5.38 3.87-2.38-4.44-4.22-.63-7.65z"/><path fill="#6a703b" d="M211.14 150.92c2.54-1.11 6.39 2 3.62 3.9-2.94 1.31-3.1-1.86-3.62-3.9z"/><path fill="#242d11" opacity=".64" d="M265.91 152.03l1.01-.03c4.72.02 9.52-.32 14.12 1.04-4.98-.19-9.98.11-14.95-.13l-.18-.88z"/><path fill="#696035" d="M198.61 167.61c.46-4.85 6.73-3.04 9.84-1.95-.77 1.43-1.61 2.83-2.33 4.29-.43 3.12-.42 6.35.86 9.27l-1.18 1.18-.58-.48c-4.12-2.76-6.74-7.33-6.61-12.31z"/><path fill="#8b7127" d="M208.45 165.66c10.77.1 11.46 18.88.51 18.64l-3.16-3.9c.29-.3.89-.89 1.18-1.18 2.27-1.13 7.09-.32 6-4.1-1.43-2.65-3.36-5.75-6.86-5.17.72-1.46 1.56-2.86 2.33-4.29z"/><path fill="#998155" d="M206.12 169.95c3.5-.58 5.43 2.52 6.86 5.17 1.09 3.78-3.73 2.97-6 4.1-1.28-2.92-1.29-6.15-.86-9.27m2.22 5.26c1.52 5.25 6.31-2.32 0 0z"/><path fill="#d4c6b0" d="M208.34 175.21c6.31-2.32 1.52 5.25 0 0z"/><path fill="#59652e" d="M221.85 189.11c4.3-4.3-.44-10.4 5.22-13.08 4.06-.16 1.96 2.26.28 4.12 3.97 3.58-1.96 12.88 7.72 9.12l.8-.08c.62.7 1.27 1.37 1.97 2.01 3.96 1.22 8.45 1.18 12.48.08 5.12-1.34 9.47 1.6 13.81 3.71 2.33 1.8 5.04 3.21 6.86 5.6-2.17 3.14.13 6.54-1.96 10.16l1.85.38c-1.23 1.02-2.58 1.87-3.86 2.8-1.7.69-3.39 1.4-5.11 2.01l1.26-2.62c5.32-3.59 4.35-15.36-2.97-13.19-2.92 1.46-3.58-.36-3.56-3.07-4.37.01-11.08-.25-10.8 5.82-4.15 2.55-1.35-5-.9-7.08-2.8.69-5.31 8.79-6.46 2.37-7.19-3.8-3.71 6.81-9.1 6.82-.52-1.18-.13-3.81-2.12-2.7-.98 3.82-5.19 7.64-3.07 11.6 4.38.93 7.87-1.89 8.54-6.14-1.86 5.34 2.54 7.58 5.92 9.98 1.4-2.39 3.41-3.92 6.26-3.74.41 2.01-.79 5.45 2.29 5.49-4.67 2.23-12.07-1.97-11.89 5.76 1.67-5.54-4.89-5.15-5.35-.58 7.63.94-4.16 2.86-6.01 2.34-4.48-1.79 8.71-4.73 2.13-6.08-10.59.68-17.14-8.99-14.17-18.87l1.06-6.09c1.56.91 3.14 1.65 2.58-.86 4.02-2.04 10.82-.9 12.45-6.11-.68-3.84-3.93.25-6.15.12z"/><path fill="#96a25f" d="M198.12 182.18l7.1-2.26.58.48 3.16 3.9c-1.49 4.43-.85 9.95 1.1 12.65.1-3.48 5.32-6.12 2.91-.99l-1.06 6.09c-3.72-7.87-8.95 11.42-7.05-2.07-5.35 1.39-.87 7.65 3.18 8.07 4.44 4.8-2.45 5.86-5.06 8.11.98 1.94 2.71 3.31 4.17 4.88-6.14 3.27-4.39-.04-4.53-2.28-2.3-1.16-4.12-3.09-6.53-4.06-1.24-.67-2.79-1.06-3.26-2.55 1.72-2.05 1.12-9.01 4.73-5.85 3.24 2.47 1.63-6.65 1.91-6.89-.65-3.2 5.97-5.37 1.85-8.18 2.65-.04 3.6-2.55 3.9-4.8-3.66 1.58-5.71-1.23-7.1-4.25z"/><path fill="#50552b" d="M139.92 196.98c4.85-3.59-4.27-13.67 3.75-11.82.46 4.03 1.94 9.41 6.98 9.09 8.72-1.35 14.79 7.51 22.37 9.89-.69-2.03-1.63-3.96-2.27-6.01 2.8 1.82 5.78 3.47 8.28 5.72-1.33 1.65-2.81 3.19-4 4.96 2.28 1.45 5.74 2.16 4.86 5.65-2.8-.68-6.63-.16-8.42-2.88-2.45-5.01-9.1-1-12.53 1.35-3.83 5.18-7.26 10.79-4.2 17.31-2.8.02-3.96-2.72-5.72-4.41-1.57 3.9.58 8.9 5 7.69 6.4-.86 13.03 10.97 6.13 12.92-1.08 2.88 2.36 4.32 4.67 4.54 2.51-2.15.91-8.12 5.49-6.67 3.06.07 14.06-.81 10.49 3.52-4.03-1.93-8.52 1.49-7.56 5.83 2.08 4.99 6.91-.46 7.5 5.74.46 1.47 1.19 2.83 2.11 4.06l.38 1.44c-.66 1.92-1.82 3.21-3.94 2.47-1.44-1.14-2.86-2.31-4.36-3.36-6.79-5.61-20.18-7.19-21.9 3.91 5 6.86 10.76 17.95 20.97 16.06 3.85-.89 6.91.92 4.37 4.68-9.01-1.27-.82 4.73 1.92 6.01-1.85.14-3.7.31-5.54.53-3.75 0-8.23 3.59-11.41.4-4.36-5.61-12.8-1.05-16.67-7.21-.51-2.8 1.71-7.4-.73-9.27-1.83-.75-3.95-1.23-5.12-2.99 2.98-2.31 8.1 1.69 9.71-1.56-1.14-3.54 4.43-10.81-1.56-11.7-2.88-2.28 4.67-2.2 2.65-5.31 1.99-7.96-8.25-10.05-12.59-5.49-2.77-3.92-2.41-8.88-4.27-13.13.67-1.91.95-4.01.23-5.94.21-3.62-2.44-6.36-3.36-9.68-.59-5.54.91-10.94 4.22-15.36 2.28.15 4.53.04 4.59-2.78 5.38 1.31 11.12 2.37 15.62 5.79 2.16-3.43 5.6-2.97 9.06-1.98-2.79-3.31-9.32-6.21-5.29-11.01-6.71-3.29-14.16-.93-20.65 1.62-2.12-1.08-3.97-2.61-5.97-3.88l-1.1-.82 1.06-3.23c2.3 1.7 4.47 3.58 6.75 5.31z"/><path fill="#21270f" opacity=".6" d="M237.84 191.2l12.48.08c-4.03 1.1-8.52 1.14-12.48-.08z"/><path fill="#424922" d="M133.21 195.72c2 1.27 3.85 2.8 5.97 3.88 6.49-2.55 13.94-4.91 20.65-1.62-4.03 4.8 2.5 7.7 5.29 11.01-3.46-.99-6.9-1.45-9.06 1.98-4.5-3.42-10.24-4.48-15.62-5.79-.06 2.82-2.31 2.93-4.59 2.78 1.82-2.3 3.32-5.82-.42-7.07-.24-.49-.74-1.45-.98-1.93l-1.24-3.24z"/><path fill="#748647" d="M238.48 198.17c1.15 6.42 3.66-1.68 6.46-2.37-.45 2.08-3.25 9.63.9 7.08l-.93 11.11c-2.85-.18-4.86 1.35-6.26 3.74-3.38-2.4-7.78-4.64-5.92-9.98-.67 4.25-4.16 7.07-8.54 6.14-2.12-3.96 2.09-7.78 3.07-11.6 1.99-1.11 1.6 1.52 2.12 2.7 5.39-.01 1.91-10.62 9.1-6.82z"/><path fill="#809248" d="M245.84 202.88c-.28-6.07 6.43-5.81 10.8-5.82-.02 2.71.64 4.53 3.56 3.07-1.62 1.35-3.06 2.95-4.82 4.12-3.16-.62-6.32-3-9.54-1.37z"/><path fill="#98aa64" d="M260.2 200.13c7.32-2.17 8.29 9.6 2.97 13.19-2.28.68-3.73-.8-5.13-2.33-2.24 1.63-5.73 5.08-5.37-.09-2.96 2.1-4.88 8.92-7.76 3.09l.93-11.11c3.22-1.63 6.38.75 9.54 1.37 1.76-1.17 3.2-2.77 4.82-4.12z"/><path fill="#848c46" d="M208.04 208.05c-4.05-.42-8.53-6.68-3.18-8.07-1.9 13.49 3.33-5.8 7.05 2.07-2.97 9.88 3.58 19.55 14.17 18.87 6.58 1.35-6.61 4.29-2.13 6.08 1.85.52 13.64-1.4 6.01-2.34.46-4.57 7.02-4.96 5.35.58-1.33 6.35-3.2 12.75-7.27 17.92-1.91-4.65-7.27-3.01-11.11-1.97.86 2.46 3.26 1.18 5.13.95-.81 1.34-1.69 2.64-2.58 3.94-2.35-4.65-7.7 1.92-8.69 5.32-9.12-2.21-10.81 11.02-10.64 17.37 1.31 2.13 3.19 2.08 4.59.08.19 2.13-.26 4.23-.53 6.34 3.42-1.71 12.82-6.55 6.94-9.23l1.08-1.93c.5-.96.85-1.98 1.05-3.04.69-1.51-.38-2.79-1.14-4 4.65-.94 1.77-5.71 1.85-8.85 1.63-.69 3.4-.95 5.11-1.4.25 8.76 9.25 2.62 14.1 1.89 2.98 3.37-2.62 6.6-4.32 9.43-1.61-.62-4.97-.26-3.22 2.1 1.16 6.36-4.08 13.88-10.72 13.84 2.27-6.75-5.5-1.34 0 0l-.58 1.42c-7.1-1.26-13.19 6.64-20.08 4.35-6.09-3.48 1.74 3.89 3.07 6.19l-1.19 1.25c-2.15-5.97-3.61 5.93-6.18.81 3.94-5.62-4.01-9.53-4.72-14.96 3.39-3.71-3.22-3.41-2.03-8.16l-.38-1.44c5.39-1.78 10.6-4.03 15.99-5.81-.46-3.88-6.85-3.28-9.67-2.95-.7-1.81-.45-5.14-3.19-4.84l.81 6.58c-3.15 1.71-3.37-4.61-4.11-6.64.71-8.65 8.67 4.01 13.49.25-1.36-4.65-7.75-2.34-10.01-6.33-3.41-5.34 4.21-3.55 2.31-7.72 2.14.32 4.23.87 6.38 1.18-3.05-3.18.13-7.56-2.67-10.77 4.55-1.31 1.79-8.19 3.91-11.71 2.41.97 4.23 2.9 6.53 4.06.14 2.24-1.61 5.55 4.53 2.28-1.46-1.57-3.19-2.94-4.17-4.88 2.61-2.25 9.5-3.31 5.06-8.11m9.28 16.29c-3.6.21-5.07 6.1-.32 4.71 4.77 5.34 7.03-3.46 2.98-2.05-4.11 1.47.72-4.7-2.66-2.66m-16.12 4.07c-4.92 2.31-1.8 5.34-.09 8.52-2.87-1.44-5.34.43-7.97 1.43-.55 7.87 10.24 3.68 12.2-1.05 2.45 1.84 6.65 2.26 5.66-2.1-6.28 2.58-7.56-5-9.8-6.8m-7.99 36.78c-2.5 1.17-.61 4.44 1.75 3.88-.18-1.57 1.07-5.25-1.75-3.88z"/><path fill="#818b48" opacity=".95" d="M269.03 210.75c2.09-3.62-.21-7.02 1.96-10.16 2.83 2.81 2.96 7.86-.11 10.54l-1.85-.38z"/><path fill="#717f34" d="M244.91 213.99c2.88 5.83 4.8-.99 7.76-3.09-.36 5.17 3.13 1.72 5.37.09 1.4 1.53 2.85 3.01 5.13 2.33l-1.26 2.62-4.87 2.16-6.16.68-3.68.7c-3.08-.04-1.88-3.48-2.29-5.49z"/><path fill="#808c55" d="M188.26 216.17c4.12-1.45 8.31 6.25 2.76 6.95-4.63 2.62-7.15-5.03-2.76-6.95z"/><path fill="#2b3013" opacity=".65" d="M250.88 218.78l6.16-.68-6.16.68z"/><path fill="#6e632b" d="M217.32 224.34c3.38-2.04-1.45 4.13 2.66 2.66 4.05-1.41 1.79 7.39-2.98 2.05-4.75 1.39-3.28-4.5.32-4.71z"/><path fill="#a1ad65" d="M201.2 228.41c2.24 1.8 3.52 9.38 9.8 6.8.99 4.36-3.21 3.94-5.66 2.1-1.96 4.73-12.75 8.92-12.2 1.05 2.63-1 5.1-2.87 7.97-1.43-1.71-3.18-4.83-6.21.09-8.52z"/><path fill="#2a2c18" opacity=".61" d="M134.17 232.98l.82.02c.72 1.93.44 4.03-.23 5.94l-.59-5.96z"/><path fill="#6d6c2e" opacity=".98" d="M216.93 241.19c3.84-1.04 9.2-2.68 11.11 1.97-4.73 4.48 1.74 3.6 5.16 5.47-4.85.73-13.85 6.87-14.1-1.89l.38-.66c.89-1.3 1.77-2.6 2.58-3.94-1.87.23-4.27 1.51-5.13-.95z"/><path fill="#8a9e5e" d="M210.79 251.4c.99-3.4 6.34-9.97 8.69-5.32l-.38.66c-1.71.45-3.48.71-5.11 1.4-.08 3.14 2.8 7.91-1.85 8.85-7.54-4.26-9.04 6.78-7.4 11.86-1.4 2-3.28 2.05-4.59-.08-.17-6.35 1.52-19.58 10.64-17.37z"/><path fill="#586532" d="M139.03 252.07c4.34-4.56 14.58-2.47 12.59 5.49 2.02 3.11-5.53 3.03-2.65 5.31 5.99.89.42 8.16 1.56 11.7-1.61 3.25-6.73-.75-9.71 1.56-1.2-1.51-2-3.28-2.82-5 .04-5.5-3.73-10.53-.78-16.02l1.81-3.04z"/><path fill="#7c722b" d="M180.74 259.4c1.38-3.01 1.51-6.37 1.94-9.6.74 2.03.96 8.35 4.11 6.64l2.38-1.74c2.82-.33 9.21-.93 9.67 2.95-5.39 1.78-10.6 4.03-15.99 5.81-.92-1.23-1.65-2.59-2.11-4.06z"/><path fill="#cfc2aa" d="M185.98 249.86c2.74-.3 2.49 3.03 3.19 4.84l-2.38 1.74-.81-6.58z"/><path fill="#796c34" d="M204.74 268.85c-1.64-5.08-.14-16.12 7.4-11.86.76 1.21 1.83 2.49 1.14 4-3.57-3.64-8.15 5.07-4.66 5.79l2.53-.82c5.88 2.68-3.52 7.52-6.94 9.23.27-2.11.72-4.21.53-6.34z"/><path fill="#6c5c35" d="M153.03 267.92c1.72-11.1 15.11-9.52 21.9-3.91l-1.8-.04c-8.92-2.38-6.52 9.31-4.4 14.26 3.39.32 4.78 2.59 5.27 5.75-10.21 1.89-15.97-9.2-20.97-16.06z"/><path fill="#aa977b" d="M208.62 266.78c-3.49-.72 1.09-9.43 4.66-5.79-.2 1.06-.55 2.08-1.05 3.04.06-4.43-3.57.82-3.61 2.75z"/><path fill="#e6dcca" d="M208.62 266.78c.04-1.93 3.67-7.18 3.61-2.75l-1.08 1.93-2.53.82z"/><path fill="#7b783b" d="M168.73 278.23c-2.12-4.95-4.52-16.64 4.4-14.26-3.26 1.34-1.57 6.77.81 8.13 1.89-1.45 3.59-3.13 5.35-4.73 2.12.74 3.28-.55 3.94-2.47-1.19 4.75 5.42 4.45 2.03 8.16.71 5.43 8.66 9.34 4.72 14.96 2.57 5.12 4.03-6.78 6.18-.81-2.73 3.05-5.31 6.24-8.05 9.29-1.4-1.23-3.46-1.21-5.02-.31-.93-.53-1.86-1.03-2.8-1.52-2.74-1.28-10.93-7.28-1.92-6.01 2.54-3.76-.52-5.57-4.37-4.68-.49-3.16-1.88-5.43-5.27-5.75z"/><path fill="#b8ac92" d="M173.13 263.97l1.8.04 4.36 3.36-5.35 4.73c-2.38-1.36-4.07-6.79-.81-8.13z"/><path fill="#b3ae8b" d="M193.21 265.19c2.82-1.37 1.57 2.31 1.75 3.88-2.36.56-4.25-2.71-1.75-3.88z"/><path fill="#bbab91" d="M214.94 274c2.27-6.75-5.5-1.34 0 0z"/><path fill="#6b692c" opacity=".96" d="M194.28 279.77c6.89 2.29 12.98-5.61 20.08-4.35-.72 1.91-1.64 5.19-4.34 4.36-5.01-1.03-8.92 3.44-12.67 6.18-1.33-2.3-9.16-9.67-3.07-6.19z"/><path fill="#292913" opacity=".62" d="M145.94 279.12c2.44 1.87.22 6.47.73 9.27l-.57-.57-.16-8.7z"/><path fill="#2f2614" opacity=".68" d="M174.75 295.2l5.54-.53 2.8 1.52-8.34-.99z"/></svg>