<svg xmlns="http://www.w3.org/2000/svg" width="512" height="512" viewBox="0 0 384 384" xmlns:v="https://vecta.io/nano"><path fill="#585d32" d="M216.02 96.13c2.9-2.06 6.33-2.69 9.91-2.17.8.51 1.58 1.06 2.35 1.63-3.26.19-13.55 1.82-7.96 6.04.99 2-.12 4.67 1.31 6.71-1.29 1.99-4.46-2.41-6.43-3.22-1.2 1.31-2.24 2.76-3.3 4.17-3.24 2.12-.57-4.12-3.6-2.85-4.22 1.11-5.87-6.92-10.81-3.02-2.95 5.03-8.94 13.52-13.63 5.59-6.23 4.72 12.2 6.9 4.89 12.89-5.51 2.1-2.53-6.65-6.64-5.8-4.68.2-2.33 3.46.57 4.62-2.64 2.09-6.21 5.45-9.41 2.45l-.77 1.68c-5.05 1.41-1.65-1.72-1.54-4.64-3.36-2.23-7.2-.12-10.44 1.25 1.04 5.5-4.67 4.62-7.55 6.71 1.25 4.53 1.87 9.17 2.23 13.85 3.7-1.6 2.49-10.99 9.77-8.25 2.61.01 8.72-2.33 7.41 1.94-4.34-.39-14.74 2.53-10.79 7.69 2.76 1.83 2.8 5.37 4.27 8.04 2.37 2.51 2.41 6.53 5.02 8.72 1.1-2.12 1.63-4.48 2.84-6.54.13 2.64.15 10.28-4.59 8.93-6.01 2.73-3.67 11.19 1.53 13.1 3.24-.54 1.62 2.46 1.11 4.36-5.7-.51-10.03-12.55-14.43-4.72.09 3.05 5.3 5.36 6.64 8.59-1.5 2.34-3.86 4.94-1 7.32 1.44 4.28 4.1-3.41 6.29.46 2.44 1.49 8.87 8.65 2.57 7.62-1.77-.32.87 2.03 1.04 2.83-3.51-2.12-3.95-.43-2.94 3.01-5.02-.57-8.26-5.28-12.77-7.23-5.23-3.05-11.29-2.07-16.86-3.88-.12 9.23-10.87.11-10.24-5.21-1.72-7.83 6.62-12.74 5.31-20.67.61-1.38 1.28-2.74 1.91-4.11a23.29 23.29 0 0 0 1.02-2.79c3.92-6.72 3.18-13.72 3.45-21.18l.2-1.97.14-1.98.1-.91 2.1-3.81 3.93-4.45c3.69-2.14 7.7-3.88 10.92-6.73 2.57-2.59 5.52-4.74 8.75-6.45l6.35-.3c.99-.74 1.96-1.5 2.9-2.31 6.38-5.42 14.22-10.07 21.72-13.1 2.34 1.28 5.73 2.84 7.13-.16 1.61-.45 3.24-.85 4.88-1.23 1.67.73 3.81 1.01 5.14-.52z"/><path fill="#6d7535" opacity=".98" d="M220.32 101.63c-5.59-4.22 4.7-5.85 7.96-6.04 4.81 4.17 9.3 9.87 16.28 10 2.17.37 3.64 2.12 5.26 3.44.87 1.51 1.74 3.04 2.44 4.64-7.83 6.65-13.96-5.76-21.07-7.29-3.29 3.22-9.93-5.63-9.56 1.96-1.43-2.04-.32-4.71-1.31-6.71z"/><path fill="#838d4e" d="M269.03 100.92c10.7-2.83 11 10.75 18.59 14.43 1.54 4.69 8.78 3.88 8 10.03 2.07 1.2 4.84 1.79 5.75 4.33-4.06 2.47-7.07-2.22-10.44 2.08-2.31-.42-3.08-8.49-7.27-5.14-2.68 3.27 1.99 4.3 4.34 5.31-6.9 4.55-9.36-2.75-6.21-7.12-4.39-1.25-4.04 3.31-6.16 5.71 1.75 2.89 3.91 5.94 3.56 9.49-2.4 2.69.06 3.89 2.73 4.45 2.54 1.39 4.92 1.43 7.14.1 3.95 2.35 11.21 3.43 10.13 9.41l-2.13 1.35c-1.75-.67-3.47-2-5.39-1.1-3.9.91-4.28-4.38-7.51-5.27-2.01 2.85-5.38 3.71-8.73 3.79-1.56-6.88-9.85-9.22-10.43-16.65 1.13-2.47 3.2-4.39 4.32-6.88l-6.29 2.46c-3.03.46-5.99 1.08-9.04 1.29-2.25-4.55 1.14-6.77 3.05-9.8-1.54-.59-3.71-2-4.84 0-5.17 4.8 1.65 12.91-4.36 17.27-2.8-2.05-.73-3.71 1.2-5.36-1.93-.89-3.96-1.55-5.89-2.42.34-2.31 2.75-3.81 3.12-6.21-4.62 1.76-7.69-2.13-8.09-6.38 1.48-1.94 4.14-.5 6.16-.53-2.19-5.86-10.98-6.19-10.02 1.34l-.34 1.01c-6.61-3.2-13.95-5.46-21.78-3.82-1.81 2.32-5.58 4.55-8.07 1.83 1.12-3.34 2.54-7.39 5.81-9.09.09 2.14-2.07 5.64 1.36 5.83 4.9.85.34-4.9.6-7.37 1.06-1.41 2.1-2.86 3.3-4.17 1.97.81 5.14 5.21 6.43 3.22-.37-7.59 6.27 1.26 9.56-1.96 7.11 1.53 13.24 13.94 21.07 7.29 8.64-1.21 4.56 10.96 10.64 14.69 3.61-4.56-8.27-17.22 1.71-13.45-3.44-5.3 5.96-8.22 7.04-2.74-.58 3.88-3.11 7.13-3.75 10.99 2.29-1.76 3.39-5.68 6.83-5.21-2.57 12.81 11.45-2.3 4.81-4.34-5.95 1.47-4.63-4.94-6.32-7.82-1.85-1.29-5.84-1.05-4.8-4.22l.61-.65m15.19 15.21c-2.44 1.15-.09 3.41 1.78 2.89 4.19 1.04.94-4.76-1.78-2.89z"/><path fill="#575b30" d="M261.2 107.42c3.35-.52 4.91-3.77 7.22-5.85-1.04 3.17 2.95 2.93 4.8 4.22 1.69 2.88.37 9.29 6.32 7.82 6.64 2.04-7.38 17.15-4.81 4.34-3.44-.47-4.54 3.45-6.83 5.21.64-3.86 3.17-7.11 3.75-10.99-1.08-5.48-10.48-2.56-7.04 2.74-9.98-3.77 1.9 8.89-1.71 13.45-6.08-3.73-2-15.9-10.64-14.69-.7-1.6-1.57-3.13-2.44-4.64 1.66-.51 3.33-.96 5.02-1.37l6.36-.24z"/><path fill="#6d7535" d="M197.49 103.42c4.94-3.9 6.59 4.13 10.81 3.02 3.03-1.27.36 4.97 3.6 2.85-.26 2.47 4.3 8.22-.6 7.37-3.43-.19-1.27-3.69-1.36-5.83-3.27 1.7-4.69 5.75-5.81 9.09 2.49 2.72 6.26.49 8.07-1.83 7.83-1.64 15.17.62 21.78 3.82-.81 2.71-2.02 5.27-2.94 7.94 2.37 2.68 11.05 9.52 3.85 9.56-1.7-1.55-3.61-9.51-5.28-5.6-2.47-2.15-3.39-7.16-7.5-4.67.49 2.05 1.35 4 1.75 6.08-2.83-.98-5.38-3.9-8.57-3.03-4.58 3.27-.26 10.91 2.97 14.02-1.25 1.53-2.54 3.02-3.61 4.69-3.52-3.14-4.48-8.97-7.85-11.65-2.44.09-11.71 3.24-5.5 3.15-3.05 7.07-9.66-2.11-9.15-6.48 3.97 1.16 3.23-3.41 3.87-5.86 1.89.99 3.95 4.42 5.94 1.78-.45-3-4.29-4.91-6.91-5.87-2.64 2.3-5.64 1.47-8.6.25-.62-2.23-1.54-4.47-3.77-5.5-2.9-1.16-5.25-4.42-.57-4.62 4.11-.85 1.13 7.9 6.64 5.8 7.31-5.99-11.12-8.17-4.89-12.89 4.69 7.93 10.68-.56 13.63-5.59m26.55 18.82c-3.26 1.49-6.84 2.21-9.99 3.9-.33 2.61 3.45 2.26 4.95 3.76 2.1-1.74 7.26-6.44 5.04-7.66z"/><path fill="#292e16" opacity=".66" d="M254.84 107.66l6.36-.24-6.36.24z"/><path fill="#6d642c" d="M234.32 120.9c-.96-7.53 7.83-7.2 10.02-1.34-2.02.03-4.68-1.41-6.16.53.4 4.25 3.47 8.14 8.09 6.38-.37 2.4-2.78 3.9-3.12 6.21 1.93.87 3.96 1.53 5.89 2.42-1.93 1.65-4 3.31-1.2 5.36-2.89-1.22-6.59-1.06-8.7-3.69 1.34-5.78-2.35-10.92-4.82-15.87z"/><path fill="#bbb575" d="M284.22 116.13c2.72-1.87 5.97 3.93 1.78 2.89-1.87.52-4.22-1.74-1.78-2.89z"/><path fill="#65713d" d="M160.52 121.46c3.24-1.37 7.08-3.48 10.44-1.25-.11 2.92-3.51 6.05 1.54 4.64.73 7.61 5.63 14.24 5.49 22.21-.5 7.63 5.17.45 7.27.6.21 4.09-2.18 6.38-5.72 7.85-.34 5.89-5.77 11.57-2.52 17.51 4.04-1.63 5.11-8.77 10.01-5.83-2.68 3.52-7.18 6.23-6.94 11.7 1.99-.35 3.97-.79 5.99-.98-1.17 2.2-2.2 5.2-6.1 3.42.49 3.75 6.75.4 8.13 4.59.67-3.22-.65-7.04 2.68-9.14 4.23-4.71 4.06 8.47.68 3.89-3.43-2.87-1.35 6.02-2.19 8.2-.48 2.88-.62 5.86 3.17 5.44-.18 1.63 1.6 5.66-1.3 4.56-4.17-1.96-.74-10.22-5.94-11.02l-1.07 5.35c-.21-3.57-.65-8.19-5.17-8.34 4.56 4.47-3.33 10.99-2.24 1.13-4.69 1-9.61 2.59-13.75 5.21-2.86-2.38-.5-4.98 1-7.32-1.34-3.23-6.55-5.54-6.64-8.59 4.4-7.83 8.73 4.21 14.43 4.72.51-1.9 2.13-4.9-1.11-4.36-5.2-1.91-7.54-10.37-1.53-13.1 4.74 1.35 4.72-6.29 4.59-8.93-1.21 2.06-1.74 4.42-2.84 6.54-2.61-2.19-2.65-6.21-5.02-8.72.75.02 1.5-.03 2.25-.13 1.45-.36 2.74-1.2 3.82-2.23.87-.94 1.71-1.92 2.46-2.97a17 17 0 0 0-.2-6.4c-.16-1.51-.96-2.79-1.81-4 1.31-4.27-4.8-1.93-7.41-1.94-7.28-2.74-6.07 6.65-9.77 8.25-.36-4.68-.98-9.32-2.23-13.85 2.88-2.09 8.59-1.21 7.55-6.71z"/><path fill="#838d48" d="M182.68 120.72c2.23 1.03 3.15 3.27 3.77 5.5 2.96 1.22 5.96 2.05 8.6-.25 2.62.96 6.46 2.87 6.91 5.87-1.99 2.64-4.05-.79-5.94-1.78-.64 2.45.1 7.02-3.87 5.86-4.05-2.57-1.37 5.96-4.27 6.97-3.48.92-6.91 2.08-9.89 4.17.14-7.97-4.76-14.6-5.49-22.21.2-.42.58-1.26.77-1.68 3.2 3 6.77-.36 9.41-2.45z"/><path fill="#42481c" opacity=".98" d="M234.32 120.9c2.47 4.95 6.16 10.09 4.82 15.87 2.11 2.63 5.81 2.47 8.7 3.69 5.8 3.8 14.11-2.48 15.19-8.76.02 5.58 4.98 11.83-.11 16.32 5.19-.3 8.05 1.21 6.76 6.15-6.66-1.63-13.42-3.29-18.52-8.16-3.39-5.76-10.43-5.77-16.27-6.6 7.2-.04-1.48-6.88-3.85-9.56.92-2.67 2.13-5.23 2.94-7.94l.34-1.01z"/><path fill="#83954b" d="M224.04 122.24c2.22 1.22-2.94 5.92-5.04 7.66-1.5-1.5-5.28-1.15-4.95-3.76 3.15-1.69 6.73-2.41 9.99-3.9z"/><path fill="#676831" d="M252.2 123.19c1.13-2 3.3-.59 4.84 0-1.91 3.03-5.3 5.25-3.05 9.8 3.05-.21 6.01-.83 9.04-1.29-1.08 6.28-9.39 12.56-15.19 8.76 6.01-4.36-.81-12.47 4.36-17.27z"/><path fill="#58682f" opacity=".98" d="M275.63 130.55c2.12-2.4 1.77-6.96 6.16-5.71-3.15 4.37-.69 11.67 6.21 7.12 3.01 6.13 10.09 1.59 14.17 6.27-.27.29-.8.89-1.07 1.19-1.93-.94-4.13-.87-6.1-.11l-1.94-1.46c-2.05-1.91-5.52-2.33-7.21-.04-2.27.58-4.48 1.39-6.66 2.23.35-3.55-1.81-6.6-3.56-9.49z"/><path fill="#9ba55a" d="M283.66 126.65c4.19-3.35 4.96 4.72 7.27 5.14 3.37-4.3 6.38.39 10.44-2.08 1.43 2.39 3.01 6.08.8 8.52-4.08-4.68-11.16-.14-14.17-6.27-2.35-1.01-7.02-2.04-4.34-5.31z"/><path fill="#4c4e1d" opacity=".95" d="M222.11 129.14c4.11-2.49 5.03 2.52 7.5 4.67 1.67-3.91 3.58 4.05 5.28 5.6-4.81-.21-12.5-5.55-10.59 3.8a60.76 60.76 0 0 0-.44-7.99c-.4-2.08-1.26-4.03-1.75-6.08z"/><path fill="#5d682f" d="M263.03 131.7l6.29-2.46c-1.12 2.49-3.19 4.41-4.32 6.88.58 7.43 8.87 9.77 10.43 16.65 3.35-.08 6.72-.94 8.73-3.79 3.23.89 3.61 6.18 7.51 5.27 1.92-.9 3.64.43 5.39 1.1-4.58 1.09-9.4.96-13.9-.38-4.41-1.3-8.98-.87-13.48-.8 1.29-4.94-1.57-6.45-6.76-6.15 5.09-4.49.13-10.74.11-16.32z"/><path fill="#987f4e" d="M215.29 132.19c3.19-.87 5.74 2.05 8.57 3.03a60.76 60.76 0 0 1 .44 7.99l-1.05 1.98-4.99 1.02c-3.23-3.11-7.55-10.75-2.97-14.02m3.89 6.83c-.53 1.96-1.18 4.04-.05 5.93 2.29-.67 4.17-6.6.05-5.93z"/><path fill="#8f9d64" d="M187.88 142.89c2.9-1.01.22-9.54 4.27-6.97-.51 4.37 6.1 13.55 9.15 6.48-6.21.09 3.06-3.06 5.5-3.15 3.37 2.68 4.33 8.51 7.85 11.65 1.83 1.53 3.86 2.87 5.33 4.78-2.7 1.49-6.81 2.13-5.17 6.14-2.96-1.3-7.38 3.11-7.93-1.51.29-4.07-6.39-4.97-4.09-.17-3.83-1.69-9.92-3.02-7.49-9.17.78-3.02-3.69-9.83-5.74-5.37-2.55 2.86 4.5 7.23-.83 8.05-3.38 1.93-1.17-4.54-3.47-5.99-2.1-.15-7.77 7.03-7.27-.6 2.98-2.09 6.41-3.25 9.89-4.17m21.03 8.23c-.14 1.98-.01 5.56 2.91 4.8 2.27-2.55.05-4.87-2.91-4.8z"/><path fill="#7f6c47" d="M161.59 143.4c-3.95-5.16 6.45-8.08 10.79-7.69.85 1.21 1.65 2.49 1.81 4-5.09.04-7.39 7.31-6.08 11.6-.75.1-1.5.15-2.25.13-1.47-2.67-1.51-6.21-4.27-8.04z"/><path fill="#d6c9b3" d="M219.18 139.02c4.12-.67 2.24 5.26-.05 5.93-1.13-1.89-.48-3.97.05-5.93z"/><path fill="#a29977" d="M168.11 151.31c-1.31-4.29.99-11.56 6.08-11.6a17 17 0 0 1 .2 6.4c.05-9.13-9.92 4.27-2.46 2.97-1.08 1.03-2.37 1.87-3.82 2.23z"/><path fill="#cec5ae" d="M171.93 149.08c-7.46 1.3 2.51-12.1 2.46-2.97-.75 1.05-1.59 2.03-2.46 2.97z"/><path fill="#7c8443" d="M189.56 145.6c2.05-4.46 6.52 2.35 5.74 5.37-2.43 6.15 3.66 7.48 7.49 9.17-2.3-4.8 4.38-3.9 4.09.17.55 4.62 4.97.21 7.93 1.51-1.64-4.01 2.47-4.65 5.17-6.14-1.47-1.91-3.5-3.25-5.33-4.78 1.07-1.67 2.36-3.16 3.61-4.69l4.99-1.02c-4.77 5.02-.38 11 3.06 15.41-3.86-1.84-3.06 3.65-3.58 6.22-2.88 1.27-.73-2.44-.89-3.88-5.35-2.45-8.1 2.13-10.05 5.87-1.77-1.14-3.65-2.15-5.71-2.65-3.94-1.18-8.62-2.03-10.85 2.11.62 5.24 2.43 10.59 7.67 12.81l.99 1.89c-2.76-.59-12.8-1.87-7.72 2.22-1.56 1.28-4 3.93.16 3.31-2.13 4.97-4.46-1.38-7.05.37.84-2.18-1.24-11.07 2.19-8.2 3.38 4.58 3.55-8.6-.68-3.89-3.33 2.1-2.01 5.92-2.68 9.14-1.38-4.19-7.64-.84-8.13-4.59 3.9 1.78 4.93-1.22 6.1-3.42-2.02.19-4 .63-5.99.98-.24-5.47 4.26-8.18 6.94-11.7-4.9-2.94-5.97 4.2-10.01 5.83-3.25-5.94 2.18-11.62 2.52-17.51 3.54-1.47 5.93-3.76 5.72-7.85 2.3 1.45.09 7.92 3.47 5.99 5.33-.82-1.72-5.19.83-8.05z"/><path fill="#656e39" d="M208.91 151.12c2.96-.07 5.18 2.25 2.91 4.8-2.92.76-3.05-2.82-2.91-4.8z"/><path fill="#848c48" d="M222.73 166.82c.52-2.57-.28-8.06 3.58-6.22 4.38 3.82 6.05 9.62 6.96 15.16-.14 5.03-.05 10.09-.33 15.12-2.73-.68-5.29-1.87-7.74-3.24.64-1.54 2.3-3.15.96-4.82-2.27-2.24 2.2-4.77-.24-6.84-6.26 1.72-3.98 8.33-5.86 12.97 1.48 1.25 5.51.23 4.81 2.91-4.05 2.53-9.38 3.64-13.76 1.25-.22 7.83-5.43 18.18 1.53 24.25 3.05 4.22 8.97 2.84 13.27 4.79.91 3.43-5.56 1.4-4.78 4.72 3 1.81 7.95.68 6.16-3.56 4.97-3.94 7.2-1.45 6.08 4.96-1.09 5.31-3.48 10.36-6.5 14.83-2.11-1.21-4.01-3.46-6.67-3.11-1.21 2.47-1.84 5.19-3.19 7.61-1.36-5.64-5.69.78-.33.69 1.74 5.93 6.88 2.76 10.33.43 4.8 2.63-.94 7.54-3.05 10.14-4.11-.58-5.03 1.92-4.09 6.15-1.56 2.76-2.74 5.8-4.8 8.24-1.57-.35-4.04-1.16-4.92.74-1 1.72-1.86 3.53-2.94 5.2-1.86-3.74-4.7-.55-7.12.78-2.59-.55-7.01-3.61-6.72.97-1.5-.63-2.92-1.43-4.42-2.07 1.29 2.49 2.99 4.74 4.37 7.18l-1.25 1.22c-2.88-3.89-8.69-7.12-12.55-2.86-3.29 2.44 1.03-4.5-2.75-3.75-5.15.32.98-7.58-3.7-8.75 1.14-1.27 2.3-2.53 3.33-3.89-.21 4.82 3.9 14.67 9.58 11.99-1.88-2.65-5.13-5.44-2.56-8.76-5.54-4.82 1.19-10.38 6.47-10.66 3.16-.47 9.71-4.12 6.99-7.49-3.07 1.2-6.29 1.84-9.56 2.15-1.25-1.61-1.73-7.21-4.19-4.04l.63 5.9c-3.42-.22-3.22-4.83-4.1-7.31 2.78-7.27 9.87 5.51 14.58-.39-3.54-2.4-13.21-1.95-10.9-8.75 2.23-.54 2.36-2.52 2.6-4.41 1.94.95 3.94 1.81 6.13 1.96-3.72 1.22-.82 9.35 3.43 5.31 4.01-2.37 7.48-5.89 12.47-5.73-.05-4.84-8.26-2.19-8.53-7.33-1.08-3.39-2.74-11.96-7.59-7.7.51-2.52.63-5.09 1.06-7.63 2.34.77 4.12 2.52 6.11 3.9 1.9-2.55 3.9-5.01 6.85-6.37.7-5.58-11.38-7.52-4.18-12.99-1.76 10.75 2.02 2.84 3.95.56-3.45-.29-5.55-5.91-8.63-2.37-1.88 2.2 1.87 7.43-2.23 8.4-3.88-.46-3.38 4.55-5 6.95-1.71 1.81-4.01 2.08-3.79-1.07 3.19-2.69 2.98-6.95 2.58-10.78-2.39-2.16-4.78-4.64-4.43-8.16l1.07-5.35c5.2.8 1.77 9.06 5.94 11.02 2.9 1.1 1.12-2.93 1.3-4.56-3.79.42-3.65-2.56-3.17-5.44 2.59-1.75 4.92 4.6 7.05-.37-4.16.62-1.72-2.03-.16-3.31 1.5 1.83 3.58 2.93 5.97 2.31-3.3 4.85-.35 7.77 3.79 10.5 1.52-2.3-.15-3.76-1.93-5.11 3.05-3.06-.54-6.34-.11-9.92 7.95 7.3 14.1-9.18 7.9-14.16 1.95-3.74 4.7-8.32 10.05-5.87.16 1.44-1.99 5.15.89 3.88m-8.6 58.56c-8.14 3.37 4.35 7.56 4.84 1.85-2.12.27-3.82-1.13-4.84-1.85m-5.78 26.64c-.36-3.61-4.72-.28-5.98 1.35-5.13 3.24-4.49 10.07-4.91 15.31 1.11 1.49 3.11 3.41 4.61 1.12 3.01 5.99-7.09-.06-5.89 4.96 1.52 2.28 4.35-1.38 6.73.02 3.19-1.2 11.15-7.26 6.3-8.66.48-1.23 1.97-5.46-.56-3.49-2.3.38-4.39 6.45-.75 5.34-5.21 6.78-5.08-10.34 1.42-7.42 4.65 1.75 1.09-1.82-.49-3.53 4.76 1.69 6.51-12.38 1.39-10.71-4.59-1.26 2.32 3.81-1.87 5.71m-18.37 13.93c-.44 2.07.53 4.54 3.04 4.1.44-2.08-.54-4.55-3.04-4.1z"/><path fill="#695f35" d="M195.23 168.27c2.23-4.14 6.91-3.29 10.85-2.11-2 3.11-5.58 6.18-3.2 10.15l.06 1.91-.04 2.86c-5.24-2.22-7.05-7.57-7.67-12.81z"/><path fill="#8b732e" d="M206.08 166.16c2.06.5 3.94 1.51 5.71 2.65 6.2 4.98.05 21.46-7.9 14.16l-.99-1.89.04-2.86c2.42 1 4.92-.08 7.04-1.28-.44-4.44-4.92-2.86-7.1-.63-2.38-3.97 1.2-7.04 3.2-10.15z"/><path fill="#af9a79" d="M202.88 176.31c2.18-2.23 6.66-3.81 7.1.63-2.12 1.2-4.62 2.28-7.04 1.28l-.06-1.91z"/><path fill="#59652d" d="M220.06 188.95c1.88-4.64-.4-11.25 5.86-12.97 2.44 2.07-2.03 4.6.24 6.84 1.34 1.67-.32 3.28-.96 4.82 2.45 1.37 5.01 2.56 7.74 3.24.28-5.03.19-10.09.33-15.12.46 4.95.79 9.92.99 14.9 2.56 3.8 8.99-.06 12.67 1.4l7.08-.16c1.95.79 3.93 1.51 5.89 2.28 2.97 2.22 6.24 4.1 8.9 6.71-4.03 1.36-1.26 8.02-2.02 11.56-4.93 2.94-10 5.97-15.73 6.99-1.77-.58-3.64-1.04-5.5-.64.28-10.26 12.25 2.43 15.42-5.73 1.92-2.51 3.48-5.28 3.02-8.64-1.27-4.91-5.73-4.31-9.83-3.69 3.11-6.15-7.61-3.94-10.27-.87-3.91 2.92-.89-3.28.14-4.98-3.91-1.88-6.44 8.63-7.47 4.86 1.13-6.62-7.46-1.44-7.15 2.62-.29 5.73-6.08-.03-3.99-3.7-.23 5.56-8.44 11.72-3.13 16.16 2.98.35 5.51-1.96 7.76-3.63-.79 3.65 3.62 4.25 5.99 5.7 1.74-1.3 3.08-3.66 5.61-2.87-.61 3.23.48 5.05 3.27 5.45l.19.69c-6.39-.57-13.47-.59-11.74 8.1 1.12-6.41-1.11-8.9-6.08-4.96 1.79 4.24-3.16 5.37-6.16 3.56-.78-3.32 5.69-1.29 4.78-4.72-4.3-1.95-10.22-.57-13.27-4.79-6.96-6.07-1.75-16.42-1.53-24.25 4.38 2.39 9.71 1.28 13.76-1.25.7-2.68-3.33-1.66-4.81-2.91z"/><path fill="#9daa69" d="M196.17 185.19c-5.08-4.09 4.96-2.81 7.72-2.22-.43 3.58 3.16 6.86.11 9.92 1.78 1.35 3.45 2.81 1.93 5.11-4.14-2.73-7.09-5.65-3.79-10.5-2.39.62-4.47-.48-5.97-2.31z"/><path fill="#5e663b" d="M178.97 184.86c4.52.15 4.96 4.77 5.17 8.34-.35 3.52 2.04 6 4.43 8.16.4 3.83.61 8.09-2.58 10.78-.22 3.15 2.08 2.88 3.79 1.07.59 1.23 2.01 1.4 3.13 1.92-.43 2.54-.55 5.11-1.06 7.63-1.52 1.91-.56 2.17 1.47 1.65-.56 1.91-2.5 2.39-4.14 3.03 1.78 2.05 1.78 4.4.07 6.51 1.95.55 5.42 2.12 2.82 4.26-2.19-.15-4.19-1.01-6.13-1.96-.24 1.89-.37 3.87-2.6 4.41-2.31 6.8 7.36 6.35 10.9 8.75-4.71 5.9-11.8-6.88-14.58.39-.46 3.47-.51 7.06-1.69 10.4-4.4-2.17-8.12-5.44-10.02-10.06 3.22-2.2 7.35-1.65 11.03-2.34-1.22-5.71-10.14-.33-14.13-3.53-.31 3.02.79 6.61-2.89 7.97-2.19-1.48-8.06-7.06-2.06-6.29 2.3-4.49-5.62-15.49-11.84-10.26-1.33-3.13-2.01-6.55-2.02-9.95 2.76.68 2.54 5.12 6.03 4.35-.82-3.18-5.23-7.58-.66-9.68 3.31-3.23 3.91-8.46 8.86-10.45 6.09-3.27 9.53 4.73 15.5 3.93 3.07-2.14-1.05-3.42-2.89-4.12 1.88-3.02 4.42-5.55 0-7.66-.17-.8-2.81-3.15-1.04-2.83 6.3 1.03-.13-6.13-2.57-7.62-2.19-3.87-4.85 3.82-6.29-.46 4.14-2.62 9.06-4.21 13.75-5.21-1.09 9.86 6.8 3.34 2.24-1.13m6.31 31.41c-2.98.63-1.92 4.3-2.17 6.53 1.73 1.71 4.48.63 6.67 1.01 2.98-3.2-1.28-7.67-4.5-7.54z"/><path fill="#474c26" d="M130.07 188.8c-.63 5.32 10.12 14.44 10.24 5.21 5.57 1.81 11.63.83 16.86 3.88 4.51 1.95 7.75 6.66 12.77 7.23-1.01-3.44-.57-5.13 2.94-3.01 4.42 2.11 1.88 4.64 0 7.66 1.84.7 5.96 1.98 2.89 4.12-5.97.8-9.41-7.2-15.5-3.93-2.65-1.72-4.83-.2-6.42 2.04-4.03-2.25-13.41-7.98-14.56-.6-.87 3.77-3.94-1.87-5.53-2.86 2.8-2.75 3.64-5.5-.38-7.46-.69-1.04-1.34-2.09-1.99-3.14l-1.27-2.11-.05-7.03z"/><path fill="#283114" opacity=".64" d="M246.93 192.06c1.4-2.88 4.76-1.61 7.08-.16l-7.08.16z"/><path fill="#6a7d43" d="M236.56 199.75c1.03 3.77 3.56-6.74 7.47-4.86-1.03 1.7-4.05 7.9-.14 4.98-.68 3.42-1.29 6.85-2.15 10.23-2.27-.98-1.11-3.29-.93-5.13-2.2.68-5.85 3.9-5.72-.3-2.78-2.02-3.19 4.76-5.04 6.53-2.25 1.67-4.78 3.98-7.76 3.63-5.31-4.44 2.9-10.6 3.13-16.16-2.09 3.67 3.7 9.43 3.99 3.7-.31-4.06 8.28-9.24 7.15-2.62z"/><path fill="#97a65f" d="M197.01 197.86c3.08-3.54 5.18 2.08 8.63 2.37-1.93 2.28-5.71 10.19-3.95-.56-7.2 5.47 4.88 7.41 4.18 12.99-2.95 1.36-4.95 3.82-6.85 6.37-1.99-1.38-3.77-3.13-6.11-3.9-1.12-.52-2.54-.69-3.13-1.92 1.62-2.4 1.12-7.41 5-6.95 4.1-.97.35-6.2 2.23-8.4z"/><path fill="#829248" d="M243.89 199.87c2.66-3.07 13.38-5.28 10.27.87 4.1-.62 8.56-1.22 9.83 3.69-2.08.26-3.96-.72-5.44-2.09-2.78-3.33-7.13 7.33-6.6.96-2.12.81-5.72 4.19-5.29-.29-5.35.1-1.93 12.6 2.8 8.57 2.54 3.88 7.6-1.01 11.51 1.49-3.17 8.16-15.14-4.53-15.42 5.73l-.63.68c-2.79-.4-3.88-2.22-3.27-5.45-2.53-.79-3.87 1.57-5.61 2.87-2.37-1.45-6.78-2.05-5.99-5.7 1.85-1.77 2.26-8.55 5.04-6.53-.13 4.2 3.52.98 5.72.3-.18 1.84-1.34 4.15.93 5.13.86-3.38 1.47-6.81 2.15-10.23z"/><path fill="#9bad6c" d="M251.95 203.3c-.53 6.37 3.82-4.29 6.6-.96 1.48 1.37 3.36 2.35 5.44 2.09.46 3.36-1.1 6.13-3.02 8.64-3.91-2.5-8.97 2.39-11.51-1.49-4.73 4.03-8.15-8.47-2.8-8.57-.43 4.48 3.17 1.1 5.29.29z"/><path fill="#808a46" opacity=".97" d="M266.78 212.45c.76-3.54-2.01-10.2 2.02-11.56l1.65 1.98c-1.06 1.91-.98 4.17-.1 6.13l-1.12 2.05-2.45 1.4z"/><path fill="#50552b" d="M139.29 211.4c1.15-7.38 10.53-1.65 14.56.6 1.59-2.24 3.77-3.76 6.42-2.04-4.95 1.99-5.55 7.22-8.86 10.45-4.57 2.1-.16 6.5.66 9.68-3.49.77-3.27-3.67-6.03-4.35.01 3.4.69 6.82 2.02 9.95 6.22-5.23 14.14 5.77 11.84 10.26-6-.77-.13 4.81 2.06 6.29 3.68-1.36 2.58-4.95 2.89-7.97 3.99 3.2 12.91-2.18 14.13 3.53-3.68.69-7.81.14-11.03 2.34 1.9 4.62 5.62 7.89 10.02 10.06 2.11 4.13 2.21 6.56-3.08 5.84-1.26-.58-2.48-1.23-3.7-1.89-3.47-1.89-7.16-3.63-10.89-4.82-5.95-.04-12.4 7.45-7.33 12.62 4.51 4.67 8.47 13.41 16.26 11.9 4.82-.76 10 6.06 2.74 5.78-.21 4.29 5.1 4.85 7.97 6.55-8.41-3.65-18.14 4.5-24.39-3.65-3.5-.48-7.09-.46-10.51-1.45-.75-.96-1.51-1.91-2.16-2.93-.46-2.99 1.29-6.74-.83-9.22-1.07-1.02-2.24-1.92-3.31-2.94 3.41-1.79 10.13 2.57 9.89-3.07-.83-3.5 2.22-9.08-2.91-9.79-2.17-1.67 2.01-2.58 3.22-3.34-.65-3.62-.88-11.49-6.3-9.2-4.2 2.25-6.65-8.2-6.5 2.41-.39-2.4-1.19-4.71-2.02-6.98l-.75-5.87c-2.31-5.2.88-11.11-3.51-15.95-.06-5.51-.16-11.36 3.9-15.66 1.59.99 4.66 6.63 5.53 2.86z"/><path fill="#7c8953" d="M185.28 216.27c3.22-.13 7.48 4.34 4.5 7.54-2.19-.38-4.94.7-6.67-1.01.25-2.23-.81-5.9 2.17-6.53z"/><path fill="#282d14" opacity=".61" d="M244.92 219.48l.63-.68c1.86-.4 3.73.06 5.5.64l-5.94.73-.19-.69z"/><path fill="#98a35b" d="M191.85 222.76c4.85-4.26 6.51 4.31 7.59 7.7.27 5.14 8.48 2.49 8.53 7.33-4.99-.16-8.46 3.36-12.47 5.73-4.25 4.04-7.15-4.09-3.43-5.31 2.6-2.14-.87-3.71-2.82-4.26 1.71-2.11 1.71-4.46-.07-6.51 1.64-.64 3.58-1.12 4.14-3.03-2.03.52-2.99.26-1.47-1.65z"/><path fill="#6e6129" d="M214.13 225.38c1.02.72 2.72 2.12 4.84 1.85-.49 5.71-12.98 1.52-4.84-1.85z"/><path fill="#222715" opacity=".6" d="M133.37 240.15l.75 5.87c-1.79-1.15-1.79-3.42-1.31-5.26l.56-.61z"/><path fill="#6f6a2e" opacity=".98" d="M220.2 239.99c2.66-.35 4.56 1.9 6.67 3.11-2.47 1.81-4.13 5.02.14 5.62-3.45 2.33-8.59 5.5-10.33-.43l.33-.69c1.35-2.42 1.98-5.14 3.19-7.61z"/><path fill="#95a164" d="M216.68 248.29c-5.36.09-1.03-6.33.33-.69l-.33.69z"/><path fill="#899d5e" d="M208.35 252.02c4.19-1.9-2.72-6.97 1.87-5.71 5.12-1.67 3.37 12.4-1.39 10.71-7.92-2-7.68 7.34-6.76 12.78-1.5 2.29-3.5.37-4.61-1.12.42-5.24-.22-12.07 4.91-15.31 1.26-1.63 5.62-4.96 5.98-1.35z"/><path fill="#596632" d="M136.14 253c-.15-10.61 2.3-.16 6.5-2.41 5.42-2.29 5.65 5.58 6.3 9.2-1.21.76-5.39 1.67-3.22 3.34 5.13.71 2.08 6.29 2.91 9.79.24 5.64-6.48 1.28-9.89 3.07-1.24-1.05-2-2.51-2.82-3.88l-.48-6.09-1.75-2.03c.76-1.95.9-4.14-.02-6.05.82-1.65 1.72-3.26 2.47-4.94z"/><path fill="#71702f" d="M177.97 260.2c1.18-3.34 1.23-6.93 1.69-10.4.88 2.48.68 7.09 4.1 7.31 1.21-.56 2.38-1.22 3.56-1.86 3.27-.31 6.49-.95 9.56-2.15 2.72 3.37-3.83 7.02-6.99 7.49-5.28.28-12.01 5.84-6.47 10.66-2.57 3.32.68 6.11 2.56 8.76-5.68 2.68-9.79-7.17-9.58-11.99l-1.51-1.98c5.29.72 5.19-1.71 3.08-5.84z"/><path fill="#c7b89d" d="M183.13 251.21c2.46-3.17 2.94 2.43 4.19 4.04l-3.56 1.86-.63-5.9z"/><path fill="#766b2f" d="M202.07 269.8c-.92-5.44-1.16-14.78 6.76-12.78 1.58 1.71 5.14 5.28.49 3.53-6.5-2.92-6.63 14.2-1.42 7.42l1.31-1.85c4.85 1.4-3.11 7.46-6.3 8.66-2.38-1.4-5.21 2.26-6.73-.02-1.2-5.02 8.9 1.03 5.89-4.96z"/><path fill="#6b5b38" d="M152.97 271.95c-5.07-5.17 1.38-12.66 7.33-12.62 3.73 1.19 7.42 2.93 10.89 4.82l-2.35.82c-4.22.67-4.79 5.67-4.99 9.13-2.14 5.38 1.34 8.02 5.38 9.75-7.79 1.51-11.75-7.23-16.26-11.9z"/><path fill="#d3c7b1" d="M208.65 262.63c2.53-1.97 1.04 2.26.56 3.49l-1.31 1.85c-3.64 1.11-1.55-4.96.75-5.34z"/><path fill="#b9ad93" d="M171.19 264.15l3.7 1.89 1.51 1.98c-1.03 1.36-2.19 2.62-3.33 3.89-4.52 1.22-2.11-4.58-4.23-6.94l2.35-.82z"/><path fill="#907c4f" d="M163.85 274.1c.2-3.46.77-8.46 4.99-9.13 2.12 2.36-.29 8.16 4.23 6.94-.87 4.42-5.97 3.44-9.22 2.19z"/><path fill="#b8ad8c" d="M189.98 265.95c2.5-.45 3.48 2.02 3.04 4.1-2.51.44-3.48-2.03-3.04-4.1z"/><path fill="#797232" d="M173.07 271.91c4.68 1.17-1.45 9.07 3.7 8.75 3.78-.75-.54 6.19 2.75 3.75 3.86-4.26 9.67-1.03 12.55 2.86-3.79 3.1-6.01 11.3-12.13 8.91-2.87-1.7-8.18-2.26-7.97-6.55 7.26.28 2.08-6.54-2.74-5.78-4.04-1.73-7.52-4.37-5.38-9.75 3.25 1.25 8.35 2.23 9.22-2.19z"/><path fill="#433d18" opacity=".68" d="M210.15 273.99c.88-1.9 3.35-1.09 4.92-.74-1.17 1.49-3.32.86-4.92.74z"/><path fill="#5b501e" opacity=".85" d="M200.09 279.97c2.42-1.33 5.26-4.52 7.12-.78-1.85 1.28-4.22 1.54-7.12.78z"/><path fill="#69732c" opacity=".95" d="M193.37 280.94c-.29-4.58 4.13-1.52 6.72-.97l-6.77 6.08-4.37-7.18 4.42 2.07z"/></svg>