<?xml version="1.0" encoding="UTF-8" ?>
<!DOCTYPE svg PUBLIC "-//W3C//DTD SVG 1.1//EN" "http://www.w3.org/Graphics/SVG/1.1/DTD/svg11.dtd">
<svg width="384pt" height="384pt" viewBox="0 0 384 384" version="1.1" xmlns="http://www.w3.org/2000/svg">
<g id="#00000010">
</g>
<g id="#00000018">
</g>
<g id="#0000001f">
</g>
<g id="#362c17b0">
<path fill="#362c17" opacity="0.69" d=" M 220.89 94.91 C 222.51 92.43 225.91 93.01 228.17 94.65 C 226.35 94.72 222.71 94.84 220.89 94.91 Z" />
</g>
<g id="#585e32fd">
<path fill="#585e32" opacity="1.00" d=" M 213.10 97.34 C 215.87 97.15 218.47 96.22 220.89 94.91 C 222.71 94.84 226.35 94.72 228.17 94.65 C 228.65 94.94 229.61 95.52 230.09 95.81 C 224.93 94.60 226.31 98.66 226.96 102.07 C 223.29 102.81 222.64 99.71 223.88 96.98 C 219.22 98.04 223.57 103.55 221.69 106.90 C 222.51 112.47 216.03 103.16 214.10 107.05 C 211.42 112.37 204.66 107.48 203.47 103.28 C 196.87 101.51 194.69 109.36 190.04 112.08 C 187.19 114.10 185.41 109.57 182.88 108.83 C 183.11 114.17 191.92 115.46 188.33 121.30 C 186.66 124.19 184.03 121.64 181.91 120.86 C 178.94 121.20 176.88 123.74 174.13 124.73 C 172.64 123.96 170.57 121.79 170.72 124.97 C 165.63 125.87 166.03 124.26 168.91 120.95 C 167.27 116.52 156.98 121.08 159.00 125.97 C 161.25 125.91 165.46 123.75 163.83 127.76 C 160.58 132.75 157.58 124.63 153.96 127.93 C 149.48 129.58 155.70 135.31 154.36 138.22 C 158.18 136.60 154.00 130.05 160.93 132.73 C 166.21 130.20 172.91 130.62 173.03 137.76 C 172.53 137.79 171.52 137.85 171.02 137.89 C 169.75 133.99 156.13 135.92 159.48 142.59 C 162.28 145.85 161.99 153.93 167.75 152.57 C 171.45 154.14 175.41 151.68 179.21 152.03 C 175.95 155.62 170.47 155.40 169.78 161.23 C 170.68 165.61 165.11 164.56 163.06 167.00 C 158.12 171.11 154.11 176.15 149.25 180.32 C 147.95 183.60 154.04 183.97 153.45 180.38 C 155.45 173.59 161.93 183.31 158.35 186.76 C 158.61 194.79 167.06 189.45 171.74 189.18 C 175.27 191.15 172.75 192.89 170.27 194.22 C 170.27 197.22 172.48 198.79 175.01 199.81 C 173.35 208.04 167.14 198.98 162.75 198.07 C 164.12 200.15 165.73 202.06 167.04 204.18 C 161.49 203.19 158.20 197.57 152.68 196.28 C 148.57 193.81 141.70 195.88 139.86 190.32 C 138.89 186.60 136.14 181.99 131.95 181.94 C 131.36 186.69 139.08 187.01 136.28 192.96 C 137.88 199.75 131.73 194.96 129.29 192.68 C 128.96 191.01 128.60 189.35 128.17 187.71 C 127.73 183.19 130.19 179.19 133.20 176.07 C 133.67 171.68 133.99 167.15 136.25 163.24 C 136.49 162.71 136.96 161.66 137.20 161.13 C 142.14 153.63 139.87 145.21 140.89 136.81 L 140.94 135.96 L 141.01 135.09 C 141.24 134.57 141.71 133.53 141.94 133.01 C 142.63 131.69 143.32 130.38 144.04 129.08 C 148.39 125.49 154.06 123.91 158.18 120.02 C 160.72 117.84 163.33 115.74 166.15 113.93 L 166.94 113.79 C 168.49 113.67 171.59 113.44 173.13 113.33 C 175.00 113.03 177.00 112.77 178.12 111.05 C 183.04 104.92 191.35 103.83 197.06 98.74 C 199.02 99.32 201.12 99.53 203.10 98.91 C 204.78 98.83 206.44 98.58 208.02 97.99 C 209.73 98.36 211.61 98.42 213.10 97.34 Z" />
</g>
<g id="#6f7836fd">
<path fill="#6f7836" opacity="1.00" d=" M 226.96 102.07 C 226.31 98.66 224.93 94.60 230.09 95.81 C 233.18 98.13 234.82 102.01 238.55 103.57 C 242.08 107.03 247.90 105.02 250.86 109.21 C 252.44 112.53 255.99 113.50 259.13 114.66 C 255.75 114.46 252.78 115.38 249.96 117.04 C 242.80 114.97 237.56 109.28 231.03 105.97 C 230.88 113.96 224.82 100.32 221.69 106.90 C 223.57 103.55 219.22 98.04 223.88 96.98 C 222.64 99.71 223.29 102.81 226.96 102.07 Z" />
</g>
<g id="#2624159c">
<path fill="#262415" opacity="0.61" d=" M 208.02 97.99 C 209.23 96.30 211.44 96.59 213.10 97.34 C 211.61 98.42 209.73 98.36 208.02 97.99 Z" />
</g>
<g id="#2c2d16a2">
<path fill="#2c2d16" opacity="0.64" d=" M 197.06 98.74 C 198.54 98.58 201.50 98.26 202.98 98.10 L 203.10 98.91 C 201.12 99.53 199.02 99.32 197.06 98.74 Z" />
</g>
<g id="#201f0a68">
</g>
<g id="#7f834afd">
<path fill="#7f834a" opacity="1.00" d=" M 271.53 102.80 C 271.87 102.50 272.56 101.90 272.90 101.60 C 274.87 102.44 277.10 102.46 279.08 101.59 C 284.23 106.17 286.22 112.69 292.00 116.09 C 291.68 117.34 291.39 119.45 293.12 119.79 C 294.79 120.48 296.49 121.13 298.08 122.01 C 298.08 122.45 298.08 123.35 298.08 123.79 C 294.70 123.00 289.60 122.37 289.58 127.09 C 284.89 126.77 283.48 131.17 288.13 132.91 C 286.49 133.31 284.86 133.79 283.17 134.00 C 282.07 131.47 283.95 126.90 280.36 126.23 C 278.48 128.94 276.44 131.98 279.13 134.95 C 276.43 134.12 273.83 132.99 271.11 132.24 C 267.54 135.50 277.64 133.17 274.35 137.33 C 271.93 140.82 274.95 143.60 275.02 147.09 C 270.50 150.05 271.47 142.49 267.79 141.22 C 262.50 139.08 271.46 132.22 265.17 132.43 C 262.00 133.94 258.39 133.56 254.98 133.93 C 251.13 129.56 262.98 121.68 253.69 123.70 C 254.26 121.30 258.55 122.99 257.93 120.14 C 256.38 119.23 251.22 120.81 252.30 118.28 C 254.81 117.68 257.39 117.45 259.93 117.01 C 259.60 121.99 262.18 126.37 264.95 130.27 C 264.92 125.03 263.31 120.02 262.04 115.00 C 267.10 117.11 267.11 114.54 266.00 110.18 C 271.61 108.74 275.55 111.83 273.18 117.70 C 277.58 118.45 277.26 128.23 280.58 121.53 C 286.00 122.05 284.31 114.10 279.98 114.03 C 276.45 113.70 277.67 108.73 276.63 106.46 C 274.44 105.90 271.92 105.49 271.53 102.80 M 286.00 117.01 C 284.83 120.64 288.74 120.13 291.12 120.77 C 291.78 117.51 288.70 116.33 286.00 117.01 Z" />
</g>
<g id="#707737fe">
<path fill="#707737" opacity="1.00" d=" M 190.04 112.08 C 194.69 109.36 196.87 101.51 203.47 103.28 C 204.66 107.48 211.42 112.37 214.10 107.05 C 216.03 103.16 222.51 112.47 221.69 106.90 C 224.93 109.06 220.30 110.43 219.26 112.25 C 217.17 115.84 212.84 117.16 208.89 117.03 C 208.72 114.70 212.07 113.06 209.94 110.91 C 206.03 113.02 201.71 121.78 208.80 121.67 C 211.27 117.11 216.68 117.58 221.20 118.69 C 219.63 119.13 216.76 118.26 216.76 120.66 C 220.80 119.34 218.42 122.59 216.14 123.31 C 216.98 121.50 213.92 117.86 214.59 121.33 C 215.93 124.46 211.92 125.20 210.98 127.61 C 215.11 128.55 218.90 130.48 222.11 133.24 C 222.42 134.44 222.76 135.64 223.08 136.84 C 223.05 137.69 222.99 139.39 222.96 140.24 C 222.60 135.52 213.47 127.72 212.12 135.08 C 212.49 139.16 214.04 143.20 217.02 146.10 L 217.82 145.84 C 219.33 145.35 220.81 144.80 222.30 144.24 C 219.63 147.94 218.25 151.94 221.03 156.06 C 217.35 154.68 219.39 149.28 215.71 148.37 C 213.10 146.63 214.29 150.60 213.92 152.03 C 210.18 150.48 209.73 145.25 206.57 142.53 C 205.11 137.33 200.42 140.98 197.02 141.55 C 197.96 142.93 199.76 144.34 197.96 145.86 C 193.41 145.30 190.39 140.52 190.01 136.27 C 192.42 135.71 193.24 133.38 194.27 131.44 C 196.04 132.84 200.70 134.01 199.78 130.32 C 197.30 128.75 194.72 124.78 191.48 126.53 C 188.17 129.06 184.50 123.90 186.80 130.24 C 184.53 127.47 183.36 124.07 181.91 120.86 C 184.03 121.64 186.66 124.19 188.33 121.30 C 191.92 115.46 183.11 114.17 182.88 108.83 C 185.41 109.57 187.19 114.10 190.04 112.08 Z" />
</g>
<g id="#53572ffb">
<path fill="#53572f" opacity="1.00" d=" M 264.23 107.32 C 267.81 107.80 269.53 105.16 271.53 102.80 C 271.92 105.49 274.44 105.90 276.63 106.46 C 277.67 108.73 276.45 113.70 279.98 114.03 C 284.31 114.10 286.00 122.05 280.58 121.53 C 277.26 128.23 277.58 118.45 273.18 117.70 C 275.55 111.83 271.61 108.74 266.00 110.18 C 267.11 114.54 267.10 117.11 262.04 115.00 C 263.31 120.02 264.92 125.03 264.95 130.27 C 262.18 126.37 259.60 121.99 259.93 117.01 C 259.73 116.42 259.33 115.25 259.13 114.66 C 255.99 113.50 252.44 112.53 250.86 109.21 C 255.34 108.77 259.80 108.15 264.23 107.32 Z" />
</g>
<g id="#899350ff">
<path fill="#899350" opacity="1.00" d=" M 221.69 106.90 C 224.82 100.32 230.88 113.96 231.03 105.97 C 237.56 109.28 242.80 114.97 249.96 117.04 C 252.78 115.38 255.75 114.46 259.13 114.66 C 259.33 115.25 259.73 116.42 259.93 117.01 C 257.39 117.45 254.81 117.68 252.30 118.28 C 251.22 120.81 256.38 119.23 257.93 120.14 C 258.55 122.99 254.26 121.30 253.69 123.70 C 247.50 128.38 256.64 140.36 246.97 140.13 C 246.91 137.94 253.02 136.17 248.05 134.95 C 242.45 134.58 245.36 130.37 247.21 127.44 C 242.41 129.34 238.42 124.90 239.09 120.23 C 240.64 117.66 243.42 120.07 245.36 120.77 C 242.79 113.47 234.58 113.14 233.95 121.64 C 233.73 122.07 233.30 122.94 233.08 123.37 C 231.44 120.24 227.47 120.17 226.23 117.02 C 226.80 120.87 223.49 119.00 221.20 118.69 C 216.68 117.58 211.27 117.11 208.80 121.67 C 201.71 121.78 206.03 113.02 209.94 110.91 C 212.07 113.06 208.72 114.70 208.89 117.03 C 212.84 117.16 217.17 115.84 219.26 112.25 C 220.30 110.43 224.93 109.06 221.69 106.90 Z" />
</g>
<g id="#00000028">
</g>
<g id="#21201089">
</g>
<g id="#63662efe">
<path fill="#63662e" opacity="1.00" d=" M 233.95 121.64 C 234.58 113.14 242.79 113.47 245.36 120.77 C 243.42 120.07 240.64 117.66 239.09 120.23 C 238.42 124.90 242.41 129.34 247.21 127.44 C 245.36 130.37 242.45 134.58 248.05 134.95 C 253.02 136.17 246.91 137.94 246.97 140.13 C 256.64 140.36 247.50 128.38 253.69 123.70 C 262.98 121.68 251.13 129.56 254.98 133.93 C 258.39 133.56 262.00 133.94 265.17 132.43 C 271.46 132.22 262.50 139.08 267.79 141.22 C 271.47 142.49 270.50 150.05 275.02 147.09 C 274.07 151.09 277.58 153.51 281.13 153.89 C 285.44 155.33 287.09 148.33 283.84 146.11 L 284.71 146.18 C 287.52 146.45 290.38 146.75 293.21 146.88 C 294.66 147.25 295.96 148.00 297.28 148.69 C 293.50 148.53 286.03 146.50 288.18 152.72 C 289.92 158.02 297.99 150.75 297.15 156.99 C 293.69 157.01 290.27 157.13 286.82 157.08 C 285.28 156.70 283.79 156.14 282.23 155.83 C 278.46 155.20 274.66 154.97 270.84 155.13 C 272.74 152.67 274.11 148.67 269.53 149.55 C 261.89 152.93 265.33 146.48 267.91 144.96 C 265.26 142.21 265.03 138.56 264.77 134.91 C 260.60 136.07 259.62 142.30 254.38 141.47 C 248.55 142.05 237.45 140.57 240.48 132.01 C 237.84 128.97 237.92 123.31 233.95 121.64 Z" />
</g>
<g id="#3c481da6">
<path fill="#3c481d" opacity="0.65" d=" M 292.00 116.09 C 293.50 116.67 293.35 118.51 293.12 119.79 C 291.39 119.45 291.68 117.34 292.00 116.09 Z" />
</g>
<g id="#5a692cfe">
<path fill="#5a692c" opacity="1.00" d=" M 226.23 117.02 C 227.47 120.17 231.44 120.24 233.08 123.37 C 227.49 131.15 239.19 134.37 238.00 140.45 C 236.36 140.02 234.77 139.49 233.15 139.02 C 227.93 138.56 228.83 127.04 222.81 132.74 C 217.75 126.97 227.86 128.75 225.80 123.26 C 223.79 119.29 216.68 128.50 216.14 123.31 C 218.42 122.59 220.80 119.34 216.76 120.66 C 216.76 118.26 219.63 119.13 221.20 118.69 C 223.49 119.00 226.80 120.87 226.23 117.02 Z" />
</g>
<g id="#b4b06cff">
<path fill="#b4b06c" opacity="1.00" d=" M 286.00 117.01 C 288.70 116.33 291.78 117.51 291.12 120.77 C 288.74 120.13 284.83 120.64 286.00 117.01 Z" />
</g>
<g id="#71763fff">
<path fill="#71763f" opacity="1.00" d=" M 159.00 125.97 C 156.98 121.08 167.27 116.52 168.91 120.95 C 166.03 124.26 165.63 125.87 170.72 124.97 C 172.23 132.28 175.12 139.33 175.87 146.87 C 175.06 148.23 176.78 152.29 178.31 150.29 C 180.01 148.88 182.47 145.19 184.17 148.70 C 182.12 151.85 180.49 156.03 176.14 156.45 C 174.98 161.17 180.48 160.17 182.92 158.41 C 184.75 159.83 192.86 164.41 187.75 165.36 C 187.62 168.64 184.42 170.34 182.68 172.78 C 184.93 170.72 190.27 171.45 186.60 174.60 C 184.97 178.75 178.44 170.73 179.14 175.75 C 183.73 176.97 183.88 179.03 181.91 182.92 C 187.75 185.12 183.43 179.01 187.20 177.21 C 188.94 175.16 191.84 176.80 194.18 176.63 C 193.40 172.61 190.59 168.32 193.43 164.52 C 195.94 160.75 189.10 163.01 189.03 159.99 C 188.10 157.02 192.14 158.27 193.85 157.62 C 196.42 156.55 197.25 158.99 198.97 160.25 C 201.61 161.25 200.76 163.71 199.80 165.68 C 197.84 168.44 200.46 169.50 202.80 170.21 C 201.77 173.09 200.23 176.14 200.96 179.28 C 200.73 179.77 200.27 180.76 200.04 181.26 C 197.71 177.35 188.01 182.11 193.26 185.75 C 196.11 191.03 185.80 193.27 188.53 184.67 C 185.88 188.28 184.42 194.64 190.73 194.09 C 187.75 197.02 189.87 196.75 192.99 195.97 C 191.07 198.99 191.86 202.61 191.87 206.00 C 186.69 205.31 191.99 198.35 185.96 197.95 C 186.22 203.07 188.69 208.20 186.95 213.27 L 186.36 212.80 C 185.28 211.24 183.37 212.57 183.55 214.16 C 181.85 210.20 189.16 206.98 185.60 202.47 C 179.74 198.22 181.28 190.33 182.79 184.31 C 179.79 184.89 177.64 183.17 175.74 181.38 C 179.87 183.35 180.83 180.19 182.06 177.92 C 180.34 178.58 178.69 179.43 176.95 180.07 C 177.61 176.90 178.53 173.79 179.76 170.80 C 172.47 169.05 175.96 179.95 169.90 180.10 C 171.23 175.26 176.93 164.39 167.49 166.27 C 166.63 170.14 164.98 170.45 163.06 167.00 C 165.11 164.56 170.68 165.61 169.78 161.23 C 170.47 155.40 175.95 155.62 179.21 152.03 C 175.41 151.68 171.45 154.14 167.75 152.57 C 161.99 153.93 162.28 145.85 159.48 142.59 C 156.13 135.92 169.75 133.99 171.02 137.89 C 164.71 138.89 164.26 146.26 166.08 151.11 C 167.04 150.54 167.97 149.90 168.79 149.14 C 169.91 148.07 171.01 146.98 172.08 145.86 C 173.97 143.53 171.72 140.30 171.02 137.89 C 171.52 137.85 172.53 137.79 173.03 137.76 C 172.91 130.62 166.21 130.20 160.93 132.73 C 154.00 130.05 158.18 136.60 154.36 138.22 C 155.70 135.31 149.48 129.58 153.96 127.93 C 157.58 124.63 160.58 132.75 163.83 127.76 C 165.46 123.75 161.25 125.91 159.00 125.97 M 175.20 162.24 C 175.06 167.52 181.02 160.22 175.20 162.24 Z" />
</g>
<g id="#7e9147ff">
<path fill="#7e9147" opacity="1.00" d=" M 214.59 121.33 C 213.92 117.86 216.98 121.50 216.14 123.31 C 216.68 128.50 223.79 119.29 225.80 123.26 C 227.86 128.75 217.75 126.97 222.81 132.74 L 222.11 133.24 C 218.90 130.48 215.11 128.55 210.98 127.61 C 211.92 125.20 215.93 124.46 214.59 121.33 Z" />
</g>
<g id="#828c48ff">
<path fill="#828c48" opacity="1.00" d=" M 174.13 124.73 C 176.88 123.74 178.94 121.20 181.91 120.86 C 183.36 124.07 184.53 127.47 186.80 130.24 C 184.50 123.90 188.17 129.06 191.48 126.53 C 194.72 124.78 197.30 128.75 199.78 130.32 C 200.70 134.01 196.04 132.84 194.27 131.44 C 193.24 133.38 192.42 135.71 190.01 136.27 C 187.86 135.27 184.02 132.06 186.79 139.85 C 185.85 144.63 179.56 144.91 175.87 146.87 C 175.12 139.33 172.23 132.28 170.72 124.97 C 170.57 121.79 172.64 123.96 174.13 124.73 Z" />
</g>
<g id="#41481cf9">
<path fill="#41481c" opacity="0.98" d=" M 233.95 121.64 C 237.92 123.31 237.84 128.97 240.48 132.01 C 237.45 140.57 248.55 142.05 254.38 141.47 C 259.62 142.30 260.60 136.07 264.77 134.91 C 265.03 138.56 265.26 142.21 267.91 144.96 C 265.33 146.48 261.89 152.93 269.53 149.55 C 274.11 148.67 272.74 152.67 270.84 155.13 C 263.37 153.60 256.26 150.76 251.15 144.80 C 247.83 141.02 242.44 141.57 238.00 140.45 C 239.19 134.37 227.49 131.15 233.08 123.37 C 233.30 122.94 233.73 122.07 233.95 121.64 Z" />
</g>
<g id="#5c6e32e4">
<path fill="#5c6e32" opacity="0.89" d=" M 298.08 122.01 C 298.46 124.85 299.63 127.31 302.03 128.84 C 298.31 132.17 293.61 128.13 289.58 127.09 C 292.85 126.66 299.37 129.06 298.08 123.79 C 298.08 123.35 298.08 122.45 298.08 122.01 Z" />
</g>
<g id="#98ac72ff">
<path fill="#98ac72" opacity="1.00" d=" M 289.58 127.09 C 289.60 122.37 294.70 123.00 298.08 123.79 C 299.37 129.06 292.85 126.66 289.58 127.09 Z" />
</g>
<g id="#59692ffc">
<path fill="#59692f" opacity="1.00" d=" M 280.36 126.23 C 283.95 126.90 282.07 131.47 283.17 134.00 C 284.86 133.79 286.49 133.31 288.13 132.91 C 290.61 134.36 292.84 136.18 295.16 137.86 C 292.65 137.84 290.22 138.16 287.86 138.85 C 285.95 139.52 284.05 140.21 282.14 140.90 C 281.24 138.86 280.20 136.89 279.13 134.95 C 276.44 131.98 278.48 128.94 280.36 126.23 Z" />
</g>
<g id="#00000035">
</g>
<g id="#919d53fd">
<path fill="#919d53" opacity="1.00" d=" M 288.13 132.91 C 283.48 131.17 284.89 126.77 289.58 127.09 C 293.61 128.13 298.31 132.17 302.03 128.84 C 303.85 130.22 305.18 132.08 306.46 133.94 C 305.42 135.50 305.30 137.64 306.52 139.15 C 306.19 139.41 305.52 139.92 305.19 140.18 C 302.28 137.77 298.84 136.92 295.16 137.86 C 292.84 136.18 290.61 134.36 288.13 132.91 Z" />
</g>
<g id="#3a3f17f4">
<path fill="#3a3f17" opacity="0.96" d=" M 222.81 132.74 C 228.83 127.04 227.93 138.56 233.15 139.02 C 229.70 138.76 226.40 137.72 223.08 136.84 C 222.76 135.64 222.42 134.44 222.11 133.24 L 222.81 132.74 Z" />
</g>
<g id="#00000044">
</g>
<g id="#998051fd">
<path fill="#998051" opacity="1.00" d=" M 212.12 135.08 C 213.47 127.72 222.60 135.52 222.96 140.24 C 222.88 141.58 223.00 143.03 222.30 144.24 C 220.81 144.80 219.33 145.35 217.82 145.84 C 219.04 143.73 220.41 141.52 220.03 138.96 C 215.06 137.78 216.78 143.26 217.02 146.10 C 214.04 143.20 212.49 139.16 212.12 135.08 Z" />
</g>
<g id="#849657fd">
<path fill="#849657" opacity="1.00" d=" M 271.11 132.24 C 273.83 132.99 276.43 134.12 279.13 134.95 C 280.20 136.89 281.24 138.86 282.14 140.90 C 279.31 143.39 280.24 145.65 283.84 146.11 C 287.09 148.33 285.44 155.33 281.13 153.89 C 277.58 153.51 274.07 151.09 275.02 147.09 C 274.95 143.60 271.93 140.82 274.35 137.33 C 277.64 133.17 267.54 135.50 271.11 132.24 Z" />
</g>
<g id="#00000053">
</g>
<g id="#3e421a86">
</g>
<g id="#8f9e65ff">
<path fill="#8f9e65" opacity="1.00" d=" M 186.79 139.85 C 184.02 132.06 187.86 135.27 190.01 136.27 C 190.39 140.52 193.41 145.30 197.96 145.86 C 199.76 144.34 197.96 142.93 197.02 141.55 C 200.42 140.98 205.11 137.33 206.57 142.53 C 209.73 145.25 210.18 150.48 213.92 152.03 C 218.73 153.80 216.44 157.60 212.43 158.48 C 214.25 161.76 209.51 163.99 210.55 159.69 C 209.07 160.80 207.82 162.19 206.21 163.12 C 204.57 159.38 203.14 154.91 199.16 153.09 C 197.06 155.02 201.15 157.88 198.97 160.25 C 197.25 158.99 196.42 156.55 193.85 157.62 C 193.25 152.63 196.15 146.40 189.01 144.06 C 182.66 145.47 191.41 153.07 185.22 153.99 C 184.96 152.67 184.43 150.02 184.17 148.70 C 182.47 145.19 180.01 148.88 178.31 150.29 C 176.78 152.29 175.06 148.23 175.87 146.87 C 179.56 144.91 185.85 144.63 186.79 139.85 M 206.98 151.99 C 206.63 153.77 207.37 156.73 209.77 155.83 C 212.24 154.44 209.40 150.81 206.98 151.99 Z" />
</g>
<g id="#00000062">
</g>
<g id="#00000073">
</g>
<g id="#01010184">
</g>
<g id="#0101001a">
</g>
<g id="#3a481ddd">
<path fill="#3a481d" opacity="0.87" d=" M 295.16 137.86 C 298.84 136.92 302.28 137.77 305.19 140.18 C 299.87 143.20 293.69 136.35 287.86 138.85 C 290.22 138.16 292.65 137.84 295.16 137.86 Z" />
</g>
<g id="#978c66ff">
<path fill="#978c66" opacity="1.00" d=" M 166.08 151.11 C 164.26 146.26 164.71 138.89 171.02 137.89 C 171.72 140.30 173.97 143.53 172.08 145.86 C 172.80 137.85 161.65 148.26 168.79 149.14 C 167.97 149.90 167.04 150.54 166.08 151.11 Z" />
</g>
<g id="#cfc0a9ff">
<path fill="#cfc0a9" opacity="1.00" d=" M 217.02 146.10 C 216.78 143.26 215.06 137.78 220.03 138.96 C 220.41 141.52 219.04 143.73 217.82 145.84 L 217.02 146.10 Z" />
</g>
<g id="#cfc7b2ff">
<path fill="#cfc7b2" opacity="1.00" d=" M 168.79 149.14 C 161.65 148.26 172.80 137.85 172.08 145.86 C 171.01 146.98 169.91 148.07 168.79 149.14 Z" />
</g>
<g id="#828c4bff">
<path fill="#828c4b" opacity="1.00" d=" M 185.22 153.99 C 191.41 153.07 182.66 145.47 189.01 144.06 C 196.15 146.40 193.25 152.63 193.85 157.62 C 192.14 158.27 188.10 157.02 189.03 159.99 C 189.10 163.01 195.94 160.75 193.43 164.52 C 190.59 168.32 193.40 172.61 194.18 176.63 C 191.84 176.80 188.94 175.16 187.20 177.21 C 183.43 179.01 187.75 185.12 181.91 182.92 C 183.88 179.03 183.73 176.97 179.14 175.75 C 178.44 170.73 184.97 178.75 186.60 174.60 C 190.27 171.45 184.93 170.72 182.68 172.78 C 184.42 170.34 187.62 168.64 187.75 165.36 C 192.86 164.41 184.75 159.83 182.92 158.41 C 180.48 160.17 174.98 161.17 176.14 156.45 C 180.49 156.03 182.12 151.85 184.17 148.70 C 184.43 150.02 184.96 152.67 185.22 153.99 Z" />
</g>
<g id="#0000000f">
</g>
<g id="#304013bf">
<path fill="#304013" opacity="0.75" d=" M 284.71 146.18 C 287.56 146.19 290.40 146.26 293.21 146.88 C 290.38 146.75 287.52 146.45 284.71 146.18 Z" />
</g>
<g id="#828a48fe">
<path fill="#828a48" opacity="1.00" d=" M 213.92 152.03 C 214.29 150.60 213.10 146.63 215.71 148.37 C 219.39 149.28 217.35 154.68 221.03 156.06 C 226.92 161.21 230.55 168.19 232.35 175.71 C 232.16 180.47 232.04 185.24 231.79 190.00 C 229.49 190.39 225.46 191.40 225.29 187.96 C 226.47 184.41 222.60 180.75 225.71 177.81 C 225.40 173.97 220.00 178.09 219.51 180.02 C 221.05 184.10 215.10 191.80 222.04 187.23 C 224.92 194.14 214.11 196.24 209.38 193.27 C 208.92 194.09 208.47 194.92 208.04 195.75 C 207.12 193.07 205.92 192.18 205.83 195.74 C 204.38 194.66 199.65 194.36 202.19 192.13 C 204.79 190.10 201.35 187.64 204.18 185.34 C 216.35 183.93 212.86 162.08 199.80 165.68 C 200.76 163.71 201.61 161.25 198.97 160.25 C 201.15 157.88 197.06 155.02 199.16 153.09 C 203.14 154.91 204.57 159.38 206.21 163.12 C 207.82 162.19 209.07 160.80 210.55 159.69 C 209.51 163.99 214.25 161.76 212.43 158.48 C 216.44 157.60 218.73 153.80 213.92 152.03 Z" />
</g>
<g id="#8a9655f8">
<path fill="#8a9655" opacity="0.97" d=" M 288.18 152.72 C 286.03 146.50 293.50 148.53 297.28 148.69 C 300.90 149.76 302.48 153.79 300.05 157.02 C 299.33 157.02 297.88 157.00 297.15 156.99 C 297.99 150.75 289.92 158.02 288.18 152.72 Z" />
</g>
<g id="#606935ff">
<path fill="#606935" opacity="1.00" d=" M 206.98 151.99 C 209.40 150.81 212.24 154.44 209.77 155.83 C 207.37 156.73 206.63 153.77 206.98 151.99 Z" />
</g>
<g id="#00000043">
</g>
<g id="#313c15c0">
<path fill="#313c15" opacity="0.75" d=" M 270.84 155.13 C 274.66 154.97 278.46 155.20 282.23 155.83 C 278.40 155.99 274.61 155.76 270.84 155.13 Z" />
</g>
<g id="#2428118c">
</g>
<g id="#00000037">
</g>
<g id="#b4a383ff">
<path fill="#b4a383" opacity="1.00" d=" M 175.20 162.24 C 181.02 160.22 175.06 167.52 175.20 162.24 Z" />
</g>
<g id="#5e683bff">
<path fill="#5e683b" opacity="1.00" d=" M 167.49 166.27 C 176.93 164.39 171.23 175.26 169.90 180.10 C 175.96 179.95 172.47 169.05 179.76 170.80 C 178.53 173.79 177.61 176.90 176.95 180.07 C 178.69 179.43 180.34 178.58 182.06 177.92 C 180.83 180.19 179.87 183.35 175.74 181.38 C 177.64 183.17 179.79 184.89 182.79 184.31 C 181.28 190.33 179.74 198.22 185.60 202.47 C 189.16 206.98 181.85 210.20 183.55 214.16 C 184.27 216.20 186.67 214.36 186.36 212.80 L 186.95 213.27 C 187.89 214.06 188.87 214.81 189.87 215.53 C 189.22 219.37 189.35 223.43 186.59 226.59 C 185.07 228.38 187.46 229.35 188.75 230.09 C 188.36 231.93 185.31 235.20 189.01 235.13 C 191.00 235.07 189.32 237.41 189.03 238.31 C 183.26 232.70 176.85 242.77 183.49 246.49 C 186.27 248.24 183.16 248.33 181.39 248.57 C 180.81 245.38 178.78 244.24 175.80 245.60 C 172.09 245.16 168.38 244.69 164.68 244.26 C 160.20 243.13 163.39 252.77 159.20 251.80 C 156.02 249.43 152.80 244.94 158.92 245.77 C 157.49 241.92 157.36 236.55 152.68 235.31 C 149.96 233.44 144.84 236.16 144.38 231.59 C 141.18 222.44 146.15 229.89 149.06 230.15 C 147.97 226.05 146.14 221.48 150.96 219.01 C 151.63 211.39 162.88 207.04 167.86 213.11 C 169.85 214.36 172.39 214.92 174.74 214.83 C 177.36 213.22 174.83 208.52 172.01 208.49 C 173.77 205.90 180.18 202.53 175.01 199.81 C 172.48 198.79 170.27 197.22 170.27 194.22 C 172.75 192.89 175.27 191.15 171.74 189.18 C 167.06 189.45 158.61 194.79 158.35 186.76 C 161.93 183.31 155.45 173.59 153.45 180.38 C 154.04 183.97 147.95 183.60 149.25 180.32 C 154.11 176.15 158.12 171.11 163.06 167.00 C 164.98 170.45 166.63 170.14 167.49 166.27 M 181.22 217.11 C 177.22 221.46 183.73 225.89 187.11 223.05 C 190.22 219.16 184.70 216.12 181.22 217.11 Z" />
</g>
<g id="#887027ff">
<path fill="#887027" opacity="1.00" d=" M 202.80 170.21 C 200.46 169.50 197.84 168.44 199.80 165.68 C 212.86 162.08 216.35 183.93 204.18 185.34 C 202.82 183.96 201.42 182.62 200.04 181.26 C 200.27 180.76 200.73 179.77 200.96 179.28 C 207.94 180.08 208.63 172.67 202.80 170.21 Z" />
</g>
<g id="#a18a63ff">
<path fill="#a18a63" opacity="1.00" d=" M 202.80 170.21 C 208.63 172.67 207.94 180.08 200.96 179.28 C 200.23 176.14 201.77 173.09 202.80 170.21 M 204.13 175.19 C 200.85 178.49 209.02 176.31 204.13 175.19 Z" />
</g>
<g id="#e0d4c3ff">
<path fill="#e0d4c3" opacity="1.00" d=" M 204.13 175.19 C 209.02 176.31 200.85 178.49 204.13 175.19 Z" />
</g>
<g id="#5a662efc">
<path fill="#5a662e" opacity="1.00" d=" M 219.51 180.02 C 220.00 178.09 225.40 173.97 225.71 177.81 C 222.60 180.75 226.47 184.41 225.29 187.96 C 225.46 191.40 229.49 190.39 231.79 190.00 C 232.06 190.29 232.60 190.87 232.87 191.17 C 241.04 193.68 251.49 188.78 259.10 195.06 C 261.91 197.20 265.43 198.57 267.42 201.63 C 266.83 201.52 265.64 201.28 265.05 201.16 C 266.59 204.98 263.62 208.92 265.09 212.53 C 259.88 215.05 254.82 218.07 249.13 219.35 C 247.29 219.36 243.60 219.38 241.75 219.39 C 243.55 217.41 244.55 213.89 247.74 214.04 C 249.44 215.45 251.01 213.20 252.79 213.19 C 257.10 217.46 262.42 209.17 262.08 205.07 C 261.20 197.67 251.89 203.69 250.77 197.14 C 246.77 197.22 241.13 197.46 240.58 202.44 C 241.30 210.26 236.71 206.60 237.63 202.74 C 238.56 199.82 240.44 197.44 242.18 194.99 C 237.54 193.60 237.15 199.17 234.18 201.21 C 236.70 195.91 231.86 196.60 228.31 198.31 C 227.32 200.46 226.90 202.83 225.89 204.98 C 223.68 205.07 223.71 202.26 222.49 200.96 C 221.18 204.65 218.26 207.93 217.99 211.90 C 218.70 216.36 226.13 215.50 226.25 211.27 C 226.80 211.79 227.35 212.31 227.90 212.83 C 230.31 214.00 234.23 219.32 235.69 214.67 C 238.70 210.49 240.74 216.88 241.75 219.39 L 241.96 220.09 C 238.88 220.34 235.79 220.44 232.74 220.88 L 231.97 220.97 C 229.27 221.05 226.58 222.21 225.13 224.57 C 229.45 226.36 220.87 229.14 218.87 227.03 C 221.37 224.50 226.77 221.41 220.11 221.32 C 214.32 221.11 208.93 218.14 206.35 212.96 C 206.39 207.28 205.62 201.09 208.04 195.75 C 208.47 194.92 208.92 194.09 209.38 193.27 C 214.11 196.24 224.92 194.14 222.04 187.23 C 215.10 191.80 221.05 184.10 219.51 180.02 Z" />
</g>
<g id="#2f371687">
</g>
<g id="#909c5aff">
<path fill="#909c5a" opacity="1.00" d=" M 193.26 185.75 C 188.01 182.11 197.71 177.35 200.04 181.26 C 201.42 182.62 202.82 183.96 204.18 185.34 C 201.35 187.64 204.79 190.10 202.19 192.13 C 199.65 194.36 204.38 194.66 205.83 195.74 C 205.92 192.18 207.12 193.07 208.04 195.75 C 205.62 201.09 206.39 207.28 206.35 212.96 C 208.93 218.14 214.32 221.11 220.11 221.32 C 218.88 224.32 213.71 221.33 211.37 224.58 C 209.61 221.85 200.76 222.50 204.40 218.42 C 208.56 215.52 201.23 212.97 199.05 215.17 C 199.06 217.51 199.70 219.78 199.95 222.09 C 195.67 221.61 195.02 215.24 189.87 215.53 C 188.87 214.81 187.89 214.06 186.95 213.27 C 188.69 208.20 186.22 203.07 185.96 197.95 C 191.99 198.35 186.69 205.31 191.87 206.00 C 191.86 202.61 191.07 198.99 192.99 195.97 C 189.87 196.75 187.75 197.02 190.73 194.09 C 184.42 194.64 185.88 188.28 188.53 184.67 C 185.80 193.27 196.11 191.03 193.26 185.75 M 202.25 201.17 C 199.40 203.07 200.01 208.56 203.76 206.07 C 204.42 215.00 206.69 198.23 202.25 201.17 Z" />
</g>
<g id="#50552bfe">
<path fill="#50552b" opacity="1.00" d=" M 131.95 181.94 C 136.14 181.99 138.89 186.60 139.86 190.32 C 141.70 195.88 148.57 193.81 152.68 196.28 C 158.20 197.57 161.49 203.19 167.04 204.18 C 165.73 202.06 164.12 200.15 162.75 198.07 C 167.14 198.98 173.35 208.04 175.01 199.81 C 180.18 202.53 173.77 205.90 172.01 208.49 C 174.83 208.52 177.36 213.22 174.74 214.83 C 172.39 214.92 169.85 214.36 167.86 213.11 C 162.88 207.04 151.63 211.39 150.96 219.01 C 146.14 221.48 147.97 226.05 149.06 230.15 C 146.15 229.89 141.18 222.44 144.38 231.59 C 144.84 236.16 149.96 233.44 152.68 235.31 C 157.36 236.55 157.49 241.92 158.92 245.77 C 152.80 244.94 156.02 249.43 159.20 251.80 C 163.39 252.77 160.20 243.13 164.68 244.26 C 168.38 244.69 172.09 245.16 175.80 245.60 C 176.13 245.96 176.80 246.68 177.14 247.04 C 173.64 247.73 169.47 248.18 167.14 251.27 C 166.44 256.53 173.12 258.79 174.86 263.13 C 176.20 266.14 172.37 264.02 170.84 264.15 C 170.19 264.07 168.90 263.91 168.25 263.83 C 163.19 260.97 156.05 256.07 151.71 262.68 C 146.22 265.93 150.42 272.94 153.86 276.07 C 158.66 279.10 160.82 286.40 168.12 283.92 C 173.06 283.41 173.74 288.50 178.33 288.85 C 175.16 289.13 172.04 289.34 168.88 289.34 C 169.86 292.97 173.72 294.42 176.87 295.67 L 176.16 296.27 C 168.00 292.51 158.54 300.64 152.56 292.51 C 148.10 292.19 142.65 292.46 139.79 288.27 C 139.08 285.10 141.45 280.70 138.96 278.09 C 138.17 277.34 137.36 276.60 136.56 275.88 C 139.33 274.04 142.10 276.33 144.85 276.98 C 147.77 273.94 145.75 269.66 146.78 266.00 C 147.66 263.06 142.27 264.27 142.98 261.29 C 149.97 262.13 146.34 252.74 143.85 249.05 C 140.84 250.14 137.77 251.06 134.52 250.95 C 129.47 243.07 133.61 232.53 128.16 224.83 C 128.12 224.14 128.03 222.77 127.99 222.08 C 128.07 221.35 128.22 219.89 128.30 219.16 C 128.18 214.98 129.89 211.16 132.93 208.42 C 134.48 209.84 135.62 211.63 136.99 213.22 C 136.83 210.77 136.33 208.36 136.06 205.93 C 141.55 206.82 146.94 208.68 151.66 211.66 C 152.02 207.39 155.23 207.64 158.07 209.77 C 158.91 206.05 149.83 203.22 154.89 198.91 C 149.37 197.38 142.90 194.58 137.96 198.93 C 134.56 201.89 131.50 197.98 128.82 196.10 C 128.94 195.24 129.17 193.54 129.29 192.68 C 131.73 194.96 137.88 199.75 136.28 192.96 C 139.08 187.01 131.36 186.69 131.95 181.94 Z" />
</g>
<g id="#0000004e">
</g>
<g id="#2924189c">
<path fill="#292418" opacity="0.61" d=" M 128.17 187.71 C 128.60 189.35 128.96 191.01 129.29 192.68 C 129.17 193.54 128.94 195.24 128.82 196.10 C 128.60 195.60 128.14 194.60 127.91 194.10 C 127.98 191.97 128.09 189.84 128.17 187.71 Z" />
</g>
<g id="#0000005e">
</g>
<g id="#697c42ff">
<path fill="#697c42" opacity="1.00" d=" M 234.18 201.21 C 237.15 199.17 237.54 193.60 242.18 194.99 C 240.44 197.44 238.56 199.82 237.63 202.74 C 236.47 205.07 235.16 207.47 232.48 208.26 C 234.92 201.58 224.59 204.47 224.90 209.18 C 226.66 208.21 228.11 206.80 229.76 205.68 C 229.14 208.06 228.39 210.42 227.90 212.83 C 227.35 212.31 226.80 211.79 226.25 211.27 C 226.13 215.50 218.70 216.36 217.99 211.90 C 218.26 207.93 221.18 204.65 222.49 200.96 C 223.71 202.26 223.68 205.07 225.89 204.98 C 226.90 202.83 227.32 200.46 228.31 198.31 C 231.86 196.60 236.70 195.91 234.18 201.21 Z" />
</g>
<g id="#424922fd">
<path fill="#424922" opacity="1.00" d=" M 128.82 196.10 C 131.50 197.98 134.56 201.89 137.96 198.93 C 142.90 194.58 149.37 197.38 154.89 198.91 C 149.83 203.22 158.91 206.05 158.07 209.77 C 155.23 207.64 152.02 207.39 151.66 211.66 C 146.94 208.68 141.55 206.82 136.06 205.93 C 136.33 208.36 136.83 210.77 136.99 213.22 C 135.62 211.63 134.48 209.84 132.93 208.42 C 135.79 205.56 134.93 202.37 131.18 201.03 C 130.57 200.04 130.03 199.01 129.45 198.00 C 129.29 197.52 128.98 196.57 128.82 196.10 Z" />
</g>
<g id="#82924aff">
<path fill="#82924a" opacity="1.00" d=" M 240.58 202.44 C 241.13 197.46 246.77 197.22 250.77 197.14 C 251.89 203.69 261.20 197.67 262.08 205.07 C 255.77 197.36 249.09 208.25 241.97 202.98 C 242.10 205.17 240.42 213.73 245.62 211.57 C 247.98 210.51 248.24 211.93 247.74 214.04 C 244.55 213.89 243.55 217.41 241.75 219.39 C 240.74 216.88 238.70 210.49 235.69 214.67 C 234.23 219.32 230.31 214.00 227.90 212.83 C 228.39 210.42 229.14 208.06 229.76 205.68 C 228.11 206.80 226.66 208.21 224.90 209.18 C 224.59 204.47 234.92 201.58 232.48 208.26 C 235.16 207.47 236.47 205.07 237.63 202.74 C 236.71 206.60 241.30 210.26 240.58 202.44 Z" />
</g>
<g id="#01010072">
</g>
<g id="#6c6c39ff">
<path fill="#6c6c39" opacity="1.00" d=" M 202.25 201.17 C 206.69 198.23 204.42 215.00 203.76 206.07 C 200.01 208.56 199.40 203.07 202.25 201.17 Z" />
</g>
<g id="#9aac69ff">
<path fill="#9aac69" opacity="1.00" d=" M 241.97 202.98 C 249.09 208.25 255.77 197.36 262.08 205.07 C 262.42 209.17 257.10 217.46 252.79 213.19 C 251.01 213.20 249.44 215.45 247.74 214.04 C 248.24 211.93 247.98 210.51 245.62 211.57 C 240.42 213.73 242.10 205.17 241.97 202.98 Z" />
</g>
<g id="#848e49f5">
<path fill="#848e49" opacity="0.96" d=" M 265.05 201.16 C 265.64 201.28 266.83 201.52 267.42 201.63 C 267.67 201.95 268.17 202.59 268.42 202.91 C 267.44 204.82 267.47 207.05 268.33 209.00 C 267.55 210.04 266.77 211.06 266.01 212.11 L 265.09 212.53 C 263.62 208.92 266.59 204.98 265.05 201.16 Z" />
</g>
<g id="#2f341d73">
</g>
<g id="#0000003c">
</g>
<g id="#7f8b4aff">
<path fill="#7f8b4a" opacity="1.00" d=" M 183.55 214.16 C 183.37 212.57 185.28 211.24 186.36 212.80 C 186.67 214.36 184.27 216.20 183.55 214.16 Z" />
</g>
<g id="#00000019">
</g>
<g id="#0000002c">
</g>
<g id="#81833dff">
<path fill="#81833d" opacity="1.00" d=" M 199.05 215.17 C 201.23 212.97 208.56 215.52 204.40 218.42 C 200.76 222.50 209.61 221.85 211.37 224.58 C 213.71 221.33 218.88 224.32 220.11 221.32 C 226.77 221.41 221.37 224.50 218.87 227.03 C 218.68 232.49 211.92 228.07 212.99 232.81 C 215.41 232.79 219.66 230.49 215.91 237.17 C 212.10 235.30 207.51 231.92 207.90 238.96 C 215.42 236.34 208.73 242.60 208.69 246.49 C 204.94 245.43 206.52 247.48 208.10 249.54 C 199.74 248.70 197.83 261.45 188.98 260.23 C 190.33 263.12 195.46 264.54 194.61 268.56 C 191.97 270.28 189.52 277.68 186.19 273.68 C 183.08 264.81 187.67 269.92 191.10 271.07 C 193.90 264.56 186.72 263.15 182.43 263.03 C 182.05 257.51 175.92 253.09 177.14 247.04 C 176.80 246.68 176.13 245.96 175.80 245.60 C 178.78 244.24 180.81 245.38 181.39 248.57 C 183.16 248.33 186.27 248.24 183.49 246.49 C 176.85 242.77 183.26 232.70 189.03 238.31 C 184.97 244.26 192.96 245.15 196.58 241.74 C 202.13 243.42 200.32 240.31 200.09 238.23 C 202.45 239.67 204.88 239.76 206.90 237.69 C 204.49 235.57 202.25 229.71 199.04 232.92 C 195.36 230.26 197.04 222.38 191.06 221.03 C 186.57 225.26 194.46 226.52 194.11 231.08 C 191.06 231.42 189.34 223.13 188.75 230.09 C 187.46 229.35 185.07 228.38 186.59 226.59 C 189.35 223.43 189.22 219.37 189.87 215.53 C 195.02 215.24 195.67 221.61 199.95 222.09 C 199.70 219.78 199.06 217.51 199.05 215.17 M 181.04 249.96 C 181.36 252.30 178.84 258.69 182.75 256.75 C 186.17 255.53 184.27 249.56 181.04 249.96 Z" />
</g>
<g id="#7d8a53ff">
<path fill="#7d8a53" opacity="1.00" d=" M 181.22 217.11 C 184.70 216.12 190.22 219.16 187.11 223.05 C 183.73 225.89 177.22 221.46 181.22 217.11 Z" />
</g>
<g id="#282e149d">
<path fill="#282e14" opacity="0.62" d=" M 241.75 219.39 C 243.60 219.38 247.29 219.36 249.13 219.35 C 246.96 220.60 244.57 220.85 241.96 220.09 L 241.75 219.39 Z" />
</g>
<g id="#9aa45eff">
<path fill="#9aa45e" opacity="1.00" d=" M 191.06 221.03 C 197.04 222.38 195.36 230.26 199.04 232.92 C 202.25 229.71 204.49 235.57 206.90 237.69 C 204.88 239.76 202.45 239.67 200.09 238.23 C 200.32 240.31 202.13 243.42 196.58 241.74 C 192.96 245.15 184.97 244.26 189.03 238.31 C 189.32 237.41 191.00 235.07 189.01 235.13 C 185.31 235.20 188.36 231.93 188.75 230.09 C 189.34 223.13 191.06 231.42 194.11 231.08 C 194.46 226.52 186.57 225.26 191.06 221.03 Z" />
</g>
<g id="#86934ffd">
<path fill="#86934f" opacity="1.00" d=" M 225.13 224.57 C 226.58 222.21 229.27 221.05 231.97 220.97 C 232.05 222.75 232.22 226.31 232.30 228.09 C 231.07 233.63 228.44 238.76 225.22 243.39 C 224.60 237.72 209.25 240.29 213.96 243.85 C 220.90 241.39 211.66 249.46 216.42 251.62 C 218.35 254.47 220.60 249.97 222.97 249.69 C 228.14 253.02 220.73 259.84 216.49 260.56 C 214.31 264.74 214.27 270.51 210.02 273.29 C 207.41 272.08 207.80 269.27 209.44 267.42 C 213.36 263.24 208.01 254.80 202.30 257.11 C 197.23 261.25 203.34 271.58 194.57 272.59 C 194.34 276.75 190.51 277.48 187.20 278.40 C 183.26 283.99 190.70 281.50 190.03 285.14 C 186.32 285.14 182.92 282.33 184.33 278.45 C 181.96 277.69 181.49 275.19 180.99 273.07 C 181.76 269.63 175.92 263.99 182.43 263.03 C 186.72 263.15 193.90 264.56 191.10 271.07 C 187.67 269.92 183.08 264.81 186.19 273.68 C 189.52 277.68 191.97 270.28 194.61 268.56 C 195.46 264.54 190.33 263.12 188.98 260.23 C 197.83 261.45 199.74 248.70 208.10 249.54 C 206.52 247.48 204.94 245.43 208.69 246.49 C 208.73 242.60 215.42 236.34 207.90 238.96 C 207.51 231.92 212.10 235.30 215.91 237.17 C 219.66 230.49 215.41 232.79 212.99 232.81 C 211.92 228.07 218.68 232.49 218.87 227.03 C 220.87 229.14 229.45 226.36 225.13 224.57 Z" />
</g>
<g id="#4143239e">
<path fill="#414323" opacity="0.62" d=" M 231.97 220.97 L 232.74 220.88 C 233.94 223.15 233.79 225.56 232.30 228.09 C 232.22 226.31 232.05 222.75 231.97 220.97 Z" />
</g>
<g id="#00000021">
</g>
<g id="#736c2ffb">
<path fill="#736c2f" opacity="1.00" d=" M 213.96 243.85 C 209.25 240.29 224.60 237.72 225.22 243.39 C 223.86 245.61 218.70 247.78 222.97 249.69 C 220.60 249.97 218.35 254.47 216.42 251.62 C 211.66 249.46 220.90 241.39 213.96 243.85 Z" />
</g>
<g id="#695f33ff">
<path fill="#695f33" opacity="1.00" d=" M 177.14 247.04 C 175.92 253.09 182.05 257.51 182.43 263.03 C 175.92 263.99 181.76 269.63 180.99 273.07 C 175.89 275.54 175.50 271.85 174.47 267.86 C 173.48 267.00 172.35 266.34 171.24 265.66 L 171.01 264.84 L 170.84 264.15 C 172.37 264.02 176.20 266.14 174.86 263.13 C 173.12 258.79 166.44 256.53 167.14 251.27 C 169.47 248.18 173.64 247.73 177.14 247.04 Z" />
</g>
<g id="#596633fd">
<path fill="#596633" opacity="1.00" d=" M 134.52 250.95 C 137.77 251.06 140.84 250.14 143.85 249.05 C 146.34 252.74 149.97 262.13 142.98 261.29 C 142.27 264.27 147.66 263.06 146.78 266.00 C 145.75 269.66 147.77 273.94 144.85 276.98 C 142.10 276.33 139.33 274.04 136.56 275.88 C 135.34 274.84 134.41 273.53 133.52 272.22 C 133.47 270.64 133.36 267.47 133.31 265.89 C 132.48 264.93 131.66 263.97 130.86 262.99 C 131.79 259.43 132.89 255.92 133.97 252.41 C 134.11 252.04 134.38 251.31 134.52 250.95 Z" />
</g>
<g id="#c6b89bff">
<path fill="#c6b89b" opacity="1.00" d=" M 181.04 249.96 C 184.27 249.56 186.17 255.53 182.75 256.75 C 178.84 258.69 181.36 252.30 181.04 249.96 Z" />
</g>
<g id="#7a7836fd">
<path fill="#7a7836" opacity="1.00" d=" M 202.30 257.11 C 208.01 254.80 213.36 263.24 209.44 267.42 C 207.80 269.27 207.41 272.08 210.02 273.29 C 208.54 274.04 206.68 274.23 205.65 275.66 C 202.18 280.41 195.62 280.57 191.50 284.54 C 186.45 287.24 185.05 292.86 181.10 296.52 C 179.79 295.74 178.38 295.46 176.87 295.67 C 173.72 294.42 169.86 292.97 168.88 289.34 C 172.04 289.34 175.16 289.13 178.33 288.85 C 173.74 288.50 173.06 283.41 168.12 283.92 C 170.13 277.80 162.07 280.14 162.55 274.54 C 167.15 274.12 173.35 273.25 174.47 267.86 C 175.50 271.85 175.89 275.54 180.99 273.07 C 181.49 275.19 181.96 277.69 184.33 278.45 C 182.92 282.33 186.32 285.14 190.03 285.14 C 190.70 281.50 183.26 283.99 187.20 278.40 C 190.51 277.48 194.34 276.75 194.57 272.59 C 203.34 271.58 197.23 261.25 202.30 257.11 M 205.30 261.16 C 204.51 262.99 203.11 264.75 203.12 266.80 C 206.43 271.27 212.33 258.98 205.30 261.16 Z" />
</g>
<g id="#6d5c36ff">
<path fill="#6d5c36" opacity="1.00" d=" M 151.71 262.68 C 156.05 256.07 163.19 260.97 168.25 263.83 C 165.50 266.76 160.41 269.86 162.55 274.54 C 162.07 280.14 170.13 277.80 168.12 283.92 C 160.82 286.40 158.66 279.10 153.86 276.07 C 150.42 272.94 146.22 265.93 151.71 262.68 Z" />
</g>
<g id="#c1b198ff">
<path fill="#c1b198" opacity="1.00" d=" M 205.30 261.16 C 212.33 258.98 206.43 271.27 203.12 266.80 C 203.11 264.75 204.51 262.99 205.30 261.16 Z" />
</g>
<g id="#998861ff">
<path fill="#998861" opacity="1.00" d=" M 168.25 263.83 C 168.90 263.91 170.19 264.07 170.84 264.15 L 171.01 264.84 C 166.03 264.85 168.08 268.97 169.09 272.03 C 171.84 271.35 170.78 267.73 171.24 265.66 C 172.35 266.34 173.48 267.00 174.47 267.86 C 173.35 273.25 167.15 274.12 162.55 274.54 C 160.41 269.86 165.50 266.76 168.25 263.83 Z" />
</g>
<g id="#cdc2aeff">
<path fill="#cdc2ae" opacity="1.00" d=" M 169.09 272.03 C 168.08 268.97 166.03 264.85 171.01 264.84 L 171.24 265.66 C 170.78 267.73 171.84 271.35 169.09 272.03 Z" />
</g>
<g id="#26291498">
<path fill="#262914" opacity="0.60" d=" M 133.31 265.89 C 133.36 267.47 133.47 270.64 133.52 272.22 C 133.47 270.64 133.36 267.47 133.31 265.89 Z" />
</g>
<g id="#2d2c15a3">
<path fill="#2d2c15" opacity="0.64" d=" M 138.96 278.09 C 141.45 280.70 139.08 285.10 139.79 288.27 C 139.55 288.00 139.05 287.45 138.81 287.18 C 138.90 284.15 138.94 281.09 138.96 278.09 Z" />
</g>
<g id="#29200e98">
<path fill="#29200e" opacity="0.60" d=" M 176.16 296.27 L 176.87 295.67 C 178.38 295.46 179.79 295.74 181.10 296.52 C 179.86 296.45 177.39 296.33 176.16 296.27 Z" />
</g>
</svg>






