<?xml version="1.0" encoding="UTF-8" ?>
<!DOCTYPE svg PUBLIC "-//W3C//DTD SVG 1.1//EN" "http://www.w3.org/Graphics/SVG/1.1/DTD/svg11.dtd">
<svg width="384pt" height="384pt" viewBox="0 0 384 384" version="1.1" xmlns="http://www.w3.org/2000/svg">
<g id="#0000000f">
</g>
<g id="#00000018">
</g>
<g id="#00000021">
</g>
<g id="#2c23129d">
<path fill="#2c2312" opacity="0.62" d=" M 168.86 86.71 C 170.43 86.45 173.56 85.93 175.13 85.67 C 175.37 86.00 175.84 86.64 176.07 86.96 C 174.27 86.90 170.66 86.78 168.86 86.71 Z" />
</g>
<g id="#595e33fd">
<path fill="#595e33" opacity="1.00" d=" M 148.94 92.88 C 156.23 92.89 163.10 91.21 168.86 86.71 C 170.66 86.78 174.27 86.90 176.07 86.96 C 178.29 88.15 180.55 89.27 182.84 90.33 C 184.40 90.43 187.51 90.63 189.07 90.73 C 189.33 90.99 189.83 91.51 190.09 91.77 C 185.38 90.04 189.63 96.93 186.04 93.91 C 182.68 90.11 181.26 96.44 177.69 96.40 C 175.83 96.48 173.93 96.52 172.63 98.08 C 168.89 98.71 169.86 94.33 169.62 91.93 C 166.41 94.97 159.87 94.35 159.48 99.61 C 157.66 102.06 153.85 101.88 152.01 104.47 C 160.03 105.36 153.82 112.70 156.48 117.38 C 158.06 120.53 151.41 119.74 152.02 122.96 C 152.85 127.29 156.40 122.40 158.98 122.49 C 162.99 122.36 158.97 118.29 159.01 116.02 C 160.34 112.79 162.41 109.78 162.71 106.20 C 167.07 104.99 171.66 105.11 176.15 104.95 C 176.23 107.34 173.47 107.04 171.91 107.86 C 164.39 108.15 169.68 125.47 176.39 120.45 L 177.39 120.06 C 177.69 124.44 177.25 129.79 173.85 132.87 C 168.70 136.12 177.64 141.99 181.10 140.25 C 176.43 146.71 168.79 136.67 163.96 142.46 C 170.85 143.87 167.11 151.11 167.94 155.37 C 169.36 159.42 172.31 162.66 175.83 165.00 C 171.56 163.35 174.41 171.06 170.45 168.48 C 165.30 164.78 159.23 162.95 153.42 160.60 C 151.61 163.89 147.51 163.19 144.30 162.83 C 144.05 159.39 140.48 153.26 136.99 157.48 C 139.83 157.87 143.32 160.87 140.71 163.66 C 139.00 167.69 134.59 164.06 131.67 166.11 C 130.20 162.14 131.56 158.16 134.10 155.13 C 135.48 153.98 134.67 152.29 134.40 150.84 C 134.18 149.21 134.01 147.57 133.91 145.93 C 134.65 142.98 135.19 139.98 136.16 137.09 C 138.66 133.93 137.52 130.32 136.03 127.01 C 136.01 125.26 135.96 121.77 135.94 120.02 C 138.59 116.02 137.34 110.51 140.99 106.94 C 148.20 105.50 144.84 97.18 148.94 92.88 Z" />
</g>
<g id="#1f1e0e82">
</g>
<g id="#67733dff">
<path fill="#67733d" opacity="1.00" d=" M 159.48 99.61 C 159.87 94.35 166.41 94.97 169.62 91.93 C 169.86 94.33 168.89 98.71 172.63 98.08 C 173.21 102.03 179.37 102.93 180.65 107.11 C 182.42 110.75 183.71 114.62 183.35 118.72 C 185.78 123.02 188.14 114.72 191.23 118.04 C 186.92 123.56 182.92 130.56 183.99 137.92 C 185.91 136.68 187.60 134.71 190.11 134.92 C 190.06 137.31 185.41 142.05 190.07 142.08 C 194.91 142.39 187.64 143.94 186.09 144.41 C 185.51 148.01 190.88 145.37 191.73 148.05 C 192.60 149.53 192.80 151.26 193.01 152.94 C 191.72 150.67 190.09 150.85 188.63 152.89 C 186.82 147.46 185.24 153.35 182.48 153.78 C 180.76 146.02 172.51 153.53 167.94 155.37 C 167.11 151.11 170.85 143.87 163.96 142.46 C 168.79 136.67 176.43 146.71 181.10 140.25 C 177.64 141.99 168.70 136.12 173.85 132.87 C 177.25 129.79 177.69 124.44 177.39 120.06 L 177.38 119.18 C 183.96 115.23 179.85 105.30 171.91 107.86 C 173.47 107.04 176.23 107.34 176.15 104.95 C 171.66 105.11 167.07 104.99 162.71 106.20 C 162.41 109.78 160.34 112.79 159.01 116.02 C 158.97 118.29 162.99 122.36 158.98 122.49 C 156.40 122.40 152.85 127.29 152.02 122.96 C 151.41 119.74 158.06 120.53 156.48 117.38 C 153.82 112.70 160.03 105.36 152.01 104.47 C 153.85 101.88 157.66 102.06 159.48 99.61 Z" />
</g>
<g id="#7d7f38fd">
<path fill="#7d7f38" opacity="1.00" d=" M 177.69 96.40 C 181.26 96.44 182.68 90.11 186.04 93.91 C 189.63 96.93 185.38 90.04 190.09 91.77 C 193.79 93.31 196.62 96.04 198.14 99.77 C 199.17 101.89 200.46 104.28 198.27 106.15 C 203.26 106.57 208.64 107.56 213.08 104.63 C 215.30 106.72 217.23 109.14 219.84 110.78 C 215.62 116.84 222.47 118.41 224.01 122.92 C 221.35 123.65 216.34 124.27 216.86 120.12 C 216.68 118.37 216.45 116.63 216.21 114.89 C 216.94 106.78 208.81 110.10 204.31 112.02 C 204.96 104.44 201.62 112.62 198.34 113.80 C 196.60 109.55 193.87 112.11 191.33 114.11 C 193.77 107.53 181.61 107.82 186.85 101.93 C 184.54 103.46 180.63 103.62 180.65 107.11 C 179.37 102.93 173.21 102.03 172.63 98.08 C 173.93 96.52 175.83 96.48 177.69 96.40 Z" />
</g>
<g id="#5d5626f0">
<path fill="#5d5626" opacity="0.94" d=" M 198.14 99.77 C 203.23 101.01 208.05 103.17 213.08 104.63 C 208.64 107.56 203.26 106.57 198.27 106.15 C 200.46 104.28 199.17 101.89 198.14 99.77 Z" />
</g>
<g id="#00000029">
</g>
<g id="#8f9a58fe">
<path fill="#8f9a58" opacity="1.00" d=" M 180.65 107.11 C 180.63 103.62 184.54 103.46 186.85 101.93 C 181.61 107.82 193.77 107.53 191.33 114.11 C 193.87 112.11 196.60 109.55 198.34 113.80 C 201.62 112.62 204.96 104.44 204.31 112.02 C 208.81 110.10 216.94 106.78 216.21 114.89 C 212.08 113.00 212.61 120.45 216.86 120.12 C 216.34 124.27 221.35 123.65 224.01 122.92 C 222.47 118.41 215.62 116.84 219.84 110.78 C 223.19 113.85 227.34 118.10 225.52 123.04 C 223.77 125.63 226.72 126.72 228.89 125.91 C 229.84 126.75 230.67 127.72 231.48 128.71 C 229.94 133.96 223.41 130.75 219.99 129.01 C 217.57 126.37 216.62 131.01 214.15 131.10 C 212.66 126.26 210.33 121.27 204.96 119.85 C 206.18 125.26 209.52 131.87 214.55 133.90 C 214.33 136.52 211.83 135.13 210.18 135.05 C 209.87 134.83 209.26 134.38 208.95 134.16 C 210.47 130.53 204.60 134.49 206.83 131.80 C 210.16 127.34 199.04 129.20 197.59 126.27 C 198.87 121.17 196.36 110.10 191.23 118.04 C 188.14 114.72 185.78 123.02 183.35 118.72 C 183.71 114.62 182.42 110.75 180.65 107.11 Z" />
</g>
<g id="#8a7743ff">
<path fill="#8a7743" opacity="1.00" d=" M 176.39 120.45 C 169.68 125.47 164.39 108.15 171.91 107.86 C 179.85 105.30 183.96 115.23 177.38 119.18 C 177.57 110.85 170.17 119.27 176.39 120.45 Z" />
</g>
<g id="#c5b79eff">
<path fill="#c5b79e" opacity="1.00" d=" M 216.86 120.12 C 212.61 120.45 212.08 113.00 216.21 114.89 C 216.45 116.63 216.68 118.37 216.86 120.12 Z" />
</g>
<g id="#c9b99fff">
<path fill="#c9b99f" opacity="1.00" d=" M 176.39 120.45 C 170.17 119.27 177.57 110.85 177.38 119.18 L 177.39 120.06 L 176.39 120.45 Z" />
</g>
<g id="#7b813dff">
<path fill="#7b813d" opacity="1.00" d=" M 191.23 118.04 C 196.36 110.10 198.87 121.17 197.59 126.27 C 199.04 129.20 210.16 127.34 206.83 131.80 C 204.60 134.49 210.47 130.53 208.95 134.16 C 206.70 133.89 204.47 133.44 202.20 133.27 C 196.51 137.62 209.29 153.70 207.19 138.79 C 208.62 139.52 210.41 139.96 211.17 141.53 C 206.52 142.44 207.38 147.63 212.24 146.27 C 210.55 147.01 208.80 147.60 207.04 148.14 C 204.73 145.50 201.20 146.48 198.10 146.97 C 198.70 151.33 203.33 152.02 205.10 154.98 C 200.99 154.84 197.06 153.52 193.01 152.94 C 192.80 151.26 192.60 149.53 191.73 148.05 C 190.88 145.37 185.51 148.01 186.09 144.41 C 187.64 143.94 194.91 142.39 190.07 142.08 C 185.41 142.05 190.06 137.31 190.11 134.92 C 187.60 134.71 185.91 136.68 183.99 137.92 C 182.92 130.56 186.92 123.56 191.23 118.04 Z" />
</g>
<g id="#26271588">
</g>
<g id="#828947fe">
<path fill="#828947" opacity="1.00" d=" M 204.96 119.85 C 210.33 121.27 212.66 126.26 214.15 131.10 C 216.62 131.01 217.57 126.37 219.99 129.01 C 223.41 130.75 229.94 133.96 231.48 128.71 C 232.38 129.49 233.31 130.24 234.22 131.02 C 233.81 132.40 233.49 133.79 233.25 135.21 C 232.72 135.46 231.66 135.95 231.13 136.20 C 228.37 136.05 218.45 133.27 223.83 137.85 C 229.66 141.93 232.95 148.90 234.37 155.72 C 237.57 164.68 230.80 163.99 227.03 159.95 C 226.11 157.68 225.64 155.45 228.91 155.69 C 228.28 152.56 225.39 152.45 222.46 152.89 C 222.51 156.60 221.33 162.52 227.03 159.95 C 229.63 166.19 218.50 162.62 214.73 164.31 C 209.93 164.33 212.01 171.49 210.65 174.69 C 205.10 182.50 212.94 187.97 214.78 194.91 C 210.98 197.09 214.14 201.21 217.67 200.56 C 221.30 200.23 232.04 203.59 229.14 196.90 C 225.99 194.15 216.08 200.83 216.98 193.47 C 219.00 191.70 221.87 193.03 224.28 192.34 C 226.08 193.12 227.77 194.12 229.48 195.10 C 229.77 197.72 232.54 197.25 233.24 195.16 C 233.60 195.05 234.32 194.84 234.68 194.74 C 234.89 197.86 235.10 201.03 235.48 204.16 C 234.86 210.07 233.19 215.90 230.31 221.11 C 228.18 220.48 223.76 224.51 223.89 220.91 C 223.95 218.66 222.47 221.97 221.85 222.32 C 221.34 218.57 216.51 216.68 223.05 215.47 C 220.26 213.00 216.15 213.55 212.80 212.31 C 212.68 214.22 213.84 215.09 215.62 215.26 C 212.46 219.05 218.14 224.18 222.08 223.98 C 222.83 225.38 223.55 226.80 224.27 228.23 C 221.14 232.40 222.33 237.91 221.84 242.80 C 222.33 246.90 220.36 249.29 216.95 250.53 C 214.43 246.33 220.38 243.31 220.23 239.01 C 218.67 240.32 217.19 241.73 215.60 243.00 C 207.93 245.58 206.71 233.74 214.06 233.05 C 218.44 232.51 213.79 229.50 211.80 229.05 C 217.01 230.14 216.46 226.78 212.21 225.61 C 214.54 223.89 214.37 216.30 211.16 219.04 C 210.53 221.49 208.43 222.50 206.18 223.12 C 207.40 220.60 205.49 217.51 202.72 217.30 C 198.63 217.04 196.23 221.83 192.25 222.16 C 193.60 217.84 188.08 216.56 184.91 216.17 C 193.40 218.53 193.22 213.37 187.23 214.59 C 183.88 212.19 177.29 204.60 184.32 202.46 C 184.07 197.32 187.92 199.71 190.18 202.30 C 189.26 204.29 186.29 207.42 190.09 207.94 C 194.14 210.88 197.15 204.34 201.36 206.56 C 203.78 207.73 202.42 205.08 202.35 203.77 C 204.54 205.06 208.76 210.64 209.98 205.93 C 209.32 202.63 205.96 200.23 202.84 199.13 C 200.03 194.13 200.96 187.01 195.42 183.70 C 195.39 186.91 194.19 189.86 193.24 192.84 C 191.77 191.83 187.95 188.90 191.99 188.89 C 195.60 188.13 188.45 182.96 187.44 186.53 C 183.43 186.58 184.62 178.18 188.70 179.23 C 191.50 179.95 192.49 182.51 192.63 185.13 C 195.21 184.34 194.10 180.78 194.99 178.67 C 196.52 179.07 199.59 179.87 201.13 180.27 C 195.14 187.16 211.25 180.87 207.27 176.80 C 204.01 174.95 199.72 169.85 203.74 166.71 C 201.65 177.21 206.15 169.38 208.59 167.54 C 206.31 165.84 203.49 164.40 203.18 161.23 C 205.17 160.00 207.36 158.98 208.95 157.21 C 206.76 155.59 207.32 153.73 209.02 151.98 C 212.60 155.56 215.42 151.64 217.94 148.99 C 220.79 143.59 211.44 137.66 218.04 134.10 C 216.87 134.02 215.71 133.95 214.55 133.90 C 209.52 131.87 206.18 125.26 204.96 119.85 M 204.93 161.00 C 204.71 163.32 208.16 166.69 209.84 163.81 C 210.74 161.06 206.57 161.79 204.93 161.00 M 214.24 235.39 C 212.04 236.30 208.70 241.62 212.99 241.01 C 216.45 242.05 216.39 235.04 214.24 235.39 Z" />
</g>
<g id="#475420bf">
<path fill="#475420" opacity="0.75" d=" M 228.89 125.91 C 226.72 126.72 223.77 125.63 225.52 123.04 C 226.59 124.05 227.80 124.90 228.89 125.91 Z" />
</g>
<g id="#00000032">
</g>
<g id="#3e3d1886">
</g>
<g id="#686132ff">
<path fill="#686132" opacity="1.00" d=" M 202.20 133.27 C 204.47 133.44 206.70 133.89 208.95 134.16 C 209.26 134.38 209.87 134.83 210.18 135.05 C 209.13 136.25 208.01 137.42 207.19 138.79 C 209.29 153.70 196.51 137.62 202.20 133.27 Z" />
</g>
<g id="#8a7329ff">
<path fill="#8a7329" opacity="1.00" d=" M 214.55 133.90 C 215.71 133.95 216.87 134.02 218.04 134.10 C 211.44 137.66 220.79 143.59 217.94 148.99 C 215.42 151.64 212.60 155.56 209.02 151.98 C 208.36 150.69 207.71 149.41 207.04 148.14 C 208.80 147.60 210.55 147.01 212.24 146.27 C 214.33 145.41 211.93 142.74 211.17 141.53 C 210.41 139.96 208.62 139.52 207.19 138.79 C 208.01 137.42 209.13 136.25 210.18 135.05 C 211.83 135.13 214.33 136.52 214.55 133.90 Z" />
</g>
<g id="#344019ce">
<path fill="#344019" opacity="0.81" d=" M 223.83 137.85 C 218.45 133.27 228.37 136.05 231.13 136.20 C 228.85 137.26 226.25 137.35 223.83 137.85 Z" />
</g>
<g id="#0000003f">
</g>
<g id="#baa78bff">
<path fill="#baa78b" opacity="1.00" d=" M 212.24 146.27 C 207.38 147.63 206.52 142.44 211.17 141.53 C 211.93 142.74 214.33 145.41 212.24 146.27 Z" />
</g>
<g id="#00000050">
</g>
<g id="#92a05cff">
<path fill="#92a05c" opacity="1.00" d=" M 198.10 146.97 C 201.20 146.48 204.73 145.50 207.04 148.14 C 207.71 149.41 208.36 150.69 209.02 151.98 C 207.32 153.73 206.76 155.59 208.95 157.21 C 207.36 158.98 205.17 160.00 203.18 161.23 C 203.49 164.40 206.31 165.84 208.59 167.54 C 206.15 169.38 201.65 177.21 203.74 166.71 C 199.72 169.85 204.01 174.95 207.27 176.80 C 211.25 180.87 195.14 187.16 201.13 180.27 C 199.59 179.87 196.52 179.07 194.99 178.67 C 193.28 175.82 190.96 174.65 189.03 177.99 C 187.32 175.28 190.03 173.62 191.47 171.64 C 191.71 169.17 191.73 166.68 191.83 164.21 C 191.93 157.54 196.52 164.27 194.17 167.79 C 198.00 171.22 202.72 164.60 196.16 164.60 C 200.63 160.17 193.75 157.00 193.01 152.94 C 197.06 153.52 200.99 154.84 205.10 154.98 C 203.33 152.02 198.70 151.33 198.10 146.97 Z" />
</g>
<g id="#0000005f">
</g>
<g id="#5f683bff">
<path fill="#5f683b" opacity="1.00" d=" M 167.94 155.37 C 172.51 153.53 180.76 146.02 182.48 153.78 C 185.24 153.35 186.82 147.46 188.63 152.89 C 187.43 157.12 187.26 162.21 191.83 164.21 C 191.73 166.68 191.71 169.17 191.47 171.64 C 190.03 173.62 187.32 175.28 189.03 177.99 C 190.96 174.65 193.28 175.82 194.99 178.67 C 194.10 180.78 195.21 184.34 192.63 185.13 C 192.49 182.51 191.50 179.95 188.70 179.23 C 184.62 178.18 183.43 186.58 187.44 186.53 C 188.45 182.96 195.60 188.13 191.99 188.89 C 187.95 188.90 191.77 191.83 193.24 192.84 C 193.22 194.96 189.86 195.28 190.05 197.56 C 193.86 197.10 194.20 203.03 190.18 202.30 C 187.92 199.71 184.07 197.32 184.32 202.46 C 177.29 204.60 183.88 212.19 187.23 214.59 C 193.22 213.37 193.40 218.53 184.91 216.17 C 183.48 215.36 182.45 213.28 180.58 213.72 C 180.65 211.21 176.21 206.23 176.47 210.72 C 171.77 209.38 167.08 210.92 162.42 211.46 C 161.55 213.81 161.66 220.44 157.25 218.90 C 154.85 217.39 156.05 214.34 158.06 213.11 C 159.69 207.41 154.35 197.86 147.66 202.52 C 142.29 201.73 148.35 186.91 148.25 196.94 C 154.22 199.67 149.25 186.57 147.51 191.92 C 142.99 186.05 155.03 191.21 155.25 185.31 C 155.39 179.22 169.20 169.74 171.51 178.68 C 174.99 177.85 182.92 181.46 179.90 174.25 C 175.19 171.77 181.52 167.14 175.83 165.00 C 172.31 162.66 169.36 159.42 167.94 155.37 Z" />
</g>
<g id="#7e834aff">
<path fill="#7e834a" opacity="1.00" d=" M 188.63 152.89 C 190.09 150.85 191.72 150.67 193.01 152.94 C 193.75 157.00 200.63 160.17 196.16 164.60 C 202.72 164.60 198.00 171.22 194.17 167.79 C 196.52 164.27 191.93 157.54 191.83 164.21 C 187.26 162.21 187.43 157.12 188.63 152.89 Z" />
</g>
<g id="#6b622dff">
<path fill="#6b622d" opacity="1.00" d=" M 222.46 152.89 C 225.39 152.45 228.28 152.56 228.91 155.69 C 225.64 155.45 226.11 157.68 227.03 159.95 C 221.33 162.52 222.51 156.60 222.46 152.89 Z" />
</g>
<g id="#01010073">
</g>
<g id="#50552dfe">
<path fill="#50552d" opacity="1.00" d=" M 136.99 157.48 C 140.48 153.26 144.05 159.39 144.30 162.83 C 147.51 163.19 151.61 163.89 153.42 160.60 C 159.23 162.95 165.30 164.78 170.45 168.48 C 174.41 171.06 171.56 163.35 175.83 165.00 C 181.52 167.14 175.19 171.77 179.90 174.25 C 182.92 181.46 174.99 177.85 171.51 178.68 C 169.20 169.74 155.39 179.22 155.25 185.31 C 155.03 191.21 142.99 186.05 147.51 191.92 C 149.25 186.57 154.22 199.67 148.25 196.94 C 148.35 186.91 142.29 201.73 147.66 202.52 C 154.35 197.86 159.69 207.41 158.06 213.11 C 156.05 214.34 154.85 217.39 157.25 218.90 C 161.66 220.44 161.55 213.81 162.42 211.46 C 167.08 210.92 171.77 209.38 176.47 210.72 C 173.53 213.30 168.55 213.42 167.68 218.69 C 165.18 225.64 176.38 228.54 178.07 234.02 C 178.16 238.91 173.68 234.08 171.09 234.78 C 165.82 230.66 157.97 229.32 152.18 233.18 C 150.31 235.18 154.00 240.84 149.21 238.67 C 145.33 235.74 141.47 240.17 143.80 244.11 L 143.22 244.04 C 142.94 243.76 142.39 243.20 142.11 242.92 L 142.04 241.92 L 142.02 240.90 C 142.03 240.42 142.05 239.46 142.05 238.98 C 143.84 231.42 139.84 224.82 136.97 218.11 C 136.27 214.96 138.29 210.77 135.94 208.12 C 133.58 205.80 131.97 202.90 130.97 199.76 C 131.48 193.77 131.66 186.95 136.83 182.93 C 141.22 186.05 144.66 175.06 149.04 178.69 C 149.83 185.43 156.30 178.19 158.74 175.68 C 167.73 176.19 160.67 172.09 158.36 170.59 C 153.56 168.65 164.98 160.54 154.52 164.23 C 154.33 168.99 150.63 163.80 147.89 164.96 C 147.52 167.39 151.46 170.82 148.15 172.05 C 144.84 167.37 137.23 169.91 132.89 172.12 L 132.05 171.95 C 131.95 170.00 131.84 168.05 131.67 166.11 C 134.59 164.06 139.00 167.69 140.71 163.66 C 143.32 160.87 139.83 157.87 136.99 157.48 Z" />
</g>
<g id="#5a682ffc">
<path fill="#5a682f" opacity="1.00" d=" M 234.37 155.72 C 234.65 158.17 234.84 160.65 234.95 163.13 C 234.38 167.47 240.72 164.56 243.28 164.32 C 245.58 163.90 247.88 164.30 250.00 165.27 C 252.47 166.89 254.82 167.01 257.03 165.63 C 261.49 167.63 266.29 169.25 269.92 172.67 C 270.72 176.22 266.45 181.53 269.98 184.41 C 268.16 186.10 266.01 187.36 264.03 188.85 L 263.16 189.09 C 262.99 187.27 262.83 185.45 262.67 183.63 C 264.37 181.55 268.59 178.91 265.96 176.06 C 263.89 172.27 261.25 168.65 256.48 170.57 C 254.54 163.40 244.70 166.65 243.61 172.82 C 241.49 168.79 236.35 169.82 232.49 169.27 C 232.07 173.15 227.46 174.08 227.31 177.92 C 224.31 177.79 227.80 172.79 227.75 170.64 C 223.79 173.36 222.81 179.05 227.27 181.87 C 229.68 181.20 230.57 178.78 231.77 176.86 C 230.54 181.57 234.95 184.36 238.47 185.89 C 239.03 182.88 241.14 181.76 244.00 182.04 C 244.16 184.62 244.54 188.47 247.90 186.12 C 250.86 187.04 253.90 186.64 256.89 186.07 C 256.69 188.15 256.18 190.25 256.73 192.33 C 254.61 192.79 252.45 192.96 250.24 192.85 C 246.76 192.03 243.27 192.01 239.79 192.78 C 238.77 193.06 237.78 193.42 236.81 193.85 C 236.28 194.07 235.21 194.52 234.68 194.74 C 234.32 194.84 233.60 195.05 233.24 195.16 C 232.19 194.20 230.43 193.71 229.48 195.10 C 227.77 194.12 226.08 193.12 224.28 192.34 C 216.64 189.88 209.60 183.46 210.65 174.69 C 212.01 171.49 209.93 164.33 214.73 164.31 C 218.50 162.62 229.63 166.19 227.03 159.95 C 230.80 163.99 237.57 164.68 234.37 155.72 Z" />
</g>
<g id="#00000042">
</g>
<g id="#b5a888ff">
<path fill="#b5a888" opacity="1.00" d=" M 204.93 161.00 C 206.57 161.79 210.74 161.06 209.84 163.81 C 208.16 166.69 204.71 163.32 204.93 161.00 Z" />
</g>
<g id="#262c129c">
<path fill="#262c12" opacity="0.61" d=" M 234.95 163.13 C 237.65 163.95 240.46 164.03 243.28 164.32 C 240.72 164.56 234.38 167.47 234.95 163.13 Z" />
</g>
<g id="#414923fe">
<path fill="#414923" opacity="1.00" d=" M 154.52 164.23 C 164.98 160.54 153.56 168.65 158.36 170.59 C 160.67 172.09 167.73 176.19 158.74 175.68 C 156.30 178.19 149.83 185.43 149.04 178.69 C 144.66 175.06 141.22 186.05 136.83 182.93 C 138.65 181.04 137.47 179.38 135.32 178.67 C 134.50 177.13 133.72 175.58 132.93 174.02 C 132.92 173.55 132.90 172.60 132.89 172.12 C 137.23 169.91 144.84 167.37 148.15 172.05 C 151.46 170.82 147.52 167.39 147.89 164.96 C 150.63 163.80 154.33 168.99 154.52 164.23 Z" />
</g>
<g id="#272f13a1">
<path fill="#272f13" opacity="0.63" d=" M 250.00 165.27 C 252.23 164.01 254.57 164.14 257.03 165.63 C 254.82 167.01 252.47 166.89 250.00 165.27 Z" />
</g>
<g id="#7a8c49ff">
<path fill="#7a8c49" opacity="1.00" d=" M 243.61 172.82 C 244.70 166.65 254.54 163.40 256.48 170.57 C 261.25 168.65 263.89 172.27 265.96 176.06 C 260.54 169.61 253.34 175.16 247.08 171.11 C 245.49 174.56 243.89 178.17 244.00 182.04 C 241.14 181.76 239.03 182.88 238.47 185.89 C 234.95 184.36 230.54 181.57 231.77 176.86 C 230.57 178.78 229.68 181.20 227.27 181.87 C 222.81 179.05 223.79 173.36 227.75 170.64 C 227.80 172.79 224.31 177.79 227.31 177.92 C 227.46 174.08 232.07 173.15 232.49 169.27 C 236.35 169.82 241.49 168.79 243.61 172.82 Z" />
</g>
<g id="#00000034">
</g>
<g id="#99aa65ff">
<path fill="#99aa65" opacity="1.00" d=" M 247.08 171.11 C 253.34 175.16 260.54 169.61 265.96 176.06 C 268.59 178.91 264.37 181.55 262.67 183.63 C 258.89 188.24 258.87 182.05 255.35 182.08 C 255.50 186.69 253.00 183.21 250.89 182.01 C 248.35 181.26 248.02 184.36 247.90 186.12 C 244.54 188.47 244.16 184.62 244.00 182.04 C 243.89 178.17 245.49 174.56 247.08 171.11 Z" />
</g>
<g id="#7c8643ed">
<path fill="#7c8643" opacity="0.93" d=" M 269.98 184.41 C 266.45 181.53 270.72 176.22 269.92 172.67 C 270.93 173.61 271.78 174.71 272.60 175.83 C 271.37 177.37 271.38 179.61 272.59 181.17 C 271.80 182.31 270.99 183.45 269.98 184.41 Z" />
</g>
<g id="#90a162ff">
<path fill="#90a162" opacity="1.00" d=" M 214.78 194.91 C 212.94 187.97 205.10 182.50 210.65 174.69 C 209.60 183.46 216.64 189.88 224.28 192.34 C 221.87 193.03 219.00 191.70 216.98 193.47 C 216.43 193.83 215.33 194.55 214.78 194.91 Z" />
</g>
<g id="#31371f77">
</g>
<g id="#748137fd">
<path fill="#748137" opacity="1.00" d=" M 247.90 186.12 C 248.02 184.36 248.35 181.26 250.89 182.01 C 253.00 183.21 255.50 186.69 255.35 182.08 C 258.87 182.05 258.89 188.24 262.67 183.63 C 262.83 185.45 262.99 187.27 263.16 189.09 C 260.95 190.04 258.86 191.22 256.73 192.33 C 256.18 190.25 256.69 188.15 256.89 186.07 C 253.90 186.64 250.86 187.04 247.90 186.12 Z" />
</g>
<g id="#99a360ff">
<path fill="#99a360" opacity="1.00" d=" M 195.42 183.70 C 200.96 187.01 200.03 194.13 202.84 199.13 C 205.96 200.23 209.32 202.63 209.98 205.93 C 208.76 210.64 204.54 205.06 202.35 203.77 C 202.42 205.08 203.78 207.73 201.36 206.56 C 197.15 204.34 194.14 210.88 190.09 207.94 C 186.29 207.42 189.26 204.29 190.18 202.30 C 194.20 203.03 193.86 197.10 190.05 197.56 C 189.86 195.28 193.22 194.96 193.24 192.84 C 194.19 189.86 195.39 186.91 195.42 183.70 Z" />
</g>
<g id="#01020120">
</g>
<g id="#333a1ac8">
<path fill="#333a1a" opacity="0.78" d=" M 239.79 192.78 C 243.27 192.01 246.76 192.03 250.24 192.85 C 246.76 192.94 243.26 192.80 239.79 192.78 Z" />
</g>
<g id="#6c632cff">
<path fill="#6c632c" opacity="1.00" d=" M 214.78 194.91 C 215.33 194.55 216.43 193.83 216.98 193.47 C 216.08 200.83 225.99 194.15 229.14 196.90 C 232.04 203.59 221.30 200.23 217.67 200.56 C 214.14 201.21 210.98 197.09 214.78 194.91 Z" />
</g>
<g id="#c2b7a1ff">
<path fill="#c2b7a1" opacity="1.00" d=" M 229.48 195.10 C 230.43 193.71 232.19 194.20 233.24 195.16 C 232.54 197.25 229.77 197.72 229.48 195.10 Z" />
</g>
<g id="#262a157a">
</g>
<g id="#0000004e">
</g>
<g id="#0000005c">
</g>
<g id="#272b17b5">
<path fill="#272b17" opacity="0.71" d=" M 135.94 208.12 C 138.29 210.77 136.27 214.96 136.97 218.11 C 136.72 217.62 136.24 216.64 135.99 216.15 C 135.99 215.60 135.99 214.50 135.99 213.96 C 136.00 213.25 136.01 211.84 136.02 211.13 C 136.00 210.38 135.96 208.87 135.94 208.12 Z" />
</g>
<g id="#7d7c38ff">
<path fill="#7d7c38" opacity="1.00" d=" M 176.47 210.72 C 176.21 206.23 180.65 211.21 180.58 213.72 C 178.97 217.09 178.10 226.21 183.53 222.68 C 182.46 221.30 181.89 219.41 183.07 217.89 C 185.88 218.00 185.50 224.92 187.56 221.52 C 188.59 219.46 190.70 222.08 192.25 222.16 C 196.23 221.83 198.63 217.04 202.72 217.30 C 205.49 217.51 207.40 220.60 206.18 223.12 C 202.50 226.87 197.54 229.37 192.23 228.14 C 187.55 232.72 196.79 234.85 198.90 236.14 C 197.07 239.77 194.02 245.78 189.24 244.92 C 184.18 240.57 193.78 231.81 186.23 228.79 C 181.89 225.55 187.38 234.14 182.06 232.01 C 175.92 226.91 177.92 217.80 176.47 210.72 M 190.99 235.00 C 191.03 236.44 191.11 239.31 191.15 240.75 C 194.74 244.86 194.45 233.80 190.99 235.00 Z" />
</g>
<g id="#696334ff">
<path fill="#696334" opacity="1.00" d=" M 176.47 210.72 C 177.92 217.80 175.92 226.91 182.06 232.01 C 176.89 230.60 178.26 237.95 181.44 239.62 C 184.38 244.71 187.76 250.40 184.87 256.06 C 188.37 252.55 191.36 255.35 193.95 258.32 C 198.04 261.33 202.65 257.99 206.87 257.14 C 210.61 262.34 199.32 256.26 202.02 261.93 C 204.56 261.60 207.99 260.97 204.26 263.29 C 200.16 268.12 198.01 260.63 193.75 260.56 C 190.00 259.24 183.30 255.47 183.11 261.91 C 190.94 258.39 187.46 267.24 183.61 270.12 C 179.66 269.14 179.95 265.63 180.52 262.37 C 176.88 258.58 171.46 255.18 165.96 256.88 C 161.00 258.31 162.08 251.14 158.59 249.46 C 155.80 247.88 153.86 245.32 151.50 243.23 C 150.36 246.85 146.96 245.33 144.22 244.82 L 143.80 244.11 C 141.47 240.17 145.33 235.74 149.21 238.67 C 154.00 240.84 150.31 235.18 152.18 233.18 C 157.97 229.32 165.82 230.66 171.09 234.78 C 163.29 231.71 166.39 243.35 167.02 247.93 C 169.04 253.48 172.39 243.57 176.05 247.11 C 172.31 250.13 176.95 251.50 179.60 252.43 C 178.69 255.58 179.31 258.05 183.07 258.09 C 181.73 249.26 176.10 241.76 171.09 234.78 C 173.68 234.08 178.16 238.91 178.07 234.02 C 176.38 228.54 165.18 225.64 167.68 218.69 C 168.55 213.42 173.53 213.30 176.47 210.72 Z" />
</g>
<g id="#939e67ff">
<path fill="#939e67" opacity="1.00" d=" M 212.80 212.31 C 216.15 213.55 220.26 213.00 223.05 215.47 C 216.51 216.68 221.34 218.57 221.85 222.32 C 221.91 222.74 222.02 223.56 222.08 223.98 C 218.14 224.18 212.46 219.05 215.62 215.26 C 213.84 215.09 212.68 214.22 212.80 212.31 Z" />
</g>
<g id="#0000006d">
</g>
<g id="#9b9b5fff">
<path fill="#9b9b5f" opacity="1.00" d=" M 180.58 213.72 C 182.45 213.28 183.48 215.36 184.91 216.17 C 188.08 216.56 193.60 217.84 192.25 222.16 C 190.70 222.08 188.59 219.46 187.56 221.52 C 185.50 224.92 185.88 218.00 183.07 217.89 C 181.89 219.41 182.46 221.30 183.53 222.68 C 178.10 226.21 178.97 217.09 180.58 213.72 Z" />
</g>
<g id="#00000039">
</g>
<g id="#0101007f">
</g>
<g id="#8b9c5cff">
<path fill="#8b9c5c" opacity="1.00" d=" M 211.16 219.04 C 214.37 216.30 214.54 223.89 212.21 225.61 C 216.46 226.78 217.01 230.14 211.80 229.05 C 202.55 227.97 204.04 240.04 207.72 245.26 C 209.18 250.37 213.27 244.61 215.60 243.00 C 217.19 241.73 218.67 240.32 220.23 239.01 C 220.38 243.31 214.43 246.33 216.95 250.53 C 215.19 252.67 212.60 248.83 210.88 251.84 C 208.20 255.43 204.82 249.49 202.31 252.28 C 200.30 254.19 196.45 254.95 194.80 252.30 C 196.56 252.67 199.74 252.88 198.98 250.09 C 198.30 246.28 193.44 249.14 190.96 249.25 C 190.75 254.32 203.10 256.76 193.95 258.32 C 191.36 255.35 188.37 252.55 184.87 256.06 C 187.76 250.40 184.38 244.71 181.44 239.62 C 178.26 237.95 176.89 230.60 182.06 232.01 C 187.38 234.14 181.89 225.55 186.23 228.79 C 193.78 231.81 184.18 240.57 189.24 244.92 C 194.02 245.78 197.07 239.77 198.90 236.14 C 196.79 234.85 187.55 232.72 192.23 228.14 C 197.54 229.37 202.50 226.87 206.18 223.12 C 208.43 222.50 210.53 221.49 211.16 219.04 M 200.22 241.17 C 195.12 244.68 201.34 250.02 203.95 245.40 C 200.70 245.51 203.45 239.90 200.22 241.17 Z" />
</g>
<g id="#746326f1">
<path fill="#746326" opacity="0.95" d=" M 221.85 222.32 C 222.47 221.97 223.95 218.66 223.89 220.91 C 223.76 224.51 228.18 220.48 230.31 221.11 C 228.91 223.94 226.39 225.96 224.27 228.23 C 223.55 226.80 222.83 225.38 222.08 223.98 C 222.02 223.56 221.91 222.74 221.85 222.32 Z" />
</g>
<g id="#685d2bff">
<path fill="#685d2b" opacity="1.00" d=" M 207.72 245.26 C 204.04 240.04 202.55 227.97 211.80 229.05 C 213.79 229.50 218.44 232.51 214.06 233.05 C 206.71 233.74 207.93 245.58 215.60 243.00 C 213.27 244.61 209.18 250.37 207.72 245.26 Z" />
</g>
<g id="#0000001f">
</g>
<g id="#39431bc5">
<path fill="#39431b" opacity="0.77" d=" M 281.83 230.91 C 285.63 229.32 290.43 229.54 294.13 230.91 C 293.64 230.92 292.66 230.94 292.17 230.95 C 288.70 230.94 285.28 230.92 281.83 230.91 Z" />
</g>
<g id="#232d12a1">
<path fill="#232d12" opacity="0.63" d=" M 266.04 230.97 C 271.05 230.91 276.04 231.10 281.06 231.04 C 276.42 232.09 271.67 232.05 266.96 232.00 L 265.96 231.95 L 266.04 230.97 Z" />
</g>
<g id="#5e7035fd">
<path fill="#5e7035" opacity="1.00" d=" M 281.06 231.04 L 281.83 230.91 C 285.28 230.92 288.70 230.94 292.17 230.95 C 292.82 235.15 290.23 233.44 287.89 232.14 C 282.83 233.69 281.71 242.97 290.27 239.37 C 288.90 240.02 287.53 240.64 286.16 241.26 C 283.38 239.98 280.93 240.10 278.80 241.61 C 277.34 242.14 275.96 242.82 274.71 243.74 C 271.36 238.74 286.09 242.49 281.65 238.38 C 280.55 233.26 272.74 231.75 270.59 236.61 C 269.32 241.29 265.60 238.71 262.40 238.02 C 263.34 244.23 253.05 245.02 256.21 251.13 C 253.23 252.69 252.78 251.48 253.78 248.68 C 251.81 248.56 251.62 246.40 250.92 244.98 C 254.20 243.34 256.16 240.21 258.61 237.64 C 261.10 236.37 270.19 237.19 266.96 232.00 C 271.67 232.05 276.42 232.09 281.06 231.04 Z" />
</g>
<g id="#8b9853fa">
<path fill="#8b9853" opacity="0.98" d=" M 292.17 230.95 C 292.66 230.94 293.64 230.92 294.13 230.91 C 294.42 231.16 295.01 231.65 295.31 231.90 C 294.89 233.30 294.88 234.70 295.28 236.11 C 293.84 237.52 292.10 238.56 290.27 239.37 C 281.71 242.97 282.83 233.69 287.89 232.14 C 290.23 233.44 292.82 235.15 292.17 230.95 Z" />
</g>
<g id="#404d21f7">
<path fill="#404d21" opacity="0.97" d=" M 245.20 242.17 C 250.56 235.90 258.24 233.67 265.96 231.95 L 266.96 232.00 C 270.19 237.19 261.10 236.37 258.61 237.64 C 256.16 240.21 254.20 243.34 250.92 244.98 C 249.54 245.16 248.14 245.29 246.83 245.77 C 243.14 247.00 239.45 248.45 235.50 248.46 C 234.34 250.60 232.57 255.95 233.88 245.95 C 230.68 245.91 232.69 250.89 229.82 251.76 C 227.35 252.73 229.28 255.93 227.80 257.74 C 224.88 259.28 226.97 255.44 226.84 253.96 C 224.31 253.51 222.48 254.37 222.50 257.16 C 221.29 255.65 220.83 253.75 220.29 251.94 C 220.85 250.63 221.53 249.38 222.13 248.10 C 229.36 244.50 238.09 245.62 245.20 242.17 Z" />
</g>
<g id="#4e4d3094">
</g>
<g id="#8d8856ff">
<path fill="#8d8856" opacity="1.00" d=" M 167.02 247.93 C 166.39 243.35 163.29 231.71 171.09 234.78 C 176.10 241.76 181.73 249.26 183.07 258.09 C 179.31 258.05 178.69 255.58 179.60 252.43 C 176.95 251.50 172.31 250.13 176.05 247.11 C 172.39 243.57 169.04 253.48 167.02 247.93 Z" />
</g>
<g id="#828f52ff">
<path fill="#828f52" opacity="1.00" d=" M 270.59 236.61 C 272.74 231.75 280.55 233.26 281.65 238.38 C 286.09 242.49 271.36 238.74 274.71 243.74 C 275.03 244.06 275.66 244.68 275.98 245.00 C 277.44 249.31 273.13 252.36 275.92 257.02 C 270.85 255.94 276.32 258.63 273.59 260.55 C 272.17 261.92 271.50 263.77 273.07 265.36 C 272.80 265.78 272.26 266.63 271.99 267.05 C 271.04 265.82 270.00 264.49 269.53 266.87 C 265.01 263.82 271.15 262.20 271.08 259.23 C 268.70 259.50 266.33 259.84 263.94 259.93 C 263.96 255.21 265.13 250.64 261.86 248.05 C 264.57 244.19 268.81 251.95 272.87 248.73 C 277.06 240.15 257.52 238.80 261.86 248.05 C 259.47 246.23 257.98 249.95 256.21 251.13 C 253.05 245.02 263.34 244.23 262.40 238.02 C 265.60 238.71 269.32 241.29 270.59 236.61 Z" />
</g>
<g id="#aca17dff">
<path fill="#aca17d" opacity="1.00" d=" M 190.99 235.00 C 194.45 233.80 194.74 244.86 191.15 240.75 C 191.11 239.31 191.03 236.44 190.99 235.00 Z" />
</g>
<g id="#d5c9b4ff">
<path fill="#d5c9b4" opacity="1.00" d=" M 214.24 235.39 C 216.39 235.04 216.45 242.05 212.99 241.01 C 208.70 241.62 212.04 236.30 214.24 235.39 Z" />
</g>
<g id="#6d6837ff">
<path fill="#6d6837" opacity="1.00" d=" M 200.22 241.17 C 203.45 239.90 200.70 245.51 203.95 245.40 C 201.34 250.02 195.12 244.68 200.22 241.17 Z" />
</g>
<g id="#9aab6cff">
<path fill="#9aab6c" opacity="1.00" d=" M 261.86 248.05 C 257.52 238.80 277.06 240.15 272.87 248.73 C 268.81 251.95 264.57 244.19 261.86 248.05 Z" />
</g>
<g id="#1821087b">
</g>
<g id="#505525fa">
<path fill="#505525" opacity="0.98" d=" M 151.50 243.23 C 153.86 245.32 155.80 247.88 158.59 249.46 C 162.08 251.14 161.00 258.31 165.96 256.88 C 171.46 255.18 176.88 258.58 180.52 262.37 C 179.95 265.63 179.66 269.14 183.61 270.12 C 186.93 272.93 192.50 272.10 194.07 276.94 C 195.41 282.18 202.51 284.02 204.65 278.62 C 208.89 276.07 203.49 272.97 202.85 269.88 C 205.99 270.12 207.52 275.23 210.75 272.48 C 212.41 275.74 213.54 279.22 214.40 282.77 C 216.16 282.59 218.97 282.95 219.76 281.07 C 221.38 276.11 222.48 288.28 228.06 285.18 C 220.73 284.52 212.44 294.16 206.12 287.70 C 202.58 284.18 196.78 286.73 192.42 285.56 C 185.51 280.59 178.26 275.91 173.13 268.96 C 169.30 267.17 164.82 266.43 161.16 264.03 C 156.06 258.32 145.64 258.47 143.63 250.00 C 144.02 248.30 144.21 246.56 144.22 244.82 C 146.96 245.33 150.36 246.85 151.50 243.23 Z" />
</g>
<g id="#767f34ff">
<path fill="#767f34" opacity="1.00" d=" M 216.95 250.53 C 220.36 249.29 222.33 246.90 221.84 242.80 C 221.91 244.57 222.04 246.33 222.13 248.10 C 221.53 249.38 220.85 250.63 220.29 251.94 C 217.21 255.77 221.70 258.41 224.17 260.81 C 222.82 264.37 219.98 259.93 217.61 261.51 C 214.94 261.71 214.56 264.49 213.42 266.37 C 211.46 267.23 209.14 267.73 207.93 269.69 C 210.58 270.95 214.00 270.79 216.00 273.16 C 215.26 276.53 217.50 278.96 219.76 281.07 C 218.97 282.95 216.16 282.59 214.40 282.77 C 213.54 279.22 212.41 275.74 210.75 272.48 C 207.52 275.23 205.99 270.12 202.85 269.88 C 203.49 272.97 208.89 276.07 204.65 278.62 C 202.51 284.02 195.41 282.18 194.07 276.94 C 192.50 272.10 186.93 272.93 183.61 270.12 C 187.46 267.24 190.94 258.39 183.11 261.91 C 183.30 255.47 190.00 259.24 193.75 260.56 C 198.01 260.63 200.16 268.12 204.26 263.29 C 207.99 260.97 204.56 261.60 202.02 261.93 C 199.32 256.26 210.61 262.34 206.87 257.14 C 202.65 257.99 198.04 261.33 193.95 258.32 C 203.10 256.76 190.75 254.32 190.96 249.25 C 193.44 249.14 198.30 246.28 198.98 250.09 C 199.74 252.88 196.56 252.67 194.80 252.30 C 196.45 254.95 200.30 254.19 202.31 252.28 C 204.82 249.49 208.20 255.43 210.88 251.84 C 212.60 248.83 215.19 252.67 216.95 250.53 M 192.30 262.31 C 188.90 262.49 190.12 265.94 191.21 267.93 C 195.05 268.88 197.18 259.92 192.30 262.31 Z" />
</g>
<g id="#292c159f">
<path fill="#292c15" opacity="0.62" d=" M 143.22 244.04 L 143.80 244.11 L 144.22 244.82 C 144.21 246.56 144.02 248.30 143.63 250.00 L 143.13 249.80 C 142.76 247.89 142.83 245.93 143.22 244.04 Z" />
</g>
<g id="#818645ff">
<path fill="#818645" opacity="1.00" d=" M 246.83 245.77 C 248.14 245.29 249.54 245.16 250.92 244.98 C 251.62 246.40 251.81 248.56 253.78 248.68 C 252.78 251.48 253.23 252.69 256.21 251.13 C 256.41 255.35 257.02 259.54 257.63 263.72 C 256.18 269.37 248.89 270.97 248.16 276.97 C 247.23 278.10 246.32 279.28 245.16 280.19 C 242.26 277.33 231.34 282.96 233.54 275.77 C 229.06 277.02 228.48 280.34 230.38 284.08 C 229.80 284.36 228.64 284.91 228.06 285.18 C 222.48 288.28 221.38 276.11 219.76 281.07 C 217.50 278.96 215.26 276.53 216.00 273.16 C 219.96 269.00 220.34 273.88 222.15 277.00 C 224.95 276.78 227.12 274.90 229.49 273.66 C 231.09 275.40 233.43 274.82 232.96 272.18 C 229.30 268.09 227.08 276.02 223.19 274.93 C 220.88 271.53 225.09 268.66 225.26 265.18 C 226.86 268.82 230.02 268.16 231.73 265.03 C 232.19 271.42 235.02 262.76 239.27 265.80 C 238.00 267.10 236.64 268.35 235.66 269.90 C 242.85 274.20 241.64 267.80 239.27 265.80 C 239.26 265.15 239.23 263.86 239.22 263.22 C 238.10 258.31 241.77 256.06 244.04 252.92 C 245.11 250.59 245.98 248.18 246.83 245.77 M 243.21 257.17 C 238.73 262.82 249.60 257.92 243.21 257.17 M 245.40 269.31 C 243.47 271.56 242.42 275.17 238.98 275.32 C 240.90 276.93 245.10 280.03 246.45 276.37 C 247.76 273.98 250.11 267.05 245.40 269.31 Z" />
</g>
<g id="#4b5b2cf7">
<path fill="#4b5b2c" opacity="0.97" d=" M 275.98 245.00 C 277.67 246.09 279.42 247.07 281.17 248.08 C 276.07 250.00 279.71 264.80 275.92 257.02 C 273.13 252.36 277.44 249.31 275.98 245.00 Z" />
</g>
<g id="#626e32ff">
<path fill="#626e32" opacity="1.00" d=" M 229.82 251.76 C 232.69 250.89 230.68 245.91 233.88 245.95 C 232.57 255.95 234.34 250.60 235.50 248.46 C 239.45 248.45 243.14 247.00 246.83 245.77 C 245.98 248.18 245.11 250.59 244.04 252.92 C 239.90 249.54 235.33 252.99 235.72 257.93 C 230.92 254.60 230.33 261.64 228.65 264.87 C 227.05 263.63 225.65 262.17 224.17 260.81 C 221.70 258.41 217.21 255.77 220.29 251.94 C 220.83 253.75 221.29 255.65 222.50 257.16 C 222.48 254.37 224.31 253.51 226.84 253.96 C 226.97 255.44 224.88 259.28 227.80 257.74 C 229.28 255.93 227.35 252.73 229.82 251.76 Z" />
</g>
<g id="#37461cdb">
<path fill="#37461c" opacity="0.86" d=" M 281.94 248.20 C 287.12 249.01 293.84 243.09 298.23 247.66 C 293.42 251.50 287.37 248.85 281.94 248.20 Z" />
</g>
<g id="#4b4c24fc">
<path fill="#4b4c24" opacity="1.00" d=" M 256.21 251.13 C 257.98 249.95 259.47 246.23 261.86 248.05 C 265.13 250.64 263.96 255.21 263.94 259.93 C 262.56 266.20 252.96 268.78 256.60 276.24 C 262.97 277.17 267.23 271.24 271.99 267.05 C 272.26 266.63 272.80 265.78 273.07 265.36 C 277.32 265.53 278.86 268.38 279.05 272.55 C 278.88 273.73 278.72 274.93 278.42 276.09 C 278.38 273.49 276.51 271.42 273.94 271.12 C 269.76 270.06 273.20 278.32 269.80 278.70 C 267.25 279.19 265.22 280.64 264.48 283.21 C 260.28 278.59 254.46 277.02 248.16 276.97 C 248.89 270.97 256.18 269.37 257.63 263.72 C 257.02 259.54 256.41 255.35 256.21 251.13 Z" />
</g>
<g id="#737e3ef9">
<path fill="#737e3e" opacity="0.98" d=" M 281.17 248.08 L 281.94 248.20 C 287.37 248.85 293.42 251.50 298.23 247.66 C 299.48 249.49 299.50 251.63 298.29 254.08 C 297.20 246.62 283.81 251.98 280.21 255.12 C 280.81 261.30 287.67 258.51 290.13 255.12 C 292.28 255.77 294.15 257.08 296.07 258.22 C 293.07 259.24 290.49 260.74 290.22 264.21 C 292.31 259.99 284.31 256.92 284.96 261.97 C 284.13 265.20 288.35 263.69 290.22 264.21 C 288.24 265.46 285.77 266.05 284.33 268.01 C 281.49 260.64 274.72 274.11 282.87 269.89 C 281.81 271.05 280.36 271.74 279.05 272.55 C 278.86 268.38 277.32 265.53 273.07 265.36 C 271.50 263.77 272.17 261.92 273.59 260.55 C 276.32 258.63 270.85 255.94 275.92 257.02 C 279.71 264.80 276.07 250.00 281.17 248.08 Z" />
</g>
<g id="#4f4c21ff">
<path fill="#4f4c21" opacity="1.00" d=" M 235.72 257.93 C 235.33 252.99 239.90 249.54 244.04 252.92 C 241.77 256.06 238.10 258.31 239.22 263.22 C 237.74 261.66 236.10 260.15 235.72 257.93 Z" />
</g>
<g id="#99a664fd">
<path fill="#99a664" opacity="1.00" d=" M 280.21 255.12 C 283.81 251.98 297.20 246.62 298.29 254.08 C 297.65 255.51 297.02 256.97 296.07 258.22 C 294.15 257.08 292.28 255.77 290.13 255.12 C 287.67 258.51 280.81 261.30 280.21 255.12 Z" />
</g>
<g id="#00000017">
</g>
<g id="#89985cff">
<path fill="#89985c" opacity="1.00" d=" M 228.65 264.87 C 230.33 261.64 230.92 254.60 235.72 257.93 C 236.10 260.15 237.74 261.66 239.22 263.22 C 239.23 263.86 239.26 265.15 239.27 265.80 C 235.02 262.76 232.19 271.42 231.73 265.03 C 230.02 268.16 226.86 268.82 225.26 265.18 C 225.09 268.66 220.88 271.53 223.19 274.93 C 227.08 276.02 229.30 268.09 232.96 272.18 C 233.43 274.82 231.09 275.40 229.49 273.66 C 227.12 274.90 224.95 276.78 222.15 277.00 C 220.34 273.88 219.96 269.00 216.00 273.16 C 214.00 270.79 210.58 270.95 207.93 269.69 C 209.14 267.73 211.46 267.23 213.42 266.37 C 214.56 264.49 214.94 261.71 217.61 261.51 C 219.98 259.93 222.82 264.37 224.17 260.81 C 225.65 262.17 227.05 263.63 228.65 264.87 Z" />
</g>
<g id="#c4b296ff">
<path fill="#c4b296" opacity="1.00" d=" M 243.21 257.17 C 249.60 257.92 238.73 262.82 243.21 257.17 Z" />
</g>
<g id="#717938ff">
<path fill="#717938" opacity="1.00" d=" M 263.94 259.93 C 266.33 259.84 268.70 259.50 271.08 259.23 C 271.15 262.20 265.01 263.82 269.53 266.87 C 270.00 264.49 271.04 265.82 271.99 267.05 C 267.23 271.24 262.97 277.17 256.60 276.24 C 252.96 268.78 262.56 266.20 263.94 259.93 Z" />
</g>
<g id="#97aa6cff">
<path fill="#97aa6c" opacity="1.00" d=" M 284.96 261.97 C 284.31 256.92 292.31 259.99 290.22 264.21 C 288.35 263.69 284.13 265.20 284.96 261.97 Z" />
</g>
<g id="#b2a680ff">
<path fill="#b2a680" opacity="1.00" d=" M 192.30 262.31 C 197.18 259.92 195.05 268.88 191.21 267.93 C 190.12 265.94 188.90 262.49 192.30 262.31 Z" />
</g>
<g id="#8c9f50ff">
<path fill="#8c9f50" opacity="1.00" d=" M 239.27 265.80 C 241.64 267.80 242.85 274.20 235.66 269.90 C 236.64 268.35 238.00 267.10 239.27 265.80 Z" />
</g>
<g id="#aba961fd">
<path fill="#aba961" opacity="1.00" d=" M 282.87 269.89 C 274.72 274.11 281.49 260.64 284.33 268.01 C 283.97 268.48 283.24 269.42 282.87 269.89 Z" />
</g>
<g id="#9da677ff">
<path fill="#9da677" opacity="1.00" d=" M 245.40 269.31 C 250.11 267.05 247.76 273.98 246.45 276.37 C 245.10 280.03 240.90 276.93 238.98 275.32 C 242.42 275.17 243.47 271.56 245.40 269.31 Z" />
</g>
<g id="#8a8a4dfa">
<path fill="#8a8a4d" opacity="0.98" d=" M 269.80 278.70 C 273.20 278.32 269.76 270.06 273.94 271.12 C 276.51 271.42 278.38 273.49 278.42 276.09 C 276.57 277.99 274.21 279.48 273.09 282.00 C 270.76 284.04 267.40 285.17 264.48 283.21 C 265.22 280.64 267.25 279.19 269.80 278.70 Z" />
</g>
<g id="#5b5b26f0">
<path fill="#5b5b26" opacity="0.94" d=" M 230.38 284.08 C 228.48 280.34 229.06 277.02 233.54 275.77 C 231.34 282.96 242.26 277.33 245.16 280.19 C 240.90 283.84 234.54 279.60 230.38 284.08 Z" />
</g>
</svg>






