<svg xmlns="http://www.w3.org/2000/svg" width="512" height="512" viewBox="0 0 384 384" xmlns:v="https://vecta.io/nano"><path fill="#676f30" d="M197.71 91.9c7.22-5.95 14.16 2.57 21.19 4.23 1.12 1.2 2.17 2.45 3.27 3.67-3.1 2.33-9.24-1.73-9.58 3.12-2.79.09-4.16-7.19-6.64-1.99-4.29 3.62-4.77 9.46-1.97 14.03-1.87 4.69-7.03-1.77-9.78-3.19-3.37-3.67-6.02 8.06-7.31 2.26.08-1.93-2.16-.12-3.12-.21 2.05-5.16 3.92-10.39 5.69-15.65 3.54-.62 6.79 1.89 10.19 1.55 1.06-1.56 5.06-3.3 3.3-5.26-2.61.33-5.92 1.38-5.24-2.56z"/><path fill="#545a2e" d="M175.88 96.78c6.85-3.38 15.12-.86 21.83-4.88-.68 3.94 2.63 2.89 5.24 2.56 1.76 1.96-2.24 3.7-3.3 5.26-3.4.34-6.65-2.17-10.19-1.55-1.77 5.26-3.64 10.49-5.69 15.65l-.9 1.5c-3.63.5-1.82-2.94-1.98-5.12-3.38-1.77-9.65-1.45-10.6 2.97-.45 4.18-5.66 3.82-8.39 5.97 1.94 1.89 5.12 3.25 4.08 6.56-2.04-2.63-10.61 2.65-5.22 3.72 5-.73 6.98 6.9 2.08 8.46-5.19 2.96 2.9 5.84 5.46 4.46 3.27-2.04.3-5.67-.04-8.45 1.04-8.11 8.47-13.13 16.75-10.88-.21 4.6-9.03 1.3-10.92 5.13-2.72 5.34 4.54 7.49 6.04 12.3-4.01 4.69-8.33 9.09-14.06 11.76-.05 3.66 5.86 3.7 6.89 6.81-.8 3.4-3.46 5.79-6.69 3.47-2.5 3.31-9.27 7.83-5.2 12.43 4.43 2.26 2.86 10.13 9.8 8.36 4.85 1.77 8.63 5.67 13.39 7.72-2.1-3.38-6.86-5.4-6.32-10.07 4.65 1.48 7.61 6.93 12.58 9.01.52-1.59 1.85-5.83 3.62-3.05 3.27 4.75-5.98 4.31-5.16 8.8 2.53.77 7.26-.42 4.02 5.32-4.59 1.07-8.88.24-11.63-3.55-11.83-2.37-19.89 11.48-17.49 21.68-2.82-.39-3.81-3.53-5.71-5.26-1.1 3.2-.68 6.46 1.93 8.77 7.14-4.3 13.54 6.66 11.83 11.3-5.17-1.48-2.39 6.79 1.04 6.08 4.04.77 1.31-6.43 3.29-7.84 4.87.82 9.79-.17 14.68.4l.35 1.04c-.93 3.83-5.03.12-6.6 3.08-7.16 5.72 1.74 13.13 7.04 16.43l.34 1.78c-1.08 1-2.27 1.89-3.55 2.62l-.96-.28c-1.32-1.34-2.59-2.72-3.79-4.16-7.25-5.25-19.68-5.49-21.71 4.77 4.74 6.28 9.27 17.82 18.2 16.29 4.05.14 9-.33 8.9 4.59 6.95-.74-2.02 2.39-4.49 3.13-6.26-4.89-16.68-.04-21.76-7.71-2.15-4.59-7.48-8.03-12.24-4.76l-.66-.44c-1.56-3.93-1.56-8.42-4.05-11.95-2.34-4.81 3.56-9.93.33-14.21-.8-1.54-1.58-3.09-2.25-4.69 0-2.56-.24-5.15-1.72-7.31l-.23-1.65c2.3-7.28-5.64-12.92-3.02-20.05.34-1.42.64-2.85.93-4.28.48-1.44 1.01-2.85 1.63-4.23 3.43-2.3 6.87 3.04 9.36-.52 2.54-1.26 6.89-4.79 8.78-.9 4.11 6.33 7.94-1.84 11.56-2.54 7.89 1.66-.13-4.93-3.08-6.84.89-1.57 2.44-2.82 2.77-4.67-10.67-3.48-20.26 4.7-30.97 2.05-.67-5.37-3.17-10.92.19-15.91.73-.7 1.43-1.43 2.11-2.17a8.62 8.62 0 0 0-.13-6.3c.87-6.9 3.65-13.3 5.9-19.78-.07-1.41-.33-2.79-.67-4.15l-.22-.96c-.1-1.28-.17-2.56-.2-3.84 1.48-2.49 2.15-5.3 1.93-8.2 2.32-4.23 5.93-7.57 10.18-9.82 7.42-4.7 14.38-10.42 16.74-19.26z"/><path fill="#6c6930" d="M228 102.13c4.22 2.82 6.29-2.13 8.91-4.6a4.48 4.48 0 0 0 5.05.13c1.4 2.7 4.51 2.56 7.22 3.07-3.4-.62-3.23 1.7-2.63 4.22-2.56.76-5.12.34-7.54-.63-3.56 3.75 4.55 5.6 3.06 9.82-4.96-1.18-8.05-12.74-11.38-4.4-4.26 1.8-5.14 10.19.76 8.71l.96-.13c-.39 2.64 2.36 10.6-2.27 7.52-3.05-6.19-7.22-4.42-11.4-1.29-4.82-1.85-5.51 3.28-8.51 5.74-.8.25-1.76 2.06-2.52.87-1.04-4.21 5.22-3.26 4.35-7.28-2.46.68-4.58 2.15-6.85 3.23 2.05-3.86-2.16-3.67-2.43-6.83 2.95.83 6.35 2 9.29.63-1.7-3.47-9.56-3.53-5.72-8.54 3.78-3.29 14.11-.32 8.55 5.62l9.79-.1c1.09-5.26 1.72-10.61 3.31-15.76z"/><path fill="#828f46" d="M205.95 100.93c2.48-5.2 3.85 2.08 6.64 1.99.34-4.85 6.48-.79 9.58-3.12 1.97.71 3.92 1.48 5.83 2.33-1.59 5.15-2.22 10.5-3.31 15.76l-9.79.1c5.56-5.94-4.77-8.91-8.55-5.62-3.84 5.01 4.02 5.07 5.72 8.54-2.94 1.37-6.34.2-9.29-.63.27 3.16 4.48 2.97 2.43 6.83 2.27-1.08 4.39-2.55 6.85-3.23.87 4.02-5.39 3.07-4.35 7.28-3.04-5.25-6.18 3.61-9.85-.72 1.94-.23 3.87-.69 2.99-3.05-2.91-.66-7.85-1.21-6.15-5.42-2.02-.49-3.59.6-4.83 2.07l-7-8.72.9-1.5c.96.09 3.2-1.72 3.12.21 1.29 5.8 3.94-5.93 7.31-2.26 2.75 1.42 7.91 7.88 9.78 3.19-2.8-4.57-2.32-10.41 1.97-14.03z"/><path fill="#777f3f" d="M246.55 104.95c-.6-2.52-.77-4.84 2.63-4.22 4.21.02 1.33 7.96 7.42 5.81 4.55.41 3.59 5.91 4.29 9.15-4.38 1.61-2.4 8.37 1.98 5.52-.17 5.08 4.57 4.64 9.07 4.78-.13.37-.37 1.11-.49 1.48-4.23.23-8.53-.19-12.64 1.02l-1.84.39c-.26-6.02-.82-12.82-3.74-18.1-.88 2.76-.59 5.5.66 8.08-4.09 4.55-6.72-6.25-9.44-.43-1.4.37 2.2-5.63-1.14-6.61 2.32 5.93-7.04 4.52-7.3 9.11.67 3.94 4.71.24 7.04.04 2.07 4.38-7.8 7.7-1.06 9.56-.99 3.69 1.94 3.79 4.85 3.51-3.05 5.99 6.2-.04 6.84 3.84-2.43 6.42 8.34.62 11.33 1.93 1.31-4.4-3.76-4.48-6.25-6.52 1.99.28 3.98.53 5.99.7 3.06 1.45 6.26 2.61 9.23 4.25 2.63 4.04-1.04 5.6-3.68 6.18-5.02-.74-10.06-1.28-15.11-1.6-5.19-.01-1.82-6.28-6.73-4.89 2 6.16-7.4 4.84-5.8-.92-4.33 4.72-6.52-3.53-10.23-5.2-.06-2.19-1.39-4.05-2.29-5.97 4.63 3.08 1.88-4.88 2.27-7.52 4.76-.9-2.81-9.02-2.67-4.52-.93 1.89.63 3.27 1.71 4.65-5.9 1.48-5.02-6.91-.76-8.71 3.33-8.34 6.42 3.22 11.38 4.4 1.49-4.22-6.62-6.07-3.06-9.82 2.42.97 4.98 1.39 7.54.63z"/><path fill="#69713e" d="M170.29 113.17c.95-4.42 7.22-4.74 10.6-2.97.16 2.18-1.65 5.62 1.98 5.12 2.4 2.85 4.7 5.78 7 8.72 1.43 4.67 1.3 9.8 2.89 14.31 3.01 3.04 4.67-4.78 7.75-1.29-1.43 2.37-2.44 5.28-5.35 6.19 3.1-7.28-9.23-1.77-7.53 3.65-3.75-.08-1.75-5.42-1.48-7.78l.28-.9c3.68-2.88 5.23-8.61.2-11.04-9.41-3.63-6.96 8.07-5.77 13.23l-.73.03c-1.5-4.81-8.76-6.96-6.04-12.3 1.89-3.83 10.71-.53 10.92-5.13-8.28-2.25-15.71 2.77-16.75 10.88.34 2.78 3.31 6.41.04 8.45-2.56 1.38-10.65-1.5-5.46-4.46 4.9-1.56 2.92-9.19-2.08-8.46-5.39-1.07 3.18-6.35 5.22-3.72 1.04-3.31-2.14-4.67-4.08-6.56 2.73-2.15 7.94-1.79 8.39-5.97z"/><path fill="#8f985b" d="M253.23 110.78c2.92 5.28 3.48 12.08 3.74 18.1-1.57 1.97-.1 3.56 1.79 4.41 2.49 2.04 7.56 2.12 6.25 6.52-2.99-1.31-13.76 4.49-11.33-1.93-.64-3.88-9.89 2.15-6.84-3.84 1.47-.86 2.97-1.68 4.36-2.68-5.94 1.3-5.94-7.33-1.37-8.88-5.02-5.22-5.69 5.38-7.84 8.05-6.74-1.86 3.13-5.18 1.06-9.56-2.33.2-6.37 3.9-7.04-.04.26-4.59 9.62-3.18 7.3-9.11 3.34.98-.26 6.98 1.14 6.61 2.72-5.82 5.35 4.98 9.44.43-1.25-2.58-1.54-5.32-.66-8.08m-4.02 16.38c-1.92.68-.87 2.95.84 2.79 3.41 1.26 2.38-5-.84-2.79z"/><path fill="#b19c7a" d="M229.74 113.8c-.14-4.5 7.43 3.62 2.67 4.52l-.96.13c-1.08-1.38-2.64-2.76-1.71-4.65z"/><path fill="#9da65c" opacity=".98" d="M262.87 121.21c-4.38 2.85-6.36-3.91-1.98-5.52l3.13 1.65 6.23.4.68.4c.66 2.56.91 5.2 1.01 7.85-4.5-.14-9.24.3-9.07-4.78z"/><path fill="#323c15" opacity=".67" d="M264.02 117.34c1.69-.65 3.52-1.05 5.34-.72l.89 1.12-6.23-.4z"/><path fill="#8d7c49" d="M218.74 124.55c4.18-3.13 8.35-4.9 11.4 1.29.9 1.92 2.23 3.78 2.29 5.97-1.12 2.03-2.18 4.08-3.19 6.15l-1.06 2.2c.24-4.84-3.34-4.74-3.68-.11-2.6-3.57-4.03-7.77-5.56-11.86-2.94.53-5.85 1.25-8.71 2.1 3-2.46 3.69-7.59 8.51-5.74m8.42 4.63c-2.15 1.26-.13 3.86.06 5.69 3.05 1.44 2.42-5.95-.06-5.69z"/><path fill="#5d5e2b" d="M241.99 130.53c2.15-2.67 2.82-13.27 7.84-8.05-4.57 1.55-4.57 10.18 1.37 8.88-1.39 1-2.89 1.82-4.36 2.68-2.91.28-5.84.18-4.85-3.51z"/><path fill="#919e61" d="M189.87 124.04c1.24-1.47 2.81-2.56 4.83-2.07-1.7 4.21 3.24 4.76 6.15 5.42.88 2.36-1.05 2.82-2.99 3.05 3.67 4.33 6.81-4.53 9.85.72.76 1.19 1.72-.62 2.52-.87 2.86-.85 5.77-1.57 8.71-2.1 1.53 4.09 2.96 8.29 5.56 11.86.34-4.63 3.92-4.73 3.68.11 0 1.55.04 3.11.14 4.66-1.34 3.23-4.77 1.1-7.31 1.05 1.55 1.68 4.16 3.29 3.78 5.91-1.29.43-2.58.87-3.84 1.37-1.12-1.34-5.7-3.7-2.09-4.6-1.11-2.83-3.98-.71-5.78.15-1.27-1.2-2.56-6.74-3.54-2.75-3.1-3.45-1.66-8.87-3.73-12.92-2.82-.59-3.45 2.7-5.3 4.03-3.08-3.49-4.74 4.33-7.75 1.29-1.59-4.51-1.46-9.64-2.89-14.31z"/><path fill="#928252" d="M180.86 140.41c-1.19-5.16-3.64-16.86 5.77-13.23 5.03 2.43 3.48 8.16-.2 11.04-.05-9.3-8.62 1.52-1.17 1.24-1.4.6-2.86 1.09-4.4.95z"/><path fill="#c5b79e" d="M249.21 127.16c3.22-2.21 4.25 4.05.84 2.79-1.71.16-2.76-2.11-.84-2.79z"/><path fill="#43531d" opacity=".93" d="M258.81 128.49c4.11-1.21 8.41-.79 12.64-1.02-.36 2.4-2.48 3.65-4.33 4.88-3.26-.05-5.69-2.25-8.31-3.86z"/><path fill="#c2b197" d="M227.16 129.18c2.48-.26 3.11 7.13.06 5.69-.19-1.83-2.21-4.43-.06-5.69z"/><path fill="#404d1d" opacity=".98" d="M232.43 131.81c3.71 1.67 5.9 9.92 10.23 5.2-1.6 5.76 7.8 7.08 5.8.92 4.91-1.39 1.54 4.88 6.73 4.89-3.54-.03-7.08-.08-10.5.9-1.61.07-3.12-.5-4.62-.98-3.73-1.32-7.28-3.07-10.83-4.78 1.01-2.07 2.07-4.12 3.19-6.15z"/><path fill="#7e8444" d="M200.51 137.06c1.85-1.33 2.48-4.62 5.3-4.03 2.07 4.05.63 9.47 3.73 12.92.98-3.99 2.27 1.55 3.54 2.75 1.8-.86 4.67-2.98 5.78-.15-3.61.9.97 3.26 2.09 4.6-.21.3-.62.91-.82 1.22-2.83-.1-5.34-1.35-7.94-2.27-2.42 4.08-1.45 11.96 3.78 13.98.74-2.47.93-5.08 1.9-7.47 1.08.96 2.17 1.92 3.21 2.93-2.24.66-3.46 2.36-3.18 4.71l-.94 1.96a243.52 243.52 0 0 0-7.12.98c.47 3.28 2.89 5.5 6.2 5.47-.2 1.68-.55 4.28-2.81 3.93 1.38 2.95-.74 4.99-2.85 6.81-.48 2.69 3.53 6.53-.38 7.75-4.4-1.06-2.03-12.45-6.15-6.38-5.75 2.62-2.69-8.39-3.71-12.56 2.13-.6 4.28-3.4 1.68-4.91-1.92.28-4.99 1.09-4.81-1.92 1.58-.54 3.59-.29 4.81-1.63 1.25-3.72-3.35-.34-4.88.31.43-2.84 1.8-5.35 2.96-7.92-2.41-3.12-4.61.96-6.81 1.96-1.93-5.96 3.13-11.03 2.07-16.85 2.91-.91 3.92-3.82 5.35-6.19m4.49 38.89c-.12 1.6-.24 3.42 1.93 3.19 1.96.02 3.51 6.27 4.49 2.24 1.12-4.06-3.09-5.47-6.42-5.43z"/><path fill="#cabda7" d="M185.26 139.46c-7.45.28 1.12-10.54 1.17-1.24l-.28.9-.89.34z"/><path fill="#5e673b" d="M185.26 139.46l.89-.34c-.27 2.36-2.27 7.7 1.48 7.78-1.7-5.42 10.63-10.93 7.53-3.65-6-2.35-4.68 3.7-6.63 7.32-2.51 1.41-8.87 2.53-6.56 6.42.28 5.34 10.2 3.35 7.1 8.04-2.22 5.31-7.29-3.76-11.12-1.01-1.61 3.42 4.53 5.49 1.39 8.24-1.26 1.41-1.44 3.31-1.67 5.1-.57-4.1-6.34-2.76-3.87-7.56-2.23 1.04-3.37 3.91-5.89 1.41-.06 4.14 1.41 8.95 6.54 8.33 7.04 3.7 4.01-.12 3.22-2.18 4.67-.37 8.7-3.6 13.18-5.04 2.69.6 2.4 3.72 3.31 5.76 2.67-1.17 2.89-3.56 1.97-6.05 1.36.68 2.69 1.43 4.01 2.18 1.02 4.17-2.04 15.18 3.71 12.56 1.59 2.39.78 5.17.21 7.74-4.01 1.61-1.16 6.25-4.63 7.92-5.71 5.57 1.73 9.3 6.62 8.16 3.21 2.97-6.18 3.28-1.44 4.72 5.74.39-4.33 5.06.63 6.29 3.39.32 1.05 3.5-1.24 3.64-2.09-2.89-7.49-5.19-5.56.39-6.87 3.67 1.6 9.23 4.62 12.56-5.37-.06-7.85-6.28-12.12-5.61-4.89-.57-9.81.42-14.68-.4-1.98 1.41.75 8.61-3.29 7.84-3.43.71-6.21-7.56-1.04-6.08 1.71-4.64-4.69-15.6-11.83-11.3-2.61-2.31-3.03-5.57-1.93-8.77 1.9 1.73 2.89 4.87 5.71 5.26-2.4-10.2 5.66-24.05 17.49-21.68 2.75 3.79 7.04 4.62 11.63 3.55 3.24-5.74-1.49-4.55-4.02-5.32-.82-4.49 8.43-4.05 5.16-8.8-1.77-2.78-3.1 1.46-3.62 3.05-4.97-2.08-7.93-7.53-12.58-9.01-.54 4.67 4.22 6.69 6.32 10.07-4.76-2.05-8.54-5.95-13.39-7.72-6.94 1.77-5.37-6.1-9.8-8.36-4.07-4.6 2.7-9.12 5.2-12.43 3.23 2.32 5.89-.07 6.69-3.47-1.03-3.11-6.94-3.15-6.89-6.81 5.73-2.67 10.05-7.07 14.06-11.76l.73-.03c1.54.14 3-.35 4.4-.95m14.16 72.9c-1.13 2.07-2.77 3.85-5.29 3.95-2.71 5.92 7.67 4.53 7.39-.05-.59-1.36.29-5.3-2.1-3.9z"/><path fill="#6a7541" d="M188.53 150.57c1.95-3.62.63-9.67 6.63-7.32 1.06 5.82-4 10.89-2.07 16.85 2.2-1 4.4-5.08 6.81-1.96-1.16 2.57-2.53 5.08-2.96 7.92 1.53-.65 6.13-4.03 4.88-.31-1.22 1.34-3.23 1.09-4.81 1.63-.18 3.01 2.89 2.2 4.81 1.92 2.6 1.51.45 4.31-1.68 4.91-1.32-.75-2.65-1.5-4.01-2.18.92 2.49.7 4.88-1.97 6.05-.91-2.04-.62-5.16-3.31-5.76-4.48 1.44-8.51 4.67-13.18 5.04.23-1.79.41-3.69 1.67-5.1 3.14-2.75-3-4.82-1.39-8.24 3.83-2.75 8.9 6.32 11.12 1.01 3.1-4.69-6.82-2.7-7.1-8.04-2.31-3.89 4.05-5.01 6.56-6.42z"/><path fill="#293413" opacity=".71" d="M244.69 143.72c3.42-.98 6.96-.93 10.5-.9 5.05.32 10.09.86 15.11 1.6-8.45.43-17.09-.94-25.61-.7z"/><path fill="#818946" d="M228.32 144.82c1.49 1.51 2.54 3.36 3.41 5.28 7.75 7.75 9.05 18.73 10.55 29.03-2.25 1.43-4.24-1.37-6.2-2.22-2.75-3.7 2.12-7.16-1.21-9.81-5.87 1.53-1.91 8.06-2.54 12.08 1.3-.65 2.53-1.46 3.75-2.27 2.87 7.04-7.5 6.48-12.14 6.94-.14-6.3-4.49 5.98-3.93.21 1.1-4.5-6.89-.68-1.91.85 3.66 3.26-4.31 2.02-3.15-.91.37-2.65 3.29-4.16 4.67-6.38-1.86-1.84-2.91-3.83-.66-5.93 4.82 3.56 7.13-3.1 9.9-5.87-.43-5.12-6.13-8.67-4.07-14.04.38-2.62-2.23-4.23-3.78-5.91 2.54.05 5.97 2.18 7.31-1.05z"/><path fill="#6a6234" d="M212.19 152.1c2.6.92 5.11 2.17 7.94 2.27-.79 1.39-1.65 2.75-2.26 4.24-.97 2.39-1.16 5-1.9 7.47-5.23-2.02-6.2-9.9-3.78-13.98z"/><path fill="#8c722c" d="M220.95 153.15l3.84-1.37c-2.06 5.37 3.64 8.92 4.07 14.04-2.77 2.77-5.08 9.43-9.9 5.87l-2-3.48.94-1.96c3.79 1.25 7.34-1.9 3.18-4.71-1.04-1.01-2.13-1.97-3.21-2.93.61-1.49 1.47-2.85 2.26-4.24.2-.31.61-.92.82-1.22z"/><path fill="#b5a181" d="M217.9 166.25c-.28-2.35.94-4.05 3.18-4.71 4.16 2.81.61 5.96-3.18 4.71z"/><path fill="#695e29" d="M232.33 179.18c.63-4.02-3.33-10.55 2.54-12.08 3.33 2.65-1.54 6.11 1.21 9.81-1.22.81-2.45 1.62-3.75 2.27z"/><path fill="#92a05e" d="M209.84 169.19l7.12-.98 2 3.48c-2.25 2.1-1.2 4.09.66 5.93-1.38 2.22-4.3 3.73-4.67 6.38-1.16 2.93 6.81 4.17 3.15.91-4.98-1.53 3.01-5.35 1.91-.85-.56 5.77 3.79-6.51 3.93-.21-1.99 5.87-1.02 11.94-1.74 17.93 2.46 4.27 6.03 7.46 10.98 8.37-.41 3.18-5.01-.52-6.11 2.96-3.22 3.27-1.87-4.93-3.65-4.46-2.54 3.99-8.46-3.68-2.26-.96.81-7.94-6.69-3.8-11.24-5.1-4.27-.09-5.47-4.5-5.86-8.08.57-2.57 1.38-5.35-.21-7.74 4.12-6.07 1.75 5.32 6.15 6.38 3.91-1.22-.1-5.06.38-7.75 2.11-1.82 4.23-3.86 2.85-6.81 2.26.35 2.61-2.25 2.81-3.93-3.31.03-5.73-2.19-6.2-5.47m8.37 19.92c-1.69 1.61-3.25 6.87.77 5.17-1.22 15.69 6.26-7.2-.77-5.17z"/><path fill="#585930" d="M167.91 171.21c2.52 2.5 3.66-.37 5.89-1.41-2.47 4.8 3.3 3.46 3.87 7.56.79 2.06 3.82 5.88-3.22 2.18-5.13.62-6.6-4.19-6.54-8.33z"/><path fill="#95a46a" d="M205 175.95c3.33-.04 7.54 1.37 6.42 5.43-.98 4.03-2.53-2.22-4.49-2.24-2.17.23-2.05-1.59-1.93-3.19z"/><path fill="#5b6830" d="M236.08 176.91c1.96.85 3.95 3.65 6.2 2.22l2.87 1.74c6.06 2.08 12.71.93 19.06.96 6.23 1.58 11.38 5.77 16.53 9.4 2.73 3.85 1.28 9.34-2.64 11.75-1.97.63-3.9 1.4-5.76 2.31l-.41-1.83c1.73-2.89 4.85-5.42 4.17-9.15-1.94-3.17-4.41-6.11-8.67-5-2.93-5.94-13.53-3.09-11.51 4.03-3.6-.73-1.05-5.09-1.41-7.68-1.92 1.3-3.42 3.1-5.21 4.57 2.57-6.67-9.7-3.44-6.77 2.42-2.98 2.65-4.06.37-3.9-2.92-1.65 4.25-7.8 10.38-2.39 14.06 3.22-.12 6.8-.72 5.93-4.82 1.55 3.1 4.08 5.52 6.54 7.89 1.48-1.39 2.8-5.99 5.25-3.62 1.62 1.17.45 3.87.98 5.65l-1.17 1.01c-4.08-.34-8.21.45-11.5 2.91-3.22-.13-6.08-1.67-9.09-2.66-4.95-.91-8.52-4.1-10.98-8.37.72-5.99-.25-12.06 1.74-17.93 4.64-.46 15.01.1 12.14-6.94z"/><path fill="#434b24" d="M140.05 187.17c10.71 2.65 20.3-5.53 30.97-2.05-.33 1.85-1.88 3.1-2.77 4.67 2.95 1.91 10.97 8.5 3.08 6.84-3.62.7-7.45 8.87-11.56 2.54-1.89-3.89-6.24-.36-8.78.9-2.49 3.56-5.93-1.78-9.36.52l.3-.68c6.82-4.43-1.98-7.33-1.88-12.74z"/><path fill="#758543" d="M242.53 192.65c-2.93-5.86 9.34-9.09 6.77-2.42 1.79-1.47 3.29-3.27 5.21-4.57.36 2.59-2.19 6.95 1.41 7.68-.48 4.33-1.47 8.82 1.34 12.64 1.87-2.43 5.26-6.92 7.31-2.19 1.54-4.83 4.5-2.92 7.36-.33l.41 1.83c-2.77 1.84-5.86 3.18-9.04 4.08l-8.36-.48c-.53-1.78.64-4.48-.98-5.65-2.45-2.37-3.77 2.23-5.25 3.62-2.46-2.37-4.99-4.79-6.54-7.89.87 4.1-2.71 4.7-5.93 4.82-5.41-3.68.74-9.81 2.39-14.06-.16 3.29.92 5.57 3.9 2.92z"/><path fill="#829446" d="M255.92 193.34c-2.02-7.12 8.58-9.97 11.51-4.03 4.26-1.11 6.73 1.83 8.67 5-3.86 1.22-6.09-5.62-9.94-2.21-2.49-.05-7.43 3.29-6.29-1.15-.44-2.75-3.3 1.21-3.95 2.39z"/><path fill="#747843" d="M218.21 189.11c7.03-2.03-.45 20.86.77 5.17-4.02 1.7-2.46-3.56-.77-5.17z"/><path fill="#9bad68" d="M255.92 193.34c.65-1.18 3.51-5.14 3.95-2.39-1.14 4.44 3.8 1.1 6.29 1.15 3.85-3.41 6.08 3.43 9.94 2.21.68 3.73-2.44 6.26-4.17 9.15-2.86-2.59-5.82-4.5-7.36.33-2.05-4.73-5.44-.24-7.31 2.19-2.81-3.82-1.82-8.31-1.34-12.64z"/><path fill="#808542" d="M199.43 202.43c3.47-1.67.62-6.31 4.63-7.92.39 3.58 1.59 7.99 5.86 8.08 4.55 1.3 12.05-2.84 11.24 5.1-6.2-2.72-.28 4.95 2.26.96 1.78-.47.43 7.73 3.65 4.46 1.1-3.48 5.7.22 6.11-2.96 3.01.99 5.87 2.53 9.09 2.66-1.85 10.83-4.26 22.85-13.29 30.11-2.8 1.74-1.8 5.33-1.99 8.18 2.77.14 3.53-2.82 4.53-4.79 3.49-.17 6.96.57 10.46.66-.33 1.37.82 4.29-1.56 3.81-1.4-.04-2.81.03-4.21.18-3.05.23-7.83 1.25-6.77 5.26.46 4.03.1 7.65-4.39 7.14-1.48 0-2.71.78-3.83 1.65.06-1.15.16-2.31.03-3.45.76-4.56-8.94.81-4.24-7.46-.01-3.89 5.41-2.8 5.79-6.09 2.39-2.85-1.39-10.66 4.51-8.51 2.54-1.56-4.51-8.34 1.6-7.88.26-2.69-4.1-3.37-5.22-.94-2.77 4.7-5.35 10.09-10.68 12.34-5.21 5.06-2.16 14.14-7.96 19.04-1.82 6.88-8.88-1.17-6.14-4.84-1.4.61-.63 4.68-4.14 3.71-.84-2.03-1.81-4.01-2.7-6.02l-.34-1.78c7.78-1.98 1.42-8.25-.13-12.76-.44-2.23.76-4.6-.31-6.75l-.35-1.04c4.27-.67 6.75 5.55 12.12 5.61-3.02-3.33-11.49-8.89-4.62-12.56-1.93-5.58 3.47-3.28 5.56-.39-2.45 3.11.85 8.91 5.11 4.85 2.2-3.1 8.59 1.08 6.27-4.35 3.26 4.1 8.32-.6 3.01-2.34.73-6.83-.83-5.82-2.92-2.54-3.95-3.18-1.86-9.63-5.73-12.73-2.11-.83-3.26.54-3.69 2.46-4.89 1.14-12.33-2.59-6.62-8.16m-4.38 35.55a44.06 44.06 0 0 0 .01 6.08c4.21.84 3.05-6.59-.01-6.08m26.21 14.36c-4.31 1.2-3.62 9.04.04 4.05 3.11 2.06 1.88-5-.04-4.05m-19.07 1.79c-1.94 2.39-.84 7.04 2.86 5.88-.65-1.9.08-6.54-2.86-5.88z"/><path fill="#98a25c" d="M206.05 210.59c.43-1.92 1.58-3.29 3.69-2.46 3.87 3.1 1.78 9.55 5.73 12.73 2.09-3.28 3.65-4.29 2.92 2.54 5.31 1.74.25 6.44-3.01 2.34 2.32 5.43-4.07 1.25-6.27 4.35-4.26 4.06-7.56-1.74-5.11-4.85 2.29-.14 4.63-3.32 1.24-3.64-4.96-1.23 5.11-5.9-.63-6.29-4.74-1.44 4.65-1.75 1.44-4.72z"/><path fill="#272b14" opacity=".62" d="M253.77 209.9l1.17-1.01 8.36.48c-3.08.98-6.38.46-9.53.53z"/><path fill="#798751" d="M199.42 212.36c2.39-1.4 1.51 2.54 2.1 3.9.28 4.58-10.1 5.97-7.39.05 2.52-.1 4.16-1.88 5.29-3.95z"/><path fill="#899855" d="M223.69 230.68c1.12-2.43 5.48-1.75 5.22.94-6.11-.46.94 6.32-1.6 7.88-5.9-2.15-2.12 5.66-4.51 8.51-12.91-5.86-7.95 11.66-7.68 17.93 2.04-1.46 4.04-2.98 6.13-4.38.13 1.14.03 2.3-.03 3.45-1.33 1.6-6.18 3.61-2.25 5 5.39 2.51-1.54 8.86-5.32 7.45-3.5-1.47-3.8 3.36-4.73 5.65 3.53-1.25 7.1-2.93 10.48-2.31 3.04 2.6-8.07 9.26-4.52 4.04 2.44-5.64-6.55 4.11-7.93-.78-1.39-3.44-8.17-1.2-6.94-5.92 5.73-.86 10.59-3.72 15.91-5.5-1.74-2.59-3.75-4.97-5.49-7.55-1.48 2.34-1.71 6.3-5.25 6.24 5.91-4.71-5.42-6.84-3.64-.98 1.42 2.65-4.05 4.02-3.71 1-.31-3.69-3.36-6.68-3.06-10.42 3.51.97 2.74-3.1 4.14-3.71-2.74 3.67 4.32 11.72 6.14 4.84 5.8-4.9 2.75-13.98 7.96-19.04 5.33-2.25 7.91-7.64 10.68-12.34z"/><path fill="#6d5c34" d="M191.29 233.62c1.07 2.15-.13 4.52.31 6.75 1.55 4.51 7.91 10.78.13 12.76-5.3-3.3-14.2-10.71-7.04-16.43 1.57-2.96 5.67.75 6.6-3.08z"/><path fill="#cdbfa8" d="M195.05 237.98c3.06-.51 4.22 6.92.01 6.08a44.06 44.06 0 0 1-.01-6.08z"/><path fill="#4a5e26" opacity=".97" d="M228.98 242.92l5.8.26c4.77.48 9.85 1.78 14.52.02 2.64-.1 5.25.06 7.89.39-4.96 1.65-10.2 1.96-15.21 3.38-3.5-.09-6.97-.83-10.46-.66-1 1.97-1.76 4.93-4.53 4.79.19-2.85-.81-6.44 1.99-8.18z"/><path fill="#86964f" d="M241.98 246.97c5.01-1.42 10.25-1.73 15.21-3.38 6.79.56 1.25 8.17-3.2 8.27-3.96.59-7.18 3.25-11.03 4.31.44 7.39 12.79-.16 12.52 8.01.03 4.12-5 3.87-7.5 5.97-2.2.16-3.1-1.49-3.84-3.25-4.35-4.23-3.97-10.51-3.72-16.12 2.38.48 1.23-2.44 1.56-3.81z"/><path fill="#6e632d" d="M215.12 265.94c-.27-6.27-5.23-23.79 7.68-17.93-.38 3.29-5.8 2.2-5.79 6.09-4.7 8.27 5 2.9 4.24 7.46-2.09 1.4-4.09 2.92-6.13 4.38z"/><path fill="#6d5c36" d="M162.06 257.86c2.03-10.26 14.46-10.02 21.71-4.77-1.29.25-2.57.55-3.84.86-3.67 1.11-6.64 7.44-3.29 10.46-1.41 4.74 6.74 4.27 3.62 9.74-8.93 1.53-13.46-10.01-18.2-16.29z"/><path fill="#a2b16c" d="M236.21 250.96c1.4-.15 2.81-.22 4.21-.18-.25 5.61-.63 11.89 3.72 16.12-4.23 2.62-5.8-5.38-9.25-7.2.57-2.25-1.92-.81-3.11-.92 1.42-2.68 4.48-4.45 4.43-7.82z"/><path fill="#8c9459" d="M229.44 256.22c-1.06-4.01 3.72-5.03 6.77-5.26.05 3.37-3.01 5.14-4.43 7.82 1.19.11 3.68-1.33 3.11.92-4.77 2.65-2.87 12.04-7.46 13.17.6-5.64-8.64 2.28-4.24-6.36 2.12-.33 3.39-1.12 1.86-3.15 4.49.51 4.85-3.11 4.39-7.14z"/><path fill="#bfae91" d="M221.26 252.34c1.92-.95 3.15 6.11.04 4.05-3.66 4.99-4.35-2.85-.04-4.05z"/><path fill="#506325" opacity=".95" d="M242.96 256.17c3.85-1.06 7.07-3.72 11.03-4.31-5.33 3.46 5.41 7.31 1.49 12.32.27-8.17-12.08-.62-12.52-8.01z"/><path fill="#bbb096" d="M179.93 253.95l3.84-.86 3.79 4.16-5.57 4.79c-.99-2.62-.53-5.59-2.06-8.09z"/><path fill="#917f53" d="M176.64 264.41c-3.35-3.02-.38-9.35 3.29-10.46 1.53 2.5 1.07 5.47 2.06 8.09 1.91-1.52 3.72-3.18 5.57-4.79l.96.28c-2.11 4.37-6.59 9.12-11.88 6.88z"/><path fill="#b0a784" d="M202.19 254.13c2.94-.66 2.21 3.98 2.86 5.88-3.7 1.16-4.8-3.49-2.86-5.88z"/><path fill="#767738" d="M188.52 257.53c1.28-.73 2.47-1.62 3.55-2.62l2.7 6.02c-.3 3.74 2.75 6.73 3.06 10.42-.34 3.02 5.13 1.65 3.71-1-1.78-5.86 9.55-3.73 3.64.98 3.54.06 3.77-3.9 5.25-6.24 1.74 2.58 3.75 4.96 5.49 7.55-5.32 1.78-10.18 4.64-15.91 5.5-1.23 4.72 5.55 2.48 6.94 5.92 1.38 4.89 10.37-4.86 7.93.78-3.55 5.22 7.56-1.44 4.52-4.04-3.38-.62-6.95 1.06-10.48 2.31.93-2.29 1.23-7.12 4.73-5.65 3.78 1.41 10.71-4.94 5.32-7.45-3.93-1.39.92-3.4 2.25-5 1.12-.87 2.35-1.65 3.83-1.65 1.53 2.03.26 2.82-1.86 3.15-4.4 8.64 4.84.72 4.24 6.36 4.59-1.13 2.69-10.52 7.46-13.17 3.45 1.82 5.02 9.82 9.25 7.2.74 1.76 1.64 3.41 3.84 3.25-.98.35-1.98.63-2.99.85-3.76-.21-1.48 4.54-2 7.01l-1.83 1.27c-2.73-.48-7.48-3.01-6 1.91-.66 1.4-1.28 3.05-2.99 3.41-2.39-.86-2.18-3.75-3.35-5.63-4.07-.13-11.96 5.38-3.75 5.63-6.36 2.89-13.68 3.88-18.86 8.86-3.29-1.77-9.88-1.33-7.41-6.53.85-4.4-3.32-.38-3.29 1.92-4.36-.71-8.04-3.69-10.84-6.98 2.47-.74 11.44-3.87 4.49-3.13.1-4.92-4.85-4.45-8.9-4.59 3.12-5.47-5.03-5-3.62-9.74 5.29 2.24 9.77-2.51 11.88-6.88z"/><path fill="#4c5125" opacity=".97" d="M150.67 269.4c4.76-3.27 10.09.17 12.24 4.76 5.08 7.67 15.5 2.82 21.76 7.71 2.8 3.29 6.48 6.27 10.84 6.98-.03-2.3 4.14-6.32 3.29-1.92-2.47 5.2 4.12 4.76 7.41 6.53-5.17.81-12.24-2.75-16.2 1.92-1.51-1.07-3.61-1.1-5.07.06-3.24-5.29-9.32-4.62-14.85-4.45-2.25-1.51-4.03-3.57-5.37-5.9.63-1.71.79-3.68-.33-5.22-1.53-6.59-9.07-6.91-13.72-10.47z"/><path fill="#494c1e" opacity=".72" d="M242.99 278.01c.52-2.47-1.76-7.22 2-7.01l-2 7.01z"/><path fill="#2d2e15" opacity=".69" d="M235.16 281.19c-1.48-4.92 3.27-2.39 6-1.91-1.92 1.41-5.12-1.03-6 1.91z"/><path fill="#424425" opacity=".94" d="M225.07 284.6c-8.21-.25-.32-5.76 3.75-5.63 1.17 1.88.96 4.77 3.35 5.63-2.43 1.52-4.97-2.06-7.1 0z"/></svg>