<?xml version="1.0" encoding="UTF-8" ?>
<!DOCTYPE svg PUBLIC "-//W3C//DTD SVG 1.1//EN" "http://www.w3.org/Graphics/SVG/1.1/DTD/svg11.dtd">
<svg width="384pt" height="384pt" viewBox="0 0 384 384" version="1.1" xmlns="http://www.w3.org/2000/svg">
<g id="#00000011">
</g>
<g id="#0000001a">
</g>
<g id="#00000022">
</g>
<g id="#312714a8">
<path fill="#312714" opacity="0.66" d=" M 216.04 94.12 C 217.33 91.33 220.89 92.04 223.15 93.66 C 221.37 93.77 217.82 94.00 216.04 94.12 Z" />
</g>
<g id="#525a2cf9">
<path fill="#525a2c" opacity="0.98" d=" M 214.08 95.01 C 214.57 94.79 215.55 94.34 216.04 94.12 C 217.82 94.00 221.37 93.77 223.15 93.66 C 223.64 93.94 224.62 94.51 225.11 94.79 C 222.77 93.29 213.38 96.88 217.52 100.32 C 221.01 101.33 219.19 105.35 219.74 108.01 C 216.25 100.02 209.31 107.40 204.30 104.74 C 199.02 97.52 193.31 106.89 190.29 111.22 C 186.32 113.81 185.41 107.44 181.92 107.95 C 181.80 110.54 183.52 112.56 184.67 114.72 C 181.19 115.09 179.21 119.59 184.06 119.36 C 182.60 125.49 174.27 117.41 176.44 122.77 C 175.36 123.74 174.23 124.63 173.03 125.44 C 171.39 122.93 173.69 119.53 171.92 117.05 C 168.72 118.41 165.27 118.69 161.84 118.96 C 163.37 117.06 165.13 115.36 167.10 113.92 C 178.15 113.82 183.83 102.48 193.11 98.19 C 200.16 97.75 207.41 97.70 214.08 95.01 Z" />
</g>
<g id="#6e7637fe">
<path fill="#6e7637" opacity="1.00" d=" M 217.52 100.32 C 213.38 96.88 222.77 93.29 225.11 94.79 C 230.10 98.75 234.80 103.97 241.56 104.57 C 243.08 104.80 244.22 105.82 245.16 106.97 C 245.39 107.23 245.85 107.75 246.08 108.01 C 247.59 109.34 249.07 110.76 249.34 112.87 C 247.71 114.90 242.90 113.99 243.13 116.85 C 245.00 118.52 249.72 124.03 244.25 122.83 C 243.28 120.35 240.82 115.74 238.08 119.22 C 237.81 123.69 240.44 128.23 244.42 123.62 C 245.95 126.73 243.37 129.23 242.10 131.86 C 244.83 133.05 250.36 133.92 248.72 129.13 C 246.70 124.92 251.18 117.51 255.31 122.72 C 260.10 126.18 250.58 123.77 252.00 127.93 C 254.04 132.91 260.90 129.41 264.97 129.67 C 265.34 125.89 262.59 122.37 264.95 118.85 C 262.59 119.35 260.29 120.31 260.75 123.18 C 260.41 118.89 256.57 116.17 255.84 112.12 C 257.52 112.38 259.16 112.79 260.84 113.09 C 259.92 111.29 257.65 108.53 260.28 107.09 C 267.30 103.75 267.02 111.13 269.24 114.81 C 273.17 115.70 278.90 118.96 276.99 112.17 C 277.15 111.82 277.48 111.12 277.64 110.77 C 277.97 111.01 278.63 111.47 278.96 111.70 C 279.24 111.89 279.79 112.26 280.06 112.44 C 277.31 115.95 276.78 122.28 271.16 122.39 C 271.67 125.14 273.45 127.89 272.09 130.69 C 270.19 129.92 266.68 126.28 266.61 130.24 C 266.24 132.85 261.57 132.49 263.02 135.89 C 264.66 140.26 272.12 140.50 271.71 146.19 C 271.90 150.59 276.70 149.91 279.85 149.85 C 280.95 147.49 280.03 145.16 279.10 142.95 C 280.83 142.92 284.29 142.87 286.01 142.85 C 288.10 143.74 290.21 144.63 292.14 145.86 C 289.43 145.57 286.64 145.27 283.95 145.11 C 282.56 152.03 290.61 149.92 294.02 153.34 C 290.06 154.64 285.16 154.41 281.05 153.05 C 276.43 151.60 271.60 152.00 266.86 152.11 C 267.74 150.52 268.67 148.93 269.08 147.14 C 266.38 145.01 261.65 148.96 260.05 145.30 C 261.58 144.28 263.19 143.39 264.80 142.50 C 262.02 139.20 262.07 134.97 261.77 130.86 C 257.98 133.33 256.45 138.97 251.60 139.62 C 246.46 139.67 238.74 139.34 237.14 133.25 C 245.06 130.43 234.33 124.58 233.27 119.73 C 233.38 116.08 235.55 113.68 239.03 112.78 C 236.77 110.09 233.98 107.82 230.98 106.01 C 227.95 108.75 224.68 105.92 221.47 105.17 C 220.22 112.28 213.38 119.65 206.18 114.04 C 202.92 119.65 207.53 121.84 211.90 117.89 C 217.37 116.76 225.80 120.64 228.15 113.12 C 229.04 108.38 233.91 113.54 230.00 115.00 C 226.35 116.89 230.55 120.59 232.21 122.44 C 227.63 128.69 232.57 131.55 235.97 135.91 C 239.17 138.87 234.35 137.79 232.98 138.34 C 232.49 133.41 226.79 132.24 224.87 128.11 C 222.52 123.96 224.77 132.14 225.23 133.86 C 222.20 132.33 217.59 128.81 215.28 133.25 C 215.94 137.57 213.97 144.49 219.76 145.45 C 218.92 147.17 218.00 148.88 217.88 150.83 C 213.36 147.29 213.33 136.94 205.95 139.38 C 202.21 138.78 204.87 147.09 200.64 144.40 C 194.67 142.27 200.02 136.97 203.18 134.95 C 198.24 133.67 193.98 145.42 193.77 133.67 C 190.83 126.11 207.33 136.31 203.23 128.85 C 199.06 124.60 194.46 128.99 190.35 125.72 C 191.65 133.13 187.80 123.71 186.68 121.16 C 182.65 120.95 179.57 130.18 176.44 122.77 C 174.27 117.41 182.60 125.49 184.06 119.36 C 179.21 119.59 181.19 115.09 184.67 114.72 C 183.52 112.56 181.80 110.54 181.92 107.95 C 185.41 107.44 186.32 113.81 190.29 111.22 C 193.31 106.89 199.02 97.52 204.30 104.74 C 209.31 107.40 216.25 100.02 219.74 108.01 C 219.19 105.35 221.01 101.33 217.52 100.32 M 265.21 112.16 C 260.94 115.48 269.00 115.23 265.21 112.16 Z" />
</g>
<g id="#888849f8">
<path fill="#888849" opacity="0.97" d=" M 263.66 101.08 C 270.32 96.58 273.79 104.59 278.28 107.94 C 278.12 108.65 277.80 110.07 277.64 110.77 C 277.48 111.12 277.15 111.82 276.99 112.17 C 268.08 115.92 272.72 105.12 267.13 103.84 C 265.74 103.22 264.17 102.66 263.66 101.08 Z" />
</g>
<g id="#52572efd">
<path fill="#52572e" opacity="1.00" d=" M 257.11 106.45 C 260.28 106.07 261.42 102.86 263.66 101.08 C 264.17 102.66 265.74 103.22 267.13 103.84 C 272.72 105.12 268.08 115.92 276.99 112.17 C 278.90 118.96 273.17 115.70 269.24 114.81 C 267.02 111.13 267.30 103.75 260.28 107.09 C 257.65 108.53 259.92 111.29 260.84 113.09 C 259.16 112.79 257.52 112.38 255.84 112.12 C 256.57 116.17 260.41 118.89 260.75 123.18 C 260.87 125.16 261.38 128.79 259.67 125.30 C 254.95 121.41 257.46 110.92 249.34 112.87 C 249.07 110.76 247.59 109.34 246.08 108.01 C 247.47 108.55 249.01 108.16 250.12 107.20 C 250.59 107.14 251.51 107.01 251.98 106.95 C 253.69 107.43 255.52 107.26 257.11 106.45 Z" />
</g>
<g id="#8b9b55ff">
<path fill="#8b9b55" opacity="1.00" d=" M 221.47 105.17 C 224.68 105.92 227.95 108.75 230.98 106.01 C 233.98 107.82 236.77 110.09 239.03 112.78 C 235.55 113.68 233.38 116.08 233.27 119.73 C 233.00 120.41 232.48 121.77 232.21 122.44 C 230.55 120.59 226.35 116.89 230.00 115.00 C 233.91 113.54 229.04 108.38 228.15 113.12 C 225.80 120.64 217.37 116.76 211.90 117.89 C 207.53 121.84 202.92 119.65 206.18 114.04 C 213.38 119.65 220.22 112.28 221.47 105.17 Z" />
</g>
<g id="#1e231196">
</g>
<g id="#1f1f0f84">
</g>
<g id="#35361a93">
</g>
<g id="#c4bda4ff">
<path fill="#c4bda4" opacity="1.00" d=" M 265.21 112.16 C 269.00 115.23 260.94 115.48 265.21 112.16 Z" />
</g>
<g id="#899252ff">
<path fill="#899252" opacity="1.00" d=" M 243.13 116.85 C 242.90 113.99 247.71 114.90 249.34 112.87 C 257.46 110.92 254.95 121.41 259.67 125.30 C 261.38 128.79 260.87 125.16 260.75 123.18 C 260.29 120.31 262.59 119.35 264.95 118.85 C 262.59 122.37 265.34 125.89 264.97 129.67 C 260.90 129.41 254.04 132.91 252.00 127.93 C 250.58 123.77 260.10 126.18 255.31 122.72 C 251.18 117.51 246.70 124.92 248.72 129.13 C 250.36 133.92 244.83 133.05 242.10 131.86 C 243.37 129.23 245.95 126.73 244.42 123.62 L 244.25 122.83 C 249.72 124.03 245.00 118.52 243.13 116.85 Z" />
</g>
<g id="#8d9856fd">
<path fill="#8d9856" opacity="1.00" d=" M 271.16 122.39 C 276.78 122.28 277.31 115.95 280.06 112.44 C 283.58 114.80 286.18 118.27 290.17 119.98 C 289.85 121.21 289.25 123.47 290.99 123.89 C 296.70 124.21 300.38 131.00 298.13 136.00 L 297.35 135.65 C 289.65 136.44 285.38 128.03 277.99 129.91 C 274.97 124.64 280.01 124.31 282.92 123.63 C 282.36 119.04 274.07 121.27 274.67 125.82 C 272.63 130.23 276.85 134.04 276.17 138.27 L 275.67 138.98 C 273.66 140.70 275.83 142.76 277.92 142.12 L 278.84 142.21 L 279.10 142.95 C 280.03 145.16 280.95 147.49 279.85 149.85 C 276.70 149.91 271.90 150.59 271.71 146.19 C 272.12 140.50 264.66 140.26 263.02 135.89 C 261.57 132.49 266.24 132.85 266.61 130.24 C 266.68 126.28 270.19 129.92 272.09 130.69 C 273.45 127.89 271.67 125.14 271.16 122.39 Z" />
</g>
<g id="#0000002d">
</g>
<g id="#616a3cff">
<path fill="#616a3c" opacity="1.00" d=" M 161.84 118.96 C 165.27 118.69 168.72 118.41 171.92 117.05 C 173.69 119.53 171.39 122.93 173.03 125.44 C 178.24 131.10 180.38 138.49 180.92 146.01 C 181.13 147.69 180.56 150.91 183.02 150.95 C 186.00 151.50 184.74 145.97 187.98 146.97 C 188.44 151.10 185.59 153.44 182.46 155.47 C 182.82 161.35 176.73 165.80 180.11 172.04 C 182.35 170.81 184.09 167.67 186.38 171.05 C 185.58 173.35 183.86 176.16 183.91 179.02 C 185.60 178.24 187.21 177.28 189.03 176.80 C 188.56 179.36 186.53 180.19 184.16 180.38 C 182.69 184.55 187.83 181.74 190.01 183.11 C 188.69 188.75 184.72 197.47 192.03 200.01 C 194.44 204.23 190.98 208.39 190.00 212.54 C 192.24 212.54 194.22 213.53 196.05 214.72 C 195.08 216.60 195.12 218.68 195.36 220.73 C 193.59 222.65 195.74 226.49 192.16 226.38 C 195.00 229.59 191.79 233.99 194.85 237.18 C 192.70 236.87 190.61 236.32 188.47 236.00 C 190.39 240.19 182.72 238.35 186.16 243.73 C 188.59 247.35 194.06 246.12 196.30 249.96 C 191.49 251.35 187.94 247.93 184.00 246.12 C 180.50 250.45 182.95 255.26 186.29 258.72 C 188.63 261.45 185.35 263.36 182.78 263.44 C 181.45 260.76 180.22 258.03 178.87 255.37 C 175.50 258.81 170.71 252.28 174.51 249.59 C 175.59 246.03 182.81 250.23 181.83 246.19 C 177.70 243.25 172.20 244.61 167.41 244.31 C 166.68 246.57 166.46 249.12 164.82 250.96 C 162.52 250.78 159.08 249.31 160.14 246.45 C 167.04 244.45 160.35 232.77 154.02 233.52 C 149.60 234.74 147.45 229.73 149.03 225.83 C 150.65 227.28 151.58 229.77 153.93 230.14 C 151.86 220.54 158.35 208.67 169.64 209.15 C 171.65 212.97 175.42 214.83 179.89 214.43 C 184.69 214.46 181.27 209.54 180.18 207.11 C 181.66 206.27 184.62 204.59 186.11 203.75 C 183.36 199.71 176.89 198.66 176.32 193.33 C 177.64 192.22 182.96 191.19 179.72 189.34 C 175.43 189.97 170.39 188.18 167.09 191.85 C 161.46 188.25 168.01 182.36 163.69 178.21 C 159.99 176.47 158.85 180.02 158.61 183.02 C 154.85 182.72 150.49 174.77 158.38 176.39 C 161.45 169.04 172.53 167.00 171.10 158.09 C 167.95 158.89 164.91 160.00 161.81 160.96 C 161.72 154.59 173.97 157.28 169.06 151.21 C 170.40 151.00 171.77 150.82 173.08 150.41 C 173.80 149.77 174.49 149.11 175.16 148.42 C 178.51 146.26 178.47 142.04 177.15 138.63 C 176.79 137.23 176.04 135.99 175.32 134.77 C 170.61 130.41 160.67 133.47 159.29 140.47 C 156.00 144.24 162.78 149.68 157.25 152.10 C 157.95 146.43 154.48 153.00 151.61 150.45 C 147.20 148.40 153.64 146.98 155.72 146.56 C 156.83 140.59 157.09 133.86 155.30 128.23 C 157.85 124.98 164.32 125.47 160.94 119.99 C 161.16 119.73 161.61 119.22 161.84 118.96 M 187.24 217.08 C 182.76 221.07 189.88 226.37 193.10 222.01 C 195.93 218.88 190.09 215.05 187.24 217.08 Z" />
</g>
<g id="#a48f6bff">
<path fill="#a48f6b" opacity="1.00" d=" M 238.08 119.22 C 240.82 115.74 243.28 120.35 244.25 122.83 L 244.42 123.62 C 240.44 128.23 237.81 123.69 238.08 119.22 Z" />
</g>
<g id="#585c33fe">
<path fill="#585c33" opacity="1.00" d=" M 155.18 123.11 C 157.25 122.37 159.18 121.30 160.94 119.99 C 164.32 125.47 157.85 124.98 155.30 128.23 C 157.09 133.86 156.83 140.59 155.72 146.56 C 153.64 146.98 147.20 148.40 151.61 150.45 C 154.48 153.00 157.95 146.43 157.25 152.10 C 162.78 149.68 156.00 144.24 159.29 140.47 C 160.67 133.47 170.61 130.41 175.32 134.77 C 171.05 135.56 166.55 136.03 163.37 139.29 C 166.03 142.87 167.44 147.11 169.06 151.21 C 173.97 157.28 161.72 154.59 161.81 160.96 C 164.91 160.00 167.95 158.89 171.10 158.09 C 172.53 167.00 161.45 169.04 158.38 176.39 C 150.49 174.77 154.85 182.72 158.61 183.02 C 158.85 180.02 159.99 176.47 163.69 178.21 C 168.01 182.36 161.46 188.25 167.09 191.85 C 170.39 188.18 175.43 189.97 179.72 189.34 C 182.96 191.19 177.64 192.22 176.32 193.33 C 176.89 198.66 183.36 199.71 186.11 203.75 C 184.62 204.59 181.66 206.27 180.18 207.11 C 181.27 209.54 184.69 214.46 179.89 214.43 C 180.76 210.95 177.29 210.26 175.04 208.81 C 176.22 207.04 177.70 205.50 179.03 203.85 C 176.53 201.60 173.55 199.95 170.75 198.13 C 171.39 200.18 172.33 202.11 173.02 204.14 C 166.41 202.95 162.85 195.04 155.48 195.42 C 153.07 192.28 149.66 195.70 146.95 193.09 C 143.43 191.30 145.32 183.79 140.08 184.97 C 139.98 188.98 142.42 193.48 139.92 197.03 C 137.71 195.31 135.62 193.47 133.46 191.70 C 133.04 190.81 132.61 189.92 132.17 189.05 C 130.39 183.86 132.73 179.51 136.19 176.07 C 137.06 172.12 137.05 167.98 138.43 164.15 C 138.61 163.63 138.97 162.59 139.15 162.07 C 141.50 154.64 146.35 148.85 143.27 140.26 C 143.71 138.52 143.91 136.73 144.03 134.94 L 144.12 134.07 C 144.44 133.10 144.76 132.14 145.09 131.18 C 148.23 128.22 151.69 125.63 155.18 123.11 Z" />
</g>
<g id="#464c1ffa">
<path fill="#464c1f" opacity="0.98" d=" M 233.27 119.73 C 234.33 124.58 245.06 130.43 237.14 133.25 C 238.74 139.34 246.46 139.67 251.60 139.62 C 256.45 138.97 257.98 133.33 261.77 130.86 C 262.07 134.97 262.02 139.20 264.80 142.50 C 263.19 143.39 261.58 144.28 260.05 145.30 C 261.65 148.96 266.38 145.01 269.08 147.14 C 268.67 148.93 267.74 150.52 266.86 152.11 L 265.86 152.16 C 265.45 152.10 264.62 151.99 264.21 151.94 C 251.52 151.49 246.03 136.92 232.98 138.34 C 234.35 137.79 239.17 138.87 235.97 135.91 C 232.57 131.55 227.63 128.69 232.21 122.44 C 232.48 121.77 233.00 120.41 233.27 119.73 Z" />
</g>
<g id="#3b441e92">
</g>
<g id="#858f49ff">
<path fill="#858f49" opacity="1.00" d=" M 176.44 122.77 C 179.57 130.18 182.65 120.95 186.68 121.16 C 187.80 123.71 191.65 133.13 190.35 125.72 C 194.46 128.99 199.06 124.60 203.23 128.85 C 207.33 136.31 190.83 126.11 193.77 133.67 C 190.54 134.50 193.91 138.66 191.79 140.73 C 188.47 143.03 184.47 144.10 180.92 146.01 C 180.38 138.49 178.24 131.10 173.03 125.44 C 174.23 124.63 175.36 123.74 176.44 122.77 Z" />
</g>
<g id="#637336fd">
<path fill="#637336" opacity="1.00" d=" M 274.67 125.82 C 274.07 121.27 282.36 119.04 282.92 123.63 C 280.01 124.31 274.97 124.64 277.99 129.91 C 285.38 128.03 289.65 136.44 297.35 135.65 C 294.51 135.55 291.66 135.58 288.83 135.58 C 286.42 133.99 284.44 134.02 282.89 135.65 C 280.66 136.55 278.40 137.38 276.17 138.27 C 276.85 134.04 272.63 130.23 274.67 125.82 Z" />
</g>
<g id="#575420f3">
<path fill="#575420" opacity="0.95" d=" M 225.23 133.86 C 224.77 132.14 222.52 123.96 224.87 128.11 C 226.79 132.24 232.49 133.41 232.98 138.34 C 229.51 137.80 224.77 135.59 226.18 142.17 C 226.04 139.36 226.28 136.50 225.23 133.86 Z" />
</g>
<g id="#0000003f">
</g>
<g id="#808545fe">
<path fill="#808545" opacity="1.00" d=" M 215.28 133.25 C 217.59 128.81 222.20 132.33 225.23 133.86 C 226.28 136.50 226.04 139.36 226.18 142.17 C 225.05 145.22 223.30 148.01 222.11 151.04 C 226.74 158.76 233.48 165.56 235.35 174.71 C 235.18 179.80 235.01 184.91 234.96 190.01 C 232.78 189.88 230.61 189.43 228.42 189.50 C 224.39 193.83 218.13 194.33 213.00 196.20 C 215.81 192.25 210.35 191.77 210.70 195.97 C 206.25 192.96 208.64 188.62 209.04 184.35 C 215.30 184.69 217.61 177.58 217.13 172.46 C 217.30 169.81 216.22 166.42 219.70 165.66 C 217.33 169.24 220.70 174.80 225.08 174.07 C 224.23 170.57 222.95 167.12 223.63 163.46 C 218.83 160.78 213.66 164.79 215.85 170.14 C 213.83 168.01 211.35 166.33 208.45 165.68 C 205.48 164.93 202.03 163.00 199.26 165.30 C 197.45 170.20 199.57 176.38 204.14 179.02 C 202.55 181.31 196.16 181.23 199.23 184.63 C 199.92 187.71 202.96 186.80 205.23 186.39 C 205.62 194.69 192.53 185.04 192.01 191.78 C 195.08 193.12 201.44 197.51 200.19 190.96 C 201.50 192.23 203.99 193.97 201.41 195.37 C 197.64 197.77 200.35 202.50 198.89 206.05 C 192.63 206.37 197.61 197.68 192.04 196.97 C 192.04 197.73 192.03 199.25 192.03 200.01 C 184.72 197.47 188.69 188.75 190.01 183.11 C 187.83 181.74 182.69 184.55 184.16 180.38 C 186.53 180.19 188.56 179.36 189.03 176.80 C 187.21 177.28 185.60 178.24 183.91 179.02 C 183.86 176.16 185.58 173.35 186.38 171.05 C 184.09 167.67 182.35 170.81 180.11 172.04 C 176.73 165.80 182.82 161.35 182.46 155.47 C 185.59 153.44 188.44 151.10 187.98 146.97 C 190.34 148.67 191.13 156.66 194.81 150.52 C 189.30 149.49 192.95 140.50 196.79 145.28 C 197.73 148.24 197.55 160.95 200.64 154.80 C 202.49 149.29 201.47 160.92 204.40 158.30 C 207.71 155.16 209.72 158.56 210.26 161.83 C 212.92 158.98 218.49 164.73 216.69 159.13 C 215.09 155.70 221.20 157.79 221.01 154.96 C 221.34 152.86 219.07 152.09 217.88 150.83 C 218.00 148.88 218.92 147.17 219.76 145.45 C 213.97 144.49 215.94 137.57 215.28 133.25 M 221.17 138.12 C 220.32 140.38 220.44 142.76 221.13 145.05 C 223.07 143.89 225.24 136.46 221.17 138.12 M 226.22 176.14 C 225.05 176.75 225.44 177.85 225.66 178.88 C 220.74 178.77 226.79 186.02 222.92 189.08 C 225.11 187.28 232.01 185.78 228.54 182.41 C 224.98 179.65 233.48 175.42 226.22 176.14 Z" />
</g>
<g id="#00000052">
</g>
<g id="#8f9d64ff">
<path fill="#8f9d64" opacity="1.00" d=" M 191.79 140.73 C 193.91 138.66 190.54 134.50 193.77 133.67 C 193.98 145.42 198.24 133.67 203.18 134.95 C 200.02 136.97 194.67 142.27 200.64 144.40 C 204.87 147.09 202.21 138.78 205.95 139.38 C 213.33 136.94 213.36 147.29 217.88 150.83 C 219.07 152.09 221.34 152.86 221.01 154.96 C 221.20 157.79 215.09 155.70 216.69 159.13 C 218.49 164.73 212.92 158.98 210.26 161.83 C 209.72 158.56 207.71 155.16 204.40 158.30 C 201.47 160.92 202.49 149.29 200.64 154.80 C 197.55 160.95 197.73 148.24 196.79 145.28 C 192.95 140.50 189.30 149.49 194.81 150.52 C 191.13 156.66 190.34 148.67 187.98 146.97 C 184.74 145.97 186.00 151.50 183.02 150.95 C 180.56 150.91 181.13 147.69 180.92 146.01 C 184.47 144.10 188.47 143.03 191.79 140.73 M 211.14 150.96 C 211.47 152.27 211.84 153.57 212.25 154.87 C 216.95 156.56 215.57 148.58 211.14 150.96 Z" />
</g>
<g id="#00000061">
</g>
<g id="#00000071">
</g>
<g id="#806d46ff">
<path fill="#806d46" opacity="1.00" d=" M 163.37 139.29 C 166.55 136.03 171.05 135.56 175.32 134.77 C 176.04 135.99 176.79 137.23 177.15 138.63 C 172.06 139.07 167.66 148.44 173.08 150.41 C 171.77 150.82 170.40 151.00 169.06 151.21 C 167.44 147.11 166.03 142.87 163.37 139.29 Z" />
</g>
<g id="#2834129f">
<path fill="#283412" opacity="0.62" d=" M 282.89 135.65 C 284.44 134.02 286.42 133.99 288.83 135.58 C 287.00 136.63 284.74 136.72 282.89 135.65 Z" />
</g>
<g id="#3a481de5">
<path fill="#3a481d" opacity="0.90" d=" M 288.83 135.58 C 291.66 135.58 294.51 135.55 297.35 135.65 L 298.13 136.00 C 296.65 139.43 290.06 139.40 288.83 135.58 Z" />
</g>
<g id="#0101001a">
</g>
<g id="#cbbca3ff">
<path fill="#cbbca3" opacity="1.00" d=" M 221.17 138.12 C 225.24 136.46 223.07 143.89 221.13 145.05 C 220.44 142.76 220.32 140.38 221.17 138.12 Z" />
</g>
<g id="#a49a77ff">
<path fill="#a49a77" opacity="1.00" d=" M 173.08 150.41 C 167.66 148.44 172.06 139.07 177.15 138.63 C 178.47 142.04 178.51 146.26 175.16 148.42 C 171.58 144.30 179.25 145.76 175.96 141.98 C 172.56 142.42 170.02 149.27 175.16 148.42 C 174.49 149.11 173.80 149.77 173.08 150.41 Z" />
</g>
<g id="#252f1183">
</g>
<g id="#01010183">
</g>
<g id="#d9cfbcff">
<path fill="#d9cfbc" opacity="1.00" d=" M 175.16 148.42 C 170.02 149.27 172.56 142.42 175.96 141.98 C 179.25 145.76 171.58 144.30 175.16 148.42 Z" />
</g>
<g id="#151c0873">
</g>
<g id="#8e9954fb">
<path fill="#8e9954" opacity="1.00" d=" M 283.95 145.11 C 286.64 145.27 289.43 145.57 292.14 145.86 C 293.19 146.50 294.20 147.22 295.18 147.99 C 294.92 149.34 295.00 150.67 295.42 151.99 C 295.07 152.32 294.37 153.00 294.02 153.34 C 290.61 149.92 282.56 152.03 283.95 145.11 Z" />
</g>
<g id="#403d227c">
</g>
<g id="#676e3aff">
<path fill="#676e3a" opacity="1.00" d=" M 211.14 150.96 C 215.57 148.58 216.95 156.56 212.25 154.87 C 211.84 153.57 211.47 152.27 211.14 150.96 Z" />
</g>
<g id="#00000010">
</g>
<g id="#252d11a2">
<path fill="#252d11" opacity="0.64" d=" M 265.86 152.16 L 266.86 152.11 C 271.60 152.00 276.43 151.60 281.05 153.05 C 275.98 152.89 270.86 153.13 265.86 152.16 Z" />
</g>
<g id="#00000043">
</g>
<g id="#00000036">
</g>
<g id="#939a63ff">
<path fill="#939a63" opacity="1.00" d=" M 215.85 170.14 C 213.66 164.79 218.83 160.78 223.63 163.46 C 222.95 167.12 224.23 170.57 225.08 174.07 C 220.70 174.80 217.33 169.24 219.70 165.66 C 216.22 166.42 217.30 169.81 217.13 172.46 C 216.81 171.88 216.17 170.72 215.85 170.14 Z" />
</g>
<g id="#696135ff">
<path fill="#696135" opacity="1.00" d=" M 199.26 165.30 C 202.03 163.00 205.48 164.93 208.45 165.68 C 207.68 167.11 206.84 168.50 206.12 169.96 C 205.68 173.08 205.68 176.32 207.01 179.22 C 206.70 179.49 206.08 180.03 205.77 180.30 C 205.36 179.98 204.55 179.34 204.14 179.02 C 199.57 176.38 197.45 170.20 199.26 165.30 Z" />
</g>
<g id="#8b7127ff">
<path fill="#8b7127" opacity="1.00" d=" M 208.45 165.68 C 211.35 166.33 213.83 168.01 215.85 170.14 C 216.17 170.72 216.81 171.88 217.13 172.46 C 217.61 177.58 215.30 184.69 209.04 184.35 C 207.94 183.01 206.83 181.67 205.77 180.30 C 206.08 180.03 206.70 179.49 207.01 179.22 C 209.28 178.09 214.06 178.89 212.99 175.11 C 211.53 172.51 209.61 169.32 206.12 169.96 C 206.84 168.50 207.68 167.11 208.45 165.68 Z" />
</g>
<g id="#998055ff">
<path fill="#998055" opacity="1.00" d=" M 206.12 169.96 C 209.61 169.32 211.53 172.51 212.99 175.11 C 214.06 178.89 209.28 178.09 207.01 179.22 C 205.68 176.32 205.68 173.08 206.12 169.96 M 208.34 175.21 C 209.86 180.46 214.65 172.89 208.34 175.21 Z" />
</g>
<g id="#d5c7b2ff">
<path fill="#d5c7b2" opacity="1.00" d=" M 208.34 175.21 C 214.65 172.89 209.86 180.46 208.34 175.21 Z" />
</g>
<g id="#333a188d">
</g>
<g id="#615922ff">
<path fill="#615922" opacity="1.00" d=" M 226.22 176.14 C 233.48 175.42 224.98 179.65 228.54 182.41 C 232.01 185.78 225.11 187.28 222.92 189.08 C 226.79 186.02 220.74 178.77 225.66 178.88 C 225.44 177.85 225.05 176.75 226.22 176.14 Z" />
</g>
<g id="#919e5cff">
<path fill="#919e5c" opacity="1.00" d=" M 199.23 184.63 C 196.16 181.23 202.55 181.31 204.14 179.02 C 204.55 179.34 205.36 179.98 205.77 180.30 C 206.83 181.67 207.94 183.01 209.04 184.35 C 208.64 188.62 206.25 192.96 210.70 195.97 C 210.35 191.77 215.81 192.25 213.00 196.20 C 213.02 197.42 211.45 208.98 209.33 202.66 C 207.88 197.42 204.09 207.14 207.58 205.60 C 211.13 204.22 208.43 209.96 209.02 212.06 C 211.41 211.11 209.85 207.35 211.55 205.57 C 210.01 213.51 216.62 220.99 224.53 220.95 C 222.13 222.28 218.75 220.52 217.46 223.69 C 213.41 221.15 210.26 217.87 208.81 213.24 C 205.11 213.61 200.90 216.66 205.55 219.41 C 210.14 221.89 200.77 222.96 202.61 219.12 C 201.08 217.35 198.09 216.27 196.05 214.72 C 194.22 213.53 192.24 212.54 190.00 212.54 C 190.98 208.39 194.44 204.23 192.03 200.01 C 192.03 199.25 192.04 197.73 192.04 196.97 C 197.61 197.68 192.63 206.37 198.89 206.05 C 200.35 202.50 197.64 197.77 201.41 195.37 C 203.99 193.97 201.50 192.23 200.19 190.96 C 201.44 197.51 195.08 193.12 192.01 191.78 C 192.53 185.04 205.62 194.69 205.23 186.39 C 202.96 186.80 199.92 187.71 199.23 184.63 Z" />
</g>
<g id="#50552bfe">
<path fill="#50552b" opacity="1.00" d=" M 140.08 184.97 C 145.32 183.79 143.43 191.30 146.95 193.09 C 149.66 195.70 153.07 192.28 155.48 195.42 C 162.85 195.04 166.41 202.95 173.02 204.14 C 172.33 202.11 171.39 200.18 170.75 198.13 C 173.55 199.95 176.53 201.60 179.03 203.85 C 177.70 205.50 176.22 207.04 175.04 208.81 C 177.29 210.26 180.76 210.95 179.89 214.43 C 175.42 214.83 171.65 212.97 169.64 209.15 C 158.35 208.67 151.86 220.54 153.93 230.14 C 151.58 229.77 150.65 227.28 149.03 225.83 C 147.45 229.73 149.60 234.74 154.02 233.52 C 160.35 232.77 167.04 244.45 160.14 246.45 C 159.08 249.31 162.52 250.78 164.82 250.96 C 166.46 249.12 166.68 246.57 167.41 244.31 C 172.20 244.61 177.70 243.25 181.83 246.19 C 182.81 250.23 175.59 246.03 174.51 249.59 C 170.71 252.28 175.50 258.81 178.87 255.37 C 180.22 258.03 181.45 260.76 182.78 263.44 C 182.83 263.81 182.95 264.56 183.00 264.93 C 180.33 264.53 177.60 264.55 174.97 263.91 C 168.01 258.82 155.54 257.42 153.21 267.83 C 156.92 273.02 161.94 277.12 165.81 282.22 C 169.20 285.94 179.23 281.86 178.05 288.97 C 171.41 287.16 175.53 293.58 179.20 294.46 C 177.76 294.58 176.34 294.84 174.95 295.25 C 170.43 295.63 165.15 298.79 161.65 294.40 C 157.59 290.10 149.57 294.50 146.90 288.13 C 146.30 285.34 148.19 281.15 146.07 279.05 C 144.33 278.07 142.48 277.29 140.87 276.11 C 145.15 273.46 153.28 279.51 151.14 269.99 C 151.43 267.12 153.21 263.26 148.97 262.87 C 146.04 260.84 152.62 260.81 151.56 258.49 C 153.96 249.97 144.24 247.72 139.02 252.04 C 136.33 248.12 136.42 243.27 134.90 238.94 C 135.15 236.99 135.29 235.03 135.01 233.09 C 135.22 229.45 132.63 226.64 131.61 223.33 C 131.05 217.67 132.64 212.19 135.96 207.64 C 138.69 207.81 139.39 210.51 140.95 212.26 C 140.87 209.82 140.35 207.43 140.05 205.02 C 145.48 206.70 151.63 207.15 156.15 210.86 C 158.30 207.47 161.76 208.09 165.17 208.95 C 161.30 205.64 156.58 202.76 158.98 197.07 C 152.26 195.50 145.40 196.98 139.18 199.59 C 137.01 198.45 135.07 196.91 132.95 195.68 C 133.15 194.36 133.32 193.03 133.46 191.70 C 135.62 193.47 137.71 195.31 139.92 197.03 C 142.42 193.48 139.98 188.98 140.08 184.97 Z" />
</g>
<g id="#2c291aa6">
<path fill="#2c291a" opacity="0.65" d=" M 132.17 189.05 C 132.61 189.92 133.04 190.81 133.46 191.70 C 133.32 193.03 133.15 194.36 132.95 195.68 C 132.69 195.53 132.19 195.22 131.94 195.07 C 131.79 193.06 131.94 191.04 132.17 189.05 Z" />
</g>
<g id="#5a672ffc">
<path fill="#5a672f" opacity="1.00" d=" M 228.42 189.50 C 230.61 189.43 232.78 189.88 234.96 190.01 L 235.89 190.18 C 236.40 190.40 237.41 190.85 237.91 191.08 C 241.89 192.34 246.30 192.44 250.32 191.28 C 255.44 189.94 259.79 192.88 264.14 194.99 C 266.46 196.79 269.19 198.19 271.00 200.59 C 268.82 203.74 271.11 207.13 269.04 210.75 C 269.51 210.85 270.44 211.07 270.91 211.18 C 269.05 212.57 266.96 213.58 265.00 214.81 C 262.32 215.84 259.65 216.92 257.04 218.13 C 255.50 218.31 252.42 218.68 250.88 218.86 C 245.67 221.49 235.41 216.70 235.31 225.24 C 237.08 219.87 230.28 219.89 230.41 224.66 C 230.92 229.58 219.55 228.05 224.11 223.60 C 228.18 224.82 229.38 219.69 224.53 220.95 C 216.62 220.99 210.01 213.51 211.55 205.57 C 209.85 207.35 211.41 211.11 209.02 212.06 C 208.43 209.96 211.13 204.22 207.58 205.60 C 204.09 207.14 207.88 197.42 209.33 202.66 C 211.45 208.98 213.02 197.42 213.00 196.20 C 218.13 194.33 224.39 193.83 228.42 189.50 M 239.01 201.09 C 242.51 196.17 232.56 196.24 232.96 200.99 C 233.53 204.86 228.25 207.05 228.77 202.02 C 225.29 202.33 226.23 207.86 224.11 210.19 C 222.04 212.02 225.28 216.02 226.30 212.44 C 231.53 215.13 231.13 209.43 233.85 206.81 C 231.85 212.31 234.47 214.51 238.94 216.99 C 240.57 215.03 242.20 213.39 245.11 213.62 C 246.14 220.30 250.42 214.88 252.59 212.07 C 254.02 216.48 256.06 214.42 257.00 212.05 C 258.86 219.63 269.60 209.00 266.69 203.54 C 263.56 202.08 264.42 197.39 260.24 200.23 C 259.18 200.39 258.13 200.55 257.08 200.73 C 258.74 194.12 244.46 196.36 245.93 202.80 C 242.81 208.07 243.69 199.10 243.98 196.84 C 241.82 197.76 241.50 200.89 239.01 201.09 Z" />
</g>
<g id="#21270f98">
<path fill="#21270f" opacity="0.60" d=" M 237.91 191.08 C 242.04 191.14 246.18 191.21 250.32 191.28 C 246.30 192.44 241.89 192.34 237.91 191.08 Z" />
</g>
<g id="#00000060">
</g>
<g id="#424922fd">
<path fill="#424922" opacity="1.00" d=" M 132.95 195.68 C 135.07 196.91 137.01 198.45 139.18 199.59 C 145.40 196.98 152.26 195.50 158.98 197.07 C 156.58 202.76 161.30 205.64 165.17 208.95 C 161.76 208.09 158.30 207.47 156.15 210.86 C 151.63 207.15 145.48 206.70 140.05 205.02 C 140.35 207.43 140.87 209.82 140.95 212.26 C 139.39 210.51 138.69 207.81 135.96 207.64 C 137.85 205.41 138.97 202.13 135.46 200.86 C 135.18 200.38 134.62 199.42 134.34 198.94 C 133.88 197.85 133.42 196.76 132.95 195.68 Z" />
</g>
<g id="#758748ff">
<path fill="#758748" opacity="1.00" d=" M 239.01 201.09 C 241.50 200.89 241.82 197.76 243.98 196.84 C 243.69 199.10 242.81 208.07 245.93 202.80 C 245.57 206.39 245.12 210.00 245.11 213.62 C 242.20 213.39 240.57 215.03 238.94 216.99 C 234.47 214.51 231.85 212.31 233.85 206.81 C 231.13 209.43 231.53 215.13 226.30 212.44 C 225.28 216.02 222.04 212.02 224.11 210.19 C 226.23 207.86 225.29 202.33 228.77 202.02 C 228.25 207.05 233.53 204.86 232.96 200.99 C 232.56 196.24 242.51 196.17 239.01 201.09 Z" />
</g>
<g id="#819348ff">
<path fill="#819348" opacity="1.00" d=" M 245.93 202.80 C 244.46 196.36 258.74 194.12 257.08 200.73 C 258.13 200.55 259.18 200.39 260.24 200.23 C 258.58 201.52 257.12 203.06 255.39 204.24 C 252.32 203.40 249.14 201.45 245.93 202.80 Z" />
</g>
<g id="#96a861ff">
<path fill="#96a861" opacity="1.00" d=" M 260.24 200.23 C 264.42 197.39 263.56 202.08 266.69 203.54 C 269.60 209.00 258.86 219.63 257.00 212.05 C 256.06 214.42 254.02 216.48 252.59 212.07 C 250.42 214.88 246.14 220.30 245.11 213.62 C 245.12 210.00 245.57 206.39 245.93 202.80 C 249.14 201.45 252.32 203.40 255.39 204.24 C 257.12 203.06 258.58 201.52 260.24 200.23 Z" />
</g>
<g id="#01010075">
</g>
<g id="#818b47f2">
<path fill="#818b47" opacity="0.95" d=" M 269.04 210.75 C 271.11 207.13 268.82 203.74 271.00 200.59 C 273.83 203.43 273.87 208.41 270.91 211.18 C 270.44 211.07 269.51 210.85 269.04 210.75 Z" />
</g>
<g id="#00000035">
</g>
<g id="#838944fe">
<path fill="#838944" opacity="1.00" d=" M 205.55 219.41 C 200.90 216.66 205.11 213.61 208.81 213.24 C 210.26 217.87 213.41 221.15 217.46 223.69 C 218.75 220.52 222.13 222.28 224.53 220.95 C 229.38 219.69 228.18 224.82 224.11 223.60 C 219.55 228.05 230.92 229.58 230.41 224.66 C 230.28 219.89 237.08 219.87 235.31 225.24 C 233.98 231.59 232.11 237.99 228.04 243.16 C 226.97 238.53 216.32 239.02 218.01 242.94 C 216.92 244.56 215.50 245.83 213.43 245.53 C 213.01 251.96 203.78 250.29 202.18 256.09 C 200.89 260.63 199.22 265.55 200.70 270.24 C 200.82 273.80 203.29 269.57 204.64 268.77 C 200.90 280.11 212.19 272.19 212.20 267.18 C 207.87 269.93 204.71 268.64 207.65 262.76 C 208.20 263.81 207.07 267.63 208.82 266.85 C 210.29 266.37 211.50 265.32 212.46 264.12 C 213.06 262.77 212.62 261.32 212.48 259.93 C 212.45 258.95 212.39 257.98 212.33 257.01 C 216.71 255.81 213.90 251.27 214.01 248.17 C 215.59 247.49 217.28 247.13 218.92 246.65 C 219.39 255.13 228.33 250.03 233.19 248.56 C 236.19 252.10 230.60 255.17 228.88 258.06 C 227.27 257.44 223.91 257.80 225.67 260.16 C 226.82 266.52 221.58 274.04 214.94 274.00 C 217.20 267.24 209.44 272.67 214.94 274.00 C 214.80 274.35 214.51 275.05 214.37 275.41 C 206.52 274.06 198.73 284.82 191.83 278.01 C 190.92 282.43 197.56 281.80 197.26 286.02 C 194.79 288.70 192.58 291.62 190.12 294.31 C 185.89 292.70 180.13 293.68 178.05 288.97 C 182.47 289.31 189.02 288.92 190.88 283.98 C 189.73 280.16 178.45 288.34 180.82 281.84 C 184.24 277.79 176.25 280.57 173.85 279.92 C 176.59 278.18 178.58 275.93 175.82 273.16 C 173.50 276.25 170.05 275.54 167.11 273.71 C 166.41 270.47 167.73 266.38 170.98 265.11 C 171.57 267.49 172.02 269.94 173.13 272.15 C 175.23 271.42 176.57 269.44 178.68 268.71 C 178.66 273.11 184.03 283.42 188.97 278.51 C 182.27 276.54 186.94 269.28 183.00 264.93 C 182.95 264.56 182.83 263.81 182.78 263.44 C 185.35 263.36 188.63 261.45 186.29 258.72 C 182.95 255.26 180.50 250.45 184.00 246.12 C 187.94 247.93 191.49 251.35 196.30 249.96 C 194.06 246.12 188.59 247.35 186.16 243.73 C 182.72 238.35 190.39 240.19 188.47 236.00 C 190.61 236.32 192.70 236.87 194.85 237.18 C 191.79 233.99 195.00 229.59 192.16 226.38 C 195.74 226.49 193.59 222.65 195.36 220.73 C 196.99 224.56 202.35 227.86 198.16 232.09 C 205.88 238.15 189.54 235.09 193.98 242.02 C 199.51 247.06 203.21 234.44 209.11 238.72 C 211.92 238.90 211.45 233.75 208.15 234.71 C 199.81 234.31 203.69 219.76 195.36 220.73 C 195.12 218.68 195.08 216.60 196.05 214.72 C 198.09 216.27 201.08 217.35 202.61 219.12 C 200.77 222.96 210.14 221.89 205.55 219.41 M 186.05 249.97 C 186.45 251.82 184.51 257.01 187.79 255.82 C 190.15 254.56 188.76 249.47 186.05 249.97 M 193.21 265.19 C 190.71 266.36 192.60 269.63 194.96 269.07 C 194.78 267.50 196.03 263.82 193.21 265.19 Z" />
</g>
<g id="#00000019">
</g>
<g id="#0000002a">
</g>
<g id="#828d56ff">
<path fill="#828d56" opacity="1.00" d=" M 187.24 217.08 C 190.09 215.05 195.93 218.88 193.10 222.01 C 189.88 226.37 182.76 221.07 187.24 217.08 Z" />
</g>
<g id="#2b3013a5">
<path fill="#2b3013" opacity="0.65" d=" M 250.88 218.86 C 252.42 218.68 255.50 218.31 257.04 218.13 C 255.50 218.31 252.42 218.68 250.88 218.86 Z" />
</g>
<g id="#9fac63ff">
<path fill="#9fac63" opacity="1.00" d=" M 195.36 220.73 C 203.69 219.76 199.81 234.31 208.15 234.71 C 211.45 233.75 211.92 238.90 209.11 238.72 C 203.21 234.44 199.51 247.06 193.98 242.02 C 189.54 235.09 205.88 238.15 198.16 232.09 C 202.35 227.86 196.99 224.56 195.36 220.73 Z" />
</g>
<g id="#2a2c189d">
<path fill="#2a2c18" opacity="0.62" d=" M 133.79 233.99 C 134.09 233.76 134.71 233.31 135.01 233.09 C 135.29 235.03 135.15 236.99 134.90 238.94 C 133.80 237.53 133.56 235.71 133.79 233.99 Z" />
</g>
<g id="#00000021">
</g>
<g id="#6d6e2ffb">
<path fill="#6d6e2f" opacity="1.00" d=" M 218.01 242.94 C 216.32 239.02 226.97 238.53 228.04 243.16 C 223.33 247.60 229.69 246.86 233.19 248.56 C 228.33 250.03 219.39 255.13 218.92 246.65 C 220.20 244.55 221.95 242.05 218.01 242.94 Z" />
</g>
<g id="#899d5dff">
<path fill="#899d5d" opacity="1.00" d=" M 213.43 245.53 C 215.50 245.83 216.92 244.56 218.01 242.94 C 221.95 242.05 220.20 244.55 218.92 246.65 C 217.28 247.13 215.59 247.49 214.01 248.17 C 213.90 251.27 216.71 255.81 212.33 257.01 C 204.76 252.66 203.03 263.57 204.64 268.77 C 203.29 269.57 200.82 273.80 200.70 270.24 C 199.22 265.55 200.89 260.63 202.18 256.09 C 203.78 250.29 213.01 251.96 213.43 245.53 Z" />
</g>
<g id="#586532fc">
<path fill="#586532" opacity="1.00" d=" M 139.02 252.04 C 144.24 247.72 153.96 249.97 151.56 258.49 C 152.62 260.81 146.04 260.84 148.97 262.87 C 153.21 263.26 151.43 267.12 151.14 269.99 C 153.28 279.51 145.15 273.46 140.87 276.11 C 139.61 274.64 138.79 272.87 137.91 271.17 C 138.18 265.65 134.16 260.60 137.24 255.11 C 137.82 254.08 138.43 253.06 139.02 252.04 Z" />
</g>
<g id="#cfc2aaff">
<path fill="#cfc2aa" opacity="1.00" d=" M 186.05 249.97 C 188.76 249.47 190.15 254.56 187.79 255.82 C 184.51 257.01 186.45 251.82 186.05 249.97 Z" />
</g>
<g id="#736831ff">
<path fill="#736831" opacity="1.00" d=" M 204.64 268.77 C 203.03 263.57 204.76 252.66 212.33 257.01 C 212.39 257.98 212.45 258.95 212.48 259.93 C 210.62 260.35 208.74 261.11 207.65 262.76 C 204.71 268.64 207.87 269.93 212.20 267.18 C 212.19 272.19 200.90 280.11 204.64 268.77 Z" />
</g>
<g id="#262e0f90">
</g>
<g id="#6f6333ff">
<path fill="#6f6333" opacity="1.00" d=" M 153.21 267.83 C 155.54 257.42 168.01 258.82 174.97 263.91 C 173.62 264.25 172.29 264.64 170.98 265.11 C 167.73 266.38 166.41 270.47 167.11 273.71 C 170.05 275.54 173.50 276.25 175.82 273.16 C 178.58 275.93 176.59 278.18 173.85 279.92 C 176.25 280.57 184.24 277.79 180.82 281.84 C 178.45 288.34 189.73 280.16 190.88 283.98 C 189.02 288.92 182.47 289.31 178.05 288.97 C 179.23 281.86 169.20 285.94 165.81 282.22 C 161.94 277.12 156.92 273.02 153.21 267.83 Z" />
</g>
<g id="#aa967aff">
<path fill="#aa967a" opacity="1.00" d=" M 207.65 262.76 C 208.74 261.11 210.62 260.35 212.48 259.93 C 212.62 261.32 213.06 262.77 212.46 264.12 C 212.29 259.64 208.48 264.70 208.82 266.85 C 207.07 267.63 208.20 263.81 207.65 262.76 Z" />
</g>
<g id="#e8ddcdff">
<path fill="#e8ddcd" opacity="1.00" d=" M 208.82 266.85 C 208.48 264.70 212.29 259.64 212.46 264.12 C 211.50 265.32 210.29 266.37 208.82 266.85 Z" />
</g>
<g id="#b8ad93ff">
<path fill="#b8ad93" opacity="1.00" d=" M 170.98 265.11 C 172.29 264.64 173.62 264.25 174.97 263.91 C 176.17 265.50 178.97 266.40 178.68 268.71 C 176.57 269.44 175.23 271.42 173.13 272.15 C 172.02 269.94 171.57 267.49 170.98 265.11 Z" />
</g>
<g id="#636e34ff">
<path fill="#636e34" opacity="1.00" d=" M 174.97 263.91 C 177.60 264.55 180.33 264.53 183.00 264.93 C 186.94 269.28 182.27 276.54 188.97 278.51 C 184.03 283.42 178.66 273.11 178.68 268.71 C 178.97 266.40 176.17 265.50 174.97 263.91 Z" />
</g>
<g id="#b3ae8bff">
<path fill="#b3ae8b" opacity="1.00" d=" M 193.21 265.19 C 196.03 263.82 194.78 267.50 194.96 269.07 C 192.60 269.63 190.71 266.36 193.21 265.19 Z" />
</g>
<g id="#baaa90fc">
<path fill="#baaa90" opacity="1.00" d=" M 214.94 274.00 C 217.20 267.24 209.44 272.67 214.94 274.00 Z" />
</g>
<g id="#6a682bf4">
<path fill="#6a682b" opacity="0.96" d=" M 191.83 278.01 C 198.73 284.82 206.52 274.06 214.37 275.41 C 213.64 277.32 212.73 280.60 210.03 279.78 C 204.98 278.76 201.03 283.26 197.26 286.02 C 197.56 281.80 190.92 282.43 191.83 278.01 Z" />
</g>
<g id="#2929139e">
<path fill="#292913" opacity="0.62" d=" M 146.07 279.05 C 148.19 281.15 146.30 285.34 146.90 288.13 C 146.43 287.24 145.99 286.34 145.59 285.42 C 145.80 283.30 145.98 281.17 146.07 279.05 Z" />
</g>
<g id="#756230f7">
<path fill="#756230" opacity="0.97" d=" M 179.20 294.46 C 175.53 293.58 171.41 287.16 178.05 288.97 C 180.13 293.68 185.89 292.70 190.12 294.31 C 188.14 296.96 184.84 297.39 181.99 295.93 C 181.11 295.33 180.19 294.84 179.20 294.46 Z" />
</g>
<g id="#2b2313a6">
<path fill="#2b2313" opacity="0.65" d=" M 174.95 295.25 C 176.34 294.84 177.76 294.58 179.20 294.46 C 180.19 294.84 181.11 295.33 181.99 295.93 C 179.66 296.72 177.31 296.49 174.95 295.25 Z" />
</g>
</svg>






