<?xml version="1.0" encoding="UTF-8" ?>
<!DOCTYPE svg PUBLIC "-//W3C//DTD SVG 1.1//EN" "http://www.w3.org/Graphics/SVG/1.1/DTD/svg11.dtd">
<svg width="384pt" height="384pt" viewBox="0 0 384 384" version="1.1" xmlns="http://www.w3.org/2000/svg">
<g id="#00000011">
</g>
<g id="#00000019">
</g>
<g id="#00000021">
</g>
<g id="#575c31fd">
<path fill="#575c31" opacity="1.00" d=" M 171.19 91.22 C 176.64 89.84 180.48 84.32 186.92 87.00 C 189.99 90.11 194.27 90.93 198.13 92.61 C 195.13 92.45 196.78 95.32 196.87 97.07 C 195.12 96.00 191.82 90.82 190.70 94.64 C 189.23 100.41 180.87 97.59 177.48 101.25 C 175.61 95.08 163.18 95.41 165.66 102.73 C 163.65 104.13 156.24 104.85 158.99 107.85 C 164.71 108.77 160.56 115.40 161.61 119.35 C 163.55 123.13 152.77 125.50 159.27 127.65 C 162.19 126.06 165.73 129.08 165.84 124.02 C 163.91 118.41 167.34 112.50 169.02 108.30 C 173.43 108.62 178.55 106.86 182.37 109.53 C 179.09 110.88 171.58 109.67 173.13 114.88 C 174.47 118.18 175.05 126.50 180.21 124.26 L 181.04 123.87 C 183.86 126.53 183.49 134.00 179.86 135.91 C 174.17 137.82 170.51 142.39 167.15 147.07 C 163.05 149.10 156.59 149.88 157.05 155.93 C 157.61 160.45 165.00 158.02 162.32 164.66 C 169.31 164.05 173.67 170.05 179.26 172.99 C 177.85 169.38 173.49 167.18 173.93 162.87 C 178.14 164.67 180.85 168.95 185.00 171.05 C 186.29 169.81 188.16 164.67 189.46 168.60 C 190.88 172.08 184.87 172.82 184.82 176.46 C 188.67 175.42 189.74 185.52 183.99 183.02 C 179.66 186.43 177.70 182.39 176.51 179.25 C 171.70 179.05 167.87 182.05 163.63 183.70 L 163.88 182.84 C 164.89 179.43 168.38 179.07 171.05 177.60 C 167.99 176.19 162.60 173.60 165.47 169.62 C 168.57 165.47 158.66 164.75 158.65 168.40 C 152.20 166.46 146.78 176.41 140.87 171.07 C 139.29 172.14 138.29 173.86 137.03 175.26 C 136.83 174.69 136.45 173.54 136.25 172.97 L 136.41 172.03 C 133.42 163.55 140.08 156.70 139.15 148.02 C 139.45 145.68 139.75 143.34 140.05 141.00 C 142.48 137.25 144.04 132.84 141.30 128.78 C 140.59 123.25 142.88 118.14 143.91 112.84 C 147.67 107.27 157.21 105.81 155.56 97.43 C 156.91 90.39 166.17 92.19 171.19 91.22 Z" />
</g>
<g id="#7d853afe">
<path fill="#7d853a" opacity="1.00" d=" M 190.70 94.64 C 191.82 90.82 195.12 96.00 196.87 97.07 C 196.78 95.32 195.13 92.45 198.13 92.61 C 201.11 94.26 204.91 95.22 206.35 98.67 C 204.81 99.67 202.80 102.00 205.56 102.84 C 205.81 99.92 208.59 101.98 207.98 103.89 C 207.27 108.13 199.75 107.21 200.97 112.12 C 204.22 109.84 206.67 107.71 207.99 113.21 C 208.81 117.02 202.35 118.17 201.56 114.34 C 199.93 115.04 198.47 116.06 196.92 116.91 C 197.73 112.08 192.22 111.13 190.33 107.50 C 189.20 106.10 187.17 107.78 185.77 108.00 C 183.30 105.58 178.10 104.89 177.48 101.25 C 180.87 97.59 189.23 100.41 190.70 94.64 Z" />
</g>
<g id="#67753eff">
<path fill="#67753e" opacity="1.00" d=" M 165.66 102.73 C 163.18 95.41 175.61 95.08 177.48 101.25 C 178.10 104.89 183.30 105.58 185.77 108.00 C 185.33 112.82 190.13 116.22 188.45 121.23 C 188.84 124.61 193.14 122.80 194.25 120.72 C 196.71 124.35 192.57 125.28 190.34 127.04 C 193.24 131.64 187.90 135.82 189.23 140.69 C 190.45 143.57 192.86 138.75 195.04 138.84 C 194.76 141.60 193.90 144.24 193.22 146.91 C 194.81 146.87 196.97 145.31 198.21 146.84 C 197.22 148.99 193.26 147.69 193.12 149.84 C 195.59 151.42 198.91 150.13 201.70 151.00 C 200.30 152.90 200.78 158.42 197.60 155.60 C 195.38 153.83 195.99 157.94 195.30 159.22 C 195.46 157.66 193.82 153.32 192.58 156.52 C 189.84 161.57 187.48 151.31 183.37 155.39 C 178.73 152.88 176.70 161.85 172.99 157.83 C 173.08 155.56 175.44 154.46 176.63 152.77 C 175.12 149.97 170.34 142.76 178.80 146.25 C 182.04 148.02 185.48 148.53 186.67 144.25 C 182.87 143.69 177.61 140.30 179.86 135.91 C 183.49 134.00 183.86 126.53 181.04 123.87 C 181.30 123.65 181.83 123.22 182.09 123.01 C 187.21 120.46 186.70 112.40 182.37 109.53 C 178.55 106.86 173.43 108.62 169.02 108.30 C 167.34 112.50 163.91 118.41 165.84 124.02 C 165.73 129.08 162.19 126.06 159.27 127.65 C 152.77 125.50 163.55 123.13 161.61 119.35 C 160.56 115.40 164.71 108.77 158.99 107.85 C 156.24 104.85 163.65 104.13 165.66 102.73 Z" />
</g>
<g id="#6b652efb">
<path fill="#6b652e" opacity="1.00" d=" M 206.35 98.67 C 206.76 99.07 207.56 99.85 207.96 100.24 C 208.92 101.77 211.28 101.63 212.05 99.98 C 214.09 100.03 216.15 100.20 218.11 100.81 C 218.92 104.83 222.17 105.80 226.15 104.41 C 222.72 105.15 224.65 113.56 221.11 109.80 C 220.81 108.70 222.62 104.51 220.56 106.61 C 217.78 110.29 212.26 108.79 209.16 110.81 C 208.87 111.41 208.28 112.61 207.99 113.21 C 206.67 107.71 204.22 109.84 200.97 112.12 C 199.75 107.21 207.27 108.13 207.98 103.89 C 208.59 101.98 205.81 99.92 205.56 102.84 C 202.80 102.00 204.81 99.67 206.35 98.67 Z" />
</g>
<g id="#2f29149c">
<path fill="#2f2914" opacity="0.61" d=" M 207.96 100.24 C 209.30 99.86 210.66 99.77 212.05 99.98 C 211.28 101.63 208.92 101.77 207.96 100.24 Z" />
</g>
<g id="#0000002a">
</g>
<g id="#7e7d3bfc">
<path fill="#7e7d3b" opacity="1.00" d=" M 221.11 109.80 C 224.65 113.56 222.72 105.15 226.15 104.41 C 228.21 107.48 228.38 111.65 233.03 111.85 C 227.49 110.89 232.82 119.47 227.32 119.52 C 224.61 118.30 224.68 121.40 224.14 123.24 C 227.83 123.10 231.22 118.44 234.73 121.29 C 236.33 122.65 238.27 123.22 240.20 122.10 C 239.78 123.07 239.32 124.02 238.82 124.96 C 236.94 125.95 237.89 128.51 239.98 127.99 C 240.69 128.67 241.40 129.34 242.11 130.03 C 237.11 129.15 233.67 123.97 228.15 125.53 C 225.91 125.27 222.87 126.27 222.05 123.43 C 222.27 120.89 222.70 118.34 222.05 115.83 C 220.94 106.93 209.75 121.15 209.16 110.81 C 212.26 108.79 217.78 110.29 220.56 106.61 C 222.62 104.51 220.81 108.70 221.11 109.80 Z" />
</g>
<g id="#8e9a5bfe">
<path fill="#8e9a5b" opacity="1.00" d=" M 185.77 108.00 C 187.17 107.78 189.20 106.10 190.33 107.50 C 192.22 111.13 197.73 112.08 196.92 116.91 C 198.47 116.06 199.93 115.04 201.56 114.34 C 202.35 118.17 208.81 117.02 207.99 113.21 C 208.28 112.61 208.87 111.41 209.16 110.81 C 209.75 121.15 220.94 106.93 222.05 115.83 C 217.13 115.24 219.36 121.80 222.05 123.43 C 222.87 126.27 225.91 125.27 228.15 125.53 C 233.67 123.97 237.11 129.15 242.11 130.03 C 243.43 130.70 244.75 131.38 246.04 132.12 L 246.50 132.82 C 245.97 134.10 245.77 135.42 245.90 136.80 C 245.50 136.94 244.71 137.21 244.32 137.35 C 240.13 132.55 232.64 134.92 228.44 130.12 C 227.21 132.36 226.30 135.51 223.16 135.33 C 219.54 136.81 218.93 130.14 214.88 131.95 C 215.68 134.28 217.90 135.19 219.89 136.27 C 219.59 141.41 211.17 137.57 212.64 133.32 C 206.28 134.93 203.95 127.71 201.62 123.36 C 198.03 128.08 197.65 119.43 202.00 120.35 C 202.10 114.71 197.33 122.12 194.25 120.72 C 193.14 122.80 188.84 124.61 188.45 121.23 C 190.13 116.22 185.33 112.82 185.77 108.00 Z" />
</g>
<g id="#897641ff">
<path fill="#897641" opacity="1.00" d=" M 173.13 114.88 C 171.58 109.67 179.09 110.88 182.37 109.53 C 186.70 112.40 187.21 120.46 182.09 123.01 C 185.49 115.61 175.27 118.51 180.21 124.26 C 175.05 126.50 174.47 118.18 173.13 114.88 Z" />
</g>
<g id="#969c54fb">
<path fill="#969c54" opacity="1.00" d=" M 227.32 119.52 C 232.82 119.47 227.49 110.89 233.03 111.85 C 234.42 112.77 235.67 113.87 237.01 114.86 C 238.43 117.08 240.24 119.31 240.20 122.10 C 238.27 123.22 236.33 122.65 234.73 121.29 C 231.22 118.44 227.83 123.10 224.14 123.24 C 224.68 121.40 224.61 118.30 227.32 119.52 Z" />
</g>
<g id="#0d0f0632">
</g>
<g id="#bbaa8cff">
<path fill="#bbaa8c" opacity="1.00" d=" M 222.05 123.43 C 219.36 121.80 217.13 115.24 222.05 115.83 C 222.70 118.34 222.27 120.89 222.05 123.43 Z" />
</g>
<g id="#c6b59aff">
<path fill="#c6b59a" opacity="1.00" d=" M 180.21 124.26 C 175.27 118.51 185.49 115.61 182.09 123.01 C 181.83 123.22 181.30 123.65 181.04 123.87 L 180.21 124.26 Z" />
</g>
<g id="#787a37ff">
<path fill="#787a37" opacity="1.00" d=" M 194.25 120.72 C 197.33 122.12 202.10 114.71 202.00 120.35 C 197.65 119.43 198.03 128.08 201.62 123.36 C 203.95 127.71 206.28 134.93 212.64 133.32 C 211.17 137.57 219.59 141.41 219.89 136.27 C 217.90 135.19 215.68 134.28 214.88 131.95 C 218.93 130.14 219.54 136.81 223.16 135.33 C 226.30 135.51 227.21 132.36 228.44 130.12 C 232.64 134.92 240.13 132.55 244.32 137.35 C 243.99 137.52 243.35 137.85 243.03 138.02 C 241.27 138.02 237.75 138.02 235.99 138.01 L 235.20 137.89 C 233.11 138.35 227.85 135.36 226.91 138.00 C 227.22 139.03 227.59 140.04 228.02 141.03 C 225.20 141.84 222.57 140.34 219.84 139.92 C 223.04 144.95 224.73 151.26 222.30 156.95 C 226.67 162.25 226.08 153.27 230.67 155.22 C 232.69 156.84 235.73 159.50 231.08 159.33 C 229.36 163.58 235.84 161.76 235.92 165.08 C 234.05 165.15 232.22 165.49 230.40 165.89 C 228.76 164.33 226.60 161.05 224.18 163.11 C 221.48 164.40 219.40 161.29 217.19 160.30 C 218.81 155.97 213.29 154.49 212.30 150.71 C 209.03 144.82 200.92 153.42 198.21 146.84 C 196.97 145.31 194.81 146.87 193.22 146.91 C 193.90 144.24 194.76 141.60 195.04 138.84 C 192.86 138.75 190.45 143.57 189.23 140.69 C 187.90 135.82 193.24 131.64 190.34 127.04 C 192.57 125.28 196.71 124.35 194.25 120.72 M 215.21 145.10 C 213.02 146.55 213.79 149.85 216.65 149.48 C 220.78 150.59 218.23 144.01 215.21 145.10 Z" />
</g>
<g id="#252d1186">
</g>
<g id="#00000035">
</g>
<g id="#44421888">
</g>
<g id="#00000013">
</g>
<g id="#5f683cff">
<path fill="#5f683c" opacity="1.00" d=" M 167.15 147.07 C 170.51 142.39 174.17 137.82 179.86 135.91 C 177.61 140.30 182.87 143.69 186.67 144.25 C 185.48 148.53 182.04 148.02 178.80 146.25 C 170.34 142.76 175.12 149.97 176.63 152.77 C 175.44 154.46 173.08 155.56 172.99 157.83 C 176.70 161.85 178.73 152.88 183.37 155.39 C 187.48 151.31 189.84 161.57 192.58 156.52 C 193.82 153.32 195.46 157.66 195.30 159.22 C 195.59 162.23 194.32 167.66 198.61 168.14 C 198.86 172.93 196.49 177.33 195.95 182.03 C 197.30 181.48 198.61 180.83 199.98 180.35 C 200.72 181.03 201.44 181.73 202.15 182.44 C 201.31 185.78 200.74 189.19 200.32 192.60 C 196.61 192.83 199.07 195.95 200.02 197.88 C 194.85 202.09 204.59 202.35 199.00 206.37 C 196.07 206.82 195.17 201.88 192.49 204.20 C 193.05 206.71 190.90 207.38 189.06 208.28 C 187.75 211.62 190.46 213.41 192.10 215.51 C 187.90 220.38 186.40 208.63 183.99 214.82 C 179.52 213.23 174.95 215.49 170.41 215.52 C 169.29 218.41 168.47 221.42 166.91 224.13 C 163.90 224.09 160.15 218.70 164.20 217.23 C 167.41 216.62 163.97 213.39 164.58 211.33 C 166.07 205.60 157.78 203.91 153.97 206.71 C 150.77 202.81 153.02 197.54 152.26 192.97 C 156.53 192.77 151.46 201.36 157.07 200.87 C 159.67 200.13 154.73 193.24 159.01 192.01 C 162.91 190.65 160.53 185.41 163.63 183.70 C 167.87 182.05 171.70 179.05 176.51 179.25 C 177.70 182.39 179.66 186.43 183.99 183.02 C 189.74 185.52 188.67 175.42 184.82 176.46 C 184.87 172.82 190.88 172.08 189.46 168.60 C 188.16 164.67 186.29 169.81 185.00 171.05 C 180.85 168.95 178.14 164.67 173.93 162.87 C 173.49 167.18 177.85 169.38 179.26 172.99 C 173.67 170.05 169.31 164.05 162.32 164.66 C 165.00 158.02 157.61 160.45 157.05 155.93 C 156.59 149.88 163.05 149.10 167.15 147.07 M 195.29 183.25 C 192.29 184.86 190.50 188.92 194.28 190.83 C 201.76 194.29 201.35 182.22 195.29 183.25 Z" />
</g>
<g id="#181c0c7c">
</g>
<g id="#242d13a1">
<path fill="#242d13" opacity="0.63" d=" M 235.99 138.01 C 237.75 138.02 241.27 138.02 243.03 138.02 C 241.57 140.77 238.13 139.63 235.99 138.01 Z" />
</g>
<g id="#00000044">
</g>
<g id="#848d4afc">
<path fill="#848d4a" opacity="1.00" d=" M 219.84 139.92 C 222.57 140.34 225.20 141.84 228.02 141.03 C 232.92 144.22 235.02 149.77 237.27 154.87 C 236.63 156.26 236.45 158.10 237.85 159.10 C 237.97 161.15 238.09 163.19 238.26 165.24 C 237.45 165.60 236.67 165.55 235.92 165.08 C 235.84 161.76 229.36 163.58 231.08 159.33 C 235.73 159.50 232.69 156.84 230.67 155.22 C 226.08 153.27 226.67 162.25 222.30 156.95 C 224.73 151.26 223.04 144.95 219.84 139.92 Z" />
</g>
<g id="#bcaa8eff">
<path fill="#bcaa8e" opacity="1.00" d=" M 215.21 145.10 C 218.23 144.01 220.78 150.59 216.65 149.48 C 213.79 149.85 213.02 146.55 215.21 145.10 Z" />
</g>
<g id="#00000055">
</g>
<g id="#868f4dff">
<path fill="#868f4d" opacity="1.00" d=" M 193.12 149.84 C 193.26 147.69 197.22 148.99 198.21 146.84 C 200.92 153.42 209.03 144.82 212.30 150.71 C 213.29 154.49 218.81 155.97 217.19 160.30 C 219.40 161.29 221.48 164.40 224.18 163.11 C 226.60 161.05 228.76 164.33 230.40 165.89 C 226.91 167.08 223.30 167.57 220.33 165.14 C 216.32 173.62 216.06 185.02 222.77 192.24 C 225.89 194.83 231.32 194.31 233.39 197.97 C 229.09 203.43 218.95 194.29 219.05 202.81 C 225.38 204.97 233.32 205.04 238.87 200.82 C 239.98 206.39 238.01 211.88 236.39 217.15 C 232.75 216.74 231.16 221.12 227.27 218.71 C 225.20 217.01 222.59 214.72 220.86 218.06 C 215.26 218.03 208.26 213.97 203.93 218.82 C 202.00 218.77 202.69 214.66 202.53 212.89 C 201.16 213.99 199.74 215.62 198.50 213.43 C 196.87 215.59 194.74 216.51 192.10 215.51 C 190.46 213.41 187.75 211.62 189.06 208.28 C 190.90 207.38 193.05 206.71 192.49 204.20 C 195.17 201.88 196.07 206.82 199.00 206.37 C 198.10 208.17 197.37 210.06 196.88 212.02 C 202.16 211.94 212.35 210.37 209.71 202.36 C 208.78 197.96 203.40 198.64 200.02 197.88 C 199.07 195.95 196.61 192.83 200.32 192.60 C 200.74 189.19 201.31 185.78 202.15 182.44 C 206.09 183.31 211.04 187.69 213.88 182.82 C 215.97 179.20 208.82 183.29 211.69 180.59 C 213.63 178.89 209.38 177.64 209.24 175.66 C 205.47 172.51 215.50 163.86 211.36 175.33 C 214.52 172.07 211.66 168.30 208.81 166.18 C 204.67 166.23 209.93 176.86 204.22 174.89 C 201.06 170.75 200.15 177.98 199.98 180.35 C 198.61 180.83 197.30 181.48 195.95 182.03 C 196.49 177.33 198.86 172.93 198.61 168.14 C 194.32 167.66 195.59 162.23 195.30 159.22 C 195.99 157.94 195.38 153.83 197.60 155.60 C 200.78 158.42 200.30 152.90 201.70 151.00 C 198.91 150.13 195.59 151.42 193.12 149.84 M 211.95 164.93 C 211.42 166.73 215.16 170.77 215.42 167.41 C 216.87 165.29 213.18 165.53 211.95 164.93 Z" />
</g>
<g id="#0101017d">
</g>
<g id="#00000067">
</g>
<g id="#444b1f97">
</g>
<g id="#00000043">
</g>
<g id="#bcad91ff">
<path fill="#bcad91" opacity="1.00" d=" M 211.95 164.93 C 213.18 165.53 216.87 165.29 215.42 167.41 C 215.16 170.77 211.42 166.73 211.95 164.93 Z" />
</g>
<g id="#5a682ffc">
<path fill="#5a682f" opacity="1.00" d=" M 220.33 165.14 C 223.30 167.57 226.91 167.08 230.40 165.89 C 232.22 165.49 234.05 165.15 235.92 165.08 C 236.67 165.55 237.45 165.60 238.26 165.24 C 239.13 165.86 239.98 166.52 240.89 167.11 C 243.39 168.77 246.68 168.11 249.32 167.21 C 251.30 166.98 253.20 167.55 255.02 168.27 C 257.47 169.90 259.79 170.02 262.00 168.65 C 266.81 170.99 272.56 172.18 276.11 176.52 C 272.97 179.06 274.38 184.01 274.92 187.49 C 272.89 189.37 270.44 190.70 268.07 192.10 C 268.27 190.31 268.50 188.54 268.74 186.76 C 270.90 184.78 272.76 182.37 272.14 179.24 C 268.40 173.41 261.45 172.46 255.98 170.93 C 251.88 169.74 252.31 175.32 249.20 176.20 C 251.08 166.24 248.48 171.95 246.68 173.76 C 244.22 173.49 241.89 172.55 239.43 172.28 C 238.35 176.00 232.67 180.97 233.72 173.79 C 231.55 177.22 225.64 184.06 231.64 186.42 C 236.24 188.23 237.60 183.11 238.49 179.69 C 237.33 184.62 241.33 187.12 244.11 190.02 C 245.95 189.09 246.08 186.35 247.64 184.95 C 249.60 187.91 251.25 197.62 252.93 190.39 L 253.68 189.88 C 256.86 190.75 259.93 190.00 262.93 188.90 C 263.17 190.81 260.87 194.35 264.08 194.37 C 261.50 196.23 258.32 196.17 255.25 195.85 C 252.09 195.35 248.79 194.40 245.70 195.67 C 243.56 196.29 241.50 197.18 239.38 197.87 C 237.36 196.25 235.55 197.78 233.95 199.13 C 233.81 198.84 233.53 198.26 233.39 197.97 C 231.32 194.31 225.89 194.83 222.77 192.24 C 216.06 185.02 216.32 173.62 220.33 165.14 Z" />
</g>
<g id="#434c24fe">
<path fill="#434c24" opacity="1.00" d=" M 158.65 168.40 C 158.66 164.75 168.57 165.47 165.47 169.62 C 162.60 173.60 167.99 176.19 171.05 177.60 C 168.38 179.07 164.89 179.43 163.88 182.84 C 158.03 188.78 149.63 181.37 144.86 186.95 C 143.55 186.71 142.30 186.29 141.03 185.93 C 143.28 183.38 139.71 181.56 138.23 179.78 C 137.82 178.28 137.42 176.77 137.03 175.26 C 138.29 173.86 139.29 172.14 140.87 171.07 C 146.78 176.41 152.20 166.46 158.65 168.40 Z" />
</g>
<g id="#9aaa63ff">
<path fill="#9aaa63" opacity="1.00" d=" M 204.22 174.89 C 209.93 176.86 204.67 166.23 208.81 166.18 C 211.66 168.30 214.52 172.07 211.36 175.33 C 215.50 163.86 205.47 172.51 209.24 175.66 C 209.38 177.64 213.63 178.89 211.69 180.59 C 208.82 183.29 215.97 179.20 213.88 182.82 C 211.04 187.69 206.09 183.31 202.15 182.44 C 201.44 181.73 200.72 181.03 199.98 180.35 C 200.15 177.98 201.06 170.75 204.22 174.89 Z" />
</g>
<g id="#191d0c7d">
</g>
<g id="#2e3515ae">
<path fill="#2e3515" opacity="0.68" d=" M 255.02 168.27 C 257.23 167.01 259.56 167.14 262.00 168.65 C 259.79 170.02 257.47 169.90 255.02 168.27 Z" />
</g>
<g id="#7b8d49ff">
<path fill="#7b8d49" opacity="1.00" d=" M 246.68 173.76 C 248.48 171.95 251.08 166.24 249.20 176.20 C 252.31 175.32 251.88 169.74 255.98 170.93 C 261.45 172.46 268.40 173.41 272.14 179.24 C 268.38 180.93 266.60 173.90 262.82 175.82 C 260.21 179.46 256.44 175.15 253.12 174.95 C 249.95 179.90 249.82 185.52 252.93 190.39 C 251.25 197.62 249.60 187.91 247.64 184.95 C 246.08 186.35 245.95 189.09 244.11 190.02 C 241.33 187.12 237.33 184.62 238.49 179.69 C 237.60 183.11 236.24 188.23 231.64 186.42 C 225.64 184.06 231.55 177.22 233.72 173.79 C 232.67 180.97 238.35 176.00 239.43 172.28 C 241.89 172.55 244.22 173.49 246.68 173.76 Z" />
</g>
<g id="#9cad68ff">
<path fill="#9cad68" opacity="1.00" d=" M 253.12 174.95 C 256.44 175.15 260.21 179.46 262.82 175.82 C 266.60 173.90 268.38 180.93 272.14 179.24 C 272.76 182.37 270.90 184.78 268.74 186.76 C 266.42 188.16 263.13 190.60 263.88 185.93 C 262.87 182.33 260.84 189.98 259.42 186.58 C 256.90 182.61 254.47 187.27 253.68 189.88 L 252.93 190.39 C 249.82 185.52 249.95 179.90 253.12 174.95 Z" />
</g>
<g id="#7c8544ef">
<path fill="#7c8544" opacity="0.94" d=" M 274.92 187.49 C 274.38 184.01 272.97 179.06 276.11 176.52 C 279.80 179.23 278.18 185.08 274.92 187.49 Z" />
</g>
<g id="#52572bfd">
<path fill="#52572b" opacity="1.00" d=" M 144.86 186.95 C 149.63 181.37 158.03 188.78 163.88 182.84 L 163.63 183.70 C 160.53 185.41 162.91 190.65 159.01 192.01 C 154.73 193.24 159.67 200.13 157.07 200.87 C 151.46 201.36 156.53 192.77 152.26 192.97 C 153.02 197.54 150.77 202.81 153.97 206.71 C 157.78 203.91 166.07 205.60 164.58 211.33 C 163.97 213.39 167.41 216.62 164.20 217.23 C 160.15 218.70 163.90 224.09 166.91 224.13 C 168.47 221.42 169.29 218.41 170.41 215.52 C 174.95 215.49 179.52 213.23 183.99 214.82 C 184.04 215.33 184.16 216.34 184.22 216.85 C 176.77 213.37 175.07 222.04 175.15 227.69 C 178.37 230.45 182.98 232.30 184.92 236.14 C 186.54 240.26 181.80 237.35 179.67 238.77 C 179.26 238.58 178.44 238.20 178.03 238.01 C 172.68 233.57 159.82 230.48 157.42 240.57 C 155.97 246.39 152.35 237.38 149.56 241.50 C 143.23 245.87 156.73 251.78 156.48 244.21 C 160.18 245.89 162.17 251.44 166.13 253.83 C 167.20 259.72 173.49 261.55 178.71 259.54 C 179.98 261.33 182.01 261.72 184.06 261.95 C 184.06 264.20 185.93 264.88 187.77 265.44 C 186.44 267.93 187.19 270.32 187.39 272.90 C 184.31 272.24 182.35 269.78 180.38 267.55 C 175.14 267.67 169.89 267.85 164.92 265.97 C 159.71 262.86 154.00 260.66 149.03 257.16 C 148.43 255.44 147.77 253.76 147.07 252.09 C 147.07 248.92 146.13 245.92 145.04 242.98 C 145.11 242.54 145.23 241.66 145.29 241.22 C 148.67 231.76 138.25 224.70 140.04 215.00 C 139.87 213.34 140.31 211.45 139.22 210.02 C 137.30 207.56 135.90 204.77 135.07 201.76 C 135.74 196.05 136.33 189.87 141.03 185.93 C 142.30 186.29 143.55 186.71 144.86 186.95 Z" />
</g>
<g id="#7c8950ff">
<path fill="#7c8950" opacity="1.00" d=" M 195.29 183.25 C 201.35 182.22 201.76 194.29 194.28 190.83 C 190.50 188.92 192.29 184.86 195.29 183.25 Z" />
</g>
<g id="#758339fb">
<path fill="#758339" opacity="1.00" d=" M 253.68 189.88 C 254.47 187.27 256.90 182.61 259.42 186.58 C 260.84 189.98 262.87 182.33 263.88 185.93 C 263.13 190.60 266.42 188.16 268.74 186.76 C 268.50 188.54 268.27 190.31 268.07 192.10 C 266.76 192.89 265.42 193.63 264.08 194.37 C 260.87 194.35 263.17 190.81 262.93 188.90 C 259.93 190.00 256.86 190.75 253.68 189.88 Z" />
</g>
<g id="#242a129f">
<path fill="#242a12" opacity="0.62" d=" M 245.70 195.67 C 248.79 194.40 252.09 195.35 255.25 195.85 C 252.07 195.86 248.86 195.71 245.70 195.67 Z" />
</g>
<g id="#00000050">
</g>
<g id="#9f9171fb">
<path fill="#9f9171" opacity="1.00" d=" M 233.95 199.13 C 235.55 197.78 237.36 196.25 239.38 197.87 C 239.28 198.37 239.09 199.35 238.99 199.85 C 237.27 199.82 233.76 202.26 233.95 199.13 Z" />
</g>
<g id="#9fab65ff">
<path fill="#9fab65" opacity="1.00" d=" M 200.02 197.88 C 203.40 198.64 208.78 197.96 209.71 202.36 C 212.35 210.37 202.16 211.94 196.88 212.02 C 197.37 210.06 198.10 208.17 199.00 206.37 C 204.59 202.35 194.85 202.09 200.02 197.88 Z" />
</g>
<g id="#70672cfe">
<path fill="#70672c" opacity="1.00" d=" M 219.05 202.81 C 218.95 194.29 229.09 203.43 233.39 197.97 C 233.53 198.26 233.81 198.84 233.95 199.13 C 233.76 202.26 237.27 199.82 238.99 199.85 L 238.87 200.82 C 233.32 205.04 225.38 204.97 219.05 202.81 Z" />
</g>
<g id="#0000005d">
</g>
<g id="#0000006d">
</g>
<g id="#00000040">
</g>
<g id="#7e7f39ff">
<path fill="#7e7f39" opacity="1.00" d=" M 183.99 214.82 C 186.40 208.63 187.90 220.38 192.10 215.51 C 194.74 216.51 196.87 215.59 198.50 213.43 C 199.74 215.62 201.16 213.99 202.53 212.89 C 202.69 214.66 202.00 218.77 203.93 218.82 C 208.26 213.97 215.26 218.03 220.86 218.06 C 219.61 219.34 219.22 224.66 217.55 221.31 C 215.99 223.66 214.28 224.17 212.29 221.93 C 213.31 228.96 205.37 233.63 199.08 232.13 C 193.66 233.91 201.72 235.70 201.21 238.82 C 196.11 239.26 196.10 234.13 192.30 232.25 C 192.31 235.30 189.21 235.36 186.93 235.85 C 186.50 229.45 184.25 223.30 184.22 216.85 C 184.16 216.34 184.04 215.33 183.99 214.82 M 188.22 218.09 C 187.13 220.32 184.50 227.33 188.96 225.95 C 192.73 226.15 187.87 218.42 192.02 221.94 C 194.64 222.06 199.90 228.67 199.80 223.32 C 195.86 221.61 192.19 218.89 188.22 218.09 Z" />
</g>
<g id="#0101007f">
</g>
<g id="#676238ff">
<path fill="#676238" opacity="1.00" d=" M 175.15 227.69 C 175.07 222.04 176.77 213.37 184.22 216.85 C 184.25 223.30 186.50 229.45 186.93 235.85 C 184.68 238.38 187.20 240.98 188.59 243.16 C 190.66 246.86 191.23 251.17 192.90 255.06 C 191.09 255.50 188.90 256.41 187.96 254.18 C 183.92 249.66 182.52 243.88 179.67 238.77 C 181.80 237.35 186.54 240.26 184.92 236.14 C 182.98 232.30 178.37 230.45 175.15 227.69 Z" />
</g>
<g id="#8c9c5bff">
<path fill="#8c9c5b" opacity="1.00" d=" M 220.86 218.06 C 222.59 214.72 225.20 217.01 227.27 218.71 C 221.21 217.98 227.15 224.38 226.12 227.86 C 223.79 224.85 220.06 226.70 217.02 227.25 C 217.35 229.41 224.31 231.86 219.16 233.00 C 207.34 229.10 208.38 248.98 216.27 250.26 C 219.84 248.76 221.18 244.34 224.73 242.64 C 224.87 244.47 225.03 246.31 225.17 248.15 C 225.65 251.48 223.18 253.54 220.68 255.19 C 217.32 251.42 214.41 256.93 210.63 255.45 C 207.47 254.49 205.16 257.66 202.07 257.82 C 200.04 256.08 201.63 254.65 203.82 254.60 C 206.34 249.54 195.05 250.87 197.54 255.34 C 199.66 259.67 193.11 258.40 192.90 255.06 C 191.23 251.17 190.66 246.86 188.59 243.16 C 187.20 240.98 184.68 238.38 186.93 235.85 C 189.21 235.36 192.31 235.30 192.30 232.25 C 196.10 234.13 196.11 239.26 201.21 238.82 C 201.52 245.41 195.08 248.50 196.83 238.90 C 189.87 239.03 195.50 253.92 200.33 247.33 C 201.12 244.07 208.51 238.07 201.21 238.82 C 201.72 235.70 193.66 233.91 199.08 232.13 C 205.37 233.63 213.31 228.96 212.29 221.93 C 214.28 224.17 215.99 223.66 217.55 221.31 C 219.22 224.66 219.61 219.34 220.86 218.06 M 206.18 244.13 C 201.02 247.96 206.99 255.43 209.94 248.37 C 206.62 248.54 209.50 242.89 206.18 244.13 Z" />
</g>
<g id="#827c40fb">
<path fill="#827c40" opacity="1.00" d=" M 227.27 218.71 C 231.16 221.12 232.75 216.74 236.39 217.15 C 235.88 226.01 225.22 229.84 225.70 238.72 C 225.38 240.03 225.05 241.33 224.73 242.64 C 221.18 244.34 219.84 248.76 216.27 250.26 C 216.83 246.32 211.97 242.96 213.90 238.96 C 214.90 235.72 221.72 237.21 219.16 233.00 C 224.31 231.86 217.35 229.41 217.02 227.25 C 220.06 226.70 223.79 224.85 226.12 227.86 C 227.15 224.38 221.21 217.98 227.27 218.71 M 218.17 239.09 C 217.05 240.53 214.15 244.98 217.99 244.02 C 222.00 245.16 221.42 238.28 218.17 239.09 Z" />
</g>
<g id="#00000030">
</g>
<g id="#a4a36fff">
<path fill="#a4a36f" opacity="1.00" d=" M 188.22 218.09 C 192.19 218.89 195.86 221.61 199.80 223.32 C 199.90 228.67 194.64 222.06 192.02 221.94 C 187.87 218.42 192.73 226.15 188.96 225.95 C 184.50 227.33 187.13 220.32 188.22 218.09 Z" />
</g>
<g id="#00000025">
</g>
<g id="#6c6235ff">
<path fill="#6c6235" opacity="1.00" d=" M 157.42 240.57 C 159.82 230.48 172.68 233.57 178.03 238.01 C 174.57 237.47 172.01 237.92 173.85 241.75 C 168.77 239.46 168.94 248.47 172.99 249.06 C 175.98 251.24 170.35 250.38 170.99 252.81 C 174.10 253.19 176.98 252.42 179.38 250.39 C 183.21 248.65 179.63 255.06 182.63 255.52 C 185.22 256.19 187.48 262.18 184.06 261.95 C 182.01 261.72 179.98 261.33 178.71 259.54 C 173.49 261.55 167.20 259.72 166.13 253.83 C 162.17 251.44 160.18 245.89 156.48 244.21 C 156.73 251.78 143.23 245.87 149.56 241.50 C 152.35 237.38 155.97 246.39 157.42 240.57 Z" />
</g>
<g id="#645a2aff">
<path fill="#645a2a" opacity="1.00" d=" M 216.27 250.26 C 208.38 248.98 207.34 229.10 219.16 233.00 C 221.72 237.21 214.90 235.72 213.90 238.96 C 211.97 242.96 216.83 246.32 216.27 250.26 Z" />
</g>
<g id="#0000001b">
</g>
<g id="#0e110765">
</g>
<g id="#637639fa">
<path fill="#637639" opacity="0.98" d=" M 274.24 235.21 C 278.06 234.72 281.68 234.91 285.12 235.76 C 282.91 238.32 278.91 236.24 277.17 239.31 C 273.63 246.08 279.55 243.10 282.27 243.29 C 278.52 245.49 274.23 246.47 269.85 245.92 C 275.34 246.55 274.48 238.31 269.80 238.51 C 264.66 237.32 264.07 242.69 261.28 245.03 C 259.06 243.61 256.49 242.32 255.93 245.88 C 252.05 248.19 246.04 256.72 243.88 248.60 C 245.93 247.73 248.75 247.32 247.58 243.61 C 251.78 243.34 254.88 234.44 256.26 241.65 C 260.92 242.22 261.06 238.74 263.07 236.05 C 266.79 235.87 270.52 235.59 274.24 235.21 Z" />
</g>
<g id="#171e0d96">
</g>
<g id="#445223f9">
<path fill="#445223" opacity="0.98" d=" M 256.83 235.79 C 258.90 235.91 260.98 236.03 263.07 236.05 C 261.06 238.74 260.92 242.22 256.26 241.65 C 254.88 234.44 251.78 243.34 247.58 243.61 C 248.75 247.32 245.93 247.73 243.88 248.60 C 243.46 248.69 242.61 248.87 242.19 248.97 C 238.71 248.87 234.93 253.58 232.12 250.23 C 231.30 256.05 230.27 250.23 228.57 248.90 C 228.12 253.37 227.70 259.17 223.02 261.27 C 223.69 259.11 224.86 257.19 226.13 255.34 C 224.32 255.55 222.30 256.46 220.68 255.19 C 223.18 253.54 225.65 251.48 225.17 248.15 L 226.11 248.05 C 236.57 248.92 242.43 238.92 252.00 236.84 C 253.62 237.36 256.02 237.79 256.83 235.79 Z" />
</g>
<g id="#87934df9">
<path fill="#87934d" opacity="0.98" d=" M 277.17 239.31 C 278.91 236.24 282.91 238.32 285.12 235.76 C 285.41 236.05 285.99 236.62 286.29 236.90 C 285.90 238.28 285.88 239.68 286.22 241.08 C 284.95 241.90 283.62 242.63 282.27 243.29 C 279.55 243.10 273.63 246.08 277.17 239.31 Z" />
</g>
<g id="#3d3c207e">
</g>
<g id="#908759ff">
<path fill="#908759" opacity="1.00" d=" M 173.85 241.75 C 172.01 237.92 174.57 237.47 178.03 238.01 C 178.44 238.20 179.26 238.58 179.67 238.77 C 182.52 243.88 183.92 249.66 187.96 254.18 C 186.19 254.67 184.41 255.11 182.63 255.52 C 179.63 255.06 183.21 248.65 179.38 250.39 C 176.98 252.42 174.10 253.19 170.99 252.81 C 170.35 250.38 175.98 251.24 172.99 249.06 C 168.94 248.47 168.77 239.46 173.85 241.75 Z" />
</g>
<g id="#899758fe">
<path fill="#899758" opacity="1.00" d=" M 261.28 245.03 C 264.07 242.69 264.66 237.32 269.80 238.51 C 274.48 238.31 275.34 246.55 269.85 245.92 C 267.48 246.40 266.64 247.95 267.94 250.06 C 268.33 252.41 267.64 254.42 265.39 255.42 C 267.21 257.41 269.96 261.73 265.07 261.18 C 266.49 262.37 267.93 263.55 269.20 264.91 C 266.16 264.49 262.85 262.55 260.06 264.74 C 259.96 262.90 260.50 260.00 257.98 261.89 C 259.24 257.51 257.81 253.70 254.81 250.73 C 258.93 249.17 261.36 255.02 264.87 252.80 C 265.34 249.84 263.91 246.54 261.28 245.03 Z" />
</g>
<g id="#807c3fff">
<path fill="#807c3f" opacity="1.00" d=" M 200.33 247.33 C 195.50 253.92 189.87 239.03 196.83 238.90 C 195.08 248.50 201.52 245.41 201.21 238.82 C 208.51 238.07 201.12 244.07 200.33 247.33 Z" />
</g>
<g id="#cebfa6ff">
<path fill="#cebfa6" opacity="1.00" d=" M 218.17 239.09 C 221.42 238.28 222.00 245.16 217.99 244.02 C 214.15 244.98 217.05 240.53 218.17 239.09 Z" />
</g>
<g id="#3d3f219c">
<path fill="#3d3f21" opacity="0.61" d=" M 224.73 242.64 C 225.05 241.33 225.38 240.03 225.70 238.72 C 225.86 241.84 225.96 244.92 226.11 248.05 L 225.17 248.15 C 225.03 246.31 224.87 244.47 224.73 242.64 Z" />
</g>
<g id="#a6b678ff">
<path fill="#a6b678" opacity="1.00" d=" M 255.93 245.88 C 256.49 242.32 259.06 243.61 261.28 245.03 C 263.91 246.54 265.34 249.84 264.87 252.80 C 261.36 255.02 258.93 249.17 254.81 250.73 C 255.18 249.11 255.56 247.49 255.93 245.88 Z" />
</g>
<g id="#78763dff">
<path fill="#78763d" opacity="1.00" d=" M 206.18 244.13 C 209.50 242.89 206.62 248.54 209.94 248.37 C 206.99 255.43 201.02 247.96 206.18 244.13 Z" />
</g>
<g id="#868e50ff">
<path fill="#868e50" opacity="1.00" d=" M 243.88 248.60 C 246.04 256.72 252.05 248.19 255.93 245.88 C 255.56 247.49 255.18 249.11 254.81 250.73 C 249.78 255.19 251.77 262.17 249.91 267.83 C 246.74 267.23 245.37 269.17 244.76 271.93 C 239.69 270.02 243.59 262.16 236.65 262.86 C 235.98 259.04 241.43 258.69 240.11 255.78 C 241.11 253.60 243.64 251.50 242.19 248.97 C 242.61 248.87 243.46 248.69 243.88 248.60 Z" />
</g>
<g id="#747c34ff">
<path fill="#747c34" opacity="1.00" d=" M 228.57 248.90 C 230.27 250.23 231.30 256.05 232.12 250.23 C 234.93 253.58 238.71 248.87 242.19 248.97 C 243.64 251.50 241.11 253.60 240.11 255.78 C 235.92 254.07 232.22 255.02 232.62 259.89 C 227.49 257.84 227.42 268.64 223.07 264.94 C 221.72 261.19 217.26 268.10 218.64 262.97 C 212.51 262.33 214.11 269.26 208.87 270.01 C 207.14 270.29 208.78 272.36 208.86 273.37 C 206.42 277.36 204.77 270.05 200.99 271.88 C 201.66 274.13 206.15 277.99 202.19 279.20 C 199.87 279.70 198.86 281.84 198.81 284.05 C 191.81 285.44 193.30 274.56 187.39 272.90 C 187.19 270.32 186.44 267.93 187.77 265.44 C 185.93 264.88 184.06 264.20 184.06 261.95 C 187.48 262.18 185.22 256.19 182.63 255.52 C 184.41 255.11 186.19 254.67 187.96 254.18 C 188.90 256.41 191.09 255.50 192.90 255.06 C 193.11 258.40 199.66 259.67 197.54 255.34 C 195.05 250.87 206.34 249.54 203.82 254.60 C 201.63 254.65 200.04 256.08 202.07 257.82 C 205.16 257.66 207.47 254.49 210.63 255.45 C 214.41 256.93 217.32 251.42 220.68 255.19 C 222.30 256.46 224.32 255.55 226.13 255.34 C 224.86 257.19 223.69 259.11 223.02 261.27 C 227.70 259.17 228.12 253.37 228.57 248.90 M 196.30 265.31 C 193.66 265.30 193.14 268.62 195.22 269.89 C 199.31 271.79 201.99 261.99 196.30 265.31 Z" />
</g>
<g id="#171d0c87">
</g>
<g id="#757b3bfc">
<path fill="#757b3b" opacity="1.00" d=" M 267.94 250.06 C 269.61 250.78 271.26 251.53 272.96 252.19 C 277.06 251.92 283.32 256.25 286.23 251.78 C 288.03 253.85 286.52 256.75 286.39 259.23 C 287.49 252.17 278.89 254.94 275.09 256.62 C 266.92 254.03 271.94 265.55 276.81 267.05 C 273.06 269.81 274.19 276.46 267.66 275.66 C 268.29 282.50 260.09 281.02 257.86 285.95 C 256.56 285.69 255.30 285.80 254.07 286.28 C 253.69 286.01 252.93 285.47 252.54 285.20 C 253.32 279.31 263.52 283.35 260.08 275.33 C 255.33 274.84 252.24 279.22 247.32 277.78 C 248.66 271.95 240.35 274.24 241.85 278.89 C 237.86 286.49 227.64 281.84 222.05 287.23 C 219.94 287.40 218.04 286.30 218.39 283.98 C 216.30 284.15 214.27 284.75 212.19 284.93 C 209.99 281.78 210.65 277.47 210.13 273.81 C 212.66 274.52 215.30 276.17 217.67 274.17 C 218.63 277.53 219.65 280.90 221.17 284.06 C 225.54 283.68 226.13 278.36 220.78 279.67 C 223.91 277.63 227.63 277.04 231.13 275.91 C 230.15 274.49 229.00 272.67 227.00 272.92 C 224.48 272.53 223.56 278.97 221.09 275.79 C 221.20 273.77 221.88 266.25 224.53 269.40 C 226.94 274.11 235.65 268.90 235.05 264.47 C 235.45 264.07 236.25 263.26 236.65 262.86 C 243.59 262.16 239.69 270.02 244.76 271.93 C 245.37 269.17 246.74 267.23 249.91 267.83 C 244.27 276.48 259.65 267.92 257.98 261.89 C 260.50 260.00 259.96 262.90 260.06 264.74 C 262.85 262.55 266.16 264.49 269.20 264.91 C 267.93 263.55 266.49 262.37 265.07 261.18 C 269.96 261.73 267.21 257.41 265.39 255.42 C 267.64 254.42 268.33 252.41 267.94 250.06 M 239.48 272.37 C 238.29 275.48 231.89 276.39 233.86 280.10 C 237.34 284.35 244.85 272.00 239.48 272.37 Z" />
</g>
<g id="#3d4e1eed">
<path fill="#3d4e1e" opacity="0.93" d=" M 272.96 252.19 C 275.00 252.20 277.01 251.68 278.05 249.77 C 280.00 250.45 282.15 250.40 284.07 249.59 C 284.83 250.28 285.55 251.01 286.23 251.78 C 283.32 256.25 277.06 251.92 272.96 252.19 Z" />
</g>
<g id="#504c21ff">
<path fill="#504c21" opacity="1.00" d=" M 249.91 267.83 C 251.77 262.17 249.78 255.19 254.81 250.73 C 257.81 253.70 259.24 257.51 257.98 261.89 C 259.65 267.92 244.27 276.48 249.91 267.83 Z" />
</g>
<g id="#555023ff">
<path fill="#555023" opacity="1.00" d=" M 232.62 259.89 C 232.22 255.02 235.92 254.07 240.11 255.78 C 241.43 258.69 235.98 259.04 236.65 262.86 C 236.25 263.26 235.45 264.07 235.05 264.47 C 233.71 263.25 232.96 261.65 232.62 259.89 Z" />
</g>
<g id="#99a45efe">
<path fill="#99a45e" opacity="1.00" d=" M 275.09 256.62 C 278.89 254.94 287.49 252.17 286.39 259.23 C 286.38 260.45 285.98 261.45 285.19 262.22 C 279.70 260.72 275.74 261.31 276.81 267.05 C 271.94 265.55 266.92 254.03 275.09 256.62 Z" />
</g>
<g id="#8c9a5bff">
<path fill="#8c9a5b" opacity="1.00" d=" M 223.07 264.94 C 227.42 268.64 227.49 257.84 232.62 259.89 C 232.96 261.65 233.71 263.25 235.05 264.47 C 235.65 268.90 226.94 274.11 224.53 269.40 C 221.88 266.25 221.20 273.77 221.09 275.79 C 223.56 278.97 224.48 272.53 227.00 272.92 C 229.00 272.67 230.15 274.49 231.13 275.91 C 227.63 277.04 223.91 277.63 220.78 279.67 C 226.13 278.36 225.54 283.68 221.17 284.06 C 219.65 280.90 218.63 277.53 217.67 274.17 C 215.30 276.17 212.66 274.52 210.13 273.81 C 209.82 273.70 209.18 273.48 208.86 273.37 C 208.78 272.36 207.14 270.29 208.87 270.01 C 214.11 269.26 212.51 262.33 218.64 262.97 C 217.26 268.10 221.72 261.19 223.07 264.94 Z" />
</g>
<g id="#52612bd8">
<path fill="#52612b" opacity="0.85" d=" M 276.81 267.05 C 275.74 261.31 279.70 260.72 285.19 262.22 C 282.26 263.71 278.28 263.60 276.81 267.05 Z" />
</g>
<g id="#a89a6eff">
<path fill="#a89a6e" opacity="1.00" d=" M 196.30 265.31 C 201.99 261.99 199.31 271.79 195.22 269.89 C 193.14 268.62 193.66 265.30 196.30 265.31 Z" />
</g>
<g id="#494e23f8">
<path fill="#494e23" opacity="0.97" d=" M 164.92 265.97 C 169.89 267.85 175.14 267.67 180.38 267.55 C 182.35 269.78 184.31 272.24 187.39 272.90 C 193.30 274.56 191.81 285.44 198.81 284.05 C 201.17 284.53 202.34 282.25 203.92 281.00 C 205.65 282.58 207.38 284.17 209.03 285.83 C 206.77 286.35 204.49 286.73 202.21 287.15 C 203.43 289.61 205.24 291.54 208.20 291.53 C 204.30 293.11 201.09 290.94 198.86 288.11 C 195.40 286.18 190.77 287.47 186.85 287.16 C 182.67 285.28 180.48 280.94 177.15 278.00 C 174.44 272.74 170.19 268.67 164.92 265.97 Z" />
</g>
<g id="#5a6429fc">
<path fill="#5a6429" opacity="1.00" d=" M 200.99 271.88 C 204.77 270.05 206.42 277.36 208.86 273.37 C 209.18 273.48 209.82 273.70 210.13 273.81 C 210.65 277.47 209.99 281.78 212.19 284.93 C 214.27 284.75 216.30 284.15 218.39 283.98 C 218.04 286.30 219.94 287.40 222.05 287.23 C 221.18 287.71 220.27 288.08 219.31 288.34 C 216.53 288.47 213.08 286.79 211.08 289.14 C 210.16 289.98 209.26 290.86 208.20 291.53 C 205.24 291.54 203.43 289.61 202.21 287.15 C 204.49 286.73 206.77 286.35 209.03 285.83 C 207.38 284.17 205.65 282.58 203.92 281.00 C 202.34 282.25 201.17 284.53 198.81 284.05 C 198.86 281.84 199.87 279.70 202.19 279.20 C 206.15 277.99 201.66 274.13 200.99 271.88 Z" />
</g>
<g id="#9aa773ff">
<path fill="#9aa773" opacity="1.00" d=" M 239.48 272.37 C 244.85 272.00 237.34 284.35 233.86 280.10 C 231.89 276.39 238.29 275.48 239.48 272.37 Z" />
</g>
<g id="#484624fb">
<path fill="#484624" opacity="1.00" d=" M 241.85 278.89 C 240.35 274.24 248.66 271.95 247.32 277.78 C 252.24 279.22 255.33 274.84 260.08 275.33 C 263.52 283.35 253.32 279.31 252.54 285.20 C 249.02 282.72 246.93 278.58 241.85 278.89 Z" />
</g>
<g id="#0202001b">
</g>
<g id="#14140973">
</g>
<g id="#1d1e0b7f">
</g>
</svg>






