<svg xmlns="http://www.w3.org/2000/svg" width="512" height="512" viewBox="0 0 384 384" xmlns:v="https://vecta.io/nano"><path fill="#1e180d" opacity=".49" d="M223.99 94.77c1.57-1.79 3.57-1.83 6-.14a7.5 7.5 0 0 1-6 .14z"/><path fill="#565e2e" d="M216.1 97.32c2.82-.16 5.59-.82 7.89-2.55a7.5 7.5 0 0 0 6-.14l1.29.83c-3.33.89-3.24 3.56-2.58 6.37-2.85 3.66-1.74-3.5-3.87-3.75-3.64-1.22-1.55 4.1-2.13 6.41-.41 1.29.09 2.52.59 3.7-3.02 2.16-6.32-5.96-8.42-1.37-2.45 5.9-9.32.14-11.23-3.59-6.82-1.44-9.41 7.78-15.32 9.49-1.76-1.35-3.04-3.57-5.41-3.84-.46 4.24 5.92 6.85 3.04 11.03-.43 2.95-3.18 1.49-5.12 1.19-4.2-3.53-9.8 7.68-10.15.87-1.31.16-2.17 1.17-3.08 2.01-5.25.82.66-4.28-.55-7.07-4.06.24-7.08 3.58-11.12 4.09 1.62-4.05 5.84-5.73 9.26-7.94 1.9-.1 3.8-.14 5.7-.2l6.23-.59c5.78-7.43 15.78-7.97 22.92-13.53 1.62.54 3.35.46 5.02.2 2-.06 3.97-.48 5.88-1.09 1.71.51 3.67.64 5.16-.53z"/><path fill="#6f7836" d="M228.7 101.83c-.66-2.81-.75-5.48 2.58-6.37 4.72 3.04 7.78 7.98 12.8 10.77 2.35 1.53 4.66 1.67 6.93.43 1.03 1.12 1.94 2.35 2.87 3.55 1.64 2.78 4.01 5.06 7.34 5.49-3.91-.34-7.38 1.19-11.02 2.08-3.81-2.52-8.52-3.87-11.33-7.68-2.01-2.41-5.67-4.22-8.06-1.27-2.86-1.18-5-3.71-8.11-4.34.58-2.31-1.51-7.63 2.13-6.41 2.13.25 1.02 7.41 3.87 3.75z"/><path fill="#282415" opacity=".62" d="M210.94 97.85c1.36-1.48 3.47-1.24 5.16-.53-1.49 1.17-3.45 1.04-5.16.53z"/><path fill="#282914" opacity=".6" d="M200.07 98.06c1.71-.49 3.67-.45 4.99.88-1.67.26-3.4.34-5.02-.2l.03-.68z"/><path fill="#201f0c" opacity=".42" d="M276.88 102.64c1.7-1.72 3.79-1.75 6.25-.1-2 .84-4.24.91-6.25.1z"/><path fill="#6b7536" d="M188.32 112.72c5.91-1.71 8.5-10.93 15.32-9.49 1.91 3.73 8.78 9.49 11.23 3.59 2.1-4.59 5.4 3.53 8.42 1.37-1.8 3.18-8.33 10.24-14 7.84.72-1.67 1.63-3.29 1.83-5.13-5.43.69-9.47 11.79-1.47 10.87 2.81-5.78 10.26-4.3 15.34-2.77 2.62.99-1.81-5.61 1.22-3.17 3.15 2.76 3.44-4.46 6.83-3.94.39 2.92-1.08 5.5-2.61 7.84-4.8 2.66-1.08 7.05-3.01 10.46.69-5.46-3.24-.26-4.29.67-5.23-3.56.84-9.24.32-3.55 2.14-.78 1.93-3.55 2.59-5.38-5.03 2.65-10.63 3.61-16.22 4.33 1.67 3.62 7.42 2.92 9.37 6.63-3.62.34-9.78-3.3-10.11 2.17 1.62 4.94 2.5 12.16 9.02 12.35-1.84 2.88-.12 5.89 1.07 8.63-4.97-.17-2.71-5.34-4.4-7.94-3.4-1.22-3.93 1.13-3.63 3.93-1.96-1.07-2.66-3.26-3.7-5.08-1.56-2.66-3.14-5.3-4.36-8.13-1.39.24-2.74.6-4.09.98-2.98-.2-6.86.35-5.29 4.27-3.11.61-4.46-2.25-3.69-4.91 2.09-1.4 6.06-.6 5-4.28-2.91.63-5.31 2.46-7.67 4.17l-.71-1.91c1.83-2.17 4.25-3.83 4.76-6.85 2.56.69 8.35 3.79 6.38-.92-3.65-1.17-7.7-6.85-10.8-1.53-2.58-1.68-4.58-2.75-3.09 1.28-3.4-.45-2.33-5.46-3.05-8.02 1.94.3 4.69 1.76 5.12-1.19 2.88-4.18-3.5-6.79-3.04-11.03 2.37.27 3.65 2.49 5.41 3.84z"/><path fill="#797d44" d="M275.66 104.02l1.22-1.38c2.01.81 4.25.74 6.25-.1 3.14 2.31 5.54 5.52 8.82 7.67-.15 1.53-.74 3.83 1.06 4.64l3.97 2.35c-.34 1.78-.71 4.75 1.91 4.75 6.39-.34 2.28 7.52 7.21 9.01-5.59 3.64-11.28-1.89-16.78-1.73-5.13 2.75 1.29 5.1 3.81 6.56-2.63-.7-5.31-.23-7.95.05-.22-2.68-.9-11.61-3.73-5.35-5.55-.01-2.25 3.95-.26 6.45-2.61-.5-4.73-1.51-4.3-4.54-3.29 1.1-6.27 1.77-2.98 5.24-5.27-.28-2.44 7.03 1.13 7.29 2.57-.18 1.68 2.58 1.92 4.23-5.35.97-5.43-5.98-9.78-7.44l.07-2.59c3.96-12.11-7.1 1.12-10.32-3.01-.78-3.16.07-7.48-3.84-8.41.91-7.04 12.2 1.44 9.8-7.91 1.42 3.26-.7 11.41 4.12 12.33 1.24-5.77-1.76-10.83-3.04-16.2 1.97.14 3.9.6 5.84.99-.92-2.81-4.9-8.7 2.72-6.45 4.09-.66 6.87 4.78 3.62 7.59 3.49 1.7 2.4 9.11 6.76 7.33 5.57.91 12.46.84 13.16-6.24-2.3-1.7-5.57-.99-8.1-.16.96 1.71 2.17 3.27 3.17 4.97-2.7-.12-5.8-1.91-8.06.34 1.38-2.95 5.78-4.2 2.18-8.38-7.02.45-3.81-9.36-9.6-11.9m19.57 20.08c-3.74 4.91 3.48 4.5 6.81 4.92.72-3.51-3.31-6.75-6.81-4.92z"/><path fill="#51562e" d="M272.18 108.14c1.3-1.24 2.28-2.78 3.48-4.12 5.79 2.54 2.58 12.35 9.6 11.9 3.6 4.18-.8 5.43-2.18 8.38l-.17 1.09c-4.36 1.78-3.27-5.63-6.76-7.33 3.25-2.81.47-8.25-3.62-7.59-7.62-2.25-3.64 3.64-2.72 6.45-1.94-.39-3.87-.85-5.84-.99 1.28 5.37 4.28 10.43 3.04 16.2-4.82-.92-2.7-9.07-4.12-12.33-.17-1.58.77-4.15-1.67-4.1-3.33-.43-5.7-2.71-7.34-5.49l6.32-.93 3.51-.6c2.8-.12 6.09 1.32 8.47-.54z"/><path fill="#88924f" d="M223.29 108.19c-.5-1.18-1-2.41-.59-3.7 3.11.63 5.25 3.16 8.11 4.34 2.39-2.95 6.05-1.14 8.06 1.27 2.81 3.81 7.52 5.16 11.33 7.68 3.64-.89 7.11-2.42 11.02-2.08 2.44-.05 1.5 2.52 1.67 4.1 2.4 9.35-8.89.87-9.8 7.91.04 5.04.58 10.1-.42 15.08-3.75-1.13-5.84-4.08-6.27-7.9-.44 1.43-.29 3.64-2.44 3.1-.42-3.62 2.06-6.32 3.28-9.45-6.23 2.19-11.91-10.72-3.16-9.87-1.66-1.79-3.34-4.5-6.58-2.4-1.74 3.07-5.01 10.45-7.07 3.46 1.53-2.34 3-4.92 2.61-7.84-3.39-.52-3.68 6.7-6.83 3.94-3.03-2.44 1.4 4.16-1.22 3.17-5.08-1.53-12.53-3.01-15.34 2.77-8 .92-3.96-10.18 1.47-10.87-.2 1.84-1.11 3.46-1.83 5.13 5.67 2.4 12.2-4.66 14-7.84z"/><path fill="#2b2c12" opacity=".59" d="M244.08 106.23c2.38-1.16 4.69-1.01 6.93.43-2.27 1.24-4.58 1.1-6.93-.43z"/><path fill="#1c1d10" opacity=".54" d="M263.71 108.68c2.78-.62 5.61-.45 8.47-.54-2.38 1.86-5.67.42-8.47.54z"/><path fill="#272f12" opacity=".48" d="M291.95 110.21c1.76.87 1.32 3.07 1.06 4.64-1.8-.81-1.21-3.11-1.06-4.64z"/><path fill="#211c0d" opacity=".5" d="M170.89 112.86l6.23-.59-6.23.59z"/><path fill="#545625" d="M237.5 116.27c3.24-2.1 4.92.61 6.58 2.4-8.75-.85-3.07 12.06 3.16 9.87-1.22 3.13-3.7 5.83-3.28 9.45 2.15.54 2-1.67 2.44-3.1.43 3.82 2.52 6.77 6.27 7.9 1-4.98.46-10.04.42-15.08 3.91.93 3.06 5.25 3.84 8.41 3.22 4.13 14.28-9.1 10.32 3.01.13-4.96-3.75 1.85-5.45 2.64-2.37 3.16-6.64 1.01-9.92 2.24-7.76-2.89-16.3-2.95-23.94-6.23l-5.83-.91c.44-1.99 1.8-3.94 1.02-6.01 1.05-.93 4.98-6.13 4.29-.67 1.93-3.41-1.79-7.8 3.01-10.46 2.06 6.99 5.33-.39 7.07-3.46z"/><path fill="#6e733d" d="M155.93 121c4.04-.51 7.06-3.85 11.12-4.09 1.21 2.79-4.7 7.89.55 7.07.68 3.7 1.97 7.28 2.41 11.02-2.57-2.07-2.11.7-1.96 2.7-7.25-2.38-9.61 17.01-2.29 10.53 1.18-1.4 2.28-2.86 3.37-4.32l.88-1.1c.42 1.15.91 2.28 1.4 3.41.4 6.22 5.25 1.67 8.46.47l1.3 2.19c-4.39.99-2.79 8.97-8.15 6.33-1.76 5.78 4.32 2.7 7.83 2.88 1.97 1.89 3.8 3.93 5.95 5.64-2.94-.01-2.4 3.27-4.26 4.8 3.32 2.25.41 7.46-3.19 6.07-1.54-.64-1.92 1.13-2.58 2.1-2.49 5.62-5.86-1.9-1.59-4.65 1-5.64-8.17 3.89-6.63-2.09 1.26-4.45-4.8-8.47-1.26-12.51 1.76-2.03-2.58-1.55-3.71-2.42.63-1.14 1.25-2.3 1.68-3.54-3.6 1.28-5.69-2.2-6.73-5.1-.89-2.77-5.2-4.48-2.97-7.77 1.2-5.9 12.22-.03 11.45-6.56-3.95.17-7.9.54-11.86.52-1.27 1.89-2.15 4.05-3.78 5.69-.54-3.4-1.63-6.68-2.19-10.08 2.32-2.85 8.28-2.16 6.75-7.19z"/><path fill="#3b481e" opacity=".64" d="M296.98 117.2c1.59.96 1.37 3.17 1.91 4.75-2.62 0-2.25-2.97-1.91-4.75z"/><path fill="#98a067" d="M287.97 118.99c2.53-.83 5.8-1.54 8.1.16-.7 7.08-7.59 7.15-13.16 6.24l.17-1.09c2.26-2.25 5.36-.46 8.06-.34-1-1.7-2.21-3.26-3.17-4.97z"/><path fill="#818c48" d="M170.68 121.97c.35 6.81 5.95-4.4 10.15-.87.72 2.56-.35 7.57 3.05 8.02-1.49-4.03.51-2.96 3.09-1.28 3.1-5.32 7.15.36 10.8 1.53 1.97 4.71-3.82 1.61-6.38.92-.51 3.02-2.93 4.68-4.76 6.85-2.3-5.43-2.4 4.33-5.07 5.39-1.75.9-2.6 2.27-1.69 4.16-3.21 1.2-8.06 5.75-8.46-.47.41-3.87-.82-7.48-1.4-11.22-.44-3.74-1.73-7.32-2.41-11.02.91-.84 1.77-1.85 3.08-2.01z"/><path fill="#585c33" d="M147.12 125.13c2.81-1.63 5.8-2.91 8.81-4.13 1.53 5.03-4.43 4.34-6.75 7.19.56 3.4 1.65 6.68 2.19 10.08 1.63-1.64 2.51-3.8 3.78-5.69 3.96.02 7.91-.35 11.86-.52.77 6.53-10.25.66-11.45 6.56-2.23 3.29 2.08 5 2.97 7.77 1.04 2.9 3.13 6.38 6.73 5.1-.43 1.24-1.05 2.4-1.68 3.54-1.4 2.68-1.79 5.78-2.3 8.73-4.21 3.64-9.62 6.49-11.85 11.86-1.93 1.67-4.15-1.9-5.79-.9-4.49 3.3 3.3 5.86 5.32 8.37 1.03-2.12.5-6.14 3.97-5.09 4.2 1.32 2.45 7.54 2.39 10.69 3.57 6.36 11.95-5.1 15.82 2.14-2.27 1.22-4.76.93-7.14.28 3.92 2.94 3.27 6.64 3 10.69-1.66-.99-3.34-1.95-5.08-2.8.68 1.72 1.53 3.37 2.14 5.12-5.24-.93-8.6-6.12-13.96-7.22-3.29-.19-5.31-5.56-8.3-2.28-4.9-2.43-5.95 4.85-10.66 3.37-4.52-3.98-4.29-9.77-4.38-15.21 3.21-5.57 5.46-11.37 6.64-17.69l1.86-3.19c1.53-3.7 3.64-7.48 3.5-11.57l.02-8.55.17-2.82.16-1.89.93-2.85.98-3.1c1.55-2.44 3.88-4.2 6.1-5.99z"/><path fill="#8c8649" d="M209.82 126.26c5.59-.72 11.19-1.68 16.22-4.33-.66 1.83-.45 4.6-2.59 5.38.52-5.69-5.55-.01-.32 3.55.78 2.07-.58 4.02-1.02 6.01l-.2.68c-.83 3.44-1.83 6.89-3.81 9.86-6.52-.19-7.4-7.41-9.02-12.35.33-5.47 6.49-1.83 10.11-2.17-1.95-3.71-7.7-3.01-9.37-6.63m5.4 11.85c-1.82 1.74-2.22 4.08-1.22 7 3.3.01 6.19-7.57 1.22-7z"/><path fill="#9bae76" d="M295.23 124.1c3.5-1.83 7.53 1.41 6.81 4.92-3.33-.42-10.55-.01-6.81-4.92z"/><path fill="#55652e" d="M281.45 130.49c2.83-6.26 3.51 2.67 3.73 5.35 2.64-.28 5.32-.75 7.95-.05 4.68 4.62 11.66 2.11 17.2 5.66l-.36.72-7.92-.15-1.25-.9c-3.22-1.4-6.55-1.5-9.99-.29-2.25.63-4.42 1.48-6.66 2.14-.77-2.11-1.74-4.14-2.96-6.03-1.99-2.5-5.29-6.46.26-6.45z"/><path fill="#909c52" d="M289.32 129.23c5.5-.16 11.19 5.37 16.78 1.73 3.44 1.96 6.03 6.69 4.23 10.49-5.54-3.55-12.52-1.04-17.2-5.66-2.52-1.46-8.94-3.81-3.81-6.56z"/><path fill="#839152" d="M273.91 137.64c-3.29-3.47-.31-4.14 2.98-5.24-.43 3.03 1.69 4.04 4.3 4.54 1.22 1.89 2.19 3.92 2.96 6.03-2.3 2.74-.19 4.64 2.69 5.14 2.66 1.53 5.74 2.65 8.53.69 4.6.59 11.11 5.08 7.73 10.28l-3.99-.1c.39-2.81-.66-3.28-2.85-1.79-6.19 4.95-3.92-6.11-9.05-4.17-3.53 5.1-12 3.18-10.25-3.86-.24-1.65.65-4.41-1.92-4.23-3.57-.26-6.4-7.57-1.13-7.29z"/><path fill="#54693c" d="M168.05 137.7c-.15-2-.61-4.77 1.96-2.7.58 3.74 1.81 7.35 1.4 11.22-.49-1.13-.98-2.26-1.4-3.41-.29-1.83-1.07-3.5-1.96-5.11z"/><path fill="#94aa6d" d="M181.56 142.53c2.67-1.06 2.77-10.82 5.07-5.39l.71 1.91c1.39 2.94-.53 4.29-3.13 5.2-3.93 2.03 2.49 6.12-.86 7.94-1.79 2.13-1.14-2.36-2.18-3.31l-1.3-2.19c-.91-1.89-.06-3.26 1.69-4.16z"/><path fill="#818c4f" d="M187.34 139.05c2.36-1.71 4.76-3.54 7.67-4.17 1.06 3.68-2.91 2.88-5 4.28-.77 2.66.58 5.52 3.69 4.91-1.57-3.92 2.31-4.47 5.29-4.27-3.42 1.8-4.95 8.05-1.41 9.92 3.65-2.33 5.95-6.53 5.5-10.9 1.22 2.83 2.8 5.47 4.36 8.13-3.06 2.62.18 4.58 2.36 6.28-1.38 1.6-2.56 5.86-5.09 3.62.24-3.22-3.97-9.61-5.13-3.64 1.09 2.62 4.14 5.29 2.71 8.85.41 3.18-8.33 5.4-5.41 1.76 2.87-3.14-2.72-4.83-4.76-6.41.02-4.28 5.44-15.04-1.82-11.34 3.45 3.88-2.56 8.61 1.82 11.34-2.42.16-4.83-.14-7.24-.28.19 2.86 2.76 4.03 5.01 5.11-1.96 3.91-2.1 8.65.06 12.5-4.13-1-10.1 2.71-8.38 7.35-2.44.38-4.22-.3-3.59-3.09l-.03-1.02c3.68 1.02 1.54-4.25-.33-.9l-.85-.38c.66-.97 1.04-2.74 2.58-2.1 3.6 1.39 6.51-3.82 3.19-6.07 1.86-1.53 1.32-4.81 4.26-4.8-2.15-1.71-3.98-3.75-5.95-5.64-3.51-.18-9.59 2.9-7.83-2.88 5.36 2.64 3.76-5.34 8.15-6.33 1.04.95.39 5.44 2.18 3.31 3.35-1.82-3.07-5.91.86-7.94 2.6-.91 4.52-2.26 3.13-5.2z"/><path fill="#978c66" d="M165.76 148.23c-7.32 6.48-4.96-12.91 2.29-10.53.89 1.61 1.67 3.28 1.96 5.11l-.88 1.1c-3.63-2.76-7.31 1.67-3.37 4.32z"/><path fill="#16190b" opacity=".55" d="M222.11 136.87l5.83.91c-1.96.61-4.23 1.02-6.03-.23l.2-.68z"/><path fill="#39421a" opacity=".96" d="M261.8 141.77c1.7-.79 5.58-7.6 5.45-2.64l-.07 2.59c1.2 3.92 1.65 6.07-1.33 9.18 4.03.69 9.83.73 8.02 6.27-4.73-1.27-9.25-3.22-13.74-5.12-2.76-2.67-5.72-5.14-8.25-8.04 3.28-1.23 7.55.92 9.92-2.24z"/><path fill="#cdbea9" d="M215.22 138.11c4.97-.57 2.08 7.01-1.22 7-1-2.92-.6-5.26 1.22-7z"/><path fill="#9fb077" d="M198.99 139.8l4.09-.98c.45 4.37-1.85 8.57-5.5 10.9-3.54-1.87-2.01-8.12 1.41-9.92z"/><path fill="#2a3514" opacity=".68" d="M290.81 140.83c3.44-1.21 6.77-1.11 9.99.29-3.32-.28-6.68-.28-9.99-.29z"/><path fill="#2c2f19" opacity=".72" d="M138.76 150.33c-1.1-2.76-.48-5.72.02-8.55l-.02 8.55z"/><path fill="#525f29" d="M267.18 141.72c4.35 1.46 4.43 8.41 9.78 7.44-1.75 7.04 6.72 8.96 10.25 3.86 5.13-1.94 2.86 9.12 9.05 4.17 2.19-1.49 3.24-1.02 2.85 1.79l-9.3.12c-1.82-.57-3.66-1.1-5.56-1.33-3.44-.64-6.9-.83-10.38-.6 1.81-5.54-3.99-5.58-8.02-6.27 2.98-3.11 2.53-5.26 1.33-9.18z"/><path fill="#1f2510" opacity=".62" d="M302.05 142.02l7.92.15c-1.65 1.79-6.04.85-7.92-.15z"/><path fill="#d6d0bc" d="M165.76 148.23c-3.94-2.65-.26-7.08 3.37-4.32l-3.37 4.32z"/><path fill="#9ca771" d="M190.3 146.07c7.26-3.7 1.84 7.06 1.82 11.34-4.38-2.73 1.63-7.46-1.82-11.34z"/><path fill="#929a6a" d="M209.8 153.23c-2.18-1.7-5.42-3.66-2.36-6.28 1.04 1.82 1.74 4.01 3.7 5.08 8.08 2.75-2.72 4.62-.95 9.67-2.65-.24-5.31-.3-7.9.36 1.43-3.56-1.62-6.23-2.71-8.85 1.16-5.97 5.37.42 5.13 3.64 2.53 2.24 3.71-2.02 5.09-3.62z"/><path fill="#848d4b" d="M211.14 152.03c-.3-2.8.23-5.15 3.63-3.93 1.69 2.6-.57 7.77 4.4 7.94 5.55 4.92 9.19 11.63 11.1 18.71l-.44 15.18c-4.19.53-8.15-.45-6.36-5.53-2.29-2.23-3.65-5.66.36-6.92-1.93-3.25-5.86.77-8.64.84 1.28 1.9 3.84 3.72 2.57 6.3-1.37 1.42-3.88 2.1-3.86 4.43 2.31.36 4.15-.95 5.94-2.19.58 7.31-7.77 4.68-11.69 8.26-3.04 3.09 1.3-5.76-1.67-2.61-3.07 7.59-6.79 19.83 1.72 25.27 3.46 3.02 8.53 2.2 12.72 3.48.66 3.99-6.95-.1-4.86 5.09-3.15-.52-7.27-3.32-9.92-.14-1.83 5.78 7.76 2.95 9.92.14 5.12 2.44 6.99-.79 8.31-4.94 2.64-.21 5.26-.58 7.9-.82a87.22 87.22 0 0 0-1.38 1.34l-.61 6.22c-1.32 5.5-3.28 10.98-7.25 15.19-3.71-3.13-8.15-4.32-12.95-2.22-1.12 3.42 3.17 1.14 5.01 1.24-1.76 3.24-3.9 8.67 1.86 8.31 4.64 3.99-3.57 10.58-7.93 11.66-3.13-2.35-5.35-8.76-10.31-4.65-3.34 4.19 1.62 18.42-6.44 13.45-.39 4.76-4.48 5.87-8.39 7.02.51 2.3 2.22 4.02 3.45 5.96l-1.39 1.2c-3.98-3.13-7.41-7.66-7.71-12.86.9-3.63-5.97-9.5 1.25-10.35 10.47-.29 16.07-11.01 25.61-13.86-1.57-2.02-3.88-5.14-6.55-2.83-2.24 1.68-2.95-1.82-1.25-2.97 2.2-2.29-2.25-1.26-3.53-1.72 2.14-3.16 5.72-3.79 9.29-3.94-1.11-4.83-9.34-2.52-9.86-7.97-.8-3.28-2.54-10.52-7.45-8.02l1.33-6.27c2.09 1.02 4.02 2.33 6.04 3.5 2-2.3 3.47-5.13 6.9-5.15-.17-4.89-5.63-10.08.74-13.6-4.5-1.22-7.85-5.83-12.63-2.19 4.18 1.73 3.82 10.6-1.44 8.44-2.2.67-1.93 4.51-3.07 6.42-1.07 1.97-4.18 2.11-3.57-.72 3.75-2.49 3.13-7.42 2.01-11.19-1.36-4.5 2.73-1.76 5.1-1.19-1-1.97-2.89-4.11-.37-5.73-8.46.43-1.52-8.51-2.46-13.23 1.26.75 2.44 1.62 3.65 2.46 2.26 2.17 4.63 5.19 8.18 4.16-.6 2.36-1.69 4.57-2.26 6.94 3.53-1.74 4.31 5.45 7.03 2.36-1.25-4-2.48-8.29-1.98-12.63 10.73 4.8 13.56-15.02 3.82-17.41 3.07 0 8.73.72 7.43-4.06-1.77-5.05 9.03-6.92.95-9.67z"/><path fill="#42561a" opacity=".88" d="M286.84 148.11c2.86.09 5.68.27 8.53.69-2.79 1.96-5.87.84-8.53-.69z"/><path fill="#5e683b" d="M161.28 163.76c.51-2.95.9-6.05 2.3-8.73 1.13.87 5.47.39 3.71 2.42-3.54 4.04 2.52 8.06 1.26 12.51-1.54 5.98 7.63-3.55 6.63 2.09-4.27 2.75-.9 10.27 1.59 4.65l.85.38.33.9.03 1.02c-6.34.12-6.17 5.89 1.96 4.2-2 4.99-4.79 16 2.11 16.83 1.12 3.77 1.74 8.7-2.01 11.19-.61 2.83 2.5 2.69 3.57.72.67 1.41 2.21 1.85 3.46 2.58l-1.33 6.27c-1.67 2.41 2.87 4.24-.96 4.95-4.38.95 2.58 2.91.07 5.08-3.11 2.73 4.18 4.1 1.18 6.4-4.02-3.22-7.66-.24-9.06 3.82-1.16 3.05 7.51 5.52 3.23 6.26-3.45 1.61-3.55-5.02-7.36-2.82-4.27 1.72-15.69-4.16-14.06 4.39-.28 5.94-10.2-3.16-4.61-3.65 4.14-4.85-4.28-14.12-11.05-11.79-1.5-1.7-3.45-5.89-.65-7.19 1.1 1.39 2.18 2.82 3.53 3.98.85-4.2-2.64-7.05-4.87-10.08 2.95 1.18 6.85.11 7.58-3.31.92-5.7 8.21-8.5 13.19-6.77 2.51 2.37 5.78 3.51 9.16 3.92.88-3.24-1.91-4.53-4.17-5.92 2.21-2.39 4.51-4.91.11-6.26.27-4.05.92-7.75-3-10.69 2.38.65 4.87.94 7.14-.28-3.87-7.24-12.25 4.22-15.82-2.14.06-3.15 1.81-9.37-2.39-10.69-3.47-1.05-2.94 2.97-3.97 5.09-2.02-2.51-9.81-5.07-5.32-8.37 1.64-1 3.86 2.57 5.79.9 2.23-5.37 7.64-8.22 11.85-11.86M177 216c-1.69 4.89 1.24 9.43 6.79 6.91 2.8-3.7-2.84-9.12-6.79-6.91z"/><path fill="#72763d" d="M184.88 157.13c2.41.14 4.82.44 7.24.28 2.04 1.58 7.63 3.27 4.76 6.41-2.92 3.64 5.82 1.42 5.41-1.76 2.59-.66 5.25-.6 7.9-.36 1.3 4.78-4.36 4.06-7.43 4.06-5.15-.94-7.36 2.94-2.64 5.73-1.9 1.79-3.99 4.29-2.04 6.86l-1.11 2.65c-2.29-1.6-8.6-1.89-9 1.34l-3.65-2.46c.94 4.72-6 13.66 2.46 13.23-2.52 1.62-.63 3.76.37 5.73-2.37-.57-6.46-3.31-5.1 1.19-6.9-.83-4.11-11.84-2.11-16.83-8.13 1.69-8.3-4.08-1.96-4.2-.63 2.79 1.15 3.47 3.59 3.09-1.72-4.64 4.25-8.35 8.38-7.35-2.16-3.85-2.02-8.59-.06-12.5-2.25-1.08-4.82-2.25-5.01-5.11z"/><path fill="#262e10" opacity=".66" d="M273.87 157.17c3.48-.23 6.94-.04 10.38.6-3.47.27-6.98.24-10.38-.6z"/><path fill="#313415" opacity=".64" d="M289.81 159.1l9.3-.12 3.99.1c-2.51 2.85-8.6-.28-11.96.93l-1.33-.91z"/><path fill="#8b7228" d="M200.12 171.49c-4.72-2.79-2.51-6.67 2.64-5.73 9.74 2.39 6.91 22.21-3.82 17.41l-1.97-2.17 1.11-2.65c5.21-.22 7.87-4.66 2.04-6.86z"/><path fill="#ab9574" d="M198.08 178.35c-1.95-2.57.14-5.07 2.04-6.86 5.83 2.2 3.17 6.64-2.04 6.86z"/><path fill="#39431c" opacity=".6" d="M230.27 174.75c.89 5.34.69 10.76.89 16.15l-1.33-.97c.23-5.05.31-10.12.44-15.18z"/><path fill="#6f7e40" d="M177.62 177.08c1.87-3.35 4.01 1.92.33.9l-.33-.9z"/><path fill="#5a662e" d="M215.19 178.32c2.78-.07 6.71-4.09 8.64-.84-4.01 1.26-2.65 4.69-.36 6.92-1.79 5.08 2.17 6.06 6.36 5.53l1.33.97a159.36 159.36 0 0 0 11.77-.11c1.95.82 4.12.69 6.06-.11 5.33 2.37 10.47 5.29 14.88 9.13-3.34 1.54-4.22 10.07-.8 11.62-9.08 6.79-20.16 7.24-30.8 9.16l-7.9.82c-1.32 4.15-3.19 7.38-8.31 4.94-2.09-5.19 5.52-1.1 4.86-5.09-4.19-1.28-9.26-.46-12.72-3.48-8.51-5.44-4.79-17.68-1.72-25.27 2.97-3.15-1.37 5.7 1.67 2.61 3.92-3.58 12.27-.95 11.69-8.26-1.79 1.24-3.63 2.55-5.94 2.19-.02-2.33 2.49-3.01 3.86-4.43 1.27-2.58-1.29-4.4-2.57-6.3m15.22 22.37c-.62-3.4-6.54-3.48-6.45.29.58 3.93-4.78 6.06-4.21.97-1.87 2.11-6.31 8.54-3.11 11.01 0-2.38 1.88-1.3 3.33-.95-1.03-1.53-2.35-3.07-2.01-5.06 4.69-.69 2.51 7.34 5.94 2-1.35 5.02 4.29 5.14 6.9 7.96 1.05-2.66 3-4 5.83-3.84.48 2.47 2.1 8.58 4.36 1.91 1.69-6.84 3.76.23 6.76.06-.68-4.16 4.82-4.01 2.28.02 8.73-.63 11.97-14.75 3.23-15.91-1.36-.61-5.35 1.94-3.89-.81 1.16-4.63-7.68.91-9.02-.93-4.33.41-1.94 6.27-5.34 7.75-.07-3.62-.05-7.84 3.02-10.31-4.25-.9-4.26 5.87-7.62 5.84z"/><path fill="#9aa767" d="M187.97 182.34c.4-3.23 6.71-2.94 9-1.34l1.97 2.17c-.5 4.34.73 8.63 1.98 12.63-2.72 3.09-3.5-4.1-7.03-2.36.57-2.37 1.66-4.58 2.26-6.94-3.55 1.03-5.92-1.99-8.18-4.16z"/><path fill="#474b25" d="M127.08 197.85c-1.86-4.8-1.32-10.14-.32-15.07.09 5.44-.14 11.23 4.38 15.21 4.71 1.48 5.76-5.8 10.66-3.37 2.99-3.28 5.01 2.09 8.3 2.28 5.36 1.1 8.72 6.29 13.96 7.22-.61-1.75-1.46-3.4-2.14-5.12 1.74.85 3.42 1.81 5.08 2.8 4.4 1.35 2.1 3.87-.11 6.26 2.26 1.39 5.05 2.68 4.17 5.92-3.38-.41-6.65-1.55-9.16-3.92-3.31-3.71-5.86-8.73-10.98-10.2-.21 3.8 3.25 6.05 5.31 8.77-3.7-.98-5.99 1.14-8.13 3.36-3.37-4.55-9.74-3.83-14.04-7.14.28 2.42.83 4.81.94 7.25-2.41.28-3.66-1.91-5.11-3.39 2.54-2.69 4.42-6.5-.42-7.83l-2.39-3.03z"/><path fill="#1e2610" opacity=".55" d="M242.93 190.79c1.51-1.84 3.53-1.88 6.06-.11-1.94.8-4.11.93-6.06.11z"/><path fill="#96a45f" d="M188.12 197.08c4.78-3.64 8.13.97 12.63 2.19-6.37 3.52-.91 8.71-.74 13.6-3.43.02-4.9 2.85-6.9 5.15-2.02-1.17-3.95-2.48-6.04-3.5-1.25-.73-2.79-1.17-3.46-2.58 1.14-1.91.87-5.75 3.07-6.42 5.26 2.16 5.62-6.71 1.44-8.44z"/><path fill="#758746" d="M230.41 200.69c3.36.03 3.37-6.74 7.62-5.84-3.07 2.47-3.09 6.69-3.02 10.31 3.4-1.48 1.01-7.34 5.34-7.75 1.34 1.84 10.18-3.7 9.02.93-1.46 2.75 2.53.2 3.89.81-4.69 3.34-9.6 5.38-14.64 1.8.1 4.27-2.64 8.01-1.99 12.12-2.83-.16-4.78 1.18-5.83 3.84-2.61-2.82-8.25-2.94-6.9-7.96-3.43 5.34-1.25-2.69-5.94-2-.34 1.99.98 3.53 2.01 5.06-1.45-.35-3.33-1.43-3.33.95-3.2-2.47 1.24-8.9 3.11-11.01-.57 5.09 4.79 2.96 4.21-.97-.09-3.77 5.83-3.69 6.45-.29z"/><path fill="#95a660" d="M253.26 199.15c8.74 1.16 5.5 15.28-3.23 15.91 2.54-4.03-2.96-4.18-2.28-.02-3 .17-5.07-6.9-6.76-.06-2.26 6.67-3.88.56-4.36-1.91-.65-4.11 2.09-7.85 1.99-12.12 5.04 3.58 9.95 1.54 14.64-1.8z"/><path fill="#50562d" d="M150.92 199.86c5.12 1.47 7.67 6.49 10.98 10.2-4.98-1.73-12.27 1.07-13.19 6.77-.73 3.42-4.63 4.49-7.58 3.31 2.23 3.03 5.72 5.88 4.87 10.08-1.35-1.16-2.43-2.59-3.53-3.98-2.8 1.3-.85 5.49.65 7.19 6.77-2.33 15.19 6.94 11.05 11.79-5.59.49 4.33 9.59 4.61 3.65-1.63-8.55 9.79-2.67 14.06-4.39l1.29 1.53c-3.72 1.09-11.66 2.41-8.82 8.57 2.01 4.07 12.6 11.19 2.76 9.32-4.86-2.81-10.25-4.64-15.79-5.51-2.2 2.09-4.35 4.26-6.37 6.54-3.24-1.7-8.36-3.32-2.7-5.82.39-3.11-.58-12.08-5.87-9.69-3.06 1.98-5.44-7.14-6.64-1.3-1.36-3.29-1.61-6.89-2.57-10.28 1.03-5.2.44-10.04-2.42-14.57.17-1.76.4-3.52.64-5.28.59-3.29 1.53-6.57 3.54-9.28 1.45 1.48 2.7 3.67 5.11 3.39-.11-2.44-.66-4.83-.94-7.25 4.3 3.31 10.67 2.59 14.04 7.14 2.14-2.22 4.43-4.34 8.13-3.36-2.06-2.72-5.52-4.97-5.31-8.77z"/><path fill="#7e8945" opacity=".95" d="M263.07 211.43c-3.42-1.55-2.54-10.08.8-11.62l1.41 1.28.15.88c-.82 1.96-1.19 4.31.11 6.18-.77 1.13-1.48 2.33-2.47 3.28z"/><path fill="#42492a" opacity=".56" d="M265.43 201.97l.8 5.99-.69.19c-1.3-1.87-.93-4.22-.11-6.18z"/><path fill="#7c8852" d="M177 216c3.95-2.21 9.59 3.21 6.79 6.91-5.55 2.52-8.48-2.02-6.79-6.91z"/><path fill="#99a35d" d="M185.74 220.79c4.91-2.5 6.65 4.74 7.45 8.02.52 5.45 8.75 3.14 9.86 7.97-3.57.15-7.15.78-9.29 3.94-3.79 4.43-13.74 1.58-7.73-3.5 3-2.3-4.29-3.67-1.18-6.4 2.51-2.17-4.45-4.13-.07-5.08 3.83-.71-.71-2.54.96-4.95z"/><path fill="#54572d" opacity=".72" d="M230.28 228.15l.61-6.22-.61 6.22z"/><path fill="#71652c" d="M206.14 226.21c2.65-3.18 6.77-.38 9.92.14-2.16 2.81-11.75 5.64-9.92-.14z"/><path fill="#80813a" d="M176.97 241.04c1.4-4.06 5.04-7.04 9.06-3.82-6.01 5.08 3.94 7.93 7.73 3.5 1.28.46 5.73-.57 3.53 1.72-1.7 1.15-.99 4.65 1.25 2.97 2.67-2.31 4.98.81 6.55 2.83-9.54 2.85-15.14 13.57-25.61 13.86-2.89-5.12-5.48-10.46-5.35-16.09l-1.29-1.53c3.81-2.2 3.91 4.43 7.36 2.82 4.28-.74-4.39-3.21-3.23-6.26m1.04 8.85c-1.19.14-.26 7.71 2.37 5.55 3.37-.6-.21-5.59-2.37-5.55z"/><path fill="#71642a" opacity=".97" d="M210.08 241.12c4.8-2.1 9.24-.91 12.95 2.22-2.08 2.39-4.36 4.64-6.08 7.33-5.76.36-3.62-5.07-1.86-8.31-1.84-.1-6.13 2.18-5.01-1.24z"/><path fill="#596532" d="M130.7 248.12c1.2-5.84 3.58 3.28 6.64 1.3 5.29-2.39 6.26 6.58 5.87 9.69-5.66 2.5-.54 4.12 2.7 5.82l-.9 2.1c-1 2.81-.72 5.96-1.25 8.89-3.61-.02-7.19-.59-10.77-.91l-2.28-2.87-.59-5.99-1.68-3.02c1.32-1.47 1.34-3.73.1-5.24l.67-2.68c1.58-2.16 3.48-4.51 1.49-7.09z"/><path fill="#685e33" d="M174.13 246.01c-.13 5.63 2.46 10.97 5.35 16.09-7.22.85-.35 6.72-1.25 10.35-4.91 2.23-5.44-1.77-6.76-5.44-1.05-1.13-2.24-2.11-3.4-3.11 9.84 1.87-.75-5.25-2.76-9.32-2.84-6.16 5.1-7.48 8.82-8.57z"/><path fill="#c9ba9f" d="M178.01 249.89c2.16-.04 5.74 4.95 2.37 5.55-2.63 2.16-3.56-5.41-2.37-5.55z"/><path fill="#797631" opacity=".98" d="M198.71 257.68c4.96-4.11 7.18 2.3 10.31 4.65-1.82 11.26-11.89 17.77-21.69 21.78-1.23-1.94-2.94-3.66-3.45-5.96 3.91-1.15 8-2.26 8.39-7.02 8.06 4.97 3.1-9.26 6.44-13.45m3.75 9.75c2-1.67 3.07-4 2.46-6.61-4.35-4.22-6.54 10.94-2.46 6.61z"/><path fill="#222615" opacity=".56" d="M128.44 263.13l.1-5.24c1.24 1.51 1.22 3.77-.1 5.24z"/><path fill="#6d5c36" d="M152.28 258.39c5.54.87 10.93 2.7 15.79 5.51h-3.21c-8.05-1.95-6.26 10.6-2.75 14.57 3.91-1.41 4.39 1.16 3.88 4.61-10.5 1.91-15.97-8.79-20.98-16.05l.9-2.1c2.02-2.28 4.17-4.45 6.37-6.54z"/><path fill="#a08c6b" d="M202.46 267.43c-4.08 4.33-1.89-10.83 2.46-6.61-1.16 1.98-6.05 4.65-2.46 6.61z"/><path fill="#dbcfbc" d="M202.46 267.43c-3.59-1.96 1.3-4.63 2.46-6.61.61 2.61-.46 4.94-2.46 6.61z"/><path fill="#7d793d" d="M162.11 278.47c-3.51-3.97-5.3-16.52 2.75-14.57-1.07 2.73.04 5.65 1.19 8.17 2.06-1.37 3.96-3.04 5.42-5.06 1.32 3.67 1.85 7.67 6.76 5.44.3 5.2 3.73 9.73 7.71 12.86-4.19 2.27-5.14 7.47-8.68 10.19-4.59-.24-8.68-2.88-11.53-6.38 2.77-.39 5.62-.43 8.43-.5-2.2-2.71-4.39-5.34-8.17-5.54.51-3.45.03-6.02-3.88-4.61z"/><path fill="#bcb097" d="M164.86 263.9h3.21l3.4 3.11c-1.46 2.02-3.36 3.69-5.42 5.06-1.15-2.52-2.26-5.44-1.19-8.17z"/><path fill="#1f2111" opacity=".51" d="M130.12 266.15l.59 5.99-.59-5.99z"/><path fill="#505326" d="M143.76 275.92c.53-2.93.25-6.08 1.25-8.89 5.01 7.26 10.48 17.96 20.98 16.05 3.78.2 5.97 2.83 8.17 5.54-2.81.07-5.66.11-8.43.5 2.85 3.5 6.94 6.14 11.53 6.38-6.59.44-13.56-1.79-19.96.8-3.9 2.21-7.12-1.49-9.25-4.32-2.33-2.07-6.3-.41-9.21-.86-1.52-1.06-3.03-2.34-3.84-4.03-.41-4.03 1-8.83-2.01-12.08 3.58.32 7.16.89 10.77.91z"/><path fill="#252410" opacity=".62" d="M138.84 291.12c2.91.45 6.88-1.21 9.21.86-3.02-.29-6.41.41-9.21-.86z"/></svg>