<?xml version="1.0" encoding="UTF-8" ?>
<!DOCTYPE svg PUBLIC "-//W3C//DTD SVG 1.1//EN" "http://www.w3.org/Graphics/SVG/1.1/DTD/svg11.dtd">
<svg width="384pt" height="384pt" viewBox="0 0 384 384" version="1.1" xmlns="http://www.w3.org/2000/svg">
<g id="#00000011">
</g>
<g id="#00000018">
</g>
<g id="#00000021">
</g>
<g id="#585e32fd">
<path fill="#585e32" opacity="1.00" d=" M 177.17 88.18 C 184.34 83.94 191.38 90.88 198.12 92.62 C 195.14 92.46 196.77 95.31 196.88 97.06 C 195.19 95.68 192.26 90.90 190.94 94.85 C 188.63 99.93 181.46 97.97 177.70 101.33 C 175.02 102.79 176.78 98.50 174.98 97.91 C 171.39 95.24 163.76 97.55 165.60 102.72 C 163.07 103.92 160.32 104.66 157.92 106.13 C 164.56 109.59 163.80 118.06 161.06 124.11 C 155.19 125.50 161.54 129.82 161.06 124.11 C 162.97 123.81 167.30 125.03 164.99 121.98 C 162.68 117.37 168.26 113.12 168.40 108.45 C 172.88 108.59 178.87 106.17 182.06 109.90 C 178.69 110.84 171.72 109.67 173.12 114.87 C 174.58 118.26 174.81 126.15 180.16 124.38 C 180.60 124.26 181.49 124.02 181.93 123.90 C 186.09 123.53 181.38 128.79 184.61 130.10 C 183.85 124.12 190.53 121.43 194.33 125.71 C 186.75 122.93 186.70 128.74 185.72 133.57 C 182.28 132.76 179.92 135.63 177.95 138.01 C 179.03 142.08 182.95 144.08 186.90 144.26 C 183.79 151.45 179.04 142.84 174.02 146.20 C 173.62 148.65 175.09 150.79 175.80 153.03 C 174.79 155.08 171.84 156.91 174.08 159.22 C 175.92 165.02 180.71 168.18 185.74 171.03 C 186.66 168.97 187.10 163.75 189.05 167.97 C 192.03 171.39 186.81 172.81 185.45 175.42 C 187.05 177.55 188.46 180.01 187.98 182.79 C 184.59 182.08 177.74 186.74 176.78 181.05 C 172.62 178.18 168.19 183.14 163.80 183.88 C 165.30 182.30 166.79 180.71 168.36 179.19 C 175.20 176.59 161.16 175.01 165.23 170.31 C 168.48 164.33 159.03 166.67 155.79 167.70 C 151.05 168.80 145.69 175.52 141.17 170.89 C 139.36 169.28 138.49 173.37 137.12 174.30 L 136.15 174.09 C 136.22 173.60 136.36 172.60 136.42 172.11 C 132.67 163.73 140.74 156.65 138.97 147.90 L 139.09 147.16 C 139.47 144.83 139.85 142.50 140.25 140.18 C 145.12 135.14 140.98 128.78 140.85 122.92 C 142.75 119.86 143.20 116.27 143.88 112.80 C 147.73 107.33 157.16 105.78 155.56 97.43 C 156.91 90.38 166.18 92.20 171.20 91.18 C 173.44 90.79 175.44 89.60 177.17 88.18 Z" />
</g>
<g id="#7d853afe">
<path fill="#7d853a" opacity="1.00" d=" M 190.94 94.85 C 192.26 90.90 195.19 95.68 196.88 97.06 C 196.77 95.31 195.14 92.46 198.12 92.62 C 201.77 94.28 205.77 95.94 207.04 100.15 C 211.52 106.90 200.12 106.73 200.97 112.16 C 203.65 110.68 205.97 108.65 209.04 110.66 C 208.92 114.36 206.99 117.04 203.10 117.02 C 203.21 111.93 199.53 115.56 196.93 116.90 C 197.59 111.95 191.94 110.78 189.83 107.08 C 188.47 105.01 186.64 106.63 185.59 108.04 C 182.84 105.96 179.84 104.07 177.70 101.33 C 181.46 97.97 188.63 99.93 190.94 94.85 Z" />
</g>
<g id="#6f793eff">
<path fill="#6f793e" opacity="1.00" d=" M 165.60 102.72 C 163.76 97.55 171.39 95.24 174.98 97.91 C 176.78 98.50 175.02 102.79 177.70 101.33 C 179.84 104.07 182.84 105.96 185.59 108.04 C 185.78 112.93 189.96 116.65 188.50 121.82 C 191.52 125.59 194.73 118.36 198.92 120.50 C 196.63 128.58 199.79 124.67 201.58 123.32 C 204.00 127.22 205.16 133.02 210.71 133.56 C 212.82 133.25 212.53 135.61 212.97 137.00 C 209.74 136.68 205.64 135.82 207.08 139.90 C 207.33 145.53 214.84 140.73 216.93 144.72 C 212.22 145.60 214.09 150.11 218.13 150.04 C 217.34 151.51 215.12 150.87 213.75 151.40 C 210.68 147.34 204.76 148.09 200.96 150.52 C 205.57 151.25 205.16 154.49 202.23 157.15 C 201.91 155.41 202.06 150.82 200.60 154.51 C 200.19 158.40 197.72 154.40 195.74 155.82 C 194.84 154.85 194.29 153.37 192.97 152.94 C 190.02 153.37 192.90 158.36 189.31 158.16 C 191.77 149.46 184.75 153.97 181.56 155.37 C 177.85 154.80 177.29 159.06 174.08 159.22 C 171.84 156.91 174.79 155.08 175.80 153.03 C 175.09 150.79 173.62 148.65 174.02 146.20 C 179.04 142.84 183.79 151.45 186.90 144.26 C 182.95 144.08 179.03 142.08 177.95 138.01 C 179.92 135.63 182.28 132.76 185.72 133.57 C 186.70 128.74 186.75 122.93 194.33 125.71 C 190.53 121.43 183.85 124.12 184.61 130.10 C 181.38 128.79 186.09 123.53 181.93 123.90 L 182.36 123.21 C 186.74 120.20 187.15 111.99 182.06 109.90 C 178.87 106.17 172.88 108.59 168.40 108.45 C 168.26 113.12 162.68 117.37 164.99 121.98 C 167.30 125.03 162.97 123.81 161.06 124.11 C 163.80 118.06 164.56 109.59 157.92 106.13 C 160.32 104.66 163.07 103.92 165.60 102.72 Z" />
</g>
<g id="#6b642efb">
<path fill="#6b642e" opacity="1.00" d=" M 207.04 100.15 L 207.86 100.33 C 209.02 101.58 211.27 101.71 212.06 99.97 C 214.09 100.04 216.14 100.21 218.10 100.80 C 218.94 104.80 222.13 105.83 226.15 104.41 C 222.75 105.18 224.63 113.56 221.12 109.80 C 221.17 108.46 221.43 107.14 221.62 105.82 C 218.24 109.18 213.66 110.21 209.04 110.66 C 205.97 108.65 203.65 110.68 200.97 112.16 C 200.12 106.73 211.52 106.90 207.04 100.15 Z" />
</g>
<g id="#2f29149c">
<path fill="#2f2914" opacity="0.61" d=" M 207.86 100.33 C 209.22 99.85 210.62 99.73 212.06 99.97 C 211.27 101.71 209.02 101.58 207.86 100.33 Z" />
</g>
<g id="#00000029">
</g>
<g id="#7d7c3afb">
<path fill="#7d7c3a" opacity="1.00" d=" M 221.12 109.80 C 224.63 113.56 222.75 105.18 226.15 104.41 C 228.22 107.44 228.32 111.67 232.99 111.75 C 229.92 113.08 231.76 118.42 227.90 119.46 C 225.52 118.99 224.64 121.41 223.96 123.19 C 227.75 123.25 231.17 118.41 234.72 121.30 C 236.31 122.60 238.22 123.24 240.11 122.09 C 237.85 125.45 238.48 128.18 242.18 129.94 C 237.09 129.29 233.70 123.92 228.15 125.53 C 225.90 125.27 222.89 126.25 222.04 123.44 C 222.29 120.89 222.71 118.33 222.01 115.84 C 221.66 105.83 208.93 121.07 209.04 110.66 C 213.66 110.21 218.24 109.18 221.62 105.82 C 221.43 107.14 221.17 108.46 221.12 109.80 Z" />
</g>
<g id="#8d9959ff">
<path fill="#8d9959" opacity="1.00" d=" M 185.59 108.04 C 186.64 106.63 188.47 105.01 189.83 107.08 C 191.94 110.78 197.59 111.95 196.93 116.90 C 199.53 115.56 203.21 111.93 203.10 117.02 C 206.99 117.04 208.92 114.36 209.04 110.66 C 208.93 121.07 221.66 105.83 222.01 115.84 C 217.12 115.28 219.40 121.80 222.04 123.44 C 222.89 126.25 225.90 125.27 228.15 125.53 C 233.70 123.92 237.09 129.29 242.18 129.94 C 243.63 130.84 245.05 131.80 246.40 132.86 C 245.99 134.14 245.82 135.45 245.91 136.79 C 245.49 136.96 244.65 137.30 244.24 137.47 C 239.76 133.87 233.76 134.13 228.91 131.25 C 226.04 132.11 225.10 136.34 225.79 139.19 C 221.79 132.54 217.65 142.16 212.97 137.00 C 212.53 135.61 212.82 133.25 210.71 133.56 C 205.16 133.02 204.00 127.22 201.58 123.32 C 199.79 124.67 196.63 128.58 198.92 120.50 C 194.73 118.36 191.52 125.59 188.50 121.82 C 189.96 116.65 185.78 112.93 185.59 108.04 Z" />
</g>
<g id="#897642ff">
<path fill="#897642" opacity="1.00" d=" M 173.12 114.87 C 171.72 109.67 178.69 110.84 182.06 109.90 C 187.15 111.99 186.74 120.20 182.36 123.21 C 185.19 115.59 175.44 118.46 180.16 124.38 C 174.81 126.15 174.58 118.26 173.12 114.87 Z" />
</g>
<g id="#959a53f9">
<path fill="#959a53" opacity="0.98" d=" M 227.90 119.46 C 231.76 118.42 229.92 113.08 232.99 111.75 C 236.60 114.16 240.42 117.25 240.11 122.09 C 238.22 123.24 236.31 122.60 234.72 121.30 C 231.17 118.41 227.75 123.25 223.96 123.19 C 224.64 121.41 225.52 118.99 227.90 119.46 Z" />
</g>
<g id="#bbab8dff">
<path fill="#bbab8d" opacity="1.00" d=" M 222.04 123.44 C 219.40 121.80 217.12 115.28 222.01 115.84 C 222.71 118.33 222.29 120.89 222.04 123.44 Z" />
</g>
<g id="#c3b398ff">
<path fill="#c3b398" opacity="1.00" d=" M 180.16 124.38 C 175.44 118.46 185.19 115.59 182.36 123.21 L 181.93 123.90 C 181.49 124.02 180.60 124.26 180.16 124.38 Z" />
</g>
<g id="#00000034">
</g>
<g id="#5f7240ff">
<path fill="#5f7240" opacity="1.00" d=" M 161.06 124.11 C 155.19 125.50 161.54 129.82 161.06 124.11 Z" />
</g>
<g id="#76722efe">
<path fill="#76722e" opacity="1.00" d=" M 225.79 139.19 C 225.10 136.34 226.04 132.11 228.91 131.25 C 233.76 134.13 239.76 133.87 244.24 137.47 C 243.93 137.60 243.31 137.88 243.01 138.01 C 241.25 138.01 237.74 138.01 235.99 138.01 L 235.19 137.89 C 233.21 138.38 227.82 135.38 227.11 137.99 C 227.10 138.46 227.07 139.41 227.06 139.88 C 224.66 141.78 222.46 138.85 219.92 138.91 C 221.22 144.07 225.20 150.14 222.19 155.20 C 219.23 157.67 226.35 160.71 227.00 157.01 C 228.70 152.94 232.53 156.24 234.02 158.65 C 229.26 158.31 233.38 165.38 227.41 163.93 C 227.34 157.98 223.01 164.52 220.16 161.93 C 217.25 159.20 215.97 154.79 213.75 151.40 C 215.12 150.87 217.34 151.51 218.13 150.04 C 219.80 148.17 218.07 146.31 216.93 144.72 C 214.84 140.73 207.33 145.53 207.08 139.90 C 205.64 135.82 209.74 136.68 212.97 137.00 C 217.65 142.16 221.79 132.54 225.79 139.19 Z" />
</g>
<g id="#43411887">
</g>
<g id="#00000014">
</g>
<g id="#171c0d7c">
</g>
<g id="#252d14a1">
<path fill="#252d14" opacity="0.63" d=" M 235.99 138.01 C 237.74 138.01 241.25 138.01 243.01 138.01 C 241.57 140.79 238.13 139.63 235.99 138.01 Z" />
</g>
<g id="#00000042">
</g>
<g id="#868e4cfe">
<path fill="#868e4c" opacity="1.00" d=" M 219.92 138.91 C 222.46 138.85 224.66 141.78 227.06 139.88 C 232.16 143.54 235.02 149.18 237.27 154.87 C 236.63 156.25 236.44 158.11 237.86 159.10 C 237.97 161.13 238.08 163.15 238.23 165.17 C 236.00 167.41 234.47 161.89 232.17 163.90 C 230.33 168.37 223.62 167.26 220.27 165.36 C 216.05 173.52 216.26 185.12 222.76 192.24 C 225.84 194.15 229.61 194.67 232.81 196.39 C 233.40 199.89 226.62 203.16 224.14 199.81 C 220.90 195.95 216.46 202.55 221.27 204.53 C 225.54 203.19 234.98 205.57 236.83 201.35 C 231.15 201.74 236.28 194.70 239.34 197.86 C 238.58 206.43 238.22 215.34 234.24 223.15 C 232.40 223.56 230.64 224.22 228.91 224.95 C 230.64 222.23 231.93 218.98 227.52 218.68 C 225.30 217.17 222.64 214.65 220.86 218.06 C 215.26 218.03 208.28 213.98 203.93 218.81 C 202.01 218.79 202.70 214.67 202.52 212.91 C 201.19 213.93 199.83 215.51 198.51 213.56 C 196.54 214.83 194.66 216.63 192.17 215.46 C 188.96 213.20 187.27 207.50 192.25 206.58 C 191.84 201.74 196.36 204.21 198.02 206.59 C 193.44 215.55 207.98 211.57 210.29 206.29 C 210.96 201.05 206.22 197.57 201.04 197.87 C 199.09 196.64 196.33 192.93 200.32 192.60 C 200.80 189.27 200.44 185.75 201.86 182.63 C 204.94 181.52 207.06 183.81 209.22 185.59 C 213.00 185.56 216.65 179.62 210.78 181.68 C 214.34 179.43 209.80 177.56 208.71 175.25 C 207.00 173.37 209.57 171.16 210.85 169.79 C 210.92 171.62 209.57 174.08 211.80 175.08 C 214.59 171.42 209.90 168.64 209.54 164.98 C 204.74 166.95 209.97 176.12 204.22 174.88 C 200.88 170.71 200.18 178.43 199.79 180.76 C 192.85 183.77 198.57 176.55 198.51 172.35 C 200.12 168.18 195.91 167.98 195.42 164.60 C 194.73 161.64 195.28 158.72 195.74 155.82 C 197.72 154.40 200.19 158.40 200.60 154.51 C 202.06 150.82 201.91 155.41 202.23 157.15 C 205.16 154.49 205.57 151.25 200.96 150.52 C 204.76 148.09 210.68 147.34 213.75 151.40 C 215.97 154.79 217.25 159.20 220.16 161.93 C 223.01 164.52 227.34 157.98 227.41 163.93 C 233.38 165.38 229.26 158.31 234.02 158.65 C 232.53 156.24 228.70 152.94 227.00 157.01 C 226.35 160.71 219.23 157.67 222.19 155.20 C 225.20 150.14 221.22 144.07 219.92 138.91 M 209.24 162.34 C 209.59 167.06 215.78 159.46 209.24 162.34 M 211.95 164.93 C 211.43 166.73 215.16 170.77 215.42 167.41 C 216.87 165.29 213.17 165.54 211.95 164.93 Z" />
</g>
<g id="#00000053">
</g>
<g id="#bcaa8eff">
<path fill="#bcaa8e" opacity="1.00" d=" M 218.13 150.04 C 214.09 150.11 212.22 145.60 216.93 144.72 C 218.07 146.31 219.80 148.17 218.13 150.04 Z" />
</g>
<g id="#0101017b">
</g>
<g id="#00000063">
</g>
<g id="#60693dff">
<path fill="#60693d" opacity="1.00" d=" M 181.56 155.37 C 184.75 153.97 191.77 149.46 189.31 158.16 C 192.90 158.36 190.02 153.37 192.97 152.94 C 194.29 153.37 194.84 154.85 195.74 155.82 C 195.28 158.72 194.73 161.64 195.42 164.60 C 195.91 167.98 200.12 168.18 198.51 172.35 C 198.57 176.55 192.85 183.77 199.79 180.76 C 200.47 181.39 201.16 182.01 201.86 182.63 C 200.44 185.75 200.80 189.27 200.32 192.60 C 196.33 192.93 199.09 196.64 201.04 197.87 C 193.10 200.11 206.00 203.98 198.02 206.59 C 196.36 204.21 191.84 201.74 192.25 206.58 C 187.27 207.50 188.96 213.20 192.17 215.46 C 189.25 220.96 184.95 208.60 184.31 214.88 C 179.71 213.11 175.03 215.36 170.40 215.50 C 169.34 218.61 168.98 222.99 165.17 223.93 C 162.24 221.77 161.03 217.28 165.72 216.51 C 163.83 213.01 166.18 207.99 161.79 206.18 C 159.33 202.96 154.80 208.50 152.80 205.19 C 150.06 203.05 152.92 199.56 153.51 196.95 C 153.72 199.40 155.59 200.76 157.89 201.14 C 158.13 197.79 155.52 193.21 159.59 191.56 C 163.14 190.21 160.28 184.72 163.80 183.88 C 168.19 183.14 172.62 178.18 176.78 181.05 C 177.74 186.74 184.59 182.08 187.98 182.79 C 188.46 180.01 187.05 177.55 185.45 175.42 C 186.81 172.81 192.03 171.39 189.05 167.97 C 187.10 163.75 186.66 168.97 185.74 171.03 C 180.71 168.18 175.92 165.02 174.08 159.22 C 177.29 159.06 177.85 154.80 181.56 155.37 M 195.29 183.27 C 189.48 184.69 192.59 194.12 198.75 190.89 C 201.46 187.72 199.61 182.58 195.29 183.27 Z" />
</g>
<g id="#454c1f97">
</g>
<g id="#00000047">
</g>
<g id="#9faf79ff">
<path fill="#9faf79" opacity="1.00" d=" M 209.24 162.34 C 215.78 159.46 209.59 167.06 209.24 162.34 Z" />
</g>
<g id="#5c682efd">
<path fill="#5c682e" opacity="1.00" d=" M 232.17 163.90 C 234.47 161.89 236.00 167.41 238.23 165.17 C 239.11 165.83 239.96 166.51 240.89 167.11 C 243.45 168.62 246.63 168.09 249.31 167.28 C 251.26 167.21 253.12 167.84 254.99 168.31 C 257.45 169.89 259.79 170.00 262.00 168.65 C 266.73 171.08 272.70 172.04 276.04 176.59 C 272.78 179.12 274.32 184.02 274.92 187.49 C 272.89 189.38 270.44 190.70 268.07 192.10 C 268.26 190.32 268.50 188.54 268.75 186.76 C 270.90 184.78 272.76 182.37 272.14 179.24 C 270.37 173.77 263.17 175.84 261.35 171.30 C 256.01 169.36 250.96 171.23 250.53 177.10 C 247.92 175.39 249.96 166.88 247.84 171.89 C 246.65 177.08 239.54 168.96 238.29 174.29 C 236.78 178.01 232.64 179.13 233.68 173.81 C 230.14 177.44 226.48 184.41 232.16 187.73 C 236.30 186.92 237.52 183.30 238.52 179.70 C 236.67 185.28 242.73 186.53 243.53 191.00 C 245.34 189.30 246.11 186.86 247.64 184.95 C 249.88 188.24 250.41 197.32 253.88 190.23 C 257.00 190.62 259.99 189.92 262.93 188.92 C 263.16 190.82 260.88 194.34 264.08 194.38 C 261.49 196.23 258.31 196.16 255.25 195.84 C 252.09 195.35 248.79 194.41 245.70 195.67 C 243.55 196.30 241.48 197.19 239.34 197.86 C 236.28 194.70 231.15 201.74 236.83 201.35 C 234.98 205.57 225.54 203.19 221.27 204.53 C 216.46 202.55 220.90 195.95 224.14 199.81 C 226.62 203.16 233.40 199.89 232.81 196.39 C 229.61 194.67 225.84 194.15 222.76 192.24 C 216.26 185.12 216.05 173.52 220.27 165.36 C 223.62 167.26 230.33 168.37 232.17 163.90 Z" />
</g>
<g id="#0000003c">
</g>
<g id="#9aa963ff">
<path fill="#9aa963" opacity="1.00" d=" M 204.22 174.88 C 209.97 176.12 204.74 166.95 209.54 164.98 C 209.90 168.64 214.59 171.42 211.80 175.08 C 209.57 174.08 210.92 171.62 210.85 169.79 C 209.57 171.16 207.00 173.37 208.71 175.25 C 209.80 177.56 214.34 179.43 210.78 181.68 C 216.65 179.62 213.00 185.56 209.22 185.59 C 207.06 183.81 204.94 181.52 201.86 182.63 C 201.16 182.01 200.47 181.39 199.79 180.76 C 200.18 178.43 200.88 170.71 204.22 174.88 Z" />
</g>
<g id="#bcae91ff">
<path fill="#bcae91" opacity="1.00" d=" M 211.95 164.93 C 213.17 165.54 216.87 165.29 215.42 167.41 C 215.16 170.77 211.43 166.73 211.95 164.93 Z" />
</g>
<g id="#434b24fe">
<path fill="#434b24" opacity="1.00" d=" M 155.79 167.70 C 159.03 166.67 168.48 164.33 165.23 170.31 C 161.16 175.01 175.20 176.59 168.36 179.19 C 163.70 175.45 164.46 183.74 160.04 184.03 C 155.73 187.14 149.18 181.10 145.88 185.93 C 144.80 187.89 142.67 186.13 141.08 185.93 C 142.59 182.26 138.05 179.40 136.81 176.08 C 136.89 175.63 137.04 174.74 137.12 174.30 C 138.49 173.37 139.36 169.28 141.17 170.89 C 145.69 175.52 151.05 168.80 155.79 167.70 Z" />
</g>
<g id="#191d0c7d">
</g>
<g id="#2d3616ae">
<path fill="#2d3616" opacity="0.68" d=" M 254.99 168.31 C 257.20 167.01 259.53 167.12 262.00 168.65 C 259.79 170.00 257.45 169.89 254.99 168.31 Z" />
</g>
<g id="#00000033">
</g>
<g id="#7b8d49ff">
<path fill="#7b8d49" opacity="1.00" d=" M 247.84 171.89 C 249.96 166.88 247.92 175.39 250.53 177.10 C 250.96 171.23 256.01 169.36 261.35 171.30 C 263.17 175.84 270.37 173.77 272.14 179.24 C 268.07 181.27 267.19 172.93 262.54 176.89 C 259.26 177.86 256.10 176.13 253.07 175.08 C 250.46 179.48 248.86 186.97 253.88 190.23 C 250.41 197.32 249.88 188.24 247.64 184.95 C 246.11 186.86 245.34 189.30 243.53 191.00 C 242.73 186.53 236.67 185.28 238.52 179.70 C 237.52 183.30 236.30 186.92 232.16 187.73 C 226.48 184.41 230.14 177.44 233.68 173.81 C 232.64 179.13 236.78 178.01 238.29 174.29 C 239.54 168.96 246.65 177.08 247.84 171.89 Z" />
</g>
<g id="#9cad68ff">
<path fill="#9cad68" opacity="1.00" d=" M 253.07 175.08 C 256.10 176.13 259.26 177.86 262.54 176.89 C 267.19 172.93 268.07 181.27 272.14 179.24 C 272.76 182.37 270.90 184.78 268.75 186.76 C 267.03 187.87 262.86 190.69 263.62 186.63 C 265.29 182.08 260.65 185.21 260.62 187.86 C 258.22 183.09 254.07 185.69 253.88 190.23 C 248.86 186.97 250.46 179.48 253.07 175.08 Z" />
</g>
<g id="#7e8745f3">
<path fill="#7e8745" opacity="0.95" d=" M 274.92 187.49 C 274.32 184.02 272.78 179.12 276.04 176.59 C 279.09 179.64 278.38 185.05 274.92 187.49 Z" />
</g>
<g id="#51562afc">
<path fill="#51562a" opacity="1.00" d=" M 160.04 184.03 C 164.46 183.74 163.70 175.45 168.36 179.19 C 166.79 180.71 165.30 182.30 163.80 183.88 C 160.28 184.72 163.14 190.21 159.59 191.56 C 155.52 193.21 158.13 197.79 157.89 201.14 C 155.59 200.76 153.72 199.40 153.51 196.95 C 152.92 199.56 150.06 203.05 152.80 205.19 C 154.80 208.50 159.33 202.96 161.79 206.18 C 166.18 207.99 163.83 213.01 165.72 216.51 C 161.03 217.28 162.24 221.77 165.17 223.93 C 168.98 222.99 169.34 218.61 170.40 215.50 C 175.03 215.36 179.71 213.11 184.31 214.88 L 184.45 215.90 C 182.67 217.63 180.24 216.31 178.13 216.21 C 176.31 219.78 174.95 223.70 175.06 227.78 C 178.11 231.40 185.13 233.14 185.11 238.82 C 182.78 238.55 180.47 238.15 178.16 237.83 C 175.59 234.28 169.80 235.03 165.84 233.26 C 158.47 231.69 158.39 246.42 151.82 240.21 C 149.18 240.96 145.65 242.87 148.10 246.69 C 151.41 247.83 155.36 248.77 157.14 244.87 C 161.06 248.99 166.35 252.43 167.89 258.19 C 170.07 259.95 173.50 261.46 176.32 260.27 C 179.30 258.31 180.63 262.92 183.80 262.59 C 187.17 264.84 186.64 268.15 186.22 271.63 C 191.01 274.21 192.33 279.72 195.19 283.94 C 199.13 285.10 200.79 280.52 203.80 279.00 C 205.23 280.70 205.41 283.96 208.09 284.09 C 209.06 279.63 199.44 274.99 203.63 271.86 C 205.52 273.71 207.64 275.46 209.99 273.23 C 210.77 276.87 209.76 287.10 216.12 284.13 C 219.16 282.04 219.47 286.31 221.95 287.23 C 213.73 285.28 205.39 297.38 198.86 288.12 C 195.37 286.22 190.78 287.45 186.86 287.14 C 183.05 284.77 180.42 281.01 177.17 277.99 C 171.64 267.68 159.85 263.24 149.96 258.19 C 148.96 256.17 147.96 254.15 147.06 252.10 C 147.08 248.67 145.77 245.50 145.08 242.20 L 145.24 241.19 C 148.64 231.50 137.88 224.10 140.07 214.07 C 139.98 212.69 139.94 211.28 139.47 209.97 C 138.78 209.24 138.08 208.55 137.36 207.87 C 133.70 200.80 135.13 191.32 141.08 185.93 C 142.67 186.13 144.80 187.89 145.88 185.93 C 149.18 181.10 155.73 187.14 160.04 184.03 Z" />
</g>
<g id="#7b8950ff">
<path fill="#7b8950" opacity="1.00" d=" M 195.29 183.27 C 199.61 182.58 201.46 187.72 198.75 190.89 C 192.59 194.12 189.48 184.69 195.29 183.27 Z" />
</g>
<g id="#758339fc">
<path fill="#758339" opacity="1.00" d=" M 260.62 187.86 C 260.65 185.21 265.29 182.08 263.62 186.63 C 262.86 190.69 267.03 187.87 268.75 186.76 C 268.50 188.54 268.26 190.32 268.07 192.10 C 266.76 192.89 265.42 193.64 264.08 194.38 C 260.88 194.34 263.16 190.82 262.93 188.92 C 259.99 189.92 257.00 190.62 253.88 190.23 C 254.07 185.69 258.22 183.09 260.62 187.86 Z" />
</g>
<g id="#242a129f">
<path fill="#242a12" opacity="0.62" d=" M 245.70 195.67 C 248.79 194.41 252.09 195.35 255.25 195.84 C 252.07 195.86 248.86 195.71 245.70 195.67 Z" />
</g>
<g id="#9fab65ff">
<path fill="#9fab65" opacity="1.00" d=" M 198.02 206.59 C 206.00 203.98 193.10 200.11 201.04 197.87 C 206.22 197.57 210.96 201.05 210.29 206.29 C 207.98 211.57 193.44 215.55 198.02 206.59 Z" />
</g>
<g id="#00000054">
</g>
<g id="#00000067">
</g>
<g id="#80823bff">
<path fill="#80823b" opacity="1.00" d=" M 184.31 214.88 C 184.95 208.60 189.25 220.96 192.17 215.46 C 194.66 216.63 196.54 214.83 198.51 213.56 C 199.83 215.51 201.19 213.93 202.52 212.91 C 202.70 214.67 202.01 218.79 203.93 218.81 C 208.28 213.98 215.26 218.03 220.86 218.06 C 219.62 219.33 219.24 224.61 217.54 221.33 C 215.99 223.64 214.29 224.17 212.32 221.95 C 212.85 228.63 205.17 233.28 199.09 232.17 C 192.16 233.15 209.56 240.68 196.55 237.80 C 196.15 235.26 194.73 233.27 192.42 232.14 C 192.21 234.61 190.12 235.29 188.04 235.77 C 187.00 229.11 184.17 222.77 184.45 215.90 L 184.31 214.88 M 188.19 219.20 C 186.38 220.22 184.85 226.85 188.01 226.02 C 192.43 226.88 190.32 219.46 188.19 219.20 Z" />
</g>
<g id="#0101007c">
</g>
<g id="#676237ff">
<path fill="#676237" opacity="1.00" d=" M 178.13 216.21 C 180.24 216.31 182.67 217.63 184.45 215.90 C 184.17 222.77 187.00 229.11 188.04 235.77 C 181.40 240.50 197.75 250.47 190.72 256.33 C 189.90 255.85 189.09 255.35 188.28 254.84 C 183.31 249.78 183.52 242.24 178.16 237.83 C 180.47 238.15 182.78 238.55 185.11 238.82 C 185.13 233.14 178.11 231.40 175.06 227.78 C 174.95 223.70 176.31 219.78 178.13 216.21 Z" />
</g>
<g id="#8a9656ff">
<path fill="#8a9656" opacity="1.00" d=" M 220.86 218.06 C 222.64 214.65 225.30 217.17 227.52 218.68 C 223.72 220.40 223.50 221.28 227.96 221.18 C 226.65 224.21 226.52 229.16 221.98 227.13 C 221.25 231.60 226.90 234.04 225.04 238.98 C 225.04 242.01 225.06 245.09 225.10 248.14 C 225.68 251.48 223.19 253.54 220.68 255.19 C 219.25 254.72 217.69 252.79 216.22 254.18 C 212.65 257.01 207.93 254.58 204.15 257.23 C 201.85 259.39 199.41 254.70 202.91 254.83 C 207.77 251.41 194.27 250.36 197.56 255.37 C 198.12 258.38 206.66 260.35 200.32 261.58 C 198.10 256.84 191.24 260.57 190.72 256.33 C 197.75 250.47 181.40 240.50 188.04 235.77 C 190.12 235.29 192.21 234.61 192.42 232.14 C 194.73 233.27 196.15 235.26 196.55 237.80 C 209.56 240.68 192.16 233.15 199.09 232.17 C 205.17 233.28 212.85 228.63 212.32 221.95 C 214.29 224.17 215.99 223.64 217.54 221.33 C 219.24 224.61 219.62 219.33 220.86 218.06 M 213.26 233.12 C 208.00 236.98 210.69 243.62 212.30 248.71 C 215.74 251.87 219.26 247.96 221.15 245.00 C 218.81 244.32 215.75 247.12 214.12 244.78 C 213.77 241.91 215.51 239.28 216.90 236.90 C 217.78 234.27 223.31 239.10 221.70 235.36 C 219.24 233.70 216.66 231.40 213.26 233.12 M 218.18 239.13 C 217.02 240.53 214.18 244.93 217.98 244.02 C 221.06 245.56 221.05 237.50 218.18 239.13 Z" />
</g>
<g id="#0000002f">
</g>
<g id="#b9a98dff">
<path fill="#b9a98d" opacity="1.00" d=" M 188.19 219.20 C 190.32 219.46 192.43 226.88 188.01 226.02 C 184.85 226.85 186.38 220.22 188.19 219.20 Z" />
</g>
<g id="#736f30f5">
<path fill="#736f30" opacity="0.96" d=" M 227.52 218.68 C 231.93 218.98 230.64 222.23 228.91 224.95 C 230.64 224.22 232.40 223.56 234.24 223.15 C 231.92 228.85 224.52 231.91 225.96 238.96 L 225.04 238.98 C 226.90 234.04 221.25 231.60 221.98 227.13 C 226.52 229.16 226.65 224.21 227.96 221.18 C 223.50 221.28 223.72 220.40 227.52 218.68 Z" />
</g>
<g id="#00000023">
</g>
<g id="#6b6134ff">
<path fill="#6b6134" opacity="1.00" d=" M 151.82 240.21 C 158.39 246.42 158.47 231.69 165.84 233.26 C 169.80 235.03 175.59 234.28 178.16 237.83 C 174.84 237.57 171.86 237.79 173.93 241.59 C 168.50 239.07 168.95 250.01 173.85 249.33 C 167.14 254.34 177.15 253.24 180.04 250.09 C 184.24 250.01 178.13 254.43 181.44 254.39 C 188.06 252.61 184.43 257.78 185.85 260.46 C 185.50 261.46 184.82 262.17 183.80 262.59 C 180.63 262.92 179.30 258.31 176.32 260.27 C 173.50 261.46 170.07 259.95 167.89 258.19 C 166.35 252.43 161.06 248.99 157.14 244.87 C 155.36 248.77 151.41 247.83 148.10 246.69 C 145.65 242.87 149.18 240.96 151.82 240.21 Z" />
</g>
<g id="#6d602dff">
<path fill="#6d602d" opacity="1.00" d=" M 213.26 233.12 C 216.66 231.40 219.24 233.70 221.70 235.36 C 223.31 239.10 217.78 234.27 216.90 236.90 C 215.51 239.28 213.77 241.91 214.12 244.78 C 215.75 247.12 218.81 244.32 221.15 245.00 C 219.26 247.96 215.74 251.87 212.30 248.71 C 210.69 243.62 208.00 236.98 213.26 233.12 Z" />
</g>
<g id="#0e120865">
</g>
<g id="#637639fa">
<path fill="#637639" opacity="0.98" d=" M 274.24 235.21 C 278.06 234.73 281.68 234.91 285.12 235.77 C 282.90 238.28 278.92 236.27 277.17 239.30 C 273.62 246.07 279.55 243.10 282.26 243.29 C 278.52 245.49 274.22 246.47 269.85 245.93 C 275.34 246.55 274.48 238.31 269.80 238.51 C 264.68 237.33 264.06 242.66 261.29 245.04 C 259.06 243.59 256.51 242.39 255.82 245.88 C 252.32 248.63 245.90 256.50 243.88 248.60 C 245.93 247.73 248.72 247.29 247.59 243.62 C 250.42 242.50 252.76 240.71 254.53 238.23 C 256.10 240.17 256.99 243.32 260.87 241.01 C 261.52 239.27 261.21 237.10 263.06 236.04 C 266.79 235.86 270.51 235.58 274.24 235.21 Z" />
</g>
<g id="#171e0d96">
</g>
<g id="#445222f9">
<path fill="#445222" opacity="0.98" d=" M 256.83 235.78 C 258.90 235.91 260.98 236.03 263.06 236.04 C 261.21 237.10 261.52 239.27 260.87 241.01 C 256.99 243.32 256.10 240.17 254.53 238.23 C 252.76 240.71 250.42 242.50 247.59 243.62 C 248.72 247.29 245.93 247.73 243.88 248.60 C 243.46 248.69 242.61 248.88 242.19 248.97 C 238.71 248.88 234.95 253.55 232.12 250.25 C 231.08 259.36 227.58 239.50 227.88 253.97 C 227.60 256.91 225.76 260.04 223.02 261.27 C 223.70 259.12 224.86 257.20 226.12 255.35 C 224.31 255.55 222.29 256.44 220.68 255.19 C 223.19 253.54 225.68 251.48 225.10 248.14 L 226.06 248.05 C 236.54 248.95 242.42 238.92 252.00 236.83 C 253.63 237.37 256.02 237.79 256.83 235.78 Z" />
</g>
<g id="#87924df9">
<path fill="#87924d" opacity="0.98" d=" M 277.17 239.30 C 278.92 236.27 282.90 238.28 285.12 235.77 C 285.41 236.05 285.99 236.62 286.29 236.90 C 285.90 238.28 285.88 239.67 286.22 241.07 C 284.95 241.90 283.62 242.63 282.26 243.29 C 279.55 243.10 273.62 246.07 277.17 239.30 Z" />
</g>
<g id="#3d3c217e">
</g>
<g id="#8e8757ff">
<path fill="#8e8757" opacity="1.00" d=" M 173.93 241.59 C 171.86 237.79 174.84 237.57 178.16 237.83 C 183.52 242.24 183.31 249.78 188.28 254.84 C 188.20 257.54 189.54 262.00 185.85 260.46 C 184.43 257.78 188.06 252.61 181.44 254.39 C 178.13 254.43 184.24 250.01 180.04 250.09 C 177.15 253.24 167.14 254.34 173.85 249.33 C 168.95 250.01 168.50 239.07 173.93 241.59 Z" />
</g>
<g id="#899757fe">
<path fill="#899757" opacity="1.00" d=" M 261.29 245.04 C 264.06 242.66 264.68 237.33 269.80 238.51 C 274.48 238.31 275.34 246.55 269.85 245.93 C 267.48 246.40 266.64 247.93 267.95 250.04 C 268.32 252.39 267.64 254.41 265.40 255.42 C 267.76 257.66 268.08 260.73 267.47 263.80 C 263.67 262.60 259.82 266.27 258.07 261.40 C 258.53 257.85 258.35 254.23 255.63 251.72 C 258.22 249.44 261.05 252.76 263.86 252.91 C 266.31 250.53 263.71 246.46 261.29 245.04 Z" />
</g>
<g id="#cfc1aaff">
<path fill="#cfc1aa" opacity="1.00" d=" M 218.18 239.13 C 221.05 237.50 221.06 245.56 217.98 244.02 C 214.18 244.93 217.02 240.53 218.18 239.13 Z" />
</g>
<g id="#3e3f209c">
<path fill="#3e3f20" opacity="0.61" d=" M 225.04 238.98 L 225.96 238.96 C 225.98 241.99 226.00 245.00 226.06 248.05 L 225.10 248.14 C 225.06 245.09 225.04 242.01 225.04 238.98 Z" />
</g>
<g id="#a7b679ff">
<path fill="#a7b679" opacity="1.00" d=" M 255.82 245.88 C 256.51 242.39 259.06 243.59 261.29 245.04 C 263.71 246.46 266.31 250.53 263.86 252.91 C 261.05 252.76 258.22 249.44 255.63 251.72 C 255.16 249.78 255.35 247.80 255.82 245.88 Z" />
</g>
<g id="#868e50ff">
<path fill="#868e50" opacity="1.00" d=" M 243.88 248.60 C 245.90 256.50 252.32 248.63 255.82 245.88 C 255.35 247.80 255.16 249.78 255.63 251.72 C 248.37 254.19 252.63 262.57 250.13 268.02 C 248.02 268.06 245.84 268.21 244.05 269.46 C 246.81 269.50 245.38 272.75 243.40 271.71 C 242.15 269.40 239.29 266.68 241.69 264.16 C 240.10 263.81 238.50 263.50 236.92 263.15 C 235.52 258.95 241.88 258.68 239.92 255.67 C 240.90 253.49 243.73 251.53 242.19 248.97 C 242.61 248.88 243.46 248.69 243.88 248.60 Z" />
</g>
<g id="#0000001b">
</g>
<g id="#717932ff">
<path fill="#717932" opacity="1.00" d=" M 227.88 253.97 C 227.58 239.50 231.08 259.36 232.12 250.25 C 234.95 253.55 238.71 248.88 242.19 248.97 C 243.73 251.53 240.90 253.49 239.92 255.67 C 236.35 254.57 232.72 254.50 232.61 258.92 C 229.03 259.84 227.18 262.72 225.77 265.87 C 223.38 264.12 221.17 261.39 217.91 263.18 C 212.68 262.49 213.77 268.38 209.70 269.40 C 210.56 262.10 202.21 266.94 203.63 271.86 C 199.44 274.99 209.06 279.63 208.09 284.09 C 205.41 283.96 205.23 280.70 203.80 279.00 C 200.79 280.52 199.13 285.10 195.19 283.94 C 192.33 279.72 191.01 274.21 186.22 271.63 C 186.64 268.15 187.17 264.84 183.80 262.59 C 184.82 262.17 185.50 261.46 185.85 260.46 C 189.54 262.00 188.20 257.54 188.28 254.84 C 189.09 255.35 189.90 255.85 190.72 256.33 C 191.24 260.57 198.10 256.84 200.32 261.58 C 206.66 260.35 198.12 258.38 197.56 255.37 C 194.27 250.36 207.77 251.41 202.91 254.83 C 199.41 254.70 201.85 259.39 204.15 257.23 C 207.93 254.58 212.65 257.01 216.22 254.18 C 217.69 252.79 219.25 254.72 220.68 255.19 C 222.29 256.44 224.31 255.55 226.12 255.35 C 224.86 257.20 223.70 259.12 223.02 261.27 C 225.76 260.04 227.60 256.91 227.88 253.97 M 196.31 265.32 C 192.89 265.49 194.13 268.95 195.21 270.95 C 199.55 271.88 201.92 262.26 196.31 265.32 Z" />
</g>
<g id="#39481ce3">
<path fill="#39481c" opacity="0.89" d=" M 272.92 252.25 C 277.48 251.38 282.36 246.15 286.29 251.73 C 283.41 255.93 276.95 252.48 272.92 252.25 Z" />
</g>
<g id="#737a3cfb">
<path fill="#737a3c" opacity="1.00" d=" M 267.95 250.04 C 269.60 250.78 271.25 251.54 272.92 252.25 C 276.95 252.48 283.41 255.93 286.29 251.73 C 287.93 253.90 286.58 256.74 286.39 259.23 C 287.49 252.17 278.91 254.96 275.08 256.61 C 267.15 254.08 271.75 264.68 276.61 266.08 C 276.45 260.56 281.96 256.66 285.28 262.36 C 284.24 262.74 283.19 263.07 282.12 263.37 C 280.92 262.71 278.43 262.12 278.24 264.13 C 277.91 265.66 277.30 267.09 276.07 268.10 C 273.61 267.69 273.37 270.39 274.21 272.04 C 272.72 274.17 270.34 275.53 267.67 275.68 C 268.19 282.18 260.76 281.25 258.01 285.38 C 256.45 284.28 254.23 284.18 252.70 285.40 C 253.04 279.13 263.82 283.45 260.09 275.10 C 255.91 276.00 246.70 281.55 246.71 274.16 C 245.24 274.37 243.80 274.72 242.35 275.02 C 240.55 271.12 237.26 268.00 234.88 264.34 C 235.39 264.04 236.41 263.44 236.92 263.15 C 238.50 263.50 240.10 263.81 241.69 264.16 C 239.29 266.68 242.15 269.40 243.40 271.71 C 245.38 272.75 246.81 269.50 244.05 269.46 C 245.84 268.21 248.02 268.06 250.13 268.02 C 249.61 269.28 249.12 270.57 248.75 271.89 C 253.91 270.54 257.19 266.60 258.07 261.40 C 259.82 266.27 263.67 262.60 267.47 263.80 C 268.08 260.73 267.76 257.66 265.40 255.42 C 267.64 254.41 268.32 252.39 267.95 250.04 Z" />
</g>
<g id="#4f4a1fff">
<path fill="#4f4a1f" opacity="1.00" d=" M 250.13 268.02 C 252.63 262.57 248.37 254.19 255.63 251.72 C 258.35 254.23 258.53 257.85 258.07 261.40 C 257.19 266.60 253.91 270.54 248.75 271.89 C 249.12 270.57 249.61 269.28 250.13 268.02 Z" />
</g>
<g id="#555023ff">
<path fill="#555023" opacity="1.00" d=" M 232.61 258.92 C 232.72 254.50 236.35 254.57 239.92 255.67 C 241.88 258.68 235.52 258.95 236.92 263.15 C 236.41 263.44 235.39 264.04 234.88 264.34 C 233.67 262.75 233.12 260.81 232.61 258.92 Z" />
</g>
<g id="#9da762fe">
<path fill="#9da762" opacity="1.00" d=" M 275.08 256.61 C 278.91 254.96 287.49 252.17 286.39 259.23 C 286.20 260.34 285.83 261.38 285.28 262.36 C 281.96 256.66 276.45 260.56 276.61 266.08 C 271.75 264.68 267.15 254.08 275.08 256.61 Z" />
</g>
<g id="#828c47fe">
<path fill="#828c47" opacity="1.00" d=" M 225.77 265.87 C 227.18 262.72 229.03 259.84 232.61 258.92 C 233.12 260.81 233.67 262.75 234.88 264.34 C 237.26 268.00 240.55 271.12 242.35 275.02 C 242.01 276.38 241.68 277.76 241.33 279.13 C 240.61 280.45 239.78 281.81 238.36 282.49 C 235.31 281.16 227.69 282.90 229.55 277.70 C 226.00 279.24 224.32 282.86 223.19 286.32 C 222.88 286.55 222.26 287.00 221.95 287.23 C 219.47 286.31 219.16 282.04 216.12 284.13 C 209.76 287.10 210.77 276.87 209.99 273.23 C 207.64 275.46 205.52 273.71 203.63 271.86 C 202.21 266.94 210.56 262.10 209.70 269.40 C 208.58 274.50 217.87 275.81 221.00 272.73 C 220.18 269.48 218.61 266.47 217.91 263.18 C 221.17 261.39 223.38 264.12 225.77 265.87 M 240.01 272.99 C 237.58 274.54 235.27 276.26 233.08 278.14 C 234.95 284.05 243.00 277.78 240.01 272.99 Z" />
</g>
<g id="#8b9f65ff">
<path fill="#8b9f65" opacity="1.00" d=" M 209.70 269.40 C 213.77 268.38 212.68 262.49 217.91 263.18 C 218.61 266.47 220.18 269.48 221.00 272.73 C 217.87 275.81 208.58 274.50 209.70 269.40 Z" />
</g>
<g id="#293313a9">
<path fill="#293313" opacity="0.66" d=" M 278.24 264.13 C 278.43 262.12 280.92 262.71 282.12 263.37 C 281.00 264.19 279.59 264.43 278.24 264.13 Z" />
</g>
<g id="#a69768ff">
<path fill="#a69768" opacity="1.00" d=" M 196.31 265.32 C 201.92 262.26 199.55 271.88 195.21 270.95 C 194.13 268.95 192.89 265.49 196.31 265.32 Z" />
</g>
<g id="#282b1276">
</g>
<g id="#9fab7bff">
<path fill="#9fab7b" opacity="1.00" d=" M 240.01 272.99 C 243.00 277.78 234.95 284.05 233.08 278.14 C 235.27 276.26 237.58 274.54 240.01 272.99 Z" />
</g>
<g id="#484624fa">
<path fill="#484624" opacity="0.98" d=" M 242.35 275.02 C 243.80 274.72 245.24 274.37 246.71 274.16 C 246.70 281.55 255.91 276.00 260.09 275.10 C 263.82 283.45 253.04 279.13 252.70 285.40 C 251.81 284.98 250.93 284.55 250.06 284.11 C 249.01 279.92 245.10 279.41 241.33 279.13 C 241.68 277.76 242.01 276.38 242.35 275.02 Z" />
</g>
<g id="#666328f5">
<path fill="#666328" opacity="0.96" d=" M 223.19 286.32 C 224.32 282.86 226.00 279.24 229.55 277.70 C 227.69 282.90 235.31 281.16 238.36 282.49 C 233.95 285.74 227.47 282.58 223.19 286.32 Z" />
</g>
<g id="#555116bd">
<path fill="#555116" opacity="0.74" d=" M 252.70 285.40 C 254.23 284.18 256.45 284.28 258.01 285.38 C 256.69 285.39 254.03 285.39 252.70 285.40 Z" />
</g>
<g id="#14140973">
</g>
</svg>






