<svg xmlns="http://www.w3.org/2000/svg" width="512" height="512" viewBox="0 0 384 384" xmlns:v="https://vecta.io/nano"><path fill="#585d32" d="M219.2 94.11c2.3-.09 4.58.1 6.86.56-2.76 1.23-5.54 2.49-7.94 4.34 2.66 2.66 2.62 6.31 2.87 9.81l-.39.57c-2.92-6.13-7.41-3.92-10.32.72 1.12-5.8-5.07-2.04-7.15-6.31-8.02-4.69-8.28 8.06-14.96 8.97-2.35-.74-3.7-5.4-6.18-2.68 1.29 5.83 11.24 4.29 8.01 11.96-2.03-.11-4.01-.62-6-1-2.87.57-5.16 2.64-7.89 3.63-1.49-.76-3.54-2.82-3.41.3-5.6 1.74-1.75-4.47-.97-7.3-3.71 1.93-12.62 1.33-10.93 7.11-2.2 1.88-5.18 2.33-7.75 3.51 1.81 4.47 3.97 8.84 2.18 13.91 1.83-2.72 3.16-5.73 4.22-8.83 4.61.31 9.08-.15 13.56-1.37 1.67 7.7-12.82 1.55-13.04 9.87 4.42 3.08 4.04 10.09 9.58 11.6-.1 2.08-1.3 5.74 2.06 5.48-.15-2.79 4.5-10.31 1.99-.41-.64 4.75-5.9 5.71-8.62 8.61.01 6.57 9.42 6.54 7.8 12.83-5.74 1.24-9.27-8.55-14.75-5.01 2.32 3.05 4.46 6.33 7.83 8.35-2.33 2.12-6.57 4.69-2.96 7.81 1.25 1.98 3.56-.44 5.1-.91 2.55 2.69 6.36 4.67 6.87 8.71-3.32 2.45-4.17-5.05-8.02-4.99-.24 3.03 2.5 4.62 4.29 6.59-3.66-.26.87 5.98-3.02 4.28-5.82-3.91-12.1-8.14-18.84-10.01-3.53 2.46-9.33-3.79-10.15 2.45-4.36 3.29-8.29-5.11-9.08-8.46-1.65-7.85 6.63-12.77 5.33-20.71l1.92-4.07c.42-.95.78-1.92 1.08-2.91 4.41-7.2 2.56-14.96 3.57-22.91l.17-2.05.81-2.15 1.32-2.66c1.63-1.72 3.27-3.44 4.98-5.08 3.38-1.93 7.16-3.38 9.97-6.14 2.56-2.57 5.51-4.68 8.72-6.37l6.31-.29c3.59-2.42 6.53-5.64 9.88-8.37 5.85-.29 8.91-7.25 14.77-7.05 2.32 1.31 5.72 2.82 7.11-.15 1.62-.46 3.25-.87 4.89-1.25 1.67.71 3.79 1.05 5.17-.43l3.15-2.1z"/><path fill="#6d6f33" d="M218.12 99.01c2.4-1.85 5.18-3.11 7.94-4.34 4.74 1.65 7 6.66 11.54 8.75 3.14 2.48 8.03 1.03 10.64 4.44l1.56 1.63c1.03 1.27 1.9 2.64 2.46 4.18-2.59 2.72-6.03 2.12-9.33 1.37.53 1.67 1.26 3.26 1.9 4.89-2.26-.87-8.21-1.91-6.06 2.21.44 3.8 4.01 5.49 7.46 4.31-.68 2.12-2.08 4.02-2.22 6.3 2.86.6 5.01 2.18 5.51 5.24 3.52-3.72-2.03-10.32 2.21-14.26 1.42-2.98 5.22-1.1 6.25 1.06-2.21 1.5-6.55 1.48-3.92 6.18.5 3.41 4.96.71 7.18.94l1.9.22c-3.07 4.37-7.05 9.46-12.8 9.35-4.63-1.99-15.31-2.89-9.62-9.75-1.38-3.71-4.99-7.64-6.49-11.9.4-4.39 3.74-6.8 7.9-4.93-3.07-3.46-6.46-7.11-10.95-8.64-3.41 4.07-9.61-4.91-10.19 2.56-.25-3.5-.21-7.15-2.87-9.81z"/><path fill="#7b8246" d="M269.03 100.92c10.71-2.85 10.98 10.77 18.6 14.43 1.52 4.74 8.76 3.83 8 10.01 1.49.89 3.11 1.55 4.58 2.48-3.12 3.56-6.88-.49-10.77.64-2.46-3.33-8.02-3.01-6.35 2.16 4.42-.89 6.1 3.16 8.98 5.23-1.82-.02-3.9-.79-5.25.86l-.79.4c-5.48-.08-4.59-8.01-6.12-12.04-2.89-.39-1.68 4.18-3.91 5.5-.99 5.26-6.76-3.01-6.88 2.18 3.51.73 4.26 3.02 2.8 6.18-1.56-1.76-2.34-4.6-4.88-5.13-.89 6.78 7.81 8.62 7.1 15.19-4.11-2.6-6.69-6.78-10-10.2.79-3.27.46-5.49-1-6.68l-1.9-.22c.5-1.96.13-3.96-.18-5.91 6.83 1.42-7.76-16.34 2.83-11.32-.95-3.24-1.72-6.58 2.78-5.61 4.38-2.08 5.65 4.44 4.55 7.54 3.96-.17 4.1 3.35 4.84 6.47 1.77-1.3 2.5-3.66 4.46-4.85 4.28-7.47-6.32-2.08-5.97-7.64 2.18-6.18-7.09-4.23-6.15-9.02l.63-.65m15.19 15.21c-2.45 1.14-.08 3.41 1.78 2.89 4.19 1.04.94-4.76-1.78-2.89m7.07 5.14c-8.75 1.83 4.47 8.45 2.68 1.78.08-1.28-1.47-2.63-2.68-1.78z"/><path fill="#53572e" d="M253.07 108.22c5.73-1.42 12.1-.74 15.33-6.65-.94 4.79 8.33 2.84 6.15 9.02-.35 5.56 10.25.17 5.97 7.64-1.96 1.19-2.69 3.55-4.46 4.85-.74-3.12-.88-6.64-4.84-6.47 1.1-3.1-.17-9.62-4.55-7.54-4.5-.97-3.73 2.37-2.78 5.61-10.59-5.02 4 12.74-2.83 11.32-3.96-4.11-.73-13.79-8.8-12.33-.56-1.54-1.43-2.91-2.46-4.18a6.13 6.13 0 0 0 3.27-1.27z"/><path fill="#6d7737" d="M188.17 112.77c6.68-.91 6.94-13.66 14.96-8.97 2.08 4.27 8.27.51 7.15 6.31 2.91-4.64 7.4-6.85 10.32-.72-2.81 4.57-8.96 10.53-13.76 4.95-3.16.45-2.25 9.45 2.69 6.29 3.38-7.05 18.83 3.18 14.45-6.79 4.32 7.33 3.98-4.34 9.15-3.79-.83 4.13-6 10.14.13 12.53-.62 2.27-1.72 4.36-2.83 6.42 2.15 3.11 11.94 10.12 4.46 10.41-1.7-1.57-3.65-9.59-5.29-5.56-2.25-1.48-2.48-6.68-5.78-5.13-3.53.25.28 4.34.05 6.5-3.29-1.43-7.88-5.6-10.61-1.08.29 5.02 2.86 15.9 10.02 11.04-1.57 2.8-2.97 5.95-1.66 9.16-.51-5.64-5-8.7-7.27-3.07-3.24-3.63-4.98-12.69-10.39-11.55-3.21.3-5.27 2.91-7.83 4.52-1.99-2.38-4.53-4.96-3.98-8.33 3.99 1.2 3.22-3.42 3.88-5.87 1.77 1.41 3.54 3.51 5.91 1.83-.17-3.03-3.94-4.14-6.03-5.87-4.81 3.45-10.82.65-11.91-4.95 1.99.38 3.97.89 6 1 3.23-7.67-6.72-6.13-8.01-11.96 2.48-2.72 3.83 1.94 6.18 2.68m35.86 9.47c-3.24 1.51-6.83 2.2-9.97 3.91-.36 2.6 3.45 2.23 4.93 3.75 2.1-1.73 7.28-6.44 5.04-7.66z"/><path fill="#8a9a53" d="M220.99 108.82c.58-7.47 6.78 1.51 10.19-2.56 4.49 1.53 7.88 5.18 10.95 8.64-4.16-1.87-7.5.54-7.9 4.93l-.97 2.75c-6.13-2.39-.96-8.4-.13-12.53-5.17-.55-4.83 11.12-9.15 3.79 4.38 9.97-11.07-.26-14.45 6.79-4.94 3.16-5.85-5.84-2.69-6.29 4.8 5.58 10.95-.38 13.76-4.95l.39-.57z"/><path fill="#2b2a14" opacity=".61" d="M248.24 107.86c1.62-.16 3.25-.06 4.83.36a6.13 6.13 0 0 1-3.27 1.27l-1.56-1.63z"/><path fill="#8c8d4f" d="M242.93 115.04c3.3.75 6.74 1.35 9.33-1.37 8.07-1.46 4.84 8.22 8.8 12.33.31 1.95.68 3.95.18 5.91-2.22-.23-6.68 2.47-7.18-.94-2.63-4.7 1.71-4.68 3.92-6.18-1.03-2.16-4.83-4.04-6.25-1.06-4.24 3.94 1.31 10.54-2.21 14.26-.5-3.06-2.65-4.64-5.51-5.24.14-2.28 1.54-4.18 2.22-6.3-3.45 1.18-7.02-.51-7.46-4.31-2.15-4.12 3.8-3.08 6.06-2.21-.64-1.63-1.37-3.22-1.9-4.89z"/><path fill="#bbb676" d="M284.22 116.13c2.72-1.87 5.97 3.93 1.78 2.89-1.86.52-4.23-1.75-1.78-2.89z"/><path fill="#6b723e" d="M160.8 124.79c-1.69-5.78 7.22-5.18 10.93-7.11-.78 2.83-4.63 9.04.97 7.3 1.56 7.71 5.15 15 5.39 23.1.19 6.7 5.3-1.31 7.19-.4-.9 3.5-1.25 9.92-6.4 7.75-.64 3.05 1.41 5.59 4.48 3.99 3.65-1.41 6.04 2.5 8.51 4.5-1.79 4.44-5.95 6.66-9.79 9.04.34-2.1-1.3-2.16-2.89-1.89-2.08 3.46-2.11 7.87-5.1 10.87 7.57 2.02-.37 2.2-3.02 5.02-2.93.99-5.88 2-8.17 4.18-3.61-3.12.63-5.69 2.96-7.81-3.37-2.02-5.51-5.3-7.83-8.35 5.48-3.54 9.01 6.25 14.75 5.01 1.62-6.29-7.79-6.26-7.8-12.83 2.72-2.9 7.98-3.86 8.62-8.61 2.51-9.9-2.14-2.38-1.99.41-3.36.26-2.16-3.4-2.06-5.48-5.54-1.51-5.16-8.52-9.58-11.6.22-8.32 14.71-2.17 13.04-9.87-4.48 1.22-8.95 1.68-13.56 1.37-1.06 3.1-2.39 6.11-4.22 8.83 1.79-5.07-.37-9.44-2.18-13.91 2.57-1.18 5.55-1.63 7.75-3.51m8.51 15.51c-4.67 2.51-2.02 15.11 2.45 8.73.89-.99 1.86-1.95 2.48-3.16 3.97-1.22-1.52-9.96-4.93-5.57m8.89 21.93c-.14 5.29 5.82-2.01 0 0z"/><path fill="#444a1d" opacity=".98" d="M234.23 119.83c1.5 4.26 5.11 8.19 6.49 11.9-5.69 6.86 4.99 7.76 9.62 9.75 5.75.11 9.73-4.98 12.8-9.35 1.46 1.19 1.79 3.41 1 6.68 1.09 3.52 1.98 6.44-1.24 9.2 5.2-.27 8.08 1.2 6.77 6.16-6.2-1.74-12.89-2.8-17.6-7.6-3.99-5.82-10.8-6.54-17.18-7.16 7.48-.29-2.31-7.3-4.46-10.41 1.11-2.06 2.21-4.15 2.83-6.42l.97-2.75z"/><path fill="#838d48" d="M176.11 124.68c2.73-.99 5.02-3.06 7.89-3.63 1.09 5.6 7.1 8.4 11.91 4.95 2.09 1.73 5.86 2.84 6.03 5.87-2.37 1.68-4.14-.42-5.91-1.83-.66 2.45.11 7.07-3.88 5.87-4-2.49-1.45 5.77-4.19 7.05-3.44 1.41-6.8 2.99-9.87 5.12-.24-8.1-3.83-15.39-5.39-23.1-.13-3.12 1.92-1.06 3.41-.3z"/><path fill="#99ad6d" d="M291.29 121.27c1.21-.85 2.76.5 2.68 1.78 1.79 6.67-11.43.05-2.68-1.78z"/><path fill="#83954c" d="M224.03 122.24c2.24 1.22-2.94 5.93-5.04 7.66-1.48-1.52-5.29-1.15-4.93-3.75 3.14-1.71 6.73-2.4 9.97-3.91z"/><path fill="#52612d" opacity=".98" d="M276 130.59c2.23-1.32 1.02-5.89 3.91-5.5 1.53 4.03.64 11.96 6.12 12.04-2.21 1.16-4.54 2.08-6.85 3 .82-3.48-2.11-6.41-3.18-9.54z"/><path fill="#97a258" d="M283.09 130.64c-1.67-5.17 3.89-5.49 6.35-2.16 3.89-1.13 7.65 2.92 10.77-.64 2.01 2.77 4.53 7.43 2.04 10.43-2.93-2.59-6.43-3.23-10.18-2.4-2.88-2.07-4.56-6.12-8.98-5.23z"/><path fill="#4c4e1d" opacity=".96" d="M223.82 128.72c3.3-1.55 3.53 3.65 5.78 5.13 1.64-4.03 3.59 3.99 5.29 5.56-4.81-.2-12.46-5.55-10.63 3.78.05-2.68-.08-5.33-.39-7.97.23-2.16-3.58-6.25-.05-6.5z"/><path fill="#879555" d="M269.12 132.77c.12-5.19 5.89 3.08 6.88-2.18 1.07 3.13 4 6.06 3.18 9.54-2.4 2.65.05 3.75 2.69 4.28l.99.75c2.47 1.38 5.68.38 8.42.63 3.5 1.7 9.1 3.17 7.88 8.21l-2.1 1.31c-4.11-2.53-9.78-.52-11.36-6.19-3.68.94-11.22 7.59-11.56-.11.71-6.57-7.99-8.41-7.1-15.19 2.54.53 3.32 3.37 4.88 5.13 1.46-3.16.71-5.45-2.8-6.18z"/><path fill="#977f4d" d="M213.26 134.14c2.73-4.52 7.32-.35 10.61 1.08.31 2.64.44 5.29.39 7.97l-.98 1.99c-7.16 4.86-9.73-6.02-10.02-11.04m5.92 4.88c-.53 1.96-1.19 4.04-.05 5.93 2.29-.66 4.17-6.6.05-5.93z"/><path fill="#93a568" d="M187.96 142.96c2.74-1.28.19-9.54 4.19-7.05-.55 3.37 1.99 5.95 3.98 8.33 3.29.99 3.48 4.66 3.77 7.62-.72 1.95-4.02 2.9-1.94 5.27l-2.09.54c1.2-4.88.5-10.7-3.99-13.63-3.98-.04-3.01 5.76-1.1 8.01-2.88 2.68-3.73-2.85-5.5-4.37-1.89-.91-7 7.1-7.19.4 3.07-2.13 6.43-3.71 9.87-5.12z"/><path fill="#452" opacity=".91" d="M286.82 136.73c1.35-1.65 3.43-.88 5.25-.86 3.75-.83 7.25-.19 10.18 2.4-4.83 4.34-10.11-1.86-15.43-1.54z"/><path fill="#9e916d" d="M169.31 140.3c3.41-4.39 8.9 4.35 4.93 5.57.01-8.61-9.55 4.37-2.48 3.16-4.47 6.38-7.12-6.22-2.45-8.73z"/><path fill="#95a36d" d="M203.96 139.72c5.41-1.14 7.15 7.92 10.39 11.55 1.87 1.47 4.11 2.49 5.67 4.35-3.11 1.28-6.99 2.29-5.18 6.48-3.04.4-5.12-5.89-5.12-.12-2.2-1.66-6.02-6.39-5.05-9.28 4.53-5.69 3.74 8.01 7.9 4.69 2.56-3.85-.76-7.91-3.85-10.19-2.76-.16-4.89 2.65-7.7 2.98-.66-3.83-.7-8.25 2.94-10.46z"/><path fill="#d6c8b3" d="M219.18 139.02c4.12-.67 2.24 5.27-.05 5.93-1.14-1.89-.48-3.97.05-5.93z"/><path fill="#59682d" opacity=".98" d="M264.14 138.81c3.31 3.42 5.89 7.6 10 10.2.34 7.7 7.88 1.05 11.56.11 1.58 5.67 7.25 3.66 11.36 6.19-4.52 1.24-9.42.98-13.9-.35-4.41-1.3-8.98-.86-13.49-.79 1.31-4.96-1.57-6.43-6.77-6.16 3.22-2.76 2.33-5.68 1.24-9.2z"/><path fill="#828a49" d="M196.13 144.24c2.56-1.61 4.62-4.22 7.83-4.52-3.64 2.21-3.6 6.63-2.94 10.46 2.81-.33 4.94-3.14 7.7-2.98 3.09 2.28 6.41 6.34 3.85 10.19-4.16 3.32-3.37-10.38-7.9-4.69-.97 2.89 2.85 7.62 5.05 9.28 0-5.77 2.08.52 5.12.12-1.81-4.19 2.07-5.2 5.18-6.48-1.56-1.86-3.8-2.88-5.67-4.35 2.27-5.63 6.76-2.57 7.27 3.07 5.04 6.4 11.27 12.81 11.68 21.42-.16 4.74-.05 9.5-.43 14.23-3.12-.27-9.66-4.39-8.28 1.82-3.33 1.94-10.48 5.39-12.54.68-3.06-6.97-4.03.61-4.15 4.53-.93-1.84-5.19-4.15-2.85-5.96 3.11-1.73-1.74-3.73 1.99-5.71 6.21-.66 7.72-8.13 6.9-13.21-1.91-5.1-7.56-6.14-12.3-6.53 2.59-.86 6.35-5.44 3.63-6.27-2.6 2.88-5.54.04-7.31-2.21-2.08-2.37 1.22-3.32 1.94-5.27-.29-2.96-.48-6.63-3.77-7.62m29.09 32.13c-3.06.12-.35 3.62-3.99 2.83.12 2.96.24 5.94-.06 8.9 4.71-.58 7.49-3.89 3.97-7.98 3.28-.38 2.77-3.49.08-3.75z"/><path fill="#cec5ae" d="M171.76 149.03c-7.07 1.21 2.49-11.77 2.48-3.16-.62 1.21-1.59 2.17-2.48 3.16z"/><path fill="#828949" d="M190.78 152.05c-1.91-2.25-2.88-8.05 1.1-8.01 4.49 2.93 5.19 8.75 3.99 13.63-1.65.28-3.33.38-4.98.6-.1 3.08 3.98 2.92 4.94 4.89-1.55 2.84-1.49 6.14-1.15 9.27 1.68 2 6.24 6.09-2.51 3.75-2.98.51-4.04 3.87-4.6 6.45-1.64.12-3.4-.16-4.77.97-6.65-2.06 2.31-2.35 3.39-5.65-4.68.91-8.78 1.9-4.11-4.99 3.84-2.38 8-4.6 9.79-9.04-2.47-2-4.86-5.91-8.51-4.5-3.07 1.6-5.12-.94-4.48-3.99 5.15 2.17 5.5-4.25 6.4-7.75 1.77 1.52 2.62 7.05 5.5 4.37z"/><path fill="#4a611f" opacity=".92" d="M282.86 145.16c2.05.38 4.13.05 6.13-.5l2.29 1.13c-2.74-.25-5.95.75-8.42-.63z"/><path fill="#767b41" d="M195.87 157.67l2.09-.54c1.77 2.25 4.71 5.09 7.31 2.21 2.72.83-1.04 5.41-3.63 6.27-3.35-1.24-7.46 1.85-4.45 5.13 4.09-.11 10.03-2.82 11.09 2.75-2.45.52-6.52 2.65-4.4 5.59l-2.24.51c-2.81.24-4.9 2.53-7.22 3.92 2.8 1.63-.78 4.2 1.41 6.44-3.24 1.06-8.16-2.51-6.85 3.73 2.97-1.46 9.7 4.47 4.38 4.57.5 2.62 1.34 5.16 1.74 7.8-3.42-.7-3.42-3.87-3.32-6.98-2.44-.76-3.14.66-2.8 2.92-6.35-.52-4.98-10.05-3.73-14.76 1.59-2.18-.66-2.94-2.45-3.63 1.37-1.13 3.13-.85 4.77-.97.56-2.58 1.62-5.94 4.6-6.45 8.75 2.34 4.19-1.75 2.51-3.75-.34-3.13-.4-6.43 1.15-9.27-.96-1.97-5.04-1.81-4.94-4.89 1.65-.22 3.33-.32 4.98-.6z"/><path fill="#b3a280" d="M178.2 162.23c5.82-2.01-.14 5.29 0 0z"/><path fill="#826c27" d="M197.19 170.74c-3.01-3.28 1.1-6.37 4.45-5.13 4.74.39 10.39 1.43 12.3 6.53.82 5.08-.69 12.55-6.9 13.21-2-1.72-3.82-3.64-5.4-5.76l2.24-.51c3.33-.63 8.03-1.78 4.4-5.59-1.06-5.57-7-2.86-11.09-2.75z"/><path fill="#5e673b" d="M179.19 171.07c1.59-.27 3.23-.21 2.89 1.89-4.67 6.89-.57 5.9 4.11 4.99-1.08 3.3-10.04 3.59-3.39 5.65 1.79.69 4.04 1.45 2.45 3.63-1.25 4.71-2.62 14.24 3.73 14.76 1.29 4.38-.25 7.97-2.94 11.1.73 3.37 2.66-.91 4.31.52 1.42 2.49 2.67 5.51 1.84 8.36-1.33 1.94-1.74 3.36 1.13 2.43-.55 1.93-2.5 2.41-4.15 3.04 1.81 2.05 1.8 4.4.07 6.51 2.68.16 5.86 3.8 1.61 4.35-6.76-5.96-10.26 6.93-3.81 9.85-3.59.76-5.52-3.46-9.01-2.84-4.36-.22-8.88.59-13.07-.98-.67 2.91.82 6.58-3 7.91-2.28-1.54-8.07-7.08-1.95-6.34 2.35-4.18-5.63-15.35-11.79-10.31-1.72-3-3.39-6.2-2.08-9.72 1.75 1.8 2.91 4.76 5.95 4.2-.73-2.67-2.35-5.02-2.97-7.72 5.7-2.59 5.03-10.06 11.15-12.39 6.09-4.57 14.22 10.46 16.93.5-5.24 1.63-4.15-3.17-1.22-5.44-1.57-1.55-3.26-2.95-4.84-4.48-1.79-1.97-4.53-3.56-4.29-6.59 3.85-.06 4.7 7.44 8.02 4.99-.51-4.04-4.32-6.02-6.87-8.71-1.54.47-3.85 2.89-5.1.91 2.29-2.18 5.24-3.19 8.17-4.18 2.65-2.82 10.59-3 3.02-5.02 2.99-3 3.02-7.41 5.1-10.87m6.09 45.2c-4.61 1.77-2.06 11.98 4.46 7.63 3.04-3.22-1.18-7.75-4.46-7.63z"/><path fill="#af9a79" d="M203.88 179.08c-2.12-2.94 1.95-5.07 4.4-5.59 3.63 3.81-1.07 4.96-4.4 5.59z"/><path fill="#5f5923" d="M225.22 176.37c2.69.26 3.2 3.37-.08 3.75 3.52 4.09.74 7.4-3.97 7.98.3-2.96.18-5.94.06-8.9 3.64.79.93-2.71 3.99-2.83z"/><path fill="#5a672f" d="M233.3 175.76c.41 4.96.72 9.93.96 14.9 2.56 3.79 8.98-.06 12.68 1.4l7.07-.16c1.95.79 3.93 1.51 5.9 2.27 2.96 2.22 6.21 4.12 8.89 6.71-3.51 1.75-1.56 7.92-2.05 11.51-4.79 3.07-9.91 5.99-15.61 6.93l-6.24.58c-6.38-.12-13.23-.26-11.5 8.38 3.26-7.74-2.93-8.91-5.73-4.1.92 3.84-4.27 4.19-6.79 2.86 2.66-2.15 8.07-5.55 1.36-5.82-7.87.22-15.32-5.86-13.52-14.4-1.52 2.29-3.78 10.93-2.68.36.3-1.78-2.17-.08-3.08-.36.58-2.38.97-5.26 3.63-6.17-.56 2.24-.76 4.35 2.22 3.23 1.11-3.8 1.24-7.89 3.24-11.39 2.06 4.71 9.21 1.26 12.54-.68-1.38-6.21 5.16-2.09 8.28-1.82.38-4.73.27-9.49.43-14.23m2.77 25.25c.49-4.3-6.06-3.14-6.11 0 .35 3.32-4.55 7.79-4.19 2-4.36.49-2.51 7.32-5.64 9.93 3.74 2.9 5.73-1.76 3.83-4.98 3.13-.58 3.14 2.95 3.19 5.1.85-1.09 1.65-2.22 2.61-3.21-1.29 4.48 6.81 10.34 8.63 4.46 1.2-.02 2.72.89 3.38-.61.95 1.47.62 4.91 3.13 4.23 2.35-.37 1.66-5.76 4.69-4.71 1.36 4.08 4.27-.41 6.36-1.31-.34 1.45-1.39 3.98 1.03 4.06 4.12-1.54 7.16-6.56 7.75-10.7-2.56-2.12-4.84-7.95-8.49-3.81-3.14.06-1.57-2.63-1.3-4.5-4.98 1.15-12.91-.15-12 7.29-4.49 1.3-1.4-5.09-.9-7.31-3.93-1.39-3.59 7.35-5.97 4.07z"/><path fill="#909c5a" d="M194.42 183.51c2.32-1.39 4.41-3.68 7.22-3.92 1.58 2.12 3.4 4.04 5.4 5.76-3.73 1.98 1.12 3.98-1.99 5.71-2.34 1.81 1.92 4.12 2.85 5.96.12-3.92 1.09-11.5 4.15-4.53-2 3.5-2.13 7.59-3.24 11.39-2.98 1.12-2.78-.99-2.22-3.23-2.66.91-3.05 3.79-3.63 6.17.91.28 3.38-1.42 3.08.36-1.1 10.57 1.16 1.93 2.68-.36-1.8 8.54 5.65 14.62 13.52 14.4-.62 3.82-5.98-.87-7.14 2.98-2.72 2.58-2.83-4.57-5.34-3.31-3.49 2.21-7.26-3.14-1.6-1.24 1.74-5.24-7.62-8.13-7.16-1.84 2.9 2.01 4.28 5.61-.67 4.03-1.61-4.3-6.32-6.04-9.98-8.23-1.65-1.43-3.58 2.85-4.31-.52 2.69-3.13 4.23-6.72 2.94-11.1-.34-2.26.36-3.68 2.8-2.92-.1 3.11-.1 6.28 3.32 6.98-.4-2.64-1.24-5.18-1.74-7.8 5.32-.1-1.41-6.03-4.38-4.57-1.31-6.24 3.61-2.67 6.85-3.73-2.19-2.24 1.39-4.81-1.41-6.44z"/><path fill="#474c26" d="M130.05 188.8c.79 3.35 4.72 11.75 9.08 8.46.82-6.24 6.62.01 10.15-2.45 6.74 1.87 13.02 6.1 18.84 10.01 3.89 1.7-.64-4.54 3.02-4.28 1.58 1.53 3.27 2.93 4.84 4.48-2.93 2.27-4.02 7.07 1.22 5.44-2.71 9.96-10.84-5.07-16.93-.5-2.65-1.72-4.84-.22-6.42 2.05-4.01-2.26-13.39-7.98-14.56-.63-1.28 4.06-3.45-2.36-5.46-2.96 2.84-2.71 3.48-5.43-.48-7.34-.68-1.04-1.31-2.1-1.95-3.16l-1.43-2.88.08-6.24z"/><path fill="#283114" opacity=".64" d="M246.94 192.06c1.4-2.88 4.75-1.62 7.07-.16l-7.07.16z"/><path fill="#748648" d="M236.07 201.01c2.38 3.28 2.04-5.46 5.97-4.07-.5 2.22-3.59 8.61.9 7.31 1.07 3.29.02 6.38-1.17 9.45-.66 1.5-2.18.59-3.38.61-1.82 5.88-9.92.02-8.63-4.46-.96.99-1.76 2.12-2.61 3.21-.05-2.15-.06-5.68-3.19-5.1 1.9 3.22-.09 7.88-3.83 4.98 3.13-2.61 1.28-9.44 5.64-9.93-.36 5.79 4.54 1.32 4.19-2 .05-3.14 6.6-4.3 6.11 0z"/><path fill="#809248" d="M242.94 204.25c-.91-7.44 7.02-6.14 12-7.29-.27 1.87-1.84 4.56 1.3 4.5-3.22 7.28-10.12-2.43-13.3 2.79z"/><path fill="#96a761" d="M256.24 201.46c3.65-4.14 5.93 1.69 8.49 3.81-.59 4.14-3.63 9.16-7.75 10.7-2.42-.08-1.37-2.61-1.03-4.06-2.09.9-5 5.39-6.36 1.31-3.03-1.05-2.34 4.34-4.69 4.71-2.51.68-2.18-2.76-3.13-4.23 1.19-3.07 2.24-6.16 1.17-9.45 3.18-5.22 10.08 4.49 13.3-2.79z"/><path fill="#7f8a45" opacity=".97" d="M266.75 212.39c.49-3.59-1.46-9.76 2.05-11.51l1.65 2c-1.09 1.93-.97 4.25.05 6.18l-.29.79c-1.15.86-2.28 1.74-3.46 2.54z"/><path fill="#50552b" d="M139.29 211.38c1.17-7.35 10.55-1.63 14.56.63 1.58-2.27 3.77-3.77 6.42-2.05-6.12 2.33-5.45 9.8-11.15 12.39.62 2.7 2.24 5.05 2.97 7.72-3.04.56-4.2-2.4-5.95-4.2-1.31 3.52.36 6.72 2.08 9.72 6.16-5.04 14.14 6.13 11.79 10.31-6.12-.74-.33 4.8 1.95 6.34 3.82-1.33 2.33-5 3-7.91 4.19 1.57 8.71.76 13.07.98l1.25 1.6c-3.94.43-11.28 1.2-10.29 6.97 1.99 3.87 5.57 6.62 8.09 10.12-1.62.75-3.43.32-5.13.29l-.7-.22c-6.5-3.9-15.2-7.72-20.06 1.23.79 9.01 9.29 19.77 18.92 18.7 2.24.32 4.48.72 6.7 1.18-.14 2.92-2.03 4.4-4.83 4.5.2 5.5 7.37 5.3 11.28 6.68-5.86 1.65-12.04-2.97-17.78.01-4.51 2.99-6.73-2.12-9.93-3.85-3.5-.49-7.11-.43-10.52-1.45-.75-.96-1.5-1.9-2.15-2.92-.45-2.99 1.27-6.73-.82-9.24-1.03-.97-2.16-1.81-3.21-2.76 11.62 6.16 12.54-11.33 6.35-14.7 6.56-.8 2.19-8.91-.27-12.19-4.19 4.96-9.61-6.39-8.8 3.74-.38-2.4-1.17-4.71-1.99-6.99l-.71-5.9c-2.51-5.12.98-11.1-3.58-15.88-.02-5.56-.17-11.49 3.98-15.81 2.01.6 4.18 7.02 5.46 2.96z"/><path fill="#81833d" d="M190.35 213.61c3.66 2.19 8.37 3.93 9.98 8.23 4.95 1.58 3.57-2.02.67-4.03-.46-6.29 8.9-3.4 7.16 1.84-5.66-1.9-1.89 3.45 1.6 1.24 2.51-1.26 2.62 5.89 5.34 3.31 1.16-3.85 6.52.84 7.14-2.98 6.71.27 1.3 3.67-1.36 5.82-.71 3.68-7.33 1.4-5.68 5.51 1.81.31 3.52 1.06 2.6 3.2-1.68 3.04-4.12-2.01-6.58-1.77-.91 2.42-1.59 5.14.5 7.17-4.4 8.3-11.11 17.29-20.72 19.16.84 3.03 5.9 3.2 5.98 6.59-1.95 3.1-4.11 6.08-6.19 9.1-3.35-.76-5.09-9.87-.88-7.08 2.38 1.52 3.89 1.13 3.25-1.99-1.18-3.19-5.59-3.86-8.67-3.95-1.47-5.36-5.7-9.78-5.21-16.07l-1.25-1.6c3.49-.62 5.42 3.6 9.01 2.84-6.45-2.92-2.95-15.81 3.81-9.85-2.79 7.31 6.15 5.9 9.57 2.03 2.32-2.29 5.76-1.63 8.65-2.48-2.15-2.23-5.47-9.25-7.78-3.86-2.66-3.86-2.63-14.04-9.1-12.02.83-2.85-.42-5.87-1.84-8.36m-6.15 36.61c-3.51 2.16-.91 9.01 2.73 5.58-.52-1.77-.73-5.59-2.73-5.58z"/><path fill="#7c8952" d="M185.28 216.27c3.28-.12 7.5 4.41 4.46 7.63-6.52 4.35-9.07-5.86-4.46-7.63z"/><path fill="#282c14" opacity=".61" d="M244.9 219.9l6.24-.58-6.24.58z"/><path fill="#97a25b" d="M192.19 221.97c6.47-2.02 6.44 8.16 9.1 12.02 2.31-5.39 5.63 1.63 7.78 3.86-2.89.85-6.33.19-8.65 2.48-3.42 3.87-12.36 5.28-9.57-2.03 4.25-.55 1.07-4.19-1.61-4.35 1.73-2.11 1.74-4.46-.07-6.51 1.65-.63 3.6-1.11 4.15-3.04-2.87.93-2.46-.49-1.13-2.43z"/><path fill="#85934f" d="M227.67 224.18c2.8-4.81 8.99-3.64 5.73 4.1-1.14 5.32-3.54 10.4-6.57 14.89-2.83-3.98-7.67-3.23-11.73-1.92-.82 2.28 2.13 2.24 3.49 3.11-1.5 2.95-2.82 7.33 1.37 8.68 2.51-1.17 4.73-2.85 7.15-4.19 4.63 2.61-1.11 7.45-3.15 10.01-4.12-.59-5.04 1.9-4.09 6.15-1.52 2.78-2.82 5.7-4.73 8.24-1.37-.59-3.12-.69-4.18.54l-1.75 1.37c-1.51-.05-5.43 2.07-4.03-.93 3.67-4.3 10.5-6.63 11.92-12.85-5.19 1.16-9.7-8.75-14.37-2.65-1.22 2.95 1.35 17.01-5.74 12.48 1.48 8.2-10.63 3.48-8.32 11.75-4.47.47-4.02-6.78-5.74-9.85.92-3.47-5.05-9.13 1.56-10.13 3.08.09 7.49.76 8.67 3.95-2.29-1.24-3.79-.95-3.25 1.99-4.21-2.79-2.47 6.32.88 7.08 2.08-3.02 4.24-6 6.19-9.1-.08-3.39-5.14-3.56-5.98-6.59 9.61-1.87 16.32-10.86 20.72-19.16-2.09-2.03-1.41-4.75-.5-7.17 2.46-.24 4.9 4.81 6.58 1.77.92-2.14-.79-2.89-2.6-3.2-1.65-4.11 4.97-1.83 5.68-5.51 2.52 1.33 7.71.98 6.79-2.86z"/><path fill="#222614" opacity=".6" d="M133.43 240.11l.71 5.9c-1.38-.89-1.76-2.56-1.67-4.1l.96-1.8z"/><path fill="#716e30" opacity=".98" d="M215.1 241.25c4.06-1.31 8.9-2.06 11.73 1.92-2.62 1.83-3.93 4.98.28 5.68-2.42 1.34-4.64 3.02-7.15 4.19-4.19-1.35-2.87-5.73-1.37-8.68-1.36-.87-4.31-.83-3.49-3.11z"/><path fill="#685e33" d="M179.28 246.91c-.49 6.29 3.74 10.71 5.21 16.07-6.61 1-.64 6.66-1.56 10.13-4.59 2.17-5.56-1.34-6.5-5.11-1.35-1.41-2.95-2.53-4.48-3.71 1.7.03 3.51.46 5.13-.29-2.52-3.5-6.1-6.25-8.09-10.12-.99-5.77 6.35-6.54 10.29-6.97z"/><path fill="#596632" d="M136.13 253c-.81-10.13 4.61 1.22 8.8-3.74 2.46 3.28 6.83 11.39.27 12.19 6.19 3.37 5.27 20.86-6.35 14.7-1.31-1.07-2.08-2.63-2.93-4.05l-.48-6.07-1.76-2.05c.8-1.92.91-4.11 0-6.01.8-1.67 1.71-3.28 2.45-4.97z"/><path fill="#c6b89d" d="M184.2 250.22c2-.01 2.21 3.81 2.73 5.58-3.64 3.43-6.24-3.42-2.73-5.58z"/><path fill="#7b7838" d="M202.73 258.73c4.67-6.1 9.18 3.81 14.37 2.65-1.42 6.22-8.25 8.55-11.92 12.85-1.4 3 2.52.88 4.03.93-1.14 7.32-10.86 3.18-14.06 9.02-4.73 3.3-6.42 9.99-11.89 12.18-3.91-1.38-11.08-1.18-11.28-6.68 2.8-.1 4.69-1.58 4.83-4.5-2.22-.46-4.46-.86-6.7-1.18 2.15-6.18-6.1-3.87-5.68-9.4-.42-2.6.14-12.41 4.69-9.65.72 2.3 1.23 4.66 1.16 7.09 2.71.17 4.84-1.9 6.15-4.04.94 3.77 1.91 7.28 6.5 5.11 1.72 3.07 1.27 10.32 5.74 9.85-2.31-8.27 9.8-3.55 8.32-11.75 7.09 4.53 4.52-9.53 5.74-12.48m2.98 9.14c2.77.98 3.49-2.33 4.52-4.14 1.48 1.43 1.08-3.07-.16-2.88-3.46-2.69-7.54 6.84-4.36 7.02z"/><path fill="#6c5b35" d="M151.19 265.3c4.86-8.95 13.56-5.13 20.06-1.23l-2.13.88c-4.55-2.76-5.11 7.05-4.69 9.65-.42 5.53 7.83 3.22 5.68 9.4-9.63 1.07-18.13-9.69-18.92-18.7z"/><path fill="#a18c69" d="M205.71 267.87c-3.18-.18.9-9.71 4.36-7.02 1.24-.19 1.64 4.31.16 2.88-.51-3.92-4.63 2.08-4.52 4.14z"/><path fill="#d6cab4" d="M205.71 267.87c-.11-2.06 4.01-8.06 4.52-4.14-1.03 1.81-1.75 5.12-4.52 4.14z"/><path fill="#b9ad93" d="M171.25 264.07l.7.22c1.53 1.18 3.13 2.3 4.48 3.71-1.31 2.14-3.44 4.21-6.15 4.04.07-2.43-.44-4.79-1.16-7.09l2.13-.88z"/><path fill="#b8ad8b" d="M189.91 268.92c-.54-2.94.96-3.23 3.25-1.99.64 3.12-.87 3.51-3.25 1.99z"/><path fill="#3a3612" opacity=".64" d="M210.96 273.79c1.06-1.23 2.81-1.13 4.18-.54-.85 1.53-2.86.93-4.18.54z"/></svg>