<svg xmlns="http://www.w3.org/2000/svg" width="512" height="512" viewBox="0 0 384 384" xmlns:v="https://vecta.io/nano"><path fill="#575e2e" d="M215.09 97.32c3.16-.16 6.19-.96 8.83-2.69a6.82 6.82 0 0 0 6.07-.04l1.18.81c-6.22-.11.75 10.67-5.08 6.53-2.52-4.55-4.49 2.85-3.28 5.06l.4.92c-2.62 2.55-6.44-4.83-8.77-.52-2.52 4.84-9.72-.26-10.78-4.21-6.2-1.3-8.97 6.4-13.78 8.83-2.77.44-4.67-2.13-7-3.14 1.65 4.58 8.16 13.47-.79 13.24-4.08-2.71-8.7.39-10.87 3.99-.02-2.7-.32-5.74-2.66-2.39-6.26 1.94-.22-3.12-2.62-6.39-2.68.73-5.36 1.58-8.17 1.59 3.58-4.88 9.83-6.55 15.63-6.83 5.76 2.25 8.02-6.49 13.62-6.98 4.69-.75 8.41-3.47 12.04-6.29 1.97.25 3.98.42 5.97.15 1.7-.06 3.39-.38 4.99-.97 1.71.38 3.6.44 5.07-.67z"/><path fill="#707937" d="M226.09 101.93c5.83 4.14-1.14-6.64 5.08-6.53 4.38 3.45 8.1 7.68 12.76 10.84l6.18.46c1.23 1.22 2.46 2.44 3.74 3.6 2.14 2.19 4.62 3.99 7.26 5.53-4.47-2.49-9.77 5.19-13.05.18-1.54-1.59-3.69-2.27-5.72-2.98-3.17-1.73-8.1-9.35-11.22-3.82-2.56 1.02-5.31-5.19-8.31-2.22-1.21-2.21.76-9.61 3.28-5.06z"/><path fill="#6e7637" d="M189.88 112.01c4.81-2.43 7.58-10.13 13.78-8.83 1.06 3.95 8.26 9.05 10.78 4.21 2.33-4.31 6.15 3.07 8.77.52-.78 3.69-6.51 8.3-11.33 8.92-4.73.64-1.17-3.68-.75-5.98-3.7 1.77-7.41 5.61-6.18 10.19 5.72.19 11.89-6.19 17.37-2.43-1.69.67-5.61-.64-5.17 2.18-1.33-.59-2.44-.71-2.19 1.16.55 3.38-4.85 2.79-4.71 5.67 3.06 1.6 7.09 2.18 8.94 5.4-3.28.13-7.76-2.66-9.85 1.12.72 3.89 1.57 8.08 4.32 11.1.55.58 1.24.61 2.1.09 1.48-.5 3-.86 4.53-1.2-1.06 2.57-2.94 4.83-3.3 7.66-.81-3.8-6.22-5.75-6.74-.76-1.77-4.25-5.72-7.24-6.73-11.84-3.2-.06-6.22 1.79-9.55.94.63 1.66 1.46 3.24 2.09 4.91-4.97-.14-7.92-4.23-9.09-8.77 4.42 1.29 3.16-7.59 6.76-5.13 11.9 3.83-5.74-12.42-6.12-3.18-2.2-1.21-4.34-2.6-3.97 1.2-2.23-1.67-1.46-4.57-1.55-7.05 8.95.23 2.44-8.66.79-13.24 2.33 1.01 4.23 3.58 7 3.14z"/><path fill="#51562e" d="M271.09 108.24c1.89-1.91 3.5-4.12 5.68-5.72-2.83 4.79 6.27 3.83 3.31 9.5-.31 3.6 2.75 3.79 5.43 4.08 1.45 3.71-.61 5.63-2.48 7.85l-.26 1.93c-5.06 1.44-2.87-6.54-7.68-7.17 3.5-4.07.84-9.73-4.72-8.22-4.08-.35-2.05 4.6-.52 6.46-1.94-.42-3.87-.88-5.85-1.03 1.12 5.03 3.16 9.91 2.98 15.16-5.62-1.24-4.13-9.76-4.36-14.24l-1.51-1.01c-2.64-1.54-5.12-3.34-7.26-5.53 3.4-.43 6.77-1.14 10.18-1.51 2.78 1.37 5.13 1.19 7.06-.55z"/><path fill="#7c7f45" d="M276.77 102.52c1.97.96 4.23.92 6.24.12 6.05 4.44 8.74 10.71 14.11 15.42-.91 2.13.07 4.77 2.76 3.88l2.11 1.12-.03 2.94c-2.25-1.38-7.05-3.92-7.61.29-2.01 3.69 5.39 1.68 7.48 2.91l2.2.7 1.89 1.08c-3.83 4.96-8.72-1.17-13.44-1.36-5.39-3.28-6.59 2.02-3.38 4.3-6.3 6.69-2.34-5.74-6.64-6.72-1 3.88-6.89 4.55-2.46 8.83l-3.79-.76c1.07 3.72-1.52 6.95-2.01 10.53-.72 4.5-4.61-3.88-7.1-5 3.99-13.43-4.32-1.37-9.88-2.86-3.63-2.4 1.21-8.79-4.19-9.16-2.35 3.76 4.17 13.97-1.95 14.4-1.07-3.27-6.78-3.09-4.29-8.34-.87 2.6-3.49 7.34-5.31 2.68-2.38-3.75 2.14-4.79 2.06-.37 4.53-6.99-4.8-11.16-5.54-17.86 5.22.93 5.07-4.88-.14-3.48 1.59-.79 3.79-.86 4.48-2.78 2.03.71 4.18 1.39 5.72 2.98-2.03 2.81.08 12.08 1.24 4.88 1.35 1.59 2.49 3.37 3.89 4.94 2.11-1.32 4.17-2.94 6.81-2.15 1.5-3.99-4.46-1.27-4.01-4.45 3.34.87 5.55.07 6.63-2.39.23 4.48-1.26 13 4.36 14.24.18-5.25-1.86-10.13-2.98-15.16 1.98.15 3.91.61 5.85 1.03-1.53-1.86-3.56-6.81.52-6.46 5.56-1.51 8.22 4.15 4.72 8.22 4.81.63 2.62 8.61 7.68 7.17 2.91-.37 5.84-.35 8.76-.28l4.42-6.65c-2.49-1.4-10.31-1.44-6.81 2.87 2.61 4.09-4.19-.27-6.11 2.13 1.87-2.22 3.93-4.14 2.48-7.85-2.68-.29-5.74-.48-5.43-4.08 2.96-5.67-6.14-4.71-3.31-9.5m8.4 6.81c-7.26 2.24.33 7.67 4.22 4.11 4.25-2.12-2.25-3.37-4.22-4.11z"/><path fill="#899a54" d="M222.81 106.99c3-2.97 5.75 3.24 8.31 2.22 3.12-5.53 8.05 2.09 11.22 3.82-.69 1.92-2.89 1.99-4.48 2.78-1.87.96-1.81 3.67-2.82 5.37-2.34 1.93-9.82-2.58-5.14-3.8 2.83 1.14 4.22-4.72 1.4-5.29-1.72 2.4-3.29 6.38-6.29 3.05 1.33 3.46 1.38 5.85-2.69 3.47-5.48-3.76-11.65 2.62-17.37 2.43-1.23-4.58 2.48-8.42 6.18-10.19-.42 2.3-3.98 6.62.75 5.98 4.82-.62 10.55-5.23 11.33-8.92l-.4-.92z"/><path fill="#343516" opacity=".66" d="M243.93 106.24l6.18.46-6.18-.46z"/><path fill="#989c5e" d="M285.17 109.33c1.97.74 8.47 1.99 4.22 4.11-3.89 3.56-11.48-1.87-4.22-4.11z"/><path fill="#5c6a2f" d="M231.3 112.09c2.82.57 1.43 6.43-1.4 5.29-4.68 1.22 2.8 5.73 5.14 3.8-1.84 3.11-6.18 7.71-2.01 10.8 1.5 2.03 10.74 8.6 3.89 8.35-2.42-2.02-3.5-5.61-6.65-2.34 1.72-3.21-4.59-11.71-6.8-5.91-3.43-3.12.36-5.37 3.32-6.51-.05-7.22-6.76.59-10.76-.44.57-1.4 1.39-2.77 1.12-4.34-.44-2.82 3.48-1.51 5.17-2.18 4.07 2.38 4.02-.01 2.69-3.47 3 3.33 4.57-.65 6.29-3.05z"/><path fill="#524f1f" d="M235.04 121.18c1.01-1.7.95-4.41 2.82-5.37 5.21-1.4 5.36 4.41.14 3.48.74 6.7 10.07 10.87 5.54 17.86.08-4.42-4.44-3.38-2.06.37 1.82 4.66 4.44-.08 5.31-2.68-2.49 5.25 3.22 5.07 4.29 8.34l-8.97-1.62-5.19-1.23c6.85.25-2.39-6.32-3.89-8.35-4.17-3.09.17-7.69 2.01-10.8z"/><path fill="#895" d="M248.06 116.01c3.28 5.01 8.58-2.67 13.05-.18l1.51 1.01c-1.08 2.46-3.29 3.26-6.63 2.39-.45 3.18 5.51.46 4.01 4.45-2.64-.79-4.7.83-6.81 2.15-1.4-1.57-2.54-3.35-3.89-4.94-1.16 7.2-3.27-2.07-1.24-4.88z"/><path fill="#616a3b" d="M157.77 118.91c2.81-.01 5.49-.86 8.17-1.59 2.4 3.27-3.64 8.33 2.62 6.39-2.85 2.87.54 6.13 1.58 9.04 1.12 4.38 1.91 8.87 2.79 13.32-1.29 6.14 4.52 2 7.26.72-2.5 8.46-15.23 15.29-9.14 25.25 3.03-2.1 4.88-5.86 8.77-6.53 1.61-3.95-5.55-2.19-3.9-6.48 4.78-1.24 12.03 3.45 7.27 8.13-5.19 1.3-9.01 4.87-9.03 10.78 1.69 1.51 3.01-1.4 4.89-1.05.98 3.34-5.01 2.74-4.77 4.95 2.79 1.05 6.09 1 7.77 4.09.34-4.37-.44-9.5 4.92-11.01.94 2.22.61 4.7.85 7.05-1.28-.97-2.49-2.03-3.76-3 .82 3.72-.6 7.21-1.21 10.82-.26 4.26 5.85 2.81 3.69 8.41-5.92-.56-3.25-7.61-5.65-11.28-3.06 1.83-4.52 11.42.83 10.53 2.2 4.77 2.71 10.96-1.76 14.62.56 2.98 2.55.99 4.07-.11l.35.62c1.55 3.06 3.19 6.65 1.02 9.77 1.32-4.87-7.74-9.66-8.35-3.24-1.21 4.92 5.3 3.38 8.35 3.24 1.71 3.8-5.32 4.71.4 6.54-.29 1.73-1.99 3.51-.94 5.24 2.93 4.21-1.86 2.17-4.53 1.94 1.75 4.02-5.38 2.58-2.17 7.66 2.6 3.98 8.72 2.07 11.15 6.23-4.99 1.11-9.11-1.82-13.31-3.78-2.72 4.26-.29 9.77 3.6 12.27 3.13 2.67-1.21 4.57-3.7 4.96-1.1-6.35-9.68-5.26-9.94-11.42-.97-5.99 12.37-1.87 6.33-7.29-4.27.93-14.79-4.1-13.9 4.86-1.25 4.09-9.55-5.15-2.56-4.98 3.54-13.13-17.77-6.82-13.82-18.54 1.57 1.49 2.62 4.03 5.1 4.06-.02-3.34-4.42-7.93-.12-10.12 2.64-1.2 2.15-4.32 2.52-6.7 3.82-1.74 10.48-5.9 13.51-1.31 1.3 2.63 4.36 2.28 6.96 2.68 3.94 1.6 4.83-2.65 2.56-5.14-3.12-3.99 6.01-4.1 2.99-7.92-3.97-2.23-12.99-9.07-3.68-9.97-1.98-8.58-12.63 2.59-16.5-2.74 2.12-3.85 1.98-11.98-4.11-10.86-.83 5.59-5.49 3.89-6.39-.64 6.51.76 7.27-6.96 11.95-9.55 7.36-2.99 6.52-12.04 3.49-17.91l2.6.12c1.3.08 2.34-.64 3.18-1.55 1.32-1.26 2.61-2.61 3.35-4.31 1.16-1.67-.06-3.62-.52-5.31-.45-2.03-1.85-3.21-3.96-3.18 5.95-5.49-6.84-1.75-10.39-3.49.26 3.88-2.4 7.06-4.34 10.16 1.18-5.21.03-10.2-1.24-15.19 2.92-1.94 8.42-1.28 6.99-6.27.59-.67 1.19-1.34 1.81-1.99z"/><path fill="#9aa168" d="M289.14 121.82c-3.5-4.31 4.32-4.27 6.81-2.87l-4.42 6.65c-2.92-.07-5.85-.09-8.76.28l.26-1.93c1.92-2.4 8.72 1.96 6.11-2.13z"/><path fill="#858645" d="M214.96 121.95c-.25-1.87.86-1.75 2.19-1.16.27 1.57-.55 2.94-1.12 4.34 4 1.03 10.71-6.78 10.76.44-2.96 1.14-6.75 3.39-3.32 6.51-.61 1.49-1.25 2.96-1.75 4.49-.75 1.78-.55 3.74-.65 5.62l-.78 1.94c-.94-3.58-.22-9.11-5.15-9.23-1.93 3-1.48 6.91-1.48 10.34-2.75-3.02-3.6-7.21-4.32-11.1 2.09-3.78 6.57-.99 9.85-1.12-1.85-3.22-5.88-3.8-8.94-5.4-.14-2.88 5.26-2.29 4.71-5.67z"/><path fill="#585c33" d="M154.19 121.04l1.77-.14c1.43 4.99-4.07 4.33-6.99 6.27 1.27 4.99 2.42 9.98 1.24 15.19 1.94-3.1 4.6-6.28 4.34-10.16 3.55 1.74 16.34-2 10.39 3.49-3.16-.41-6.44.47-8.9 2.51-.36 4.31 3.15 7.71 4.25 11.72 3.03 5.87 3.87 14.92-3.49 17.91-4.68 2.59-5.44 10.31-11.95 9.55.9 4.53 5.56 6.23 6.39.64 6.09-1.12 6.23 7.01 4.11 10.86 3.87 5.33 14.52-5.84 16.5 2.74-9.31.9-.29 7.74 3.68 9.97 3.02 3.82-6.11 3.93-2.99 7.92 2.27 2.49 1.38 6.74-2.56 5.14 1.16-1.76 1.59-4-.61-5.08-2.9-1.74.72-4.07 1.47-6.08-3.64-1.83-7.05-4.1-10.77-5.77 1.06 1.49 5.19 7.22 1.34 5.86-5.35-5.38-12.5-9.39-20.11-9.99-4.21-3.43-5.7-9.39-10.23-12.63-.91.96-1.79 3.27-.03 3.87 5.09 1.74 2.12 8.51 2.93 12.31-3.18.28-4.35-3.09-6.73-4.49-.18-3.3-.29-6.58-.65-9.85 4.37-5.11 5.29-11.36 6.81-17.64a40.3 40.3 0 0 0 1.92-2.2c2.8-7.59 6.7-14.18 3.68-22.87l.14-2.07.21-.95.68-2.85.22-.89c1.15-2.45 2.61-4.77 4.74-6.48l9.2-5.81z"/><path fill="#808b47" d="M171.22 126.1c2.17-3.6 6.79-6.7 10.87-3.99.09 2.48-.68 5.38 1.55 7.05-.37-3.8 1.77-2.41 3.97-1.2.38-9.24 18.02 7.01 6.12 3.18-3.6-2.46-2.34 6.42-6.76 5.13-2.37-5.39-2.52 2.28-3.26 4.39-2.5 3.31-6.7 5.16-10.78 5.41-.88-4.45-1.67-8.94-2.79-13.32-1.04-2.91-4.43-6.17-1.58-9.04 2.34-3.35 2.64-.31 2.66 2.39z"/><path fill="#3d4721" opacity=".61" d="M301.99 123.06c1.96 1.4 1.27 4.59 2.04 6.84l-2.2-.7.13-3.2.03-2.94z"/><path fill="#9caf77" d="M294.35 126.29c.56-4.21 5.36-1.67 7.61-.29l-.13 3.2c-2.09-1.23-9.49.78-7.48-2.91z"/><path fill="#55652d" opacity=".98" d="M282.46 127.2c4.3.98.34 13.41 6.64 6.72 3.85 1.1 6.39 5.7 10.76 4.77 3.68-1.11 6.7 3.4 10.29 1.45l-1.03 1.98-7.07-.06-1.96-1.08c-2.93-1.41-6.36-1.23-9.39-.36-2.74.67-5.42 1.7-7.68 3.4 1.51-3.17-1.53-5.52-3.02-7.99-4.43-4.28 1.46-4.95 2.46-8.83z"/><path fill="#424b21" d="M253.03 128.78c5.4.37.56 6.76 4.19 9.16 5.56 1.49 13.87-10.57 9.88 2.86-.65 2.44 1.34 3.86 2.86 5.34-.4 2.72-8.3 6.94 1.56 4.29 3.39-.36 3.69 4.19 4.57 6.54l-2.25.18c-8.86-2.07-17.31-6.53-22.76-13.97 6.12-.43-.4-10.64 1.95-14.4z"/><path fill="#929d53" d="M289.1 133.92c-3.21-2.28-2.01-7.58 3.38-4.3 4.72.19 9.61 6.32 13.44 1.36 3.35 1.72 4.68 5.57 4.23 9.16-3.59 1.95-6.61-2.56-10.29-1.45-4.37.93-6.91-3.67-10.76-4.77z"/><path fill="#3c4219" opacity=".97" d="M223.47 132.08c2.21-5.8 8.52 2.7 6.8 5.91 3.15-3.27 4.23.32 6.65 2.34-3.3-.62-6.54-1.51-9.73-2.58-1.78-.56-3.64-.86-5.47-1.18.5-1.53 1.14-3 1.75-4.49z"/><path fill="#8f9d65" d="M183.71 140.66c.74-2.11.89-9.78 3.26-4.39 1.17 4.54 4.12 8.63 9.09 8.77-.63-1.67-1.46-3.25-2.09-4.91 3.33.85 6.35-1 9.55-.94 1.01 4.6 4.96 7.59 6.73 11.84 1.08 2.02 5.14 1.94 4.65 4.72-2.59 1.45-5.72 2.56-4.16 6.11-3.63-1.62-10.92 2.88-9.16-4.63l-5.58-4.19c-.31 1.87 2.71 6.74-.7 5.84.81-3.54-.28-5.25-3.27-5.12 2.23.93 1.73 3.74-.81 3.16-2.62-3.84 1.65-9.22-2.93-12.26-3.02-2.6-5.9 1.98-3.43 4.54 3.73 3.75-8.84 7.8-4.74 3.99 3.35-.55 1.66-4.76.07-6.4-2.74 1.28-8.55 5.42-7.26-.72 4.08-.25 8.28-2.1 10.78-5.41m19.21 8.27c.97 2.42 2.57 9.94 5.98 5.85.99-3.47-3.41-4.96-5.98-5.85z"/><path fill="#7e6b46" d="M156.04 138.2c2.46-2.04 5.74-2.92 8.9-2.51 2.11-.03 3.51 1.15 3.96 3.18-5.07-.01-8.22 6.92-6.01 11.17l-2.6-.12c-1.1-4.01-4.61-7.41-4.25-11.72z"/><path fill="#aa9266" d="M215.14 134.9c4.93.12 4.21 5.65 5.15 9.23-1.53.34-3.05.7-4.53 1.2.54-2.01 4.04-5.8.66-6.74-3.76-2.61-1.02 4.64-.66 6.74-.86.52-1.55.49-2.1-.09 0-3.43-.45-7.34 1.48-10.34z"/><path fill="#849758" d="M276.21 135.27l3.79.76c1.49 2.47 4.53 4.82 3.02 7.99l-.41.73c-.87 1.08-.74 1.92.39 2.53 1.71 1.66 7.78 2.26 4.39 5.05-1.72 3.82-6.2 1.72-9.29 3.27-1.9-2.76-.06-8.61-3.9-9.8.49-3.58 3.08-6.81 2.01-10.53z"/><path fill="#d6cab8" d="M215.76 145.33c-.36-2.1-3.1-9.35.66-6.74 3.38.94-.12 4.73-.66 6.74z"/><path fill="#9d926e" d="M162.89 150.04c-2.21-4.25.94-11.18 6.01-11.17.46 1.69 1.68 3.64.52 5.31-4.1-3.17-7.23 1.12-3.35 4.31-.84.91-1.88 1.63-3.18 1.55z"/><path fill="#57662c" opacity=".98" d="M267.1 140.8c2.49 1.12 6.38 9.5 7.1 5 3.84 1.19 2 7.04 3.9 9.8 3.09-1.55 7.57.55 9.29-3.27 3.39-2.79-2.68-3.39-4.39-5.05l1.88-.33c5 1.65 10.92.48 15.25 3.91-4.03-.45-12.01-2.85-9.95 3.86 2.22 6.14 10.8-3.56 8.88 4.27l-8.13.23c-1.9-.49-3.77-1.07-5.71-1.38-3.04-.51-6.06-.85-9.13-.87-.88-2.35-1.18-6.9-4.57-6.54-9.86 2.65-1.96-1.57-1.56-4.29-1.52-1.48-3.51-2.9-2.86-5.34z"/><path fill="#d2cbb7" d="M166.07 148.49c-3.88-3.19-.75-7.48 3.35-4.31-.74 1.7-2.03 3.05-3.35 4.31z"/><path fill="#7e8744" d="M184.86 149.2c-2.47-2.56.41-7.14 3.43-4.54 4.58 3.04.31 8.42 2.93 12.26 2.54.58 3.04-2.23.81-3.16 2.99-.13 4.08 1.58 3.27 5.12 3.41.9.39-3.97.7-5.84l5.58 4.19c-1.76 7.51 5.53 3.01 9.16 4.63-1.56-3.55 1.57-4.66 4.16-6.11.49-2.78-3.57-2.7-4.65-4.72.52-4.99 5.93-3.04 6.74.76 4.97 7.25 11.72 13.99 13.27 22.97-.14 5.19-.15 10.39-.54 15.58-9.1 2.14-6.54-6.95-7.11-11.74 3.84-3.79-3.03-3.14-3.38.11-5.99-.6 1.64 5.07-2.89 7.61-3.38 4.11 1.22 1.58 3.68.65 2.07 5.57-11.96 11.05-12.62 4.89-.71-1.39-1.89-2.48-2.85-3.69-2.82 1.25-1.17 4.8-2.39 6.85-5.86-2.79 1.18-8.52-3.3-12.81 4.19 4.22 9.14.04 9.55-4.86 3.23-6.19-3.36-11.76-9.01-11.64-2.98-.48-8.92-3.14-10.11 1.55.17 5.59 2.75 10.75 7.89 13.47-6.52-1.29-9.87.03-6.11 5.09-.93 4.5-4.6 3.93-8.22 3.97.61-3.61 2.03-7.1 1.21-10.82 1.27.97 2.48 2.03 3.76 3-.24-2.35.09-4.83-.85-7.05-5.36 1.51-4.58 6.64-4.92 11.01-1.68-3.09-4.98-3.04-7.77-4.09-.24-2.21 5.75-1.61 4.77-4.95-1.88-.35-3.2 2.56-4.89 1.05.02-5.91 3.84-9.48 9.03-10.78 4.76-4.68-2.49-9.37-7.27-8.13-1.65 4.29 5.51 2.53 3.9 6.48-3.89.67-5.74 4.43-8.77 6.53-6.09-9.96 6.64-16.79 9.14-25.25 1.59 1.64 3.28 5.85-.07 6.4-4.1 3.81 8.47-.24 4.74-3.99m-10.6 7.03c-2.21 5.41 4.88-.39 0 0m37.08 7.01c-1.19 1.73-2.49 3.52-2.48 5.73 1.8-1.16 3.67-2.61 5.96-1.86 2.78 4.32-3.97 6.47-3.9 10.89 2.43-.57 6.34-.55 4.34-3.92 7.23 1.39-.01-5.07 2.39-8.68 1.38-3.96-4.03-1.05-6.31-2.16z"/><path fill="#6b7741" d="M202.92 148.93c2.57.89 6.97 2.38 5.98 5.85-3.41 4.09-5.01-3.43-5.98-5.85z"/><path fill="#8b9857" d="M290.18 154.72c-2.06-6.71 5.92-4.31 9.95-3.86 1.16.87 2.15 1.95 3.14 3.01a5.74 5.74 0 0 0 .19 4.31l-.45.75-3.95.06c1.92-7.83-6.66 1.87-8.88-4.27z"/><path fill="#c3bb9b" d="M174.26 156.23c4.88-.39-2.21 5.41 0 0z"/><path fill="#969c69" d="M211.34 163.24c2.28 1.11 7.69-1.8 6.31 2.16-2.4 3.61 4.84 10.07-2.39 8.68 2 3.37-1.91 3.35-4.34 3.92-.07-4.42 6.68-6.57 3.9-10.89-2.29-.75-4.16.7-5.96 1.86-.01-2.21 1.29-4 2.48-5.73z"/><path fill="#686035" d="M189.29 167.26c1.19-4.69 7.13-2.03 10.11-1.55l-1.4 4c-1.16 2.8-1.21 5.91-.44 8.8l.4 2.56-.78-.34c-5.14-2.72-7.72-7.88-7.89-13.47z"/><path fill="#8b7126" d="M199.4 165.71c5.65-.12 12.24 5.45 9.01 11.64-.41 4.9-5.36 9.08-9.55 4.86-.22-.29-.67-.85-.9-1.14l-.4-2.56c2.5-.53 9.28 1.4 6.87-2.7l-.28-.87c-.33-3.35-3.04-4.92-6.15-5.23l1.4-4z"/><path fill="#977f54" d="M197.56 178.51c-.77-2.89-.72-6 .44-8.8 3.11.31 5.82 1.88 6.15 5.23-2.3-.92-5.46-1.39-5.27 2.11 1.94.11 3.82-.38 5.55-1.24 2.41 4.1-4.37 2.17-6.87 2.7z"/><path fill="#bfad94" d="M198.88 177.05c-.19-3.5 2.97-3.03 5.27-2.11l.28.87c-1.73.86-3.61 1.35-5.55 1.24z"/><path fill="#505e29" opacity=".74" d="M230.26 174.76c.9 5.32.68 10.74.84 16.11l-1.38-.53c.39-5.19.4-10.39.54-15.58z"/><path fill="#5a662e" d="M219.23 178.71c.35-3.25 7.22-3.9 3.38-.11.57 4.79-1.99 13.88 7.11 11.74l1.38.53.76.27c3.73 1.46 7.63.68 11.44.11 8.33-1.36 15.23 4.06 21.11 9.14-5.19.7-.98 8.02-1.46 11.05l-1.75 1.6c-7.15 2.84-14.11 6.76-22.16 6.13 2.44-1.85 2.25-6.33 5.89-6.36 1.87 5.79 6.73-5.9 5.46 2.44 4.69-1.06 8.51-5.62 9.62-10.14-2.35-2.83-4.82-8.08-9.02-4.81-3.29-5.48-13.85-4.46-13.71 2.87.21 3.75-3.4 3.3-2.54-.37.95-2.72 2.02-5.4 2.99-8.12-3.35.41-4.18 4.17-6.24 6.31-.32-2.22-2.24-4.62-4.63-3.24-3.67-.12-1.77 9.12-5.71 5.2-2.3-6.73-3.26 3.53-5.35 5.86-3.13 4.65 5.13 7.01 6.99 2.98.18-1.55.88-1.72 1.86-.63 2.7 1.46 5.93 7 8.43 2.93 3.64-3.69 4.79 1.87 5.09 5.18l-6.1.91c-2.82 2.09-8.86-1.02-8.54 3.82.74 4.04-9.66 5.16-7.35.41 1.69-.79 5.52-.37 4.77-3.18-7.77-.13-18.68-3.4-16.97-13.3.76-5.55-3.65 4.31-2.98-.85.82-3.14-3.53.06-3.38-2.95.46-1.13 1.02-2.21 1.7-3.23 1.97.73.46 4.13 3.67 4.17.91-4.55.68-9.79 4.41-13.21.66 6.16 14.69.68 12.62-4.89-2.46.93-7.06 3.46-3.68-.65 4.53-2.54-3.1-8.21 2.89-7.61z"/><path fill="#50552b" d="M131.07 180.96c4.53 3.24 6.02 9.2 10.23 12.63 7.61.6 14.76 4.61 20.11 9.99 3.85 1.36-.28-4.37-1.34-5.86 3.72 1.67 7.13 3.94 10.77 5.77-.75 2.01-4.37 4.34-1.47 6.08 2.2 1.08 1.77 3.32.61 5.08-2.6-.4-5.66-.05-6.96-2.68-3.03-4.59-9.69-.43-13.51 1.31-.37 2.38.12 5.5-2.52 6.7-4.3 2.19.1 6.78.12 10.12-2.48-.03-3.53-2.57-5.1-4.06-3.95 11.72 17.36 5.41 13.82 18.54-6.99-.17 1.31 9.07 2.56 4.98-.89-8.96 9.63-3.93 13.9-4.86 6.04 5.42-7.3 1.3-6.33 7.29.26 6.16 8.84 5.07 9.94 11.42l.31 2.36c-2.54-1.48-5.41-2.16-8.29-2.58l-.77-.14c-7.21-3.75-17.26-6.24-21.17 3.06 1.12 7.1 8.44 10.97 12.47 16.53l5.76.2c2.71.8 7.97.88 6.79 5 .23 2.38-5.39-.13-3.78 3 2.27 1.76 4.6 3.48 6.96 5.14-8.97-2.36-19.7 4.11-26.02-4.01-2.32-1.76-5.68-.36-8.39-.81-2.05-.15-3.43-2.08-4.05-3.87a203.56 203.56 0 0 0 0-8.56c.29-1.54-1.04-2.49-1.89-3.55 3.07-.76 9.38 3.05 10.53-1.82.9-4.24 1.74-9.75-3.11-11.6 4.36-3.5 1.65-8.67-.39-12.74-3.02.63-5.89 1.79-8.76 2.88-.65-1.96-1.39-3.89-2.05-5.85-1.11-7.47.14-15.56-3.85-22.31-.07-1.23-.11-2.45-.13-3.67l.11-.91c.13-3.89 1.6-7.44 4.01-10.41 2.62 1.32 7.31 7.93 4.87-1.74 3.27-1.51 10.65 1.96 14.45 4.89.43-4.7 4.16-3.8 7.61-2.93-2.47-2.57-7.02-5.12-5.55-9.32.86-4.11-5.66-2.15-8.42-3.04-3.41-1.29-6 1.61-9.04 2.56-3.2 1.78-4.87-3.19-7.27-4.49l.4-2.03c2.38 1.4 3.55 4.77 6.73 4.49-.81-3.8 2.16-10.57-2.93-12.31-1.76-.6-.88-2.91.03-3.87z"/><path fill="#9aa765" d="M191.07 185.82c-3.76-5.06-.41-6.38 6.11-5.09l.78.34.9 1.14c4.48 4.29-2.56 10.02 3.3 12.81-2.44 4.56-8.45-3.11-6.15-6.03 2.34-3.27-3.09-2.23-4.94-3.17z"/><path fill="#3a3622" opacity=".72" d="M125.75 183.44l.84-.64.65 9.85-.4 2.03-.7.57-.39-11.81z"/><path fill="#878f52" d="M182.85 189.79c3.62-.04 7.29.53 8.22-3.97 1.85.94 7.28-.1 4.94 3.17-2.3 2.92 3.71 10.59 6.15 6.03 1.22-2.05-.43-5.6 2.39-6.85.96 1.21 2.14 2.3 2.85 3.69-3.73 3.42-3.5 8.66-4.41 13.21-3.21-.04-1.7-3.44-3.67-4.17 3-2.59-4.2-3.8-6.14-4.96-1.18 2.6-1.01 16.02-6.23 9.41-1.63.18-1.77 4.73-2.92 6.61-1.52 1.1-3.51 3.09-4.07.11 4.47-3.66 3.96-9.85 1.76-14.62-5.35.89-3.89-8.7-.83-10.53 2.4 3.67-.27 10.72 5.65 11.28 2.16-5.6-3.95-4.15-3.69-8.41z"/><path fill="#303817" opacity=".74" d="M231.86 191.14c3.82-.08 7.61-.02 11.44.11-3.81.57-7.71 1.35-11.44-.11z"/><path fill="#424923" d="M126.84 194.68c2.4 1.3 4.07 6.27 7.27 4.49 3.04-.95 5.63-3.85 9.04-2.56 2.76.89 9.28-1.07 8.42 3.04-1.47 4.2 3.08 6.75 5.55 9.32-3.45-.87-7.18-1.77-7.61 2.93-3.8-2.93-11.18-6.4-14.45-4.89 2.44 9.67-2.25 3.06-4.87 1.74 2.07-2.49 4.15-5.92.05-7.57-1.8-1.77-3.37-3.86-3.4-6.5z"/><path fill="#697c43" d="M231.49 200.99c2.06-2.14 2.89-5.9 6.24-6.31l-2.99 8.12c-.78 4.82-5.47 4.79-6.3.09l-3.79 8.27c-.98-1.09-1.68-.92-1.86.63-1.86 4.03-10.12 1.67-6.99-2.98 2.09-2.33 3.05-12.59 5.35-5.86 3.94 3.92 2.04-5.32 5.71-5.2 2.39-1.38 4.31 1.02 4.63 3.24z"/><path fill="#98a661" d="M193.18 195.94c1.94 1.16 9.14 2.37 6.14 4.96-.68 1.02-1.24 2.1-1.7 3.23-.47-1.46-2.44-6.33-3.04-2.56-2.37 5.09 6.39 5.12 6.34 10.36-2.84 1.24-5.25 2.87-6.22 6-4.19.53-6.61-4.06-10.32-5.35l-.35-.62c1.15-1.88 1.29-6.43 2.92-6.61 5.22 6.61 5.05-6.81 6.23-9.41z"/><path fill="#809149" d="M237.28 203.17c-.14-7.33 10.42-8.35 13.71-2.87-2.13 5.78-7.57 3.17-11.87 1.87-1.5 2.69-.61 5.78.07 8.59 1.65 1.93 5.62-.91 5.74 2.05-3.64.03-3.45 4.51-5.89 6.36l-.87.1c-.3-3.31-1.45-8.87-5.09-5.18-2.5 4.07-5.73-1.47-8.43-2.93 1.37-2.71 2.59-5.49 3.79-8.27.83 4.7 5.52 4.73 6.3-.09-.86 3.67 2.75 4.12 2.54.37z"/><path fill="#97aa65" d="M250.99 200.3c4.2-3.27 6.67 1.98 9.02 4.81-1.11 4.52-4.93 9.08-9.62 10.14 1.27-8.34-3.59 3.35-5.46-2.44-.12-2.96-4.09-.12-5.74-2.05-.68-2.81-1.57-5.9-.07-8.59 4.3 1.3 9.74 3.91 11.87-1.87z"/><path fill="#838a45" d="M194.58 201.57c.6-3.77 2.57 1.1 3.04 2.56-.15 3.01 4.2-.19 3.38 2.95-.67 5.16 3.74-4.7 2.98.85-1.71 9.9 9.2 13.17 16.97 13.3.75 2.81-3.08 2.39-4.77 3.18-2.31 4.75 8.09 3.63 7.35-.41-.32-4.84 5.72-1.73 8.54-3.82-1.72 7.96-2.63 17.27-8.92 23.16-.9-7.44-19.37.74-8.12-.99-1.84 4.11-3.35 8.98 2.95 8.59 4.61 2.5-2.13 5.85-2.91 9.13-3.61.82-5.93 3.27-7.07 6.76-1.19-.25-2.38-.49-3.57-.66 5.85-9.08-8.76 1.31-.55.69-5.54 7.6-5.44-8.86.79-6.47 2.64 1.06.66-2 .5-3.28 5.52-.73 4.6-13.74-1.39-11.42-2.58 1.92 3.68.43 2.14 3.2-4.97 1.44-9.06 4.3-12.14 8.47-.17 4.62-.86 9.27-.11 13.87l-1.59.19c-3.09 8.69 2.34 1.77 5.26 3.83 3.53-1.02 6.54-4.3 9.82-6.28-.61 5.18-6.37 7.29-10.06 10.14-4.25.19-9.55 3.39-12.39-1.05.6 2.1 1.59 4.05 2.53 6.02-1.36 1.44-2.77 2.84-4.25 4.17-4.25 0 1.22-2.21.95-4.15-2.09-6.11-13.12 4.72-9.8-2.85 2.47-3.03-4.3-1.3-6.08-2.25 3.15-1.04 3.36-6.71-.04-6.89 1.04-1.74 2.19-3.41 3.22-5.15-.04 5 3.62 8.41 5.39 12.72 10.2 2.65-.75-3.45 1.27-6.88 1.73-2.42-.89-4.76-1.69-7.03l-.31-2.36c2.49-.39 6.83-2.29 3.7-4.96-3.89-2.5-6.32-8.01-3.6-12.27 4.2 1.96 8.32 4.89 13.31 3.78-2.43-4.16-8.55-2.25-11.15-6.23-3.21-5.08 3.92-3.64 2.17-7.66 2.67.23 7.46 2.27 4.53-1.94 2.46-3.45 5.7-.18 8.13 1.5-3.94.98-10.19 2.01-6.74 7.27 4.45.49 8.27-2.07 11.26-5 1.68-1.01 6.24.23 5.2-2.59-2.07-1.14-4.4-1.57-6.55-2.48-3.34-3.72-3.18-10.54-8.06-12.8-3.13 3.48 2.81 6.47 2.87 10.21-1.75-.34-3.35-2.27-5.17-1.35-5.72-1.83 1.31-2.74-.4-6.54 2.17-3.12.53-6.71-1.02-9.77 3.71 1.29 6.13 5.88 10.32 5.35.97-3.13 3.38-4.76 6.22-6 .05-5.24-8.71-5.27-6.34-10.36m14.71 22.78c-7.68 2.06 4.14 9.73 4.58 2.93-3.49 1.03-1.96-4.18-4.58-2.93m-31.3 25.64c-.21 2.04.28 4.04 1.14 5.88 4.44.27 2.7-7.39-1.14-5.88m6.95 15.04c-.02 1.75.6 3.39 1.23 5 3.01-1.02 2.66-6.83-1.23-5z"/><path fill="#7b8645" opacity=".93" d="M262.95 211.44c.48-3.03-3.73-10.35 1.46-11.05l.91.45c1.12 3.73 1.47 8.42-2.37 10.6z"/><path fill="#7b8752" d="M177.05 219.11c.61-6.42 9.67-1.63 8.35 3.24-3.05.14-9.56 1.68-8.35-3.24z"/><path fill="#9eab64" d="M188.1 220.03c4.88 2.26 4.72 9.08 8.06 12.8 2.15.91 4.48 1.34 6.55 2.48 1.04 2.82-3.52 1.58-5.2 2.59-2.99 2.93-6.81 5.49-11.26 5-3.45-5.26 2.8-6.29 6.74-7.27-2.43-1.68-5.67-4.95-8.13-1.5-1.05-1.73.65-3.51.94-5.24 1.82-.92 3.42 1.01 5.17 1.35-.06-3.74-6-6.73-2.87-10.21z"/><path fill="#6c5f2a" d="M209.29 224.35c2.62-1.25 1.09 3.96 4.58 2.93-.44 6.8-12.26-.87-4.58-2.93z"/><path fill="#73672d" opacity=".98" d="M215.03 242.35c-11.25 1.73 7.22-6.45 8.12.99-1.61 2.53-6.98 4.26-5.17 7.6-6.3.39-4.79-4.48-2.95-8.59z"/><path fill="#8a9d5e" d="M203.78 245.69c5.99-2.32 6.91 10.69 1.39 11.42-12.91-4.35-2.87 13.65-11.5 14.12-.75-4.6-.06-9.25.11-13.87 3.08-4.17 7.17-7.03 12.14-8.47 1.54-2.77-4.72-1.28-2.14-3.2z"/><path fill="#596633" d="M132.1 251.9c2.87-1.09 5.74-2.25 8.76-2.88 2.04 4.07 4.75 9.24.39 12.74 4.85 1.85 4.01 7.36 3.11 11.6-1.15 4.87-7.46 1.06-10.53 1.82-3.65-3.03-2.66-8.29-4.93-12.13-.24-4.07.36-8.08 3.2-11.15z"/><path fill="#c6b89e" d="M177.99 249.99c3.84-1.51 5.58 6.15 1.14 5.88-.86-1.84-1.35-3.84-1.14-5.88z"/><path fill="#776e30" d="M193.67 271.23c8.63-.47-1.41-18.47 11.5-14.12.16 1.28 2.14 4.34-.5 3.28-6.23-2.39-6.33 14.07-.79 6.47l.55-.69c1.19.17 2.38.41 3.57.66l-.84 2.14c-3.28 1.98-6.29 5.26-9.82 6.28-2.92-2.06-8.35 4.86-5.26-3.83l1.59-.19z"/><path fill="#6b5c38" d="M145.98 266.11c3.91-9.3 13.96-6.81 21.17-3.06l-2.32.85c-4.68.93-4.6 6.5-5.08 10.23-1.55 3.79.22 8.01 4.46 8.71l-5.76-.2c-4.03-5.56-11.35-9.43-12.47-16.53z"/><path fill="#d4c7b1" d="M203.88 266.86c-8.21.62 6.4-9.77.55-.69l-.55.69z"/><path fill="#b7aa8f" d="M167.15 263.05l.77.14c1.16 1.21 2.34 2.4 3.32 3.77l-3.22 5.15c-3.16-.85-4.27-5.38-3.19-8.21l2.32-.85z"/><path fill="#626c34" d="M167.92 263.19c2.88.42 5.75 1.1 8.29 2.58.8 2.27 3.42 4.61 1.69 7.03-2.02 3.43 8.93 9.53-1.27 6.88-1.77-4.31-5.43-7.72-5.39-12.72-.98-1.37-2.16-2.56-3.32-3.77z"/><path fill="#917c50" d="M159.75 274.13c.48-3.73.4-9.3 5.08-10.23-1.08 2.83.03 7.36 3.19 8.21-1.59 3.5-5.06 2.7-8.27 2.02z"/><path fill="#adab85" d="M184.94 265.03c3.89-1.83 4.24 3.98 1.23 5-.63-1.61-1.25-3.25-1.23-5z"/><path fill="#797031" d="M168.02 272.11c3.4.18 3.19 5.85.04 6.89 1.78.95 8.55-.78 6.08 2.25-3.32 7.57 7.71-3.26 9.8 2.85.27 1.94-5.2 4.15-.95 4.15-2.24 3.23-3.74 8.96-8.81 7.73-2.36-1.66-4.69-3.38-6.96-5.14-1.61-3.13 4.01-.62 3.78-3 1.18-4.12-4.08-4.2-6.79-5-4.24-.7-6.01-4.92-4.46-8.71 3.21.68 6.68 1.48 8.27-2.02z"/><path fill="#636c28" opacity=".93" d="M184.71 278.06c2.84 4.44 8.14 1.24 12.39 1.05-3.14 1.93-6.56 3.34-9.86 4.97-.94-1.97-1.93-3.92-2.53-6.02z"/><path fill="#312f18" opacity=".66" d="M134.71 284.18l1.01-5.45v8.56c-.4-1.02-.73-2.06-1.01-3.11z"/><path fill="#292812" opacity=".67" d="M139.77 291.16c2.71.45 6.07-.95 8.39.81l-8.39-.81z"/></svg>