<svg xmlns="http://www.w3.org/2000/svg" width="512" height="512" viewBox="0 0 384 384" xmlns:v="https://vecta.io/nano"><path fill="#585d31" d="M197.09 91.97c7.48-5.59 14.63 1.8 21.81 4.19 1.09 1.19 2.13 2.43 3.19 3.65l-.99.14c-2.92 1.48-8.83-1.85-8.3 3.15-1.97-1.55-3.58-4.61-6.48-4-1.13 1.67-.69 5.05-3.36 4.98-.47-1.59 2.16-6.32-.87-4.97-5.4.96 3.76 8.87-3.01 9.03 1.99-4.99-3.13-10.04-7.81-10.01-2.79 2.7-7.18 10.52-1.37 11.83 3.51-6.54 9.38.37 8.93 5.34-3.08-4.18-8.43-5.82-11.41-.59-1.2-3.69-4.04-2.55-4.65.78-3.57.11-2.02-3.04-1.92-5.31-3.4-1.8-10.37-1.36-10.45 3.48-.07 4.26-6 3.11-8.5 5.44 5.66 3.05 3.88 9.51 4.23 15.06 3.69-2.41 4.96-6.78 6.33-10.71 4.54.11 10.35-2.2 13.84 1.25-4.09.73-8.23 1.27-12.18 2.57.25 4.73 3.98 9.3 6.52 13.24 1.31 1.55 3.19.95 4.9.68-.28 3.77.49 7.7-1.27 11.23-3.84 3.1-7.63 6.31-11.01 9.91-1.75 3.84 4.11 1.66 4.51 4.94 3.15 3.49-2.52 7.89 1.11 11.1 2.88 4.98 7.35 8.42 11.84 11.86-2.74-9.88 6-3.82 5.09.41-2.26 1.27-4.6 2.4-6.81 3.77 2.71.71 4.95 2.47 5.08 5.45-3.78 1.27-9.85 3.97-12.2-.83-4.11-2.88-8.94.73-13.06 1.79 1.43-1.31 3.01-2.45 4.55-3.62 7.5-2.26-7.58-4.87-3.23-9.03 2.91-4.33-4.42-3.99-6.89-5.79.16 4.07-4.05 1.27-6.39 2.43-3.77.39-7.96 5.19-11.17 1.48-1.99-2.52-3.26 2.54-5.64.87-.68-5.36-3.17-10.91.19-15.9a38.13 38.13 0 0 0 2.07-2.15c-.68-9.33 2.81-18.05 6.04-26.26-.23-1.35-.55-2.68-.91-3.99l-.24-.95c-.1-1.27-.16-2.53-.19-3.8 1.55-2.41 2-5.24 2.13-8.06 2.1-4.39 5.7-7.78 10.01-9.97 4.51-2.66 8.06-6.62 12.28-9.69 1.79-4.08 3-9.56 7.86-11.06 6-.7 12.41-.13 17.8-3.36z"/><path fill="#747a39" d="M191.27 98.13c4.68-.03 9.8 5.02 7.81 10.01 6.77-.16-2.39-8.07 3.01-9.03 3.03-1.35.4 3.38.87 4.97 2.67.07 2.23-3.31 3.36-4.98 2.9-.61 4.51 2.45 6.48 4-.33 5.54-5.84 8.63-10.96 7.19 1.03 1.56 1.42 4.56 3.69 4.54.8-3.52 2.84-5.33 6.9-3.36 8-2.1 2.91 3.55 2.5 6.52 8.98 3.87 2.84-4.74 8.99-5.84-.12 9.78 4.41-5.1-2.29-2.6-6.3-.48 5.34-7.25-.53-9.6l.99-.14c2.74.85 5.48 1.83 7.83 3.53 1.95 2.68 9.01 5.94 8.27.67.38-4.55 10.18 4.76 8.1-1.11-1.14-2.33 1.35-1.97 2.9-2.17 4.19.03 1.33 7.95 7.41 5.81 4.54.41 3.6 5.9 4.29 9.14-4.23 1.47-2.55 8.57 1.71 5.39-2.24 5.41 6.61 4.4 9.33 4.91l-.47 1.44c-4.24.01-8.49-.08-12.6 1.12l-1.91.32c-.57-5.9.03-13.22-3.75-18.07-1.37 3.28 1.41 9.97-4.32 9 2.07-3.14 2.81-5.28-3.09-4.5-1.01-5.6-3.4-1.31-4.74 1.54-3.37 1.2-8 3.94-7.93 7.93 1.95 2.73 2.07-.6 3.05-2.1 2.38-.29 4.71-.8 7.03-1.38 1 3.98-7.69 7.52-1.2 9.24-1.31 4.71 3.16 3.33 6.14 2.7-4.89 5.56 2.15 2.11 5.65 3.93-3.01 7.18 7.61 1.7 11.22 2.66 1.31-4.39-3.76-4.48-6.25-6.52 1.99.28 3.98.53 5.99.7 3.06 1.45 6.26 2.61 9.23 4.25 2.77 4.32-1.16 5.51-3.84 5.99l-7.05-.31c-3.01-.46-5.97-.84-8.99-1.06-1.97-.9-2.66-2.89-3.34-4.76-2.76-.3-1.58 5-4.76 3.95-3.03.73-2.8-3.12-3.34-5.04-4.34 4.66-6.71-3.5-10.23-5.43-.84-.97-2.04-1.46-3.17-1.99-1.53-2.76-1.81-6.75-4.32-8.64-2.55 1.79-4.39 4.44-6.97 6.19-2.16-.39-.62-4.61-3.43-2.82-.67 2.05-1.69 3.92-3.23 5.45-1.14.34-2.51 2.56-3.6 1.39-1.02-4.2 5.18-3.28 4.35-7.27-2.3.33-8 5.73-6.52.81.99-2.79-4.03-1.43-4.4-3.57 3.31-.83 6.74-1.91 9.93-.01-1.15-6.73-9.13-1.82-12.24-5.82.45-4.97-5.42-11.88-8.93-5.34-5.81-1.31-1.42-9.13 1.37-11.83m38.93 13.82c-1.96 3.06-.01 6.9 3.83 6.08.62-2.87-1.86-4.56-3.83-6.08z"/><path fill="#5e592e" opacity=".96" d="M229.92 103.34c3.3-.49 4.75-3.76 7-5.81 1.47 1.08 3.51 1.14 5.04.13 1.4 2.7 4.51 2.56 7.23 3.07-1.55.2-4.04-.16-2.9 2.17 2.08 5.87-7.72-3.44-8.1 1.11.74 5.27-6.32 2.01-8.27-.67z"/><path fill="#8b9b54" d="M212.8 103.1c-.53-5 5.38-1.67 8.3-3.15 5.87 2.35-5.77 9.12.53 9.6 6.7-2.5 2.17 12.38 2.29 2.6-6.15 1.1-.01 9.71-8.99 5.84.41-2.97 5.5-8.62-2.5-6.52-4.06-1.97-6.1-.16-6.9 3.36-2.27.02-2.66-2.98-3.69-4.54 5.12 1.44 10.63-1.65 10.96-7.19z"/><path fill="#69733d" d="M170.4 113.66c.08-4.84 7.05-5.28 10.45-3.48-.1 2.27-1.65 5.42 1.92 5.31 2.44 2.79 4.88 5.58 7.13 8.53.61 4.66 3.66 8.87 2.33 13.75 2.85 4.37 5.03-3.88 8.14-.9-1 3.78-4.31 6.31-5.53 9.83 4.14-.6 8.09.81 11.03 3.6 1.87 5.17-3.08 7.12-6.91 6.46.88-3.6-.99-4.22-4.05-3.1.71-1.57 1.57-3.08 2.2-4.69-4.94-1.09-3.43 4.9-4.13 7.94.39 3.82-3.03 6.46-3.08 10.16 6.14-.13 2.34-11.38 9.06-10.31.36 1.19 3.77 4.54.79 3.66-2.88-.8-1.83 3.86-2.7 5.63 1.63-.83 3.14-2.01 5.03-2.16.47 3.08-3.05 2.95-5.07 3.49-.36 4.55 5.68-.14 5.96 3.66.42 1.86-1.68 2.3-2.82 3.16-1.35-.75-2.7-1.5-4.09-2.16.59 2.35.8 4.87-1.8 6.01-1.09-1.97-1.86-4.13-3.32-5.87-4.03 2.1-8.69 2.98-12.06 6.19-3.63-3.21 2.04-7.61-1.11-11.1-.4-3.28-6.26-1.1-4.51-4.94 3.38-3.6 7.17-6.81 11.01-9.91 1.76-3.53.99-7.46 1.27-11.23-1.71.27-3.59.87-4.9-.68 1.52-.34 3.06-.64 4.54-1.17l1.27-1.17c3.8-2.76 5.12-8.62.18-10.99-9.61-3.59-6.55 8.03-5.99 13.33-2.54-3.94-6.27-8.51-6.52-13.24 3.95-1.3 8.09-1.84 12.18-2.57-3.49-3.45-9.3-1.14-13.84-1.25-1.37 3.93-2.64 8.3-6.33 10.71-.35-5.55 1.43-12.01-4.23-15.06 2.5-2.33 8.43-1.18 8.5-5.44z"/><path fill="#838b41" d="M187.42 114.71c2.98-5.23 8.33-3.59 11.41.59 3.11 4 11.09-.91 12.24 5.82-3.19-1.9-6.62-.82-9.93.01.37 2.14 5.39.78 4.4 3.57-1.48 4.92 4.22-.48 6.52-.81.83 3.99-5.37 3.07-4.35 7.27-2.61-5.44-5.92 3.29-8.4-.54 5.85-5.08-6.69-2.46-4.67-7.77-.16-2.27-3.9-.27-4.74 1.17-2.25-2.95-4.69-5.74-7.13-8.53.61-3.33 3.45-4.47 4.65-.78z"/><path fill="#8e9759" d="M253.2 110.79c3.78 4.85 3.18 12.17 3.75 18.07-1.49 1.98-.11 3.6 1.81 4.43 2.49 2.04 7.56 2.13 6.25 6.52-3.61-.96-14.23 4.52-11.22-2.66-3.5-1.82-10.54 1.63-5.65-3.93 7.5-2.62-6.25-1.96-1.09-8.06-.1-1.92 4.47-2.2 1.68-4.03-5.43-1.16-3.76 6.78-6.73 9.39-6.49-1.72 2.2-5.26 1.2-9.24-2.32.58-4.65 1.09-7.03 1.38-.98 1.5-1.1 4.83-3.05 2.1-.07-3.99 4.56-6.73 7.93-7.93 1.34-2.85 3.73-7.14 4.74-1.54 5.9-.78 5.16 1.36 3.09 4.5 5.73.97 2.95-5.72 4.32-9m-3.99 16.37c-1.92.68-.87 2.95.84 2.79 3.41 1.26 2.38-5-.84-2.79z"/><path fill="#b29d7c" d="M230.2 111.95c1.97 1.52 4.45 3.21 3.83 6.08-3.84.82-5.79-3.02-3.83-6.08z"/><path fill="#9fa85e" opacity=".98" d="M262.6 121.07c-4.26 3.18-5.94-3.92-1.71-5.39l2.09 1.38c2.24 2.04 5.23 1.85 8.13 1.91a36.57 36.57 0 0 1 .82 7.01c-2.72-.51-11.57.5-9.33-4.91z"/><path fill="#5b6729" opacity=".85" d="M262.98 117.06l6.12-.1 1.84 1.16.17.85c-2.9-.06-5.89.13-8.13-1.91z"/><path fill="#8e7e4d" d="M217.97 127.14c2.58-1.75 4.42-4.4 6.97-6.19 2.51 1.89 2.79 5.88 4.32 8.64-4.63-1.61-3.05 4.22-.46 5.65l.46-5.65c1.13.53 2.33 1.02 3.17 1.99l-3.14 6.29-1.15 2.32c1.26-4.27-4.1-4.09-3.59-.05-4.36-3.78-3.42-16.93-11.28-10.02-1.18 4.62-2.41 4.13-1.96-.35 1.54-1.53 2.56-3.4 3.23-5.45 2.81-1.79 1.27 2.43 3.43 2.82z"/><path fill="#5e5f2c" d="M242 130.52c2.97-2.61 1.3-10.55 6.73-9.39 2.79 1.83-1.78 2.11-1.68 4.03-5.16 6.1 8.59 5.44 1.09 8.06-2.98.63-7.45 2.01-6.14-2.7z"/><path fill="#919f62" d="M189.9 124.02c.84-1.44 4.58-3.44 4.74-1.17-2.02 5.31 10.52 2.69 4.67 7.77 2.48 3.83 5.79-4.9 8.4.54 1.09 1.17 2.46-1.05 3.6-1.39-.45 4.48.78 4.97 1.96.35 7.86-6.91 6.92 6.24 11.28 10.02-.51-4.04 4.85-4.22 3.59.05.02 1.57.08 3.15.21 4.72-1.99 2.2-4.78 1.36-7.34 1.02 1.69 1.65 4.12 3.33 3.87 5.99l-2.73.32c-3.12.46-3.21-2.32-3.84-4.57-4.41.88-7.52-1.27-7.43-5.44 3.19 1.37 6.36-.35 6.46-3.98-2.09 1.77-4.77 1.1-7.25 1.17l-.28 6.8c-3.46-3.39-1.84-9.04-4-13.16-2.6-.6-3.7 2.45-5.44 3.81-3.11-2.98-5.29 5.27-8.14.9 1.33-4.88-1.72-9.09-2.33-13.75z"/><path fill="#938353" d="M180.64 140.51c-.56-5.3-3.62-16.92 5.99-13.33 4.94 2.37 3.62 8.23-.18 10.99-.11-9.24-8.57 1.58-1.27 1.17-1.48.53-3.02.83-4.54 1.17z"/><path fill="#c5b79e" d="M249.21 127.16c3.22-2.21 4.25 4.05.84 2.79-1.71.16-2.76-2.11-.84-2.79z"/><path fill="#40501c" opacity=".92" d="M258.86 128.54c4.11-1.2 8.36-1.11 12.6-1.12-.35 2.42-2.47 3.69-4.34 4.93-3.24-.06-5.65-2.23-8.26-3.81z"/><path fill="#c4b499" d="M228.8 135.24c-2.59-1.43-4.17-7.26.46-5.65l-.46 5.65z"/><path fill="#3e4b1c" opacity=".98" d="M232.43 131.58c3.52 1.93 5.89 10.09 10.23 5.43.54 1.92.31 5.77 3.34 5.04 3.18 1.05 2-4.25 4.76-3.95.68 1.87 1.37 3.86 3.34 4.76-3.19 0-6.37-.07-9.42.9-5.56-.28-10.86-2.75-15.39-5.89l3.14-6.29z"/><path fill="#828a48" d="M200.37 136.87c1.74-1.36 2.84-4.41 5.44-3.81 2.16 4.12.54 9.77 4 13.16l.28-6.8c2.48-.07 5.16.6 7.25-1.17-.1 3.63-3.27 5.35-6.46 3.98-.09 4.17 3.02 6.32 7.43 5.44.63 2.25.72 5.03 3.84 4.57l-1.99 2.04c-6.41 1.13-7.01-8.83-14.34-7.32 6.39 3.13 1.89 10.72 6.15 15.72-1.89-.27-10.42 2.75-6.95 5.89 4.02-.65 8.6-7.03 11.27-1.3 1.57 2.22 3.03 4.81 5.71 5.84 5.94-2.8 8.8-9.88 3.41-14.73 2.45-1.33.54-1.47-1.31-1.66.16-1.62.56-3.19.78-4.8.25-2.66-2.18-4.34-3.87-5.99 2.56.34 5.35 1.18 7.34-1.02 8.21 9.71 13.51 21.29 13.92 34.2-3.76 1.15-10.04-6.47-5.63-9.7-3.53-6.36-7.71 3.25-4.16 6.62-1.1 3.91.98 2.45 3.32.98 3.67 6.23-7.69 8-11.82 5.78-2.24-1.67-2.62 2.1-3.74 3.34-.5-1.61.55-5.16-2.24-4.07-3.57.84.58 3.15 1.39 4.79-8.92 1.66-1.09-6.76-.32-10.93-9.44.64-3.86 15.05-9.08 19.02-4.63-.88-1.24-14.48-6.15-8.19-6.01 3.14-2.44-8.45-3.69-12.55 1.14-.86 3.24-1.3 2.82-3.16-.28-3.8-6.32.89-5.96-3.66 2.02-.54 5.54-.41 5.07-3.49-1.89.15-3.4 1.33-5.03 2.16.87-1.77-.18-6.43 2.7-5.63 2.98.88-.43-2.47-.79-3.66 3.83.66 8.78-1.29 6.91-6.46-2.94-2.79-6.89-4.2-11.03-3.6 1.22-3.52 4.53-6.05 5.53-9.83z"/><path fill="#cbbda7" d="M185.18 139.34c-7.3.41 1.16-10.41 1.27-1.17l-1.27 1.17z"/><path fill="#263012" opacity=".71" d="M244.68 143.76c3.05-.97 6.23-.9 9.42-.9l8.99 1.06c-6.14 0-12.28.11-18.41-.16z"/><path fill="#2d3a15" opacity=".68" d="M263.09 143.92l7.05.31c-1.7 2.32-5.13 1.57-7.05-.31z"/><path fill="#6c6e34" d="M205.82 146.96c7.33-1.51 7.93 8.45 14.34 7.32-2.89 3.76-3.04 8.5-3.87 12.99-2.67-5.73-7.25.65-11.27 1.3-3.47-3.14 5.06-6.16 6.95-5.89-4.26-5 .24-12.59-6.15-15.72z"/><path fill="#838850" d="M192.98 156.91c.7-3.04-.81-9.03 4.13-7.94-.63 1.61-1.49 3.12-2.2 4.69 3.06-1.12 4.93-.5 4.05 3.1-6.72-1.07-2.92 10.18-9.06 10.31.05-3.7 3.47-6.34 3.08-10.16z"/><path fill="#8b732f" d="M222.15 152.24l2.73-.32-.78 4.8c1.85.19 3.76.33 1.31 1.66 5.39 4.85 2.53 11.93-3.41 14.73-2.68-1.03-4.14-3.62-5.71-5.84.83-4.49.98-9.23 3.87-12.99l1.99-2.04m-2.94 9.86c-2.54 1.34-.96 6.16 1.93 4.18 3.89.08.41-4.99-1.93-4.18z"/><path fill="#b7a486" d="M219.21 162.1c2.34-.81 5.82 4.26 1.93 4.18-2.89 1.98-4.47-2.84-1.93-4.18z"/><path fill="#5f6930" d="M232.48 176.03c-3.55-3.37.63-12.98 4.16-6.62-4.41 3.23 1.87 10.85 5.63 9.7.98.55 1.92 1.17 2.88 1.76 6.06 2.09 12.71.93 19.06.96 8.34 2.89 24.01 9.96 15.19 20.43-5.46 2.15-10.42 5.49-16.1 7.08-3.23-.13-6.44-.45-9.61.24-8.18-1.4-13.12 3.97-13.2 11.65-.77-6.28-10.1-3.24-14.35-1.74a48.45 48.45 0 0 1-2.53-3.41c1.19-.44 2.52-2.45 3.79-1.53 3.28 3.27 7.07-1.47 10.71-1.92-3.94-3.94-12.16-2-13.58-8.29-3.84-4.01-1.49-10.12-1.7-15.18.22-2.15.53-4.3 1.15-6.37 4.13 2.22 15.49.45 11.82-5.78-2.34 1.47-4.42 2.93-3.32-.98m16.74 14c1.51-5.48-10.03-2.77-6.53 2.67-1.44 2.74-4.79 1.09-3.97-1.87-2.46 3.34-8.07 8.85-2.89 12.3.06-2.2.13-4.29 1.68-1.44 6.68 4.76 2.49-3.32 6.25-2.84-2.11 3.83 3.01 4.99 5.19 7.16 1.66-2.47 3.57-3.61 6.19-4.4.64 2.13.54 5.46 3.69 4.34.78-1.61 2.25-5.9 4.2-4.07 1.51 4.99 4.87-3.04 6.16 3.07 3.59-2.33 7.4-6.09 6.94-10.69-2.63-2.33-3.43-7.37-8.29-4.72-3.08-4.64-13.45-3.95-11.81 3.71l-.12 1.02c-4.12-.32-.16-6.88-2.1-8.51-1.87 1.11-2.29 3.99-4.59 4.27z"/><path fill="#60693c" d="M178.88 178.37c3.37-3.21 8.03-4.09 12.06-6.19 1.46 1.74 2.23 3.9 3.32 5.87 2.6-1.14 2.39-3.66 1.8-6.01 1.39.66 2.74 1.41 4.09 2.16 1.25 4.1-2.32 15.69 3.69 12.55 3.56 4.97-2.48 9.33-2.29 14.05-5.84 3.67-3.51 11.59 3.73 9.56 3.87 3.41-.92.9-2.41 3.49 1.02 1.09 2.13 2.09 3.18 3.15-.81 1.2-3.96 5.45-.73 4.41 4.75-2.26 1.96 4.97-1.42 3.75-1.46-1.1-2.62-2.98-4.6-3.1-.53 1.84-.89 3.88-2.9 4.68-2.69 5.48 4.19 7.15 5.69 11.42-2.58-2.1-6.87-1.89-8-5.41-.44-1.44-2.17-.07-3.16-.13-4.34-.63-8.73.44-13.04-.3-4.05-1.22-1.14 6.06-4.11 7.6-4.38 1.61-7.23-7.91-1.14-6.08-.12-6.29-3.28-12.68-10.49-11.52-4.73 1.74-5.01-5.36-4.01-8.44 1.71 1.7 2.81 4.45 5.62 4.35-.32-3.07-3.18-6.98.34-9.11 3.18-1.82 2.18-6.09 4.72-8.3 4.12-1.06 8.95-4.67 13.06-1.79 2.35 4.8 8.42 2.1 12.2.83-.13-2.98-2.37-4.74-5.08-5.45 2.21-1.37 4.55-2.5 6.81-3.77.91-4.23-7.83-10.29-5.09-.41-4.49-3.44-8.96-6.88-11.84-11.86m20.48 35c-1.55 1.33-3.13 2.64-5.22 2.97-1.95 3.9 3.94 5.87 5.65 2.48 1.99-1.34 2.82-7.72-.43-5.45z"/><path fill="#95a462" d="M209.99 194.94c5.22-3.97-.36-18.38 9.08-19.02-.77 4.17-8.6 12.59.32 10.93-1.59 2.44-4.64 12.15-3.52 1.14-4.97 1.29-1.57 8.96 3.04 9.29 1.76 6.19-7.07 5.79-10.85 4.58-1.99-1.21-4.23-1.98-6.51-1.06-.19-4.72 5.85-9.08 2.29-14.05 4.91-6.29 1.52 7.31 6.15 8.19z"/><path fill="#444b24" d="M163.25 182.38c2.47 1.8 9.8 1.46 6.89 5.79-4.35 4.16 10.73 6.77 3.23 9.03-3.54-3.05-5.11 1.08-7.43 2.73-5.02-2.9-14.72-5.79-16.47 1.97-2.2-.95-3.99-2.71-6.4-3.2 5.18-4.23-3.94-6.48-3.02-11.54 2.38 1.67 3.65-3.39 5.64-.87 3.21 3.71 7.4-1.09 11.17-1.48 2.34-1.16 6.55 1.64 6.39-2.43z"/><path fill="#9ba06c" d="M219.39 186.85c-.81-1.64-4.96-3.95-1.39-4.79 2.79-1.09 1.74 2.46 2.24 4.07 1.12-1.24 1.5-5.01 3.74-3.34-.62 2.07-.93 4.22-1.15 6.37-1.85 1.09-2.45-1.2-3.44-2.31z"/><path fill="#798b4b" d="M249.22 190.03c2.3-.28 2.72-3.16 4.59-4.27 1.94 1.63-2.02 8.19 2.1 8.51l-.77 7.34c-2.62.79-4.53 1.93-6.19 4.4-2.18-2.17-7.3-3.33-5.19-7.16-3.76-.48.43 7.6-6.25 2.84-1.55-2.85-1.62-.76-1.68 1.44-5.18-3.45.43-8.96 2.89-12.3-.82 2.96 2.53 4.61 3.97 1.87-3.5-5.44 8.04-8.15 6.53-2.67z"/><path fill="#888e4c" d="M219.39 186.85c.99 1.11 1.59 3.4 3.44 2.31.21 5.06-2.14 11.17 1.7 15.18 1.42 6.29 9.64 4.35 13.58 8.29-3.64.45-7.43 5.19-10.71 1.92-1.27-.92-2.6 1.09-3.79 1.53-2.37 1.66-5.12.9-6.12-1.86-1.37 1.07-2.51 2.4-3.68 3.67-2.64-.09-5.32.2-7.76-.89-1.05-1.06-2.16-2.06-3.18-3.15 1.49-2.59 6.28-.08 2.41-3.49 1.62-2.57 1.85-5.67 2.78-8.5 3.78 1.21 12.61 1.61 10.85-4.58-4.61-.33-8.01-8-3.04-9.29-1.12 11.01 1.93 1.3 3.52-1.14z"/><path fill="#839546" d="M256.03 193.25c-1.64-7.66 8.73-8.35 11.81-3.71 4.86-2.65 5.66 2.39 8.29 4.72-2.98 1.12-4.63-2.44-7.18-3.28-2.72 1.03-6 3.5-8.4.43-1.79-2.69-3.49.1-4.52 1.84z"/><path fill="#99ab65" d="M256.03 193.25c1.03-1.74 2.73-4.53 4.52-1.84 2.4 3.07 5.68.6 8.4-.43 2.55.84 4.2 4.4 7.18 3.28.46 4.6-3.35 8.36-6.94 10.69-1.29-6.11-4.65 1.92-6.16-3.07-1.95-1.83-3.42 2.46-4.2 4.07-3.15 1.12-3.05-2.21-3.69-4.34.17-2.46.58-4.89.77-7.34l.12-1.02z"/><path fill="#4f562d" d="M165.94 199.93c2.32-1.65 3.89-5.78 7.43-2.73l-4.55 3.62c-2.54 2.21-1.54 6.48-4.72 8.3-3.52 2.13-.66 6.04-.34 9.11-2.81.1-3.91-2.65-5.62-4.35-1 3.08-.72 10.18 4.01 8.44 7.21-1.16 10.37 5.23 10.49 11.52-6.09-1.83-3.24 7.69 1.14 6.08 2.97-1.54.06-8.82 4.11-7.6 4.31.74 8.7-.33 13.04.3l.32 1.03c-6.9-.65-13.91 7.3-7.7 12.78 1.82 2.49 4.73 3.92 6.55 6.43-1.98 1.05-4.09.91-6.02-.15-7.45-3.83-18.51-6.19-22.25 3.44-4.6-.87-7.57-2.87-2.08-5.49-2.06-3.04.43-7.43-3.03-9.5-3.38-.38-6.23 2.31-9.06 3.8l-2.48-4.1-1.15-2.75c.02-2.56-.25-5.14-1.7-7.32l-.26-1.63c3.09-7.72-6.16-12.66-3.3-20.17l.33-1.89 1-2.9 1.79-4.35 1.18-1.15c2.41.49 4.2 2.25 6.4 3.2 1.75-7.76 11.45-4.87 16.47-1.97z"/><path fill="#697142" d="M201.55 200.8c2.28-.92 4.52-.15 6.51 1.06-.93 2.83-1.16 5.93-2.78 8.5 1.64-3.94-1.46-6.77-3.73-9.56z"/><path fill="#7e8c54" d="M205.28 210.36c-7.24 2.03-9.57-5.89-3.73-9.56 2.27 2.79 5.37 5.62 3.73 9.56z"/><path fill="#262a13" opacity=".62" d="M253.69 209.58c3.17-.69 6.38-.37 9.61-.24-3.09 1.09-6.43.37-9.61.24z"/><path fill="#7b8751" d="M199.36 213.37c3.25-2.27 2.42 4.11.43 5.45-1.71 3.39-7.6 1.42-5.65-2.48 2.09-.33 3.67-1.64 5.22-2.97z"/><path fill="#81843d" d="M213.81 217.89c1.17-1.27 2.31-2.6 3.68-3.67 1 2.76 3.75 3.52 6.12 1.86l2.53 3.41c.24 3.61-4.68 4.83-4.06 8.27 3.31 3.72 2.7-5.65 7.01-3.8.41 6.39-12.93 4.7-7.34 10.99-6.98 6.75-14.7 16.93-26.71 16.87.27-6.08-3.97-11.7-3.79-18.17l-.32-1.03c.99.06 2.72-1.31 3.16.13 1.13 3.52 5.42 3.31 8 5.41-1.5-4.27-8.38-5.94-5.69-11.42 2.01-.8 2.37-2.84 2.9-4.68 1.98.12 3.14 2 4.6 3.1-2.48 5.36 3.17 7.29 7.09 4.02 3.34-.71 6.85-1.22 9.97-2.39-1.87-3.32-2.05-9.9-7.15-8.9m-18.76 20.09a44.06 44.06 0 0 0 .01 6.08c4.21.84 3.05-6.59-.01-6.08z"/><path fill="#a0ab63" d="M206.05 217c2.44 1.09 5.12.8 7.76.89.65 4.1 2.63 9.81-2.82 11.29-3.92 3.27-9.57 1.34-7.09-4.02 3.38 1.22 6.17-6.01 1.42-3.75-3.23 1.04-.08-3.21.73-4.41z"/><path fill="#85914e" d="M226.14 219.49c4.25-1.5 13.58-4.54 14.35 1.74-1.08 4.83-2.72 9.53-4.74 14.04-2.1-3.65-5.64-4.73-9.58-3.1-1.29 3.06 2.35 1.15 3.97 1.19-1.21 3.39-2 6.91-2.41 10.49-5 7.83 3.77 9.11 3.6 2.3 8.8 3.42 17.06-1.62 25.87-2.54 6.78.56 1.22 8.16-3.21 8.25-3.96.59-7.18 3.25-11.03 4.31.66 6.82 12.8.09 12.53 8.01.07 2.89-2.43 4.17-4.99 4.04.48-3.68-4.79-6.46-4.99-1.62-1.7 2.95 1.61 2.48 3.66 2.69-1.11 1.18-2.64 1.54-4.18 1.73-3.81-.37-1.49 4.52-2.01 6.98l-1.87 1.39c-4.76-5.19-4.02-12.38-4.79-18.91 2.46 1.67 4.89 10.38 7.7 5.7-6.49-3.01.44-16.22-7.52-14.89-.2 3.54-4.29 4.23-4.53 7.31 1.79-.19 3.42.21 4.35 1.88-6.02.61-5.02 8.79-7.27 12.71-1.86-1.05-3.8-1.95-5.77-2.76-4.45-5.74 3.76-2.79 2.54-6.3-3.73-2.43-6.13 2.76-8.82 4.65 4.52-.15 6.77 8.1 1.18 6.45 2.13 5.02-4.11 1.52-6.99 1.86-1.39 1.7-1.77 3.95-2.21 6.04 3.67-.13 11.47-7.16 11.36-.93l-1.9 3.16c-2.25 1.07-5.02 2.64-4.79-1.24-2.95.74-6.14 2.8-8.14-.64-3.65-5.63-14.01 4.63-15.35-2.12 8.56-3.05 17.33-5.35 25.76-8.74-.98-3.48-4.75-4.16-7.56-2.41-13.08 5.43 8.2-7.68-6.02-3.02-5.01 2.65 6.41 7.24.77 8.66-1.59-2.66-9.17-1.43-6.24-5.05 2.58-3.33-5.06-6.05-1.72-9.63 2.42-3.04-2.66-3.67-3.48-6.2.02-2.16 1.27-3.16 3.37-3.15 12.01.06 19.73-10.12 26.71-16.87-5.59-6.29 7.75-4.6 7.34-10.99-4.31-1.85-3.7 7.52-7.01 3.8-.62-3.44 4.3-4.66 4.06-8.27m-9.85 27.66c-5.5 4.28.02 12.29-1.07 18.03 3.03-2.08 8.86-3.71 7.78-8.43 1.89-1.27-.55-3.34-1.14-4.78-2.51.96-6.46 6.43-1.61 6.33-3.92 5.78-5.33-8.54.4-7.65 5.58 1.27-.8-8.12-4.36-3.5m-13.1 7.2c-2.46 1.33-1.4 6.46 1.85 5.69-.42-1.59-.36-5.99-1.85-5.69z"/><path fill="#919956" d="M213.81 217.89c5.1-1 5.28 5.58 7.15 8.9-3.12 1.17-6.63 1.68-9.97 2.39 5.45-1.48 3.47-7.19 2.82-11.29z"/><path fill="#776b30" opacity=".96" d="M226.17 232.17c3.94-1.63 7.48-.55 9.58 3.1-1.42 3.2-4.17 5.43-6.8 7.6l-1.22.98c.41-3.58 1.2-7.1 2.41-10.49-1.62-.04-5.26 1.87-3.97-1.19z"/><path fill="#695c35" d="M191.25 233.65c-.18 6.47 4.06 12.09 3.79 18.17-2.1-.01-3.35.99-3.37 3.15-.77 1.21-1.96 1.96-3.27 2.49l-3.98-2.83-.34-1.92c1.93 1.06 4.04 1.2 6.02.15-1.82-2.51-4.73-3.94-6.55-6.43-6.21-5.48.8-13.43 7.7-12.78z"/><path fill="#cdbfa7" d="M195.05 237.98c3.06-.51 4.22 6.92.01 6.08a44.06 44.06 0 0 1-.01-6.08z"/><path fill="#586531" d="M147.66 244.96c2.83-1.49 5.68-4.18 9.06-3.8 3.46 2.07.97 6.46 3.03 9.5-5.49 2.62-2.52 4.62 2.08 5.49l.01 2.54c-3.35.57-.21 4.5-1.38 6.67-.25 4.83-6.7 1.56-9.71 3.67-2.55-3.62-2.99-8.08-4.69-12.06-.22-4.06.42-8.13 1.6-12.01z"/><path fill="#4b5f27" opacity=".97" d="M228.95 242.87l4.83.33c5.1.93 10.35.95 15.46-.04 2.66-.06 5.29.13 7.96.45-8.81.92-17.07 5.96-25.87 2.54.17 6.81-8.6 5.53-3.6-2.3l1.22-.98z"/><path fill="#72652c" d="M216.29 247.15c3.56-4.62 9.94 4.77 4.36 3.5-5.73-.89-4.32 13.43-.4 7.65.46-1.4 1.27-2.28 2.75-1.55 1.08 4.72-4.75 6.35-7.78 8.43 1.09-5.74-4.43-13.75 1.07-18.03z"/><path fill="#6c5c36" d="M161.83 256.15c3.74-9.63 14.8-7.27 22.25-3.44-1.48.56-2.95 1.15-4.3 1.98-3.36 1.92-6.16 6.17-3.25 9.71-.45 2.96.86 5.33 4.17 4.75-1.15 1.51-1.25 3.24-.43 4.95-5.11 2.71-8.4-3.98-11.99-6.33-3.79-1.67-3.59-6.43-6.44-9.08l-.01-2.54z"/><path fill="#a3b26c" d="M236.5 251.29c7.96-1.33 1.03 11.88 7.52 14.89-2.81 4.68-5.24-4.03-7.7-5.7-.93-1.67-2.56-2.07-4.35-1.88.24-3.08 4.33-3.77 4.53-7.31z"/><path fill="#beac8e" d="M220.25 258.3c-4.85.1-.9-5.37 1.61-6.33.59 1.44 3.03 3.51 1.14 4.78-1.48-.73-2.29.15-2.75 1.55z"/><path fill="#506225" opacity=".95" d="M242.96 256.17c3.85-1.06 7.07-3.72 11.03-4.31-5.32 3.46 5.4 7.31 1.5 12.32.27-7.92-11.87-1.19-12.53-8.01z"/><path fill="#c2b69f" d="M179.78 254.69c1.35-.83 2.82-1.42 4.3-1.98l.34 1.92c.6 2.62-.19 5.27-1.55 7.51-3.02-1.47-.36-5.47-3.09-7.45z"/><path fill="#b8ae8c" d="M203.19 254.35c1.49-.3 1.43 4.1 1.85 5.69-3.25.77-4.31-4.36-1.85-5.69z"/><path fill="#948459" d="M176.53 264.4c-2.91-3.54-.11-7.79 3.25-9.71 2.73 1.98.07 5.98 3.09 7.45 1.36-2.24 2.15-4.89 1.55-7.51l3.98 2.83c-1.74 4.65-6.75 8.49-11.87 6.94z"/><path fill="#747634" d="M188.4 257.46c1.31-.53 2.5-1.28 3.27-2.49.82 2.53 5.9 3.16 3.48 6.2-3.34 3.58 4.3 6.3 1.72 9.63-2.93 3.62 4.65 2.39 6.24 5.05 5.64-1.42-5.78-6.01-.77-8.66 14.22-4.66-7.06 8.45 6.02 3.02 2.81-1.75 6.58-1.07 7.56 2.41-8.43 3.39-17.2 5.69-25.76 8.74 1.34 6.75 11.7-3.51 15.35 2.12 2 3.44 5.19 1.38 8.14.64-.23 3.88 2.54 2.31 4.79 1.24l-.33.8c-3.02 4.04-8.7 3.29-11.91 7.32-3.16-1.87-10-1.45-7.52-6.66.89-4.27-3.21-.12-3.18 2.03-3.89-.84-14-5.07-8.37-8.77 3.52-4.43-3.89-5.03-6.86-5.98-.82-1.71-.72-3.44.43-4.95-3.31.58-4.62-1.79-4.17-4.75 5.12 1.55 10.13-2.29 11.87-6.94m.86 7.77c-1.5 1.22-5.12 4.29-1.18 4.6 4.15-.72 2.1 2.75 1.86 5.22 5.7-.45 3.34-9.49-.68-9.82z"/><path fill="#505325" opacity=".98" d="M160.46 265.36c1.17-2.17-1.97-6.1 1.38-6.67 2.85 2.65 2.65 7.41 6.44 9.08 3.59 2.35 6.88 9.04 11.99 6.33 2.97.95 10.38 1.55 6.86 5.98-5.63 3.7 4.48 7.93 8.37 8.77-.03-2.15 4.07-6.3 3.18-2.03-2.48 5.21 4.36 4.79 7.52 6.66-5.17.77-12.24-2.76-16.19 1.9-1.5-1.08-3.61-1.1-5.07.06-3.25-5.26-9.27-4.72-14.82-4.43-5.62-2.82-5.53-9.62-7.39-14.75-2.95-3.43-8.02-3.8-11.63-6.39l-.35-.84c3.01-2.11 9.46 1.16 9.71-3.67z"/><path fill="#615c2f" opacity=".97" d="M229.05 273.19c2.25-3.92 1.25-12.1 7.27-12.71.77 6.53.03 13.72 4.79 18.91-1.29 1.37-2.83-.01-4.05-.69-2.33-2.01-2.63 1.78-1.86 3.29-1.94 3.43-5.71 3.09-8.76 1.59-1.65 3.1-5.17 2.6-8.33 2.58l.33-.8 1.9-3.16c2.29-1.46 9.29-1.98 6.13-5.62-.62-1.42 1.95-2.19 2.58-3.39z"/><path fill="#787837" d="M217 268.78c2.69-1.89 5.09-7.08 8.82-4.65 1.22 3.51-6.99.56-2.54 6.3 1.97.81 3.91 1.71 5.77 2.76-.63 1.2-3.2 1.97-2.58 3.39 3.16 3.64-3.84 4.16-6.13 5.62.11-6.23-7.69.8-11.36.93.44-2.09.82-4.34 2.21-6.04 2.88-.34 9.12 3.16 6.99-1.86 5.59 1.65 3.34-6.6-1.18-6.45z"/><path fill="#b2b068" d="M245.51 266.6c.2-4.84 5.47-2.06 4.99 1.62l-1.33 1.07c-2.05-.21-5.36.26-3.66-2.69z"/><path fill="#859656" d="M189.26 265.23c4.02.33 6.38 9.37.68 9.82.24-2.47 2.29-5.94-1.86-5.22-3.94-.31-.32-3.38 1.18-4.6z"/><path fill="#494c1d" opacity=".71" d="M242.98 278c.52-2.46-1.8-7.35 2.01-6.98l-2.01 6.98z"/><path fill="#292c15" opacity=".63" d="M235.2 281.99c-.77-1.51-.47-5.3 1.86-3.29-.57 1.12-.99 2.35-1.86 3.29z"/></svg>