<?xml version="1.0" encoding="UTF-8" ?>
<!DOCTYPE svg PUBLIC "-//W3C//DTD SVG 1.1//EN" "http://www.w3.org/Graphics/SVG/1.1/DTD/svg11.dtd">
<svg width="384pt" height="384pt" viewBox="0 0 384 384" version="1.1" xmlns="http://www.w3.org/2000/svg">
<g id="#0000000d">
</g>
<g id="#00000015">
</g>
<g id="#0000001d">
</g>
<g id="#211a0f87">
</g>
<g id="#00000025">
</g>
<g id="#585d32fe">
<path fill="#585d32" opacity="1.00" d=" M 155.13 89.24 C 156.08 88.50 156.99 87.70 157.92 86.93 C 159.70 86.92 163.26 86.89 165.03 86.88 C 169.44 89.87 174.74 90.73 179.86 91.71 C 179.49 97.77 177.72 94.00 174.39 92.18 C 173.42 97.06 168.47 97.05 164.84 99.08 C 163.32 96.77 160.81 88.71 158.33 94.37 C 155.44 95.53 152.70 97.09 152.46 100.56 C 149.79 102.02 146.70 102.98 144.93 105.66 C 152.44 104.93 148.60 112.57 149.75 117.16 C 150.77 120.59 144.90 121.15 145.93 124.86 C 149.36 124.83 154.95 126.46 154.76 121.15 C 152.19 116.10 155.28 110.95 157.50 106.41 C 161.66 105.96 166.35 104.13 170.22 106.71 C 167.19 107.66 164.10 108.39 161.06 109.31 C 162.10 113.69 161.95 122.56 168.14 121.30 C 169.24 120.90 170.32 120.47 171.40 120.01 C 170.81 124.69 171.22 131.10 166.51 133.59 C 162.44 137.04 170.02 140.05 173.06 140.38 C 171.18 144.32 167.38 141.83 164.63 140.39 C 163.66 134.88 152.85 143.57 160.14 144.91 C 164.06 147.75 158.79 152.03 160.68 155.49 C 162.23 160.78 166.41 165.74 171.79 167.09 C 167.08 156.54 178.20 164.57 173.96 166.89 C 169.17 170.18 175.75 176.79 173.02 180.76 C 170.60 178.91 167.76 179.10 164.97 179.85 C 162.11 180.71 162.93 175.27 160.09 176.19 C 156.69 177.43 153.48 179.27 149.88 179.94 C 151.75 177.33 154.56 175.76 157.18 174.03 C 152.49 171.19 149.93 167.90 153.18 163.03 C 146.95 163.80 140.09 163.57 135.00 168.03 C 132.13 170.44 129.70 166.40 126.90 165.84 C 123.39 160.20 130.22 156.73 129.51 151.83 C 129.20 149.86 128.94 147.88 128.79 145.89 C 129.37 139.56 134.15 133.01 129.82 127.03 C 129.84 125.27 129.87 121.75 129.89 119.99 C 130.63 115.76 131.81 111.63 133.96 107.90 C 134.30 107.73 134.99 107.40 135.33 107.24 C 139.03 105.78 136.12 100.05 136.93 96.90 C 137.86 95.46 138.96 94.16 140.00 92.80 L 140.79 92.62 C 144.11 92.40 148.02 94.05 151.05 92.05 C 152.47 91.20 153.86 90.29 155.13 89.24 Z" />
</g>
<g id="#2f3319b6">
<path fill="#2f3319" opacity="0.71" d=" M 140.79 92.62 C 144.14 91.73 147.62 92.07 151.05 92.05 C 148.02 94.05 144.11 92.40 140.79 92.62 Z" />
</g>
<g id="#65723dff">
<path fill="#65723d" opacity="1.00" d=" M 158.33 94.37 C 160.81 88.71 163.32 96.77 164.84 99.08 C 167.26 102.15 171.17 103.54 174.18 105.94 C 175.87 110.46 176.71 115.17 177.26 119.95 C 180.52 121.69 181.79 115.43 184.49 118.04 C 180.08 123.97 176.10 130.41 177.23 138.30 C 179.33 137.36 180.51 134.63 183.09 134.93 C 183.10 137.33 178.36 142.03 183.07 142.07 C 189.24 143.12 175.92 143.27 179.76 146.15 C 182.72 147.00 188.15 149.43 185.34 153.18 C 183.76 155.54 184.13 152.02 183.73 150.90 C 182.78 151.87 181.92 152.91 181.05 153.95 C 179.47 150.03 177.88 149.40 176.86 153.93 C 173.21 149.03 166.06 152.94 160.68 155.49 C 158.79 152.03 164.06 147.75 160.14 144.91 C 152.85 143.57 163.66 134.88 164.63 140.39 C 167.38 141.83 171.18 144.32 173.06 140.38 C 170.02 140.05 162.44 137.04 166.51 133.59 C 171.22 131.10 170.81 124.69 171.40 120.01 L 171.39 119.17 C 176.67 115.81 174.49 109.74 170.22 106.71 C 166.35 104.13 161.66 105.96 157.50 106.41 C 155.28 110.95 152.19 116.10 154.76 121.15 C 154.95 126.46 149.36 124.83 145.93 124.86 C 144.90 121.15 150.77 120.59 149.75 117.16 C 148.60 112.57 152.44 104.93 144.93 105.66 C 146.70 102.98 149.79 102.02 152.46 100.56 C 152.70 97.09 155.44 95.53 158.33 94.37 Z" />
</g>
<g id="#798236fd">
<path fill="#798236" opacity="1.00" d=" M 174.39 92.18 C 177.72 94.00 179.49 97.77 179.86 91.71 C 182.36 92.94 184.74 94.42 186.98 96.08 C 187.56 97.94 188.35 99.80 190.05 100.88 C 196.72 104.49 187.34 104.79 189.58 109.08 C 188.31 111.61 183.67 118.67 184.39 109.77 C 180.59 108.65 176.96 99.46 174.18 105.94 C 171.17 103.54 167.26 102.15 164.84 99.08 C 168.47 97.05 173.42 97.06 174.39 92.18 Z" />
</g>
<g id="#1c1b0f71">
</g>
<g id="#73652ef7">
<path fill="#73652e" opacity="0.97" d=" M 190.05 100.88 C 198.11 103.88 209.50 100.69 212.29 111.71 C 212.15 114.85 211.98 118.00 211.88 121.14 C 211.62 120.92 211.12 120.46 210.86 120.23 C 210.68 118.81 210.48 117.39 210.23 115.97 C 211.76 107.89 203.07 106.85 198.25 111.12 C 197.97 101.84 196.02 114.01 190.92 113.10 C 190.56 110.65 192.42 109.22 194.03 107.78 C 192.49 107.99 190.91 108.21 189.58 109.08 C 187.34 104.79 196.72 104.49 190.05 100.88 Z" />
</g>
<g id="#8e9757ff">
<path fill="#8e9757" opacity="1.00" d=" M 174.18 105.94 C 176.96 99.46 180.59 108.65 184.39 109.77 C 183.67 118.67 188.31 111.61 189.58 109.08 C 190.91 108.21 192.49 107.99 194.03 107.78 C 192.42 109.22 190.56 110.65 190.92 113.10 C 196.02 114.01 197.97 101.84 198.25 111.12 C 203.07 106.85 211.76 107.89 210.23 115.97 C 206.75 111.50 204.47 121.53 210.86 120.23 C 211.12 120.46 211.62 120.92 211.88 121.14 C 212.14 121.37 212.66 121.83 212.92 122.06 C 215.22 123.23 218.23 123.48 218.61 126.67 C 217.61 131.36 212.03 126.17 208.93 125.92 C 209.77 127.78 212.04 129.88 210.07 131.81 C 208.03 130.41 205.42 129.20 204.71 132.52 C 207.93 131.42 209.82 133.41 207.66 136.33 C 205.68 135.64 203.74 134.86 201.83 134.01 C 202.95 127.94 196.11 128.89 192.33 126.58 C 190.87 122.96 192.45 118.13 189.78 115.04 C 187.51 114.68 186.26 117.05 184.49 118.04 C 181.79 115.43 180.52 121.69 177.26 119.95 C 176.71 115.17 175.87 110.46 174.18 105.94 Z" />
</g>
<g id="#0000002d">
</g>
<g id="#887640ff">
<path fill="#887640" opacity="1.00" d=" M 161.06 109.31 C 164.10 108.39 167.19 107.66 170.22 106.71 C 174.49 109.74 176.67 115.81 171.39 119.17 C 171.42 111.86 164.42 116.80 168.14 121.30 C 161.95 122.56 162.10 113.69 161.06 109.31 Z" />
</g>
<g id="#3b31168e">
</g>
<g id="#bfb296ff">
<path fill="#bfb296" opacity="1.00" d=" M 210.86 120.23 C 204.47 121.53 206.75 111.50 210.23 115.97 C 210.48 117.39 210.68 118.81 210.86 120.23 Z" />
</g>
<g id="#bdab8eff">
<path fill="#bdab8e" opacity="1.00" d=" M 168.14 121.30 C 164.42 116.80 171.42 111.86 171.39 119.17 L 171.40 120.01 C 170.32 120.47 169.24 120.90 168.14 121.30 Z" />
</g>
<g id="#7b8141ff">
<path fill="#7b8141" opacity="1.00" d=" M 184.49 118.04 C 186.26 117.05 187.51 114.68 189.78 115.04 C 192.45 118.13 190.87 122.96 192.33 126.58 C 196.11 128.89 202.95 127.94 201.83 134.01 C 197.56 132.52 192.15 134.10 195.28 138.63 C 199.02 137.44 202.69 138.89 205.04 141.75 C 198.96 141.69 200.63 148.22 206.23 146.01 C 204.27 147.45 200.93 146.98 200.56 150.11 C 199.08 148.53 198.30 145.26 195.55 146.37 C 187.26 144.64 193.23 151.31 194.91 154.00 C 191.89 154.56 188.78 154.46 185.74 154.30 C 188.53 156.72 190.15 160.05 189.70 163.80 C 190.57 165.43 193.46 168.46 189.99 168.75 C 185.12 166.90 185.57 173.28 185.05 176.35 C 183.37 176.48 181.38 178.45 180.03 176.79 C 181.36 172.72 184.96 168.22 183.07 163.88 C 179.15 162.11 179.26 157.34 181.05 153.95 C 181.92 152.91 182.78 151.87 183.73 150.90 C 184.13 152.02 183.76 155.54 185.34 153.18 C 188.15 149.43 182.72 147.00 179.76 146.15 C 175.92 143.27 189.24 143.12 183.07 142.07 C 178.36 142.03 183.10 137.33 183.09 134.93 C 180.51 134.63 179.33 137.36 177.23 138.30 C 176.10 130.41 180.08 123.97 184.49 118.04 Z" />
</g>
<g id="#373a1eab">
<path fill="#373a1e" opacity="0.67" d=" M 128.99 126.97 C 128.02 124.66 128.32 122.33 129.89 119.99 C 129.87 121.75 129.84 125.27 129.82 127.03 L 128.99 126.97 Z" />
</g>
<g id="#7e8842fc">
<path fill="#7e8842" opacity="1.00" d=" M 208.93 125.92 C 212.03 126.17 217.61 131.36 218.61 126.67 C 223.14 128.89 221.93 133.18 217.89 135.09 C 225.22 142.16 231.79 151.24 230.97 161.98 C 230.96 162.51 230.93 163.56 230.92 164.09 C 227.16 163.63 223.54 162.67 220.86 159.90 C 220.76 157.35 221.79 155.08 223.05 152.94 C 217.58 151.04 213.04 162.99 220.86 159.90 C 220.93 165.69 212.43 163.28 208.35 164.05 C 209.30 160.82 207.50 162.39 205.95 163.78 C 206.58 160.11 203.88 164.51 202.38 162.76 C 197.58 161.14 201.95 156.07 203.00 153.08 C 210.50 155.00 209.84 146.32 211.37 141.27 C 209.99 139.74 208.57 138.21 207.66 136.33 C 209.82 133.41 207.93 131.42 204.71 132.52 C 205.42 129.20 208.03 130.41 210.07 131.81 C 212.04 129.88 209.77 127.78 208.93 125.92 M 215.13 142.42 C 207.37 142.80 218.41 152.98 211.76 151.20 C 213.26 152.70 213.50 155.58 215.65 156.14 C 214.96 153.79 216.18 151.40 218.90 151.81 C 215.24 149.29 220.10 143.48 215.13 142.42 Z" />
</g>
<g id="#0000003c">
</g>
<g id="#826c27ff">
<path fill="#826c27" opacity="1.00" d=" M 195.28 138.63 C 192.15 134.10 197.56 132.52 201.83 134.01 C 203.74 134.86 205.68 135.64 207.66 136.33 C 208.57 138.21 209.99 139.74 211.37 141.27 C 209.84 146.32 210.50 155.00 203.00 153.08 C 202.16 152.11 201.29 151.15 200.56 150.11 C 200.93 146.98 204.27 147.45 206.23 146.01 C 206.06 144.53 205.75 143.06 205.04 141.75 C 202.69 138.89 199.02 137.44 195.28 138.63 Z" />
</g>
<g id="#b8a58aff">
<path fill="#b8a58a" opacity="1.00" d=" M 206.23 146.01 C 200.63 148.22 198.96 141.69 205.04 141.75 C 205.75 143.06 206.06 144.53 206.23 146.01 Z" />
</g>
<g id="#8e9861ff">
<path fill="#8e9861" opacity="1.00" d=" M 215.13 142.42 C 220.10 143.48 215.24 149.29 218.90 151.81 C 216.18 151.40 214.96 153.79 215.65 156.14 C 213.50 155.58 213.26 152.70 211.76 151.20 C 218.41 152.98 207.37 142.80 215.13 142.42 Z" />
</g>
<g id="#0000004f">
</g>
<g id="#0000005f">
</g>
<g id="#939f5dff">
<path fill="#939f5d" opacity="1.00" d=" M 195.55 146.37 C 198.30 145.26 199.08 148.53 200.56 150.11 C 201.29 151.15 202.16 152.11 203.00 153.08 C 201.95 156.07 197.58 161.14 202.38 162.76 C 203.88 164.51 206.58 160.11 205.95 163.78 C 205.32 166.26 205.27 169.48 202.43 170.32 C 203.51 163.59 195.70 172.61 198.79 173.71 C 202.51 172.13 201.28 176.26 201.13 179.11 C 199.04 180.79 189.25 187.26 193.70 181.32 C 192.00 179.61 189.36 179.67 187.21 178.84 C 186.51 177.99 185.79 177.16 185.05 176.35 C 185.57 173.28 185.12 166.90 189.99 168.75 C 193.46 168.46 190.57 165.43 189.70 163.80 C 190.15 160.05 188.53 156.72 185.74 154.30 C 188.78 154.46 191.89 154.56 194.91 154.00 C 193.23 151.31 187.26 144.64 195.55 146.37 Z" />
</g>
<g id="#5e673bff">
<path fill="#5e673b" opacity="1.00" d=" M 176.86 153.93 C 177.88 149.40 179.47 150.03 181.05 153.95 C 179.26 157.34 179.15 162.11 183.07 163.88 C 184.96 168.22 181.36 172.72 180.03 176.79 C 181.38 178.45 183.37 176.48 185.05 176.35 C 185.79 177.16 186.51 177.99 187.21 178.84 C 187.41 182.38 182.64 186.23 185.84 188.96 C 180.60 188.09 182.54 190.80 184.54 193.71 C 181.34 196.08 182.32 199.10 184.06 202.09 C 181.50 202.22 179.29 200.91 177.02 199.96 C 172.97 203.73 170.47 208.39 175.05 212.78 C 170.15 217.39 170.06 204.83 167.10 210.55 C 163.68 209.98 160.22 210.21 156.95 211.33 C 151.65 210.07 155.00 219.34 150.18 219.76 C 143.70 215.81 154.48 212.32 150.09 206.99 C 150.03 198.90 137.21 206.32 138.40 198.51 C 136.23 185.59 144.01 203.59 144.00 196.04 C 145.24 192.68 137.58 190.51 141.39 188.53 C 147.17 189.13 149.14 184.89 149.09 180.15 L 149.88 179.94 C 153.48 179.27 156.69 177.43 160.09 176.19 C 162.93 175.27 162.11 180.71 164.97 179.85 C 167.76 179.10 170.60 178.91 173.02 180.76 C 175.75 176.79 169.17 170.18 173.96 166.89 C 178.20 164.57 167.08 156.54 171.79 167.09 C 166.41 165.74 162.23 160.78 160.68 155.49 C 166.06 152.94 173.21 149.03 176.86 153.93 M 178.21 180.07 C 174.59 182.53 176.62 188.46 181.02 186.11 C 187.41 186.13 183.74 176.68 178.21 180.07 Z" />
</g>
<g id="#01010070">
</g>
<g id="#655928ff">
<path fill="#655928" opacity="1.00" d=" M 220.86 159.90 C 213.04 162.99 217.58 151.04 223.05 152.94 C 221.79 155.08 220.76 157.35 220.86 159.90 Z" />
</g>
<g id="#5d6a30fd">
<path fill="#5d6a30" opacity="1.00" d=" M 220.86 159.90 C 223.54 162.67 227.16 163.63 230.92 164.09 C 234.29 164.94 237.79 165.02 241.24 164.91 C 241.93 165.01 243.32 165.19 244.01 165.28 C 246.52 166.87 248.87 166.96 251.05 165.57 C 255.34 168.30 260.59 169.67 264.10 173.51 C 263.45 174.55 260.14 177.31 263.25 176.42 C 265.79 177.48 259.76 184.16 264.04 184.31 C 263.12 185.25 262.13 186.12 261.18 187.02 C 257.11 189.09 253.14 191.36 249.13 193.54 C 247.66 192.28 245.48 192.20 243.90 193.30 C 239.68 193.21 235.45 193.17 231.27 193.69 C 229.47 193.91 227.79 194.67 226.04 195.13 C 225.54 195.11 224.54 195.07 224.05 195.04 C 220.71 194.23 221.91 198.43 223.64 199.58 C 221.69 203.18 216.25 199.83 212.89 200.89 C 207.82 204.20 202.08 194.63 209.96 193.99 C 218.50 191.82 201.94 199.76 214.57 196.62 C 216.86 196.00 221.82 197.51 220.96 194.09 C 213.48 191.01 202.57 187.07 203.94 176.93 C 204.19 172.46 202.03 177.70 201.13 179.11 C 201.28 176.26 202.51 172.13 198.79 173.71 C 195.70 172.61 203.51 163.59 202.43 170.32 C 205.27 169.48 205.32 166.26 205.95 163.78 C 207.50 162.39 209.30 160.82 208.35 164.05 C 212.43 163.28 220.93 165.69 220.86 159.90 M 236.88 172.71 C 234.72 169.07 229.59 169.23 225.33 169.17 C 224.49 172.91 220.02 174.12 221.26 178.33 C 221.01 184.77 228.05 168.44 225.25 181.65 C 227.53 182.92 228.84 185.29 230.71 186.87 C 231.33 182.59 234.11 182.80 236.73 181.81 C 235.53 188.60 242.83 187.92 243.14 182.00 C 246.47 185.54 253.33 188.45 257.13 183.13 C 263.44 180.24 257.96 169.40 252.23 171.31 C 251.51 171.21 250.06 171.01 249.33 170.91 C 250.02 163.88 237.88 167.39 236.88 172.71 Z" />
</g>
<g id="#00000042">
</g>
<g id="#2a30149c">
<path fill="#2a3014" opacity="0.61" d=" M 230.97 161.98 C 233.21 165.28 238.03 163.69 241.24 164.91 C 237.79 165.02 234.29 164.94 230.92 164.09 C 230.93 163.56 230.96 162.51 230.97 161.98 Z" />
</g>
<g id="#434923fd">
<path fill="#434923" opacity="1.00" d=" M 135.00 168.03 C 140.09 163.57 146.95 163.80 153.18 163.03 C 149.93 167.90 152.49 171.19 157.18 174.03 C 154.56 175.76 151.75 177.33 149.88 179.94 L 149.09 180.15 C 146.34 180.54 143.01 181.68 141.41 178.59 C 137.01 176.59 135.23 184.78 131.88 182.95 C 134.31 180.32 130.33 178.11 129.22 175.79 C 128.48 174.21 127.75 172.61 127.03 171.02 C 127.02 170.51 126.99 169.49 126.98 168.98 C 126.96 168.19 126.92 166.62 126.90 165.84 C 129.70 166.40 132.13 170.44 135.00 168.03 Z" />
</g>
<g id="#1d230e88">
</g>
<g id="#788a48ff">
<path fill="#788a48" opacity="1.00" d=" M 236.88 172.71 C 237.88 167.39 250.02 163.88 249.33 170.91 C 250.06 171.01 251.51 171.21 252.23 171.31 C 249.21 174.47 245.01 171.70 242.09 173.76 C 240.37 166.11 237.41 178.51 236.73 181.81 C 234.11 182.80 231.33 182.59 230.71 186.87 C 228.84 185.29 227.53 182.92 225.25 181.65 C 228.05 168.44 221.01 184.77 221.26 178.33 C 220.02 174.12 224.49 172.91 225.33 169.17 C 229.59 169.23 234.72 169.07 236.88 172.71 Z" />
</g>
<g id="#00000035">
</g>
<g id="#95a660ff">
<path fill="#95a660" opacity="1.00" d=" M 236.73 181.81 C 237.41 178.51 240.37 166.11 242.09 173.76 C 245.01 171.70 249.21 174.47 252.23 171.31 C 257.96 169.40 263.44 180.24 257.13 183.13 C 253.33 188.45 246.47 185.54 243.14 182.00 C 242.83 187.92 235.53 188.60 236.73 181.81 Z" />
</g>
<g id="#848e48ef">
<path fill="#848e48" opacity="0.94" d=" M 263.25 176.42 C 260.14 177.31 263.45 174.55 264.10 173.51 C 267.35 176.06 266.79 181.52 264.04 184.31 C 259.76 184.16 265.79 177.48 263.25 176.42 Z" />
</g>
<g id="#8a9150ff">
<path fill="#8a9150" opacity="1.00" d=" M 201.13 179.11 C 202.03 177.70 204.19 172.46 203.94 176.93 C 202.57 187.07 213.48 191.01 220.96 194.09 C 221.82 197.51 216.86 196.00 214.57 196.62 C 201.94 199.76 218.50 191.82 209.96 193.99 C 202.08 194.63 207.82 204.20 212.89 200.89 C 213.29 203.91 210.09 206.26 212.72 208.91 C 211.06 210.13 207.94 210.23 207.84 212.76 C 211.38 211.69 214.69 213.22 218.04 214.18 C 216.93 212.81 215.61 211.59 214.81 210.00 C 221.02 207.90 221.74 217.75 215.05 216.32 C 218.20 219.05 214.33 221.96 217.12 224.89 C 214.56 222.98 211.49 222.27 208.36 222.12 C 208.39 221.15 208.28 220.18 208.23 219.22 C 210.92 214.76 208.08 212.97 204.10 216.05 C 207.54 209.03 197.25 213.56 193.26 212.73 C 190.34 209.52 196.40 209.81 196.26 206.25 C 193.82 206.48 191.39 206.76 188.97 207.10 C 192.35 206.09 194.85 201.46 198.16 205.07 C 196.75 200.70 193.59 197.08 192.53 192.58 C 192.41 189.41 190.59 185.19 186.97 184.88 C 185.11 189.48 193.88 191.45 189.62 195.62 C 187.14 197.76 193.95 203.22 188.65 201.42 C 184.47 198.66 183.35 209.58 187.54 207.89 C 192.13 209.02 192.13 215.54 187.27 216.10 C 186.88 212.94 187.90 206.51 181.97 208.95 C 177.88 208.65 180.54 202.10 177.02 199.96 C 179.29 200.91 181.50 202.22 184.06 202.09 C 182.32 199.10 181.34 196.08 184.54 193.71 C 182.54 190.80 180.60 188.09 185.84 188.96 C 182.64 186.23 187.41 182.38 187.21 178.84 C 189.36 179.67 192.00 179.61 193.70 181.32 C 189.25 187.26 199.04 180.79 201.13 179.11 Z" />
</g>
<g id="#51562efe">
<path fill="#51562e" opacity="1.00" d=" M 131.88 182.95 C 135.23 184.78 137.01 176.59 141.41 178.59 C 143.01 181.68 146.34 180.54 149.09 180.15 C 149.14 184.89 147.17 189.13 141.39 188.53 C 137.58 190.51 145.24 192.68 144.00 196.04 C 144.01 203.59 136.23 185.59 138.40 198.51 C 137.21 206.32 150.03 198.90 150.09 206.99 C 154.48 212.32 143.70 215.81 150.18 219.76 C 155.00 219.34 151.65 210.07 156.95 211.33 C 160.22 210.21 163.68 209.98 167.10 210.55 C 167.33 211.13 167.81 212.28 168.04 212.85 C 161.58 210.89 156.03 221.40 161.26 225.79 C 164.29 228.42 167.45 230.94 170.74 233.26 C 173.03 238.33 173.77 244.33 178.20 248.07 C 178.28 248.49 178.43 249.34 178.50 249.76 C 177.74 253.42 175.42 253.11 174.16 250.01 C 168.74 246.02 168.70 238.35 163.11 234.88 C 158.68 229.74 142.98 228.06 144.66 238.58 C 141.89 238.64 140.28 240.33 139.82 242.99 L 139.03 242.78 C 139.01 242.36 138.97 241.52 138.96 241.10 C 142.66 229.84 131.86 221.81 132.40 210.79 L 132.19 209.97 C 127.86 203.69 125.57 196.80 126.87 188.97 C 128.14 186.66 129.75 184.54 131.88 182.95 Z" />
</g>
<g id="#7c8750ff">
<path fill="#7c8750" opacity="1.00" d=" M 178.21 180.07 C 183.74 176.68 187.41 186.13 181.02 186.11 C 176.62 188.46 174.59 182.53 178.21 180.07 Z" />
</g>
<g id="#a2b269ff">
<path fill="#a2b269" opacity="1.00" d=" M 186.97 184.88 C 190.59 185.19 192.41 189.41 192.53 192.58 C 193.59 197.08 196.75 200.70 198.16 205.07 C 194.85 201.46 192.35 206.09 188.97 207.10 C 188.61 207.30 187.89 207.69 187.54 207.89 C 183.35 209.58 184.47 198.66 188.65 201.42 C 193.95 203.22 187.14 197.76 189.62 195.62 C 193.88 191.45 185.11 189.48 186.97 184.88 Z" />
</g>
<g id="#01020120">
</g>
<g id="#00000050">
</g>
<g id="#808643fd">
<path fill="#808643" opacity="1.00" d=" M 226.04 195.13 C 227.79 194.67 229.47 193.91 231.27 193.69 C 232.77 206.81 228.93 220.03 219.43 229.37 C 214.27 234.53 219.51 241.42 221.12 247.11 C 221.44 248.35 221.79 249.59 222.12 250.84 C 220.68 254.36 220.69 258.70 216.82 260.62 C 215.53 260.14 214.32 259.45 213.06 258.90 C 210.29 256.42 204.67 261.37 204.40 256.28 C 204.39 250.64 197.59 254.07 194.37 254.30 C 192.83 257.67 188.57 259.56 185.81 256.32 C 186.20 253.72 184.92 251.48 184.04 249.15 C 187.03 248.25 193.03 244.61 192.42 250.32 C 191.33 254.59 197.45 253.86 197.12 250.05 C 201.26 252.69 205.79 249.95 210.15 250.68 C 214.18 251.92 209.30 246.04 212.57 244.91 C 212.47 247.78 214.48 248.40 216.98 248.10 C 215.20 245.27 213.67 242.29 214.93 238.90 C 211.74 240.55 209.60 243.49 207.18 246.03 C 207.50 241.25 198.49 242.67 202.16 236.34 C 203.68 233.27 210.57 232.72 208.31 228.63 C 207.33 226.34 205.59 223.89 208.36 222.12 C 211.49 222.27 214.56 222.98 217.12 224.89 C 214.33 221.96 218.20 219.05 215.05 216.32 C 221.74 217.75 221.02 207.90 214.81 210.00 C 215.61 211.59 216.93 212.81 218.04 214.18 C 214.69 213.22 211.38 211.69 207.84 212.76 C 207.94 210.23 211.06 210.13 212.72 208.91 C 210.09 206.26 213.29 203.91 212.89 200.89 C 216.25 199.83 221.69 203.18 223.64 199.58 C 221.91 198.43 220.71 194.23 224.05 195.04 C 222.82 197.57 227.04 197.76 226.04 195.13 M 207.18 235.05 C 205.88 236.76 204.73 238.76 204.96 241.00 C 209.52 242.94 213.23 234.87 207.18 235.05 Z" />
</g>
<g id="#262d12a3">
<path fill="#262d12" opacity="0.64" d=" M 243.90 193.30 C 245.48 192.20 247.66 192.28 249.13 193.54 C 247.82 193.48 245.20 193.36 243.90 193.30 Z" />
</g>
<g id="#d9d0c2ff">
<path fill="#d9d0c2" opacity="1.00" d=" M 224.05 195.04 C 224.54 195.07 225.54 195.11 226.04 195.13 C 227.04 197.76 222.82 197.57 224.05 195.04 Z" />
</g>
<g id="#7b7f3dff">
<path fill="#7b7f3d" opacity="1.00" d=" M 175.05 212.78 C 170.47 208.39 172.97 203.73 177.02 199.96 C 180.54 202.10 177.88 208.65 181.97 208.95 C 187.90 206.51 186.88 212.94 187.27 216.10 C 192.13 215.54 192.13 209.02 187.54 207.89 C 187.89 207.69 188.61 207.30 188.97 207.10 C 191.39 206.76 193.82 206.48 196.26 206.25 C 196.40 209.81 190.34 209.52 193.26 212.73 C 197.25 213.56 207.54 209.03 204.10 216.05 C 208.08 212.97 210.92 214.76 208.23 219.22 C 207.83 218.67 207.01 217.58 206.61 217.04 C 201.89 225.91 191.55 227.11 183.05 229.17 C 187.28 232.85 180.30 242.93 186.93 241.97 C 185.75 238.06 187.48 232.98 193.11 235.03 C 193.12 239.44 187.46 240.30 186.78 244.96 C 173.32 248.88 187.24 229.95 177.36 229.37 C 171.33 234.73 184.75 244.07 178.20 248.07 C 173.77 244.33 173.03 238.33 170.74 233.26 C 174.83 231.19 171.54 227.56 170.43 224.62 C 168.85 220.87 169.62 216.59 168.04 212.85 C 167.81 212.28 167.33 211.13 167.10 210.55 C 170.06 204.83 170.15 217.39 175.05 212.78 M 173.21 214.32 C 169.52 215.56 169.67 221.44 172.18 223.93 C 175.24 224.68 174.97 220.79 175.25 218.85 C 177.09 219.58 177.28 225.24 178.94 222.00 C 178.18 216.77 184.74 224.83 184.86 221.11 C 183.76 214.86 176.06 219.51 173.21 214.32 Z" />
</g>
<g id="#0000005d">
</g>
<g id="#00000041">
</g>
<g id="#01020180">
</g>
<g id="#0000006e">
</g>
<g id="#6c5b36ff">
<path fill="#6c5b36" opacity="1.00" d=" M 161.26 225.79 C 156.03 221.40 161.58 210.89 168.04 212.85 C 169.62 216.59 168.85 220.87 170.43 224.62 C 171.54 227.56 174.83 231.19 170.74 233.26 C 167.45 230.94 164.29 228.42 161.26 225.79 Z" />
</g>
<g id="#9a985dff">
<path fill="#9a985d" opacity="1.00" d=" M 173.21 214.32 C 176.06 219.51 183.76 214.86 184.86 221.11 C 184.74 224.83 178.18 216.77 178.94 222.00 C 177.28 225.24 177.09 219.58 175.25 218.85 C 174.97 220.79 175.24 224.68 172.18 223.93 C 169.67 221.44 169.52 215.56 173.21 214.32 Z" />
</g>
<g id="#0000002f">
</g>
<g id="#8b9b5eff">
<path fill="#8b9b5e" opacity="1.00" d=" M 183.05 229.17 C 191.55 227.11 201.89 225.91 206.61 217.04 C 207.01 217.58 207.83 218.67 208.23 219.22 C 208.28 220.18 208.39 221.15 208.36 222.12 C 205.59 223.89 207.33 226.34 208.31 228.63 C 194.68 224.70 195.99 248.37 207.18 246.03 C 209.60 243.49 211.74 240.55 214.93 238.90 C 213.67 242.29 215.20 245.27 216.98 248.10 C 214.48 248.40 212.47 247.78 212.57 244.91 C 209.30 246.04 214.18 251.92 210.15 250.68 C 205.79 249.95 201.26 252.69 197.12 250.05 C 197.45 253.86 191.33 254.59 192.42 250.32 C 193.03 244.61 187.03 248.25 184.04 249.15 C 184.92 251.48 186.20 253.72 185.81 256.32 C 182.95 254.63 180.22 252.69 178.50 249.76 C 178.43 249.34 178.28 248.49 178.20 248.07 C 184.75 244.07 171.33 234.73 177.36 229.37 C 187.24 229.95 173.32 248.88 186.78 244.96 C 187.46 240.30 193.12 239.44 193.11 235.03 C 187.48 232.98 185.75 238.06 186.93 241.97 C 180.30 242.93 187.28 232.85 183.05 229.17 Z" />
</g>
<g id="#00000024">
</g>
<g id="#262b1092">
</g>
<g id="#566231fe">
<path fill="#566231" opacity="1.00" d=" M 283.25 227.25 C 285.15 227.03 286.96 226.39 288.77 225.80 C 291.89 225.84 294.97 225.87 298.11 225.95 C 302.17 233.96 291.55 224.44 289.63 230.83 C 289.03 232.11 287.98 232.90 286.59 233.16 L 286.08 232.39 C 284.86 227.71 276.32 226.82 276.24 232.19 C 275.66 236.84 270.42 235.71 267.42 234.17 C 267.05 239.63 259.92 241.31 260.86 247.02 C 262.02 246.16 263.09 245.18 264.32 244.40 C 259.93 250.76 264.67 258.25 263.51 265.30 C 260.18 276.13 269.68 270.12 272.62 266.59 C 271.76 255.72 273.58 265.06 277.79 263.66 C 281.76 263.54 277.50 257.56 280.74 255.76 C 279.33 258.46 281.68 263.65 282.41 258.22 C 286.49 257.31 284.38 264.69 285.72 267.37 C 285.16 272.05 279.84 265.87 279.21 271.14 C 279.98 265.02 273.70 269.89 272.99 273.07 C 271.33 277.24 267.46 273.03 264.84 276.18 L 263.94 276.04 C 261.29 273.29 264.59 267.19 258.99 267.79 C 259.93 266.78 262.39 266.26 261.42 264.52 C 260.60 256.64 255.84 249.86 255.78 241.87 C 262.05 242.62 258.97 236.63 263.36 234.39 C 265.54 231.67 275.47 233.55 271.82 227.90 C 275.64 227.94 279.45 227.73 283.25 227.25 Z" />
</g>
<g id="#8b9859fb">
<path fill="#8b9859" opacity="1.00" d=" M 298.11 225.95 C 299.40 225.96 300.69 225.98 301.99 226.01 C 304.07 229.26 302.16 232.47 299.14 234.16 C 295.81 234.73 289.44 235.90 289.63 230.83 C 291.55 224.44 302.17 233.96 298.11 225.95 Z" />
</g>
<g id="#293315b1">
<path fill="#293315" opacity="0.69" d=" M 271.82 227.90 C 275.59 227.18 279.40 226.97 283.25 227.25 C 279.45 227.73 275.64 227.94 271.82 227.90 Z" />
</g>
<g id="#3f4b20f8">
<path fill="#3f4b20" opacity="0.97" d=" M 268.21 229.06 C 269.41 228.65 270.59 228.22 271.82 227.90 C 275.47 233.55 265.54 231.67 263.36 234.39 C 258.97 236.63 262.05 242.62 255.78 241.87 C 254.24 242.17 252.72 242.56 251.23 243.04 C 247.14 245.90 238.95 243.52 237.60 248.86 C 231.38 243.39 231.22 257.91 227.35 259.34 C 225.40 256.58 222.43 254.55 222.12 250.84 C 221.79 249.59 221.44 248.35 221.12 247.11 C 230.45 245.45 239.61 242.44 249.05 240.99 C 255.40 236.93 260.56 230.93 268.21 229.06 Z" />
</g>
<g id="#5f5728ff">
<path fill="#5f5728" opacity="1.00" d=" M 207.18 246.03 C 195.99 248.37 194.68 224.70 208.31 228.63 C 210.57 232.72 203.68 233.27 202.16 236.34 C 198.49 242.67 207.50 241.25 207.18 246.03 Z" />
</g>
<g id="#707d40fc">
<path fill="#707d40" opacity="1.00" d=" M 276.24 232.19 C 276.32 226.82 284.86 227.71 286.08 232.39 C 283.18 232.23 278.35 227.36 277.33 232.27 C 277.37 236.71 286.05 237.47 286.59 233.16 C 287.98 232.90 289.03 232.11 289.63 230.83 C 289.44 235.90 295.81 234.73 299.14 234.16 C 294.21 237.90 287.68 236.79 282.01 238.17 C 281.71 239.92 282.50 241.34 284.01 242.21 C 279.80 245.80 279.74 253.45 284.41 256.59 C 288.15 259.28 281.13 250.16 283.96 249.94 C 283.38 247.09 286.60 245.74 288.21 243.96 L 288.96 244.07 C 292.72 244.68 296.51 245.18 300.29 245.80 C 296.15 247.99 288.60 246.80 287.03 252.07 C 287.31 259.47 294.90 261.56 301.24 261.09 C 298.44 262.40 295.58 263.65 295.30 267.13 C 295.39 260.58 284.85 260.44 285.72 267.37 C 284.38 264.69 286.49 257.31 282.41 258.22 C 281.68 263.65 279.33 258.46 280.74 255.76 C 277.50 257.56 281.76 263.54 277.79 263.66 C 273.58 265.06 271.76 255.72 272.62 266.59 C 269.68 270.12 260.18 276.13 263.51 265.30 C 266.50 262.76 267.51 259.05 268.22 255.35 C 270.81 254.93 273.18 253.61 271.16 250.90 C 269.14 248.11 268.58 252.71 268.36 254.38 C 267.79 250.93 269.46 246.01 265.80 243.86 C 267.25 242.94 269.44 241.41 269.78 244.19 C 270.10 248.80 274.15 239.34 274.11 244.96 C 277.44 249.35 283.40 238.15 277.81 237.48 C 273.22 237.24 264.91 237.00 265.80 243.86 C 265.43 244.00 264.69 244.26 264.32 244.40 C 263.09 245.18 262.02 246.16 260.86 247.02 C 259.92 241.31 267.05 239.63 267.42 234.17 C 270.42 235.71 275.66 236.84 276.24 232.19 Z" />
</g>
<g id="#8c9d5bff">
<path fill="#8c9d5b" opacity="1.00" d=" M 277.33 232.27 C 278.35 227.36 283.18 232.23 286.08 232.39 L 286.59 233.16 C 286.05 237.47 277.37 236.71 277.33 232.27 Z" />
</g>
<g id="#685a35ff">
<path fill="#685a35" opacity="1.00" d=" M 144.66 238.58 C 142.98 228.06 158.68 229.74 163.11 234.88 C 157.25 233.46 160.29 239.41 158.84 242.88 C 157.44 245.67 160.00 248.05 161.17 250.39 C 162.96 252.62 159.50 252.63 158.07 253.38 C 159.71 254.58 161.42 255.69 163.17 256.73 C 151.75 261.30 151.49 240.13 139.96 245.04 C 139.92 244.52 139.85 243.50 139.82 242.99 C 140.28 240.33 141.89 238.64 144.66 238.58 Z" />
</g>
<g id="#0000001c">
</g>
<g id="#888151ff">
<path fill="#888151" opacity="1.00" d=" M 158.84 242.88 C 160.29 239.41 157.25 233.46 163.11 234.88 C 168.70 238.35 168.74 246.02 174.16 250.01 C 172.97 254.91 168.31 250.31 167.68 247.20 C 164.90 245.03 163.30 249.18 161.17 250.39 C 160.00 248.05 157.44 245.67 158.84 242.88 Z" />
</g>
<g id="#c2b39bff">
<path fill="#c2b39b" opacity="1.00" d=" M 207.18 235.05 C 213.23 234.87 209.52 242.94 204.96 241.00 C 204.73 238.76 205.88 236.76 207.18 235.05 Z" />
</g>
<g id="#8b9d5fff">
<path fill="#8b9d5f" opacity="1.00" d=" M 265.80 243.86 C 264.91 237.00 273.22 237.24 277.81 237.48 C 283.40 238.15 277.44 249.35 274.11 244.96 C 274.15 239.34 270.10 248.80 269.78 244.19 C 269.44 241.41 267.25 242.94 265.80 243.86 Z" />
</g>
<g id="#838c4eff">
<path fill="#838c4e" opacity="1.00" d=" M 251.23 243.04 C 252.72 242.56 254.24 242.17 255.78 241.87 C 255.84 249.86 260.60 256.64 261.42 264.52 C 262.39 266.26 259.93 266.78 258.99 267.79 C 256.47 269.35 254.51 271.73 254.91 274.87 C 254.72 275.41 254.34 276.48 254.15 277.02 C 253.71 277.12 252.81 277.31 252.36 277.40 C 248.17 279.43 243.97 273.59 240.52 277.63 C 238.22 280.38 238.13 275.70 237.61 274.13 C 230.27 271.54 233.94 287.32 226.10 281.00 C 223.06 279.03 221.64 268.64 218.50 274.78 C 216.31 269.89 210.08 271.07 205.83 269.87 C 203.74 265.30 203.76 261.63 209.76 262.11 C 208.10 265.86 212.57 265.34 215.04 265.91 C 215.85 263.05 214.38 261.02 213.06 258.90 C 214.32 259.45 215.53 260.14 216.82 260.62 C 222.18 258.81 226.48 259.31 229.57 263.87 C 231.27 259.08 235.17 252.49 238.69 259.18 C 240.20 260.42 241.71 261.65 243.17 262.94 C 242.80 259.62 240.79 255.65 243.87 253.01 C 248.32 252.71 248.62 246.22 251.23 243.04 M 245.24 255.30 C 243.62 261.37 251.35 254.44 245.24 255.30 M 250.22 267.13 C 247.91 268.98 250.97 272.36 249.35 274.92 C 253.81 279.31 256.95 264.61 250.22 267.13 Z" />
</g>
<g id="#475628f9">
<path fill="#475628" opacity="0.98" d=" M 284.01 242.21 C 285.41 242.77 286.82 243.35 288.21 243.96 C 286.60 245.74 283.38 247.09 283.96 249.94 C 281.13 250.16 288.15 259.28 284.41 256.59 C 279.74 253.45 279.80 245.80 284.01 242.21 Z" />
</g>
<g id="#3c4c1edd">
<path fill="#3c4c1e" opacity="0.87" d=" M 288.96 244.07 C 295.40 245.42 302.82 239.84 308.27 243.74 C 305.67 244.63 303.05 245.59 300.29 245.80 C 296.51 245.18 292.72 244.68 288.96 244.07 Z" />
</g>
<g id="#5e6a31ff">
<path fill="#5e6a31" opacity="1.00" d=" M 237.60 248.86 C 238.95 243.52 247.14 245.90 251.23 243.04 C 248.62 246.22 248.32 252.71 243.87 253.01 C 249.20 248.99 240.34 248.00 238.92 251.96 C 237.51 254.12 238.57 256.77 238.69 259.18 C 235.17 252.49 231.27 259.08 229.57 263.87 C 226.48 259.31 222.18 258.81 216.82 260.62 C 220.69 258.70 220.68 254.36 222.12 250.84 C 222.43 254.55 225.40 256.58 227.35 259.34 C 231.22 257.91 231.38 243.39 237.60 248.86 Z" />
</g>
<g id="#515124fb">
<path fill="#515124" opacity="1.00" d=" M 139.96 245.04 C 151.49 240.13 151.75 261.30 163.17 256.73 C 170.86 255.21 173.38 264.24 180.79 263.98 C 175.33 269.33 184.73 271.67 182.90 277.18 C 181.27 276.15 179.68 275.04 178.12 273.91 C 175.36 272.08 172.99 269.38 169.83 268.29 C 160.12 268.06 153.81 259.83 144.93 257.16 C 143.05 254.99 141.09 252.77 139.97 250.09 C 139.93 248.40 139.95 246.72 139.96 245.04 Z" />
</g>
<g id="#423e17ff">
<path fill="#423e17" opacity="1.00" d=" M 264.32 244.40 C 264.69 244.26 265.43 244.00 265.80 243.86 C 269.46 246.01 267.79 250.93 268.36 254.38 L 268.22 255.35 C 267.51 259.05 266.50 262.76 263.51 265.30 C 264.67 258.25 259.93 250.76 264.32 244.40 Z" />
</g>
<g id="#909e5cfc">
<path fill="#909e5c" opacity="1.00" d=" M 300.29 245.80 C 303.05 245.59 305.67 244.63 308.27 243.74 C 310.78 247.78 307.19 251.99 304.00 254.23 C 302.49 251.33 297.50 249.38 296.31 253.46 C 293.05 253.07 290.23 253.59 291.01 256.87 C 294.23 256.84 297.48 256.04 300.68 256.67 C 300.78 258.15 300.96 259.62 301.24 261.09 C 294.90 261.56 287.31 259.47 287.03 252.07 C 288.60 246.80 296.15 247.99 300.29 245.80 Z" />
</g>
<g id="#6c752fff">
<path fill="#6c752f" opacity="1.00" d=" M 161.17 250.39 C 163.30 249.18 164.90 245.03 167.68 247.20 C 168.31 250.31 172.97 254.91 174.16 250.01 C 175.42 253.11 177.74 253.42 178.50 249.76 C 180.22 252.69 182.95 254.63 185.81 256.32 C 188.57 259.56 192.83 257.67 194.37 254.30 C 197.59 254.07 204.39 250.64 204.40 256.28 C 204.67 261.37 210.29 256.42 213.06 258.90 C 214.38 261.02 215.85 263.05 215.04 265.91 C 212.57 265.34 208.10 265.86 209.76 262.11 C 203.76 261.63 203.74 265.30 205.83 269.87 C 200.75 270.44 211.02 275.44 206.44 277.44 C 204.63 278.25 206.41 280.98 204.33 281.36 C 203.39 277.39 201.23 275.11 197.15 276.91 C 195.59 273.64 191.76 270.01 194.27 266.29 C 196.99 262.53 190.70 259.72 187.83 261.64 C 186.55 262.46 185.18 263.33 184.56 264.80 C 181.41 267.99 185.65 270.16 188.22 271.71 C 186.28 273.40 185.44 275.85 184.60 278.21 C 184.18 277.95 183.33 277.44 182.90 277.18 C 184.73 271.67 175.33 269.33 180.79 263.98 C 173.38 264.24 170.86 255.21 163.17 256.73 C 161.42 255.69 159.71 254.58 158.07 253.38 C 159.50 252.63 162.96 252.62 161.17 250.39 Z" />
</g>
<g id="#4a471eff">
<path fill="#4a471e" opacity="1.00" d=" M 238.92 251.96 C 240.34 248.00 249.20 248.99 243.87 253.01 C 240.79 255.65 242.80 259.62 243.17 262.94 C 241.71 261.65 240.20 260.42 238.69 259.18 C 238.57 256.77 237.51 254.12 238.92 251.96 Z" />
</g>
<g id="#c2b093ff">
<path fill="#c2b093" opacity="1.00" d=" M 268.36 254.38 C 268.58 252.71 269.14 248.11 271.16 250.90 C 273.18 253.61 270.81 254.93 268.22 255.35 L 268.36 254.38 Z" />
</g>
<g id="#697a3bfc">
<path fill="#697a3b" opacity="1.00" d=" M 296.31 253.46 C 297.50 249.38 302.49 251.33 304.00 254.23 C 303.72 254.45 303.17 254.87 302.89 255.08 C 302.02 255.44 301.29 255.97 300.68 256.67 C 297.48 256.04 294.23 256.84 291.01 256.87 C 290.23 253.59 293.05 253.07 296.31 253.46 Z" />
</g>
<g id="#cfbfa5ff">
<path fill="#cfbfa5" opacity="1.00" d=" M 245.24 255.30 C 251.35 254.44 243.62 261.37 245.24 255.30 Z" />
</g>
<g id="#2127116b">
</g>
<g id="#868131ff">
<path fill="#868131" opacity="1.00" d=" M 187.83 261.64 C 190.70 259.72 196.99 262.53 194.27 266.29 C 191.76 270.01 195.59 273.64 197.15 276.91 C 201.23 275.11 203.39 277.39 204.33 281.36 C 197.42 283.75 194.66 273.04 188.22 271.71 C 185.65 270.16 181.41 267.99 184.56 264.80 C 186.09 272.90 196.06 261.22 187.83 261.64 Z" />
</g>
<g id="#afa27fff">
<path fill="#afa27f" opacity="1.00" d=" M 184.56 264.80 C 185.18 263.33 186.55 262.46 187.83 261.64 C 196.06 261.22 186.09 272.90 184.56 264.80 Z" />
</g>
<g id="#9ea258ff">
<path fill="#9ea258" opacity="1.00" d=" M 285.72 267.37 C 284.85 260.44 295.39 260.58 295.30 267.13 C 292.11 267.40 288.90 267.40 285.72 267.37 Z" />
</g>
<g id="#a6a97fff">
<path fill="#a6a97f" opacity="1.00" d=" M 250.22 267.13 C 256.95 264.61 253.81 279.31 249.35 274.92 C 250.97 272.36 247.91 268.98 250.22 267.13 Z" />
</g>
<g id="#7b7f45f5">
<path fill="#7b7f45" opacity="0.96" d=" M 285.72 267.37 C 288.90 267.40 292.11 267.40 295.30 267.13 C 290.34 269.95 288.76 275.05 284.92 278.84 C 282.53 281.98 278.03 283.26 274.51 281.36 C 273.01 276.44 282.53 277.48 279.21 271.14 C 279.84 265.87 285.16 272.05 285.72 267.37 M 284.34 271.32 C 278.47 271.33 282.40 276.48 286.15 274.28 C 289.98 274.30 286.86 269.42 284.34 271.32 Z" />
</g>
<g id="#43411cf4">
<path fill="#43411c" opacity="0.96" d=" M 254.91 274.87 C 254.51 271.73 256.47 269.35 258.99 267.79 C 264.59 267.19 261.29 273.29 263.94 276.04 C 260.94 275.62 257.91 275.21 254.91 274.87 Z" />
</g>
<g id="#3d4023f6">
<path fill="#3d4023" opacity="0.96" d=" M 272.99 273.07 C 273.70 269.89 279.98 265.02 279.21 271.14 C 282.53 277.48 273.01 276.44 274.51 281.36 C 271.63 279.02 269.90 275.13 265.11 277.13 L 264.84 276.18 C 267.46 273.03 271.33 277.24 272.99 273.07 Z" />
</g>
<g id="#00000014">
</g>
<g id="#4d5525fb">
<path fill="#4d5525" opacity="1.00" d=" M 206.44 277.44 C 211.02 275.44 200.75 270.44 205.83 269.87 C 207.31 272.05 209.54 273.46 211.73 271.35 C 212.44 275.17 214.97 278.22 216.40 281.77 C 218.84 282.10 221.22 281.04 223.67 281.05 C 223.83 283.43 224.24 285.70 227.19 285.38 C 221.64 287.82 215.27 291.40 210.06 285.97 C 206.24 284.50 201.92 285.33 197.90 285.08 C 194.07 281.58 189.38 279.92 184.60 278.21 C 185.44 275.85 186.28 273.40 188.22 271.71 C 194.66 273.04 197.42 283.75 204.33 281.36 C 206.41 280.98 204.63 278.25 206.44 277.44 Z" />
</g>
<g id="#666d30fa">
<path fill="#666d30" opacity="0.98" d=" M 205.83 269.87 C 210.08 271.07 216.31 269.89 218.50 274.78 C 221.64 268.64 223.06 279.03 226.10 281.00 C 233.94 287.32 230.27 271.54 237.61 274.13 C 238.13 275.70 238.22 280.38 240.52 277.63 C 243.97 273.59 248.17 279.43 252.36 277.40 C 248.81 280.51 243.90 279.84 239.56 280.61 C 235.80 282.99 231.72 285.07 227.19 285.38 C 224.24 285.70 223.83 283.43 223.67 281.05 C 221.22 281.04 218.84 282.10 216.40 281.77 C 214.97 278.22 212.44 275.17 211.73 271.35 C 209.54 273.46 207.31 272.05 205.83 269.87 Z" />
</g>
<g id="#a4a76bff">
<path fill="#a4a76b" opacity="1.00" d=" M 284.34 271.32 C 286.86 269.42 289.98 274.30 286.15 274.28 C 282.40 276.48 278.47 271.33 284.34 271.32 Z" />
</g>
<g id="#05040229">
</g>
<g id="#1e1f0f99">
<path fill="#1e1f0f" opacity="0.60" d=" M 197.90 285.08 C 201.92 285.33 206.24 284.50 210.06 285.97 C 206.03 285.66 201.72 286.42 197.90 285.08 Z" />
</g>
<g id="#0000000b">
</g>
</svg>






