<?xml version="1.0" encoding="UTF-8" ?>
<!DOCTYPE svg PUBLIC "-//W3C//DTD SVG 1.1//EN" "http://www.w3.org/Graphics/SVG/1.1/DTD/svg11.dtd">
<svg width="384pt" height="384pt" viewBox="0 0 384 384" version="1.1" xmlns="http://www.w3.org/2000/svg">
<g id="#00000010">
</g>
<g id="#00000017">
</g>
<g id="#0000001e">
</g>
<g id="#1f1a0e80">
</g>
<g id="#575e2efb">
<path fill="#575e2e" opacity="1.00" d=" M 215.09 97.32 C 218.25 97.16 221.28 96.36 223.92 94.63 C 225.84 95.56 228.08 95.56 229.99 94.59 C 230.28 94.79 230.88 95.19 231.17 95.40 C 224.95 95.29 231.92 106.07 226.09 101.93 C 223.57 97.38 221.60 104.78 222.81 106.99 L 223.21 107.91 C 220.59 110.46 216.77 103.08 214.44 107.39 C 211.92 112.23 204.72 107.13 203.66 103.18 C 197.46 101.88 194.69 109.58 189.88 112.01 C 187.11 112.45 185.21 109.88 182.88 108.87 C 184.53 113.45 191.04 122.34 182.09 122.11 C 178.01 119.40 173.39 122.50 171.22 126.10 C 171.20 123.40 170.90 120.36 168.56 123.71 C 162.30 125.65 168.34 120.59 165.94 117.32 C 163.26 118.05 160.58 118.90 157.77 118.91 C 161.35 114.03 167.60 112.36 173.40 112.08 C 179.16 114.33 181.42 105.59 187.02 105.10 C 191.71 104.35 195.43 101.63 199.06 98.81 C 201.03 99.06 203.04 99.23 205.03 98.96 C 206.73 98.90 208.42 98.58 210.02 97.99 C 211.73 98.37 213.62 98.43 215.09 97.32 Z" />
</g>
<g id="#707937fc">
<path fill="#707937" opacity="1.00" d=" M 226.09 101.93 C 231.92 106.07 224.95 95.29 231.17 95.40 C 235.55 98.85 239.27 103.08 243.93 106.24 C 245.48 106.36 248.57 106.59 250.11 106.70 C 251.34 107.92 252.57 109.14 253.85 110.30 C 255.99 112.49 258.47 114.29 261.11 115.83 C 256.64 113.34 251.34 121.02 248.06 116.01 C 246.52 114.42 244.37 113.74 242.34 113.03 C 239.17 111.30 234.24 103.68 231.12 109.21 C 228.56 110.23 225.81 104.02 222.81 106.99 C 221.60 104.78 223.57 97.38 226.09 101.93 Z" />
</g>
<g id="#1f1d108b">
</g>
<g id="#25271290">
</g>
<g id="#2c2b0f80">
</g>
<g id="#6e7637ff">
<path fill="#6e7637" opacity="1.00" d=" M 189.88 112.01 C 194.69 109.58 197.46 101.88 203.66 103.18 C 204.72 107.13 211.92 112.23 214.44 107.39 C 216.77 103.08 220.59 110.46 223.21 107.91 C 222.43 111.60 216.70 116.21 211.88 116.83 C 207.15 117.47 210.71 113.15 211.13 110.85 C 207.43 112.62 203.72 116.46 204.95 121.04 C 210.67 121.23 216.84 114.85 222.32 118.61 C 220.63 119.28 216.71 117.97 217.15 120.79 C 215.82 120.20 214.71 120.08 214.96 121.95 C 215.51 125.33 210.11 124.74 210.25 127.62 C 213.31 129.22 217.34 129.80 219.19 133.02 C 215.91 133.15 211.43 130.36 209.34 134.14 C 210.06 138.03 210.91 142.22 213.66 145.24 C 214.21 145.82 214.90 145.85 215.76 145.33 C 217.24 144.83 218.76 144.47 220.29 144.13 C 219.23 146.70 217.35 148.96 216.99 151.79 C 216.18 147.99 210.77 146.04 210.25 151.03 C 208.48 146.78 204.53 143.79 203.52 139.19 C 200.32 139.13 197.30 140.98 193.97 140.13 C 194.60 141.79 195.43 143.37 196.06 145.04 C 191.09 144.90 188.14 140.81 186.97 136.27 C 191.39 137.56 190.13 128.68 193.73 131.14 C 205.63 134.97 187.99 118.72 187.61 127.96 C 185.41 126.75 183.27 125.36 183.64 129.16 C 181.41 127.49 182.18 124.59 182.09 122.11 C 191.04 122.34 184.53 113.45 182.88 108.87 C 185.21 109.88 187.11 112.45 189.88 112.01 Z" />
</g>
<g id="#51562efc">
<path fill="#51562e" opacity="1.00" d=" M 271.09 108.24 C 272.98 106.33 274.59 104.12 276.77 102.52 C 273.94 107.31 283.04 106.35 280.08 112.02 C 279.77 115.62 282.83 115.81 285.51 116.10 C 286.96 119.81 284.90 121.73 283.03 123.95 C 282.97 124.43 282.84 125.40 282.77 125.88 C 277.71 127.32 279.90 119.34 275.09 118.71 C 278.59 114.64 275.93 108.98 270.37 110.49 C 266.29 110.14 268.32 115.09 269.85 116.95 C 267.91 116.53 265.98 116.07 264.00 115.92 C 265.12 120.95 267.16 125.83 266.98 131.08 C 261.36 129.84 262.85 121.32 262.62 116.84 C 262.24 116.59 261.49 116.08 261.11 115.83 C 258.47 114.29 255.99 112.49 253.85 110.30 C 257.25 109.87 260.62 109.16 264.03 108.79 C 266.81 110.16 269.16 109.98 271.09 108.24 Z" />
</g>
<g id="#7c7f45fe">
<path fill="#7c7f45" opacity="1.00" d=" M 276.77 102.52 C 278.74 103.48 281.00 103.44 283.01 102.64 C 289.06 107.08 291.75 113.35 297.12 118.06 C 296.21 120.19 297.19 122.83 299.88 121.94 C 300.41 122.22 301.46 122.78 301.99 123.06 C 301.98 123.80 301.97 125.27 301.96 126.00 C 299.71 124.62 294.91 122.08 294.35 126.29 C 292.34 129.98 299.74 127.97 301.83 129.20 C 302.38 129.37 303.48 129.73 304.03 129.90 C 304.51 130.17 305.45 130.71 305.92 130.98 C 302.09 135.94 297.20 129.81 292.48 129.62 C 287.09 126.34 285.89 131.64 289.10 133.92 C 282.80 140.61 286.76 128.18 282.46 127.20 C 281.46 131.08 275.57 131.75 280.00 136.03 C 278.73 135.77 277.48 135.49 276.21 135.27 C 277.28 138.99 274.69 142.22 274.20 145.80 C 273.48 150.30 269.59 141.92 267.10 140.80 C 271.09 127.37 262.78 139.43 257.22 137.94 C 253.59 135.54 258.43 129.15 253.03 128.78 C 250.68 132.54 257.20 142.75 251.08 143.18 C 250.01 139.91 244.30 140.09 246.79 134.84 C 245.92 137.44 243.30 142.18 241.48 137.52 C 239.10 133.77 243.62 132.73 243.54 137.15 C 248.07 130.16 238.74 125.99 238.00 119.29 C 243.22 120.22 243.07 114.41 237.86 115.81 C 239.45 115.02 241.65 114.95 242.34 113.03 C 244.37 113.74 246.52 114.42 248.06 116.01 C 246.03 118.82 248.14 128.09 249.30 120.89 C 250.65 122.48 251.79 124.26 253.19 125.83 C 255.30 124.51 257.36 122.89 260.00 123.68 C 261.50 119.69 255.54 122.41 255.99 119.23 C 259.33 120.10 261.54 119.30 262.62 116.84 C 262.85 121.32 261.36 129.84 266.98 131.08 C 267.16 125.83 265.12 120.95 264.00 115.92 C 265.98 116.07 267.91 116.53 269.85 116.95 C 268.32 115.09 266.29 110.14 270.37 110.49 C 275.93 108.98 278.59 114.64 275.09 118.71 C 279.90 119.34 277.71 127.32 282.77 125.88 C 285.68 125.51 288.61 125.53 291.53 125.60 C 293.00 123.38 294.48 121.17 295.95 118.95 C 293.46 117.55 285.64 117.51 289.14 121.82 C 291.75 125.91 284.95 121.55 283.03 123.95 C 284.90 121.73 286.96 119.81 285.51 116.10 C 282.83 115.81 279.77 115.62 280.08 112.02 C 283.04 106.35 273.94 107.31 276.77 102.52 M 285.17 109.33 C 277.91 111.57 285.50 117.00 289.39 113.44 C 293.64 111.32 287.14 110.07 285.17 109.33 Z" />
</g>
<g id="#00000027">
</g>
<g id="#899a54ff">
<path fill="#899a54" opacity="1.00" d=" M 222.81 106.99 C 225.81 104.02 228.56 110.23 231.12 109.21 C 234.24 103.68 239.17 111.30 242.34 113.03 C 241.65 114.95 239.45 115.02 237.86 115.81 C 235.99 116.77 236.05 119.48 235.04 121.18 C 232.70 123.11 225.22 118.60 229.90 117.38 C 232.73 118.52 234.12 112.66 231.30 112.09 C 229.58 114.49 228.01 118.47 225.01 115.14 C 226.34 118.60 226.39 120.99 222.32 118.61 C 216.84 114.85 210.67 121.23 204.95 121.04 C 203.72 116.46 207.43 112.62 211.13 110.85 C 210.71 113.15 207.15 117.47 211.88 116.83 C 216.70 116.21 222.43 111.60 223.21 107.91 L 222.81 106.99 Z" />
</g>
<g id="#343516a9">
<path fill="#343516" opacity="0.66" d=" M 243.93 106.24 C 245.48 106.36 248.57 106.59 250.11 106.70 C 248.57 106.59 245.48 106.36 243.93 106.24 Z" />
</g>
<g id="#22231497">
</g>
<g id="#989c5eff">
<path fill="#989c5e" opacity="1.00" d=" M 285.17 109.33 C 287.14 110.07 293.64 111.32 289.39 113.44 C 285.50 117.00 277.91 111.57 285.17 109.33 Z" />
</g>
<g id="#5c6a2fff">
<path fill="#5c6a2f" opacity="1.00" d=" M 231.30 112.09 C 234.12 112.66 232.73 118.52 229.90 117.38 C 225.22 118.60 232.70 123.11 235.04 121.18 C 233.20 124.29 228.86 128.89 233.03 131.98 C 234.53 134.01 243.77 140.58 236.92 140.33 C 234.50 138.31 233.42 134.72 230.27 137.99 C 231.99 134.78 225.68 126.28 223.47 132.08 C 220.04 128.96 223.83 126.71 226.79 125.57 C 226.74 118.35 220.03 126.16 216.03 125.13 C 216.60 123.73 217.42 122.36 217.15 120.79 C 216.71 117.97 220.63 119.28 222.32 118.61 C 226.39 120.99 226.34 118.60 225.01 115.14 C 228.01 118.47 229.58 114.49 231.30 112.09 Z" />
</g>
<g id="#524f1ffc">
<path fill="#524f1f" opacity="1.00" d=" M 235.04 121.18 C 236.05 119.48 235.99 116.77 237.86 115.81 C 243.07 114.41 243.22 120.22 238.00 119.29 C 238.74 125.99 248.07 130.16 243.54 137.15 C 243.62 132.73 239.10 133.77 241.48 137.52 C 243.30 142.18 245.92 137.44 246.79 134.84 C 244.30 140.09 250.01 139.91 251.08 143.18 C 248.10 142.61 245.08 142.08 242.11 141.56 C 240.81 141.25 238.22 140.64 236.92 140.33 C 243.77 140.58 234.53 134.01 233.03 131.98 C 228.86 128.89 233.20 124.29 235.04 121.18 Z" />
</g>
<g id="#889955ff">
<path fill="#889955" opacity="1.00" d=" M 248.06 116.01 C 251.34 121.02 256.64 113.34 261.11 115.83 C 261.49 116.08 262.24 116.59 262.62 116.84 C 261.54 119.30 259.33 120.10 255.99 119.23 C 255.54 122.41 261.50 119.69 260.00 123.68 C 257.36 122.89 255.30 124.51 253.19 125.83 C 251.79 124.26 250.65 122.48 249.30 120.89 C 248.14 128.09 246.03 118.82 248.06 116.01 Z" />
</g>
<g id="#616a3bff">
<path fill="#616a3b" opacity="1.00" d=" M 157.77 118.91 C 160.58 118.90 163.26 118.05 165.94 117.32 C 168.34 120.59 162.30 125.65 168.56 123.71 C 165.71 126.58 169.10 129.84 170.14 132.75 C 171.26 137.13 172.05 141.62 172.93 146.07 C 171.64 152.21 177.45 148.07 180.19 146.79 C 177.69 155.25 164.96 162.08 171.05 172.04 C 174.08 169.94 175.93 166.18 179.82 165.51 C 181.43 161.56 174.27 163.32 175.92 159.03 C 180.70 157.79 187.95 162.48 183.19 167.16 C 178.00 168.46 174.18 172.03 174.16 177.94 C 175.85 179.45 177.17 176.54 179.05 176.89 C 180.03 180.23 174.04 179.63 174.28 181.84 C 177.07 182.89 180.37 182.84 182.05 185.93 C 182.39 181.56 181.61 176.43 186.97 174.92 C 187.91 177.14 187.58 179.62 187.82 181.97 C 186.54 181.00 185.33 179.94 184.06 178.97 C 184.88 182.69 183.46 186.18 182.85 189.79 C 182.59 194.05 188.70 192.60 186.54 198.20 C 180.62 197.64 183.29 190.59 180.89 186.92 C 177.83 188.75 176.37 198.34 181.72 197.45 C 183.92 202.22 184.43 208.41 179.96 212.07 C 180.52 215.05 182.51 213.06 184.03 211.96 L 184.38 212.58 C 185.93 215.64 187.57 219.23 185.40 222.35 C 186.72 217.48 177.66 212.69 177.05 219.11 C 175.84 224.03 182.35 222.49 185.40 222.35 C 187.11 226.15 180.08 227.06 185.80 228.89 C 185.51 230.62 183.81 232.40 184.86 234.13 C 187.79 238.34 183.00 236.30 180.33 236.07 C 182.08 240.09 174.95 238.65 178.16 243.73 C 180.76 247.71 186.88 245.80 189.31 249.96 C 184.32 251.07 180.20 248.14 176.00 246.18 C 173.28 250.44 175.71 255.95 179.60 258.45 C 182.73 261.12 178.39 263.02 175.90 263.41 C 174.80 257.06 166.22 258.15 165.96 251.99 C 164.99 246.00 178.33 250.12 172.29 244.70 C 168.02 245.63 157.50 240.60 158.39 249.56 C 157.14 253.65 148.84 244.41 155.83 244.58 C 159.37 231.45 138.06 237.76 142.01 226.04 C 143.58 227.53 144.63 230.07 147.11 230.10 C 147.09 226.76 142.69 222.17 146.99 219.98 C 149.63 218.78 149.14 215.66 149.51 213.28 C 153.33 211.54 159.99 207.38 163.02 211.97 C 164.32 214.60 167.38 214.25 169.98 214.65 C 173.92 216.25 174.81 212.00 172.54 209.51 C 169.42 205.52 178.55 205.41 175.53 201.59 C 171.56 199.36 162.54 192.52 171.85 191.62 C 169.87 183.04 159.22 194.21 155.35 188.88 C 157.47 185.03 157.33 176.90 151.24 178.02 C 150.41 183.61 145.75 181.91 144.85 177.38 C 151.36 178.14 152.12 170.42 156.80 167.83 C 164.16 164.84 163.32 155.79 160.29 149.92 C 160.94 149.95 162.24 150.01 162.89 150.04 C 164.19 150.12 165.23 149.40 166.07 148.49 C 167.39 147.23 168.68 145.88 169.42 144.18 C 170.58 142.51 169.36 140.56 168.90 138.87 C 168.45 136.84 167.05 135.66 164.94 135.69 C 170.89 130.20 158.10 133.94 154.55 132.20 C 154.81 136.08 152.15 139.26 150.21 142.36 C 151.39 137.15 150.24 132.16 148.97 127.17 C 151.89 125.23 157.39 125.89 155.96 120.90 C 156.55 120.23 157.15 119.56 157.77 118.91 Z" />
</g>
<g id="#9aa168ff">
<path fill="#9aa168" opacity="1.00" d=" M 289.14 121.82 C 285.64 117.51 293.46 117.55 295.95 118.95 C 294.48 121.17 293.00 123.38 291.53 125.60 C 288.61 125.53 285.68 125.51 282.77 125.88 C 282.84 125.40 282.97 124.43 283.03 123.95 C 284.95 121.55 291.75 125.91 289.14 121.82 Z" />
</g>
<g id="#1c230d6c">
</g>
<g id="#858645fe">
<path fill="#858645" opacity="1.00" d=" M 214.96 121.95 C 214.71 120.08 215.82 120.20 217.15 120.79 C 217.42 122.36 216.60 123.73 216.03 125.13 C 220.03 126.16 226.74 118.35 226.79 125.57 C 223.83 126.71 220.04 128.96 223.47 132.08 C 222.86 133.57 222.22 135.04 221.72 136.57 C 220.97 138.35 221.17 140.31 221.07 142.19 C 220.87 142.67 220.49 143.64 220.29 144.13 C 219.35 140.55 220.07 135.02 215.14 134.90 C 213.21 137.90 213.66 141.81 213.66 145.24 C 210.91 142.22 210.06 138.03 209.34 134.14 C 211.43 130.36 215.91 133.15 219.19 133.02 C 217.34 129.80 213.31 129.22 210.25 127.62 C 210.11 124.74 215.51 125.33 214.96 121.95 Z" />
</g>
<g id="#585c33fe">
<path fill="#585c33" opacity="1.00" d=" M 154.19 121.04 C 154.63 121.01 155.52 120.94 155.96 120.90 C 157.39 125.89 151.89 125.23 148.97 127.17 C 150.24 132.16 151.39 137.15 150.21 142.36 C 152.15 139.26 154.81 136.08 154.55 132.20 C 158.10 133.94 170.89 130.20 164.94 135.69 C 161.78 135.28 158.50 136.16 156.04 138.20 C 155.68 142.51 159.19 145.91 160.29 149.92 C 163.32 155.79 164.16 164.84 156.80 167.83 C 152.12 170.42 151.36 178.14 144.85 177.38 C 145.75 181.91 150.41 183.61 151.24 178.02 C 157.33 176.90 157.47 185.03 155.35 188.88 C 159.22 194.21 169.87 183.04 171.85 191.62 C 162.54 192.52 171.56 199.36 175.53 201.59 C 178.55 205.41 169.42 205.52 172.54 209.51 C 174.81 212.00 173.92 216.25 169.98 214.65 C 171.14 212.89 171.57 210.65 169.37 209.57 C 166.47 207.83 170.09 205.50 170.84 203.49 C 167.20 201.66 163.79 199.39 160.07 197.72 C 161.13 199.21 165.26 204.94 161.41 203.58 C 156.06 198.20 148.91 194.19 141.30 193.59 C 137.09 190.16 135.60 184.20 131.07 180.96 C 130.16 181.92 129.28 184.23 131.04 184.83 C 136.13 186.57 133.16 193.34 133.97 197.14 C 130.79 197.42 129.62 194.05 127.24 192.65 C 127.06 189.35 126.95 186.07 126.59 182.80 C 130.96 177.69 131.88 171.44 133.40 165.16 C 134.06 164.45 134.71 163.72 135.32 162.96 C 138.12 155.37 142.02 148.78 139.00 140.09 C 139.03 139.58 139.11 138.54 139.14 138.02 L 139.35 137.07 C 139.59 136.12 139.82 135.17 140.03 134.22 L 140.25 133.33 C 141.40 130.88 142.86 128.56 144.99 126.85 C 148.05 124.90 151.10 122.94 154.19 121.04 Z" />
</g>
<g id="#808b47ff">
<path fill="#808b47" opacity="1.00" d=" M 171.22 126.10 C 173.39 122.50 178.01 119.40 182.09 122.11 C 182.18 124.59 181.41 127.49 183.64 129.16 C 183.27 125.36 185.41 126.75 187.61 127.96 C 187.99 118.72 205.63 134.97 193.73 131.14 C 190.13 128.68 191.39 137.56 186.97 136.27 C 184.60 130.88 184.45 138.55 183.71 140.66 C 181.21 143.97 177.01 145.82 172.93 146.07 C 172.05 141.62 171.26 137.13 170.14 132.75 C 169.10 129.84 165.71 126.58 168.56 123.71 C 170.90 120.36 171.20 123.40 171.22 126.10 Z" />
</g>
<g id="#3d47219b">
<path fill="#3d4721" opacity="0.61" d=" M 301.99 123.06 C 303.95 124.46 303.26 127.65 304.03 129.90 C 303.48 129.73 302.38 129.37 301.83 129.20 C 301.86 128.40 301.93 126.80 301.96 126.00 C 301.97 125.27 301.98 123.80 301.99 123.06 Z" />
</g>
<g id="#9caf77fe">
<path fill="#9caf77" opacity="1.00" d=" M 294.35 126.29 C 294.91 122.08 299.71 124.62 301.96 126.00 C 301.93 126.80 301.86 128.40 301.83 129.20 C 299.74 127.97 292.34 129.98 294.35 126.29 Z" />
</g>
<g id="#00000031">
</g>
<g id="#55652df9">
<path fill="#55652d" opacity="0.98" d=" M 282.46 127.20 C 286.76 128.18 282.80 140.61 289.10 133.92 C 292.95 135.02 295.49 139.62 299.86 138.69 C 303.54 137.58 306.56 142.09 310.15 140.14 C 309.89 140.64 309.38 141.63 309.12 142.12 C 307.35 142.11 303.82 142.07 302.05 142.06 C 301.56 141.79 300.58 141.25 300.09 140.98 C 297.16 139.57 293.73 139.75 290.70 140.62 C 287.96 141.29 285.28 142.32 283.02 144.02 C 284.53 140.85 281.49 138.50 280.00 136.03 C 275.57 131.75 281.46 131.08 282.46 127.20 Z" />
</g>
<g id="#424b21fb">
<path fill="#424b21" opacity="1.00" d=" M 253.03 128.78 C 258.43 129.15 253.59 135.54 257.22 137.94 C 262.78 139.43 271.09 127.37 267.10 140.80 C 266.45 143.24 268.44 144.66 269.96 146.14 C 269.56 148.86 261.66 153.08 271.52 150.43 C 274.91 150.07 275.21 154.62 276.09 156.97 C 275.53 157.01 274.40 157.11 273.84 157.15 C 264.98 155.08 256.53 150.62 251.08 143.18 C 257.20 142.75 250.68 132.54 253.03 128.78 Z" />
</g>
<g id="#929d53fd">
<path fill="#929d53" opacity="1.00" d=" M 289.10 133.92 C 285.89 131.64 287.09 126.34 292.48 129.62 C 297.20 129.81 302.09 135.94 305.92 130.98 C 309.27 132.70 310.60 136.55 310.15 140.14 C 306.56 142.09 303.54 137.58 299.86 138.69 C 295.49 139.62 292.95 135.02 289.10 133.92 Z" />
</g>
<g id="#3c4219f8">
<path fill="#3c4219" opacity="0.97" d=" M 223.47 132.08 C 225.68 126.28 231.99 134.78 230.27 137.99 C 233.42 134.72 234.50 138.31 236.92 140.33 C 233.62 139.71 230.38 138.82 227.19 137.75 C 225.41 137.19 223.55 136.89 221.72 136.57 C 222.22 135.04 222.86 133.57 223.47 132.08 Z" />
</g>
<g id="#00000040">
</g>
<g id="#00000051">
</g>
<g id="#8f9d65ff">
<path fill="#8f9d65" opacity="1.00" d=" M 183.71 140.66 C 184.45 138.55 184.60 130.88 186.97 136.27 C 188.14 140.81 191.09 144.90 196.06 145.04 C 195.43 143.37 194.60 141.79 193.97 140.13 C 197.30 140.98 200.32 139.13 203.52 139.19 C 204.53 143.79 208.48 146.78 210.25 151.03 C 211.33 153.05 215.39 152.97 214.90 155.75 C 212.31 157.20 209.18 158.31 210.74 161.86 C 207.11 160.24 199.82 164.74 201.58 157.23 C 200.19 156.18 197.40 154.09 196.00 153.04 C 195.69 154.91 198.71 159.78 195.30 158.88 C 196.11 155.34 195.02 153.63 192.03 153.76 C 194.26 154.69 193.76 157.50 191.22 156.92 C 188.60 153.08 192.87 147.70 188.29 144.66 C 185.27 142.06 182.39 146.64 184.86 149.20 C 188.59 152.95 176.02 157.00 180.12 153.19 C 183.47 152.64 181.78 148.43 180.19 146.79 C 177.45 148.07 171.64 152.21 172.93 146.07 C 177.01 145.82 181.21 143.97 183.71 140.66 M 202.92 148.93 C 203.89 151.35 205.49 158.87 208.90 154.78 C 209.89 151.31 205.49 149.82 202.92 148.93 Z" />
</g>
<g id="#7e6b46ff">
<path fill="#7e6b46" opacity="1.00" d=" M 156.04 138.20 C 158.50 136.16 161.78 135.28 164.94 135.69 C 167.05 135.66 168.45 136.84 168.90 138.87 C 163.83 138.86 160.68 145.79 162.89 150.04 C 162.24 150.01 160.94 149.95 160.29 149.92 C 159.19 145.91 155.68 142.51 156.04 138.20 Z" />
</g>
<g id="#aa9266ff">
<path fill="#aa9266" opacity="1.00" d=" M 215.14 134.90 C 220.07 135.02 219.35 140.55 220.29 144.13 C 218.76 144.47 217.24 144.83 215.76 145.33 C 216.30 143.32 219.80 139.53 216.42 138.59 C 212.66 135.98 215.40 143.23 215.76 145.33 C 214.90 145.85 214.21 145.82 213.66 145.24 C 213.66 141.81 213.21 137.90 215.14 134.90 Z" />
</g>
<g id="#849758fe">
<path fill="#849758" opacity="1.00" d=" M 276.21 135.27 C 277.48 135.49 278.73 135.77 280.00 136.03 C 281.49 138.50 284.53 140.85 283.02 144.02 L 282.61 144.75 C 281.74 145.83 281.87 146.67 283.00 147.28 C 284.71 148.94 290.78 149.54 287.39 152.33 C 285.67 156.15 281.19 154.05 278.10 155.60 C 276.20 152.84 278.04 146.99 274.20 145.80 C 274.69 142.22 277.28 138.99 276.21 135.27 Z" />
</g>
<g id="#00000061">
</g>
<g id="#211f0e80">
</g>
<g id="#00000072">
</g>
<g id="#d6cab8ff">
<path fill="#d6cab8" opacity="1.00" d=" M 215.76 145.33 C 215.40 143.23 212.66 135.98 216.42 138.59 C 219.80 139.53 216.30 143.32 215.76 145.33 Z" />
</g>
<g id="#0101011b">
</g>
<g id="#9d926eff">
<path fill="#9d926e" opacity="1.00" d=" M 162.89 150.04 C 160.68 145.79 163.83 138.86 168.90 138.87 C 169.36 140.56 170.58 142.51 169.42 144.18 C 165.32 141.01 162.19 145.30 166.07 148.49 C 165.23 149.40 164.19 150.12 162.89 150.04 Z" />
</g>
<g id="#01010183">
</g>
<g id="#19200c82">
</g>
<g id="#57662cf9">
<path fill="#57662c" opacity="0.98" d=" M 267.10 140.80 C 269.59 141.92 273.48 150.30 274.20 145.80 C 278.04 146.99 276.20 152.84 278.10 155.60 C 281.19 154.05 285.67 156.15 287.39 152.33 C 290.78 149.54 284.71 148.94 283.00 147.28 C 283.47 147.20 284.41 147.03 284.88 146.95 C 289.88 148.60 295.80 147.43 300.13 150.86 C 296.10 150.41 288.12 148.01 290.18 154.72 C 292.40 160.86 300.98 151.16 299.06 158.99 C 296.34 159.06 293.63 159.14 290.93 159.22 C 289.03 158.73 287.16 158.15 285.22 157.84 C 282.18 157.33 279.16 156.99 276.09 156.97 C 275.21 154.62 274.91 150.07 271.52 150.43 C 261.66 153.08 269.56 148.86 269.96 146.14 C 268.44 144.66 266.45 143.24 267.10 140.80 Z" />
</g>
<g id="#161a0c81">
</g>
<g id="#d2cbb7ff">
<path fill="#d2cbb7" opacity="1.00" d=" M 166.07 148.49 C 162.19 145.30 165.32 141.01 169.42 144.18 C 168.68 145.88 167.39 147.23 166.07 148.49 Z" />
</g>
<g id="#7e8744fe">
<path fill="#7e8744" opacity="1.00" d=" M 184.86 149.20 C 182.39 146.64 185.27 142.06 188.29 144.66 C 192.87 147.70 188.60 153.08 191.22 156.92 C 193.76 157.50 194.26 154.69 192.03 153.76 C 195.02 153.63 196.11 155.34 195.30 158.88 C 198.71 159.78 195.69 154.91 196.00 153.04 C 197.40 154.09 200.19 156.18 201.58 157.23 C 199.82 164.74 207.11 160.24 210.74 161.86 C 209.18 158.31 212.31 157.20 214.90 155.75 C 215.39 152.97 211.33 153.05 210.25 151.03 C 210.77 146.04 216.18 147.99 216.99 151.79 C 221.96 159.04 228.71 165.78 230.26 174.76 C 230.12 179.95 230.11 185.15 229.72 190.34 C 220.62 192.48 223.18 183.39 222.61 178.60 C 226.45 174.81 219.58 175.46 219.23 178.71 C 213.24 178.11 220.87 183.78 216.34 186.32 C 212.96 190.43 217.56 187.90 220.02 186.97 C 222.09 192.54 208.06 198.02 207.40 191.86 C 206.69 190.47 205.51 189.38 204.55 188.17 C 201.73 189.42 203.38 192.97 202.16 195.02 C 196.30 192.23 203.34 186.50 198.86 182.21 C 203.05 186.43 208.00 182.25 208.41 177.35 C 211.64 171.16 205.05 165.59 199.40 165.71 C 196.42 165.23 190.48 162.57 189.29 167.26 C 189.46 172.85 192.04 178.01 197.18 180.73 C 190.66 179.44 187.31 180.76 191.07 185.82 C 190.14 190.32 186.47 189.75 182.85 189.79 C 183.46 186.18 184.88 182.69 184.06 178.97 C 185.33 179.94 186.54 181.00 187.82 181.97 C 187.58 179.62 187.91 177.14 186.97 174.92 C 181.61 176.43 182.39 181.56 182.05 185.93 C 180.37 182.84 177.07 182.89 174.28 181.84 C 174.04 179.63 180.03 180.23 179.05 176.89 C 177.17 176.54 175.85 179.45 174.16 177.94 C 174.18 172.03 178.00 168.46 183.19 167.16 C 187.95 162.48 180.70 157.79 175.92 159.03 C 174.27 163.32 181.43 161.56 179.82 165.51 C 175.93 166.18 174.08 169.94 171.05 172.04 C 164.96 162.08 177.69 155.25 180.19 146.79 C 181.78 148.43 183.47 152.64 180.12 153.19 C 176.02 157.00 188.59 152.95 184.86 149.20 M 174.26 156.23 C 172.05 161.64 179.14 155.84 174.26 156.23 M 211.34 163.24 C 210.15 164.97 208.85 166.76 208.86 168.97 C 210.66 167.81 212.53 166.36 214.82 167.11 C 217.60 171.43 210.85 173.58 210.92 178.00 C 213.35 177.43 217.26 177.45 215.26 174.08 C 222.49 175.47 215.25 169.01 217.65 165.40 C 219.03 161.44 213.62 164.35 211.34 163.24 Z" />
</g>
<g id="#222c0f86">
</g>
<g id="#6b7741ff">
<path fill="#6b7741" opacity="1.00" d=" M 202.92 148.93 C 205.49 149.82 209.89 151.31 208.90 154.78 C 205.49 158.87 203.89 151.35 202.92 148.93 Z" />
</g>
<g id="#8b9857fd">
<path fill="#8b9857" opacity="1.00" d=" M 290.18 154.72 C 288.12 148.01 296.10 150.41 300.13 150.86 C 301.29 151.73 302.28 152.81 303.27 153.87 C 302.77 155.33 302.84 156.77 303.46 158.18 L 303.01 158.93 C 301.69 158.97 300.37 158.99 299.06 158.99 C 300.98 151.16 292.40 160.86 290.18 154.72 Z" />
</g>
<g id="#544f2b96">
</g>
<g id="#00000043">
</g>
<g id="#c3bb9bff">
<path fill="#c3bb9b" opacity="1.00" d=" M 174.26 156.23 C 179.14 155.84 172.05 161.64 174.26 156.23 Z" />
</g>
<g id="#1b210c89">
</g>
<g id="#20220e7b">
</g>
<g id="#00000037">
</g>
<g id="#969c69ff">
<path fill="#969c69" opacity="1.00" d=" M 211.34 163.24 C 213.62 164.35 219.03 161.44 217.65 165.40 C 215.25 169.01 222.49 175.47 215.26 174.08 C 217.26 177.45 213.35 177.43 210.92 178.00 C 210.85 173.58 217.60 171.43 214.82 167.11 C 212.53 166.36 210.66 167.81 208.86 168.97 C 208.85 166.76 210.15 164.97 211.34 163.24 Z" />
</g>
<g id="#686035ff">
<path fill="#686035" opacity="1.00" d=" M 189.29 167.26 C 190.48 162.57 196.42 165.23 199.40 165.71 C 198.94 167.04 198.45 168.37 198.00 169.71 C 196.84 172.51 196.79 175.62 197.56 178.51 C 197.66 179.15 197.86 180.43 197.96 181.07 L 197.18 180.73 C 192.04 178.01 189.46 172.85 189.29 167.26 Z" />
</g>
<g id="#8b7126ff">
<path fill="#8b7126" opacity="1.00" d=" M 199.40 165.71 C 205.05 165.59 211.64 171.16 208.41 177.35 C 208.00 182.25 203.05 186.43 198.86 182.21 C 198.64 181.92 198.19 181.36 197.96 181.07 C 197.86 180.43 197.66 179.15 197.56 178.51 C 200.06 177.98 206.84 179.91 204.43 175.81 L 204.15 174.94 C 203.82 171.59 201.11 170.02 198.00 169.71 C 198.45 168.37 198.94 167.04 199.40 165.71 Z" />
</g>
<g id="#977f54ff">
<path fill="#977f54" opacity="1.00" d=" M 197.56 178.51 C 196.79 175.62 196.84 172.51 198.00 169.71 C 201.11 170.02 203.82 171.59 204.15 174.94 C 201.85 174.02 198.69 173.55 198.88 177.05 C 200.82 177.16 202.70 176.67 204.43 175.81 C 206.84 179.91 200.06 177.98 197.56 178.51 Z" />
</g>
<g id="#bfad94ff">
<path fill="#bfad94" opacity="1.00" d=" M 198.88 177.05 C 198.69 173.55 201.85 174.02 204.15 174.94 L 204.43 175.81 C 202.70 176.67 200.82 177.16 198.88 177.05 Z" />
</g>
<g id="#505e29bc">
<path fill="#505e29" opacity="0.74" d=" M 230.26 174.76 C 231.16 180.08 230.94 185.50 231.10 190.87 C 230.76 190.74 230.07 190.47 229.72 190.34 C 230.11 185.15 230.12 179.95 230.26 174.76 Z" />
</g>
<g id="#5a662efd">
<path fill="#5a662e" opacity="1.00" d=" M 219.23 178.71 C 219.58 175.46 226.45 174.81 222.61 178.60 C 223.18 183.39 220.62 192.48 229.72 190.34 C 230.07 190.47 230.76 190.74 231.10 190.87 L 231.86 191.14 C 235.59 192.60 239.49 191.82 243.30 191.25 C 251.63 189.89 258.53 195.31 264.41 200.39 C 259.22 201.09 263.43 208.41 262.95 211.44 C 262.37 211.98 261.79 212.52 261.20 213.04 C 254.05 215.88 247.09 219.80 239.04 219.17 C 241.48 217.32 241.29 212.84 244.93 212.81 C 246.80 218.60 251.66 206.91 250.39 215.25 C 255.08 214.19 258.90 209.63 260.01 205.11 C 257.66 202.28 255.19 197.03 250.99 200.30 C 247.70 194.82 237.14 195.84 237.28 203.17 C 237.49 206.92 233.88 206.47 234.74 202.80 C 235.69 200.08 236.76 197.40 237.73 194.68 C 234.38 195.09 233.55 198.85 231.49 200.99 C 231.17 198.77 229.25 196.37 226.86 197.75 C 223.19 197.63 225.09 206.87 221.15 202.95 C 218.85 196.22 217.89 206.48 215.80 208.81 C 212.67 213.46 220.93 215.82 222.79 211.79 C 222.97 210.24 223.67 210.07 224.65 211.16 C 227.35 212.62 230.58 218.16 233.08 214.09 C 236.72 210.40 237.87 215.96 238.17 219.27 C 236.64 219.50 233.59 219.96 232.07 220.18 C 229.25 222.27 223.21 219.16 223.53 224.00 C 224.27 228.04 213.87 229.16 216.18 224.41 C 217.87 223.62 221.70 224.04 220.95 221.23 C 213.18 221.10 202.27 217.83 203.98 207.93 C 204.74 202.38 200.33 212.24 201.00 207.08 C 201.82 203.94 197.47 207.14 197.62 204.13 C 198.08 203.00 198.64 201.92 199.32 200.90 C 201.29 201.63 199.78 205.03 202.99 205.07 C 203.90 200.52 203.67 195.28 207.40 191.86 C 208.06 198.02 222.09 192.54 220.02 186.97 C 217.56 187.90 212.96 190.43 216.34 186.32 C 220.87 183.78 213.24 178.11 219.23 178.71 Z" />
</g>
<g id="#50552bfe">
<path fill="#50552b" opacity="1.00" d=" M 131.07 180.96 C 135.60 184.20 137.09 190.16 141.30 193.59 C 148.91 194.19 156.06 198.20 161.41 203.58 C 165.26 204.94 161.13 199.21 160.07 197.72 C 163.79 199.39 167.20 201.66 170.84 203.49 C 170.09 205.50 166.47 207.83 169.37 209.57 C 171.57 210.65 171.14 212.89 169.98 214.65 C 167.38 214.25 164.32 214.60 163.02 211.97 C 159.99 207.38 153.33 211.54 149.51 213.28 C 149.14 215.66 149.63 218.78 146.99 219.98 C 142.69 222.17 147.09 226.76 147.11 230.10 C 144.63 230.07 143.58 227.53 142.01 226.04 C 138.06 237.76 159.37 231.45 155.83 244.58 C 148.84 244.41 157.14 253.65 158.39 249.56 C 157.50 240.60 168.02 245.63 172.29 244.70 C 178.33 250.12 164.99 246.00 165.96 251.99 C 166.22 258.15 174.80 257.06 175.90 263.41 C 175.98 264.00 176.13 265.18 176.21 265.77 C 173.67 264.29 170.80 263.61 167.92 263.19 L 167.15 263.05 C 159.94 259.30 149.89 256.81 145.98 266.11 C 147.10 273.21 154.42 277.08 158.45 282.64 C 159.89 282.69 162.77 282.79 164.21 282.84 C 166.92 283.64 172.18 283.72 171.00 287.84 C 171.23 290.22 165.61 287.71 167.22 290.84 C 169.49 292.60 171.82 294.32 174.18 295.98 C 165.21 293.62 154.48 300.09 148.16 291.97 C 145.84 290.21 142.48 291.61 139.77 291.16 C 137.72 291.01 136.34 289.08 135.72 287.29 C 135.78 284.43 135.78 281.58 135.72 278.73 C 136.01 277.19 134.68 276.24 133.83 275.18 C 136.90 274.42 143.21 278.23 144.36 273.36 C 145.26 269.12 146.10 263.61 141.25 261.76 C 145.61 258.26 142.90 253.09 140.86 249.02 C 137.84 249.65 134.97 250.81 132.10 251.90 C 131.45 249.94 130.71 248.01 130.05 246.05 C 128.94 238.58 130.19 230.49 126.20 223.74 C 126.13 222.51 126.09 221.29 126.07 220.07 L 126.18 219.16 C 126.31 215.27 127.78 211.72 130.19 208.75 C 132.81 210.07 137.50 216.68 135.06 207.01 C 138.33 205.50 145.71 208.97 149.51 211.90 C 149.94 207.20 153.67 208.10 157.12 208.97 C 154.65 206.40 150.10 203.85 151.57 199.65 C 152.43 195.54 145.91 197.50 143.15 196.61 C 139.74 195.32 137.15 198.22 134.11 199.17 C 130.91 200.95 129.24 195.98 126.84 194.68 C 126.94 194.17 127.14 193.15 127.24 192.65 C 129.62 194.05 130.79 197.42 133.97 197.14 C 133.16 193.34 136.13 186.57 131.04 184.83 C 129.28 184.23 130.16 181.92 131.07 180.96 Z" />
</g>
<g id="#9aa765ff">
<path fill="#9aa765" opacity="1.00" d=" M 191.07 185.82 C 187.31 180.76 190.66 179.44 197.18 180.73 L 197.96 181.07 C 198.19 181.36 198.64 181.92 198.86 182.21 C 203.34 186.50 196.30 192.23 202.16 195.02 C 199.72 199.58 193.71 191.91 196.01 188.99 C 198.35 185.72 192.92 186.76 191.07 185.82 Z" />
</g>
<g id="#3a3622b8">
<path fill="#3a3622" opacity="0.72" d=" M 125.75 183.44 L 126.59 182.80 C 126.95 186.07 127.06 189.35 127.24 192.65 C 127.14 193.15 126.94 194.17 126.84 194.68 L 126.14 195.25 C 126.03 191.31 125.90 187.37 125.75 183.44 Z" />
</g>
<g id="#00000050">
</g>
<g id="#878f52ff">
<path fill="#878f52" opacity="1.00" d=" M 182.85 189.79 C 186.47 189.75 190.14 190.32 191.07 185.82 C 192.92 186.76 198.35 185.72 196.01 188.99 C 193.71 191.91 199.72 199.58 202.16 195.02 C 203.38 192.97 201.73 189.42 204.55 188.17 C 205.51 189.38 206.69 190.47 207.40 191.86 C 203.67 195.28 203.90 200.52 202.99 205.07 C 199.78 205.03 201.29 201.63 199.32 200.90 C 202.32 198.31 195.12 197.10 193.18 195.94 C 192.00 198.54 192.17 211.96 186.95 205.35 C 185.32 205.53 185.18 210.08 184.03 211.96 C 182.51 213.06 180.52 215.05 179.96 212.07 C 184.43 208.41 183.92 202.22 181.72 197.45 C 176.37 198.34 177.83 188.75 180.89 186.92 C 183.29 190.59 180.62 197.64 186.54 198.20 C 188.70 192.60 182.59 194.05 182.85 189.79 Z" />
</g>
<g id="#303817bd">
<path fill="#303817" opacity="0.74" d=" M 231.86 191.14 C 235.68 191.06 239.47 191.12 243.30 191.25 C 239.49 191.82 235.59 192.60 231.86 191.14 Z" />
</g>
<g id="#00000060">
</g>
<g id="#424923fd">
<path fill="#424923" opacity="1.00" d=" M 126.84 194.68 C 129.24 195.98 130.91 200.95 134.11 199.17 C 137.15 198.22 139.74 195.32 143.15 196.61 C 145.91 197.50 152.43 195.54 151.57 199.65 C 150.10 203.85 154.65 206.40 157.12 208.97 C 153.67 208.10 149.94 207.20 149.51 211.90 C 145.71 208.97 138.33 205.50 135.06 207.01 C 137.50 216.68 132.81 210.07 130.19 208.75 C 132.26 206.26 134.34 202.83 130.24 201.18 C 128.44 199.41 126.87 197.32 126.84 194.68 Z" />
</g>
<g id="#697c43ff">
<path fill="#697c43" opacity="1.00" d=" M 231.49 200.99 C 233.55 198.85 234.38 195.09 237.73 194.68 C 236.76 197.40 235.69 200.08 234.74 202.80 C 233.96 207.62 229.27 207.59 228.44 202.89 C 227.24 205.67 226.02 208.45 224.65 211.16 C 223.67 210.07 222.97 210.24 222.79 211.79 C 220.93 215.82 212.67 213.46 215.80 208.81 C 217.89 206.48 218.85 196.22 221.15 202.95 C 225.09 206.87 223.19 197.63 226.86 197.75 C 229.25 196.37 231.17 198.77 231.49 200.99 Z" />
</g>
<g id="#98a661ff">
<path fill="#98a661" opacity="1.00" d=" M 193.18 195.94 C 195.12 197.10 202.32 198.31 199.32 200.90 C 198.64 201.92 198.08 203.00 197.62 204.13 C 197.15 202.67 195.18 197.80 194.58 201.57 C 192.21 206.66 200.97 206.69 200.92 211.93 C 198.08 213.17 195.67 214.80 194.70 217.93 C 190.51 218.46 188.09 213.87 184.38 212.58 L 184.03 211.96 C 185.18 210.08 185.32 205.53 186.95 205.35 C 192.17 211.96 192.00 198.54 193.18 195.94 Z" />
</g>
<g id="#809149ff">
<path fill="#809149" opacity="1.00" d=" M 237.28 203.17 C 237.14 195.84 247.70 194.82 250.99 200.30 C 248.86 206.08 243.42 203.47 239.12 202.17 C 237.62 204.86 238.51 207.95 239.19 210.76 C 240.84 212.69 244.81 209.85 244.93 212.81 C 241.29 212.84 241.48 217.32 239.04 219.17 L 238.17 219.27 C 237.87 215.96 236.72 210.40 233.08 214.09 C 230.58 218.16 227.35 212.62 224.65 211.16 C 226.02 208.45 227.24 205.67 228.44 202.89 C 229.27 207.59 233.96 207.62 234.74 202.80 C 233.88 206.47 237.49 206.92 237.28 203.17 Z" />
</g>
<g id="#97aa65ff">
<path fill="#97aa65" opacity="1.00" d=" M 250.99 200.30 C 255.19 197.03 257.66 202.28 260.01 205.11 C 258.90 209.63 255.08 214.19 250.39 215.25 C 251.66 206.91 246.80 218.60 244.93 212.81 C 244.81 209.85 240.84 212.69 239.19 210.76 C 238.51 207.95 237.62 204.86 239.12 202.17 C 243.42 203.47 248.86 206.08 250.99 200.30 Z" />
</g>
<g id="#838a45fe">
<path fill="#838a45" opacity="1.00" d=" M 194.58 201.57 C 195.18 197.80 197.15 202.67 197.62 204.13 C 197.47 207.14 201.82 203.94 201.00 207.08 C 200.33 212.24 204.74 202.38 203.98 207.93 C 202.27 217.83 213.18 221.10 220.95 221.23 C 221.70 224.04 217.87 223.62 216.18 224.41 C 213.87 229.16 224.27 228.04 223.53 224.00 C 223.21 219.16 229.25 222.27 232.07 220.18 C 230.35 228.14 229.44 237.45 223.15 243.34 C 222.25 235.90 203.78 244.08 215.03 242.35 C 213.19 246.46 211.68 251.33 217.98 250.94 C 222.59 253.44 215.85 256.79 215.07 260.07 C 211.46 260.89 209.14 263.34 208.00 266.83 C 206.81 266.58 205.62 266.34 204.43 266.17 C 210.28 257.09 195.67 267.48 203.88 266.86 C 198.34 274.46 198.44 258.00 204.67 260.39 C 207.31 261.45 205.33 258.39 205.17 257.11 C 210.69 256.38 209.77 243.37 203.78 245.69 C 201.20 247.61 207.46 246.12 205.92 248.89 C 200.95 250.33 196.86 253.19 193.78 257.36 C 193.61 261.98 192.92 266.63 193.67 271.23 C 193.27 271.28 192.48 271.37 192.08 271.42 C 188.99 280.11 194.42 273.19 197.34 275.25 C 200.87 274.23 203.88 270.95 207.16 268.97 C 206.55 274.15 200.79 276.26 197.10 279.11 C 192.85 279.30 187.55 282.50 184.71 278.06 C 185.31 280.16 186.30 282.11 187.24 284.08 C 185.88 285.52 184.47 286.92 182.99 288.25 C 178.74 288.25 184.21 286.04 183.94 284.10 C 181.85 277.99 170.82 288.82 174.14 281.25 C 176.61 278.22 169.84 279.95 168.06 279.00 C 171.21 277.96 171.42 272.29 168.02 272.11 C 169.06 270.37 170.21 268.70 171.24 266.96 C 171.20 271.96 174.86 275.37 176.63 279.68 C 186.83 282.33 175.88 276.23 177.90 272.80 C 179.63 270.38 177.01 268.04 176.21 265.77 C 176.13 265.18 175.98 264.00 175.90 263.41 C 178.39 263.02 182.73 261.12 179.60 258.45 C 175.71 255.95 173.28 250.44 176.00 246.18 C 180.20 248.14 184.32 251.07 189.31 249.96 C 186.88 245.80 180.76 247.71 178.16 243.73 C 174.95 238.65 182.08 240.09 180.33 236.07 C 183.00 236.30 187.79 238.34 184.86 234.13 C 187.32 230.68 190.56 233.95 192.99 235.63 C 189.05 236.61 182.80 237.64 186.25 242.90 C 190.70 243.39 194.52 240.83 197.51 237.90 C 199.19 236.89 203.75 238.13 202.71 235.31 C 200.64 234.17 198.31 233.74 196.16 232.83 C 192.82 229.11 192.98 222.29 188.10 220.03 C 184.97 223.51 190.91 226.50 190.97 230.24 C 189.22 229.90 187.62 227.97 185.80 228.89 C 180.08 227.06 187.11 226.15 185.40 222.35 C 187.57 219.23 185.93 215.64 184.38 212.58 C 188.09 213.87 190.51 218.46 194.70 217.93 C 195.67 214.80 198.08 213.17 200.92 211.93 C 200.97 206.69 192.21 206.66 194.58 201.57 M 209.29 224.35 C 201.61 226.41 213.43 234.08 213.87 227.28 C 210.38 228.31 211.91 223.10 209.29 224.35 M 177.99 249.99 C 177.78 252.03 178.27 254.03 179.13 255.87 C 183.57 256.14 181.83 248.48 177.99 249.99 M 184.94 265.03 C 184.92 266.78 185.54 268.42 186.17 270.03 C 189.18 269.01 188.83 263.20 184.94 265.03 Z" />
</g>
<g id="#01010072">
</g>
<g id="#7b8645ed">
<path fill="#7b8645" opacity="0.93" d=" M 262.95 211.44 C 263.43 208.41 259.22 201.09 264.41 200.39 L 265.32 200.84 C 266.44 204.57 266.79 209.26 262.95 211.44 Z" />
</g>
<g id="#0101003f">
</g>
<g id="#0000002f">
</g>
<g id="#0000001b">
</g>
<g id="#7b8752ff">
<path fill="#7b8752" opacity="1.00" d=" M 177.05 219.11 C 177.66 212.69 186.72 217.48 185.40 222.35 C 182.35 222.49 175.84 224.03 177.05 219.11 Z" />
</g>
<g id="#9eab64ff">
<path fill="#9eab64" opacity="1.00" d=" M 188.10 220.03 C 192.98 222.29 192.82 229.11 196.16 232.83 C 198.31 233.74 200.64 234.17 202.71 235.31 C 203.75 238.13 199.19 236.89 197.51 237.90 C 194.52 240.83 190.70 243.39 186.25 242.90 C 182.80 237.64 189.05 236.61 192.99 235.63 C 190.56 233.95 187.32 230.68 184.86 234.13 C 183.81 232.40 185.51 230.62 185.80 228.89 C 187.62 227.97 189.22 229.90 190.97 230.24 C 190.91 226.50 184.97 223.51 188.10 220.03 Z" />
</g>
<g id="#6c5f2aff">
<path fill="#6c5f2a" opacity="1.00" d=" M 209.29 224.35 C 211.91 223.10 210.38 228.31 213.87 227.28 C 213.43 234.08 201.61 226.41 209.29 224.35 Z" />
</g>
<g id="#00000025">
</g>
<g id="#73672dfa">
<path fill="#73672d" opacity="0.98" d=" M 215.03 242.35 C 203.78 244.08 222.25 235.90 223.15 243.34 C 221.54 245.87 216.17 247.60 217.98 250.94 C 211.68 251.33 213.19 246.46 215.03 242.35 Z" />
</g>
<g id="#8a9d5eff">
<path fill="#8a9d5e" opacity="1.00" d=" M 203.78 245.69 C 209.77 243.37 210.69 256.38 205.17 257.11 C 192.26 252.76 202.30 270.76 193.67 271.23 C 192.92 266.63 193.61 261.98 193.78 257.36 C 196.86 253.19 200.95 250.33 205.92 248.89 C 207.46 246.12 201.20 247.61 203.78 245.69 Z" />
</g>
<g id="#596633fd">
<path fill="#596633" opacity="1.00" d=" M 132.10 251.90 C 134.97 250.81 137.84 249.65 140.86 249.02 C 142.90 253.09 145.61 258.26 141.25 261.76 C 146.10 263.61 145.26 269.12 144.36 273.36 C 143.21 278.23 136.90 274.42 133.83 275.18 C 130.18 272.15 131.17 266.89 128.90 263.05 C 128.66 258.98 129.26 254.97 132.10 251.90 Z" />
</g>
<g id="#c6b89eff">
<path fill="#c6b89e" opacity="1.00" d=" M 177.99 249.99 C 181.83 248.48 183.57 256.14 179.13 255.87 C 178.27 254.03 177.78 252.03 177.99 249.99 Z" />
</g>
<g id="#776e30fe">
<path fill="#776e30" opacity="1.00" d=" M 193.67 271.23 C 202.30 270.76 192.26 252.76 205.17 257.11 C 205.33 258.39 207.31 261.45 204.67 260.39 C 198.44 258.00 198.34 274.46 203.88 266.86 L 204.43 266.17 C 205.62 266.34 206.81 266.58 208.00 266.83 C 207.79 267.36 207.37 268.43 207.16 268.97 C 203.88 270.95 200.87 274.23 197.34 275.25 C 194.42 273.19 188.99 280.11 192.08 271.42 C 192.48 271.37 193.27 271.28 193.67 271.23 Z" />
</g>
<g id="#6b5c38ff">
<path fill="#6b5c38" opacity="1.00" d=" M 145.98 266.11 C 149.89 256.81 159.94 259.30 167.15 263.05 C 166.57 263.26 165.41 263.68 164.83 263.90 C 160.15 264.83 160.23 270.40 159.75 274.13 C 158.20 277.92 159.97 282.14 164.21 282.84 C 162.77 282.79 159.89 282.69 158.45 282.64 C 154.42 277.08 147.10 273.21 145.98 266.11 Z" />
</g>
<g id="#d4c7b1ff">
<path fill="#d4c7b1" opacity="1.00" d=" M 203.88 266.86 C 195.67 267.48 210.28 257.09 204.43 266.17 L 203.88 266.86 Z" />
</g>
<g id="#b7aa8fff">
<path fill="#b7aa8f" opacity="1.00" d=" M 167.15 263.05 L 167.92 263.19 C 169.08 264.40 170.26 265.59 171.24 266.96 C 170.21 268.70 169.06 270.37 168.02 272.11 C 164.86 271.26 163.75 266.73 164.83 263.90 C 165.41 263.68 166.57 263.26 167.15 263.05 Z" />
</g>
<g id="#626c34ff">
<path fill="#626c34" opacity="1.00" d=" M 167.92 263.19 C 170.80 263.61 173.67 264.29 176.21 265.77 C 177.01 268.04 179.63 270.38 177.90 272.80 C 175.88 276.23 186.83 282.33 176.63 279.68 C 174.86 275.37 171.20 271.96 171.24 266.96 C 170.26 265.59 169.08 264.40 167.92 263.19 Z" />
</g>
<g id="#917c50ff">
<path fill="#917c50" opacity="1.00" d=" M 159.75 274.13 C 160.23 270.40 160.15 264.83 164.83 263.90 C 163.75 266.73 164.86 271.26 168.02 272.11 C 166.43 275.61 162.96 274.81 159.75 274.13 Z" />
</g>
<g id="#adab85ff">
<path fill="#adab85" opacity="1.00" d=" M 184.94 265.03 C 188.83 263.20 189.18 269.01 186.17 270.03 C 185.54 268.42 184.92 266.78 184.94 265.03 Z" />
</g>
<g id="#797031fd">
<path fill="#797031" opacity="1.00" d=" M 168.02 272.11 C 171.42 272.29 171.21 277.96 168.06 279.00 C 169.84 279.95 176.61 278.22 174.14 281.25 C 170.82 288.82 181.85 277.99 183.94 284.10 C 184.21 286.04 178.74 288.25 182.99 288.25 C 180.75 291.48 179.25 297.21 174.18 295.98 C 171.82 294.32 169.49 292.60 167.22 290.84 C 165.61 287.71 171.23 290.22 171.00 287.84 C 172.18 283.72 166.92 283.64 164.21 282.84 C 159.97 282.14 158.20 277.92 159.75 274.13 C 162.96 274.81 166.43 275.61 168.02 272.11 Z" />
</g>
<g id="#636c28ee">
<path fill="#636c28" opacity="0.93" d=" M 184.71 278.06 C 187.55 282.50 192.85 279.30 197.10 279.11 C 193.96 281.04 190.54 282.45 187.24 284.08 C 186.30 282.11 185.31 280.16 184.71 278.06 Z" />
</g>
<g id="#312f18a9">
<path fill="#312f18" opacity="0.66" d=" M 134.71 284.18 C 134.96 282.35 135.31 280.53 135.72 278.73 C 135.78 281.58 135.78 284.43 135.72 287.29 C 135.32 286.27 134.99 285.23 134.71 284.18 Z" />
</g>
<g id="#292812aa">
<path fill="#292812" opacity="0.67" d=" M 139.77 291.16 C 142.48 291.61 145.84 290.21 148.16 291.97 C 145.36 291.79 142.54 291.57 139.77 291.16 Z" />
</g>
</svg>






