<?xml version="1.0" encoding="UTF-8" ?>
<!DOCTYPE svg PUBLIC "-//W3C//DTD SVG 1.1//EN" "http://www.w3.org/Graphics/SVG/1.1/DTD/svg11.dtd">
<svg width="384pt" height="384pt" viewBox="0 0 384 384" version="1.1" xmlns="http://www.w3.org/2000/svg">
<g id="#00000010">
<path fill="#000000" opacity="0.06" d=" M 0.00 0.00 L 85.27 0.00 C 83.13 2.27 80.83 4.41 78.94 6.90 C 80.98 8.17 82.84 7.13 84.75 6.37 C 93.89 6.86 102.90 11.45 112.19 8.69 C 119.76 12.57 128.08 7.77 135.86 11.21 C 145.87 14.32 156.99 13.85 166.38 18.53 C 168.26 21.47 170.05 25.20 173.72 22.13 C 175.71 24.91 177.27 28.36 180.97 29.12 C 185.66 31.91 192.28 22.10 195.09 28.83 C 189.62 28.30 186.14 34.30 180.28 31.30 C 176.34 35.46 176.05 44.40 167.93 43.13 C 165.96 41.19 162.53 40.42 160.88 42.84 C 159.34 43.97 157.02 44.62 156.68 46.77 C 156.09 48.53 155.67 50.35 155.18 52.14 C 153.82 54.36 152.06 56.27 150.32 58.19 C 146.36 57.22 143.04 60.24 139.20 59.94 C 136.94 55.72 136.62 48.87 142.93 49.80 C 139.44 48.47 140.29 45.13 141.25 42.27 C 145.28 44.60 149.91 35.36 142.68 37.18 C 136.59 32.83 129.30 31.33 122.44 28.64 C 117.37 26.04 112.34 30.76 107.41 28.81 C 103.75 25.48 101.08 31.32 97.72 29.26 C 92.27 26.36 87.09 32.39 81.46 31.51 C 80.65 36.30 77.92 34.35 75.12 32.38 C 67.85 36.86 59.74 40.18 51.35 41.34 C 46.04 44.23 40.85 46.33 34.75 46.79 C 30.17 50.87 22.77 45.60 19.00 51.00 C 16.62 55.32 10.51 51.79 8.04 56.06 C 6.04 58.59 2.74 57.38 0.00 57.63 L 0.00 0.00 Z" />
</g>
<g id="#00000019">
<path fill="#000000" opacity="0.10" d=" M 81.46 31.51 C 87.09 32.39 92.27 26.36 97.72 29.26 C 101.08 31.32 103.75 25.48 107.41 28.81 C 112.34 30.76 117.37 26.04 122.44 28.64 C 129.30 31.33 136.59 32.83 142.68 37.18 C 149.91 35.36 145.28 44.60 141.25 42.27 C 140.29 45.13 139.44 48.47 142.93 49.80 C 136.62 48.87 136.94 55.72 139.20 59.94 C 143.04 60.24 146.36 57.22 150.32 58.19 L 149.82 58.93 C 147.48 60.26 144.77 60.97 142.69 62.73 C 140.38 69.65 144.91 77.99 142.24 85.02 C 139.21 86.17 137.81 89.56 134.77 90.71 C 126.94 89.39 120.08 84.95 112.24 83.64 C 115.50 76.22 101.66 81.19 104.83 73.08 C 103.75 69.09 98.62 70.91 95.51 70.56 C 93.95 63.52 85.81 69.14 81.05 66.93 C 84.19 62.62 82.33 60.80 78.06 64.02 C 74.87 59.94 68.58 60.38 65.94 64.65 C 57.86 59.93 50.83 69.80 43.01 66.29 C 45.74 76.76 39.86 66.50 37.28 70.30 C 34.34 73.02 28.79 69.62 27.30 74.40 C 25.12 76.65 23.66 85.14 20.40 79.47 C 16.73 79.25 15.02 87.14 10.30 86.53 C 7.77 89.77 4.94 95.18 0.00 92.17 L 0.00 57.63 C 2.74 57.38 6.04 58.59 8.04 56.06 C 10.51 51.79 16.62 55.32 19.00 51.00 C 22.77 45.60 30.17 50.87 34.75 46.79 C 40.85 46.33 46.04 44.23 51.35 41.34 C 59.74 40.18 67.85 36.86 75.12 32.38 C 77.92 34.35 80.65 36.30 81.46 31.51 Z" />
</g>
<g id="#494f58fd">
<path fill="#494f58" opacity="1.00" d=" M 180.28 31.30 C 186.14 34.30 189.62 28.30 195.09 28.83 C 196.41 31.50 198.45 33.98 201.05 31.07 C 207.53 26.68 205.96 40.57 213.24 36.07 C 211.71 39.72 203.84 44.05 203.12 37.95 C 202.52 35.94 205.09 35.85 206.23 34.94 C 202.98 35.20 199.38 35.26 196.50 36.85 C 195.29 43.64 185.89 38.26 182.92 42.88 C 185.51 44.16 188.37 44.78 190.94 46.10 C 188.35 49.56 190.61 55.09 195.30 53.72 C 193.91 57.70 189.93 65.23 185.26 60.75 C 184.14 56.28 174.67 55.43 177.28 61.60 C 184.30 65.60 181.69 74.50 177.05 79.26 C 180.52 78.18 181.76 73.47 185.66 73.35 C 189.01 73.69 184.37 66.18 187.09 68.93 C 189.89 73.68 193.84 67.53 196.83 65.93 C 197.22 67.88 196.22 71.15 199.04 71.41 C 196.20 76.18 190.54 78.56 188.41 83.84 C 188.40 85.17 188.38 87.83 188.37 89.17 C 190.23 95.83 196.09 101.03 203.22 100.58 C 198.01 101.27 190.09 111.55 187.76 102.94 C 184.21 103.68 181.92 106.95 178.97 108.84 C 177.20 109.09 175.75 110.01 174.62 111.37 C 170.25 108.87 176.70 103.51 180.09 105.75 C 180.52 102.64 177.48 100.90 174.99 99.98 C 166.79 103.93 166.41 117.12 173.95 121.55 C 179.93 122.25 174.35 127.51 169.95 123.97 C 169.30 121.23 170.24 114.66 166.73 118.72 C 167.55 113.81 163.76 110.16 159.12 110.94 C 155.16 110.80 150.51 113.46 151.02 117.89 C 151.70 121.99 156.29 123.31 159.19 125.53 C 151.64 128.26 147.16 119.40 150.16 113.24 C 152.19 108.69 149.15 104.77 147.13 101.05 C 150.57 101.80 154.09 101.64 157.29 100.08 C 157.29 101.93 156.82 105.73 159.77 104.88 C 160.29 102.46 168.99 97.47 163.71 96.40 C 174.72 97.17 159.32 88.46 162.84 96.10 C 159.80 95.14 158.46 89.65 161.84 88.11 C 158.44 86.69 153.38 86.77 153.05 82.10 C 167.42 86.53 150.47 63.99 163.98 66.91 C 167.06 66.71 168.39 62.70 168.02 60.00 C 165.68 59.62 163.56 60.06 163.62 62.84 C 161.39 61.87 159.15 60.89 157.00 59.75 C 157.83 56.41 160.78 52.23 155.18 52.14 C 155.67 50.35 156.09 48.53 156.68 46.77 C 155.48 54.14 162.48 49.34 166.16 48.25 C 169.17 48.00 173.01 43.31 167.93 43.13 C 176.05 44.40 176.34 35.46 180.28 31.30 M 167.92 89.96 C 170.22 96.29 176.58 99.52 182.99 99.00 C 184.27 95.00 177.44 98.38 176.47 96.61 C 174.13 93.86 172.33 89.28 167.92 89.96 Z" />
</g>
<g id="#6b6e72ff">
<path fill="#6b6e72" opacity="1.00" d=" M 196.50 36.85 C 199.38 35.26 202.98 35.20 206.23 34.94 C 205.09 35.85 202.52 35.94 203.12 37.95 C 203.84 44.05 211.71 39.72 213.24 36.07 C 215.44 35.70 217.02 37.18 218.27 38.77 C 217.54 41.17 216.86 43.57 216.28 46.00 C 213.41 47.48 211.24 45.26 209.01 43.78 C 208.42 46.74 209.42 49.70 211.17 51.99 C 214.05 51.84 215.54 48.44 216.28 46.00 C 215.07 51.91 219.11 50.88 222.90 50.42 C 226.97 57.41 217.24 60.29 212.73 62.79 C 209.78 61.71 206.75 62.51 204.14 64.09 C 205.11 60.92 205.59 55.32 200.55 57.38 C 195.13 53.94 193.47 65.35 198.27 63.29 C 197.79 64.17 197.31 65.05 196.83 65.93 C 193.84 67.53 189.89 73.68 187.09 68.93 C 184.37 66.18 189.01 73.69 185.66 73.35 C 181.76 73.47 180.52 78.18 177.05 79.26 C 181.69 74.50 184.30 65.60 177.28 61.60 C 174.67 55.43 184.14 56.28 185.26 60.75 C 189.93 65.23 193.91 57.70 195.30 53.72 C 196.81 53.55 199.83 53.23 201.34 53.07 C 203.39 55.70 210.42 59.27 207.06 50.98 C 207.79 47.86 204.83 46.17 202.26 45.56 C 202.79 41.11 197.06 40.81 196.50 36.85 M 181.21 59.11 C 178.26 60.95 181.46 64.03 184.02 63.02 C 184.36 61.19 183.64 58.34 181.21 59.11 Z" />
</g>
<g id="#5a5e6aff">
<path fill="#5a5e6a" opacity="1.00" d=" M 182.92 42.88 C 185.89 38.26 195.29 43.64 196.50 36.85 C 197.06 40.81 202.79 41.11 202.26 45.56 C 197.80 46.56 199.27 50.45 201.34 53.07 C 199.83 53.23 196.81 53.55 195.30 53.72 C 190.61 55.09 188.35 49.56 190.94 46.10 C 188.37 44.78 185.51 44.16 182.92 42.88 Z" />
</g>
<g id="#444348f0">
<path fill="#444348" opacity="0.94" d=" M 218.27 38.77 C 220.59 41.34 223.14 45.02 220.16 48.09 C 224.08 49.70 228.67 49.26 232.28 51.78 C 235.13 55.86 229.84 59.83 226.06 60.92 C 222.34 60.52 219.12 62.27 216.27 64.43 C 215.08 63.90 213.90 63.35 212.73 62.79 C 217.24 60.29 226.97 57.41 222.90 50.42 C 219.11 50.88 215.07 51.91 216.28 46.00 C 216.86 43.57 217.54 41.17 218.27 38.77 Z" />
</g>
<g id="#1b1e2480">
<path fill="#1b1e24" opacity="0.50" d=" M 160.88 42.84 C 162.53 40.42 165.96 41.19 167.93 43.13 C 166.17 43.06 162.64 42.91 160.88 42.84 Z" />
</g>
<g id="#686d84fa">
<path fill="#686d84" opacity="0.98" d=" M 156.68 46.77 C 157.02 44.62 159.34 43.97 160.88 42.84 C 162.64 42.91 166.17 43.06 167.93 43.13 C 173.01 43.31 169.17 48.00 166.16 48.25 C 162.48 49.34 155.48 54.14 156.68 46.77 Z" />
</g>
<g id="#919992ff">
<path fill="#919992" opacity="1.00" d=" M 209.01 43.78 C 211.24 45.26 213.41 47.48 216.28 46.00 C 215.54 48.44 214.05 51.84 211.17 51.99 C 209.42 49.70 208.42 46.74 209.01 43.78 Z" />
</g>
<g id="#8c8f96ff">
<path fill="#8c8f96" opacity="1.00" d=" M 201.34 53.07 C 199.27 50.45 197.80 46.56 202.26 45.56 C 204.83 46.17 207.79 47.86 207.06 50.98 C 210.42 59.27 203.39 55.70 201.34 53.07 Z" />
</g>
<g id="#3a3e46fe">
<path fill="#3a3e46" opacity="1.00" d=" M 155.18 52.14 C 160.78 52.23 157.83 56.41 157.00 59.75 C 159.15 60.89 161.39 61.87 163.62 62.84 C 163.56 60.06 165.68 59.62 168.02 60.00 C 168.39 62.70 167.06 66.71 163.98 66.91 C 150.47 63.99 167.42 86.53 153.05 82.10 C 153.38 86.77 158.44 86.69 161.84 88.11 C 158.46 89.65 159.80 95.14 162.84 96.10 L 163.71 96.40 C 168.99 97.47 160.29 102.46 159.77 104.88 C 156.82 105.73 157.29 101.93 157.29 100.08 C 159.55 95.50 152.78 96.34 149.94 96.07 C 148.14 92.15 158.80 93.74 157.02 89.06 C 152.49 90.21 145.48 87.33 143.58 93.22 C 143.41 95.10 141.59 100.56 144.75 97.84 C 146.34 96.33 146.15 99.47 146.85 100.35 L 147.13 101.05 C 149.15 104.77 152.19 108.69 150.16 113.24 C 147.16 119.40 151.64 128.26 159.19 125.53 C 160.75 125.22 162.17 124.49 163.15 123.21 C 164.44 121.79 165.45 120.15 166.73 118.72 C 170.24 114.66 169.30 121.23 169.95 123.97 C 165.06 125.29 162.43 129.64 159.90 133.79 C 155.07 136.32 154.34 145.45 161.37 140.87 C 164.29 145.72 153.70 143.68 156.58 148.37 C 157.29 151.32 162.13 150.67 162.15 153.95 C 158.12 152.56 152.68 150.68 149.08 153.27 C 143.80 159.62 157.87 158.71 153.68 162.72 C 150.99 165.14 154.72 168.74 156.28 170.92 C 161.66 173.54 163.17 168.28 165.28 165.13 C 167.74 166.52 173.07 166.43 172.93 169.81 C 170.10 172.06 167.07 174.04 164.20 176.24 C 164.47 180.53 168.62 178.63 170.89 177.05 C 172.12 178.99 171.59 180.81 169.80 182.15 C 164.67 182.38 167.39 188.63 170.46 190.29 C 169.28 193.53 165.15 191.62 163.72 194.79 C 161.30 199.10 157.93 202.34 153.11 198.94 C 154.41 187.28 142.87 201.65 147.23 205.90 C 149.32 206.58 151.29 205.57 152.66 204.02 C 152.98 206.45 150.17 212.90 154.54 210.39 C 159.33 206.96 157.24 217.05 162.02 216.14 C 164.78 217.54 160.15 218.42 158.77 218.72 C 149.74 224.55 160.57 242.11 170.97 238.57 C 172.83 239.40 173.80 241.71 175.99 242.10 C 173.70 247.54 176.51 250.10 182.93 249.23 C 182.62 258.29 172.19 250.34 170.21 245.71 C 169.89 245.44 169.25 244.91 168.93 244.64 C 167.93 238.53 158.18 239.26 153.13 236.84 C 152.98 240.98 152.87 245.11 152.79 249.26 L 151.99 248.91 C 151.99 247.63 152.00 246.34 152.00 245.06 C 152.01 244.31 152.02 242.81 152.02 242.05 C 152.01 241.56 151.98 240.57 151.96 240.07 C 151.90 238.68 150.19 238.46 149.31 237.72 C 140.28 232.61 135.58 223.48 133.44 213.96 C 132.81 213.24 132.18 212.53 131.52 211.83 C 131.21 211.40 130.59 210.52 130.29 210.08 C 127.12 205.55 125.27 200.36 126.14 194.78 C 126.30 196.77 127.92 201.15 129.55 197.63 C 130.21 193.53 134.94 186.16 128.96 184.62 C 135.30 180.80 126.79 177.79 126.19 172.83 L 125.86 172.08 C 129.32 175.88 135.09 174.87 133.06 167.98 C 135.58 161.22 130.27 156.36 124.89 160.90 C 126.57 156.26 131.16 152.80 128.05 147.12 C 128.69 143.00 130.01 139.04 130.92 134.99 C 130.20 130.59 127.43 126.68 127.82 122.01 C 128.26 119.30 128.73 116.62 129.02 113.90 C 130.50 110.30 132.70 107.02 135.12 103.99 C 139.66 98.96 137.72 90.59 142.24 85.02 C 144.91 77.99 140.38 69.65 142.69 62.73 C 144.57 64.44 146.15 66.46 148.04 68.16 C 150.65 65.15 157.32 59.28 149.82 58.93 L 150.32 58.19 C 152.06 56.27 153.82 54.36 155.18 52.14 M 139.31 111.20 C 137.57 114.15 133.66 118.86 137.24 121.86 C 144.04 123.96 146.53 112.15 139.31 111.20 M 148.00 127.99 C 147.11 130.72 149.03 134.71 152.03 132.07 C 156.93 129.96 150.84 127.04 148.00 127.99 M 144.15 130.02 C 140.11 134.37 144.60 139.01 144.83 143.77 C 139.44 152.04 142.45 129.90 137.34 138.31 C 133.27 143.62 142.63 146.28 140.25 152.19 C 143.09 149.08 145.30 145.17 149.60 143.93 C 149.32 139.14 149.13 131.99 144.15 130.02 M 142.19 188.16 C 140.23 190.55 134.61 198.77 140.65 197.74 C 142.38 195.24 146.44 189.81 142.19 188.16 Z" />
</g>
<g id="#959b97ff">
<path fill="#959b97" opacity="1.00" d=" M 200.55 57.38 C 205.59 55.32 205.11 60.92 204.14 64.09 L 203.79 64.82 C 202.57 62.76 200.38 62.73 198.27 63.29 C 193.47 65.35 195.13 53.94 200.55 57.38 Z" />
</g>
<g id="#4f5c6ff9">
<path fill="#4f5c6f" opacity="0.98" d=" M 142.69 62.73 C 144.77 60.97 147.48 60.26 149.82 58.93 C 157.32 59.28 150.65 65.15 148.04 68.16 C 146.15 66.46 144.57 64.44 142.69 62.73 Z" />
</g>
<g id="#a3a8a3ff">
<path fill="#a3a8a3" opacity="1.00" d=" M 181.21 59.11 C 183.64 58.34 184.36 61.19 184.02 63.02 C 181.46 64.03 178.26 60.95 181.21 59.11 Z" />
</g>
<g id="#00000021">
<path fill="#000000" opacity="0.13" d=" M 65.94 64.65 C 68.58 60.38 74.87 59.94 78.06 64.02 C 82.33 60.80 84.19 62.62 81.05 66.93 C 85.81 69.14 93.95 63.52 95.51 70.56 C 98.62 70.91 103.75 69.09 104.83 73.08 C 101.66 81.19 115.50 76.22 112.24 83.64 C 120.08 84.95 126.94 89.39 134.77 90.71 C 137.81 89.56 139.21 86.17 142.24 85.02 C 137.72 90.59 139.66 98.96 135.12 103.99 C 131.41 104.82 128.96 107.90 126.01 110.04 C 119.60 103.67 109.74 105.63 101.66 104.58 C 91.67 106.03 80.38 102.64 71.66 109.58 C 64.57 108.04 58.93 114.04 53.07 116.96 C 51.56 122.20 45.65 123.28 41.28 125.20 C 27.96 129.01 13.67 130.51 0.00 127.82 L 0.00 92.17 C 4.94 95.18 7.77 89.77 10.30 86.53 C 15.02 87.14 16.73 79.25 20.40 79.47 C 23.66 85.14 25.12 76.65 27.30 74.40 C 28.79 69.62 34.34 73.02 37.28 70.30 C 39.86 66.50 45.74 76.76 43.01 66.29 C 50.83 69.80 57.86 59.93 65.94 64.65 Z" />
</g>
<g id="#00000018">
<path fill="#000000" opacity="0.09" d=" M 216.27 64.43 C 219.12 62.27 222.34 60.52 226.06 60.92 C 222.79 64.71 215.19 64.58 214.01 69.88 C 219.14 76.31 226.84 80.30 232.29 86.51 C 231.87 93.91 241.28 99.47 237.21 106.92 C 238.91 114.27 240.14 122.11 245.81 126.89 C 239.71 135.42 256.12 138.16 255.44 146.58 C 255.41 149.78 257.20 151.34 260.22 151.79 C 260.93 157.54 268.06 160.58 266.25 166.59 C 269.75 165.71 270.11 172.12 272.90 168.79 C 271.93 164.61 269.51 157.72 274.86 155.74 C 274.93 156.34 275.07 157.55 275.14 158.16 C 275.90 169.33 271.62 178.98 263.93 186.80 C 260.68 191.52 256.51 195.70 254.01 200.91 C 253.90 203.42 252.91 205.21 251.03 206.29 C 248.92 205.35 246.79 204.46 244.59 203.77 C 242.18 202.54 239.72 201.41 237.14 200.62 C 235.56 200.54 232.42 200.39 230.85 200.31 C 224.94 187.24 241.90 195.82 248.32 192.30 C 254.59 188.26 266.16 185.29 263.42 175.64 C 260.28 170.54 253.87 167.78 248.38 165.78 C 243.79 165.07 239.11 164.95 234.63 163.62 C 228.56 153.40 224.88 141.61 215.45 133.78 C 212.25 129.34 206.78 126.91 209.05 120.27 C 209.30 119.72 209.80 118.63 210.05 118.08 C 210.98 115.11 211.64 111.69 210.32 108.73 C 210.06 108.22 209.55 107.21 209.30 106.70 C 207.66 104.42 206.05 101.49 203.22 100.58 C 196.09 101.03 190.23 95.83 188.37 89.17 C 189.74 87.68 189.78 85.33 188.41 83.84 C 190.54 78.56 196.20 76.18 199.04 71.41 C 199.30 71.09 199.82 70.44 200.08 70.11 C 205.17 67.33 211.66 68.27 216.27 64.43 Z" />
</g>
<g id="#2c2b2eeb">
<path fill="#2c2b2e" opacity="0.92" d=" M 204.14 64.09 C 206.75 62.51 209.78 61.71 212.73 62.79 C 213.90 63.35 215.08 63.90 216.27 64.43 C 211.66 68.27 205.17 67.33 200.08 70.11 C 201.35 68.37 202.85 66.78 203.79 64.82 L 204.14 64.09 Z" />
</g>
<g id="#6e7440fe">
<path fill="#6e7440" opacity="1.00" d=" M 198.27 63.29 C 200.38 62.73 202.57 62.76 203.79 64.82 C 202.85 66.78 201.35 68.37 200.08 70.11 C 199.82 70.44 199.30 71.09 199.04 71.41 C 196.22 71.15 197.22 67.88 196.83 65.93 C 197.31 65.05 197.79 64.17 198.27 63.29 Z" />
</g>
<g id="#2626289d">
<path fill="#262628" opacity="0.62" d=" M 188.37 89.17 C 188.38 87.83 188.40 85.17 188.41 83.84 C 189.78 85.33 189.74 87.68 188.37 89.17 Z" />
</g>
<g id="#4e515fff">
<path fill="#4e515f" opacity="1.00" d=" M 143.58 93.22 C 145.48 87.33 152.49 90.21 157.02 89.06 C 158.80 93.74 148.14 92.15 149.94 96.07 C 148.92 97.51 147.89 98.93 146.85 100.35 C 146.15 99.47 146.34 96.33 144.75 97.84 C 141.59 100.56 143.41 95.10 143.58 93.22 Z" />
</g>
<g id="#686e6aff">
<path fill="#686e6a" opacity="1.00" d=" M 167.92 89.96 C 172.33 89.28 174.13 93.86 176.47 96.61 C 177.44 98.38 184.27 95.00 182.99 99.00 C 176.58 99.52 170.22 96.29 167.92 89.96 Z" />
</g>
<g id="#7c7f93ff">
<path fill="#7c7f93" opacity="1.00" d=" M 162.84 96.10 C 159.32 88.46 174.72 97.17 163.71 96.40 L 162.84 96.10 Z" />
</g>
<g id="#6f7589ff">
<path fill="#6f7589" opacity="1.00" d=" M 149.94 96.07 C 152.78 96.34 159.55 95.50 157.29 100.08 C 154.09 101.64 150.57 101.80 147.13 101.05 L 146.85 100.35 C 147.89 98.93 148.92 97.51 149.94 96.07 Z" />
</g>
<g id="#61676ffe">
<path fill="#61676f" opacity="1.00" d=" M 173.95 121.55 C 166.41 117.12 166.79 103.93 174.99 99.98 C 177.48 100.90 180.52 102.64 180.09 105.75 C 176.70 103.51 170.25 108.87 174.62 111.37 C 174.39 114.34 176.79 116.57 179.76 115.91 C 182.49 114.13 179.82 110.97 178.97 108.84 C 181.92 106.95 184.21 103.68 187.76 102.94 C 190.09 111.55 198.01 101.27 203.22 100.58 C 206.05 101.49 207.66 104.42 209.30 106.70 C 201.20 99.51 197.04 115.86 204.83 118.52 C 205.82 120.05 207.18 121.45 209.05 120.27 C 206.78 126.91 212.25 129.34 215.45 133.78 C 215.06 134.91 214.65 136.03 214.21 137.15 C 210.09 135.84 211.34 139.21 211.76 141.85 C 209.91 143.32 207.70 140.35 205.68 140.12 C 204.05 136.45 208.05 130.38 202.92 129.00 C 200.94 129.97 196.16 129.33 197.41 132.64 C 198.66 136.41 191.56 138.11 195.07 141.92 C 193.10 145.18 193.01 148.31 196.17 150.80 C 191.17 158.15 190.75 138.60 184.23 143.99 C 189.71 151.15 177.40 159.38 183.53 165.14 C 183.93 169.21 183.23 173.48 180.83 176.87 C 179.36 179.00 174.19 178.25 175.86 176.16 C 182.23 174.91 176.95 166.34 178.55 161.99 C 174.96 164.20 167.21 165.73 170.05 158.23 C 172.93 154.80 177.78 158.11 181.04 155.85 C 180.31 153.21 178.85 150.86 177.56 148.47 C 175.69 148.53 171.14 149.67 172.46 146.36 C 173.15 144.24 174.85 138.47 170.86 139.69 C 166.08 140.59 168.10 133.40 171.79 133.54 C 169.92 131.25 169.50 128.47 172.90 127.43 C 171.38 125.37 165.87 126.58 169.95 123.97 C 174.35 127.51 179.93 122.25 173.95 121.55 M 192.45 108.29 C 190.30 111.26 186.76 108.84 189.95 112.71 C 185.54 112.20 186.73 118.23 182.25 117.31 C 179.39 121.25 184.17 131.54 189.42 126.42 C 191.75 124.29 192.22 129.74 194.35 127.35 C 196.40 125.24 193.25 123.50 191.27 124.47 C 189.32 122.36 185.13 118.28 189.20 116.27 C 192.99 116.41 191.11 125.49 195.32 120.30 C 195.71 117.06 196.10 108.53 192.45 108.29 Z" />
</g>
<g id="#0000002c">
<path fill="#000000" opacity="0.17" d=" M 71.66 109.58 C 80.38 102.64 91.67 106.03 101.66 104.58 C 109.74 105.63 119.60 103.67 126.01 110.04 C 128.96 107.90 131.41 104.82 135.12 103.99 C 132.70 107.02 130.50 110.30 129.02 113.90 C 128.38 116.55 128.18 119.30 127.82 122.01 C 126.61 126.60 127.25 131.29 127.90 135.89 C 114.78 133.51 101.70 134.01 88.60 133.53 C 66.26 136.45 43.73 134.29 21.31 136.33 C 14.21 137.49 7.12 135.93 0.00 135.91 L 0.00 127.82 C 13.67 130.51 27.96 129.01 41.28 125.20 C 45.65 123.28 51.56 122.20 53.07 116.96 C 58.93 114.04 64.57 108.04 71.66 109.58 Z" />
</g>
<g id="#9598a7fd">
<path fill="#9598a7" opacity="1.00" d=" M 204.83 118.52 C 197.04 115.86 201.20 99.51 209.30 106.70 C 209.55 107.21 210.06 108.22 210.32 108.73 C 210.24 111.84 210.19 114.97 210.05 118.08 C 209.80 118.63 209.30 119.72 209.05 120.27 C 207.18 121.45 205.82 120.05 204.83 118.52 C 207.59 118.60 207.51 115.07 204.88 115.09 C 201.62 113.73 204.43 117.12 204.83 118.52 Z" />
</g>
<g id="#7f8388ff">
<path fill="#7f8388" opacity="1.00" d=" M 192.45 108.29 C 196.10 108.53 195.71 117.06 195.32 120.30 C 191.11 125.49 192.99 116.41 189.20 116.27 C 185.13 118.28 189.32 122.36 191.27 124.47 C 193.25 123.50 196.40 125.24 194.35 127.35 C 192.22 129.74 191.75 124.29 189.42 126.42 C 184.17 131.54 179.39 121.25 182.25 117.31 C 186.73 118.23 185.54 112.20 189.95 112.71 C 186.76 108.84 190.30 111.26 192.45 108.29 Z" />
</g>
<g id="#9095a3ff">
<path fill="#9095a3" opacity="1.00" d=" M 174.62 111.37 C 175.75 110.01 177.20 109.09 178.97 108.84 C 179.82 110.97 182.49 114.13 179.76 115.91 C 176.79 116.57 174.39 114.34 174.62 111.37 Z" />
</g>
<g id="#484941ad">
<path fill="#484941" opacity="0.68" d=" M 210.32 108.73 C 211.64 111.69 210.98 115.11 210.05 118.08 C 210.19 114.97 210.24 111.84 210.32 108.73 Z" />
</g>
<g id="#595f75ff">
<path fill="#595f75" opacity="1.00" d=" M 139.31 111.20 C 146.53 112.15 144.04 123.96 137.24 121.86 C 133.66 118.86 137.57 114.15 139.31 111.20 Z" />
</g>
<g id="#676c83ff">
<path fill="#676c83" opacity="1.00" d=" M 151.02 117.89 C 150.51 113.46 155.16 110.80 159.12 110.94 C 154.05 112.78 159.11 117.34 157.20 121.04 C 156.18 124.92 160.96 123.80 163.15 123.21 C 162.17 124.49 160.75 125.22 159.19 125.53 C 156.29 123.31 151.70 121.99 151.02 117.89 Z" />
</g>
<g id="#9499a2ff">
<path fill="#9499a2" opacity="1.00" d=" M 159.12 110.94 C 163.76 110.16 167.55 113.81 166.73 118.72 C 165.45 120.15 164.44 121.79 163.15 123.21 C 160.96 123.80 156.18 124.92 157.20 121.04 C 159.11 117.34 154.05 112.78 159.12 110.94 Z" />
</g>
<g id="#17171582">
<path fill="#171715" opacity="0.51" d=" M 127.82 122.01 C 128.18 119.30 128.38 116.55 129.02 113.90 C 128.73 116.62 128.26 119.30 127.82 122.01 Z" />
</g>
<g id="#eceef2ff">
<path fill="#eceef2" opacity="1.00" d=" M 204.83 118.52 C 204.43 117.12 201.62 113.73 204.88 115.09 C 207.51 115.07 207.59 118.60 204.83 118.52 Z" />
</g>
<g id="#00000038">
<path fill="#000000" opacity="0.22" d=" M 127.90 135.89 C 127.25 131.29 126.61 126.60 127.82 122.01 C 127.43 126.68 130.20 130.59 130.92 134.99 C 130.01 139.04 128.69 143.00 128.05 147.12 L 127.11 147.09 C 84.91 142.38 42.39 139.04 0.00 143.11 L 0.00 135.91 C 7.12 135.93 14.21 137.49 21.31 136.33 C 43.73 134.29 66.26 136.45 88.60 133.53 C 101.70 134.01 114.78 133.51 127.90 135.89 Z" />
</g>
<g id="#49505bff">
<path fill="#49505b" opacity="1.00" d=" M 159.90 133.79 C 162.43 129.64 165.06 125.29 169.95 123.97 C 165.87 126.58 171.38 125.37 172.90 127.43 C 169.50 128.47 169.92 131.25 171.79 133.54 C 168.10 133.40 166.08 140.59 170.86 139.69 C 174.85 138.47 173.15 144.24 172.46 146.36 C 171.14 149.67 175.69 148.53 177.56 148.47 C 178.85 150.86 180.31 153.21 181.04 155.85 C 177.78 158.11 172.93 154.80 170.05 158.23 C 167.21 165.73 174.96 164.20 178.55 161.99 C 176.95 166.34 182.23 174.91 175.86 176.16 C 174.19 178.25 179.36 179.00 180.83 176.87 C 180.78 180.32 185.99 188.39 179.93 186.17 C 177.69 185.85 179.66 189.85 180.09 191.17 C 176.68 191.56 177.28 193.46 178.90 195.67 C 174.66 195.48 171.97 198.63 173.66 202.62 C 170.63 202.16 166.36 206.19 171.01 207.14 C 174.77 210.00 164.71 212.94 169.14 215.79 C 170.85 216.68 175.21 221.07 171.16 221.03 C 170.83 220.77 170.17 220.24 169.84 219.98 C 166.30 218.99 162.60 218.57 158.77 218.72 C 160.15 218.42 164.78 217.54 162.02 216.14 C 157.24 217.05 159.33 206.96 154.54 210.39 C 150.17 212.90 152.98 206.45 152.66 204.02 C 152.83 202.33 152.98 200.63 153.11 198.94 C 157.93 202.34 161.30 199.10 163.72 194.79 C 163.42 197.30 166.69 202.20 168.84 198.74 C 170.26 195.28 166.20 194.67 163.72 194.79 C 165.15 191.62 169.28 193.53 170.46 190.29 C 175.28 188.43 174.55 183.46 169.80 182.15 C 171.59 180.81 172.12 178.99 170.89 177.05 C 168.62 178.63 164.47 180.53 164.20 176.24 C 167.07 174.04 170.10 172.06 172.93 169.81 C 173.07 166.43 167.74 166.52 165.28 165.13 C 163.17 168.28 161.66 173.54 156.28 170.92 C 154.72 168.74 150.99 165.14 153.68 162.72 C 157.87 158.71 143.80 159.62 149.08 153.27 C 152.68 150.68 158.12 152.56 162.15 153.95 C 162.13 150.67 157.29 151.32 156.58 148.37 C 153.70 143.68 164.29 145.72 161.37 140.87 C 165.17 139.05 165.12 131.18 159.90 133.79 Z" />
</g>
<g id="#4a4c5aff">
<path fill="#4a4c5a" opacity="1.00" d=" M 148.00 127.99 C 150.84 127.04 156.93 129.96 152.03 132.07 C 149.03 134.71 147.11 130.72 148.00 127.99 Z" />
</g>
<g id="#7f8855ff">
<path fill="#7f8855" opacity="1.00" d=" M 197.41 132.64 C 196.16 129.33 200.94 129.97 202.92 129.00 C 208.05 130.38 204.05 136.45 205.68 140.12 C 206.24 142.30 206.84 144.47 207.34 146.67 C 207.12 147.09 206.69 147.93 206.48 148.35 C 203.28 142.01 203.11 156.03 198.22 150.77 C 193.53 147.80 200.15 147.98 201.28 145.00 C 199.56 143.38 197.46 142.14 195.07 141.92 C 191.56 138.11 198.66 136.41 197.41 132.64 Z" />
</g>
<g id="#4d515dff">
<path fill="#4d515d" opacity="1.00" d=" M 144.15 130.02 C 149.13 131.99 149.32 139.14 149.60 143.93 C 145.30 145.17 143.09 149.08 140.25 152.19 C 142.63 146.28 133.27 143.62 137.34 138.31 C 142.45 129.90 139.44 152.04 144.83 143.77 C 144.60 139.01 140.11 134.37 144.15 130.02 Z" />
</g>
<g id="#434753fc">
<path fill="#434753" opacity="1.00" d=" M 305.98 138.96 C 307.15 132.39 318.70 126.99 320.49 135.81 C 318.08 141.86 313.41 146.57 310.14 152.12 C 311.08 146.48 304.47 151.79 301.23 150.22 C 297.55 153.52 303.22 157.90 306.71 158.20 C 306.21 161.38 307.63 165.70 304.15 167.55 C 303.05 166.30 301.99 165.02 300.95 163.74 C 302.72 161.87 299.67 161.82 298.52 160.92 C 299.25 157.99 297.39 155.63 296.19 153.14 C 301.28 149.85 304.89 144.96 305.98 138.96 Z" />
</g>
<g id="#646976ff">
<path fill="#646976" opacity="1.00" d=" M 159.90 133.79 C 165.12 131.18 165.17 139.05 161.37 140.87 C 154.34 145.45 155.07 136.32 159.90 133.79 Z" />
</g>
<g id="#3e414efc">
<path fill="#3e414e" opacity="1.00" d=" M 215.45 133.78 C 224.88 141.61 228.56 153.40 234.63 163.62 C 239.11 164.95 243.79 165.07 248.38 165.78 C 248.03 167.46 247.67 169.14 247.27 170.81 C 243.69 166.52 237.04 167.72 234.78 172.70 C 230.76 169.35 221.70 165.32 221.60 173.98 C 216.75 170.52 212.53 175.40 213.10 180.75 C 215.75 182.72 221.07 176.31 223.20 180.82 C 225.36 185.88 230.97 182.49 234.89 182.29 C 236.55 184.19 235.85 187.22 237.84 188.93 C 240.48 190.38 235.44 192.17 235.53 189.59 C 234.33 187.44 232.30 181.98 229.78 185.76 C 227.46 189.58 223.36 186.27 222.76 182.97 C 218.66 184.74 217.42 191.22 221.43 193.46 C 226.94 192.22 225.99 197.72 227.26 200.76 C 225.57 200.30 225.48 198.30 225.01 196.93 C 225.23 194.63 222.78 195.04 221.24 194.74 C 219.01 193.87 215.44 195.77 214.48 192.90 C 209.35 191.22 204.45 188.66 201.74 183.23 C 202.02 178.73 201.43 172.10 205.85 169.83 C 203.34 167.72 205.41 164.23 208.63 165.55 C 206.82 169.36 216.09 171.50 213.41 167.62 C 212.87 165.49 210.25 166.14 208.63 165.55 C 211.98 163.25 216.57 163.47 219.93 160.98 C 225.94 164.90 224.48 156.16 221.14 153.56 C 219.79 151.15 213.02 146.57 219.07 146.66 C 218.08 143.64 215.73 141.30 213.99 138.72 C 214.05 138.33 214.16 137.54 214.21 137.15 C 214.65 136.03 215.06 134.91 215.45 133.78 Z" />
</g>
<g id="#1c1d22f5">
<path fill="#1c1d22" opacity="0.96" d=" M 320.49 135.81 C 320.96 136.61 321.45 137.40 321.96 138.18 C 320.55 143.65 315.76 147.36 313.48 152.51 C 312.60 154.23 309.41 156.49 309.73 152.92 L 310.14 152.12 C 313.41 146.57 318.08 141.86 320.49 135.81 Z" />
</g>
<g id="#14151887">
<path fill="#141518" opacity="0.53" d=" M 323.01 136.74 C 324.74 134.90 326.70 134.91 328.91 136.75 L 328.44 137.29 C 326.61 137.33 324.79 137.10 323.01 136.74 Z" />
</g>
<g id="#81848fff">
<path fill="#81848f" opacity="1.00" d=" M 211.76 141.85 C 211.34 139.21 210.09 135.84 214.21 137.15 C 214.16 137.54 214.05 138.33 213.99 138.72 C 214.27 143.14 210.39 147.11 214.82 150.08 C 212.73 154.34 208.37 150.07 207.34 146.67 C 206.84 144.47 206.24 142.30 205.68 140.12 C 207.70 140.35 209.91 143.32 211.76 141.85 Z" />
</g>
<g id="#353942fd">
<path fill="#353942" opacity="1.00" d=" M 321.96 138.18 C 322.22 137.82 322.75 137.10 323.01 136.74 C 324.79 137.10 326.61 137.33 328.44 137.29 C 326.28 142.10 319.67 147.17 324.20 152.13 C 317.47 150.86 314.06 158.07 312.38 163.37 C 306.16 165.16 315.14 172.57 317.21 167.23 C 319.01 161.97 321.16 156.85 324.20 152.13 C 326.44 150.68 328.63 149.14 330.95 147.80 C 330.96 150.37 332.12 153.88 329.37 155.39 C 323.42 160.39 322.43 169.55 315.03 173.08 C 311.38 175.46 315.01 178.38 317.85 179.18 C 328.18 180.64 325.97 165.85 332.04 161.08 C 332.82 159.67 333.40 158.16 334.09 156.70 L 334.84 156.72 C 340.40 159.65 342.20 167.74 336.97 171.89 L 336.05 172.04 C 337.40 169.76 336.27 167.28 333.40 168.07 C 333.82 172.55 328.77 173.11 327.24 176.60 C 331.19 178.36 323.53 179.77 323.17 182.16 C 321.84 185.21 326.50 183.67 328.19 184.21 C 325.49 184.95 322.75 185.55 320.35 187.02 C 320.37 182.29 316.53 181.04 312.50 181.38 C 309.56 176.13 299.34 175.48 304.15 167.55 C 307.63 165.70 306.21 161.38 306.71 158.20 C 307.71 156.44 308.73 154.68 309.73 152.92 C 309.41 156.49 312.60 154.23 313.48 152.51 C 315.76 147.36 320.55 143.65 321.96 138.18 Z" />
</g>
<g id="#4a4e57fa">
<path fill="#4a4e57" opacity="0.98" d=" M 328.44 137.29 L 328.91 136.75 C 332.44 141.14 330.69 147.47 334.19 152.00 C 333.82 153.54 333.64 155.15 334.09 156.70 C 333.40 158.16 332.82 159.67 332.04 161.08 C 330.58 160.65 328.07 157.89 327.76 160.78 C 326.01 167.77 316.67 171.83 317.85 179.18 C 315.01 178.38 311.38 175.46 315.03 173.08 C 322.43 169.55 323.42 160.39 329.37 155.39 C 332.12 153.88 330.96 150.37 330.95 147.80 C 328.63 149.14 326.44 150.68 324.20 152.13 C 319.67 147.17 326.28 142.10 328.44 137.29 Z" />
</g>
<g id="#606571ff">
<path fill="#606571" opacity="1.00" d=" M 213.99 138.72 C 215.73 141.30 218.08 143.64 219.07 146.66 C 213.02 146.57 219.79 151.15 221.14 153.56 C 217.36 153.99 219.95 158.55 219.93 160.98 C 216.57 163.47 211.98 163.25 208.63 165.55 C 205.41 164.23 203.34 167.72 205.85 169.83 C 201.43 172.10 202.02 178.73 201.74 183.23 C 199.81 181.96 198.55 180.04 197.45 178.05 C 195.64 179.89 195.48 182.63 194.69 184.97 C 193.03 182.77 191.21 180.68 188.21 180.61 C 187.56 176.25 191.46 172.39 193.03 178.28 C 194.28 175.08 187.89 168.60 193.77 167.80 C 193.73 169.64 192.42 172.04 194.66 173.06 C 196.41 169.48 199.14 166.73 201.94 164.08 C 200.77 162.17 199.52 160.30 198.55 158.27 C 195.25 160.11 192.58 162.85 194.68 167.28 C 187.82 165.60 195.63 159.13 190.03 155.95 C 192.95 155.89 195.63 155.00 197.88 153.10 C 201.35 155.02 205.87 152.11 206.48 148.35 C 206.69 147.93 207.12 147.09 207.34 146.67 C 208.37 150.07 212.73 154.34 214.82 150.08 C 210.39 147.11 214.27 143.14 213.99 138.72 Z" />
</g>
<g id="#2e313bfc">
<path fill="#2e313b" opacity="1.00" d=" M 294.28 142.26 C 298.12 140.91 302.65 141.55 305.98 138.96 C 304.89 144.96 301.28 149.85 296.19 153.14 C 297.39 155.63 299.25 157.99 298.52 160.92 C 299.67 161.82 302.72 161.87 300.95 163.74 C 298.65 165.23 296.39 166.77 294.15 168.34 C 293.73 172.01 303.87 174.51 298.29 178.04 C 297.27 176.25 296.58 174.07 294.33 173.55 C 292.55 172.20 290.73 170.93 288.88 169.71 C 286.82 168.30 284.58 166.94 282.01 166.86 C 280.65 170.56 282.58 173.71 284.72 176.34 C 285.99 178.51 288.03 179.95 290.25 181.05 C 289.35 182.62 288.45 184.19 287.53 185.74 C 284.84 185.33 283.14 182.22 280.26 181.97 C 279.96 185.78 278.43 192.19 272.75 188.29 C 269.57 183.83 267.69 189.86 267.04 192.69 C 266.58 192.75 265.67 192.86 265.21 192.91 C 265.86 190.77 264.62 188.76 263.93 186.80 C 271.62 178.98 275.90 169.33 275.14 158.16 C 275.61 155.05 275.96 151.94 275.91 148.80 C 278.10 145.50 281.67 142.97 285.69 142.60 C 288.54 142.62 291.50 143.14 294.28 142.26 Z" />
</g>
<g id="#00000049">
<path fill="#000000" opacity="0.29" d=" M 0.00 143.11 C 42.39 139.04 84.91 142.38 127.11 147.09 C 127.07 147.82 126.99 149.30 126.95 150.03 C 99.34 148.69 71.82 144.89 44.13 146.24 C 35.25 148.45 25.56 146.93 17.21 151.23 C 15.69 152.14 13.76 155.04 15.69 156.18 C 51.10 165.25 88.41 161.13 124.08 168.84 C 124.28 169.17 124.66 169.83 124.86 170.16 C 125.11 170.64 125.61 171.60 125.86 172.08 L 126.19 172.83 C 117.95 169.17 108.95 171.24 100.32 169.65 C 67.05 164.77 32.94 169.45 0.00 161.84 L 0.00 143.11 Z" />
</g>
<g id="#92998aff">
<path fill="#92998a" opacity="1.00" d=" M 195.07 141.92 C 197.46 142.14 199.56 143.38 201.28 145.00 C 200.15 147.98 193.53 147.80 198.22 150.77 C 203.11 156.03 203.28 142.01 206.48 148.35 C 205.87 152.11 201.35 155.02 197.88 153.10 C 197.33 152.32 196.75 151.55 196.17 150.80 C 193.01 148.31 193.10 145.18 195.07 141.92 Z" />
</g>
<g id="#12121592">
<path fill="#121215" opacity="0.57" d=" M 285.69 142.60 C 288.52 142.02 291.39 142.30 294.28 142.26 C 291.50 143.14 288.54 142.62 285.69 142.60 Z" />
</g>
<g id="#7b8184ff">
<path fill="#7b8184" opacity="1.00" d=" M 184.23 143.99 C 190.75 138.60 191.17 158.15 196.17 150.80 C 196.75 151.55 197.33 152.32 197.88 153.10 C 195.63 155.00 192.95 155.89 190.03 155.95 C 195.63 159.13 187.82 165.60 194.68 167.28 C 192.58 162.85 195.25 160.11 198.55 158.27 C 199.52 160.30 200.77 162.17 201.94 164.08 C 199.14 166.73 196.41 169.48 194.66 173.06 C 192.42 172.04 193.73 169.64 193.77 167.80 C 187.89 168.60 194.28 175.08 193.03 178.28 C 191.46 172.39 187.56 176.25 188.21 180.61 C 191.21 180.68 193.03 182.77 194.69 184.97 C 195.48 182.63 195.64 179.89 197.45 178.05 C 198.55 180.04 199.81 181.96 201.74 183.23 C 204.45 188.66 209.35 191.22 214.48 192.90 C 213.50 195.44 213.32 198.36 211.26 200.36 C 205.38 203.32 204.51 197.20 206.95 193.12 C 204.83 193.59 197.28 191.46 201.99 195.00 C 206.83 197.85 200.57 199.55 198.10 197.03 C 195.50 199.86 198.49 200.24 201.11 200.29 C 200.86 204.00 198.25 201.85 196.10 201.04 C 194.32 204.10 199.17 208.51 195.03 210.17 C 195.23 208.36 195.59 206.57 195.82 204.77 C 192.33 206.08 190.56 210.74 185.95 208.99 C 185.38 206.11 187.14 203.90 188.89 201.88 C 186.29 198.66 182.41 195.78 182.99 191.02 C 183.06 189.33 180.94 191.25 180.09 191.17 C 179.66 189.85 177.69 185.85 179.93 186.17 C 185.99 188.39 180.78 180.32 180.83 176.87 C 183.23 173.48 183.93 169.21 183.53 165.14 C 177.40 159.38 189.71 151.15 184.23 143.99 M 189.36 164.36 C 187.45 165.29 186.61 167.06 186.98 169.15 C 188.81 168.79 190.88 163.74 189.36 164.36 Z" />
</g>
<g id="#00000057">
<path fill="#000000" opacity="0.34" d=" M 17.21 151.23 C 25.56 146.93 35.25 148.45 44.13 146.24 C 71.82 144.89 99.34 148.69 126.95 150.03 C 127.56 152.29 125.23 152.22 123.70 152.56 C 102.30 152.10 79.72 147.17 58.96 154.08 C 61.47 157.81 68.06 157.19 72.00 158.03 C 89.27 160.65 106.66 162.59 123.79 166.07 C 123.86 166.76 124.01 168.15 124.08 168.84 C 88.41 161.13 51.10 165.25 15.69 156.18 C 13.76 155.04 15.69 152.14 17.21 151.23 Z" />
</g>
<g id="#00000066">
<path fill="#000000" opacity="0.40" d=" M 127.11 147.09 L 128.05 147.12 C 131.16 152.80 126.57 156.26 124.89 160.90 L 124.66 161.73 C 124.28 163.16 124.03 164.61 123.79 166.07 C 106.66 162.59 89.27 160.65 72.00 158.03 C 68.06 157.19 61.47 157.81 58.96 154.08 C 79.72 147.17 102.30 152.10 123.70 152.56 C 125.23 152.22 127.56 152.29 126.95 150.03 C 126.99 149.30 127.07 147.82 127.11 147.09 Z" />
</g>
<g id="#0d0c0c73">
<path fill="#0d0c0c" opacity="0.45" d=" M 274.86 155.74 C 275.03 153.38 275.38 151.07 275.91 148.80 C 275.96 151.94 275.61 155.05 275.14 158.16 C 275.07 157.55 274.93 156.34 274.86 155.74 Z" />
</g>
<g id="#737a82ff">
<path fill="#737a82" opacity="1.00" d=" M 301.23 150.22 C 304.47 151.79 311.08 146.48 310.14 152.12 L 309.73 152.92 C 308.73 154.68 307.71 156.44 306.71 158.20 C 303.22 157.90 297.55 153.52 301.23 150.22 Z" />
</g>
<g id="#656b72ff">
<path fill="#656b72" opacity="1.00" d=" M 312.38 163.37 C 314.06 158.07 317.47 150.86 324.20 152.13 C 321.16 156.85 319.01 161.97 317.21 167.23 C 315.14 172.57 306.16 165.16 312.38 163.37 Z" />
</g>
<g id="#1f1f1f92">
<path fill="#1f1f1f" opacity="0.57" d=" M 334.19 152.00 C 335.39 153.28 335.56 155.15 334.84 156.72 L 334.09 156.70 C 333.64 155.15 333.82 153.54 334.19 152.00 Z" />
</g>
<g id="#8b8d9dff">
<path fill="#8b8d9d" opacity="1.00" d=" M 219.93 160.98 C 219.95 158.55 217.36 153.99 221.14 153.56 C 224.48 156.16 225.94 164.90 219.93 160.98 Z" />
</g>
<g id="#595d73fe">
<path fill="#595d73" opacity="1.00" d=" M 124.89 160.90 C 130.27 156.36 135.58 161.22 133.06 167.98 C 135.09 174.87 129.32 175.88 125.86 172.08 C 125.61 171.60 125.11 170.64 124.86 170.16 C 124.77 167.35 124.71 164.54 124.66 161.73 L 124.89 160.90 Z" />
</g>
<g id="#707880ff">
<path fill="#707880" opacity="1.00" d=" M 327.76 160.78 C 328.07 157.89 330.58 160.65 332.04 161.08 C 325.97 165.85 328.18 180.64 317.85 179.18 C 316.67 171.83 326.01 167.77 327.76 160.78 Z" />
</g>
<g id="#0000003a">
<path fill="#000000" opacity="0.23" d=" M 0.00 161.84 C 32.94 169.45 67.05 164.77 100.32 169.65 C 108.95 171.24 117.95 169.17 126.19 172.83 C 126.79 177.79 135.30 180.80 128.96 184.62 C 127.74 185.89 126.59 187.26 125.81 188.85 C 124.56 195.09 124.33 201.44 123.76 207.76 C 104.89 214.14 84.80 207.20 65.53 206.56 C 43.22 205.03 21.15 200.75 0.00 193.69 L 0.00 184.67 C 17.06 190.03 33.39 198.27 51.42 200.48 C 67.80 203.11 84.29 205.63 100.87 205.93 C 111.06 203.32 100.65 193.73 107.21 189.27 C 100.90 191.48 101.66 182.14 98.17 178.92 C 66.85 168.05 32.53 173.40 0.00 170.92 L 0.00 161.84 Z" />
<path fill="#000000" opacity="0.23" d=" M 0.00 211.95 C 18.03 215.90 36.31 218.57 54.33 222.61 C 79.99 226.12 104.33 235.32 129.35 241.58 C 136.76 243.73 144.77 242.21 152.00 245.06 C 152.00 246.34 151.99 247.63 151.99 248.91 C 137.88 243.79 122.45 243.45 108.13 238.80 C 73.10 227.24 36.13 224.51 0.00 218.19 L 0.00 211.95 Z" />
</g>
<g id="#2c2b2aad">
<path fill="#2c2b2a" opacity="0.68" d=" M 123.79 166.07 C 124.03 164.61 124.28 163.16 124.66 161.73 C 124.71 164.54 124.77 167.35 124.86 170.16 C 124.66 169.83 124.28 169.17 124.08 168.84 C 124.01 168.15 123.86 166.76 123.79 166.07 Z" />
</g>
<g id="#6a717bff">
<path fill="#6a717b" opacity="1.00" d=" M 189.36 164.36 C 190.88 163.74 188.81 168.79 186.98 169.15 C 186.61 167.06 187.45 165.29 189.36 164.36 Z" />
</g>
<g id="#4e535dfe">
<path fill="#4e535d" opacity="1.00" d=" M 294.15 168.34 C 296.39 166.77 298.65 165.23 300.95 163.74 C 301.99 165.02 303.05 166.30 304.15 167.55 C 299.34 175.48 309.56 176.13 312.50 181.38 C 316.53 181.04 320.37 182.29 320.35 187.02 C 316.93 190.73 310.43 191.59 309.09 196.91 L 308.45 197.20 C 307.96 195.01 305.75 194.24 303.76 194.14 C 301.28 193.82 296.62 193.09 297.53 189.66 C 297.68 185.34 292.16 184.54 288.84 184.04 C 289.90 187.24 292.08 190.36 287.00 189.45 C 284.14 195.32 288.87 195.25 292.18 196.44 C 289.70 198.05 285.28 204.60 291.18 202.36 C 287.73 208.14 289.06 217.65 297.90 212.99 C 297.35 214.03 296.82 215.08 296.28 216.13 C 295.21 216.28 293.95 218.01 293.01 216.85 C 289.92 213.55 284.37 212.44 283.30 207.64 C 281.68 203.61 280.10 210.76 276.88 209.96 C 277.97 207.11 278.25 200.93 282.08 205.00 C 285.35 201.69 286.62 191.16 279.94 188.95 C 282.17 191.67 282.45 199.39 277.72 195.16 C 277.82 196.62 281.70 201.26 278.50 199.40 C 276.43 197.55 274.32 199.05 273.26 201.17 C 272.30 197.68 271.77 192.64 267.04 192.69 C 267.69 189.86 269.57 183.83 272.75 188.29 C 278.43 192.19 279.96 185.78 280.26 181.97 C 283.14 182.22 284.84 185.33 287.53 185.74 C 288.45 184.19 289.35 182.62 290.25 181.05 C 295.76 185.38 296.96 177.37 294.33 173.55 C 296.58 174.07 297.27 176.25 298.29 178.04 C 303.87 174.51 293.73 172.01 294.15 168.34 M 305.00 186.00 C 302.10 189.22 306.77 193.93 309.33 191.35 C 311.79 188.30 308.56 184.61 305.00 186.00 Z" />
</g>
<g id="#646b80ff">
<path fill="#646b80" opacity="1.00" d=" M 208.63 165.55 C 210.25 166.14 212.87 165.49 213.41 167.62 C 216.09 171.50 206.82 169.36 208.63 165.55 Z" />
</g>
<g id="#33343bf9">
<path fill="#33343b" opacity="0.98" d=" M 248.38 165.78 C 253.87 167.78 260.28 170.54 263.42 175.64 C 266.16 185.29 254.59 188.26 248.32 192.30 C 241.90 195.82 224.94 187.24 230.85 200.31 C 232.42 200.39 235.56 200.54 237.14 200.62 C 239.72 201.41 242.18 202.54 244.59 203.77 C 243.05 207.53 238.27 207.64 234.97 208.30 C 235.28 211.22 239.61 210.44 241.79 211.44 C 247.77 211.86 250.01 220.26 246.06 223.97 C 244.44 221.77 244.52 219.37 245.71 217.00 C 243.86 216.12 241.86 215.63 239.94 214.93 C 241.15 210.42 236.19 211.89 233.16 212.13 C 231.28 214.54 233.63 216.37 235.15 218.13 C 233.00 219.22 231.01 217.82 229.07 216.98 C 233.11 213.83 230.71 204.31 225.93 205.92 C 226.05 204.09 230.29 201.50 227.26 200.76 C 225.99 197.72 226.94 192.22 221.43 193.46 C 217.42 191.22 218.66 184.74 222.76 182.97 C 223.36 186.27 227.46 189.58 229.78 185.76 C 232.30 181.98 234.33 187.44 235.53 189.59 C 235.44 192.17 240.48 190.38 237.84 188.93 C 238.91 187.34 240.01 185.75 241.45 184.47 C 243.06 186.70 245.30 185.76 247.10 184.37 C 249.52 186.53 251.97 185.27 253.95 183.20 C 255.56 181.66 258.89 179.39 257.33 176.93 C 255.64 172.63 252.16 170.00 247.27 170.81 C 247.67 169.14 248.03 167.46 248.38 165.78 Z" />
</g>
<g id="#5b6367ff">
<path fill="#5b6367" opacity="1.00" d=" M 282.01 166.86 C 284.58 166.94 286.82 168.30 288.88 169.71 C 285.79 170.42 285.81 173.97 284.72 176.34 C 282.58 173.71 280.65 170.56 282.01 166.86 Z" />
</g>
<g id="#545665ff">
<path fill="#545665" opacity="1.00" d=" M 221.60 173.98 C 221.70 165.32 230.76 169.35 234.78 172.70 C 237.04 167.72 243.69 166.52 247.27 170.81 C 252.16 170.00 255.64 172.63 257.33 176.93 C 253.86 176.53 251.67 170.37 247.85 172.90 C 244.65 176.87 239.26 169.64 236.42 173.22 C 236.80 176.82 235.40 180.65 237.19 184.02 C 242.64 181.15 248.16 181.35 253.95 183.20 C 251.97 185.27 249.52 186.53 247.10 184.37 C 245.30 185.76 243.06 186.70 241.45 184.47 C 240.01 185.75 238.91 187.34 237.84 188.93 C 235.85 187.22 236.55 184.19 234.89 182.29 C 230.97 182.49 225.36 185.88 223.20 180.82 C 221.07 176.31 215.75 182.72 213.10 180.75 C 212.53 175.40 216.75 170.52 221.60 173.98 Z" />
</g>
<g id="#69727cf7">
<path fill="#69727c" opacity="0.97" d=" M 333.40 168.07 C 336.27 167.28 337.40 169.76 336.05 172.04 C 334.06 176.35 333.50 182.66 328.19 184.21 C 326.50 183.67 321.84 185.21 323.17 182.16 C 323.53 179.77 331.19 178.36 327.24 176.60 C 328.77 173.11 333.82 172.55 333.40 168.07 Z" />
</g>
<g id="#0000002d">
<path fill="#000000" opacity="0.18" d=" M 0.00 170.92 C 32.53 173.40 66.85 168.05 98.17 178.92 C 101.66 182.14 100.90 191.48 107.21 189.27 C 100.65 193.73 111.06 203.32 100.87 205.93 C 84.29 205.63 67.80 203.11 51.42 200.48 C 33.39 198.27 17.06 190.03 0.00 184.67 L 0.00 170.92 Z" />
</g>
<g id="#818494ff">
<path fill="#818494" opacity="1.00" d=" M 284.72 176.34 C 285.81 173.97 285.79 170.42 288.88 169.71 C 290.73 170.93 292.55 172.20 294.33 173.55 C 296.96 177.37 295.76 185.38 290.25 181.05 C 288.03 179.95 285.99 178.51 284.72 176.34 Z" />
</g>
<g id="#767783ff">
<path fill="#767783" opacity="1.00" d=" M 236.42 173.22 C 239.26 169.64 244.65 176.87 247.85 172.90 C 251.67 170.37 253.86 176.53 257.33 176.93 C 258.89 179.39 255.56 181.66 253.95 183.20 C 248.16 181.35 242.64 181.15 237.19 184.02 C 235.40 180.65 236.80 176.82 236.42 173.22 Z" />
</g>
<g id="#0000000e">
<path fill="#000000" opacity="0.05" d=" M 336.05 172.04 L 336.97 171.89 C 336.97 174.54 336.79 177.23 335.67 179.67 C 333.65 187.20 321.21 187.23 322.07 195.09 C 315.29 195.62 325.70 199.63 320.39 202.42 C 316.26 205.46 323.75 209.17 320.74 212.70 C 318.59 215.77 322.18 217.26 324.17 218.90 C 326.35 221.03 321.42 220.19 320.22 220.27 C 316.08 222.87 325.99 224.68 321.61 227.57 C 315.91 233.35 322.07 242.22 316.42 247.28 C 318.50 250.06 318.56 253.62 320.19 256.64 C 314.16 254.16 317.74 262.38 320.31 264.68 C 322.86 268.25 317.78 265.93 315.82 266.05 C 315.92 268.13 321.34 270.96 317.09 271.02 C 311.56 272.41 309.65 281.11 311.36 285.61 C 314.54 289.96 305.31 292.03 307.83 296.18 C 311.54 301.75 300.73 299.46 300.23 295.78 C 299.19 292.11 295.73 296.92 295.47 298.91 C 293.18 298.54 291.21 294.28 289.32 297.31 C 285.20 300.38 287.02 309.25 279.09 303.86 C 275.08 301.23 274.82 306.08 275.95 308.80 C 272.45 307.17 269.85 309.72 266.88 311.15 C 267.15 308.62 270.46 307.67 270.07 304.96 C 262.82 305.03 264.08 315.79 257.40 316.42 C 254.23 313.66 248.51 315.44 248.83 320.07 C 247.29 323.42 246.06 314.81 243.90 317.75 C 241.86 320.43 234.51 330.42 235.77 321.86 C 234.60 318.91 232.15 325.90 229.33 324.61 C 225.56 323.67 229.31 329.40 227.03 328.92 C 223.36 328.93 227.21 322.10 223.65 323.45 C 220.33 329.92 216.42 319.23 212.63 325.47 C 209.65 323.40 206.56 327.97 202.90 327.04 C 202.78 325.16 204.57 324.46 205.80 323.46 C 204.25 320.28 201.18 323.10 199.93 325.01 C 198.38 323.69 197.02 322.16 195.36 320.97 C 195.68 325.63 191.66 327.79 188.17 329.36 C 183.30 327.09 179.88 331.84 174.85 330.41 C 174.33 333.16 177.98 332.55 178.10 334.92 C 171.09 334.33 163.90 334.07 156.99 335.59 C 154.57 335.56 153.31 330.90 150.59 332.39 C 148.43 335.77 146.18 339.46 142.50 341.37 C 139.34 338.56 133.27 340.04 132.48 344.37 C 132.06 347.52 129.33 347.79 126.16 347.00 C 127.45 343.27 125.65 340.95 122.20 343.45 C 116.72 336.73 121.34 350.01 115.45 347.75 C 114.58 345.07 113.03 343.63 110.21 344.77 C 112.36 340.29 107.13 338.93 104.01 337.03 C 102.34 338.80 104.35 340.46 105.08 342.14 C 101.13 342.20 99.51 338.17 97.75 335.35 C 95.58 335.49 93.41 335.62 91.23 335.57 C 91.76 342.45 82.81 336.26 79.27 336.94 C 81.15 333.13 81.38 330.82 76.72 333.13 C 69.93 331.25 63.07 331.18 57.86 336.62 C 52.74 332.57 45.34 332.57 39.24 334.41 C 36.93 329.49 32.69 335.57 29.33 332.66 C 24.02 329.40 18.25 332.55 14.84 337.05 C 16.27 334.64 17.39 330.86 13.25 333.15 C 6.73 338.36 5.14 325.83 0.00 331.26 L 0.00 285.75 C 1.97 291.36 8.47 286.30 11.86 290.26 C 11.15 292.85 8.56 294.00 6.94 295.92 C 10.32 299.39 17.11 288.03 17.98 295.78 C 23.38 290.62 25.19 300.74 30.93 299.78 C 36.01 298.73 39.26 301.78 43.65 303.91 C 45.36 297.63 50.59 308.30 53.90 302.93 C 57.25 297.36 61.77 308.52 65.55 303.57 C 67.87 300.69 70.56 302.87 72.62 304.73 C 72.24 300.31 82.73 295.97 80.42 302.21 C 85.68 306.09 88.41 295.05 91.24 301.69 C 94.56 299.05 98.74 297.85 102.71 296.56 C 106.00 297.97 108.90 300.62 112.82 299.99 C 114.41 298.34 111.77 294.26 115.03 294.27 C 118.53 295.37 122.70 290.89 123.40 296.44 C 127.79 294.04 132.65 300.53 136.02 296.08 C 139.24 294.73 146.93 288.77 144.43 295.96 C 147.52 297.31 151.70 295.21 153.86 298.82 C 156.39 295.59 159.60 298.97 162.62 299.46 C 171.16 298.90 180.48 297.89 189.67 298.61 C 195.02 297.33 199.23 293.23 204.84 292.78 C 211.26 289.13 224.08 296.27 224.26 285.08 C 226.54 287.98 231.33 290.92 234.35 287.35 C 237.96 283.41 243.30 281.80 246.95 278.00 C 251.47 275.94 262.14 276.79 260.33 269.35 C 263.52 267.36 267.21 262.46 271.22 265.34 C 275.86 262.24 273.35 251.03 280.67 250.71 C 282.50 245.11 287.99 242.58 291.32 238.33 C 293.12 228.89 300.49 220.70 299.11 210.75 C 299.15 210.36 299.22 209.57 299.26 209.18 C 298.99 202.31 307.84 202.72 309.09 196.91 C 310.43 191.59 316.93 190.73 320.35 187.02 C 322.75 185.55 325.49 184.95 328.19 184.21 C 333.50 182.66 334.06 176.35 336.05 172.04 Z" />
</g>
<g id="#6d757aff">
<path fill="#6d757a" opacity="1.00" d=" M 170.46 190.29 C 167.39 188.63 164.67 182.38 169.80 182.15 C 174.55 183.46 175.28 188.43 170.46 190.29 Z" />
</g>
<g id="#626762fc">
<path fill="#626762" opacity="1.00" d=" M 288.84 184.04 C 292.16 184.54 297.68 185.34 297.53 189.66 C 296.62 193.09 301.28 193.82 303.76 194.14 C 303.53 196.61 306.25 198.80 308.45 197.20 L 309.09 196.91 C 307.84 202.72 298.99 202.31 299.26 209.18 C 300.64 203.50 297.45 198.19 292.18 196.44 C 288.87 195.25 284.14 195.32 287.00 189.45 C 292.08 190.36 289.90 187.24 288.84 184.04 Z" />
</g>
<g id="#545458fa">
<path fill="#545458" opacity="0.98" d=" M 125.81 188.85 C 126.59 187.26 127.74 185.89 128.96 184.62 C 134.94 186.16 130.21 193.53 129.55 197.63 C 127.92 201.15 126.30 196.77 126.14 194.78 C 126.01 192.80 125.88 190.83 125.81 188.85 Z" />
</g>
<g id="#7f8484ff">
<path fill="#7f8484" opacity="1.00" d=" M 305.00 186.00 C 308.56 184.61 311.79 188.30 309.33 191.35 C 306.77 193.93 302.10 189.22 305.00 186.00 Z" />
</g>
<g id="#262831fd">
<path fill="#262831" opacity="1.00" d=" M 254.01 200.91 C 256.51 195.70 260.68 191.52 263.93 186.80 C 264.62 188.76 265.86 190.77 265.21 192.91 C 261.02 193.90 259.98 199.24 262.41 202.50 C 263.24 205.46 268.04 205.64 266.47 209.34 L 266.26 210.08 C 260.68 211.99 263.40 218.59 259.59 222.17 C 255.40 222.76 249.66 214.10 251.10 221.73 C 259.55 219.72 249.75 239.73 245.97 232.82 C 243.74 231.30 242.49 234.95 242.85 236.92 C 237.23 234.47 243.91 227.54 248.32 227.05 C 244.17 225.99 239.59 229.23 235.70 226.85 C 237.58 223.42 242.92 225.80 246.06 223.97 C 250.01 220.26 247.77 211.86 241.79 211.44 C 239.61 210.44 235.28 211.22 234.97 208.30 C 238.27 207.64 243.05 207.53 244.59 203.77 C 246.79 204.46 248.92 205.35 251.03 206.29 C 254.95 208.82 254.28 204.41 254.01 200.91 Z" />
</g>
<g id="#585b6aff">
<path fill="#585b6a" opacity="1.00" d=" M 142.19 188.16 C 146.44 189.81 142.38 195.24 140.65 197.74 C 134.61 198.77 140.23 190.55 142.19 188.16 Z" />
</g>
<g id="#0000004b">
<path fill="#000000" opacity="0.29" d=" M 123.76 207.76 C 124.33 201.44 124.56 195.09 125.81 188.85 C 125.88 190.83 126.01 192.80 126.14 194.78 C 125.27 200.36 127.12 205.55 130.29 210.08 C 122.34 216.43 110.32 211.60 101.04 212.84 C 80.81 210.08 60.35 209.39 39.96 210.11 C 39.74 211.82 40.13 213.52 41.97 214.06 C 52.89 218.15 64.47 220.08 75.64 223.39 C 101.08 229.57 125.24 242.59 152.02 242.05 C 152.02 242.81 152.01 244.31 152.00 245.06 C 144.77 242.21 136.76 243.73 129.35 241.58 C 104.33 235.32 79.99 226.12 54.33 222.61 C 36.31 218.57 18.03 215.90 0.00 211.95 L 0.00 193.69 C 21.15 200.75 43.22 205.03 65.53 206.56 C 84.80 207.20 104.89 214.14 123.76 207.76 Z" />
</g>
<g id="#70757dff">
<path fill="#70757d" opacity="1.00" d=" M 279.94 188.95 C 286.62 191.16 285.35 201.69 282.08 205.00 C 278.25 200.93 277.97 207.11 276.88 209.96 C 280.10 210.76 281.68 203.61 283.30 207.64 C 284.37 212.44 289.92 213.55 293.01 216.85 C 293.95 218.01 295.21 216.28 296.28 216.13 C 295.98 217.48 295.78 218.87 295.31 220.18 C 289.81 216.61 290.11 224.20 288.81 227.82 C 281.99 228.64 292.93 218.12 286.12 217.95 C 285.87 232.85 282.93 214.95 275.87 218.04 C 277.54 220.32 280.93 221.75 280.99 224.89 C 276.52 226.21 271.30 223.97 267.92 228.20 C 262.39 226.33 272.74 218.41 270.24 216.37 C 266.64 217.89 265.48 211.59 269.83 213.69 C 273.05 211.17 268.35 210.43 266.26 210.08 L 266.47 209.34 C 274.99 206.30 258.25 199.54 265.88 194.05 C 265.08 197.87 270.55 208.47 273.26 201.17 C 274.32 199.05 276.43 197.55 278.50 199.40 C 281.70 201.26 277.82 196.62 277.72 195.16 C 282.45 199.39 282.17 191.67 279.94 188.95 Z" />
</g>
<g id="#676d73ff">
<path fill="#676d73" opacity="1.00" d=" M 180.09 191.17 C 180.94 191.25 183.06 189.33 182.99 191.02 C 182.41 195.78 186.29 198.66 188.89 201.88 C 187.14 203.90 185.38 206.11 185.95 208.99 C 190.56 210.74 192.33 206.08 195.82 204.77 C 195.59 206.57 195.23 208.36 195.03 210.17 C 199.17 208.51 194.32 204.10 196.10 201.04 C 198.25 201.85 200.86 204.00 201.11 200.29 C 198.49 200.24 195.50 199.86 198.10 197.03 C 200.57 199.55 206.83 197.85 201.99 195.00 C 197.28 191.46 204.83 193.59 206.95 193.12 C 204.51 197.20 205.38 203.32 211.26 200.36 C 211.83 202.82 212.28 205.34 213.15 207.74 C 215.74 207.35 218.49 206.62 220.88 208.15 C 221.29 210.67 217.76 210.15 216.29 211.30 C 215.08 213.92 219.45 212.30 220.92 212.84 C 219.58 213.55 218.22 214.21 216.87 214.89 C 215.32 213.95 213.82 212.91 212.20 212.10 C 212.32 218.29 204.13 217.07 201.53 221.57 C 197.01 224.77 197.32 230.66 193.88 234.62 C 195.79 234.56 199.59 234.37 196.83 236.85 C 194.73 239.61 193.95 246.29 197.74 247.64 C 200.61 253.11 194.62 256.23 194.72 260.91 C 189.84 258.52 190.10 253.58 186.26 250.15 C 189.20 247.29 186.32 246.47 183.58 245.48 C 182.24 240.92 178.57 236.58 175.15 234.12 C 170.36 239.51 185.28 240.23 179.80 246.92 C 175.22 248.12 179.32 241.53 175.99 242.10 C 173.80 241.71 172.83 239.40 170.97 238.57 C 163.90 239.03 171.15 232.54 167.06 228.77 C 170.12 228.35 169.66 232.99 172.71 231.83 C 177.16 229.15 175.19 223.02 171.16 221.03 C 175.21 221.07 170.85 216.68 169.14 215.79 C 164.71 212.94 174.77 210.00 171.01 207.14 C 166.36 206.19 170.63 202.16 173.66 202.62 C 171.97 198.63 174.66 195.48 178.90 195.67 C 177.28 193.46 176.68 191.56 180.09 191.17 M 178.25 198.18 C 175.90 199.18 174.53 204.56 178.36 202.47 C 182.13 203.27 181.65 197.07 178.25 198.18 M 197.95 203.96 C 198.17 205.32 198.28 210.29 200.33 208.27 C 202.18 206.76 200.45 203.27 197.95 203.96 M 177.00 211.99 C 175.98 215.89 184.51 212.68 182.27 217.11 C 180.67 220.23 185.55 219.25 186.16 217.19 C 187.38 213.75 193.67 216.38 193.03 211.99 C 186.10 214.31 183.63 212.54 177.00 211.99 Z" />
</g>
<g id="#53555aff">
<path fill="#53555a" opacity="1.00" d=" M 211.26 200.36 C 213.32 198.36 213.50 195.44 214.48 192.90 C 215.44 195.77 219.01 193.87 221.24 194.74 C 219.75 196.15 218.24 197.55 216.87 199.09 C 218.68 203.28 223.52 199.57 225.01 196.93 C 225.48 198.30 225.57 200.30 227.26 200.76 C 230.29 201.50 226.05 204.09 225.93 205.92 C 225.17 207.76 223.88 209.73 224.92 211.73 C 223.57 212.07 222.24 212.41 220.92 212.84 C 219.45 212.30 215.08 213.92 216.29 211.30 C 217.76 210.15 221.29 210.67 220.88 208.15 C 218.49 206.62 215.74 207.35 213.15 207.74 C 212.28 205.34 211.83 202.82 211.26 200.36 Z" />
</g>
<g id="#4c5262ff">
<path fill="#4c5262" opacity="1.00" d=" M 262.41 202.50 C 259.98 199.24 261.02 193.90 265.21 192.91 C 265.67 192.86 266.58 192.75 267.04 192.69 C 266.75 193.03 266.17 193.71 265.88 194.05 C 258.25 199.54 274.99 206.30 266.47 209.34 C 268.04 205.64 263.24 205.46 262.41 202.50 Z" />
</g>
<g id="#8e92a5ff">
<path fill="#8e92a5" opacity="1.00" d=" M 267.04 192.69 C 271.77 192.64 272.30 197.68 273.26 201.17 C 270.55 208.47 265.08 197.87 265.88 194.05 C 266.17 193.71 266.75 193.03 267.04 192.69 Z" />
</g>
<g id="#5c6374ff">
<path fill="#5c6374" opacity="1.00" d=" M 147.23 205.90 C 142.87 201.65 154.41 187.28 153.11 198.94 C 152.98 200.63 152.83 202.33 152.66 204.02 C 151.29 205.57 149.32 206.58 147.23 205.90 Z" />
</g>
<g id="#a9b09aff">
<path fill="#a9b09a" opacity="1.00" d=" M 303.76 194.14 C 305.75 194.24 307.96 195.01 308.45 197.20 C 306.25 198.80 303.53 196.61 303.76 194.14 Z" />
</g>
<g id="#6f768aff">
<path fill="#6f768a" opacity="1.00" d=" M 163.72 194.79 C 166.20 194.67 170.26 195.28 168.84 198.74 C 166.69 202.20 163.42 197.30 163.72 194.79 Z" />
</g>
<g id="#87888cff">
<path fill="#87888c" opacity="1.00" d=" M 221.24 194.74 C 222.78 195.04 225.23 194.63 225.01 196.93 C 223.52 199.57 218.68 203.28 216.87 199.09 C 218.24 197.55 219.75 196.15 221.24 194.74 Z" />
</g>
<g id="#828c67ff">
<path fill="#828c67" opacity="1.00" d=" M 291.18 202.36 C 285.28 204.60 289.70 198.05 292.18 196.44 C 297.45 198.19 300.64 203.50 299.26 209.18 C 299.22 209.57 299.15 210.36 299.11 210.75 C 298.80 211.31 298.20 212.43 297.90 212.99 C 289.06 217.65 287.73 208.14 291.18 202.36 M 295.27 202.20 C 294.02 207.51 300.13 202.06 295.27 202.20 Z" />
</g>
<g id="#9da1a7ff">
<path fill="#9da1a7" opacity="1.00" d=" M 178.25 198.18 C 181.65 197.07 182.13 203.27 178.36 202.47 C 174.53 204.56 175.90 199.18 178.25 198.18 Z" />
</g>
<g id="#0b0c0e85">
<path fill="#0b0c0e" opacity="0.52" d=" M 230.85 200.31 C 232.42 200.39 235.56 200.54 237.14 200.62 C 235.56 200.54 232.42 200.39 230.85 200.31 Z" />
</g>
<g id="#0a0b0c8b">
<path fill="#0a0b0c" opacity="0.55" d=" M 251.03 206.29 C 252.91 205.21 253.90 203.42 254.01 200.91 C 254.28 204.41 254.95 208.82 251.03 206.29 Z" />
</g>
<g id="#e3e7d3ff">
<path fill="#e3e7d3" opacity="1.00" d=" M 295.27 202.20 C 300.13 202.06 294.02 207.51 295.27 202.20 Z" />
</g>
<g id="#adb2a2ff">
<path fill="#adb2a2" opacity="1.00" d=" M 197.95 203.96 C 200.45 203.27 202.18 206.76 200.33 208.27 C 198.28 210.29 198.17 205.32 197.95 203.96 Z" />
</g>
<g id="#161718ff">
<path fill="#161718" opacity="1.00" d=" M 225.93 205.92 C 230.71 204.31 233.11 213.83 229.07 216.98 C 227.39 220.39 234.56 226.06 228.17 226.36 C 223.19 228.93 223.60 221.29 224.01 218.07 C 226.68 216.88 225.76 214.09 224.92 211.73 C 223.88 209.73 225.17 207.76 225.93 205.92 Z" />
</g>
<g id="#0000005a">
<path fill="#000000" opacity="0.35" d=" M 39.96 210.11 C 60.35 209.39 80.81 210.08 101.04 212.84 C 110.32 211.60 122.34 216.43 130.29 210.08 C 130.59 210.52 131.21 211.40 131.52 211.83 C 131.06 213.23 130.00 214.22 128.62 214.69 C 113.87 215.28 99.02 216.79 84.31 215.33 C 79.87 215.94 82.50 220.90 86.00 221.00 C 107.21 229.48 128.34 241.66 151.96 240.07 C 151.98 240.57 152.01 241.56 152.02 242.05 C 125.24 242.59 101.08 229.57 75.64 223.39 C 64.47 220.08 52.89 218.15 41.97 214.06 C 40.13 213.52 39.74 211.82 39.96 210.11 Z" />
</g>
<g id="#595e64ff">
<path fill="#595e64" opacity="1.00" d=" M 266.26 210.08 C 268.35 210.43 273.05 211.17 269.83 213.69 C 265.48 211.59 266.64 217.89 270.24 216.37 C 272.74 218.41 262.39 226.33 267.92 228.20 C 267.75 228.58 267.42 229.35 267.25 229.74 C 265.07 234.26 261.27 239.51 255.58 237.50 C 248.32 239.38 250.77 233.94 254.50 234.79 C 253.08 231.13 255.62 229.44 258.98 231.03 C 256.52 230.00 254.22 223.95 257.86 227.85 C 258.15 221.21 261.01 229.26 262.79 229.67 C 268.76 226.94 260.01 225.98 259.59 222.17 C 263.40 218.59 260.68 211.99 266.26 210.08 Z" />
</g>
<g id="#00000015">
<path fill="#000000" opacity="0.08" d=" M 297.90 212.99 C 298.20 212.43 298.80 211.31 299.11 210.75 C 300.49 220.70 293.12 228.89 291.32 238.33 C 287.99 242.58 282.50 245.11 280.67 250.71 C 273.35 251.03 275.86 262.24 271.22 265.34 C 267.21 262.46 263.52 267.36 260.33 269.35 C 262.14 276.79 251.47 275.94 246.95 278.00 C 243.30 281.80 237.96 283.41 234.35 287.35 C 231.33 290.92 226.54 287.98 224.26 285.08 C 224.08 296.27 211.26 289.13 204.84 292.78 C 199.23 293.23 195.02 297.33 189.67 298.61 C 180.48 297.89 171.16 298.90 162.62 299.46 C 159.60 298.97 156.39 295.59 153.86 298.82 C 151.70 295.21 147.52 297.31 144.43 295.96 C 146.93 288.77 139.24 294.73 136.02 296.08 C 132.65 300.53 127.79 294.04 123.40 296.44 C 122.70 290.89 118.53 295.37 115.03 294.27 C 111.77 294.26 114.41 298.34 112.82 299.99 C 108.90 300.62 106.00 297.97 102.71 296.56 C 98.74 297.85 94.56 299.05 91.24 301.69 C 88.41 295.05 85.68 306.09 80.42 302.21 C 82.73 295.97 72.24 300.31 72.62 304.73 C 70.56 302.87 67.87 300.69 65.55 303.57 C 61.77 308.52 57.25 297.36 53.90 302.93 C 50.59 308.30 45.36 297.63 43.65 303.91 C 39.26 301.78 36.01 298.73 30.93 299.78 C 25.19 300.74 23.38 290.62 17.98 295.78 C 17.11 288.03 10.32 299.39 6.94 295.92 C 8.56 294.00 11.15 292.85 11.86 290.26 C 8.47 286.30 1.97 291.36 0.00 285.75 L 0.00 240.96 C 5.75 238.33 11.79 245.15 17.08 241.23 C 20.36 243.36 23.58 245.90 27.66 244.09 C 26.12 250.46 32.40 247.40 35.51 247.46 C 38.78 254.98 46.06 257.76 53.69 257.51 C 55.11 262.57 65.58 259.99 61.21 265.18 C 59.83 268.01 66.67 264.33 68.46 264.40 C 71.43 269.39 77.54 270.89 82.90 271.79 C 88.92 271.37 94.68 268.21 100.78 269.84 C 110.30 262.46 122.93 266.88 133.83 266.28 C 143.86 270.86 155.49 269.35 165.37 274.62 C 168.95 275.85 173.22 274.69 175.44 278.62 C 179.56 278.40 183.68 278.13 187.81 278.88 C 194.84 272.28 206.08 273.51 213.67 267.62 C 218.39 264.49 222.44 258.51 228.81 259.63 C 237.37 255.02 250.18 259.26 256.26 250.08 C 265.78 248.94 276.46 249.17 281.91 240.10 C 285.19 239.90 288.28 238.29 289.54 235.11 C 289.64 233.57 289.84 230.49 289.94 228.95 C 291.62 225.96 294.11 223.43 295.31 220.18 C 295.78 218.87 295.98 217.48 296.28 216.13 C 296.82 215.08 297.35 214.03 297.90 212.99 Z" />
</g>
<g id="#0000006b">
<path fill="#000000" opacity="0.42" d=" M 131.52 211.83 C 132.18 212.53 132.81 213.24 133.44 213.96 C 130.90 220.33 116.31 214.67 119.16 224.70 C 126.96 232.60 137.54 240.00 149.31 237.72 C 150.19 238.46 151.90 238.68 151.96 240.07 C 128.34 241.66 107.21 229.48 86.00 221.00 C 82.50 220.90 79.87 215.94 84.31 215.33 C 99.02 216.79 113.87 215.28 128.62 214.69 C 130.00 214.22 131.06 213.23 131.52 211.83 Z" />
</g>
<g id="#8b9098ff">
<path fill="#8b9098" opacity="1.00" d=" M 177.00 211.99 C 183.63 212.54 186.10 214.31 193.03 211.99 C 193.67 216.38 187.38 213.75 186.16 217.19 C 185.55 219.25 180.67 220.23 182.27 217.11 C 184.51 212.68 175.98 215.89 177.00 211.99 Z" />
</g>
<g id="#494d56fd">
<path fill="#494d56" opacity="1.00" d=" M 212.20 212.10 C 213.82 212.91 215.32 213.95 216.87 214.89 C 219.00 216.51 221.81 216.58 224.01 218.07 C 223.60 221.29 223.19 228.93 228.17 226.36 C 234.56 226.06 227.39 220.39 229.07 216.98 C 231.01 217.82 233.00 219.22 235.15 218.13 C 238.25 221.73 240.19 218.46 239.94 214.93 C 241.86 215.63 243.86 216.12 245.71 217.00 C 244.52 219.37 244.44 221.77 246.06 223.97 C 242.92 225.80 237.58 223.42 235.70 226.85 C 231.36 224.00 238.86 234.28 230.42 229.60 C 228.49 230.51 226.15 227.10 224.95 228.65 C 224.66 229.23 224.08 230.38 223.80 230.96 C 223.57 230.73 223.11 230.27 222.88 230.04 C 223.35 227.59 224.49 222.29 220.42 223.08 C 222.05 217.65 217.53 219.51 215.82 222.89 C 217.35 222.98 218.89 223.04 220.42 223.08 C 219.29 227.62 214.63 224.87 211.27 225.22 C 208.38 227.54 206.36 231.08 205.91 234.74 C 207.13 236.42 209.17 237.74 209.12 240.06 C 206.14 239.10 203.44 236.96 200.20 237.00 C 196.57 242.66 199.80 249.86 200.19 255.96 C 205.50 255.86 201.97 249.07 205.97 246.95 C 208.59 244.01 209.69 248.51 210.41 250.52 C 214.79 250.43 219.63 251.94 223.46 249.21 C 225.03 246.65 226.45 243.93 228.80 241.99 C 230.67 240.34 232.60 238.76 234.30 236.93 C 240.37 232.52 238.40 244.41 243.67 241.72 C 247.29 241.47 246.82 235.48 242.85 236.92 C 242.49 234.95 243.74 231.30 245.97 232.82 C 245.35 236.76 249.37 237.79 251.95 239.50 C 248.41 240.06 251.68 242.47 253.60 242.26 C 259.68 242.54 265.80 242.09 271.85 243.03 C 270.19 238.81 270.45 233.11 267.25 229.74 C 267.42 229.35 267.75 228.58 267.92 228.20 C 271.30 223.97 276.52 226.21 280.99 224.89 C 280.93 221.75 277.54 220.32 275.87 218.04 C 282.93 214.95 285.87 232.85 286.12 217.95 C 292.93 218.12 281.99 228.64 288.81 227.82 C 290.11 224.20 289.81 216.61 295.31 220.18 C 294.11 223.43 291.62 225.96 289.94 228.95 C 289.56 229.38 288.79 230.23 288.41 230.66 C 285.30 233.09 281.89 235.77 281.91 240.10 C 276.46 249.17 265.78 248.94 256.26 250.08 C 253.22 251.03 250.35 252.43 247.30 253.33 C 241.13 253.07 234.96 253.11 228.80 253.12 C 225.59 251.95 222.40 252.39 219.36 253.80 C 214.02 252.78 202.73 255.85 204.05 261.74 C 200.12 260.58 194.99 262.80 196.62 267.25 C 194.53 266.42 192.31 266.13 190.25 267.20 C 185.77 267.17 181.30 267.21 176.82 267.14 C 175.52 266.80 174.27 266.30 173.00 265.85 C 172.02 265.27 170.99 264.80 169.92 264.45 C 170.33 263.59 170.74 262.74 171.15 261.89 C 173.14 263.25 175.64 266.31 178.01 263.95 C 172.49 259.39 171.46 252.31 170.21 245.71 C 172.19 250.34 182.62 258.29 182.93 249.23 C 176.51 250.10 173.70 247.54 175.99 242.10 C 179.32 241.53 175.22 248.12 179.80 246.92 C 185.28 240.23 170.36 239.51 175.15 234.12 C 178.57 236.58 182.24 240.92 183.58 245.48 C 186.32 246.47 189.20 247.29 186.26 250.15 C 190.10 253.58 189.84 258.52 194.72 260.91 C 194.62 256.23 200.61 253.11 197.74 247.64 C 193.95 246.29 194.73 239.61 196.83 236.85 C 199.59 234.37 195.79 234.56 193.88 234.62 C 197.32 230.66 197.01 224.77 201.53 221.57 C 204.13 217.07 212.32 218.29 212.20 212.10 M 272.24 227.06 C 271.14 228.29 270.28 229.62 272.61 228.56 C 276.42 226.91 271.94 236.28 276.82 234.93 C 280.69 231.58 279.25 223.56 272.24 227.06 Z" />
</g>
<g id="#888a8fff">
<path fill="#888a8f" opacity="1.00" d=" M 220.92 212.84 C 222.24 212.41 223.57 212.07 224.92 211.73 C 225.76 214.09 226.68 216.88 224.01 218.07 C 221.81 216.58 219.00 216.51 216.87 214.89 C 218.22 214.21 219.58 213.55 220.92 212.84 Z" />
</g>
<g id="#6a6b77ff">
<path fill="#6a6b77" opacity="1.00" d=" M 233.16 212.13 C 236.19 211.89 241.15 210.42 239.94 214.93 C 240.19 218.46 238.25 221.73 235.15 218.13 C 233.63 216.37 231.28 214.54 233.16 212.13 Z" />
</g>
<g id="#0101017f">
<path fill="#010101" opacity="0.50" d=" M 133.44 213.96 C 135.58 223.48 140.28 232.61 149.31 237.72 C 137.54 240.00 126.96 232.60 119.16 224.70 C 116.31 214.67 130.90 220.33 133.44 213.96 Z" />
</g>
<g id="#0000002a">
<path fill="#000000" opacity="0.16" d=" M 0.00 218.19 C 36.13 224.51 73.10 227.24 108.13 238.80 C 122.45 243.45 137.88 243.79 151.99 248.91 L 152.79 249.26 C 153.54 253.59 155.76 257.40 158.02 261.10 C 154.38 259.51 152.35 255.28 147.94 255.21 C 124.21 249.11 100.51 242.82 76.66 237.29 C 65.24 231.97 52.31 232.94 40.31 229.80 C 26.81 228.64 13.55 225.58 0.00 224.89 L 0.00 218.19 Z" />
</g>
<g id="#3c414bff">
<path fill="#3c414b" opacity="1.00" d=" M 251.10 221.73 C 249.66 214.10 255.40 222.76 259.59 222.17 C 260.01 225.98 268.76 226.94 262.79 229.67 C 261.01 229.26 258.15 221.21 257.86 227.85 C 254.22 223.95 256.52 230.00 258.98 231.03 C 255.62 229.44 253.08 231.13 254.50 234.79 C 250.77 233.94 248.32 239.38 255.58 237.50 C 261.27 239.51 265.07 234.26 267.25 229.74 C 270.45 233.11 270.19 238.81 271.85 243.03 C 265.80 242.09 259.68 242.54 253.60 242.26 C 251.68 242.47 248.41 240.06 251.95 239.50 C 249.37 237.79 245.35 236.76 245.97 232.82 C 249.75 239.73 259.55 219.72 251.10 221.73 Z" />
</g>
<g id="#5c6053ff">
<path fill="#5c6053" opacity="1.00" d=" M 170.97 238.57 C 160.57 242.11 149.74 224.55 158.77 218.72 C 162.60 218.57 166.30 218.99 169.84 219.98 C 165.10 219.18 164.44 226.10 167.06 228.77 C 171.15 232.54 163.90 239.03 170.97 238.57 Z" />
</g>
<g id="#7b7c86ff">
<path fill="#7b7c86" opacity="1.00" d=" M 215.82 222.89 C 217.53 219.51 222.05 217.65 220.42 223.08 C 218.89 223.04 217.35 222.98 215.82 222.89 Z" />
</g>
<g id="#90909cff">
<path fill="#90909c" opacity="1.00" d=" M 167.06 228.77 C 164.44 226.10 165.10 219.18 169.84 219.98 C 170.17 220.24 170.83 220.77 171.16 221.03 C 175.19 223.02 177.16 229.15 172.71 231.83 C 169.66 232.99 170.12 228.35 167.06 228.77 Z" />
</g>
<g id="#7f8679ff">
<path fill="#7f8679" opacity="1.00" d=" M 220.42 223.08 C 224.49 222.29 223.35 227.59 222.88 230.04 C 220.23 229.77 216.68 228.15 216.00 231.89 C 213.10 223.70 208.87 235.75 213.87 237.24 C 210.90 242.48 210.28 232.97 205.91 234.74 C 206.36 231.08 208.38 227.54 211.27 225.22 C 214.63 224.87 219.29 227.62 220.42 223.08 Z" />
</g>
<g id="#0000001e">
<path fill="#000000" opacity="0.12" d=" M 0.00 224.89 C 13.55 225.58 26.81 228.64 40.31 229.80 C 52.31 232.94 65.24 231.97 76.66 237.29 C 100.51 242.82 124.21 249.11 147.94 255.21 C 152.35 255.28 154.38 259.51 158.02 261.10 C 160.68 262.52 163.24 264.14 165.95 265.47 C 168.30 266.51 170.65 266.64 173.00 265.85 C 174.27 266.30 175.52 266.80 176.82 267.14 C 181.17 267.99 185.98 268.91 190.25 267.20 C 192.31 266.13 194.53 266.42 196.62 267.25 C 197.18 267.48 198.29 267.93 198.84 268.16 C 201.58 268.86 204.60 269.59 207.27 268.31 C 209.32 267.52 211.27 266.48 213.10 265.27 C 217.17 262.81 218.08 257.98 219.36 253.80 C 222.40 252.39 225.59 251.95 228.80 253.12 C 234.82 254.01 241.31 255.01 247.30 253.33 C 250.35 252.43 253.22 251.03 256.26 250.08 C 250.18 259.26 237.37 255.02 228.81 259.63 C 222.44 258.51 218.39 264.49 213.67 267.62 C 206.08 273.51 194.84 272.28 187.81 278.88 C 183.68 278.13 179.56 278.40 175.44 278.62 C 173.22 274.69 168.95 275.85 165.37 274.62 C 155.49 269.35 143.86 270.86 133.83 266.28 C 122.93 266.88 110.30 262.46 100.78 269.84 C 94.68 268.21 88.92 271.37 82.90 271.79 C 77.54 270.89 71.43 269.39 68.46 264.40 C 66.67 264.33 59.83 268.01 61.21 265.18 C 65.58 259.99 55.11 262.57 53.69 257.51 C 46.06 257.76 38.78 254.98 35.51 247.46 C 32.40 247.40 26.12 250.46 27.66 244.09 C 23.58 245.90 20.36 243.36 17.08 241.23 C 11.79 245.15 5.75 238.33 0.00 240.96 L 0.00 224.89 Z" />
</g>
<g id="#646871ff">
<path fill="#646871" opacity="1.00" d=" M 230.42 229.60 C 238.86 234.28 231.36 224.00 235.70 226.85 C 239.59 229.23 244.17 225.99 248.32 227.05 C 243.91 227.54 237.23 234.47 242.85 236.92 C 246.82 235.48 247.29 241.47 243.67 241.72 C 238.40 244.41 240.37 232.52 234.30 236.93 C 234.49 229.86 225.35 235.30 224.95 228.65 C 226.15 227.10 228.49 230.51 230.42 229.60 Z" />
</g>
<g id="#838595ff">
<path fill="#838595" opacity="1.00" d=" M 272.24 227.06 C 279.25 223.56 280.69 231.58 276.82 234.93 C 271.94 236.28 276.42 226.91 272.61 228.56 C 270.28 229.62 271.14 228.29 272.24 227.06 Z" />
</g>
<g id="#a9aea8ff">
<path fill="#a9aea8" opacity="1.00" d=" M 213.87 237.24 C 208.87 235.75 213.10 223.70 216.00 231.89 C 215.27 233.67 214.70 235.50 213.87 237.24 Z" />
</g>
<g id="#676d76ff">
<path fill="#676d76" opacity="1.00" d=" M 216.00 231.89 C 216.68 228.15 220.23 229.77 222.88 230.04 C 223.11 230.27 223.57 230.73 223.80 230.96 C 218.92 231.35 215.91 237.14 215.96 242.01 C 219.74 243.28 221.64 239.97 219.39 237.04 C 224.44 230.44 223.67 243.45 228.80 241.99 C 226.45 243.93 225.03 246.65 223.46 249.21 C 219.63 251.94 214.79 250.43 210.41 250.52 C 209.69 248.51 208.59 244.01 205.97 246.95 C 201.97 249.07 205.50 255.86 200.19 255.96 C 199.80 249.86 196.57 242.66 200.20 237.00 C 203.44 236.96 206.14 239.10 209.12 240.06 C 209.17 237.74 207.13 236.42 205.91 234.74 C 210.28 232.97 210.90 242.48 213.87 237.24 C 214.70 235.50 215.27 233.67 216.00 231.89 Z" />
</g>
<g id="#7c8180ff">
<path fill="#7c8180" opacity="1.00" d=" M 223.80 230.96 C 224.08 230.38 224.66 229.23 224.95 228.65 C 225.35 235.30 234.49 229.86 234.30 236.93 C 232.60 238.76 230.67 240.34 228.80 241.99 C 223.67 243.45 224.44 230.44 219.39 237.04 C 221.64 239.97 219.74 243.28 215.96 242.01 C 215.91 237.14 218.92 231.35 223.80 230.96 Z" />
</g>
<g id="#3535398c">
<path fill="#353539" opacity="0.55" d=" M 288.41 230.66 C 288.79 230.23 289.56 229.38 289.94 228.95 C 289.84 230.49 289.64 233.57 289.54 235.11 C 288.84 233.70 288.47 232.21 288.41 230.66 Z" />
</g>
<g id="#767b81f4">
<path fill="#767b81" opacity="0.96" d=" M 281.91 240.10 C 281.89 235.77 285.30 233.09 288.41 230.66 C 288.47 232.21 288.84 233.70 289.54 235.11 C 288.28 238.29 285.19 239.90 281.91 240.10 Z" />
</g>
<g id="#545b49fd">
<path fill="#545b49" opacity="1.00" d=" M 153.13 236.84 C 158.18 239.26 167.93 238.53 168.93 244.64 C 163.79 246.59 164.10 253.78 168.62 256.37 C 170.48 257.66 171.13 259.69 171.15 261.89 C 170.74 262.74 170.33 263.59 169.92 264.45 C 168.58 264.72 167.26 265.06 165.95 265.47 C 163.24 264.14 160.68 262.52 158.02 261.10 C 155.76 257.40 153.54 253.59 152.79 249.26 C 152.87 245.11 152.98 240.98 153.13 236.84 Z" />
</g>
<g id="#727965ff">
<path fill="#727965" opacity="1.00" d=" M 168.62 256.37 C 164.10 253.78 163.79 246.59 168.93 244.64 C 169.25 244.91 169.89 245.44 170.21 245.71 C 171.46 252.31 172.49 259.39 178.01 263.95 C 175.64 266.31 173.14 263.25 171.15 261.89 C 171.13 259.69 170.48 257.66 168.62 256.37 Z" />
</g>
<g id="#8f919efc">
<path fill="#8f919e" opacity="1.00" d=" M 204.05 261.74 C 202.73 255.85 214.02 252.78 219.36 253.80 C 218.08 257.98 217.17 262.81 213.10 265.27 C 209.61 265.49 206.96 263.22 204.05 261.74 Z" />
</g>
<g id="#26262ec4">
<path fill="#26262e" opacity="0.77" d=" M 228.80 253.12 C 234.96 253.11 241.13 253.07 247.30 253.33 C 241.31 255.01 234.82 254.01 228.80 253.12 Z" />
</g>
<g id="#58603cfa">
<path fill="#58603c" opacity="0.98" d=" M 196.62 267.25 C 194.99 262.80 200.12 260.58 204.05 261.74 C 206.96 263.22 209.61 265.49 213.10 265.27 C 211.27 266.48 209.32 267.52 207.27 268.31 C 204.46 268.29 201.65 268.24 198.84 268.16 C 198.29 267.93 197.18 267.48 196.62 267.25 Z" />
</g>
<g id="#1b1c1e92">
<path fill="#1b1c1e" opacity="0.57" d=" M 165.95 265.47 C 167.26 265.06 168.58 264.72 169.92 264.45 C 170.99 264.80 172.02 265.27 173.00 265.85 C 170.65 266.64 168.30 266.51 165.95 265.47 Z" />
</g>
<g id="#15171b9c">
<path fill="#15171b" opacity="0.61" d=" M 176.82 267.14 C 181.30 267.21 185.77 267.17 190.25 267.20 C 185.98 268.91 181.17 267.99 176.82 267.14 Z" />
</g>
<g id="#252916a1">
<path fill="#252916" opacity="0.63" d=" M 198.84 268.16 C 201.65 268.24 204.46 268.29 207.27 268.31 C 204.60 269.59 201.58 268.86 198.84 268.16 Z" />
</g>
</svg>
