<?xml version="1.0" encoding="UTF-8" ?>
<!DOCTYPE svg PUBLIC "-//W3C//DTD SVG 1.1//EN" "http://www.w3.org/Graphics/SVG/1.1/DTD/svg11.dtd">
<svg width="384pt" height="384pt" viewBox="0 0 384 384" version="1.1" xmlns="http://www.w3.org/2000/svg">
<g id="#0000000f">
<path fill="#000000" opacity="0.06" d=" M 0.00 0.00 L 104.31 0.00 C 101.50 2.92 98.54 5.71 95.94 8.83 C 101.32 8.11 106.91 10.79 112.05 8.37 C 120.68 13.32 130.91 10.44 140.10 12.41 C 148.01 17.84 160.76 11.61 166.22 21.79 C 167.52 26.68 173.58 21.97 174.94 26.04 C 178.70 34.11 191.19 27.62 196.96 31.90 C 193.57 31.73 190.63 32.91 187.78 34.47 C 184.97 33.38 181.33 32.07 179.88 35.80 C 179.92 40.57 176.55 44.13 171.94 44.17 L 171.18 43.76 L 170.83 43.12 C 166.72 35.65 158.45 49.16 156.12 40.15 C 159.59 37.22 159.59 33.53 154.31 33.62 C 157.26 26.65 147.47 28.73 143.26 26.66 C 130.35 18.63 114.98 24.76 101.12 20.26 C 96.29 23.55 90.27 19.58 85.55 22.49 C 80.70 26.90 73.58 22.44 69.74 28.61 C 63.64 25.54 59.74 34.65 54.19 31.21 C 48.56 35.39 41.95 37.41 35.45 39.57 C 32.32 40.35 28.43 37.82 26.57 41.65 C 21.46 41.18 16.32 41.68 11.21 41.21 C 9.18 43.35 9.19 46.56 7.85 49.10 C 5.08 47.91 3.11 45.28 0.00 44.63 L 0.00 0.00 Z" />
</g>
<g id="#00000015">
<path fill="#000000" opacity="0.08" d=" M 85.55 22.49 C 90.27 19.58 96.29 23.55 101.12 20.26 C 114.98 24.76 130.35 18.63 143.26 26.66 C 147.47 28.73 157.26 26.65 154.31 33.62 C 159.59 33.53 159.59 37.22 156.12 40.15 C 158.45 49.16 166.72 35.65 170.83 43.12 C 168.25 41.91 165.96 42.12 163.96 43.74 C 161.47 45.12 158.82 46.82 158.53 49.95 C 157.69 54.05 154.82 57.05 151.80 59.74 C 149.75 60.64 147.60 61.44 145.88 62.91 C 145.62 63.16 145.10 63.66 144.84 63.91 C 144.49 64.34 143.80 65.22 143.46 65.65 C 140.83 69.90 145.56 79.03 139.27 80.84 C 137.05 75.06 131.05 74.88 126.95 70.86 C 126.95 68.50 130.53 67.94 129.71 65.33 C 128.70 58.78 131.06 51.68 127.27 45.69 C 130.06 46.02 136.32 51.19 132.73 43.35 C 130.59 39.94 124.62 34.14 122.83 40.76 C 116.91 35.04 109.09 37.76 102.60 36.51 C 96.20 36.28 89.78 41.97 84.49 36.72 C 85.91 40.46 81.42 40.21 79.55 42.36 C 71.05 43.13 63.25 47.89 54.68 47.72 C 49.26 49.18 45.07 54.62 39.08 53.64 C 30.53 55.78 25.70 65.27 16.35 65.47 C 10.36 68.72 5.97 74.29 0.00 77.55 L 0.00 44.63 C 3.11 45.28 5.08 47.91 7.85 49.10 C 9.19 46.56 9.18 43.35 11.21 41.21 C 16.32 41.68 21.46 41.18 26.57 41.65 C 28.43 37.82 32.32 40.35 35.45 39.57 C 41.95 37.41 48.56 35.39 54.19 31.21 C 59.74 34.65 63.64 25.54 69.74 28.61 C 73.58 22.44 80.70 26.90 85.55 22.49 Z" />
</g>
<g id="#444953fe">
<path fill="#444953" opacity="1.00" d=" M 187.78 34.47 C 190.63 32.91 193.57 31.73 196.96 31.90 C 198.53 38.54 202.26 32.13 206.15 33.51 C 203.13 33.36 205.09 35.43 205.76 36.92 C 202.09 37.79 197.41 37.57 197.70 42.43 C 193.47 42.46 188.10 41.31 184.88 44.59 C 187.58 45.19 190.33 45.80 192.72 47.27 C 192.30 49.87 192.72 52.37 193.93 54.71 C 190.13 54.16 188.02 57.16 185.20 58.78 C 179.30 55.66 179.58 62.23 182.93 65.14 C 177.29 59.67 175.09 70.07 177.70 73.47 C 181.02 72.87 184.37 77.99 179.75 78.32 C 174.15 78.03 176.67 88.74 181.41 86.47 C 184.87 85.75 180.24 82.45 181.13 80.25 C 183.90 76.78 187.74 74.52 191.76 72.83 C 190.70 77.53 187.53 81.34 186.02 85.80 C 187.85 87.03 189.74 87.13 191.06 85.19 C 189.33 93.24 197.85 100.32 205.29 100.75 C 200.72 101.60 196.28 108.75 192.14 103.87 C 189.79 101.44 187.32 104.34 185.38 105.73 C 185.16 100.94 177.02 96.65 175.91 102.96 C 171.47 109.35 174.76 117.23 178.84 122.96 C 176.89 124.19 174.44 121.48 172.17 123.11 C 170.85 126.47 175.86 125.07 178.02 125.92 C 174.26 127.47 176.76 131.74 173.58 133.62 C 170.71 135.08 173.61 140.08 176.36 138.46 C 180.67 137.03 177.15 144.05 176.01 145.89 C 178.04 147.38 180.60 147.63 182.91 148.43 C 189.39 155.02 179.95 164.05 182.83 171.81 C 179.26 173.89 179.94 178.66 183.91 174.94 C 188.91 181.31 180.51 186.26 181.72 192.27 C 182.64 193.92 186.48 193.44 185.50 195.88 C 180.94 191.98 174.41 196.08 178.87 201.21 C 174.19 201.78 171.09 192.63 173.25 203.89 C 171.53 205.81 170.06 208.92 166.51 206.85 C 165.61 205.21 166.03 201.07 163.22 202.12 C 159.50 205.62 168.16 209.19 162.65 212.75 C 157.59 212.96 156.36 219.91 150.86 217.10 C 151.51 220.19 155.44 225.25 150.05 225.97 C 147.34 222.96 149.80 217.23 145.49 215.68 C 148.49 220.77 136.95 222.65 141.20 215.54 C 146.02 215.29 142.51 210.94 142.17 208.20 C 144.24 205.55 145.96 202.52 146.08 199.06 C 143.20 199.66 138.77 200.10 139.33 195.77 C 139.51 193.53 135.24 194.62 136.10 192.03 C 136.69 184.81 150.93 188.18 148.13 180.00 C 148.40 177.31 153.75 181.91 154.72 178.68 C 157.35 175.72 152.51 173.19 152.90 170.01 C 156.87 168.68 158.15 172.39 159.86 175.07 C 163.02 168.35 154.32 163.73 152.21 157.77 C 155.58 163.68 144.44 167.51 144.26 160.83 C 144.02 155.66 138.42 155.18 135.80 158.94 C 131.85 154.34 126.75 160.88 126.59 165.15 C 124.94 161.37 128.28 158.00 129.84 154.79 C 134.65 154.00 132.13 149.29 135.39 147.34 C 137.39 149.54 140.57 146.34 143.21 147.51 C 143.44 143.89 137.01 143.38 139.34 139.34 C 140.47 133.39 146.56 134.83 147.60 129.44 C 152.09 126.66 155.94 122.37 152.86 117.06 C 150.80 117.43 148.81 118.13 146.84 118.83 C 147.62 115.93 149.28 111.90 145.66 110.24 C 141.31 109.84 136.38 120.80 144.06 120.26 C 139.35 124.56 137.81 117.64 133.25 117.60 C 132.93 116.03 132.86 114.42 132.78 112.83 C 133.43 110.82 134.39 108.93 135.21 106.99 C 142.30 102.69 140.02 94.51 143.11 88.10 C 143.80 87.46 144.47 86.79 145.12 86.10 C 146.54 81.99 146.51 76.98 145.31 72.66 C 145.20 72.26 145.00 71.45 144.90 71.05 C 144.88 69.26 144.85 65.69 144.84 63.91 C 145.10 63.66 145.62 63.16 145.88 62.91 C 147.57 64.38 148.98 66.13 150.39 67.88 C 154.64 65.27 160.80 58.25 151.80 59.74 C 154.82 57.05 157.69 54.05 158.53 49.95 C 162.51 53.56 166.64 49.64 170.78 48.68 C 173.12 47.91 175.35 45.30 171.94 44.17 C 176.55 44.13 179.92 40.57 179.88 35.80 C 181.33 32.07 184.97 33.38 187.78 34.47 M 159.21 68.15 C 158.56 69.49 157.46 71.19 159.78 71.38 C 161.12 74.03 158.07 75.28 157.73 77.65 C 150.64 75.36 160.29 86.02 162.90 79.78 C 161.70 76.14 163.50 68.43 159.21 68.15 M 168.24 74.17 C 165.01 76.07 171.34 80.04 172.97 76.86 C 172.23 75.06 170.33 73.29 168.24 74.17 M 153.41 82.46 C 151.73 84.12 148.81 82.35 148.09 85.16 C 146.12 87.01 149.11 92.68 150.35 88.33 C 151.05 83.28 153.73 90.99 156.69 88.70 C 161.10 88.70 156.47 79.85 153.41 82.46 M 171.96 89.95 C 173.23 93.77 177.12 94.82 179.31 97.78 C 180.61 98.02 183.19 98.57 181.22 96.74 C 178.33 94.12 176.64 88.90 171.96 89.95 M 165.96 92.98 C 165.74 96.30 170.72 95.65 173.06 96.02 C 173.63 92.27 168.25 92.20 165.96 92.98 M 155.29 95.27 C 147.18 98.34 156.71 103.04 161.31 99.28 C 165.38 96.59 157.59 94.50 155.29 95.27 M 160.06 110.06 C 153.73 111.81 154.79 122.97 161.85 122.07 C 169.38 128.39 175.16 108.48 165.91 109.80 C 165.77 107.72 161.67 109.66 160.06 110.06 M 165.29 132.28 C 162.61 133.10 161.33 135.79 160.01 138.01 C 160.57 141.42 164.65 139.42 166.68 138.65 C 170.07 137.44 169.79 129.69 165.29 132.28 M 159.17 151.33 C 154.67 152.06 155.29 157.74 159.95 157.32 C 156.59 164.84 168.04 158.21 166.96 154.18 C 164.62 152.68 161.70 152.47 159.17 151.33 M 179.29 154.26 C 173.79 155.16 172.40 166.09 180.71 161.83 C 184.36 160.20 184.10 152.34 179.29 154.26 M 173.23 180.17 C 168.27 182.29 173.97 190.79 177.69 186.70 C 181.32 184.18 176.75 179.40 173.23 180.17 M 154.28 193.28 C 150.63 194.84 147.36 207.60 154.31 203.31 C 157.14 201.23 158.72 191.89 154.28 193.28 M 168.22 193.15 C 165.67 194.56 168.12 197.33 169.19 198.93 C 174.55 200.39 173.85 190.22 168.22 193.15 Z" />
</g>
<g id="#606367fd">
<path fill="#606367" opacity="1.00" d=" M 205.76 36.92 C 205.09 35.43 203.13 33.36 206.15 33.51 C 207.52 35.05 208.13 37.08 209.27 38.78 C 213.09 39.27 217.89 38.22 219.51 42.66 C 219.13 44.85 218.70 47.04 218.17 49.20 C 214.97 48.32 208.22 41.85 210.88 51.04 C 208.20 48.61 204.38 47.40 200.98 49.15 C 202.10 52.37 204.11 55.19 205.84 58.10 C 203.50 59.37 194.52 58.30 198.09 62.86 C 199.64 66.32 207.96 65.62 207.48 61.00 C 206.75 54.73 214.33 54.35 217.81 51.07 C 218.98 53.82 221.85 52.52 224.02 52.03 C 228.11 50.87 234.43 54.84 232.37 59.24 C 225.34 57.07 220.76 61.48 215.70 64.68 C 210.84 63.13 206.53 66.06 203.95 70.07 C 200.46 75.87 193.44 78.74 191.06 85.19 C 189.74 87.13 187.85 87.03 186.02 85.80 C 187.53 81.34 190.70 77.53 191.76 72.83 C 187.74 74.52 183.90 76.78 181.13 80.25 C 180.24 82.45 184.87 85.75 181.41 86.47 C 176.67 88.74 174.15 78.03 179.75 78.32 C 184.37 77.99 181.02 72.87 177.70 73.47 C 175.09 70.07 177.29 59.67 182.93 65.14 C 179.58 62.23 179.30 55.66 185.20 58.78 C 181.01 58.33 182.96 65.90 186.76 63.87 C 189.58 62.37 186.47 60.10 185.20 58.78 C 188.02 57.16 190.13 54.16 193.93 54.71 C 192.72 52.37 192.30 49.87 192.72 47.27 C 190.33 45.80 187.58 45.19 184.88 44.59 C 188.10 41.31 193.47 42.46 197.70 42.43 C 197.41 37.57 202.09 37.79 205.76 36.92 Z" />
</g>
<g id="#0000001b">
<path fill="#000000" opacity="0.11" d=" M 102.60 36.51 C 109.09 37.76 116.91 35.04 122.83 40.76 C 124.62 34.14 130.59 39.94 132.73 43.35 C 136.32 51.19 130.06 46.02 127.27 45.69 C 131.06 51.68 128.70 58.78 129.71 65.33 C 130.53 67.94 126.95 68.50 126.95 70.86 C 131.05 74.88 137.05 75.06 139.27 80.84 C 145.56 79.03 140.83 69.90 143.46 65.65 C 143.36 67.55 143.75 69.49 144.90 71.05 C 145.00 71.45 145.20 72.26 145.31 72.66 C 145.22 77.14 145.19 81.62 145.12 86.10 C 144.47 86.79 143.80 87.46 143.11 88.10 C 140.33 90.53 138.52 93.78 136.69 96.92 C 129.99 96.40 124.54 92.74 120.19 87.77 C 118.00 85.17 113.91 91.69 113.19 86.86 C 111.41 81.60 105.82 79.62 101.18 77.74 C 98.56 74.85 102.42 73.46 103.84 71.82 C 103.38 67.49 96.18 72.92 94.75 69.20 C 91.92 64.40 85.39 69.99 81.32 66.85 C 83.62 56.75 77.93 63.60 74.18 64.79 C 71.92 62.35 69.20 62.87 67.55 65.62 C 57.11 63.12 47.18 71.06 37.47 74.53 C 33.61 79.26 28.18 82.16 22.81 84.83 C 16.78 90.19 10.90 95.94 4.56 100.45 C 4.08 103.14 2.45 105.18 0.00 106.36 L 0.00 77.55 C 5.97 74.29 10.36 68.72 16.35 65.47 C 25.70 65.27 30.53 55.78 39.08 53.64 C 45.07 54.62 49.26 49.18 54.68 47.72 C 63.25 47.89 71.05 43.13 79.55 42.36 C 81.42 40.21 85.91 40.46 84.49 36.72 C 89.78 41.97 96.20 36.28 102.60 36.51 Z" />
</g>
<g id="#2528309b">
<path fill="#252830" opacity="0.61" d=" M 163.96 43.74 C 165.96 42.12 168.25 41.91 170.83 43.12 L 171.18 43.76 C 169.37 43.75 165.77 43.75 163.96 43.74 Z" />
</g>
<g id="#3e3c42e5">
<path fill="#3e3c42" opacity="0.90" d=" M 219.51 42.66 C 221.74 45.44 221.61 49.40 224.02 52.03 C 221.85 52.52 218.98 53.82 217.81 51.07 C 217.90 50.60 218.08 49.67 218.17 49.20 C 218.70 47.04 219.13 44.85 219.51 42.66 Z" />
</g>
<g id="#676d84fa">
<path fill="#676d84" opacity="0.98" d=" M 158.53 49.95 C 158.82 46.82 161.47 45.12 163.96 43.74 C 165.77 43.75 169.37 43.75 171.18 43.76 L 171.94 44.17 C 175.35 45.30 173.12 47.91 170.78 48.68 C 166.64 49.64 162.51 53.56 158.53 49.95 Z" />
</g>
<g id="#8d9291ff">
<path fill="#8d9291" opacity="1.00" d=" M 210.88 51.04 C 208.22 41.85 214.97 48.32 218.17 49.20 C 218.08 49.67 217.90 50.60 217.81 51.07 C 214.33 54.35 206.75 54.73 207.48 61.00 C 207.96 65.62 199.64 66.32 198.09 62.86 C 194.52 58.30 203.50 59.37 205.84 58.10 C 204.11 55.19 202.10 52.37 200.98 49.15 C 204.38 47.40 208.20 48.61 210.88 51.04 Z" />
</g>
<g id="#929893ff">
<path fill="#929893" opacity="1.00" d=" M 186.76 63.87 C 182.96 65.90 181.01 58.33 185.20 58.78 C 186.47 60.10 189.58 62.37 186.76 63.87 Z" />
</g>
<g id="#333336f1">
<path fill="#333336" opacity="0.95" d=" M 215.70 64.68 C 220.76 61.48 225.34 57.07 232.37 59.24 C 229.28 65.41 220.16 62.52 216.03 67.92 C 212.17 69.41 208.05 69.81 203.95 70.07 C 206.53 66.06 210.84 63.13 215.70 64.68 Z" />
</g>
<g id="#515f71fb">
<path fill="#515f71" opacity="1.00" d=" M 145.88 62.91 C 147.60 61.44 149.75 60.64 151.80 59.74 C 160.80 58.25 154.64 65.27 150.39 67.88 C 148.98 66.13 147.57 64.38 145.88 62.91 Z" />
</g>
<g id="#00000022">
<path fill="#000000" opacity="0.13" d=" M 74.18 64.79 C 77.93 63.60 83.62 56.75 81.32 66.85 C 85.39 69.99 91.92 64.40 94.75 69.20 C 96.18 72.92 103.38 67.49 103.84 71.82 C 102.42 73.46 98.56 74.85 101.18 77.74 C 105.82 79.62 111.41 81.60 113.19 86.86 C 113.91 91.69 118.00 85.17 120.19 87.77 C 124.54 92.74 129.99 96.40 136.69 96.92 C 138.52 93.78 140.33 90.53 143.11 88.10 C 140.02 94.51 142.30 102.69 135.21 106.99 C 130.61 107.20 130.72 114.87 124.95 111.92 C 119.28 112.09 113.81 109.40 108.17 110.90 C 104.15 105.22 96.54 112.81 90.90 109.56 C 87.58 111.70 84.23 108.69 80.66 109.68 C 69.84 115.61 58.61 120.21 48.54 127.46 C 32.54 128.67 16.23 133.35 0.00 130.85 L 0.00 106.36 C 2.45 105.18 4.08 103.14 4.56 100.45 C 10.90 95.94 16.78 90.19 22.81 84.83 C 28.18 82.16 33.61 79.26 37.47 74.53 C 47.18 71.06 57.11 63.12 67.55 65.62 C 69.20 62.87 71.92 62.35 74.18 64.79 Z" />
</g>
<g id="#1a1d1f91">
<path fill="#1a1d1f" opacity="0.57" d=" M 143.46 65.65 C 143.80 65.22 144.49 64.34 144.84 63.91 C 144.85 65.69 144.88 69.26 144.90 71.05 C 143.75 69.49 143.36 67.55 143.46 65.65 Z" />
</g>
<g id="#292c33ff">
<path fill="#292c33" opacity="1.00" d=" M 159.21 68.15 C 163.50 68.43 161.70 76.14 162.90 79.78 C 160.29 86.02 150.64 75.36 157.73 77.65 C 158.07 75.28 161.12 74.03 159.78 71.38 C 157.46 71.19 158.56 69.49 159.21 68.15 Z" />
</g>
<g id="#0101011a">
<path fill="#010101" opacity="0.10" d=" M 203.95 70.07 C 208.05 69.81 212.17 69.41 216.03 67.92 C 215.61 73.81 207.69 69.58 205.70 72.77 C 200.97 78.69 212.90 75.69 214.82 80.13 C 217.22 84.09 223.09 81.70 224.78 86.25 C 231.47 93.00 241.14 100.18 238.20 111.03 C 239.40 115.14 243.84 118.47 242.51 123.42 C 245.14 124.80 245.36 127.28 243.17 129.22 C 246.14 134.75 247.80 142.09 253.71 145.38 C 255.09 148.74 254.26 152.70 257.51 155.14 C 254.57 164.05 264.79 163.49 267.58 169.24 C 267.11 171.79 267.83 174.15 269.67 176.00 C 272.27 171.95 270.35 166.54 273.88 162.86 C 276.64 160.25 275.90 154.99 279.96 153.80 C 276.75 160.69 273.84 167.69 273.44 175.40 C 270.05 188.94 250.98 193.30 250.75 207.98 C 243.93 206.55 235.30 204.79 231.13 199.02 L 230.77 198.32 C 230.84 197.48 230.98 195.81 231.05 194.97 C 231.51 194.68 232.41 194.10 232.87 193.81 C 236.99 193.80 241.11 193.81 245.24 193.84 C 252.57 193.82 259.60 188.70 264.67 183.68 C 270.95 170.79 251.08 166.25 242.21 165.05 L 241.32 164.90 C 238.26 164.38 235.21 164.08 232.13 163.93 C 231.91 163.76 231.46 163.43 231.24 163.26 C 231.49 152.04 225.64 141.66 217.16 134.62 C 213.84 130.09 209.90 125.23 213.07 119.30 C 214.18 115.81 214.25 112.30 213.29 108.76 C 213.04 108.22 212.55 107.14 212.30 106.60 C 210.60 104.09 208.63 100.91 205.29 100.75 C 197.85 100.32 189.33 93.24 191.06 85.19 C 193.44 78.74 200.46 75.87 203.95 70.07 Z" />
</g>
<g id="#1d1d1f9e">
<path fill="#1d1d1f" opacity="0.62" d=" M 145.31 72.66 C 146.51 76.98 146.54 81.99 145.12 86.10 C 145.19 81.62 145.22 77.14 145.31 72.66 Z" />
</g>
<g id="#6e7179ff">
<path fill="#6e7179" opacity="1.00" d=" M 168.24 74.17 C 170.33 73.29 172.23 75.06 172.97 76.86 C 171.34 80.04 165.01 76.07 168.24 74.17 Z" />
</g>
<g id="#25272fff">
<path fill="#25272f" opacity="1.00" d=" M 153.41 82.46 C 156.47 79.85 161.10 88.70 156.69 88.70 C 153.73 90.99 151.05 83.28 150.35 88.33 C 149.11 92.68 146.12 87.01 148.09 85.16 C 148.81 82.35 151.73 84.12 153.41 82.46 Z" />
</g>
<g id="#6a716aff">
<path fill="#6a716a" opacity="1.00" d=" M 171.96 89.95 C 176.64 88.90 178.33 94.12 181.22 96.74 C 183.19 98.57 180.61 98.02 179.31 97.78 C 177.12 94.82 173.23 93.77 171.96 89.95 Z" />
</g>
<g id="#797c8fff">
<path fill="#797c8f" opacity="1.00" d=" M 165.96 92.98 C 168.25 92.20 173.63 92.27 173.06 96.02 C 170.72 95.65 165.74 96.30 165.96 92.98 Z" />
</g>
<g id="#72778aff">
<path fill="#72778a" opacity="1.00" d=" M 155.29 95.27 C 157.59 94.50 165.38 96.59 161.31 99.28 C 156.71 103.04 147.18 98.34 155.29 95.27 Z" />
</g>
<g id="#60666dff">
<path fill="#60666d" opacity="1.00" d=" M 175.91 102.96 C 177.02 96.65 185.16 100.94 185.38 105.73 C 187.32 104.34 189.79 101.44 192.14 103.87 C 196.28 108.75 200.72 101.60 205.29 100.75 C 208.63 100.91 210.60 104.09 212.30 106.60 C 204.90 101.66 201.27 114.06 206.80 116.93 C 207.70 117.68 208.59 118.45 209.47 119.23 C 209.38 122.32 206.23 122.94 204.08 124.29 C 203.47 126.40 205.86 127.35 206.85 128.84 C 202.11 129.76 200.76 135.58 196.48 137.56 C 193.70 138.51 196.98 140.03 198.04 140.95 C 195.85 141.98 196.29 144.25 196.53 146.23 C 193.05 146.03 193.24 140.35 188.98 141.96 C 189.08 144.25 189.65 146.48 189.94 148.75 C 187.60 148.56 185.26 148.39 182.91 148.43 C 180.60 147.63 178.04 147.38 176.01 145.89 C 177.15 144.05 180.67 137.03 176.36 138.46 C 173.61 140.08 170.71 135.08 173.58 133.62 C 176.76 131.74 174.26 127.47 178.02 125.92 C 175.86 125.07 170.85 126.47 172.17 123.11 C 174.44 121.48 176.89 124.19 178.84 122.96 C 174.76 117.23 171.47 109.35 175.91 102.96 M 181.22 108.11 C 178.26 110.38 178.54 119.22 185.02 114.99 C 186.44 112.58 184.34 107.62 181.22 108.11 M 196.33 108.18 C 195.32 110.59 194.22 113.48 191.07 113.30 C 189.48 117.99 196.77 115.26 195.96 120.01 C 195.58 124.10 201.02 121.35 199.56 118.35 C 198.00 115.24 201.21 107.73 196.33 108.18 M 186.02 117.00 C 188.87 120.52 184.70 128.76 191.61 127.53 C 194.66 123.32 198.00 131.23 198.89 125.09 C 195.81 124.50 192.26 123.45 192.76 119.09 C 188.86 121.30 190.67 115.00 186.02 117.00 Z" />
</g>
<g id="#969aabfe">
<path fill="#969aab" opacity="1.00" d=" M 206.80 116.93 C 201.27 114.06 204.90 101.66 212.30 106.60 C 212.55 107.14 213.04 108.22 213.29 108.76 C 213.21 112.27 213.14 115.79 213.07 119.30 C 212.14 119.44 211.17 119.78 210.25 119.42 C 213.20 116.42 206.88 113.05 206.80 116.93 Z" />
</g>
<g id="#0000002d">
<path fill="#000000" opacity="0.18" d=" M 124.95 111.92 C 130.72 114.87 130.61 107.20 135.21 106.99 C 134.39 108.93 133.43 110.82 132.78 112.83 C 132.40 118.04 129.57 123.83 132.16 128.88 C 132.81 130.87 134.50 132.92 133.20 135.02 C 130.66 136.88 128.88 139.53 126.73 141.79 C 119.08 138.23 110.36 141.96 102.32 140.70 C 68.28 137.96 34.09 137.94 0.00 139.06 L 0.00 130.85 C 16.23 133.35 32.54 128.67 48.54 127.46 C 58.61 120.21 69.84 115.61 80.66 109.68 C 84.23 108.69 87.58 111.70 90.90 109.56 C 96.54 112.81 104.15 105.22 108.17 110.90 C 113.81 109.40 119.28 112.09 124.95 111.92 Z" />
<path fill="#000000" opacity="0.18" d=" M 0.00 171.98 C 1.84 171.52 3.72 170.98 5.63 171.35 C 34.64 175.87 64.81 167.95 93.02 177.81 C 98.46 175.67 97.90 180.85 99.48 183.54 C 105.23 187.50 104.21 195.64 104.41 201.84 C 102.62 205.12 98.12 204.32 94.98 204.83 C 77.88 203.46 60.83 201.22 43.98 198.03 C 28.78 195.44 14.70 188.68 0.00 184.73 L 0.00 171.98 Z" />
</g>
<g id="#9195a3ff">
<path fill="#9195a3" opacity="1.00" d=" M 181.22 108.11 C 184.34 107.62 186.44 112.58 185.02 114.99 C 178.54 119.22 178.26 110.38 181.22 108.11 Z" />
</g>
<g id="#7e8183ff">
<path fill="#7e8183" opacity="1.00" d=" M 196.33 108.18 C 201.21 107.73 198.00 115.24 199.56 118.35 C 201.02 121.35 195.58 124.10 195.96 120.01 C 196.77 115.26 189.48 117.99 191.07 113.30 C 194.22 113.48 195.32 110.59 196.33 108.18 Z" />
</g>
<g id="#676b83ff">
<path fill="#676b83" opacity="1.00" d=" M 160.06 110.06 C 161.67 109.66 165.77 107.72 165.91 109.80 C 159.90 109.97 162.67 117.93 161.85 122.07 C 154.79 122.97 153.73 111.81 160.06 110.06 Z" />
</g>
<g id="#6d6c6adc">
<path fill="#6d6c6a" opacity="0.86" d=" M 213.29 108.76 C 214.25 112.30 214.18 115.81 213.07 119.30 C 213.14 115.79 213.21 112.27 213.29 108.76 Z" />
</g>
<g id="#5b6077ff">
<path fill="#5b6077" opacity="1.00" d=" M 144.06 120.26 C 136.38 120.80 141.31 109.84 145.66 110.24 C 149.28 111.90 147.62 115.93 146.84 118.83 C 145.92 119.31 144.99 119.79 144.06 120.26 Z" />
</g>
<g id="#959aa3ff">
<path fill="#959aa3" opacity="1.00" d=" M 161.85 122.07 C 162.67 117.93 159.90 109.97 165.91 109.80 C 175.16 108.48 169.38 128.39 161.85 122.07 Z" />
</g>
<g id="#393a40fb">
<path fill="#393a40" opacity="1.00" d=" M 132.16 128.88 C 129.57 123.83 132.40 118.04 132.78 112.83 C 132.86 114.42 132.93 116.03 133.25 117.60 C 137.81 117.64 139.35 124.56 144.06 120.26 C 144.99 119.79 145.92 119.31 146.84 118.83 C 148.81 118.13 150.80 117.43 152.86 117.06 C 155.94 122.37 152.09 126.66 147.60 129.44 C 146.56 134.83 140.47 133.39 139.34 139.34 C 137.01 143.38 143.44 143.89 143.21 147.51 C 140.57 146.34 137.39 149.54 135.39 147.34 C 132.13 149.29 134.65 154.00 129.84 154.79 C 129.87 154.38 129.91 153.57 129.94 153.17 C 130.03 151.04 129.93 148.92 129.91 146.79 C 131.41 142.99 131.98 138.91 133.20 135.02 C 134.50 132.92 132.81 130.87 132.16 128.88 Z" />
</g>
<g id="#e3e5ebff">
<path fill="#e3e5eb" opacity="1.00" d=" M 206.80 116.93 C 206.88 113.05 213.20 116.42 210.25 119.42 L 209.47 119.23 C 208.59 118.45 207.70 117.68 206.80 116.93 Z" />
</g>
<g id="#82858fff">
<path fill="#82858f" opacity="1.00" d=" M 186.02 117.00 C 190.67 115.00 188.86 121.30 192.76 119.09 C 192.26 123.45 195.81 124.50 198.89 125.09 C 198.00 131.23 194.66 123.32 191.61 127.53 C 184.70 128.76 188.87 120.52 186.02 117.00 Z" />
</g>
<g id="#72757bfc">
<path fill="#72757b" opacity="1.00" d=" M 209.47 119.23 L 210.25 119.42 C 211.17 119.78 212.14 119.44 213.07 119.30 C 209.90 125.23 213.84 130.09 217.16 134.62 C 216.65 137.49 214.83 141.99 218.37 143.57 C 221.98 145.04 225.88 147.63 226.22 151.91 C 220.52 152.61 223.79 143.28 218.50 147.42 C 218.99 155.35 212.75 152.67 210.29 148.75 C 210.11 147.07 209.95 145.40 209.83 143.72 C 212.24 139.42 203.31 136.17 205.85 134.18 C 210.63 136.44 209.25 130.86 206.85 128.84 C 205.86 127.35 203.47 126.40 204.08 124.29 C 206.23 122.94 209.38 122.32 209.47 119.23 Z" />
</g>
<g id="#798249ff">
<path fill="#798249" opacity="1.00" d=" M 196.48 137.56 C 200.76 135.58 202.11 129.76 206.85 128.84 C 209.25 130.86 210.63 136.44 205.85 134.18 C 203.31 136.17 212.24 139.42 209.83 143.72 C 209.57 148.22 203.20 154.62 200.81 148.23 C 201.62 147.67 202.43 147.11 203.24 146.53 C 207.91 144.72 203.99 142.80 201.13 141.73 C 200.12 141.39 199.09 141.13 198.04 140.95 C 196.98 140.03 193.70 138.51 196.48 137.56 Z" />
</g>
<g id="#676b78ff">
<path fill="#676b78" opacity="1.00" d=" M 165.29 132.28 C 169.79 129.69 170.07 137.44 166.68 138.65 C 164.65 139.42 160.57 141.42 160.01 138.01 C 161.33 135.79 162.61 133.10 165.29 132.28 Z" />
</g>
<g id="#0000003b">
<path fill="#000000" opacity="0.23" d=" M 126.73 141.79 C 128.88 139.53 130.66 136.88 133.20 135.02 C 131.98 138.91 131.41 142.99 129.91 146.79 C 129.70 147.37 129.30 148.51 129.09 149.09 C 86.20 144.88 43.03 140.66 0.00 145.14 L 0.00 139.06 C 34.09 137.94 68.28 137.96 102.32 140.70 C 110.36 141.96 119.08 138.23 126.73 141.79 Z" />
</g>
<g id="#595c67fb">
<path fill="#595c67" opacity="1.00" d=" M 217.16 134.62 C 225.64 141.66 231.49 152.04 231.24 163.26 C 225.28 164.68 219.05 162.02 213.04 164.08 C 219.43 168.59 209.88 171.26 209.43 164.92 C 209.94 163.00 210.57 161.12 210.90 159.16 C 207.63 155.83 202.84 158.92 199.01 156.84 C 199.68 155.29 200.70 153.93 201.97 152.82 C 206.31 154.51 208.92 152.37 210.29 148.75 C 212.75 152.67 218.99 155.35 218.50 147.42 C 223.79 143.28 220.52 152.61 226.22 151.91 C 225.88 147.63 221.98 145.04 218.37 143.57 C 214.83 141.99 216.65 137.49 217.16 134.62 M 220.96 153.93 C 219.57 157.41 222.50 161.73 226.00 162.07 C 226.69 158.46 224.53 154.87 220.96 153.93 Z" />
</g>
<g id="#71767bff">
<path fill="#71767b" opacity="1.00" d=" M 198.04 140.95 C 199.09 141.13 200.12 141.39 201.13 141.73 C 199.28 144.19 200.47 145.83 203.24 146.53 C 202.43 147.11 201.62 147.67 200.81 148.23 C 196.80 145.26 200.25 151.60 201.97 152.82 C 200.70 153.93 199.68 155.29 199.01 156.84 C 202.84 158.92 207.63 155.83 210.90 159.16 C 210.57 161.12 209.94 163.00 209.43 164.92 C 208.81 165.26 207.57 165.94 206.95 166.28 C 206.96 163.87 208.35 160.01 203.96 161.75 C 200.45 157.34 194.02 165.63 199.91 167.27 C 198.21 170.32 195.71 173.85 197.05 177.46 C 198.86 177.13 200.36 177.29 200.29 179.52 C 198.36 180.88 196.63 182.56 197.32 185.11 C 196.22 186.20 191.45 188.71 195.80 189.34 C 199.66 188.55 206.46 196.18 206.01 189.19 C 204.60 188.06 202.77 188.89 201.16 188.75 C 199.87 186.39 200.70 183.71 201.10 181.25 C 202.39 176.97 203.03 178.66 203.81 182.12 C 207.02 188.79 213.68 191.72 220.26 194.15 C 217.46 196.10 214.49 198.05 212.84 201.16 C 212.90 203.83 213.69 206.46 214.96 208.80 C 217.20 207.26 221.51 205.49 221.73 209.67 C 219.82 210.87 217.86 211.98 215.86 213.03 C 214.45 213.50 213.75 214.84 212.84 215.90 C 210.09 216.61 205.28 221.52 205.66 215.89 C 201.28 218.04 206.96 220.62 202.78 223.01 C 201.12 218.96 197.42 216.45 192.94 215.83 C 193.44 220.20 201.64 218.45 197.67 223.36 C 198.55 227.17 201.52 230.94 196.98 233.94 C 205.90 231.22 200.70 235.19 199.48 237.47 C 197.87 244.07 203.46 251.11 198.85 257.02 C 194.61 256.69 191.80 252.68 190.25 249.16 C 193.29 246.21 190.04 245.71 187.40 244.63 C 186.20 239.22 180.40 236.82 180.38 231.07 C 183.22 229.69 189.45 228.31 186.28 235.25 C 189.07 233.71 188.72 230.94 188.13 228.26 C 197.91 227.07 182.61 225.40 180.31 225.06 C 179.22 228.90 178.14 232.75 177.25 236.64 C 182.28 237.55 187.18 243.80 181.22 247.25 C 183.94 241.74 180.85 240.94 177.08 240.03 C 176.12 237.22 173.66 236.63 170.90 236.95 L 169.79 236.88 C 177.00 230.76 166.23 223.97 165.99 216.79 L 167.25 216.64 C 169.58 217.10 171.95 217.63 174.06 218.78 C 169.59 217.95 170.77 222.63 171.09 225.75 C 173.10 226.61 175.21 227.39 174.34 230.02 C 179.98 230.46 178.83 222.61 176.02 219.83 C 179.48 219.24 182.51 223.01 185.72 220.87 C 185.69 218.96 184.53 216.80 185.88 215.12 C 187.62 222.72 191.42 210.92 195.88 213.66 C 197.13 210.49 194.05 210.86 191.82 210.88 C 198.48 209.87 190.83 206.24 187.80 207.84 C 185.11 209.13 182.39 208.31 180.30 206.36 C 177.08 209.32 175.79 213.41 179.99 216.06 C 178.60 220.30 175.41 216.45 175.70 213.51 C 173.67 213.75 170.81 214.57 172.32 211.53 C 176.50 211.06 178.74 203.84 173.25 203.89 C 171.09 192.63 174.19 201.78 178.87 201.21 C 174.41 196.08 180.94 191.98 185.50 195.88 C 182.48 196.19 180.01 197.47 180.89 200.91 C 183.86 200.66 185.69 199.00 185.50 195.88 C 186.48 193.44 182.64 193.92 181.72 192.27 C 180.51 186.26 188.91 181.31 183.91 174.94 C 179.94 178.66 179.26 173.89 182.83 171.81 C 179.95 164.05 189.39 155.02 182.91 148.43 C 185.26 148.39 187.60 148.56 189.94 148.75 C 189.65 146.48 189.08 144.25 188.98 141.96 C 193.24 140.35 193.05 146.03 196.53 146.23 C 196.29 144.25 195.85 141.98 198.04 140.95 M 201.00 202.86 C 201.06 204.47 200.44 207.93 202.85 207.84 C 205.49 206.17 202.75 203.81 201.00 202.86 Z" />
</g>
<g id="#a5ae9aff">
<path fill="#a5ae9a" opacity="1.00" d=" M 201.13 141.73 C 203.99 142.80 207.91 144.72 203.24 146.53 C 200.47 145.83 199.28 144.19 201.13 141.73 Z" />
</g>
<g id="#0000004a">
<path fill="#000000" opacity="0.29" d=" M 0.00 145.14 C 43.03 140.66 86.20 144.88 129.09 149.09 C 128.94 149.53 128.65 150.41 128.50 150.85 C 91.51 150.65 54.05 143.01 17.38 151.35 C 15.11 152.25 14.58 154.63 15.05 156.83 C 51.77 165.76 90.19 162.18 127.04 170.94 C 127.41 171.93 127.78 172.92 128.16 173.92 C 102.69 171.13 77.29 167.13 51.58 167.48 C 34.24 167.63 17.03 166.02 0.00 162.84 L 0.00 145.14 Z" />
</g>
<g id="#94988aff">
<path fill="#94988a" opacity="1.00" d=" M 200.81 148.23 C 203.20 154.62 209.57 148.22 209.83 143.72 C 209.95 145.40 210.11 147.07 210.29 148.75 C 208.92 152.37 206.31 154.51 201.97 152.82 C 200.25 151.60 196.80 145.26 200.81 148.23 Z" />
</g>
<g id="#373a45fc">
<path fill="#373a45" opacity="1.00" d=" M 304.23 150.92 C 311.23 153.55 311.88 139.28 318.58 145.41 C 320.36 151.88 330.33 151.80 328.97 159.80 C 325.91 158.45 320.46 159.66 320.39 163.65 C 320.28 167.53 316.90 170.01 315.12 173.15 C 315.46 175.38 315.53 179.14 318.76 177.88 C 322.57 172.39 323.39 165.16 328.99 160.77 C 329.07 162.77 329.49 164.73 330.07 166.65 C 323.29 166.46 323.94 175.71 320.95 179.87 L 320.33 180.40 C 316.12 180.97 309.10 180.73 307.68 175.91 C 306.80 172.62 307.11 171.09 310.05 173.78 C 312.19 168.85 313.73 163.68 315.59 158.64 C 318.36 157.55 320.12 155.18 320.20 152.16 C 315.19 151.48 312.59 154.04 312.98 158.59 C 302.85 154.68 307.65 165.20 306.45 170.44 C 304.08 172.65 301.28 173.96 298.00 173.06 C 299.30 177.40 304.58 181.03 301.83 185.85 C 299.37 186.53 300.08 183.14 299.20 181.74 C 297.93 178.81 295.41 176.65 293.03 174.62 C 290.41 172.69 284.94 170.00 286.00 175.49 C 279.89 173.63 276.63 163.90 283.85 161.80 C 289.37 159.83 284.38 154.54 284.59 150.77 C 287.68 149.10 291.45 150.44 294.77 150.13 C 297.89 150.54 301.06 150.97 304.23 150.92 Z" />
</g>
<g id="#00000057">
<path fill="#000000" opacity="0.34" d=" M 17.38 151.35 C 54.05 143.01 91.51 150.65 128.50 150.85 C 128.65 150.41 128.94 149.53 129.09 149.09 C 129.30 148.51 129.70 147.37 129.91 146.79 C 129.93 148.92 130.03 151.04 129.94 153.17 C 110.48 154.70 90.71 151.52 71.20 153.33 C 69.67 154.44 62.86 154.75 66.39 156.59 C 86.42 161.61 107.09 163.72 127.05 168.87 C 127.05 169.39 127.04 170.42 127.04 170.94 C 90.19 162.18 51.77 165.76 15.05 156.83 C 14.58 154.63 15.11 152.25 17.38 151.35 Z" />
</g>
<g id="#0a0a0d6e">
<path fill="#0a0a0d" opacity="0.43" d=" M 294.77 150.13 C 297.95 150.03 301.07 150.43 304.23 150.92 C 301.06 150.97 297.89 150.54 294.77 150.13 Z" />
</g>
<g id="#575c6aff">
<path fill="#575c6a" opacity="1.00" d=" M 159.17 151.33 C 161.70 152.47 164.62 152.68 166.96 154.18 C 168.04 158.21 156.59 164.84 159.95 157.32 C 155.29 157.74 154.67 152.06 159.17 151.33 Z" />
</g>
<g id="#2c2e35fb">
<path fill="#2c2e35" opacity="1.00" d=" M 279.96 153.80 C 281.51 152.79 282.98 151.67 284.59 150.77 C 284.38 154.54 289.37 159.83 283.85 161.80 C 276.63 163.90 279.89 173.63 286.00 175.49 C 286.86 176.68 287.69 177.89 288.56 179.08 C 289.95 181.19 291.37 183.29 292.99 185.24 C 292.42 187.59 290.43 188.21 287.03 187.10 C 286.50 186.75 285.43 186.05 284.90 185.69 C 283.02 183.65 282.59 179.54 279.12 179.92 C 279.59 183.06 280.74 189.81 274.40 186.52 C 268.60 183.24 267.17 189.18 268.94 192.88 C 267.92 193.20 266.92 193.58 265.94 194.01 C 261.32 196.06 265.40 202.17 265.97 205.75 C 258.51 203.65 257.09 213.14 260.03 217.76 C 257.98 224.75 256.90 216.23 253.34 215.98 C 253.41 219.31 251.93 219.02 249.87 217.20 C 247.60 219.85 250.39 221.45 252.80 222.10 C 251.69 226.49 247.41 230.77 248.70 235.27 L 249.07 236.22 C 248.13 236.33 247.19 236.41 246.24 236.47 C 244.82 235.04 244.38 232.24 242.10 232.01 C 241.11 233.70 241.81 235.95 240.21 237.36 C 239.74 233.55 240.87 226.08 246.85 227.65 C 248.11 221.13 238.28 231.00 236.33 226.73 C 233.75 222.47 244.01 226.04 243.85 222.97 C 241.28 219.74 246.14 215.76 242.02 212.98 C 238.88 209.40 229.12 210.60 232.79 216.84 C 223.77 217.61 238.80 227.56 228.86 228.41 C 225.08 230.41 226.97 224.43 224.60 222.71 C 224.99 221.24 225.40 219.78 225.97 218.37 C 228.34 216.17 228.08 213.61 225.81 211.43 C 227.24 205.98 231.17 211.47 234.39 208.46 C 237.66 207.71 236.25 199.67 231.13 203.99 C 229.36 203.71 231.43 200.47 231.13 199.02 C 235.30 204.79 243.93 206.55 250.75 207.98 C 250.98 193.30 270.05 188.94 273.44 175.40 C 273.84 167.69 276.75 160.69 279.96 153.80 Z" />
</g>
<g id="#676d76ff">
<path fill="#676d76" opacity="1.00" d=" M 312.98 158.59 C 312.59 154.04 315.19 151.48 320.20 152.16 C 320.12 155.18 318.36 157.55 315.59 158.64 C 313.73 163.68 312.19 168.85 310.05 173.78 C 307.11 171.09 306.80 172.62 307.68 175.91 C 307.00 177.66 304.08 179.40 305.66 181.30 C 308.63 184.79 309.64 189.35 312.08 193.17 C 309.54 191.72 307.27 189.47 304.09 190.79 C 307.92 193.27 307.86 200.66 302.02 199.01 C 302.26 196.84 302.84 194.72 303.05 192.54 C 299.72 193.13 297.18 190.44 295.21 188.13 C 297.32 186.56 298.90 184.41 299.20 181.74 C 300.08 183.14 299.37 186.53 301.83 185.85 C 304.58 181.03 299.30 177.40 298.00 173.06 C 301.28 173.96 304.08 172.65 306.45 170.44 C 307.65 165.20 302.85 154.68 312.98 158.59 Z" />
</g>
<g id="#00000067">
<path fill="#000000" opacity="0.40" d=" M 66.39 156.59 C 62.86 154.75 69.67 154.44 71.20 153.33 C 90.71 151.52 110.48 154.70 129.94 153.17 C 129.91 153.57 129.87 154.38 129.84 154.79 C 128.28 158.00 124.94 161.37 126.59 165.15 C 126.71 165.58 126.94 166.43 127.06 166.85 C 127.06 167.36 127.05 168.37 127.05 168.87 C 107.09 163.72 86.42 161.61 66.39 156.59 Z" />
</g>
<g id="#6e7774ff">
<path fill="#6e7774" opacity="1.00" d=" M 179.29 154.26 C 184.10 152.34 184.36 160.20 180.71 161.83 C 172.40 166.09 173.79 155.16 179.29 154.26 Z" />
</g>
<g id="#9194a4ff">
<path fill="#9194a4" opacity="1.00" d=" M 220.96 153.93 C 224.53 154.87 226.69 158.46 226.00 162.07 C 222.50 161.73 219.57 157.41 220.96 153.93 Z" />
</g>
<g id="#34363bfd">
<path fill="#34363b" opacity="1.00" d=" M 135.80 158.94 C 138.42 155.18 144.02 155.66 144.26 160.83 C 144.44 167.51 155.58 163.68 152.21 157.77 C 154.32 163.73 163.02 168.35 159.86 175.07 C 158.15 172.39 156.87 168.68 152.90 170.01 C 152.51 173.19 157.35 175.72 154.72 178.68 C 153.75 181.91 148.40 177.31 148.13 180.00 C 150.93 188.18 136.69 184.81 136.10 192.03 C 135.24 194.62 139.51 193.53 139.33 195.77 C 138.77 200.10 143.20 199.66 146.08 199.06 C 145.96 202.52 144.24 205.55 142.17 208.20 C 142.51 210.94 146.02 215.29 141.20 215.54 C 136.95 222.65 148.49 220.77 145.49 215.68 C 149.80 217.23 147.34 222.96 150.05 225.97 C 155.44 225.25 151.51 220.19 150.86 217.10 C 156.36 219.91 157.59 212.96 162.65 212.75 C 164.26 213.95 165.90 215.13 167.25 216.64 L 165.99 216.79 C 152.00 215.47 159.54 237.59 169.79 236.88 L 170.90 236.95 C 170.80 238.30 170.69 239.65 170.58 241.01 C 166.26 238.07 160.60 237.85 156.03 235.26 C 153.67 238.03 154.08 241.79 153.77 245.20 C 153.62 244.86 153.34 244.16 153.20 243.82 C 152.84 242.83 152.48 241.84 152.10 240.86 C 151.78 239.37 150.73 238.23 149.36 237.61 C 148.33 236.97 147.28 236.37 146.22 235.81 C 142.03 231.89 137.42 227.56 136.57 221.57 C 135.08 219.30 137.47 214.59 134.26 213.20 C 133.76 212.85 132.76 212.15 132.26 211.81 C 131.63 210.77 130.97 209.74 130.31 208.73 C 127.11 203.64 126.83 197.57 127.03 191.72 C 124.22 197.02 131.91 202.74 132.40 195.87 C 133.26 198.78 133.90 201.89 136.00 204.22 C 133.69 197.18 134.23 189.60 132.31 182.62 C 133.39 179.23 129.34 176.85 128.16 173.92 C 127.78 172.92 127.41 171.93 127.04 170.94 C 127.04 170.42 127.05 169.39 127.05 168.87 C 127.05 168.37 127.06 167.36 127.06 166.85 C 127.27 172.23 134.24 176.32 137.60 170.92 C 136.41 167.04 136.05 162.98 135.80 158.94 Z" />
</g>
<g id="#585d72ff">
<path fill="#585d72" opacity="1.00" d=" M 126.59 165.15 C 126.75 160.88 131.85 154.34 135.80 158.94 C 136.05 162.98 136.41 167.04 137.60 170.92 C 134.24 176.32 127.27 172.23 127.06 166.85 C 126.94 166.43 126.71 165.58 126.59 165.15 Z" />
</g>
<g id="#62676eff">
<path fill="#62676e" opacity="1.00" d=" M 320.39 163.65 C 320.46 159.66 325.91 158.45 328.97 159.80 L 328.99 160.77 C 323.39 165.16 322.57 172.39 318.76 177.88 C 315.53 179.14 315.46 175.38 315.12 173.15 C 316.90 170.01 320.28 167.53 320.39 163.65 Z" />
</g>
<g id="#9396a4ff">
<path fill="#9396a4" opacity="1.00" d=" M 199.91 167.27 C 194.02 165.63 200.45 157.34 203.96 161.75 C 204.40 164.62 201.89 165.86 199.91 167.27 Z" />
</g>
<g id="#5e6473ff">
<path fill="#5e6473" opacity="1.00" d=" M 203.96 161.75 C 208.35 160.01 206.96 163.87 206.95 166.28 C 207.53 167.40 209.87 168.84 207.67 169.57 C 203.11 171.88 204.38 177.83 203.81 182.12 C 203.03 178.66 202.39 176.97 201.10 181.25 C 200.90 180.82 200.49 179.95 200.29 179.52 C 200.36 177.29 198.86 177.13 197.05 177.46 C 195.71 173.85 198.21 170.32 199.91 167.27 C 201.89 165.86 204.40 164.62 203.96 161.75 Z" />
</g>
<g id="#0000003a">
<path fill="#000000" opacity="0.23" d=" M 0.00 162.84 C 17.03 166.02 34.24 167.63 51.58 167.48 C 77.29 167.13 102.69 171.13 128.16 173.92 C 129.34 176.85 133.39 179.23 132.31 182.62 C 129.39 184.47 127.95 187.65 127.02 190.84 C 123.38 196.20 127.68 208.51 118.05 208.08 C 97.54 210.87 77.01 205.89 56.53 204.55 C 37.31 202.73 18.22 199.51 0.00 192.98 L 0.00 184.73 C 14.70 188.68 28.78 195.44 43.98 198.03 C 60.83 201.22 77.88 203.46 94.98 204.83 C 98.12 204.32 102.62 205.12 104.41 201.84 C 104.21 195.64 105.23 187.50 99.48 183.54 C 97.90 180.85 98.46 175.67 93.02 177.81 C 64.81 167.95 34.64 175.87 5.63 171.35 C 3.72 170.98 1.84 171.52 0.00 171.98 L 0.00 162.84 Z" />
<path fill="#000000" opacity="0.23" d=" M 0.00 210.84 C 32.98 218.69 67.26 221.79 99.65 232.39 C 117.01 238.39 135.26 241.20 153.20 243.82 C 153.34 244.16 153.62 244.86 153.77 245.20 C 153.88 246.47 154.00 247.73 154.12 249.00 C 150.15 246.81 146.02 244.89 141.40 244.55 C 108.85 239.55 77.89 227.04 44.96 224.02 C 30.14 220.64 14.91 219.71 0.00 216.88 L 0.00 210.84 Z" />
</g>
<g id="#3c3f4cfe">
<path fill="#3c3f4c" opacity="1.00" d=" M 213.04 164.08 C 219.05 162.02 225.28 164.68 231.24 163.26 C 231.46 163.43 231.91 163.76 232.13 163.93 C 234.75 165.54 238.34 164.61 241.32 164.90 L 242.21 165.05 C 242.31 166.08 242.37 167.12 242.41 168.16 C 239.20 168.51 238.19 172.11 235.43 172.95 C 235.42 170.20 233.54 170.22 231.39 170.54 C 228.75 166.07 222.85 169.36 222.68 173.80 C 217.88 172.06 212.65 174.41 214.86 180.96 C 217.35 177.29 223.38 175.82 225.27 180.80 C 227.79 185.49 232.74 182.39 236.68 182.42 C 237.55 184.67 237.88 187.28 239.79 188.96 C 240.12 189.49 240.78 190.55 241.11 191.08 C 236.38 192.23 236.24 186.74 233.87 184.11 C 231.34 185.18 229.16 187.61 226.18 187.00 C 224.88 184.80 224.31 182.28 223.43 179.90 C 222.65 184.07 218.48 187.59 222.32 191.67 C 223.61 196.81 230.88 190.53 231.05 194.97 C 230.98 195.81 230.84 197.48 230.77 198.32 C 229.68 197.14 228.84 195.52 227.18 195.07 C 224.23 194.30 221.57 195.44 219.73 197.75 C 217.35 198.05 218.61 200.52 218.53 202.11 C 217.11 201.88 214.27 201.40 212.84 201.16 C 214.49 198.05 217.46 196.10 220.26 194.15 C 213.68 191.72 207.02 188.79 203.81 182.12 C 204.38 177.83 203.11 171.88 207.67 169.57 C 209.87 168.84 207.53 167.40 206.95 166.28 C 207.57 165.94 208.81 165.26 209.43 164.92 C 209.88 171.26 219.43 168.59 213.04 164.08 Z" />
</g>
<g id="#0d0e106c">
<path fill="#0d0e10" opacity="0.42" d=" M 232.13 163.93 C 235.21 164.08 238.26 164.38 241.32 164.90 C 238.34 164.61 234.75 165.54 232.13 163.93 Z" />
</g>
<g id="#35363cf9">
<path fill="#35363c" opacity="0.98" d=" M 242.21 165.05 C 251.08 166.25 270.95 170.79 264.67 183.68 C 259.60 188.70 252.57 193.82 245.24 193.84 C 241.28 193.82 236.55 191.50 232.87 193.81 C 232.41 194.10 231.51 194.68 231.05 194.97 C 230.88 190.53 223.61 196.81 222.32 191.67 C 218.48 187.59 222.65 184.07 223.43 179.90 C 224.31 182.28 224.88 184.80 226.18 187.00 C 229.16 187.61 231.34 185.18 233.87 184.11 C 236.24 186.74 236.38 192.23 241.11 191.08 C 240.78 190.55 240.12 189.49 239.79 188.96 C 240.38 183.19 244.29 184.50 247.64 187.03 C 247.30 180.96 251.91 188.07 254.26 184.46 C 256.55 182.51 261.51 179.78 258.68 176.37 C 257.03 173.03 254.46 170.38 250.13 172.27 C 251.30 165.09 246.17 167.45 242.41 168.16 C 242.37 167.12 242.31 166.08 242.21 165.05 Z" />
</g>
<g id="#515463ff">
<path fill="#515463" opacity="1.00" d=" M 242.41 168.16 C 246.17 167.45 251.30 165.09 250.13 172.27 C 247.55 176.62 242.92 171.74 239.13 172.13 C 236.96 175.14 237.35 179.48 238.15 182.95 C 241.17 183.44 244.01 179.95 246.23 183.45 C 249.02 181.49 251.75 182.61 254.26 184.46 C 251.91 188.07 247.30 180.96 247.64 187.03 C 244.29 184.50 240.38 183.19 239.79 188.96 C 237.88 187.28 237.55 184.67 236.68 182.42 C 232.74 182.39 227.79 185.49 225.27 180.80 C 223.38 175.82 217.35 177.29 214.86 180.96 C 212.65 174.41 217.88 172.06 222.68 173.80 C 222.85 169.36 228.75 166.07 231.39 170.54 C 233.54 170.22 235.42 170.20 235.43 172.95 C 238.19 172.11 239.20 168.51 242.41 168.16 Z" />
</g>
<g id="#4a4e55fa">
<path fill="#4a4e55" opacity="0.98" d=" M 320.95 179.87 C 323.94 175.71 323.29 166.46 330.07 166.65 C 330.70 170.69 332.41 174.34 334.05 178.02 C 333.10 181.51 330.83 184.53 330.22 188.17 C 331.69 184.09 327.14 182.27 325.72 186.20 C 326.47 189.46 323.32 190.33 320.78 190.78 C 321.53 187.34 317.00 190.06 315.19 190.13 C 315.69 191.82 316.35 193.46 317.03 195.08 C 311.97 197.44 306.88 199.80 302.31 203.03 C 298.73 199.41 294.48 198.35 289.94 201.76 C 285.28 204.03 286.91 210.06 287.70 214.19 C 287.84 216.24 288.89 218.59 291.30 217.45 C 289.10 220.65 288.76 225.11 284.99 227.08 C 285.15 223.40 289.99 221.47 286.40 217.82 L 286.05 217.10 C 284.80 212.88 282.96 208.14 284.76 203.84 C 286.03 198.20 294.20 200.36 296.78 195.73 C 298.46 192.04 292.63 185.66 289.73 189.71 C 287.78 192.23 287.74 188.58 287.03 187.10 C 290.43 188.21 292.42 187.59 292.99 185.24 C 293.77 186.17 294.46 187.17 295.21 188.13 C 297.18 190.44 299.72 193.13 303.05 192.54 C 302.84 194.72 302.26 196.84 302.02 199.01 C 307.86 200.66 307.92 193.27 304.09 190.79 C 307.27 189.47 309.54 191.72 312.08 193.17 C 309.64 189.35 308.63 184.79 305.66 181.30 C 304.08 179.40 307.00 177.66 307.68 175.91 C 309.10 180.73 316.12 180.97 320.33 180.40 C 318.70 182.67 315.71 185.11 318.28 187.88 C 325.06 192.43 329.26 175.60 320.95 179.87 Z" />
</g>
<g id="#737480ff">
<path fill="#737480" opacity="1.00" d=" M 239.13 172.13 C 242.92 171.74 247.55 176.62 250.13 172.27 C 254.46 170.38 257.03 173.03 258.68 176.37 C 261.51 179.78 256.55 182.51 254.26 184.46 C 251.75 182.61 249.02 181.49 246.23 183.45 C 244.01 179.95 241.17 183.44 238.15 182.95 C 237.35 179.48 236.96 175.14 239.13 172.13 Z" />
</g>
<g id="#5f6860ff">
<path fill="#5f6860" opacity="1.00" d=" M 286.00 175.49 C 284.94 170.00 290.41 172.69 293.03 174.62 C 290.85 175.32 289.30 176.93 288.56 179.08 C 287.69 177.89 286.86 176.68 286.00 175.49 Z" />
</g>
<g id="#8e919eff">
<path fill="#8e919e" opacity="1.00" d=" M 288.56 179.08 C 289.30 176.93 290.85 175.32 293.03 174.62 C 295.41 176.65 297.93 178.81 299.20 181.74 C 298.90 184.41 297.32 186.56 295.21 188.13 C 294.46 187.17 293.77 186.17 292.99 185.24 C 291.37 183.29 289.95 181.19 288.56 179.08 Z" />
</g>
<g id="#78838bff">
<path fill="#78838b" opacity="1.00" d=" M 320.95 179.87 C 329.26 175.60 325.06 192.43 318.28 187.88 C 315.71 185.11 318.70 182.67 320.33 180.40 L 320.95 179.87 Z" />
</g>
<g id="#6d7674ff">
<path fill="#6d7674" opacity="1.00" d=" M 173.23 180.17 C 176.75 179.40 181.32 184.18 177.69 186.70 C 173.97 190.79 168.27 182.29 173.23 180.17 Z" />
</g>
<g id="#8d9295ff">
<path fill="#8d9295" opacity="1.00" d=" M 197.32 185.11 C 196.63 182.56 198.36 180.88 200.29 179.52 C 200.49 179.95 200.90 180.82 201.10 181.25 C 200.70 183.71 199.87 186.39 201.16 188.75 C 202.77 188.89 204.60 188.06 206.01 189.19 C 206.46 196.18 199.66 188.55 195.80 189.34 C 191.45 188.71 196.22 186.20 197.32 185.11 Z" />
</g>
<g id="#4a4d54ff">
<path fill="#4a4d54" opacity="1.00" d=" M 279.12 179.92 C 282.59 179.54 283.02 183.65 284.90 185.69 C 280.77 186.81 281.94 191.94 280.51 195.08 C 279.81 189.49 272.11 193.01 268.94 192.88 C 267.17 189.18 268.60 183.24 274.40 186.52 C 280.74 189.81 279.59 183.06 279.12 179.92 Z" />
</g>
<g id="#505056fb">
<path fill="#505056" opacity="1.00" d=" M 127.02 190.84 C 127.95 187.65 129.39 184.47 132.31 182.62 C 134.23 189.60 133.69 197.18 136.00 204.22 C 133.90 201.89 133.26 198.78 132.40 195.87 C 131.91 202.74 124.22 197.02 127.03 191.72 L 127.02 190.84 Z" />
</g>
<g id="#757f88f8">
<path fill="#757f88" opacity="0.97" d=" M 325.72 186.20 C 327.14 182.27 331.69 184.09 330.22 188.17 C 329.36 190.45 327.43 192.08 326.15 194.11 C 325.67 194.15 324.72 194.24 324.24 194.28 C 321.32 194.45 318.80 193.98 320.78 190.78 C 323.32 190.33 326.47 189.46 325.72 186.20 Z" />
</g>
<g id="#71757aff">
<path fill="#71757a" opacity="1.00" d=" M 280.51 195.08 C 281.94 191.94 280.77 186.81 284.90 185.69 C 285.43 186.05 286.50 186.75 287.03 187.10 C 287.74 188.58 287.78 192.23 289.73 189.71 C 292.63 185.66 298.46 192.04 296.78 195.73 C 294.20 200.36 286.03 198.20 284.76 203.84 C 282.96 208.14 284.80 212.88 286.05 217.10 C 282.77 212.83 278.52 214.41 279.90 220.03 C 277.23 216.04 270.86 219.29 272.57 223.72 C 270.38 225.18 267.84 226.20 265.16 226.09 C 266.03 222.96 266.55 219.42 263.04 217.81 C 262.96 215.16 262.97 212.52 263.08 209.88 C 265.38 210.27 267.54 212.04 269.92 211.04 C 268.38 209.13 266.68 207.21 269.01 205.15 C 265.09 202.75 266.14 197.98 265.94 194.01 C 266.92 193.58 267.92 193.20 268.94 192.88 C 272.11 193.01 279.81 189.49 280.51 195.08 M 268.99 193.97 C 269.77 196.82 268.50 205.90 273.78 204.90 C 276.36 201.16 274.33 193.26 268.99 193.97 Z" />
</g>
<g id="#2a2f35ef">
<path fill="#2a2f35" opacity="0.94" d=" M 315.19 190.13 C 317.00 190.06 321.53 187.34 320.78 190.78 C 318.80 193.98 321.32 194.45 324.24 194.28 C 321.83 194.54 319.42 194.81 317.03 195.08 C 316.35 193.46 315.69 191.82 315.19 190.13 Z" />
</g>
<g id="#0000004b">
<path fill="#000000" opacity="0.29" d=" M 118.05 208.08 C 127.68 208.51 123.38 196.20 127.02 190.84 L 127.03 191.72 C 126.83 197.57 127.11 203.64 130.31 208.73 C 114.84 215.24 96.74 210.81 80.43 209.51 C 66.65 207.85 52.63 210.46 38.94 208.17 C 39.09 209.74 38.50 212.08 40.62 212.44 C 50.81 216.65 61.77 218.62 72.34 221.62 C 98.95 228.03 124.23 240.98 152.10 240.86 C 152.48 241.84 152.84 242.83 153.20 243.82 C 135.26 241.20 117.01 238.39 99.65 232.39 C 67.26 221.79 32.98 218.69 0.00 210.84 L 0.00 192.98 C 18.22 199.51 37.31 202.73 56.53 204.55 C 77.01 205.89 97.54 210.87 118.05 208.08 Z" />
</g>
<g id="#5e6576ff">
<path fill="#5e6576" opacity="1.00" d=" M 154.28 193.28 C 158.72 191.89 157.14 201.23 154.31 203.31 C 147.36 207.60 150.63 194.84 154.28 193.28 Z" />
</g>
<g id="#6b7285ff">
<path fill="#6b7285" opacity="1.00" d=" M 168.22 193.15 C 173.85 190.22 174.55 200.39 169.19 198.93 C 168.12 197.33 165.67 194.56 168.22 193.15 Z" />
</g>
<g id="#10101187">
<path fill="#101011" opacity="0.53" d=" M 232.87 193.81 C 236.55 191.50 241.28 193.82 245.24 193.84 C 241.11 193.81 236.99 193.80 232.87 193.81 Z" />
</g>
<g id="#3f4251ff">
<path fill="#3f4251" opacity="1.00" d=" M 265.97 205.75 C 265.40 202.17 261.32 196.06 265.94 194.01 C 266.14 197.98 265.09 202.75 269.01 205.15 C 266.68 207.21 268.38 209.13 269.92 211.04 C 267.54 212.04 265.38 210.27 263.08 209.88 C 262.97 212.52 262.96 215.16 263.04 217.81 C 262.29 217.80 260.78 217.77 260.03 217.76 C 257.09 213.14 258.51 203.65 265.97 205.75 Z" />
</g>
<g id="#9699a8ff">
<path fill="#9699a8" opacity="1.00" d=" M 268.99 193.97 C 274.33 193.26 276.36 201.16 273.78 204.90 C 268.50 205.90 269.77 196.82 268.99 193.97 Z" />
</g>
<g id="#00000011">
<path fill="#000000" opacity="0.07" d=" M 324.24 194.28 C 324.72 194.24 325.67 194.15 326.15 194.11 C 325.78 195.51 324.64 196.35 323.22 196.37 C 315.70 197.30 305.99 202.80 309.95 211.17 C 314.86 211.76 310.67 215.35 311.45 218.35 C 313.75 223.98 307.08 227.42 308.76 233.02 C 311.40 238.25 305.31 240.16 305.41 244.64 C 299.67 247.82 302.74 255.20 305.73 259.57 C 303.32 260.33 301.43 262.01 299.96 264.02 C 301.50 265.08 303.35 264.28 305.06 264.25 C 306.44 269.39 296.89 271.08 301.73 276.17 C 299.97 280.62 294.74 268.01 291.81 275.80 C 294.88 274.38 298.30 275.79 296.86 279.60 C 292.03 279.13 289.71 285.99 285.27 282.34 C 285.49 287.47 280.25 288.15 279.46 282.94 C 276.37 291.48 266.66 291.39 259.99 295.97 C 257.83 297.20 252.58 294.45 253.46 298.66 C 255.38 305.90 244.51 305.37 240.26 306.30 C 242.03 311.23 237.00 311.83 233.24 312.77 C 230.81 311.12 233.11 306.01 229.39 307.05 C 230.11 311.25 224.86 315.75 220.89 313.03 C 216.32 309.84 211.76 318.73 207.73 314.28 C 204.12 310.22 201.63 318.99 197.47 316.44 C 194.68 314.59 189.06 315.19 189.17 319.37 C 188.30 323.92 184.31 315.49 181.87 318.86 C 180.81 319.21 178.08 322.40 178.14 320.17 C 177.82 307.56 176.05 322.87 170.15 321.68 C 167.15 321.68 159.36 318.31 161.92 323.59 C 158.91 322.45 156.55 324.76 154.01 325.97 C 149.27 320.43 140.07 324.14 138.81 330.96 C 137.13 329.68 135.72 328.08 133.93 326.95 C 130.08 328.57 125.84 331.70 122.14 327.99 C 119.71 333.04 115.89 328.72 112.24 327.87 C 114.43 323.80 109.53 322.66 106.63 323.60 C 103.88 328.08 91.09 328.61 97.07 321.93 C 93.28 325.10 88.47 320.43 85.61 325.59 C 83.26 328.92 84.57 323.17 82.78 322.03 C 79.70 321.26 79.19 325.93 76.27 326.11 C 77.10 318.08 70.03 325.55 66.30 327.14 C 66.55 324.77 66.52 322.39 65.98 320.06 C 62.61 322.74 57.19 326.83 53.59 322.71 C 49.75 325.33 46.38 320.89 42.45 323.80 C 41.89 319.26 38.68 319.52 37.56 323.64 C 34.10 323.26 30.72 323.91 27.42 324.96 C 28.92 321.41 24.99 319.00 21.51 321.61 C 17.14 323.56 11.79 323.67 8.79 319.45 C 6.00 320.69 3.11 322.55 0.00 321.05 L 0.00 262.88 C 3.15 263.89 6.35 264.69 9.57 265.47 C 11.14 267.32 13.06 273.89 14.55 268.44 C 14.69 264.72 21.70 268.73 17.61 269.48 C 12.35 270.19 19.38 273.47 20.55 275.73 C 22.31 271.26 26.23 273.20 25.53 277.51 C 27.07 290.20 26.64 273.20 31.67 276.21 C 33.17 278.13 33.88 280.46 34.31 282.83 C 38.32 280.94 43.20 273.83 42.67 284.35 C 49.46 283.94 55.06 288.87 61.95 287.50 C 66.56 287.05 68.14 294.17 72.14 290.43 C 77.86 294.30 82.27 290.94 87.57 290.16 C 88.38 297.56 95.54 285.95 98.28 290.71 C 101.98 294.57 101.40 283.78 104.53 285.50 C 108.70 291.98 115.77 281.17 119.17 288.05 C 121.74 288.00 123.23 285.59 125.15 284.24 C 127.58 284.56 130.58 285.75 130.39 282.08 C 136.89 285.46 143.82 283.76 150.74 283.98 C 158.58 279.33 152.00 286.94 155.09 288.99 C 157.12 287.64 161.11 282.34 162.42 286.79 C 163.38 292.36 170.00 288.81 173.87 289.00 C 172.81 292.34 173.10 293.85 176.40 291.56 C 184.74 294.78 193.79 288.63 202.01 286.03 C 207.17 285.39 210.98 278.71 216.03 283.04 C 223.45 278.55 231.72 274.17 239.63 270.58 C 245.52 272.19 246.45 264.08 251.74 263.61 C 254.22 264.28 254.70 261.48 256.02 260.07 C 259.97 254.28 268.06 252.67 271.30 246.29 C 272.47 241.48 279.32 248.48 280.10 242.06 C 286.78 230.79 292.36 218.63 299.97 207.83 C 301.17 206.45 301.89 204.79 302.31 203.03 C 306.88 199.80 311.97 197.44 317.03 195.08 C 319.42 194.81 321.83 194.54 324.24 194.28 Z" />
</g>
<g id="#898b8dff">
<path fill="#898b8d" opacity="1.00" d=" M 219.73 197.75 C 221.57 195.44 224.23 194.30 227.18 195.07 C 227.83 199.54 218.14 204.09 219.73 197.75 Z" />
</g>
<g id="#5d6064ff">
<path fill="#5d6064" opacity="1.00" d=" M 227.18 195.07 C 228.84 195.52 229.68 197.14 230.77 198.32 L 231.13 199.02 C 231.43 200.47 229.36 203.71 231.13 203.99 C 236.25 199.67 237.66 207.71 234.39 208.46 C 231.17 211.47 227.24 205.98 225.81 211.43 C 222.48 212.98 221.67 217.60 225.97 218.37 C 225.40 219.78 224.99 221.24 224.60 222.71 C 222.27 226.79 217.83 225.39 213.93 224.93 C 215.13 224.46 216.37 224.12 217.59 223.72 C 215.17 219.93 222.39 215.83 215.86 213.03 C 217.86 211.98 219.82 210.87 221.73 209.67 C 221.51 205.49 217.20 207.26 214.96 208.80 C 213.69 206.46 212.90 203.83 212.84 201.16 C 214.27 201.40 217.11 201.88 218.53 202.11 C 218.61 200.52 217.35 198.05 219.73 197.75 C 218.14 204.09 227.83 199.54 227.18 195.07 Z" />
</g>
<g id="#abafb1ff">
<path fill="#abafb1" opacity="1.00" d=" M 180.89 200.91 C 180.01 197.47 182.48 196.19 185.50 195.88 C 185.69 199.00 183.86 200.66 180.89 200.91 Z" />
</g>
<g id="#747c58f8">
<path fill="#747c58" opacity="0.97" d=" M 289.94 201.76 C 294.48 198.35 298.73 199.41 302.31 203.03 C 301.89 204.79 301.17 206.45 299.97 207.83 C 295.11 208.76 294.14 214.11 291.30 217.45 C 288.89 218.59 287.84 216.24 287.70 214.19 C 289.64 213.10 291.83 212.29 293.20 210.44 C 294.33 209.40 295.45 207.94 294.30 206.45 C 293.52 202.85 291.07 208.40 288.87 208.14 C 288.56 205.85 293.90 201.63 289.94 201.76 Z" />
</g>
<g id="#555c64ff">
<path fill="#555c64" opacity="1.00" d=" M 163.22 202.12 C 166.03 201.07 165.61 205.21 166.51 206.85 C 170.06 208.92 171.53 205.81 173.25 203.89 C 178.74 203.84 176.50 211.06 172.32 211.53 C 170.81 214.57 173.67 213.75 175.70 213.51 C 175.41 216.45 178.60 220.30 179.99 216.06 C 175.79 213.41 177.08 209.32 180.30 206.36 C 182.39 208.31 185.11 209.13 187.80 207.84 C 190.83 206.24 198.48 209.87 191.82 210.88 C 188.23 213.68 181.82 206.99 180.86 212.85 C 182.62 212.34 187.65 212.19 185.88 215.12 C 184.53 216.80 185.69 218.96 185.72 220.87 C 182.51 223.01 179.48 219.24 176.02 219.83 C 175.53 219.57 174.55 219.04 174.06 218.78 C 171.95 217.63 169.58 217.10 167.25 216.64 C 165.90 215.13 164.26 213.95 162.65 212.75 C 168.16 209.19 159.50 205.62 163.22 202.12 Z" />
</g>
<g id="#959e86ff">
<path fill="#959e86" opacity="1.00" d=" M 287.70 214.19 C 286.91 210.06 285.28 204.03 289.94 201.76 C 293.90 201.63 288.56 205.85 288.87 208.14 C 291.07 208.40 293.52 202.85 294.30 206.45 C 293.05 207.82 288.97 210.41 293.20 210.44 C 291.83 212.29 289.64 213.10 287.70 214.19 Z" />
</g>
<g id="#adb3a1ff">
<path fill="#adb3a1" opacity="1.00" d=" M 201.00 202.86 C 202.75 203.81 205.49 206.17 202.85 207.84 C 200.44 207.93 201.06 204.47 201.00 202.86 Z" />
</g>
<g id="#d9dec6ff">
<path fill="#d9dec6" opacity="1.00" d=" M 293.20 210.44 C 288.97 210.41 293.05 207.82 294.30 206.45 C 295.45 207.94 294.33 209.40 293.20 210.44 Z" />
</g>
<g id="#0000005a">
<path fill="#000000" opacity="0.35" d=" M 38.94 208.17 C 52.63 210.46 66.65 207.85 80.43 209.51 C 96.74 210.81 114.84 215.24 130.31 208.73 C 130.97 209.74 131.63 210.77 132.26 211.81 C 117.21 215.00 101.86 214.52 86.62 214.55 C 83.69 214.21 79.83 217.20 83.78 219.21 C 101.39 227.13 119.49 234.67 138.45 238.54 C 142.13 239.51 145.93 239.14 149.36 237.61 C 150.73 238.23 151.78 239.37 152.10 240.86 C 124.23 240.98 98.95 228.03 72.34 221.62 C 61.77 218.62 50.81 216.65 40.62 212.44 C 38.50 212.08 39.09 209.74 38.94 208.17 Z" />
</g>
<g id="#00000018">
<path fill="#000000" opacity="0.09" d=" M 291.30 217.45 C 294.14 214.11 295.11 208.76 299.97 207.83 C 292.36 218.63 286.78 230.79 280.10 242.06 C 279.32 248.48 272.47 241.48 271.30 246.29 C 268.06 252.67 259.97 254.28 256.02 260.07 C 254.70 261.48 254.22 264.28 251.74 263.61 C 246.45 264.08 245.52 272.19 239.63 270.58 C 231.72 274.17 223.45 278.55 216.03 283.04 C 210.98 278.71 207.17 285.39 202.01 286.03 C 193.79 288.63 184.74 294.78 176.40 291.56 C 173.10 293.85 172.81 292.34 173.87 289.00 C 170.00 288.81 163.38 292.36 162.42 286.79 C 161.11 282.34 157.12 287.64 155.09 288.99 C 152.00 286.94 158.58 279.33 150.74 283.98 C 143.82 283.76 136.89 285.46 130.39 282.08 C 130.58 285.75 127.58 284.56 125.15 284.24 C 123.23 285.59 121.74 288.00 119.17 288.05 C 115.77 281.17 108.70 291.98 104.53 285.50 C 101.40 283.78 101.98 294.57 98.28 290.71 C 95.54 285.95 88.38 297.56 87.57 290.16 C 82.27 290.94 77.86 294.30 72.14 290.43 C 68.14 294.17 66.56 287.05 61.95 287.50 C 55.06 288.87 49.46 283.94 42.67 284.35 C 43.20 273.83 38.32 280.94 34.31 282.83 C 33.88 280.46 33.17 278.13 31.67 276.21 C 26.64 273.20 27.07 290.20 25.53 277.51 C 26.23 273.20 22.31 271.26 20.55 275.73 C 19.38 273.47 12.35 270.19 17.61 269.48 C 21.70 268.73 14.69 264.72 14.55 268.44 C 13.06 273.89 11.14 267.32 9.57 265.47 C 6.35 264.69 3.15 263.89 0.00 262.88 L 0.00 231.69 C 6.08 238.10 16.54 232.65 22.21 238.98 C 29.46 234.56 37.41 241.80 44.08 244.87 C 48.02 249.74 55.55 245.72 59.47 251.13 C 58.11 256.71 66.09 251.50 68.74 254.22 C 70.57 259.04 75.89 259.74 78.38 264.43 C 82.63 262.50 85.77 264.12 88.00 267.99 C 92.34 261.73 101.11 271.48 104.58 263.59 C 106.03 260.25 106.44 266.19 108.41 264.36 C 110.05 262.79 112.18 262.97 114.11 263.87 C 121.06 266.66 128.43 262.28 135.47 264.29 C 141.72 264.17 147.32 267.92 153.63 266.53 C 162.72 269.12 171.48 273.67 181.03 275.03 C 190.95 272.71 201.37 272.34 211.04 269.06 C 213.46 268.41 214.46 266.24 215.20 264.07 C 216.29 262.11 217.38 260.16 218.34 258.14 C 219.38 256.92 219.51 255.21 218.89 253.77 C 220.50 254.31 222.21 254.16 223.88 254.03 C 228.91 255.13 234.18 255.42 239.24 254.27 C 245.72 252.52 251.66 248.46 258.70 250.67 C 266.97 251.93 267.66 240.45 276.17 242.44 C 278.09 241.82 279.90 240.24 280.25 238.17 C 280.62 233.99 282.81 230.50 284.99 227.08 C 288.76 225.11 289.10 220.65 291.30 217.45 Z" />
</g>
<g id="#8a8f94ff">
<path fill="#8a8f94" opacity="1.00" d=" M 180.86 212.85 C 181.82 206.99 188.23 213.68 191.82 210.88 C 194.05 210.86 197.13 210.49 195.88 213.66 C 191.42 210.92 187.62 222.72 185.88 215.12 C 187.65 212.19 182.62 212.34 180.86 212.85 Z" />
</g>
<g id="#5d5f6aff">
<path fill="#5d5f6a" opacity="1.00" d=" M 232.79 216.84 C 229.12 210.60 238.88 209.40 242.02 212.98 C 246.14 215.76 241.28 219.74 243.85 222.97 C 244.01 226.04 233.75 222.47 236.33 226.73 C 238.28 231.00 248.11 221.13 246.85 227.65 C 240.87 226.08 239.74 233.55 240.21 237.36 C 241.81 235.95 241.11 233.70 242.10 232.01 C 244.38 232.24 244.82 235.04 246.24 236.47 C 244.84 239.26 242.38 241.52 239.13 241.71 C 236.82 240.54 237.22 237.35 235.26 235.75 C 235.94 233.74 238.04 232.75 239.10 230.98 C 237.37 225.48 230.02 233.87 228.86 228.41 C 238.80 227.56 223.77 217.61 232.79 216.84 Z" />
</g>
<g id="#0000006b">
<path fill="#000000" opacity="0.42" d=" M 86.62 214.55 C 101.86 214.52 117.21 215.00 132.26 211.81 C 132.76 212.15 133.76 212.85 134.26 213.20 C 129.85 216.83 120.32 214.92 119.04 220.93 C 125.35 229.01 135.11 237.66 146.22 235.81 C 147.28 236.37 148.33 236.97 149.36 237.61 C 145.93 239.14 142.13 239.51 138.45 238.54 C 119.49 234.67 101.39 227.13 83.78 219.21 C 79.83 217.20 83.69 214.21 86.62 214.55 Z" />
</g>
<g id="#909297ff">
<path fill="#909297" opacity="1.00" d=" M 225.97 218.37 C 221.67 217.60 222.48 212.98 225.81 211.43 C 228.08 213.61 228.34 216.17 225.97 218.37 Z" />
</g>
<g id="#01010180">
<path fill="#010101" opacity="0.50" d=" M 134.26 213.20 C 137.47 214.59 135.08 219.30 136.57 221.57 C 137.42 227.56 142.03 231.89 146.22 235.81 C 135.11 237.66 125.35 229.01 119.04 220.93 C 120.32 214.92 129.85 216.83 134.26 213.20 Z" />
</g>
<g id="#393c47ff">
<path fill="#393c47" opacity="1.00" d=" M 212.84 215.90 C 213.75 214.84 214.45 213.50 215.86 213.03 C 222.39 215.83 215.17 219.93 217.59 223.72 C 216.37 224.12 215.13 224.46 213.93 224.93 C 213.61 225.07 212.96 225.33 212.64 225.46 C 207.16 226.34 207.44 231.90 205.88 235.89 C 202.51 235.12 204.12 230.43 202.42 228.06 C 205.71 225.21 209.44 221.88 214.12 222.62 C 213.18 220.45 211.86 218.34 212.84 215.90 Z" />
</g>
<g id="#8c8e9cff">
<path fill="#8c8e9c" opacity="1.00" d=" M 279.90 220.03 C 278.52 214.41 282.77 212.83 286.05 217.10 L 286.40 217.82 C 283.21 219.38 283.03 223.77 280.12 225.11 C 279.99 223.42 279.95 221.72 279.90 220.03 Z" />
</g>
<g id="#4e535cfe">
<path fill="#4e535c" opacity="1.00" d=" M 192.94 215.83 C 197.42 216.45 201.12 218.96 202.78 223.01 C 206.96 220.62 201.28 218.04 205.66 215.89 C 205.28 221.52 210.09 216.61 212.84 215.90 C 211.86 218.34 213.18 220.45 214.12 222.62 C 209.44 221.88 205.71 225.21 202.42 228.06 C 204.12 230.43 202.51 235.12 205.88 235.89 C 207.44 231.90 207.16 226.34 212.64 225.46 L 212.58 226.38 C 211.51 228.17 210.37 229.92 209.54 231.83 C 205.98 237.63 214.53 234.96 212.91 239.04 C 209.68 238.49 206.64 237.01 203.28 237.11 C 200.29 242.99 202.61 249.90 203.11 256.08 C 207.47 254.43 205.41 249.24 208.86 246.85 C 210.89 242.99 213.48 248.09 214.90 249.91 C 216.70 248.57 218.52 247.90 220.25 249.74 C 223.54 249.73 226.02 246.30 227.76 243.69 C 230.19 240.99 233.97 239.36 235.26 235.75 C 237.22 237.35 236.82 240.54 239.13 241.71 C 242.38 241.52 244.84 239.26 246.24 236.47 C 247.19 236.41 248.13 236.33 249.07 236.22 C 252.98 234.97 261.20 240.08 260.14 233.17 C 264.33 237.45 264.26 229.37 267.50 227.65 C 265.55 231.69 271.24 234.49 273.74 234.42 C 274.52 233.19 275.29 231.96 276.09 230.75 C 280.28 233.77 280.77 227.43 284.99 227.08 C 282.81 230.50 280.62 233.99 280.25 238.17 C 281.51 229.83 269.86 241.86 276.17 242.44 C 267.66 240.45 266.97 251.93 258.70 250.67 C 251.66 248.46 245.72 252.52 239.24 254.27 C 234.11 254.14 229.00 254.07 223.88 254.03 C 222.67 252.60 220.68 252.50 219.04 253.13 C 214.13 254.44 203.69 255.13 206.02 261.78 C 203.27 260.87 200.53 261.83 197.95 262.83 C 196.83 258.71 189.21 265.03 186.50 260.51 C 188.08 252.04 184.16 257.31 182.41 259.11 C 186.55 264.97 176.70 264.75 172.76 265.38 C 171.09 265.08 169.41 264.83 167.77 264.42 C 170.35 264.43 172.52 263.50 173.19 260.84 C 174.96 262.72 176.32 265.46 179.82 264.27 C 173.58 258.42 176.63 248.52 170.75 242.74 C 170.70 242.31 170.62 241.44 170.58 241.01 C 170.69 239.65 170.80 238.30 170.90 236.95 C 173.66 236.63 176.12 237.22 177.08 240.03 C 180.85 240.94 183.94 241.74 181.22 247.25 C 187.18 243.80 182.28 237.55 177.25 236.64 C 178.14 232.75 179.22 228.90 180.31 225.06 C 182.61 225.40 197.91 227.07 188.13 228.26 C 188.72 230.94 189.07 233.71 186.28 235.25 C 189.45 228.31 183.22 229.69 180.38 231.07 C 180.40 236.82 186.20 239.22 187.40 244.63 C 190.04 245.71 193.29 246.21 190.25 249.16 C 191.80 252.68 194.61 256.69 198.85 257.02 C 203.46 251.11 197.87 244.07 199.48 237.47 C 200.70 235.19 205.90 231.22 196.98 233.94 C 201.52 230.94 198.55 227.17 197.67 223.36 C 201.64 218.45 193.44 220.20 192.94 215.83 Z" />
</g>
<g id="#424750ff">
<path fill="#424750" opacity="1.00" d=" M 253.34 215.98 C 256.90 216.23 257.98 224.75 260.03 217.76 C 259.35 221.30 261.09 224.37 262.91 227.23 C 259.21 227.18 259.16 221.58 254.84 223.47 C 252.17 226.48 254.85 234.55 248.70 235.27 C 247.41 230.77 251.69 226.49 252.80 222.10 C 250.39 221.45 247.60 219.85 249.87 217.20 C 251.93 219.02 253.41 219.31 253.34 215.98 Z" />
</g>
<g id="#0000002b">
<path fill="#000000" opacity="0.17" d=" M 0.00 216.88 C 14.91 219.71 30.14 220.64 44.96 224.02 C 77.89 227.04 108.85 239.55 141.40 244.55 C 146.02 244.89 150.15 246.81 154.12 249.00 C 155.29 252.08 156.48 255.16 157.87 258.15 C 148.77 252.98 138.00 252.65 128.09 249.95 C 86.77 235.71 43.45 227.89 0.00 223.18 L 0.00 216.88 Z" />
</g>
<g id="#5b604eff">
<path fill="#5b604e" opacity="1.00" d=" M 169.79 236.88 C 159.54 237.59 152.00 215.47 165.99 216.79 C 166.23 223.97 177.00 230.76 169.79 236.88 Z" />
</g>
<g id="#63676fff">
<path fill="#63676f" opacity="1.00" d=" M 260.03 217.76 C 260.78 217.77 262.29 217.80 263.04 217.81 C 266.55 219.42 266.03 222.96 265.16 226.09 C 267.84 226.20 270.38 225.18 272.57 223.72 C 270.86 219.29 277.23 216.04 279.90 220.03 C 279.95 221.72 279.99 223.42 280.12 225.11 C 283.03 223.77 283.21 219.38 286.40 217.82 C 289.99 221.47 285.15 223.40 284.99 227.08 C 280.77 227.43 280.28 233.77 276.09 230.75 C 276.60 226.92 271.31 223.89 269.02 227.50 C 272.51 228.04 272.16 231.95 273.74 234.42 C 271.24 234.49 265.55 231.69 267.50 227.65 C 264.26 229.37 264.33 237.45 260.14 233.17 C 261.20 240.08 252.98 234.97 249.07 236.22 L 248.70 235.27 C 254.85 234.55 252.17 226.48 254.84 223.47 C 259.16 221.58 259.21 227.18 262.91 227.23 C 261.09 224.37 259.35 221.30 260.03 217.76 Z" />
</g>
<g id="#9696a3ff">
<path fill="#9696a3" opacity="1.00" d=" M 171.09 225.75 C 170.77 222.63 169.59 217.95 174.06 218.78 C 174.55 219.04 175.53 219.57 176.02 219.83 C 178.83 222.61 179.98 230.46 174.34 230.02 C 175.21 227.39 173.10 226.61 171.09 225.75 Z" />
</g>
<g id="#0000001f">
<path fill="#000000" opacity="0.12" d=" M 0.00 223.18 C 43.45 227.89 86.77 235.71 128.09 249.95 C 138.00 252.65 148.77 252.98 157.87 258.15 C 157.65 259.99 159.20 261.33 160.99 261.04 C 163.10 262.43 165.24 263.92 167.77 264.42 C 169.41 264.83 171.09 265.08 172.76 265.38 C 174.09 266.00 175.39 266.71 176.79 267.19 C 181.15 267.98 185.98 268.96 190.24 267.19 C 193.18 265.33 196.10 267.01 198.94 268.12 C 201.63 268.87 204.62 269.61 207.26 268.31 C 209.28 267.52 211.17 266.46 213.03 265.37 C 213.57 265.04 214.66 264.39 215.20 264.07 C 214.46 266.24 213.46 268.41 211.04 269.06 C 201.37 272.34 190.95 272.71 181.03 275.03 C 171.48 273.67 162.72 269.12 153.63 266.53 C 147.32 267.92 141.72 264.17 135.47 264.29 C 128.43 262.28 121.06 266.66 114.11 263.87 C 112.18 262.97 110.05 262.79 108.41 264.36 C 106.44 266.19 106.03 260.25 104.58 263.59 C 101.11 271.48 92.34 261.73 88.00 267.99 C 85.77 264.12 82.63 262.50 78.38 264.43 C 75.89 259.74 70.57 259.04 68.74 254.22 C 66.09 251.50 58.11 256.71 59.47 251.13 C 55.55 245.72 48.02 249.74 44.08 244.87 C 37.41 241.80 29.46 234.56 22.21 238.98 C 16.54 232.65 6.08 238.10 0.00 231.69 L 0.00 223.18 Z" />
</g>
<g id="#717778ff">
<path fill="#717778" opacity="1.00" d=" M 213.93 224.93 C 217.83 225.39 222.27 226.79 224.60 222.71 C 226.97 224.43 225.08 230.41 228.86 228.41 C 230.02 233.87 237.37 225.48 239.10 230.98 C 238.04 232.75 235.94 233.74 235.26 235.75 C 233.97 239.36 230.19 240.99 227.76 243.69 C 226.02 246.30 223.54 249.73 220.25 249.74 C 218.52 247.90 216.70 248.57 214.90 249.91 C 213.48 248.09 210.89 242.99 208.86 246.85 C 205.41 249.24 207.47 254.43 203.11 256.08 C 202.61 249.90 200.29 242.99 203.28 237.11 C 206.64 237.01 209.68 238.49 212.91 239.04 C 214.53 234.96 205.98 237.63 209.54 231.83 C 209.49 234.65 212.17 233.22 213.90 233.24 C 214.79 234.92 213.78 238.72 216.81 237.97 C 220.69 234.19 218.76 224.98 212.58 226.38 L 212.64 225.46 C 212.96 225.33 213.61 225.07 213.93 224.93 Z" />
</g>
<g id="#999f9eff">
<path fill="#999f9e" opacity="1.00" d=" M 212.58 226.38 C 218.76 224.98 220.69 234.19 216.81 237.97 C 213.78 238.72 214.79 234.92 213.90 233.24 C 212.17 233.22 209.49 234.65 209.54 231.83 C 210.37 229.92 211.51 228.17 212.58 226.38 Z" />
</g>
<g id="#868a98ff">
<path fill="#868a98" opacity="1.00" d=" M 269.02 227.50 C 271.31 223.89 276.60 226.92 276.09 230.75 C 275.29 231.96 274.52 233.19 273.74 234.42 C 272.16 231.95 272.51 228.04 269.02 227.50 Z" />
</g>
<g id="#585f4cfd">
<path fill="#585f4c" opacity="1.00" d=" M 156.03 235.26 C 160.60 237.85 166.26 238.07 170.58 241.01 C 170.62 241.44 170.70 242.31 170.75 242.74 C 167.77 243.98 168.45 248.19 168.01 250.88 C 169.84 254.25 174.88 256.34 173.19 260.84 C 172.52 263.50 170.35 264.43 167.77 264.42 C 165.24 263.92 163.10 262.43 160.99 261.04 C 160.61 259.51 159.45 258.37 157.87 258.15 C 156.48 255.16 155.29 252.08 154.12 249.00 C 154.00 247.73 153.88 246.47 153.77 245.20 C 154.08 241.79 153.67 238.03 156.03 235.26 Z" />
</g>
<g id="#808589f6">
<path fill="#808589" opacity="0.96" d=" M 276.17 242.44 C 269.86 241.86 281.51 229.83 280.25 238.17 C 279.90 240.24 278.09 241.82 276.17 242.44 Z" />
</g>
<g id="#777f69ff">
<path fill="#777f69" opacity="1.00" d=" M 168.01 250.88 C 168.45 248.19 167.77 243.98 170.75 242.74 C 176.63 248.52 173.58 258.42 179.82 264.27 C 176.32 265.46 174.96 262.72 173.19 260.84 C 174.88 256.34 169.84 254.25 168.01 250.88 Z" />
</g>
<g id="#90939ffc">
<path fill="#90939f" opacity="1.00" d=" M 206.02 261.78 C 203.69 255.13 214.13 254.44 219.04 253.13 L 218.89 253.77 C 217.55 254.87 217.69 256.70 218.34 258.14 C 217.38 260.16 216.29 262.11 215.20 264.07 C 214.66 264.39 213.57 265.04 213.03 265.37 C 210.58 264.39 208.40 262.90 206.02 261.78 Z" />
</g>
<g id="#1a1a1fa4">
<path fill="#1a1a1f" opacity="0.64" d=" M 219.04 253.13 C 220.68 252.50 222.67 252.60 223.88 254.03 C 222.21 254.16 220.50 254.31 218.89 253.77 L 219.04 253.13 Z" />
</g>
<g id="#3f40459b">
<path fill="#3f4045" opacity="0.61" d=" M 218.34 258.14 C 217.69 256.70 217.55 254.87 218.89 253.77 C 219.51 255.21 219.38 256.92 218.34 258.14 Z" />
</g>
<g id="#1c1c21a4">
<path fill="#1c1c21" opacity="0.64" d=" M 223.88 254.03 C 229.00 254.07 234.11 254.14 239.24 254.27 C 234.18 255.42 228.91 255.13 223.88 254.03 Z" />
</g>
<g id="#373a41f9">
<path fill="#373a41" opacity="0.98" d=" M 182.41 259.11 C 184.16 257.31 188.08 252.04 186.50 260.51 C 189.21 265.03 196.83 258.71 197.95 262.83 C 196.37 265.14 198.06 266.87 199.96 268.16 L 198.94 268.12 C 196.10 267.01 193.18 265.33 190.24 267.19 C 185.75 267.17 181.27 267.22 176.79 267.19 C 175.39 266.71 174.09 266.00 172.76 265.38 C 176.70 264.75 186.55 264.97 182.41 259.11 Z" />
</g>
<g id="#12121768">
<path fill="#121217" opacity="0.41" d=" M 157.87 258.15 C 159.45 258.37 160.61 259.51 160.99 261.04 C 159.20 261.33 157.65 259.99 157.87 258.15 Z" />
</g>
<g id="#5e663efb">
<path fill="#5e663e" opacity="1.00" d=" M 197.95 262.83 C 200.53 261.83 203.27 260.87 206.02 261.78 C 208.40 262.90 210.58 264.39 213.03 265.37 C 211.17 266.46 209.28 267.52 207.26 268.31 C 205.44 268.27 201.79 268.20 199.96 268.16 C 198.06 266.87 196.37 265.14 197.95 262.83 Z" />
</g>
<g id="#12141790">
<path fill="#121417" opacity="0.56" d=" M 176.79 267.19 C 181.27 267.22 185.75 267.17 190.24 267.19 C 185.98 268.96 181.15 267.98 176.79 267.19 Z" />
</g>
<g id="#1f231392">
<path fill="#1f2313" opacity="0.57" d=" M 198.94 268.12 L 199.96 268.16 C 201.79 268.20 205.44 268.27 207.26 268.31 C 204.62 269.61 201.63 268.87 198.94 268.12 Z" />
</g>
</svg>
