<?xml version="1.0" encoding="UTF-8" ?>
<!DOCTYPE svg PUBLIC "-//W3C//DTD SVG 1.1//EN" "http://www.w3.org/Graphics/SVG/1.1/DTD/svg11.dtd">
<svg width="384pt" height="384pt" viewBox="0 0 384 384" version="1.1" xmlns="http://www.w3.org/2000/svg">
<g id="#0000000f">
<path fill="#000000" opacity="0.06" d=" M 0.00 0.00 L 118.32 0.00 C 114.81 3.63 111.15 7.12 107.83 10.93 C 117.17 12.96 126.47 9.61 135.78 9.10 C 138.98 13.59 144.97 10.74 149.62 11.63 C 158.12 12.77 168.38 11.52 175.35 17.52 C 178.87 18.57 181.02 22.01 184.79 22.40 C 184.31 24.41 183.13 26.47 184.39 28.46 C 185.83 30.57 181.64 33.03 184.35 34.60 C 186.51 35.84 183.67 40.53 187.50 38.69 C 189.99 27.99 202.25 29.02 210.93 27.56 C 218.42 30.10 226.21 28.43 233.84 28.02 C 235.66 29.74 237.23 31.72 239.15 33.34 C 234.95 36.45 234.64 32.54 233.79 29.05 C 230.30 28.40 227.12 29.76 223.95 30.83 C 222.26 30.38 220.54 30.02 218.80 29.92 C 214.07 30.75 208.00 27.07 204.13 31.11 C 201.59 33.48 197.51 29.20 195.18 32.18 C 192.47 34.20 193.31 37.78 192.71 40.75 C 188.93 43.29 184.97 45.55 181.17 48.07 L 180.27 47.83 C 177.81 46.53 174.71 45.30 172.81 47.75 C 171.12 48.69 169.51 49.76 167.99 50.95 C 164.22 56.59 161.42 65.44 152.64 65.68 C 151.10 68.09 146.34 69.59 146.54 65.36 C 147.91 57.27 149.10 48.79 150.79 40.64 C 154.10 38.10 152.23 33.88 152.44 30.37 C 149.19 25.52 142.77 28.86 138.23 26.90 C 131.84 23.87 125.31 27.31 118.82 27.06 C 113.85 24.36 110.43 32.81 104.54 29.85 C 96.33 32.85 86.45 30.84 79.51 36.49 C 72.64 38.77 64.21 38.22 59.31 44.32 C 54.56 45.95 47.17 40.11 45.78 47.66 C 36.15 45.84 29.07 54.64 20.05 53.96 C 18.80 58.21 13.54 61.57 12.47 55.30 C 7.97 55.03 4.13 59.31 0.00 61.07 L 0.00 0.00 Z" />
</g>
<g id="#00000017">
<path fill="#000000" opacity="0.09" d=" M 118.82 27.06 C 125.31 27.31 131.84 23.87 138.23 26.90 C 142.77 28.86 149.19 25.52 152.44 30.37 C 152.23 33.88 154.10 38.10 150.79 40.64 C 149.10 48.79 147.91 57.27 146.54 65.36 C 146.34 69.59 151.10 68.09 152.64 65.68 C 161.42 65.44 164.22 56.59 167.99 50.95 C 167.92 51.41 167.77 52.32 167.69 52.77 C 167.89 61.43 159.44 64.54 153.75 68.79 C 152.58 71.52 152.87 74.56 153.71 77.31 C 154.43 81.04 154.13 84.83 152.17 88.09 C 149.94 90.98 148.35 94.42 145.87 97.06 C 138.42 96.91 133.99 89.47 126.90 88.12 C 125.34 83.19 120.10 81.82 116.60 78.64 C 115.68 74.89 112.02 73.20 109.60 70.53 C 109.41 67.71 110.03 62.23 107.39 61.40 C 106.48 64.76 99.19 64.91 101.96 60.99 C 105.72 55.94 94.27 63.32 96.68 57.87 C 97.29 52.59 92.26 56.77 90.54 58.59 C 78.22 57.97 66.81 62.25 55.25 65.29 C 47.85 68.17 40.93 73.23 32.62 72.77 C 30.01 72.44 32.90 74.85 33.11 75.99 C 20.91 76.59 11.62 86.45 0.00 88.19 L 0.00 61.07 C 4.13 59.31 7.97 55.03 12.47 55.30 C 13.54 61.57 18.80 58.21 20.05 53.96 C 29.07 54.64 36.15 45.84 45.78 47.66 C 47.17 40.11 54.56 45.95 59.31 44.32 C 64.21 38.22 72.64 38.77 79.51 36.49 C 86.45 30.84 96.33 32.85 104.54 29.85 C 110.43 32.81 113.85 24.36 118.82 27.06 Z" />
<path fill="#000000" opacity="0.09" d=" M 0.00 289.42 C 2.03 292.77 1.46 298.50 6.62 299.27 C 6.40 297.47 6.11 295.68 5.91 293.88 C 7.75 296.83 10.64 301.11 14.42 300.68 C 15.37 296.11 23.51 295.06 22.27 300.98 C 26.91 297.55 32.24 302.99 36.42 297.55 C 42.59 298.81 48.47 296.02 49.48 290.07 C 51.36 295.17 57.50 297.51 62.40 296.43 C 65.55 295.85 63.41 292.10 65.79 290.78 C 65.90 292.65 66.12 296.38 66.23 298.24 C 69.79 296.17 73.65 295.39 77.80 296.23 C 84.10 295.14 87.10 303.96 93.42 302.58 C 95.33 305.30 99.11 309.27 102.47 306.55 C 110.79 305.17 119.75 308.31 127.84 306.21 C 131.40 308.92 134.46 306.77 137.20 304.09 C 141.17 305.09 145.00 306.54 148.88 304.00 C 151.22 308.51 149.97 318.16 157.17 317.91 C 160.01 318.07 162.44 319.58 163.94 321.97 C 164.08 324.72 164.40 328.65 167.77 329.25 C 170.95 330.05 173.98 331.48 176.14 334.03 C 171.55 333.16 166.15 332.95 163.13 328.89 C 158.06 322.49 148.89 321.71 141.37 322.47 C 136.78 325.49 129.14 324.83 128.81 331.89 C 128.40 337.09 123.00 328.56 121.79 333.83 C 120.60 337.90 117.20 338.24 114.12 336.13 C 110.91 339.89 104.16 338.55 106.79 332.87 C 103.64 333.39 104.45 337.88 102.86 340.10 C 100.69 340.07 99.85 337.76 98.45 336.49 C 91.13 336.17 82.93 338.09 76.48 333.53 C 74.21 331.46 71.29 331.01 68.45 332.20 C 70.03 336.59 63.32 337.73 63.26 333.27 C 59.32 331.16 54.13 328.89 50.10 332.79 C 48.79 324.12 39.99 332.12 34.57 328.71 C 34.15 321.76 27.77 334.26 25.55 327.57 C 24.74 322.00 21.26 329.01 18.41 327.74 C 14.62 322.13 6.12 323.52 0.00 324.10 L 0.00 289.42 Z" />
</g>
<g id="#434953fe">
<path fill="#434953" opacity="1.00" d=" M 204.13 31.11 C 208.00 27.07 214.07 30.75 218.80 29.92 C 217.15 32.14 223.54 34.49 219.19 33.71 C 215.78 32.34 216.44 35.67 216.83 37.93 C 215.23 38.18 212.04 38.68 210.44 38.94 C 208.54 40.02 211.05 43.84 208.01 42.80 C 205.05 41.77 202.94 44.71 200.02 44.24 C 197.57 44.15 193.34 45.88 196.29 48.48 C 200.16 47.81 207.40 51.71 200.36 53.35 C 203.52 59.72 195.18 57.48 194.41 62.54 C 192.15 62.80 189.92 63.20 187.72 63.71 C 184.02 64.07 187.01 69.29 189.29 70.10 C 187.21 74.71 180.11 64.63 182.36 74.54 C 180.19 78.93 187.19 79.81 187.67 82.80 C 186.97 88.59 176.92 81.15 180.92 90.03 C 179.49 94.92 184.58 96.27 187.93 93.82 C 182.67 85.99 193.57 81.27 198.77 77.83 C 197.19 82.77 194.98 87.54 191.38 91.34 C 192.30 94.25 195.61 96.33 194.44 99.79 C 193.47 103.32 197.07 104.51 199.76 105.19 C 200.04 105.44 200.58 105.96 200.86 106.21 C 203.04 108.62 206.08 109.85 209.16 110.66 C 203.93 112.30 199.28 115.33 194.35 117.62 C 191.96 114.57 187.97 115.11 184.87 116.79 C 181.85 115.15 178.81 110.00 175.03 112.97 C 168.32 120.07 170.58 130.89 176.11 137.92 C 173.54 138.93 168.22 137.05 167.98 140.75 C 172.90 140.12 171.33 142.66 170.44 145.92 C 171.72 149.64 166.01 150.14 166.96 153.83 C 169.17 154.97 172.49 154.91 172.97 157.96 C 171.92 160.43 167.73 164.95 173.00 164.47 C 177.03 163.18 177.12 169.15 180.05 169.77 C 187.52 167.19 176.32 179.19 182.96 179.58 C 186.39 178.63 185.07 183.15 185.56 185.17 C 182.13 192.90 187.20 192.85 191.79 190.07 C 192.70 192.31 193.33 194.63 190.04 194.38 C 190.81 196.43 191.92 198.32 192.90 200.28 C 192.27 205.07 191.11 196.00 188.22 196.94 C 187.95 198.44 187.71 199.94 187.47 201.44 C 186.86 197.67 183.40 193.49 180.97 198.80 C 184.72 201.39 183.04 206.79 186.95 209.27 C 182.43 210.38 181.97 202.19 179.35 207.41 C 181.35 208.41 179.37 210.23 179.05 211.67 C 183.04 210.80 184.95 215.23 188.17 216.77 C 192.97 219.88 183.95 220.37 181.89 218.38 C 181.75 216.76 181.61 215.13 181.06 213.60 C 177.66 210.67 172.95 213.00 174.56 217.54 C 170.99 217.64 171.23 222.68 174.82 222.47 C 176.30 225.57 171.32 224.24 172.07 226.95 C 172.40 228.96 175.77 228.81 176.11 231.11 C 176.08 231.58 176.02 232.53 175.99 233.00 C 173.92 231.36 171.34 230.81 168.84 230.19 C 168.38 229.87 167.45 229.22 166.99 228.90 C 161.70 225.79 157.44 221.36 153.99 216.98 C 156.17 215.74 156.09 213.19 156.21 211.01 C 159.05 213.38 163.38 213.98 164.85 209.85 C 163.41 213.59 171.83 217.67 169.98 212.08 C 169.90 209.55 166.59 210.09 164.85 209.85 C 166.74 208.44 169.86 208.25 170.25 205.49 C 177.21 204.11 172.33 197.55 167.18 199.08 C 172.83 194.13 162.16 196.10 164.18 191.26 C 168.16 187.83 172.72 184.66 176.98 188.97 C 180.69 183.98 173.23 182.49 169.61 182.80 C 165.23 183.40 162.48 177.46 164.95 174.04 C 163.54 169.28 158.67 166.78 156.04 162.86 C 154.70 158.86 159.02 159.88 162.05 159.81 C 162.55 157.78 160.39 157.32 158.91 156.92 C 162.31 154.97 165.30 152.00 162.80 147.98 C 158.54 148.42 155.56 152.51 156.00 156.68 C 148.62 150.62 148.14 168.63 141.03 164.60 C 138.53 166.40 137.59 169.52 135.89 171.97 C 134.45 172.17 133.01 172.39 131.58 172.64 C 134.16 168.48 135.28 163.87 135.17 158.96 C 135.25 158.51 135.40 157.62 135.48 157.17 C 135.71 156.88 136.17 156.29 136.40 156.00 C 136.58 155.76 136.94 155.27 137.11 155.03 C 138.14 151.71 138.86 147.14 137.11 143.85 C 135.15 140.54 133.72 136.86 133.87 132.95 C 133.91 131.62 133.95 130.29 134.00 128.96 C 134.03 128.50 134.09 127.58 134.12 127.12 C 134.77 125.15 135.44 123.18 136.21 121.25 C 139.79 116.75 144.33 112.70 146.15 107.09 C 147.15 102.70 149.06 98.65 151.14 94.69 C 151.52 98.96 153.01 99.54 155.69 96.29 C 156.29 99.86 158.94 99.94 161.89 98.81 C 161.48 96.15 160.78 93.52 159.76 91.02 C 156.85 91.01 154.25 94.48 151.50 91.99 C 151.69 90.68 151.92 89.38 152.17 88.09 C 154.13 84.83 154.43 81.04 153.71 77.31 C 153.72 74.47 153.74 71.63 153.75 68.79 C 159.44 64.54 167.89 61.43 167.69 52.77 C 167.61 59.54 182.00 53.53 181.17 48.07 C 184.97 45.55 188.93 43.29 192.71 40.75 C 193.31 37.78 192.47 34.20 195.18 32.18 C 197.51 29.20 201.59 33.48 204.13 31.11 M 166.34 80.38 C 163.62 82.29 162.18 89.18 158.92 83.88 C 157.45 88.32 163.47 92.95 166.86 88.77 C 166.27 86.39 167.53 80.57 166.34 80.38 M 171.97 82.00 C 170.98 84.75 174.10 87.48 176.35 85.34 C 178.68 82.61 174.11 81.29 171.97 82.00 M 174.24 100.21 C 170.91 106.04 183.43 115.23 186.95 108.12 C 178.63 111.15 180.69 99.85 174.24 100.21 M 167.30 104.30 C 164.40 104.43 164.41 107.67 167.37 107.64 C 175.33 112.25 171.97 100.99 167.30 104.30 M 154.29 108.27 C 146.57 110.50 152.82 118.59 158.69 112.69 C 163.67 109.42 157.72 107.33 154.29 108.27 M 152.35 129.35 C 150.17 135.13 159.95 141.58 164.05 137.07 C 164.29 136.83 164.77 136.35 165.00 136.11 C 167.38 135.31 165.80 129.83 169.19 131.76 C 169.22 122.20 155.40 121.28 152.35 129.35 M 142.23 125.13 C 139.43 127.38 137.77 131.44 140.72 134.32 C 145.76 137.64 149.15 123.01 142.23 125.13 M 171.31 172.21 C 167.87 173.95 166.49 178.85 171.29 179.73 C 178.20 183.04 179.34 168.31 171.31 172.21 Z" />
</g>
<g id="#3c3d45f3">
<path fill="#3c3d45" opacity="0.95" d=" M 223.95 30.83 C 227.12 29.76 230.30 28.40 233.79 29.05 C 234.64 32.54 234.95 36.45 239.15 33.34 C 248.06 29.28 247.65 40.51 242.24 43.18 C 244.39 39.04 240.35 35.57 236.45 37.84 C 234.46 36.80 231.52 34.58 229.69 37.08 C 228.42 38.35 226.83 40.25 227.63 37.22 C 223.94 38.74 223.00 33.44 223.95 30.83 Z" />
</g>
<g id="#5b5e63fc">
<path fill="#5b5e63" opacity="1.00" d=" M 218.80 29.92 C 220.54 30.02 222.26 30.38 223.95 30.83 C 223.00 33.44 223.94 38.74 227.63 37.22 C 226.83 40.25 228.42 38.35 229.69 37.08 C 230.83 41.33 236.37 44.29 236.45 37.84 C 240.35 35.57 244.39 39.04 242.24 43.18 C 239.38 45.82 235.19 47.22 233.80 51.18 L 233.41 50.65 C 232.30 47.14 224.62 45.23 223.78 48.02 C 220.96 50.30 221.21 46.03 221.42 44.18 C 218.69 43.10 217.35 40.73 216.83 37.93 C 216.44 35.67 215.78 32.34 219.19 33.71 C 223.54 34.49 217.15 32.14 218.80 29.92 Z" />
</g>
<g id="#78848fff">
<path fill="#78848f" opacity="1.00" d=" M 229.69 37.08 C 231.52 34.58 234.46 36.80 236.45 37.84 C 236.37 44.29 230.83 41.33 229.69 37.08 Z" />
</g>
<g id="#6e707afe">
<path fill="#6e707a" opacity="1.00" d=" M 210.44 38.94 C 212.04 38.68 215.23 38.18 216.83 37.93 C 217.35 40.73 218.69 43.10 221.42 44.18 C 221.21 46.03 220.96 50.30 223.78 48.02 C 224.64 50.84 225.51 53.98 228.20 55.62 C 231.04 55.35 234.08 54.20 233.41 50.65 L 233.80 51.18 C 234.50 52.14 235.24 53.07 236.02 53.96 C 237.93 57.49 244.66 56.74 244.94 60.81 C 239.53 63.41 232.26 63.37 227.16 61.72 C 224.26 64.90 230.19 64.71 232.20 65.76 C 228.08 68.06 225.06 64.18 221.16 64.55 C 220.44 62.87 219.58 61.25 218.78 59.61 C 223.59 55.78 221.69 47.57 215.04 48.73 C 218.30 44.40 212.01 42.38 210.44 38.94 Z" />
</g>
<g id="#5b5e66fd">
<path fill="#5b5e66" opacity="1.00" d=" M 208.01 42.80 C 211.05 43.84 208.54 40.02 210.44 38.94 C 212.01 42.38 218.30 44.40 215.04 48.73 C 208.89 51.78 215.36 57.18 218.78 59.61 C 219.58 61.25 220.44 62.87 221.16 64.55 C 220.08 65.71 219.04 66.91 218.05 68.14 C 217.73 67.09 217.42 66.04 217.10 64.99 C 216.66 63.37 216.06 61.60 214.42 60.83 C 213.13 59.28 207.44 56.25 208.78 60.21 C 211.42 63.86 206.82 60.90 205.00 60.30 C 203.68 63.32 205.21 66.18 206.21 69.02 C 204.41 67.21 202.95 64.40 199.95 64.93 C 200.67 68.02 200.80 75.33 205.44 73.71 C 206.75 69.14 212.72 71.80 216.24 70.38 C 212.90 79.34 199.28 82.23 200.23 92.68 C 200.07 96.85 199.92 101.02 199.76 105.19 C 197.07 104.51 193.47 103.32 194.44 99.79 C 195.61 96.33 192.30 94.25 191.38 91.34 C 194.98 87.54 197.19 82.77 198.77 77.83 C 193.57 81.27 182.67 85.99 187.93 93.82 C 184.58 96.27 179.49 94.92 180.92 90.03 C 176.92 81.15 186.97 88.59 187.67 82.80 C 187.19 79.81 180.19 78.93 182.36 74.54 C 180.11 64.63 187.21 74.71 189.29 70.10 C 192.34 72.13 195.46 74.18 199.13 74.89 C 198.90 71.24 198.52 66.25 194.32 70.05 C 196.21 63.92 191.23 64.36 187.72 63.71 C 189.92 63.20 192.15 62.80 194.41 62.54 C 195.18 57.48 203.52 59.72 200.36 53.35 C 207.40 51.71 200.16 47.81 196.29 48.48 C 193.34 45.88 197.57 44.15 200.02 44.24 C 202.94 44.71 205.05 41.77 208.01 42.80 Z" />
</g>
<g id="#9ba49cff">
<path fill="#9ba49c" opacity="1.00" d=" M 223.78 48.02 C 224.62 45.23 232.30 47.14 233.41 50.65 C 234.08 54.20 231.04 55.35 228.20 55.62 C 225.51 53.98 224.64 50.84 223.78 48.02 Z" />
</g>
<g id="#353a45bf">
<path fill="#353a45" opacity="0.75" d=" M 172.81 47.75 C 174.71 45.30 177.81 46.53 180.27 47.83 C 178.40 47.81 174.67 47.77 172.81 47.75 Z" />
</g>
<g id="#676d85fc">
<path fill="#676d85" opacity="1.00" d=" M 167.99 50.95 C 169.51 49.76 171.12 48.69 172.81 47.75 C 174.67 47.77 178.40 47.81 180.27 47.83 L 181.17 48.07 C 182.00 53.53 167.61 59.54 167.69 52.77 C 167.77 52.32 167.92 51.41 167.99 50.95 Z" />
</g>
<g id="#8e929aff">
<path fill="#8e929a" opacity="1.00" d=" M 218.78 59.61 C 215.36 57.18 208.89 51.78 215.04 48.73 C 221.69 47.57 223.59 55.78 218.78 59.61 Z" />
</g>
<g id="#4a4a51f9">
<path fill="#4a4a51" opacity="0.98" d=" M 236.02 53.96 C 239.94 54.89 243.94 55.19 247.97 55.32 C 249.52 56.32 251.48 56.44 253.13 55.55 C 259.92 57.80 256.56 64.89 250.29 65.26 C 246.75 65.17 243.15 64.63 239.71 65.67 C 239.11 65.81 237.89 66.10 237.29 66.24 C 235.62 65.81 233.92 65.22 232.20 65.76 C 230.19 64.71 224.26 64.90 227.16 61.72 C 232.26 63.37 239.53 63.41 244.94 60.81 C 244.66 56.74 237.93 57.49 236.02 53.96 Z" />
</g>
<g id="#00000020">
<path fill="#000000" opacity="0.13" d=" M 90.54 58.59 C 92.26 56.77 97.29 52.59 96.68 57.87 C 94.27 63.32 105.72 55.94 101.96 60.99 C 99.19 64.91 106.48 64.76 107.39 61.40 C 110.03 62.23 109.41 67.71 109.60 70.53 C 112.02 73.20 115.68 74.89 116.60 78.64 C 120.10 81.82 125.34 83.19 126.90 88.12 C 133.99 89.47 138.42 96.91 145.87 97.06 C 148.35 94.42 149.94 90.98 152.17 88.09 C 151.92 89.38 151.69 90.68 151.50 91.99 C 151.35 92.88 151.23 93.79 151.14 94.69 C 149.06 98.65 147.15 102.70 146.15 107.09 C 142.28 109.37 137.93 115.73 133.51 111.46 C 128.41 109.14 124.76 102.89 118.40 104.60 C 113.09 105.23 110.62 97.79 105.37 102.33 C 96.42 98.84 86.34 103.14 77.49 98.53 C 74.00 104.12 67.08 99.62 62.19 102.05 C 59.66 102.84 56.54 97.75 55.28 102.28 C 51.71 107.98 46.46 102.47 42.29 100.84 C 40.95 115.12 41.22 96.14 34.64 102.61 C 31.29 105.75 28.34 110.23 22.60 109.44 C 14.33 108.59 7.98 115.15 0.00 115.48 L 0.00 88.19 C 11.62 86.45 20.91 76.59 33.11 75.99 C 32.90 74.85 30.01 72.44 32.62 72.77 C 40.93 73.23 47.85 68.17 55.25 65.29 C 66.81 62.25 78.22 57.97 90.54 58.59 Z" />
</g>
<g id="#17161c99">
<path fill="#17161c" opacity="0.60" d=" M 247.97 55.32 C 249.60 54.92 251.31 54.53 252.99 54.91 L 253.13 55.55 C 251.48 56.44 249.52 56.32 247.97 55.32 Z" />
</g>
<g id="#00000011">
<path fill="#000000" opacity="0.07" d=" M 252.99 54.91 C 256.93 54.48 258.73 58.52 258.90 61.82 C 253.49 67.46 245.44 68.94 238.22 70.07 C 238.93 73.11 239.30 76.93 242.46 78.48 C 248.26 81.49 251.54 87.54 254.33 93.17 C 253.06 98.49 251.89 104.50 256.62 108.38 C 256.56 112.61 255.70 116.74 260.17 118.94 C 252.73 123.07 263.60 127.67 260.23 133.57 C 265.16 134.31 266.80 139.81 270.65 142.43 C 271.73 145.34 265.99 151.30 270.76 152.69 C 276.42 147.19 277.41 158.10 282.28 158.02 C 282.55 156.11 283.38 154.35 285.41 153.84 C 285.40 156.56 287.81 160.16 285.11 162.10 C 280.73 164.93 287.62 171.10 290.55 171.54 C 294.38 167.93 293.18 173.99 297.10 173.00 C 297.22 170.48 295.22 168.77 294.02 166.80 C 296.75 166.73 298.78 168.74 300.08 170.93 C 298.44 173.34 296.42 175.47 294.97 178.00 C 297.83 181.60 302.39 184.47 307.06 184.42 C 310.91 186.30 307.83 189.69 304.17 189.36 C 307.36 191.58 307.25 195.09 305.31 199.99 C 307.06 203.89 312.19 205.39 315.97 207.19 C 316.75 210.85 310.87 208.93 309.41 211.40 C 308.29 213.48 307.15 215.63 306.88 218.02 C 308.95 217.90 310.99 217.47 313.04 217.18 C 312.61 220.53 310.68 223.27 309.02 226.09 C 308.64 229.34 312.30 230.05 314.76 229.42 C 317.38 230.94 313.61 234.48 312.18 236.05 C 313.03 238.01 314.86 239.66 314.98 241.86 C 313.84 244.38 309.65 245.29 312.17 249.18 C 315.65 250.65 319.83 253.55 316.13 257.10 C 323.51 256.16 320.27 259.78 320.68 264.16 C 317.04 264.13 316.01 258.36 312.42 259.25 C 311.53 261.06 310.57 262.87 310.03 264.82 C 311.64 266.65 314.03 264.36 315.99 264.24 C 318.30 267.97 318.85 272.76 313.08 272.41 C 312.45 276.60 317.59 277.68 320.28 279.59 C 316.64 280.13 309.70 280.66 309.98 285.95 C 311.28 289.95 307.99 292.06 306.17 294.77 C 307.59 296.27 311.62 297.92 309.37 300.32 C 306.60 302.80 304.32 299.11 302.08 297.83 C 301.58 299.59 301.82 301.63 300.54 303.09 C 299.36 299.87 298.53 294.87 293.97 295.88 C 294.95 297.64 296.17 299.26 297.13 301.03 C 293.75 302.05 292.75 298.87 292.85 296.16 C 291.14 299.26 286.15 298.48 285.99 302.60 C 287.24 303.10 289.73 302.79 288.80 304.85 C 285.28 307.11 281.68 303.35 277.78 304.43 C 278.91 307.31 281.55 309.84 279.69 313.32 C 274.33 314.83 274.94 321.33 274.88 325.80 C 271.88 324.52 265.30 319.28 266.43 325.89 C 261.32 332.36 252.80 334.40 245.94 338.22 C 247.23 342.67 250.77 349.27 245.78 352.68 C 242.79 352.13 239.46 351.59 237.32 354.31 C 233.23 359.30 225.86 356.08 220.41 356.44 C 216.60 355.79 214.30 361.40 210.35 358.72 C 200.00 353.61 188.54 359.99 178.46 354.68 C 173.91 350.44 172.72 359.98 169.22 356.81 C 167.12 355.19 163.34 353.73 163.67 357.88 C 159.84 354.85 154.79 359.13 152.29 362.10 C 155.71 366.31 150.57 364.45 147.29 364.14 C 142.26 372.75 131.65 376.55 122.87 381.90 C 120.10 381.02 114.34 378.83 116.78 384.00 L 0.00 384.00 L 0.00 324.10 C 6.12 323.52 14.62 322.13 18.41 327.74 C 21.26 329.01 24.74 322.00 25.55 327.57 C 27.77 334.26 34.15 321.76 34.57 328.71 C 39.99 332.12 48.79 324.12 50.10 332.79 C 54.13 328.89 59.32 331.16 63.26 333.27 C 63.32 337.73 70.03 336.59 68.45 332.20 C 71.29 331.01 74.21 331.46 76.48 333.53 C 82.93 338.09 91.13 336.17 98.45 336.49 C 99.85 337.76 100.69 340.07 102.86 340.10 C 104.45 337.88 103.64 333.39 106.79 332.87 C 104.16 338.55 110.91 339.89 114.12 336.13 C 117.20 338.24 120.60 337.90 121.79 333.83 C 123.00 328.56 128.40 337.09 128.81 331.89 C 129.14 324.83 136.78 325.49 141.37 322.47 C 148.89 321.71 158.06 322.49 163.13 328.89 C 166.15 332.95 171.55 333.16 176.14 334.03 C 183.90 334.47 185.87 342.26 192.44 344.61 C 191.61 349.20 196.32 355.48 201.02 351.97 C 204.11 349.46 204.78 355.26 207.79 355.02 C 209.63 355.05 211.44 354.64 213.21 354.19 C 216.49 354.04 219.83 354.09 223.07 353.43 C 227.00 353.30 234.63 358.12 234.70 351.81 C 234.80 346.02 242.72 354.00 245.24 350.41 C 251.35 340.04 228.58 338.80 235.99 329.93 C 241.78 329.13 247.73 329.56 253.43 328.14 C 259.14 327.59 257.33 319.72 252.16 319.50 C 251.67 319.34 250.69 319.01 250.20 318.85 C 246.76 318.00 243.26 317.99 239.77 318.15 C 235.84 317.23 232.03 315.84 228.08 314.99 C 225.45 314.45 222.83 314.16 220.18 313.85 C 215.39 309.52 210.34 304.45 208.51 298.37 C 208.98 293.72 214.78 291.47 211.14 297.15 C 217.35 299.10 212.51 289.17 218.10 290.60 C 221.69 290.20 226.32 287.47 225.31 283.03 C 232.67 288.40 234.74 277.55 239.32 273.56 C 244.29 274.05 246.33 268.87 248.24 265.21 C 254.25 252.93 247.81 239.18 252.32 226.61 C 252.74 221.58 250.27 219.60 245.99 217.85 C 250.30 215.33 252.82 209.24 245.81 209.56 C 251.15 206.42 257.01 203.61 260.99 198.89 C 262.08 197.57 263.22 196.30 264.32 194.98 C 266.09 192.59 266.11 190.56 264.38 188.90 C 261.73 186.81 259.35 184.27 256.29 182.81 C 251.00 179.82 245.11 178.26 239.14 177.34 C 239.06 176.56 238.89 175.02 238.81 174.24 C 238.97 170.40 238.75 166.58 238.16 162.80 C 236.16 154.61 230.72 147.97 223.95 143.15 C 221.41 139.88 219.45 135.61 215.01 134.81 C 214.93 133.20 214.95 131.59 215.01 129.99 C 215.46 129.07 215.86 128.13 216.22 127.18 C 216.89 124.40 217.62 121.39 216.31 118.71 C 214.91 115.41 212.65 111.91 209.16 110.66 C 206.08 109.85 203.04 108.62 200.86 106.21 C 200.62 101.73 201.58 97.05 200.23 92.68 C 199.28 82.23 212.90 79.34 216.24 70.38 L 216.85 69.93 C 220.65 69.95 224.43 69.70 228.21 69.20 C 231.31 68.51 234.40 67.61 237.29 66.24 C 237.89 66.10 239.11 65.81 239.71 65.67 C 243.18 65.60 246.95 66.72 250.29 65.26 C 256.56 64.89 259.92 57.80 253.13 55.55 L 252.99 54.91 Z" />
</g>
<g id="#7b816eff">
<path fill="#7b816e" opacity="1.00" d=" M 208.78 60.21 C 207.44 56.25 213.13 59.28 214.42 60.83 C 212.35 63.03 208.42 64.36 208.91 67.98 C 211.81 67.55 214.70 66.73 217.10 64.99 C 217.42 66.04 217.73 67.09 218.05 68.14 L 218.02 68.95 C 217.73 69.20 217.14 69.69 216.85 69.93 L 216.24 70.38 C 212.72 71.80 206.75 69.14 205.44 73.71 C 200.80 75.33 200.67 68.02 199.95 64.93 C 202.95 64.40 204.41 67.21 206.21 69.02 C 205.21 66.18 203.68 63.32 205.00 60.30 C 206.82 60.90 211.42 63.86 208.78 60.21 Z" />
</g>
<g id="#abafb0ff">
<path fill="#abafb0" opacity="1.00" d=" M 214.42 60.83 C 216.06 61.60 216.66 63.37 217.10 64.99 C 214.70 66.73 211.81 67.55 208.91 67.98 C 208.42 64.36 212.35 63.03 214.42 60.83 Z" />
</g>
<g id="#767b81ff">
<path fill="#767b81" opacity="1.00" d=" M 189.29 70.10 C 187.01 69.29 184.02 64.07 187.72 63.71 C 191.23 64.36 196.21 63.92 194.32 70.05 C 198.52 66.25 198.90 71.24 199.13 74.89 C 195.46 74.18 192.34 72.13 189.29 70.10 Z" />
</g>
<g id="#2f2e33f5">
<path fill="#2f2e33" opacity="0.96" d=" M 221.16 64.55 C 225.06 64.18 228.08 68.06 232.20 65.76 C 233.92 65.22 235.62 65.81 237.29 66.24 C 234.40 67.61 231.31 68.51 228.21 69.20 C 224.79 69.14 221.42 69.00 218.02 68.95 L 218.05 68.14 C 219.04 66.91 220.08 65.71 221.16 64.55 Z" />
</g>
<g id="#1313149b">
<path fill="#131314" opacity="0.61" d=" M 239.71 65.67 C 243.15 64.63 246.75 65.17 250.29 65.26 C 246.95 66.72 243.18 65.60 239.71 65.67 Z" />
</g>
<g id="#212427ab">
<path fill="#212427" opacity="0.67" d=" M 153.71 77.31 C 152.87 74.56 152.58 71.52 153.75 68.79 C 153.74 71.63 153.72 74.47 153.71 77.31 Z" />
</g>
<g id="#0f0f108b">
<path fill="#0f0f10" opacity="0.55" d=" M 216.85 69.93 C 217.14 69.69 217.73 69.20 218.02 68.95 C 221.42 69.00 224.79 69.14 228.21 69.20 C 224.43 69.70 220.65 69.95 216.85 69.93 Z" />
</g>
<g id="#282a31ff">
<path fill="#282a31" opacity="1.00" d=" M 166.34 80.38 C 167.53 80.57 166.27 86.39 166.86 88.77 C 163.47 92.95 157.45 88.32 158.92 83.88 C 162.18 89.18 163.62 82.29 166.34 80.38 Z" />
<path fill="#282a31" opacity="1.00" d=" M 189.17 290.56 C 191.53 291.21 190.81 293.96 191.16 295.80 C 186.93 302.55 187.92 294.26 189.17 290.56 Z" />
</g>
<g id="#70747aff">
<path fill="#70747a" opacity="1.00" d=" M 171.97 82.00 C 174.11 81.29 178.68 82.61 176.35 85.34 C 174.10 87.48 170.98 84.75 171.97 82.00 Z" />
</g>
<g id="#25272ffc">
<path fill="#25272f" opacity="1.00" d=" M 151.50 91.99 C 154.25 94.48 156.85 91.01 159.76 91.02 C 160.78 93.52 161.48 96.15 161.89 98.81 C 158.94 99.94 156.29 99.86 155.69 96.29 C 153.01 99.54 151.52 98.96 151.14 94.69 C 151.23 93.79 151.35 92.88 151.50 91.99 Z" />
</g>
<g id="#19191b72">
<path fill="#19191b" opacity="0.45" d=" M 200.23 92.68 C 201.58 97.05 200.62 101.73 200.86 106.21 C 200.58 105.96 200.04 105.44 199.76 105.19 C 199.92 101.02 200.07 96.85 200.23 92.68 Z" />
</g>
<g id="#0000002a">
<path fill="#000000" opacity="0.16" d=" M 77.49 98.53 C 86.34 103.14 96.42 98.84 105.37 102.33 C 110.62 97.79 113.09 105.23 118.40 104.60 C 124.76 102.89 128.41 109.14 133.51 111.46 C 137.93 115.73 142.28 109.37 146.15 107.09 C 144.33 112.70 139.79 116.75 136.21 121.25 C 126.20 124.11 114.83 122.27 104.84 121.86 C 70.29 126.40 34.69 121.33 0.00 124.99 L 0.00 115.48 C 7.98 115.15 14.33 108.59 22.60 109.44 C 28.34 110.23 31.29 105.75 34.64 102.61 C 41.22 96.14 40.95 115.12 42.29 100.84 C 46.46 102.47 51.71 107.98 55.28 102.28 C 56.54 97.75 59.66 102.84 62.19 102.05 C 67.08 99.62 74.00 104.12 77.49 98.53 Z" />
</g>
<g id="#686f68ff">
<path fill="#686f68" opacity="1.00" d=" M 174.24 100.21 C 180.69 99.85 178.63 111.15 186.95 108.12 C 183.43 115.23 170.91 106.04 174.24 100.21 Z" />
</g>
<g id="#787c8fff">
<path fill="#787c8f" opacity="1.00" d=" M 167.30 104.30 C 171.97 100.99 175.33 112.25 167.37 107.64 C 164.41 107.67 164.40 104.43 167.30 104.30 Z" />
</g>
<g id="#6c7286ff">
<path fill="#6c7286" opacity="1.00" d=" M 154.29 108.27 C 157.72 107.33 163.67 109.42 158.69 112.69 C 152.82 118.59 146.57 110.50 154.29 108.27 Z" />
</g>
<g id="#626870fe">
<path fill="#626870" opacity="1.00" d=" M 194.35 117.62 C 199.28 115.33 203.93 112.30 209.16 110.66 C 212.65 111.91 214.91 115.41 216.31 118.71 C 216.15 120.20 216.01 121.70 215.88 123.19 C 216.36 118.30 211.22 112.49 206.88 116.77 C 206.27 120.30 203.31 125.34 207.31 127.68 C 210.09 129.48 212.85 135.56 215.01 129.99 C 214.95 131.59 214.93 133.20 215.01 134.81 C 214.50 139.76 220.50 141.17 223.95 143.15 C 230.72 147.97 236.16 154.61 238.16 162.80 C 238.17 166.62 238.39 170.44 238.81 174.24 C 238.89 175.02 239.06 176.56 239.14 177.34 C 234.33 178.13 229.54 177.21 224.77 176.66 C 221.60 172.50 223.92 171.74 228.29 172.56 C 233.52 173.52 231.01 163.31 227.02 163.97 C 224.14 163.03 225.15 166.31 224.91 168.02 C 223.54 166.00 222.15 163.97 220.86 161.89 C 222.94 158.58 220.92 155.90 217.72 158.81 C 220.24 155.27 219.61 151.01 219.81 146.92 C 215.25 147.03 217.59 152.95 216.93 156.06 C 214.89 155.46 217.19 150.88 214.02 152.05 C 209.73 153.36 212.53 157.98 213.66 160.76 C 211.12 162.17 211.88 166.01 209.38 167.39 C 209.67 164.92 209.88 162.45 210.02 159.98 C 209.54 156.24 206.78 153.36 204.92 150.24 C 210.77 151.76 212.39 145.58 209.82 141.11 C 206.81 141.39 203.59 143.07 200.74 141.29 C 199.41 145.11 202.02 147.49 204.30 149.71 C 199.83 148.55 192.04 146.59 190.02 152.10 C 188.65 157.22 195.53 155.70 198.83 156.90 C 197.81 159.55 199.49 162.07 200.02 164.63 C 196.39 165.04 197.92 170.24 194.21 170.30 C 195.71 171.42 197.36 172.59 197.10 174.72 C 190.40 172.97 189.53 182.48 190.89 187.12 C 188.97 186.90 187.26 186.01 185.56 185.17 C 185.07 183.15 186.39 178.63 182.96 179.58 C 176.32 179.19 187.52 167.19 180.05 169.77 C 177.12 169.15 177.03 163.18 173.00 164.47 C 167.73 164.95 171.92 160.43 172.97 157.96 C 172.49 154.91 169.17 154.97 166.96 153.83 C 166.01 150.14 171.72 149.64 170.44 145.92 C 171.33 142.66 172.90 140.12 167.98 140.75 C 168.22 137.05 173.54 138.93 176.11 137.92 C 170.58 130.89 168.32 120.07 175.03 112.97 C 178.81 110.00 181.85 115.15 184.87 116.79 C 187.97 115.11 191.96 114.57 194.35 117.62 M 196.15 120.11 C 194.16 122.88 192.15 126.21 194.43 129.42 C 193.60 138.15 200.76 131.85 203.16 129.09 C 196.64 132.40 200.09 121.01 196.15 120.11 M 178.22 122.10 C 176.70 124.34 175.89 129.52 180.00 129.05 C 185.44 129.65 182.38 120.27 178.22 122.10 M 185.22 130.14 C 180.79 132.98 187.68 136.10 184.84 138.80 C 182.25 144.50 192.59 139.16 194.81 136.97 C 193.77 141.77 199.31 139.78 198.00 136.13 C 194.35 135.75 190.70 135.34 187.06 134.91 C 187.54 132.53 189.31 128.60 185.22 130.14 M 184.04 167.95 C 183.75 169.92 183.61 173.71 186.31 171.29 C 189.46 169.55 186.61 167.29 184.04 167.95 Z" />
</g>
<g id="#9497a7fe">
<path fill="#9497a7" opacity="1.00" d=" M 206.88 116.77 C 211.22 112.49 216.36 118.30 215.88 123.19 C 216.00 124.52 216.11 125.85 216.22 127.18 C 215.86 128.13 215.46 129.07 215.01 129.99 C 212.85 135.56 210.09 129.48 207.31 127.68 C 203.31 125.34 206.27 120.30 206.88 116.77 M 212.25 125.33 C 208.55 125.55 210.46 129.31 212.86 129.98 C 214.55 129.00 214.44 124.91 212.25 125.33 Z" />
</g>
<g id="#383a2e98">
<path fill="#383a2e" opacity="0.60" d=" M 216.31 118.71 C 217.62 121.39 216.89 124.40 216.22 127.18 C 216.11 125.85 216.00 124.52 215.88 123.19 C 216.01 121.70 216.15 120.20 216.31 118.71 Z" />
</g>
<g id="#7f838dff">
<path fill="#7f838d" opacity="1.00" d=" M 196.15 120.11 C 200.09 121.01 196.64 132.40 203.16 129.09 C 200.76 131.85 193.60 138.15 194.43 129.42 C 192.15 126.21 194.16 122.88 196.15 120.11 Z" />
</g>
<g id="#00000039">
<path fill="#000000" opacity="0.22" d=" M 104.84 121.86 C 114.83 122.27 126.20 124.11 136.21 121.25 C 135.44 123.18 134.77 125.15 134.12 127.12 C 89.95 134.79 44.28 125.30 0.00 133.00 L 0.00 124.99 C 34.69 121.33 70.29 126.40 104.84 121.86 Z" />
</g>
<g id="#9195a5ff">
<path fill="#9195a5" opacity="1.00" d=" M 178.22 122.10 C 182.38 120.27 185.44 129.65 180.00 129.05 C 175.89 129.52 176.70 124.34 178.22 122.10 Z" />
</g>
<g id="#686d7fff">
<path fill="#686d7f" opacity="1.00" d=" M 152.35 129.35 C 155.40 121.28 169.22 122.20 169.19 131.76 C 165.80 129.83 167.38 135.31 165.00 136.11 C 164.43 132.60 168.81 125.44 163.16 125.63 C 155.55 122.64 155.43 142.09 164.05 137.07 C 159.95 141.58 150.17 135.13 152.35 129.35 Z" />
</g>
<g id="#585d73ff">
<path fill="#585d73" opacity="1.00" d=" M 142.23 125.13 C 149.15 123.01 145.76 137.64 140.72 134.32 C 137.77 131.44 139.43 127.38 142.23 125.13 Z" />
</g>
<g id="#989da8ff">
<path fill="#989da8" opacity="1.00" d=" M 164.05 137.07 C 155.43 142.09 155.55 122.64 163.16 125.63 C 168.81 125.44 164.43 132.60 165.00 136.11 C 164.77 136.35 164.29 136.83 164.05 137.07 Z" />
</g>
<g id="#dcdfe6ff">
<path fill="#dcdfe6" opacity="1.00" d=" M 212.25 125.33 C 214.44 124.91 214.55 129.00 212.86 129.98 C 210.46 129.31 208.55 125.55 212.25 125.33 Z" />
</g>
<g id="#0000004e">
<path fill="#000000" opacity="0.31" d=" M 0.00 133.00 C 44.28 125.30 89.95 134.79 134.12 127.12 C 134.09 127.58 134.03 128.50 134.00 128.96 C 131.00 131.62 126.72 131.52 123.02 132.13 C 85.17 136.61 46.12 130.49 8.96 140.95 C 6.46 141.51 6.39 144.66 9.10 144.88 C 28.67 152.40 50.58 148.44 71.00 148.95 C 91.54 148.45 111.68 152.68 131.98 155.00 C 133.56 154.90 134.50 156.14 135.48 157.17 C 135.40 157.62 135.25 158.51 135.17 158.96 C 116.64 154.51 97.12 153.21 78.05 152.19 C 52.13 154.51 25.91 156.15 0.00 153.89 L 0.00 133.00 Z" />
</g>
<g id="#0000005e">
<path fill="#000000" opacity="0.37" d=" M 123.02 132.13 C 126.72 131.52 131.00 131.62 134.00 128.96 C 133.95 130.29 133.91 131.62 133.87 132.95 C 118.19 137.82 101.41 136.60 85.33 139.36 C 83.50 139.97 79.17 140.69 82.21 142.87 C 99.58 146.89 117.06 150.81 134.75 153.24 C 135.37 154.11 135.92 155.03 136.40 156.00 C 136.17 156.29 135.71 156.88 135.48 157.17 C 134.50 156.14 133.56 154.90 131.98 155.00 C 111.68 152.68 91.54 148.45 71.00 148.95 C 50.58 148.44 28.67 152.40 9.10 144.88 C 6.39 144.66 6.46 141.51 8.96 140.95 C 46.12 130.49 85.17 136.61 123.02 132.13 Z" />
</g>
<g id="#888b95ff">
<path fill="#888b95" opacity="1.00" d=" M 185.22 130.14 C 189.31 128.60 187.54 132.53 187.06 134.91 C 190.70 135.34 194.35 135.75 198.00 136.13 C 199.31 139.78 193.77 141.77 194.81 136.97 C 192.59 139.16 182.25 144.50 184.84 138.80 C 187.68 136.10 180.79 132.98 185.22 130.14 Z" />
</g>
<g id="#00000074">
<path fill="#000000" opacity="0.45" d=" M 85.33 139.36 C 101.41 136.60 118.19 137.82 133.87 132.95 C 133.72 136.86 135.15 140.54 137.11 143.85 C 137.09 147.57 137.08 151.31 137.11 155.03 C 136.94 155.27 136.58 155.76 136.40 156.00 C 135.92 155.03 135.37 154.11 134.75 153.24 C 117.06 150.81 99.58 146.89 82.21 142.87 C 79.17 140.69 83.50 139.97 85.33 139.36 Z" />
</g>
<g id="#373943e2">
<path fill="#373943" opacity="0.89" d=" M 215.01 134.81 C 219.45 135.61 221.41 139.88 223.95 143.15 C 220.50 141.17 214.50 139.76 215.01 134.81 Z" />
</g>
<g id="#868d77ff">
<path fill="#868d77" opacity="1.00" d=" M 200.74 141.29 C 203.59 143.07 206.81 141.39 209.82 141.11 C 212.39 145.58 210.77 151.76 204.92 150.24 L 204.30 149.71 C 202.02 147.49 199.41 145.11 200.74 141.29 Z" />
</g>
<g id="#232221c9">
<path fill="#232221" opacity="0.79" d=" M 137.11 143.85 C 138.86 147.14 138.14 151.71 137.11 155.03 C 137.08 151.31 137.09 147.57 137.11 143.85 Z" />
</g>
<g id="#848793ff">
<path fill="#848793" opacity="1.00" d=" M 216.93 156.06 C 217.59 152.95 215.25 147.03 219.81 146.92 C 219.61 151.01 220.24 155.27 217.72 158.81 C 220.92 155.90 222.94 158.58 220.86 161.89 C 218.16 163.61 214.14 165.51 213.66 160.76 C 212.53 157.98 209.73 153.36 214.02 152.05 C 217.19 150.88 214.89 155.46 216.93 156.06 Z" />
</g>
<g id="#606472ff">
<path fill="#606472" opacity="1.00" d=" M 156.00 156.68 C 155.56 152.51 158.54 148.42 162.80 147.98 C 165.30 152.00 162.31 154.97 158.91 156.92 C 158.19 156.86 156.73 156.74 156.00 156.68 Z" />
</g>
<g id="#6c7643ff">
<path fill="#6c7643" opacity="1.00" d=" M 190.02 152.10 C 192.04 146.59 199.83 148.55 204.30 149.71 L 204.92 150.24 C 206.78 153.36 209.54 156.24 210.02 159.98 C 205.54 162.41 202.87 157.59 198.83 156.90 C 195.53 155.70 188.65 157.22 190.02 152.10 Z" />
</g>
<g id="#00000043">
<path fill="#000000" opacity="0.26" d=" M 0.00 153.89 C 25.91 156.15 52.13 154.51 78.05 152.19 C 97.12 153.21 116.64 154.51 135.17 158.96 C 135.28 163.87 134.16 168.48 131.58 172.64 C 128.19 178.12 129.67 185.92 135.87 188.45 C 140.07 190.53 139.06 195.15 134.91 196.56 C 127.41 200.51 132.38 212.34 135.29 218.04 C 133.36 222.49 127.27 219.85 123.57 219.51 C 96.50 215.47 68.82 214.00 42.65 205.42 C 28.71 201.62 14.46 197.49 0.00 196.78 L 0.00 186.87 C 34.25 189.98 65.29 210.75 100.18 209.31 C 103.82 209.22 104.22 204.88 105.49 202.25 C 102.69 198.88 101.11 194.92 102.58 190.43 C 103.60 185.90 99.41 181.54 102.28 177.28 C 105.21 172.97 96.37 170.21 99.15 166.18 C 101.77 163.45 95.37 156.71 96.01 162.98 C 88.89 155.61 77.44 158.28 68.32 158.35 C 45.59 160.93 22.83 160.72 0.00 160.99 L 0.00 153.89 Z" />
<path fill="#000000" opacity="0.26" d=" M 0.00 214.70 C 42.90 228.74 88.22 232.66 132.00 242.97 C 133.28 243.20 133.56 244.75 134.32 245.61 C 134.16 247.12 134.02 248.63 133.90 250.15 C 130.56 245.77 124.94 245.34 120.00 244.01 C 80.06 236.77 39.42 232.91 0.00 222.86 L 0.00 214.70 Z" />
</g>
<g id="#3e424afe">
<path fill="#3e424a" opacity="1.00" d=" M 141.03 164.60 C 148.14 168.63 148.62 150.62 156.00 156.68 C 156.73 156.74 158.19 156.86 158.91 156.92 C 160.39 157.32 162.55 157.78 162.05 159.81 C 159.02 159.88 154.70 158.86 156.04 162.86 C 158.67 166.78 163.54 169.28 164.95 174.04 C 162.48 177.46 165.23 183.40 169.61 182.80 C 173.23 182.49 180.69 183.98 176.98 188.97 C 172.72 184.66 168.16 187.83 164.18 191.26 C 162.16 196.10 172.83 194.13 167.18 199.08 C 166.05 201.90 168.12 204.01 170.25 205.49 C 169.86 208.25 166.74 208.44 164.85 209.85 C 163.38 213.98 159.05 213.38 156.21 211.01 C 153.07 202.25 145.36 218.03 153.99 216.98 C 157.44 221.36 161.70 225.79 166.99 228.90 C 153.59 224.68 156.20 246.30 166.37 246.54 C 169.62 246.30 171.94 250.52 171.00 252.96 C 166.62 255.23 172.73 257.39 175.10 257.41 C 174.01 259.00 172.68 260.39 171.37 261.79 C 170.75 258.07 166.45 257.64 163.73 255.96 C 164.81 253.77 164.71 251.37 163.96 249.09 C 162.47 246.90 160.00 246.15 157.48 246.40 C 155.28 243.48 152.70 238.67 148.27 240.22 C 142.01 244.01 140.83 251.10 142.02 257.88 C 147.12 260.30 151.16 264.93 156.61 266.51 C 160.36 268.06 161.17 262.78 162.11 260.26 C 162.31 259.82 162.69 258.93 162.88 258.48 C 167.64 262.31 160.70 264.60 163.07 268.01 C 164.73 266.84 166.15 265.36 167.71 264.06 C 169.30 272.08 179.48 270.33 185.87 270.55 L 186.62 270.59 C 194.06 270.59 191.65 278.33 187.08 281.15 C 183.47 286.66 191.26 280.90 194.07 283.14 C 193.58 286.73 190.75 289.91 186.87 289.16 C 186.44 289.02 185.57 288.74 185.13 288.60 C 179.93 286.60 175.73 294.36 170.60 291.51 C 168.55 290.23 167.60 292.34 166.82 293.87 C 163.14 293.16 159.32 297.27 155.89 295.01 C 160.23 291.95 165.74 286.32 161.79 281.00 C 166.05 285.24 172.58 285.92 178.10 286.59 C 178.63 286.27 179.68 285.63 180.21 285.31 C 185.35 282.26 185.78 270.44 177.83 274.92 C 174.84 274.91 171.88 274.98 168.91 274.85 C 166.22 274.32 163.47 272.81 160.83 274.07 C 160.80 271.02 158.53 270.83 156.00 271.54 C 148.86 267.70 143.93 257.98 135.12 257.71 C 135.02 253.87 134.96 250.04 134.96 246.21 C 135.07 245.44 135.30 243.90 135.42 243.13 C 140.45 237.06 135.88 229.83 134.92 223.17 C 135.48 221.56 136.79 219.54 135.29 218.04 C 132.38 212.34 127.41 200.51 134.91 196.56 C 135.47 197.88 136.61 200.51 137.18 201.83 C 141.72 202.00 145.16 199.42 147.24 195.71 C 152.48 196.03 153.81 191.24 150.13 187.96 C 152.80 185.32 154.78 189.10 157.05 190.18 C 157.56 185.22 150.49 184.42 150.70 179.16 C 149.39 173.84 148.31 183.33 144.28 180.83 C 141.80 178.39 135.94 169.81 136.71 178.23 C 136.50 176.66 136.09 173.54 135.89 171.97 C 137.59 169.52 138.53 166.40 141.03 164.60 M 151.00 168.99 C 150.11 172.12 152.13 174.11 154.67 175.45 C 156.35 177.63 151.49 179.35 153.78 181.21 C 156.02 183.28 157.36 187.44 160.97 187.04 C 160.83 184.21 162.38 180.32 159.23 178.89 C 159.41 181.30 158.52 182.70 155.97 181.98 C 155.38 177.64 161.54 176.07 161.87 172.22 C 159.27 169.15 154.72 168.72 151.00 168.99 Z" />
</g>
<g id="#929a83ff">
<path fill="#929a83" opacity="1.00" d=" M 198.83 156.90 C 202.87 157.59 205.54 162.41 210.02 159.98 C 209.88 162.45 209.67 164.92 209.38 167.39 C 205.90 169.66 202.44 166.85 200.02 164.63 C 199.49 162.07 197.81 159.55 198.83 156.90 M 206.13 165.19 C 202.85 168.49 211.01 166.31 206.13 165.19 Z" />
</g>
<g id="#00000035">
<path fill="#000000" opacity="0.21" d=" M 68.32 158.35 C 77.44 158.28 88.89 155.61 96.01 162.98 C 95.37 156.71 101.77 163.45 99.15 166.18 C 96.37 170.21 105.21 172.97 102.28 177.28 C 99.41 181.54 103.60 185.90 102.58 190.43 C 101.11 194.92 102.69 198.88 105.49 202.25 C 104.22 204.88 103.82 209.22 100.18 209.31 C 65.29 210.75 34.25 189.98 0.00 186.87 L 0.00 160.99 C 22.83 160.72 45.59 160.93 68.32 158.35 Z" />
</g>
<g id="#545a64ff">
<path fill="#545a64" opacity="1.00" d=" M 209.38 167.39 C 211.88 166.01 211.12 162.17 213.66 160.76 C 214.14 165.51 218.16 163.61 220.86 161.89 C 222.15 163.97 223.54 166.00 224.91 168.02 C 225.99 169.57 227.17 171.04 228.29 172.56 C 223.92 171.74 221.60 172.50 224.77 176.66 C 225.37 178.34 225.69 180.11 225.12 181.85 C 219.34 182.03 217.68 195.22 224.25 195.03 C 228.84 197.67 227.98 189.97 228.99 186.86 C 225.72 186.68 225.60 190.96 225.60 193.26 C 220.90 189.84 228.87 185.79 226.04 181.85 C 226.69 181.20 227.35 180.56 228.03 179.94 C 226.48 184.30 230.63 185.31 233.17 182.34 C 234.83 185.72 238.43 180.11 239.32 183.65 C 240.12 189.87 247.27 177.30 247.29 184.85 C 249.99 183.05 253.26 183.55 256.29 182.81 C 259.35 184.27 261.73 186.81 264.38 188.90 C 263.51 190.84 263.57 193.02 264.32 194.98 C 263.22 196.30 262.08 197.57 260.99 198.89 C 258.37 200.09 255.77 201.34 253.13 202.50 C 250.87 201.63 249.06 200.00 246.99 198.80 C 250.19 196.71 254.50 198.23 257.26 195.24 C 260.96 191.34 256.71 181.97 252.38 188.29 C 247.12 182.49 242.85 190.29 237.33 189.50 C 234.85 190.92 233.85 197.39 238.01 195.01 C 241.61 192.75 244.43 196.85 246.99 198.80 C 243.48 203.74 235.15 197.61 230.27 201.35 C 227.96 203.96 226.08 200.05 224.07 199.00 C 221.46 201.77 222.77 205.42 223.16 208.72 C 220.30 209.66 217.33 210.25 214.52 211.36 C 213.99 216.10 213.18 221.18 210.09 223.87 C 214.84 223.35 215.22 228.01 210.12 228.28 C 209.18 225.39 207.01 227.34 205.13 228.00 C 202.18 225.69 207.21 220.46 202.39 219.86 C 204.76 225.56 195.91 228.36 195.95 222.19 C 200.49 224.24 198.03 218.52 198.87 215.99 C 197.99 211.42 183.90 209.72 188.17 216.77 C 184.95 215.23 183.04 210.80 179.05 211.67 C 179.37 210.23 181.35 208.41 179.35 207.41 C 181.97 202.19 182.43 210.38 186.95 209.27 C 183.04 206.79 184.72 201.39 180.97 198.80 C 183.40 193.49 186.86 197.67 187.47 201.44 C 188.48 205.45 194.53 202.44 195.77 207.67 C 185.45 210.32 203.19 212.44 200.45 206.53 C 198.35 204.27 196.52 197.03 192.90 200.28 C 191.92 198.32 190.81 196.43 190.04 194.38 C 193.33 194.63 192.70 192.31 191.79 190.07 C 187.20 192.85 182.13 192.90 185.56 185.17 C 187.26 186.01 188.97 186.90 190.89 187.12 C 189.53 182.48 190.40 172.97 197.10 174.72 C 197.36 172.59 195.71 171.42 194.21 170.30 C 197.92 170.24 196.39 165.04 200.02 164.63 C 202.44 166.85 205.90 169.66 209.38 167.39 M 208.91 174.86 C 205.16 177.15 214.14 183.69 207.05 183.24 C 208.01 187.24 205.57 193.99 211.83 194.32 C 211.57 197.27 210.85 200.18 210.95 203.17 C 214.90 204.03 213.68 198.28 218.03 199.06 C 221.62 199.77 219.46 194.88 217.04 196.71 C 218.12 192.55 217.09 190.46 213.26 190.72 C 210.89 185.95 212.20 180.77 215.94 177.21 C 213.74 176.06 211.50 172.90 208.91 174.86 M 215.21 184.13 C 213.47 185.16 214.06 187.35 214.01 189.03 C 218.34 191.04 220.11 182.04 215.21 184.13 M 196.05 189.97 C 196.31 191.78 194.71 196.06 197.95 194.96 C 201.88 194.45 199.69 188.38 196.05 189.97 M 206.98 204.00 C 206.24 208.48 212.67 207.10 210.95 203.17 C 209.82 201.59 205.84 201.06 206.98 204.00 M 215.32 205.35 C 212.78 204.89 210.04 208.60 214.00 208.05 C 217.48 209.60 220.03 203.26 215.32 205.35 M 201.98 212.00 C 200.32 213.01 202.01 219.31 204.71 217.72 C 210.14 217.29 207.55 208.59 201.98 212.00 Z" />
</g>
<g id="#404248ba">
<path fill="#404248" opacity="0.73" d=" M 238.16 162.80 C 238.75 166.58 238.97 170.40 238.81 174.24 C 238.39 170.44 238.17 166.62 238.16 162.80 Z" />
</g>
<g id="#9194a4ff">
<path fill="#9194a4" opacity="1.00" d=" M 224.91 168.02 C 225.15 166.31 224.14 163.03 227.02 163.97 C 231.01 163.31 233.52 173.52 228.29 172.56 C 227.17 171.04 225.99 169.57 224.91 168.02 Z" />
</g>
<g id="#edf0f0ff">
<path fill="#edf0f0" opacity="1.00" d=" M 206.13 165.19 C 211.01 166.31 202.85 168.49 206.13 165.19 Z" />
</g>
<g id="#979eabff">
<path fill="#979eab" opacity="1.00" d=" M 184.04 167.95 C 186.61 167.29 189.46 169.55 186.31 171.29 C 183.61 173.71 183.75 169.92 184.04 167.95 Z" />
</g>
<g id="#515663ff">
<path fill="#515663" opacity="1.00" d=" M 151.00 168.99 C 154.72 168.72 159.27 169.15 161.87 172.22 C 161.54 176.07 155.38 177.64 155.97 181.98 C 158.52 182.70 159.41 181.30 159.23 178.89 C 162.38 180.32 160.83 184.21 160.97 187.04 C 157.36 187.44 156.02 183.28 153.78 181.21 C 151.49 179.35 156.35 177.63 154.67 175.45 C 152.13 174.11 150.11 172.12 151.00 168.99 Z" />
</g>
<g id="#54596efb">
<path fill="#54596e" opacity="1.00" d=" M 131.58 172.64 C 133.01 172.39 134.45 172.17 135.89 171.97 C 136.09 173.54 136.50 176.66 136.71 178.23 C 137.06 181.83 140.40 186.33 135.87 188.45 C 129.67 185.92 128.19 178.12 131.58 172.64 Z" />
</g>
<g id="#626b69ff">
<path fill="#626b69" opacity="1.00" d=" M 171.31 172.21 C 179.34 168.31 178.20 183.04 171.29 179.73 C 166.49 178.85 167.87 173.95 171.31 172.21 Z" />
</g>
<g id="#323335fd">
<path fill="#323335" opacity="1.00" d=" M 136.71 178.23 C 135.94 169.81 141.80 178.39 144.28 180.83 C 148.31 183.33 149.39 173.84 150.70 179.16 C 150.49 184.42 157.56 185.22 157.05 190.18 C 154.78 189.10 152.80 185.32 150.13 187.96 C 153.81 191.24 152.48 196.03 147.24 195.71 C 145.16 199.42 141.72 202.00 137.18 201.83 C 136.61 200.51 135.47 197.88 134.91 196.56 C 139.06 195.15 140.07 190.53 135.87 188.45 C 140.40 186.33 137.06 181.83 136.71 178.23 Z" />
</g>
<g id="#767b87ff">
<path fill="#767b87" opacity="1.00" d=" M 208.91 174.86 C 211.50 172.90 213.74 176.06 215.94 177.21 C 212.20 180.77 210.89 185.95 213.26 190.72 C 217.09 190.46 218.12 192.55 217.04 196.71 C 219.46 194.88 221.62 199.77 218.03 199.06 C 213.68 198.28 214.90 204.03 210.95 203.17 C 210.85 200.18 211.57 197.27 211.83 194.32 C 205.57 193.99 208.01 187.24 207.05 183.24 C 214.14 183.69 205.16 177.15 208.91 174.86 Z" />
</g>
<g id="#3a3b45f9">
<path fill="#3a3b45" opacity="0.98" d=" M 225.12 181.85 C 225.69 180.11 225.37 178.34 224.77 176.66 C 229.54 177.21 234.33 178.13 239.14 177.34 C 245.11 178.26 251.00 179.82 256.29 182.81 C 253.26 183.55 249.99 183.05 247.29 184.85 C 247.27 177.30 240.12 189.87 239.32 183.65 C 238.43 180.11 234.83 185.72 233.17 182.34 C 231.71 181.06 230.14 179.61 228.03 179.94 C 227.35 180.56 226.69 181.20 226.04 181.85 L 225.12 181.85 Z" />
</g>
<g id="#82879aff">
<path fill="#82879a" opacity="1.00" d=" M 228.03 179.94 C 230.14 179.61 231.71 181.06 233.17 182.34 C 230.63 185.31 226.48 184.30 228.03 179.94 Z" />
</g>
<g id="#787d8dff">
<path fill="#787d8d" opacity="1.00" d=" M 224.25 195.03 C 217.68 195.22 219.34 182.03 225.12 181.85 L 226.04 181.85 C 228.87 185.79 220.90 189.84 225.60 193.26 C 225.60 190.96 225.72 186.68 228.99 186.86 C 227.98 189.97 228.84 197.67 224.25 195.03 Z" />
</g>
<g id="#9094a7ff">
<path fill="#9094a7" opacity="1.00" d=" M 215.21 184.13 C 220.11 182.04 218.34 191.04 214.01 189.03 C 214.06 187.35 213.47 185.16 215.21 184.13 Z" />
</g>
<g id="#757682ff">
<path fill="#757682" opacity="1.00" d=" M 237.33 189.50 C 242.85 190.29 247.12 182.49 252.38 188.29 C 256.71 181.97 260.96 191.34 257.26 195.24 C 254.50 198.23 250.19 196.71 246.99 198.80 C 244.43 196.85 241.61 192.75 238.01 195.01 C 233.85 197.39 234.85 190.92 237.33 189.50 Z" />
</g>
<g id="#292c269c">
<path fill="#292c26" opacity="0.61" d=" M 264.38 188.90 C 266.11 190.56 266.09 192.59 264.32 194.98 C 263.57 193.02 263.51 190.84 264.38 188.90 Z" />
</g>
<g id="#7b8093ff">
<path fill="#7b8093" opacity="1.00" d=" M 196.05 189.97 C 199.69 188.38 201.88 194.45 197.95 194.96 C 194.71 196.06 196.31 191.78 196.05 189.97 Z" />
</g>
<g id="#00000058">
<path fill="#000000" opacity="0.35" d=" M 0.00 196.78 C 14.46 197.49 28.71 201.62 42.65 205.42 C 68.82 214.00 96.50 215.47 123.57 219.51 C 127.27 219.85 133.36 222.49 135.29 218.04 C 136.79 219.54 135.48 221.56 134.92 223.17 C 115.89 223.21 97.08 219.31 77.99 219.94 C 75.14 221.17 66.69 217.39 66.96 222.88 C 88.01 230.76 110.36 234.00 131.92 240.06 C 133.44 240.61 135.05 241.37 135.42 243.13 C 135.30 243.90 135.07 245.44 134.96 246.21 L 134.32 245.61 C 133.56 244.75 133.28 243.20 132.00 242.97 C 88.22 232.66 42.90 228.74 0.00 214.70 L 0.00 196.78 Z" />
</g>
<g id="#6f7860ff">
<path fill="#6f7860" opacity="1.00" d=" M 188.22 196.94 C 191.11 196.00 192.27 205.07 192.90 200.28 C 196.52 197.03 198.35 204.27 200.45 206.53 C 203.19 212.44 185.45 210.32 195.77 207.67 C 194.53 202.44 188.48 205.45 187.47 201.44 C 187.71 199.94 187.95 198.44 188.22 196.94 Z" />
</g>
<g id="#697372ff">
<path fill="#697372" opacity="1.00" d=" M 167.18 199.08 C 172.33 197.55 177.21 204.11 170.25 205.49 C 168.12 204.01 166.05 201.90 167.18 199.08 Z" />
</g>
<g id="#3c3d46fc">
<path fill="#3c3d46" opacity="1.00" d=" M 224.07 199.00 C 226.08 200.05 227.96 203.96 230.27 201.35 C 235.15 197.61 243.48 203.74 246.99 198.80 C 249.06 200.00 250.87 201.63 253.13 202.50 C 248.70 204.56 243.91 205.62 239.17 206.69 C 235.69 206.14 232.23 206.50 228.94 207.77 C 226.84 208.48 222.87 213.35 223.16 208.72 C 222.77 205.42 221.46 201.77 224.07 199.00 Z" />
</g>
<g id="#0101011d">
<path fill="#010101" opacity="0.11" d=" M 253.13 202.50 C 255.77 201.34 258.37 200.09 260.99 198.89 C 257.01 203.61 251.15 206.42 245.81 209.56 C 252.82 209.24 250.30 215.33 245.99 217.85 C 250.27 219.60 252.74 221.58 252.32 226.61 C 247.81 239.18 254.25 252.93 248.24 265.21 C 246.33 268.87 244.29 274.05 239.32 273.56 C 234.74 277.55 232.67 288.40 225.31 283.03 C 226.32 287.47 221.69 290.20 218.10 290.60 C 212.51 289.17 217.35 299.10 211.14 297.15 C 214.78 291.47 208.98 293.72 208.51 298.37 C 210.34 304.45 215.39 309.52 220.18 313.85 C 219.40 313.86 217.83 313.86 217.05 313.87 L 216.07 313.82 C 212.93 304.69 198.70 301.69 200.19 291.24 C 200.52 287.45 200.77 283.67 200.94 279.88 C 202.52 277.18 204.41 274.68 206.10 272.07 C 211.35 270.01 211.20 263.57 213.33 259.15 C 213.42 257.58 213.60 254.44 213.70 252.87 C 214.42 251.26 215.16 249.66 215.89 248.05 C 221.08 244.39 225.71 240.02 230.09 235.43 C 230.37 235.14 230.94 234.55 231.23 234.26 C 238.29 226.96 239.53 216.37 239.17 206.69 C 243.91 205.62 248.70 204.56 253.13 202.50 Z" />
</g>
<g id="#898d9cff">
<path fill="#898d9c" opacity="1.00" d=" M 206.98 204.00 C 205.84 201.06 209.82 201.59 210.95 203.17 C 212.67 207.10 206.24 208.48 206.98 204.00 Z" />
</g>
<g id="#838a8aff">
<path fill="#838a8a" opacity="1.00" d=" M 215.32 205.35 C 220.03 203.26 217.48 209.60 214.00 208.05 C 210.04 208.60 212.78 204.89 215.32 205.35 Z" />
</g>
<g id="#585a60f6">
<path fill="#585a60" opacity="0.96" d=" M 228.94 207.77 C 232.23 206.50 235.69 206.14 239.17 206.69 C 239.53 216.37 238.29 226.96 231.23 234.26 C 230.77 226.12 223.34 233.96 230.09 235.43 C 225.71 240.02 221.08 244.39 215.89 248.05 C 215.73 243.68 223.12 243.32 216.52 240.44 C 217.53 238.42 219.33 232.41 221.21 237.15 C 219.74 240.87 223.82 240.59 225.12 238.03 C 222.68 230.59 231.98 228.02 230.37 221.47 C 231.64 220.30 237.60 218.07 233.08 218.02 C 226.50 218.37 236.16 206.46 228.94 207.77 Z" />
</g>
<g id="#5c6373ff">
<path fill="#5c6373" opacity="1.00" d=" M 153.99 216.98 C 145.36 218.03 153.07 202.25 156.21 211.01 C 156.09 213.19 156.17 215.74 153.99 216.98 Z" />
</g>
<g id="#73767bff">
<path fill="#73767b" opacity="1.00" d=" M 223.16 208.72 C 222.87 213.35 226.84 208.48 228.94 207.77 C 236.16 206.46 226.50 218.37 233.08 218.02 C 237.60 218.07 231.64 220.30 230.37 221.47 C 231.98 228.02 222.68 230.59 225.12 238.03 C 227.25 228.17 222.08 232.44 221.21 237.15 C 219.33 232.41 217.53 238.42 216.52 240.44 C 212.61 239.39 216.69 236.46 214.84 234.12 C 209.30 232.74 211.81 243.23 204.96 242.46 C 201.22 241.74 198.94 244.10 196.19 246.05 C 192.31 240.29 200.52 239.74 203.20 236.63 C 206.58 235.45 212.14 232.56 210.12 228.28 C 215.22 228.01 214.84 223.35 210.09 223.87 C 213.18 221.18 213.99 216.10 214.52 211.36 C 217.33 210.25 220.30 209.66 223.16 208.72 Z" />
</g>
<g id="#646a7dff">
<path fill="#646a7d" opacity="1.00" d=" M 164.85 209.85 C 166.59 210.09 169.90 209.55 169.98 212.08 C 171.83 217.67 163.41 213.59 164.85 209.85 Z" />
</g>
<g id="#656a6ffe">
<path fill="#656a6f" opacity="1.00" d=" M 174.56 217.54 C 172.95 213.00 177.66 210.67 181.06 213.60 C 176.12 215.01 176.71 218.60 181.89 218.38 C 183.95 220.37 192.97 219.88 188.17 216.77 C 183.90 209.72 197.99 211.42 198.87 215.99 C 198.03 218.52 200.49 224.24 195.95 222.19 C 195.91 228.36 204.76 225.56 202.39 219.86 C 207.21 220.46 202.18 225.69 205.13 228.00 C 207.01 227.34 209.18 225.39 210.12 228.28 C 212.14 232.56 206.58 235.45 203.20 236.63 C 200.52 239.74 192.31 240.29 196.19 246.05 C 198.94 244.10 201.22 241.74 204.96 242.46 C 211.81 243.23 209.30 232.74 214.84 234.12 C 216.69 236.46 212.61 239.39 216.52 240.44 C 223.12 243.32 215.73 243.68 215.89 248.05 C 215.16 249.66 214.42 251.26 213.70 252.87 C 213.60 254.44 213.42 257.58 213.33 259.15 C 211.20 263.57 211.35 270.01 206.10 272.07 C 201.97 276.85 189.96 274.33 195.16 267.08 C 192.69 266.69 190.39 266.49 187.96 266.77 C 185.10 265.29 183.28 259.92 188.07 260.33 C 192.07 261.93 194.29 258.46 197.83 257.52 C 198.84 254.81 192.41 251.57 192.45 255.56 C 191.20 259.32 186.03 255.25 186.90 252.26 C 188.64 252.53 193.53 253.26 190.68 250.48 C 191.37 247.46 192.15 239.91 186.98 240.72 C 188.42 237.92 190.31 234.99 185.58 236.77 C 185.51 235.18 185.03 233.49 185.79 231.98 C 186.74 237.55 192.88 228.59 195.98 230.61 C 196.87 225.66 191.82 228.19 189.13 228.56 C 187.67 227.42 185.84 226.70 184.90 228.85 C 183.45 231.38 181.25 231.29 181.22 228.14 C 184.03 226.93 181.07 223.24 179.33 224.23 C 173.33 226.71 184.70 234.49 176.11 231.11 C 175.77 228.81 172.40 228.96 172.07 226.95 C 171.32 224.24 176.30 225.57 174.82 222.47 C 171.23 222.68 170.99 217.64 174.56 217.54 M 199.15 251.98 C 199.96 256.27 204.03 257.36 204.93 261.73 C 202.16 262.87 197.73 262.70 196.39 265.72 C 195.55 273.43 203.63 264.20 206.85 262.79 C 205.25 258.66 209.92 256.08 209.12 251.94 L 209.15 251.00 C 212.09 246.71 199.22 246.19 199.15 251.98 Z" />
</g>
<g id="#767c88ff">
<path fill="#767c88" opacity="1.00" d=" M 201.98 212.00 C 207.55 208.59 210.14 217.29 204.71 217.72 C 202.01 219.31 200.32 213.01 201.98 212.00 Z" />
</g>
<g id="#8e9294ff">
<path fill="#8e9294" opacity="1.00" d=" M 181.89 218.38 C 176.71 218.60 176.12 215.01 181.06 213.60 C 181.61 215.13 181.75 216.76 181.89 218.38 Z" />
</g>
<g id="#0000006f">
<path fill="#000000" opacity="0.44" d=" M 66.96 222.88 C 66.69 217.39 75.14 221.17 77.99 219.94 C 97.08 219.31 115.89 223.21 134.92 223.17 C 135.88 229.83 140.45 237.06 135.42 243.13 C 135.05 241.37 133.44 240.61 131.92 240.06 C 110.36 234.00 88.01 230.76 66.96 222.88 Z" />
</g>
<g id="#00000031">
<path fill="#000000" opacity="0.19" d=" M 0.00 222.86 C 39.42 232.91 80.06 236.77 120.00 244.01 C 124.94 245.34 130.56 245.77 133.90 250.15 C 132.11 258.56 137.90 265.33 143.17 270.98 C 134.02 267.92 126.60 258.05 115.77 258.15 C 111.41 252.70 104.35 255.99 99.29 251.73 C 66.64 243.37 33.39 236.03 0.00 229.77 L 0.00 222.86 Z" />
</g>
<g id="#5a6060ff">
<path fill="#5a6060" opacity="1.00" d=" M 179.33 224.23 C 181.07 223.24 184.03 226.93 181.22 228.14 C 181.25 231.29 183.45 231.38 184.90 228.85 C 186.18 229.63 186.70 230.66 185.79 231.98 C 185.03 233.49 185.51 235.18 185.58 236.77 C 182.93 240.86 193.12 246.12 183.19 244.22 C 184.62 248.00 182.39 250.72 178.91 252.09 C 179.02 250.52 182.20 247.92 179.59 247.36 C 172.76 243.54 175.79 247.50 176.31 249.57 C 178.43 255.86 177.79 262.76 180.16 268.98 C 182.93 266.94 184.29 267.85 185.87 270.55 C 179.48 270.33 169.30 272.08 167.71 264.06 C 166.15 265.36 164.73 266.84 163.07 268.01 C 160.70 264.60 167.64 262.31 162.88 258.48 C 163.15 257.64 163.43 256.79 163.73 255.96 C 166.45 257.64 170.75 258.07 171.37 261.79 C 172.68 260.39 174.01 259.00 175.10 257.41 C 172.73 257.39 166.62 255.23 171.00 252.96 C 171.94 250.52 169.62 246.30 166.37 246.54 C 156.20 246.30 153.59 224.68 166.99 228.90 C 167.45 229.22 168.38 229.87 168.84 230.19 C 169.18 234.61 169.69 239.21 172.20 243.01 C 178.02 243.82 179.01 236.58 175.99 233.00 C 176.02 232.53 176.08 231.58 176.11 231.11 C 184.70 234.49 173.33 226.71 179.33 224.23 Z" />
</g>
<g id="#868b98ff">
<path fill="#868b98" opacity="1.00" d=" M 184.90 228.85 C 185.84 226.70 187.67 227.42 189.13 228.56 C 191.82 228.19 196.87 225.66 195.98 230.61 C 192.88 228.59 186.74 237.55 185.79 231.98 C 186.70 230.66 186.18 229.63 184.90 228.85 Z" />
</g>
<g id="#00000026">
<path fill="#000000" opacity="0.15" d=" M 0.00 229.77 C 33.39 236.03 66.64 243.37 99.29 251.73 C 104.35 255.99 111.41 252.70 115.77 258.15 C 126.60 258.05 134.02 267.92 143.17 270.98 C 148.23 279.33 150.58 289.55 153.13 299.04 C 149.34 295.10 147.14 285.30 139.69 289.16 C 121.90 284.58 104.18 281.11 86.24 276.62 C 82.69 274.61 79.04 271.51 74.66 272.52 C 70.21 273.43 71.08 265.21 66.33 267.30 C 61.95 269.41 57.20 268.11 56.71 263.18 C 55.46 257.23 47.59 263.12 45.21 257.78 C 43.44 254.47 40.80 257.16 38.46 257.81 C 37.56 252.65 32.01 251.28 27.45 251.51 C 21.27 244.07 11.32 244.56 3.34 241.43 C 2.22 241.63 1.11 241.84 0.00 242.08 L 0.00 229.77 Z" />
</g>
<g id="#878793ff">
<path fill="#878793" opacity="1.00" d=" M 168.84 230.19 C 171.34 230.81 173.92 231.36 175.99 233.00 C 179.01 236.58 178.02 243.82 172.20 243.01 C 169.69 239.21 169.18 234.61 168.84 230.19 Z" />
</g>
<g id="#88848ffd">
<path fill="#88848f" opacity="1.00" d=" M 230.09 235.43 C 223.34 233.96 230.77 226.12 231.23 234.26 C 230.94 234.55 230.37 235.14 230.09 235.43 Z" />
</g>
<g id="#9598a3ff">
<path fill="#9598a3" opacity="1.00" d=" M 221.21 237.15 C 222.08 232.44 227.25 228.17 225.12 238.03 C 223.82 240.59 219.74 240.87 221.21 237.15 Z" />
</g>
<g id="#777b81ff">
<path fill="#777b81" opacity="1.00" d=" M 185.58 236.77 C 190.31 234.99 188.42 237.92 186.98 240.72 C 192.15 239.91 191.37 247.46 190.68 250.48 C 193.53 253.26 188.64 252.53 186.90 252.26 C 186.03 255.25 191.20 259.32 192.45 255.56 C 192.41 251.57 198.84 254.81 197.83 257.52 C 194.29 258.46 192.07 261.93 188.07 260.33 C 183.28 259.92 185.10 265.29 187.96 266.77 C 187.51 268.03 187.06 269.31 186.62 270.59 L 185.87 270.55 C 184.29 267.85 182.93 266.94 180.16 268.98 C 177.79 262.76 178.43 255.86 176.31 249.57 C 175.79 247.50 172.76 243.54 179.59 247.36 C 182.20 247.92 179.02 250.52 178.91 252.09 C 182.39 250.72 184.62 248.00 183.19 244.22 C 193.12 246.12 182.93 240.86 185.58 236.77 Z" />
</g>
<g id="#5d6559ff">
<path fill="#5d6559" opacity="1.00" d=" M 148.27 240.22 C 152.70 238.67 155.28 243.48 157.48 246.40 C 160.00 246.15 162.47 246.90 163.96 249.09 C 160.20 247.66 155.86 248.14 152.99 251.15 C 156.97 253.51 157.97 259.17 162.11 260.26 C 161.17 262.78 160.36 268.06 156.61 266.51 C 151.16 264.93 147.12 260.30 142.02 257.88 C 140.83 251.10 142.01 244.01 148.27 240.22 Z" />
</g>
<g id="#0000001d">
<path fill="#000000" opacity="0.11" d=" M 3.34 241.43 C 11.32 244.56 21.27 244.07 27.45 251.51 C 32.01 251.28 37.56 252.65 38.46 257.81 C 40.80 257.16 43.44 254.47 45.21 257.78 C 47.59 263.12 55.46 257.23 56.71 263.18 C 57.20 268.11 61.95 269.41 66.33 267.30 C 71.08 265.21 70.21 273.43 74.66 272.52 C 79.04 271.51 82.69 274.61 86.24 276.62 C 104.18 281.11 121.90 284.58 139.69 289.16 C 147.14 285.30 149.34 295.10 153.13 299.04 C 153.66 301.53 153.88 304.17 153.80 306.74 C 151.40 311.29 153.46 315.42 157.17 317.91 C 149.97 318.16 151.22 308.51 148.88 304.00 C 145.00 306.54 141.17 305.09 137.20 304.09 C 134.46 306.77 131.40 308.92 127.84 306.21 C 119.75 308.31 110.79 305.17 102.47 306.55 C 99.11 309.27 95.33 305.30 93.42 302.58 C 87.10 303.96 84.10 295.14 77.80 296.23 C 73.65 295.39 69.79 296.17 66.23 298.24 C 66.12 296.38 65.90 292.65 65.79 290.78 C 63.41 292.10 65.55 295.85 62.40 296.43 C 57.50 297.51 51.36 295.17 49.48 290.07 C 48.47 296.02 42.59 298.81 36.42 297.55 C 32.24 302.99 26.91 297.55 22.27 300.98 C 23.51 295.06 15.37 296.11 14.42 300.68 C 10.64 301.11 7.75 296.83 5.91 293.88 C 6.11 295.68 6.40 297.47 6.62 299.27 C 1.46 298.50 2.03 292.77 0.00 289.42 L 0.00 242.08 C 1.11 241.84 2.22 241.63 3.34 241.43 Z" />
</g>
<g id="#2c2f37fb">
<path fill="#2c2f37" opacity="1.00" d=" M 134.32 245.61 L 134.96 246.21 C 134.96 250.04 135.02 253.87 135.12 257.71 C 143.93 257.98 148.86 267.70 156.00 271.54 C 158.53 270.83 160.80 271.02 160.83 274.07 C 160.43 276.45 160.64 278.84 161.79 281.00 C 165.74 286.32 160.23 291.95 155.89 295.01 C 159.32 297.27 163.14 293.16 166.82 293.87 C 166.83 297.89 166.87 301.91 166.92 305.94 C 165.70 311.22 171.28 313.15 175.52 311.39 C 173.34 317.24 184.59 317.86 180.79 322.87 C 176.16 324.12 177.16 316.99 173.37 315.63 C 170.83 312.39 167.48 314.84 165.11 316.81 C 161.93 312.72 158.10 309.49 153.80 306.74 C 153.88 304.17 153.66 301.53 153.13 299.04 C 150.58 289.55 148.23 279.33 143.17 270.98 C 137.90 265.33 132.11 258.56 133.90 250.15 C 134.02 248.63 134.16 247.12 134.32 245.61 Z" />
</g>
<g id="#818688ff">
<path fill="#818688" opacity="1.00" d=" M 199.15 251.98 C 199.22 246.19 212.09 246.71 209.15 251.00 C 207.02 246.56 200.19 251.14 201.63 254.37 C 204.05 255.36 207.40 253.93 209.12 251.94 C 209.92 256.08 205.25 258.66 206.85 262.79 C 203.63 264.20 195.55 273.43 196.39 265.72 C 197.73 262.70 202.16 262.87 204.93 261.73 C 204.03 257.36 199.96 256.27 199.15 251.98 Z" />
</g>
<g id="#798064ff">
<path fill="#798064" opacity="1.00" d=" M 152.99 251.15 C 155.86 248.14 160.20 247.66 163.96 249.09 C 164.71 251.37 164.81 253.77 163.73 255.96 C 163.43 256.79 163.15 257.64 162.88 258.48 C 162.69 258.93 162.31 259.82 162.11 260.26 C 157.97 259.17 156.97 253.51 152.99 251.15 Z" />
</g>
<g id="#a6a8acff">
<path fill="#a6a8ac" opacity="1.00" d=" M 201.63 254.37 C 200.19 251.14 207.02 246.56 209.15 251.00 L 209.12 251.94 C 207.40 253.93 204.05 255.36 201.63 254.37 Z" />
</g>
<g id="#3135259e">
<path fill="#313525" opacity="0.62" d=" M 213.33 259.15 C 213.42 257.58 213.60 254.44 213.70 252.87 C 213.60 254.44 213.42 257.58 213.33 259.15 Z" />
</g>
<g id="#56595dfb">
<path fill="#56595d" opacity="1.00" d=" M 187.96 266.77 C 190.39 266.49 192.69 266.69 195.16 267.08 C 189.96 274.33 201.97 276.85 206.10 272.07 C 204.41 274.68 202.52 277.18 200.94 279.88 C 200.10 283.59 199.84 287.37 200.19 291.24 C 198.70 301.69 212.93 304.69 216.07 313.82 C 213.97 314.26 211.98 315.07 209.97 315.79 C 211.62 311.60 209.01 308.30 206.37 305.33 C 205.46 307.86 203.20 309.42 201.15 310.99 C 199.69 311.21 198.20 311.38 196.85 312.00 C 196.06 313.27 195.67 315.07 193.84 315.10 C 194.13 309.36 203.55 307.38 200.94 301.46 C 199.53 301.33 196.25 303.01 197.45 300.36 C 199.20 295.88 193.00 298.29 191.16 295.80 C 190.81 293.96 191.53 291.21 189.17 290.56 C 188.41 290.08 187.64 289.62 186.87 289.16 C 190.75 289.91 193.58 286.73 194.07 283.14 C 191.26 280.90 183.47 286.66 187.08 281.15 C 191.65 278.33 194.06 270.59 186.62 270.59 C 187.06 269.31 187.51 268.03 187.96 266.77 Z" />
</g>
<g id="#555d50ff">
<path fill="#555d50" opacity="1.00" d=" M 160.83 274.07 C 163.47 272.81 166.22 274.32 168.91 274.85 C 167.30 280.60 175.61 282.28 178.10 286.59 C 172.58 285.92 166.05 285.24 161.79 281.00 C 160.64 278.84 160.43 276.45 160.83 274.07 Z" />
</g>
<g id="#8a8c98ff">
<path fill="#8a8c98" opacity="1.00" d=" M 177.83 274.92 C 185.78 270.44 185.35 282.26 180.21 285.31 C 174.36 285.85 181.37 278.49 177.83 274.92 Z" />
</g>
<g id="#737d5dff">
<path fill="#737d5d" opacity="1.00" d=" M 168.91 274.85 C 171.88 274.98 174.84 274.91 177.83 274.92 C 181.37 278.49 174.36 285.85 180.21 285.31 C 179.68 285.63 178.63 286.27 178.10 286.59 C 175.61 282.28 167.30 280.60 168.91 274.85 Z" />
</g>
<g id="#1d1d1e7d">
<path fill="#1d1d1e" opacity="0.49" d=" M 200.19 291.24 C 199.84 287.37 200.10 283.59 200.94 279.88 C 200.77 283.67 200.52 287.45 200.19 291.24 Z" />
</g>
<g id="#4e525bff">
<path fill="#4e525b" opacity="1.00" d=" M 170.60 291.51 C 175.73 294.36 179.93 286.60 185.13 288.60 C 180.29 291.52 185.17 301.11 187.21 305.76 C 192.01 306.69 191.52 310.88 187.85 313.05 C 190.70 317.55 197.58 316.67 199.50 322.52 C 204.38 324.72 212.24 331.26 208.05 336.98 C 209.09 341.39 214.95 340.19 216.95 336.97 C 218.82 340.51 214.17 345.36 219.18 346.87 C 216.34 346.55 212.94 346.44 211.43 343.57 C 209.77 339.77 205.06 342.40 202.37 339.94 C 201.95 339.07 201.53 338.21 201.09 337.37 C 209.43 337.57 201.01 330.12 196.29 332.93 C 197.30 329.44 192.35 328.87 192.05 332.10 C 190.86 335.38 194.67 333.02 196.29 332.93 C 195.94 334.61 195.59 336.29 195.14 337.95 C 194.67 337.95 193.72 337.94 193.25 337.94 C 190.91 332.48 182.14 330.02 181.98 323.16 C 184.33 320.83 186.01 318.40 183.24 314.93 C 180.24 310.53 183.28 306.32 184.96 302.34 C 182.44 301.58 178.09 302.28 180.67 296.82 C 176.12 297.11 180.16 304.02 175.93 304.98 C 173.22 306.31 169.03 310.03 166.92 305.94 C 166.87 301.91 166.83 297.89 166.82 293.87 C 167.60 292.34 168.55 290.23 170.60 291.51 M 191.13 318.00 C 189.36 319.27 190.25 321.19 192.03 321.77 C 188.82 321.24 184.56 328.44 189.94 327.98 C 193.48 326.19 196.81 319.71 191.13 318.00 Z" />
</g>
<g id="#6a6c71ff">
<path fill="#6a6c71" opacity="1.00" d=" M 187.21 305.76 C 185.17 301.11 180.29 291.52 185.13 288.60 C 185.57 288.74 186.44 289.02 186.87 289.16 C 187.64 289.62 188.41 290.08 189.17 290.56 C 187.92 294.26 186.93 302.55 191.16 295.80 C 193.00 298.29 199.20 295.88 197.45 300.36 C 196.25 303.01 199.53 301.33 200.94 301.46 C 203.55 307.38 194.13 309.36 193.84 315.10 C 195.67 315.07 196.06 313.27 196.85 312.00 C 196.69 315.40 202.54 314.51 201.15 310.99 C 203.20 309.42 205.46 307.86 206.37 305.33 C 209.01 308.30 211.62 311.60 209.97 315.79 C 211.98 315.07 213.97 314.26 216.07 313.82 L 217.05 313.87 L 216.90 314.86 C 211.62 315.47 208.01 319.29 210.01 325.03 C 214.20 325.70 219.09 322.56 218.14 317.90 C 219.25 320.85 221.96 321.34 224.81 320.96 C 226.02 321.31 227.22 321.67 228.43 322.05 C 227.06 325.68 223.25 324.53 220.29 324.50 C 218.46 327.79 218.21 331.52 218.23 335.20 C 217.79 339.71 220.12 350.34 225.98 344.98 C 224.29 347.51 222.52 350.20 223.07 353.43 C 219.37 353.01 221.93 347.96 219.18 346.87 C 214.17 345.36 218.82 340.51 216.95 336.97 C 214.95 340.19 209.09 341.39 208.05 336.98 C 212.24 331.26 204.38 324.72 199.50 322.52 C 197.58 316.67 190.70 317.55 187.85 313.05 C 191.52 310.88 192.01 306.69 187.21 305.76 Z" />
</g>
<g id="#3a3e47fb">
<path fill="#3a3e47" opacity="1.00" d=" M 175.93 304.98 C 180.16 304.02 176.12 297.11 180.67 296.82 C 178.09 302.28 182.44 301.58 184.96 302.34 C 183.28 306.32 180.24 310.53 183.24 314.93 C 186.01 318.40 184.33 320.83 181.98 323.16 C 182.14 330.02 190.91 332.48 193.25 337.94 C 184.26 342.28 200.01 346.33 202.37 339.94 C 205.06 342.40 209.77 339.77 211.43 343.57 C 212.94 346.44 216.34 346.55 219.18 346.87 C 221.93 347.96 219.37 353.01 223.07 353.43 C 219.83 354.09 216.49 354.04 213.21 354.19 C 214.45 347.49 207.97 350.23 207.79 355.02 C 204.78 355.26 204.11 349.46 201.02 351.97 C 196.32 355.48 191.61 349.20 192.44 344.61 C 185.87 342.26 183.90 334.47 176.14 334.03 C 173.98 331.48 170.95 330.05 167.77 329.25 C 169.56 329.16 171.35 329.06 173.13 328.85 C 172.51 324.61 166.71 324.30 163.94 321.97 C 162.44 319.58 160.01 318.07 157.17 317.91 C 153.46 315.42 151.40 311.29 153.80 306.74 C 158.10 309.49 161.93 312.72 165.11 316.81 C 167.48 314.84 170.83 312.39 173.37 315.63 C 177.16 316.99 176.16 324.12 180.79 322.87 C 184.59 317.86 173.34 317.24 175.52 311.39 C 171.28 313.15 165.70 311.22 166.92 305.94 C 169.03 310.03 173.22 306.31 175.93 304.98 M 198.96 346.02 C 198.60 349.12 202.89 349.03 205.05 349.01 C 205.54 345.40 201.32 345.82 198.96 346.02 Z" />
</g>
<g id="#9a9d9aff">
<path fill="#9a9d9a" opacity="1.00" d=" M 196.85 312.00 C 198.20 311.38 199.69 311.21 201.15 310.99 C 202.54 314.51 196.69 315.40 196.85 312.00 Z" />
</g>
<g id="#10101293">
<path fill="#101012" opacity="0.58" d=" M 217.05 313.87 C 217.83 313.86 219.40 313.86 220.18 313.85 C 222.83 314.16 225.45 314.45 228.08 314.99 C 224.68 314.91 221.31 315.00 217.92 314.92 L 216.90 314.86 L 217.05 313.87 Z" />
</g>
<g id="#8e919aff">
<path fill="#8e919a" opacity="1.00" d=" M 210.01 325.03 C 208.01 319.29 211.62 315.47 216.90 314.86 L 217.92 314.92 C 217.98 315.67 218.09 317.16 218.14 317.90 C 219.09 322.56 214.20 325.70 210.01 325.03 Z" />
</g>
<g id="#32323bf9">
<path fill="#32323b" opacity="0.98" d=" M 217.92 314.92 C 221.31 315.00 224.68 314.91 228.08 314.99 C 232.03 315.84 235.84 317.23 239.77 318.15 C 243.19 318.92 246.71 319.03 250.20 318.85 C 250.69 319.01 251.67 319.34 252.16 319.50 C 250.02 320.35 247.79 324.05 245.54 321.46 C 241.46 318.56 233.39 322.01 231.42 317.21 C 226.97 314.90 225.63 317.86 224.81 320.96 C 221.96 321.34 219.25 320.85 218.14 317.90 C 218.09 317.16 217.98 315.67 217.92 314.92 Z" />
</g>
<g id="#56575ffb">
<path fill="#56575f" opacity="1.00" d=" M 224.81 320.96 C 225.63 317.86 226.97 314.90 231.42 317.21 C 233.39 322.01 241.46 318.56 245.54 321.46 C 247.79 324.05 250.02 320.35 252.16 319.50 C 257.33 319.72 259.14 327.59 253.43 328.14 C 248.55 323.71 240.86 327.67 235.99 329.93 C 228.58 338.80 251.35 340.04 245.24 350.41 C 241.83 345.87 235.31 346.06 230.41 347.98 C 229.76 346.09 229.89 341.82 226.91 343.74 C 228.10 341.82 231.11 340.16 229.69 337.57 C 227.78 337.03 226.82 335.65 226.63 333.72 C 230.81 330.71 238.27 329.21 233.84 322.24 C 232.48 322.19 229.78 322.09 228.43 322.05 C 227.22 321.67 226.02 321.31 224.81 320.96 Z" />
</g>
<g id="#7e8386ff">
<path fill="#7e8386" opacity="1.00" d=" M 191.13 318.00 C 196.81 319.71 193.48 326.19 189.94 327.98 C 184.56 328.44 188.82 321.24 192.03 321.77 C 190.25 321.19 189.36 319.27 191.13 318.00 Z" />
</g>
<g id="#1212139b">
<path fill="#121213" opacity="0.61" d=" M 239.77 318.15 C 243.26 317.99 246.76 318.00 250.20 318.85 C 246.71 319.03 243.19 318.92 239.77 318.15 Z" />
</g>
<g id="#5a5e6ef7">
<path fill="#5a5e6e" opacity="0.97" d=" M 163.94 321.97 C 166.71 324.30 172.51 324.61 173.13 328.85 C 171.35 329.06 169.56 329.16 167.77 329.25 C 164.40 328.65 164.08 324.72 163.94 321.97 Z" />
</g>
<g id="#787a83ff">
<path fill="#787a83" opacity="1.00" d=" M 228.43 322.05 C 229.78 322.09 232.48 322.19 233.84 322.24 C 238.27 329.21 230.81 330.71 226.63 333.72 C 223.64 333.25 220.70 333.31 218.23 335.20 C 218.21 331.52 218.46 327.79 220.29 324.50 C 223.25 324.53 227.06 325.68 228.43 322.05 Z" />
</g>
<g id="#313038e7">
<path fill="#313038" opacity="0.91" d=" M 235.99 329.93 C 240.86 327.67 248.55 323.71 253.43 328.14 C 247.73 329.56 241.78 329.13 235.99 329.93 Z" />
</g>
<g id="#7a7e8dff">
<path fill="#7a7e8d" opacity="1.00" d=" M 192.05 332.10 C 192.35 328.87 197.30 329.44 196.29 332.93 C 194.67 333.02 190.86 335.38 192.05 332.10 Z" />
</g>
<g id="#6d7076ff">
<path fill="#6d7076" opacity="1.00" d=" M 196.29 332.93 C 201.01 330.12 209.43 337.57 201.09 337.37 C 199.12 337.67 197.14 337.96 195.14 337.95 C 195.59 336.29 195.94 334.61 196.29 332.93 Z" />
</g>
<g id="#8f9488ff">
<path fill="#8f9488" opacity="1.00" d=" M 218.23 335.20 C 220.70 333.31 223.64 333.25 226.63 333.72 C 226.82 335.65 227.78 337.03 229.69 337.57 C 231.11 340.16 228.10 341.82 226.91 343.74 C 226.68 344.05 226.21 344.67 225.98 344.98 C 220.12 350.34 217.79 339.71 218.23 335.20 M 224.41 337.29 C 224.09 339.41 222.30 338.55 220.87 338.26 C 220.67 340.37 221.98 342.26 223.92 343.00 C 223.91 341.08 227.79 336.16 224.41 337.29 Z" />
</g>
<g id="#616a37ff">
<path fill="#616a37" opacity="1.00" d=" M 195.14 337.95 C 197.14 337.96 199.12 337.67 201.09 337.37 C 201.53 338.21 201.95 339.07 202.37 339.94 C 200.01 346.33 184.26 342.28 193.25 337.94 C 193.72 337.94 194.67 337.95 195.14 337.95 Z" />
</g>
<g id="#d7ddcdff">
<path fill="#d7ddcd" opacity="1.00" d=" M 224.41 337.29 C 227.79 336.16 223.91 341.08 223.92 343.00 C 221.98 342.26 220.67 340.37 220.87 338.26 C 222.30 338.55 224.09 339.41 224.41 337.29 Z" />
</g>
<g id="#3d3d44f6">
<path fill="#3d3d44" opacity="0.96" d=" M 226.91 343.74 C 229.89 341.82 229.76 346.09 230.41 347.98 C 235.31 346.06 241.83 345.87 245.24 350.41 C 242.72 354.00 234.80 346.02 234.70 351.81 C 234.63 358.12 227.00 353.30 223.07 353.43 C 222.52 350.20 224.29 347.51 225.98 344.98 C 226.21 344.67 226.68 344.05 226.91 343.74 Z" />
</g>
<g id="#6c7178ff">
<path fill="#6c7178" opacity="1.00" d=" M 198.96 346.02 C 201.32 345.82 205.54 345.40 205.05 349.01 C 202.89 349.03 198.60 349.12 198.96 346.02 Z" />
</g>
<g id="#5b6268fa">
<path fill="#5b6268" opacity="0.98" d=" M 207.79 355.02 C 207.97 350.23 214.45 347.49 213.21 354.19 C 211.44 354.64 209.63 355.05 207.79 355.02 Z" />
</g>
</svg>
