<?xml version="1.0" encoding="UTF-8" ?>
<!DOCTYPE svg PUBLIC "-//W3C//DTD SVG 1.1//EN" "http://www.w3.org/Graphics/SVG/1.1/DTD/svg11.dtd">
<svg width="384pt" height="384pt" viewBox="0 0 384 384" version="1.1" xmlns="http://www.w3.org/2000/svg">
<g id="#00000010">
<path fill="#000000" opacity="0.06" d=" M 3.06 32.37 C 8.33 34.50 14.93 32.59 16.64 40.18 C 14.46 32.90 21.56 33.87 25.54 34.57 C 30.62 36.60 37.85 40.33 42.19 35.17 C 46.28 33.83 41.90 42.23 46.83 41.33 C 53.76 44.89 62.94 34.48 67.61 42.40 C 69.86 46.44 74.91 39.26 77.94 43.02 C 81.79 48.71 88.52 43.23 93.72 42.59 C 96.90 45.98 102.99 42.45 105.38 47.63 C 121.86 44.92 137.51 53.08 153.70 54.24 C 154.93 59.34 160.85 56.29 164.30 59.19 C 171.79 57.08 177.74 65.29 184.92 61.46 C 188.76 64.49 193.29 60.93 195.94 57.89 C 197.07 59.23 195.75 63.70 198.33 62.37 C 207.16 59.01 213.93 69.31 222.74 67.20 C 227.26 69.39 222.48 72.78 222.92 76.07 C 224.59 75.47 226.15 74.64 227.79 73.97 C 227.54 75.38 226.54 80.06 229.21 78.20 C 232.90 75.44 229.14 80.85 229.06 82.73 C 231.25 83.87 234.16 84.96 233.95 87.98 C 232.77 94.48 238.82 97.59 242.34 101.65 C 245.74 105.13 253.13 103.08 254.10 109.04 L 253.03 109.03 C 251.99 108.25 250.97 107.45 249.91 106.73 C 243.89 107.09 239.38 103.15 235.36 99.29 C 233.81 97.06 231.56 95.55 229.13 94.43 C 227.79 94.48 225.10 94.60 223.75 94.65 C 221.21 96.48 218.21 97.18 215.09 97.31 C 213.42 96.60 211.22 96.31 210.02 97.99 C 208.47 98.58 206.82 98.82 205.17 98.85 L 204.85 98.17 C 202.72 92.79 194.37 99.73 191.09 95.53 C 197.02 93.77 190.16 89.20 188.98 86.03 C 180.00 80.51 167.92 83.20 159.31 76.79 C 152.56 77.81 147.47 70.35 141.23 74.96 C 138.54 66.43 127.48 68.02 120.73 69.15 C 114.86 61.64 105.46 69.35 99.49 63.47 C 94.76 63.99 89.89 64.89 85.36 63.02 C 85.33 69.01 80.46 61.71 77.26 62.57 C 69.89 64.23 62.33 68.77 54.64 65.71 C 48.49 66.71 44.03 72.23 38.14 73.79 C 36.25 65.83 30.35 73.23 26.94 76.01 C 23.07 74.10 18.28 72.75 18.60 78.91 C 12.15 77.35 5.84 76.74 0.00 81.01 L 0.00 36.28 C 0.94 34.92 1.87 33.53 3.06 32.37 Z" />
<path fill="#000000" opacity="0.06" d=" M 236.03 157.75 C 240.55 152.68 245.27 147.70 250.79 143.69 C 257.34 149.92 264.38 155.95 273.80 157.10 C 277.21 157.99 280.76 158.05 284.25 157.78 C 286.16 158.00 288.01 158.53 289.84 159.11 C 290.22 159.40 290.99 159.97 291.37 160.25 C 288.91 162.86 285.15 160.89 282.03 161.14 C 283.95 170.10 283.90 179.39 283.39 188.32 C 274.36 194.07 286.89 202.61 284.83 210.37 C 288.22 216.85 280.12 222.94 285.22 228.90 C 287.17 227.54 288.64 225.31 291.11 224.87 C 290.81 226.88 289.84 228.68 289.19 230.58 C 296.49 230.92 287.35 238.11 292.93 241.10 C 296.94 244.41 289.93 245.83 290.06 248.82 C 292.73 252.09 295.03 247.49 297.13 245.98 C 300.39 245.08 301.40 251.15 298.04 251.15 C 294.38 253.46 298.77 259.12 299.40 261.47 C 293.94 264.87 301.64 265.69 304.73 265.34 C 308.71 267.69 302.37 270.03 303.01 272.94 C 305.47 279.61 297.70 278.88 293.97 278.16 C 295.76 279.86 297.26 284.64 300.16 282.13 C 302.14 279.75 306.14 282.97 304.60 285.38 C 302.04 286.62 300.75 289.29 299.92 291.87 C 302.07 293.81 307.73 292.68 306.88 296.60 C 304.33 296.93 299.76 298.22 301.24 301.71 C 303.33 304.06 304.09 308.90 299.78 306.14 C 293.18 303.76 294.07 313.62 288.38 313.56 C 284.73 314.78 291.78 317.88 291.56 319.88 C 289.61 324.23 282.57 324.99 281.99 329.81 C 284.57 331.51 285.90 334.23 283.79 336.96 C 280.61 336.99 278.35 333.81 275.04 334.32 C 271.83 332.85 265.29 335.94 270.52 338.59 C 270.58 341.79 261.33 346.15 261.69 339.17 C 258.88 333.64 267.74 341.94 265.65 337.38 C 262.71 335.26 261.03 332.92 263.83 329.78 C 258.80 329.85 256.12 337.21 250.63 335.47 C 247.62 334.96 247.55 337.76 250.90 337.15 C 248.76 339.08 247.31 342.71 244.20 342.92 C 240.38 339.79 248.49 339.69 246.64 335.99 C 248.10 331.74 239.92 328.19 239.07 333.09 C 237.31 337.24 244.74 331.76 242.89 335.90 C 242.68 339.38 240.02 336.94 238.30 336.06 C 237.70 341.98 234.01 336.01 235.94 332.90 C 232.96 332.78 231.88 336.12 229.52 337.34 C 231.47 332.38 225.09 332.18 223.72 328.30 C 222.12 323.74 215.38 327.96 213.56 323.41 C 210.22 317.44 203.86 322.53 198.90 322.80 C 194.67 324.72 199.52 317.73 196.95 317.98 C 193.41 318.22 191.42 321.93 192.75 325.13 C 189.82 325.22 188.64 322.12 186.23 321.06 C 183.74 322.65 183.49 325.42 182.82 327.98 C 179.76 328.29 177.25 326.46 174.75 325.03 C 174.83 327.24 178.71 328.84 176.81 330.90 C 173.65 332.22 174.86 325.41 171.51 327.38 C 168.89 333.46 161.71 334.13 156.14 335.81 C 158.15 331.77 153.72 329.10 150.40 327.97 C 149.96 329.68 149.65 331.44 148.95 333.07 C 143.56 329.32 134.95 329.45 130.81 334.96 C 128.32 334.96 126.63 330.57 124.14 333.05 C 119.42 336.44 113.88 340.94 108.17 337.92 C 106.27 332.65 101.39 336.27 98.87 338.87 C 96.42 341.52 94.48 334.65 91.88 337.86 C 88.23 343.07 80.11 334.54 77.85 340.95 C 73.84 346.82 68.47 336.00 64.70 340.72 C 62.15 344.16 63.07 336.76 59.79 338.78 C 54.98 342.19 48.37 339.83 44.20 344.12 C 42.79 345.02 40.99 342.32 39.60 343.62 C 35.35 347.63 31.23 332.63 29.22 340.65 C 24.78 344.03 13.19 337.32 13.66 346.90 C 9.24 344.62 4.66 342.68 0.00 340.97 L 0.00 292.11 C 5.31 288.12 12.38 293.31 18.84 292.65 C 23.12 290.68 24.53 294.89 26.29 298.09 C 28.61 296.00 32.07 293.17 35.06 296.12 C 34.11 299.57 27.33 295.44 29.10 300.76 C 31.71 304.63 34.32 298.23 37.34 299.58 C 41.66 302.04 46.19 296.61 47.93 303.05 C 54.91 296.28 65.27 298.02 72.10 303.93 C 71.27 302.07 69.92 300.13 70.99 298.06 C 76.16 301.80 81.14 306.62 88.02 304.18 C 96.26 310.85 109.01 302.27 118.61 302.61 C 120.81 299.06 124.89 296.97 129.13 299.00 C 131.98 300.70 132.94 295.71 135.70 296.28 C 142.53 297.61 149.45 298.54 155.99 300.87 C 162.86 298.91 170.13 299.78 177.03 298.08 C 182.93 296.62 185.06 289.87 190.39 287.43 C 197.60 284.38 203.62 279.21 210.61 275.72 C 216.30 275.62 221.14 272.29 226.75 271.86 C 226.15 271.03 225.51 270.23 224.94 269.39 C 229.04 269.73 232.56 267.06 235.55 264.58 C 238.19 261.22 240.55 255.20 245.77 256.62 C 249.06 254.77 243.90 249.74 247.77 247.78 C 253.97 243.70 247.59 237.34 250.11 231.55 C 247.91 227.82 256.39 224.28 250.13 222.52 C 253.59 218.04 260.01 216.94 263.02 211.95 C 266.22 209.21 266.61 204.77 265.29 200.93 C 265.02 197.38 261.98 195.20 258.89 194.12 C 254.76 192.78 252.86 186.71 247.96 188.78 C 252.13 181.24 244.15 172.99 245.38 164.70 C 244.93 159.43 239.75 159.57 236.03 157.75 Z" />
</g>
<g id="#00000017">
<path fill="#000000" opacity="0.09" d=" M 77.26 62.57 C 80.46 61.71 85.33 69.01 85.36 63.02 C 89.89 64.89 94.76 63.99 99.49 63.47 C 105.46 69.35 114.86 61.64 120.73 69.15 C 127.48 68.02 138.54 66.43 141.23 74.96 C 147.47 70.35 152.56 77.81 159.31 76.79 C 167.92 83.20 180.00 80.51 188.98 86.03 C 190.16 89.20 197.02 93.77 191.09 95.53 C 194.37 99.73 202.72 92.79 204.85 98.17 C 203.39 98.30 200.46 98.55 199.00 98.67 C 197.66 99.74 196.36 100.85 195.08 101.99 C 188.30 104.13 181.64 106.93 176.82 112.38 C 176.18 112.15 174.91 111.68 174.28 111.45 C 168.90 110.19 163.41 109.09 158.00 107.91 C 158.97 106.01 160.26 104.17 160.11 101.91 C 158.17 102.56 156.88 103.98 156.50 106.00 C 154.24 104.75 155.76 102.16 155.71 100.17 C 154.30 97.67 151.67 100.09 149.93 100.86 C 148.15 99.78 147.10 95.66 144.80 96.87 C 138.81 100.07 137.68 89.55 132.04 89.87 C 123.68 88.78 116.96 83.64 108.20 83.84 C 111.04 77.08 102.39 81.78 98.54 80.55 C 94.02 74.50 88.31 89.08 88.65 80.83 C 86.37 78.40 80.43 82.73 77.19 83.84 C 73.42 78.71 68.88 83.99 65.02 86.01 C 63.07 85.30 58.42 80.38 59.67 85.08 C 59.69 88.19 56.06 86.55 54.80 85.15 C 52.06 85.73 51.36 88.70 49.90 90.68 C 44.04 86.54 37.42 93.09 31.03 92.13 C 26.44 92.33 23.55 98.44 18.91 97.21 C 12.10 93.99 7.01 100.93 0.00 98.27 L 0.00 81.01 C 5.84 76.74 12.15 77.35 18.60 78.91 C 18.28 72.75 23.07 74.10 26.94 76.01 C 30.35 73.23 36.25 65.83 38.14 73.79 C 44.03 72.23 48.49 66.71 54.64 65.71 C 62.33 68.77 69.89 64.23 77.26 62.57 Z" />
</g>
<g id="#0000001d">
<path fill="#000000" opacity="0.11" d=" M 77.19 83.84 C 80.43 82.73 86.37 78.40 88.65 80.83 C 88.31 89.08 94.02 74.50 98.54 80.55 C 102.39 81.78 111.04 77.08 108.20 83.84 C 116.96 83.64 123.68 88.78 132.04 89.87 C 137.68 89.55 138.81 100.07 144.80 96.87 C 147.10 95.66 148.15 99.78 149.93 100.86 C 151.67 100.09 154.30 97.67 155.71 100.17 C 155.76 102.16 154.24 104.75 156.50 106.00 C 156.88 103.98 158.17 102.56 160.11 101.91 C 160.26 104.17 158.97 106.01 158.00 107.91 C 163.41 109.09 168.90 110.19 174.28 111.45 C 173.70 111.79 172.55 112.46 171.97 112.80 C 168.01 112.49 164.02 113.25 160.91 115.76 C 159.73 116.68 158.73 117.78 157.69 118.83 L 157.07 119.21 C 151.25 119.40 144.30 122.10 139.86 117.16 C 134.18 114.46 128.03 112.05 121.81 111.05 C 116.92 106.49 110.28 110.44 105.87 105.43 C 102.11 106.84 97.57 107.32 93.85 106.15 C 91.16 104.01 85.21 96.67 84.14 103.33 C 81.38 105.34 77.21 99.03 73.81 101.82 C 68.45 105.22 61.55 102.47 56.25 104.17 C 54.33 109.52 49.19 102.90 47.49 107.41 C 41.76 107.15 35.48 109.98 32.06 113.64 C 26.19 110.59 23.03 121.54 17.20 116.43 C 13.78 122.40 5.69 120.57 0.00 121.10 L 0.00 98.27 C 7.01 100.93 12.10 93.99 18.91 97.21 C 23.55 98.44 26.44 92.33 31.03 92.13 C 37.42 93.09 44.04 86.54 49.90 90.68 C 51.36 88.70 52.06 85.73 54.80 85.15 C 56.06 86.55 59.69 88.19 59.67 85.08 C 58.42 80.38 63.07 85.30 65.02 86.01 C 68.88 83.99 73.42 78.71 77.19 83.84 Z" />
</g>
<g id="#20222a8b">
<path fill="#20222a" opacity="0.55" d=" M 223.75 94.65 C 225.10 94.60 227.79 94.48 229.13 94.43 C 227.61 95.64 225.33 95.89 223.75 94.65 Z" />
<path fill="#20222a" opacity="0.55" d=" M 210.02 97.99 C 211.22 96.31 213.42 96.60 215.09 97.31 C 213.62 98.44 211.73 98.36 210.02 97.99 Z" />
</g>
<g id="#494e58fe">
<path fill="#494e58" opacity="1.00" d=" M 215.09 97.31 C 218.21 97.18 221.21 96.48 223.75 94.65 C 224.87 98.87 231.44 99.54 235.36 99.29 C 239.38 103.15 243.89 107.09 249.91 106.73 C 245.87 110.42 253.97 112.44 249.91 116.91 C 244.79 112.73 238.46 111.79 233.10 108.07 C 230.64 109.26 228.41 110.86 225.99 112.13 C 229.73 108.30 225.76 100.59 221.08 104.22 C 224.29 109.32 220.23 113.97 215.93 117.01 C 218.58 116.47 227.00 120.70 224.38 114.72 C 226.92 115.76 228.99 117.61 229.10 120.51 C 223.45 119.95 218.01 117.01 212.24 118.18 C 209.05 119.55 211.29 123.72 213.86 123.92 C 216.32 122.15 211.55 116.27 218.66 120.33 C 221.92 121.36 216.68 123.51 215.82 125.05 C 219.52 125.44 222.43 122.85 225.83 121.99 C 228.31 125.88 224.89 131.01 222.37 134.28 C 223.81 130.71 219.04 131.00 220.77 127.22 C 211.60 121.81 207.42 137.66 198.04 131.99 C 195.57 127.74 191.32 130.43 187.62 130.97 C 187.64 127.47 184.95 121.26 180.74 123.70 C 176.05 126.14 176.17 133.05 170.69 134.56 C 169.53 130.88 169.12 127.00 168.85 123.16 C 173.35 127.34 175.37 122.43 176.08 118.20 C 184.52 121.60 182.90 114.07 175.15 115.81 C 174.10 114.79 173.03 113.80 171.97 112.80 C 173.52 113.13 175.12 113.18 176.70 113.03 C 177.95 117.68 184.04 114.72 185.23 111.50 C 189.27 113.45 195.21 110.33 191.41 106.29 C 193.32 105.39 195.34 104.49 195.08 101.99 C 196.36 100.85 197.66 99.74 199.00 98.67 C 200.98 99.39 203.15 99.53 205.17 98.85 C 206.82 98.82 208.47 98.58 210.02 97.99 C 211.73 98.36 213.62 98.44 215.09 97.31 M 186.26 116.21 C 182.17 117.51 185.77 125.65 189.11 122.14 C 193.57 119.75 190.85 114.46 186.26 116.21 Z" />
</g>
<g id="#6d7186f6">
<path fill="#6d7186" opacity="0.96" d=" M 223.75 94.65 C 225.33 95.89 227.61 95.64 229.13 94.43 C 231.56 95.55 233.81 97.06 235.36 99.29 C 231.44 99.54 224.87 98.87 223.75 94.65 Z" />
</g>
<g id="#21262d91">
<path fill="#21262d" opacity="0.57" d=" M 199.00 98.67 C 200.46 98.55 203.39 98.30 204.85 98.17 L 205.17 98.85 C 203.15 99.53 200.98 99.39 199.00 98.67 Z" />
</g>
<g id="#00000024">
<path fill="#000000" opacity="0.14" d=" M 84.14 103.33 C 85.21 96.67 91.16 104.01 93.85 106.15 C 97.57 107.32 102.11 106.84 105.87 105.43 C 110.28 110.44 116.92 106.49 121.81 111.05 C 128.03 112.05 134.18 114.46 139.86 117.16 C 144.30 122.10 151.25 119.40 157.07 119.21 C 153.47 121.57 149.82 123.84 146.14 126.06 C 133.37 128.28 121.63 120.44 109.08 120.89 C 103.45 119.58 97.94 125.06 92.26 121.60 C 84.07 118.88 75.48 122.70 67.11 121.18 C 61.88 125.68 53.71 120.48 49.56 126.59 C 37.31 127.09 25.07 127.83 12.83 128.66 C 8.64 130.17 4.17 129.51 0.00 128.20 L 0.00 121.10 C 5.69 120.57 13.78 122.40 17.20 116.43 C 23.03 121.54 26.19 110.59 32.06 113.64 C 35.48 109.98 41.76 107.15 47.49 107.41 C 49.19 102.90 54.33 109.52 56.25 104.17 C 61.55 102.47 68.45 105.22 73.81 101.82 C 77.21 99.03 81.38 105.34 84.14 103.33 Z" />
</g>
<g id="#31343df8">
<path fill="#31343d" opacity="0.97" d=" M 176.82 112.38 C 181.64 106.93 188.30 104.13 195.08 101.99 C 195.34 104.49 193.32 105.39 191.41 106.29 C 195.21 110.33 189.27 113.45 185.23 111.50 C 184.04 114.72 177.95 117.68 176.70 113.03 L 176.82 112.38 Z" />
</g>
<g id="#1f242780">
<path fill="#1f2427" opacity="0.50" d=" M 276.90 102.58 C 278.73 100.99 280.79 100.99 283.07 102.60 C 281.10 103.47 278.86 103.47 276.90 102.58 Z" />
</g>
<g id="#6c6f77ff">
<path fill="#6c6f77" opacity="1.00" d=" M 221.08 104.22 C 225.76 100.59 229.73 108.30 225.99 112.13 C 228.41 110.86 230.64 109.26 233.10 108.07 C 238.46 111.79 244.79 112.73 249.91 116.91 C 253.97 112.44 245.87 110.42 249.91 106.73 C 250.97 107.45 251.99 108.25 253.03 109.03 C 253.30 109.28 253.86 109.80 254.14 110.06 C 256.12 111.43 254.91 113.91 255.13 115.89 C 256.84 115.95 260.27 116.06 261.98 116.12 C 261.93 119.15 261.94 122.20 261.92 125.24 C 259.63 126.00 257.27 125.31 254.96 125.09 C 254.18 130.27 260.22 133.08 258.02 138.10 C 252.72 137.72 255.45 124.78 252.23 131.37 C 250.39 133.90 255.18 137.59 251.60 139.62 C 248.61 143.47 246.68 137.94 244.65 136.04 C 240.67 131.73 241.62 120.63 234.48 121.53 C 232.48 123.42 230.74 122.08 229.10 120.51 C 228.99 117.61 226.92 115.76 224.38 114.72 C 227.00 120.70 218.58 116.47 215.93 117.01 C 220.23 113.97 224.29 109.32 221.08 104.22 M 240.92 120.96 C 241.86 123.67 244.44 131.30 247.88 127.76 C 250.64 122.02 244.16 122.16 240.92 120.96 Z" />
</g>
<g id="#626970fb">
<path fill="#626970" opacity="1.00" d=" M 274.90 104.33 C 275.40 103.89 276.40 103.02 276.90 102.58 C 278.86 103.47 281.10 103.47 283.07 102.60 C 284.71 104.06 286.14 105.75 287.37 107.58 L 287.27 108.52 C 281.66 107.36 279.52 109.43 280.87 114.72 C 283.54 113.04 288.29 114.85 289.30 111.03 C 287.34 117.57 298.35 115.49 295.44 121.34 C 293.32 125.94 299.36 123.55 302.26 123.81 C 303.90 124.86 302.16 127.07 301.94 128.49 C 296.21 129.67 293.55 126.10 290.92 122.20 C 295.54 122.32 291.46 115.25 288.31 117.25 C 285.72 118.12 288.78 120.74 289.12 122.37 C 286.18 121.71 285.14 119.11 284.42 116.50 C 277.50 117.90 280.99 110.97 279.67 107.48 C 278.05 106.51 275.51 106.41 274.90 104.33 Z" />
</g>
<g id="#383d3ffb">
<path fill="#383d3f" opacity="1.00" d=" M 262.30 109.42 C 266.89 108.75 272.15 108.64 274.90 104.33 C 275.51 106.41 278.05 106.51 279.67 107.48 C 280.99 110.97 277.50 117.90 284.42 116.50 C 285.14 119.11 286.18 121.71 289.12 122.37 C 287.62 125.95 282.87 120.44 281.69 118.15 C 279.58 119.84 277.14 120.05 274.80 118.63 C 280.97 114.66 273.01 106.31 267.82 109.89 C 265.78 112.15 265.71 115.72 261.98 116.12 C 260.27 116.06 256.84 115.95 255.13 115.89 C 254.91 113.91 256.12 111.43 254.14 110.06 C 256.84 109.92 259.61 109.88 262.30 109.42 Z" />
</g>
<g id="#37393fe4">
<path fill="#37393f" opacity="0.89" d=" M 287.37 107.58 C 294.20 111.10 295.01 120.14 302.26 123.81 C 299.36 123.55 293.32 125.94 295.44 121.34 C 298.35 115.49 287.34 117.57 289.30 111.03 C 288.65 110.16 287.98 109.33 287.27 108.52 L 287.37 107.58 Z" />
</g>
<g id="#14161875">
<path fill="#141618" opacity="0.46" d=" M 253.03 109.03 L 254.10 109.04 C 256.83 109.16 259.56 109.28 262.30 109.42 C 259.61 109.88 256.84 109.92 254.14 110.06 C 253.86 109.80 253.30 109.28 253.03 109.03 Z" />
</g>
<g id="#6d7950ff">
<path fill="#6d7950" opacity="1.00" d=" M 267.82 109.89 C 273.01 106.31 280.97 114.66 274.80 118.63 C 270.87 118.11 266.61 114.07 267.82 109.89 Z" />
</g>
<g id="#7d8894ff">
<path fill="#7d8894" opacity="1.00" d=" M 280.87 114.72 C 279.52 109.43 281.66 107.36 287.27 108.52 C 287.98 109.33 288.65 110.16 289.30 111.03 C 288.29 114.85 283.54 113.04 280.87 114.72 Z" />
</g>
<g id="#51555ffe">
<path fill="#51555f" opacity="1.00" d=" M 261.98 116.12 C 265.71 115.72 265.78 112.15 267.82 109.89 C 266.61 114.07 270.87 118.11 274.80 118.63 C 277.14 120.05 279.58 119.84 281.69 118.15 C 282.87 120.44 287.62 125.95 289.12 122.37 C 289.57 122.33 290.47 122.25 290.92 122.20 C 293.55 126.10 296.21 129.67 301.94 128.49 C 306.61 130.38 311.23 134.37 310.07 139.99 C 304.87 137.98 298.94 139.95 294.17 136.81 C 291.74 135.15 289.24 139.03 286.65 137.42 C 282.02 136.47 286.00 129.67 282.26 128.05 C 281.70 129.09 281.46 130.41 280.34 131.03 C 275.54 129.25 273.40 123.88 268.24 122.74 C 262.10 114.75 267.47 130.73 267.20 133.66 C 266.51 133.78 265.13 134.03 264.44 134.15 C 264.06 131.06 262.91 128.17 261.92 125.24 C 261.94 122.20 261.93 119.15 261.98 116.12 M 290.33 128.36 C 283.98 126.16 283.53 139.51 289.07 134.08 C 294.74 138.03 295.84 127.59 290.33 128.36 Z" />
</g>
<g id="#21242a7f">
<path fill="#21242a" opacity="0.50" d=" M 171.97 112.80 C 172.55 112.46 173.70 111.79 174.28 111.45 C 174.91 111.68 176.18 112.15 176.82 112.38 L 176.70 113.03 C 175.12 113.18 173.52 113.13 171.97 112.80 Z" />
</g>
<g id="#424651fe">
<path fill="#424651" opacity="1.00" d=" M 160.91 115.76 C 164.02 113.25 168.01 112.49 171.97 112.80 C 173.03 113.80 174.10 114.79 175.15 115.81 C 175.38 116.41 175.85 117.61 176.08 118.20 C 175.37 122.43 173.35 127.34 168.85 123.16 C 169.12 127.00 169.53 130.88 170.69 134.56 C 172.01 139.49 175.06 143.92 173.72 149.12 C 175.76 154.29 166.51 150.63 167.06 154.86 C 168.87 155.90 170.91 156.44 172.85 157.19 C 171.33 158.68 168.48 159.78 169.56 162.36 C 170.67 165.54 163.81 169.45 168.46 171.44 C 179.49 170.13 167.27 182.78 175.21 183.26 C 178.26 182.80 180.27 184.95 182.09 187.08 C 179.33 190.01 175.40 191.16 172.06 193.21 C 168.89 203.18 181.44 194.64 182.28 201.30 C 182.25 205.42 183.06 209.83 179.99 213.12 C 185.23 207.29 187.66 218.38 183.56 221.59 C 182.52 225.33 187.65 232.24 180.74 230.87 C 177.57 229.66 174.45 227.98 170.98 227.93 C 171.85 231.63 172.31 235.34 168.28 237.22 C 169.84 239.63 173.46 241.27 171.06 244.80 C 166.44 242.64 162.65 246.68 158.18 245.21 C 162.57 252.11 150.34 252.61 151.31 246.15 C 153.72 240.29 146.17 246.18 144.60 241.48 C 140.33 244.07 137.44 235.80 142.67 237.36 C 146.52 238.08 152.52 227.70 146.28 229.28 C 143.19 229.96 142.73 234.92 139.13 233.99 C 134.79 231.77 134.23 226.42 133.17 222.11 C 137.98 217.48 135.49 232.66 140.41 227.45 C 143.00 224.89 140.62 216.70 146.82 218.25 C 153.14 220.34 146.85 215.31 146.83 212.18 C 149.76 212.87 154.15 213.87 155.00 209.89 C 156.53 207.25 148.80 203.62 153.95 203.99 C 158.13 202.96 156.43 210.15 159.83 209.88 C 161.58 208.62 160.77 206.28 160.89 204.46 C 166.10 207.35 165.65 197.10 162.42 197.15 C 162.74 200.72 158.13 200.89 158.38 197.34 C 160.35 195.23 162.11 192.80 164.75 191.48 C 163.07 187.64 158.04 186.47 154.23 186.07 C 150.84 188.82 154.99 192.40 157.87 193.21 C 157.36 195.09 156.28 196.72 155.00 198.17 C 152.35 192.71 147.33 187.82 146.88 181.90 C 141.15 177.01 142.67 185.68 143.97 189.06 C 140.09 190.25 141.93 185.48 139.33 184.56 C 136.88 182.79 135.46 186.66 134.05 188.09 C 133.82 182.93 129.85 182.00 126.99 186.11 C 126.92 185.27 126.80 183.58 126.74 182.74 C 130.72 177.44 132.01 171.44 133.40 165.09 C 134.06 164.44 134.69 163.75 135.29 163.04 C 138.09 155.42 142.05 148.82 139.00 140.09 C 139.02 139.59 139.08 138.58 139.10 138.08 C 139.40 137.10 139.69 136.11 139.96 135.12 C 140.25 134.06 140.55 133.00 140.84 131.95 C 142.09 129.55 144.07 127.73 146.14 126.06 C 149.82 123.84 153.47 121.57 157.07 119.21 L 157.69 118.83 C 159.21 124.33 165.62 120.85 168.89 118.80 C 169.04 115.42 163.34 116.53 160.91 115.76 M 146.21 132.13 C 143.46 134.95 140.99 139.03 143.23 142.90 C 149.22 145.68 152.19 131.80 146.21 132.13 M 154.81 148.21 C 157.72 150.35 162.06 153.61 165.28 150.21 L 164.65 149.58 C 165.07 149.21 165.89 148.48 166.31 148.11 C 168.66 146.21 166.23 142.56 169.83 141.85 C 167.80 137.71 166.94 132.57 160.16 135.01 C 153.92 134.53 151.26 143.91 154.81 148.21 M 160.19 163.30 C 156.76 164.76 152.67 170.32 156.67 173.34 C 161.68 174.40 167.43 164.81 160.19 163.30 M 174.20 217.44 C 169.26 218.19 174.65 224.67 177.94 224.00 C 182.72 222.40 178.24 216.10 174.20 217.44 M 157.18 226.05 C 155.76 228.51 153.54 232.63 156.24 234.92 C 164.71 239.05 162.31 224.87 157.18 226.05 Z" />
</g>
<g id="#717689fd">
<path fill="#717689" opacity="1.00" d=" M 157.69 118.83 C 158.73 117.78 159.73 116.68 160.91 115.76 C 163.34 116.53 169.04 115.42 168.89 118.80 C 165.62 120.85 159.21 124.33 157.69 118.83 Z" />
</g>
<g id="#7c7e91ff">
<path fill="#7c7e91" opacity="1.00" d=" M 175.15 115.81 C 182.90 114.07 184.52 121.60 176.08 118.20 C 175.85 117.61 175.38 116.41 175.15 115.81 Z" />
</g>
<g id="#697062ff">
<path fill="#697062" opacity="1.00" d=" M 186.26 116.21 C 190.85 114.46 193.57 119.75 189.11 122.14 C 185.77 125.65 182.17 117.51 186.26 116.21 Z" />
</g>
<g id="#818d99ff">
<path fill="#818d99" opacity="1.00" d=" M 288.31 117.25 C 291.46 115.25 295.54 122.32 290.92 122.20 C 290.47 122.25 289.57 122.33 289.12 122.37 C 288.78 120.74 285.72 118.12 288.31 117.25 Z" />
</g>
<g id="#393c3efd">
<path fill="#393c3e" opacity="1.00" d=" M 212.24 118.18 C 218.01 117.01 223.45 119.95 229.10 120.51 C 230.74 122.08 232.48 123.42 234.48 121.53 C 241.62 120.63 240.67 131.73 244.65 136.04 C 246.68 137.94 248.61 143.47 251.60 139.62 C 255.18 137.59 250.39 133.90 252.23 131.37 C 255.45 124.78 252.72 137.72 258.02 138.10 C 261.13 138.84 263.29 136.83 264.44 134.15 C 265.13 134.03 266.51 133.78 267.20 133.66 C 267.42 138.14 267.67 148.61 274.91 146.18 C 277.58 147.32 277.20 152.11 278.07 154.90 C 275.48 152.65 272.91 150.58 269.28 151.70 C 265.97 148.67 263.09 143.51 264.80 138.79 C 260.16 138.09 257.97 150.95 255.44 144.43 C 254.08 143.68 252.57 143.26 251.06 143.00 C 242.73 142.01 234.60 139.95 226.59 137.55 C 223.99 136.39 222.15 136.91 221.08 139.11 C 221.07 138.44 221.04 137.09 221.03 136.42 C 221.36 135.89 222.03 134.81 222.37 134.28 C 224.89 131.01 228.31 125.88 225.83 121.99 C 222.43 122.85 219.52 125.44 215.82 125.05 C 216.68 123.51 221.92 121.36 218.66 120.33 C 211.55 116.27 216.32 122.15 213.86 123.92 C 211.29 123.72 209.05 119.55 212.24 118.18 Z" />
</g>
<g id="#0000002e">
<path fill="#000000" opacity="0.18" d=" M 67.11 121.18 C 75.48 122.70 84.07 118.88 92.26 121.60 C 97.94 125.06 103.45 119.58 109.08 120.89 C 121.63 120.44 133.37 128.28 146.14 126.06 C 144.07 127.73 142.09 129.55 140.84 131.95 C 104.17 129.25 67.71 136.81 31.01 135.09 C 20.67 135.16 10.33 134.68 0.00 134.31 L 0.00 128.20 C 4.17 129.51 8.64 130.17 12.83 128.66 C 25.07 127.83 37.31 127.09 49.56 126.59 C 53.71 120.48 61.88 125.68 67.11 121.18 Z" />
</g>
<g id="#64686eff">
<path fill="#64686e" opacity="1.00" d=" M 267.20 133.66 C 267.47 130.73 262.10 114.75 268.24 122.74 C 273.40 123.88 275.54 129.25 280.34 131.03 C 278.28 134.41 281.56 138.71 284.61 140.42 C 283.66 142.00 282.48 143.42 281.47 144.96 C 277.30 149.42 286.32 147.47 288.05 150.89 L 287.89 151.70 C 286.41 156.13 281.57 154.18 278.07 154.90 C 277.20 152.11 277.58 147.32 274.91 146.18 C 267.67 148.61 267.42 138.14 267.20 133.66 M 270.99 140.03 C 270.72 142.01 270.85 145.67 273.79 144.91 C 276.54 142.42 274.91 138.37 270.99 140.03 Z" />
</g>
<g id="#9a9ea7ff">
<path fill="#9a9ea7" opacity="1.00" d=" M 240.92 120.96 C 244.16 122.16 250.64 122.02 247.88 127.76 C 244.44 131.30 241.86 123.67 240.92 120.96 Z" />
</g>
<g id="#666b73ff">
<path fill="#666b73" opacity="1.00" d=" M 180.74 123.70 C 184.95 121.26 187.64 127.47 187.62 130.97 C 191.32 130.43 195.57 127.74 198.04 131.99 C 207.42 137.66 211.60 121.81 220.77 127.22 C 219.04 131.00 223.81 130.71 222.37 134.28 C 222.03 134.81 221.36 135.89 221.03 136.42 C 218.27 134.27 215.08 132.48 211.46 133.31 C 210.15 135.94 208.95 138.62 207.74 141.28 C 206.21 135.03 201.08 140.87 205.13 144.86 C 209.08 150.20 214.11 154.26 220.24 156.95 C 225.41 161.66 228.60 168.03 230.34 174.71 C 228.29 178.68 233.98 192.24 225.96 189.38 C 221.81 189.92 221.87 187.36 223.10 184.24 C 230.84 184.45 222.54 172.71 221.34 180.99 C 219.14 176.48 213.19 178.98 209.18 177.73 C 208.92 175.11 208.97 172.48 208.19 169.97 C 207.86 168.74 207.49 167.53 207.05 166.34 C 208.40 165.89 209.73 165.40 211.04 164.86 C 210.38 174.98 217.16 167.26 222.26 170.91 C 221.78 167.99 217.24 167.27 218.70 163.88 C 220.10 161.22 212.05 158.25 214.53 162.36 C 215.76 165.29 214.27 165.19 212.07 163.89 C 212.96 160.07 208.85 154.67 205.25 158.29 C 203.83 160.12 202.45 159.12 201.20 157.69 C 200.38 156.61 197.60 154.87 197.16 157.00 C 196.75 160.83 192.21 158.15 190.05 157.35 C 190.56 152.75 188.70 148.36 187.87 144.05 C 182.02 146.07 189.29 152.51 184.18 155.24 C 183.91 150.48 179.38 156.10 178.07 157.92 C 180.01 150.61 170.14 155.49 175.95 159.31 C 175.30 163.07 177.00 166.47 180.71 163.56 C 183.04 167.11 191.18 163.69 187.58 170.56 C 186.35 174.84 183.13 175.75 180.25 172.28 C 178.42 174.60 175.68 176.62 175.70 179.86 C 179.15 175.51 182.34 181.01 182.90 184.46 C 182.49 187.17 183.51 188.38 186.20 187.46 C 186.06 192.22 185.45 197.50 182.28 201.30 C 181.44 194.64 168.89 203.18 172.06 193.21 C 175.40 191.16 179.33 190.01 182.09 187.08 C 180.27 184.95 178.26 182.80 175.21 183.26 C 167.27 182.78 179.49 170.13 168.46 171.44 C 163.81 169.45 170.67 165.54 169.56 162.36 C 168.48 159.78 171.33 158.68 172.85 157.19 C 170.91 156.44 168.87 155.90 167.06 154.86 C 166.51 150.63 175.76 154.29 173.72 149.12 C 175.06 143.92 172.01 139.49 170.69 134.56 C 176.17 133.05 176.05 126.14 180.74 123.70 M 180.35 134.27 C 177.69 136.69 176.73 141.92 181.07 142.99 C 186.87 143.17 185.65 133.60 180.35 134.27 M 199.14 134.11 C 197.40 135.82 198.79 139.35 195.63 139.62 C 191.51 140.97 198.41 143.15 197.55 145.41 C 193.57 157.57 199.71 143.41 200.33 150.00 C 205.06 145.96 202.04 137.45 199.14 134.11 M 207.19 150.32 C 205.36 151.23 205.02 156.24 208.03 155.01 C 210.20 155.48 208.38 149.60 207.19 150.32 M 214.25 172.33 C 211.27 172.15 211.21 176.90 214.00 176.95 C 216.69 177.30 216.67 171.81 214.25 172.33 Z" />
</g>
<g id="#878a94ff">
<path fill="#878a94" opacity="1.00" d=" M 254.96 125.09 C 257.27 125.31 259.63 126.00 261.92 125.24 C 262.91 128.17 264.06 131.06 264.44 134.15 C 263.29 136.83 261.13 138.84 258.02 138.10 C 260.22 133.08 254.18 130.27 254.96 125.09 Z" />
</g>
<g id="#33343df8">
<path fill="#33343d" opacity="0.97" d=" M 282.26 128.05 C 286.00 129.67 282.02 136.47 286.65 137.42 C 289.24 139.03 291.74 135.15 294.17 136.81 C 298.94 139.95 304.87 137.98 310.07 139.99 C 309.83 140.53 309.36 141.60 309.13 142.13 C 307.36 142.12 303.82 142.09 302.05 142.07 C 301.56 141.79 300.58 141.24 300.09 140.96 C 296.71 139.75 293.28 139.68 289.78 140.76 C 286.74 141.56 284.10 143.30 281.47 144.96 C 282.48 143.42 283.66 142.00 284.61 140.42 C 281.56 138.71 278.28 134.41 280.34 131.03 C 281.46 130.41 281.70 129.09 282.26 128.05 Z" />
</g>
<g id="#768391ff">
<path fill="#768391" opacity="1.00" d=" M 290.33 128.36 C 295.84 127.59 294.74 138.03 289.07 134.08 C 283.53 139.51 283.98 126.16 290.33 128.36 Z" />
</g>
<g id="#0000003d">
<path fill="#000000" opacity="0.24" d=" M 31.01 135.09 C 67.71 136.81 104.17 129.25 140.84 131.95 C 140.55 133.00 140.25 134.06 139.96 135.12 L 139.14 135.21 C 112.49 132.12 85.97 138.93 59.32 139.42 C 39.58 140.86 19.72 139.39 0.00 141.02 L 0.00 134.31 C 10.33 134.68 20.67 135.16 31.01 135.09 Z" />
</g>
<g id="#585d73ff">
<path fill="#585d73" opacity="1.00" d=" M 146.21 132.13 C 152.19 131.80 149.22 145.68 143.23 142.90 C 140.99 139.03 143.46 134.95 146.21 132.13 Z" />
</g>
<g id="#8f93a0fd">
<path fill="#8f93a0" opacity="1.00" d=" M 211.46 133.31 C 215.08 132.48 218.27 134.27 221.03 136.42 C 221.04 137.09 221.07 138.44 221.08 139.11 C 221.56 143.07 219.47 146.45 216.91 149.24 C 212.56 153.15 211.80 143.32 207.74 141.28 C 208.95 138.62 210.15 135.94 211.46 133.31 Z" />
</g>
<g id="#00000050">
<path fill="#000000" opacity="0.31" d=" M 59.32 139.42 C 85.97 138.93 112.49 132.12 139.14 135.21 C 104.78 136.71 70.91 143.69 36.52 145.41 C 34.25 145.61 24.03 145.83 26.69 150.26 C 50.07 156.91 74.14 164.34 98.83 161.68 C 110.13 161.01 123.04 159.62 133.40 165.09 C 132.01 171.44 130.72 177.44 126.74 182.74 C 126.06 184.45 125.84 186.29 125.58 188.11 C 123.01 182.07 126.93 177.18 128.95 171.98 C 130.07 169.04 126.92 170.54 125.27 170.51 C 123.24 160.52 107.21 165.05 99.99 164.10 C 66.31 168.57 33.75 152.79 0.00 157.11 L 0.00 141.02 C 19.72 139.39 39.58 140.86 59.32 139.42 Z" />
</g>
<g id="#8c91a1ff">
<path fill="#8c91a1" opacity="1.00" d=" M 180.35 134.27 C 185.65 133.60 186.87 143.17 181.07 142.99 C 176.73 141.92 177.69 136.69 180.35 134.27 Z" />
</g>
<g id="#7e838eff">
<path fill="#7e838e" opacity="1.00" d=" M 199.14 134.11 C 202.04 137.45 205.06 145.96 200.33 150.00 C 199.71 143.41 193.57 157.57 197.55 145.41 C 198.41 143.15 191.51 140.97 195.63 139.62 C 198.79 139.35 197.40 135.82 199.14 134.11 Z" />
</g>
<g id="#00000060">
<path fill="#000000" opacity="0.38" d=" M 139.14 135.21 L 139.96 135.12 C 139.69 136.11 139.40 137.10 139.10 138.08 C 118.57 137.68 98.20 141.63 78.26 146.17 C 73.34 147.93 63.20 147.32 63.08 154.63 C 86.37 163.02 111.60 154.43 135.09 162.13 L 135.29 163.04 C 134.69 163.75 134.06 164.44 133.40 165.09 C 123.04 159.62 110.13 161.01 98.83 161.68 C 74.14 164.34 50.07 156.91 26.69 150.26 C 24.03 145.83 34.25 145.61 36.52 145.41 C 70.91 143.69 104.78 136.71 139.14 135.21 Z" />
</g>
<g id="#64687fff">
<path fill="#64687f" opacity="1.00" d=" M 154.81 148.21 C 151.26 143.91 153.92 134.53 160.16 135.01 C 156.26 138.48 161.01 143.34 158.49 147.37 C 156.99 150.90 163.02 149.77 165.28 150.21 C 162.06 153.61 157.72 150.35 154.81 148.21 Z" />
</g>
<g id="#888d9aff">
<path fill="#888d9a" opacity="1.00" d=" M 160.16 135.01 C 166.94 132.57 167.80 137.71 169.83 141.85 C 166.23 142.56 168.66 146.21 166.31 148.11 C 166.31 145.54 164.80 143.17 161.95 143.95 C 162.38 145.99 162.85 148.27 164.65 149.58 L 165.28 150.21 C 163.02 149.77 156.99 150.90 158.49 147.37 C 161.01 143.34 156.26 138.48 160.16 135.01 Z" />
</g>
<g id="#0101011c">
<path fill="#010101" opacity="0.11" d=" M 221.08 139.11 C 222.15 136.91 223.99 136.39 226.59 137.55 C 234.60 139.95 242.73 142.01 251.06 143.00 L 250.79 143.69 C 245.27 147.70 240.55 152.68 236.03 157.75 C 239.75 159.57 244.93 159.43 245.38 164.70 C 244.15 172.99 252.13 181.24 247.96 188.78 C 252.86 186.71 254.76 192.78 258.89 194.12 C 261.98 195.20 265.02 197.38 265.29 200.93 C 258.98 195.90 252.07 189.79 243.30 191.25 C 239.46 191.11 235.64 191.00 231.80 191.19 C 229.68 186.55 231.90 179.95 230.34 174.71 C 228.60 168.03 225.41 161.66 220.24 156.95 C 219.05 154.42 217.56 151.99 216.91 149.24 C 219.47 146.45 221.56 143.07 221.08 139.11 Z" />
</g>
<g id="#00000071">
<path fill="#000000" opacity="0.44" d=" M 78.26 146.17 C 98.20 141.63 118.57 137.68 139.10 138.08 C 139.08 138.58 139.02 139.59 139.00 140.09 C 127.79 140.99 117.06 144.21 106.34 147.38 C 103.91 147.81 102.81 150.40 103.06 152.66 C 111.91 154.91 120.79 157.15 129.87 158.22 C 132.13 158.61 135.19 159.17 135.09 162.13 C 111.60 154.43 86.37 163.02 63.08 154.63 C 63.20 147.32 73.34 147.93 78.26 146.17 Z" />
</g>
<g id="#4d505ffb">
<path fill="#4d505f" opacity="1.00" d=" M 205.13 144.86 C 201.08 140.87 206.21 135.03 207.74 141.28 C 211.80 143.32 212.56 153.15 216.91 149.24 C 217.56 151.99 219.05 154.42 220.24 156.95 C 214.11 154.26 209.08 150.20 205.13 144.86 Z" />
</g>
<g id="#27272ff7">
<path fill="#27272f" opacity="0.97" d=" M 255.44 144.43 C 257.97 150.95 260.16 138.09 264.80 138.79 C 263.09 143.51 265.97 148.67 269.28 151.70 C 272.91 150.58 275.48 152.65 278.07 154.90 C 281.57 154.18 286.41 156.13 287.89 151.70 C 291.08 153.40 291.34 159.43 296.58 156.45 C 298.26 155.84 298.57 157.86 299.30 158.87 C 296.12 158.93 293.00 159.07 289.84 159.11 C 288.01 158.53 286.16 158.00 284.25 157.78 C 280.78 157.16 277.30 156.99 273.80 157.10 C 264.38 155.95 257.34 149.92 250.79 143.69 L 251.06 143.00 C 252.57 143.26 254.08 143.68 255.44 144.43 Z" />
</g>
<g id="#01010183">
<path fill="#010101" opacity="0.51" d=" M 106.34 147.38 C 117.06 144.21 127.79 140.99 139.00 140.09 C 142.05 148.82 138.09 155.42 135.29 163.04 L 135.09 162.13 C 135.19 159.17 132.13 158.61 129.87 158.22 C 120.79 157.15 111.91 154.91 103.06 152.66 C 102.81 150.40 103.91 147.81 106.34 147.38 Z" />
</g>
<g id="#979c9fff">
<path fill="#979c9f" opacity="1.00" d=" M 270.99 140.03 C 274.91 138.37 276.54 142.42 273.79 144.91 C 270.85 145.67 270.72 142.01 270.99 140.03 Z" />
</g>
<g id="#0e0f1188">
<path fill="#0e0f11" opacity="0.53" d=" M 289.78 140.76 C 293.28 139.68 296.71 139.75 300.09 140.96 C 296.66 140.85 293.20 140.79 289.78 140.76 Z" />
</g>
<g id="#0c0c0e80">
<path fill="#0c0c0e" opacity="0.50" d=" M 302.05 142.07 C 303.82 142.09 307.36 142.12 309.13 142.13 C 307.88 144.91 303.91 143.44 302.05 142.07 Z" />
</g>
<g id="#bcc2beff">
<path fill="#bcc2be" opacity="1.00" d=" M 161.95 143.95 C 164.80 143.17 166.31 145.54 166.31 148.11 C 165.89 148.48 165.07 149.21 164.65 149.58 C 162.85 148.27 162.38 145.99 161.95 143.95 Z" />
</g>
<g id="#8f92a1ff">
<path fill="#8f92a1" opacity="1.00" d=" M 184.18 155.24 C 189.29 152.51 182.02 146.07 187.87 144.05 C 188.70 148.36 190.56 152.75 190.05 157.35 C 188.29 155.88 183.98 158.23 184.18 155.24 Z" />
</g>
<g id="#2d2e36ef">
<path fill="#2d2e36" opacity="0.94" d=" M 288.05 150.89 C 286.32 147.47 277.30 149.42 281.47 144.96 C 286.54 149.79 294.77 146.48 300.14 150.81 C 296.11 150.54 292.05 150.30 288.05 150.89 Z" />
</g>
<g id="#9ca1a2ff">
<path fill="#9ca1a2" opacity="1.00" d=" M 207.19 150.32 C 208.38 149.60 210.20 155.48 208.03 155.01 C 205.02 156.24 205.36 151.23 207.19 150.32 Z" />
</g>
<g id="#53555cfa">
<path fill="#53555c" opacity="0.98" d=" M 288.05 150.89 C 292.05 150.30 296.11 150.54 300.14 150.81 C 303.16 152.52 305.03 155.73 303.02 159.01 C 301.77 158.97 300.54 158.92 299.30 158.87 C 298.57 157.86 298.26 155.84 296.58 156.45 C 291.34 159.43 291.08 153.40 287.89 151.70 L 288.05 150.89 Z" />
</g>
<g id="#51595eff">
<path fill="#51595e" opacity="1.00" d=" M 178.07 157.92 C 179.38 156.10 183.91 150.48 184.18 155.24 C 183.98 158.23 188.29 155.88 190.05 157.35 C 192.21 158.15 196.75 160.83 197.16 157.00 C 197.60 154.87 200.38 156.61 201.20 157.69 C 199.77 162.08 202.92 165.47 207.05 166.34 C 207.49 167.53 207.86 168.74 208.19 169.97 C 203.13 163.58 196.20 167.01 192.52 173.18 C 188.38 171.94 189.54 174.22 191.11 176.82 C 187.96 175.77 184.85 176.24 182.27 178.36 C 183.02 180.51 186.22 182.96 182.90 184.46 C 182.34 181.01 179.15 175.51 175.70 179.86 C 175.68 176.62 178.42 174.60 180.25 172.28 C 183.13 175.75 186.35 174.84 187.58 170.56 C 191.18 163.69 183.04 167.11 180.71 163.56 C 177.00 166.47 175.30 163.07 175.95 159.31 C 176.48 158.96 177.54 158.27 178.07 157.92 Z" />
</g>
<g id="#8b8f9fff">
<path fill="#8b8f9f" opacity="1.00" d=" M 175.95 159.31 C 170.14 155.49 180.01 150.61 178.07 157.92 C 177.54 158.27 176.48 158.96 175.95 159.31 Z" />
</g>
<g id="#00000042">
<path fill="#000000" opacity="0.26" d=" M 0.00 157.11 C 33.75 152.79 66.31 168.57 99.99 164.10 C 107.21 165.05 123.24 160.52 125.27 170.51 C 126.92 170.54 130.07 169.04 128.95 171.98 C 126.93 177.18 123.01 182.07 125.58 188.11 L 125.64 188.92 C 125.44 190.42 125.04 193.41 124.83 194.91 C 82.88 196.16 41.77 185.60 0.00 184.20 L 0.00 177.85 C 26.82 182.16 54.14 183.16 80.87 187.67 C 87.42 184.83 98.47 189.60 100.88 180.87 C 103.10 175.45 97.96 169.38 91.86 170.05 C 61.32 166.71 30.90 158.38 0.00 163.14 L 0.00 157.11 Z" />
</g>
<g id="#8a907eff">
<path fill="#8a907e" opacity="1.00" d=" M 205.25 158.29 C 208.85 154.67 212.96 160.07 212.07 163.89 C 211.82 164.13 211.30 164.62 211.04 164.86 C 209.73 165.40 208.40 165.89 207.05 166.34 C 202.92 165.47 199.77 162.08 201.20 157.69 C 202.45 159.12 203.83 160.12 205.25 158.29 Z" />
</g>
<g id="#0e0e1082">
<path fill="#0e0e10" opacity="0.51" d=" M 273.80 157.10 C 277.30 156.99 280.78 157.16 284.25 157.78 C 280.76 158.05 277.21 157.99 273.80 157.10 Z" />
</g>
<g id="#0f101077">
<path fill="#0f1010" opacity="0.47" d=" M 289.84 159.11 C 293.00 159.07 296.12 158.93 299.30 158.87 C 300.54 158.92 301.77 158.97 303.02 159.01 C 301.02 162.07 294.48 158.81 291.37 160.25 C 290.99 159.97 290.22 159.40 289.84 159.11 Z" />
</g>
<g id="#7e828cff">
<path fill="#7e828c" opacity="1.00" d=" M 214.53 162.36 C 212.05 158.25 220.10 161.22 218.70 163.88 C 217.24 167.27 221.78 167.99 222.26 170.91 C 217.16 167.26 210.38 174.98 211.04 164.86 C 211.30 164.62 211.82 164.13 212.07 163.89 C 214.27 165.19 215.76 165.29 214.53 162.36 Z" />
</g>
<g id="#00000037">
<path fill="#000000" opacity="0.22" d=" M 0.00 163.14 C 30.90 158.38 61.32 166.71 91.86 170.05 C 97.96 169.38 103.10 175.45 100.88 180.87 C 98.47 189.60 87.42 184.83 80.87 187.67 C 54.14 183.16 26.82 182.16 0.00 177.85 L 0.00 163.14 Z" />
</g>
<g id="#616572ff">
<path fill="#616572" opacity="1.00" d=" M 160.19 163.30 C 167.43 164.81 161.68 174.40 156.67 173.34 C 152.67 170.32 156.76 164.76 160.19 163.30 Z" />
</g>
<g id="#7e8754ff">
<path fill="#7e8754" opacity="1.00" d=" M 192.52 173.18 C 196.20 167.01 203.13 163.58 208.19 169.97 C 208.97 172.48 208.92 175.11 209.18 177.73 C 207.71 180.60 205.79 184.57 201.90 183.88 C 200.09 182.40 197.38 181.02 198.49 178.27 C 201.70 179.56 205.56 175.56 201.19 174.73 C 198.28 174.22 195.36 173.96 192.52 173.18 Z" />
</g>
<g id="#8e909dff">
<path fill="#8e909d" opacity="1.00" d=" M 214.25 172.33 C 216.67 171.81 216.69 177.30 214.00 176.95 C 211.21 176.90 211.27 172.15 214.25 172.33 Z" />
</g>
<g id="#73787dff">
<path fill="#73787d" opacity="1.00" d=" M 191.11 176.82 C 189.54 174.22 188.38 171.94 192.52 173.18 C 195.36 173.96 198.28 174.22 201.19 174.73 C 198.31 174.32 197.52 175.75 198.49 178.27 C 197.38 181.02 200.09 182.40 201.90 183.88 C 203.16 188.33 197.43 184.48 199.04 188.99 C 202.46 189.17 205.48 187.39 208.79 187.03 C 210.81 189.46 209.87 193.51 208.10 195.92 C 205.69 197.15 207.31 198.26 207.97 199.94 C 203.06 204.44 201.79 213.87 208.15 217.82 C 211.12 221.44 216.70 219.61 220.08 222.45 C 217.64 222.75 216.12 224.61 215.88 227.00 C 221.21 228.46 221.48 219.85 227.23 221.35 C 225.62 225.56 222.12 229.06 223.03 234.07 C 223.54 237.77 219.70 234.90 218.00 234.24 C 217.01 238.24 214.33 241.64 211.05 244.02 C 205.96 245.37 208.09 251.95 206.91 255.76 C 201.64 251.48 194.33 257.35 195.29 263.43 C 193.19 269.15 197.35 270.07 199.01 266.02 C 200.63 268.88 203.74 267.69 206.36 267.25 C 206.13 269.51 204.70 271.39 202.60 272.24 C 203.11 267.54 196.52 269.19 195.14 272.17 C 193.43 275.49 186.34 274.23 187.69 279.16 C 188.90 282.25 185.33 280.94 185.21 278.83 C 184.94 274.43 176.72 280.32 178.49 276.52 C 182.60 274.90 183.23 270.42 184.87 266.85 C 183.97 274.22 193.72 265.08 184.87 266.85 C 187.64 262.15 181.55 269.20 181.12 264.89 C 177.66 260.13 187.73 266.95 187.38 262.25 C 185.95 259.11 191.17 259.86 190.49 257.30 C 189.66 252.59 194.77 255.76 192.38 259.23 C 197.74 257.90 197.31 247.91 203.34 247.65 C 207.38 249.15 205.33 244.89 205.49 242.53 C 208.17 240.75 210.70 238.73 212.91 236.39 C 208.73 236.24 211.37 230.96 209.27 228.67 C 205.98 225.21 200.13 234.93 205.67 235.04 C 205.98 233.15 206.23 230.71 207.81 233.34 C 209.25 237.49 203.78 241.46 200.40 238.41 C 198.37 244.54 189.46 240.03 185.58 243.50 C 184.83 246.03 179.89 248.71 178.98 245.09 C 181.47 242.11 183.16 237.95 187.51 237.44 C 189.69 235.55 185.36 237.11 184.29 236.77 C 182.60 235.15 181.17 233.21 180.74 230.87 C 187.65 232.24 182.52 225.33 183.56 221.59 C 187.66 218.38 185.23 207.29 179.99 213.12 C 183.06 209.83 182.25 205.42 182.28 201.30 C 185.45 197.50 186.06 192.22 186.20 187.46 C 183.51 188.38 182.49 187.17 182.90 184.46 C 186.22 182.96 183.02 180.51 182.27 178.36 C 184.85 176.24 187.96 175.77 191.11 176.82 M 200.22 192.14 C 198.65 193.86 195.60 196.78 198.11 198.95 C 201.78 198.79 205.73 192.11 200.22 192.14 Z" />
</g>
<g id="#acb5a0ff">
<path fill="#acb5a0" opacity="1.00" d=" M 198.49 178.27 C 197.52 175.75 198.31 174.32 201.19 174.73 C 205.56 175.56 201.70 179.56 198.49 178.27 Z" />
</g>
<g id="#3a3c47fc">
<path fill="#3a3c47" opacity="1.00" d=" M 230.34 174.71 C 231.90 179.95 229.68 186.55 231.80 191.19 C 235.36 192.99 239.55 191.61 243.30 191.25 C 252.07 189.79 258.98 195.90 265.29 200.93 C 266.61 204.77 266.22 209.21 263.02 211.95 C 253.63 217.71 242.79 219.09 232.06 220.16 C 230.44 220.52 228.87 221.09 227.23 221.35 C 221.48 219.85 221.21 228.46 215.88 227.00 C 216.12 224.61 217.64 222.75 220.08 222.45 C 216.70 219.61 211.12 221.44 208.15 217.82 C 201.79 213.87 203.06 204.44 207.97 199.94 C 207.31 198.26 205.69 197.15 208.10 195.92 C 214.30 194.05 205.06 205.21 214.99 200.00 C 217.08 199.88 216.44 194.92 213.76 195.20 C 210.17 194.64 214.69 193.31 215.84 192.37 L 216.70 192.01 C 220.42 193.33 223.14 191.48 225.96 189.38 C 233.98 192.24 228.29 178.68 230.34 174.71 M 238.36 200.33 C 237.73 203.54 232.40 207.73 234.88 199.01 C 232.67 198.30 233.06 200.57 232.76 201.99 C 229.25 202.62 230.36 195.33 225.17 199.05 C 223.63 201.02 223.49 203.63 222.74 205.94 C 220.42 206.77 220.65 201.53 218.72 203.73 C 216.79 206.00 214.51 208.54 214.88 211.76 C 218.33 210.88 221.48 212.75 218.93 208.02 C 221.65 210.72 225.62 208.55 227.69 212.33 C 230.14 215.85 233.73 212.66 236.72 212.12 C 237.60 214.00 238.36 215.95 239.26 217.83 C 241.09 217.54 240.95 214.36 242.16 213.00 C 244.17 212.75 247.43 215.33 248.31 212.48 C 250.13 212.16 256.77 215.17 254.79 212.29 C 257.20 210.92 259.05 208.59 260.01 206.00 C 258.83 202.45 254.87 197.64 251.19 201.50 C 249.05 200.84 247.66 199.33 247.71 197.04 C 244.52 197.54 240.80 198.17 238.36 200.33 Z" />
</g>
<g id="#555963ff">
<path fill="#555963" opacity="1.00" d=" M 209.18 177.73 C 213.19 178.98 219.14 176.48 221.34 180.99 C 221.91 182.08 222.51 183.15 223.10 184.24 C 221.87 187.36 221.81 189.92 225.96 189.38 C 223.14 191.48 220.42 193.33 216.70 192.01 C 219.38 191.48 220.54 189.58 220.05 186.90 C 217.84 188.04 213.52 189.14 215.84 192.37 C 214.69 193.31 210.17 194.64 213.76 195.20 C 216.44 194.92 217.08 199.88 214.99 200.00 C 205.06 205.21 214.30 194.05 208.10 195.92 C 209.87 193.51 210.81 189.46 208.79 187.03 C 205.48 187.39 202.46 189.17 199.04 188.99 C 197.43 184.48 203.16 188.33 201.90 183.88 C 205.79 184.57 207.71 180.60 209.18 177.73 Z" />
</g>
<g id="#9496a6ff">
<path fill="#9496a6" opacity="1.00" d=" M 221.34 180.99 C 222.54 172.71 230.84 184.45 223.10 184.24 C 222.51 183.15 221.91 182.08 221.34 180.99 Z" />
</g>
<g id="#36383efd">
<path fill="#36383e" opacity="1.00" d=" M 143.97 189.06 C 142.67 185.68 141.15 177.01 146.88 181.90 C 147.33 187.82 152.35 192.71 155.00 198.17 C 156.45 200.68 158.22 203.13 160.89 204.46 C 160.77 206.28 161.58 208.62 159.83 209.88 C 156.43 210.15 158.13 202.96 153.95 203.99 C 148.80 203.62 156.53 207.25 155.00 209.89 C 154.15 213.87 149.76 212.87 146.83 212.18 C 146.85 215.31 153.14 220.34 146.82 218.25 C 140.62 216.70 143.00 224.89 140.41 227.45 C 135.49 232.66 137.98 217.48 133.17 222.11 C 134.23 226.42 134.79 231.77 139.13 233.99 C 142.73 234.92 143.19 229.96 146.28 229.28 C 152.52 227.70 146.52 238.08 142.67 237.36 C 137.44 235.80 140.33 244.07 144.60 241.48 C 146.17 246.18 153.72 240.29 151.31 246.15 C 150.34 252.61 162.57 252.11 158.18 245.21 C 162.65 246.68 166.44 242.64 171.06 244.80 C 173.36 246.07 180.57 248.28 170.02 246.96 C 163.60 246.61 162.96 254.70 166.29 258.68 C 165.80 261.66 173.79 264.05 169.26 265.02 C 168.91 264.76 168.21 264.24 167.85 263.98 C 161.96 260.50 153.58 253.50 147.85 260.86 C 141.57 269.01 147.44 280.66 156.68 283.40 C 164.60 283.77 172.19 285.06 179.99 286.06 C 179.25 287.14 178.43 288.16 177.63 289.19 C 172.80 289.27 168.02 288.57 163.22 288.29 C 159.62 290.94 164.41 294.21 167.19 294.81 C 163.82 294.64 160.52 294.97 157.41 296.26 C 151.79 299.62 150.63 292.15 146.16 291.58 C 144.57 291.55 141.38 291.50 139.79 291.47 C 138.12 290.43 136.28 289.31 135.66 287.31 C 135.21 283.96 137.21 279.88 135.11 276.89 C 130.73 273.42 131.61 267.50 128.88 263.08 C 126.91 256.64 134.74 251.99 130.06 246.04 C 128.94 238.57 130.16 230.50 126.22 223.73 C 126.18 223.05 126.10 221.70 126.06 221.02 C 126.16 220.56 126.36 219.63 126.45 219.17 C 126.58 218.57 126.84 217.39 126.96 216.80 C 128.00 218.82 128.96 221.03 130.97 222.27 C 132.80 219.56 135.49 216.74 134.95 213.21 C 132.59 212.68 130.17 212.21 127.75 212.57 C 129.28 209.21 133.95 206.05 132.12 202.19 C 141.22 202.70 132.99 193.23 134.05 188.09 C 135.46 186.66 136.88 182.79 139.33 184.56 C 141.93 185.48 140.09 190.25 143.97 189.06 Z" />
</g>
<g id="#2f2e2eb3">
<path fill="#2f2e2e" opacity="0.70" d=" M 125.58 188.11 C 125.84 186.29 126.06 184.45 126.74 182.74 C 126.80 183.58 126.92 185.27 126.99 186.11 C 126.96 189.47 126.91 192.86 126.86 196.23 C 126.42 193.80 126.02 191.36 125.64 188.92 L 125.58 188.11 Z" />
</g>
<g id="#595d73fe">
<path fill="#595d73" opacity="1.00" d=" M 126.99 186.11 C 129.85 182.00 133.82 182.93 134.05 188.09 C 132.99 193.23 141.22 202.70 132.12 202.19 C 131.20 201.45 130.29 200.71 129.39 199.96 C 128.65 199.30 127.89 198.66 127.14 198.02 C 127.07 197.58 126.93 196.68 126.86 196.23 C 126.91 192.86 126.96 189.47 126.99 186.11 Z" />
</g>
<g id="#0000004f">
<path fill="#000000" opacity="0.31" d=" M 0.00 184.20 C 41.77 185.60 82.88 196.16 124.83 194.91 C 125.04 193.41 125.44 190.42 125.64 188.92 C 126.02 191.36 126.42 193.80 126.86 196.23 C 126.93 196.68 127.07 197.58 127.14 198.02 C 89.61 201.41 52.35 190.04 14.84 193.16 C 15.76 196.23 18.14 198.66 21.09 199.86 C 34.59 207.53 50.48 208.36 65.36 211.63 C 85.39 215.80 106.59 214.94 126.06 221.02 C 126.10 221.70 126.18 223.05 126.22 223.73 C 84.34 216.72 40.85 215.90 0.00 202.68 L 0.00 184.20 Z" />
</g>
<g id="#545967ff">
<path fill="#545967" opacity="1.00" d=" M 154.23 186.07 C 158.04 186.47 163.07 187.64 164.75 191.48 C 162.11 192.80 160.35 195.23 158.38 197.34 C 158.13 200.89 162.74 200.72 162.42 197.15 C 165.65 197.10 166.10 207.35 160.89 204.46 C 158.22 203.13 156.45 200.68 155.00 198.17 C 156.28 196.72 157.36 195.09 157.87 193.21 C 154.99 192.40 150.84 188.82 154.23 186.07 Z" />
</g>
<g id="#7b818eff">
<path fill="#7b818e" opacity="1.00" d=" M 215.84 192.37 C 213.52 189.14 217.84 188.04 220.05 186.90 C 220.54 189.58 219.38 191.48 216.70 192.01 L 215.84 192.37 Z" />
</g>
<g id="#202226bd">
<path fill="#202226" opacity="0.74" d=" M 231.80 191.19 C 235.64 191.00 239.46 191.11 243.30 191.25 C 239.55 191.61 235.36 192.99 231.80 191.19 Z" />
</g>
<g id="#0000005f">
<path fill="#000000" opacity="0.37" d=" M 14.84 193.16 C 52.35 190.04 89.61 201.41 127.14 198.02 C 127.89 198.66 128.65 199.30 129.39 199.96 C 128.12 202.23 127.27 205.86 122.99 202.91 C 105.26 200.25 87.47 203.56 69.94 203.20 C 82.78 209.57 101.08 213.03 116.69 215.29 C 119.67 216.12 125.38 215.03 126.45 219.17 C 126.36 219.63 126.16 220.56 126.06 221.02 C 106.59 214.94 85.39 215.80 65.36 211.63 C 50.48 208.36 34.59 207.53 21.09 199.86 C 18.14 198.66 15.76 196.23 14.84 193.16 Z" />
</g>
<g id="#9699a7ff">
<path fill="#9699a7" opacity="1.00" d=" M 200.22 192.14 C 205.73 192.11 201.78 198.79 198.11 198.95 C 195.60 196.78 198.65 193.86 200.22 192.14 Z" />
</g>
<g id="#535666ff">
<path fill="#535666" opacity="1.00" d=" M 238.36 200.33 C 240.80 198.17 244.52 197.54 247.71 197.04 C 247.66 199.33 249.05 200.84 251.19 201.50 C 249.06 205.50 245.54 203.09 242.37 204.10 C 237.76 198.46 236.76 210.80 240.13 211.82 C 242.34 211.53 244.55 211.47 246.64 212.35 C 248.22 208.42 252.01 211.71 254.79 212.29 C 256.77 215.17 250.13 212.16 248.31 212.48 C 247.43 215.33 244.17 212.75 242.16 213.00 C 240.95 214.36 241.09 217.54 239.26 217.83 C 238.36 215.95 237.60 214.00 236.72 212.12 C 233.73 212.66 230.14 215.85 227.69 212.33 C 225.62 208.55 221.65 210.72 218.93 208.02 C 221.48 212.75 218.33 210.88 214.88 211.76 C 214.51 208.54 216.79 206.00 218.72 203.73 C 220.65 201.53 220.42 206.77 222.74 205.94 C 223.49 203.63 223.63 201.02 225.17 199.05 C 230.36 195.33 229.25 202.62 232.76 201.99 C 233.06 200.57 232.67 198.30 234.88 199.01 C 232.40 207.73 237.73 203.54 238.36 200.33 Z" />
</g>
<g id="#01010172">
<path fill="#010101" opacity="0.45" d=" M 129.39 199.96 C 130.29 200.71 131.20 201.45 132.12 202.19 C 133.95 206.05 129.28 209.21 127.75 212.57 C 126.93 213.80 127.19 215.39 126.96 216.80 C 126.84 217.39 126.58 218.57 126.45 219.17 C 125.38 215.03 119.67 216.12 116.69 215.29 C 101.08 213.03 82.78 209.57 69.94 203.20 C 87.47 203.56 105.26 200.25 122.99 202.91 C 127.27 205.86 128.12 202.23 129.39 199.96 Z" />
</g>
<g id="#767782ff">
<path fill="#767782" opacity="1.00" d=" M 251.19 201.50 C 254.87 197.64 258.83 202.45 260.01 206.00 C 259.05 208.59 257.20 210.92 254.79 212.29 C 252.01 211.71 248.22 208.42 246.64 212.35 C 244.55 211.47 242.34 211.53 240.13 211.82 C 236.76 210.80 237.76 198.46 242.37 204.10 C 245.54 203.09 249.06 205.50 251.19 201.50 Z" />
</g>
<g id="#0000003f">
<path fill="#000000" opacity="0.25" d=" M 0.00 202.68 C 40.85 215.90 84.34 216.72 126.22 223.73 C 130.16 230.50 128.94 238.57 130.06 246.04 C 128.28 239.92 125.19 233.77 119.34 230.71 C 110.11 229.84 100.78 226.71 91.35 225.61 C 61.13 219.43 29.75 218.49 0.00 209.69 L 0.00 202.68 Z" />
</g>
<g id="#0000002f">
<path fill="#000000" opacity="0.18" d=" M 0.00 209.69 C 29.75 218.49 61.13 219.43 91.35 225.61 C 100.78 226.71 110.11 229.84 119.34 230.71 C 125.19 233.77 128.28 239.92 130.06 246.04 C 134.74 251.99 126.91 256.64 128.88 263.08 C 126.35 259.74 129.45 252.28 123.81 252.52 C 115.00 254.71 105.83 252.46 97.94 249.10 C 96.20 244.50 90.30 246.40 86.71 244.25 C 68.21 233.05 46.99 227.69 25.33 227.18 C 23.85 230.87 21.38 231.23 18.26 229.04 C 19.42 235.07 12.13 230.45 10.52 235.55 C 6.58 236.62 4.70 240.59 0.00 241.05 L 0.00 209.69 Z" />
</g>
<g id="#56575efd">
<path fill="#56575e" opacity="1.00" d=" M 127.75 212.57 C 130.17 212.21 132.59 212.68 134.95 213.21 C 135.49 216.74 132.80 219.56 130.97 222.27 C 128.96 221.03 128.00 218.82 126.96 216.80 C 127.19 215.39 126.93 213.80 127.75 212.57 Z" />
</g>
<g id="#0000001b">
<path fill="#000000" opacity="0.11" d=" M 232.06 220.16 C 242.79 219.09 253.63 217.71 263.02 211.95 C 260.01 216.94 253.59 218.04 250.13 222.52 C 256.39 224.28 247.91 227.82 250.11 231.55 C 247.59 237.34 253.97 243.70 247.77 247.78 C 243.90 249.74 249.06 254.77 245.77 256.62 C 240.55 255.20 238.19 261.22 235.55 264.58 C 232.56 267.06 229.04 269.73 224.94 269.39 C 225.51 270.23 226.15 271.03 226.75 271.86 C 221.14 272.29 216.30 275.62 210.61 275.72 C 203.62 279.21 197.60 284.38 190.39 287.43 C 185.06 289.87 182.93 296.62 177.03 298.08 C 170.13 299.78 162.86 298.91 155.99 300.87 C 149.45 298.54 142.53 297.61 135.70 296.28 C 132.94 295.71 131.98 300.70 129.13 299.00 C 124.89 296.97 120.81 299.06 118.61 302.61 C 109.01 302.27 96.26 310.85 88.02 304.18 C 81.14 306.62 76.16 301.80 70.99 298.06 C 69.92 300.13 71.27 302.07 72.10 303.93 C 65.27 298.02 54.91 296.28 47.93 303.05 C 46.19 296.61 41.66 302.04 37.34 299.58 C 34.32 298.23 31.71 304.63 29.10 300.76 C 27.33 295.44 34.11 299.57 35.06 296.12 C 32.07 293.17 28.61 296.00 26.29 298.09 C 24.53 294.89 23.12 290.68 18.84 292.65 C 12.38 293.31 5.31 288.12 0.00 292.11 L 0.00 253.84 C 5.88 253.47 12.45 257.63 17.66 253.61 C 20.60 251.09 22.51 257.11 25.19 255.17 C 27.17 253.61 29.13 256.42 31.02 256.83 C 34.55 260.15 34.33 252.62 37.77 254.11 C 40.41 255.62 37.73 258.22 36.92 260.01 C 42.68 259.70 48.68 257.70 54.08 260.80 C 60.39 260.08 56.88 265.17 57.04 268.09 C 59.87 267.78 61.93 265.89 63.96 264.11 C 68.08 268.58 73.65 264.99 78.48 267.34 C 83.66 268.36 88.46 273.82 94.04 271.07 C 105.17 269.17 116.44 271.86 127.62 271.46 C 131.28 275.30 134.34 279.74 134.82 285.19 C 135.03 285.72 135.45 286.78 135.66 287.31 C 136.28 289.31 138.12 290.43 139.79 291.47 C 141.38 291.50 144.57 291.55 146.16 291.58 C 150.63 292.15 151.79 299.62 157.41 296.26 C 160.52 294.97 163.82 294.64 167.19 294.81 C 172.27 295.73 179.41 297.98 181.06 291.23 C 188.25 279.06 208.15 279.40 209.85 262.91 C 214.37 260.92 222.01 254.86 216.77 249.52 C 217.96 248.42 219.14 247.32 220.28 246.18 C 228.84 240.21 229.85 229.50 232.06 220.16 Z" />
</g>
<g id="#6e7775ff">
<path fill="#6e7775" opacity="1.00" d=" M 174.20 217.44 C 178.24 216.10 182.72 222.40 177.94 224.00 C 174.65 224.67 169.26 218.19 174.20 217.44 Z" />
</g>
<g id="#5c6163fd">
<path fill="#5c6163" opacity="1.00" d=" M 227.23 221.35 C 228.87 221.09 230.44 220.52 232.06 220.16 C 229.85 229.50 228.84 240.21 220.28 246.18 C 220.16 244.40 220.05 242.63 219.83 240.87 C 215.78 240.83 214.58 247.44 216.77 249.52 C 222.01 254.86 214.37 260.92 209.85 262.91 C 208.15 279.40 188.25 279.06 181.06 291.23 C 179.67 290.93 178.06 290.82 177.63 289.19 C 178.43 288.16 179.25 287.14 179.99 286.06 C 172.19 285.06 164.60 283.77 156.68 283.40 C 162.24 281.18 167.26 277.83 172.95 275.92 C 171.99 274.66 170.92 273.50 169.98 272.24 C 170.87 269.83 169.84 267.37 169.26 265.02 C 173.79 264.05 165.80 261.66 166.29 258.68 C 162.96 254.70 163.60 246.61 170.02 246.96 C 180.57 248.28 173.36 246.07 171.06 244.80 C 173.46 241.27 169.84 239.63 168.28 237.22 C 172.31 235.34 171.85 231.63 170.98 227.93 C 174.45 227.98 177.57 229.66 180.74 230.87 C 181.17 233.21 182.60 235.15 184.29 236.77 C 185.36 237.11 189.69 235.55 187.51 237.44 C 183.16 237.95 181.47 242.11 178.98 245.09 C 179.89 248.71 184.83 246.03 185.58 243.50 C 189.46 240.03 198.37 244.54 200.40 238.41 C 203.78 241.46 209.25 237.49 207.81 233.34 C 206.23 230.71 205.98 233.15 205.67 235.04 C 200.13 234.93 205.98 225.21 209.27 228.67 C 211.37 230.96 208.73 236.24 212.91 236.39 C 210.70 238.73 208.17 240.75 205.49 242.53 C 205.33 244.89 207.38 249.15 203.34 247.65 C 197.31 247.91 197.74 257.90 192.38 259.23 C 194.77 255.76 189.66 252.59 190.49 257.30 C 191.17 259.86 185.95 259.11 187.38 262.25 C 187.73 266.95 177.66 260.13 181.12 264.89 C 181.55 269.20 187.64 262.15 184.87 266.85 C 183.23 270.42 182.60 274.90 178.49 276.52 C 176.72 280.32 184.94 274.43 185.21 278.83 C 185.33 280.94 188.90 282.25 187.69 279.16 C 186.34 274.23 193.43 275.49 195.14 272.17 C 196.52 269.19 203.11 267.54 202.60 272.24 C 204.70 271.39 206.13 269.51 206.36 267.25 C 212.20 257.60 196.66 257.55 199.01 266.02 C 197.35 270.07 193.19 269.15 195.29 263.43 C 194.33 257.35 201.64 251.48 206.91 255.76 C 208.09 251.95 205.96 245.37 211.05 244.02 C 214.33 241.64 217.01 238.24 218.00 234.24 C 219.70 234.90 223.54 237.77 223.03 234.07 C 222.12 229.06 225.62 225.56 227.23 221.35 M 198.35 243.46 C 196.05 244.93 193.55 244.67 191.05 243.95 C 191.61 245.99 192.07 248.11 191.25 250.17 C 194.67 250.14 196.22 246.13 199.92 246.77 C 199.85 245.30 200.90 241.66 198.35 243.46 M 174.91 247.97 C 176.76 252.36 176.32 258.10 181.81 259.77 C 188.06 254.78 181.59 246.57 174.91 247.97 Z" />
</g>
<g id="#62697bff">
<path fill="#62697b" opacity="1.00" d=" M 157.18 226.05 C 162.31 224.87 164.71 239.05 156.24 234.92 C 153.54 232.63 155.76 228.51 157.18 226.05 Z" />
</g>
<g id="#00000025">
<path fill="#000000" opacity="0.15" d=" M 25.33 227.18 C 46.99 227.69 68.21 233.05 86.71 244.25 C 90.30 246.40 96.20 244.50 97.94 249.10 C 105.83 252.46 115.00 254.71 123.81 252.52 C 129.45 252.28 126.35 259.74 128.88 263.08 C 131.61 267.50 130.73 273.42 135.11 276.89 C 135.00 279.65 134.90 282.41 134.82 285.19 C 134.34 279.74 131.28 275.30 127.62 271.46 C 116.44 271.86 105.17 269.17 94.04 271.07 C 88.46 273.82 83.66 268.36 78.48 267.34 C 73.65 264.99 68.08 268.58 63.96 264.11 C 61.93 265.89 59.87 267.78 57.04 268.09 C 56.88 265.17 60.39 260.08 54.08 260.80 C 48.68 257.70 42.68 259.70 36.92 260.01 C 37.73 258.22 40.41 255.62 37.77 254.11 C 34.33 252.62 34.55 260.15 31.02 256.83 C 29.13 256.42 27.17 253.61 25.19 255.17 C 22.51 257.11 20.60 251.09 17.66 253.61 C 12.45 257.63 5.88 253.47 0.00 253.84 L 0.00 241.05 C 4.70 240.59 6.58 236.62 10.52 235.55 C 12.13 230.45 19.42 235.07 18.26 229.04 C 21.38 231.23 23.85 230.87 25.33 227.18 Z" />
</g>
<g id="#898b95fb">
<path fill="#898b95" opacity="1.00" d=" M 216.77 249.52 C 214.58 247.44 215.78 240.83 219.83 240.87 C 220.05 242.63 220.16 244.40 220.28 246.18 C 219.14 247.32 217.96 248.42 216.77 249.52 Z" />
</g>
<g id="#848894ff">
<path fill="#848894" opacity="1.00" d=" M 198.35 243.46 C 200.90 241.66 199.85 245.30 199.92 246.77 C 196.22 246.13 194.67 250.14 191.25 250.17 C 192.07 248.11 191.61 245.99 191.05 243.95 C 193.55 244.67 196.05 244.93 198.35 243.46 Z" />
</g>
<g id="#878692ff">
<path fill="#878692" opacity="1.00" d=" M 174.91 247.97 C 181.59 246.57 188.06 254.78 181.81 259.77 C 176.32 258.10 176.76 252.36 174.91 247.97 Z" />
</g>
<g id="#5e6562ff">
<path fill="#5e6562" opacity="1.00" d=" M 147.85 260.86 C 153.58 253.50 161.96 260.50 167.85 263.98 C 164.04 264.50 160.68 267.08 159.66 270.88 C 158.37 275.14 155.09 278.58 156.68 283.40 C 147.44 280.66 141.57 269.01 147.85 260.86 Z" />
</g>
<g id="#94949eff">
<path fill="#94949e" opacity="1.00" d=" M 199.01 266.02 C 196.66 257.55 212.20 257.60 206.36 267.25 C 203.74 267.69 200.63 268.88 199.01 266.02 Z" />
</g>
<g id="#8f9780ff">
<path fill="#8f9780" opacity="1.00" d=" M 159.66 270.88 C 160.68 267.08 164.04 264.50 167.85 263.98 C 168.21 264.24 168.91 264.76 169.26 265.02 C 169.84 267.37 170.87 269.83 169.98 272.24 C 166.77 273.64 161.09 275.25 159.66 270.88 Z" />
</g>
<g id="#acaea9ff">
<path fill="#acaea9" opacity="1.00" d=" M 184.87 266.85 C 183.97 274.22 193.72 265.08 184.87 266.85 Z" />
</g>
<g id="#6d7643ff">
<path fill="#6d7643" opacity="1.00" d=" M 156.68 283.40 C 155.09 278.58 158.37 275.14 159.66 270.88 C 161.09 275.25 166.77 273.64 169.98 272.24 C 170.92 273.50 171.99 274.66 172.95 275.92 C 167.26 277.83 162.24 281.18 156.68 283.40 Z" />
</g>
<g id="#2124289e">
<path fill="#212428" opacity="0.62" d=" M 135.11 276.89 C 137.21 279.88 135.21 283.96 135.66 287.31 C 135.45 286.78 135.03 285.72 134.82 285.19 C 134.90 282.41 135.00 279.65 135.11 276.89 Z" />
</g>
<g id="#616848fb">
<path fill="#616848" opacity="1.00" d=" M 163.22 288.29 C 168.02 288.57 172.80 289.27 177.63 289.19 C 178.06 290.82 179.67 290.93 181.06 291.23 C 179.41 297.98 172.27 295.73 167.19 294.81 C 164.41 294.21 159.62 290.94 163.22 288.29 Z" />
</g>
<g id="#1d21279c">
<path fill="#1d2127" opacity="0.61" d=" M 139.79 291.47 C 141.38 291.50 144.57 291.55 146.16 291.58 C 144.57 291.55 141.38 291.50 139.79 291.47 Z" />
</g>
</svg>
