<?xml version="1.0" encoding="UTF-8" ?>
<!DOCTYPE svg PUBLIC "-//W3C//DTD SVG 1.1//EN" "http://www.w3.org/Graphics/SVG/1.1/DTD/svg11.dtd">
<svg width="384pt" height="384pt" viewBox="0 0 384 384" version="1.1" xmlns="http://www.w3.org/2000/svg">
<g id="#0000000c">
<path fill="#000000" opacity="0.05" d=" M 0.00 8.96 C 4.93 6.95 12.53 3.08 16.13 8.98 C 14.51 12.08 10.09 11.97 8.74 14.98 C 14.34 17.15 16.39 8.18 21.56 10.34 C 23.37 13.90 25.57 12.23 27.88 10.14 C 30.73 13.88 36.30 18.53 39.32 12.30 C 41.62 14.71 45.57 17.68 48.21 14.00 C 49.54 17.35 51.91 23.45 56.00 19.15 C 58.09 23.57 61.60 20.54 64.64 19.05 C 65.95 21.92 66.63 25.07 68.18 27.83 C 71.72 28.62 69.70 17.31 74.16 20.73 C 73.25 32.53 82.39 21.60 87.25 26.71 C 90.89 30.35 94.70 24.64 98.69 25.06 C 99.83 27.37 101.54 31.22 104.37 28.34 C 114.42 23.47 102.53 33.89 109.96 33.06 C 113.40 29.57 118.53 29.80 122.62 32.77 C 124.23 29.45 128.49 29.75 130.91 32.05 C 136.83 37.19 144.88 35.52 150.35 41.48 C 157.74 38.44 158.79 47.83 164.95 49.10 C 168.46 52.23 172.53 47.35 174.92 52.12 C 181.54 58.94 192.29 52.28 198.85 58.75 C 201.45 55.90 203.51 57.84 204.23 60.96 C 215.35 57.66 224.56 66.78 231.35 74.15 C 235.39 73.93 234.84 76.82 234.03 79.82 C 239.05 83.52 242.20 89.10 244.18 94.90 C 249.40 92.97 247.68 96.59 246.28 99.94 C 249.21 102.63 254.67 102.45 255.55 107.26 C 256.00 111.12 260.36 110.43 263.19 110.83 C 266.22 117.13 272.54 122.89 270.30 130.48 C 277.00 132.19 276.30 140.98 281.58 144.43 C 286.12 147.63 285.52 153.87 284.27 158.49 C 287.35 158.83 291.63 163.93 286.01 162.58 C 283.89 165.58 291.42 174.18 294.78 168.83 C 294.95 166.66 297.85 166.45 298.85 168.14 C 300.08 170.97 293.91 169.33 296.92 172.13 C 301.04 175.16 297.81 180.40 301.33 183.59 C 303.64 184.17 308.00 181.76 308.46 184.73 C 308.83 188.65 316.55 186.24 315.98 190.82 C 314.74 192.18 311.48 194.16 314.14 195.88 C 317.68 193.44 321.56 196.18 324.33 198.51 C 320.75 200.49 315.33 194.39 314.86 200.00 C 314.05 203.56 317.36 206.60 316.61 210.29 C 319.65 211.65 321.70 213.52 319.44 216.69 C 325.34 218.05 321.73 224.10 318.93 227.02 C 322.06 228.41 328.64 227.29 327.50 232.35 C 326.98 237.42 331.07 232.37 332.81 230.95 C 332.88 236.26 331.01 242.98 332.01 246.89 C 340.98 244.00 336.55 250.17 333.27 250.50 C 331.40 253.33 339.37 252.33 335.40 254.42 C 330.18 259.28 341.70 260.87 339.69 266.60 C 335.43 269.74 337.90 277.21 341.96 279.77 C 339.39 281.34 336.58 282.29 334.12 280.05 C 331.45 282.23 335.21 282.62 336.88 283.47 C 336.53 285.89 334.96 287.87 333.94 290.03 C 337.58 290.66 340.54 289.21 343.17 287.01 C 344.39 292.79 331.35 291.88 336.21 297.78 C 340.92 300.80 338.84 308.38 332.96 305.19 C 335.60 310.28 334.82 315.96 331.06 320.16 C 329.80 323.89 333.69 324.14 336.21 323.23 C 335.50 325.03 334.26 326.54 333.24 328.16 C 333.33 329.87 335.83 331.19 333.71 332.71 C 330.16 335.08 336.58 341.71 330.98 342.05 C 327.19 342.61 328.64 338.38 328.84 336.21 C 326.87 335.18 321.69 333.42 323.55 337.37 C 325.18 341.33 321.76 339.79 320.56 337.45 C 316.44 341.25 310.65 341.23 305.39 340.67 C 303.75 338.15 301.46 336.21 298.27 336.45 C 296.23 337.96 294.20 341.39 291.55 338.90 C 292.15 336.50 291.78 333.01 288.42 334.12 C 288.25 337.15 286.08 339.74 283.00 340.09 C 279.93 340.28 279.32 331.87 276.07 335.20 C 275.34 339.59 281.44 340.94 282.16 344.92 C 279.89 344.90 277.62 344.73 275.38 344.39 C 276.02 341.70 270.68 337.72 271.00 342.00 C 270.75 346.87 266.89 340.88 265.68 339.25 C 261.93 339.89 258.13 341.44 254.41 339.72 C 255.47 332.75 241.75 337.26 245.71 343.18 C 241.59 339.07 237.35 342.69 233.03 339.96 C 232.99 343.41 235.41 348.57 231.01 350.04 C 227.53 349.01 228.90 344.48 228.90 341.81 C 225.54 343.93 222.09 345.92 218.06 346.38 C 218.03 349.36 221.87 350.65 222.18 353.73 C 216.83 352.45 208.50 358.24 209.65 348.14 C 204.88 346.50 206.01 350.33 207.80 353.12 C 203.51 355.04 196.36 352.04 194.44 357.50 C 190.21 356.89 183.26 361.52 184.22 354.55 C 179.32 352.14 181.41 362.93 176.90 361.29 C 174.65 356.14 172.40 362.77 168.95 361.49 C 164.97 361.51 170.04 365.04 170.19 367.04 C 167.44 366.30 164.88 365.01 162.15 364.21 C 160.90 366.31 160.30 368.98 158.02 370.26 C 156.32 368.91 155.20 366.88 153.23 365.90 C 152.66 368.41 150.51 372.61 154.84 372.31 C 160.33 372.27 151.86 380.50 151.61 375.27 C 152.83 369.61 146.45 377.42 145.01 373.48 C 147.65 372.89 150.27 371.55 148.55 368.52 C 145.08 368.60 141.68 369.57 138.22 369.80 C 137.58 368.18 137.80 366.08 136.30 364.93 C 132.03 372.66 122.81 376.49 117.69 384.00 L 0.00 384.00 L 0.00 310.55 C 1.36 313.06 2.84 314.73 4.46 311.46 C 8.68 312.03 10.92 316.27 14.46 317.81 C 15.88 314.62 21.46 306.25 23.86 312.48 C 27.57 312.69 28.36 317.78 32.06 317.48 C 34.37 317.00 33.03 319.75 33.25 321.04 C 36.57 318.42 39.51 315.30 43.19 313.16 C 47.47 313.04 49.87 321.43 54.47 318.59 C 60.35 315.73 60.18 327.10 66.57 322.70 C 69.70 316.46 74.87 325.88 79.47 323.59 C 82.27 316.16 89.96 323.59 94.79 325.08 C 94.80 323.40 93.54 321.34 95.14 320.05 C 99.22 322.97 107.29 324.70 109.27 318.58 C 112.66 319.57 116.35 320.86 119.48 318.57 C 122.94 316.43 120.11 323.08 123.03 322.95 C 127.24 322.13 130.88 318.58 135.37 319.50 C 139.54 320.05 143.98 319.02 147.24 316.31 C 155.10 316.69 162.94 314.82 170.02 311.41 C 179.01 315.02 187.75 307.76 196.69 310.29 C 200.71 312.73 201.57 306.34 205.02 305.91 C 221.17 307.89 235.66 295.75 248.49 287.65 C 253.70 286.40 253.26 278.72 258.52 277.45 C 262.18 275.86 269.34 276.04 267.47 270.33 C 270.57 267.41 277.09 265.27 275.36 259.85 C 276.05 254.17 277.82 248.38 275.41 242.69 C 273.92 239.54 280.43 242.46 278.94 239.05 C 278.66 235.80 274.89 237.53 272.82 237.60 C 272.13 233.66 277.34 233.51 278.13 230.06 C 280.58 227.43 276.22 227.37 274.53 226.42 C 272.99 224.01 272.28 221.29 272.66 218.46 C 268.12 217.59 272.29 211.42 268.42 208.69 C 269.85 204.17 278.53 203.47 280.24 198.07 C 285.55 191.03 279.41 183.54 272.51 181.36 C 263.50 174.83 250.98 181.42 242.14 174.95 C 241.32 164.66 238.92 154.20 231.20 146.80 C 230.62 144.29 228.95 142.30 227.73 140.10 C 240.34 141.79 253.91 143.95 266.24 141.29 C 270.63 136.96 264.52 134.30 261.03 133.99 C 256.71 130.37 264.34 128.18 264.18 124.02 C 264.51 119.58 262.25 115.26 257.25 115.78 C 256.70 115.56 255.60 115.12 255.05 114.90 C 250.04 114.03 254.15 106.84 249.55 105.56 C 243.69 107.30 244.30 100.81 240.13 99.57 C 238.92 98.46 236.88 98.42 235.95 99.90 C 234.71 99.65 233.85 98.74 232.97 97.93 C 232.18 96.22 229.92 96.34 228.92 97.76 C 228.52 97.89 227.70 98.13 227.30 98.25 C 221.01 100.22 216.69 93.81 211.47 91.45 C 200.21 83.64 186.09 82.85 175.23 75.83 C 173.62 72.42 168.90 73.84 166.03 72.91 C 158.75 70.94 151.73 67.95 145.57 63.54 C 138.70 64.84 134.71 56.73 128.42 56.53 C 124.47 61.41 119.46 55.25 114.57 56.39 C 107.95 59.55 103.27 49.52 97.17 53.21 C 93.36 55.39 88.68 53.59 84.80 55.67 C 82.00 57.05 82.22 52.83 81.67 51.16 C 66.40 56.12 50.47 50.51 34.66 52.54 C 35.16 54.84 34.47 60.07 31.86 56.13 C 30.11 52.48 27.20 55.81 24.46 55.85 C 23.67 54.23 23.40 50.96 21.17 53.14 C 18.49 55.50 16.19 51.20 13.57 51.59 C 9.21 54.67 4.42 52.48 0.00 51.12 L 0.00 8.96 Z" />
</g>
<g id="#00000015">
<path fill="#000000" opacity="0.08" d=" M 0.00 51.12 C 4.42 52.48 9.21 54.67 13.57 51.59 C 16.19 51.20 18.49 55.50 21.17 53.14 C 23.40 50.96 23.67 54.23 24.46 55.85 C 27.20 55.81 30.11 52.48 31.86 56.13 C 34.47 60.07 35.16 54.84 34.66 52.54 C 50.47 50.51 66.40 56.12 81.67 51.16 C 82.22 52.83 82.00 57.05 84.80 55.67 C 88.68 53.59 93.36 55.39 97.17 53.21 C 103.27 49.52 107.95 59.55 114.57 56.39 C 119.46 55.25 124.47 61.41 128.42 56.53 C 134.71 56.73 138.70 64.84 145.57 63.54 C 151.73 67.95 158.75 70.94 166.03 72.91 C 168.90 73.84 173.62 72.42 175.23 75.83 C 186.09 82.85 200.21 83.64 211.47 91.45 C 216.69 93.81 221.01 100.22 227.30 98.25 C 221.79 105.13 215.14 94.70 209.12 93.45 C 208.14 92.91 207.17 92.35 206.21 91.77 C 202.06 87.27 194.98 88.38 190.67 92.05 C 189.25 92.33 187.85 92.67 186.43 92.89 C 178.59 91.18 170.70 92.30 164.04 96.89 C 164.41 89.47 154.38 88.92 149.07 86.00 C 141.86 86.32 136.66 79.64 129.34 81.54 C 120.02 79.49 110.76 72.11 101.06 76.91 C 95.61 71.71 87.92 75.70 81.48 76.54 C 76.67 82.02 70.16 73.45 64.53 77.61 C 55.15 80.84 43.73 89.00 34.03 83.05 C 31.73 88.53 26.88 84.67 22.69 86.13 C 18.69 83.54 16.02 88.86 11.80 87.73 C 7.70 87.90 3.85 86.21 0.00 85.03 L 0.00 51.12 Z" />
<path fill="#000000" opacity="0.08" d=" M 264.24 205.25 C 269.98 203.93 274.92 200.46 280.24 198.07 C 278.53 203.47 269.85 204.17 268.42 208.69 C 272.29 211.42 268.12 217.59 272.66 218.46 C 272.28 221.29 272.99 224.01 274.53 226.42 C 276.22 227.37 280.58 227.43 278.13 230.06 C 277.34 233.51 272.13 233.66 272.82 237.60 C 274.89 237.53 278.66 235.80 278.94 239.05 C 280.43 242.46 273.92 239.54 275.41 242.69 C 277.82 248.38 276.05 254.17 275.36 259.85 C 277.09 265.27 270.57 267.41 267.47 270.33 C 269.34 276.04 262.18 275.86 258.52 277.45 C 253.26 278.72 253.70 286.40 248.49 287.65 C 235.66 295.75 221.17 307.89 205.02 305.91 C 201.57 306.34 200.71 312.73 196.69 310.29 C 187.75 307.76 179.01 315.02 170.02 311.41 C 162.94 314.82 155.10 316.69 147.24 316.31 C 143.98 319.02 139.54 320.05 135.37 319.50 C 130.88 318.58 127.24 322.13 123.03 322.95 C 120.11 323.08 122.94 316.43 119.48 318.57 C 116.35 320.86 112.66 319.57 109.27 318.58 C 107.29 324.70 99.22 322.97 95.14 320.05 C 93.54 321.34 94.80 323.40 94.79 325.08 C 89.96 323.59 82.27 316.16 79.47 323.59 C 74.87 325.88 69.70 316.46 66.57 322.70 C 60.18 327.10 60.35 315.73 54.47 318.59 C 49.87 321.43 47.47 313.04 43.19 313.16 C 39.51 315.30 36.57 318.42 33.25 321.04 C 33.03 319.75 34.37 317.00 32.06 317.48 C 28.36 317.78 27.57 312.69 23.86 312.48 C 21.46 306.25 15.88 314.62 14.46 317.81 C 10.92 316.27 8.68 312.03 4.46 311.46 C 2.84 314.73 1.36 313.06 0.00 310.55 L 0.00 266.77 C 3.01 267.82 12.30 275.49 10.32 268.79 C 16.05 269.39 18.71 275.61 24.97 275.08 C 28.74 276.31 38.42 285.37 37.52 276.78 C 45.49 282.09 55.57 278.00 63.94 282.09 C 68.58 283.72 73.14 276.56 77.63 280.27 C 82.47 284.37 87.38 277.38 92.49 281.59 C 95.79 282.46 99.83 282.69 99.38 287.07 C 101.23 284.09 103.57 278.92 107.47 282.43 C 112.15 280.84 117.76 284.13 120.98 288.12 C 122.53 287.01 123.80 285.51 125.45 284.53 C 128.67 288.23 129.45 280.93 133.12 281.90 C 132.63 284.61 128.59 287.40 131.09 290.00 C 135.19 288.23 137.57 283.98 141.66 282.20 C 145.40 289.63 156.38 291.60 161.95 285.29 C 168.32 288.66 175.52 295.11 183.01 291.29 C 186.21 293.92 190.40 297.49 194.81 295.10 C 197.67 289.66 204.26 293.28 209.20 292.48 C 214.15 288.45 221.29 288.85 225.60 284.03 C 230.06 289.95 234.68 283.45 240.03 284.58 C 241.15 284.00 242.67 283.49 243.06 282.15 C 243.58 278.30 246.01 277.21 250.13 278.57 C 252.55 276.58 251.65 273.15 252.36 270.40 C 255.61 267.83 261.25 268.67 263.39 265.21 C 269.00 258.90 256.38 254.68 261.06 250.02 C 266.81 250.96 270.16 241.86 263.33 241.73 C 253.27 241.32 242.46 240.75 232.81 243.30 C 231.22 242.97 229.52 242.55 228.52 241.16 C 229.84 239.68 231.43 238.48 232.92 237.19 C 235.11 234.85 236.43 231.80 237.52 228.81 C 240.00 223.17 241.88 217.19 242.10 210.99 C 242.40 210.42 243.00 209.27 243.30 208.70 C 244.86 207.77 246.41 206.83 248.05 206.04 C 253.44 205.87 258.89 206.23 264.24 205.25 Z" />
</g>
<g id="#0000001e">
<path fill="#000000" opacity="0.12" d=" M 81.48 76.54 C 87.92 75.70 95.61 71.71 101.06 76.91 C 110.76 72.11 120.02 79.49 129.34 81.54 C 136.66 79.64 141.86 86.32 149.07 86.00 C 154.38 88.92 164.41 89.47 164.04 96.89 C 170.70 92.30 178.59 91.18 186.43 92.89 C 180.80 94.15 172.79 92.32 170.04 98.97 C 168.47 105.16 164.27 110.82 158.19 113.13 C 153.25 113.56 149.41 116.75 145.58 119.54 C 143.17 120.97 143.19 116.45 141.72 115.24 C 137.36 111.17 131.18 109.29 125.38 108.52 C 120.59 105.78 113.11 103.04 109.00 107.86 C 105.56 103.19 99.92 107.17 95.31 106.75 C 92.47 104.69 86.83 98.41 84.87 104.01 C 81.20 106.01 76.55 99.75 72.51 103.37 C 66.95 107.75 60.03 99.59 55.11 105.11 C 38.46 107.58 21.74 106.68 4.60 106.50 C 5.90 102.03 2.79 103.62 0.00 105.02 L 0.00 85.03 C 3.85 86.21 7.70 87.90 11.80 87.73 C 16.02 88.86 18.69 83.54 22.69 86.13 C 26.88 84.67 31.73 88.53 34.03 83.05 C 43.73 89.00 55.15 80.84 64.53 77.61 C 70.16 73.45 76.67 82.02 81.48 76.54 Z" />
<path fill="#000000" opacity="0.12" d=" M 28.55 242.68 C 31.23 235.20 40.95 243.51 45.77 244.25 C 47.96 243.14 49.54 244.04 50.73 246.00 C 50.02 240.19 60.73 244.27 58.30 248.98 C 60.29 248.58 62.18 246.77 64.25 247.50 C 64.01 249.79 65.21 253.85 66.87 249.79 C 70.07 247.98 69.53 252.97 69.04 255.08 C 71.28 254.37 74.00 254.16 75.87 252.74 C 77.73 247.61 83.48 253.25 85.32 255.79 C 81.83 253.07 78.11 255.40 82.24 258.64 C 90.74 256.53 99.05 266.24 107.06 261.21 C 110.66 265.08 115.58 260.69 119.92 264.11 C 128.34 263.28 138.19 259.41 146.45 263.53 C 150.51 265.47 153.84 272.15 158.51 269.99 C 165.51 272.05 169.23 278.09 169.64 285.12 C 172.85 291.11 179.74 290.19 185.46 290.45 C 187.99 292.98 191.00 295.37 194.81 295.10 C 190.40 297.49 186.21 293.92 183.01 291.29 C 175.52 295.11 168.32 288.66 161.95 285.29 C 156.38 291.60 145.40 289.63 141.66 282.20 C 137.57 283.98 135.19 288.23 131.09 290.00 C 128.59 287.40 132.63 284.61 133.12 281.90 C 129.45 280.93 128.67 288.23 125.45 284.53 C 123.80 285.51 122.53 287.01 120.98 288.12 C 117.76 284.13 112.15 280.84 107.47 282.43 C 103.57 278.92 101.23 284.09 99.38 287.07 C 99.83 282.69 95.79 282.46 92.49 281.59 C 87.38 277.38 82.47 284.37 77.63 280.27 C 73.14 276.56 68.58 283.72 63.94 282.09 C 55.57 278.00 45.49 282.09 37.52 276.78 C 38.42 285.37 28.74 276.31 24.97 275.08 C 18.71 275.61 16.05 269.39 10.32 268.79 C 12.30 275.49 3.01 267.82 0.00 266.77 L 0.00 244.25 C 2.01 245.19 3.95 244.44 5.76 243.46 C 7.83 247.84 11.86 243.79 14.98 242.95 C 19.26 240.63 24.06 243.46 28.55 242.68 Z" />
</g>
<g id="#5d6273f5">
<path fill="#5d6273" opacity="0.96" d=" M 190.67 92.05 C 194.98 88.38 202.06 87.27 206.21 91.77 C 203.41 92.44 200.56 92.89 198.08 91.10 C 196.12 92.42 191.68 95.87 190.67 92.05 Z" />
</g>
<g id="#424854fe">
<path fill="#424854" opacity="1.00" d=" M 190.67 92.05 C 191.68 95.87 196.12 92.42 198.08 91.10 C 200.56 92.89 203.41 92.44 206.21 91.77 C 207.17 92.35 208.14 92.91 209.12 93.45 C 206.39 95.56 207.30 99.18 203.21 99.25 C 199.76 104.49 204.33 104.48 208.17 102.19 C 209.19 109.71 199.80 108.95 195.64 105.51 C 191.80 105.77 188.60 103.42 184.93 102.89 C 186.47 106.78 193.28 110.82 197.16 106.96 C 195.26 112.55 189.38 117.54 191.84 124.10 C 193.61 127.75 193.71 131.78 193.63 135.72 C 189.66 136.75 190.59 142.57 185.78 140.23 C 187.41 145.37 191.33 144.94 193.88 140.70 C 198.65 140.66 190.46 143.47 194.18 146.13 C 189.23 147.65 192.50 153.34 188.25 154.66 C 184.90 158.48 190.59 165.49 193.32 160.32 C 194.32 158.61 195.45 156.97 196.92 155.63 C 198.15 158.49 195.48 161.37 196.82 164.19 C 197.90 167.44 204.23 171.77 197.21 171.89 C 196.48 168.65 188.17 167.25 190.03 172.81 C 191.73 172.70 193.42 172.44 195.12 172.32 C 193.91 176.57 189.11 179.14 194.28 182.91 C 198.22 181.64 201.69 180.46 203.93 185.10 C 206.38 187.12 197.79 196.60 203.80 193.82 C 205.66 192.03 205.95 195.55 206.48 196.75 C 207.14 203.41 191.17 193.19 193.17 202.73 C 196.51 207.82 200.44 205.12 202.52 200.87 C 203.19 204.38 205.08 208.81 199.53 207.65 C 198.26 213.03 188.63 207.59 190.60 213.36 C 193.16 217.51 185.33 217.05 186.22 220.64 C 189.17 222.11 190.93 224.29 187.82 226.80 C 184.21 228.18 171.61 225.77 174.82 233.05 C 174.93 239.66 163.32 232.75 168.29 228.39 C 170.85 224.17 165.12 226.50 164.01 228.75 C 161.59 226.98 158.80 227.36 156.05 227.91 C 152.73 220.95 161.33 224.97 162.73 220.82 C 163.62 217.42 168.31 216.00 167.01 211.92 C 162.43 211.66 159.37 215.67 157.76 218.91 C 149.78 221.85 149.91 212.18 148.94 206.98 C 153.36 206.17 152.72 212.15 153.47 215.12 C 155.43 213.76 156.94 211.75 159.61 212.73 C 157.73 207.05 162.73 198.40 169.22 201.83 C 168.32 200.12 167.11 198.61 166.09 196.98 C 169.27 195.38 173.78 198.32 175.75 193.83 C 173.93 191.20 167.37 184.57 176.71 187.02 C 176.82 188.79 177.05 192.33 177.16 194.09 C 183.52 193.10 178.69 185.67 177.51 182.11 C 180.17 183.87 182.10 187.80 185.78 186.97 C 185.80 184.26 185.86 181.55 185.86 178.84 C 183.27 180.35 180.39 184.08 178.84 179.20 C 181.56 177.07 187.18 175.60 185.92 171.22 C 182.94 169.24 177.63 166.02 175.16 170.26 C 174.76 174.47 182.33 174.24 178.84 179.20 C 177.62 179.08 176.40 178.96 175.18 178.83 C 171.92 173.85 170.63 166.85 165.40 163.59 C 160.81 160.74 162.99 170.79 158.23 168.89 C 154.04 165.45 163.82 160.19 158.42 156.61 C 153.72 154.45 154.79 149.03 158.51 146.59 C 164.38 147.10 163.46 139.63 168.65 138.56 C 172.25 134.96 175.20 142.04 178.84 141.75 C 182.43 140.33 187.05 139.38 188.31 135.15 C 187.69 135.34 186.45 135.74 185.83 135.93 L 186.12 135.16 C 186.33 134.64 186.74 133.60 186.95 133.09 C 190.79 129.89 191.37 125.81 188.16 121.85 C 187.67 121.54 186.70 120.92 186.21 120.61 C 180.31 117.49 172.28 121.98 173.94 129.04 C 173.59 133.84 179.09 136.69 183.15 137.40 C 179.22 139.17 170.36 138.23 171.59 132.10 C 171.32 128.42 168.32 125.71 166.42 122.75 C 161.92 113.35 151.51 129.60 161.04 131.50 C 154.42 134.22 153.51 125.35 149.63 121.92 C 150.50 117.49 154.87 115.51 158.19 113.13 C 164.27 110.82 168.47 105.16 170.04 98.97 C 172.79 92.32 180.80 94.15 186.43 92.89 C 187.85 92.67 189.25 92.33 190.67 92.05 M 174.29 104.27 C 172.51 104.96 171.01 106.21 169.92 107.76 C 173.60 108.76 179.18 110.72 181.03 106.15 C 179.05 104.92 176.71 103.18 174.29 104.27 M 182.20 147.49 C 178.60 149.19 177.39 158.25 183.37 155.49 C 189.70 155.18 188.67 144.17 182.20 147.49 M 176.23 208.13 C 172.68 210.79 169.18 220.42 177.64 217.66 C 182.30 217.33 180.93 206.55 176.23 208.13 Z" />
</g>
<g id="#585d64fd">
<path fill="#585d64" opacity="1.00" d=" M 203.21 99.25 C 207.30 99.18 206.39 95.56 209.12 93.45 C 215.14 94.70 221.79 105.13 227.30 98.25 C 227.70 98.13 228.52 97.89 228.92 97.76 C 230.25 98.17 231.60 98.23 232.97 97.93 C 233.85 98.74 234.71 99.65 235.95 99.90 C 237.35 100.39 238.75 100.28 240.13 99.57 C 244.30 100.81 243.69 107.30 249.55 105.56 C 254.15 106.84 250.04 114.03 255.05 114.90 C 249.94 113.54 250.95 117.67 252.24 120.99 C 254.86 120.56 259.10 119.13 257.25 115.78 C 262.25 115.26 264.51 119.58 264.18 124.02 C 260.28 127.02 254.78 124.17 250.90 127.64 C 248.91 128.22 250.40 130.49 251.86 130.54 C 254.24 133.20 257.16 134.89 261.03 133.99 C 264.52 134.30 270.63 136.96 266.24 141.29 C 258.64 139.12 250.24 141.08 243.46 136.75 C 244.95 141.20 238.45 139.47 236.40 137.64 C 234.37 135.79 231.08 135.81 229.93 133.04 C 230.32 131.74 230.74 130.44 231.15 129.15 C 233.96 129.50 236.16 128.19 236.29 125.20 C 239.90 130.37 236.64 116.94 242.71 118.69 C 241.66 122.31 239.73 125.74 239.20 129.46 C 242.60 129.60 241.54 134.04 244.58 134.44 C 249.56 137.12 244.92 127.58 249.45 126.40 C 248.95 123.20 251.94 117.29 247.69 116.31 C 244.14 115.70 239.83 118.54 237.00 115.82 C 239.64 112.85 238.69 108.51 234.12 108.79 C 236.97 114.04 234.83 111.94 230.70 111.99 C 230.48 111.76 230.05 111.32 229.83 111.10 C 228.30 108.41 226.93 105.64 225.43 102.95 C 225.28 105.97 222.82 107.67 221.17 109.90 C 220.40 108.14 221.26 103.57 218.45 104.22 C 216.75 107.64 215.15 111.44 219.68 113.31 C 227.78 112.05 222.94 117.35 220.18 118.27 C 216.50 119.63 220.22 123.91 217.87 125.99 C 215.06 124.97 217.42 120.61 214.77 119.09 C 212.02 118.39 210.84 121.81 208.88 123.12 C 206.49 122.06 206.03 119.43 205.65 117.14 C 203.39 117.90 201.17 118.77 198.93 119.60 C 195.65 123.82 197.23 129.71 203.21 127.17 C 203.08 131.24 197.97 128.84 195.52 129.57 C 194.86 131.82 193.58 135.98 199.52 133.08 C 199.14 135.36 198.45 138.09 201.81 136.89 C 200.50 126.95 202.76 132.97 204.02 135.06 C 204.85 136.91 204.47 138.91 204.33 140.85 C 207.25 142.10 209.87 141.29 211.78 138.86 C 213.05 140.80 215.30 141.44 217.27 142.40 C 217.51 144.87 217.76 147.34 218.15 149.80 C 217.24 151.99 214.56 154.04 215.70 156.60 C 214.11 162.25 209.25 156.36 206.37 160.34 C 205.94 168.61 204.81 176.79 203.93 185.10 C 201.69 180.46 198.22 181.64 194.28 182.91 C 189.11 179.14 193.91 176.57 195.12 172.32 C 193.42 172.44 191.73 172.70 190.03 172.81 C 188.17 167.25 196.48 168.65 197.21 171.89 C 204.23 171.77 197.90 167.44 196.82 164.19 C 198.75 164.83 202.26 164.71 200.03 162.01 C 197.26 159.28 200.46 157.75 202.89 156.80 C 202.76 153.41 198.56 153.02 196.92 155.63 C 195.45 156.97 194.32 158.61 193.32 160.32 C 190.59 165.49 184.90 158.48 188.25 154.66 C 192.50 153.34 189.23 147.65 194.18 146.13 C 195.82 148.44 203.06 151.24 199.51 146.52 C 197.40 144.11 199.82 141.77 199.95 139.24 C 198.09 136.61 194.84 138.14 193.88 140.70 C 191.33 144.94 187.41 145.37 185.78 140.23 C 190.59 142.57 189.66 136.75 193.63 135.72 C 193.71 131.78 193.61 127.75 191.84 124.10 C 189.38 117.54 195.26 112.55 197.16 106.96 C 193.28 110.82 186.47 106.78 184.93 102.89 C 188.60 103.42 191.80 105.77 195.64 105.51 C 199.80 108.95 209.19 109.71 208.17 102.19 C 204.33 104.48 199.76 104.49 203.21 99.25 M 209.19 96.08 C 206.79 98.82 210.07 101.68 213.03 101.03 C 213.51 98.68 211.76 95.80 209.19 96.08 M 201.19 173.13 C 200.11 175.00 195.73 180.60 199.99 180.02 C 203.86 181.35 205.51 171.25 201.19 173.13 Z" />
</g>
<g id="#888f85ff">
<path fill="#888f85" opacity="1.00" d=" M 209.19 96.08 C 211.76 95.80 213.51 98.68 213.03 101.03 C 210.07 101.68 206.79 98.82 209.19 96.08 Z" />
</g>
<g id="#22272b8a">
<path fill="#22272b" opacity="0.54" d=" M 228.92 97.76 C 229.92 96.34 232.18 96.22 232.97 97.93 C 231.60 98.23 230.25 98.17 228.92 97.76 Z" />
</g>
<g id="#2125298b">
<path fill="#212529" opacity="0.55" d=" M 235.95 99.90 C 236.88 98.42 238.92 98.46 240.13 99.57 C 238.75 100.28 237.35 100.39 235.95 99.90 Z" />
</g>
<g id="#00000027">
<path fill="#000000" opacity="0.15" d=" M 84.87 104.01 C 86.83 98.41 92.47 104.69 95.31 106.75 C 99.92 107.17 105.56 103.19 109.00 107.86 C 113.11 103.04 120.59 105.78 125.38 108.52 C 131.18 109.29 137.36 111.17 141.72 115.24 C 143.19 116.45 143.17 120.97 145.58 119.54 C 149.41 116.75 153.25 113.56 158.19 113.13 C 154.87 115.51 150.50 117.49 149.63 121.92 C 149.24 124.80 148.91 127.78 146.90 130.01 L 146.17 130.40 C 141.53 131.24 136.44 130.52 132.62 127.60 C 128.08 124.57 122.25 126.25 117.45 123.70 C 107.93 123.60 98.71 129.54 89.12 126.71 C 85.73 125.20 84.87 132.11 81.57 128.62 C 54.97 132.25 27.16 131.57 0.00 130.96 L 0.00 105.02 C 2.79 103.62 5.90 102.03 4.60 106.50 C 21.74 106.68 38.46 107.58 55.11 105.11 C 60.03 99.59 66.95 107.75 72.51 103.37 C 76.55 99.75 81.20 106.01 84.87 104.01 Z" />
<path fill="#000000" opacity="0.15" d=" M 0.00 224.30 C 3.44 222.91 7.04 222.02 10.76 222.68 C 23.41 224.63 36.27 224.19 48.93 226.05 C 70.68 226.95 90.79 234.40 110.80 241.20 C 120.92 247.76 133.39 246.59 144.74 249.22 C 145.83 250.91 146.68 252.75 147.27 254.73 C 149.40 257.46 148.75 261.34 150.70 264.11 C 152.76 266.74 155.53 268.57 158.51 269.99 C 153.84 272.15 150.51 265.47 146.45 263.53 C 138.19 259.41 128.34 263.28 119.92 264.11 C 115.58 260.69 110.66 265.08 107.06 261.21 C 99.05 266.24 90.74 256.53 82.24 258.64 C 78.11 255.40 81.83 253.07 85.32 255.79 C 83.48 253.25 77.73 247.61 75.87 252.74 C 74.00 254.16 71.28 254.37 69.04 255.08 C 69.53 252.97 70.07 247.98 66.87 249.79 C 65.21 253.85 64.01 249.79 64.25 247.50 C 62.18 246.77 60.29 248.58 58.30 248.98 C 60.73 244.27 50.02 240.19 50.73 246.00 C 49.54 244.04 47.96 243.14 45.77 244.25 C 40.95 243.51 31.23 235.20 28.55 242.68 C 24.06 243.46 19.26 240.63 14.98 242.95 C 11.86 243.79 7.83 247.84 5.76 243.46 C 3.95 244.44 2.01 245.19 0.00 244.25 L 0.00 224.30 Z" />
</g>
<g id="#73787cff">
<path fill="#73787c" opacity="1.00" d=" M 225.43 102.95 C 226.93 105.64 228.30 108.41 229.83 111.10 C 228.32 110.34 226.83 109.47 225.19 109.02 C 221.85 113.74 230.01 114.76 231.73 118.23 C 232.20 120.90 233.59 126.72 236.52 122.49 C 241.17 117.56 232.28 116.10 230.70 111.99 C 234.83 111.94 236.97 114.04 234.12 108.79 C 238.69 108.51 239.64 112.85 237.00 115.82 C 239.83 118.54 244.14 115.70 247.69 116.31 C 251.94 117.29 248.95 123.20 249.45 126.40 C 244.92 127.58 249.56 137.12 244.58 134.44 C 241.54 134.04 242.60 129.60 239.20 129.46 C 239.73 125.74 241.66 122.31 242.71 118.69 C 236.64 116.94 239.90 130.37 236.29 125.20 C 236.16 128.19 233.96 129.50 231.15 129.15 C 230.23 125.10 230.11 118.14 224.28 119.10 C 223.21 122.11 220.30 126.33 223.47 128.96 C 224.60 130.20 225.79 131.40 227.15 132.41 C 228.01 132.81 228.93 133.02 229.93 133.04 C 229.28 135.34 226.30 137.76 227.73 140.10 C 228.95 142.30 230.62 144.29 231.20 146.80 C 227.00 154.53 237.32 155.67 237.13 162.04 C 234.45 161.30 231.24 154.05 231.63 163.74 C 226.71 163.85 223.87 169.16 218.68 167.35 C 213.89 166.90 218.01 171.96 219.19 173.93 C 222.04 173.22 225.05 170.93 227.80 173.24 C 227.84 175.51 227.93 177.88 227.08 180.03 C 223.67 183.67 227.78 173.59 221.98 176.22 C 217.22 174.41 213.90 182.85 219.87 182.05 C 219.05 183.67 218.23 185.30 217.81 187.08 C 221.64 185.43 223.30 179.08 223.91 186.44 C 223.60 191.51 221.38 197.26 225.72 201.20 C 227.65 205.78 233.07 205.20 236.94 207.14 C 235.72 208.57 234.37 209.87 233.21 211.35 C 232.07 202.41 222.32 213.03 228.78 215.40 C 231.54 218.58 230.11 221.76 228.03 224.80 C 234.38 223.99 231.24 228.82 227.72 230.47 C 228.56 235.59 214.45 239.71 223.94 240.25 C 223.23 245.10 216.32 241.95 212.93 242.80 C 212.27 238.95 217.22 237.51 216.71 233.78 C 216.42 230.16 219.60 235.09 221.37 233.43 C 224.33 232.96 222.13 229.38 222.36 227.36 C 223.86 226.78 225.41 226.32 226.90 225.70 C 227.21 221.74 220.82 223.65 218.60 222.78 C 214.15 225.97 208.00 223.85 203.19 226.27 C 200.84 228.45 206.26 232.41 201.97 232.95 C 199.06 233.34 201.93 228.34 198.95 228.99 C 194.25 228.52 199.67 224.29 200.95 222.44 C 198.31 221.82 195.91 220.80 198.23 218.04 C 202.95 219.53 208.29 220.30 212.79 217.82 C 211.14 212.10 204.08 223.26 202.20 216.67 C 200.24 214.55 201.01 212.13 203.99 211.98 C 207.04 211.14 206.84 207.07 205.02 205.03 C 206.10 202.46 207.34 199.56 206.48 196.75 C 205.95 195.55 205.66 192.03 203.80 193.82 C 197.79 196.60 206.38 187.12 203.93 185.10 C 204.81 176.79 205.94 168.61 206.37 160.34 C 209.25 156.36 214.11 162.25 215.70 156.60 C 217.19 156.91 218.71 157.19 220.17 157.64 C 216.56 156.61 213.81 163.94 218.56 163.18 C 218.77 169.77 225.40 165.33 226.93 161.88 C 228.92 156.41 224.02 149.59 218.15 149.80 C 217.76 147.34 217.51 144.87 217.27 142.40 C 215.30 141.44 213.05 140.80 211.78 138.86 C 212.82 135.22 208.42 136.01 206.25 134.82 C 206.07 133.01 208.41 129.10 205.05 129.99 C 202.90 129.93 204.44 133.58 204.02 135.06 C 202.76 132.97 200.50 126.95 201.81 136.89 C 198.45 138.09 199.14 135.36 199.52 133.08 C 193.58 135.98 194.86 131.82 195.52 129.57 C 197.97 128.84 203.08 131.24 203.21 127.17 C 203.34 124.06 202.32 120.47 198.93 119.60 C 201.17 118.77 203.39 117.90 205.65 117.14 C 206.03 119.43 206.49 122.06 208.88 123.12 C 210.84 121.81 212.02 118.39 214.77 119.09 C 217.42 120.61 215.06 124.97 217.87 125.99 C 220.22 123.91 216.50 119.63 220.18 118.27 C 222.94 117.35 227.78 112.05 219.68 113.31 C 215.15 111.44 216.75 107.64 218.45 104.22 C 221.26 103.57 220.40 108.14 221.17 109.90 C 222.82 107.67 225.28 105.97 225.43 102.95 M 218.17 194.95 C 218.63 198.80 210.02 207.19 217.99 205.03 C 218.39 202.38 223.57 197.00 218.17 194.95 Z" />
</g>
<g id="#72788bff">
<path fill="#72788b" opacity="1.00" d=" M 174.29 104.27 C 176.71 103.18 179.05 104.92 181.03 106.15 C 179.18 110.72 173.60 108.76 169.92 107.76 C 171.01 106.21 172.51 104.96 174.29 104.27 Z" />
</g>
<g id="#9da0a4ff">
<path fill="#9da0a4" opacity="1.00" d=" M 225.19 109.02 C 226.83 109.47 228.32 110.34 229.83 111.10 C 230.05 111.32 230.48 111.76 230.70 111.99 C 232.28 116.10 241.17 117.56 236.52 122.49 C 233.59 126.72 232.20 120.90 231.73 118.23 C 230.01 114.76 221.85 113.74 225.19 109.02 Z" />
</g>
<g id="#838f99fe">
<path fill="#838f99" opacity="1.00" d=" M 252.24 120.99 C 250.95 117.67 249.94 113.54 255.05 114.90 C 255.60 115.12 256.70 115.56 257.25 115.78 C 259.10 119.13 254.86 120.56 252.24 120.99 Z" />
</g>
<g id="#5b6177ff">
<path fill="#5b6177" opacity="1.00" d=" M 161.04 131.50 C 151.51 129.60 161.92 113.35 166.42 122.75 C 166.28 126.46 164.55 129.96 161.04 131.50 Z" />
</g>
<g id="#989cadff">
<path fill="#989cad" opacity="1.00" d=" M 224.28 119.10 C 230.11 118.14 230.23 125.10 231.15 129.15 C 230.74 130.44 230.32 131.74 229.93 133.04 C 228.93 133.02 228.01 132.81 227.15 132.41 C 229.34 129.39 226.37 126.65 223.47 128.96 C 220.30 126.33 223.21 122.11 224.28 119.10 Z" />
</g>
<g id="#666b82ff">
<path fill="#666b82" opacity="1.00" d=" M 173.94 129.04 C 172.28 121.98 180.31 117.49 186.21 120.61 C 181.16 119.84 177.71 123.36 180.60 127.95 C 177.00 132.01 181.16 137.78 186.12 135.16 L 185.83 135.93 C 184.96 136.46 184.06 136.95 183.15 137.40 C 179.09 136.69 173.59 133.84 173.94 129.04 Z" />
</g>
<g id="#9094a3ff">
<path fill="#9094a3" opacity="1.00" d=" M 203.21 127.17 C 197.23 129.71 195.65 123.82 198.93 119.60 C 202.32 120.47 203.34 124.06 203.21 127.17 Z" />
</g>
<g id="#9a9fabff">
<path fill="#9a9fab" opacity="1.00" d=" M 180.60 127.95 C 177.71 123.36 181.16 119.84 186.21 120.61 C 186.70 120.92 187.67 121.54 188.16 121.85 C 188.86 125.72 187.31 129.31 186.95 133.09 C 186.74 133.60 186.33 134.64 186.12 135.16 C 181.16 137.78 177.00 132.01 180.60 127.95 Z" />
</g>
<g id="#383b42fd">
<path fill="#383b42" opacity="1.00" d=" M 146.90 130.01 C 148.91 127.78 149.24 124.80 149.63 121.92 C 153.51 125.35 154.42 134.22 161.04 131.50 C 164.55 129.96 166.28 126.46 166.42 122.75 C 168.32 125.71 171.32 128.42 171.59 132.10 C 170.36 138.23 179.22 139.17 183.15 137.40 C 184.06 136.95 184.96 136.46 185.83 135.93 C 186.45 135.74 187.69 135.34 188.31 135.15 C 187.05 139.38 182.43 140.33 178.84 141.75 C 175.20 142.04 172.25 134.96 168.65 138.56 C 163.46 139.63 164.38 147.10 158.51 146.59 C 154.79 149.03 153.72 154.45 158.42 156.61 C 163.82 160.19 154.04 165.45 158.23 168.89 C 162.99 170.79 160.81 160.74 165.40 163.59 C 170.63 166.85 171.92 173.85 175.18 178.83 C 175.85 180.00 176.69 181.05 177.51 182.11 C 178.69 185.67 183.52 193.10 177.16 194.09 C 177.05 192.33 176.82 188.79 176.71 187.02 C 167.37 184.57 173.93 191.20 175.75 193.83 C 173.78 198.32 169.27 195.38 166.09 196.98 C 167.11 198.61 168.32 200.12 169.22 201.83 C 162.73 198.40 157.73 207.05 159.61 212.73 C 156.94 211.75 155.43 213.76 153.47 215.12 C 152.72 212.15 153.36 206.17 148.94 206.98 C 149.91 212.18 149.78 221.85 157.76 218.91 C 159.37 215.67 162.43 211.66 167.01 211.92 C 168.31 216.00 163.62 217.42 162.73 220.82 C 161.33 224.97 152.73 220.95 156.05 227.91 C 158.80 227.36 161.59 226.98 164.01 228.75 C 165.12 226.50 170.85 224.17 168.29 228.39 C 163.32 232.75 174.93 239.66 174.82 233.05 C 171.61 225.77 184.21 228.18 187.82 226.80 C 190.18 228.30 198.81 231.50 188.03 229.92 C 183.59 229.10 179.52 233.82 180.17 238.06 C 181.29 240.40 182.34 242.79 183.66 245.03 C 185.96 246.77 189.98 250.27 184.40 249.80 C 184.07 249.59 183.40 249.18 183.06 248.97 C 178.55 246.97 174.24 244.62 170.10 241.93 C 161.73 245.51 159.23 256.58 163.99 263.97 C 169.61 270.11 178.72 273.82 186.81 270.78 C 188.84 269.45 189.82 272.84 191.66 273.32 C 194.81 274.14 198.39 273.42 201.06 271.47 C 202.38 271.35 203.91 272.01 205.11 271.26 C 207.69 269.94 208.35 265.63 212.06 266.95 C 211.39 269.29 208.35 269.72 209.21 272.86 C 205.87 276.27 200.94 272.66 197.73 275.96 C 196.00 276.78 194.10 277.04 192.23 277.33 C 188.79 278.31 184.10 274.86 181.09 277.23 C 179.64 282.18 185.89 283.42 188.41 286.49 C 190.68 286.60 192.87 284.81 195.20 284.43 C 196.64 284.04 198.17 283.61 199.07 282.30 C 200.75 281.10 201.54 276.99 204.03 278.87 C 202.47 284.21 205.58 289.08 209.20 292.48 C 204.26 293.28 197.67 289.66 194.81 295.10 C 191.00 295.37 187.99 292.98 185.46 290.45 C 179.74 290.19 172.85 291.11 169.64 285.12 C 169.84 281.02 177.83 281.89 177.44 285.85 C 181.63 285.91 178.80 279.98 179.57 277.31 C 172.09 276.24 164.59 271.99 160.55 265.42 C 158.42 262.22 153.82 262.59 150.70 264.11 C 148.75 261.34 149.40 257.46 147.27 254.73 C 146.59 250.78 147.36 246.94 147.97 243.08 C 147.21 240.16 145.74 237.52 144.24 234.93 C 144.18 234.49 144.05 233.60 143.99 233.16 C 143.95 232.66 143.86 231.65 143.82 231.14 C 145.29 222.52 139.87 215.85 138.85 207.84 C 139.70 205.61 139.92 203.23 140.01 200.87 C 140.76 198.80 142.30 197.20 143.91 195.77 C 148.14 194.48 155.03 195.67 155.53 200.86 C 162.44 203.76 163.55 194.86 169.24 194.18 C 170.59 191.86 170.59 188.88 170.78 186.22 C 168.76 184.50 165.90 184.50 163.55 183.45 C 161.70 181.52 161.10 178.07 158.51 177.11 C 158.33 181.46 150.79 178.74 154.05 185.06 C 154.78 188.28 151.55 190.36 149.03 188.15 C 151.32 187.06 153.85 185.70 152.67 182.77 C 151.78 178.34 153.08 170.04 147.08 169.02 C 141.25 171.87 139.52 180.18 143.78 185.25 C 142.49 184.53 141.23 183.75 140.00 182.95 C 139.64 180.64 139.28 178.34 138.91 176.05 C 138.94 173.38 139.48 170.75 140.17 168.18 C 140.49 167.89 141.14 167.29 141.46 167.00 C 141.72 166.74 142.25 166.23 142.51 165.97 C 142.96 159.90 142.84 153.73 144.86 147.89 C 145.33 147.00 145.80 146.10 146.27 145.20 C 146.52 144.74 147.02 143.82 147.27 143.36 C 147.44 143.00 147.79 142.28 147.97 141.92 C 147.89 137.93 147.11 133.99 146.90 130.01 M 144.22 198.22 C 139.87 200.48 141.43 209.11 146.80 207.94 C 148.77 205.11 150.48 201.86 150.16 198.26 C 148.21 199.01 146.20 198.55 144.22 198.22 Z" />
</g>
<g id="#6e736aff">
<path fill="#6e736a" opacity="1.00" d=" M 188.16 121.85 C 191.37 125.81 190.79 129.89 186.95 133.09 C 187.31 129.31 188.86 125.72 188.16 121.85 Z" />
</g>
<g id="#00000032">
<path fill="#000000" opacity="0.20" d=" M 89.12 126.71 C 98.71 129.54 107.93 123.60 117.45 123.70 C 122.25 126.25 128.08 124.57 132.62 127.60 C 136.44 130.52 141.53 131.24 146.17 130.40 C 150.11 143.05 135.95 138.25 128.97 138.19 C 111.74 137.84 94.64 141.87 77.35 140.82 C 51.67 138.71 25.83 137.32 0.00 136.96 L 0.00 130.96 C 27.16 131.57 54.97 132.25 81.57 128.62 C 84.87 132.11 85.73 125.20 89.12 126.71 Z" />
</g>
<g id="#28282dee">
<path fill="#28282d" opacity="0.93" d=" M 250.90 127.64 C 254.78 124.17 260.28 127.02 264.18 124.02 C 264.34 128.18 256.71 130.37 261.03 133.99 C 257.16 134.89 254.24 133.20 251.86 130.54 C 253.61 129.69 252.76 127.35 250.90 127.64 Z" />
</g>
<g id="#d8dae2ff">
<path fill="#d8dae2" opacity="1.00" d=" M 223.47 128.96 C 226.37 126.65 229.34 129.39 227.15 132.41 C 225.79 131.40 224.60 130.20 223.47 128.96 Z" />
</g>
<g id="#0e0d0e69">
<path fill="#0e0d0e" opacity="0.41" d=" M 251.86 130.54 C 250.40 130.49 248.91 128.22 250.90 127.64 C 252.76 127.35 253.61 129.69 251.86 130.54 Z" />
</g>
<g id="#00000042">
<path fill="#000000" opacity="0.26" d=" M 146.17 130.40 L 146.90 130.01 C 147.11 133.99 147.89 137.93 147.97 141.92 C 120.91 141.58 94.02 146.99 66.97 144.24 C 44.65 144.38 22.26 141.39 0.00 144.14 L 0.00 136.96 C 25.83 137.32 51.67 138.71 77.35 140.82 C 94.64 141.87 111.74 137.84 128.97 138.19 C 135.95 138.25 150.11 143.05 146.17 130.40 Z" />
</g>
<g id="#878a95ff">
<path fill="#878a95" opacity="1.00" d=" M 204.02 135.06 C 204.44 133.58 202.90 129.93 205.05 129.99 C 208.41 129.10 206.07 133.01 206.25 134.82 C 208.42 136.01 212.82 135.22 211.78 138.86 C 209.87 141.29 207.25 142.10 204.33 140.85 C 204.47 138.91 204.85 136.91 204.02 135.06 Z" />
</g>
<g id="#28282eee">
<path fill="#28282e" opacity="0.93" d=" M 229.93 133.04 C 231.08 135.81 234.37 135.79 236.40 137.64 C 238.45 139.47 244.95 141.20 243.46 136.75 C 250.24 141.08 258.64 139.12 266.24 141.29 C 253.91 143.95 240.34 141.79 227.73 140.10 C 226.30 137.76 229.28 135.34 229.93 133.04 Z" />
</g>
<g id="#777f77ff">
<path fill="#777f77" opacity="1.00" d=" M 193.88 140.70 C 194.84 138.14 198.09 136.61 199.95 139.24 C 199.82 141.77 197.40 144.11 199.51 146.52 C 203.06 151.24 195.82 148.44 194.18 146.13 C 190.46 143.47 198.65 140.66 193.88 140.70 Z" />
</g>
<g id="#00000053">
<path fill="#000000" opacity="0.33" d=" M 66.97 144.24 C 94.02 146.99 120.91 141.58 147.97 141.92 C 147.79 142.28 147.44 143.00 147.27 143.36 C 120.12 144.33 93.30 149.52 66.05 148.21 C 56.41 150.11 44.77 145.60 36.77 152.96 C 56.09 156.98 75.67 159.77 94.67 165.35 C 109.56 169.66 125.33 166.25 140.17 168.18 C 139.48 170.75 138.94 173.38 138.91 176.05 C 139.54 167.66 130.26 170.18 125.06 170.62 C 98.96 171.52 74.08 161.76 48.14 160.75 C 32.11 160.38 16.02 160.37 0.00 158.90 L 0.00 144.14 C 22.26 141.39 44.65 144.38 66.97 144.24 Z" />
</g>
<g id="#00000062">
<path fill="#000000" opacity="0.38" d=" M 66.05 148.21 C 93.30 149.52 120.12 144.33 147.27 143.36 C 147.02 143.82 146.52 144.74 146.27 145.20 C 124.91 146.06 103.97 150.38 83.00 154.07 C 84.10 157.81 87.65 159.85 91.27 160.68 C 101.88 165.14 113.59 166.42 125.01 165.97 C 130.44 166.58 136.80 162.88 141.46 167.00 C 141.14 167.29 140.49 167.89 140.17 168.18 C 125.33 166.25 109.56 169.66 94.67 165.35 C 75.67 159.77 56.09 156.98 36.77 152.96 C 44.77 145.60 56.41 150.11 66.05 148.21 Z" />
</g>
<g id="#00000075">
<path fill="#000000" opacity="0.46" d=" M 83.00 154.07 C 103.97 150.38 124.91 146.06 146.27 145.20 C 145.80 146.10 145.33 147.00 144.86 147.89 C 137.73 148.33 130.29 148.88 123.66 151.66 C 120.61 154.56 116.03 157.23 113.16 159.15 C 119.35 168.22 135.59 158.31 142.51 165.97 C 142.25 166.23 141.72 166.74 141.46 167.00 C 136.80 162.88 130.44 166.58 125.01 165.97 C 113.59 166.42 101.88 165.14 91.27 160.68 C 87.65 159.85 84.10 157.81 83.00 154.07 Z" />
</g>
<g id="#6a6e7aff">
<path fill="#6a6e7a" opacity="1.00" d=" M 182.20 147.49 C 188.67 144.17 189.70 155.18 183.37 155.49 C 177.39 158.25 178.60 149.19 182.20 147.49 Z" />
</g>
<g id="#5b5f69fc">
<path fill="#5b5f69" opacity="1.00" d=" M 231.20 146.80 C 238.92 154.20 241.32 164.66 242.14 174.95 C 239.55 179.70 233.17 175.74 229.95 179.49 C 232.15 180.19 235.03 180.92 233.95 183.88 C 230.49 184.33 227.04 184.76 223.91 186.44 C 223.30 179.08 221.64 185.43 217.81 187.08 C 218.23 185.30 219.05 183.67 219.87 182.05 C 221.63 180.39 225.64 178.38 221.98 176.22 C 227.78 173.59 223.67 183.67 227.08 180.03 C 227.93 177.88 227.84 175.51 227.80 173.24 C 225.05 170.93 222.04 173.22 219.19 173.93 C 218.01 171.96 213.89 166.90 218.68 167.35 C 223.87 169.16 226.71 163.85 231.63 163.74 C 231.24 154.05 234.45 161.30 237.13 162.04 C 237.32 155.67 227.00 154.53 231.20 146.80 M 235.17 166.07 C 233.13 168.72 235.60 173.07 239.00 172.02 C 239.64 169.43 238.25 165.79 235.17 166.07 Z" />
</g>
<g id="#01010187">
<path fill="#010101" opacity="0.53" d=" M 123.66 151.66 C 130.29 148.88 137.73 148.33 144.86 147.89 C 142.84 153.73 142.96 159.90 142.51 165.97 C 135.59 158.31 119.35 168.22 113.16 159.15 C 116.03 157.23 120.61 154.56 123.66 151.66 Z" />
</g>
<g id="#7b8446ff">
<path fill="#7b8446" opacity="1.00" d=" M 218.15 149.80 C 224.02 149.59 228.92 156.41 226.93 161.88 C 225.40 165.33 218.77 169.77 218.56 163.18 C 222.16 161.90 226.37 158.39 220.17 157.64 C 218.71 157.19 217.19 156.91 215.70 156.60 C 214.56 154.04 217.24 151.99 218.15 149.80 Z" />
</g>
<g id="#7d8490ff">
<path fill="#7d8490" opacity="1.00" d=" M 196.92 155.63 C 198.56 153.02 202.76 153.41 202.89 156.80 C 200.46 157.75 197.26 159.28 200.03 162.01 C 202.26 164.71 198.75 164.83 196.82 164.19 C 195.48 161.37 198.15 158.49 196.92 155.63 Z" />
</g>
<g id="#969e8fff">
<path fill="#969e8f" opacity="1.00" d=" M 218.56 163.18 C 213.81 163.94 216.56 156.61 220.17 157.64 C 226.37 158.39 222.16 161.90 218.56 163.18 Z" />
</g>
<g id="#00000044">
<path fill="#000000" opacity="0.27" d=" M 0.00 158.90 C 16.02 160.37 32.11 160.38 48.14 160.75 C 74.08 161.76 98.96 171.52 125.06 170.62 C 130.26 170.18 139.54 167.66 138.91 176.05 C 139.28 178.34 139.64 180.64 140.00 182.95 C 140.15 187.76 146.84 190.92 143.91 195.77 C 142.30 197.20 140.76 198.80 140.01 200.87 C 139.31 206.91 132.60 205.86 128.16 205.69 C 108.40 204.45 88.74 202.07 68.96 201.11 C 45.70 199.74 23.07 193.78 0.00 191.20 L 0.00 183.90 C 10.42 187.24 21.76 185.93 32.12 189.78 C 57.45 194.95 84.38 201.63 109.93 194.69 C 109.36 190.31 102.66 188.07 105.62 182.42 C 102.37 181.79 101.67 180.30 104.00 177.84 C 97.88 171.03 88.08 171.29 79.89 169.13 C 53.64 162.45 26.44 167.62 0.00 164.99 L 0.00 158.90 Z" />
<path fill="#000000" opacity="0.27" d=" M 0.00 206.73 C 47.76 217.65 97.13 221.04 144.24 234.93 C 145.74 237.52 147.21 240.16 147.97 243.08 C 142.64 235.92 133.09 236.76 125.63 233.48 C 84.51 222.79 41.77 220.84 0.00 213.85 L 0.00 206.73 Z" />
</g>
<g id="#00000037">
<path fill="#000000" opacity="0.22" d=" M 0.00 164.99 C 26.44 167.62 53.64 162.45 79.89 169.13 C 88.08 171.29 97.88 171.03 104.00 177.84 C 101.67 180.30 102.37 181.79 105.62 182.42 C 102.66 188.07 109.36 190.31 109.93 194.69 C 84.38 201.63 57.45 194.95 32.12 189.78 C 21.76 185.93 10.42 187.24 0.00 183.90 L 0.00 164.99 Z" />
</g>
<g id="#9293a4ff">
<path fill="#9293a4" opacity="1.00" d=" M 235.17 166.07 C 238.25 165.79 239.64 169.43 239.00 172.02 C 235.60 173.07 233.13 168.72 235.17 166.07 Z" />
</g>
<g id="#5a606eff">
<path fill="#5a606e" opacity="1.00" d=" M 175.16 170.26 C 177.63 166.02 182.94 169.24 185.92 171.22 C 187.18 175.60 181.56 177.07 178.84 179.20 C 182.33 174.24 174.76 174.47 175.16 170.26 Z" />
</g>
<g id="#5a5e73ff">
<path fill="#5a5e73" opacity="1.00" d=" M 143.78 185.25 C 139.52 180.18 141.25 171.87 147.08 169.02 C 153.08 170.04 151.78 178.34 152.67 182.77 C 153.85 185.70 151.32 187.06 149.03 188.15 C 147.28 187.19 145.50 186.26 143.78 185.25 Z" />
</g>
<g id="#818982ff">
<path fill="#818982" opacity="1.00" d=" M 201.19 173.13 C 205.51 171.25 203.86 181.35 199.99 180.02 C 195.73 180.60 200.11 175.00 201.19 173.13 Z" />
</g>
<g id="#3b3c46fb">
<path fill="#3b3c46" opacity="1.00" d=" M 242.14 174.95 C 250.98 181.42 263.50 174.83 272.51 181.36 C 279.41 183.54 285.55 191.03 280.24 198.07 C 274.92 200.46 269.98 203.93 264.24 205.25 C 258.87 205.43 253.24 204.14 248.05 206.04 C 246.41 206.83 244.86 207.77 243.30 208.70 C 240.67 207.14 238.68 209.83 236.70 211.17 C 235.38 211.59 234.05 212.02 232.67 212.22 L 233.21 211.35 C 234.37 209.87 235.72 208.57 236.94 207.14 C 233.07 205.20 227.65 205.78 225.72 201.20 C 221.38 197.26 223.60 191.51 223.91 186.44 C 227.04 184.76 230.49 184.33 233.95 183.88 C 235.03 180.92 232.15 180.19 229.95 179.49 C 233.17 175.74 239.55 179.70 242.14 174.95 M 242.79 188.95 C 240.30 189.74 239.68 188.10 239.73 185.89 C 236.50 188.70 232.68 192.21 234.00 197.11 C 237.39 196.05 239.75 192.34 241.84 197.06 C 241.33 195.34 242.94 192.34 243.92 195.01 C 245.03 200.90 252.05 198.52 255.94 197.20 C 256.63 200.88 259.92 203.79 259.72 198.30 C 260.84 197.69 261.84 196.77 263.12 196.52 C 264.95 200.25 273.48 198.88 275.67 194.68 C 280.01 190.35 270.22 183.01 268.36 186.63 C 268.00 187.07 267.28 187.96 266.92 188.40 C 268.72 181.26 255.83 181.40 256.95 188.00 C 253.37 190.90 255.49 183.03 252.40 184.27 C 251.81 187.46 248.00 185.21 249.72 182.85 C 246.19 183.24 241.86 184.44 242.79 188.95 M 231.22 186.16 C 228.46 188.31 225.69 196.03 231.73 193.90 C 231.20 191.01 236.78 184.63 231.22 186.16 Z" />
</g>
<g id="#9194a2ff">
<path fill="#9194a2" opacity="1.00" d=" M 219.87 182.05 C 213.90 182.85 217.22 174.41 221.98 176.22 C 225.64 178.38 221.63 180.39 219.87 182.05 Z" />
</g>
<g id="#2b2c31fd">
<path fill="#2b2c31" opacity="1.00" d=" M 158.51 177.11 C 161.10 178.07 161.70 181.52 163.55 183.45 C 165.90 184.50 168.76 184.50 170.78 186.22 C 170.59 188.88 170.59 191.86 169.24 194.18 C 163.55 194.86 162.44 203.76 155.53 200.86 C 155.03 195.67 148.14 194.48 143.91 195.77 C 146.84 190.92 140.15 187.76 140.00 182.95 C 141.23 183.75 142.49 184.53 143.78 185.25 C 145.50 186.26 147.28 187.19 149.03 188.15 C 151.55 190.36 154.78 188.28 154.05 185.06 C 150.79 178.74 158.33 181.46 158.51 177.11 Z" />
</g>
<g id="#585d6eff">
<path fill="#585d6e" opacity="1.00" d=" M 175.18 178.83 C 176.40 178.96 177.62 179.08 178.84 179.20 C 180.39 184.08 183.27 180.35 185.86 178.84 C 185.86 181.55 185.80 184.26 185.78 186.97 C 182.10 187.80 180.17 183.87 177.51 182.11 C 176.69 181.05 175.85 180.00 175.18 178.83 Z" />
</g>
<g id="#565969ff">
<path fill="#565969" opacity="1.00" d=" M 242.79 188.95 C 241.86 184.44 246.19 183.24 249.72 182.85 C 248.00 185.21 251.81 187.46 252.40 184.27 C 255.49 183.03 253.37 190.90 256.95 188.00 C 259.03 191.88 253.86 196.83 259.72 198.30 C 259.92 203.79 256.63 200.88 255.94 197.20 C 252.05 198.52 245.03 200.90 243.92 195.01 C 242.94 192.34 241.33 195.34 241.84 197.06 C 239.75 192.34 237.39 196.05 234.00 197.11 C 232.68 192.21 236.50 188.70 239.73 185.89 C 239.68 188.10 240.30 189.74 242.79 188.95 Z" />
</g>
<g id="#5a5c69ff">
<path fill="#5a5c69" opacity="1.00" d=" M 256.95 188.00 C 255.83 181.40 268.72 181.26 266.92 188.40 C 265.79 191.83 260.04 185.20 256.95 188.00 Z" />
</g>
<g id="#535767ff">
<path fill="#535767" opacity="1.00" d=" M 231.22 186.16 C 236.78 184.63 231.20 191.01 231.73 193.90 C 225.69 196.03 228.46 188.31 231.22 186.16 Z" />
</g>
<g id="#62626bff">
<path fill="#62626b" opacity="1.00" d=" M 268.36 186.63 C 270.22 183.01 280.01 190.35 275.67 194.68 C 273.48 198.88 264.95 200.25 263.12 196.52 C 266.09 195.25 269.12 195.23 271.88 196.99 C 275.28 193.33 273.48 187.24 268.36 186.63 Z" />
</g>
<g id="#7c7d89ff">
<path fill="#7c7d89" opacity="1.00" d=" M 256.95 188.00 C 260.04 185.20 265.79 191.83 266.92 188.40 C 267.28 187.96 268.00 187.07 268.36 186.63 C 273.48 187.24 275.28 193.33 271.88 196.99 C 269.12 195.23 266.09 195.25 263.12 196.52 C 261.84 196.77 260.84 197.69 259.72 198.30 C 253.86 196.83 259.03 191.88 256.95 188.00 Z" />
</g>
<g id="#00000055">
<path fill="#000000" opacity="0.33" d=" M 0.00 191.20 C 23.07 193.78 45.70 199.74 68.96 201.11 C 88.74 202.07 108.40 204.45 128.16 205.69 C 132.60 205.86 139.31 206.91 140.01 200.87 C 139.92 203.23 139.70 205.61 138.85 207.84 L 138.45 208.50 C 109.40 208.02 80.09 203.53 51.04 207.14 C 50.39 210.38 54.15 209.87 56.21 209.76 C 81.17 220.42 109.20 220.97 134.61 230.49 C 137.73 231.42 140.81 232.45 143.99 233.16 C 144.05 233.60 144.18 234.49 144.24 234.93 C 97.13 221.04 47.76 217.65 0.00 206.73 L 0.00 191.20 Z" />
</g>
<g id="#8f9396ff">
<path fill="#8f9396" opacity="1.00" d=" M 218.17 194.95 C 223.57 197.00 218.39 202.38 217.99 205.03 C 210.02 207.19 218.63 198.80 218.17 194.95 Z" />
</g>
<g id="#5f6466fe">
<path fill="#5f6466" opacity="1.00" d=" M 206.48 196.75 C 207.34 199.56 206.10 202.46 205.02 205.03 C 206.84 207.07 207.04 211.14 203.99 211.98 C 201.01 212.13 200.24 214.55 202.20 216.67 C 204.08 223.26 211.14 212.10 212.79 217.82 C 208.29 220.30 202.95 219.53 198.23 218.04 C 195.91 220.80 198.31 221.82 200.95 222.44 C 199.67 224.29 194.25 228.52 198.95 228.99 C 201.93 228.34 199.06 233.34 201.97 232.95 C 206.26 232.41 200.84 228.45 203.19 226.27 C 208.00 223.85 214.15 225.97 218.60 222.78 C 220.82 223.65 227.21 221.74 226.90 225.70 C 225.41 226.32 223.86 226.78 222.36 227.36 C 222.13 229.38 224.33 232.96 221.37 233.43 C 219.60 235.09 216.42 230.16 216.71 233.78 C 217.22 237.51 212.27 238.95 212.93 242.80 C 216.32 241.95 223.23 245.10 223.94 240.25 C 214.45 239.71 228.56 235.59 227.72 230.47 C 231.24 228.82 234.38 223.99 228.03 224.80 C 230.11 221.76 231.54 218.58 228.78 215.40 C 230.06 214.33 231.34 213.24 232.67 212.22 C 234.05 212.02 235.38 211.59 236.70 211.17 C 237.28 214.30 240.96 213.03 242.10 210.99 C 241.88 217.19 240.00 223.17 237.52 228.81 C 232.22 227.63 227.51 235.14 232.92 237.19 C 231.43 238.48 229.84 239.68 228.52 241.16 C 228.00 241.95 227.83 242.87 228.02 243.91 C 229.58 246.51 223.52 256.86 229.88 254.93 C 231.61 254.79 231.13 252.16 231.95 250.93 C 233.15 251.68 234.32 252.61 235.79 252.74 C 241.02 253.31 232.77 255.77 233.56 258.52 C 237.20 270.45 228.04 255.15 228.29 262.92 C 228.04 266.47 223.65 269.43 226.20 272.92 C 228.83 273.77 229.91 271.18 231.26 269.51 C 233.05 269.27 236.08 265.99 236.70 267.73 C 236.08 273.05 226.66 275.53 230.53 280.70 C 228.83 281.71 227.03 282.61 225.60 284.03 C 221.29 288.85 214.15 288.45 209.20 292.48 C 205.58 289.08 202.47 284.21 204.03 278.87 C 206.79 281.31 212.97 276.07 210.23 284.01 C 214.22 282.06 216.02 273.05 209.21 272.86 C 208.35 269.72 211.39 269.29 212.06 266.95 C 208.35 265.63 207.69 269.94 205.11 271.26 C 206.17 268.85 206.35 266.40 205.10 264.04 C 205.52 260.74 209.25 261.43 211.66 261.69 C 215.07 259.44 215.77 253.02 220.85 256.10 C 220.54 259.91 217.43 262.00 214.30 263.51 C 213.58 267.40 216.90 269.81 218.30 272.99 C 221.94 270.88 225.03 266.66 220.97 264.32 C 218.07 266.84 217.01 265.25 219.99 262.98 C 222.87 260.49 224.36 256.59 225.05 252.93 C 229.55 244.29 214.53 244.43 216.97 251.96 C 216.96 256.49 210.22 253.32 212.29 249.48 C 206.61 247.65 213.00 238.88 206.19 238.88 C 206.89 241.68 207.41 244.53 203.66 244.73 C 205.32 250.71 200.33 248.51 195.95 247.19 C 198.27 251.91 201.12 259.00 195.15 262.20 C 191.76 265.06 197.73 263.37 199.58 263.57 C 200.20 266.23 198.27 269.63 201.06 271.47 C 198.39 273.42 194.81 274.14 191.66 273.32 C 189.82 272.84 188.84 269.45 186.81 270.78 C 178.72 273.82 169.61 270.11 163.99 263.97 C 159.23 256.58 161.73 245.51 170.10 241.93 C 174.24 244.62 178.55 246.97 183.06 248.97 C 178.61 249.74 176.02 253.67 174.98 257.85 C 173.42 261.43 171.35 264.85 171.95 269.00 C 178.43 269.24 183.25 264.27 188.88 261.79 C 189.26 259.33 184.87 260.27 186.26 257.18 C 186.38 254.61 185.74 251.99 184.40 249.80 C 189.98 250.27 185.96 246.77 183.66 245.03 C 186.28 240.54 190.20 247.86 193.92 247.02 C 196.79 246.85 195.51 243.65 195.21 241.87 C 198.94 247.32 202.66 237.28 199.80 234.35 C 197.88 231.49 194.07 230.50 190.79 231.01 C 192.22 233.21 194.41 235.34 192.98 238.14 C 188.62 234.05 184.73 236.03 180.17 238.06 C 179.52 233.82 183.59 229.10 188.03 229.92 C 198.81 231.50 190.18 228.30 187.82 226.80 C 190.93 224.29 189.17 222.11 186.22 220.64 C 185.33 217.05 193.16 217.51 190.60 213.36 C 188.63 207.59 198.26 213.03 199.53 207.65 C 205.08 208.81 203.19 204.38 202.52 200.87 C 200.44 205.12 196.51 207.82 193.17 202.73 C 191.17 193.19 207.14 203.41 206.48 196.75 M 209.19 227.15 C 207.43 228.22 207.74 236.54 210.20 233.17 C 212.14 230.18 218.42 231.90 217.01 226.95 C 213.55 227.32 211.51 229.44 209.19 227.15 Z" />
</g>
<g id="#57585fff">
<path fill="#57585f" opacity="1.00" d=" M 144.22 198.22 C 146.20 198.55 148.21 199.01 150.16 198.26 C 150.48 201.86 148.77 205.11 146.80 207.94 C 141.43 209.11 139.87 200.48 144.22 198.22 Z" />
</g>
<g id="#212123c2">
<path fill="#212123" opacity="0.76" d=" M 248.05 206.04 C 253.24 204.14 258.87 205.43 264.24 205.25 C 258.89 206.23 253.44 205.87 248.05 206.04 Z" />
</g>
<g id="#00000068">
<path fill="#000000" opacity="0.41" d=" M 51.04 207.14 C 80.09 203.53 109.40 208.02 138.45 208.50 C 132.48 215.11 118.66 208.83 109.99 209.96 C 106.20 210.56 98.31 209.66 99.01 214.86 C 113.25 221.92 129.00 225.42 143.82 231.14 C 143.86 231.65 143.95 232.66 143.99 233.16 C 140.81 232.45 137.73 231.42 134.61 230.49 C 109.20 220.97 81.17 220.42 56.21 209.76 C 54.15 209.87 50.39 210.38 51.04 207.14 Z" />
</g>
<g id="#0101017f">
<path fill="#010101" opacity="0.50" d=" M 138.45 208.50 L 138.85 207.84 C 139.87 215.85 145.29 222.52 143.82 231.14 C 129.00 225.42 113.25 221.92 99.01 214.86 C 98.31 209.66 106.20 210.56 109.99 209.96 C 118.66 208.83 132.48 215.11 138.45 208.50 Z" />
</g>
<g id="#60687aff">
<path fill="#60687a" opacity="1.00" d=" M 176.23 208.13 C 180.93 206.55 182.30 217.33 177.64 217.66 C 169.18 220.42 172.68 210.79 176.23 208.13 Z" />
</g>
<g id="#8e9493ff">
<path fill="#8e9493" opacity="1.00" d=" M 228.78 215.40 C 222.32 213.03 232.07 202.41 233.21 211.35 L 232.67 212.22 C 231.34 213.24 230.06 214.33 228.78 215.40 Z" />
</g>
<g id="#8b8c8afc">
<path fill="#8b8c8a" opacity="1.00" d=" M 236.70 211.17 C 238.68 209.83 240.67 207.14 243.30 208.70 C 243.00 209.27 242.40 210.42 242.10 210.99 C 240.96 213.03 237.28 214.30 236.70 211.17 Z" />
</g>
<g id="#00000034">
<path fill="#000000" opacity="0.20" d=" M 0.00 213.85 C 41.77 220.84 84.51 222.79 125.63 233.48 C 133.09 236.76 142.64 235.92 147.97 243.08 C 147.36 246.94 146.59 250.78 147.27 254.73 C 146.68 252.75 145.83 250.91 144.74 249.22 C 133.39 246.59 120.92 247.76 110.80 241.20 C 90.79 234.40 70.68 226.95 48.93 226.05 C 36.27 224.19 23.41 224.63 10.76 222.68 C 7.04 222.02 3.44 222.91 0.00 224.30 L 0.00 213.85 Z" />
</g>
<g id="#898d99ff">
<path fill="#898d99" opacity="1.00" d=" M 209.19 227.15 C 211.51 229.44 213.55 227.32 217.01 226.95 C 218.42 231.90 212.14 230.18 210.20 233.17 C 207.74 236.54 207.43 228.22 209.19 227.15 Z" />
</g>
<g id="#83838bf6">
<path fill="#83838b" opacity="0.96" d=" M 232.92 237.19 C 227.51 235.14 232.22 227.63 237.52 228.81 C 236.43 231.80 235.11 234.85 232.92 237.19 Z" />
</g>
<g id="#878692ff">
<path fill="#878692" opacity="1.00" d=" M 190.79 231.01 C 194.07 230.50 197.88 231.49 199.80 234.35 C 202.66 237.28 198.94 247.32 195.21 241.87 C 194.50 240.60 193.75 239.37 192.98 238.14 C 194.41 235.34 192.22 233.21 190.79 231.01 Z" />
</g>
<g id="#5f694bff">
<path fill="#5f694b" opacity="1.00" d=" M 180.17 238.06 C 184.73 236.03 188.62 234.05 192.98 238.14 C 193.75 239.37 194.50 240.60 195.21 241.87 C 195.51 243.65 196.79 246.85 193.92 247.02 C 190.20 247.86 186.28 240.54 183.66 245.03 C 182.34 242.79 181.29 240.40 180.17 238.06 Z" />
</g>
<g id="#75797dff">
<path fill="#75797d" opacity="1.00" d=" M 206.19 238.88 C 213.00 238.88 206.61 247.65 212.29 249.48 C 210.22 253.32 216.96 256.49 216.97 251.96 C 218.72 255.24 222.24 253.39 225.05 252.93 C 224.36 256.59 222.87 260.49 219.99 262.98 C 217.01 265.25 218.07 266.84 220.97 264.32 C 225.03 266.66 221.94 270.88 218.30 272.99 C 216.90 269.81 213.58 267.40 214.30 263.51 C 217.43 262.00 220.54 259.91 220.85 256.10 C 215.77 253.02 215.07 259.44 211.66 261.69 C 209.25 261.43 205.52 260.74 205.10 264.04 C 206.35 266.40 206.17 268.85 205.11 271.26 C 203.91 272.01 202.38 271.35 201.06 271.47 C 198.27 269.63 200.20 266.23 199.58 263.57 C 197.73 263.37 191.76 265.06 195.15 262.20 C 201.12 259.00 198.27 251.91 195.95 247.19 C 200.33 248.51 205.32 250.71 203.66 244.73 C 207.41 244.53 206.89 241.68 206.19 238.88 M 202.21 252.14 C 200.47 253.10 200.53 255.90 202.21 256.90 C 205.91 258.04 206.41 249.77 202.21 252.14 Z" />
</g>
<g id="#1b1b1d7a">
<path fill="#1b1b1d" opacity="0.48" d=" M 228.02 243.91 C 227.83 242.87 228.00 241.95 228.52 241.16 C 229.52 242.55 231.22 242.97 232.81 243.30 C 231.37 244.16 229.63 244.28 228.02 243.91 Z" />
</g>
<g id="#25262df3">
<path fill="#25262d" opacity="0.95" d=" M 232.81 243.30 C 242.46 240.75 253.27 241.32 263.33 241.73 C 255.72 244.89 246.65 245.51 238.66 244.60 C 235.69 245.75 233.65 248.36 231.95 250.93 C 231.13 252.16 231.61 254.79 229.88 254.93 C 223.52 256.86 229.58 246.51 228.02 243.91 C 229.63 244.28 231.37 244.16 232.81 243.30 Z" />
</g>
<g id="#4f505afc">
<path fill="#4f505a" opacity="1.00" d=" M 238.66 244.60 C 246.65 245.51 255.72 244.89 263.33 241.73 C 270.16 241.86 266.81 250.96 261.06 250.02 C 257.54 250.74 254.10 251.85 250.99 253.67 C 250.80 254.27 250.42 255.48 250.23 256.08 C 245.89 256.86 247.29 251.62 246.43 248.92 C 242.68 249.36 238.95 250.66 235.79 252.74 C 234.32 252.61 233.15 251.68 231.95 250.93 C 233.65 248.36 235.69 245.75 238.66 244.60 Z" />
</g>
<g id="#96969fff">
<path fill="#96969f" opacity="1.00" d=" M 216.97 251.96 C 214.53 244.43 229.55 244.29 225.05 252.93 C 222.24 253.39 218.72 255.24 216.97 251.96 Z" />
</g>
<g id="#899079ff">
<path fill="#899079" opacity="1.00" d=" M 174.98 257.85 C 176.02 253.67 178.61 249.74 183.06 248.97 C 183.40 249.18 184.07 249.59 184.40 249.80 C 185.74 251.99 186.38 254.61 186.26 257.18 C 182.74 260.10 178.89 259.34 174.98 257.85 Z" />
</g>
<g id="#75777dff">
<path fill="#75777d" opacity="1.00" d=" M 235.79 252.74 C 238.95 250.66 242.68 249.36 246.43 248.92 C 247.29 251.62 245.89 256.86 250.23 256.08 C 249.12 259.70 246.34 262.18 249.92 265.47 C 245.91 266.31 244.91 271.13 241.10 272.30 C 243.37 268.79 245.35 262.49 240.06 260.91 C 240.23 264.03 242.46 270.15 236.86 268.91 L 236.70 267.73 C 236.08 265.99 233.05 269.27 231.26 269.51 C 232.42 266.55 232.59 262.46 228.29 262.92 C 228.04 255.15 237.20 270.45 233.56 258.52 C 232.77 255.77 241.02 253.31 235.79 252.74 Z" />
</g>
<g id="#2a2a30ee">
<path fill="#2a2a30" opacity="0.93" d=" M 250.99 253.67 C 254.10 251.85 257.54 250.74 261.06 250.02 C 256.38 254.68 269.00 258.90 263.39 265.21 C 265.42 258.18 254.47 256.41 252.34 262.49 C 248.28 264.86 252.74 258.67 251.04 256.48 C 253.43 256.47 253.50 253.43 250.99 253.67 Z" />
</g>
<g id="#a1a5a1ff">
<path fill="#a1a5a1" opacity="1.00" d=" M 202.21 252.14 C 206.41 249.77 205.91 258.04 202.21 256.90 C 200.53 255.90 200.47 253.10 202.21 252.14 Z" />
</g>
<g id="#0d0d0e6e">
<path fill="#0d0d0e" opacity="0.43" d=" M 250.23 256.08 C 250.42 255.48 250.80 254.27 250.99 253.67 C 253.50 253.43 253.43 256.47 251.04 256.48 L 250.23 256.08 Z" />
</g>
<g id="#5a5d60fb">
<path fill="#5a5d60" opacity="1.00" d=" M 250.23 256.08 L 251.04 256.48 C 252.74 258.67 248.28 264.86 252.34 262.49 C 254.47 256.41 265.42 258.18 263.39 265.21 C 261.25 268.67 255.61 267.83 252.36 270.40 C 251.65 273.15 252.55 276.58 250.13 278.57 C 247.49 278.41 248.93 274.27 246.62 274.44 C 242.30 273.36 243.47 279.49 243.06 282.15 C 242.67 283.49 241.15 284.00 240.03 284.58 C 237.94 281.54 238.82 278.28 240.06 275.17 C 237.95 274.00 238.41 275.80 238.62 277.26 C 232.55 276.17 243.99 268.00 237.11 270.69 C 237.05 270.24 236.92 269.35 236.86 268.91 C 242.46 270.15 240.23 264.03 240.06 260.91 C 245.35 262.49 243.37 268.79 241.10 272.30 C 244.91 271.13 245.91 266.31 249.92 265.47 C 246.34 262.18 249.12 259.70 250.23 256.08 Z" />
</g>
<g id="#6f7847ff">
<path fill="#6f7847" opacity="1.00" d=" M 174.98 257.85 C 178.89 259.34 182.74 260.10 186.26 257.18 C 184.87 260.27 189.26 259.33 188.88 261.79 C 183.25 264.27 178.43 269.24 171.95 269.00 C 171.35 264.85 173.42 261.43 174.98 257.85 Z" />
</g>
<g id="#2a2c35f7">
<path fill="#2a2c35" opacity="0.97" d=" M 150.70 264.11 C 153.82 262.59 158.42 262.22 160.55 265.42 C 164.59 271.99 172.09 276.24 179.57 277.31 C 178.80 279.98 181.63 285.91 177.44 285.85 C 177.83 281.89 169.84 281.02 169.64 285.12 C 169.23 278.09 165.51 272.05 158.51 269.99 C 155.53 268.57 152.76 266.74 150.70 264.11 Z" />
</g>
<g id="#909299ff">
<path fill="#909299" opacity="1.00" d=" M 228.29 262.92 C 232.59 262.46 232.42 266.55 231.26 269.51 C 229.91 271.18 228.83 273.77 226.20 272.92 C 223.65 269.43 228.04 266.47 228.29 262.92 Z" />
</g>
<g id="#454950f7">
<path fill="#454950" opacity="0.97" d=" M 230.53 280.70 C 226.66 275.53 236.08 273.05 236.70 267.73 L 236.86 268.91 C 236.92 269.35 237.05 270.24 237.11 270.69 C 243.99 268.00 232.55 276.17 238.62 277.26 C 238.41 275.80 237.95 274.00 240.06 275.17 C 238.82 278.28 237.94 281.54 240.03 284.58 C 234.68 283.45 230.06 289.95 225.60 284.03 C 227.03 282.61 228.83 281.71 230.53 280.70 Z" />
</g>
<g id="#767881ff">
<path fill="#767881" opacity="1.00" d=" M 197.73 275.96 C 200.94 272.66 205.87 276.27 209.21 272.86 C 216.02 273.05 214.22 282.06 210.23 284.01 C 212.97 276.07 206.79 281.31 204.03 278.87 C 201.54 276.99 200.75 281.10 199.07 282.30 C 198.34 280.25 197.95 278.11 197.73 275.96 Z" />
</g>
<g id="#3b3e40eb">
<path fill="#3b3e40" opacity="0.92" d=" M 243.06 282.15 C 243.47 279.49 242.30 273.36 246.62 274.44 C 248.93 274.27 247.49 278.41 250.13 278.57 C 246.01 277.21 243.58 278.30 243.06 282.15 Z" />
</g>
<g id="#51574dff">
<path fill="#51574d" opacity="1.00" d=" M 181.09 277.23 C 184.10 274.86 188.79 278.31 192.23 277.33 C 185.68 277.66 191.12 284.82 195.20 284.43 C 192.87 284.81 190.68 286.60 188.41 286.49 C 185.89 283.42 179.64 282.18 181.09 277.23 Z" />
</g>
<g id="#717a4aff">
<path fill="#717a4a" opacity="1.00" d=" M 192.23 277.33 C 194.10 277.04 196.00 276.78 197.73 275.96 C 197.95 278.11 198.34 280.25 199.07 282.30 C 198.17 283.61 196.64 284.04 195.20 284.43 C 191.12 284.82 185.68 277.66 192.23 277.33 Z" />
</g>
</svg>
