<?xml version="1.0" encoding="UTF-8" ?>
<!DOCTYPE svg PUBLIC "-//W3C//DTD SVG 1.1//EN" "http://www.w3.org/Graphics/SVG/1.1/DTD/svg11.dtd">
<svg width="384pt" height="384pt" viewBox="0 0 384 384" version="1.1" xmlns="http://www.w3.org/2000/svg">
<g id="#00000010">
<path fill="#000000" opacity="0.06" d=" M 0.00 35.12 C 1.65 34.35 4.28 30.74 5.58 33.38 C 6.84 35.97 9.67 32.24 11.70 33.24 C 14.93 34.30 13.65 38.98 16.92 40.17 C 16.08 30.27 27.35 35.22 32.46 37.47 C 36.22 37.71 39.95 35.44 43.75 35.14 C 47.08 37.24 39.68 44.53 48.94 41.28 C 54.50 43.23 59.36 41.14 63.86 38.15 C 65.77 39.63 66.81 41.89 68.41 43.66 C 71.91 44.65 76.62 39.84 79.15 43.84 C 82.31 49.89 93.22 37.96 94.43 45.94 C 97.59 45.99 100.89 42.25 103.63 45.41 C 109.18 52.27 119.31 43.10 124.47 49.56 C 133.04 49.77 141.04 53.88 149.67 53.48 C 153.62 53.44 153.99 62.24 157.19 58.11 C 162.27 58.12 167.88 64.55 172.01 59.21 C 174.95 63.32 180.60 62.14 184.77 64.23 C 188.19 66.92 192.49 59.56 195.09 63.94 C 197.22 67.21 198.62 57.49 202.46 62.72 C 209.52 65.03 216.59 67.33 223.77 69.26 C 223.11 72.20 219.05 77.92 226.00 76.45 C 230.35 82.80 236.55 89.38 234.11 97.77 C 238.46 100.38 243.78 101.64 246.90 106.02 C 246.42 105.92 245.46 105.73 244.98 105.64 C 239.40 105.82 235.47 101.80 231.28 98.85 C 229.20 94.70 224.17 93.56 219.89 93.82 C 218.46 94.38 217.21 95.29 215.95 96.15 C 214.39 95.88 212.81 95.74 211.24 95.87 C 208.98 93.20 206.29 95.56 203.77 96.42 C 193.39 95.90 187.92 86.85 178.99 83.16 C 174.85 79.18 168.22 84.18 164.31 79.70 C 159.93 75.45 152.98 78.47 148.71 74.28 C 146.26 70.77 141.14 77.56 139.23 73.98 C 135.90 66.90 124.82 69.79 118.29 67.80 C 111.77 64.39 104.20 65.86 97.35 63.59 C 93.50 62.20 89.33 66.57 85.91 63.41 C 83.14 65.80 80.64 63.38 78.01 62.09 C 68.57 68.26 57.00 67.46 46.37 68.57 C 42.52 66.43 44.70 75.55 41.23 71.99 C 45.97 66.65 35.69 67.44 37.74 72.74 C 34.85 72.03 30.69 69.12 29.27 73.31 C 27.40 79.02 20.60 70.35 19.17 76.14 C 17.86 82.02 12.22 75.68 8.46 76.10 C 7.72 80.23 1.80 77.83 0.00 82.29 L 0.00 35.12 Z" />
</g>
<g id="#00000018">
<path fill="#000000" opacity="0.09" d=" M 46.37 68.57 C 57.00 67.46 68.57 68.26 78.01 62.09 C 80.64 63.38 83.14 65.80 85.91 63.41 C 89.33 66.57 93.50 62.20 97.35 63.59 C 104.20 65.86 111.77 64.39 118.29 67.80 C 124.82 69.79 135.90 66.90 139.23 73.98 C 141.14 77.56 146.26 70.77 148.71 74.28 C 152.98 78.47 159.93 75.45 164.31 79.70 C 168.22 84.18 174.85 79.18 178.99 83.16 C 187.92 86.85 193.39 95.90 203.77 96.42 C 206.29 95.56 208.98 93.20 211.24 95.87 L 211.11 96.59 C 209.39 96.99 207.68 97.40 205.99 97.87 C 204.21 97.92 200.67 98.00 198.89 98.05 C 197.02 98.05 195.04 98.16 193.72 99.67 C 188.91 104.19 182.01 105.54 177.77 110.74 C 175.68 113.37 172.23 113.94 169.07 113.54 C 159.28 117.86 156.06 106.78 148.48 104.43 C 145.16 98.54 134.37 101.66 130.47 98.25 C 133.76 94.02 128.80 93.26 126.08 95.99 C 123.06 91.96 115.79 94.23 118.95 87.83 C 115.41 88.68 113.95 93.66 109.49 91.85 C 108.49 85.29 99.76 85.20 97.28 91.10 C 98.38 85.63 93.09 88.74 90.70 85.57 C 82.78 87.41 74.47 86.77 66.48 88.56 C 59.80 91.19 52.65 93.46 45.38 92.43 C 44.77 93.50 44.24 94.62 43.64 95.70 C 34.92 91.76 26.60 99.73 18.16 100.65 C 13.48 99.11 9.85 103.58 5.26 103.43 C 7.23 109.18 3.37 105.14 0.00 105.67 L 0.00 82.29 C 1.80 77.83 7.72 80.23 8.46 76.10 C 12.22 75.68 17.86 82.02 19.17 76.14 C 20.60 70.35 27.40 79.02 29.27 73.31 C 30.69 69.12 34.85 72.03 37.74 72.74 C 35.69 67.44 45.97 66.65 41.23 71.99 C 44.70 75.55 42.52 66.43 46.37 68.57 Z" />
</g>
<g id="#00000020">
<path fill="#000000" opacity="0.13" d=" M 66.48 88.56 C 74.47 86.77 82.78 87.41 90.70 85.57 C 93.09 88.74 98.38 85.63 97.28 91.10 C 99.76 85.20 108.49 85.29 109.49 91.85 C 113.95 93.66 115.41 88.68 118.95 87.83 C 115.79 94.23 123.06 91.96 126.08 95.99 C 128.80 93.26 133.76 94.02 130.47 98.25 C 134.37 101.66 145.16 98.54 148.48 104.43 C 156.06 106.78 159.28 117.86 169.07 113.54 C 166.89 114.37 164.55 115.09 162.86 116.78 C 162.55 117.07 161.94 117.64 161.63 117.93 C 160.49 118.99 159.38 120.10 158.09 120.98 C 144.64 127.50 131.50 118.61 118.00 117.34 C 107.38 116.56 96.87 116.32 86.35 113.52 C 71.88 114.25 56.87 115.14 43.10 120.12 C 41.07 123.11 35.61 119.24 35.58 123.84 C 31.43 120.36 27.83 124.25 23.73 125.50 C 15.67 124.56 7.63 128.29 0.00 124.63 L 0.00 105.67 C 3.37 105.14 7.23 109.18 5.26 103.43 C 9.85 103.58 13.48 99.11 18.16 100.65 C 26.60 99.73 34.92 91.76 43.64 95.70 C 44.24 94.62 44.77 93.50 45.38 92.43 C 52.65 93.46 59.80 91.19 66.48 88.56 Z" />
</g>
<g id="#494f58fe">
<path fill="#494f58" opacity="1.00" d=" M 215.95 96.15 C 217.21 95.29 218.46 94.38 219.89 93.82 C 217.52 99.26 228.58 97.10 231.28 98.85 C 235.47 101.80 239.40 105.82 244.98 105.64 C 241.23 109.16 250.67 110.76 246.86 113.93 C 243.11 112.88 239.38 111.80 235.51 111.38 C 234.33 107.72 230.37 106.85 228.11 110.16 C 227.28 112.06 224.43 111.69 225.45 109.39 C 227.39 105.13 222.79 102.79 220.64 99.85 C 218.10 104.38 222.18 108.07 219.63 112.65 C 216.53 117.17 209.86 116.65 205.04 118.35 C 204.72 121.14 207.77 121.09 209.73 120.86 C 211.91 122.33 216.05 128.42 214.11 119.45 C 219.39 118.09 219.64 122.38 215.87 125.06 C 214.71 131.72 208.21 134.55 201.29 132.90 C 202.14 126.21 196.08 131.00 192.39 130.83 C 190.88 128.42 190.35 124.61 187.02 124.10 C 181.18 125.18 179.67 132.03 176.45 136.23 C 175.37 134.05 174.97 131.17 172.25 130.49 C 172.91 128.59 174.22 126.72 172.95 124.75 C 175.86 122.73 180.80 122.47 178.30 117.81 C 180.97 120.57 187.92 119.88 183.02 116.07 C 184.97 110.84 192.10 114.29 193.03 108.35 C 186.69 108.25 194.93 103.53 193.72 99.67 C 195.04 98.16 197.02 98.05 198.89 98.05 C 201.22 99.34 204.62 100.88 205.99 97.87 C 207.68 97.40 209.39 96.99 211.11 96.59 C 212.63 97.52 214.69 97.52 215.95 96.15 Z" />
</g>
<g id="#666b7ef1">
<path fill="#666b7e" opacity="0.95" d=" M 219.89 93.82 C 224.17 93.56 229.20 94.70 231.28 98.85 C 228.58 97.10 217.52 99.26 219.89 93.82 Z" />
</g>
<g id="#22242990">
<path fill="#222429" opacity="0.56" d=" M 211.24 95.87 C 212.81 95.74 214.39 95.88 215.95 96.15 C 214.69 97.52 212.63 97.52 211.11 96.59 L 211.24 95.87 Z" />
</g>
<g id="#1b1e2488">
<path fill="#1b1e24" opacity="0.53" d=" M 198.89 98.05 C 200.67 98.00 204.21 97.92 205.99 97.87 C 204.62 100.88 201.22 99.34 198.89 98.05 Z" />
</g>
<g id="#373a45f9">
<path fill="#373a45" opacity="0.98" d=" M 177.77 110.74 C 182.01 105.54 188.91 104.19 193.72 99.67 C 194.93 103.53 186.69 108.25 193.03 108.35 C 192.10 114.29 184.97 110.84 183.02 116.07 C 181.35 116.47 176.91 114.74 178.30 117.81 C 180.80 122.47 175.86 122.73 172.95 124.75 C 169.30 127.79 169.54 123.72 170.97 121.05 C 176.70 116.73 166.23 116.90 162.86 116.78 C 164.55 115.09 166.89 114.37 169.07 113.54 C 172.23 113.94 175.68 113.37 177.77 110.74 Z" />
</g>
<g id="#6a6e74ff">
<path fill="#6a6e74" opacity="1.00" d=" M 220.64 99.85 C 222.79 102.79 227.39 105.13 225.45 109.39 C 224.43 111.69 227.28 112.06 228.11 110.16 C 230.37 106.85 234.33 107.72 235.51 111.38 C 239.38 111.80 243.11 112.88 246.86 113.93 C 250.67 110.76 241.23 109.16 244.98 105.64 C 245.46 105.73 246.42 105.92 246.90 106.02 C 247.95 107.14 249.08 108.19 250.32 109.11 C 249.89 113.98 253.88 114.53 257.98 114.87 C 257.93 117.69 257.89 120.51 257.87 123.33 C 251.20 121.48 251.59 126.89 251.81 132.21 C 251.45 130.83 250.71 128.05 250.35 126.67 C 251.08 131.64 248.88 135.95 246.97 140.27 C 242.41 135.86 240.34 130.82 240.10 124.89 C 242.94 124.96 243.97 130.79 246.29 127.29 C 250.09 121.24 241.78 119.86 237.93 117.88 C 237.86 120.41 239.19 122.61 240.10 124.89 C 237.78 123.74 236.04 119.15 233.18 121.15 C 230.49 123.26 227.56 120.01 226.73 117.51 C 221.88 120.26 212.47 113.17 209.73 120.86 C 207.77 121.09 204.72 121.14 205.04 118.35 C 209.86 116.65 216.53 117.17 219.63 112.65 C 222.18 108.07 218.10 104.38 220.64 99.85 Z" />
</g>
<g id="#6e7982f8">
<path fill="#6e7982" opacity="0.97" d=" M 268.44 101.79 C 274.61 97.98 279.15 104.37 282.19 109.11 C 281.87 112.66 274.48 115.28 274.59 110.54 C 277.04 103.59 269.29 106.50 268.44 101.79 Z" />
</g>
<g id="#3f4247f8">
<path fill="#3f4247" opacity="0.97" d=" M 250.32 109.11 C 256.73 106.37 264.32 108.23 268.44 101.79 C 269.29 106.50 277.04 103.59 274.59 110.54 C 274.48 115.28 281.87 112.66 282.19 109.11 C 283.32 111.43 285.15 113.20 287.09 114.85 C 284.81 114.21 279.38 112.73 280.14 116.77 C 283.37 119.73 290.13 123.58 288.05 115.99 C 289.64 120.28 296.51 119.32 295.68 125.30 C 297.05 126.22 298.59 126.89 299.89 127.93 C 297.45 129.04 295.01 130.34 292.30 130.58 C 289.26 126.62 284.57 122.88 280.00 127.19 C 279.47 131.69 282.95 135.38 286.99 132.03 C 291.26 134.85 304.08 139.57 301.37 129.72 C 303.92 132.23 304.06 137.13 301.12 139.42 C 299.18 138.49 296.98 138.56 295.00 139.30 C 294.52 138.94 293.54 138.22 293.05 137.85 C 290.99 135.94 287.51 135.49 285.87 137.85 C 283.51 138.44 281.20 139.21 278.85 139.85 C 280.62 135.41 272.10 129.07 278.39 124.47 C 281.73 127.62 282.60 121.64 286.19 122.57 C 283.60 120.90 280.60 120.07 277.83 118.77 C 276.53 113.26 270.26 119.61 267.72 116.57 C 276.18 113.67 267.31 103.41 261.58 109.74 C 260.09 111.19 260.06 113.69 257.98 114.87 C 253.88 114.53 249.89 113.98 250.32 109.11 Z" />
</g>
<g id="#747f54ff">
<path fill="#747f54" opacity="1.00" d=" M 261.58 109.74 C 267.31 103.41 276.18 113.67 267.72 116.57 C 265.27 114.67 262.98 112.55 261.58 109.74 Z" />
</g>
<g id="#51565fff">
<path fill="#51565f" opacity="1.00" d=" M 257.98 114.87 C 260.06 113.69 260.09 111.19 261.58 109.74 C 262.98 112.55 265.27 114.67 267.72 116.57 C 270.26 119.61 276.53 113.26 277.83 118.77 C 275.80 120.02 277.01 121.46 278.09 122.90 C 272.14 125.18 265.16 122.20 260.89 117.89 C 261.30 122.37 264.24 126.35 263.90 130.92 C 263.01 131.32 262.12 131.72 261.22 132.11 C 261.54 128.72 259.71 125.96 257.87 123.33 C 257.89 120.51 257.93 117.69 257.98 114.87 Z" />
</g>
<g id="#0000002b">
<path fill="#000000" opacity="0.17" d=" M 43.10 120.12 C 56.87 115.14 71.88 114.25 86.35 113.52 C 96.87 116.32 107.38 116.56 118.00 117.34 C 131.50 118.61 144.64 127.50 158.09 120.98 C 153.20 124.05 148.15 126.95 144.15 131.20 C 124.82 128.86 105.35 128.95 86.00 131.11 C 57.39 134.10 28.69 133.56 0.00 133.00 L 0.00 124.63 C 7.63 128.29 15.67 124.56 23.73 125.50 C 27.83 124.25 31.43 120.36 35.58 123.84 C 35.61 119.24 41.07 123.11 43.10 120.12 Z" />
</g>
<g id="#737e87fe">
<path fill="#737e87" opacity="1.00" d=" M 280.14 116.77 C 279.38 112.73 284.81 114.21 287.09 114.85 C 287.33 115.14 287.81 115.70 288.05 115.99 C 290.13 123.58 283.37 119.73 280.14 116.77 Z" />
</g>
<g id="#777a8dff">
<path fill="#777a8d" opacity="1.00" d=" M 178.30 117.81 C 176.91 114.74 181.35 116.47 183.02 116.07 C 187.92 119.88 180.97 120.57 178.30 117.81 Z" />
</g>
<g id="#717688fe">
<path fill="#717688" opacity="1.00" d=" M 161.63 117.93 C 161.94 117.64 162.55 117.07 162.86 116.78 C 166.23 116.90 176.70 116.73 170.97 121.05 C 167.15 122.90 161.67 123.90 161.63 117.93 Z" />
</g>
<g id="#3f413ffd">
<path fill="#3f413f" opacity="1.00" d=" M 209.73 120.86 C 212.47 113.17 221.88 120.26 226.73 117.51 C 227.56 120.01 230.49 123.26 233.18 121.15 C 236.04 119.15 237.78 123.74 240.10 124.89 C 240.34 130.82 242.41 135.86 246.97 140.27 C 246.68 140.47 246.11 140.88 245.82 141.09 C 238.86 140.29 231.87 139.34 225.25 136.97 C 223.67 133.96 221.38 131.37 219.95 128.30 C 222.69 127.21 225.64 125.38 225.08 121.92 C 221.99 122.91 219.12 124.55 215.87 125.06 C 219.64 122.38 219.39 118.09 214.11 119.45 C 216.05 128.42 211.91 122.33 209.73 120.86 Z" />
</g>
<g id="#424651fe">
<path fill="#424651" opacity="1.00" d=" M 158.09 120.98 C 159.38 120.10 160.49 118.99 161.63 117.93 C 161.67 123.90 167.15 122.90 170.97 121.05 C 169.54 123.72 169.30 127.79 172.95 124.75 C 174.22 126.72 172.91 128.59 172.25 130.49 C 174.97 131.17 175.37 134.05 176.45 136.23 C 178.60 141.42 179.14 147.46 179.20 152.13 C 177.18 153.39 172.99 152.97 173.02 155.89 C 174.10 157.18 178.10 156.45 177.63 157.94 C 174.46 160.41 176.67 164.46 174.15 167.13 C 170.87 170.39 175.52 174.12 178.95 172.51 C 180.87 177.05 175.21 183.92 182.61 184.47 C 185.54 179.06 185.13 187.71 188.94 188.37 L 189.21 189.35 C 189.16 192.51 187.73 189.18 186.75 188.25 C 180.97 190.99 175.77 194.92 178.00 202.06 C 180.28 198.53 184.76 200.72 187.83 197.08 C 187.36 203.14 189.76 208.43 185.83 213.78 C 189.47 211.92 191.94 215.04 190.77 218.62 C 187.74 220.25 185.91 222.57 189.31 225.07 C 188.35 228.26 185.49 230.08 182.23 229.97 C 180.81 229.52 179.39 229.08 177.93 228.82 C 174.36 230.25 178.40 235.08 174.30 236.34 C 169.56 240.08 180.94 241.25 174.99 244.80 C 170.92 243.91 167.21 247.21 163.08 246.53 C 166.41 252.76 154.39 253.03 155.69 246.82 C 156.36 240.33 151.18 248.66 147.98 248.08 C 147.28 245.61 148.82 244.20 151.20 244.31 C 149.79 240.70 142.75 244.27 143.93 238.08 C 149.18 240.21 154.47 235.11 154.01 229.97 C 149.34 228.71 145.76 237.63 141.64 233.36 C 136.73 230.69 138.64 225.13 138.26 220.74 C 142.54 221.66 140.31 227.65 143.49 229.75 C 148.76 227.57 145.57 215.71 153.77 217.84 C 148.31 211.21 158.36 215.18 160.17 210.02 C 159.33 208.48 155.65 205.69 159.03 205.00 C 163.06 203.63 162.73 208.62 164.12 211.03 C 167.30 210.18 165.67 206.33 164.90 204.21 C 169.87 207.27 172.64 201.13 168.51 198.17 C 167.71 199.42 166.25 202.27 164.66 200.35 C 161.31 195.74 173.71 194.11 168.63 189.42 C 165.74 188.47 159.00 184.52 158.96 190.01 C 158.23 193.10 162.06 192.45 163.95 193.00 C 163.41 195.10 162.46 197.10 160.36 198.01 C 157.79 193.40 155.50 188.05 151.10 184.96 C 147.46 189.96 157.42 192.37 156.08 198.02 C 151.69 197.61 145.96 197.00 147.33 190.49 C 146.38 185.98 142.47 182.82 138.64 187.02 C 135.35 177.47 128.31 190.82 130.86 196.21 C 129.74 190.49 128.59 183.56 132.73 178.72 C 135.99 174.96 134.23 169.46 136.53 165.21 C 137.27 163.89 137.94 162.53 138.38 161.08 C 142.02 154.19 141.11 146.66 141.89 139.14 C 141.93 138.66 142.02 137.70 142.06 137.22 L 142.16 136.20 C 142.35 135.64 142.75 134.54 142.95 133.98 C 143.35 133.05 143.75 132.12 144.15 131.20 C 148.15 126.95 153.20 124.05 158.09 120.98 M 150.21 133.16 C 147.82 135.83 144.37 140.03 147.72 143.29 C 153.08 147.61 156.40 130.63 150.21 133.16 M 164.96 134.88 C 157.52 136.27 156.34 149.90 164.05 150.87 C 169.70 154.75 172.92 148.49 173.18 143.27 C 177.22 144.95 173.45 139.01 172.77 137.20 C 171.77 134.67 167.57 133.65 164.96 134.88 M 166.29 164.28 C 163.22 165.12 162.17 168.40 161.05 171.01 C 162.13 176.33 171.50 172.10 169.49 167.64 C 168.89 166.22 168.50 163.05 166.29 164.28 M 177.99 218.00 C 177.13 221.38 180.18 225.59 183.78 224.91 C 187.64 221.86 182.38 215.27 177.99 218.00 M 162.20 226.08 C 160.00 228.99 156.70 234.58 162.30 235.73 C 169.31 238.27 167.65 224.69 162.20 226.08 Z" />
</g>
<g id="#93979bff">
<path fill="#93979b" opacity="1.00" d=" M 237.93 117.88 C 241.78 119.86 250.09 121.24 246.29 127.29 C 243.97 130.79 242.94 124.96 240.10 124.89 C 239.19 122.61 237.86 120.41 237.93 117.88 Z" />
</g>
<g id="#6d7276ff">
<path fill="#6d7276" opacity="1.00" d=" M 260.89 117.89 C 265.16 122.20 272.14 125.18 278.09 122.90 C 277.01 121.46 275.80 120.02 277.83 118.77 C 280.60 120.07 283.60 120.90 286.19 122.57 C 282.60 121.64 281.73 127.62 278.39 124.47 C 272.10 129.07 280.62 135.41 278.85 139.85 C 276.37 141.25 274.21 144.92 271.24 142.40 C 270.93 139.90 271.92 135.69 268.02 137.02 C 267.29 139.78 268.38 141.85 271.24 142.40 C 265.09 145.35 265.42 136.64 263.75 132.81 C 263.78 132.33 263.86 131.39 263.90 130.92 C 264.24 126.35 261.30 122.37 260.89 117.89 Z" />
</g>
<g id="#686d73fe">
<path fill="#686d73" opacity="1.00" d=" M 215.87 125.06 C 219.12 124.55 221.99 122.91 225.08 121.92 C 225.64 125.38 222.69 127.21 219.95 128.30 C 221.38 131.37 223.67 133.96 225.25 136.97 C 225.03 138.85 224.81 140.75 224.22 142.57 C 220.47 140.54 224.71 135.09 220.71 133.38 C 209.85 130.59 211.83 151.44 222.26 147.36 C 218.08 158.18 234.43 164.28 233.28 175.76 C 233.03 180.35 233.46 185.03 232.77 189.61 C 227.78 193.23 221.09 191.06 216.56 195.47 C 213.24 194.77 211.46 198.80 213.81 201.10 C 206.95 204.47 207.18 216.52 214.65 219.36 C 218.19 220.97 228.02 221.35 221.33 225.35 C 220.52 223.41 218.52 222.21 216.62 223.59 C 212.66 224.55 215.77 228.56 216.11 231.12 C 217.98 229.80 219.38 227.97 220.74 226.16 C 225.03 227.39 231.03 216.54 233.92 224.13 C 232.71 231.65 230.68 240.65 224.23 245.44 C 224.14 243.90 224.01 242.37 223.84 240.84 C 219.70 241.22 220.17 246.07 220.05 249.06 C 217.79 243.45 216.02 254.59 214.06 251.03 C 213.58 246.16 212.17 253.03 211.91 254.73 C 215.05 253.72 219.86 255.00 219.98 258.82 C 218.55 260.66 216.16 259.24 214.24 259.33 C 213.43 261.88 212.91 264.49 212.32 267.11 C 215.09 259.94 206.85 258.43 204.22 263.38 C 201.26 270.82 208.99 267.99 212.32 267.11 C 211.89 269.56 211.13 271.93 210.15 274.22 C 208.86 275.88 208.50 278.71 206.17 279.22 C 202.22 279.96 199.51 279.26 199.64 275.27 C 193.87 273.94 192.33 279.04 191.76 283.90 C 186.11 286.36 186.87 278.84 182.25 278.53 C 183.14 276.80 185.90 271.49 182.19 274.19 C 180.81 275.88 177.20 270.68 180.59 272.41 C 185.15 273.38 180.16 266.38 179.93 264.15 C 183.76 263.33 187.67 263.88 191.54 263.69 C 192.55 259.68 196.81 257.38 191.81 254.33 C 198.27 257.16 196.57 244.79 191.38 249.35 C 187.85 249.64 180.22 245.38 186.94 242.00 C 181.37 238.98 186.17 235.97 187.18 232.21 C 188.77 230.66 191.22 232.21 193.17 232.02 C 189.06 231.39 191.59 227.30 189.31 225.07 C 185.91 222.57 187.74 220.25 190.77 218.62 C 191.94 215.04 189.47 211.92 185.83 213.78 C 189.76 208.43 187.36 203.14 187.83 197.08 C 184.76 200.72 180.28 198.53 178.00 202.06 C 175.77 194.92 180.97 190.99 186.75 188.25 C 187.73 189.18 189.16 192.51 189.21 189.35 C 191.23 187.98 195.03 183.15 191.82 191.92 C 191.08 196.57 189.86 203.51 194.83 206.13 C 193.88 203.03 195.37 200.55 197.39 198.32 C 199.81 194.66 195.45 192.61 195.93 189.24 C 198.05 189.86 204.76 189.98 200.87 187.37 C 199.65 183.97 196.68 179.49 193.90 177.03 C 188.33 177.11 192.84 182.05 194.89 183.91 C 192.98 187.09 187.49 183.05 188.94 188.37 C 185.13 187.71 185.54 179.06 182.61 184.47 C 175.21 183.92 180.87 177.05 178.95 172.51 C 175.52 174.12 170.87 170.39 174.15 167.13 C 176.67 164.46 174.46 160.41 177.63 157.94 C 178.10 156.45 174.10 157.18 173.02 155.89 C 172.99 152.97 177.18 153.39 179.20 152.13 C 179.14 147.46 178.60 141.42 176.45 136.23 C 179.67 132.03 181.18 125.18 187.02 124.10 C 190.35 124.61 190.88 128.42 192.39 130.83 C 196.08 131.00 202.14 126.21 201.29 132.90 C 208.21 134.55 214.71 131.72 215.87 125.06 M 185.36 135.24 C 183.77 137.33 181.41 140.81 184.24 142.90 C 191.46 146.89 191.81 133.14 185.36 135.24 M 203.25 135.05 C 203.52 138.07 201.47 139.64 199.21 141.12 C 200.36 143.99 201.88 146.77 201.20 150.10 C 203.17 148.53 208.00 148.30 206.47 144.66 C 205.25 141.56 207.26 135.29 203.25 135.05 M 190.21 155.27 C 189.49 150.09 184.32 157.21 183.28 159.39 C 179.39 162.59 184.01 166.54 187.75 164.01 C 186.26 170.56 198.72 162.98 193.42 171.60 C 191.74 175.91 197.05 172.75 199.07 172.00 C 199.51 173.66 201.95 173.83 203.31 174.67 C 202.25 176.19 199.42 180.32 202.63 180.66 C 202.57 184.03 207.53 185.02 209.31 182.33 C 215.48 180.79 215.20 172.82 210.95 169.14 C 211.92 168.85 214.02 167.38 211.88 166.92 C 218.95 164.46 212.08 152.99 208.41 161.02 C 207.16 156.80 204.96 160.42 205.79 163.19 C 205.04 161.05 205.47 156.29 202.03 157.00 C 205.91 151.82 199.03 151.29 195.20 151.78 C 191.50 150.20 195.76 146.03 192.79 144.09 C 186.86 144.05 192.56 151.81 190.21 155.27 M 180.21 155.15 C 177.07 157.16 180.81 159.83 183.28 159.39 C 183.19 157.07 183.54 153.72 180.21 155.15 M 220.21 162.12 C 218.71 164.10 220.35 168.53 215.92 166.25 C 217.14 170.09 215.33 174.27 217.19 177.87 C 224.08 179.20 216.08 171.51 219.59 169.03 C 220.26 171.90 223.91 170.25 226.03 170.92 C 226.42 168.55 223.56 168.65 222.12 167.69 C 222.24 165.59 224.02 161.39 220.21 162.12 M 224.99 178.00 C 224.61 180.30 225.17 182.56 227.25 183.83 C 232.44 184.28 229.83 175.35 224.99 178.00 M 205.32 193.29 C 200.98 193.52 202.13 201.84 206.25 198.27 C 210.25 197.72 209.45 191.40 205.32 193.29 M 204.19 210.95 C 205.02 215.59 197.21 220.49 201.65 224.00 C 202.83 218.35 213.68 228.42 210.94 219.94 C 202.34 223.95 210.33 213.27 204.19 210.95 M 189.03 232.99 C 188.20 236.16 189.46 238.05 192.78 236.84 C 196.16 234.48 191.59 231.91 189.03 232.99 M 207.19 235.08 C 206.13 237.29 204.80 241.58 208.26 238.61 C 211.60 239.74 209.83 233.88 207.19 235.08 M 201.33 244.32 C 199.98 245.09 198.06 248.51 197.65 245.26 C 194.42 243.91 197.23 248.43 197.24 249.98 C 200.04 249.39 201.61 246.21 204.92 246.76 C 206.04 243.87 203.58 243.32 201.33 244.32 M 190.22 267.12 C 187.48 268.39 190.02 272.40 192.37 270.45 C 195.95 269.87 192.70 265.60 190.22 267.12 Z" />
</g>
<g id="#898b95ff">
<path fill="#898b95" opacity="1.00" d=" M 251.81 132.21 C 251.59 126.89 251.20 121.48 257.87 123.33 C 259.71 125.96 261.54 128.72 261.22 132.11 C 260.15 133.47 259.15 134.88 258.22 136.35 C 255.49 136.32 252.23 135.36 251.81 132.21 Z" />
</g>
<g id="#6d737fff">
<path fill="#6d737f" opacity="1.00" d=" M 280.00 127.19 C 284.57 122.88 289.26 126.62 292.30 130.58 C 295.01 130.34 297.45 129.04 299.89 127.93 C 300.26 128.37 301.00 129.27 301.37 129.72 C 304.08 139.57 291.26 134.85 286.99 132.03 C 282.95 135.38 279.47 131.69 280.00 127.19 Z" />
</g>
<g id="#4a4b56ff">
<path fill="#4a4b56" opacity="1.00" d=" M 250.35 126.67 C 250.71 128.05 251.45 130.83 251.81 132.21 C 252.23 135.36 255.49 136.32 258.22 136.35 C 257.39 142.22 251.21 142.18 246.97 140.27 C 248.88 135.95 251.08 131.64 250.35 126.67 Z" />
</g>
<g id="#0000003c">
<path fill="#000000" opacity="0.24" d=" M 86.00 131.11 C 105.35 128.95 124.82 128.86 144.15 131.20 C 143.75 132.12 143.35 133.05 142.95 133.98 C 114.62 130.54 86.57 137.47 58.32 138.34 C 38.91 138.81 19.47 138.71 0.00 139.00 L 0.00 133.00 C 28.69 133.56 57.39 134.10 86.00 131.11 Z" />
</g>
<g id="#2c2d35f8">
<path fill="#2c2d35" opacity="0.97" d=" M 261.22 132.11 C 262.12 131.72 263.01 131.32 263.90 130.92 C 263.86 131.39 263.78 132.33 263.75 132.81 C 260.87 137.38 261.89 151.44 269.90 147.53 C 273.78 151.53 280.56 155.46 284.40 149.21 C 287.95 153.10 292.34 153.64 297.07 155.33 C 292.18 156.67 287.06 156.05 282.21 154.89 C 277.80 153.81 273.29 154.14 268.81 154.11 C 266.04 153.10 263.32 151.68 260.26 152.06 C 254.74 149.40 250.67 144.69 245.82 141.09 C 246.11 140.88 246.68 140.47 246.97 140.27 C 251.21 142.18 257.39 142.22 258.22 136.35 C 259.15 134.88 260.15 133.47 261.22 132.11 Z" />
</g>
<g id="#00000050">
<path fill="#000000" opacity="0.31" d=" M 58.32 138.34 C 86.57 137.47 114.62 130.54 142.95 133.98 C 142.75 134.54 142.35 135.64 142.16 136.20 C 115.31 132.30 88.87 140.96 62.14 142.27 C 50.49 143.92 38.49 143.41 27.03 146.22 C 26.88 149.61 31.50 150.67 33.92 151.17 C 52.48 155.22 70.90 161.73 90.19 160.38 C 105.07 159.50 120.03 159.70 134.76 162.17 C 135.45 163.12 136.04 164.13 136.53 165.21 C 134.23 169.46 135.99 174.96 132.73 178.72 C 128.59 183.56 129.74 190.49 130.86 196.21 C 130.95 196.65 131.13 197.53 131.22 197.96 C 130.41 199.04 129.58 200.34 128.02 199.87 C 102.54 196.60 76.72 198.59 51.33 194.69 C 40.90 193.96 30.48 192.74 20.02 193.66 C 18.40 193.49 15.33 193.19 16.03 195.80 C 23.21 203.35 34.05 204.18 43.55 206.55 C 71.06 212.36 99.03 215.64 126.93 219.07 C 128.84 219.09 128.71 221.49 129.26 222.77 C 86.11 216.84 41.96 215.28 0.00 202.71 L 0.00 185.00 C 18.21 185.18 36.28 187.52 54.33 189.61 C 76.94 194.00 100.04 193.84 122.98 194.98 C 131.84 198.17 128.06 188.04 128.64 183.82 C 130.08 178.48 132.98 173.11 131.82 167.38 C 117.20 161.90 101.49 162.36 86.10 163.64 C 57.25 162.60 29.13 152.57 0.00 155.70 L 0.00 139.00 C 19.47 138.71 38.91 138.81 58.32 138.34 Z" />
</g>
<g id="#5a5e75ff">
<path fill="#5a5e75" opacity="1.00" d=" M 150.21 133.16 C 156.40 130.63 153.08 147.61 147.72 143.29 C 144.37 140.03 147.82 135.83 150.21 133.16 Z" />
</g>
<g id="#969aaafe">
<path fill="#969aaa" opacity="1.00" d=" M 222.26 147.36 C 211.83 151.44 209.85 130.59 220.71 133.38 C 224.71 135.09 220.47 140.54 224.22 142.57 C 223.78 144.24 223.04 145.82 222.26 147.36 Z" />
</g>
<g id="#4f5158fc">
<path fill="#4f5158" opacity="1.00" d=" M 269.90 147.53 C 261.89 151.44 260.87 137.38 263.75 132.81 C 265.42 136.64 265.09 145.35 271.24 142.40 C 274.21 144.92 276.37 141.25 278.85 139.85 C 278.10 141.47 277.67 143.44 279.81 144.12 C 283.18 146.44 287.40 145.70 291.27 145.79 C 294.81 147.39 300.37 148.99 299.14 153.99 C 298.62 154.32 297.58 154.99 297.07 155.33 C 292.34 153.64 287.95 153.10 284.40 149.21 C 280.56 155.46 273.78 151.53 269.90 147.53 Z" />
</g>
<g id="#656a81ff">
<path fill="#656a81" opacity="1.00" d=" M 164.96 134.88 C 167.57 133.65 171.77 134.67 172.77 137.20 C 169.91 136.38 165.95 134.75 164.24 138.28 C 164.05 142.47 164.45 146.68 164.05 150.87 C 156.34 149.90 157.52 136.27 164.96 134.88 Z" />
</g>
<g id="#00000060">
<path fill="#000000" opacity="0.38" d=" M 62.14 142.27 C 88.87 140.96 115.31 132.30 142.16 136.20 L 142.06 137.22 C 115.99 136.02 90.07 142.08 65.07 149.23 C 64.35 153.58 70.15 154.79 73.40 155.63 C 94.90 158.71 117.21 154.86 138.38 161.08 C 137.94 162.53 137.27 163.89 136.53 165.21 C 136.04 164.13 135.45 163.12 134.76 162.17 C 120.03 159.70 105.07 159.50 90.19 160.38 C 70.90 161.73 52.48 155.22 33.92 151.17 C 31.50 150.67 26.88 149.61 27.03 146.22 C 38.49 143.41 50.49 143.92 62.14 142.27 Z" />
</g>
<g id="#8e93a2ff">
<path fill="#8e93a2" opacity="1.00" d=" M 185.36 135.24 C 191.81 133.14 191.46 146.89 184.24 142.90 C 181.41 140.81 183.77 137.33 185.36 135.24 Z" />
</g>
<g id="#7f838dff">
<path fill="#7f838d" opacity="1.00" d=" M 203.25 135.05 C 207.26 135.29 205.25 141.56 206.47 144.66 C 208.00 148.30 203.17 148.53 201.20 150.10 C 201.88 146.77 200.36 143.99 199.21 141.12 C 201.47 139.64 203.52 138.07 203.25 135.05 Z" />
</g>
<g id="#9297a1ff">
<path fill="#9297a1" opacity="1.00" d=" M 164.24 138.28 C 165.95 134.75 169.91 136.38 172.77 137.20 C 173.45 139.01 177.22 144.95 173.18 143.27 C 172.92 148.49 169.70 154.75 164.05 150.87 C 164.45 146.68 164.05 142.47 164.24 138.28 Z" />
</g>
<g id="#00000071">
<path fill="#000000" opacity="0.44" d=" M 65.07 149.23 C 90.07 142.08 115.99 136.02 142.06 137.22 C 142.02 137.70 141.93 138.66 141.89 139.14 C 129.33 140.26 116.56 142.00 105.00 147.19 C 104.43 149.67 106.48 151.42 108.37 152.57 C 117.96 155.38 127.93 156.46 137.73 158.27 C 137.89 158.97 138.22 160.38 138.38 161.08 C 117.21 154.86 94.90 158.71 73.40 155.63 C 70.15 154.79 64.35 153.58 65.07 149.23 Z" />
</g>
<g id="#0101011a">
<path fill="#010101" opacity="0.10" d=" M 225.25 136.97 C 231.87 139.34 238.86 140.29 245.82 141.09 C 250.67 144.69 254.74 149.40 260.26 152.06 C 257.07 152.87 254.14 150.91 251.42 149.54 C 245.41 151.82 247.85 160.01 250.04 163.95 C 255.14 164.13 255.76 171.23 254.02 173.65 C 248.96 171.39 249.72 178.50 254.30 176.49 C 252.62 178.31 249.03 179.62 249.46 182.50 C 247.33 190.51 250.70 186.61 252.62 185.33 C 254.41 187.93 255.94 190.72 257.88 193.24 C 256.58 192.78 255.28 192.36 254.00 191.89 C 251.66 190.51 248.32 189.15 246.94 192.07 C 243.25 190.60 236.82 194.46 234.26 190.66 C 234.06 185.68 233.73 180.71 233.28 175.76 C 234.43 164.28 218.08 158.18 222.26 147.36 C 223.04 145.82 223.78 144.24 224.22 142.57 C 224.81 140.75 225.03 138.85 225.25 136.97 Z" />
</g>
<g id="#9da3a7ff">
<path fill="#9da3a7" opacity="1.00" d=" M 268.02 137.02 C 271.92 135.69 270.93 139.90 271.24 142.40 C 268.38 141.85 267.29 139.78 268.02 137.02 Z" />
</g>
<g id="#0a0a0c70">
<path fill="#0a0a0c" opacity="0.44" d=" M 285.87 137.85 C 287.51 135.49 290.99 135.94 293.05 137.85 C 291.26 137.85 287.67 137.85 285.87 137.85 Z" />
</g>
<g id="#01010182">
<path fill="#010101" opacity="0.51" d=" M 105.00 147.19 C 116.56 142.00 129.33 140.26 141.89 139.14 C 141.11 146.66 142.02 154.19 138.38 161.08 C 138.22 160.38 137.89 158.97 137.73 158.27 C 127.93 156.46 117.96 155.38 108.37 152.57 C 106.48 151.42 104.43 149.67 105.00 147.19 Z" />
</g>
<g id="#0d0d0f8e">
<path fill="#0d0d0f" opacity="0.56" d=" M 295.00 139.30 C 296.98 138.56 299.18 138.49 301.12 139.42 C 299.41 141.10 297.38 141.06 295.00 139.30 Z" />
</g>
<g id="#868992ff">
<path fill="#868992" opacity="1.00" d=" M 190.21 155.27 C 192.56 151.81 186.86 144.05 192.79 144.09 C 195.76 146.03 191.50 150.20 195.20 151.78 C 199.03 151.29 205.91 151.82 202.03 157.00 C 198.24 159.95 197.41 158.64 199.77 154.73 C 197.21 156.78 189.80 161.70 190.21 155.27 Z" />
</g>
<g id="#1a1b20c8">
<path fill="#1a1b20" opacity="0.78" d=" M 279.81 144.12 C 283.68 144.26 287.76 143.86 291.27 145.79 C 287.40 145.70 283.18 146.44 279.81 144.12 Z" />
</g>
<g id="#0000000e">
<path fill="#000000" opacity="0.05" d=" M 250.04 163.95 C 247.85 160.01 245.41 151.82 251.42 149.54 C 254.14 150.91 257.07 152.87 260.26 152.06 C 263.32 151.68 266.04 153.10 268.81 154.11 C 273.19 155.31 277.73 154.84 282.21 154.89 C 287.06 156.05 292.18 156.67 297.07 155.33 C 297.58 154.99 298.62 154.32 299.14 153.99 C 299.14 158.56 295.52 158.05 292.14 157.31 C 286.61 158.71 288.30 164.37 284.22 167.28 C 284.30 171.49 288.18 176.53 284.49 180.21 C 284.90 182.65 287.46 185.78 284.40 187.42 C 280.58 190.28 285.37 193.63 287.16 196.05 C 283.98 198.24 282.02 201.52 285.48 204.48 C 289.53 205.81 292.39 211.90 286.32 212.34 C 288.93 215.25 288.43 223.90 294.06 219.19 C 295.58 223.57 290.92 228.24 294.92 232.06 C 295.84 238.97 299.78 233.26 303.06 232.86 C 302.80 235.92 302.12 241.16 297.80 239.30 C 298.57 241.89 301.84 242.53 302.90 244.88 C 298.47 249.12 306.79 252.38 304.49 257.60 C 307.40 260.57 312.66 257.97 315.81 256.03 C 317.35 260.33 322.56 264.24 317.17 268.04 C 320.64 269.92 319.95 272.62 316.24 273.44 C 316.74 276.63 318.94 279.51 319.12 282.98 C 326.71 277.08 323.07 290.98 318.28 292.17 C 318.52 290.56 319.26 284.58 316.23 288.30 C 312.08 289.89 311.80 300.11 317.71 297.92 C 317.16 295.37 319.49 292.14 320.45 295.68 C 318.60 300.46 325.04 302.32 325.25 306.74 C 322.26 306.18 318.53 304.03 316.85 307.82 C 314.86 310.89 314.40 314.43 310.19 314.18 C 310.21 318.58 307.72 320.85 305.74 324.76 C 302.42 325.92 298.50 326.51 296.83 330.08 C 301.86 330.76 307.94 324.05 311.81 329.20 C 308.05 337.35 297.82 336.49 291.16 341.07 C 294.25 334.74 285.82 335.76 283.05 338.93 C 280.23 335.97 276.23 336.32 272.47 336.33 C 271.93 340.42 266.72 347.63 263.45 341.58 C 261.08 339.72 259.00 330.18 257.00 336.01 C 256.50 341.43 252.43 334.01 250.44 334.46 C 246.93 338.09 244.03 332.55 243.45 329.39 C 240.44 325.07 235.99 334.87 233.43 329.79 C 232.63 325.14 228.13 327.94 225.75 329.59 C 222.17 329.88 223.75 326.44 223.84 324.20 C 221.13 320.86 220.81 329.01 217.30 326.79 C 214.30 323.44 209.18 319.78 205.51 324.48 C 202.88 321.68 201.42 323.76 201.75 326.96 C 197.22 322.80 195.46 331.06 190.77 329.59 C 187.34 328.41 186.07 332.32 184.52 334.57 C 181.46 333.57 175.17 332.10 174.24 336.13 C 173.80 340.82 167.51 339.78 164.12 339.22 C 164.36 340.88 165.27 345.00 162.21 343.68 C 156.23 340.97 147.69 340.84 144.72 347.76 C 140.27 348.06 144.61 342.32 140.97 342.12 C 135.91 344.77 129.21 339.56 127.76 346.96 C 120.85 343.42 113.01 351.53 106.05 345.08 C 103.89 347.32 101.57 349.15 98.82 346.29 C 93.58 349.66 87.75 346.83 82.13 345.99 C 77.91 350.74 70.15 348.89 65.08 346.11 C 64.04 355.26 57.19 341.03 53.02 346.80 C 52.00 353.01 43.91 349.74 41.21 345.98 C 40.96 347.95 41.43 351.22 38.51 349.68 C 37.61 347.71 36.95 344.97 34.16 346.03 C 27.69 352.62 17.27 347.77 9.40 350.80 C 7.18 346.55 3.67 346.79 0.00 349.23 L 0.00 308.10 C 2.56 305.05 6.63 306.72 9.98 307.11 C 15.14 308.38 21.61 306.30 25.63 310.42 C 29.06 313.46 28.97 305.54 32.36 308.54 C 36.75 314.69 45.61 307.44 50.77 312.15 C 55.81 313.34 61.48 312.52 65.69 316.29 C 71.21 312.10 77.58 315.92 83.01 312.97 C 95.02 320.48 108.91 308.76 121.68 311.16 C 130.32 308.61 140.43 308.60 149.63 307.37 C 153.07 312.13 158.28 310.43 162.14 307.12 C 167.53 309.45 170.98 303.35 176.44 305.68 C 178.77 300.38 186.10 301.83 189.65 297.61 C 195.98 294.03 199.63 286.25 207.69 286.39 C 214.96 282.46 222.86 277.91 231.35 278.47 C 232.32 275.30 235.19 274.64 238.37 274.45 C 243.50 267.33 253.27 263.78 256.69 255.88 C 261.29 255.51 256.99 253.98 255.03 252.68 C 255.24 249.88 258.22 247.96 260.91 248.35 C 262.40 244.40 262.44 233.71 255.96 238.81 C 252.14 233.60 262.25 232.91 260.79 228.37 C 259.12 226.87 256.14 225.88 256.99 223.06 C 259.89 217.63 268.30 216.28 270.20 209.88 L 270.51 209.09 C 272.02 206.61 271.98 204.54 270.38 202.89 C 266.98 198.72 262.36 196.04 257.88 193.24 C 255.94 190.72 254.41 187.93 252.62 185.33 C 250.70 186.61 247.33 190.51 249.46 182.50 C 249.03 179.62 252.62 178.31 254.30 176.49 C 249.72 178.50 248.96 171.39 254.02 173.65 C 255.76 171.23 255.14 164.13 250.04 163.95 Z" />
</g>
<g id="#52595cff">
<path fill="#52595c" opacity="1.00" d=" M 183.28 159.39 C 184.32 157.21 189.49 150.09 190.21 155.27 C 189.80 161.70 197.21 156.78 199.77 154.73 C 197.41 158.64 198.24 159.95 202.03 157.00 C 205.47 156.29 205.04 161.05 205.79 163.19 C 206.72 165.35 210.05 165.32 211.88 166.92 C 214.02 167.38 211.92 168.85 210.95 169.14 C 207.22 164.87 201.89 168.41 199.07 172.00 C 197.05 172.75 191.74 175.91 193.42 171.60 C 198.72 162.98 186.26 170.56 187.75 164.01 C 184.01 166.54 179.39 162.59 183.28 159.39 Z" />
</g>
<g id="#0c0c0e7b">
<path fill="#0c0c0e" opacity="0.48" d=" M 268.81 154.11 C 273.29 154.14 277.80 153.81 282.21 154.89 C 277.73 154.84 273.19 155.31 268.81 154.11 Z" />
</g>
<g id="#00000042">
<path fill="#000000" opacity="0.26" d=" M 0.00 155.70 C 29.13 152.57 57.25 162.60 86.10 163.64 C 101.49 162.36 117.20 161.90 131.82 167.38 C 132.98 173.11 130.08 178.48 128.64 183.82 C 128.06 188.04 131.84 198.17 122.98 194.98 C 100.04 193.84 76.94 194.00 54.33 189.61 C 36.28 187.52 18.21 185.18 0.00 185.00 L 0.00 177.90 C 24.78 180.48 49.57 183.78 74.39 186.70 C 79.22 188.86 83.67 185.97 87.99 184.26 C 92.27 189.83 100.10 182.61 100.98 177.23 C 97.07 174.42 92.14 172.60 89.59 168.33 C 59.77 166.04 29.83 156.29 0.00 163.03 L 0.00 155.70 Z" />
</g>
<g id="#8e90a1ff">
<path fill="#8e90a1" opacity="1.00" d=" M 180.21 155.15 C 183.54 153.72 183.19 157.07 183.28 159.39 C 180.81 159.83 177.07 157.16 180.21 155.15 Z" />
</g>
<g id="#8d9382ff">
<path fill="#8d9382" opacity="1.00" d=" M 208.41 161.02 C 212.08 152.99 218.95 164.46 211.88 166.92 C 210.05 165.32 206.72 165.35 205.79 163.19 C 204.96 160.42 207.16 156.80 208.41 161.02 Z" />
</g>
<g id="#00000036">
<path fill="#000000" opacity="0.21" d=" M 0.00 163.03 C 29.83 156.29 59.77 166.04 89.59 168.33 C 92.14 172.60 97.07 174.42 100.98 177.23 C 100.10 182.61 92.27 189.83 87.99 184.26 C 83.67 185.97 79.22 188.86 74.39 186.70 C 49.57 183.78 24.78 180.48 0.00 177.90 L 0.00 163.03 Z" />
</g>
<g id="#838691ff">
<path fill="#838691" opacity="1.00" d=" M 220.21 162.12 C 224.02 161.39 222.24 165.59 222.12 167.69 C 223.56 168.65 226.42 168.55 226.03 170.92 C 223.91 170.25 220.26 171.90 219.59 169.03 C 216.08 171.51 224.08 179.20 217.19 177.87 C 215.33 174.27 217.14 170.09 215.92 166.25 C 220.35 168.53 218.71 164.10 220.21 162.12 Z" />
</g>
<g id="#656977ff">
<path fill="#656977" opacity="1.00" d=" M 166.29 164.28 C 168.50 163.05 168.89 166.22 169.49 167.64 C 171.50 172.10 162.13 176.33 161.05 171.01 C 162.17 168.40 163.22 165.12 166.29 164.28 Z" />
</g>
<g id="#7e8850ff">
<path fill="#7e8850" opacity="1.00" d=" M 199.07 172.00 C 201.89 168.41 207.22 164.87 210.95 169.14 C 215.20 172.82 215.48 180.79 209.31 182.33 C 207.53 185.02 202.57 184.03 202.63 180.66 C 204.63 179.17 207.87 179.15 209.21 177.02 C 207.73 175.32 205.61 174.09 203.31 174.67 C 201.95 173.83 199.51 173.66 199.07 172.00 Z" />
</g>
<g id="#969f8dff">
<path fill="#969f8d" opacity="1.00" d=" M 203.31 174.67 C 205.61 174.09 207.73 175.32 209.21 177.02 C 207.87 179.15 204.63 179.17 202.63 180.66 C 199.42 180.32 202.25 176.19 203.31 174.67 Z" />
</g>
<g id="#3a3c47fc">
<path fill="#3a3c47" opacity="1.00" d=" M 233.28 175.76 C 233.73 180.71 234.06 185.68 234.26 190.66 C 236.82 194.46 243.25 190.60 246.94 192.07 C 248.70 192.02 252.23 191.94 254.00 191.89 C 255.28 192.36 256.58 192.78 257.88 193.24 C 262.36 196.04 266.98 198.72 270.38 202.89 C 269.39 204.86 269.54 207.14 270.51 209.09 L 270.20 209.88 C 264.53 214.33 258.15 217.97 251.06 219.50 C 249.02 218.88 246.88 218.52 244.75 218.75 C 245.82 216.92 246.78 215.02 247.96 213.26 C 254.11 213.42 264.73 213.79 264.09 205.08 C 262.20 201.14 258.04 199.37 254.15 201.64 C 253.53 193.11 241.87 201.02 241.14 206.13 C 240.34 203.40 240.49 200.59 240.83 197.81 C 239.10 198.99 238.23 200.89 237.60 202.82 C 235.78 201.19 234.45 198.36 231.04 200.09 C 228.47 199.95 230.02 208.22 226.83 205.27 C 225.37 197.74 220.15 209.08 219.84 212.51 C 221.65 212.12 226.16 213.85 224.47 210.61 C 223.23 206.81 228.27 212.65 229.88 209.47 C 230.44 216.03 238.19 216.00 242.02 212.11 C 243.20 214.36 243.81 216.85 244.20 219.35 L 244.23 220.10 C 240.63 220.82 233.40 218.54 233.92 224.13 C 231.03 216.54 225.03 227.39 220.74 226.16 L 221.33 225.35 C 228.02 221.35 218.19 220.97 214.65 219.36 C 207.18 216.52 206.95 204.47 213.81 201.10 C 211.46 198.80 213.24 194.77 216.56 195.47 C 215.49 198.23 216.37 202.80 219.84 199.76 C 220.77 196.98 219.53 195.31 216.56 195.47 C 221.09 191.06 227.78 193.23 232.77 189.61 C 233.46 185.03 233.03 180.35 233.28 175.76 Z" />
</g>
<g id="#808789ff">
<path fill="#808789" opacity="1.00" d=" M 194.89 183.91 C 192.84 182.05 188.33 177.11 193.90 177.03 C 196.68 179.49 199.65 183.97 200.87 187.37 C 204.76 189.98 198.05 189.86 195.93 189.24 C 195.45 192.61 199.81 194.66 197.39 198.32 C 195.37 200.55 193.88 203.03 194.83 206.13 C 189.86 203.51 191.08 196.57 191.82 191.92 C 195.03 183.15 191.23 187.98 189.21 189.35 L 188.94 188.37 C 187.49 183.05 192.98 187.09 194.89 183.91 Z" />
</g>
<g id="#9295a5ff">
<path fill="#9295a5" opacity="1.00" d=" M 224.99 178.00 C 229.83 175.35 232.44 184.28 227.25 183.83 C 225.17 182.56 224.61 180.30 224.99 178.00 Z" />
</g>
<g id="#575b71fd">
<path fill="#575b71" opacity="1.00" d=" M 130.86 196.21 C 128.31 190.82 135.35 177.47 138.64 187.02 C 137.42 191.80 145.27 203.46 136.25 203.16 C 135.25 202.50 134.30 201.79 133.31 201.11 C 132.61 200.06 131.91 199.01 131.22 197.96 C 131.13 197.53 130.95 196.65 130.86 196.21 Z" />
</g>
<g id="#35373efd">
<path fill="#35373e" opacity="1.00" d=" M 138.64 187.02 C 142.47 182.82 146.38 185.98 147.33 190.49 C 145.96 197.00 151.69 197.61 156.08 198.02 C 157.42 192.37 147.46 189.96 151.10 184.96 C 155.50 188.05 157.79 193.40 160.36 198.01 C 161.69 200.20 163.33 202.18 164.90 204.21 C 165.67 206.33 167.30 210.18 164.12 211.03 C 162.73 208.62 163.06 203.63 159.03 205.00 C 155.65 205.69 159.33 208.48 160.17 210.02 C 158.36 215.18 148.31 211.21 153.77 217.84 C 145.57 215.71 148.76 227.57 143.49 229.75 C 140.31 227.65 142.54 221.66 138.26 220.74 C 138.64 225.13 136.73 230.69 141.64 233.36 C 145.76 237.63 149.34 228.71 154.01 229.97 C 154.47 235.11 149.18 240.21 143.93 238.08 C 142.75 244.27 149.79 240.70 151.20 244.31 C 148.82 244.20 147.28 245.61 147.98 248.08 C 151.18 248.66 156.36 240.33 155.69 246.82 C 154.39 253.03 166.41 252.76 163.08 246.53 C 167.21 247.21 170.92 243.91 174.99 244.80 C 176.68 245.94 178.46 246.93 180.24 247.92 C 177.48 249.42 171.48 245.86 169.92 249.96 C 167.25 255.38 170.98 261.54 175.76 264.26 C 175.33 264.93 174.88 265.59 174.42 266.24 C 173.42 265.53 172.43 264.81 171.41 264.16 C 167.17 261.93 163.08 259.45 158.99 256.98 C 148.46 259.38 148.11 272.21 153.46 279.50 C 158.01 282.70 163.25 286.07 169.13 284.30 C 171.07 285.70 173.06 285.67 174.99 284.27 C 177.18 287.42 180.68 287.91 184.23 287.11 C 180.76 290.62 174.53 290.01 170.03 288.92 C 165.65 286.41 166.31 294.47 170.08 294.94 C 166.02 296.40 160.92 298.47 157.65 294.40 C 154.27 290.92 149.12 292.73 144.94 291.23 C 144.24 290.21 143.52 289.21 142.88 288.15 C 142.63 285.03 143.78 281.63 142.25 278.77 C 141.14 278.17 139.94 277.77 138.77 277.31 C 135.78 272.06 134.80 265.97 133.19 260.22 C 134.71 255.87 137.55 251.09 134.13 246.84 C 133.86 245.40 133.31 242.50 133.04 241.06 C 131.73 235.28 133.79 229.35 129.85 224.22 C 129.86 222.11 129.92 220.01 129.95 217.91 C 130.09 216.52 130.22 215.14 130.57 213.79 C 131.00 217.00 131.98 221.70 135.89 222.12 C 137.26 219.34 139.46 216.52 138.96 213.23 C 136.13 212.35 133.11 211.91 130.57 213.79 C 131.92 210.01 136.79 207.32 136.25 203.16 C 145.27 203.46 137.42 191.80 138.64 187.02 Z" />
</g>
<g id="#555a69ff">
<path fill="#555a69" opacity="1.00" d=" M 158.96 190.01 C 159.00 184.52 165.74 188.47 168.63 189.42 C 173.71 194.11 161.31 195.74 164.66 200.35 C 166.25 202.27 167.71 199.42 168.51 198.17 C 172.64 201.13 169.87 207.27 164.90 204.21 C 163.33 202.18 161.69 200.20 160.36 198.01 C 162.46 197.10 163.41 195.10 163.95 193.00 C 162.06 192.45 158.23 193.10 158.96 190.01 Z" />
</g>
<g id="#17181da4">
<path fill="#17181d" opacity="0.64" d=" M 246.94 192.07 C 248.32 189.15 251.66 190.51 254.00 191.89 C 252.23 191.94 248.70 192.02 246.94 192.07 Z" />
</g>
<g id="#0000005f">
<path fill="#000000" opacity="0.37" d=" M 16.03 195.80 C 15.33 193.19 18.40 193.49 20.02 193.66 C 30.48 192.74 40.90 193.96 51.33 194.69 C 76.72 198.59 102.54 196.60 128.02 199.87 C 129.58 200.34 130.41 199.04 131.22 197.96 C 131.91 199.01 132.61 200.06 133.31 201.11 C 121.11 205.81 106.37 199.25 93.40 202.41 C 89.84 204.09 80.84 201.24 80.01 205.93 C 95.67 213.11 113.64 212.85 129.95 217.91 C 129.92 220.01 129.86 222.11 129.85 224.22 C 129.70 223.86 129.41 223.13 129.26 222.77 C 128.71 221.49 128.84 219.09 126.93 219.07 C 99.03 215.64 71.06 212.36 43.55 206.55 C 34.05 204.18 23.21 203.35 16.03 195.80 Z" />
</g>
<g id="#9497a4ff">
<path fill="#9497a4" opacity="1.00" d=" M 205.32 193.29 C 209.45 191.40 210.25 197.72 206.25 198.27 C 202.13 201.84 200.98 193.52 205.32 193.29 Z" />
</g>
<g id="#6b7185ff">
<path fill="#6b7185" opacity="1.00" d=" M 216.56 195.47 C 219.53 195.31 220.77 196.98 219.84 199.76 C 216.37 202.80 215.49 198.23 216.56 195.47 Z" />
</g>
<g id="#555767ff">
<path fill="#555767" opacity="1.00" d=" M 241.14 206.13 C 241.87 201.02 253.53 193.11 254.15 201.64 C 258.04 199.37 262.20 201.14 264.09 205.08 C 260.82 204.35 256.57 200.07 254.06 204.11 C 252.36 206.67 249.24 203.06 247.14 205.57 C 244.12 196.75 239.62 216.03 247.96 213.26 C 246.78 215.02 245.82 216.92 244.75 218.75 L 244.20 219.35 C 243.81 216.85 243.20 214.36 242.02 212.11 C 238.19 216.00 230.44 216.03 229.88 209.47 C 228.27 212.65 223.23 206.81 224.47 210.61 C 226.16 213.85 221.65 212.12 219.84 212.51 C 220.15 209.08 225.37 197.74 226.83 205.27 C 230.02 208.22 228.47 199.95 231.04 200.09 C 234.45 198.36 235.78 201.19 237.60 202.82 C 238.23 200.89 239.10 198.99 240.83 197.81 C 240.49 200.59 240.34 203.40 241.14 206.13 Z" />
</g>
<g id="#00000073">
<path fill="#000000" opacity="0.45" d=" M 133.31 201.11 C 134.30 201.79 135.25 202.50 136.25 203.16 C 136.79 207.32 131.92 210.01 130.57 213.79 C 130.22 215.14 130.09 216.52 129.95 217.91 C 113.64 212.85 95.67 213.11 80.01 205.93 C 80.84 201.24 89.84 204.09 93.40 202.41 C 106.37 199.25 121.11 205.81 133.31 201.11 Z" />
</g>
<g id="#777883ff">
<path fill="#777883" opacity="1.00" d=" M 254.06 204.11 C 256.57 200.07 260.82 204.35 264.09 205.08 C 264.73 213.79 254.11 213.42 247.96 213.26 C 239.62 216.03 244.12 196.75 247.14 205.57 C 249.24 203.06 252.36 206.67 254.06 204.11 Z" />
</g>
<g id="#0000003e">
<path fill="#000000" opacity="0.24" d=" M 0.00 202.71 C 41.96 215.28 86.11 216.84 129.26 222.77 C 129.41 223.13 129.70 223.86 129.85 224.22 C 133.79 229.35 131.73 235.28 133.04 241.06 C 125.80 231.94 114.60 227.08 103.06 226.80 C 69.04 218.53 33.89 219.19 0.00 209.78 L 0.00 202.71 Z" />
</g>
<g id="#1f202283">
<path fill="#1f2022" opacity="0.51" d=" M 270.38 202.89 C 271.98 204.54 272.02 206.61 270.51 209.09 C 269.54 207.14 269.39 204.86 270.38 202.89 Z" />
</g>
<g id="#0000002f">
<path fill="#000000" opacity="0.18" d=" M 0.00 209.78 C 33.89 219.19 69.04 218.53 103.06 226.80 C 114.60 227.08 125.80 231.94 133.04 241.06 C 133.31 242.50 133.86 245.40 134.13 246.84 C 137.55 251.09 134.71 255.87 133.19 260.22 C 132.07 256.40 132.79 249.53 126.00 251.85 C 115.98 251.43 107.05 248.58 98.73 242.77 C 92.13 243.52 86.82 238.52 80.32 238.48 C 72.63 230.48 60.40 228.25 49.58 227.54 C 42.66 229.93 35.59 223.67 29.25 226.51 C 25.03 224.50 17.20 226.50 16.79 231.59 C 12.71 229.48 6.87 231.92 5.58 236.47 C 5.14 239.34 2.22 238.96 0.00 239.24 L 0.00 209.78 Z" />
</g>
<g id="#00000017">
<path fill="#000000" opacity="0.09" d=" M 251.06 219.50 C 258.15 217.97 264.53 214.33 270.20 209.88 C 268.30 216.28 259.89 217.63 256.99 223.06 C 256.14 225.88 259.12 226.87 260.79 228.37 C 262.25 232.91 252.14 233.60 255.96 238.81 C 262.44 233.71 262.40 244.40 260.91 248.35 C 258.22 247.96 255.24 249.88 255.03 252.68 C 256.99 253.98 261.29 255.51 256.69 255.88 C 253.27 263.78 243.50 267.33 238.37 274.45 C 235.19 274.64 232.32 275.30 231.35 278.47 C 222.86 277.91 214.96 282.46 207.69 286.39 C 199.63 286.25 195.98 294.03 189.65 297.61 C 186.10 301.83 178.77 300.38 176.44 305.68 C 170.98 303.35 167.53 309.45 162.14 307.12 C 158.28 310.43 153.07 312.13 149.63 307.37 C 140.43 308.60 130.32 308.61 121.68 311.16 C 108.91 308.76 95.02 320.48 83.01 312.97 C 77.58 315.92 71.21 312.10 65.69 316.29 C 61.48 312.52 55.81 313.34 50.77 312.15 C 45.61 307.44 36.75 314.69 32.36 308.54 C 28.97 305.54 29.06 313.46 25.63 310.42 C 21.61 306.30 15.14 308.38 9.98 307.11 C 6.63 306.72 2.56 305.05 0.00 308.10 L 0.00 271.10 C 8.85 265.22 18.87 274.80 27.49 276.23 C 34.01 272.25 40.43 280.79 46.72 277.76 C 51.48 275.55 55.68 283.41 59.86 278.99 C 61.55 281.97 65.87 283.02 67.96 279.86 C 73.30 277.15 80.16 284.04 85.11 279.29 C 89.33 283.76 100.09 279.02 100.43 286.90 C 103.69 286.61 106.93 284.63 110.03 286.51 C 113.87 285.35 118.03 284.78 121.10 287.85 C 126.66 285.91 132.95 288.18 138.11 285.17 C 140.43 287.17 141.48 290.95 144.94 291.23 C 149.12 292.73 154.27 290.92 157.65 294.40 C 160.92 298.47 166.02 296.40 170.08 294.94 C 173.01 295.47 175.96 295.91 178.90 296.43 C 180.23 296.48 182.89 296.57 184.22 296.61 C 190.55 289.79 195.77 280.15 206.17 279.22 C 208.50 278.71 208.86 275.88 210.15 274.22 C 217.25 274.49 220.74 266.19 220.57 260.11 C 224.25 258.85 226.87 256.02 229.01 252.86 C 230.01 249.15 225.38 248.59 223.69 246.20 L 224.23 245.44 C 230.68 240.65 232.71 231.65 233.92 224.13 C 233.40 218.54 240.63 220.82 244.23 220.10 C 246.57 220.36 248.84 220.16 251.06 219.50 Z" />
</g>
<g id="#8c9195ff">
<path fill="#8c9195" opacity="1.00" d=" M 204.19 210.95 C 210.33 213.27 202.34 223.95 210.94 219.94 C 213.68 228.42 202.83 218.35 201.65 224.00 C 197.21 220.49 205.02 215.59 204.19 210.95 Z" />
</g>
<g id="#56585dff">
<path fill="#56585d" opacity="1.00" d=" M 130.57 213.79 C 133.11 211.91 136.13 212.35 138.96 213.23 C 139.46 216.52 137.26 219.34 135.89 222.12 C 131.98 221.70 131.00 217.00 130.57 213.79 Z" />
</g>
<g id="#6f7879ff">
<path fill="#6f7879" opacity="1.00" d=" M 177.99 218.00 C 182.38 215.27 187.64 221.86 183.78 224.91 C 180.18 225.59 177.13 221.38 177.99 218.00 Z" />
</g>
<g id="#1d1e1fa1">
<path fill="#1d1e1f" opacity="0.63" d=" M 244.20 219.35 L 244.75 218.75 C 246.88 218.52 249.02 218.88 251.06 219.50 C 248.84 220.16 246.57 220.36 244.23 220.10 L 244.20 219.35 Z" />
</g>
<g id="#8d9292ff">
<path fill="#8d9292" opacity="1.00" d=" M 216.62 223.59 C 218.52 222.21 220.52 223.41 221.33 225.35 L 220.74 226.16 C 219.38 227.97 217.98 229.80 216.11 231.12 C 215.77 228.56 212.66 224.55 216.62 223.59 Z" />
</g>
<g id="#00000027">
<path fill="#000000" opacity="0.15" d=" M 16.79 231.59 C 17.20 226.50 25.03 224.50 29.25 226.51 C 35.59 223.67 42.66 229.93 49.58 227.54 C 60.40 228.25 72.63 230.48 80.32 238.48 C 86.82 238.52 92.13 243.52 98.73 242.77 C 107.05 248.58 115.98 251.43 126.00 251.85 C 132.79 249.53 132.07 256.40 133.19 260.22 C 134.80 265.97 135.78 272.06 138.77 277.31 C 132.32 275.97 136.38 265.98 129.88 264.17 C 125.47 264.97 120.94 263.84 116.66 265.42 C 104.76 266.43 93.19 262.49 81.56 260.61 C 73.73 261.12 68.98 252.58 60.98 254.05 C 55.64 255.36 57.72 245.24 50.99 248.91 C 39.12 248.44 27.19 249.26 15.41 247.53 C 11.14 251.77 5.12 249.24 0.00 248.50 L 0.00 239.24 C 2.22 238.96 5.14 239.34 5.58 236.47 C 6.87 231.92 12.71 229.48 16.79 231.59 Z" />
</g>
<g id="#575d59fd">
<path fill="#575d59" opacity="1.00" d=" M 189.31 225.07 C 191.59 227.30 189.06 231.39 193.17 232.02 C 191.22 232.21 188.77 230.66 187.18 232.21 C 186.17 235.97 181.37 238.98 186.94 242.00 C 180.22 245.38 187.85 249.64 191.38 249.35 C 196.57 244.79 198.27 257.16 191.81 254.33 C 196.81 257.38 192.55 259.68 191.54 263.69 C 187.67 263.88 183.76 263.33 179.93 264.15 C 180.16 266.38 185.15 273.38 180.59 272.41 C 177.20 270.68 180.81 275.88 182.19 274.19 C 185.90 271.49 183.14 276.80 182.25 278.53 C 186.87 278.84 186.11 286.36 191.76 283.90 C 192.33 279.04 193.87 273.94 199.64 275.27 C 199.51 279.26 202.22 279.96 206.17 279.22 C 195.77 280.15 190.55 289.79 184.22 296.61 C 182.73 295.25 180.50 295.35 178.90 296.43 C 175.96 295.91 173.01 295.47 170.08 294.94 C 166.31 294.47 165.65 286.41 170.03 288.92 C 174.53 290.01 180.76 290.62 184.23 287.11 C 180.68 287.91 177.18 287.42 174.99 284.27 C 173.06 285.67 171.07 285.70 169.13 284.30 C 170.85 281.68 171.87 277.26 175.69 277.39 C 178.94 276.33 174.57 274.70 173.96 273.22 C 174.26 270.90 174.31 268.56 174.42 266.24 C 174.88 265.59 175.33 264.93 175.76 264.26 C 170.98 261.54 167.25 255.38 169.92 249.96 C 171.48 245.86 177.48 249.42 180.24 247.92 C 178.46 246.93 176.68 245.94 174.99 244.80 C 180.94 241.25 169.56 240.08 174.30 236.34 C 178.40 235.08 174.36 230.25 177.93 228.82 C 178.37 233.05 182.98 236.55 182.23 229.97 C 185.49 230.08 188.35 228.26 189.31 225.07 M 178.97 248.93 C 182.28 251.96 180.35 256.72 184.37 259.18 C 180.12 262.95 187.05 262.20 187.85 258.83 C 189.52 256.38 193.85 249.55 187.81 251.04 C 185.31 249.23 181.86 249.25 178.97 248.93 Z" />
</g>
<g id="#606677ff">
<path fill="#606677" opacity="1.00" d=" M 162.20 226.08 C 167.65 224.69 169.31 238.27 162.30 235.73 C 156.70 234.58 160.00 228.99 162.20 226.08 Z" />
</g>
<g id="#7a8093ff">
<path fill="#7a8093" opacity="1.00" d=" M 177.93 228.82 C 179.39 229.08 180.81 229.52 182.23 229.97 C 182.98 236.55 178.37 233.05 177.93 228.82 Z" />
</g>
<g id="#959799ff">
<path fill="#959799" opacity="1.00" d=" M 189.03 232.99 C 191.59 231.91 196.16 234.48 192.78 236.84 C 189.46 238.05 188.20 236.16 189.03 232.99 Z" />
</g>
<g id="#a4ab8eff">
<path fill="#a4ab8e" opacity="1.00" d=" M 207.19 235.08 C 209.83 233.88 211.60 239.74 208.26 238.61 C 204.80 241.58 206.13 237.29 207.19 235.08 Z" />
</g>
<g id="#12111283">
<path fill="#121112" opacity="0.51" d=" M 133.04 241.06 C 133.31 242.50 133.86 245.40 134.13 246.84 C 133.86 245.40 133.31 242.50 133.04 241.06 Z" />
</g>
<g id="#8c8e99fe">
<path fill="#8c8e99" opacity="1.00" d=" M 220.05 249.06 C 220.17 246.07 219.70 241.22 223.84 240.84 C 224.01 242.37 224.14 243.90 224.23 245.44 L 223.69 246.20 C 222.68 247.41 221.93 249.24 220.05 249.06 Z" />
</g>
<g id="#888c98ff">
<path fill="#888c98" opacity="1.00" d=" M 201.33 244.32 C 203.58 243.32 206.04 243.87 204.92 246.76 C 201.61 246.21 200.04 249.39 197.24 249.98 C 197.23 248.43 194.42 243.91 197.65 245.26 C 198.06 248.51 199.98 245.09 201.33 244.32 Z" />
</g>
<g id="#4c4c50f4">
<path fill="#4c4c50" opacity="0.96" d=" M 220.05 249.06 C 221.93 249.24 222.68 247.41 223.69 246.20 C 225.38 248.59 230.01 249.15 229.01 252.86 C 226.87 256.02 224.25 258.85 220.57 260.11 C 220.74 266.19 217.25 274.49 210.15 274.22 C 211.13 271.93 211.89 269.56 212.32 267.11 C 212.91 264.49 213.43 261.88 214.24 259.33 C 216.16 259.24 218.55 260.66 219.98 258.82 C 219.86 255.00 215.05 253.72 211.91 254.73 C 212.17 253.03 213.58 246.16 214.06 251.03 C 216.02 254.59 217.79 243.45 220.05 249.06 Z" />
</g>
<g id="#0000001e">
<path fill="#000000" opacity="0.12" d=" M 15.41 247.53 C 27.19 249.26 39.12 248.44 50.99 248.91 C 57.72 245.24 55.64 255.36 60.98 254.05 C 68.98 252.58 73.73 261.12 81.56 260.61 C 93.19 262.49 104.76 266.43 116.66 265.42 C 120.94 263.84 125.47 264.97 129.88 264.17 C 136.38 265.98 132.32 275.97 138.77 277.31 C 139.94 277.77 141.14 278.17 142.25 278.77 C 142.43 281.83 141.10 285.39 142.88 288.15 C 143.52 289.21 144.24 290.21 144.94 291.23 C 141.48 290.95 140.43 287.17 138.11 285.17 C 132.95 288.18 126.66 285.91 121.10 287.85 C 118.03 284.78 113.87 285.35 110.03 286.51 C 106.93 284.63 103.69 286.61 100.43 286.90 C 100.09 279.02 89.33 283.76 85.11 279.29 C 80.16 284.04 73.30 277.15 67.96 279.86 C 65.87 283.02 61.55 281.97 59.86 278.99 C 55.68 283.41 51.48 275.55 46.72 277.76 C 40.43 280.79 34.01 272.25 27.49 276.23 C 18.87 274.80 8.85 265.22 0.00 271.10 L 0.00 248.50 C 5.12 249.24 11.14 251.77 15.41 247.53 Z" />
</g>
<g id="#8a8997ff">
<path fill="#8a8997" opacity="1.00" d=" M 178.97 248.93 C 181.86 249.25 185.31 249.23 187.81 251.04 C 188.09 254.23 187.61 257.65 184.37 259.18 C 180.35 256.72 182.28 251.96 178.97 248.93 Z" />
</g>
<g id="#6e7073ff">
<path fill="#6e7073" opacity="1.00" d=" M 187.81 251.04 C 193.85 249.55 189.52 256.38 187.85 258.83 C 187.05 262.20 180.12 262.95 184.37 259.18 C 187.61 257.65 188.09 254.23 187.81 251.04 Z" />
</g>
<g id="#5d6362ff">
<path fill="#5d6362" opacity="1.00" d=" M 153.46 279.50 C 148.11 272.21 148.46 259.38 158.99 256.98 C 163.08 259.45 167.17 261.93 171.41 264.16 C 168.99 266.67 163.05 267.33 163.41 271.87 C 162.16 274.71 159.23 277.38 160.12 280.74 C 162.24 283.53 166.08 283.32 169.13 284.30 C 163.25 286.07 158.01 282.70 153.46 279.50 Z" />
</g>
<g id="#96979eff">
<path fill="#96979e" opacity="1.00" d=" M 204.22 263.38 C 206.85 258.43 215.09 259.94 212.32 267.11 C 208.99 267.99 201.26 270.82 204.22 263.38 Z" />
</g>
<g id="#8b927bff">
<path fill="#8b927b" opacity="1.00" d=" M 171.41 264.16 C 172.43 264.81 173.42 265.53 174.42 266.24 C 174.31 268.56 174.26 270.90 173.96 273.22 C 170.34 275.40 166.46 274.68 163.41 271.87 C 163.05 267.33 168.99 266.67 171.41 264.16 Z" />
</g>
<g id="#a4a7a2ff">
<path fill="#a4a7a2" opacity="1.00" d=" M 190.22 267.12 C 192.70 265.60 195.95 269.87 192.37 270.45 C 190.02 272.40 187.48 268.39 190.22 267.12 Z" />
</g>
<g id="#70784eff">
<path fill="#70784e" opacity="1.00" d=" M 160.12 280.74 C 159.23 277.38 162.16 274.71 163.41 271.87 C 166.46 274.68 170.34 275.40 173.96 273.22 C 174.57 274.70 178.94 276.33 175.69 277.39 C 171.87 277.26 170.85 281.68 169.13 284.30 C 166.08 283.32 162.24 283.53 160.12 280.74 Z" />
</g>
<g id="#1416197d">
<path fill="#141619" opacity="0.49" d=" M 142.25 278.77 C 143.78 281.63 142.63 285.03 142.88 288.15 C 141.10 285.39 142.43 281.83 142.25 278.77 Z" />
</g>
<g id="#262a18a1">
<path fill="#262a18" opacity="0.63" d=" M 178.90 296.43 C 180.50 295.35 182.73 295.25 184.22 296.61 C 182.89 296.57 180.23 296.48 178.90 296.43 Z" />
</g>
<g id="#0000000c">
<path fill="#000000" opacity="0.05" d=" M 316.85 307.82 C 315.73 313.81 322.33 308.61 316.85 307.82 Z" />
<path fill="#000000" opacity="0.05" d=" M 275.02 338.01 C 278.19 336.65 279.14 340.21 276.78 341.83 C 274.00 343.15 275.19 339.57 275.02 338.01 Z" />
</g>
</svg>
