<?xml version="1.0" encoding="UTF-8" ?>
<!DOCTYPE svg PUBLIC "-//W3C//DTD SVG 1.1//EN" "http://www.w3.org/Graphics/SVG/1.1/DTD/svg11.dtd">
<svg width="384pt" height="384pt" viewBox="0 0 384 384" version="1.1" xmlns="http://www.w3.org/2000/svg">
<g id="#00000012">
<path fill="#000000" opacity="0.07" d=" M 0.00 34.87 C 4.85 38.12 13.19 31.33 14.16 36.07 C 18.07 35.99 21.91 35.09 25.82 35.10 C 24.87 45.59 27.22 38.52 28.49 36.23 C 33.03 37.73 38.08 39.53 42.77 37.65 C 48.57 43.84 57.30 38.28 64.41 41.23 C 78.07 41.71 91.24 42.33 104.60 44.51 C 107.05 43.65 110.81 41.51 110.16 45.93 C 113.71 52.26 122.90 42.87 125.23 48.83 C 134.10 50.60 139.92 56.91 147.52 60.49 C 151.48 64.25 156.42 68.86 162.32 67.28 C 165.71 66.15 163.81 72.14 166.70 71.58 C 170.44 71.67 170.44 78.80 174.62 77.55 C 180.08 76.34 184.85 80.01 189.12 82.84 C 193.25 87.38 199.73 88.52 202.76 94.24 C 207.24 99.41 215.40 100.11 220.21 104.80 C 216.34 104.36 211.88 104.80 209.74 100.96 C 207.66 99.26 205.48 98.97 203.21 100.10 C 200.38 95.92 196.25 91.72 191.08 91.02 C 188.28 90.74 185.63 89.74 183.21 88.36 C 182.15 87.76 181.09 87.18 180.02 86.61 C 178.53 86.43 175.56 86.07 174.07 85.89 C 170.20 86.73 165.72 89.54 162.04 86.94 C 156.23 83.06 148.61 83.52 143.29 78.68 C 140.42 76.19 135.29 78.31 133.23 74.82 C 131.57 71.06 126.81 72.73 123.63 71.34 C 119.21 69.28 115.13 66.56 110.90 64.16 C 105.32 66.05 98.79 64.78 94.05 61.36 C 89.51 62.43 84.68 64.75 80.04 62.92 C 76.16 60.73 71.68 62.48 67.46 62.35 C 65.53 69.71 59.04 57.31 55.08 63.05 C 51.06 68.81 43.08 62.55 38.71 67.71 C 33.77 72.21 22.91 61.82 22.60 71.72 C 14.88 72.51 7.57 71.14 0.00 74.11 L 0.00 34.87 Z" />
<path fill="#000000" opacity="0.07" d=" M 221.07 105.96 C 222.93 107.91 224.94 109.76 227.55 110.63 C 236.67 113.26 234.34 124.12 241.40 128.61 C 245.53 135.66 248.94 143.53 256.12 147.89 C 259.12 151.14 258.65 159.00 264.82 156.30 C 264.92 161.78 271.13 163.49 273.33 168.70 C 275.37 172.97 282.46 161.50 279.02 172.95 C 276.18 180.80 283.11 177.60 286.67 179.16 C 286.49 183.08 286.74 187.13 285.33 190.87 C 293.29 190.01 283.57 195.54 286.89 199.45 C 289.07 202.43 282.10 205.74 287.12 206.83 C 292.16 207.72 289.40 212.59 287.11 214.97 C 290.53 218.29 288.52 225.94 296.05 223.27 C 291.02 230.75 298.72 235.95 298.94 243.15 C 299.64 244.99 302.16 247.12 299.60 248.58 C 295.34 251.13 303.44 258.18 296.82 258.77 C 300.19 257.90 303.25 261.11 298.93 262.93 C 291.57 264.82 296.07 274.05 290.73 277.73 C 288.76 278.26 289.77 280.30 289.66 281.75 C 281.84 284.55 278.61 293.80 270.95 296.87 C 266.82 298.41 264.58 302.52 261.39 305.29 C 253.22 312.27 242.10 314.96 231.83 315.85 C 229.57 319.75 225.20 317.74 222.10 320.00 C 213.65 319.63 205.65 324.40 197.02 322.35 C 191.52 329.18 182.80 325.86 176.61 331.55 C 170.16 333.10 163.47 332.91 157.47 336.36 C 152.47 335.17 148.01 337.21 144.12 340.09 C 133.44 343.69 121.68 338.81 111.16 342.89 C 109.97 340.66 110.88 335.94 107.12 337.19 C 93.55 340.04 78.36 332.24 65.08 338.94 C 61.73 336.91 57.22 334.77 53.79 337.82 C 50.00 341.29 52.13 331.42 48.06 333.03 C 42.03 337.01 36.17 330.35 30.17 333.29 C 19.94 331.62 9.88 334.91 0.00 334.02 L 0.00 288.03 C 5.95 289.10 13.24 287.89 17.23 293.39 C 21.29 291.81 25.15 291.46 27.31 295.80 C 33.85 292.61 39.13 297.33 45.89 293.98 C 45.94 304.15 59.26 293.41 64.82 299.16 C 67.86 299.64 74.95 291.97 71.96 302.02 C 72.06 306.17 79.06 298.89 80.29 304.70 C 84.32 300.13 90.05 304.58 94.86 304.80 C 102.11 302.03 109.17 305.30 116.58 305.41 C 122.33 304.78 128.57 302.67 134.62 303.65 C 140.53 306.57 146.61 300.44 152.66 303.41 C 161.53 302.33 169.41 293.92 179.35 296.65 C 187.70 299.06 196.11 299.69 204.28 298.26 C 207.31 296.01 210.96 295.88 214.62 296.46 C 224.89 293.14 233.86 287.07 244.87 287.87 C 249.22 286.78 252.76 283.05 257.58 285.19 C 260.69 285.58 266.61 287.98 267.14 282.96 C 269.75 280.70 273.99 279.21 272.89 275.03 C 278.45 273.79 280.05 268.31 284.12 265.16 C 284.98 261.82 288.49 261.52 291.17 260.29 C 291.70 259.33 292.13 258.33 292.45 257.28 C 293.07 254.98 294.78 252.37 293.17 250.11 C 289.68 244.13 282.88 250.64 277.92 250.24 C 275.76 249.32 273.70 248.18 271.69 246.99 C 272.25 245.00 273.77 243.75 275.83 243.62 C 277.40 243.53 280.56 243.36 282.13 243.27 C 287.43 243.18 297.00 235.13 288.25 232.68 C 284.80 231.91 281.39 232.02 278.01 233.02 C 272.60 233.15 267.14 232.69 261.82 233.85 C 254.79 234.57 248.64 237.92 243.24 242.28 C 238.03 247.04 230.63 245.85 224.16 246.89 C 224.04 246.38 223.79 245.35 223.67 244.83 C 223.30 237.98 223.38 231.05 229.01 226.24 C 230.11 224.87 231.23 223.51 232.19 222.03 C 234.04 218.60 235.31 214.88 236.30 211.12 C 237.27 210.01 237.43 208.50 237.16 207.10 C 237.56 203.38 237.84 199.66 237.99 195.93 C 245.07 191.24 254.22 197.42 261.21 192.55 C 267.03 188.84 277.74 185.52 274.78 176.28 C 271.24 171.05 264.74 169.01 259.18 166.62 C 257.62 166.49 254.49 166.22 252.92 166.09 C 252.50 166.03 251.65 165.92 251.22 165.87 C 246.86 165.08 242.44 165.07 238.04 164.96 C 237.79 164.48 237.28 163.54 237.03 163.07 C 236.89 161.53 236.60 158.46 236.46 156.92 C 234.41 149.55 230.60 142.55 224.76 137.51 C 225.09 135.06 227.45 136.80 228.94 136.97 C 231.57 137.60 234.65 138.92 237.13 137.19 C 237.46 137.00 238.13 136.60 238.46 136.41 C 243.13 131.99 235.63 127.13 231.50 125.69 C 233.56 121.87 232.76 117.68 229.65 114.79 C 228.14 111.26 224.32 110.90 221.05 109.90 C 221.05 108.59 221.06 107.27 221.07 105.96 Z" />
</g>
<g id="#0000001a">
<path fill="#000000" opacity="0.10" d=" M 55.08 63.05 C 59.04 57.31 65.53 69.71 67.46 62.35 C 71.68 62.48 76.16 60.73 80.04 62.92 C 84.68 64.75 89.51 62.43 94.05 61.36 C 98.79 64.78 105.32 66.05 110.90 64.16 C 115.13 66.56 119.21 69.28 123.63 71.34 C 126.81 72.73 131.57 71.06 133.23 74.82 C 135.29 78.31 140.42 76.19 143.29 78.68 C 148.61 83.52 156.23 83.06 162.04 86.94 C 165.72 89.54 170.20 86.73 174.07 85.89 L 173.95 86.59 C 168.79 91.36 161.90 92.50 155.06 92.00 C 151.17 91.01 149.69 94.50 147.90 97.24 C 141.44 97.51 136.21 91.57 130.27 88.58 C 122.23 85.93 113.66 85.76 105.79 81.73 C 101.06 83.50 96.70 82.89 92.29 81.02 C 88.59 89.60 76.38 84.25 69.03 85.08 C 62.99 87.04 56.56 91.17 50.13 88.79 C 44.40 86.67 39.10 94.34 33.58 90.63 C 22.70 91.68 10.64 96.78 0.00 91.00 L 0.00 74.11 C 7.57 71.14 14.88 72.51 22.60 71.72 C 22.91 61.82 33.77 72.21 38.71 67.71 C 43.08 62.55 51.06 68.81 55.08 63.05 Z" />
</g>
<g id="#00000022">
<path fill="#000000" opacity="0.13" d=" M 92.29 81.02 C 96.70 82.89 101.06 83.50 105.79 81.73 C 113.66 85.76 122.23 85.93 130.27 88.58 C 136.21 91.57 141.44 97.51 147.90 97.24 C 149.69 94.50 151.17 91.01 155.06 92.00 C 153.31 93.35 151.92 95.06 150.65 96.85 C 150.56 98.43 150.38 101.58 150.30 103.15 C 147.07 106.25 142.65 108.53 140.71 112.76 C 140.55 113.08 140.24 113.72 140.08 114.04 C 137.66 116.08 133.81 116.93 131.20 114.81 C 127.10 111.43 121.55 115.21 116.96 114.93 C 108.45 118.44 112.89 112.57 114.04 109.92 C 110.28 108.59 104.85 116.99 103.47 110.67 C 99.80 108.41 93.78 115.44 90.00 110.91 C 85.27 115.20 80.04 108.63 74.54 111.49 C 73.10 117.86 66.12 112.72 61.72 112.18 C 58.24 109.70 55.86 114.40 52.38 114.53 C 49.16 116.01 47.25 111.92 44.18 111.68 C 41.17 110.05 38.77 112.77 36.13 113.81 C 33.38 111.71 29.75 108.99 26.29 111.27 C 23.67 113.25 22.48 109.66 20.57 108.42 C 13.69 106.99 7.03 104.53 0.00 103.81 L 0.00 91.00 C 10.64 96.78 22.70 91.68 33.58 90.63 C 39.10 94.34 44.40 86.67 50.13 88.79 C 56.56 91.17 62.99 87.04 69.03 85.08 C 76.38 84.25 88.59 89.60 92.29 81.02 Z" />
</g>
<g id="#2527318f">
<path fill="#252731" opacity="0.56" d=" M 174.07 85.89 C 175.56 86.07 178.53 86.43 180.02 86.61 C 178.06 87.28 175.86 87.58 173.95 86.59 L 174.07 85.89 Z" />
</g>
<g id="#424854ff">
<path fill="#424854" opacity="1.00" d=" M 155.06 92.00 C 161.90 92.50 168.79 91.36 173.95 86.59 C 168.46 93.03 179.92 88.36 183.21 88.36 C 185.63 89.74 188.28 90.74 191.08 91.02 C 190.58 95.78 185.75 94.96 181.99 95.14 C 181.72 97.76 185.18 97.38 186.80 98.43 C 187.95 101.98 183.54 104.26 183.97 107.77 C 186.09 112.10 185.15 122.90 192.00 120.16 C 193.78 126.25 187.38 122.93 183.94 122.95 C 183.71 125.66 187.14 125.17 188.85 126.18 C 186.99 128.20 185.40 130.33 187.84 132.60 C 185.45 133.48 183.03 134.84 183.99 137.83 C 185.92 139.01 188.93 138.71 189.75 141.24 C 189.92 143.71 186.88 146.14 188.70 148.44 C 189.62 150.51 192.62 152.09 191.74 154.59 C 186.49 156.76 177.95 162.34 185.83 166.96 C 188.05 164.49 191.28 162.93 193.68 166.11 C 196.64 170.76 193.05 174.70 191.84 179.10 C 193.68 177.19 195.70 174.67 196.21 178.85 C 198.42 182.58 194.42 186.05 195.40 189.92 C 193.75 191.95 191.80 191.55 189.90 190.16 C 188.16 191.05 187.52 193.57 185.36 193.71 C 177.77 189.89 181.87 200.59 176.37 201.45 C 172.03 204.01 180.54 207.48 176.75 210.89 C 172.80 211.97 167.99 213.13 165.29 216.19 C 165.52 221.31 156.16 223.35 157.18 217.03 C 159.26 211.21 151.22 215.85 148.62 215.21 C 144.75 211.85 150.17 208.92 153.44 208.68 C 151.62 204.43 156.80 202.10 156.11 197.96 C 150.04 198.22 148.86 210.60 142.84 205.24 C 142.26 201.58 142.21 197.42 140.94 193.68 C 145.25 192.32 143.91 199.66 146.00 202.08 C 151.14 196.76 149.12 184.16 159.77 185.94 C 154.46 179.41 164.13 183.06 166.12 178.03 C 165.15 175.90 161.14 173.18 164.24 171.09 C 167.56 170.03 168.28 174.46 171.03 175.18 C 171.67 171.67 169.10 169.04 167.44 166.28 C 170.96 166.02 171.20 171.60 174.99 171.02 C 179.50 172.28 176.43 165.45 176.93 162.84 C 174.54 163.29 173.63 166.49 170.95 166.07 C 169.78 160.96 182.46 158.35 176.05 153.92 C 170.75 148.46 162.60 157.33 170.83 158.46 C 171.56 162.45 166.07 162.57 167.44 166.28 C 165.76 163.93 161.52 156.04 162.68 163.10 C 161.54 165.21 150.19 168.31 154.42 162.75 C 152.91 159.16 150.47 154.47 147.35 151.80 C 147.35 155.81 145.33 159.32 144.68 163.18 C 144.87 156.91 139.37 157.39 135.92 160.97 C 138.07 158.47 137.77 150.61 142.03 154.87 C 142.11 153.04 140.30 147.14 143.56 148.62 C 146.77 150.78 149.07 144.97 152.09 149.10 C 153.66 144.46 144.62 144.10 147.71 139.72 C 149.14 134.14 156.31 135.41 157.25 130.14 C 158.65 126.77 155.97 123.33 155.72 120.02 C 153.09 119.78 151.16 121.84 148.96 122.90 C 145.60 119.71 139.33 118.64 140.71 112.76 C 142.65 108.53 147.07 106.25 150.30 103.15 C 150.38 101.58 150.56 98.43 150.65 96.85 C 151.92 95.06 153.31 93.35 155.06 92.00 M 164.19 93.08 C 157.46 98.14 171.99 100.20 171.94 95.16 C 169.69 93.69 166.90 92.71 164.19 93.08 M 172.62 107.53 C 165.13 108.54 164.38 122.63 173.03 121.88 C 173.62 125.41 179.62 122.63 179.99 120.04 C 182.70 117.65 184.39 112.70 181.22 109.89 C 181.77 107.10 178.60 108.08 176.91 107.81 C 177.29 105.85 173.80 107.40 172.62 107.53 M 154.23 108.13 C 151.91 110.82 148.00 115.68 151.23 118.88 C 158.57 121.61 162.07 107.50 154.23 108.13 M 177.28 132.26 C 174.33 133.56 170.11 136.91 172.67 140.35 C 177.85 143.93 185.00 131.79 177.28 132.26 M 184.22 182.10 C 180.13 185.10 187.76 192.12 190.32 187.30 C 193.18 183.55 187.07 181.88 184.22 182.10 M 166.29 193.17 C 164.92 195.80 159.78 199.04 163.24 201.90 C 170.60 206.05 172.32 192.13 166.29 193.17 Z" />
</g>
<g id="#63687af8">
<path fill="#63687a" opacity="0.97" d=" M 173.95 86.59 C 175.86 87.58 178.06 87.28 180.02 86.61 C 181.09 87.18 182.15 87.76 183.21 88.36 C 179.92 88.36 168.46 93.03 173.95 86.59 Z" />
</g>
<g id="#585e60fb">
<path fill="#585e60" opacity="1.00" d=" M 191.08 91.02 C 196.25 91.72 200.38 95.92 203.21 100.10 C 205.20 101.74 207.38 102.03 209.74 100.96 C 211.88 104.80 216.34 104.36 220.21 104.80 C 220.42 105.09 220.85 105.67 221.07 105.96 C 221.06 107.27 221.05 108.59 221.05 109.90 C 220.54 109.61 219.51 109.04 219.00 108.76 C 216.22 105.89 212.53 104.76 209.28 107.38 C 209.74 110.76 209.71 114.18 208.42 117.41 C 207.12 115.44 209.99 107.29 204.99 107.95 C 202.20 107.33 202.03 110.31 202.53 112.23 C 197.38 111.87 199.01 103.45 193.03 106.96 C 191.68 107.01 190.90 107.73 190.70 109.10 C 188.41 110.36 186.20 108.23 183.97 107.77 C 183.54 104.26 187.95 101.98 186.80 98.43 C 185.18 97.38 181.72 97.76 181.99 95.14 C 185.75 94.96 190.58 95.78 191.08 91.02 Z" />
</g>
<g id="#6b7184ff">
<path fill="#6b7184" opacity="1.00" d=" M 164.19 93.08 C 166.90 92.71 169.69 93.69 171.94 95.16 C 171.99 100.20 157.46 98.14 164.19 93.08 Z" />
</g>
<g id="#17181989">
<path fill="#171819" opacity="0.54" d=" M 150.30 103.15 C 150.38 101.58 150.56 98.43 150.65 96.85 C 150.56 98.43 150.38 101.58 150.30 103.15 Z" />
</g>
<g id="#2b2f34a8">
<path fill="#2b2f34" opacity="0.66" d=" M 203.21 100.10 C 205.48 98.97 207.66 99.26 209.74 100.96 C 207.38 102.03 205.20 101.74 203.21 100.10 Z" />
</g>
<g id="#0000002b">
<path fill="#000000" opacity="0.17" d=" M 0.00 103.81 C 7.03 104.53 13.69 106.99 20.57 108.42 C 22.48 109.66 23.67 113.25 26.29 111.27 C 29.75 108.99 33.38 111.71 36.13 113.81 C 38.77 112.77 41.17 110.05 44.18 111.68 C 47.25 111.92 49.16 116.01 52.38 114.53 C 55.86 114.40 58.24 109.70 61.72 112.18 C 66.12 112.72 73.10 117.86 74.54 111.49 C 80.04 108.63 85.27 115.20 90.00 110.91 C 93.78 115.44 99.80 108.41 103.47 110.67 C 104.85 116.99 110.28 108.59 114.04 109.92 C 112.89 112.57 108.45 118.44 116.96 114.93 C 121.55 115.21 127.10 111.43 131.20 114.81 C 133.81 116.93 137.66 116.08 140.08 114.04 C 139.43 120.08 136.63 126.33 140.41 131.92 C 133.76 136.94 124.39 131.05 116.66 132.27 C 110.75 132.63 105.71 134.43 100.13 132.15 C 91.45 136.10 82.21 139.55 72.33 138.63 C 48.29 136.48 24.08 135.66 0.00 135.09 L 0.00 103.81 Z" />
</g>
<g id="#6c7077ff">
<path fill="#6c7077" opacity="1.00" d=" M 209.28 107.38 C 212.53 104.76 216.22 105.89 219.00 108.76 C 208.11 108.25 214.54 124.97 223.09 122.05 C 218.87 127.56 229.48 122.35 229.71 127.30 C 231.27 130.55 224.43 133.22 225.51 128.96 C 225.72 124.82 220.39 130.19 221.47 132.57 C 221.65 134.59 225.12 134.45 223.93 137.53 C 223.80 137.82 223.52 138.39 223.38 138.68 C 222.25 141.64 222.80 147.16 219.94 143.16 C 216.95 139.67 218.22 134.61 215.78 131.04 C 212.60 129.96 211.50 132.62 210.81 135.17 L 210.06 135.00 C 211.11 129.99 206.34 127.30 201.92 127.86 C 203.84 125.59 204.61 123.40 200.84 123.19 C 196.38 123.23 202.39 116.00 198.03 116.98 C 195.40 116.22 196.11 119.09 195.81 120.72 C 194.01 124.08 191.43 127.69 192.20 131.69 C 194.57 134.73 201.67 138.06 199.91 141.82 C 196.21 137.02 193.52 141.60 190.84 144.76 C 194.65 143.05 196.54 146.36 198.12 149.28 C 197.26 150.06 196.41 150.83 195.55 151.60 C 193.69 150.61 194.28 149.36 195.74 148.33 C 193.53 146.43 191.18 149.35 188.70 148.44 C 186.88 146.14 189.92 143.71 189.75 141.24 C 188.93 138.71 185.92 139.01 183.99 137.83 C 183.03 134.84 185.45 133.48 187.84 132.60 C 185.40 130.33 186.99 128.20 188.85 126.18 C 187.14 125.17 183.71 125.66 183.94 122.95 C 187.38 122.93 193.78 126.25 192.00 120.16 C 185.15 122.90 186.09 112.10 183.97 107.77 C 186.20 108.23 188.41 110.36 190.70 109.10 C 190.66 111.83 191.88 114.93 194.99 115.21 C 196.50 111.90 194.64 109.38 193.03 106.96 C 199.01 103.45 197.38 111.87 202.53 112.23 C 202.03 110.31 202.20 107.33 204.99 107.95 C 209.99 107.29 207.12 115.44 208.42 117.41 C 209.71 114.18 209.74 110.76 209.28 107.38 Z" />
</g>
<g id="#666a81ff">
<path fill="#666a81" opacity="1.00" d=" M 172.62 107.53 C 173.80 107.40 177.29 105.85 176.91 107.81 C 170.80 107.34 175.20 113.42 172.30 116.27 C 171.92 118.15 172.79 120.02 173.03 121.88 C 164.38 122.63 165.13 108.54 172.62 107.53 Z" />
</g>
<g id="#969aa9ff">
<path fill="#969aa9" opacity="1.00" d=" M 190.70 109.10 C 190.90 107.73 191.68 107.01 193.03 106.96 C 194.64 109.38 196.50 111.90 194.99 115.21 C 191.88 114.93 190.66 111.83 190.70 109.10 Z" />
</g>
<g id="#5c6278ff">
<path fill="#5c6278" opacity="1.00" d=" M 154.23 108.13 C 162.07 107.50 158.57 121.61 151.23 118.88 C 148.00 115.68 151.91 110.82 154.23 108.13 Z" />
</g>
<g id="#9499a6ff">
<path fill="#9499a6" opacity="1.00" d=" M 172.30 116.27 C 175.20 113.42 170.80 107.34 176.91 107.81 C 178.60 108.08 181.77 107.10 181.22 109.89 C 181.28 113.45 178.49 116.43 179.99 120.04 C 179.62 122.63 173.62 125.41 173.03 121.88 C 172.79 120.02 171.92 118.15 172.30 116.27 Z" />
</g>
<g id="#9ea1b1ff">
<path fill="#9ea1b1" opacity="1.00" d=" M 223.09 122.05 C 214.54 124.97 208.11 108.25 219.00 108.76 C 220.28 113.21 221.95 117.56 223.09 122.05 Z" />
</g>
<g id="#6e7479fb">
<path fill="#6e7479" opacity="1.00" d=" M 219.00 108.76 C 219.51 109.04 220.54 109.61 221.05 109.90 C 224.32 110.90 228.14 111.26 229.65 114.79 C 227.56 117.29 225.01 119.40 223.09 122.05 C 221.95 117.56 220.28 113.21 219.00 108.76 Z" />
</g>
<g id="#787e6cff">
<path fill="#787e6c" opacity="1.00" d=" M 181.22 109.89 C 184.39 112.70 182.70 117.65 179.99 120.04 C 178.49 116.43 181.28 113.45 181.22 109.89 Z" />
</g>
<g id="#35363bfc">
<path fill="#35363b" opacity="1.00" d=" M 140.08 114.04 C 140.24 113.72 140.55 113.08 140.71 112.76 C 139.33 118.64 145.60 119.71 148.96 122.90 C 151.16 121.84 153.09 119.78 155.72 120.02 C 155.97 123.33 158.65 126.77 157.25 130.14 C 156.31 135.41 149.14 134.14 147.71 139.72 C 144.62 144.10 153.66 144.46 152.09 149.10 C 149.07 144.97 146.77 150.78 143.56 148.62 C 140.30 147.14 142.11 153.04 142.03 154.87 C 137.77 150.61 138.07 158.47 135.92 160.97 C 133.16 165.97 135.38 173.31 141.00 174.98 C 146.96 173.86 146.33 167.83 144.68 163.18 C 145.33 159.32 147.35 155.81 147.35 151.80 C 150.47 154.47 152.91 159.16 154.42 162.75 C 150.19 168.31 161.54 165.21 162.68 163.10 C 161.52 156.04 165.76 163.93 167.44 166.28 C 169.10 169.04 171.67 171.67 171.03 175.18 C 168.28 174.46 167.56 170.03 164.24 171.09 C 161.14 173.18 165.15 175.90 166.12 178.03 C 164.13 183.06 154.46 179.41 159.77 185.94 C 149.12 184.16 151.14 196.76 146.00 202.08 C 143.91 199.66 145.25 192.32 140.94 193.68 C 141.80 191.28 142.70 188.86 143.07 186.33 C 141.04 186.42 139.01 186.43 136.99 186.11 C 141.22 182.97 138.94 180.10 135.97 177.09 C 135.63 176.06 135.26 175.04 134.87 174.03 C 134.67 173.52 134.27 172.50 134.07 171.99 C 133.96 167.59 132.32 162.76 134.74 158.72 C 135.97 156.60 137.63 154.41 136.50 151.85 C 136.35 151.15 136.07 149.74 135.92 149.04 C 137.18 145.81 137.87 142.42 138.10 138.96 C 138.67 136.59 141.36 134.41 140.41 131.92 C 136.63 126.33 139.43 120.08 140.08 114.04 Z" />
</g>
<g id="#4e4e55f7">
<path fill="#4e4e55" opacity="0.97" d=" M 229.65 114.79 C 232.76 117.68 233.56 121.87 231.50 125.69 C 235.63 127.13 243.13 131.99 238.46 136.41 C 233.21 133.94 227.39 131.15 221.47 132.57 C 220.39 130.19 225.72 124.82 225.51 128.96 C 224.43 133.22 231.27 130.55 229.71 127.30 C 229.48 122.35 218.87 127.56 223.09 122.05 C 225.01 119.40 227.56 117.29 229.65 114.79 Z" />
</g>
<g id="#848792ff">
<path fill="#848792" opacity="1.00" d=" M 195.81 120.72 C 196.11 119.09 195.40 116.22 198.03 116.98 C 202.39 116.00 196.38 123.23 200.84 123.19 C 204.61 123.40 203.84 125.59 201.92 127.86 C 196.45 130.55 198.48 123.00 195.81 120.72 Z" />
</g>
<g id="#535a63ff">
<path fill="#535a63" opacity="1.00" d=" M 192.20 131.69 C 191.43 127.69 194.01 124.08 195.81 120.72 C 198.48 123.00 196.45 130.55 201.92 127.86 C 206.34 127.30 211.11 129.99 210.06 135.00 C 206.91 136.18 203.08 138.95 206.91 141.91 C 205.69 144.09 207.39 146.10 208.03 148.15 C 204.56 147.91 203.03 139.86 199.39 144.41 C 195.74 145.76 202.88 151.07 198.12 149.28 C 196.54 146.36 194.65 143.05 190.84 144.76 C 193.52 141.60 196.21 137.02 199.91 141.82 C 201.67 138.06 194.57 134.73 192.20 131.69 Z" />
</g>
<g id="#828a4fff">
<path fill="#828a4f" opacity="1.00" d=" M 210.81 135.17 C 211.50 132.62 212.60 129.96 215.78 131.04 C 218.22 134.61 216.95 139.67 219.94 143.16 C 222.48 147.99 212.64 155.86 211.33 149.29 C 214.90 146.68 215.48 143.96 210.94 142.22 C 214.98 140.20 216.37 135.89 210.81 135.17 Z" />
</g>
<g id="#00000037">
<path fill="#000000" opacity="0.22" d=" M 72.33 138.63 C 82.21 139.55 91.45 136.10 100.13 132.15 C 105.71 134.43 110.75 132.63 116.66 132.27 C 124.39 131.05 133.76 136.94 140.41 131.92 C 141.36 134.41 138.67 136.59 138.10 138.96 C 137.04 141.22 137.02 144.36 134.67 145.77 C 89.72 148.73 45.03 139.88 0.00 142.00 L 0.00 135.09 C 24.08 135.66 48.29 136.48 72.33 138.63 Z" />
</g>
<g id="#696e78ff">
<path fill="#696e78" opacity="1.00" d=" M 177.28 132.26 C 185.00 131.79 177.85 143.93 172.67 140.35 C 170.11 136.91 174.33 133.56 177.28 132.26 Z" />
</g>
<g id="#34343af8">
<path fill="#34343a" opacity="0.97" d=" M 221.47 132.57 C 227.39 131.15 233.21 133.94 238.46 136.41 C 238.13 136.60 237.46 137.00 237.13 137.19 C 234.39 137.18 231.66 137.11 228.94 136.97 C 227.45 136.80 225.09 135.06 224.76 137.51 L 223.93 137.53 C 225.12 134.45 221.65 134.59 221.47 132.57 Z" />
</g>
<g id="#626d3bff">
<path fill="#626d3b" opacity="1.00" d=" M 210.06 135.00 L 210.81 135.17 C 216.37 135.89 214.98 140.20 210.94 142.22 C 209.59 142.11 208.25 142.01 206.91 141.91 C 203.08 138.95 206.91 136.18 210.06 135.00 Z" />
</g>
<g id="#111012a0">
<path fill="#111012" opacity="0.63" d=" M 228.94 136.97 C 231.66 137.11 234.39 137.18 237.13 137.19 C 234.65 138.92 231.57 137.60 228.94 136.97 Z" />
</g>
<g id="#5f646efd">
<path fill="#5f646e" opacity="1.00" d=" M 223.38 138.68 C 223.52 138.39 223.80 137.82 223.93 137.53 L 224.76 137.51 C 230.60 142.55 234.41 149.55 236.46 156.92 C 235.52 158.90 235.22 161.28 236.42 163.23 C 234.17 164.62 232.09 163.44 230.38 161.87 C 230.76 163.31 230.71 164.48 228.83 164.00 C 228.36 161.06 230.75 160.86 233.05 160.68 C 232.48 158.33 231.29 155.14 228.26 155.99 C 227.87 158.67 227.57 161.42 227.08 164.10 C 225.52 164.69 221.53 164.74 224.60 166.45 C 229.39 168.82 220.23 172.60 221.00 167.98 C 220.39 163.35 217.99 168.27 217.91 170.99 C 214.37 174.41 215.09 179.57 214.92 184.07 C 213.13 181.96 211.77 179.09 209.15 177.95 C 208.39 180.14 208.25 187.67 206.11 184.00 C 206.90 178.28 201.81 184.20 199.09 181.88 C 199.11 178.50 204.04 178.35 206.69 178.58 C 206.72 174.84 208.76 171.76 210.08 168.44 C 213.16 166.65 215.52 163.62 211.95 160.83 C 210.36 157.98 202.39 159.92 206.45 156.43 C 208.49 155.06 206.18 151.85 208.82 150.89 C 211.25 155.25 217.77 155.23 219.42 150.30 C 221.34 153.60 225.57 154.01 225.83 149.57 C 230.47 147.69 225.72 145.04 223.38 143.80 C 223.39 142.09 223.48 140.38 223.38 138.68 Z" />
</g>
<g id="#00000048">
<path fill="#000000" opacity="0.28" d=" M 134.67 145.77 C 137.02 144.36 137.04 141.22 138.10 138.96 C 137.87 142.42 137.18 145.81 135.92 149.04 C 90.77 153.64 45.07 141.92 0.00 150.21 L 0.00 142.00 C 45.03 139.88 89.72 148.73 134.67 145.77 Z" />
<path fill="#000000" opacity="0.28" d=" M 0.00 158.83 C 17.31 162.64 35.00 163.35 52.63 164.68 C 73.78 164.22 94.45 170.01 115.13 173.79 C 122.00 175.35 129.45 174.10 135.97 177.09 C 138.94 180.10 141.22 182.97 136.99 186.11 C 135.87 187.49 134.88 189.02 134.59 190.82 C 132.77 196.18 132.34 202.47 136.44 206.91 C 135.43 210.49 131.44 211.66 128.00 210.95 C 98.87 211.75 69.99 207.07 40.97 205.28 C 27.29 204.98 13.68 199.23 0.00 202.11 L 0.00 192.91 C 33.48 200.98 67.77 204.91 102.03 207.92 C 107.27 208.12 112.70 208.41 117.74 206.64 C 120.57 202.22 116.13 196.03 120.14 192.49 C 120.57 189.15 121.23 185.67 120.75 182.32 C 83.25 163.20 40.15 171.44 0.00 164.84 L 0.00 158.83 Z" />
</g>
<g id="#777d81ff">
<path fill="#777d81" opacity="1.00" d=" M 219.94 143.16 C 222.80 147.16 222.25 141.64 223.38 138.68 C 223.48 140.38 223.39 142.09 223.38 143.80 C 225.72 145.04 230.47 147.69 225.83 149.57 C 225.57 154.01 221.34 153.60 219.42 150.30 C 217.77 155.23 211.25 155.25 208.82 150.89 C 206.18 151.85 208.49 155.06 206.45 156.43 C 202.39 159.92 210.36 157.98 211.95 160.83 C 208.92 161.82 206.49 166.56 210.08 168.44 C 208.76 171.76 206.72 174.84 206.69 178.58 C 204.04 178.35 199.11 178.50 199.09 181.88 C 201.81 184.20 206.90 178.28 206.11 184.00 C 208.25 187.67 208.39 180.14 209.15 177.95 C 211.77 179.09 213.13 181.96 214.92 184.07 C 217.59 190.06 223.29 192.13 228.86 194.26 C 227.69 197.00 224.26 198.39 222.67 201.08 C 220.80 203.43 226.85 214.10 219.99 211.12 C 218.14 208.14 221.55 202.13 217.28 199.71 C 214.09 197.20 213.88 203.01 212.65 204.90 C 210.01 208.79 216.08 208.59 212.65 204.90 C 215.53 205.19 218.18 206.30 216.95 209.73 C 209.05 209.04 201.04 208.59 193.39 207.42 C 191.91 209.48 190.56 211.63 188.85 213.52 C 184.27 213.62 186.43 209.38 188.79 207.80 C 190.99 204.48 194.94 203.89 198.25 202.24 C 194.45 204.32 188.68 199.62 191.19 196.19 C 192.24 193.10 199.52 198.72 197.42 195.66 C 194.62 194.93 195.68 192.06 195.40 189.92 C 194.42 186.05 198.42 182.58 196.21 178.85 C 195.70 174.67 193.68 177.19 191.84 179.10 C 193.05 174.70 196.64 170.76 193.68 166.11 C 196.11 161.92 202.29 155.42 195.55 151.60 C 196.41 150.83 197.26 150.06 198.12 149.28 C 202.88 151.07 195.74 145.76 199.39 144.41 C 203.03 139.86 204.56 147.91 208.03 148.15 C 207.39 146.10 205.69 144.09 206.91 141.91 C 208.25 142.01 209.59 142.11 210.94 142.22 C 215.48 143.96 214.90 146.68 211.33 149.29 C 212.64 155.86 222.48 147.99 219.94 143.16 M 194.01 198.02 C 193.08 205.70 202.80 195.89 194.01 198.02 Z" />
</g>
<g id="#00000056">
<path fill="#000000" opacity="0.34" d=" M 0.00 150.21 C 45.07 141.92 90.77 153.64 135.92 149.04 C 136.07 149.74 136.35 151.15 136.50 151.85 C 110.60 155.70 84.14 149.65 58.34 154.36 C 54.05 154.96 56.81 158.40 59.82 158.29 C 84.74 163.86 109.62 170.22 134.87 174.03 C 135.26 175.04 135.63 176.06 135.97 177.09 C 129.45 174.10 122.00 175.35 115.13 173.79 C 94.45 170.01 73.78 164.22 52.63 164.68 C 35.00 163.35 17.31 162.64 0.00 158.83 L 0.00 150.21 Z" />
</g>
<g id="#59606bff">
<path fill="#59606b" opacity="1.00" d=" M 188.70 148.44 C 191.18 149.35 193.53 146.43 195.74 148.33 C 194.28 149.36 193.69 150.61 195.55 151.60 C 202.29 155.42 196.11 161.92 193.68 166.11 C 191.28 162.93 188.05 164.49 185.83 166.96 C 177.95 162.34 186.49 156.76 191.74 154.59 C 192.62 152.09 189.62 150.51 188.70 148.44 M 192.30 156.05 C 191.23 158.40 190.08 160.71 189.03 163.07 C 193.54 164.92 196.79 158.12 192.30 156.05 Z" />
</g>
<g id="#00000067">
<path fill="#000000" opacity="0.40" d=" M 58.34 154.36 C 84.14 149.65 110.60 155.70 136.50 151.85 C 135.87 154.77 133.16 155.42 130.57 155.48 C 119.49 158.42 105.21 152.68 95.77 159.81 C 107.39 167.07 120.99 168.94 134.07 171.99 C 134.27 172.50 134.67 173.52 134.87 174.03 C 109.62 170.22 84.74 163.86 59.82 158.29 C 56.81 158.40 54.05 154.96 58.34 154.36 Z" />
</g>
<g id="#01010179">
<path fill="#010101" opacity="0.47" d=" M 136.50 151.85 C 137.63 154.41 135.97 156.60 134.74 158.72 C 132.32 162.76 133.96 167.59 134.07 171.99 C 120.99 168.94 107.39 167.07 95.77 159.81 C 105.21 152.68 119.49 158.42 130.57 155.48 C 133.16 155.42 135.87 154.77 136.50 151.85 Z" />
</g>
<g id="#585e6dff">
<path fill="#585e6d" opacity="1.00" d=" M 170.83 158.46 C 162.60 157.33 170.75 148.46 176.05 153.92 C 182.46 158.35 169.78 160.96 170.95 166.07 C 173.63 166.49 174.54 163.29 176.93 162.84 C 176.43 165.45 179.50 172.28 174.99 171.02 C 171.20 171.60 170.96 166.02 167.44 166.28 C 166.07 162.57 171.56 162.45 170.83 158.46 Z" />
</g>
<g id="#848c84ff">
<path fill="#848c84" opacity="1.00" d=" M 192.30 156.05 C 196.79 158.12 193.54 164.92 189.03 163.07 C 190.08 160.71 191.23 158.40 192.30 156.05 Z" />
</g>
<g id="#898d9dff">
<path fill="#898d9d" opacity="1.00" d=" M 228.26 155.99 C 231.29 155.14 232.48 158.33 233.05 160.68 C 230.75 160.86 228.36 161.06 228.83 164.00 C 228.39 164.02 227.52 164.08 227.08 164.10 C 227.57 161.42 227.87 158.67 228.26 155.99 Z" />
</g>
<g id="#2a2b2e9b">
<path fill="#2a2b2e" opacity="0.61" d=" M 236.46 156.92 C 236.60 158.46 236.89 161.53 237.03 163.07 L 236.42 163.23 C 235.22 161.28 235.52 158.90 236.46 156.92 Z" />
</g>
<g id="#595e73ff">
<path fill="#595e73" opacity="1.00" d=" M 135.92 160.97 C 139.37 157.39 144.87 156.91 144.68 163.18 C 146.33 167.83 146.96 173.86 141.00 174.98 C 135.38 173.31 133.16 165.97 135.92 160.97 Z" />
</g>
<g id="#9598a6ff">
<path fill="#9598a6" opacity="1.00" d=" M 210.08 168.44 C 206.49 166.56 208.92 161.82 211.95 160.83 C 215.52 163.62 213.16 166.65 210.08 168.44 Z" />
</g>
<g id="#3e404afd">
<path fill="#3e404a" opacity="1.00" d=" M 230.38 161.87 C 232.09 163.44 234.17 164.62 236.42 163.23 L 237.03 163.07 C 237.28 163.54 237.79 164.48 238.04 164.96 C 241.48 167.08 246.92 165.53 251.22 165.87 C 251.65 165.92 252.50 166.03 252.92 166.09 C 254.49 166.22 257.62 166.49 259.18 166.62 C 264.74 169.01 271.24 171.05 274.78 176.28 C 277.74 185.52 267.03 188.84 261.21 192.55 C 262.53 184.52 255.03 188.18 250.96 187.19 C 252.15 189.01 253.74 193.09 250.02 192.61 C 245.89 193.98 246.25 188.57 244.69 186.11 C 241.33 184.96 240.68 192.27 237.63 188.42 C 232.76 182.37 228.97 191.33 233.94 194.69 C 232.24 196.70 226.52 198.56 229.05 201.55 C 227.15 202.34 223.36 204.01 222.67 201.08 C 224.26 198.39 227.69 197.00 228.86 194.26 C 223.29 192.13 217.59 190.06 214.92 184.07 C 215.09 179.57 214.37 174.41 217.91 170.99 C 217.99 168.27 220.39 163.35 221.00 167.98 C 220.23 172.60 229.39 168.82 224.60 166.45 C 221.53 164.74 225.52 164.69 227.08 164.10 C 227.52 164.08 228.39 164.02 228.83 164.00 C 230.71 164.48 230.76 163.31 230.38 161.87 M 233.75 174.82 C 229.40 170.64 225.14 176.32 225.11 180.80 C 226.75 183.23 229.59 180.50 231.77 180.25 C 231.71 184.28 236.49 176.96 236.13 181.91 C 238.83 188.30 244.76 180.64 249.01 184.98 C 248.80 187.11 251.04 185.20 251.57 184.58 C 254.79 180.24 258.22 185.36 263.31 184.70 C 272.12 184.37 268.23 169.55 260.25 173.52 C 258.34 167.57 248.66 167.35 247.67 173.83 C 245.33 173.78 245.18 169.91 242.21 171.84 C 240.63 166.83 233.14 170.06 233.75 174.82 Z" />
</g>
<g id="#0000003e">
<path fill="#000000" opacity="0.24" d=" M 0.00 164.84 C 40.15 171.44 83.25 163.20 120.75 182.32 C 121.23 185.67 120.57 189.15 120.14 192.49 C 116.13 196.03 120.57 202.22 117.74 206.64 C 112.70 208.41 107.27 208.12 102.03 207.92 C 67.77 204.91 33.48 200.98 0.00 192.91 L 0.00 186.60 C 31.96 195.76 65.33 204.70 98.76 201.78 C 102.23 198.26 99.97 189.42 94.21 192.82 C 96.16 187.57 92.98 181.82 87.15 185.15 C 89.64 182.44 88.87 179.13 86.18 176.90 C 58.22 169.06 28.58 174.69 0.00 169.88 L 0.00 164.84 Z" />
</g>
<g id="#17181c90">
<path fill="#17181c" opacity="0.56" d=" M 238.04 164.96 C 242.44 165.07 246.86 165.08 251.22 165.87 C 246.92 165.53 241.48 167.08 238.04 164.96 Z" />
</g>
<g id="#191a1e9b">
<path fill="#191a1e" opacity="0.61" d=" M 252.92 166.09 C 254.49 166.22 257.62 166.49 259.18 166.62 C 257.62 166.49 254.49 166.22 252.92 166.09 Z" />
</g>
<g id="#545767ff">
<path fill="#545767" opacity="1.00" d=" M 233.75 174.82 C 233.14 170.06 240.63 166.83 242.21 171.84 C 245.18 169.91 245.33 173.78 247.67 173.83 C 248.66 167.35 258.34 167.57 260.25 173.52 C 257.00 176.24 253.08 173.65 250.06 171.95 C 247.79 175.97 247.88 180.68 249.01 184.98 C 244.76 180.64 238.83 188.30 236.13 181.91 C 236.49 176.96 231.71 184.28 231.77 180.25 C 229.59 180.50 226.75 183.23 225.11 180.80 C 225.14 176.32 229.40 170.64 233.75 174.82 Z" />
</g>
<g id="#00000033">
<path fill="#000000" opacity="0.20" d=" M 0.00 169.88 C 28.58 174.69 58.22 169.06 86.18 176.90 C 88.87 179.13 89.64 182.44 87.15 185.15 C 92.98 181.82 96.16 187.57 94.21 192.82 C 99.97 189.42 102.23 198.26 98.76 201.78 C 65.33 204.70 31.96 195.76 0.00 186.60 L 0.00 169.88 Z" />
</g>
<g id="#737580ff">
<path fill="#737580" opacity="1.00" d=" M 250.06 171.95 C 253.08 173.65 257.00 176.24 260.25 173.52 C 268.23 169.55 272.12 184.37 263.31 184.70 C 258.22 185.36 254.79 180.24 251.57 184.58 C 251.04 185.20 248.80 187.11 249.01 184.98 C 247.88 180.68 247.79 175.97 250.06 171.95 Z" />
</g>
<g id="#70797aff">
<path fill="#70797a" opacity="1.00" d=" M 184.22 182.10 C 187.07 181.88 193.18 183.55 190.32 187.30 C 187.76 192.12 180.13 185.10 184.22 182.10 Z" />
</g>
<g id="#57585ffd">
<path fill="#57585f" opacity="1.00" d=" M 136.99 186.11 C 139.01 186.43 141.04 186.42 143.07 186.33 C 142.70 188.86 141.80 191.28 140.94 193.68 C 139.36 199.53 134.40 194.92 134.59 190.82 C 134.88 189.02 135.87 187.49 136.99 186.11 Z" />
</g>
<g id="#2f3037f7">
<path fill="#2f3037" opacity="0.97" d=" M 233.94 194.69 C 228.97 191.33 232.76 182.37 237.63 188.42 C 240.68 192.27 241.33 184.96 244.69 186.11 C 246.25 188.57 245.89 193.98 250.02 192.61 C 253.74 193.09 252.15 189.01 250.96 187.19 C 255.03 188.18 262.53 184.52 261.21 192.55 C 254.22 197.42 245.07 191.24 237.99 195.93 L 237.15 196.22 L 236.41 195.89 C 235.79 195.59 234.56 194.99 233.94 194.69 Z" />
</g>
<g id="#575e62ff">
<path fill="#575e62" opacity="1.00" d=" M 185.36 193.71 C 187.52 193.57 188.16 191.05 189.90 190.16 C 191.80 191.55 193.75 191.95 195.40 189.92 C 195.68 192.06 194.62 194.93 197.42 195.66 C 199.52 198.72 192.24 193.10 191.19 196.19 C 188.68 199.62 194.45 204.32 198.25 202.24 C 194.94 203.89 190.99 204.48 188.79 207.80 C 186.43 209.38 184.27 213.62 188.85 213.52 C 189.39 215.55 192.43 219.28 188.31 217.81 C 186.35 215.97 183.71 215.10 181.07 214.93 C 181.27 217.26 181.71 219.56 181.95 221.89 C 177.56 221.11 174.55 225.11 175.83 229.54 C 175.57 230.19 175.03 231.49 174.77 232.15 C 166.85 228.24 167.36 210.88 179.05 213.96 C 183.42 214.40 177.90 212.02 176.75 210.89 C 180.54 207.48 172.03 204.01 176.37 201.45 C 181.87 200.59 177.77 189.89 185.36 193.71 C 182.28 192.74 181.74 199.38 185.02 198.01 C 187.16 198.24 185.16 194.98 185.36 193.71 Z" />
</g>
<g id="#34373efc">
<path fill="#34373e" opacity="1.00" d=" M 136.44 206.91 C 132.34 202.47 132.77 196.18 134.59 190.82 C 134.40 194.92 139.36 199.53 140.94 193.68 C 142.21 197.42 142.26 201.58 142.84 205.24 C 148.86 210.60 150.04 198.22 156.11 197.96 C 156.80 202.10 151.62 204.43 153.44 208.68 C 150.17 208.92 144.75 211.85 148.62 215.21 C 151.22 215.85 159.26 211.21 157.18 217.03 C 156.16 223.35 165.52 221.31 165.29 216.19 C 167.99 213.13 172.80 211.97 176.75 210.89 C 177.90 212.02 183.42 214.40 179.05 213.96 C 167.36 210.88 166.85 228.24 174.77 232.15 C 178.89 233.19 182.65 234.59 183.26 239.35 C 178.18 240.80 179.59 233.17 173.92 235.14 C 172.14 234.11 170.25 233.29 168.28 232.73 C 165.14 229.70 160.00 226.58 157.16 232.15 C 145.30 243.88 160.76 263.00 174.72 258.87 C 177.18 262.10 181.06 254.82 181.01 258.74 C 175.47 267.59 191.81 258.14 188.19 265.21 C 186.78 265.51 185.37 265.77 183.95 266.00 C 181.28 265.52 178.60 265.07 175.90 264.95 C 176.67 271.55 183.90 276.41 190.17 273.98 L 190.96 274.20 C 193.88 276.70 195.24 282.73 199.87 282.02 C 202.74 280.13 206.69 277.97 205.17 273.90 C 208.32 279.40 207.63 273.20 210.93 271.65 C 208.66 279.15 216.30 285.09 222.04 286.08 C 222.81 286.09 224.34 286.11 225.11 286.13 C 221.45 286.75 217.81 287.37 214.15 287.96 C 211.11 287.83 208.15 288.51 205.51 290.03 C 203.77 289.46 202.60 287.90 201.09 286.94 C 197.46 286.10 193.70 285.85 189.82 286.19 C 186.32 284.13 183.95 280.45 180.10 278.97 C 173.69 265.39 157.43 263.96 147.05 255.00 C 146.22 252.75 145.42 250.48 144.95 248.12 C 144.66 246.47 144.33 244.82 143.95 243.19 C 147.23 233.22 140.28 225.18 137.99 215.96 C 137.99 215.22 138.00 213.72 138.01 212.98 C 138.12 210.82 138.12 208.51 136.44 206.91 Z" />
</g>
<g id="#61697bff">
<path fill="#61697b" opacity="1.00" d=" M 166.29 193.17 C 172.32 192.13 170.60 206.05 163.24 201.90 C 159.78 199.04 164.92 195.80 166.29 193.17 Z" />
</g>
<g id="#848a9dff">
<path fill="#848a9d" opacity="1.00" d=" M 185.02 198.01 C 181.74 199.38 182.28 192.74 185.36 193.71 C 185.16 194.98 187.16 198.24 185.02 198.01 Z" />
</g>
<g id="#858789ff">
<path fill="#858789" opacity="1.00" d=" M 229.05 201.55 C 226.52 198.56 232.24 196.70 233.94 194.69 C 234.56 194.99 235.79 195.59 236.41 195.89 C 236.07 199.59 232.88 202.79 229.05 201.55 Z" />
</g>
<g id="#64686dfe">
<path fill="#64686d" opacity="1.00" d=" M 236.41 195.89 L 237.15 196.22 C 237.03 199.84 237.03 203.48 237.16 207.10 C 235.33 207.63 235.63 209.80 236.30 211.12 C 235.31 214.88 234.04 218.60 232.19 222.03 C 233.23 218.57 227.90 218.55 226.40 220.26 C 226.53 222.72 225.05 226.90 229.01 226.24 C 223.38 231.05 223.30 237.98 223.67 244.83 C 223.47 248.12 223.84 252.12 220.16 253.30 C 220.92 256.35 211.74 265.58 214.00 258.16 C 212.00 259.80 209.62 260.01 207.33 258.81 C 207.37 257.16 208.54 254.10 205.92 253.99 C 201.19 252.69 200.94 262.24 196.09 258.81 L 195.47 258.23 C 200.10 255.88 195.67 247.14 201.60 248.24 C 205.18 255.95 215.57 239.62 206.09 241.42 C 201.78 243.85 201.82 242.20 203.55 238.29 C 198.52 236.73 206.14 231.77 200.32 231.74 C 203.52 227.73 200.78 223.63 195.99 225.86 C 199.29 228.03 200.39 232.12 195.22 230.08 C 196.04 234.38 195.08 238.35 190.92 239.88 C 194.68 236.14 187.25 230.93 187.77 235.60 C 189.05 239.82 185.52 248.40 180.81 243.25 C 184.02 245.84 186.65 238.51 183.26 239.35 C 182.65 234.59 178.89 233.19 174.77 232.15 C 175.03 231.49 175.57 230.19 175.83 229.54 C 180.14 231.61 186.44 235.26 188.14 228.26 C 190.44 225.01 189.70 221.25 188.31 217.81 C 192.43 219.28 189.39 215.55 188.85 213.52 C 190.56 211.63 191.91 209.48 193.39 207.42 C 201.04 208.59 209.05 209.04 216.95 209.73 C 218.18 206.30 215.53 205.19 212.65 204.90 C 213.88 203.01 214.09 197.20 217.28 199.71 C 221.55 202.13 218.14 208.14 219.99 211.12 C 226.85 214.10 220.80 203.43 222.67 201.08 C 223.36 204.01 227.15 202.34 229.05 201.55 C 232.88 202.79 236.07 199.59 236.41 195.89 M 198.10 211.96 C 198.65 213.99 198.64 216.04 198.10 218.08 C 201.55 216.50 209.07 217.42 208.03 212.02 C 202.31 213.28 202.25 213.53 198.10 211.96 M 219.23 214.10 C 218.63 217.32 216.88 220.08 214.92 223.07 C 218.72 222.84 220.03 218.26 223.63 217.51 C 227.75 216.55 221.51 210.49 219.23 214.10 M 214.22 233.40 C 207.40 235.82 211.77 243.57 215.83 246.46 C 213.79 251.01 205.22 248.33 208.97 256.10 C 214.25 253.14 218.59 248.30 220.55 242.63 C 222.62 236.83 220.01 233.26 214.22 233.40 Z" />
</g>
<g id="#1617176a">
<path fill="#161717" opacity="0.42" d=" M 237.15 196.22 L 237.99 195.93 C 237.84 199.66 237.56 203.38 237.16 207.10 C 237.03 203.48 237.03 199.84 237.15 196.22 Z" />
</g>
<g id="#b0b3b2ff">
<path fill="#b0b3b2" opacity="1.00" d=" M 194.01 198.02 C 202.80 195.89 193.08 205.70 194.01 198.02 Z" />
</g>
<g id="#00000055">
<path fill="#000000" opacity="0.33" d=" M 0.00 202.11 C 13.68 199.23 27.29 204.98 40.97 205.28 C 69.99 207.07 98.87 211.75 128.00 210.95 C 131.44 211.66 135.43 210.49 136.44 206.91 C 138.12 208.51 138.12 210.82 138.01 212.98 C 113.61 216.69 88.99 209.84 64.61 212.52 C 61.84 212.15 61.03 215.40 63.20 216.78 C 72.36 222.04 83.21 223.09 92.90 227.09 C 109.29 232.76 125.75 238.60 143.01 240.87 C 143.11 241.31 143.31 242.17 143.41 242.60 C 115.10 240.42 89.08 227.28 61.14 222.84 C 40.73 218.59 20.19 214.88 0.00 209.70 L 0.00 202.11 Z" />
</g>
<g id="#d1d6c2ff">
<path fill="#d1d6c2" opacity="1.00" d=" M 212.65 204.90 C 210.01 208.79 216.08 208.59 212.65 204.90 Z" />
</g>
<g id="#2b2c2fa0">
<path fill="#2b2c2f" opacity="0.63" d=" M 236.30 211.12 C 235.63 209.80 235.33 207.63 237.16 207.10 C 237.43 208.50 237.27 210.01 236.30 211.12 Z" />
</g>
<g id="#00000042">
<path fill="#000000" opacity="0.26" d=" M 0.00 209.70 C 20.19 214.88 40.73 218.59 61.14 222.84 C 89.08 227.28 115.10 240.42 143.41 242.60 L 143.95 243.19 C 144.33 244.82 144.66 246.47 144.95 248.12 C 140.85 241.34 131.01 245.15 124.60 242.43 C 94.68 235.27 65.18 226.31 34.54 222.57 C 22.95 221.33 11.42 219.52 0.00 217.19 L 0.00 209.70 Z" />
</g>
<g id="#00000069">
<path fill="#000000" opacity="0.41" d=" M 64.61 212.52 C 88.99 209.84 113.61 216.69 138.01 212.98 C 138.00 213.72 137.99 215.22 137.99 215.96 C 127.31 216.27 116.68 217.58 106.01 218.04 C 104.34 217.87 103.18 219.10 102.08 220.15 C 104.64 225.84 111.59 226.72 116.55 229.59 C 124.41 234.43 133.41 236.79 142.36 238.65 C 142.52 239.21 142.85 240.32 143.01 240.87 C 125.75 238.60 109.29 232.76 92.90 227.09 C 83.21 223.09 72.36 222.04 63.20 216.78 C 61.03 215.40 61.84 212.15 64.61 212.52 Z" />
</g>
<g id="#8c909cff">
<path fill="#8c909c" opacity="1.00" d=" M 198.10 211.96 C 202.25 213.53 202.31 213.28 208.03 212.02 C 209.07 217.42 201.55 216.50 198.10 218.08 C 198.64 216.04 198.65 213.99 198.10 211.96 Z" />
</g>
<g id="#86898fff">
<path fill="#86898f" opacity="1.00" d=" M 219.23 214.10 C 221.51 210.49 227.75 216.55 223.63 217.51 C 220.03 218.26 218.72 222.84 214.92 223.07 C 216.88 220.08 218.63 217.32 219.23 214.10 Z" />
</g>
<g id="#898995ff">
<path fill="#898995" opacity="1.00" d=" M 181.07 214.93 C 183.71 215.10 186.35 215.97 188.31 217.81 C 189.70 221.25 190.44 225.01 188.14 228.26 C 183.93 228.99 183.10 224.95 181.95 221.89 C 181.71 219.56 181.27 217.26 181.07 214.93 Z" />
</g>
<g id="#0101017e">
<path fill="#010101" opacity="0.49" d=" M 106.01 218.04 C 116.68 217.58 127.31 216.27 137.99 215.96 C 140.28 225.18 147.23 233.22 143.95 243.19 L 143.41 242.60 C 143.31 242.17 143.11 241.31 143.01 240.87 C 142.85 240.32 142.52 239.21 142.36 238.65 C 133.41 236.79 124.41 234.43 116.55 229.59 C 111.59 226.72 104.64 225.84 102.08 220.15 C 103.18 219.10 104.34 217.87 106.01 218.04 Z" />
</g>
<g id="#00000031">
<path fill="#000000" opacity="0.19" d=" M 0.00 217.19 C 11.42 219.52 22.95 221.33 34.54 222.57 C 65.18 226.31 94.68 235.27 124.60 242.43 C 131.01 245.15 140.85 241.34 144.95 248.12 C 145.42 250.48 146.22 252.75 147.05 255.00 C 136.16 250.40 123.88 249.26 112.11 249.69 C 103.61 246.61 95.67 241.12 86.30 241.17 C 59.50 229.17 29.04 228.29 0.00 224.14 L 0.00 217.19 Z" />
</g>
<g id="#8b8c93fb">
<path fill="#8b8c93" opacity="1.00" d=" M 226.40 220.26 C 227.90 218.55 233.23 218.57 232.19 222.03 C 231.23 223.51 230.11 224.87 229.01 226.24 C 225.05 226.90 226.53 222.72 226.40 220.26 Z" />
</g>
<g id="#6a734eff">
<path fill="#6a734e" opacity="1.00" d=" M 175.83 229.54 C 174.55 225.11 177.56 221.11 181.95 221.89 C 183.10 224.95 183.93 228.99 188.14 228.26 C 186.44 235.26 180.14 231.61 175.83 229.54 Z" />
</g>
<g id="#00000025">
<path fill="#000000" opacity="0.15" d=" M 0.00 224.14 C 29.04 228.29 59.50 229.17 86.30 241.17 C 95.67 241.12 103.61 246.61 112.11 249.69 C 123.88 249.26 136.16 250.40 147.05 255.00 C 157.43 263.96 173.69 265.39 180.10 278.97 C 171.68 271.96 160.10 261.06 147.85 266.74 C 131.17 261.34 114.58 265.96 97.91 264.74 C 92.44 262.08 87.33 262.24 81.40 263.93 C 81.12 258.06 78.74 259.17 75.22 262.06 C 74.70 258.71 73.33 249.72 71.57 257.04 C 67.98 254.55 64.25 251.53 60.17 255.15 C 54.86 258.78 57.68 250.24 56.90 247.04 C 53.33 248.61 46.96 250.71 47.31 244.65 C 30.97 241.86 15.59 238.94 0.00 233.76 L 0.00 224.14 Z" />
</g>
<g id="#7b7f85ff">
<path fill="#7b7f85" opacity="1.00" d=" M 195.99 225.86 C 200.78 223.63 203.52 227.73 200.32 231.74 C 206.14 231.77 198.52 236.73 203.55 238.29 C 201.82 242.20 201.78 243.85 206.09 241.42 C 215.57 239.62 205.18 255.95 201.60 248.24 C 195.67 247.14 200.10 255.88 195.47 258.23 C 190.15 258.37 193.29 248.66 187.93 250.81 C 183.05 251.13 189.45 248.05 190.83 246.81 C 190.15 243.00 189.08 239.23 187.77 235.60 C 187.25 230.93 194.68 236.14 190.92 239.88 C 195.08 238.35 196.04 234.38 195.22 230.08 C 200.39 232.12 199.29 228.03 195.99 225.86 Z" />
</g>
<g id="#575d63ff">
<path fill="#575d63" opacity="1.00" d=" M 157.16 232.15 C 160.00 226.58 165.14 229.70 168.28 232.73 C 166.38 232.96 159.86 230.57 162.94 234.04 C 168.42 239.65 162.24 246.54 162.30 252.67 C 162.31 256.29 165.81 257.30 168.65 255.83 C 171.78 260.64 175.44 255.96 173.96 251.82 C 175.79 250.41 178.03 249.78 180.08 248.79 C 179.57 246.63 176.87 246.26 175.97 244.32 C 177.42 241.90 176.57 238.14 174.26 236.57 C 174.18 236.21 174.01 235.50 173.92 235.14 C 179.59 233.17 178.18 240.80 183.26 239.35 C 186.65 238.51 184.02 245.84 180.81 243.25 C 185.52 248.40 189.05 239.82 187.77 235.60 C 189.08 239.23 190.15 243.00 190.83 246.81 C 189.45 248.05 183.05 251.13 187.93 250.81 C 193.29 248.66 190.15 258.37 195.47 258.23 L 196.09 258.81 C 191.35 261.29 185.91 259.93 181.01 258.74 C 181.06 254.82 177.18 262.10 174.72 258.87 C 160.76 263.00 145.30 243.88 157.16 232.15 Z" />
</g>
<g id="#69734dff">
<path fill="#69734d" opacity="1.00" d=" M 162.94 234.04 C 159.86 230.57 166.38 232.96 168.28 232.73 C 170.25 233.29 172.14 234.11 173.92 235.14 C 174.01 235.50 174.18 236.21 174.26 236.57 C 171.96 237.66 169.59 238.81 166.97 238.54 C 167.87 241.10 168.89 243.64 170.21 246.02 C 172.15 245.54 173.99 244.67 175.97 244.32 C 176.87 246.26 179.57 246.63 180.08 248.79 C 178.03 249.78 175.79 250.41 173.96 251.82 C 172.07 252.98 170.27 254.30 168.65 255.83 C 165.81 257.30 162.31 256.29 162.30 252.67 C 162.24 246.54 168.42 239.65 162.94 234.04 Z" />
</g>
<g id="#141518a5">
<path fill="#141518" opacity="0.65" d=" M 278.01 233.02 C 281.39 232.02 284.80 231.91 288.25 232.68 C 284.81 232.76 281.42 232.88 278.01 233.02 Z" />
</g>
<g id="#818686ff">
<path fill="#818686" opacity="1.00" d=" M 214.22 233.40 C 220.01 233.26 222.62 236.83 220.55 242.63 C 218.59 248.30 214.25 253.14 208.97 256.10 C 205.22 248.33 213.79 251.01 215.83 246.46 C 211.77 243.57 207.40 235.82 214.22 233.40 M 216.28 235.27 C 214.57 236.26 211.58 237.34 212.11 239.79 C 215.06 243.78 223.09 235.20 216.28 235.27 Z" />
</g>
<g id="#10101394">
<path fill="#101013" opacity="0.58" d=" M 261.82 233.85 C 267.14 232.69 272.60 233.15 278.01 233.02 C 273.99 233.84 269.92 233.94 265.85 234.00 C 264.50 233.93 263.16 233.88 261.82 233.85 Z" />
</g>
<g id="#43444ef8">
<path fill="#43444e" opacity="0.97" d=" M 278.01 233.02 C 281.42 232.88 284.81 232.76 288.25 232.68 C 297.00 235.13 287.43 243.18 282.13 243.27 C 280.56 243.36 277.40 243.53 275.83 243.62 C 273.77 243.75 272.25 245.00 271.69 246.99 C 269.30 243.13 264.87 241.66 260.94 239.93 L 259.96 239.56 C 264.29 240.23 266.90 238.67 265.85 234.00 C 269.92 233.94 273.99 233.84 278.01 233.02 M 270.08 237.35 C 266.46 243.04 278.55 243.45 277.86 238.21 C 275.99 235.92 272.63 238.97 270.08 237.35 Z" />
</g>
<g id="#0000001d">
<path fill="#000000" opacity="0.11" d=" M 0.00 233.76 C 15.59 238.94 30.97 241.86 47.31 244.65 C 46.96 250.71 53.33 248.61 56.90 247.04 C 57.68 250.24 54.86 258.78 60.17 255.15 C 64.25 251.53 67.98 254.55 71.57 257.04 C 73.33 249.72 74.70 258.71 75.22 262.06 C 78.74 259.17 81.12 258.06 81.40 263.93 C 87.33 262.24 92.44 262.08 97.91 264.74 C 114.58 265.96 131.17 261.34 147.85 266.74 C 160.10 261.06 171.68 271.96 180.10 278.97 C 183.95 280.45 186.32 284.13 189.82 286.19 C 193.54 286.78 197.29 287.03 201.09 286.94 C 202.60 287.90 203.77 289.46 205.51 290.03 C 207.13 290.30 210.36 290.83 211.98 291.10 C 207.33 296.73 200.96 286.92 195.38 288.44 C 186.84 289.83 180.34 280.95 171.97 281.12 C 158.67 280.24 145.35 280.01 132.03 279.63 C 124.79 281.83 117.26 279.23 110.00 278.48 C 90.82 279.76 71.41 277.60 52.56 274.30 C 48.66 271.63 44.36 273.04 40.17 274.05 C 41.52 270.58 40.31 267.20 35.01 268.96 C 27.71 271.12 24.92 261.51 17.98 263.17 C 11.68 264.49 5.05 258.22 0.00 264.21 L 0.00 233.76 Z" />
</g>
<g id="#2a2c32f7">
<path fill="#2a2c32" opacity="0.97" d=" M 243.24 242.28 C 248.64 237.92 254.79 234.57 261.82 233.85 C 263.16 233.88 264.50 233.93 265.85 234.00 C 266.90 238.67 264.29 240.23 259.96 239.56 C 254.62 242.51 250.06 242.40 245.96 247.04 C 244.26 247.40 242.57 247.77 240.88 248.18 C 237.32 249.15 230.82 254.03 231.72 247.00 C 228.38 247.78 229.72 253.65 227.51 256.27 L 226.71 256.20 C 224.79 249.84 218.25 261.96 220.16 253.30 C 223.84 252.12 223.47 248.12 223.67 244.83 C 223.79 245.35 224.04 246.38 224.16 246.89 C 230.63 245.85 238.03 247.04 243.24 242.28 Z" />
</g>
<g id="#b1b3b7ff">
<path fill="#b1b3b7" opacity="1.00" d=" M 216.28 235.27 C 223.09 235.20 215.06 243.78 212.11 239.79 C 211.58 237.34 214.57 236.26 216.28 235.27 Z" />
</g>
<g id="#818874ff">
<path fill="#818874" opacity="1.00" d=" M 166.97 238.54 C 169.59 238.81 171.96 237.66 174.26 236.57 C 176.57 238.14 177.42 241.90 175.97 244.32 C 173.99 244.67 172.15 245.54 170.21 246.02 C 168.89 243.64 167.87 241.10 166.97 238.54 Z" />
</g>
<g id="#666772ff">
<path fill="#666772" opacity="1.00" d=" M 270.08 237.35 C 272.63 238.97 275.99 235.92 277.86 238.21 C 278.55 243.45 266.46 243.04 270.08 237.35 Z" />
</g>
<g id="#4d505dff">
<path fill="#4d505d" opacity="1.00" d=" M 245.96 247.04 C 250.06 242.40 254.62 242.51 259.96 239.56 L 260.94 239.93 C 259.34 244.17 256.62 247.95 253.16 250.86 C 250.87 247.87 247.65 250.24 244.85 251.02 C 246.36 249.70 248.84 248.39 245.96 247.04 Z" />
</g>
<g id="#696c72ff">
<path fill="#696c72" opacity="1.00" d=" M 260.94 239.93 C 264.87 241.66 269.30 243.13 271.69 246.99 C 273.94 249.78 272.12 252.03 269.41 253.38 C 273.10 255.05 274.25 259.89 268.83 258.33 C 271.31 262.72 278.91 262.23 277.81 256.46 C 275.56 256.71 273.65 253.65 276.73 253.61 C 282.20 254.86 293.22 248.68 292.45 257.28 C 292.13 258.33 291.70 259.33 291.17 260.29 C 288.95 257.86 286.02 259.77 283.27 259.36 C 280.60 260.33 284.26 263.20 284.12 265.16 C 281.48 264.90 279.51 263.07 277.29 261.83 C 278.77 268.79 263.66 270.52 263.01 262.89 C 266.72 261.32 266.30 252.14 262.24 256.99 C 261.05 254.42 260.15 249.72 257.23 249.26 C 252.41 253.48 252.08 260.80 253.79 266.62 C 251.41 269.34 248.38 271.36 245.55 273.58 C 242.67 275.61 241.62 279.53 238.17 280.90 C 235.57 277.29 232.71 281.78 230.16 283.21 C 228.62 284.40 226.94 285.44 225.11 286.13 C 224.34 286.11 222.81 286.09 222.04 286.08 C 222.53 280.88 218.27 274.90 213.08 279.26 C 216.32 275.59 216.01 272.75 210.93 271.65 C 208.40 269.83 202.81 267.92 206.08 264.11 C 208.69 257.83 211.03 271.30 213.82 267.01 C 214.19 263.41 218.74 258.96 222.38 261.25 C 224.62 261.46 224.08 265.79 226.60 264.73 C 228.64 261.95 229.00 258.93 226.71 256.20 L 227.51 256.27 C 230.06 258.50 234.77 258.06 235.53 261.94 C 236.46 261.47 237.30 260.84 238.15 260.23 C 233.93 271.81 248.92 263.34 245.00 256.99 C 246.06 253.53 241.76 255.33 239.98 255.87 C 241.67 253.32 244.13 250.63 240.88 248.18 C 242.57 247.77 244.26 247.40 245.96 247.04 C 248.84 248.39 246.36 249.70 244.85 251.02 C 247.65 250.24 250.87 247.87 253.16 250.86 C 256.62 247.95 259.34 244.17 260.94 239.93 M 230.16 267.40 C 230.67 272.28 235.54 267.29 230.16 267.40 M 230.33 275.41 C 227.66 276.21 224.93 276.91 222.16 277.25 C 220.62 280.93 227.70 275.35 227.22 279.89 C 228.08 286.25 237.59 272.59 230.33 275.41 Z" />
</g>
<g id="#0c0c0e94">
<path fill="#0c0c0e" opacity="0.58" d=" M 275.83 243.62 C 277.40 243.53 280.56 243.36 282.13 243.27 C 280.56 243.36 277.40 243.53 275.83 243.62 Z" />
</g>
<g id="#474b52ff">
<path fill="#474b52" opacity="1.00" d=" M 227.51 256.27 C 229.72 253.65 228.38 247.78 231.72 247.00 C 230.82 254.03 237.32 249.15 240.88 248.18 C 244.13 250.63 241.67 253.32 239.98 255.87 C 239.27 257.28 238.74 258.77 238.15 260.23 C 237.30 260.84 236.46 261.47 235.53 261.94 C 234.77 258.06 230.06 258.50 227.51 256.27 Z" />
</g>
<g id="#3b3d45f8">
<path fill="#3b3d45" opacity="0.97" d=" M 271.69 246.99 C 273.70 248.18 275.76 249.32 277.92 250.24 C 282.91 251.12 288.27 251.82 293.17 250.11 C 294.78 252.37 293.07 254.98 292.45 257.28 C 293.22 248.68 282.20 254.86 276.73 253.61 C 273.65 253.65 275.56 256.71 277.81 256.46 C 278.91 262.23 271.31 262.72 268.83 258.33 C 274.25 259.89 273.10 255.05 269.41 253.38 C 272.12 252.03 273.94 249.78 271.69 246.99 Z" />
</g>
<g id="#1e1e22df">
<path fill="#1e1e22" opacity="0.87" d=" M 277.92 250.24 C 282.88 250.64 289.68 244.13 293.17 250.11 C 288.27 251.82 282.91 251.12 277.92 250.24 Z" />
</g>
<g id="#44484dfc">
<path fill="#44484d" opacity="1.00" d=" M 257.23 249.26 C 260.15 249.72 261.05 254.42 262.24 256.99 C 261.70 258.60 261.16 260.22 260.65 261.85 C 256.11 266.24 259.32 271.89 256.96 277.12 C 258.70 274.84 260.52 272.35 263.54 271.77 C 261.79 269.14 262.12 265.76 263.01 262.89 C 263.66 270.52 278.77 268.79 277.29 261.83 C 279.51 263.07 281.48 264.90 284.12 265.16 C 280.05 268.31 278.45 273.79 272.89 275.03 C 270.99 274.51 267.17 271.13 266.58 274.44 C 269.27 282.78 259.80 278.71 258.64 284.07 C 255.07 280.77 251.52 277.67 246.06 277.78 C 245.89 276.37 245.73 274.97 245.55 273.58 C 248.38 271.36 251.41 269.34 253.79 266.62 C 252.08 260.80 252.41 253.48 257.23 249.26 M 251.20 273.11 C 247.90 274.99 252.26 278.80 254.35 276.34 C 256.48 274.31 252.97 272.95 251.20 273.11 Z" />
</g>
<g id="#7b838bff">
<path fill="#7b838b" opacity="1.00" d=" M 168.65 255.83 C 170.27 254.30 172.07 252.98 173.96 251.82 C 175.44 255.96 171.78 260.64 168.65 255.83 Z" />
</g>
<g id="#484c54ff">
<path fill="#484c54" opacity="1.00" d=" M 214.00 258.16 C 211.74 265.58 220.92 256.35 220.16 253.30 C 218.25 261.96 224.79 249.84 226.71 256.20 C 229.00 258.93 228.64 261.95 226.60 264.73 C 224.08 265.79 224.62 261.46 222.38 261.25 C 218.74 258.96 214.19 263.41 213.82 267.01 C 211.03 271.30 208.69 257.83 206.08 264.11 C 202.81 267.92 208.40 269.83 210.93 271.65 C 207.63 273.20 208.32 279.40 205.17 273.90 C 206.69 277.97 202.74 280.13 199.87 282.02 C 195.24 282.73 193.88 276.70 190.96 274.20 C 192.34 273.80 193.71 273.38 195.05 272.88 C 198.66 271.15 200.81 266.97 200.05 262.95 C 197.20 262.25 194.93 263.66 192.61 264.79 C 191.13 264.92 189.66 265.06 188.19 265.21 C 191.81 258.14 175.47 267.59 181.01 258.74 C 185.91 259.93 191.35 261.29 196.09 258.81 C 200.94 262.24 201.19 252.69 205.92 253.99 C 208.54 254.10 207.37 257.16 207.33 258.81 C 209.62 260.01 212.00 259.80 214.00 258.16 Z" />
</g>
<g id="#8e919bff">
<path fill="#8e919b" opacity="1.00" d=" M 239.98 255.87 C 241.76 255.33 246.06 253.53 245.00 256.99 C 248.92 263.34 233.93 271.81 238.15 260.23 C 238.74 258.77 239.27 257.28 239.98 255.87 Z" />
</g>
<g id="#8b8f92ff">
<path fill="#8b8f92" opacity="1.00" d=" M 262.24 256.99 C 266.30 252.14 266.72 261.32 263.01 262.89 C 261.55 263.96 260.47 264.05 260.65 261.85 C 261.16 260.22 261.70 258.60 262.24 256.99 Z" />
</g>
<g id="#38373deb">
<path fill="#38373d" opacity="0.92" d=" M 283.27 259.36 C 286.02 259.77 288.95 257.86 291.17 260.29 C 288.49 261.52 284.98 261.82 284.12 265.16 C 284.26 263.20 280.60 260.33 283.27 259.36 Z" />
</g>
<g id="#00000018">
<path fill="#000000" opacity="0.09" d=" M 0.00 264.21 C 5.05 258.22 11.68 264.49 17.98 263.17 C 24.92 261.51 27.71 271.12 35.01 268.96 C 40.31 267.20 41.52 270.58 40.17 274.05 C 44.36 273.04 48.66 271.63 52.56 274.30 C 71.41 277.60 90.82 279.76 110.00 278.48 C 117.26 279.23 124.79 281.83 132.03 279.63 C 145.35 280.01 158.67 280.24 171.97 281.12 C 180.34 280.95 186.84 289.83 195.38 288.44 C 200.96 286.92 207.33 296.73 211.98 291.10 C 212.72 290.06 213.42 289.01 214.15 287.96 C 217.81 287.37 221.45 286.75 225.11 286.13 C 226.94 285.44 228.62 284.40 230.16 283.21 C 236.28 284.29 242.13 282.53 246.06 277.78 C 251.52 277.67 255.07 280.77 258.64 284.07 C 261.48 285.20 264.85 285.15 267.14 282.96 C 266.61 287.98 260.69 285.58 257.58 285.19 C 252.76 283.05 249.22 286.78 244.87 287.87 C 233.86 287.07 224.89 293.14 214.62 296.46 C 210.96 295.88 207.31 296.01 204.28 298.26 C 196.11 299.69 187.70 299.06 179.35 296.65 C 169.41 293.92 161.53 302.33 152.66 303.41 C 146.61 300.44 140.53 306.57 134.62 303.65 C 128.57 302.67 122.33 304.78 116.58 305.41 C 109.17 305.30 102.11 302.03 94.86 304.80 C 90.05 304.58 84.32 300.13 80.29 304.70 C 79.06 298.89 72.06 306.17 71.96 302.02 C 74.95 291.97 67.86 299.64 64.82 299.16 C 59.26 293.41 45.94 304.15 45.89 293.98 C 39.13 297.33 33.85 292.61 27.31 295.80 C 25.15 291.46 21.29 291.81 17.23 293.39 C 13.24 287.89 5.95 289.10 0.00 288.03 L 0.00 264.21 Z" />
</g>
<g id="#5e626dff">
<path fill="#5e626d" opacity="1.00" d=" M 256.96 277.12 C 259.32 271.89 256.11 266.24 260.65 261.85 C 260.47 264.05 261.55 263.96 263.01 262.89 C 262.12 265.76 261.79 269.14 263.54 271.77 C 260.52 272.35 258.70 274.84 256.96 277.12 Z" />
</g>
<g id="#8a8c97ff">
<path fill="#8a8c97" opacity="1.00" d=" M 192.61 264.79 C 194.93 263.66 197.20 262.25 200.05 262.95 C 200.81 266.97 198.66 271.15 195.05 272.88 C 195.36 269.91 194.12 267.25 192.61 264.79 Z" />
</g>
<g id="#4f544aff">
<path fill="#4f544a" opacity="1.00" d=" M 175.90 264.95 C 178.60 265.07 181.28 265.52 183.95 266.00 C 183.89 269.91 186.59 272.82 190.17 273.98 C 183.90 276.41 176.67 271.55 175.90 264.95 Z" />
</g>
<g id="#6c764cff">
<path fill="#6c764c" opacity="1.00" d=" M 183.95 266.00 C 185.37 265.77 186.78 265.51 188.19 265.21 C 189.66 265.06 191.13 264.92 192.61 264.79 C 194.12 267.25 195.36 269.91 195.05 272.88 C 193.71 273.38 192.34 273.80 190.96 274.20 L 190.17 273.98 C 186.59 272.82 183.89 269.91 183.95 266.00 Z" />
</g>
<g id="#bec5b8ff">
<path fill="#bec5b8" opacity="1.00" d=" M 230.16 267.40 C 235.54 267.29 230.67 272.28 230.16 267.40 Z" />
</g>
<g id="#525757ff">
<path fill="#525757" opacity="1.00" d=" M 210.93 271.65 C 216.01 272.75 216.32 275.59 213.08 279.26 C 218.27 274.90 222.53 280.88 222.04 286.08 C 216.30 285.09 208.66 279.15 210.93 271.65 Z" />
</g>
<g id="#81897bff">
<path fill="#81897b" opacity="1.00" d=" M 251.20 273.11 C 252.97 272.95 256.48 274.31 254.35 276.34 C 252.26 278.80 247.90 274.99 251.20 273.11 Z" />
</g>
<g id="#6c757af6">
<path fill="#6c757a" opacity="0.96" d=" M 266.58 274.44 C 267.17 271.13 270.99 274.51 272.89 275.03 C 273.99 279.21 269.75 280.70 267.14 282.96 C 264.85 285.15 261.48 285.20 258.64 284.07 C 259.80 278.71 269.27 282.78 266.58 274.44 Z" />
</g>
<g id="#5f653fef">
<path fill="#5f653f" opacity="0.94" d=" M 238.17 280.90 C 241.62 279.53 242.67 275.61 245.55 273.58 C 245.73 274.97 245.89 276.37 246.06 277.78 C 242.13 282.53 236.28 284.29 230.16 283.21 C 232.71 281.78 235.57 277.29 238.17 280.90 Z" />
</g>
<g id="#484b55ff">
<path fill="#484b55" opacity="1.00" d=" M 230.33 275.41 C 237.59 272.59 228.08 286.25 227.22 279.89 C 227.70 275.35 220.62 280.93 222.16 277.25 C 224.93 276.91 227.66 276.21 230.33 275.41 Z" />
</g>
<g id="#1e2229a2">
<path fill="#1e2229" opacity="0.64" d=" M 189.82 286.19 C 193.70 285.85 197.46 286.10 201.09 286.94 C 197.29 287.03 193.54 286.78 189.82 286.19 Z" />
</g>
<g id="#5d5f63e5">
<path fill="#5d5f63" opacity="0.90" d=" M 205.51 290.03 C 208.15 288.51 211.11 287.83 214.15 287.96 C 213.42 289.01 212.72 290.06 211.98 291.10 C 210.36 290.83 207.13 290.30 205.51 290.03 Z" />
</g>
</svg>
