<?xml version="1.0" encoding="UTF-8" ?>
<!DOCTYPE svg PUBLIC "-//W3C//DTD SVG 1.1//EN" "http://www.w3.org/Graphics/SVG/1.1/DTD/svg11.dtd">
<svg width="384pt" height="384pt" viewBox="0 0 384 384" version="1.1" xmlns="http://www.w3.org/2000/svg">
<g id="#0000000e">
<path fill="#000000" opacity="0.05" d=" M 0.00 20.38 C 4.87 20.29 9.68 19.11 14.56 19.22 C 14.07 24.23 20.51 18.73 20.00 23.01 C 19.84 27.65 24.53 22.14 26.80 23.22 C 32.30 26.77 39.16 23.59 44.15 28.81 C 46.24 26.60 47.96 24.33 51.47 25.43 C 54.61 20.56 55.48 26.24 53.00 28.82 C 56.59 30.05 60.22 29.30 63.78 28.43 C 65.52 33.07 70.36 32.58 73.13 29.13 C 75.50 26.36 77.19 29.74 79.10 31.01 C 88.00 25.33 99.09 39.45 106.89 32.09 C 110.41 35.40 115.39 35.53 119.51 37.46 C 121.40 41.51 126.65 46.60 129.93 40.88 C 134.29 37.26 131.89 47.53 136.14 45.30 C 141.93 43.89 142.71 52.32 147.65 53.40 C 150.91 56.71 154.89 59.59 157.23 63.84 C 161.07 56.84 165.41 70.60 168.90 63.75 C 171.64 62.23 170.23 67.26 170.18 68.77 C 173.99 72.45 179.82 73.42 184.85 72.11 C 187.42 76.12 181.29 85.56 190.58 81.42 C 194.79 80.43 195.47 88.53 200.36 86.40 C 207.57 84.26 194.24 97.56 204.58 94.53 C 207.49 94.87 204.58 97.61 204.17 99.11 C 209.84 102.10 216.12 104.15 222.55 104.48 C 223.68 106.85 227.61 111.82 228.74 106.86 C 228.44 102.77 233.50 104.19 235.88 105.20 C 236.00 107.37 233.18 108.62 232.92 110.84 C 235.36 112.02 239.79 114.74 240.11 110.88 C 243.74 110.65 245.52 117.67 249.31 119.61 C 251.13 128.04 258.77 131.64 265.13 135.78 C 265.61 138.24 267.58 140.06 269.52 137.54 C 272.39 138.92 275.04 141.17 275.52 144.50 C 277.24 145.01 279.45 145.15 279.44 147.46 C 277.74 158.16 284.36 146.76 286.89 151.23 C 289.07 154.95 281.28 156.73 285.16 159.73 C 288.97 158.20 292.28 159.90 290.43 164.27 C 294.01 160.37 300.02 163.96 297.87 168.81 C 295.84 171.44 300.49 170.83 300.74 173.32 C 305.76 180.64 295.80 175.61 296.98 180.03 C 297.15 183.02 299.84 185.10 302.64 185.51 C 302.20 190.27 303.24 195.26 301.39 199.80 C 303.59 200.27 305.82 200.65 308.01 201.24 C 308.05 205.43 304.31 202.54 302.08 201.96 C 302.21 204.80 303.59 210.24 298.87 208.24 C 302.92 210.61 304.86 215.99 308.41 219.53 C 318.92 217.10 308.06 224.07 312.25 225.71 C 315.16 225.30 319.25 225.35 317.44 230.50 C 315.72 235.41 315.43 240.73 315.99 246.04 C 319.45 246.67 316.87 239.26 321.03 243.13 C 318.37 250.01 315.75 256.93 313.84 264.08 C 315.49 262.60 317.91 259.24 319.91 262.22 C 319.64 266.51 318.19 273.04 312.76 271.63 C 314.24 275.02 309.49 278.19 314.01 281.67 C 306.88 281.76 307.62 291.30 302.82 295.07 C 307.30 291.65 308.16 295.81 309.07 300.02 C 303.05 302.60 302.41 296.49 298.90 294.91 C 300.62 299.37 300.73 301.59 296.28 304.21 C 298.36 297.21 287.52 300.84 288.94 306.09 C 291.74 305.26 294.59 302.77 296.11 306.94 C 291.82 307.02 288.64 309.79 285.10 311.88 C 282.13 309.11 281.09 311.09 280.70 314.43 C 276.58 312.98 275.61 316.21 276.78 319.56 C 274.52 319.41 272.54 322.45 276.00 322.01 C 279.95 320.88 276.94 327.10 274.86 324.13 C 272.77 321.92 265.01 321.06 265.45 324.37 C 273.27 329.60 257.09 330.90 257.43 324.89 C 257.16 329.95 252.94 338.89 247.11 335.69 C 243.53 337.57 240.28 340.25 236.24 341.08 C 237.95 331.27 232.66 337.59 230.98 339.58 C 223.27 337.85 235.46 344.43 229.90 348.17 C 226.23 346.72 222.97 344.20 218.79 344.25 C 217.27 342.31 212.74 337.36 212.78 342.65 C 209.03 341.80 203.49 341.24 201.13 344.91 C 202.21 346.96 204.50 350.16 201.74 351.90 C 198.59 353.07 197.79 347.51 194.61 349.48 C 189.59 349.26 195.96 353.05 192.82 354.91 C 186.91 358.17 188.60 349.33 184.05 349.94 C 180.98 349.82 181.71 355.95 178.14 354.67 C 173.49 352.87 171.63 358.36 168.96 360.92 C 165.58 363.68 158.13 367.92 157.58 361.12 C 153.12 362.76 154.90 370.06 149.04 369.08 C 152.39 363.81 144.39 360.72 145.77 368.70 C 140.75 366.50 139.73 373.38 135.79 374.67 C 129.56 374.34 126.73 380.54 122.70 384.00 L 0.00 384.00 L 0.00 311.45 C 1.65 310.65 3.22 309.69 4.91 308.99 C 5.98 311.45 5.83 315.05 9.52 314.10 C 8.21 311.65 11.65 306.96 13.01 310.97 C 14.95 315.33 18.65 311.74 20.35 309.22 C 24.30 308.21 26.27 314.06 30.35 313.33 C 34.28 312.20 33.01 317.67 34.21 320.00 C 37.05 317.50 41.00 316.04 42.60 312.42 C 47.19 310.06 48.68 316.84 47.20 320.07 C 51.47 319.85 57.41 315.43 60.05 320.77 C 58.12 321.48 55.92 321.94 54.82 323.88 C 59.10 322.90 70.03 325.47 64.88 319.04 C 67.42 319.22 70.43 320.38 71.52 317.23 C 74.62 318.56 71.67 321.83 70.83 323.81 C 74.25 320.86 79.33 323.90 82.40 320.67 C 87.58 318.15 90.56 330.93 95.63 323.69 C 102.96 329.73 107.95 319.67 115.11 324.91 C 123.55 324.20 133.29 324.49 141.29 320.33 C 142.51 317.05 146.45 318.91 148.94 317.89 C 153.96 315.90 159.33 312.90 164.79 314.99 C 160.56 318.45 166.81 320.52 168.02 316.01 C 174.03 309.33 184.43 313.34 192.01 310.31 C 195.72 311.71 199.16 305.71 201.91 309.82 C 201.50 304.04 209.21 311.71 212.05 307.08 C 216.22 306.79 220.15 305.22 223.46 302.45 C 226.37 299.70 227.79 305.23 230.66 305.78 C 233.32 302.55 236.66 299.39 240.13 297.35 C 244.68 299.95 246.68 291.79 250.48 295.50 C 256.87 297.40 260.03 284.56 266.47 289.45 C 271.89 291.75 265.24 276.85 273.51 282.74 C 280.47 285.57 289.03 282.76 290.96 274.92 C 291.10 270.45 294.48 268.72 297.16 265.96 C 298.16 264.72 298.97 263.34 299.88 262.04 C 301.75 261.40 303.35 260.42 302.91 258.18 C 302.58 255.78 304.16 254.33 306.01 253.19 C 309.27 251.20 311.30 248.02 310.12 243.90 C 308.63 240.37 303.70 241.44 300.99 242.96 C 297.22 243.01 293.50 243.06 289.75 243.26 C 287.77 242.98 286.00 242.01 284.28 241.07 C 283.48 240.24 282.69 239.41 281.89 238.59 C 287.23 234.61 294.97 237.73 300.28 233.29 C 303.82 232.18 304.68 228.02 303.00 225.01 C 300.81 222.44 295.02 224.46 291.72 224.69 C 289.56 225.22 287.46 225.92 285.28 226.36 C 281.63 226.21 278.01 226.10 274.38 225.70 C 267.05 226.77 259.33 229.12 252.73 232.87 C 253.61 230.64 258.27 227.02 253.85 226.17 C 249.84 225.68 252.70 222.59 252.61 220.06 C 254.55 220.35 258.31 221.86 257.84 218.44 C 255.53 217.54 252.64 217.04 252.04 214.21 C 257.73 213.09 254.63 205.83 258.97 202.99 C 257.69 200.10 255.15 197.64 255.96 194.08 C 257.37 190.90 260.99 189.32 262.14 185.95 C 265.03 183.15 265.54 179.06 264.85 175.22 C 258.10 168.84 249.29 165.77 240.21 164.91 C 237.23 164.45 234.07 164.30 231.74 162.21 C 231.51 161.92 231.04 161.32 230.81 161.02 C 231.37 159.33 231.45 157.38 230.28 155.91 C 228.12 147.23 222.79 140.17 215.95 134.57 C 223.73 131.68 216.56 122.60 210.93 122.82 C 211.02 122.20 211.19 120.95 211.27 120.33 C 211.54 117.50 212.81 114.42 211.19 111.81 C 210.63 110.71 210.02 109.64 209.34 108.62 C 208.07 106.52 206.03 105.07 204.07 103.68 C 198.47 102.79 191.99 103.53 187.30 99.71 C 184.64 95.38 180.36 91.03 174.96 90.99 C 173.93 90.81 172.92 90.58 171.92 90.32 C 167.12 83.23 155.08 85.82 147.82 81.12 C 139.25 76.35 129.54 73.19 121.95 67.13 C 114.00 64.52 106.58 56.98 97.75 59.34 C 87.55 57.15 76.56 54.07 66.39 55.51 C 62.11 53.15 56.97 54.22 52.89 56.59 C 50.36 55.89 47.71 53.07 45.17 55.16 C 42.23 57.30 38.42 51.83 35.62 54.53 C 32.27 59.33 25.52 55.22 20.76 56.41 C 14.06 58.48 6.25 60.40 0.00 55.96 L 0.00 20.38 Z" />
</g>
<g id="#00000018">
<path fill="#000000" opacity="0.09" d=" M 35.62 54.53 C 38.42 51.83 42.23 57.30 45.17 55.16 C 47.71 53.07 50.36 55.89 52.89 56.59 C 56.97 54.22 62.11 53.15 66.39 55.51 C 76.56 54.07 87.55 57.15 97.75 59.34 C 106.58 56.98 114.00 64.52 121.95 67.13 C 129.54 73.19 139.25 76.35 147.82 81.12 C 155.08 85.82 167.12 83.23 171.92 90.32 C 168.78 89.68 165.90 88.28 163.12 86.76 C 160.84 85.18 157.50 84.34 155.91 86.91 C 153.76 88.77 151.71 90.80 149.20 92.17 C 146.02 92.17 142.79 91.70 139.72 92.70 C 139.31 92.81 138.49 93.01 138.08 93.11 C 121.36 89.73 105.37 82.66 88.22 80.26 C 85.90 83.11 83.36 80.36 80.98 79.13 C 76.32 82.59 70.24 81.25 65.21 84.85 C 65.07 78.28 60.57 89.10 56.62 85.43 C 49.30 89.30 38.81 87.62 30.21 90.14 C 26.65 92.32 22.78 91.32 19.04 90.42 C 13.14 92.95 6.25 93.90 0.00 92.20 L 0.00 55.96 C 6.25 60.40 14.06 58.48 20.76 56.41 C 25.52 55.22 32.27 59.33 35.62 54.53 Z" />
</g>
<g id="#00000022">
<path fill="#000000" opacity="0.13" d=" M 65.21 84.85 C 70.24 81.25 76.32 82.59 80.98 79.13 C 83.36 80.36 85.90 83.11 88.22 80.26 C 105.37 82.66 121.36 89.73 138.08 93.11 C 137.32 93.99 136.56 94.86 135.84 95.77 C 135.61 96.06 135.14 96.64 134.91 96.94 C 132.55 99.02 133.60 102.16 133.48 104.88 C 131.54 108.88 126.43 113.83 121.92 110.07 C 119.55 106.37 110.30 111.00 112.62 105.09 C 105.35 105.02 97.02 108.57 90.43 106.52 C 87.04 112.21 80.08 104.36 76.10 109.12 C 74.01 111.64 68.40 107.35 67.54 111.40 C 63.58 111.18 59.63 111.41 55.89 112.88 C 45.44 116.29 34.96 107.46 24.88 110.74 C 17.81 107.09 8.46 104.67 0.00 103.83 L 0.00 92.20 C 6.25 93.90 13.14 92.95 19.04 90.42 C 22.78 91.32 26.65 92.32 30.21 90.14 C 38.81 87.62 49.30 89.30 56.62 85.43 C 60.57 89.10 65.07 78.28 65.21 84.85 Z" />
</g>
<g id="#1b1d2578">
<path fill="#1b1d25" opacity="0.47" d=" M 155.91 86.91 C 157.50 84.34 160.84 85.18 163.12 86.76 C 161.32 86.80 157.71 86.87 155.91 86.91 Z" />
</g>
<g id="#414650fe">
<path fill="#414650" opacity="1.00" d=" M 149.20 92.17 C 151.71 90.80 153.76 88.77 155.91 86.91 C 157.71 86.87 161.32 86.80 163.12 86.76 C 165.90 88.28 168.78 89.68 171.92 90.32 C 172.92 90.58 173.93 90.81 174.96 90.99 C 178.10 95.64 172.36 93.89 172.11 96.73 C 178.80 95.93 174.46 103.17 173.81 106.91 C 176.83 111.36 174.54 121.98 182.09 120.35 C 181.45 125.24 174.13 119.44 173.82 124.70 C 180.10 122.53 176.98 131.34 174.30 133.33 C 171.28 135.34 173.93 138.46 176.77 138.47 C 182.44 139.13 174.01 144.92 177.65 147.46 C 179.12 149.24 181.89 153.33 178.32 154.29 C 173.14 155.42 167.87 161.72 173.15 165.86 C 174.84 164.26 176.71 162.87 179.03 162.34 L 179.95 162.05 C 180.58 164.12 181.18 166.21 181.76 168.30 C 184.39 172.84 176.42 173.70 179.00 177.73 C 184.11 173.02 184.88 181.52 180.86 183.94 C 179.03 185.18 180.58 186.99 181.63 188.11 L 182.14 188.75 C 179.94 190.15 179.51 192.33 181.80 193.89 C 176.20 192.29 177.74 203.26 172.25 197.91 C 173.84 194.94 172.11 190.45 168.23 192.11 C 164.81 194.56 168.97 198.97 172.25 197.91 C 172.48 199.20 172.68 200.50 172.84 201.81 C 172.47 204.28 170.81 205.73 168.26 204.93 C 167.02 202.76 165.86 198.03 162.67 200.65 C 159.24 203.91 166.89 205.82 163.91 208.83 C 161.64 212.02 168.11 211.21 169.35 213.72 C 166.15 214.76 159.75 211.60 157.98 216.03 C 153.29 221.00 159.28 225.75 160.26 230.80 C 156.85 228.33 151.18 223.15 154.46 218.52 C 156.40 215.50 152.71 212.25 149.88 211.89 C 151.10 214.65 152.81 220.09 148.00 220.04 C 143.53 221.61 147.56 211.65 143.72 213.80 C 141.08 215.02 135.76 215.73 137.01 211.13 C 140.50 207.37 142.10 202.42 144.92 198.12 C 138.22 193.82 138.60 211.44 132.79 204.24 C 132.72 198.27 130.68 196.94 126.55 194.91 C 126.43 194.35 126.18 193.22 126.05 192.65 C 126.50 189.61 126.98 186.40 129.09 184.01 C 129.64 183.69 130.74 183.04 131.30 182.72 C 136.26 183.90 132.78 188.96 131.97 192.08 C 134.69 192.56 135.22 190.02 136.29 188.17 C 140.52 187.86 145.72 185.52 145.82 180.68 C 150.80 182.37 156.21 177.02 151.81 173.18 C 149.49 168.22 156.94 170.50 159.15 172.05 C 158.66 168.65 155.26 167.11 153.15 164.81 C 150.71 162.72 147.60 166.68 144.94 165.13 C 142.14 164.40 143.61 157.15 140.18 160.19 C 138.01 162.30 136.24 155.39 135.11 160.14 C 132.88 152.67 125.40 160.46 125.50 165.21 C 123.46 160.27 129.17 156.63 128.54 152.03 C 128.27 150.29 128.00 148.56 127.81 146.81 C 127.90 146.42 128.06 145.63 128.15 145.23 C 128.60 141.04 130.34 137.21 131.49 133.22 C 130.07 129.63 127.76 126.18 128.03 122.15 C 130.47 117.03 129.97 110.53 134.92 106.86 C 135.93 103.37 136.23 99.67 135.84 95.77 C 136.56 94.86 137.32 93.99 138.08 93.11 C 138.49 93.01 139.31 92.81 139.72 92.70 C 142.83 92.54 146.35 93.86 149.20 92.17 M 155.29 93.27 C 152.71 94.20 146.67 99.35 155.56 97.62 C 157.95 98.33 162.14 97.52 160.90 94.22 C 159.17 93.46 157.18 92.40 155.29 93.27 M 157.36 117.68 C 158.56 120.81 165.42 124.33 166.73 122.35 C 171.60 119.82 173.85 112.37 170.76 107.92 C 166.92 103.16 152.35 109.83 157.36 117.68 M 144.19 108.10 C 142.71 110.85 137.03 115.76 140.75 118.24 C 147.02 123.86 153.35 107.78 144.19 108.10 M 168.32 131.34 C 164.74 131.98 160.58 134.73 161.11 138.77 C 165.20 143.65 174.62 132.37 168.32 131.34 M 155.00 152.01 C 154.21 154.94 155.65 157.17 158.73 157.34 C 158.56 164.80 163.62 158.02 166.97 156.82 C 166.50 151.67 158.79 151.32 155.00 152.01 M 155.88 162.01 C 157.45 164.68 158.79 169.06 162.05 169.96 C 166.18 171.11 164.08 164.43 165.00 161.96 C 162.27 161.09 162.65 165.48 160.12 164.96 C 158.34 164.40 158.38 161.18 155.88 162.01 M 171.23 181.14 C 167.11 184.07 174.78 191.13 177.32 186.30 C 180.09 182.81 174.15 180.15 171.23 181.14 M 154.27 192.24 C 151.35 193.85 149.85 197.75 149.99 200.99 C 157.34 205.44 159.11 190.69 154.27 192.24 Z" />
</g>
<g id="#555b5cf9">
<path fill="#555b5c" opacity="0.98" d=" M 174.96 90.99 C 180.36 91.03 184.64 95.38 187.30 99.71 C 191.99 103.53 198.47 102.79 204.07 103.68 C 200.09 108.20 193.47 104.17 190.74 109.75 C 188.27 109.07 187.32 102.01 184.15 106.80 C 182.55 106.33 180.56 105.53 180.91 108.12 C 178.15 109.52 176.59 104.44 173.81 106.91 C 174.46 103.17 178.80 95.93 172.11 96.73 C 172.36 93.89 178.10 95.64 174.96 90.99 Z" />
</g>
<g id="#21272f9d">
<path fill="#21272f" opacity="0.62" d=" M 139.72 92.70 C 142.79 91.70 146.02 92.17 149.20 92.17 C 146.35 93.86 142.83 92.54 139.72 92.70 Z" />
</g>
<g id="#6b7284ff">
<path fill="#6b7284" opacity="1.00" d=" M 155.29 93.27 C 157.18 92.40 159.17 93.46 160.90 94.22 C 162.14 97.52 157.95 98.33 155.56 97.62 C 146.67 99.35 152.71 94.20 155.29 93.27 Z" />
</g>
<g id="#282a2dbc">
<path fill="#282a2d" opacity="0.74" d=" M 134.91 96.94 C 135.14 96.64 135.61 96.06 135.84 95.77 C 136.23 99.67 135.93 103.37 134.92 106.86 C 134.97 103.54 134.94 100.25 134.91 96.94 Z" />
</g>
<g id="#0000002b">
<path fill="#000000" opacity="0.17" d=" M 133.48 104.88 C 133.60 102.16 132.55 99.02 134.91 96.94 C 134.94 100.25 134.97 103.54 134.92 106.86 C 129.97 110.53 130.47 117.03 128.03 122.15 C 127.32 125.64 126.95 129.19 126.92 132.79 C 121.89 130.28 115.77 131.57 111.34 128.65 C 106.66 132.90 102.92 127.87 98.49 128.36 C 96.89 135.02 88.82 128.56 85.82 133.84 C 75.98 133.19 66.29 136.76 56.34 135.55 C 37.83 133.24 18.77 134.76 0.00 133.96 L 0.00 103.83 C 8.46 104.67 17.81 107.09 24.88 110.74 C 34.96 107.46 45.44 116.29 55.89 112.88 C 59.63 111.41 63.58 111.18 67.54 111.40 C 68.40 107.35 74.01 111.64 76.10 109.12 C 80.08 104.36 87.04 112.21 90.43 106.52 C 97.02 108.57 105.35 105.02 112.62 105.09 C 110.30 111.00 119.55 106.37 121.92 110.07 C 126.43 113.83 131.54 108.88 133.48 104.88 Z" />
</g>
<g id="#696e75fe">
<path fill="#696e75" opacity="1.00" d=" M 190.74 109.75 C 193.47 104.17 200.09 108.20 204.07 103.68 C 206.03 105.07 208.07 106.52 209.34 108.62 C 198.53 104.07 202.48 123.43 211.27 120.33 C 211.19 120.95 211.02 122.20 210.93 122.82 C 208.94 127.46 211.86 132.09 215.39 134.99 C 215.24 135.68 214.94 137.04 214.79 137.73 C 211.81 138.34 212.09 140.63 212.89 142.99 C 211.62 142.36 210.38 141.67 209.16 140.95 C 209.01 138.16 203.28 136.49 205.12 134.53 C 210.63 136.35 207.02 128.30 203.21 128.93 C 202.32 130.77 201.75 132.78 200.51 134.44 C 201.59 127.27 193.82 126.83 189.73 127.44 C 194.81 125.15 194.07 122.70 189.43 120.55 C 191.17 115.74 184.74 114.06 185.64 119.79 C 184.41 123.15 182.57 126.40 182.01 129.95 C 183.23 134.31 187.99 134.45 191.71 134.94 C 190.71 137.10 189.86 139.34 189.55 141.72 C 188.14 144.34 191.96 149.52 187.49 149.49 C 186.43 147.21 184.73 149.95 183.43 150.54 C 181.39 149.26 183.78 146.31 181.55 145.17 C 180.62 146.67 179.66 148.30 177.65 147.46 C 174.01 144.92 182.44 139.13 176.77 138.47 C 173.93 138.46 171.28 135.34 174.30 133.33 C 176.98 131.34 180.10 122.53 173.82 124.70 C 174.13 119.44 181.45 125.24 182.09 120.35 C 174.54 121.98 176.83 111.36 173.81 106.91 C 176.59 104.44 178.15 109.52 180.91 108.12 C 180.71 110.30 179.06 113.63 182.60 113.47 C 187.09 115.84 184.60 109.44 184.15 106.80 C 187.32 102.01 188.27 109.07 190.74 109.75 Z" />
</g>
<g id="#9397a5ff">
<path fill="#9397a5" opacity="1.00" d=" M 180.91 108.12 C 180.56 105.53 182.55 106.33 184.15 106.80 C 184.60 109.44 187.09 115.84 182.60 113.47 C 179.06 113.63 180.71 110.30 180.91 108.12 Z" />
</g>
<g id="#666a81ff">
<path fill="#666a81" opacity="1.00" d=" M 157.36 117.68 C 152.35 109.83 166.92 103.16 170.76 107.92 C 161.33 104.49 164.38 112.25 162.14 116.93 C 162.30 119.74 164.13 121.57 166.73 122.35 C 165.42 124.33 158.56 120.81 157.36 117.68 Z" />
</g>
<g id="#5c6278ff">
<path fill="#5c6278" opacity="1.00" d=" M 144.19 108.10 C 153.35 107.78 147.02 123.86 140.75 118.24 C 137.03 115.76 142.71 110.85 144.19 108.10 Z" />
</g>
<g id="#9498a1ff">
<path fill="#9498a1" opacity="1.00" d=" M 162.14 116.93 C 164.38 112.25 161.33 104.49 170.76 107.92 C 173.85 112.37 171.60 119.82 166.73 122.35 C 164.13 121.57 162.30 119.74 162.14 116.93 Z" />
</g>
<g id="#989cacfd">
<path fill="#989cac" opacity="1.00" d=" M 211.27 120.33 C 202.48 123.43 198.53 104.07 209.34 108.62 C 210.02 109.64 210.63 110.71 211.19 111.81 C 211.22 114.65 211.25 117.48 211.27 120.33 Z" />
</g>
<g id="#3737368e">
<path fill="#373736" opacity="0.56" d=" M 211.19 111.81 C 212.81 114.42 211.54 117.50 211.27 120.33 C 211.25 117.48 211.22 114.65 211.19 111.81 Z" />
</g>
<g id="#828590ff">
<path fill="#828590" opacity="1.00" d=" M 185.64 119.79 C 184.74 114.06 191.17 115.74 189.43 120.55 C 194.07 122.70 194.81 125.15 189.73 127.44 C 186.08 126.48 188.54 121.82 185.64 119.79 Z" />
</g>
<g id="#50575aff">
<path fill="#50575a" opacity="1.00" d=" M 182.01 129.95 C 182.57 126.40 184.41 123.15 185.64 119.79 C 188.54 121.82 186.08 126.48 189.73 127.44 C 193.82 126.83 201.59 127.27 200.51 134.44 C 199.62 136.47 198.74 138.51 197.87 140.55 C 195.34 142.35 192.47 143.53 189.55 141.72 C 189.86 139.34 190.71 137.10 191.71 134.94 C 187.99 134.45 183.23 134.31 182.01 129.95 Z" />
</g>
<g id="#00000038">
<path fill="#000000" opacity="0.22" d=" M 126.92 132.79 C 126.95 129.19 127.32 125.64 128.03 122.15 C 127.76 126.18 130.07 129.63 131.49 133.22 C 130.34 137.21 128.60 141.04 128.15 145.23 C 126.71 145.70 125.28 146.16 123.80 146.45 C 82.66 142.89 41.27 139.78 0.00 142.08 L 0.00 133.96 C 18.77 134.76 37.83 133.24 56.34 135.55 C 66.29 136.76 75.98 133.19 85.82 133.84 C 88.82 128.56 96.89 135.02 98.49 128.36 C 102.92 127.87 106.66 132.90 111.34 128.65 C 115.77 131.57 121.89 130.28 126.92 132.79 Z" />
</g>
<g id="#4a4a4ff5">
<path fill="#4a4a4f" opacity="0.96" d=" M 210.93 122.82 C 216.56 122.60 223.73 131.68 215.95 134.57 L 215.39 134.99 C 211.86 132.09 208.94 127.46 210.93 122.82 Z" />
</g>
<g id="#7b8447ff">
<path fill="#7b8447" opacity="1.00" d=" M 203.21 128.93 C 207.02 128.30 210.63 136.35 205.12 134.53 C 203.28 136.49 209.01 138.16 209.16 140.95 C 208.77 142.63 210.11 146.45 207.21 145.46 C 209.73 151.67 196.40 152.10 203.10 146.35 C 204.63 145.20 205.49 143.63 203.23 142.76 C 201.64 141.61 199.73 141.08 197.87 140.55 C 198.74 138.51 199.62 136.47 200.51 134.44 C 201.75 132.78 202.32 130.77 203.21 128.93 Z" />
</g>
<g id="#686c78ff">
<path fill="#686c78" opacity="1.00" d=" M 168.32 131.34 C 174.62 132.37 165.20 143.65 161.11 138.77 C 160.58 134.73 164.74 131.98 168.32 131.34 Z" />
</g>
<g id="#5c606cfd">
<path fill="#5c606c" opacity="1.00" d=" M 215.39 134.99 L 215.95 134.57 C 222.79 140.17 228.12 147.23 230.28 155.91 C 229.67 157.58 229.26 159.72 230.81 161.02 C 231.04 161.32 231.51 161.92 231.74 162.21 C 231.81 162.89 231.96 164.24 232.03 164.92 C 228.88 162.28 218.61 166.57 221.87 160.79 C 227.75 164.99 224.66 152.94 219.99 154.97 C 219.52 157.18 220.51 159.13 221.87 160.79 C 219.34 163.85 215.56 164.00 211.84 164.24 C 212.73 166.02 216.96 168.39 212.92 168.96 C 209.80 170.10 209.93 167.17 209.70 164.93 C 206.79 164.85 207.33 167.71 207.59 169.67 C 202.98 172.07 202.91 177.40 202.82 182.05 C 201.91 181.56 200.99 181.09 200.07 180.62 C 201.08 173.26 194.11 182.16 189.73 179.52 C 190.41 176.30 193.35 177.62 195.68 177.84 C 196.44 174.26 197.10 170.58 199.04 167.40 C 201.03 165.87 203.38 164.40 203.00 161.50 C 205.67 160.04 208.62 166.56 209.09 161.84 C 212.08 153.82 198.93 162.81 197.22 156.87 C 198.05 150.72 207.01 155.55 208.92 149.86 C 211.53 144.67 211.31 155.77 215.00 152.05 C 216.51 149.32 220.33 148.06 220.98 145.14 C 215.77 145.65 213.32 142.89 214.79 137.73 C 214.94 137.04 215.24 135.68 215.39 134.99 Z" />
</g>
<g id="#777e80ff">
<path fill="#777e80" opacity="1.00" d=" M 212.89 142.99 C 212.09 140.63 211.81 138.34 214.79 137.73 C 213.32 142.89 215.77 145.65 220.98 145.14 C 220.33 148.06 216.51 149.32 215.00 152.05 C 211.31 155.77 211.53 144.67 208.92 149.86 C 207.01 155.55 198.05 150.72 197.22 156.87 C 198.93 162.81 212.08 153.82 209.09 161.84 C 208.62 166.56 205.67 160.04 203.00 161.50 C 199.01 158.90 193.95 165.91 199.04 167.40 C 197.10 170.58 196.44 174.26 195.68 177.84 C 193.35 177.62 190.41 176.30 189.73 179.52 C 194.11 182.16 201.08 173.26 200.07 180.62 C 196.74 182.24 195.56 186.38 193.81 189.42 C 198.24 188.27 208.26 196.74 204.05 188.23 C 202.07 189.74 199.89 189.75 198.11 187.89 C 199.22 185.60 199.89 183.16 200.07 180.62 C 200.99 181.09 201.91 181.56 202.82 182.05 C 205.29 187.45 210.06 190.83 215.71 192.29 C 221.41 194.36 213.88 198.15 211.90 200.35 C 207.51 201.74 204.17 196.93 199.80 196.18 C 201.98 201.24 206.32 211.47 197.26 209.76 C 198.20 203.20 192.95 209.76 189.77 207.20 C 187.36 205.88 183.53 210.06 183.30 205.47 C 185.81 204.06 188.12 202.23 190.96 201.53 C 187.70 197.56 184.82 193.21 182.14 188.75 L 181.63 188.11 C 186.55 182.21 183.31 173.60 186.21 165.97 C 184.94 167.25 183.85 169.25 181.76 168.30 C 182.30 162.16 187.02 157.23 187.23 150.99 C 185.97 153.42 184.59 152.36 183.43 150.54 C 184.73 149.95 186.43 147.21 187.49 149.49 C 191.96 149.52 188.14 144.34 189.55 141.72 C 192.47 143.53 195.34 142.35 197.87 140.55 C 199.73 141.08 201.64 141.61 203.23 142.76 C 201.59 143.73 199.78 146.58 203.10 146.35 C 196.40 152.10 209.73 151.67 207.21 145.46 C 210.11 146.45 208.77 142.63 209.16 140.95 C 210.38 141.67 211.62 142.36 212.89 142.99 Z" />
</g>
<g id="#0000004b">
<path fill="#000000" opacity="0.29" d=" M 0.00 142.08 C 41.27 139.78 82.66 142.89 123.80 146.45 C 125.28 146.16 126.71 145.70 128.15 145.23 C 128.06 145.63 127.90 146.42 127.81 146.81 C 126.75 149.06 126.53 152.81 121.96 149.91 C 85.76 148.21 48.79 143.14 13.02 151.06 C 11.00 152.21 5.88 151.99 7.05 155.68 C 37.94 164.97 70.41 163.28 102.04 167.98 C 110.02 169.27 118.05 170.31 126.12 170.85 L 126.80 171.24 C 127.78 175.16 132.18 178.54 131.30 182.72 C 130.74 183.04 129.64 183.69 129.09 184.01 C 130.97 173.88 119.04 173.63 112.12 174.78 C 75.30 166.40 37.13 169.38 0.00 162.85 L 0.00 142.08 Z" />
</g>
<g id="#b6bea1ff">
<path fill="#b6bea1" opacity="1.00" d=" M 203.23 142.76 C 205.49 143.63 204.63 145.20 203.10 146.35 C 199.78 146.58 201.59 143.73 203.23 142.76 Z" />
</g>
<g id="#58606bff">
<path fill="#58606b" opacity="1.00" d=" M 181.55 145.17 C 183.78 146.31 181.39 149.26 183.43 150.54 C 184.59 152.36 185.97 153.42 187.23 150.99 C 187.02 157.23 182.30 162.16 181.76 168.30 C 181.18 166.21 180.58 164.12 179.95 162.05 C 181.20 160.36 182.67 158.47 181.89 156.23 C 179.28 152.89 176.54 160.50 179.03 162.34 C 176.71 162.87 174.84 164.26 173.15 165.86 C 167.87 161.72 173.14 155.42 178.32 154.29 C 181.89 153.33 179.12 149.24 177.65 147.46 C 179.66 148.30 180.62 146.67 181.55 145.17 Z" />
</g>
<g id="#0000005a">
<path fill="#000000" opacity="0.35" d=" M 13.02 151.06 C 48.79 143.14 85.76 148.21 121.96 149.91 C 126.53 152.81 126.75 149.06 127.81 146.81 C 128.00 148.56 128.27 150.29 128.54 152.03 C 110.18 153.86 91.52 150.54 73.04 152.20 C 69.92 153.25 64.34 155.10 69.34 157.64 C 87.83 162.72 106.94 165.06 125.85 168.13 C 125.92 168.81 126.05 170.17 126.12 170.85 C 118.05 170.31 110.02 169.27 102.04 167.98 C 70.41 163.28 37.94 164.97 7.05 155.68 C 5.88 151.99 11.00 152.21 13.02 151.06 Z" />
</g>
<g id="#0000006d">
<path fill="#000000" opacity="0.43" d=" M 73.04 152.20 C 91.52 150.54 110.18 153.86 128.54 152.03 C 129.17 156.63 123.46 160.27 125.50 165.21 C 125.59 165.94 125.76 167.40 125.85 168.13 C 106.94 165.06 87.83 162.72 69.34 157.64 C 64.34 155.10 69.92 153.25 73.04 152.20 Z" />
</g>
<g id="#555b68ff">
<path fill="#555b68" opacity="1.00" d=" M 155.00 152.01 C 158.79 151.32 166.50 151.67 166.97 156.82 C 163.62 158.02 158.56 164.80 158.73 157.34 C 155.65 157.17 154.21 154.94 155.00 152.01 Z" />
</g>
<g id="#828a7dff">
<path fill="#828a7d" opacity="1.00" d=" M 179.03 162.34 C 176.54 160.50 179.28 152.89 181.89 156.23 C 182.67 158.47 181.20 160.36 179.95 162.05 L 179.03 162.34 Z" />
</g>
<g id="#9397a8ff">
<path fill="#9397a8" opacity="1.00" d=" M 219.99 154.97 C 224.66 152.94 227.75 164.99 221.87 160.79 C 220.51 159.13 219.52 157.18 219.99 154.97 Z" />
</g>
<g id="#20212586">
<path fill="#202125" opacity="0.53" d=" M 230.28 155.91 C 231.45 157.38 231.37 159.33 230.81 161.02 C 229.26 159.72 229.67 157.58 230.28 155.91 Z" />
</g>
<g id="#565a6ffd">
<path fill="#565a6f" opacity="1.00" d=" M 125.50 165.21 C 125.40 160.46 132.88 152.67 135.11 160.14 C 134.14 164.05 135.42 167.51 136.98 170.90 C 134.76 175.20 129.91 173.72 126.80 171.24 L 126.12 170.85 C 126.05 170.17 125.92 168.81 125.85 168.13 C 125.76 167.40 125.59 165.94 125.50 165.21 Z" />
</g>
<g id="#303136fe">
<path fill="#303136" opacity="1.00" d=" M 135.11 160.14 C 136.24 155.39 138.01 162.30 140.18 160.19 C 143.61 157.15 142.14 164.40 144.94 165.13 C 147.60 166.68 150.71 162.72 153.15 164.81 C 155.26 167.11 158.66 168.65 159.15 172.05 C 156.94 170.50 149.49 168.22 151.81 173.18 C 156.21 177.02 150.80 182.37 145.82 180.68 C 145.72 185.52 140.52 187.86 136.29 188.17 C 135.22 190.02 134.69 192.56 131.97 192.08 C 132.78 188.96 136.26 183.90 131.30 182.72 C 132.18 178.54 127.78 175.16 126.80 171.24 C 129.91 173.72 134.76 175.20 136.98 170.90 C 135.42 167.51 134.14 164.05 135.11 160.14 Z" />
</g>
<g id="#9699a7ff">
<path fill="#9699a7" opacity="1.00" d=" M 199.04 167.40 C 193.95 165.91 199.01 158.90 203.00 161.50 C 203.38 164.40 201.03 165.87 199.04 167.40 Z" />
</g>
<g id="#3d404dff">
<path fill="#3d404d" opacity="1.00" d=" M 211.84 164.24 C 215.56 164.00 219.34 163.85 221.87 160.79 C 218.61 166.57 228.88 162.28 232.03 164.92 L 232.84 165.16 C 235.26 165.74 236.36 167.74 237.12 169.92 C 235.76 176.08 230.32 168.99 227.26 168.35 C 222.57 167.59 222.81 177.52 218.42 172.38 C 215.46 174.06 213.75 177.40 213.79 180.76 C 216.72 178.29 220.61 182.68 217.99 177.42 C 220.99 178.01 225.70 176.04 223.79 180.91 C 220.41 184.01 219.33 188.50 221.25 192.76 C 224.02 194.18 227.22 193.18 230.19 193.71 C 230.14 194.28 230.05 195.42 230.00 195.99 C 228.70 195.75 227.40 195.49 226.10 195.28 C 223.43 194.20 221.19 195.92 219.42 197.73 C 216.80 199.14 219.88 205.49 216.48 204.67 C 216.19 201.69 212.71 203.02 211.90 200.35 C 213.88 198.15 221.41 194.36 215.71 192.29 C 210.06 190.83 205.29 187.45 202.82 182.05 C 202.91 177.40 202.98 172.07 207.59 169.67 C 207.33 167.71 206.79 164.85 209.70 164.93 C 209.93 167.17 209.80 170.10 212.92 168.96 C 216.96 168.39 212.73 166.02 211.84 164.24 Z" />
</g>
<g id="#585d6fff">
<path fill="#585d6f" opacity="1.00" d=" M 155.88 162.01 C 158.38 161.18 158.34 164.40 160.12 164.96 C 162.65 165.48 162.27 161.09 165.00 161.96 C 164.08 164.43 166.18 171.11 162.05 169.96 C 158.79 169.06 157.45 164.68 155.88 162.01 Z" />
</g>
<g id="#1415157a">
<path fill="#141515" opacity="0.48" d=" M 231.74 162.21 C 234.07 164.30 237.23 164.45 240.21 164.91 C 238.37 164.97 234.68 165.10 232.84 165.16 L 232.03 164.92 C 231.96 164.24 231.81 162.89 231.74 162.21 Z" />
</g>
<g id="#00000040">
<path fill="#000000" opacity="0.25" d=" M 0.00 162.85 C 37.13 169.38 75.30 166.40 112.12 174.78 C 119.04 173.63 130.97 173.88 129.09 184.01 C 126.98 186.40 126.50 189.61 126.05 192.65 C 122.21 196.94 124.86 203.61 121.70 207.86 C 101.26 210.69 80.96 205.49 60.53 204.56 C 40.14 202.34 19.81 199.55 0.00 194.07 L 0.00 187.75 C 32.75 195.46 65.65 205.10 99.74 202.88 C 102.79 199.45 102.68 191.76 97.48 190.42 C 94.67 189.13 95.65 184.47 92.56 183.58 C 86.88 183.36 85.65 176.22 80.05 175.84 C 64.39 172.41 48.00 172.44 32.01 171.87 C 21.44 170.28 10.59 168.35 0.00 169.10 L 0.00 162.85 Z" />
</g>
<g id="#37383ffa">
<path fill="#37383f" opacity="0.98" d=" M 232.84 165.16 C 234.68 165.10 238.37 164.97 240.21 164.91 C 249.29 165.77 258.10 168.84 264.85 175.22 C 265.54 179.06 265.03 183.15 262.14 185.95 C 256.42 188.94 251.07 194.35 244.24 193.85 C 240.16 193.19 235.86 192.51 231.81 193.64 L 231.03 193.79 L 230.19 193.71 C 227.22 193.18 224.02 194.18 221.25 192.76 C 219.33 188.50 220.41 184.01 223.79 180.91 C 225.78 189.03 234.98 178.83 236.72 186.17 C 237.25 187.69 237.47 189.68 239.30 190.17 C 239.29 187.30 242.16 182.39 244.75 186.24 C 246.32 188.25 246.34 185.27 246.80 184.14 C 249.99 182.71 254.46 186.39 256.79 181.78 C 261.68 177.92 255.35 170.18 250.20 172.19 C 249.53 170.92 248.17 168.38 247.49 167.11 C 243.99 167.91 240.46 168.62 237.12 169.92 C 236.36 167.74 235.26 165.74 232.84 165.16 Z" />
</g>
<g id="#596268ff">
<path fill="#596268" opacity="1.00" d=" M 181.76 168.30 C 183.85 169.25 184.94 167.25 186.21 165.97 C 183.31 173.60 186.55 182.21 181.63 188.11 C 180.58 186.99 179.03 185.18 180.86 183.94 C 184.88 181.52 184.11 173.02 179.00 177.73 C 176.42 173.70 184.39 172.84 181.76 168.30 Z" />
</g>
<g id="#515463ff">
<path fill="#515463" opacity="1.00" d=" M 247.49 167.11 C 248.17 168.38 249.53 170.92 250.20 172.19 C 247.48 176.87 242.19 172.46 238.21 172.04 C 236.47 175.56 237.52 180.23 238.12 184.07 C 241.42 182.59 244.13 180.45 246.80 184.14 C 246.34 185.27 246.32 188.25 244.75 186.24 C 242.16 182.39 239.29 187.30 239.30 190.17 C 237.47 189.68 237.25 187.69 236.72 186.17 C 234.98 178.83 225.78 189.03 223.79 180.91 C 225.70 176.04 220.99 178.01 217.99 177.42 C 220.61 182.68 216.72 178.29 213.79 180.76 C 213.75 177.40 215.46 174.06 218.42 172.38 C 222.81 177.52 222.57 167.59 227.26 168.35 C 230.32 168.99 235.76 176.08 237.12 169.92 C 240.46 168.62 243.99 167.91 247.49 167.11 Z" />
</g>
<g id="#00000034">
<path fill="#000000" opacity="0.20" d=" M 0.00 169.10 C 10.59 168.35 21.44 170.28 32.01 171.87 C 48.00 172.44 64.39 172.41 80.05 175.84 C 85.65 176.22 86.88 183.36 92.56 183.58 C 95.65 184.47 94.67 189.13 97.48 190.42 C 102.68 191.76 102.79 199.45 99.74 202.88 C 65.65 205.10 32.75 195.46 0.00 187.75 L 0.00 169.10 Z" />
</g>
<g id="#72737fff">
<path fill="#72737f" opacity="1.00" d=" M 238.21 172.04 C 242.19 172.46 247.48 176.87 250.20 172.19 C 255.35 170.18 261.68 177.92 256.79 181.78 C 254.46 186.39 249.99 182.71 246.80 184.14 C 244.13 180.45 241.42 182.59 238.12 184.07 C 237.52 180.23 236.47 175.56 238.21 172.04 Z" />
</g>
<g id="#6e7676ff">
<path fill="#6e7676" opacity="1.00" d=" M 171.23 181.14 C 174.15 180.15 180.09 182.81 177.32 186.30 C 174.78 191.13 167.11 184.07 171.23 181.14 Z" />
</g>
<g id="#93989cff">
<path fill="#93989c" opacity="1.00" d=" M 193.81 189.42 C 195.56 186.38 196.74 182.24 200.07 180.62 C 199.89 183.16 199.22 185.60 198.11 187.89 C 199.89 189.75 202.07 189.74 204.05 188.23 C 208.26 196.74 198.24 188.27 193.81 189.42 Z" />
</g>
<g id="#0101011d">
<path fill="#010101" opacity="0.11" d=" M 244.24 193.85 C 251.07 194.35 256.42 188.94 262.14 185.95 C 260.99 189.32 257.37 190.90 255.96 194.08 C 255.15 197.64 257.69 200.10 258.97 202.99 C 254.63 205.83 257.73 213.09 252.04 214.21 C 252.64 217.04 255.53 217.54 257.84 218.44 C 258.31 221.86 254.55 220.35 252.61 220.06 C 252.70 222.59 249.84 225.68 253.85 226.17 C 258.27 227.02 253.61 230.64 252.73 232.87 C 259.33 229.12 267.05 226.77 274.38 225.70 L 273.94 226.69 C 264.38 229.25 256.82 235.28 249.06 241.00 C 239.70 241.82 231.07 245.45 221.99 247.21 C 221.07 245.09 220.22 242.93 219.28 240.81 C 214.06 235.25 217.83 229.40 222.31 224.37 C 223.29 223.30 224.30 222.26 225.17 221.10 C 227.83 217.28 229.14 212.70 230.24 208.24 C 231.06 203.46 231.03 198.61 231.03 193.79 L 231.81 193.64 C 235.94 193.74 240.09 193.81 244.24 193.85 Z" />
</g>
<g id="#65696ffe">
<path fill="#65696f" opacity="1.00" d=" M 182.14 188.75 C 184.82 193.21 187.70 197.56 190.96 201.53 C 188.12 202.23 185.81 204.06 183.30 205.47 C 183.53 210.06 187.36 205.88 189.77 207.20 C 192.95 209.76 198.20 203.20 197.26 209.76 C 206.32 211.47 201.98 201.24 199.80 196.18 C 204.17 196.93 207.51 201.74 211.90 200.35 C 212.71 203.02 216.19 201.69 216.48 204.67 C 219.88 205.49 216.80 199.14 219.42 197.73 C 220.72 203.96 225.60 199.08 226.10 195.28 C 227.40 195.49 228.70 195.75 230.00 195.99 C 230.07 200.07 230.15 204.15 230.24 208.24 C 229.14 212.70 227.83 217.28 225.17 221.10 C 226.67 215.16 221.72 219.30 218.28 218.12 C 218.84 221.66 216.84 227.00 222.31 224.37 C 217.83 229.40 214.06 235.25 219.28 240.81 C 216.28 244.84 217.86 249.70 219.74 253.83 C 217.18 258.61 210.49 260.01 206.13 256.89 C 203.52 254.16 204.20 250.64 208.07 249.07 C 214.33 248.65 206.85 239.99 213.03 242.88 C 211.42 239.94 209.65 234.76 214.07 238.85 C 212.90 234.80 215.38 231.58 216.13 227.90 C 212.65 227.91 212.88 233.38 209.23 232.89 C 208.66 232.56 207.52 231.90 206.95 231.57 C 209.79 229.82 213.70 227.92 214.02 224.16 C 212.03 221.81 205.65 223.87 206.72 227.14 C 208.65 232.54 201.07 227.42 198.99 230.94 C 196.37 232.95 196.31 237.06 198.00 239.74 C 192.63 237.53 194.63 248.34 190.67 243.29 C 187.79 240.36 195.74 237.40 190.59 235.50 C 191.88 232.06 189.89 227.18 192.98 222.96 C 190.68 223.32 185.55 227.06 187.43 222.36 C 189.10 217.47 183.81 221.63 183.83 224.31 C 181.29 222.71 178.11 222.42 176.21 225.11 C 177.09 222.57 176.29 220.06 175.24 217.71 C 178.51 216.81 180.85 219.83 183.93 220.21 C 186.26 215.84 181.13 215.19 180.89 211.90 C 185.86 210.73 185.55 214.58 185.95 217.91 C 188.81 214.30 196.79 217.23 195.01 211.05 C 190.44 213.33 186.12 211.60 182.09 209.42 C 178.14 206.26 178.07 212.51 179.97 214.86 C 177.82 217.49 174.14 215.34 175.47 212.21 C 169.92 212.84 172.44 207.95 175.78 206.63 C 177.12 203.78 172.86 204.30 172.84 201.81 C 172.68 200.50 172.48 199.20 172.25 197.91 C 177.74 203.26 176.20 192.29 181.80 193.89 C 179.51 192.33 179.94 190.15 182.14 188.75 M 182.30 196.29 C 179.34 196.03 178.69 202.20 182.01 201.03 C 185.85 202.21 186.04 194.87 182.30 196.29 M 209.18 202.10 C 207.31 205.05 211.13 207.57 208.88 210.76 C 212.75 210.76 215.01 210.12 216.08 206.05 C 211.23 209.16 213.94 200.13 209.18 202.10 M 209.04 212.98 C 212.90 216.63 202.81 221.33 207.56 221.66 C 209.02 217.15 215.30 218.26 216.94 214.14 C 215.11 211.77 211.18 213.84 209.04 212.98 Z" />
</g>
<g id="#616879ff">
<path fill="#616879" opacity="1.00" d=" M 154.27 192.24 C 159.11 190.69 157.34 205.44 149.99 200.99 C 149.85 197.75 151.35 193.85 154.27 192.24 Z" />
</g>
<g id="#686f82ff">
<path fill="#686f82" opacity="1.00" d=" M 168.23 192.11 C 172.11 190.45 173.84 194.94 172.25 197.91 C 168.97 198.97 164.81 194.56 168.23 192.11 Z" />
</g>
<g id="#0000004f">
<path fill="#000000" opacity="0.31" d=" M 126.05 192.65 C 126.18 193.22 126.43 194.35 126.55 194.91 C 124.95 200.24 127.60 205.22 131.15 208.91 C 131.13 209.41 131.10 210.39 131.09 210.89 C 99.95 214.19 68.78 205.12 37.81 207.85 C 34.80 210.56 28.18 204.22 28.13 209.71 C 49.40 219.05 73.06 221.02 94.69 229.41 C 109.00 233.79 123.32 238.40 138.11 240.92 L 138.20 241.85 C 114.87 240.51 93.13 230.20 70.31 225.74 C 46.91 220.89 23.36 216.85 0.00 211.81 L 0.00 194.07 C 19.81 199.55 40.14 202.34 60.53 204.56 C 80.96 205.49 101.26 210.69 121.70 207.86 C 124.86 203.61 122.21 196.94 126.05 192.65 Z" />
</g>
<g id="#10111187">
<path fill="#101111" opacity="0.53" d=" M 231.81 193.64 C 235.86 192.51 240.16 193.19 244.24 193.85 C 240.09 193.81 235.94 193.74 231.81 193.64 Z" />
</g>
<g id="#2324258e">
<path fill="#232425" opacity="0.56" d=" M 230.19 193.71 L 231.03 193.79 C 231.03 198.61 231.06 203.46 230.24 208.24 C 230.15 204.15 230.07 200.07 230.00 195.99 C 230.05 195.42 230.14 194.28 230.19 193.71 Z" />
</g>
<g id="#34363dfc">
<path fill="#34363d" opacity="1.00" d=" M 131.15 208.91 C 127.60 205.22 124.95 200.24 126.55 194.91 C 130.68 196.94 132.72 198.27 132.79 204.24 C 138.60 211.44 138.22 193.82 144.92 198.12 C 142.10 202.42 140.50 207.37 137.01 211.13 C 135.76 215.73 141.08 215.02 143.72 213.80 C 147.56 211.65 143.53 221.61 148.00 220.04 C 152.81 220.09 151.10 214.65 149.88 211.89 C 152.71 212.25 156.40 215.50 154.46 218.52 C 151.18 223.15 156.85 228.33 160.26 230.80 C 161.89 231.65 163.60 232.35 165.31 233.02 C 164.33 233.79 163.34 234.54 162.32 235.27 C 160.03 234.06 157.72 232.89 155.40 231.73 C 148.31 222.00 141.87 237.28 142.95 244.01 C 142.74 252.90 151.67 256.90 158.95 259.18 C 163.26 261.67 168.73 254.58 171.63 259.36 C 173.70 264.63 182.71 256.74 180.11 264.04 C 176.86 265.06 169.92 264.62 170.55 269.29 C 160.59 267.77 152.90 261.10 144.01 257.02 C 141.85 254.36 140.23 251.32 138.86 248.20 C 138.69 246.61 138.36 243.44 138.20 241.85 L 138.11 240.92 L 138.05 239.95 C 138.04 239.48 138.03 238.53 138.02 238.06 C 140.62 227.47 130.79 219.35 131.15 208.91 Z" />
</g>
<g id="#8e9090ff">
<path fill="#8e9090" opacity="1.00" d=" M 219.42 197.73 C 221.19 195.92 223.43 194.20 226.10 195.28 C 225.60 199.08 220.72 203.96 219.42 197.73 Z" />
</g>
<g id="#9a9ea2ff">
<path fill="#9a9ea2" opacity="1.00" d=" M 182.30 196.29 C 186.04 194.87 185.85 202.21 182.01 201.03 C 178.69 202.20 179.34 196.03 182.30 196.29 Z" />
</g>
<g id="#5b615fff">
<path fill="#5b615f" opacity="1.00" d=" M 162.67 200.65 C 165.86 198.03 167.02 202.76 168.26 204.93 C 170.81 205.73 172.47 204.28 172.84 201.81 C 172.86 204.30 177.12 203.78 175.78 206.63 C 172.44 207.95 169.92 212.84 175.47 212.21 C 174.14 215.34 177.82 217.49 179.97 214.86 C 178.07 212.51 178.14 206.26 182.09 209.42 C 181.79 210.04 181.19 211.28 180.89 211.90 C 181.13 215.19 186.26 215.84 183.93 220.21 C 180.85 219.83 178.51 216.81 175.24 217.71 C 173.22 214.22 163.99 212.27 168.00 219.97 C 168.77 224.30 172.32 231.79 176.21 225.11 C 178.11 222.42 181.29 222.71 183.83 224.31 C 187.70 227.31 187.06 229.57 182.15 229.95 C 184.65 233.18 183.55 236.41 179.99 238.14 C 184.64 233.78 175.38 227.53 175.28 234.69 C 176.59 239.41 175.92 244.60 169.93 244.12 C 173.89 240.42 170.33 232.84 165.31 233.02 C 163.60 232.35 161.89 231.65 160.26 230.80 C 159.28 225.75 153.29 221.00 157.98 216.03 C 159.75 211.60 166.15 214.76 169.35 213.72 C 168.11 211.21 161.64 212.02 163.91 208.83 C 166.89 205.82 159.24 203.91 162.67 200.65 Z" />
</g>
<g id="#7f818bff">
<path fill="#7f818b" opacity="1.00" d=" M 209.18 202.10 C 213.94 200.13 211.23 209.16 216.08 206.05 C 215.01 210.12 212.75 210.76 208.88 210.76 C 211.13 207.57 207.31 205.05 209.18 202.10 Z" />
</g>
<g id="#0000005d">
<path fill="#000000" opacity="0.36" d=" M 28.13 209.71 C 28.18 204.22 34.80 210.56 37.81 207.85 C 68.78 205.12 99.95 214.19 131.09 210.89 C 131.06 211.40 131.01 212.44 130.98 212.95 C 113.37 215.12 95.73 213.29 78.14 212.17 C 75.13 212.85 69.08 211.51 68.93 215.87 C 91.12 226.02 114.40 233.92 138.05 239.95 L 138.11 240.92 C 123.32 238.40 109.00 233.79 94.69 229.41 C 73.06 221.02 49.40 219.05 28.13 209.71 Z" />
</g>
<g id="#01010180">
<path fill="#010101" opacity="0.50" d=" M 131.15 208.91 C 130.79 219.35 140.62 227.47 138.02 238.06 C 127.28 234.12 115.83 230.69 107.18 222.84 C 105.94 222.00 105.97 220.49 106.00 219.16 C 113.42 217.31 121.18 217.19 128.66 215.64 C 130.11 215.32 131.39 214.68 130.98 212.95 C 131.01 212.44 131.06 211.40 131.09 210.89 C 131.10 210.39 131.13 209.41 131.15 208.91 Z" />
</g>
<g id="#8b8f97ff">
<path fill="#8b8f97" opacity="1.00" d=" M 180.89 211.90 C 181.19 211.28 181.79 210.04 182.09 209.42 C 186.12 211.60 190.44 213.33 195.01 211.05 C 196.79 217.23 188.81 214.30 185.95 217.91 C 185.55 214.58 185.86 210.73 180.89 211.90 Z" />
</g>
<g id="#0000003d">
<path fill="#000000" opacity="0.24" d=" M 0.00 211.81 C 23.36 216.85 46.91 220.89 70.31 225.74 C 93.13 230.20 114.87 240.51 138.20 241.85 C 138.36 243.44 138.69 246.61 138.86 248.20 C 137.08 246.33 135.54 243.65 132.16 244.68 C 103.98 240.39 77.33 229.40 49.01 225.92 C 32.71 223.00 16.21 221.23 0.00 217.76 L 0.00 211.81 Z" />
</g>
<g id="#0000006e">
<path fill="#000000" opacity="0.43" d=" M 68.93 215.87 C 69.08 211.51 75.13 212.85 78.14 212.17 C 95.73 213.29 113.37 215.12 130.98 212.95 C 131.39 214.68 130.11 215.32 128.66 215.64 C 121.18 217.19 113.42 217.31 106.00 219.16 C 105.97 220.49 105.94 222.00 107.18 222.84 C 115.83 230.69 127.28 234.12 138.02 238.06 C 138.03 238.53 138.04 239.48 138.05 239.95 C 114.40 233.92 91.12 226.02 68.93 215.87 Z" />
</g>
<g id="#888c92ff">
<path fill="#888c92" opacity="1.00" d=" M 209.04 212.98 C 211.18 213.84 215.11 211.77 216.94 214.14 C 215.30 218.26 209.02 217.15 207.56 221.66 C 202.81 221.33 212.90 216.63 209.04 212.98 Z" />
</g>
<g id="#888894ff">
<path fill="#888894" opacity="1.00" d=" M 168.00 219.97 C 163.99 212.27 173.22 214.22 175.24 217.71 C 176.29 220.06 177.09 222.57 176.21 225.11 C 172.32 231.79 168.77 224.30 168.00 219.97 Z" />
</g>
<g id="#8e8f94fd">
<path fill="#8e8f94" opacity="1.00" d=" M 218.28 218.12 C 221.72 219.30 226.67 215.16 225.17 221.10 C 224.30 222.26 223.29 223.30 222.31 224.37 C 216.84 227.00 218.84 221.66 218.28 218.12 Z" />
</g>
<g id="#0000002d">
<path fill="#000000" opacity="0.18" d=" M 0.00 217.76 C 16.21 221.23 32.71 223.00 49.01 225.92 C 77.33 229.40 103.98 240.39 132.16 244.68 C 135.54 243.65 137.08 246.33 138.86 248.20 C 140.23 251.32 141.85 254.36 144.01 257.02 C 129.18 247.59 110.42 256.21 95.34 247.81 C 92.68 247.47 88.81 249.04 90.67 244.90 C 89.75 240.72 83.02 246.54 81.42 241.56 C 69.82 242.40 62.58 232.26 51.03 231.99 C 34.15 228.81 17.08 226.68 0.00 224.85 L 0.00 217.76 Z" />
</g>
<g id="#777b81ff">
<path fill="#777b81" opacity="1.00" d=" M 183.83 224.31 C 183.81 221.63 189.10 217.47 187.43 222.36 C 185.55 227.06 190.68 223.32 192.98 222.96 C 189.89 227.18 191.88 232.06 190.59 235.50 C 195.74 237.40 187.79 240.36 190.67 243.29 C 194.63 248.34 192.63 237.53 198.00 239.74 C 200.16 241.38 201.16 244.73 204.09 245.09 C 204.42 242.09 200.67 241.06 200.41 238.26 C 199.24 234.60 203.59 231.39 206.95 231.57 C 207.52 231.90 208.66 232.56 209.23 232.89 C 206.33 232.74 203.20 234.92 202.92 237.89 C 204.64 239.26 207.62 243.72 209.27 240.28 C 210.96 238.29 209.02 235.26 209.23 232.89 C 212.88 233.38 212.65 227.91 216.13 227.90 C 215.38 231.58 212.90 234.80 214.07 238.85 C 209.65 234.76 211.42 239.94 213.03 242.88 C 206.85 239.99 214.33 248.65 208.07 249.07 C 204.20 250.64 203.52 254.16 206.13 256.89 C 202.52 259.80 201.83 252.47 198.80 251.16 C 195.79 252.29 190.24 252.43 191.59 256.77 C 189.72 260.25 186.39 254.90 183.89 257.80 C 178.58 255.57 182.50 245.19 173.74 249.78 C 174.68 247.37 177.85 247.49 179.72 246.02 C 177.77 242.41 177.63 238.08 175.28 234.69 C 175.38 227.53 184.64 233.78 179.99 238.14 C 183.55 236.41 184.65 233.18 182.15 229.95 C 187.06 229.57 187.70 227.31 183.83 224.31 Z" />
</g>
<g id="#4d5056ff">
<path fill="#4d5056" opacity="1.00" d=" M 206.72 227.14 C 205.65 223.87 212.03 221.81 214.02 224.16 C 213.70 227.92 209.79 229.82 206.95 231.57 C 203.59 231.39 199.24 234.60 200.41 238.26 C 200.67 241.06 204.42 242.09 204.09 245.09 C 201.16 244.73 200.16 241.38 198.00 239.74 C 196.31 237.06 196.37 232.95 198.99 230.94 C 201.07 227.42 208.65 232.54 206.72 227.14 Z" />
</g>
<g id="#0b0c0c63">
<path fill="#0b0c0c" opacity="0.39" d=" M 291.72 224.69 C 295.02 224.46 300.81 222.44 303.00 225.01 C 301.68 225.00 300.36 224.99 299.05 224.99 C 297.22 224.91 293.55 224.76 291.72 224.69 Z" />
</g>
<g id="#00000023">
<path fill="#000000" opacity="0.14" d=" M 0.00 224.85 C 17.08 226.68 34.15 228.81 51.03 231.99 C 62.58 232.26 69.82 242.40 81.42 241.56 C 83.02 246.54 89.75 240.72 90.67 244.90 C 88.81 249.04 92.68 247.47 95.34 247.81 C 110.42 256.21 129.18 247.59 144.01 257.02 C 152.90 261.10 160.59 267.77 170.55 269.29 C 173.13 271.21 175.92 272.82 178.81 274.22 C 181.42 276.37 184.25 278.22 187.19 279.89 C 179.64 279.44 173.73 273.52 166.43 271.77 C 160.22 272.03 152.89 263.57 148.14 270.19 C 145.57 273.18 144.35 265.36 141.46 267.56 C 137.15 270.30 133.13 263.58 128.71 265.73 C 125.80 267.73 122.62 264.45 119.78 266.72 C 109.81 263.90 98.92 268.92 88.31 267.24 C 85.36 264.41 81.54 267.51 77.97 265.63 C 73.34 266.39 69.72 258.66 65.81 262.85 C 61.62 260.40 58.00 256.62 52.58 258.49 C 50.02 254.68 44.88 255.36 40.91 255.88 C 40.53 253.18 43.38 252.13 44.15 249.89 C 42.36 250.00 40.80 250.91 39.22 251.66 C 38.45 246.54 31.15 240.78 26.15 243.94 C 21.94 239.10 13.81 242.48 8.87 238.13 C 6.52 235.69 3.18 235.33 0.00 235.02 L 0.00 224.85 Z" />
</g>
<g id="#383c44fc">
<path fill="#383c44" opacity="1.00" d=" M 285.28 226.36 C 287.46 225.92 289.56 225.22 291.72 224.69 C 293.55 224.76 297.22 224.91 299.05 224.99 C 301.52 231.53 294.25 225.45 291.09 228.27 C 288.39 235.41 296.51 233.78 300.28 233.29 C 294.97 237.73 287.23 234.61 281.89 238.59 C 279.82 234.66 275.44 237.74 272.29 235.72 C 268.99 233.56 264.77 238.39 266.30 241.66 C 267.14 244.90 268.85 247.86 269.41 251.19 C 268.70 254.56 267.88 257.93 266.64 261.15 C 261.21 267.62 272.64 271.85 276.80 266.63 C 272.93 264.12 274.16 256.12 275.40 264.01 C 281.22 261.04 287.85 260.42 293.99 257.99 C 295.12 261.64 290.69 260.38 288.65 261.59 C 284.56 262.06 290.60 269.83 285.18 268.78 C 279.54 264.46 280.45 273.32 278.92 276.98 C 275.59 277.23 275.71 279.67 277.89 281.59 C 271.90 276.97 265.22 274.48 257.28 274.18 C 256.69 272.63 256.06 271.09 255.47 269.55 C 258.77 267.54 267.29 262.58 260.77 260.07 C 259.84 258.53 259.65 256.66 259.07 254.97 C 260.98 252.70 260.99 249.74 261.04 246.88 C 258.67 247.41 258.42 250.55 255.94 251.12 C 255.29 248.20 257.37 246.24 259.18 244.35 C 256.95 244.94 255.53 244.03 254.93 241.85 C 259.56 236.81 266.53 232.09 273.73 232.73 C 274.94 229.79 276.79 227.35 280.24 227.28 C 281.93 227.02 283.62 226.75 285.28 226.36 M 277.93 230.03 C 277.15 235.95 284.54 236.56 287.06 233.89 C 288.29 228.46 280.75 229.97 277.93 230.03 M 263.01 268.99 L 263.03 274.06 C 268.69 275.21 269.32 266.84 263.01 268.99 Z" />
</g>
<g id="#5b5e64f9">
<path fill="#5b5e64" opacity="0.98" d=" M 299.05 224.99 C 300.36 224.99 301.68 225.00 303.00 225.01 C 304.68 228.02 303.82 232.18 300.28 233.29 C 296.51 233.78 288.39 235.41 291.09 228.27 C 294.25 225.45 301.52 231.53 299.05 224.99 Z" />
</g>
<g id="#0c0c0f75">
<path fill="#0c0c0f" opacity="0.46" d=" M 274.38 225.70 C 278.01 226.10 281.63 226.21 285.28 226.36 C 283.62 226.75 281.93 227.02 280.24 227.28 C 278.13 227.13 276.04 226.91 273.94 226.69 L 274.38 225.70 Z" />
</g>
<g id="#292a31f6">
<path fill="#292a31" opacity="0.96" d=" M 249.06 241.00 C 256.82 235.28 264.38 229.25 273.94 226.69 C 276.04 226.91 278.13 227.13 280.24 227.28 C 276.79 227.35 274.94 229.79 273.73 232.73 C 266.53 232.09 259.56 236.81 254.93 241.85 C 253.73 242.31 252.52 242.73 251.30 243.11 C 242.49 246.24 228.99 248.76 228.47 259.87 C 228.02 259.88 227.11 259.91 226.65 259.92 C 226.54 259.39 226.31 258.33 226.20 257.80 C 226.44 255.31 224.57 254.91 222.54 254.76 C 222.81 252.22 222.65 249.68 221.99 247.21 C 231.07 245.45 239.70 241.82 249.06 241.00 Z" />
</g>
<g id="#585e5aff">
<path fill="#585e5a" opacity="1.00" d=" M 142.95 244.01 C 141.87 237.28 148.31 222.00 155.40 231.73 C 154.13 238.69 152.47 245.59 152.20 252.69 C 153.50 255.22 156.58 255.70 158.75 253.96 C 158.33 257.13 159.70 258.72 162.92 258.05 C 163.05 259.93 160.11 258.71 158.95 259.18 C 151.67 256.90 142.74 252.90 142.95 244.01 Z" />
</g>
<g id="#5d5f6bff">
<path fill="#5d5f6b" opacity="1.00" d=" M 277.93 230.03 C 280.75 229.97 288.29 228.46 287.06 233.89 C 284.54 236.56 277.15 235.95 277.93 230.03 Z" />
</g>
<g id="#68714cff">
<path fill="#68714c" opacity="1.00" d=" M 155.40 231.73 C 157.72 232.89 160.03 234.06 162.32 235.27 C 162.20 235.57 161.95 236.17 161.83 236.46 C 160.12 239.23 158.42 242.03 157.06 244.99 C 159.65 246.85 162.59 244.02 164.98 242.97 C 163.36 246.43 164.48 247.22 167.98 246.03 C 169.41 251.05 162.37 246.36 163.17 252.06 C 161.42 252.04 159.79 252.45 158.75 253.96 C 156.58 255.70 153.50 255.22 152.20 252.69 C 152.47 245.59 154.13 238.69 155.40 231.73 Z" />
</g>
<g id="#4b4f59ff">
<path fill="#4b4f59" opacity="1.00" d=" M 165.31 233.02 C 170.33 232.84 173.89 240.42 169.93 244.12 C 175.92 244.60 176.59 239.41 175.28 234.69 C 177.63 238.08 177.77 242.41 179.72 246.02 C 177.85 247.49 174.68 247.37 173.74 249.78 C 182.50 245.19 178.58 255.57 183.89 257.80 C 186.39 254.90 189.72 260.25 191.59 256.77 C 190.24 252.43 195.79 252.29 198.80 251.16 C 201.83 252.47 202.52 259.80 206.13 256.89 C 210.49 260.01 217.18 258.61 219.74 253.83 C 217.86 249.70 216.28 244.84 219.28 240.81 C 220.22 242.93 221.07 245.09 221.99 247.21 C 222.65 249.68 222.81 252.22 222.54 254.76 C 224.57 254.91 226.44 255.31 226.20 257.80 C 224.80 263.68 219.32 255.66 219.02 261.06 C 219.35 264.95 215.94 259.98 214.13 259.71 C 214.83 262.57 215.60 265.44 216.75 268.17 C 215.02 267.36 212.03 267.49 212.02 264.99 C 211.84 260.50 201.18 262.57 205.24 266.71 C 205.92 271.38 210.24 268.65 212.69 269.74 C 209.58 274.54 206.93 270.92 202.94 269.83 C 208.34 272.37 207.13 281.25 201.12 281.00 C 198.26 279.69 196.07 275.33 193.07 278.88 C 194.95 275.58 192.43 272.46 188.77 272.87 L 189.22 272.39 C 192.33 269.89 196.61 264.28 191.40 261.58 C 189.12 260.96 186.81 262.90 184.72 263.75 C 183.18 263.87 181.65 263.94 180.11 264.04 C 182.71 256.74 173.70 264.63 171.63 259.36 C 168.73 254.58 163.26 261.67 158.95 259.18 C 160.11 258.71 163.05 259.93 162.92 258.05 C 163.07 256.05 163.09 254.06 163.17 252.06 C 162.37 246.36 169.41 251.05 167.98 246.03 C 164.48 247.22 163.36 246.43 164.98 242.97 C 164.99 240.54 164.40 237.38 161.83 236.46 C 161.95 236.17 162.20 235.57 162.32 235.27 C 163.34 234.54 164.33 233.79 165.31 233.02 Z" />
</g>
<g id="#adb2b0ff">
<path fill="#adb2b0" opacity="1.00" d=" M 202.92 237.89 C 203.20 234.92 206.33 232.74 209.23 232.89 C 209.02 235.26 210.96 238.29 209.27 240.28 C 207.62 243.72 204.64 239.26 202.92 237.89 Z" />
</g>
<g id="#0000001b">
<path fill="#000000" opacity="0.11" d=" M 0.00 235.02 C 3.18 235.33 6.52 235.69 8.87 238.13 C 13.81 242.48 21.94 239.10 26.15 243.94 C 31.15 240.78 38.45 246.54 39.22 251.66 C 40.80 250.91 42.36 250.00 44.15 249.89 C 43.38 252.13 40.53 253.18 40.91 255.88 C 44.88 255.36 50.02 254.68 52.58 258.49 C 58.00 256.62 61.62 260.40 65.81 262.85 C 69.72 258.66 73.34 266.39 77.97 265.63 C 81.54 267.51 85.36 264.41 88.31 267.24 C 98.92 268.92 109.81 263.90 119.78 266.72 C 122.62 264.45 125.80 267.73 128.71 265.73 C 133.13 263.58 137.15 270.30 141.46 267.56 C 144.35 265.36 145.57 273.18 148.14 270.19 C 152.89 263.57 160.22 272.03 166.43 271.77 C 173.73 273.52 179.64 279.44 187.19 279.89 C 191.85 279.39 195.04 283.20 198.92 285.05 C 202.80 286.32 207.02 285.73 211.06 285.97 C 212.92 286.97 214.49 288.77 216.70 288.95 C 219.71 289.64 222.60 288.74 224.25 286.09 C 225.20 285.88 226.15 285.66 227.10 285.43 L 227.93 285.25 C 231.76 284.77 235.39 283.42 238.90 281.89 C 236.47 287.07 229.77 286.42 225.15 288.19 C 220.37 292.21 213.64 290.62 208.04 289.49 C 201.44 288.16 193.88 293.66 188.46 288.31 C 185.86 293.19 178.88 288.64 174.93 292.81 C 170.77 288.10 163.62 291.30 158.32 288.51 C 154.79 288.13 154.30 291.19 154.08 293.88 C 148.66 290.37 142.11 287.85 136.01 290.75 C 132.28 287.64 128.65 296.04 128.69 290.08 C 125.15 289.89 121.90 291.69 118.40 291.92 C 118.31 289.07 116.14 286.00 113.16 286.16 C 107.14 289.69 98.70 291.61 93.81 285.20 C 90.31 282.31 89.17 284.69 88.78 287.88 C 83.00 285.98 75.33 288.87 70.93 284.29 C 66.66 286.98 62.94 284.27 59.07 282.36 C 54.64 284.44 49.81 283.98 45.23 282.67 C 43.71 284.44 39.99 285.62 42.14 282.18 C 44.67 280.13 39.93 277.25 39.54 280.42 C 38.45 285.54 32.54 280.68 28.99 280.32 C 26.75 281.23 24.57 283.69 22.11 281.84 C 20.82 278.69 26.59 280.05 25.87 277.14 C 22.35 275.68 17.60 276.40 14.29 274.79 C 12.48 279.07 10.14 276.85 7.52 274.62 C 1.68 276.43 4.56 269.20 0.00 269.60 L 0.00 235.02 Z" />
</g>
<g id="#585b65fd">
<path fill="#585b65" opacity="1.00" d=" M 266.30 241.66 C 264.77 238.39 268.99 233.56 272.29 235.72 C 275.44 237.74 279.82 234.66 281.89 238.59 C 282.69 239.41 283.48 240.24 284.28 241.07 C 284.33 244.21 281.76 245.79 279.07 246.50 C 281.19 248.54 284.03 252.51 278.85 252.50 C 281.14 253.35 285.51 258.42 286.09 253.94 C 290.39 251.25 285.02 249.22 284.82 246.12 C 293.38 247.21 301.72 244.87 310.12 243.90 C 311.30 248.02 309.27 251.20 306.01 253.19 C 302.34 250.69 298.79 252.79 295.25 254.23 C 294.49 251.87 293.28 245.33 290.12 249.29 C 287.80 254.25 290.40 255.08 293.69 254.89 C 296.82 255.74 302.32 253.49 302.91 258.18 C 303.35 260.42 301.75 261.40 299.88 262.04 C 297.16 261.14 296.19 263.82 297.16 265.96 C 294.48 268.72 291.10 270.45 290.96 274.92 C 289.73 275.34 288.51 275.77 287.30 276.24 C 292.39 271.60 286.39 268.77 280.95 269.98 C 280.60 273.76 285.69 280.43 278.92 276.98 C 280.45 273.32 279.54 264.46 285.18 268.78 C 290.60 269.83 284.56 262.06 288.65 261.59 C 290.69 260.38 295.12 261.64 293.99 257.99 C 287.85 260.42 281.22 261.04 275.40 264.01 C 274.16 256.12 272.93 264.12 276.80 266.63 C 272.64 271.85 261.21 267.62 266.64 261.15 C 272.54 262.41 276.25 251.92 272.26 247.85 C 270.71 245.65 270.30 250.14 269.41 251.19 C 268.85 247.86 267.14 244.90 266.30 241.66 Z" />
</g>
<g id="#7c8372ff">
<path fill="#7c8372" opacity="1.00" d=" M 157.06 244.99 C 158.42 242.03 160.12 239.23 161.83 236.46 C 164.40 237.38 164.99 240.54 164.98 242.97 C 162.59 244.02 159.65 246.85 157.06 244.99 Z" />
</g>
<g id="#30323bfa">
<path fill="#30323b" opacity="0.98" d=" M 284.28 241.07 C 286.00 242.01 287.77 242.98 289.75 243.26 C 293.29 243.57 297.70 245.14 300.99 242.96 C 303.70 241.44 308.63 240.37 310.12 243.90 C 301.72 244.87 293.38 247.21 284.82 246.12 C 285.02 249.22 290.39 251.25 286.09 253.94 C 285.51 258.42 281.14 253.35 278.85 252.50 C 284.03 252.51 281.19 248.54 279.07 246.50 C 281.76 245.79 284.33 244.21 284.28 241.07 Z" />
</g>
<g id="#5b5f65ff">
<path fill="#5b5f65" opacity="1.00" d=" M 251.30 243.11 C 252.52 242.73 253.73 242.31 254.93 241.85 C 255.53 244.03 256.95 244.94 259.18 244.35 C 257.37 246.24 255.29 248.20 255.94 251.12 C 258.42 250.55 258.67 247.41 261.04 246.88 C 260.99 249.74 260.98 252.70 259.07 254.97 C 256.42 254.27 253.23 254.80 251.18 252.80 C 251.88 250.29 251.61 247.38 248.21 247.94 C 249.38 246.41 250.69 244.97 251.30 243.11 Z" />
</g>
<g id="#41454eff">
<path fill="#41454e" opacity="1.00" d=" M 228.47 259.87 C 228.99 248.76 242.49 246.24 251.30 243.11 C 250.69 244.97 249.38 246.41 248.21 247.94 C 248.06 248.67 247.77 250.13 247.62 250.87 C 246.43 251.23 244.65 250.62 243.93 251.86 C 241.95 254.09 241.18 257.02 240.70 259.90 C 237.73 257.21 231.34 254.94 230.62 260.53 C 232.66 269.28 224.55 263.43 226.65 259.92 C 227.11 259.91 228.02 259.88 228.47 259.87 Z" />
</g>
<g id="#0c0c0f7f">
<path fill="#0c0c0f" opacity="0.50" d=" M 289.75 243.26 C 293.50 243.06 297.22 243.01 300.99 242.96 C 297.70 245.14 293.29 243.57 289.75 243.26 Z" />
</g>
<g id="#8c8e95ff">
<path fill="#8c8e95" opacity="1.00" d=" M 269.41 251.19 C 270.30 250.14 270.71 245.65 272.26 247.85 C 276.25 251.92 272.54 262.41 266.64 261.15 C 267.88 257.93 268.70 254.56 269.41 251.19 Z" />
</g>
<g id="#727577ff">
<path fill="#727577" opacity="1.00" d=" M 248.21 247.94 C 251.61 247.38 251.88 250.29 251.18 252.80 C 253.23 254.80 256.42 254.27 259.07 254.97 C 259.65 256.66 259.84 258.53 260.77 260.07 C 267.29 262.58 258.77 267.54 255.47 269.55 C 254.70 270.01 253.94 270.48 253.19 270.96 C 250.45 272.37 248.61 274.77 253.19 274.26 C 250.21 277.74 243.78 278.29 247.84 272.72 C 244.09 273.76 242.85 277.70 240.02 279.91 C 237.92 280.49 235.90 281.33 233.83 281.98 C 234.56 278.78 239.19 277.91 238.98 274.19 C 237.05 273.02 234.88 272.97 232.84 273.85 C 224.94 277.05 225.44 269.97 228.14 266.07 C 230.68 265.99 228.81 271.96 232.25 270.61 C 235.22 269.38 235.65 267.28 231.83 268.68 C 230.93 264.94 236.49 261.95 238.87 265.07 C 241.32 267.58 241.03 263.50 241.65 261.80 C 245.71 265.19 248.18 259.96 250.26 257.17 C 253.26 254.87 248.21 253.29 247.62 250.87 C 247.77 250.13 248.06 248.67 248.21 247.94 Z" />
</g>
<g id="#777e85ff">
<path fill="#777e85" opacity="1.00" d=" M 290.12 249.29 C 293.28 245.33 294.49 251.87 295.25 254.23 C 294.86 254.40 294.08 254.73 293.69 254.89 C 290.40 255.08 287.80 254.25 290.12 249.29 Z" />
</g>
<g id="#888b97ff">
<path fill="#888b97" opacity="1.00" d=" M 243.93 251.86 C 244.65 250.62 246.43 251.23 247.62 250.87 C 248.21 253.29 253.26 254.87 250.26 257.17 C 248.18 259.96 245.71 265.19 241.65 261.80 C 242.37 258.48 243.43 255.23 243.93 251.86 Z" />
</g>
<g id="#34343bee">
<path fill="#34343b" opacity="0.93" d=" M 295.25 254.23 C 298.79 252.79 302.34 250.69 306.01 253.19 C 304.16 254.33 302.58 255.78 302.91 258.18 C 302.32 253.49 296.82 255.74 293.69 254.89 C 294.08 254.73 294.86 254.40 295.25 254.23 Z" />
</g>
<g id="#727a84ff">
<path fill="#727a84" opacity="1.00" d=" M 158.75 253.96 C 159.79 252.45 161.42 252.04 163.17 252.06 C 163.09 254.06 163.07 256.05 162.92 258.05 C 159.70 258.72 158.33 257.13 158.75 253.96 Z" />
</g>
<g id="#63676fff">
<path fill="#63676f" opacity="1.00" d=" M 240.70 259.90 C 241.18 257.02 241.95 254.09 243.93 251.86 C 243.43 255.23 242.37 258.48 241.65 261.80 C 241.03 263.50 241.32 267.58 238.87 265.07 C 236.49 261.95 230.93 264.94 231.83 268.68 C 235.65 267.28 235.22 269.38 232.25 270.61 C 228.81 271.96 230.68 265.99 228.14 266.07 C 225.44 269.97 224.94 277.05 232.84 273.85 C 232.88 278.40 232.06 282.84 227.93 285.25 L 227.10 285.43 C 224.57 283.98 223.58 281.67 224.67 278.91 C 223.53 276.51 211.23 280.33 215.37 274.39 C 217.17 272.14 213.03 271.72 212.69 269.74 C 210.24 268.65 205.92 271.38 205.24 266.71 C 201.18 262.57 211.84 260.50 212.02 264.99 C 212.03 267.49 215.02 267.36 216.75 268.17 C 215.60 265.44 214.83 262.57 214.13 259.71 C 215.94 259.98 219.35 264.95 219.02 261.06 C 219.32 255.66 224.80 263.68 226.20 257.80 C 226.31 258.33 226.54 259.39 226.65 259.92 C 224.55 263.43 232.66 269.28 230.62 260.53 C 231.34 254.94 237.73 257.21 240.70 259.90 Z" />
</g>
<g id="#8f929dff">
<path fill="#8f929d" opacity="1.00" d=" M 184.72 263.75 C 186.81 262.90 189.12 260.96 191.40 261.58 C 196.61 264.28 192.33 269.89 189.22 272.39 C 186.34 270.91 187.40 266.08 184.72 263.75 Z" />
</g>
<g id="#1616188e">
<path fill="#161618" opacity="0.56" d=" M 297.16 265.96 C 296.19 263.82 297.16 261.14 299.88 262.04 C 298.97 263.34 298.16 264.72 297.16 265.96 Z" />
</g>
<g id="#5b6346fb">
<path fill="#5b6346" opacity="1.00" d=" M 170.55 269.29 C 169.92 264.62 176.86 265.06 180.11 264.04 C 181.65 263.94 183.18 263.87 184.72 263.75 C 187.40 266.08 186.34 270.91 189.22 272.39 L 188.77 272.87 C 185.43 273.21 182.10 273.55 178.81 274.22 C 175.92 272.82 173.13 271.21 170.55 269.29 Z" />
</g>
<g id="#737b69ff">
<path fill="#737b69" opacity="1.00" d=" M 263.01 268.99 C 269.32 266.84 268.69 275.21 263.03 274.06 L 263.01 268.99 Z" />
</g>
<g id="#00000014">
<path fill="#000000" opacity="0.08" d=" M 0.00 269.60 C 4.56 269.20 1.68 276.43 7.52 274.62 C 10.14 276.85 12.48 279.07 14.29 274.79 C 17.60 276.40 22.35 275.68 25.87 277.14 C 26.59 280.05 20.82 278.69 22.11 281.84 C 24.57 283.69 26.75 281.23 28.99 280.32 C 32.54 280.68 38.45 285.54 39.54 280.42 C 39.93 277.25 44.67 280.13 42.14 282.18 C 39.99 285.62 43.71 284.44 45.23 282.67 C 49.81 283.98 54.64 284.44 59.07 282.36 C 62.94 284.27 66.66 286.98 70.93 284.29 C 75.33 288.87 83.00 285.98 88.78 287.88 C 89.17 284.69 90.31 282.31 93.81 285.20 C 98.70 291.61 107.14 289.69 113.16 286.16 C 116.14 286.00 118.31 289.07 118.40 291.92 C 121.90 291.69 125.15 289.89 128.69 290.08 C 128.65 296.04 132.28 287.64 136.01 290.75 C 142.11 287.85 148.66 290.37 154.08 293.88 C 154.30 291.19 154.79 288.13 158.32 288.51 C 163.62 291.30 170.77 288.10 174.93 292.81 C 178.88 288.64 185.86 293.19 188.46 288.31 C 193.88 293.66 201.44 288.16 208.04 289.49 C 213.64 290.62 220.37 292.21 225.15 288.19 C 229.77 286.42 236.47 287.07 238.90 281.89 C 239.18 281.39 239.74 280.40 240.02 279.91 C 246.55 281.50 252.56 278.34 257.28 274.18 C 265.22 274.48 271.90 276.97 277.89 281.59 C 279.21 281.59 281.87 281.61 283.20 281.62 C 285.32 280.48 286.34 278.32 287.30 276.24 C 288.51 275.77 289.73 275.34 290.96 274.92 C 289.03 282.76 280.47 285.57 273.51 282.74 C 265.24 276.85 271.89 291.75 266.47 289.45 C 260.03 284.56 256.87 297.40 250.48 295.50 C 246.68 291.79 244.68 299.95 240.13 297.35 C 236.66 299.39 233.32 302.55 230.66 305.78 C 227.79 305.23 226.37 299.70 223.46 302.45 C 220.15 305.22 216.22 306.79 212.05 307.08 C 209.21 311.71 201.50 304.04 201.91 309.82 C 199.16 305.71 195.72 311.71 192.01 310.31 C 184.43 313.34 174.03 309.33 168.02 316.01 C 166.81 320.52 160.56 318.45 164.79 314.99 C 159.33 312.90 153.96 315.90 148.94 317.89 C 146.45 318.91 142.51 317.05 141.29 320.33 C 133.29 324.49 123.55 324.20 115.11 324.91 C 107.95 319.67 102.96 329.73 95.63 323.69 C 90.56 330.93 87.58 318.15 82.40 320.67 C 79.33 323.90 74.25 320.86 70.83 323.81 C 71.67 321.83 74.62 318.56 71.52 317.23 C 70.43 320.38 67.42 319.22 64.88 319.04 C 70.03 325.47 59.10 322.90 54.82 323.88 C 55.92 321.94 58.12 321.48 60.05 320.77 C 57.41 315.43 51.47 319.85 47.20 320.07 C 48.68 316.84 47.19 310.06 42.60 312.42 C 41.00 316.04 37.05 317.50 34.21 320.00 C 33.01 317.67 34.28 312.20 30.35 313.33 C 26.27 314.06 24.30 308.21 20.35 309.22 C 18.65 311.74 14.95 315.33 13.01 310.97 C 11.65 306.96 8.21 311.65 9.52 314.10 C 5.83 315.05 5.98 311.45 4.91 308.99 C 3.22 309.69 1.65 310.65 0.00 311.45 L 0.00 269.60 Z" />
</g>
<g id="#363940fb">
<path fill="#363940" opacity="1.00" d=" M 202.94 269.83 C 206.93 270.92 209.58 274.54 212.69 269.74 C 213.03 271.72 217.17 272.14 215.37 274.39 C 211.23 280.33 223.53 276.51 224.67 278.91 C 223.58 281.67 224.57 283.98 227.10 285.43 C 226.15 285.66 225.20 285.88 224.25 286.09 C 221.76 286.79 217.69 285.90 216.70 288.95 C 214.49 288.77 212.92 286.97 211.06 285.97 C 207.25 284.53 202.93 285.33 198.92 285.05 C 195.04 283.20 191.85 279.39 187.19 279.89 C 184.25 278.22 181.42 276.37 178.81 274.22 C 182.10 273.55 185.43 273.21 188.77 272.87 C 192.43 272.46 194.95 275.58 193.07 278.88 C 196.07 275.33 198.26 279.69 201.12 281.00 C 207.13 281.25 208.34 272.37 202.94 269.83 Z" />
</g>
<g id="#5c623ff2">
<path fill="#5c623f" opacity="0.95" d=" M 253.19 270.96 C 253.94 270.48 254.70 270.01 255.47 269.55 C 256.06 271.09 256.69 272.63 257.28 274.18 C 252.56 278.34 246.55 281.50 240.02 279.91 C 242.85 277.70 244.09 273.76 247.84 272.72 C 243.78 278.29 250.21 277.74 253.19 274.26 C 254.50 273.58 253.16 272.02 253.19 270.96 Z" />
</g>
<g id="#727c82fb">
<path fill="#727c82" opacity="1.00" d=" M 280.95 269.98 C 286.39 268.77 292.39 271.60 287.30 276.24 C 286.34 278.32 285.32 280.48 283.20 281.62 C 281.70 280.28 279.39 280.28 277.89 281.59 C 275.71 279.67 275.59 277.23 278.92 276.98 C 285.69 280.43 280.60 273.76 280.95 269.98 Z" />
</g>
<g id="#e4e7d6ff">
<path fill="#e4e7d6" opacity="1.00" d=" M 253.19 274.26 C 248.61 274.77 250.45 272.37 253.19 270.96 C 253.16 272.02 254.50 273.58 253.19 274.26 Z" />
</g>
<g id="#41444df6">
<path fill="#41444d" opacity="0.96" d=" M 232.84 273.85 C 234.88 272.97 237.05 273.02 238.98 274.19 C 239.19 277.91 234.56 278.78 233.83 281.98 C 235.90 281.33 237.92 280.49 240.02 279.91 C 239.74 280.40 239.18 281.39 238.90 281.89 C 235.39 283.42 231.76 284.77 227.93 285.25 C 232.06 282.84 232.88 278.40 232.84 273.85 Z" />
</g>
<g id="#32373ca7">
<path fill="#32373c" opacity="0.65" d=" M 277.89 281.59 C 279.39 280.28 281.70 280.28 283.20 281.62 C 281.87 281.61 279.21 281.59 277.89 281.59 Z" />
</g>
<g id="#181b2198">
<path fill="#181b21" opacity="0.60" d=" M 198.92 285.05 C 202.93 285.33 207.25 284.53 211.06 285.97 C 207.02 285.73 202.80 286.32 198.92 285.05 Z" />
</g>
<g id="#737879f0">
<path fill="#737879" opacity="0.94" d=" M 216.70 288.95 C 217.69 285.90 221.76 286.79 224.25 286.09 C 222.60 288.74 219.71 289.64 216.70 288.95 Z" />
</g>
</svg>
