<?xml version="1.0" encoding="UTF-8" ?>
<!DOCTYPE svg PUBLIC "-//W3C//DTD SVG 1.1//EN" "http://www.w3.org/Graphics/SVG/1.1/DTD/svg11.dtd">
<svg width="384pt" height="384pt" viewBox="0 0 384 384" version="1.1" xmlns="http://www.w3.org/2000/svg">
<g id="#00000011">
<path fill="#000000" opacity="0.07" d=" M 13.92 31.07 C 16.87 36.06 22.23 33.03 24.63 29.15 C 26.59 34.08 30.42 30.16 33.81 29.20 C 38.30 37.66 49.94 32.99 57.43 34.20 C 59.41 40.22 69.39 33.93 74.06 37.46 C 75.83 34.63 85.31 33.61 83.81 38.59 C 81.58 38.71 80.19 39.95 82.01 41.83 C 85.71 40.69 89.23 38.68 93.30 39.44 C 99.86 38.14 103.12 46.62 109.99 41.22 C 110.17 47.96 118.20 47.56 122.88 45.38 C 125.66 49.62 132.53 48.11 132.19 53.89 C 135.77 52.58 138.34 53.48 138.43 57.66 C 145.36 55.80 146.31 66.05 152.79 65.33 C 156.74 64.47 153.55 72.08 159.37 69.64 C 158.20 77.68 166.24 73.04 169.12 76.89 C 171.84 80.69 177.79 78.33 180.68 82.20 C 177.99 88.92 187.47 88.68 190.85 92.18 C 193.46 98.07 200.31 102.10 206.72 101.33 C 210.89 104.06 214.08 108.23 216.32 112.64 C 217.56 114.56 215.39 120.83 218.59 118.43 C 222.70 115.68 228.79 119.36 231.18 122.89 C 233.10 125.89 233.06 121.51 233.28 119.93 C 236.31 121.57 239.65 124.89 238.19 128.82 C 241.78 129.57 247.46 129.24 248.29 133.84 C 248.61 137.44 252.35 134.97 254.64 135.21 C 256.97 142.70 264.15 147.28 268.63 153.03 C 269.58 146.14 272.22 154.14 275.29 154.73 C 280.25 156.08 274.20 164.73 280.73 163.11 C 276.36 169.40 287.56 171.03 287.57 175.60 C 288.44 180.75 296.93 169.08 291.77 178.86 C 286.22 184.83 293.36 190.62 293.95 196.82 C 289.62 197.32 286.49 198.88 289.47 203.42 C 293.69 204.17 293.88 208.39 290.87 210.85 C 288.31 214.15 299.65 214.26 295.97 217.99 C 293.03 222.08 300.38 221.60 302.60 223.44 C 308.06 226.07 304.06 232.49 306.05 236.90 C 307.63 240.79 313.96 242.33 311.62 247.59 C 311.68 253.16 304.60 256.44 307.38 262.54 C 307.17 267.83 302.12 270.96 296.81 269.26 C 302.23 276.68 291.66 282.00 288.65 287.72 C 290.53 292.87 283.45 291.16 282.03 295.04 C 277.13 296.35 277.13 303.95 270.51 301.35 C 269.26 307.23 260.98 307.86 260.86 314.05 C 254.75 311.51 247.61 315.52 241.96 318.89 C 236.80 322.08 229.69 323.40 227.71 329.92 C 224.07 330.46 225.51 326.27 225.73 324.15 C 223.84 321.42 221.94 325.16 219.97 325.93 C 217.62 325.18 215.31 323.82 212.74 324.06 C 213.81 326.11 215.23 327.95 216.20 330.05 C 212.96 329.09 211.42 324.78 207.36 326.40 C 203.79 328.48 199.21 329.47 196.71 325.52 C 191.25 326.20 187.78 330.62 186.92 335.82 C 184.74 334.61 182.68 332.88 180.04 332.90 C 180.26 334.98 180.74 337.03 180.98 339.12 C 178.14 339.08 179.14 334.05 176.02 334.99 C 172.15 335.39 169.91 339.04 166.94 340.96 C 164.52 339.94 160.74 335.97 159.19 340.08 C 161.54 347.04 154.59 343.69 151.25 344.31 C 150.89 346.76 151.36 349.67 149.08 351.24 C 149.91 347.53 150.58 343.35 146.99 340.83 C 142.73 341.93 149.02 346.12 145.94 347.87 C 144.06 349.08 142.22 352.18 139.84 350.15 C 134.92 346.76 133.60 354.85 132.24 358.17 C 129.55 355.09 127.54 349.68 123.11 353.89 C 120.55 350.19 113.06 348.86 112.39 354.15 C 109.98 354.11 109.65 351.44 108.45 349.87 C 108.81 352.64 105.83 354.36 104.10 351.92 C 100.56 346.98 93.02 353.06 89.06 349.99 C 86.43 347.45 89.47 341.56 84.46 341.80 C 84.80 343.90 85.20 349.47 81.78 347.24 C 76.24 346.64 70.93 336.85 66.33 343.78 C 64.72 337.94 58.85 345.60 57.96 339.94 C 54.68 336.37 51.56 345.97 47.87 342.12 C 44.26 338.12 40.00 342.70 37.36 345.40 C 38.45 341.96 39.01 338.40 40.09 334.96 C 38.07 335.55 36.15 336.39 34.15 337.02 C 36.32 330.91 30.53 337.20 27.27 335.38 C 25.84 339.51 19.75 343.91 18.83 337.02 C 11.76 342.12 7.04 330.78 0.00 330.62 L 0.00 284.89 C 1.82 287.08 3.96 286.92 6.04 285.20 C 10.38 287.70 15.45 292.31 20.71 289.74 C 23.49 288.42 26.08 291.48 29.01 290.26 C 27.39 292.66 26.18 296.56 30.42 295.42 C 35.11 294.85 29.26 287.27 34.59 289.20 C 34.66 291.76 37.13 295.33 39.59 294.65 C 44.45 285.88 52.97 298.25 59.64 298.28 C 63.01 296.26 66.99 298.64 70.38 296.53 C 73.89 295.24 71.84 300.55 71.01 302.17 C 74.95 302.06 75.04 297.35 78.00 295.87 C 81.94 296.63 80.98 304.05 86.54 300.36 C 89.85 299.29 93.43 300.77 90.18 304.03 C 95.08 307.27 100.41 300.90 105.50 303.25 C 109.85 302.99 116.42 307.17 119.37 302.34 C 122.82 302.84 128.04 309.20 127.26 302.07 C 132.16 302.55 136.96 303.48 140.87 299.83 C 144.22 297.56 147.43 301.52 150.97 300.25 C 153.79 299.05 152.39 304.49 155.44 302.68 C 156.97 297.59 163.44 298.85 167.65 298.68 C 172.57 300.95 176.83 294.28 181.77 296.98 C 187.95 300.20 194.55 298.21 199.33 293.80 C 198.95 296.93 201.64 297.88 203.81 295.79 C 206.94 292.39 211.38 298.54 214.19 294.25 C 219.40 295.06 223.96 288.82 228.92 291.95 C 234.15 287.54 241.32 281.98 248.33 283.37 C 254.93 279.52 262.46 276.97 270.11 279.89 C 273.19 282.16 278.69 285.01 281.94 282.07 C 283.49 280.24 284.82 278.24 286.21 276.30 C 291.00 274.94 290.21 268.90 294.99 267.06 C 295.38 263.44 299.10 262.96 300.87 260.80 C 300.96 259.45 301.00 258.10 301.00 256.75 C 302.00 255.89 303.04 255.06 304.06 254.22 C 307.25 251.83 310.57 248.06 308.32 243.69 L 307.99 242.90 C 306.81 239.97 302.13 242.26 299.85 242.85 C 294.42 244.84 288.59 244.11 283.35 242.07 C 283.01 241.76 282.34 241.13 282.01 240.82 C 281.83 239.60 282.11 238.61 282.85 237.86 C 286.67 237.47 290.56 237.33 294.30 236.36 C 297.06 235.87 299.44 234.29 301.26 232.21 C 303.45 230.79 303.47 227.90 302.06 225.90 C 298.57 224.04 292.95 224.65 288.72 225.73 C 276.18 226.78 262.13 227.88 253.12 238.02 C 247.23 241.06 240.77 237.91 234.73 240.75 C 238.41 237.36 236.80 231.78 240.07 228.16 C 241.57 225.18 238.19 220.73 241.62 218.61 C 247.22 213.08 245.17 204.55 245.44 197.42 C 248.59 195.64 252.96 195.04 254.29 191.17 C 259.76 187.61 268.17 184.29 266.00 176.10 C 263.08 170.19 256.40 168.74 251.19 165.67 C 248.72 164.21 246.32 164.09 244.00 165.31 C 241.78 164.70 239.54 164.10 237.22 164.22 C 232.47 165.14 231.06 162.27 231.27 157.74 C 229.23 149.89 226.19 141.45 218.89 137.07 C 215.96 133.71 223.80 132.88 221.62 129.44 C 219.13 126.70 217.41 121.85 212.86 123.16 C 213.04 119.36 212.81 115.60 212.19 111.87 C 211.31 110.09 210.35 108.33 209.10 106.78 C 207.97 105.52 206.59 104.51 205.11 103.70 C 199.02 102.39 189.59 103.41 186.52 96.40 C 184.28 93.63 180.80 91.40 177.17 91.03 C 172.87 90.57 168.88 88.82 165.11 86.79 C 162.83 85.29 160.53 84.98 158.24 85.87 C 151.51 89.46 145.32 84.35 139.37 81.63 C 130.58 77.10 120.08 75.06 112.87 68.04 C 104.19 66.90 96.15 62.76 87.17 64.67 C 77.95 58.28 66.91 64.63 57.34 61.31 C 52.87 61.69 49.62 67.03 44.80 64.15 C 41.05 61.32 35.20 72.09 34.63 65.02 C 31.55 65.85 28.66 67.76 25.63 65.46 C 20.22 67.11 16.61 74.82 10.82 70.27 C 6.97 71.09 2.69 73.12 0.00 76.27 L 0.00 33.10 C 4.80 31.35 9.88 35.14 13.92 31.07 Z" />
</g>
<g id="#0000001a">
<path fill="#000000" opacity="0.10" d=" M 57.34 61.31 C 66.91 64.63 77.95 58.28 87.17 64.67 C 96.15 62.76 104.19 66.90 112.87 68.04 C 120.08 75.06 130.58 77.10 139.37 81.63 C 145.32 84.35 151.51 89.46 158.24 85.87 L 158.10 86.67 C 155.77 88.93 153.26 91.07 150.18 92.21 C 147.15 92.13 144.14 91.84 141.11 92.01 C 131.28 99.17 124.26 85.84 114.33 87.38 C 104.10 85.61 92.44 79.08 82.85 85.67 C 77.48 84.58 72.32 87.87 67.12 86.06 C 71.67 92.01 62.85 88.06 59.90 87.24 C 54.82 88.88 49.35 87.44 44.34 89.33 C 40.04 90.52 35.74 93.27 31.29 91.47 C 21.36 95.87 10.49 94.76 0.00 93.08 L 0.00 76.27 C 2.69 73.12 6.97 71.09 10.82 70.27 C 16.61 74.82 20.22 67.11 25.63 65.46 C 28.66 67.76 31.55 65.85 34.63 65.02 C 35.20 72.09 41.05 61.32 44.80 64.15 C 49.62 67.03 52.87 61.69 57.34 61.31 Z" />
</g>
<g id="#00000023">
<path fill="#000000" opacity="0.14" d=" M 82.85 85.67 C 92.44 79.08 104.10 85.61 114.33 87.38 C 124.26 85.84 131.28 99.17 141.11 92.01 L 140.78 92.84 C 139.42 94.12 137.94 95.31 136.85 96.84 C 136.23 100.29 136.00 103.80 135.32 107.24 C 134.97 107.40 134.28 107.74 133.94 107.90 C 129.82 110.82 126.17 114.57 120.56 112.37 C 115.20 107.68 107.85 110.14 101.44 108.54 C 91.15 113.14 78.53 106.36 68.52 113.41 C 56.66 113.01 43.30 117.95 32.23 114.87 C 32.44 109.41 27.20 112.03 24.16 112.86 C 19.08 105.66 7.96 107.27 0.00 104.77 L 0.00 93.08 C 10.49 94.76 21.36 95.87 31.29 91.47 C 35.74 93.27 40.04 90.52 44.34 89.33 C 49.35 87.44 54.82 88.88 59.90 87.24 C 62.85 88.06 71.67 92.01 67.12 86.06 C 72.32 87.87 77.48 84.58 82.85 85.67 Z" />
</g>
<g id="#22252d87">
<path fill="#22252d" opacity="0.53" d=" M 158.24 85.87 C 160.53 84.98 162.83 85.29 165.11 86.79 C 163.35 86.76 159.85 86.70 158.10 86.67 L 158.24 85.87 Z" />
</g>
<g id="#424752fd">
<path fill="#424752" opacity="1.00" d=" M 150.18 92.21 C 153.26 91.07 155.77 88.93 158.10 86.67 C 159.85 86.70 163.35 86.76 165.11 86.79 C 168.88 88.82 172.87 90.57 177.17 91.03 C 177.62 93.92 175.26 94.12 173.01 94.33 C 172.62 96.54 175.41 96.61 176.72 97.62 C 177.02 100.53 175.76 103.12 175.10 105.83 C 176.45 110.85 175.70 120.16 182.15 120.38 C 180.74 122.50 178.12 121.59 176.00 121.58 C 175.42 119.76 174.06 118.49 172.32 117.77 C 174.10 111.78 173.42 104.07 164.98 106.89 C 156.79 105.62 154.75 121.23 163.88 121.14 C 165.25 121.68 166.68 122.04 168.11 122.38 C 164.64 123.95 160.34 124.13 157.14 121.86 C 154.89 118.14 155.83 111.64 150.29 110.93 C 145.65 101.83 135.93 117.42 144.04 119.36 C 139.30 123.83 137.83 115.49 132.94 116.63 C 131.20 116.79 132.28 113.93 131.81 112.85 C 132.31 111.12 133.14 109.51 133.94 107.90 C 134.28 107.74 134.97 107.40 135.32 107.24 C 139.06 105.78 136.12 100.01 136.85 96.84 C 137.94 95.31 139.42 94.12 140.78 92.84 C 143.89 92.76 147.26 93.63 150.18 92.21 M 154.29 93.15 C 147.25 98.16 159.91 98.40 162.99 95.85 C 161.72 92.37 157.33 92.35 154.29 93.15 Z" />
</g>
<g id="#555b5cfb">
<path fill="#555b5c" opacity="1.00" d=" M 177.17 91.03 C 180.80 91.40 184.28 93.63 186.52 96.40 C 189.59 103.41 199.02 102.39 205.11 103.70 C 202.90 104.78 200.79 106.14 198.38 106.77 C 194.74 104.01 193.69 109.58 190.26 108.97 C 189.06 105.47 187.51 103.00 184.03 106.00 C 183.47 106.26 182.35 106.79 181.79 107.06 C 179.51 108.33 177.32 106.30 175.10 105.83 C 175.76 103.12 177.02 100.53 176.72 97.62 C 175.41 96.61 172.62 96.54 173.01 94.33 C 175.26 94.12 177.62 93.92 177.17 91.03 Z" />
</g>
<g id="#28303ab2">
<path fill="#28303a" opacity="0.70" d=" M 141.11 92.01 C 144.14 91.84 147.15 92.13 150.18 92.21 C 147.26 93.63 143.89 92.76 140.78 92.84 L 141.11 92.01 Z" />
</g>
<g id="#6b7182ff">
<path fill="#6b7182" opacity="1.00" d=" M 154.29 93.15 C 157.33 92.35 161.72 92.37 162.99 95.85 C 159.91 98.40 147.25 98.16 154.29 93.15 Z" />
</g>
<g id="#11121370">
<path fill="#111213" opacity="0.44" d=" M 135.32 107.24 C 136.00 103.80 136.23 100.29 136.85 96.84 C 136.12 100.01 139.06 105.78 135.32 107.24 Z" />
</g>
<g id="#686c74ff">
<path fill="#686c74" opacity="1.00" d=" M 184.03 106.00 C 187.51 103.00 189.06 105.47 190.26 108.97 C 193.69 109.58 194.74 104.01 198.38 106.77 C 195.72 108.91 192.53 112.39 191.85 116.06 C 195.81 114.69 198.63 111.03 198.38 106.77 C 200.79 106.14 202.90 104.78 205.11 103.70 C 206.59 104.51 207.97 105.52 209.10 106.78 C 203.89 104.78 202.20 114.10 204.99 117.01 C 206.96 118.21 210.63 122.93 211.82 118.90 C 212.10 120.33 212.46 121.75 212.86 123.16 C 212.38 126.93 211.17 132.26 215.87 133.86 C 210.54 135.10 216.82 146.68 210.37 140.83 C 206.33 137.80 211.04 131.77 206.37 129.57 C 203.39 127.54 202.73 132.18 201.62 134.02 L 200.92 133.76 C 202.87 128.21 197.15 127.27 193.00 127.00 C 195.52 123.46 194.64 121.35 190.34 120.76 C 192.81 116.03 185.50 113.78 186.82 119.73 C 183.86 123.99 179.79 131.07 187.16 133.37 C 192.77 131.53 191.62 138.29 191.84 141.96 C 188.06 142.23 191.99 147.45 189.92 149.83 C 187.73 149.10 185.53 148.42 183.33 147.72 C 182.24 145.16 178.83 149.72 177.49 145.60 C 177.97 143.00 179.60 138.81 181.94 136.82 C 186.82 132.81 173.04 130.22 178.51 126.44 C 182.20 124.01 174.47 124.83 174.97 121.92 L 176.00 121.58 C 178.12 121.59 180.74 122.50 182.15 120.38 C 175.70 120.16 176.45 110.85 175.10 105.83 C 177.32 106.30 179.51 108.33 181.79 107.06 C 181.59 110.08 182.33 113.86 185.99 114.21 C 187.53 110.90 185.64 108.41 184.03 106.00 Z" />
</g>
<g id="#0000002c">
<path fill="#000000" opacity="0.17" d=" M 0.00 104.77 C 7.96 107.27 19.08 105.66 24.16 112.86 C 27.20 112.03 32.44 109.41 32.23 114.87 C 43.30 117.95 56.66 113.01 68.52 113.41 C 78.53 106.36 91.15 113.14 101.44 108.54 C 107.85 110.14 115.20 107.68 120.56 112.37 C 126.17 114.57 129.82 110.82 133.94 107.90 C 133.14 109.51 132.31 111.12 131.81 112.85 C 131.10 116.86 129.38 120.67 129.04 124.75 C 128.48 127.50 128.09 130.30 128.51 133.10 C 120.89 132.59 113.44 127.87 105.98 131.02 C 103.55 130.89 101.70 127.83 99.38 128.32 C 97.29 132.25 92.10 134.06 88.34 131.44 C 86.98 136.86 80.31 133.91 76.31 135.21 C 50.92 136.45 25.47 133.69 0.00 134.33 L 0.00 104.77 Z" />
</g>
<g id="#969aa8ff">
<path fill="#969aa8" opacity="1.00" d=" M 181.79 107.06 C 182.35 106.79 183.47 106.26 184.03 106.00 C 185.64 108.41 187.53 110.90 185.99 114.21 C 182.33 113.86 181.59 110.08 181.79 107.06 Z" />
</g>
<g id="#979aaafd">
<path fill="#979aaa" opacity="1.00" d=" M 204.99 117.01 C 202.20 114.10 203.89 104.78 209.10 106.78 C 210.35 108.33 211.31 110.09 212.19 111.87 C 212.10 113.63 211.91 117.15 211.82 118.90 C 210.63 122.93 206.96 118.21 204.99 117.01 Z" />
</g>
<g id="#656981ff">
<path fill="#656981" opacity="1.00" d=" M 163.88 121.14 C 154.75 121.23 156.79 105.62 164.98 106.89 C 163.17 111.51 161.73 116.41 163.88 121.14 Z" />
</g>
<g id="#9195a0ff">
<path fill="#9195a0" opacity="1.00" d=" M 164.98 106.89 C 173.42 104.07 174.10 111.78 172.32 117.77 C 171.03 119.40 169.73 121.06 168.11 122.38 C 166.68 122.04 165.25 121.68 163.88 121.14 C 161.73 116.41 163.17 111.51 164.98 106.89 Z" />
</g>
<g id="#92948fff">
<path fill="#92948f" opacity="1.00" d=" M 191.85 116.06 C 192.53 112.39 195.72 108.91 198.38 106.77 C 198.63 111.03 195.81 114.69 191.85 116.06 Z" />
</g>
<g id="#5d6279ff">
<path fill="#5d6279" opacity="1.00" d=" M 144.04 119.36 C 135.93 117.42 145.65 101.83 150.29 110.93 C 149.95 114.74 147.48 117.81 144.04 119.36 Z" />
</g>
<g id="#3c4048fe">
<path fill="#3c4048" opacity="1.00" d=" M 150.29 110.93 C 155.83 111.64 154.89 118.14 157.14 121.86 C 160.34 124.13 164.64 123.95 168.11 122.38 C 169.73 121.06 171.03 119.40 172.32 117.77 C 174.06 118.49 175.42 119.76 176.00 121.58 L 174.97 121.92 C 171.27 123.64 169.52 127.32 168.26 131.04 C 166.66 131.88 164.91 132.55 163.60 133.83 C 161.05 135.44 161.28 140.23 164.98 139.50 C 167.86 138.12 171.85 143.44 168.49 144.79 C 167.50 141.48 164.61 142.17 162.06 143.22 C 160.82 149.03 170.31 146.53 168.25 152.79 C 163.33 151.93 154.71 146.85 154.00 154.73 C 158.82 156.22 162.08 159.78 156.56 162.51 C 157.13 165.20 162.23 172.45 165.69 168.71 C 169.95 164.98 161.64 159.76 167.18 157.12 C 169.02 156.26 168.50 154.41 168.25 152.79 C 171.88 154.74 172.71 157.98 168.26 159.42 C 171.82 164.01 177.05 166.85 182.92 166.87 C 182.93 167.67 182.93 169.26 182.94 170.06 C 177.52 166.62 171.75 171.38 167.87 174.99 C 169.46 180.50 175.04 172.47 176.76 177.33 C 178.09 178.56 175.35 179.33 174.70 180.08 C 170.43 180.44 171.94 185.11 174.20 187.12 C 176.40 190.80 171.04 190.25 168.94 191.78 C 167.56 193.93 166.88 196.41 166.62 198.97 C 162.45 198.59 156.73 197.22 157.16 191.72 C 154.27 188.85 152.39 194.12 151.56 196.52 C 147.18 204.57 155.90 199.92 159.05 199.01 C 158.25 201.00 157.14 202.91 156.90 205.08 C 159.08 205.35 160.29 203.69 161.38 202.13 C 166.17 204.82 162.82 210.81 168.25 212.72 C 159.67 209.95 154.32 219.50 159.06 225.92 C 160.68 232.90 170.49 231.16 172.33 238.20 C 163.10 244.63 171.16 229.22 164.70 235.90 C 159.71 233.81 155.75 228.79 150.26 228.19 C 144.21 233.58 141.80 243.58 146.36 250.63 C 151.27 254.34 157.67 260.25 164.09 258.06 C 166.59 256.96 169.64 260.75 169.36 256.02 C 172.67 256.30 172.85 262.43 176.82 260.71 C 179.59 259.50 184.72 259.91 182.10 263.97 C 178.14 264.24 174.04 265.79 172.67 269.88 C 163.51 268.46 156.53 262.05 148.09 258.98 C 145.15 256.31 141.37 254.03 140.00 250.10 C 139.79 247.37 140.04 244.61 139.04 242.04 L 138.80 241.25 C 143.17 229.81 131.70 222.13 132.46 210.84 C 131.94 208.04 129.68 206.12 128.11 203.90 C 127.09 198.63 126.03 192.97 127.59 187.73 C 127.99 190.10 127.07 195.83 130.80 194.85 C 132.47 191.51 134.21 188.02 134.20 184.21 C 132.76 184.95 131.27 185.65 129.65 184.95 C 130.81 183.75 132.02 182.60 133.27 181.49 C 138.45 188.15 144.08 184.45 148.45 179.58 C 156.52 179.47 153.01 164.75 145.46 167.73 C 145.70 163.51 140.83 160.85 137.00 161.96 C 136.07 166.26 139.32 170.94 136.79 174.96 C 134.71 175.01 132.74 174.22 130.87 173.39 C 138.51 172.98 137.50 161.73 134.76 157.09 C 129.77 155.85 126.68 161.82 126.77 166.05 C 122.89 160.34 130.49 156.83 129.44 151.88 C 129.13 149.90 128.93 147.90 128.82 145.90 L 128.99 145.15 C 130.73 138.26 133.46 131.25 129.04 124.75 C 129.38 120.67 131.10 116.86 131.81 112.85 C 132.28 113.93 131.20 116.79 132.94 116.63 C 137.83 115.49 139.30 123.83 144.04 119.36 C 147.48 117.81 149.95 114.74 150.29 110.93 M 149.19 127.06 C 146.81 129.88 147.23 133.72 149.72 136.29 C 153.84 139.07 144.35 149.84 146.54 139.61 C 142.75 138.31 148.26 132.18 143.21 134.15 C 137.02 140.34 146.88 141.71 145.24 149.17 C 148.41 145.85 151.32 142.16 155.97 140.85 C 154.17 136.22 154.62 128.35 149.19 127.06 M 145.26 186.19 C 142.84 187.79 138.35 193.95 143.88 193.97 C 146.07 192.74 150.52 185.81 145.26 186.19 Z" />
</g>
<g id="#34333495">
<path fill="#343334" opacity="0.58" d=" M 212.19 111.87 C 212.81 115.60 213.04 119.36 212.86 123.16 C 212.46 121.75 212.10 120.33 211.82 118.90 C 211.91 117.15 212.10 113.63 212.19 111.87 Z" />
</g>
<g id="#81848fff">
<path fill="#81848f" opacity="1.00" d=" M 186.82 119.73 C 185.50 113.78 192.81 116.03 190.34 120.76 C 194.64 121.35 195.52 123.46 193.00 127.00 C 187.39 129.36 189.50 122.13 186.82 119.73 Z" />
</g>
<g id="#50565eff">
<path fill="#50565e" opacity="1.00" d=" M 187.16 133.37 C 179.79 131.07 183.86 123.99 186.82 119.73 C 189.50 122.13 187.39 129.36 193.00 127.00 C 197.15 127.27 202.87 128.21 200.92 133.76 C 198.11 135.01 193.43 138.64 198.08 140.92 C 196.18 142.30 194.09 143.05 191.84 141.96 C 191.62 138.29 192.77 131.53 187.16 133.37 Z" />
</g>
<g id="#4c535fff">
<path fill="#4c535f" opacity="1.00" d=" M 168.26 131.04 C 169.52 127.32 171.27 123.64 174.97 121.92 C 174.47 124.83 182.20 124.01 178.51 126.44 C 173.04 130.22 186.82 132.81 181.94 136.82 C 179.60 138.81 177.97 143.00 177.49 145.60 C 178.83 149.72 182.24 145.16 183.33 147.72 C 188.57 153.97 183.60 160.33 182.92 166.87 C 177.05 166.85 171.82 164.01 168.26 159.42 C 172.71 157.98 171.88 154.74 168.25 152.79 C 170.31 146.53 160.82 149.03 162.06 143.22 C 164.61 142.17 167.50 141.48 168.49 144.79 C 171.85 143.44 167.86 138.12 164.98 139.50 C 161.28 140.23 161.05 135.44 163.60 133.83 C 163.10 137.46 168.47 139.65 170.32 136.29 C 172.65 133.89 171.57 129.95 168.26 131.04 M 174.96 134.04 C 174.63 135.86 175.39 138.64 177.79 137.90 C 180.73 135.42 178.27 132.75 174.96 134.04 M 179.37 154.39 C 175.95 155.87 174.07 158.85 177.19 161.93 C 183.05 164.62 185.71 152.92 179.37 154.39 Z" />
</g>
<g id="#46464cf0">
<path fill="#46464c" opacity="0.94" d=" M 212.86 123.16 C 217.41 121.85 219.13 126.70 221.62 129.44 C 223.80 132.88 215.96 133.71 218.89 137.07 C 217.57 136.31 216.83 134.96 215.87 133.86 C 211.17 132.26 212.38 126.93 212.86 123.16 Z" />
</g>
<g id="#00000038">
<path fill="#000000" opacity="0.22" d=" M 129.04 124.75 C 133.46 131.25 130.73 138.26 128.99 145.15 C 118.61 147.62 108.39 143.82 98.00 143.97 C 65.34 142.39 32.72 139.75 0.00 140.99 L 0.00 134.33 C 25.47 133.69 50.92 136.45 76.31 135.21 C 80.31 133.91 86.98 136.86 88.34 131.44 C 92.10 134.06 97.29 132.25 99.38 128.32 C 101.70 127.83 103.55 130.89 105.98 131.02 C 113.44 127.87 120.89 132.59 128.51 133.10 C 128.09 130.30 128.48 127.50 129.04 124.75 Z" />
</g>
<g id="#4f5361ff">
<path fill="#4f5361" opacity="1.00" d=" M 149.19 127.06 C 154.62 128.35 154.17 136.22 155.97 140.85 C 151.32 142.16 148.41 145.85 145.24 149.17 C 146.88 141.71 137.02 140.34 143.21 134.15 C 148.26 132.18 142.75 138.31 146.54 139.61 C 144.35 149.84 153.84 139.07 149.72 136.29 C 147.23 133.72 146.81 129.88 149.19 127.06 Z" />
</g>
<g id="#80894fff">
<path fill="#80894f" opacity="1.00" d=" M 201.62 134.02 C 202.73 132.18 203.39 127.54 206.37 129.57 C 211.04 131.77 206.33 137.80 210.37 140.83 C 210.41 144.15 206.23 146.44 210.50 147.59 C 207.73 148.67 205.30 151.15 202.17 150.95 C 201.07 149.23 201.38 147.52 202.91 146.24 C 206.29 144.56 206.73 142.96 202.56 142.84 C 202.39 142.38 202.05 141.45 201.89 140.99 C 203.61 138.35 206.88 134.47 201.62 134.02 Z" />
</g>
<g id="#6f737dff">
<path fill="#6f737d" opacity="1.00" d=" M 168.26 131.04 C 171.57 129.95 172.65 133.89 170.32 136.29 C 168.47 139.65 163.10 137.46 163.60 133.83 C 164.91 132.55 166.66 131.88 168.26 131.04 Z" />
</g>
<g id="#7f8786ff">
<path fill="#7f8786" opacity="1.00" d=" M 174.96 134.04 C 178.27 132.75 180.73 135.42 177.79 137.90 C 175.39 138.64 174.63 135.86 174.96 134.04 Z" />
</g>
<g id="#616b3bff">
<path fill="#616b3b" opacity="1.00" d=" M 198.08 140.92 C 193.43 138.64 198.11 135.01 200.92 133.76 L 201.62 134.02 C 206.88 134.47 203.61 138.35 201.89 140.99 C 200.61 140.96 199.35 140.94 198.08 140.92 Z" />
</g>
<g id="#81848aff">
<path fill="#81848a" opacity="1.00" d=" M 210.37 140.83 C 216.82 146.68 210.54 135.10 215.87 133.86 C 215.09 138.83 217.09 144.30 213.90 148.67 C 216.99 147.25 217.58 149.14 216.95 152.01 C 213.36 153.16 212.15 149.98 210.50 147.59 C 206.23 146.44 210.41 144.15 210.37 140.83 Z" />
</g>
<g id="#5f636efd">
<path fill="#5f636e" opacity="1.00" d=" M 215.87 133.86 C 216.83 134.96 217.57 136.31 218.89 137.07 C 226.19 141.45 229.23 149.89 231.27 157.74 C 231.13 159.94 230.92 162.13 230.71 164.33 C 227.97 163.38 224.16 163.79 222.55 161.02 C 228.15 164.74 226.24 155.50 222.37 154.61 C 218.76 151.87 221.85 159.22 222.55 161.02 C 219.98 164.39 211.38 161.83 215.97 167.83 C 212.12 170.77 211.26 166.63 209.38 164.02 C 205.49 165.82 211.04 169.06 207.21 170.24 C 203.98 172.34 204.34 176.97 203.59 180.33 C 201.82 180.05 200.95 178.79 200.53 177.16 C 196.50 178.98 192.30 180.64 187.88 181.09 C 188.72 177.51 193.19 176.13 196.53 176.72 C 196.74 172.83 198.65 169.24 201.02 166.22 C 204.64 165.41 204.31 161.90 202.27 159.58 C 200.91 159.10 198.19 158.12 196.83 157.64 C 198.03 155.83 198.79 152.15 201.44 152.48 C 206.00 154.94 209.11 151.20 210.50 147.59 C 212.15 149.98 213.36 153.16 216.95 152.01 C 217.58 149.14 216.99 147.25 213.90 148.67 C 217.09 144.30 215.09 138.83 215.87 133.86 Z" />
</g>
<g id="#00000047">
<path fill="#000000" opacity="0.28" d=" M 0.00 140.99 C 32.72 139.75 65.34 142.39 98.00 143.97 C 108.39 143.82 118.61 147.62 128.99 145.15 L 128.82 145.90 C 127.79 148.40 128.10 152.95 122.95 149.91 C 82.12 147.69 40.36 142.09 0.00 151.21 L 0.00 140.99 Z" />
</g>
<g id="#777e80ff">
<path fill="#777e80" opacity="1.00" d=" M 191.84 141.96 C 194.09 143.05 196.18 142.30 198.08 140.92 C 199.35 140.94 200.61 140.96 201.89 140.99 C 202.05 141.45 202.39 142.38 202.56 142.84 C 202.62 143.98 202.77 145.11 202.91 146.24 C 201.38 147.52 201.07 149.23 202.17 150.95 C 205.30 151.15 207.73 148.67 210.50 147.59 C 209.11 151.20 206.00 154.94 201.44 152.48 C 198.79 152.15 198.03 155.83 196.83 157.64 C 198.19 158.12 200.91 159.10 202.27 159.58 C 198.98 160.34 195.34 167.00 201.02 166.22 C 198.65 169.24 196.74 172.83 196.53 176.72 C 193.19 176.13 188.72 177.51 187.88 181.09 C 192.30 180.64 196.50 178.98 200.53 177.16 C 200.95 178.79 201.82 180.05 203.59 180.33 C 205.57 188.56 213.94 190.44 219.99 194.47 C 216.73 195.24 215.11 198.31 212.85 200.46 C 208.59 199.88 204.87 197.67 201.01 195.95 C 202.47 200.67 207.13 211.02 198.10 208.59 C 201.02 200.87 193.15 211.49 189.93 206.45 C 187.09 208.62 184.19 206.03 182.67 203.54 C 185.67 203.60 191.33 203.27 191.89 200.10 C 188.03 196.58 186.57 191.43 183.09 187.71 C 182.93 185.53 184.63 184.24 185.94 182.79 C 185.90 179.02 183.37 175.23 185.52 171.66 C 186.72 169.88 183.89 170.56 182.94 170.06 C 182.93 169.26 182.93 167.67 182.92 166.87 C 183.60 160.33 188.57 153.97 183.33 147.72 C 185.53 148.42 187.73 149.10 189.92 149.83 C 191.99 147.45 188.06 142.23 191.84 141.96 Z" />
</g>
<g id="#bcc3aaff">
<path fill="#bcc3aa" opacity="1.00" d=" M 202.91 146.24 C 202.77 145.11 202.62 143.98 202.56 142.84 C 206.73 142.96 206.29 144.56 202.91 146.24 Z" />
</g>
<g id="#00000057">
<path fill="#000000" opacity="0.34" d=" M 0.00 151.21 C 40.36 142.09 82.12 147.69 122.95 149.91 C 128.10 152.95 127.79 148.40 128.82 145.90 C 128.93 147.90 129.13 149.90 129.44 151.88 C 106.93 154.84 83.27 148.17 61.02 154.18 C 61.91 160.54 70.36 158.71 74.84 160.30 C 92.02 164.61 109.99 165.12 127.03 169.96 C 127.37 171.23 127.74 172.51 128.16 173.77 C 108.26 170.62 88.18 167.36 67.96 166.19 C 45.23 164.39 22.02 164.36 0.00 157.74 L 0.00 151.21 Z" />
</g>
<g id="#515764ff">
<path fill="#515764" opacity="1.00" d=" M 154.00 154.73 C 154.71 146.85 163.33 151.93 168.25 152.79 C 168.50 154.41 169.02 156.26 167.18 157.12 C 161.64 159.76 169.95 164.98 165.69 168.71 C 162.23 172.45 157.13 165.20 156.56 162.51 C 162.08 159.78 158.82 156.22 154.00 154.73 Z" />
</g>
<g id="#0000006c">
<path fill="#000000" opacity="0.42" d=" M 61.02 154.18 C 83.27 148.17 106.93 154.84 129.44 151.88 C 130.49 156.83 122.89 160.34 126.77 166.05 L 126.88 166.89 C 126.91 167.66 126.99 169.19 127.03 169.96 C 109.99 165.12 92.02 164.61 74.84 160.30 C 70.36 158.71 61.91 160.54 61.02 154.18 Z" />
</g>
<g id="#717a76ff">
<path fill="#717a76" opacity="1.00" d=" M 179.37 154.39 C 185.71 152.92 183.05 164.62 177.19 161.93 C 174.07 158.85 175.95 155.87 179.37 154.39 Z" />
</g>
<g id="#8f91a2ff">
<path fill="#8f91a2" opacity="1.00" d=" M 222.55 161.02 C 221.85 159.22 218.76 151.87 222.37 154.61 C 226.24 155.50 228.15 164.74 222.55 161.02 Z" />
</g>
<g id="#595e73ff">
<path fill="#595e73" opacity="1.00" d=" M 126.77 166.05 C 126.68 161.82 129.77 155.85 134.76 157.09 C 137.50 161.73 138.51 172.98 130.87 173.39 C 128.66 171.89 127.95 169.19 126.88 166.89 L 126.77 166.05 Z" />
</g>
<g id="#00000044">
<path fill="#000000" opacity="0.27" d=" M 0.00 157.74 C 22.02 164.36 45.23 164.39 67.96 166.19 C 88.18 167.36 108.26 170.62 128.16 173.77 C 129.68 176.46 131.44 178.99 133.27 181.49 C 132.02 182.60 130.81 183.75 129.65 184.95 C 128.83 185.77 128.01 186.63 127.59 187.73 C 126.03 192.97 127.09 198.63 128.11 203.90 C 128.77 207.76 125.58 212.03 121.00 210.01 C 104.52 211.41 88.37 207.71 72.00 206.91 C 50.71 204.67 29.11 204.35 8.35 198.64 C 5.60 197.59 2.75 198.84 0.00 199.18 L 0.00 188.78 C 28.12 196.28 56.60 202.71 85.82 204.35 C 92.94 204.65 102.67 207.18 107.92 201.21 C 103.12 200.25 102.97 195.03 103.44 191.06 C 102.04 187.26 96.47 184.96 97.39 180.36 C 98.14 177.91 94.25 178.15 93.01 177.04 C 67.38 169.05 39.94 174.02 13.92 168.38 C 9.20 169.53 4.72 166.76 0.00 168.02 L 0.00 157.74 Z" />
</g>
<g id="#1516187d">
<path fill="#151618" opacity="0.49" d=" M 231.27 157.74 C 231.06 162.27 232.47 165.14 237.22 164.22 C 235.02 164.68 232.85 164.72 230.71 164.33 C 230.92 162.13 231.13 159.94 231.27 157.74 Z" />
</g>
<g id="#9598a6ff">
<path fill="#9598a6" opacity="1.00" d=" M 201.02 166.22 C 195.34 167.00 198.98 160.34 202.27 159.58 C 204.31 161.90 204.64 165.41 201.02 166.22 Z" />
</g>
<g id="#3d404dfe">
<path fill="#3d404d" opacity="1.00" d=" M 215.97 167.83 C 211.38 161.83 219.98 164.39 222.55 161.02 C 224.16 163.79 227.97 163.38 230.71 164.33 C 232.85 164.72 235.02 164.68 237.22 164.22 C 239.54 164.10 241.78 164.70 244.00 165.31 C 246.57 166.94 248.96 167.06 251.19 165.67 C 250.57 167.23 249.91 168.77 249.19 170.28 C 245.47 165.54 238.97 168.27 236.53 172.67 C 232.75 167.84 223.86 166.01 222.73 173.96 C 218.30 170.55 214.71 175.01 214.94 179.74 C 217.27 179.56 221.31 180.51 219.30 176.95 C 222.22 179.94 226.74 175.06 224.71 180.88 C 219.87 184.33 219.60 190.02 224.21 193.91 C 222.54 195.65 217.65 197.60 219.96 200.39 C 219.16 203.78 214.11 203.26 212.85 200.46 C 215.11 198.31 216.73 195.24 219.99 194.47 C 213.94 190.44 205.57 188.56 203.59 180.33 C 204.34 176.97 203.98 172.34 207.21 170.24 C 211.04 169.06 205.49 165.82 209.38 164.02 C 211.26 166.63 212.12 170.77 215.97 167.83 Z" />
</g>
<g id="#2c2d32fc">
<path fill="#2c2d32" opacity="1.00" d=" M 137.00 161.96 C 140.83 160.85 145.70 163.51 145.46 167.73 C 153.01 164.75 156.52 179.47 148.45 179.58 C 144.08 184.45 138.45 188.15 133.27 181.49 C 131.44 178.99 129.68 176.46 128.16 173.77 C 127.74 172.51 127.37 171.23 127.03 169.96 C 126.99 169.19 126.91 167.66 126.88 166.89 C 127.95 169.19 128.66 171.89 130.87 173.39 C 132.74 174.22 134.71 175.01 136.79 174.96 C 139.32 170.94 136.07 166.26 137.00 161.96 Z" />
</g>
<g id="#14151987">
<path fill="#141519" opacity="0.53" d=" M 244.00 165.31 C 246.32 164.09 248.72 164.21 251.19 165.67 C 248.96 167.06 246.57 166.94 244.00 165.31 Z" />
</g>
<g id="#36373ef9">
<path fill="#36373e" opacity="0.98" d=" M 251.19 165.67 C 256.40 168.74 263.08 170.19 266.00 176.10 C 268.17 184.29 259.76 187.61 254.29 191.17 C 247.13 196.53 237.75 190.13 230.76 194.82 C 229.66 194.86 228.57 194.89 227.48 194.90 C 226.39 194.55 225.30 194.22 224.21 193.91 C 219.60 190.02 219.87 184.33 224.71 180.88 C 226.74 184.21 230.64 186.30 233.32 182.49 C 239.70 180.91 235.54 190.75 240.30 189.94 C 240.72 187.44 242.41 182.98 245.46 185.39 C 247.64 186.80 248.27 185.46 248.04 183.26 C 254.24 187.30 263.68 179.56 257.25 174.06 C 256.16 170.19 251.82 171.92 249.19 170.28 C 249.91 168.77 250.57 167.23 251.19 165.67 Z" />
</g>
<g id="#00000035">
<path fill="#000000" opacity="0.21" d=" M 0.00 168.02 C 4.72 166.76 9.20 169.53 13.92 168.38 C 39.94 174.02 67.38 169.05 93.01 177.04 C 94.25 178.15 98.14 177.91 97.39 180.36 C 96.47 184.96 102.04 187.26 103.44 191.06 C 102.97 195.03 103.12 200.25 107.92 201.21 C 102.67 207.18 92.94 204.65 85.82 204.35 C 56.60 202.71 28.12 196.28 0.00 188.78 L 0.00 168.02 Z" />
</g>
<g id="#4a525eff">
<path fill="#4a525e" opacity="1.00" d=" M 167.87 174.99 C 171.75 171.38 177.52 166.62 182.94 170.06 C 183.89 170.56 186.72 169.88 185.52 171.66 C 183.37 175.23 185.90 179.02 185.94 182.79 C 184.63 184.24 182.93 185.53 183.09 187.71 C 181.60 189.72 180.87 191.80 182.73 193.82 C 179.69 193.39 177.46 195.63 178.39 198.67 C 179.05 202.17 174.92 198.28 174.23 196.83 C 174.60 193.42 172.40 191.10 168.94 191.78 C 171.04 190.25 176.40 190.80 174.20 187.12 C 176.42 187.30 180.18 186.60 178.72 183.54 C 177.02 182.81 175.24 182.04 174.70 180.08 C 175.35 179.33 178.09 178.56 176.76 177.33 C 175.04 172.47 169.46 180.50 167.87 174.99 Z" />
</g>
<g id="#525464ff">
<path fill="#525464" opacity="1.00" d=" M 222.73 173.96 C 223.86 166.01 232.75 167.84 236.53 172.67 C 238.97 168.27 245.47 165.54 249.19 170.28 C 251.82 171.92 256.16 170.19 257.25 174.06 C 254.44 175.27 252.42 170.15 249.85 172.87 C 246.85 176.96 240.46 168.94 238.68 173.63 C 238.41 176.73 237.06 185.19 242.41 182.34 C 244.21 180.55 246.16 182.74 248.04 183.26 C 248.27 185.46 247.64 186.80 245.46 185.39 C 242.41 182.98 240.72 187.44 240.30 189.94 C 235.54 190.75 239.70 180.91 233.32 182.49 C 230.64 186.30 226.74 184.21 224.71 180.88 C 226.74 175.06 222.22 179.94 219.30 176.95 C 221.31 180.51 217.27 179.56 214.94 179.74 C 214.71 175.01 218.30 170.55 222.73 173.96 Z" />
</g>
<g id="#737580ff">
<path fill="#737580" opacity="1.00" d=" M 238.68 173.63 C 240.46 168.94 246.85 176.96 249.85 172.87 C 252.42 170.15 254.44 175.27 257.25 174.06 C 263.68 179.56 254.24 187.30 248.04 183.26 C 246.16 182.74 244.21 180.55 242.41 182.34 C 237.06 185.19 238.41 176.73 238.68 173.63 Z" />
</g>
<g id="#717a7dff">
<path fill="#717a7d" opacity="1.00" d=" M 174.20 187.12 C 171.94 185.11 170.43 180.44 174.70 180.08 C 175.24 182.04 177.02 182.81 178.72 183.54 C 180.18 186.60 176.42 187.30 174.20 187.12 Z" />
</g>
<g id="#575862fd">
<path fill="#575862" opacity="1.00" d=" M 129.65 184.95 C 131.27 185.65 132.76 184.95 134.20 184.21 C 134.21 188.02 132.47 191.51 130.80 194.85 C 127.07 195.83 127.99 190.10 127.59 187.73 C 128.01 186.63 128.83 185.77 129.65 184.95 Z" />
</g>
<g id="#565968ff">
<path fill="#565968" opacity="1.00" d=" M 145.26 186.19 C 150.52 185.81 146.07 192.74 143.88 193.97 C 138.35 193.95 142.84 187.79 145.26 186.19 Z" />
</g>
<g id="#666a6ffe">
<path fill="#666a6f" opacity="1.00" d=" M 183.09 187.71 C 186.57 191.43 188.03 196.58 191.89 200.10 C 191.33 203.27 185.67 203.60 182.67 203.54 C 184.19 206.03 187.09 208.62 189.93 206.45 C 193.15 211.49 201.02 200.87 198.10 208.59 C 207.13 211.02 202.47 200.67 201.01 195.95 C 204.87 197.67 208.59 199.88 212.85 200.46 C 214.11 203.26 219.16 203.78 219.96 200.39 C 223.61 200.62 227.25 199.00 227.48 194.90 C 228.57 194.89 229.66 194.86 230.76 194.82 C 231.70 203.46 231.00 212.66 226.39 220.22 C 227.22 215.20 222.21 219.53 219.35 218.15 C 219.61 221.09 216.93 225.56 222.08 225.34 C 220.57 227.15 219.31 229.14 218.01 231.09 C 216.14 233.11 215.37 236.58 217.91 238.12 C 218.33 239.32 218.79 240.51 219.22 241.71 C 214.17 244.92 222.09 253.65 216.14 254.54 C 218.57 258.98 212.37 257.83 209.66 259.06 C 209.94 257.11 206.93 254.42 209.44 253.43 C 212.42 252.36 208.11 251.08 207.14 250.01 C 211.40 246.71 215.62 241.85 211.30 236.80 C 211.27 236.29 211.21 235.25 211.18 234.74 C 216.34 239.91 217.57 230.01 215.10 226.72 C 220.27 225.37 214.59 224.38 212.87 222.17 C 207.95 222.69 207.65 226.44 206.78 229.84 C 201.77 228.26 196.15 231.64 198.15 237.72 C 200.31 241.17 200.98 235.44 201.78 233.86 C 198.44 240.06 207.72 240.52 205.47 245.76 C 205.17 250.86 197.05 246.18 203.90 245.74 C 201.18 243.61 200.08 238.66 195.57 240.23 C 196.05 243.24 189.87 244.59 191.05 241.07 C 194.00 235.25 190.42 229.64 192.80 222.93 C 190.62 223.71 186.68 226.79 188.44 222.36 C 189.91 217.50 185.52 221.58 185.03 223.99 C 182.89 223.22 180.60 223.01 178.35 222.85 C 177.70 220.79 176.93 218.76 176.11 216.77 C 179.59 216.43 181.56 220.12 184.83 220.02 C 185.50 218.01 185.80 215.91 186.42 213.89 C 186.44 220.79 192.41 212.06 195.83 213.61 C 197.64 208.66 190.77 213.12 188.41 210.69 C 187.24 209.60 186.64 210.97 185.98 211.82 C 183.13 216.75 181.46 210.70 182.52 207.69 C 179.27 208.77 178.39 211.68 180.89 214.11 C 178.35 219.48 177.04 210.50 173.09 211.57 C 172.71 208.07 178.03 208.03 177.90 204.22 C 172.74 205.18 174.82 200.02 174.23 196.83 C 174.92 198.28 179.05 202.17 178.39 198.67 C 177.46 195.63 179.69 193.39 182.73 193.82 C 180.87 191.80 181.60 189.72 183.09 187.71 M 182.22 196.14 C 180.47 197.10 180.13 201.19 183.01 200.02 C 187.46 200.49 186.70 193.66 182.22 196.14 M 209.98 202.02 C 210.69 205.26 212.24 206.19 209.97 209.76 C 214.20 213.56 218.79 205.86 213.22 205.74 C 213.20 203.34 213.02 201.04 209.98 202.02 M 214.21 212.35 C 210.65 212.23 210.40 220.29 214.03 217.06 C 217.50 216.85 218.16 212.05 214.21 212.35 M 207.28 219.29 C 205.50 225.73 213.33 217.37 207.28 219.29 Z" />
</g>
<g id="#596062ff">
<path fill="#596062" opacity="1.00" d=" M 151.56 196.52 C 152.39 194.12 154.27 188.85 157.16 191.72 C 156.73 197.22 162.45 198.59 166.62 198.97 C 166.88 196.41 167.56 193.93 168.94 191.78 C 172.40 191.10 174.60 193.42 174.23 196.83 C 174.82 200.02 172.74 205.18 177.90 204.22 C 178.03 208.03 172.71 208.07 173.09 211.57 C 177.04 210.50 178.35 219.48 180.89 214.11 C 178.39 211.68 179.27 208.77 182.52 207.69 C 181.46 210.70 183.13 216.75 185.98 211.82 C 186.09 212.33 186.31 213.37 186.42 213.89 C 185.80 215.91 185.50 218.01 184.83 220.02 C 181.56 220.12 179.59 216.43 176.11 216.77 C 173.85 215.59 171.53 214.47 169.03 213.92 C 168.94 218.99 170.19 224.72 174.01 228.18 C 176.09 227.03 177.11 224.75 178.35 222.85 C 180.60 223.01 182.89 223.22 185.03 223.99 C 190.97 228.97 181.84 227.27 183.76 234.04 C 181.04 229.99 173.51 230.27 177.53 236.03 C 177.98 238.99 175.23 246.45 171.07 243.83 C 169.85 241.52 176.33 237.88 172.33 238.20 C 170.49 231.16 160.68 232.90 159.06 225.92 C 154.32 219.50 159.67 209.95 168.25 212.72 C 162.82 210.81 166.17 204.82 161.38 202.13 C 160.29 203.69 159.08 205.35 156.90 205.08 C 157.14 202.91 158.25 201.00 159.05 199.01 C 155.90 199.92 147.18 204.57 151.56 196.52 Z" />
</g>
<g id="#01010122">
<path fill="#010101" opacity="0.13" d=" M 230.76 194.82 C 237.75 190.13 247.13 196.53 254.29 191.17 C 252.96 195.04 248.59 195.64 245.44 197.42 C 245.17 204.55 247.22 213.08 241.62 218.61 C 238.19 220.73 241.57 225.18 240.07 228.16 C 236.80 231.78 238.41 237.36 234.73 240.75 C 240.77 237.91 247.23 241.06 253.12 238.02 C 243.74 243.61 231.80 244.25 221.20 247.10 C 220.59 245.28 219.93 243.48 219.22 241.71 C 218.79 240.51 218.33 239.32 217.91 238.12 C 217.94 236.36 217.98 232.85 218.01 231.09 C 219.31 229.14 220.57 227.15 222.08 225.34 C 223.69 223.81 225.40 222.27 226.39 220.22 C 231.00 212.66 231.70 203.46 230.76 194.82 Z" />
</g>
<g id="#828486ff">
<path fill="#828486" opacity="1.00" d=" M 224.21 193.91 C 225.30 194.22 226.39 194.55 227.48 194.90 C 227.25 199.00 223.61 200.62 219.96 200.39 C 217.65 197.60 222.54 195.65 224.21 193.91 Z" />
</g>
<g id="#9fa2a5ff">
<path fill="#9fa2a5" opacity="1.00" d=" M 182.22 196.14 C 186.70 193.66 187.46 200.49 183.01 200.02 C 180.13 201.19 180.47 197.10 182.22 196.14 Z" />
</g>
<g id="#00000055">
<path fill="#000000" opacity="0.33" d=" M 0.00 199.18 C 2.75 198.84 5.60 197.59 8.35 198.64 C 29.11 204.35 50.71 204.67 72.00 206.91 C 88.37 207.71 104.52 211.41 121.00 210.01 C 125.58 212.03 128.77 207.76 128.11 203.90 C 129.68 206.12 131.94 208.04 132.46 210.84 L 132.29 211.94 C 109.96 215.55 87.40 210.40 64.97 211.03 C 61.95 211.62 54.80 214.14 60.41 216.49 C 86.43 223.97 111.31 235.96 138.21 239.95 C 138.36 240.28 138.66 240.93 138.80 241.25 L 139.04 242.04 C 111.09 238.46 85.11 226.44 57.39 221.59 C 38.15 217.81 19.04 213.37 0.00 208.71 L 0.00 199.18 Z" />
</g>
<g id="#83848fff">
<path fill="#83848f" opacity="1.00" d=" M 209.98 202.02 C 213.02 201.04 213.20 203.34 213.22 205.74 C 218.79 205.86 214.20 213.56 209.97 209.76 C 212.24 206.19 210.69 205.26 209.98 202.02 Z" />
</g>
<g id="#00000043">
<path fill="#000000" opacity="0.26" d=" M 0.00 208.71 C 19.04 213.37 38.15 217.81 57.39 221.59 C 85.11 226.44 111.09 238.46 139.04 242.04 C 140.04 244.61 139.79 247.37 140.00 250.10 C 139.58 248.74 138.74 246.02 138.31 244.66 C 120.80 242.83 103.99 237.31 87.01 232.98 C 58.53 225.00 28.98 222.29 0.00 216.79 L 0.00 208.71 Z" />
</g>
<g id="#8c909eff">
<path fill="#8c909e" opacity="1.00" d=" M 185.98 211.82 C 186.64 210.97 187.24 209.60 188.41 210.69 C 190.77 213.12 197.64 208.66 195.83 213.61 C 192.41 212.06 186.44 220.79 186.42 213.89 C 186.31 213.37 186.09 212.33 185.98 211.82 Z" />
</g>
<g id="#0000006a">
<path fill="#000000" opacity="0.42" d=" M 60.41 216.49 C 54.80 214.14 61.95 211.62 64.97 211.03 C 87.40 210.40 109.96 215.55 132.29 211.94 C 132.54 217.30 125.81 215.46 122.14 216.25 C 115.53 217.78 107.84 216.20 102.01 220.31 C 109.04 227.93 119.04 232.11 128.70 235.33 C 131.66 237.11 137.40 235.63 138.21 239.95 C 111.31 235.96 86.43 223.97 60.41 216.49 Z" />
</g>
<g id="#0101017f">
<path fill="#010101" opacity="0.50" d=" M 132.46 210.84 C 131.70 222.13 143.17 229.81 138.80 241.25 C 138.66 240.93 138.36 240.28 138.21 239.95 C 137.40 235.63 131.66 237.11 128.70 235.33 C 119.04 232.11 109.04 227.93 102.01 220.31 C 107.84 216.20 115.53 217.78 122.14 216.25 C 125.81 215.46 132.54 217.30 132.29 211.94 L 132.46 210.84 Z" />
</g>
<g id="#898e98ff">
<path fill="#898e98" opacity="1.00" d=" M 214.21 212.35 C 218.16 212.05 217.50 216.85 214.03 217.06 C 210.40 220.29 210.65 212.23 214.21 212.35 Z" />
</g>
<g id="#898995ff">
<path fill="#898995" opacity="1.00" d=" M 169.03 213.92 C 171.53 214.47 173.85 215.59 176.11 216.77 C 176.93 218.76 177.70 220.79 178.35 222.85 C 177.11 224.75 176.09 227.03 174.01 228.18 C 170.19 224.72 168.94 218.99 169.03 213.92 Z" />
</g>
<g id="#0000002e">
<path fill="#000000" opacity="0.18" d=" M 0.00 216.79 C 28.98 222.29 58.53 225.00 87.01 232.98 C 103.99 237.31 120.80 242.83 138.31 244.66 C 138.74 246.02 139.58 248.74 140.00 250.10 C 141.37 254.03 145.15 256.31 148.09 258.98 C 141.63 257.97 137.18 251.56 130.01 252.91 C 120.13 250.34 109.32 255.10 100.05 249.88 C 96.50 245.81 89.06 252.10 88.69 245.24 C 82.45 240.80 71.05 244.09 66.54 236.41 C 45.82 229.92 22.21 227.43 0.00 224.90 L 0.00 216.79 Z" />
</g>
<g id="#87888dfa">
<path fill="#87888d" opacity="0.98" d=" M 219.35 218.15 C 222.21 219.53 227.22 215.20 226.39 220.22 C 225.40 222.27 223.69 223.81 222.08 225.34 C 216.93 225.56 219.61 221.09 219.35 218.15 Z" />
</g>
<g id="#b0b3a2ff">
<path fill="#b0b3a2" opacity="1.00" d=" M 207.28 219.29 C 213.33 217.37 205.50 225.73 207.28 219.29 Z" />
</g>
<g id="#767b81ff">
<path fill="#767b81" opacity="1.00" d=" M 185.03 223.99 C 185.52 221.58 189.91 217.50 188.44 222.36 C 186.68 226.79 190.62 223.71 192.80 222.93 C 190.42 229.64 194.00 235.25 191.05 241.07 C 189.87 244.59 196.05 243.24 195.57 240.23 C 200.08 238.66 201.18 243.61 203.90 245.74 C 197.05 246.18 205.17 250.86 205.47 245.76 C 207.72 240.52 198.44 240.06 201.78 233.86 C 204.21 230.85 208.09 231.60 211.47 231.49 C 212.47 229.76 213.16 227.64 215.10 226.72 C 217.57 230.01 216.34 239.91 211.18 234.74 C 208.49 231.25 203.82 234.30 203.06 237.82 C 206.10 239.79 211.69 243.17 211.30 236.80 C 215.62 241.85 211.40 246.71 207.14 250.01 C 204.36 251.81 205.56 254.59 206.76 256.96 C 204.09 259.84 204.56 253.22 201.37 253.71 C 200.69 248.08 192.40 253.71 191.24 257.32 C 186.57 258.40 180.59 255.41 180.80 249.43 C 179.05 250.54 174.37 251.29 175.08 248.15 C 176.96 247.18 179.06 246.75 180.98 245.88 C 179.68 242.65 178.54 239.36 177.53 236.03 C 173.51 230.27 181.04 229.99 183.76 234.04 C 181.84 227.27 190.97 228.97 185.03 223.99 Z" />
</g>
<g id="#4d4f59ff">
<path fill="#4d4f59" opacity="1.00" d=" M 206.78 229.84 C 207.65 226.44 207.95 222.69 212.87 222.17 C 214.59 224.38 220.27 225.37 215.10 226.72 C 213.16 227.64 212.47 229.76 211.47 231.49 C 208.09 231.60 204.21 230.85 201.78 233.86 C 200.98 235.44 200.31 241.17 198.15 237.72 C 196.15 231.64 201.77 228.26 206.78 229.84 Z" />
</g>
<g id="#00000021">
<path fill="#000000" opacity="0.13" d=" M 0.00 224.90 C 22.21 227.43 45.82 229.92 66.54 236.41 C 71.05 244.09 82.45 240.80 88.69 245.24 C 89.06 252.10 96.50 245.81 100.05 249.88 C 109.32 255.10 120.13 250.34 130.01 252.91 C 137.18 251.56 141.63 257.97 148.09 258.98 C 156.53 262.05 163.51 268.46 172.67 269.88 C 174.36 271.05 176.11 272.15 177.83 273.29 C 182.79 279.98 192.17 278.67 197.11 285.05 C 185.40 281.41 173.45 278.45 162.94 272.14 C 150.27 276.45 136.84 274.99 125.02 269.18 C 117.20 274.79 108.12 269.25 99.91 271.44 C 95.78 272.16 91.77 273.75 87.85 271.27 C 80.45 273.75 73.20 264.51 66.43 270.09 C 66.45 269.60 66.48 268.62 66.50 268.13 C 61.93 269.44 57.86 264.17 53.82 267.77 C 48.76 267.37 45.50 261.30 39.52 263.18 C 39.45 267.91 35.00 265.13 35.03 261.98 C 34.28 257.00 26.48 261.47 25.17 256.85 C 23.61 252.70 17.98 252.60 16.72 248.15 C 13.75 251.21 8.13 249.23 7.39 245.34 C 7.28 239.82 2.09 247.53 0.00 242.89 L 0.00 224.90 Z" />
</g>
<g id="#15161891">
<path fill="#151618" opacity="0.57" d=" M 288.72 225.73 C 292.95 224.65 298.57 224.04 302.06 225.90 C 300.80 225.98 299.55 226.06 298.30 226.15 C 295.08 226.01 291.92 225.88 288.72 225.73 Z" />
</g>
<g id="#2a2b32f6">
<path fill="#2a2b32" opacity="0.96" d=" M 253.12 238.02 C 262.13 227.88 276.18 226.78 288.72 225.73 C 291.92 225.88 295.08 226.01 298.30 226.15 C 297.26 230.61 292.03 226.47 289.66 229.98 C 286.33 232.88 284.19 224.84 279.98 227.99 C 274.34 224.80 274.71 230.34 273.20 233.08 C 266.07 233.09 258.52 237.94 252.84 242.82 C 251.87 243.10 250.91 243.39 249.95 243.70 C 240.56 245.98 230.24 249.17 226.62 259.11 C 225.78 254.27 223.16 255.73 220.32 258.29 C 221.77 254.76 222.22 250.81 221.20 247.10 C 231.80 244.25 243.74 243.61 253.12 238.02 Z" />
</g>
<g id="#5d6066fa">
<path fill="#5d6066" opacity="0.98" d=" M 298.30 226.15 C 299.55 226.06 300.80 225.98 302.06 225.90 C 303.47 227.90 303.45 230.79 301.26 232.21 C 297.14 233.46 289.70 236.68 289.66 229.98 C 292.03 226.47 297.26 230.61 298.30 226.15 Z" />
</g>
<g id="#606857ff">
<path fill="#606857" opacity="1.00" d=" M 150.26 228.19 C 155.75 228.79 159.71 233.81 164.70 235.90 L 164.86 236.83 C 163.34 237.18 160.21 236.30 161.29 238.88 C 162.91 242.58 154.49 240.40 159.05 246.21 C 161.52 245.21 163.94 243.95 165.86 242.08 C 165.70 244.45 171.10 247.81 168.10 248.80 C 162.62 246.75 164.96 254.85 164.09 258.06 C 157.67 260.25 151.27 254.34 146.36 250.63 C 141.80 243.58 144.21 233.58 150.26 228.19 Z" />
</g>
<g id="#3a3d46fc">
<path fill="#3a3d46" opacity="1.00" d=" M 273.20 233.08 C 274.71 230.34 274.34 224.80 279.98 227.99 C 284.19 224.84 286.33 232.88 289.66 229.98 C 289.70 236.68 297.14 233.46 301.26 232.21 C 299.44 234.29 297.06 235.87 294.30 236.36 C 290.51 236.32 285.91 234.83 282.85 237.86 C 282.11 238.61 281.83 239.60 282.01 240.82 C 278.79 236.65 272.30 236.05 267.71 236.66 C 262.95 241.39 268.51 247.66 268.19 253.23 C 267.73 255.89 267.38 258.60 266.67 261.22 C 265.72 263.27 264.01 265.18 264.12 267.55 C 268.04 269.48 272.21 270.51 275.96 267.58 C 274.16 265.28 272.17 262.99 271.94 259.92 C 275.44 258.94 273.40 265.98 276.41 264.49 C 281.03 259.47 289.85 262.48 292.93 255.24 C 293.22 255.02 293.79 254.59 294.08 254.37 C 297.51 253.78 301.15 250.91 304.06 254.22 C 303.04 255.06 302.00 255.89 301.00 256.75 C 297.75 255.85 290.76 255.51 292.75 260.60 C 286.06 260.33 286.47 265.61 285.14 270.32 C 279.50 265.61 278.58 271.57 279.79 276.61 C 277.16 276.86 274.30 277.87 274.72 281.09 C 269.74 275.98 262.17 275.91 255.28 275.05 C 255.09 273.31 254.91 271.57 254.73 269.84 C 256.44 267.13 260.88 267.49 262.48 264.19 C 263.81 261.85 262.41 259.86 260.64 258.33 C 258.06 255.72 260.29 252.22 260.53 249.19 C 259.25 245.72 256.20 243.85 252.84 242.82 C 258.52 237.94 266.07 233.09 273.20 233.08 M 277.91 230.23 C 276.62 235.41 282.80 237.80 285.90 233.81 C 287.26 229.20 280.88 231.01 277.91 230.23 M 263.22 269.10 C 261.52 270.14 260.90 275.25 263.94 273.94 C 267.82 273.59 267.64 267.50 263.22 269.10 Z" />
</g>
<g id="#62636fff">
<path fill="#62636f" opacity="1.00" d=" M 277.91 230.23 C 280.88 231.01 287.26 229.20 285.90 233.81 C 282.80 237.80 276.62 235.41 277.91 230.23 Z" />
</g>
<g id="#1f211a79">
<path fill="#1f211a" opacity="0.47" d=" M 217.91 238.12 C 215.37 236.58 216.14 233.11 218.01 231.09 C 217.98 232.85 217.94 236.36 217.91 238.12 Z" />
</g>
<g id="#acb1b0ff">
<path fill="#acb1b0" opacity="1.00" d=" M 203.06 237.82 C 203.82 234.30 208.49 231.25 211.18 234.74 C 211.21 235.25 211.27 236.29 211.30 236.80 C 211.69 243.17 206.10 239.79 203.06 237.82 Z" />
</g>
<g id="#4a4f5aff">
<path fill="#4a4f5a" opacity="1.00" d=" M 164.70 235.90 C 171.16 229.22 163.10 244.63 172.33 238.20 C 176.33 237.88 169.85 241.52 171.07 243.83 C 175.23 246.45 177.98 238.99 177.53 236.03 C 178.54 239.36 179.68 242.65 180.98 245.88 C 179.06 246.75 176.96 247.18 175.08 248.15 C 174.37 251.29 179.05 250.54 180.80 249.43 C 180.59 255.41 186.57 258.40 191.24 257.32 C 192.40 253.71 200.69 248.08 201.37 253.71 C 194.24 256.85 204.17 263.58 205.46 267.46 C 206.53 269.79 208.88 270.23 211.22 270.30 C 207.69 273.07 205.56 276.90 203.80 280.97 C 199.18 282.30 196.80 275.89 192.18 277.95 C 195.65 274.84 191.26 272.27 187.95 272.95 L 188.32 272.16 C 193.14 272.14 197.90 262.52 191.68 261.26 C 189.54 260.44 187.68 262.43 185.83 263.19 C 184.60 263.50 183.35 263.75 182.10 263.97 C 184.72 259.91 179.59 259.50 176.82 260.71 C 172.85 262.43 172.67 256.30 169.36 256.02 C 169.64 260.75 166.59 256.96 164.09 258.06 C 164.96 254.85 162.62 246.75 168.10 248.80 C 171.10 247.81 165.70 244.45 165.86 242.08 C 165.54 240.32 165.18 238.58 164.86 236.83 L 164.70 235.90 Z" />
</g>
<g id="#595d68fe">
<path fill="#595d68" opacity="1.00" d=" M 267.71 236.66 C 272.30 236.05 278.79 236.65 282.01 240.82 C 282.34 241.13 283.01 241.76 283.35 242.07 C 282.42 244.47 280.39 246.02 278.35 247.42 C 281.83 250.29 282.63 252.38 277.89 253.62 C 281.94 257.04 287.31 255.97 286.81 250.47 C 284.92 250.14 283.52 249.28 283.98 247.15 C 292.12 245.55 300.72 247.87 308.32 243.69 C 310.57 248.06 307.25 251.83 304.06 254.22 C 301.15 250.91 297.51 253.78 294.08 254.37 C 292.43 251.62 296.21 245.56 288.97 249.03 C 286.40 253.12 290.05 255.08 292.93 255.24 C 289.85 262.48 281.03 259.47 276.41 264.49 C 273.40 265.98 275.44 258.94 271.94 259.92 C 272.17 262.99 274.16 265.28 275.96 267.58 C 272.21 270.51 268.04 269.48 264.12 267.55 C 264.01 265.18 265.72 263.27 266.67 261.22 C 272.38 261.95 275.06 253.23 271.68 249.35 C 269.69 245.99 269.21 251.73 268.19 253.23 C 268.51 247.66 262.95 241.39 267.71 236.66 Z" />
</g>
<g id="#17171bce">
<path fill="#17171b" opacity="0.81" d=" M 282.85 237.86 C 285.91 234.83 290.51 236.32 294.30 236.36 C 290.56 237.33 286.67 237.47 282.85 237.86 Z" />
</g>
<g id="#7c8370ff">
<path fill="#7c8370" opacity="1.00" d=" M 161.29 238.88 C 160.21 236.30 163.34 237.18 164.86 236.83 C 165.18 238.58 165.54 240.32 165.86 242.08 C 163.94 243.95 161.52 245.21 159.05 246.21 C 154.49 240.40 162.91 242.58 161.29 238.88 Z" />
</g>
<g id="#585b60fe">
<path fill="#585b60" opacity="1.00" d=" M 219.22 241.71 C 219.93 243.48 220.59 245.28 221.20 247.10 C 222.22 250.81 221.77 254.76 220.32 258.29 C 223.16 255.73 225.78 254.27 226.62 259.11 C 225.46 261.75 227.42 263.91 229.67 265.05 C 228.55 266.46 227.19 267.66 225.94 268.96 C 228.59 256.68 213.30 273.08 211.81 265.75 C 219.95 267.57 210.94 253.94 211.91 263.88 C 209.61 263.64 206.26 261.86 205.01 264.67 C 207.38 266.98 211.02 267.87 212.85 270.03 C 212.44 270.10 211.63 270.23 211.22 270.30 C 208.88 270.23 206.53 269.79 205.46 267.46 C 204.17 263.58 194.24 256.85 201.37 253.71 C 204.56 253.22 204.09 259.84 206.76 256.96 C 205.56 254.59 204.36 251.81 207.14 250.01 C 208.11 251.08 212.42 252.36 209.44 253.43 C 206.93 254.42 209.94 257.11 209.66 259.06 C 212.37 257.83 218.57 258.98 216.14 254.54 C 222.09 253.65 214.17 244.92 219.22 241.71 Z" />
</g>
<g id="#2e3139f6">
<path fill="#2e3139" opacity="0.96" d=" M 283.35 242.07 C 288.59 244.11 294.42 244.84 299.85 242.85 C 302.55 242.85 305.27 242.86 307.99 242.90 L 308.32 243.69 C 300.72 247.87 292.12 245.55 283.98 247.15 C 283.52 249.28 284.92 250.14 286.81 250.47 C 287.31 255.97 281.94 257.04 277.89 253.62 C 282.63 252.38 281.83 250.29 278.35 247.42 C 280.39 246.02 282.42 244.47 283.35 242.07 Z" />
</g>
<g id="#121215a3">
<path fill="#121215" opacity="0.64" d=" M 299.85 242.85 C 302.13 242.26 306.81 239.97 307.99 242.90 C 305.27 242.86 302.55 242.85 299.85 242.85 Z" />
</g>
<g id="#00000019">
<path fill="#000000" opacity="0.10" d=" M 0.00 242.89 C 2.09 247.53 7.28 239.82 7.39 245.34 C 8.13 249.23 13.75 251.21 16.72 248.15 C 17.98 252.60 23.61 252.70 25.17 256.85 C 26.48 261.47 34.28 257.00 35.03 261.98 C 35.00 265.13 39.45 267.91 39.52 263.18 C 45.50 261.30 48.76 267.37 53.82 267.77 C 57.86 264.17 61.93 269.44 66.50 268.13 C 66.48 268.62 66.45 269.60 66.43 270.09 C 73.20 264.51 80.45 273.75 87.85 271.27 C 91.77 273.75 95.78 272.16 99.91 271.44 C 108.12 269.25 117.20 274.79 125.02 269.18 C 136.84 274.99 150.27 276.45 162.94 272.14 C 173.45 278.45 185.40 281.41 197.11 285.05 L 197.90 285.17 C 201.92 285.91 206.01 285.82 210.08 285.94 C 211.86 287.10 213.28 289.29 215.68 289.00 C 218.68 289.54 221.60 288.79 223.25 286.10 C 224.57 285.90 225.90 285.69 227.22 285.45 C 231.51 284.68 236.36 283.75 239.14 280.05 C 240.66 279.97 242.18 279.95 243.70 279.92 C 248.30 280.87 252.15 278.03 255.28 275.05 C 262.17 275.91 269.74 275.98 274.72 281.09 C 277.06 281.71 279.47 282.04 281.94 282.07 C 278.69 285.01 273.19 282.16 270.11 279.89 C 262.46 276.97 254.93 279.52 248.33 283.37 C 241.32 281.98 234.15 287.54 228.92 291.95 C 223.96 288.82 219.40 295.06 214.19 294.25 C 211.38 298.54 206.94 292.39 203.81 295.79 C 201.64 297.88 198.95 296.93 199.33 293.80 C 194.55 298.21 187.95 300.20 181.77 296.98 C 176.83 294.28 172.57 300.95 167.65 298.68 C 163.44 298.85 156.97 297.59 155.44 302.68 C 152.39 304.49 153.79 299.05 150.97 300.25 C 147.43 301.52 144.22 297.56 140.87 299.83 C 136.96 303.48 132.16 302.55 127.26 302.07 C 128.04 309.20 122.82 302.84 119.37 302.34 C 116.42 307.17 109.85 302.99 105.50 303.25 C 100.41 300.90 95.08 307.27 90.18 304.03 C 93.43 300.77 89.85 299.29 86.54 300.36 C 80.98 304.05 81.94 296.63 78.00 295.87 C 75.04 297.35 74.95 302.06 71.01 302.17 C 71.84 300.55 73.89 295.24 70.38 296.53 C 66.99 298.64 63.01 296.26 59.64 298.28 C 52.97 298.25 44.45 285.88 39.59 294.65 C 37.13 295.33 34.66 291.76 34.59 289.20 C 29.26 287.27 35.11 294.85 30.42 295.42 C 26.18 296.56 27.39 292.66 29.01 290.26 C 26.08 291.48 23.49 288.42 20.71 289.74 C 15.45 292.31 10.38 287.70 6.04 285.20 C 3.96 286.92 1.82 287.08 0.00 284.89 L 0.00 242.89 Z" />
</g>
<g id="#595d64ff">
<path fill="#595d64" opacity="1.00" d=" M 249.95 243.70 C 250.91 243.39 251.87 243.10 252.84 242.82 C 256.20 243.85 259.25 245.72 260.53 249.19 C 260.29 252.22 258.06 255.72 260.64 258.33 C 262.41 259.86 263.81 261.85 262.48 264.19 C 262.53 262.05 261.70 261.00 259.60 261.63 C 259.01 256.52 256.10 253.75 251.09 252.83 C 252.74 248.88 250.17 249.88 248.05 248.02 C 248.76 246.61 249.40 245.17 249.95 243.70 Z" />
</g>
<g id="#42454fff">
<path fill="#42454f" opacity="1.00" d=" M 226.62 259.11 C 230.24 249.17 240.56 245.98 249.95 243.70 C 249.40 245.17 248.76 246.61 248.05 248.02 C 247.03 249.60 245.65 250.85 244.11 251.89 C 241.98 254.14 241.54 257.42 239.94 260.01 C 236.12 253.66 228.71 258.79 229.67 265.05 C 227.42 263.91 225.46 261.75 226.62 259.11 Z" />
</g>
<g id="#707377ff">
<path fill="#707377" opacity="1.00" d=" M 244.11 251.89 C 245.65 250.85 247.03 249.60 248.05 248.02 C 250.17 249.88 252.74 248.88 251.09 252.83 C 256.10 253.75 259.01 256.52 259.60 261.63 C 261.70 261.00 262.53 262.05 262.48 264.19 C 260.88 267.49 256.44 267.13 254.73 269.84 C 253.49 270.50 252.20 271.08 250.95 271.72 C 248.86 272.08 250.26 274.92 251.95 274.08 C 250.13 275.41 247.99 276.18 245.91 276.98 C 246.66 275.62 247.37 274.22 247.98 272.79 C 243.76 273.23 241.78 277.31 239.14 280.05 C 237.37 280.72 235.63 281.47 233.82 282.03 C 234.99 279.08 237.17 276.69 238.76 273.98 C 234.87 272.37 231.07 274.48 227.23 274.95 C 225.36 273.54 226.17 270.96 225.94 268.96 C 227.19 267.66 228.55 266.46 229.67 265.05 C 228.71 258.79 236.12 253.66 239.94 260.01 C 241.54 257.42 241.98 254.14 244.11 251.89 C 244.58 255.55 239.99 259.94 243.25 262.85 C 249.71 263.61 252.22 249.98 244.11 251.89 Z" />
</g>
<g id="#8e9196ff">
<path fill="#8e9196" opacity="1.00" d=" M 268.19 253.23 C 269.21 251.73 269.69 245.99 271.68 249.35 C 275.06 253.23 272.38 261.95 266.67 261.22 C 267.38 258.60 267.73 255.89 268.19 253.23 Z" />
</g>
<g id="#777d83ff">
<path fill="#777d83" opacity="1.00" d=" M 288.97 249.03 C 296.21 245.56 292.43 251.62 294.08 254.37 C 293.79 254.59 293.22 255.02 292.93 255.24 C 290.05 255.08 286.40 253.12 288.97 249.03 Z" />
</g>
<g id="#8b8e9aff">
<path fill="#8b8e9a" opacity="1.00" d=" M 244.11 251.89 C 252.22 249.98 249.71 263.61 243.25 262.85 C 239.99 259.94 244.58 255.55 244.11 251.89 Z" />
</g>
<g id="#5b5e62fb">
<path fill="#5b5e62" opacity="1.00" d=" M 292.75 260.60 C 290.76 255.51 297.75 255.85 301.00 256.75 C 301.00 258.10 300.96 259.45 300.87 260.80 C 296.93 261.13 293.77 262.49 294.99 267.06 C 290.21 268.90 291.00 274.94 286.21 276.30 C 288.18 274.04 288.19 271.43 285.14 270.32 C 286.47 265.61 286.06 260.33 292.75 260.60 Z" />
</g>
<g id="#303139ff">
<path fill="#303139" opacity="1.00" d=" M 211.91 263.88 C 210.94 253.94 219.95 267.57 211.81 265.75 C 211.84 265.28 211.88 264.34 211.91 263.88 Z" />
</g>
<g id="#8d8f9aff">
<path fill="#8d8f9a" opacity="1.00" d=" M 185.83 263.19 C 187.68 262.43 189.54 260.44 191.68 261.26 C 197.90 262.52 193.14 272.14 188.32 272.16 C 188.13 269.01 186.93 266.11 185.83 263.19 Z" />
</g>
<g id="#2b2c2fc9">
<path fill="#2b2c2f" opacity="0.79" d=" M 294.99 267.06 C 293.77 262.49 296.93 261.13 300.87 260.80 C 299.10 262.96 295.38 263.44 294.99 267.06 Z" />
</g>
<g id="#5e6746fd">
<path fill="#5e6746" opacity="1.00" d=" M 182.10 263.97 C 183.35 263.75 184.60 263.50 185.83 263.19 C 186.93 266.11 188.13 269.01 188.32 272.16 L 187.95 272.95 C 184.59 273.32 181.20 273.89 177.83 273.29 C 176.11 272.15 174.36 271.05 172.67 269.88 C 174.04 265.79 178.14 264.24 182.10 263.97 Z" />
</g>
<g id="#6c707bff">
<path fill="#6c707b" opacity="1.00" d=" M 205.01 264.67 C 206.26 261.86 209.61 263.64 211.91 263.88 C 211.88 264.34 211.84 265.28 211.81 265.75 C 213.30 273.08 228.59 256.68 225.94 268.96 C 220.84 270.98 226.69 278.86 220.07 276.58 C 223.03 270.69 217.03 271.15 212.95 271.83 C 212.93 271.38 212.88 270.48 212.85 270.03 C 211.02 267.87 207.38 266.98 205.01 264.67 Z" />
</g>
<g id="#6e777dfa">
<path fill="#6e777d" opacity="0.98" d=" M 279.79 276.61 C 278.58 271.57 279.50 265.61 285.14 270.32 C 288.19 271.43 288.18 274.04 286.21 276.30 C 284.82 278.24 283.49 280.24 281.94 282.07 C 279.47 282.04 277.06 281.71 274.72 281.09 C 274.30 277.87 277.16 276.86 279.79 276.61 Z" />
</g>
<g id="#4b4f56fc">
<path fill="#4b4f56" opacity="1.00" d=" M 220.07 276.58 C 226.69 278.86 220.84 270.98 225.94 268.96 C 226.17 270.96 225.36 273.54 227.23 274.95 C 231.07 274.48 234.87 272.37 238.76 273.98 C 237.17 276.69 234.99 279.08 233.82 282.03 C 235.63 281.47 237.37 280.72 239.14 280.05 C 236.36 283.75 231.51 284.68 227.22 285.45 C 223.83 285.60 220.87 283.89 222.90 280.38 C 217.60 282.67 211.78 277.34 212.95 271.83 C 217.03 271.15 223.03 270.69 220.07 276.58 M 228.31 276.30 C 224.35 276.66 226.10 281.39 227.20 283.92 C 232.41 285.97 233.51 274.42 228.31 276.30 Z" />
</g>
<g id="#737b69ff">
<path fill="#737b69" opacity="1.00" d=" M 263.22 269.10 C 267.64 267.50 267.82 273.59 263.94 273.94 C 260.90 275.25 261.52 270.14 263.22 269.10 Z" />
</g>
<g id="#33363dfa">
<path fill="#33363d" opacity="0.98" d=" M 211.22 270.30 C 211.63 270.23 212.44 270.10 212.85 270.03 C 212.88 270.48 212.93 271.38 212.95 271.83 C 211.78 277.34 217.60 282.67 222.90 280.38 C 220.87 283.89 223.83 285.60 227.22 285.45 C 225.90 285.69 224.57 285.90 223.25 286.10 C 220.73 286.76 216.65 285.91 215.68 289.00 C 213.28 289.29 211.86 287.10 210.08 285.94 C 206.34 284.36 201.91 285.42 197.90 285.17 L 197.11 285.05 C 192.17 278.67 182.79 279.98 177.83 273.29 C 181.20 273.89 184.59 273.32 187.95 272.95 C 191.26 272.27 195.65 274.84 192.18 277.95 C 196.80 275.89 199.18 282.30 203.80 280.97 C 205.56 276.90 207.69 273.07 211.22 270.30 Z" />
</g>
<g id="#70793ef4">
<path fill="#70793e" opacity="0.96" d=" M 250.95 271.72 C 252.20 271.08 253.49 270.50 254.73 269.84 C 254.91 271.57 255.09 273.31 255.28 275.05 C 252.15 278.03 248.30 280.87 243.70 279.92 C 244.39 278.91 245.12 277.92 245.91 276.98 C 247.99 276.18 250.13 275.41 251.95 274.08 C 251.70 273.49 251.20 272.31 250.95 271.72 Z" />
</g>
<g id="#f5f8f0ff">
<path fill="#f5f8f0" opacity="1.00" d=" M 251.95 274.08 C 250.26 274.92 248.86 272.08 250.95 271.72 C 251.20 272.31 251.70 273.49 251.95 274.08 Z" />
</g>
<g id="#494b55f8">
<path fill="#494b55" opacity="0.97" d=" M 239.14 280.05 C 241.78 277.31 243.76 273.23 247.98 272.79 C 247.37 274.22 246.66 275.62 245.91 276.98 C 245.12 277.92 244.39 278.91 243.70 279.92 C 242.18 279.95 240.66 279.97 239.14 280.05 Z" />
</g>
<g id="#777b7eff">
<path fill="#777b7e" opacity="1.00" d=" M 228.31 276.30 C 233.51 274.42 232.41 285.97 227.20 283.92 C 226.10 281.39 224.35 276.66 228.31 276.30 Z" />
</g>
<g id="#191c2199">
<path fill="#191c21" opacity="0.60" d=" M 197.90 285.17 C 201.91 285.42 206.34 284.36 210.08 285.94 C 206.01 285.82 201.92 285.91 197.90 285.17 Z" />
</g>
<g id="#747979f4">
<path fill="#747979" opacity="0.96" d=" M 215.68 289.00 C 216.65 285.91 220.73 286.76 223.25 286.10 C 221.60 288.79 218.68 289.54 215.68 289.00 Z" />
</g>
</svg>
