<?xml version="1.0" encoding="UTF-8" ?>
<!DOCTYPE svg PUBLIC "-//W3C//DTD SVG 1.1//EN" "http://www.w3.org/Graphics/SVG/1.1/DTD/svg11.dtd">
<svg width="384pt" height="384pt" viewBox="0 0 384 384" version="1.1" xmlns="http://www.w3.org/2000/svg">
<g id="#0000000c">
<path fill="#000000" opacity="0.05" d=" M 6.52 8.30 C 12.05 8.03 5.92 19.91 14.40 17.87 C 19.64 20.44 25.37 13.06 30.21 14.68 C 29.91 20.22 35.43 16.83 36.18 21.72 C 39.52 21.25 43.09 21.98 46.05 19.98 C 48.29 20.66 50.58 22.86 52.81 20.86 C 56.50 17.74 60.43 24.27 57.25 27.01 C 60.15 30.32 61.08 22.54 63.26 21.91 C 65.57 23.16 66.06 25.74 66.40 28.12 C 68.90 25.15 73.19 23.08 76.72 26.30 C 78.60 28.76 81.25 27.93 82.68 25.50 C 86.75 26.18 90.04 27.57 93.77 25.15 C 97.09 34.84 107.19 27.82 114.57 29.47 C 117.84 34.09 126.06 29.16 127.60 35.52 C 134.31 35.45 135.79 43.46 141.96 44.98 C 146.39 45.76 150.50 45.25 146.89 49.87 C 151.59 49.40 152.63 55.58 156.45 52.52 C 158.75 51.26 159.29 55.12 160.43 56.47 C 162.16 61.79 168.98 61.96 173.57 61.36 C 176.76 67.55 188.55 62.32 188.37 70.83 C 192.27 68.93 196.12 71.92 192.15 75.34 C 194.78 75.49 195.76 72.23 197.97 72.06 C 201.67 72.72 197.57 76.46 197.94 78.78 C 200.85 79.27 203.93 79.04 206.70 80.18 C 206.46 84.02 209.55 91.22 213.81 86.93 C 210.99 93.08 222.70 87.22 218.25 96.00 C 223.03 96.42 227.14 93.05 231.83 92.98 C 232.91 99.11 237.41 103.81 244.31 102.69 C 246.21 106.49 246.96 117.63 253.61 113.46 C 257.18 118.62 261.50 123.39 261.10 130.15 C 263.40 128.12 263.26 122.33 267.44 126.41 C 268.71 132.38 274.68 137.42 280.74 134.61 C 286.46 136.07 280.03 143.95 287.40 142.67 C 290.45 146.59 298.47 143.31 298.23 149.85 C 295.38 145.49 290.94 153.54 295.16 153.69 C 300.27 153.71 295.28 161.36 300.12 162.94 C 302.07 163.86 307.86 162.80 305.29 166.28 C 303.62 168.32 299.63 172.70 304.47 173.46 C 303.08 176.66 311.14 178.97 306.22 180.43 C 301.89 180.79 306.00 185.09 308.75 184.18 C 306.69 186.35 307.23 188.85 308.77 191.15 C 307.82 193.56 306.94 195.66 309.71 197.29 C 313.86 199.74 306.45 204.34 310.99 206.02 C 312.75 207.63 307.73 212.50 312.01 212.01 C 316.66 212.08 311.30 215.41 309.97 216.79 C 311.95 217.91 313.98 218.98 316.10 219.80 C 317.96 220.25 320.72 216.42 321.44 219.18 C 321.65 223.14 321.04 230.74 326.98 230.37 C 326.17 233.95 324.88 237.61 322.09 240.12 C 323.17 244.07 326.72 245.02 328.63 241.10 C 329.23 243.81 331.25 246.14 331.04 249.01 C 327.61 249.16 324.03 249.11 322.11 245.91 C 322.74 249.79 324.23 254.62 318.82 252.14 C 319.34 257.05 324.67 254.12 328.05 254.18 C 329.05 258.09 324.48 257.28 322.01 257.99 C 322.54 259.51 326.09 261.41 323.65 262.60 C 319.46 265.37 326.01 268.78 326.91 271.89 C 325.22 273.89 323.07 270.42 321.09 270.09 C 319.32 271.85 316.74 273.15 315.96 275.63 C 322.28 276.93 324.47 285.26 326.00 291.19 C 323.34 289.16 314.37 283.57 316.57 290.41 C 317.95 294.66 312.85 288.06 312.26 291.32 C 311.00 294.42 316.03 294.19 316.07 297.27 C 312.09 298.50 309.10 301.74 305.32 303.48 C 303.09 307.10 311.57 304.77 309.43 308.42 C 308.46 312.16 305.14 307.31 302.76 308.24 C 298.92 309.08 294.12 312.12 295.81 316.75 C 290.40 319.96 288.02 325.22 283.18 328.88 C 284.07 331.83 288.37 337.78 283.28 337.96 C 281.25 333.76 278.53 329.90 274.94 326.89 C 276.06 329.64 277.56 332.23 278.73 334.97 C 277.00 339.71 270.59 341.94 266.68 338.30 C 259.06 337.54 274.85 346.77 262.52 342.83 C 262.28 335.63 257.63 339.17 255.93 343.62 C 258.44 343.55 259.98 345.01 257.85 347.01 C 254.76 345.44 251.89 343.21 248.12 342.99 C 250.08 347.33 246.02 349.43 242.48 350.42 C 242.75 355.36 237.85 359.71 233.85 362.05 C 233.70 358.49 239.69 356.35 234.30 354.10 C 232.90 357.80 229.99 358.77 227.06 355.93 C 225.43 358.14 221.96 361.75 220.99 357.01 C 220.49 351.70 215.29 354.39 215.42 358.50 C 209.85 360.21 209.02 368.16 201.84 366.05 C 203.02 361.61 209.86 360.17 208.89 355.28 C 205.34 354.14 201.52 353.65 198.02 355.25 C 198.21 358.05 200.50 360.30 200.00 363.25 C 197.82 361.71 197.28 355.62 194.02 359.18 C 193.70 362.57 197.82 363.13 199.14 365.57 C 195.81 365.80 192.53 366.48 189.22 366.91 C 186.19 364.89 188.86 360.93 186.41 358.87 C 186.50 363.26 183.02 367.06 178.41 363.53 C 175.06 362.03 173.25 366.38 173.99 369.11 C 176.73 368.67 179.70 365.84 181.01 369.83 C 177.92 372.51 168.27 375.88 169.17 369.63 C 165.52 367.22 164.06 371.80 168.14 373.12 C 165.36 377.09 161.85 375.09 158.26 374.09 C 155.48 377.99 154.63 382.68 149.41 384.00 L 0.00 384.00 L 0.00 323.10 C 4.70 324.00 9.58 322.74 14.01 324.99 C 18.03 323.38 22.17 321.89 26.47 321.21 C 27.84 327.07 34.70 324.59 38.74 323.16 C 40.79 324.88 45.82 332.80 44.22 326.08 C 46.68 326.86 54.79 321.48 51.07 329.98 C 51.25 337.16 56.99 327.42 60.44 330.65 C 64.87 334.69 68.01 323.47 72.73 329.25 C 74.84 333.68 79.01 333.61 82.38 330.50 C 85.24 330.15 86.04 340.15 89.59 335.63 C 92.21 331.19 98.22 334.47 100.60 337.80 C 102.53 336.45 102.74 334.00 102.58 331.86 C 107.92 330.21 108.58 336.24 111.47 338.88 C 113.38 331.00 122.11 343.23 123.33 336.48 C 126.76 337.03 129.95 336.54 133.00 335.00 C 139.64 339.42 148.10 333.26 148.39 325.90 C 151.17 331.63 154.49 323.29 157.42 327.57 C 160.16 331.40 161.09 318.87 165.07 322.84 C 168.46 328.32 173.94 319.17 178.66 323.27 C 182.39 319.47 187.85 321.91 191.44 318.52 C 195.75 316.34 201.16 323.90 204.10 318.34 C 201.78 318.16 199.43 317.75 199.00 315.08 C 202.39 310.87 206.50 319.16 209.25 315.27 C 211.71 312.03 216.34 314.80 218.98 311.24 C 225.77 316.09 230.03 306.43 236.64 308.62 C 239.37 305.78 243.13 306.58 246.65 306.51 C 253.24 302.71 259.34 295.29 267.73 297.70 C 271.13 295.62 269.39 289.72 273.27 288.65 C 287.21 284.82 297.24 273.54 302.75 260.70 C 303.01 259.06 302.95 257.39 302.99 255.74 C 303.99 254.89 305.02 254.08 306.03 253.25 C 307.72 251.82 309.63 250.38 310.43 248.23 C 310.90 245.71 311.52 243.05 309.09 241.57 C 306.85 240.00 304.80 240.02 302.94 241.63 C 302.45 241.96 301.45 242.62 300.95 242.95 C 297.53 243.04 294.16 243.13 290.76 243.24 C 288.48 242.87 286.42 241.79 284.38 240.79 C 283.88 240.42 282.90 239.66 282.40 239.28 C 285.39 234.08 293.48 237.79 298.23 234.46 C 302.25 233.11 306.35 229.58 303.09 224.94 C 299.70 223.17 293.89 223.35 289.76 224.77 C 288.26 225.29 286.80 225.89 285.29 226.33 C 281.52 226.20 277.80 225.86 274.05 225.95 C 268.40 227.13 262.71 228.24 256.94 228.93 C 257.59 226.20 258.91 223.04 254.83 224.83 C 255.37 222.31 258.22 221.52 259.80 219.75 C 259.43 216.57 256.97 212.83 260.89 210.98 C 257.27 207.83 259.23 203.98 259.57 200.47 C 249.89 191.90 272.82 184.71 265.20 175.90 C 257.99 167.96 247.36 165.12 236.94 165.17 C 234.51 165.34 232.60 164.44 232.08 161.94 C 229.35 151.48 225.01 141.02 215.63 134.92 C 221.09 131.23 217.47 126.39 213.79 122.94 C 212.81 121.94 211.65 121.14 210.64 120.18 C 212.25 114.75 210.16 109.13 206.10 105.49 C 198.85 100.97 186.27 104.80 183.00 94.12 C 181.35 90.31 176.95 90.13 173.41 89.42 C 162.10 82.88 148.94 80.34 138.03 72.98 C 132.87 66.79 125.13 63.07 117.71 60.16 C 110.87 55.85 102.23 57.82 95.94 52.06 C 92.77 54.25 88.96 53.34 85.36 53.76 C 85.76 49.47 82.06 48.80 78.98 50.58 C 71.48 47.64 62.37 53.65 55.89 48.14 C 50.34 46.89 37.86 55.61 37.66 46.02 C 34.06 45.58 35.78 53.28 30.38 49.56 C 27.44 49.71 24.38 48.92 21.57 50.05 C 18.52 50.29 13.59 46.88 13.72 51.66 C 9.17 48.15 3.79 54.37 0.00 49.89 L 0.00 9.50 C 2.76 13.48 5.31 13.01 6.52 8.30 Z" />
</g>
<g id="#00000015">
<path fill="#000000" opacity="0.08" d=" M 30.38 49.56 C 35.78 53.28 34.06 45.58 37.66 46.02 C 37.86 55.61 50.34 46.89 55.89 48.14 C 62.37 53.65 71.48 47.64 78.98 50.58 C 82.06 48.80 85.76 49.47 85.36 53.76 C 88.96 53.34 92.77 54.25 95.94 52.06 C 102.23 57.82 110.87 55.85 117.71 60.16 C 125.13 63.07 132.87 66.79 138.03 72.98 C 148.94 80.34 162.10 82.88 173.41 89.42 C 176.95 90.13 181.35 90.31 183.00 94.12 C 181.34 93.39 179.72 92.60 178.04 91.96 C 173.61 91.25 169.19 90.24 165.17 88.18 C 164.14 87.63 163.11 87.09 162.08 86.56 C 159.68 85.03 157.64 85.06 155.94 86.67 C 155.43 87.01 154.43 87.70 153.92 88.04 L 153.32 88.35 C 147.16 91.80 139.96 90.38 134.21 86.78 C 126.28 83.72 118.79 79.73 110.69 77.40 C 106.73 77.71 101.91 76.90 99.86 73.09 C 97.23 69.01 91.70 73.63 88.39 70.56 C 85.61 68.24 81.87 69.97 79.02 71.45 C 73.35 70.19 66.62 68.80 61.51 72.41 C 55.96 73.90 49.80 78.63 44.17 74.82 C 41.34 72.56 39.75 76.36 37.90 77.91 C 35.04 80.87 30.23 75.76 27.75 79.78 C 24.40 84.20 17.86 79.74 13.88 81.83 C 11.07 88.59 4.08 80.26 0.00 85.46 L 0.00 49.89 C 3.79 54.37 9.17 48.15 13.72 51.66 C 13.59 46.88 18.52 50.29 21.57 50.05 C 24.38 48.92 27.44 49.71 30.38 49.56 Z" />
</g>
<g id="#0000001f">
<path fill="#000000" opacity="0.12" d=" M 79.02 71.45 C 81.87 69.97 85.61 68.24 88.39 70.56 C 91.70 73.63 97.23 69.01 99.86 73.09 C 101.91 76.90 106.73 77.71 110.69 77.40 C 118.79 79.73 126.28 83.72 134.21 86.78 C 139.96 90.38 147.16 91.80 153.32 88.35 C 152.25 90.32 150.46 91.74 148.28 92.32 C 145.14 92.47 141.64 91.13 138.78 92.81 C 136.98 93.67 135.75 95.23 134.85 96.97 C 134.29 97.85 133.83 98.79 133.48 99.78 C 132.51 102.70 130.81 105.76 127.36 106.01 C 127.76 101.47 122.61 99.32 118.84 100.69 C 114.85 102.49 120.22 95.53 116.02 97.17 C 112.03 99.06 105.12 90.98 104.72 96.95 C 99.78 90.24 95.33 100.11 89.62 99.35 C 86.11 97.14 81.22 96.63 80.82 101.89 C 76.26 98.48 72.55 102.60 68.11 103.28 C 71.71 100.94 68.87 95.70 65.71 99.68 C 55.65 103.90 43.97 101.36 33.15 103.20 C 21.91 105.82 11.25 99.45 0.00 99.86 L 0.00 85.46 C 4.08 80.26 11.07 88.59 13.88 81.83 C 17.86 79.74 24.40 84.20 27.75 79.78 C 30.23 75.76 35.04 80.87 37.90 77.91 C 39.75 76.36 41.34 72.56 44.17 74.82 C 49.80 78.63 55.96 73.90 61.51 72.41 C 66.62 68.80 73.35 70.19 79.02 71.45 Z" />
</g>
<g id="#1c1e257a">
<path fill="#1c1e25" opacity="0.48" d=" M 155.94 86.67 C 157.64 85.06 159.68 85.03 162.08 86.56 C 160.14 87.51 157.89 87.61 155.94 86.67 Z" />
</g>
<g id="#5f6477f6">
<path fill="#5f6477" opacity="0.96" d=" M 153.92 88.04 C 154.43 87.70 155.43 87.01 155.94 86.67 C 157.89 87.61 160.14 87.51 162.08 86.56 C 163.11 87.09 164.14 87.63 165.17 88.18 C 161.61 89.85 156.51 92.38 153.92 88.04 Z" />
</g>
<g id="#414650fe">
<path fill="#414650" opacity="1.00" d=" M 153.32 88.35 L 153.92 88.04 C 156.51 92.38 161.61 89.85 165.17 88.18 C 169.19 90.24 173.61 91.25 178.04 91.96 C 171.61 90.84 179.15 97.29 176.30 100.31 C 172.12 107.25 176.39 114.59 177.52 121.75 C 174.52 122.20 172.70 123.67 173.11 126.81 C 170.82 125.24 166.94 124.45 170.57 127.49 C 173.63 131.32 174.76 124.94 177.99 124.80 C 177.45 130.01 172.32 133.44 173.69 138.68 C 169.80 138.25 169.11 141.92 168.94 145.02 C 173.55 146.27 175.24 141.28 178.08 138.82 C 176.63 143.01 174.20 150.56 181.06 150.12 C 181.35 156.11 173.37 153.95 172.02 158.97 C 169.40 160.26 170.46 166.44 173.52 165.81 C 173.81 162.16 180.02 160.69 181.02 164.40 C 180.97 171.14 183.88 177.55 183.52 184.30 C 181.56 185.60 179.99 187.90 182.26 189.81 C 176.25 190.38 178.16 203.00 172.12 198.01 C 172.25 195.38 172.15 190.75 168.24 192.10 C 164.83 194.52 168.87 198.81 172.12 198.01 C 172.34 199.29 172.56 200.59 172.74 201.89 C 171.93 207.52 165.19 205.08 165.73 200.14 C 157.16 198.93 165.52 206.85 163.23 210.87 C 165.65 212.76 168.88 213.00 171.84 212.97 C 175.58 211.96 175.05 215.37 175.15 217.98 C 173.17 216.69 171.16 215.41 168.98 214.50 C 164.34 213.34 158.89 213.34 155.69 217.36 C 155.60 214.70 159.45 209.64 152.17 213.02 C 148.81 212.81 152.78 219.50 149.05 220.10 C 144.62 223.25 144.39 216.26 144.80 213.29 C 141.85 214.82 133.85 217.27 137.14 210.25 C 140.73 207.06 143.58 201.95 144.03 196.89 C 138.25 197.03 139.39 204.68 134.99 206.04 C 129.72 204.62 134.02 194.01 127.16 196.89 C 126.99 193.80 126.85 190.77 126.68 187.69 C 127.56 185.56 129.43 184.13 131.11 182.65 C 135.19 183.56 132.09 189.18 132.20 192.11 C 135.41 192.59 135.03 188.65 137.22 187.40 C 141.68 188.53 145.34 184.32 146.57 180.44 C 147.32 177.34 151.61 181.75 152.88 178.75 C 153.86 175.98 150.74 173.93 151.08 171.23 C 153.20 168.17 156.01 171.63 157.98 173.00 C 158.04 171.38 158.05 169.77 158.05 168.16 C 159.86 168.96 161.68 170.05 163.74 169.98 C 164.00 167.44 166.80 162.11 162.39 162.04 C 162.66 166.22 158.43 165.27 157.83 162.01 C 161.06 160.96 167.41 157.47 165.33 153.74 C 161.95 151.79 157.78 151.96 153.98 152.02 C 151.60 157.67 161.17 156.77 157.83 162.01 C 153.15 162.33 157.01 165.82 158.05 168.16 C 153.02 167.09 150.64 161.03 144.16 164.93 C 143.99 158.22 138.80 162.13 135.08 158.88 C 130.68 153.48 125.19 161.56 125.68 166.18 C 121.93 160.38 129.39 156.88 128.50 151.83 C 128.20 149.86 127.95 147.87 127.82 145.88 C 128.37 143.31 128.75 140.72 129.30 138.15 C 133.41 131.86 125.25 125.69 128.92 118.93 C 128.45 112.97 133.48 109.26 134.99 104.12 C 134.96 102.33 134.89 98.76 134.85 96.97 C 135.75 95.23 136.98 93.67 138.78 92.81 C 141.93 92.74 145.25 93.48 148.28 92.32 C 150.46 91.74 152.25 90.32 153.32 88.35 M 153.28 94.13 C 146.82 98.68 157.70 98.34 160.91 96.79 C 161.83 92.65 154.95 94.08 153.28 94.13 M 158.30 120.63 C 160.94 120.75 167.29 125.09 167.66 122.15 C 168.44 121.37 169.18 120.55 169.88 119.69 C 172.24 118.64 174.41 112.27 171.16 109.87 C 171.29 108.28 170.56 107.62 168.99 107.90 C 162.77 102.57 150.97 113.88 158.30 120.63 M 144.26 108.19 C 141.10 111.07 136.95 116.19 141.20 119.94 C 147.98 121.69 151.38 108.42 144.26 108.19 M 167.30 131.30 C 164.10 132.30 158.78 136.65 162.23 139.89 C 166.92 141.52 173.98 131.84 167.30 131.30 M 169.99 180.98 C 166.89 185.10 174.23 190.34 176.89 186.76 C 180.52 180.78 172.59 181.16 169.99 180.98 M 153.19 192.09 C 152.64 195.13 146.99 198.11 150.24 200.89 C 156.83 205.72 159.26 189.72 153.19 192.09 Z" />
</g>
<g id="#1b20278c">
<path fill="#1b2027" opacity="0.55" d=" M 138.78 92.81 C 141.64 91.13 145.14 92.47 148.28 92.32 C 145.25 93.48 141.93 92.74 138.78 92.81 Z" />
</g>
<g id="#5f656dfd">
<path fill="#5f656d" opacity="1.00" d=" M 176.30 100.31 C 179.15 97.29 171.61 90.84 178.04 91.96 C 179.72 92.60 181.34 93.39 183.00 94.12 C 186.27 104.80 198.85 100.97 206.10 105.49 C 199.01 109.72 201.42 120.22 209.80 121.31 C 209.89 121.71 210.07 122.50 210.15 122.89 C 207.52 127.99 211.81 132.14 215.63 134.92 C 225.01 141.02 229.35 151.48 232.08 161.94 C 233.25 167.08 227.54 164.41 224.98 163.24 C 225.52 159.44 224.20 153.63 219.16 154.88 C 219.65 156.93 220.24 158.96 220.89 160.97 C 219.14 165.06 214.55 163.68 210.92 164.15 C 210.76 166.93 217.35 166.21 213.75 168.86 C 205.81 172.89 211.76 166.15 208.18 164.86 C 205.47 170.76 201.80 175.90 202.83 183.06 C 203.14 177.99 200.42 171.51 199.85 181.44 C 199.02 173.57 197.13 180.39 195.92 184.29 C 192.99 184.09 195.06 178.36 191.69 180.76 C 185.20 184.58 190.25 172.73 194.02 177.72 C 195.77 175.70 196.72 170.40 198.96 167.30 C 201.34 165.74 204.45 163.83 201.95 160.81 C 199.44 155.79 208.18 165.83 209.02 161.01 C 208.83 154.15 199.37 160.57 196.05 157.80 C 196.56 150.94 205.72 155.46 208.38 150.34 C 210.91 145.97 212.28 155.87 215.49 151.65 C 215.46 147.72 219.28 147.72 222.15 146.70 C 220.18 144.14 215.37 146.15 214.44 142.77 C 214.39 141.01 215.33 138.84 213.27 137.92 C 212.29 139.79 211.76 142.23 209.18 142.23 C 206.41 138.00 208.94 131.46 204.00 128.74 C 202.44 130.07 201.32 131.81 200.11 133.44 C 199.70 128.39 194.71 128.63 190.82 127.66 C 192.64 125.16 194.86 127.19 196.95 128.14 C 200.34 119.93 196.51 123.76 194.20 124.68 C 192.05 121.38 191.02 115.54 186.03 115.88 C 185.67 119.10 188.03 121.95 187.49 125.15 C 184.79 117.83 183.01 127.81 181.96 130.81 C 185.98 133.22 193.37 132.86 192.46 139.66 C 194.24 140.40 196.14 140.73 198.04 141.04 L 198.90 141.35 C 194.90 141.88 194.89 144.85 195.99 148.09 C 193.07 147.32 192.91 144.32 191.85 142.00 C 187.85 141.48 189.92 147.37 188.00 149.79 C 185.95 149.24 183.96 148.49 181.90 147.99 C 182.49 151.50 187.51 153.54 185.35 157.32 C 184.24 159.87 184.23 163.54 181.02 164.40 C 180.02 160.69 173.81 162.16 173.52 165.81 C 170.46 166.44 169.40 160.26 172.02 158.97 C 173.37 153.95 181.35 156.11 181.06 150.12 C 174.20 150.56 176.63 143.01 178.08 138.82 C 175.24 141.28 173.55 146.27 168.94 145.02 C 169.11 141.92 169.80 138.25 173.69 138.68 C 172.32 133.44 177.45 130.01 177.99 124.80 C 174.76 124.94 173.63 131.32 170.57 127.49 C 166.94 124.45 170.82 125.24 173.11 126.81 C 172.70 123.67 174.52 122.20 177.52 121.75 C 176.39 114.59 172.12 107.25 176.30 100.31 M 181.21 106.09 C 180.44 108.89 177.24 113.93 182.32 113.65 C 187.67 116.52 185.00 105.17 181.21 106.09 M 195.33 107.05 C 194.46 108.88 193.94 111.14 191.67 111.62 C 188.70 111.90 189.64 118.10 192.66 116.58 C 196.40 115.00 193.41 122.37 196.80 120.84 C 198.92 119.51 197.92 116.75 197.01 114.97 C 195.33 112.49 198.72 108.33 195.33 107.05 Z" />
</g>
<g id="#00000028">
<path fill="#000000" opacity="0.16" d=" M 89.62 99.35 C 95.33 100.11 99.78 90.24 104.72 96.95 C 105.12 90.98 112.03 99.06 116.02 97.17 C 120.22 95.53 114.85 102.49 118.84 100.69 C 122.61 99.32 127.76 101.47 127.36 106.01 C 130.81 105.76 132.51 102.70 133.48 99.78 C 133.54 101.34 134.00 102.89 134.99 104.12 C 133.48 109.26 128.45 112.97 128.92 118.93 C 126.13 120.10 126.70 125.55 123.19 124.77 C 118.17 121.27 111.70 125.76 107.01 121.29 C 103.15 125.88 98.74 116.46 98.74 123.06 C 94.12 116.24 85.57 126.04 79.36 124.56 C 73.83 122.65 72.11 130.09 67.38 131.30 C 59.79 132.53 51.63 128.57 44.29 131.60 C 29.60 128.74 14.69 132.42 0.00 129.85 L 0.00 99.86 C 11.25 99.45 21.91 105.82 33.15 103.20 C 43.97 101.36 55.65 103.90 65.71 99.68 C 68.87 95.70 71.71 100.94 68.11 103.28 C 72.55 102.60 76.26 98.48 80.82 101.89 C 81.22 96.63 86.11 97.14 89.62 99.35 Z" />
</g>
<g id="#6e7486ff">
<path fill="#6e7486" opacity="1.00" d=" M 153.28 94.13 C 154.95 94.08 161.83 92.65 160.91 96.79 C 157.70 98.34 146.82 98.68 153.28 94.13 Z" />
</g>
<g id="#181a1c8c">
<path fill="#181a1c" opacity="0.55" d=" M 133.48 99.78 C 133.83 98.79 134.29 97.85 134.85 96.97 C 134.89 98.76 134.96 102.33 134.99 104.12 C 134.00 102.89 133.54 101.34 133.48 99.78 Z" />
</g>
<g id="#9093a1ff">
<path fill="#9093a1" opacity="1.00" d=" M 181.21 106.09 C 185.00 105.17 187.67 116.52 182.32 113.65 C 177.24 113.93 180.44 108.89 181.21 106.09 Z" />
</g>
<g id="#9295a5fb">
<path fill="#9295a5" opacity="1.00" d=" M 209.80 121.31 C 201.42 120.22 199.01 109.72 206.10 105.49 C 210.16 109.13 212.25 114.75 210.64 120.18 C 210.43 120.46 210.01 121.03 209.80 121.31 Z" />
</g>
<g id="#666b81ff">
<path fill="#666b81" opacity="1.00" d=" M 158.30 120.63 C 150.97 113.88 162.77 102.57 168.99 107.90 C 161.67 106.00 164.22 112.93 162.01 117.04 C 161.95 120.15 164.47 122.72 167.66 122.15 C 167.29 125.09 160.94 120.75 158.30 120.63 Z" />
</g>
<g id="#7e8280ff">
<path fill="#7e8280" opacity="1.00" d=" M 195.33 107.05 C 198.72 108.33 195.33 112.49 197.01 114.97 C 197.92 116.75 198.92 119.51 196.80 120.84 C 193.41 122.37 196.40 115.00 192.66 116.58 C 189.64 118.10 188.70 111.90 191.67 111.62 C 193.94 111.14 194.46 108.88 195.33 107.05 Z" />
</g>
<g id="#5c6178ff">
<path fill="#5c6178" opacity="1.00" d=" M 144.26 108.19 C 151.38 108.42 147.98 121.69 141.20 119.94 C 136.95 116.19 141.10 111.07 144.26 108.19 Z" />
</g>
<g id="#979ba7ff">
<path fill="#979ba7" opacity="1.00" d=" M 162.01 117.04 C 164.22 112.93 161.67 106.00 168.99 107.90 C 170.56 107.62 171.29 108.28 171.16 109.87 C 172.97 113.91 167.82 115.64 169.88 119.69 C 169.18 120.55 168.44 121.37 167.66 122.15 C 164.47 122.72 161.95 120.15 162.01 117.04 Z" />
</g>
<g id="#707764ff">
<path fill="#707764" opacity="1.00" d=" M 171.16 109.87 C 174.41 112.27 172.24 118.64 169.88 119.69 C 167.82 115.64 172.97 113.91 171.16 109.87 Z" />
</g>
<g id="#80838cff">
<path fill="#80838c" opacity="1.00" d=" M 186.03 115.88 C 191.02 115.54 192.05 121.38 194.20 124.68 C 196.51 123.76 200.34 119.93 196.95 128.14 C 194.86 127.19 192.64 125.16 190.82 127.66 C 189.39 127.16 186.66 127.43 187.49 125.15 C 188.03 121.95 185.67 119.10 186.03 115.88 Z" />
</g>
<g id="#00000033">
<path fill="#000000" opacity="0.20" d=" M 123.19 124.77 C 126.70 125.55 126.13 120.10 128.92 118.93 C 125.25 125.69 133.41 131.86 129.30 138.15 C 129.01 142.79 126.57 144.42 121.99 143.03 C 113.80 140.80 105.21 141.47 96.78 141.30 C 64.50 140.54 32.24 136.86 0.00 139.06 L 0.00 129.85 C 14.69 132.42 29.60 128.74 44.29 131.60 C 51.63 128.57 59.79 132.53 67.38 131.30 C 72.11 130.09 73.83 122.65 79.36 124.56 C 85.57 126.04 94.12 116.24 98.74 123.06 C 98.74 116.46 103.15 125.88 107.01 121.29 C 111.70 125.76 118.17 121.27 123.19 124.77 Z" />
</g>
<g id="#21212593">
<path fill="#212125" opacity="0.58" d=" M 209.80 121.31 C 210.01 121.03 210.43 120.46 210.64 120.18 C 211.65 121.14 212.81 121.94 213.79 122.94 C 212.58 122.97 211.36 122.96 210.15 122.89 C 210.07 122.50 209.89 121.71 209.80 121.31 Z" />
</g>
<g id="#4e5555ff">
<path fill="#4e5555" opacity="1.00" d=" M 181.96 130.81 C 183.01 127.81 184.79 117.83 187.49 125.15 C 186.66 127.43 189.39 127.16 190.82 127.66 C 194.71 128.63 199.70 128.39 200.11 133.44 C 199.76 136.06 198.87 138.55 198.04 141.04 C 196.14 140.73 194.24 140.40 192.46 139.66 C 193.37 132.86 185.98 133.22 181.96 130.81 Z" />
</g>
<g id="#4b4b50f5">
<path fill="#4b4b50" opacity="0.96" d=" M 210.15 122.89 C 211.36 122.96 212.58 122.97 213.79 122.94 C 217.47 126.39 221.09 131.23 215.63 134.92 C 211.81 132.14 207.52 127.99 210.15 122.89 Z" />
</g>
<g id="#7d854bff">
<path fill="#7d854b" opacity="1.00" d=" M 200.11 133.44 C 201.32 131.81 202.44 130.07 204.00 128.74 C 208.94 131.46 206.41 138.00 209.18 142.23 C 208.97 143.59 208.55 146.32 208.34 147.69 C 208.26 145.21 206.00 139.20 206.60 148.59 C 204.79 152.37 198.73 152.31 200.77 147.37 C 204.77 146.37 206.21 143.06 201.27 142.35 C 200.49 141.98 199.70 141.65 198.90 141.35 L 198.04 141.04 C 198.87 138.55 199.76 136.06 200.11 133.44 Z" />
</g>
<g id="#696d78ff">
<path fill="#696d78" opacity="1.00" d=" M 167.30 131.30 C 173.98 131.84 166.92 141.52 162.23 139.89 C 158.78 136.65 164.10 132.30 167.30 131.30 Z" />
</g>
<g id="#00000042">
<path fill="#000000" opacity="0.26" d=" M 0.00 139.06 C 32.24 136.86 64.50 140.54 96.78 141.30 C 105.21 141.47 113.80 140.80 121.99 143.03 C 126.57 144.42 129.01 142.79 129.30 138.15 C 128.75 140.72 128.37 143.31 127.82 145.88 C 127.55 146.94 127.29 148.01 127.03 149.07 C 84.85 144.36 42.37 142.82 0.00 146.06 L 0.00 139.06 Z" />
<path fill="#000000" opacity="0.26" d=" M 0.00 159.81 C 41.96 167.97 85.20 166.36 127.17 173.77 C 128.08 176.85 132.86 179.38 131.11 182.65 C 129.43 184.13 127.56 185.56 126.68 187.69 C 126.45 188.22 125.99 189.29 125.76 189.82 C 123.78 195.50 125.77 202.56 123.69 207.74 C 108.24 211.53 92.47 207.38 76.97 206.24 C 51.05 204.93 25.38 200.98 0.00 195.83 L 0.00 187.75 C 32.80 197.16 66.56 203.80 100.79 203.86 C 106.18 197.38 100.75 188.33 95.52 183.52 C 97.03 174.41 92.33 181.45 89.37 180.77 C 83.62 171.71 71.66 175.35 62.98 172.27 C 41.86 172.93 20.98 169.65 0.00 167.89 L 0.00 159.81 Z" />
</g>
<g id="#777d80ff">
<path fill="#777d80" opacity="1.00" d=" M 213.27 137.92 C 215.33 138.84 214.39 141.01 214.44 142.77 C 215.37 146.15 220.18 144.14 222.15 146.70 C 219.28 147.72 215.46 147.72 215.49 151.65 C 212.28 155.87 210.91 145.97 208.38 150.34 C 205.72 155.46 196.56 150.94 196.05 157.80 C 199.37 160.57 208.83 154.15 209.02 161.01 C 208.18 165.83 199.44 155.79 201.95 160.81 C 197.98 160.09 193.83 165.72 198.96 167.30 C 196.72 170.40 195.77 175.70 194.02 177.72 C 190.25 172.73 185.20 184.58 191.69 180.76 C 195.06 178.36 192.99 184.09 195.92 184.29 C 195.50 186.41 193.28 187.33 191.97 188.85 C 195.44 189.58 199.00 190.15 202.17 191.85 C 204.49 192.82 208.40 195.76 204.99 187.92 C 203.29 188.46 201.68 189.21 200.01 189.79 C 198.29 187.38 199.68 184.16 199.85 181.44 C 200.42 171.51 203.14 177.99 202.83 183.06 C 205.98 187.37 209.51 191.17 215.07 192.10 C 216.77 197.50 209.85 204.50 205.60 198.95 C 203.60 197.50 201.12 196.90 198.85 196.00 C 200.38 200.12 206.57 208.78 198.68 209.67 C 193.90 211.17 197.64 203.05 200.09 201.88 C 196.00 200.94 196.30 205.47 194.79 207.88 C 191.26 207.56 187.73 207.63 184.20 207.74 C 181.60 203.94 188.17 202.26 190.94 201.65 C 185.96 199.08 185.91 192.92 182.26 189.81 C 179.99 187.90 181.56 185.60 183.52 184.30 C 183.88 177.55 180.97 171.14 181.02 164.40 C 184.23 163.54 184.24 159.87 185.35 157.32 C 187.51 153.54 182.49 151.50 181.90 147.99 C 183.96 148.49 185.95 149.24 188.00 149.79 C 189.92 147.37 187.85 141.48 191.85 142.00 C 192.91 144.32 193.07 147.32 195.99 148.09 C 194.89 144.85 194.90 141.88 198.90 141.35 C 199.70 141.65 200.49 141.98 201.27 142.35 C 198.56 143.48 199.44 145.48 200.77 147.37 C 198.73 152.31 204.79 152.37 206.60 148.59 C 206.00 139.20 208.26 145.21 208.34 147.69 C 208.55 146.32 208.97 143.59 209.18 142.23 C 211.76 142.23 212.29 139.79 213.27 137.92 Z" />
</g>
<g id="#a3ac91ff">
<path fill="#a3ac91" opacity="1.00" d=" M 200.77 147.37 C 199.44 145.48 198.56 143.48 201.27 142.35 C 206.21 143.06 204.77 146.37 200.77 147.37 Z" />
</g>
<g id="#00000052">
<path fill="#000000" opacity="0.32" d=" M 0.00 146.06 C 42.37 142.82 84.85 144.36 127.03 149.07 C 126.92 149.54 126.70 150.47 126.59 150.94 C 104.02 150.76 81.47 147.43 58.89 149.62 C 50.15 148.85 40.91 149.84 33.28 154.47 C 31.71 159.67 39.35 158.15 42.69 158.58 C 70.39 162.76 98.33 165.04 125.91 170.06 C 126.30 171.31 126.72 172.54 127.17 173.77 C 85.20 166.36 41.96 167.97 0.00 159.81 L 0.00 146.06 Z" />
</g>
<g id="#00000060">
<path fill="#000000" opacity="0.38" d=" M 127.03 149.07 C 127.29 148.01 127.55 146.94 127.82 145.88 C 127.95 147.87 128.20 149.86 128.50 151.83 C 119.81 157.19 105.64 150.81 94.98 152.97 C 91.05 154.26 80.51 151.04 80.19 156.74 C 94.02 165.03 111.19 162.12 125.93 167.96 C 125.93 168.49 125.92 169.54 125.91 170.06 C 98.33 165.04 70.39 162.76 42.69 158.58 C 39.35 158.15 31.71 159.67 33.28 154.47 C 40.91 149.84 50.15 148.85 58.89 149.62 C 81.47 147.43 104.02 150.76 126.59 150.94 C 126.70 150.47 126.92 149.54 127.03 149.07 Z" />
</g>
<g id="#01010170">
<path fill="#010101" opacity="0.44" d=" M 128.50 151.83 C 129.39 156.88 121.93 160.38 125.68 166.18 C 125.74 166.63 125.87 167.52 125.93 167.96 C 111.19 162.12 94.02 165.03 80.19 156.74 C 80.51 151.04 91.05 154.26 94.98 152.97 C 105.64 150.81 119.81 157.19 128.50 151.83 Z" />
</g>
<g id="#545967ff">
<path fill="#545967" opacity="1.00" d=" M 153.98 152.02 C 157.78 151.96 161.95 151.79 165.33 153.74 C 167.41 157.47 161.06 160.96 157.83 162.01 C 161.17 156.77 151.60 157.67 153.98 152.02 Z" />
</g>
<g id="#8b8e9dff">
<path fill="#8b8e9d" opacity="1.00" d=" M 219.16 154.88 C 224.20 153.63 225.52 159.44 224.98 163.24 C 223.41 162.86 221.97 162.18 220.89 160.97 C 220.24 158.96 219.65 156.93 219.16 154.88 Z" />
</g>
<g id="#575c71ff">
<path fill="#575c71" opacity="1.00" d=" M 125.68 166.18 C 125.19 161.56 130.68 153.48 135.08 158.88 C 134.64 163.23 135.26 167.52 135.88 171.79 C 132.29 176.20 127.30 172.08 125.93 167.96 C 125.87 167.52 125.74 166.63 125.68 166.18 Z" />
</g>
<g id="#313237fd">
<path fill="#313237" opacity="1.00" d=" M 135.08 158.88 C 138.80 162.13 143.99 158.22 144.16 164.93 C 150.64 161.03 153.02 167.09 158.05 168.16 C 158.05 169.77 158.04 171.38 157.98 173.00 C 156.01 171.63 153.20 168.17 151.08 171.23 C 150.74 173.93 153.86 175.98 152.88 178.75 C 151.61 181.75 147.32 177.34 146.57 180.44 C 145.34 184.32 141.68 188.53 137.22 187.40 C 135.03 188.65 135.41 192.59 132.20 192.11 C 132.09 189.18 135.19 183.56 131.11 182.65 C 132.86 179.38 128.08 176.85 127.17 173.77 C 126.72 172.54 126.30 171.31 125.91 170.06 C 125.92 169.54 125.93 168.49 125.93 167.96 C 127.30 172.08 132.29 176.20 135.88 171.79 C 135.26 167.52 134.64 163.23 135.08 158.88 Z" />
</g>
<g id="#9498a5ff">
<path fill="#9498a5" opacity="1.00" d=" M 198.96 167.30 C 193.83 165.72 197.98 160.09 201.95 160.81 C 204.45 163.83 201.34 165.74 198.96 167.30 Z" />
</g>
<g id="#3c3e48fc">
<path fill="#3c3e48" opacity="1.00" d=" M 210.92 164.15 C 214.55 163.68 219.14 165.06 220.89 160.97 C 221.97 162.18 223.41 162.86 224.98 163.24 C 227.54 164.41 233.25 167.08 232.08 161.94 C 232.60 164.44 234.51 165.34 236.94 165.17 C 247.36 165.12 257.99 167.96 265.20 175.90 C 266.94 185.17 257.45 188.63 251.08 192.37 C 247.18 192.31 251.65 187.54 248.80 186.25 C 246.17 186.24 243.53 186.58 240.93 186.77 C 240.96 185.52 241.00 184.28 241.04 183.03 C 245.22 182.57 250.04 184.43 254.63 183.62 C 261.83 181.53 255.73 168.64 249.07 172.32 C 247.06 165.83 238.33 167.42 235.68 172.73 C 231.04 170.69 222.28 165.43 221.73 173.82 C 216.33 171.36 213.67 176.11 212.96 180.90 C 216.49 181.16 219.90 180.38 222.79 178.31 C 223.31 182.05 227.70 186.43 231.22 183.21 C 237.22 178.93 235.69 190.86 239.51 189.04 C 240.57 191.42 237.67 191.32 236.08 191.81 C 234.69 189.51 234.47 186.32 232.05 184.79 C 230.50 185.98 229.19 187.43 227.71 188.70 C 224.77 187.17 217.04 182.30 220.33 190.62 C 221.03 195.58 226.96 193.30 230.20 193.76 C 230.15 194.32 230.05 195.44 230.00 196.00 C 228.69 195.76 227.40 195.48 226.10 195.27 C 224.38 194.78 222.67 195.25 221.10 195.95 C 219.32 194.35 217.36 192.88 215.07 192.10 C 209.51 191.17 205.98 187.37 202.83 183.06 C 201.80 175.90 205.47 170.76 208.18 164.86 C 211.76 166.15 205.81 172.89 213.75 168.86 C 217.35 166.21 210.76 166.93 210.92 164.15 Z" />
</g>
<g id="#565b6cff">
<path fill="#565b6c" opacity="1.00" d=" M 158.05 168.16 C 157.01 165.82 153.15 162.33 157.83 162.01 C 158.43 165.27 162.66 166.22 162.39 162.04 C 166.80 162.11 164.00 167.44 163.74 169.98 C 161.68 170.05 159.86 168.96 158.05 168.16 Z" />
</g>
<g id="#00000035">
<path fill="#000000" opacity="0.21" d=" M 0.00 167.89 C 20.98 169.65 41.86 172.93 62.98 172.27 C 71.66 175.35 83.62 171.71 89.37 180.77 C 92.33 181.45 97.03 174.41 95.52 183.52 C 100.75 188.33 106.18 197.38 100.79 203.86 C 66.56 203.80 32.80 197.16 0.00 187.75 L 0.00 167.89 Z" />
</g>
<g id="#515464ff">
<path fill="#515464" opacity="1.00" d=" M 235.68 172.73 C 238.33 167.42 247.06 165.83 249.07 172.32 C 246.59 176.61 241.65 172.93 238.09 172.11 C 235.75 174.66 234.85 186.36 241.04 183.03 C 241.00 184.28 240.96 185.52 240.93 186.77 C 239.56 186.96 239.08 187.72 239.51 189.04 C 235.69 190.86 237.22 178.93 231.22 183.21 C 227.70 186.43 223.31 182.05 222.79 178.31 C 219.90 180.38 216.49 181.16 212.96 180.90 C 213.67 176.11 216.33 171.36 221.73 173.82 C 222.28 165.43 231.04 170.69 235.68 172.73 Z" />
</g>
<g id="#727480ff">
<path fill="#727480" opacity="1.00" d=" M 238.09 172.11 C 241.65 172.93 246.59 176.61 249.07 172.32 C 255.73 168.64 261.83 181.53 254.63 183.62 C 250.04 184.43 245.22 182.57 241.04 183.03 C 234.85 186.36 235.75 174.66 238.09 172.11 Z" />
</g>
<g id="#0101011d">
<path fill="#010101" opacity="0.11" d=" M 265.20 175.90 C 272.82 184.71 249.89 191.90 259.57 200.47 C 259.23 203.98 257.27 207.83 260.89 210.98 C 256.97 212.83 259.43 216.57 259.80 219.75 C 258.22 221.52 255.37 222.31 254.83 224.83 C 258.91 223.04 257.59 226.20 256.94 228.93 C 262.71 228.24 268.40 227.13 274.05 225.95 L 273.90 226.90 C 266.12 228.53 259.53 232.53 253.86 237.91 C 248.74 242.75 241.35 241.94 234.98 243.52 C 230.19 243.44 226.74 247.58 221.93 247.20 C 221.08 245.11 220.29 243.00 219.39 240.94 C 214.10 235.25 217.21 229.39 222.33 224.39 C 223.33 223.30 224.36 222.24 225.25 221.06 C 227.61 217.10 228.93 212.61 230.16 208.19 C 230.92 203.36 230.71 198.42 231.70 193.62 C 235.53 193.80 239.40 194.08 243.25 193.82 C 245.94 193.82 248.76 193.92 251.08 192.37 C 257.45 188.63 266.94 185.17 265.20 175.90 Z" />
</g>
<g id="#8c9296ff">
<path fill="#8c9296" opacity="1.00" d=" M 195.92 184.29 C 197.13 180.39 199.02 173.57 199.85 181.44 C 199.68 184.16 198.29 187.38 200.01 189.79 C 201.68 189.21 203.29 188.46 204.99 187.92 C 208.40 195.76 204.49 192.82 202.17 191.85 C 199.00 190.15 195.44 189.58 191.97 188.85 C 193.28 187.33 195.50 186.41 195.92 184.29 Z" />
</g>
<g id="#6d7575ff">
<path fill="#6d7575" opacity="1.00" d=" M 169.99 180.98 C 172.59 181.16 180.52 180.78 176.89 186.76 C 174.23 190.34 166.89 185.10 169.99 180.98 Z" />
</g>
<g id="#313139fd">
<path fill="#313139" opacity="1.00" d=" M 227.71 188.70 C 229.19 187.43 230.50 185.98 232.05 184.79 C 234.47 186.32 234.69 189.51 236.08 191.81 C 237.67 191.32 240.57 191.42 239.51 189.04 C 239.08 187.72 239.56 186.96 240.93 186.77 C 243.53 186.58 246.17 186.24 248.80 186.25 C 251.65 187.54 247.18 192.31 251.08 192.37 C 248.76 193.92 245.94 193.82 243.25 193.82 C 239.42 192.94 235.54 193.09 231.70 193.62 C 231.32 193.66 230.57 193.73 230.20 193.76 C 226.96 193.30 221.03 195.58 220.33 190.62 C 217.04 182.30 224.77 187.17 227.71 188.70 Z" />
</g>
<g id="#35373dfb">
<path fill="#35373d" opacity="1.00" d=" M 125.76 189.82 C 125.99 189.29 126.45 188.22 126.68 187.69 C 126.85 190.77 126.99 193.80 127.16 196.89 C 134.02 194.01 129.72 204.62 134.99 206.04 C 139.39 204.68 138.25 197.03 144.03 196.89 C 143.58 201.95 140.73 207.06 137.14 210.25 C 133.85 217.27 141.85 214.82 144.80 213.29 C 144.39 216.26 144.62 223.25 149.05 220.10 C 152.78 219.50 148.81 212.81 152.17 213.02 C 159.45 209.64 155.60 214.70 155.69 217.36 C 154.45 223.82 158.30 231.99 165.23 233.10 C 164.40 234.10 163.60 235.15 162.58 235.96 C 158.22 233.17 153.61 230.75 149.16 228.11 C 142.62 234.25 139.61 246.43 146.93 253.03 C 151.68 255.82 157.45 261.04 163.15 259.16 C 166.20 259.24 170.21 255.26 171.07 259.97 C 172.68 265.48 180.78 256.34 180.21 263.89 C 177.15 265.67 169.13 264.58 170.59 269.32 C 161.26 268.64 154.72 261.54 146.19 258.93 C 143.03 256.28 140.44 253.00 138.98 249.11 C 138.85 246.66 138.63 244.23 138.33 241.82 C 138.27 241.36 138.15 240.43 138.09 239.97 C 138.06 239.52 138.00 238.60 137.97 238.14 C 140.45 227.98 130.51 220.26 131.19 209.98 C 131.00 209.71 130.62 209.16 130.43 208.89 C 125.37 203.86 125.77 196.45 125.76 189.82 Z" />
</g>
<g id="#00000050">
<path fill="#000000" opacity="0.31" d=" M 123.69 207.74 C 125.77 202.56 123.78 195.50 125.76 189.82 C 125.77 196.45 125.37 203.86 130.43 208.89 C 129.87 212.08 126.02 210.97 123.55 211.53 C 98.87 212.87 74.26 207.12 49.64 207.60 C 45.31 210.30 35.30 204.69 37.05 212.78 C 49.88 217.35 63.35 219.62 76.35 223.62 C 96.86 228.12 116.02 238.53 137.24 239.74 L 138.09 239.97 C 138.15 240.43 138.27 241.36 138.33 241.82 C 124.51 241.44 111.33 236.29 98.08 232.80 C 66.11 222.49 32.41 219.21 0.00 211.05 L 0.00 195.83 C 25.38 200.98 51.05 204.93 76.97 206.24 C 92.47 207.38 108.24 211.53 123.69 207.74 Z" />
</g>
<g id="#666a6ffe">
<path fill="#666a6f" opacity="1.00" d=" M 172.12 198.01 C 178.16 203.00 176.25 190.38 182.26 189.81 C 185.91 192.92 185.96 199.08 190.94 201.65 C 188.17 202.26 181.60 203.94 184.20 207.74 C 187.73 207.63 191.26 207.56 194.79 207.88 C 196.30 205.47 196.00 200.94 200.09 201.88 C 197.64 203.05 193.90 211.17 198.68 209.67 C 206.57 208.78 200.38 200.12 198.85 196.00 C 201.12 196.90 203.60 197.50 205.60 198.95 C 202.35 200.44 205.03 206.54 207.85 203.85 C 209.85 206.08 209.45 208.54 208.00 210.93 C 211.44 211.05 214.89 210.74 215.15 206.60 C 218.68 206.91 219.60 204.42 219.01 201.24 C 222.88 201.78 225.29 198.68 226.10 195.27 C 227.40 195.48 228.69 195.76 230.00 196.00 C 230.06 200.06 230.11 204.12 230.16 208.19 C 228.93 212.61 227.61 217.10 225.25 221.06 C 225.91 216.70 220.85 218.85 218.22 218.22 C 218.15 221.79 217.12 226.90 222.33 224.39 C 217.21 229.39 214.10 235.25 219.39 240.94 C 215.27 243.58 216.30 247.84 218.47 251.47 C 220.80 255.25 214.36 254.70 217.04 258.75 C 214.81 256.73 212.47 258.71 210.09 259.15 C 207.91 257.46 206.22 254.64 208.31 252.18 C 209.26 251.55 211.51 251.27 210.17 249.79 C 207.75 246.34 214.44 243.35 211.61 240.03 C 212.40 236.23 214.29 235.64 214.35 231.41 C 215.43 229.59 215.22 227.85 212.84 228.09 C 215.33 225.15 212.15 221.19 208.94 223.90 C 203.16 224.16 211.30 233.79 202.44 229.52 C 197.18 229.29 195.35 235.82 197.43 239.87 C 194.82 239.73 193.22 241.20 192.45 243.63 C 187.82 245.93 191.20 239.65 191.74 237.19 C 190.03 235.72 191.43 233.96 191.76 232.23 C 189.49 229.79 190.23 226.33 191.69 223.68 C 189.46 224.08 187.43 225.18 185.83 226.77 C 182.83 224.81 179.25 221.08 176.04 224.89 C 176.95 222.53 175.96 220.19 175.15 217.98 C 175.05 215.37 175.58 211.96 171.84 212.97 C 170.64 209.23 177.12 207.90 175.29 204.91 C 173.52 204.77 172.68 203.67 172.74 201.89 C 172.56 200.59 172.34 199.29 172.12 198.01 M 182.25 196.32 C 179.34 196.03 178.72 202.25 181.95 200.97 C 184.70 201.29 184.68 195.84 182.25 196.32 M 185.19 211.15 C 183.21 212.72 183.89 220.55 187.20 217.21 C 189.43 213.92 196.35 216.41 195.03 211.02 C 190.37 210.88 188.13 213.99 185.19 211.15 M 212.21 213.13 C 210.37 214.34 210.01 219.61 213.14 217.21 C 217.46 216.83 216.63 210.98 212.21 213.13 M 206.14 219.38 C 204.67 224.00 210.34 220.59 206.14 219.38 Z" />
</g>
<g id="#606779ff">
<path fill="#606779" opacity="1.00" d=" M 153.19 192.09 C 159.26 189.72 156.83 205.72 150.24 200.89 C 146.99 198.11 152.64 195.13 153.19 192.09 Z" />
</g>
<g id="#6b7285ff">
<path fill="#6b7285" opacity="1.00" d=" M 168.24 192.10 C 172.15 190.75 172.25 195.38 172.12 198.01 C 168.87 198.81 164.83 194.52 168.24 192.10 Z" />
</g>
<g id="#54565fff">
<path fill="#54565f" opacity="1.00" d=" M 215.07 192.10 C 217.36 192.88 219.32 194.35 221.10 195.95 C 219.61 197.49 217.07 198.95 219.01 201.24 C 219.60 204.42 218.68 206.91 215.15 206.60 C 210.04 208.61 212.80 197.91 207.85 203.85 C 205.03 206.54 202.35 200.44 205.60 198.95 C 209.85 204.50 216.77 197.50 215.07 192.10 Z" />
</g>
<g id="#15161597">
<path fill="#151615" opacity="0.59" d=" M 231.70 193.62 C 235.54 193.09 239.42 192.94 243.25 193.82 C 239.40 194.08 235.53 193.80 231.70 193.62 Z" />
</g>
<g id="#1414156a">
<path fill="#141415" opacity="0.42" d=" M 230.20 193.76 C 230.57 193.73 231.32 193.66 231.70 193.62 C 230.71 198.42 230.92 203.36 230.16 208.19 C 230.11 204.12 230.06 200.06 230.00 196.00 C 230.05 195.44 230.15 194.32 230.20 193.76 Z" />
</g>
<g id="#868789ff">
<path fill="#868789" opacity="1.00" d=" M 221.10 195.95 C 222.67 195.25 224.38 194.78 226.10 195.27 C 225.29 198.68 222.88 201.78 219.01 201.24 C 217.07 198.95 219.61 197.49 221.10 195.95 Z" />
</g>
<g id="#a6a9adff">
<path fill="#a6a9ad" opacity="1.00" d=" M 182.25 196.32 C 184.68 195.84 184.70 201.29 181.95 200.97 C 178.72 202.25 179.34 196.03 182.25 196.32 Z" />
</g>
<g id="#545c5dff">
<path fill="#545c5d" opacity="1.00" d=" M 163.23 210.87 C 165.52 206.85 157.16 198.93 165.73 200.14 C 165.19 205.08 171.93 207.52 172.74 201.89 C 172.68 203.67 173.52 204.77 175.29 204.91 C 177.12 207.90 170.64 209.23 171.84 212.97 C 168.88 213.00 165.65 212.76 163.23 210.87 Z" />
</g>
<g id="#80828cff">
<path fill="#80828c" opacity="1.00" d=" M 207.85 203.85 C 212.80 197.91 210.04 208.61 215.15 206.60 C 214.89 210.74 211.44 211.05 208.00 210.93 C 209.45 208.54 209.85 206.08 207.85 203.85 Z" />
</g>
<g id="#0000005e">
<path fill="#000000" opacity="0.37" d=" M 49.64 207.60 C 74.26 207.12 98.87 212.87 123.55 211.53 C 126.02 210.97 129.87 212.08 130.43 208.89 C 130.62 209.16 131.00 209.71 131.19 209.98 C 131.15 210.72 131.05 212.19 131.01 212.92 C 113.32 215.24 95.72 212.50 78.03 212.07 C 74.83 212.67 69.02 211.53 68.92 215.88 C 90.96 225.68 113.82 233.87 137.24 239.74 C 116.02 238.53 96.86 228.12 76.35 223.62 C 63.35 219.62 49.88 217.35 37.05 212.78 C 35.30 204.69 45.31 210.30 49.64 207.60 Z" />
</g>
<g id="#01010180">
<path fill="#010101" opacity="0.50" d=" M 131.19 209.98 C 130.51 220.26 140.45 227.98 137.97 238.14 C 126.17 234.13 114.38 229.06 104.78 220.94 C 110.61 213.47 126.55 220.86 131.01 212.92 C 131.05 212.19 131.15 210.72 131.19 209.98 Z" />
</g>
<g id="#0000003d">
<path fill="#000000" opacity="0.24" d=" M 0.00 211.05 C 32.41 219.21 66.11 222.49 98.08 232.80 C 111.33 236.29 124.51 241.44 138.33 241.82 C 138.63 244.23 138.85 246.66 138.98 249.11 C 137.74 246.79 137.70 242.79 133.13 244.69 C 110.47 241.33 88.72 234.03 66.54 228.60 C 44.41 224.66 22.06 222.08 0.00 217.76 L 0.00 211.05 Z" />
</g>
<g id="#898e9bff">
<path fill="#898e9b" opacity="1.00" d=" M 185.19 211.15 C 188.13 213.99 190.37 210.88 195.03 211.02 C 196.35 216.41 189.43 213.92 187.20 217.21 C 183.89 220.55 183.21 212.72 185.19 211.15 Z" />
</g>
<g id="#0000006e">
<path fill="#000000" opacity="0.43" d=" M 68.92 215.88 C 69.02 211.53 74.83 212.67 78.03 212.07 C 95.72 212.50 113.32 215.24 131.01 212.92 C 126.55 220.86 110.61 213.47 104.78 220.94 C 114.38 229.06 126.17 234.13 137.97 238.14 C 138.00 238.60 138.06 239.52 138.09 239.97 L 137.24 239.74 C 113.82 233.87 90.96 225.68 68.92 215.88 Z" />
</g>
<g id="#8b9099ff">
<path fill="#8b9099" opacity="1.00" d=" M 212.21 213.13 C 216.63 210.98 217.46 216.83 213.14 217.21 C 210.01 219.61 210.37 214.34 212.21 213.13 Z" />
</g>
<g id="#5e645eff">
<path fill="#5e645e" opacity="1.00" d=" M 155.69 217.36 C 158.89 213.34 164.34 213.34 168.98 214.50 C 165.10 219.27 171.20 233.92 176.04 224.89 C 179.25 221.08 182.83 224.81 185.83 226.77 C 186.16 227.27 186.83 228.25 187.16 228.75 C 178.49 225.14 184.04 233.48 183.02 236.04 C 180.49 233.35 175.05 227.88 174.28 234.60 C 176.56 238.30 175.76 244.62 170.33 243.81 C 166.52 241.47 174.00 242.78 171.86 239.24 C 169.53 237.23 168.96 232.54 165.23 233.10 C 158.30 231.99 154.45 223.82 155.69 217.36 Z" />
</g>
<g id="#898995ff">
<path fill="#898995" opacity="1.00" d=" M 176.04 224.89 C 171.20 233.92 165.10 219.27 168.98 214.50 C 171.16 215.41 173.17 216.69 175.15 217.98 C 175.96 220.19 176.95 222.53 176.04 224.89 Z" />
</g>
<g id="#0000002c">
<path fill="#000000" opacity="0.17" d=" M 0.00 217.76 C 22.06 222.08 44.41 224.66 66.54 228.60 C 88.72 234.03 110.47 241.33 133.13 244.69 C 137.70 242.79 137.74 246.79 138.98 249.11 C 140.44 253.00 143.03 256.28 146.19 258.93 C 142.82 259.25 140.56 256.57 137.81 255.20 C 126.52 252.88 114.82 253.09 103.43 253.48 C 98.06 251.32 93.36 247.62 87.11 248.89 C 83.01 250.06 83.39 244.85 80.61 243.45 C 69.92 243.20 61.75 234.57 51.18 233.64 C 34.85 227.20 16.84 229.58 0.00 225.00 L 0.00 217.76 Z" />
</g>
<g id="#8b8c91fc">
<path fill="#8b8c91" opacity="1.00" d=" M 218.22 218.22 C 220.85 218.85 225.91 216.70 225.25 221.06 C 224.36 222.24 223.33 223.30 222.33 224.39 C 217.12 226.90 218.15 221.79 218.22 218.22 Z" />
</g>
<g id="#c1c4b1ff">
<path fill="#c1c4b1" opacity="1.00" d=" M 206.14 219.38 C 210.34 220.59 204.67 224.00 206.14 219.38 Z" />
</g>
<g id="#4f5156ff">
<path fill="#4f5156" opacity="1.00" d=" M 208.94 223.90 C 212.15 221.19 215.33 225.15 212.84 228.09 C 210.95 233.88 203.77 230.31 200.21 234.43 C 194.99 240.41 206.53 241.13 202.85 244.91 C 200.00 244.88 200.30 240.48 197.43 239.87 C 195.35 235.82 197.18 229.29 202.44 229.52 C 211.30 233.79 203.16 224.16 208.94 223.90 Z" />
</g>
<g id="#757a80ff">
<path fill="#757a80" opacity="1.00" d=" M 185.83 226.77 C 187.43 225.18 189.46 224.08 191.69 223.68 C 190.23 226.33 189.49 229.79 191.76 232.23 C 191.43 233.96 190.03 235.72 191.74 237.19 C 191.20 239.65 187.82 245.93 192.45 243.63 C 193.22 241.20 194.82 239.73 197.43 239.87 C 200.30 240.48 200.00 244.88 202.85 244.91 C 206.53 241.13 194.99 240.41 200.21 234.43 C 203.77 230.31 210.95 233.88 212.84 228.09 C 215.22 227.85 215.43 229.59 214.35 231.41 C 214.29 235.64 212.40 236.23 211.61 240.03 C 214.44 243.35 207.75 246.34 210.17 249.79 C 211.51 251.27 209.26 251.55 208.31 252.18 C 206.27 246.98 204.08 255.75 200.55 253.73 C 199.84 250.91 196.48 248.55 195.74 252.63 C 190.55 251.01 191.24 261.09 186.54 256.71 C 181.91 260.18 179.50 252.83 178.93 249.56 C 178.06 249.62 174.16 252.87 174.02 250.05 C 173.04 246.49 180.49 249.04 178.71 245.17 C 177.33 241.55 178.45 236.33 174.28 234.60 C 175.05 227.88 180.49 233.35 183.02 236.04 C 184.04 233.48 178.49 225.14 187.16 228.75 C 186.83 228.25 186.16 227.27 185.83 226.77 M 206.29 233.27 C 199.56 235.68 202.94 241.88 207.02 243.03 C 212.50 243.75 210.55 231.43 206.29 233.27 Z" />
</g>
<g id="#13131585">
<path fill="#131315" opacity="0.52" d=" M 289.76 224.77 C 293.89 223.35 299.70 223.17 303.09 224.94 L 302.17 224.97 C 298.03 224.92 293.89 224.85 289.76 224.77 Z" />
</g>
<g id="#00000021">
<path fill="#000000" opacity="0.13" d=" M 0.00 225.00 C 16.84 229.58 34.85 227.20 51.18 233.64 C 61.75 234.57 69.92 243.20 80.61 243.45 C 83.39 244.85 83.01 250.06 87.11 248.89 C 93.36 247.62 98.06 251.32 103.43 253.48 C 114.82 253.09 126.52 252.88 137.81 255.20 C 140.56 256.57 142.82 259.25 146.19 258.93 C 154.72 261.54 161.26 268.64 170.59 269.32 C 172.92 271.58 175.90 272.89 178.82 274.22 C 184.39 280.01 193.32 279.27 198.90 285.08 L 199.09 285.99 C 188.13 281.30 176.06 279.42 165.52 273.56 C 159.71 275.60 154.02 272.66 148.14 274.05 C 138.60 277.29 131.36 265.68 121.86 269.89 C 116.17 275.35 107.96 267.87 101.95 271.63 C 92.36 268.91 82.20 273.44 72.65 268.35 C 70.66 265.19 65.08 273.08 66.60 268.07 C 61.37 270.10 57.43 263.64 52.91 267.73 C 48.63 266.43 42.84 260.36 38.89 264.94 C 33.89 269.50 35.06 254.20 28.06 258.93 C 24.77 258.91 26.53 253.07 22.13 253.55 C 25.44 250.46 21.04 246.57 20.62 251.96 C 16.44 250.80 8.20 250.43 13.08 244.90 C 10.05 247.33 7.68 246.65 5.85 243.34 C 3.83 245.02 1.76 244.92 0.00 242.90 L 0.00 225.00 Z" />
</g>
<g id="#373b43fc">
<path fill="#373b43" opacity="1.00" d=" M 285.29 226.33 C 286.80 225.89 288.26 225.29 289.76 224.77 C 293.89 224.85 298.03 224.92 302.17 224.97 C 299.73 230.40 295.41 226.84 291.06 228.16 C 289.43 232.81 294.76 234.10 298.23 234.46 C 293.48 237.79 285.39 234.08 282.40 239.28 C 277.73 235.70 286.49 235.57 287.03 232.94 C 288.94 227.03 275.70 228.38 278.54 233.34 C 278.63 238.27 271.69 233.74 269.15 236.10 C 262.81 238.67 268.79 245.61 269.34 250.19 C 268.80 253.44 268.29 256.73 267.56 259.96 C 260.57 266.29 272.84 273.40 276.50 265.97 C 277.17 260.54 284.00 261.07 287.98 259.98 C 290.21 259.55 295.05 255.99 294.04 260.47 C 291.66 260.49 288.94 260.42 287.11 262.20 C 286.88 264.40 289.06 267.36 286.76 268.89 C 283.55 269.87 283.30 265.79 281.80 263.98 C 279.16 264.71 280.63 267.16 281.05 269.00 C 285.42 275.71 275.98 275.95 277.56 280.95 L 277.07 281.37 C 274.96 279.63 273.24 277.03 270.29 276.75 C 267.53 276.03 264.82 275.37 262.08 274.70 C 260.62 273.70 258.79 273.46 257.13 274.07 C 256.64 272.56 256.09 271.07 255.57 269.58 C 260.67 268.37 261.65 265.18 263.88 261.09 C 260.15 261.00 260.05 256.93 259.09 254.20 C 265.04 250.71 259.80 243.38 254.80 242.08 C 258.85 236.31 266.54 231.69 273.73 232.80 C 274.95 230.94 275.85 228.89 277.03 227.01 C 279.77 226.87 282.63 227.23 285.29 226.33 M 264.22 269.14 C 262.46 270.21 261.93 275.18 265.01 274.03 C 269.55 274.59 268.99 266.40 264.22 269.14 Z" />
</g>
<g id="#5d5f66f8">
<path fill="#5d5f66" opacity="0.97" d=" M 302.17 224.97 L 303.09 224.94 C 306.35 229.58 302.25 233.11 298.23 234.46 C 294.76 234.10 289.43 232.81 291.06 228.16 C 295.41 226.84 299.73 230.40 302.17 224.97 Z" />
</g>
<g id="#12121698">
<path fill="#121216" opacity="0.60" d=" M 274.05 225.95 C 277.80 225.86 281.52 226.20 285.29 226.33 C 282.63 227.23 279.77 226.87 277.03 227.01 C 276.25 226.98 274.68 226.92 273.90 226.90 L 274.05 225.95 Z" />
</g>
<g id="#27282ff2">
<path fill="#27282f" opacity="0.95" d=" M 253.86 237.91 C 259.53 232.53 266.12 228.53 273.90 226.90 C 274.68 226.92 276.25 226.98 277.03 227.01 C 275.85 228.89 274.95 230.94 273.73 232.80 C 266.54 231.69 258.85 236.31 254.80 242.08 C 251.69 242.37 248.71 243.34 245.81 244.44 C 242.58 245.61 239.51 247.17 236.21 248.13 C 236.18 246.40 237.77 243.66 234.98 243.52 C 241.35 241.94 248.74 242.75 253.86 237.91 Z" />
</g>
<g id="#5e6656ff">
<path fill="#5e6656" opacity="1.00" d=" M 149.16 228.11 C 153.61 230.75 158.22 233.17 162.58 235.96 L 162.02 236.47 C 160.08 239.36 155.03 243.05 157.97 246.75 C 159.82 245.87 161.71 245.03 163.78 244.86 C 166.64 245.61 170.22 249.22 165.21 249.46 C 160.56 249.78 163.78 256.04 163.15 259.16 C 157.45 261.04 151.68 255.82 146.93 253.03 C 139.61 246.43 142.62 234.25 149.16 228.11 M 160.16 248.16 C 159.16 252.80 164.80 247.16 160.16 248.16 Z" />
</g>
<g id="#575a64fd">
<path fill="#575a64" opacity="1.00" d=" M 278.54 233.34 C 275.70 228.38 288.94 227.03 287.03 232.94 C 286.49 235.57 277.73 235.70 282.40 239.28 C 282.90 239.66 283.88 240.42 284.38 240.79 C 285.74 244.07 281.05 244.65 279.20 246.33 C 282.04 247.97 283.69 252.64 278.85 252.46 C 280.89 253.79 283.02 255.22 285.43 255.72 C 286.25 253.66 290.28 251.76 287.56 249.61 C 285.78 249.34 283.77 247.21 286.31 246.27 C 292.70 245.95 299.13 245.80 305.43 244.59 C 310.85 240.65 309.81 245.80 310.43 248.23 C 309.63 250.38 307.72 251.82 306.03 253.25 C 302.52 250.64 298.60 252.78 294.99 253.88 C 294.71 251.93 294.49 249.94 293.79 248.09 C 288.83 246.42 288.22 255.07 293.04 255.07 C 296.32 255.47 299.74 254.89 302.99 255.74 C 302.95 257.39 303.01 259.06 302.75 260.70 C 297.52 261.97 297.67 268.33 292.55 270.16 C 294.19 274.30 289.99 275.57 287.05 277.11 C 287.84 274.99 289.26 273.19 290.13 271.12 C 287.25 269.85 284.06 269.77 281.05 269.00 C 280.63 267.16 279.16 264.71 281.80 263.98 C 283.30 265.79 283.55 269.87 286.76 268.89 C 289.06 267.36 286.88 264.40 287.11 262.20 C 288.94 260.42 291.66 260.49 294.04 260.47 C 295.05 255.99 290.21 259.55 287.98 259.98 C 284.00 261.07 277.17 260.54 276.50 265.97 C 272.84 273.40 260.57 266.29 267.56 259.96 C 272.55 262.45 276.41 251.84 272.70 248.33 C 271.30 245.73 270.35 248.98 269.34 250.19 C 268.79 245.61 262.81 238.67 269.15 236.10 C 271.69 233.74 278.63 238.27 278.54 233.34 Z" />
</g>
<g id="#494f59ff">
<path fill="#494f59" opacity="1.00" d=" M 165.23 233.10 C 168.96 232.54 169.53 237.23 171.86 239.24 C 174.00 242.78 166.52 241.47 170.33 243.81 C 175.76 244.62 176.56 238.30 174.28 234.60 C 178.45 236.33 177.33 241.55 178.71 245.17 C 180.49 249.04 173.04 246.49 174.02 250.05 C 174.16 252.87 178.06 249.62 178.93 249.56 C 179.50 252.83 181.91 260.18 186.54 256.71 C 191.24 261.09 190.55 251.01 195.74 252.63 C 200.84 251.85 197.20 256.87 199.56 259.31 C 202.97 263.31 205.19 270.34 211.23 270.34 C 207.57 272.71 206.20 276.53 205.62 280.68 C 201.19 284.83 198.01 276.42 193.20 278.75 C 194.83 275.47 192.33 272.45 188.76 272.86 L 189.22 272.38 C 191.30 270.02 195.25 267.20 193.44 263.63 C 192.52 259.62 186.94 262.29 184.67 263.85 C 183.18 263.89 181.69 263.89 180.21 263.89 C 180.78 256.34 172.68 265.48 171.07 259.97 C 170.21 255.26 166.20 259.24 163.15 259.16 C 163.78 256.04 160.56 249.78 165.21 249.46 C 170.22 249.22 166.64 245.61 163.78 244.86 C 164.98 241.94 164.48 238.59 162.02 236.47 L 162.58 235.96 C 163.60 235.15 164.40 234.10 165.23 233.10 Z" />
</g>
<g id="#9fa49fff">
<path fill="#9fa49f" opacity="1.00" d=" M 206.29 233.27 C 210.55 231.43 212.50 243.75 207.02 243.03 C 202.94 241.88 199.56 235.68 206.29 233.27 M 207.29 235.20 C 201.24 237.32 210.08 239.21 207.29 235.20 Z" />
</g>
<g id="#e4e8eaff">
<path fill="#e4e8ea" opacity="1.00" d=" M 207.29 235.20 C 210.08 239.21 201.24 237.32 207.29 235.20 Z" />
</g>
<g id="#79816dff">
<path fill="#79816d" opacity="1.00" d=" M 157.97 246.75 C 155.03 243.05 160.08 239.36 162.02 236.47 C 164.48 238.59 164.98 241.94 163.78 244.86 C 161.71 245.03 159.82 245.87 157.97 246.75 Z" />
</g>
<g id="#595c64fe">
<path fill="#595c64" opacity="1.00" d=" M 219.39 240.94 C 220.29 243.00 221.08 245.11 221.93 247.20 C 222.79 251.08 222.96 255.04 220.08 258.15 C 224.77 253.69 226.79 258.88 228.18 263.11 C 229.94 261.72 234.46 255.71 229.59 257.55 C 225.99 258.73 229.80 255.35 230.64 254.12 C 233.81 256.09 237.70 256.53 240.61 259.07 C 239.35 261.43 239.55 263.94 240.75 266.28 C 236.10 260.74 225.63 264.55 226.24 272.05 C 227.32 277.22 234.22 272.48 237.32 272.52 C 238.89 267.33 244.69 273.05 248.05 270.33 C 249.71 271.70 248.65 273.71 247.68 275.13 C 245.89 273.47 244.72 276.11 243.38 277.04 C 242.75 274.84 241.43 273.51 239.15 274.52 C 235.32 272.46 231.40 275.28 231.89 279.21 C 231.57 276.18 229.61 275.52 227.20 277.20 C 227.13 279.71 227.87 282.15 228.79 284.47 L 229.06 285.25 C 228.59 285.32 227.65 285.47 227.18 285.54 C 223.54 284.91 223.88 281.93 224.52 279.08 C 220.13 278.75 211.41 278.79 212.96 271.95 C 215.66 271.63 218.47 271.57 220.82 270.01 C 219.97 273.33 220.75 276.21 223.85 277.03 C 224.70 272.34 225.72 267.67 226.00 262.91 C 220.99 263.97 217.54 268.06 212.93 270.08 C 212.51 270.15 211.66 270.28 211.23 270.34 C 205.19 270.34 202.97 263.31 199.56 259.31 C 197.20 256.87 200.84 251.85 195.74 252.63 C 196.48 248.55 199.84 250.91 200.55 253.73 C 204.08 255.75 206.27 246.98 208.31 252.18 C 206.22 254.64 207.91 257.46 210.09 259.15 C 212.47 258.71 214.81 256.73 217.04 258.75 C 214.36 254.70 220.80 255.25 218.47 251.47 C 216.30 247.84 215.27 243.58 219.39 240.94 M 212.00 259.95 C 211.95 262.11 211.89 266.40 214.98 266.04 C 215.17 263.67 215.60 259.45 212.00 259.95 Z" />
</g>
<g id="#31333bf8">
<path fill="#31333b" opacity="0.97" d=" M 284.38 240.79 C 286.42 241.79 288.48 242.87 290.76 243.24 C 294.24 244.33 297.64 244.23 300.95 242.95 C 301.45 242.62 302.45 241.96 302.94 241.63 C 304.91 242.44 307.14 242.50 309.09 241.57 C 311.52 243.05 310.90 245.71 310.43 248.23 C 309.81 245.80 310.85 240.65 305.43 244.59 C 299.13 245.80 292.70 245.95 286.31 246.27 C 283.77 247.21 285.78 249.34 287.56 249.61 C 290.28 251.76 286.25 253.66 285.43 255.72 C 283.02 255.22 280.89 253.79 278.85 252.46 C 283.69 252.64 282.04 247.97 279.20 246.33 C 281.05 244.65 285.74 244.07 284.38 240.79 Z" />
</g>
<g id="#10101197">
<path fill="#101011" opacity="0.59" d=" M 302.94 241.63 C 304.80 240.02 306.85 240.00 309.09 241.57 C 307.14 242.50 304.91 242.44 302.94 241.63 Z" />
</g>
<g id="#555960ff">
<path fill="#555960" opacity="1.00" d=" M 245.81 244.44 C 248.71 243.34 251.69 242.37 254.80 242.08 C 259.80 243.38 265.04 250.71 259.09 254.20 C 251.37 256.70 253.57 242.37 248.40 248.30 C 249.12 246.27 247.05 245.53 245.81 244.44 Z" />
</g>
<g id="#00000018">
<path fill="#000000" opacity="0.09" d=" M 0.00 242.90 C 1.76 244.92 3.83 245.02 5.85 243.34 C 7.68 246.65 10.05 247.33 13.08 244.90 C 8.20 250.43 16.44 250.80 20.62 251.96 C 21.04 246.57 25.44 250.46 22.13 253.55 C 26.53 253.07 24.77 258.91 28.06 258.93 C 35.06 254.20 33.89 269.50 38.89 264.94 C 42.84 260.36 48.63 266.43 52.91 267.73 C 57.43 263.64 61.37 270.10 66.60 268.07 C 65.08 273.08 70.66 265.19 72.65 268.35 C 82.20 273.44 92.36 268.91 101.95 271.63 C 107.96 267.87 116.17 275.35 121.86 269.89 C 131.36 265.68 138.60 277.29 148.14 274.05 C 154.02 272.66 159.71 275.60 165.52 273.56 C 176.06 279.42 188.13 281.30 199.09 285.99 C 203.08 286.03 207.08 286.01 211.08 285.93 C 212.93 286.95 214.48 288.80 216.71 288.94 C 219.55 289.36 223.10 289.21 224.33 286.08 C 225.28 285.90 226.23 285.72 227.18 285.54 C 227.65 285.47 228.59 285.32 229.06 285.25 C 236.18 284.13 241.77 279.13 249.25 279.32 C 252.08 278.22 254.50 276.31 257.10 274.76 C 258.71 275.36 260.45 275.16 262.08 274.70 C 264.82 275.37 267.53 276.03 270.29 276.75 C 264.00 278.04 256.97 277.38 251.86 281.84 C 238.52 282.63 228.81 293.55 215.17 293.24 C 212.28 295.89 209.41 295.83 206.06 294.00 C 202.92 295.40 200.59 298.97 197.09 296.03 C 190.56 303.11 181.21 292.65 174.07 298.11 C 168.28 302.27 158.89 295.59 154.87 303.05 C 151.73 298.84 148.01 300.56 146.24 305.21 C 148.91 300.08 142.99 298.57 139.60 301.47 C 138.06 306.67 131.12 301.27 127.17 301.99 C 127.15 303.64 127.66 305.36 127.07 306.97 C 124.56 305.35 121.60 302.10 118.53 304.44 C 109.22 304.02 99.88 303.08 89.91 305.02 C 91.66 302.80 92.87 299.90 89.85 298.10 C 86.78 299.94 79.03 305.79 80.61 297.34 C 77.82 294.19 74.19 299.79 71.46 296.68 C 68.67 296.12 62.48 303.41 64.67 296.77 C 56.96 301.02 49.40 292.65 42.42 291.47 C 38.70 295.19 33.23 292.93 28.65 295.03 C 27.97 285.64 14.18 294.28 9.55 287.43 C 6.97 282.46 2.90 289.18 0.00 284.90 L 0.00 242.90 Z" />
</g>
<g id="#1111149a">
<path fill="#111114" opacity="0.60" d=" M 290.76 243.24 C 294.16 243.13 297.53 243.04 300.95 242.95 C 297.64 244.23 294.24 244.33 290.76 243.24 Z" />
</g>
<g id="#2d2f35fb">
<path fill="#2d2f35" opacity="1.00" d=" M 221.93 247.20 C 226.74 247.58 230.19 243.44 234.98 243.52 C 234.34 247.33 232.87 250.96 230.64 254.12 C 229.80 255.35 225.99 258.73 229.59 257.55 C 234.46 255.71 229.94 261.72 228.18 263.11 C 226.79 258.88 224.77 253.69 220.08 258.15 C 222.96 255.04 222.79 251.08 221.93 247.20 Z" />
</g>
<g id="#3c414aff">
<path fill="#3c414a" opacity="1.00" d=" M 234.98 243.52 C 237.77 243.66 236.18 246.40 236.21 248.13 C 239.51 247.17 242.58 245.61 245.81 244.44 C 247.05 245.53 249.12 246.27 248.40 248.30 C 248.25 248.92 247.96 250.15 247.82 250.77 C 246.31 251.13 244.17 250.72 243.69 252.64 C 242.38 254.64 241.47 256.85 240.61 259.07 C 237.70 256.53 233.81 256.09 230.64 254.12 C 232.87 250.96 234.34 247.33 234.98 243.52 Z" />
</g>
<g id="#727677ff">
<path fill="#727677" opacity="1.00" d=" M 248.40 248.30 C 253.57 242.37 251.37 256.70 259.09 254.20 C 260.05 256.93 260.15 261.00 263.88 261.09 C 261.65 265.18 260.67 268.37 255.57 269.58 C 254.75 270.02 253.95 270.49 253.15 270.97 C 251.71 271.68 250.78 273.00 249.95 274.32 C 248.96 275.22 247.94 276.08 246.91 276.92 C 247.10 276.47 247.49 275.58 247.68 275.13 C 248.65 273.71 249.71 271.70 248.05 270.33 C 244.69 273.05 238.89 267.33 237.32 272.52 C 234.22 272.48 227.32 277.22 226.24 272.05 C 225.63 264.55 236.10 260.74 240.75 266.28 C 239.55 263.94 239.35 261.43 240.61 259.07 C 241.47 256.85 242.38 254.64 243.69 252.64 C 244.46 255.94 239.29 261.45 244.21 262.66 C 249.55 261.78 252.58 254.37 247.82 250.77 C 247.96 250.15 248.25 248.92 248.40 248.30 Z" />
</g>
<g id="#8e9196ff">
<path fill="#8e9196" opacity="1.00" d=" M 269.34 250.19 C 270.35 248.98 271.30 245.73 272.70 248.33 C 276.41 251.84 272.55 262.45 267.56 259.96 C 268.29 256.73 268.80 253.44 269.34 250.19 Z" />
</g>
<g id="#bbc2a2ff">
<path fill="#bbc2a2" opacity="1.00" d=" M 160.16 248.16 C 164.80 247.16 159.16 252.80 160.16 248.16 Z" />
</g>
<g id="#777f84ff">
<path fill="#777f84" opacity="1.00" d=" M 293.04 255.07 C 288.22 255.07 288.83 246.42 293.79 248.09 C 294.49 249.94 294.71 251.93 294.99 253.88 C 294.50 254.18 293.53 254.77 293.04 255.07 Z" />
</g>
<g id="#878b97ff">
<path fill="#878b97" opacity="1.00" d=" M 243.69 252.64 C 244.17 250.72 246.31 251.13 247.82 250.77 C 252.58 254.37 249.55 261.78 244.21 262.66 C 239.29 261.45 244.46 255.94 243.69 252.64 Z" />
</g>
<g id="#36373ef7">
<path fill="#36373e" opacity="0.97" d=" M 294.99 253.88 C 298.60 252.78 302.52 250.64 306.03 253.25 C 305.02 254.08 303.99 254.89 302.99 255.74 C 299.74 254.89 296.32 255.47 293.04 255.07 C 293.53 254.77 294.50 254.18 294.99 253.88 Z" />
</g>
<g id="#2c2e35ff">
<path fill="#2c2e35" opacity="1.00" d=" M 212.00 259.95 C 215.60 259.45 215.17 263.67 214.98 266.04 C 211.89 266.40 211.95 262.11 212.00 259.95 Z" />
</g>
<g id="#00000011">
<path fill="#000000" opacity="0.07" d=" M 292.55 270.16 C 297.67 268.33 297.52 261.97 302.75 260.70 C 297.24 273.54 287.21 284.82 273.27 288.65 C 269.39 289.72 271.13 295.62 267.73 297.70 C 259.34 295.29 253.24 302.71 246.65 306.51 C 243.13 306.58 239.37 305.78 236.64 308.62 C 230.03 306.43 225.77 316.09 218.98 311.24 C 216.34 314.80 211.71 312.03 209.25 315.27 C 206.50 319.16 202.39 310.87 199.00 315.08 C 199.43 317.75 201.78 318.16 204.10 318.34 C 201.16 323.90 195.75 316.34 191.44 318.52 C 187.85 321.91 182.39 319.47 178.66 323.27 C 173.94 319.17 168.46 328.32 165.07 322.84 C 161.09 318.87 160.16 331.40 157.42 327.57 C 154.49 323.29 151.17 331.63 148.39 325.90 C 148.10 333.26 139.64 339.42 133.00 335.00 C 129.95 336.54 126.76 337.03 123.33 336.48 C 122.11 343.23 113.38 331.00 111.47 338.88 C 108.58 336.24 107.92 330.21 102.58 331.86 C 102.74 334.00 102.53 336.45 100.60 337.80 C 98.22 334.47 92.21 331.19 89.59 335.63 C 86.04 340.15 85.24 330.15 82.38 330.50 C 79.01 333.61 74.84 333.68 72.73 329.25 C 68.01 323.47 64.87 334.69 60.44 330.65 C 56.99 327.42 51.25 337.16 51.07 329.98 C 54.79 321.48 46.68 326.86 44.22 326.08 C 45.82 332.80 40.79 324.88 38.74 323.16 C 34.70 324.59 27.84 327.07 26.47 321.21 C 22.17 321.89 18.03 323.38 14.01 324.99 C 9.58 322.74 4.70 324.00 0.00 323.10 L 0.00 284.90 C 2.90 289.18 6.97 282.46 9.55 287.43 C 14.18 294.28 27.97 285.64 28.65 295.03 C 33.23 292.93 38.70 295.19 42.42 291.47 C 49.40 292.65 56.96 301.02 64.67 296.77 C 62.48 303.41 68.67 296.12 71.46 296.68 C 74.19 299.79 77.82 294.19 80.61 297.34 C 79.03 305.79 86.78 299.94 89.85 298.10 C 92.87 299.90 91.66 302.80 89.91 305.02 C 99.88 303.08 109.22 304.02 118.53 304.44 C 121.60 302.10 124.56 305.35 127.07 306.97 C 127.66 305.36 127.15 303.64 127.17 301.99 C 131.12 301.27 138.06 306.67 139.60 301.47 C 142.99 298.57 148.91 300.08 146.24 305.21 C 148.01 300.56 151.73 298.84 154.87 303.05 C 158.89 295.59 168.28 302.27 174.07 298.11 C 181.21 292.65 190.56 303.11 197.09 296.03 C 200.59 298.97 202.92 295.40 206.06 294.00 C 209.41 295.83 212.28 295.89 215.17 293.24 C 228.81 293.55 238.52 282.63 251.86 281.84 C 256.97 277.38 264.00 278.04 270.29 276.75 C 273.24 277.03 274.96 279.63 277.07 281.37 C 278.73 283.08 282.29 282.97 284.01 281.31 C 285.48 280.29 286.42 278.76 287.05 277.11 C 289.99 275.57 294.19 274.30 292.55 270.16 Z" />
</g>
<g id="#8f919cff">
<path fill="#8f919c" opacity="1.00" d=" M 184.67 263.85 C 186.94 262.29 192.52 259.62 193.44 263.63 C 195.25 267.20 191.30 270.02 189.22 272.38 C 186.00 271.01 186.40 266.55 184.67 263.85 Z" />
</g>
<g id="#6d717bff">
<path fill="#6d717b" opacity="1.00" d=" M 212.93 270.08 C 217.54 268.06 220.99 263.97 226.00 262.91 C 225.72 267.67 224.70 272.34 223.85 277.03 C 220.75 276.21 219.97 273.33 220.82 270.01 C 218.47 271.57 215.66 271.63 212.96 271.95 C 212.95 271.48 212.94 270.55 212.93 270.08 Z" />
</g>
<g id="#5a6345fc">
<path fill="#5a6345" opacity="1.00" d=" M 170.59 269.32 C 169.13 264.58 177.15 265.67 180.21 263.89 C 181.69 263.89 183.18 263.89 184.67 263.85 C 186.40 266.55 186.00 271.01 189.22 272.38 L 188.76 272.86 C 185.45 273.32 182.13 273.80 178.82 274.22 C 175.90 272.89 172.92 271.58 170.59 269.32 Z" />
</g>
<g id="#6e7666ff">
<path fill="#6e7666" opacity="1.00" d=" M 264.22 269.14 C 268.99 266.40 269.55 274.59 265.01 274.03 C 261.93 275.18 262.46 270.21 264.22 269.14 Z" />
</g>
<g id="#707a80fc">
<path fill="#707a80" opacity="1.00" d=" M 281.05 269.00 C 284.06 269.77 287.25 269.85 290.13 271.12 C 289.26 273.19 287.84 274.99 287.05 277.11 C 286.42 278.76 285.48 280.29 284.01 281.31 C 281.89 280.87 279.71 280.75 277.56 280.95 C 275.98 275.95 285.42 275.71 281.05 269.00 Z" />
</g>
<g id="#34373dfa">
<path fill="#34373d" opacity="0.98" d=" M 211.23 270.34 C 211.66 270.28 212.51 270.15 212.93 270.08 C 212.94 270.55 212.95 271.48 212.96 271.95 C 211.41 278.79 220.13 278.75 224.52 279.08 C 223.88 281.93 223.54 284.91 227.18 285.54 C 226.23 285.72 225.28 285.90 224.33 286.08 C 221.81 286.75 217.71 285.89 216.71 288.94 C 214.48 288.80 212.93 286.95 211.08 285.93 C 207.26 284.49 202.93 285.27 198.90 285.08 C 193.32 279.27 184.39 280.01 178.82 274.22 C 182.13 273.80 185.45 273.32 188.76 272.86 C 192.33 272.45 194.83 275.47 193.20 278.75 C 198.01 276.42 201.19 284.83 205.62 280.68 C 206.20 276.53 207.57 272.71 211.23 270.34 Z" />
</g>
<g id="#737c3ff9">
<path fill="#737c3f" opacity="0.98" d=" M 253.15 270.97 C 253.95 270.49 254.75 270.02 255.57 269.58 C 256.09 271.07 256.64 272.56 257.13 274.07 L 257.10 274.76 C 254.50 276.31 252.08 278.22 249.25 279.32 C 246.55 279.25 243.44 279.14 246.91 276.92 C 247.94 276.08 248.96 275.22 249.95 274.32 C 252.61 274.78 254.96 273.89 253.15 270.97 Z" />
</g>
<g id="#e4e8daff">
<path fill="#e4e8da" opacity="1.00" d=" M 249.95 274.32 C 250.78 273.00 251.71 271.68 253.15 270.97 C 254.96 273.89 252.61 274.78 249.95 274.32 Z" />
</g>
<g id="#42444bf2">
<path fill="#42444b" opacity="0.95" d=" M 231.89 279.21 C 231.40 275.28 235.32 272.46 239.15 274.52 C 238.32 276.26 237.48 278.01 236.83 279.83 C 239.14 279.26 241.82 279.10 243.38 277.04 C 244.72 276.11 245.89 273.47 247.68 275.13 C 247.49 275.58 247.10 276.47 246.91 276.92 C 243.44 279.14 246.55 279.25 249.25 279.32 C 241.77 279.13 236.18 284.13 229.06 285.25 L 228.79 284.47 C 230.43 283.08 232.34 281.63 231.89 279.21 Z" />
</g>
<g id="#828491ff">
<path fill="#828491" opacity="1.00" d=" M 239.15 274.52 C 241.43 273.51 242.75 274.84 243.38 277.04 C 241.82 279.10 239.14 279.26 236.83 279.83 C 237.48 278.01 238.32 276.26 239.15 274.52 Z" />
</g>
<g id="#15171791">
<path fill="#151717" opacity="0.57" d=" M 257.13 274.07 C 258.79 273.46 260.62 273.70 262.08 274.70 C 260.45 275.16 258.71 275.36 257.10 274.76 L 257.13 274.07 Z" />
</g>
<g id="#7d8086ff">
<path fill="#7d8086" opacity="1.00" d=" M 227.20 277.20 C 229.61 275.52 231.57 276.18 231.89 279.21 C 232.34 281.63 230.43 283.08 228.79 284.47 C 227.87 282.15 227.13 279.71 227.20 277.20 Z" />
</g>
<g id="#21252883">
<path fill="#212528" opacity="0.51" d=" M 277.07 281.37 L 277.56 280.95 C 279.71 280.75 281.89 280.87 284.01 281.31 C 282.29 282.97 278.73 283.08 277.07 281.37 Z" />
</g>
<g id="#171a1f94">
<path fill="#171a1f" opacity="0.58" d=" M 198.90 285.08 C 202.93 285.27 207.26 284.49 211.08 285.93 C 207.08 286.01 203.08 286.03 199.09 285.99 L 198.90 285.08 Z" />
</g>
<g id="#717577ee">
<path fill="#717577" opacity="0.93" d=" M 216.71 288.94 C 217.71 285.89 221.81 286.75 224.33 286.08 C 223.10 289.21 219.55 289.36 216.71 288.94 Z" />
</g>
</svg>
