<?xml version="1.0" encoding="UTF-8" ?>
<!DOCTYPE svg PUBLIC "-//W3C//DTD SVG 1.1//EN" "http://www.w3.org/Graphics/SVG/1.1/DTD/svg11.dtd">
<svg width="384pt" height="384pt" viewBox="0 0 384 384" version="1.1" xmlns="http://www.w3.org/2000/svg">
<g id="#0000000f">
<path fill="#000000" opacity="0.06" d=" M 5.09 22.84 C 7.45 27.37 10.08 20.24 13.87 20.81 C 9.24 25.40 16.16 29.39 20.54 28.33 C 22.41 26.83 23.89 24.19 26.68 24.98 C 25.13 28.80 29.23 30.32 31.82 27.80 C 35.38 24.23 39.30 28.59 42.19 30.90 C 46.27 28.38 50.22 31.07 54.57 30.19 C 55.54 37.61 61.38 26.18 64.37 31.59 C 66.90 36.21 71.19 32.00 74.43 30.48 C 77.05 28.71 77.79 34.35 80.78 32.97 C 82.75 33.23 81.35 28.77 83.70 30.47 C 88.48 33.14 93.98 33.26 98.82 35.64 C 102.05 35.74 105.58 31.82 108.72 34.21 C 109.64 36.14 109.87 39.12 112.43 36.88 C 116.22 37.60 121.69 38.25 122.42 42.87 C 128.22 38.44 133.87 52.86 140.04 47.15 C 141.01 50.90 142.07 54.99 147.58 53.47 C 151.35 57.92 154.68 66.73 162.08 64.40 C 167.94 69.38 176.08 75.76 184.63 74.10 C 183.23 84.25 197.79 83.03 201.52 90.02 C 201.00 92.74 200.89 95.82 203.21 97.79 C 210.99 101.98 220.63 106.68 223.16 115.85 C 226.55 118.06 231.11 118.19 235.10 118.37 C 243.88 117.49 241.24 132.16 250.34 130.79 C 254.89 134.01 260.23 137.31 261.90 142.99 C 262.99 148.59 271.01 145.73 273.32 150.54 C 274.83 156.38 283.36 156.58 283.54 163.20 C 283.01 170.44 291.12 171.13 295.65 174.36 C 295.34 178.35 293.39 183.95 297.70 186.33 C 303.84 191.31 299.26 200.07 297.87 206.11 C 295.04 215.09 307.58 221.95 303.13 230.66 C 306.81 230.67 310.39 233.61 308.73 237.16 C 312.63 241.74 309.93 248.10 313.84 252.92 C 308.60 250.69 305.90 262.17 310.96 264.00 C 307.64 267.04 304.52 270.37 301.97 274.08 C 301.46 276.65 304.84 277.64 304.73 280.21 C 305.78 278.77 306.65 277.22 307.79 275.86 C 311.04 280.56 303.76 281.62 301.29 284.28 C 300.26 286.89 297.59 287.60 295.18 288.44 C 294.16 291.15 297.31 291.44 299.03 292.43 C 296.94 295.45 293.33 294.64 290.26 294.17 C 288.56 296.28 287.33 298.78 287.40 301.55 C 282.36 303.61 283.51 310.39 277.00 311.17 C 278.35 307.12 279.58 302.84 283.02 300.02 C 277.07 297.66 274.33 306.94 270.49 310.38 C 267.12 311.19 264.05 313.05 265.75 317.61 C 261.70 317.94 257.86 317.31 254.12 315.95 C 249.94 319.22 245.59 324.03 247.86 329.94 C 243.42 331.37 244.22 328.11 244.98 325.00 C 239.22 322.46 236.18 327.02 239.92 330.55 C 234.91 331.09 231.16 335.14 226.33 336.03 C 225.67 334.86 226.60 332.13 224.87 332.03 C 221.89 330.94 225.05 335.11 222.75 335.88 C 217.82 336.63 215.09 330.45 210.39 329.88 C 212.19 339.15 204.49 333.75 200.35 336.87 C 201.07 330.48 186.88 335.14 194.57 338.44 C 192.06 342.43 191.95 350.51 184.81 347.98 C 184.61 345.64 187.21 345.37 188.76 344.47 C 189.40 341.59 185.35 340.22 185.61 337.11 C 183.02 338.13 180.83 340.15 180.04 342.88 C 181.44 344.31 183.23 345.58 183.23 347.80 C 179.60 347.35 175.99 345.22 172.47 345.51 C 167.66 349.43 165.28 339.56 160.05 340.93 C 155.59 346.64 171.30 347.77 164.86 351.88 C 160.74 355.62 162.90 347.14 159.17 347.21 C 155.64 348.45 159.49 353.33 155.97 353.94 C 152.48 355.30 155.53 349.03 152.13 350.01 C 154.91 358.45 143.40 359.64 138.73 355.30 C 135.69 355.30 139.39 349.22 136.50 351.56 C 132.18 354.48 133.41 359.80 133.75 364.20 C 131.43 363.10 131.15 360.10 129.62 358.22 C 124.85 356.56 123.27 362.09 119.42 362.96 C 119.41 357.10 114.18 359.36 111.02 356.25 C 107.98 357.55 104.99 357.97 102.15 356.00 C 100.98 359.19 94.83 360.35 96.57 355.63 C 99.03 349.95 91.50 357.90 91.87 353.01 C 90.18 349.37 88.11 356.73 85.67 354.42 C 82.21 348.99 75.46 347.18 69.99 344.20 C 66.01 348.86 81.62 352.98 75.19 354.85 C 72.38 349.37 63.19 353.34 63.62 346.15 C 59.84 345.50 55.59 345.48 54.78 349.96 C 50.30 348.21 43.21 344.75 39.97 349.91 C 34.08 344.69 26.82 344.93 20.24 342.23 C 15.70 340.15 15.88 349.07 11.70 346.36 C 8.19 343.43 3.68 342.28 0.00 339.62 L 0.00 295.61 C 2.86 296.63 7.50 304.62 7.13 297.88 C 8.85 295.20 13.36 303.68 16.10 299.25 C 18.66 301.07 19.53 300.95 18.28 297.71 C 24.39 299.00 31.71 309.65 35.22 300.26 C 40.51 303.36 46.17 307.35 52.48 305.76 C 56.75 309.82 55.43 302.04 59.73 304.16 C 62.08 305.45 58.95 308.54 61.24 309.92 C 64.76 310.29 67.66 308.15 69.34 305.23 C 71.52 305.79 73.60 306.69 75.73 307.43 C 74.37 310.49 76.76 318.04 79.73 312.86 C 80.39 306.65 86.79 309.94 88.46 313.72 C 94.21 312.86 102.74 318.51 106.77 312.99 C 106.34 319.43 111.21 311.35 114.18 313.84 C 118.16 317.56 122.60 309.05 125.75 314.25 C 128.96 318.77 131.13 311.70 135.00 312.40 C 138.85 311.41 145.37 313.93 147.72 309.49 C 149.93 308.82 154.23 310.98 154.50 307.32 C 161.08 308.99 166.28 302.30 172.59 302.61 C 175.80 303.61 181.93 308.25 183.42 303.22 C 184.03 299.59 190.22 300.72 192.02 302.98 C 198.70 303.17 206.91 302.69 213.49 298.64 C 217.62 303.39 219.94 296.31 224.68 297.56 C 232.61 298.43 238.93 287.02 246.63 290.42 C 251.73 288.43 256.65 286.06 261.48 283.50 C 266.57 283.12 276.20 288.52 278.10 281.03 C 278.82 278.04 282.24 276.94 283.02 274.09 C 283.31 273.21 283.61 272.32 283.90 271.44 C 286.57 270.31 288.83 268.30 289.39 265.35 C 291.02 264.79 292.66 264.20 294.16 263.32 C 295.73 262.56 294.61 260.25 295.00 258.86 C 296.73 258.01 298.53 257.27 300.11 256.13 C 302.39 254.05 303.58 251.01 303.06 247.92 C 303.10 246.46 302.06 245.48 301.08 244.56 C 298.84 243.00 296.80 243.03 294.96 244.65 C 294.48 245.00 293.53 245.70 293.06 246.04 C 291.27 246.12 287.68 246.28 285.89 246.35 C 283.57 245.67 281.33 244.74 279.13 243.75 L 278.49 243.02 C 279.54 241.93 280.65 240.89 281.69 239.78 C 284.51 239.73 287.54 240.48 290.17 239.14 C 291.54 238.57 292.89 237.96 294.22 237.32 C 297.85 236.24 301.34 231.26 297.19 228.53 C 292.22 227.63 287.07 227.59 282.28 229.25 C 278.12 229.51 273.76 228.50 269.71 229.71 C 268.17 230.13 266.68 230.70 265.17 231.19 C 260.94 229.24 256.91 230.52 253.34 233.11 C 254.77 229.04 251.40 227.69 249.32 225.60 C 248.00 218.28 254.26 212.31 252.40 205.14 C 254.55 200.96 246.15 200.21 249.96 196.08 C 254.23 195.13 258.03 192.38 260.95 188.88 C 265.49 185.40 272.83 181.68 269.43 174.62 C 261.29 164.20 246.22 164.45 234.23 163.75 C 233.96 161.06 234.18 158.32 233.27 155.75 C 231.06 148.83 228.15 141.93 221.86 137.73 C 223.32 135.09 227.32 135.78 229.27 133.44 C 230.12 130.75 226.22 127.14 224.07 125.05 C 221.55 123.87 220.58 121.50 220.10 118.81 C 219.46 116.85 218.13 115.23 217.06 113.49 C 215.82 111.24 214.67 108.91 213.12 106.85 C 211.81 105.16 210.15 103.72 208.15 102.93 C 205.48 101.99 202.58 102.34 199.80 102.11 C 193.02 101.17 191.36 92.83 184.97 90.56 C 183.45 90.45 180.40 90.23 178.88 90.12 C 176.53 89.27 174.27 88.17 172.13 86.88 C 171.66 86.56 170.73 85.91 170.26 85.59 C 166.27 82.14 160.65 86.31 156.19 83.75 C 148.81 80.12 140.79 77.52 133.85 73.19 C 130.33 69.01 124.12 70.08 119.96 67.06 C 116.28 61.86 109.87 61.09 103.58 60.50 C 92.86 60.23 82.19 58.49 72.00 55.32 C 67.50 62.09 59.70 55.24 54.38 58.31 C 49.03 63.90 42.73 55.31 36.98 57.93 C 34.53 58.58 27.57 63.95 28.63 58.86 C 24.15 60.14 20.09 65.61 15.30 62.75 C 12.17 60.41 11.02 69.96 9.81 65.24 C 8.37 59.97 3.45 67.49 0.00 67.48 L 0.00 25.28 C 0.96 23.48 3.03 20.47 5.09 22.84 Z" />
</g>
<g id="#00000019">
<path fill="#000000" opacity="0.10" d=" M 54.38 58.31 C 59.70 55.24 67.50 62.09 72.00 55.32 C 82.19 58.49 92.86 60.23 103.58 60.50 C 109.87 61.09 116.28 61.86 119.96 67.06 C 124.12 70.08 130.33 69.01 133.85 73.19 C 140.79 77.52 148.81 80.12 156.19 83.75 C 160.65 86.31 166.27 82.14 170.26 85.59 C 168.67 85.91 165.49 86.56 163.90 86.89 C 161.62 88.70 159.32 90.48 156.72 91.81 C 152.80 92.12 148.83 92.14 144.99 92.96 C 139.74 94.86 134.67 92.62 130.51 89.51 C 120.90 87.01 111.72 82.21 101.37 82.46 C 95.20 79.84 86.42 78.95 82.09 85.09 C 82.72 82.45 83.41 79.31 80.62 82.65 C 77.72 86.91 75.91 78.58 72.57 81.58 C 68.03 84.57 62.93 86.73 57.43 86.86 C 57.19 82.12 53.28 84.57 52.81 87.77 C 47.94 86.35 42.94 87.93 38.89 90.75 C 29.28 89.12 19.87 91.96 10.26 91.76 C 6.85 93.40 3.23 92.82 0.00 91.02 L 0.00 67.48 C 3.45 67.49 8.37 59.97 9.81 65.24 C 11.02 69.96 12.17 60.41 15.30 62.75 C 20.09 65.61 24.15 60.14 28.63 58.86 C 27.57 63.95 34.53 58.58 36.98 57.93 C 42.73 55.31 49.03 63.90 54.38 58.31 Z" />
</g>
<g id="#00000023">
<path fill="#000000" opacity="0.14" d=" M 82.09 85.09 C 86.42 78.95 95.20 79.84 101.37 82.46 C 111.72 82.21 120.90 87.01 130.51 89.51 C 134.67 92.62 139.74 94.86 144.99 92.96 C 144.26 93.90 143.51 94.84 142.93 95.88 C 141.83 98.71 142.24 101.93 141.89 104.91 C 140.29 105.98 138.59 106.89 137.06 108.05 C 133.41 109.88 132.30 113.63 130.80 117.06 C 126.24 113.34 120.64 114.95 115.27 114.83 C 116.74 104.78 108.22 112.78 104.17 113.02 C 103.79 107.08 96.54 111.57 93.30 113.56 C 85.23 107.37 75.06 113.60 66.97 116.65 C 61.36 108.78 53.81 117.90 46.79 116.80 C 40.59 120.25 32.84 117.66 29.16 111.80 C 27.24 108.88 23.24 117.06 22.36 114.28 C 24.44 108.87 17.10 108.09 13.36 108.29 C 8.63 108.34 4.54 105.51 0.00 104.62 L 0.00 91.02 C 3.23 92.82 6.85 93.40 10.26 91.76 C 19.87 91.96 29.28 89.12 38.89 90.75 C 42.94 87.93 47.94 86.35 52.81 87.77 C 53.28 84.57 57.19 82.12 57.43 86.86 C 62.93 86.73 68.03 84.57 72.57 81.58 C 75.91 78.58 77.72 86.91 80.62 82.65 C 83.41 79.31 82.72 82.45 82.09 85.09 Z" />
</g>
<g id="#2c2f3999">
<path fill="#2c2f39" opacity="0.60" d=" M 163.90 86.89 C 165.49 86.56 168.67 85.91 170.26 85.59 C 170.73 85.91 171.66 86.56 172.13 86.88 C 169.39 86.85 166.64 86.86 163.90 86.89 Z" />
</g>
<g id="#484e58fe">
<path fill="#484e58" opacity="1.00" d=" M 156.72 91.81 C 159.32 90.48 161.62 88.70 163.90 86.89 C 166.64 86.86 169.39 86.85 172.13 86.88 C 174.27 88.17 176.53 89.27 178.88 90.12 C 179.79 90.79 180.77 91.32 181.84 91.70 C 182.88 93.42 185.82 95.42 183.24 97.17 C 176.61 103.97 179.80 114.53 184.14 121.71 C 182.16 121.50 180.11 121.28 178.25 122.19 C 178.21 119.91 180.45 116.12 177.19 115.73 C 178.51 113.44 177.79 110.92 176.51 108.80 C 176.14 107.63 175.37 106.89 174.21 106.56 C 169.55 104.79 163.12 107.41 161.32 111.74 C 160.37 117.57 165.40 119.86 169.30 122.31 C 165.14 123.20 158.01 123.03 159.49 116.40 C 157.96 110.86 162.18 106.51 163.09 101.35 C 158.22 103.15 158.97 100.44 161.23 97.19 C 163.00 96.67 167.74 96.29 165.33 93.66 C 161.58 89.40 152.82 95.54 160.30 97.08 C 156.14 99.32 155.12 94.89 156.72 91.81 Z" />
</g>
<g id="#1d1f208e">
<path fill="#1d1f20" opacity="0.56" d=" M 178.88 90.12 C 180.40 90.23 183.45 90.45 184.97 90.56 C 184.19 90.85 182.62 91.42 181.84 91.70 C 180.77 91.32 179.79 90.79 178.88 90.12 Z" />
</g>
<g id="#5f636bfe">
<path fill="#5f636b" opacity="1.00" d=" M 181.84 91.70 C 182.62 91.42 184.19 90.85 184.97 90.56 C 191.36 92.83 193.02 101.17 199.80 102.11 C 202.55 102.55 205.36 102.78 208.15 102.93 C 210.15 103.72 211.81 105.16 213.12 106.85 C 205.54 103.10 205.56 118.37 212.24 119.76 C 216.35 123.67 216.03 116.16 217.06 113.49 C 218.13 115.23 219.46 116.85 220.10 118.81 C 218.93 123.19 219.72 125.85 224.07 125.05 C 226.22 127.14 230.12 130.75 229.27 133.44 C 224.99 132.56 221.28 129.76 216.73 130.06 C 218.16 132.79 219.91 135.36 221.86 137.73 C 228.15 141.93 231.06 148.83 233.27 155.75 C 233.14 157.62 232.88 161.34 232.76 163.21 C 228.18 161.14 223.05 162.67 218.31 163.32 C 214.78 165.04 222.50 165.83 218.77 167.88 C 214.85 170.53 214.98 162.73 212.80 164.75 C 212.69 170.09 207.36 174.23 207.64 180.28 C 203.78 181.25 206.11 173.76 202.91 176.94 C 199.61 178.24 203.20 184.09 199.27 184.05 C 202.69 175.60 194.19 181.10 191.72 179.83 C 193.32 176.71 197.50 175.89 200.72 176.67 C 201.14 173.06 202.17 169.54 204.02 166.41 C 205.98 164.88 208.38 163.47 207.93 160.58 C 211.26 160.78 215.60 162.01 213.99 156.99 C 208.77 159.79 203.73 158.34 199.05 155.42 C 203.37 154.66 204.39 148.35 210.01 151.83 C 212.95 153.04 213.90 145.27 216.00 149.97 C 218.14 154.24 221.28 150.87 220.47 147.33 C 229.89 146.03 215.00 144.27 219.00 138.88 C 219.24 134.64 215.56 140.08 214.29 141.31 C 211.53 137.56 213.86 128.29 207.44 129.33 C 205.63 133.14 196.81 140.52 205.20 140.73 C 199.96 139.59 201.26 143.65 201.97 147.14 C 197.70 147.42 199.31 140.59 195.22 141.04 C 192.54 142.90 195.68 146.37 194.15 148.69 C 192.54 147.66 188.14 146.04 187.98 148.82 C 187.02 145.28 182.85 147.87 181.20 144.93 C 182.21 142.73 184.32 140.80 183.98 138.20 C 181.70 137.13 176.75 137.48 178.22 133.39 C 182.47 131.29 185.27 121.15 177.55 122.74 L 178.25 122.19 C 180.11 121.28 182.16 121.50 184.14 121.71 C 179.80 114.53 176.61 103.97 183.24 97.17 C 185.82 95.42 182.88 93.42 181.84 91.70 M 186.21 106.07 C 183.87 109.26 185.15 112.87 188.89 113.93 C 191.71 111.60 189.94 105.79 186.21 106.07 M 200.10 105.99 C 199.09 108.38 198.40 111.55 195.10 111.30 C 193.22 116.20 200.97 114.71 200.31 119.87 C 205.59 121.17 202.09 114.35 200.18 112.29 C 203.37 112.00 203.00 106.48 200.10 105.99 M 191.01 114.98 C 189.60 119.78 194.39 121.39 192.12 125.84 C 195.08 128.53 198.80 122.54 199.97 127.15 C 201.85 129.72 203.68 121.38 200.33 123.36 C 195.34 123.38 195.96 114.32 191.01 114.98 M 224.02 153.91 C 221.04 159.13 226.09 159.94 229.13 160.91 C 229.00 158.00 227.33 154.05 224.02 153.91 Z" />
</g>
<g id="#3c4049fe">
<path fill="#3c4049" opacity="1.00" d=" M 144.99 92.96 C 148.83 92.14 152.80 92.12 156.72 91.81 C 155.12 94.89 156.14 99.32 160.30 97.08 L 161.23 97.19 C 158.97 100.44 158.22 103.15 163.09 101.35 C 162.18 106.51 157.96 110.86 159.49 116.40 C 158.01 123.03 165.14 123.20 169.30 122.31 C 170.27 122.12 171.21 121.82 172.12 121.42 C 173.20 120.47 174.14 119.37 175.05 118.26 C 175.76 117.42 176.47 116.58 177.19 115.73 C 180.45 116.12 178.21 119.91 178.25 122.19 L 177.55 122.74 C 173.15 124.31 173.36 130.05 168.83 131.97 C 166.98 133.15 164.46 138.29 167.76 138.62 C 171.18 136.30 176.26 141.62 172.48 143.80 C 172.06 139.47 164.22 141.98 166.58 145.37 C 167.57 148.93 173.44 147.03 172.20 151.86 C 167.72 151.29 157.85 147.34 158.04 154.79 C 159.72 156.83 166.07 156.37 162.85 159.86 C 158.04 163.76 168.65 174.24 170.63 166.58 C 172.69 156.03 168.60 163.79 164.95 164.01 C 164.24 158.22 175.44 158.20 172.20 151.86 C 175.31 153.91 177.31 156.90 173.07 159.03 C 175.78 164.97 181.60 164.52 186.98 165.78 C 187.17 166.43 187.55 167.73 187.74 168.37 C 182.32 167.55 178.37 171.62 173.17 172.32 C 170.77 178.88 179.05 172.84 181.23 176.71 C 183.37 178.49 178.97 178.75 177.92 179.80 C 173.42 181.90 178.03 186.00 180.42 187.66 C 179.33 188.81 178.12 189.85 176.83 190.78 C 175.21 190.99 173.62 191.49 172.77 193.00 C 171.14 197.16 163.61 197.90 163.12 192.89 C 163.20 189.78 158.40 188.50 157.84 191.78 C 156.95 194.72 153.20 198.51 157.13 200.76 C 158.91 200.33 160.61 199.63 162.31 198.96 C 161.96 201.76 161.51 208.13 165.80 204.84 C 169.37 203.05 167.38 209.24 169.90 209.71 C 171.54 210.33 174.55 210.36 174.07 212.87 C 170.22 212.38 164.92 211.75 163.10 216.12 C 160.31 219.08 163.90 222.21 164.69 225.18 C 165.89 232.83 176.36 230.86 177.74 238.67 C 172.29 240.86 176.81 246.67 181.18 244.24 C 179.13 249.09 179.26 253.57 175.83 257.78 C 179.27 256.83 183.01 257.30 185.60 259.94 C 186.06 261.94 184.29 262.97 182.90 263.97 C 179.63 264.83 172.88 267.23 176.80 271.24 L 175.99 270.93 C 170.33 266.81 162.59 266.74 157.22 261.83 C 152.82 258.83 147.37 257.43 143.70 253.36 C 143.07 251.65 142.46 249.94 141.93 248.21 C 141.88 246.13 141.90 244.00 141.00 242.08 C 145.37 229.49 133.15 220.55 134.13 207.92 C 130.98 204.69 128.97 200.54 128.77 195.99 C 129.42 193.24 129.82 190.45 130.65 187.76 C 129.25 198.65 136.45 194.11 137.81 187.83 C 137.58 191.73 140.61 188.98 140.85 186.81 C 148.55 186.35 150.90 178.35 157.98 176.87 C 156.89 173.92 155.29 170.82 157.68 168.05 C 155.74 164.73 152.19 168.00 149.36 168.04 C 151.43 162.79 139.06 155.73 139.72 162.20 C 138.65 159.89 139.02 154.79 135.26 156.18 C 132.03 158.66 129.11 161.74 129.77 166.10 C 128.08 162.28 129.30 158.58 131.28 155.32 C 134.20 152.90 131.67 149.00 131.79 145.89 C 131.18 140.04 138.82 133.77 133.96 128.71 C 131.98 121.66 134.76 114.67 137.06 108.05 C 138.59 106.89 140.29 105.98 141.89 104.91 C 144.27 102.99 142.32 98.66 142.93 95.88 C 143.51 94.84 144.26 93.90 144.99 92.96 M 149.25 107.20 C 146.70 109.80 142.40 114.04 145.31 117.70 C 151.48 122.11 157.80 106.66 149.25 107.20 M 153.23 126.16 C 150.94 128.96 150.62 133.02 153.77 135.23 C 151.77 139.14 157.30 138.70 158.27 141.88 C 161.07 141.04 158.15 136.70 157.96 135.01 C 157.09 132.60 156.92 126.69 153.23 126.16 M 148.31 133.32 C 146.28 134.22 144.10 136.47 144.21 138.69 C 147.60 140.76 149.85 144.11 147.96 148.04 C 152.85 148.36 149.98 142.34 150.78 139.24 C 145.40 140.57 150.44 133.27 148.31 133.32 M 149.34 186.33 C 146.77 187.40 144.21 190.82 145.65 193.34 C 149.20 196.50 155.27 185.51 149.34 186.33 M 154.10 227.19 C 151.36 230.00 148.97 233.43 148.42 237.40 C 144.00 249.79 157.40 258.50 168.01 259.04 C 167.98 258.56 167.91 257.59 167.88 257.11 C 168.27 254.08 167.89 250.91 169.17 248.08 C 172.91 247.24 170.94 256.22 175.35 253.42 C 179.80 252.16 177.30 245.31 173.22 248.00 C 174.92 243.61 164.98 245.42 169.86 238.02 C 169.98 236.79 172.39 233.37 169.69 234.55 C 164.16 233.30 159.85 228.36 154.10 227.19 Z" />
</g>
<g id="#6f7588ff">
<path fill="#6f7588" opacity="1.00" d=" M 160.30 97.08 C 152.82 95.54 161.58 89.40 165.33 93.66 C 167.74 96.29 163.00 96.67 161.23 97.19 L 160.30 97.08 Z" />
</g>
<g id="#232427a6">
<path fill="#232427" opacity="0.65" d=" M 141.89 104.91 C 142.24 101.93 141.83 98.71 142.93 95.88 C 142.32 98.66 144.27 102.99 141.89 104.91 Z" />
</g>
<g id="#1a1c177f">
<path fill="#1a1c17" opacity="0.50" d=" M 199.80 102.11 C 202.58 102.34 205.48 101.99 208.15 102.93 C 205.36 102.78 202.55 102.55 199.80 102.11 Z" />
</g>
<g id="#0000002c">
<path fill="#000000" opacity="0.17" d=" M 0.00 104.62 C 4.54 105.51 8.63 108.34 13.36 108.29 C 17.10 108.09 24.44 108.87 22.36 114.28 C 23.24 117.06 27.24 108.88 29.16 111.80 C 32.84 117.66 40.59 120.25 46.79 116.80 C 53.81 117.90 61.36 108.78 66.97 116.65 C 75.06 113.60 85.23 107.37 93.30 113.56 C 96.54 111.57 103.79 107.08 104.17 113.02 C 108.22 112.78 116.74 104.78 115.27 114.83 C 120.64 114.95 126.24 113.34 130.80 117.06 C 132.30 113.63 133.41 109.88 137.06 108.05 C 134.76 114.67 131.98 121.66 133.96 128.71 C 133.67 131.16 134.43 134.35 131.73 135.69 C 121.29 136.00 111.33 131.85 100.94 134.86 C 87.69 138.39 73.72 140.10 60.10 137.82 C 40.07 137.29 20.10 135.64 0.00 136.00 L 0.00 104.62 Z" />
</g>
<g id="#686d84ff">
<path fill="#686d84" opacity="1.00" d=" M 161.32 111.74 C 163.12 107.41 169.55 104.79 174.21 106.56 C 169.73 106.59 165.58 107.77 168.49 112.70 C 164.39 115.48 167.68 121.57 172.12 121.42 C 171.21 121.82 170.27 122.12 169.30 122.31 C 165.40 119.86 160.37 117.57 161.32 111.74 Z" />
</g>
<g id="#9396a5ff">
<path fill="#9396a5" opacity="1.00" d=" M 186.21 106.07 C 189.94 105.79 191.71 111.60 188.89 113.93 C 185.15 112.87 183.87 109.26 186.21 106.07 Z" />
</g>
<g id="#7e8280ff">
<path fill="#7e8280" opacity="1.00" d=" M 200.10 105.99 C 203.00 106.48 203.37 112.00 200.18 112.29 C 202.09 114.35 205.59 121.17 200.31 119.87 C 200.97 114.71 193.22 116.20 195.10 111.30 C 198.40 111.55 199.09 108.38 200.10 105.99 Z" />
</g>
<g id="#9599a8fd">
<path fill="#9599a8" opacity="1.00" d=" M 212.24 119.76 C 205.56 118.37 205.54 103.10 213.12 106.85 C 214.67 108.91 215.82 111.24 217.06 113.49 C 216.03 116.16 216.35 123.67 212.24 119.76 Z" />
</g>
<g id="#5c6278ff">
<path fill="#5c6278" opacity="1.00" d=" M 149.25 107.20 C 157.80 106.66 151.48 122.11 145.31 117.70 C 142.40 114.04 146.70 109.80 149.25 107.20 Z" />
</g>
<g id="#9599a7ff">
<path fill="#9599a7" opacity="1.00" d=" M 168.49 112.70 C 165.58 107.77 169.73 106.59 174.21 106.56 C 175.37 106.89 176.14 107.63 176.51 108.80 C 176.01 112.11 172.64 114.95 175.05 118.26 C 174.14 119.37 173.20 120.47 172.12 121.42 C 167.68 121.57 164.39 115.48 168.49 112.70 Z" />
</g>
<g id="#767c6aff">
<path fill="#767c6a" opacity="1.00" d=" M 176.51 108.80 C 177.79 110.92 178.51 113.44 177.19 115.73 C 176.47 116.58 175.76 117.42 175.05 118.26 C 172.64 114.95 176.01 112.11 176.51 108.80 Z" />
</g>
<g id="#82858eff">
<path fill="#82858e" opacity="1.00" d=" M 191.01 114.98 C 195.96 114.32 195.34 123.38 200.33 123.36 C 203.68 121.38 201.85 129.72 199.97 127.15 C 198.80 122.54 195.08 128.53 192.12 125.84 C 194.39 121.39 189.60 119.78 191.01 114.98 Z" />
</g>
<g id="#232226ad">
<path fill="#232226" opacity="0.68" d=" M 220.10 118.81 C 220.58 121.50 221.55 123.87 224.07 125.05 C 219.72 125.85 218.93 123.19 220.10 118.81 Z" />
</g>
<g id="#4c5260ff">
<path fill="#4c5260" opacity="1.00" d=" M 168.83 131.97 C 173.36 130.05 173.15 124.31 177.55 122.74 C 185.27 121.15 182.47 131.29 178.22 133.39 C 176.75 137.48 181.70 137.13 183.98 138.20 C 184.32 140.80 182.21 142.73 181.20 144.93 C 182.85 147.87 187.02 145.28 187.98 148.82 C 195.64 153.34 188.40 159.96 186.98 165.78 C 181.60 164.52 175.78 164.97 173.07 159.03 C 177.31 156.90 175.31 153.91 172.20 151.86 C 173.44 147.03 167.57 148.93 166.58 145.37 C 164.22 141.98 172.06 139.47 172.48 143.80 C 176.26 141.62 171.18 136.30 167.76 138.62 C 171.17 136.58 177.47 136.11 175.05 129.98 C 173.00 130.71 170.98 131.55 168.83 131.97 M 183.31 154.29 C 179.20 154.43 179.63 162.84 183.94 161.98 C 188.12 161.04 189.76 151.58 183.31 154.29 Z" />
</g>
<g id="#4e5362ff">
<path fill="#4e5362" opacity="1.00" d=" M 153.23 126.16 C 156.92 126.69 157.09 132.60 157.96 135.01 C 158.15 136.70 161.07 141.04 158.27 141.88 C 157.30 138.70 151.77 139.14 153.77 135.23 C 150.62 133.02 150.94 128.96 153.23 126.16 Z" />
</g>
<g id="#0000003b">
<path fill="#000000" opacity="0.23" d=" M 133.96 128.71 C 138.82 133.77 131.18 140.04 131.79 145.89 C 131.63 146.45 131.31 147.59 131.14 148.16 C 87.59 147.42 43.74 140.87 0.00 144.04 L 0.00 136.00 C 20.10 135.64 40.07 137.29 60.10 137.82 C 73.72 140.10 87.69 138.39 100.94 134.86 C 111.33 131.85 121.29 136.00 131.73 135.69 C 134.43 134.35 133.67 131.16 133.96 128.71 Z" />
</g>
<g id="#7a8348ff">
<path fill="#7a8348" opacity="1.00" d=" M 207.44 129.33 C 213.86 128.29 211.53 137.56 214.29 141.31 C 214.56 145.72 211.92 149.97 207.15 150.00 C 204.99 148.41 206.67 146.70 208.09 145.36 C 211.59 144.82 209.25 141.79 207.00 141.43 C 206.55 141.25 205.65 140.90 205.20 140.73 C 196.81 140.52 205.63 133.14 207.44 129.33 Z" />
</g>
<g id="#6c707bff">
<path fill="#6c707b" opacity="1.00" d=" M 168.83 131.97 C 170.98 131.55 173.00 130.71 175.05 129.98 C 177.47 136.11 171.17 136.58 167.76 138.62 C 164.46 138.29 166.98 133.15 168.83 131.97 Z" />
</g>
<g id="#37373cf4">
<path fill="#37373c" opacity="0.96" d=" M 216.73 130.06 C 221.28 129.76 224.99 132.56 229.27 133.44 C 227.32 135.78 223.32 135.09 221.86 137.73 C 219.91 135.36 218.16 132.79 216.73 130.06 Z" />
</g>
<g id="#535668ff">
<path fill="#535668" opacity="1.00" d=" M 148.31 133.32 C 150.44 133.27 145.40 140.57 150.78 139.24 C 149.98 142.34 152.85 148.36 147.96 148.04 C 149.85 144.11 147.60 140.76 144.21 138.69 C 144.10 136.47 146.28 134.22 148.31 133.32 Z" />
</g>
<g id="#787e81ff">
<path fill="#787e81" opacity="1.00" d=" M 214.29 141.31 C 215.56 140.08 219.24 134.64 219.00 138.88 C 215.00 144.27 229.89 146.03 220.47 147.33 C 221.28 150.87 218.14 154.24 216.00 149.97 C 213.90 145.27 212.95 153.04 210.01 151.83 C 204.39 148.35 203.37 154.66 199.05 155.42 C 203.73 158.34 208.77 159.79 213.99 156.99 C 215.60 162.01 211.26 160.78 207.93 160.58 C 204.25 159.09 199.64 163.99 204.02 166.41 C 202.17 169.54 201.14 173.06 200.72 176.67 C 197.50 175.89 193.32 176.71 191.72 179.83 C 194.19 181.10 202.69 175.60 199.27 184.05 C 203.20 184.09 199.61 178.24 202.91 176.94 C 206.11 173.76 203.78 181.25 207.64 180.28 C 210.52 184.71 213.65 189.43 219.05 190.91 C 221.07 194.81 218.32 201.14 213.49 199.54 C 210.85 197.46 207.38 197.14 204.71 195.11 C 206.06 198.12 208.40 200.40 207.82 204.04 C 205.06 203.35 205.66 206.98 207.91 206.99 C 206.75 207.22 204.43 207.68 203.27 207.91 C 204.11 197.54 202.36 204.72 200.75 206.77 C 196.00 205.64 190.08 208.31 186.52 204.07 C 185.68 206.56 184.25 208.81 182.01 210.25 C 179.66 200.90 190.59 201.95 196.23 200.78 C 194.77 197.11 191.65 194.41 188.30 192.49 C 189.40 190.74 190.44 188.74 187.93 187.62 C 187.15 184.47 191.78 183.32 190.50 180.26 C 189.57 176.30 188.64 172.34 187.74 168.37 C 187.55 167.73 187.17 166.43 186.98 165.78 C 188.40 159.96 195.64 153.34 187.98 148.82 C 188.14 146.04 192.54 147.66 194.15 148.69 C 195.68 146.37 192.54 142.90 195.22 141.04 C 199.31 140.59 197.70 147.42 201.97 147.14 C 201.26 143.65 199.96 139.59 205.20 140.73 C 205.65 140.90 206.55 141.25 207.00 141.43 C 206.18 143.07 205.20 145.61 208.09 145.36 C 206.67 146.70 204.99 148.41 207.15 150.00 C 211.92 149.97 214.56 145.72 214.29 141.31 Z" />
</g>
<g id="#b2ba9dff">
<path fill="#b2ba9d" opacity="1.00" d=" M 208.09 145.36 C 205.20 145.61 206.18 143.07 207.00 141.43 C 209.25 141.79 211.59 144.82 208.09 145.36 Z" />
</g>
<g id="#0000004e">
<path fill="#000000" opacity="0.31" d=" M 0.00 144.04 C 43.74 140.87 87.59 147.42 131.14 148.16 C 130.67 150.74 131.91 155.38 125.98 152.04 C 90.63 150.27 54.92 147.04 19.88 153.23 C 9.59 153.81 24.87 161.46 26.51 154.19 C 28.87 155.91 30.12 159.40 33.42 159.46 C 66.03 163.11 98.58 167.36 130.89 173.10 C 131.84 175.12 132.78 177.16 134.02 179.03 C 130.82 177.56 127.72 175.54 123.97 175.98 C 107.30 174.85 91.27 169.54 74.59 168.45 C 49.69 166.77 24.41 167.81 0.00 161.80 L 0.00 144.04 Z" />
<path fill="#000000" opacity="0.31" d=" M 0.00 195.08 C 17.76 200.38 36.13 202.94 54.53 204.60 C 78.50 206.23 102.90 212.77 126.79 207.69 C 128.08 203.87 126.80 199.62 128.77 195.99 C 128.97 200.54 130.98 204.69 134.13 207.92 C 134.13 209.28 134.11 210.64 134.06 212.00 C 96.63 213.99 59.26 205.04 21.94 208.07 C 27.93 212.93 38.40 215.11 46.59 217.46 C 78.40 222.83 107.89 238.44 140.12 241.00 C 140.34 241.27 140.78 241.81 141.00 242.08 C 141.90 244.00 141.88 246.13 141.93 248.21 C 141.37 246.72 140.98 245.15 140.24 243.75 C 112.68 241.04 86.71 229.07 59.33 224.57 C 39.50 221.31 19.95 216.34 0.00 213.83 L 0.00 195.08 Z" />
</g>
<g id="#0000005e">
<path fill="#000000" opacity="0.37" d=" M 131.14 148.16 C 131.31 147.59 131.63 146.45 131.79 145.89 C 131.67 149.00 134.20 152.90 131.28 155.32 C 114.32 155.44 96.61 151.08 80.07 156.18 C 79.99 159.33 84.27 160.23 86.62 161.43 C 101.02 164.81 115.62 167.44 129.99 171.02 C 130.22 171.54 130.66 172.58 130.89 173.10 C 98.58 167.36 66.03 163.11 33.42 159.46 C 30.12 159.40 28.87 155.91 26.51 154.19 C 24.87 161.46 9.59 153.81 19.88 153.23 C 54.92 147.04 90.63 150.27 125.98 152.04 C 131.91 155.38 130.67 150.74 131.14 148.16 Z" />
</g>
<g id="#535967ff">
<path fill="#535967" opacity="1.00" d=" M 158.04 154.79 C 157.85 147.34 167.72 151.29 172.20 151.86 C 175.44 158.20 164.24 158.22 164.95 164.01 C 168.60 163.79 172.69 156.03 170.63 166.58 C 168.65 174.24 158.04 163.76 162.85 159.86 C 166.07 156.37 159.72 156.83 158.04 154.79 Z" />
</g>
<g id="#00000071">
<path fill="#000000" opacity="0.44" d=" M 80.07 156.18 C 96.61 151.08 114.32 155.44 131.28 155.32 C 129.30 158.58 128.08 162.28 129.77 166.10 L 129.88 166.94 C 129.93 168.30 129.97 169.66 129.99 171.02 C 115.62 167.44 101.02 164.81 86.62 161.43 C 84.27 160.23 79.99 159.33 80.07 156.18 Z" />
</g>
<g id="#747c78ff">
<path fill="#747c78" opacity="1.00" d=" M 183.31 154.29 C 189.76 151.58 188.12 161.04 183.94 161.98 C 179.63 162.84 179.20 154.43 183.31 154.29 Z" />
</g>
<g id="#8d91a1ff">
<path fill="#8d91a1" opacity="1.00" d=" M 224.02 153.91 C 227.33 154.05 229.00 158.00 229.13 160.91 C 226.09 159.94 221.04 159.13 224.02 153.91 Z" />
</g>
<g id="#585c71ff">
<path fill="#585c71" opacity="1.00" d=" M 135.26 156.18 C 139.02 154.79 138.65 159.89 139.72 162.20 C 140.19 165.68 142.72 172.03 137.83 173.75 C 134.19 172.93 131.32 170.34 129.88 166.94 L 129.77 166.10 C 129.11 161.74 132.03 158.66 135.26 156.18 Z" />
</g>
<g id="#1c1c1f79">
<path fill="#1c1c1f" opacity="0.47" d=" M 233.27 155.75 C 234.18 158.32 233.96 161.06 234.23 163.75 C 233.86 163.62 233.12 163.34 232.76 163.21 C 232.88 161.34 233.14 157.62 233.27 155.75 Z" />
</g>
<g id="#2e2f34fd">
<path fill="#2e2f34" opacity="1.00" d=" M 139.72 162.20 C 139.06 155.73 151.43 162.79 149.36 168.04 C 152.19 168.00 155.74 164.73 157.68 168.05 C 155.29 170.82 156.89 173.92 157.98 176.87 C 150.90 178.35 148.55 186.35 140.85 186.81 C 140.61 188.98 137.58 191.73 137.81 187.83 C 139.00 184.33 136.49 183.92 133.65 183.87 C 134.50 182.16 137.12 179.87 134.02 179.03 C 132.78 177.16 131.84 175.12 130.89 173.10 C 130.66 172.58 130.22 171.54 129.99 171.02 C 129.97 169.66 129.93 168.30 129.88 166.94 C 131.32 170.34 134.19 172.93 137.83 173.75 C 142.72 172.03 140.19 165.68 139.72 162.20 Z" />
</g>
<g id="#989baaff">
<path fill="#989baa" opacity="1.00" d=" M 204.02 166.41 C 199.64 163.99 204.25 159.09 207.93 160.58 C 208.38 163.47 205.98 164.88 204.02 166.41 Z" />
</g>
<g id="#00000041">
<path fill="#000000" opacity="0.25" d=" M 0.00 161.80 C 24.41 167.81 49.69 166.77 74.59 168.45 C 91.27 169.54 107.30 174.85 123.97 175.98 C 127.72 175.54 130.82 177.56 134.02 179.03 C 137.12 179.87 134.50 182.16 133.65 183.87 C 132.55 185.07 131.18 186.15 130.65 187.76 C 129.82 190.45 129.42 193.24 128.77 195.99 C 126.80 199.62 128.08 203.87 126.79 207.69 C 102.90 212.77 78.50 206.23 54.53 204.60 C 36.13 202.94 17.76 200.38 0.00 195.08 L 0.00 188.12 C 32.13 197.49 65.41 204.75 99.00 204.10 C 107.37 199.93 98.95 189.18 95.14 183.82 C 89.83 178.59 82.51 174.50 74.80 173.62 C 50.08 172.53 24.89 172.29 0.00 168.89 L 0.00 161.80 Z" />
</g>
<g id="#3a3c46fc">
<path fill="#3a3c46" opacity="1.00" d=" M 218.31 163.32 C 223.05 162.67 228.18 161.14 232.76 163.21 C 233.12 163.34 233.86 163.62 234.23 163.75 C 246.22 164.45 261.29 164.20 269.43 174.62 C 272.83 181.68 265.49 185.40 260.95 188.88 C 256.82 190.54 252.96 193.68 248.23 192.89 C 244.51 192.56 240.33 191.06 236.72 192.70 C 235.79 193.08 234.91 193.54 234.08 194.09 C 233.76 194.29 233.11 194.69 232.79 194.88 C 232.44 194.83 231.75 194.71 231.41 194.65 C 229.83 194.03 228.21 194.05 226.72 194.89 C 224.27 193.35 221.83 191.77 219.05 190.91 C 213.65 189.43 210.52 184.71 207.64 180.28 C 207.36 174.23 212.69 170.09 212.80 164.75 C 214.98 162.73 214.85 170.53 218.77 167.88 C 222.50 165.83 214.78 165.04 218.31 163.32 M 227.67 172.89 C 224.09 171.14 221.27 170.64 219.01 176.08 C 216.20 185.17 224.97 178.81 228.78 178.19 C 228.48 181.80 233.44 184.44 236.22 182.17 C 237.91 179.81 240.37 185.08 240.31 180.95 C 242.70 182.15 241.41 185.28 243.17 186.95 C 245.44 186.78 247.50 184.26 246.88 181.94 C 248.35 179.40 249.26 180.72 250.18 182.82 C 254.64 182.11 259.09 183.46 262.85 180.57 C 264.42 175.86 259.78 170.43 255.14 171.47 C 252.18 166.79 245.09 165.44 241.70 170.74 C 239.70 173.67 239.37 167.19 236.22 169.85 C 234.58 164.78 227.17 168.13 227.67 172.89 Z" />
</g>
<g id="#525564ff">
<path fill="#525564" opacity="1.00" d=" M 227.67 172.89 C 227.17 168.13 234.58 164.78 236.22 169.85 C 239.37 167.19 239.70 173.67 241.70 170.74 C 245.09 165.44 252.18 166.79 255.14 171.47 C 251.11 176.92 241.38 165.63 242.40 176.57 C 241.60 179.74 242.93 185.20 246.88 181.94 C 247.50 184.26 245.44 186.78 243.17 186.95 C 241.41 185.28 242.70 182.15 240.31 180.95 C 240.37 185.08 237.91 179.81 236.22 182.17 C 233.44 184.44 228.48 181.80 228.78 178.19 C 224.97 178.81 216.20 185.17 219.01 176.08 C 221.27 170.64 224.09 171.14 227.67 172.89 Z" />
</g>
<g id="#4b535cff">
<path fill="#4b535c" opacity="1.00" d=" M 173.17 172.32 C 178.37 171.62 182.32 167.55 187.74 168.37 C 188.64 172.34 189.57 176.30 190.50 180.26 C 191.78 183.32 187.15 184.47 187.93 187.62 C 184.34 190.51 184.53 201.94 179.23 196.95 C 179.65 199.83 179.72 202.73 178.87 205.59 C 176.36 206.36 169.36 204.96 169.90 209.71 C 167.38 209.24 169.37 203.05 165.80 204.84 C 161.51 208.13 161.96 201.76 162.31 198.96 C 163.07 195.48 162.62 190.64 157.84 191.78 C 158.40 188.50 163.20 189.78 163.12 192.89 C 163.61 197.90 171.14 197.16 172.77 193.00 C 174.29 194.46 175.40 197.08 177.82 196.99 C 180.32 195.17 178.19 192.51 176.83 190.78 C 178.12 189.85 179.33 188.81 180.42 187.66 C 186.26 185.06 183.49 179.79 177.92 179.80 C 178.97 178.75 183.37 178.49 181.23 176.71 C 179.05 172.84 170.77 178.88 173.17 172.32 Z" />
</g>
<g id="#00000034">
<path fill="#000000" opacity="0.20" d=" M 0.00 168.89 C 24.89 172.29 50.08 172.53 74.80 173.62 C 82.51 174.50 89.83 178.59 95.14 183.82 C 98.95 189.18 107.37 199.93 99.00 204.10 C 65.41 204.75 32.13 197.49 0.00 188.12 L 0.00 168.89 Z" />
</g>
<g id="#747581ff">
<path fill="#747581" opacity="1.00" d=" M 242.40 176.57 C 241.38 165.63 251.11 176.92 255.14 171.47 C 259.78 170.43 264.42 175.86 262.85 180.57 C 259.09 183.46 254.64 182.11 250.18 182.82 C 249.26 180.72 248.35 179.40 246.88 181.94 C 242.93 185.20 241.60 179.74 242.40 176.57 Z" />
</g>
<g id="#6e7778ff">
<path fill="#6e7778" opacity="1.00" d=" M 180.42 187.66 C 178.03 186.00 173.42 181.90 177.92 179.80 C 183.49 179.79 186.26 185.06 180.42 187.66 Z" />
</g>
<g id="#575760fd">
<path fill="#575760" opacity="1.00" d=" M 130.65 187.76 C 131.18 186.15 132.55 185.07 133.65 183.87 C 136.49 183.92 139.00 184.33 137.81 187.83 C 136.45 194.11 129.25 198.65 130.65 187.76 Z" />
</g>
<g id="#575a6aff">
<path fill="#575a6a" opacity="1.00" d=" M 149.34 186.33 C 155.27 185.51 149.20 196.50 145.65 193.34 C 144.21 190.82 146.77 187.40 149.34 186.33 Z" />
</g>
<g id="#61666afe">
<path fill="#61666a" opacity="1.00" d=" M 187.93 187.62 C 190.44 188.74 189.40 190.74 188.30 192.49 C 191.65 194.41 194.77 197.11 196.23 200.78 C 190.59 201.95 179.66 200.90 182.01 210.25 C 184.25 208.81 185.68 206.56 186.52 204.07 C 190.08 208.31 196.00 205.64 200.75 206.77 C 202.36 204.72 204.11 197.54 203.27 207.91 C 204.43 207.68 206.75 207.22 207.91 206.99 C 207.89 206.26 207.84 204.78 207.82 204.04 C 208.40 200.40 206.06 198.12 204.71 195.11 C 207.38 197.14 210.85 197.46 213.49 199.54 C 218.32 201.14 221.07 194.81 219.05 190.91 C 221.83 191.77 224.27 193.35 226.72 194.89 C 225.21 196.26 223.61 197.75 223.92 200.00 C 227.89 201.21 229.85 197.59 231.41 194.65 C 231.75 194.71 232.44 194.83 232.79 194.88 C 232.92 199.32 233.14 203.77 233.23 208.22 C 232.42 212.00 231.12 215.68 229.43 219.15 C 229.58 214.85 223.65 219.24 222.04 218.14 C 222.23 220.78 220.41 226.17 224.88 225.06 C 222.28 228.88 218.47 232.53 220.28 237.68 C 220.14 241.15 219.80 244.68 220.12 248.16 C 220.88 251.98 221.30 256.22 218.02 259.04 C 220.68 258.83 223.42 258.12 226.03 259.03 C 225.94 261.59 226.77 264.01 227.81 266.31 C 226.34 268.89 224.00 271.92 226.15 274.82 C 228.59 274.54 230.97 273.46 233.45 273.73 C 229.93 274.05 227.90 280.11 231.91 280.87 C 233.31 281.02 234.72 281.14 236.13 281.23 C 233.51 283.91 229.76 284.69 226.23 285.40 C 221.18 285.90 220.30 282.65 223.04 279.11 C 216.29 281.09 212.85 275.27 210.96 270.30 C 206.44 270.91 200.57 261.85 207.64 262.57 C 211.82 260.67 211.54 269.69 214.91 265.76 C 217.07 258.27 209.02 257.07 203.91 257.17 C 200.63 257.57 202.54 254.60 204.40 254.13 C 209.87 251.39 218.97 244.84 215.41 238.33 C 218.80 235.90 220.07 230.59 218.96 226.96 C 216.79 228.31 215.63 230.45 216.59 232.96 C 211.69 229.29 201.29 232.67 205.99 239.89 C 210.48 241.55 210.22 248.49 204.87 248.10 C 211.06 245.36 200.49 235.12 197.38 241.40 C 193.29 243.11 200.44 235.35 195.56 234.65 C 197.85 230.72 193.42 226.46 197.82 222.74 C 194.70 222.33 191.76 224.39 192.51 227.73 C 185.42 225.45 189.14 231.23 188.96 234.15 C 185.85 233.41 183.21 229.77 179.96 232.17 C 180.59 235.78 186.85 236.97 183.43 240.05 C 184.39 245.77 185.88 251.36 188.09 256.73 C 187.24 257.78 186.42 258.86 185.60 259.94 C 183.01 257.30 179.27 256.83 175.83 257.78 C 179.26 253.57 179.13 249.09 181.18 244.24 C 176.81 246.67 172.29 240.86 177.74 238.67 C 176.36 230.86 165.89 232.83 164.69 225.18 C 163.90 222.21 160.31 219.08 163.10 216.12 C 164.92 211.75 170.22 212.38 174.07 212.87 C 174.55 210.36 171.54 210.33 169.90 209.71 C 169.36 204.96 176.36 206.36 178.87 205.59 C 179.72 202.73 179.65 199.83 179.23 196.95 C 184.53 201.94 184.34 190.51 187.93 187.62 M 189.27 195.36 C 186.27 195.31 185.41 197.32 186.02 200.05 C 189.34 201.19 193.47 196.49 189.27 195.36 M 214.18 201.11 C 212.45 203.81 214.45 206.94 213.12 209.79 C 217.21 211.91 218.51 209.48 219.93 206.05 C 214.05 208.42 218.79 200.81 214.18 201.11 M 191.10 209.98 C 191.83 212.34 191.41 214.71 190.99 217.08 C 194.71 216.61 196.02 211.28 200.94 213.84 C 202.94 207.18 194.77 212.03 191.10 209.98 M 217.34 212.35 C 215.95 212.65 214.55 212.91 213.17 213.23 C 214.88 216.02 210.25 221.01 208.88 216.90 C 207.33 219.62 214.05 224.69 212.28 220.03 C 215.47 219.28 225.91 212.16 217.34 212.35 M 175.02 214.00 C 174.91 218.08 175.15 226.03 179.77 226.85 C 185.35 223.17 181.75 212.44 175.02 214.00 Z" />
</g>
<g id="#0101011e">
<path fill="#010101" opacity="0.12" d=" M 248.23 192.89 C 252.96 193.68 256.82 190.54 260.95 188.88 C 258.03 192.38 254.23 195.13 249.96 196.08 C 246.15 200.21 254.55 200.96 252.40 205.14 C 254.26 212.31 248.00 218.28 249.32 225.60 C 251.40 227.69 254.77 229.04 253.34 233.11 C 256.91 230.52 260.94 229.24 265.17 231.19 C 258.21 232.52 252.66 236.87 247.59 241.59 C 240.27 244.05 232.05 243.35 225.11 247.18 C 218.88 248.59 221.81 241.44 220.28 237.68 C 218.47 232.53 222.28 228.88 224.88 225.06 C 226.44 223.13 228.30 221.39 229.43 219.15 C 231.12 215.68 232.42 212.00 233.23 208.22 C 234.03 203.54 233.95 198.81 234.08 194.09 C 234.91 193.54 235.79 193.08 236.72 192.70 C 240.54 192.81 244.40 192.97 248.23 192.89 Z" />
</g>
<g id="#6f7689ff">
<path fill="#6f7689" opacity="1.00" d=" M 172.77 193.00 C 173.62 191.49 175.21 190.99 176.83 190.78 C 178.19 192.51 180.32 195.17 177.82 196.99 C 175.40 197.08 174.29 194.46 172.77 193.00 Z" />
</g>
<g id="#606679ff">
<path fill="#606679" opacity="1.00" d=" M 157.84 191.78 C 162.62 190.64 163.07 195.48 162.31 198.96 C 160.61 199.63 158.91 200.33 157.13 200.76 C 153.20 198.51 156.95 194.72 157.84 191.78 Z" />
</g>
<g id="#15161698">
<path fill="#151616" opacity="0.60" d=" M 236.72 192.70 C 240.33 191.06 244.51 192.56 248.23 192.89 C 244.40 192.97 240.54 192.81 236.72 192.70 Z" />
</g>
<g id="#8e8f92ff">
<path fill="#8e8f92" opacity="1.00" d=" M 226.72 194.89 C 228.21 194.05 229.83 194.03 231.41 194.65 C 229.85 197.59 227.89 201.21 223.92 200.00 C 223.61 197.75 225.21 196.26 226.72 194.89 Z" />
</g>
<g id="#2b2d2ea3">
<path fill="#2b2d2e" opacity="0.64" d=" M 232.79 194.88 C 233.11 194.69 233.76 194.29 234.08 194.09 C 233.95 198.81 234.03 203.54 233.23 208.22 C 233.14 203.77 232.92 199.32 232.79 194.88 Z" />
</g>
<g id="#a3a6abff">
<path fill="#a3a6ab" opacity="1.00" d=" M 189.27 195.36 C 193.47 196.49 189.34 201.19 186.02 200.05 C 185.41 197.32 186.27 195.31 189.27 195.36 Z" />
</g>
<g id="#80828dff">
<path fill="#80828d" opacity="1.00" d=" M 214.18 201.11 C 218.79 200.81 214.05 208.42 219.93 206.05 C 218.51 209.48 217.21 211.91 213.12 209.79 C 214.45 206.94 212.45 203.81 214.18 201.11 Z" />
</g>
<g id="#c4c8b9ff">
<path fill="#c4c8b9" opacity="1.00" d=" M 207.91 206.99 C 205.66 206.98 205.06 203.35 207.82 204.04 C 207.84 204.78 207.89 206.26 207.91 206.99 Z" />
</g>
<g id="#0000005b">
<path fill="#000000" opacity="0.36" d=" M 21.94 208.07 C 59.26 205.04 96.63 213.99 134.06 212.00 C 134.04 212.49 134.00 213.46 133.98 213.95 C 113.36 215.88 92.72 212.59 72.12 213.15 C 69.86 213.29 64.46 215.56 68.61 217.39 C 91.80 226.43 115.17 236.53 139.95 240.12 L 140.12 241.00 C 107.89 238.44 78.40 222.83 46.59 217.46 C 38.40 215.11 27.93 212.93 21.94 208.07 Z" />
</g>
<g id="#0101017f">
<path fill="#010101" opacity="0.50" d=" M 134.13 207.92 C 133.15 220.55 145.37 229.49 141.00 242.08 C 140.78 241.81 140.34 241.27 140.12 241.00 L 139.95 240.12 C 139.86 239.69 139.70 238.83 139.61 238.40 C 127.57 234.91 112.93 231.12 105.98 220.12 C 113.54 217.96 124.98 218.18 133.83 215.83 C 133.87 215.36 133.95 214.42 133.98 213.95 C 134.00 213.46 134.04 212.49 134.06 212.00 C 134.11 210.64 134.13 209.28 134.13 207.92 Z" />
</g>
<g id="#898e9bff">
<path fill="#898e9b" opacity="1.00" d=" M 191.10 209.98 C 194.77 212.03 202.94 207.18 200.94 213.84 C 196.02 211.28 194.71 216.61 190.99 217.08 C 191.41 214.71 191.83 212.34 191.10 209.98 Z" />
</g>
<g id="#84888bff">
<path fill="#84888b" opacity="1.00" d=" M 217.34 212.35 C 225.91 212.16 215.47 219.28 212.28 220.03 C 214.05 224.69 207.33 219.62 208.88 216.90 C 210.25 221.01 214.88 216.02 213.17 213.23 C 214.55 212.91 215.95 212.65 217.34 212.35 Z" />
</g>
<g id="#0000006c">
<path fill="#000000" opacity="0.42" d=" M 68.61 217.39 C 64.46 215.56 69.86 213.29 72.12 213.15 C 92.72 212.59 113.36 215.88 133.98 213.95 C 133.95 214.42 133.87 215.36 133.83 215.83 C 124.98 218.18 113.54 217.96 105.98 220.12 C 112.93 231.12 127.57 234.91 139.61 238.40 C 139.70 238.83 139.86 239.69 139.95 240.12 C 115.17 236.53 91.80 226.43 68.61 217.39 Z" />
</g>
<g id="#00000039">
<path fill="#000000" opacity="0.22" d=" M 0.00 213.83 C 19.95 216.34 39.50 221.31 59.33 224.57 C 86.71 229.07 112.68 241.04 140.24 243.75 C 140.98 245.15 141.37 246.72 141.93 248.21 C 142.46 249.94 143.07 251.65 143.70 253.36 C 141.61 251.44 139.75 249.29 137.64 247.40 C 106.60 245.34 78.01 231.04 47.15 227.73 C 31.51 224.99 15.76 222.84 0.00 220.90 L 0.00 213.83 Z" />
</g>
<g id="#8b8b97ff">
<path fill="#8b8b97" opacity="1.00" d=" M 175.02 214.00 C 181.75 212.44 185.35 223.17 179.77 226.85 C 175.15 226.03 174.91 218.08 175.02 214.00 Z" />
</g>
<g id="#87878efb">
<path fill="#87878e" opacity="1.00" d=" M 222.04 218.14 C 223.65 219.24 229.58 214.85 229.43 219.15 C 228.30 221.39 226.44 223.13 224.88 225.06 C 220.41 226.17 222.23 220.78 222.04 218.14 Z" />
</g>
<g id="#00000029">
<path fill="#000000" opacity="0.16" d=" M 0.00 220.90 C 15.76 222.84 31.51 224.99 47.15 227.73 C 78.01 231.04 106.60 245.34 137.64 247.40 C 139.75 249.29 141.61 251.44 143.70 253.36 C 147.37 257.43 152.82 258.83 157.22 261.83 C 147.39 262.29 137.65 256.02 127.96 259.72 C 125.45 257.45 122.84 256.81 119.88 258.76 C 111.36 256.52 102.53 259.51 94.00 256.27 C 88.97 258.22 85.65 253.17 81.40 251.48 C 78.92 249.37 74.75 249.67 73.28 246.43 C 61.07 249.69 53.99 233.21 41.97 236.83 C 29.23 232.64 14.57 229.92 0.00 228.91 L 0.00 220.90 Z" />
</g>
<g id="#777c82ff">
<path fill="#777c82" opacity="1.00" d=" M 192.51 227.73 C 191.76 224.39 194.70 222.33 197.82 222.74 C 193.42 226.46 197.85 230.72 195.56 234.65 C 200.44 235.35 193.29 243.11 197.38 241.40 C 200.49 235.12 211.06 245.36 204.87 248.10 C 210.22 248.49 210.48 241.55 205.99 239.89 C 201.29 232.67 211.69 229.29 216.59 232.96 C 215.63 230.45 216.79 228.31 218.96 226.96 C 220.07 230.59 218.80 235.90 215.41 238.33 C 218.97 244.84 209.87 251.39 204.40 254.13 C 203.44 250.13 195.93 252.42 195.07 256.18 C 193.70 259.79 190.70 255.04 188.09 256.73 C 185.88 251.36 184.39 245.77 183.43 240.05 C 186.85 236.97 180.59 235.78 179.96 232.17 C 183.21 229.77 185.85 233.41 188.96 234.15 C 189.14 231.23 185.42 225.45 192.51 227.73 M 210.27 233.24 C 207.83 234.60 204.92 239.09 209.50 239.52 C 214.32 245.13 217.47 229.60 210.27 233.24 Z" />
</g>
<g id="#5d6457ff">
<path fill="#5d6457" opacity="1.00" d=" M 154.10 227.19 C 159.85 228.36 164.16 233.30 169.69 234.55 C 172.39 233.37 169.98 236.79 169.86 238.02 C 167.68 233.92 162.13 234.34 159.93 238.12 C 160.15 242.83 164.60 246.05 166.82 250.02 C 163.33 252.04 162.39 258.58 167.88 257.11 C 167.91 257.59 167.98 258.56 168.01 259.04 C 157.40 258.50 144.00 249.79 148.42 237.40 C 148.97 233.43 151.36 230.00 154.10 227.19 Z" />
</g>
<g id="#2f3038f8">
<path fill="#2f3038" opacity="0.97" d=" M 282.28 229.25 C 287.07 227.59 292.22 227.63 297.19 228.53 C 293.83 230.73 286.45 229.84 286.97 234.91 C 287.41 238.04 291.76 236.94 294.22 237.32 C 292.89 237.96 291.54 238.57 290.17 239.14 C 287.30 239.19 284.44 238.95 281.69 239.78 C 280.03 239.79 277.78 239.93 277.61 242.06 C 271.35 235.65 284.86 241.28 282.93 235.11 C 283.08 230.07 274.08 232.06 274.05 236.02 C 274.29 238.89 271.09 237.68 269.31 237.86 C 261.99 233.39 256.12 244.55 248.35 244.59 C 242.62 245.28 238.20 249.68 232.50 250.72 C 230.21 253.39 228.57 256.57 226.03 259.03 C 223.42 258.12 220.68 258.83 218.02 259.04 C 221.30 256.22 220.88 251.98 220.12 248.16 C 221.80 247.96 223.54 247.88 225.11 247.18 C 232.05 243.35 240.27 244.05 247.59 241.59 C 252.66 236.87 258.21 232.52 265.17 231.19 C 266.68 230.70 268.17 230.13 269.71 229.71 C 273.85 229.56 278.20 230.37 282.28 229.25 Z" />
</g>
<g id="#0000001f">
<path fill="#000000" opacity="0.12" d=" M 0.00 228.91 C 14.57 229.92 29.23 232.64 41.97 236.83 C 53.99 233.21 61.07 249.69 73.28 246.43 C 74.75 249.67 78.92 249.37 81.40 251.48 C 85.65 253.17 88.97 258.22 94.00 256.27 C 102.53 259.51 111.36 256.52 119.88 258.76 C 122.84 256.81 125.45 257.45 127.96 259.72 C 137.65 256.02 147.39 262.29 157.22 261.83 C 162.59 266.74 170.33 266.81 175.99 270.93 C 179.52 277.69 187.41 279.42 193.10 283.79 C 197.70 288.60 206.10 283.13 210.11 288.92 C 194.07 287.52 179.70 282.26 164.17 279.92 C 156.30 274.71 147.51 281.95 139.18 278.58 C 133.90 282.98 127.34 276.97 121.50 279.30 C 115.95 274.01 108.97 279.36 103.20 275.42 C 98.81 273.90 94.51 277.58 90.37 275.29 C 88.16 280.26 84.53 275.83 81.13 274.89 C 80.48 275.93 81.05 278.74 79.13 277.74 C 74.61 275.98 68.65 277.66 65.48 273.35 C 61.96 272.21 60.08 275.50 57.10 276.16 C 55.90 274.24 57.58 268.86 54.36 270.22 C 54.09 272.40 53.43 274.41 51.13 275.09 C 51.40 273.35 51.78 271.63 51.98 269.88 C 47.92 270.81 44.23 272.88 40.22 274.02 C 43.14 266.77 32.78 265.83 28.07 267.87 C 24.57 266.19 22.46 259.52 17.35 261.43 C 13.62 262.66 9.36 259.16 9.81 255.24 C 6.71 258.42 3.27 254.92 0.00 253.86 L 0.00 228.91 Z" />
</g>
<g id="#0d0d0f7a">
<path fill="#0d0d0f" opacity="0.48" d=" M 269.71 229.71 C 273.76 228.50 278.12 229.51 282.28 229.25 C 278.20 230.37 273.85 229.56 269.71 229.71 Z" />
</g>
<g id="#595b61f7">
<path fill="#595b61" opacity="0.97" d=" M 286.97 234.91 C 286.45 229.84 293.83 230.73 297.19 228.53 C 301.34 231.26 297.85 236.24 294.22 237.32 C 291.76 236.94 287.41 238.04 286.97 234.91 Z" />
</g>
<g id="#5f626cfe">
<path fill="#5f626c" opacity="1.00" d=" M 274.05 236.02 C 274.08 232.06 283.08 230.07 282.93 235.11 C 284.86 241.28 271.35 235.65 277.61 242.06 C 277.83 242.30 278.27 242.78 278.49 243.02 L 279.13 243.75 C 279.69 246.89 277.93 248.64 275.06 249.39 C 278.75 251.63 280.89 256.64 274.63 254.42 C 276.77 257.97 281.93 258.98 284.05 254.89 C 285.70 251.56 279.09 252.36 281.68 249.71 C 288.41 247.14 296.01 249.44 303.06 247.92 C 303.58 251.01 302.39 254.05 300.11 256.13 C 296.63 255.14 292.80 255.52 289.70 257.45 C 286.10 258.89 284.74 264.40 280.13 263.62 C 276.89 262.57 274.44 265.22 271.52 266.09 C 271.26 263.99 271.07 261.88 270.75 259.79 C 267.97 262.45 269.91 266.06 271.47 268.80 C 268.76 269.90 265.16 273.74 262.98 270.03 C 259.05 267.88 263.04 264.56 264.50 262.05 C 272.35 265.15 271.77 244.07 266.28 254.13 C 266.05 251.56 265.18 249.13 264.09 246.81 C 260.92 242.11 265.01 239.09 269.31 237.86 C 271.09 237.68 274.29 238.89 274.05 236.02 Z" />
</g>
<g id="#adb1b0ff">
<path fill="#adb1b0" opacity="1.00" d=" M 210.27 233.24 C 217.47 229.60 214.32 245.13 209.50 239.52 C 204.92 239.09 207.83 234.60 210.27 233.24 Z" />
</g>
<g id="#747b69ff">
<path fill="#747b69" opacity="1.00" d=" M 159.93 238.12 C 162.13 234.34 167.68 233.92 169.86 238.02 C 164.98 245.42 174.92 243.61 173.22 248.00 C 177.30 245.31 179.80 252.16 175.35 253.42 C 170.94 256.22 172.91 247.24 169.17 248.08 C 167.89 250.91 168.27 254.08 167.88 257.11 C 162.39 258.58 163.33 252.04 166.82 250.02 C 164.60 246.05 160.15 242.83 159.93 238.12 Z" />
</g>
<g id="#484c56ff">
<path fill="#484c56" opacity="1.00" d=" M 248.35 244.59 C 256.12 244.55 261.99 233.39 269.31 237.86 C 265.01 239.09 260.92 242.11 264.09 246.81 C 258.42 244.04 260.36 251.83 257.52 254.20 C 257.47 252.40 257.62 250.61 257.69 248.82 C 255.12 249.51 255.32 253.31 252.03 253.22 C 253.42 250.79 255.22 248.56 256.14 245.88 C 253.50 247.86 250.69 249.18 247.35 248.26 C 246.14 250.02 244.92 251.77 243.16 253.04 C 240.83 255.24 240.38 258.59 239.34 261.47 C 237.38 259.85 236.92 256.12 233.66 257.34 C 228.99 256.93 229.99 263.70 227.81 266.31 C 226.77 264.01 225.94 261.59 226.03 259.03 C 228.57 256.57 230.21 253.39 232.50 250.72 C 238.20 249.68 242.62 245.28 248.35 244.59 Z" />
</g>
<g id="#1f211990">
<path fill="#1f2119" opacity="0.56" d=" M 220.28 237.68 C 221.81 241.44 218.88 248.59 225.11 247.18 C 223.54 247.88 221.80 247.96 220.12 248.16 C 219.80 244.68 220.14 241.15 220.28 237.68 Z" />
</g>
<g id="#0b0b0d8b">
<path fill="#0b0b0d" opacity="0.55" d=" M 281.69 239.78 C 284.44 238.95 287.30 239.19 290.17 239.14 C 287.54 240.48 284.51 239.73 281.69 239.78 Z" />
</g>
<g id="#0e0d0f78">
<path fill="#0e0d0f" opacity="0.47" d=" M 277.61 242.06 C 277.78 239.93 280.03 239.79 281.69 239.78 C 280.65 240.89 279.54 241.93 278.49 243.02 C 278.27 242.78 277.83 242.30 277.61 242.06 Z" />
</g>
<g id="#32343bf9">
<path fill="#32343b" opacity="0.98" d=" M 279.13 243.75 C 281.33 244.74 283.57 245.67 285.89 246.35 C 288.24 247.55 291.53 248.79 293.06 246.04 C 293.53 245.70 294.48 245.00 294.96 244.65 C 296.92 245.47 299.15 245.50 301.08 244.56 C 302.06 245.48 303.10 246.46 303.06 247.92 C 296.01 249.44 288.41 247.14 281.68 249.71 C 279.09 252.36 285.70 251.56 284.05 254.89 C 281.93 258.98 276.77 257.97 274.63 254.42 C 280.89 256.64 278.75 251.63 275.06 249.39 C 277.93 248.64 279.69 246.89 279.13 243.75 Z" />
</g>
<g id="#0c0c0d81">
<path fill="#0c0c0d" opacity="0.51" d=" M 294.96 244.65 C 296.80 243.03 298.84 243.00 301.08 244.56 C 299.15 245.50 296.92 245.47 294.96 244.65 Z" />
</g>
<g id="#6f7275ff">
<path fill="#6f7275" opacity="1.00" d=" M 247.35 248.26 C 250.69 249.18 253.50 247.86 256.14 245.88 C 255.22 248.56 253.42 250.79 252.03 253.22 C 255.32 253.31 255.12 249.51 257.69 248.82 C 257.62 250.61 257.47 252.40 257.52 254.20 C 257.34 257.12 257.06 260.04 256.93 262.97 C 258.58 261.73 261.70 257.53 258.45 265.23 C 256.46 267.31 254.34 269.25 251.96 270.87 C 248.92 272.26 243.71 282.57 242.65 276.06 C 239.60 275.88 238.30 279.58 236.13 281.23 C 234.72 281.14 233.31 281.02 231.91 280.87 C 234.35 278.70 239.88 273.99 233.45 273.73 C 230.97 273.46 228.59 274.54 226.15 274.82 C 224.00 271.92 226.34 268.89 227.81 266.31 C 229.99 263.70 228.99 256.93 233.66 257.34 C 236.92 256.12 237.38 259.85 239.34 261.47 C 244.60 270.08 253.97 251.42 243.16 253.04 C 244.92 251.77 246.14 250.02 247.35 248.26 Z" />
</g>
<g id="#3c4046fc">
<path fill="#3c4046" opacity="1.00" d=" M 257.52 254.20 C 260.36 251.83 258.42 244.04 264.09 246.81 C 265.18 249.13 266.05 251.56 266.28 254.13 C 265.79 256.79 265.16 259.43 264.50 262.05 C 263.04 264.56 259.05 267.88 262.98 270.03 C 265.16 273.74 268.76 269.90 271.47 268.80 C 269.91 266.06 267.97 262.45 270.75 259.79 C 271.07 261.88 271.26 263.99 271.52 266.09 C 274.44 265.22 276.89 262.57 280.13 263.62 C 284.74 264.40 286.10 258.89 289.70 257.45 C 286.08 260.86 290.24 264.31 294.16 263.32 C 292.66 264.20 291.02 264.79 289.39 265.35 C 284.94 260.26 279.17 266.91 283.90 271.44 C 283.61 272.32 283.31 273.21 283.02 274.09 C 280.54 273.03 277.72 268.31 275.20 271.19 C 273.28 272.78 275.27 275.49 274.88 277.61 C 271.96 277.86 269.27 279.15 268.48 282.20 C 264.32 277.15 257.50 277.12 251.41 276.07 C 251.65 274.34 251.81 272.61 251.96 270.87 C 254.34 269.25 256.46 267.31 258.45 265.23 C 261.70 257.53 258.58 261.73 256.93 262.97 C 257.06 260.04 257.34 257.12 257.52 254.20 M 258.04 271.03 C 258.33 272.62 256.75 277.29 259.70 275.65 C 263.90 275.05 262.27 268.87 258.04 271.03 Z" />
</g>
<g id="#09090b6f">
<path fill="#09090b" opacity="0.44" d=" M 285.89 246.35 C 287.68 246.28 291.27 246.12 293.06 246.04 C 291.53 248.79 288.24 247.55 285.89 246.35 Z" />
</g>
<g id="#8b8d92ff">
<path fill="#8b8d92" opacity="1.00" d=" M 266.28 254.13 C 271.77 244.07 272.35 265.15 264.50 262.05 C 265.16 259.43 265.79 256.79 266.28 254.13 Z" />
</g>
<g id="#474c56ff">
<path fill="#474c56" opacity="1.00" d=" M 195.07 256.18 C 195.93 252.42 203.44 250.13 204.40 254.13 C 202.54 254.60 200.63 257.57 203.91 257.17 C 209.02 257.07 217.07 258.27 214.91 265.76 C 211.54 269.69 211.82 260.67 207.64 262.57 C 200.57 261.85 206.44 270.91 210.96 270.30 C 210.25 273.87 207.00 272.89 204.89 271.12 C 208.25 275.36 204.73 279.65 201.04 282.11 C 196.43 280.10 194.48 274.62 189.93 272.76 C 190.43 272.55 191.42 272.12 191.91 271.91 C 195.36 270.28 198.99 263.66 194.71 261.19 C 192.52 260.29 190.50 261.83 188.65 262.79 C 186.75 263.24 184.83 263.63 182.90 263.97 C 184.29 262.97 186.06 261.94 185.60 259.94 C 186.42 258.86 187.24 257.78 188.09 256.73 C 190.70 255.04 193.70 259.79 195.07 256.18 Z" />
</g>
<g id="#898c97ff">
<path fill="#898c97" opacity="1.00" d=" M 243.16 253.04 C 253.97 251.42 244.60 270.08 239.34 261.47 C 240.38 258.59 240.83 255.24 243.16 253.04 Z" />
</g>
<g id="#00000017">
<path fill="#000000" opacity="0.09" d=" M 0.00 253.86 C 3.27 254.92 6.71 258.42 9.81 255.24 C 9.36 259.16 13.62 262.66 17.35 261.43 C 22.46 259.52 24.57 266.19 28.07 267.87 C 32.78 265.83 43.14 266.77 40.22 274.02 C 44.23 272.88 47.92 270.81 51.98 269.88 C 51.78 271.63 51.40 273.35 51.13 275.09 C 53.43 274.41 54.09 272.40 54.36 270.22 C 57.58 268.86 55.90 274.24 57.10 276.16 C 60.08 275.50 61.96 272.21 65.48 273.35 C 68.65 277.66 74.61 275.98 79.13 277.74 C 81.05 278.74 80.48 275.93 81.13 274.89 C 84.53 275.83 88.16 280.26 90.37 275.29 C 94.51 277.58 98.81 273.90 103.20 275.42 C 108.97 279.36 115.95 274.01 121.50 279.30 C 127.34 276.97 133.90 282.98 139.18 278.58 C 147.51 281.95 156.30 274.71 164.17 279.92 C 179.70 282.26 194.07 287.52 210.11 288.92 L 210.80 289.01 C 213.82 289.58 217.12 290.58 219.27 287.79 C 221.21 286.14 223.85 286.06 226.23 285.40 C 229.76 284.69 233.51 283.91 236.13 281.23 C 241.75 281.91 247.60 280.40 251.41 276.07 C 257.50 277.12 264.32 277.15 268.48 282.20 C 271.66 284.13 275.50 283.28 278.10 281.03 C 276.20 288.52 266.57 283.12 261.48 283.50 C 256.65 286.06 251.73 288.43 246.63 290.42 C 238.93 287.02 232.61 298.43 224.68 297.56 C 219.94 296.31 217.62 303.39 213.49 298.64 C 206.91 302.69 198.70 303.17 192.02 302.98 C 190.22 300.72 184.03 299.59 183.42 303.22 C 181.93 308.25 175.80 303.61 172.59 302.61 C 166.28 302.30 161.08 308.99 154.50 307.32 C 154.23 310.98 149.93 308.82 147.72 309.49 C 145.37 313.93 138.85 311.41 135.00 312.40 C 131.13 311.70 128.96 318.77 125.75 314.25 C 122.60 309.05 118.16 317.56 114.18 313.84 C 111.21 311.35 106.34 319.43 106.77 312.99 C 102.74 318.51 94.21 312.86 88.46 313.72 C 86.79 309.94 80.39 306.65 79.73 312.86 C 76.76 318.04 74.37 310.49 75.73 307.43 C 73.60 306.69 71.52 305.79 69.34 305.23 C 67.66 308.15 64.76 310.29 61.24 309.92 C 58.95 308.54 62.08 305.45 59.73 304.16 C 55.43 302.04 56.75 309.82 52.48 305.76 C 46.17 307.35 40.51 303.36 35.22 300.26 C 31.71 309.65 24.39 299.00 18.28 297.71 C 19.53 300.95 18.66 301.07 16.10 299.25 C 13.36 303.68 8.85 295.20 7.13 297.88 C 7.50 304.62 2.86 296.63 0.00 295.61 L 0.00 253.86 Z" />
</g>
<g id="#33343bf4">
<path fill="#33343b" opacity="0.96" d=" M 289.70 257.45 C 292.80 255.52 296.63 255.14 300.11 256.13 C 298.53 257.27 296.73 258.01 295.00 258.86 C 293.24 258.34 291.47 257.88 289.70 257.45 Z" />
</g>
<g id="#646469fd">
<path fill="#646469" opacity="1.00" d=" M 289.70 257.45 C 291.47 257.88 293.24 258.34 295.00 258.86 C 294.61 260.25 295.73 262.56 294.16 263.32 C 290.24 264.31 286.08 260.86 289.70 257.45 Z" />
</g>
<g id="#8d8f9bff">
<path fill="#8d8f9b" opacity="1.00" d=" M 188.65 262.79 C 190.50 261.83 192.52 260.29 194.71 261.19 C 198.99 263.66 195.36 270.28 191.91 271.91 C 191.00 268.81 189.95 265.75 188.65 262.79 Z" />
</g>
<g id="#616b49ff">
<path fill="#616b49" opacity="1.00" d=" M 182.90 263.97 C 184.83 263.63 186.75 263.24 188.65 262.79 C 189.95 265.75 191.00 268.81 191.91 271.91 C 191.42 272.12 190.43 272.55 189.93 272.76 C 185.47 273.38 180.87 273.31 176.80 271.24 C 172.88 267.23 179.63 264.83 182.90 263.97 Z" />
</g>
<g id="#5f6466fa">
<path fill="#5f6466" opacity="0.98" d=" M 283.90 271.44 C 279.17 266.91 284.94 260.26 289.39 265.35 C 288.83 268.30 286.57 270.31 283.90 271.44 Z" />
</g>
<g id="#35383ff9">
<path fill="#35383f" opacity="0.98" d=" M 210.96 270.30 C 212.85 275.27 216.29 281.09 223.04 279.11 C 220.30 282.65 221.18 285.90 226.23 285.40 C 223.85 286.06 221.21 286.14 219.27 287.79 C 216.18 286.65 213.14 286.78 210.80 289.01 L 210.11 288.92 C 206.10 283.13 197.70 288.60 193.10 283.79 C 187.41 279.42 179.52 277.69 175.99 270.93 L 176.80 271.24 C 180.87 273.31 185.47 273.38 189.93 272.76 C 194.48 274.62 196.43 280.10 201.04 282.11 C 204.73 279.65 208.25 275.36 204.89 271.12 C 207.00 272.89 210.25 273.87 210.96 270.30 Z" />
</g>
<g id="#6d757bf7">
<path fill="#6d757b" opacity="0.97" d=" M 275.20 271.19 C 277.72 268.31 280.54 273.03 283.02 274.09 C 282.24 276.94 278.82 278.04 278.10 281.03 C 275.50 283.28 271.66 284.13 268.48 282.20 C 269.27 279.15 271.96 277.86 274.88 277.61 C 275.27 275.49 273.28 272.78 275.20 271.19 Z" />
</g>
<g id="#616841f4">
<path fill="#616841" opacity="0.96" d=" M 242.65 276.06 C 243.71 282.57 248.92 272.26 251.96 270.87 C 251.81 272.61 251.65 274.34 251.41 276.07 C 247.60 280.40 241.75 281.91 236.13 281.23 C 238.30 279.58 239.60 275.88 242.65 276.06 Z" />
</g>
<g id="#78816dff">
<path fill="#78816d" opacity="1.00" d=" M 258.04 271.03 C 262.27 268.87 263.90 275.05 259.70 275.65 C 256.75 277.29 258.33 272.62 258.04 271.03 Z" />
</g>
<g id="#42444eff">
<path fill="#42444e" opacity="1.00" d=" M 233.45 273.73 C 239.88 273.99 234.35 278.70 231.91 280.87 C 227.90 280.11 229.93 274.05 233.45 273.73 Z" />
</g>
<g id="#5f6166e3">
<path fill="#5f6166" opacity="0.89" d=" M 210.80 289.01 C 213.14 286.78 216.18 286.65 219.27 287.79 C 217.12 290.58 213.82 289.58 210.80 289.01 Z" />
</g>
</svg>
