<?xml version="1.0" encoding="UTF-8" ?>
<!DOCTYPE svg PUBLIC "-//W3C//DTD SVG 1.1//EN" "http://www.w3.org/Graphics/SVG/1.1/DTD/svg11.dtd">
<svg width="384pt" height="384pt" viewBox="0 0 384 384" version="1.1" xmlns="http://www.w3.org/2000/svg">
<g id="#0000000e">
<path fill="#000000" opacity="0.05" d=" M 0.00 0.00 L 129.60 0.00 C 135.08 2.33 141.19 1.81 146.58 4.29 C 149.69 6.58 152.95 5.60 155.97 4.26 C 157.90 6.04 154.73 9.30 157.18 10.76 C 159.06 10.57 160.90 10.11 162.79 9.90 C 162.66 12.71 158.99 17.87 163.00 18.96 C 167.35 14.90 173.88 22.11 177.15 16.12 C 183.34 19.75 190.83 13.07 196.09 18.92 C 199.17 22.98 205.46 19.23 208.99 21.96 C 208.26 22.02 206.81 22.13 206.08 22.19 C 204.34 21.67 202.23 21.43 200.90 22.95 C 194.28 25.78 195.23 14.69 188.41 18.31 C 187.11 19.58 185.93 22.11 184.30 19.74 C 180.82 15.99 176.04 18.32 173.87 21.96 C 170.93 21.46 167.34 20.22 165.83 23.77 C 165.14 28.02 165.22 33.25 160.79 35.75 C 156.59 40.32 149.48 37.53 145.04 41.84 C 141.09 42.34 142.24 47.09 140.80 49.87 C 138.18 54.38 132.48 51.33 128.73 50.25 C 126.72 43.04 124.66 32.77 131.02 26.88 C 131.21 24.64 128.00 19.61 126.79 23.80 C 125.71 28.49 122.13 24.33 120.92 22.03 C 119.00 18.68 115.29 23.23 113.59 19.58 C 109.12 20.37 100.97 14.97 100.49 21.62 C 100.29 23.79 97.83 23.09 96.48 22.46 C 90.18 18.50 83.81 26.76 77.07 24.28 C 73.61 25.92 70.15 27.87 66.74 29.74 C 64.29 32.09 60.28 28.95 58.52 32.55 C 54.43 34.42 49.56 34.78 46.11 38.07 C 41.08 42.27 33.96 38.66 29.06 43.12 C 26.50 45.31 23.40 46.21 20.16 45.57 C 17.61 48.39 14.61 52.14 10.36 51.53 C 5.65 49.98 3.67 55.84 0.00 57.61 L 0.00 0.00 Z" />
</g>
<g id="#00000017">
<path fill="#000000" opacity="0.09" d=" M 100.49 21.62 C 100.97 14.97 109.12 20.37 113.59 19.58 C 115.29 23.23 119.00 18.68 120.92 22.03 C 122.13 24.33 125.71 28.49 126.79 23.80 C 128.00 19.61 131.21 24.64 131.02 26.88 C 124.66 32.77 126.72 43.04 128.73 50.25 C 132.48 51.33 138.18 54.38 140.80 49.87 C 142.24 47.09 141.09 42.34 145.04 41.84 C 144.62 42.92 144.18 44.00 143.74 45.07 C 142.16 47.51 142.02 49.82 143.33 52.01 C 140.67 55.11 138.28 58.55 134.86 60.88 C 128.11 65.22 134.83 74.28 134.31 80.31 C 134.22 85.25 127.38 90.69 123.62 85.47 C 121.57 82.74 114.62 86.96 115.21 82.02 C 117.75 77.88 108.36 76.22 109.07 80.74 C 110.50 81.70 116.27 82.11 112.32 83.39 C 108.79 85.73 106.40 78.98 103.04 82.68 C 99.42 76.30 90.16 77.71 87.09 70.97 C 86.56 72.89 86.18 74.84 85.75 76.78 C 81.73 76.01 76.82 69.81 84.09 70.74 C 80.97 63.54 73.87 65.29 68.55 61.58 C 64.80 60.80 58.81 62.64 59.67 56.88 C 55.26 62.51 48.17 59.80 42.20 60.60 C 40.17 67.05 35.97 66.59 32.16 62.93 C 31.63 66.92 29.00 68.48 25.36 69.33 C 22.50 73.85 18.37 77.98 12.58 77.50 C 7.15 74.66 4.30 79.51 0.00 81.24 L 0.00 57.61 C 3.67 55.84 5.65 49.98 10.36 51.53 C 14.61 52.14 17.61 48.39 20.16 45.57 C 23.40 46.21 26.50 45.31 29.06 43.12 C 33.96 38.66 41.08 42.27 46.11 38.07 C 49.56 34.78 54.43 34.42 58.52 32.55 C 60.28 28.95 64.29 32.09 66.74 29.74 C 70.15 27.87 73.61 25.92 77.07 24.28 C 83.81 26.76 90.18 18.50 96.48 22.46 C 97.83 23.09 100.29 23.79 100.49 21.62 Z" />
<path fill="#000000" opacity="0.09" d=" M 0.00 241.80 C 6.96 244.57 16.21 240.33 21.46 246.49 C 28.08 247.48 35.00 247.77 41.16 250.61 C 45.22 250.41 51.23 249.74 52.19 253.87 C 58.69 250.23 52.77 259.06 57.43 258.45 C 63.83 253.00 63.07 263.08 68.65 261.28 C 72.78 258.20 75.21 264.89 78.31 266.57 C 86.84 265.11 94.90 269.98 103.50 267.53 C 106.01 266.89 104.92 272.11 107.78 270.92 C 112.19 265.41 121.94 270.30 128.82 270.67 C 141.35 268.04 153.25 274.81 165.73 272.40 C 175.32 276.43 186.07 276.34 196.13 274.25 C 203.95 273.81 214.04 274.32 219.09 267.08 C 221.93 263.13 226.86 261.96 231.23 260.54 C 244.51 265.43 259.16 264.19 272.86 261.73 C 273.78 265.56 269.47 262.90 267.43 263.65 C 264.02 265.45 260.34 266.70 257.56 269.46 C 255.34 267.91 248.63 267.35 250.43 271.64 C 251.81 275.97 246.53 276.65 243.79 274.63 C 239.59 276.54 234.98 278.94 232.77 283.83 C 227.44 280.19 221.66 285.18 217.29 287.42 C 213.57 285.68 214.59 291.13 211.04 289.89 C 201.57 286.82 194.69 294.52 185.49 292.75 C 181.41 295.18 177.70 289.02 174.13 292.79 C 175.42 285.56 166.69 292.00 163.72 288.27 C 161.25 285.36 158.37 288.88 155.89 289.90 C 153.05 289.96 155.72 283.56 152.46 285.56 C 145.43 287.64 137.84 287.10 130.67 288.74 C 127.69 289.84 122.78 284.39 123.59 290.11 C 120.71 292.26 115.06 290.47 111.16 292.51 C 106.85 289.09 101.43 292.86 96.82 290.32 C 93.26 290.82 89.08 291.84 87.54 295.50 C 85.44 295.22 83.58 295.20 83.64 297.89 C 80.81 297.26 80.03 294.36 78.82 292.12 C 76.45 293.08 74.37 295.60 71.60 294.55 C 70.76 292.83 58.36 294.98 63.61 291.53 C 62.20 286.39 54.07 289.45 50.41 287.56 C 45.01 295.99 42.17 283.98 36.19 283.88 C 38.53 289.29 31.77 284.75 30.27 288.82 C 26.15 282.12 16.29 281.97 9.25 282.76 C 7.14 279.73 4.26 275.61 0.00 276.71 L 0.00 241.80 Z" />
</g>
<g id="#555c31fa">
<path fill="#555c31" opacity="0.98" d=" M 173.87 21.96 C 176.04 18.32 180.82 15.99 184.30 19.74 C 185.93 22.11 187.11 19.58 188.41 18.31 C 195.23 14.69 194.28 25.78 200.90 22.95 C 201.10 23.45 201.51 24.43 201.71 24.93 C 199.15 25.97 196.77 23.71 194.29 23.25 C 193.87 28.19 186.80 21.99 184.68 28.18 C 185.55 33.18 181.11 31.80 178.29 30.09 C 177.29 32.55 175.59 34.31 172.99 35.01 C 167.32 37.00 162.18 42.15 155.97 40.21 C 151.54 40.49 147.05 42.83 144.92 46.87 C 149.64 44.38 151.05 48.35 153.07 51.82 C 156.88 49.63 161.15 48.81 165.52 49.04 C 166.18 53.80 165.14 57.89 160.07 54.27 C 157.65 58.89 155.23 64.00 150.07 66.07 C 141.90 66.35 151.22 73.95 149.61 78.40 C 152.28 88.11 143.48 81.14 139.49 80.30 C 138.42 77.55 135.66 75.72 134.71 79.63 L 134.31 80.31 C 134.83 74.28 128.11 65.22 134.86 60.88 C 138.28 58.55 140.67 55.11 143.33 52.01 C 144.86 49.68 145.00 47.37 143.74 45.07 C 144.18 44.00 144.62 42.92 145.04 41.84 C 149.48 37.53 156.59 40.32 160.79 35.75 C 165.22 33.25 165.14 28.02 165.83 23.77 C 167.34 20.22 170.93 21.46 173.87 21.96 Z" />
</g>
<g id="#424219a4">
<path fill="#424219" opacity="0.64" d=" M 200.90 22.95 C 202.23 21.43 204.34 21.67 206.08 22.19 C 204.64 23.45 202.64 23.46 200.90 22.95 Z" />
</g>
<g id="#8c9848fa">
<path fill="#8c9848" opacity="0.98" d=" M 206.08 22.19 C 206.81 22.13 208.26 22.02 208.99 21.96 C 210.28 23.47 211.57 25.01 212.46 26.80 C 212.65 31.52 207.38 31.47 204.00 32.68 C 201.79 30.59 203.07 27.36 201.71 24.93 C 201.51 24.43 201.10 23.45 200.90 22.95 C 202.64 23.46 204.64 23.45 206.08 22.19 Z" />
</g>
<g id="#7b813ffd">
<path fill="#7b813f" opacity="1.00" d=" M 194.29 23.25 C 196.77 23.71 199.15 25.97 201.71 24.93 C 203.07 27.36 201.79 30.59 204.00 32.68 C 207.38 31.47 212.65 31.52 212.46 26.80 C 216.60 32.74 203.69 35.31 208.85 39.53 C 210.13 39.47 212.69 39.34 213.97 39.28 L 214.73 38.92 C 218.52 38.91 222.33 38.93 226.12 38.91 C 226.42 39.16 227.02 39.64 227.32 39.89 C 226.88 41.19 226.78 42.53 227.02 43.89 C 225.34 45.22 223.67 46.56 222.02 47.92 C 218.58 48.80 215.10 49.69 211.97 51.42 C 213.43 46.89 221.03 46.41 220.01 41.12 C 216.14 41.71 212.23 41.59 208.33 41.36 C 206.17 42.36 201.98 47.05 200.72 43.26 C 200.57 38.16 193.89 36.02 195.77 30.94 C 194.24 31.59 192.80 32.40 191.28 33.04 C 193.20 29.38 188.12 27.11 186.79 31.00 C 189.28 35.86 198.29 35.49 195.99 43.05 C 195.52 46.54 201.15 47.90 196.97 50.77 C 195.42 52.59 194.88 54.95 194.21 57.19 C 191.43 63.95 185.93 69.03 181.74 74.90 C 180.57 75.99 180.59 77.67 181.01 79.09 C 181.98 84.06 181.63 89.83 185.15 93.84 C 186.64 96.42 185.37 97.18 181.33 96.13 C 182.59 99.48 180.39 106.13 186.81 104.27 C 188.66 104.34 190.27 109.08 191.48 105.60 C 192.12 100.31 196.95 100.81 201.25 100.76 C 205.27 104.46 205.34 109.88 204.74 114.92 C 204.67 116.22 204.54 118.82 204.47 120.12 C 216.48 130.97 233.18 140.94 234.11 159.05 L 233.94 160.08 C 228.15 160.83 222.50 157.33 219.29 152.68 C 218.78 150.81 220.75 146.26 217.22 147.10 C 214.87 149.27 214.88 152.46 215.56 155.35 C 208.39 151.01 205.21 143.08 199.91 137.06 C 196.77 133.54 203.63 132.52 200.89 129.06 C 195.79 133.80 193.98 124.82 192.98 120.97 C 199.73 118.84 198.51 130.04 204.93 129.05 C 204.32 124.09 202.29 119.25 202.81 114.20 C 203.99 112.62 203.12 111.17 201.98 109.90 C 199.88 107.66 198.74 103.46 195.03 103.90 C 198.20 107.89 193.39 116.01 200.03 115.63 C 199.55 122.67 194.15 115.25 192.54 112.41 C 191.21 108.62 187.71 111.79 185.14 112.29 C 184.90 110.03 185.67 107.96 186.71 106.00 C 181.90 103.03 175.22 108.89 176.48 114.01 C 174.85 115.21 170.43 120.73 171.71 115.89 C 171.52 112.55 166.03 116.93 165.55 113.57 C 165.02 109.69 159.94 110.39 159.58 114.01 C 156.88 111.72 153.80 109.99 150.75 108.24 C 152.95 107.25 152.59 105.17 152.24 103.20 C 156.55 105.43 159.04 100.82 162.82 99.88 C 166.23 104.93 174.30 102.33 178.22 99.20 C 174.72 99.33 171.23 99.48 167.73 99.68 C 172.96 98.56 178.28 97.01 179.94 91.06 C 176.16 85.94 172.26 80.75 176.81 74.90 C 176.62 76.50 177.24 77.14 178.69 76.84 C 180.03 70.17 182.99 63.91 183.96 57.20 C 181.31 54.33 180.65 57.53 180.75 60.10 C 174.18 58.51 181.86 46.91 174.29 48.15 C 172.49 50.67 175.45 54.63 174.70 57.84 C 172.55 59.69 170.61 55.66 168.86 58.66 C 164.11 55.28 172.61 53.12 171.76 49.21 C 171.89 44.58 180.58 46.44 179.68 41.35 C 182.92 33.31 166.77 42.43 172.99 35.01 C 175.59 34.31 177.29 32.55 178.29 30.09 C 181.11 31.80 185.55 33.18 184.68 28.18 C 186.80 21.99 193.87 28.19 194.29 23.25 M 201.02 34.88 C 197.95 39.38 201.61 39.95 203.91 40.90 C 206.25 39.01 203.30 35.17 201.02 34.88 M 192.32 41.30 C 188.15 45.86 195.87 45.04 192.32 41.30 M 189.22 52.14 C 187.69 52.93 188.02 54.66 187.99 56.09 C 191.89 55.91 195.49 50.34 189.22 52.14 Z" />
</g>
<g id="#90a362ff">
<path fill="#90a362" opacity="1.00" d=" M 186.79 31.00 C 188.12 27.11 193.20 29.38 191.28 33.04 C 192.80 32.40 194.24 31.59 195.77 30.94 C 193.89 36.02 200.57 38.16 200.72 43.26 C 201.98 47.05 206.17 42.36 208.33 41.36 C 212.23 41.59 216.14 41.71 220.01 41.12 C 221.03 46.41 213.43 46.89 211.97 51.42 C 211.10 48.90 204.35 45.64 206.92 50.18 C 208.89 55.68 199.73 51.20 196.97 50.77 C 201.15 47.90 195.52 46.54 195.99 43.05 C 198.29 35.49 189.28 35.86 186.79 31.00 Z" />
</g>
<g id="#62703aff">
<path fill="#62703a" opacity="1.00" d=" M 155.97 40.21 C 162.18 42.15 167.32 37.00 172.99 35.01 C 166.77 42.43 182.92 33.31 179.68 41.35 C 180.58 46.44 171.89 44.58 171.76 49.21 C 172.61 53.12 164.11 55.28 168.86 58.66 C 169.19 58.99 169.83 59.65 170.16 59.97 C 170.44 64.33 163.70 57.50 162.05 59.99 C 162.89 66.20 160.95 72.07 163.04 78.12 C 160.13 78.16 159.30 75.20 158.49 73.00 C 156.30 73.94 156.51 79.24 153.73 77.31 C 147.84 74.56 155.95 68.94 150.07 66.07 C 155.23 64.00 157.65 58.89 160.07 54.27 C 165.14 57.89 166.18 53.80 165.52 49.04 C 161.15 48.81 156.88 49.63 153.07 51.82 C 151.05 48.35 149.64 44.38 144.92 46.87 C 147.05 42.83 151.54 40.49 155.97 40.21 Z" />
</g>
<g id="#b09e7dff">
<path fill="#b09e7d" opacity="1.00" d=" M 201.02 34.88 C 203.30 35.17 206.25 39.01 203.91 40.90 C 201.61 39.95 197.95 39.38 201.02 34.88 Z" />
</g>
<g id="#454f20c8">
<path fill="#454f20" opacity="0.78" d=" M 214.73 38.92 C 218.09 37.25 222.80 37.67 226.12 38.91 C 222.33 38.93 218.52 38.91 214.73 38.92 Z" />
</g>
<g id="#2e371799">
<path fill="#2e3717" opacity="0.60" d=" M 208.85 39.53 C 210.28 38.25 212.38 38.37 213.97 39.28 C 212.69 39.34 210.13 39.47 208.85 39.53 Z" />
</g>
<g id="#4e4b1b91">
<path fill="#4e4b1b" opacity="0.57" d=" M 227.32 39.89 C 228.87 40.77 228.62 43.21 227.02 43.89 C 226.78 42.53 226.88 41.19 227.32 39.89 Z" />
</g>
<g id="#bcae90ff">
<path fill="#bcae90" opacity="1.00" d=" M 192.32 41.30 C 195.87 45.04 188.15 45.86 192.32 41.30 Z" />
</g>
<g id="#23201687">
<path fill="#232016" opacity="0.53" d=" M 143.33 52.01 C 142.02 49.82 142.16 47.51 143.74 45.07 C 145.00 47.37 144.86 49.68 143.33 52.01 Z" />
</g>
<g id="#8c9d56ff">
<path fill="#8c9d56" opacity="1.00" d=" M 174.29 48.15 C 181.86 46.91 174.18 58.51 180.75 60.10 C 180.65 57.53 181.31 54.33 183.96 57.20 C 182.99 63.91 180.03 70.17 178.69 76.84 C 177.24 77.14 176.62 76.50 176.81 74.90 C 177.77 71.12 179.14 65.60 174.95 70.34 C 172.25 72.26 170.63 75.29 167.89 77.15 C 171.23 71.56 172.07 66.32 170.16 59.97 C 169.83 59.65 169.19 58.99 168.86 58.66 C 170.61 55.66 172.55 59.69 174.70 57.84 C 175.45 54.63 172.49 50.67 174.29 48.15 Z" />
</g>
<g id="#5d702ff7">
<path fill="#5d702f" opacity="0.97" d=" M 206.92 50.18 C 204.35 45.64 211.10 48.90 211.97 51.42 C 209.35 53.59 206.03 54.55 203.03 56.06 C 200.17 54.86 197.79 55.12 195.88 56.82 C 195.46 56.91 194.63 57.09 194.21 57.19 C 194.88 54.95 195.42 52.59 196.97 50.77 C 199.73 51.20 208.89 55.68 206.92 50.18 Z" />
</g>
<g id="#00000011">
<path fill="#000000" opacity="0.07" d=" M 211.97 51.42 C 215.10 49.69 218.58 48.80 222.02 47.92 C 218.41 52.36 212.05 54.30 207.88 58.73 C 213.97 56.61 216.56 64.62 222.06 63.39 C 226.52 66.66 228.38 72.04 230.46 77.43 C 235.31 78.01 235.92 83.81 235.21 87.73 C 240.48 89.39 238.88 95.93 240.02 99.98 C 243.29 96.83 245.43 96.48 245.09 103.00 C 243.46 108.17 253.21 110.54 248.96 115.06 C 249.44 120.79 254.14 118.07 254.80 113.93 C 255.87 117.58 254.45 123.66 259.17 124.74 C 267.45 128.26 275.19 133.46 284.20 134.96 C 290.46 136.71 289.57 145.65 296.36 145.65 C 301.40 146.37 303.15 151.94 303.74 156.25 C 315.05 155.93 315.77 168.90 309.85 175.88 C 305.22 181.10 306.92 188.04 306.15 194.35 C 305.97 198.21 302.14 203.28 305.64 206.11 C 306.07 204.11 305.93 200.70 308.85 200.89 C 307.95 205.23 309.54 209.44 309.71 213.76 C 311.78 216.47 316.42 218.04 313.85 222.64 C 311.41 225.51 306.37 227.10 309.07 232.31 C 311.02 230.23 318.07 225.23 314.01 233.22 C 312.43 236.29 314.71 239.21 315.61 242.19 C 312.75 245.94 309.53 249.43 307.82 253.91 C 304.87 256.77 305.09 265.83 310.07 261.17 C 310.41 263.93 312.45 270.79 307.63 268.43 C 302.35 266.81 300.31 274.20 303.70 277.40 C 306.82 280.18 300.50 283.55 298.16 281.89 C 293.24 278.17 296.22 290.70 290.65 288.47 C 286.19 286.84 289.60 293.98 288.36 293.57 C 283.56 286.38 278.67 299.32 273.01 294.03 C 269.15 294.56 270.33 300.55 266.00 300.50 C 263.17 299.73 258.63 303.70 264.01 303.32 C 264.11 307.71 258.87 303.68 257.31 306.71 C 256.48 300.52 245.75 304.83 252.67 308.47 C 252.83 314.19 243.98 310.00 240.34 313.36 C 237.25 315.29 236.69 312.63 236.70 309.92 C 230.36 312.33 224.66 316.60 217.95 318.13 C 218.45 316.25 221.61 312.34 217.97 312.12 C 214.78 313.31 209.69 312.92 208.85 316.99 C 206.16 320.06 206.56 312.00 204.17 312.18 C 199.80 316.34 192.95 316.32 188.97 321.06 C 186.69 316.49 177.91 317.37 178.67 323.11 C 173.45 320.47 179.12 317.72 179.08 313.95 C 175.39 313.41 175.19 318.09 172.90 319.90 C 169.41 322.76 164.67 318.67 161.01 320.99 C 158.50 322.39 156.27 324.23 153.87 325.82 C 146.74 320.15 140.06 333.89 132.26 328.72 C 130.09 325.72 129.47 330.14 127.03 330.13 C 126.89 327.43 130.36 321.67 123.32 325.15 C 121.84 331.47 117.26 331.78 113.42 327.57 C 119.61 321.20 104.36 325.60 107.64 330.94 C 105.08 331.85 103.80 329.39 102.11 328.03 C 100.43 331.08 99.48 328.53 98.58 326.53 C 95.17 326.76 91.99 327.92 89.16 329.79 C 86.76 328.09 85.31 324.63 81.54 325.83 C 83.29 333.10 72.96 328.62 72.74 323.96 C 69.53 329.25 60.65 333.56 57.56 325.99 C 55.29 328.18 53.82 331.83 50.23 332.03 C 49.64 329.03 47.07 326.33 44.89 329.89 C 38.73 336.61 30.85 324.30 25.94 332.18 C 22.52 325.64 15.37 327.47 10.38 330.99 C 10.59 324.83 4.89 323.16 0.00 325.18 L 0.00 276.71 C 4.26 275.61 7.14 279.73 9.25 282.76 C 16.29 281.97 26.15 282.12 30.27 288.82 C 31.77 284.75 38.53 289.29 36.19 283.88 C 42.17 283.98 45.01 295.99 50.41 287.56 C 54.07 289.45 62.20 286.39 63.61 291.53 C 58.36 294.98 70.76 292.83 71.60 294.55 C 74.37 295.60 76.45 293.08 78.82 292.12 C 80.03 294.36 80.81 297.26 83.64 297.89 C 83.58 295.20 85.44 295.22 87.54 295.50 C 89.08 291.84 93.26 290.82 96.82 290.32 C 101.43 292.86 106.85 289.09 111.16 292.51 C 115.06 290.47 120.71 292.26 123.59 290.11 C 122.78 284.39 127.69 289.84 130.67 288.74 C 137.84 287.10 145.43 287.64 152.46 285.56 C 155.72 283.56 153.05 289.96 155.89 289.90 C 158.37 288.88 161.25 285.36 163.72 288.27 C 166.69 292.00 175.42 285.56 174.13 292.79 C 177.70 289.02 181.41 295.18 185.49 292.75 C 194.69 294.52 201.57 286.82 211.04 289.89 C 214.59 291.13 213.57 285.68 217.29 287.42 C 221.66 285.18 227.44 280.19 232.77 283.83 C 234.98 278.94 239.59 276.54 243.79 274.63 C 246.53 276.65 251.81 275.97 250.43 271.64 C 248.63 267.35 255.34 267.91 257.56 269.46 C 260.34 266.70 264.02 265.45 267.43 263.65 C 269.47 262.90 273.78 265.56 272.86 261.73 C 275.97 260.72 279.15 260.02 282.34 259.28 C 287.87 258.12 293.91 256.11 297.05 251.06 C 299.12 245.96 298.84 240.30 299.03 234.89 L 299.14 234.11 C 300.24 228.36 300.38 222.43 299.43 216.66 C 299.43 216.25 299.42 215.44 299.42 215.03 C 301.19 212.32 301.09 210.33 299.10 209.05 C 298.65 205.43 296.98 201.25 299.91 198.30 C 302.13 195.01 302.71 191.04 303.29 187.21 C 302.33 181.90 306.28 178.61 308.28 174.39 C 309.30 169.99 313.29 165.15 310.92 160.75 C 308.06 157.69 302.64 158.30 299.79 161.15 C 299.50 160.57 298.93 159.39 298.64 158.81 C 299.18 157.56 299.73 156.33 300.28 155.09 C 301.50 154.01 301.87 151.79 300.26 150.88 C 299.36 150.10 298.43 149.35 297.47 148.66 C 294.53 145.71 289.36 146.30 287.69 150.17 C 287.49 149.61 287.10 148.49 286.90 147.94 C 287.20 147.45 287.80 146.48 288.10 146.00 C 289.65 145.12 289.75 142.91 288.26 141.91 C 286.94 140.42 285.62 138.91 284.13 137.59 C 280.78 135.83 278.32 137.72 276.38 140.05 C 276.03 139.46 275.34 138.27 275.00 137.68 C 273.90 136.17 272.47 134.96 271.09 133.73 C 270.07 132.33 267.87 132.27 266.89 133.74 C 263.95 136.05 261.87 139.14 260.48 142.58 C 259.20 146.62 252.06 140.08 251.64 144.86 C 251.61 150.38 247.14 153.86 245.41 158.70 C 241.64 158.92 237.87 159.03 234.11 159.05 C 233.18 140.94 216.48 130.97 204.47 120.12 C 205.73 118.65 205.64 116.54 204.74 114.92 C 205.34 109.88 205.27 104.46 201.25 100.76 C 197.48 95.43 189.77 98.19 185.15 93.84 C 181.63 89.83 181.98 84.06 181.01 79.09 C 182.52 78.21 182.33 76.29 181.74 74.90 C 185.93 69.03 191.43 63.95 194.21 57.19 C 194.63 57.09 195.46 56.91 195.88 56.82 C 198.84 58.21 201.22 57.95 203.03 56.06 C 206.03 54.55 209.35 53.59 211.97 51.42 Z" />
</g>
<g id="#b49e7dff">
<path fill="#b49e7d" opacity="1.00" d=" M 189.22 52.14 C 195.49 50.34 191.89 55.91 187.99 56.09 C 188.02 54.66 187.69 52.93 189.22 52.14 Z" />
</g>
<g id="#19200c89">
<path fill="#19200c" opacity="0.54" d=" M 195.88 56.82 C 197.79 55.12 200.17 54.86 203.03 56.06 C 201.22 57.95 198.84 58.21 195.88 56.82 Z" />
</g>
<g id="#0000001f">
<path fill="#000000" opacity="0.12" d=" M 42.20 60.60 C 48.17 59.80 55.26 62.51 59.67 56.88 C 58.81 62.64 64.80 60.80 68.55 61.58 C 73.87 65.29 80.97 63.54 84.09 70.74 C 76.82 69.81 81.73 76.01 85.75 76.78 C 86.18 74.84 86.56 72.89 87.09 70.97 C 90.16 77.71 99.42 76.30 103.04 82.68 C 106.40 78.98 108.79 85.73 112.32 83.39 C 116.27 82.11 110.50 81.70 109.07 80.74 C 108.36 76.22 117.75 77.88 115.21 82.02 C 114.62 86.96 121.57 82.74 123.62 85.47 C 127.38 90.69 134.22 85.25 134.31 80.31 L 134.71 79.63 L 134.93 80.75 C 135.17 85.62 132.69 90.05 131.87 94.77 C 131.48 97.10 131.13 99.44 130.82 101.79 C 127.45 107.20 124.72 115.10 117.13 114.95 C 110.15 111.46 102.88 108.28 94.78 109.33 C 88.83 104.83 81.84 104.84 75.07 102.25 C 73.71 109.82 65.10 101.30 61.64 105.64 C 59.21 108.19 55.51 107.52 52.34 108.34 C 49.50 111.80 47.12 115.91 43.05 118.13 C 42.34 116.52 42.07 114.78 41.68 113.08 C 37.66 115.74 34.62 120.68 29.12 120.22 C 21.66 127.08 9.63 123.24 0.00 125.11 L 0.00 81.24 C 4.30 79.51 7.15 74.66 12.58 77.50 C 18.37 77.98 22.50 73.85 25.36 69.33 C 29.00 68.48 31.63 66.92 32.16 62.93 C 35.97 66.59 40.17 67.05 42.20 60.60 Z" />
<path fill="#000000" opacity="0.12" d=" M 0.00 229.16 C 29.04 234.72 58.61 237.48 87.36 244.57 C 108.02 251.72 129.41 256.31 150.88 260.26 C 159.34 261.35 167.19 268.87 176.10 265.88 C 178.61 266.78 181.11 267.80 183.76 268.20 C 188.14 269.02 192.62 268.84 197.06 269.04 C 197.98 269.39 198.91 269.74 199.84 270.08 C 202.84 270.95 206.28 271.67 209.24 270.26 C 209.74 270.05 210.75 269.62 211.26 269.40 C 214.83 268.18 217.39 265.35 219.31 262.21 C 223.02 260.56 227.36 257.65 231.23 260.54 C 226.86 261.96 221.93 263.13 219.09 267.08 C 214.04 274.32 203.95 273.81 196.13 274.25 C 186.07 276.34 175.32 276.43 165.73 272.40 C 153.25 274.81 141.35 268.04 128.82 270.67 C 121.94 270.30 112.19 265.41 107.78 270.92 C 104.92 272.11 106.01 266.89 103.50 267.53 C 94.90 269.98 86.84 265.11 78.31 266.57 C 75.21 264.89 72.78 258.20 68.65 261.28 C 63.07 263.08 63.83 253.00 57.43 258.45 C 52.77 259.06 58.69 250.23 52.19 253.87 C 51.23 249.74 45.22 250.41 41.16 250.61 C 35.00 247.77 28.08 247.48 21.46 246.49 C 16.21 240.33 6.96 244.57 0.00 241.80 L 0.00 229.16 Z" />
</g>
<g id="#6f8442ff">
<path fill="#6f8442" opacity="1.00" d=" M 162.05 59.99 C 163.70 57.50 170.44 64.33 170.16 59.97 C 172.07 66.32 171.23 71.56 167.89 77.15 C 170.63 75.29 172.25 72.26 174.95 70.34 C 176.46 73.61 172.37 76.30 171.59 79.30 C 172.37 84.72 164.70 88.64 160.81 85.20 C 155.74 81.73 150.43 89.61 144.93 86.02 C 141.78 83.93 138.29 82.46 134.93 80.75 L 134.71 79.63 C 135.66 75.72 138.42 77.55 139.49 80.30 C 143.48 81.14 152.28 88.11 149.61 78.40 C 151.22 73.95 141.90 66.35 150.07 66.07 C 155.95 68.94 147.84 74.56 153.73 77.31 C 156.51 79.24 156.30 73.94 158.49 73.00 C 159.30 75.20 160.13 78.16 163.04 78.12 C 160.95 72.07 162.89 66.20 162.05 59.99 Z" />
</g>
<g id="#627030ff">
<path fill="#627030" opacity="1.00" d=" M 174.95 70.34 C 179.14 65.60 177.77 71.12 176.81 74.90 C 172.26 80.75 176.16 85.94 179.94 91.06 C 178.28 97.01 172.96 98.56 167.73 99.68 C 171.23 99.48 174.72 99.33 178.22 99.20 C 174.30 102.33 166.23 104.93 162.82 99.88 C 165.56 96.22 157.99 93.48 159.84 89.11 C 156.74 82.87 144.83 93.96 144.93 86.02 C 150.43 89.61 155.74 81.73 160.81 85.20 C 164.70 88.64 172.37 84.72 171.59 79.30 C 172.37 76.30 176.46 73.61 174.95 70.34 Z" />
</g>
<g id="#3842219b">
<path fill="#384221" opacity="0.61" d=" M 181.01 79.09 C 180.59 77.67 180.57 75.99 181.74 74.90 C 182.33 76.29 182.52 78.21 181.01 79.09 Z" />
</g>
<g id="#585d33fe">
<path fill="#585d33" opacity="1.00" d=" M 134.93 80.75 C 138.29 82.46 141.78 83.93 144.93 86.02 C 144.83 93.96 156.74 82.87 159.84 89.11 C 157.99 93.48 165.56 96.22 162.82 99.88 C 159.04 100.82 156.55 105.43 152.24 103.20 C 152.59 105.17 152.95 107.25 150.75 108.24 C 149.50 103.57 141.52 100.05 139.83 106.64 C 140.67 110.65 136.33 111.02 134.13 113.26 C 133.56 117.59 141.91 118.34 139.37 124.14 C 143.52 123.70 141.13 119.13 141.27 116.26 C 146.38 115.88 150.98 113.37 156.08 113.02 C 157.01 119.57 146.21 115.67 145.42 121.49 C 149.06 123.72 152.84 133.04 157.02 128.28 C 157.29 128.00 157.82 127.43 158.08 127.15 L 158.82 126.88 C 161.20 126.61 163.59 126.28 165.98 126.04 C 168.11 126.48 168.48 124.25 169.25 122.82 C 173.16 123.74 170.27 129.15 167.02 129.06 C 160.40 127.85 163.96 136.21 158.52 137.56 C 159.72 141.14 156.48 141.03 153.99 142.15 C 155.60 145.69 158.52 150.18 163.13 148.12 C 161.93 159.76 152.19 141.76 148.93 149.98 C 146.73 153.16 153.06 153.52 153.42 156.63 C 154.42 159.41 150.75 162.18 153.19 164.94 C 158.07 164.09 162.84 157.06 168.14 160.65 C 174.35 158.32 174.96 169.51 171.93 173.00 C 174.99 173.04 181.40 169.20 177.98 176.95 C 173.81 174.54 165.19 178.10 171.24 182.56 C 174.33 180.55 176.94 181.56 178.04 185.08 C 173.66 182.86 169.03 185.37 170.46 190.38 C 173.13 193.50 177.47 194.45 179.86 197.69 C 180.68 198.88 182.48 200.04 181.07 201.54 C 178.48 200.64 176.66 198.76 175.52 196.31 C 172.26 196.72 168.93 197.21 166.07 195.14 C 166.09 192.76 166.46 190.40 166.79 188.04 C 160.84 189.71 154.38 184.85 149.18 189.37 C 147.17 195.18 153.80 197.65 157.60 200.21 C 156.16 193.39 161.94 191.81 166.07 195.14 C 162.69 194.52 160.00 198.59 164.77 198.30 C 167.53 197.54 169.57 199.21 168.44 202.04 C 168.94 204.54 173.10 205.49 172.18 208.76 C 168.50 207.58 164.79 206.42 160.96 205.87 C 163.54 209.02 166.04 212.35 169.57 214.52 C 170.28 216.66 174.50 218.57 171.59 220.55 C 165.54 225.35 169.21 233.91 173.12 238.93 C 167.58 237.38 161.16 231.47 161.02 225.09 C 160.61 221.61 168.21 221.98 164.79 219.08 C 160.50 219.44 156.11 220.33 152.07 221.91 C 151.40 214.40 144.86 211.52 137.86 213.10 C 137.12 212.45 136.41 211.76 135.74 211.03 C 140.18 205.07 136.84 199.12 137.78 192.76 C 134.57 196.34 129.41 197.58 130.67 190.88 C 133.39 190.38 136.02 189.32 136.49 186.24 C 141.62 187.56 147.19 190.57 150.98 184.99 C 155.44 177.64 161.19 186.65 166.43 185.30 C 168.20 183.07 163.32 180.62 165.05 178.02 C 166.76 174.47 161.49 172.87 158.90 172.05 C 159.48 173.81 160.22 175.51 160.83 177.27 C 154.35 174.41 147.59 169.39 140.10 171.36 C 137.34 171.15 135.52 168.71 133.00 167.82 C 132.67 170.13 134.84 173.15 132.76 174.90 C 130.36 175.07 128.25 173.63 126.04 172.92 C 126.02 171.34 126.09 169.76 126.18 168.19 C 128.28 161.97 128.93 155.46 128.83 148.93 C 128.78 145.88 129.69 142.61 128.27 139.77 C 126.11 135.38 122.71 131.28 123.97 125.96 C 123.92 124.20 123.81 120.66 123.76 118.89 C 125.57 113.96 128.35 109.53 131.13 105.12 C 132.32 101.83 131.84 98.20 131.87 94.77 C 132.69 90.05 135.17 85.62 134.93 80.75 Z" />
</g>
<g id="#676431fa">
<path fill="#676431" opacity="0.98" d=" M 185.15 93.84 C 189.77 98.19 197.48 95.43 201.25 100.76 C 196.95 100.81 192.12 100.31 191.48 105.60 C 190.27 109.08 188.66 104.34 186.81 104.27 C 180.39 106.13 182.59 99.48 181.33 96.13 C 185.37 97.18 186.64 96.42 185.15 93.84 Z" />
</g>
<g id="#36381fa6">
<path fill="#36381f" opacity="0.65" d=" M 130.82 101.79 C 131.13 99.44 131.48 97.10 131.87 94.77 C 131.84 98.20 132.32 101.83 131.13 105.12 C 131.05 104.28 130.90 102.62 130.82 101.79 Z" />
</g>
<g id="#00000028">
<path fill="#000000" opacity="0.16" d=" M 75.07 102.25 C 81.84 104.84 88.83 104.83 94.78 109.33 C 102.88 108.28 110.15 111.46 117.13 114.95 C 124.72 115.10 127.45 107.20 130.82 101.79 C 130.90 102.62 131.05 104.28 131.13 105.12 C 128.35 109.53 125.57 113.96 123.76 118.89 C 122.18 121.34 122.00 123.70 123.21 125.98 C 122.19 129.13 123.82 135.84 118.66 135.55 C 79.10 135.99 39.61 130.26 0.00 134.06 L 0.00 125.11 C 9.63 123.24 21.66 127.08 29.12 120.22 C 34.62 120.68 37.66 115.74 41.68 113.08 C 42.07 114.78 42.34 116.52 43.05 118.13 C 47.12 115.91 49.50 111.80 52.34 108.34 C 55.51 107.52 59.21 108.19 61.64 105.64 C 65.10 101.30 73.71 109.82 75.07 102.25 Z" />
</g>
<g id="#6a6f40ff">
<path fill="#6a6f40" opacity="1.00" d=" M 139.83 106.64 C 141.52 100.05 149.50 103.57 150.75 108.24 C 153.80 109.99 156.88 111.72 159.58 114.01 C 161.65 118.07 164.33 121.71 165.98 126.04 C 163.59 126.28 161.20 126.61 158.82 126.88 C 159.05 123.76 162.96 120.22 158.71 118.17 C 151.83 115.46 151.01 128.52 157.02 128.28 C 152.84 133.04 149.06 123.72 145.42 121.49 C 146.21 115.67 157.01 119.57 156.08 113.02 C 150.98 113.37 146.38 115.88 141.27 116.26 C 141.13 119.13 143.52 123.70 139.37 124.14 C 141.91 118.34 133.56 117.59 134.13 113.26 C 136.33 111.02 140.67 110.65 139.83 106.64 Z" />
</g>
<g id="#8d975dff">
<path fill="#8d975d" opacity="1.00" d=" M 195.03 103.90 C 198.74 103.46 199.88 107.66 201.98 109.90 C 196.99 109.02 199.20 114.27 202.81 114.20 C 202.29 119.25 204.32 124.09 204.93 129.05 C 198.51 130.04 199.73 118.84 192.98 120.97 C 193.98 124.82 195.79 133.80 200.89 129.06 C 203.63 132.52 196.77 133.54 199.91 137.06 C 198.29 136.43 196.69 135.78 195.07 135.14 C 193.78 132.59 193.93 129.66 192.89 127.08 C 189.61 127.80 186.13 129.39 182.79 128.21 C 181.20 124.80 179.95 121.18 177.76 118.08 C 174.58 116.96 174.59 120.62 173.62 122.64 C 172.25 122.89 169.98 121.38 169.25 122.82 C 168.48 124.25 168.11 126.48 165.98 126.04 C 164.33 121.71 161.65 118.07 159.58 114.01 C 159.94 110.39 165.02 109.69 165.55 113.57 C 166.03 116.93 171.52 112.55 171.71 115.89 C 170.43 120.73 174.85 115.21 176.48 114.01 C 178.12 112.64 178.91 115.19 180.08 115.98 C 181.90 114.94 183.55 113.64 185.14 112.29 C 187.71 111.79 191.21 108.62 192.54 112.41 C 194.15 115.25 199.55 122.67 200.03 115.63 C 193.39 116.01 198.20 107.89 195.03 103.90 Z" />
</g>
<g id="#75713eff">
<path fill="#75713e" opacity="1.00" d=" M 176.48 114.01 C 175.22 108.89 181.90 103.03 186.71 106.00 C 185.67 107.96 184.90 110.03 185.14 112.29 C 183.55 113.64 181.90 114.94 180.08 115.98 C 178.91 115.19 178.12 112.64 176.48 114.01 Z" />
</g>
<g id="#c1b094ff">
<path fill="#c1b094" opacity="1.00" d=" M 202.81 114.20 C 199.20 114.27 196.99 109.02 201.98 109.90 C 203.12 111.17 203.99 112.62 202.81 114.20 Z" />
</g>
<g id="#3c3818a3">
<path fill="#3c3818" opacity="0.64" d=" M 204.47 120.12 C 204.54 118.82 204.67 116.22 204.74 114.92 C 205.64 116.54 205.73 118.65 204.47 120.12 Z" />
</g>
<g id="#96885eff">
<path fill="#96885e" opacity="1.00" d=" M 157.02 128.28 C 151.01 128.52 151.83 115.46 158.71 118.17 C 162.96 120.22 159.05 123.76 158.82 126.88 L 158.08 127.15 C 158.07 120.76 151.75 127.86 158.08 127.15 C 157.82 127.43 157.29 128.00 157.02 128.28 Z" />
</g>
<g id="#75793fff">
<path fill="#75793f" opacity="1.00" d=" M 173.62 122.64 C 174.59 120.62 174.58 116.96 177.76 118.08 C 179.95 121.18 181.20 124.80 182.79 128.21 C 186.13 129.39 189.61 127.80 192.89 127.08 C 193.93 129.66 193.78 132.59 195.07 135.14 C 189.16 134.73 185.33 128.04 178.78 129.97 C 185.03 133.93 182.55 143.06 188.24 147.83 C 194.51 149.45 186.92 142.18 190.70 139.71 C 194.76 136.71 198.37 142.67 200.02 146.02 C 198.23 145.53 195.20 144.06 195.09 147.09 C 193.88 150.47 198.37 147.79 200.08 147.94 C 200.04 149.68 199.18 151.22 198.53 152.79 C 193.83 149.27 187.41 151.37 182.32 148.82 C 176.37 140.63 177.94 162.75 174.56 153.23 C 172.67 153.06 170.15 154.68 169.06 152.44 C 170.60 151.13 174.27 151.01 173.88 148.44 C 170.54 148.57 170.24 145.14 172.58 143.43 C 171.15 138.94 168.24 143.58 166.04 145.02 C 163.11 139.19 168.27 134.50 167.02 129.06 C 170.27 129.15 173.16 123.74 169.25 122.82 C 169.98 121.38 172.25 122.89 173.62 122.64 Z" />
</g>
<g id="#33361ca0">
<path fill="#33361c" opacity="0.63" d=" M 123.21 125.98 C 122.00 123.70 122.18 121.34 123.76 118.89 C 123.81 120.66 123.92 124.20 123.97 125.96 L 123.21 125.98 Z" />
</g>
<g id="#d2c7b7ff">
<path fill="#d2c7b7" opacity="1.00" d=" M 158.08 127.15 C 158.07 120.76 151.75 127.86 158.08 127.15 Z" />
</g>
<g id="#00000037">
<path fill="#000000" opacity="0.22" d=" M 123.21 125.98 L 123.97 125.96 C 122.71 131.28 126.11 135.38 128.27 139.77 C 128.21 141.20 128.12 142.62 127.99 144.05 C 85.41 141.80 42.54 135.22 0.00 140.82 L 0.00 134.06 C 39.61 130.26 79.10 135.99 118.66 135.55 C 123.82 135.84 122.19 129.13 123.21 125.98 Z" />
</g>
<g id="#636f3fff">
<path fill="#636f3f" opacity="1.00" d=" M 158.52 137.56 C 163.96 136.21 160.40 127.85 167.02 129.06 C 168.27 134.50 163.11 139.19 166.04 145.02 C 168.24 143.58 171.15 138.94 172.58 143.43 C 170.24 145.14 170.54 148.57 173.88 148.44 C 174.27 151.01 170.60 151.13 169.06 152.44 C 170.15 154.68 172.67 153.06 174.56 153.23 C 177.94 162.75 176.37 140.63 182.32 148.82 C 184.80 153.42 182.19 158.62 177.97 160.80 C 182.58 160.99 180.14 165.09 182.65 166.97 C 184.18 162.90 188.99 161.67 185.85 166.98 C 185.40 167.89 185.00 168.81 184.67 169.77 C 184.36 174.49 178.68 182.62 185.78 184.33 C 183.94 185.50 183.95 187.34 184.55 189.23 C 184.38 190.16 184.16 191.10 183.91 192.02 C 180.97 191.59 182.56 193.24 183.63 194.58 C 182.40 195.65 180.91 196.41 179.86 197.69 C 177.47 194.45 173.13 193.50 170.46 190.38 C 169.03 185.37 173.66 182.86 178.04 185.08 C 176.94 181.56 174.33 180.55 171.24 182.56 C 165.19 178.10 173.81 174.54 177.98 176.95 C 181.40 169.20 174.99 173.04 171.93 173.00 C 174.96 169.51 174.35 158.32 168.14 160.65 C 162.84 157.06 158.07 164.09 153.19 164.94 C 150.75 162.18 154.42 159.41 153.42 156.63 C 153.06 153.52 146.73 153.16 148.93 149.98 C 152.19 141.76 161.93 159.76 163.13 148.12 C 158.52 150.18 155.60 145.69 153.99 142.15 C 156.48 141.03 159.72 141.14 158.52 137.56 Z" />
</g>
<g id="#5a5f2bff">
<path fill="#5a5f2b" opacity="1.00" d=" M 178.78 129.97 C 185.33 128.04 189.16 134.73 195.07 135.14 C 196.69 135.78 198.29 136.43 199.91 137.06 C 205.21 143.08 208.39 151.01 215.56 155.35 C 214.88 152.46 214.87 149.27 217.22 147.10 C 220.75 146.26 218.78 150.81 219.29 152.68 C 222.50 157.33 228.15 160.83 233.94 160.08 C 237.22 163.64 246.04 160.20 246.07 165.89 C 244.28 164.59 243.44 166.21 242.61 167.65 C 240.68 166.12 238.76 164.21 236.77 166.78 C 233.82 166.38 230.76 165.67 228.98 168.71 C 226.80 167.67 224.57 167.51 222.45 168.77 C 221.44 163.25 210.96 165.10 210.56 170.01 C 205.24 166.22 209.79 157.17 199.91 157.19 C 195.77 157.71 198.73 155.11 198.53 152.79 C 199.18 151.22 200.04 149.68 200.08 147.94 C 200.06 147.46 200.03 146.50 200.02 146.02 C 198.37 142.67 194.76 136.71 190.70 139.71 C 186.92 142.18 194.51 149.45 188.24 147.83 C 182.55 143.06 185.03 133.93 178.78 129.97 Z" />
</g>
<g id="#22261086">
<path fill="#222610" opacity="0.53" d=" M 266.89 133.74 C 267.87 132.27 270.07 132.33 271.09 133.73 C 269.68 134.18 268.28 134.18 266.89 133.74 Z" />
</g>
<g id="#566638fa">
<path fill="#566638" opacity="0.98" d=" M 260.48 142.58 C 261.87 139.14 263.95 136.05 266.89 133.74 C 268.28 134.18 269.68 134.18 271.09 133.73 C 272.47 134.96 273.90 136.17 275.00 137.68 C 267.53 141.84 269.36 157.16 259.29 155.89 C 256.97 151.92 253.56 148.79 251.64 144.86 C 252.06 140.08 259.20 146.62 260.48 142.58 Z" />
</g>
<g id="#586a39fe">
<path fill="#586a39" opacity="1.00" d=" M 276.38 140.05 C 278.32 137.72 280.78 135.83 284.13 137.59 C 279.94 136.62 279.88 142.74 283.88 142.44 C 283.60 145.78 277.11 145.49 279.61 150.09 C 276.88 152.75 270.68 156.07 273.87 161.11 C 275.84 164.67 279.03 161.91 281.02 159.96 C 278.86 166.04 275.85 171.74 272.33 177.13 C 273.42 170.82 266.66 170.93 264.00 175.12 C 267.20 169.30 270.04 162.94 268.29 156.11 C 270.50 150.54 273.50 145.31 276.38 140.05 Z" />
</g>
<g id="#00000047">
<path fill="#000000" opacity="0.28" d=" M 0.00 140.82 C 42.54 135.22 85.41 141.80 127.99 144.05 C 128.18 145.39 127.63 146.17 126.35 146.39 C 86.17 147.08 44.14 137.68 5.07 149.84 C 3.46 149.16 2.07 150.53 0.95 151.51 C 18.57 159.64 38.80 158.30 57.69 159.30 C 80.56 160.21 103.37 162.77 126.02 166.15 C 126.06 166.66 126.14 167.68 126.18 168.19 C 126.09 169.76 126.02 171.34 126.04 172.92 C 126.05 173.41 126.07 174.39 126.08 174.88 C 125.29 172.73 125.13 170.11 122.73 169.25 C 82.26 162.23 40.74 166.80 0.00 161.84 L 0.00 140.82 Z" />
</g>
<g id="#3f4b24fe">
<path fill="#3f4b24" opacity="1.00" d=" M 259.29 155.89 C 269.36 157.16 267.53 141.84 275.00 137.68 C 275.34 138.27 276.03 139.46 276.38 140.05 C 273.50 145.31 270.50 150.54 268.29 156.11 C 270.04 162.94 267.20 169.30 264.00 175.12 C 262.99 177.81 262.87 180.78 265.74 182.31 C 269.30 184.96 270.98 179.52 272.33 177.13 C 275.85 171.74 278.86 166.04 281.02 159.96 C 282.78 155.86 284.62 151.78 286.90 147.94 C 287.10 148.49 287.49 149.61 287.69 150.17 C 283.91 160.63 286.45 175.26 276.24 182.38 C 272.92 186.91 276.75 190.51 280.97 190.86 C 284.08 193.51 280.09 197.48 277.42 194.59 C 274.16 191.30 268.78 191.12 266.50 195.63 C 262.81 192.69 254.79 186.08 252.27 193.31 C 250.04 199.23 258.81 200.00 262.41 200.52 C 266.84 201.61 271.46 202.67 274.89 199.03 C 275.70 201.25 276.39 203.52 276.87 205.83 C 272.16 208.40 267.32 204.22 262.67 203.26 C 266.58 207.52 264.74 218.67 272.99 215.01 C 265.90 221.56 281.70 230.17 272.41 233.84 C 271.67 232.64 271.60 229.13 269.57 230.91 C 269.45 230.59 269.20 229.94 269.08 229.62 C 268.08 224.60 261.71 221.35 257.28 224.28 C 254.14 225.49 248.32 218.22 247.49 224.63 C 245.00 230.11 253.62 231.47 252.57 236.52 C 255.17 237.49 261.13 240.95 254.99 241.37 C 255.19 244.33 258.36 245.31 260.22 247.08 C 260.83 248.14 261.44 249.22 262.14 250.25 C 264.19 252.37 268.72 251.50 269.18 255.66 C 263.28 258.76 257.03 257.31 251.28 254.77 C 249.00 252.42 251.45 247.10 247.01 246.98 C 244.08 246.84 243.57 244.62 244.15 242.12 C 247.77 236.76 239.30 238.88 238.30 234.67 C 236.84 231.45 232.52 232.54 230.13 230.22 C 234.10 229.46 232.81 224.44 234.61 221.64 C 235.52 219.06 239.94 217.74 241.22 220.76 C 242.93 222.46 241.82 227.17 244.79 226.88 C 246.41 222.31 251.29 219.47 249.03 214.15 C 257.51 213.81 256.05 203.17 251.29 198.87 C 250.40 197.93 249.47 197.03 248.65 196.04 C 249.74 191.81 253.33 189.23 255.98 186.08 C 254.44 181.64 251.41 178.48 247.26 182.49 C 248.36 176.85 246.53 171.46 246.07 165.89 C 246.04 160.20 237.22 163.64 233.94 160.08 L 234.11 159.05 C 237.87 159.03 241.64 158.92 245.41 158.70 C 247.14 153.86 251.61 150.38 251.64 144.86 C 253.56 148.79 256.97 151.92 259.29 155.89 M 251.05 166.00 C 251.23 169.67 249.53 174.53 253.25 176.83 C 255.92 177.74 255.76 173.36 258.08 173.14 C 261.34 173.27 260.12 169.01 257.28 169.65 C 255.80 167.32 254.21 165.04 251.05 166.00 Z" />
</g>
<g id="#839458fd">
<path fill="#839458" opacity="1.00" d=" M 283.88 142.44 C 279.88 142.74 279.94 136.62 284.13 137.59 C 285.62 138.91 286.94 140.42 288.26 141.91 C 287.82 143.25 287.77 144.62 288.10 146.00 C 287.80 146.48 287.20 147.45 286.90 147.94 C 284.62 151.78 282.78 155.86 281.02 159.96 C 279.03 161.91 275.84 164.67 273.87 161.11 C 270.68 156.07 276.88 152.75 279.61 150.09 C 277.11 145.49 283.60 145.78 283.88 142.44 Z" />
</g>
<g id="#00000056">
<path fill="#000000" opacity="0.34" d=" M 128.27 139.77 C 129.69 142.61 128.78 145.88 128.83 148.93 C 108.44 149.78 88.13 147.20 67.89 150.18 C 68.24 155.52 72.87 154.98 76.99 154.21 C 92.56 159.78 110.07 158.63 125.78 164.24 C 125.84 164.72 125.96 165.67 126.02 166.15 C 103.37 162.77 80.56 160.21 57.69 159.30 C 38.80 158.30 18.57 159.64 0.95 151.51 C 2.07 150.53 3.46 149.16 5.07 149.84 C 44.14 137.68 86.17 147.08 126.35 146.39 C 127.63 146.17 128.18 145.39 127.99 144.05 C 128.12 142.62 128.21 141.20 128.27 139.77 Z" />
</g>
<g id="#3f452482">
<path fill="#3f4524" opacity="0.51" d=" M 288.26 141.91 C 289.75 142.91 289.65 145.12 288.10 146.00 C 287.77 144.62 287.82 143.25 288.26 141.91 Z" />
</g>
<g id="#ab9b83ff">
<path fill="#ab9b83" opacity="1.00" d=" M 195.09 147.09 C 195.20 144.06 198.23 145.53 200.02 146.02 C 200.03 146.50 200.06 147.46 200.08 147.94 C 198.37 147.79 193.88 150.47 195.09 147.09 Z" />
</g>
<g id="#5d6d3bfe">
<path fill="#5d6d3b" opacity="1.00" d=" M 287.69 150.17 C 289.36 146.30 294.53 145.71 297.47 148.66 C 297.25 155.66 291.62 160.47 287.00 165.00 C 288.37 167.32 289.76 171.01 293.04 169.07 C 291.97 173.98 288.80 177.93 286.36 182.20 C 287.25 176.85 281.01 179.95 279.12 182.26 C 278.98 185.09 281.17 187.45 282.09 190.04 C 281.81 190.24 281.25 190.65 280.97 190.86 C 276.75 190.51 272.92 186.91 276.24 182.38 C 286.45 175.26 283.91 160.63 287.69 150.17 Z" />
</g>
<g id="#00000067">
<path fill="#000000" opacity="0.40" d=" M 67.89 150.18 C 88.13 147.20 108.44 149.78 128.83 148.93 C 128.93 155.46 128.28 161.97 126.18 168.19 C 126.14 167.68 126.06 166.66 126.02 166.15 C 125.96 165.67 125.84 164.72 125.78 164.24 C 110.07 158.63 92.56 159.78 76.99 154.21 C 72.87 154.98 68.24 155.52 67.89 150.18 Z" />
</g>
<g id="#838b4eff">
<path fill="#838b4e" opacity="1.00" d=" M 182.32 148.82 C 187.41 151.37 193.83 149.27 198.53 152.79 C 198.73 155.11 195.77 157.71 199.91 157.19 C 195.85 164.97 209.00 160.16 203.19 168.81 C 201.74 166.56 195.77 165.24 196.02 168.39 C 198.42 169.10 202.90 168.26 199.80 173.45 C 194.08 174.26 199.94 179.30 200.97 182.12 C 193.67 182.07 195.45 173.02 193.72 168.26 C 191.13 167.65 188.48 167.40 185.85 166.98 C 188.99 161.67 184.18 162.90 182.65 166.97 C 180.14 165.09 182.58 160.99 177.97 160.80 C 182.19 158.62 184.80 153.42 182.32 148.82 Z" />
</g>
<g id="#85975dfb">
<path fill="#85975d" opacity="1.00" d=" M 297.47 148.66 C 298.43 149.35 299.36 150.10 300.26 150.88 C 299.81 152.28 299.82 153.68 300.28 155.09 C 299.73 156.33 299.18 157.56 298.64 158.81 C 297.32 161.44 296.04 164.09 294.79 166.75 C 294.20 167.52 293.62 168.30 293.04 169.07 C 289.76 171.01 288.37 167.32 287.00 165.00 C 291.62 160.47 297.25 155.66 297.47 148.66 Z" />
</g>
<g id="#4d56309b">
<path fill="#4d5630" opacity="0.61" d=" M 300.26 150.88 C 301.87 151.79 301.50 154.01 300.28 155.09 C 299.82 153.68 299.81 152.28 300.26 150.88 Z" />
</g>
<g id="#6c7c44ff">
<path fill="#6c7c44" opacity="1.00" d=" M 199.91 157.19 C 209.79 157.17 205.24 166.22 210.56 170.01 C 210.96 165.10 221.44 163.25 222.45 168.77 C 224.57 167.51 226.80 167.67 228.98 168.71 C 230.76 165.67 233.82 166.38 236.77 166.78 C 238.76 164.21 240.68 166.12 242.61 167.65 C 243.44 166.21 244.28 164.59 246.07 165.89 C 246.53 171.46 248.36 176.85 247.26 182.49 C 243.72 180.35 241.47 177.56 236.95 180.77 C 231.61 175.19 226.10 184.93 220.85 183.30 C 219.62 177.07 217.39 183.28 219.67 186.03 C 217.18 187.15 215.35 185.97 214.07 183.80 C 213.54 183.30 212.91 183.41 212.18 184.13 C 209.27 181.99 211.43 178.91 211.90 176.15 C 210.35 174.23 208.28 174.99 208.54 177.50 C 208.44 187.55 206.95 178.90 204.84 177.15 C 202.00 175.40 200.85 171.55 203.19 168.81 C 209.00 160.16 195.85 164.97 199.91 157.19 Z" />
</g>
<g id="#12170970">
<path fill="#121709" opacity="0.44" d=" M 294.79 166.75 C 296.04 164.09 297.32 161.44 298.64 158.81 C 298.93 159.39 299.50 160.57 299.79 161.15 L 299.74 161.90 C 299.06 164.98 293.35 174.59 294.79 166.75 Z" />
</g>
<g id="#6a763afa">
<path fill="#6a763a" opacity="0.98" d=" M 299.79 161.15 C 302.64 158.30 308.06 157.69 310.92 160.75 C 307.07 162.50 307.36 172.02 303.02 168.18 C 301.54 170.14 300.69 172.52 300.95 175.00 C 303.40 174.95 305.84 174.75 308.28 174.39 C 306.28 178.61 302.33 181.90 303.29 187.21 C 301.74 185.37 304.15 176.40 299.51 178.40 C 296.57 182.15 291.21 190.89 298.55 192.47 C 298.50 194.58 297.60 197.05 299.91 198.30 C 296.98 201.25 298.65 205.43 299.10 209.05 C 299.30 206.00 295.76 199.21 292.46 203.54 C 290.78 202.52 289.39 201.08 287.86 199.85 C 285.49 195.58 292.29 198.06 292.29 194.16 C 291.22 194.51 290.16 194.87 289.11 195.25 C 290.45 189.44 292.15 183.38 295.36 178.38 C 301.08 175.07 298.91 167.43 299.74 161.90 L 299.79 161.15 Z" />
</g>
<g id="#97a563fa">
<path fill="#97a563" opacity="0.98" d=" M 303.02 168.18 C 307.36 172.02 307.07 162.50 310.92 160.75 C 313.29 165.15 309.30 169.99 308.28 174.39 C 305.84 174.75 303.40 174.95 300.95 175.00 C 300.69 172.52 301.54 170.14 303.02 168.18 Z" />
</g>
<g id="#00000038">
<path fill="#000000" opacity="0.22" d=" M 0.00 161.84 C 40.74 166.80 82.26 162.23 122.73 169.25 C 125.13 170.11 125.29 172.73 126.08 174.88 C 127.83 178.34 131.18 180.44 134.81 181.46 C 135.19 185.06 131.62 187.56 130.67 190.88 C 130.32 193.47 130.17 196.13 130.09 198.76 C 127.68 204.87 132.95 210.05 135.73 214.93 C 133.52 217.23 130.35 218.83 127.00 217.95 C 84.05 218.89 41.13 211.92 0.00 199.85 L 0.00 187.98 C 30.17 204.07 64.64 210.96 98.65 212.63 C 105.68 210.09 106.86 199.59 103.22 193.85 C 102.46 187.82 95.95 183.52 97.85 177.27 C 88.91 176.78 81.05 171.48 72.02 170.89 C 48.04 168.53 24.00 171.63 0.00 169.95 L 0.00 161.84 Z" />
</g>
<g id="#3a4724fe">
<path fill="#3a4724" opacity="1.00" d=" M 294.79 166.75 C 293.35 174.59 299.06 164.98 299.74 161.90 C 298.91 167.43 301.08 175.07 295.36 178.38 C 292.15 183.38 290.45 189.44 289.11 195.25 C 283.20 198.50 287.15 191.69 283.92 189.01 C 284.87 186.79 285.67 184.51 286.36 182.20 C 288.80 177.93 291.97 173.98 293.04 169.07 C 293.62 168.30 294.20 167.52 294.79 166.75 Z" />
</g>
<g id="#676a37ff">
<path fill="#676a37" opacity="1.00" d=" M 251.05 166.00 C 254.21 165.04 255.80 167.32 257.28 169.65 C 260.12 169.01 261.34 173.27 258.08 173.14 C 255.76 173.36 255.92 177.74 253.25 176.83 C 249.53 174.53 251.23 169.67 251.05 166.00 Z" />
</g>
<g id="#94a263ff">
<path fill="#94a263" opacity="1.00" d=" M 184.67 169.77 C 185.00 168.81 185.40 167.89 185.85 166.98 C 188.48 167.40 191.13 167.65 193.72 168.26 C 195.45 173.02 193.67 182.07 200.97 182.12 C 199.94 179.30 194.08 174.26 199.80 173.45 C 202.90 168.26 198.42 169.10 196.02 168.39 C 195.77 165.24 201.74 166.56 203.19 168.81 C 200.85 171.55 202.00 175.40 204.84 177.15 C 206.95 178.90 208.44 187.55 208.54 177.50 C 208.28 174.99 210.35 174.23 211.90 176.15 C 211.43 178.91 209.27 181.99 212.18 184.13 C 210.32 187.50 208.04 184.61 206.02 183.03 C 198.39 179.26 202.44 198.64 194.89 193.15 C 197.00 190.82 199.82 183.45 195.40 183.23 C 194.61 187.21 192.37 186.97 190.00 184.19 C 191.74 182.57 196.24 175.58 191.36 177.44 C 186.65 178.94 189.36 170.52 184.67 169.77 Z" />
</g>
<g id="#464b25fd">
<path fill="#464b25" opacity="1.00" d=" M 133.00 167.82 C 135.52 168.71 137.34 171.15 140.10 171.36 C 147.59 169.39 154.35 174.41 160.83 177.27 C 160.22 175.51 159.48 173.81 158.90 172.05 C 161.49 172.87 166.76 174.47 165.05 178.02 C 163.32 180.62 168.20 183.07 166.43 185.30 C 161.19 186.65 155.44 177.64 150.98 184.99 C 147.19 190.57 141.62 187.56 136.49 186.24 C 136.02 189.32 133.39 190.38 130.67 190.88 C 131.62 187.56 135.19 185.06 134.81 181.46 C 131.18 180.44 127.83 178.34 126.08 174.88 C 126.07 174.39 126.05 173.41 126.04 172.92 C 128.25 173.63 130.36 175.07 132.76 174.90 C 134.84 173.15 132.67 170.13 133.00 167.82 Z" />
</g>
<g id="#0000002b">
<path fill="#000000" opacity="0.17" d=" M 0.00 169.95 C 24.00 171.63 48.04 168.53 72.02 170.89 C 81.05 171.48 88.91 176.78 97.85 177.27 C 95.95 183.52 102.46 187.82 103.22 193.85 C 106.86 199.59 105.68 210.09 98.65 212.63 C 64.64 210.96 30.17 204.07 0.00 187.98 L 0.00 169.95 Z" />
</g>
<g id="#7e834cff">
<path fill="#7e834c" opacity="1.00" d=" M 185.78 184.33 C 178.68 182.62 184.36 174.49 184.67 169.77 C 189.36 170.52 186.65 178.94 191.36 177.44 C 196.24 175.58 191.74 182.57 190.00 184.19 C 192.37 186.97 194.61 187.21 195.40 183.23 C 199.82 183.45 197.00 190.82 194.89 193.15 C 191.57 191.61 187.52 190.48 186.49 186.47 C 184.52 184.82 185.04 188.09 184.55 189.23 C 183.95 187.34 183.94 185.50 185.78 184.33 Z" />
</g>
<g id="#7a7b42ff">
<path fill="#7a7b42" opacity="1.00" d=" M 264.00 175.12 C 266.66 170.93 273.42 170.82 272.33 177.13 C 270.98 179.52 269.30 184.96 265.74 182.31 C 262.87 180.78 262.99 177.81 264.00 175.12 Z" />
</g>
<g id="#5e692bff">
<path fill="#5e692b" opacity="1.00" d=" M 220.85 183.30 C 226.10 184.93 231.61 175.19 236.95 180.77 C 241.47 177.56 243.72 180.35 247.26 182.49 C 245.45 184.04 243.45 185.35 241.24 186.25 C 235.32 184.69 227.75 183.16 225.11 190.19 C 231.19 198.56 212.88 192.32 216.30 203.10 C 215.87 199.22 213.15 200.14 210.77 201.89 C 207.90 197.37 214.56 191.41 216.73 196.96 C 217.97 194.67 219.42 192.52 220.95 190.42 C 217.73 189.52 213.28 188.06 214.07 183.80 C 215.35 185.97 217.18 187.15 219.67 186.03 C 217.39 183.28 219.62 177.07 220.85 183.30 Z" />
</g>
<g id="#92984dfc">
<path fill="#92984d" opacity="1.00" d=" M 299.51 178.40 C 304.15 176.40 301.74 185.37 303.29 187.21 C 302.71 191.04 302.13 195.01 299.91 198.30 C 297.60 197.05 298.50 194.58 298.55 192.47 C 291.21 190.89 296.57 182.15 299.51 178.40 Z" />
</g>
<g id="#868953ff">
<path fill="#868953" opacity="1.00" d=" M 279.12 182.26 C 281.01 179.95 287.25 176.85 286.36 182.20 C 285.67 184.51 284.87 186.79 283.92 189.01 C 283.46 189.27 282.55 189.78 282.09 190.04 C 281.17 187.45 278.98 185.09 279.12 182.26 Z" />
</g>
<g id="#2d3011f5">
<path fill="#2d3011" opacity="0.96" d=" M 247.26 182.49 C 251.41 178.48 254.44 181.64 255.98 186.08 C 253.33 189.23 249.74 191.81 248.65 196.04 C 246.43 192.40 248.86 188.60 250.11 185.20 C 247.12 186.20 244.08 187.08 240.91 187.15 L 241.24 186.25 C 243.45 185.35 245.45 184.04 247.26 182.49 Z" />
</g>
<g id="#818948ff">
<path fill="#818948" opacity="1.00" d=" M 194.89 193.15 C 202.44 198.64 198.39 179.26 206.02 183.03 C 208.04 184.61 210.32 187.50 212.18 184.13 C 212.91 183.41 213.54 183.30 214.07 183.80 C 213.28 188.06 217.73 189.52 220.95 190.42 C 219.42 192.52 217.97 194.67 216.73 196.96 C 214.56 191.41 207.90 197.37 210.77 201.89 C 213.15 200.14 215.87 199.22 216.30 203.10 C 216.22 203.55 216.06 204.46 215.99 204.92 C 215.39 207.76 216.12 211.29 212.56 212.16 C 214.37 219.10 205.36 219.28 203.53 224.58 C 196.87 227.09 200.60 234.96 193.27 236.32 C 199.04 241.33 192.82 246.93 191.13 252.32 C 190.41 252.95 189.68 253.57 188.94 254.17 C 187.64 253.57 186.44 252.77 185.27 251.97 C 185.29 251.56 185.34 250.75 185.37 250.35 C 186.78 247.83 189.34 246.82 191.91 245.88 C 190.62 239.71 187.71 234.28 183.86 229.18 C 186.78 229.29 189.73 230.36 192.62 229.74 C 194.15 227.38 196.06 225.51 199.10 225.65 C 196.54 224.05 193.68 222.81 191.10 225.12 C 194.13 220.71 192.50 221.51 188.47 223.04 C 188.42 219.70 185.68 217.37 184.55 214.38 C 181.43 214.71 177.59 215.77 176.77 211.85 C 177.96 210.70 179.08 209.49 180.26 208.33 C 183.33 207.56 180.79 203.75 181.07 201.54 C 182.48 200.04 180.68 198.88 179.86 197.69 C 180.91 196.41 182.40 195.65 183.63 194.58 C 182.56 193.24 180.97 191.59 183.91 192.02 C 188.42 194.68 191.17 198.42 189.04 203.73 C 196.97 203.26 189.61 209.36 185.58 207.07 C 185.58 209.17 184.98 211.18 184.23 213.13 C 188.84 210.69 193.97 209.58 198.57 207.17 C 199.38 202.79 202.22 209.32 205.03 208.08 C 205.83 204.14 200.83 203.71 199.36 200.67 C 195.55 199.45 188.37 196.55 194.89 193.15 M 183.19 200.07 C 182.77 201.47 180.62 205.26 183.68 203.64 C 187.08 203.88 186.19 199.25 183.19 200.07 Z" />
</g>
<g id="#41461efe">
<path fill="#41461e" opacity="1.00" d=" M 225.11 190.19 C 227.75 183.16 235.32 184.69 241.24 186.25 L 240.91 187.15 L 240.06 187.25 C 238.50 187.36 235.36 187.58 233.80 187.69 C 232.80 189.31 234.00 191.06 234.26 192.72 C 234.17 197.55 234.13 202.40 234.19 207.24 C 233.89 208.82 233.35 210.33 232.83 211.85 C 231.11 216.36 227.19 220.22 227.04 225.20 C 227.32 227.17 229.26 228.46 230.13 230.22 C 226.97 227.18 223.43 236.13 225.96 226.02 C 224.19 224.36 223.33 219.49 219.41 220.14 C 221.07 227.59 210.30 226.27 208.97 232.77 C 207.37 235.72 208.16 243.87 203.81 238.77 L 203.67 237.71 C 200.86 230.34 207.74 225.95 213.37 223.36 C 212.94 217.30 219.34 215.18 223.99 216.83 C 221.98 214.37 222.47 211.26 222.79 208.35 C 219.38 209.39 217.68 206.94 215.99 204.92 C 216.06 204.46 216.22 203.55 216.30 203.10 C 212.88 192.32 231.19 198.56 225.11 190.19 Z" />
</g>
<g id="#01010022">
<path fill="#010100" opacity="0.13" d=" M 240.91 187.15 C 244.08 187.08 247.12 186.20 250.11 185.20 C 248.86 188.60 246.43 192.40 248.65 196.04 C 249.47 197.03 250.40 197.93 251.29 198.87 C 250.64 202.32 250.41 206.16 248.06 208.98 C 245.25 209.13 242.38 208.70 239.72 209.70 C 237.24 210.42 235.22 212.08 233.68 214.10 C 233.47 213.54 233.05 212.41 232.83 211.85 C 233.35 210.33 233.89 208.82 234.19 207.24 C 235.01 202.49 235.84 197.40 234.26 192.72 C 234.00 191.06 232.80 189.31 233.80 187.69 C 235.36 187.58 238.50 187.36 240.06 187.25 L 240.91 187.15 Z" />
</g>
<g id="#9ba865ff">
<path fill="#9ba865" opacity="1.00" d=" M 184.55 189.23 C 185.04 188.09 184.52 184.82 186.49 186.47 C 187.52 190.48 191.57 191.61 194.89 193.15 C 188.37 196.55 195.55 199.45 199.36 200.67 C 200.83 203.71 205.83 204.14 205.03 208.08 C 202.22 209.32 199.38 202.79 198.57 207.17 C 193.97 209.58 188.84 210.69 184.23 213.13 C 184.98 211.18 185.58 209.17 185.58 207.07 C 189.61 209.36 196.97 203.26 189.04 203.73 C 191.17 198.42 188.42 194.68 183.91 192.02 C 184.16 191.10 184.38 190.16 184.55 189.23 Z" />
</g>
<g id="#5b6b3cff">
<path fill="#5b6b3c" opacity="1.00" d=" M 149.18 189.37 C 154.38 184.85 160.84 189.71 166.79 188.04 C 166.46 190.40 166.09 192.76 166.07 195.14 C 161.94 191.81 156.16 193.39 157.60 200.21 C 153.80 197.65 147.17 195.18 149.18 189.37 Z" />
</g>
<g id="#19200d9f">
<path fill="#19200d" opacity="0.62" d=" M 233.80 187.69 C 235.36 187.58 238.50 187.36 240.06 187.25 C 238.50 187.36 235.36 187.58 233.80 187.69 Z" />
</g>
<g id="#5a5c31ff">
<path fill="#5a5c31" opacity="1.00" d=" M 282.09 190.04 C 282.55 189.78 283.46 189.27 283.92 189.01 C 287.15 191.69 283.20 198.50 289.11 195.25 C 290.16 194.87 291.22 194.51 292.29 194.16 C 292.29 198.06 285.49 195.58 287.86 199.85 C 286.37 203.66 293.17 206.51 288.95 209.02 C 286.70 210.67 290.32 212.83 290.20 214.97 C 289.02 217.13 280.12 211.68 282.58 216.64 C 279.88 216.73 277.49 218.15 275.21 219.46 C 273.08 225.25 279.46 228.01 284.01 228.34 C 283.44 231.35 279.08 230.97 277.08 232.88 C 270.94 237.34 282.05 240.54 277.25 245.44 C 274.42 240.67 267.07 238.23 269.57 230.91 C 271.60 229.13 271.67 232.64 272.41 233.84 C 281.70 230.17 265.90 221.56 272.99 215.01 C 264.74 218.67 266.58 207.52 262.67 203.26 C 267.32 204.22 272.16 208.40 276.87 205.83 C 276.39 203.52 275.70 201.25 274.89 199.03 C 271.46 202.67 266.84 201.61 262.41 200.52 C 258.81 200.00 250.04 199.23 252.27 193.31 C 254.79 186.08 262.81 192.69 266.50 195.63 C 268.78 191.12 274.16 191.30 277.42 194.59 C 280.09 197.48 284.08 193.51 280.97 190.86 C 281.25 190.65 281.81 190.24 282.09 190.04 M 282.10 200.10 C 277.88 205.62 289.97 201.91 282.10 200.10 Z" />
</g>
<g id="#494929f7">
<path fill="#494929" opacity="0.97" d=" M 130.09 198.76 C 130.17 196.13 130.32 193.47 130.67 190.88 C 129.41 197.58 134.57 196.34 137.78 192.76 C 136.84 199.12 140.18 205.07 135.74 211.03 C 132.77 207.53 131.38 203.09 130.09 198.76 Z" />
</g>
<g id="#2b2f19a2">
<path fill="#2b2f19" opacity="0.64" d=" M 234.26 192.72 C 235.84 197.40 235.01 202.49 234.19 207.24 C 234.13 202.40 234.17 197.55 234.26 192.72 Z" />
</g>
<g id="#62683cff">
<path fill="#62683c" opacity="1.00" d=" M 164.77 198.30 C 160.00 198.59 162.69 194.52 166.07 195.14 C 168.93 197.21 172.26 196.72 175.52 196.31 C 176.66 198.76 178.48 200.64 181.07 201.54 C 180.79 203.75 183.33 207.56 180.26 208.33 C 176.44 205.00 171.53 210.17 176.77 211.85 C 177.97 216.21 173.50 217.76 173.03 212.90 C 173.11 208.91 170.78 213.53 169.57 214.52 C 166.04 212.35 163.54 209.02 160.96 205.87 C 164.79 206.42 168.50 207.58 172.18 208.76 C 173.10 205.49 168.94 204.54 168.44 202.04 C 169.57 199.21 167.53 197.54 164.77 198.30 Z" />
</g>
<g id="#0000004b">
<path fill="#000000" opacity="0.29" d=" M 130.09 198.76 C 131.38 203.09 132.77 207.53 135.74 211.03 C 136.41 211.76 137.12 212.45 137.86 213.10 C 139.81 214.88 140.13 217.49 140.52 219.95 C 113.94 225.82 86.69 217.19 59.77 218.72 C 56.49 218.77 48.21 217.40 52.32 222.68 C 63.21 227.11 74.90 229.11 86.02 232.94 C 108.61 239.32 130.67 252.49 155.01 247.96 C 155.04 248.63 155.12 249.95 155.15 250.62 C 125.91 254.20 99.95 238.08 71.99 233.08 C 47.98 228.07 24.07 222.57 0.00 217.84 L 0.00 199.85 C 41.13 211.92 84.05 218.89 127.00 217.95 C 130.35 218.83 133.52 217.23 135.73 214.93 C 132.95 210.05 127.68 204.87 130.09 198.76 Z" />
</g>
<g id="#242a11fb">
<path fill="#242a11" opacity="1.00" d=" M 251.29 198.87 C 256.05 203.17 257.51 213.81 249.03 214.15 C 251.29 219.47 246.41 222.31 244.79 226.88 C 241.82 227.17 242.93 222.46 241.22 220.76 C 239.94 217.74 235.52 219.06 234.61 221.64 C 232.81 224.44 234.10 229.46 230.13 230.22 C 229.26 228.46 227.32 227.17 227.04 225.20 C 230.73 222.59 232.44 218.29 233.68 214.10 C 235.22 212.08 237.24 210.42 239.72 209.70 C 242.47 209.50 246.01 211.29 248.06 208.98 C 250.41 206.16 250.64 202.32 251.29 198.87 Z" />
</g>
<g id="#b3b08cff">
<path fill="#b3b08c" opacity="1.00" d=" M 183.19 200.07 C 186.19 199.25 187.08 203.88 183.68 203.64 C 180.62 205.26 182.77 201.47 183.19 200.07 Z" />
</g>
<g id="#9f8f67ff">
<path fill="#9f8f67" opacity="1.00" d=" M 282.10 200.10 C 289.97 201.91 277.88 205.62 282.10 200.10 Z" />
</g>
<g id="#8a904dff">
<path fill="#8a904d" opacity="1.00" d=" M 287.86 199.85 C 289.39 201.08 290.78 202.52 292.46 203.54 C 295.76 199.21 299.30 206.00 299.10 209.05 C 298.30 211.00 298.54 213.15 299.42 215.03 C 299.42 215.44 299.43 216.25 299.43 216.66 C 299.07 222.47 299.08 228.29 299.14 234.11 L 299.03 234.89 C 296.00 237.73 297.33 240.49 297.89 243.75 C 293.30 246.76 295.06 243.04 293.99 239.93 C 291.46 242.28 288.64 248.33 284.70 245.30 C 282.17 243.24 287.93 242.71 286.62 240.30 C 285.79 238.55 285.69 233.49 283.01 236.03 C 280.16 238.77 278.27 235.19 277.08 232.88 C 279.08 230.97 283.44 231.35 284.01 228.34 C 279.46 228.01 273.08 225.25 275.21 219.46 C 277.49 218.15 279.88 216.73 282.58 216.64 C 280.12 211.68 289.02 217.13 290.20 214.97 C 290.32 212.83 286.70 210.67 288.95 209.02 C 289.54 214.45 294.86 207.51 288.95 209.02 C 293.17 206.51 286.37 203.66 287.86 199.85 M 280.97 221.03 C 280.55 223.05 281.52 225.45 283.96 225.06 C 284.39 222.48 284.28 219.92 280.97 221.03 Z" />
</g>
<g id="#5d6b3aff">
<path fill="#5d6b3a" opacity="1.00" d=" M 215.99 204.92 C 217.68 206.94 219.38 209.39 222.79 208.35 C 222.47 211.26 221.98 214.37 223.99 216.83 C 219.34 215.18 212.94 217.30 213.37 223.36 C 207.74 225.95 200.86 230.34 203.67 237.71 C 199.36 239.06 202.23 246.30 197.04 246.48 C 194.97 248.29 193.47 250.76 191.13 252.32 C 192.82 246.93 199.04 241.33 193.27 236.32 C 200.60 234.96 196.87 227.09 203.53 224.58 C 205.36 219.28 214.37 219.10 212.56 212.16 C 216.12 211.29 215.39 207.76 215.99 204.92 Z" />
</g>
<g id="#777c48ff">
<path fill="#777c48" opacity="1.00" d=" M 176.77 211.85 C 171.53 210.17 176.44 205.00 180.26 208.33 C 179.08 209.49 177.96 210.70 176.77 211.85 Z" />
</g>
<g id="#10150b8f">
<path fill="#10150b" opacity="0.56" d=" M 239.72 209.70 C 242.38 208.70 245.25 209.13 248.06 208.98 C 246.01 211.29 242.47 209.50 239.72 209.70 Z" />
</g>
<g id="#c8b8a1ff">
<path fill="#c8b8a1" opacity="1.00" d=" M 288.95 209.02 C 289.54 214.45 294.86 207.51 288.95 209.02 Z" />
</g>
<g id="#30361789">
<path fill="#303617" opacity="0.54" d=" M 299.10 209.05 C 301.09 210.33 301.19 212.32 299.42 215.03 C 298.54 213.15 298.30 211.00 299.10 209.05 Z" />
</g>
<g id="#777838ff">
<path fill="#777838" opacity="1.00" d=" M 169.57 214.52 C 170.78 213.53 173.11 208.91 173.03 212.90 C 173.50 217.76 177.97 216.21 176.77 211.85 C 177.59 215.77 181.43 214.71 184.55 214.38 C 185.68 217.37 188.42 219.70 188.47 223.04 C 192.50 221.51 194.13 220.71 191.10 225.12 C 193.68 222.81 196.54 224.05 199.10 225.65 C 196.06 225.51 194.15 227.38 192.62 229.74 C 189.73 230.36 186.78 229.29 183.86 229.18 C 187.71 234.28 190.62 239.71 191.91 245.88 C 189.34 246.82 186.78 247.83 185.37 250.35 C 186.63 247.11 182.27 247.80 180.44 246.58 C 178.23 243.82 175.71 241.32 173.12 238.93 C 169.21 233.91 165.54 225.35 171.59 220.55 C 174.50 218.57 170.28 216.66 169.57 214.52 M 173.06 222.09 C 171.47 224.31 169.81 233.25 174.51 230.61 C 175.78 228.13 181.49 230.55 179.42 226.66 C 178.08 221.50 184.88 229.72 184.93 225.07 C 182.56 219.45 176.41 226.16 173.06 222.09 M 181.21 234.11 C 178.66 238.19 182.67 241.21 184.88 244.28 C 184.06 240.81 187.84 231.76 181.21 234.11 Z" />
</g>
<g id="#06060364">
<path fill="#060603" opacity="0.39" d=" M 227.04 225.20 C 227.19 220.22 231.11 216.36 232.83 211.85 C 233.05 212.41 233.47 213.54 233.68 214.10 C 232.44 218.29 230.73 222.59 227.04 225.20 Z" />
</g>
<g id="#4e5129fd">
<path fill="#4e5129" opacity="1.00" d=" M 137.86 213.10 C 144.86 211.52 151.40 214.40 152.07 221.91 C 156.11 220.33 160.50 219.44 164.79 219.08 C 168.21 221.98 160.61 221.61 161.02 225.09 C 161.16 231.47 167.58 237.38 173.12 238.93 C 175.71 241.32 178.23 243.82 180.44 246.58 C 182.27 247.80 186.63 247.11 185.37 250.35 C 185.34 250.75 185.29 251.56 185.27 251.97 C 187.52 261.60 178.26 252.09 174.99 249.03 C 171.67 242.27 161.45 239.23 156.13 244.01 C 157.03 239.54 151.94 238.97 150.08 235.90 C 147.51 232.24 144.36 228.97 142.34 224.94 C 142.07 224.41 141.53 223.34 141.26 222.81 C 141.01 221.86 140.77 220.90 140.52 219.95 C 140.13 217.49 139.81 214.88 137.86 213.10 Z" />
</g>
<g id="#3335197a">
<path fill="#333519" opacity="0.48" d=" M 299.43 216.66 C 300.38 222.43 300.24 228.36 299.14 234.11 C 299.08 228.29 299.07 222.47 299.43 216.66 Z" />
</g>
<g id="#0000003b">
<path fill="#000000" opacity="0.23" d=" M 0.00 217.84 C 24.07 222.57 47.98 228.07 71.99 233.08 C 99.95 238.08 125.91 254.20 155.15 250.62 L 155.80 251.19 C 156.57 253.08 157.36 254.96 158.15 256.85 C 150.63 250.73 140.73 254.26 132.00 251.94 C 114.91 249.63 98.97 242.77 82.34 238.63 C 55.09 232.69 27.51 228.33 0.00 223.85 L 0.00 217.84 Z" />
</g>
<g id="#0000005c">
<path fill="#000000" opacity="0.36" d=" M 52.32 222.68 C 48.21 217.40 56.49 218.77 59.77 218.72 C 86.69 217.19 113.94 225.82 140.52 219.95 C 140.77 220.90 141.01 221.86 141.26 222.81 C 125.85 226.93 108.98 221.74 94.06 227.09 C 101.86 232.99 112.88 236.27 121.93 241.11 C 131.79 246.98 143.98 247.00 154.99 244.96 C 154.99 245.71 155.00 247.21 155.01 247.96 C 130.67 252.49 108.61 239.32 86.02 232.94 C 74.90 229.11 63.21 227.11 52.32 222.68 Z" />
</g>
<g id="#727a3bff">
<path fill="#727a3b" opacity="1.00" d=" M 219.41 220.14 C 223.33 219.49 224.19 224.36 225.96 226.02 C 223.43 236.13 226.97 227.18 230.13 230.22 C 232.52 232.54 236.84 231.45 238.30 234.67 C 239.30 238.88 247.77 236.76 244.15 242.12 C 238.27 242.42 233.97 247.40 230.37 251.58 C 232.24 253.38 234.15 255.16 236.08 256.92 C 231.54 254.86 225.03 259.48 222.47 253.79 C 218.66 252.88 213.59 252.55 218.06 256.94 C 214.05 256.28 209.86 256.10 206.05 257.89 C 201.35 261.47 195.57 261.03 190.92 264.21 C 189.10 261.56 190.90 259.49 192.97 257.79 C 194.17 254.69 191.09 254.60 188.94 254.17 C 189.68 253.57 190.41 252.95 191.13 252.32 C 193.47 250.76 194.97 248.29 197.04 246.48 C 202.17 248.83 195.93 259.16 203.26 255.37 C 202.88 252.77 201.96 245.63 205.86 245.29 C 212.05 245.68 201.59 242.55 203.81 238.77 C 208.16 243.87 207.37 235.72 208.97 232.77 C 210.30 226.27 221.07 227.59 219.41 220.14 M 215.36 229.18 C 214.62 231.17 213.65 233.05 212.86 235.01 C 216.25 234.99 221.14 228.02 215.36 229.18 M 223.19 229.19 C 219.77 232.91 216.95 237.46 214.90 242.08 C 219.57 236.19 223.65 242.47 222.29 248.01 C 222.65 248.27 223.37 248.79 223.73 249.05 C 223.44 245.22 227.10 242.88 227.16 239.19 C 219.37 243.61 229.31 227.58 223.19 229.19 M 214.96 249.09 C 218.47 249.83 220.42 253.83 222.29 248.01 C 218.52 248.77 217.31 245.97 219.01 243.01 C 217.45 244.29 214.26 246.50 213.60 243.18 C 208.59 243.13 213.03 247.64 214.96 249.09 Z" />
</g>
<g id="#cec0acff">
<path fill="#cec0ac" opacity="1.00" d=" M 280.97 221.03 C 284.28 219.92 284.39 222.48 283.96 225.06 C 281.52 225.45 280.55 223.05 280.97 221.03 Z" />
</g>
<g id="#9c9e63ff">
<path fill="#9c9e63" opacity="1.00" d=" M 173.06 222.09 C 176.41 226.16 182.56 219.45 184.93 225.07 C 184.88 229.72 178.08 221.50 179.42 226.66 C 181.49 230.55 175.78 228.13 174.51 230.61 C 169.81 233.25 171.47 224.31 173.06 222.09 Z" />
</g>
<g id="#5a6239ff">
<path fill="#5a6239" opacity="1.00" d=" M 247.49 224.63 C 248.32 218.22 254.14 225.49 257.28 224.28 C 261.71 221.35 268.08 224.60 269.08 229.62 C 258.46 230.08 267.29 243.00 260.22 247.08 C 258.36 245.31 255.19 244.33 254.99 241.37 C 261.13 240.95 255.17 237.49 252.57 236.52 C 253.62 231.47 245.00 230.11 247.49 224.63 Z" />
</g>
<g id="#0000006e">
<path fill="#000000" opacity="0.43" d=" M 94.06 227.09 C 108.98 221.74 125.85 226.93 141.26 222.81 C 141.53 223.34 142.07 224.41 142.34 224.94 C 139.58 226.60 134.00 227.55 135.12 231.86 C 135.73 236.56 138.83 240.58 143.70 241.27 C 146.78 243.45 156.31 238.77 154.99 244.96 C 143.98 247.00 131.79 246.98 121.93 241.11 C 112.88 236.27 101.86 232.99 94.06 227.09 Z" />
</g>
<g id="#0000002c">
<path fill="#000000" opacity="0.17" d=" M 0.00 223.85 C 27.51 228.33 55.09 232.69 82.34 238.63 C 98.97 242.77 114.91 249.63 132.00 251.94 C 140.73 254.26 150.63 250.73 158.15 256.85 C 161.52 263.49 169.61 264.50 176.10 265.88 C 167.19 268.87 159.34 261.35 150.88 260.26 C 129.41 256.31 108.02 251.72 87.36 244.57 C 58.61 237.48 29.04 234.72 0.00 229.16 L 0.00 223.85 Z" />
</g>
<g id="#04040286">
<path fill="#040402" opacity="0.53" d=" M 142.34 224.94 C 144.36 228.97 147.51 232.24 150.08 235.90 C 151.94 238.97 157.03 239.54 156.13 244.01 L 156.13 244.88 C 156.04 246.98 155.91 249.08 155.80 251.19 L 155.15 250.62 C 155.12 249.95 155.04 248.63 155.01 247.96 C 155.00 247.21 154.99 245.71 154.99 244.96 C 156.31 238.77 146.78 243.45 143.70 241.27 C 138.83 240.58 135.73 236.56 135.12 231.86 C 134.00 227.55 139.58 226.60 142.34 224.94 Z" />
</g>
<g id="#b4a182ff">
<path fill="#b4a182" opacity="1.00" d=" M 215.36 229.18 C 221.14 228.02 216.25 234.99 212.86 235.01 C 213.65 233.05 214.62 231.17 215.36 229.18 Z" />
</g>
<g id="#93a05dff">
<path fill="#93a05d" opacity="1.00" d=" M 223.19 229.19 C 229.31 227.58 219.37 243.61 227.16 239.19 C 227.10 242.88 223.44 245.22 223.73 249.05 C 223.37 248.79 222.65 248.27 222.29 248.01 C 223.65 242.47 219.57 236.19 214.90 242.08 C 216.95 237.46 219.77 232.91 223.19 229.19 Z" />
</g>
<g id="#788a4dff">
<path fill="#788a4d" opacity="1.00" d=" M 260.22 247.08 C 267.29 243.00 258.46 230.08 269.08 229.62 C 269.20 229.94 269.45 230.59 269.57 230.91 C 267.07 238.23 274.42 240.67 277.25 245.44 C 276.27 245.68 275.27 245.88 274.28 246.02 C 269.86 245.96 265.49 247.34 262.14 250.25 C 261.44 249.22 260.83 248.14 260.22 247.08 Z" />
</g>
<g id="#6e6f30fb">
<path fill="#6e6f30" opacity="1.00" d=" M 277.08 232.88 C 278.27 235.19 280.16 238.77 283.01 236.03 C 285.69 233.49 285.79 238.55 286.62 240.30 C 287.93 242.71 282.17 243.24 284.70 245.30 C 288.64 248.33 291.46 242.28 293.99 239.93 C 295.06 243.04 293.30 246.76 297.89 243.75 C 297.33 240.49 296.00 237.73 299.03 234.89 C 298.84 240.30 299.12 245.96 297.05 251.06 C 293.91 256.11 287.87 258.12 282.34 259.28 C 279.05 255.86 272.66 259.09 270.71 254.27 C 268.72 251.88 270.82 249.32 272.73 247.79 C 272.63 250.92 272.72 254.46 276.79 252.86 C 279.17 249.73 277.46 246.99 273.77 246.62 L 274.28 246.02 C 275.27 245.88 276.27 245.68 277.25 245.44 C 282.05 240.54 270.94 237.34 277.08 232.88 Z" />
</g>
<g id="#849a59ff">
<path fill="#849a59" opacity="1.00" d=" M 181.21 234.11 C 187.84 231.76 184.06 240.81 184.88 244.28 C 182.67 241.21 178.66 238.19 181.21 234.11 Z" />
</g>
<g id="#889653ff">
<path fill="#889653" opacity="1.00" d=" M 197.04 246.48 C 202.23 246.30 199.36 239.06 203.67 237.71 L 203.81 238.77 C 201.59 242.55 212.05 245.68 205.86 245.29 C 201.96 245.63 202.88 252.77 203.26 255.37 C 195.93 259.16 202.17 248.83 197.04 246.48 Z" />
</g>
<g id="#696234ff">
<path fill="#696234" opacity="1.00" d=" M 156.13 244.01 C 161.45 239.23 171.67 242.27 174.99 249.03 C 178.26 252.09 187.52 261.60 185.27 251.97 C 186.44 252.77 187.64 253.57 188.94 254.17 C 191.09 254.60 194.17 254.69 192.97 257.79 C 190.90 259.49 189.10 261.56 190.92 264.21 C 186.00 266.46 185.05 258.59 181.04 257.53 C 176.94 258.06 178.05 264.58 173.22 263.48 C 169.11 264.08 167.81 260.50 166.58 257.38 C 163.39 252.99 159.05 249.50 156.13 244.88 L 156.13 244.01 Z" />
</g>
<g id="#56662bfb">
<path fill="#56662b" opacity="1.00" d=" M 230.37 251.58 C 233.97 247.40 238.27 242.42 244.15 242.12 C 243.57 244.62 244.08 246.84 247.01 246.98 C 251.45 247.10 249.00 252.42 251.28 254.77 C 257.03 257.31 263.28 258.76 269.18 255.66 C 268.72 251.50 264.19 252.37 262.14 250.25 C 265.49 247.34 269.86 245.96 274.28 246.02 L 273.77 246.62 C 273.51 246.91 272.99 247.50 272.73 247.79 C 270.82 249.32 268.72 251.88 270.71 254.27 C 272.66 259.09 279.05 255.86 282.34 259.28 C 279.15 260.02 275.97 260.72 272.86 261.73 C 259.16 264.19 244.51 265.43 231.23 260.54 C 227.36 257.65 223.02 260.56 219.31 262.21 C 219.55 260.36 221.30 256.66 218.06 256.94 C 213.59 252.55 218.66 252.88 222.47 253.79 C 225.03 259.48 231.54 254.86 236.08 256.92 C 234.15 255.16 232.24 253.38 230.37 251.58 Z" />
</g>
<g id="#8b935aff">
<path fill="#8b935a" opacity="1.00" d=" M 214.96 249.09 C 213.03 247.64 208.59 243.13 213.60 243.18 C 214.26 246.50 217.45 244.29 219.01 243.01 C 217.31 245.97 218.52 248.77 222.29 248.01 C 220.42 253.83 218.47 249.83 214.96 249.09 Z" />
</g>
<g id="#554e25fa">
<path fill="#554e25" opacity="0.98" d=" M 156.13 244.88 C 159.05 249.50 163.39 252.99 166.58 257.38 C 167.81 260.50 169.11 264.08 173.22 263.48 C 178.05 264.58 176.94 258.06 181.04 257.53 C 185.05 258.59 186.00 266.46 190.92 264.21 C 195.57 261.03 201.35 261.47 206.05 257.89 C 206.40 260.55 205.06 262.45 203.18 264.09 C 203.11 268.67 207.96 268.44 211.26 269.40 C 210.75 269.62 209.74 270.05 209.24 270.26 C 206.09 270.21 202.97 270.21 199.84 270.08 C 198.91 269.74 197.98 269.39 197.06 269.04 C 192.75 267.49 188.20 268.16 183.76 268.20 C 181.11 267.80 178.61 266.78 176.10 265.88 C 169.61 264.50 161.52 263.49 158.15 256.85 C 157.36 254.96 156.57 253.08 155.80 251.19 C 155.91 249.08 156.04 246.98 156.13 244.88 Z" />
</g>
<g id="#a7926dff">
<path fill="#a7926d" opacity="1.00" d=" M 272.73 247.79 C 272.99 247.50 273.51 246.91 273.77 246.62 C 277.46 246.99 279.17 249.73 276.79 252.86 C 272.72 254.46 272.63 250.92 272.73 247.79 Z" />
</g>
<g id="#8b7647fd">
<path fill="#8b7647" opacity="1.00" d=" M 206.05 257.89 C 209.86 256.10 214.05 256.28 218.06 256.94 C 221.30 256.66 219.55 260.36 219.31 262.21 C 217.39 265.35 214.83 268.18 211.26 269.40 C 207.96 268.44 203.11 268.67 203.18 264.09 C 205.06 262.45 206.40 260.55 206.05 257.89 M 214.18 258.05 C 212.88 260.22 208.78 265.31 216.71 261.80 C 219.53 260.88 215.97 257.55 214.18 258.05 Z" />
</g>
<g id="#c5b69aff">
<path fill="#c5b69a" opacity="1.00" d=" M 214.18 258.05 C 215.97 257.55 219.53 260.88 216.71 261.80 C 208.78 265.31 212.88 260.22 214.18 258.05 Z" />
</g>
<g id="#13160a7b">
<path fill="#13160a" opacity="0.48" d=" M 183.76 268.20 C 188.20 268.16 192.75 267.49 197.06 269.04 C 192.62 268.84 188.14 269.02 183.76 268.20 Z" />
</g>
<g id="#261f10a0">
<path fill="#261f10" opacity="0.63" d=" M 199.84 270.08 C 202.97 270.21 206.09 270.21 209.24 270.26 C 206.28 271.67 202.84 270.95 199.84 270.08 Z" />
</g>
</svg>
