<?xml version="1.0" encoding="UTF-8" ?>
<!DOCTYPE svg PUBLIC "-//W3C//DTD SVG 1.1//EN" "http://www.w3.org/Graphics/SVG/1.1/DTD/svg11.dtd">
<svg width="384pt" height="384pt" viewBox="0 0 384 384" version="1.1" xmlns="http://www.w3.org/2000/svg">
<g id="#0000000b">
<path fill="#000000" opacity="0.04" d=" M 0.00 0.00 L 175.50 0.00 C 179.90 2.39 177.85 7.22 179.17 10.75 C 182.23 10.03 186.58 9.14 185.43 13.79 C 188.32 16.46 192.64 16.75 190.39 11.80 C 196.69 11.40 199.46 18.69 204.81 20.49 C 210.57 19.61 216.37 20.43 221.04 24.17 C 222.73 29.32 217.35 32.16 217.14 36.95 C 218.89 37.07 221.34 35.51 222.42 37.56 C 224.62 40.82 228.82 36.98 231.78 37.05 C 235.71 39.88 235.49 45.84 240.22 47.80 C 245.14 55.60 255.44 56.77 262.13 63.01 C 263.11 69.84 266.22 77.41 270.12 83.92 C 268.23 83.90 264.50 82.25 266.31 85.50 C 270.93 86.24 274.63 92.54 279.05 87.93 C 280.77 92.39 274.24 89.49 275.00 93.07 C 274.56 97.52 279.65 92.40 281.89 92.08 C 285.81 97.54 294.78 92.62 298.23 98.61 C 291.10 95.94 290.56 104.35 294.99 105.98 C 298.65 103.95 299.58 98.19 303.93 96.71 C 302.67 101.26 300.75 105.42 306.73 104.38 C 304.61 108.62 309.72 107.28 310.65 110.50 C 313.25 113.88 307.89 117.48 311.20 121.05 C 314.09 120.22 315.75 114.86 319.05 118.04 C 310.66 122.01 324.93 130.92 317.24 134.45 C 319.51 136.66 322.00 138.68 323.99 141.17 C 324.35 144.35 320.35 145.67 318.85 148.10 C 320.93 150.41 325.37 151.76 323.57 155.65 C 322.17 160.45 326.86 163.95 329.60 158.88 C 328.48 163.94 333.97 162.99 334.98 165.79 C 328.29 164.33 332.88 171.85 336.72 172.19 C 333.85 162.88 342.39 168.12 343.21 171.83 C 334.98 167.84 338.30 186.25 346.00 183.12 C 352.52 182.32 355.05 191.01 350.16 194.46 C 357.18 196.28 352.82 202.82 353.67 207.66 C 351.74 209.37 349.83 213.48 353.85 213.63 C 353.44 220.42 349.27 229.94 356.58 234.51 C 355.86 238.59 351.19 230.57 350.48 234.74 C 349.72 237.04 346.09 240.49 350.65 240.40 C 355.12 240.29 352.79 245.28 353.76 248.09 C 350.74 248.01 347.96 246.74 345.09 245.95 C 345.38 250.13 350.59 253.66 347.88 257.78 C 345.67 259.78 342.59 261.63 342.86 265.08 C 345.52 261.55 350.79 259.51 350.97 265.69 C 347.36 265.81 348.09 266.90 350.64 268.34 C 345.90 270.63 347.23 273.83 350.41 276.70 C 356.37 281.12 353.70 289.44 350.32 294.89 C 354.51 299.74 347.76 305.31 349.83 310.81 C 347.33 312.69 346.80 314.76 349.09 317.13 C 345.60 317.62 344.60 312.80 341.02 313.96 C 339.53 315.81 345.75 323.69 340.33 322.63 C 335.33 319.28 330.82 322.86 325.82 322.32 C 327.11 327.15 333.29 323.71 336.83 324.11 C 338.23 326.81 338.91 329.84 339.93 332.71 C 337.31 331.41 334.56 335.34 332.66 332.48 C 331.30 330.97 330.82 327.52 328.23 328.08 C 324.57 330.06 325.65 336.31 321.06 337.15 C 318.54 338.11 316.35 339.68 314.23 341.30 C 313.87 347.45 322.06 350.44 319.95 357.24 C 316.58 356.98 317.35 352.89 315.53 350.93 C 315.01 353.06 311.75 355.80 314.61 357.41 C 318.39 360.13 311.78 363.99 309.83 360.14 C 307.48 363.10 302.59 367.16 299.09 363.75 C 298.56 362.01 302.58 357.48 298.70 358.74 C 295.62 361.23 293.83 357.13 291.25 355.91 C 290.27 360.48 292.87 363.63 295.13 367.09 C 291.63 367.11 290.19 362.92 286.82 362.32 C 282.35 362.14 284.44 356.80 282.81 354.03 C 278.62 353.60 280.08 360.00 276.30 360.46 C 266.99 366.89 259.91 376.25 251.64 384.00 L 0.00 384.00 L 0.00 325.03 C 2.13 323.91 4.33 322.88 6.66 322.24 C 7.25 325.12 8.75 328.18 11.17 329.80 C 13.73 329.87 12.22 326.40 12.23 324.86 C 16.33 325.39 18.56 329.89 22.89 330.22 C 26.41 332.31 32.99 325.89 33.37 331.88 C 40.11 328.71 47.81 334.56 54.85 330.85 C 56.70 329.31 58.18 331.38 59.88 332.01 C 62.51 327.12 68.12 332.40 72.18 331.11 C 74.68 329.45 77.07 332.51 79.77 331.53 C 84.76 330.09 89.52 339.48 93.28 333.28 C 95.24 331.12 91.58 330.93 90.63 329.52 C 92.93 329.96 95.07 329.34 97.12 328.32 C 99.97 328.95 102.56 331.27 105.73 330.94 C 107.31 327.97 107.59 322.55 112.99 324.90 C 115.43 324.65 110.26 328.86 112.88 329.04 C 115.77 330.57 118.47 329.67 120.19 327.00 C 122.84 327.19 125.31 328.26 127.93 328.64 C 130.57 327.48 132.75 324.87 135.81 325.00 C 136.95 326.58 135.62 329.28 137.87 330.12 C 140.01 326.80 138.20 321.02 143.82 320.86 C 143.52 322.96 143.10 325.04 142.99 327.17 C 145.80 326.13 147.88 322.44 151.31 323.84 C 155.75 326.39 158.91 321.06 162.74 319.58 C 161.98 317.76 159.88 314.32 163.03 316.98 C 168.18 322.43 174.01 315.46 178.74 314.02 C 180.08 325.27 192.95 304.48 191.26 318.10 C 195.89 317.03 200.24 314.99 204.74 313.49 C 207.50 318.41 214.09 312.94 217.36 317.61 C 222.61 323.14 226.64 309.10 231.62 315.41 C 236.82 318.85 243.27 310.76 248.89 314.48 C 253.86 314.53 251.94 307.06 255.80 305.90 C 252.15 313.70 265.26 310.29 265.28 305.80 C 264.10 301.09 270.61 298.96 273.92 301.56 C 278.21 298.71 281.09 291.03 287.60 292.72 C 287.22 287.46 294.25 289.99 295.53 285.55 C 293.83 275.74 299.03 285.13 301.98 282.02 C 303.58 281.49 307.50 278.80 304.43 278.52 C 301.94 282.44 293.93 274.84 299.37 275.48 C 302.48 279.73 303.58 277.01 302.17 273.03 C 305.17 273.98 307.84 274.14 308.51 270.45 C 314.04 271.35 312.54 268.21 310.06 264.91 C 312.65 261.15 316.70 258.30 317.33 253.44 C 322.65 242.55 312.33 254.99 313.71 248.41 C 314.85 243.62 312.56 233.51 319.79 236.84 C 316.89 229.16 329.25 229.17 331.14 223.12 C 332.03 219.12 337.39 219.09 338.15 214.97 C 342.96 211.42 351.59 203.31 343.13 198.62 C 341.09 197.15 338.59 198.44 336.81 199.67 C 335.68 200.38 334.67 201.25 333.70 202.15 C 333.53 201.64 333.20 200.64 333.03 200.14 C 341.53 196.82 344.26 183.74 332.92 182.98 C 331.92 183.26 330.95 183.60 330.01 184.00 C 329.67 183.72 329.01 183.15 328.67 182.87 C 329.85 181.61 331.05 180.36 332.22 179.09 C 333.72 178.09 333.61 176.00 332.41 174.83 C 331.26 172.84 329.84 170.98 328.01 169.57 C 324.63 167.45 321.59 171.65 318.93 173.29 C 318.65 172.67 318.07 171.43 317.78 170.82 L 318.19 170.00 C 318.91 169.07 318.98 167.91 318.56 166.85 C 318.20 166.28 317.47 165.15 317.10 164.58 C 310.01 157.12 303.53 169.24 297.69 173.11 C 297.22 172.37 296.75 171.64 296.27 170.91 C 294.12 167.78 291.31 161.20 286.72 163.67 C 281.94 170.95 277.64 178.52 271.82 184.93 C 269.73 185.48 264.38 188.73 265.32 184.31 C 265.34 179.71 272.67 179.53 270.01 173.97 C 269.06 164.83 258.69 163.92 252.92 159.12 C 249.54 157.56 257.73 155.51 254.05 153.97 C 252.34 151.47 244.66 153.54 247.88 149.82 C 252.42 144.79 245.76 140.38 244.11 135.78 C 239.19 128.68 236.80 120.26 231.89 113.11 C 229.48 110.26 234.31 104.03 229.59 102.55 C 223.29 102.15 222.55 93.28 227.04 89.95 C 223.81 88.46 223.38 82.58 219.60 83.43 C 211.61 88.15 219.18 73.98 210.24 77.51 C 205.63 74.34 201.69 69.82 195.25 70.79 C 195.66 68.46 196.07 66.05 195.06 63.79 C 196.34 61.84 197.44 59.75 198.85 57.89 C 201.62 57.80 204.55 58.29 207.17 57.15 C 210.15 56.11 213.12 55.01 215.85 53.42 C 221.66 50.53 228.81 50.62 233.67 45.85 C 233.30 44.15 233.39 42.12 232.20 40.77 C 228.36 39.33 223.71 39.76 219.68 40.71 C 216.83 41.02 214.01 40.97 211.79 39.07 C 212.08 37.80 212.16 36.51 212.05 35.20 C 214.54 33.70 217.21 32.07 218.35 29.23 C 221.09 22.90 210.14 20.29 205.84 23.88 L 205.06 24.22 C 202.17 23.14 199.60 21.31 197.97 18.64 C 196.74 18.64 194.26 18.63 193.02 18.63 C 191.23 22.63 188.97 22.22 187.04 18.59 C 185.76 18.58 183.21 18.57 181.94 18.56 C 180.05 25.90 171.98 19.07 169.42 25.39 C 170.55 31.23 167.40 35.96 162.35 38.30 C 152.77 36.87 141.55 41.70 142.65 53.16 C 136.11 50.64 137.59 40.87 141.51 36.45 C 140.61 30.61 144.23 22.56 138.32 18.67 C 133.89 12.14 125.61 15.31 119.00 13.97 C 113.31 11.53 108.82 19.46 103.66 15.69 C 93.59 16.98 85.23 20.90 75.14 22.16 C 72.32 23.30 71.69 27.90 67.40 26.48 C 61.08 26.35 55.08 32.82 49.02 29.24 C 48.23 33.12 46.33 37.04 41.98 33.98 C 36.42 30.98 35.12 41.38 29.51 39.40 C 28.88 43.95 24.88 43.35 21.91 41.23 C 14.52 43.74 8.46 52.70 0.00 50.03 L 0.00 0.00 Z" />
</g>
<g id="#00000015">
<path fill="#000000" opacity="0.08" d=" M 103.66 15.69 C 108.82 19.46 113.31 11.53 119.00 13.97 C 125.61 15.31 133.89 12.14 138.32 18.67 C 144.23 22.56 140.61 30.61 141.51 36.45 C 137.59 40.87 136.11 50.64 142.65 53.16 C 141.55 41.70 152.77 36.87 162.35 38.30 C 161.99 38.69 161.27 39.48 160.91 39.88 C 158.19 40.13 155.27 39.47 152.80 40.82 C 150.48 42.06 147.75 43.70 147.71 46.66 C 148.09 54.50 142.27 60.47 136.01 64.13 C 134.35 66.24 134.02 68.51 135.01 70.94 C 135.98 75.85 138.39 81.84 133.86 85.65 C 128.06 85.59 123.02 82.86 117.57 81.43 C 114.26 74.10 104.27 84.16 101.12 75.91 C 99.63 68.52 94.25 76.29 89.97 73.05 C 86.39 71.02 94.43 71.19 91.28 68.71 C 89.05 65.35 83.34 70.07 82.91 65.30 C 91.35 66.63 83.45 57.82 80.39 60.37 C 77.66 64.84 77.81 55.91 73.55 58.16 C 70.15 55.58 67.59 60.33 64.23 59.88 C 62.02 58.83 64.04 57.04 64.87 55.80 C 63.91 52.10 59.39 55.67 57.35 56.48 C 52.87 60.54 46.67 57.07 41.55 59.34 C 40.51 61.90 36.98 66.73 36.65 61.11 C 31.44 64.12 23.56 65.58 22.20 72.22 C 14.90 75.47 6.52 75.24 0.00 80.24 L 0.00 50.03 C 8.46 52.70 14.52 43.74 21.91 41.23 C 24.88 43.35 28.88 43.95 29.51 39.40 C 35.12 41.38 36.42 30.98 41.98 33.98 C 46.33 37.04 48.23 33.12 49.02 29.24 C 55.08 32.82 61.08 26.35 67.40 26.48 C 71.69 27.90 72.32 23.30 75.14 22.16 C 85.23 20.90 93.59 16.98 103.66 15.69 Z" />
</g>
<g id="#25250f7e">
<path fill="#25250f" opacity="0.49" d=" M 181.94 18.56 C 183.21 18.57 185.76 18.58 187.04 18.59 C 185.50 19.58 183.46 19.60 181.94 18.56 Z" />
</g>
<g id="#2e2d1084">
<path fill="#2e2d10" opacity="0.52" d=" M 193.02 18.63 C 194.26 18.63 196.74 18.64 197.97 18.64 C 196.49 19.64 194.49 19.65 193.02 18.63 Z" />
</g>
<g id="#596132fc">
<path fill="#596132" opacity="1.00" d=" M 169.42 25.39 C 171.98 19.07 180.05 25.90 181.94 18.56 C 183.46 19.60 185.50 19.58 187.04 18.59 C 188.97 22.22 191.23 22.63 193.02 18.63 C 194.49 19.65 196.49 19.64 197.97 18.64 C 199.60 21.31 202.17 23.14 205.06 24.22 C 201.39 28.13 191.63 23.13 188.53 29.70 C 190.53 34.79 185.06 32.43 182.08 31.39 C 181.16 35.11 177.77 36.31 174.82 38.08 C 170.90 39.96 166.46 40.70 163.09 43.73 C 159.80 41.82 152.17 41.98 151.39 45.57 C 155.27 46.08 156.67 54.20 160.44 49.42 C 161.45 47.82 166.93 45.12 165.55 48.64 C 163.83 53.83 169.23 46.32 171.69 48.28 C 175.74 50.02 166.25 54.19 170.99 56.09 C 168.99 58.73 170.80 61.01 173.33 62.26 C 170.11 63.53 167.19 60.62 164.12 60.06 C 159.99 63.13 171.15 68.35 164.07 70.16 C 159.13 73.50 152.97 64.79 149.74 70.72 C 146.23 67.47 141.33 75.47 146.60 75.24 C 145.71 77.87 145.37 80.61 144.98 83.35 C 142.39 83.24 141.71 80.89 140.75 78.92 C 138.02 80.14 138.94 83.25 139.02 85.81 C 142.44 85.25 146.21 85.64 147.95 89.08 C 152.14 93.86 157.31 85.81 161.70 89.28 C 164.43 91.08 163.73 95.24 166.56 97.06 C 168.68 94.25 167.27 84.86 172.72 89.28 C 174.91 91.81 178.18 90.19 181.00 90.76 C 181.62 93.96 176.06 94.05 177.57 97.33 C 179.80 103.14 167.94 97.67 168.99 102.97 C 171.05 102.74 173.07 102.26 175.14 102.03 C 174.68 104.82 171.36 105.67 169.01 106.26 C 165.18 100.89 160.00 104.57 158.67 109.77 C 157.28 106.43 154.47 106.90 153.60 110.37 C 151.29 105.42 145.33 104.63 140.85 106.96 C 140.84 104.66 142.47 103.07 143.74 101.37 C 137.40 101.14 141.37 92.68 137.16 90.65 C 138.37 84.06 138.81 77.14 135.79 71.00 C 135.84 69.28 135.95 65.84 136.01 64.13 C 142.27 60.47 148.09 54.50 147.71 46.66 C 147.75 43.70 150.48 42.06 152.80 40.82 C 155.51 40.58 159.06 42.32 160.91 39.88 C 161.27 39.48 161.99 38.69 162.35 38.30 C 167.40 35.96 170.55 31.23 169.42 25.39 Z" />
</g>
<g id="#8b9748f9">
<path fill="#8b9748" opacity="0.98" d=" M 205.84 23.88 C 210.14 20.29 221.09 22.90 218.35 29.23 C 214.53 30.93 210.37 35.02 206.06 32.86 C 207.41 29.82 208.41 26.64 205.84 23.88 Z" />
</g>
<g id="#797a3afc">
<path fill="#797a3a" opacity="1.00" d=" M 205.06 24.22 L 205.84 23.88 C 208.41 26.64 207.41 29.82 206.06 32.86 C 210.37 35.02 214.53 30.93 218.35 29.23 C 217.21 32.07 214.54 33.70 212.05 35.20 C 210.98 35.88 210.53 36.89 210.68 38.23 C 208.05 37.33 201.81 32.59 205.39 40.47 C 207.37 44.48 210.01 42.27 211.17 39.00 L 211.79 39.07 C 214.01 40.97 216.83 41.02 219.68 40.71 C 223.85 40.80 228.02 40.82 232.20 40.77 C 233.39 42.12 233.30 44.15 233.67 45.85 C 228.81 50.62 221.66 50.53 215.85 53.42 C 217.81 49.19 223.52 48.51 225.04 44.05 C 222.00 42.88 218.49 43.95 215.36 42.67 C 211.57 41.64 209.28 47.55 205.43 45.70 C 203.76 40.97 200.46 37.04 198.88 32.29 C 197.55 32.81 195.67 34.77 195.56 32.24 C 195.84 28.67 190.04 29.62 191.07 32.90 C 193.02 37.22 202.70 36.85 200.01 44.04 C 199.54 47.09 203.97 48.84 201.46 51.72 C 204.10 52.50 206.50 53.85 208.99 54.98 C 215.35 54.08 199.76 46.76 212.64 50.15 C 214.23 50.47 214.53 52.57 215.85 53.42 C 213.12 55.01 210.15 56.11 207.17 57.15 C 204.38 57.35 201.14 55.97 198.85 57.89 C 197.44 59.75 196.34 61.84 195.06 63.79 C 188.60 71.15 182.01 79.71 186.24 89.88 C 185.68 91.25 185.38 93.11 186.78 94.11 C 187.96 95.41 189.18 96.67 190.42 97.91 C 190.13 100.79 186.75 98.64 184.91 99.05 C 184.83 104.11 189.96 106.70 192.99 109.93 C 195.89 107.15 195.83 100.74 202.19 101.86 C 207.17 105.03 208.36 111.44 207.73 116.93 C 205.93 119.48 205.88 121.56 207.57 123.17 C 213.60 126.85 219.29 130.79 223.10 136.97 C 220.81 135.99 214.67 132.73 216.41 137.67 C 217.49 140.08 212.59 141.20 213.29 138.23 C 213.55 134.65 209.64 137.72 207.84 136.11 C 203.52 132.47 202.99 147.24 206.98 140.88 C 208.08 143.49 205.28 148.57 208.91 150.14 C 209.38 147.73 209.30 145.28 209.22 142.84 C 212.05 144.71 214.71 148.40 213.17 151.93 C 208.91 151.20 207.97 155.18 205.22 157.35 C 202.98 158.29 198.52 154.97 202.63 155.42 C 205.21 157.01 206.60 153.21 204.54 151.78 C 203.72 150.70 202.83 149.67 201.92 148.67 C 198.04 142.91 194.60 149.25 197.40 153.47 C 198.99 155.72 196.52 154.55 195.22 154.29 C 194.55 147.98 191.46 140.97 196.83 135.94 C 198.30 137.46 199.50 139.48 201.62 140.16 C 200.32 137.07 204.40 135.97 203.87 133.26 C 202.03 129.88 200.53 137.56 199.64 133.45 C 198.68 130.24 192.80 122.19 199.73 124.16 C 199.51 128.80 203.53 131.92 207.91 132.13 C 206.71 127.22 205.97 122.21 204.89 117.28 C 205.08 115.82 206.07 114.21 204.99 112.88 C 202.92 110.05 200.98 106.95 198.10 104.89 C 196.49 108.14 199.47 111.31 198.56 114.65 C 197.20 118.12 202.82 118.60 202.09 122.16 C 198.40 120.25 195.46 117.11 193.83 113.28 C 189.21 114.24 185.51 117.06 182.00 120.04 C 180.29 117.97 182.48 115.92 183.06 113.88 C 179.96 114.30 179.59 118.61 176.13 118.95 C 172.78 117.40 167.66 116.21 169.03 111.29 C 174.36 111.84 178.79 107.90 184.08 108.84 C 183.95 105.60 179.47 105.70 177.16 104.42 C 175.30 107.59 171.94 109.44 169.01 106.26 C 171.36 105.67 174.68 104.82 175.14 102.03 C 173.07 102.26 171.05 102.74 168.99 102.97 C 167.94 97.67 179.80 103.14 177.57 97.33 C 176.06 94.05 181.62 93.96 181.00 90.76 C 181.12 89.64 181.23 88.51 181.32 87.39 C 183.58 81.53 182.36 74.85 185.27 69.19 C 186.99 65.73 188.33 61.93 186.84 58.11 C 183.72 56.92 184.63 67.32 182.88 62.17 C 179.33 58.31 184.93 48.68 177.12 50.00 C 177.14 53.42 177.54 56.85 178.95 59.99 C 176.18 59.73 171.49 57.44 173.33 62.26 C 170.80 61.01 168.99 58.73 170.99 56.09 C 174.40 55.25 174.95 51.91 176.21 49.18 C 179.60 45.89 184.59 44.58 189.14 45.92 C 189.13 42.23 185.78 43.18 183.37 43.89 C 184.22 41.62 184.32 36.70 180.81 39.11 C 178.72 37.04 174.80 41.91 174.82 38.08 C 177.77 36.31 181.16 35.11 182.08 31.39 C 185.06 32.43 190.53 34.79 188.53 29.70 C 191.63 23.13 201.39 28.13 205.06 24.22 M 196.15 41.13 C 194.30 42.51 195.13 45.09 195.03 47.06 C 198.61 47.94 199.26 41.41 196.15 41.13 M 193.18 52.04 C 191.80 53.75 191.47 56.01 190.98 58.09 C 196.80 58.09 200.45 51.93 193.18 52.04 Z" />
</g>
<g id="#91a363ff">
<path fill="#91a363" opacity="1.00" d=" M 191.07 32.90 C 190.04 29.62 195.84 28.67 195.56 32.24 C 195.67 34.77 197.55 32.81 198.88 32.29 C 200.46 37.04 203.76 40.97 205.43 45.70 C 209.28 47.55 211.57 41.64 215.36 42.67 C 218.49 43.95 222.00 42.88 225.04 44.05 C 223.52 48.51 217.81 49.19 215.85 53.42 C 214.53 52.57 214.23 50.47 212.64 50.15 C 199.76 46.76 215.35 54.08 208.99 54.98 C 206.50 53.85 204.10 52.50 201.46 51.72 C 203.97 48.84 199.54 47.09 200.01 44.04 C 202.70 36.85 193.02 37.22 191.07 32.90 Z" />
</g>
<g id="#31321484">
<path fill="#313214" opacity="0.52" d=" M 210.68 38.23 C 210.53 36.89 210.98 35.88 212.05 35.20 C 212.16 36.51 212.08 37.80 211.79 39.07 L 211.17 39.00 L 210.68 38.23 Z" />
</g>
<g id="#a89469ff">
<path fill="#a89469" opacity="1.00" d=" M 205.39 40.47 C 201.81 32.59 208.05 37.33 210.68 38.23 L 211.17 39.00 C 210.01 42.27 207.37 44.48 205.39 40.47 Z" />
</g>
<g id="#667339ff">
<path fill="#667339" opacity="1.00" d=" M 163.09 43.73 C 166.46 40.70 170.90 39.96 174.82 38.08 C 174.80 41.91 178.72 37.04 180.81 39.11 C 184.32 36.70 184.22 41.62 183.37 43.89 C 185.78 43.18 189.13 42.23 189.14 45.92 C 184.59 44.58 179.60 45.89 176.21 49.18 C 174.95 51.91 174.40 55.25 170.99 56.09 C 166.25 54.19 175.74 50.02 171.69 48.28 C 169.23 46.32 163.83 53.83 165.55 48.64 C 166.93 45.12 161.45 47.82 160.44 49.42 C 156.67 54.20 155.27 46.08 151.39 45.57 C 152.17 41.98 159.80 41.82 163.09 43.73 Z" />
</g>
<g id="#241f128f">
<path fill="#241f12" opacity="0.56" d=" M 152.80 40.82 C 155.27 39.47 158.19 40.13 160.91 39.88 C 159.06 42.32 155.51 40.58 152.80 40.82 Z" />
</g>
<g id="#485522cf">
<path fill="#485522" opacity="0.81" d=" M 219.68 40.71 C 223.71 39.76 228.36 39.33 232.20 40.77 C 228.02 40.82 223.85 40.80 219.68 40.71 Z" />
</g>
<g id="#ad9b71ff">
<path fill="#ad9b71" opacity="1.00" d=" M 196.15 41.13 C 199.26 41.41 198.61 47.94 195.03 47.06 C 195.13 45.09 194.30 42.51 196.15 41.13 Z" />
</g>
<g id="#8b9d55ff">
<path fill="#8b9d55" opacity="1.00" d=" M 177.12 50.00 C 184.93 48.68 179.33 58.31 182.88 62.17 C 184.63 67.32 183.72 56.92 186.84 58.11 C 188.33 61.93 186.99 65.73 185.27 69.19 C 182.36 74.85 183.58 81.53 181.32 87.39 C 172.07 82.89 184.51 75.90 182.00 68.82 C 178.38 72.70 174.65 76.34 170.76 80.01 C 170.66 76.10 176.21 73.62 174.21 69.80 C 173.22 67.41 173.62 64.77 173.33 62.26 C 171.49 57.44 176.18 59.73 178.95 59.99 C 177.54 56.85 177.14 53.42 177.12 50.00 Z" />
</g>
<g id="#aa946aff">
<path fill="#aa946a" opacity="1.00" d=" M 193.18 52.04 C 200.45 51.93 196.80 58.09 190.98 58.09 C 191.47 56.01 191.80 53.75 193.18 52.04 Z" />
</g>
<g id="#0000001e">
<path fill="#000000" opacity="0.12" d=" M 57.35 56.48 C 59.39 55.67 63.91 52.10 64.87 55.80 C 64.04 57.04 62.02 58.83 64.23 59.88 C 67.59 60.33 70.15 55.58 73.55 58.16 C 77.81 55.91 77.66 64.84 80.39 60.37 C 83.45 57.82 91.35 66.63 82.91 65.30 C 83.34 70.07 89.05 65.35 91.28 68.71 C 94.43 71.19 86.39 71.02 89.97 73.05 C 94.25 76.29 99.63 68.52 101.12 75.91 C 104.27 84.16 114.26 74.10 117.57 81.43 C 123.02 82.86 128.06 85.59 133.86 85.65 C 138.39 81.84 135.98 75.85 135.01 70.94 L 135.79 71.00 C 138.81 77.14 138.37 84.06 137.16 90.65 C 136.31 92.66 135.40 94.67 134.92 96.81 C 134.65 98.30 134.10 101.28 133.82 102.77 C 132.70 104.03 131.60 105.31 130.44 106.52 C 128.61 109.07 124.35 102.23 125.61 106.91 C 121.18 106.98 116.09 107.70 114.10 102.83 C 110.38 101.21 104.44 104.74 101.24 100.76 C 95.97 96.31 89.60 101.74 84.29 97.69 C 81.33 95.46 75.68 101.90 75.61 96.09 C 65.86 97.30 57.29 103.55 47.22 102.69 C 45.08 105.69 40.38 105.69 39.52 109.61 C 38.79 112.51 35.49 112.98 33.21 114.25 C 28.53 116.89 24.49 107.76 20.07 111.04 C 21.59 112.93 24.10 114.34 21.79 116.83 C 14.38 114.86 7.41 120.31 0.00 119.36 L 0.00 80.24 C 6.52 75.24 14.90 75.47 22.20 72.22 C 23.56 65.58 31.44 64.12 36.65 61.11 C 36.98 66.73 40.51 61.90 41.55 59.34 C 46.67 57.07 52.87 60.54 57.35 56.48 Z" />
</g>
<g id="#283212b0">
<path fill="#283212" opacity="0.69" d=" M 198.85 57.89 C 201.14 55.97 204.38 57.35 207.17 57.15 C 204.55 58.29 201.62 57.80 198.85 57.89 Z" />
</g>
<g id="#6a7e3eff">
<path fill="#6a7e3e" opacity="1.00" d=" M 164.12 60.06 C 167.19 60.62 170.11 63.53 173.33 62.26 C 173.62 64.77 173.22 67.41 174.21 69.80 C 176.21 73.62 170.66 76.10 170.76 80.01 C 174.65 76.34 178.38 72.70 182.00 68.82 C 184.51 75.90 172.07 82.89 181.32 87.39 C 181.23 88.51 181.12 89.64 181.00 90.76 C 178.18 90.19 174.91 91.81 172.72 89.28 C 167.27 84.86 168.68 94.25 166.56 97.06 C 163.73 95.24 164.43 91.08 161.70 89.28 C 157.31 85.81 152.14 93.86 147.95 89.08 C 146.21 85.64 142.44 85.25 139.02 85.81 C 138.94 83.25 138.02 80.14 140.75 78.92 C 141.71 80.89 142.39 83.24 144.98 83.35 C 147.45 84.71 150.23 84.90 153.02 85.04 C 152.99 80.10 151.26 75.37 149.74 70.72 C 152.97 64.79 159.13 73.50 164.07 70.16 C 171.15 68.35 159.99 63.13 164.12 60.06 Z" />
</g>
<g id="#24231386">
<path fill="#242313" opacity="0.53" d=" M 135.01 70.94 C 134.02 68.51 134.35 66.24 136.01 64.13 C 135.95 65.84 135.84 69.28 135.79 71.00 L 135.01 70.94 Z" />
</g>
<g id="#01010018">
<path fill="#010100" opacity="0.09" d=" M 186.24 89.88 C 182.01 79.71 188.60 71.15 195.06 63.79 C 196.07 66.05 195.66 68.46 195.25 70.79 C 201.69 69.82 205.63 74.34 210.24 77.51 C 219.18 73.98 211.61 88.15 219.60 83.43 C 223.38 82.58 223.81 88.46 227.04 89.95 C 222.55 93.28 223.29 102.15 229.59 102.55 C 234.31 104.03 229.48 110.26 231.89 113.11 C 236.80 120.26 239.19 128.68 244.11 135.78 C 245.76 140.38 252.42 144.79 247.88 149.82 C 244.66 153.54 252.34 151.47 254.05 153.97 C 257.73 155.51 249.54 157.56 252.92 159.12 C 258.69 163.92 269.06 164.83 270.01 173.97 C 272.67 179.53 265.34 179.71 265.32 184.31 C 264.38 188.73 269.73 185.48 271.82 184.93 L 271.73 185.80 C 270.83 194.83 273.26 204.12 269.81 212.87 C 266.23 219.70 259.38 224.43 256.50 231.73 C 252.15 230.73 248.97 226.10 244.22 225.69 C 236.86 221.91 232.55 228.81 227.30 232.28 L 227.17 231.34 C 230.23 224.47 235.85 218.88 237.18 211.19 C 238.13 205.47 238.86 199.33 237.20 193.68 C 236.85 192.43 237.05 191.47 237.80 190.80 C 240.90 190.73 244.26 191.60 247.17 190.17 C 251.75 188.30 256.06 185.82 260.19 183.11 C 260.51 182.91 261.14 182.51 261.46 182.31 C 265.40 180.22 268.35 175.95 266.89 171.21 C 263.37 167.89 259.23 164.40 254.09 164.90 C 252.85 164.12 251.65 163.21 250.23 162.79 C 246.44 161.49 242.56 162.14 238.75 162.72 C 235.46 163.47 237.11 158.85 236.33 156.76 C 234.56 148.70 230.08 141.44 223.10 136.97 C 219.29 130.79 213.60 126.85 207.57 123.17 C 208.68 121.24 208.47 118.95 207.73 116.93 C 208.36 111.44 207.17 105.03 202.19 101.86 C 200.91 100.99 199.52 100.29 198.14 99.61 C 196.62 98.46 194.65 98.64 192.95 99.21 C 192.11 98.77 191.26 98.34 190.42 97.91 C 189.18 96.67 187.96 95.41 186.78 94.11 C 187.39 92.71 187.41 91.00 186.24 89.88 Z" />
</g>
<g id="#454f27ff">
<path fill="#454f27" opacity="1.00" d=" M 146.60 75.24 C 141.33 75.47 146.23 67.47 149.74 70.72 C 151.26 75.37 152.99 80.10 153.02 85.04 C 150.23 84.90 147.45 84.71 144.98 83.35 C 145.37 80.61 145.71 77.87 146.60 75.24 Z" />
</g>
<g id="#373f1e86">
<path fill="#373f1e" opacity="0.53" d=" M 186.24 89.88 C 187.41 91.00 187.39 92.71 186.78 94.11 C 185.38 93.11 185.68 91.25 186.24 89.88 Z" />
</g>
<g id="#5e6639ff">
<path fill="#5e6639" opacity="1.00" d=" M 137.16 90.65 C 141.37 92.68 137.40 101.14 143.74 101.37 C 142.47 103.07 140.84 104.66 140.85 106.96 C 145.33 104.63 151.29 105.42 153.60 110.37 C 158.48 115.49 166.24 120.64 166.90 129.17 C 170.79 130.52 170.87 123.57 174.36 125.90 C 171.70 133.26 164.07 139.80 168.11 147.96 C 170.08 147.28 171.95 146.32 173.98 145.82 C 172.18 148.67 170.92 153.32 176.09 152.29 C 174.69 154.94 171.43 155.55 169.78 157.98 C 173.22 157.55 177.14 156.30 177.97 159.77 C 181.20 153.84 181.89 160.28 178.52 163.93 C 175.15 156.83 174.19 167.03 175.14 170.73 C 178.85 171.81 182.39 174.39 181.37 179.14 C 186.13 177.17 183.64 169.04 189.00 166.83 C 188.84 168.29 188.58 169.75 188.26 171.19 C 187.61 173.09 186.82 174.96 186.56 176.96 C 186.70 180.79 180.89 187.92 187.70 187.26 C 186.57 190.05 189.21 194.51 185.68 195.69 C 182.86 196.18 186.34 200.40 182.91 200.14 C 180.61 200.95 184.39 202.88 185.33 203.63 L 184.69 204.34 C 181.92 205.98 183.83 209.00 183.73 211.49 C 179.58 212.32 178.73 216.27 178.69 220.14 C 176.09 219.06 175.70 215.53 172.96 214.87 C 172.30 217.79 174.40 219.94 176.35 221.76 C 179.84 223.19 181.19 216.76 184.68 218.26 C 188.18 219.03 188.69 222.95 189.08 225.91 C 183.79 224.66 178.27 226.44 173.20 224.15 C 170.71 225.98 170.77 229.08 170.55 231.95 C 170.02 232.97 169.48 233.98 168.95 235.00 C 166.81 232.57 162.10 231.70 164.09 227.12 C 164.26 224.84 168.52 224.88 167.89 222.22 C 164.05 217.66 152.94 227.33 152.51 219.35 C 151.41 214.42 144.90 214.72 141.08 212.72 C 140.64 208.97 144.92 210.80 147.03 210.94 C 148.76 205.76 141.22 203.95 142.22 199.30 C 143.45 196.27 145.78 198.15 147.88 199.01 C 148.35 193.54 151.65 189.79 156.37 187.28 C 162.02 183.04 162.29 193.07 167.17 190.35 C 176.24 189.53 163.50 180.51 171.79 177.60 C 169.22 172.99 167.45 174.48 167.02 179.21 C 166.04 178.34 165.07 177.45 164.07 176.61 C 162.08 174.53 158.50 173.37 158.86 169.94 C 161.31 171.27 163.12 174.03 166.11 174.10 C 165.66 169.79 160.59 164.17 156.77 168.93 C 150.65 166.60 157.37 156.86 149.11 157.59 C 148.31 150.58 154.61 146.86 159.20 143.02 C 157.18 137.46 153.28 142.91 150.06 144.26 C 146.72 138.00 153.91 138.03 156.94 135.68 C 154.64 130.78 146.30 129.24 147.14 123.26 C 149.50 120.19 153.78 120.58 157.20 119.80 C 150.83 121.40 152.78 133.48 159.16 131.54 C 159.49 131.20 160.14 130.51 160.46 130.17 C 164.60 126.56 163.14 119.89 157.20 119.80 C 159.46 115.12 149.81 118.77 147.19 119.15 C 144.00 122.43 141.70 128.80 145.00 133.02 C 148.14 138.77 138.47 139.14 135.06 136.65 C 137.76 134.91 142.85 132.55 140.43 128.62 C 139.39 124.82 135.10 126.67 132.26 126.41 C 134.17 131.73 130.96 132.26 127.48 132.13 C 127.28 130.66 126.85 129.22 126.10 127.94 C 125.55 122.80 127.80 118.21 129.89 113.74 C 131.54 111.70 133.03 109.51 134.16 107.13 C 135.04 103.76 134.95 100.26 134.92 96.81 C 135.40 94.67 136.31 92.66 137.16 90.65 Z" />
</g>
<g id="#00000025">
<path fill="#000000" opacity="0.15" d=" M 47.22 102.69 C 57.29 103.55 65.86 97.30 75.61 96.09 C 75.68 101.90 81.33 95.46 84.29 97.69 C 89.60 101.74 95.97 96.31 101.24 100.76 C 104.44 104.74 110.38 101.21 114.10 102.83 C 116.09 107.70 121.18 106.98 125.61 106.91 C 124.35 102.23 128.61 109.07 130.44 106.52 C 131.60 105.31 132.70 104.03 133.82 102.77 C 133.94 104.22 134.05 105.68 134.16 107.13 C 133.03 109.51 131.54 111.70 129.89 113.74 C 125.80 115.46 125.13 120.29 122.77 123.58 C 112.91 121.49 101.82 125.54 94.08 117.03 C 96.89 122.42 91.01 121.62 88.83 118.13 C 80.85 120.05 71.54 119.47 64.89 124.96 C 59.36 120.56 53.99 126.79 47.97 125.94 C 31.97 126.60 15.95 127.87 0.00 127.71 L 0.00 119.36 C 7.41 120.31 14.38 114.86 21.79 116.83 C 24.10 114.34 21.59 112.93 20.07 111.04 C 24.49 107.76 28.53 116.89 33.21 114.25 C 35.49 112.98 38.79 112.51 39.52 109.61 C 40.38 105.69 45.08 105.69 47.22 102.69 Z" />
</g>
<g id="#2627158a">
<path fill="#262715" opacity="0.54" d=" M 133.82 102.77 C 134.10 101.28 134.65 98.30 134.92 96.81 C 134.95 100.26 135.04 103.76 134.16 107.13 C 134.05 105.68 133.94 104.22 133.82 102.77 Z" />
</g>
<g id="#686133fc">
<path fill="#686133" opacity="1.00" d=" M 190.42 97.91 C 191.26 98.34 192.11 98.77 192.95 99.21 C 194.37 100.61 196.46 100.37 198.14 99.61 C 199.52 100.29 200.91 100.99 202.19 101.86 C 195.83 100.74 195.89 107.15 192.99 109.93 C 189.96 106.70 184.83 104.11 184.91 99.05 C 186.75 98.64 190.13 100.79 190.42 97.91 Z" />
</g>
<g id="#2521108e">
<path fill="#252110" opacity="0.56" d=" M 192.95 99.21 C 194.65 98.64 196.62 98.46 198.14 99.61 C 196.46 100.37 194.37 100.61 192.95 99.21 Z" />
</g>
<g id="#808c49ff">
<path fill="#808c49" opacity="1.00" d=" M 158.67 109.77 C 160.00 104.57 165.18 100.89 169.01 106.26 C 171.94 109.44 175.30 107.59 177.16 104.42 C 179.47 105.70 183.95 105.60 184.08 108.84 C 178.79 107.90 174.36 111.84 169.03 111.29 C 167.66 116.21 172.78 117.40 176.13 118.95 C 175.32 123.12 166.90 118.27 171.63 122.45 C 169.16 124.14 166.19 125.59 166.90 129.17 C 166.24 120.64 158.48 115.49 153.60 110.37 C 154.47 106.90 157.28 106.43 158.67 109.77 Z" />
</g>
<g id="#909960ff">
<path fill="#909960" opacity="1.00" d=" M 198.10 104.89 C 200.98 106.95 202.92 110.05 204.99 112.88 C 200.30 112.01 202.61 115.70 204.89 117.28 C 205.97 122.21 206.71 127.22 207.91 132.13 C 203.53 131.92 199.51 128.80 199.73 124.16 C 192.80 122.19 198.68 130.24 199.64 133.45 C 200.53 137.56 202.03 129.88 203.87 133.26 C 204.40 135.97 200.32 137.07 201.62 140.16 C 199.50 139.48 198.30 137.46 196.83 135.94 C 195.18 134.72 195.62 132.70 195.67 130.93 C 191.88 131.47 185.67 134.15 183.85 129.14 C 183.02 125.23 179.09 128.19 176.72 128.80 C 176.27 124.77 182.96 123.97 179.82 121.09 C 176.64 120.38 177.55 125.78 174.36 125.90 C 170.87 123.57 170.79 130.52 166.90 129.17 C 166.19 125.59 169.16 124.14 171.63 122.45 C 166.90 118.27 175.32 123.12 176.13 118.95 C 179.59 118.61 179.96 114.30 183.06 113.88 C 182.48 115.92 180.29 117.97 182.00 120.04 C 185.51 117.06 189.21 114.24 193.83 113.28 C 195.46 117.11 198.40 120.25 202.09 122.16 C 202.82 118.60 197.20 118.12 198.56 114.65 C 199.47 111.31 196.49 108.14 198.10 104.89 Z" />
</g>
<g id="#cdbfa6ff">
<path fill="#cdbfa6" opacity="1.00" d=" M 204.89 117.28 C 202.61 115.70 200.30 112.01 204.99 112.88 C 206.07 114.21 205.08 115.82 204.89 117.28 Z" />
</g>
<g id="#0000002e">
<path fill="#000000" opacity="0.18" d=" M 122.77 123.58 C 125.13 120.29 125.80 115.46 129.89 113.74 C 127.80 118.21 125.55 122.80 126.10 127.94 C 126.06 129.69 125.99 133.19 125.95 134.95 C 109.22 140.21 90.63 133.05 73.04 134.81 C 48.87 131.35 24.30 133.14 0.00 134.06 L 0.00 127.71 C 15.95 127.87 31.97 126.60 47.97 125.94 C 53.99 126.79 59.36 120.56 64.89 124.96 C 71.54 119.47 80.85 120.05 88.83 118.13 C 91.01 121.62 96.89 122.42 94.08 117.03 C 101.82 125.54 112.91 121.49 122.77 123.58 Z" />
</g>
<g id="#322d148c">
<path fill="#322d14" opacity="0.55" d=" M 207.57 123.17 C 205.88 121.56 205.93 119.48 207.73 116.93 C 208.47 118.95 208.68 121.24 207.57 123.17 Z" />
</g>
<g id="#555831fe">
<path fill="#555831" opacity="1.00" d=" M 147.19 119.15 C 149.81 118.77 159.46 115.12 157.20 119.80 C 153.78 120.58 149.50 120.19 147.14 123.26 C 146.30 129.24 154.64 130.78 156.94 135.68 C 153.91 138.03 146.72 138.00 150.06 144.26 C 153.28 142.91 157.18 137.46 159.20 143.02 C 154.61 146.86 148.31 150.58 149.11 157.59 C 157.37 156.86 150.65 166.60 156.77 168.93 C 160.59 164.17 165.66 169.79 166.11 174.10 C 163.12 174.03 161.31 171.27 158.86 169.94 C 158.50 173.37 162.08 174.53 164.07 176.61 C 160.50 176.32 164.99 182.52 161.16 180.81 C 154.46 175.40 145.79 174.39 137.41 174.21 C 137.71 180.18 132.50 179.40 128.82 176.99 C 127.31 173.80 128.94 170.38 129.49 167.17 C 129.74 166.66 130.24 165.63 130.49 165.12 C 130.72 164.60 131.18 163.57 131.41 163.05 C 130.77 156.34 132.59 149.46 131.51 142.86 C 131.23 142.39 130.67 141.46 130.39 140.99 C 129.73 139.98 129.05 138.98 128.36 137.99 C 127.74 136.98 127.13 135.97 126.55 134.94 C 126.78 134.24 127.24 132.84 127.48 132.13 C 130.96 132.26 134.17 131.73 132.26 126.41 C 135.10 126.67 139.39 124.82 140.43 128.62 C 142.85 132.55 137.76 134.91 135.06 136.65 C 138.47 139.14 148.14 138.77 145.00 133.02 C 141.70 128.80 144.00 122.43 147.19 119.15 Z" />
</g>
<g id="#908157ff">
<path fill="#908157" opacity="1.00" d=" M 157.20 119.80 C 163.14 119.89 164.60 126.56 160.46 130.17 C 159.45 124.92 153.92 130.44 159.16 131.54 C 152.78 133.48 150.83 121.40 157.20 119.80 Z" />
</g>
<g id="#717b3eff">
<path fill="#717b3e" opacity="1.00" d=" M 174.36 125.90 C 177.55 125.78 176.64 120.38 179.82 121.09 C 182.96 123.97 176.27 124.77 176.72 128.80 C 179.09 128.19 183.02 125.23 183.85 129.14 C 185.67 134.15 191.88 131.47 195.67 130.93 C 195.62 132.70 195.18 134.72 196.83 135.94 C 191.46 140.97 194.55 147.98 195.22 154.29 C 192.11 156.81 188.37 154.07 184.92 153.97 C 185.03 159.10 191.91 160.81 196.01 158.91 C 194.17 159.88 193.88 161.09 195.82 162.11 C 197.99 158.83 201.27 157.44 205.22 157.35 C 207.97 155.18 208.91 151.20 213.17 151.93 C 214.90 150.68 216.79 149.55 219.03 149.93 C 218.81 154.20 215.71 161.30 221.71 162.52 C 221.47 165.66 214.90 166.55 214.56 169.91 C 216.48 173.81 220.32 168.80 223.25 168.45 C 225.75 169.00 230.09 165.50 229.12 170.07 C 229.81 172.79 231.70 168.20 232.21 167.03 C 234.14 167.59 234.04 170.52 234.83 172.15 C 229.54 175.10 227.83 185.13 234.73 187.13 C 233.29 189.53 231.11 187.58 229.21 186.98 C 228.40 182.69 228.28 178.28 228.89 173.96 C 224.84 168.29 220.42 189.65 226.81 183.19 C 227.17 184.85 226.64 187.49 229.21 186.98 C 228.00 189.82 225.49 190.46 222.99 191.50 C 225.46 193.34 228.93 194.19 230.45 197.06 C 228.50 199.64 224.74 198.98 221.91 199.97 C 223.32 196.74 222.64 194.15 219.31 192.76 C 220.45 186.47 222.03 180.24 222.85 173.88 C 220.17 173.61 219.56 176.32 218.31 178.07 C 214.32 178.01 214.29 182.23 213.62 185.12 C 208.71 183.47 216.84 169.46 209.91 174.12 C 212.53 176.07 211.05 178.78 208.17 179.24 C 209.27 175.55 206.80 171.40 208.94 167.95 C 206.18 169.68 193.95 171.94 204.53 172.48 C 208.64 174.71 198.67 178.61 204.34 181.98 C 203.55 183.13 202.58 183.99 201.19 183.24 C 198.70 178.11 197.65 172.55 196.72 166.98 C 193.32 167.77 192.62 173.78 188.26 171.19 C 188.58 169.75 188.84 168.29 189.00 166.83 C 183.64 169.04 186.13 177.17 181.37 179.14 C 182.39 174.39 178.85 171.81 175.14 170.73 C 174.19 167.03 175.15 156.83 178.52 163.93 C 181.89 160.28 181.20 153.84 177.97 159.77 C 177.14 156.30 173.22 157.55 169.78 157.98 C 171.43 155.55 174.69 154.94 176.09 152.29 C 170.92 153.32 172.18 148.67 173.98 145.82 C 171.95 146.32 170.08 147.28 168.11 147.96 C 164.07 139.80 171.70 133.26 174.36 125.90 M 184.01 158.96 C 180.46 168.92 190.26 165.72 192.97 162.89 C 192.79 160.74 189.02 163.35 187.32 162.94 C 186.90 161.18 186.53 158.34 184.01 158.96 Z" />
</g>
<g id="#2528148b">
<path fill="#252814" opacity="0.55" d=" M 126.10 127.94 C 126.85 129.22 127.28 130.66 127.48 132.13 C 127.24 132.84 126.78 134.24 126.55 134.94 L 125.95 134.95 C 125.99 133.19 126.06 129.69 126.10 127.94 Z" />
</g>
<g id="#d5cbbbff">
<path fill="#d5cbbb" opacity="1.00" d=" M 159.16 131.54 C 153.92 130.44 159.45 124.92 160.46 130.17 C 160.14 130.51 159.49 131.20 159.16 131.54 Z" />
</g>
<g id="#0000003d">
<path fill="#000000" opacity="0.24" d=" M 0.00 134.06 C 24.30 133.14 48.87 131.35 73.04 134.81 C 90.63 133.05 109.22 140.21 125.95 134.95 L 126.55 134.94 C 127.13 135.97 127.74 136.98 128.36 137.99 C 127.89 139.01 127.36 139.99 126.76 140.93 C 84.57 141.61 41.91 133.63 0.00 141.13 L 0.00 134.06 Z" />
</g>
<g id="#838e4bfd">
<path fill="#838e4b" opacity="1.00" d=" M 206.98 140.88 C 202.99 147.24 203.52 132.47 207.84 136.11 C 209.64 137.72 213.55 134.65 213.29 138.23 C 212.59 141.20 217.49 140.08 216.41 137.67 C 214.67 132.73 220.81 135.99 223.10 136.97 C 230.08 141.44 234.56 148.70 236.33 156.76 C 239.58 166.77 228.17 165.12 226.81 158.66 C 222.81 159.62 217.31 149.10 226.06 152.81 C 225.90 149.70 221.31 150.40 219.03 149.93 C 216.79 149.55 214.90 150.68 213.17 151.93 C 214.71 148.40 212.05 144.71 209.22 142.84 C 209.30 145.28 209.38 147.73 208.91 150.14 C 205.28 148.57 208.08 143.49 206.98 140.88 Z" />
</g>
<g id="#0000004e">
<path fill="#000000" opacity="0.31" d=" M 0.00 141.13 C 41.91 133.63 84.57 141.61 126.76 140.93 C 127.36 139.99 127.89 139.01 128.36 137.99 C 129.05 138.98 129.73 139.98 130.39 140.99 C 126.54 145.25 120.52 143.24 115.59 143.30 C 82.55 144.74 48.11 138.10 15.90 148.24 C 16.84 150.27 18.97 149.62 20.77 149.63 C 24.62 155.95 33.31 151.22 39.17 154.64 C 68.82 154.14 98.28 156.85 127.37 162.57 C 128.83 162.88 130.16 163.52 130.49 165.12 C 130.24 165.63 129.74 166.66 129.49 167.17 C 129.19 165.64 128.04 164.75 126.57 164.45 C 99.26 160.67 71.70 157.96 44.12 159.48 C 29.34 160.13 14.64 158.92 0.00 156.87 L 0.00 141.13 Z" />
</g>
<g id="#0000005b">
<path fill="#000000" opacity="0.36" d=" M 130.39 140.99 C 130.67 141.46 131.23 142.39 131.51 142.86 C 131.22 144.88 129.25 145.24 127.58 145.58 C 113.61 146.43 99.48 146.33 85.58 147.58 C 82.26 147.98 85.09 151.70 87.12 151.84 C 98.17 153.96 109.08 156.71 120.15 158.79 C 124.03 159.81 128.74 159.60 131.41 163.05 C 131.18 163.57 130.72 164.60 130.49 165.12 C 130.16 163.52 128.83 162.88 127.37 162.57 C 98.28 156.85 68.82 154.14 39.17 154.64 C 33.31 151.22 24.62 155.95 20.77 149.63 C 18.97 149.62 16.84 150.27 15.90 148.24 C 48.11 138.10 82.55 144.74 115.59 143.30 C 120.52 143.24 126.54 145.25 130.39 140.99 Z" />
</g>
<g id="#0101016c">
<path fill="#010101" opacity="0.42" d=" M 131.51 142.86 C 132.59 149.46 130.77 156.34 131.41 163.05 C 128.74 159.60 124.03 159.81 120.15 158.79 C 109.08 156.71 98.17 153.96 87.12 151.84 C 85.09 151.70 82.26 147.98 85.58 147.58 C 99.48 146.33 113.61 146.43 127.58 145.58 C 129.25 145.24 131.22 144.88 131.51 142.86 Z" />
</g>
<g id="#91935aff">
<path fill="#91935a" opacity="1.00" d=" M 197.40 153.47 C 194.60 149.25 198.04 142.91 201.92 148.67 C 197.91 152.29 200.64 155.36 204.54 151.78 C 206.60 153.21 205.21 157.01 202.63 155.42 C 198.52 154.97 202.98 158.29 205.22 157.35 C 201.27 157.44 197.99 158.83 195.82 162.11 C 193.88 161.09 194.17 159.88 196.01 158.91 C 191.91 160.81 185.03 159.10 184.92 153.97 C 188.37 154.07 192.11 156.81 195.22 154.29 C 196.52 154.55 198.99 155.72 197.40 153.47 Z" />
</g>
<g id="#c3b298ff">
<path fill="#c3b298" opacity="1.00" d=" M 204.54 151.78 C 200.64 155.36 197.91 152.29 201.92 148.67 C 202.83 149.67 203.72 150.70 204.54 151.78 Z" />
</g>
<g id="#5b612afd">
<path fill="#5b612a" opacity="1.00" d=" M 219.03 149.93 C 221.31 150.40 225.90 149.70 226.06 152.81 C 217.31 149.10 222.81 159.62 226.81 158.66 C 228.17 165.12 239.58 166.77 236.33 156.76 C 237.11 158.85 235.46 163.47 238.75 162.72 C 242.56 162.89 246.41 162.99 250.23 162.79 C 251.65 163.21 252.85 164.12 254.09 164.90 C 249.61 166.28 244.50 168.06 239.94 166.10 C 235.66 164.89 238.24 171.88 234.83 172.15 C 234.04 170.52 234.14 167.59 232.21 167.03 C 231.70 168.20 229.81 172.79 229.12 170.07 C 230.09 165.50 225.75 169.00 223.25 168.45 C 220.32 168.80 216.48 173.81 214.56 169.91 C 214.90 166.55 221.47 165.66 221.71 162.52 C 215.71 161.30 218.81 154.20 219.03 149.93 Z" />
</g>
<g id="#00000041">
<path fill="#000000" opacity="0.25" d=" M 0.00 156.87 C 14.64 158.92 29.34 160.13 44.12 159.48 C 71.70 157.96 99.26 160.67 126.57 164.45 C 128.04 164.75 129.19 165.64 129.49 167.17 C 128.94 170.38 127.31 173.80 128.82 176.99 C 129.40 182.21 134.69 183.29 138.43 185.58 C 128.64 194.34 132.11 209.10 141.34 216.91 C 140.94 224.16 130.34 220.80 126.00 222.02 C 96.54 219.94 67.18 216.30 37.96 211.98 C 25.07 209.91 13.07 203.85 0.00 202.83 L 0.00 195.81 C 19.56 199.31 37.48 209.17 57.46 211.41 C 78.86 213.68 100.19 218.48 121.76 217.80 C 123.88 215.41 127.33 208.10 121.26 210.96 C 121.84 205.04 120.44 197.74 125.80 193.91 C 130.50 192.59 130.54 186.45 127.99 183.11 C 124.86 178.54 126.56 172.97 124.75 168.24 C 102.27 166.03 79.75 161.57 57.08 163.59 C 38.05 163.97 18.98 164.68 0.00 162.90 L 0.00 156.87 Z" />
</g>
<g id="#919360ff">
<path fill="#919360" opacity="1.00" d=" M 184.01 158.96 C 186.53 158.34 186.90 161.18 187.32 162.94 C 189.02 163.35 192.79 160.74 192.97 162.89 C 190.26 165.72 180.46 168.92 184.01 158.96 Z" />
</g>
<g id="#1f240f92">
<path fill="#1f240f" opacity="0.57" d=" M 238.75 162.72 C 242.56 162.14 246.44 161.49 250.23 162.79 C 246.41 162.99 242.56 162.89 238.75 162.72 Z" />
</g>
<g id="#60723ffa">
<path fill="#60723f" opacity="0.98" d=" M 297.69 173.11 C 303.53 169.24 310.01 157.12 317.10 164.58 C 311.88 164.82 317.73 172.56 318.56 166.85 C 318.98 167.91 318.91 169.07 318.19 170.00 C 312.74 172.99 310.16 179.62 304.99 183.22 C 302.40 180.62 299.55 178.11 297.66 174.93 C 297.67 174.48 297.68 173.57 297.69 173.11 Z" />
</g>
<g id="#00000036">
<path fill="#000000" opacity="0.21" d=" M 0.00 162.90 C 18.98 164.68 38.05 163.97 57.08 163.59 C 79.75 161.57 102.27 166.03 124.75 168.24 C 126.56 172.97 124.86 178.54 127.99 183.11 C 130.54 186.45 130.50 192.59 125.80 193.91 C 120.44 197.74 121.84 205.04 121.26 210.96 C 127.33 208.10 123.88 215.41 121.76 217.80 C 100.19 218.48 78.86 213.68 57.46 211.41 C 37.48 209.17 19.56 199.31 0.00 195.81 L 0.00 186.71 C 30.62 201.95 64.30 212.12 98.79 211.84 C 101.55 205.92 96.89 199.44 99.76 193.89 C 96.44 189.04 93.58 182.34 87.02 182.86 C 92.24 175.69 81.88 171.88 76.86 169.20 C 53.30 164.01 28.77 172.65 5.16 168.27 C 3.43 168.50 1.72 168.88 0.00 169.19 L 0.00 162.90 Z" />
</g>
<g id="#48592cf9">
<path fill="#48592c" opacity="0.98" d=" M 286.72 163.67 C 291.31 161.20 294.12 167.78 296.27 170.91 C 296.42 174.82 294.02 177.95 291.11 180.25 C 290.45 177.39 296.75 170.86 292.32 171.34 C 289.25 178.56 278.21 179.44 278.17 188.13 C 278.63 192.11 281.79 197.54 277.21 200.16 C 278.68 194.48 274.56 190.16 271.73 185.80 L 271.82 184.93 C 277.64 178.52 281.94 170.95 286.72 163.67 Z" />
</g>
<g id="#71833bfe">
<path fill="#71833b" opacity="1.00" d=" M 239.94 166.10 C 244.50 168.06 249.61 166.28 254.09 164.90 C 254.98 168.46 260.01 166.95 260.52 170.42 C 260.98 174.34 262.35 178.33 261.46 182.31 C 261.14 182.51 260.51 182.91 260.19 183.11 C 257.30 182.97 254.71 184.23 252.14 185.36 C 252.81 182.94 254.02 180.38 256.95 181.51 C 258.08 178.06 260.98 174.03 259.00 170.33 C 255.72 173.35 253.76 167.72 250.20 169.05 C 251.96 178.15 249.58 173.85 247.99 172.05 C 246.02 168.42 239.05 168.79 237.57 172.67 C 236.94 174.78 235.77 172.96 234.83 172.15 C 238.24 171.88 235.66 164.89 239.94 166.10 Z" />
</g>
<g id="#464f26ee">
<path fill="#464f26" opacity="0.93" d=" M 254.09 164.90 C 259.23 164.40 263.37 167.89 266.89 171.21 C 268.35 175.95 265.40 180.22 261.46 182.31 C 262.35 178.33 260.98 174.34 260.52 170.42 C 260.01 166.95 254.98 168.46 254.09 164.90 Z" />
</g>
<g id="#9c9e6af7">
<path fill="#9c9e6a" opacity="0.97" d=" M 318.56 166.85 C 317.73 172.56 311.88 164.82 317.10 164.58 C 317.47 165.15 318.20 166.28 318.56 166.85 Z" />
</g>
<g id="#0000002c">
<path fill="#000000" opacity="0.17" d=" M 5.16 168.27 C 28.77 172.65 53.30 164.01 76.86 169.20 C 81.88 171.88 92.24 175.69 87.02 182.86 C 93.58 182.34 96.44 189.04 99.76 193.89 C 96.89 199.44 101.55 205.92 98.79 211.84 C 64.30 212.12 30.62 201.95 0.00 186.71 L 0.00 169.19 C 1.72 168.88 3.43 168.50 5.16 168.27 Z" />
</g>
<g id="#8f995fff">
<path fill="#8f995f" opacity="1.00" d=" M 188.26 171.19 C 192.62 173.78 193.32 167.77 196.72 166.98 C 197.65 172.55 198.70 178.11 201.19 183.24 C 200.99 186.37 196.07 189.70 199.52 192.33 C 202.43 193.15 203.10 197.48 200.46 199.01 C 200.41 195.15 196.09 194.20 195.45 190.83 C 195.53 187.68 194.76 183.08 198.71 182.48 C 200.83 178.13 193.85 181.64 192.38 180.65 C 189.77 177.76 191.16 172.30 186.56 176.96 C 186.82 174.96 187.61 173.09 188.26 171.19 Z" />
</g>
<g id="#919f60ff">
<path fill="#919f60" opacity="1.00" d=" M 204.53 172.48 C 193.95 171.94 206.18 169.68 208.94 167.95 C 206.80 171.40 209.27 175.55 208.17 179.24 C 211.05 178.78 212.53 176.07 209.91 174.12 C 216.84 169.46 208.71 183.47 213.62 185.12 C 214.29 182.23 214.32 178.01 218.31 178.07 C 217.48 181.64 215.46 185.18 217.76 188.62 C 214.00 189.12 217.22 194.57 214.30 193.82 C 216.47 187.71 210.79 187.52 207.20 185.92 C 206.26 184.60 205.33 183.27 204.34 181.98 C 198.67 178.61 208.64 174.71 204.53 172.48 Z" />
</g>
<g id="#9fae64ff">
<path fill="#9fae64" opacity="1.00" d=" M 250.20 169.05 C 253.76 167.72 255.72 173.35 259.00 170.33 C 260.98 174.03 258.08 178.06 256.95 181.51 C 254.02 180.38 252.81 182.94 252.14 185.36 C 248.68 188.97 249.06 182.97 246.09 183.25 C 236.12 187.02 239.41 166.88 247.99 172.05 C 249.58 173.85 251.96 178.15 250.20 169.05 Z" />
</g>
<g id="#61733ffd">
<path fill="#61733f" opacity="1.00" d=" M 318.93 173.29 C 321.59 171.65 324.63 167.45 328.01 169.57 C 324.50 173.40 326.07 180.73 320.38 182.44 C 315.03 183.71 311.90 193.40 319.07 194.38 C 318.05 195.36 316.94 196.23 315.86 197.13 C 311.55 199.44 312.68 207.25 306.99 207.17 C 307.69 204.45 311.62 197.57 306.09 199.08 C 300.45 199.32 301.05 206.98 305.78 208.26 C 303.18 210.45 299.25 207.47 297.86 205.01 C 300.11 200.42 305.15 198.06 307.76 193.74 C 310.49 189.81 309.14 184.32 312.89 180.91 C 314.79 178.28 316.74 175.69 318.93 173.29 Z" />
</g>
<g id="#82954eff">
<path fill="#82954e" opacity="1.00" d=" M 237.57 172.67 C 239.05 168.79 246.02 168.42 247.99 172.05 C 239.41 166.88 236.12 187.02 246.09 183.25 C 244.04 185.03 242.70 189.38 239.34 187.75 C 237.73 186.40 236.19 184.48 234.73 187.13 C 227.83 185.13 229.54 175.10 234.83 172.15 C 235.77 172.96 236.94 174.78 237.57 172.67 Z" />
</g>
<g id="#4c562efe">
<path fill="#4c562e" opacity="1.00" d=" M 304.99 183.22 C 310.16 179.62 312.74 172.99 318.19 170.00 L 317.78 170.82 C 315.15 174.53 311.96 177.85 309.71 181.82 C 310.77 181.54 311.83 181.23 312.89 180.91 C 309.14 184.32 310.49 189.81 307.76 193.74 C 305.15 198.06 300.11 200.42 297.86 205.01 C 299.25 207.47 303.18 210.45 305.78 208.26 C 306.08 207.99 306.68 207.44 306.99 207.17 C 312.68 207.25 311.55 199.44 315.86 197.13 C 315.79 198.68 316.44 199.23 317.79 198.76 C 321.86 193.84 325.98 188.96 330.01 184.00 C 330.95 183.60 331.92 183.26 332.92 182.98 C 335.02 184.62 337.48 186.25 338.25 188.97 C 335.59 187.91 333.27 185.48 330.19 186.00 C 328.29 190.45 326.65 195.16 325.68 199.90 C 321.63 206.66 308.80 208.28 309.07 217.76 C 310.80 220.25 315.50 220.00 316.94 217.41 C 318.01 216.01 318.98 214.53 320.12 213.18 C 321.55 212.39 322.79 211.31 323.82 210.04 C 323.91 210.53 324.10 211.51 324.20 212.00 C 329.42 209.47 335.85 205.97 336.81 199.67 C 338.59 198.44 341.09 197.15 343.13 198.62 C 335.20 199.50 338.09 214.37 329.06 213.12 C 326.46 213.01 326.38 216.37 325.03 217.97 C 322.39 220.17 317.93 221.65 319.44 225.87 C 312.32 230.60 304.12 223.51 297.82 220.14 C 295.67 217.82 293.87 221.08 291.92 222.02 C 288.89 220.78 289.73 216.48 287.74 214.28 C 284.61 212.64 281.81 209.57 278.01 209.95 C 274.77 222.45 288.63 227.84 298.65 226.19 C 297.31 233.07 305.43 237.10 306.47 229.11 C 311.79 231.80 303.67 236.10 301.85 238.75 C 295.45 238.46 303.47 244.12 299.07 245.85 C 297.60 245.56 296.14 245.19 294.68 244.83 C 291.06 240.39 296.70 238.06 298.99 235.09 C 296.35 233.06 292.58 235.51 289.74 234.13 C 286.59 231.93 284.43 228.41 280.88 226.85 C 281.46 229.88 283.56 232.62 282.42 235.82 C 281.15 238.53 284.61 240.05 284.51 242.58 C 282.57 247.21 283.86 252.90 283.99 257.96 C 282.58 257.77 281.21 257.43 279.82 257.19 C 272.47 257.09 276.14 264.07 278.17 267.91 C 276.68 267.33 275.22 266.69 273.76 266.04 C 272.63 264.99 266.72 261.42 270.57 262.51 C 274.35 264.29 271.54 259.35 271.79 257.37 C 278.43 257.46 271.00 250.61 271.29 246.84 C 271.08 241.30 265.54 245.02 264.27 248.07 C 263.50 244.17 263.59 239.37 259.20 237.74 C 259.60 235.93 258.77 233.70 260.20 232.27 C 263.21 232.16 266.89 233.91 268.82 230.79 C 271.73 228.84 268.78 224.62 271.71 222.94 C 272.77 225.23 273.60 227.61 274.39 230.01 C 275.63 228.29 276.70 226.39 278.67 225.42 C 278.05 221.23 269.57 218.48 273.16 213.26 C 274.38 207.54 279.63 205.79 284.99 208.02 C 283.66 205.43 280.82 203.31 281.02 200.19 C 282.86 199.52 284.78 199.18 286.69 198.78 C 284.41 194.46 285.12 186.93 289.14 184.01 C 288.79 185.10 288.46 186.20 288.16 187.31 C 293.10 185.08 294.02 178.69 297.66 174.93 C 299.55 178.11 302.40 180.62 304.99 183.22 M 306.30 186.24 C 300.89 189.02 308.89 189.70 306.30 186.24 M 289.28 188.15 C 287.07 191.14 285.21 200.06 290.64 198.68 C 292.24 195.73 296.81 196.82 297.96 194.12 C 293.88 193.64 293.43 188.19 289.28 188.15 Z" />
</g>
<g id="#839152fa">
<path fill="#839152" opacity="0.98" d=" M 320.38 182.44 C 326.07 180.73 324.50 173.40 328.01 169.57 C 329.84 170.98 331.26 172.84 332.41 174.83 C 331.83 176.22 331.77 177.64 332.22 179.09 C 331.05 180.36 329.85 181.61 328.67 182.87 C 325.15 186.43 322.63 190.86 319.07 194.38 C 311.90 193.40 315.03 183.71 320.38 182.44 Z" />
</g>
<g id="#37431efc">
<path fill="#37431e" opacity="1.00" d=" M 292.32 171.34 C 296.75 170.86 290.45 177.39 291.11 180.25 C 290.51 181.54 289.86 182.80 289.14 184.01 C 285.12 186.93 284.41 194.46 286.69 198.78 C 284.78 199.18 282.86 199.52 281.02 200.19 C 280.82 203.31 283.66 205.43 284.99 208.02 C 279.63 205.79 274.38 207.54 273.16 213.26 C 269.57 218.48 278.05 221.23 278.67 225.42 C 276.70 226.39 275.63 228.29 274.39 230.01 C 273.60 227.61 272.77 225.23 271.71 222.94 C 268.78 224.62 271.73 228.84 268.82 230.79 C 266.89 233.91 263.21 232.16 260.20 232.27 C 258.77 233.70 259.60 235.93 259.20 237.74 C 253.91 237.79 250.82 245.28 255.30 248.73 C 256.67 250.01 256.94 251.58 255.85 253.15 C 253.07 255.17 256.99 265.63 251.54 263.59 C 248.53 262.60 237.73 262.89 241.00 257.02 C 245.23 254.94 241.92 251.25 239.10 249.78 L 238.73 248.97 C 241.91 247.24 248.24 254.10 244.55 245.20 C 244.92 239.53 245.18 230.10 235.95 233.01 C 235.31 235.71 238.13 235.95 239.34 237.65 C 236.51 237.54 233.70 237.32 230.88 237.21 C 230.63 236.98 230.14 236.52 229.90 236.29 C 237.88 236.03 234.83 221.82 244.22 225.69 C 248.97 226.10 252.15 230.73 256.50 231.73 C 259.38 224.43 266.23 219.70 269.81 212.87 C 273.26 204.12 270.83 194.83 271.73 185.80 C 274.56 190.16 278.68 194.48 277.21 200.16 C 281.79 197.54 278.63 192.11 278.17 188.13 C 278.21 179.44 289.25 178.56 292.32 171.34 Z" />
</g>
<g id="#1c240e84">
<path fill="#1c240e" opacity="0.52" d=" M 296.27 170.91 C 296.75 171.64 297.22 172.37 297.69 173.11 C 297.68 173.57 297.67 174.48 297.66 174.93 C 294.02 178.69 293.10 185.08 288.16 187.31 C 288.46 186.20 288.79 185.10 289.14 184.01 C 289.86 182.80 290.51 181.54 291.11 180.25 C 294.02 177.95 296.42 174.82 296.27 170.91 Z" />
</g>
<g id="#12180a83">
<path fill="#12180a" opacity="0.51" d=" M 309.71 181.82 C 311.96 177.85 315.15 174.53 317.78 170.82 C 318.07 171.43 318.65 172.67 318.93 173.29 C 316.74 175.69 314.79 178.28 312.89 180.91 C 311.83 181.23 310.77 181.54 309.71 181.82 Z" />
</g>
<g id="#84995bff">
<path fill="#84995b" opacity="1.00" d=" M 226.81 183.19 C 220.42 189.65 224.84 168.29 228.89 173.96 C 228.28 178.28 228.40 182.69 229.21 186.98 C 226.64 187.49 227.17 184.85 226.81 183.19 Z" />
</g>
<g id="#434822fd">
<path fill="#434822" opacity="1.00" d=" M 137.41 174.21 C 145.79 174.39 154.46 175.40 161.16 180.81 C 164.99 182.52 160.50 176.32 164.07 176.61 C 165.07 177.45 166.04 178.34 167.02 179.21 C 165.81 186.49 158.27 187.92 155.85 181.07 C 150.54 175.99 151.07 184.21 155.82 185.52 C 153.45 186.87 151.47 189.09 148.96 189.99 C 145.22 189.20 141.93 187.05 138.43 185.58 C 134.69 183.29 129.40 182.21 128.82 176.99 C 132.50 179.40 137.71 180.18 137.41 174.21 Z" />
</g>
<g id="#52522bfc">
<path fill="#52522b" opacity="1.00" d=" M 167.02 179.21 C 167.45 174.48 169.22 172.99 171.79 177.60 C 163.50 180.51 176.24 189.53 167.17 190.35 C 162.29 193.07 162.02 183.04 156.37 187.28 C 151.65 189.79 148.35 193.54 147.88 199.01 C 145.78 198.15 143.45 196.27 142.22 199.30 C 141.22 203.95 148.76 205.76 147.03 210.94 C 144.92 210.80 140.64 208.97 141.08 212.72 C 144.90 214.72 151.41 214.42 152.51 219.35 C 152.94 227.33 164.05 217.66 167.89 222.22 C 168.52 224.88 164.26 224.84 164.09 227.12 C 162.10 231.70 166.81 232.57 168.95 235.00 C 169.54 239.21 173.54 240.76 175.88 243.76 C 178.38 248.19 186.49 248.84 184.27 254.82 C 183.75 256.64 183.46 260.68 181.25 257.75 C 174.71 254.08 172.43 243.60 164.05 243.97 C 165.83 249.20 160.36 255.22 167.06 258.12 C 161.89 262.77 171.22 266.03 173.86 261.93 C 174.49 258.66 179.85 258.21 180.54 261.57 C 181.36 264.61 184.41 261.53 186.10 260.93 C 186.34 263.14 185.19 264.92 183.95 266.61 C 189.52 266.94 197.53 262.36 198.65 271.05 C 201.81 273.42 206.33 272.71 210.16 273.25 C 208.53 274.81 206.36 275.58 204.27 276.32 C 201.44 276.30 198.62 276.27 195.80 276.21 C 188.21 272.07 179.15 272.44 171.26 268.90 C 166.04 264.48 157.31 264.72 154.97 256.98 C 154.65 256.00 154.32 255.02 153.97 254.05 L 153.71 253.27 C 151.92 247.78 157.71 240.81 152.65 236.32 C 149.42 232.87 145.40 229.73 144.34 224.85 C 144.06 223.81 143.78 222.77 143.50 221.74 C 143.06 220.01 142.77 218.13 141.34 216.91 C 132.11 209.10 128.64 194.34 138.43 185.58 C 141.93 187.05 145.22 189.20 148.96 189.99 C 151.47 189.09 153.45 186.87 155.82 185.52 C 151.07 184.21 150.54 175.99 155.85 181.07 C 158.27 187.92 165.81 186.49 167.02 179.21 Z" />
</g>
<g id="#7f8749ff">
<path fill="#7f8749" opacity="1.00" d=" M 218.31 178.07 C 219.56 176.32 220.17 173.61 222.85 173.88 C 222.03 180.24 220.45 186.47 219.31 192.76 C 222.64 194.15 223.32 196.74 221.91 199.97 C 217.88 196.39 211.93 199.89 214.03 204.67 C 217.33 202.26 220.67 203.21 218.96 209.04 C 218.22 212.86 222.05 213.72 224.88 214.21 C 221.87 217.08 226.43 220.53 224.06 223.62 C 221.83 223.04 219.54 222.62 217.47 221.59 C 214.71 223.54 213.87 226.55 215.33 229.62 C 209.53 228.81 202.90 233.02 202.14 239.02 C 203.06 242.25 205.83 245.66 209.55 245.13 C 208.34 240.44 210.36 236.02 214.19 233.24 C 219.48 235.40 220.42 224.64 224.32 229.70 C 226.86 232.31 224.71 236.53 225.98 239.80 C 227.37 238.18 229.20 237.84 231.12 238.79 C 232.91 242.85 237.33 244.66 238.73 248.97 L 239.10 249.78 C 239.68 251.93 240.44 254.47 237.87 255.58 C 233.51 255.04 229.30 253.65 224.89 253.42 C 227.58 249.95 223.24 246.63 225.02 242.87 C 227.18 239.61 220.90 235.92 219.46 239.40 C 217.92 242.20 213.58 249.97 219.04 244.79 C 224.13 244.46 218.30 254.49 224.10 253.37 C 222.50 256.09 219.24 258.07 216.38 258.69 C 213.57 255.03 209.23 247.76 204.28 252.29 C 201.13 255.28 202.95 263.04 196.02 260.05 C 197.84 256.33 198.57 251.82 194.56 249.23 C 191.30 250.34 194.62 252.94 196.03 254.17 C 195.22 256.22 194.91 260.16 192.11 259.98 C 189.68 257.98 187.16 256.09 184.27 254.82 C 186.49 248.84 178.38 248.19 175.88 243.76 C 176.71 241.03 179.08 239.10 179.56 236.20 C 187.78 232.52 185.07 243.12 185.17 247.01 C 184.44 250.37 189.52 250.45 191.12 248.28 C 193.57 246.74 187.97 247.32 188.56 244.80 C 189.89 239.87 186.55 236.31 184.82 232.17 C 187.58 232.37 190.30 232.74 193.07 233.02 C 190.14 229.82 186.04 227.21 182.20 230.20 C 180.79 235.19 173.81 234.74 170.55 231.95 C 170.77 229.08 170.71 225.98 173.20 224.15 C 178.27 226.44 183.79 224.66 189.08 225.91 C 188.69 222.95 188.18 219.03 184.68 218.26 C 181.19 216.76 179.84 223.19 176.35 221.76 C 174.40 219.94 172.30 217.79 172.96 214.87 C 175.70 215.53 176.09 219.06 178.69 220.14 C 178.73 216.27 179.58 212.32 183.73 211.49 C 183.83 209.00 181.92 205.98 184.69 204.34 C 182.32 210.02 192.12 205.79 185.33 203.63 C 184.39 202.88 180.61 200.95 182.91 200.14 C 186.34 200.40 182.86 196.18 185.68 195.69 C 189.21 194.51 186.57 190.05 187.70 187.26 C 180.89 187.92 186.70 180.79 186.56 176.96 C 191.16 172.30 189.77 177.76 192.38 180.65 C 193.85 181.64 200.83 178.13 198.71 182.48 C 194.76 183.08 195.53 187.68 195.45 190.83 C 196.09 194.20 200.41 195.15 200.46 199.01 C 203.10 197.48 202.43 193.15 199.52 192.33 C 196.07 189.70 200.99 186.37 201.19 183.24 C 202.58 183.99 203.55 183.13 204.34 181.98 C 205.33 183.27 206.26 184.60 207.20 185.92 C 200.99 182.67 200.44 189.86 203.35 193.73 C 206.59 194.00 205.80 188.25 207.20 185.92 C 210.79 187.52 216.47 187.71 214.30 193.82 C 217.22 194.57 214.00 189.12 217.76 188.62 C 215.46 185.18 217.48 181.64 218.31 178.07 M 193.08 201.19 C 191.44 202.98 191.29 205.51 191.12 207.80 C 192.27 205.01 200.27 210.65 195.06 210.10 C 190.50 209.98 187.33 213.00 185.93 217.10 C 189.86 216.03 193.40 212.19 197.71 213.81 C 197.37 207.57 204.07 208.88 207.09 212.02 C 206.64 206.10 199.03 202.72 193.08 201.19 M 174.07 227.82 C 173.96 229.57 173.94 231.32 174.05 233.08 C 178.28 233.39 176.47 229.07 174.07 227.82 M 216.23 236.14 C 211.89 242.74 224.01 234.99 216.23 236.14 M 195.13 239.41 C 193.20 241.32 198.53 253.92 200.12 246.02 C 202.48 240.58 196.57 242.07 195.13 239.41 Z" />
</g>
<g id="#3a3b1d7c">
<path fill="#3a3b1d" opacity="0.49" d=" M 332.41 174.83 C 333.61 176.00 333.72 178.09 332.22 179.09 C 331.77 177.64 331.83 176.22 332.41 174.83 Z" />
</g>
<g id="#5d6b29f9">
<path fill="#5d6b29" opacity="0.98" d=" M 246.09 183.25 C 249.06 182.97 248.68 188.97 252.14 185.36 C 254.71 184.23 257.30 182.97 260.19 183.11 C 256.06 185.82 251.75 188.30 247.17 190.17 C 244.07 190.40 240.61 189.13 237.80 190.80 C 237.05 191.47 236.85 192.43 237.20 193.68 C 237.07 195.53 236.91 197.39 236.79 199.25 C 235.81 194.28 231.49 186.07 230.45 197.06 C 228.93 194.19 225.46 193.34 222.99 191.50 C 225.49 190.46 228.00 189.82 229.21 186.98 C 231.11 187.58 233.29 189.53 234.73 187.13 C 236.19 184.48 237.73 186.40 239.34 187.75 C 242.70 189.38 244.04 185.03 246.09 183.25 Z" />
</g>
<g id="#141a0a74">
<path fill="#141a0a" opacity="0.45" d=" M 319.07 194.38 C 322.63 190.86 325.15 186.43 328.67 182.87 C 329.01 183.15 329.67 183.72 330.01 184.00 C 325.98 188.96 321.86 193.84 317.79 198.76 C 316.44 199.23 315.79 198.68 315.86 197.13 C 316.94 196.23 318.05 195.36 319.07 194.38 Z" />
</g>
<g id="#76854cfb">
<path fill="#76854c" opacity="1.00" d=" M 332.92 182.98 C 344.26 183.74 341.53 196.82 333.03 200.14 C 330.85 202.28 328.91 204.64 326.85 206.88 C 325.78 207.88 324.76 208.92 323.82 210.04 C 322.79 211.31 321.55 212.39 320.12 213.18 C 322.53 208.90 316.25 210.58 314.08 211.24 C 313.47 213.71 314.51 216.40 316.94 217.41 C 315.50 220.00 310.80 220.25 309.07 217.76 C 308.80 208.28 321.63 206.66 325.68 199.90 C 326.65 195.16 328.29 190.45 330.19 186.00 C 333.27 185.48 335.59 187.91 338.25 188.97 C 337.48 186.25 335.02 184.62 332.92 182.98 Z" />
</g>
<g id="#9ca462ff">
<path fill="#9ca462" opacity="1.00" d=" M 203.35 193.73 C 200.44 189.86 200.99 182.67 207.20 185.92 C 205.80 188.25 206.59 194.00 203.35 193.73 Z" />
</g>
<g id="#0d110883">
<path fill="#0d1108" opacity="0.51" d=" M 306.30 186.24 C 308.89 189.70 300.89 189.02 306.30 186.24 Z" />
</g>
<g id="#797a40ff">
<path fill="#797a40" opacity="1.00" d=" M 289.28 188.15 C 293.43 188.19 293.88 193.64 297.96 194.12 C 296.81 196.82 292.24 195.73 290.64 198.68 C 285.21 200.06 287.07 191.14 289.28 188.15 Z" />
</g>
<g id="#2d3613be">
<path fill="#2d3613" opacity="0.75" d=" M 237.80 190.80 C 240.61 189.13 244.07 190.40 247.17 190.17 C 244.26 191.60 240.90 190.73 237.80 190.80 Z" />
</g>
<g id="#485123fb">
<path fill="#485123" opacity="1.00" d=" M 230.45 197.06 C 231.49 186.07 235.81 194.28 236.79 199.25 C 236.96 203.23 237.09 207.21 237.18 211.19 C 235.85 218.88 230.23 224.47 227.17 231.34 C 225.76 226.99 227.05 222.99 229.19 219.21 C 224.02 221.18 226.81 216.41 227.71 213.39 C 224.12 211.93 223.74 206.75 219.99 205.50 C 221.45 203.82 223.41 202.38 221.91 199.97 C 224.74 198.98 228.50 199.64 230.45 197.06 Z" />
</g>
<g id="#2a2e1786">
<path fill="#2a2e17" opacity="0.53" d=" M 237.20 193.68 C 238.86 199.33 238.13 205.47 237.18 211.19 C 237.09 207.21 236.96 203.23 236.79 199.25 C 236.91 197.39 237.07 195.53 237.20 193.68 Z" />
</g>
<g id="#63672dff">
<path fill="#63672d" opacity="1.00" d=" M 214.03 204.67 C 211.93 199.89 217.88 196.39 221.91 199.97 C 223.41 202.38 221.45 203.82 219.99 205.50 C 223.74 206.75 224.12 211.93 227.71 213.39 C 226.81 216.41 224.02 221.18 229.19 219.21 C 227.05 222.99 225.76 226.99 227.17 231.34 L 227.30 232.28 C 227.60 233.90 228.65 235.24 229.90 236.29 C 230.14 236.52 230.63 236.98 230.88 237.21 C 230.94 237.60 231.06 238.39 231.12 238.79 C 229.20 237.84 227.37 238.18 225.98 239.80 C 224.71 236.53 226.86 232.31 224.32 229.70 C 220.42 224.64 219.48 235.40 214.19 233.24 C 214.95 232.15 216.18 231.04 215.33 229.62 C 213.87 226.55 214.71 223.54 217.47 221.59 C 219.54 222.62 221.83 223.04 224.06 223.62 C 226.43 220.53 221.87 217.08 224.88 214.21 C 222.05 213.72 218.22 212.86 218.96 209.04 C 220.67 203.21 217.33 202.26 214.03 204.67 Z" />
</g>
<g id="#9c9b5fff">
<path fill="#9c9b5f" opacity="1.00" d=" M 305.78 208.26 C 301.05 206.98 300.45 199.32 306.09 199.08 C 311.62 197.57 307.69 204.45 306.99 207.17 C 306.68 207.44 306.08 207.99 305.78 208.26 Z" />
</g>
<g id="#869151f9">
<path fill="#869151" opacity="0.98" d=" M 329.06 213.12 C 338.09 214.37 335.20 199.50 343.13 198.62 C 351.59 203.31 342.96 211.42 338.15 214.97 C 335.00 216.29 331.78 217.90 330.23 221.13 C 328.30 222.39 326.47 224.15 324.01 224.10 C 324.18 222.03 324.63 220.01 325.03 217.97 C 326.38 216.37 326.46 213.01 329.06 213.12 Z" />
</g>
<g id="#171e0b78">
<path fill="#171e0b" opacity="0.47" d=" M 326.85 206.88 C 328.91 204.64 330.85 202.28 333.03 200.14 C 333.20 200.64 333.53 201.64 333.70 202.15 C 331.74 204.19 329.46 205.77 326.85 206.88 Z" />
</g>
<g id="#2d3e17f3">
<path fill="#2d3e17" opacity="0.95" d=" M 333.70 202.15 C 334.67 201.25 335.68 200.38 336.81 199.67 C 335.85 205.97 329.42 209.47 324.20 212.00 C 324.10 211.51 323.91 210.53 323.82 210.04 C 324.76 208.92 325.78 207.88 326.85 206.88 C 329.46 205.77 331.74 204.19 333.70 202.15 Z" />
</g>
<g id="#9ba863ff">
<path fill="#9ba863" opacity="1.00" d=" M 193.08 201.19 C 199.03 202.72 206.64 206.10 207.09 212.02 C 204.07 208.88 197.37 207.57 197.71 213.81 C 193.40 212.19 189.86 216.03 185.93 217.10 C 187.33 213.00 190.50 209.98 195.06 210.10 C 200.27 210.65 192.27 205.01 191.12 207.80 C 191.29 205.51 191.44 202.98 193.08 201.19 Z" />
</g>
<g id="#0000004d">
<path fill="#000000" opacity="0.30" d=" M 0.00 202.83 C 13.07 203.85 25.07 209.91 37.96 211.98 C 67.18 216.30 96.54 219.94 126.00 222.02 C 130.34 220.80 140.94 224.16 141.34 216.91 C 142.77 218.13 143.06 220.01 143.50 221.74 L 143.24 222.78 C 113.41 226.42 83.54 218.44 53.68 219.68 C 45.32 221.61 56.52 225.89 60.29 226.77 C 86.42 232.72 111.74 241.41 137.14 249.79 C 142.37 251.00 147.75 251.43 153.08 251.95 C 153.23 252.28 153.55 252.94 153.71 253.27 L 153.97 254.05 C 132.59 252.89 112.99 243.85 92.58 238.40 C 61.62 232.38 30.90 225.01 0.00 218.78 L 0.00 202.83 Z" />
</g>
<g id="#b3b28dff">
<path fill="#b3b28d" opacity="1.00" d=" M 185.33 203.63 C 192.12 205.79 182.32 210.02 184.69 204.34 L 185.33 203.63 Z" />
</g>
<g id="#6d6e3bfa">
<path fill="#6d6e3b" opacity="0.98" d=" M 278.01 209.95 C 281.81 209.57 284.61 212.64 287.74 214.28 C 289.73 216.48 288.89 220.78 291.92 222.02 C 293.87 221.08 295.67 217.82 297.82 220.14 C 304.12 223.51 312.32 230.60 319.44 225.87 C 317.93 221.65 322.39 220.17 325.03 217.97 C 324.63 220.01 324.18 222.03 324.01 224.10 C 326.47 224.15 328.30 222.39 330.23 221.13 C 327.31 226.80 319.54 227.55 315.48 232.41 C 307.27 235.66 304.74 244.25 299.29 250.28 C 299.22 248.76 301.91 245.77 299.07 245.85 C 303.47 244.12 295.45 238.46 301.85 238.75 C 303.67 236.10 311.79 231.80 306.47 229.11 C 305.43 237.10 297.31 233.07 298.65 226.19 C 288.63 227.84 274.77 222.45 278.01 209.95 Z" />
</g>
<g id="#9fa26dff">
<path fill="#9fa26d" opacity="1.00" d=" M 314.08 211.24 C 316.25 210.58 322.53 208.90 320.12 213.18 C 318.98 214.53 318.01 216.01 316.94 217.41 C 314.51 216.40 313.47 213.71 314.08 211.24 Z" />
</g>
<g id="#00000010">
<path fill="#000000" opacity="0.06" d=" M 330.23 221.13 C 331.78 217.90 335.00 216.29 338.15 214.97 C 337.39 219.09 332.03 219.12 331.14 223.12 C 329.25 229.17 316.89 229.16 319.79 236.84 C 312.56 233.51 314.85 243.62 313.71 248.41 C 312.33 254.99 322.65 242.55 317.33 253.44 C 316.70 258.30 312.65 261.15 310.06 264.91 C 312.54 268.21 314.04 271.35 308.51 270.45 C 307.84 274.14 305.17 273.98 302.17 273.03 C 303.58 277.01 302.48 279.73 299.37 275.48 C 293.93 274.84 301.94 282.44 304.43 278.52 C 307.50 278.80 303.58 281.49 301.98 282.02 C 299.03 285.13 293.83 275.74 295.53 285.55 C 294.25 289.99 287.22 287.46 287.60 292.72 C 281.09 291.03 278.21 298.71 273.92 301.56 C 270.61 298.96 264.10 301.09 265.28 305.80 C 265.26 310.29 252.15 313.70 255.80 305.90 C 251.94 307.06 253.86 314.53 248.89 314.48 C 243.27 310.76 236.82 318.85 231.62 315.41 C 226.64 309.10 222.61 323.14 217.36 317.61 C 214.09 312.94 207.50 318.41 204.74 313.49 C 200.24 314.99 195.89 317.03 191.26 318.10 C 192.95 304.48 180.08 325.27 178.74 314.02 C 174.01 315.46 168.18 322.43 163.03 316.98 C 159.88 314.32 161.98 317.76 162.74 319.58 C 158.91 321.06 155.75 326.39 151.31 323.84 C 147.88 322.44 145.80 326.13 142.99 327.17 C 143.10 325.04 143.52 322.96 143.82 320.86 C 138.20 321.02 140.01 326.80 137.87 330.12 C 135.62 329.28 136.95 326.58 135.81 325.00 C 132.75 324.87 130.57 327.48 127.93 328.64 C 125.31 328.26 122.84 327.19 120.19 327.00 C 118.47 329.67 115.77 330.57 112.88 329.04 C 110.26 328.86 115.43 324.65 112.99 324.90 C 107.59 322.55 107.31 327.97 105.73 330.94 C 102.56 331.27 99.97 328.95 97.12 328.32 C 95.07 329.34 92.93 329.96 90.63 329.52 C 91.58 330.93 95.24 331.12 93.28 333.28 C 89.52 339.48 84.76 330.09 79.77 331.53 C 77.07 332.51 74.68 329.45 72.18 331.11 C 68.12 332.40 62.51 327.12 59.88 332.01 C 58.18 331.38 56.70 329.31 54.85 330.85 C 47.81 334.56 40.11 328.71 33.37 331.88 C 32.99 325.89 26.41 332.31 22.89 330.22 C 18.56 329.89 16.33 325.39 12.23 324.86 C 12.22 326.40 13.73 329.87 11.17 329.80 C 8.75 328.18 7.25 325.12 6.66 322.24 C 4.33 322.88 2.13 323.91 0.00 325.03 L 0.00 286.26 C 3.18 288.36 9.71 281.79 10.33 286.77 C 10.12 290.68 15.09 293.81 18.43 291.62 C 23.04 290.64 26.21 297.48 30.81 294.44 C 32.72 300.33 37.54 294.67 41.65 297.38 C 46.44 299.40 40.94 294.37 41.85 291.91 C 43.40 293.84 45.30 294.95 47.82 294.36 C 49.16 296.45 49.79 298.92 51.20 300.99 C 56.01 300.84 61.30 295.33 65.26 299.66 C 67.87 299.60 70.02 294.58 72.29 297.67 C 74.45 301.25 77.79 295.29 80.06 297.86 C 83.68 302.58 89.60 296.15 94.04 298.97 C 97.98 301.48 102.91 291.27 104.12 298.00 C 106.00 300.77 107.32 295.65 108.48 294.35 C 110.76 292.79 112.20 295.69 113.83 296.80 C 116.40 295.31 119.82 292.90 122.58 295.31 C 128.38 297.67 132.67 289.36 138.42 291.82 C 140.24 293.26 142.06 291.49 143.90 291.04 C 147.41 294.30 153.30 295.60 156.90 291.88 C 161.91 288.12 166.59 299.22 169.51 291.50 C 174.67 295.15 184.21 294.20 191.34 294.71 C 193.92 296.00 196.20 294.84 198.37 293.38 C 205.24 295.60 213.13 290.75 220.61 293.57 C 227.53 296.02 233.07 285.52 238.97 291.04 C 243.68 284.55 252.33 287.35 258.31 283.30 C 262.95 282.97 267.68 283.31 272.28 282.44 C 278.43 281.08 285.59 278.72 289.79 274.13 L 290.07 273.23 C 290.40 267.74 294.47 264.00 296.43 259.24 C 297.06 257.57 297.63 255.88 298.16 254.18 C 298.59 252.89 298.91 251.57 299.29 250.28 C 304.74 244.25 307.27 235.66 315.48 232.41 C 319.54 227.55 327.31 226.80 330.23 221.13 Z" />
</g>
<g id="#0000003b">
<path fill="#000000" opacity="0.23" d=" M 0.00 218.78 C 30.90 225.01 61.62 232.38 92.58 238.40 C 112.99 243.85 132.59 252.89 153.97 254.05 C 154.32 255.02 154.65 256.00 154.97 256.98 C 128.91 255.39 105.20 243.36 79.61 239.46 C 53.18 234.05 26.37 230.72 0.00 225.12 L 0.00 218.78 Z" />
</g>
<g id="#0000005c">
<path fill="#000000" opacity="0.36" d=" M 53.68 219.68 C 83.54 218.44 113.41 226.42 143.24 222.78 C 143.10 223.27 142.84 224.26 142.71 224.75 C 126.01 228.38 109.04 224.02 92.24 226.21 C 90.62 226.82 90.49 229.24 92.32 229.64 C 101.33 233.47 110.60 236.68 119.70 240.29 C 130.29 245.01 141.03 250.52 152.97 250.09 C 153.00 250.56 153.05 251.49 153.08 251.95 C 147.75 251.43 142.37 251.00 137.14 249.79 C 111.74 241.41 86.42 232.72 60.29 226.77 C 56.52 225.89 45.32 221.61 53.68 219.68 Z" />
</g>
<g id="#0000006d">
<path fill="#000000" opacity="0.43" d=" M 143.50 221.74 C 143.78 222.77 144.06 223.81 144.34 224.85 C 144.38 230.22 134.57 229.08 137.92 236.04 C 137.52 245.35 152.05 243.17 152.97 250.09 C 141.03 250.52 130.29 245.01 119.70 240.29 C 110.60 236.68 101.33 233.47 92.32 229.64 C 90.49 229.24 90.62 226.82 92.24 226.21 C 109.04 224.02 126.01 228.38 142.71 224.75 C 142.84 224.26 143.10 223.27 143.24 222.78 L 143.50 221.74 Z" />
</g>
<g id="#0000002b">
<path fill="#000000" opacity="0.17" d=" M 0.00 225.12 C 26.37 230.72 53.18 234.05 79.61 239.46 C 105.20 243.36 128.91 255.39 154.97 256.98 C 157.31 264.72 166.04 264.48 171.26 268.90 C 162.02 267.53 153.72 262.52 144.30 261.81 C 130.43 260.88 118.01 254.92 104.92 251.19 C 70.65 241.68 35.01 238.09 0.00 232.18 L 0.00 225.12 Z" />
</g>
<g id="#04040287">
<path fill="#040402" opacity="0.53" d=" M 144.34 224.85 C 145.40 229.73 149.42 232.87 152.65 236.32 C 157.71 240.81 151.92 247.78 153.71 253.27 C 153.55 252.94 153.23 252.28 153.08 251.95 C 153.05 251.49 153.00 250.56 152.97 250.09 C 152.05 243.17 137.52 245.35 137.92 236.04 C 134.57 229.08 144.38 230.22 144.34 224.85 Z" />
</g>
<g id="#1c240bea">
<path fill="#1c240b" opacity="0.92" d=" M 227.30 232.28 C 232.55 228.81 236.86 221.91 244.22 225.69 C 234.83 221.82 237.88 236.03 229.90 236.29 C 228.65 235.24 227.60 233.90 227.30 232.28 Z" />
</g>
<g id="#606b3aff">
<path fill="#606b3a" opacity="1.00" d=" M 280.88 226.85 C 284.43 228.41 286.59 231.93 289.74 234.13 C 292.58 235.51 296.35 233.06 298.99 235.09 C 296.70 238.06 291.06 240.39 294.68 244.83 C 295.45 247.72 293.23 249.39 291.69 246.33 C 289.30 242.26 285.49 239.34 282.42 235.82 C 283.56 232.62 281.46 229.88 280.88 226.85 Z" />
</g>
<g id="#c3b192ff">
<path fill="#c3b192" opacity="1.00" d=" M 174.07 227.82 C 176.47 229.07 178.28 233.39 174.05 233.08 C 173.94 231.32 173.96 229.57 174.07 227.82 Z" />
</g>
<g id="#726d2eff">
<path fill="#726d2e" opacity="1.00" d=" M 182.20 230.20 C 186.04 227.21 190.14 229.82 193.07 233.02 C 190.30 232.74 187.58 232.37 184.82 232.17 C 186.55 236.31 189.89 239.87 188.56 244.80 C 187.97 247.32 193.57 246.74 191.12 248.28 C 189.52 250.45 184.44 250.37 185.17 247.01 C 185.07 243.12 187.78 232.52 179.56 236.20 C 179.08 239.10 176.71 241.03 175.88 243.76 C 173.54 240.76 169.54 239.21 168.95 235.00 C 169.48 233.98 170.02 232.97 170.55 231.95 C 173.81 234.74 180.79 235.19 182.20 230.20 Z" />
</g>
<g id="#514e25ff">
<path fill="#514e25" opacity="1.00" d=" M 202.14 239.02 C 202.90 233.02 209.53 228.81 215.33 229.62 C 216.18 231.04 214.95 232.15 214.19 233.24 C 210.36 236.02 208.34 240.44 209.55 245.13 C 205.83 245.66 203.06 242.25 202.14 239.02 Z" />
</g>
<g id="#0000001f">
<path fill="#000000" opacity="0.12" d=" M 0.00 232.18 C 35.01 238.09 70.65 241.68 104.92 251.19 C 118.01 254.92 130.43 260.88 144.30 261.81 C 153.72 262.52 162.02 267.53 171.26 268.90 C 179.15 272.44 188.21 272.07 195.80 276.21 C 198.57 276.90 201.56 277.50 204.27 276.32 C 206.36 275.58 208.53 274.81 210.16 273.25 C 211.11 272.44 212.00 271.56 212.91 270.70 C 217.79 270.79 221.45 274.26 225.17 276.96 C 220.39 276.34 214.67 272.93 210.44 276.42 C 206.36 279.40 200.94 279.08 196.12 279.60 C 187.22 277.25 177.70 279.96 169.11 275.91 C 149.16 274.03 129.07 274.39 109.31 271.22 C 97.72 273.08 86.83 269.66 75.30 269.03 C 74.74 270.54 75.62 273.62 73.06 273.02 C 73.28 270.62 74.61 267.72 71.87 266.29 C 69.27 266.36 67.48 267.40 68.56 270.19 C 63.95 269.48 59.65 266.38 54.86 267.63 C 49.65 268.92 50.35 260.22 45.26 261.23 C 42.47 264.20 36.72 262.43 36.75 258.11 C 35.89 252.32 21.66 260.85 26.88 253.96 C 24.22 252.59 17.15 255.03 18.55 249.63 C 19.46 246.90 17.68 245.10 15.71 247.68 C 9.77 253.61 6.67 242.77 0.00 243.64 L 0.00 232.18 Z" />
</g>
<g id="#43552bff">
<path fill="#43552b" opacity="1.00" d=" M 235.95 233.01 C 245.18 230.10 244.92 239.53 244.55 245.20 C 248.24 254.10 241.91 247.24 238.73 248.97 C 237.33 244.66 232.91 242.85 231.12 238.79 C 231.06 238.39 230.94 237.60 230.88 237.21 C 233.70 237.32 236.51 237.54 239.34 237.65 C 238.13 235.95 235.31 235.71 235.95 233.01 Z" />
</g>
<g id="#c0b08eff">
<path fill="#c0b08e" opacity="1.00" d=" M 216.23 236.14 C 224.01 234.99 211.89 242.74 216.23 236.14 Z" />
</g>
<g id="#878c4bfc">
<path fill="#878c4b" opacity="1.00" d=" M 282.42 235.82 C 285.49 239.34 289.30 242.26 291.69 246.33 C 293.23 249.39 295.45 247.72 294.68 244.83 C 296.14 245.19 297.60 245.56 299.07 245.85 C 301.91 245.77 299.22 248.76 299.29 250.28 C 298.91 251.57 298.59 252.89 298.16 254.18 C 293.08 256.20 294.09 252.59 295.00 248.97 C 293.34 249.11 291.70 249.43 290.06 249.69 C 290.43 246.20 287.62 245.37 284.91 246.80 C 284.67 245.40 284.59 243.99 284.51 242.58 C 284.61 240.05 281.15 238.53 282.42 235.82 Z" />
</g>
<g id="#96a660ff">
<path fill="#96a660" opacity="1.00" d=" M 219.46 239.40 C 220.90 235.92 227.18 239.61 225.02 242.87 C 223.24 246.63 227.58 249.95 224.89 253.42 L 224.10 253.37 C 218.30 254.49 224.13 244.46 219.04 244.79 C 213.58 249.97 217.92 242.20 219.46 239.40 Z" />
</g>
<g id="#62683cff">
<path fill="#62683c" opacity="1.00" d=" M 255.30 248.73 C 250.82 245.28 253.91 237.79 259.20 237.74 C 263.59 239.37 263.50 244.17 264.27 248.07 C 265.54 245.02 271.08 241.30 271.29 246.84 C 271.00 250.61 278.43 257.46 271.79 257.37 C 271.98 254.92 270.88 253.32 268.32 253.27 C 266.60 258.24 263.63 263.97 258.13 265.20 C 259.81 261.07 261.45 254.76 255.85 253.15 C 256.94 251.58 256.67 250.01 255.30 248.73 Z" />
</g>
<g id="#596237ff">
<path fill="#596237" opacity="1.00" d=" M 195.13 239.41 C 196.57 242.07 202.48 240.58 200.12 246.02 C 198.53 253.92 193.20 241.32 195.13 239.41 Z" />
</g>
<g id="#796e33fc">
<path fill="#796e33" opacity="1.00" d=" M 283.99 257.96 C 283.86 252.90 282.57 247.21 284.51 242.58 C 284.59 243.99 284.67 245.40 284.91 246.80 C 285.77 248.93 287.61 250.75 290.06 249.69 C 291.70 249.43 293.34 249.11 295.00 248.97 C 294.09 252.59 293.08 256.20 298.16 254.18 C 297.63 255.88 297.06 257.57 296.43 259.24 C 296.24 251.80 288.08 259.25 283.99 257.96 Z" />
</g>
<g id="#00000017">
<path fill="#000000" opacity="0.09" d=" M 0.00 243.64 C 6.67 242.77 9.77 253.61 15.71 247.68 C 17.68 245.10 19.46 246.90 18.55 249.63 C 17.15 255.03 24.22 252.59 26.88 253.96 C 21.66 260.85 35.89 252.32 36.75 258.11 C 36.72 262.43 42.47 264.20 45.26 261.23 C 50.35 260.22 49.65 268.92 54.86 267.63 C 59.65 266.38 63.95 269.48 68.56 270.19 C 67.48 267.40 69.27 266.36 71.87 266.29 C 74.61 267.72 73.28 270.62 73.06 273.02 C 75.62 273.62 74.74 270.54 75.30 269.03 C 86.83 269.66 97.72 273.08 109.31 271.22 C 129.07 274.39 149.16 274.03 169.11 275.91 C 177.70 279.96 187.22 277.25 196.12 279.60 C 200.94 279.08 206.36 279.40 210.44 276.42 C 214.67 272.93 220.39 276.34 225.17 276.96 C 232.28 279.36 239.62 281.19 247.17 281.01 C 247.60 281.07 248.44 281.19 248.87 281.25 C 251.15 281.57 253.44 281.91 255.73 282.25 C 256.38 282.51 257.67 283.04 258.31 283.30 C 252.33 287.35 243.68 284.55 238.97 291.04 C 233.07 285.52 227.53 296.02 220.61 293.57 C 213.13 290.75 205.24 295.60 198.37 293.38 C 196.20 294.84 193.92 296.00 191.34 294.71 C 184.21 294.20 174.67 295.15 169.51 291.50 C 166.59 299.22 161.91 288.12 156.90 291.88 C 153.30 295.60 147.41 294.30 143.90 291.04 C 142.06 291.49 140.24 293.26 138.42 291.82 C 132.67 289.36 128.38 297.67 122.58 295.31 C 119.82 292.90 116.40 295.31 113.83 296.80 C 112.20 295.69 110.76 292.79 108.48 294.35 C 107.32 295.65 106.00 300.77 104.12 298.00 C 102.91 291.27 97.98 301.48 94.04 298.97 C 89.60 296.15 83.68 302.58 80.06 297.86 C 77.79 295.29 74.45 301.25 72.29 297.67 C 70.02 294.58 67.87 299.60 65.26 299.66 C 61.30 295.33 56.01 300.84 51.20 300.99 C 49.79 298.92 49.16 296.45 47.82 294.36 C 45.30 294.95 43.40 293.84 41.85 291.91 C 40.94 294.37 46.44 299.40 41.65 297.38 C 37.54 294.67 32.72 300.33 30.81 294.44 C 26.21 297.48 23.04 290.64 18.43 291.62 C 15.09 293.81 10.12 290.68 10.33 286.77 C 9.71 281.79 3.18 288.36 0.00 286.26 L 0.00 243.64 Z" />
</g>
<g id="#6c7234ff">
<path fill="#6c7234" opacity="1.00" d=" M 164.05 243.97 C 172.43 243.60 174.71 254.08 181.25 257.75 C 183.46 260.68 183.75 256.64 184.27 254.82 C 187.16 256.09 189.68 257.98 192.11 259.98 C 194.91 260.16 195.22 256.22 196.03 254.17 C 194.62 252.94 191.30 250.34 194.56 249.23 C 198.57 251.82 197.84 256.33 196.02 260.05 C 202.95 263.04 201.13 255.28 204.28 252.29 C 209.23 247.76 213.57 255.03 216.38 258.69 C 219.24 258.07 222.50 256.09 224.10 253.37 L 224.89 253.42 C 229.30 253.65 233.51 255.04 237.87 255.58 C 240.44 254.47 239.68 251.93 239.10 249.78 C 241.92 251.25 245.23 254.94 241.00 257.02 C 235.14 256.01 233.03 262.95 228.44 265.00 C 228.43 262.23 226.42 261.65 224.02 261.87 C 225.08 263.50 226.43 264.97 227.12 266.82 C 224.51 267.35 221.77 267.84 219.22 266.78 C 218.91 263.83 218.03 261.06 214.81 260.23 C 211.54 258.72 213.34 263.35 214.13 264.86 C 209.95 270.05 211.68 260.63 207.02 262.31 C 201.52 260.57 201.29 267.82 198.65 271.05 C 197.53 262.36 189.52 266.94 183.95 266.61 C 185.19 264.92 186.34 263.14 186.10 260.93 C 184.41 261.53 181.36 264.61 180.54 261.57 C 179.85 258.21 174.49 258.66 173.86 261.93 C 171.22 266.03 161.89 262.77 167.06 258.12 C 160.36 255.22 165.83 249.20 164.05 243.97 Z" />
</g>
<g id="#cabca3ff">
<path fill="#cabca3" opacity="1.00" d=" M 284.91 246.80 C 287.62 245.37 290.43 246.20 290.06 249.69 C 287.61 250.75 285.77 248.93 284.91 246.80 Z" />
</g>
<g id="#4e5d2bfd">
<path fill="#4e5d2b" opacity="1.00" d=" M 251.54 263.59 C 256.99 265.63 253.07 255.17 255.85 253.15 C 261.45 254.76 259.81 261.07 258.13 265.20 C 257.06 268.86 258.34 271.22 262.08 269.18 C 262.83 273.93 264.60 278.56 268.11 281.94 C 263.98 282.01 259.85 282.12 255.73 282.25 C 253.44 281.91 251.15 281.57 248.87 281.25 C 250.73 281.04 252.91 281.17 254.08 279.41 C 249.87 279.13 244.04 273.31 240.94 277.82 C 242.93 279.05 245.07 280.00 247.17 281.01 C 239.62 281.19 232.28 279.36 225.17 276.96 C 221.45 274.26 217.79 270.79 212.91 270.70 C 213.76 268.85 215.77 266.87 214.13 264.86 C 213.34 263.35 211.54 258.72 214.81 260.23 C 218.03 261.06 218.91 263.83 219.22 266.78 C 221.77 267.84 224.51 267.35 227.12 266.82 C 226.43 264.97 225.08 263.50 224.02 261.87 C 226.42 261.65 228.43 262.23 228.44 265.00 C 233.03 262.95 235.14 256.01 241.00 257.02 C 237.73 262.89 248.53 262.60 251.54 263.59 Z" />
</g>
<g id="#7d894bff">
<path fill="#7d894b" opacity="1.00" d=" M 268.32 253.27 C 270.88 253.32 271.98 254.92 271.79 257.37 C 271.54 259.35 274.35 264.29 270.57 262.51 C 266.72 261.42 272.63 264.99 273.76 266.04 C 273.53 270.75 273.37 277.21 266.10 275.01 C 268.14 272.03 264.85 264.16 262.08 269.18 C 258.34 271.22 257.06 268.86 258.13 265.20 C 263.63 263.97 266.60 258.24 268.32 253.27 M 270.22 270.24 C 269.02 270.78 268.47 272.47 269.21 273.59 C 271.13 274.26 273.07 270.08 270.22 270.24 Z" />
</g>
<g id="#818b49fb">
<path fill="#818b49" opacity="1.00" d=" M 283.99 257.96 C 288.08 259.25 296.24 251.80 296.43 259.24 C 294.47 264.00 290.40 267.74 290.07 273.23 C 291.49 267.33 284.61 272.14 290.07 273.23 L 289.79 274.13 C 286.96 270.89 279.95 273.43 279.83 269.19 C 281.98 271.03 283.85 270.42 285.03 267.91 C 283.53 264.36 276.67 261.20 279.82 257.19 C 281.21 257.43 282.58 257.77 283.99 257.96 Z" />
</g>
<g id="#63642dfc">
<path fill="#63642d" opacity="1.00" d=" M 278.17 267.91 C 276.14 264.07 272.47 257.09 279.82 257.19 C 276.67 261.20 283.53 264.36 285.03 267.91 C 283.85 270.42 281.98 271.03 279.83 269.19 C 279.95 273.43 286.96 270.89 289.79 274.13 C 285.59 278.72 278.43 281.08 272.28 282.44 C 270.89 282.27 269.50 282.10 268.11 281.94 C 264.60 278.56 262.83 273.93 262.08 269.18 C 264.85 264.16 268.14 272.03 266.10 275.01 C 273.37 277.21 273.53 270.75 273.76 266.04 C 275.22 266.69 276.68 267.33 278.17 267.91 Z" />
</g>
<g id="#968253fe">
<path fill="#968253" opacity="1.00" d=" M 198.65 271.05 C 201.29 267.82 201.52 260.57 207.02 262.31 C 211.68 260.63 209.95 270.05 214.13 264.86 C 215.77 266.87 213.76 268.85 212.91 270.70 C 212.00 271.56 211.11 272.44 210.16 273.25 C 206.33 272.71 201.81 273.42 198.65 271.05 Z" />
</g>
<g id="#beae90ff">
<path fill="#beae90" opacity="1.00" d=" M 270.22 270.24 C 273.07 270.08 271.13 274.26 269.21 273.59 C 268.47 272.47 269.02 270.78 270.22 270.24 Z" />
</g>
<g id="#c7baa5ff">
<path fill="#c7baa5" opacity="1.00" d=" M 290.07 273.23 C 291.49 267.33 284.61 272.14 290.07 273.23 Z" />
</g>
<g id="#17120a76">
<path fill="#17120a" opacity="0.46" d=" M 195.80 276.21 C 198.62 276.27 201.44 276.30 204.27 276.32 C 201.56 277.50 198.57 276.90 195.80 276.21 Z" />
</g>
<g id="#6d7d39fe">
<path fill="#6d7d39" opacity="1.00" d=" M 240.94 277.82 C 244.04 273.31 249.87 279.13 254.08 279.41 C 252.91 281.17 250.73 281.04 248.87 281.25 C 248.44 281.19 247.60 281.07 247.17 281.01 C 245.07 280.00 242.93 279.05 240.94 277.82 Z" />
</g>
<g id="#1012065a">
<path fill="#101206" opacity="0.35" d=" M 255.73 282.25 C 259.85 282.12 263.98 282.01 268.11 281.94 C 269.50 282.10 270.89 282.27 272.28 282.44 C 267.68 283.31 262.95 282.97 258.31 283.30 C 257.67 283.04 256.38 282.51 255.73 282.25 Z" />
</g>
</svg>
