<?xml version="1.0" encoding="UTF-8" ?>
<!DOCTYPE svg PUBLIC "-//W3C//DTD SVG 1.1//EN" "http://www.w3.org/Graphics/SVG/1.1/DTD/svg11.dtd">
<svg width="384pt" height="384pt" viewBox="0 0 384 384" version="1.1" xmlns="http://www.w3.org/2000/svg">
<g id="#0000000f">
<path fill="#000000" opacity="0.06" d=" M 0.00 0.00 L 117.26 0.00 C 115.09 2.29 112.86 4.52 110.87 6.97 C 117.24 4.39 122.97 9.30 129.36 8.68 C 137.39 6.10 146.01 10.29 154.06 11.41 C 158.10 12.29 160.66 16.45 164.85 17.24 C 168.50 17.83 165.99 25.30 170.63 24.36 C 174.16 21.50 177.70 24.74 181.09 26.13 C 177.72 27.30 172.70 24.41 171.60 29.88 C 170.49 31.38 170.72 33.32 171.17 35.02 C 168.93 36.85 166.71 38.72 164.19 40.16 C 161.04 40.29 157.68 39.36 154.71 40.71 C 152.93 41.42 151.51 42.78 150.12 44.06 C 145.83 49.66 143.51 57.07 135.16 58.15 C 136.60 54.46 136.23 49.51 130.95 50.92 C 132.12 53.21 136.35 57.23 131.06 56.00 C 127.63 54.00 126.97 45.74 131.27 43.48 C 122.39 44.48 132.58 37.13 135.88 35.70 C 136.32 30.74 129.75 35.60 127.89 32.14 C 123.74 27.23 115.96 24.42 110.18 28.22 C 107.49 30.04 105.78 25.60 103.24 25.43 C 99.53 25.52 95.85 25.77 92.17 26.16 C 89.54 28.07 86.95 31.48 83.68 28.66 C 80.34 30.83 76.24 30.22 72.74 31.87 C 66.53 36.97 58.36 39.10 50.63 40.63 C 44.22 44.88 36.15 42.32 30.46 48.49 C 27.01 54.03 20.20 45.02 18.53 52.39 C 18.75 57.43 15.13 54.99 12.13 54.01 C 10.38 56.09 10.70 60.76 6.97 59.47 C 3.20 58.98 3.56 64.31 0.00 64.47 L 0.00 0.00 Z" />
</g>
<g id="#5a6135fe">
<path fill="#5a6135" opacity="1.00" d=" M 181.09 26.13 C 183.85 23.41 187.85 21.73 190.74 25.31 C 193.49 28.87 195.84 21.41 199.21 24.63 C 193.95 24.00 197.68 27.44 199.14 29.75 C 194.58 28.04 191.12 32.01 189.75 35.93 C 184.53 32.04 181.93 37.76 177.51 39.42 C 176.96 44.74 171.93 37.91 169.34 41.31 C 167.46 42.20 169.03 43.23 169.96 44.20 C 169.76 46.47 168.00 48.23 167.09 50.25 C 170.44 50.18 172.59 45.23 175.86 48.24 C 178.26 52.76 168.62 56.49 173.76 59.80 C 174.79 60.43 175.55 61.26 176.06 62.30 C 173.36 62.99 171.10 60.97 168.98 59.64 C 164.96 52.32 161.12 68.79 154.01 65.77 C 152.95 66.14 151.90 66.51 150.85 66.88 C 148.34 67.30 143.14 69.09 145.65 72.40 C 147.34 74.14 146.00 76.37 145.63 78.36 C 143.87 76.64 139.82 72.60 139.40 77.39 C 134.78 86.28 146.56 78.71 147.94 84.02 C 149.52 89.37 155.97 86.30 159.82 85.40 C 164.13 87.96 165.56 93.20 168.85 96.79 C 167.78 97.22 166.71 97.64 165.63 98.05 C 162.20 100.75 156.50 100.02 154.83 104.33 C 150.56 106.24 152.92 99.40 148.82 99.34 C 142.65 99.71 143.47 108.68 136.95 109.26 C 139.26 112.71 141.04 116.33 142.62 120.16 C 144.93 117.02 142.39 109.97 148.85 111.68 C 152.20 112.15 158.63 106.17 158.98 111.84 C 155.68 114.12 151.30 114.00 147.91 116.12 C 149.59 119.40 151.29 124.36 155.10 125.07 C 156.47 125.04 157.84 124.79 159.17 124.45 L 160.06 124.22 C 162.05 123.76 164.05 123.29 166.08 123.02 C 169.24 124.10 170.23 119.92 173.04 120.37 C 174.93 125.46 166.42 124.59 168.54 129.33 C 169.25 132.71 164.65 131.58 163.13 130.03 C 160.07 133.91 167.24 134.42 166.47 138.10 C 167.56 141.80 162.52 144.71 164.12 148.04 C 168.31 146.23 167.51 138.05 173.05 138.94 C 170.57 143.21 169.85 147.42 176.15 144.98 C 173.79 147.95 169.84 148.44 166.90 150.61 C 176.22 149.85 171.19 160.09 173.79 165.19 C 181.51 167.19 175.46 175.75 174.79 180.89 C 176.06 180.31 177.30 179.66 178.57 179.07 C 179.75 179.38 180.93 179.65 182.12 179.88 C 182.22 182.63 181.07 185.29 181.82 188.07 C 180.93 188.44 180.04 188.80 179.16 189.16 C 181.37 184.38 174.26 179.62 171.04 184.23 C 169.36 191.42 174.06 191.69 179.16 189.16 C 181.73 193.65 174.12 193.00 179.65 196.30 C 176.89 198.43 177.01 202.10 178.72 205.07 C 176.14 205.98 173.78 204.67 171.42 203.83 C 174.17 209.07 163.77 207.60 167.45 213.47 C 169.66 218.37 175.92 217.47 177.85 212.87 C 177.69 215.18 177.64 217.49 177.63 219.80 C 174.76 221.65 170.97 220.47 168.02 219.26 C 165.94 221.71 165.77 224.96 165.88 228.07 C 165.93 231.07 166.12 234.12 166.96 237.03 C 163.11 232.71 156.94 228.66 158.00 222.03 C 156.96 218.40 163.98 221.53 161.83 217.24 C 158.76 214.56 154.43 219.82 150.38 218.33 C 149.22 224.51 146.21 215.64 145.89 213.10 C 143.44 208.75 137.59 212.13 134.04 209.82 C 134.22 206.85 135.08 203.93 136.19 201.18 C 138.84 200.17 137.24 204.95 140.11 204.01 C 140.75 200.04 135.64 199.61 134.57 196.37 C 132.72 193.68 136.34 191.92 136.94 189.50 C 134.64 188.74 132.02 187.91 132.99 184.91 C 136.26 185.61 139.32 187.02 142.62 187.66 C 144.56 183.12 149.45 181.21 152.48 177.54 C 157.40 177.21 161.17 185.20 165.86 180.75 C 167.86 177.56 162.05 176.82 164.01 174.01 C 165.77 170.38 160.04 168.22 157.16 167.77 C 157.77 169.53 158.52 171.25 159.10 173.03 C 153.13 169.44 147.06 164.87 139.66 166.64 C 134.22 168.37 132.41 161.64 128.07 160.01 C 125.15 163.08 132.91 163.14 130.95 166.87 C 130.84 171.51 126.44 169.65 123.94 167.99 C 123.07 160.38 130.28 155.58 126.97 147.95 C 127.32 145.58 127.65 143.20 127.96 140.82 C 130.19 136.83 127.04 133.18 125.16 129.79 C 123.32 121.28 125.40 113.09 130.19 106.09 C 135.58 102.90 132.74 95.99 135.21 91.16 C 138.29 85.52 138.77 78.92 137.39 72.69 C 137.28 72.03 137.04 70.72 136.92 70.07 C 136.87 68.26 136.77 64.66 136.72 62.86 C 143.34 58.34 150.22 52.84 150.12 44.06 C 151.51 42.78 152.93 41.42 154.71 40.71 C 157.82 40.54 161.36 41.88 164.19 40.16 C 166.71 38.72 168.93 36.85 171.17 35.02 C 172.93 33.85 172.14 31.50 171.60 29.88 C 172.70 24.41 177.72 27.30 181.09 26.13 Z" />
</g>
<g id="#00000019">
<path fill="#000000" opacity="0.10" d=" M 103.24 25.43 C 105.78 25.60 107.49 30.04 110.18 28.22 C 115.96 24.42 123.74 27.23 127.89 32.14 C 129.75 35.60 136.32 30.74 135.88 35.70 C 132.58 37.13 122.39 44.48 131.27 43.48 C 126.97 45.74 127.63 54.00 131.06 56.00 C 136.35 57.23 132.12 53.21 130.95 50.92 C 136.23 49.51 136.60 54.46 135.16 58.15 C 143.51 57.07 145.83 49.66 150.12 44.06 C 150.22 52.84 143.34 58.34 136.72 62.86 C 134.47 64.55 134.73 68.54 136.92 70.07 C 137.04 70.72 137.28 72.03 137.39 72.69 C 136.35 77.42 138.48 89.66 129.98 88.13 C 118.68 86.14 107.44 84.05 97.07 78.76 C 97.87 75.88 102.53 69.64 94.17 73.18 C 91.35 73.78 84.15 78.25 85.45 72.36 C 87.85 66.52 77.97 67.88 74.92 69.93 C 71.28 71.10 74.80 66.50 72.79 65.18 C 70.37 61.98 66.36 67.06 63.68 66.88 C 58.61 69.99 52.63 58.04 53.66 70.10 C 47.86 64.29 44.06 74.98 38.08 71.95 C 36.05 71.24 33.92 71.87 31.89 72.17 C 32.06 74.22 37.03 77.41 33.07 77.76 C 26.66 73.77 21.58 82.28 15.43 84.05 C 18.43 91.40 8.70 84.18 7.58 90.43 C 4.37 95.24 2.49 100.32 0.00 105.57 L 0.00 64.47 C 3.56 64.31 3.20 58.98 6.97 59.47 C 10.70 60.76 10.38 56.09 12.13 54.01 C 15.13 54.99 18.75 57.43 18.53 52.39 C 20.20 45.02 27.01 54.03 30.46 48.49 C 36.15 42.32 44.22 44.88 50.63 40.63 C 58.36 39.10 66.53 36.97 72.74 31.87 C 76.24 30.22 80.34 30.83 83.68 28.66 C 86.95 31.48 89.54 28.07 92.17 26.16 C 95.85 25.77 99.53 25.52 103.24 25.43 Z" />
</g>
<g id="#747a39fd">
<path fill="#747a39" opacity="1.00" d=" M 199.14 29.75 C 197.68 27.44 193.95 24.00 199.21 24.63 C 200.46 25.27 200.42 26.94 200.97 28.08 C 201.61 30.46 203.59 31.12 206.91 30.07 C 208.18 33.01 208.38 34.65 205.25 32.36 C 200.47 37.39 207.03 33.87 208.83 38.12 C 210.96 39.11 213.85 38.33 216.21 39.22 C 216.06 39.64 215.77 40.47 215.63 40.89 C 212.64 47.29 224.06 42.84 227.91 44.01 L 228.43 44.65 C 222.12 45.20 215.00 43.67 209.42 47.47 C 205.11 51.31 203.70 42.55 201.62 39.52 C 200.81 35.97 197.24 34.26 194.17 32.97 C 187.90 39.53 201.72 39.44 201.49 45.77 C 200.95 49.24 201.94 52.52 202.72 55.82 C 205.58 54.81 208.00 55.22 209.33 57.76 C 213.12 58.26 213.09 49.54 216.04 53.88 C 219.15 51.33 223.41 50.04 227.35 51.09 C 224.81 53.64 221.00 54.14 217.96 55.83 C 214.96 57.11 211.99 58.46 209.16 60.07 C 205.55 62.43 199.60 56.91 198.91 62.03 C 194.64 68.40 187.86 72.89 184.55 79.89 L 183.85 80.05 C 184.95 75.82 185.45 71.02 189.23 68.22 C 190.86 67.53 192.09 63.84 189.40 63.87 C 188.85 62.20 188.55 60.40 187.51 58.95 C 186.46 60.37 186.42 63.23 184.10 63.00 C 182.74 58.73 186.07 49.60 179.00 49.93 C 174.84 52.78 184.48 60.05 178.25 59.86 C 176.72 58.25 175.16 57.75 173.76 59.80 C 168.62 56.49 178.26 52.76 175.86 48.24 C 172.59 45.23 170.44 50.18 167.09 50.25 C 168.00 48.23 169.76 46.47 169.96 44.20 C 169.03 43.23 167.46 42.20 169.34 41.31 C 171.93 37.91 176.96 44.74 177.51 39.42 C 181.93 37.76 184.53 32.04 189.75 35.93 C 191.12 32.01 194.58 28.04 199.14 29.75 M 206.03 41.94 C 204.74 48.57 212.80 42.48 206.03 41.94 M 197.20 45.15 C 196.45 46.67 195.87 48.31 195.96 50.04 C 199.30 51.33 200.66 43.76 197.20 45.15 M 194.25 55.20 C 192.27 55.88 190.95 59.86 193.74 59.63 C 198.08 59.44 200.02 53.18 194.25 55.20 Z" />
</g>
<g id="#33331492">
<path fill="#333314" opacity="0.57" d=" M 200.97 28.08 C 204.27 29.23 207.81 29.21 211.23 29.78 C 209.79 29.86 208.35 29.96 206.91 30.07 C 203.59 31.12 201.61 30.46 200.97 28.08 Z" />
</g>
<g id="#2c2b19a2">
<path fill="#2c2b19" opacity="0.64" d=" M 171.17 35.02 C 170.72 33.32 170.49 31.38 171.60 29.88 C 172.14 31.50 172.93 33.85 171.17 35.02 Z" />
</g>
<g id="#899346f9">
<path fill="#899346" opacity="0.98" d=" M 206.91 30.07 C 208.35 29.96 209.79 29.86 211.23 29.78 C 214.76 30.94 218.45 35.48 216.21 39.22 C 213.85 38.33 210.96 39.11 208.83 38.12 C 207.03 33.87 200.47 37.39 205.25 32.36 C 208.38 34.65 208.18 33.01 206.91 30.07 Z" />
</g>
<g id="#8c9e5afe">
<path fill="#8c9e5a" opacity="1.00" d=" M 194.17 32.97 C 197.24 34.26 200.81 35.97 201.62 39.52 C 203.70 42.55 205.11 51.31 209.42 47.47 C 215.00 43.67 222.12 45.20 228.43 44.65 C 231.01 46.63 229.81 49.69 227.35 51.09 C 223.41 50.04 219.15 51.33 216.04 53.88 C 213.09 49.54 213.12 58.26 209.33 57.76 C 208.00 55.22 205.58 54.81 202.72 55.82 C 201.94 52.52 200.95 49.24 201.49 45.77 C 201.72 39.44 187.90 39.53 194.17 32.97 Z" />
</g>
<g id="#322a18ab">
<path fill="#322a18" opacity="0.67" d=" M 154.71 40.71 C 157.68 39.36 161.04 40.29 164.19 40.16 C 161.36 41.88 157.82 40.54 154.71 40.71 Z" />
</g>
<g id="#171b0a64">
<path fill="#171b0a" opacity="0.39" d=" M 227.91 44.01 C 224.06 42.84 212.64 47.29 215.63 40.89 C 216.65 45.96 225.01 40.95 227.91 44.01 Z" />
</g>
<g id="#cabca3ff">
<path fill="#cabca3" opacity="1.00" d=" M 206.03 41.94 C 212.80 42.48 204.74 48.57 206.03 41.94 Z" />
</g>
<g id="#b2a480ff">
<path fill="#b2a480" opacity="1.00" d=" M 197.20 45.15 C 200.66 43.76 199.30 51.33 195.96 50.04 C 195.87 48.31 196.45 46.67 197.20 45.15 Z" />
</g>
<g id="#8f9f58ff">
<path fill="#8f9f58" opacity="1.00" d=" M 179.00 49.93 C 186.07 49.60 182.74 58.73 184.10 63.00 C 186.42 63.23 186.46 60.37 187.51 58.95 C 188.55 60.40 188.85 62.20 189.40 63.87 C 184.36 67.73 179.38 71.77 174.01 75.18 C 176.11 71.18 175.59 66.64 176.06 62.30 C 175.55 61.26 174.79 60.43 173.76 59.80 C 175.16 57.75 176.72 58.25 178.25 59.86 C 184.48 60.05 174.84 52.78 179.00 49.93 Z" />
</g>
<g id="#aa926aff">
<path fill="#aa926a" opacity="1.00" d=" M 194.25 55.20 C 200.02 53.18 198.08 59.44 193.74 59.63 C 190.95 59.86 192.27 55.88 194.25 55.20 Z" />
</g>
<g id="#01010016">
<path fill="#010100" opacity="0.09" d=" M 209.16 60.07 C 211.99 58.46 214.96 57.11 217.96 55.83 C 216.53 61.54 206.79 61.36 208.03 67.83 C 211.88 69.19 216.11 70.30 220.19 69.20 C 219.86 71.52 216.57 73.78 219.18 75.80 C 221.30 79.98 228.01 78.98 228.82 84.14 C 232.30 89.73 230.00 98.32 236.86 101.34 C 236.14 105.03 232.13 109.21 232.71 112.26 C 242.63 110.83 237.45 124.54 245.92 126.25 C 242.69 130.35 245.29 133.36 250.01 131.09 C 244.00 135.35 251.89 138.48 255.24 141.80 C 259.17 143.88 263.10 140.91 267.14 141.02 C 263.91 143.14 260.69 145.37 258.15 148.31 C 257.35 155.12 261.23 161.34 260.96 168.18 C 258.42 166.97 255.99 165.52 253.31 164.63 C 251.30 163.64 249.36 162.48 247.22 161.82 C 242.89 160.86 238.47 161.11 234.09 160.98 C 233.83 160.76 233.30 160.34 233.04 160.13 C 228.38 144.92 217.48 133.39 205.76 123.16 C 208.46 114.17 207.62 97.97 195.18 98.10 C 190.66 98.21 188.20 93.68 184.94 91.20 C 184.87 89.48 184.79 87.75 184.67 86.03 C 185.38 84.05 185.72 81.78 184.55 79.89 C 187.86 72.89 194.64 68.40 198.91 62.03 C 202.47 62.24 206.32 62.58 209.16 60.07 Z" />
</g>
<g id="#61743cff">
<path fill="#61743c" opacity="1.00" d=" M 154.01 65.77 C 161.12 68.79 164.96 52.32 168.98 59.64 C 164.65 62.77 172.35 72.85 165.82 70.30 C 165.81 73.08 169.34 76.79 166.76 78.82 C 163.46 79.84 164.31 73.84 161.16 73.95 C 160.10 75.59 159.88 80.10 157.68 76.23 C 152.99 73.53 159.97 67.83 154.01 65.77 Z" />
</g>
<g id="#3f4d1be3">
<path fill="#3f4d1b" opacity="0.89" d=" M 198.91 62.03 C 199.60 56.91 205.55 62.43 209.16 60.07 C 206.32 62.58 202.47 62.24 198.91 62.03 Z" />
</g>
<g id="#748942ff">
<path fill="#748942" opacity="1.00" d=" M 165.82 70.30 C 172.35 72.85 164.65 62.77 168.98 59.64 C 171.10 60.97 173.36 62.99 176.06 62.30 C 175.59 66.64 176.11 71.18 174.01 75.18 C 179.38 71.77 184.36 67.73 189.40 63.87 C 192.09 63.84 190.86 67.53 189.23 68.22 C 185.45 71.02 184.95 75.82 183.85 80.05 C 184.06 81.55 184.46 84.54 184.67 86.03 C 184.79 87.75 184.87 89.48 184.94 91.20 C 181.13 90.07 180.01 85.86 178.04 82.87 C 179.06 79.09 181.68 75.85 182.14 71.89 C 178.33 75.61 171.84 78.59 174.96 84.86 C 168.89 87.96 164.14 84.74 160.42 80.10 C 160.05 84.60 155.08 84.72 151.73 85.82 C 152.34 84.16 153.27 82.65 154.01 81.04 C 154.01 76.17 152.75 71.35 150.85 66.88 C 151.90 66.51 152.95 66.14 154.01 65.77 C 159.97 67.83 152.99 73.53 157.68 76.23 C 159.88 80.10 160.10 75.59 161.16 73.95 C 164.31 73.84 163.46 79.84 166.76 78.82 C 169.34 76.79 165.81 73.08 165.82 70.30 Z" />
</g>
<g id="#2d2c189b">
<path fill="#2d2c18" opacity="0.61" d=" M 136.92 70.07 C 134.73 68.54 134.47 64.55 136.72 62.86 C 136.77 64.66 136.87 68.26 136.92 70.07 Z" />
</g>
<g id="#00000021">
<path fill="#000000" opacity="0.13" d=" M 53.66 70.10 C 52.63 58.04 58.61 69.99 63.68 66.88 C 66.36 67.06 70.37 61.98 72.79 65.18 C 74.80 66.50 71.28 71.10 74.92 69.93 C 77.97 67.88 87.85 66.52 85.45 72.36 C 84.15 78.25 91.35 73.78 94.17 73.18 C 102.53 69.64 97.87 75.88 97.07 78.76 C 107.44 84.05 118.68 86.14 129.98 88.13 C 138.48 89.66 136.35 77.42 137.39 72.69 C 138.77 78.92 138.29 85.52 135.21 91.16 C 132.74 95.99 135.58 102.90 130.19 106.09 C 126.38 109.01 123.16 112.65 118.91 115.01 C 115.17 113.60 113.15 108.27 108.68 109.45 C 106.54 110.18 105.32 106.74 103.45 107.48 C 99.07 111.11 94.75 104.32 89.86 105.65 C 80.52 103.56 70.92 109.06 61.16 108.59 C 58.38 111.89 57.14 116.96 52.66 118.40 C 48.55 117.69 48.51 124.51 43.81 122.69 C 39.80 126.27 33.67 124.32 29.25 127.19 C 19.62 129.86 9.44 129.45 0.00 128.95 L 0.00 105.57 C 2.49 100.32 4.37 95.24 7.58 90.43 C 8.70 84.18 18.43 91.40 15.43 84.05 C 21.58 82.28 26.66 73.77 33.07 77.76 C 37.03 77.41 32.06 74.22 31.89 72.17 C 33.92 71.87 36.05 71.24 38.08 71.95 C 44.06 74.98 47.86 64.29 53.66 70.10 Z" />
</g>
<g id="#454f27ff">
<path fill="#454f27" opacity="1.00" d=" M 145.65 72.40 C 143.14 69.09 148.34 67.30 150.85 66.88 C 152.75 71.35 154.01 76.17 154.01 81.04 C 150.77 81.34 147.73 80.89 145.63 78.36 C 146.00 76.37 147.34 74.14 145.65 72.40 Z" />
</g>
<g id="#667431fe">
<path fill="#667431" opacity="1.00" d=" M 174.96 84.86 C 171.84 78.59 178.33 75.61 182.14 71.89 C 181.68 75.85 179.06 79.09 178.04 82.87 C 180.01 85.86 181.13 90.07 184.94 91.20 C 188.20 93.68 190.66 98.21 195.18 98.10 C 192.47 100.26 190.35 102.93 189.17 106.22 C 186.46 106.85 183.29 106.62 181.98 109.42 C 181.51 109.88 180.58 110.80 180.12 111.26 C 176.41 111.60 179.85 108.20 180.53 106.61 C 182.67 105.75 186.02 105.37 185.00 102.24 C 178.70 98.48 170.75 104.56 165.63 98.05 C 166.71 97.64 167.78 97.22 168.85 96.79 C 165.56 93.20 164.13 87.96 159.82 85.40 C 155.97 86.30 149.52 89.37 147.94 84.02 C 146.56 78.71 134.78 86.28 139.40 77.39 C 139.82 72.60 143.87 76.64 145.63 78.36 C 147.73 80.89 150.77 81.34 154.01 81.04 C 153.27 82.65 152.34 84.16 151.73 85.82 C 155.08 84.72 160.05 84.60 160.42 80.10 C 164.14 84.74 168.89 87.96 174.96 84.86 Z" />
</g>
<g id="#2b341686">
<path fill="#2b3416" opacity="0.53" d=" M 183.85 80.05 L 184.55 79.89 C 185.72 81.78 185.38 84.05 184.67 86.03 C 184.46 84.54 184.06 81.55 183.85 80.05 Z" />
</g>
<g id="#7d8740ff">
<path fill="#7d8740" opacity="1.00" d=" M 154.83 104.33 C 156.50 100.02 162.20 100.75 165.63 98.05 C 170.75 104.56 178.70 98.48 185.00 102.24 C 186.02 105.37 182.67 105.75 180.53 106.61 C 179.85 108.20 176.41 111.60 180.12 111.26 C 178.52 112.66 173.14 118.69 174.54 113.68 C 173.89 110.96 168.43 113.68 167.71 110.31 C 166.82 106.73 162.92 107.85 162.54 111.09 C 160.02 108.79 157.35 106.64 154.83 104.33 Z" />
</g>
<g id="#7c6b37f9">
<path fill="#7c6b37" opacity="0.98" d=" M 195.18 98.10 C 207.62 97.97 208.46 114.17 205.76 123.16 C 205.15 121.14 204.55 119.13 203.97 117.12 C 204.01 116.67 204.09 115.78 204.13 115.33 L 204.38 114.30 C 205.57 109.71 201.05 105.06 198.09 102.01 C 195.61 104.77 196.90 108.60 196.12 111.86 C 191.26 107.94 186.31 113.78 181.96 115.88 C 180.68 113.66 183.37 111.55 181.98 109.42 C 183.29 106.62 186.46 106.85 189.17 106.22 C 190.35 102.93 192.47 100.26 195.18 98.10 Z" />
</g>
<g id="#6c713fff">
<path fill="#6c713f" opacity="1.00" d=" M 136.95 109.26 C 143.47 108.68 142.65 99.71 148.82 99.34 C 152.92 99.40 150.56 106.24 154.83 104.33 C 157.35 106.64 160.02 108.79 162.54 111.09 C 163.45 115.27 167.31 118.24 166.08 123.02 C 164.05 123.29 162.05 123.76 160.06 124.22 L 160.32 123.24 C 162.94 120.11 165.26 112.31 157.35 115.26 C 152.72 116.46 154.96 121.77 155.10 125.07 C 151.29 124.36 149.59 119.40 147.91 116.12 C 151.30 114.00 155.68 114.12 158.98 111.84 C 158.63 106.17 152.20 112.15 148.85 111.68 C 142.39 109.97 144.93 117.02 142.62 120.16 C 141.04 116.33 139.26 112.71 136.95 109.26 Z" />
</g>
<g id="#8e955aff">
<path fill="#8e955a" opacity="1.00" d=" M 198.09 102.01 C 201.05 105.06 205.57 109.71 204.38 114.30 C 202.60 108.24 199.02 112.79 204.13 115.33 C 204.09 115.78 204.01 116.67 203.97 117.12 C 200.64 116.37 197.73 114.63 194.85 112.90 C 195.58 115.45 198.26 117.19 198.08 120.02 C 195.75 120.41 193.76 119.24 191.85 118.11 C 190.30 120.38 194.58 124.90 191.74 126.75 C 189.17 126.56 186.54 126.32 184.28 127.80 C 183.39 125.68 181.40 118.49 179.11 123.12 C 175.21 126.64 177.26 116.46 181.21 119.58 C 180.13 111.59 176.66 120.90 173.04 120.37 C 170.23 119.92 169.24 124.10 166.08 123.02 C 167.31 118.24 163.45 115.27 162.54 111.09 C 162.92 107.85 166.82 106.73 167.71 110.31 C 168.43 113.68 173.89 110.96 174.54 113.68 C 173.14 118.69 178.52 112.66 180.12 111.26 C 180.58 110.80 181.51 109.88 181.98 109.42 C 183.37 111.55 180.68 113.66 181.96 115.88 C 186.31 113.78 191.26 107.94 196.12 111.86 C 196.90 108.60 195.61 104.77 198.09 102.01 Z" />
</g>
<g id="#0000002c">
<path fill="#000000" opacity="0.17" d=" M 61.16 108.59 C 70.92 109.06 80.52 103.56 89.86 105.65 C 94.75 104.32 99.07 111.11 103.45 107.48 C 105.32 106.74 106.54 110.18 108.68 109.45 C 113.15 108.27 115.17 113.60 118.91 115.01 C 123.16 112.65 126.38 109.01 130.19 106.09 C 125.40 113.09 123.32 121.28 125.16 129.79 C 124.73 133.03 128.47 140.00 123.33 139.63 C 87.23 137.43 51.12 132.88 15.00 136.73 C 10.00 136.11 4.93 137.06 0.00 135.94 L 0.00 128.95 C 9.44 129.45 19.62 129.86 29.25 127.19 C 33.67 124.32 39.80 126.27 43.81 122.69 C 48.51 124.51 48.55 117.69 52.66 118.40 C 57.14 116.96 58.38 111.89 61.16 108.59 Z" />
<path fill="#000000" opacity="0.17" d=" M 0.00 170.92 C 15.17 171.22 30.81 172.03 46.14 171.43 C 62.82 170.00 78.85 173.76 95.04 176.91 C 100.27 178.65 99.23 186.56 103.95 189.16 C 105.70 195.01 107.66 205.00 100.92 208.97 C 66.30 207.31 31.20 201.41 0.00 185.56 L 0.00 170.92 Z" />
</g>
<g id="#c8baa3ff">
<path fill="#c8baa3" opacity="1.00" d=" M 204.13 115.33 C 199.02 112.79 202.60 108.24 204.38 114.30 L 204.13 115.33 Z" />
</g>
<g id="#737d41fd">
<path fill="#737d41" opacity="1.00" d=" M 194.85 112.90 C 197.73 114.63 200.64 116.37 203.97 117.12 C 204.55 119.13 205.15 121.14 205.76 123.16 C 217.48 133.39 228.38 144.92 233.04 160.13 C 231.79 160.61 229.30 161.59 228.05 162.08 C 225.96 151.93 218.83 145.70 212.30 138.83 C 213.09 134.26 206.63 139.06 208.02 134.62 C 214.31 134.94 206.33 128.06 203.90 128.11 C 194.88 123.46 206.78 134.19 198.78 134.77 C 197.80 134.40 196.97 133.77 196.21 133.06 C 193.05 132.23 187.30 130.70 185.71 134.76 C 183.05 139.72 187.78 143.53 190.28 147.22 C 187.40 147.33 184.43 147.75 182.01 145.91 C 182.33 149.84 186.81 152.07 186.85 155.74 C 184.86 158.99 182.44 155.27 183.74 152.87 C 181.33 155.64 179.55 157.29 179.73 151.84 C 175.81 154.98 180.88 161.24 184.74 162.08 C 185.35 164.05 185.00 165.17 182.81 164.42 C 183.27 166.94 184.35 169.31 185.11 171.76 C 180.17 169.61 181.03 176.39 178.57 179.07 C 177.30 179.66 176.06 180.31 174.79 180.89 C 175.46 175.75 181.51 167.19 173.79 165.19 C 171.19 160.09 176.22 149.85 166.90 150.61 C 169.84 148.44 173.79 147.95 176.15 144.98 C 169.85 147.42 170.57 143.21 173.05 138.94 C 167.51 138.05 168.31 146.23 164.12 148.04 C 162.52 144.71 167.56 141.80 166.47 138.10 C 167.24 134.42 160.07 133.91 163.13 130.03 C 164.65 131.58 169.25 132.71 168.54 129.33 C 166.42 124.59 174.93 125.46 173.04 120.37 C 176.66 120.90 180.13 111.59 181.21 119.58 C 177.26 116.46 175.21 126.64 179.11 123.12 C 181.40 118.49 183.39 125.68 184.28 127.80 C 186.54 126.32 189.17 126.56 191.74 126.75 C 194.58 124.90 190.30 120.38 191.85 118.11 C 193.76 119.24 195.75 120.41 198.08 120.02 C 198.26 117.19 195.58 115.45 194.85 112.90 Z" />
</g>
<g id="#958558ff">
<path fill="#958558" opacity="1.00" d=" M 157.35 115.26 C 165.26 112.31 162.94 120.11 160.32 123.24 C 159.90 117.69 153.66 123.63 159.17 124.45 C 157.84 124.79 156.47 125.04 155.10 125.07 C 154.96 121.77 152.72 116.46 157.35 115.26 Z" />
</g>
<g id="#d4c9b8ff">
<path fill="#d4c9b8" opacity="1.00" d=" M 159.17 124.45 C 153.66 123.63 159.90 117.69 160.32 123.24 L 160.06 124.22 L 159.17 124.45 Z" />
</g>
<g id="#586a39fb">
<path fill="#586a39" opacity="1.00" d=" M 288.25 124.29 C 291.08 120.91 297.59 121.19 299.25 125.55 C 294.37 131.09 291.02 137.85 287.16 144.13 C 284.27 147.94 287.74 155.81 282.09 156.68 C 281.94 153.57 278.95 151.97 277.10 149.86 C 276.64 147.58 276.22 145.28 275.71 143.01 C 272.54 143.57 266.39 146.64 268.58 140.63 C 276.65 137.10 282.67 130.96 288.25 124.29 Z" />
</g>
<g id="#5e713cfd">
<path fill="#5e713c" opacity="1.00" d=" M 300.82 128.10 C 302.48 125.01 305.54 123.71 309.13 125.46 C 306.16 126.17 305.61 127.96 307.35 130.33 C 307.01 134.00 302.21 134.78 299.75 136.72 C 298.97 141.32 297.24 146.89 301.98 150.12 C 301.38 151.13 300.83 152.16 300.25 153.18 C 299.74 150.90 299.73 146.96 296.31 147.99 C 298.88 155.29 290.37 154.70 288.21 159.32 C 286.70 162.82 289.49 165.03 291.15 167.44 C 289.26 169.00 286.67 166.94 285.05 165.78 C 285.95 157.41 292.35 149.77 291.15 141.11 C 293.67 136.35 297.64 132.46 300.82 128.10 Z" />
</g>
<g id="#404c24fc">
<path fill="#404c24" opacity="1.00" d=" M 287.16 144.13 C 291.02 137.85 294.37 131.09 299.25 125.55 C 299.77 126.40 300.29 127.25 300.82 128.10 C 297.64 132.46 293.67 136.35 291.15 141.11 C 292.35 149.77 285.95 157.41 285.05 165.78 C 286.67 166.94 289.26 169.00 291.15 167.44 C 295.41 163.50 297.52 158.13 300.25 153.18 C 300.83 152.16 301.38 151.13 301.98 150.12 C 302.26 149.76 302.82 149.04 303.10 148.68 C 307.17 153.78 299.94 159.20 301.13 165.07 C 296.09 165.66 293.74 172.43 296.85 176.22 C 290.27 177.57 288.12 167.80 281.84 169.67 C 279.73 170.30 278.16 168.39 276.19 168.10 C 274.68 169.73 276.21 172.12 275.97 174.09 C 271.98 174.13 268.98 170.65 264.97 170.92 C 266.01 173.90 267.19 176.88 267.00 180.11 C 265.78 179.20 264.97 176.74 263.17 177.96 C 264.24 175.20 263.89 172.24 261.87 169.99 C 258.87 170.76 260.78 174.25 260.28 176.41 C 260.39 178.79 256.95 180.16 258.00 182.51 C 256.62 183.32 255.28 184.18 253.93 185.04 C 254.30 183.37 254.72 181.72 255.25 180.11 C 259.70 175.94 257.12 170.12 253.10 166.71 C 253.15 166.19 253.25 165.15 253.31 164.63 C 255.99 165.52 258.42 166.97 260.96 168.18 C 261.23 161.34 257.35 155.12 258.15 148.31 C 260.69 145.37 263.91 143.14 267.14 141.02 C 267.50 140.92 268.22 140.73 268.58 140.63 C 266.39 146.64 272.54 143.57 275.71 143.01 C 276.22 145.28 276.64 147.58 277.10 149.86 C 270.85 146.95 271.04 157.76 274.24 160.91 C 277.52 161.42 278.47 156.36 282.09 156.68 C 287.74 155.81 284.27 147.94 287.16 144.13 Z" />
</g>
<g id="#91a260fc">
<path fill="#91a260" opacity="1.00" d=" M 307.35 130.33 C 305.61 127.96 306.16 126.17 309.13 125.46 C 311.84 127.38 312.49 130.42 311.93 133.70 C 308.76 138.56 306.48 143.96 303.10 148.68 C 302.82 149.04 302.26 149.76 301.98 150.12 C 297.24 146.89 298.97 141.32 299.75 136.72 C 302.21 134.78 307.01 134.00 307.35 130.33 Z" />
</g>
<g id="#576030fe">
<path fill="#576030" opacity="1.00" d=" M 198.78 134.77 C 206.78 134.19 194.88 123.46 203.90 128.11 C 206.33 128.06 214.31 134.94 208.02 134.62 C 206.63 139.06 213.09 134.26 212.30 138.83 C 218.83 145.70 225.96 151.93 228.05 162.08 C 229.30 161.59 231.79 160.61 233.04 160.13 C 233.30 160.34 233.83 160.76 234.09 160.98 C 238.10 162.75 242.86 161.71 247.22 161.82 C 249.36 162.48 251.30 163.64 253.31 164.63 C 253.25 165.15 253.15 166.19 253.10 166.71 C 248.00 169.20 245.43 163.15 240.02 164.89 C 238.44 165.15 235.58 168.29 235.85 164.96 C 234.46 161.04 231.18 170.81 230.79 166.18 C 228.80 162.02 223.73 166.00 223.36 169.40 C 222.17 173.19 220.36 167.55 218.16 168.02 C 217.36 169.92 217.11 171.97 216.89 174.00 C 214.63 175.67 215.11 178.59 214.75 181.15 C 209.79 176.95 215.65 170.99 216.04 166.04 C 208.75 162.39 212.87 167.85 211.26 170.28 C 208.39 175.17 209.74 181.19 207.34 186.22 C 208.20 178.00 206.35 177.73 204.10 183.24 C 204.16 178.40 203.53 173.61 202.82 168.84 C 202.68 167.07 202.56 165.29 202.81 163.53 C 203.16 164.08 203.86 165.17 204.22 165.72 C 207.50 162.76 212.45 163.68 215.66 160.62 C 217.61 156.45 210.04 160.87 211.40 155.25 C 207.25 157.31 208.37 152.15 205.61 150.45 C 206.81 144.21 202.28 139.29 198.78 134.77 Z" />
</g>
<g id="#00000039">
<path fill="#000000" opacity="0.22" d=" M 125.16 129.79 C 127.04 133.18 130.19 136.83 127.96 140.82 C 126.64 143.70 126.34 149.02 121.00 145.99 C 80.85 142.49 39.99 137.70 0.00 143.21 L 0.00 135.94 C 4.93 137.06 10.00 136.11 15.00 136.73 C 51.12 132.88 87.23 137.43 123.33 139.63 C 128.47 140.00 124.73 133.03 125.16 129.79 Z" />
<path fill="#000000" opacity="0.22" d=" M 0.00 161.87 C 40.65 168.97 82.30 164.77 123.18 170.65 L 123.75 171.20 C 126.01 174.88 129.37 177.66 132.11 180.96 C 129.29 185.47 125.53 189.78 125.84 195.49 C 124.14 201.34 128.82 211.22 120.30 212.30 C 98.48 214.74 76.69 210.21 55.01 207.95 C 36.10 206.52 18.08 200.48 0.00 195.79 L 0.00 185.56 C 31.20 201.41 66.30 207.31 100.92 208.97 C 107.66 205.00 105.70 195.01 103.95 189.16 C 99.23 186.56 100.27 178.65 95.04 176.91 C 78.85 173.76 62.82 170.00 46.14 171.43 C 30.81 172.03 15.17 171.22 0.00 170.92 L 0.00 161.87 Z" />
</g>
<g id="#646231ff">
<path fill="#646231" opacity="1.00" d=" M 185.71 134.76 C 187.30 130.70 193.05 132.23 196.21 133.06 C 196.47 136.30 193.28 137.56 191.23 139.36 C 190.72 142.08 192.70 144.91 191.11 147.53 L 190.28 147.22 C 187.78 143.53 183.05 139.72 185.71 134.76 Z" />
</g>
<g id="#7f7835ff">
<path fill="#7f7835" opacity="1.00" d=" M 196.21 133.06 C 196.97 133.77 197.80 134.40 198.78 134.77 C 202.28 139.29 206.81 144.21 205.61 150.45 C 208.37 152.15 207.25 157.31 211.40 155.25 C 210.04 160.87 217.61 156.45 215.66 160.62 C 212.45 163.68 207.50 162.76 204.22 165.72 C 203.86 165.17 203.16 164.08 202.81 163.53 C 203.22 159.99 200.61 164.92 199.15 162.89 C 194.45 161.40 201.10 156.61 195.88 155.21 C 205.31 154.93 192.97 151.12 191.11 147.53 C 192.70 144.91 190.72 142.08 191.23 139.36 C 193.28 137.56 196.47 136.30 196.21 133.06 M 193.74 146.31 C 195.39 150.32 204.93 144.93 198.24 143.76 C 197.05 138.09 191.76 142.52 193.74 146.31 Z" />
</g>
<g id="#566b3bfe">
<path fill="#566b3b" opacity="1.00" d=" M 303.10 148.68 C 306.48 143.96 308.76 138.56 311.93 133.70 C 312.46 134.00 313.52 134.61 314.05 134.91 C 315.78 138.46 313.17 140.64 310.49 142.49 C 313.06 151.57 305.41 158.58 301.13 165.07 C 299.94 159.20 307.17 153.78 303.10 148.68 Z" />
</g>
<g id="#869457fd">
<path fill="#869457" opacity="1.00" d=" M 314.05 134.91 C 318.29 135.27 320.25 139.17 319.64 143.08 C 319.40 143.54 318.92 144.45 318.68 144.90 C 318.50 145.29 318.13 146.06 317.94 146.45 C 312.90 156.02 309.19 166.68 302.97 175.40 C 298.06 175.23 300.79 168.36 301.13 165.07 C 305.41 158.58 313.06 151.57 310.49 142.49 C 313.17 140.64 315.78 138.46 314.05 134.91 Z" />
</g>
<g id="#00000049">
<path fill="#000000" opacity="0.29" d=" M 0.00 143.21 C 39.99 137.70 80.85 142.49 121.00 145.99 C 126.34 149.02 126.64 143.70 127.96 140.82 C 127.65 143.20 127.32 145.58 126.97 147.95 C 126.78 148.28 126.40 148.92 126.21 149.24 C 89.44 147.21 51.96 141.32 15.54 149.45 C 7.35 147.78 11.43 156.76 16.07 156.94 C 51.37 162.50 87.46 161.96 122.96 167.04 C 123.04 168.24 123.11 169.45 123.18 170.65 C 82.30 164.77 40.65 168.97 0.00 161.87 L 0.00 143.21 Z" />
</g>
<g id="#a28b65ff">
<path fill="#a28b65" opacity="1.00" d=" M 193.74 146.31 C 191.76 142.52 197.05 138.09 198.24 143.76 C 192.44 142.12 199.87 149.56 198.24 143.76 C 204.93 144.93 195.39 150.32 193.74 146.31 Z" />
</g>
<g id="#d9cdbcff">
<path fill="#d9cdbc" opacity="1.00" d=" M 198.24 143.76 C 192.44 142.12 199.87 149.56 198.24 143.76 Z" />
</g>
<g id="#262a147b">
<path fill="#262a14" opacity="0.48" d=" M 318.68 144.90 C 318.92 144.45 319.40 143.54 319.64 143.08 C 320.64 144.56 322.43 145.01 323.97 145.71 C 322.22 146.05 319.88 146.70 318.68 144.90 Z" />
</g>
<g id="#00000056">
<path fill="#000000" opacity="0.34" d=" M 15.54 149.45 C 51.96 141.32 89.44 147.21 126.21 149.24 C 125.51 150.85 123.89 152.23 122.04 151.85 C 104.46 150.41 86.85 149.73 69.26 151.20 C 64.35 156.17 73.28 159.33 77.23 156.63 C 91.83 161.36 108.00 160.65 122.79 165.20 C 122.83 165.66 122.92 166.58 122.96 167.04 C 87.46 161.96 51.37 162.50 16.07 156.94 C 11.43 156.76 7.35 147.78 15.54 149.45 Z" />
</g>
<g id="#5d6f3bfb">
<path fill="#5d6f3b" opacity="1.00" d=" M 317.94 146.45 C 318.13 146.06 318.50 145.29 318.68 144.90 C 319.88 146.70 322.22 146.05 323.97 145.71 C 324.45 145.78 325.41 145.91 325.89 145.98 C 326.80 147.21 327.78 148.45 328.16 149.98 C 322.17 145.30 320.67 152.46 320.58 157.66 C 320.21 161.89 315.75 163.57 313.91 167.03 C 313.46 159.60 320.14 153.48 317.94 146.45 Z" />
</g>
<g id="#8a9455ff">
<path fill="#8a9455" opacity="1.00" d=" M 182.01 145.91 C 184.43 147.75 187.40 147.33 190.28 147.22 L 191.11 147.53 C 192.97 151.12 205.31 154.93 195.88 155.21 C 201.10 156.61 194.45 161.40 199.15 162.89 C 200.61 164.92 203.22 159.99 202.81 163.53 C 202.56 165.29 202.68 167.07 202.82 168.84 C 200.02 171.45 195.38 173.94 198.87 177.85 C 197.71 178.61 196.60 179.42 195.42 180.13 C 194.99 175.38 196.61 170.87 196.96 166.20 C 193.76 165.39 190.47 165.39 187.20 165.65 C 188.08 161.14 187.26 159.95 184.74 162.08 C 180.88 161.24 175.81 154.98 179.73 151.84 C 179.55 157.29 181.33 155.64 183.74 152.87 C 182.44 155.27 184.86 158.99 186.85 155.74 C 186.81 152.07 182.33 149.84 182.01 145.91 Z" />
</g>
<g id="#0000000d">
<path fill="#000000" opacity="0.05" d=" M 325.89 145.98 C 331.47 146.38 329.27 154.31 329.00 158.06 C 325.42 165.67 323.09 174.05 318.06 180.90 C 324.63 178.19 319.91 188.85 325.94 189.25 C 323.51 195.12 324.34 203.18 329.62 207.43 C 330.90 212.06 319.94 209.32 322.24 214.69 C 323.02 217.83 327.67 216.34 328.00 219.93 C 324.89 222.79 323.64 228.99 327.84 231.37 C 325.65 234.57 322.96 237.45 321.23 240.95 C 322.35 242.70 323.06 244.44 321.40 246.10 C 326.29 250.73 319.09 259.22 322.55 265.57 C 323.33 268.81 315.69 272.41 320.12 274.88 C 323.95 276.58 320.29 279.77 318.98 281.91 C 322.34 284.91 322.68 277.99 323.48 275.85 C 325.42 279.15 322.79 283.01 323.64 286.63 C 320.15 288.60 317.03 292.15 313.34 293.15 C 310.24 288.79 306.69 294.38 311.97 295.14 C 315.13 299.65 310.50 307.36 304.38 304.11 C 304.56 311.23 295.88 308.72 291.22 309.55 C 288.52 311.86 286.79 315.04 284.65 317.83 C 281.49 319.19 281.25 314.55 278.89 314.08 C 272.37 315.03 267.87 320.34 262.08 322.96 C 258.51 320.49 265.54 319.65 263.03 317.27 C 260.21 318.58 257.28 319.79 254.15 320.08 C 255.40 316.81 254.66 315.02 250.88 316.02 C 255.58 320.05 247.69 322.53 248.14 327.15 C 247.78 331.18 244.00 326.24 244.62 324.05 C 241.15 323.11 240.74 329.18 236.65 326.53 C 235.60 325.48 234.42 323.07 232.74 324.71 C 228.41 326.15 231.11 331.92 227.41 334.10 C 227.37 330.01 222.58 328.02 224.77 323.75 C 222.72 326.30 220.10 327.43 216.90 326.20 C 216.77 329.05 218.81 331.32 219.11 334.09 C 215.88 332.94 214.10 329.41 210.34 328.86 C 211.40 321.31 202.78 328.32 199.50 329.93 C 196.30 332.75 195.18 328.23 193.82 326.04 C 189.58 327.22 191.04 332.72 188.67 335.68 C 185.29 339.08 182.93 334.56 180.15 333.00 C 178.42 335.22 182.60 338.27 179.87 340.95 C 176.95 338.58 173.33 339.78 169.92 339.70 C 164.72 342.77 164.62 334.77 160.24 336.05 C 158.43 337.61 161.08 340.56 158.75 341.79 C 156.43 341.58 152.68 342.54 152.56 339.17 C 149.99 340.61 146.69 340.76 144.36 342.42 C 146.10 343.96 148.30 346.74 145.18 348.19 C 141.91 352.41 138.55 346.14 135.11 345.13 C 132.72 346.79 132.94 348.98 134.90 350.89 C 130.67 349.41 127.12 352.88 123.16 353.83 C 119.86 350.73 114.70 350.70 112.04 346.92 C 110.94 345.73 107.63 343.49 107.55 346.47 C 109.48 354.36 105.06 350.56 103.32 348.67 C 99.47 345.56 99.43 337.13 92.24 340.07 C 90.76 342.22 91.41 344.74 91.81 347.10 C 88.81 347.50 86.27 344.01 83.55 346.40 C 81.20 348.66 81.50 343.42 82.72 342.77 C 85.37 342.58 89.18 340.50 84.93 339.04 C 77.70 334.85 74.62 341.00 71.18 345.21 C 74.21 339.37 67.69 338.45 63.83 336.08 C 51.15 333.72 66.35 339.20 59.74 341.83 C 52.49 339.25 46.21 342.54 38.87 341.56 C 32.87 339.81 25.20 342.57 20.54 337.35 C 17.17 335.97 19.87 343.09 16.16 342.80 C 13.92 341.21 12.79 338.11 10.62 336.22 C 6.41 334.75 3.95 340.86 0.00 338.18 L 0.00 303.47 C 1.82 307.68 6.41 307.79 11.24 308.71 C 10.51 306.43 9.22 304.34 8.89 301.95 C 10.80 301.82 12.86 302.31 13.76 304.18 C 15.46 308.00 20.17 306.39 23.51 307.36 C 24.30 311.09 27.37 313.22 30.92 314.06 C 36.10 307.77 43.68 312.23 50.91 311.71 C 56.09 307.05 63.59 311.66 69.45 308.23 C 72.16 307.06 78.25 306.71 76.24 311.17 C 82.74 305.50 92.48 306.00 100.41 307.41 C 105.53 303.15 112.86 311.15 115.71 304.66 C 119.21 301.98 121.25 303.85 121.50 307.86 C 127.35 308.72 133.41 304.63 138.85 307.93 C 138.40 298.62 148.27 311.63 152.39 307.41 C 153.44 304.10 159.50 308.78 157.43 304.73 C 161.96 302.23 172.00 309.64 175.80 304.47 C 181.08 309.86 186.46 303.65 191.88 301.92 C 191.73 303.74 190.53 307.51 193.74 306.97 C 194.64 305.45 195.26 303.78 196.19 302.28 C 201.30 303.49 206.57 301.87 210.17 298.07 C 214.63 300.58 220.90 300.38 223.64 295.48 C 228.64 292.07 220.87 303.83 229.78 297.94 C 232.73 295.26 235.75 292.02 239.95 291.56 C 240.87 282.02 262.11 290.89 261.44 278.42 C 266.10 277.24 269.59 274.18 270.31 269.32 C 273.35 266.87 279.59 270.81 281.78 265.70 C 283.66 261.75 278.96 261.03 276.64 259.23 C 279.71 258.37 282.92 258.37 286.05 258.73 C 285.66 255.97 284.69 253.34 284.16 250.62 C 288.54 249.51 295.91 248.47 293.44 242.34 C 301.18 235.98 297.51 225.06 301.73 216.91 C 299.58 205.57 304.98 194.65 309.92 184.73 C 311.98 181.70 314.01 178.61 316.73 176.12 C 320.17 172.78 319.37 167.25 322.88 163.89 C 326.30 160.06 328.31 155.14 328.16 149.98 C 327.78 148.45 326.80 147.21 325.89 145.98 Z" />
</g>
<g id="#3b4823fe">
<path fill="#3b4823" opacity="1.00" d=" M 302.97 175.40 C 309.19 166.68 312.90 156.02 317.94 146.45 C 320.14 153.48 313.46 159.60 313.91 167.03 L 313.82 167.86 C 311.17 171.66 310.72 178.72 304.92 178.33 C 304.27 177.35 303.63 176.37 302.97 175.40 Z" />
</g>
<g id="#01010066">
<path fill="#010100" opacity="0.40" d=" M 126.21 149.24 C 126.40 148.92 126.78 148.28 126.97 147.95 C 130.28 155.58 123.07 160.38 123.94 167.99 C 123.89 168.79 123.80 170.39 123.75 171.20 L 123.18 170.65 C 123.11 169.45 123.04 168.24 122.96 167.04 C 122.92 166.58 122.83 165.66 122.79 165.20 C 108.00 160.65 91.83 161.36 77.23 156.63 C 73.28 159.33 64.35 156.17 69.26 151.20 C 86.85 149.73 104.46 150.41 122.04 151.85 C 123.89 152.23 125.51 150.85 126.21 149.24 Z" />
</g>
<g id="#8b9358ff">
<path fill="#8b9358" opacity="1.00" d=" M 296.31 147.99 C 299.73 146.96 299.74 150.90 300.25 153.18 C 297.52 158.13 295.41 163.50 291.15 167.44 C 289.49 165.03 286.70 162.82 288.21 159.32 C 290.37 154.70 298.88 155.29 296.31 147.99 Z" />
</g>
<g id="#8f9b56f9">
<path fill="#8f9b56" opacity="0.98" d=" M 320.58 157.66 C 320.67 152.46 322.17 145.30 328.16 149.98 C 328.31 155.14 326.30 160.06 322.88 163.89 C 319.37 167.25 320.17 172.78 316.73 176.12 C 312.68 175.34 314.85 170.70 313.82 167.86 L 313.91 167.03 C 315.75 163.57 320.21 161.89 320.58 157.66 Z" />
</g>
<g id="#78783fff">
<path fill="#78783f" opacity="1.00" d=" M 274.24 160.91 C 271.04 157.76 270.85 146.95 277.10 149.86 C 278.95 151.97 281.94 153.57 282.09 156.68 C 278.47 156.36 277.52 161.42 274.24 160.91 Z" />
</g>
<g id="#4c4f28fc">
<path fill="#4c4f28" opacity="1.00" d=" M 128.07 160.01 C 132.41 161.64 134.22 168.37 139.66 166.64 C 147.06 164.87 153.13 169.44 159.10 173.03 C 158.52 171.25 157.77 169.53 157.16 167.77 C 160.04 168.22 165.77 170.38 164.01 174.01 C 162.05 176.82 167.86 177.56 165.86 180.75 C 161.17 185.20 157.40 177.21 152.48 177.54 C 149.45 181.21 144.56 183.12 142.62 187.66 C 139.32 187.02 136.26 185.61 132.99 184.91 C 132.02 187.91 134.64 188.74 136.94 189.50 C 136.34 191.92 132.72 193.68 134.57 196.37 C 135.64 199.61 140.75 200.04 140.11 204.01 C 137.24 204.95 138.84 200.17 136.19 201.18 C 135.08 203.93 134.22 206.85 134.04 209.82 C 137.59 212.13 143.44 208.75 145.89 213.10 C 146.21 215.64 149.22 224.51 150.38 218.33 C 154.43 219.82 158.76 214.56 161.83 217.24 C 163.98 221.53 156.96 218.40 158.00 222.03 C 156.94 228.66 163.11 232.71 166.96 237.03 C 168.53 238.75 170.79 238.51 172.88 238.34 C 173.87 245.38 186.67 244.02 184.20 251.82 C 184.03 259.48 177.26 248.61 173.13 247.89 C 172.45 246.78 171.79 245.67 171.04 244.62 C 167.12 239.24 160.79 243.08 155.95 240.06 C 150.98 238.34 154.39 247.70 155.92 249.07 C 159.00 254.94 165.78 257.57 168.38 263.87 C 173.65 265.01 178.51 263.07 182.91 260.49 C 186.49 260.36 187.37 263.92 185.20 266.30 C 187.32 265.78 189.18 264.64 191.02 263.53 C 195.39 261.73 200.69 259.55 204.21 263.95 C 203.30 265.18 202.42 266.42 201.53 267.67 C 201.15 267.87 200.38 268.26 200.00 268.45 C 198.99 267.93 197.99 267.40 197.00 266.86 C 194.79 265.21 191.32 264.30 189.95 267.07 C 185.01 266.94 180.03 266.98 175.20 265.89 C 166.81 265.62 158.08 262.64 154.86 254.11 C 154.21 252.04 153.68 249.94 153.07 247.87 C 153.06 247.16 153.03 245.75 153.01 245.04 C 153.02 244.53 153.02 243.52 153.02 243.02 C 153.01 242.27 152.98 240.77 152.97 240.02 C 147.11 233.37 136.48 227.92 136.42 216.96 C 136.26 214.93 134.86 213.70 133.17 212.82 C 129.38 207.71 127.11 201.70 125.84 195.49 C 125.53 189.78 129.29 185.47 132.11 180.96 C 129.37 177.66 126.01 174.88 123.75 171.20 C 123.80 170.39 123.89 168.79 123.94 167.99 C 126.44 169.65 130.84 171.51 130.95 166.87 C 132.91 163.14 125.15 163.08 128.07 160.01 Z" />
</g>
<g id="#95a261ff">
<path fill="#95a261" opacity="1.00" d=" M 184.74 162.08 C 187.26 159.95 188.08 161.14 187.20 165.65 C 190.47 165.39 193.76 165.39 196.96 166.20 C 196.61 170.87 194.99 175.38 195.42 180.13 C 196.60 179.42 197.71 178.61 198.87 177.85 C 201.53 181.05 197.72 181.54 195.26 182.49 C 194.20 185.13 195.41 188.42 193.87 190.91 C 190.18 190.37 194.03 179.27 189.44 183.45 C 186.16 185.02 185.16 178.84 182.12 179.88 C 180.93 179.65 179.75 179.38 178.57 179.07 C 181.03 176.39 180.17 169.61 185.11 171.76 C 184.35 169.31 183.27 166.94 182.81 164.42 C 185.00 165.17 185.35 164.05 184.74 162.08 Z" />
</g>
<g id="#191d0c7f">
<path fill="#191d0c" opacity="0.50" d=" M 234.09 160.98 C 238.47 161.11 242.89 160.86 247.22 161.82 C 242.86 161.71 238.10 162.75 234.09 160.98 Z" />
</g>
<g id="#667b40ff">
<path fill="#667b40" opacity="1.00" d=" M 223.36 169.40 C 223.73 166.00 228.80 162.02 230.79 166.18 C 231.18 170.81 234.46 161.04 235.85 164.96 C 235.58 168.29 238.44 165.15 240.02 164.89 C 238.67 166.53 238.02 168.52 237.87 170.63 C 236.44 174.47 235.94 171.36 234.81 169.18 C 231.00 170.96 224.97 166.99 223.26 172.24 C 218.99 173.58 223.66 176.47 221.90 179.06 C 217.71 177.48 219.78 173.18 220.13 169.90 C 219.12 171.32 218.13 172.76 216.89 174.00 C 217.11 171.97 217.36 169.92 218.16 168.02 C 220.36 167.55 222.17 173.19 223.36 169.40 Z" />
</g>
<g id="#829446ff">
<path fill="#829446" opacity="1.00" d=" M 240.02 164.89 C 245.43 163.15 248.00 169.20 253.10 166.71 C 257.12 170.12 259.70 175.94 255.25 180.11 C 252.61 176.29 256.55 169.68 249.73 169.32 C 246.61 172.02 242.51 171.07 237.87 170.63 C 238.02 168.52 238.67 166.53 240.02 164.89 Z" />
</g>
<g id="#555b31ff">
<path fill="#555b31" opacity="1.00" d=" M 296.85 176.22 C 293.74 172.43 296.09 165.66 301.13 165.07 C 300.79 168.36 298.06 175.23 302.97 175.40 C 303.63 176.37 304.27 177.35 304.92 178.33 C 308.11 183.34 299.17 180.03 296.38 180.54 C 293.55 178.28 291.00 178.29 289.16 181.77 C 288.14 179.89 287.28 177.93 286.47 175.96 C 284.33 178.66 285.59 182.03 286.25 185.02 C 288.64 185.02 293.80 179.73 293.32 184.34 C 291.56 187.64 296.39 192.39 298.74 188.70 C 300.56 187.26 298.14 182.04 301.28 184.74 C 303.54 189.04 295.92 193.49 299.56 197.46 C 300.46 198.54 298.39 199.17 297.95 200.00 C 292.68 199.30 292.57 193.91 293.96 189.90 C 291.52 189.53 290.73 192.15 288.89 192.95 C 286.42 193.31 286.69 189.87 284.96 188.88 C 282.68 190.73 280.69 194.03 277.72 191.20 C 279.09 194.40 282.06 197.61 285.63 198.33 C 284.03 204.44 284.16 210.25 288.34 215.14 C 284.96 215.14 281.59 215.52 280.08 219.07 C 281.00 221.77 282.19 224.37 283.00 227.12 C 278.30 227.60 276.16 223.13 275.72 219.22 C 276.56 216.62 277.93 213.62 275.42 211.47 C 273.35 208.73 270.30 206.21 267.14 205.16 C 266.02 207.38 266.22 209.99 265.51 212.34 C 266.38 207.65 262.80 202.95 258.17 202.69 C 260.40 200.08 255.08 196.62 259.44 195.46 C 261.76 198.07 265.13 195.66 267.66 194.68 C 267.55 192.45 266.37 189.97 268.00 188.01 C 269.72 189.57 274.04 193.02 273.63 188.33 C 275.19 183.25 269.82 182.74 267.00 180.11 C 267.19 176.88 266.01 173.90 264.97 170.92 C 268.98 170.65 271.98 174.13 275.97 174.09 C 276.21 172.12 274.68 169.73 276.19 168.10 C 278.16 168.39 279.73 170.30 281.84 169.67 C 288.12 167.80 290.27 177.57 296.85 176.22 M 273.26 175.19 C 267.70 179.15 276.28 185.19 280.93 184.10 C 278.97 180.84 278.50 173.58 273.26 175.19 Z" />
</g>
<g id="#6a7c3cff">
<path fill="#6a7c3c" opacity="1.00" d=" M 211.26 170.28 C 212.87 167.85 208.75 162.39 216.04 166.04 C 215.65 170.99 209.79 176.95 214.75 181.15 C 215.11 178.59 214.63 175.67 216.89 174.00 C 216.52 176.32 216.20 178.65 216.02 181.00 C 218.40 178.93 221.30 179.82 223.92 180.90 C 223.18 182.51 222.27 187.27 219.86 185.15 C 216.84 181.11 212.64 185.58 214.85 190.10 C 212.26 189.37 208.11 189.38 207.34 186.22 C 209.74 181.19 208.39 175.17 211.26 170.28 Z" />
</g>
<g id="#717538fa">
<path fill="#717538" opacity="0.98" d=" M 304.92 178.33 C 310.72 178.72 311.17 171.66 313.82 167.86 C 314.85 170.70 312.68 175.34 316.73 176.12 C 314.01 178.61 311.98 181.70 309.92 184.73 C 306.61 185.81 305.38 189.16 303.82 191.93 C 302.58 192.95 302.57 194.63 303.09 196.04 C 302.05 198.01 301.12 200.03 300.28 202.09 C 300.00 200.83 299.23 200.13 297.95 200.00 C 298.39 199.17 300.46 198.54 299.56 197.46 C 295.92 193.49 303.54 189.04 301.28 184.74 C 298.14 182.04 300.56 187.26 298.74 188.70 C 296.39 192.39 291.56 187.64 293.32 184.34 C 293.80 179.73 288.64 185.02 286.25 185.02 C 285.59 182.03 284.33 178.66 286.47 175.96 C 287.28 177.93 288.14 179.89 289.16 181.77 C 291.00 178.29 293.55 178.28 296.38 180.54 C 299.17 180.03 308.11 183.34 304.92 178.33 Z" />
</g>
<g id="#818849ff">
<path fill="#818849" opacity="1.00" d=" M 198.87 177.85 C 195.38 173.94 200.02 171.45 202.82 168.84 C 203.53 173.61 204.16 178.40 204.10 183.24 C 206.35 177.73 208.20 178.00 207.34 186.22 C 208.11 189.38 212.26 189.37 214.85 190.10 C 217.16 191.10 219.42 192.18 221.73 193.20 C 221.83 196.27 225.19 194.70 224.04 192.30 C 224.37 192.73 225.02 193.59 225.34 194.01 C 224.99 194.55 224.30 195.63 223.95 196.17 C 219.05 195.19 214.41 195.60 209.35 196.95 C 210.31 191.40 202.46 196.41 205.68 199.30 C 208.09 203.05 213.14 196.20 215.63 200.42 C 219.06 201.80 211.50 208.85 216.36 207.50 C 218.82 208.01 222.09 204.86 217.95 204.94 C 213.12 204.98 220.38 201.73 222.06 203.90 C 223.00 206.83 220.33 212.05 224.75 212.46 C 224.80 213.06 224.91 214.27 224.97 214.87 C 221.03 223.74 213.38 208.13 211.10 217.08 C 205.20 214.71 202.33 223.17 197.27 226.35 C 196.83 230.25 196.15 233.36 192.15 235.25 C 193.01 238.26 198.32 242.05 194.25 245.23 C 190.01 247.44 189.70 253.23 195.11 253.11 C 194.11 251.83 191.96 248.21 194.71 248.30 C 198.88 248.64 197.04 256.02 194.49 257.12 C 192.00 253.86 187.81 253.18 184.20 251.82 C 186.67 244.02 173.87 245.38 172.88 238.34 C 176.05 235.85 177.54 230.12 173.50 227.69 C 171.56 224.06 167.63 224.38 168.94 229.08 C 167.90 228.79 166.88 228.45 165.88 228.07 C 165.77 224.96 165.94 221.71 168.02 219.26 C 170.97 220.47 174.76 221.65 177.63 219.80 C 177.64 217.49 177.69 215.18 177.85 212.87 C 175.92 217.47 169.66 218.37 167.45 213.47 C 163.77 207.60 174.17 209.07 171.42 203.83 C 173.78 204.67 176.14 205.98 178.72 205.07 C 177.01 202.10 176.89 198.43 179.65 196.30 C 174.12 193.00 181.73 193.65 179.16 189.16 C 180.04 188.80 180.93 188.44 181.82 188.07 C 181.82 191.49 185.67 192.46 187.00 195.08 C 186.06 197.66 183.07 201.64 187.53 202.59 C 191.27 204.32 185.60 204.85 183.90 204.33 C 180.29 203.19 181.69 209.18 180.29 211.29 C 186.69 209.27 193.52 203.74 200.27 206.79 C 198.80 201.27 191.50 200.48 189.76 195.22 C 190.46 191.40 184.90 183.69 181.82 188.07 C 181.07 185.29 182.22 182.63 182.12 179.88 C 185.16 178.84 186.16 185.02 189.44 183.45 C 194.03 179.27 190.18 190.37 193.87 190.91 C 195.41 188.42 194.20 185.13 195.26 182.49 C 197.72 181.54 201.53 181.05 198.87 177.85 M 190.22 239.14 C 187.74 240.91 189.04 244.72 191.81 241.85 C 195.92 242.16 193.78 237.20 190.22 239.14 Z" />
</g>
<g id="#80914eff">
<path fill="#80914e" opacity="1.00" d=" M 223.26 172.24 C 224.97 166.99 231.00 170.96 234.81 169.18 C 235.94 171.36 236.44 174.47 237.87 170.63 C 237.73 175.18 235.88 181.59 240.87 184.32 C 240.28 186.05 239.27 187.51 237.21 186.97 C 236.05 184.68 237.18 181.70 234.60 180.00 C 233.22 181.56 232.35 183.48 231.04 185.09 C 227.88 183.12 224.70 180.76 224.25 176.77 C 224.16 178.15 224.05 179.52 223.92 180.90 C 221.30 179.82 218.40 178.93 216.02 181.00 C 216.20 178.65 216.52 176.32 216.89 174.00 C 218.13 172.76 219.12 171.32 220.13 169.90 C 219.78 173.18 217.71 177.48 221.90 179.06 C 223.66 176.47 218.99 173.58 223.26 172.24 Z" />
</g>
<g id="#a1b16cff">
<path fill="#a1b16c" opacity="1.00" d=" M 237.87 170.63 C 242.51 171.07 246.61 172.02 249.73 169.32 C 256.55 169.68 252.61 176.29 255.25 180.11 C 253.63 180.78 250.69 183.55 250.88 180.02 C 249.38 176.10 247.04 184.05 245.42 180.63 C 243.22 176.62 241.24 182.12 240.87 184.32 C 235.88 181.59 237.73 175.18 237.87 170.63 Z" />
</g>
<g id="#79813bfe">
<path fill="#79813b" opacity="1.00" d=" M 260.28 176.41 C 260.78 174.25 258.87 170.76 261.87 169.99 C 263.89 172.24 264.24 175.20 263.17 177.96 C 261.87 179.45 260.41 180.79 258.90 182.05 L 258.00 182.51 C 256.95 180.16 260.39 178.79 260.28 176.41 Z" />
</g>
<g id="#80764fff">
<path fill="#80764f" opacity="1.00" d=" M 273.26 175.19 C 278.50 173.58 278.97 180.84 280.93 184.10 C 276.28 185.19 267.70 179.15 273.26 175.19 Z" />
</g>
<g id="#5b6a26fe">
<path fill="#5b6a26" opacity="1.00" d=" M 224.25 176.77 C 224.70 180.76 227.88 183.12 231.04 185.09 C 232.35 183.48 233.22 181.56 234.60 180.00 C 237.18 181.70 236.05 184.68 237.21 186.97 C 239.27 187.51 240.28 186.05 240.87 184.32 C 243.86 183.87 246.84 183.23 249.85 182.89 C 249.55 184.56 246.74 187.61 250.09 187.34 C 248.84 188.05 247.59 188.77 246.26 189.31 C 241.89 189.12 237.54 188.94 233.20 188.52 C 229.38 187.29 228.70 192.71 225.34 194.01 C 225.02 193.59 224.37 192.73 224.04 192.30 C 223.46 192.53 222.30 192.98 221.73 193.20 C 219.42 192.18 217.16 191.10 214.85 190.10 C 212.64 185.58 216.84 181.11 219.86 185.15 C 222.27 187.27 223.18 182.51 223.92 180.90 C 224.05 179.52 224.16 178.15 224.25 176.77 Z" />
</g>
<g id="#343d1afd">
<path fill="#343d1a" opacity="1.00" d=" M 263.17 177.96 C 264.97 176.74 265.78 179.20 267.00 180.11 C 269.82 182.74 275.19 183.25 273.63 188.33 C 274.04 193.02 269.72 189.57 268.00 188.01 C 266.37 189.97 267.55 192.45 267.66 194.68 C 265.13 195.66 261.76 198.07 259.44 195.46 C 255.08 196.62 260.40 200.08 258.17 202.69 C 251.89 203.75 251.92 212.92 257.98 214.20 C 259.37 218.47 259.75 222.98 259.29 227.46 C 254.44 230.85 251.61 236.62 245.29 237.60 C 244.75 236.19 244.29 234.76 243.75 233.36 C 244.65 230.02 250.17 232.68 250.13 229.16 C 246.11 229.55 241.59 230.30 237.87 228.10 C 241.16 227.59 244.50 227.33 247.78 226.69 C 249.56 223.34 246.48 219.26 243.65 217.41 C 242.78 211.10 234.92 212.54 230.85 215.02 C 232.61 211.33 234.11 204.23 228.24 204.05 C 223.20 207.92 229.22 213.24 225.01 216.96 C 225.00 216.44 224.98 215.39 224.97 214.87 C 224.91 214.27 224.80 213.06 224.75 212.46 C 220.33 212.05 223.00 206.83 222.06 203.90 C 222.07 201.13 222.05 198.32 223.95 196.17 C 224.30 195.63 224.99 194.55 225.34 194.01 C 228.70 192.71 229.38 187.29 233.20 188.52 C 232.86 188.84 232.17 189.49 231.83 189.82 C 231.57 192.24 228.00 205.65 233.85 201.87 C 236.64 201.80 239.43 201.76 242.23 201.77 C 245.21 202.56 247.96 204.03 250.89 205.00 C 253.54 197.34 256.06 189.64 258.90 182.05 C 260.41 180.79 261.87 179.45 263.17 177.96 Z" />
</g>
<g id="#7a873bfc">
<path fill="#7a873b" opacity="1.00" d=" M 240.87 184.32 C 241.24 182.12 243.22 176.62 245.42 180.63 C 247.04 184.05 249.38 176.10 250.88 180.02 C 250.69 183.55 253.63 180.78 255.25 180.11 C 254.72 181.72 254.30 183.37 253.93 185.04 C 252.69 185.87 251.38 186.60 250.09 187.34 C 246.74 187.61 249.55 184.56 249.85 182.89 C 246.84 183.23 243.86 183.87 240.87 184.32 Z" />
</g>
<g id="#73804cff">
<path fill="#73804c" opacity="1.00" d=" M 171.04 184.23 C 174.26 179.62 181.37 184.38 179.16 189.16 C 174.06 191.69 169.36 191.42 171.04 184.23 Z" />
</g>
<g id="#02020126">
<path fill="#020201" opacity="0.15" d=" M 258.00 182.51 L 258.90 182.05 C 256.06 189.64 253.54 197.34 250.89 205.00 C 247.96 204.03 245.21 202.56 242.23 201.77 C 239.44 201.09 236.44 200.32 233.85 201.87 C 228.00 205.65 231.57 192.24 231.83 189.82 C 236.56 189.41 241.69 191.10 246.26 189.31 C 247.59 188.77 248.84 188.05 250.09 187.34 C 251.38 186.60 252.69 185.87 253.93 185.04 C 255.28 184.18 256.62 183.32 258.00 182.51 Z" />
</g>
<g id="#00000013">
<path fill="#000000" opacity="0.07" d=" M 303.82 191.93 C 305.38 189.16 306.61 185.81 309.92 184.73 C 304.98 194.65 299.58 205.57 301.73 216.91 C 297.51 225.06 301.18 235.98 293.44 242.34 C 295.91 248.47 288.54 249.51 284.16 250.62 C 284.69 253.34 285.66 255.97 286.05 258.73 C 282.92 258.37 279.71 258.37 276.64 259.23 C 278.96 261.03 283.66 261.75 281.78 265.70 C 279.59 270.81 273.35 266.87 270.31 269.32 C 269.59 274.18 266.10 277.24 261.44 278.42 C 262.11 290.89 240.87 282.02 239.95 291.56 C 235.75 292.02 232.73 295.26 229.78 297.94 C 220.87 303.83 228.64 292.07 223.64 295.48 C 220.90 300.38 214.63 300.58 210.17 298.07 C 206.57 301.87 201.30 303.49 196.19 302.28 C 195.26 303.78 194.64 305.45 193.74 306.97 C 190.53 307.51 191.73 303.74 191.88 301.92 C 186.46 303.65 181.08 309.86 175.80 304.47 C 172.00 309.64 161.96 302.23 157.43 304.73 C 159.50 308.78 153.44 304.10 152.39 307.41 C 148.27 311.63 138.40 298.62 138.85 307.93 C 133.41 304.63 127.35 308.72 121.50 307.86 C 121.25 303.85 119.21 301.98 115.71 304.66 C 112.86 311.15 105.53 303.15 100.41 307.41 C 92.48 306.00 82.74 305.50 76.24 311.17 C 78.25 306.71 72.16 307.06 69.45 308.23 C 63.59 311.66 56.09 307.05 50.91 311.71 C 43.68 312.23 36.10 307.77 30.92 314.06 C 27.37 313.22 24.30 311.09 23.51 307.36 C 20.17 306.39 15.46 308.00 13.76 304.18 C 12.86 302.31 10.80 301.82 8.89 301.95 C 9.22 304.34 10.51 306.43 11.24 308.71 C 6.41 307.79 1.82 307.68 0.00 303.47 L 0.00 252.92 C 2.49 254.73 7.55 258.15 8.14 253.05 C 11.84 249.14 12.94 255.57 11.18 258.77 C 14.80 263.64 19.06 257.43 22.92 260.63 C 27.36 258.76 25.28 263.01 25.14 265.74 C 27.91 267.52 29.47 267.31 28.16 263.77 C 31.54 267.15 34.94 271.44 40.07 272.15 C 39.62 270.51 36.86 268.36 39.18 267.09 C 43.96 267.95 48.18 275.13 53.19 271.22 C 56.37 270.01 55.34 275.09 57.14 276.43 C 62.39 275.91 66.37 280.40 71.75 280.40 C 79.75 281.42 87.63 277.69 95.64 279.81 C 94.77 276.00 95.87 274.40 98.94 275.00 C 98.99 277.14 97.03 280.12 99.89 281.13 C 101.38 278.55 100.46 273.29 106.04 275.99 C 110.40 277.27 113.63 272.19 117.60 275.28 C 123.62 279.41 121.45 274.90 121.40 272.64 C 123.33 273.71 124.61 275.54 126.18 277.04 C 129.97 277.23 133.68 271.47 136.10 277.00 C 142.89 272.79 149.84 278.92 156.94 277.30 C 159.50 277.19 160.67 279.88 162.17 281.50 C 168.82 278.21 174.07 287.13 180.62 285.63 C 187.23 286.68 191.45 277.71 198.07 282.72 C 202.45 279.15 208.91 278.45 212.17 274.36 C 216.40 276.27 217.92 270.46 221.86 271.25 C 228.15 272.45 230.62 265.04 236.42 264.60 C 239.43 264.97 242.87 265.64 241.48 262.12 C 253.07 260.83 261.42 250.70 273.26 250.61 C 274.26 250.25 275.20 249.78 276.08 249.17 C 284.78 247.17 290.17 240.63 295.45 233.95 C 296.99 231.66 296.88 229.65 295.13 227.93 C 295.35 224.92 296.37 222.07 297.12 219.17 C 298.41 213.53 298.13 207.52 300.28 202.09 C 301.12 200.03 302.05 198.01 303.09 196.04 C 304.49 195.11 304.42 193.31 303.82 191.93 Z" />
</g>
<g id="#9fae69ff">
<path fill="#9fae69" opacity="1.00" d=" M 181.82 188.07 C 184.90 183.69 190.46 191.40 189.76 195.22 C 191.50 200.48 198.80 201.27 200.27 206.79 C 193.52 203.74 186.69 209.27 180.29 211.29 C 181.69 209.18 180.29 203.19 183.90 204.33 C 185.60 204.85 191.27 204.32 187.53 202.59 C 183.07 201.64 186.06 197.66 187.00 195.08 C 185.67 192.46 181.82 191.49 181.82 188.07 Z" />
</g>
<g id="#2a3011ab">
<path fill="#2a3011" opacity="0.67" d=" M 231.83 189.82 C 232.17 189.49 232.86 188.84 233.20 188.52 C 237.54 188.94 241.89 189.12 246.26 189.31 C 241.69 191.10 236.56 189.41 231.83 189.82 Z" />
</g>
<g id="#818346fc">
<path fill="#818346" opacity="1.00" d=" M 277.72 191.20 C 280.69 194.03 282.68 190.73 284.96 188.88 C 286.69 189.87 286.42 193.31 288.89 192.95 C 290.73 192.15 291.52 189.53 293.96 189.90 C 292.57 193.91 292.68 199.30 297.95 200.00 C 299.23 200.13 300.00 200.83 300.28 202.09 C 298.13 207.52 298.41 213.53 297.12 219.17 C 300.49 208.79 291.89 211.93 288.34 215.14 C 284.16 210.25 284.03 204.44 285.63 198.33 C 282.06 197.61 279.09 194.40 277.72 191.20 M 287.22 203.12 C 284.16 204.66 288.02 209.28 290.37 207.45 C 294.24 206.64 289.72 201.70 287.22 203.12 Z" />
</g>
<g id="#d2c6b2ff">
<path fill="#d2c6b2" opacity="1.00" d=" M 221.73 193.20 C 222.30 192.98 223.46 192.53 224.04 192.30 C 225.19 194.70 221.83 196.27 221.73 193.20 Z" />
</g>
<g id="#382e148b">
<path fill="#382e14" opacity="0.55" d=" M 303.09 196.04 C 302.57 194.63 302.58 192.95 303.82 191.93 C 304.42 193.31 304.49 195.11 303.09 196.04 Z" />
</g>
<g id="#666228ff">
<path fill="#666228" opacity="1.00" d=" M 205.68 199.30 C 202.46 196.41 210.31 191.40 209.35 196.95 C 214.41 195.60 219.05 195.19 223.95 196.17 C 222.05 198.32 222.07 201.13 222.06 203.90 C 220.38 201.73 213.12 204.98 217.95 204.94 C 222.09 204.86 218.82 208.01 216.36 207.50 C 211.50 208.85 219.06 201.80 215.63 200.42 C 213.14 196.20 208.09 203.05 205.68 199.30 Z" />
</g>
<g id="#00000048">
<path fill="#000000" opacity="0.28" d=" M 0.00 195.79 C 18.08 200.48 36.10 206.52 55.01 207.95 C 76.69 210.21 98.48 214.74 120.30 212.30 C 128.82 211.22 124.14 201.34 125.84 195.49 C 127.11 201.70 129.38 207.71 133.17 212.82 C 131.05 214.96 128.60 217.51 125.00 215.98 C 92.85 216.67 60.92 210.05 28.86 212.07 C 39.75 219.72 53.86 220.55 66.33 224.68 C 95.69 229.64 122.49 247.05 153.01 245.04 C 153.03 245.75 153.06 247.16 153.07 247.87 C 132.75 247.51 113.00 241.95 94.01 235.11 C 63.16 226.51 31.31 222.34 0.00 215.81 L 0.00 195.79 Z" />
</g>
<g id="#0f130988">
<path fill="#0f1309" opacity="0.53" d=" M 233.85 201.87 C 236.44 200.32 239.44 201.09 242.23 201.77 C 239.43 201.76 236.64 201.80 233.85 201.87 Z" />
</g>
<g id="#5c4e2fff">
<path fill="#5c4e2f" opacity="1.00" d=" M 257.98 214.20 C 251.92 212.92 251.89 203.75 258.17 202.69 C 258.02 206.68 255.55 210.38 257.98 214.20 Z" />
</g>
<g id="#727947ff">
<path fill="#727947" opacity="1.00" d=" M 258.17 202.69 C 262.80 202.95 266.38 207.65 265.51 212.34 C 266.22 209.99 266.02 207.38 267.14 205.16 C 270.30 206.21 273.35 208.73 275.42 211.47 C 272.47 210.54 269.45 212.02 269.72 215.38 C 266.18 215.13 267.97 220.84 271.24 218.37 C 267.53 222.90 264.45 228.51 263.59 234.33 C 261.86 233.51 260.14 232.22 259.81 230.20 C 265.23 232.41 264.07 224.01 259.29 227.46 C 259.75 222.98 259.37 218.47 257.98 214.20 C 255.55 210.38 258.02 206.68 258.17 202.69 Z" />
</g>
<g id="#baa789ff">
<path fill="#baa789" opacity="1.00" d=" M 287.22 203.12 C 289.72 201.70 294.24 206.64 290.37 207.45 C 288.02 209.28 284.16 204.66 287.22 203.12 Z" />
</g>
<g id="#1b1e08ff">
<path fill="#1b1e08" opacity="1.00" d=" M 228.24 204.05 C 234.11 204.23 232.61 211.33 230.85 215.02 C 228.74 218.98 232.88 224.69 228.14 227.17 C 226.57 225.95 225.07 224.65 223.58 223.34 C 223.93 221.75 224.65 218.56 225.01 216.96 C 229.22 213.24 223.20 207.92 228.24 204.05 Z" />
</g>
<g id="#00000057">
<path fill="#000000" opacity="0.34" d=" M 28.86 212.07 C 60.92 210.05 92.85 216.67 125.00 215.98 C 128.60 217.51 131.05 214.96 133.17 212.82 C 134.86 213.70 136.26 214.93 136.42 216.96 C 120.34 219.32 104.17 218.93 88.02 218.22 C 85.87 218.07 79.52 217.66 81.10 221.74 C 93.66 229.18 107.81 233.20 121.31 238.58 C 131.25 243.00 142.33 243.21 153.02 243.02 C 153.02 243.52 153.02 244.53 153.01 245.04 C 122.49 247.05 95.69 229.64 66.33 224.68 C 53.86 220.55 39.75 219.72 28.86 212.07 Z" />
</g>
<g id="#879355fe">
<path fill="#879355" opacity="1.00" d=" M 269.72 215.38 C 269.45 212.02 272.47 210.54 275.42 211.47 C 277.93 213.62 276.56 216.62 275.72 219.22 C 276.16 223.13 278.30 227.60 283.00 227.12 C 282.19 224.37 281.00 221.77 280.08 219.07 C 281.59 215.52 284.96 215.14 288.34 215.14 C 291.89 211.93 300.49 208.79 297.12 219.17 C 296.37 222.07 295.35 224.92 295.13 227.93 C 294.74 229.75 294.67 231.63 294.93 233.49 C 291.01 234.87 290.07 228.43 285.33 231.71 C 284.76 227.19 285.03 228.42 282.82 230.90 C 279.36 227.18 273.01 228.98 268.84 231.50 C 267.07 232.40 265.78 236.18 263.59 234.33 C 264.45 228.51 267.53 222.90 271.24 218.37 C 267.97 220.84 266.18 215.13 269.72 215.38 Z" />
</g>
<g id="#535525ff">
<path fill="#535525" opacity="1.00" d=" M 211.10 217.08 C 213.38 208.13 221.03 223.74 224.97 214.87 C 224.98 215.39 225.00 216.44 225.01 216.96 C 224.65 218.56 223.93 221.75 223.58 223.34 C 221.54 222.15 220.68 219.20 218.17 218.99 C 216.60 222.63 215.05 226.22 210.53 226.54 C 208.85 230.41 206.96 234.46 207.62 238.78 C 206.13 241.50 203.00 239.50 202.65 237.03 C 200.44 232.60 200.81 225.37 205.99 223.47 C 209.93 223.72 211.27 220.46 211.10 217.08 Z" />
</g>
<g id="#4e6032ff">
<path fill="#4e6032" opacity="1.00" d=" M 230.85 215.02 C 234.92 212.54 242.78 211.10 243.65 217.41 C 246.48 219.26 249.56 223.34 247.78 226.69 C 244.50 227.33 241.16 227.59 237.87 228.10 C 236.13 227.43 232.84 221.78 233.01 225.91 C 233.52 228.60 229.65 227.69 228.14 227.17 C 232.88 224.69 228.74 218.98 230.85 215.02 Z" />
</g>
<g id="#00000036">
<path fill="#000000" opacity="0.21" d=" M 0.00 215.81 C 31.31 222.34 63.16 226.51 94.01 235.11 C 113.00 241.95 132.75 247.51 153.07 247.87 C 153.68 249.94 154.21 252.04 154.86 254.11 C 146.10 249.50 136.01 249.66 126.57 247.47 C 112.08 245.70 98.72 239.63 84.57 236.50 C 56.77 229.63 28.17 226.83 0.00 222.00 L 0.00 215.81 Z" />
</g>
<g id="#687432fd">
<path fill="#687432" opacity="1.00" d=" M 197.27 226.35 C 202.33 223.17 205.20 214.71 211.10 217.08 C 211.27 220.46 209.93 223.72 205.99 223.47 C 200.81 225.37 200.44 232.60 202.65 237.03 C 197.38 236.35 201.95 245.70 196.01 245.49 C 199.24 248.15 198.83 252.24 199.19 256.08 C 206.22 255.88 202.57 245.67 209.18 244.29 C 212.80 245.70 215.85 248.62 219.89 249.04 C 222.10 247.24 223.72 244.86 225.20 242.46 C 230.17 239.78 235.48 237.84 240.78 235.95 C 240.70 239.03 240.17 247.34 246.66 243.76 C 249.31 243.01 246.21 240.77 245.72 239.32 C 249.90 239.41 249.40 246.41 253.35 245.41 C 256.58 243.87 263.51 250.39 262.72 244.19 C 261.90 238.80 268.47 242.51 271.87 242.01 C 271.12 238.50 272.70 232.93 268.84 231.50 C 273.01 228.98 279.36 227.18 282.82 230.90 C 285.03 228.42 284.76 227.19 285.33 231.71 C 290.07 228.43 291.01 234.87 294.93 233.49 L 295.45 233.95 C 290.17 240.63 284.78 247.17 276.08 249.17 C 273.54 248.45 271.14 248.55 268.91 249.47 C 263.56 250.63 258.59 253.10 253.26 254.26 C 247.75 254.11 242.23 253.94 236.77 254.68 C 231.24 253.54 225.46 251.92 220.27 254.92 C 217.95 251.47 213.33 254.51 209.96 254.90 C 205.64 255.34 206.75 261.09 204.95 264.08 L 204.21 263.95 C 200.69 259.55 195.39 261.73 191.02 263.53 C 188.29 258.97 190.86 257.75 194.49 257.12 C 197.04 256.02 198.88 248.64 194.71 248.30 C 191.96 248.21 194.11 251.83 195.11 253.11 C 189.70 253.23 190.01 247.44 194.25 245.23 C 198.32 242.05 193.01 238.26 192.15 235.25 C 196.15 233.36 196.83 230.25 197.27 226.35 M 274.04 232.96 C 274.22 234.46 272.99 238.29 275.70 236.65 C 279.93 236.40 277.18 231.68 274.04 232.96 M 229.24 246.44 C 227.38 247.71 220.02 250.35 224.96 251.98 C 226.72 249.97 235.52 247.30 229.24 246.44 Z" />
</g>
<g id="#0000006a">
<path fill="#000000" opacity="0.42" d=" M 88.02 218.22 C 104.17 218.93 120.34 219.32 136.42 216.96 C 134.58 222.59 123.29 220.78 124.00 227.90 C 128.93 238.53 142.42 241.07 152.97 240.02 C 152.98 240.77 153.01 242.27 153.02 243.02 C 142.33 243.21 131.25 243.00 121.31 238.58 C 107.81 233.20 93.66 229.18 81.10 221.74 C 79.52 217.66 85.87 218.07 88.02 218.22 Z" />
</g>
<g id="#02020181">
<path fill="#020201" opacity="0.51" d=" M 136.42 216.96 C 136.48 227.92 147.11 233.37 152.97 240.02 C 142.42 241.07 128.93 238.53 124.00 227.90 C 123.29 220.78 134.58 222.59 136.42 216.96 Z" />
</g>
<g id="#7f8648ff">
<path fill="#7f8648" opacity="1.00" d=" M 218.17 218.99 C 220.68 219.20 221.54 222.15 223.58 223.34 C 225.07 224.65 226.57 225.95 228.14 227.17 C 229.65 227.69 233.52 228.60 233.01 225.91 C 232.84 221.78 236.13 227.43 237.87 228.10 C 241.59 230.30 246.11 229.55 250.13 229.16 C 250.17 232.68 244.65 230.02 243.75 233.36 C 240.91 235.43 242.51 238.99 245.72 239.32 C 246.21 240.77 249.31 243.01 246.66 243.76 C 240.17 247.34 240.70 239.03 240.78 235.95 C 235.48 237.84 230.17 239.78 225.20 242.46 C 225.97 239.73 227.21 236.00 223.02 237.78 C 222.92 235.97 222.86 221.85 221.32 229.56 C 217.31 231.34 215.68 236.15 214.91 240.17 C 216.56 238.95 217.62 236.95 219.54 236.12 C 221.03 238.60 221.70 242.29 225.20 242.46 C 223.72 244.86 222.10 247.24 219.89 249.04 C 215.85 248.62 212.80 245.70 209.18 244.29 C 202.57 245.67 206.22 255.88 199.19 256.08 C 198.83 252.24 199.24 248.15 196.01 245.49 C 201.95 245.70 197.38 236.35 202.65 237.03 C 203.00 239.50 206.13 241.50 207.62 238.78 C 206.96 234.46 208.85 230.41 210.53 226.54 C 215.05 226.22 216.60 222.63 218.17 218.99 M 214.25 228.22 C 212.26 228.91 210.36 234.09 213.75 232.78 C 215.74 232.08 217.63 226.90 214.25 228.22 Z" />
</g>
<g id="#00000026">
<path fill="#000000" opacity="0.15" d=" M 0.00 222.00 C 28.17 226.83 56.77 229.63 84.57 236.50 C 98.72 239.63 112.08 245.70 126.57 247.47 C 136.01 249.66 146.10 249.50 154.86 254.11 C 158.08 262.64 166.81 265.62 175.20 265.89 C 171.38 266.27 167.14 267.88 163.76 265.29 C 153.24 259.32 140.87 259.36 129.44 256.42 C 119.71 252.61 108.75 256.14 99.05 251.91 C 94.98 248.68 89.14 249.57 86.68 244.27 C 71.56 242.40 57.26 236.44 42.01 234.93 C 28.02 232.79 14.08 230.41 0.00 228.93 L 0.00 222.00 Z" />
</g>
<g id="#c1b190ff">
<path fill="#c1b190" opacity="1.00" d=" M 168.94 229.08 C 167.63 224.38 171.56 224.06 173.50 227.69 C 172.04 228.32 170.57 229.05 168.94 229.08 Z" />
</g>
<g id="#525f2fff">
<path fill="#525f2f" opacity="1.00" d=" M 259.29 227.46 C 264.07 224.01 265.23 232.41 259.81 230.20 C 260.14 232.22 261.86 233.51 263.59 234.33 C 265.78 236.18 267.07 232.40 268.84 231.50 C 272.70 232.93 271.12 238.50 271.87 242.01 C 268.47 242.51 261.90 238.80 262.72 244.19 C 263.51 250.39 256.58 243.87 253.35 245.41 C 249.40 246.41 249.90 239.41 245.72 239.32 C 242.51 238.99 240.91 235.43 243.75 233.36 C 244.29 234.76 244.75 236.19 245.29 237.60 C 251.61 236.62 254.44 230.85 259.29 227.46 Z" />
</g>
<g id="#98a863ff">
<path fill="#98a863" opacity="1.00" d=" M 221.32 229.56 C 222.86 221.85 222.92 235.97 223.02 237.78 C 227.21 236.00 225.97 239.73 225.20 242.46 C 221.70 242.29 221.03 238.60 219.54 236.12 C 217.62 236.95 216.56 238.95 214.91 240.17 C 215.68 236.15 217.31 231.34 221.32 229.56 Z" />
</g>
<g id="#876f27ff">
<path fill="#876f27" opacity="1.00" d=" M 165.88 228.07 C 166.88 228.45 167.90 228.79 168.94 229.08 C 170.57 229.05 172.04 228.32 173.50 227.69 C 177.54 230.12 176.05 235.85 172.88 238.34 C 170.79 238.51 168.53 238.75 166.96 237.03 C 166.12 234.12 165.93 231.07 165.88 228.07 Z" />
</g>
<g id="#c1b195ff">
<path fill="#c1b195" opacity="1.00" d=" M 214.25 228.22 C 217.63 226.90 215.74 232.08 213.75 232.78 C 210.36 234.09 212.26 228.91 214.25 228.22 Z" />
</g>
<g id="#362a1186">
<path fill="#362a11" opacity="0.53" d=" M 295.13 227.93 C 296.88 229.65 296.99 231.66 295.45 233.95 L 294.93 233.49 C 294.67 231.63 294.74 229.75 295.13 227.93 Z" />
</g>
<g id="#0000001b">
<path fill="#000000" opacity="0.11" d=" M 0.00 228.93 C 14.08 230.41 28.02 232.79 42.01 234.93 C 57.26 236.44 71.56 242.40 86.68 244.27 C 89.14 249.57 94.98 248.68 99.05 251.91 C 108.75 256.14 119.71 252.61 129.44 256.42 C 140.87 259.36 153.24 259.32 163.76 265.29 C 167.14 267.88 171.38 266.27 175.20 265.89 C 180.03 266.98 185.01 266.94 189.95 267.07 C 191.71 267.02 195.24 266.92 197.00 266.86 C 197.99 267.40 198.99 267.93 200.00 268.45 C 202.12 269.71 205.00 269.78 207.04 268.40 C 209.90 267.29 212.83 266.16 215.18 264.12 C 218.04 261.86 218.90 258.12 220.27 254.92 C 225.46 251.92 231.24 253.54 236.77 254.68 C 242.25 255.05 247.83 255.40 253.26 254.26 C 258.59 253.10 263.56 250.63 268.91 249.47 C 270.31 250.02 271.76 250.40 273.26 250.61 C 261.42 250.70 253.07 260.83 241.48 262.12 C 242.87 265.64 239.43 264.97 236.42 264.60 C 230.62 265.04 228.15 272.45 221.86 271.25 C 217.92 270.46 216.40 276.27 212.17 274.36 C 208.91 278.45 202.45 279.15 198.07 282.72 C 191.45 277.71 187.23 286.68 180.62 285.63 C 174.07 287.13 168.82 278.21 162.17 281.50 C 160.67 279.88 159.50 277.19 156.94 277.30 C 149.84 278.92 142.89 272.79 136.10 277.00 C 133.68 271.47 129.97 277.23 126.18 277.04 C 124.61 275.54 123.33 273.71 121.40 272.64 C 121.45 274.90 123.62 279.41 117.60 275.28 C 113.63 272.19 110.40 277.27 106.04 275.99 C 100.46 273.29 101.38 278.55 99.89 281.13 C 97.03 280.12 98.99 277.14 98.94 275.00 C 95.87 274.40 94.77 276.00 95.64 279.81 C 87.63 277.69 79.75 281.42 71.75 280.40 C 66.37 280.40 62.39 275.91 57.14 276.43 C 55.34 275.09 56.37 270.01 53.19 271.22 C 48.18 275.13 43.96 267.95 39.18 267.09 C 36.86 268.36 39.62 270.51 40.07 272.15 C 34.94 271.44 31.54 267.15 28.16 263.77 C 29.47 267.31 27.91 267.52 25.14 265.74 C 25.28 263.01 27.36 258.76 22.92 260.63 C 19.06 257.43 14.80 263.64 11.18 258.77 C 12.94 255.57 11.84 249.14 8.14 253.05 C 7.55 258.15 2.49 254.73 0.00 252.92 L 0.00 228.93 Z" />
</g>
<g id="#ad9773ff">
<path fill="#ad9773" opacity="1.00" d=" M 274.04 232.96 C 277.18 231.68 279.93 236.40 275.70 236.65 C 272.99 238.29 274.22 234.46 274.04 232.96 Z" />
</g>
<g id="#a8a378ff">
<path fill="#a8a378" opacity="1.00" d=" M 190.22 239.14 C 193.78 237.20 195.92 242.16 191.81 241.85 C 189.04 244.72 187.74 240.91 190.22 239.14 Z" />
</g>
<g id="#656030ff">
<path fill="#656030" opacity="1.00" d=" M 155.92 249.07 C 154.39 247.70 150.98 238.34 155.95 240.06 C 160.79 243.08 167.12 239.24 171.04 244.62 C 169.70 251.18 167.06 244.78 164.04 243.89 C 163.25 250.13 166.21 255.76 171.81 257.97 C 173.93 255.20 172.09 251.15 173.13 247.89 C 177.26 248.61 184.03 259.48 184.20 251.82 C 187.81 253.18 192.00 253.86 194.49 257.12 C 190.86 257.75 188.29 258.97 191.02 263.53 C 189.18 264.64 187.32 265.78 185.20 266.30 C 187.37 263.92 186.49 260.36 182.91 260.49 C 178.51 263.07 173.65 265.01 168.38 263.87 C 165.78 257.57 159.00 254.94 155.92 249.07 Z" />
</g>
<g id="#817243ff">
<path fill="#817243" opacity="1.00" d=" M 164.04 243.89 C 167.06 244.78 169.70 251.18 171.04 244.62 C 171.79 245.67 172.45 246.78 173.13 247.89 C 172.09 251.15 173.93 255.20 171.81 257.97 C 166.21 255.76 163.25 250.13 164.04 243.89 Z" />
</g>
<g id="#879b52ff">
<path fill="#879b52" opacity="1.00" d=" M 229.24 246.44 C 235.52 247.30 226.72 249.97 224.96 251.98 C 220.02 250.35 227.38 247.71 229.24 246.44 Z" />
</g>
<g id="#3c3e15a8">
<path fill="#3c3e15" opacity="0.66" d=" M 268.91 249.47 C 271.14 248.55 273.54 248.45 276.08 249.17 C 275.20 249.78 274.26 250.25 273.26 250.61 C 271.76 250.40 270.31 250.02 268.91 249.47 Z" />
</g>
<g id="#958052fc">
<path fill="#958052" opacity="1.00" d=" M 209.96 254.90 C 213.33 254.51 217.95 251.47 220.27 254.92 C 218.90 258.12 218.04 261.86 215.18 264.12 C 211.80 262.45 208.37 264.92 204.95 264.08 C 206.75 261.09 205.64 255.34 209.96 254.90 Z" />
</g>
<g id="#434e1ed2">
<path fill="#434e1e" opacity="0.82" d=" M 236.77 254.68 C 242.23 253.94 247.75 254.11 253.26 254.26 C 247.83 255.40 242.25 255.05 236.77 254.68 Z" />
</g>
<g id="#745e28f5">
<path fill="#745e28" opacity="0.96" d=" M 204.95 264.08 C 208.37 264.92 211.80 262.45 215.18 264.12 C 212.83 266.16 209.90 267.29 207.04 268.40 C 205.24 267.93 203.39 267.62 201.53 267.67 C 202.42 266.42 203.30 265.18 204.21 263.95 L 204.95 264.08 Z" />
</g>
<g id="#1f21119f">
<path fill="#1f2111" opacity="0.62" d=" M 189.95 267.07 C 191.32 264.30 194.79 265.21 197.00 266.86 C 195.24 266.92 191.71 267.02 189.95 267.07 Z" />
</g>
<g id="#19140c7f">
<path fill="#19140c" opacity="0.50" d=" M 200.00 268.45 C 200.38 268.26 201.15 267.87 201.53 267.67 C 203.39 267.62 205.24 267.93 207.04 268.40 C 205.00 269.78 202.12 269.71 200.00 268.45 Z" />
</g>
</svg>
