<?xml version="1.0" encoding="UTF-8" ?>
<!DOCTYPE svg PUBLIC "-//W3C//DTD SVG 1.1//EN" "http://www.w3.org/Graphics/SVG/1.1/DTD/svg11.dtd">
<svg width="384pt" height="384pt" viewBox="0 0 384 384" version="1.1" xmlns="http://www.w3.org/2000/svg">
<g id="#0000000b">
<path fill="#000000" opacity="0.04" d=" M 0.00 0.00 L 204.19 0.00 C 201.91 2.90 200.56 5.77 198.86 8.62 C 203.64 9.18 208.44 9.07 212.85 7.01 C 214.52 11.99 218.67 15.47 221.84 19.33 C 228.62 20.21 216.35 30.27 226.78 25.58 C 231.79 23.80 235.97 27.46 239.63 30.37 C 241.86 32.80 245.89 30.47 247.93 33.27 C 249.74 40.13 242.69 45.12 243.08 51.77 C 245.91 55.74 246.52 45.03 250.08 48.89 C 252.90 53.49 257.78 52.63 262.44 52.40 C 263.07 55.74 271.70 58.63 266.85 60.88 C 262.87 61.76 268.42 68.29 269.84 65.02 C 269.70 62.11 274.86 62.34 272.09 65.19 C 269.66 67.88 275.71 67.94 274.51 70.66 C 273.21 74.91 279.19 76.31 279.98 80.01 C 281.44 86.96 282.44 94.02 284.24 100.90 C 288.10 102.06 290.27 98.14 292.81 96.05 C 293.97 97.94 295.12 99.85 295.99 101.89 C 293.61 103.82 291.24 99.95 289.01 101.95 C 287.36 103.15 286.87 105.40 286.02 107.18 C 289.69 106.13 291.88 100.26 294.26 106.78 C 298.79 102.49 299.85 109.79 302.72 112.33 C 305.97 115.32 310.83 108.29 313.61 112.40 C 315.85 115.54 322.03 115.68 318.51 120.37 C 317.24 125.89 323.14 119.18 324.63 122.32 C 327.10 125.92 335.05 127.88 329.99 132.81 C 336.71 132.82 330.04 143.34 339.16 140.13 C 341.37 141.09 336.85 144.24 335.96 145.93 C 338.57 147.17 341.47 147.74 343.99 149.18 C 344.72 151.67 341.49 151.30 340.02 152.14 C 342.49 154.63 344.67 159.04 348.80 156.94 C 347.53 158.67 346.48 160.56 345.81 162.60 C 349.75 161.11 346.41 165.56 347.87 167.12 C 350.66 171.63 352.70 163.66 356.72 164.89 C 355.61 167.40 358.62 173.49 354.12 171.31 C 352.78 172.77 348.83 177.05 353.58 177.57 C 354.18 183.70 353.04 189.37 350.94 195.07 C 358.19 188.66 357.93 202.87 355.16 207.10 C 352.93 212.35 357.94 206.03 359.88 205.90 C 361.10 207.72 359.34 210.28 361.15 211.79 C 362.70 212.05 367.11 209.58 365.69 212.56 C 362.74 213.57 359.58 214.38 357.13 216.41 C 360.46 217.11 359.68 222.39 363.34 220.47 C 368.82 218.78 364.20 224.40 361.12 224.12 C 364.34 228.94 368.00 233.60 370.13 239.04 C 363.90 241.14 369.29 232.03 364.27 234.20 C 361.04 236.64 365.15 240.87 365.44 243.98 C 368.96 243.41 370.44 238.90 374.06 238.93 C 375.04 244.04 366.39 243.70 367.10 248.55 C 370.05 247.73 371.64 253.80 368.33 252.60 C 364.79 251.90 368.82 256.74 369.83 258.11 C 368.52 260.31 366.37 262.13 365.94 264.77 C 368.62 265.02 372.25 267.67 367.80 268.79 C 363.18 271.09 369.65 272.71 372.02 271.20 C 372.84 274.32 371.04 275.44 368.12 275.30 C 369.36 278.74 368.58 281.23 364.71 280.92 C 360.64 285.62 364.82 287.02 368.90 283.99 C 369.51 286.59 370.17 289.18 370.86 291.77 C 367.49 292.56 362.19 297.26 367.39 299.56 C 373.64 297.66 374.68 303.36 377.15 307.12 C 374.61 306.42 372.42 304.93 370.04 303.88 C 370.24 305.56 370.63 307.22 370.84 308.91 C 368.41 310.01 364.60 309.91 366.19 313.65 C 369.36 315.20 372.77 316.25 375.79 318.13 C 376.12 322.11 376.56 326.08 376.88 330.06 C 371.66 332.39 375.36 321.29 371.17 325.19 C 369.04 327.29 373.02 330.38 373.11 333.03 C 370.08 335.09 366.14 327.76 365.39 331.76 C 365.26 335.49 369.59 335.72 370.96 338.58 C 368.08 339.52 364.35 340.42 363.73 343.94 C 366.46 343.19 373.94 340.51 373.94 345.77 C 371.05 348.53 367.96 351.18 365.48 354.38 C 362.82 353.87 356.57 355.66 360.19 358.83 C 361.75 361.34 363.14 356.99 365.03 356.81 C 365.26 359.32 364.66 361.93 362.84 363.76 C 359.96 362.93 356.21 362.61 355.17 366.15 C 353.23 370.80 363.12 363.88 362.05 368.05 C 362.81 370.64 359.56 374.51 357.41 371.64 C 355.01 369.98 354.96 373.43 356.13 374.78 C 360.09 378.43 354.10 380.66 355.75 384.00 L 113.69 384.00 C 122.87 374.83 131.63 365.18 141.39 356.63 C 146.74 357.91 144.85 351.01 149.28 350.82 C 152.59 350.94 153.71 347.51 155.31 345.26 C 159.31 347.06 163.97 340.39 166.79 345.08 C 165.97 352.06 174.05 342.31 173.37 348.97 C 178.04 348.16 183.75 344.75 187.34 349.63 C 191.03 353.80 196.59 353.60 201.62 354.47 C 205.60 356.92 210.62 357.97 215.03 356.05 C 222.69 352.98 232.58 360.65 238.45 352.58 C 241.94 351.97 250.22 353.11 247.10 345.96 C 247.32 341.41 241.67 339.09 242.05 334.17 C 246.58 330.73 253.26 332.26 257.80 328.82 C 260.19 325.67 260.23 321.36 257.94 318.14 C 259.68 318.01 263.76 320.44 262.82 317.14 C 261.23 309.98 265.25 299.84 273.02 299.01 C 271.90 297.08 270.40 295.36 269.70 293.21 C 271.45 293.68 273.17 294.30 274.94 294.73 C 277.34 292.81 273.60 289.05 276.17 287.19 C 279.07 283.40 284.23 285.03 288.22 283.80 C 279.59 281.01 290.28 275.78 293.59 272.57 C 295.73 268.06 291.28 272.57 289.01 272.03 C 286.02 272.60 289.36 262.83 293.22 268.69 C 292.50 266.42 290.01 265.57 288.50 263.92 C 289.19 260.47 290.23 257.10 291.76 253.93 C 290.48 251.48 287.75 249.60 289.06 246.24 C 291.22 243.15 296.01 247.43 298.08 244.27 C 293.57 244.78 291.15 238.74 296.86 238.56 C 291.76 234.01 302.48 229.79 297.23 225.76 C 293.86 223.86 296.24 220.21 298.39 218.36 C 303.97 215.21 287.65 210.97 297.10 211.82 C 298.04 207.35 289.60 209.32 291.40 204.57 C 296.48 198.01 284.22 200.73 288.64 194.39 C 289.98 190.20 284.24 192.86 282.66 190.30 C 278.10 188.29 287.49 180.68 281.57 181.39 C 280.17 184.29 277.42 186.81 273.95 186.03 C 274.12 182.24 280.03 182.67 281.25 178.98 C 277.91 175.19 273.07 173.11 269.64 169.41 C 272.92 160.91 262.01 168.69 263.36 163.34 C 267.85 154.55 257.59 148.92 253.16 142.73 C 249.16 139.89 256.58 135.68 252.60 132.46 C 248.63 130.23 249.66 125.35 247.01 122.08 C 251.48 118.56 249.52 114.24 246.28 110.71 C 248.43 105.28 242.49 101.48 244.76 96.15 C 241.96 93.65 241.03 90.02 240.58 86.40 C 235.54 82.67 230.29 77.36 229.04 71.23 C 232.17 70.44 235.68 70.81 236.93 66.74 C 237.83 66.36 238.76 66.01 239.70 65.70 C 243.18 65.61 246.95 66.72 250.29 65.27 C 257.18 65.38 259.84 56.26 252.26 55.69 C 248.23 55.02 244.16 55.06 240.10 55.12 C 237.86 54.09 234.92 53.53 233.86 51.00 C 235.23 47.75 238.81 46.46 241.09 43.98 C 244.22 41.86 248.18 37.19 245.24 33.64 C 242.12 31.98 238.86 33.36 236.08 34.77 C 234.75 34.31 235.08 32.45 234.50 31.40 C 233.70 26.00 226.71 30.73 223.18 30.68 C 216.51 31.24 208.34 26.41 202.87 31.93 C 196.24 28.87 191.64 34.19 192.39 40.82 C 187.26 39.43 183.68 47.11 178.04 44.71 C 172.88 43.46 167.61 45.18 164.79 49.78 C 157.90 48.17 167.72 44.44 164.42 40.04 C 168.30 36.08 165.24 31.03 165.53 26.27 C 163.10 24.05 158.43 24.63 158.59 20.38 C 146.74 20.96 134.67 17.25 123.01 20.41 C 118.89 19.85 115.03 22.37 111.09 20.15 C 104.93 24.67 96.19 21.71 90.83 25.74 C 80.54 25.32 72.40 34.17 62.42 34.89 C 62.15 33.16 61.50 31.03 59.45 32.51 C 55.60 35.35 50.67 34.70 46.18 35.62 C 42.89 41.65 33.83 39.22 28.28 38.00 C 29.28 44.66 23.84 39.57 20.46 40.47 C 14.60 46.02 5.72 36.86 0.00 43.13 L 0.00 0.00 Z" />
</g>
<g id="#00000014">
<path fill="#000000" opacity="0.08" d=" M 123.01 20.41 C 134.67 17.25 146.74 20.96 158.59 20.38 C 158.43 24.63 163.10 24.05 165.53 26.27 C 165.24 31.03 168.30 36.08 164.42 40.04 C 167.72 44.44 157.90 48.17 164.79 49.78 C 167.61 45.18 172.88 43.46 178.04 44.71 C 183.68 47.11 187.26 39.43 192.39 40.82 C 189.58 42.95 186.42 44.55 183.56 46.62 C 180.29 49.56 175.46 45.39 171.96 47.94 C 168.30 49.79 166.93 53.92 166.50 57.76 C 164.53 63.55 158.43 65.64 153.83 68.83 C 152.16 71.43 153.40 75.07 153.00 78.05 C 153.52 83.45 150.48 90.93 144.19 90.91 C 138.78 85.63 135.95 77.22 128.25 75.21 C 123.44 73.56 125.30 67.60 123.02 64.06 C 124.27 63.35 125.73 63.73 127.08 63.65 C 127.02 60.69 122.93 61.16 120.97 59.92 C 123.39 57.68 127.32 51.63 121.88 55.81 C 125.04 50.26 117.81 50.36 115.45 46.55 C 112.49 45.63 107.85 46.93 108.71 51.04 C 106.22 49.46 104.34 47.34 106.84 44.75 C 99.61 46.46 92.43 49.34 84.87 48.40 C 80.83 47.72 78.99 51.86 75.59 52.46 C 70.48 51.61 68.37 57.59 63.37 55.19 C 63.30 60.55 56.67 53.87 53.90 58.68 C 45.09 58.66 39.85 66.83 31.87 68.72 C 27.38 67.30 24.81 72.28 20.64 72.35 C 17.08 71.64 15.15 76.32 11.67 75.39 C 6.66 73.90 4.17 79.70 0.00 81.29 L 0.00 43.13 C 5.72 36.86 14.60 46.02 20.46 40.47 C 23.84 39.57 29.28 44.66 28.28 38.00 C 33.83 39.22 42.89 41.65 46.18 35.62 C 50.67 34.70 55.60 35.35 59.45 32.51 C 61.50 31.03 62.15 33.16 62.42 34.89 C 72.40 34.17 80.54 25.32 90.83 25.74 C 96.19 21.71 104.93 24.67 111.09 20.15 C 115.03 22.37 118.89 19.85 123.01 20.41 Z" />
</g>
<g id="#565d32fb">
<path fill="#565d32" opacity="1.00" d=" M 202.87 31.93 C 208.34 26.41 216.51 31.24 223.18 30.68 C 215.92 29.75 222.59 34.28 222.08 38.11 C 218.69 36.24 213.33 35.79 211.37 40.10 C 215.04 45.71 206.86 42.72 204.28 41.04 C 203.39 45.68 198.13 43.94 195.82 47.19 C 191.48 47.24 187.47 48.44 183.92 50.84 C 179.06 47.94 174.00 49.21 169.95 52.68 C 174.36 52.12 175.22 55.80 176.14 59.18 C 178.90 58.29 185.18 51.53 183.16 58.04 C 185.85 57.81 188.48 57.13 191.18 56.99 C 188.26 60.45 182.80 64.59 188.80 69.07 C 189.18 69.38 189.95 69.99 190.34 70.29 C 187.99 71.70 185.83 69.97 184.01 68.56 C 179.41 63.77 178.49 72.37 175.74 74.81 C 173.34 74.65 168.54 74.32 166.14 74.15 C 165.45 79.41 169.42 86.63 165.75 90.91 C 160.39 91.48 158.34 85.00 154.21 82.68 C 154.12 81.11 154.04 79.55 153.98 77.98 C 153.93 74.92 153.90 71.88 153.83 68.83 C 158.43 65.64 164.53 63.55 166.50 57.76 C 166.93 53.92 168.30 49.79 171.96 47.94 C 175.46 45.39 180.29 49.56 183.56 46.62 C 186.42 44.55 189.58 42.95 192.39 40.82 C 191.64 34.19 196.24 28.87 202.87 31.93 Z" />
</g>
<g id="#798541fe">
<path fill="#798541" opacity="1.00" d=" M 223.18 30.68 C 226.71 30.73 233.70 26.00 234.50 31.40 C 235.08 32.45 234.75 34.31 236.08 34.77 L 237.04 35.24 C 236.68 38.71 233.46 37.08 231.13 37.03 C 232.05 40.23 230.55 43.85 231.96 46.80 C 234.80 45.30 237.77 43.86 241.09 43.98 C 238.81 46.46 235.23 47.75 233.86 51.00 C 234.92 53.53 237.86 54.09 240.10 55.12 L 239.62 56.08 C 234.65 54.83 230.42 57.37 225.98 58.89 C 226.08 53.03 220.68 48.61 221.79 42.97 C 220.34 43.74 218.95 44.63 217.44 45.28 C 218.59 42.54 216.90 40.28 213.88 40.94 C 214.92 46.89 222.62 49.15 221.01 56.04 C 220.80 59.06 226.03 61.68 221.78 63.73 C 219.51 64.57 217.73 66.37 217.83 68.93 L 216.95 68.92 C 214.08 67.95 207.21 70.94 209.48 65.83 C 209.69 69.61 216.84 66.66 215.12 63.16 C 213.27 63.64 211.47 64.26 209.68 64.91 C 209.63 62.34 211.49 61.02 213.81 60.60 C 213.15 55.84 204.93 57.00 204.01 61.07 C 206.09 66.75 208.29 72.43 210.25 78.18 C 206.02 82.24 199.00 85.68 200.20 92.68 C 200.12 97.06 200.04 101.44 200.12 105.83 C 200.78 109.29 197.27 109.02 195.04 110.09 C 195.48 112.41 196.24 114.65 196.74 116.96 C 192.71 117.72 187.99 117.24 186.08 121.55 C 181.91 119.53 182.40 124.07 182.87 126.79 C 179.65 129.33 175.39 130.10 171.89 132.25 C 170.13 127.64 168.65 122.59 164.73 119.30 C 163.63 118.08 161.65 116.90 163.03 115.12 C 163.75 113.82 163.28 112.34 163.26 110.94 C 165.95 114.01 169.74 112.53 172.10 109.87 C 175.64 110.77 178.55 113.02 181.68 114.78 C 180.83 108.63 193.91 115.27 189.44 109.55 C 188.20 105.70 195.90 105.83 194.42 101.61 C 192.78 96.55 192.02 90.68 188.29 86.67 C 191.53 93.77 183.44 96.99 178.68 95.36 C 176.87 92.78 169.22 82.81 176.68 83.06 C 177.23 85.40 177.65 87.76 178.24 90.09 C 183.48 84.78 178.84 74.74 184.01 68.56 C 185.83 69.97 187.99 71.70 190.34 70.29 C 193.26 76.92 188.68 82.26 185.04 87.24 C 191.48 82.75 197.85 77.95 204.47 73.55 C 204.55 71.08 206.58 65.66 202.33 67.13 C 201.80 68.34 200.09 81.42 199.18 69.62 C 197.04 65.94 202.81 58.42 196.18 58.95 C 196.99 62.44 194.99 65.63 195.82 69.12 C 192.99 68.75 188.46 64.80 190.34 70.29 C 189.95 69.99 189.18 69.38 188.80 69.07 C 188.46 66.03 189.58 63.57 192.48 62.45 C 194.01 56.98 199.74 55.42 204.77 54.85 C 200.92 52.45 207.91 50.22 204.87 47.06 C 202.08 48.14 196.84 49.39 195.82 47.19 C 198.13 43.94 203.39 45.68 204.28 41.04 C 206.86 42.72 215.04 45.71 211.37 40.10 C 213.33 35.79 218.69 36.24 222.08 38.11 C 222.59 34.28 215.92 29.75 223.18 30.68 M 226.99 47.86 C 223.52 52.02 230.68 56.05 232.90 52.78 C 233.31 49.46 228.29 50.77 226.99 47.86 M 216.24 52.02 C 215.85 54.03 215.41 56.04 215.06 58.06 C 218.32 58.65 220.91 51.49 216.24 52.02 Z" />
</g>
<g id="#515728ce">
<path fill="#515728" opacity="0.81" d=" M 236.08 34.77 C 238.86 33.36 242.12 31.98 245.24 33.64 C 242.46 33.95 239.73 34.53 237.04 35.24 L 236.08 34.77 Z" />
</g>
<g id="#919e50fc">
<path fill="#919e50" opacity="1.00" d=" M 237.04 35.24 C 239.73 34.53 242.46 33.95 245.24 33.64 C 248.18 37.19 244.22 41.86 241.09 43.98 C 237.77 43.86 234.80 45.30 231.96 46.80 C 230.55 43.85 232.05 40.23 231.13 37.03 C 233.46 37.08 236.68 38.71 237.04 35.24 Z" />
</g>
<g id="#94a668ff">
<path fill="#94a668" opacity="1.00" d=" M 213.88 40.94 C 216.90 40.28 218.59 42.54 217.44 45.28 C 218.95 44.63 220.34 43.74 221.79 42.97 C 220.68 48.61 226.08 53.03 225.98 58.89 C 230.42 57.37 234.65 54.83 239.62 56.08 C 241.18 58.13 248.00 58.15 245.29 61.23 C 238.56 67.03 229.40 57.75 223.60 63.91 C 223.15 63.87 222.24 63.78 221.78 63.73 C 226.03 61.68 220.80 59.06 221.01 56.04 C 222.62 49.15 214.92 46.89 213.88 40.94 Z" />
</g>
<g id="#0000001c">
<path fill="#000000" opacity="0.11" d=" M 84.87 48.40 C 92.43 49.34 99.61 46.46 106.84 44.75 C 104.34 47.34 106.22 49.46 108.71 51.04 C 107.85 46.93 112.49 45.63 115.45 46.55 C 117.81 50.36 125.04 50.26 121.88 55.81 C 127.32 51.63 123.39 57.68 120.97 59.92 C 122.93 61.16 127.02 60.69 127.08 63.65 C 125.73 63.73 124.27 63.35 123.02 64.06 C 125.30 67.60 123.44 73.56 128.25 75.21 C 135.95 77.22 138.78 85.63 144.19 90.91 C 150.48 90.93 153.52 83.45 153.00 78.05 L 153.98 77.98 C 154.04 79.55 154.12 81.11 154.21 82.68 C 153.68 84.40 153.11 86.10 152.61 87.84 C 151.53 91.25 150.51 94.68 149.12 97.98 C 145.49 99.78 145.02 106.88 140.38 105.78 C 138.27 101.41 133.69 100.21 129.36 99.16 C 125.86 95.33 120.54 94.70 116.61 91.48 C 112.57 87.21 104.83 90.40 102.09 84.81 C 99.27 81.77 97.81 88.65 94.64 86.53 C 89.13 87.28 93.62 81.16 89.10 79.92 C 86.48 82.61 83.08 84.19 83.39 79.08 C 79.35 80.60 76.28 78.25 73.00 76.30 C 68.64 78.29 64.23 75.99 59.99 77.70 C 51.09 75.90 44.43 83.46 36.11 84.57 C 32.78 83.25 30.48 85.27 29.33 88.33 C 27.86 92.87 18.70 85.57 20.41 91.78 C 17.31 93.47 13.73 93.58 10.36 94.37 C 7.30 97.11 5.00 103.16 0.00 101.11 L 0.00 81.29 C 4.17 79.70 6.66 73.90 11.67 75.39 C 15.15 76.32 17.08 71.64 20.64 72.35 C 24.81 72.28 27.38 67.30 31.87 68.72 C 39.85 66.83 45.09 58.66 53.90 58.68 C 56.67 53.87 63.30 60.55 63.37 55.19 C 68.37 57.59 70.48 51.61 75.59 52.46 C 78.99 51.86 80.83 47.72 84.87 48.40 Z" />
</g>
<g id="#67743aff">
<path fill="#67743a" opacity="1.00" d=" M 183.92 50.84 C 187.47 48.44 191.48 47.24 195.82 47.19 C 196.84 49.39 202.08 48.14 204.87 47.06 C 207.91 50.22 200.92 52.45 204.77 54.85 C 199.74 55.42 194.01 56.98 192.48 62.45 C 189.58 63.57 188.46 66.03 188.80 69.07 C 182.80 64.59 188.26 60.45 191.18 56.99 C 188.48 57.13 185.85 57.81 183.16 58.04 C 185.18 51.53 178.90 58.29 176.14 59.18 C 175.22 55.80 174.36 52.12 169.95 52.68 C 174.00 49.21 179.06 47.94 183.92 50.84 Z" />
</g>
<g id="#b3a07bff">
<path fill="#b3a07b" opacity="1.00" d=" M 226.99 47.86 C 228.29 50.77 233.31 49.46 232.90 52.78 C 230.68 56.05 223.52 52.02 226.99 47.86 Z" />
</g>
<g id="#b1a27eff">
<path fill="#b1a27e" opacity="1.00" d=" M 216.24 52.02 C 220.91 51.49 218.32 58.65 215.06 58.06 C 215.41 56.04 215.85 54.03 216.24 52.02 Z" />
</g>
<g id="#495923d1">
<path fill="#495923" opacity="0.82" d=" M 240.10 55.12 C 244.16 55.06 248.23 55.02 252.26 55.69 C 248.04 55.82 243.82 55.95 239.62 56.08 L 240.10 55.12 Z" />
</g>
<g id="#788944fa">
<path fill="#788944" opacity="0.98" d=" M 239.62 56.08 C 243.82 55.95 248.04 55.82 252.26 55.69 C 259.84 56.26 257.18 65.38 250.29 65.27 C 246.76 65.29 243.09 64.40 239.70 65.70 C 238.76 66.01 237.83 66.36 236.93 66.74 C 234.72 67.33 232.52 67.89 230.32 68.48 C 228.12 66.90 225.94 65.29 223.60 63.91 C 229.40 57.75 238.56 67.03 245.29 61.23 C 248.00 58.15 241.18 58.13 239.62 56.08 Z" />
</g>
<g id="#716431fc">
<path fill="#716431" opacity="1.00" d=" M 204.01 61.07 C 204.93 57.00 213.15 55.84 213.81 60.60 C 211.49 61.02 209.63 62.34 209.68 64.91 L 209.48 65.83 C 207.21 70.94 214.08 67.95 216.95 68.92 L 216.81 69.86 C 214.65 72.65 212.67 75.60 210.25 78.18 C 208.29 72.43 206.09 66.75 204.01 61.07 Z" />
</g>
<g id="#92a25fff">
<path fill="#92a25f" opacity="1.00" d=" M 196.18 58.95 C 202.81 58.42 197.04 65.94 199.18 69.62 C 200.09 81.42 201.80 68.34 202.33 67.13 C 206.58 65.66 204.55 71.08 204.47 73.55 C 197.85 77.95 191.48 82.75 185.04 87.24 C 188.68 82.26 193.26 76.92 190.34 70.29 C 188.46 64.80 192.99 68.75 195.82 69.12 C 194.99 65.63 196.99 62.44 196.18 58.95 Z" />
</g>
<g id="#b8a383ff">
<path fill="#b8a383" opacity="1.00" d=" M 209.68 64.91 C 211.47 64.26 213.27 63.64 215.12 63.16 C 216.84 66.66 209.69 69.61 209.48 65.83 L 209.68 64.91 Z" />
</g>
<g id="#526427fa">
<path fill="#526427" opacity="0.98" d=" M 217.83 68.93 C 217.73 66.37 219.51 64.57 221.78 63.73 C 222.24 63.78 223.15 63.87 223.60 63.91 C 225.94 65.29 228.12 66.90 230.32 68.48 C 229.78 68.65 228.71 68.99 228.17 69.16 C 224.71 69.13 221.28 69.05 217.83 68.93 Z" />
</g>
<g id="#242d129b">
<path fill="#242d12" opacity="0.61" d=" M 239.70 65.70 C 243.09 64.40 246.76 65.29 250.29 65.27 C 246.95 66.72 243.18 65.61 239.70 65.70 Z" />
</g>
<g id="#667637ff">
<path fill="#667637" opacity="1.00" d=" M 175.74 74.81 C 178.49 72.37 179.41 63.77 184.01 68.56 C 178.84 74.74 183.48 84.78 178.24 90.09 C 177.65 87.76 177.23 85.40 176.68 83.06 C 169.22 82.81 176.87 92.78 178.68 95.36 C 183.44 96.99 191.53 93.77 188.29 86.67 C 192.02 90.68 192.78 96.55 194.42 101.61 C 195.90 105.83 188.20 105.70 189.44 109.55 C 193.91 115.27 180.83 108.63 181.68 114.78 C 178.55 113.02 175.64 110.77 172.10 109.87 C 174.02 108.91 176.12 108.37 178.09 107.51 C 173.21 107.09 173.81 100.30 175.68 97.09 C 170.56 94.67 162.55 99.83 160.07 92.84 C 158.96 89.74 156.24 91.51 155.51 93.82 C 154.12 92.06 153.01 90.06 152.61 87.84 C 153.11 86.10 153.68 84.40 154.21 82.68 C 158.34 85.00 160.39 91.48 165.75 90.91 C 169.42 86.63 165.45 79.41 166.14 74.15 C 168.54 74.32 173.34 74.65 175.74 74.81 Z" />
</g>
<g id="#00000012">
<path fill="#000000" opacity="0.07" d=" M 230.32 68.48 C 232.52 67.89 234.72 67.33 236.93 66.74 C 235.68 70.81 232.17 70.44 229.04 71.23 C 230.29 77.36 235.54 82.67 240.58 86.40 C 241.03 90.02 241.96 93.65 244.76 96.15 C 242.49 101.48 248.43 105.28 246.28 110.71 C 249.52 114.24 251.48 118.56 247.01 122.08 C 249.66 125.35 248.63 130.23 252.60 132.46 C 256.58 135.68 249.16 139.89 253.16 142.73 C 257.59 148.92 267.85 154.55 263.36 163.34 C 262.01 168.69 272.92 160.91 269.64 169.41 C 273.07 173.11 277.91 175.19 281.25 178.98 C 280.03 182.67 274.12 182.24 273.95 186.03 C 277.42 186.81 280.17 184.29 281.57 181.39 C 287.49 180.68 278.10 188.29 282.66 190.30 C 284.24 192.86 289.98 190.20 288.64 194.39 C 284.22 200.73 296.48 198.01 291.40 204.57 C 289.60 209.32 298.04 207.35 297.10 211.82 C 287.65 210.97 303.97 215.21 298.39 218.36 C 296.24 220.21 293.86 223.86 297.23 225.76 C 302.48 229.79 291.76 234.01 296.86 238.56 C 291.15 238.74 293.57 244.78 298.08 244.27 C 296.01 247.43 291.22 243.15 289.06 246.24 C 287.75 249.60 290.48 251.48 291.76 253.93 C 290.23 257.10 289.19 260.47 288.50 263.92 C 290.01 265.57 292.50 266.42 293.22 268.69 C 289.36 262.83 286.02 272.60 289.01 272.03 C 291.28 272.57 295.73 268.06 293.59 272.57 C 290.28 275.78 279.59 281.01 288.22 283.80 C 284.23 285.03 279.07 283.40 276.17 287.19 C 273.60 289.05 277.34 292.81 274.94 294.73 C 273.17 294.30 271.45 293.68 269.70 293.21 C 270.40 295.36 271.90 297.08 273.02 299.01 C 265.25 299.84 261.23 309.98 262.82 317.14 C 263.76 320.44 259.68 318.01 257.94 318.14 C 260.23 321.36 260.19 325.67 257.80 328.82 C 253.26 332.26 246.58 330.73 242.05 334.17 C 241.67 339.09 247.32 341.41 247.10 345.96 C 250.22 353.11 241.94 351.97 238.45 352.58 C 232.58 360.65 222.69 352.98 215.03 356.05 C 210.62 357.97 205.60 356.92 201.62 354.47 C 196.59 353.60 191.03 353.80 187.34 349.63 C 183.75 344.75 178.04 348.16 173.37 348.97 C 174.05 342.31 165.97 352.06 166.79 345.08 C 163.97 340.39 159.31 347.06 155.31 345.26 C 153.71 347.51 152.59 350.94 149.28 350.82 C 144.85 351.01 146.74 357.91 141.39 356.63 C 131.63 365.18 122.87 374.83 113.69 384.00 L 0.00 384.00 L 0.00 307.77 C 4.25 310.09 8.12 313.00 11.40 316.58 C 23.90 313.96 36.26 320.80 48.07 314.41 C 52.67 315.59 57.11 318.36 60.36 313.41 C 69.04 315.75 80.36 311.52 87.16 318.38 C 88.79 325.60 100.37 317.26 99.08 326.09 C 109.67 321.55 121.17 319.99 131.98 316.03 C 136.14 314.91 141.19 317.12 144.46 313.49 C 151.27 311.58 154.21 319.90 160.07 321.91 C 164.33 323.46 162.20 331.10 168.12 329.99 C 172.80 330.17 175.93 334.45 180.36 335.59 C 186.03 336.49 186.58 343.72 192.46 344.60 C 191.58 349.19 196.31 355.49 201.02 351.97 C 203.15 350.11 204.32 352.75 205.73 354.07 C 210.14 355.58 215.33 354.12 220.06 353.87 C 224.68 352.77 229.14 355.02 233.76 354.95 C 234.87 353.04 234.30 349.72 236.78 348.99 C 239.31 351.12 244.70 352.87 246.13 349.00 C 246.88 341.64 238.47 339.14 234.15 334.70 C 233.02 331.22 237.31 329.95 239.66 328.67 C 243.84 328.58 248.17 329.35 252.31 328.40 C 259.82 327.55 257.18 318.62 250.24 318.78 C 246.45 318.23 242.64 318.02 238.82 318.14 C 238.42 318.09 237.61 317.98 237.21 317.93 C 234.44 316.24 231.19 315.73 228.09 314.96 C 224.31 314.16 220.50 313.92 216.66 314.24 C 214.82 312.43 213.17 310.44 211.95 308.17 C 212.39 303.00 207.27 300.73 204.10 297.74 C 203.98 295.31 204.32 286.90 208.75 290.54 C 214.48 293.25 211.46 283.78 216.34 285.47 C 220.14 285.51 222.03 280.92 224.43 278.50 C 229.06 276.70 238.36 275.58 233.17 269.02 C 239.14 272.49 234.03 264.67 239.07 264.32 C 242.56 265.67 249.51 259.85 243.16 259.31 C 244.69 251.23 240.25 242.06 245.36 234.72 C 243.64 229.88 246.56 223.63 242.31 220.00 C 244.08 216.67 242.94 212.84 243.18 209.24 C 245.66 206.31 250.48 206.85 252.33 203.35 C 252.54 203.11 252.96 202.62 253.17 202.37 C 255.94 201.24 258.82 200.17 261.12 198.19 C 265.29 195.80 266.58 189.50 262.01 186.79 C 260.20 185.28 258.35 183.79 256.22 182.77 C 250.97 179.82 245.13 178.21 239.19 177.39 C 239.10 176.60 238.91 175.03 238.82 174.24 C 238.99 170.39 238.77 166.58 238.16 162.79 C 236.44 157.23 234.00 151.55 229.29 147.88 C 223.91 144.07 221.20 137.63 215.33 134.47 C 215.47 132.36 215.72 130.27 216.06 128.18 C 216.55 125.09 217.78 121.73 216.32 118.71 C 214.40 111.05 205.76 110.88 200.77 106.37 C 200.59 101.84 201.73 97.07 200.20 92.68 C 199.00 85.68 206.02 82.24 210.25 78.18 C 212.67 75.60 214.65 72.65 216.81 69.86 C 220.63 70.06 224.41 69.83 228.17 69.16 C 228.71 68.99 229.78 68.65 230.32 68.48 Z" />
</g>
<g id="#2f2e19a4">
<path fill="#2f2e19" opacity="0.64" d=" M 153.00 78.05 C 153.40 75.07 152.16 71.43 153.83 68.83 C 153.90 71.88 153.93 74.92 153.98 77.98 L 153.00 78.05 Z" />
</g>
<g id="#1b1f0d8b">
<path fill="#1b1f0d" opacity="0.55" d=" M 216.95 68.92 L 217.83 68.93 C 221.28 69.05 224.71 69.13 228.17 69.16 C 224.41 69.83 220.63 70.06 216.81 69.86 L 216.95 68.92 Z" />
</g>
<g id="#00000024">
<path fill="#000000" opacity="0.14" d=" M 59.99 77.70 C 64.23 75.99 68.64 78.29 73.00 76.30 C 76.28 78.25 79.35 80.60 83.39 79.08 C 83.08 84.19 86.48 82.61 89.10 79.92 C 93.62 81.16 89.13 87.28 94.64 86.53 C 97.81 88.65 99.27 81.77 102.09 84.81 C 104.83 90.40 112.57 87.21 116.61 91.48 C 120.54 94.70 125.86 95.33 129.36 99.16 C 133.69 100.21 138.27 101.41 140.38 105.78 C 145.02 106.88 145.49 99.78 149.12 97.98 C 146.97 104.48 145.77 111.49 140.17 116.21 C 131.39 117.34 123.72 113.33 115.96 110.05 C 104.75 107.99 93.56 109.41 82.46 108.50 C 73.82 112.00 64.58 112.81 55.54 115.35 C 50.45 114.37 45.57 120.34 41.34 115.69 C 28.81 121.68 13.12 114.01 0.00 120.16 L 0.00 101.11 C 5.00 103.16 7.30 97.11 10.36 94.37 C 13.73 93.58 17.31 93.47 20.41 91.78 C 18.70 85.57 27.86 92.87 29.33 88.33 C 30.48 85.27 32.78 83.25 36.11 84.57 C 44.43 83.46 51.09 75.90 59.99 77.70 Z" />
</g>
<g id="#565b31fd">
<path fill="#565b31" opacity="1.00" d=" M 149.12 97.98 C 150.51 94.68 151.53 91.25 152.61 87.84 C 153.01 90.06 154.12 92.06 155.51 93.82 C 156.24 91.51 158.96 89.74 160.07 92.84 C 162.55 99.83 170.56 94.67 175.68 97.09 C 173.81 100.30 173.21 107.09 178.09 107.51 C 176.12 108.37 174.02 108.91 172.10 109.87 C 169.74 112.53 165.95 114.01 163.26 110.94 C 163.28 112.34 163.75 113.82 163.03 115.12 C 159.82 116.73 159.98 114.83 160.77 112.21 C 157.26 109.59 151.01 110.09 149.99 115.00 C 149.68 118.91 144.50 117.88 142.82 120.84 C 147.22 123.12 147.77 127.75 148.21 132.19 C 150.64 130.08 150.79 126.65 151.84 123.80 C 155.82 123.20 159.84 122.80 163.84 122.25 C 166.96 124.67 161.44 124.88 159.78 125.85 C 152.31 126.23 159.25 139.37 164.55 137.34 C 167.45 139.08 176.76 133.72 174.96 138.98 C 172.44 140.82 173.29 145.66 169.15 145.25 C 169.70 143.20 172.33 140.22 169.39 138.97 C 168.91 141.33 168.12 143.62 166.80 145.65 C 165.07 146.23 162.15 145.46 161.89 147.93 C 159.34 152.70 153.11 154.78 151.00 159.96 C 152.14 162.21 155.76 163.01 155.72 165.95 C 155.31 168.61 152.61 172.12 156.20 173.63 C 160.15 172.97 163.88 170.77 167.68 169.27 C 168.13 173.77 175.96 168.92 173.02 173.03 C 171.54 177.11 167.09 171.71 164.09 174.15 C 162.63 178.10 166.44 179.48 169.48 180.71 C 170.31 178.55 171.16 176.07 174.01 176.98 C 174.87 183.00 165.94 185.86 168.58 192.39 C 172.44 200.93 163.63 196.71 159.46 197.72 C 158.55 191.11 152.26 197.90 148.10 197.40 C 143.47 205.15 157.98 203.74 154.00 210.00 C 151.52 213.02 155.33 215.02 158.13 214.28 C 162.61 212.57 156.80 220.86 161.35 218.47 C 164.68 216.63 165.17 220.96 165.91 223.22 C 159.69 220.70 150.70 222.43 148.29 214.12 C 152.44 208.58 146.80 201.35 140.87 205.10 C 144.12 209.61 143.66 215.83 148.68 219.27 C 150.36 221.66 153.06 228.59 148.00 228.40 C 148.17 233.49 155.40 231.90 153.50 226.25 C 157.71 226.44 165.10 222.83 166.97 228.69 C 162.26 228.12 157.81 234.13 161.11 238.03 C 166.13 233.09 167.11 239.87 169.83 243.20 C 170.15 244.05 170.46 244.90 170.75 245.77 C 168.75 251.95 179.29 258.84 174.95 264.34 C 174.51 264.23 173.63 264.00 173.20 263.89 C 168.60 258.62 166.99 251.62 162.13 246.80 C 161.35 243.54 156.67 246.67 154.43 244.55 C 150.17 241.51 144.16 242.52 142.51 247.65 C 140.08 247.84 137.64 245.89 135.02 246.94 C 135.02 246.47 135.01 245.54 135.01 245.07 C 135.12 244.58 135.33 243.61 135.44 243.12 C 140.03 237.37 136.73 230.27 134.78 224.12 C 134.92 223.67 135.19 222.78 135.32 222.34 C 135.75 220.93 136.57 219.19 135.25 218.00 C 131.21 212.67 130.28 203.58 132.87 197.98 C 136.45 198.89 139.23 194.64 142.45 197.42 C 147.68 197.79 151.49 192.33 155.83 190.32 C 159.09 191.53 161.16 195.25 164.91 195.09 C 164.15 190.21 166.73 183.55 160.20 181.98 C 160.45 191.39 152.65 178.50 147.34 179.61 C 144.46 180.85 136.75 175.08 136.70 180.83 C 136.36 185.34 131.93 181.13 129.89 179.96 C 129.81 172.14 136.52 166.08 135.29 157.95 L 135.66 157.12 C 135.80 156.81 136.09 156.19 136.23 155.88 C 140.95 147.66 133.88 140.95 133.89 132.95 C 133.90 131.22 133.89 129.50 133.91 127.77 C 133.97 127.13 134.08 125.84 134.13 125.19 C 135.96 122.08 137.84 118.97 140.17 116.21 C 145.77 111.49 146.97 104.48 149.12 97.98 Z" />
</g>
<g id="#272e1373">
<path fill="#272e13" opacity="0.45" d=" M 200.20 92.68 C 201.73 97.07 200.59 101.84 200.77 106.37 L 200.12 105.83 C 200.04 101.44 200.12 97.06 200.20 92.68 Z" />
</g>
<g id="#78733afb">
<path fill="#78733a" opacity="1.00" d=" M 200.12 105.83 L 200.77 106.37 C 205.76 110.88 214.40 111.05 216.32 118.71 C 216.24 121.86 216.19 125.03 216.06 128.18 C 215.72 130.27 215.47 132.36 215.33 134.47 C 221.20 137.63 223.91 144.07 229.29 147.88 C 225.96 150.53 224.54 144.54 220.98 144.87 C 223.43 148.25 219.12 155.85 219.56 149.03 C 216.65 148.06 213.53 147.22 210.45 147.14 C 210.36 151.96 204.27 149.59 208.59 146.56 C 212.14 145.35 205.82 141.16 209.97 142.02 C 218.57 145.05 211.26 133.04 212.89 128.33 C 213.72 126.50 214.43 124.45 212.96 122.73 C 210.19 120.58 211.29 114.29 207.19 115.12 C 204.46 120.42 209.57 125.93 210.57 130.64 C 208.56 137.86 205.07 128.37 202.93 126.06 C 200.19 119.92 193.57 127.02 189.53 128.52 C 187.47 126.52 182.95 124.93 186.08 121.55 C 187.99 117.24 192.71 117.72 196.74 116.96 C 196.24 114.65 195.48 112.41 195.04 110.09 C 197.27 109.02 200.78 109.29 200.12 105.83 Z" />
</g>
<g id="#0000002e">
<path fill="#000000" opacity="0.18" d=" M 82.46 108.50 C 93.56 109.41 104.75 107.99 115.96 110.05 C 123.72 113.33 131.39 117.34 140.17 116.21 C 137.84 118.97 135.96 122.08 134.13 125.19 C 89.44 126.12 44.55 124.21 0.00 127.00 L 0.00 120.16 C 13.12 114.01 28.81 121.68 41.34 115.69 C 45.57 120.34 50.45 114.37 55.54 115.35 C 64.58 112.81 73.82 112.00 82.46 108.50 Z" />
</g>
<g id="#66703dff">
<path fill="#66703d" opacity="1.00" d=" M 149.99 115.00 C 151.01 110.09 157.26 109.59 160.77 112.21 C 159.98 114.83 159.82 116.73 163.03 115.12 C 161.65 116.90 163.63 118.08 164.73 119.30 C 168.65 122.59 170.13 127.64 171.89 132.25 C 171.65 141.29 181.60 126.94 181.41 137.35 C 179.03 135.77 176.99 137.80 174.96 138.98 C 176.76 133.72 167.45 139.08 164.55 137.34 L 165.13 136.55 C 166.28 135.11 167.41 133.65 168.38 132.09 C 170.88 126.92 163.91 124.12 159.78 125.85 C 161.44 124.88 166.96 124.67 163.84 122.25 C 159.84 122.80 155.82 123.20 151.84 123.80 C 150.79 126.65 150.64 130.08 148.21 132.19 C 147.77 127.75 147.22 123.12 142.82 120.84 C 144.50 117.88 149.68 118.91 149.99 115.00 Z" />
</g>
<g id="#909b61ff">
<path fill="#909b61" opacity="1.00" d=" M 207.19 115.12 C 211.29 114.29 210.19 120.58 212.96 122.73 C 208.66 123.28 210.27 126.61 212.89 128.33 C 211.26 133.04 218.57 145.05 209.97 142.02 C 206.01 140.23 209.74 135.09 204.99 133.98 C 203.56 128.59 193.25 134.55 199.20 135.78 C 202.78 136.19 199.56 140.23 197.38 139.98 C 196.67 137.43 196.62 134.22 193.98 132.81 C 194.31 135.80 195.08 138.72 195.96 141.59 C 193.64 140.43 189.28 141.96 189.67 138.21 C 190.72 135.11 183.23 133.70 185.96 132.08 C 191.25 132.65 182.66 126.31 182.99 131.09 C 183.58 133.51 186.06 138.23 181.41 137.35 C 181.60 126.94 171.65 141.29 171.89 132.25 C 175.39 130.10 179.65 129.33 182.87 126.79 C 182.40 124.07 181.91 119.53 186.08 121.55 C 182.95 124.93 187.47 126.52 189.53 128.52 C 193.57 127.02 200.19 119.92 202.93 126.06 C 205.07 128.37 208.56 137.86 210.57 130.64 C 209.57 125.93 204.46 120.42 207.19 115.12 Z" />
</g>
<g id="#3d301791">
<path fill="#3d3017" opacity="0.57" d=" M 216.32 118.71 C 217.78 121.73 216.55 125.09 216.06 128.18 C 216.19 125.03 216.24 121.86 216.32 118.71 Z" />
</g>
<g id="#c9baa0ff">
<path fill="#c9baa0" opacity="1.00" d=" M 212.89 128.33 C 210.27 126.61 208.66 123.28 212.96 122.73 C 214.43 124.45 213.72 126.50 212.89 128.33 Z" />
</g>
<g id="#0000003d">
<path fill="#000000" opacity="0.24" d=" M 0.00 127.00 C 44.55 124.21 89.44 126.12 134.13 125.19 C 134.08 125.84 133.97 127.13 133.91 127.77 C 133.74 128.12 133.40 128.80 133.23 129.14 C 88.98 133.57 44.12 127.51 0.00 133.97 L 0.00 127.00 Z" />
<path fill="#000000" opacity="0.24" d=" M 0.00 217.09 C 28.28 226.99 58.36 229.44 87.58 235.46 C 103.03 238.75 119.15 239.45 134.08 244.91 C 134.00 249.33 133.88 253.76 133.76 258.19 C 131.74 256.07 131.41 253.06 130.52 250.39 C 121.91 245.99 112.60 243.57 102.96 243.01 C 68.63 237.10 33.87 233.16 0.00 224.87 L 0.00 217.09 Z" />
</g>
<g id="#86764fff">
<path fill="#86764f" opacity="1.00" d=" M 159.78 125.85 C 163.91 124.12 170.88 126.92 168.38 132.09 C 166.78 125.00 157.57 137.35 165.13 136.55 L 164.55 137.34 C 159.25 139.37 152.31 126.23 159.78 125.85 Z" />
</g>
<g id="#0000005f">
<path fill="#000000" opacity="0.37" d=" M 133.23 129.14 C 133.40 128.80 133.74 128.12 133.91 127.77 C 133.89 129.50 133.90 131.22 133.89 132.95 C 118.28 138.40 101.12 136.23 85.28 140.31 C 82.68 140.87 85.16 142.93 86.32 143.68 C 102.30 146.19 117.83 151.11 133.92 153.09 C 135.40 153.05 135.71 154.85 136.23 155.88 C 136.09 156.19 135.80 156.81 135.66 157.12 C 109.55 149.67 80.76 148.52 53.33 148.59 C 42.75 147.65 31.79 150.38 21.51 146.71 C 18.74 145.72 13.07 145.28 12.99 141.18 C 45.63 133.26 79.59 134.95 112.87 133.81 C 119.01 131.63 128.87 134.73 133.23 129.14 Z" />
<path fill="#000000" opacity="0.37" d=" M 9.13 207.09 C 17.98 202.62 26.26 208.37 35.18 208.70 C 67.98 216.75 101.89 218.30 135.32 222.34 C 135.19 222.78 134.92 223.67 134.78 224.12 C 118.06 223.14 101.28 221.36 84.59 222.60 C 80.75 223.51 85.49 226.21 87.18 226.87 C 101.71 232.10 117.03 234.97 131.91 239.09 C 133.88 239.53 134.60 241.54 135.44 243.12 C 120.55 237.23 104.23 235.93 88.68 232.33 C 66.97 226.83 44.66 223.67 23.38 216.57 C 18.37 214.06 10.34 213.74 9.13 207.09 Z" />
</g>
<g id="#00000050">
<path fill="#000000" opacity="0.31" d=" M 0.00 133.97 C 44.12 127.51 88.98 133.57 133.23 129.14 C 128.87 134.73 119.01 131.63 112.87 133.81 C 79.59 134.95 45.63 133.26 12.99 141.18 C 13.07 145.28 18.74 145.72 21.51 146.71 C 31.79 150.38 42.75 147.65 53.33 148.59 C 80.76 148.52 109.55 149.67 135.66 157.12 L 135.29 157.95 C 107.67 153.88 79.48 149.43 51.59 153.57 C 34.43 154.36 17.09 154.33 0.00 152.89 L 0.00 133.97 Z" />
</g>
<g id="#757e41ff">
<path fill="#757e41" opacity="1.00" d=" M 182.99 131.09 C 182.66 126.31 191.25 132.65 185.96 132.08 C 183.23 133.70 190.72 135.11 189.67 138.21 C 189.28 141.96 193.64 140.43 195.96 141.59 C 201.64 138.87 202.21 144.80 203.14 148.98 C 198.70 150.34 194.51 146.24 190.30 148.25 C 187.09 154.26 190.90 161.27 196.46 164.19 C 192.53 168.02 190.25 160.96 185.96 161.93 C 185.63 164.11 186.87 165.88 187.92 167.64 C 180.27 168.55 189.52 177.41 193.61 172.80 C 198.50 168.79 186.35 173.91 188.38 169.30 C 188.57 165.07 192.43 169.86 194.69 168.78 C 196.24 167.61 197.54 166.08 198.28 164.27 C 198.52 163.67 199.00 162.48 199.23 161.88 C 198.64 166.12 200.40 168.49 204.20 168.79 C 198.45 167.18 198.10 184.89 203.68 178.72 C 203.77 176.18 203.66 173.63 204.13 171.13 C 207.34 171.15 211.24 170.55 213.20 173.76 C 210.06 172.50 207.60 174.08 205.90 176.71 C 209.98 176.69 213.90 178.12 217.58 176.06 C 218.43 179.15 219.65 185.14 224.03 183.43 C 224.96 184.83 226.01 186.21 226.21 187.93 C 219.04 192.28 222.39 179.53 215.36 184.26 C 212.65 185.37 217.58 188.38 214.77 190.45 C 209.51 188.69 215.32 181.94 210.20 181.04 C 209.59 184.65 208.49 185.87 206.17 189.05 C 207.59 191.84 209.18 194.54 210.85 197.19 C 210.98 198.79 211.08 200.39 211.21 202.00 C 208.07 201.85 208.00 200.30 209.68 198.12 C 202.24 193.98 198.90 185.02 198.79 176.89 C 194.62 178.00 193.11 183.10 189.31 185.06 C 189.24 184.63 189.09 183.75 189.02 183.32 C 191.32 181.88 191.53 179.35 188.50 179.03 C 189.21 177.73 189.89 176.39 190.12 174.91 C 186.99 174.72 185.99 178.65 183.16 178.95 C 181.85 177.24 182.90 175.57 183.78 173.99 C 172.23 176.65 186.37 163.08 179.26 160.87 C 179.36 162.79 180.53 167.25 177.41 166.85 C 177.51 163.19 174.32 164.72 171.98 164.94 C 171.05 161.42 175.06 162.03 177.20 160.90 C 174.60 158.35 173.19 155.91 176.06 152.84 C 173.98 153.28 172.08 154.25 170.09 154.95 C 169.49 151.71 170.49 148.42 169.15 145.25 C 173.29 145.66 172.44 140.82 174.96 138.98 C 176.99 137.80 179.03 135.77 181.41 137.35 C 186.06 138.23 183.58 133.51 182.99 131.09 Z" />
</g>
<g id="#bcb095ff">
<path fill="#bcb095" opacity="1.00" d=" M 165.13 136.55 C 157.57 137.35 166.78 125.00 168.38 132.09 C 167.41 133.65 166.28 135.11 165.13 136.55 Z" />
</g>
<g id="#888f51fe">
<path fill="#888f51" opacity="1.00" d=" M 199.20 135.78 C 193.25 134.55 203.56 128.59 204.99 133.98 C 209.74 135.09 206.01 140.23 209.97 142.02 C 205.82 141.16 212.14 145.35 208.59 146.56 C 204.27 149.59 210.36 151.96 210.45 147.14 C 213.53 147.22 216.65 148.06 219.56 149.03 C 219.12 155.85 223.43 148.25 220.98 144.87 C 224.54 144.54 225.96 150.53 229.29 147.88 C 234.00 151.55 236.44 157.23 238.16 162.79 C 238.13 166.62 238.35 170.44 238.82 174.24 C 238.91 175.03 239.10 176.60 239.19 177.39 C 234.87 178.59 226.61 177.63 229.95 171.63 C 225.88 171.87 222.86 162.09 229.00 165.90 C 230.78 159.77 223.53 163.22 219.92 162.30 C 220.11 165.70 222.10 168.69 222.07 172.16 C 219.34 167.73 212.55 168.78 211.76 162.90 C 208.67 164.77 208.97 170.64 204.20 168.79 C 200.40 168.49 198.64 166.12 199.23 161.88 C 198.94 159.29 196.77 156.11 199.18 153.94 C 202.45 154.67 204.57 157.88 206.82 160.19 C 199.90 157.57 201.73 165.33 206.78 166.13 C 207.04 164.41 207.20 162.68 207.41 160.95 C 215.20 158.99 207.06 151.35 203.14 148.98 C 202.21 144.80 201.64 138.87 195.96 141.59 C 195.08 138.72 194.31 135.80 193.98 132.81 C 196.62 134.22 196.67 137.43 197.38 139.98 C 199.56 140.23 202.78 136.19 199.20 135.78 Z" />
</g>
<g id="#01010074">
<path fill="#010100" opacity="0.45" d=" M 85.28 140.31 C 101.12 136.23 118.28 138.40 133.89 132.95 C 133.88 140.95 140.95 147.66 136.23 155.88 C 135.71 154.85 135.40 153.05 133.92 153.09 C 117.83 151.11 102.30 146.19 86.32 143.68 C 85.16 142.93 82.68 140.87 85.28 140.31 Z" />
</g>
<g id="#737945ff">
<path fill="#737945" opacity="1.00" d=" M 169.39 138.97 C 172.33 140.22 169.70 143.20 169.15 145.25 C 168.57 145.35 167.39 145.55 166.80 145.65 C 168.12 143.62 168.91 141.33 169.39 138.97 Z" />
</g>
<g id="#5f683bff">
<path fill="#5f683b" opacity="1.00" d=" M 166.80 145.65 C 167.39 145.55 168.57 145.35 169.15 145.25 C 170.49 148.42 169.49 151.71 170.09 154.95 C 172.08 154.25 173.98 153.28 176.06 152.84 C 173.19 155.91 174.60 158.35 177.20 160.90 C 175.06 162.03 171.05 161.42 171.98 164.94 C 174.32 164.72 177.51 163.19 177.41 166.85 C 180.53 167.25 179.36 162.79 179.26 160.87 C 186.37 163.08 172.23 176.65 183.78 173.99 C 182.90 175.57 181.85 177.24 183.16 178.95 C 185.99 178.65 186.99 174.72 190.12 174.91 C 189.89 176.39 189.21 177.73 188.50 179.03 C 186.86 181.77 184.12 186.85 189.02 183.32 C 189.09 183.75 189.24 184.63 189.31 185.06 C 190.50 191.28 200.41 190.48 196.88 197.71 C 192.40 195.92 194.51 201.03 194.61 203.65 C 196.81 203.85 198.46 204.63 198.27 207.15 C 197.85 207.41 197.00 207.95 196.58 208.22 C 194.77 204.31 191.28 203.36 187.42 202.95 C 187.61 197.35 185.69 192.40 188.08 187.01 C 182.50 185.28 184.35 192.20 181.13 194.85 C 188.02 194.24 184.41 203.99 179.96 205.67 C 183.94 206.38 186.95 208.79 187.16 213.05 C 184.96 216.08 186.62 217.95 189.99 218.47 C 186.95 222.51 179.49 216.19 183.06 211.97 C 186.02 208.73 178.00 204.84 177.88 209.46 C 183.15 208.98 177.52 214.34 180.55 216.41 C 183.36 219.03 179.93 219.95 177.73 221.04 C 174.71 215.69 175.22 220.14 171.31 221.62 C 170.00 225.44 176.47 228.80 171.13 230.89 C 170.17 233.48 170.15 236.23 170.01 238.97 C 169.93 240.38 169.86 241.79 169.83 243.20 C 167.11 239.87 166.13 233.09 161.11 238.03 C 157.81 234.13 162.26 228.12 166.97 228.69 C 165.10 222.83 157.71 226.44 153.50 226.25 C 155.40 231.90 148.17 233.49 148.00 228.40 C 153.06 228.59 150.36 221.66 148.68 219.27 C 143.66 215.83 144.12 209.61 140.87 205.10 C 146.80 201.35 152.44 208.58 148.29 214.12 C 150.70 222.43 159.69 220.70 165.91 223.22 C 165.17 220.96 164.68 216.63 161.35 218.47 C 156.80 220.86 162.61 212.57 158.13 214.28 C 155.33 215.02 151.52 213.02 154.00 210.00 C 157.98 203.74 143.47 205.15 148.10 197.40 C 152.26 197.90 158.55 191.11 159.46 197.72 C 163.63 196.71 172.44 200.93 168.58 192.39 C 165.94 185.86 174.87 183.00 174.01 176.98 C 171.16 176.07 170.31 178.55 169.48 180.71 C 166.44 179.48 162.63 178.10 164.09 174.15 C 167.09 171.71 171.54 177.11 173.02 173.03 C 175.96 168.92 168.13 173.77 167.68 169.27 C 163.88 170.77 160.15 172.97 156.20 173.63 C 152.61 172.12 155.31 168.61 155.72 165.95 C 155.76 163.01 152.14 162.21 151.00 159.96 C 153.11 154.78 159.34 152.70 161.89 147.93 C 162.15 145.46 165.07 146.23 166.80 145.65 Z" />
</g>
<g id="#756630ff">
<path fill="#756630" opacity="1.00" d=" M 190.30 148.25 C 194.51 146.24 198.70 150.34 203.14 148.98 C 207.06 151.35 215.20 158.99 207.41 160.95 L 206.82 160.19 C 204.57 157.88 202.45 154.67 199.18 153.94 C 196.77 156.11 198.94 159.29 199.23 161.88 C 199.00 162.48 198.52 163.67 198.28 164.27 C 197.83 164.25 196.92 164.21 196.46 164.19 C 190.90 161.27 187.09 154.26 190.30 148.25 Z" />
</g>
<g id="#00000045">
<path fill="#000000" opacity="0.27" d=" M 51.59 153.57 C 79.48 149.43 107.67 153.88 135.29 157.95 C 136.52 166.08 129.81 172.14 129.89 179.96 C 129.65 185.56 135.51 187.86 138.83 191.27 C 140.00 195.06 135.02 195.97 132.87 197.98 C 130.28 203.58 131.21 212.67 135.25 218.00 C 134.00 223.03 125.73 218.34 122.37 218.75 C 91.17 215.25 59.85 211.15 30.01 200.96 C 19.99 199.92 10.01 195.32 0.00 195.91 L 0.00 189.05 C 37.69 196.35 73.45 213.11 112.40 213.55 C 118.67 216.30 125.53 205.17 119.89 202.25 C 113.51 202.74 122.66 195.35 116.90 193.24 C 113.92 192.72 113.06 189.80 116.69 189.51 C 118.07 186.27 113.53 189.65 111.98 189.82 C 113.14 182.69 107.11 174.49 116.13 170.24 C 113.57 171.36 111.59 169.96 111.68 167.15 C 116.82 172.83 120.05 162.43 114.78 160.23 C 77.30 148.05 38.26 162.71 0.00 157.98 L 0.00 152.89 C 17.09 154.33 34.43 154.36 51.59 153.57 Z" />
</g>
<g id="#0000003c">
<path fill="#000000" opacity="0.24" d=" M 0.00 157.98 C 38.26 162.71 77.30 148.05 114.78 160.23 C 120.05 162.43 116.82 172.83 111.68 167.15 C 111.59 169.96 113.57 171.36 116.13 170.24 C 107.11 174.49 113.14 182.69 111.98 189.82 C 113.53 189.65 118.07 186.27 116.69 189.51 C 113.06 189.80 113.92 192.72 116.90 193.24 C 122.66 195.35 113.51 202.74 119.89 202.25 C 125.53 205.17 118.67 216.30 112.40 213.55 C 73.45 213.11 37.69 196.35 0.00 189.05 L 0.00 182.07 C 18.74 188.77 38.53 192.19 56.93 200.00 C 66.92 201.53 76.68 204.34 86.57 206.44 C 89.35 205.35 91.82 203.00 95.01 203.52 C 91.69 198.56 96.71 191.66 92.72 186.44 C 90.84 182.79 88.16 179.40 89.91 175.12 C 87.15 172.35 86.77 169.03 87.80 165.36 C 83.56 163.64 79.22 162.15 75.04 160.30 C 65.73 163.89 55.46 159.78 45.99 162.97 C 30.67 161.93 15.25 165.41 0.00 163.21 L 0.00 157.98 Z" />
</g>
<g id="#00000033">
<path fill="#000000" opacity="0.20" d=" M 45.99 162.97 C 55.46 159.78 65.73 163.89 75.04 160.30 C 79.22 162.15 83.56 163.64 87.80 165.36 C 86.77 169.03 87.15 172.35 89.91 175.12 C 88.16 179.40 90.84 182.79 92.72 186.44 C 96.71 191.66 91.69 198.56 95.01 203.52 C 91.82 203.00 89.35 205.35 86.57 206.44 C 76.68 204.34 66.92 201.53 56.93 200.00 C 38.53 192.19 18.74 188.77 0.00 182.07 L 0.00 163.21 C 15.25 165.41 30.67 161.93 45.99 162.97 Z" />
</g>
<g id="#cbbca6ff">
<path fill="#cbbca6" opacity="1.00" d=" M 206.78 166.13 C 201.73 165.33 199.90 157.57 206.82 160.19 L 207.41 160.95 C 207.20 162.68 207.04 164.41 206.78 166.13 Z" />
</g>
<g id="#8b9655ff">
<path fill="#8b9655" opacity="1.00" d=" M 185.96 161.93 C 190.25 160.96 192.53 168.02 196.46 164.19 C 196.92 164.21 197.83 164.25 198.28 164.27 C 197.54 166.08 196.24 167.61 194.69 168.78 C 192.43 169.86 188.57 165.07 188.38 169.30 C 186.35 173.91 198.50 168.79 193.61 172.80 C 189.52 177.41 180.27 168.55 187.92 167.64 C 186.87 165.88 185.63 164.11 185.96 161.93 Z" />
</g>
<g id="#666c2efd">
<path fill="#666c2e" opacity="1.00" d=" M 219.92 162.30 C 223.53 163.22 230.78 159.77 229.00 165.90 C 222.86 162.09 225.88 171.87 229.95 171.63 C 226.61 177.63 234.87 178.59 239.19 177.39 C 245.13 178.21 250.97 179.82 256.22 182.77 C 252.89 185.12 248.83 180.39 247.18 184.96 C 247.99 179.78 241.53 183.55 241.51 186.77 C 238.93 187.38 239.76 181.34 237.00 184.00 C 234.26 186.22 233.72 183.93 233.89 181.27 C 230.64 182.88 227.43 180.36 224.03 183.43 C 219.65 185.14 218.43 179.15 217.58 176.06 C 213.90 178.12 209.98 176.69 205.90 176.71 C 207.60 174.08 210.06 172.50 213.20 173.76 C 211.24 170.55 207.34 171.15 204.13 171.13 C 203.66 173.63 203.77 176.18 203.68 178.72 C 198.10 184.89 198.45 167.18 204.20 168.79 C 208.97 170.64 208.67 164.77 211.76 162.90 C 212.55 168.78 219.34 167.73 222.07 172.16 C 222.10 168.69 220.11 165.70 219.92 162.30 Z" />
</g>
<g id="#55612aba">
<path fill="#55612a" opacity="0.73" d=" M 238.16 162.79 C 238.77 166.58 238.99 170.39 238.82 174.24 C 238.35 170.44 238.13 166.62 238.16 162.79 Z" />
</g>
<g id="#848e54ff">
<path fill="#848e54" opacity="1.00" d=" M 189.31 185.06 C 193.11 183.10 194.62 178.00 198.79 176.89 C 198.90 185.02 202.24 193.98 209.68 198.12 C 208.00 200.30 208.07 201.85 211.21 202.00 C 211.51 205.77 208.22 207.30 206.60 203.53 C 202.23 207.06 203.37 200.30 202.78 197.00 C 199.67 196.25 196.08 200.33 199.79 202.23 C 202.64 203.60 201.74 209.71 198.27 207.15 C 198.46 204.63 196.81 203.85 194.61 203.65 C 194.51 201.03 192.40 195.92 196.88 197.71 C 200.41 190.48 190.50 191.28 189.31 185.06 Z" />
</g>
<g id="#464a25fd">
<path fill="#464a25" opacity="1.00" d=" M 136.70 180.83 C 136.75 175.08 144.46 180.85 147.34 179.61 C 152.65 178.50 160.45 191.39 160.20 181.98 C 166.73 183.55 164.15 190.21 164.91 195.09 C 161.16 195.25 159.09 191.53 155.83 190.32 C 151.49 192.33 147.68 197.79 142.45 197.42 C 139.23 194.64 136.45 198.89 132.87 197.98 C 135.02 195.97 140.00 195.06 138.83 191.27 C 135.51 187.86 129.65 185.56 129.89 179.96 C 131.93 181.13 136.36 185.34 136.70 180.83 Z" />
</g>
<g id="#8e865bff">
<path fill="#8e865b" opacity="1.00" d=" M 188.50 179.03 C 191.53 179.35 191.32 181.88 189.02 183.32 C 184.12 186.85 186.86 181.77 188.50 179.03 Z" />
</g>
<g id="#8fa060ff">
<path fill="#8fa060" opacity="1.00" d=" M 210.20 181.04 C 215.32 181.94 209.51 188.69 214.77 190.45 C 216.39 191.81 216.36 193.79 216.32 195.73 C 217.83 197.31 220.84 197.53 221.12 200.04 C 217.67 199.27 213.93 199.04 210.85 197.19 C 209.18 194.54 207.59 191.84 206.17 189.05 C 208.49 185.87 209.59 184.65 210.20 181.04 Z" />
</g>
<g id="#7f8e4cff">
<path fill="#7f8e4c" opacity="1.00" d=" M 224.03 183.43 C 227.43 180.36 230.64 182.88 233.89 181.27 C 233.72 183.93 234.26 186.22 237.00 184.00 C 239.76 181.34 238.93 187.38 241.51 186.77 C 241.53 183.55 247.99 179.78 247.18 184.96 C 248.83 180.39 252.89 185.12 256.22 182.77 C 258.35 183.79 260.20 185.28 262.01 186.79 C 258.85 190.63 252.92 181.01 254.35 187.87 C 253.15 189.85 251.97 188.07 250.86 187.09 C 245.70 183.47 242.10 189.74 237.18 190.19 C 232.93 194.06 238.08 197.47 241.88 196.95 C 240.05 202.15 233.09 200.66 229.09 199.09 C 228.16 200.27 228.75 201.79 228.70 203.15 C 226.78 201.87 225.83 200.02 226.50 197.75 C 223.65 201.03 218.00 201.44 216.75 205.89 C 214.51 205.46 214.22 201.92 211.21 202.00 C 211.08 200.39 210.98 198.79 210.85 197.19 C 213.93 199.04 217.67 199.27 221.12 200.04 C 220.84 197.53 217.83 197.31 216.32 195.73 C 216.36 193.79 216.39 191.81 214.77 190.45 C 217.58 188.38 212.65 185.37 215.36 184.26 C 222.39 179.53 219.04 192.28 226.21 187.93 C 226.01 186.21 224.96 184.83 224.03 183.43 Z" />
</g>
<g id="#92a253fe">
<path fill="#92a253" opacity="1.00" d=" M 254.35 187.87 C 252.92 181.01 258.85 190.63 262.01 186.79 C 261.20 190.53 260.86 194.37 261.12 198.19 C 258.82 200.17 255.94 201.24 253.17 202.37 C 249.84 202.71 250.27 197.93 246.86 199.71 C 243.66 201.44 244.91 194.28 241.88 196.95 C 238.08 197.47 232.93 194.06 237.18 190.19 C 242.10 189.74 245.70 183.47 250.86 187.09 C 244.28 186.07 246.55 199.03 252.55 196.53 C 257.55 197.60 257.21 190.26 254.35 187.87 Z" />
</g>
<g id="#798647ff">
<path fill="#798647" opacity="1.00" d=" M 181.13 194.85 C 184.35 192.20 182.50 185.28 188.08 187.01 C 185.69 192.40 187.61 197.35 187.42 202.95 C 191.28 203.36 194.77 204.31 196.58 208.22 C 195.51 211.25 191.86 206.90 189.54 209.85 C 186.45 207.56 188.18 211.20 187.16 213.05 C 186.95 208.79 183.94 206.38 179.96 205.67 C 184.41 203.99 188.02 194.24 181.13 194.85 Z" />
</g>
<g id="#afbd79ff">
<path fill="#afbd79" opacity="1.00" d=" M 252.55 196.53 C 246.55 199.03 244.28 186.07 250.86 187.09 C 251.97 188.07 253.15 189.85 254.35 187.87 C 257.21 190.26 257.55 197.60 252.55 196.53 Z" />
</g>
<g id="#676f37ed">
<path fill="#676f37" opacity="0.93" d=" M 262.01 186.79 C 266.58 189.50 265.29 195.80 261.12 198.19 C 260.86 194.37 261.20 190.53 262.01 186.79 Z" />
</g>
<g id="#00000052">
<path fill="#000000" opacity="0.32" d=" M 0.00 195.91 C 10.01 195.32 19.99 199.92 30.01 200.96 C 59.85 211.15 91.17 215.25 122.37 218.75 C 125.73 218.34 134.00 223.03 135.25 218.00 C 136.57 219.19 135.75 220.93 135.32 222.34 C 101.89 218.30 67.98 216.75 35.18 208.70 C 26.26 208.37 17.98 202.62 9.13 207.09 C 10.34 213.74 18.37 214.06 23.38 216.57 C 44.66 223.67 66.97 226.83 88.68 232.33 C 104.23 235.93 120.55 237.23 135.44 243.12 C 135.33 243.61 135.12 244.58 135.01 245.07 L 134.08 244.91 C 119.15 239.45 103.03 238.75 87.58 235.46 C 58.36 229.44 28.28 226.99 0.00 217.09 L 0.00 195.91 Z" />
</g>
<g id="#6a732efe">
<path fill="#6a732e" opacity="1.00" d=" M 241.88 196.95 C 244.91 194.28 243.66 201.44 246.86 199.71 C 250.27 197.93 249.84 202.71 253.17 202.37 C 252.96 202.62 252.54 203.11 252.33 203.35 C 247.97 204.53 243.62 205.69 239.22 206.66 C 236.16 205.47 232.94 206.76 229.96 207.52 C 228.69 213.27 223.05 214.41 217.92 215.01 C 214.92 214.96 212.21 215.85 210.00 217.92 C 206.81 215.48 215.80 212.12 209.58 211.38 C 200.24 205.00 204.89 219.87 199.23 217.11 C 199.83 211.28 190.86 214.58 189.54 209.85 C 191.86 206.90 195.51 211.25 196.58 208.22 C 197.00 207.95 197.85 207.41 198.27 207.15 C 201.74 209.71 202.64 203.60 199.79 202.23 C 196.08 200.33 199.67 196.25 202.78 197.00 C 203.37 200.30 202.23 207.06 206.60 203.53 C 208.22 207.30 211.51 205.77 211.21 202.00 C 214.22 201.92 214.51 205.46 216.75 205.89 C 218.00 201.44 223.65 201.03 226.50 197.75 C 225.83 200.02 226.78 201.87 228.70 203.15 C 228.75 201.79 228.16 200.27 229.09 199.09 C 233.09 200.66 240.05 202.15 241.88 196.95 M 220.22 208.17 C 218.47 209.10 218.14 213.15 220.99 212.02 C 222.75 212.45 222.78 206.33 220.22 208.17 Z" />
</g>
<g id="#0101001f">
<path fill="#010100" opacity="0.12" d=" M 239.22 206.66 C 243.62 205.69 247.97 204.53 252.33 203.35 C 250.48 206.85 245.66 206.31 243.18 209.24 C 242.94 212.84 244.08 216.67 242.31 220.00 C 246.56 223.63 243.64 229.88 245.36 234.72 C 240.25 242.06 244.69 251.23 243.16 259.31 C 249.51 259.85 242.56 265.67 239.07 264.32 C 234.03 264.67 239.14 272.49 233.17 269.02 C 238.36 275.58 229.06 276.70 224.43 278.50 C 222.03 280.92 220.14 285.51 216.34 285.47 C 211.46 283.78 214.48 293.25 208.75 290.54 C 204.32 286.90 203.98 295.31 204.10 297.74 C 207.27 300.73 212.39 303.00 211.95 308.17 C 207.74 302.07 197.68 299.15 200.12 290.24 C 200.67 286.80 201.02 283.36 200.96 279.89 C 205.33 272.90 212.51 268.02 213.34 259.12 C 213.40 257.55 213.53 254.41 213.59 252.84 C 218.86 242.53 231.77 238.12 235.97 227.00 C 239.32 220.74 238.92 213.54 239.22 206.66 Z" />
</g>
<g id="#7b823efc">
<path fill="#7b823e" opacity="1.00" d=" M 229.96 207.52 C 232.94 206.76 236.16 205.47 239.22 206.66 C 238.92 213.54 239.32 220.74 235.97 227.00 C 231.77 238.12 218.86 242.53 213.59 252.84 C 213.53 254.41 213.40 257.55 213.34 259.12 C 212.51 268.02 205.33 272.90 200.96 279.89 C 199.58 283.09 200.16 286.82 200.12 290.24 C 197.68 299.15 207.74 302.07 211.95 308.17 C 213.17 310.44 214.82 312.43 216.66 314.24 L 217.08 314.98 C 217.93 316.64 218.88 318.26 219.91 319.83 C 217.17 322.87 212.40 324.76 213.39 329.49 C 210.62 331.25 214.91 331.44 216.09 332.27 C 214.97 335.01 211.49 337.30 213.90 340.45 C 210.49 340.53 205.83 338.13 202.24 340.67 C 199.85 342.54 196.95 342.14 194.89 340.03 C 194.84 339.64 194.75 338.86 194.70 338.47 C 198.40 339.83 202.18 337.56 203.46 333.99 C 211.73 335.93 201.63 329.95 198.60 328.49 C 198.44 324.03 193.96 324.02 191.04 325.98 C 187.37 323.06 181.45 317.29 186.99 313.17 C 181.36 312.35 183.00 306.38 184.34 302.43 C 180.82 300.75 182.81 294.02 178.43 295.14 C 177.56 301.03 174.44 295.34 175.10 292.26 C 178.76 288.89 184.04 287.41 188.80 289.22 C 188.29 292.31 188.52 295.41 189.78 298.31 C 188.65 300.26 182.65 295.87 184.25 299.77 C 187.36 304.15 190.16 311.41 196.85 309.61 C 203.12 305.28 198.64 317.39 204.88 317.91 C 207.28 314.59 206.91 318.82 208.85 320.19 C 209.85 317.14 209.82 313.72 208.89 310.68 C 205.90 310.11 201.80 309.94 200.57 306.57 C 202.81 300.90 196.19 303.51 196.02 299.97 C 195.79 297.31 193.21 296.50 191.09 295.76 C 188.22 287.87 196.58 285.07 198.98 279.09 C 194.92 279.00 190.89 278.60 186.90 277.89 C 188.72 270.83 197.91 281.37 200.97 275.02 C 195.66 271.77 184.46 274.85 179.69 267.10 C 183.71 269.57 181.19 264.33 181.23 262.10 C 183.82 260.36 187.02 263.82 189.22 261.18 C 189.83 264.48 187.76 265.48 184.77 265.38 C 188.28 267.22 192.20 266.28 195.92 266.88 C 202.47 268.73 209.72 261.83 211.99 255.76 C 209.81 256.46 208.03 257.94 206.24 259.30 C 205.43 258.53 204.61 257.76 203.79 257.01 C 206.58 255.75 210.35 253.99 208.87 250.23 C 206.09 247.83 203.26 250.39 200.90 252.03 C 200.30 247.02 209.01 249.58 206.12 245.03 C 211.09 246.03 209.41 238.29 214.02 238.08 C 216.42 237.40 215.68 240.91 217.73 241.23 C 217.68 238.00 217.14 234.63 214.44 232.51 C 212.23 228.29 217.61 231.73 219.67 230.71 C 221.01 229.26 223.67 226.34 225.01 224.89 C 225.32 227.14 222.39 232.52 226.65 230.79 C 228.66 226.40 234.13 225.53 236.06 220.93 C 234.18 221.09 230.56 224.40 230.16 221.09 C 229.59 219.19 235.28 219.65 232.92 218.01 C 228.48 216.01 234.83 208.72 229.96 207.52 M 190.98 312.00 C 190.35 316.81 196.72 320.60 201.02 319.02 C 201.44 315.09 194.62 317.72 194.14 313.93 C 194.37 311.77 192.57 311.87 190.98 312.00 M 214.18 317.25 C 212.49 317.83 213.39 320.60 214.84 320.73 C 216.65 320.15 216.12 316.96 214.18 317.25 Z" />
</g>
<g id="#8f9c57ff">
<path fill="#8f9c57" opacity="1.00" d=" M 177.88 209.46 C 178.00 204.84 186.02 208.73 183.06 211.97 C 179.49 216.19 186.95 222.51 189.99 218.47 C 186.62 217.95 184.96 216.08 187.16 213.05 C 188.18 211.20 186.45 207.56 189.54 209.85 C 190.86 214.58 199.83 211.28 199.23 217.11 C 197.18 220.52 196.59 223.23 194.48 218.68 C 196.35 223.87 190.25 223.65 186.93 224.16 C 188.33 227.19 192.03 231.28 187.07 233.07 C 185.39 230.16 187.32 223.87 181.42 225.71 C 178.46 226.10 177.53 223.59 177.73 221.04 C 179.93 219.95 183.36 219.03 180.55 216.41 C 177.52 214.34 183.15 208.98 177.88 209.46 Z" />
</g>
<g id="#a09663ff">
<path fill="#a09663" opacity="1.00" d=" M 220.22 208.17 C 222.78 206.33 222.75 212.45 220.99 212.02 C 218.14 213.15 218.47 209.10 220.22 208.17 Z" />
</g>
<g id="#8d9e62ff">
<path fill="#8d9e62" opacity="1.00" d=" M 217.92 215.01 C 223.05 214.41 228.69 213.27 229.96 207.52 C 234.83 208.72 228.48 216.01 232.92 218.01 C 235.28 219.65 229.59 219.19 230.16 221.09 C 230.56 224.40 234.18 221.09 236.06 220.93 C 234.13 225.53 228.66 226.40 226.65 230.79 C 222.39 232.52 225.32 227.14 225.01 224.89 C 223.67 226.34 221.01 229.26 219.67 230.71 C 217.61 231.73 212.23 228.29 214.44 232.51 C 217.14 234.63 217.68 238.00 217.73 241.23 C 215.68 240.91 216.42 237.40 214.02 238.08 C 209.41 238.29 211.09 246.03 206.12 245.03 C 198.77 242.68 195.38 248.89 197.29 255.12 C 190.87 257.55 191.98 250.20 189.37 247.74 C 190.59 251.52 187.87 249.53 186.06 248.21 C 182.78 247.34 180.13 240.54 188.01 244.03 C 194.73 242.50 203.25 239.98 206.18 233.16 C 209.33 231.74 210.22 230.09 207.70 227.47 C 212.30 228.62 219.03 225.64 216.48 220.11 C 219.68 219.80 221.47 216.80 217.92 215.01 Z" />
</g>
<g id="#7a7f3bff">
<path fill="#7a7f3b" opacity="1.00" d=" M 199.23 217.11 C 204.89 219.87 200.24 205.00 209.58 211.38 C 215.80 212.12 206.81 215.48 210.00 217.92 C 212.21 215.85 214.92 214.96 217.92 215.01 C 221.47 216.80 219.68 219.80 216.48 220.11 C 219.03 225.64 212.30 228.62 207.70 227.47 C 210.22 230.09 209.33 231.74 206.18 233.16 C 203.25 239.98 194.73 242.50 188.01 244.03 C 180.13 240.54 182.78 247.34 186.06 248.21 C 185.13 248.73 183.87 248.85 183.25 249.79 C 180.58 253.56 183.73 258.62 186.36 253.11 C 188.43 255.75 183.47 260.61 180.98 258.09 C 176.05 255.96 181.34 248.71 179.95 245.04 C 176.89 245.40 173.66 247.72 170.75 245.77 C 170.46 244.90 170.15 244.05 169.83 243.20 C 169.86 241.79 169.93 240.38 170.01 238.97 C 172.57 240.19 174.87 240.24 175.12 236.85 C 175.88 234.57 177.22 240.95 178.57 237.56 C 180.34 233.06 183.68 242.55 184.98 237.06 C 182.28 231.48 175.63 233.97 171.13 230.89 C 176.47 228.80 170.00 225.44 171.31 221.62 C 175.22 220.14 174.71 215.69 177.73 221.04 C 177.53 223.59 178.46 226.10 181.42 225.71 C 187.32 223.87 185.39 230.16 187.07 233.07 C 192.03 231.28 188.33 227.19 186.93 224.16 C 190.25 223.65 196.35 223.87 194.48 218.68 C 196.59 223.23 197.18 220.52 199.23 217.11 Z" />
</g>
<g id="#01010072">
<path fill="#010100" opacity="0.45" d=" M 84.59 222.60 C 101.28 221.36 118.06 223.14 134.78 224.12 C 136.73 230.27 140.03 237.37 135.44 243.12 C 134.60 241.54 133.88 239.53 131.91 239.09 C 117.03 234.97 101.71 232.10 87.18 226.87 C 85.49 226.21 80.75 223.51 84.59 222.60 Z" />
</g>
<g id="#0000002d">
<path fill="#000000" opacity="0.18" d=" M 0.00 224.87 C 33.87 233.16 68.63 237.10 102.96 243.01 C 112.60 243.57 121.91 245.99 130.52 250.39 C 131.41 253.06 131.74 256.07 133.76 258.19 C 133.99 258.51 134.45 259.14 134.67 259.46 C 137.43 264.47 141.27 268.69 144.97 273.00 C 147.37 276.94 147.02 281.90 149.14 286.01 C 144.27 284.34 146.53 277.39 142.38 275.65 C 134.30 276.11 127.64 268.17 119.14 270.73 C 115.26 269.61 112.43 266.22 108.40 265.48 C 104.29 264.18 100.43 267.35 96.30 266.92 C 95.09 264.88 94.14 262.05 91.33 261.88 C 84.93 261.06 80.24 254.91 73.46 255.49 C 67.40 249.16 57.93 249.61 50.69 245.52 C 46.81 246.57 43.84 244.36 40.96 242.08 C 27.43 238.47 13.52 236.47 0.00 232.73 L 0.00 224.87 Z" />
</g>
<g id="#989459ff">
<path fill="#989459" opacity="1.00" d=" M 171.13 230.89 C 175.63 233.97 182.28 231.48 184.98 237.06 C 183.68 242.55 180.34 233.06 178.57 237.56 C 177.22 240.95 175.88 234.57 175.12 236.85 C 174.87 240.24 172.57 240.19 170.01 238.97 C 170.15 236.23 170.17 233.48 171.13 230.89 Z" />
</g>
<g id="#00000023">
<path fill="#000000" opacity="0.14" d=" M 0.00 232.73 C 13.52 236.47 27.43 238.47 40.96 242.08 C 43.84 244.36 46.81 246.57 50.69 245.52 C 57.93 249.61 67.40 249.16 73.46 255.49 C 80.24 254.91 84.93 261.06 91.33 261.88 C 94.14 262.05 95.09 264.88 96.30 266.92 C 100.43 267.35 104.29 264.18 108.40 265.48 C 112.43 266.22 115.26 269.61 119.14 270.73 C 127.64 268.17 134.30 276.11 142.38 275.65 C 146.53 277.39 144.27 284.34 149.14 286.01 C 150.56 289.31 151.52 292.80 152.65 296.21 C 153.05 297.48 153.48 298.75 153.95 300.00 C 154.04 302.01 154.05 304.03 154.00 306.05 L 153.04 305.94 C 152.12 301.48 150.48 294.81 144.59 295.63 C 138.82 299.17 134.50 289.80 130.10 295.14 C 122.89 296.37 117.36 291.07 110.39 291.62 C 108.40 290.32 106.62 286.94 103.98 288.96 C 98.02 290.93 93.17 283.45 87.06 284.50 C 82.41 284.34 79.19 279.52 74.06 280.88 C 69.12 278.14 63.25 275.67 57.40 276.60 C 57.14 273.51 52.03 266.34 51.71 273.02 C 46.25 265.28 36.60 266.08 28.19 266.39 C 25.03 263.09 20.90 259.45 15.95 260.62 C 10.73 259.01 13.60 248.40 6.35 252.53 C 2.67 254.12 2.91 249.33 0.00 248.39 L 0.00 232.73 Z" />
</g>
<g id="#675d34ff">
<path fill="#675d34" opacity="1.00" d=" M 142.51 247.65 C 144.16 242.52 150.17 241.51 154.43 244.55 C 156.67 246.67 161.35 243.54 162.13 246.80 C 155.75 244.98 153.60 262.17 161.34 259.39 C 160.45 261.28 159.81 263.26 159.23 265.26 C 152.07 265.25 147.49 258.10 142.24 254.04 C 143.02 258.63 138.42 260.37 134.67 259.46 C 134.82 255.28 134.93 251.11 135.02 246.94 C 137.64 245.89 140.08 247.84 142.51 247.65 Z" />
</g>
<g id="#363b1dbf">
<path fill="#363b1d" opacity="0.75" d=" M 134.08 244.91 L 135.01 245.07 C 135.01 245.54 135.02 246.47 135.02 246.94 C 134.93 251.11 134.82 255.28 134.67 259.46 C 134.45 259.14 133.99 258.51 133.76 258.19 C 133.88 253.76 134.00 249.33 134.08 244.91 Z" />
</g>
<g id="#82914eff">
<path fill="#82914e" opacity="1.00" d=" M 170.75 245.77 C 173.66 247.72 176.89 245.40 179.95 245.04 C 181.34 248.71 176.05 255.96 180.98 258.09 C 183.47 260.61 188.43 255.75 186.36 253.11 C 185.46 251.88 184.46 250.72 183.25 249.79 C 183.87 248.85 185.13 248.73 186.06 248.21 C 187.87 249.53 190.59 251.52 189.37 247.74 C 191.98 250.20 190.87 257.55 197.29 255.12 C 198.03 257.86 199.05 260.55 200.23 263.14 C 197.57 263.89 194.84 262.82 195.92 266.88 C 192.20 266.28 188.28 267.22 184.77 265.38 C 187.76 265.48 189.83 264.48 189.22 261.18 C 187.02 263.82 183.82 260.36 181.23 262.10 C 181.19 264.33 183.71 269.57 179.69 267.10 C 177.77 265.89 174.19 267.89 174.95 264.34 C 179.29 258.84 168.75 251.95 170.75 245.77 Z" />
</g>
<g id="#6a5e2aff">
<path fill="#6a5e2a" opacity="1.00" d=" M 197.29 255.12 C 195.38 248.89 198.77 242.68 206.12 245.03 C 209.01 249.58 200.30 247.02 200.90 252.03 C 199.36 254.81 200.29 257.36 203.79 257.01 C 204.61 257.76 205.43 258.53 206.24 259.30 C 204.38 260.79 202.34 262.04 200.23 263.14 C 199.05 260.55 198.03 257.86 197.29 255.12 Z" />
</g>
<g id="#86804eff">
<path fill="#86804e" opacity="1.00" d=" M 161.34 259.39 C 153.60 262.17 155.75 244.98 162.13 246.80 C 166.99 251.62 168.60 258.62 173.20 263.89 C 172.81 268.97 168.04 268.52 169.29 263.46 C 165.26 262.60 163.39 251.41 161.34 259.39 Z" />
</g>
<g id="#0000001a">
<path fill="#000000" opacity="0.10" d=" M 0.00 248.39 C 2.91 249.33 2.67 254.12 6.35 252.53 C 13.60 248.40 10.73 259.01 15.95 260.62 C 20.90 259.45 25.03 263.09 28.19 266.39 C 36.60 266.08 46.25 265.28 51.71 273.02 C 52.03 266.34 57.14 273.51 57.40 276.60 C 63.25 275.67 69.12 278.14 74.06 280.88 C 79.19 279.52 82.41 284.34 87.06 284.50 C 93.17 283.45 98.02 290.93 103.98 288.96 C 106.62 286.94 108.40 290.32 110.39 291.62 C 117.36 291.07 122.89 296.37 130.10 295.14 C 134.50 289.80 138.82 299.17 144.59 295.63 C 150.48 294.81 152.12 301.48 153.04 305.94 C 153.22 308.99 152.29 312.39 153.71 315.26 C 157.33 318.02 163.83 318.07 164.01 324.00 C 163.90 326.92 166.18 328.48 168.12 329.99 C 162.20 331.10 164.33 323.46 160.07 321.91 C 154.21 319.90 151.27 311.58 144.46 313.49 C 141.19 317.12 136.14 314.91 131.98 316.03 C 121.17 319.99 109.67 321.55 99.08 326.09 C 100.37 317.26 88.79 325.60 87.16 318.38 C 80.36 311.52 69.04 315.75 60.36 313.41 C 57.11 318.36 52.67 315.59 48.07 314.41 C 36.26 320.80 23.90 313.96 11.40 316.58 C 8.12 313.00 4.25 310.09 0.00 307.77 L 0.00 248.39 Z" />
</g>
<g id="#a58f6aff">
<path fill="#a58f6a" opacity="1.00" d=" M 200.90 252.03 C 203.26 250.39 206.09 247.83 208.87 250.23 C 210.35 253.99 206.58 255.75 203.79 257.01 C 200.29 257.36 199.36 254.81 200.90 252.03 M 205.42 251.37 C 203.91 252.30 201.28 255.97 204.93 254.96 C 207.31 255.48 208.20 249.42 205.42 251.37 Z" />
</g>
<g id="#c2b99aff">
<path fill="#c2b99a" opacity="1.00" d=" M 183.25 249.79 C 184.46 250.72 185.46 251.88 186.36 253.11 C 183.73 258.62 180.58 253.56 183.25 249.79 Z" />
</g>
<g id="#d6cab6ff">
<path fill="#d6cab6" opacity="1.00" d=" M 205.42 251.37 C 208.20 249.42 207.31 255.48 204.93 254.96 C 201.28 255.97 203.91 252.30 205.42 251.37 Z" />
</g>
<g id="#403c199f">
<path fill="#403c19" opacity="0.62" d=" M 213.34 259.12 C 213.40 257.55 213.53 254.41 213.59 252.84 C 213.53 254.41 213.40 257.55 213.34 259.12 Z" />
</g>
<g id="#4d5225fc">
<path fill="#4d5225" opacity="1.00" d=" M 142.24 254.04 C 147.49 258.10 152.07 265.25 159.23 265.26 C 161.38 265.18 164.81 266.79 161.80 268.66 C 159.40 268.08 157.13 268.36 155.89 270.76 C 160.41 274.07 165.46 267.61 168.86 272.11 C 165.88 274.75 165.00 278.67 169.41 280.32 C 170.30 281.48 171.20 282.63 172.13 283.77 C 173.67 285.29 175.00 289.99 171.35 288.58 C 166.95 284.55 160.89 288.11 158.80 292.76 C 155.60 290.83 151.89 291.49 152.65 296.21 C 151.52 292.80 150.56 289.31 149.14 286.01 C 147.02 281.90 147.37 276.94 144.97 273.00 C 141.27 268.69 137.43 264.47 134.67 259.46 C 138.42 260.37 143.02 258.63 142.24 254.04 Z" />
</g>
<g id="#616c2fff">
<path fill="#616c2f" opacity="1.00" d=" M 161.34 259.39 C 163.39 251.41 165.26 262.60 169.29 263.46 C 168.04 268.52 172.81 268.97 173.20 263.89 C 173.63 264.00 174.51 264.23 174.95 264.34 C 174.19 267.89 177.77 265.89 179.69 267.10 C 184.46 274.85 195.66 271.77 200.97 275.02 C 197.91 281.37 188.72 270.83 186.90 277.89 C 190.89 278.60 194.92 279.00 198.98 279.09 C 196.58 285.07 188.22 287.87 191.09 295.76 C 190.76 296.40 190.10 297.67 189.78 298.31 C 188.52 295.41 188.29 292.31 188.80 289.22 C 184.04 287.41 178.76 288.89 175.10 292.26 C 174.44 295.34 177.56 301.03 178.43 295.14 C 182.81 294.02 180.82 300.75 184.34 302.43 C 183.00 306.38 181.36 312.35 186.99 313.17 C 181.45 317.29 187.37 323.06 191.04 325.98 C 193.96 324.02 198.44 324.03 198.60 328.49 C 201.63 329.95 211.73 335.93 203.46 333.99 C 198.79 330.48 194.36 333.79 194.70 338.47 C 194.75 338.86 194.84 339.64 194.89 340.03 C 189.82 338.75 195.24 332.26 189.89 332.06 C 186.17 330.35 187.40 337.18 184.28 335.75 C 180.60 332.14 175.26 323.10 169.98 328.86 C 164.64 325.98 172.03 320.96 175.99 322.97 C 179.74 324.58 183.29 326.67 187.18 327.94 C 186.99 319.85 172.12 318.74 175.80 309.94 C 176.39 304.14 169.70 312.73 168.08 310.46 C 171.32 307.57 173.17 303.46 178.04 303.89 C 174.10 300.08 174.01 294.23 170.69 290.08 C 167.83 289.59 164.74 289.67 162.24 291.24 C 160.63 294.96 167.96 290.16 167.03 294.86 C 161.37 291.54 158.30 298.84 156.82 303.08 C 155.75 302.16 154.84 301.08 153.95 300.00 C 153.48 298.75 153.05 297.48 152.65 296.21 C 151.89 291.49 155.60 290.83 158.80 292.76 C 160.89 288.11 166.95 284.55 171.35 288.58 C 175.00 289.99 173.67 285.29 172.13 283.77 C 175.18 283.61 179.32 287.66 181.45 284.21 C 182.06 281.49 187.59 275.55 183.20 274.88 C 182.16 274.65 181.12 274.44 180.07 274.28 C 175.65 273.24 170.62 275.83 169.41 280.32 C 165.00 278.67 165.88 274.75 168.86 272.11 C 165.46 267.61 160.41 274.07 155.89 270.76 C 157.13 268.36 159.40 268.08 161.80 268.66 C 164.81 266.79 161.38 265.18 159.23 265.26 C 159.81 263.26 160.45 261.28 161.34 259.39 Z" />
</g>
<g id="#97a968ff">
<path fill="#97a968" opacity="1.00" d=" M 206.24 259.30 C 208.03 257.94 209.81 256.46 211.99 255.76 C 209.72 261.83 202.47 268.73 195.92 266.88 C 194.84 262.82 197.57 263.89 200.23 263.14 C 202.34 262.04 204.38 260.79 206.24 259.30 Z" />
</g>
<g id="#877538ff">
<path fill="#877538" opacity="1.00" d=" M 169.41 280.32 C 170.62 275.83 175.65 273.24 180.07 274.28 C 175.92 274.36 177.03 277.95 179.96 279.23 C 181.14 277.86 182.15 276.35 183.20 274.88 C 187.59 275.55 182.06 281.49 181.45 284.21 C 179.32 287.66 175.18 283.61 172.13 283.77 C 171.20 282.63 170.30 281.48 169.41 280.32 Z" />
</g>
<g id="#b9ae8dff">
<path fill="#b9ae8d" opacity="1.00" d=" M 180.07 274.28 C 181.12 274.44 182.16 274.65 183.20 274.88 C 182.15 276.35 181.14 277.86 179.96 279.23 C 177.03 277.95 175.92 274.36 180.07 274.28 Z" />
</g>
<g id="#2e351882">
<path fill="#2e3518" opacity="0.51" d=" M 200.12 290.24 C 200.16 286.82 199.58 283.09 200.96 279.89 C 201.02 283.36 200.67 286.80 200.12 290.24 Z" />
</g>
<g id="#748636ff">
<path fill="#748636" opacity="1.00" d=" M 162.24 291.24 C 164.74 289.67 167.83 289.59 170.69 290.08 C 174.01 294.23 174.10 300.08 178.04 303.89 C 173.17 303.46 171.32 307.57 168.08 310.46 C 166.28 305.49 167.38 300.04 167.03 294.86 C 167.96 290.16 160.63 294.96 162.24 291.24 Z" />
</g>
<g id="#4b5027fb">
<path fill="#4b5027" opacity="1.00" d=" M 156.82 303.08 C 158.30 298.84 161.37 291.54 167.03 294.86 C 167.38 300.04 166.28 305.49 168.08 310.46 C 169.70 312.73 176.39 304.14 175.80 309.94 C 172.12 318.74 186.99 319.85 187.18 327.94 C 183.29 326.67 179.74 324.58 175.99 322.97 C 172.03 320.96 164.64 325.98 169.98 328.86 C 175.26 323.10 180.60 332.14 184.28 335.75 C 187.40 337.18 186.17 330.35 189.89 332.06 C 195.24 332.26 189.82 338.75 194.89 340.03 C 196.95 342.14 199.85 342.54 202.24 340.67 C 203.36 343.27 200.15 345.23 199.99 347.81 C 202.25 349.42 204.65 348.60 206.89 347.49 C 211.09 347.71 209.17 353.82 205.73 354.07 C 204.32 352.75 203.15 350.11 201.02 351.97 C 196.31 355.49 191.58 349.19 192.46 344.60 C 186.58 343.72 186.03 336.49 180.36 335.59 C 175.93 334.45 172.80 330.17 168.12 329.99 C 166.18 328.48 163.90 326.92 164.01 324.00 C 163.83 318.07 157.33 318.02 153.71 315.26 C 153.79 312.16 153.98 309.12 154.00 306.05 C 154.05 304.03 154.04 302.01 153.95 300.00 C 154.84 301.08 155.75 302.16 156.82 303.08 Z" />
</g>
<g id="#8d9c5dff">
<path fill="#8d9c5d" opacity="1.00" d=" M 191.09 295.76 C 193.21 296.50 195.79 297.31 196.02 299.97 C 196.19 303.51 202.81 300.90 200.57 306.57 C 201.80 309.94 205.90 310.11 208.89 310.68 C 209.82 313.72 209.85 317.14 208.85 320.19 C 206.91 318.82 207.28 314.59 204.88 317.91 C 198.64 317.39 203.12 305.28 196.85 309.61 C 190.16 311.41 187.36 304.15 184.25 299.77 C 182.65 295.87 188.65 300.26 189.78 298.31 C 190.10 297.67 190.76 296.40 191.09 295.76 Z" />
</g>
<g id="#2e2c16a8">
<path fill="#2e2c16" opacity="0.66" d=" M 153.04 305.94 L 154.00 306.05 C 153.98 309.12 153.79 312.16 153.71 315.26 C 152.29 312.39 153.22 308.99 153.04 305.94 Z" />
</g>
<g id="#97a65fff">
<path fill="#97a65f" opacity="1.00" d=" M 190.98 312.00 C 192.57 311.87 194.37 311.77 194.14 313.93 C 194.62 317.72 201.44 315.09 201.02 319.02 C 196.72 320.60 190.35 316.81 190.98 312.00 Z" />
</g>
<g id="#191f0d93">
<path fill="#191f0d" opacity="0.58" d=" M 216.66 314.24 C 220.50 313.92 224.31 314.16 228.09 314.96 C 224.40 314.91 220.75 315.02 217.08 314.98 L 216.66 314.24 Z" />
</g>
<g id="#485c26f7">
<path fill="#485c26" opacity="0.97" d=" M 217.08 314.98 C 220.75 315.02 224.40 314.91 228.09 314.96 C 231.19 315.73 234.44 316.24 237.21 317.93 C 233.61 317.59 230.04 316.95 226.45 316.57 C 224.37 318.06 222.71 322.73 219.91 319.83 C 218.88 318.26 217.93 316.64 217.08 314.98 Z" />
</g>
<g id="#758745fc">
<path fill="#758745" opacity="1.00" d=" M 226.45 316.57 C 230.04 316.95 233.61 317.59 237.21 317.93 C 237.61 317.98 238.42 318.09 238.82 318.14 C 242.60 318.67 246.41 318.89 250.24 318.78 C 257.18 318.62 259.82 327.55 252.31 328.40 C 248.53 328.20 244.78 327.92 241.00 327.98 C 243.29 327.00 245.45 325.05 245.02 322.30 C 241.46 322.00 237.45 319.02 234.19 321.84 C 230.86 321.49 227.54 321.18 224.21 320.88 C 226.02 322.78 226.86 328.34 222.99 327.91 C 225.24 324.00 221.70 325.08 218.97 325.65 C 219.24 323.70 219.65 321.78 219.91 319.83 C 222.71 322.73 224.37 318.06 226.45 316.57 Z" />
</g>
<g id="#ccbca4ff">
<path fill="#ccbca4" opacity="1.00" d=" M 214.18 317.25 C 216.12 316.96 216.65 320.15 214.84 320.73 C 213.39 320.60 212.49 317.83 214.18 317.25 Z" />
</g>
<g id="#263013a4">
<path fill="#263013" opacity="0.64" d=" M 238.82 318.14 C 242.64 318.02 246.45 318.23 250.24 318.78 C 246.41 318.89 242.60 318.67 238.82 318.14 Z" />
</g>
<g id="#889850fd">
<path fill="#889850" opacity="1.00" d=" M 213.39 329.49 C 212.40 324.76 217.17 322.87 219.91 319.83 C 219.65 321.78 219.24 323.70 218.97 325.65 C 221.70 325.08 225.24 324.00 222.99 327.91 C 217.20 327.15 219.18 331.11 225.02 330.13 C 228.60 330.39 232.48 331.00 235.59 328.78 C 234.33 326.66 233.81 324.29 234.19 321.84 C 237.45 319.02 241.46 322.00 245.02 322.30 C 245.45 325.05 243.29 327.00 241.00 327.98 C 240.67 328.15 240.00 328.50 239.66 328.67 C 237.31 329.95 233.02 331.22 234.15 334.70 C 238.47 339.14 246.88 341.64 246.13 349.00 C 243.01 348.78 239.89 348.56 236.78 348.99 C 239.84 344.27 236.39 345.28 233.01 346.99 C 227.83 345.42 227.65 338.83 227.83 334.22 C 225.03 332.66 221.09 332.43 218.74 334.85 C 216.94 336.55 215.60 338.66 213.90 340.45 C 211.49 337.30 214.97 335.01 216.09 332.27 C 214.91 331.44 210.62 331.25 213.39 329.49 Z" />
</g>
<g id="#a1b16eff">
<path fill="#a1b16e" opacity="1.00" d=" M 224.21 320.88 C 227.54 321.18 230.86 321.49 234.19 321.84 C 233.81 324.29 234.33 326.66 235.59 328.78 C 232.48 331.00 228.60 330.39 225.02 330.13 C 219.18 331.11 217.20 327.15 222.99 327.91 C 226.86 328.34 226.02 322.78 224.21 320.88 Z" />
</g>
<g id="#4a5a1fd1">
<path fill="#4a5a1f" opacity="0.82" d=" M 239.66 328.67 C 240.00 328.50 240.67 328.15 241.00 327.98 C 244.78 327.92 248.53 328.20 252.31 328.40 C 248.17 329.35 243.84 328.58 239.66 328.67 Z" />
</g>
<g id="#92a16aff">
<path fill="#92a16a" opacity="1.00" d=" M 194.70 338.47 C 194.36 333.79 198.79 330.48 203.46 333.99 C 202.18 337.56 198.40 339.83 194.70 338.47 Z" />
</g>
<g id="#767533fb">
<path fill="#767533" opacity="1.00" d=" M 218.74 334.85 C 221.09 332.43 225.03 332.66 227.83 334.22 C 227.65 338.83 227.83 345.42 233.01 346.99 C 236.39 345.28 239.84 344.27 236.78 348.99 C 234.30 349.72 234.87 353.04 233.76 354.95 C 229.14 355.02 224.68 352.77 220.06 353.87 C 222.11 351.06 216.64 347.35 221.95 347.68 C 219.87 343.69 218.65 339.40 218.74 334.85 M 221.03 335.92 C 221.03 337.44 221.02 340.49 221.01 342.01 C 227.34 343.87 225.81 336.12 221.03 335.92 Z" />
</g>
<g id="#5d5d2cfe">
<path fill="#5d5d2c" opacity="1.00" d=" M 213.90 340.45 C 215.60 338.66 216.94 336.55 218.74 334.85 C 218.65 339.40 219.87 343.69 221.95 347.68 C 216.64 347.35 222.11 351.06 220.06 353.87 C 215.33 354.12 210.14 355.58 205.73 354.07 C 209.17 353.82 211.09 347.71 206.89 347.49 C 204.65 348.60 202.25 349.42 199.99 347.81 C 200.15 345.23 203.36 343.27 202.24 340.67 C 205.83 338.13 210.49 340.53 213.90 340.45 Z" />
</g>
<g id="#a28c67ff">
<path fill="#a28c67" opacity="1.00" d=" M 221.03 335.92 C 225.81 336.12 227.34 343.87 221.01 342.01 C 221.02 340.49 221.03 337.44 221.03 335.92 Z" />
</g>
<g id="#5a6427e0">
<path fill="#5a6427" opacity="0.88" d=" M 236.78 348.99 C 239.89 348.56 243.01 348.78 246.13 349.00 C 244.70 352.87 239.31 351.12 236.78 348.99 Z" />
</g>
</svg>
