<?xml version="1.0" encoding="UTF-8" ?>
<!DOCTYPE svg PUBLIC "-//W3C//DTD SVG 1.1//EN" "http://www.w3.org/Graphics/SVG/1.1/DTD/svg11.dtd">
<svg width="384pt" height="384pt" viewBox="0 0 384 384" version="1.1" xmlns="http://www.w3.org/2000/svg">
<g id="#0000000f">
<path fill="#000000" opacity="0.06" d=" M 0.00 25.43 C 0.70 18.74 6.29 25.94 9.83 22.56 C 13.12 24.84 17.02 25.88 20.85 26.88 C 22.70 23.90 29.23 21.43 27.63 28.55 C 29.22 32.53 33.49 23.92 36.51 25.41 C 38.56 28.27 42.74 26.62 43.19 30.95 C 45.95 28.99 48.03 25.39 52.27 26.95 C 47.74 28.60 48.46 32.22 52.74 29.35 C 55.72 36.01 59.41 29.22 63.88 31.04 C 67.49 38.04 74.07 27.46 79.20 30.85 C 81.15 32.44 83.16 30.55 85.11 29.97 C 84.53 31.38 83.82 32.74 83.17 34.12 C 86.92 31.65 90.96 31.58 93.04 36.06 C 95.99 31.37 101.34 34.68 105.23 36.26 C 110.40 33.88 115.31 37.36 120.52 36.38 C 121.87 40.62 127.54 40.83 130.97 39.14 C 134.72 39.23 136.08 42.66 137.55 45.50 C 140.72 45.76 144.85 46.05 143.54 49.90 C 147.60 51.64 151.31 53.97 154.19 57.39 C 160.69 55.33 161.80 64.12 167.01 66.15 C 168.62 62.02 172.65 64.25 174.28 66.87 C 173.52 73.14 181.97 70.70 185.71 72.03 C 192.04 72.02 192.28 79.15 196.77 81.35 C 192.30 74.79 201.56 78.64 203.25 81.69 C 203.78 84.86 203.95 89.47 207.76 90.35 C 211.76 92.11 211.60 97.15 213.82 100.15 C 220.49 102.13 224.91 107.75 230.81 111.22 C 236.45 114.58 238.10 122.10 243.89 124.99 C 248.89 117.11 248.38 132.92 251.59 133.48 C 256.00 129.83 255.71 138.60 260.63 138.53 C 259.23 143.65 263.62 147.35 266.57 150.91 C 270.05 143.62 274.77 153.68 274.11 157.62 C 276.72 156.20 279.62 156.38 282.49 157.26 C 284.72 163.30 285.69 172.06 293.59 172.53 C 299.30 175.02 289.55 181.40 295.18 183.82 C 297.19 184.52 301.28 189.30 297.01 189.00 C 291.51 189.51 299.75 193.45 301.27 194.74 C 304.31 197.81 298.08 199.65 299.52 203.08 C 298.23 208.80 298.05 219.93 305.84 220.40 C 305.48 223.22 304.01 226.73 308.24 225.78 C 306.93 230.14 308.99 238.42 311.54 242.90 C 311.26 248.00 303.62 242.86 303.92 247.99 C 309.30 245.56 317.40 249.53 314.18 256.12 C 313.85 261.50 309.17 252.09 307.37 256.26 C 306.42 259.88 307.97 263.03 310.03 265.89 C 307.85 268.75 304.81 270.99 303.00 274.08 C 302.68 277.41 307.07 277.83 309.18 279.35 C 306.59 281.66 302.21 278.83 301.25 283.21 C 300.53 287.67 294.45 287.21 293.98 291.62 C 299.06 291.22 295.92 296.49 293.39 297.89 C 292.94 296.03 287.86 293.07 289.38 296.56 C 294.74 299.65 287.60 303.48 284.26 304.14 C 286.63 310.26 278.24 312.47 273.99 309.76 C 274.52 302.91 284.54 303.61 285.16 296.94 C 277.55 300.71 272.64 308.08 265.99 313.11 C 269.50 317.12 264.47 318.90 261.34 320.61 C 259.15 317.82 255.70 316.72 252.34 316.09 C 252.89 320.94 247.60 321.58 243.81 321.30 C 245.00 324.23 249.03 324.61 251.82 324.04 C 250.49 328.06 243.45 333.51 244.63 325.77 C 239.97 331.30 232.02 331.99 226.48 336.59 C 220.74 340.07 215.88 332.18 211.41 329.95 C 211.84 333.64 206.79 339.55 204.08 334.90 C 200.73 331.50 202.41 341.71 199.01 337.91 C 195.65 335.49 192.92 343.47 198.38 340.47 C 201.09 341.59 196.83 347.85 194.56 343.47 C 191.37 341.22 186.57 339.10 182.73 340.43 C 177.79 342.85 188.81 350.42 178.46 348.55 C 176.35 348.83 175.25 350.80 173.81 352.10 C 170.86 348.17 167.07 344.38 163.93 341.09 C 158.65 343.95 167.96 347.77 169.17 351.03 C 163.20 348.67 158.11 349.10 152.06 349.26 C 151.91 351.40 154.08 354.37 151.77 355.80 C 148.87 355.77 145.98 355.61 143.09 355.78 C 139.21 356.27 139.30 348.21 135.65 350.65 C 132.26 351.76 139.57 360.66 134.68 357.34 C 131.30 352.37 126.18 357.32 122.12 358.58 C 119.31 355.90 113.53 360.14 114.97 354.22 C 109.90 359.55 112.43 349.67 106.87 350.03 C 107.23 352.30 108.15 354.66 108.82 356.91 C 106.45 358.08 103.24 358.79 103.69 355.02 C 101.75 356.29 99.98 360.33 97.56 357.63 C 97.08 353.41 92.38 353.20 89.49 351.08 C 88.94 353.99 87.12 356.39 84.50 353.65 C 84.47 347.80 77.50 350.57 74.34 347.29 C 73.40 352.07 68.19 351.75 64.23 351.88 C 61.66 350.26 65.04 346.82 62.81 344.95 C 59.15 346.41 55.79 348.70 53.54 351.97 C 51.82 349.96 51.25 347.28 49.95 345.02 C 47.45 349.51 39.66 344.31 40.68 351.07 C 38.11 350.66 37.70 346.97 34.91 347.06 C 30.42 347.52 37.70 342.15 33.24 342.38 C 29.36 342.26 29.08 346.19 27.86 348.89 C 25.15 348.26 25.87 343.61 25.36 341.16 C 21.43 342.28 16.52 340.04 13.37 343.41 C 16.88 344.94 13.48 350.41 11.45 346.60 C 9.38 341.19 3.43 343.41 0.00 339.56 L 0.00 301.75 C 5.75 305.30 16.20 298.83 18.22 308.73 C 21.93 307.25 24.95 308.98 27.92 311.00 C 30.90 306.14 36.18 310.09 40.33 310.13 C 44.28 304.97 46.81 315.25 51.97 311.74 C 55.89 310.16 58.48 314.52 59.21 317.80 C 62.70 319.16 58.38 313.44 61.79 312.84 C 63.38 311.85 70.29 308.16 66.83 311.86 C 63.15 312.87 67.95 319.18 68.87 316.06 C 68.45 309.75 73.81 316.57 75.49 318.73 C 80.65 310.38 88.66 319.81 95.12 318.09 C 98.95 313.19 102.65 322.21 107.77 318.78 C 111.82 313.88 117.56 316.75 122.62 317.31 C 127.13 315.29 133.05 316.08 136.09 320.15 C 137.98 317.22 141.04 314.21 144.12 317.75 C 146.20 314.33 153.22 317.40 151.47 312.08 C 156.35 313.32 161.20 310.14 164.78 307.10 C 164.59 311.91 167.38 308.84 168.33 306.27 C 171.68 304.41 174.08 306.00 175.67 309.06 C 175.34 302.17 181.18 310.90 183.70 306.71 C 185.29 304.84 188.94 302.10 190.30 305.69 C 194.26 312.57 202.19 302.10 206.91 305.63 C 215.80 304.14 224.60 301.66 232.52 297.52 C 235.08 293.94 236.26 301.54 239.12 298.16 C 241.19 295.21 245.00 296.16 247.35 293.80 C 253.27 294.09 256.75 288.02 262.24 286.54 C 264.47 286.24 266.72 285.51 267.17 282.99 C 269.06 281.28 271.31 279.97 273.06 278.11 C 273.90 276.03 274.76 273.95 277.00 273.07 C 277.29 272.87 277.88 272.47 278.18 272.27 C 278.44 271.94 278.98 271.30 279.24 270.98 C 280.37 267.35 284.91 266.08 285.25 262.14 C 286.59 262.42 288.02 262.25 289.13 261.39 C 289.61 261.12 290.58 260.57 291.06 260.29 C 293.20 257.80 292.61 253.92 293.01 250.91 C 292.81 250.33 292.40 249.17 292.20 248.59 C 287.40 246.13 283.35 249.61 278.86 250.43 C 276.46 249.63 274.16 248.49 272.14 246.96 C 271.36 244.66 272.56 243.60 274.83 243.74 C 277.49 244.76 279.91 244.66 282.09 243.42 C 282.67 243.12 283.83 242.51 284.41 242.21 C 286.65 241.18 288.87 240.11 291.02 238.92 C 292.78 238.32 292.62 235.85 291.42 234.78 C 290.69 233.65 289.68 232.66 288.24 232.68 C 284.80 231.93 281.39 232.04 278.01 233.02 C 272.60 233.14 267.15 232.72 261.83 233.89 C 261.41 233.95 260.59 234.08 260.18 234.15 C 255.36 232.64 249.97 233.95 246.22 237.26 C 236.63 241.91 249.44 230.07 242.79 229.39 C 238.63 225.97 244.03 223.57 246.15 221.03 C 242.78 218.07 242.79 215.06 247.00 212.97 C 248.47 207.82 241.91 203.35 241.93 198.17 C 247.42 196.13 253.66 196.40 259.11 194.12 C 263.78 191.28 268.54 188.53 272.92 185.26 C 275.95 182.10 276.32 176.04 272.33 173.58 C 268.51 170.28 263.69 168.43 259.08 166.52 C 256.66 165.20 254.32 165.06 252.06 166.11 L 251.24 165.99 C 246.89 165.05 242.47 165.12 238.07 164.90 C 237.80 164.65 237.27 164.16 237.01 163.91 C 237.56 161.43 237.39 159.09 236.49 156.90 C 234.11 149.76 231.43 142.10 224.74 137.86 C 226.13 137.61 227.49 137.26 228.84 136.85 C 231.55 137.26 234.61 138.91 237.20 137.26 C 242.14 135.82 239.42 130.81 236.49 128.79 C 235.74 128.04 234.91 127.37 234.02 126.81 C 233.31 125.90 232.57 125.02 231.86 124.12 C 234.38 118.95 229.49 111.34 224.09 111.01 C 221.20 110.31 220.90 107.43 219.89 105.11 C 213.52 102.64 206.19 102.04 201.18 97.62 C 199.25 94.63 195.77 93.27 192.71 91.74 C 188.14 90.91 184.06 88.82 180.06 86.59 C 178.58 86.39 175.63 85.99 174.16 85.78 C 156.57 85.10 142.55 72.46 126.12 67.88 C 119.13 57.41 104.31 64.11 94.79 58.19 C 90.20 55.01 84.06 60.80 79.72 57.33 C 74.64 52.91 69.71 58.86 64.54 58.42 C 59.19 56.38 53.88 56.85 49.86 60.99 C 39.82 56.87 28.55 60.77 20.14 66.99 C 18.23 64.68 10.16 62.48 14.78 67.01 C 12.00 68.16 9.43 67.71 7.86 65.03 C 5.32 66.08 2.79 67.15 0.00 67.28 L 0.00 25.43 Z" />
</g>
<g id="#00000018">
<path fill="#000000" opacity="0.09" d=" M 64.54 58.42 C 69.71 58.86 74.64 52.91 79.72 57.33 C 84.06 60.80 90.20 55.01 94.79 58.19 C 104.31 64.11 119.13 57.41 126.12 67.88 C 142.55 72.46 156.57 85.10 174.16 85.78 L 174.06 86.54 C 171.57 88.26 169.18 90.33 166.23 91.21 C 159.78 90.85 153.21 90.27 147.31 93.40 C 140.01 86.94 130.19 85.15 121.61 81.51 C 116.67 83.60 115.50 76.46 111.04 77.21 C 106.42 78.29 101.53 76.31 97.10 78.46 C 92.74 75.21 87.28 74.31 82.71 77.74 C 74.34 80.19 64.88 75.76 57.14 81.23 C 48.69 86.37 38.48 87.04 28.77 88.55 C 19.34 84.38 8.75 93.05 0.00 86.73 L 0.00 67.28 C 2.79 67.15 5.32 66.08 7.86 65.03 C 9.43 67.71 12.00 68.16 14.78 67.01 C 10.16 62.48 18.23 64.68 20.14 66.99 C 28.55 60.77 39.82 56.87 49.86 60.99 C 53.88 56.85 59.19 56.38 64.54 58.42 Z" />
</g>
<g id="#00000020">
<path fill="#000000" opacity="0.13" d=" M 82.71 77.74 C 87.28 74.31 92.74 75.21 97.10 78.46 C 101.53 76.31 106.42 78.29 111.04 77.21 C 115.50 76.46 116.67 83.60 121.61 81.51 C 130.19 85.15 140.01 86.94 147.31 93.40 C 153.21 90.27 159.78 90.85 166.23 91.21 C 160.78 92.06 153.00 90.49 150.67 97.01 C 149.25 99.29 149.06 101.56 150.11 103.81 C 146.75 106.54 142.27 108.63 140.83 112.99 L 140.09 113.04 C 132.32 114.44 127.41 105.66 119.68 106.77 C 117.20 106.94 111.70 107.86 113.61 103.91 C 107.42 104.66 101.65 107.15 95.59 108.47 C 87.35 104.97 77.25 106.40 68.14 106.42 C 64.33 107.45 60.44 108.33 57.25 105.34 C 55.30 110.31 50.38 104.51 46.90 106.88 C 42.63 110.12 38.24 102.54 34.74 107.41 C 29.53 104.55 23.65 106.21 18.05 105.51 C 11.61 105.55 6.36 99.91 0.00 102.13 L 0.00 86.73 C 8.75 93.05 19.34 84.38 28.77 88.55 C 38.48 87.04 48.69 86.37 57.14 81.23 C 64.88 75.76 74.34 80.19 82.71 77.74 Z" />
</g>
<g id="#261e108f">
<path fill="#261e10" opacity="0.56" d=" M 174.16 85.78 C 175.63 85.99 178.58 86.39 180.06 86.59 C 178.15 87.36 175.88 87.75 174.06 86.54 L 174.16 85.78 Z" />
</g>
<g id="#595e33fe">
<path fill="#595e33" opacity="1.00" d=" M 166.23 91.21 C 169.18 90.33 171.57 88.26 174.06 86.54 C 175.88 87.75 178.15 87.36 180.06 86.59 C 184.06 88.82 188.14 90.91 192.71 91.74 C 193.31 97.07 191.29 95.84 188.02 93.09 C 184.14 97.82 177.46 95.89 173.96 100.17 C 173.97 93.81 162.95 93.61 162.72 99.83 C 161.87 102.94 157.23 102.05 155.85 104.89 C 161.28 108.80 161.81 119.86 155.29 122.48 C 153.42 127.29 160.66 125.76 162.74 124.78 C 164.89 122.31 162.46 119.70 162.15 117.09 C 163.25 113.71 165.37 110.67 165.77 107.07 C 169.98 107.10 176.20 103.78 179.33 107.56 C 176.23 108.42 173.14 109.31 170.09 110.34 C 170.98 114.54 171.27 123.84 176.93 122.47 C 177.53 122.09 178.73 121.33 179.33 120.94 C 183.17 125.48 178.42 132.60 175.04 136.11 C 175.50 141.31 180.36 141.46 184.24 142.13 C 178.91 147.92 172.48 137.02 167.25 142.35 C 165.63 145.57 170.94 143.98 170.96 147.07 C 173.19 150.14 169.91 153.22 170.79 156.36 C 171.92 160.99 175.64 164.16 179.28 166.87 C 175.83 175.74 170.01 165.02 164.35 165.07 C 158.33 162.45 151.99 167.81 146.06 164.33 C 147.56 174.98 137.62 164.90 135.16 170.77 C 134.77 169.79 134.39 168.81 134.02 167.82 C 130.46 161.27 137.94 156.99 136.22 150.82 C 136.18 150.34 136.11 149.39 136.07 148.91 C 137.15 145.69 137.77 142.35 138.13 138.97 C 141.36 134.76 140.50 130.25 138.21 125.82 C 137.79 123.25 138.10 120.64 140.12 118.81 C 140.30 117.35 140.65 114.45 140.83 112.99 C 142.27 108.63 146.75 106.54 150.11 103.81 C 151.81 101.62 152.00 99.36 150.67 97.01 C 153.00 90.49 160.78 92.06 166.23 91.21 Z" />
</g>
<g id="#7b8438fe">
<path fill="#7b8438" opacity="1.00" d=" M 188.02 93.09 C 191.29 95.84 193.31 97.07 192.71 91.74 C 195.77 93.27 199.25 94.63 201.18 97.62 C 198.99 100.68 200.87 102.53 204.02 103.17 C 202.81 106.80 194.58 106.54 199.95 110.34 C 197.09 112.46 192.74 117.50 193.60 111.22 C 190.77 109.88 184.28 100.40 183.82 108.10 C 181.32 104.61 177.47 102.48 173.96 100.17 C 177.46 95.89 184.14 97.82 188.02 93.09 Z" />
</g>
<g id="#67743eff">
<path fill="#67743e" opacity="1.00" d=" M 162.72 99.83 C 162.95 93.61 173.97 93.81 173.96 100.17 C 177.47 102.48 181.32 104.61 183.82 108.10 C 185.61 112.21 184.75 117.24 187.22 120.96 C 189.99 121.97 191.18 116.17 193.60 119.15 C 189.40 125.15 185.63 132.39 187.00 139.94 C 188.87 138.64 190.59 136.84 193.05 136.87 C 192.08 139.55 190.74 142.09 189.80 144.78 C 191.50 144.01 193.19 143.18 195.04 142.80 C 193.90 145.11 192.95 148.32 188.81 146.38 C 189.23 151.37 196.19 145.34 195.37 151.11 C 196.34 147.26 198.26 143.77 201.97 141.99 C 202.82 143.41 201.82 144.98 201.85 146.50 C 202.20 149.79 198.29 143.84 198.62 147.79 C 198.51 151.20 192.61 159.91 198.91 158.23 C 198.63 159.88 199.06 162.17 197.23 163.04 C 193.83 160.36 195.51 155.68 194.85 151.93 C 192.86 151.73 192.86 153.84 192.29 155.19 C 191.41 153.69 190.50 152.20 189.41 150.85 C 189.50 152.86 188.10 156.81 185.86 155.26 C 182.75 148.09 175.78 156.36 170.79 156.36 C 169.91 153.22 173.19 150.14 170.96 147.07 C 170.94 143.98 165.63 145.57 167.25 142.35 C 172.48 137.02 178.91 147.92 184.24 142.13 C 180.36 141.46 175.50 141.31 175.04 136.11 C 178.42 132.60 183.17 125.48 179.33 120.94 C 179.58 120.71 180.07 120.23 180.32 120.00 C 185.84 116.56 182.94 111.12 179.33 107.56 C 176.20 103.78 169.98 107.10 165.77 107.07 C 165.37 110.67 163.25 113.71 162.15 117.09 C 162.46 119.70 164.89 122.31 162.74 124.78 C 160.66 125.76 153.42 127.29 155.29 122.48 C 161.81 119.86 161.28 108.80 155.85 104.89 C 157.23 102.05 161.87 102.94 162.72 99.83 Z" />
</g>
<g id="#29271492">
<path fill="#292714" opacity="0.57" d=" M 150.11 103.81 C 149.06 101.56 149.25 99.29 150.67 97.01 C 152.00 99.36 151.81 101.62 150.11 103.81 Z" />
</g>
<g id="#726831f8">
<path fill="#726831" opacity="0.97" d=" M 201.18 97.62 C 206.19 102.04 213.52 102.64 219.89 105.11 C 220.90 107.43 221.20 110.31 224.09 111.01 C 222.64 113.28 221.50 119.86 219.03 114.68 C 219.45 107.67 211.86 110.37 207.99 112.80 C 206.67 104.82 204.90 115.93 199.84 114.06 C 201.30 110.93 205.17 105.80 199.95 110.34 C 194.58 106.54 202.81 106.80 204.02 103.17 C 200.87 102.53 198.99 100.68 201.18 97.62 Z" />
</g>
<g id="#00000029">
<path fill="#000000" opacity="0.16" d=" M 0.00 102.13 C 6.36 99.91 11.61 105.55 18.05 105.51 C 23.65 106.21 29.53 104.55 34.74 107.41 C 38.24 102.54 42.63 110.12 46.90 106.88 C 50.38 104.51 55.30 110.31 57.25 105.34 C 60.44 108.33 64.33 107.45 68.14 106.42 C 77.25 106.40 87.35 104.97 95.59 108.47 C 101.65 107.15 107.42 104.66 113.61 103.91 C 111.70 107.86 117.20 106.94 119.68 106.77 C 127.41 105.66 132.32 114.44 140.09 113.04 C 139.21 114.87 139.53 116.94 140.12 118.81 C 138.10 120.64 137.79 123.25 138.21 125.82 C 138.67 133.88 128.57 131.74 124.88 127.47 C 119.67 131.74 115.73 123.45 110.32 126.19 C 102.66 124.65 96.22 130.82 88.88 129.35 C 83.17 131.60 76.28 138.16 69.84 134.37 C 56.64 134.91 43.69 134.34 30.74 133.67 C 20.51 132.56 10.21 134.57 0.00 133.07 L 0.00 102.13 Z" />
</g>
<g id="#8f9a5bff">
<path fill="#8f9a5b" opacity="1.00" d=" M 183.82 108.10 C 184.28 100.40 190.77 109.88 193.60 111.22 C 192.74 117.50 197.09 112.46 199.95 110.34 C 205.17 105.80 201.30 110.93 199.84 114.06 C 204.90 115.93 206.67 104.82 207.99 112.80 C 211.86 110.37 219.45 107.67 219.03 114.68 C 215.19 116.65 215.55 120.45 219.85 121.10 C 217.91 129.36 227.11 122.79 231.12 126.73 C 231.84 126.75 233.30 126.79 234.02 126.81 C 234.91 127.37 235.74 128.04 236.49 128.79 C 236.37 135.26 227.99 132.90 224.70 130.28 C 221.96 127.53 220.61 134.54 217.30 132.83 C 214.66 129.91 216.19 122.71 210.85 123.98 C 213.74 127.56 211.84 131.49 214.56 134.93 C 215.61 131.17 216.50 135.14 216.41 136.87 C 215.29 136.57 214.18 136.29 213.06 136.03 C 211.91 135.72 210.76 135.40 209.62 135.08 C 213.53 127.48 197.76 132.44 200.35 122.66 C 200.43 117.96 198.14 122.36 195.99 123.19 C 194.21 119.18 199.98 120.07 199.84 117.15 C 197.77 114.27 195.36 117.80 193.60 119.15 C 191.18 116.17 189.99 121.97 187.22 120.96 C 184.75 117.24 185.61 112.21 183.82 108.10 Z" />
</g>
<g id="#887540ff">
<path fill="#887540" opacity="1.00" d=" M 170.09 110.34 C 173.14 109.31 176.23 108.42 179.33 107.56 C 182.94 111.12 185.84 116.56 180.32 120.00 C 180.22 112.71 173.46 118.11 176.93 122.47 C 171.27 123.84 170.98 114.54 170.09 110.34 Z" />
</g>
<g id="#868e44fa">
<path fill="#868e44" opacity="0.98" d=" M 224.09 111.01 C 229.49 111.34 234.38 118.95 231.86 124.12 C 231.16 124.87 230.92 125.74 231.12 126.73 C 227.11 122.79 217.91 129.36 219.85 121.10 C 219.73 118.94 219.34 116.81 219.03 114.68 C 221.50 119.86 222.64 113.28 224.09 111.01 Z" />
</g>
<g id="#35361da2">
<path fill="#35361d" opacity="0.64" d=" M 140.09 113.04 L 140.83 112.99 C 140.65 114.45 140.30 117.35 140.12 118.81 C 139.53 116.94 139.21 114.87 140.09 113.04 Z" />
</g>
<g id="#c6b8a0ff">
<path fill="#c6b8a0" opacity="1.00" d=" M 219.85 121.10 C 215.55 120.45 215.19 116.65 219.03 114.68 C 219.34 116.81 219.73 118.94 219.85 121.10 Z" />
</g>
<g id="#c0af93ff">
<path fill="#c0af93" opacity="1.00" d=" M 176.93 122.47 C 173.46 118.11 180.22 112.71 180.32 120.00 C 180.07 120.23 179.58 120.71 179.33 120.94 C 178.73 121.33 177.53 122.09 176.93 122.47 Z" />
</g>
<g id="#7a823cff">
<path fill="#7a823c" opacity="1.00" d=" M 193.60 119.15 C 195.36 117.80 197.77 114.27 199.84 117.15 C 199.98 120.07 194.21 119.18 195.99 123.19 C 198.14 122.36 200.43 117.96 200.35 122.66 C 197.76 132.44 213.53 127.48 209.62 135.08 C 201.50 130.92 204.10 142.81 207.18 146.59 C 205.40 146.74 203.62 146.71 201.85 146.50 C 201.82 144.98 202.82 143.41 201.97 141.99 C 198.26 143.77 196.34 147.26 195.37 151.11 C 196.19 145.34 189.23 151.37 188.81 146.38 C 192.95 148.32 193.90 145.11 195.04 142.80 C 193.19 143.18 191.50 144.01 189.80 144.78 C 190.74 142.09 192.08 139.55 193.05 136.87 C 190.59 136.84 188.87 138.64 187.00 139.94 C 185.63 132.39 189.40 125.15 193.60 119.15 Z" />
</g>
<g id="#79823efc">
<path fill="#79823e" opacity="1.00" d=" M 210.85 123.98 C 216.19 122.71 214.66 129.91 217.30 132.83 C 220.61 134.54 221.96 127.53 224.70 130.28 C 227.99 132.90 236.37 135.26 236.49 128.79 C 239.42 130.81 242.14 135.82 237.20 137.26 C 234.40 137.19 231.62 137.05 228.84 136.85 C 227.02 134.65 221.92 135.40 224.74 137.86 C 231.43 142.10 234.11 149.76 236.49 156.90 C 235.72 158.92 235.47 161.11 235.93 163.23 C 233.98 163.84 231.45 164.90 232.57 161.79 C 228.91 163.53 225.07 165.71 220.85 164.79 C 222.94 164.17 225.04 163.54 227.07 162.72 C 225.17 160.36 222.08 161.77 219.57 161.63 C 218.23 157.44 208.80 160.04 214.32 154.54 C 217.31 153.86 218.62 150.58 221.59 149.93 C 221.78 152.42 219.47 157.96 223.34 154.41 C 228.29 153.40 225.87 148.39 224.60 145.18 C 222.27 143.42 221.27 136.56 220.73 143.25 C 218.91 141.40 217.47 139.23 216.41 136.87 C 216.50 135.14 215.61 131.17 214.56 134.93 C 211.84 131.49 213.74 127.56 210.85 123.98 Z" />
</g>
<g id="#414d1db9">
<path fill="#414d1d" opacity="0.73" d=" M 231.12 126.73 C 230.92 125.74 231.16 124.87 231.86 124.12 C 232.57 125.02 233.31 125.90 234.02 126.81 C 233.30 126.79 231.84 126.75 231.12 126.73 Z" />
</g>
<g id="#00000035">
<path fill="#000000" opacity="0.21" d=" M 110.32 126.19 C 115.73 123.45 119.67 131.74 124.88 127.47 C 128.57 131.74 138.67 133.88 138.21 125.82 C 140.50 130.25 141.36 134.76 138.13 138.97 C 137.18 141.50 136.96 145.91 133.33 144.78 C 88.77 147.18 44.62 139.43 0.00 141.00 L 0.00 133.07 C 10.21 134.57 20.51 132.56 30.74 133.67 C 43.69 134.34 56.64 134.91 69.84 134.37 C 76.28 138.16 83.17 131.60 88.88 129.35 C 96.22 130.82 102.66 124.65 110.32 126.19 Z" />
<path fill="#000000" opacity="0.21" d=" M 0.00 167.86 C 30.38 173.03 61.76 167.49 91.69 175.30 C 99.39 177.38 108.92 186.55 104.10 194.94 C 104.50 198.23 107.70 200.33 108.05 203.58 C 71.65 207.20 35.38 197.70 0.00 189.90 L 0.00 167.86 Z" />
</g>
<g id="#696233ff">
<path fill="#696233" opacity="1.00" d=" M 207.18 146.59 C 204.10 142.81 201.50 130.92 209.62 135.08 C 210.76 135.40 211.91 135.72 213.06 136.03 C 211.96 137.92 210.64 139.73 210.00 141.85 C 209.83 144.27 210.77 148.04 207.18 146.59 Z" />
</g>
<g id="#8c7229ff">
<path fill="#8c7229" opacity="1.00" d=" M 213.06 136.03 C 214.18 136.29 215.29 136.57 216.41 136.87 C 217.47 139.23 218.91 141.40 220.73 143.25 C 220.47 145.55 219.90 148.02 221.59 149.93 C 218.62 150.58 217.31 153.86 214.32 154.54 C 208.47 152.60 211.67 147.64 216.28 147.06 C 216.23 145.26 215.19 143.81 213.97 142.60 C 213.13 140.95 211.43 141.09 210.00 141.85 C 210.64 139.73 211.96 137.92 213.06 136.03 Z" />
</g>
<g id="#252b1293">
<path fill="#252b12" opacity="0.58" d=" M 224.74 137.86 C 221.92 135.40 227.02 134.65 228.84 136.85 C 227.49 137.26 226.13 137.61 224.74 137.86 Z" />
</g>
<g id="#212812a1">
<path fill="#212812" opacity="0.63" d=" M 228.84 136.85 C 231.62 137.05 234.40 137.19 237.20 137.26 C 234.61 138.91 231.55 137.26 228.84 136.85 Z" />
</g>
<g id="#00000045">
<path fill="#000000" opacity="0.27" d=" M 133.33 144.78 C 136.96 145.91 137.18 141.50 138.13 138.97 C 137.77 142.35 137.15 145.69 136.07 148.91 C 90.78 152.25 45.34 143.09 0.00 148.10 L 0.00 141.00 C 44.62 139.43 88.77 147.18 133.33 144.78 Z" />
</g>
<g id="#8f985fff">
<path fill="#8f985f" opacity="1.00" d=" M 220.73 143.25 C 221.27 136.56 222.27 143.42 224.60 145.18 C 225.87 148.39 228.29 153.40 223.34 154.41 C 219.47 157.96 221.78 152.42 221.59 149.93 C 219.90 148.02 220.47 145.55 220.73 143.25 Z" />
</g>
<g id="#868c4afe">
<path fill="#868c4a" opacity="1.00" d=" M 210.00 141.85 C 211.43 141.09 213.13 140.95 213.97 142.60 C 209.22 144.98 211.44 148.51 216.28 147.06 C 211.67 147.64 208.47 152.60 214.32 154.54 C 208.80 160.04 218.23 157.44 219.57 161.63 C 222.08 161.77 225.17 160.36 227.07 162.72 C 225.04 163.54 222.94 164.17 220.85 164.79 C 212.79 160.18 215.06 175.18 214.34 180.26 C 214.23 173.38 211.29 180.72 212.42 183.68 C 212.07 188.68 217.97 190.96 217.12 196.00 C 215.54 198.28 216.05 202.75 219.39 202.26 C 223.84 200.20 230.27 204.46 233.18 200.04 C 230.10 194.40 222.37 200.21 218.66 195.79 C 220.46 193.03 223.58 193.45 226.43 193.16 C 228.55 194.03 230.62 195.04 232.73 195.94 C 232.97 200.73 237.43 195.33 232.73 195.94 C 234.36 194.70 235.82 195.28 236.86 196.89 C 236.95 200.24 237.39 203.63 237.18 207.00 C 235.42 207.65 235.61 209.76 236.30 211.13 C 235.31 214.90 233.98 218.58 232.25 222.07 C 230.04 222.46 227.94 223.26 225.81 223.94 C 226.85 221.89 228.27 220.04 229.16 217.92 C 224.02 218.41 224.22 225.62 226.09 229.31 C 223.34 233.61 224.27 238.95 223.70 243.81 C 223.53 246.15 223.26 248.49 222.90 250.82 C 221.67 251.05 220.45 251.28 219.23 251.53 C 214.12 249.99 223.51 245.01 222.11 240.87 C 220.18 241.84 218.73 243.44 217.31 245.01 C 217.32 241.13 211.93 245.97 211.56 242.39 C 208.95 237.51 214.97 234.31 219.04 233.54 C 217.70 231.95 215.87 230.95 213.94 230.28 C 216.96 230.82 221.60 228.82 216.61 227.45 C 211.89 227.21 216.45 223.64 217.16 221.32 C 219.61 219.88 222.08 218.44 224.78 217.52 C 225.15 214.13 219.27 213.57 218.15 216.81 C 212.67 216.05 207.23 214.84 201.99 213.05 C 199.25 220.43 210.55 212.75 208.86 218.66 C 203.07 217.63 199.64 223.38 194.21 223.42 C 191.01 223.54 187.85 223.93 184.68 224.28 C 188.01 222.99 186.73 217.57 183.90 216.58 C 184.05 212.99 187.86 216.65 189.60 217.25 C 193.66 216.62 197.12 221.61 200.96 218.85 C 199.43 216.20 198.02 210.63 194.49 211.40 C 191.87 216.17 186.49 212.67 184.75 208.99 C 184.13 204.95 188.97 204.80 189.24 201.06 C 191.45 201.94 193.58 203.18 196.04 203.10 C 195.77 201.26 193.23 198.86 194.64 197.27 C 196.57 199.83 201.12 199.37 202.20 202.67 C 198.98 203.48 190.94 203.08 193.12 208.77 C 197.27 211.41 201.91 207.75 206.41 208.37 C 204.94 202.52 209.35 207.76 211.99 208.97 C 215.68 204.16 206.82 204.07 205.99 199.99 C 203.69 193.82 202.38 187.16 198.41 181.71 C 198.28 181.07 198.00 179.80 197.87 179.17 C 199.16 180.92 200.63 180.73 202.11 179.34 C 204.55 180.00 204.91 183.36 203.26 185.28 C 205.79 183.35 210.57 182.55 211.03 179.11 C 208.33 176.16 202.65 172.80 206.23 168.25 C 209.82 166.77 205.76 172.26 208.76 173.11 C 211.34 168.97 207.55 165.81 205.11 162.84 C 202.42 166.79 203.28 171.89 201.39 176.13 C 200.33 174.31 201.31 169.41 198.26 170.18 C 197.12 173.03 194.59 176.84 197.87 179.17 C 195.76 178.83 192.84 179.64 191.92 177.11 C 195.83 173.31 196.46 166.58 192.41 162.63 C 190.07 160.58 192.12 157.65 192.29 155.19 C 192.86 153.84 192.86 151.73 194.85 151.93 C 195.51 155.68 193.83 160.36 197.23 163.04 C 199.06 162.17 198.63 159.88 198.91 158.23 C 192.61 159.91 198.51 151.20 198.62 147.79 C 198.29 143.84 202.20 149.79 201.85 146.50 C 203.62 146.71 205.40 146.74 207.18 146.59 C 210.77 148.04 209.83 144.27 210.00 141.85 M 209.13 162.10 C 206.63 163.87 210.52 165.82 211.81 167.02 C 213.96 164.35 211.71 162.81 209.13 162.10 M 216.14 237.45 C 213.98 238.17 212.48 243.05 215.99 242.01 C 219.64 242.85 218.80 237.04 216.14 237.45 Z" />
</g>
<g id="#bcaa8eff">
<path fill="#bcaa8e" opacity="1.00" d=" M 216.28 147.06 C 211.44 148.51 209.22 144.98 213.97 142.60 C 215.19 143.81 216.23 145.26 216.28 147.06 Z" />
</g>
<g id="#00000055">
<path fill="#000000" opacity="0.33" d=" M 0.00 148.10 C 45.34 143.09 90.78 152.25 136.07 148.91 C 136.11 149.39 136.18 150.34 136.22 150.82 L 136.14 151.86 C 109.14 155.36 81.60 148.63 54.84 154.35 C 52.41 153.14 47.14 151.92 47.03 155.82 C 76.13 161.71 105.22 169.99 134.90 174.00 C 135.42 175.24 135.84 176.52 136.28 177.79 C 117.84 174.00 98.91 171.30 80.32 167.63 C 53.71 163.77 26.38 165.46 0.00 159.79 L 0.00 148.10 Z" />
<path fill="#000000" opacity="0.33" d=" M 0.00 200.13 C 2.68 199.92 5.41 199.15 8.08 199.85 C 42.93 205.46 78.11 208.57 113.34 210.55 C 120.58 210.31 128.04 211.29 135.03 208.92 C 134.22 206.26 132.79 203.70 133.04 200.82 C 134.33 205.11 139.03 208.11 137.99 212.98 C 114.06 216.37 90.09 210.42 66.12 212.17 C 64.55 212.75 61.10 212.90 61.17 214.85 C 65.45 218.45 70.86 220.63 76.31 221.74 C 98.57 227.64 119.62 239.17 142.96 240.10 C 143.01 240.78 143.11 242.12 143.15 242.80 C 118.82 240.86 96.28 230.47 72.53 225.60 C 48.39 220.29 23.98 216.06 0.00 210.16 L 0.00 200.13 Z" />
</g>
<g id="#01010079">
<path fill="#010100" opacity="0.47" d=" M 136.22 150.82 C 137.94 156.99 130.46 161.27 134.02 167.82 C 134.04 169.21 134.05 170.59 134.06 171.98 C 119.83 169.74 105.55 165.96 92.85 159.05 C 106.56 154.28 121.62 157.46 135.82 154.78 C 135.90 154.05 136.06 152.59 136.14 151.86 L 136.22 150.82 Z" />
</g>
<g id="#5f683cff">
<path fill="#5f683c" opacity="1.00" d=" M 189.41 150.85 C 190.50 152.20 191.41 153.69 192.29 155.19 C 192.12 157.65 190.07 160.58 192.41 162.63 C 196.46 166.58 195.83 173.31 191.92 177.11 C 192.84 179.64 195.76 178.83 197.87 179.17 C 198.00 179.80 198.28 181.07 198.41 181.71 C 198.08 183.62 198.12 185.73 196.91 187.36 C 197.19 183.92 195.01 181.19 191.95 179.87 C 189.32 181.38 186.72 184.98 189.29 187.71 C 191.54 188.38 193.91 188.71 196.25 188.44 C 199.54 190.64 196.72 191.29 193.91 191.26 C 195.02 193.39 198.63 196.04 194.64 197.27 C 193.23 198.86 195.77 201.26 196.04 203.10 C 193.58 203.18 191.45 201.94 189.24 201.06 C 188.97 204.80 184.13 204.95 184.75 208.99 C 183.10 209.87 180.29 209.59 179.97 211.90 C 175.38 210.29 171.05 213.58 166.41 213.44 C 165.23 215.24 166.03 221.78 162.09 220.97 C 158.61 220.55 157.40 214.32 161.89 214.55 C 160.21 210.88 162.16 205.85 158.51 203.31 C 155.76 201.42 149.65 206.22 148.71 201.40 C 148.47 197.72 148.04 193.55 149.19 190.03 C 154.73 189.83 148.07 198.69 153.93 199.09 C 148.60 189.82 161.38 189.81 160.02 180.89 C 162.72 179.46 165.36 177.85 167.74 175.92 C 166.75 174.09 162.90 167.99 167.22 170.79 C 170.38 176.35 176.39 180.32 183.03 178.98 C 183.91 176.13 181.37 175.35 179.27 174.47 C 178.66 171.39 184.19 168.87 179.28 166.87 C 175.64 164.16 171.92 160.99 170.79 156.36 C 175.78 156.36 182.75 148.09 185.86 155.26 C 188.10 156.81 189.50 152.86 189.41 150.85 Z" />
</g>
<g id="#00000065">
<path fill="#000000" opacity="0.40" d=" M 54.84 154.35 C 81.60 148.63 109.14 155.36 136.14 151.86 C 136.06 152.59 135.90 154.05 135.82 154.78 C 121.62 157.46 106.56 154.28 92.85 159.05 C 105.55 165.96 119.83 169.74 134.06 171.98 C 134.27 172.48 134.69 173.50 134.90 174.00 C 105.22 169.99 76.13 161.71 47.03 155.82 C 47.14 151.92 52.41 153.14 54.84 154.35 Z" />
</g>
<g id="#3f461da2">
<path fill="#3f461d" opacity="0.64" d=" M 236.49 156.90 C 237.39 159.09 237.56 161.43 237.01 163.91 C 236.74 163.74 236.20 163.40 235.93 163.23 C 235.47 161.11 235.72 158.92 236.49 156.90 Z" />
</g>
<g id="#00000044">
<path fill="#000000" opacity="0.27" d=" M 0.00 159.79 C 26.38 165.46 53.71 163.77 80.32 167.63 C 98.91 171.30 117.84 174.00 136.28 177.79 C 137.62 179.77 141.33 181.52 138.92 184.09 C 133.88 188.18 133.52 194.81 133.04 200.82 C 132.79 203.70 134.22 206.26 135.03 208.92 C 128.04 211.29 120.58 210.31 113.34 210.55 C 78.11 208.57 42.93 205.46 8.08 199.85 C 5.41 199.15 2.68 199.92 0.00 200.13 L 0.00 189.90 C 35.38 197.70 71.65 207.20 108.05 203.58 C 107.70 200.33 104.50 198.23 104.10 194.94 C 108.92 186.55 99.39 177.38 91.69 175.30 C 61.76 167.49 30.38 173.03 0.00 167.86 L 0.00 159.79 Z" />
</g>
<g id="#b8aa8cff">
<path fill="#b8aa8c" opacity="1.00" d=" M 209.13 162.10 C 211.71 162.81 213.96 164.35 211.81 167.02 C 210.52 165.82 206.63 163.87 209.13 162.10 Z" />
</g>
<g id="#5c692ffd">
<path fill="#5c692f" opacity="1.00" d=" M 220.85 164.79 C 225.07 165.71 228.91 163.53 232.57 161.79 C 231.45 164.90 233.98 163.84 235.93 163.23 C 236.20 163.40 236.74 163.74 237.01 163.91 C 237.27 164.16 237.80 164.65 238.07 164.90 C 241.99 166.71 246.88 165.65 251.24 165.99 L 252.06 166.11 C 254.52 167.89 256.85 168.03 259.08 166.52 C 263.69 168.43 268.51 170.28 272.33 173.58 C 271.75 177.06 269.69 183.46 272.92 185.26 C 268.54 188.53 263.78 191.28 259.11 194.12 C 257.14 194.06 255.18 193.92 253.22 193.77 C 249.73 193.03 246.25 193.04 242.78 193.81 C 240.60 194.36 238.73 195.70 236.86 196.89 C 235.82 195.28 234.36 194.70 232.73 195.94 C 230.62 195.04 228.55 194.03 226.43 193.16 C 220.75 191.32 214.05 186.75 214.34 180.26 C 215.06 175.18 212.79 160.18 220.85 164.79 M 250.96 168.88 C 246.79 168.54 249.76 175.57 246.13 174.99 C 248.70 167.02 240.26 171.94 236.15 170.20 C 234.86 172.96 232.58 177.36 230.55 172.46 C 228.12 173.56 222.49 183.28 229.12 184.61 C 230.83 182.91 235.37 183.34 234.11 179.05 C 234.76 182.56 238.89 185.34 240.89 189.06 C 241.24 184.50 247.23 180.46 247.02 187.00 C 241.18 194.84 254.41 191.92 249.89 188.28 C 251.42 186.87 251.97 184.71 253.18 183.04 C 255.40 183.68 257.33 185.49 259.79 184.11 C 260.30 190.69 267.60 184.01 268.96 180.94 C 270.27 175.23 262.89 168.35 258.64 174.33 C 260.55 168.81 255.67 166.69 250.96 168.88 Z" />
</g>
<g id="#9aa964ff">
<path fill="#9aa964" opacity="1.00" d=" M 205.11 162.84 C 207.55 165.81 211.34 168.97 208.76 173.11 C 205.76 172.26 209.82 166.77 206.23 168.25 C 202.65 172.80 208.33 176.16 211.03 179.11 C 210.57 182.55 205.79 183.35 203.26 185.28 C 204.91 183.36 204.55 180.00 202.11 179.34 C 200.63 180.73 199.16 180.92 197.87 179.17 C 194.59 176.84 197.12 173.03 198.26 170.18 C 201.31 169.41 200.33 174.31 201.39 176.13 C 203.28 171.89 202.42 166.79 205.11 162.84 Z" />
</g>
<g id="#474e26fe">
<path fill="#474e26" opacity="1.00" d=" M 146.06 164.33 C 151.99 167.81 158.33 162.45 164.35 165.07 C 170.01 165.02 175.83 175.74 179.28 166.87 C 184.19 168.87 178.66 171.39 179.27 174.47 C 181.37 175.35 183.91 176.13 183.03 178.98 C 176.39 180.32 170.38 176.35 167.22 170.79 C 162.90 167.99 166.75 174.09 167.74 175.92 C 165.36 177.85 162.72 179.46 160.02 180.89 C 153.51 184.76 145.87 183.80 138.92 184.09 C 141.33 181.52 137.62 179.77 136.28 177.79 C 135.84 176.52 135.42 175.24 134.90 174.00 C 134.69 173.50 134.27 172.48 134.06 171.98 C 134.05 170.59 134.04 169.21 134.02 167.82 C 134.39 168.81 134.77 169.79 135.16 170.77 C 137.62 164.90 147.56 174.98 146.06 164.33 Z" />
</g>
<g id="#24281191">
<path fill="#242811" opacity="0.57" d=" M 238.07 164.90 C 242.47 165.12 246.89 165.05 251.24 165.99 C 246.88 165.65 241.99 166.71 238.07 164.90 Z" />
</g>
<g id="#282e13a2">
<path fill="#282e13" opacity="0.64" d=" M 252.06 166.11 C 254.32 165.06 256.66 165.20 259.08 166.52 C 256.85 168.03 254.52 167.89 252.06 166.11 Z" />
</g>
<g id="#798a48ff">
<path fill="#798a48" opacity="1.00" d=" M 250.96 168.88 C 255.67 166.69 260.55 168.81 258.64 174.33 C 257.16 175.68 254.65 172.05 253.10 174.00 C 251.01 176.27 252.91 170.47 250.15 172.15 C 246.97 176.98 246.16 183.49 249.89 188.28 C 254.41 191.92 241.18 194.84 247.02 187.00 C 247.23 180.46 241.24 184.50 240.89 189.06 C 238.89 185.34 234.76 182.56 234.11 179.05 C 235.37 183.34 230.83 182.91 229.12 184.61 C 222.49 183.28 228.12 173.56 230.55 172.46 C 232.58 177.36 234.86 172.96 236.15 170.20 C 240.26 171.94 248.70 167.02 246.13 174.99 C 249.76 175.57 246.79 168.54 250.96 168.88 Z" />
</g>
<g id="#98aa63ff">
<path fill="#98aa63" opacity="1.00" d=" M 250.15 172.15 C 252.91 170.47 251.01 176.27 253.10 174.00 C 254.65 172.05 257.16 175.68 258.64 174.33 C 262.89 168.35 270.27 175.23 268.96 180.94 C 267.60 184.01 260.30 190.69 259.79 184.11 C 257.33 185.49 255.40 183.68 253.18 183.04 C 251.97 184.71 251.42 186.87 249.89 188.28 C 246.16 183.49 246.97 176.98 250.15 172.15 Z" />
</g>
<g id="#7c8643f3">
<path fill="#7c8643" opacity="0.95" d=" M 272.33 173.58 C 276.32 176.04 275.95 182.10 272.92 185.26 C 269.69 183.46 271.75 177.06 272.33 173.58 Z" />
</g>
<g id="#91a263ff">
<path fill="#91a263" opacity="1.00" d=" M 212.42 183.68 C 211.29 180.72 214.23 173.38 214.34 180.26 C 214.05 186.75 220.75 191.32 226.43 193.16 C 223.58 193.45 220.46 193.03 218.66 195.79 C 218.28 195.84 217.51 195.95 217.12 196.00 C 217.97 190.96 212.07 188.68 212.42 183.68 Z" />
</g>
<g id="#78864eff">
<path fill="#78864e" opacity="1.00" d=" M 189.29 187.71 C 186.72 184.98 189.32 181.38 191.95 179.87 C 195.01 181.19 197.19 183.92 196.91 187.36 C 196.74 187.63 196.42 188.17 196.25 188.44 C 193.91 188.71 191.54 188.38 189.29 187.71 Z" />
</g>
<g id="#50562afc">
<path fill="#50562a" opacity="1.00" d=" M 138.92 184.09 C 145.87 183.80 153.51 184.76 160.02 180.89 C 161.38 189.81 148.60 189.82 153.93 199.09 C 148.07 198.69 154.73 189.83 149.19 190.03 C 148.04 193.55 148.47 197.72 148.71 201.40 C 149.65 206.22 155.76 201.42 158.51 203.31 C 162.16 205.85 160.21 210.88 161.89 214.55 C 157.40 214.32 158.61 220.55 162.09 220.97 C 166.03 221.78 165.23 215.24 166.41 213.44 C 171.05 213.58 175.38 210.29 179.97 211.90 L 180.26 212.82 C 173.81 211.81 171.63 218.02 170.40 222.80 C 172.04 228.37 177.87 230.80 182.08 234.24 C 182.00 234.76 181.85 235.81 181.78 236.33 C 175.26 235.59 169.48 232.22 163.21 230.57 C 159.65 233.08 152.84 232.52 153.37 238.55 C 153.09 241.85 150.20 238.70 149.48 237.26 C 146.43 239.01 144.90 242.08 146.07 245.75 C 149.05 246.53 152.96 247.97 154.37 244.12 C 161.63 249.56 165.35 261.98 176.23 257.96 C 181.40 259.69 176.02 251.17 181.02 254.94 C 180.19 261.59 185.58 265.86 187.37 272.57 C 192.74 273.72 193.62 279.57 197.27 282.86 C 200.65 283.85 202.29 280.04 204.31 278.14 C 206.67 278.94 207.31 281.63 208.99 283.24 C 210.17 277.83 202.96 276.21 202.91 270.88 C 206.47 271.70 208.12 277.54 210.78 272.03 C 210.56 277.97 212.74 287.59 220.15 281.21 C 219.75 284.51 221.51 286.97 225.13 286.29 C 223.50 286.85 221.79 287.06 220.10 287.36 C 218.45 286.68 216.24 286.19 214.98 287.84 C 211.61 292.36 204.81 291.81 201.85 287.13 C 198.36 285.24 193.78 286.47 189.86 286.15 C 187.73 285.04 185.92 283.44 184.02 281.99 C 177.20 278.03 175.28 268.70 167.07 266.82 C 161.35 261.96 153.83 260.61 147.94 256.17 C 146.66 253.60 145.45 250.95 144.94 248.10 C 144.66 246.75 144.35 245.40 143.97 244.08 C 147.24 233.81 140.71 225.38 137.89 215.99 C 137.91 215.24 137.96 213.73 137.99 212.98 C 139.03 208.11 134.33 205.11 133.04 200.82 C 133.52 194.81 133.88 188.18 138.92 184.09 Z" />
</g>
<g id="#9ca563ff">
<path fill="#9ca563" opacity="1.00" d=" M 198.41 181.71 C 202.38 187.16 203.69 193.82 205.99 199.99 C 206.82 204.07 215.68 204.16 211.99 208.97 C 209.35 207.76 204.94 202.52 206.41 208.37 C 201.91 207.75 197.27 211.41 193.12 208.77 C 190.94 203.08 198.98 203.48 202.20 202.67 C 201.12 199.37 196.57 199.83 194.64 197.27 C 198.63 196.04 195.02 193.39 193.91 191.26 C 196.72 191.29 199.54 190.64 196.25 188.44 C 196.42 188.17 196.74 187.63 196.91 187.36 C 198.12 185.73 198.08 183.62 198.41 181.71 Z" />
</g>
<g id="#313918c5">
<path fill="#313918" opacity="0.77" d=" M 242.78 193.81 C 246.25 193.04 249.73 193.03 253.22 193.77 C 249.72 193.78 246.27 193.87 242.78 193.81 Z" />
</g>
<g id="#02020122">
<path fill="#020201" opacity="0.13" d=" M 236.86 196.89 C 238.73 195.70 240.60 194.36 242.78 193.81 C 246.27 193.87 249.72 193.78 253.22 193.77 C 255.18 193.92 257.14 194.06 259.11 194.12 C 253.66 196.40 247.42 196.13 241.93 198.17 C 241.91 203.35 248.47 207.82 247.00 212.97 C 242.79 215.06 242.78 218.07 246.15 221.03 C 244.03 223.57 238.63 225.97 242.79 229.39 C 249.44 230.07 236.63 241.91 246.22 237.26 C 249.97 233.95 255.36 232.64 260.18 234.15 C 251.11 234.54 245.74 241.86 238.35 245.35 C 234.42 244.20 223.67 250.75 223.70 243.81 C 224.27 238.95 223.34 233.61 226.09 229.31 C 228.27 227.04 230.99 225.06 232.25 222.07 C 233.98 218.58 235.31 214.90 236.30 211.13 C 237.28 209.97 237.42 208.44 237.18 207.00 C 237.39 203.63 236.95 200.24 236.86 196.89 Z" />
</g>
<g id="#6d652cff">
<path fill="#6d652c" opacity="1.00" d=" M 217.12 196.00 C 217.51 195.95 218.28 195.84 218.66 195.79 C 222.37 200.21 230.10 194.40 233.18 200.04 C 230.27 204.46 223.84 200.20 219.39 202.26 C 216.05 202.75 215.54 198.28 217.12 196.00 Z" />
</g>
<g id="#ded5c8ff">
<path fill="#ded5c8" opacity="1.00" d=" M 232.73 195.94 C 232.97 200.73 237.43 195.33 232.73 195.94 Z" />
</g>
<g id="#444b20a0">
<path fill="#444b20" opacity="0.63" d=" M 236.30 211.13 C 235.61 209.76 235.42 207.65 237.18 207.00 C 237.42 208.44 237.28 209.97 236.30 211.13 Z" />
</g>
<g id="#7c7c39ff">
<path fill="#7c7c39" opacity="1.00" d=" M 179.97 211.90 C 180.29 209.59 183.10 209.87 184.75 208.99 C 186.49 212.67 191.87 216.17 194.49 211.40 C 198.02 210.63 199.43 216.20 200.96 218.85 C 197.12 221.61 193.66 216.62 189.60 217.25 C 187.86 216.65 184.05 212.99 183.90 216.58 C 183.72 219.18 181.00 224.17 184.68 224.28 C 187.85 223.93 191.01 223.54 194.21 223.42 C 199.64 223.38 203.07 217.63 208.86 218.66 C 210.55 212.75 199.25 220.43 201.99 213.05 C 207.23 214.84 212.67 216.05 218.15 216.81 C 217.58 218.25 217.24 219.77 217.16 221.32 C 213.44 216.02 208.74 225.84 205.20 228.22 C 202.11 230.90 197.61 229.49 193.86 230.19 C 194.95 233.61 198.45 235.81 201.77 236.75 C 202.69 240.01 198.94 240.54 198.26 243.27 C 197.45 245.40 195.34 248.37 192.98 246.09 C 185.73 243.05 198.32 230.84 188.55 230.22 C 187.56 233.96 181.53 233.18 182.87 237.99 C 182.59 237.58 182.05 236.75 181.78 236.33 C 181.85 235.81 182.00 234.76 182.08 234.24 C 183.34 227.10 179.89 220.03 180.26 212.82 L 179.97 211.90 M 195.23 236.20 C 192.58 237.99 192.53 244.75 196.97 242.99 C 196.65 240.61 199.14 234.40 195.23 236.20 Z" />
</g>
<g id="#00000041">
<path fill="#000000" opacity="0.25" d=" M 0.00 210.16 C 23.98 216.06 48.39 220.29 72.53 225.60 C 96.28 230.47 118.82 240.86 143.15 242.80 C 143.36 243.12 143.76 243.76 143.97 244.08 C 144.35 245.40 144.66 246.75 144.94 248.10 C 141.32 243.68 134.99 245.08 130.03 243.91 C 110.51 240.72 91.69 234.42 72.55 229.60 C 48.41 225.43 24.21 221.49 0.00 217.83 L 0.00 210.16 Z" />
</g>
<g id="#0000006a">
<path fill="#000000" opacity="0.42" d=" M 61.17 214.85 C 61.10 212.90 64.55 212.75 66.12 212.17 C 90.09 210.42 114.06 216.37 137.99 212.98 C 137.96 213.73 137.91 215.24 137.89 215.99 C 126.61 217.06 115.24 217.56 104.03 219.12 C 110.57 228.11 123.39 233.13 134.14 236.79 C 136.95 238.20 143.31 235.89 142.96 240.10 C 119.62 239.17 98.57 227.64 76.31 221.74 C 70.86 220.63 65.45 218.45 61.17 214.85 Z" />
</g>
<g id="#695937ff">
<path fill="#695937" opacity="1.00" d=" M 180.26 212.82 C 179.89 220.03 183.34 227.10 182.08 234.24 C 177.87 230.80 172.04 228.37 170.40 222.80 C 171.63 218.02 173.81 211.81 180.26 212.82 Z" />
</g>
<g id="#9ea476ff">
<path fill="#9ea476" opacity="1.00" d=" M 218.15 216.81 C 219.27 213.57 225.15 214.13 224.78 217.52 C 222.08 218.44 219.61 219.88 217.16 221.32 C 217.24 219.77 217.58 218.25 218.15 216.81 Z" />
</g>
<g id="#0101007e">
<path fill="#010100" opacity="0.49" d=" M 104.03 219.12 C 115.24 217.56 126.61 217.06 137.89 215.99 C 140.71 225.38 147.24 233.81 143.97 244.08 C 143.76 243.76 143.36 243.12 143.15 242.80 C 143.11 242.12 143.01 240.78 142.96 240.10 C 143.31 235.89 136.95 238.20 134.14 236.79 C 123.39 233.13 110.57 228.11 104.03 219.12 Z" />
</g>
<g id="#b2a081ff">
<path fill="#b2a081" opacity="1.00" d=" M 183.90 216.58 C 186.73 217.57 188.01 222.99 184.68 224.28 C 181.00 224.17 183.72 219.18 183.90 216.58 Z" />
</g>
<g id="#0000002f">
<path fill="#000000" opacity="0.18" d=" M 0.00 217.83 C 24.21 221.49 48.41 225.43 72.55 229.60 C 91.69 234.42 110.51 240.72 130.03 243.91 C 134.99 245.08 141.32 243.68 144.94 248.10 C 145.45 250.95 146.66 253.60 147.94 256.17 C 141.27 250.58 132.47 253.79 124.85 250.34 C 115.67 251.22 106.91 249.51 98.46 246.47 C 93.21 242.36 86.11 243.12 80.94 239.03 C 72.46 239.25 66.20 233.70 57.98 233.05 C 38.89 228.92 19.35 227.40 0.00 224.80 L 0.00 217.83 Z" />
</g>
<g id="#706125f2">
<path fill="#706125" opacity="0.95" d=" M 226.09 229.31 C 224.22 225.62 224.02 218.41 229.16 217.92 C 228.27 220.04 226.85 221.89 225.81 223.94 C 227.94 223.26 230.04 222.46 232.25 222.07 C 230.99 225.06 228.27 227.04 226.09 229.31 Z" />
</g>
<g id="#8b9d5dff">
<path fill="#8b9d5d" opacity="1.00" d=" M 205.20 228.22 C 208.74 225.84 213.44 216.02 217.16 221.32 C 216.45 223.64 211.89 227.21 216.61 227.45 C 221.60 228.82 216.96 230.82 213.94 230.28 C 204.15 230.90 206.90 244.30 212.18 248.85 C 214.08 247.87 215.86 246.60 217.31 245.01 C 218.73 243.44 220.18 241.84 222.11 240.87 C 223.51 245.01 214.12 249.99 219.23 251.53 C 215.27 252.62 211.19 253.95 207.04 253.35 C 203.73 253.33 198.51 258.60 197.90 253.26 C 204.87 254.89 200.10 247.16 196.08 250.02 C 192.62 250.84 195.38 254.78 195.00 257.15 C 192.61 256.85 190.81 255.23 189.88 253.08 C 188.22 247.74 186.59 242.31 182.87 237.99 C 181.53 233.18 187.56 233.96 188.55 230.22 C 198.32 230.84 185.73 243.05 192.98 246.09 C 195.34 248.37 197.45 245.40 198.26 243.27 C 198.94 240.54 202.69 240.01 201.77 236.75 C 198.45 235.81 194.95 233.61 193.86 230.19 C 197.61 229.49 202.11 230.90 205.20 228.22 M 202.04 242.01 C 202.04 243.78 202.03 247.32 202.03 249.09 C 205.21 250.55 209.84 244.20 205.06 245.80 C 205.21 243.38 205.13 241.01 202.04 242.01 Z" />
</g>
<g id="#00000024">
<path fill="#000000" opacity="0.14" d=" M 0.00 224.80 C 19.35 227.40 38.89 228.92 57.98 233.05 C 66.20 233.70 72.46 239.25 80.94 239.03 C 86.11 243.12 93.21 242.36 98.46 246.47 C 106.91 249.51 115.67 251.22 124.85 250.34 C 132.47 253.79 141.27 250.58 147.94 256.17 C 153.83 260.61 161.35 261.96 167.07 266.82 C 175.28 268.70 177.20 278.03 184.02 281.99 C 174.69 276.97 167.52 267.22 156.13 266.63 C 152.44 265.05 149.31 271.21 145.87 268.12 C 142.32 263.46 135.98 270.83 132.98 265.32 C 119.61 267.94 106.18 267.82 92.63 265.44 C 86.12 265.36 76.84 268.00 73.44 260.40 C 69.57 259.12 61.98 263.70 62.38 257.33 C 61.23 254.55 55.63 259.23 55.44 254.42 C 53.10 249.37 49.80 260.10 45.80 255.96 C 45.14 253.20 52.98 252.35 48.39 250.60 C 42.35 251.44 37.53 247.66 32.92 244.15 C 29.88 246.21 25.44 245.48 24.27 241.69 C 23.34 238.50 21.42 241.43 19.78 242.41 C 17.61 241.36 15.30 241.31 12.97 241.77 C 9.44 242.67 9.27 235.29 5.48 237.37 C 3.99 239.19 2.33 240.67 0.00 239.19 L 0.00 224.80 Z" />
</g>
<g id="#666036ff">
<path fill="#666036" opacity="1.00" d=" M 163.21 230.57 C 169.48 232.22 175.26 235.59 181.78 236.33 C 182.05 236.75 182.59 237.58 182.87 237.99 C 186.59 242.31 188.22 247.74 189.88 253.08 C 187.37 254.24 185.28 253.60 184.23 250.99 C 178.28 246.63 179.75 236.97 172.09 235.10 C 169.86 236.38 168.46 239.41 166.28 241.15 C 166.66 245.27 169.92 248.12 172.07 251.40 C 170.73 251.94 168.06 253.02 166.72 253.57 C 169.73 255.34 172.97 256.68 176.23 257.96 C 165.35 261.98 161.63 249.56 154.37 244.12 C 152.96 247.97 149.05 246.53 146.07 245.75 C 144.90 242.08 146.43 239.01 149.48 237.26 C 150.20 238.70 153.09 241.85 153.37 238.55 C 152.84 232.52 159.65 233.08 163.21 230.57 Z" />
</g>
<g id="#695e2bff">
<path fill="#695e2b" opacity="1.00" d=" M 212.18 248.85 C 206.90 244.30 204.15 230.90 213.94 230.28 C 215.87 230.95 217.70 231.95 219.04 233.54 C 214.97 234.31 208.95 237.51 211.56 242.39 C 211.93 245.97 217.32 241.13 217.31 245.01 C 215.86 246.60 214.08 247.87 212.18 248.85 Z" />
</g>
<g id="#273013a5">
<path fill="#273013" opacity="0.65" d=" M 278.01 233.02 C 281.39 232.04 284.80 231.93 288.24 232.68 C 284.81 232.75 281.42 232.88 278.01 233.02 Z" />
</g>
<g id="#1c240f94">
<path fill="#1c240f" opacity="0.58" d=" M 261.83 233.89 C 267.15 232.72 272.60 233.14 278.01 233.02 C 273.75 233.84 269.43 233.99 265.12 234.02 C 264.29 233.99 262.65 233.92 261.83 233.89 Z" />
</g>
<g id="#617437fd">
<path fill="#617437" opacity="1.00" d=" M 278.01 233.02 C 281.42 232.88 284.81 232.75 288.24 232.68 C 289.68 232.66 290.69 233.65 291.42 234.78 C 289.30 233.92 287.56 233.93 287.80 236.70 C 283.21 231.39 277.20 241.05 284.41 242.21 C 283.83 242.51 282.67 243.12 282.09 243.42 C 280.11 242.69 277.93 242.31 275.89 243.06 C 279.81 242.23 277.94 238.92 276.61 236.07 C 271.09 233.75 268.28 238.69 265.04 241.80 C 263.16 241.20 261.40 240.19 259.41 240.03 C 259.48 246.18 252.70 247.23 249.15 250.76 C 248.76 249.16 249.25 246.81 247.01 246.64 C 252.44 244.63 255.01 237.73 261.64 238.54 C 264.59 238.66 265.41 236.68 265.12 234.02 C 269.43 233.99 273.75 233.84 278.01 233.02 Z" />
</g>
<g id="#445123f8">
<path fill="#445123" opacity="0.97" d=" M 260.18 234.15 C 260.59 234.08 261.41 233.95 261.83 233.89 C 262.65 233.92 264.29 233.99 265.12 234.02 C 265.41 236.68 264.59 238.66 261.64 238.54 C 255.01 237.73 252.44 244.63 247.01 246.64 L 246.19 246.92 C 242.17 247.07 237.95 251.54 234.24 249.47 C 233.25 252.06 230.35 258.61 231.66 247.69 C 230.43 249.83 229.59 252.16 228.82 254.50 C 224.73 250.83 221.17 261.24 218.92 256.01 C 219.88 254.03 221.67 252.63 222.90 250.82 C 223.26 248.49 223.53 246.15 223.70 243.81 C 223.67 250.75 234.42 244.20 238.35 245.35 C 245.74 241.86 251.11 234.54 260.18 234.15 Z" />
</g>
<g id="#8b9752fb">
<path fill="#8b9752" opacity="1.00" d=" M 287.80 236.70 C 287.56 233.93 289.30 233.92 291.42 234.78 C 290.92 236.12 290.79 237.50 291.02 238.92 C 288.87 240.11 286.65 241.18 284.41 242.21 C 277.20 241.05 283.21 231.39 287.80 236.70 Z" />
</g>
<g id="#8f8557ff">
<path fill="#8f8557" opacity="1.00" d=" M 166.28 241.15 C 168.46 239.41 169.86 236.38 172.09 235.10 C 179.75 236.97 178.28 246.63 184.23 250.99 C 184.65 254.42 177.81 253.47 179.30 250.14 C 180.81 245.68 172.95 248.77 172.07 251.40 C 169.92 248.12 166.66 245.27 166.28 241.15 Z" />
</g>
<g id="#3f3e257f">
<path fill="#3f3e25" opacity="0.50" d=" M 291.42 234.78 C 292.62 235.85 292.78 238.32 291.02 238.92 C 290.79 237.50 290.92 236.12 291.42 234.78 Z" />
</g>
<g id="#a69e74ff">
<path fill="#a69e74" opacity="1.00" d=" M 195.23 236.20 C 199.14 234.40 196.65 240.61 196.97 242.99 C 192.53 244.75 192.58 237.99 195.23 236.20 Z" />
</g>
<g id="#869254ff">
<path fill="#869254" opacity="1.00" d=" M 265.04 241.80 C 268.28 238.69 271.09 233.75 276.61 236.07 C 277.94 238.92 279.81 242.23 275.89 243.06 C 275.63 243.23 275.10 243.57 274.83 243.74 C 272.56 243.60 271.36 244.66 272.14 246.96 C 272.96 249.44 272.61 251.73 270.56 253.47 C 271.58 255.38 274.05 257.14 271.95 259.27 C 269.10 258.34 272.01 263.56 268.30 262.34 C 261.81 262.27 260.73 254.97 265.38 251.29 C 271.09 252.66 269.20 244.86 264.82 244.12 C 261.83 240.20 259.05 245.84 258.47 248.65 C 255.16 250.33 253.51 253.85 254.05 257.50 C 254.24 261.37 251.83 269.17 246.69 265.70 C 241.47 265.03 247.13 262.08 247.38 259.27 C 244.27 261.09 238.32 264.17 239.78 257.86 C 239.93 255.51 244.12 256.40 241.98 253.70 C 244.10 251.88 246.45 250.05 246.19 246.92 L 247.01 246.64 C 249.25 246.81 248.76 249.16 249.15 250.76 C 252.70 247.23 259.48 246.18 259.41 240.03 C 261.40 240.19 263.16 241.20 265.04 241.80 Z" />
</g>
<g id="#0000001c">
<path fill="#000000" opacity="0.11" d=" M 5.48 237.37 C 9.27 235.29 9.44 242.67 12.97 241.77 C 15.30 241.31 17.61 241.36 19.78 242.41 C 21.42 241.43 23.34 238.50 24.27 241.69 C 25.44 245.48 29.88 246.21 32.92 244.15 C 37.53 247.66 42.35 251.44 48.39 250.60 C 52.98 252.35 45.14 253.20 45.80 255.96 C 49.80 260.10 53.10 249.37 55.44 254.42 C 55.63 259.23 61.23 254.55 62.38 257.33 C 61.98 263.70 69.57 259.12 73.44 260.40 C 76.84 268.00 86.12 265.36 92.63 265.44 C 106.18 267.82 119.61 267.94 132.98 265.32 C 135.98 270.83 142.32 263.46 145.87 268.12 C 149.31 271.21 152.44 265.05 156.13 266.63 C 167.52 267.22 174.69 276.97 184.02 281.99 C 185.92 283.44 187.73 285.04 189.86 286.15 C 193.80 286.96 197.85 286.86 201.85 287.13 C 204.81 291.81 211.61 292.36 214.98 287.84 C 216.68 288.36 218.58 288.40 220.10 287.36 C 221.79 287.06 223.50 286.85 225.13 286.29 C 226.92 285.48 228.57 284.37 230.08 283.12 C 233.44 282.82 237.05 283.55 240.29 282.31 C 242.48 281.64 243.76 279.60 245.17 277.95 C 250.86 277.76 254.88 280.83 258.69 284.07 C 261.53 285.11 264.85 285.12 267.17 282.99 C 266.72 285.51 264.47 286.24 262.24 286.54 C 254.74 284.19 246.63 276.94 239.79 284.67 C 231.98 283.29 225.86 290.26 218.19 289.60 C 213.74 290.51 210.89 296.28 205.70 293.30 C 199.95 290.41 193.07 293.27 187.82 289.20 C 182.95 285.61 176.48 294.20 172.81 288.14 C 168.38 288.40 163.43 290.27 161.46 285.08 C 160.72 289.38 155.87 290.06 152.29 289.52 C 148.49 291.93 142.98 292.78 141.69 287.18 C 133.38 284.15 145.06 294.20 138.48 293.64 C 135.50 288.29 130.28 295.02 127.83 289.98 C 125.14 290.43 122.84 292.05 120.29 292.93 C 117.77 283.29 107.43 287.06 100.91 289.71 C 96.98 287.29 92.29 286.57 88.01 288.55 C 82.74 285.62 74.12 290.93 71.71 284.10 C 60.93 286.40 48.00 285.58 39.18 278.84 C 41.86 287.24 31.51 283.06 28.34 279.26 C 25.51 284.66 20.75 282.50 20.80 276.16 C 16.47 274.80 8.25 278.34 5.28 272.19 C 5.31 275.20 2.29 275.71 0.00 276.43 L 0.00 239.19 C 2.33 240.67 3.99 239.19 5.48 237.37 Z" />
</g>
<g id="#dbd0bcff">
<path fill="#dbd0bc" opacity="1.00" d=" M 216.14 237.45 C 218.80 237.04 219.64 242.85 215.99 242.01 C 212.48 243.05 213.98 238.17 216.14 237.45 Z" />
</g>
<g id="#75733cff">
<path fill="#75733c" opacity="1.00" d=" M 202.04 242.01 C 205.13 241.01 205.21 243.38 205.06 245.80 C 209.84 244.20 205.21 250.55 202.03 249.09 C 202.03 247.32 202.04 243.78 202.04 242.01 Z" />
</g>
<g id="#a3b375ff">
<path fill="#a3b375" opacity="1.00" d=" M 258.47 248.65 C 259.05 245.84 261.83 240.20 264.82 244.12 C 269.20 244.86 271.09 252.66 265.38 251.29 C 264.98 248.23 261.15 249.87 259.01 249.45 L 258.47 248.65 Z" />
</g>
<g id="#26310e9d">
<path fill="#26310e" opacity="0.62" d=" M 274.83 243.74 C 275.10 243.57 275.63 243.23 275.89 243.06 C 277.93 242.31 280.11 242.69 282.09 243.42 C 279.91 244.66 277.49 244.76 274.83 243.74 Z" />
</g>
<g id="#737b34ff">
<path fill="#737b34" opacity="1.00" d=" M 234.24 249.47 C 237.95 251.54 242.17 247.07 246.19 246.92 C 246.45 250.05 244.10 251.88 241.98 253.70 C 237.86 252.07 234.35 253.09 234.59 257.77 C 230.39 258.04 229.87 262.96 227.01 265.15 C 224.38 264.42 222.45 259.43 220.56 263.55 C 217.85 261.04 211.59 261.91 213.23 267.22 C 210.70 267.92 205.16 270.47 210.73 271.36 L 210.78 272.03 C 208.12 277.54 206.47 271.70 202.91 270.88 C 202.96 276.21 210.17 277.83 208.99 283.24 C 207.31 281.63 206.67 278.94 204.31 278.14 C 202.29 280.04 200.65 283.85 197.27 282.86 C 193.62 279.57 192.74 273.72 187.37 272.57 C 185.58 265.86 180.19 261.59 181.02 254.94 C 176.02 251.17 181.40 259.69 176.23 257.96 C 172.97 256.68 169.73 255.34 166.72 253.57 C 168.06 253.02 170.73 251.94 172.07 251.40 C 172.95 248.77 180.81 245.68 179.30 250.14 C 177.81 253.47 184.65 254.42 184.23 250.99 C 185.28 253.60 187.37 254.24 189.88 253.08 C 190.81 255.23 192.61 256.85 195.00 257.15 C 195.38 254.78 192.62 250.84 196.08 250.02 C 200.10 247.16 204.87 254.89 197.90 253.26 C 198.51 258.60 203.73 253.33 207.04 253.35 C 211.19 253.95 215.27 252.62 219.23 251.53 C 220.45 251.28 221.67 251.05 222.90 250.82 C 221.67 252.63 219.88 254.03 218.92 256.01 C 221.17 261.24 224.73 250.83 228.82 254.50 C 229.59 252.16 230.43 249.83 231.66 247.69 C 230.35 258.61 233.25 252.06 234.24 249.47 M 195.30 263.33 C 191.19 263.07 191.74 270.51 195.34 268.42 C 198.44 268.46 198.58 260.95 195.30 263.33 Z" />
</g>
<g id="#596b31fa">
<path fill="#596b31" opacity="0.98" d=" M 272.14 246.96 C 274.16 248.49 276.46 249.63 278.86 250.43 C 283.44 251.05 287.79 249.46 292.20 248.59 C 292.40 249.17 292.81 250.33 293.01 250.91 C 289.32 253.38 284.55 251.95 280.91 254.55 C 278.06 252.25 273.70 253.63 275.04 257.81 C 275.89 262.78 273.83 264.25 271.95 259.27 C 274.05 257.14 271.58 255.38 270.56 253.47 C 272.61 251.73 272.96 249.44 272.14 246.96 Z" />
</g>
<g id="#2d3918cf">
<path fill="#2d3918" opacity="0.81" d=" M 278.86 250.43 C 283.35 249.61 287.40 246.13 292.20 248.59 C 287.79 249.46 283.44 251.05 278.86 250.43 Z" />
</g>
<g id="#4b4a24fd">
<path fill="#4b4a24" opacity="1.00" d=" M 254.05 257.50 C 253.51 253.85 255.16 250.33 258.47 248.65 L 259.01 249.45 C 264.21 257.27 260.79 267.66 252.71 271.73 C 249.59 275.47 252.81 278.99 256.09 276.73 C 261.57 276.89 263.93 270.34 269.14 270.14 C 269.44 264.48 273.72 269.69 273.14 273.00 L 273.11 273.98 C 270.76 273.55 266.47 271.46 266.52 275.42 C 267.27 281.05 260.43 279.81 258.69 284.07 C 254.88 280.83 250.86 277.76 245.17 277.95 C 247.05 270.35 259.53 267.09 254.05 257.50 Z" />
</g>
<g id="#777f40fd">
<path fill="#777f40" opacity="1.00" d=" M 259.01 249.45 C 261.15 249.87 264.98 248.23 265.38 251.29 C 260.73 254.97 261.81 262.27 268.30 262.34 C 272.01 263.56 269.10 258.34 271.95 259.27 C 273.83 264.25 275.89 262.78 275.04 257.81 C 279.36 266.76 285.90 253.35 291.06 260.29 C 290.58 260.57 289.61 261.12 289.13 261.39 C 287.94 260.75 285.43 260.12 285.25 262.14 C 284.91 266.08 280.37 267.35 279.24 270.98 C 278.21 263.63 270.99 273.23 278.18 272.27 C 277.88 272.47 277.29 272.87 277.00 273.07 C 275.71 273.05 274.42 273.03 273.14 273.00 C 273.72 269.69 269.44 264.48 269.14 270.14 C 263.93 270.34 261.57 276.89 256.09 276.73 C 252.81 278.99 249.59 275.47 252.71 271.73 C 260.79 267.66 264.21 257.27 259.01 249.45 Z" />
</g>
<g id="#97a25dfd">
<path fill="#97a25d" opacity="1.00" d=" M 280.91 254.55 C 284.55 251.95 289.32 253.38 293.01 250.91 C 292.61 253.92 293.20 257.80 291.06 260.29 C 285.90 253.35 279.36 266.76 275.04 257.81 C 273.70 253.63 278.06 252.25 280.91 254.55 Z" />
</g>
<g id="#514d21ff">
<path fill="#514d21" opacity="1.00" d=" M 234.59 257.77 C 234.35 253.09 237.86 252.07 241.98 253.70 C 244.12 256.40 239.93 255.51 239.78 257.86 C 239.67 260.27 238.75 262.14 237.02 263.45 C 235.63 261.83 234.84 259.88 234.59 257.77 Z" />
</g>
<g id="#8a995aff">
<path fill="#8a995a" opacity="1.00" d=" M 227.01 265.15 C 229.87 262.96 230.39 258.04 234.59 257.77 C 234.84 259.88 235.63 261.83 237.02 263.45 C 238.67 266.69 241.05 272.84 234.93 271.01 C 239.23 265.06 233.88 268.33 230.07 269.95 C 230.07 268.85 231.49 265.30 229.59 267.54 C 229.01 271.70 226.09 268.45 224.14 267.18 C 223.47 269.81 222.72 272.43 222.06 275.07 C 225.60 276.30 231.18 268.15 231.93 274.80 C 227.53 275.16 219.97 280.94 218.73 273.38 C 216.27 276.54 213.64 271.71 210.73 271.36 C 205.16 270.47 210.70 267.92 213.23 267.22 C 211.59 261.91 217.85 261.04 220.56 263.55 C 222.45 259.43 224.38 264.42 227.01 265.15 Z" />
</g>
<g id="#7a7f3cfe">
<path fill="#7a7f3c" opacity="1.00" d=" M 237.02 263.45 C 238.75 262.14 239.67 260.27 239.78 257.86 C 238.32 264.17 244.27 261.09 247.38 259.27 C 247.13 262.08 241.47 265.03 246.69 265.70 C 251.83 269.17 254.24 261.37 254.05 257.50 C 259.53 267.09 247.05 270.35 245.17 277.95 C 243.76 279.60 242.48 281.64 240.29 282.31 C 237.03 282.73 232.85 280.71 230.08 283.12 C 228.57 284.37 226.92 285.48 225.13 286.29 C 221.51 286.97 219.75 284.51 220.15 281.21 C 212.74 287.59 210.56 277.97 210.78 272.03 L 210.73 271.36 C 213.64 271.71 216.27 276.54 218.73 273.38 C 219.97 280.94 227.53 275.16 231.93 274.80 C 231.18 268.15 225.60 276.30 222.06 275.07 C 222.72 272.43 223.47 269.81 224.14 267.18 C 226.09 268.45 229.01 271.70 229.59 267.54 C 231.49 265.30 230.07 268.85 230.07 269.95 C 233.88 268.33 239.23 265.06 234.93 271.01 C 241.05 272.84 238.67 266.69 237.02 263.45 M 236.32 276.34 C 235.62 279.87 242.86 280.57 242.65 277.14 C 242.98 276.58 243.63 275.45 243.96 274.89 C 245.68 274.77 246.69 271.17 244.89 270.03 C 241.56 271.42 239.14 274.21 236.32 276.34 Z" />
</g>
<g id="#293412a5">
<path fill="#293412" opacity="0.65" d=" M 285.25 262.14 C 285.43 260.12 287.94 260.75 289.13 261.39 C 288.02 262.25 286.59 262.42 285.25 262.14 Z" />
</g>
<g id="#b1a37bff">
<path fill="#b1a37b" opacity="1.00" d=" M 195.30 263.33 C 198.58 260.95 198.44 268.46 195.34 268.42 C 191.74 270.51 191.19 263.07 195.30 263.33 Z" />
</g>
<g id="#b0ac65f7">
<path fill="#b0ac65" opacity="0.97" d=" M 278.18 272.27 C 270.99 273.23 278.21 263.63 279.24 270.98 C 278.98 271.30 278.44 271.94 278.18 272.27 Z" />
</g>
<g id="#93a26cff">
<path fill="#93a26c" opacity="1.00" d=" M 236.32 276.34 C 239.14 274.21 241.56 271.42 244.89 270.03 C 246.69 271.17 245.68 274.77 243.96 274.89 C 241.84 272.86 239.45 276.75 242.65 277.14 C 242.86 280.57 235.62 279.87 236.32 276.34 Z" />
</g>
<g id="#00000014">
<path fill="#000000" opacity="0.08" d=" M 5.28 272.19 C 8.25 278.34 16.47 274.80 20.80 276.16 C 20.75 282.50 25.51 284.66 28.34 279.26 C 31.51 283.06 41.86 287.24 39.18 278.84 C 48.00 285.58 60.93 286.40 71.71 284.10 C 74.12 290.93 82.74 285.62 88.01 288.55 C 92.29 286.57 96.98 287.29 100.91 289.71 C 107.43 287.06 117.77 283.29 120.29 292.93 C 122.84 292.05 125.14 290.43 127.83 289.98 C 130.28 295.02 135.50 288.29 138.48 293.64 C 145.06 294.20 133.38 284.15 141.69 287.18 C 142.98 292.78 148.49 291.93 152.29 289.52 C 155.87 290.06 160.72 289.38 161.46 285.08 C 163.43 290.27 168.38 288.40 172.81 288.14 C 176.48 294.20 182.95 285.61 187.82 289.20 C 193.07 293.27 199.95 290.41 205.70 293.30 C 210.89 296.28 213.74 290.51 218.19 289.60 C 225.86 290.26 231.98 283.29 239.79 284.67 C 246.63 276.94 254.74 284.19 262.24 286.54 C 256.75 288.02 253.27 294.09 247.35 293.80 C 245.00 296.16 241.19 295.21 239.12 298.16 C 236.26 301.54 235.08 293.94 232.52 297.52 C 224.60 301.66 215.80 304.14 206.91 305.63 C 202.19 302.10 194.26 312.57 190.30 305.69 C 188.94 302.10 185.29 304.84 183.70 306.71 C 181.18 310.90 175.34 302.17 175.67 309.06 C 174.08 306.00 171.68 304.41 168.33 306.27 C 167.38 308.84 164.59 311.91 164.78 307.10 C 161.20 310.14 156.35 313.32 151.47 312.08 C 153.22 317.40 146.20 314.33 144.12 317.75 C 141.04 314.21 137.98 317.22 136.09 320.15 C 133.05 316.08 127.13 315.29 122.62 317.31 C 117.56 316.75 111.82 313.88 107.77 318.78 C 102.65 322.21 98.95 313.19 95.12 318.09 C 88.66 319.81 80.65 310.38 75.49 318.73 C 73.81 316.57 68.45 309.75 68.87 316.06 C 67.95 319.18 63.15 312.87 66.83 311.86 C 70.29 308.16 63.38 311.85 61.79 312.84 C 58.38 313.44 62.70 319.16 59.21 317.80 C 58.48 314.52 55.89 310.16 51.97 311.74 C 46.81 315.25 44.28 304.97 40.33 310.13 C 36.18 310.09 30.90 306.14 27.92 311.00 C 24.95 308.98 21.93 307.25 18.22 308.73 C 16.20 298.83 5.75 305.30 0.00 301.75 L 0.00 276.43 C 2.29 275.71 5.31 275.20 5.28 272.19 Z" />
</g>
<g id="#858547f6">
<path fill="#858547" opacity="0.96" d=" M 266.52 275.42 C 266.47 271.46 270.76 273.55 273.11 273.98 C 273.11 275.36 273.09 276.73 273.06 278.11 C 271.31 279.97 269.06 281.28 267.17 282.99 C 264.85 285.12 261.53 285.11 258.69 284.07 C 260.43 279.81 267.27 281.05 266.52 275.42 Z" />
</g>
<g id="#2e2f1286">
<path fill="#2e2f12" opacity="0.53" d=" M 273.14 273.00 C 274.42 273.03 275.71 273.05 277.00 273.07 C 274.76 273.95 273.90 276.03 273.06 278.11 C 273.09 276.73 273.11 275.36 273.11 273.98 L 273.14 273.00 Z" />
</g>
<g id="#dedec7ff">
<path fill="#dedec7" opacity="1.00" d=" M 242.65 277.14 C 239.45 276.75 241.84 272.86 243.96 274.89 C 243.63 275.45 242.98 276.58 242.65 277.14 Z" />
</g>
<g id="#443718cf">
<path fill="#443718" opacity="0.81" d=" M 230.08 283.12 C 232.85 280.71 237.03 282.73 240.29 282.31 C 237.05 283.55 233.44 282.82 230.08 283.12 Z" />
</g>
<g id="#242511a5">
<path fill="#242511" opacity="0.65" d=" M 189.86 286.15 C 193.78 286.47 198.36 285.24 201.85 287.13 C 197.85 286.86 193.80 286.96 189.86 286.15 Z" />
</g>
<g id="#1d210b85">
<path fill="#1d210b" opacity="0.52" d=" M 214.98 287.84 C 216.24 286.19 218.45 286.68 220.10 287.36 C 218.58 288.40 216.68 288.36 214.98 287.84 Z" />
</g>
</svg>
