<?xml version="1.0" encoding="UTF-8" ?>
<!DOCTYPE svg PUBLIC "-//W3C//DTD SVG 1.1//EN" "http://www.w3.org/Graphics/SVG/1.1/DTD/svg11.dtd">
<svg width="384pt" height="384pt" viewBox="0 0 384 384" version="1.1" xmlns="http://www.w3.org/2000/svg">
<g id="#0000000f">
<path fill="#000000" opacity="0.06" d=" M 8.15 24.02 C 10.00 21.22 11.56 25.27 12.23 26.95 C 16.27 26.55 21.90 28.61 24.63 24.58 C 29.78 21.32 22.70 33.05 28.61 29.47 C 33.29 26.09 36.36 33.08 41.30 32.62 C 44.93 33.29 43.64 25.85 47.94 26.93 C 47.70 29.29 47.15 31.60 46.96 33.97 C 52.11 32.56 58.95 30.54 63.14 34.87 C 66.92 38.24 70.72 29.71 75.33 33.63 C 79.67 34.31 79.21 38.68 80.09 42.13 C 83.56 41.46 84.63 37.17 87.16 35.07 C 91.02 35.17 88.75 41.29 92.88 39.79 C 99.26 36.98 103.37 45.85 109.81 41.84 C 115.23 38.86 107.22 46.57 111.79 46.28 C 116.16 48.72 115.61 43.72 115.08 40.88 C 121.13 43.30 126.23 49.44 132.74 44.98 C 133.41 50.67 139.11 47.12 142.31 50.38 C 148.22 47.28 151.62 56.29 157.92 55.54 C 160.98 54.23 162.34 59.86 164.99 56.97 C 167.11 54.16 169.72 63.33 170.10 58.04 C 172.84 54.48 175.47 63.06 179.34 61.59 C 185.66 62.57 190.51 56.47 195.64 58.29 C 197.01 64.06 203.74 59.32 206.87 63.14 C 210.21 66.62 216.96 61.44 216.40 68.85 C 222.43 66.86 227.23 70.97 230.73 75.41 C 234.82 77.85 228.27 81.92 231.58 83.38 C 234.70 84.76 234.88 90.14 239.14 89.04 C 238.59 86.55 236.32 85.06 234.96 83.03 C 238.10 80.09 239.75 84.89 240.48 87.38 C 238.82 92.60 241.71 96.85 244.30 100.98 C 248.89 100.22 254.48 90.70 258.07 97.80 C 256.28 98.02 254.48 98.21 252.77 98.80 C 248.34 102.19 244.84 106.97 237.92 105.19 L 237.24 104.70 C 232.41 101.48 226.53 99.95 222.02 96.14 C 220.61 89.71 212.39 89.47 207.25 90.13 C 199.65 94.88 200.29 82.02 192.56 86.41 C 186.71 82.33 179.45 78.48 172.11 79.88 C 162.19 71.84 148.09 72.84 136.52 68.44 C 129.83 62.20 118.13 66.78 112.10 59.12 C 110.49 60.32 110.32 62.11 110.78 63.95 C 106.30 62.45 102.27 56.72 97.25 59.14 C 93.24 63.13 86.12 54.86 83.84 61.03 C 81.12 64.52 76.98 54.96 74.99 59.97 C 72.63 65.14 66.00 58.23 62.63 61.46 C 60.91 66.61 54.92 61.91 51.14 61.34 C 50.42 66.52 43.86 67.40 39.99 65.03 C 36.70 66.98 33.27 67.65 31.81 63.29 C 29.56 65.93 21.02 66.03 24.26 70.62 C 26.58 73.36 20.98 71.85 21.54 69.43 C 16.26 69.97 10.89 69.33 5.98 67.30 C 3.59 68.14 2.18 71.01 0.00 72.45 L 0.00 26.93 C 2.92 25.45 7.52 28.53 8.15 24.02 Z" />
<path fill="#000000" opacity="0.06" d=" M 268.19 134.11 C 269.73 133.26 271.30 132.45 272.90 131.70 C 274.97 131.78 276.94 132.44 278.09 134.26 C 280.22 135.94 282.20 135.99 284.06 134.41 C 284.57 134.04 285.60 133.29 286.11 132.92 C 285.55 135.56 280.83 138.36 285.31 139.67 C 291.54 143.19 285.47 155.16 278.09 152.97 C 283.33 162.41 284.04 174.12 279.23 184.05 C 279.58 187.01 282.24 186.93 284.08 185.15 C 283.11 188.83 281.82 192.42 280.93 196.12 C 286.24 196.65 282.71 188.18 288.11 189.99 C 282.84 199.10 286.32 212.48 296.44 215.61 C 302.84 220.75 291.61 225.20 295.02 230.00 C 299.66 228.52 300.70 224.18 301.07 219.87 C 305.73 221.71 301.96 226.30 302.02 229.78 C 304.55 231.05 307.27 231.96 309.72 233.42 C 312.08 237.54 303.80 239.45 306.66 243.29 C 308.43 246.25 311.95 243.86 314.61 243.92 C 314.16 246.14 313.56 248.60 316.76 248.12 C 312.87 251.21 316.23 254.33 319.88 255.13 C 319.05 256.89 316.36 258.28 317.30 260.46 C 319.62 261.43 322.23 262.71 322.61 265.51 C 320.21 266.97 318.66 269.13 318.62 272.02 C 316.15 271.68 314.74 269.38 312.95 267.93 C 311.24 274.44 318.21 276.36 321.90 279.92 C 324.38 277.94 316.78 273.41 321.01 271.97 C 326.35 270.53 322.49 278.38 327.97 275.10 C 323.81 279.87 326.87 290.72 318.28 290.03 C 320.35 281.94 307.79 289.63 313.65 293.35 C 317.31 295.62 314.37 298.17 312.79 300.77 C 316.40 298.05 319.86 304.18 316.52 305.39 C 308.97 303.75 312.40 309.46 314.99 311.14 C 311.58 314.61 314.12 320.74 308.92 322.59 C 306.98 321.76 305.04 320.82 302.87 320.93 C 303.71 323.10 304.98 325.07 305.96 327.19 C 301.43 327.99 301.80 318.39 297.32 322.29 C 293.99 326.68 291.76 331.89 287.77 335.84 C 285.40 335.45 284.40 333.35 283.85 331.25 C 288.44 333.67 292.07 326.36 289.94 323.11 C 286.82 324.78 283.70 326.48 280.22 327.28 C 282.49 329.90 284.46 333.47 282.97 336.97 C 279.88 336.30 278.59 334.08 279.68 331.13 C 276.23 327.24 277.88 320.59 273.02 316.67 C 270.42 318.18 269.43 323.64 265.72 321.27 C 262.74 319.09 259.94 321.58 256.94 322.11 C 256.64 319.24 258.42 316.90 260.75 315.47 C 259.32 312.19 256.14 315.27 254.03 315.87 C 250.91 314.76 247.99 312.99 244.55 313.28 C 241.57 311.23 238.96 308.03 235.10 307.87 C 235.82 311.60 236.83 315.28 236.96 319.12 C 233.57 319.66 232.37 316.11 230.45 314.09 C 229.23 318.15 224.99 325.05 220.26 321.42 C 219.42 322.93 218.70 324.51 217.81 326.00 C 214.89 325.20 217.72 322.69 218.06 320.91 C 215.13 321.29 212.35 322.81 209.35 322.52 C 203.98 321.27 204.11 329.80 199.09 330.02 C 193.60 330.72 190.77 335.56 187.38 339.29 C 181.60 338.22 182.67 348.01 176.41 344.49 C 174.37 343.68 171.25 347.51 170.79 344.20 C 168.28 337.43 162.93 353.08 160.32 345.59 C 156.62 342.79 144.44 339.80 146.56 347.54 C 144.60 347.95 141.99 351.02 140.36 348.70 C 137.51 343.96 130.39 345.35 126.97 348.96 C 124.78 351.30 122.33 350.66 120.87 348.04 C 117.09 349.75 113.35 350.36 112.46 345.26 C 107.85 346.08 104.21 351.55 98.61 348.78 C 96.41 342.22 89.05 349.61 87.12 353.17 C 86.04 350.85 87.23 348.11 85.87 345.96 C 83.23 347.31 80.84 350.79 77.45 349.67 C 75.07 346.88 72.09 344.73 68.97 342.85 C 67.46 346.80 72.86 346.05 73.07 349.17 C 70.70 349.25 68.16 345.92 66.15 348.16 C 63.20 352.24 60.97 342.21 56.42 347.30 C 50.95 350.00 44.77 348.76 39.20 350.99 C 38.33 348.16 38.07 344.62 34.23 344.18 C 30.57 350.18 20.92 352.19 15.89 346.92 C 12.52 347.68 14.73 354.11 9.40 350.73 C 7.68 347.24 2.57 343.26 0.00 348.24 L 0.00 298.16 C 1.74 297.07 8.15 292.75 4.75 297.04 C 3.97 300.03 7.72 298.08 8.75 296.71 C 11.79 293.95 13.11 300.43 16.35 298.44 C 20.82 296.28 21.27 303.72 25.88 301.33 C 29.58 304.25 33.95 307.72 38.90 309.16 C 38.84 307.31 37.03 302.13 40.58 303.38 C 43.63 308.03 50.62 309.74 54.92 305.91 C 58.55 302.51 70.98 298.54 68.09 307.09 C 70.71 301.59 76.59 307.40 78.90 309.42 C 82.12 305.52 84.71 308.20 87.05 310.91 C 91.03 306.99 94.77 311.84 98.72 312.71 C 102.05 314.34 111.60 304.48 109.40 312.31 C 113.81 306.71 120.59 310.17 125.83 306.94 C 131.82 306.36 141.94 309.47 145.63 303.32 C 150.69 299.52 148.75 305.61 151.24 305.95 C 153.69 306.67 154.40 303.33 156.59 302.96 C 157.07 304.69 157.18 306.61 158.40 308.03 C 159.64 303.87 164.31 302.33 167.98 300.99 C 175.80 305.26 184.31 297.12 192.57 299.57 C 199.57 299.97 203.10 290.99 210.38 291.38 C 224.36 286.31 237.82 277.60 245.91 264.90 C 250.92 260.97 256.46 256.26 255.24 249.02 C 256.32 243.40 247.67 232.38 255.17 232.14 C 255.67 229.93 255.72 227.61 255.70 225.35 C 253.24 223.42 249.92 221.75 250.95 218.01 C 256.88 221.43 263.23 216.23 267.79 212.72 L 268.30 212.12 C 270.73 210.61 273.51 209.78 275.93 208.26 C 278.63 205.46 278.78 200.92 277.02 197.59 C 272.10 194.27 267.38 190.47 261.91 188.07 C 256.45 186.09 250.69 185.29 245.11 183.76 C 247.86 178.07 244.37 171.46 250.26 167.41 C 249.24 160.26 248.48 152.33 241.05 148.95 C 235.96 142.87 241.13 145.80 243.84 147.19 C 248.07 149.80 253.33 148.72 258.06 148.99 C 263.44 149.03 268.83 149.04 274.21 148.82 C 275.89 148.89 277.56 148.94 279.25 148.93 C 282.85 149.69 288.71 148.99 285.89 143.28 C 283.87 140.92 280.76 140.12 278.05 138.84 C 276.50 138.71 273.41 138.44 271.86 138.31 C 270.05 137.41 267.46 137.22 266.77 135.00 C 267.12 134.78 267.83 134.34 268.19 134.11 Z" />
</g>
<g id="#00000017">
<path fill="#000000" opacity="0.09" d=" M 74.99 59.97 C 76.98 54.96 81.12 64.52 83.84 61.03 C 86.12 54.86 93.24 63.13 97.25 59.14 C 102.27 56.72 106.30 62.45 110.78 63.95 C 110.32 62.11 110.49 60.32 112.10 59.12 C 118.13 66.78 129.83 62.20 136.52 68.44 C 148.09 72.84 162.19 71.84 172.11 79.88 C 179.45 78.48 186.71 82.33 192.56 86.41 C 200.29 82.02 199.65 94.88 207.25 90.13 C 212.39 89.47 220.61 89.71 222.02 96.14 C 220.46 94.86 218.98 93.43 217.19 92.48 C 211.52 90.43 206.57 93.94 201.39 95.46 C 196.12 97.41 190.32 96.35 184.94 97.74 C 177.90 99.38 175.41 108.83 167.41 109.51 C 160.82 112.75 165.39 99.68 159.20 101.40 C 157.20 96.98 152.13 95.20 147.57 95.46 C 145.96 92.05 143.31 93.50 141.84 96.14 C 138.55 94.14 138.32 89.87 135.96 87.10 C 133.10 90.77 128.33 88.58 125.22 91.67 C 121.80 85.82 115.62 83.67 109.44 82.54 C 105.30 79.90 99.87 81.29 96.23 84.17 C 97.82 81.08 95.55 76.86 92.77 80.77 C 90.92 84.23 88.31 80.85 85.87 80.04 C 81.30 78.45 81.15 87.37 76.47 84.46 C 69.92 80.67 64.56 87.53 58.24 87.75 C 54.81 84.73 50.24 88.14 46.40 88.52 C 38.82 93.19 28.04 88.76 21.51 95.46 C 18.21 92.70 13.56 95.05 9.76 95.76 C 6.51 96.92 2.02 95.76 0.00 99.17 L 0.00 72.45 C 2.18 71.01 3.59 68.14 5.98 67.30 C 10.89 69.33 16.26 69.97 21.54 69.43 C 20.98 71.85 26.58 73.36 24.26 70.62 C 21.02 66.03 29.56 65.93 31.81 63.29 C 33.27 67.65 36.70 66.98 39.99 65.03 C 43.86 67.40 50.42 66.52 51.14 61.34 C 54.92 61.91 60.91 66.61 62.63 61.46 C 66.00 58.23 72.63 65.14 74.99 59.97 Z" />
</g>
<g id="#0000001e">
<path fill="#000000" opacity="0.12" d=" M 92.77 80.77 C 95.55 76.86 97.82 81.08 96.23 84.17 C 99.87 81.29 105.30 79.90 109.44 82.54 C 115.62 83.67 121.80 85.82 125.22 91.67 C 128.33 88.58 133.10 90.77 135.96 87.10 C 138.32 89.87 138.55 94.14 141.84 96.14 C 143.31 93.50 145.96 92.05 147.57 95.46 C 152.13 95.20 157.20 96.98 159.20 101.40 C 165.39 99.68 160.82 112.75 167.41 109.51 C 175.41 108.83 177.90 99.38 184.94 97.74 C 178.78 107.01 169.72 112.30 161.21 118.86 C 153.69 119.75 144.31 120.74 139.62 113.25 C 132.61 115.44 127.35 108.54 120.23 108.73 C 116.90 109.41 114.35 107.02 111.42 105.99 C 111.42 110.81 106.76 108.95 106.52 105.29 C 102.73 105.76 99.11 107.16 95.31 107.59 C 92.33 104.67 88.54 98.40 84.66 103.57 C 81.05 107.31 76.35 100.78 72.52 103.34 C 67.58 106.92 62.35 104.42 57.24 102.98 C 56.42 110.72 50.20 102.23 46.85 106.83 C 44.28 109.31 40.45 109.91 38.57 106.37 C 31.58 107.59 26.08 119.49 18.11 115.00 C 13.93 121.00 5.76 117.48 0.00 121.38 L 0.00 99.17 C 2.02 95.76 6.51 96.92 9.76 95.76 C 13.56 95.05 18.21 92.70 21.51 95.46 C 28.04 88.76 38.82 93.19 46.40 88.52 C 50.24 88.14 54.81 84.73 58.24 87.75 C 64.56 87.53 69.92 80.67 76.47 84.46 C 81.15 87.37 81.30 78.45 85.87 80.04 C 88.31 80.85 90.92 84.23 92.77 80.77 Z" />
</g>
<g id="#585d32fd">
<path fill="#585d32" opacity="1.00" d=" M 201.39 95.46 C 206.57 93.94 211.52 90.43 217.19 92.48 C 213.40 91.87 209.11 98.72 214.79 98.30 C 218.29 97.61 216.81 101.93 217.86 103.92 L 218.20 104.82 C 215.95 107.91 215.01 101.03 212.04 101.97 C 209.26 101.58 209.83 105.33 208.72 107.00 C 206.01 106.06 208.47 103.55 208.82 101.75 C 206.86 102.37 205.05 103.37 203.09 103.97 C 200.51 102.87 197.91 98.38 195.06 101.01 C 192.55 103.51 191.13 106.95 188.78 109.61 C 180.00 106.25 187.45 121.80 190.16 114.05 C 194.17 108.55 199.11 122.22 192.01 117.83 C 188.16 114.11 183.12 126.71 182.67 118.93 C 181.76 119.32 180.99 119.89 180.35 120.64 C 174.59 124.37 180.09 116.89 175.85 115.25 C 172.61 115.91 167.48 115.74 167.00 120.00 C 166.59 123.95 161.51 122.90 159.04 125.01 C 162.97 128.77 163.69 134.09 162.39 139.22 C 166.25 137.83 167.31 132.95 167.27 129.12 C 171.86 129.56 176.44 129.89 181.00 129.00 C 182.73 135.73 168.45 129.85 170.17 136.82 C 173.43 141.16 172.87 148.90 179.51 149.60 C 178.98 156.93 181.61 155.71 184.97 152.74 C 184.32 157.57 179.27 158.36 176.57 161.64 C 172.86 164.53 178.51 167.49 179.76 170.33 C 186.96 168.77 182.94 172.90 181.83 175.03 C 179.15 171.63 173.49 171.74 172.57 167.18 C 169.96 168.05 168.07 170.18 167.05 172.68 C 170.88 172.44 173.07 175.85 174.44 178.89 C 172.34 181.05 170.88 187.05 175.69 185.68 C 180.49 184.17 184.07 189.95 185.11 194.08 C 181.16 194.69 180.48 189.60 176.90 188.92 C 175.87 192.85 180.07 193.61 181.91 196.08 C 177.10 193.40 178.76 196.81 180.05 200.13 C 172.76 197.82 166.19 190.71 158.57 189.64 C 156.54 191.69 153.71 190.29 151.41 189.57 C 148.42 187.60 150.13 182.21 146.06 181.74 C 145.24 185.15 148.15 189.18 147.23 192.37 C 143.23 195.87 140.88 187.18 137.03 189.87 C 136.70 188.88 136.36 187.88 136.04 186.89 C 134.70 181.93 136.83 177.57 139.85 173.89 C 141.27 170.92 140.81 167.34 141.14 164.12 C 141.24 163.62 141.44 162.64 141.53 162.15 C 143.72 153.91 148.99 147.03 146.08 138.08 C 146.24 137.52 146.56 136.42 146.71 135.86 C 146.79 135.44 146.94 134.61 147.01 134.19 C 147.08 133.71 147.22 132.76 147.28 132.28 C 148.26 128.38 150.67 125.06 154.14 123.02 C 156.69 121.99 159.12 120.64 161.21 118.86 C 169.72 112.30 178.78 107.01 184.94 97.74 C 190.32 96.35 196.12 97.41 201.39 95.46 Z" />
</g>
<g id="#6c7332fa">
<path fill="#6c7332" opacity="0.98" d=" M 214.79 98.30 C 209.11 98.72 213.40 91.87 217.19 92.48 C 218.98 93.43 220.46 94.86 222.02 96.14 C 226.53 99.95 232.41 101.48 237.24 104.70 C 234.66 104.87 232.01 106.00 229.46 105.11 C 227.08 102.94 224.45 105.13 222.40 106.57 C 220.91 105.36 220.13 102.04 217.86 103.92 C 216.81 101.93 218.29 97.61 214.79 98.30 Z" />
</g>
<g id="#808040f1">
<path fill="#808040" opacity="0.95" d=" M 252.77 98.80 C 254.48 98.21 256.28 98.02 258.07 97.80 C 259.48 103.09 268.82 101.51 266.94 108.04 C 263.61 109.42 259.93 109.51 260.02 104.98 C 260.44 99.90 250.59 103.65 252.77 98.80 Z" />
</g>
<g id="#595b2ffa">
<path fill="#595b2f" opacity="0.98" d=" M 237.92 105.19 C 244.84 106.97 248.34 102.19 252.77 98.80 C 250.59 103.65 260.44 99.90 260.02 104.98 C 259.93 109.51 263.61 109.42 266.94 108.04 C 267.26 108.25 267.90 108.68 268.22 108.90 C 268.60 112.13 266.82 114.64 264.57 116.72 C 261.46 115.90 264.84 112.79 265.03 110.83 C 262.86 111.54 260.93 112.76 258.94 113.83 C 257.89 110.95 259.92 107.16 256.61 105.40 C 252.92 104.59 250.61 108.19 249.16 111.07 C 250.72 113.64 253.37 115.85 253.08 119.16 C 249.05 117.87 248.10 113.26 245.67 110.35 C 242.45 109.71 240.05 107.56 237.92 105.19 Z" />
</g>
<g id="#6d7834ff">
<path fill="#6d7834" opacity="1.00" d=" M 195.06 101.01 C 197.91 98.38 200.51 102.87 203.09 103.97 C 205.05 103.37 206.86 102.37 208.82 101.75 C 208.47 103.55 206.01 106.06 208.72 107.00 C 209.83 105.33 209.26 101.58 212.04 101.97 C 215.01 101.03 215.95 107.91 218.20 104.82 C 218.49 110.18 210.36 117.06 204.82 113.24 C 204.41 121.86 210.24 114.61 214.52 114.68 C 224.55 113.60 220.95 120.89 214.91 122.26 C 217.32 126.47 222.25 121.97 225.48 121.13 C 225.83 122.86 226.94 123.83 228.68 123.91 C 227.72 126.46 228.97 128.89 229.86 131.25 C 226.42 128.89 220.02 125.70 218.59 131.74 C 219.53 138.55 211.38 126.88 210.95 132.92 C 210.56 136.07 206.24 135.96 203.85 137.04 C 204.70 134.10 209.32 133.95 208.14 129.97 C 205.49 131.35 202.95 133.11 201.50 135.79 L 200.78 135.91 C 201.11 134.09 201.55 132.29 201.69 130.44 C 200.04 129.59 196.46 129.15 199.16 127.09 C 202.30 129.21 205.65 127.41 209.10 127.86 C 207.76 125.01 204.82 123.48 202.06 122.28 C 199.02 124.96 190.33 121.64 192.01 117.83 C 199.11 122.22 194.17 108.55 190.16 114.05 C 187.45 121.80 180.00 106.25 188.78 109.61 C 191.13 106.95 192.55 103.51 195.06 101.01 Z" />
</g>
<g id="#00000025">
<path fill="#000000" opacity="0.15" d=" M 84.66 103.57 C 88.54 98.40 92.33 104.67 95.31 107.59 C 99.11 107.16 102.73 105.76 106.52 105.29 C 106.76 108.95 111.42 110.81 111.42 105.99 C 114.35 107.02 116.90 109.41 120.23 108.73 C 127.35 108.54 132.61 115.44 139.62 113.25 C 144.31 120.74 153.69 119.75 161.21 118.86 C 159.12 120.64 156.69 121.99 154.14 123.02 C 150.86 122.89 148.95 126.10 146.02 126.77 C 133.58 125.33 121.74 119.35 108.99 120.63 C 97.04 121.90 84.98 121.31 73.01 122.67 C 67.71 121.72 61.76 123.11 57.82 126.88 C 54.30 126.52 60.02 118.57 52.42 123.24 C 50.60 128.02 46.71 126.54 43.00 125.14 C 28.91 128.51 14.26 128.02 0.00 127.92 L 0.00 121.38 C 5.76 117.48 13.93 121.00 18.11 115.00 C 26.08 119.49 31.58 107.59 38.57 106.37 C 40.45 109.91 44.28 109.31 46.85 106.83 C 50.20 102.23 56.42 110.72 57.24 102.98 C 62.35 104.42 67.58 106.92 72.52 103.34 C 76.35 100.78 81.05 107.31 84.66 103.57 Z" />
</g>
<g id="#8fa059ff">
<path fill="#8fa059" opacity="1.00" d=" M 217.86 103.92 C 220.13 102.04 220.91 105.36 222.40 106.57 C 224.45 105.13 227.08 102.94 229.46 105.11 C 228.03 107.91 224.05 108.63 224.42 112.57 C 223.10 116.84 217.74 113.47 214.52 114.68 C 210.24 114.61 204.41 121.86 204.82 113.24 C 210.36 117.06 218.49 110.18 218.20 104.82 L 217.86 103.92 Z" />
</g>
<g id="#7c8543fd">
<path fill="#7c8543" opacity="1.00" d=" M 229.46 105.11 C 232.01 106.00 234.66 104.87 237.24 104.70 L 237.92 105.19 C 240.05 107.56 242.45 109.71 245.67 110.35 C 248.10 113.26 249.05 117.87 253.08 119.16 C 253.37 115.85 250.72 113.64 249.16 111.07 C 250.61 108.19 252.92 104.59 256.61 105.40 C 259.92 107.16 257.89 110.95 258.94 113.83 C 260.93 112.76 262.86 111.54 265.03 110.83 C 264.84 112.79 261.46 115.90 264.57 116.72 C 266.82 114.64 268.60 112.13 268.22 108.90 C 274.51 108.81 275.01 116.11 278.09 120.06 C 279.60 120.22 282.61 120.53 284.12 120.68 C 284.85 121.46 285.56 122.25 286.28 123.06 L 285.85 123.77 C 282.33 122.22 279.97 125.79 276.85 125.08 C 277.51 122.01 274.99 118.63 271.03 120.97 C 267.55 128.49 273.85 124.81 276.85 125.08 C 277.03 129.89 284.31 131.19 286.52 127.10 L 287.15 126.95 C 286.96 128.67 287.00 130.45 286.42 132.10 C 282.05 131.32 277.15 129.76 272.90 131.70 C 271.30 132.45 269.73 133.26 268.19 134.11 C 269.21 127.13 266.65 124.31 260.51 125.26 C 262.13 129.79 252.74 127.58 257.08 133.74 C 259.65 135.95 263.64 133.63 266.77 135.00 C 267.46 137.22 270.05 137.41 271.86 138.31 C 273.41 138.44 276.50 138.71 278.05 138.84 C 280.76 140.12 283.87 140.92 285.89 143.28 C 288.71 148.99 282.85 149.69 279.25 148.93 C 275.58 141.12 258.24 153.52 262.07 142.34 C 259.35 142.25 256.05 144.08 254.01 141.83 C 253.22 138.61 260.59 138.79 257.93 136.12 C 254.48 133.65 255.90 128.76 257.83 125.74 C 255.23 125.65 253.46 127.56 252.95 129.97 C 251.53 134.45 246.45 135.13 242.79 137.05 C 242.29 136.86 241.29 136.49 240.79 136.30 C 239.68 133.10 238.05 131.54 235.15 134.16 C 236.22 132.49 237.41 130.70 235.38 129.25 C 238.95 129.08 240.64 123.72 237.01 122.24 C 242.39 120.77 238.77 116.29 234.98 115.83 C 235.44 118.03 236.20 120.15 237.01 122.24 C 230.53 124.36 233.43 114.45 237.05 112.17 C 229.30 107.53 231.50 119.40 228.68 123.91 C 226.94 123.83 225.83 122.86 225.48 121.13 C 222.25 121.97 217.32 126.47 214.91 122.26 C 220.95 120.89 224.55 113.60 214.52 114.68 C 217.74 113.47 223.10 116.84 224.42 112.57 C 224.05 108.63 228.03 107.91 229.46 105.11 M 248.21 122.09 C 243.68 127.93 256.12 123.34 248.21 122.09 M 266.11 138.05 C 262.64 142.30 268.92 146.27 273.01 144.99 C 274.42 140.30 268.83 140.26 266.11 138.05 Z" />
</g>
<g id="#615b24ff">
<path fill="#615b24" opacity="1.00" d=" M 228.68 123.91 C 231.50 119.40 229.30 107.53 237.05 112.17 C 233.43 114.45 230.53 124.36 237.01 122.24 C 240.64 123.72 238.95 129.08 235.38 129.25 C 237.41 130.70 236.22 132.49 235.15 134.16 C 238.05 131.54 239.68 133.10 240.79 136.30 C 237.77 135.96 234.81 135.50 231.98 134.42 C 231.29 133.35 230.55 132.32 229.86 131.25 C 228.97 128.89 227.72 126.46 228.68 123.91 Z" />
</g>
<g id="#6a733eff">
<path fill="#6a733e" opacity="1.00" d=" M 167.00 120.00 C 167.48 115.74 172.61 115.91 175.85 115.25 C 180.09 116.89 174.59 124.37 180.35 120.64 C 182.11 127.67 186.63 133.80 188.01 141.19 C 186.58 143.56 187.45 147.14 190.67 146.86 C 192.05 145.39 192.80 142.12 195.31 143.80 C 195.32 149.47 187.03 150.36 190.23 155.60 C 187.32 158.61 186.98 162.77 187.30 166.73 C 189.33 169.99 191.26 163.93 193.90 163.67 C 193.85 161.33 190.01 160.62 191.66 157.86 C 191.96 151.37 201.20 155.70 201.28 159.92 C 200.94 165.24 193.86 164.54 192.54 169.55 C 188.53 175.96 194.61 172.67 197.13 172.98 C 195.62 174.89 193.55 176.00 191.18 176.43 C 190.37 180.31 197.10 176.28 197.13 179.98 C 198.16 182.36 199.40 179.43 199.43 178.07 C 203.79 177.20 200.09 188.39 198.14 183.91 C 197.82 180.31 195.25 183.25 195.07 185.23 C 194.52 182.50 193.08 180.12 190.06 179.86 C 190.22 182.22 192.01 185.78 188.38 186.17 C 190.00 181.25 185.60 178.05 182.70 181.71 C 180.84 184.86 175.54 181.34 175.69 185.68 C 170.88 187.05 172.34 181.05 174.44 178.89 C 173.07 175.85 170.88 172.44 167.05 172.68 C 168.07 170.18 169.96 168.05 172.57 167.18 C 173.49 171.74 179.15 171.63 181.83 175.03 C 182.94 172.90 186.96 168.77 179.76 170.33 C 178.51 167.49 172.86 164.53 176.57 161.64 C 179.27 158.36 184.32 157.57 184.97 152.74 C 181.61 155.71 178.98 156.93 179.51 149.60 C 172.87 148.90 173.43 141.16 170.17 136.82 C 168.45 129.85 182.73 135.73 181.00 129.00 C 176.44 129.89 171.86 129.56 167.27 129.12 C 167.31 132.95 166.25 137.83 162.39 139.22 C 163.69 134.09 162.97 128.77 159.04 125.01 C 161.51 122.90 166.59 123.95 167.00 120.00 M 179.57 146.54 C 180.92 146.05 181.71 145.25 181.95 144.13 C 186.02 142.22 186.11 134.93 181.00 134.95 C 173.69 134.26 175.62 149.59 179.57 146.54 Z" />
</g>
<g id="#b7a486ff">
<path fill="#b7a486" opacity="1.00" d=" M 234.98 115.83 C 238.77 116.29 242.39 120.77 237.01 122.24 C 236.20 120.15 235.44 118.03 234.98 115.83 Z" />
</g>
<g id="#869049ff">
<path fill="#869049" opacity="1.00" d=" M 182.67 118.93 C 183.12 126.71 188.16 114.11 192.01 117.83 C 190.33 121.64 199.02 124.96 202.06 122.28 C 204.82 123.48 207.76 125.01 209.10 127.86 C 205.65 127.41 202.30 129.21 199.16 127.09 C 196.46 129.15 200.04 129.59 201.69 130.44 C 201.55 132.29 201.11 134.09 200.78 135.91 C 197.28 139.18 192.50 140.11 188.01 141.19 C 186.63 133.80 182.11 127.67 180.35 120.64 C 180.99 119.89 181.76 119.32 182.67 118.93 Z" />
</g>
<g id="#0000002e">
<path fill="#000000" opacity="0.18" d=" M 73.01 122.67 C 84.98 121.31 97.04 121.90 108.99 120.63 C 121.74 119.35 133.58 125.33 146.02 126.77 C 148.95 126.10 150.86 122.89 154.14 123.02 C 150.67 125.06 148.26 128.38 147.28 132.28 C 116.97 128.79 86.89 134.07 56.62 134.59 C 37.75 134.50 18.85 134.43 0.00 132.95 L 0.00 127.92 C 14.26 128.02 28.91 128.51 43.00 125.14 C 46.71 126.54 50.60 128.02 52.42 123.24 C 60.02 118.57 54.30 126.52 57.82 126.88 C 61.76 123.11 67.71 121.72 73.01 122.67 Z" />
</g>
<g id="#222a0f8e">
<path fill="#222a0f" opacity="0.56" d=" M 278.09 120.06 C 279.60 120.22 282.61 120.53 284.12 120.68 C 282.61 120.53 279.60 120.22 278.09 120.06 Z" />
</g>
<g id="#b3ae61ff">
<path fill="#b3ae61" opacity="1.00" d=" M 271.03 120.97 C 274.99 118.63 277.51 122.01 276.85 125.08 C 273.85 124.81 267.55 128.49 271.03 120.97 Z" />
</g>
<g id="#c9baa1ff">
<path fill="#c9baa1" opacity="1.00" d=" M 248.21 122.09 C 256.12 123.34 243.68 127.93 248.21 122.09 Z" />
</g>
<g id="#a7b672ff">
<path fill="#a7b672" opacity="1.00" d=" M 276.85 125.08 C 279.97 125.79 282.33 122.22 285.85 123.77 C 286.02 124.60 286.35 126.27 286.52 127.10 C 284.31 131.19 277.03 129.89 276.85 125.08 Z" />
</g>
<g id="#32371a73">
<path fill="#32371a" opacity="0.45" d=" M 286.28 123.06 C 287.44 124.00 287.35 125.62 287.15 126.95 L 286.52 127.10 C 286.35 126.27 286.02 124.60 285.85 123.77 L 286.28 123.06 Z" />
</g>
<g id="#959a65fe">
<path fill="#959a65" opacity="1.00" d=" M 260.51 125.26 C 266.65 124.31 269.21 127.13 268.19 134.11 C 267.83 134.34 267.12 134.78 266.77 135.00 C 263.64 133.63 259.65 135.95 257.08 133.74 C 252.74 127.58 262.13 129.79 260.51 125.26 Z" />
</g>
<g id="#515e2afd">
<path fill="#515e2a" opacity="1.00" d=" M 252.95 129.97 C 253.46 127.56 255.23 125.65 257.83 125.74 C 255.90 128.76 254.48 133.65 257.93 136.12 C 260.59 138.79 253.22 138.61 254.01 141.83 C 256.05 144.08 259.35 142.25 262.07 142.34 C 258.24 153.52 275.58 141.12 279.25 148.93 C 277.56 148.94 275.89 148.89 274.21 148.82 C 268.80 148.03 263.32 148.02 257.88 147.95 L 257.04 147.75 C 255.62 146.56 253.69 146.62 252.02 147.18 C 251.79 146.93 251.32 146.43 251.08 146.18 C 249.49 142.30 245.33 140.29 242.79 137.05 C 246.45 135.13 251.53 134.45 252.95 129.97 Z" />
</g>
<g id="#838748fe">
<path fill="#838748" opacity="1.00" d=" M 218.59 131.74 C 220.02 125.70 226.42 128.89 229.86 131.25 C 230.55 132.32 231.29 133.35 231.98 134.42 C 231.80 134.77 231.42 135.47 231.24 135.82 C 229.38 140.09 226.41 144.21 226.00 148.91 C 230.13 156.46 237.17 162.71 238.39 171.69 C 238.29 174.88 237.69 178.18 238.61 181.31 C 238.99 183.03 239.54 184.70 240.17 186.35 C 237.95 187.65 236.13 185.92 234.18 185.11 C 230.93 189.68 224.37 190.53 219.17 192.24 C 221.25 186.35 217.23 190.91 215.46 193.39 C 216.70 190.15 214.93 189.35 211.87 190.04 C 212.84 191.78 214.05 193.38 215.03 195.13 C 211.75 195.83 210.64 192.58 209.74 190.12 C 212.10 188.73 214.31 187.09 216.64 185.64 C 214.08 184.31 213.81 181.68 213.92 179.04 C 219.12 183.49 222.95 175.84 223.37 171.29 C 228.06 172.87 223.69 169.08 224.49 166.43 C 218.41 166.41 220.48 161.62 222.00 157.79 C 219.08 153.43 221.60 152.37 225.99 151.89 C 221.90 146.74 217.80 141.58 215.54 135.29 C 208.74 132.17 205.19 147.92 213.03 146.31 C 213.10 149.48 209.66 150.91 207.94 153.12 C 208.84 156.21 211.69 153.23 213.73 153.11 C 215.08 155.05 216.42 156.99 217.77 158.95 C 217.26 160.01 216.88 161.17 216.13 162.10 C 213.44 161.18 210.78 160.21 208.07 159.38 C 202.77 163.75 206.88 172.25 211.84 175.21 L 212.04 176.04 C 209.72 176.76 207.35 177.35 205.06 178.18 C 206.20 181.10 208.79 182.45 211.69 183.09 C 210.91 185.40 210.12 187.71 209.74 190.12 C 204.75 192.66 206.78 197.04 205.88 202.03 C 200.73 201.51 204.05 193.73 199.06 192.95 C 199.04 193.73 199.00 195.29 198.98 196.07 C 194.19 194.56 195.00 189.29 195.07 185.23 C 195.25 183.25 197.82 180.31 198.14 183.91 C 200.09 188.39 203.79 177.20 199.43 178.07 C 199.40 179.43 198.16 182.36 197.13 179.98 C 197.10 176.28 190.37 180.31 191.18 176.43 C 193.55 176.00 195.62 174.89 197.13 172.98 C 194.61 172.67 188.53 175.96 192.54 169.55 C 193.86 164.54 200.94 165.24 201.28 159.92 C 201.20 155.70 191.96 151.37 191.66 157.86 C 190.01 160.62 193.85 161.33 193.90 163.67 C 191.26 163.93 189.33 169.99 187.30 166.73 C 186.98 162.77 187.32 158.61 190.23 155.60 C 187.03 150.36 195.32 149.47 195.31 143.80 C 198.96 144.77 197.89 138.35 201.77 140.10 C 205.36 143.52 201.33 150.27 205.82 153.17 C 207.98 146.48 207.26 139.99 201.50 135.79 C 202.95 133.11 205.49 131.35 208.14 129.97 C 209.32 133.95 204.70 134.10 203.85 137.04 C 206.24 135.96 210.56 136.07 210.95 132.92 C 211.38 126.88 219.53 138.55 218.59 131.74 M 222.03 131.88 C 221.27 135.10 223.44 140.11 226.80 140.93 C 229.51 137.42 225.63 132.58 222.03 131.88 M 230.20 173.11 C 227.66 176.63 229.17 180.67 229.17 185.14 C 234.48 184.22 233.39 179.95 231.99 176.24 C 237.56 176.70 233.59 171.91 230.20 173.11 Z" />
</g>
<g id="#0000003d">
<path fill="#000000" opacity="0.24" d=" M 56.62 134.59 C 86.89 134.07 116.97 128.79 147.28 132.28 C 147.22 132.76 147.08 133.71 147.01 134.19 C 125.02 133.54 103.09 136.29 81.15 138.23 C 54.12 141.11 27.03 138.40 0.00 140.12 L 0.00 132.95 C 18.85 134.43 37.75 134.50 56.62 134.59 Z" />
</g>
<g id="#3e4e1cea">
<path fill="#3e4e1c" opacity="0.92" d=" M 272.90 131.70 C 277.15 129.76 282.05 131.32 286.42 132.10 L 286.11 132.92 C 285.60 133.29 284.57 134.04 284.06 134.41 C 282.18 133.48 280.00 133.44 278.09 134.26 C 276.94 132.44 274.97 131.78 272.90 131.70 Z" />
</g>
<g id="#ad9978ff">
<path fill="#ad9978" opacity="1.00" d=" M 222.03 131.88 C 225.63 132.58 229.51 137.42 226.80 140.93 C 223.44 140.11 221.27 135.10 222.03 131.88 Z" />
</g>
<g id="#0000004f">
<path fill="#000000" opacity="0.31" d=" M 81.15 138.23 C 103.09 136.29 125.02 133.54 147.01 134.19 C 146.94 134.61 146.79 135.44 146.71 135.86 C 110.36 135.38 74.66 144.61 38.31 144.41 C 35.50 146.72 26.51 144.63 27.06 149.82 C 51.79 154.53 76.24 162.55 101.69 161.69 C 114.59 160.06 127.62 161.41 140.36 163.67 C 140.17 167.06 140.11 170.49 139.85 173.89 C 136.83 177.57 134.70 181.93 136.04 186.89 C 133.03 180.90 136.65 175.30 139.07 170.06 C 134.92 163.28 124.76 165.73 117.98 164.12 C 95.95 164.91 73.67 164.08 52.14 158.84 C 34.91 156.36 17.40 155.25 0.00 156.05 L 0.00 140.12 C 27.03 138.40 54.12 141.11 81.15 138.23 Z" />
</g>
<g id="#333b17ed">
<path fill="#333b17" opacity="0.93" d=" M 231.98 134.42 C 234.81 135.50 237.77 135.96 240.79 136.30 C 241.29 136.49 242.29 136.86 242.79 137.05 C 245.33 140.29 249.49 142.30 251.08 146.18 C 243.08 145.76 238.58 137.93 231.24 135.82 C 231.42 135.47 231.80 134.77 231.98 134.42 Z" />
</g>
<g id="#171d0b84">
<path fill="#171d0b" opacity="0.52" d=" M 278.09 134.26 C 280.00 133.44 282.18 133.48 284.06 134.41 C 282.20 135.99 280.22 135.94 278.09 134.26 Z" />
</g>
<g id="#9d8f66ff">
<path fill="#9d8f66" opacity="1.00" d=" M 179.57 146.54 C 175.62 149.59 173.69 134.26 181.00 134.95 C 186.11 134.93 186.02 142.22 181.95 144.13 C 179.35 138.35 176.15 143.08 179.57 146.54 Z" />
</g>
<g id="#909e66ff">
<path fill="#909e66" opacity="1.00" d=" M 213.03 146.31 C 205.19 147.92 208.74 132.17 215.54 135.29 C 217.80 141.58 221.90 146.74 225.99 151.89 C 221.60 152.37 219.08 153.43 222.00 157.79 C 220.57 158.11 219.14 158.45 217.77 158.95 C 216.42 156.99 215.08 155.05 213.73 153.11 C 211.69 153.23 208.84 156.21 207.94 153.12 C 209.66 150.91 213.10 149.48 213.03 146.31 Z" />
</g>
<g id="#0000005e">
<path fill="#000000" opacity="0.37" d=" M 38.31 144.41 C 74.66 144.61 110.36 135.38 146.71 135.86 C 146.56 136.42 146.24 137.52 146.08 138.08 L 145.18 138.09 C 119.36 137.18 93.97 143.35 68.93 148.93 C 67.12 149.07 68.31 151.65 68.09 152.84 C 85.16 162.11 104.84 156.48 123.04 158.94 C 128.45 160.99 137.01 158.15 140.36 163.67 C 127.62 161.41 114.59 160.06 101.69 161.69 C 76.24 162.55 51.79 154.53 27.06 149.82 C 26.51 144.63 35.50 146.72 38.31 144.41 Z" />
</g>
<g id="#94a667ff">
<path fill="#94a667" opacity="1.00" d=" M 188.01 141.19 C 192.50 140.11 197.28 139.18 200.78 135.91 L 201.50 135.79 C 207.26 139.99 207.98 146.48 205.82 153.17 C 201.33 150.27 205.36 143.52 201.77 140.10 C 197.89 138.35 198.96 144.77 195.31 143.80 C 192.80 142.12 192.05 145.39 190.67 146.86 C 187.45 147.14 186.58 143.56 188.01 141.19 Z" />
</g>
<g id="#0202011c">
<path fill="#020201" opacity="0.11" d=" M 231.24 135.82 C 238.58 137.93 243.08 145.76 251.08 146.18 C 251.32 146.43 251.79 146.93 252.02 147.18 C 253.19 148.86 255.42 148.26 257.04 147.75 L 257.88 147.95 L 258.06 148.99 C 253.33 148.72 248.07 149.80 243.84 147.19 C 241.13 145.80 235.96 142.87 241.05 148.95 C 248.48 152.33 249.24 160.26 250.26 167.41 C 244.37 171.46 247.86 178.07 245.11 183.76 C 250.69 185.29 256.45 186.09 261.91 188.07 C 260.26 188.14 256.96 188.27 255.31 188.33 C 251.17 188.24 247.02 188.16 242.89 188.09 C 241.95 187.55 241.07 186.93 240.17 186.35 C 239.54 184.70 238.99 183.03 238.61 181.31 C 238.68 178.09 239.28 174.83 238.39 171.69 C 237.17 162.71 230.13 156.46 226.00 148.91 C 226.41 144.21 229.38 140.09 231.24 135.82 Z" />
</g>
<g id="#00000071">
<path fill="#000000" opacity="0.44" d=" M 68.93 148.93 C 93.97 143.35 119.36 137.18 145.18 138.09 C 145.72 144.00 137.20 139.43 134.12 141.24 C 125.59 143.41 113.05 143.75 109.00 152.75 C 118.26 154.44 127.29 157.29 136.66 158.39 C 138.98 158.56 140.85 159.86 141.53 162.15 C 141.44 162.64 141.24 163.62 141.14 164.12 L 140.36 163.67 C 137.01 158.15 128.45 160.99 123.04 158.94 C 104.84 156.48 85.16 162.11 68.09 152.84 C 68.31 151.65 67.12 149.07 68.93 148.93 Z" />
</g>
<g id="#01010184">
<path fill="#010101" opacity="0.52" d=" M 145.18 138.09 L 146.08 138.08 C 148.99 147.03 143.72 153.91 141.53 162.15 C 140.85 159.86 138.98 158.56 136.66 158.39 C 127.29 157.29 118.26 154.44 109.00 152.75 C 113.05 143.75 125.59 143.41 134.12 141.24 C 137.20 139.43 145.72 144.00 145.18 138.09 Z" />
</g>
<g id="#9baa62ff">
<path fill="#9baa62" opacity="1.00" d=" M 266.11 138.05 C 268.83 140.26 274.42 140.30 273.01 144.99 C 268.92 146.27 262.64 142.30 266.11 138.05 Z" />
</g>
<g id="#323f14bb">
<path fill="#323f14" opacity="0.73" d=" M 271.86 138.31 C 273.41 138.44 276.50 138.71 278.05 138.84 C 276.50 138.71 273.41 138.44 271.86 138.31 Z" />
</g>
<g id="#ccbfabff">
<path fill="#ccbfab" opacity="1.00" d=" M 179.57 146.54 C 176.15 143.08 179.35 138.35 181.95 144.13 C 181.71 145.25 180.92 146.05 179.57 146.54 Z" />
</g>
<g id="#13180a8e">
<path fill="#13180a" opacity="0.56" d=" M 252.02 147.18 C 253.69 146.62 255.62 146.56 257.04 147.75 C 255.42 148.26 253.19 148.86 252.02 147.18 Z" />
</g>
<g id="#0d10065e">
<path fill="#0d1006" opacity="0.37" d=" M 257.88 147.95 C 263.32 148.02 268.80 148.03 274.21 148.82 C 268.83 149.04 263.44 149.03 258.06 148.99 L 257.88 147.95 Z" />
</g>
<g id="#00000042">
<path fill="#000000" opacity="0.26" d=" M 0.00 156.05 C 17.40 155.25 34.91 156.36 52.14 158.84 C 73.67 164.08 95.95 164.91 117.98 164.12 C 124.76 165.73 134.92 163.28 139.07 170.06 C 136.65 175.30 133.03 180.90 136.04 186.89 C 136.36 187.88 136.70 188.88 137.03 189.87 C 137.06 191.18 137.09 192.49 137.11 193.80 C 136.70 198.39 132.10 199.50 128.02 198.77 C 95.36 196.34 62.54 195.91 30.32 189.66 C 20.32 187.06 9.85 188.92 0.00 186.11 L 0.00 178.95 C 30.03 183.68 60.07 190.78 90.64 189.52 C 93.09 185.37 100.70 186.10 95.91 180.39 C 101.99 183.98 101.88 172.67 96.14 174.58 C 92.62 173.02 91.09 166.63 86.10 168.58 C 57.78 162.94 28.85 158.75 0.00 163.04 L 0.00 156.05 Z" />
</g>
<g id="#8c7434ff">
<path fill="#8c7434" opacity="1.00" d=" M 217.77 158.95 C 219.14 158.45 220.57 158.11 222.00 157.79 C 220.48 161.62 218.41 166.41 224.49 166.43 C 223.69 169.08 228.06 172.87 223.37 171.29 C 222.95 175.84 219.12 183.49 213.92 179.04 C 213.30 178.03 212.66 177.04 212.04 176.04 L 211.84 175.21 C 210.52 169.90 212.23 165.39 216.13 162.10 C 216.88 161.17 217.26 160.01 217.77 158.95 M 215.20 170.06 C 214.30 172.04 212.95 175.20 216.35 173.46 C 220.73 173.95 217.78 169.71 215.20 170.06 Z" />
</g>
<g id="#696235ff">
<path fill="#696235" opacity="1.00" d=" M 208.07 159.38 C 210.78 160.21 213.44 161.18 216.13 162.10 C 212.23 165.39 210.52 169.90 211.84 175.21 C 206.88 172.25 202.77 163.75 208.07 159.38 Z" />
</g>
<g id="#00000036">
<path fill="#000000" opacity="0.21" d=" M 0.00 163.04 C 28.85 158.75 57.78 162.94 86.10 168.58 C 91.09 166.63 92.62 173.02 96.14 174.58 C 101.88 172.67 101.99 183.98 95.91 180.39 C 100.70 186.10 93.09 185.37 90.64 189.52 C 60.07 190.78 30.03 183.68 0.00 178.95 L 0.00 163.04 Z" />
</g>
<g id="#32371dbb">
<path fill="#32371d" opacity="0.73" d=" M 140.36 163.67 L 141.14 164.12 C 140.81 167.34 141.27 170.92 139.85 173.89 C 140.11 170.49 140.17 167.06 140.36 163.67 Z" />
</g>
<g id="#c1af93ff">
<path fill="#c1af93" opacity="1.00" d=" M 215.20 170.06 C 217.78 169.71 220.73 173.95 216.35 173.46 C 212.95 175.20 214.30 172.04 215.20 170.06 Z" />
</g>
<g id="#475121ad">
<path fill="#475121" opacity="0.68" d=" M 238.39 171.69 C 239.28 174.83 238.68 178.09 238.61 181.31 C 237.69 178.18 238.29 174.88 238.39 171.69 Z" />
</g>
<g id="#665b23ff">
<path fill="#665b23" opacity="1.00" d=" M 230.20 173.11 C 233.59 171.91 237.56 176.70 231.99 176.24 C 233.39 179.95 234.48 184.22 229.17 185.14 C 229.17 180.67 227.66 176.63 230.20 173.11 Z" />
</g>
<g id="#94a65dff">
<path fill="#94a65d" opacity="1.00" d=" M 205.06 178.18 C 207.35 177.35 209.72 176.76 212.04 176.04 C 212.66 177.04 213.30 178.03 213.92 179.04 C 213.81 181.68 214.08 184.31 216.64 185.64 C 214.31 187.09 212.10 188.73 209.74 190.12 C 210.12 187.71 210.91 185.40 211.69 183.09 C 208.79 182.45 206.20 181.10 205.06 178.18 Z" />
</g>
<g id="#5f693cff">
<path fill="#5f693c" opacity="1.00" d=" M 182.70 181.71 C 185.60 178.05 190.00 181.25 188.38 186.17 C 192.01 185.78 190.22 182.22 190.06 179.86 C 193.08 180.12 194.52 182.50 195.07 185.23 C 195.00 189.29 194.19 194.56 198.98 196.07 C 201.87 200.38 197.14 204.33 196.97 208.59 C 199.25 208.30 201.22 209.31 203.01 210.62 C 201.65 212.22 201.90 214.20 203.10 215.80 C 199.09 218.39 205.10 221.24 199.99 222.07 C 198.04 223.01 203.43 225.31 200.78 226.75 C 197.15 229.15 202.98 230.09 202.21 233.12 C 198.78 233.41 193.97 228.58 194.36 234.46 C 187.37 238.76 197.85 244.45 202.19 244.32 C 196.89 249.91 191.34 240.44 186.82 240.76 C 182.79 240.53 178.75 240.44 174.71 240.42 C 171.01 239.82 173.48 246.33 170.84 248.04 C 166.84 248.08 162.00 240.44 168.89 241.74 C 169.67 235.94 166.56 231.05 160.85 230.00 C 158.54 228.13 157.39 231.35 157.27 233.25 C 153.15 228.57 154.58 221.51 152.36 215.96 C 158.96 211.95 152.63 223.04 157.71 225.27 C 163.14 227.90 156.44 219.92 158.65 217.69 C 163.59 214.33 163.68 206.05 170.43 205.39 C 176.98 202.02 181.17 211.84 187.33 209.36 C 190.01 205.74 185.80 204.51 182.87 203.93 C 185.28 200.01 193.59 198.94 187.43 193.91 C 187.15 198.12 184.33 200.68 181.91 196.08 C 180.07 193.61 175.87 192.85 176.90 188.92 C 180.48 189.60 181.16 194.69 185.11 194.08 C 184.07 189.95 180.49 184.17 175.69 185.68 C 175.54 181.34 180.84 184.86 182.70 181.71 M 196.28 211.28 C 193.01 211.83 191.25 218.27 195.05 218.98 C 203.29 222.47 201.22 211.09 196.28 211.28 Z" />
</g>
<g id="#4d542bfe">
<path fill="#4d542b" opacity="1.00" d=" M 146.06 181.74 C 150.13 182.21 148.42 187.60 151.41 189.57 C 153.71 190.29 156.54 191.69 158.57 189.64 C 166.19 190.71 172.76 197.82 180.05 200.13 C 178.76 196.81 177.10 193.40 181.91 196.08 C 184.33 200.68 187.15 198.12 187.43 193.91 C 193.59 198.94 185.28 200.01 182.87 203.93 C 185.80 204.51 190.01 205.74 187.33 209.36 C 181.17 211.84 176.98 202.02 170.43 205.39 C 163.68 206.05 163.59 214.33 158.65 217.69 C 156.44 219.92 163.14 227.90 157.71 225.27 C 152.63 223.04 158.96 211.95 152.36 215.96 C 154.58 221.51 153.15 228.57 157.27 233.25 C 157.39 231.35 158.54 228.13 160.85 230.00 C 166.56 231.05 169.67 235.94 168.89 241.74 C 162.00 240.44 166.84 248.08 170.84 248.04 C 173.48 246.33 171.01 239.82 174.71 240.42 C 178.75 240.44 182.79 240.53 186.82 240.76 L 187.30 241.73 C 180.82 240.73 172.33 249.04 180.05 253.94 C 183.78 255.23 187.36 262.94 180.73 260.18 L 180.08 259.88 C 173.10 255.99 163.02 253.21 158.76 262.11 C 157.02 260.65 150.27 258.51 155.35 257.34 C 159.37 255.03 154.77 243.69 148.84 247.38 C 145.45 245.41 142.02 243.30 143.79 249.17 C 142.54 246.82 141.23 244.50 139.83 242.23 C 139.68 236.75 139.68 231.05 138.25 225.78 C 138.01 225.27 137.52 224.27 137.28 223.76 C 136.82 222.85 136.35 221.95 135.88 221.05 C 135.10 215.50 136.64 210.13 139.23 205.32 C 140.36 204.08 141.47 202.82 142.41 201.44 C 142.48 198.72 137.76 197.03 137.11 193.80 C 137.09 192.49 137.06 191.18 137.03 189.87 C 140.88 187.18 143.23 195.87 147.23 192.37 C 148.15 189.18 145.24 185.15 146.06 181.74 Z" />
</g>
<g id="#5a682ffc">
<path fill="#5a682f" opacity="1.00" d=" M 219.17 192.24 C 224.37 190.53 230.93 189.68 234.18 185.11 C 236.13 185.92 237.95 187.65 240.17 186.35 C 241.07 186.93 241.95 187.55 242.89 188.09 C 246.80 189.55 251.27 189.24 255.31 188.33 C 256.96 188.27 260.26 188.14 261.91 188.07 C 267.38 190.47 272.10 194.27 277.02 197.59 C 274.70 198.73 273.20 207.08 275.93 208.26 C 273.51 209.78 270.73 210.61 268.30 212.12 C 268.21 211.70 268.02 210.85 267.93 210.42 C 269.48 207.59 272.38 205.39 273.02 202.14 C 271.16 200.17 270.18 195.89 267.02 196.19 C 262.29 198.69 263.29 191.55 257.93 193.95 C 253.85 192.67 252.30 196.57 251.75 199.83 C 248.72 206.01 250.50 195.47 249.85 192.79 C 248.16 194.36 246.85 196.27 245.36 198.01 C 246.07 192.66 234.96 193.71 238.84 199.89 C 238.91 202.10 236.37 201.96 234.83 201.92 C 235.07 191.92 230.19 205.52 229.89 209.90 C 231.52 209.27 233.18 208.73 234.94 208.55 C 233.50 206.33 232.68 204.01 234.83 201.92 C 235.62 205.30 235.55 211.56 238.70 205.97 C 238.14 210.00 241.75 211.59 244.91 212.75 C 246.74 211.18 248.72 209.81 250.88 208.73 C 251.77 210.94 251.52 215.29 254.83 213.15 C 257.59 213.56 262.65 210.27 263.48 214.16 C 255.93 217.37 247.36 215.12 239.87 218.09 L 239.15 218.15 C 236.12 218.55 233.12 218.18 230.22 217.26 C 224.45 216.90 217.10 212.86 218.35 206.26 C 218.82 201.86 218.34 197.40 219.00 193.00 L 219.17 192.24 Z" />
</g>
<g id="#00000052">
<path fill="#000000" opacity="0.32" d=" M 0.00 186.11 C 9.85 188.92 20.32 187.06 30.32 189.66 C 62.54 195.91 95.36 196.34 128.02 198.77 C 132.10 199.50 136.70 198.39 137.11 193.80 C 137.76 197.03 142.48 198.72 142.41 201.44 C 117.42 202.53 92.44 198.96 67.40 199.60 C 57.55 200.72 47.81 196.75 38.15 199.33 C 34.23 197.20 29.25 196.25 25.07 198.19 C 24.96 201.60 29.93 202.14 32.02 203.94 C 66.58 212.69 102.53 215.78 137.28 223.76 C 137.52 224.27 138.01 225.27 138.25 225.78 C 102.43 219.79 66.37 215.25 30.39 210.45 C 20.05 208.97 10.06 206.41 0.00 203.72 L 0.00 186.11 Z" />
</g>
<g id="#2d3515b8">
<path fill="#2d3515" opacity="0.72" d=" M 242.89 188.09 C 247.02 188.16 251.17 188.24 255.31 188.33 C 251.27 189.24 246.80 189.55 242.89 188.09 Z" />
</g>
<g id="#919f5dff">
<path fill="#919f5d" opacity="1.00" d=" M 215.46 193.39 C 217.23 190.91 221.25 186.35 219.17 192.24 L 219.00 193.00 C 219.81 201.94 216.60 194.03 213.34 197.30 C 210.21 202.66 217.06 203.01 215.07 209.06 C 215.88 206.07 218.05 199.58 218.35 206.26 C 217.10 212.86 224.45 216.90 230.22 217.26 C 228.64 220.10 223.57 217.89 221.12 220.95 C 221.41 216.87 216.77 215.59 216.11 211.81 C 215.07 208.86 211.87 210.32 209.81 211.13 C 207.63 210.28 205.32 210.34 203.01 210.62 C 201.22 209.31 199.25 208.30 196.97 208.59 C 197.14 204.33 201.87 200.38 198.98 196.07 C 199.00 195.29 199.04 193.73 199.06 192.95 C 204.05 193.73 200.73 201.51 205.88 202.03 C 206.78 197.04 204.75 192.66 209.74 190.12 C 210.64 192.58 211.75 195.83 215.03 195.13 C 214.05 193.38 212.84 191.78 211.87 190.04 C 214.93 189.35 216.70 190.15 215.46 193.39 Z" />
</g>
<g id="#757b46ff">
<path fill="#757b46" opacity="1.00" d=" M 213.34 197.30 C 216.60 194.03 219.81 201.94 219.00 193.00 C 218.34 197.40 218.82 201.86 218.35 206.26 C 218.05 199.58 215.88 206.07 215.07 209.06 C 217.06 203.01 210.21 202.66 213.34 197.30 Z" />
</g>
<g id="#798b4aff">
<path fill="#798b4a" opacity="1.00" d=" M 245.36 198.01 C 246.85 196.27 248.16 194.36 249.85 192.79 C 250.50 195.47 248.72 206.01 251.75 199.83 C 253.10 202.88 252.19 205.87 250.88 208.73 C 248.72 209.81 246.74 211.18 244.91 212.75 C 241.75 211.59 238.14 210.00 238.70 205.97 C 235.55 211.56 235.62 205.30 234.83 201.92 C 236.37 201.96 238.91 202.10 238.84 199.89 C 234.96 193.71 246.07 192.66 245.36 198.01 Z" />
</g>
<g id="#849649ff">
<path fill="#849649" opacity="1.00" d=" M 251.75 199.83 C 252.30 196.57 253.85 192.67 257.93 193.95 C 263.29 191.55 262.29 198.69 267.02 196.19 C 270.18 195.89 271.16 200.17 273.02 202.14 C 268.35 196.09 264.15 200.20 258.92 199.96 C 255.14 201.79 255.86 195.87 251.75 199.83 Z" />
</g>
<g id="#00000062">
<path fill="#000000" opacity="0.38" d=" M 25.07 198.19 C 29.25 196.25 34.23 197.20 38.15 199.33 C 47.81 196.75 57.55 200.72 67.40 199.60 C 92.44 198.96 117.42 202.53 142.41 201.44 C 141.47 202.82 140.36 204.08 139.23 205.32 C 122.33 203.79 105.14 202.90 88.31 205.37 C 85.96 205.67 87.72 207.46 88.39 208.61 C 103.27 216.06 120.33 215.81 135.88 221.05 C 136.35 221.95 136.82 222.85 137.28 223.76 C 102.53 215.78 66.58 212.69 32.02 203.94 C 29.93 202.14 24.96 201.60 25.07 198.19 Z" />
</g>
<g id="#72854bff">
<path fill="#72854b" opacity="1.00" d=" M 229.89 209.90 C 230.19 205.52 235.07 191.92 234.83 201.92 C 232.68 204.01 233.50 206.33 234.94 208.55 C 233.18 208.73 231.52 209.27 229.89 209.90 Z" />
</g>
<g id="#9aac66ff">
<path fill="#9aac66" opacity="1.00" d=" M 251.75 199.83 C 255.86 195.87 255.14 201.79 258.92 199.96 C 264.15 200.20 268.35 196.09 273.02 202.14 C 272.38 205.39 269.48 207.59 267.93 210.42 C 265.40 208.48 262.70 205.87 260.91 210.03 C 258.24 206.82 255.64 210.23 254.83 213.15 C 251.52 215.29 251.77 210.94 250.88 208.73 C 252.19 205.87 253.10 202.88 251.75 199.83 Z" />
</g>
<g id="#828c48f7">
<path fill="#828c48" opacity="0.97" d=" M 275.93 208.26 C 273.20 207.08 274.70 198.73 277.02 197.59 C 278.78 200.92 278.63 205.46 275.93 208.26 Z" />
</g>
<g id="#00000041">
<path fill="#000000" opacity="0.25" d=" M 0.00 203.72 C 10.06 206.41 20.05 208.97 30.39 210.45 C 66.37 215.25 102.43 219.79 138.25 225.78 C 139.68 231.05 139.68 236.75 139.83 242.23 C 137.40 234.04 128.80 231.46 121.59 228.49 C 81.63 219.00 40.16 219.02 0.00 210.77 L 0.00 203.72 Z" />
</g>
<g id="#01010078">
<path fill="#010100" opacity="0.47" d=" M 88.31 205.37 C 105.14 202.90 122.33 203.79 139.23 205.32 C 136.64 210.13 135.10 215.50 135.88 221.05 C 120.33 215.81 103.27 216.06 88.39 208.61 C 87.72 207.46 85.96 205.67 88.31 205.37 Z" />
</g>
<g id="#778438fb">
<path fill="#778438" opacity="1.00" d=" M 260.91 210.03 C 262.70 205.87 265.40 208.48 267.93 210.42 C 268.02 210.85 268.21 211.70 268.30 212.12 L 267.79 212.72 C 266.35 213.20 264.91 213.68 263.48 214.16 C 262.65 210.27 257.59 213.56 254.83 213.15 C 255.64 210.23 258.24 206.82 260.91 210.03 Z" />
</g>
<g id="#878a45ff">
<path fill="#878a45" opacity="1.00" d=" M 203.01 210.62 C 205.32 210.34 207.63 210.28 209.81 211.13 C 211.87 210.32 215.07 208.86 216.11 211.81 C 216.77 215.59 221.41 216.87 221.12 220.95 C 219.79 224.33 215.26 227.26 216.11 230.95 C 206.24 231.41 210.83 218.36 203.10 215.80 C 201.90 214.20 201.65 212.22 203.01 210.62 Z" />
</g>
<g id="#00000033">
<path fill="#000000" opacity="0.20" d=" M 0.00 210.77 C 40.16 219.02 81.63 219.00 121.59 228.49 C 128.80 231.46 137.40 234.04 139.83 242.23 C 141.23 244.50 142.54 246.82 143.79 249.17 C 143.69 251.24 142.49 253.07 141.86 255.01 L 141.12 255.02 C 142.34 249.33 135.64 248.40 131.36 248.47 C 125.17 245.88 117.21 247.63 113.78 240.46 C 105.17 240.30 97.65 234.31 89.17 232.65 C 64.39 222.95 37.47 222.75 11.72 220.71 C 7.85 221.62 3.85 221.83 0.00 222.80 L 0.00 210.77 Z" />
</g>
<g id="#808d55ff">
<path fill="#808d55" opacity="1.00" d=" M 196.28 211.28 C 201.22 211.09 203.29 222.47 195.05 218.98 C 191.25 218.27 193.01 211.83 196.28 211.28 Z" />
</g>
<g id="#00000018">
<path fill="#000000" opacity="0.09" d=" M 263.48 214.16 C 264.91 213.68 266.35 213.20 267.79 212.72 C 263.23 216.23 256.88 221.43 250.95 218.01 C 249.92 221.75 253.24 223.42 255.70 225.35 C 255.72 227.61 255.67 229.93 255.17 232.14 C 247.67 232.38 256.32 243.40 255.24 249.02 C 256.46 256.26 250.92 260.97 245.91 264.90 C 237.82 277.60 224.36 286.31 210.38 291.38 C 203.10 290.99 199.57 299.97 192.57 299.57 C 184.31 297.12 175.80 305.26 167.98 300.99 C 164.31 302.33 159.64 303.87 158.40 308.03 C 157.18 306.61 157.07 304.69 156.59 302.96 C 154.40 303.33 153.69 306.67 151.24 305.95 C 148.75 305.61 150.69 299.52 145.63 303.32 C 141.94 309.47 131.82 306.36 125.83 306.94 C 120.59 310.17 113.81 306.71 109.40 312.31 C 111.60 304.48 102.05 314.34 98.72 312.71 C 94.77 311.84 91.03 306.99 87.05 310.91 C 84.71 308.20 82.12 305.52 78.90 309.42 C 76.59 307.40 70.71 301.59 68.09 307.09 C 70.98 298.54 58.55 302.51 54.92 305.91 C 50.62 309.74 43.63 308.03 40.58 303.38 C 37.03 302.13 38.84 307.31 38.90 309.16 C 33.95 307.72 29.58 304.25 25.88 301.33 C 21.27 303.72 20.82 296.28 16.35 298.44 C 13.11 300.43 11.79 293.95 8.75 296.71 C 7.72 298.08 3.97 300.03 4.75 297.04 C 8.15 292.75 1.74 297.07 0.00 298.16 L 0.00 265.48 C 2.23 264.60 4.54 260.47 6.86 263.10 C 9.20 265.43 12.24 269.74 15.84 266.85 C 19.58 264.05 20.65 270.07 22.68 272.14 C 22.17 269.74 24.14 265.96 25.88 269.09 C 26.09 274.32 31.15 265.15 32.30 269.68 C 35.51 276.12 43.52 271.54 48.39 274.44 C 48.99 278.50 52.72 275.89 55.18 275.36 C 63.22 275.11 71.66 274.06 79.03 277.85 C 82.54 274.99 86.43 276.83 90.18 278.35 C 95.11 276.94 101.06 274.54 105.20 278.81 C 108.54 282.07 112.04 276.20 115.68 277.26 C 118.16 278.63 120.22 281.67 123.14 279.37 C 128.99 282.27 135.85 277.52 142.15 279.94 C 144.99 281.48 147.80 283.12 150.84 284.25 C 155.09 285.47 154.87 293.01 160.04 292.02 C 168.75 287.46 174.29 301.68 181.87 294.88 C 184.93 294.84 188.03 294.89 191.11 294.99 C 193.09 295.24 195.08 295.41 197.09 295.49 C 201.35 291.06 207.60 288.41 209.16 282.00 C 212.14 283.36 216.88 285.64 218.56 281.57 C 219.81 277.80 223.46 280.54 226.17 279.58 C 227.18 271.87 236.42 272.02 239.56 265.19 C 241.17 261.67 235.68 256.24 240.97 254.78 C 243.93 253.47 249.07 248.86 244.33 246.46 C 244.00 246.30 243.35 245.98 243.03 245.82 C 240.31 245.03 237.32 244.18 234.98 246.10 C 233.45 245.88 230.39 245.45 228.86 245.24 C 230.15 243.54 231.68 242.02 232.80 240.19 C 235.13 234.93 237.61 229.61 238.56 223.88 C 238.72 223.64 239.05 223.16 239.21 222.92 C 240.46 221.62 240.49 219.68 239.87 218.09 C 247.36 215.12 255.93 217.37 263.48 214.16 Z" />
</g>
<g id="#98a25bff">
<path fill="#98a25b" opacity="1.00" d=" M 203.10 215.80 C 210.83 218.36 206.24 231.41 216.11 230.95 C 217.69 233.08 216.61 234.64 214.22 235.13 C 211.36 232.34 210.56 233.26 211.55 236.87 C 207.95 235.79 199.37 242.48 199.39 235.73 C 198.48 233.84 201.18 233.94 202.21 233.12 C 202.98 230.09 197.15 229.15 200.78 226.75 C 203.43 225.31 198.04 223.01 199.99 222.07 C 205.10 221.24 199.09 218.39 203.10 215.80 Z" />
</g>
<g id="#797638fe">
<path fill="#797638" opacity="1.00" d=" M 230.22 217.26 C 233.12 218.18 236.12 218.55 239.15 218.15 C 238.62 219.70 238.88 221.35 239.21 222.92 C 239.05 223.16 238.72 223.64 238.56 223.88 C 229.41 221.17 218.09 226.47 217.55 236.61 C 216.57 239.33 212.70 238.10 214.22 235.13 C 216.61 234.64 217.69 233.08 216.11 230.95 C 215.26 227.26 219.79 224.33 221.12 220.95 C 223.57 217.89 228.64 220.10 230.22 217.26 Z" />
</g>
<g id="#312f1787">
<path fill="#312f17" opacity="0.53" d=" M 239.15 218.15 L 239.87 218.09 C 240.49 219.68 240.46 221.62 239.21 222.92 C 238.88 221.35 238.62 219.70 239.15 218.15 Z" />
</g>
<g id="#00000028">
<path fill="#000000" opacity="0.16" d=" M 11.72 220.71 C 37.47 222.75 64.39 222.95 89.17 232.65 C 97.65 234.31 105.17 240.30 113.78 240.46 C 117.21 247.63 125.17 245.88 131.36 248.47 C 135.64 248.40 142.34 249.33 141.12 255.02 C 139.89 257.76 140.15 260.09 141.91 262.01 C 143.60 264.40 144.15 267.24 143.99 270.13 C 142.41 266.35 140.14 262.86 136.83 260.38 C 130.63 262.50 123.40 259.52 118.00 263.78 C 115.56 262.29 113.08 260.62 110.26 262.14 C 104.12 259.26 94.33 264.71 90.69 257.27 C 85.31 252.90 75.20 248.95 70.04 256.02 C 69.23 252.17 68.84 247.48 64.25 249.82 C 65.83 244.82 58.19 244.91 55.05 243.19 C 54.26 245.84 54.67 247.89 50.97 246.67 C 46.14 245.02 41.22 241.81 35.92 240.10 C 31.88 240.95 28.10 244.92 23.97 242.08 C 16.04 243.60 8.37 248.24 0.00 246.12 L 0.00 222.80 C 3.85 221.83 7.85 221.62 11.72 220.71 Z" />
</g>
<g id="#838c46fe">
<path fill="#838c46" opacity="1.00" d=" M 217.55 236.61 C 218.09 226.47 229.41 221.17 238.56 223.88 C 237.61 229.61 235.13 234.93 232.80 240.19 C 230.65 236.67 224.28 235.65 222.87 239.87 C 229.89 237.19 220.57 246.90 225.13 249.76 C 231.74 252.22 237.96 247.74 244.33 246.46 C 249.07 248.86 243.93 253.47 240.97 254.78 C 237.28 254.93 234.67 257.88 231.09 258.44 C 231.20 263.10 240.44 258.88 239.56 265.19 C 236.42 272.02 227.18 271.87 226.17 279.58 C 221.09 276.02 224.12 269.16 223.92 263.94 C 218.82 264.45 219.22 273.80 216.10 275.68 C 213.61 272.57 211.87 272.96 211.87 277.28 C 207.37 273.71 202.46 272.36 197.17 275.21 C 197.91 277.28 199.10 279.15 200.05 281.13 C 193.87 280.18 192.82 273.91 190.27 269.25 C 190.75 265.97 188.64 262.83 189.21 259.51 C 192.40 258.97 196.21 255.32 191.81 253.26 C 186.51 251.52 189.64 245.35 187.30 241.73 L 186.82 240.76 C 191.34 240.44 196.89 249.91 202.19 244.32 C 197.85 244.45 187.37 238.76 194.36 234.46 C 193.97 228.58 198.78 233.41 202.21 233.12 C 201.18 233.94 198.48 233.84 199.39 235.73 C 199.37 242.48 207.95 235.79 211.55 236.87 C 210.56 233.26 211.36 232.34 214.22 235.13 C 212.70 238.10 216.57 239.33 217.55 236.61 M 216.86 248.90 C 208.32 243.00 201.67 261.68 206.78 267.24 C 207.07 270.94 209.19 266.80 210.13 265.58 C 208.88 275.89 223.12 263.94 217.22 263.35 C 217.54 261.58 217.87 259.81 218.05 258.02 C 220.87 257.25 219.20 255.37 217.95 253.86 C 222.81 252.48 218.62 244.25 219.89 240.74 C 217.21 242.53 217.83 246.17 216.86 248.90 M 192.19 246.14 C 189.02 247.88 192.00 254.67 194.90 250.81 C 194.29 249.16 194.84 245.27 192.19 246.14 M 224.10 253.29 C 223.73 256.25 221.66 258.56 220.86 261.68 C 226.47 260.14 225.43 269.71 230.05 270.05 C 230.28 265.09 224.20 259.10 229.95 255.54 C 228.68 253.60 226.11 253.81 224.10 253.29 M 199.21 261.35 C 196.84 262.21 198.71 266.83 201.06 266.02 C 200.85 264.69 200.73 260.77 199.21 261.35 Z" />
</g>
<g id="#696d2ffb">
<path fill="#696d2f" opacity="1.00" d=" M 222.87 239.87 C 224.28 235.65 230.65 236.67 232.80 240.19 C 231.68 242.02 230.15 243.54 228.86 245.24 C 225.23 248.62 232.83 247.21 234.98 246.10 C 237.66 245.95 240.34 245.86 243.03 245.82 C 243.35 245.98 244.00 246.30 244.33 246.46 C 237.96 247.74 231.74 252.22 225.13 249.76 C 220.57 246.90 229.89 237.19 222.87 239.87 Z" />
</g>
<g id="#00000020">
<path fill="#000000" opacity="0.13" d=" M 23.97 242.08 C 28.10 244.92 31.88 240.95 35.92 240.10 C 41.22 241.81 46.14 245.02 50.97 246.67 C 54.67 247.89 54.26 245.84 55.05 243.19 C 58.19 244.91 65.83 244.82 64.25 249.82 C 68.84 247.48 69.23 252.17 70.04 256.02 C 75.20 248.95 85.31 252.90 90.69 257.27 C 94.33 264.71 104.12 259.26 110.26 262.14 C 113.08 260.62 115.56 262.29 118.00 263.78 C 123.40 259.52 130.63 262.50 136.83 260.38 C 140.14 262.86 142.41 266.35 143.99 270.13 C 144.68 271.55 145.41 273.03 146.67 274.04 C 148.77 276.56 153.09 276.30 154.50 279.42 C 154.71 284.13 156.00 289.17 160.04 292.02 C 154.87 293.01 155.09 285.47 150.84 284.25 C 147.80 283.12 144.99 281.48 142.15 279.94 C 135.85 277.52 128.99 282.27 123.14 279.37 C 120.22 281.67 118.16 278.63 115.68 277.26 C 112.04 276.20 108.54 282.07 105.20 278.81 C 101.06 274.54 95.11 276.94 90.18 278.35 C 86.43 276.83 82.54 274.99 79.03 277.85 C 71.66 274.06 63.22 275.11 55.18 275.36 C 52.72 275.89 48.99 278.50 48.39 274.44 C 43.52 271.54 35.51 276.12 32.30 269.68 C 31.15 265.15 26.09 274.32 25.88 269.09 C 24.14 265.96 22.17 269.74 22.68 272.14 C 20.65 270.07 19.58 264.05 15.84 266.85 C 12.24 269.74 9.20 265.43 6.86 263.10 C 4.54 260.47 2.23 264.60 0.00 265.48 L 0.00 246.12 C 8.37 248.24 16.04 243.60 23.97 242.08 Z" />
</g>
<g id="#8a9e5fff">
<path fill="#8a9e5f" opacity="1.00" d=" M 216.86 248.90 C 217.83 246.17 217.21 242.53 219.89 240.74 C 218.62 244.25 222.81 252.48 217.95 253.86 C 209.11 249.55 209.67 259.99 210.13 265.58 C 209.19 266.80 207.07 270.94 206.78 267.24 C 201.67 261.68 208.32 243.00 216.86 248.90 Z" />
</g>
<g id="#695e33ff">
<path fill="#695e33" opacity="1.00" d=" M 187.30 241.73 C 189.64 245.35 186.51 251.52 191.81 253.26 C 196.21 255.32 192.40 258.97 189.21 259.51 C 188.64 262.83 190.75 265.97 190.27 269.25 C 188.59 269.50 186.91 269.82 185.22 269.98 C 185.11 268.24 186.77 265.66 184.61 264.71 C 183.17 263.33 181.81 261.86 180.73 260.18 C 187.36 262.94 183.78 255.23 180.05 253.94 C 172.33 249.04 180.82 240.73 187.30 241.73 Z" />
</g>
<g id="#586431fd">
<path fill="#586431" opacity="1.00" d=" M 143.79 249.17 C 142.02 243.30 145.45 245.41 148.84 247.38 C 154.77 243.69 159.37 255.03 155.35 257.34 C 150.27 258.51 157.02 260.65 158.76 262.11 C 158.50 263.02 158.25 263.95 158.02 264.88 C 158.74 272.95 153.92 275.54 146.67 274.04 C 145.41 273.03 144.68 271.55 143.99 270.13 C 144.15 267.24 143.60 264.40 141.91 262.01 C 141.89 260.26 141.87 256.76 141.86 255.01 C 142.49 253.07 143.69 251.24 143.79 249.17 Z" />
</g>
<g id="#262b13a6">
<path fill="#262b13" opacity="0.65" d=" M 234.98 246.10 C 232.83 247.21 225.23 248.62 228.86 245.24 C 230.39 245.45 233.45 245.88 234.98 246.10 Z" />
</g>
<g id="#293515bb">
<path fill="#293515" opacity="0.73" d=" M 234.98 246.10 C 237.32 244.18 240.31 245.03 243.03 245.82 C 240.34 245.86 237.66 245.95 234.98 246.10 Z" />
</g>
<g id="#c7b89eff">
<path fill="#c7b89e" opacity="1.00" d=" M 192.19 246.14 C 194.84 245.27 194.29 249.16 194.90 250.81 C 192.00 254.67 189.02 247.88 192.19 246.14 Z" />
</g>
<g id="#7b6c37ff">
<path fill="#7b6c37" opacity="1.00" d=" M 210.13 265.58 C 209.67 259.99 209.11 249.55 217.95 253.86 C 219.20 255.37 220.87 257.25 218.05 258.02 C 214.63 258.95 211.57 265.95 217.22 263.35 C 223.12 263.94 208.88 275.89 210.13 265.58 Z" />
</g>
<g id="#9cab61ff">
<path fill="#9cab61" opacity="1.00" d=" M 224.10 253.29 C 226.11 253.81 228.68 253.60 229.95 255.54 C 224.20 259.10 230.28 265.09 230.05 270.05 C 225.43 269.71 226.47 260.14 220.86 261.68 C 221.66 258.56 223.73 256.25 224.10 253.29 Z" />
</g>
<g id="#22241590">
<path fill="#222415" opacity="0.56" d=" M 141.12 255.02 L 141.86 255.01 C 141.87 256.76 141.89 260.26 141.91 262.01 C 140.15 260.09 139.89 257.76 141.12 255.02 Z" />
</g>
<g id="#5c6e29ef">
<path fill="#5c6e29" opacity="0.94" d=" M 231.09 258.44 C 234.67 257.88 237.28 254.93 240.97 254.78 C 235.68 256.24 241.17 261.67 239.56 265.19 C 240.44 258.88 231.20 263.10 231.09 258.44 Z" />
</g>
<g id="#6d5c35ff">
<path fill="#6d5c35" opacity="1.00" d=" M 158.76 262.11 C 163.02 253.21 173.10 255.99 180.08 259.88 C 179.02 260.28 177.98 260.70 176.94 261.13 C 172.64 262.21 170.25 269.24 174.01 272.10 C 171.71 275.86 181.42 274.40 177.28 280.08 C 171.53 283.57 168.86 276.65 164.95 274.08 C 161.17 272.36 160.58 267.80 158.02 264.88 C 158.25 263.95 158.50 263.02 158.76 262.11 Z" />
</g>
<g id="#cfc1aaff">
<path fill="#cfc1aa" opacity="1.00" d=" M 217.22 263.35 C 211.57 265.95 214.63 258.95 218.05 258.02 C 217.87 259.81 217.54 261.58 217.22 263.35 Z" />
</g>
<g id="#b6aa8fff">
<path fill="#b6aa8f" opacity="1.00" d=" M 176.94 261.13 C 177.98 260.70 179.02 260.28 180.08 259.88 L 180.73 260.18 C 181.81 261.86 183.17 263.33 184.61 264.71 C 183.24 266.11 181.79 267.43 180.26 268.64 C 177.18 267.60 177.70 263.71 176.94 261.13 Z" />
</g>
<g id="#927e52ff">
<path fill="#927e52" opacity="1.00" d=" M 174.01 272.10 C 170.25 269.24 172.64 262.21 176.94 261.13 C 177.70 263.71 177.18 267.60 180.26 268.64 C 179.56 271.79 176.90 272.36 174.01 272.10 Z" />
</g>
<g id="#bab291ff">
<path fill="#bab291" opacity="1.00" d=" M 199.21 261.35 C 200.73 260.77 200.85 264.69 201.06 266.02 C 198.71 266.83 196.84 262.21 199.21 261.35 Z" />
</g>
<g id="#645d2ff8">
<path fill="#645d2f" opacity="0.97" d=" M 216.10 275.68 C 219.22 273.80 218.82 264.45 223.92 263.94 C 224.12 269.16 221.09 276.02 226.17 279.58 C 223.46 280.54 219.81 277.80 218.56 281.57 C 216.88 285.64 212.14 283.36 209.16 282.00 C 210.18 280.49 211.96 279.30 211.87 277.28 C 211.87 272.96 213.61 272.57 216.10 275.68 Z" />
</g>
<g id="#4f5125fa">
<path fill="#4f5125" opacity="0.98" d=" M 146.67 274.04 C 153.92 275.54 158.74 272.95 158.02 264.88 C 160.58 267.80 161.17 272.36 164.95 274.08 C 168.86 276.65 171.53 283.57 177.28 280.08 C 179.75 280.77 185.28 280.03 184.41 283.98 C 184.26 285.84 187.74 284.18 188.14 286.00 C 185.32 286.12 182.58 286.30 179.78 286.48 C 182.78 293.38 191.56 291.87 197.09 295.49 C 195.08 295.41 193.09 295.24 191.11 294.99 C 188.11 294.61 184.67 292.97 181.87 294.88 C 174.29 301.68 168.75 287.46 160.04 292.02 C 156.00 289.17 154.71 284.13 154.50 279.42 C 153.09 276.30 148.77 276.56 146.67 274.04 Z" />
</g>
<g id="#7a7c38fe">
<path fill="#7a7c38" opacity="1.00" d=" M 184.61 264.71 C 186.77 265.66 185.11 268.24 185.22 269.98 C 186.91 269.82 188.59 269.50 190.27 269.25 C 192.82 273.91 193.87 280.18 200.05 281.13 C 199.10 279.15 197.91 277.28 197.17 275.21 C 202.46 272.36 207.37 273.71 211.87 277.28 C 211.96 279.30 210.18 280.49 209.16 282.00 C 207.60 288.41 201.35 291.06 197.09 295.49 C 191.56 291.87 182.78 293.38 179.78 286.48 C 182.58 286.30 185.32 286.12 188.14 286.00 C 187.74 284.18 184.26 285.84 184.41 283.98 C 185.28 280.03 179.75 280.77 177.28 280.08 C 181.42 274.40 171.71 275.86 174.01 272.10 C 176.90 272.36 179.56 271.79 180.26 268.64 C 181.79 267.43 183.24 266.11 184.61 264.71 Z" />
</g>
<g id="#1e220d8b">
<path fill="#1e220d" opacity="0.55" d=" M 181.87 294.88 C 184.67 292.97 188.11 294.61 191.11 294.99 C 188.03 294.89 184.93 294.84 181.87 294.88 Z" />
</g>
</svg>
