<?xml version="1.0" encoding="UTF-8" ?>
<!DOCTYPE svg PUBLIC "-//W3C//DTD SVG 1.1//EN" "http://www.w3.org/Graphics/SVG/1.1/DTD/svg11.dtd">
<svg width="384pt" height="384pt" viewBox="0 0 384 384" version="1.1" xmlns="http://www.w3.org/2000/svg">
<g id="#0000000d">
<path fill="#000000" opacity="0.05" d=" M 0.00 20.26 C 2.83 21.28 7.71 15.87 7.24 20.89 C 11.02 16.87 14.45 19.26 18.30 21.66 C 22.75 21.03 26.70 23.16 30.12 25.77 C 34.76 22.02 40.91 25.06 44.68 28.75 C 45.11 21.99 60.50 20.30 54.31 27.95 C 57.82 29.79 60.99 27.99 63.93 26.04 C 64.77 28.01 65.24 30.11 66.14 32.05 C 69.00 31.76 71.29 30.05 73.23 28.06 C 77.69 25.32 78.19 31.39 81.68 31.03 C 81.96 28.91 81.80 25.82 84.82 27.15 C 91.20 30.45 96.63 34.77 104.34 31.29 C 111.09 33.79 119.66 33.05 124.65 39.37 C 127.33 42.47 130.70 38.14 133.74 40.24 C 137.50 43.40 143.52 45.07 144.56 50.44 C 149.58 50.77 149.31 58.00 154.94 57.04 C 161.73 55.14 161.28 63.76 165.82 66.12 C 167.40 63.06 172.59 61.28 170.44 66.38 C 170.51 71.54 173.59 66.38 174.26 63.92 C 177.13 65.21 173.33 69.40 176.77 70.30 C 180.79 74.22 186.51 71.03 191.26 73.16 C 190.10 75.83 186.87 77.31 187.80 80.91 C 194.17 74.43 196.78 90.92 202.77 84.85 C 198.82 90.12 205.99 94.31 207.16 98.90 C 213.14 102.52 219.54 105.18 224.29 110.55 C 229.79 104.04 234.11 115.29 239.72 111.56 C 248.06 116.49 251.04 126.78 259.86 131.21 C 259.20 132.85 258.12 134.32 257.89 136.11 C 260.01 135.75 261.79 134.48 263.81 133.82 C 263.54 135.86 263.11 137.88 262.98 139.95 C 266.27 139.35 269.68 138.71 272.85 140.23 C 270.11 145.18 276.61 148.60 280.69 146.79 C 285.06 144.59 281.71 148.87 279.93 150.18 C 281.04 154.04 286.03 149.09 287.08 152.97 C 289.63 155.41 281.65 159.96 287.36 158.40 C 292.03 156.69 290.91 162.34 290.17 165.03 C 293.65 163.55 298.80 164.50 296.18 169.16 C 293.43 172.25 299.74 170.01 299.99 172.86 C 298.71 175.10 294.46 177.33 296.86 180.14 C 299.10 182.35 298.67 188.02 302.91 186.52 C 305.59 188.89 304.46 192.22 302.02 194.21 C 302.87 196.29 304.23 195.55 305.31 194.05 C 305.01 196.90 302.81 198.81 301.27 201.03 C 302.82 204.05 303.53 207.23 301.21 210.08 C 302.30 212.69 305.81 214.92 303.41 217.81 C 306.56 218.64 309.68 219.48 312.85 220.28 C 310.46 226.11 316.53 229.66 318.60 234.50 C 313.93 236.75 316.17 241.96 314.46 245.81 C 320.84 248.36 316.31 255.59 315.06 260.25 C 313.21 263.28 316.31 267.32 312.51 269.32 C 315.66 276.41 308.04 281.69 307.14 288.60 C 314.37 289.76 305.25 295.18 308.90 299.59 C 304.93 298.87 300.52 298.60 297.73 302.00 C 299.15 303.72 301.93 304.53 302.10 307.05 C 297.74 307.76 296.34 302.62 293.70 300.11 C 290.63 302.54 287.99 307.51 294.17 305.04 C 291.84 308.28 287.91 310.37 284.35 312.20 C 285.57 315.76 280.94 317.75 282.83 312.95 C 278.37 312.54 284.01 319.10 280.61 320.56 C 278.38 321.96 277.12 324.39 275.09 325.97 C 272.86 322.46 280.43 319.85 278.95 314.87 C 275.63 314.81 273.85 318.00 272.45 320.53 C 270.34 325.58 263.63 320.65 260.10 323.07 C 258.99 324.84 257.30 326.02 255.64 327.23 C 256.30 330.19 254.22 337.49 252.54 331.25 C 249.27 329.77 250.48 332.81 250.82 334.84 C 248.32 334.14 246.29 334.86 244.81 336.98 C 241.57 335.67 238.92 333.37 240.77 340.67 C 234.68 343.42 238.03 334.97 233.33 336.16 C 231.22 339.28 229.27 342.50 227.78 345.97 C 223.84 343.87 215.89 341.17 217.17 349.31 C 213.40 351.62 212.34 340.96 208.62 341.48 C 207.05 343.80 202.36 344.24 202.61 347.34 C 204.11 350.73 201.19 352.50 198.26 353.15 C 200.95 344.56 194.73 349.58 191.31 349.46 C 191.66 351.70 192.77 355.08 189.30 355.08 C 188.74 353.49 189.70 350.14 186.97 351.01 C 181.02 346.01 180.36 360.45 177.08 354.95 C 175.21 352.90 167.82 352.21 171.49 356.45 C 172.41 363.89 160.59 357.64 160.12 365.33 C 156.50 366.59 159.16 360.02 160.01 357.89 C 156.30 359.06 151.71 362.31 153.69 366.81 C 148.70 370.67 152.30 363.56 148.01 363.98 C 143.25 362.95 148.55 372.36 141.44 369.52 C 138.91 371.87 137.26 376.19 133.02 375.04 C 129.99 369.70 136.73 369.81 137.16 366.01 C 126.44 366.62 121.27 377.84 113.69 384.00 L 0.00 384.00 L 0.00 321.85 C 2.14 325.53 4.89 324.91 6.34 321.17 C 10.72 321.06 12.99 328.11 18.25 325.58 C 20.71 322.73 24.51 320.73 28.12 319.91 C 27.54 322.42 25.74 324.40 25.00 326.84 C 29.37 330.46 33.78 321.16 38.24 323.65 C 37.21 328.80 43.19 329.56 47.17 331.09 C 47.06 328.55 41.80 327.77 43.95 325.35 C 46.13 327.10 51.96 325.00 50.47 329.35 C 49.96 334.00 57.39 328.88 59.43 330.78 C 63.20 332.05 70.51 333.27 71.39 328.25 C 75.99 328.56 76.58 331.62 74.16 335.09 C 76.46 333.67 78.96 333.10 81.57 333.95 C 81.54 332.28 80.36 330.00 82.47 329.21 C 83.45 331.69 85.49 331.86 87.82 331.34 C 91.43 334.47 96.24 335.64 100.82 336.63 C 103.89 333.21 108.32 329.59 108.41 336.88 C 114.26 333.68 118.76 341.11 123.83 339.07 C 120.47 336.11 123.93 330.60 128.11 332.00 C 127.86 333.88 126.73 335.44 125.97 337.13 C 129.80 338.51 130.76 330.35 133.69 334.30 C 137.81 339.86 146.40 334.94 148.16 329.48 C 153.61 330.57 151.15 328.73 148.91 326.10 C 156.18 329.68 160.79 318.65 167.24 323.76 C 171.57 322.65 176.52 320.62 179.75 324.87 C 179.60 321.02 182.55 318.16 185.97 316.96 C 189.35 321.84 195.74 318.56 200.70 319.86 C 202.90 311.86 211.62 315.29 217.80 312.80 C 219.89 311.55 221.91 313.10 223.91 313.74 C 224.00 309.07 232.10 309.59 232.51 313.80 C 235.84 314.89 232.93 309.54 235.70 309.80 C 239.02 309.90 240.79 306.95 243.44 305.55 C 248.62 306.47 251.35 301.72 255.93 300.76 C 259.22 300.83 260.69 293.96 263.99 297.00 C 269.36 300.12 269.30 289.75 273.95 288.92 C 286.07 283.79 291.31 271.22 300.44 262.51 C 301.93 259.80 303.31 257.01 304.15 254.02 C 304.92 252.71 305.72 251.41 306.49 250.09 C 306.47 248.76 306.44 246.10 306.43 244.77 C 299.19 241.16 290.05 247.50 282.28 243.14 C 281.43 242.38 280.58 241.61 279.75 240.83 C 282.94 236.46 290.54 239.30 295.23 236.37 C 299.34 235.21 303.31 231.48 300.08 226.94 C 297.11 225.17 291.45 225.38 287.76 226.80 C 286.58 227.25 285.43 227.79 284.24 228.23 C 280.16 228.14 276.09 228.02 272.03 227.86 C 266.96 227.00 261.92 228.62 256.89 229.02 C 256.59 224.34 263.80 219.48 259.13 215.83 C 254.04 210.76 261.73 204.72 257.34 199.67 C 252.91 193.26 262.83 190.17 265.02 185.11 L 265.32 184.50 C 268.03 181.54 269.14 176.64 266.05 173.56 C 257.34 164.13 243.45 164.76 231.74 163.36 C 233.42 152.35 226.76 142.52 219.09 135.39 C 225.65 135.15 226.46 129.05 221.36 125.78 C 218.43 123.74 215.13 122.52 214.99 118.18 C 214.27 112.24 212.35 105.27 206.16 102.91 C 203.15 101.93 199.92 102.20 196.81 102.08 C 195.49 101.84 194.20 101.48 192.91 101.14 C 189.88 97.67 187.46 93.52 183.04 91.67 C 182.77 91.52 182.25 91.20 181.99 91.04 C 181.57 90.64 180.72 89.83 180.30 89.43 C 172.69 84.28 164.08 80.89 155.63 77.48 C 153.92 71.50 147.24 72.50 142.78 70.22 C 139.60 65.87 128.05 65.71 129.77 58.93 C 125.47 63.08 122.79 58.48 121.87 54.27 C 116.06 55.24 110.40 52.87 104.97 51.06 C 85.82 49.44 66.75 44.74 47.55 44.63 C 39.98 45.81 30.92 42.01 23.86 46.71 C 18.87 42.58 9.68 41.41 6.04 47.81 C 4.34 48.88 1.95 48.38 0.00 48.92 L 0.00 20.26 Z" />
</g>
<g id="#00000013">
<path fill="#000000" opacity="0.07" d=" M 6.04 47.81 C 9.68 41.41 18.87 42.58 23.86 46.71 C 30.92 42.01 39.98 45.81 47.55 44.63 C 66.75 44.74 85.82 49.44 104.97 51.06 C 110.40 52.87 116.06 55.24 121.87 54.27 C 122.79 58.48 125.47 63.08 129.77 58.93 C 128.05 65.71 139.60 65.87 142.78 70.22 C 147.24 72.50 153.92 71.50 155.63 77.48 C 164.08 80.89 172.69 84.28 180.30 89.43 C 178.76 89.42 177.31 89.77 175.94 90.47 C 173.25 89.38 170.60 88.20 168.00 86.92 C 165.71 85.39 163.39 85.06 161.04 85.92 C 158.28 85.83 156.00 87.37 153.65 88.57 C 145.72 88.68 140.23 78.87 132.29 80.76 C 129.59 74.63 121.46 77.16 118.62 71.26 C 115.98 71.20 112.27 73.24 111.31 69.53 C 101.09 65.03 89.09 67.23 78.22 64.26 C 74.52 67.22 70.59 62.71 66.64 65.28 C 63.18 64.45 58.39 69.25 58.09 63.77 C 52.64 61.42 47.58 72.69 42.97 66.06 C 37.46 69.66 30.57 70.98 24.25 69.40 C 24.27 73.91 16.02 78.22 13.54 73.36 C 8.62 72.82 5.13 78.52 0.00 78.32 L 0.00 48.92 C 1.95 48.38 4.34 48.88 6.04 47.81 Z" />
</g>
<g id="#0000001b">
<path fill="#000000" opacity="0.11" d=" M 42.97 66.06 C 47.58 72.69 52.64 61.42 58.09 63.77 C 58.39 69.25 63.18 64.45 66.64 65.28 C 70.59 62.71 74.52 67.22 78.22 64.26 C 89.09 67.23 101.09 65.03 111.31 69.53 C 112.27 73.24 115.98 71.20 118.62 71.26 C 121.46 77.16 129.59 74.63 132.29 80.76 C 140.23 78.87 145.72 88.68 153.65 88.57 C 156.00 87.37 158.28 85.83 161.04 85.92 L 160.97 86.75 C 155.85 92.89 147.65 91.34 140.85 93.81 C 135.02 97.04 131.02 90.50 125.38 91.56 C 117.58 83.53 105.73 87.31 96.19 82.82 C 92.89 80.82 89.77 84.97 86.19 83.32 C 82.42 87.78 73.24 87.03 67.22 85.76 C 60.15 90.65 50.27 84.99 43.63 91.47 C 36.42 90.17 29.55 93.44 22.34 92.41 C 15.49 95.80 6.74 95.43 0.00 92.00 L 0.00 78.32 C 5.13 78.52 8.62 72.82 13.54 73.36 C 16.02 78.22 24.27 73.91 24.25 69.40 C 30.57 70.98 37.46 69.66 42.97 66.06 Z" />
</g>
<g id="#00000023">
<path fill="#000000" opacity="0.14" d=" M 86.19 83.32 C 89.77 84.97 92.89 80.82 96.19 82.82 C 105.73 87.31 117.58 83.53 125.38 91.56 C 131.02 90.50 135.02 97.04 140.85 93.81 C 138.17 98.52 141.19 105.76 135.09 108.05 C 131.71 109.29 129.66 117.08 125.69 113.33 C 122.16 109.13 113.30 121.49 115.89 109.88 C 114.70 106.89 110.51 114.74 108.31 110.72 C 104.43 105.90 96.43 109.12 92.84 112.96 C 89.41 109.97 84.79 113.41 81.71 110.28 C 78.76 107.08 75.74 111.71 73.16 113.16 C 68.46 117.42 62.39 110.73 57.34 114.34 C 52.41 117.71 47.59 115.10 42.33 117.08 C 43.94 109.82 36.58 115.61 33.38 116.99 C 33.70 111.54 26.39 109.26 23.35 113.70 C 19.22 104.91 7.28 108.31 0.00 103.57 L 0.00 92.00 C 6.74 95.43 15.49 95.80 22.34 92.41 C 29.55 93.44 36.42 90.17 43.63 91.47 C 50.27 84.99 60.15 90.65 67.22 85.76 C 73.24 87.03 82.42 87.78 86.19 83.32 Z" />
</g>
<g id="#2a211298">
<path fill="#2a2112" opacity="0.60" d=" M 161.04 85.92 C 163.39 85.06 165.71 85.39 168.00 86.92 C 166.25 86.88 162.73 86.79 160.97 86.75 L 161.04 85.92 Z" />
</g>
<g id="#585e33fd">
<path fill="#585e33" opacity="1.00" d=" M 140.85 93.81 C 147.65 91.34 155.85 92.89 160.97 86.75 C 162.73 86.79 166.25 86.88 168.00 86.92 C 170.60 88.20 173.25 89.38 175.94 90.47 C 177.45 90.61 180.48 90.90 181.99 91.04 C 182.25 91.20 182.77 91.52 183.04 91.67 C 180.66 91.55 181.47 93.67 181.55 95.21 C 179.86 94.24 178.46 92.72 176.55 92.17 C 175.10 97.43 168.94 96.02 165.42 99.02 C 164.91 96.62 164.21 94.22 162.59 92.32 C 160.89 95.33 156.07 95.01 155.71 98.83 C 155.06 102.12 150.79 101.86 149.19 104.45 C 152.60 106.07 154.29 109.40 153.12 113.08 C 155.23 115.79 156.49 107.62 157.40 105.34 C 162.29 105.41 167.14 104.71 171.98 104.16 C 173.06 109.58 164.81 106.32 161.99 109.10 C 164.14 113.91 163.95 122.72 171.03 121.11 C 174.36 120.36 171.93 123.24 170.93 124.50 C 166.55 123.40 159.55 125.83 159.95 131.13 C 163.82 130.01 171.38 123.68 170.72 131.52 C 164.53 133.58 160.48 138.54 156.37 143.27 C 154.57 144.52 149.87 146.57 153.24 148.88 C 158.40 151.32 156.19 142.55 160.78 144.08 C 163.97 146.71 161.93 150.52 161.47 153.83 C 163.34 158.12 166.29 161.86 169.87 164.86 C 165.83 173.84 160.72 162.51 154.57 162.44 C 149.05 158.40 142.70 166.60 138.14 161.15 C 137.11 163.02 136.40 165.11 134.96 166.73 C 132.62 165.87 130.13 164.42 127.72 165.98 C 124.51 160.04 132.07 156.39 130.51 150.92 C 130.28 149.31 130.10 147.69 129.99 146.07 C 128.78 140.53 136.17 134.65 132.44 129.85 C 129.67 122.79 132.22 114.76 135.09 108.05 C 141.19 105.76 138.17 98.52 140.85 93.81 Z" />
</g>
<g id="#1c1c0c7b">
<path fill="#1c1c0c" opacity="0.48" d=" M 175.94 90.47 C 177.31 89.77 178.76 89.42 180.30 89.43 C 180.72 89.83 181.57 90.64 181.99 91.04 C 180.48 90.90 177.45 90.61 175.94 90.47 Z" />
</g>
<g id="#777b3bfe">
<path fill="#777b3b" opacity="1.00" d=" M 162.59 92.32 C 164.21 94.22 164.91 96.62 165.42 99.02 C 168.94 96.02 175.10 97.43 176.55 92.17 C 178.46 92.72 179.86 94.24 181.55 95.21 C 181.47 93.67 180.66 91.55 183.04 91.67 C 187.46 93.52 189.88 97.67 192.91 101.14 C 193.83 103.35 197.48 107.90 194.54 109.05 C 191.46 107.03 189.25 112.32 186.26 113.19 C 188.18 107.41 180.69 105.12 177.09 101.91 C 172.27 107.90 181.48 113.15 177.91 119.13 C 175.99 119.03 174.07 118.98 172.16 118.98 C 172.24 117.67 173.33 115.97 171.76 115.15 C 168.55 113.92 167.65 120.36 170.97 120.32 L 171.03 121.11 C 163.95 122.72 164.14 113.91 161.99 109.10 C 164.81 106.32 173.06 109.58 171.98 104.16 C 167.14 104.71 162.29 105.41 157.40 105.34 C 156.49 107.62 155.23 115.79 153.12 113.08 C 154.29 109.40 152.60 106.07 149.19 104.45 C 150.79 101.86 155.06 102.12 155.71 98.83 C 156.07 95.01 160.89 95.33 162.59 92.32 Z" />
</g>
<g id="#73632df5">
<path fill="#73632d" opacity="0.96" d=" M 192.91 101.14 C 194.20 101.48 195.49 101.84 196.81 102.08 C 199.88 102.69 203.03 102.96 206.16 102.91 C 212.35 105.27 214.27 112.24 214.99 118.18 C 213.98 117.49 212.99 116.78 212.03 116.04 C 211.76 115.43 211.21 114.22 210.94 113.61 C 212.23 107.65 204.72 107.04 201.37 110.30 C 198.53 112.51 201.50 105.25 198.28 107.27 C 197.35 109.72 196.80 113.29 193.29 111.87 C 191.12 110.46 192.80 109.67 194.54 109.05 C 197.48 107.90 193.83 103.35 192.91 101.14 Z" />
</g>
<g id="#8e9957fe">
<path fill="#8e9957" opacity="1.00" d=" M 177.09 101.91 C 180.69 105.12 188.18 107.41 186.26 113.19 C 189.25 112.32 191.46 107.03 194.54 109.05 C 192.80 109.67 191.12 110.46 193.29 111.87 C 196.80 113.29 197.35 109.72 198.28 107.27 C 201.50 105.25 198.53 112.51 201.37 110.30 C 204.72 107.04 212.23 107.65 210.94 113.61 C 203.79 115.67 214.06 124.40 212.03 116.04 C 212.99 116.78 213.98 117.49 214.99 118.18 C 215.13 122.52 218.43 123.74 221.36 125.78 C 221.10 127.82 221.54 131.26 218.67 129.25 C 215.71 127.32 213.00 130.25 210.16 130.97 C 207.97 126.26 206.12 121.21 200.95 118.98 C 199.25 122.07 201.72 124.37 203.09 126.82 C 201.44 127.73 199.67 128.38 197.92 129.05 C 191.85 126.58 193.73 118.66 190.86 113.94 C 188.14 113.75 187.98 118.26 185.11 117.35 C 182.57 117.78 181.66 121.73 177.91 119.13 C 181.48 113.15 172.27 107.90 177.09 101.91 Z" />
</g>
<g id="#1c170c79">
<path fill="#1c170c" opacity="0.47" d=" M 196.81 102.08 C 199.92 102.20 203.15 101.93 206.16 102.91 C 203.03 102.96 199.88 102.69 196.81 102.08 Z" />
</g>
<g id="#0000002c">
<path fill="#000000" opacity="0.17" d=" M 0.00 103.57 C 7.28 108.31 19.22 104.91 23.35 113.70 C 26.39 109.26 33.70 111.54 33.38 116.99 C 36.58 115.61 43.94 109.82 42.33 117.08 C 47.59 115.10 52.41 117.71 57.34 114.34 C 62.39 110.73 68.46 117.42 73.16 113.16 C 75.74 111.71 78.76 107.08 81.71 110.28 C 84.79 113.41 89.41 109.97 92.84 112.96 C 96.43 109.12 104.43 105.90 108.31 110.72 C 110.51 114.74 114.70 106.89 115.89 109.88 C 113.30 121.49 122.16 109.13 125.69 113.33 C 129.66 117.08 131.71 109.29 135.09 108.05 C 132.22 114.76 129.67 122.79 132.44 129.85 C 129.41 140.42 118.58 128.89 111.97 133.60 C 108.50 131.49 104.93 134.52 101.79 131.51 C 99.07 133.03 96.30 134.26 93.12 133.38 C 72.20 142.54 48.93 133.91 27.14 135.67 C 18.11 134.93 9.05 134.85 0.00 135.00 L 0.00 103.57 Z" />
</g>
<g id="#7b7f3eff">
<path fill="#7b7f3e" opacity="1.00" d=" M 185.11 117.35 C 187.98 118.26 188.14 113.75 190.86 113.94 C 193.73 118.66 191.85 126.58 197.92 129.05 C 199.75 130.03 201.56 131.11 202.65 132.95 C 198.71 133.03 193.62 133.78 197.20 138.87 C 201.26 137.53 206.86 138.18 208.21 142.88 C 203.12 139.73 201.24 146.51 207.18 146.12 C 205.36 146.90 203.47 147.55 201.82 148.68 C 200.27 144.92 196.85 144.21 192.92 146.08 C 191.89 151.61 201.44 152.15 197.55 157.06 C 196.62 152.50 190.39 154.27 186.89 153.08 C 188.22 148.66 184.23 147.03 180.76 146.18 C 176.48 142.30 189.70 144.85 184.57 141.43 C 180.51 139.86 187.23 135.87 183.00 134.88 C 178.54 136.44 179.69 143.31 174.89 144.11 C 177.33 138.41 177.15 131.64 181.22 126.72 C 180.39 122.55 186.00 121.58 185.11 117.35 Z" />
</g>
<g id="#c1b397ff">
<path fill="#c1b397" opacity="1.00" d=" M 212.03 116.04 C 214.06 124.40 203.79 115.67 210.94 113.61 C 211.21 114.22 211.76 115.43 212.03 116.04 Z" />
</g>
<g id="#c3b296ff">
<path fill="#c3b296" opacity="1.00" d=" M 170.97 120.32 C 167.65 120.36 168.55 113.92 171.76 115.15 C 173.33 115.97 172.24 117.67 172.16 118.98 C 171.86 119.31 171.27 119.99 170.97 120.32 Z" />
</g>
<g id="#5f693bff">
<path fill="#5f693b" opacity="1.00" d=" M 177.91 119.13 C 181.66 121.73 182.57 117.78 185.11 117.35 C 186.00 121.58 180.39 122.55 181.22 126.72 C 177.15 131.64 177.33 138.41 174.89 144.11 C 179.69 143.31 178.54 136.44 183.00 134.88 C 187.23 135.87 180.51 139.86 184.57 141.43 C 189.70 144.85 176.48 142.30 180.76 146.18 C 184.23 147.03 188.22 148.66 186.89 153.08 C 185.72 147.48 181.95 151.68 182.45 155.45 C 178.49 160.49 186.10 161.54 185.60 165.46 C 186.57 169.47 183.87 172.12 182.16 175.17 C 180.70 178.32 185.05 176.90 185.81 175.16 C 186.82 176.36 187.95 177.45 189.00 178.63 C 187.91 180.18 188.08 181.99 188.64 183.69 C 184.29 185.33 190.00 189.43 186.00 189.01 C 181.34 188.63 187.36 191.95 186.20 193.99 C 181.88 193.92 185.19 198.98 185.83 201.22 C 183.58 201.03 181.58 199.97 179.49 199.23 C 178.91 201.43 177.42 202.90 175.31 203.68 C 173.16 209.78 179.89 212.98 184.59 214.39 C 189.64 217.48 180.10 215.79 177.74 215.36 C 177.56 214.95 177.21 214.14 177.03 213.73 C 177.04 210.76 172.95 214.17 172.81 211.17 C 172.45 208.81 170.69 208.88 168.84 209.63 C 164.71 210.46 160.56 211.70 156.32 211.21 C 157.75 214.99 153.71 223.59 150.16 217.73 C 150.68 213.18 154.77 204.04 147.62 202.56 C 137.27 205.93 139.97 192.93 141.75 187.73 C 143.61 186.19 147.55 189.04 149.12 186.21 C 149.14 179.24 156.21 177.09 161.19 174.36 C 165.54 175.59 168.92 179.25 174.01 178.00 C 172.57 173.69 174.11 167.78 169.87 164.86 C 166.29 161.86 163.34 158.12 161.47 153.83 C 161.93 150.52 163.97 146.71 160.78 144.08 C 156.19 142.55 158.40 151.32 153.24 148.88 C 149.87 146.57 154.57 144.52 156.37 143.27 C 160.48 138.54 164.53 133.58 170.72 131.52 C 171.38 123.68 163.82 130.01 159.95 131.13 C 159.55 125.83 166.55 123.40 170.93 124.50 C 171.93 123.24 174.36 120.36 171.03 121.11 L 170.97 120.32 C 171.27 119.99 171.86 119.31 172.16 118.98 C 174.07 118.98 175.99 119.03 177.91 119.13 M 180.29 179.18 C 177.05 182.60 178.68 188.14 184.72 185.84 C 189.74 183.31 184.38 177.34 180.29 179.18 Z" />
</g>
<g id="#818845fe">
<path fill="#818845" opacity="1.00" d=" M 200.95 118.98 C 206.12 121.21 207.97 126.26 210.16 130.97 C 213.00 130.25 215.71 127.32 218.67 129.25 C 221.54 131.26 221.10 127.82 221.36 125.78 C 226.46 129.05 225.65 135.15 219.09 135.39 C 226.76 142.52 233.42 152.35 231.74 163.36 C 226.33 163.10 220.04 159.05 222.78 152.89 C 218.99 152.69 218.76 157.50 216.96 159.95 C 219.51 159.55 222.70 158.31 223.00 161.98 C 218.44 166.64 207.33 159.33 206.45 167.40 C 207.79 171.30 202.13 172.67 203.52 176.18 C 202.12 179.42 207.03 186.72 201.71 186.59 C 204.15 187.36 204.24 191.53 206.72 188.82 C 209.59 186.28 207.55 193.15 209.84 194.33 C 208.62 195.79 206.56 198.72 209.36 199.69 C 214.89 200.27 220.61 201.35 226.09 199.78 C 223.97 192.44 216.98 199.68 212.16 196.83 C 212.47 195.43 212.93 194.07 213.29 192.69 C 215.89 191.66 220.62 196.42 221.24 193.08 C 222.83 193.46 224.44 193.81 226.06 194.06 C 223.03 197.41 230.04 197.28 226.83 194.02 C 230.23 190.03 228.24 194.43 231.97 194.21 C 231.97 197.88 232.05 201.57 232.27 205.24 C 231.34 215.15 225.42 223.75 219.03 231.04 C 217.30 233.42 217.76 236.72 218.79 239.27 L 219.04 240.01 C 218.63 241.71 218.48 243.66 219.77 245.04 C 220.08 245.57 220.69 246.65 220.99 247.18 C 221.32 249.05 221.69 250.91 221.99 252.79 C 217.96 254.03 221.20 257.04 219.97 260.50 C 217.90 261.18 215.87 260.48 214.03 259.53 C 211.90 257.28 208.93 258.63 206.32 258.93 C 206.75 256.86 206.15 254.97 205.03 253.24 C 207.70 253.55 209.87 252.78 211.54 250.92 C 213.89 249.62 211.09 246.43 213.43 245.17 C 214.46 246.87 215.69 248.44 217.91 248.11 C 217.01 245.10 216.30 242.00 215.73 238.92 C 213.18 240.47 211.69 243.21 209.25 244.88 C 203.69 243.26 201.37 234.85 207.64 232.67 C 215.74 233.85 210.73 230.58 209.31 228.65 C 208.79 226.81 207.97 225.09 207.18 223.36 C 210.02 223.44 210.21 221.22 209.94 218.91 C 211.90 220.75 215.27 223.85 217.28 220.30 C 219.26 218.24 216.57 217.78 214.83 217.58 C 217.25 215.22 223.42 215.69 220.15 210.92 C 216.99 208.14 216.69 211.36 219.08 213.67 C 214.73 211.77 210.32 214.33 209.94 218.91 C 205.65 214.09 206.65 224.34 201.18 223.22 C 203.16 220.27 199.27 217.94 196.90 217.00 C 193.28 216.84 190.84 220.37 187.41 221.10 C 186.16 215.97 179.66 218.86 177.74 215.36 C 180.10 215.79 189.64 217.48 184.59 214.39 C 179.89 212.98 173.16 209.78 175.31 203.68 C 177.42 202.90 178.91 201.43 179.49 199.23 C 181.58 199.97 183.58 201.03 185.83 201.22 C 185.19 198.98 181.88 193.92 186.20 193.99 C 183.06 197.95 191.51 197.06 193.25 200.69 C 189.47 201.58 180.91 200.33 182.04 206.81 C 186.93 209.23 193.19 206.53 197.45 203.66 C 199.38 204.95 201.00 206.65 202.89 208.00 C 205.63 204.25 201.95 200.42 198.15 199.74 C 193.13 196.14 195.73 183.66 188.64 183.69 C 188.08 181.99 187.91 180.18 189.00 178.63 C 191.25 179.20 193.52 179.69 195.81 180.10 C 194.34 181.93 193.55 183.97 196.72 184.03 C 197.55 181.75 198.71 180.02 201.31 180.09 C 206.22 174.94 189.81 169.84 198.95 166.86 C 197.18 172.85 200.05 170.30 202.76 167.24 C 196.50 165.34 197.39 158.09 203.54 156.70 C 201.41 155.20 202.80 153.50 204.13 151.96 C 211.12 156.24 213.42 144.23 211.99 140.09 C 207.12 137.07 213.49 136.33 213.14 133.00 C 209.70 135.97 206.00 136.19 202.65 132.95 C 201.56 131.11 199.75 130.03 197.92 129.05 C 199.67 128.38 201.44 127.73 203.09 126.82 C 201.72 124.37 199.25 122.07 200.95 118.98 M 200.02 160.91 C 200.47 163.07 201.59 164.66 204.04 164.01 C 204.51 161.54 202.04 160.61 200.02 160.91 M 209.17 234.19 C 207.43 235.99 205.07 237.73 207.02 241.06 C 211.48 242.46 214.60 234.40 209.17 234.19 Z" />
</g>
<g id="#0000003a">
<path fill="#000000" opacity="0.23" d=" M 132.44 129.85 C 136.17 134.65 128.78 140.53 129.99 146.07 C 127.96 147.42 125.82 149.03 123.02 147.81 C 82.07 145.57 41.02 140.51 0.00 144.15 L 0.00 135.00 C 9.05 134.85 18.11 134.93 27.14 135.67 C 48.93 133.91 72.20 142.54 93.12 133.38 C 96.30 134.26 99.07 133.03 101.79 131.51 C 104.93 134.52 108.50 131.49 111.97 133.60 C 118.58 128.89 129.41 140.42 132.44 129.85 Z" />
</g>
<g id="#7f6b26ff">
<path fill="#7f6b26" opacity="1.00" d=" M 197.20 138.87 C 193.62 133.78 198.71 133.03 202.65 132.95 C 206.00 136.19 209.70 135.97 213.14 133.00 C 213.49 136.33 207.12 137.07 211.99 140.09 C 213.42 144.23 211.12 156.24 204.13 151.96 C 203.36 150.86 202.59 149.77 201.82 148.68 C 203.47 147.55 205.36 146.90 207.18 146.12 C 208.11 145.43 208.46 144.35 208.21 142.88 C 206.86 138.18 201.26 137.53 197.20 138.87 Z" />
</g>
<g id="#beac91ff">
<path fill="#beac91" opacity="1.00" d=" M 207.18 146.12 C 201.24 146.51 203.12 139.73 208.21 142.88 C 208.46 144.35 208.11 145.43 207.18 146.12 Z" />
</g>
<g id="#0000004e">
<path fill="#000000" opacity="0.31" d=" M 0.00 144.15 C 41.02 140.51 82.07 145.57 123.02 147.81 C 125.82 149.03 127.96 147.42 129.99 146.07 C 130.10 147.69 130.28 149.31 130.51 150.92 C 112.34 153.06 93.90 147.99 75.55 148.68 C 63.76 150.28 51.60 146.25 40.18 150.43 C 33.01 147.31 26.25 152.32 19.06 151.29 C 14.90 151.30 14.21 160.63 20.79 157.50 C 47.94 164.08 76.12 162.87 103.43 168.42 C 111.97 169.42 120.42 170.97 128.93 172.13 C 129.73 173.65 130.50 175.18 131.32 176.68 C 92.50 167.66 52.12 168.22 12.58 163.44 C 8.28 163.86 4.22 160.11 0.00 161.78 L 0.00 144.15 Z" />
</g>
<g id="#95a35eff">
<path fill="#95a35e" opacity="1.00" d=" M 192.92 146.08 C 196.85 144.21 200.27 144.92 201.82 148.68 C 202.59 149.77 203.36 150.86 204.13 151.96 C 202.80 153.50 201.41 155.20 203.54 156.70 C 197.39 158.09 196.50 165.34 202.76 167.24 C 200.05 170.30 197.18 172.85 198.95 166.86 C 189.81 169.84 206.22 174.94 201.31 180.09 C 198.71 180.02 197.55 181.75 196.72 184.03 C 193.55 183.97 194.34 181.93 195.81 180.10 C 193.52 179.69 191.25 179.20 189.00 178.63 C 187.95 177.45 186.82 176.36 185.81 175.16 C 187.00 172.81 187.90 170.30 189.39 168.12 C 191.43 172.92 197.48 163.60 191.95 163.99 C 188.46 164.48 191.37 161.55 191.76 159.91 C 191.47 156.88 187.66 155.92 186.89 153.08 C 190.39 154.27 196.62 152.50 197.55 157.06 C 201.44 152.15 191.89 151.61 192.92 146.08 Z" />
</g>
<g id="#0000005d">
<path fill="#000000" opacity="0.36" d=" M 40.18 150.43 C 51.60 146.25 63.76 150.28 75.55 148.68 C 93.90 147.99 112.34 153.06 130.51 150.92 C 130.63 154.61 127.16 154.59 124.20 154.52 C 109.54 152.65 94.80 153.22 80.11 154.14 C 78.43 154.69 75.43 155.42 76.11 157.76 C 92.63 164.29 110.55 165.89 127.89 169.16 C 128.22 170.15 128.57 171.15 128.93 172.13 C 120.42 170.97 111.97 169.42 103.43 168.42 C 76.12 162.87 47.94 164.08 20.79 157.50 C 14.21 160.63 14.90 151.30 19.06 151.29 C 26.25 152.32 33.01 147.31 40.18 150.43 Z" />
</g>
<g id="#7e874dff">
<path fill="#7e874d" opacity="1.00" d=" M 182.45 155.45 C 181.95 151.68 185.72 147.48 186.89 153.08 C 187.66 155.92 191.47 156.88 191.76 159.91 C 191.37 161.55 188.46 164.48 191.95 163.99 C 197.48 163.60 191.43 172.92 189.39 168.12 C 187.90 170.30 187.00 172.81 185.81 175.16 C 185.05 176.90 180.70 178.32 182.16 175.17 C 183.87 172.12 186.57 169.47 185.60 165.46 C 186.10 161.54 178.49 160.49 182.45 155.45 Z" />
</g>
<g id="#01010070">
<path fill="#010100" opacity="0.44" d=" M 130.51 150.92 C 132.07 156.39 124.51 160.04 127.72 165.98 C 127.76 166.78 127.85 168.36 127.89 169.16 C 110.55 165.89 92.63 164.29 76.11 157.76 C 75.43 155.42 78.43 154.69 80.11 154.14 C 94.80 153.22 109.54 152.65 124.20 154.52 C 127.16 154.59 130.63 154.61 130.51 150.92 Z" />
</g>
<g id="#59662dfc">
<path fill="#59662d" opacity="1.00" d=" M 216.96 159.95 C 218.76 157.50 218.99 152.69 222.78 152.89 C 220.04 159.05 226.33 163.10 231.74 163.36 C 243.45 164.76 257.34 164.13 266.05 173.56 C 264.69 175.61 262.15 182.38 265.32 184.50 L 265.02 185.11 C 262.67 186.32 260.41 187.70 258.14 189.06 C 258.02 187.30 257.87 185.54 257.73 183.78 C 259.25 181.57 263.50 178.93 261.24 176.03 C 258.76 173.50 257.23 168.24 252.47 170.55 C 248.80 171.28 253.48 161.76 245.97 167.14 C 242.06 166.29 239.81 168.75 238.79 172.30 C 237.27 166.64 231.59 170.46 227.28 167.04 C 226.65 170.41 225.10 173.56 221.78 170.33 C 218.80 171.83 213.65 181.20 219.56 183.52 C 222.89 187.36 223.64 177.78 226.64 180.10 C 228.87 181.67 230.16 185.03 232.68 185.73 C 234.13 183.56 235.73 181.46 238.65 181.84 C 238.76 184.50 240.93 189.54 242.87 184.98 C 245.59 186.97 248.78 186.87 251.90 186.07 C 251.77 188.19 250.91 190.40 251.89 192.45 C 250.48 192.54 247.66 192.73 246.25 192.83 C 242.64 192.89 238.21 190.66 234.86 192.86 C 234.37 193.14 233.41 193.69 232.93 193.97 L 231.97 194.21 C 228.24 194.43 230.23 190.03 226.83 194.02 L 226.06 194.06 C 224.44 193.81 222.83 193.46 221.24 193.08 C 214.30 189.35 203.70 186.59 205.97 175.94 C 206.54 172.54 204.74 174.89 203.52 176.18 C 202.13 172.67 207.79 171.30 206.45 167.40 C 207.33 159.33 218.44 166.64 223.00 161.98 C 222.70 158.31 219.51 159.55 216.96 159.95 Z" />
</g>
<g id="#00000042">
<path fill="#000000" opacity="0.26" d=" M 0.00 161.78 C 4.22 160.11 8.28 163.86 12.58 163.44 C 52.12 168.22 92.50 167.66 131.32 176.68 C 138.59 182.03 125.61 186.72 127.66 193.80 C 127.13 198.44 127.29 203.15 126.79 207.81 C 108.58 213.51 89.58 206.92 71.04 206.85 C 52.74 204.47 34.34 202.81 16.15 199.75 C 10.77 198.89 5.55 195.83 0.00 196.83 L 0.00 188.03 C 32.53 198.14 66.56 204.56 100.71 204.71 C 105.32 197.36 101.69 188.24 95.59 182.71 C 94.44 173.93 82.56 178.87 77.59 173.50 C 51.71 171.64 25.70 172.13 0.00 167.88 L 0.00 161.78 Z" />
</g>
<g id="#4c522afd">
<path fill="#4c522a" opacity="1.00" d=" M 138.14 161.15 C 142.70 166.60 149.05 158.40 154.57 162.44 C 160.72 162.51 165.83 173.84 169.87 164.86 C 174.11 167.78 172.57 173.69 174.01 178.00 C 168.92 179.25 165.54 175.59 161.19 174.36 C 156.21 177.09 149.14 179.24 149.12 186.21 C 147.55 189.04 143.61 186.19 141.75 187.73 C 139.97 192.93 137.27 205.93 147.62 202.56 C 154.77 204.04 150.68 213.18 150.16 217.73 C 153.71 223.59 157.75 214.99 156.32 211.21 C 160.56 211.70 164.71 210.46 168.84 209.63 L 169.32 210.63 C 168.46 212.99 166.27 212.37 164.31 212.26 C 162.93 215.94 158.53 219.76 161.23 223.72 C 163.23 229.42 172.45 229.34 172.36 236.05 C 171.52 237.33 170.89 239.51 169.12 238.03 C 168.34 235.27 165.73 233.94 163.37 232.75 C 157.72 229.18 151.29 228.00 145.20 231.91 C 145.11 230.16 144.94 226.64 144.85 224.89 C 140.27 225.37 141.02 230.78 140.41 234.23 C 139.86 226.88 134.46 221.05 133.34 213.81 C 133.26 213.14 133.08 211.79 133.00 211.11 C 131.36 205.28 126.78 200.35 127.66 193.80 C 125.61 186.72 138.59 182.03 131.32 176.68 C 130.50 175.18 129.73 173.65 128.93 172.13 C 128.57 171.15 128.22 170.15 127.89 169.16 C 127.85 168.36 127.76 166.78 127.72 165.98 C 130.13 164.42 132.62 165.87 134.96 166.73 C 136.40 165.11 137.11 163.02 138.14 161.15 Z" />
</g>
<g id="#bcad94ff">
<path fill="#bcad94" opacity="1.00" d=" M 200.02 160.91 C 202.04 160.61 204.51 161.54 204.04 164.01 C 201.59 164.66 200.47 163.07 200.02 160.91 Z" />
</g>
<g id="#6a7d44ff">
<path fill="#6a7d44" opacity="1.00" d=" M 227.28 167.04 C 231.59 170.46 237.27 166.64 238.79 172.30 C 240.19 176.92 236.07 176.77 236.88 172.22 C 234.44 174.31 232.06 174.21 230.60 171.14 C 227.40 172.87 227.35 176.97 226.64 180.10 C 223.64 177.78 222.89 187.36 219.56 183.52 C 213.65 181.20 218.80 171.83 221.78 170.33 C 225.10 173.56 226.65 170.41 227.28 167.04 Z" />
</g>
<g id="#7f9049ff">
<path fill="#7f9049" opacity="1.00" d=" M 238.79 172.30 C 239.81 168.75 242.06 166.29 245.97 167.14 C 253.48 161.76 248.80 171.28 252.47 170.55 C 257.23 168.24 258.76 173.50 261.24 176.03 C 256.96 178.13 256.81 168.32 251.50 172.84 C 248.06 172.61 244.48 173.59 241.24 172.11 C 240.52 175.39 239.47 178.58 238.65 181.84 C 235.73 181.46 234.13 183.56 232.68 185.73 C 230.16 185.03 228.87 181.67 226.64 180.10 C 227.35 176.97 227.40 172.87 230.60 171.14 C 232.06 174.21 234.44 174.31 236.88 172.22 C 236.07 176.77 240.19 176.92 238.79 172.30 Z" />
</g>
<g id="#00000035">
<path fill="#000000" opacity="0.21" d=" M 0.00 167.88 C 25.70 172.13 51.71 171.64 77.59 173.50 C 82.56 178.87 94.44 173.93 95.59 182.71 C 101.69 188.24 105.32 197.36 100.71 204.71 C 66.56 204.56 32.53 198.14 0.00 188.03 L 0.00 167.88 Z" />
</g>
<g id="#99aa66ff">
<path fill="#99aa66" opacity="1.00" d=" M 241.24 172.11 C 244.48 173.59 248.06 172.61 251.50 172.84 C 256.81 168.32 256.96 178.13 261.24 176.03 C 263.50 178.93 259.25 181.57 257.73 183.78 C 255.39 184.54 252.44 186.02 253.55 182.25 C 251.60 177.85 249.81 187.47 248.37 183.64 C 247.10 179.97 243.32 181.92 242.87 184.98 C 240.93 189.54 238.76 184.50 238.65 181.84 C 239.47 178.58 240.52 175.39 241.24 172.11 Z" />
</g>
<g id="#8d9c5eff">
<path fill="#8d9c5e" opacity="1.00" d=" M 203.52 176.18 C 204.74 174.89 206.54 172.54 205.97 175.94 C 203.70 186.59 214.30 189.35 221.24 193.08 C 220.62 196.42 215.89 191.66 213.29 192.69 C 212.13 193.22 210.98 193.77 209.84 194.33 C 207.55 193.15 209.59 186.28 206.72 188.82 C 204.24 191.53 204.15 187.36 201.71 186.59 C 207.03 186.72 202.12 179.42 203.52 176.18 Z" />
</g>
<g id="#7d8745eb">
<path fill="#7d8745" opacity="0.92" d=" M 265.32 184.50 C 262.15 182.38 264.69 175.61 266.05 173.56 C 269.14 176.64 268.03 181.54 265.32 184.50 Z" />
</g>
<g id="#79874fff">
<path fill="#79874f" opacity="1.00" d=" M 180.29 179.18 C 184.38 177.34 189.74 183.31 184.72 185.84 C 178.68 188.14 177.05 182.60 180.29 179.18 Z" />
</g>
<g id="#738037fb">
<path fill="#738037" opacity="1.00" d=" M 242.87 184.98 C 243.32 181.92 247.10 179.97 248.37 183.64 C 249.81 187.47 251.60 177.85 253.55 182.25 C 252.44 186.02 255.39 184.54 257.73 183.78 C 257.87 185.54 258.02 187.30 258.14 189.06 C 256.10 190.27 254.06 191.49 251.89 192.45 C 250.91 190.40 251.77 188.19 251.90 186.07 C 248.78 186.87 245.59 186.97 242.87 184.98 Z" />
</g>
<g id="#99a361ff">
<path fill="#99a361" opacity="1.00" d=" M 188.64 183.69 C 195.73 183.66 193.13 196.14 198.15 199.74 C 201.95 200.42 205.63 204.25 202.89 208.00 C 201.00 206.65 199.38 204.95 197.45 203.66 C 193.19 206.53 186.93 209.23 182.04 206.81 C 180.91 200.33 189.47 201.58 193.25 200.69 C 191.51 197.06 183.06 197.95 186.20 193.99 C 187.36 191.95 181.34 188.63 186.00 189.01 C 190.00 189.43 184.29 185.33 188.64 183.69 Z" />
</g>
<g id="#0101001d">
<path fill="#010100" opacity="0.11" d=" M 258.14 189.06 C 260.41 187.70 262.67 186.32 265.02 185.11 C 262.83 190.17 252.91 193.26 257.34 199.67 C 261.73 204.72 254.04 210.76 259.13 215.83 C 263.80 219.48 256.59 224.34 256.89 229.02 C 261.92 228.62 266.96 227.00 272.03 227.86 L 271.83 228.84 C 261.76 229.28 255.15 236.14 247.68 241.67 C 238.66 242.91 229.86 245.37 220.99 247.18 C 220.69 246.65 220.08 245.57 219.77 245.04 C 220.39 243.36 220.63 241.23 219.04 240.01 L 218.79 239.27 C 218.82 236.52 218.90 233.78 219.03 231.04 C 225.42 223.75 231.34 215.15 232.27 205.24 C 232.65 201.49 232.87 197.73 232.93 193.97 C 233.41 193.69 234.37 193.14 234.86 192.86 C 238.64 192.88 242.46 193.00 246.25 192.83 C 247.66 192.73 250.48 192.54 251.89 192.45 C 254.06 191.49 256.10 190.27 258.14 189.06 Z" />
</g>
<g id="#2a2f15b2">
<path fill="#2a2f15" opacity="0.70" d=" M 234.86 192.86 C 238.21 190.66 242.64 192.89 246.25 192.83 C 242.46 193.00 238.64 192.88 234.86 192.86 Z" />
</g>
<g id="#6b6129ff">
<path fill="#6b6129" opacity="1.00" d=" M 209.84 194.33 C 210.98 193.77 212.13 193.22 213.29 192.69 C 212.93 194.07 212.47 195.43 212.16 196.83 C 216.98 199.68 223.97 192.44 226.09 199.78 C 220.61 201.35 214.89 200.27 209.36 199.69 C 206.56 198.72 208.62 195.79 209.84 194.33 Z" />
</g>
<g id="#00000051">
<path fill="#000000" opacity="0.32" d=" M 126.79 207.81 C 127.29 203.15 127.13 198.44 127.66 193.80 C 126.78 200.35 131.36 205.28 133.00 211.11 C 104.35 216.42 75.51 205.96 46.81 209.66 C 44.45 209.34 40.35 213.44 43.30 214.69 C 63.78 220.16 84.25 225.70 104.30 232.60 C 115.53 236.66 127.18 239.69 139.05 241.01 C 139.25 241.32 139.65 241.92 139.86 242.22 L 139.90 243.07 C 108.06 238.49 78.18 225.35 46.32 220.65 C 30.90 217.25 15.16 215.00 0.00 210.68 L 0.00 196.83 C 5.55 195.83 10.77 198.89 16.15 199.75 C 34.34 202.81 52.74 204.47 71.04 206.85 C 89.58 206.92 108.58 213.51 126.79 207.81 Z" />
</g>
<g id="#cabfafff">
<path fill="#cabfaf" opacity="1.00" d=" M 226.06 194.06 L 226.83 194.02 C 230.04 197.28 223.03 197.41 226.06 194.06 Z" />
</g>
<g id="#1e201069">
<path fill="#1e2010" opacity="0.41" d=" M 231.97 194.21 L 232.93 193.97 C 232.87 197.73 232.65 201.49 232.27 205.24 C 232.05 201.57 231.97 197.88 231.97 194.21 Z" />
</g>
<g id="#00000060">
<path fill="#000000" opacity="0.38" d=" M 46.81 209.66 C 75.51 205.96 104.35 216.42 133.00 211.11 C 133.08 211.79 133.26 213.14 133.34 213.81 C 114.83 215.72 96.30 213.98 77.83 214.71 C 71.75 214.74 78.06 219.33 80.44 220.54 C 99.63 227.47 118.25 237.34 138.89 239.14 C 138.93 239.61 139.01 240.54 139.05 241.01 C 127.18 239.69 115.53 236.66 104.30 232.60 C 84.25 225.70 63.78 220.16 43.30 214.69 C 40.35 213.44 44.45 209.34 46.81 209.66 Z" />
</g>
<g id="#7c7b38ff">
<path fill="#7c7b38" opacity="1.00" d=" M 168.84 209.63 C 170.69 208.88 172.45 208.81 172.81 211.17 C 172.95 214.17 177.04 210.76 177.03 213.73 C 170.05 212.36 171.41 227.06 176.63 222.72 C 176.78 217.20 178.22 220.44 180.67 222.74 C 182.33 218.54 184.56 222.57 187.41 221.10 C 190.84 220.37 193.28 216.84 196.90 217.00 C 199.27 217.94 203.16 220.27 201.18 223.22 C 196.45 226.89 190.94 228.52 184.95 228.18 C 183.83 231.69 189.45 230.62 188.84 233.53 C 184.38 233.87 186.23 238.98 186.04 242.13 C 189.38 242.23 188.78 239.17 188.18 236.95 C 194.35 237.44 187.82 248.68 183.74 244.29 C 179.42 239.04 186.94 229.82 178.45 227.76 C 180.17 231.71 176.13 232.50 173.07 232.08 C 170.05 225.22 172.17 217.32 169.32 210.63 L 168.84 209.63 Z" />
</g>
<g id="#919f67ff">
<path fill="#919f67" opacity="1.00" d=" M 219.08 213.67 C 216.69 211.36 216.99 208.14 220.15 210.92 C 223.42 215.69 217.25 215.22 214.83 217.58 C 216.57 217.78 219.26 218.24 217.28 220.30 C 215.27 223.85 211.90 220.75 209.94 218.91 C 210.32 214.33 214.73 211.77 219.08 213.67 Z" />
</g>
<g id="#00000040">
<path fill="#000000" opacity="0.25" d=" M 0.00 210.68 C 15.16 215.00 30.90 217.25 46.32 220.65 C 78.18 225.35 108.06 238.49 139.90 243.07 C 139.93 243.54 140.00 244.49 140.04 244.96 C 107.99 242.25 78.19 228.54 46.32 224.65 C 30.91 221.78 15.29 220.31 0.00 216.76 L 0.00 210.68 Z" />
</g>
<g id="#685936ff">
<path fill="#685936" opacity="1.00" d=" M 169.32 210.63 C 172.17 217.32 170.05 225.22 173.07 232.08 C 173.08 233.27 173.10 234.46 173.12 235.65 L 172.36 236.05 C 172.45 229.34 163.23 229.42 161.23 223.72 C 158.53 219.76 162.93 215.94 164.31 212.26 C 166.27 212.37 168.46 212.99 169.32 210.63 Z" />
</g>
<g id="#00000070">
<path fill="#000000" opacity="0.44" d=" M 77.83 214.71 C 96.30 213.98 114.83 215.72 133.34 213.81 C 131.36 220.49 119.37 215.56 114.13 221.04 C 118.51 230.95 128.95 234.88 138.70 237.41 C 138.75 237.84 138.84 238.71 138.89 239.14 C 118.25 237.34 99.63 227.47 80.44 220.54 C 78.06 219.33 71.75 214.74 77.83 214.71 Z" />
</g>
<g id="#02020182">
<path fill="#020201" opacity="0.51" d=" M 133.34 213.81 C 134.46 221.05 139.86 226.88 140.41 234.23 C 140.19 236.89 140.01 239.55 139.86 242.22 C 139.65 241.92 139.25 241.32 139.05 241.01 C 139.01 240.54 138.93 239.61 138.89 239.14 C 138.84 238.71 138.75 237.84 138.70 237.41 C 128.95 234.88 118.51 230.95 114.13 221.04 C 119.37 215.56 131.36 220.49 133.34 213.81 Z" />
</g>
<g id="#99975bff">
<path fill="#99975b" opacity="1.00" d=" M 176.63 222.72 C 171.41 227.06 170.05 212.36 177.03 213.73 C 177.21 214.14 177.56 214.95 177.74 215.36 C 179.66 218.86 186.16 215.97 187.41 221.10 C 184.56 222.57 182.33 218.54 180.67 222.74 C 178.22 220.44 176.78 217.20 176.63 222.72 Z" />
</g>
<g id="#00000031">
<path fill="#000000" opacity="0.19" d=" M 0.00 216.76 C 15.29 220.31 30.91 221.78 46.32 224.65 C 78.19 228.54 107.99 242.25 140.04 244.96 C 140.81 247.80 141.06 250.93 142.93 253.33 C 143.60 254.29 144.30 255.23 144.99 256.19 C 129.89 245.21 108.94 252.31 93.40 242.59 C 63.53 231.72 31.89 226.25 0.00 223.90 L 0.00 216.76 Z" />
</g>
<g id="#8b9c5eff">
<path fill="#8b9c5e" opacity="1.00" d=" M 201.18 223.22 C 206.65 224.34 205.65 214.09 209.94 218.91 C 210.21 221.22 210.02 223.44 207.18 223.36 C 207.97 225.09 208.79 226.81 209.31 228.65 C 195.80 224.23 198.42 250.72 209.25 244.88 C 211.69 243.21 213.18 240.47 215.73 238.92 C 216.30 242.00 217.01 245.10 217.91 248.11 C 215.69 248.44 214.46 246.87 213.43 245.17 C 211.09 246.43 213.89 249.62 211.54 250.92 C 208.72 249.35 205.97 251.63 203.21 252.19 C 199.43 247.06 197.11 255.26 192.04 252.99 C 188.23 251.33 195.41 251.97 193.90 249.26 C 191.53 247.37 188.40 247.09 185.98 249.12 C 186.84 251.53 189.02 254.02 187.03 256.49 C 183.61 254.09 178.69 249.49 181.62 245.15 C 177.49 243.34 175.92 238.88 173.12 235.65 C 173.10 234.46 173.08 233.27 173.07 232.08 C 176.13 232.50 180.17 231.71 178.45 227.76 C 186.94 229.82 179.42 239.04 183.74 244.29 C 187.82 248.68 194.35 237.44 188.18 236.95 C 188.78 239.17 189.38 242.23 186.04 242.13 C 186.23 238.98 184.38 233.87 188.84 233.53 C 189.45 230.62 183.83 231.69 184.95 228.18 C 190.94 228.52 196.45 226.89 201.18 223.22 M 195.23 240.20 C 189.63 244.18 197.61 251.08 199.20 244.19 C 194.75 247.14 199.27 238.20 195.23 240.20 Z" />
</g>
<g id="#00000025">
<path fill="#000000" opacity="0.15" d=" M 0.00 223.90 C 31.89 226.25 63.53 231.72 93.40 242.59 C 108.94 252.31 129.89 245.21 144.99 256.19 C 152.29 259.63 158.88 264.55 166.45 267.37 C 170.96 267.11 174.18 270.17 177.17 272.95 C 169.29 271.41 161.84 267.36 154.09 264.88 C 150.86 262.68 148.67 268.58 145.25 265.96 C 138.23 267.86 133.18 258.73 126.96 263.98 C 116.17 263.32 104.03 264.69 93.37 263.66 C 88.97 259.73 81.75 265.47 78.70 260.26 C 76.40 262.79 74.61 263.85 74.57 259.45 C 69.15 259.35 66.38 251.99 60.91 253.87 C 58.27 258.42 56.46 253.58 54.97 251.04 C 52.88 246.39 47.96 248.60 45.94 244.47 C 37.78 249.76 34.09 235.04 26.19 238.18 C 21.95 241.23 21.49 230.91 15.99 235.08 C 10.27 237.21 5.43 233.19 0.00 232.02 L 0.00 223.90 Z" />
</g>
<g id="#5e5a31fe">
<path fill="#5e5a31" opacity="1.00" d=" M 140.41 234.23 C 141.02 230.78 140.27 225.37 144.85 224.89 C 144.94 226.64 145.11 230.16 145.20 231.91 C 151.29 228.00 157.72 229.18 163.37 232.75 C 154.26 236.29 158.26 246.23 158.77 253.29 C 161.99 256.97 167.62 255.92 172.03 256.97 C 171.41 255.24 170.59 253.59 169.96 251.86 C 172.95 253.79 175.91 257.05 174.16 260.81 C 171.77 263.75 162.18 264.77 165.85 259.88 C 169.98 257.89 165.32 257.10 163.12 257.74 C 156.22 256.76 152.27 249.89 146.41 246.75 C 147.45 249.97 147.23 253.54 142.93 253.33 C 141.06 250.93 140.81 247.80 140.04 244.96 C 140.00 244.49 139.93 243.54 139.90 243.07 L 139.86 242.22 C 140.01 239.55 140.19 236.89 140.41 234.23 Z" />
</g>
<g id="#1c200c7c">
<path fill="#1c200c" opacity="0.49" d=" M 287.76 226.80 C 291.45 225.38 297.11 225.17 300.08 226.94 C 299.32 226.95 297.81 226.98 297.05 226.99 C 293.93 226.92 290.86 226.86 287.76 226.80 Z" />
</g>
<g id="#5a6a34fd">
<path fill="#5a6a34" opacity="1.00" d=" M 284.24 228.23 C 285.43 227.79 286.58 227.25 287.76 226.80 C 290.86 226.86 293.93 226.92 297.05 226.99 C 296.78 228.76 297.81 234.04 295.43 230.56 C 293.30 226.23 285.39 231.62 289.17 234.80 C 290.66 236.52 293.21 235.94 295.23 236.37 C 290.54 239.30 282.94 236.46 279.75 240.83 C 275.50 235.06 290.65 239.78 285.76 234.38 C 284.40 227.37 272.57 228.26 274.73 236.52 C 270.46 237.48 265.54 232.98 264.72 239.72 C 264.09 241.31 264.78 243.06 264.78 244.71 C 259.01 250.11 262.73 257.43 262.42 264.17 C 263.72 263.53 264.95 262.76 266.18 262.00 C 266.72 265.43 263.22 266.43 262.03 269.11 C 262.20 267.25 262.25 265.42 260.04 266.74 C 259.11 264.32 256.73 260.60 260.99 262.77 C 257.76 256.30 256.68 248.49 252.91 242.65 C 260.01 242.63 260.83 232.64 268.23 233.79 C 271.56 234.45 272.09 231.41 271.83 228.84 C 275.88 228.44 280.33 229.75 284.24 228.23 Z" />
</g>
<g id="#8a9756f9">
<path fill="#8a9756" opacity="0.98" d=" M 297.05 226.99 C 297.81 226.98 299.32 226.95 300.08 226.94 C 303.31 231.48 299.34 235.21 295.23 236.37 C 293.21 235.94 290.66 236.52 289.17 234.80 C 285.39 231.62 293.30 226.23 295.43 230.56 C 297.81 234.04 296.78 228.76 297.05 226.99 Z" />
</g>
<g id="#313e19c4">
<path fill="#313e19" opacity="0.77" d=" M 272.03 227.86 C 276.09 228.02 280.16 228.14 284.24 228.23 C 280.33 229.75 275.88 228.44 271.83 228.84 L 272.03 227.86 Z" />
</g>
<g id="#605728ff">
<path fill="#605728" opacity="1.00" d=" M 209.25 244.88 C 198.42 250.72 195.80 224.23 209.31 228.65 C 210.73 230.58 215.74 233.85 207.64 232.67 C 201.37 234.85 203.69 243.26 209.25 244.88 Z" />
</g>
<g id="#3e4a20f7">
<path fill="#3e4a20" opacity="0.97" d=" M 247.68 241.67 C 255.15 236.14 261.76 229.28 271.83 228.84 C 272.09 231.41 271.56 234.45 268.23 233.79 C 260.83 232.64 260.01 242.63 252.91 242.65 C 251.91 242.95 250.92 243.29 249.94 243.65 C 245.36 245.57 239.37 245.14 236.11 248.93 C 235.60 247.74 236.76 244.72 234.71 245.12 C 233.13 249.05 231.03 252.79 228.42 256.13 C 228.27 248.00 222.07 259.82 221.99 252.79 C 221.69 250.91 221.32 249.05 220.99 247.18 C 229.86 245.37 238.66 242.91 247.68 241.67 Z" />
</g>
<g id="#7a8446fd">
<path fill="#7a8446" opacity="1.00" d=" M 274.73 236.52 C 272.57 228.26 284.40 227.37 285.76 234.38 C 290.65 239.78 275.50 235.06 279.75 240.83 C 280.58 241.61 281.43 242.38 282.28 243.14 C 282.23 245.56 280.32 246.94 278.69 248.41 C 278.99 252.68 279.86 257.49 284.76 258.27 C 283.16 254.63 280.85 248.51 285.76 246.78 C 290.45 246.06 295.40 246.79 300.19 246.99 C 295.12 248.01 282.73 248.82 286.96 257.15 C 290.42 259.10 295.76 247.71 299.75 253.18 C 300.06 255.08 301.96 254.38 303.31 254.40 C 300.15 255.67 297.98 257.75 298.69 261.74 C 289.84 266.06 286.81 276.16 278.99 282.28 C 277.05 281.73 274.83 281.41 273.07 282.65 C 272.71 282.29 272.00 281.59 271.64 281.24 C 273.72 278.99 278.33 277.80 277.25 274.00 C 276.67 269.65 280.59 268.47 284.00 269.94 C 284.53 267.31 284.92 258.96 279.82 260.65 C 276.10 260.20 278.77 266.05 274.13 264.68 C 270.30 263.67 272.53 266.05 274.93 266.46 C 271.54 269.59 267.15 270.86 263.45 273.52 C 261.33 273.16 262.24 270.61 262.03 269.11 C 263.22 266.43 266.72 265.43 266.18 262.00 C 266.15 256.38 269.66 248.95 264.78 244.71 C 268.99 240.88 273.23 250.13 277.95 244.77 C 280.66 235.53 269.64 239.83 264.72 239.72 C 265.54 232.98 270.46 237.48 274.73 236.52 M 269.27 251.32 C 267.35 252.10 267.00 257.21 269.96 255.99 C 269.69 254.80 270.83 250.37 269.27 251.32 M 292.00 257.00 C 291.61 259.33 291.94 261.80 294.81 261.71 C 299.91 261.01 297.88 253.77 292.00 257.00 M 278.96 272.20 C 278.81 275.02 282.73 276.58 284.87 274.83 C 286.46 270.42 281.44 272.92 278.96 272.20 Z" />
</g>
<g id="#34311490">
<path fill="#343114" opacity="0.56" d=" M 218.79 239.27 C 217.76 236.72 217.30 233.42 219.03 231.04 C 218.90 233.78 218.82 236.52 218.79 239.27 Z" />
</g>
<g id="#0000001d">
<path fill="#000000" opacity="0.11" d=" M 0.00 232.02 C 5.43 233.19 10.27 237.21 15.99 235.08 C 21.49 230.91 21.95 241.23 26.19 238.18 C 34.09 235.04 37.78 249.76 45.94 244.47 C 47.96 248.60 52.88 246.39 54.97 251.04 C 56.46 253.58 58.27 258.42 60.91 253.87 C 66.38 251.99 69.15 259.35 74.57 259.45 C 74.61 263.85 76.40 262.79 78.70 260.26 C 81.75 265.47 88.97 259.73 93.37 263.66 C 104.03 264.69 116.17 263.32 126.96 263.98 C 133.18 258.73 138.23 267.86 145.25 265.96 C 148.67 268.58 150.86 262.68 154.09 264.88 C 161.84 267.36 169.29 271.41 177.17 272.95 C 178.74 274.29 180.22 275.75 181.90 276.96 C 182.43 277.30 183.48 277.99 184.01 278.33 C 188.79 279.62 192.55 282.87 196.88 285.08 C 198.48 285.36 201.67 285.92 203.26 286.21 C 201.68 291.96 195.62 287.00 192.20 285.67 C 186.50 282.15 180.07 287.94 174.26 284.76 C 170.30 279.92 163.11 284.96 158.59 280.42 C 153.79 276.96 148.42 282.33 143.55 282.74 C 142.54 278.18 138.36 278.99 135.62 281.42 C 130.99 281.20 124.83 277.60 121.00 281.96 C 119.03 280.30 117.01 278.68 114.59 277.70 C 110.74 276.74 107.58 281.98 103.86 279.38 C 101.21 278.03 102.24 283.25 99.99 282.94 C 96.42 282.58 101.01 274.80 96.39 277.45 C 91.73 281.55 85.84 276.77 80.98 279.97 C 76.52 279.66 72.49 276.26 67.90 277.61 C 64.97 278.75 66.26 272.74 63.11 274.03 C 59.96 275.20 54.52 284.01 54.83 276.47 C 51.29 278.00 49.84 275.13 48.64 272.27 C 44.89 272.97 40.36 278.58 37.46 273.58 C 35.69 259.88 33.82 279.47 29.36 273.65 C 27.33 269.73 22.56 274.34 19.37 271.90 C 19.48 269.21 19.88 266.55 19.95 263.87 C 17.35 264.15 15.86 266.54 13.97 268.06 C 13.54 264.61 13.03 259.87 8.29 261.47 C 1.13 264.00 4.73 255.69 0.00 254.42 L 0.00 232.02 Z" />
</g>
<g id="#6b7130ff">
<path fill="#6b7130" opacity="1.00" d=" M 163.37 232.75 C 165.73 233.94 168.34 235.27 169.12 238.03 C 165.96 238.00 164.43 234.28 161.18 234.96 C 160.30 240.15 160.21 245.38 163.22 249.86 C 167.26 248.81 165.92 246.72 166.04 243.98 C 171.07 245.28 170.44 253.30 176.08 252.01 C 176.29 246.22 167.21 244.35 169.12 238.03 C 170.89 239.51 171.52 237.33 172.36 236.05 L 173.12 235.65 C 175.92 238.88 177.49 243.34 181.62 245.15 C 178.69 249.49 183.61 254.09 187.03 256.49 C 191.95 259.96 198.59 257.65 203.94 256.83 C 203.72 254.47 198.71 254.30 203.21 252.19 C 205.97 251.63 208.72 249.35 211.54 250.92 C 209.87 252.78 207.70 253.55 205.03 253.24 C 206.15 254.97 206.75 256.86 206.32 258.93 C 208.93 258.63 211.90 257.28 214.03 259.53 C 216.68 264.98 214.20 267.11 209.40 265.02 C 211.23 260.57 206.63 262.82 204.06 263.26 C 204.85 267.08 206.26 270.99 210.91 270.48 C 210.13 274.07 207.06 271.87 204.87 270.96 C 208.00 274.74 207.28 277.86 204.07 281.18 C 203.14 278.73 202.44 276.05 200.58 274.11 C 197.47 281.03 194.48 271.90 193.80 268.64 C 197.11 264.20 196.07 258.76 188.74 261.54 L 187.78 261.67 C 180.53 264.93 186.85 270.37 191.26 272.53 C 186.06 271.05 186.53 276.10 184.01 278.33 C 183.48 277.99 182.43 277.30 181.90 276.96 C 186.26 271.84 179.22 270.29 178.56 265.37 C 178.08 263.07 175.97 261.96 174.16 260.81 C 175.91 257.05 172.95 253.79 169.96 251.86 C 170.59 253.59 171.41 255.24 172.03 256.97 C 167.62 255.92 161.99 256.97 158.77 253.29 C 158.26 246.23 154.26 236.29 163.37 232.75 Z" />
</g>
<g id="#c2b39bff">
<path fill="#c2b39b" opacity="1.00" d=" M 209.17 234.19 C 214.60 234.40 211.48 242.46 207.02 241.06 C 205.07 237.73 207.43 235.99 209.17 234.19 Z" />
</g>
<g id="#8d8456ff">
<path fill="#8d8456" opacity="1.00" d=" M 161.18 234.96 C 164.43 234.28 165.96 238.00 169.12 238.03 C 167.21 244.35 176.29 246.22 176.08 252.01 C 170.44 253.30 171.07 245.28 166.04 243.98 C 165.92 246.72 167.26 248.81 163.22 249.86 C 160.21 245.38 160.30 240.15 161.18 234.96 Z" />
</g>
<g id="#8ea062ff">
<path fill="#8ea062" opacity="1.00" d=" M 264.72 239.72 C 269.64 239.83 280.66 235.53 277.95 244.77 C 273.23 250.13 268.99 240.88 264.78 244.71 C 264.78 243.06 264.09 241.31 264.72 239.72 Z" />
</g>
<g id="#6b6938ff">
<path fill="#6b6938" opacity="1.00" d=" M 195.23 240.20 C 199.27 238.20 194.75 247.14 199.20 244.19 C 197.61 251.08 189.63 244.18 195.23 240.20 Z" />
</g>
<g id="#2f311486">
<path fill="#2f3114" opacity="0.53" d=" M 219.04 240.01 C 220.63 241.23 220.39 243.36 219.77 245.04 C 218.48 243.66 218.63 241.71 219.04 240.01 Z" />
</g>
<g id="#838749ff">
<path fill="#838749" opacity="1.00" d=" M 249.94 243.65 C 250.92 243.29 251.91 242.95 252.91 242.65 C 256.68 248.49 257.76 256.30 260.99 262.77 C 256.73 260.60 259.11 264.32 260.04 266.74 C 256.66 268.52 253.18 270.66 253.07 274.93 C 252.17 276.11 251.27 277.34 250.11 278.28 C 246.36 278.75 242.93 274.61 239.52 277.45 C 236.99 279.13 236.52 275.19 235.38 273.75 C 238.00 268.71 226.94 271.84 231.20 265.30 C 233.41 262.15 234.39 263.28 234.09 266.82 C 237.51 263.03 237.14 269.72 240.76 268.79 C 245.88 270.02 245.50 263.02 241.16 262.19 C 240.28 258.23 241.65 254.64 244.98 252.58 C 247.00 249.87 248.71 246.82 249.94 243.65 M 245.14 255.34 C 243.49 260.52 250.00 255.78 245.14 255.34 M 250.28 267.22 C 246.46 269.08 247.51 272.68 247.31 276.07 C 252.42 278.40 255.63 266.85 250.28 267.22 Z" />
</g>
<g id="#475526ef">
<path fill="#475526" opacity="0.94" d=" M 282.28 243.14 C 290.05 247.50 299.19 241.16 306.43 244.77 C 304.35 245.53 302.35 246.50 300.19 246.99 C 295.40 246.79 290.45 246.06 285.76 246.78 C 280.85 248.51 283.16 254.63 284.76 258.27 C 279.86 257.49 278.99 252.68 278.69 248.41 C 280.32 246.94 282.23 245.56 282.28 243.14 Z" />
</g>
<g id="#5d6930ff">
<path fill="#5d6930" opacity="1.00" d=" M 236.11 248.93 C 239.37 245.14 245.36 245.57 249.94 243.65 C 248.71 246.82 247.00 249.87 244.98 252.58 C 241.68 245.09 234.40 255.27 238.87 260.19 C 236.95 259.72 237.16 257.55 236.59 256.06 C 232.06 255.51 231.15 260.54 229.76 263.65 C 227.36 263.17 225.54 261.72 224.72 259.39 C 223.47 261.17 221.88 261.91 219.97 260.50 C 221.20 257.04 217.96 254.03 221.99 252.79 C 222.07 259.82 228.27 248.00 228.42 256.13 C 231.03 252.79 233.13 249.05 234.71 245.12 C 236.76 244.72 235.60 247.74 236.11 248.93 Z" />
</g>
<g id="#423c15ff">
<path fill="#423c15" opacity="1.00" d=" M 262.42 264.17 C 262.73 257.43 259.01 250.11 264.78 244.71 C 269.66 248.95 266.15 256.38 266.18 262.00 C 264.95 262.76 263.72 263.53 262.42 264.17 Z" />
</g>
<g id="#93a05bfd">
<path fill="#93a05b" opacity="1.00" d=" M 300.19 246.99 C 302.35 246.50 304.35 245.53 306.43 244.77 C 305.14 246.31 305.52 248.50 306.49 250.09 C 305.72 251.41 304.92 252.71 304.15 254.02 L 303.31 254.40 C 301.96 254.38 300.06 255.08 299.75 253.18 C 295.76 247.71 290.42 259.10 286.96 257.15 C 282.73 248.82 295.12 248.01 300.19 246.99 Z" />
</g>
<g id="#444b2094">
<path fill="#444b20" opacity="0.58" d=" M 306.43 244.77 C 306.44 246.10 306.47 248.76 306.49 250.09 C 305.52 248.50 305.14 246.31 306.43 244.77 Z" />
</g>
<g id="#4d4d22f9">
<path fill="#4d4d22" opacity="0.98" d=" M 146.41 246.75 C 152.27 249.89 156.22 256.76 163.12 257.74 C 165.32 257.10 169.98 257.89 165.85 259.88 C 162.18 264.77 171.77 263.75 174.16 260.81 C 175.97 261.96 178.08 263.07 178.56 265.37 C 179.22 270.29 186.26 271.84 181.90 276.96 C 180.22 275.75 178.74 274.29 177.17 272.95 C 174.18 270.17 170.96 267.11 166.45 267.37 C 158.88 264.55 152.29 259.63 144.99 256.19 C 144.30 255.23 143.60 254.29 142.93 253.33 C 147.23 253.54 147.45 249.97 146.41 246.75 Z" />
</g>
<g id="#7c883cff">
<path fill="#7c883c" opacity="1.00" d=" M 185.98 249.12 C 188.40 247.09 191.53 247.37 193.90 249.26 C 195.41 251.97 188.23 251.33 192.04 252.99 C 197.11 255.26 199.43 247.06 203.21 252.19 C 198.71 254.30 203.72 254.47 203.94 256.83 C 198.59 257.65 191.95 259.96 187.03 256.49 C 189.02 254.02 186.84 251.53 185.98 249.12 Z" />
</g>
<g id="#4b471eff">
<path fill="#4b471e" opacity="1.00" d=" M 238.87 260.19 C 234.40 255.27 241.68 245.09 244.98 252.58 C 241.65 254.64 240.28 258.23 241.16 262.19 C 240.41 261.50 239.65 260.83 238.87 260.19 Z" />
</g>
<g id="#c5b397ff">
<path fill="#c5b397" opacity="1.00" d=" M 269.27 251.32 C 270.83 250.37 269.69 254.80 269.96 255.99 C 267.00 257.21 267.35 252.10 269.27 251.32 Z" />
</g>
<g id="#00000011">
<path fill="#000000" opacity="0.07" d=" M 303.31 254.40 L 304.15 254.02 C 303.31 257.01 301.93 259.80 300.44 262.51 C 291.31 271.22 286.07 283.79 273.95 288.92 C 269.30 289.75 269.36 300.12 263.99 297.00 C 260.69 293.96 259.22 300.83 255.93 300.76 C 251.35 301.72 248.62 306.47 243.44 305.55 C 240.79 306.95 239.02 309.90 235.70 309.80 C 232.93 309.54 235.84 314.89 232.51 313.80 C 232.10 309.59 224.00 309.07 223.91 313.74 C 221.91 313.10 219.89 311.55 217.80 312.80 C 211.62 315.29 202.90 311.86 200.70 319.86 C 195.74 318.56 189.35 321.84 185.97 316.96 C 182.55 318.16 179.60 321.02 179.75 324.87 C 176.52 320.62 171.57 322.65 167.24 323.76 C 160.79 318.65 156.18 329.68 148.91 326.10 C 151.15 328.73 153.61 330.57 148.16 329.48 C 146.40 334.94 137.81 339.86 133.69 334.30 C 130.76 330.35 129.80 338.51 125.97 337.13 C 126.73 335.44 127.86 333.88 128.11 332.00 C 123.93 330.60 120.47 336.11 123.83 339.07 C 118.76 341.11 114.26 333.68 108.41 336.88 C 108.32 329.59 103.89 333.21 100.82 336.63 C 96.24 335.64 91.43 334.47 87.82 331.34 C 85.49 331.86 83.45 331.69 82.47 329.21 C 80.36 330.00 81.54 332.28 81.57 333.95 C 78.96 333.10 76.46 333.67 74.16 335.09 C 76.58 331.62 75.99 328.56 71.39 328.25 C 70.51 333.27 63.20 332.05 59.43 330.78 C 57.39 328.88 49.96 334.00 50.47 329.35 C 51.96 325.00 46.13 327.10 43.95 325.35 C 41.80 327.77 47.06 328.55 47.17 331.09 C 43.19 329.56 37.21 328.80 38.24 323.65 C 33.78 321.16 29.37 330.46 25.00 326.84 C 25.74 324.40 27.54 322.42 28.12 319.91 C 24.51 320.73 20.71 322.73 18.25 325.58 C 12.99 328.11 10.72 321.06 6.34 321.17 C 4.89 324.91 2.14 325.53 0.00 321.85 L 0.00 286.47 C 1.83 289.69 9.52 298.50 7.16 289.93 C 11.56 288.97 13.32 293.66 16.05 296.15 C 17.85 295.25 19.07 293.63 20.40 292.19 C 22.81 294.48 26.45 296.22 28.53 298.07 C 27.14 304.90 34.01 299.61 35.37 296.47 C 37.99 300.39 41.81 297.21 45.03 295.90 C 44.57 297.58 39.87 301.67 43.82 300.70 C 50.06 303.06 58.64 295.59 62.23 303.75 C 65.01 309.12 63.23 300.71 66.62 300.57 C 69.44 298.95 69.67 303.44 71.31 304.81 C 75.19 304.40 80.97 307.87 83.63 303.54 C 84.60 302.13 85.69 303.93 86.44 304.57 C 90.05 309.72 97.60 301.59 100.46 308.55 C 102.81 306.04 105.16 305.81 107.46 308.56 C 110.74 311.35 110.27 302.64 112.59 306.44 C 115.28 310.59 119.86 302.28 122.97 306.17 C 123.22 309.05 118.70 309.07 118.89 312.03 C 125.92 312.91 131.96 300.27 138.63 307.46 C 145.05 307.43 152.94 303.61 159.84 306.61 C 162.66 302.53 166.83 298.29 171.93 301.72 C 174.26 298.57 180.63 296.08 180.69 302.02 C 188.31 296.62 197.62 305.04 204.42 298.66 C 212.37 300.40 219.93 290.85 226.97 296.53 C 230.71 295.18 232.22 291.31 234.35 288.29 C 239.04 286.59 244.30 283.94 249.07 286.70 C 253.78 284.78 258.97 283.24 263.13 280.01 C 266.78 280.03 269.41 283.85 273.29 283.36 C 274.71 283.09 277.56 282.55 278.99 282.28 C 286.81 276.16 289.84 266.06 298.69 261.74 C 297.98 257.75 300.15 255.67 303.31 254.40 Z" />
</g>
<g id="#00000017">
<path fill="#000000" opacity="0.09" d=" M 0.00 254.42 C 4.73 255.69 1.13 264.00 8.29 261.47 C 13.03 259.87 13.54 264.61 13.97 268.06 C 15.86 266.54 17.35 264.15 19.95 263.87 C 19.88 266.55 19.48 269.21 19.37 271.90 C 22.56 274.34 27.33 269.73 29.36 273.65 C 33.82 279.47 35.69 259.88 37.46 273.58 C 40.36 278.58 44.89 272.97 48.64 272.27 C 49.84 275.13 51.29 278.00 54.83 276.47 C 54.52 284.01 59.96 275.20 63.11 274.03 C 66.26 272.74 64.97 278.75 67.90 277.61 C 72.49 276.26 76.52 279.66 80.98 279.97 C 85.84 276.77 91.73 281.55 96.39 277.45 C 101.01 274.80 96.42 282.58 99.99 282.94 C 102.24 283.25 101.21 278.03 103.86 279.38 C 107.58 281.98 110.74 276.74 114.59 277.70 C 117.01 278.68 119.03 280.30 121.00 281.96 C 124.83 277.60 130.99 281.20 135.62 281.42 C 138.36 278.99 142.54 278.18 143.55 282.74 C 148.42 282.33 153.79 276.96 158.59 280.42 C 163.11 284.96 170.30 279.92 174.26 284.76 C 180.07 287.94 186.50 282.15 192.20 285.67 C 195.62 287.00 201.68 291.96 203.26 286.21 C 205.21 286.04 207.17 285.90 209.13 285.81 C 210.50 286.88 211.70 288.16 212.99 289.34 C 215.29 291.05 217.30 291.03 219.02 289.30 C 220.93 287.22 223.30 285.73 226.15 285.44 C 230.55 285.39 234.34 283.27 237.88 280.94 C 240.93 280.65 244.39 281.77 247.20 280.16 C 248.21 279.61 249.19 278.98 250.11 278.28 C 251.27 277.34 252.17 276.11 253.07 274.93 C 259.54 276.09 267.43 275.27 271.64 281.24 C 272.00 281.59 272.71 282.29 273.07 282.65 L 273.29 283.36 C 269.41 283.85 266.78 280.03 263.13 280.01 C 258.97 283.24 253.78 284.78 249.07 286.70 C 244.30 283.94 239.04 286.59 234.35 288.29 C 232.22 291.31 230.71 295.18 226.97 296.53 C 219.93 290.85 212.37 300.40 204.42 298.66 C 197.62 305.04 188.31 296.62 180.69 302.02 C 180.63 296.08 174.26 298.57 171.93 301.72 C 166.83 298.29 162.66 302.53 159.84 306.61 C 152.94 303.61 145.05 307.43 138.63 307.46 C 131.96 300.27 125.92 312.91 118.89 312.03 C 118.70 309.07 123.22 309.05 122.97 306.17 C 119.86 302.28 115.28 310.59 112.59 306.44 C 110.27 302.64 110.74 311.35 107.46 308.56 C 105.16 305.81 102.81 306.04 100.46 308.55 C 97.60 301.59 90.05 309.72 86.44 304.57 C 85.69 303.93 84.60 302.13 83.63 303.54 C 80.97 307.87 75.19 304.40 71.31 304.81 C 69.67 303.44 69.44 298.95 66.62 300.57 C 63.23 300.71 65.01 309.12 62.23 303.75 C 58.64 295.59 50.06 303.06 43.82 300.70 C 39.87 301.67 44.57 297.58 45.03 295.90 C 41.81 297.21 37.99 300.39 35.37 296.47 C 34.01 299.61 27.14 304.90 28.53 298.07 C 26.45 296.22 22.81 294.48 20.40 292.19 C 19.07 293.63 17.85 295.25 16.05 296.15 C 13.32 293.66 11.56 288.97 7.16 289.93 C 9.52 298.50 1.83 289.69 0.00 286.47 L 0.00 254.42 Z" />
</g>
<g id="#d6c6adff">
<path fill="#d6c6ad" opacity="1.00" d=" M 245.14 255.34 C 250.00 255.78 243.49 260.52 245.14 255.34 Z" />
</g>
<g id="#889657ff">
<path fill="#889657" opacity="1.00" d=" M 229.76 263.65 C 231.15 260.54 232.06 255.51 236.59 256.06 C 237.16 257.55 236.95 259.72 238.87 260.19 C 239.65 260.83 240.41 261.50 241.16 262.19 C 245.50 263.02 245.88 270.02 240.76 268.79 C 237.14 269.72 237.51 263.03 234.09 266.82 C 234.39 263.28 233.41 262.15 231.20 265.30 C 226.94 271.84 238.00 268.71 235.38 273.75 C 229.22 273.93 233.09 283.29 226.35 281.88 C 226.12 277.19 221.16 276.92 220.57 272.72 C 217.74 272.09 214.86 271.65 212.07 270.82 C 211.78 270.74 211.20 270.56 210.91 270.48 C 206.26 270.99 204.85 267.08 204.06 263.26 C 206.63 262.82 211.23 260.57 209.40 265.02 C 214.20 267.11 216.68 264.98 214.03 259.53 C 215.87 260.48 217.90 261.18 219.97 260.50 C 221.88 261.91 223.47 261.17 224.72 259.39 C 225.54 261.72 227.36 263.17 229.76 263.65 M 226.11 266.12 C 225.37 268.38 222.69 270.66 223.85 273.09 C 224.11 275.16 229.45 273.61 227.19 271.79 C 223.45 268.84 232.38 266.93 226.11 266.12 Z" />
</g>
<g id="#9db07aff">
<path fill="#9db07a" opacity="1.00" d=" M 292.00 257.00 C 297.88 253.77 299.91 261.01 294.81 261.71 C 291.94 261.80 291.61 259.33 292.00 257.00 Z" />
</g>
<g id="#4d5029fd">
<path fill="#4d5029" opacity="1.00" d=" M 279.82 260.65 C 284.92 258.96 284.53 267.31 284.00 269.94 C 280.59 268.47 276.67 269.65 277.25 274.00 C 278.33 277.80 273.72 278.99 271.64 281.24 C 267.43 275.27 259.54 276.09 253.07 274.93 C 253.18 270.66 256.66 268.52 260.04 266.74 C 262.25 265.42 262.20 267.25 262.03 269.11 C 262.24 270.61 261.33 273.16 263.45 273.52 C 267.15 270.86 271.54 269.59 274.93 266.46 C 272.53 266.05 270.30 263.67 274.13 264.68 C 278.77 266.05 276.10 260.20 279.82 260.65 Z" />
</g>
<g id="#848133ff">
<path fill="#848133" opacity="1.00" d=" M 188.74 261.54 C 196.07 258.76 197.11 264.20 193.80 268.64 C 194.48 271.90 197.47 281.03 200.58 274.11 C 202.44 276.05 203.14 278.73 204.07 281.18 C 197.89 284.90 195.40 275.82 191.26 272.53 C 186.85 270.37 180.53 264.93 187.78 261.67 C 187.30 263.43 186.95 265.23 186.96 267.06 C 191.17 268.45 194.75 260.68 188.74 261.54 Z" />
</g>
<g id="#b6aa8aff">
<path fill="#b6aa8a" opacity="1.00" d=" M 187.78 261.67 L 188.74 261.54 C 194.75 260.68 191.17 268.45 186.96 267.06 C 186.95 265.23 187.30 263.43 187.78 261.67 Z" />
</g>
<g id="#636a31ff">
<path fill="#636a31" opacity="1.00" d=" M 226.11 266.12 C 232.38 266.93 223.45 268.84 227.19 271.79 C 229.45 273.61 224.11 275.16 223.85 273.09 C 222.69 270.66 225.37 268.38 226.11 266.12 Z" />
</g>
<g id="#9fa578ff">
<path fill="#9fa578" opacity="1.00" d=" M 250.28 267.22 C 255.63 266.85 252.42 278.40 247.31 276.07 C 247.51 272.68 246.46 269.08 250.28 267.22 Z" />
</g>
<g id="#4d5525fa">
<path fill="#4d5525" opacity="0.98" d=" M 210.91 270.48 C 211.20 270.56 211.78 270.74 212.07 270.82 C 212.22 275.93 215.39 285.17 221.90 280.87 C 226.00 278.61 220.85 285.82 226.15 285.44 C 223.30 285.73 220.93 287.22 219.02 289.30 C 217.08 288.50 214.91 288.51 212.99 289.34 C 211.70 288.16 210.50 286.88 209.13 285.81 C 205.25 284.54 200.93 285.35 196.88 285.08 C 192.55 282.87 188.79 279.62 184.01 278.33 C 186.53 276.10 186.06 271.05 191.26 272.53 C 195.40 275.82 197.89 284.90 204.07 281.18 C 207.28 277.86 208.00 274.74 204.87 270.96 C 207.06 271.87 210.13 274.07 210.91 270.48 Z" />
</g>
<g id="#6a7132fc">
<path fill="#6a7132" opacity="1.00" d=" M 212.07 270.82 C 214.86 271.65 217.74 272.09 220.57 272.72 C 221.16 276.92 226.12 277.19 226.35 281.88 C 233.09 283.29 229.22 273.93 235.38 273.75 C 236.52 275.19 236.99 279.13 239.52 277.45 C 242.93 274.61 246.36 278.75 250.11 278.28 C 249.19 278.98 248.21 279.61 247.20 280.16 C 244.11 280.37 240.61 279.11 237.88 280.94 C 234.34 283.27 230.55 285.39 226.15 285.44 C 220.85 285.82 226.00 278.61 221.90 280.87 C 215.39 285.17 212.22 275.93 212.07 270.82 Z" />
</g>
<g id="#a7a96eff">
<path fill="#a7a96e" opacity="1.00" d=" M 278.96 272.20 C 281.44 272.92 286.46 270.42 284.87 274.83 C 282.73 276.58 278.81 275.02 278.96 272.20 Z" />
</g>
<g id="#1d180c83">
<path fill="#1d180c" opacity="0.51" d=" M 237.88 280.94 C 240.61 279.11 244.11 280.37 247.20 280.16 C 244.39 281.77 240.93 280.65 237.88 280.94 Z" />
</g>
<g id="#2b290d81">
<path fill="#2b290d" opacity="0.51" d=" M 273.07 282.65 C 274.83 281.41 277.05 281.73 278.99 282.28 C 277.56 282.55 274.71 283.09 273.29 283.36 L 273.07 282.65 Z" />
</g>
<g id="#242511a8">
<path fill="#242511" opacity="0.66" d=" M 196.88 285.08 C 200.93 285.35 205.25 284.54 209.13 285.81 C 207.17 285.90 205.21 286.04 203.26 286.21 C 201.67 285.92 198.48 285.36 196.88 285.08 Z" />
</g>
<g id="#1f190c86">
<path fill="#1f190c" opacity="0.53" d=" M 212.99 289.34 C 214.91 288.51 217.08 288.50 219.02 289.30 C 217.30 291.03 215.29 291.05 212.99 289.34 Z" />
</g>
</svg>
