<?xml version="1.0" encoding="UTF-8" ?>
<!DOCTYPE svg PUBLIC "-//W3C//DTD SVG 1.1//EN" "http://www.w3.org/Graphics/SVG/1.1/DTD/svg11.dtd">
<svg width="384pt" height="384pt" viewBox="0 0 384 384" version="1.1" xmlns="http://www.w3.org/2000/svg">
<g id="#00000010">
<path fill="#000000" opacity="0.06" d=" M 8.23 28.88 C 13.62 28.45 14.07 34.31 15.32 38.23 C 18.03 33.23 21.26 38.92 22.53 33.35 C 27.40 30.15 22.78 41.87 26.21 38.14 C 29.26 33.32 34.37 40.69 36.90 34.97 C 37.46 40.50 40.54 37.96 43.72 35.94 C 44.91 39.37 47.27 42.15 50.97 42.90 C 54.74 39.71 59.76 40.69 63.71 38.15 C 67.17 47.28 76.16 41.39 82.64 45.40 C 86.72 47.71 91.85 39.94 94.87 42.95 C 94.11 50.51 102.17 39.42 104.02 44.99 C 108.48 53.16 118.87 44.00 124.47 49.41 C 130.00 49.97 135.32 52.01 140.96 51.44 C 145.59 55.32 152.04 51.49 155.09 58.56 C 159.26 55.45 163.06 61.31 167.58 60.47 C 174.16 60.32 180.61 62.10 186.73 64.47 C 190.00 60.43 195.43 60.18 197.00 64.83 C 204.67 55.16 214.93 73.90 223.85 67.05 C 226.12 70.41 220.58 73.71 226.55 74.45 C 225.28 78.13 227.89 79.65 231.21 78.22 C 230.65 80.25 226.06 83.40 230.23 83.53 C 238.07 85.13 230.21 99.25 239.62 100.46 C 245.76 107.39 255.70 105.68 264.22 107.32 C 259.76 108.14 255.26 108.77 250.76 109.29 C 248.41 105.62 243.93 106.32 240.28 105.03 C 239.98 104.76 239.37 104.22 239.07 103.95 C 234.80 101.56 232.41 97.01 228.06 94.79 C 225.72 93.30 223.39 93.04 221.07 94.00 C 215.52 97.05 209.22 93.57 204.05 97.70 C 201.92 95.89 199.48 94.33 196.62 95.55 C 191.79 97.10 191.26 90.77 189.20 87.97 C 184.31 87.43 180.43 82.55 175.34 81.54 C 166.35 83.47 160.21 74.74 151.45 75.49 C 148.44 71.59 144.78 74.05 141.11 75.00 C 135.48 65.21 121.31 71.84 112.91 65.48 C 106.13 68.27 99.58 61.27 93.20 64.13 C 89.50 68.05 86.18 61.33 82.95 64.52 C 74.85 61.60 67.40 68.56 59.32 67.66 C 54.28 67.05 49.40 68.42 44.36 68.23 C 45.65 71.64 40.88 75.20 41.03 69.90 C 40.08 65.37 39.48 71.43 38.78 72.93 C 35.09 73.65 29.50 68.23 28.43 74.21 C 27.21 79.14 19.71 70.55 18.92 76.96 C 14.14 80.81 5.66 77.39 0.00 81.27 L 0.00 36.43 C 1.53 34.97 2.29 32.03 4.73 32.03 C 5.74 33.75 6.47 35.64 7.73 37.20 C 8.75 34.51 8.80 31.67 8.23 28.88 Z" />
</g>
<g id="#00000018">
<path fill="#000000" opacity="0.09" d=" M 59.32 67.66 C 67.40 68.56 74.85 61.60 82.95 64.52 C 86.18 61.33 89.50 68.05 93.20 64.13 C 99.58 61.27 106.13 68.27 112.91 65.48 C 121.31 71.84 135.48 65.21 141.11 75.00 C 144.78 74.05 148.44 71.59 151.45 75.49 C 160.21 74.74 166.35 83.47 175.34 81.54 C 180.43 82.55 184.31 87.43 189.20 87.97 C 191.26 90.77 191.79 97.10 196.62 95.55 C 199.48 94.33 201.92 95.89 204.05 97.70 C 209.22 93.57 215.52 97.05 221.07 94.00 L 221.08 94.86 C 218.98 96.17 216.65 97.07 214.15 97.05 C 211.54 97.00 209.02 97.61 206.53 98.25 C 193.27 96.85 183.84 108.41 173.12 113.35 C 171.58 113.47 168.49 113.72 166.94 113.84 C 166.53 113.85 165.71 113.87 165.30 113.88 C 162.19 112.87 157.76 114.80 155.93 111.15 C 155.00 108.06 149.72 104.57 151.83 110.16 C 146.53 108.68 148.70 98.41 140.72 100.17 C 137.47 97.84 125.62 102.48 130.90 95.91 C 125.68 99.15 123.09 91.57 117.99 93.56 C 118.01 91.68 119.89 89.04 117.40 88.12 C 115.73 89.57 114.73 95.78 112.27 92.80 C 110.77 86.26 100.33 85.66 97.38 91.76 C 93.52 87.95 89.60 82.71 83.26 85.68 C 76.59 89.33 68.12 84.77 62.62 90.49 C 56.30 88.83 52.16 97.10 45.45 92.25 C 44.46 99.11 37.08 94.83 33.05 93.10 C 31.75 94.49 33.56 95.68 34.13 96.93 C 29.31 98.22 24.04 98.41 20.02 101.71 C 14.38 98.85 8.81 102.74 5.06 106.80 C 3.35 106.11 1.71 105.27 0.00 104.57 L 0.00 81.27 C 5.66 77.39 14.14 80.81 18.92 76.96 C 19.71 70.55 27.21 79.14 28.43 74.21 C 29.50 68.23 35.09 73.65 38.78 72.93 C 39.48 71.43 40.08 65.37 41.03 69.90 C 40.88 75.20 45.65 71.64 44.36 68.23 C 49.40 68.42 54.28 67.05 59.32 67.66 Z" />
</g>
<g id="#0000001f">
<path fill="#000000" opacity="0.12" d=" M 83.26 85.68 C 89.60 82.71 93.52 87.95 97.38 91.76 C 100.33 85.66 110.77 86.26 112.27 92.80 C 114.73 95.78 115.73 89.57 117.40 88.12 C 119.89 89.04 118.01 91.68 117.99 93.56 C 123.09 91.57 125.68 99.15 130.90 95.91 C 125.62 102.48 137.47 97.84 140.72 100.17 C 148.70 98.41 146.53 108.68 151.83 110.16 C 149.72 104.57 155.00 108.06 155.93 111.15 C 157.76 114.80 162.19 112.87 165.30 113.88 C 163.12 115.22 160.85 116.60 160.07 119.21 C 159.57 119.38 158.57 119.72 158.07 119.90 C 153.06 121.32 147.37 125.08 142.38 121.63 C 136.94 118.25 127.97 120.81 124.68 114.24 C 120.84 115.44 115.50 117.13 112.44 113.58 C 109.29 108.67 104.50 118.12 101.12 112.90 C 99.07 109.08 96.53 110.41 94.02 112.97 C 87.59 108.78 79.58 106.65 71.90 109.75 C 68.41 109.52 61.03 105.22 63.84 111.74 C 58.72 110.75 54.37 115.42 49.13 112.66 C 40.38 116.79 30.89 118.51 22.35 121.63 C 14.59 121.12 7.38 127.26 0.00 123.07 L 0.00 104.57 C 1.71 105.27 3.35 106.11 5.06 106.80 C 8.81 102.74 14.38 98.85 20.02 101.71 C 24.04 98.41 29.31 98.22 34.13 96.93 C 33.56 95.68 31.75 94.49 33.05 93.10 C 37.08 94.83 44.46 99.11 45.45 92.25 C 52.16 97.10 56.30 88.83 62.62 90.49 C 68.12 84.77 76.59 89.33 83.26 85.68 Z" />
</g>
<g id="#362c17b1">
<path fill="#362c17" opacity="0.69" d=" M 221.07 94.00 C 223.39 93.04 225.72 93.30 228.06 94.79 C 226.31 94.81 222.82 94.84 221.08 94.86 L 221.07 94.00 Z" />
</g>
<g id="#667233fe">
<path fill="#667233" opacity="1.00" d=" M 214.15 97.05 C 216.65 97.07 218.98 96.17 221.08 94.86 C 222.82 94.84 226.31 94.81 228.06 94.79 C 232.41 97.01 234.80 101.56 239.07 103.95 C 236.51 102.94 233.35 103.18 234.70 106.68 C 230.07 108.06 226.73 105.79 222.38 105.06 C 225.35 108.52 214.98 115.62 217.92 109.82 C 220.40 106.78 213.78 104.12 213.08 108.13 C 209.25 111.25 218.73 116.56 211.89 116.88 C 205.82 117.85 213.48 111.47 209.16 111.19 C 204.54 113.72 203.21 124.41 210.76 120.95 C 213.58 115.47 220.95 119.28 225.77 119.62 C 225.52 114.78 230.65 122.25 233.62 123.12 C 233.26 125.70 229.77 128.52 232.07 130.89 C 234.46 133.30 237.75 135.32 238.11 139.05 C 235.04 139.84 233.75 137.04 232.53 134.83 C 227.97 135.53 226.81 125.80 222.93 131.35 C 218.92 128.60 222.67 126.75 225.95 126.60 C 226.65 119.21 220.38 124.92 216.37 125.06 C 216.14 123.31 217.08 119.78 214.34 119.93 C 216.47 123.48 207.82 127.01 213.15 128.31 C 211.08 134.59 200.35 131.42 200.60 138.83 C 196.71 140.27 198.68 135.50 198.27 133.26 C 205.31 131.14 194.39 123.49 190.91 125.83 C 190.01 128.39 187.93 126.90 186.16 126.28 C 185.30 134.27 183.61 115.13 178.80 122.80 C 176.49 126.94 172.99 126.36 171.20 122.63 C 173.74 117.90 184.35 111.59 184.40 120.84 C 192.23 121.70 184.56 114.84 182.79 112.16 C 180.29 106.21 186.00 110.79 188.18 112.71 C 192.89 111.58 194.79 106.09 198.36 103.16 C 202.72 99.98 205.25 107.09 209.02 105.08 C 210.85 104.17 213.20 103.19 213.88 101.11 C 213.00 99.49 211.46 97.72 214.15 97.05 Z" />
</g>
<g id="#50582af7">
<path fill="#50582a" opacity="0.97" d=" M 206.53 98.25 C 209.02 97.61 211.54 97.00 214.15 97.05 C 211.46 97.72 213.00 99.49 213.88 101.11 C 213.20 103.19 210.85 104.17 209.02 105.08 C 205.25 107.09 202.72 99.98 198.36 103.16 C 194.79 106.09 192.89 111.58 188.18 112.71 C 186.00 110.79 180.29 106.21 182.79 112.16 C 184.56 114.84 192.23 121.70 184.40 120.84 C 184.35 111.59 173.74 117.90 171.20 122.63 C 170.80 123.94 170.00 124.91 168.80 125.56 C 167.28 123.63 170.57 121.79 169.06 119.97 C 167.02 116.92 162.98 119.17 160.07 119.21 C 160.85 116.60 163.12 115.22 165.30 113.88 C 165.71 113.87 166.53 113.85 166.94 113.84 C 168.49 113.72 171.58 113.47 173.12 113.35 C 183.84 108.41 193.27 96.85 206.53 98.25 Z" />
</g>
<g id="#201e0b68">
<path fill="#201e0b" opacity="0.41" d=" M 272.90 101.60 C 274.75 99.98 276.81 99.98 279.08 101.59 C 277.10 102.46 274.87 102.44 272.90 101.60 Z" />
</g>
<g id="#838c4dfe">
<path fill="#838c4d" opacity="1.00" d=" M 271.52 102.80 C 271.86 102.50 272.55 101.90 272.90 101.60 C 274.87 102.44 277.10 102.46 279.08 101.59 C 284.24 106.16 286.21 112.70 292.00 116.08 C 291.66 117.35 291.41 119.42 293.12 119.78 C 294.82 120.51 296.53 121.25 298.13 122.20 C 298.02 122.94 297.80 124.44 297.70 125.19 C 296.86 121.60 292.57 123.20 290.06 124.17 C 289.55 128.27 295.11 126.71 297.93 127.18 C 298.44 127.32 299.47 127.60 299.99 127.74 C 301.56 128.44 303.11 129.31 304.11 130.77 C 301.85 131.63 299.12 133.64 297.68 130.59 C 294.67 130.63 291.80 130.52 289.42 128.53 C 282.30 124.55 284.83 132.02 288.12 132.92 C 286.47 133.33 284.85 133.80 283.17 134.00 C 282.84 131.45 282.88 123.51 279.01 128.00 C 273.26 131.34 280.98 136.53 282.17 140.88 C 278.65 143.95 281.00 145.78 284.79 146.05 L 285.29 146.77 C 289.27 150.64 282.78 155.49 278.30 153.54 C 273.53 153.69 277.41 144.72 272.13 146.69 C 271.80 141.58 262.75 138.83 268.49 133.63 C 266.57 130.28 260.06 134.05 256.23 133.93 C 252.88 131.32 255.07 126.56 258.09 124.87 C 257.12 121.46 253.91 123.80 252.74 125.76 C 248.28 130.58 256.24 140.77 246.58 140.34 C 248.01 138.25 252.34 134.52 247.14 134.74 C 242.15 133.93 246.02 130.08 247.22 127.44 C 242.42 129.34 238.42 124.90 239.09 120.23 C 240.64 117.66 243.42 120.07 245.36 120.78 C 243.24 113.64 234.83 113.30 234.34 120.92 C 234.16 121.47 233.80 122.57 233.62 123.12 C 230.65 122.25 225.52 114.78 225.77 119.62 C 220.95 119.28 213.58 115.47 210.76 120.95 C 203.21 124.41 204.54 113.72 209.16 111.19 C 213.48 111.47 205.82 117.85 211.89 116.88 C 218.73 116.56 209.25 111.25 213.08 108.13 C 213.78 104.12 220.40 106.78 217.92 109.82 C 214.98 115.62 225.35 108.52 222.38 105.06 C 226.73 105.79 230.07 108.06 234.70 106.68 C 233.35 103.18 236.51 102.94 239.07 103.95 C 239.37 104.22 239.98 104.76 240.28 105.03 C 231.07 108.74 242.33 113.62 247.13 115.95 C 250.65 118.51 254.39 114.24 258.15 114.70 C 261.41 118.08 259.96 127.56 265.06 130.14 C 266.05 124.73 263.14 120.04 261.97 115.00 C 266.16 116.51 267.65 115.58 266.10 111.25 C 268.65 111.10 273.26 108.25 273.71 112.33 C 274.14 116.50 270.35 119.88 269.83 124.01 C 272.43 122.61 279.50 113.69 276.78 123.41 C 274.38 123.48 272.91 125.99 275.06 127.60 C 277.08 124.76 288.47 119.42 281.72 114.26 C 276.76 116.19 276.93 110.38 277.55 107.02 C 275.30 105.84 272.03 105.90 271.52 102.80 M 287.22 117.11 C 283.74 120.00 288.86 120.41 291.14 120.78 C 291.52 118.38 289.74 116.12 287.22 117.11 Z" />
</g>
<g id="#565a30fb">
<path fill="#565a30" opacity="1.00" d=" M 264.22 107.32 C 267.80 107.80 269.53 105.17 271.52 102.80 C 272.03 105.90 275.30 105.84 277.55 107.02 C 276.93 110.38 276.76 116.19 281.72 114.26 C 288.47 119.42 277.08 124.76 275.06 127.60 C 272.91 125.99 274.38 123.48 276.78 123.41 C 279.50 113.69 272.43 122.61 269.83 124.01 C 270.35 119.88 274.14 116.50 273.71 112.33 C 273.26 108.25 268.65 111.10 266.10 111.25 C 267.65 115.58 266.16 116.51 261.97 115.00 C 263.14 120.04 266.05 124.73 265.06 130.14 C 259.96 127.56 261.41 118.08 258.15 114.70 C 255.35 113.44 252.08 112.32 250.76 109.29 C 255.26 108.77 259.76 108.14 264.22 107.32 Z" />
</g>
<g id="#727838fe">
<path fill="#727838" opacity="1.00" d=" M 240.28 105.03 C 243.93 106.32 248.41 105.62 250.76 109.29 C 252.08 112.32 255.35 113.44 258.15 114.70 C 254.39 114.24 250.65 118.51 247.13 115.95 C 242.33 113.62 231.07 108.74 240.28 105.03 Z" />
</g>
<g id="#00000028">
<path fill="#000000" opacity="0.16" d=" M 63.84 111.74 C 61.03 105.22 68.41 109.52 71.90 109.75 C 79.58 106.65 87.59 108.78 94.02 112.97 C 96.53 110.41 99.07 109.08 101.12 112.90 C 104.50 118.12 109.29 108.67 112.44 113.58 C 115.50 117.13 120.84 115.44 124.68 114.24 C 127.97 120.81 136.94 118.25 142.38 121.63 C 147.37 125.08 153.06 121.32 158.07 119.90 L 158.03 120.89 C 154.10 123.02 150.12 125.08 146.12 127.09 C 137.28 130.62 127.69 127.62 118.59 127.41 C 108.09 126.20 97.61 127.88 87.12 127.37 C 82.61 130.60 77.19 129.25 71.98 128.98 C 48.28 132.80 23.98 131.78 0.00 130.94 L 0.00 123.07 C 7.38 127.26 14.59 121.12 22.35 121.63 C 30.89 118.51 40.38 116.79 49.13 112.66 C 54.37 115.42 58.72 110.75 63.84 111.74 Z" />
</g>
<g id="#21201089">
<path fill="#212010" opacity="0.54" d=" M 166.94 113.84 C 168.49 113.72 171.58 113.47 173.12 113.35 C 171.58 113.47 168.49 113.72 166.94 113.84 Z" />
</g>
<g id="#6b642cff">
<path fill="#6b642c" opacity="1.00" d=" M 234.34 120.92 C 234.83 113.30 243.24 113.64 245.36 120.78 C 243.42 120.07 240.64 117.66 239.09 120.23 C 238.42 124.90 242.42 129.34 247.22 127.44 C 246.02 130.08 242.15 133.93 247.14 134.74 C 252.34 134.52 248.01 138.25 246.58 140.34 C 241.51 141.22 239.04 136.36 240.48 132.01 C 238.31 128.46 237.43 123.93 234.34 120.92 Z" />
</g>
<g id="#3b481da6">
<path fill="#3b481d" opacity="0.65" d=" M 292.00 116.08 C 293.50 116.66 293.35 118.50 293.12 119.78 C 291.41 119.42 291.66 117.35 292.00 116.08 Z" />
</g>
<g id="#b5b16eff">
<path fill="#b5b16e" opacity="1.00" d=" M 287.22 117.11 C 289.74 116.12 291.52 118.38 291.14 120.78 C 288.86 120.41 283.74 120.00 287.22 117.11 Z" />
</g>
<g id="#606a3cff">
<path fill="#606a3c" opacity="1.00" d=" M 160.07 119.21 C 162.98 119.17 167.02 116.92 169.06 119.97 C 170.57 121.79 167.28 123.63 168.80 125.56 C 172.61 132.17 175.10 139.29 176.00 146.93 C 173.88 148.18 176.21 149.75 177.23 150.83 C 180.14 151.70 179.87 146.31 182.80 147.13 C 184.97 148.63 182.41 151.62 181.32 153.29 C 178.27 153.97 174.32 155.39 176.57 159.19 L 176.81 159.95 C 170.95 162.64 172.62 168.31 174.07 173.03 C 175.68 171.56 177.72 168.36 179.83 171.10 C 178.79 174.28 176.08 180.72 181.93 178.06 C 184.87 184.48 176.03 178.57 177.18 182.85 C 180.89 183.29 183.84 184.18 186.96 186.31 C 187.15 189.71 183.02 196.99 190.91 193.94 C 189.12 195.18 189.54 197.23 189.70 199.10 C 183.06 199.36 187.24 189.88 183.15 188.09 C 180.87 191.70 180.57 198.95 185.75 200.31 C 188.80 204.81 185.09 209.91 183.05 214.00 C 186.74 217.45 185.19 209.68 187.90 213.89 C 188.35 214.19 189.25 214.80 189.70 215.11 C 189.06 217.01 188.82 219.07 190.00 220.82 C 185.89 223.32 192.70 227.61 187.05 227.30 C 189.04 229.83 188.15 232.00 187.04 234.59 C 189.66 234.59 190.72 236.17 189.03 238.32 C 185.56 235.94 182.93 236.43 181.20 240.32 C 179.70 242.32 178.16 244.30 176.18 245.86 C 171.83 245.22 167.49 244.48 163.11 244.12 C 162.00 246.77 161.90 249.90 159.82 252.06 C 156.46 250.09 152.41 244.84 158.92 245.77 C 157.53 240.75 156.38 234.55 149.80 234.48 C 144.52 236.11 144.43 230.95 143.94 227.84 C 145.85 228.45 147.32 229.85 148.99 230.90 C 150.94 228.19 146.15 224.48 148.85 221.86 C 151.07 219.72 152.11 216.91 153.06 214.06 C 157.15 212.99 162.48 208.94 165.78 213.20 C 168.53 215.50 175.16 217.36 176.97 213.12 C 176.07 211.44 174.94 209.90 174.13 208.18 C 175.89 206.41 181.75 204.28 177.28 201.73 C 173.23 199.98 168.20 194.89 173.73 191.66 C 170.64 184.12 160.59 196.63 158.37 188.22 C 160.08 184.58 160.06 176.64 154.30 178.13 C 153.51 180.16 152.68 184.96 149.91 182.11 C 146.90 179.55 149.16 176.17 152.71 177.77 C 155.62 169.83 166.42 167.29 165.99 158.00 C 162.26 157.28 158.72 162.51 156.13 160.86 C 156.20 154.44 167.21 158.61 163.59 152.39 C 165.08 151.77 166.64 151.21 167.95 150.24 C 168.19 149.99 168.67 149.48 168.91 149.23 C 169.93 148.08 171.00 146.96 172.05 145.83 C 174.03 143.78 172.07 140.67 171.14 138.59 C 170.88 137.60 170.57 136.64 170.23 135.68 C 168.72 130.19 161.52 135.05 157.40 133.40 C 156.28 137.32 154.59 141.09 152.06 144.30 C 151.16 139.73 153.96 134.88 151.48 130.59 C 149.23 124.74 160.83 127.39 158.03 120.89 L 158.07 119.90 C 158.57 119.72 159.57 119.38 160.07 119.21 M 181.22 217.11 C 177.84 220.83 182.29 225.69 186.27 223.21 C 190.64 220.58 184.72 215.49 181.22 217.11 Z" />
</g>
<g id="#7e9147ff">
<path fill="#7e9147" opacity="1.00" d=" M 214.34 119.93 C 217.08 119.78 216.14 123.31 216.37 125.06 C 220.38 124.92 226.65 119.21 225.95 126.60 C 222.67 126.75 218.92 128.60 222.93 131.35 C 222.71 131.84 222.28 132.81 222.06 133.29 C 219.43 131.11 216.57 129.00 213.15 128.31 C 207.82 127.01 216.47 123.48 214.34 119.93 Z" />
</g>
<g id="#575c33fe">
<path fill="#575c33" opacity="1.00" d=" M 146.12 127.09 C 150.12 125.08 154.10 123.02 158.03 120.89 C 160.83 127.39 149.23 124.74 151.48 130.59 C 153.96 134.88 151.16 139.73 152.06 144.30 C 154.59 141.09 156.28 137.32 157.40 133.40 C 161.52 135.05 168.72 130.19 170.23 135.68 C 166.38 136.93 158.90 135.22 158.06 140.99 C 159.98 144.75 162.32 148.32 163.59 152.39 C 167.21 158.61 156.20 154.44 156.13 160.86 C 158.72 162.51 162.26 157.28 165.99 158.00 C 166.42 167.29 155.62 169.83 152.71 177.77 C 149.16 176.17 146.90 179.55 149.91 182.11 C 152.68 184.96 153.51 180.16 154.30 178.13 C 160.06 176.64 160.08 184.58 158.37 188.22 C 160.59 196.63 170.64 184.12 173.73 191.66 C 168.20 194.89 173.23 199.98 177.28 201.73 C 181.75 204.28 175.89 206.41 174.13 208.18 C 174.94 209.90 176.07 211.44 176.97 213.12 C 175.16 217.36 168.53 215.50 165.78 213.20 C 162.48 208.94 157.15 212.99 153.06 214.06 C 153.95 212.18 155.65 210.91 157.27 209.71 C 163.64 208.83 154.23 206.51 155.95 202.89 C 161.22 204.13 162.93 210.95 168.47 212.25 C 167.55 208.67 171.08 206.74 172.93 204.21 C 170.71 202.59 168.35 201.17 165.88 199.98 C 166.36 201.78 169.26 204.41 166.05 204.99 C 158.55 198.19 148.95 195.68 139.32 194.17 C 139.16 201.93 131.99 198.00 129.59 193.79 C 129.20 192.32 128.42 189.39 128.03 187.93 C 127.53 180.05 136.04 175.30 134.38 167.14 C 135.07 165.80 135.82 164.48 136.46 163.11 C 136.67 162.61 137.09 161.61 137.30 161.11 C 142.08 153.63 139.49 145.31 141.06 137.06 C 141.11 136.61 141.19 135.73 141.24 135.28 C 141.41 134.72 141.77 133.60 141.94 133.04 C 143.05 130.87 144.45 128.87 146.12 127.09 Z" />
</g>
<g id="#828c47ff">
<path fill="#828c47" opacity="1.00" d=" M 178.80 122.80 C 183.61 115.13 185.30 134.27 186.16 126.28 C 187.93 126.90 190.01 128.39 190.91 125.83 C 194.39 123.49 205.31 131.14 198.27 133.26 C 194.27 129.06 193.13 134.31 190.04 136.30 C 187.89 135.28 184.03 132.01 186.79 139.85 C 185.88 144.63 179.58 144.77 176.00 146.93 C 175.10 139.29 172.61 132.17 168.80 125.56 C 170.00 124.91 170.80 123.94 171.20 122.63 C 172.99 126.36 176.49 126.94 178.80 122.80 Z" />
</g>
<g id="#42481cf9">
<path fill="#42481c" opacity="0.98" d=" M 234.34 120.92 C 237.43 123.93 238.31 128.46 240.48 132.01 C 239.04 136.36 241.51 141.22 246.58 140.34 C 253.35 144.27 260.15 139.70 264.66 134.70 C 263.69 138.79 265.53 142.09 267.95 144.95 C 265.29 146.43 261.87 153.16 269.55 149.39 C 274.22 148.11 272.74 152.92 270.84 155.13 C 264.40 153.71 258.06 151.53 253.15 146.95 C 246.12 137.92 232.86 141.01 223.09 136.84 C 222.72 135.66 222.42 134.47 222.06 133.29 C 222.28 132.81 222.71 131.84 222.93 131.35 C 226.81 125.80 227.97 135.53 232.53 134.83 C 233.75 137.04 235.04 139.84 238.11 139.05 C 237.75 135.32 234.46 133.30 232.07 130.89 C 229.77 128.52 233.26 125.70 233.62 123.12 C 233.80 122.57 234.16 121.47 234.34 120.92 Z" />
</g>
<g id="#424e23a5">
<path fill="#424e23" opacity="0.65" d=" M 298.13 122.20 C 299.04 123.80 299.66 125.65 299.99 127.74 C 299.47 127.60 298.44 127.32 297.93 127.18 C 297.87 126.69 297.75 125.69 297.70 125.19 C 297.80 124.44 298.02 122.94 298.13 122.20 Z" />
</g>
<g id="#60672ffd">
<path fill="#60672f" opacity="1.00" d=" M 252.74 125.76 C 253.91 123.80 257.12 121.46 258.09 124.87 C 255.07 126.56 252.88 131.32 256.23 133.93 C 260.06 134.05 266.57 130.28 268.49 133.63 C 262.75 138.83 271.80 141.58 272.13 146.69 C 277.41 144.72 273.53 153.69 278.30 153.54 C 282.78 155.49 289.27 150.64 285.29 146.77 C 287.92 146.76 290.56 146.77 293.20 146.80 C 294.64 147.24 295.95 147.99 297.28 148.69 C 293.85 148.83 286.73 146.16 288.01 151.90 C 288.73 158.39 298.07 150.69 297.15 156.99 C 293.69 157.01 290.27 157.13 286.82 157.08 C 285.28 156.70 283.79 156.14 282.23 155.83 C 278.46 155.20 274.66 154.96 270.84 155.13 C 272.74 152.92 274.22 148.11 269.55 149.39 C 261.87 153.16 265.29 146.43 267.95 144.95 C 265.53 142.09 263.69 138.79 264.66 134.70 C 260.15 139.70 253.35 144.27 246.58 140.34 C 256.24 140.77 248.28 130.58 252.74 125.76 Z" />
</g>
<g id="#99ad73ff">
<path fill="#99ad73" opacity="1.00" d=" M 290.06 124.17 C 292.57 123.20 296.86 121.60 297.70 125.19 C 297.75 125.69 297.87 126.69 297.93 127.18 C 295.11 126.71 289.55 128.27 290.06 124.17 Z" />
</g>
<g id="#5a6a30fd">
<path fill="#5a6a30" opacity="1.00" d=" M 279.01 128.00 C 282.88 123.51 282.84 131.45 283.17 134.00 C 284.85 133.80 286.47 133.33 288.12 132.92 C 290.64 134.32 293.01 135.98 295.25 137.80 C 292.71 137.80 290.24 138.14 287.86 138.84 C 285.96 139.52 284.07 140.20 282.17 140.88 C 280.98 136.53 273.26 131.34 279.01 128.00 Z" />
</g>
<g id="#00000035">
<path fill="#000000" opacity="0.21" d=" M 71.98 128.98 C 77.19 129.25 82.61 130.60 87.12 127.37 C 97.61 127.88 108.09 126.20 118.59 127.41 C 127.69 127.62 137.28 130.62 146.12 127.09 C 144.45 128.87 143.05 130.87 141.94 133.04 C 120.60 130.30 99.42 134.02 78.14 135.23 C 52.20 138.26 26.05 136.59 0.00 137.00 L 0.00 130.94 C 23.98 131.78 48.28 132.80 71.98 128.98 Z" />
</g>
<g id="#7b6f3dfe">
<path fill="#7b6f3d" opacity="1.00" d=" M 213.15 128.31 C 216.57 129.00 219.43 131.11 222.06 133.29 C 222.42 134.47 222.72 135.66 223.09 136.84 C 223.06 137.69 223.00 139.39 222.97 140.24 C 222.18 135.86 215.73 128.72 212.18 134.23 C 212.55 137.44 213.21 141.00 215.94 143.09 C 216.71 144.53 217.30 146.63 219.25 145.28 C 220.27 144.95 221.28 144.61 222.29 144.25 C 221.17 146.77 219.33 149.01 218.96 151.82 C 217.59 147.52 214.16 148.64 210.87 149.26 C 208.70 145.96 207.17 141.81 203.93 139.43 C 201.64 140.19 199.35 140.95 197.01 141.54 C 197.95 142.93 199.77 144.33 197.96 145.86 C 193.44 145.30 190.36 140.55 190.04 136.30 C 193.13 134.31 194.27 129.06 198.27 133.26 C 198.68 135.50 196.71 140.27 200.60 138.83 C 200.35 131.42 211.08 134.59 213.15 128.31 Z" />
</g>
<g id="#95a056fd">
<path fill="#95a056" opacity="1.00" d=" M 288.12 132.92 C 284.83 132.02 282.30 124.55 289.42 128.53 C 291.80 130.52 294.67 130.63 297.68 130.59 C 299.12 133.64 301.85 131.63 304.11 130.77 C 304.93 131.79 305.68 132.87 306.45 133.94 C 305.42 135.51 305.30 137.64 306.52 139.15 C 306.18 139.41 305.52 139.93 305.19 140.18 C 302.30 137.81 298.91 136.92 295.25 137.80 C 293.01 135.98 290.64 134.32 288.12 132.92 Z" />
</g>
<g id="#00000047">
<path fill="#000000" opacity="0.28" d=" M 78.14 135.23 C 99.42 134.02 120.60 130.30 141.94 133.04 C 141.77 133.60 141.41 134.72 141.24 135.28 C 117.42 132.29 93.76 138.36 70.04 140.13 C 46.73 142.30 23.11 141.31 0.00 145.22 L 0.00 137.00 C 26.05 136.59 52.20 138.26 78.14 135.23 Z" />
</g>
<g id="#99804ffd">
<path fill="#99804f" opacity="1.00" d=" M 212.18 134.23 C 215.73 128.72 222.18 135.86 222.97 140.24 C 222.88 141.58 222.99 143.04 222.29 144.25 C 221.28 144.61 220.27 144.95 219.25 145.28 C 219.59 143.19 219.97 141.09 220.00 138.96 C 216.95 137.99 216.27 140.74 215.94 143.09 C 213.21 141.00 212.55 137.44 212.18 134.23 Z" />
</g>
<g id="#00000058">
<path fill="#000000" opacity="0.35" d=" M 70.04 140.13 C 93.76 138.36 117.42 132.29 141.24 135.28 C 141.19 135.73 141.11 136.61 141.06 137.06 L 140.15 137.05 C 111.67 135.39 83.58 143.00 55.62 147.54 C 53.99 148.17 50.00 148.07 51.22 150.71 C 76.98 166.99 109.95 151.85 136.46 163.11 C 135.82 164.48 135.07 165.80 134.38 167.14 C 133.67 164.66 131.70 162.31 128.40 163.53 C 105.30 158.25 81.50 166.25 58.53 159.63 C 41.89 155.39 24.82 154.42 7.92 152.03 C 5.33 151.01 2.59 150.97 0.00 152.01 L 0.00 145.22 C 23.11 141.31 46.73 142.30 70.04 140.13 Z" />
</g>
<g id="#3e431b87">
<path fill="#3e431b" opacity="0.53" d=" M 306.45 133.94 C 306.47 135.25 306.50 137.85 306.52 139.15 C 305.30 137.64 305.42 135.51 306.45 133.94 Z" />
</g>
<g id="#8e9d63ff">
<path fill="#8e9d63" opacity="1.00" d=" M 186.79 139.85 C 184.03 132.01 187.89 135.28 190.04 136.30 C 190.36 140.55 193.44 145.30 197.96 145.86 C 199.77 144.33 197.95 142.93 197.01 141.54 C 199.35 140.95 201.64 140.19 203.93 139.43 C 207.17 141.81 208.70 145.96 210.87 149.26 C 211.68 152.39 216.07 152.06 217.04 154.99 C 216.48 159.02 210.24 157.02 212.80 161.87 C 209.90 160.49 205.83 164.69 204.58 160.69 C 204.92 157.27 201.21 155.99 199.14 153.99 C 199.50 156.04 199.93 158.07 200.04 160.15 C 197.64 159.08 195.78 157.18 193.06 156.79 C 191.28 153.13 194.82 147.76 190.81 145.17 C 188.28 141.73 184.76 147.47 187.43 149.59 C 190.46 152.26 186.27 153.96 184.13 155.21 C 182.00 155.85 182.73 159.39 180.11 159.14 C 180.38 157.17 180.84 155.23 181.32 153.29 C 182.41 151.62 184.97 148.63 182.80 147.13 C 179.87 146.31 180.14 151.70 177.23 150.83 C 176.21 149.75 173.88 148.18 176.00 146.93 C 179.58 144.77 185.88 144.63 186.79 139.85 M 206.98 151.99 C 206.63 153.77 207.37 156.74 209.77 155.83 C 212.24 154.44 209.40 150.81 206.98 151.99 Z" />
</g>
<g id="#0000006c">
<path fill="#000000" opacity="0.42" d=" M 55.62 147.54 C 83.58 143.00 111.67 135.39 140.15 137.05 C 140.39 140.24 138.66 141.22 134.98 139.98 C 124.90 139.11 115.27 142.21 105.71 144.79 C 102.53 146.69 97.50 147.26 97.21 151.77 C 109.98 155.95 123.74 155.92 136.68 159.41 C 136.84 159.83 137.15 160.68 137.30 161.11 C 137.09 161.61 136.67 162.61 136.46 163.11 C 109.95 151.85 76.98 166.99 51.22 150.71 C 50.00 148.07 53.99 148.17 55.62 147.54 Z" />
</g>
<g id="#7d6a45ff">
<path fill="#7d6a45" opacity="1.00" d=" M 158.06 140.99 C 158.90 135.22 166.38 136.93 170.23 135.68 C 170.57 136.64 170.88 137.60 171.14 138.59 C 166.30 139.36 161.92 150.05 167.95 150.24 C 166.64 151.21 165.08 151.77 163.59 152.39 C 162.32 148.32 159.98 144.75 158.06 140.99 Z" />
</g>
<g id="#01010081">
<path fill="#010100" opacity="0.51" d=" M 140.15 137.05 L 141.06 137.06 C 139.49 145.31 142.08 153.63 137.30 161.11 C 137.15 160.68 136.84 159.83 136.68 159.41 C 123.74 155.92 109.98 155.95 97.21 151.77 C 97.50 147.26 102.53 146.69 105.71 144.79 C 115.27 142.21 124.90 139.11 134.98 139.98 C 138.66 141.22 140.39 140.24 140.15 137.05 Z" />
</g>
<g id="#01010019">
<path fill="#010100" opacity="0.10" d=" M 223.09 136.84 C 232.86 141.01 246.12 137.92 253.15 146.95 C 248.87 146.52 245.27 141.39 240.98 142.95 C 238.96 144.82 233.17 141.07 234.21 144.71 C 239.96 147.93 244.28 155.74 252.08 153.02 C 246.88 159.97 259.19 164.84 257.48 172.56 C 263.15 175.79 253.33 179.20 257.14 183.73 C 252.12 193.64 267.49 193.47 268.16 202.19 C 267.61 201.76 266.50 200.89 265.95 200.45 C 260.53 195.81 253.87 190.63 246.30 191.20 C 241.84 191.14 237.39 191.12 232.93 191.09 C 232.67 185.99 233.79 180.70 232.35 175.71 C 230.86 170.90 229.57 165.71 226.14 161.87 C 223.28 158.88 221.12 155.33 218.96 151.82 C 219.33 149.01 221.17 146.77 222.29 144.25 C 222.99 143.04 222.88 141.58 222.97 140.24 C 223.00 139.39 223.06 137.69 223.09 136.84 Z" />
</g>
<g id="#3a481ddc">
<path fill="#3a481d" opacity="0.86" d=" M 295.25 137.80 C 298.91 136.92 302.30 137.81 305.19 140.18 C 299.87 143.20 293.69 136.34 287.86 138.84 C 290.24 138.14 292.71 137.80 295.25 137.80 Z" />
</g>
<g id="#9a906cff">
<path fill="#9a906c" opacity="1.00" d=" M 167.95 150.24 C 161.92 150.05 166.30 139.36 171.14 138.59 C 172.07 140.67 174.03 143.78 172.05 145.83 C 172.73 137.82 161.56 148.40 168.91 149.23 C 168.67 149.48 168.19 149.99 167.95 150.24 Z" />
</g>
<g id="#cabaa2ff">
<path fill="#cabaa2" opacity="1.00" d=" M 215.94 143.09 C 216.27 140.74 216.95 137.99 220.00 138.96 C 219.97 141.09 219.59 143.19 219.25 145.28 C 217.30 146.63 216.71 144.53 215.94 143.09 Z" />
</g>
<g id="#0000000e">
<path fill="#000000" opacity="0.05" d=" M 240.98 142.95 C 245.27 141.39 248.87 146.52 253.15 146.95 C 258.06 151.53 264.40 153.71 270.84 155.13 C 274.60 155.76 278.40 155.99 282.23 155.83 C 283.79 156.14 285.28 156.70 286.82 157.08 C 290.61 157.77 294.44 158.22 298.31 158.43 C 295.42 161.88 290.53 158.75 287.53 161.42 C 286.52 164.47 283.78 167.76 286.14 170.84 C 288.09 179.28 281.81 188.43 286.37 196.42 C 287.18 199.26 283.78 202.61 287.24 204.84 C 293.09 208.17 288.79 213.83 288.07 218.55 C 290.89 218.93 293.78 221.27 294.42 223.82 C 291.87 227.55 292.67 231.86 292.19 236.08 C 293.47 234.69 294.58 232.89 296.70 232.86 C 295.21 237.82 299.70 241.30 301.77 245.15 C 300.82 247.58 302.91 254.44 305.58 250.58 C 308.39 246.61 309.28 252.77 309.02 255.11 C 306.84 254.88 304.97 253.68 302.97 252.91 C 300.11 258.83 306.37 259.39 309.94 259.88 C 312.82 260.30 314.40 253.92 316.56 257.21 C 315.72 260.32 318.90 261.41 320.75 263.17 C 320.57 265.20 316.29 265.24 317.22 267.75 C 318.24 269.25 320.00 271.35 317.61 272.58 C 313.01 275.52 321.18 278.05 319.33 281.94 C 325.94 282.35 322.79 277.19 321.15 273.10 C 324.50 271.05 327.57 275.04 331.16 273.22 C 331.34 276.52 325.19 275.49 326.32 278.85 C 328.08 282.98 323.20 284.48 321.78 287.90 C 319.12 288.13 318.49 283.44 315.50 285.26 C 313.81 289.30 310.30 293.97 314.21 297.95 C 318.21 299.59 317.02 293.13 320.80 293.89 C 319.01 298.05 322.08 301.40 322.87 305.32 C 321.23 304.94 319.31 301.20 318.05 302.85 C 317.88 306.74 310.71 305.19 313.68 309.31 C 315.44 313.28 319.93 306.05 319.93 311.67 C 315.20 311.99 311.71 316.80 307.04 314.38 C 304.62 312.96 302.42 316.03 304.99 316.90 C 314.71 314.18 306.24 325.07 310.74 328.31 C 313.88 331.33 307.65 331.39 307.31 334.20 C 307.83 337.24 302.54 337.74 302.44 334.80 C 301.58 330.64 299.05 337.28 297.25 338.30 C 292.53 341.37 289.75 335.79 286.20 333.92 C 283.24 336.27 288.26 343.62 283.36 341.63 C 280.64 340.82 280.36 338.35 279.87 335.99 C 275.08 335.77 279.91 343.06 274.18 342.79 C 270.99 339.02 266.99 343.60 263.15 342.98 C 261.33 340.18 257.69 337.76 258.68 334.01 C 256.05 335.20 257.27 339.92 252.93 336.18 C 253.91 341.06 247.49 339.78 246.86 344.04 C 245.59 346.29 243.16 341.73 243.56 340.40 C 247.32 334.95 236.58 337.50 237.38 342.06 C 235.68 339.36 236.91 335.75 235.90 332.89 C 232.95 335.85 227.63 334.30 227.35 329.99 C 223.15 332.35 214.81 335.18 217.44 327.32 C 212.47 327.65 213.58 318.54 207.42 322.56 C 203.25 325.17 197.72 321.46 194.21 325.10 C 188.30 322.33 191.84 330.30 188.60 329.39 C 185.41 328.28 189.86 334.93 185.51 333.78 C 184.81 330.72 182.42 328.83 179.27 328.90 C 181.02 334.23 172.03 331.86 172.97 337.98 C 169.58 333.14 166.82 337.35 163.14 339.22 C 160.37 341.83 157.63 335.81 155.89 339.78 C 155.22 344.77 150.42 340.31 147.32 343.04 C 148.67 338.21 140.84 336.17 138.92 339.86 C 141.03 340.89 143.66 340.99 145.24 342.91 C 139.29 342.16 133.13 340.36 127.40 342.97 C 127.47 337.57 122.55 342.27 119.44 341.51 C 119.10 346.97 108.83 337.79 110.74 345.94 C 107.40 344.68 104.44 345.51 101.91 347.90 C 98.30 345.50 91.36 349.29 90.60 344.15 C 88.66 344.86 86.78 346.10 84.64 345.44 C 81.29 344.16 80.21 348.92 77.20 348.98 C 75.04 346.59 71.53 343.78 68.38 346.19 C 61.96 347.56 54.68 347.41 48.85 344.14 C 49.36 345.97 52.25 348.46 49.82 349.91 C 46.60 349.73 43.83 347.99 41.76 345.61 C 38.61 347.29 35.51 344.75 32.26 345.02 C 30.17 352.59 19.78 348.73 14.46 348.45 C 13.16 349.54 8.24 353.12 9.46 349.37 C 11.62 343.59 1.68 347.06 0.00 350.24 L 0.00 304.93 C 4.62 304.35 9.23 303.59 13.87 303.24 C 18.21 306.13 22.75 308.97 27.83 310.63 C 28.51 307.61 33.13 305.90 31.19 310.17 C 28.45 314.18 34.98 312.89 36.40 310.53 C 44.62 311.84 53.65 311.39 61.63 313.35 C 66.47 319.35 73.52 310.72 79.02 314.57 C 84.13 311.84 92.35 318.04 95.01 312.19 C 96.27 317.29 102.46 313.32 105.79 311.69 C 111.42 315.92 116.34 305.70 120.88 311.13 C 123.59 312.75 131.71 310.77 127.12 306.94 C 134.66 308.50 142.72 305.60 150.04 305.92 C 152.29 306.33 152.85 307.95 152.33 310.01 C 159.41 311.00 163.84 304.18 170.87 304.75 C 177.03 304.61 181.05 299.03 187.03 298.49 C 190.84 298.30 192.00 293.20 195.84 292.72 C 197.98 292.55 197.46 290.69 197.31 289.16 C 202.58 286.03 208.78 285.26 213.88 281.84 C 217.45 278.70 222.42 283.89 225.11 279.08 C 232.75 277.23 241.17 272.78 246.32 267.23 C 242.33 261.02 251.67 263.90 253.70 260.57 C 249.52 257.05 255.98 259.57 257.10 256.07 C 261.15 253.78 254.44 252.98 254.95 250.11 C 257.16 246.97 263.06 246.31 261.02 240.96 C 261.63 237.72 258.17 238.29 256.17 238.71 C 251.59 234.13 265.23 231.33 260.01 226.07 C 254.19 224.70 259.01 218.73 262.11 217.12 C 265.44 215.41 268.08 212.58 269.12 208.95 C 268.95 207.46 268.60 204.49 268.42 203.00 L 268.16 202.19 C 267.49 193.47 252.12 193.64 257.14 183.73 C 253.33 179.20 263.15 175.79 257.48 172.56 C 259.19 164.84 246.88 159.97 252.08 153.02 C 244.28 155.74 239.96 147.93 234.21 144.71 C 233.17 141.07 238.96 144.82 240.98 142.95 Z" />
</g>
<g id="#cfc7b2ff">
<path fill="#cfc7b2" opacity="1.00" d=" M 168.91 149.23 C 161.56 148.40 172.73 137.82 172.05 145.83 C 171.00 146.96 169.93 148.08 168.91 149.23 Z" />
</g>
<g id="#7a8242fe">
<path fill="#7a8242" opacity="1.00" d=" M 187.43 149.59 C 184.76 147.47 188.28 141.73 190.81 145.17 C 194.82 147.76 191.28 153.13 193.06 156.79 C 195.78 157.18 197.64 159.08 200.04 160.15 C 199.93 158.07 199.50 156.04 199.14 153.99 C 201.21 155.99 204.92 157.27 204.58 160.69 C 205.83 164.69 209.90 160.49 212.80 161.87 C 210.24 157.02 216.48 159.02 217.04 154.99 C 216.07 152.06 211.68 152.39 210.87 149.26 C 214.16 148.64 217.59 147.52 218.96 151.82 C 221.12 155.33 223.28 158.88 226.14 161.87 C 224.34 161.83 219.90 159.43 221.21 162.95 C 222.97 166.45 217.95 168.99 219.79 164.01 C 217.26 159.77 211.00 165.21 209.89 168.93 C 207.87 167.52 205.76 165.94 203.18 165.97 C 199.84 165.80 196.20 164.43 193.08 166.22 C 192.14 171.53 193.79 177.09 198.41 180.05 C 196.49 181.55 194.13 181.67 191.81 181.46 C 192.51 183.32 193.53 185.04 194.36 186.84 C 193.13 188.88 191.94 192.40 189.38 189.65 C 190.12 185.21 189.31 184.10 186.96 186.31 C 183.84 184.18 180.89 183.29 177.18 182.85 C 176.03 178.57 184.87 184.48 181.93 178.06 C 176.08 180.72 178.79 174.28 179.83 171.10 C 177.72 168.36 175.68 171.56 174.07 173.03 C 172.62 168.31 170.95 162.64 176.81 159.95 C 181.71 160.39 177.30 153.92 176.57 159.19 C 174.32 155.39 178.27 153.97 181.32 153.29 C 180.84 155.23 180.38 157.17 180.11 159.14 C 182.73 159.39 182.00 155.85 184.13 155.21 C 186.27 153.96 190.46 152.26 187.43 149.59 Z" />
</g>
<g id="#2f3f12bf">
<path fill="#2f3f12" opacity="0.75" d=" M 284.79 146.05 C 287.61 146.18 290.40 146.34 293.20 146.80 C 290.56 146.77 287.92 146.76 285.29 146.77 L 284.79 146.05 Z" />
</g>
<g id="#8a9655f8">
<path fill="#8a9655" opacity="0.97" d=" M 288.01 151.90 C 286.73 146.16 293.85 148.83 297.28 148.69 C 300.91 149.77 302.45 153.78 300.06 157.04 C 299.34 157.03 297.88 157.00 297.15 156.99 C 298.07 150.69 288.73 158.39 288.01 151.90 Z" />
</g>
<g id="#00000046">
<path fill="#000000" opacity="0.27" d=" M 0.00 152.01 C 2.59 150.97 5.33 151.01 7.92 152.03 C 24.82 154.42 41.89 155.39 58.53 159.63 C 81.50 166.25 105.30 158.25 128.40 163.53 C 131.70 162.31 133.67 164.66 134.38 167.14 C 136.04 175.30 127.53 180.05 128.03 187.93 C 128.08 189.72 128.19 193.30 128.25 195.09 C 127.01 195.75 125.85 196.92 124.32 196.64 C 105.89 195.10 87.28 195.92 68.95 193.12 C 46.19 189.07 23.06 187.31 0.00 186.98 L 0.00 179.89 C 26.58 182.63 53.40 185.33 79.83 189.66 C 87.78 188.91 95.80 189.87 103.78 189.58 C 107.46 186.96 103.42 180.53 107.85 177.89 C 113.18 174.26 108.59 166.99 102.77 168.06 C 86.63 165.74 70.14 165.54 53.95 163.07 C 36.34 159.21 17.77 157.84 0.00 161.23 L 0.00 152.01 Z" />
</g>
<g id="#606935ff">
<path fill="#606935" opacity="1.00" d=" M 206.98 151.99 C 209.40 150.81 212.24 154.44 209.77 155.83 C 207.37 156.74 206.63 153.77 206.98 151.99 Z" />
</g>
<g id="#313c15c0">
<path fill="#313c15" opacity="0.75" d=" M 270.84 155.13 C 274.66 154.96 278.46 155.20 282.23 155.83 C 278.40 155.99 274.60 155.76 270.84 155.13 Z" />
</g>
<g id="#bab894ff">
<path fill="#bab894" opacity="1.00" d=" M 176.57 159.19 C 177.30 153.92 181.71 160.39 176.81 159.95 L 176.57 159.19 Z" />
</g>
<g id="#2428118c">
<path fill="#242811" opacity="0.55" d=" M 286.82 157.08 C 290.27 157.13 293.69 157.01 297.15 156.99 C 297.88 157.00 299.34 157.03 300.06 157.04 C 299.63 157.39 298.75 158.08 298.31 158.43 C 294.44 158.22 290.61 157.77 286.82 157.08 Z" />
</g>
<g id="#00000038">
<path fill="#000000" opacity="0.22" d=" M 0.00 161.23 C 17.77 157.84 36.34 159.21 53.95 163.07 C 70.14 165.54 86.63 165.74 102.77 168.06 C 108.59 166.99 113.18 174.26 107.85 177.89 C 103.42 180.53 107.46 186.96 103.78 189.58 C 95.80 189.87 87.78 188.91 79.83 189.66 C 53.40 185.33 26.58 182.63 0.00 179.89 L 0.00 161.23 Z" />
</g>
<g id="#868f4cfd">
<path fill="#868f4c" opacity="1.00" d=" M 221.21 162.95 C 219.90 159.43 224.34 161.83 226.14 161.87 C 229.57 165.71 230.86 170.90 232.35 175.71 C 232.19 179.43 232.07 183.19 231.91 186.92 C 229.90 186.69 226.00 189.27 225.88 185.96 C 225.54 184.50 224.86 183.16 224.13 181.86 C 223.09 179.03 224.99 179.25 227.15 179.81 C 226.61 178.10 225.89 176.43 224.83 174.98 C 222.21 175.90 220.25 178.43 217.13 177.68 C 215.30 180.33 213.97 184.10 210.05 183.06 C 210.97 178.54 213.52 172.85 209.89 168.93 C 211.00 165.21 217.26 159.77 219.79 164.01 C 217.95 168.99 222.97 166.45 221.21 162.95 Z" />
</g>
<g id="#675e35ff">
<path fill="#675e35" opacity="1.00" d=" M 193.08 166.22 C 196.20 164.43 199.84 165.80 203.18 165.97 C 201.26 169.13 197.46 172.42 199.99 176.31 C 200.28 177.21 200.58 178.11 200.90 179.02 C 200.60 179.54 199.99 180.57 199.68 181.09 C 199.36 180.83 198.73 180.31 198.41 180.05 C 193.79 177.09 192.14 171.53 193.08 166.22 Z" />
</g>
<g id="#7f7532ff">
<path fill="#7f7532" opacity="1.00" d=" M 203.18 165.97 C 205.76 165.94 207.87 167.52 209.89 168.93 C 213.52 172.85 210.97 178.54 210.05 183.06 C 213.97 184.10 215.30 180.33 217.13 177.68 C 220.25 178.43 222.21 175.90 224.83 174.98 C 225.89 176.43 226.61 178.10 227.15 179.81 C 224.99 179.25 223.09 179.03 224.13 181.86 C 222.05 175.76 220.40 183.70 220.87 186.68 C 222.54 186.45 224.20 186.17 225.88 185.96 C 226.00 189.27 229.90 186.69 231.91 186.92 C 231.88 187.72 231.81 189.33 231.77 190.14 C 228.69 191.36 225.40 189.82 222.33 190.86 C 211.02 191.65 221.67 185.70 220.02 180.98 C 214.81 179.01 218.03 189.73 213.19 185.84 C 209.76 183.02 205.16 186.36 201.95 183.17 C 201.19 182.48 200.43 181.78 199.68 181.09 C 199.99 180.57 200.60 179.54 200.90 179.02 C 205.09 179.48 209.72 176.31 205.32 172.66 C 202.52 168.71 200.95 173.90 199.99 176.31 C 197.46 172.42 201.26 169.13 203.18 165.97 Z" />
</g>
<g id="#a18964ff">
<path fill="#a18964" opacity="1.00" d=" M 199.99 176.31 C 200.95 173.90 202.52 168.71 205.32 172.66 C 209.72 176.31 205.09 179.48 200.90 179.02 C 200.58 178.11 200.28 177.21 199.99 176.31 M 204.13 175.19 C 200.85 178.49 209.02 176.31 204.13 175.19 Z" />
</g>
<g id="#dfd4c3ff">
<path fill="#dfd4c3" opacity="1.00" d=" M 204.13 175.19 C 209.02 176.31 200.85 178.49 204.13 175.19 Z" />
</g>
<g id="#2f371687">
<path fill="#2f3716" opacity="0.53" d=" M 232.35 175.71 C 233.79 180.70 232.67 185.99 232.93 191.09 C 232.64 190.85 232.06 190.38 231.77 190.14 C 231.81 189.33 231.88 187.72 231.91 186.92 C 232.07 183.19 232.19 179.43 232.35 175.71 Z" />
</g>
<g id="#574818ff">
<path fill="#574818" opacity="1.00" d=" M 220.87 186.68 C 220.40 183.70 222.05 175.76 224.13 181.86 C 224.86 183.16 225.54 184.50 225.88 185.96 C 224.20 186.17 222.54 186.45 220.87 186.68 Z" />
</g>
<g id="#95a760ff">
<path fill="#95a760" opacity="1.00" d=" M 198.41 180.05 C 198.73 180.31 199.36 180.83 199.68 181.09 C 200.43 181.78 201.19 182.48 201.95 183.17 C 202.27 187.10 205.01 191.06 200.82 193.86 C 196.01 195.22 199.04 190.38 199.77 187.96 C 198.02 187.38 196.17 187.16 194.36 186.84 C 193.53 185.04 192.51 183.32 191.81 181.46 C 194.13 181.67 196.49 181.55 198.41 180.05 Z" />
</g>
<g id="#858e50ff">
<path fill="#858e50" opacity="1.00" d=" M 213.19 185.84 C 218.03 189.73 214.81 179.01 220.02 180.98 C 221.67 185.70 211.02 191.65 222.33 190.86 C 218.74 193.58 213.31 196.36 209.29 193.14 C 205.89 201.42 203.32 214.97 213.13 219.82 C 216.17 220.65 219.26 221.27 222.34 221.97 C 215.05 219.54 219.80 228.47 213.94 227.08 C 216.43 223.23 215.94 222.43 211.86 224.74 C 209.40 222.46 201.13 222.20 202.97 217.02 C 204.61 215.99 205.27 214.95 203.09 214.12 C 204.52 208.10 193.11 206.58 198.66 200.77 C 198.23 207.60 201.43 203.36 203.67 200.24 C 200.42 200.04 198.93 196.85 196.14 195.93 C 195.06 199.15 195.78 210.66 190.36 205.26 C 188.18 207.47 188.44 211.01 187.90 213.89 C 185.19 209.68 186.74 217.45 183.05 214.00 C 185.09 209.91 188.80 204.81 185.75 200.31 C 180.57 198.95 180.87 191.70 183.15 188.09 C 187.24 189.88 183.06 199.36 189.70 199.10 C 189.54 197.23 189.12 195.18 190.91 193.94 C 183.02 196.99 187.15 189.71 186.96 186.31 C 189.31 184.10 190.12 185.21 189.38 189.65 C 191.94 192.40 193.13 188.88 194.36 186.84 C 196.17 187.16 198.02 187.38 199.77 187.96 C 199.04 190.38 196.01 195.22 200.82 193.86 C 198.86 196.95 203.26 196.87 205.12 195.90 C 204.30 194.17 202.56 193.89 200.82 193.86 C 205.01 191.06 202.27 187.10 201.95 183.17 C 205.16 186.36 209.76 183.02 213.19 185.84 Z" />
</g>
<g id="#00000053">
<path fill="#000000" opacity="0.33" d=" M 0.00 186.98 C 23.06 187.31 46.19 189.07 68.95 193.12 C 87.28 195.92 105.89 195.10 124.32 196.64 C 125.85 196.92 127.01 195.75 128.25 195.09 L 129.05 194.74 C 129.09 195.52 129.17 197.08 129.21 197.86 C 125.91 203.00 115.46 197.56 109.98 198.86 C 84.86 198.86 59.85 196.89 34.89 194.38 C 31.41 195.76 27.67 195.30 24.06 196.16 C 22.93 200.60 29.18 199.94 31.49 202.46 C 51.99 207.18 72.76 212.08 93.85 214.29 C 105.15 216.95 117.30 215.82 128.20 220.04 C 128.10 221.35 128.02 222.67 127.97 223.99 C 124.07 218.79 116.37 222.04 111.01 219.93 C 73.65 216.30 36.15 212.06 0.00 201.80 L 0.00 186.98 Z" />
</g>
<g id="#2d271aa1">
<path fill="#2d271a" opacity="0.63" d=" M 128.03 187.93 C 128.42 189.39 129.20 192.32 129.59 193.79 L 129.05 194.74 L 128.25 195.09 C 128.19 193.30 128.08 189.72 128.03 187.93 Z" />
</g>
<g id="#59662efc">
<path fill="#59662e" opacity="1.00" d=" M 222.33 190.86 C 225.40 189.82 228.69 191.36 231.77 190.14 C 232.06 190.38 232.64 190.85 232.93 191.09 C 237.00 192.54 242.05 192.64 246.30 191.20 C 253.87 190.63 260.53 195.81 265.95 200.45 C 265.19 204.36 264.66 208.42 264.76 212.41 C 259.93 215.51 254.59 217.92 249.06 219.49 C 246.90 218.89 244.65 218.49 242.42 218.90 C 243.92 216.97 244.72 213.69 247.75 214.05 C 249.44 215.46 251.01 213.18 252.79 213.20 C 257.13 217.44 262.16 209.31 262.17 205.25 C 261.43 197.67 251.90 203.72 250.77 197.13 C 246.77 197.22 241.13 197.46 240.57 202.44 C 241.22 210.39 236.75 206.48 237.57 202.64 C 238.63 199.81 240.43 197.42 242.19 195.01 C 238.17 193.66 237.03 197.24 235.52 200.06 C 235.24 192.24 224.99 198.83 226.99 204.19 L 226.62 205.07 C 224.16 205.11 223.67 202.61 222.47 200.99 C 221.18 204.68 218.25 207.95 217.99 211.90 C 218.76 216.46 226.30 215.42 226.37 211.09 C 226.86 211.76 227.34 212.44 227.81 213.13 C 229.19 216.11 235.30 218.61 236.05 214.03 C 239.55 211.15 240.25 217.41 241.80 219.55 L 242.08 220.14 C 238.96 220.37 235.83 220.41 232.74 220.88 L 231.97 220.98 C 229.59 221.53 224.39 221.83 225.54 225.32 C 226.13 228.45 220.93 227.63 218.95 226.94 C 219.78 225.16 226.30 222.32 222.34 221.97 C 219.26 221.27 216.17 220.65 213.13 219.82 C 203.32 214.97 205.89 201.42 209.29 193.14 C 213.31 196.36 218.74 193.58 222.33 190.86 Z" />
</g>
<g id="#0e11075e">
<path fill="#0e1107" opacity="0.37" d=" M 232.93 191.09 C 237.39 191.12 241.84 191.14 246.30 191.20 C 242.05 192.64 237.00 192.54 232.93 191.09 Z" />
</g>
<g id="#00000062">
<path fill="#000000" opacity="0.38" d=" M 24.06 196.16 C 27.67 195.30 31.41 195.76 34.89 194.38 C 59.85 196.89 84.86 198.86 109.98 198.86 C 115.46 197.56 125.91 203.00 129.21 197.86 C 129.90 198.92 130.61 199.96 131.34 201.00 C 126.01 205.52 117.59 200.93 110.99 202.66 C 103.45 201.25 96.06 203.33 88.56 203.74 C 86.69 202.94 82.33 204.04 83.04 206.81 C 96.33 210.44 109.67 214.03 123.44 215.44 C 126.84 214.90 128.47 216.15 128.32 219.17 L 128.20 220.04 C 117.30 215.82 105.15 216.95 93.85 214.29 C 72.76 212.08 51.99 207.18 31.49 202.46 C 29.18 199.94 22.93 200.60 24.06 196.16 Z" />
</g>
<g id="#474c24fe">
<path fill="#474c24" opacity="1.00" d=" M 129.59 193.79 C 131.99 198.00 139.16 201.93 139.32 194.17 C 148.95 195.68 158.55 198.19 166.05 204.99 C 169.26 204.41 166.36 201.78 165.88 199.98 C 168.35 201.17 170.71 202.59 172.93 204.21 C 171.08 206.74 167.55 208.67 168.47 212.25 C 162.93 210.95 161.22 204.13 155.95 202.89 C 154.23 206.51 163.64 208.83 157.27 209.71 C 154.27 207.92 152.54 210.08 151.87 212.90 C 147.20 210.31 134.07 201.22 136.83 213.13 C 134.75 212.45 134.27 209.99 132.93 208.48 C 135.69 205.57 135.00 202.56 131.34 201.00 C 130.61 199.96 129.90 198.92 129.21 197.86 C 129.17 197.08 129.09 195.52 129.05 194.74 L 129.59 193.79 Z" />
</g>
<g id="#bdb294ff">
<path fill="#bdb294" opacity="1.00" d=" M 200.82 193.86 C 202.56 193.89 204.30 194.17 205.12 195.90 C 203.26 196.87 198.86 196.95 200.82 193.86 Z" />
</g>
<g id="#697c41ff">
<path fill="#697c41" opacity="1.00" d=" M 235.52 200.06 C 237.03 197.24 238.17 193.66 242.19 195.01 C 240.43 197.42 238.63 199.81 237.57 202.64 C 236.11 203.86 233.75 210.16 232.81 206.23 C 232.35 203.26 229.06 204.53 226.99 204.19 C 224.99 198.83 235.24 192.24 235.52 200.06 Z" />
</g>
<g id="#97a55fff">
<path fill="#97a55f" opacity="1.00" d=" M 196.14 195.93 C 198.93 196.85 200.42 200.04 203.67 200.24 C 201.43 203.36 198.23 207.60 198.66 200.77 C 193.11 206.58 204.52 208.10 203.09 214.12 C 197.47 212.90 199.46 218.31 199.76 222.13 C 195.72 221.12 194.60 215.42 189.70 215.11 C 189.25 214.80 188.35 214.19 187.90 213.89 C 188.44 211.01 188.18 207.47 190.36 205.26 C 195.78 210.66 195.06 199.15 196.14 195.93 Z" />
</g>
<g id="#81924aff">
<path fill="#81924a" opacity="1.00" d=" M 240.57 202.44 C 241.13 197.46 246.77 197.22 250.77 197.13 C 251.90 203.72 261.43 197.67 262.17 205.25 C 258.61 206.30 256.50 198.49 253.30 202.30 C 250.55 205.86 245.79 204.21 241.98 204.27 C 241.39 206.60 241.17 213.61 245.62 211.57 C 247.99 210.51 248.23 211.94 247.75 214.05 C 244.72 213.69 243.92 216.97 242.42 218.90 L 241.80 219.55 C 240.25 217.41 239.55 211.15 236.05 214.03 C 235.30 218.61 229.19 216.11 227.81 213.13 C 228.31 210.74 228.87 208.37 229.13 205.94 C 226.11 209.16 223.93 209.67 226.62 205.07 L 226.99 204.19 C 229.06 204.53 232.35 203.26 232.81 206.23 C 233.75 210.16 236.11 203.86 237.57 202.64 C 236.75 206.48 241.22 210.39 240.57 202.44 Z" />
</g>
<g id="#01010074">
<path fill="#010100" opacity="0.45" d=" M 131.34 201.00 C 135.00 202.56 135.69 205.57 132.93 208.48 C 129.65 211.08 128.71 215.16 128.32 219.17 C 128.47 216.15 126.84 214.90 123.44 215.44 C 109.67 214.03 96.33 210.44 83.04 206.81 C 82.33 204.04 86.69 202.94 88.56 203.74 C 96.06 203.33 103.45 201.25 110.99 202.66 C 117.59 200.93 126.01 205.52 131.34 201.00 Z" />
</g>
<g id="#687b42ff">
<path fill="#687b42" opacity="1.00" d=" M 222.47 200.99 C 223.67 202.61 224.16 205.11 226.62 205.07 C 223.93 209.67 226.11 209.16 229.13 205.94 C 228.87 208.37 228.31 210.74 227.81 213.13 C 227.34 212.44 226.86 211.76 226.37 211.09 C 226.30 215.42 218.76 216.46 217.99 211.90 C 218.25 207.95 221.18 204.68 222.47 200.99 Z" />
</g>
<g id="#9aac69ff">
<path fill="#9aac69" opacity="1.00" d=" M 253.30 202.30 C 256.50 198.49 258.61 206.30 262.17 205.25 C 262.16 209.31 257.13 217.44 252.79 213.20 C 251.01 213.18 249.44 215.46 247.75 214.05 C 248.23 211.94 247.99 210.51 245.62 211.57 C 241.17 213.61 241.39 206.60 241.98 204.27 C 245.79 204.21 250.55 205.86 253.30 202.30 Z" />
</g>
<g id="#828d48f5">
<path fill="#828d48" opacity="0.96" d=" M 264.76 212.41 C 264.66 208.42 265.19 204.36 265.95 200.45 C 266.50 200.89 267.61 201.76 268.16 202.19 L 268.42 203.00 C 267.72 204.96 267.40 207.18 268.44 209.11 C 267.25 210.25 266.05 211.39 264.76 212.41 Z" />
</g>
<g id="#00000041">
<path fill="#000000" opacity="0.25" d=" M 0.00 201.80 C 36.15 212.06 73.65 216.30 111.01 219.93 C 116.37 222.04 124.07 218.79 127.97 223.99 C 130.88 228.83 131.10 234.40 131.17 239.94 C 127.70 226.95 113.09 226.65 102.40 225.39 C 68.60 218.88 33.24 218.39 0.00 208.66 L 0.00 201.80 Z" />
</g>
<g id="#2f331c73">
<path fill="#2f331c" opacity="0.45" d=" M 268.42 203.00 C 268.60 204.49 268.95 207.46 269.12 208.95 L 268.44 209.11 C 267.40 207.18 267.72 204.96 268.42 203.00 Z" />
</g>
<g id="#51562cfe">
<path fill="#51562c" opacity="1.00" d=" M 136.83 213.13 C 134.07 201.22 147.20 210.31 151.87 212.90 C 152.54 210.08 154.27 207.92 157.27 209.71 C 155.65 210.91 153.95 212.18 153.06 214.06 C 152.11 216.91 151.07 219.72 148.85 221.86 C 146.15 224.48 150.94 228.19 148.99 230.90 C 147.32 229.85 145.85 228.45 143.94 227.84 C 144.43 230.95 144.52 236.11 149.80 234.48 C 156.38 234.55 157.53 240.75 158.92 245.77 C 152.41 244.84 156.46 250.09 159.82 252.06 C 161.90 249.90 162.00 246.77 163.11 244.12 C 167.49 244.48 171.83 245.22 176.18 245.86 C 175.44 252.44 176.14 259.34 177.98 265.93 C 177.43 269.23 175.83 265.84 174.11 267.02 C 173.20 266.57 172.30 266.11 171.42 265.63 L 170.83 264.94 C 170.13 264.29 169.29 263.89 168.30 263.72 C 164.70 261.82 160.88 260.30 156.96 259.19 C 152.62 260.82 146.35 265.57 150.22 270.76 C 154.22 276.57 159.04 284.35 166.98 283.98 C 171.96 282.97 173.55 287.16 177.20 289.03 C 174.40 289.25 171.65 289.34 168.86 289.36 C 169.89 292.73 173.54 294.11 176.08 296.17 C 168.31 292.16 158.56 301.05 153.12 292.80 C 148.65 291.94 142.59 292.77 139.78 288.22 C 139.06 285.07 141.49 280.62 138.90 278.08 C 137.87 277.08 136.80 276.12 135.81 275.09 C 138.97 274.85 141.98 275.80 144.96 276.73 C 147.77 273.31 145.93 268.53 146.74 264.49 C 140.11 263.34 146.05 260.66 146.07 256.86 C 142.80 257.79 140.69 261.44 137.00 261.07 C 135.09 254.91 147.16 257.58 144.90 251.23 C 142.24 248.25 138.31 252.77 134.91 252.00 C 132.69 248.31 132.17 244.04 131.17 239.94 C 131.10 234.40 130.88 228.83 127.97 223.99 C 128.02 222.67 128.10 221.35 128.20 220.04 L 128.32 219.17 C 128.71 215.16 129.65 211.08 132.93 208.48 C 134.27 209.99 134.75 212.45 136.83 213.13 Z" />
</g>
<g id="#00000031">
<path fill="#000000" opacity="0.19" d=" M 0.00 208.66 C 33.24 218.39 68.60 218.88 102.40 225.39 C 113.09 226.65 127.70 226.95 131.17 239.94 C 132.17 244.04 132.69 248.31 134.91 252.00 C 133.76 253.67 132.73 255.40 131.68 257.14 L 130.91 257.24 C 133.00 251.14 124.29 248.79 120.88 251.81 C 116.47 247.92 109.97 249.92 105.44 245.51 C 101.88 242.58 97.77 238.75 93.13 241.97 C 90.67 237.29 85.56 238.92 81.25 237.98 C 74.94 230.78 64.94 228.84 55.97 227.02 C 47.38 229.10 38.98 225.38 31.19 223.25 C 26.99 225.75 21.83 224.64 17.41 223.30 C 16.12 224.96 15.79 227.99 13.29 228.16 C 16.31 221.94 11.74 223.11 9.06 223.01 C 10.71 227.73 7.58 231.18 4.44 234.37 C 5.22 237.80 3.45 240.24 0.00 238.22 L 0.00 208.66 Z" />
</g>
<g id="#00000017">
<path fill="#000000" opacity="0.09" d=" M 268.44 209.11 L 269.12 208.95 C 268.08 212.58 265.44 215.41 262.11 217.12 C 259.01 218.73 254.19 224.70 260.01 226.07 C 265.23 231.33 251.59 234.13 256.17 238.71 C 258.17 238.29 261.63 237.72 261.02 240.96 C 263.06 246.31 257.16 246.97 254.95 250.11 C 254.44 252.98 261.15 253.78 257.10 256.07 C 255.98 259.57 249.52 257.05 253.70 260.57 C 251.67 263.90 242.33 261.02 246.32 267.23 C 241.17 272.78 232.75 277.23 225.11 279.08 C 222.42 283.89 217.45 278.70 213.88 281.84 C 208.78 285.26 202.58 286.03 197.31 289.16 C 197.46 290.69 197.98 292.55 195.84 292.72 C 192.00 293.20 190.84 298.30 187.03 298.49 C 181.05 299.03 177.03 304.61 170.87 304.75 C 163.84 304.18 159.41 311.00 152.33 310.01 C 152.85 307.95 152.29 306.33 150.04 305.92 C 142.72 305.60 134.66 308.50 127.12 306.94 C 131.71 310.77 123.59 312.75 120.88 311.13 C 116.34 305.70 111.42 315.92 105.79 311.69 C 102.46 313.32 96.27 317.29 95.01 312.19 C 92.35 318.04 84.13 311.84 79.02 314.57 C 73.52 310.72 66.47 319.35 61.63 313.35 C 53.65 311.39 44.62 311.84 36.40 310.53 C 34.98 312.89 28.45 314.18 31.19 310.17 C 33.13 305.90 28.51 307.61 27.83 310.63 C 22.75 308.97 18.21 306.13 13.87 303.24 C 9.23 303.59 4.62 304.35 0.00 304.93 L 0.00 267.79 C 3.38 271.88 10.91 267.51 15.06 270.83 C 16.73 275.05 22.17 273.89 25.34 276.56 C 27.27 278.13 28.60 272.42 29.85 274.91 C 31.26 281.77 39.07 277.14 43.77 278.53 C 49.58 275.01 55.87 282.61 60.63 279.51 C 65.37 285.12 71.38 276.34 76.78 280.33 C 79.87 283.78 85.85 277.35 85.49 283.64 C 86.88 287.58 88.24 279.69 90.83 281.28 C 93.88 282.55 100.00 282.25 98.32 286.84 C 100.50 288.56 104.15 290.06 105.90 287.03 C 111.17 286.76 117.77 282.61 120.15 289.88 C 123.10 285.84 128.36 287.55 132.63 286.43 C 136.91 285.01 138.77 290.13 141.80 292.20 C 144.85 295.25 149.38 292.85 153.12 292.80 C 158.56 301.05 168.31 292.16 176.08 296.17 C 177.34 296.26 179.86 296.44 181.13 296.53 C 184.61 293.40 185.81 288.42 190.09 286.06 C 193.42 282.30 198.21 280.64 202.63 278.60 C 204.95 276.53 206.83 273.91 210.07 273.25 C 212.96 271.49 213.46 267.72 215.15 265.01 C 216.23 263.94 216.41 262.34 215.85 260.97 C 220.19 260.04 228.28 253.37 222.97 249.69 C 218.70 247.78 223.85 245.61 225.22 243.39 C 228.43 238.76 231.08 233.63 232.30 228.09 C 233.80 225.55 233.94 223.15 232.74 220.88 C 235.83 220.41 238.96 220.37 242.08 220.14 C 244.46 220.33 246.79 220.11 249.06 219.49 C 254.59 217.92 259.93 215.51 264.76 212.41 C 266.05 211.39 267.25 210.25 268.44 209.11 Z" />
</g>
<g id="#82843fff">
<path fill="#82843f" opacity="1.00" d=" M 199.76 222.13 C 199.46 218.31 197.47 212.90 203.09 214.12 C 205.27 214.95 204.61 215.99 202.97 217.02 C 201.13 222.20 209.40 222.46 211.86 224.74 C 215.94 222.43 216.43 223.23 213.94 227.08 C 219.80 228.47 215.05 219.54 222.34 221.97 C 226.30 222.32 219.78 225.16 218.95 226.94 C 218.73 232.46 211.96 228.09 212.99 232.81 C 215.41 232.78 219.66 230.48 215.91 237.16 C 213.26 237.03 211.81 234.21 209.20 234.01 C 207.28 236.55 208.69 239.23 209.94 241.66 C 207.49 241.86 205.22 242.69 203.80 244.80 C 206.64 242.29 211.98 247.56 206.75 246.27 C 204.10 245.62 209.51 249.75 207.41 249.51 C 200.55 248.68 198.85 259.12 192.60 259.26 C 196.72 255.83 194.58 252.64 189.81 254.60 C 187.23 255.02 185.39 258.42 182.68 257.47 C 185.57 255.48 184.81 250.13 181.11 249.80 C 181.08 251.59 181.01 255.17 180.98 256.95 C 177.57 255.56 178.07 251.08 177.98 248.11 C 183.77 248.45 188.88 251.84 194.79 251.73 C 197.35 250.56 194.84 247.54 193.79 246.05 C 190.79 245.63 188.16 247.59 185.25 247.76 C 182.43 246.33 180.03 243.68 181.20 240.32 C 182.93 236.43 185.56 235.94 189.03 238.32 C 184.97 244.26 192.98 245.16 196.58 241.73 C 202.04 243.40 200.35 240.44 200.11 238.40 C 202.46 238.93 204.88 239.04 207.05 237.84 C 204.35 235.39 202.32 229.61 198.23 232.89 C 195.97 228.45 196.32 221.41 190.00 220.82 C 188.82 219.07 189.06 217.01 189.70 215.11 C 194.60 215.42 195.72 221.12 199.76 222.13 Z" />
</g>
<g id="#7e8a53ff">
<path fill="#7e8a53" opacity="1.00" d=" M 181.22 217.11 C 184.72 215.49 190.64 220.58 186.27 223.21 C 182.29 225.69 177.84 220.83 181.22 217.11 Z" />
</g>
<g id="#282e149d">
<path fill="#282e14" opacity="0.62" d=" M 241.80 219.55 L 242.42 218.90 C 244.65 218.49 246.90 218.89 249.06 219.49 C 246.79 220.11 244.46 220.33 242.08 220.14 L 241.80 219.55 Z" />
</g>
<g id="#98a25cff">
<path fill="#98a25c" opacity="1.00" d=" M 190.00 220.82 C 196.32 221.41 195.97 228.45 198.23 232.89 C 202.32 229.61 204.35 235.39 207.05 237.84 C 204.88 239.04 202.46 238.93 200.11 238.40 C 200.35 240.44 202.04 243.40 196.58 241.73 C 192.98 245.16 184.97 244.26 189.03 238.32 C 190.72 236.17 189.66 234.59 187.04 234.59 C 188.15 232.00 189.04 229.83 187.05 227.30 C 192.70 227.61 185.89 223.32 190.00 220.82 Z" />
</g>
<g id="#85924dfd">
<path fill="#85924d" opacity="1.00" d=" M 225.54 225.32 C 224.39 221.83 229.59 221.53 231.97 220.98 C 232.05 222.76 232.22 226.31 232.30 228.09 C 231.08 233.63 228.43 238.76 225.22 243.39 C 224.61 237.72 209.25 240.29 213.96 243.85 C 220.91 241.39 211.66 249.46 216.42 251.62 C 218.35 254.47 220.59 249.97 222.97 249.69 C 228.28 253.37 220.19 260.04 215.85 260.97 C 214.09 261.47 214.81 263.75 215.15 265.01 C 213.46 267.72 212.96 271.49 210.07 273.25 C 204.82 270.79 213.87 261.45 207.28 257.67 C 193.75 252.14 206.60 275.13 194.34 272.47 C 195.51 277.43 190.30 277.85 187.07 278.47 C 185.92 281.79 190.14 282.96 190.09 286.06 C 187.68 284.42 182.57 283.92 183.73 280.03 C 183.82 277.36 179.55 275.51 180.89 272.80 C 183.21 269.82 177.17 267.79 179.27 264.44 C 183.58 262.37 188.16 261.00 192.60 259.26 C 198.85 259.12 200.55 248.68 207.41 249.51 C 209.51 249.75 204.10 245.62 206.75 246.27 C 211.98 247.56 206.64 242.29 203.80 244.80 C 205.22 242.69 207.49 241.86 209.94 241.66 C 208.69 239.23 207.28 236.55 209.20 234.01 C 211.81 234.21 213.26 237.03 215.91 237.16 C 219.66 230.48 215.41 232.78 212.99 232.81 C 211.96 228.09 218.73 232.46 218.95 226.94 C 220.93 227.63 226.13 228.45 225.54 225.32 M 189.16 266.27 C 185.09 270.74 194.24 269.60 189.16 266.27 Z" />
</g>
<g id="#4244249e">
<path fill="#424424" opacity="0.62" d=" M 231.97 220.98 L 232.74 220.88 C 233.94 223.15 233.80 225.55 232.30 228.09 C 232.22 226.31 232.05 222.76 231.97 220.98 Z" />
</g>
<g id="#00000027">
<path fill="#000000" opacity="0.15" d=" M 9.06 223.01 C 11.74 223.11 16.31 221.94 13.29 228.16 C 15.79 227.99 16.12 224.96 17.41 223.30 C 21.83 224.64 26.99 225.75 31.19 223.25 C 38.98 225.38 47.38 229.10 55.97 227.02 C 64.94 228.84 74.94 230.78 81.25 237.98 C 85.56 238.92 90.67 237.29 93.13 241.97 C 97.77 238.75 101.88 242.58 105.44 245.51 C 109.97 249.92 116.47 247.92 120.88 251.81 C 124.29 248.79 133.00 251.14 130.91 257.24 C 129.84 259.93 130.15 262.20 131.82 264.05 C 132.23 264.54 133.04 265.51 133.45 266.00 C 133.17 266.78 132.63 268.35 132.36 269.13 C 130.10 263.12 122.05 263.80 117.04 265.61 C 111.70 262.03 105.60 267.31 99.96 265.15 C 91.98 263.51 84.27 260.57 76.11 259.79 C 71.08 258.53 67.13 253.69 62.23 252.75 C 59.29 257.20 56.01 253.88 55.17 250.00 C 51.07 249.55 47.07 245.51 42.91 247.56 C 40.16 247.73 37.99 245.58 35.84 244.15 C 30.37 247.94 21.56 251.29 15.90 245.99 C 11.93 251.12 4.98 250.04 0.00 246.73 L 0.00 238.22 C 3.45 240.24 5.22 237.80 4.44 234.37 C 7.58 231.18 10.71 227.73 9.06 223.01 Z" />
</g>
<g id="#777533fe">
<path fill="#777533" opacity="1.00" d=" M 176.18 245.86 C 178.16 244.30 179.70 242.32 181.20 240.32 C 180.03 243.68 182.43 246.33 185.25 247.76 C 188.16 247.59 190.79 245.63 193.79 246.05 C 194.84 247.54 197.35 250.56 194.79 251.73 C 188.88 251.84 183.77 248.45 177.98 248.11 C 178.07 251.08 177.57 255.56 180.98 256.95 C 181.41 257.08 182.25 257.34 182.68 257.47 C 185.39 258.42 187.23 255.02 189.81 254.60 C 194.58 252.64 196.72 255.83 192.60 259.26 C 188.16 261.00 183.58 262.37 179.27 264.44 C 177.17 267.79 183.21 269.82 180.89 272.80 C 179.55 275.51 183.82 277.36 183.73 280.03 C 182.57 283.92 187.68 284.42 190.09 286.06 C 185.81 288.42 184.61 293.40 181.13 296.53 C 179.72 295.29 177.66 295.26 176.08 296.17 C 173.54 294.11 169.89 292.73 168.86 289.36 C 171.65 289.34 174.40 289.25 177.20 289.03 C 173.55 287.16 171.96 282.97 166.98 283.98 C 170.87 276.51 159.25 282.41 162.54 274.49 C 167.34 274.99 174.25 272.85 174.11 267.02 C 175.83 265.84 177.43 269.23 177.98 265.93 C 176.14 259.34 175.44 252.44 176.18 245.86 M 174.23 273.35 C 172.13 273.34 171.02 275.87 173.39 276.58 C 177.17 277.52 169.14 284.66 179.08 280.03 C 177.59 277.92 176.48 274.04 174.23 273.35 Z" />
</g>
<g id="#736c2ffb">
<path fill="#736c2f" opacity="1.00" d=" M 213.96 243.85 C 209.25 240.29 224.61 237.72 225.22 243.39 C 223.85 245.61 218.70 247.78 222.97 249.69 C 220.59 249.97 218.35 254.47 216.42 251.62 C 211.66 249.46 220.91 241.39 213.96 243.85 Z" />
</g>
<g id="#0000001e">
<path fill="#000000" opacity="0.12" d=" M 15.90 245.99 C 21.56 251.29 30.37 247.94 35.84 244.15 C 37.99 245.58 40.16 247.73 42.91 247.56 C 47.07 245.51 51.07 249.55 55.17 250.00 C 56.01 253.88 59.29 257.20 62.23 252.75 C 67.13 253.69 71.08 258.53 76.11 259.79 C 84.27 260.57 91.98 263.51 99.96 265.15 C 105.60 267.31 111.70 262.03 117.04 265.61 C 122.05 263.80 130.10 263.12 132.36 269.13 C 132.70 270.21 133.18 271.22 133.79 272.18 C 134.34 273.22 134.93 274.27 135.81 275.09 C 136.80 276.12 137.87 277.08 138.90 278.08 C 139.34 281.36 138.18 285.13 139.78 288.22 C 142.59 292.77 148.65 291.94 153.12 292.80 C 149.38 292.85 144.85 295.25 141.80 292.20 C 138.77 290.13 136.91 285.01 132.63 286.43 C 128.36 287.55 123.10 285.84 120.15 289.88 C 117.77 282.61 111.17 286.76 105.90 287.03 C 104.15 290.06 100.50 288.56 98.32 286.84 C 100.00 282.25 93.88 282.55 90.83 281.28 C 88.24 279.69 86.88 287.58 85.49 283.64 C 85.85 277.35 79.87 283.78 76.78 280.33 C 71.38 276.34 65.37 285.12 60.63 279.51 C 55.87 282.61 49.58 275.01 43.77 278.53 C 39.07 277.14 31.26 281.77 29.85 274.91 C 28.60 272.42 27.27 278.13 25.34 276.56 C 22.17 273.89 16.73 275.05 15.06 270.83 C 10.91 267.51 3.38 271.88 0.00 267.79 L 0.00 246.73 C 4.98 250.04 11.93 251.12 15.90 245.99 Z" />
</g>
<g id="#5b6833fd">
<path fill="#5b6833" opacity="1.00" d=" M 134.91 252.00 C 138.31 252.77 142.24 248.25 144.90 251.23 C 147.16 257.58 135.09 254.91 137.00 261.07 C 140.69 261.44 142.80 257.79 146.07 256.86 C 146.05 260.66 140.11 263.34 146.74 264.49 C 145.93 268.53 147.77 273.31 144.96 276.73 C 141.98 275.80 138.97 274.85 135.81 275.09 C 134.93 274.27 134.34 273.22 133.79 272.18 C 133.70 270.64 133.53 267.55 133.45 266.00 C 133.04 265.51 132.23 264.54 131.82 264.05 C 131.79 262.32 131.72 258.87 131.68 257.14 C 132.73 255.40 133.76 253.67 134.91 252.00 Z" />
</g>
<g id="#c6b89cff">
<path fill="#c6b89c" opacity="1.00" d=" M 181.11 249.80 C 184.81 250.13 185.57 255.48 182.68 257.47 C 182.25 257.34 181.41 257.08 180.98 256.95 C 181.01 255.17 181.08 251.59 181.11 249.80 Z" />
</g>
<g id="#24271592">
<path fill="#242715" opacity="0.57" d=" M 130.91 257.24 L 131.68 257.14 C 131.72 258.87 131.79 262.32 131.82 264.05 C 130.15 262.20 129.84 259.93 130.91 257.24 Z" />
</g>
<g id="#787633fb">
<path fill="#787633" opacity="1.00" d=" M 194.34 272.47 C 206.60 275.13 193.75 252.14 207.28 257.67 C 213.87 261.45 204.82 270.79 210.07 273.25 C 206.83 273.91 204.95 276.53 202.63 278.60 C 198.21 280.64 193.42 282.30 190.09 286.06 C 190.14 282.96 185.92 281.79 187.07 278.47 C 190.30 277.85 195.51 277.43 194.34 272.47 M 205.37 261.14 C 204.98 263.16 203.22 264.78 203.13 266.80 C 206.29 271.38 212.04 258.98 205.37 261.14 Z" />
</g>
<g id="#6d5c37ff">
<path fill="#6d5c37" opacity="1.00" d=" M 150.22 270.76 C 146.35 265.57 152.62 260.82 156.96 259.19 C 160.88 260.30 164.70 261.82 168.30 263.72 C 165.58 266.73 160.48 269.76 162.54 274.49 C 159.25 282.41 170.87 276.51 166.98 283.98 C 159.04 284.35 154.22 276.57 150.22 270.76 Z" />
</g>
<g id="#c3b49bff">
<path fill="#c3b49b" opacity="1.00" d=" M 205.37 261.14 C 212.04 258.98 206.29 271.38 203.13 266.80 C 203.22 264.78 204.98 263.16 205.37 261.14 Z" />
</g>
<g id="#44501dad">
<path fill="#44501d" opacity="0.68" d=" M 215.15 265.01 C 214.81 263.75 214.09 261.47 215.85 260.97 C 216.41 262.34 216.23 263.94 215.15 265.01 Z" />
</g>
<g id="#998860ff">
<path fill="#998860" opacity="1.00" d=" M 168.30 263.72 C 169.29 263.89 170.13 264.29 170.83 264.94 C 165.96 264.89 168.17 269.07 169.09 271.99 C 171.75 271.43 170.81 267.63 171.42 265.63 C 172.30 266.11 173.20 266.57 174.11 267.02 C 174.25 272.85 167.34 274.99 162.54 274.49 C 160.48 269.76 165.58 266.73 168.30 263.72 Z" />
</g>
<g id="#cdc2aeff">
<path fill="#cdc2ae" opacity="1.00" d=" M 169.09 271.99 C 168.17 269.07 165.96 264.89 170.83 264.94 L 171.42 265.63 C 170.81 267.63 171.75 271.43 169.09 271.99 Z" />
</g>
<g id="#25291599">
<path fill="#252915" opacity="0.60" d=" M 133.45 266.00 C 133.53 267.55 133.70 270.64 133.79 272.18 C 133.18 271.22 132.70 270.21 132.36 269.13 C 132.63 268.35 133.17 266.78 133.45 266.00 Z" />
</g>
<g id="#bfb495ff">
<path fill="#bfb495" opacity="1.00" d=" M 189.16 266.27 C 194.24 269.60 185.09 270.74 189.16 266.27 Z" />
</g>
<g id="#8c975bff">
<path fill="#8c975b" opacity="1.00" d=" M 174.23 273.35 C 176.48 274.04 177.59 277.92 179.08 280.03 C 169.14 284.66 177.17 277.52 173.39 276.58 C 171.02 275.87 172.13 273.34 174.23 273.35 Z" />
</g>
<g id="#2c2c15a3">
<path fill="#2c2c15" opacity="0.64" d=" M 138.90 278.08 C 141.49 280.62 139.06 285.07 139.78 288.22 C 138.18 285.13 139.34 281.36 138.90 278.08 Z" />
</g>
<g id="#291f0e98">
<path fill="#291f0e" opacity="0.60" d=" M 176.08 296.17 C 177.66 295.26 179.72 295.29 181.13 296.53 C 179.86 296.44 177.34 296.26 176.08 296.17 Z" />
</g>
</svg>
