<?xml version="1.0" encoding="UTF-8" ?>
<!DOCTYPE svg PUBLIC "-//W3C//DTD SVG 1.1//EN" "http://www.w3.org/Graphics/SVG/1.1/DTD/svg11.dtd">
<svg width="384pt" height="384pt" viewBox="0 0 384 384" version="1.1" xmlns="http://www.w3.org/2000/svg">
<g id="#1d1716f9">
<path fill="#1d1716" opacity="0.98" d=" M 224.70 120.55 C 226.44 118.56 227.77 116.08 230.08 114.67 C 238.42 119.16 241.54 129.29 242.91 138.08 C 242.08 136.36 241.17 134.68 240.26 132.99 C 240.02 134.37 239.79 135.76 239.59 137.15 C 238.14 129.65 235.90 121.80 230.15 116.41 C 228.50 118.01 226.53 119.19 224.70 120.55 Z" />
</g>
<g id="#242c39fd">
<path fill="#242c39" opacity="1.00" d=" M 213.38 133.58 C 217.32 130.16 220.05 125.61 223.64 121.84 C 221.32 127.04 216.67 130.60 213.30 135.07 C 214.31 135.99 215.32 136.92 216.36 137.82 C 216.34 139.52 216.42 141.22 216.55 142.92 C 216.57 143.34 216.61 144.17 216.63 144.59 C 215.55 145.14 214.48 145.71 213.42 146.31 C 212.93 143.43 213.63 138.82 209.86 138.00 C 206.67 138.24 203.49 138.67 200.29 138.63 C 200.47 139.95 200.65 141.26 200.77 142.59 C 200.56 142.92 200.15 143.58 199.94 143.91 C 199.62 141.22 199.04 138.58 198.51 135.93 C 198.07 138.04 197.65 140.16 197.23 142.28 C 196.94 141.74 196.37 140.66 196.08 140.12 C 195.10 139.95 194.12 139.78 193.14 139.62 C 192.11 139.07 191.08 138.51 190.07 137.94 C 193.24 137.78 196.13 136.64 198.56 134.62 C 200.87 134.51 203.07 136.04 205.42 135.45 C 208.08 134.89 210.89 134.72 213.38 133.58 Z" />
</g>
<g id="#000000c2">
<path fill="#000000" opacity="0.76" d=" M 222.10 127.90 C 225.08 128.98 227.97 130.54 229.83 133.18 C 235.21 140.20 236.17 149.60 235.64 158.16 C 234.23 154.08 235.22 149.04 231.67 145.93 C 232.09 138.57 227.56 132.32 222.10 127.90 Z" />
<path fill="#000000" opacity="0.76" d=" M 240.80 182.52 C 242.37 181.78 243.93 181.02 245.49 180.24 C 246.87 183.52 251.27 186.90 248.68 190.65 C 246.87 193.72 244.81 196.64 243.23 199.84 C 244.05 199.77 245.69 199.62 246.51 199.54 C 246.25 199.86 245.73 200.49 245.47 200.81 C 244.59 201.34 243.71 201.87 242.84 202.42 C 242.60 201.86 242.13 200.74 241.90 200.18 L 241.49 199.55 C 239.62 198.73 237.71 198.03 235.80 197.31 C 238.36 192.89 243.70 188.01 240.80 182.52 Z" />
</g>
<g id="#272f3bff">
<path fill="#272f3b" opacity="1.00" d=" M 159.51 132.56 C 158.47 130.49 161.49 129.93 162.95 129.90 C 167.83 129.80 172.90 129.63 177.59 131.17 C 176.46 132.28 175.32 133.40 174.18 134.50 C 172.32 133.69 170.34 133.21 168.38 132.74 C 167.90 133.80 167.42 134.86 166.96 135.93 C 166.52 136.11 165.64 136.48 165.20 136.66 C 163.29 135.30 161.21 134.17 159.51 132.56 Z" />
</g>
<g id="#1a1715fd">
<path fill="#1a1715" opacity="1.00" d=" M 177.59 131.17 C 181.87 133.19 185.90 135.70 190.07 137.94 C 191.08 138.51 192.11 139.07 193.14 139.62 C 186.39 141.11 180.32 136.60 174.18 134.50 C 175.32 133.40 176.46 132.28 177.59 131.17 Z" />
</g>
<g id="#645e5cff">
<path fill="#645e5c" opacity="1.00" d=" M 168.38 132.74 C 170.34 133.21 172.32 133.69 174.18 134.50 C 180.32 136.60 186.39 141.11 193.14 139.62 C 194.12 139.78 195.10 139.95 196.08 140.12 C 196.37 140.66 196.94 141.74 197.23 142.28 C 197.65 140.16 198.07 138.04 198.51 135.93 C 199.04 138.58 199.62 141.22 199.94 143.91 C 199.74 144.21 199.35 144.82 199.15 145.13 C 194.85 141.30 188.94 139.52 183.36 141.34 C 182.91 141.18 182.01 140.85 181.56 140.69 C 181.49 140.68 181.36 140.65 181.29 140.63 C 179.60 140.35 177.88 140.25 176.16 140.27 C 175.85 139.73 175.24 138.64 174.93 138.10 C 174.70 137.78 174.24 137.15 174.01 136.84 C 173.24 135.95 172.47 135.07 171.71 134.19 C 170.13 134.80 168.54 135.36 166.96 135.93 C 167.42 134.86 167.90 133.80 168.38 132.74 Z" />
</g>
<g id="#2a313efd">
<path fill="#2a313e" opacity="1.00" d=" M 240.26 132.99 C 241.17 134.68 242.08 136.36 242.91 138.08 C 243.73 145.27 244.43 153.02 241.82 159.89 C 240.51 158.99 239.12 158.22 237.73 157.46 C 240.34 151.00 239.71 143.95 239.59 137.15 C 239.79 135.76 240.02 134.37 240.26 132.99 M 242.42 140.77 C 241.97 144.62 241.90 148.50 242.05 152.37 C 243.95 148.97 242.97 144.49 242.42 140.77 Z" />
</g>
<g id="#ce8562ff">
<path fill="#ce8562" opacity="1.00" d=" M 166.96 135.93 C 168.54 135.36 170.13 134.80 171.71 134.19 C 172.47 135.07 173.24 135.95 174.01 136.84 C 171.29 138.18 175.12 141.77 174.93 138.10 C 175.24 138.64 175.85 139.73 176.16 140.27 C 171.75 141.10 168.36 144.32 165.96 147.94 C 164.05 150.35 163.71 153.48 163.34 156.42 C 160.41 153.16 161.96 148.47 164.21 145.30 C 166.25 143.27 168.75 141.82 171.04 140.11 C 168.85 140.44 166.36 140.14 164.46 141.48 C 162.26 144.19 160.90 147.47 159.00 150.39 C 157.51 148.11 156.62 145.51 156.23 142.82 C 158.75 140.15 161.82 138.09 165.20 136.66 C 165.64 136.48 166.52 136.11 166.96 135.93 Z" />
</g>
<g id="#f0eae5ff">
<path fill="#f0eae5" opacity="1.00" d=" M 174.93 138.10 C 175.12 141.77 171.29 138.18 174.01 136.84 C 174.24 137.15 174.70 137.78 174.93 138.10 Z" />
</g>
<g id="#111214ff">
<path fill="#111214" opacity="1.00" d=" M 200.29 138.63 C 203.49 138.67 206.67 138.24 209.86 138.00 C 213.63 138.82 212.93 143.43 213.42 146.31 C 210.70 148.80 208.81 153.06 204.55 152.92 C 202.90 150.22 201.22 147.53 199.15 145.13 C 199.35 144.82 199.74 144.21 199.94 143.91 C 200.15 143.58 200.56 142.92 200.77 142.59 C 200.65 141.26 200.47 139.95 200.29 138.63 Z" />
</g>
<g id="#1c1b19ff">
<path fill="#1c1b19" opacity="1.00" d=" M 216.36 137.82 C 221.44 140.56 226.74 142.90 231.67 145.93 C 235.22 149.04 234.23 154.08 235.64 158.16 C 236.16 157.98 237.21 157.63 237.73 157.46 C 239.12 158.22 240.51 158.99 241.82 159.89 C 242.82 161.16 245.33 162.33 244.27 164.23 C 243.07 166.13 240.92 167.45 240.50 169.80 C 239.72 173.06 238.03 176.41 238.96 179.79 C 237.93 178.21 236.98 176.58 235.93 175.02 C 235.28 174.34 234.62 173.67 233.96 173.00 C 235.48 173.22 236.11 172.53 235.85 170.93 C 235.66 168.60 235.56 166.26 235.47 163.93 C 234.12 164.91 232.63 165.69 231.49 166.92 C 231.30 166.65 230.92 166.10 230.73 165.83 C 229.15 163.30 226.37 161.54 223.38 162.48 C 224.85 163.67 226.32 164.88 227.82 166.04 C 227.54 166.39 226.97 167.09 226.69 167.44 C 225.51 166.83 224.35 166.20 223.20 165.57 C 222.80 164.29 222.42 163.00 222.04 161.72 C 220.81 161.39 219.59 161.06 218.38 160.69 C 217.14 159.36 215.89 158.06 214.64 156.77 C 217.15 152.06 221.55 147.97 220.95 142.17 C 219.48 142.41 218.01 142.66 216.55 142.92 C 216.42 141.22 216.34 139.52 216.36 137.82 M 230.51 152.59 C 229.33 152.88 227.83 154.25 228.40 155.56 C 229.90 156.66 232.23 153.40 230.51 152.59 Z" />
</g>
<g id="#62483cfe">
<path fill="#62483c" opacity="1.00" d=" M 164.46 141.48 C 166.36 140.14 168.85 140.44 171.04 140.11 C 168.75 141.82 166.25 143.27 164.21 145.30 C 161.96 148.47 160.41 153.16 163.34 156.42 C 163.88 157.64 164.46 158.85 165.06 160.05 C 162.91 158.51 160.91 156.71 159.67 154.34 C 157.73 150.83 154.73 147.06 156.23 142.82 C 156.62 145.51 157.51 148.11 159.00 150.39 C 160.90 147.47 162.26 144.19 164.46 141.48 Z" />
</g>
<g id="#373a39ff">
<path fill="#373a39" opacity="1.00" d=" M 176.16 140.27 C 177.88 140.25 179.60 140.35 181.29 140.63 C 181.36 140.65 181.49 140.68 181.56 140.69 C 182.01 140.85 182.91 141.18 183.36 141.34 C 179.47 143.66 175.65 146.26 172.67 149.71 C 170.17 152.56 168.64 156.06 166.82 159.34 C 165.20 155.73 165.17 151.76 165.96 147.94 C 168.36 144.32 171.75 141.10 176.16 140.27 Z" />
</g>
<g id="#fffff7ff">
<path fill="#fffff7" opacity="1.00" d=" M 181.29 140.63 C 181.36 140.65 181.49 140.68 181.56 140.69 C 181.49 140.68 181.36 140.65 181.29 140.63 Z" />
</g>
<g id="#938b88ff">
<path fill="#938b88" opacity="1.00" d=" M 183.36 141.34 C 188.94 139.52 194.85 141.30 199.15 145.13 C 201.22 147.53 202.90 150.22 204.55 152.92 C 208.81 153.06 210.70 148.80 213.42 146.31 C 214.48 145.71 215.55 145.14 216.63 144.59 C 216.61 144.92 216.57 145.60 216.55 145.93 C 215.62 147.16 214.63 148.33 213.67 149.52 C 214.13 150.40 214.59 151.27 215.06 152.15 C 213.08 157.38 209.33 163.84 212.62 169.21 C 217.04 170.49 221.69 171.16 225.81 173.36 C 225.28 173.59 224.23 174.05 223.71 174.28 C 223.74 175.28 223.76 176.28 223.77 177.28 C 223.13 178.36 224.59 180.83 225.23 178.71 C 225.03 178.27 224.64 177.39 224.45 176.95 C 225.36 176.43 226.26 175.90 227.16 175.36 C 227.72 175.39 228.83 175.45 229.39 175.49 C 229.92 176.52 230.53 177.52 231.14 178.52 C 229.91 178.56 228.68 178.60 227.45 178.62 C 229.20 182.97 230.72 188.43 227.11 192.32 C 226.48 189.36 226.04 186.37 225.74 183.36 C 225.26 183.48 224.32 183.71 223.84 183.82 C 223.07 180.07 221.98 175.86 218.22 174.05 C 218.64 176.29 220.46 179.37 217.92 181.02 C 216.28 182.52 214.76 180.12 213.57 179.23 C 214.91 179.32 216.26 179.42 217.60 179.53 C 215.40 175.71 212.50 171.82 207.77 171.20 C 209.83 171.12 209.12 167.56 207.30 169.11 C 207.22 169.56 207.05 170.46 206.96 170.90 C 204.38 169.09 203.51 165.90 203.19 162.93 C 204.25 156.98 201.77 151.13 198.09 146.55 C 195.69 144.71 193.01 142.39 189.77 142.79 C 185.72 143.34 181.94 145.20 178.69 147.63 C 175.44 150.46 172.31 153.59 170.32 157.46 C 168.76 160.28 169.74 163.59 170.15 166.58 C 171.01 170.80 171.40 175.96 175.44 178.49 C 179.68 178.92 182.94 175.44 186.14 173.18 C 190.21 169.72 195.05 167.37 200.12 165.76 C 199.70 169.14 196.69 171.15 193.78 172.33 C 188.80 172.64 188.18 178.29 187.39 182.15 C 187.14 180.52 186.89 178.90 186.64 177.28 C 182.72 179.69 178.46 182.03 173.71 181.82 L 172.86 181.81 C 172.62 180.97 172.37 180.12 172.10 179.29 C 169.27 180.52 166.42 181.69 163.56 182.86 C 163.71 179.05 165.99 176.15 168.44 173.47 C 169.51 168.90 168.70 163.40 165.06 160.05 C 164.46 158.85 163.88 157.64 163.34 156.42 C 163.71 153.48 164.05 150.35 165.96 147.94 C 165.17 151.76 165.20 155.73 166.82 159.34 C 168.64 156.06 170.17 152.56 172.67 149.71 C 175.65 146.26 179.47 143.66 183.36 141.34 M 205.59 160.44 C 205.77 162.35 205.87 164.27 205.97 166.20 C 207.10 166.10 208.23 166.19 209.31 166.58 C 209.44 162.39 210.18 158.25 210.85 154.12 C 209.46 156.51 207.67 158.63 205.59 160.44 M 214.18 171.27 C 213.78 172.65 214.27 173.18 215.67 172.86 C 216.07 171.47 215.57 170.95 214.18 171.27 Z" />
</g>
<g id="#56575cf8">
<path fill="#56575c" opacity="0.97" d=" M 242.42 140.77 C 242.97 144.49 243.95 148.97 242.05 152.37 C 241.90 148.50 241.97 144.62 242.42 140.77 Z" />
</g>
<g id="#4d555aff">
<path fill="#4d555a" opacity="1.00" d=" M 189.77 142.79 C 193.01 142.39 195.69 144.71 198.09 146.55 C 196.90 147.74 195.61 148.84 194.63 150.22 C 194.70 151.38 195.12 152.48 195.30 153.63 C 193.64 153.18 191.94 152.92 190.23 152.75 C 189.77 154.05 189.29 155.34 188.84 156.65 C 186.14 152.86 181.25 151.55 178.69 147.63 C 181.94 145.20 185.72 143.34 189.77 142.79 Z" />
</g>
<g id="#655c59ff">
<path fill="#655c59" opacity="1.00" d=" M 216.55 142.92 C 218.01 142.66 219.48 142.41 220.95 142.17 C 221.55 147.97 217.15 152.06 214.64 156.77 C 214.38 157.31 213.87 158.41 213.62 158.96 C 214.77 160.38 215.92 161.81 216.86 163.39 C 217.28 164.58 217.52 165.86 218.17 166.96 C 221.31 168.61 224.66 169.85 227.75 171.61 C 228.28 172.90 228.81 174.20 229.39 175.49 C 228.83 175.45 227.72 175.39 227.16 175.36 C 226.26 175.90 225.36 176.43 224.45 176.95 L 223.77 177.28 C 223.76 176.28 223.74 175.28 223.71 174.28 C 224.23 174.05 225.28 173.59 225.81 173.36 C 221.69 171.16 217.04 170.49 212.62 169.21 C 209.33 163.84 213.08 157.38 215.06 152.15 C 214.59 151.27 214.13 150.40 213.67 149.52 C 214.63 148.33 215.62 147.16 216.55 145.93 C 216.57 145.60 216.61 144.92 216.63 144.59 C 216.61 144.17 216.57 143.34 216.55 142.92 Z" />
</g>
<g id="#3f4344ff">
<path fill="#3f4344" opacity="1.00" d=" M 194.63 150.22 C 195.61 148.84 196.90 147.74 198.09 146.55 C 201.77 151.13 204.25 156.98 203.19 162.93 C 202.17 163.88 201.17 164.84 200.12 165.76 C 195.05 167.37 190.21 169.72 186.14 173.18 C 182.94 175.44 179.68 178.92 175.44 178.49 C 171.40 175.96 171.01 170.80 170.15 166.58 C 169.74 163.59 168.76 160.28 170.32 157.46 C 172.31 153.59 175.44 150.46 178.69 147.63 C 181.25 151.55 186.14 152.86 188.84 156.65 C 189.29 155.34 189.77 154.05 190.23 152.75 C 191.94 152.92 193.64 153.18 195.30 153.63 C 195.12 152.48 194.70 151.38 194.63 150.22 M 190.23 166.21 C 190.84 166.81 190.84 166.81 190.23 166.21 Z" />
</g>
<g id="#535254fe">
<path fill="#535254" opacity="1.00" d=" M 230.51 152.59 C 232.23 153.40 229.90 156.66 228.40 155.56 C 227.83 154.25 229.33 152.88 230.51 152.59 Z" />
</g>
<g id="#f7f1f2ff">
<path fill="#f7f1f2" opacity="1.00" d=" M 205.59 160.44 C 207.67 158.63 209.46 156.51 210.85 154.12 C 210.18 158.25 209.44 162.39 209.31 166.58 C 208.23 166.19 207.10 166.10 205.97 166.20 C 205.87 164.27 205.77 162.35 205.59 160.44 Z" />
<path fill="#f7f1f2" opacity="1.00" d=" M 230.16 202.06 C 231.70 201.60 233.27 201.23 234.89 201.14 C 234.47 202.32 234.07 203.52 233.69 204.72 C 232.65 204.62 231.62 204.53 230.59 204.44 C 230.48 203.85 230.26 202.65 230.16 202.06 Z" />
</g>
<g id="#be8b71ff">
<path fill="#be8b71" opacity="1.00" d=" M 213.62 158.96 C 213.87 158.41 214.38 157.31 214.64 156.77 C 215.89 158.06 217.14 159.36 218.38 160.69 C 218.83 161.41 219.28 162.15 219.72 162.89 C 219.01 163.02 217.58 163.26 216.86 163.39 C 215.92 161.81 214.77 160.38 213.62 158.96 Z" />
</g>
<g id="#8f7b74ff">
<path fill="#8f7b74" opacity="1.00" d=" M 218.38 160.69 C 219.59 161.06 220.81 161.39 222.04 161.72 C 222.42 163.00 222.80 164.29 223.20 165.57 C 224.35 166.20 225.51 166.83 226.69 167.44 C 227.90 168.12 229.06 168.89 230.20 169.70 C 230.84 170.03 231.49 170.36 232.16 170.67 C 232.09 169.96 231.94 168.55 231.86 167.84 C 232.57 169.56 233.21 171.30 233.96 173.00 C 234.62 173.67 235.28 174.34 235.93 175.02 C 235.09 175.75 234.25 176.47 233.42 177.20 C 232.52 175.45 231.70 173.67 230.76 171.94 C 229.78 171.69 228.75 171.69 227.75 171.61 C 224.66 169.85 221.31 168.61 218.17 166.96 C 217.52 165.86 217.28 164.58 216.86 163.39 C 217.58 163.26 219.01 163.02 219.72 162.89 C 219.28 162.15 218.83 161.41 218.38 160.69 Z" />
</g>
<g id="#5a595bfc">
<path fill="#5a595b" opacity="1.00" d=" M 223.38 162.48 C 226.37 161.54 229.15 163.30 230.73 165.83 C 230.28 165.86 229.38 165.90 228.93 165.93 C 229.33 167.19 229.75 168.44 230.20 169.70 C 229.06 168.89 227.90 168.12 226.69 167.44 C 226.97 167.09 227.54 166.39 227.82 166.04 C 226.32 164.88 224.85 163.67 223.38 162.48 Z" />
</g>
<g id="#716e6fff">
<path fill="#716e6f" opacity="1.00" d=" M 200.12 165.76 C 201.17 164.84 202.17 163.88 203.19 162.93 C 203.51 165.90 204.38 169.09 206.96 170.90 L 207.77 171.20 C 212.50 171.82 215.40 175.71 217.60 179.53 C 216.26 179.42 214.91 179.32 213.57 179.23 C 213.72 178.84 214.01 178.05 214.15 177.65 C 213.32 176.20 212.38 174.81 211.35 173.50 C 207.75 173.20 204.01 172.74 200.99 170.58 C 197.91 176.18 197.15 182.88 197.55 189.17 C 198.27 193.23 198.83 198.77 203.28 200.46 C 205.64 200.13 207.62 198.64 209.75 197.66 C 210.11 194.83 210.53 192.02 210.93 189.20 L 211.72 189.16 L 211.89 187.97 C 211.95 188.46 212.05 189.44 212.10 189.93 C 212.22 190.76 212.47 192.42 212.59 193.25 C 212.64 193.56 212.75 194.16 212.80 194.46 C 215.44 194.85 218.07 195.25 220.72 195.56 C 223.04 194.30 223.46 191.50 224.10 189.21 L 224.28 188.48 C 225.02 187.38 224.97 186.32 224.13 185.28 C 224.06 184.91 223.91 184.19 223.84 183.82 C 224.32 183.71 225.26 183.48 225.74 183.36 C 226.04 186.37 226.48 189.36 227.11 192.32 C 230.72 188.43 229.20 182.97 227.45 178.62 C 228.68 178.60 229.91 178.56 231.14 178.52 C 231.28 178.73 231.54 179.15 231.68 179.36 C 232.56 181.34 233.31 183.39 234.20 185.37 C 233.64 184.89 232.52 183.92 231.96 183.44 C 231.48 187.33 230.59 191.17 229.22 194.84 C 232.17 193.21 234.76 190.89 234.61 187.22 C 235.05 187.33 235.93 187.55 236.38 187.66 C 237.27 183.80 235.71 180.23 233.42 177.20 C 234.25 176.47 235.09 175.75 235.93 175.02 C 236.98 176.58 237.93 178.21 238.96 179.79 C 239.57 180.70 240.18 181.61 240.80 182.52 C 243.70 188.01 238.36 192.89 235.80 197.31 C 237.71 198.03 239.62 198.73 241.49 199.55 L 241.90 200.18 C 239.03 199.55 236.13 198.58 233.15 198.88 C 231.22 199.80 229.60 201.23 227.85 202.44 C 226.37 203.02 224.86 203.52 223.34 203.98 C 218.91 204.99 212.69 206.26 212.71 212.01 C 211.58 210.25 210.18 208.66 208.64 207.25 L 207.99 206.68 C 207.66 206.95 207.00 207.47 206.66 207.73 C 206.10 208.48 205.55 209.25 205.01 210.01 C 206.91 214.15 209.30 218.04 212.19 221.56 C 213.28 222.82 214.45 224.12 216.03 224.76 C 217.11 224.27 218.12 223.66 219.18 223.12 C 220.25 224.66 221.33 226.20 222.44 227.73 L 222.16 228.35 C 221.75 229.80 221.40 231.28 221.07 232.76 C 218.60 231.95 216.12 231.06 213.99 229.54 C 212.26 228.40 210.56 227.06 209.92 225.01 C 208.29 220.71 205.75 216.88 203.28 213.03 C 202.35 210.70 201.82 208.24 201.15 205.83 C 198.72 203.60 195.16 202.50 193.73 199.32 C 191.17 194.66 189.47 189.61 187.76 184.59 C 188.83 185.03 189.82 185.68 190.91 186.09 C 192.71 186.48 193.26 183.11 191.74 182.39 C 191.02 183.20 190.70 184.20 190.76 185.41 C 189.61 180.77 192.15 176.49 193.78 172.33 C 196.69 171.15 199.70 169.14 200.12 165.76 M 225.25 191.24 C 225.81 191.79 225.81 191.79 225.25 191.24 Z" />
</g>
<g id="#121112b2">
<path fill="#121112" opacity="0.70" d=" M 231.49 166.92 C 232.63 165.69 234.12 164.91 235.47 163.93 C 235.56 166.26 235.66 168.60 235.85 170.93 C 234.16 170.66 233.53 171.35 233.96 173.00 C 233.21 171.30 232.57 169.56 231.86 167.84 L 231.49 166.92 Z" />
</g>
<g id="#f9f7f2ff">
<path fill="#f9f7f2" opacity="1.00" d=" M 190.23 166.21 C 190.84 166.81 190.84 166.81 190.23 166.21 Z" />
</g>
<g id="#fdf9f7ff">
<path fill="#fdf9f7" opacity="1.00" d=" M 228.93 165.93 C 229.38 165.90 230.28 165.86 230.73 165.83 C 230.92 166.10 231.30 166.65 231.49 166.92 L 231.86 167.84 C 231.94 168.55 232.09 169.96 232.16 170.67 C 231.49 170.36 230.84 170.03 230.20 169.70 C 229.75 168.44 229.33 167.19 228.93 165.93 Z" />
<path fill="#fdf9f7" opacity="1.00" d=" M 214.18 171.27 C 215.57 170.95 216.07 171.47 215.67 172.86 C 214.27 173.18 213.78 172.65 214.18 171.27 Z" />
<path fill="#fdf9f7" opacity="1.00" d=" M 212.71 212.01 C 212.69 206.26 218.91 204.99 223.34 203.98 C 224.90 208.96 226.01 214.09 227.93 218.95 C 226.89 222.32 224.76 225.14 222.44 227.73 C 221.33 226.20 220.25 224.66 219.18 223.12 C 216.59 219.68 214.74 215.79 212.71 212.01 Z" />
</g>
<g id="#ffffffff">
<path fill="#ffffff" opacity="1.00" d=" M 207.30 169.11 C 209.12 167.56 209.83 171.12 207.77 171.20 L 206.96 170.90 C 207.05 170.46 207.22 169.56 207.30 169.11 Z" />
</g>
<g id="#918f91ff">
<path fill="#918f91" opacity="1.00" d=" M 200.99 170.58 C 204.01 172.74 207.75 173.20 211.35 173.50 C 212.38 174.81 213.32 176.20 214.15 177.65 C 214.01 178.05 213.72 178.84 213.57 179.23 C 213.25 180.09 212.91 180.95 212.57 181.80 C 212.30 182.42 211.77 183.66 211.51 184.28 C 211.21 184.54 210.63 185.07 210.33 185.33 C 210.10 183.44 209.85 181.55 209.59 179.67 C 208.08 180.32 205.65 180.29 205.21 182.25 C 205.03 184.80 205.15 187.39 204.53 189.90 C 206.39 189.64 208.25 189.40 210.13 189.24 L 210.93 189.20 C 210.53 192.02 210.11 194.83 209.75 197.66 C 207.62 198.64 205.64 200.13 203.28 200.46 C 198.83 198.77 198.27 193.23 197.55 189.17 C 197.15 182.88 197.91 176.18 200.99 170.58 M 202.08 177.46 C 202.98 177.95 203.87 178.45 204.77 178.95 C 205.87 177.81 206.98 176.69 208.10 175.58 C 205.99 175.65 202.74 174.64 202.08 177.46 M 201.10 189.23 C 199.50 192.18 204.42 189.44 201.10 189.23 M 201.02 193.29 C 199.47 196.28 204.35 193.45 201.02 193.29 M 203.46 196.24 C 202.67 197.41 204.65 198.77 205.56 197.79 C 206.35 196.61 204.37 195.25 203.46 196.24 Z" />
</g>
<g id="#b8b7b9ff">
<path fill="#b8b7b9" opacity="1.00" d=" M 227.75 171.61 C 228.75 171.69 229.78 171.69 230.76 171.94 C 231.70 173.67 232.52 175.45 233.42 177.20 C 235.71 180.23 237.27 183.80 236.38 187.66 C 235.93 187.55 235.05 187.33 234.61 187.22 L 234.64 186.31 C 234.89 183.67 234.80 180.14 231.68 179.36 C 231.54 179.15 231.28 178.73 231.14 178.52 C 230.53 177.52 229.92 176.52 229.39 175.49 C 228.81 174.20 228.28 172.90 227.75 171.61 Z" />
<path fill="#b8b7b9" opacity="1.00" d=" M 205.21 182.25 C 205.65 180.29 208.08 180.32 209.59 179.67 C 209.85 181.55 210.10 183.44 210.33 185.33 C 209.61 185.90 208.88 186.47 208.15 187.03 C 208.79 187.77 209.45 188.51 210.13 189.24 C 208.25 189.40 206.39 189.64 204.53 189.90 C 205.15 187.39 205.03 184.80 205.21 182.25 Z" />
</g>
<g id="#0808094f">
<path fill="#080809" opacity="0.31" d=" M 233.96 173.00 C 233.53 171.35 234.16 170.66 235.85 170.93 C 236.11 172.53 235.48 173.22 233.96 173.00 Z" />
</g>
<g id="#e09d7cff">
<path fill="#e09d7c" opacity="1.00" d=" M 187.39 182.15 C 188.18 178.29 188.80 172.64 193.78 172.33 C 192.15 176.49 189.61 180.77 190.76 185.41 L 190.91 186.09 C 189.82 185.68 188.83 185.03 187.76 184.59 C 189.47 189.61 191.17 194.66 193.73 199.32 C 195.16 202.50 198.72 203.60 201.15 205.83 C 199.84 206.31 198.53 206.80 197.24 207.30 C 194.84 207.21 192.46 207.00 190.08 206.78 C 188.05 206.13 185.22 205.75 184.75 203.24 C 184.16 199.63 186.16 196.23 187.16 192.86 C 184.01 191.85 181.01 190.45 178.09 188.93 C 176.56 186.60 175.32 184.09 173.71 181.82 C 178.46 182.03 182.72 179.69 186.64 177.28 C 186.89 178.90 187.14 180.52 187.39 182.15 Z" />
</g>
<g id="#b2aeb1ff">
<path fill="#b2aeb1" opacity="1.00" d=" M 218.22 174.05 C 221.98 175.86 223.07 180.07 223.84 183.82 C 223.91 184.19 224.06 184.91 224.13 185.28 C 223.13 186.39 223.18 187.46 224.28 188.48 L 224.10 189.21 C 222.88 189.09 221.67 188.99 220.46 188.93 C 219.64 185.07 215.80 183.32 212.57 181.80 C 212.91 180.95 213.25 180.09 213.57 179.23 C 214.76 180.12 216.28 182.52 217.92 181.02 C 220.46 179.37 218.64 176.29 218.22 174.05 Z" />
<path fill="#b2aeb1" opacity="1.00" d=" M 103.77 214.32 C 103.77 211.28 104.30 208.24 105.77 205.55 L 106.68 206.05 C 106.85 209.12 106.29 212.28 103.77 214.32 Z" />
</g>
<g id="#ebe5eaff">
<path fill="#ebe5ea" opacity="1.00" d=" M 202.08 177.46 C 202.74 174.64 205.99 175.65 208.10 175.58 C 206.98 176.69 205.87 177.81 204.77 178.95 C 203.87 178.45 202.98 177.95 202.08 177.46 Z" />
<path fill="#ebe5ea" opacity="1.00" d=" M 212.57 181.80 C 215.80 183.32 219.64 185.07 220.46 188.93 L 219.37 189.00 C 216.93 189.20 214.51 189.54 212.10 189.93 C 212.05 189.44 211.95 188.46 211.89 187.97 L 211.72 189.16 L 210.93 189.20 L 210.13 189.24 C 209.45 188.51 208.79 187.77 208.15 187.03 C 208.88 186.47 209.61 185.90 210.33 185.33 C 210.63 185.07 211.21 184.54 211.51 184.28 C 211.77 183.66 212.30 182.42 212.57 181.80 Z" />
<path fill="#ebe5ea" opacity="1.00" d=" M 151.33 226.14 C 153.49 225.26 156.18 224.30 157.32 227.11 C 155.32 226.82 153.32 226.53 151.33 226.14 Z" />
</g>
<g id="#e1e0d7ff">
<path fill="#e1e0d7" opacity="1.00" d=" M 223.77 177.28 L 224.45 176.95 C 224.64 177.39 225.03 178.27 225.23 178.71 C 224.59 180.83 223.13 178.36 223.77 177.28 Z" />
</g>
<g id="#f2b18ffe">
<path fill="#f2b18f" opacity="1.00" d=" M 254.23 182.12 C 255.98 179.07 259.61 178.05 262.26 175.97 C 262.49 177.57 262.59 179.20 262.93 180.79 C 264.00 182.63 265.61 184.13 266.43 186.11 C 266.07 187.39 265.60 188.63 265.11 189.86 C 264.58 188.72 264.09 187.57 263.43 186.51 C 260.51 184.72 256.75 184.63 254.23 182.12 Z" />
</g>
<g id="#452b1eff">
<path fill="#452b1e" opacity="1.00" d=" M 163.56 182.86 C 166.42 181.69 169.27 180.52 172.10 179.29 C 172.37 180.12 172.62 180.97 172.86 181.81 C 173.10 184.40 173.09 187.01 173.27 189.60 C 173.54 191.51 173.91 193.41 174.26 195.31 C 174.55 197.04 174.80 198.77 175.11 200.50 C 175.43 202.17 175.83 203.83 176.26 205.48 C 176.74 207.21 177.29 208.92 178.00 210.57 C 178.85 212.34 179.98 213.94 181.25 215.43 C 183.51 217.13 185.94 218.59 188.34 220.10 C 187.86 220.32 186.91 220.77 186.44 221.00 C 183.34 218.85 179.69 217.75 176.40 215.95 C 176.11 215.79 175.53 215.45 175.24 215.28 C 177.72 212.90 175.61 209.98 174.62 207.45 C 172.84 207.48 171.07 207.51 169.30 207.55 C 168.57 206.67 167.84 205.80 167.14 204.91 C 166.94 204.31 166.55 203.11 166.36 202.51 C 165.94 201.26 165.50 200.02 164.98 198.82 C 163.85 196.72 162.93 194.50 162.55 192.13 C 163.38 190.15 163.38 187.98 162.79 185.94 C 163.06 184.91 163.32 183.89 163.56 182.86 Z" />
</g>
<g id="#e8e4d9ff">
<path fill="#e8e4d9" opacity="1.00" d=" M 231.68 179.36 C 234.80 180.14 234.89 183.67 234.64 186.31 L 234.20 185.37 C 233.31 183.39 232.56 181.34 231.68 179.36 Z" />
</g>
<g id="#635854ff">
<path fill="#635854" opacity="1.00" d=" M 172.86 181.81 L 173.71 181.82 C 175.32 184.09 176.56 186.60 178.09 188.93 C 178.71 189.81 179.38 190.68 180.08 191.51 C 179.82 192.49 179.58 193.48 179.32 194.46 C 178.26 194.74 177.20 195.00 176.14 195.27 C 176.44 196.04 176.75 196.82 177.06 197.60 C 177.51 197.30 178.42 196.70 178.88 196.40 C 179.53 200.63 180.62 204.78 182.15 208.78 C 183.53 208.33 184.96 208.07 186.37 207.75 C 187.60 207.41 188.84 207.08 190.08 206.78 C 192.46 207.00 194.84 207.21 197.24 207.30 C 195.98 207.87 194.75 208.49 193.52 209.10 C 193.39 210.35 193.25 211.61 193.13 212.87 C 192.77 213.08 192.05 213.51 191.69 213.72 C 190.86 214.26 190.05 214.83 189.24 215.39 C 190.22 215.91 191.19 216.44 192.15 216.99 C 190.54 219.12 188.94 221.37 188.58 224.09 L 188.36 224.91 C 187.72 226.00 187.05 227.07 186.42 228.17 C 186.54 226.08 186.74 224.00 186.71 221.90 L 186.44 221.00 C 186.91 220.77 187.86 220.32 188.34 220.10 C 185.94 218.59 183.51 217.13 181.25 215.43 C 181.59 214.36 183.21 213.08 181.84 212.14 C 180.66 211.40 179.29 211.04 178.00 210.57 C 177.29 208.92 176.74 207.21 176.26 205.48 C 176.90 204.11 177.57 202.76 178.19 201.39 C 177.42 201.16 175.88 200.72 175.11 200.50 C 174.80 198.77 174.55 197.04 174.26 195.31 C 176.30 193.81 175.89 191.51 175.23 189.42 C 174.74 189.47 173.76 189.56 173.27 189.60 C 173.09 187.01 173.10 184.40 172.86 181.81 Z" />
</g>
<g id="#faf6f0ff">
<path fill="#faf6f0" opacity="1.00" d=" M 190.76 185.41 C 190.70 184.20 191.02 183.20 191.74 182.39 C 193.26 183.11 192.71 186.48 190.91 186.09 L 190.76 185.41 Z" />
</g>
<g id="#c7bcb7ff">
<path fill="#c7bcb7" opacity="1.00" d=" M 249.36 195.80 C 253.17 192.23 253.18 186.85 254.23 182.12 C 256.75 184.63 260.51 184.72 263.43 186.51 C 264.09 187.57 264.58 188.72 265.11 189.86 C 264.17 191.60 263.12 193.27 262.11 194.97 C 261.72 195.42 260.95 196.33 260.56 196.78 C 259.84 197.89 259.11 199.00 258.48 200.17 C 254.98 199.82 251.25 199.17 249.36 195.80 Z" />
</g>
<g id="#534e4dff">
<path fill="#534e4d" opacity="1.00" d=" M 229.22 194.84 C 230.59 191.17 231.48 187.33 231.96 183.44 C 232.52 183.92 233.64 184.89 234.20 185.37 L 234.64 186.31 L 234.61 187.22 C 234.76 190.89 232.17 193.21 229.22 194.84 Z" />
</g>
<g id="#3b3836a2">
<path fill="#3b3836" opacity="0.64" d=" M 162.55 192.13 C 161.50 190.15 161.31 187.76 162.79 185.94 C 163.38 187.98 163.38 190.15 162.55 192.13 Z" />
</g>
<g id="#f4eee7ff">
<path fill="#f4eee7" opacity="1.00" d=" M 224.28 188.48 C 223.18 187.46 223.13 186.39 224.13 185.28 C 224.97 186.32 225.02 187.38 224.28 188.48 Z" />
</g>
<g id="#9c8e88ff">
<path fill="#9c8e88" opacity="1.00" d=" M 173.27 189.60 C 173.76 189.56 174.74 189.47 175.23 189.42 C 175.89 191.51 176.30 193.81 174.26 195.31 C 173.91 193.41 173.54 191.51 173.27 189.60 Z" />
</g>
<g id="#ae6f53ff">
<path fill="#ae6f53" opacity="1.00" d=" M 178.09 188.93 C 181.01 190.45 184.01 191.85 187.16 192.86 C 186.16 196.23 184.16 199.63 184.75 203.24 C 185.22 205.75 188.05 206.13 190.08 206.78 C 188.84 207.08 187.60 207.41 186.37 207.75 C 182.91 204.74 182.68 200.21 182.90 195.95 C 183.29 193.87 181.16 192.90 180.08 191.51 C 179.38 190.68 178.71 189.81 178.09 188.93 Z" />
</g>
<g id="#fefefeff">
<path fill="#fefefe" opacity="1.00" d=" M 201.10 189.23 C 204.42 189.44 199.50 192.18 201.10 189.23 Z" />
<path fill="#fefefe" opacity="1.00" d=" M 231.26 219.95 C 231.70 219.81 232.57 219.53 233.01 219.40 C 233.53 221.33 234.08 223.26 234.62 225.20 C 232.19 229.36 229.85 233.89 225.95 236.87 C 221.35 238.21 216.37 237.33 211.66 238.21 C 211.22 237.91 210.34 237.31 209.90 237.01 C 208.54 235.08 207.29 233.09 206.02 231.10 C 210.93 232.29 216.00 234.45 221.07 232.76 C 221.40 231.28 221.75 229.80 222.16 228.35 C 223.45 228.58 224.74 228.82 226.03 229.07 C 228.34 226.40 230.59 223.51 231.26 219.95 Z" />
</g>
<g id="#b1acb2ff">
<path fill="#b1acb2" opacity="1.00" d=" M 212.10 189.93 C 214.51 189.54 216.93 189.20 219.37 189.00 C 217.39 190.82 215.12 192.31 212.59 193.25 C 212.47 192.42 212.22 190.76 212.10 189.93 Z" />
</g>
<g id="#8c878bff">
<path fill="#8c878b" opacity="1.00" d=" M 219.37 189.00 L 220.46 188.93 C 221.67 188.99 222.88 189.09 224.10 189.21 C 223.46 191.50 223.04 194.30 220.72 195.56 C 218.07 195.25 215.44 194.85 212.80 194.46 C 212.75 194.16 212.64 193.56 212.59 193.25 C 215.12 192.31 217.39 190.82 219.37 189.00 Z" />
</g>
<g id="#f9ede3ff">
<path fill="#f9ede3" opacity="1.00" d=" M 225.25 191.24 C 225.81 191.79 225.81 191.79 225.25 191.24 Z" />
</g>
<g id="#4c3732ff">
<path fill="#4c3732" opacity="1.00" d=" M 179.32 194.46 C 179.58 193.48 179.82 192.49 180.08 191.51 C 181.16 192.90 183.29 193.87 182.90 195.95 C 182.68 200.21 182.91 204.74 186.37 207.75 C 184.96 208.07 183.53 208.33 182.15 208.78 C 180.62 204.78 179.53 200.63 178.88 196.40 C 178.42 196.70 177.51 197.30 177.06 197.60 C 176.75 196.82 176.44 196.04 176.14 195.27 C 177.20 195.00 178.26 194.74 179.32 194.46 Z" />
</g>
<g id="#f7f1ecff">
<path fill="#f7f1ec" opacity="1.00" d=" M 201.02 193.29 C 204.35 193.45 199.47 196.28 201.02 193.29 Z" />
</g>
<g id="#3d39377e">
<path fill="#3d3937" opacity="0.49" d=" M 260.56 196.78 C 260.95 196.33 261.72 195.42 262.11 194.97 C 261.72 195.42 260.95 196.33 260.56 196.78 Z" />
</g>
<g id="#cec7c4ff">
<path fill="#cec7c4" opacity="1.00" d=" M 203.46 196.24 C 204.37 195.25 206.35 196.61 205.56 197.79 C 204.65 198.77 202.67 197.41 203.46 196.24 Z" />
</g>
<g id="#847973ff">
<path fill="#847973" opacity="1.00" d=" M 246.51 199.54 C 247.42 198.27 248.34 196.99 249.36 195.80 C 251.25 199.17 254.98 199.82 258.48 200.17 C 257.70 201.79 256.95 203.42 256.19 205.05 C 255.84 205.52 255.13 206.47 254.77 206.94 C 254.07 207.58 253.38 208.23 252.70 208.89 C 253.58 206.40 253.87 203.75 253.62 201.13 C 253.29 201.00 252.63 200.74 252.31 200.61 C 250.30 200.45 248.29 200.47 246.30 200.69 L 245.47 200.81 C 245.73 200.49 246.25 199.86 246.51 199.54 Z" />
</g>
<g id="#837873ff">
<path fill="#837873" opacity="1.00" d=" M 147.73 200.76 C 153.46 199.90 159.23 199.48 164.98 198.82 C 165.50 200.02 165.94 201.26 166.36 202.51 C 165.68 202.82 164.31 203.43 163.63 203.74 C 161.34 210.26 162.92 217.04 164.73 223.44 C 165.77 223.55 166.82 223.62 167.87 223.65 C 168.20 223.66 168.87 223.69 169.20 223.70 C 168.89 224.39 168.28 225.76 167.98 226.44 C 164.46 227.08 160.89 227.78 157.32 227.11 C 156.18 224.30 153.49 225.26 151.33 226.14 C 145.73 225.26 140.59 222.66 135.02 221.65 C 129.41 220.69 123.62 220.35 117.99 221.41 C 118.01 220.44 118.03 219.47 118.06 218.51 C 118.29 218.24 118.75 217.71 118.99 217.44 C 118.67 213.42 118.63 209.36 119.92 205.48 C 119.42 205.52 118.43 205.60 117.94 205.64 C 117.94 205.04 117.94 203.85 117.94 203.26 C 120.66 202.91 123.39 202.69 126.13 202.56 C 125.42 203.58 124.69 204.60 123.94 205.58 C 122.86 206.96 121.69 208.27 120.75 209.74 C 120.02 211.49 120.67 213.43 120.89 215.23 C 121.30 216.18 121.73 217.14 122.16 218.09 C 124.26 217.88 126.37 217.77 128.48 217.79 C 128.97 216.46 129.47 215.13 129.96 213.80 C 131.04 214.86 132.11 215.93 133.24 216.94 C 136.31 218.46 139.77 218.65 143.11 219.05 C 143.79 217.98 144.49 216.93 145.16 215.85 C 145.10 217.57 145.07 219.30 145.02 221.03 C 141.00 220.01 136.94 219.08 132.78 218.93 C 135.09 219.81 137.48 220.47 139.92 220.90 C 144.46 221.63 148.58 223.97 153.22 224.23 C 151.44 223.15 149.60 222.16 147.79 221.14 C 151.71 222.01 155.69 222.54 159.69 222.87 C 160.11 215.34 161.72 207.43 159.07 200.15 C 157.11 200.41 155.15 200.68 153.17 200.77 C 151.35 200.79 149.54 200.74 147.73 200.76 Z" />
</g>
<g id="#918c92ff">
<path fill="#918c92" opacity="1.00" d=" M 227.85 202.44 C 229.60 201.23 231.22 199.80 233.15 198.88 C 236.13 198.58 239.03 199.55 241.90 200.18 C 242.13 200.74 242.60 201.86 242.84 202.42 C 243.71 201.87 244.59 201.34 245.47 200.81 L 246.30 200.69 C 247.32 203.67 248.91 206.42 251.27 208.55 C 251.85 205.94 252.36 203.30 252.31 200.61 C 252.63 200.74 253.29 201.00 253.62 201.13 C 253.87 203.75 253.58 206.40 252.70 208.89 C 251.28 212.22 252.12 215.91 251.38 219.36 C 250.40 220.96 249.04 222.26 247.82 223.66 C 247.70 223.05 247.45 221.82 247.33 221.21 C 247.65 218.68 247.68 216.08 246.68 213.69 C 243.89 210.34 239.73 208.54 235.62 207.38 C 233.20 206.47 231.85 209.29 230.31 210.61 C 229.68 207.83 228.85 205.11 227.85 202.44 M 230.16 202.06 C 230.26 202.65 230.48 203.85 230.59 204.44 C 231.62 204.53 232.65 204.62 233.69 204.72 C 234.07 203.52 234.47 202.32 234.89 201.14 C 233.27 201.23 231.70 201.60 230.16 202.06 M 238.52 204.32 C 240.98 206.32 241.46 202.76 241.30 201.00 C 239.84 201.46 236.15 202.36 238.52 204.32 M 244.11 207.29 C 243.59 208.92 244.15 209.46 245.78 208.94 C 246.30 207.31 245.74 206.76 244.11 207.29 Z" />
</g>
<g id="#cec3beff">
<path fill="#cec3be" opacity="1.00" d=" M 153.17 200.77 C 155.15 200.68 157.11 200.41 159.07 200.15 C 161.72 207.43 160.11 215.34 159.69 222.87 C 155.69 222.54 151.71 222.01 147.79 221.14 C 144.78 215.40 147.13 208.74 150.03 203.49 C 151.16 203.30 152.29 203.14 153.42 202.99 C 153.36 202.43 153.23 201.33 153.17 200.77 Z" />
</g>
<g id="#dacec8ff">
<path fill="#dacec8" opacity="1.00" d=" M 246.30 200.69 C 248.29 200.47 250.30 200.45 252.31 200.61 C 252.36 203.30 251.85 205.94 251.27 208.55 C 248.91 206.42 247.32 203.67 246.30 200.69 Z" />
</g>
<g id="#9c8c89ff">
<path fill="#9c8c89" opacity="1.00" d=" M 126.13 202.56 C 133.36 202.43 140.55 201.57 147.73 200.76 C 149.54 200.74 151.35 200.79 153.17 200.77 C 153.23 201.33 153.36 202.43 153.42 202.99 C 152.29 203.14 151.16 203.30 150.03 203.49 C 149.00 203.66 147.98 203.88 146.96 204.07 C 144.43 204.54 141.86 204.73 139.29 204.90 C 136.33 204.15 133.28 203.82 130.22 203.76 C 130.45 205.35 130.69 206.93 130.92 208.52 C 131.45 208.43 132.51 208.24 133.04 208.14 C 133.26 211.07 133.33 214.01 133.24 216.94 C 132.11 215.93 131.04 214.86 129.96 213.80 C 129.47 215.13 128.97 216.46 128.48 217.79 C 126.37 217.77 124.26 217.88 122.16 218.09 C 121.73 217.14 121.30 216.18 120.89 215.23 C 123.20 215.75 125.56 215.72 127.90 215.63 C 128.82 212.47 129.56 209.25 129.91 205.97 C 127.91 205.90 125.92 205.77 123.94 205.58 C 124.69 204.60 125.42 203.58 126.13 202.56 Z" />
</g>
<g id="#9d908bff">
<path fill="#9d908b" opacity="1.00" d=" M 175.11 200.50 C 175.88 200.72 177.42 201.16 178.19 201.39 C 177.57 202.76 176.90 204.11 176.26 205.48 C 175.83 203.83 175.43 202.17 175.11 200.50 Z" />
</g>
<g id="#c2bcc1ff">
<path fill="#c2bcc1" opacity="1.00" d=" M 238.52 204.32 C 236.15 202.36 239.84 201.46 241.30 201.00 C 241.46 202.76 240.98 206.32 238.52 204.32 Z" />
</g>
<g id="#2f2824d6">
<path fill="#2f2824" opacity="0.84" d=" M 105.77 205.55 C 109.69 204.17 114.01 204.73 117.94 203.26 C 117.94 203.85 117.94 205.04 117.94 205.64 L 117.05 205.70 C 113.60 205.87 110.14 206.15 106.68 206.05 L 105.77 205.55 Z" />
</g>
<g id="#433f40ff">
<path fill="#433f40" opacity="1.00" d=" M 146.96 204.07 C 147.98 203.88 149.00 203.66 150.03 203.49 C 147.13 208.74 144.78 215.40 147.79 221.14 C 149.60 222.16 151.44 223.15 153.22 224.23 C 148.58 223.97 144.46 221.63 139.92 220.90 C 137.48 220.47 135.09 219.81 132.78 218.93 C 136.94 219.08 141.00 220.01 145.02 221.03 C 145.07 219.30 145.10 217.57 145.16 215.85 C 145.32 211.87 145.82 207.90 146.96 204.07 Z" />
<path fill="#433f40" opacity="1.00" d=" M 244.15 213.44 C 244.78 213.50 246.05 213.63 246.68 213.69 C 247.68 216.08 247.65 218.68 247.33 221.21 C 247.19 220.88 246.93 220.24 246.80 219.92 C 245.98 219.95 245.16 219.99 244.35 220.04 L 243.31 220.06 L 243.43 219.25 C 243.70 217.32 243.94 215.38 244.15 213.44 Z" />
</g>
<g id="#cbc1baff">
<path fill="#cbc1ba" opacity="1.00" d=" M 163.63 203.74 C 164.31 203.43 165.68 202.82 166.36 202.51 C 166.55 203.11 166.94 204.31 167.14 204.91 C 167.56 210.61 168.83 216.23 169.04 221.95 C 168.75 222.38 168.16 223.23 167.87 223.65 C 166.82 223.62 165.77 223.55 164.73 223.44 C 162.92 217.04 161.34 210.26 163.63 203.74 Z" />
</g>
<g id="#dbd0cdff">
<path fill="#dbd0cd" opacity="1.00" d=" M 223.34 203.98 C 224.86 203.52 226.37 203.02 227.85 202.44 C 228.85 205.11 229.68 207.83 230.31 210.61 C 230.59 212.86 231.76 214.78 233.18 216.49 C 233.68 217.74 234.19 218.99 234.64 220.26 C 234.71 221.91 234.67 223.55 234.62 225.20 C 234.08 223.26 233.53 221.33 233.01 219.40 C 232.57 219.53 231.70 219.81 231.26 219.95 C 231.17 219.20 231.00 217.69 230.92 216.94 C 229.92 217.61 228.92 218.28 227.93 218.95 C 226.01 214.09 224.90 208.96 223.34 203.98 Z" />
</g>
<g id="#7c7370ff">
<path fill="#7c7370" opacity="1.00" d=" M 130.22 203.76 C 133.28 203.82 136.33 204.15 139.29 204.90 C 137.74 205.13 136.19 205.40 134.63 205.64 C 134.10 206.47 133.57 207.31 133.04 208.14 C 132.51 208.24 131.45 208.43 130.92 208.52 C 130.69 206.93 130.45 205.35 130.22 203.76 Z" />
</g>
<g id="#d2c8c3ff">
<path fill="#d2c8c3" opacity="1.00" d=" M 139.29 204.90 C 141.86 204.73 144.43 204.54 146.96 204.07 C 145.82 207.90 145.32 211.87 145.16 215.85 C 144.49 216.93 143.79 217.98 143.11 219.05 C 139.77 218.65 136.31 218.46 133.24 216.94 C 133.33 214.01 133.26 211.07 133.04 208.14 C 133.57 207.31 134.10 206.47 134.63 205.64 C 136.19 205.40 137.74 205.13 139.29 204.90 Z" />
</g>
<g id="#c7bcb3ff">
<path fill="#c7bcb3" opacity="1.00" d=" M 117.94 205.64 C 118.43 205.60 119.42 205.52 119.92 205.48 C 118.63 209.36 118.67 213.42 118.99 217.44 C 118.75 217.71 118.29 218.24 118.06 218.51 C 117.27 216.75 116.41 215.03 115.69 213.25 C 115.78 211.50 115.96 209.75 116.26 208.03 C 116.46 207.45 116.85 206.28 117.05 205.70 L 117.94 205.64 Z" />
</g>
<g id="#d3c9c3ff">
<path fill="#d3c9c3" opacity="1.00" d=" M 123.94 205.58 C 125.92 205.77 127.91 205.90 129.91 205.97 C 129.56 209.25 128.82 212.47 127.90 215.63 C 125.56 215.72 123.20 215.75 120.89 215.23 C 120.67 213.43 120.02 211.49 120.75 209.74 C 121.69 208.27 122.86 206.96 123.94 205.58 Z" />
</g>
<g id="#958b87ff">
<path fill="#958b87" opacity="1.00" d=" M 167.14 204.91 C 167.84 205.80 168.57 206.67 169.30 207.55 C 171.07 207.51 172.84 207.48 174.62 207.45 C 175.61 209.98 177.72 212.90 175.24 215.28 C 173.57 214.22 171.94 213.11 170.25 212.10 C 170.45 214.00 170.69 215.89 170.92 217.79 C 170.36 219.20 169.74 220.60 169.04 221.95 C 168.83 216.23 167.56 210.61 167.14 204.91 Z" />
</g>
<g id="#231f1d83">
<path fill="#231f1d" opacity="0.51" d=" M 254.77 206.94 C 255.13 206.47 255.84 205.52 256.19 205.05 C 255.84 205.52 255.13 206.47 254.77 206.94 Z" />
</g>
<g id="#584138ff">
<path fill="#584138" opacity="1.00" d=" M 106.68 206.05 C 110.14 206.15 113.60 205.87 117.05 205.70 C 116.85 206.28 116.46 207.45 116.26 208.03 C 113.55 207.71 110.82 207.83 108.10 207.99 C 108.01 209.73 107.88 211.46 107.71 213.20 C 110.37 213.27 113.03 213.29 115.69 213.25 C 116.41 215.03 117.27 216.75 118.06 218.51 C 118.03 219.47 118.01 220.44 117.99 221.41 C 115.24 221.75 112.34 222.16 109.64 221.29 C 106.79 220.13 105.11 217.41 103.37 215.04 L 103.77 214.32 C 106.29 212.28 106.85 209.12 106.68 206.05 Z" />
</g>
<g id="#79777dff">
<path fill="#79777d" opacity="1.00" d=" M 197.24 207.30 C 198.53 206.80 199.84 206.31 201.15 205.83 C 201.82 208.24 202.35 210.70 203.28 213.03 C 201.86 213.25 200.44 213.45 199.02 213.55 C 197.05 213.35 195.09 213.04 193.13 212.87 C 193.25 211.61 193.39 210.35 193.52 209.10 C 194.75 208.49 195.98 207.87 197.24 207.30 Z" />
</g>
<g id="#696367ff">
<path fill="#696367" opacity="1.00" d=" M 230.31 210.61 C 231.85 209.29 233.20 206.47 235.62 207.38 C 239.73 208.54 243.89 210.34 246.68 213.69 C 246.05 213.63 244.78 213.50 244.15 213.44 C 243.94 215.38 243.70 217.32 243.43 219.25 C 243.33 217.55 243.35 215.84 243.02 214.17 C 242.33 211.99 239.89 211.49 237.98 210.96 C 237.53 210.99 236.62 211.07 236.17 211.11 C 235.92 214.19 235.96 217.39 234.64 220.26 C 234.19 218.99 233.68 217.74 233.18 216.49 C 233.34 215.16 233.57 213.83 233.64 212.49 C 232.66 211.67 231.55 211.04 230.31 210.61 Z" />
</g>
<g id="#fffffeff">
<path fill="#fffffe" opacity="1.00" d=" M 206.66 207.73 C 207.00 207.47 207.66 206.95 207.99 206.68 L 208.64 207.25 L 208.79 208.12 C 207.88 208.97 207.17 208.84 206.66 207.73 Z" />
</g>
<g id="#9a979aff">
<path fill="#9a979a" opacity="1.00" d=" M 208.64 207.25 C 210.18 208.66 211.58 210.25 212.71 212.01 C 214.74 215.79 216.59 219.68 219.18 223.12 C 218.12 223.66 217.11 224.27 216.03 224.76 C 214.45 224.12 213.28 222.82 212.19 221.56 C 213.15 220.95 213.49 219.92 213.00 218.87 C 211.75 215.22 209.16 212.07 208.79 208.12 L 208.64 207.25 Z" />
</g>
<g id="#cdc7cdff">
<path fill="#cdc7cd" opacity="1.00" d=" M 244.11 207.29 C 245.74 206.76 246.30 207.31 245.78 208.94 C 244.15 209.46 243.59 208.92 244.11 207.29 Z" />
</g>
<g id="#a2837dff">
<path fill="#a2837d" opacity="1.00" d=" M 108.10 207.99 C 110.82 207.83 113.55 207.71 116.26 208.03 C 115.96 209.75 115.78 211.50 115.69 213.25 C 113.03 213.29 110.37 213.27 107.71 213.20 C 107.88 211.46 108.01 209.73 108.10 207.99 Z" />
</g>
<g id="#d5cfd2ff">
<path fill="#d5cfd2" opacity="1.00" d=" M 205.01 210.01 C 205.55 209.25 206.10 208.48 206.66 207.73 C 207.17 208.84 207.88 208.97 208.79 208.12 C 209.16 212.07 211.75 215.22 213.00 218.87 C 213.49 219.92 213.15 220.95 212.19 221.56 C 209.30 218.04 206.91 214.15 205.01 210.01 Z" />
</g>
<g id="#8f847fff">
<path fill="#8f847f" opacity="1.00" d=" M 178.00 210.57 C 179.29 211.04 180.66 211.40 181.84 212.14 C 183.21 213.08 181.59 214.36 181.25 215.43 C 179.98 213.94 178.85 212.34 178.00 210.57 Z" />
</g>
<g id="#b4a9a1ff">
<path fill="#b4a9a1" opacity="1.00" d=" M 230.31 210.61 C 231.55 211.04 232.66 211.67 233.64 212.49 C 233.57 213.83 233.34 215.16 233.18 216.49 C 231.76 214.78 230.59 212.86 230.31 210.61 Z" />
</g>
<g id="#98939afe">
<path fill="#98939a" opacity="1.00" d=" M 236.17 211.11 C 236.62 211.07 237.53 210.99 237.98 210.96 C 238.02 213.65 238.06 216.35 238.09 219.05 C 239.86 219.12 241.64 219.19 243.43 219.25 L 243.31 220.06 C 241.20 220.09 239.09 220.05 236.99 219.85 C 237.36 223.92 238.41 228.07 237.41 232.14 C 233.24 234.64 230.67 239.43 225.80 240.78 C 221.00 242.42 215.72 241.00 211.66 238.21 C 216.37 237.33 221.35 238.21 225.95 236.87 C 229.85 233.89 232.19 229.36 234.62 225.20 C 234.67 223.55 234.71 221.91 234.64 220.26 C 235.96 217.39 235.92 214.19 236.17 211.11 Z" />
</g>
<g id="#d5cac4ff">
<path fill="#d5cac4" opacity="1.00" d=" M 237.98 210.96 C 239.89 211.49 242.33 211.99 243.02 214.17 C 243.35 215.84 243.33 217.55 243.43 219.25 C 241.64 219.19 239.86 219.12 238.09 219.05 C 238.06 216.35 238.02 213.65 237.98 210.96 Z" />
</g>
<g id="#c5b9b4ff">
<path fill="#c5b9b4" opacity="1.00" d=" M 170.25 212.10 C 171.94 213.11 173.57 214.22 175.24 215.28 C 175.53 215.45 176.11 215.79 176.40 215.95 C 175.95 217.73 175.54 219.52 175.15 221.32 C 174.37 221.27 172.81 221.18 172.03 221.13 C 171.64 220.02 171.27 218.91 170.92 217.79 C 170.69 215.89 170.45 214.00 170.25 212.10 Z" />
</g>
<g id="#b9aea6ff">
<path fill="#b9aea6" opacity="1.00" d=" M 191.69 213.72 C 192.05 213.51 192.77 213.08 193.13 212.87 C 195.09 213.04 197.05 213.35 199.02 213.55 C 198.67 215.42 197.68 217.46 198.67 219.30 C 200.35 222.59 202.31 225.77 204.59 228.67 C 207.52 230.01 210.87 229.51 213.99 229.54 C 216.12 231.06 218.60 231.95 221.07 232.76 C 216.00 234.45 210.93 232.29 206.02 231.10 C 207.29 233.09 208.54 235.08 209.90 237.01 C 206.89 234.94 203.96 232.73 201.29 230.24 C 200.62 228.97 200.01 227.66 199.38 226.37 C 198.93 221.16 195.93 216.66 191.69 213.72 Z" />
</g>
<g id="#f4efecff">
<path fill="#f4efec" opacity="1.00" d=" M 199.02 213.55 C 200.44 213.45 201.86 213.25 203.28 213.03 C 205.75 216.88 208.29 220.71 209.92 225.01 C 210.56 227.06 212.26 228.40 213.99 229.54 C 210.87 229.51 207.52 230.01 204.59 228.67 C 202.31 225.77 200.35 222.59 198.67 219.30 C 197.68 217.46 198.67 215.42 199.02 213.55 Z" />
<path fill="#f4efec" opacity="1.00" d=" M 189.24 215.39 C 190.05 214.83 190.86 214.26 191.69 213.72 C 195.93 216.66 198.93 221.16 199.38 226.37 C 196.91 223.29 194.69 220.01 192.15 216.99 C 191.19 216.44 190.22 215.91 189.24 215.39 Z" />
</g>
<g id="#948882ff">
<path fill="#948882" opacity="1.00" d=" M 176.40 215.95 C 179.69 217.75 183.34 218.85 186.44 221.00 L 186.71 221.90 C 182.85 221.79 179.00 221.61 175.15 221.32 C 175.54 219.52 175.95 217.73 176.40 215.95 Z" />
</g>
<g id="#7b777fff">
<path fill="#7b777f" opacity="1.00" d=" M 192.15 216.99 C 194.69 220.01 196.91 223.29 199.38 226.37 C 200.01 227.66 200.62 228.97 201.29 230.24 C 200.52 230.42 198.99 230.78 198.22 230.96 C 197.19 234.23 195.31 238.18 197.57 241.35 C 199.77 243.30 202.71 244.07 205.30 245.37 C 200.37 248.71 193.58 246.17 190.34 241.68 C 187.79 237.69 185.95 232.98 186.42 228.17 C 187.05 227.07 187.72 226.00 188.36 224.91 C 190.67 225.93 192.98 226.95 195.29 227.97 C 195.45 226.17 196.29 223.82 194.25 222.74 C 192.39 221.15 190.27 223.26 188.58 224.09 C 188.94 221.37 190.54 219.12 192.15 216.99 M 189.00 227.19 C 188.83 228.44 188.73 229.70 188.65 230.96 C 190.87 235.44 191.89 240.70 196.00 244.02 C 195.67 239.76 195.12 235.34 192.71 231.69 C 193.03 230.90 193.33 230.12 193.65 229.34 C 192.09 228.64 190.54 227.92 189.00 227.19 Z" />
</g>
<g id="#baac9fff">
<path fill="#baac9f" opacity="1.00" d=" M 227.93 218.95 C 228.92 218.28 229.92 217.61 230.92 216.94 C 231.00 217.69 231.17 219.20 231.26 219.95 C 230.59 223.51 228.34 226.40 226.03 229.07 C 224.74 228.82 223.45 228.58 222.16 228.35 L 222.44 227.73 C 224.76 225.14 226.89 222.32 227.93 218.95 Z" />
</g>
<g id="#595251ff">
<path fill="#595251" opacity="1.00" d=" M 169.04 221.95 C 169.74 220.60 170.36 219.20 170.92 217.79 C 171.27 218.91 171.64 220.02 172.03 221.13 C 172.81 221.18 174.37 221.27 175.15 221.32 C 179.00 221.61 182.85 221.79 186.71 221.90 C 184.34 224.23 181.18 225.35 177.91 225.57 C 176.22 225.68 174.54 225.77 172.86 225.90 C 174.30 225.42 175.73 224.88 177.16 224.34 C 174.49 224.26 171.85 223.95 169.20 223.70 C 168.87 223.69 168.20 223.66 167.87 223.65 C 168.16 223.23 168.75 222.38 169.04 221.95 Z" />
</g>
<g id="#00000011">
<path fill="#000000" opacity="0.07" d=" M 244.35 220.04 C 245.16 219.99 245.98 219.95 246.80 219.92 C 246.93 220.24 247.19 220.88 247.33 221.21 C 247.45 221.82 247.70 223.05 247.82 223.66 C 248.03 224.55 248.28 225.45 248.52 226.34 C 244.26 226.14 242.52 230.66 242.73 234.27 C 241.37 233.83 240.02 233.37 238.69 232.87 C 238.47 236.18 238.65 239.99 235.79 242.28 C 235.64 240.75 235.45 239.23 235.31 237.71 C 232.78 239.44 231.55 242.27 230.38 245.00 C 228.52 244.43 226.63 243.99 224.74 243.59 C 224.89 244.56 225.04 245.54 225.18 246.52 C 223.83 247.04 222.42 247.46 221.18 248.24 C 219.11 250.53 218.41 253.66 217.37 256.49 C 215.62 256.82 213.87 257.15 212.13 257.48 C 212.15 257.99 212.21 259.01 212.23 259.51 C 215.59 263.23 214.07 268.78 215.69 273.25 C 216.93 273.94 218.41 274.32 219.42 275.36 C 219.75 276.55 219.25 277.77 219.22 278.97 C 217.76 278.09 216.32 277.21 214.88 276.30 C 213.61 277.75 212.24 279.10 210.80 280.38 C 213.51 281.78 216.40 282.70 219.36 283.35 C 218.30 284.85 216.74 286.19 216.46 288.09 C 217.83 291.40 220.00 294.32 221.36 297.65 C 217.27 296.34 213.05 294.68 208.70 295.71 C 209.95 296.84 211.20 297.98 212.48 299.09 C 212.25 301.34 212.25 303.61 212.48 305.86 C 209.70 309.42 207.12 313.61 207.67 318.33 C 207.52 320.95 209.75 322.57 211.35 324.29 C 209.87 326.51 208.36 328.77 207.41 331.28 C 207.91 334.56 208.56 337.97 206.57 340.93 C 208.01 344.41 209.62 347.99 212.80 350.24 C 211.85 351.26 210.90 352.29 209.95 353.33 C 210.81 354.89 211.63 356.48 212.40 358.10 C 210.99 360.44 209.58 362.78 208.05 365.05 C 209.46 367.86 211.43 370.29 213.42 372.71 C 214.24 373.70 213.46 375.10 213.54 376.26 C 212.17 375.13 210.79 374.03 209.42 372.91 C 208.59 374.65 208.61 376.56 208.99 378.42 C 209.94 378.47 210.89 378.53 211.84 378.59 C 210.66 380.40 209.47 382.20 208.27 384.00 L 184.41 384.00 C 182.92 382.45 181.07 380.85 181.02 378.53 C 180.79 375.44 179.62 372.55 179.16 369.52 C 179.71 366.91 181.24 364.63 181.77 362.02 C 181.90 358.75 180.03 355.87 178.60 353.07 C 179.57 352.41 180.54 351.76 181.51 351.10 C 180.74 348.52 180.12 345.89 179.78 343.23 C 180.09 341.01 181.24 338.85 180.56 336.57 C 179.84 333.89 180.24 331.18 180.92 328.56 C 182.02 328.83 183.11 329.11 184.21 329.39 C 183.64 327.90 183.06 326.41 182.49 324.93 C 183.30 323.83 184.11 322.74 184.92 321.64 C 183.71 321.47 182.50 321.30 181.30 321.15 C 180.66 318.61 180.70 316.01 181.35 313.49 C 182.24 310.21 180.21 307.18 179.82 303.99 C 180.50 297.66 183.49 291.02 180.78 284.78 C 180.55 281.94 182.24 279.30 183.19 276.70 C 181.65 277.08 180.06 277.21 178.48 277.32 C 180.42 275.68 182.44 274.13 184.55 272.72 C 184.41 271.72 184.26 270.72 184.12 269.72 C 183.35 269.93 182.59 270.14 181.82 270.35 C 181.80 268.58 181.54 266.78 181.89 265.03 C 182.92 262.55 185.73 260.34 184.56 257.42 C 184.01 254.83 182.39 252.38 182.88 249.66 C 183.37 246.91 182.66 244.20 182.48 241.47 C 182.49 236.97 183.46 232.34 182.08 227.95 C 180.94 226.77 179.36 226.22 177.91 225.57 C 181.18 225.35 184.34 224.23 186.71 221.90 C 186.74 224.00 186.54 226.08 186.42 228.17 C 185.95 232.98 187.79 237.69 190.34 241.68 C 193.58 246.17 200.37 248.71 205.30 245.37 C 202.71 244.07 199.77 243.30 197.57 241.35 C 195.31 238.18 197.19 234.23 198.22 230.96 C 198.99 230.78 200.52 230.42 201.29 230.24 C 203.96 232.73 206.89 234.94 209.90 237.01 C 210.34 237.31 211.22 237.91 211.66 238.21 C 215.72 241.00 221.00 242.42 225.80 240.78 C 230.67 239.43 233.24 234.64 237.41 232.14 C 241.36 229.36 242.69 224.33 244.35 220.04 Z" />
</g>
<g id="#786d6aff">
<path fill="#786d6a" opacity="1.00" d=" M 236.99 219.85 C 239.09 220.05 241.20 220.09 243.31 220.06 L 244.35 220.04 C 242.69 224.33 241.36 229.36 237.41 232.14 C 238.41 228.07 237.36 223.92 236.99 219.85 Z" />
</g>
<g id="#a39da6ff">
<path fill="#a39da6" opacity="1.00" d=" M 188.58 224.09 C 190.27 223.26 192.39 221.15 194.25 222.74 C 196.29 223.82 195.45 226.17 195.29 227.97 C 192.98 226.95 190.67 225.93 188.36 224.91 L 188.58 224.09 Z" />
</g>
<g id="#aaa3a7f7">
<path fill="#aaa3a7" opacity="0.97" d=" M 169.20 223.70 C 171.85 223.95 174.49 224.26 177.16 224.34 C 175.73 224.88 174.30 225.42 172.86 225.90 C 171.23 226.08 169.60 226.24 167.98 226.44 C 168.28 225.76 168.89 224.39 169.20 223.70 Z" />
</g>
<g id="#b9b3b8ff">
<path fill="#b9b3b8" opacity="1.00" d=" M 189.00 227.19 C 190.54 227.92 192.09 228.64 193.65 229.34 C 193.33 230.12 193.03 230.90 192.71 231.69 C 195.12 235.34 195.67 239.76 196.00 244.02 C 191.89 240.70 190.87 235.44 188.65 230.96 C 188.73 229.70 188.83 228.44 189.00 227.19 Z" />
</g>
</svg>
