<?xml version="1.0" encoding="UTF-8" ?>
<!DOCTYPE svg PUBLIC "-//W3C//DTD SVG 1.1//EN" "http://www.w3.org/Graphics/SVG/1.1/DTD/svg11.dtd">
<svg width="384pt" height="384pt" viewBox="0 0 384 384" version="1.1" xmlns="http://www.w3.org/2000/svg">
<g id="#2a303bfe">
<path fill="#2a303b" opacity="1.00" d=" M 206.29 133.44 C 211.40 127.01 215.86 120.05 220.47 113.26 C 223.50 113.72 225.48 116.48 227.26 118.73 C 234.47 128.97 235.34 142.02 234.80 154.14 C 234.01 153.25 233.22 152.35 232.44 151.46 C 231.73 152.14 231.04 152.82 230.34 153.50 C 231.95 142.87 231.02 131.59 226.28 121.83 C 225.05 119.14 223.03 116.94 220.94 114.90 C 215.35 120.95 211.12 128.10 206.51 134.89 C 208.02 135.95 209.52 137.04 211.06 138.05 C 211.28 141.19 211.58 144.32 211.96 147.44 C 210.04 149.29 208.15 151.16 206.37 153.13 C 204.72 152.48 203.06 151.87 201.45 151.15 C 207.09 150.15 210.37 141.47 204.62 138.46 C 201.49 138.77 198.53 139.91 195.49 140.63 C 195.64 141.72 195.79 142.81 195.98 143.90 C 192.04 141.44 187.43 140.17 182.78 140.69 C 183.22 140.28 184.10 139.47 184.54 139.06 C 187.74 138.64 190.85 137.62 193.17 135.28 C 197.54 137.19 202.42 135.83 206.29 133.44 Z" />
</g>
<g id="#000000ba">
<path fill="#000000" opacity="0.73" d=" M 215.18 126.55 C 217.73 127.53 220.42 128.59 222.11 130.87 C 226.89 136.79 228.49 144.63 228.81 152.07 C 227.91 149.19 226.35 146.60 224.64 144.14 C 224.00 141.02 223.56 137.79 222.10 134.92 C 220.52 131.59 217.69 129.15 215.18 126.55 Z" />
</g>
<g id="#2a3340fe">
<path fill="#2a3340" opacity="1.00" d=" M 153.77 134.19 C 159.95 132.18 166.87 132.10 173.16 133.69 C 172.57 134.79 171.99 135.90 171.41 137.00 C 172.26 137.64 173.11 138.28 173.99 138.89 C 173.25 138.95 171.76 139.05 171.02 139.11 L 170.17 139.24 C 169.90 138.90 169.35 138.21 169.08 137.87 C 167.68 136.84 166.32 135.30 164.44 135.37 C 162.98 136.53 161.71 137.89 160.38 139.18 C 160.12 139.30 159.62 139.54 159.36 139.67 C 157.35 138.00 155.25 136.38 153.77 134.19 Z" />
</g>
<g id="#1b1a19fe">
<path fill="#1b1a19" opacity="1.00" d=" M 173.16 133.69 C 177.01 135.35 180.73 137.30 184.54 139.06 C 184.10 139.47 183.22 140.28 182.78 140.69 L 182.04 141.14 C 180.49 140.78 178.94 140.41 177.42 139.98 C 176.27 139.63 175.13 139.26 173.99 138.89 C 173.11 138.28 172.26 137.64 171.41 137.00 C 171.99 135.90 172.57 134.79 173.16 133.69 Z" />
</g>
<g id="#bf9178ff">
<path fill="#bf9178" opacity="1.00" d=" M 160.38 139.18 C 161.71 137.89 162.98 136.53 164.44 135.37 C 166.32 135.30 167.68 136.84 169.08 137.87 C 166.70 138.47 168.79 141.08 170.17 139.24 L 171.02 139.11 C 171.32 140.06 171.62 141.01 171.92 141.97 C 170.86 142.29 169.80 142.59 168.75 142.93 C 166.54 140.63 163.05 140.73 160.38 139.18 Z" />
</g>
<g id="#f3e9dfff">
<path fill="#f3e9df" opacity="1.00" d=" M 170.17 139.24 C 168.79 141.08 166.70 138.47 169.08 137.87 C 169.35 138.21 169.90 138.90 170.17 139.24 Z" />
</g>
<g id="#070708ff">
<path fill="#070708" opacity="1.00" d=" M 195.49 140.63 C 198.53 139.91 201.49 138.77 204.62 138.46 C 210.37 141.47 207.09 150.15 201.45 151.15 C 199.58 148.77 197.80 146.32 195.98 143.90 C 195.79 142.81 195.64 141.72 195.49 140.63 M 198.50 142.87 C 198.62 143.60 198.86 145.05 198.98 145.77 C 199.93 148.40 203.13 146.90 205.19 147.13 C 205.20 145.39 205.21 143.65 205.21 141.91 C 202.87 140.86 200.57 141.64 198.50 142.87 Z" />
</g>
<g id="#181818ff">
<path fill="#181818" opacity="1.00" d=" M 211.06 138.05 C 213.74 139.28 216.54 140.19 219.28 141.27 L 218.92 141.88 C 216.55 143.67 214.13 145.41 211.96 147.44 C 211.58 144.32 211.28 141.19 211.06 138.05 Z" />
</g>
<g id="#ca825fff">
<path fill="#ca825f" opacity="1.00" d=" M 159.36 139.67 C 159.62 139.54 160.12 139.30 160.38 139.18 C 163.05 140.73 166.54 140.63 168.75 142.93 C 167.31 144.05 165.90 145.24 164.65 146.58 C 160.80 149.62 161.15 154.76 160.77 159.16 C 157.48 156.11 158.10 150.96 160.62 147.63 C 162.35 145.59 164.55 144.04 166.56 142.30 C 164.06 142.67 161.13 143.23 159.69 145.56 C 157.96 148.51 156.72 151.71 154.99 154.66 C 153.53 152.36 151.13 150.05 151.59 147.08 C 152.75 143.50 156.15 141.27 159.36 139.67 Z" />
</g>
<g id="#888487ff">
<path fill="#888487" opacity="1.00" d=" M 171.02 139.11 C 171.76 139.05 173.25 138.95 173.99 138.89 C 175.13 139.26 176.27 139.63 177.42 139.98 C 175.60 140.69 173.78 141.38 171.92 141.97 C 171.62 141.01 171.32 140.06 171.02 139.11 Z" />
<path fill="#888487" opacity="1.00" d=" M 211.96 147.44 C 214.13 145.41 216.55 143.67 218.92 141.88 C 217.80 144.04 216.56 146.14 215.22 148.17 C 215.97 149.70 216.54 151.34 216.28 153.07 C 215.53 154.07 214.79 155.07 214.05 156.08 C 218.32 161.27 224.55 164.18 229.60 168.50 C 231.20 170.16 233.15 168.88 234.78 168.04 C 235.25 169.40 235.64 170.78 236.03 172.17 C 234.91 172.88 233.78 173.58 232.65 174.28 C 231.53 173.23 230.34 172.29 229.06 171.46 C 225.95 169.45 222.91 167.32 219.65 165.55 C 216.40 163.98 214.65 160.66 212.36 158.05 C 212.00 160.84 211.22 163.69 211.73 166.50 C 211.90 167.62 213.22 167.78 214.06 168.19 C 219.16 170.20 224.91 170.87 229.19 174.57 C 229.20 174.05 229.21 173.01 229.22 172.49 C 230.07 174.58 231.02 176.63 231.90 178.71 C 231.01 178.54 230.12 178.38 229.23 178.22 C 229.93 181.10 230.73 184.00 230.84 186.98 C 229.62 188.29 228.41 189.60 227.20 190.91 C 226.72 189.47 226.24 188.02 225.77 186.58 C 224.34 189.51 223.58 193.53 220.22 194.88 C 217.59 194.94 215.24 193.30 212.84 192.41 C 212.49 191.22 212.13 190.04 211.76 188.87 C 212.49 190.02 213.24 191.17 213.99 192.32 C 215.76 190.90 217.52 189.47 219.25 187.99 C 219.92 187.90 221.27 187.72 221.95 187.62 C 222.84 187.20 223.73 186.77 224.62 186.34 C 226.85 186.84 225.86 183.42 224.44 185.40 C 224.01 182.80 223.36 180.24 222.49 177.75 C 223.85 177.81 225.20 177.85 226.56 177.88 C 224.21 175.53 221.15 174.21 218.05 173.16 C 218.78 174.49 219.51 175.81 220.25 177.13 C 219.25 178.20 218.28 179.29 217.32 180.40 C 216.06 179.92 214.80 179.43 213.54 178.94 C 212.77 176.30 211.95 172.69 208.63 172.44 C 206.65 172.60 204.42 172.48 202.76 173.77 C 200.99 175.28 199.68 177.23 198.36 179.11 C 198.62 176.90 198.85 174.68 199.41 172.53 L 200.24 172.68 C 200.51 172.34 201.06 171.66 201.33 171.32 C 202.81 171.14 204.29 170.96 205.78 170.78 C 205.05 167.61 203.94 164.53 202.32 161.71 C 203.24 158.67 204.50 155.71 206.37 153.13 C 208.15 151.16 210.04 149.29 211.96 147.44 M 205.51 165.14 C 206.75 165.27 208.08 165.90 209.29 165.28 C 209.57 164.26 209.71 163.21 209.72 162.16 C 210.75 158.77 211.81 155.39 212.76 151.99 C 208.03 154.46 203.18 159.33 205.51 165.14 M 207.41 168.21 C 206.02 169.51 208.27 171.87 209.58 170.39 C 211.09 169.07 208.75 166.79 207.41 168.21 Z" />
</g>
<g id="#363a39ff">
<path fill="#363a39" opacity="1.00" d=" M 177.42 139.98 C 178.94 140.41 180.49 140.78 182.04 141.14 C 173.82 145.28 168.09 152.92 164.86 161.38 C 162.09 156.81 162.65 151.32 164.65 146.58 C 165.90 145.24 167.31 144.05 168.75 142.93 C 169.80 142.59 170.86 142.29 171.92 141.97 C 173.78 141.38 175.60 140.69 177.42 139.98 Z" />
</g>
<g id="#9f9287ff">
<path fill="#9f9287" opacity="1.00" d=" M 182.78 140.69 C 187.43 140.17 192.04 141.44 195.98 143.90 C 197.80 146.32 199.58 148.77 201.45 151.15 C 203.06 151.87 204.72 152.48 206.37 153.13 C 204.50 155.71 203.24 158.67 202.32 161.71 C 201.63 163.53 201.22 165.55 200.00 167.11 C 198.14 168.98 195.79 170.25 193.70 171.82 C 192.54 171.89 191.38 171.97 190.23 172.05 C 189.16 174.24 188.54 177.00 186.23 178.24 C 182.33 180.48 178.08 182.10 173.71 183.11 C 173.11 182.48 172.51 181.87 171.89 181.28 C 171.67 181.06 171.21 180.63 170.98 180.42 C 168.18 181.18 165.45 182.16 162.68 183.03 C 162.95 179.23 165.63 176.58 167.79 173.72 C 168.34 169.26 166.30 165.07 163.06 162.12 C 162.27 161.15 161.52 160.15 160.77 159.16 C 161.15 154.76 160.80 149.62 164.65 146.58 C 162.65 151.32 162.09 156.81 164.86 161.38 C 168.09 152.92 173.82 145.28 182.04 141.14 L 182.78 140.69 M 177.14 147.17 L 177.32 147.77 C 172.11 152.06 166.18 158.47 168.16 165.79 C 169.08 169.15 169.84 172.60 171.26 175.79 C 172.45 178.41 175.87 180.48 178.56 178.67 C 183.81 175.76 187.30 170.44 192.80 167.87 C 195.83 166.04 200.39 165.21 201.21 161.18 C 202.09 155.32 199.13 149.21 194.49 145.66 C 192.85 144.26 191.03 142.89 188.79 142.75 C 184.49 142.62 180.81 145.29 177.14 147.17 Z" />
</g>
<g id="#232428ff">
<path fill="#232428" opacity="1.00" d=" M 198.50 142.87 C 200.57 141.64 202.87 140.86 205.21 141.91 C 205.21 143.65 205.20 145.39 205.19 147.13 C 203.13 146.90 199.93 148.40 198.98 145.77 C 198.86 145.05 198.62 143.60 198.50 142.87 Z" />
</g>
<g id="#474344ff">
<path fill="#474344" opacity="1.00" d=" M 219.28 141.27 C 220.31 141.73 221.32 142.26 222.31 142.81 C 220.95 146.58 219.10 150.17 216.28 153.07 C 216.54 151.34 215.97 149.70 215.22 148.17 C 216.56 146.14 217.80 144.04 218.92 141.88 L 219.28 141.27 Z" />
</g>
<g id="#554037ff">
<path fill="#554037" opacity="1.00" d=" M 159.69 145.56 C 161.13 143.23 164.06 142.67 166.56 142.30 C 164.55 144.04 162.35 145.59 160.62 147.63 C 158.10 150.96 157.48 156.11 160.77 159.16 C 161.52 160.15 162.27 161.15 163.06 162.12 C 161.34 161.16 159.63 160.19 157.95 159.17 C 157.67 158.64 157.11 157.59 156.82 157.06 C 156.20 156.26 155.59 155.47 154.99 154.66 C 156.72 151.71 157.96 148.51 159.69 145.56 Z" />
<path fill="#554037" opacity="1.00" d=" M 100.11 217.20 C 104.17 217.44 108.26 217.43 112.28 216.72 C 112.47 217.06 112.84 217.75 113.03 218.09 C 113.33 218.67 113.94 219.85 114.25 220.43 C 113.63 221.37 112.99 222.29 112.36 223.22 C 113.05 223.22 114.45 223.20 115.15 223.19 C 110.66 224.28 105.77 225.02 101.70 222.27 C 101.18 220.58 100.58 218.91 100.11 217.20 Z" />
</g>
<g id="#4a5359ff">
<path fill="#4a5359" opacity="1.00" d=" M 177.14 147.17 C 180.81 145.29 184.49 142.62 188.79 142.75 C 191.03 142.89 192.85 144.26 194.49 145.66 C 192.97 148.31 191.95 152.01 188.59 152.83 C 185.62 153.48 182.50 152.92 179.59 153.89 L 179.29 153.89 C 178.59 151.86 177.95 149.82 177.32 147.77 L 177.14 147.17 Z" />
</g>
<g id="#1b1a19ff">
<path fill="#1b1a19" opacity="1.00" d=" M 222.31 142.81 C 222.90 143.14 224.06 143.81 224.64 144.14 C 226.35 146.60 227.91 149.19 228.81 152.07 C 228.67 153.50 228.18 154.86 227.76 156.22 C 228.60 155.29 229.45 154.38 230.34 153.50 C 231.04 152.82 231.73 152.14 232.44 151.46 C 233.22 152.35 234.01 153.25 234.80 154.14 C 234.72 155.47 234.59 156.80 234.47 158.13 C 235.85 158.76 237.24 159.39 238.64 160.00 C 236.92 161.66 235.28 163.39 233.55 165.04 C 233.97 166.03 234.38 167.03 234.78 168.04 C 233.15 168.88 231.20 170.16 229.60 168.50 C 224.55 164.18 218.32 161.27 214.05 156.08 C 214.79 155.07 215.53 154.07 216.28 153.07 C 219.10 150.17 220.95 146.58 222.31 142.81 M 221.23 148.11 C 220.85 149.52 221.35 149.99 222.74 149.52 C 223.11 148.10 222.61 147.63 221.23 148.11 Z" />
</g>
<g id="#3f4344ff">
<path fill="#3f4344" opacity="1.00" d=" M 194.49 145.66 C 199.13 149.21 202.09 155.32 201.21 161.18 C 200.39 165.21 195.83 166.04 192.80 167.87 C 187.30 170.44 183.81 175.76 178.56 178.67 C 175.87 180.48 172.45 178.41 171.26 175.79 C 169.84 172.60 169.08 169.15 168.16 165.79 C 166.18 158.47 172.11 152.06 177.32 147.77 C 177.95 149.82 178.59 151.86 179.29 153.89 L 179.33 154.03 C 179.40 153.99 179.53 153.92 179.59 153.89 C 182.50 152.92 185.62 153.48 188.59 152.83 C 191.95 152.01 192.97 148.31 194.49 145.66 M 182.25 157.25 C 182.85 157.85 182.85 157.85 182.25 157.25 M 185.23 167.07 C 185.37 170.39 188.23 165.53 185.23 167.07 Z" />
</g>
<g id="#06070793">
<path fill="#060707" opacity="0.58" d=" M 221.23 148.11 C 222.61 147.63 223.11 148.10 222.74 149.52 C 221.35 149.99 220.85 149.52 221.23 148.11 Z" />
</g>
<g id="#a5a1a7ff">
<path fill="#a5a1a7" opacity="1.00" d=" M 205.51 165.14 C 203.18 159.33 208.03 154.46 212.76 151.99 C 211.81 155.39 210.75 158.77 209.72 162.16 C 209.29 160.59 208.76 159.04 208.24 157.51 C 207.28 160.03 206.41 162.59 205.51 165.14 Z" />
</g>
<g id="#f7f6f7ff">
<path fill="#f7f6f7" opacity="1.00" d=" M 179.29 153.89 L 179.59 153.89 C 179.53 153.92 179.40 153.99 179.33 154.03 L 179.29 153.89 Z" />
</g>
<g id="#1f171387">
<path fill="#1f1713" opacity="0.53" d=" M 156.82 157.06 C 157.11 157.59 157.67 158.64 157.95 159.17 C 157.67 158.64 157.11 157.59 156.82 157.06 Z" />
</g>
<g id="#eff4efff">
<path fill="#eff4ef" opacity="1.00" d=" M 182.25 157.25 C 182.85 157.85 182.85 157.85 182.25 157.25 Z" />
</g>
<g id="#fefbf9ff">
<path fill="#fefbf9" opacity="1.00" d=" M 208.24 157.51 C 208.76 159.04 209.29 160.59 209.72 162.16 C 209.71 163.21 209.57 164.26 209.29 165.28 C 208.08 165.90 206.75 165.27 205.51 165.14 C 206.41 162.59 207.28 160.03 208.24 157.51 Z" />
<path fill="#fefbf9" opacity="1.00" d=" M 201.14 191.01 C 204.90 190.35 201.16 195.73 200.19 192.28 C 200.43 191.96 200.90 191.33 201.14 191.01 Z" />
<path fill="#fefbf9" opacity="1.00" d=" M 218.39 203.66 L 219.03 203.39 C 220.64 205.56 222.23 207.76 223.82 209.95 C 223.43 207.75 223.04 205.55 222.69 203.34 C 224.22 204.43 225.95 205.36 227.08 206.91 C 227.83 208.66 228.06 210.57 228.44 212.43 C 229.37 212.15 230.30 211.88 231.23 211.60 C 230.91 213.48 230.60 215.36 230.19 217.22 C 229.28 219.22 228.35 221.22 227.60 223.29 C 226.18 222.19 224.78 221.07 223.38 219.94 C 222.88 221.80 222.37 223.66 221.96 225.54 C 221.08 224.42 220.20 223.31 219.38 222.14 C 216.54 217.87 214.08 213.25 213.48 208.07 C 215.09 206.57 216.69 205.07 218.39 203.66 Z" />
</g>
<g id="#68605dff">
<path fill="#68605d" opacity="1.00" d=" M 212.36 158.05 C 214.65 160.66 216.40 163.98 219.65 165.55 C 222.91 167.32 225.95 169.45 229.06 171.46 L 229.22 172.49 C 229.21 173.01 229.20 174.05 229.19 174.57 C 224.91 170.87 219.16 170.20 214.06 168.19 C 213.22 167.78 211.90 167.62 211.73 166.50 C 211.22 163.69 212.00 160.84 212.36 158.05 Z" />
</g>
<g id="#726d6fff">
<path fill="#726d6f" opacity="1.00" d=" M 202.32 161.71 C 203.94 164.53 205.05 167.61 205.78 170.78 C 204.29 170.96 202.81 171.14 201.33 171.32 C 200.85 171.62 199.89 172.22 199.41 172.53 C 198.85 174.68 198.62 176.90 198.36 179.11 C 197.94 180.18 197.51 181.24 197.07 182.30 C 197.04 182.91 196.96 184.11 196.93 184.71 C 197.81 188.24 198.66 191.78 199.85 195.22 C 201.17 194.90 202.50 194.59 203.82 194.27 C 203.14 195.38 202.46 196.50 201.79 197.63 C 204.59 199.49 207.64 197.86 210.27 196.54 C 210.48 194.03 210.76 191.52 210.66 189.00 L 210.44 188.15 L 211.28 188.10 L 211.76 188.87 C 212.13 190.04 212.49 191.22 212.84 192.41 C 215.24 193.30 217.59 194.94 220.22 194.88 C 223.58 193.53 224.34 189.51 225.77 186.58 C 226.24 188.02 226.72 189.47 227.20 190.91 C 228.41 189.60 229.62 188.29 230.84 186.98 C 230.66 188.63 230.40 190.27 230.16 191.92 C 231.29 191.77 232.41 191.62 233.55 191.47 C 234.22 189.88 234.91 188.29 235.54 186.68 C 237.99 182.31 234.76 177.99 232.65 174.28 C 233.78 173.58 234.91 172.88 236.03 172.17 C 236.66 175.03 238.31 177.47 239.89 179.89 C 243.96 184.68 240.15 190.54 236.86 194.49 C 236.15 195.27 235.42 196.03 234.68 196.78 L 234.15 197.32 C 233.49 197.75 232.16 198.61 231.50 199.04 C 227.79 201.60 223.38 202.59 219.03 203.39 L 218.39 203.66 C 217.54 203.25 216.70 202.84 215.85 202.43 C 214.31 204.93 213.34 207.72 212.72 210.59 C 211.49 209.30 210.25 208.02 208.99 206.77 C 208.68 206.48 208.06 205.88 207.75 205.59 C 207.51 205.69 207.03 205.89 206.79 205.99 C 205.99 206.39 205.21 206.80 204.43 207.22 C 204.73 209.52 204.98 211.83 205.45 214.11 C 204.84 213.83 203.61 213.29 202.99 213.01 C 200.27 212.49 197.50 212.55 194.75 212.70 C 194.51 210.72 194.70 208.72 195.79 207.00 C 197.96 206.68 200.10 206.18 202.21 205.62 C 199.21 202.63 195.08 200.71 193.23 196.69 C 191.45 193.14 188.41 189.32 189.82 185.13 C 190.54 185.03 191.98 184.84 192.70 184.75 C 192.36 183.35 191.99 181.97 191.64 180.58 C 191.36 177.51 192.07 174.44 193.70 171.82 C 195.79 170.25 198.14 168.98 200.00 167.11 C 201.22 165.55 201.63 163.53 202.32 161.71 M 218.27 201.14 C 218.82 201.70 218.82 201.70 218.27 201.14 Z" />
</g>
<g id="#afafafff">
<path fill="#afafaf" opacity="1.00" d=" M 185.23 167.07 C 188.23 165.53 185.37 170.39 185.23 167.07 Z" />
</g>
<g id="#f4eee8ff">
<path fill="#f4eee8" opacity="1.00" d=" M 207.41 168.21 C 208.75 166.79 211.09 169.07 209.58 170.39 C 208.27 171.87 206.02 169.51 207.41 168.21 Z" />
</g>
<g id="#e09d7bff">
<path fill="#e09d7b" opacity="1.00" d=" M 190.23 172.05 C 191.38 171.97 192.54 171.89 193.70 171.82 C 192.07 174.44 191.36 177.51 191.64 180.58 C 191.06 182.11 190.40 183.60 189.82 185.13 C 188.41 189.32 191.45 193.14 193.23 196.69 C 195.08 200.71 199.21 202.63 202.21 205.62 C 200.10 206.18 197.96 206.68 195.79 207.00 C 193.10 207.37 190.38 207.50 187.67 207.40 C 185.64 202.62 186.37 197.46 186.92 192.47 C 183.35 191.66 179.60 190.77 176.91 188.10 C 175.81 186.45 174.84 184.73 173.71 183.11 C 178.08 182.10 182.33 180.48 186.23 178.24 C 188.54 177.00 189.16 174.24 190.23 172.05 Z" />
</g>
<g id="#dfdbcbff">
<path fill="#dfdbcb" opacity="1.00" d=" M 199.41 172.53 C 199.89 172.22 200.85 171.62 201.33 171.32 C 201.06 171.66 200.51 172.34 200.24 172.68 L 199.41 172.53 Z" />
</g>
<g id="#d2cec4ff">
<path fill="#d2cec4" opacity="1.00" d=" M 229.06 171.46 C 230.34 172.29 231.53 173.23 232.65 174.28 C 234.76 177.99 237.99 182.31 235.54 186.68 C 234.19 184.08 233.01 181.41 231.90 178.71 C 231.02 176.63 230.07 174.58 229.22 172.49 L 229.06 171.46 Z" />
</g>
<g id="#f1ad8cff">
<path fill="#f1ad8c" opacity="1.00" d=" M 254.49 176.64 C 256.07 173.52 259.53 172.41 262.29 170.64 C 263.02 173.96 264.89 176.77 267.29 179.12 C 266.98 180.08 266.68 181.04 266.38 182.00 C 263.92 180.31 261.16 178.20 257.99 178.78 C 256.71 179.31 255.60 180.16 254.46 180.91 C 254.42 180.44 254.34 179.51 254.30 179.04 C 254.35 178.44 254.44 177.24 254.49 176.64 Z" />
</g>
<g id="#bfbec3ff">
<path fill="#bfbec3" opacity="1.00" d=" M 202.76 173.77 C 204.42 172.48 206.65 172.60 208.63 172.44 C 208.73 173.58 208.84 174.73 208.95 175.87 C 206.37 176.61 203.66 177.11 201.28 178.41 C 200.43 180.78 200.79 183.34 200.80 185.80 C 200.28 185.18 199.76 184.56 199.24 183.95 C 198.71 183.12 197.99 182.57 197.07 182.30 C 197.51 181.24 197.94 180.18 198.36 179.11 C 199.68 177.23 200.99 175.28 202.76 173.77 Z" />
</g>
<g id="#8c8b8dff">
<path fill="#8c8b8d" opacity="1.00" d=" M 208.63 172.44 C 211.95 172.69 212.77 176.30 213.54 178.94 C 213.65 179.45 213.85 180.46 213.96 180.96 C 212.98 182.05 212.02 183.16 210.99 184.20 C 210.60 182.33 210.19 180.45 209.77 178.58 C 206.01 179.07 204.37 182.66 202.71 185.59 C 204.04 185.41 205.37 185.22 206.70 185.03 C 205.68 186.08 204.65 187.13 203.64 188.20 C 205.97 188.54 208.31 188.82 210.66 189.00 C 210.76 191.52 210.48 194.03 210.27 196.54 C 207.64 197.86 204.59 199.49 201.79 197.63 C 202.46 196.50 203.14 195.38 203.82 194.27 C 202.50 194.59 201.17 194.90 199.85 195.22 C 198.66 191.78 197.81 188.24 196.93 184.71 C 197.50 184.52 198.66 184.14 199.24 183.95 C 199.76 184.56 200.28 185.18 200.80 185.80 C 200.79 183.34 200.43 180.78 201.28 178.41 C 203.66 177.11 206.37 176.61 208.95 175.87 C 208.84 174.73 208.73 173.58 208.63 172.44 M 201.20 187.49 C 200.19 188.40 201.59 190.36 202.75 189.54 C 203.76 188.63 202.35 186.66 201.20 187.49 M 201.14 191.01 C 200.90 191.33 200.43 191.96 200.19 192.28 C 201.16 195.73 204.90 190.35 201.14 191.01 Z" />
</g>
<g id="#afabaeff">
<path fill="#afabae" opacity="1.00" d=" M 218.05 173.16 C 221.15 174.21 224.21 175.53 226.56 177.88 C 225.20 177.85 223.85 177.81 222.49 177.75 C 223.36 180.24 224.01 182.80 224.44 185.40 L 224.62 186.34 C 223.73 186.77 222.84 187.20 221.95 187.62 C 219.45 185.21 216.75 183.02 213.96 180.96 C 213.85 180.46 213.65 179.45 213.54 178.94 C 214.80 179.43 216.06 179.92 217.32 180.40 C 218.28 179.29 219.25 178.20 220.25 177.13 C 219.51 175.81 218.78 174.49 218.05 173.16 Z" />
</g>
<g id="#000000c2">
<path fill="#000000" opacity="0.76" d=" M 239.89 179.89 C 241.58 178.47 243.32 177.12 245.07 175.79 C 246.98 178.03 249.66 180.04 250.26 183.07 C 249.11 187.85 245.28 191.55 244.64 196.53 C 242.06 195.79 239.47 195.07 236.86 194.49 C 240.15 190.54 243.96 184.68 239.89 179.89 Z" />
<path fill="#000000" opacity="0.76" d=" M 110.23 206.18 C 118.66 202.77 127.98 203.47 136.89 203.28 C 134.35 203.69 131.78 203.77 129.23 204.06 C 126.12 204.30 123.00 204.47 119.89 204.74 C 119.21 204.81 117.84 204.94 117.15 205.01 C 114.47 205.16 112.33 206.92 109.89 207.81 C 107.84 208.54 105.72 207.85 103.69 207.45 C 105.89 207.16 108.13 206.96 110.23 206.18 Z" />
</g>
<g id="#6d4635b1">
<path fill="#6d4635" opacity="0.69" d=" M 254.30 179.04 C 254.35 178.44 254.44 177.24 254.49 176.64 C 254.44 177.24 254.35 178.44 254.30 179.04 Z" />
</g>
<g id="#625c5cff">
<path fill="#625c5c" opacity="1.00" d=" M 229.23 178.22 C 230.12 178.38 231.01 178.54 231.90 178.71 C 233.01 181.41 234.19 184.08 235.54 186.68 C 234.91 188.29 234.22 189.88 233.55 191.47 C 232.41 191.62 231.29 191.77 230.16 191.92 C 230.40 190.27 230.66 188.63 230.84 186.98 C 230.73 184.00 229.93 181.10 229.23 178.22 Z" />
</g>
<g id="#c7bcb6ff">
<path fill="#c7bcb6" opacity="1.00" d=" M 254.46 180.91 C 255.60 180.16 256.71 179.31 257.99 178.78 C 261.16 178.20 263.92 180.31 266.38 182.00 C 265.96 183.32 265.56 184.65 265.16 185.98 C 264.80 186.45 264.06 187.38 263.70 187.85 C 262.46 189.92 261.11 191.95 260.24 194.21 C 258.00 194.05 255.71 194.12 253.55 193.47 C 251.71 192.42 252.17 190.08 252.14 188.32 C 253.39 186.02 254.17 183.50 254.46 180.91 Z" />
</g>
<g id="#b3b1b4ff">
<path fill="#b3b1b4" opacity="1.00" d=" M 202.71 185.59 C 204.37 182.66 206.01 179.07 209.77 178.58 C 210.19 180.45 210.60 182.33 210.99 184.20 C 210.19 184.74 209.38 185.27 208.57 185.79 C 209.21 186.57 209.84 187.34 210.44 188.15 L 210.66 189.00 C 208.31 188.82 205.97 188.54 203.64 188.20 C 204.65 187.13 205.68 186.08 206.70 185.03 C 205.37 185.22 204.04 185.41 202.71 185.59 Z" />
<path fill="#b3b1b4" opacity="1.00" d=" M 100.15 215.71 C 100.03 212.75 100.71 209.87 102.03 207.24 C 103.34 210.20 103.59 214.07 100.15 215.71 Z" />
</g>
<g id="#462d1fff">
<path fill="#462d1f" opacity="1.00" d=" M 162.68 183.03 C 165.45 182.16 168.18 181.18 170.98 180.42 C 171.21 180.63 171.67 181.06 171.89 181.28 C 172.60 184.46 173.01 187.69 173.54 190.90 C 173.78 192.36 174.03 193.82 174.28 195.27 C 174.58 196.97 174.87 198.67 175.20 200.36 C 175.54 202.05 175.91 203.74 176.34 205.42 C 176.92 207.52 177.64 209.60 178.61 211.56 C 179.55 212.83 180.54 214.07 181.58 215.27 C 184.09 217.54 187.16 219.03 190.19 220.49 C 190.25 223.04 190.32 225.59 190.35 228.15 C 190.34 230.38 190.48 232.62 190.78 234.83 C 189.54 231.37 189.36 227.68 189.43 224.04 C 188.88 223.68 187.78 222.95 187.23 222.59 C 184.05 220.23 180.08 219.35 176.82 217.17 C 175.48 216.36 176.31 214.72 176.25 213.50 C 176.73 211.37 175.49 209.49 174.66 207.65 C 172.69 207.69 170.72 207.72 168.74 207.74 C 167.15 205.36 165.61 202.95 164.20 200.47 C 163.14 200.30 162.08 200.15 161.03 200.02 C 161.86 199.75 162.70 199.48 163.54 199.21 C 161.25 194.10 160.56 188.32 162.68 183.03 Z" />
</g>
<g id="#645652ff">
<path fill="#645652" opacity="1.00" d=" M 171.89 181.28 C 172.51 181.87 173.11 182.48 173.71 183.11 C 174.84 184.73 175.81 186.45 176.91 188.10 C 177.75 189.37 178.64 190.60 179.61 191.78 C 179.14 193.28 178.56 194.76 177.87 196.18 C 179.37 199.92 180.92 203.66 182.95 207.16 C 183.88 208.94 186.10 209.18 187.76 209.99 C 187.47 209.10 187.19 208.22 186.90 207.34 L 187.67 207.40 C 190.38 207.50 193.10 207.37 195.79 207.00 C 194.70 208.72 194.51 210.72 194.75 212.70 C 193.43 213.95 192.08 215.17 190.73 216.38 C 191.33 216.22 192.53 215.89 193.13 215.72 C 193.78 216.31 194.42 216.91 195.05 217.52 C 193.39 219.44 191.96 221.60 191.39 224.12 L 191.14 224.93 C 190.85 226.00 190.58 227.07 190.35 228.15 C 190.32 225.59 190.25 223.04 190.19 220.49 C 187.16 219.03 184.09 217.54 181.58 215.27 C 181.63 214.02 181.68 212.78 181.72 211.54 C 180.68 211.54 179.65 211.55 178.61 211.56 C 177.64 209.60 176.92 207.52 176.34 205.42 C 177.04 204.41 177.72 203.41 178.41 202.40 C 177.34 201.72 176.27 201.04 175.20 200.36 C 174.87 198.67 174.58 196.97 174.28 195.27 C 174.88 194.45 175.47 193.64 176.07 192.82 C 176.00 192.24 175.87 191.08 175.80 190.51 C 175.24 190.61 174.11 190.80 173.54 190.90 C 173.01 187.69 172.60 184.46 171.89 181.28 Z" />
</g>
<g id="#f7f3edff">
<path fill="#f7f3ed" opacity="1.00" d=" M 189.82 185.13 C 190.40 183.60 191.06 182.11 191.64 180.58 C 191.99 181.97 192.36 183.35 192.70 184.75 C 191.98 184.84 190.54 185.03 189.82 185.13 Z" />
</g>
<g id="#ebe5eaff">
<path fill="#ebe5ea" opacity="1.00" d=" M 213.96 180.96 C 216.75 183.02 219.45 185.21 221.95 187.62 C 221.27 187.72 219.92 187.90 219.25 187.99 C 216.59 187.91 213.93 187.83 211.28 188.10 L 210.44 188.15 C 209.84 187.34 209.21 186.57 208.57 185.79 C 209.38 185.27 210.19 184.74 210.99 184.20 C 212.02 183.16 212.98 182.05 213.96 180.96 Z" />
<path fill="#ebe5ea" opacity="1.00" d=" M 206.79 205.99 C 207.03 205.89 207.51 205.69 207.75 205.59 C 208.06 205.88 208.68 206.48 208.99 206.77 C 209.50 211.78 212.79 215.75 214.81 220.19 C 208.69 218.34 207.39 211.50 206.79 205.99 Z" />
<path fill="#ebe5ea" opacity="1.00" d=" M 163.81 226.59 C 168.07 225.27 172.54 225.56 176.93 225.34 C 175.57 225.74 174.22 226.19 172.86 226.59 C 172.43 226.64 171.56 226.73 171.12 226.78 C 168.68 226.88 166.24 226.76 163.81 226.59 Z" />
<path fill="#ebe5ea" opacity="1.00" d=" M 148.17 227.54 C 150.43 226.14 152.98 226.21 155.29 227.40 C 153.84 227.66 152.39 227.89 150.93 228.08 C 150.24 227.94 148.86 227.67 148.17 227.54 Z" />
</g>
<g id="#fffbf8ff">
<path fill="#fffbf8" opacity="1.00" d=" M 197.07 182.30 C 197.99 182.57 198.71 183.12 199.24 183.95 C 198.66 184.14 197.50 184.52 196.93 184.71 C 196.96 184.11 197.04 182.91 197.07 182.30 Z" />
</g>
<g id="#fffcf4ff">
<path fill="#fffcf4" opacity="1.00" d=" M 224.44 185.40 C 225.86 183.42 226.85 186.84 224.62 186.34 L 224.44 185.40 Z" />
</g>
<g id="#45403e87">
<path fill="#45403e" opacity="0.53" d=" M 263.70 187.85 C 264.06 187.38 264.80 186.45 265.16 185.98 C 264.80 186.45 264.06 187.38 263.70 187.85 Z" />
</g>
<g id="#e3dddcff">
<path fill="#e3dddc" opacity="1.00" d=" M 201.20 187.49 C 202.35 186.66 203.76 188.63 202.75 189.54 C 201.59 190.36 200.19 188.40 201.20 187.49 Z" />
</g>
<g id="#b4afb5ff">
<path fill="#b4afb5" opacity="1.00" d=" M 211.28 188.10 C 213.93 187.83 216.59 187.91 219.25 187.99 C 217.52 189.47 215.76 190.90 213.99 192.32 C 213.24 191.17 212.49 190.02 211.76 188.87 L 211.28 188.10 Z" />
</g>
<g id="#b47456ff">
<path fill="#b47456" opacity="1.00" d=" M 176.91 188.10 C 179.60 190.77 183.35 191.66 186.92 192.47 C 186.37 197.46 185.64 202.62 187.67 207.40 L 186.90 207.34 C 182.48 204.73 183.78 199.02 183.31 194.72 C 182.05 193.76 180.79 192.82 179.61 191.78 C 178.64 190.60 177.75 189.37 176.91 188.10 Z" />
</g>
<g id="#7f746fff">
<path fill="#7f746f" opacity="1.00" d=" M 246.67 196.15 C 248.28 193.39 250.27 190.89 252.14 188.32 C 252.17 190.08 251.71 192.42 253.55 193.47 C 255.71 194.12 258.00 194.05 260.24 194.21 C 259.21 197.62 257.55 200.88 254.90 203.32 C 254.69 200.86 254.64 198.33 253.78 195.99 C 251.88 194.55 249.45 195.64 247.38 195.99 L 246.67 196.15 Z" />
</g>
<g id="#a2938eff">
<path fill="#a2938e" opacity="1.00" d=" M 173.54 190.90 C 174.11 190.80 175.24 190.61 175.80 190.51 C 175.87 191.08 176.00 192.24 176.07 192.82 C 175.47 193.64 174.88 194.45 174.28 195.27 C 174.03 193.82 173.78 192.36 173.54 190.90 Z" />
</g>
<g id="#4a3934ff">
<path fill="#4a3934" opacity="1.00" d=" M 179.61 191.78 C 180.79 192.82 182.05 193.76 183.31 194.72 C 183.78 199.02 182.48 204.73 186.90 207.34 C 187.19 208.22 187.47 209.10 187.76 209.99 C 186.10 209.18 183.88 208.94 182.95 207.16 C 180.92 203.66 179.37 199.92 177.87 196.18 C 178.56 194.76 179.14 193.28 179.61 191.78 Z" />
</g>
<g id="#908a90ff">
<path fill="#908a90" opacity="1.00" d=" M 234.68 196.78 C 235.42 196.03 236.15 195.27 236.86 194.49 C 239.47 195.07 242.06 195.79 244.64 196.53 C 245.15 196.43 246.16 196.24 246.67 196.15 L 247.38 195.99 C 247.83 199.82 250.84 202.33 253.61 204.65 C 253.36 209.23 255.22 214.88 250.99 218.20 C 250.80 214.24 249.87 210.15 246.29 207.87 C 246.18 209.27 246.05 210.66 245.91 212.06 C 245.87 214.82 242.79 216.29 242.70 219.04 C 242.34 222.23 242.06 225.53 240.42 228.38 C 236.57 232.15 233.28 236.65 228.16 238.85 C 223.16 239.08 218.05 238.30 213.83 235.45 C 219.16 235.60 224.80 235.72 229.82 233.69 C 234.20 229.25 238.49 223.04 237.16 216.46 C 237.25 213.72 237.21 210.95 237.70 208.25 C 239.66 206.32 242.85 207.56 245.33 207.27 C 241.52 204.79 236.90 204.87 232.60 205.77 C 232.78 206.21 233.13 207.07 233.30 207.50 C 232.15 206.12 231.23 204.56 230.47 202.94 C 233.26 202.53 236.03 201.53 236.72 198.48 C 236.04 197.91 235.36 197.35 234.68 196.78 M 238.70 197.78 C 238.01 198.81 238.45 200.12 238.73 201.22 C 241.24 202.78 242.88 199.16 242.96 197.09 C 241.53 197.26 240.08 197.35 238.70 197.78 M 244.78 203.98 C 246.24 205.22 247.84 206.27 249.56 207.13 C 248.83 205.47 248.31 203.73 248.15 201.93 C 247.02 202.61 245.89 203.29 244.78 203.98 M 239.84 207.46 C 239.53 210.63 239.03 215.02 243.15 215.78 C 244.82 214.81 245.24 212.93 245.28 211.14 C 244.57 208.72 241.96 208.07 239.84 207.46 Z" />
</g>
<g id="#dacfcaff">
<path fill="#dacfca" opacity="1.00" d=" M 247.38 195.99 C 249.45 195.64 251.88 194.55 253.78 195.99 C 254.64 198.33 254.69 200.86 254.90 203.32 C 254.58 203.65 253.93 204.32 253.61 204.65 C 250.84 202.33 247.83 199.82 247.38 195.99 Z" />
</g>
<g id="#cec4bfff">
<path fill="#cec4bf" opacity="1.00" d=" M 234.68 196.78 C 235.36 197.35 236.04 197.91 236.72 198.48 C 236.03 201.53 233.26 202.53 230.47 202.94 C 231.23 204.56 232.15 206.12 233.30 207.50 C 235.22 209.36 235.62 211.97 236.02 214.48 C 234.79 216.20 233.66 218.00 232.76 219.91 C 232.90 217.91 232.94 215.91 232.99 213.91 C 232.04 215.00 231.09 216.09 230.19 217.22 C 230.60 215.36 230.91 213.48 231.23 211.60 C 230.30 211.88 229.37 212.15 228.44 212.43 C 228.06 210.57 227.83 208.66 227.08 206.91 C 225.95 205.36 224.22 204.43 222.69 203.34 C 223.04 205.55 223.43 207.75 223.82 209.95 C 222.23 207.76 220.64 205.56 219.03 203.39 C 223.38 202.59 227.79 201.60 231.50 199.04 C 231.91 199.62 232.72 200.79 233.13 201.38 C 233.53 201.01 234.34 200.28 234.74 199.91 C 234.59 199.26 234.30 197.97 234.15 197.32 L 234.68 196.78 Z" />
</g>
<g id="#d1cbd0ff">
<path fill="#d1cbd0" opacity="1.00" d=" M 238.70 197.78 C 240.08 197.35 241.53 197.26 242.96 197.09 C 242.88 199.16 241.24 202.78 238.73 201.22 C 238.45 200.12 238.01 198.81 238.70 197.78 Z" />
<path fill="#d1cbd0" opacity="1.00" d=" M 244.78 203.98 C 245.89 203.29 247.02 202.61 248.15 201.93 C 248.31 203.73 248.83 205.47 249.56 207.13 C 247.84 206.27 246.24 205.22 244.78 203.98 Z" />
</g>
<g id="#e8e1e5ff">
<path fill="#e8e1e5" opacity="1.00" d=" M 231.50 199.04 C 232.16 198.61 233.49 197.75 234.15 197.32 C 234.30 197.97 234.59 199.26 234.74 199.91 C 234.34 200.28 233.53 201.01 233.13 201.38 C 232.72 200.79 231.91 199.62 231.50 199.04 Z" />
</g>
<g id="#736765ff">
<path fill="#736765" opacity="1.00" d=" M 144.70 202.08 C 150.14 201.36 155.61 200.88 161.03 200.02 C 162.08 200.15 163.14 200.30 164.20 200.47 C 165.61 202.95 167.15 205.36 168.74 207.74 C 168.57 209.12 168.40 210.51 168.30 211.90 C 168.12 215.49 169.03 218.99 170.11 222.37 C 171.20 222.30 172.30 222.25 173.40 222.22 C 176.71 222.22 180.00 222.63 183.31 222.78 C 180.84 226.09 176.72 226.75 172.86 226.59 C 174.22 226.19 175.57 225.74 176.93 225.34 C 172.54 225.56 168.07 225.27 163.81 226.59 C 166.24 226.76 168.68 226.88 171.12 226.78 C 164.46 227.89 157.67 229.71 150.93 228.08 C 152.39 227.89 153.84 227.66 155.29 227.40 C 152.98 226.21 150.43 226.14 148.17 227.54 C 142.36 226.50 136.86 224.14 131.00 223.32 C 125.75 222.58 120.41 222.55 115.15 223.19 C 114.45 223.20 113.05 223.22 112.36 223.22 C 112.99 222.29 113.63 221.37 114.25 220.43 C 116.40 217.13 114.99 212.96 116.26 209.40 C 117.21 207.66 118.61 206.23 119.89 204.74 C 123.00 204.47 126.12 204.30 129.23 204.06 C 127.51 204.35 125.80 204.72 124.11 205.16 C 121.74 206.67 119.22 208.26 117.72 210.72 C 116.42 213.77 117.85 217.01 119.09 219.82 C 121.67 219.59 124.34 219.19 126.20 217.20 C 127.45 217.77 128.70 218.35 129.95 218.92 C 133.61 220.63 137.61 221.30 141.59 221.77 C 141.76 220.50 141.93 219.24 142.11 217.98 C 142.68 214.18 143.15 210.35 144.18 206.65 C 144.59 205.97 145.00 205.31 145.43 204.65 C 146.33 204.67 147.25 204.69 148.16 204.71 C 144.72 209.63 143.83 215.74 144.46 221.60 C 148.24 224.34 152.98 224.75 157.50 224.86 C 158.30 224.00 159.11 223.14 159.92 222.28 C 160.99 223.16 162.04 224.08 163.22 224.83 C 164.65 224.49 166.01 223.89 167.38 223.36 C 166.94 216.26 165.97 209.12 163.70 202.35 C 163.19 202.42 162.17 202.56 161.66 202.63 C 161.30 205.83 160.95 209.04 160.46 212.23 C 157.36 210.01 159.90 205.14 157.30 202.60 C 155.43 201.64 153.24 201.98 151.21 201.87 C 149.04 201.90 146.87 201.95 144.70 202.08 Z" />
</g>
<g id="#9f908aff">
<path fill="#9f908a" opacity="1.00" d=" M 175.20 200.36 C 176.27 201.04 177.34 201.72 178.41 202.40 C 177.72 203.41 177.04 204.41 176.34 205.42 C 175.91 203.74 175.54 202.05 175.20 200.36 Z" />
</g>
<g id="#f9eee8ff">
<path fill="#f9eee8" opacity="1.00" d=" M 218.27 201.14 C 218.82 201.70 218.82 201.70 218.27 201.14 Z" />
</g>
<g id="#918984ff">
<path fill="#918984" opacity="1.00" d=" M 136.89 203.28 C 139.48 202.83 142.08 202.38 144.70 202.08 C 146.87 201.95 149.04 201.90 151.21 201.87 C 150.18 202.80 149.14 203.73 148.16 204.71 C 147.25 204.69 146.33 204.67 145.43 204.65 C 145.00 205.31 144.59 205.97 144.18 206.65 C 139.77 206.04 135.04 206.01 130.94 207.99 C 130.39 209.21 130.11 210.55 130.02 211.90 C 129.92 214.23 129.94 216.58 129.95 218.92 C 128.70 218.35 127.45 217.77 126.20 217.20 C 126.17 213.06 127.76 208.28 124.11 205.16 C 125.80 204.72 127.51 204.35 129.23 204.06 C 131.78 203.77 134.35 203.69 136.89 203.28 Z" />
</g>
<g id="#d0c4bfff">
<path fill="#d0c4bf" opacity="1.00" d=" M 151.21 201.87 C 153.24 201.98 155.43 201.64 157.30 202.60 C 159.90 205.14 157.36 210.01 160.46 212.23 C 160.95 209.04 161.30 205.83 161.66 202.63 C 162.17 202.56 163.19 202.42 163.70 202.35 C 165.97 209.12 166.94 216.26 167.38 223.36 C 165.75 223.18 164.13 223.02 162.50 222.85 C 162.07 219.37 161.41 215.90 160.11 212.62 C 158.67 216.21 157.92 220.01 157.39 223.83 C 152.97 223.86 148.68 222.79 144.46 221.60 C 143.83 215.74 144.72 209.63 148.16 204.71 C 149.14 203.73 150.18 202.80 151.21 201.87 Z" />
</g>
<g id="#8b8b91ff">
<path fill="#8b8b91" opacity="1.00" d=" M 215.85 202.43 C 216.70 202.84 217.54 203.25 218.39 203.66 C 216.69 205.07 215.09 206.57 213.48 208.07 C 214.08 213.25 216.54 217.87 219.38 222.14 C 217.59 223.33 215.49 223.82 213.38 223.99 C 213.24 224.59 212.96 225.79 212.83 226.40 C 209.59 222.84 207.31 218.51 205.45 214.11 C 204.98 211.83 204.73 209.52 204.43 207.22 C 205.21 206.80 205.99 206.39 206.79 205.99 C 207.39 211.50 208.69 218.34 214.81 220.19 C 212.79 215.75 209.50 211.78 208.99 206.77 C 210.25 208.02 211.49 209.30 212.72 210.59 C 213.34 207.72 214.31 204.93 215.85 202.43 Z" />
</g>
<g id="#715954fc">
<path fill="#715954" opacity="1.00" d=" M 109.89 207.81 C 112.33 206.92 114.47 205.16 117.15 205.01 C 115.63 206.63 114.07 208.23 112.51 209.83 C 110.05 209.93 107.60 210.06 105.15 210.19 C 104.73 211.72 104.30 213.26 103.88 214.79 C 106.40 214.93 108.92 215.03 111.42 215.31 C 111.64 215.66 112.06 216.37 112.28 216.72 C 108.26 217.43 104.17 217.44 100.11 217.20 C 100.12 216.83 100.14 216.08 100.15 215.71 C 103.59 214.07 103.34 210.20 102.03 207.24 C 102.44 207.29 103.28 207.40 103.69 207.45 C 105.72 207.85 107.84 208.54 109.89 207.81 Z" />
</g>
<g id="#bfb3acff">
<path fill="#bfb3ac" opacity="1.00" d=" M 117.15 205.01 C 117.84 204.94 119.21 204.81 119.89 204.74 C 118.61 206.23 117.21 207.66 116.26 209.40 C 114.99 212.96 116.40 217.13 114.25 220.43 C 113.94 219.85 113.33 218.67 113.03 218.09 C 112.59 215.35 112.51 212.59 112.51 209.83 C 114.07 208.23 115.63 206.63 117.15 205.01 Z" />
</g>
<g id="#d3c9c3ff">
<path fill="#d3c9c3" opacity="1.00" d=" M 117.72 210.72 C 119.22 208.26 121.74 206.67 124.11 205.16 C 127.76 208.28 126.17 213.06 126.20 217.20 C 124.34 219.19 121.67 219.59 119.09 219.82 C 117.85 217.01 116.42 213.77 117.72 210.72 Z" />
</g>
<g id="#656065ff">
<path fill="#656065" opacity="1.00" d=" M 232.60 205.77 C 236.90 204.87 241.52 204.79 245.33 207.27 C 242.85 207.56 239.66 206.32 237.70 208.25 C 237.21 210.95 237.25 213.72 237.16 216.46 C 236.87 215.96 236.30 214.97 236.02 214.48 C 235.62 211.97 235.22 209.36 233.30 207.50 C 233.13 207.07 232.78 206.21 232.60 205.77 Z" />
</g>
<g id="#d5cbc5ff">
<path fill="#d5cbc5" opacity="1.00" d=" M 130.94 207.99 C 135.04 206.01 139.77 206.04 144.18 206.65 C 143.15 210.35 142.68 214.18 142.11 217.98 C 139.59 217.93 136.98 218.24 134.55 217.41 C 132.17 216.51 131.06 214.02 130.02 211.90 C 130.11 210.55 130.39 209.21 130.94 207.99 Z" />
</g>
<g id="#9b9189ff">
<path fill="#9b9189" opacity="1.00" d=" M 168.74 207.74 C 170.72 207.72 172.69 207.69 174.66 207.65 C 175.49 209.49 176.73 211.37 176.25 213.50 C 176.31 214.72 175.48 216.36 176.82 217.17 C 180.08 219.35 184.05 220.23 187.23 222.59 C 185.92 222.67 184.61 222.73 183.31 222.78 C 180.00 222.63 176.71 222.22 173.40 222.22 C 173.53 219.56 174.57 216.48 172.93 214.09 C 171.56 213.05 169.88 212.54 168.30 211.90 C 168.40 210.51 168.57 209.12 168.74 207.74 Z" />
</g>
<g id="#d4c9c3ff">
<path fill="#d4c9c3" opacity="1.00" d=" M 239.84 207.46 C 241.96 208.07 244.57 208.72 245.28 211.14 C 245.24 212.93 244.82 214.81 243.15 215.78 C 239.03 215.02 239.53 210.63 239.84 207.46 Z" />
</g>
<g id="#605753fe">
<path fill="#605753" opacity="1.00" d=" M 246.29 207.87 C 249.87 210.15 250.80 214.24 250.99 218.20 C 250.61 218.47 249.83 219.00 249.44 219.26 C 249.06 217.77 248.69 216.28 248.31 214.79 C 245.52 219.24 244.95 225.16 240.42 228.38 C 242.06 225.53 242.34 222.23 242.70 219.04 C 242.79 216.29 245.87 214.82 245.91 212.06 C 246.05 210.66 246.18 209.27 246.29 207.87 Z" />
</g>
<g id="#a2837dff">
<path fill="#a2837d" opacity="1.00" d=" M 105.15 210.19 C 107.60 210.06 110.05 209.93 112.51 209.83 C 112.51 212.59 112.59 215.35 113.03 218.09 C 112.84 217.75 112.47 217.06 112.28 216.72 C 112.06 216.37 111.64 215.66 111.42 215.31 C 108.92 215.03 106.40 214.93 103.88 214.79 C 104.30 213.26 104.73 211.72 105.15 210.19 Z" />
</g>
<g id="#968a85ff">
<path fill="#968a85" opacity="1.00" d=" M 178.61 211.56 C 179.65 211.55 180.68 211.54 181.72 211.54 C 181.68 212.78 181.63 214.02 181.58 215.27 C 180.54 214.07 179.55 212.83 178.61 211.56 Z" />
</g>
<g id="#bcb0abff">
<path fill="#bcb0ab" opacity="1.00" d=" M 130.02 211.90 C 131.06 214.02 132.17 216.51 134.55 217.41 C 136.98 218.24 139.59 217.93 142.11 217.98 C 141.93 219.24 141.76 220.50 141.59 221.77 C 137.61 221.30 133.61 220.63 129.95 218.92 C 129.94 216.58 129.92 214.23 130.02 211.90 Z" />
</g>
<g id="#cabdb8ff">
<path fill="#cabdb8" opacity="1.00" d=" M 168.30 211.90 C 169.88 212.54 171.56 213.05 172.93 214.09 C 174.57 216.48 173.53 219.56 173.40 222.22 C 172.30 222.25 171.20 222.30 170.11 222.37 C 169.03 218.99 168.12 215.49 168.30 211.90 Z" />
</g>
<g id="#beb5b0ff">
<path fill="#beb5b0" opacity="1.00" d=" M 194.75 212.70 C 197.50 212.55 200.27 212.49 202.99 213.01 C 202.05 213.54 201.12 214.07 200.19 214.59 C 200.17 219.77 205.70 222.36 206.21 227.29 C 208.63 227.74 211.11 227.65 213.51 227.08 C 215.00 228.44 216.56 229.73 218.09 231.04 C 215.40 230.76 212.72 230.42 210.04 230.11 C 211.30 231.89 212.58 233.66 213.83 235.45 C 210.78 233.62 207.78 231.65 205.13 229.28 C 203.83 227.82 202.65 226.27 201.42 224.76 C 201.81 224.81 202.59 224.89 202.98 224.93 C 201.31 221.76 199.87 218.19 196.88 216.02 C 195.80 215.11 194.37 215.55 193.13 215.72 C 192.53 215.89 191.33 216.22 190.73 216.38 C 192.08 215.17 193.43 213.95 194.75 212.70 Z" />
</g>
<g id="#998884ff">
<path fill="#998884" opacity="1.00" d=" M 157.39 223.83 C 157.92 220.01 158.67 216.21 160.11 212.62 C 161.41 215.90 162.07 219.37 162.50 222.85 C 164.13 223.02 165.75 223.18 167.38 223.36 C 166.01 223.89 164.65 224.49 163.22 224.83 C 162.04 224.08 160.99 223.16 159.92 222.28 C 159.11 223.14 158.30 224.00 157.50 224.86 C 152.98 224.75 148.24 224.34 144.46 221.60 C 148.68 222.79 152.97 223.86 157.39 223.83 Z" />
</g>
<g id="#f0eae8ff">
<path fill="#f0eae8" opacity="1.00" d=" M 202.99 213.01 C 203.61 213.29 204.84 213.83 205.45 214.11 C 207.31 218.51 209.59 222.84 212.83 226.40 L 213.51 227.08 C 211.11 227.65 208.63 227.74 206.21 227.29 C 205.70 222.36 200.17 219.77 200.19 214.59 C 201.12 214.07 202.05 213.54 202.99 213.01 Z" />
<path fill="#f0eae8" opacity="1.00" d=" M 193.13 215.72 C 194.37 215.55 195.80 215.11 196.88 216.02 C 199.87 218.19 201.31 221.76 202.98 224.93 C 202.59 224.89 201.81 224.81 201.42 224.76 C 199.33 222.32 197.34 219.79 195.05 217.52 C 194.42 216.91 193.78 216.31 193.13 215.72 Z" />
</g>
<g id="#afa091ff">
<path fill="#afa091" opacity="1.00" d=" M 230.19 217.22 C 231.09 216.09 232.04 215.00 232.99 213.91 C 232.94 215.91 232.90 217.91 232.76 219.91 C 231.95 221.79 231.12 223.66 230.21 225.49 C 229.21 225.54 228.21 225.59 227.21 225.65 C 227.33 224.86 227.46 224.07 227.60 223.29 C 228.35 221.22 229.28 219.22 230.19 217.22 Z" />
</g>
<g id="#fffefeff">
<path fill="#fffefe" opacity="1.00" d=" M 232.76 219.91 C 233.66 218.00 234.79 216.20 236.02 214.48 C 236.30 214.97 236.87 215.96 237.16 216.46 C 238.49 223.04 234.20 229.25 229.82 233.69 C 224.80 235.72 219.16 235.60 213.83 235.45 C 212.58 233.66 211.30 231.89 210.04 230.11 C 212.72 230.42 215.40 230.76 218.09 231.04 C 219.45 231.18 220.81 231.27 222.18 231.33 C 223.03 229.91 223.90 228.50 224.78 227.10 C 226.62 226.69 228.47 226.25 230.21 225.49 C 231.12 223.66 231.95 221.79 232.76 219.91 Z" />
</g>
<g id="#807a81ff">
<path fill="#807a81" opacity="1.00" d=" M 191.39 224.12 C 191.96 221.60 193.39 219.44 195.05 217.52 C 197.34 219.79 199.33 222.32 201.42 224.76 C 202.65 226.27 203.83 227.82 205.13 229.28 C 203.94 229.65 202.74 230.03 201.56 230.43 C 200.93 233.65 199.69 237.31 201.62 240.34 C 203.91 242.43 207.16 242.86 209.90 244.13 C 207.32 245.49 204.31 246.99 201.40 245.63 C 196.81 244.42 193.72 240.62 191.45 236.68 C 191.28 236.22 190.95 235.29 190.78 234.83 C 190.48 232.62 190.34 230.38 190.35 228.15 C 190.58 227.07 190.85 226.00 191.14 224.93 C 193.69 225.92 196.35 226.62 199.06 227.00 C 198.51 225.58 198.60 223.66 197.25 222.71 C 195.34 221.21 193.21 223.46 191.39 224.12 M 192.06 228.11 C 193.57 233.71 195.86 239.59 200.56 243.27 C 199.07 239.41 199.36 234.23 195.62 231.68 C 195.98 230.82 196.34 229.96 196.71 229.10 C 195.16 228.76 193.61 228.42 192.06 228.11 Z" />
</g>
<g id="#ddd5d3ff">
<path fill="#ddd5d3" opacity="1.00" d=" M 221.96 225.54 C 222.37 223.66 222.88 221.80 223.38 219.94 C 224.78 221.07 226.18 222.19 227.60 223.29 C 227.46 224.07 227.33 224.86 227.21 225.65 C 228.21 225.59 229.21 225.54 230.21 225.49 C 228.47 226.25 226.62 226.69 224.78 227.10 C 223.90 228.50 223.03 229.91 222.18 231.33 C 222.10 229.40 221.99 227.47 221.96 225.54 Z" />
</g>
<g id="#a19ca4ff">
<path fill="#a19ca4" opacity="1.00" d=" M 191.39 224.12 C 193.21 223.46 195.34 221.21 197.25 222.71 C 198.60 223.66 198.51 225.58 199.06 227.00 C 196.35 226.62 193.69 225.92 191.14 224.93 L 191.39 224.12 Z" />
</g>
<g id="#686463ff">
<path fill="#686463" opacity="1.00" d=" M 213.38 223.99 C 215.49 223.82 217.59 223.33 219.38 222.14 C 220.20 223.31 221.08 224.42 221.96 225.54 C 221.99 227.47 222.10 229.40 222.18 231.33 C 220.81 231.27 219.45 231.18 218.09 231.04 C 216.56 229.73 215.00 228.44 213.51 227.08 L 212.83 226.40 C 212.96 225.79 213.24 224.59 213.38 223.99 Z" />
</g>
<g id="#c7c1c6ff">
<path fill="#c7c1c6" opacity="1.00" d=" M 192.06 228.11 C 193.61 228.42 195.16 228.76 196.71 229.10 C 196.34 229.96 195.98 230.82 195.62 231.68 C 199.36 234.23 199.07 239.41 200.56 243.27 C 195.86 239.59 193.57 233.71 192.06 228.11 Z" />
</g>
<g id="#00000012">
</g>
</svg>

