<?xml version="1.0" encoding="UTF-8" ?>
<!DOCTYPE svg PUBLIC "-//W3C//DTD SVG 1.1//EN" "http://www.w3.org/Graphics/SVG/1.1/DTD/svg11.dtd">
<svg width="384pt" height="384pt" viewBox="0 0 384 384" version="1.1" xmlns="http://www.w3.org/2000/svg">
<g id="#92807aff">
<path fill="#92807a" opacity="1.00" d=" M 144.99 153.68 C 147.51 153.20 150.06 152.89 152.63 152.80 C 153.60 153.60 154.53 154.47 155.61 155.12 C 156.98 154.97 158.29 154.54 159.63 154.23 C 163.43 154.45 167.21 154.77 170.98 155.30 C 171.22 155.70 171.71 156.50 171.96 156.90 C 168.94 156.95 165.91 156.94 162.90 157.14 C 161.18 157.51 158.30 157.40 158.11 159.73 C 157.97 164.41 158.77 169.07 158.96 173.74 C 159.73 173.88 161.27 174.16 162.04 174.30 C 161.83 175.36 161.63 176.42 161.45 177.49 C 160.17 177.19 158.90 176.91 157.62 176.65 C 157.56 174.22 157.34 171.80 157.02 169.40 C 156.53 165.41 155.86 161.45 154.93 157.55 C 151.63 156.23 148.55 154.24 144.99 153.68 M 151.35 155.08 C 151.70 158.33 154.28 153.44 151.35 155.08 M 161.67 155.11 C 161.45 156.51 163.84 156.70 164.48 155.75 C 164.73 154.33 162.28 154.08 161.67 155.11 Z" />
</g>
<g id="#645d5cf3">
<path fill="#645d5c" opacity="0.95" d=" M 152.63 152.80 C 155.06 152.67 157.39 153.39 159.63 154.23 C 158.29 154.54 156.98 154.97 155.61 155.12 C 154.53 154.47 153.60 153.60 152.63 152.80 Z" />
</g>
<g id="#d6cbc5ff">
<path fill="#d6cbc5" opacity="1.00" d=" M 135.55 156.02 C 138.69 155.24 141.81 154.33 144.99 153.68 C 148.55 154.24 151.63 156.23 154.93 157.55 C 155.86 161.45 156.53 165.41 157.02 169.40 C 155.69 171.44 154.43 173.54 153.24 175.67 C 149.86 175.18 146.50 174.58 143.16 173.90 C 141.76 168.89 140.49 163.74 141.07 158.49 C 143.26 157.88 145.43 157.16 147.57 156.39 C 143.61 155.49 139.56 156.06 135.55 156.02 Z" />
</g>
<g id="#424049ff">
<path fill="#424049" opacity="1.00" d=" M 214.91 154.57 C 220.90 153.01 227.09 154.24 233.08 155.18 C 231.06 155.10 229.05 155.10 227.04 155.06 C 231.79 157.06 236.58 160.04 238.11 165.30 C 238.13 165.87 238.16 167.02 238.17 167.59 C 238.18 167.93 238.20 168.60 238.20 168.94 C 233.92 160.25 224.48 154.77 214.91 154.57 Z" />
<path fill="#424049" opacity="1.00" d=" M 250.31 158.24 C 251.62 157.62 252.94 157.00 254.26 156.37 C 254.95 158.45 255.83 160.64 255.14 162.86 C 255.02 164.83 252.61 164.64 251.27 165.21 C 250.93 162.89 250.63 160.57 250.31 158.24 Z" />
</g>
<g id="#63463cff">
<path fill="#63463c" opacity="1.00" d=" M 95.29 155.16 C 99.21 154.91 103.07 155.60 106.72 157.03 C 107.57 157.79 108.41 158.57 109.21 159.39 C 108.38 160.59 107.57 161.80 106.76 163.01 C 103.60 162.49 100.40 162.10 97.19 162.09 C 96.34 161.32 95.48 160.55 94.62 159.79 C 94.65 159.30 94.69 158.32 94.72 157.83 C 94.86 157.17 95.15 155.83 95.29 155.16 Z" />
</g>
<g id="#e7e0d6ff">
<path fill="#e7e0d6" opacity="1.00" d=" M 151.35 155.08 C 154.28 153.44 151.70 158.33 151.35 155.08 Z" />
</g>
<g id="#efe8e9fa">
<path fill="#efe8e9" opacity="0.98" d=" M 161.67 155.11 C 162.28 154.08 164.73 154.33 164.48 155.75 C 163.84 156.70 161.45 156.51 161.67 155.11 Z" />
</g>
<g id="#4e4947fe">
<path fill="#4e4947" opacity="1.00" d=" M 170.98 155.30 C 173.76 155.32 176.47 156.32 177.11 159.34 C 173.49 159.36 169.88 159.40 166.26 159.45 C 166.20 159.90 166.07 160.80 166.01 161.25 C 165.37 160.43 164.73 159.61 164.10 158.78 C 163.80 158.37 163.20 157.55 162.90 157.14 C 165.91 156.94 168.94 156.95 171.96 156.90 C 171.71 156.50 171.22 155.70 170.98 155.30 Z" />
</g>
<g id="#888386ff">
<path fill="#888386" opacity="1.00" d=" M 202.55 162.16 C 206.66 159.61 210.62 156.80 214.91 154.57 C 224.48 154.77 233.92 160.25 238.20 168.94 C 238.20 168.60 238.18 167.93 238.17 167.59 C 240.63 167.35 242.52 165.79 244.13 164.05 C 243.46 163.04 242.82 162.04 242.12 161.07 C 243.20 160.55 244.27 160.02 245.35 159.50 C 245.97 160.70 246.59 161.91 247.23 163.11 C 247.78 164.12 248.32 165.14 248.87 166.17 C 249.04 166.50 249.39 167.18 249.57 167.52 C 249.95 170.54 250.29 173.59 250.29 176.64 C 248.77 178.04 249.23 179.95 249.69 181.72 C 249.83 182.40 250.10 183.75 250.24 184.42 C 252.23 184.07 254.22 183.72 256.20 183.35 C 256.38 187.34 256.56 191.32 256.75 195.31 C 256.42 195.04 255.78 194.50 255.45 194.23 C 254.82 192.08 254.55 189.85 254.23 187.65 C 254.09 189.73 253.91 191.81 253.75 193.89 C 250.26 189.32 248.15 183.46 243.06 180.33 C 246.08 186.42 250.43 191.79 252.76 198.23 C 250.98 197.69 249.22 197.15 247.45 196.58 C 245.31 192.75 242.66 189.23 239.94 185.79 C 238.32 183.04 240.36 180.88 242.44 179.22 C 241.38 177.39 240.30 175.57 239.25 173.75 C 238.71 177.08 238.32 180.65 236.06 183.34 C 234.99 185.15 232.77 186.66 232.75 188.89 C 234.22 191.47 236.37 193.57 238.09 195.99 C 238.10 198.08 238.11 200.17 238.03 202.26 C 237.15 201.45 236.28 200.63 235.45 199.78 C 234.73 198.94 234.04 198.08 233.37 197.21 C 232.60 196.19 231.83 195.16 231.03 194.18 C 233.52 193.35 230.60 190.63 229.87 193.12 C 229.15 192.55 228.42 192.00 227.68 191.46 C 227.76 190.97 227.93 190.01 228.01 189.52 C 228.35 189.81 229.03 190.37 229.37 190.65 C 229.12 185.16 235.45 182.69 236.43 177.49 C 236.91 174.34 236.85 170.88 234.73 168.29 C 229.77 161.59 221.65 155.56 212.85 157.61 C 209.96 159.21 207.23 161.08 204.29 162.60 C 203.86 162.49 202.99 162.27 202.55 162.16 M 245.88 174.08 C 245.98 175.48 246.10 176.88 246.23 178.28 C 247.61 176.71 248.41 174.77 248.97 172.78 C 247.93 173.21 246.90 173.64 245.88 174.08 Z" />
</g>
<g id="#ae765afe">
<path fill="#ae765a" opacity="1.00" d=" M 227.04 155.06 C 229.05 155.10 231.06 155.10 233.08 155.18 C 235.58 155.47 237.75 156.89 239.64 158.47 C 238.72 160.63 238.11 162.93 238.11 165.30 C 236.58 160.04 231.79 157.06 227.04 155.06 Z" />
</g>
<g id="#171514fd">
<path fill="#171514" opacity="1.00" d=" M 248.43 157.64 C 250.80 156.41 253.41 155.76 256.00 155.16 C 256.38 160.22 256.89 165.27 257.11 170.34 C 256.64 169.34 256.15 168.34 255.66 167.36 C 253.39 166.98 251.13 166.55 248.87 166.17 C 248.32 165.14 247.78 164.12 247.23 163.11 C 247.55 161.27 247.78 159.40 248.43 157.64 M 250.31 158.24 C 250.63 160.57 250.93 162.89 251.27 165.21 C 252.61 164.64 255.02 164.83 255.14 162.86 C 255.83 160.64 254.95 158.45 254.26 156.37 C 252.94 157.00 251.62 157.62 250.31 158.24 Z" />
<path fill="#171514" opacity="1.00" d=" M 236.43 214.57 C 236.81 214.13 237.58 213.24 237.96 212.80 C 237.36 215.27 236.95 218.14 234.68 219.70 C 232.13 221.97 228.55 221.75 225.38 222.10 L 225.61 221.38 C 229.60 219.80 233.65 217.98 236.43 214.57 Z" />
</g>
<g id="#9b9a9dff">
<path fill="#9b9a9d" opacity="1.00" d=" M 256.00 155.16 C 256.55 155.04 257.64 154.80 258.18 154.68 C 258.13 158.78 258.55 162.87 259.18 166.92 C 258.35 169.27 258.35 171.88 259.80 174.00 C 259.55 180.99 262.59 187.49 262.72 194.42 C 261.50 194.59 260.28 194.75 259.07 194.92 C 259.18 189.62 259.58 184.26 258.31 179.06 L 258.21 178.42 C 258.36 175.92 258.26 173.38 257.28 171.04 L 257.11 170.34 C 256.89 165.27 256.38 160.22 256.00 155.16 Z" />
<path fill="#9b9a9d" opacity="1.00" d=" M 252.52 211.40 C 253.30 210.83 254.09 210.27 254.90 209.73 C 253.33 211.89 251.68 213.99 249.86 215.94 C 247.31 218.66 244.79 221.41 242.07 223.96 C 238.59 227.05 235.44 230.48 232.39 233.99 C 234.83 230.25 238.09 227.20 241.18 224.02 C 242.32 223.08 242.64 221.63 242.74 220.23 L 242.93 221.15 C 246.27 218.04 249.28 214.60 252.52 211.40 Z" />
<path fill="#9b9a9d" opacity="1.00" d=" M 261.38 243.23 C 261.94 242.95 263.07 242.39 263.63 242.11 C 264.49 249.43 265.09 256.79 266.26 264.07 L 265.32 264.60 L 264.38 263.95 C 262.65 257.15 263.39 249.95 261.38 243.23 Z" />
</g>
<g id="#25292eff">
<path fill="#25292e" opacity="1.00" d=" M 258.18 154.68 C 259.43 159.39 259.79 164.28 260.57 169.09 C 260.94 174.36 259.34 180.54 262.86 185.05 C 264.34 187.31 267.28 186.96 269.61 187.47 C 269.86 189.52 270.10 191.56 270.36 193.61 C 272.43 193.76 274.50 193.99 276.58 194.18 C 276.78 203.41 278.89 212.47 278.94 221.70 C 278.95 223.44 278.93 225.17 278.92 226.91 C 277.81 227.38 276.71 227.85 275.60 228.32 C 275.85 229.27 276.10 230.24 276.34 231.20 C 276.42 231.51 276.56 232.13 276.64 232.43 C 276.20 233.70 275.76 234.97 275.37 236.25 C 274.88 233.17 274.50 230.07 273.93 227.00 C 271.94 229.65 272.13 232.92 272.35 236.04 L 271.53 236.55 C 271.08 233.96 270.75 231.33 269.99 228.81 C 270.57 228.39 271.72 227.55 272.30 227.13 C 274.17 223.09 274.06 218.26 271.95 214.33 C 271.65 217.73 272.10 221.24 271.02 224.54 L 270.53 223.63 C 269.84 221.29 269.53 218.86 269.43 216.43 C 272.70 211.84 273.44 205.85 270.78 200.77 C 270.11 204.22 270.84 207.73 270.57 211.20 C 270.15 211.46 269.30 211.99 268.87 212.25 C 268.27 206.25 268.44 200.24 269.57 194.31 C 267.86 194.27 266.16 194.24 264.47 194.22 C 264.57 196.38 264.66 198.54 264.91 200.69 C 265.02 205.96 265.11 211.25 264.20 216.46 C 262.72 216.47 261.24 216.46 259.77 216.46 C 257.99 216.46 256.22 216.48 254.45 216.49 C 254.22 217.99 253.99 219.50 253.75 221.01 C 252.04 219.68 250.91 217.80 249.86 215.94 C 251.68 213.99 253.33 211.89 254.90 209.73 C 254.09 210.27 253.30 210.83 252.52 211.40 C 252.36 209.23 252.25 207.06 252.04 204.89 C 252.80 206.21 253.64 207.48 254.48 208.75 C 255.17 205.55 255.31 202.25 254.78 199.01 C 255.94 199.91 257.07 200.88 258.37 201.61 C 259.90 201.64 261.40 201.29 262.92 201.06 C 262.66 199.30 262.38 197.54 262.07 195.79 C 260.39 195.86 258.71 195.93 257.04 195.98 L 256.75 195.31 C 256.56 191.32 256.38 187.34 256.20 183.35 C 256.65 183.45 257.55 183.65 258.00 183.75 C 258.09 182.18 258.19 180.62 258.31 179.06 C 259.58 184.26 259.18 189.62 259.07 194.92 C 260.28 194.75 261.50 194.59 262.72 194.42 C 262.59 187.49 259.55 180.99 259.80 174.00 C 260.41 171.65 260.28 169.10 259.18 166.92 C 258.55 162.87 258.13 158.78 258.18 154.68 M 275.26 211.92 C 276.62 208.00 275.40 203.77 274.68 199.84 C 272.63 203.44 272.98 208.43 275.26 211.92 M 261.09 201.67 C 261.33 205.20 261.12 208.93 262.40 212.27 C 262.71 212.48 263.34 212.89 263.65 213.09 C 263.33 209.58 263.20 206.02 262.47 202.56 C 262.12 202.34 261.43 201.89 261.09 201.67 M 260.13 213.41 C 260.72 209.51 260.40 205.48 258.98 201.79 C 257.64 205.51 258.01 210.04 260.13 213.41 M 274.60 214.76 C 274.88 217.92 274.23 222.65 277.60 224.27 C 277.64 221.26 277.49 218.25 277.45 215.24 C 276.74 215.12 275.32 214.88 274.60 214.76 Z" />
<path fill="#25292e" opacity="1.00" d=" M 281.06 214.99 C 289.81 220.83 297.93 227.57 306.63 233.48 C 308.30 245.76 303.37 258.84 293.52 266.49 C 289.00 270.26 283.18 271.75 277.63 273.27 C 278.07 272.03 277.74 271.03 276.65 270.28 C 290.98 269.90 302.02 256.88 304.42 243.47 C 304.94 239.49 306.62 234.07 302.61 231.36 C 295.51 225.80 288.00 220.76 281.06 214.99 Z" />
<path fill="#25292e" opacity="1.00" d=" M 265.32 264.60 L 266.26 264.07 L 267.31 263.48 C 267.80 267.97 268.30 272.47 268.55 276.98 C 266.97 276.34 265.44 275.60 263.85 275.02 C 264.86 274.25 264.87 272.68 263.89 271.88 C 264.33 271.76 265.21 271.51 265.65 271.38 C 265.68 269.11 265.46 266.86 265.32 264.60 Z" />
</g>
<g id="#82726dff">
<path fill="#82726d" opacity="1.00" d=" M 124.45 157.87 C 128.15 157.26 131.83 156.53 135.55 156.02 C 139.56 156.06 143.61 155.49 147.57 156.39 C 145.43 157.16 143.26 157.88 141.07 158.49 C 140.49 163.74 141.76 168.89 143.16 173.90 C 143.46 175.05 143.76 176.20 144.06 177.36 C 143.28 177.32 141.73 177.24 140.96 177.20 C 140.69 176.06 140.45 174.91 140.22 173.77 C 139.92 170.77 139.63 167.77 139.19 164.79 C 138.89 162.81 138.41 160.88 137.97 158.94 C 134.08 159.27 130.17 159.59 126.34 160.38 L 125.80 161.06 C 124.84 162.28 123.87 163.50 122.90 164.73 C 122.27 163.51 121.66 162.30 121.00 161.11 C 118.40 160.75 115.78 160.54 113.17 160.31 C 112.79 163.38 112.43 166.53 113.12 169.59 C 113.95 170.90 114.85 172.16 115.68 173.47 C 116.22 174.43 116.72 175.40 117.21 176.39 C 116.34 176.37 114.61 176.32 113.74 176.30 C 111.45 176.05 109.14 175.86 106.87 175.49 C 106.68 175.04 106.31 174.15 106.12 173.71 L 107.25 173.55 C 107.75 173.45 108.74 173.27 109.23 173.18 C 109.54 173.01 110.15 172.67 110.46 172.50 C 110.56 168.15 111.63 163.32 109.21 159.39 C 108.41 158.57 107.57 157.79 106.72 157.03 C 110.04 157.42 113.37 157.70 116.71 157.75 C 117.16 158.46 118.07 159.88 118.53 160.59 C 120.49 159.66 122.49 158.81 124.45 157.87 Z" />
</g>
<g id="#cfc4bdff">
<path fill="#cfc4bd" opacity="1.00" d=" M 158.11 159.73 C 158.30 157.40 161.18 157.51 162.90 157.14 C 163.20 157.55 163.80 158.37 164.10 158.78 C 164.02 162.09 163.60 165.37 163.23 168.65 C 162.85 170.54 162.41 172.41 162.04 174.30 C 161.27 174.16 159.73 173.88 158.96 173.74 C 158.77 169.07 157.97 164.41 158.11 159.73 Z" />
</g>
<g id="#484e52ff">
<path fill="#484e52" opacity="1.00" d=" M 212.85 157.61 C 221.65 155.56 229.77 161.59 234.73 168.29 C 236.85 170.88 236.91 174.34 236.43 177.49 C 233.08 177.12 229.73 176.85 226.36 176.70 C 226.87 175.33 227.38 173.96 227.89 172.59 C 225.46 172.16 223.46 173.51 221.74 175.05 C 219.49 174.90 217.24 174.73 214.99 174.73 L 214.08 174.78 C 216.17 170.84 218.44 166.99 220.03 162.82 C 216.61 163.47 213.34 164.81 210.66 167.05 C 210.62 166.58 210.55 165.64 210.51 165.17 C 212.62 163.64 214.61 161.95 216.45 160.10 C 215.86 160.04 214.68 159.93 214.09 159.87 C 214.65 159.27 215.21 158.67 215.77 158.07 C 215.04 157.96 213.58 157.72 212.85 157.61 M 232.24 171.25 C 232.79 171.80 232.79 171.80 232.24 171.25 Z" />
</g>
<g id="#afa9a8f5">
<path fill="#afa9a8" opacity="0.96" d=" M 116.71 157.75 C 119.29 157.79 121.87 157.87 124.45 157.87 C 122.49 158.81 120.49 159.66 118.53 160.59 C 118.07 159.88 117.16 158.46 116.71 157.75 Z" />
</g>
<g id="#3c3f3fff">
<path fill="#3c3f3f" opacity="1.00" d=" M 204.29 162.60 C 207.23 161.08 209.96 159.21 212.85 157.61 C 213.58 157.72 215.04 157.96 215.77 158.07 C 215.21 158.67 214.65 159.27 214.09 159.87 C 212.58 161.40 211.23 163.13 210.51 165.17 C 210.55 165.64 210.62 166.58 210.66 167.05 C 207.55 170.10 205.46 173.95 203.38 177.73 C 203.14 178.14 202.68 178.95 202.44 179.36 C 200.35 177.46 197.29 175.92 196.66 172.95 C 196.83 168.26 200.90 165.20 204.29 162.60 Z" />
</g>
<g id="#d3c8c2ff">
<path fill="#d3c8c2" opacity="1.00" d=" M 126.34 160.38 C 130.17 159.59 134.08 159.27 137.97 158.94 C 138.41 160.88 138.89 162.81 139.19 164.79 C 139.15 167.50 139.53 170.60 137.90 172.95 C 135.31 174.49 131.97 173.79 129.29 172.83 C 124.57 171.11 125.96 164.99 125.80 161.06 L 126.34 160.38 Z" />
</g>
<g id="#a29992ff">
<path fill="#a29992" opacity="1.00" d=" M 164.10 158.78 C 164.73 159.61 165.37 160.43 166.01 161.25 C 165.58 165.40 165.22 169.55 164.61 173.67 C 166.36 172.07 168.21 170.52 170.38 169.49 C 171.45 169.06 172.51 168.63 173.59 168.21 C 175.13 168.87 176.68 169.53 178.24 170.19 C 177.10 172.04 175.96 173.89 174.85 175.76 C 171.34 175.38 167.67 175.22 164.44 176.87 C 164.27 174.10 163.69 171.38 163.23 168.65 C 163.60 165.37 164.02 162.09 164.10 158.78 Z" />
</g>
<g id="#ccc0b8ff">
<path fill="#ccc0b8" opacity="1.00" d=" M 166.26 159.45 C 169.88 159.40 173.49 159.36 177.11 159.34 C 179.19 159.40 181.27 159.59 183.35 159.73 C 179.64 161.08 175.64 162.02 172.42 164.39 C 171.37 165.91 170.97 167.76 170.38 169.49 C 168.21 170.52 166.36 172.07 164.61 173.67 C 165.22 169.55 165.58 165.40 166.01 161.25 C 166.07 160.80 166.20 159.90 166.26 159.45 Z" />
</g>
<g id="#4b3221ff">
<path fill="#4b3221" opacity="1.00" d=" M 186.29 159.70 C 188.52 159.45 190.73 158.93 192.98 158.91 C 196.18 159.30 199.03 160.95 201.87 162.35 C 198.42 163.46 194.78 163.59 191.20 164.02 C 188.77 164.71 186.41 165.64 184.19 166.83 C 183.26 167.58 182.36 168.37 181.49 169.18 C 180.31 170.91 179.25 172.74 178.37 174.64 C 177.52 176.52 176.84 178.48 176.30 180.47 C 175.91 181.86 175.57 183.27 175.22 184.67 C 174.45 187.78 173.56 190.99 171.45 193.49 C 168.84 197.17 163.75 194.66 160.04 194.97 C 161.32 188.89 164.02 183.12 164.44 176.87 C 167.67 175.22 171.34 175.38 174.85 175.76 C 175.96 173.89 177.10 172.04 178.24 170.19 C 176.68 169.53 175.13 168.87 173.59 168.21 C 178.33 166.26 182.93 163.68 186.29 159.70 Z" />
</g>
<g id="#eba582ff">
<path fill="#eba582" opacity="1.00" d=" M 238.11 165.30 C 238.11 162.93 238.72 160.63 239.64 158.47 C 240.50 159.30 241.33 160.17 242.12 161.07 C 242.82 162.04 243.46 163.04 244.13 164.05 C 242.52 165.79 240.63 167.35 238.17 167.59 C 238.16 167.02 238.13 165.87 238.11 165.30 Z" />
</g>
<g id="#9b7a72ff">
<path fill="#9b7a72" opacity="1.00" d=" M 94.62 159.79 C 95.48 160.55 96.34 161.32 97.19 162.09 C 100.40 162.10 103.60 162.49 106.76 163.01 C 107.23 165.26 107.68 167.52 108.25 169.74 C 104.94 169.05 101.61 168.38 98.24 168.11 C 97.13 166.23 95.92 164.42 94.65 162.65 C 94.64 161.94 94.63 160.51 94.62 159.79 Z" />
</g>
<g id="#cec4bcff">
<path fill="#cec4bc" opacity="1.00" d=" M 106.76 163.01 C 107.57 161.80 108.38 160.59 109.21 159.39 C 111.63 163.32 110.56 168.15 110.46 172.50 C 110.15 172.67 109.54 173.01 109.23 173.18 C 108.89 172.03 108.56 170.89 108.25 169.74 C 107.68 167.52 107.23 165.26 106.76 163.01 Z" />
</g>
<g id="#d9cec9ff">
<path fill="#d9cec9" opacity="1.00" d=" M 113.17 160.31 C 115.78 160.54 118.40 160.75 121.00 161.11 C 121.63 164.30 122.02 167.54 122.17 170.79 C 119.15 170.40 116.13 170.01 113.12 169.59 C 112.43 166.53 112.79 163.38 113.17 160.31 Z" />
</g>
<g id="#c88e72ff">
<path fill="#c88e72" opacity="1.00" d=" M 183.35 159.73 C 184.08 159.72 185.55 159.71 186.29 159.70 C 182.93 163.68 178.33 166.26 173.59 168.21 C 172.51 168.63 171.45 169.06 170.38 169.49 C 170.97 167.76 171.37 165.91 172.42 164.39 C 175.64 162.02 179.64 161.08 183.35 159.73 Z" />
</g>
<g id="#8f8c8bff">
<path fill="#8f8c8b" opacity="1.00" d=" M 214.09 159.87 C 214.68 159.93 215.86 160.04 216.45 160.10 C 214.61 161.95 212.62 163.64 210.51 165.17 C 211.23 163.13 212.58 161.40 214.09 159.87 Z" />
</g>
<g id="#a8958fff">
<path fill="#a8958f" opacity="1.00" d=" M 121.00 161.11 C 121.66 162.30 122.27 163.51 122.90 164.73 C 123.87 163.50 124.84 162.28 125.80 161.06 C 125.96 164.99 124.57 171.11 129.29 172.83 C 131.97 173.79 135.31 174.49 137.90 172.95 C 139.53 170.60 139.15 167.50 139.19 164.79 C 139.63 167.77 139.92 170.77 140.22 173.77 C 140.14 174.17 139.99 174.96 139.92 175.36 C 136.30 175.10 132.69 174.61 129.06 174.65 C 127.18 173.48 125.40 171.07 122.92 171.89 C 120.51 172.42 118.11 173.00 115.68 173.47 C 114.85 172.16 113.95 170.90 113.12 169.59 C 116.13 170.01 119.15 170.40 122.17 170.79 C 122.02 167.54 121.63 164.30 121.00 161.11 Z" />
</g>
<g id="#a7968fff">
<path fill="#a7968f" opacity="1.00" d=" M 201.87 162.35 L 202.55 162.16 C 202.99 162.27 203.86 162.49 204.29 162.60 C 200.90 165.20 196.83 168.26 196.66 172.95 C 197.29 175.92 200.35 177.46 202.44 179.36 C 202.47 179.72 202.52 180.45 202.54 180.81 C 201.66 181.30 200.79 181.79 199.92 182.28 L 199.30 181.77 C 195.83 179.29 193.87 175.45 192.25 171.63 C 194.18 169.62 195.77 167.33 197.20 164.95 C 191.96 167.06 188.35 171.48 184.72 175.60 C 183.44 173.57 182.34 171.42 181.49 169.18 C 182.36 168.37 183.26 167.58 184.19 166.83 C 184.57 167.87 184.96 168.90 185.34 169.94 C 187.49 168.95 189.63 167.95 191.77 166.96 C 191.58 165.98 191.39 165.00 191.20 164.02 C 194.78 163.59 198.42 163.46 201.87 162.35 Z" />
</g>
<g id="#f8f8f9ff">
<path fill="#f8f8f9" opacity="1.00" d=" M 94.65 162.65 C 95.92 164.42 97.13 166.23 98.24 168.11 C 97.41 168.10 95.75 168.10 94.92 168.10 C 94.78 166.29 94.71 164.47 94.65 162.65 Z" />
<path fill="#f8f8f9" opacity="1.00" d=" M 264.47 194.22 C 266.16 194.24 267.86 194.27 269.57 194.31 C 268.44 200.24 268.27 206.25 268.87 212.25 C 269.30 211.99 270.15 211.46 270.57 211.20 C 270.84 207.73 270.11 204.22 270.78 200.77 C 273.44 205.85 272.70 211.84 269.43 216.43 C 268.87 216.46 267.75 216.51 267.19 216.54 C 266.92 214.68 266.64 212.81 266.45 210.94 C 266.26 207.49 265.72 204.06 264.91 200.69 C 264.66 198.54 264.57 196.38 264.47 194.22 Z" />
</g>
<g id="#858185ff">
<path fill="#858185" opacity="1.00" d=" M 210.66 167.05 C 213.34 164.81 216.61 163.47 220.03 162.82 C 218.44 166.99 216.17 170.84 214.08 174.78 C 212.84 177.02 211.58 179.25 210.30 181.47 C 210.43 176.46 214.57 172.21 213.45 167.18 C 209.41 170.73 207.15 175.68 205.89 180.81 C 207.28 181.31 208.68 181.81 210.08 182.30 C 210.49 183.67 210.87 185.05 211.24 186.44 C 209.69 185.77 208.02 185.32 206.62 184.35 C 204.97 182.48 204.33 179.98 203.38 177.73 C 205.46 173.95 207.55 170.10 210.66 167.05 Z" />
</g>
<g id="#74635dff">
<path fill="#74635d" opacity="1.00" d=" M 184.19 166.83 C 186.41 165.64 188.77 164.71 191.20 164.02 C 191.39 165.00 191.58 165.98 191.77 166.96 C 189.63 167.95 187.49 168.95 185.34 169.94 C 184.96 168.90 184.57 167.87 184.19 166.83 Z" />
</g>
<g id="#766961ff">
<path fill="#766961" opacity="1.00" d=" M 184.72 175.60 C 188.35 171.48 191.96 167.06 197.20 164.95 C 195.77 167.33 194.18 169.62 192.25 171.63 C 190.08 173.94 187.97 176.36 186.55 179.22 C 185.99 179.40 184.86 179.74 184.30 179.91 C 183.87 179.31 183.00 178.12 182.57 177.53 C 180.61 179.19 179.14 181.29 178.30 183.72 C 179.48 184.29 180.67 184.86 181.85 185.43 C 181.70 185.75 181.39 186.37 181.24 186.68 C 179.47 186.22 177.74 185.65 176.03 185.01 L 175.22 184.67 C 175.57 183.27 175.91 181.86 176.30 180.47 C 178.42 179.16 178.84 176.95 178.37 174.64 C 179.25 172.74 180.31 170.91 181.49 169.18 C 182.34 171.42 183.44 173.57 184.72 175.60 Z" />
</g>
<g id="#0000000b">
</g>
<g id="#535357e5">
<path fill="#535357" opacity="0.90" d=" M 259.18 166.92 C 260.28 169.10 260.41 171.65 259.80 174.00 C 258.35 171.88 258.35 169.27 259.18 166.92 Z" />
</g>
<g id="#65473eff">
<path fill="#65473e" opacity="1.00" d=" M 94.92 168.10 C 95.75 168.10 97.41 168.10 98.24 168.11 C 101.61 168.38 104.94 169.05 108.25 169.74 C 108.56 170.89 108.89 172.03 109.23 173.18 C 108.74 173.27 107.75 173.45 107.25 173.55 C 103.97 171.46 100.02 172.45 96.41 172.74 C 96.11 172.31 95.50 171.45 95.19 171.03 C 95.13 170.30 94.99 168.83 94.92 168.10 Z" />
</g>
<g id="#c5c0c0ff">
<path fill="#c5c0c0" opacity="1.00" d=" M 205.89 180.81 C 207.15 175.68 209.41 170.73 213.45 167.18 C 214.57 172.21 210.43 176.46 210.30 181.47 L 210.08 182.30 C 208.68 181.81 207.28 181.31 205.89 180.81 Z" />
</g>
<g id="#716c6cff">
<path fill="#716c6c" opacity="1.00" d=" M 249.57 167.52 C 252.28 172.57 254.01 178.07 256.20 183.35 C 254.22 183.72 252.23 184.07 250.24 184.42 C 250.10 183.75 249.83 182.40 249.69 181.72 C 250.00 180.04 250.25 178.35 250.29 176.64 C 250.29 173.59 249.95 170.54 249.57 167.52 Z" />
<path fill="#716c6c" opacity="1.00" d=" M 155.68 233.41 C 154.46 230.55 155.30 227.44 155.80 224.53 C 156.76 228.40 156.94 232.60 158.92 236.13 C 162.13 239.65 167.13 240.55 171.32 242.42 C 164.90 243.28 158.04 239.49 155.68 233.41 Z" />
</g>
<g id="#685d58ef">
<path fill="#685d58" opacity="0.94" d=" M 163.23 168.65 C 163.69 171.38 164.27 174.10 164.44 176.87 C 164.02 183.12 161.32 188.89 160.04 194.97 L 159.28 195.25 C 159.24 191.00 160.01 186.81 161.69 182.91 C 161.56 182.45 161.28 181.54 161.14 181.09 C 160.85 180.86 160.26 180.41 159.97 180.18 C 157.96 180.48 155.97 180.94 153.96 181.29 L 153.12 181.13 C 152.74 181.02 151.98 180.79 151.60 180.68 C 154.92 177.78 156.39 173.64 157.02 169.40 C 157.34 171.80 157.56 174.22 157.62 176.65 C 157.62 177.23 157.62 178.38 157.62 178.96 C 159.58 178.86 161.55 178.69 163.41 178.01 C 162.92 177.88 161.94 177.62 161.45 177.49 C 161.63 176.42 161.83 175.36 162.04 174.30 C 162.41 172.41 162.85 170.54 163.23 168.65 Z" />
</g>
<g id="#ada29dff">
<path fill="#ada29d" opacity="1.00" d=" M 153.24 175.67 C 154.43 173.54 155.69 171.44 157.02 169.40 C 156.39 173.64 154.92 177.78 151.60 180.68 C 151.00 180.51 149.81 180.17 149.22 180.00 C 149.38 179.00 149.54 178.00 149.71 177.00 C 146.68 177.73 143.68 178.52 140.65 179.23 C 139.97 179.22 138.60 179.20 137.92 179.19 L 137.09 179.07 C 133.56 178.37 130.02 177.66 126.47 177.08 C 131.21 175.37 136.13 176.97 140.96 177.20 C 141.73 177.24 143.28 177.32 144.06 177.36 C 143.76 176.20 143.46 175.05 143.16 173.90 C 146.50 174.58 149.86 175.18 153.24 175.67 Z" />
</g>
<g id="#28211db2">
<path fill="#28211d" opacity="0.70" d=" M 95.19 171.03 C 95.50 171.45 96.11 172.31 96.41 172.74 C 100.02 172.45 103.97 171.46 107.25 173.55 L 106.12 173.71 C 102.61 172.84 99.00 173.23 95.47 173.74 C 95.40 173.06 95.26 171.71 95.19 171.03 Z" />
</g>
<g id="#69605dff">
<path fill="#69605d" opacity="1.00" d=" M 122.92 171.89 C 125.40 171.07 127.18 173.48 129.06 174.65 C 126.73 174.75 124.41 174.96 122.09 175.12 C 122.36 174.04 122.64 172.97 122.92 171.89 Z" />
</g>
<g id="#c0c5ccff">
<path fill="#c0c5cc" opacity="1.00" d=" M 232.24 171.25 C 232.79 171.80 232.79 171.80 232.24 171.25 Z" />
</g>
<g id="#212021b5">
<path fill="#212021" opacity="0.71" d=" M 257.28 171.04 C 258.26 173.38 258.36 175.92 258.21 178.42 C 256.49 176.30 256.32 173.52 257.28 171.04 Z" />
</g>
<g id="#8b8382ff">
<path fill="#8b8382" opacity="1.00" d=" M 115.68 173.47 C 118.11 173.00 120.51 172.42 122.92 171.89 C 122.64 172.97 122.36 174.04 122.09 175.12 C 124.41 174.96 126.73 174.75 129.06 174.65 C 132.69 174.61 136.30 175.10 139.92 175.36 C 139.99 174.96 140.14 174.17 140.22 173.77 C 140.45 174.91 140.69 176.06 140.96 177.20 C 136.13 176.97 131.21 175.37 126.47 177.08 C 123.37 176.94 120.30 176.57 117.21 176.39 C 116.72 175.40 116.22 174.43 115.68 173.47 Z" />
</g>
<g id="#e2a07eff">
<path fill="#e2a07e" opacity="1.00" d=" M 186.55 179.22 C 187.97 176.36 190.08 173.94 192.25 171.63 C 193.87 175.45 195.83 179.29 199.30 181.77 C 197.57 183.81 195.90 185.90 194.41 188.12 C 189.95 194.20 190.95 202.19 189.63 209.24 C 188.07 207.23 186.41 205.30 184.83 203.30 C 187.14 199.83 189.05 196.09 190.18 192.06 C 187.35 191.40 184.45 191.57 181.72 192.56 C 183.08 190.63 184.69 188.84 185.64 186.66 C 186.35 184.25 186.26 181.70 186.55 179.22 Z" />
</g>
<g id="#3a3d3eff">
<path fill="#3a3d3e" opacity="1.00" d=" M 221.74 175.05 C 223.46 173.51 225.46 172.16 227.89 172.59 C 227.38 173.96 226.87 175.33 226.36 176.70 C 229.73 176.85 233.08 177.12 236.43 177.49 C 235.45 182.69 229.12 185.16 229.37 190.65 C 229.03 190.37 228.35 189.81 228.01 189.52 C 225.93 187.96 223.38 187.28 220.92 186.61 C 218.53 185.93 216.16 185.21 213.78 184.53 C 214.02 181.24 214.52 177.99 214.99 174.73 C 217.24 174.73 219.49 174.90 221.74 175.05 Z" />
<path fill="#3a3d3e" opacity="1.00" d=" M 230.87 259.48 C 231.09 259.03 231.53 258.11 231.75 257.66 C 238.72 267.42 250.84 275.17 263.21 272.05 C 263.21 272.75 263.21 274.13 263.20 274.82 C 259.48 274.50 255.72 274.65 252.03 274.02 C 247.45 273.22 243.26 271.07 239.24 268.84 C 236.21 265.95 233.26 262.93 230.87 259.48 Z" />
</g>
<g id="#cdc6c7ff">
<path fill="#cdc6c7" opacity="1.00" d=" M 245.88 174.08 C 246.90 173.64 247.93 173.21 248.97 172.78 C 248.41 174.77 247.61 176.71 246.23 178.28 C 246.10 176.88 245.98 175.48 245.88 174.08 Z" />
</g>
<g id="#6b5b57fb">
<path fill="#6b5b57" opacity="1.00" d=" M 239.25 173.75 C 240.30 175.57 241.38 177.39 242.44 179.22 C 240.36 180.88 238.32 183.04 239.94 185.79 C 238.70 184.88 237.37 184.12 236.06 183.34 C 238.32 180.65 238.71 177.08 239.25 173.75 Z" />
</g>
<g id="#c7bbb4ff">
<path fill="#c7bbb4" opacity="1.00" d=" M 176.30 180.47 C 176.84 178.48 177.52 176.52 178.37 174.64 C 178.84 176.95 178.42 179.16 176.30 180.47 Z" />
<path fill="#c7bbb4" opacity="1.00" d=" M 190.35 222.28 C 190.83 221.90 191.78 221.14 192.26 220.77 C 194.21 222.34 196.19 223.90 197.91 225.73 C 199.26 227.64 200.39 229.69 201.50 231.75 C 199.79 230.63 197.98 229.66 196.20 228.65 C 195.05 228.00 193.86 227.42 192.67 226.85 C 190.85 229.66 188.89 232.40 186.72 234.96 C 185.91 234.21 185.07 233.51 184.39 232.64 C 185.12 231.93 185.88 231.23 186.66 230.57 C 188.51 229.08 189.96 227.18 191.28 225.23 C 188.88 225.74 186.50 226.33 184.12 226.94 C 186.22 225.42 188.31 223.88 190.35 222.28 Z" />
</g>
<g id="#757174ff">
<path fill="#757174" opacity="1.00" d=" M 210.30 181.47 C 211.58 179.25 212.84 177.02 214.08 174.78 L 214.99 174.73 C 214.52 177.99 214.02 181.24 213.78 184.53 C 213.73 185.46 213.68 186.39 213.66 187.32 C 214.72 188.75 215.82 190.23 216.25 191.99 C 212.27 191.62 209.23 188.88 205.61 187.59 C 203.27 187.76 201.42 189.55 199.44 190.67 C 199.22 194.07 198.60 197.44 197.68 200.72 C 197.29 202.31 196.89 203.91 196.85 205.56 C 197.63 206.58 198.62 207.41 199.54 208.29 C 199.87 210.51 199.90 213.61 202.44 214.49 C 207.01 214.69 210.37 210.85 212.26 207.09 C 212.81 207.70 213.36 208.31 213.92 208.92 C 214.27 208.49 214.97 207.62 215.31 207.19 L 215.70 206.75 C 216.51 207.12 217.32 207.50 218.14 207.88 C 218.34 208.91 218.55 209.93 218.76 210.96 C 221.30 209.05 223.57 206.74 225.01 203.87 C 225.06 203.50 225.16 202.75 225.20 202.37 C 225.36 201.08 225.52 199.79 225.69 198.50 C 226.58 201.15 227.26 203.86 227.72 206.63 C 227.98 206.97 228.49 207.67 228.75 208.02 C 229.53 204.03 230.19 199.92 229.25 195.89 C 228.25 195.51 227.25 195.13 226.26 194.74 C 225.85 194.66 225.04 194.52 224.63 194.44 C 223.64 191.72 222.25 189.17 220.92 186.61 C 223.38 187.28 225.93 187.96 228.01 189.52 C 227.93 190.01 227.76 190.97 227.68 191.46 C 228.42 192.00 229.15 192.55 229.87 193.12 C 230.16 193.38 230.74 193.91 231.03 194.18 C 231.83 195.16 232.60 196.19 233.37 197.21 C 232.86 197.51 232.35 197.81 231.84 198.11 C 231.77 201.88 231.41 205.64 230.82 209.37 C 233.84 207.04 235.03 203.44 235.45 199.78 C 236.28 200.63 237.15 201.45 238.03 202.26 C 238.14 207.01 235.23 210.91 232.79 214.71 C 234.00 214.66 235.21 214.61 236.43 214.57 C 233.65 217.98 229.60 219.80 225.61 221.38 C 226.19 218.52 227.92 216.15 229.77 213.97 C 225.58 216.83 220.87 218.79 215.93 219.91 C 213.37 220.28 211.91 222.52 210.37 224.34 C 209.78 223.21 209.15 222.11 208.52 221.01 C 209.04 220.54 210.08 219.58 210.59 219.11 C 209.37 218.65 208.13 218.23 206.89 217.84 C 207.18 219.07 207.48 220.30 207.81 221.53 C 206.28 222.69 203.82 223.61 204.26 225.99 C 205.17 232.19 210.37 236.84 215.95 239.14 C 216.31 238.57 217.04 237.44 217.40 236.87 C 217.83 237.16 218.68 237.72 219.10 238.00 C 219.53 240.76 220.17 243.48 220.92 246.16 C 220.51 246.34 219.70 246.69 219.29 246.87 C 214.56 242.22 208.90 238.55 204.82 233.25 C 203.63 233.91 202.45 234.57 201.26 235.22 C 200.70 240.12 200.78 245.34 197.92 249.60 C 194.88 253.32 190.98 256.80 185.97 257.28 C 182.37 258.26 179.37 255.72 176.79 253.61 C 179.67 253.28 182.75 253.75 185.45 252.49 C 188.59 250.07 188.58 245.75 188.66 242.16 C 184.05 243.08 179.50 244.28 174.84 244.90 C 177.34 244.13 179.77 243.18 182.20 242.22 C 180.38 242.17 178.55 242.12 176.73 242.15 C 178.07 241.41 179.38 240.63 180.73 239.93 C 183.48 239.52 186.45 239.03 187.71 236.17 C 188.08 235.68 188.81 234.71 189.18 234.22 C 190.33 236.42 191.61 238.75 191.41 241.33 C 191.29 246.61 187.68 250.82 185.76 255.51 C 190.74 254.68 193.56 250.17 196.32 246.43 C 198.22 244.05 198.30 240.92 198.10 238.02 C 197.31 236.13 196.44 234.29 195.58 232.44 C 195.45 232.10 195.19 231.43 195.05 231.09 C 195.44 230.28 195.82 229.46 196.20 228.65 C 197.98 229.66 199.79 230.63 201.50 231.75 C 200.39 229.69 199.26 227.64 197.91 225.73 C 198.53 224.41 199.15 223.10 199.78 221.79 C 197.47 218.69 194.81 215.87 191.79 213.46 L 192.25 212.95 C 193.51 211.59 194.80 210.25 196.07 208.91 C 194.66 208.50 193.26 208.09 191.84 207.73 C 192.68 206.65 192.71 205.61 191.92 204.62 C 190.30 204.48 190.98 206.77 191.13 207.70 C 190.76 208.08 190.01 208.85 189.63 209.24 C 190.95 202.19 189.95 194.20 194.41 188.12 C 197.65 188.41 200.23 186.52 202.24 184.19 C 201.46 183.56 200.69 182.92 199.92 182.28 C 200.79 181.79 201.66 181.30 202.54 180.81 C 202.52 180.45 202.47 179.72 202.44 179.36 C 202.68 178.95 203.14 178.14 203.38 177.73 C 204.33 179.98 204.97 182.48 206.62 184.35 C 208.02 185.32 209.69 185.77 211.24 186.44 C 210.87 185.05 210.49 183.67 210.08 182.30 L 210.30 181.47 Z" />
</g>
<g id="#02020294">
<path fill="#020202" opacity="0.58" d=" M 113.74 176.30 C 114.61 176.32 116.34 176.37 117.21 176.39 C 120.30 176.57 123.37 176.94 126.47 177.08 C 130.02 177.66 133.56 178.37 137.09 179.07 C 129.34 177.92 121.27 178.76 113.74 176.30 Z" />
<path fill="#020202" opacity="0.58" d=" M 278.94 221.70 C 282.90 224.87 281.70 230.16 280.36 234.32 C 279.84 232.40 279.36 230.47 278.89 228.54 C 277.84 226.25 276.04 229.94 276.34 231.20 C 276.10 230.24 275.85 229.27 275.60 228.32 C 276.71 227.85 277.81 227.38 278.92 226.91 C 278.93 225.17 278.95 223.44 278.94 221.70 Z" />
</g>
<g id="#c9c2c0fe">
<path fill="#c9c2c0" opacity="1.00" d=" M 140.65 179.23 C 143.68 178.52 146.68 177.73 149.71 177.00 C 149.54 178.00 149.38 179.00 149.22 180.00 C 146.38 179.59 143.51 179.41 140.65 179.23 Z" />
</g>
<g id="#fefdfcff">
<path fill="#fefdfc" opacity="1.00" d=" M 157.62 178.96 C 157.62 178.38 157.62 177.23 157.62 176.65 C 158.90 176.91 160.17 177.19 161.45 177.49 C 161.94 177.62 162.92 177.88 163.41 178.01 C 161.55 178.69 159.58 178.86 157.62 178.96 Z" />
<path fill="#fefdfc" opacity="1.00" d=" M 166.49 212.29 C 168.52 209.47 170.38 205.78 174.12 205.06 C 175.78 204.49 176.93 206.02 178.10 206.90 C 181.01 211.39 184.56 215.40 187.83 219.62 C 188.66 220.51 189.50 221.40 190.35 222.28 C 188.31 223.88 186.22 225.42 184.12 226.94 C 186.50 226.33 188.88 225.74 191.28 225.23 C 189.96 227.18 188.51 229.08 186.66 230.57 C 183.12 231.72 179.60 232.95 176.06 234.11 C 174.31 233.62 172.58 233.10 170.82 232.68 C 172.19 230.88 173.61 229.14 174.99 227.35 C 172.47 227.56 170.00 228.07 167.59 228.82 C 167.59 230.17 167.60 231.52 167.64 232.87 C 169.80 238.15 176.52 237.30 180.73 239.93 C 179.38 240.63 178.07 241.41 176.73 242.15 C 174.93 242.29 173.13 242.40 171.32 242.42 C 167.13 240.55 162.13 239.65 158.92 236.13 C 156.94 232.60 156.76 228.40 155.80 224.53 C 156.13 222.27 156.48 220.02 156.79 217.76 C 157.82 217.18 158.85 216.61 159.87 216.03 C 160.31 215.78 161.18 215.28 161.62 215.03 C 161.21 219.54 161.39 224.08 161.77 228.60 C 164.32 229.97 167.70 229.73 168.99 226.75 C 169.19 223.57 167.98 220.51 167.41 217.42 C 166.28 217.68 165.15 217.94 164.03 218.21 C 163.98 216.20 164.01 214.19 164.12 212.19 C 164.91 212.22 165.70 212.25 166.49 212.29 Z" />
</g>
<g id="#b7b1b3ff">
<path fill="#b7b1b3" opacity="1.00" d=" M 249.69 181.72 C 249.23 179.95 248.77 178.04 250.29 176.64 C 250.25 178.35 250.00 180.04 249.69 181.72 Z" />
</g>
<g id="#8e7e77ff">
<path fill="#8e7e77" opacity="1.00" d=" M 178.30 183.72 C 179.14 181.29 180.61 179.19 182.57 177.53 C 183.00 178.12 183.87 179.31 184.30 179.91 C 183.49 181.75 182.69 183.60 181.85 185.43 C 180.67 184.86 179.48 184.29 178.30 183.72 Z" />
</g>
<g id="#202327dd">
<path fill="#202327" opacity="0.87" d=" M 137.92 179.19 C 138.60 179.20 139.97 179.22 140.65 179.23 C 143.51 179.41 146.38 179.59 149.22 180.00 C 149.81 180.17 151.00 180.51 151.60 180.68 C 151.98 180.79 152.74 181.02 153.12 181.13 C 148.00 180.92 142.90 180.40 137.92 179.19 Z" />
<path fill="#202327" opacity="0.87" d=" M 223.12 242.85 C 225.44 240.00 228.04 237.34 231.19 235.40 C 229.56 237.38 227.64 239.16 226.42 241.43 C 225.71 244.38 227.45 247.17 229.64 248.99 C 229.39 249.35 228.87 250.06 228.62 250.41 C 228.70 250.62 228.87 251.04 228.96 251.25 C 229.85 253.40 230.82 255.52 231.75 257.66 C 231.53 258.11 231.09 259.03 230.87 259.48 C 227.53 255.14 226.15 249.73 223.34 245.08 C 222.73 245.35 221.52 245.89 220.92 246.16 C 220.17 243.48 219.53 240.76 219.10 238.00 L 219.76 238.44 C 220.91 239.88 222.02 241.36 223.12 242.85 Z" />
</g>
<g id="#60514bff">
<path fill="#60514b" opacity="1.00" d=" M 184.30 179.91 C 184.86 179.74 185.99 179.40 186.55 179.22 C 186.26 181.70 186.35 184.25 185.64 186.66 C 184.69 188.84 183.08 190.63 181.72 192.56 C 180.46 192.94 179.20 193.31 177.95 193.68 C 177.79 190.71 177.41 187.69 176.03 185.01 C 177.74 185.65 179.47 186.22 181.24 186.68 C 181.39 186.37 181.70 185.75 181.85 185.43 C 182.69 183.60 183.49 181.75 184.30 179.91 Z" />
</g>
<g id="#373331e1">
<path fill="#373331" opacity="0.88" d=" M 153.96 181.29 C 155.97 180.94 157.96 180.48 159.97 180.18 C 160.26 180.41 160.85 180.86 161.14 181.09 C 159.74 181.14 158.43 181.69 157.19 182.28 C 156.12 181.93 155.04 181.60 153.96 181.29 Z" />
</g>
<g id="#0d0c0b92">
<path fill="#0d0c0b" opacity="0.57" d=" M 157.19 182.28 C 158.43 181.69 159.74 181.14 161.14 181.09 C 161.28 181.54 161.56 182.45 161.69 182.91 C 160.16 183.31 158.63 182.76 157.19 182.28 Z" />
</g>
<g id="#7a6964ff">
<path fill="#7a6964" opacity="1.00" d=" M 243.06 180.33 C 248.15 183.46 250.26 189.32 253.75 193.89 C 253.91 191.81 254.09 189.73 254.23 187.65 C 254.55 189.85 254.82 192.08 255.45 194.23 C 255.78 194.50 256.42 195.04 256.75 195.31 L 257.04 195.98 C 256.39 196.00 255.08 196.03 254.43 196.05 C 254.54 197.04 254.66 198.02 254.78 199.01 C 255.31 202.25 255.17 205.55 254.48 208.75 C 253.64 207.48 252.80 206.21 252.04 204.89 C 250.55 202.10 248.98 199.35 247.45 196.58 C 249.22 197.15 250.98 197.69 252.76 198.23 C 250.43 191.79 246.08 186.42 243.06 180.33 Z" />
</g>
<g id="#b27d67ff">
<path fill="#b27d67" opacity="1.00" d=" M 199.30 181.77 L 199.92 182.28 C 200.69 182.92 201.46 183.56 202.24 184.19 C 200.23 186.52 197.65 188.41 194.41 188.12 C 195.90 185.90 197.57 183.81 199.30 181.77 Z" />
</g>
<g id="#010101c7">
<path fill="#010101" opacity="0.78" d=" M 236.06 183.34 C 237.37 184.12 238.70 184.88 239.94 185.79 C 242.66 189.23 245.31 192.75 247.45 196.58 C 248.98 199.35 250.55 202.10 252.04 204.89 C 252.25 207.06 252.36 209.23 252.52 211.40 C 249.28 214.60 246.27 218.04 242.93 221.15 L 242.74 220.23 C 242.38 218.75 242.03 217.27 241.68 215.79 C 244.17 214.77 246.78 213.25 247.75 210.59 C 248.26 208.79 247.77 206.90 247.62 205.08 C 243.48 203.17 240.33 199.89 238.09 195.99 C 236.37 193.57 234.22 191.47 232.75 188.89 C 232.77 186.66 234.99 185.15 236.06 183.34 Z" />
</g>
<g id="#7f797dff">
<path fill="#7f797d" opacity="1.00" d=" M 175.22 184.67 L 176.03 185.01 C 177.41 187.69 177.79 190.71 177.95 193.68 C 179.20 193.31 180.46 192.94 181.72 192.56 C 182.21 195.21 182.54 197.88 182.70 200.57 C 182.86 205.54 187.08 208.93 189.16 213.15 C 185.97 210.28 183.06 207.12 180.12 204.01 C 179.41 204.68 178.70 205.35 177.99 206.02 C 178.11 201.80 176.60 197.85 173.61 194.86 C 173.05 196.51 172.53 198.18 171.88 199.80 C 169.77 198.59 167.74 196.66 165.16 196.76 C 163.64 198.47 163.50 200.85 162.97 202.98 C 165.39 202.55 167.81 202.13 170.23 201.70 C 168.35 203.70 166.39 205.63 164.51 207.64 C 162.19 209.94 160.88 212.97 159.87 216.03 C 158.85 216.61 157.82 217.18 156.79 217.76 L 156.09 218.14 C 157.79 214.79 159.48 211.43 161.06 208.03 C 157.19 207.42 152.43 206.13 149.25 209.21 C 147.55 211.64 147.44 214.79 146.49 217.53 C 144.52 215.00 143.48 211.73 144.46 208.57 C 145.90 201.43 152.85 197.31 159.28 195.25 L 160.04 194.97 C 163.75 194.66 168.84 197.17 171.45 193.49 C 173.56 190.99 174.45 187.78 175.22 184.67 M 154.53 200.27 C 151.09 201.13 149.34 204.50 147.64 207.30 C 152.03 206.99 155.22 203.64 159.34 202.51 C 161.73 201.92 161.94 199.06 162.90 197.20 C 161.73 197.11 160.55 197.03 159.37 196.95 C 158.13 198.55 156.49 199.74 154.53 200.27 Z" />
</g>
<g id="#949194ff">
<path fill="#949194" opacity="1.00" d=" M 213.78 184.53 C 216.16 185.21 218.53 185.93 220.92 186.61 C 222.25 189.17 223.64 191.72 224.63 194.44 C 223.74 196.62 227.01 197.21 226.26 194.74 C 227.25 195.13 228.25 195.51 229.25 195.89 C 230.19 199.92 229.53 204.03 228.75 208.02 C 228.49 207.67 227.98 206.97 227.72 206.63 C 227.26 203.86 226.58 201.15 225.69 198.50 C 225.52 199.79 225.36 201.08 225.20 202.37 C 224.73 200.50 224.19 198.58 223.10 196.96 C 221.47 196.02 219.49 196.05 217.68 195.68 C 217.11 195.12 216.53 194.56 215.97 193.99 C 216.06 193.33 216.17 192.66 216.25 191.99 C 215.82 190.23 214.72 188.75 213.66 187.32 C 213.68 186.39 213.73 185.46 213.78 184.53 Z" />
</g>
<g id="#a1a0a2ff">
<path fill="#a1a0a2" opacity="1.00" d=" M 199.44 190.67 C 201.42 189.55 203.27 187.76 205.61 187.59 C 209.23 188.88 212.27 191.62 216.25 191.99 C 216.17 192.66 216.06 193.33 215.97 193.99 C 216.53 194.56 217.11 195.12 217.68 195.68 C 216.32 195.46 214.97 195.21 213.62 194.96 C 213.51 196.29 213.41 197.62 213.24 198.95 C 213.14 199.38 212.95 200.24 212.86 200.66 C 211.31 200.25 209.76 199.83 208.21 199.43 C 208.17 200.64 208.14 201.85 208.11 203.07 C 210.82 203.84 213.30 205.21 215.31 207.19 C 214.97 207.62 214.27 208.49 213.92 208.92 C 213.36 208.31 212.81 207.70 212.26 207.09 C 210.37 210.85 207.01 214.69 202.44 214.49 C 199.90 213.61 199.87 210.51 199.54 208.29 C 199.75 207.56 199.97 206.82 200.20 206.10 C 199.36 204.31 198.54 202.50 197.68 200.72 C 198.60 197.44 199.22 194.07 199.44 190.67 M 201.12 193.63 C 200.05 194.46 201.27 196.56 202.50 195.78 C 203.56 194.95 202.33 192.87 201.12 193.63 Z" />
</g>
<g id="#fcb68eff">
<path fill="#fcb68e" opacity="1.00" d=" M 181.72 192.56 C 184.45 191.57 187.35 191.40 190.18 192.06 C 189.05 196.09 187.14 199.83 184.83 203.30 C 184.11 202.39 183.40 201.48 182.70 200.57 C 182.54 197.88 182.21 195.21 181.72 192.56 Z" />
</g>
<g id="#ece3deff">
<path fill="#ece3de" opacity="1.00" d=" M 229.87 193.12 C 230.60 190.63 233.52 193.35 231.03 194.18 C 230.74 193.91 230.16 193.38 229.87 193.12 Z" />
</g>
<g id="#e0dbd6ff">
<path fill="#e0dbd6" opacity="1.00" d=" M 201.12 193.63 C 202.33 192.87 203.56 194.95 202.50 195.78 C 201.27 196.56 200.05 194.46 201.12 193.63 Z" />
</g>
<g id="#d8d3c8ff">
<path fill="#d8d3c8" opacity="1.00" d=" M 224.63 194.44 C 225.04 194.52 225.85 194.66 226.26 194.74 C 227.01 197.21 223.74 196.62 224.63 194.44 Z" />
</g>
<g id="#dfd4ccff">
<path fill="#dfd4cc" opacity="1.00" d=" M 173.61 194.86 C 176.60 197.85 178.11 201.80 177.99 206.02 L 178.10 206.90 C 176.93 206.02 175.78 204.49 174.12 205.06 C 170.38 205.78 168.52 209.47 166.49 212.29 C 165.70 212.25 164.91 212.22 164.12 212.19 C 164.22 210.67 164.36 209.15 164.51 207.64 C 166.39 205.63 168.35 203.70 170.23 201.70 C 170.80 201.08 171.35 200.45 171.88 199.80 C 172.53 198.18 173.05 196.51 173.61 194.86 Z" />
</g>
<g id="#b3afb4ff">
<path fill="#b3afb4" opacity="1.00" d=" M 213.62 194.96 C 214.97 195.21 216.32 195.46 217.68 195.68 C 219.49 196.05 221.47 196.02 223.10 196.96 C 224.19 198.58 224.73 200.50 225.20 202.37 C 225.16 202.75 225.06 203.50 225.01 203.87 C 223.72 203.17 222.45 202.44 221.18 201.71 C 218.77 200.21 216.07 199.21 213.24 198.95 C 213.41 197.62 213.51 196.29 213.62 194.96 Z" />
</g>
<g id="#615e60ff">
<path fill="#615e60" opacity="1.00" d=" M 238.09 195.99 C 240.33 199.89 243.48 203.17 247.62 205.08 C 247.24 205.57 246.49 206.56 246.11 207.05 C 244.50 207.53 242.90 208.01 241.30 208.50 C 241.14 211.02 240.98 213.54 240.83 216.06 L 240.12 216.30 C 239.96 214.08 239.76 211.86 239.55 209.64 C 239.07 210.71 238.54 211.77 237.96 212.80 C 237.58 213.24 236.81 214.13 236.43 214.57 C 235.21 214.61 234.00 214.66 232.79 214.71 C 235.23 210.91 238.14 207.01 238.03 202.26 C 238.11 200.17 238.10 198.08 238.09 195.99 Z" />
</g>
<g id="#100e0dff">
<path fill="#100e0d" opacity="1.00" d=" M 254.43 196.05 C 255.08 196.03 256.39 196.00 257.04 195.98 C 258.71 195.93 260.39 195.86 262.07 195.79 C 262.38 197.54 262.66 199.30 262.92 201.06 C 261.40 201.29 259.90 201.64 258.37 201.61 C 257.07 200.88 255.94 199.91 254.78 199.01 C 254.66 198.02 254.54 197.04 254.43 196.05 Z" />
</g>
<g id="#bcb7bdff">
<path fill="#bcb7bd" opacity="1.00" d=" M 154.53 200.27 C 156.49 199.74 158.13 198.55 159.37 196.95 C 160.55 197.03 161.73 197.11 162.90 197.20 C 161.94 199.06 161.73 201.92 159.34 202.51 C 155.22 203.64 152.03 206.99 147.64 207.30 C 149.34 204.50 151.09 201.13 154.53 200.27 Z" />
<path fill="#bcb7bd" opacity="1.00" d=" M 274.60 214.76 C 275.32 214.88 276.74 215.12 277.45 215.24 C 277.49 218.25 277.64 221.26 277.60 224.27 C 274.23 222.65 274.88 217.92 274.60 214.76 Z" />
</g>
<g id="#b8b4b9ff">
<path fill="#b8b4b9" opacity="1.00" d=" M 165.16 196.76 C 167.74 196.66 169.77 198.59 171.88 199.80 C 171.35 200.45 170.80 201.08 170.23 201.70 C 167.81 202.13 165.39 202.55 162.97 202.98 C 163.50 200.85 163.64 198.47 165.16 196.76 Z" />
<path fill="#b8b4b9" opacity="1.00" d=" M 237.96 212.80 C 238.54 211.77 239.07 210.71 239.55 209.64 C 239.76 211.86 239.96 214.08 240.12 216.30 C 237.56 219.70 234.76 223.57 230.17 224.11 C 226.94 224.27 223.72 223.95 220.52 223.66 C 222.04 222.89 223.69 222.38 225.38 222.10 C 228.55 221.75 232.13 221.97 234.68 219.70 C 236.95 218.14 237.36 215.27 237.96 212.80 Z" />
</g>
<g id="#4a4545ff">
<path fill="#4a4545" opacity="1.00" d=" M 231.84 198.11 C 232.35 197.81 232.86 197.51 233.37 197.21 C 234.04 198.08 234.73 198.94 235.45 199.78 C 235.03 203.44 233.84 207.04 230.82 209.37 C 231.41 205.64 231.77 201.88 231.84 198.11 Z" />
</g>
<g id="#e4dee2ff">
<path fill="#e4dee2" opacity="1.00" d=" M 208.21 199.43 C 209.76 199.83 211.31 200.25 212.86 200.66 C 212.95 200.24 213.14 199.38 213.24 198.95 C 216.07 199.21 218.77 200.21 221.18 201.71 C 219.28 203.30 217.37 204.90 215.70 206.75 L 215.31 207.19 C 213.30 205.21 210.82 203.84 208.11 203.07 C 208.14 201.85 208.17 200.64 208.21 199.43 Z" />
<path fill="#e4dee2" opacity="1.00" d=" M 271.95 214.33 C 274.06 218.26 274.17 223.09 272.30 227.13 C 271.88 226.25 271.46 225.39 271.02 224.54 C 272.10 221.24 271.65 217.73 271.95 214.33 Z" />
</g>
<g id="#cfced1ff">
<path fill="#cfced1" opacity="1.00" d=" M 275.26 211.92 C 272.98 208.43 272.63 203.44 274.68 199.84 C 275.40 203.77 276.62 208.00 275.26 211.92 Z" />
<path fill="#cfced1" opacity="1.00" d=" M 260.13 213.41 C 258.01 210.04 257.64 205.51 258.98 201.79 C 260.40 205.48 260.72 209.51 260.13 213.41 Z" />
<path fill="#cfced1" opacity="1.00" d=" M 259.77 216.46 C 261.24 216.46 262.72 216.47 264.20 216.46 C 263.91 219.44 264.16 222.44 264.23 225.42 C 263.58 222.77 263.06 220.08 262.28 217.47 C 261.49 220.20 261.32 223.05 260.92 225.85 C 260.25 222.76 259.95 219.61 259.77 216.46 Z" />
<path fill="#cfced1" opacity="1.00" d=" M 272.35 236.04 C 272.13 232.92 271.94 229.65 273.93 227.00 C 274.50 230.07 274.88 233.17 275.37 236.25 C 274.38 236.82 273.40 237.40 272.41 237.98 C 272.40 237.49 272.37 236.52 272.35 236.04 Z" />
<path fill="#cfced1" opacity="1.00" d=" M 275.85 270.34 L 276.65 270.28 C 277.74 271.03 278.07 272.03 277.63 273.27 C 276.95 273.23 275.60 273.13 274.92 273.09 C 275.13 272.13 275.44 271.21 275.85 270.34 Z" />
</g>
<g id="#beb8b9ff">
<path fill="#beb8b9" opacity="1.00" d=" M 189.16 213.15 C 187.08 208.93 182.86 205.54 182.70 200.57 C 183.40 201.48 184.11 202.39 184.83 203.30 C 186.41 205.30 188.07 207.23 189.63 209.24 C 190.53 210.45 191.39 211.70 192.25 212.95 L 191.79 213.46 C 190.11 215.26 188.86 217.39 187.83 219.62 C 184.56 215.40 181.01 211.39 178.10 206.90 L 177.99 206.02 C 178.70 205.35 179.41 204.68 180.12 204.01 C 183.06 207.12 185.97 210.28 189.16 213.15 Z" />
<path fill="#beb8b9" opacity="1.00" d=" M 261.09 201.67 C 261.43 201.89 262.12 202.34 262.47 202.56 C 263.20 206.02 263.33 209.58 263.65 213.09 C 263.34 212.89 262.71 212.48 262.40 212.27 C 261.12 208.93 261.33 205.20 261.09 201.67 Z" />
</g>
<g id="#efeae5ff">
<path fill="#efeae5" opacity="1.00" d=" M 196.85 205.56 C 196.89 203.91 197.29 202.31 197.68 200.72 C 198.54 202.50 199.36 204.31 200.20 206.10 C 199.97 206.82 199.75 207.56 199.54 208.29 C 198.62 207.41 197.63 206.58 196.85 205.56 Z" />
</g>
<g id="#5f4a43ff">
<path fill="#5f4a43" opacity="1.00" d=" M 264.91 200.69 C 265.72 204.06 266.26 207.49 266.45 210.94 C 264.81 219.41 268.47 227.52 268.52 235.90 C 268.22 237.66 267.87 239.40 267.62 241.17 C 266.94 236.57 267.07 231.74 265.07 227.44 C 263.62 231.55 264.83 235.84 265.19 240.01 C 265.98 247.83 266.76 255.65 267.31 263.48 L 266.26 264.07 C 265.09 256.79 264.49 249.43 263.63 242.11 C 263.07 242.39 261.94 242.95 261.38 243.23 C 261.18 242.78 260.79 241.86 260.60 241.41 C 260.78 240.58 260.97 239.75 261.17 238.93 C 261.70 238.81 262.77 238.58 263.30 238.46 C 263.03 234.90 262.75 231.34 262.11 227.83 C 259.63 225.20 256.69 223.09 253.75 221.01 C 253.99 219.50 254.22 217.99 254.45 216.49 C 256.22 216.48 257.99 216.46 259.77 216.46 C 259.95 219.61 260.25 222.76 260.92 225.85 C 261.32 223.05 261.49 220.20 262.28 217.47 C 263.06 220.08 263.58 222.77 264.23 225.42 C 264.16 222.44 263.91 219.44 264.20 216.46 C 265.11 211.25 265.02 205.96 264.91 200.69 Z" />
</g>
<g id="#aaa4a9ff">
<path fill="#aaa4a9" opacity="1.00" d=" M 221.18 201.71 C 222.45 202.44 223.72 203.17 225.01 203.87 C 223.57 206.74 221.30 209.05 218.76 210.96 C 218.55 209.93 218.34 208.91 218.14 207.88 C 217.32 207.50 216.51 207.12 215.70 206.75 C 217.37 204.90 219.28 203.30 221.18 201.71 Z" />
</g>
<g id="#d4ccc4ff">
<path fill="#d4ccc4" opacity="1.00" d=" M 191.13 207.70 C 190.98 206.77 190.30 204.48 191.92 204.62 C 192.71 205.61 192.68 206.65 191.84 207.73 L 191.13 207.70 Z" />
</g>
<g id="#363239ff">
<path fill="#363239" opacity="1.00" d=" M 247.62 205.08 C 247.77 206.90 248.26 208.79 247.75 210.59 C 246.78 213.25 244.17 214.77 241.68 215.79 L 240.83 216.06 C 240.98 213.54 241.14 211.02 241.30 208.50 C 242.90 208.01 244.50 207.53 246.11 207.05 C 246.49 206.56 247.24 205.57 247.62 205.08 Z" />
</g>
<g id="#c3bbb5ff">
<path fill="#c3bbb5" opacity="1.00" d=" M 159.87 216.03 C 160.88 212.97 162.19 209.94 164.51 207.64 C 164.36 209.15 164.22 210.67 164.12 212.19 C 164.01 214.19 163.98 216.20 164.03 218.21 C 164.16 221.30 164.44 224.38 164.73 227.47 C 163.99 227.75 162.51 228.31 161.77 228.60 C 161.39 224.08 161.21 219.54 161.62 215.03 C 161.18 215.28 160.31 215.78 159.87 216.03 Z" />
</g>
<g id="#918d8dff">
<path fill="#918d8d" opacity="1.00" d=" M 191.13 207.70 L 191.84 207.73 C 193.26 208.09 194.66 208.50 196.07 208.91 C 194.80 210.25 193.51 211.59 192.25 212.95 C 191.39 211.70 190.53 210.45 189.63 209.24 C 190.01 208.85 190.76 208.08 191.13 207.70 Z" />
</g>
<g id="#b4b3b7ff">
<path fill="#b4b3b7" opacity="1.00" d=" M 268.52 235.90 C 268.47 227.52 264.81 219.41 266.45 210.94 C 266.64 212.81 266.92 214.68 267.19 216.54 C 267.75 216.51 268.87 216.46 269.43 216.43 C 269.53 218.86 269.84 221.29 270.53 223.63 C 269.75 224.00 268.19 224.73 267.41 225.09 C 268.28 226.32 269.17 227.54 269.99 228.81 C 270.75 231.33 271.08 233.96 271.53 236.55 C 270.51 236.38 269.51 236.16 268.52 235.90 Z" />
</g>
<g id="#817e84ff">
<path fill="#817e84" opacity="1.00" d=" M 187.83 219.62 C 188.86 217.39 190.11 215.26 191.79 213.46 C 194.81 215.87 197.47 218.69 199.78 221.79 C 199.15 223.10 198.53 224.41 197.91 225.73 C 196.19 223.90 194.21 222.34 192.26 220.77 C 191.78 221.14 190.83 221.90 190.35 222.28 C 189.50 221.40 188.66 220.51 187.83 219.62 Z" />
</g>
<g id="#5f5956ff">
<path fill="#5f5956" opacity="1.00" d=" M 215.93 219.91 C 220.87 218.79 225.58 216.83 229.77 213.97 C 227.92 216.15 226.19 218.52 225.61 221.38 L 225.38 222.10 C 223.69 222.38 222.04 222.89 220.52 223.66 C 217.61 225.85 214.34 228.12 213.43 231.87 C 212.41 229.36 211.56 226.78 210.37 224.34 C 211.91 222.52 213.37 220.28 215.93 219.91 Z" />
</g>
<g id="#00000024">
</g>
<g id="#000000c1">
<path fill="#000000" opacity="0.76" d=" M 249.86 215.94 C 250.91 217.80 252.04 219.68 253.75 221.01 C 256.69 223.09 259.63 225.20 262.11 227.83 C 260.75 228.13 259.38 228.44 258.02 228.75 C 257.63 227.38 257.19 226.03 256.75 224.68 C 254.90 227.26 251.90 229.69 252.38 233.20 C 252.65 239.37 253.33 245.51 254.12 251.63 C 256.42 251.66 258.73 251.70 261.03 251.76 C 260.88 248.60 260.69 245.44 260.39 242.30 L 260.60 241.41 C 260.79 241.86 261.18 242.78 261.38 243.23 C 263.39 249.95 262.65 257.15 264.38 263.95 C 261.43 261.10 262.15 256.53 261.48 252.82 C 257.68 253.06 254.59 255.72 251.08 256.51 C 243.81 254.29 236.01 254.29 228.96 251.25 C 228.87 251.04 228.70 250.62 228.62 250.41 C 228.87 250.06 229.39 249.35 229.64 248.99 C 235.40 252.01 241.99 253.61 248.43 252.06 C 247.11 247.42 245.29 242.87 245.07 238.00 C 244.79 233.19 243.68 228.49 242.07 223.96 C 244.79 221.41 247.31 218.66 249.86 215.94 Z" />
</g>
<g id="#eae4e2ff">
<path fill="#eae4e2" opacity="1.00" d=" M 164.03 218.21 C 165.15 217.94 166.28 217.68 167.41 217.42 C 167.98 220.51 169.19 223.57 168.99 226.75 C 167.70 229.73 164.32 229.97 161.77 228.60 C 162.51 228.31 163.99 227.75 164.73 227.47 C 164.44 224.38 164.16 221.30 164.03 218.21 Z" />
</g>
<g id="#998f93ff">
<path fill="#998f93" opacity="1.00" d=" M 156.09 218.14 L 156.79 217.76 C 156.48 220.02 156.13 222.27 155.80 224.53 C 155.30 227.44 154.46 230.55 155.68 233.41 C 158.04 239.49 164.90 243.28 171.32 242.42 C 173.13 242.40 174.93 242.29 176.73 242.15 C 178.55 242.12 180.38 242.17 182.20 242.22 C 179.77 243.18 177.34 244.13 174.84 244.90 C 170.86 245.71 166.79 244.93 163.02 243.58 C 162.77 243.48 162.27 243.28 162.02 243.19 C 159.08 241.66 155.41 243.37 152.77 241.06 C 153.81 240.44 154.84 239.82 155.89 239.21 C 155.67 238.99 155.23 238.55 155.01 238.33 C 153.82 234.58 152.40 230.87 151.90 226.95 C 151.45 223.92 153.50 221.33 154.86 218.81 C 155.17 218.65 155.79 218.31 156.09 218.14 Z" />
</g>
<g id="#fbf8f5ff">
<path fill="#fbf8f5" opacity="1.00" d=" M 206.89 217.84 C 208.13 218.23 209.37 218.65 210.59 219.11 C 210.08 219.58 209.04 220.54 208.52 221.01 L 207.81 221.53 C 207.48 220.30 207.18 219.07 206.89 217.84 Z" />
</g>
<g id="#6a5552ff">
<path fill="#6a5552" opacity="1.00" d=" M 146.55 225.55 C 148.55 222.45 151.28 219.92 154.86 218.81 C 153.50 221.33 151.45 223.92 151.90 226.95 C 152.40 230.87 153.82 234.58 155.01 238.33 C 149.38 236.63 148.38 230.31 146.55 225.55 Z" />
</g>
<g id="#aeacb0ff">
<path fill="#aeacb0" opacity="1.00" d=" M 207.81 221.53 L 208.52 221.01 C 209.15 222.11 209.78 223.21 210.37 224.34 C 211.56 226.78 212.41 229.36 213.43 231.87 C 214.62 233.63 215.90 235.35 217.40 236.87 C 217.04 237.44 216.31 238.57 215.95 239.14 C 210.37 236.84 205.17 232.19 204.26 225.99 C 203.82 223.61 206.28 222.69 207.81 221.53 M 207.33 222.90 C 206.77 224.29 204.87 225.65 205.83 227.25 C 206.76 229.69 208.53 231.67 210.66 233.13 C 209.83 229.67 210.15 225.51 207.33 222.90 Z" />
</g>
<g id="#fbf7f8ff">
<path fill="#fbf7f8" opacity="1.00" d=" M 207.33 222.90 C 210.15 225.51 209.83 229.67 210.66 233.13 C 208.53 231.67 206.76 229.69 205.83 227.25 C 204.87 225.65 206.77 224.29 207.33 222.90 Z" />
</g>
<g id="#0202028d">
<path fill="#020202" opacity="0.55" d=" M 213.43 231.87 C 214.34 228.12 217.61 225.85 220.52 223.66 C 223.72 223.95 226.94 224.27 230.17 224.11 C 226.71 224.72 223.03 224.40 219.73 225.69 C 216.17 229.10 219.16 234.38 219.76 238.44 L 219.10 238.00 C 218.68 237.72 217.83 237.16 217.40 236.87 C 215.90 235.35 214.62 233.63 213.43 231.87 Z" />
</g>
<g id="#efeef0ff">
<path fill="#efeef0" opacity="1.00" d=" M 267.41 225.09 C 268.19 224.73 269.75 224.00 270.53 223.63 L 271.02 224.54 C 271.46 225.39 271.88 226.25 272.30 227.13 C 271.72 227.55 270.57 228.39 269.99 228.81 C 269.17 227.54 268.28 226.32 267.41 225.09 Z" />
</g>
<g id="#00000018">
</g>
<g id="#b37052fe">
<path fill="#b37052" opacity="1.00" d=" M 144.72 232.35 C 143.44 229.90 145.07 227.45 146.55 225.55 C 148.38 230.31 149.38 236.63 155.01 238.33 C 155.23 238.55 155.67 238.99 155.89 239.21 C 154.84 239.82 153.81 240.44 152.77 241.06 C 149.83 238.43 146.65 235.85 144.72 232.35 Z" />
</g>
<g id="#e4dcd9ff">
<path fill="#e4dcd9" opacity="1.00" d=" M 167.59 228.82 C 170.00 228.07 172.47 227.56 174.99 227.35 C 173.61 229.14 172.19 230.88 170.82 232.68 C 169.76 232.70 168.70 232.78 167.64 232.87 C 167.60 231.52 167.59 230.17 167.59 228.82 Z" />
</g>
<g id="#f1e9e7ff">
<path fill="#f1e9e7" opacity="1.00" d=" M 192.67 226.85 C 193.86 227.42 195.05 228.00 196.20 228.65 C 195.82 229.46 195.44 230.28 195.05 231.09 C 193.00 231.93 190.92 232.81 189.18 234.22 C 188.81 234.71 188.08 235.68 187.71 236.17 C 186.63 235.93 185.55 235.69 184.48 235.46 C 184.03 236.27 183.59 237.09 183.14 237.91 C 180.84 236.53 178.51 235.20 176.06 234.11 C 179.60 232.95 183.12 231.72 186.66 230.57 C 185.88 231.23 185.12 231.93 184.39 232.64 C 185.07 233.51 185.91 234.21 186.72 234.96 C 188.89 232.40 190.85 229.66 192.67 226.85 Z" />
<path fill="#f1e9e7" opacity="1.00" d=" M 194.11 237.08 C 194.61 235.53 195.11 233.99 195.58 232.44 C 196.44 234.29 197.31 236.13 198.10 238.02 C 196.77 237.70 195.44 237.39 194.11 237.08 Z" />
</g>
<g id="#5c5c60ff">
<path fill="#5c5c60" opacity="1.00" d=" M 258.02 228.75 C 259.38 228.44 260.75 228.13 262.11 227.83 C 262.75 231.34 263.03 234.90 263.30 238.46 C 262.77 238.58 261.70 238.81 261.17 238.93 C 260.97 239.75 260.78 240.58 260.60 241.41 L 260.39 242.30 C 259.15 237.86 259.16 233.20 258.02 228.75 Z" />
</g>
<g id="#b7b6baff">
<path fill="#b7b6ba" opacity="1.00" d=" M 265.07 227.44 C 267.07 231.74 266.94 236.57 267.62 241.17 C 268.30 249.12 270.22 256.98 269.88 265.00 C 269.85 269.12 271.43 273.06 271.34 277.19 C 270.64 277.14 269.25 277.04 268.55 276.98 C 268.30 272.47 267.80 267.97 267.31 263.48 C 266.76 255.65 265.98 247.83 265.19 240.01 C 264.83 235.84 263.62 231.55 265.07 227.44 Z" />
</g>
<g id="#abaaaefb">
<path fill="#abaaae" opacity="1.00" d=" M 276.34 231.20 C 276.04 229.94 277.84 226.25 278.89 228.54 C 278.30 229.92 277.56 231.24 276.64 232.43 C 276.56 232.13 276.42 231.51 276.34 231.20 Z" />
</g>
<g id="#616165e5">
<path fill="#616165" opacity="0.90" d=" M 276.64 232.43 C 277.56 231.24 278.30 229.92 278.89 228.54 C 279.57 231.24 279.89 234.06 279.35 236.82 C 278.08 235.60 277.27 234.05 276.64 232.43 Z" />
</g>
<g id="#9d979fff">
<path fill="#9d979f" opacity="1.00" d=" M 189.18 234.22 C 190.92 232.81 193.00 231.93 195.05 231.09 C 195.19 231.43 195.45 232.10 195.58 232.44 C 195.11 233.99 194.61 235.53 194.11 237.08 C 195.44 237.39 196.77 237.70 198.10 238.02 C 198.30 240.92 198.22 244.05 196.32 246.43 C 193.56 250.17 190.74 254.68 185.76 255.51 C 187.68 250.82 191.29 246.61 191.41 241.33 C 191.61 238.75 190.33 236.42 189.18 234.22 Z" />
</g>
<g id="#b5a598ff">
<path fill="#b5a598" opacity="1.00" d=" M 167.64 232.87 C 168.70 232.78 169.76 232.70 170.82 232.68 C 172.58 233.10 174.31 233.62 176.06 234.11 C 178.51 235.20 180.84 236.53 183.14 237.91 C 183.59 237.09 184.03 236.27 184.48 235.46 C 185.55 235.69 186.63 235.93 187.71 236.17 C 186.45 239.03 183.48 239.52 180.73 239.93 C 176.52 237.30 169.80 238.15 167.64 232.87 Z" />
</g>
<g id="#00000030">
</g>
<g id="#00000015">
</g>
<g id="#181b25fd">
<path fill="#181b25" opacity="1.00" d=" M 267.62 241.17 C 267.87 239.40 268.22 237.66 268.52 235.90 C 269.51 236.16 270.51 236.38 271.53 236.55 L 272.35 236.04 C 272.37 236.52 272.40 237.49 272.41 237.98 C 273.40 237.40 274.38 236.82 275.37 236.25 C 274.98 237.61 274.66 238.98 274.35 240.36 C 273.15 240.64 271.95 240.92 270.76 241.20 C 271.02 243.60 271.30 246.00 271.53 248.41 C 272.43 255.78 271.87 263.75 275.85 270.34 C 275.44 271.21 275.13 272.13 274.92 273.09 C 274.51 274.38 274.07 275.66 273.65 276.96 C 273.08 277.01 271.92 277.13 271.34 277.19 C 271.43 273.06 269.85 269.12 269.88 265.00 C 270.22 256.98 268.30 249.12 267.62 241.17 Z" />
</g>
<g id="#1b181758">
<path fill="#1b1817" opacity="0.35" d=" M 159.03 244.35 C 158.21 244.83 155.22 243.61 157.09 242.85 C 158.74 242.76 160.39 242.93 162.02 243.19 C 162.27 243.28 162.77 243.48 163.02 243.58 C 161.70 243.92 160.37 244.17 159.03 244.35 Z" />
</g>
<g id="#a2a1a6f2">
<path fill="#a2a1a6" opacity="0.95" d=" M 263.21 272.05 L 263.89 271.88 C 264.87 272.68 264.86 274.25 263.85 275.02 L 263.20 274.82 C 263.21 274.13 263.21 272.75 263.21 272.05 Z" />
</g>
</svg>

