<?xml version="1.0" encoding="UTF-8" ?>
<!DOCTYPE svg PUBLIC "-//W3C//DTD SVG 1.1//EN" "http://www.w3.org/Graphics/SVG/1.1/DTD/svg11.dtd">
<svg width="384pt" height="384pt" viewBox="0 0 384 384" version="1.1" xmlns="http://www.w3.org/2000/svg">
<g id="#22252afa">
<path fill="#22252a" opacity="0.98" d=" M 205.80 112.66 C 208.15 113.16 210.56 113.94 212.09 115.92 C 217.61 122.13 220.04 130.43 221.40 138.47 C 220.22 139.07 219.06 139.69 217.91 140.34 C 217.19 133.78 215.73 127.19 212.70 121.30 C 211.01 117.97 208.19 115.46 205.80 112.66 Z" />
</g>
<g id="#2c323efe">
<path fill="#2c323e" opacity="1.00" d=" M 205.38 115.70 C 203.80 122.95 199.08 129.00 196.41 135.85 C 199.59 137.21 202.67 138.80 205.86 140.14 C 205.21 140.53 204.56 140.92 203.92 141.32 C 203.82 144.76 203.40 148.19 202.83 151.59 C 201.29 151.28 199.74 151.01 198.19 150.76 C 199.84 147.92 201.37 143.97 198.79 141.18 C 196.06 138.72 191.85 140.30 190.46 143.44 C 189.99 143.32 189.04 143.08 188.57 142.96 C 188.29 142.84 187.72 142.61 187.44 142.49 C 185.67 141.85 183.88 141.30 182.06 140.83 C 182.86 139.69 183.64 138.54 184.42 137.39 C 189.02 139.24 194.95 137.63 197.11 132.94 C 199.87 127.20 202.96 121.60 205.38 115.70 Z" />
</g>
<g id="#000000b5">
<path fill="#000000" opacity="0.71" d=" M 204.18 125.55 C 206.29 126.40 208.62 127.05 210.21 128.79 C 213.68 132.40 214.70 137.61 218.02 141.36 C 217.01 142.03 216.04 142.76 215.09 143.51 L 214.24 143.17 C 212.96 139.91 212.18 136.47 210.65 133.32 C 209.13 130.25 206.46 128.02 204.18 125.55 Z" />
</g>
<g id="#303844fe">
<path fill="#303844" opacity="1.00" d=" M 148.45 138.56 C 154.71 138.07 161.08 136.63 167.32 137.95 C 166.51 139.36 165.70 140.77 164.89 142.18 C 162.31 140.31 159.25 139.36 156.20 138.58 C 157.08 139.58 157.96 140.58 158.85 141.57 C 156.53 142.03 154.14 142.47 152.14 143.79 C 150.59 142.86 149.04 141.95 147.49 141.04 C 147.73 140.42 148.21 139.18 148.45 138.56 Z" />
</g>
<g id="#1b1b1afe">
<path fill="#1b1b1a" opacity="1.00" d=" M 167.32 137.95 C 170.10 138.99 172.76 140.32 175.49 141.51 C 172.11 143.00 168.44 142.81 164.89 142.18 C 165.70 140.77 166.51 139.36 167.32 137.95 Z" />
</g>
<g id="#9c8b85ff">
<path fill="#9c8b85" opacity="1.00" d=" M 156.20 138.58 C 159.25 139.36 162.31 140.31 164.89 142.18 C 165.64 142.65 166.39 143.13 167.14 143.61 C 163.67 145.98 160.19 149.06 159.54 153.47 C 158.52 157.44 160.58 161.17 162.77 164.33 C 165.19 154.76 170.61 144.98 180.11 140.99 C 180.60 140.95 181.57 140.87 182.06 140.83 C 183.88 141.30 185.67 141.85 187.44 142.49 C 182.51 143.41 177.46 144.88 173.93 148.67 C 170.12 152.94 166.26 157.87 165.56 163.72 C 166.19 169.02 168.28 174.25 171.37 178.60 C 172.99 180.79 176.30 181.43 178.29 179.35 C 182.58 175.99 185.64 171.29 190.17 168.19 C 192.81 166.16 196.04 164.80 198.16 162.16 C 199.30 159.24 198.22 156.03 197.78 153.08 C 198.95 154.41 200.22 155.67 201.66 156.72 C 201.44 159.92 201.52 163.13 201.11 166.31 C 199.34 167.21 197.35 167.65 195.66 168.71 C 194.43 169.91 193.64 171.47 192.70 172.90 L 192.05 172.83 C 189.68 172.12 187.99 174.41 187.44 176.42 C 186.90 179.01 187.53 181.65 187.82 184.24 C 186.92 182.13 186.03 180.03 185.15 177.92 C 181.91 180.54 178.39 182.79 174.66 184.62 C 174.70 185.43 174.74 186.24 174.78 187.05 C 174.40 186.68 173.64 185.95 173.26 185.58 C 172.11 184.16 171.02 182.70 169.97 181.21 C 167.36 182.12 164.77 183.08 162.15 183.96 C 162.13 183.20 162.10 181.70 162.09 180.94 C 162.80 178.46 165.14 176.97 166.49 174.86 C 166.47 170.72 162.73 167.76 159.55 165.68 C 158.85 162.16 157.64 158.66 157.85 155.04 C 158.45 151.28 159.88 147.73 161.17 144.18 C 160.40 143.31 159.62 142.44 158.85 141.57 C 157.96 140.58 157.08 139.58 156.20 138.58 Z" />
</g>
<g id="#4b484aff">
<path fill="#4b484a" opacity="1.00" d=" M 217.91 140.34 C 219.06 139.69 220.22 139.07 221.40 138.47 C 221.73 140.63 222.01 142.80 222.24 144.98 C 220.56 146.66 218.85 148.31 217.30 150.10 C 216.76 148.88 216.23 147.66 215.70 146.44 C 217.12 144.70 218.48 142.91 219.78 141.08 C 219.34 141.15 218.46 141.29 218.02 141.36 L 217.91 140.34 Z" />
<path fill="#4b484a" opacity="1.00" d=" M 248.46 208.21 C 248.92 206.22 249.50 204.26 250.12 202.32 C 250.83 203.21 251.50 204.13 252.15 205.08 C 252.82 207.14 253.33 209.25 253.85 211.35 C 253.46 211.59 252.70 212.05 252.32 212.28 C 251.99 210.74 251.64 209.19 251.29 207.66 C 249.50 212.26 249.15 217.78 245.34 221.30 C 246.58 217.93 247.31 214.40 247.97 210.88 C 248.09 210.21 248.34 208.88 248.46 208.21 Z" />
<path fill="#4b484a" opacity="1.00" d=" M 206.40 223.81 L 207.03 224.43 C 208.83 226.38 211.40 227.18 213.77 228.20 C 215.69 229.32 217.40 230.76 219.02 232.28 C 215.14 230.65 211.49 228.37 207.23 227.84 C 206.76 230.89 206.42 233.98 206.64 237.08 C 204.25 232.98 203.56 227.88 206.40 223.81 Z" />
</g>
<g id="#0b0a0bff">
<path fill="#0b0a0b" opacity="1.00" d=" M 190.46 143.44 C 191.85 140.30 196.06 138.72 198.79 141.18 C 201.37 143.97 199.84 147.92 198.19 150.76 C 197.93 150.45 197.42 149.84 197.17 149.53 C 197.34 147.41 197.66 145.30 197.93 143.20 C 196.06 143.44 194.19 143.67 192.30 143.75 C 191.84 143.67 190.92 143.52 190.46 143.44 Z" />
</g>
<g id="#161515fe">
<path fill="#161515" opacity="1.00" d=" M 205.86 140.14 C 208.61 141.26 211.44 142.17 214.24 143.17 L 215.09 143.51 C 211.82 146.36 208.64 149.30 205.40 152.18 C 204.76 152.03 203.47 151.74 202.83 151.59 C 203.40 148.19 203.82 144.76 203.92 141.32 C 204.56 140.92 205.21 140.53 205.86 140.14 Z" />
</g>
<g id="#363a39ff">
<path fill="#363a39" opacity="1.00" d=" M 175.49 141.51 C 177.02 141.32 178.56 141.15 180.11 140.99 C 170.61 144.98 165.19 154.76 162.77 164.33 C 160.58 161.17 158.52 157.44 159.54 153.47 C 160.19 149.06 163.67 145.98 167.14 143.61 C 166.39 143.13 165.64 142.65 164.89 142.18 C 168.44 142.81 172.11 143.00 175.49 141.51 Z" />
</g>
<g id="#868183ff">
<path fill="#868183" opacity="1.00" d=" M 218.02 141.36 C 218.46 141.29 219.34 141.15 219.78 141.08 C 218.48 142.91 217.12 144.70 215.70 146.44 C 216.23 147.66 216.76 148.88 217.30 150.10 C 215.95 152.01 214.80 154.05 213.63 156.07 C 216.36 158.77 219.35 161.92 223.61 161.23 C 225.54 161.68 227.45 162.22 229.36 162.79 C 228.42 162.82 226.54 162.89 225.60 162.92 C 228.41 164.67 231.28 166.35 234.11 168.08 C 234.32 169.24 234.53 170.41 234.74 171.58 C 234.03 171.74 233.33 171.90 232.62 172.08 C 231.37 171.23 230.09 170.43 228.90 169.50 C 225.37 166.79 221.69 164.09 217.43 162.68 C 215.21 161.91 213.94 164.69 212.37 165.77 C 217.07 167.38 221.85 168.70 226.60 170.17 C 225.83 170.81 225.06 171.46 224.30 172.11 C 224.51 172.63 224.93 173.66 225.14 174.18 C 223.05 173.53 220.96 172.88 218.88 172.24 C 220.03 175.22 223.01 175.91 225.89 176.20 C 226.96 174.15 228.13 172.15 229.35 170.19 C 230.41 172.23 232.06 174.38 231.31 176.82 C 230.33 181.19 231.34 185.85 229.35 190.01 C 228.87 189.97 227.90 189.90 227.42 189.87 C 227.19 187.22 226.88 184.57 226.58 181.93 C 226.34 181.71 225.86 181.25 225.62 181.02 C 224.16 179.66 222.73 178.25 221.13 177.06 C 219.82 176.32 218.61 177.80 217.45 178.23 C 216.23 177.95 215.02 177.65 213.81 177.35 C 213.48 177.80 212.83 178.72 212.50 179.18 C 212.27 176.44 213.16 173.82 214.33 171.39 C 213.53 169.13 212.86 165.63 209.78 165.82 C 208.49 165.55 207.66 166.04 207.29 167.29 C 207.99 168.36 208.91 168.42 210.04 167.47 C 210.19 169.05 210.38 170.63 210.57 172.21 C 210.09 171.75 209.15 170.82 208.68 170.36 C 206.55 171.45 204.40 172.52 202.24 173.56 C 201.54 172.34 200.83 171.12 200.12 169.92 C 201.47 169.16 202.79 168.29 203.71 167.02 C 204.40 163.77 203.69 160.42 203.71 157.14 C 204.16 155.45 204.72 153.79 205.40 152.18 C 208.64 149.30 211.82 146.36 215.09 143.51 C 216.04 142.76 217.01 142.03 218.02 141.36 M 207.09 157.29 C 206.18 159.80 206.32 162.52 206.17 165.15 C 210.44 163.84 210.23 159.07 210.73 155.44 C 209.53 156.05 207.91 156.12 207.09 157.29 Z" />
</g>
<g id="#bf7d5cff">
<path fill="#bf7d5c" opacity="1.00" d=" M 152.14 143.79 C 154.14 142.47 156.53 142.03 158.85 141.57 C 159.62 142.44 160.40 143.31 161.17 144.18 C 159.88 147.73 158.45 151.28 157.85 155.04 C 157.64 158.66 158.85 162.16 159.55 165.68 C 155.33 163.33 151.49 160.35 148.08 156.94 C 146.65 155.41 145.02 153.33 145.89 151.12 C 147.10 148.06 149.78 145.95 152.14 143.79 Z" />
</g>
<g id="#4b5459ff">
<path fill="#4b5459" opacity="1.00" d=" M 187.44 142.49 C 187.72 142.61 188.29 142.84 188.57 142.96 C 189.41 143.76 190.21 144.61 191.03 145.43 C 190.31 148.19 189.28 150.86 188.50 153.61 C 186.91 153.55 185.32 153.42 183.76 153.14 L 183.58 153.11 C 183.63 153.22 183.71 153.42 183.76 153.53 C 183.80 154.57 183.85 155.61 183.89 156.66 C 180.37 154.19 175.39 153.30 173.93 148.67 C 177.46 144.88 182.51 143.41 187.44 142.49 M 184.23 150.24 C 184.81 150.82 184.81 150.82 184.23 150.24 Z" />
</g>
<g id="#e4a583ff">
<path fill="#e4a583" opacity="1.00" d=" M 191.03 145.43 C 190.21 144.61 189.41 143.76 188.57 142.96 C 189.04 143.08 189.99 143.32 190.46 143.44 C 190.92 143.52 191.84 143.67 192.30 143.75 C 193.85 145.74 195.49 147.64 197.17 149.53 C 197.42 149.84 197.93 150.45 198.19 150.76 C 199.74 151.01 201.29 151.28 202.83 151.59 C 203.47 151.74 204.76 152.03 205.40 152.18 C 204.72 153.79 204.16 155.45 203.71 157.14 C 203.19 157.03 202.17 156.83 201.66 156.72 C 200.22 155.67 198.95 154.41 197.78 153.08 C 195.96 150.17 193.47 147.80 191.03 145.43 Z" />
</g>
<g id="#34363aff">
<path fill="#34363a" opacity="1.00" d=" M 192.30 143.75 C 194.19 143.67 196.06 143.44 197.93 143.20 C 197.66 145.30 197.34 147.41 197.17 149.53 C 195.49 147.64 193.85 145.74 192.30 143.75 Z" />
</g>
<g id="#202023ff">
<path fill="#202023" opacity="1.00" d=" M 217.30 150.10 C 218.85 148.31 220.56 146.66 222.24 144.98 C 222.52 148.68 223.10 152.50 221.82 156.09 C 223.74 156.57 225.66 157.05 227.58 157.50 C 226.69 158.30 225.81 159.11 224.94 159.92 C 226.74 160.19 228.54 160.43 230.34 160.68 C 228.08 160.60 225.83 160.88 223.61 161.23 C 219.35 161.92 216.36 158.77 213.63 156.07 C 214.80 154.05 215.95 152.01 217.30 150.10 Z" />
</g>
<g id="#3e4243ff">
<path fill="#3e4243" opacity="1.00" d=" M 188.50 153.61 C 189.28 150.86 190.31 148.19 191.03 145.43 C 193.47 147.80 195.96 150.17 197.78 153.08 C 198.22 156.03 199.30 159.24 198.16 162.16 C 196.04 164.80 192.81 166.16 190.17 168.19 C 185.64 171.29 182.58 175.99 178.29 179.35 C 176.30 181.43 172.99 180.79 171.37 178.60 C 168.28 174.25 166.19 169.02 165.56 163.72 C 166.26 157.87 170.12 152.94 173.93 148.67 C 175.39 153.30 180.37 154.19 183.89 156.66 C 183.85 155.61 183.80 154.57 183.76 153.53 L 183.76 153.14 C 185.32 153.42 186.91 153.55 188.50 153.61 M 187.25 167.28 C 187.80 167.83 187.80 167.83 187.25 167.28 M 183.19 168.23 C 183.76 168.79 183.76 168.79 183.19 168.23 Z" />
<path fill="#3e4243" opacity="1.00" d=" M 153.59 230.49 C 155.57 229.82 157.58 229.18 159.66 228.89 C 161.84 228.91 164.03 228.95 166.21 228.83 C 161.78 229.54 157.41 231.19 152.86 230.55 L 153.59 230.49 Z" />
</g>
<g id="#e9eff7ff">
<path fill="#e9eff7" opacity="1.00" d=" M 184.23 150.24 C 184.81 150.82 184.81 150.82 184.23 150.24 Z" />
</g>
<g id="#ffffffff">
<path fill="#ffffff" opacity="1.00" d=" M 183.58 153.11 L 183.76 153.14 L 183.76 153.53 C 183.71 153.42 183.63 153.22 183.58 153.11 Z" />
<path fill="#ffffff" opacity="1.00" d=" M 245.26 211.26 C 245.79 211.79 245.79 211.79 245.26 211.26 Z" />
</g>
<g id="#eae3e6ff">
<path fill="#eae3e6" opacity="1.00" d=" M 207.09 157.29 C 207.91 156.12 209.53 156.05 210.73 155.44 C 210.23 159.07 210.44 163.84 206.17 165.15 C 206.32 162.52 206.18 159.80 207.09 157.29 Z" />
<path fill="#eae3e6" opacity="1.00" d=" M 97.82 210.91 C 98.16 212.73 98.51 214.55 98.82 216.39 C 98.82 216.93 98.82 218.01 98.82 218.55 C 97.73 218.48 96.65 218.37 95.56 218.26 C 95.61 217.36 95.71 215.57 95.76 214.67 C 95.90 214.30 96.20 213.54 96.34 213.16 C 96.71 212.60 97.45 211.47 97.82 210.91 Z" />
<path fill="#eae3e6" opacity="1.00" d=" M 163.50 227.46 C 166.65 227.37 169.80 227.47 172.95 227.39 C 171.58 227.75 170.21 228.14 168.83 228.50 C 168.18 228.58 166.87 228.75 166.21 228.83 C 164.03 228.95 161.84 228.91 159.66 228.89 C 160.95 228.44 162.22 227.93 163.50 227.46 Z" />
<path fill="#eae3e6" opacity="1.00" d=" M 145.53 229.86 C 147.74 229.50 149.96 229.77 152.07 230.50 C 149.88 230.39 147.69 230.23 145.53 229.86 Z" />
</g>
<g id="#635e5dff">
<path fill="#635e5d" opacity="1.00" d=" M 201.66 156.72 C 202.17 156.83 203.19 157.03 203.71 157.14 C 203.69 160.42 204.40 163.77 203.71 167.02 C 202.79 168.29 201.47 169.16 200.12 169.92 C 199.97 170.45 199.68 171.51 199.53 172.04 C 197.34 172.79 195.02 173.33 192.70 172.90 C 193.64 171.47 194.43 169.91 195.66 168.71 C 197.35 167.65 199.34 167.21 201.11 166.31 C 201.52 163.13 201.44 159.92 201.66 156.72 Z" />
</g>
<g id="#d8d1d2fc">
<path fill="#d8d1d2" opacity="1.00" d=" M 223.61 161.23 C 225.83 160.88 228.08 160.60 230.34 160.68 L 231.25 160.80 C 231.23 161.65 231.21 162.50 231.20 163.36 C 230.74 163.21 229.82 162.93 229.36 162.79 C 227.45 162.22 225.54 161.68 223.61 161.23 Z" />
</g>
<g id="#a7a1a3ff">
<path fill="#a7a1a3" opacity="1.00" d=" M 231.25 160.80 C 235.85 162.34 237.44 167.20 240.87 170.12 L 241.47 170.66 C 240.32 172.47 239.16 174.28 238.01 176.09 C 237.44 172.62 236.90 169.06 235.14 165.96 C 233.88 165.01 232.57 164.13 231.20 163.36 C 231.21 162.50 231.23 161.65 231.25 160.80 Z" />
</g>
<g id="#686564ff">
<path fill="#686564" opacity="1.00" d=" M 212.37 165.77 C 213.94 164.69 215.21 161.91 217.43 162.68 C 221.69 164.09 225.37 166.79 228.90 169.50 L 229.35 170.19 C 228.13 172.15 226.96 174.15 225.89 176.20 C 225.70 175.69 225.33 174.68 225.14 174.18 C 224.93 173.66 224.51 172.63 224.30 172.11 C 225.06 171.46 225.83 170.81 226.60 170.17 C 221.85 168.70 217.07 167.38 212.37 165.77 Z" />
</g>
<g id="#393432ff">
<path fill="#393432" opacity="1.00" d=" M 225.60 162.92 C 226.54 162.89 228.42 162.82 229.36 162.79 C 229.82 162.93 230.74 163.21 231.20 163.36 C 232.57 164.13 233.88 165.01 235.14 165.96 C 234.88 166.49 234.37 167.55 234.11 168.08 C 231.28 166.35 228.41 164.67 225.60 162.92 Z" />
</g>
<g id="#eaa888ff">
<path fill="#eaa888" opacity="1.00" d=" M 254.79 166.66 C 256.44 164.27 259.61 163.86 262.08 162.68 C 263.14 165.36 265.23 167.31 267.20 169.32 C 267.27 171.97 266.18 174.54 265.32 177.02 C 265.41 175.00 266.61 171.97 264.18 170.90 C 260.73 169.70 257.25 171.44 254.63 173.63 C 254.54 171.30 254.25 168.94 254.79 166.66 Z" />
</g>
<g id="#8b8a8dff">
<path fill="#8b8a8d" opacity="1.00" d=" M 209.78 165.82 C 212.86 165.63 213.53 169.13 214.33 171.39 C 213.16 173.82 212.27 176.44 212.50 179.18 C 212.12 179.72 211.75 180.26 211.39 180.81 C 211.13 179.45 210.87 178.10 210.62 176.74 C 208.98 177.55 206.96 177.90 205.75 179.36 C 205.09 181.93 205.66 184.60 205.84 187.19 C 207.45 186.90 209.07 186.61 210.70 186.37 C 211.83 186.20 212.96 186.05 214.09 185.91 C 213.85 186.23 213.36 186.88 213.11 187.20 C 211.58 189.41 209.83 191.51 207.35 192.69 C 208.69 192.95 210.03 193.20 211.37 193.46 C 209.29 195.93 205.56 197.50 202.58 195.64 C 198.65 193.71 199.25 188.75 198.83 185.11 C 199.89 185.33 200.96 185.55 202.03 185.77 C 201.41 182.94 200.74 180.09 200.79 177.17 C 202.34 175.68 204.82 175.93 206.78 175.32 C 206.95 174.37 207.12 173.43 207.30 172.49 C 207.97 172.97 208.64 173.45 209.32 173.94 C 209.63 173.51 210.25 172.64 210.57 172.21 C 210.38 170.63 210.19 169.05 210.04 167.47 C 209.97 167.06 209.84 166.23 209.78 165.82 M 201.25 188.56 C 200.41 189.95 202.71 192.85 203.52 190.45 C 204.81 188.75 202.57 187.13 201.25 188.56 M 203.37 193.11 C 203.49 196.42 206.39 191.60 203.37 193.11 Z" />
</g>
<g id="#fbf7f4ff">
<path fill="#fbf7f4" opacity="1.00" d=" M 207.29 167.29 C 207.66 166.04 208.49 165.55 209.78 165.82 C 209.84 166.23 209.97 167.06 210.04 167.47 C 208.91 168.42 207.99 168.36 207.29 167.29 Z" />
</g>
<g id="#6a6463ff">
<path fill="#6a6463" opacity="1.00" d=" M 235.14 165.96 C 236.90 169.06 237.44 172.62 238.01 176.09 C 239.16 174.28 240.32 172.47 241.47 170.66 L 242.01 171.16 C 241.66 175.45 241.51 179.75 241.87 184.05 C 241.37 185.65 240.86 187.25 240.35 188.85 C 241.50 189.31 242.66 189.79 243.83 190.24 C 240.96 189.62 237.71 189.57 236.04 192.41 C 234.83 193.73 233.66 195.08 232.42 196.36 C 231.71 196.87 230.98 197.34 230.24 197.80 C 228.66 198.70 227.03 199.52 225.33 200.17 C 225.55 198.99 225.76 197.82 225.98 196.64 C 225.04 196.50 224.11 196.37 223.18 196.23 C 223.56 194.00 223.97 191.77 224.49 189.56 C 224.81 188.21 225.11 186.85 225.36 185.48 C 225.53 184.00 225.57 182.51 225.62 181.02 C 225.86 181.25 226.34 181.71 226.58 181.93 C 226.88 184.57 227.19 187.22 227.42 189.87 C 227.90 189.90 228.87 189.97 229.35 190.01 C 231.34 185.85 230.33 181.19 231.31 176.82 C 232.97 178.95 234.65 181.07 236.43 183.10 C 236.42 179.10 234.91 175.31 232.62 172.08 C 233.33 171.90 234.03 171.74 234.74 171.58 C 234.53 170.41 234.32 169.24 234.11 168.08 C 234.37 167.55 234.88 166.49 235.14 165.96 M 227.63 196.18 C 230.60 195.87 233.70 194.44 233.34 190.93 C 231.08 192.25 229.14 194.03 227.63 196.18 Z" />
</g>
<g id="#bdc0bdff">
<path fill="#bdc0bd" opacity="1.00" d=" M 187.25 167.28 C 187.80 167.83 187.80 167.83 187.25 167.28 Z" />
</g>
<g id="#cccccbff">
<path fill="#cccccb" opacity="1.00" d=" M 183.19 168.23 C 183.76 168.79 183.76 168.79 183.19 168.23 Z" />
</g>
<g id="#ded3cdff">
<path fill="#ded3cd" opacity="1.00" d=" M 228.90 169.50 C 230.09 170.43 231.37 171.23 232.62 172.08 C 234.91 175.31 236.42 179.10 236.43 183.10 C 234.65 181.07 232.97 178.95 231.31 176.82 C 232.06 174.38 230.41 172.23 229.35 170.19 L 228.90 169.50 Z" />
<path fill="#ded3cd" opacity="1.00" d=" M 248.82 187.69 C 251.25 187.69 254.19 186.69 256.17 188.59 C 256.72 191.37 256.35 194.22 255.89 196.98 L 255.36 197.69 C 252.54 195.42 249.84 192.99 247.28 190.43 C 247.66 189.75 248.43 188.37 248.82 187.69 Z" />
<path fill="#ded3cd" opacity="1.00" d=" M 239.23 193.01 C 239.62 190.89 242.18 191.62 243.71 191.28 C 243.37 192.87 242.98 194.46 242.73 196.07 C 241.40 195.27 239.83 194.55 239.23 193.01 Z" />
</g>
<g id="#c6c4caff">
<path fill="#c6c4ca" opacity="1.00" d=" M 200.12 169.92 C 200.83 171.12 201.54 172.34 202.24 173.56 C 204.40 172.52 206.55 171.45 208.68 170.36 C 209.15 170.82 210.09 171.75 210.57 172.21 C 210.25 172.64 209.63 173.51 209.32 173.94 C 208.64 173.45 207.97 172.97 207.30 172.49 C 207.12 173.43 206.95 174.37 206.78 175.32 C 204.82 175.93 202.34 175.68 200.79 177.17 C 200.74 180.09 201.41 182.94 202.03 185.77 C 200.96 185.55 199.89 185.33 198.83 185.11 C 198.21 184.42 197.59 183.74 196.97 183.06 C 198.29 179.61 201.35 175.82 199.53 172.04 C 199.68 171.51 199.97 170.45 200.12 169.92 Z" />
<path fill="#c6c4ca" opacity="1.00" d=" M 218.88 172.24 C 220.96 172.88 223.05 173.53 225.14 174.18 C 225.33 174.68 225.70 175.69 225.89 176.20 C 223.01 175.91 220.03 175.22 218.88 172.24 Z" />
<path fill="#c6c4ca" opacity="1.00" d=" M 201.02 234.91 C 201.02 233.62 202.74 233.62 203.56 233.03 C 204.05 234.31 204.55 235.60 205.05 236.89 C 204.73 237.43 204.07 238.51 203.75 239.05 C 202.81 237.69 201.60 236.47 201.02 234.91 Z" />
</g>
<g id="#010101ca">
<path fill="#010101" opacity="0.79" d=" M 240.87 170.12 C 244.68 169.78 248.86 171.32 250.35 175.09 C 250.13 180.61 245.36 185.06 246.45 190.76 C 245.57 190.63 244.69 190.43 243.83 190.24 C 242.66 189.79 241.50 189.31 240.35 188.85 C 240.86 187.25 241.37 185.65 241.87 184.05 C 242.99 181.11 244.89 178.33 244.95 175.10 C 244.93 173.27 243.11 172.33 242.01 171.16 L 241.47 170.66 L 240.87 170.12 Z" />
</g>
<g id="#c3b8b2ff">
<path fill="#c3b8b2" opacity="1.00" d=" M 254.63 173.63 C 257.25 171.44 260.73 169.70 264.18 170.90 C 266.61 171.97 265.41 175.00 265.32 177.02 C 263.69 180.58 261.71 184.02 260.89 187.89 C 260.99 187.33 261.19 186.19 261.30 185.62 C 257.76 185.85 254.28 185.04 251.43 182.85 L 251.88 182.08 C 252.23 181.59 252.93 180.59 253.29 180.09 C 253.89 177.97 254.47 175.83 254.63 173.63 Z" />
</g>
<g id="#484649ff">
<path fill="#484649" opacity="1.00" d=" M 242.01 171.16 C 243.11 172.33 244.93 173.27 244.95 175.10 C 244.89 178.33 242.99 181.11 241.87 184.05 C 241.51 179.75 241.66 175.45 242.01 171.16 Z" />
</g>
<g id="#e19d7cff">
<path fill="#e19d7c" opacity="1.00" d=" M 187.44 176.42 C 187.99 174.41 189.68 172.12 192.05 172.83 C 190.74 176.55 189.62 180.52 190.92 184.44 L 191.07 185.35 C 190.45 185.93 189.80 186.48 189.16 187.03 C 191.42 191.99 194.00 197.09 198.48 200.43 C 200.24 201.66 201.77 203.28 202.18 205.48 C 200.71 205.89 199.24 206.32 197.77 206.71 C 196.23 207.07 194.69 207.41 193.13 207.59 C 190.72 206.69 187.99 205.33 187.48 202.53 C 187.13 199.18 187.65 195.82 188.01 192.49 C 184.60 191.93 181.19 191.33 177.94 190.13 C 176.88 189.10 175.84 188.07 174.78 187.05 C 174.74 186.24 174.70 185.43 174.66 184.62 C 178.39 182.79 181.91 180.54 185.15 177.92 C 186.03 180.03 186.92 182.13 187.82 184.24 C 187.53 181.65 186.90 179.01 187.44 176.42 Z" />
</g>
<g id="#757172ff">
<path fill="#757172" opacity="1.00" d=" M 192.70 172.90 C 195.02 173.33 197.34 172.79 199.53 172.04 C 201.35 175.82 198.29 179.61 196.97 183.06 C 197.59 183.74 198.21 184.42 198.83 185.11 C 199.25 188.75 198.65 193.71 202.58 195.64 C 205.56 197.50 209.29 195.93 211.37 193.46 C 210.03 193.20 208.69 192.95 207.35 192.69 C 209.83 191.51 211.58 189.41 213.11 187.20 C 213.18 188.27 213.28 189.33 213.42 190.40 C 213.73 190.51 214.34 190.74 214.65 190.86 C 216.66 191.53 218.66 192.48 220.81 192.56 C 222.29 191.92 223.41 190.71 224.49 189.56 C 223.97 191.77 223.56 194.00 223.18 196.23 C 224.11 196.37 225.04 196.50 225.98 196.64 C 225.76 197.82 225.55 198.99 225.33 200.17 C 223.51 200.67 221.66 201.09 219.83 201.55 C 218.46 201.89 217.11 202.26 215.75 202.63 C 215.05 204.09 214.34 205.54 213.64 207.01 C 213.42 207.47 212.98 208.40 212.76 208.86 C 211.67 207.31 210.58 205.75 209.42 204.25 C 208.63 203.22 207.77 203.17 206.83 204.10 C 206.10 204.73 205.39 205.38 204.67 206.03 C 205.97 209.00 206.72 212.16 207.63 215.26 C 206.71 214.24 205.76 213.24 204.79 212.28 C 202.69 211.24 200.35 212.03 198.26 212.66 C 197.43 211.60 196.59 210.55 195.76 209.50 C 196.42 208.57 197.09 207.64 197.77 206.71 C 199.24 206.32 200.71 205.89 202.18 205.48 C 201.77 203.28 200.24 201.66 198.48 200.43 C 194.00 197.09 191.42 191.99 189.16 187.03 C 189.80 186.48 190.45 185.93 191.07 185.35 C 193.22 183.70 192.87 180.88 192.85 178.50 C 191.84 180.34 191.21 182.36 190.92 184.44 C 189.62 180.52 190.74 176.55 192.05 172.83 L 192.70 172.90 Z" />
</g>
<g id="#b7b2b7ff">
<path fill="#b7b2b7" opacity="1.00" d=" M 217.45 178.23 C 218.61 177.80 219.82 176.32 221.13 177.06 C 222.73 178.25 224.16 179.66 225.62 181.02 C 225.57 182.51 225.53 184.00 225.36 185.48 C 221.40 186.39 217.48 187.79 214.65 190.86 C 214.34 190.74 213.73 190.51 213.42 190.40 C 213.28 189.33 213.18 188.27 213.11 187.20 C 213.36 186.88 213.85 186.23 214.09 185.91 C 216.48 185.62 218.89 185.67 221.29 185.66 C 220.04 184.46 219.15 182.61 217.50 182.00 C 215.08 182.17 212.69 182.64 210.26 182.69 C 210.94 183.81 210.85 185.12 210.70 186.37 C 209.07 186.61 207.45 186.90 205.84 187.19 C 205.66 184.60 205.09 181.93 205.75 179.36 C 206.96 177.90 208.98 177.55 210.62 176.74 C 210.87 178.10 211.13 179.45 211.39 180.81 C 211.75 180.26 212.12 179.72 212.50 179.18 C 212.83 178.72 213.48 177.80 213.81 177.35 C 215.02 177.65 216.23 177.95 217.45 178.23 Z" />
<path fill="#b7b2b7" opacity="1.00" d=" M 116.57 224.40 C 125.29 223.45 133.91 225.52 142.26 227.77 C 144.51 228.62 146.66 227.45 148.65 226.52 C 150.96 225.43 153.36 224.54 155.82 223.85 C 155.75 224.48 155.60 225.75 155.52 226.39 C 153.28 226.66 151.04 226.94 148.80 227.22 C 150.47 228.21 152.05 229.32 153.59 230.49 L 152.86 230.55 L 152.07 230.50 C 149.96 229.77 147.74 229.50 145.53 229.86 C 139.00 228.96 132.79 226.46 126.22 225.80 C 122.98 225.50 119.75 225.09 116.57 224.40 Z" />
</g>
<g id="#fcf9f7ff">
<path fill="#fcf9f7" opacity="1.00" d=" M 190.92 184.44 C 191.21 182.36 191.84 180.34 192.85 178.50 C 192.87 180.88 193.22 183.70 191.07 185.35 L 190.92 184.44 Z" />
<path fill="#fcf9f7" opacity="1.00" d=" M 201.25 188.56 C 202.57 187.13 204.81 188.75 203.52 190.45 C 202.71 192.85 200.41 189.95 201.25 188.56 Z" />
<path fill="#fcf9f7" opacity="1.00" d=" M 225.37 200.34 C 228.72 201.43 230.93 203.99 231.53 207.46 C 232.10 206.80 232.67 206.14 233.24 205.48 C 234.25 205.99 235.26 206.50 236.27 207.02 C 235.36 208.59 234.45 210.15 233.65 211.78 C 232.91 214.05 232.27 216.35 231.74 218.69 C 229.97 218.45 228.50 217.37 227.17 216.25 C 227.08 217.77 226.97 219.28 226.86 220.81 C 224.81 220.97 222.76 221.13 220.71 221.32 C 220.17 220.44 219.61 219.58 219.04 218.73 C 216.49 215.21 214.81 211.17 213.64 207.01 C 214.34 205.54 215.05 204.09 215.75 202.63 C 217.11 202.26 218.46 201.89 219.83 201.55 C 222.51 201.72 224.31 203.75 225.99 205.61 C 225.76 203.85 225.56 202.10 225.37 200.34 Z" />
<path fill="#fcf9f7" opacity="1.00" d=" M 207.22 207.24 C 207.71 207.34 208.70 207.53 209.19 207.63 C 211.15 211.20 213.26 214.77 214.11 218.81 C 210.92 215.55 208.40 211.67 207.22 207.24 Z" />
<path fill="#fcf9f7" opacity="1.00" d=" M 194.73 215.95 C 195.49 215.20 196.25 214.45 197.03 213.73 C 201.82 215.59 205.76 219.36 207.03 224.43 L 206.40 223.81 C 204.04 221.31 201.68 218.80 198.98 216.67 C 197.57 216.36 196.15 216.16 194.73 215.95 Z" />
</g>
<g id="#47413ea4">
<path fill="#47413e" opacity="0.64" d=" M 251.88 182.08 C 252.23 181.59 252.93 180.59 253.29 180.09 C 252.93 180.59 252.23 181.59 251.88 182.08 Z" />
</g>
<g id="#452e1fff">
<path fill="#452e1f" opacity="1.00" d=" M 161.83 200.85 C 160.08 194.30 159.56 187.38 162.09 180.94 C 162.10 181.70 162.13 183.20 162.15 183.96 C 164.77 183.08 167.36 182.12 169.97 181.21 C 171.02 182.70 172.11 184.16 173.26 185.58 C 173.37 186.81 173.46 188.05 173.54 189.29 C 173.69 191.61 174.00 193.92 174.40 196.21 C 174.79 198.46 175.15 200.72 175.73 202.94 C 176.13 204.15 176.57 205.34 177.03 206.53 C 177.61 207.96 178.22 209.39 178.91 210.79 C 179.87 212.39 180.93 213.94 182.07 215.42 C 183.97 216.69 185.95 217.82 187.92 218.98 C 189.08 219.73 190.29 219.81 191.57 219.21 C 193.31 220.85 194.65 222.92 194.41 225.42 C 191.74 224.94 189.08 224.45 186.42 223.96 C 183.04 220.02 178.46 217.44 173.68 215.59 C 175.18 215.27 176.68 214.94 178.17 214.59 C 177.08 212.53 176.67 209.82 174.67 208.43 C 171.58 207.94 168.44 207.93 165.32 207.77 C 165.09 206.05 164.70 204.24 163.49 202.92 C 161.26 202.30 158.92 202.23 156.63 202.06 C 158.36 201.68 160.10 201.27 161.83 200.85 Z" />
</g>
<g id="#efe9eeff">
<path fill="#efe9ee" opacity="1.00" d=" M 210.26 182.69 C 212.69 182.64 215.08 182.17 217.50 182.00 C 219.15 182.61 220.04 184.46 221.29 185.66 C 218.89 185.67 216.48 185.62 214.09 185.91 C 212.96 186.05 211.83 186.20 210.70 186.37 C 210.85 185.12 210.94 183.81 210.26 182.69 Z" />
</g>
<g id="#80756fff">
<path fill="#80756f" opacity="1.00" d=" M 248.82 187.69 C 249.65 186.05 250.50 184.43 251.43 182.85 C 254.28 185.04 257.76 185.85 261.30 185.62 C 261.19 186.19 260.99 187.33 260.89 187.89 C 260.13 191.35 258.12 194.31 255.89 196.98 C 256.35 194.22 256.72 191.37 256.17 188.59 C 254.19 186.69 251.25 187.69 248.82 187.69 Z" />
</g>
<g id="#8a868bff">
<path fill="#8a868b" opacity="1.00" d=" M 214.65 190.86 C 217.48 187.79 221.40 186.39 225.36 185.48 C 225.11 186.85 224.81 188.21 224.49 189.56 C 223.41 190.71 222.29 191.92 220.81 192.56 C 218.66 192.48 216.66 191.53 214.65 190.86 Z" />
</g>
<g id="#61544fff">
<path fill="#61544f" opacity="1.00" d=" M 173.26 185.58 C 173.64 185.95 174.40 186.68 174.78 187.05 C 175.84 188.07 176.88 189.10 177.94 190.13 C 178.66 190.84 179.36 191.57 180.09 192.28 C 179.63 196.04 180.23 199.84 181.47 203.40 C 180.79 206.01 180.94 208.67 183.81 209.77 C 183.90 209.23 184.09 208.15 184.18 207.62 C 184.39 206.46 184.59 205.30 184.78 204.14 C 186.93 206.48 189.82 208.25 193.13 207.59 C 194.69 207.41 196.23 207.07 197.77 206.71 C 197.09 207.64 196.42 208.57 195.76 209.50 C 196.59 210.55 197.43 211.60 198.26 212.66 C 197.96 212.93 197.34 213.46 197.03 213.73 C 196.25 214.45 195.49 215.20 194.73 215.95 C 196.15 216.16 197.57 216.36 198.98 216.67 C 195.75 221.79 195.97 227.94 196.25 233.73 C 195.06 231.11 194.33 228.31 194.41 225.42 C 194.65 222.92 193.31 220.85 191.57 219.21 C 190.84 217.98 188.56 217.30 187.92 218.98 C 185.95 217.82 183.97 216.69 182.07 215.42 C 182.69 214.56 183.30 213.71 183.92 212.86 C 182.24 212.18 180.57 211.49 178.91 210.79 C 178.22 209.39 177.61 207.96 177.03 206.53 C 177.71 204.34 178.35 202.15 179.01 199.96 C 177.93 200.97 176.84 201.96 175.73 202.94 C 175.15 200.72 174.79 198.46 174.40 196.21 C 174.95 195.13 175.54 194.07 175.95 192.93 C 175.78 191.44 174.33 190.48 173.54 189.29 C 173.46 188.05 173.37 186.81 173.26 185.58 Z" />
</g>
<g id="#9c979eff">
<path fill="#9c979e" opacity="1.00" d=" M 236.04 192.41 C 237.71 189.57 240.96 189.62 243.83 190.24 C 244.69 190.43 245.57 190.63 246.45 190.76 L 247.28 190.43 C 249.84 192.99 252.54 195.42 255.36 197.69 C 255.40 198.57 255.45 199.45 255.50 200.33 C 255.20 201.68 254.86 203.02 254.54 204.37 C 253.94 204.55 252.75 204.90 252.15 205.08 C 251.50 204.13 250.83 203.21 250.12 202.32 C 246.25 199.45 240.29 196.15 235.83 199.65 C 235.35 199.95 234.40 200.55 233.92 200.85 C 232.72 199.80 231.48 198.80 230.24 197.80 C 230.98 197.34 231.71 196.87 232.42 196.36 C 233.98 197.31 235.83 197.29 237.39 196.35 C 236.94 195.03 236.49 193.72 236.04 192.41 M 239.23 193.01 C 239.83 194.55 241.40 195.27 242.73 196.07 C 242.98 194.46 243.37 192.87 243.71 191.28 C 242.18 191.62 239.62 190.89 239.23 193.01 Z" />
</g>
<g id="#9d8e89ff">
<path fill="#9d8e89" opacity="1.00" d=" M 173.54 189.29 C 174.33 190.48 175.78 191.44 175.95 192.93 C 175.54 194.07 174.95 195.13 174.40 196.21 C 174.00 193.92 173.69 191.61 173.54 189.29 Z" />
</g>
<g id="#ae7157ff">
<path fill="#ae7157" opacity="1.00" d=" M 177.94 190.13 C 181.19 191.33 184.60 191.93 188.01 192.49 C 187.65 195.82 187.13 199.18 187.48 202.53 C 187.99 205.33 190.72 206.69 193.13 207.59 C 189.82 208.25 186.93 206.48 184.78 204.14 C 184.40 201.29 184.09 198.42 183.45 195.62 C 182.50 194.34 181.22 193.37 180.09 192.28 C 179.36 191.57 178.66 190.84 177.94 190.13 Z" />
</g>
<g id="#9d9797ff">
<path fill="#9d9797" opacity="1.00" d=" M 227.63 196.18 C 229.14 194.03 231.08 192.25 233.34 190.93 C 233.70 194.44 230.60 195.87 227.63 196.18 Z" />
</g>
<g id="#4f3a35ff">
<path fill="#4f3a35" opacity="1.00" d=" M 181.47 203.40 C 180.23 199.84 179.63 196.04 180.09 192.28 C 181.22 193.37 182.50 194.34 183.45 195.62 C 184.09 198.42 184.40 201.29 184.78 204.14 C 184.59 205.30 184.39 206.46 184.18 207.62 C 183.31 206.19 182.36 204.81 181.47 203.40 Z" />
</g>
<g id="#f9f3eeff">
<path fill="#f9f3ee" opacity="1.00" d=" M 203.37 193.11 C 206.39 191.60 203.49 196.42 203.37 193.11 Z" />
</g>
<g id="#c1bbc0ff">
<path fill="#c1bbc0" opacity="1.00" d=" M 232.42 196.36 C 233.66 195.08 234.83 193.73 236.04 192.41 C 236.49 193.72 236.94 195.03 237.39 196.35 C 235.83 197.29 233.98 197.31 232.42 196.36 Z" />
</g>
<g id="#736e73ff">
<path fill="#736e73" opacity="1.00" d=" M 235.83 199.65 C 240.29 196.15 246.25 199.45 250.12 202.32 C 249.50 204.26 248.92 206.22 248.46 208.21 C 248.17 206.69 247.89 205.15 247.29 203.72 C 246.14 201.88 243.78 201.85 241.86 201.75 C 241.32 202.02 240.24 202.57 239.69 202.84 C 239.95 205.68 240.20 208.52 240.49 211.37 C 239.61 210.45 238.74 209.52 237.88 208.60 C 238.39 205.35 236.31 202.74 233.92 200.85 C 234.40 200.55 235.35 199.95 235.83 199.65 Z" />
</g>
<g id="#beb5abff">
<path fill="#beb5ab" opacity="1.00" d=" M 225.33 200.17 C 227.03 199.52 228.66 198.70 230.24 197.80 C 231.48 198.80 232.72 199.80 233.92 200.85 C 236.31 202.74 238.39 205.35 237.88 208.60 C 237.58 210.12 237.23 211.64 236.86 213.16 C 235.78 212.69 234.72 212.23 233.65 211.78 C 234.45 210.15 235.36 208.59 236.27 207.02 C 235.26 206.50 234.25 205.99 233.24 205.48 C 232.67 206.14 232.10 206.80 231.53 207.46 C 230.93 203.99 228.72 201.43 225.37 200.34 C 225.56 202.10 225.76 203.85 225.99 205.61 C 224.31 203.75 222.51 201.72 219.83 201.55 C 221.66 201.09 223.51 200.67 225.33 200.17 Z" />
</g>
<g id="#b3a497ff">
<path fill="#b3a497" opacity="1.00" d=" M 175.73 202.94 C 176.84 201.96 177.93 200.97 179.01 199.96 C 178.35 202.15 177.71 204.34 177.03 206.53 C 176.57 205.34 176.13 204.15 175.73 202.94 Z" />
<path fill="#b3a497" opacity="1.00" d=" M 233.65 211.78 C 234.72 212.23 235.78 212.69 236.86 213.16 C 236.09 216.05 234.85 218.79 233.69 221.55 C 233.06 220.58 232.39 219.64 231.74 218.69 C 232.27 216.35 232.91 214.05 233.65 211.78 Z" />
</g>
<g id="#767175f2">
<path fill="#767175" opacity="0.95" d=" M 254.54 204.37 C 254.86 203.02 255.20 201.68 255.50 200.33 C 256.64 204.09 257.15 208.48 253.85 211.35 C 253.33 209.25 252.82 207.14 252.15 205.08 C 252.75 204.90 253.94 204.55 254.54 204.37 Z" />
</g>
<g id="#0e0e0d6a">
<path fill="#0e0e0d" opacity="0.42" d=" M 147.94 203.11 C 150.02 201.58 152.64 201.42 155.02 202.33 C 152.81 203.42 150.33 203.56 147.94 203.11 Z" />
</g>
<g id="#736b69fe">
<path fill="#736b69" opacity="1.00" d=" M 155.02 202.33 C 155.42 202.26 156.22 202.13 156.63 202.06 C 158.92 202.23 161.26 202.30 163.49 202.92 C 164.70 204.24 165.09 206.05 165.32 207.77 C 164.78 213.31 166.21 218.69 166.92 224.13 C 166.52 224.07 165.72 223.96 165.32 223.90 L 165.17 223.06 C 164.22 217.78 163.14 212.52 162.33 207.22 C 162.75 206.48 163.17 205.74 163.59 205.00 C 161.98 204.67 160.38 204.35 158.79 204.02 C 158.43 206.69 158.02 209.35 157.55 212.01 C 157.10 210.96 156.65 209.91 156.23 208.86 C 155.75 207.64 155.25 206.42 154.75 205.21 C 150.50 204.18 146.11 203.96 141.75 204.21 C 143.81 203.84 145.87 203.47 147.94 203.11 C 150.33 203.56 152.81 203.42 155.02 202.33 Z" />
</g>
<g id="#968f92ff">
<path fill="#968f92" opacity="1.00" d=" M 239.69 202.84 C 240.24 202.57 241.32 202.02 241.86 201.75 C 242.35 203.99 241.78 207.04 244.02 208.46 C 245.25 209.40 246.62 210.12 247.97 210.88 C 247.31 214.40 246.58 217.93 245.34 221.30 C 242.74 223.83 241.21 227.17 238.94 229.96 C 235.25 234.13 229.17 235.27 223.90 234.08 C 222.23 233.60 220.62 232.96 219.02 232.28 C 223.73 232.08 228.45 231.43 232.89 229.82 C 236.67 228.72 237.80 224.50 239.37 221.37 C 241.00 218.27 240.96 214.74 240.49 211.37 C 240.20 208.52 239.95 205.68 239.69 202.84 M 245.26 211.26 C 245.79 211.79 245.79 211.79 245.26 211.26 Z" />
</g>
<g id="#d5c9c2ff">
<path fill="#d5c9c2" opacity="1.00" d=" M 241.86 201.75 C 243.78 201.85 246.14 201.88 247.29 203.72 C 247.89 205.15 248.17 206.69 248.46 208.21 C 248.34 208.88 248.09 210.21 247.97 210.88 C 246.62 210.12 245.25 209.40 244.02 208.46 C 241.78 207.04 242.35 203.99 241.86 201.75 Z" />
</g>
<g id="#ece6e3ff">
<path fill="#ece6e3" opacity="1.00" d=" M 206.83 204.10 C 207.77 203.17 208.63 203.22 209.42 204.25 C 209.39 206.14 206.83 205.83 206.83 204.10 Z" />
</g>
<g id="#d1c6c0ff">
<path fill="#d1c6c0" opacity="1.00" d=" M 116.12 206.65 C 124.75 207.04 133.25 205.48 141.75 204.21 C 146.11 203.96 150.50 204.18 154.75 205.21 C 155.25 206.42 155.75 207.64 156.23 208.86 C 157.70 213.80 156.55 218.90 155.82 223.85 C 153.36 224.54 150.96 225.43 148.65 226.52 C 146.20 225.34 141.73 225.57 141.55 222.00 C 141.30 216.49 143.16 211.17 144.73 205.97 C 138.22 206.22 131.82 208.16 125.28 207.46 C 122.23 207.19 119.19 206.70 116.12 206.65 Z" />
</g>
<g id="#9e8c87ff">
<path fill="#9e8c87" opacity="1.00" d=" M 158.79 204.02 C 160.38 204.35 161.98 204.67 163.59 205.00 C 163.17 205.74 162.75 206.48 162.33 207.22 C 161.61 206.82 160.16 206.00 159.44 205.59 C 158.30 212.21 159.07 218.97 160.73 225.43 C 162.21 224.63 163.69 223.85 165.17 223.06 L 165.32 223.90 C 164.23 225.04 163.08 226.13 161.94 227.22 C 160.60 226.20 159.43 224.98 158.20 223.84 C 157.40 223.84 156.61 223.84 155.82 223.85 C 156.55 218.90 157.70 213.80 156.23 208.86 C 156.65 209.91 157.10 210.96 157.55 212.01 C 158.02 209.35 158.43 206.69 158.79 204.02 Z" />
</g>
<g id="#9c8d87ff">
<path fill="#9c8d87" opacity="1.00" d=" M 183.81 209.77 C 180.94 208.67 180.79 206.01 181.47 203.40 C 182.36 204.81 183.31 206.19 184.18 207.62 C 184.09 208.15 183.90 209.23 183.81 209.77 Z" />
</g>
<g id="#949094ff">
<path fill="#949094" opacity="1.00" d=" M 204.67 206.03 C 205.39 205.38 206.10 204.73 206.83 204.10 C 206.83 205.83 209.39 206.14 209.42 204.25 C 210.58 205.75 211.67 207.31 212.76 208.86 C 212.98 208.40 213.42 207.47 213.64 207.01 C 214.81 211.17 216.49 215.21 219.04 218.73 C 218.70 219.90 218.36 221.08 218.03 222.26 C 216.12 221.63 214.21 221.00 212.31 220.35 C 212.18 221.03 211.94 222.39 211.82 223.07 C 211.57 222.84 211.08 222.38 210.83 222.15 C 209.68 219.89 208.66 217.57 207.63 215.26 C 206.72 212.16 205.97 209.00 204.67 206.03 M 207.22 207.24 C 208.40 211.67 210.92 215.55 214.11 218.81 C 213.26 214.77 211.15 211.20 209.19 207.63 C 208.70 207.53 207.71 207.34 207.22 207.24 Z" />
</g>
<g id="#665b56ff">
<path fill="#665b56" opacity="1.00" d=" M 125.28 207.46 C 131.82 208.16 138.22 206.22 144.73 205.97 C 143.16 211.17 141.30 216.49 141.55 222.00 C 141.73 225.57 146.20 225.34 148.65 226.52 C 146.66 227.45 144.51 228.62 142.26 227.77 C 133.91 225.52 125.29 223.45 116.57 224.40 C 119.75 225.09 122.98 225.50 126.22 225.80 C 122.15 225.64 118.08 225.73 114.01 225.74 C 114.18 225.37 114.50 224.65 114.66 224.28 C 113.95 224.15 112.54 223.87 111.83 223.74 C 111.29 218.88 111.68 214.02 112.33 209.20 C 111.00 210.31 109.70 211.45 108.53 212.74 C 106.20 212.71 103.87 212.60 101.54 212.42 C 100.63 213.74 99.70 215.05 98.82 216.39 C 98.51 214.55 98.16 212.73 97.82 210.91 C 97.45 211.47 96.71 212.60 96.34 213.16 C 96.44 212.39 96.63 210.85 96.73 210.08 C 100.09 210.21 104.02 211.40 106.87 208.99 C 109.56 207.14 113.03 207.32 116.12 206.65 C 119.19 206.70 122.23 207.19 125.28 207.46 M 127.46 209.59 C 126.70 210.33 126.38 211.23 126.50 212.28 C 125.37 211.53 124.26 210.76 123.17 209.96 C 122.44 209.92 120.96 209.83 120.23 209.79 C 120.78 209.12 121.34 208.44 121.89 207.77 C 117.41 208.11 112.62 211.99 113.17 216.82 C 113.12 218.89 113.57 220.92 113.96 222.95 C 117.21 222.49 121.55 223.97 123.64 220.65 C 124.27 220.56 125.52 220.36 126.14 220.26 C 126.24 220.83 126.42 221.97 126.51 222.54 C 130.61 223.61 134.79 224.31 139.00 224.80 C 139.07 223.58 139.14 222.35 139.20 221.13 C 140.19 216.61 140.54 211.99 141.02 207.40 C 136.54 208.36 131.92 208.52 127.46 209.59 Z" />
</g>
<g id="#ccc1b9ff">
<path fill="#ccc1b9" opacity="1.00" d=" M 160.73 225.43 C 159.07 218.97 158.30 212.21 159.44 205.59 C 160.16 206.00 161.61 206.82 162.33 207.22 C 163.14 212.52 164.22 217.78 165.17 223.06 C 163.69 223.85 162.21 224.63 160.73 225.43 Z" />
</g>
<g id="#d5cac4ff">
<path fill="#d5cac4" opacity="1.00" d=" M 127.46 209.59 C 131.92 208.52 136.54 208.36 141.02 207.40 C 140.54 211.99 140.19 216.61 139.20 221.13 C 134.83 221.54 130.42 221.29 126.14 220.26 C 126.76 217.64 126.76 214.94 126.50 212.28 C 126.38 211.23 126.70 210.33 127.46 209.59 Z" />
</g>
<g id="#d3c9c2ff">
<path fill="#d3c9c2" opacity="1.00" d=" M 113.17 216.82 C 112.62 211.99 117.41 208.11 121.89 207.77 C 121.34 208.44 120.78 209.12 120.23 209.79 C 120.96 209.83 122.44 209.92 123.17 209.96 C 123.20 213.86 122.55 217.71 121.64 221.49 C 119.25 221.01 116.84 220.62 114.41 220.34 C 113.99 219.17 113.56 218.00 113.17 216.82 Z" />
</g>
<g id="#c6bab4ff">
<path fill="#c6bab4" opacity="1.00" d=" M 166.92 224.13 C 166.21 218.69 164.78 213.31 165.32 207.77 C 165.78 209.26 165.77 210.99 166.76 212.26 C 168.29 213.61 170.29 214.24 172.15 215.02 C 172.11 215.42 172.02 216.22 171.97 216.62 C 171.50 217.04 171.01 217.46 170.53 217.88 C 170.65 219.21 170.78 220.54 170.92 221.87 C 170.37 222.67 169.83 223.48 169.28 224.29 C 168.49 224.25 167.71 224.20 166.92 224.13 Z" />
</g>
<g id="#958c87ff">
<path fill="#958c87" opacity="1.00" d=" M 165.32 207.77 C 168.44 207.93 171.58 207.94 174.67 208.43 C 176.67 209.82 177.08 212.53 178.17 214.59 C 176.68 214.94 175.18 215.27 173.68 215.59 C 173.30 215.45 172.53 215.16 172.15 215.02 C 170.29 214.24 168.29 213.61 166.76 212.26 C 165.77 210.99 165.78 209.26 165.32 207.77 Z" />
</g>
<g id="#fefefeff">
<path fill="#fefefe" opacity="1.00" d=" M 236.86 213.16 C 237.23 211.64 237.58 210.12 237.88 208.60 C 238.74 209.52 239.61 210.45 240.49 211.37 C 240.96 214.74 241.00 218.27 239.37 221.37 C 237.80 224.50 236.67 228.72 232.89 229.82 C 228.45 231.43 223.73 232.08 219.02 232.28 C 217.40 230.76 215.69 229.32 213.77 228.20 C 214.34 227.90 215.47 227.31 216.04 227.01 C 218.12 228.85 220.85 229.48 223.49 228.50 C 224.97 228.08 226.54 227.74 227.80 226.80 C 228.38 225.39 228.68 223.90 229.05 222.43 C 230.59 222.14 232.14 221.86 233.69 221.55 C 234.85 218.79 236.09 216.05 236.86 213.16 Z" />
</g>
<g id="#c2b8b2ff">
<path fill="#c2b8b2" opacity="1.00" d=" M 108.53 212.74 C 109.70 211.45 111.00 210.31 112.33 209.20 C 111.68 214.02 111.29 218.88 111.83 223.74 C 112.54 223.87 113.95 224.15 114.66 224.28 C 114.50 224.65 114.18 225.37 114.01 225.74 C 113.30 225.80 111.88 225.94 111.17 226.00 C 110.60 226.08 109.45 226.24 108.88 226.31 C 109.83 223.55 108.82 220.78 108.18 218.08 C 108.20 216.29 108.32 214.51 108.53 212.74 Z" />
</g>
<g id="#a5928dff">
<path fill="#a5928d" opacity="1.00" d=" M 123.17 209.96 C 124.26 210.76 125.37 211.53 126.50 212.28 C 126.76 214.94 126.76 217.64 126.14 220.26 C 125.52 220.36 124.27 220.56 123.64 220.65 C 121.55 223.97 117.21 222.49 113.96 222.95 C 113.57 220.92 113.12 218.89 113.17 216.82 C 113.56 218.00 113.99 219.17 114.41 220.34 C 116.84 220.62 119.25 221.01 121.64 221.49 C 122.55 217.71 123.20 213.86 123.17 209.96 Z" />
</g>
<g id="#928681ff">
<path fill="#928681" opacity="1.00" d=" M 178.91 210.79 C 180.57 211.49 182.24 212.18 183.92 212.86 C 183.30 213.71 182.69 214.56 182.07 215.42 C 180.93 213.94 179.87 212.39 178.91 210.79 Z" />
</g>
<g id="#cbbfbbff">
<path fill="#cbbfbb" opacity="1.00" d=" M 198.26 212.66 C 200.35 212.03 202.69 211.24 204.79 212.28 C 204.76 213.85 204.42 215.49 204.92 217.03 C 205.95 219.60 208.70 220.67 210.83 222.15 C 211.08 222.38 211.57 222.84 211.82 223.07 C 213.22 224.38 214.59 225.74 216.04 227.01 C 215.47 227.31 214.34 227.90 213.77 228.20 C 211.40 227.18 208.83 226.38 207.03 224.43 C 205.76 219.36 201.82 215.59 197.03 213.73 C 197.34 213.46 197.96 212.93 198.26 212.66 Z" />
</g>
<g id="#9e7f77ff">
<path fill="#9e7f77" opacity="1.00" d=" M 101.54 212.42 C 103.87 212.60 106.20 212.71 108.53 212.74 C 108.32 214.51 108.20 216.29 108.18 218.08 C 105.08 218.46 101.95 218.75 98.82 218.55 C 98.82 218.01 98.82 216.93 98.82 216.39 C 99.70 215.05 100.63 213.74 101.54 212.42 Z" />
</g>
<g id="#e0d9d5ff">
<path fill="#e0d9d5" opacity="1.00" d=" M 204.92 217.03 C 204.42 215.49 204.76 213.85 204.79 212.28 C 205.76 213.24 206.71 214.24 207.63 215.26 C 208.66 217.57 209.68 219.89 210.83 222.15 C 208.70 220.67 205.95 219.60 204.92 217.03 Z" />
</g>
<g id="#a26e59ff">
<path fill="#a26e59" opacity="1.00" d=" M 172.15 215.02 C 172.53 215.16 173.30 215.45 173.68 215.59 C 178.46 217.44 183.04 220.02 186.42 223.96 C 185.98 223.88 185.09 223.73 184.65 223.66 C 180.34 221.51 174.69 221.08 171.97 216.62 C 172.02 216.22 172.11 215.42 172.15 215.02 Z" />
</g>
<g id="#d5ccc8ff">
<path fill="#d5ccc8" opacity="1.00" d=" M 227.17 216.25 C 228.50 217.37 229.97 218.45 231.74 218.69 C 232.39 219.64 233.06 220.58 233.69 221.55 C 232.14 221.86 230.59 222.14 229.05 222.43 C 228.68 223.90 228.38 225.39 227.80 226.80 C 226.54 227.74 224.97 228.08 223.49 228.50 C 222.72 226.05 221.91 223.60 220.71 221.32 C 222.76 221.13 224.81 220.97 226.86 220.81 C 226.97 219.28 227.08 217.77 227.17 216.25 Z" />
</g>
<g id="#8e7f78ff">
<path fill="#8e7f78" opacity="1.00" d=" M 170.53 217.88 C 171.01 217.46 171.50 217.04 171.97 216.62 C 174.69 221.08 180.34 221.51 184.65 223.66 C 182.54 223.93 180.43 224.25 178.30 224.42 C 175.29 224.47 172.29 224.39 169.28 224.29 C 169.83 223.48 170.37 222.67 170.92 221.87 C 170.78 220.54 170.65 219.21 170.53 217.88 Z" />
</g>
<g id="#908c93ff">
<path fill="#908c93" opacity="1.00" d=" M 198.98 216.67 C 201.68 218.80 204.04 221.31 206.40 223.81 C 203.56 227.88 204.25 232.98 206.64 237.08 C 208.26 240.61 212.59 240.42 215.86 240.84 C 215.76 241.31 215.57 242.23 215.47 242.69 C 210.67 244.83 205.22 243.77 201.06 240.73 C 200.09 239.50 199.17 238.22 198.25 236.95 C 197.88 236.49 197.12 235.57 196.75 235.10 C 196.62 234.76 196.37 234.07 196.25 233.73 C 195.97 227.94 195.75 221.79 198.98 216.67 M 197.77 227.07 C 197.62 228.35 197.01 229.88 198.18 230.90 C 199.86 231.22 201.14 229.81 202.52 229.11 C 200.92 228.45 199.34 227.78 197.77 227.07 M 201.02 234.91 C 201.60 236.47 202.81 237.69 203.75 239.05 C 204.07 238.51 204.73 237.43 205.05 236.89 C 204.55 235.60 204.05 234.31 203.56 233.03 C 202.74 233.62 201.02 233.62 201.02 234.91 Z" />
</g>
<g id="#564137ff">
<path fill="#564137" opacity="1.00" d=" M 95.56 218.26 C 96.65 218.37 97.73 218.48 98.82 218.55 C 101.95 218.75 105.08 218.46 108.18 218.08 C 108.82 220.78 109.83 223.55 108.88 226.31 C 109.45 226.24 110.60 226.08 111.17 226.00 C 106.55 227.12 101.86 228.01 97.09 227.88 C 96.15 224.76 95.27 221.55 95.56 218.26 Z" />
</g>
<g id="#a1938dff">
<path fill="#a1938d" opacity="1.00" d=" M 187.92 218.98 C 188.56 217.30 190.84 217.98 191.57 219.21 C 190.29 219.81 189.08 219.73 187.92 218.98 Z" />
</g>
<g id="#6c686aff">
<path fill="#6c686a" opacity="1.00" d=" M 218.03 222.26 C 218.36 221.08 218.70 219.90 219.04 218.73 C 219.61 219.58 220.17 220.44 220.71 221.32 C 221.91 223.60 222.72 226.05 223.49 228.50 C 220.85 229.48 218.12 228.85 216.04 227.01 C 214.59 225.74 213.22 224.38 211.82 223.07 C 211.94 222.39 212.18 221.03 212.31 220.35 C 214.21 221.00 216.12 221.63 218.03 222.26 Z" />
</g>
<g id="#b1a7a2ff">
<path fill="#b1a7a2" opacity="1.00" d=" M 126.14 220.26 C 130.42 221.29 134.83 221.54 139.20 221.13 C 139.14 222.35 139.07 223.58 139.00 224.80 C 134.79 224.31 130.61 223.61 126.51 222.54 C 126.42 221.97 126.24 220.83 126.14 220.26 Z" />
</g>
<g id="#7f6e6aff">
<path fill="#7f6e6a" opacity="1.00" d=" M 155.82 223.85 C 156.61 223.84 157.40 223.84 158.20 223.84 C 159.43 224.98 160.60 226.20 161.94 227.22 C 162.33 227.28 163.11 227.40 163.50 227.46 C 162.22 227.93 160.95 228.44 159.66 228.89 C 157.58 229.18 155.57 229.82 153.59 230.49 C 152.05 229.32 150.47 228.21 148.80 227.22 C 151.04 226.94 153.28 226.66 155.52 226.39 C 155.60 225.75 155.75 224.48 155.82 223.85 Z" />
</g>
<g id="#484342ff">
<path fill="#484342" opacity="1.00" d=" M 165.32 223.90 C 165.72 223.96 166.52 224.07 166.92 224.13 C 167.71 224.20 168.49 224.25 169.28 224.29 C 172.29 224.39 175.29 224.47 178.30 224.42 C 176.89 228.51 172.46 228.57 168.83 228.50 C 170.21 228.14 171.58 227.75 172.95 227.39 C 169.80 227.47 166.65 227.37 163.50 227.46 C 163.11 227.40 162.33 227.28 161.94 227.22 C 163.08 226.13 164.23 225.04 165.32 223.90 Z" />
</g>
<g id="#aca7aeff">
<path fill="#aca7ae" opacity="1.00" d=" M 197.77 227.07 C 199.34 227.78 200.92 228.45 202.52 229.11 C 201.14 229.81 199.86 231.22 198.18 230.90 C 197.01 229.88 197.62 228.35 197.77 227.07 Z" />
</g>
<g id="#00000012">
<path fill="#000000" opacity="0.07" d=" M 207.23 227.84 C 211.49 228.37 215.14 230.65 219.02 232.28 C 220.62 232.96 222.23 233.60 223.90 234.08 C 225.78 234.61 227.69 235.05 229.60 235.49 C 225.68 242.65 223.09 250.39 220.61 258.14 C 219.85 260.63 220.93 263.21 220.52 265.73 C 220.08 267.78 219.09 269.70 218.85 271.81 C 218.70 275.39 219.81 278.91 219.50 282.50 C 219.25 284.92 218.35 287.21 217.56 289.50 C 218.49 289.60 219.42 289.71 220.35 289.82 C 218.20 294.24 217.14 299.06 215.22 303.57 C 215.82 304.20 216.42 304.84 217.03 305.48 C 216.60 306.44 216.17 307.41 215.74 308.37 C 216.51 309.07 217.28 309.77 218.06 310.48 C 216.80 311.29 215.53 312.11 214.27 312.93 C 215.14 313.67 216.01 314.41 216.88 315.16 C 216.13 316.40 215.38 317.66 214.63 318.90 C 214.88 319.58 215.12 320.25 215.37 320.93 C 214.56 321.95 213.79 323.00 212.99 324.02 C 214.33 326.13 216.64 328.16 216.73 330.73 C 214.97 333.83 212.19 336.45 211.82 340.19 C 212.81 340.40 213.81 340.61 214.81 340.82 C 214.19 345.27 213.74 350.11 210.34 353.44 C 210.38 353.93 210.46 354.92 210.51 355.41 C 211.91 355.16 213.30 354.90 214.70 354.64 C 213.69 357.87 212.41 361.00 211.25 364.18 C 209.86 368.96 213.67 373.01 215.71 376.98 C 213.87 377.19 212.03 377.39 210.20 377.61 C 210.00 379.76 209.68 381.89 209.25 384.00 L 191.34 384.00 C 191.23 380.52 191.37 377.01 190.71 373.57 C 192.17 373.86 193.64 374.14 195.11 374.42 C 194.12 373.55 193.12 372.70 192.18 371.79 C 188.32 368.74 188.68 363.00 190.28 358.84 C 191.62 356.07 190.42 352.96 191.07 350.07 C 191.38 348.02 192.10 346.02 192.02 343.94 C 191.65 340.96 190.11 338.28 189.76 335.30 C 190.74 332.92 193.36 331.07 193.05 328.29 C 192.55 321.95 190.29 315.28 193.18 309.18 C 195.50 304.53 194.20 299.23 195.63 294.38 C 194.44 294.91 193.25 295.43 192.07 295.96 C 193.66 292.37 195.49 288.78 195.92 284.82 C 196.43 280.47 196.16 276.02 197.27 271.75 C 198.23 269.27 200.04 267.18 202.15 265.59 C 200.23 263.73 198.34 261.87 196.43 260.02 C 198.12 257.45 200.91 254.91 200.25 251.55 C 199.71 247.92 200.02 244.25 201.06 240.73 C 205.22 243.77 210.67 244.83 215.47 242.69 C 215.57 242.23 215.76 241.31 215.86 240.84 C 212.59 240.42 208.26 240.61 206.64 237.08 C 206.42 233.98 206.76 230.89 207.23 227.84 Z" />
</g>
<g id="#2726278f">
<path fill="#272627" opacity="0.56" d=" M 196.75 235.10 C 197.12 235.57 197.88 236.49 198.25 236.95 C 197.88 236.49 197.12 235.57 196.75 235.10 Z" />
</g>
</svg>
