<?xml version="1.0" encoding="UTF-8" ?>
<!DOCTYPE svg PUBLIC "-//W3C//DTD SVG 1.1//EN" "http://www.w3.org/Graphics/SVG/1.1/DTD/svg11.dtd">
<svg width="384pt" height="384pt" viewBox="0 0 384 384" version="1.1" xmlns="http://www.w3.org/2000/svg">
<g id="#1a1b21fd">
<path fill="#1a1b21" opacity="1.00" d=" M 197.99 123.87 C 201.85 121.64 206.64 122.84 210.57 124.23 C 216.66 129.24 220.42 136.45 226.22 141.75 C 228.05 143.49 230.71 143.36 233.04 143.64 C 230.62 144.04 228.15 144.13 225.70 144.25 C 227.15 145.91 228.60 147.56 230.05 149.22 C 228.58 149.93 227.11 150.63 225.64 151.33 C 225.57 148.79 225.28 146.16 224.05 143.89 C 222.70 142.00 220.76 140.67 219.01 139.18 C 217.04 136.09 214.25 133.72 211.21 131.74 C 210.35 127.93 206.35 127.10 203.15 126.12 C 202.77 127.19 202.42 128.26 202.08 129.34 C 200.56 127.64 199.19 125.80 197.99 123.87 Z" />
</g>
<g id="#3a373bfe">
<path fill="#3a373b" opacity="1.00" d=" M 203.15 126.12 C 206.35 127.10 210.35 127.93 211.21 131.74 C 210.05 132.09 208.90 132.43 207.74 132.76 L 207.03 132.92 C 206.13 132.16 205.23 131.41 204.34 130.66 C 204.01 130.97 203.35 131.61 203.03 131.92 L 202.06 132.00 C 202.06 131.33 202.07 130.00 202.08 129.34 C 202.42 128.26 202.77 127.19 203.15 126.12 Z" />
</g>
<g id="#9f9593fd">
<path fill="#9f9593" opacity="1.00" d=" M 203.03 131.92 C 203.35 131.61 204.01 130.97 204.34 130.66 C 205.23 131.41 206.13 132.16 207.03 132.92 C 207.29 135.32 207.50 137.73 207.69 140.15 C 207.06 140.11 205.80 140.04 205.17 140.00 C 204.73 137.57 204.09 135.19 203.30 132.85 L 203.03 131.92 Z" />
</g>
<g id="#33201762">
<path fill="#332017" opacity="0.38" d=" M 190.82 133.76 C 194.13 131.52 198.30 132.32 202.06 132.00 L 203.03 131.92 L 203.30 132.85 C 199.14 133.11 194.94 133.02 190.82 133.76 Z" />
</g>
<g id="#13131376">
<path fill="#131313" opacity="0.46" d=" M 207.74 132.76 C 208.90 132.43 210.05 132.09 211.21 131.74 C 214.25 133.72 217.04 136.09 219.01 139.18 C 217.57 138.48 216.12 137.83 214.71 137.10 C 212.77 135.10 210.28 133.82 207.74 132.76 Z" />
</g>
<g id="#e6a27eff">
<path fill="#e6a27e" opacity="1.00" d=" M 190.82 133.76 C 194.94 133.02 199.14 133.11 203.30 132.85 C 204.09 135.19 204.73 137.57 205.17 140.00 L 204.17 139.91 C 203.29 139.59 202.41 139.29 201.52 139.00 C 200.40 137.53 199.36 135.60 197.29 135.41 C 193.73 134.31 190.68 136.85 187.79 138.50 C 187.80 138.14 187.83 137.40 187.84 137.04 C 188.59 135.75 189.62 134.64 190.82 133.76 Z" />
</g>
<g id="#7b7676ff">
<path fill="#7b7676" opacity="1.00" d=" M 207.03 132.92 L 207.74 132.76 C 210.28 133.82 212.77 135.10 214.71 137.10 C 215.66 139.72 217.28 141.98 218.74 144.34 C 219.11 146.98 216.94 148.97 215.28 150.71 C 214.04 147.48 211.20 145.50 208.41 143.72 C 206.95 142.50 205.58 141.18 204.17 139.91 L 205.17 140.00 C 205.80 140.04 207.06 140.11 207.69 140.15 C 207.50 137.73 207.29 135.32 207.03 132.92 M 213.29 139.52 C 212.39 140.69 212.63 141.37 214.03 141.55 C 214.93 140.37 214.69 139.70 213.29 139.52 Z" />
</g>
<g id="#91705fff">
<path fill="#91705f" opacity="1.00" d=" M 187.79 138.50 C 190.68 136.85 193.73 134.31 197.29 135.41 C 199.36 135.60 200.40 137.53 201.52 139.00 C 194.39 138.82 186.63 141.97 184.03 149.11 C 184.45 149.02 185.29 148.86 185.71 148.77 C 184.82 149.79 183.97 150.85 183.12 151.90 C 183.18 152.45 183.29 153.54 183.35 154.09 C 183.36 156.87 182.41 159.53 181.18 161.98 L 180.16 162.27 C 180.72 159.16 181.66 156.12 181.97 152.96 C 182.47 147.25 185.12 141.99 187.84 137.04 C 187.83 137.40 187.80 138.14 187.79 138.50 Z" />
</g>
<g id="#625d5cff">
<path fill="#625d5c" opacity="1.00" d=" M 214.71 137.10 C 216.12 137.83 217.57 138.48 219.01 139.18 C 220.76 140.67 222.70 142.00 224.05 143.89 C 225.28 146.16 225.57 148.79 225.64 151.33 C 225.29 154.35 227.36 156.69 228.93 159.01 C 228.44 159.06 227.44 159.17 226.94 159.22 C 224.29 157.90 221.63 156.60 218.98 155.28 C 218.86 155.99 218.63 157.40 218.51 158.11 L 218.10 157.33 C 216.20 155.13 213.32 154.60 210.58 155.17 C 212.17 153.71 213.72 152.20 215.28 150.71 C 216.94 148.97 219.11 146.98 218.74 144.34 C 217.28 141.98 215.66 139.72 214.71 137.10 Z" />
</g>
<g id="#3b3d3bff">
<path fill="#3b3d3b" opacity="1.00" d=" M 184.03 149.11 C 186.63 141.97 194.39 138.82 201.52 139.00 C 202.41 139.29 203.29 139.59 204.17 139.91 C 205.58 141.18 206.95 142.50 208.41 143.72 C 200.55 141.67 192.28 144.43 185.71 148.77 C 185.29 148.86 184.45 149.02 184.03 149.11 Z" />
</g>
<g id="#dcd7d3ff">
<path fill="#dcd7d3" opacity="1.00" d=" M 213.29 139.52 C 214.69 139.70 214.93 140.37 214.03 141.55 C 212.63 141.37 212.39 140.69 213.29 139.52 Z" />
</g>
<g id="#2e3237ff">
<path fill="#2e3237" opacity="1.00" d=" M 235.44 141.21 C 235.62 141.41 235.97 141.81 236.15 142.01 C 235.42 144.46 234.66 146.91 234.04 149.40 C 231.88 150.48 229.84 151.78 228.02 153.37 C 229.67 153.99 231.33 154.59 232.99 155.19 C 232.24 156.99 231.50 158.80 230.76 160.60 C 229.80 160.55 228.84 160.48 227.89 160.39 C 227.65 160.10 227.18 159.51 226.94 159.22 C 227.44 159.17 228.44 159.06 228.93 159.01 C 227.36 156.69 225.29 154.35 225.64 151.33 C 227.11 150.63 228.58 149.93 230.05 149.22 C 228.60 147.56 227.15 145.91 225.70 144.25 C 228.15 144.13 230.62 144.04 233.04 143.64 C 233.85 142.83 234.65 142.02 235.44 141.21 Z" />
</g>
<g id="#b7a8a1ff">
<path fill="#b7a8a1" opacity="1.00" d=" M 185.71 148.77 C 192.28 144.43 200.55 141.67 208.41 143.72 C 211.20 145.50 214.04 147.48 215.28 150.71 C 213.72 152.20 212.17 153.71 210.58 155.17 C 209.62 155.49 208.66 155.81 207.67 156.04 C 209.74 153.96 211.73 151.81 213.76 149.69 C 209.24 145.00 201.70 145.10 195.78 146.48 C 190.99 147.67 186.16 149.82 183.35 154.09 C 183.29 153.54 183.18 152.45 183.12 151.90 C 183.97 150.85 184.82 149.79 185.71 148.77 Z" />
</g>
<g id="#1a1b1fff">
<path fill="#1a1b1f" opacity="1.00" d=" M 236.15 142.01 C 237.69 143.49 239.18 145.13 241.12 146.10 C 243.17 146.44 245.39 145.92 247.34 146.71 C 249.30 148.35 250.68 150.53 252.18 152.56 C 262.56 151.10 272.73 148.39 282.94 146.04 C 289.17 153.04 291.30 162.82 290.70 171.99 C 290.39 180.44 286.87 188.38 282.36 195.39 C 280.66 197.64 280.97 200.55 280.50 203.18 C 279.05 201.20 277.59 199.23 276.13 197.26 C 277.21 197.17 278.29 197.07 279.38 196.97 C 277.01 195.82 274.13 195.75 272.13 193.92 C 268.66 190.69 264.45 187.33 264.46 182.12 C 266.87 183.65 269.08 185.50 270.84 187.75 C 272.63 189.89 274.43 192.02 276.29 194.10 C 281.69 191.30 284.16 185.40 286.00 179.93 C 289.34 169.18 288.58 156.74 282.03 147.30 C 275.97 147.96 270.13 149.75 264.17 150.95 C 260.47 151.70 256.75 152.46 253.18 153.72 C 258.13 159.84 264.13 165.22 268.03 172.11 C 268.26 173.34 268.45 174.57 268.65 175.80 C 267.34 175.44 266.02 175.09 264.71 174.75 C 264.52 172.74 264.61 170.71 264.65 168.69 C 263.63 169.82 262.61 170.95 261.59 172.09 C 260.00 170.59 258.17 169.24 257.03 167.33 C 256.75 165.97 256.91 164.56 256.93 163.18 C 255.22 164.74 253.47 166.24 251.71 167.73 C 248.73 164.37 246.70 160.34 244.89 156.27 C 242.30 157.25 239.67 158.15 237.01 158.95 C 237.96 160.94 239.10 162.85 240.52 164.55 C 239.01 165.21 237.51 165.92 236.06 166.71 C 232.51 165.89 229.71 163.48 227.89 160.39 C 228.84 160.48 229.80 160.55 230.76 160.60 C 231.50 158.80 232.24 156.99 232.99 155.19 C 231.33 154.59 229.67 153.99 228.02 153.37 C 229.84 151.78 231.88 150.48 234.04 149.40 C 234.66 146.91 235.42 144.46 236.15 142.01 Z" />
</g>
<g id="#4d555aff">
<path fill="#4d555a" opacity="1.00" d=" M 195.78 146.48 C 201.70 145.10 209.24 145.00 213.76 149.69 C 211.73 151.81 209.74 153.96 207.67 156.04 L 206.97 156.07 C 205.42 156.09 203.86 156.08 202.31 156.06 C 201.36 154.60 200.13 153.36 198.70 152.37 L 198.51 152.18 C 198.16 151.65 197.46 150.60 197.11 150.07 C 197.55 148.98 197.98 147.90 198.42 146.82 C 197.76 146.73 196.44 146.56 195.78 146.48 M 201.24 150.26 C 201.79 150.81 201.79 150.81 201.24 150.26 Z" />
</g>
<g id="#3f4344ff">
<path fill="#3f4344" opacity="1.00" d=" M 183.35 154.09 C 186.16 149.82 190.99 147.67 195.78 146.48 C 196.44 146.56 197.76 146.73 198.42 146.82 C 197.98 147.90 197.55 148.98 197.11 150.07 C 197.46 150.60 198.16 151.65 198.51 152.18 C 198.56 152.23 198.65 152.32 198.70 152.37 C 200.13 153.36 201.36 154.60 202.31 156.06 C 203.86 156.08 205.42 156.09 206.97 156.07 C 207.29 157.01 207.61 157.94 207.94 158.88 C 206.78 160.09 205.68 161.36 204.74 162.75 C 202.33 165.76 202.35 169.82 200.64 173.16 C 194.29 171.98 187.69 176.46 181.66 173.48 C 179.41 170.04 180.58 165.73 181.18 161.98 C 182.41 159.53 183.36 156.87 183.35 154.09 M 198.23 159.23 C 198.84 159.84 198.84 159.84 198.23 159.23 Z" />
</g>
<g id="#ced5daff">
<path fill="#ced5da" opacity="1.00" d=" M 201.24 150.26 C 201.79 150.81 201.79 150.81 201.24 150.26 Z" />
</g>
<g id="#fdfffdff">
<path fill="#fdfffd" opacity="1.00" d=" M 198.51 152.18 L 198.70 152.37 C 198.65 152.32 198.56 152.23 198.51 152.18 Z" />
</g>
<g id="#716d6eff">
<path fill="#716d6e" opacity="1.00" d=" M 207.67 156.04 C 208.66 155.81 209.62 155.49 210.58 155.17 C 213.32 154.60 216.20 155.13 218.10 157.33 L 217.44 157.99 C 214.04 160.92 210.34 166.03 213.00 170.51 C 213.21 170.92 213.62 171.76 213.83 172.18 C 213.26 172.95 212.73 173.76 212.20 174.56 C 212.69 174.92 213.66 175.64 214.15 176.00 C 214.25 176.56 214.47 177.69 214.58 178.26 C 213.23 178.78 211.90 179.70 210.39 179.33 C 206.65 178.73 202.91 178.13 199.11 178.13 C 196.65 182.75 197.05 188.14 195.45 193.01 C 194.57 194.03 195.33 196.14 196.82 195.17 C 197.09 199.12 197.55 204.06 200.83 206.61 C 205.05 206.28 209.28 202.87 209.37 198.37 C 209.93 198.44 211.05 198.58 211.60 198.65 C 212.12 198.84 213.14 199.20 213.66 199.39 C 215.76 200.19 217.89 200.91 220.03 201.60 C 221.15 199.61 222.21 197.55 222.66 195.30 C 222.97 193.79 223.16 192.27 223.20 190.73 C 223.56 190.65 224.29 190.50 224.66 190.42 C 224.58 193.15 224.25 196.04 225.68 198.52 C 228.10 195.33 229.24 190.67 227.02 187.10 C 223.44 183.52 220.02 179.79 216.82 175.87 C 219.13 175.62 221.42 175.15 223.70 174.66 C 223.64 173.06 223.56 171.45 223.55 169.84 C 223.74 169.30 224.12 168.21 224.31 167.67 C 225.65 169.71 226.74 171.88 227.77 174.09 C 228.83 177.73 232.00 179.83 234.95 181.85 C 235.04 181.19 235.22 179.87 235.30 179.21 C 235.49 178.06 235.70 176.92 235.93 175.78 C 236.10 176.93 236.27 178.09 236.45 179.25 C 236.44 179.68 236.42 180.53 236.41 180.96 C 235.87 184.89 239.06 187.77 240.74 190.97 C 239.42 192.86 237.64 194.35 236.15 196.10 C 234.26 199.08 232.96 202.49 232.68 206.03 C 231.08 206.37 229.65 207.44 229.17 209.04 C 227.95 211.65 226.78 214.28 225.72 216.96 C 224.14 216.78 222.57 216.59 221.01 216.39 C 225.00 217.84 228.81 219.98 231.58 223.27 C 232.61 225.91 233.71 228.54 235.09 231.04 C 235.75 230.96 237.08 230.80 237.74 230.72 C 236.49 231.73 234.48 232.39 234.25 234.21 C 233.81 237.07 233.21 239.96 231.30 242.23 C 232.04 237.53 232.49 232.75 231.15 228.10 C 230.63 227.76 230.10 227.42 229.56 227.10 L 229.51 225.99 C 230.04 222.81 226.58 221.68 224.40 220.31 C 221.95 219.32 219.41 218.58 216.88 217.82 C 217.06 217.30 217.43 216.24 217.61 215.72 C 219.56 215.37 221.50 215.02 223.44 214.63 C 220.42 212.39 216.58 212.97 213.07 213.00 C 212.53 215.29 212.06 217.66 212.60 220.00 C 213.17 221.70 213.90 223.35 214.73 224.95 C 215.01 225.06 215.59 225.29 215.88 225.41 C 221.54 227.04 227.13 231.58 227.41 237.85 C 223.54 239.18 220.65 242.21 217.11 244.13 C 217.74 242.63 219.16 241.08 218.79 239.39 C 215.50 236.88 212.51 234.03 209.69 231.01 C 209.25 230.51 208.37 229.49 207.92 228.98 C 207.93 228.55 207.94 227.69 207.94 227.26 C 210.93 228.98 213.98 230.62 217.23 231.81 C 216.12 229.61 214.81 227.53 213.50 225.46 C 211.24 222.08 210.80 217.82 208.32 214.56 C 207.96 214.02 207.24 212.95 206.88 212.42 C 206.30 212.78 205.15 213.51 204.58 213.87 C 203.68 214.84 202.84 215.85 201.99 216.86 C 201.05 214.65 199.99 212.48 198.54 210.55 C 196.40 207.61 193.36 205.56 190.25 203.77 C 189.42 200.49 189.03 197.06 189.81 193.73 C 190.03 194.57 190.48 196.25 190.70 197.09 C 191.57 194.81 191.14 192.39 190.32 190.17 C 190.01 189.15 189.66 188.16 189.35 187.15 C 192.01 183.51 193.97 179.37 197.20 176.17 C 197.76 175.99 198.88 175.62 199.44 175.44 C 199.74 174.87 200.34 173.73 200.64 173.16 C 202.35 169.82 202.33 165.76 204.74 162.75 C 204.08 165.33 203.08 167.97 203.33 170.67 C 204.83 172.76 206.16 175.03 207.96 176.87 C 209.51 177.49 211.18 177.64 212.81 177.92 C 211.64 176.48 210.45 175.06 209.25 173.65 C 210.47 168.13 212.13 162.69 212.92 157.08 C 211.24 157.64 209.57 158.20 207.94 158.88 C 207.61 157.94 207.29 157.01 206.97 156.07 L 207.67 156.04 M 229.10 179.95 C 228.71 184.84 232.50 188.46 233.71 192.95 C 236.05 188.17 232.90 182.88 229.10 179.95 M 216.28 207.36 C 216.84 207.93 216.84 207.93 216.28 207.36 M 207.04 210.24 C 205.47 213.23 210.35 210.46 207.04 210.24 M 221.18 232.25 C 220.19 233.57 222.49 235.06 223.46 233.88 C 224.43 232.56 222.15 231.06 221.18 232.25 Z" />
<path fill="#716d6e" opacity="1.00" d=" M 198.78 247.75 C 202.54 247.01 205.87 244.94 209.48 243.71 C 207.84 247.24 203.90 248.57 200.36 249.35 C 196.07 250.27 191.90 247.87 188.86 245.05 C 189.37 245.02 190.38 244.98 190.89 244.95 C 193.35 246.22 195.82 248.29 198.78 247.75 Z" />
</g>
<g id="#000000c2">
<path fill="#000000" opacity="0.76" d=" M 218.98 155.28 C 221.63 156.60 224.29 157.90 226.94 159.22 C 227.18 159.51 227.65 160.10 227.89 160.39 C 229.71 163.48 232.51 165.89 236.06 166.71 C 236.58 169.71 236.47 172.78 235.93 175.78 C 235.70 176.92 235.49 178.06 235.30 179.21 C 232.86 177.41 230.41 175.60 227.77 174.09 C 226.74 171.88 225.65 169.71 224.31 167.67 C 222.14 164.63 219.05 162.03 218.51 158.11 C 218.63 157.40 218.86 155.99 218.98 155.28 Z" />
</g>
<g id="#010101b2">
<path fill="#010101" opacity="0.70" d=" M 264.36 154.65 C 269.94 158.54 272.29 165.51 272.70 172.04 C 273.13 177.36 271.45 182.51 270.84 187.75 C 269.08 185.50 266.87 183.65 264.46 182.12 C 264.26 180.97 264.06 179.81 263.87 178.66 C 265.31 179.29 266.75 179.94 268.19 180.58 C 266.99 178.66 265.79 176.74 264.71 174.75 C 266.02 175.09 267.34 175.44 268.65 175.80 C 268.45 174.57 268.26 173.34 268.03 172.11 C 268.65 172.33 269.88 172.75 270.49 172.96 C 270.76 166.26 267.97 160.11 264.36 154.65 Z" />
</g>
<g id="#2b2f37ff">
<path fill="#2b2f37" opacity="1.00" d=" M 237.01 158.95 C 239.67 158.15 242.30 157.25 244.89 156.27 C 246.70 160.34 248.73 164.37 251.71 167.73 C 253.47 166.24 255.22 164.74 256.93 163.18 C 256.91 164.56 256.75 165.97 257.03 167.33 C 258.17 169.24 260.00 170.59 261.59 172.09 C 262.61 170.95 263.63 169.82 264.65 168.69 C 264.61 170.71 264.52 172.74 264.71 174.75 C 265.79 176.74 266.99 178.66 268.19 180.58 C 266.75 179.94 265.31 179.29 263.87 178.66 C 264.06 179.81 264.26 180.97 264.46 182.12 C 264.45 187.33 268.66 190.69 272.13 193.92 C 274.13 195.75 277.01 195.82 279.38 196.97 C 278.29 197.07 277.21 197.17 276.13 197.26 C 277.59 199.23 279.05 201.20 280.50 203.18 C 279.14 203.67 277.75 204.08 276.35 204.47 C 275.73 202.86 275.11 201.27 274.48 199.68 C 273.95 199.47 272.90 199.05 272.38 198.84 C 270.11 197.89 267.88 196.87 265.71 195.74 C 264.56 194.62 263.49 193.43 262.43 192.22 C 259.26 188.25 254.78 185.66 251.42 181.87 C 247.73 176.89 243.49 171.86 237.57 169.53 C 237.64 168.45 237.73 167.37 237.82 166.30 C 237.38 166.40 236.50 166.60 236.06 166.71 C 237.51 165.92 239.01 165.21 240.52 164.55 C 239.10 162.85 237.96 160.94 237.01 158.95 M 259.33 175.00 C 259.07 175.32 258.55 175.96 258.29 176.28 C 259.19 179.65 263.14 174.17 259.33 175.00 Z" />
</g>
<g id="#a29d9fff">
<path fill="#a29d9f" opacity="1.00" d=" M 207.94 158.88 C 209.57 158.20 211.24 157.64 212.92 157.08 C 212.13 162.69 210.47 168.13 209.25 173.65 C 210.45 175.06 211.64 176.48 212.81 177.92 C 211.18 177.64 209.51 177.49 207.96 176.87 C 206.16 175.03 204.83 172.76 203.33 170.67 C 203.08 167.97 204.08 165.33 204.74 162.75 C 205.68 161.36 206.78 160.09 207.94 158.88 M 205.33 170.35 C 204.60 172.06 206.79 171.89 207.79 172.15 C 208.45 168.79 209.21 165.44 209.82 162.07 C 206.82 163.79 205.85 167.15 205.33 170.35 Z" />
</g>
<g id="#3a3b3bff">
<path fill="#3a3b3b" opacity="1.00" d=" M 213.00 170.51 C 210.34 166.03 214.04 160.92 217.44 157.99 C 217.19 162.52 216.14 167.07 213.00 170.51 Z" />
</g>
<g id="#d59879ff">
<path fill="#d59879" opacity="1.00" d=" M 217.44 157.99 L 218.10 157.33 L 218.51 158.11 C 219.05 162.03 222.14 164.63 224.31 167.67 C 224.12 168.21 223.74 169.30 223.55 169.84 C 223.12 170.33 222.26 171.30 221.83 171.79 C 220.27 171.01 218.71 170.23 217.16 169.45 C 216.03 170.34 214.90 171.22 213.83 172.18 C 213.62 171.76 213.21 170.92 213.00 170.51 C 216.14 167.07 217.19 162.52 217.44 157.99 Z" />
</g>
<g id="#ffffffff">
<path fill="#ffffff" opacity="1.00" d=" M 198.23 159.23 C 198.84 159.84 198.84 159.84 198.23 159.23 Z" />
</g>
<g id="#a8968eff">
<path fill="#a8968e" opacity="1.00" d=" M 177.64 163.00 C 178.27 162.81 179.53 162.45 180.16 162.27 L 181.18 161.98 C 180.58 165.73 179.41 170.04 181.66 173.48 C 187.69 176.46 194.29 171.98 200.64 173.16 C 200.34 173.73 199.74 174.87 199.44 175.44 C 198.88 175.62 197.76 175.99 197.20 176.17 C 194.50 176.67 191.79 177.14 189.08 177.63 C 185.19 178.34 180.19 178.41 178.56 173.98 C 177.99 170.35 177.13 166.69 177.64 163.00 Z" />
</g>
<g id="#fbf6f5ff">
<path fill="#fbf6f5" opacity="1.00" d=" M 205.33 170.35 C 205.85 167.15 206.82 163.79 209.82 162.07 C 209.21 165.44 208.45 168.79 207.79 172.15 C 206.79 171.89 204.60 172.06 205.33 170.35 Z" />
<path fill="#fbf6f5" opacity="1.00" d=" M 189.81 193.73 C 189.97 192.54 190.17 191.36 190.32 190.17 C 191.14 192.39 191.57 194.81 190.70 197.09 C 190.48 196.25 190.03 194.57 189.81 193.73 Z" />
<path fill="#fbf6f5" opacity="1.00" d=" M 176.14 209.24 C 177.39 209.36 178.64 209.47 179.90 209.59 C 180.42 209.71 181.47 209.94 181.99 210.06 C 181.65 210.35 180.97 210.92 180.63 211.21 C 182.41 215.59 181.61 220.24 179.98 224.52 C 179.22 220.16 179.85 215.56 178.28 211.35 C 177.57 210.64 176.86 209.93 176.14 209.24 Z" />
<path fill="#fbf6f5" opacity="1.00" d=" M 183.04 218.94 C 182.68 216.45 184.57 214.57 185.87 212.69 C 187.43 213.72 189.12 214.52 190.89 215.11 C 194.68 214.93 198.61 214.80 201.99 216.86 C 202.58 221.45 205.03 225.48 207.92 228.98 C 208.37 229.49 209.25 230.51 209.69 231.01 C 208.07 234.28 204.71 235.83 201.63 237.39 C 201.27 237.03 200.56 236.33 200.20 235.97 C 200.34 234.67 200.48 233.37 200.62 232.08 C 199.35 233.32 198.09 234.56 196.82 235.81 C 195.27 234.26 193.72 232.70 192.20 231.13 C 192.72 232.91 193.24 234.70 193.73 236.50 C 189.70 234.61 185.85 232.00 183.20 228.39 C 183.08 225.24 183.19 222.08 183.04 218.94 Z" />
</g>
<g id="#695f60ff">
<path fill="#695f60" opacity="1.00" d=" M 166.05 170.09 C 169.76 167.49 173.17 164.27 177.64 163.00 C 177.13 166.69 177.99 170.35 178.56 173.98 C 178.54 177.32 178.31 180.67 178.53 184.01 C 179.75 190.54 173.88 197.09 177.64 203.27 C 178.08 202.11 178.52 200.95 178.95 199.78 C 181.27 201.66 183.55 203.60 186.01 205.30 C 184.28 207.13 182.37 208.88 179.90 209.59 C 178.64 209.47 177.39 209.36 176.14 209.24 C 176.86 209.93 177.57 210.64 178.28 211.35 C 177.26 211.92 176.25 212.48 175.21 213.00 C 174.52 206.33 173.84 199.63 173.91 192.92 C 174.56 192.62 175.86 192.03 176.51 191.73 C 175.85 190.28 175.09 188.87 174.22 187.54 C 174.28 185.82 174.31 184.11 174.40 182.40 C 175.18 181.58 176.01 180.79 176.66 179.86 C 176.28 178.70 175.76 177.60 175.27 176.49 C 176.11 173.81 176.94 171.13 177.52 168.38 C 176.80 168.33 175.37 168.21 174.66 168.16 C 171.29 169.36 168.24 171.27 164.98 172.72 C 163.29 173.52 161.62 174.39 159.99 175.32 C 159.53 175.26 158.61 175.15 158.15 175.09 C 157.90 174.82 157.39 174.28 157.13 174.01 C 157.06 173.63 156.91 172.88 156.84 172.50 C 159.95 171.94 163.37 172.02 166.05 170.09 Z" />
</g>
<g id="#fefefeff">
<path fill="#fefefe" opacity="1.00" d=" M 236.06 166.71 C 236.50 166.60 237.38 166.40 237.82 166.30 C 237.73 167.37 237.64 168.45 237.57 169.53 C 237.33 172.78 236.80 176.00 236.45 179.25 C 236.27 178.09 236.10 176.93 235.93 175.78 C 236.47 172.78 236.58 169.71 236.06 166.71 Z" />
<path fill="#fefefe" opacity="1.00" d=" M 183.23 232.08 C 186.13 235.05 188.74 238.49 192.36 240.63 C 194.92 241.39 196.02 238.60 197.25 236.96 C 198.52 238.38 199.71 239.86 200.83 241.40 C 201.86 240.98 202.88 240.55 203.90 240.10 C 207.06 238.69 209.84 236.61 212.59 234.55 C 214.01 238.05 211.64 241.19 209.48 243.71 C 205.87 244.94 202.54 247.01 198.78 247.75 C 195.82 248.29 193.35 246.22 190.89 244.95 C 187.84 243.11 184.92 240.96 182.80 238.06 C 182.71 237.65 182.52 236.84 182.42 236.44 C 182.68 234.98 182.95 233.53 183.23 232.08 Z" />
</g>
<g id="#9c948eff">
<path fill="#9c948e" opacity="1.00" d=" M 164.98 172.72 C 168.24 171.27 171.29 169.36 174.66 168.16 C 173.60 171.49 173.20 174.97 172.39 178.36 C 170.55 178.13 168.70 177.91 166.86 177.72 C 166.83 178.28 166.77 179.39 166.74 179.95 C 166.11 177.55 165.59 175.12 164.98 172.72 Z" />
</g>
<g id="#4a2a1bff">
<path fill="#4a2a1b" opacity="1.00" d=" M 174.66 168.16 C 175.37 168.21 176.80 168.33 177.52 168.38 C 176.94 171.13 176.11 173.81 175.27 176.49 C 174.70 178.41 174.50 180.40 174.40 182.40 C 174.31 184.11 174.28 185.82 174.22 187.54 C 174.12 189.33 173.99 191.12 173.91 192.92 C 173.84 199.63 174.52 206.33 175.21 213.00 C 174.88 212.70 174.23 212.11 173.90 211.81 C 173.25 209.58 172.71 207.32 172.04 205.10 C 170.18 205.63 168.40 206.42 166.79 207.50 C 166.88 206.84 167.05 205.51 167.14 204.85 C 167.42 202.61 167.35 200.34 167.33 198.09 C 167.31 196.96 167.30 195.83 167.32 194.70 C 167.35 192.85 167.44 190.99 167.56 189.14 C 167.74 185.86 167.88 182.57 168.04 179.29 C 169.49 178.98 170.94 178.67 172.39 178.36 C 173.20 174.97 173.60 171.49 174.66 168.16 Z" />
</g>
<g id="#4d403bff">
<path fill="#4d403b" opacity="1.00" d=" M 217.16 169.45 C 218.71 170.23 220.27 171.01 221.83 171.79 C 222.26 171.30 223.12 170.33 223.55 169.84 C 223.56 171.45 223.64 173.06 223.70 174.66 C 221.42 175.15 219.13 175.62 216.82 175.87 C 216.15 175.91 214.81 175.97 214.15 176.00 C 213.66 175.64 212.69 174.92 212.20 174.56 C 212.73 173.76 213.26 172.95 213.83 172.18 C 214.90 171.22 216.03 170.34 217.16 169.45 Z" />
<path fill="#4d403b" opacity="1.00" d=" M 140.03 181.34 C 141.06 175.54 147.99 174.93 152.59 173.45 C 152.18 174.56 151.77 175.67 151.41 176.80 C 150.72 176.98 149.32 177.34 148.62 177.52 C 145.50 178.14 142.58 179.44 140.03 181.34 Z" />
</g>
<g id="#000000c1">
<path fill="#000000" opacity="0.76" d=" M 237.57 169.53 C 243.49 171.86 247.73 176.89 251.42 181.87 C 252.96 186.43 256.74 189.66 259.83 193.19 C 260.64 194.32 262.02 193.09 262.43 192.22 C 263.49 193.43 264.56 194.62 265.71 195.74 C 264.08 196.73 264.57 198.86 264.25 200.45 C 257.79 203.21 253.87 209.78 247.04 211.80 C 246.55 211.56 245.56 211.08 245.07 210.85 C 249.35 208.79 253.48 205.94 255.74 201.63 C 256.27 200.42 257.59 198.97 256.47 197.71 C 253.96 195.82 251.10 194.39 248.90 192.11 C 244.96 188.12 239.68 185.64 236.41 180.96 C 236.42 180.53 236.44 179.68 236.45 179.25 C 236.80 176.00 237.33 172.78 237.57 169.53 Z" />
</g>
<g id="#876057ff">
<path fill="#876057" opacity="1.00" d=" M 152.59 173.45 C 153.33 173.29 154.80 172.95 155.53 172.78 C 154.61 175.71 152.76 178.20 151.72 181.06 C 151.45 183.22 153.55 184.38 154.99 185.52 C 155.83 186.10 156.68 186.66 157.53 187.22 C 156.99 187.88 156.45 188.54 155.91 189.20 C 155.58 188.99 154.92 188.58 154.59 188.37 C 150.15 185.25 144.87 183.81 139.78 182.17 L 140.03 181.34 C 142.58 179.44 145.50 178.14 148.62 177.52 C 148.61 180.32 148.51 183.28 150.38 185.57 C 150.67 182.64 150.72 179.68 151.41 176.80 C 151.77 175.67 152.18 174.56 152.59 173.45 Z" />
</g>
<g id="#c5bcb5ff">
<path fill="#c5bcb5" opacity="1.00" d=" M 155.53 172.78 C 155.86 172.71 156.51 172.57 156.84 172.50 C 156.91 172.88 157.06 173.63 157.13 174.01 C 156.86 177.29 156.56 180.57 156.61 183.86 C 156.20 184.28 155.40 185.11 154.99 185.52 C 153.55 184.38 151.45 183.22 151.72 181.06 C 152.76 178.20 154.61 175.71 155.53 172.78 Z" />
</g>
<g id="#bab0acff">
<path fill="#bab0ac" opacity="1.00" d=" M 159.99 175.32 C 161.62 174.39 163.29 173.52 164.98 172.72 C 165.59 175.12 166.11 177.55 166.74 179.95 C 166.92 182.00 167.05 184.05 167.12 186.12 C 164.06 186.07 161.33 184.82 159.19 182.67 C 159.81 180.27 159.93 177.78 159.99 175.32 Z" />
</g>
<g id="#8d7e77ff">
<path fill="#8d7e77" opacity="1.00" d=" M 156.61 183.86 C 156.56 180.57 156.86 177.29 157.13 174.01 C 157.39 174.28 157.90 174.82 158.15 175.09 C 158.61 175.15 159.53 175.26 159.99 175.32 C 159.93 177.78 159.81 180.27 159.19 182.67 C 159.13 182.91 159.03 183.40 158.97 183.65 C 159.52 185.68 160.42 187.59 161.24 189.52 C 159.46 189.60 157.63 189.78 155.91 189.20 C 156.45 188.54 156.99 187.88 157.53 187.22 C 156.68 186.66 155.83 186.10 154.99 185.52 C 155.40 185.11 156.20 184.28 156.61 183.86 Z" />
</g>
<g id="#da9778ff">
<path fill="#da9778" opacity="1.00" d=" M 178.53 184.01 C 178.31 180.67 178.54 177.32 178.56 173.98 C 180.19 178.41 185.19 178.34 189.08 177.63 C 189.07 180.80 188.74 184.00 189.35 187.15 C 189.66 188.16 190.01 189.15 190.32 190.17 C 190.17 191.36 189.97 192.54 189.81 193.73 C 189.03 197.06 189.42 200.49 190.25 203.77 C 190.48 204.82 190.70 205.88 190.92 206.94 C 189.27 206.42 187.62 205.92 186.01 205.30 C 183.55 203.60 181.27 201.66 178.95 199.78 C 179.79 196.97 181.35 194.47 182.72 191.90 C 181.64 189.11 179.69 186.76 178.53 184.01 Z" />
</g>
<g id="#00000022">
<path fill="#000000" opacity="0.13" d=" M 227.77 174.09 C 230.41 175.60 232.86 177.41 235.30 179.21 C 235.22 179.87 235.04 181.19 234.95 181.85 C 232.00 179.83 228.83 177.73 227.77 174.09 Z" />
<path fill="#000000" opacity="0.13" d=" M 149.61 210.22 C 149.92 210.15 150.53 210.01 150.84 209.94 C 154.66 212.06 159.11 211.76 163.21 212.87 C 165.82 213.57 167.73 215.59 169.39 217.60 C 163.37 223.56 162.61 233.76 167.02 240.87 C 166.35 240.60 165.68 240.35 165.01 240.10 C 164.35 244.08 161.01 246.64 158.53 249.53 C 156.23 252.07 152.62 252.54 149.38 252.72 C 149.80 250.15 150.44 247.62 151.07 245.10 C 149.69 244.55 148.32 244.01 146.93 243.49 C 147.86 241.97 148.79 240.45 149.71 238.93 C 144.97 229.53 153.86 219.59 149.61 210.22 Z" />
</g>
<g id="#6f6e75ff">
<path fill="#6f6e75" opacity="1.00" d=" M 259.33 175.00 C 263.14 174.17 259.19 179.65 258.29 176.28 C 258.55 175.96 259.07 175.32 259.33 175.00 Z" />
</g>
<g id="#cb8c6eff">
<path fill="#cb8c6e" opacity="1.00" d=" M 189.08 177.63 C 191.79 177.14 194.50 176.67 197.20 176.17 C 193.97 179.37 192.01 183.51 189.35 187.15 C 188.74 184.00 189.07 180.80 189.08 177.63 Z" />
</g>
<g id="#929093ff">
<path fill="#929093" opacity="1.00" d=" M 214.15 176.00 C 214.81 175.97 216.15 175.91 216.82 175.87 C 220.02 179.79 223.44 183.52 227.02 187.10 C 229.24 190.67 228.10 195.33 225.68 198.52 C 224.25 196.04 224.58 193.15 224.66 190.42 C 224.29 190.50 223.56 190.65 223.20 190.73 C 222.18 187.82 219.86 185.73 217.31 184.14 C 217.13 185.63 216.96 187.12 216.81 188.62 C 215.04 187.24 213.20 185.97 211.28 184.82 C 211.22 186.53 211.18 188.24 211.16 189.96 C 210.48 190.26 209.12 190.86 208.44 191.16 C 208.64 187.69 209.09 184.24 209.89 180.86 C 207.37 183.11 205.19 185.72 203.39 188.58 C 204.57 188.99 205.76 189.39 206.95 189.80 C 205.74 191.38 201.39 192.98 203.35 195.12 C 205.53 195.53 207.86 195.05 209.96 195.85 C 210.56 196.75 211.10 197.68 211.60 198.65 C 211.05 198.58 209.93 198.44 209.37 198.37 C 209.28 202.87 205.05 206.28 200.83 206.61 C 197.55 204.06 197.09 199.12 196.82 195.17 C 196.48 194.63 195.80 193.55 195.45 193.01 C 197.05 188.14 196.65 182.75 199.11 178.13 C 202.91 178.13 206.65 178.73 210.39 179.33 C 211.90 179.70 213.23 178.78 214.58 178.26 C 214.47 177.69 214.25 176.56 214.15 176.00 M 199.26 191.11 C 199.43 194.43 202.24 189.56 199.26 191.11 M 199.05 197.22 C 197.34 197.53 198.08 200.21 199.70 199.66 C 201.34 199.34 200.62 196.74 199.05 197.22 Z" />
</g>
<g id="#b5a9a1ff">
<path fill="#b5a9a1" opacity="1.00" d=" M 148.62 177.52 C 149.32 177.34 150.72 176.98 151.41 176.80 C 150.72 179.68 150.67 182.64 150.38 185.57 C 148.51 183.28 148.61 180.32 148.62 177.52 Z" />
</g>
<g id="#605857fe">
<path fill="#605857" opacity="1.00" d=" M 166.86 177.72 C 168.70 177.91 170.55 178.13 172.39 178.36 C 170.94 178.67 169.49 178.98 168.04 179.29 C 167.88 182.57 167.74 185.86 167.56 189.14 C 165.45 189.27 163.35 189.39 161.24 189.52 C 160.42 187.59 159.52 185.68 158.97 183.65 C 159.03 183.40 159.13 182.91 159.19 182.67 C 161.33 184.82 164.06 186.07 167.12 186.12 C 167.05 184.05 166.92 182.00 166.74 179.95 C 166.77 179.39 166.83 178.28 166.86 177.72 Z" />
</g>
<g id="#cbbcb5ff">
<path fill="#cbbcb5" opacity="1.00" d=" M 174.40 182.40 C 174.50 180.40 174.70 178.41 175.27 176.49 C 175.76 177.60 176.28 178.70 176.66 179.86 C 176.01 180.79 175.18 181.58 174.40 182.40 Z" />
<path fill="#cbbcb5" opacity="1.00" d=" M 242.32 212.38 C 243.22 211.85 244.14 211.34 245.07 210.85 C 245.56 211.08 246.55 211.56 247.04 211.80 C 245.99 213.48 244.74 215.17 244.64 217.24 C 244.90 218.11 245.16 218.99 245.43 219.87 C 245.81 221.20 246.16 222.54 246.50 223.88 C 245.29 225.15 244.10 226.45 242.93 227.76 C 242.45 228.11 241.48 228.79 241.00 229.14 C 239.91 229.66 238.83 230.19 237.74 230.72 C 237.08 230.80 235.75 230.96 235.09 231.04 C 233.71 228.54 232.61 225.91 231.58 223.27 C 234.06 218.68 237.98 215.16 242.32 212.38 Z" />
</g>
<g id="#d2cec4ff">
<path fill="#d2cec4" opacity="1.00" d=" M 229.10 179.95 C 232.90 182.88 236.05 188.17 233.71 192.95 C 232.50 188.46 228.71 184.84 229.10 179.95 Z" />
</g>
<g id="#b5b3b7ff">
<path fill="#b5b3b7" opacity="1.00" d=" M 203.39 188.58 C 205.19 185.72 207.37 183.11 209.89 180.86 C 209.09 184.24 208.64 187.69 208.44 191.16 C 208.36 191.92 208.28 192.67 208.19 193.43 C 210.14 193.62 211.86 194.54 213.30 195.85 C 214.55 195.60 215.80 195.33 217.04 195.03 C 215.86 196.44 214.76 197.92 213.66 199.39 C 213.14 199.20 212.12 198.84 211.60 198.65 C 211.10 197.68 210.56 196.75 209.96 195.85 C 207.86 195.05 205.53 195.53 203.35 195.12 C 201.39 192.98 205.74 191.38 206.95 189.80 C 205.76 189.39 204.57 188.99 203.39 188.58 Z" />
</g>
<g id="#4a3932ff">
<path fill="#4a3932" opacity="1.00" d=" M 139.78 182.17 C 144.87 183.81 150.15 185.25 154.59 188.37 C 151.31 188.23 148.04 188.49 144.77 188.64 C 142.39 187.14 140.46 184.95 139.78 182.17 Z" />
</g>
<g id="#00000014">
<path fill="#000000" opacity="0.08" d=" M 259.83 193.19 C 256.74 189.66 252.96 186.43 251.42 181.87 C 254.78 185.66 259.26 188.25 262.43 192.22 C 262.02 193.09 260.64 194.32 259.83 193.19 Z" />
<path fill="#000000" opacity="0.08" d=" M 145.56 189.11 C 150.78 188.80 155.78 190.26 160.65 191.96 C 160.45 192.51 160.06 193.60 159.86 194.15 C 155.31 194.58 150.80 195.43 146.22 195.55 C 141.81 195.68 138.34 201.33 140.88 205.15 C 143.29 208.24 147.41 208.66 150.84 209.94 C 150.53 210.01 149.92 210.15 149.61 210.22 C 153.86 219.59 144.97 229.53 149.71 238.93 C 148.79 240.45 147.86 241.97 146.93 243.49 C 148.32 244.01 149.69 244.55 151.07 245.10 C 150.44 247.62 149.80 250.15 149.38 252.72 C 152.62 252.54 156.23 252.07 158.53 249.53 C 161.01 246.64 164.35 244.08 165.01 240.10 C 165.68 240.35 166.35 240.60 167.02 240.87 C 168.79 242.08 170.56 243.27 172.34 244.48 C 172.39 244.73 172.49 245.24 172.54 245.49 C 170.89 245.67 169.23 245.84 167.58 246.02 C 167.94 249.80 165.80 252.90 164.28 256.14 C 163.03 261.57 162.60 267.18 162.61 272.75 C 162.73 275.57 160.24 278.10 161.26 280.90 C 162.66 285.36 162.42 290.11 163.64 294.62 C 162.34 296.41 161.33 298.39 160.74 300.53 C 162.07 300.44 163.40 300.35 164.73 300.25 C 164.05 301.08 163.37 301.91 162.70 302.75 C 163.26 304.06 164.29 305.29 164.33 306.76 C 163.60 309.20 162.14 311.58 162.86 314.22 C 164.17 314.28 165.48 314.35 166.79 314.42 C 166.02 317.87 166.03 322.40 162.22 323.98 C 164.74 325.01 166.11 327.27 166.97 329.75 C 168.03 329.26 169.09 328.78 170.15 328.31 C 170.58 328.49 171.45 328.86 171.88 329.04 C 170.76 330.18 169.64 331.32 168.51 332.45 C 168.84 335.38 168.73 338.47 169.93 341.21 C 171.39 342.89 173.29 344.11 175.03 345.49 C 173.46 346.89 171.57 347.82 169.59 348.49 C 170.61 350.64 172.18 352.80 171.84 355.31 C 171.62 357.50 171.01 359.63 170.48 361.77 C 173.33 361.06 176.52 360.20 179.05 362.27 C 176.83 363.17 173.75 363.09 172.58 365.56 C 171.36 367.55 170.48 369.72 169.52 371.84 C 171.60 372.39 174.27 372.38 175.40 374.56 C 176.84 376.39 176.95 378.76 176.95 380.99 C 175.09 381.60 173.51 382.72 172.06 384.00 L 152.57 384.00 C 153.40 382.92 154.19 381.83 154.98 380.74 C 153.99 380.62 153.00 380.52 152.02 380.42 C 151.21 378.25 151.80 376.05 152.69 374.02 C 151.61 373.38 149.64 373.44 149.51 371.88 C 149.73 370.41 150.19 369.00 150.57 367.57 C 148.85 364.77 147.53 361.75 146.13 358.79 C 146.24 356.34 147.39 354.10 148.13 351.80 C 146.76 351.74 145.39 351.67 144.03 351.61 C 144.52 349.08 145.13 346.57 145.76 344.07 C 144.44 341.50 142.34 339.11 142.07 336.16 C 143.03 334.43 144.35 332.95 145.62 331.45 C 143.14 331.08 140.68 330.46 138.63 328.96 C 139.46 328.81 140.30 328.66 141.15 328.52 C 141.24 326.50 141.59 324.45 141.23 322.44 C 140.08 319.29 137.74 316.54 137.59 313.07 C 137.46 310.46 136.73 307.95 135.30 305.75 C 135.71 304.27 136.14 302.80 136.56 301.34 C 135.73 300.13 134.86 298.96 134.19 297.66 C 134.00 295.78 134.86 293.98 134.94 292.11 C 134.68 289.52 133.01 287.11 133.60 284.46 C 135.04 278.64 133.24 272.27 136.66 266.96 C 136.21 265.05 135.55 263.16 135.59 261.18 C 136.38 252.37 141.10 244.43 141.51 235.55 C 141.83 231.94 140.69 228.42 140.67 224.84 C 141.19 222.03 143.08 219.69 143.63 216.90 C 142.82 211.70 139.39 207.36 138.35 202.25 C 138.68 196.90 144.78 194.40 145.56 189.11 Z" />
</g>
<g id="#4b352cff">
<path fill="#4b352c" opacity="1.00" d=" M 177.64 203.27 C 173.88 197.09 179.75 190.54 178.53 184.01 C 179.69 186.76 181.64 189.11 182.72 191.90 C 181.35 194.47 179.79 196.97 178.95 199.78 C 178.52 200.95 178.08 202.11 177.64 203.27 Z" />
</g>
<g id="#bbb7b8ff">
<path fill="#bbb7b8" opacity="1.00" d=" M 217.31 184.14 C 219.86 185.73 222.18 187.82 223.20 190.73 C 223.16 192.27 222.97 193.79 222.66 195.30 C 222.09 194.89 220.95 194.06 220.38 193.65 C 217.76 191.47 214.44 190.55 211.16 189.96 C 211.18 188.24 211.22 186.53 211.28 184.82 C 213.20 185.97 215.04 187.24 216.81 188.62 C 216.96 187.12 217.13 185.63 217.31 184.14 Z" />
</g>
<g id="#00000032">
<path fill="#000000" opacity="0.20" d=" M 144.77 188.64 C 148.04 188.49 151.31 188.23 154.59 188.37 C 154.92 188.58 155.58 188.99 155.91 189.20 C 157.63 189.78 159.46 189.60 161.24 189.52 C 163.35 189.39 165.45 189.27 167.56 189.14 C 167.44 190.99 167.35 192.85 167.32 194.70 C 165.21 194.77 163.11 194.82 161.00 194.87 L 159.98 194.89 L 159.86 194.15 C 160.06 193.60 160.45 192.51 160.65 191.96 C 155.78 190.26 150.78 188.80 145.56 189.11 L 144.77 188.64 Z" />
</g>
<g id="#a49690ff">
<path fill="#a49690" opacity="1.00" d=" M 174.22 187.54 C 175.09 188.87 175.85 190.28 176.51 191.73 C 175.86 192.03 174.56 192.62 173.91 192.92 C 173.99 191.12 174.12 189.33 174.22 187.54 Z" />
</g>
<g id="#f7f1f5ff">
<path fill="#f7f1f5" opacity="1.00" d=" M 211.16 189.96 C 214.44 190.55 217.76 191.47 220.38 193.65 C 219.27 194.11 218.15 194.57 217.04 195.03 C 215.80 195.33 214.55 195.60 213.30 195.85 C 211.86 194.54 210.14 193.62 208.19 193.43 C 208.28 192.67 208.36 191.92 208.44 191.16 C 209.12 190.86 210.48 190.26 211.16 189.96 Z" />
</g>
<g id="#fdf7f1ff">
<path fill="#fdf7f1" opacity="1.00" d=" M 199.26 191.11 C 202.24 189.56 199.43 194.43 199.26 191.11 Z" />
</g>
<g id="#575353fd">
<path fill="#575353" opacity="1.00" d=" M 240.74 190.97 C 242.10 195.62 237.93 199.16 235.81 202.82 C 233.99 204.96 234.34 207.87 234.10 210.47 C 233.64 210.56 232.73 210.72 232.28 210.80 C 232.16 210.44 231.91 209.72 231.79 209.36 C 232.34 208.32 232.64 207.21 232.68 206.03 C 232.96 202.49 234.26 199.08 236.15 196.10 C 237.64 194.35 239.42 192.86 240.74 190.97 Z" />
</g>
<g id="#e8e1d8ff">
<path fill="#e8e1d8" opacity="1.00" d=" M 195.45 193.01 C 195.80 193.55 196.48 194.63 196.82 195.17 C 195.33 196.14 194.57 194.03 195.45 193.01 Z" />
</g>
<g id="#664f46ff">
<path fill="#664f46" opacity="1.00" d=" M 146.22 195.55 C 150.80 195.43 155.31 194.58 159.86 194.15 L 159.98 194.89 C 158.81 194.89 157.64 194.90 156.47 194.90 C 156.43 195.83 156.39 196.76 156.36 197.69 C 153.47 197.63 149.41 196.99 148.32 200.56 C 146.70 203.43 149.29 206.04 151.40 207.68 C 151.83 207.28 152.68 206.48 153.11 206.08 C 153.44 206.45 154.11 207.18 154.45 207.55 C 154.73 208.81 154.83 210.10 154.97 211.38 C 155.93 211.29 156.90 211.20 157.87 211.11 C 157.67 209.46 157.47 207.82 157.25 206.17 C 159.85 208.81 162.98 210.89 166.62 211.73 C 166.75 211.16 167.03 210.02 167.17 209.45 C 168.36 211.24 169.72 212.90 171.25 214.41 C 170.79 215.56 170.23 216.68 169.39 217.60 C 167.73 215.59 165.82 213.57 163.21 212.87 C 159.11 211.76 154.66 212.06 150.84 209.94 C 147.41 208.66 143.29 208.24 140.88 205.15 C 138.34 201.33 141.81 195.68 146.22 195.55 Z" />
</g>
<g id="#938e93ff">
<path fill="#938e93" opacity="1.00" d=" M 217.04 195.03 C 218.15 194.57 219.27 194.11 220.38 193.65 C 220.95 194.06 222.09 194.89 222.66 195.30 C 222.21 197.55 221.15 199.61 220.03 201.60 C 217.89 200.91 215.76 200.19 213.66 199.39 C 214.76 197.92 215.86 196.44 217.04 195.03 Z" />
</g>
<g id="#958d88ff">
<path fill="#958d88" opacity="1.00" d=" M 156.47 194.90 C 157.64 194.90 158.81 194.89 159.98 194.89 L 161.00 194.87 C 160.79 196.24 160.57 197.62 160.35 199.00 C 160.67 198.95 161.30 198.86 161.61 198.81 C 160.74 201.37 159.34 204.43 161.03 206.97 C 162.46 208.13 164.16 208.90 165.79 209.76 C 166.25 208.13 166.73 206.50 167.14 204.85 C 167.05 205.51 166.88 206.84 166.79 207.50 C 168.40 206.42 170.18 205.63 172.04 205.10 C 172.71 207.32 173.25 209.58 173.90 211.81 C 173.00 212.66 172.12 213.53 171.25 214.41 C 169.72 212.90 168.36 211.24 167.17 209.45 C 167.03 210.02 166.75 211.16 166.62 211.73 C 162.98 210.89 159.85 208.81 157.25 206.17 C 157.47 207.82 157.67 209.46 157.87 211.11 C 156.90 211.20 155.93 211.29 154.97 211.38 C 154.83 210.10 154.73 208.81 154.45 207.55 C 156.04 204.80 156.99 201.74 157.58 198.63 C 155.78 199.05 153.57 198.85 152.28 200.42 C 151.79 202.33 152.43 204.29 153.11 206.08 C 152.68 206.48 151.83 207.28 151.40 207.68 C 149.29 206.04 146.70 203.43 148.32 200.56 C 149.41 196.99 153.47 197.63 156.36 197.69 C 156.39 196.76 156.43 195.83 156.47 194.90 Z" />
</g>
<g id="#605a58fc">
<path fill="#605a58" opacity="1.00" d=" M 161.00 194.87 C 163.11 194.82 165.21 194.77 167.32 194.70 C 167.30 195.83 167.31 196.96 167.33 198.09 C 165.42 198.32 163.51 198.55 161.61 198.81 C 161.30 198.86 160.67 198.95 160.35 199.00 C 160.57 197.62 160.79 196.24 161.00 194.87 Z" />
</g>
<g id="#d5cdc9ff">
<path fill="#d5cdc9" opacity="1.00" d=" M 199.05 197.22 C 200.62 196.74 201.34 199.34 199.70 199.66 C 198.08 200.21 197.34 197.53 199.05 197.22 Z" />
</g>
<g id="#c1b8b4ff">
<path fill="#c1b8b4" opacity="1.00" d=" M 161.61 198.81 C 163.51 198.55 165.42 198.32 167.33 198.09 C 167.35 200.34 167.42 202.61 167.14 204.85 C 166.73 206.50 166.25 208.13 165.79 209.76 C 164.16 208.90 162.46 208.13 161.03 206.97 C 159.34 204.43 160.74 201.37 161.61 198.81 Z" />
</g>
<g id="#c7bdb7ff">
<path fill="#c7bdb7" opacity="1.00" d=" M 152.28 200.42 C 153.57 198.85 155.78 199.05 157.58 198.63 C 156.99 201.74 156.04 204.80 154.45 207.55 C 154.11 207.18 153.44 206.45 153.11 206.08 C 152.43 204.29 151.79 202.33 152.28 200.42 Z" />
</g>
<g id="#222327fd">
<path fill="#222327" opacity="1.00" d=" M 272.38 198.84 C 272.90 199.05 273.95 199.47 274.48 199.68 C 275.11 201.27 275.73 202.86 276.35 204.47 C 271.45 208.89 267.08 214.20 260.88 216.86 C 256.07 219.23 250.60 219.01 245.43 219.87 C 245.16 218.99 244.90 218.11 244.64 217.24 C 256.77 219.04 269.09 210.53 272.38 198.84 Z" />
</g>
<g id="#87848aff">
<path fill="#87848a" opacity="1.00" d=" M 190.25 203.77 C 193.36 205.56 196.40 207.61 198.54 210.55 C 196.69 210.54 194.84 210.51 193.00 210.47 C 192.69 210.81 192.07 211.49 191.75 211.83 C 192.74 212.45 193.74 213.07 194.73 213.69 C 193.45 214.17 192.17 214.64 190.89 215.11 C 189.12 214.52 187.43 213.72 185.87 212.69 C 184.58 211.82 183.31 210.89 181.99 210.06 C 181.47 209.94 180.42 209.71 179.90 209.59 C 182.37 208.88 184.28 207.13 186.01 205.30 C 187.62 205.92 189.27 206.42 190.92 206.94 C 190.70 205.88 190.48 204.82 190.25 203.77 Z" />
</g>
<g id="#1a191963">
<path fill="#1a1919" opacity="0.39" d=" M 229.17 209.04 C 229.65 207.44 231.08 206.37 232.68 206.03 C 232.64 207.21 232.34 208.32 231.79 209.36 C 231.13 209.28 229.82 209.12 229.17 209.04 Z" />
</g>
<g id="#fff4edff">
<path fill="#fff4ed" opacity="1.00" d=" M 216.28 207.36 C 216.84 207.93 216.84 207.93 216.28 207.36 Z" />
</g>
<g id="#010101c3">
<path fill="#010101" opacity="0.76" d=" M 229.17 209.04 C 229.82 209.12 231.13 209.28 231.79 209.36 C 231.91 209.72 232.16 210.44 232.28 210.80 C 232.73 210.72 233.64 210.56 234.10 210.47 C 235.66 213.42 239.61 212.09 242.32 212.38 C 237.98 215.16 234.06 218.68 231.58 223.27 C 228.81 219.98 225.00 217.84 221.01 216.39 C 222.57 216.59 224.14 216.78 225.72 216.96 C 226.78 214.28 227.95 211.65 229.17 209.04 Z" />
</g>
<g id="#c3b8b2ff">
<path fill="#c3b8b2" opacity="1.00" d=" M 181.99 210.06 C 183.31 210.89 184.58 211.82 185.87 212.69 C 184.57 214.57 182.68 216.45 183.04 218.94 C 183.19 222.08 183.08 225.24 183.20 228.39 C 185.85 232.00 189.70 234.61 193.73 236.50 C 193.24 234.70 192.72 232.91 192.20 231.13 C 193.72 232.70 195.27 234.26 196.82 235.81 C 198.09 234.56 199.35 233.32 200.62 232.08 C 200.48 233.37 200.34 234.67 200.20 235.97 C 200.56 236.33 201.27 237.03 201.63 237.39 C 201.47 237.83 201.15 238.73 200.99 239.17 C 201.96 239.48 202.93 239.79 203.90 240.10 C 202.88 240.55 201.86 240.98 200.83 241.40 C 199.71 239.86 198.52 238.38 197.25 236.96 C 196.02 238.60 194.92 241.39 192.36 240.63 C 188.74 238.49 186.13 235.05 183.23 232.08 C 182.95 233.53 182.68 234.98 182.42 236.44 L 182.25 235.72 C 181.75 231.93 180.49 228.30 179.98 224.52 C 181.61 220.24 182.41 215.59 180.63 211.21 C 180.97 210.92 181.65 210.35 181.99 210.06 Z" />
</g>
<g id="#cdc6c9ff">
<path fill="#cdc6c9" opacity="1.00" d=" M 193.00 210.47 C 194.84 210.51 196.69 210.54 198.54 210.55 C 199.99 212.48 201.05 214.65 201.99 216.86 C 198.61 214.80 194.68 214.93 190.89 215.11 C 192.17 214.64 193.45 214.17 194.73 213.69 C 193.74 213.07 192.74 212.45 191.75 211.83 C 192.07 211.49 192.69 210.81 193.00 210.47 Z" />
</g>
<g id="#fffffbff">
<path fill="#fffffb" opacity="1.00" d=" M 207.04 210.24 C 210.35 210.46 205.47 213.23 207.04 210.24 Z" />
</g>
<g id="#79757cff">
<path fill="#79757c" opacity="1.00" d=" M 178.28 211.35 C 179.85 215.56 179.22 220.16 179.98 224.52 C 180.49 228.30 181.75 231.93 182.25 235.72 C 181.03 233.33 179.93 230.89 178.91 228.41 C 174.85 227.83 172.59 231.64 170.51 234.42 C 170.93 230.65 171.38 226.14 174.88 223.89 C 176.02 222.72 178.29 222.04 177.89 220.04 C 177.80 218.13 176.77 214.78 174.33 215.34 C 167.03 220.45 165.41 230.47 167.54 238.62 C 168.21 237.57 168.88 236.53 169.55 235.49 C 169.92 236.28 170.32 237.06 170.74 237.83 C 171.81 239.77 173.18 241.53 174.50 243.33 C 173.96 243.62 172.88 244.19 172.34 244.48 C 170.56 243.27 168.79 242.08 167.02 240.87 C 162.61 233.76 163.37 223.56 169.39 217.60 C 170.23 216.68 170.79 215.56 171.25 214.41 C 172.12 213.53 173.00 212.66 173.90 211.81 C 174.23 212.11 174.88 212.70 175.21 213.00 C 176.25 212.48 177.26 211.92 178.28 211.35 Z" />
</g>
<g id="#dbd5d8ff">
<path fill="#dbd5d8" opacity="1.00" d=" M 204.58 213.87 C 205.15 213.51 206.30 212.78 206.88 212.42 C 207.24 212.95 207.96 214.02 208.32 214.56 C 208.62 218.21 209.90 221.64 210.92 225.13 C 206.66 223.17 204.37 218.43 204.58 213.87 Z" />
</g>
<g id="#c2b6afff">
<path fill="#c2b6af" opacity="1.00" d=" M 213.07 213.00 C 216.58 212.97 220.42 212.39 223.44 214.63 C 221.50 215.02 219.56 215.37 217.61 215.72 C 217.43 216.24 217.06 217.30 216.88 217.82 C 219.41 218.58 221.95 219.32 224.40 220.31 C 223.60 221.59 222.81 222.87 222.04 224.17 C 220.37 222.92 218.71 221.66 217.07 220.38 C 216.85 220.83 216.41 221.73 216.19 222.18 C 216.25 219.96 216.21 217.74 216.18 215.52 C 213.89 215.97 212.37 217.59 212.60 220.00 C 212.06 217.66 212.53 215.29 213.07 213.00 M 219.55 220.14 C 218.52 222.12 222.68 223.18 222.91 221.03 C 222.69 219.56 220.49 219.09 219.55 220.14 Z" />
</g>
<g id="#a3a0a4ff">
<path fill="#a3a0a4" opacity="1.00" d=" M 201.99 216.86 C 202.84 215.85 203.68 214.84 204.58 213.87 C 204.37 218.43 206.66 223.17 210.92 225.13 C 209.90 221.64 208.62 218.21 208.32 214.56 C 210.80 217.82 211.24 222.08 213.50 225.46 C 214.81 227.53 216.12 229.61 217.23 231.81 C 213.98 230.62 210.93 228.98 207.94 227.26 C 207.94 227.69 207.93 228.55 207.92 228.98 C 205.03 225.48 202.58 221.45 201.99 216.86 Z" />
</g>
<g id="#a39ea6ff">
<path fill="#a39ea6" opacity="1.00" d=" M 167.54 238.62 C 165.41 230.47 167.03 220.45 174.33 215.34 C 176.77 214.78 177.80 218.13 177.89 220.04 C 178.29 222.04 176.02 222.72 174.88 223.89 C 171.38 226.14 170.93 230.65 170.51 234.42 C 170.55 235.55 170.62 236.69 170.74 237.83 C 170.32 237.06 169.92 236.28 169.55 235.49 C 168.88 236.53 168.21 237.57 167.54 238.62 Z" />
</g>
<g id="#eae4e2ff">
<path fill="#eae4e2" opacity="1.00" d=" M 212.60 220.00 C 212.37 217.59 213.89 215.97 216.18 215.52 C 216.21 217.74 216.25 219.96 216.19 222.18 C 216.08 223.25 215.98 224.33 215.88 225.41 C 215.59 225.29 215.01 225.06 214.73 224.95 C 213.90 223.35 213.17 221.70 212.60 220.00 Z" />
</g>
<g id="#948f95ff">
<path fill="#948f95" opacity="1.00" d=" M 217.07 220.38 C 218.71 221.66 220.37 222.92 222.04 224.17 C 222.81 222.87 223.60 221.59 224.40 220.31 C 226.58 221.68 230.04 222.81 229.51 225.99 C 228.38 224.98 227.05 224.25 225.73 223.53 C 224.86 226.27 227.61 226.63 229.56 227.10 C 230.10 227.42 230.63 227.76 231.15 228.10 C 232.49 232.75 232.04 237.53 231.30 242.23 C 231.05 243.08 230.82 243.94 230.61 244.80 C 228.12 245.95 225.52 246.89 222.76 247.13 C 224.65 244.22 227.28 241.53 227.41 237.85 C 227.13 231.58 221.54 227.04 215.88 225.41 C 215.98 224.33 216.08 223.25 216.19 222.18 C 216.41 221.73 216.85 220.83 217.07 220.38 Z" />
</g>
<g id="#e9e2e7ff">
<path fill="#e9e2e7" opacity="1.00" d=" M 219.55 220.14 C 220.49 219.09 222.69 219.56 222.91 221.03 C 222.68 223.18 218.52 222.12 219.55 220.14 Z" />
</g>
<g id="#c0bac0ff">
<path fill="#c0bac0" opacity="1.00" d=" M 225.73 223.53 C 227.05 224.25 228.38 224.98 229.51 225.99 L 229.56 227.10 C 227.61 226.63 224.86 226.27 225.73 223.53 Z" />
</g>
<g id="#47434092">
<path fill="#474340" opacity="0.57" d=" M 241.00 229.14 C 241.48 228.79 242.45 228.11 242.93 227.76 C 242.45 228.11 241.48 228.79 241.00 229.14 Z" />
</g>
<g id="#0000000b">
<path fill="#000000" opacity="0.04" d=" M 170.51 234.42 C 172.59 231.64 174.85 227.83 178.91 228.41 C 179.93 230.89 181.03 233.33 182.25 235.72 L 182.42 236.44 C 182.52 236.84 182.71 237.65 182.80 238.06 C 183.57 242.28 185.84 245.98 189.01 248.83 C 189.49 249.18 190.45 249.89 190.93 250.24 C 196.58 252.26 202.75 251.85 208.44 250.32 C 211.35 248.29 213.97 245.83 217.11 244.13 C 220.65 242.21 223.54 239.18 227.41 237.85 C 227.28 241.53 224.65 244.22 222.76 247.13 C 225.52 246.89 228.12 245.95 230.61 244.80 C 230.53 245.12 230.37 245.78 230.29 246.10 C 228.18 247.86 225.92 249.44 223.95 251.35 C 223.24 251.12 222.53 250.89 221.82 250.66 C 221.37 251.16 220.91 251.67 220.46 252.18 C 222.27 253.41 224.81 254.84 223.41 257.36 C 221.95 257.20 220.49 257.04 219.04 256.84 C 220.76 258.20 223.02 259.10 224.22 261.01 C 222.75 262.67 220.35 262.21 218.38 262.41 C 219.14 263.99 221.13 265.50 220.33 267.40 C 217.34 268.21 214.20 268.20 211.17 268.81 C 208.75 269.18 207.21 271.27 205.55 272.86 C 206.33 275.09 208.78 277.60 206.99 279.92 C 202.79 286.61 195.58 290.60 191.08 297.03 C 187.95 301.37 184.70 305.73 182.72 310.75 C 181.23 313.90 182.64 318.39 186.38 318.97 C 185.76 323.26 189.16 326.16 191.79 328.99 C 190.55 332.02 188.35 334.45 186.02 336.68 C 188.80 338.78 191.41 341.19 193.05 344.32 C 191.25 344.30 189.46 344.08 187.70 343.74 C 190.81 346.31 193.49 349.84 193.39 354.07 C 192.45 356.17 190.80 357.84 189.73 359.86 C 190.83 361.93 192.52 363.69 193.25 365.95 C 193.85 368.06 192.04 369.95 192.32 372.06 C 192.49 373.99 193.23 375.89 193.02 377.85 C 192.41 380.31 190.59 382.21 188.90 384.00 L 172.06 384.00 C 173.51 382.72 175.09 381.60 176.95 380.99 C 176.95 378.76 176.84 376.39 175.40 374.56 C 174.27 372.38 171.60 372.39 169.52 371.84 C 170.48 369.72 171.36 367.55 172.58 365.56 C 173.75 363.09 176.83 363.17 179.05 362.27 C 176.52 360.20 173.33 361.06 170.48 361.77 C 171.01 359.63 171.62 357.50 171.84 355.31 C 172.18 352.80 170.61 350.64 169.59 348.49 C 171.57 347.82 173.46 346.89 175.03 345.49 C 173.29 344.11 171.39 342.89 169.93 341.21 C 168.73 338.47 168.84 335.38 168.51 332.45 C 169.64 331.32 170.76 330.18 171.88 329.04 C 171.45 328.86 170.58 328.49 170.15 328.31 C 169.09 328.78 168.03 329.26 166.97 329.75 C 166.11 327.27 164.74 325.01 162.22 323.98 C 166.03 322.40 166.02 317.87 166.79 314.42 C 165.48 314.35 164.17 314.28 162.86 314.22 C 162.14 311.58 163.60 309.20 164.33 306.76 C 164.29 305.29 163.26 304.06 162.70 302.75 C 163.37 301.91 164.05 301.08 164.73 300.25 C 163.40 300.35 162.07 300.44 160.74 300.53 C 161.33 298.39 162.34 296.41 163.64 294.62 C 162.42 290.11 162.66 285.36 161.26 280.90 C 160.24 278.10 162.73 275.57 162.61 272.75 C 162.60 267.18 163.03 261.57 164.28 256.14 C 165.80 252.90 167.94 249.80 167.58 246.02 C 169.23 245.84 170.89 245.67 172.54 245.49 C 172.49 245.24 172.39 244.73 172.34 244.48 C 172.88 244.19 173.96 243.62 174.50 243.33 C 173.18 241.53 171.81 239.77 170.74 237.83 C 170.62 236.69 170.55 235.55 170.51 234.42 Z" />
</g>
<g id="#928e8fff">
<path fill="#928e8f" opacity="1.00" d=" M 209.69 231.01 C 212.51 234.03 215.50 236.88 218.79 239.39 C 219.16 241.08 217.74 242.63 217.11 244.13 C 213.97 245.83 211.35 248.29 208.44 250.32 C 202.75 251.85 196.58 252.26 190.93 250.24 C 190.45 249.89 189.49 249.18 189.01 248.83 C 185.84 245.98 183.57 242.28 182.80 238.06 C 184.92 240.96 187.84 243.11 190.89 244.95 C 190.38 244.98 189.37 245.02 188.86 245.05 C 191.90 247.87 196.07 250.27 200.36 249.35 C 203.90 248.57 207.84 247.24 209.48 243.71 C 211.64 241.19 214.01 238.05 212.59 234.55 C 209.84 236.61 207.06 238.69 203.90 240.10 C 202.93 239.79 201.96 239.48 200.99 239.17 C 201.15 238.73 201.47 237.83 201.63 237.39 C 204.71 235.83 208.07 234.28 209.69 231.01 Z" />
</g>
<g id="#b7ada6ff">
<path fill="#b7ada6" opacity="1.00" d=" M 221.18 232.25 C 222.15 231.06 224.43 232.56 223.46 233.88 C 222.49 235.06 220.19 233.57 221.18 232.25 Z" />
</g>
<g id="#4539379f">
<path fill="#453937" opacity="0.62" d=" M 189.01 248.83 C 189.49 249.18 190.45 249.89 190.93 250.24 C 190.45 249.89 189.49 249.18 189.01 248.83 Z" />
</g>
</svg>
