<?xml version="1.0" encoding="UTF-8" ?>
<!DOCTYPE svg PUBLIC "-//W3C//DTD SVG 1.1//EN" "http://www.w3.org/Graphics/SVG/1.1/DTD/svg11.dtd">
<svg width="384pt" height="384pt" viewBox="0 0 384 384" version="1.1" xmlns="http://www.w3.org/2000/svg">
<g id="#141312ff">
<path fill="#141312" opacity="1.00" d=" M 240.31 149.39 C 242.08 146.70 245.38 146.43 248.25 145.87 C 246.54 146.94 244.88 148.08 243.19 149.19 C 243.87 151.37 244.56 153.54 245.28 155.72 C 246.90 154.53 248.52 153.32 250.14 152.11 C 251.01 156.81 252.31 161.41 253.02 166.14 C 252.10 163.49 251.41 160.67 249.80 158.33 C 247.67 156.95 245.16 156.33 243.00 155.00 C 241.76 153.32 241.16 151.28 240.31 149.39 Z" />
<path fill="#141312" opacity="1.00" d=" M 250.92 145.34 C 252.99 151.11 254.48 157.14 254.67 163.29 C 253.30 157.33 251.46 151.46 250.92 145.34 Z" />
<path fill="#141312" opacity="1.00" d=" M 252.08 185.93 C 252.40 186.29 253.03 187.01 253.35 187.36 C 253.58 187.31 254.03 187.20 254.26 187.15 C 255.19 186.88 256.12 186.61 257.05 186.34 C 257.64 186.50 258.83 186.82 259.42 186.98 C 259.88 187.10 260.80 187.34 261.26 187.46 C 261.52 188.06 262.04 189.28 262.31 189.89 C 261.95 191.21 261.58 192.53 261.28 193.87 C 260.88 193.69 260.07 193.34 259.66 193.16 C 257.64 193.29 255.63 193.56 253.62 193.84 C 253.19 191.19 252.49 188.59 252.08 185.93 Z" />
</g>
<g id="#424048ff">
<path fill="#424048" opacity="1.00" d=" M 248.25 145.87 L 249.01 145.71 C 249.35 147.85 249.73 149.98 250.14 152.11 C 248.52 153.32 246.90 154.53 245.28 155.72 C 244.56 153.54 243.87 151.37 243.19 149.19 C 244.88 148.08 246.54 146.94 248.25 145.87 Z" />
</g>
<g id="#c4c0c2ff">
<path fill="#c4c0c2" opacity="1.00" d=" M 249.01 145.71 C 249.49 145.62 250.44 145.44 250.92 145.34 C 251.46 151.46 253.30 157.33 254.67 163.29 C 254.69 163.75 254.74 164.66 254.76 165.11 C 254.52 166.41 254.96 167.40 256.07 168.07 L 255.93 168.89 C 255.33 170.10 255.47 171.18 256.36 172.13 L 256.89 172.77 C 257.51 174.16 258.11 175.57 258.71 176.98 C 258.20 177.11 257.17 177.35 256.66 177.48 C 255.64 175.32 254.77 173.10 254.05 170.83 L 254.15 170.08 C 254.57 168.81 254.25 167.76 253.19 166.94 L 253.02 166.14 C 252.31 161.41 251.01 156.81 250.14 152.11 C 249.73 149.98 249.35 147.85 249.01 145.71 Z" />
<path fill="#c4c0c2" opacity="1.00" d=" M 100.23 166.81 C 100.68 166.75 101.58 166.64 102.03 166.59 C 102.32 168.52 102.61 170.45 102.89 172.38 C 102.01 172.32 101.13 172.27 100.25 172.21 C 100.18 170.41 100.17 168.60 100.23 166.81 Z" />
<path fill="#c4c0c2" opacity="1.00" d=" M 209.58 168.56 C 210.58 167.08 212.29 166.37 213.79 165.50 C 212.63 171.32 208.86 176.61 209.50 182.74 C 208.33 182.43 207.15 182.12 205.99 181.82 C 206.42 181.55 207.30 181.01 207.73 180.74 C 204.13 176.98 207.12 172.03 209.58 168.56 Z" />
<path fill="#c4c0c2" opacity="1.00" d=" M 259.40 207.65 C 260.91 207.64 262.42 207.62 263.93 207.55 C 264.56 210.46 265.32 213.35 265.66 216.31 C 264.38 213.76 263.59 211.00 262.30 208.45 C 262.28 211.37 262.64 214.28 262.66 217.20 C 260.79 214.34 260.22 210.91 259.40 207.65 Z" />
<path fill="#c4c0c2" opacity="1.00" d=" M 278.18 216.44 C 280.18 215.32 280.92 219.71 278.92 219.93 C 277.45 219.61 277.16 217.38 278.18 216.44 Z" />
</g>
<g id="#a17054fd">
<path fill="#a17054" opacity="1.00" d=" M 222.60 148.98 C 226.04 147.97 229.81 148.30 232.78 150.40 C 232.70 152.92 232.70 155.44 233.03 157.95 C 230.24 154.23 226.23 151.78 222.60 148.98 Z" />
</g>
<g id="#af9992ff">
<path fill="#af9992" opacity="1.00" d=" M 214.99 149.69 C 217.28 149.16 219.64 149.20 221.97 149.11 C 220.08 150.91 217.11 151.44 214.99 149.69 Z" />
<path fill="#af9992" opacity="1.00" d=" M 197.71 160.20 C 197.99 160.08 198.55 159.84 198.83 159.72 C 199.17 159.97 199.83 160.47 200.17 160.71 C 196.82 163.80 192.64 167.59 193.37 172.63 C 195.23 175.77 199.03 176.79 202.12 178.29 C 201.21 180.31 200.49 182.53 198.94 184.18 C 197.49 185.31 195.67 185.77 193.97 186.36 C 195.10 184.44 196.24 182.52 197.37 180.60 C 193.94 178.33 191.00 175.39 188.85 171.87 C 190.26 169.73 191.57 167.52 192.84 165.30 C 191.57 164.98 190.31 164.66 189.05 164.34 C 192.06 163.24 194.95 161.83 197.71 160.20 Z" />
</g>
<g id="#3f413eff">
<path fill="#3f413e" opacity="1.00" d=" M 221.97 149.11 L 222.60 148.98 C 226.23 151.78 230.24 154.23 233.03 157.95 C 233.36 158.56 234.01 159.78 234.33 160.39 C 234.39 160.70 234.50 161.33 234.56 161.64 C 234.66 162.18 234.84 163.26 234.94 163.80 C 231.92 160.27 229.04 156.26 224.61 154.42 C 220.32 152.71 215.75 151.86 211.36 150.45 C 212.56 150.18 213.77 149.92 214.99 149.69 C 217.11 151.44 220.08 150.91 221.97 149.11 Z" />
</g>
<g id="#868081ff">
<path fill="#868081" opacity="1.00" d=" M 198.83 159.72 C 203.18 156.86 206.32 152.22 211.36 150.45 C 215.75 151.86 220.32 152.71 224.61 154.42 C 229.04 156.26 231.92 160.27 234.94 163.80 C 234.84 163.26 234.66 162.18 234.56 161.64 C 236.37 159.96 238.19 158.29 240.04 156.65 C 239.20 155.79 238.35 154.93 237.49 154.11 C 237.26 153.90 236.81 153.50 236.58 153.29 C 237.10 152.77 238.12 151.72 238.64 151.19 C 241.30 153.88 243.40 157.05 245.46 160.20 C 245.47 162.91 245.72 165.63 246.51 168.24 C 243.58 167.22 243.90 172.32 246.68 171.01 C 246.48 172.69 246.29 174.38 246.38 176.07 C 248.67 176.18 250.96 175.96 253.25 176.00 C 253.38 176.39 253.64 177.19 253.77 177.59 C 254.73 177.59 255.70 177.55 256.66 177.48 C 257.17 177.35 258.20 177.11 258.71 176.98 C 260.26 180.10 259.96 183.65 259.42 186.98 C 258.83 186.82 257.64 186.50 257.05 186.34 C 256.40 183.38 255.41 180.51 253.79 177.94 C 253.52 181.02 253.79 184.10 254.26 187.15 C 254.03 187.20 253.58 187.31 253.35 187.36 C 253.03 187.01 252.40 186.29 252.08 185.93 C 251.94 184.72 251.84 183.51 251.72 182.29 C 247.13 180.63 244.87 175.87 240.93 173.25 C 243.50 178.45 247.37 182.81 250.91 187.36 C 249.97 187.90 249.04 188.44 248.11 188.99 C 247.03 188.02 245.95 187.06 244.91 186.05 C 241.86 182.39 238.46 179.04 234.91 175.87 C 233.47 178.40 231.17 180.87 231.63 184.00 C 231.65 185.94 232.86 187.53 233.90 189.07 C 235.66 192.51 236.49 196.31 237.10 200.10 C 236.16 199.04 235.22 197.98 234.30 196.93 C 233.80 196.37 232.80 195.25 232.31 194.69 C 231.47 193.75 230.61 192.81 229.76 191.89 C 229.07 196.49 229.31 201.17 228.66 205.77 C 228.10 205.68 226.98 205.51 226.42 205.42 C 226.31 203.89 226.21 202.36 226.13 200.84 C 226.15 199.27 225.45 198.71 224.02 199.15 C 224.58 196.28 225.38 193.46 226.17 190.65 C 226.77 189.20 226.39 188.31 225.01 187.98 C 223.75 188.87 223.63 189.96 224.66 191.27 C 224.15 191.59 223.13 192.23 222.62 192.54 C 221.42 191.59 220.21 190.63 218.99 189.70 C 215.52 186.95 211.31 185.48 207.41 183.48 C 204.78 182.23 204.03 179.14 202.73 176.79 C 204.53 171.90 207.32 167.41 211.06 163.78 C 213.33 163.34 216.42 160.33 218.16 162.88 C 216.62 167.04 213.87 170.69 212.83 175.06 C 213.03 177.44 213.39 179.80 213.71 182.16 C 218.62 183.16 223.37 184.83 227.86 187.07 C 227.19 186.01 226.52 184.96 225.86 183.91 C 229.17 180.36 232.22 176.40 233.53 171.65 C 234.31 163.28 226.29 158.52 219.99 155.03 C 216.65 157.67 213.43 160.46 210.35 163.40 C 210.00 163.19 209.30 162.78 208.95 162.57 C 211.15 159.48 214.06 157.02 217.04 154.70 C 214.22 154.49 211.31 153.84 208.54 154.65 C 205.35 156.05 202.80 158.50 200.17 160.71 C 199.83 160.47 199.17 159.97 198.83 159.72 M 240.94 167.60 C 241.49 167.99 242.60 168.79 243.16 169.18 C 243.50 167.33 243.84 165.48 244.16 163.63 C 243.08 164.95 242.01 166.28 240.94 167.60 M 209.58 168.56 C 207.12 172.03 204.13 176.98 207.73 180.74 C 207.30 181.01 206.42 181.55 205.99 181.82 C 207.15 182.12 208.33 182.43 209.50 182.74 C 208.86 176.61 212.63 171.32 213.79 165.50 C 212.29 166.37 210.58 167.08 209.58 168.56 M 215.24 184.19 C 215.45 187.52 218.20 182.62 215.24 184.19 M 230.29 190.25 C 230.84 190.80 230.84 190.80 230.29 190.25 Z" />
</g>
<g id="#eea882ff">
<path fill="#eea882" opacity="1.00" d=" M 233.03 157.95 C 232.70 155.44 232.70 152.92 232.78 150.40 C 234.09 151.31 235.35 152.27 236.58 153.29 C 236.81 153.50 237.26 153.90 237.49 154.11 C 236.41 156.19 235.32 158.26 234.33 160.39 C 234.01 159.78 233.36 158.56 233.03 157.95 Z" />
</g>
<g id="#3d4040ff">
<path fill="#3d4040" opacity="1.00" d=" M 208.54 154.65 C 211.31 153.84 214.22 154.49 217.04 154.70 C 214.06 157.02 211.15 159.48 208.95 162.57 C 209.30 162.78 210.00 163.19 210.35 163.40 L 211.06 163.78 C 207.32 167.41 204.53 171.90 202.73 176.79 C 202.58 177.16 202.27 177.91 202.12 178.29 C 199.03 176.79 195.23 175.77 193.37 172.63 C 192.64 167.59 196.82 163.80 200.17 160.71 C 202.80 158.50 205.35 156.05 208.54 154.65 Z" />
<path fill="#3d4040" opacity="1.00" d=" M 231.38 234.10 C 232.14 231.38 234.17 229.33 236.12 227.40 C 234.44 229.56 232.84 231.78 231.38 234.10 Z" />
</g>
<g id="#aaa0a1ff">
<path fill="#aaa0a1" opacity="1.00" d=" M 237.49 154.11 C 238.35 154.93 239.20 155.79 240.04 156.65 C 238.19 158.29 236.37 159.96 234.56 161.64 C 234.50 161.33 234.39 160.70 234.33 160.39 C 235.32 158.26 236.41 156.19 237.49 154.11 Z" />
</g>
<g id="#495055ff">
<path fill="#495055" opacity="1.00" d=" M 210.35 163.40 C 213.43 160.46 216.65 157.67 219.99 155.03 C 226.29 158.52 234.31 163.28 233.53 171.65 C 230.83 171.65 228.13 171.60 225.45 171.42 C 225.12 168.94 223.06 167.23 220.53 167.55 C 217.54 169.57 215.30 172.47 212.83 175.06 C 213.87 170.69 216.62 167.04 218.16 162.88 C 216.42 160.33 213.33 163.34 211.06 163.78 L 210.35 163.40 Z" />
</g>
<g id="#827978ff">
<path fill="#827978" opacity="1.00" d=" M 129.01 161.27 C 136.61 160.87 143.56 157.29 151.06 156.26 C 150.39 156.96 149.72 157.66 149.06 158.37 C 151.33 157.94 153.48 157.10 155.39 155.78 C 158.71 155.30 162.02 155.95 165.26 156.65 C 165.49 157.19 165.94 158.27 166.16 158.81 L 166.41 159.42 C 164.94 159.71 163.47 160.01 162.02 160.39 C 161.40 160.55 160.78 160.73 160.16 160.91 C 157.63 159.43 154.76 158.57 151.88 159.59 C 149.31 160.17 146.66 160.96 144.62 162.70 C 143.77 166.52 144.81 170.45 145.79 174.15 C 146.81 176.04 147.99 177.83 149.16 179.63 C 147.41 179.80 145.68 180.03 143.94 180.26 C 143.85 178.21 143.75 176.16 143.48 174.13 C 142.86 170.13 142.20 166.13 141.66 162.11 C 137.23 162.69 132.64 163.37 128.87 165.97 C 127.80 165.85 126.73 165.72 125.66 165.59 C 125.62 164.46 125.63 163.32 125.59 162.19 C 122.99 162.77 120.32 163.71 118.40 165.63 C 116.15 168.70 117.62 172.68 119.56 175.50 C 120.97 176.09 122.40 176.71 123.93 176.91 C 125.54 176.27 126.96 175.25 128.42 174.33 C 132.04 176.17 135.75 177.81 139.60 179.12 C 136.27 179.28 132.96 179.69 129.66 180.17 C 124.66 179.96 119.68 179.47 114.69 179.06 C 114.86 178.64 115.19 177.80 115.36 177.38 C 116.10 172.84 116.02 168.01 114.38 163.67 C 114.18 163.16 113.78 162.14 113.58 161.63 C 114.45 161.56 115.31 161.50 116.18 161.45 C 120.46 161.67 124.73 161.32 129.01 161.27 M 117.52 162.16 C 117.65 163.61 118.30 163.87 119.45 162.95 C 119.30 161.51 118.66 161.25 117.52 162.16 Z" />
</g>
<g id="#f1f0f2ff">
<path fill="#f1f0f2" opacity="1.00" d=" M 151.06 156.26 C 152.50 156.07 153.94 155.91 155.39 155.78 C 153.48 157.10 151.33 157.94 149.06 158.37 C 149.72 157.66 150.39 156.96 151.06 156.26 Z" />
<path fill="#f1f0f2" opacity="1.00" d=" M 262.57 185.86 C 264.02 185.70 266.29 184.47 267.25 186.06 C 267.04 188.49 266.63 190.89 266.21 193.29 C 264.93 190.85 263.66 188.40 262.57 185.86 Z" />
<path fill="#f1f0f2" opacity="1.00" d=" M 199.29 232.49 C 199.85 232.44 200.96 232.32 201.51 232.27 C 201.94 232.76 202.78 233.74 203.21 234.22 C 202.87 234.61 202.18 235.38 201.84 235.77 C 201.04 235.41 200.24 235.06 199.44 234.72 C 199.40 234.16 199.33 233.05 199.29 232.49 Z" />
</g>
<g id="#e1dbe0ff">
<path fill="#e1dbe0" opacity="1.00" d=" M 165.26 156.65 C 168.66 157.19 172.08 157.53 175.50 157.85 C 172.43 158.46 169.31 158.88 166.16 158.81 C 165.94 158.27 165.49 157.19 165.26 156.65 Z" />
<path fill="#e1dbe0" opacity="1.00" d=" M 214.13 192.35 C 216.75 195.15 219.67 197.67 222.80 199.88 C 219.43 200.94 216.39 202.80 213.70 205.07 C 212.98 204.49 212.26 203.90 211.55 203.30 C 209.49 201.75 207.90 199.70 206.84 197.36 C 208.64 197.72 210.43 198.12 212.22 198.54 C 213.15 196.57 213.80 194.50 214.13 192.35 Z" />
</g>
<g id="#675d5bff">
<path fill="#675d5b" opacity="1.00" d=" M 166.16 158.81 C 169.31 158.88 172.43 158.46 175.50 157.85 C 178.58 157.83 181.54 158.90 183.52 161.33 C 180.48 161.43 177.44 161.66 174.40 161.71 C 172.79 161.70 171.18 161.65 169.58 161.62 C 168.87 165.10 168.23 168.63 168.36 172.21 C 168.39 173.52 168.47 174.84 168.54 176.16 C 165.33 182.10 163.67 188.69 161.37 195.01 C 160.65 191.40 161.59 187.72 163.64 184.71 C 160.43 184.23 157.23 183.70 154.02 183.28 C 155.41 182.21 156.80 181.13 158.09 179.94 C 158.65 177.39 159.00 174.81 159.61 172.27 L 159.86 171.54 L 160.35 172.26 C 160.77 174.78 161.05 177.32 161.35 179.86 C 162.09 180.05 163.57 180.44 164.31 180.63 C 164.60 179.22 164.88 177.82 165.17 176.42 C 165.88 170.84 169.03 164.92 166.41 159.42 L 166.16 158.81 Z" />
</g>
<g id="#a89791ff">
<path fill="#a89791" opacity="1.00" d=" M 151.88 159.59 C 154.76 158.57 157.63 159.43 160.16 160.91 C 160.78 160.73 161.40 160.55 162.02 160.39 C 161.94 164.20 161.41 168.02 159.86 171.54 L 159.61 172.27 C 158.81 168.21 158.24 164.11 157.74 160.01 C 155.79 159.84 153.84 159.67 151.88 159.59 Z" />
</g>
<g id="#d4c8c2ff">
<path fill="#d4c8c2" opacity="1.00" d=" M 162.02 160.39 C 163.47 160.01 164.94 159.71 166.41 159.42 C 169.03 164.92 165.88 170.84 165.17 176.42 C 163.53 175.07 161.89 173.72 160.35 172.26 L 159.86 171.54 C 161.41 168.02 161.94 164.20 162.02 160.39 Z" />
</g>
<g id="#492f20ff">
<path fill="#492f20" opacity="1.00" d=" M 187.10 161.23 C 190.35 159.32 194.14 158.98 197.71 160.20 C 194.95 161.83 192.06 163.24 189.05 164.34 C 187.31 165.04 185.58 165.77 183.94 166.67 C 182.86 167.46 181.82 168.31 180.81 169.19 C 179.73 170.82 178.79 172.55 178.00 174.34 C 177.15 176.38 176.53 178.51 176.03 180.67 C 175.65 182.25 175.31 183.86 175.04 185.47 C 174.77 186.96 174.50 188.44 174.19 189.92 C 172.72 193.13 171.15 196.42 168.65 198.97 C 166.47 198.94 164.32 198.55 162.17 198.27 C 161.97 197.46 161.57 195.82 161.37 195.01 C 163.67 188.69 165.33 182.10 168.54 176.16 C 170.77 176.15 173.00 176.16 175.24 176.16 C 175.99 173.40 175.81 170.54 175.96 167.72 C 179.69 165.59 183.72 163.96 187.10 161.23 Z" />
</g>
<g id="#62463dff">
<path fill="#62463d" opacity="1.00" d=" M 101.85 161.89 C 106.07 158.44 111.52 159.97 116.18 161.45 C 115.31 161.50 114.45 161.56 113.58 161.63 C 113.78 162.14 114.18 163.16 114.38 163.67 C 113.62 164.80 112.85 165.93 112.09 167.06 C 109.39 166.68 106.68 166.35 103.97 166.06 C 104.06 168.18 104.16 170.31 104.26 172.44 C 107.15 172.59 110.03 172.74 112.92 172.91 C 113.67 174.43 114.52 175.90 115.36 177.38 C 115.19 177.80 114.86 178.64 114.69 179.06 C 113.41 178.09 112.27 176.85 110.75 176.27 C 107.89 176.02 105.09 176.86 102.31 177.39 C 101.54 175.70 100.79 173.99 100.25 172.21 C 101.13 172.27 102.01 172.32 102.89 172.38 C 102.61 170.45 102.32 168.52 102.03 166.59 C 101.58 166.64 100.68 166.75 100.23 166.81 C 100.67 165.14 101.27 163.52 101.85 161.89 Z" />
</g>
<g id="#d6cbc5ff">
<path fill="#d6cbc5" opacity="1.00" d=" M 144.62 162.70 C 146.66 160.96 149.31 160.17 151.88 159.59 C 153.84 159.67 155.79 159.84 157.74 160.01 C 158.24 164.11 158.81 168.21 159.61 172.27 C 157.86 174.09 156.19 175.97 154.55 177.90 C 151.57 176.79 148.64 175.55 145.79 174.15 C 144.81 170.45 143.77 166.52 144.62 162.70 Z" />
</g>
<g id="#706c6bff">
<path fill="#706c6b" opacity="1.00" d=" M 245.46 160.20 C 248.17 164.82 250.75 169.52 253.28 174.24 C 253.27 174.68 253.26 175.56 253.25 176.00 C 250.96 175.96 248.67 176.18 246.38 176.07 C 246.29 174.38 246.48 172.69 246.68 171.01 C 246.64 170.32 246.55 168.93 246.51 168.24 C 245.72 165.63 245.47 162.91 245.46 160.20 Z" />
</g>
<g id="#d7ccc4ff">
<path fill="#d7ccc4" opacity="1.00" d=" M 169.58 161.62 C 171.18 161.65 172.79 161.70 174.40 161.71 C 174.09 164.17 174.02 166.74 172.95 169.02 C 171.72 170.45 169.95 171.25 168.36 172.21 C 168.23 168.63 168.87 165.10 169.58 161.62 Z" />
</g>
<g id="#b9aaa4ff">
<path fill="#b9aaa4" opacity="1.00" d=" M 174.40 161.71 C 177.44 161.66 180.48 161.43 183.52 161.33 C 184.71 161.31 185.90 161.28 187.10 161.23 C 183.72 163.96 179.69 165.59 175.96 167.72 C 175.81 170.54 175.99 173.40 175.24 176.16 C 173.00 176.16 170.77 176.15 168.54 176.16 C 168.47 174.84 168.39 173.52 168.36 172.21 C 169.95 171.25 171.72 170.45 172.95 169.02 C 174.02 166.74 174.09 164.17 174.40 161.71 Z" />
<path fill="#b9aaa4" opacity="1.00" d=" M 180.81 169.19 C 181.82 168.31 182.86 167.46 183.94 166.67 C 184.06 167.61 184.17 168.56 184.29 169.52 C 185.20 169.58 186.11 169.65 187.02 169.73 C 185.95 171.59 184.88 173.46 183.81 175.34 C 182.79 173.29 181.79 171.25 180.81 169.19 Z" />
</g>
<g id="#bebab7f8">
<path fill="#bebab7" opacity="0.97" d=" M 117.52 162.16 C 118.66 161.25 119.30 161.51 119.45 162.95 C 118.30 163.87 117.65 163.61 117.52 162.16 Z" />
</g>
<g id="#d3c9c4ff">
<path fill="#d3c9c4" opacity="1.00" d=" M 118.40 165.63 C 120.32 163.71 122.99 162.77 125.59 162.19 C 125.63 163.32 125.62 164.46 125.66 165.59 C 125.75 168.57 125.96 171.54 126.14 174.52 C 123.94 174.83 121.75 175.15 119.56 175.50 C 117.62 172.68 116.15 168.70 118.40 165.63 Z" />
<path fill="#d3c9c4" opacity="1.00" d=" M 232.57 216.80 C 233.43 215.94 234.29 215.09 235.17 214.26 C 235.08 214.69 234.90 215.54 234.81 215.97 C 232.94 221.77 226.23 223.24 220.86 223.11 C 224.30 220.12 229.74 220.75 232.57 216.80 Z" />
</g>
<g id="#d1c6c1ff">
<path fill="#d1c6c1" opacity="1.00" d=" M 128.87 165.97 C 132.64 163.37 137.23 162.69 141.66 162.11 C 142.20 166.13 142.86 170.13 143.48 174.13 C 140.58 178.20 135.57 176.55 131.55 175.62 C 130.71 172.39 129.82 169.17 128.87 165.97 Z" />
</g>
<g id="#cfc5bcff">
<path fill="#cfc5bc" opacity="1.00" d=" M 114.38 163.67 C 116.02 168.01 116.10 172.84 115.36 177.38 C 114.52 175.90 113.67 174.43 112.92 172.91 C 112.55 170.97 112.33 169.01 112.09 167.06 C 112.85 165.93 113.62 164.80 114.38 163.67 Z" />
</g>
<g id="#6f605aff">
<path fill="#6f605a" opacity="1.00" d=" M 183.94 166.67 C 185.58 165.77 187.31 165.04 189.05 164.34 C 190.31 164.66 191.57 164.98 192.84 165.30 C 191.57 167.52 190.26 169.73 188.85 171.87 C 185.69 175.98 184.17 180.98 184.14 186.14 C 183.77 184.70 183.35 183.28 182.93 181.86 C 182.43 182.65 181.94 183.44 181.46 184.24 C 181.52 182.97 179.48 181.14 178.77 182.91 C 178.90 184.23 179.67 184.88 181.08 184.86 C 180.26 186.23 179.45 187.60 178.65 188.96 C 178.09 188.00 177.53 187.04 176.97 186.08 C 176.80 188.15 176.62 190.23 176.58 192.32 C 176.01 190.05 175.47 187.77 175.04 185.47 C 175.31 183.86 175.65 182.25 176.03 180.67 C 178.78 179.43 178.80 176.89 178.00 174.34 C 178.79 172.55 179.73 170.82 180.81 169.19 C 181.79 171.25 182.79 173.29 183.81 175.34 C 184.88 173.46 185.95 171.59 187.02 169.73 C 186.11 169.65 185.20 169.58 184.29 169.52 C 184.17 168.56 184.06 167.61 183.94 166.67 M 180.33 179.15 C 179.80 180.78 180.35 181.33 181.98 180.81 C 182.51 179.17 181.96 178.62 180.33 179.15 Z" />
</g>
<g id="#bdb6b8ff">
<path fill="#bdb6b8" opacity="1.00" d=" M 240.94 167.60 C 242.01 166.28 243.08 164.95 244.16 163.63 C 243.84 165.48 243.50 167.33 243.16 169.18 C 242.60 168.79 241.49 167.99 240.94 167.60 Z" />
</g>
<g id="#a49291ff">
<path fill="#a49291" opacity="1.00" d=" M 125.66 165.59 C 126.73 165.72 127.80 165.85 128.87 165.97 C 129.82 169.17 130.71 172.39 131.55 175.62 C 135.57 176.55 140.58 178.20 143.48 174.13 C 143.75 176.16 143.85 178.21 143.94 180.26 C 145.68 180.03 147.41 179.80 149.16 179.63 C 152.14 179.42 155.13 179.64 158.09 179.94 C 156.80 181.13 155.41 182.21 154.02 183.28 C 147.45 182.39 140.85 181.74 134.29 180.81 C 132.74 180.59 131.20 180.35 129.66 180.17 C 132.96 179.69 136.27 179.28 139.60 179.12 C 135.75 177.81 132.04 176.17 128.42 174.33 C 126.96 175.25 125.54 176.27 123.93 176.91 C 122.40 176.71 120.97 176.09 119.56 175.50 C 121.75 175.15 123.94 174.83 126.14 174.52 C 125.96 171.54 125.75 168.57 125.66 165.59 Z" />
</g>
<g id="#333436ba">
<path fill="#333436" opacity="0.73" d=" M 254.76 165.11 C 256.15 165.59 256.59 166.58 256.07 168.07 C 254.96 167.40 254.52 166.41 254.76 165.11 Z" />
</g>
<g id="#a0817aff">
<path fill="#a0817a" opacity="1.00" d=" M 103.97 166.06 C 106.68 166.35 109.39 166.68 112.09 167.06 C 112.33 169.01 112.55 170.97 112.92 172.91 C 110.03 172.74 107.15 172.59 104.26 172.44 C 104.16 170.31 104.06 168.18 103.97 166.06 Z" />
</g>
<g id="#3b3d3dff">
<path fill="#3b3d3d" opacity="1.00" d=" M 212.83 175.06 C 215.30 172.47 217.54 169.57 220.53 167.55 C 223.06 167.23 225.12 168.94 225.45 171.42 C 228.13 171.60 230.83 171.65 233.53 171.65 C 232.22 176.40 229.17 180.36 225.86 183.91 C 226.52 184.96 227.19 186.01 227.86 187.07 C 223.37 184.83 218.62 183.16 213.71 182.16 C 213.39 179.80 213.03 177.44 212.83 175.06 Z" />
<path fill="#3b3d3d" opacity="1.00" d=" M 281.42 256.59 C 287.36 255.34 292.89 252.41 297.07 247.98 C 297.69 248.30 298.93 248.93 299.55 249.25 C 295.43 253.84 289.86 256.64 284.30 259.08 C 284.21 257.33 283.36 256.76 281.74 257.35 L 281.42 256.59 Z" />
</g>
<g id="#353435cc">
<path fill="#353435" opacity="0.80" d=" M 253.19 166.94 C 254.25 167.76 254.57 168.81 254.15 170.08 C 252.85 169.34 252.53 168.30 253.19 166.94 Z" />
</g>
<g id="#b8b2b6ff">
<path fill="#b8b2b6" opacity="1.00" d=" M 246.68 171.01 C 243.90 172.32 243.58 167.22 246.51 168.24 C 246.55 168.93 246.64 170.32 246.68 171.01 Z" />
</g>
<g id="#2e3236ff">
<path fill="#2e3236" opacity="1.00" d=" M 255.93 168.89 C 257.12 169.91 257.27 170.99 256.36 172.13 C 255.47 171.18 255.33 170.10 255.93 168.89 Z" />
<path fill="#2e3236" opacity="1.00" d=" M 262.31 189.89 C 264.20 195.10 265.20 200.59 265.91 206.08 C 266.39 210.09 267.03 214.20 269.11 217.74 C 269.35 218.15 269.83 218.98 270.06 219.40 C 269.30 219.94 268.57 220.51 267.83 221.09 C 267.69 220.50 267.41 219.34 267.26 218.76 C 266.61 219.15 265.96 219.55 265.32 219.94 C 269.84 234.50 272.01 249.65 276.19 264.29 C 269.67 262.29 262.87 264.61 256.24 263.60 C 246.28 262.58 237.48 256.19 232.44 247.70 C 230.45 243.12 227.49 239.11 223.80 235.76 C 225.65 236.68 227.73 236.75 229.76 236.64 C 230.04 237.45 230.32 238.26 230.61 239.08 C 230.97 240.09 231.36 241.10 231.78 242.10 C 232.28 243.26 232.81 244.41 233.40 245.52 C 238.44 254.83 248.25 261.87 258.99 262.25 C 263.87 262.53 268.38 260.43 272.66 258.33 C 272.18 256.51 271.67 254.70 271.27 252.86 C 270.94 245.23 269.15 237.68 266.09 230.68 C 266.16 233.31 266.30 235.94 266.55 238.56 C 266.29 238.04 265.76 237.01 265.50 236.50 C 264.79 234.82 264.09 233.15 263.46 231.46 C 264.27 227.51 264.31 223.46 264.12 219.45 C 262.92 219.62 261.73 219.80 260.54 219.99 C 260.10 218.42 259.60 216.87 259.03 215.36 C 258.34 213.91 257.52 212.53 256.56 211.25 C 257.26 208.39 256.25 205.74 254.23 203.69 C 254.44 205.82 254.69 207.94 255.16 210.03 C 253.72 208.91 252.23 207.84 250.75 206.76 C 251.76 205.10 252.69 203.40 253.62 201.69 C 252.57 202.56 251.53 203.43 250.54 204.35 C 250.73 201.23 250.83 198.10 251.04 194.98 C 251.77 196.08 252.49 197.19 253.26 198.28 C 254.78 200.47 256.75 202.29 258.78 204.00 C 260.15 203.85 261.52 203.69 262.89 203.54 C 262.28 200.33 261.68 197.11 261.28 193.87 C 261.58 192.53 261.95 191.21 262.31 189.89 M 259.40 207.65 C 260.22 210.91 260.79 214.34 262.66 217.20 C 262.64 214.28 262.28 211.37 262.30 208.45 C 263.59 211.00 264.38 213.76 265.66 216.31 C 265.32 213.35 264.56 210.46 263.93 207.55 C 262.42 207.62 260.91 207.64 259.40 207.65 M 270.22 260.20 C 268.55 260.66 269.30 263.51 270.97 263.14 C 272.62 262.68 271.89 259.78 270.22 260.20 Z" />
</g>
<g id="#181b24fd">
<path fill="#181b24" opacity="1.00" d=" M 254.05 170.83 C 254.77 173.10 255.64 175.32 256.66 177.48 C 255.70 177.55 254.73 177.59 253.77 177.59 C 253.64 177.19 253.38 176.39 253.25 176.00 C 253.26 175.56 253.27 174.68 253.28 174.24 C 253.53 173.10 253.79 171.97 254.05 170.83 Z" />
<path fill="#181b24" opacity="1.00" d=" M 289.92 206.14 C 296.20 208.76 302.02 212.37 308.36 214.85 C 310.95 226.86 307.86 240.09 299.55 249.25 C 298.93 248.93 297.69 248.30 297.07 247.98 C 304.26 240.26 307.92 229.46 307.07 218.96 C 306.77 217.20 306.73 214.91 304.86 214.05 C 300.02 211.15 294.69 209.16 289.92 206.14 Z" />
<path fill="#181b24" opacity="1.00" d=" M 269.24 221.71 C 269.77 222.66 270.30 223.62 270.81 224.60 C 271.32 225.65 271.79 226.72 272.28 227.79 C 273.28 226.35 274.29 224.93 275.34 223.52 C 275.57 224.70 275.86 225.88 276.17 227.05 C 275.07 228.48 274.06 230.03 273.99 231.90 C 274.55 234.29 275.19 236.66 275.76 239.06 C 277.13 245.05 278.30 251.20 281.42 256.59 L 281.74 257.35 C 282.04 258.90 282.89 259.47 284.30 259.08 C 281.98 260.61 280.26 262.82 278.23 264.67 C 278.10 259.50 277.55 254.29 275.79 249.39 C 273.17 240.28 270.78 231.07 269.24 221.71 Z" />
</g>
<g id="#b8ada7ff">
<path fill="#b8ada7" opacity="1.00" d=" M 154.55 177.90 C 156.19 175.97 157.86 174.09 159.61 172.27 C 159.00 174.81 158.65 177.39 158.09 179.94 C 155.13 179.64 152.14 179.42 149.16 179.63 C 147.99 177.83 146.81 176.04 145.79 174.15 C 148.64 175.55 151.57 176.79 154.55 177.90 Z" />
</g>
<g id="#b0a39dff">
<path fill="#b0a39d" opacity="1.00" d=" M 160.35 172.26 C 161.89 173.72 163.53 175.07 165.17 176.42 C 164.88 177.82 164.60 179.22 164.31 180.63 C 163.57 180.44 162.09 180.05 161.35 179.86 C 161.05 177.32 160.77 174.78 160.35 172.26 Z" />
</g>
<g id="#de9b7bff">
<path fill="#de9b7b" opacity="1.00" d=" M 184.14 186.14 C 184.17 180.98 185.69 175.98 188.85 171.87 C 191.00 175.39 193.94 178.33 197.37 180.60 C 196.24 182.52 195.10 184.44 193.97 186.36 C 192.10 189.59 189.67 193.05 190.39 197.00 C 191.09 201.13 191.98 205.32 190.97 209.50 C 189.12 207.84 187.15 206.34 185.31 204.68 C 187.02 200.53 188.38 196.25 189.12 191.83 C 187.09 191.98 184.69 191.42 183.00 192.85 C 182.22 194.15 181.92 195.65 181.57 197.10 C 181.31 195.23 181.10 193.34 180.90 191.46 C 182.44 190.02 184.27 188.47 184.14 186.14 Z" />
</g>
<g id="#232730ff">
<path fill="#232730" opacity="1.00" d=" M 256.89 172.77 C 259.17 175.47 262.53 176.35 265.95 176.37 C 266.74 178.51 266.82 181.14 268.40 182.86 C 270.23 183.21 272.10 183.21 273.95 183.32 C 274.92 188.44 275.31 193.76 277.31 198.61 C 279.75 201.03 283.17 202.05 286.08 203.78 C 283.26 202.69 280.51 201.42 277.71 200.27 C 278.08 202.74 278.47 205.20 278.97 207.65 C 279.42 213.55 283.63 219.96 280.25 225.59 C 279.65 224.09 279.07 222.58 278.50 221.08 C 277.93 222.17 277.34 223.26 276.78 224.36 C 276.47 221.72 275.81 219.13 274.57 216.78 C 275.41 215.59 276.27 214.41 277.08 213.21 C 279.25 210.56 277.65 207.23 276.75 204.43 C 276.28 204.41 275.34 204.35 274.87 204.33 C 273.89 204.30 272.91 204.27 271.93 204.26 C 271.82 203.68 271.59 202.53 271.48 201.96 L 271.63 201.33 C 272.52 201.18 273.40 201.02 274.29 200.86 L 275.30 200.65 C 274.92 197.21 274.20 193.79 273.04 190.52 C 272.65 190.51 271.86 190.49 271.47 190.48 C 270.66 190.46 269.85 190.46 269.05 190.46 C 268.47 188.98 267.90 187.50 267.25 186.06 C 266.29 184.47 264.02 185.70 262.57 185.86 C 262.12 186.39 261.69 186.92 261.26 187.46 C 260.80 187.34 259.88 187.10 259.42 186.98 C 259.96 183.65 260.26 180.10 258.71 176.98 C 258.11 175.57 257.51 174.16 256.89 172.77 M 278.18 216.44 C 277.16 217.38 277.45 219.61 278.92 219.93 C 280.92 219.71 280.18 215.32 278.18 216.44 Z" />
</g>
<g id="#776763ff">
<path fill="#776763" opacity="1.00" d=" M 240.93 173.25 C 244.87 175.87 247.13 180.63 251.72 182.29 C 251.84 183.51 251.94 184.72 252.08 185.93 C 252.49 188.59 253.19 191.19 253.62 193.84 C 253.55 195.32 253.40 196.80 253.26 198.28 C 252.49 197.19 251.77 196.08 251.04 194.98 C 249.02 191.98 246.92 189.05 244.91 186.05 C 245.95 187.06 247.03 188.02 248.11 188.99 C 249.04 188.44 249.97 187.90 250.91 187.36 C 247.37 182.81 243.50 178.45 240.93 173.25 Z" />
</g>
<g id="#a3938cff">
<path fill="#a3938c" opacity="1.00" d=" M 176.03 180.67 C 176.53 178.51 177.15 176.38 178.00 174.34 C 178.80 176.89 178.78 179.43 176.03 180.67 Z" />
</g>
<g id="#000000c3">
<path fill="#000000" opacity="0.76" d=" M 102.31 177.39 C 105.09 176.86 107.89 176.02 110.75 176.27 C 112.27 176.85 113.41 178.09 114.69 179.06 C 119.68 179.47 124.66 179.96 129.66 180.17 C 131.20 180.35 132.74 180.59 134.29 180.81 C 126.44 180.68 118.27 181.10 110.85 178.07 C 108.15 176.88 105.16 177.33 102.31 177.39 Z" />
<path fill="#000000" opacity="0.76" d=" M 231.63 184.00 C 231.17 180.87 233.47 178.40 234.91 175.87 C 238.46 179.04 241.86 182.39 244.91 186.05 C 246.92 189.05 249.02 191.98 251.04 194.98 C 250.83 198.10 250.73 201.23 250.54 204.35 C 248.60 207.77 246.29 210.96 244.32 214.36 C 243.91 211.03 242.78 207.77 240.35 205.37 C 242.29 202.81 241.70 199.57 240.29 196.91 C 238.93 193.75 236.30 191.43 233.90 189.07 C 232.86 187.53 231.65 185.94 231.63 184.00 Z" />
</g>
<g id="#757173ff">
<path fill="#757173" opacity="1.00" d=" M 202.73 176.79 C 204.03 179.14 204.78 182.23 207.41 183.48 C 211.31 185.48 215.52 186.95 218.99 189.70 C 218.61 190.61 218.24 191.52 217.87 192.43 C 214.77 190.43 211.69 188.40 208.53 186.50 C 205.03 183.89 199.83 186.88 198.92 190.78 C 197.76 195.68 195.40 201.12 197.77 206.03 C 199.01 209.25 201.33 211.85 203.71 214.26 C 207.24 211.35 210.24 207.75 211.55 203.30 C 212.26 203.90 212.98 204.49 213.70 205.07 C 214.95 205.02 216.20 204.96 217.45 204.90 C 217.93 206.01 218.41 207.12 218.90 208.23 C 221.31 206.35 222.90 203.74 224.31 201.08 C 224.76 201.02 225.67 200.90 226.13 200.84 C 226.21 202.36 226.31 203.89 226.42 205.42 C 226.98 205.51 228.10 205.68 228.66 205.77 C 229.31 201.17 229.07 196.49 229.76 191.89 C 230.61 192.81 231.47 193.75 232.31 194.69 C 231.26 198.53 231.06 202.54 231.46 206.49 C 233.82 203.85 234.36 200.35 234.30 196.93 C 235.22 197.98 236.16 199.04 237.10 200.10 C 236.49 196.31 235.66 192.51 233.90 189.07 C 236.30 191.43 238.93 193.75 240.29 196.91 C 240.19 198.17 240.05 199.44 239.89 200.70 C 236.53 203.49 234.85 207.59 233.10 211.47 C 234.15 211.69 235.20 211.92 236.26 212.15 C 235.77 213.42 235.31 214.70 234.81 215.97 C 234.90 215.54 235.08 214.69 235.17 214.26 C 234.29 215.09 233.43 215.94 232.57 216.80 C 230.50 216.77 228.44 216.78 226.38 216.80 C 227.20 215.23 228.01 213.66 228.83 212.09 C 223.80 215.35 218.02 216.93 212.42 218.80 C 210.62 222.11 212.71 226.20 213.53 229.59 C 216.56 234.52 222.04 238.91 220.67 245.37 C 215.41 242.61 211.69 237.78 206.73 234.57 C 209.05 243.75 204.04 254.89 194.50 257.36 C 191.25 258.50 188.16 256.58 185.47 254.99 C 187.96 254.36 190.56 254.06 192.93 253.05 C 196.13 251.05 195.52 246.75 195.71 243.53 C 193.66 243.64 191.62 243.76 189.59 243.94 C 188.19 243.48 186.80 242.99 185.42 242.49 C 187.83 241.20 190.18 239.83 192.57 238.53 C 192.71 237.28 192.85 236.03 192.99 234.79 C 193.47 234.44 194.43 233.76 194.91 233.41 C 196.30 237.08 198.15 240.82 197.85 244.85 C 197.37 248.68 195.51 252.13 194.18 255.71 C 198.94 253.01 202.77 248.59 204.16 243.24 C 204.55 240.21 203.66 237.21 203.21 234.22 C 202.78 233.74 201.94 232.76 201.51 232.27 C 201.01 231.70 200.01 230.56 199.51 229.99 C 199.76 229.13 200.02 228.27 200.29 227.43 C 201.56 227.09 202.83 226.75 204.11 226.42 C 207.71 230.72 211.47 235.16 216.79 237.36 C 212.54 231.81 210.67 225.03 207.25 219.04 C 206.92 219.50 206.26 220.40 205.93 220.85 C 204.92 222.24 203.95 223.66 203.00 225.08 C 202.36 224.36 201.71 223.65 201.05 222.94 C 199.49 221.25 197.84 219.64 196.15 218.08 C 197.70 218.41 199.25 218.73 200.81 219.06 C 197.20 216.22 194.03 212.90 190.97 209.50 C 191.98 205.32 191.09 201.13 190.39 197.00 C 189.67 193.05 192.10 189.59 193.97 186.36 C 195.67 185.77 197.49 185.31 198.94 184.18 C 200.49 182.53 201.21 180.31 202.12 178.29 C 202.27 177.91 202.58 177.16 202.73 176.79 M 216.35 214.16 C 215.93 215.56 216.41 216.04 217.81 215.63 C 218.23 214.23 217.75 213.74 216.35 214.16 M 207.37 216.08 C 205.42 216.53 206.29 219.52 208.16 218.98 C 210.11 218.60 209.28 215.34 207.37 216.08 Z" />
</g>
<g id="#b9aaa3ff">
<path fill="#b9aaa3" opacity="1.00" d=" M 180.33 179.15 C 181.96 178.62 182.51 179.17 181.98 180.81 C 180.35 181.33 179.80 180.78 180.33 179.15 Z" />
</g>
<g id="#464950ff">
<path fill="#464950" opacity="1.00" d=" M 254.26 187.15 C 253.79 184.10 253.52 181.02 253.79 177.94 C 255.41 180.51 256.40 183.38 257.05 186.34 C 256.12 186.61 255.19 186.88 254.26 187.15 Z" />
</g>
<g id="#a79992ff">
<path fill="#a79992" opacity="1.00" d=" M 178.77 182.91 C 179.48 181.14 181.52 182.97 181.46 184.24 L 181.08 184.86 C 179.67 184.88 178.90 184.23 178.77 182.91 Z" />
</g>
<g id="#584945ff">
<path fill="#584945" opacity="1.00" d=" M 181.46 184.24 C 181.94 183.44 182.43 182.65 182.93 181.86 C 183.35 183.28 183.77 184.70 184.14 186.14 C 184.27 188.47 182.44 190.02 180.90 191.46 C 179.58 192.64 178.18 193.75 176.80 194.86 C 176.71 194.01 176.64 193.16 176.58 192.32 C 176.62 190.23 176.80 188.15 176.97 186.08 C 177.53 187.04 178.09 188.00 178.65 188.96 C 179.45 187.60 180.26 186.23 181.08 184.86 L 181.46 184.24 Z" />
</g>
<g id="#eee4e4ff">
<path fill="#eee4e4" opacity="1.00" d=" M 215.24 184.19 C 218.20 182.62 215.45 187.52 215.24 184.19 Z" />
</g>
<g id="#a09ea0ff">
<path fill="#a09ea0" opacity="1.00" d=" M 198.92 190.78 C 199.83 186.88 205.03 183.89 208.53 186.50 C 211.69 188.40 214.77 190.43 217.87 192.43 C 218.24 191.52 218.61 190.61 218.99 189.70 C 220.21 190.63 221.42 191.59 222.62 192.54 C 223.13 192.23 224.15 191.59 224.66 191.27 C 225.04 191.12 225.79 190.81 226.17 190.65 C 225.38 193.46 224.58 196.28 224.02 199.15 C 224.09 199.63 224.24 200.60 224.31 201.08 C 222.90 203.74 221.31 206.35 218.90 208.23 C 218.41 207.12 217.93 206.01 217.45 204.90 C 216.20 204.96 214.95 205.02 213.70 205.07 C 216.39 202.80 219.43 200.94 222.80 199.88 C 219.67 197.67 216.75 195.15 214.13 192.35 C 213.80 194.50 213.15 196.57 212.22 198.54 C 210.43 198.12 208.64 197.72 206.84 197.36 C 207.90 199.70 209.49 201.75 211.55 203.30 C 210.24 207.75 207.24 211.35 203.71 214.26 C 201.33 211.85 199.01 209.25 197.77 206.03 C 195.40 201.12 197.76 195.68 198.92 190.78 Z" />
</g>
<g id="#c5b9b2ff">
<path fill="#c5b9b2" opacity="1.00" d=" M 174.19 189.92 C 174.50 188.44 174.77 186.96 175.04 185.47 C 175.47 187.77 176.01 190.05 176.58 192.32 C 175.87 192.31 174.45 192.29 173.74 192.29 C 173.86 191.70 174.08 190.51 174.19 189.92 Z" />
<path fill="#c5b9b2" opacity="1.00" d=" M 193.05 220.62 C 195.78 221.12 198.54 221.69 201.05 222.94 C 201.71 223.65 202.36 224.36 203.00 225.08 C 203.95 223.66 204.92 222.24 205.93 220.85 C 205.84 224.78 207.16 228.63 210.04 231.36 C 209.78 227.13 208.74 223.00 207.25 219.04 C 210.67 225.03 212.54 231.81 216.79 237.36 C 211.47 235.16 207.71 230.72 204.11 226.42 C 202.83 226.75 201.56 227.09 200.29 227.43 C 199.10 226.99 197.92 226.57 196.74 226.15 C 195.14 229.78 193.66 234.54 188.92 234.75 C 190.69 231.95 192.90 229.40 194.29 226.38 C 195.25 224.39 193.94 222.34 193.05 220.62 Z" />
</g>
<g id="#cac9ccff">
<path fill="#cac9cc" opacity="1.00" d=" M 261.26 187.46 C 261.69 186.92 262.12 186.39 262.57 185.86 C 263.66 188.40 264.93 190.85 266.21 193.29 C 267.54 196.00 267.96 199.03 267.90 202.02 C 267.55 203.39 267.14 204.76 266.69 206.12 L 265.91 206.08 C 265.20 200.59 264.20 195.10 262.31 189.89 C 262.04 189.28 261.52 188.06 261.26 187.46 Z" />
<path fill="#cac9cc" opacity="1.00" d=" M 271.47 190.48 C 271.86 190.49 272.65 190.51 273.04 190.52 C 274.20 193.79 274.92 197.21 275.30 200.65 L 274.29 200.86 C 273.02 197.50 272.06 194.02 271.47 190.48 Z" />
<path fill="#cac9cc" opacity="1.00" d=" M 268.81 191.28 C 270.87 193.90 270.90 197.32 271.07 200.49 C 269.20 197.78 268.06 194.59 268.81 191.28 Z" />
<path fill="#cac9cc" opacity="1.00" d=" M 259.66 193.16 C 260.07 193.34 260.88 193.69 261.28 193.87 C 261.68 197.11 262.28 200.33 262.89 203.54 C 261.52 203.69 260.15 203.85 258.78 204.00 C 257.95 200.52 257.14 197.02 256.98 193.43 C 258.61 196.46 259.31 199.88 260.88 202.93 C 261.20 199.64 260.05 196.41 259.66 193.16 Z" />
</g>
<g id="#585554fd">
<path fill="#585554" opacity="1.00" d=" M 267.25 186.06 C 267.90 187.50 268.47 188.98 269.05 190.46 C 269.85 190.46 270.66 190.46 271.47 190.48 C 272.06 194.02 273.02 197.50 274.29 200.86 C 273.40 201.02 272.52 201.18 271.63 201.33 C 270.39 201.55 269.14 201.79 267.90 202.02 C 267.96 199.03 267.54 196.00 266.21 193.29 C 266.63 190.89 267.04 188.49 267.25 186.06 M 268.81 191.28 C 268.06 194.59 269.20 197.78 271.07 200.49 C 270.90 197.32 270.87 193.90 268.81 191.28 Z" />
<path fill="#585554" opacity="1.00" d=" M 240.29 196.91 C 241.70 199.57 242.29 202.81 240.35 205.37 C 238.84 207.53 237.20 209.66 236.26 212.15 C 235.20 211.92 234.15 211.69 233.10 211.47 C 234.85 207.59 236.53 203.49 239.89 200.70 C 240.05 199.44 240.19 198.17 240.29 196.91 Z" />
</g>
<g id="#5f5b59ff">
<path fill="#5f5b59" opacity="1.00" d=" M 224.66 191.27 C 223.63 189.96 223.75 188.87 225.01 187.98 C 226.39 188.31 226.77 189.20 226.17 190.65 C 225.79 190.81 225.04 191.12 224.66 191.27 Z" />
</g>
<g id="#71686dff">
<path fill="#71686d" opacity="1.00" d=" M 168.65 198.97 C 171.15 196.42 172.72 193.13 174.19 189.92 C 174.08 190.51 173.86 191.70 173.74 192.29 C 174.45 192.29 175.87 192.31 176.58 192.32 C 176.64 193.16 176.71 194.01 176.80 194.86 C 178.18 193.75 179.58 192.64 180.90 191.46 C 181.10 193.34 181.31 195.23 181.57 197.10 C 181.64 197.57 181.78 198.49 181.85 198.95 C 180.18 199.69 178.51 200.42 176.84 201.17 L 176.33 200.71 C 174.92 199.57 173.45 198.52 171.98 197.46 C 172.30 198.70 172.62 199.94 172.90 201.20 C 171.03 200.88 169.17 200.56 167.29 200.40 C 166.03 200.64 164.80 200.95 163.55 201.22 C 161.77 201.58 159.96 201.77 158.15 201.89 C 157.62 201.93 156.56 202.00 156.03 202.03 C 158.07 200.77 160.15 199.57 162.17 198.27 C 164.32 198.55 166.47 198.94 168.65 198.97 Z" />
</g>
<g id="#fffffaff">
<path fill="#fffffa" opacity="1.00" d=" M 230.29 190.25 C 230.84 190.80 230.84 190.80 230.29 190.25 Z" />
</g>
<g id="#fab48dff">
<path fill="#fab48d" opacity="1.00" d=" M 183.00 192.85 C 184.69 191.42 187.09 191.98 189.12 191.83 C 188.38 196.25 187.02 200.53 185.31 204.68 C 183.87 202.95 182.80 200.97 181.85 198.95 C 181.78 198.49 181.64 197.57 181.57 197.10 C 181.92 195.65 182.22 194.15 183.00 192.85 Z" />
</g>
<g id="#3f3d3fff">
<path fill="#3f3d3f" opacity="1.00" d=" M 253.62 193.84 C 255.63 193.56 257.64 193.29 259.66 193.16 C 260.05 196.41 261.20 199.64 260.88 202.93 C 259.31 199.88 258.61 196.46 256.98 193.43 C 257.14 197.02 257.95 200.52 258.78 204.00 C 256.75 202.29 254.78 200.47 253.26 198.28 C 253.40 196.80 253.55 195.32 253.62 193.84 Z" />
</g>
<g id="#4f4b4cff">
<path fill="#4f4b4c" opacity="1.00" d=" M 231.46 206.49 C 231.06 202.54 231.26 198.53 232.31 194.69 C 232.80 195.25 233.80 196.37 234.30 196.93 C 234.36 200.35 233.82 203.85 231.46 206.49 Z" />
</g>
<g id="#fdfbfaff">
<path fill="#fdfbfa" opacity="1.00" d=" M 171.98 197.46 C 173.45 198.52 174.92 199.57 176.33 200.71 C 174.29 205.35 170.92 209.22 166.79 212.12 C 166.89 211.61 167.08 210.59 167.18 210.08 C 167.41 209.76 167.86 209.13 168.09 208.81 C 169.89 206.41 171.66 203.95 172.90 201.20 C 172.62 199.94 172.30 198.70 171.98 197.46 Z" />
<path fill="#fdfbfa" opacity="1.00" d=" M 166.98 216.35 C 169.27 212.11 172.36 208.20 176.55 205.71 C 180.20 211.11 185.74 214.70 190.41 219.12 C 191.27 219.65 192.15 220.14 193.05 220.62 C 193.94 222.34 195.25 224.39 194.29 226.38 C 192.90 229.40 190.69 231.95 188.92 234.75 C 193.66 234.54 195.14 229.78 196.74 226.15 C 197.92 226.57 199.10 226.99 200.29 227.43 C 200.02 228.27 199.76 229.13 199.51 229.99 C 197.95 231.10 196.42 232.25 194.91 233.41 C 194.43 233.76 193.47 234.44 192.99 234.79 C 191.91 235.35 190.80 235.87 189.70 236.40 C 189.60 237.09 189.50 237.77 189.41 238.46 C 184.63 236.51 179.53 235.59 174.55 234.31 C 176.05 232.68 177.56 231.08 179.11 229.49 C 177.17 230.13 175.22 230.74 173.26 231.32 C 172.93 229.14 172.63 226.95 172.33 224.76 C 171.61 226.58 170.87 228.39 170.13 230.21 C 169.49 228.87 168.76 227.55 168.36 226.12 C 168.75 224.46 169.70 223.02 170.47 221.53 C 169.44 222.10 168.42 222.67 167.40 223.24 C 167.06 220.99 165.78 218.52 166.98 216.35 Z" />
</g>
<g id="#858286ff">
<path fill="#858286" opacity="1.00" d=" M 176.84 201.17 C 178.51 200.42 180.18 199.69 181.85 198.95 C 182.80 200.97 183.87 202.95 185.31 204.68 C 187.15 206.34 189.12 207.84 190.97 209.50 C 194.03 212.90 197.20 216.22 200.81 219.06 C 199.25 218.73 197.70 218.41 196.15 218.08 C 197.84 219.64 199.49 221.25 201.05 222.94 C 198.54 221.69 195.78 221.12 193.05 220.62 C 192.15 220.14 191.27 219.65 190.41 219.12 C 190.91 217.56 191.51 216.01 191.68 214.38 C 188.97 210.93 184.91 207.92 180.29 209.13 C 179.18 206.45 178.16 203.74 176.84 201.17 Z" />
<path fill="#858286" opacity="1.00" d=" M 260.54 219.99 C 261.73 219.80 262.92 219.62 264.12 219.45 C 264.31 223.46 264.27 227.51 263.46 231.46 C 262.12 227.73 261.50 223.81 260.54 219.99 Z" />
</g>
<g id="#e5dcd2ff">
<path fill="#e5dcd2" opacity="1.00" d=" M 224.02 199.15 C 225.45 198.71 226.15 199.27 226.13 200.84 C 225.67 200.90 224.76 201.02 224.31 201.08 C 224.24 200.60 224.09 199.63 224.02 199.15 Z" />
</g>
<g id="#c5bfc4ff">
<path fill="#c5bfc4" opacity="1.00" d=" M 163.55 201.22 C 164.80 200.95 166.03 200.64 167.29 200.40 C 167.37 201.69 167.44 202.98 167.51 204.28 C 166.54 204.46 165.56 204.64 164.59 204.83 C 164.33 203.92 163.81 202.12 163.55 201.22 Z" />
<path fill="#c5bfc4" opacity="1.00" d=" M 270.22 260.20 C 271.89 259.78 272.62 262.68 270.97 263.14 C 269.30 263.51 268.55 260.66 270.22 260.20 Z" />
</g>
<g id="#afa9afff">
<path fill="#afa9af" opacity="1.00" d=" M 167.29 200.40 C 169.17 200.56 171.03 200.88 172.90 201.20 C 171.66 203.95 169.89 206.41 168.09 208.81 C 166.63 208.61 165.18 208.42 163.72 208.23 C 163.53 206.98 163.35 205.74 163.16 204.50 C 161.04 207.57 158.04 209.81 154.89 211.73 C 156.66 211.98 158.45 212.22 160.23 212.49 C 157.33 212.15 154.54 213.07 151.79 213.84 C 150.53 214.18 149.27 214.52 148.01 214.85 C 150.45 209.84 154.39 205.90 158.15 201.89 C 159.96 201.77 161.77 201.58 163.55 201.22 C 163.81 202.12 164.33 203.92 164.59 204.83 C 165.56 204.64 166.54 204.46 167.51 204.28 C 167.44 202.98 167.37 201.69 167.29 200.40 Z" />
</g>
<g id="#b9b3afff">
<path fill="#b9b3af" opacity="1.00" d=" M 176.33 200.71 L 176.84 201.17 C 178.16 203.74 179.18 206.45 180.29 209.13 C 184.91 207.92 188.97 210.93 191.68 214.38 C 191.51 216.01 190.91 217.56 190.41 219.12 C 185.74 214.70 180.20 211.11 176.55 205.71 C 172.36 208.20 169.27 212.11 166.98 216.35 C 165.78 218.52 167.06 220.99 167.40 223.24 C 168.42 222.67 169.44 222.10 170.47 221.53 C 169.70 223.02 168.75 224.46 168.36 226.12 C 168.76 227.55 169.49 228.87 170.13 230.21 C 170.87 228.39 171.61 226.58 172.33 224.76 C 172.63 226.95 172.93 229.14 173.26 231.32 C 170.87 231.52 168.47 231.77 166.08 232.03 C 164.99 227.93 164.38 223.70 164.58 219.45 C 164.11 219.53 163.17 219.69 162.70 219.78 C 163.75 216.36 164.85 212.88 167.18 210.08 C 167.08 210.59 166.89 211.61 166.79 212.12 C 170.92 209.22 174.29 205.35 176.33 200.71 Z" />
</g>
<g id="#fbfafbff">
<path fill="#fbfafb" opacity="1.00" d=" M 267.90 202.02 C 269.14 201.79 270.39 201.55 271.63 201.33 L 271.48 201.96 C 271.09 203.19 270.68 204.42 270.32 205.67 L 270.13 206.41 C 268.98 206.30 267.84 206.19 266.69 206.12 C 267.14 204.76 267.55 203.39 267.90 202.02 Z" />
</g>
<g id="#979296fe">
<path fill="#979296" opacity="1.00" d=" M 149.02 208.11 C 150.99 205.70 153.32 203.57 156.03 202.03 C 156.56 202.00 157.62 201.93 158.15 201.89 C 154.39 205.90 150.45 209.84 148.01 214.85 C 149.27 214.52 150.53 214.18 151.79 213.84 C 151.45 214.83 151.12 215.83 150.81 216.83 C 150.11 219.06 149.59 221.34 149.12 223.62 C 148.23 222.43 147.37 221.23 146.54 220.01 C 146.77 215.95 147.39 211.86 149.02 208.11 Z" />
</g>
<g id="#716e74fe">
<path fill="#716e74" opacity="1.00" d=" M 250.54 204.35 C 251.53 203.43 252.57 202.56 253.62 201.69 C 252.69 203.40 251.76 205.10 250.75 206.76 C 248.89 209.75 246.72 212.52 244.44 215.21 L 244.32 214.36 C 246.29 210.96 248.60 207.77 250.54 204.35 Z" />
<path fill="#716e74" opacity="1.00" d=" M 154.89 211.73 C 158.04 209.81 161.04 207.57 163.16 204.50 C 163.35 205.74 163.53 206.98 163.72 208.23 C 165.18 208.42 166.63 208.61 168.09 208.81 C 167.86 209.13 167.41 209.76 167.18 210.08 C 164.85 212.88 163.75 216.36 162.70 219.78 C 161.80 221.26 160.76 222.64 159.75 224.05 C 159.87 223.55 160.11 222.55 160.23 222.05 C 160.75 220.00 161.40 217.98 161.73 215.89 C 161.81 214.75 161.95 212.32 160.23 212.49 C 158.45 212.22 156.66 211.98 154.89 211.73 Z" />
</g>
<g id="#6a696bff">
<path fill="#6a696b" opacity="1.00" d=" M 270.32 205.67 C 270.68 204.42 271.09 203.19 271.48 201.96 C 271.59 202.53 271.82 203.68 271.93 204.26 C 272.91 204.27 273.89 204.30 274.87 204.33 C 275.46 207.32 276.20 210.28 277.08 213.21 C 276.27 214.41 275.41 215.59 274.57 216.78 C 273.46 214.70 273.54 212.31 273.60 210.04 C 273.43 210.54 273.08 211.56 272.90 212.07 C 272.06 209.93 271.20 207.79 270.32 205.67 Z" />
</g>
<g id="#5d4136fd">
<path fill="#5d4136" opacity="1.00" d=" M 254.23 203.69 C 256.25 205.74 257.26 208.39 256.56 211.25 C 256.21 210.95 255.51 210.34 255.16 210.03 C 254.69 207.94 254.44 205.82 254.23 203.69 Z" />
</g>
<g id="#a3a2a5ff">
<path fill="#a3a2a5" opacity="1.00" d=" M 274.87 204.33 C 275.34 204.35 276.28 204.41 276.75 204.43 C 277.65 207.23 279.25 210.56 277.08 213.21 C 276.20 210.28 275.46 207.32 274.87 204.33 Z" />
</g>
<g id="#00000015">
</g>
<g id="#9f9ea1ff">
<path fill="#9f9ea1" opacity="1.00" d=" M 265.91 206.08 L 266.69 206.12 C 267.84 206.19 268.98 206.30 270.13 206.41 C 270.13 209.16 270.66 211.88 271.19 214.57 C 270.45 215.59 269.75 216.64 269.11 217.74 C 267.03 214.20 266.39 210.09 265.91 206.08 Z" />
</g>
<g id="#4a4a4cff">
<path fill="#4a4a4c" opacity="1.00" d=" M 270.13 206.41 L 270.32 205.67 C 271.20 207.79 272.06 209.93 272.90 212.07 C 272.36 212.92 271.79 213.75 271.19 214.57 C 270.66 211.88 270.13 209.16 270.13 206.41 Z" />
</g>
<g id="#000000bf">
<path fill="#000000" opacity="0.75" d=" M 250.75 206.76 C 252.23 207.84 253.72 208.91 255.16 210.03 C 255.51 210.34 256.21 210.95 256.56 211.25 C 257.52 212.53 258.34 213.91 259.03 215.36 C 257.38 217.89 254.38 220.36 255.31 223.72 C 256.48 229.50 257.49 235.36 259.31 240.98 C 261.27 241.28 263.26 241.23 265.23 241.27 C 265.34 239.68 265.43 238.08 265.50 236.50 C 265.76 237.01 266.29 238.04 266.55 238.56 C 267.92 243.06 268.60 247.77 270.50 252.10 C 267.45 249.68 266.98 245.60 265.78 242.15 C 262.94 243.39 260.29 245.00 257.86 246.92 C 249.72 246.09 241.52 246.74 233.40 245.52 C 232.81 244.41 232.28 243.26 231.78 242.10 C 236.41 243.59 241.06 245.59 246.02 245.39 C 248.92 245.31 251.42 243.64 253.91 242.33 C 249.20 234.85 248.55 225.86 244.94 217.92 C 244.75 217.02 244.58 216.11 244.44 215.21 C 246.72 212.52 248.89 209.75 250.75 206.76 Z" />
</g>
<g id="#302f318e">
<path fill="#302f31" opacity="0.56" d=" M 146.54 220.01 C 145.64 215.92 146.05 211.29 149.02 208.11 C 147.39 211.86 146.77 215.95 146.54 220.01 Z" />
</g>
<g id="#0101014c">
</g>
<g id="#fdfcfdff">
<path fill="#fdfcfd" opacity="1.00" d=" M 272.90 212.07 C 273.08 211.56 273.43 210.54 273.60 210.04 C 273.54 212.31 273.46 214.70 274.57 216.78 C 275.81 219.13 276.47 221.72 276.78 224.36 C 276.63 225.03 276.32 226.38 276.17 227.05 C 275.86 225.88 275.57 224.70 275.34 223.52 C 274.93 221.49 274.61 219.43 274.29 217.39 C 273.15 217.91 272.02 218.44 270.89 218.99 L 270.06 219.40 C 269.83 218.98 269.35 218.15 269.11 217.74 C 269.75 216.64 270.45 215.59 271.19 214.57 C 271.79 213.75 272.36 212.92 272.90 212.07 Z" />
</g>
<g id="#625c5aff">
<path fill="#625c5a" opacity="1.00" d=" M 212.42 218.80 C 218.02 216.93 223.80 215.35 228.83 212.09 C 228.01 213.66 227.20 215.23 226.38 216.80 C 228.44 216.78 230.50 216.77 232.57 216.80 C 229.74 220.75 224.30 220.12 220.86 223.11 C 219.84 223.93 218.84 224.77 217.85 225.61 C 216.35 226.87 214.90 228.19 213.53 229.59 C 212.71 226.20 210.62 222.11 212.42 218.80 Z" />
</g>
<g id="#bdb4b3ff">
<path fill="#bdb4b3" opacity="1.00" d=" M 216.35 214.16 C 217.75 213.74 218.23 214.23 217.81 215.63 C 216.41 216.04 215.93 215.56 216.35 214.16 Z" />
</g>
<g id="#ffffffff">
<path fill="#ffffff" opacity="1.00" d=" M 207.37 216.08 C 209.28 215.34 210.11 218.60 208.16 218.98 C 206.29 219.52 205.42 216.53 207.37 216.08 Z" />
</g>
<g id="#2c292983">
<path fill="#2c2929" opacity="0.51" d=" M 149.12 223.62 C 149.59 221.34 150.11 219.06 150.81 216.83 C 150.20 219.14 152.02 222.92 149.57 224.21 L 149.12 223.62 Z" />
</g>
<g id="#21222458">
<path fill="#212224" opacity="0.35" d=" M 240.97 221.26 C 239.35 219.41 241.07 216.63 243.43 217.68 C 242.64 218.90 241.84 220.10 240.97 221.26 Z" />
</g>
<g id="#525359f8">
<path fill="#525359" opacity="0.97" d=" M 270.89 218.99 C 272.02 218.44 273.15 217.91 274.29 217.39 C 274.61 219.43 274.93 221.49 275.34 223.52 C 274.29 224.93 273.28 226.35 272.28 227.79 C 271.79 226.72 271.32 225.65 270.81 224.60 C 271.18 223.91 271.92 222.54 272.29 221.86 C 271.82 220.90 271.35 219.94 270.89 218.99 Z" />
</g>
<g id="#fefefeff">
<path fill="#fefefe" opacity="1.00" d=" M 162.70 219.78 C 163.17 219.69 164.11 219.53 164.58 219.45 C 164.38 223.70 164.99 227.93 166.08 232.03 C 168.47 231.77 170.87 231.52 173.26 231.32 C 173.36 233.51 173.42 235.70 173.46 237.89 C 177.81 239.31 182.38 239.83 186.93 239.35 C 185.99 240.63 185.06 241.92 184.07 243.16 C 180.26 245.32 175.79 243.99 171.81 243.11 C 169.04 242.33 165.66 241.69 164.24 238.86 C 161.86 234.46 160.65 229.56 159.37 224.77 L 159.75 224.05 C 160.76 222.64 161.80 221.26 162.70 219.78 Z" />
</g>
<g id="#8c8c8fff">
<path fill="#8c8c8f" opacity="1.00" d=" M 265.32 219.94 C 265.96 219.55 266.61 219.15 267.26 218.76 C 267.41 219.34 267.69 220.50 267.83 221.09 C 268.57 220.51 269.30 219.94 270.06 219.40 L 270.89 218.99 C 271.35 219.94 271.82 220.90 272.29 221.86 C 271.92 222.54 271.18 223.91 270.81 224.60 C 270.30 223.62 269.77 222.66 269.24 221.71 C 270.78 231.07 273.17 240.28 275.79 249.39 C 277.55 254.29 278.10 259.50 278.23 264.67 C 277.72 264.58 276.70 264.39 276.19 264.29 C 272.01 249.65 269.84 234.50 265.32 219.94 Z" />
<path fill="#8c8c8f" opacity="1.00" d=" M 266.09 230.68 C 269.15 237.68 270.94 245.23 271.27 252.86 L 270.50 252.10 C 268.60 247.77 267.92 243.06 266.55 238.56 C 266.30 235.94 266.16 233.31 266.09 230.68 Z" />
</g>
<g id="#e4dfe2ff">
<path fill="#e4dfe2" opacity="1.00" d=" M 205.93 220.85 C 206.26 220.40 206.92 219.50 207.25 219.04 C 208.74 223.00 209.78 227.13 210.04 231.36 C 207.16 228.63 205.84 224.78 205.93 220.85 Z" />
</g>
<g id="#0000000d">
</g>
<g id="#654640ff">
<path fill="#654640" opacity="1.00" d=" M 151.35 237.99 C 151.49 231.50 155.34 225.99 160.23 222.05 C 160.11 222.55 159.87 223.55 159.75 224.05 L 159.37 224.77 C 156.18 229.16 157.55 234.73 159.24 239.42 C 156.00 238.83 154.54 235.74 152.94 233.23 C 152.42 234.82 151.89 236.40 151.35 237.99 Z" />
</g>
<g id="#928e93ff">
<path fill="#928e93" opacity="1.00" d=" M 159.24 239.42 C 157.55 234.73 156.18 229.16 159.37 224.77 C 160.65 229.56 161.86 234.46 164.24 238.86 C 165.66 241.69 169.04 242.33 171.81 243.11 C 175.79 243.99 180.26 245.32 184.07 243.16 C 184.41 242.99 185.08 242.66 185.42 242.49 C 186.80 242.99 188.19 243.48 189.59 243.94 C 184.91 245.81 180.11 247.89 174.97 247.69 C 170.82 247.45 166.56 248.11 162.50 247.00 L 162.00 246.64 C 162.47 243.81 160.92 241.49 159.24 239.42 Z" />
</g>
<g id="#00000014">
</g>
<g id="#af9f91ff">
<path fill="#af9f91" opacity="1.00" d=" M 173.26 231.32 C 175.22 230.74 177.17 230.13 179.11 229.49 C 177.56 231.08 176.05 232.68 174.55 234.31 C 179.53 235.59 184.63 236.51 189.41 238.46 C 189.50 237.77 189.60 237.09 189.70 236.40 C 190.80 235.87 191.91 235.35 192.99 234.79 C 192.85 236.03 192.71 237.28 192.57 238.53 C 190.18 239.83 187.83 241.20 185.42 242.49 C 185.08 242.66 184.41 242.99 184.07 243.16 C 185.06 241.92 185.99 240.63 186.93 239.35 C 182.38 239.83 177.81 239.31 173.46 237.89 C 173.42 235.70 173.36 233.51 173.26 231.32 Z" />
</g>
<g id="#9b969dff">
<path fill="#9b969d" opacity="1.00" d=" M 194.91 233.41 C 196.42 232.25 197.95 231.10 199.51 229.99 C 200.01 230.56 201.01 231.70 201.51 232.27 C 200.96 232.32 199.85 232.44 199.29 232.49 C 199.33 233.05 199.40 234.16 199.44 234.72 C 200.24 235.06 201.04 235.41 201.84 235.77 C 202.18 235.38 202.87 234.61 203.21 234.22 C 203.66 237.21 204.55 240.21 204.16 243.24 C 202.77 248.59 198.94 253.01 194.18 255.71 C 195.51 252.13 197.37 248.68 197.85 244.85 C 198.15 240.82 196.30 237.08 194.91 233.41 Z" />
</g>
<g id="#aa694dfd">
<path fill="#aa694d" opacity="1.00" d=" M 152.94 233.23 C 154.54 235.74 156.00 238.83 159.24 239.42 C 160.92 241.49 162.47 243.81 162.00 246.64 C 158.19 244.08 154.48 241.35 151.35 237.99 C 151.89 236.40 152.42 234.82 152.94 233.23 Z" />
</g>
<g id="#9c9ca0fd">
<path fill="#9c9ca0" opacity="1.00" d=" M 281.74 257.35 C 283.36 256.76 284.21 257.33 284.30 259.08 C 282.89 259.47 282.04 258.90 281.74 257.35 Z" />
</g>
</svg>

