<?xml version="1.0" encoding="UTF-8" ?>
<!DOCTYPE svg PUBLIC "-//W3C//DTD SVG 1.1//EN" "http://www.w3.org/Graphics/SVG/1.1/DTD/svg11.dtd">
<svg width="384pt" height="384pt" viewBox="0 0 384 384" version="1.1" xmlns="http://www.w3.org/2000/svg">
<g id="#484e52ff">
<path fill="#484e52" opacity="1.00" d=" M 149.78 153.01 C 153.36 152.38 157.00 152.79 160.31 154.29 C 156.75 154.38 153.23 153.84 149.78 153.01 Z" />
<path fill="#484e52" opacity="1.00" d=" M 212.93 157.52 C 221.94 155.71 230.27 161.84 235.11 168.90 C 236.94 171.38 236.83 174.58 236.34 177.48 C 233.08 176.71 229.74 176.28 226.39 176.51 C 226.84 175.34 227.28 174.18 227.74 173.02 C 226.90 172.76 226.07 172.50 225.24 172.25 C 224.10 173.20 222.95 174.15 221.81 175.10 C 219.79 174.89 217.77 174.69 215.75 174.50 C 215.07 177.03 214.32 179.55 213.66 182.09 C 213.39 181.44 212.86 180.14 212.59 179.50 C 213.74 173.22 217.83 168.18 220.74 162.68 C 217.11 163.53 213.54 164.80 210.53 167.05 C 210.55 166.58 210.59 165.63 210.61 165.16 C 213.02 163.40 215.35 161.53 217.71 159.71 C 217.23 159.50 216.28 159.09 215.81 158.88 C 214.83 158.46 213.87 158.00 212.93 157.52 M 232.24 171.26 C 232.79 171.81 232.79 171.81 232.24 171.26 Z" />
</g>
<g id="#8e7d78ff">
<path fill="#8e7d78" opacity="1.00" d=" M 145.77 153.54 C 147.10 153.32 148.44 153.13 149.78 153.01 C 153.23 153.84 156.75 154.38 160.31 154.29 C 163.50 154.41 166.68 154.69 169.83 155.20 C 170.99 155.65 172.13 156.14 173.27 156.63 C 170.28 156.85 167.29 156.99 164.30 157.26 C 164.32 157.61 164.34 158.30 164.35 158.65 C 162.94 158.15 161.52 157.65 160.11 157.15 C 159.23 158.07 158.35 158.99 157.47 159.90 C 156.58 159.09 155.66 158.32 154.69 157.60 C 151.47 156.80 148.87 154.62 145.77 153.54 M 151.21 155.15 C 150.96 157.34 154.60 155.18 152.11 154.72 L 151.21 155.15 Z" />
</g>
<g id="#9f938eff">
<path fill="#9f938e" opacity="1.00" d=" M 123.07 157.75 C 130.19 157.64 136.95 155.20 143.88 153.88 C 144.57 154.51 145.27 155.13 145.99 155.75 C 143.12 156.04 140.29 156.56 137.45 157.06 C 137.61 157.56 137.91 158.55 138.06 159.05 C 134.01 159.55 129.97 160.08 125.92 160.58 C 125.66 163.87 125.28 167.30 126.41 170.49 C 127.52 174.29 132.55 174.21 135.76 173.94 C 140.43 173.62 139.13 168.01 139.36 164.78 C 139.96 168.53 140.34 172.32 140.66 176.11 C 137.42 175.75 134.18 175.45 130.94 175.24 C 135.17 176.23 139.47 176.80 143.78 177.25 C 143.51 176.24 143.24 175.22 142.97 174.21 C 146.46 175.37 150.08 176.09 153.73 176.54 C 154.72 173.81 155.96 171.12 156.36 168.22 C 156.64 164.61 155.57 161.07 154.69 157.60 C 155.66 158.32 156.58 159.09 157.47 159.90 C 158.87 164.31 158.89 168.97 159.10 173.55 C 160.14 173.51 161.18 173.47 162.23 173.44 C 161.92 174.80 161.62 176.16 161.32 177.52 C 160.09 177.20 158.85 176.93 157.62 176.66 C 157.60 174.56 157.55 172.46 157.50 170.36 C 156.11 173.79 154.64 177.19 152.85 180.44 C 151.65 180.32 150.45 180.18 149.27 180.02 C 149.39 179.08 149.52 178.14 149.65 177.20 C 146.30 177.88 142.96 178.59 139.60 179.17 C 139.11 179.16 138.12 179.15 137.63 179.14 C 130.05 177.90 122.41 177.04 114.77 176.36 C 115.32 176.07 116.43 175.50 116.98 175.21 C 115.89 173.92 114.79 172.65 113.76 171.32 C 116.54 171.41 119.31 171.51 122.09 171.63 C 122.42 168.25 122.23 164.86 121.71 161.51 C 118.72 161.22 115.72 160.95 112.77 160.40 C 111.86 160.15 110.97 159.86 110.09 159.52 L 109.50 159.10 C 108.55 158.42 107.62 157.74 106.66 157.10 C 112.11 157.77 117.60 157.90 123.07 157.75 M 123.34 170.90 C 122.58 172.30 121.81 173.69 121.05 175.08 C 123.75 175.14 126.45 175.23 129.16 175.17 C 127.36 173.58 125.60 171.83 123.34 170.90 Z" />
</g>
<g id="#d6cbc5ff">
<path fill="#d6cbc5" opacity="1.00" d=" M 143.88 153.88 C 144.35 153.79 145.30 153.62 145.77 153.54 C 148.87 154.62 151.47 156.80 154.69 157.60 C 155.57 161.07 156.64 164.61 156.36 168.22 C 155.96 171.12 154.72 173.81 153.73 176.54 C 150.08 176.09 146.46 175.37 142.97 174.21 C 141.79 169.24 140.14 164.21 140.66 159.04 C 142.64 157.83 144.92 157.30 147.10 156.61 C 146.82 156.39 146.27 155.96 145.99 155.75 C 145.27 155.13 144.57 154.51 143.88 153.88 Z" />
</g>
<g id="#414049ff">
<path fill="#414049" opacity="1.00" d=" M 214.94 154.55 C 220.93 152.99 227.10 154.27 233.07 155.21 C 231.07 155.11 229.07 155.07 227.08 155.00 C 231.85 157.10 236.52 160.20 238.26 165.39 C 238.26 165.99 238.26 167.19 238.26 167.79 C 238.24 168.08 238.19 168.65 238.17 168.94 C 233.85 160.27 224.55 154.76 214.94 154.55 Z" />
<path fill="#414049" opacity="1.00" d=" M 250.39 158.11 C 251.68 157.54 252.97 156.98 254.27 156.41 C 255.04 158.73 255.90 161.28 254.87 163.67 C 253.96 164.67 252.48 164.75 251.29 165.26 C 250.98 162.87 250.69 160.49 250.39 158.11 Z" />
</g>
<g id="#63463cff">
<path fill="#63463c" opacity="1.00" d=" M 95.28 155.13 C 99.19 154.94 103.06 155.57 106.66 157.10 C 107.62 157.74 108.55 158.42 109.50 159.10 C 108.60 160.38 107.72 161.67 106.86 162.98 C 102.68 162.58 98.25 162.53 94.55 160.27 C 94.73 158.55 95.01 156.84 95.28 155.13 Z" />
<path fill="#63463c" opacity="1.00" d=" M 110.09 159.52 C 110.97 159.86 111.86 160.15 112.77 160.40 C 112.42 164.05 111.90 167.95 113.76 171.32 C 114.79 172.65 115.89 173.92 116.98 175.21 C 116.43 175.50 115.32 176.07 114.77 176.36 L 113.86 176.32 C 111.70 172.86 110.71 168.86 110.67 164.80 C 110.59 163.03 110.43 161.26 110.09 159.52 Z" />
</g>
<g id="#e7e0d6ff">
<path fill="#e7e0d6" opacity="1.00" d=" M 151.21 155.15 L 152.11 154.72 C 154.60 155.18 150.96 157.34 151.21 155.15 Z" />
</g>
<g id="#4a4545ff">
<path fill="#4a4545" opacity="1.00" d=" M 169.83 155.20 C 172.88 155.39 176.35 155.84 177.20 159.36 C 173.54 159.37 169.88 159.42 166.22 159.49 C 166.15 159.96 166.02 160.90 165.96 161.37 C 165.40 160.47 164.87 159.56 164.35 158.65 C 164.34 158.30 164.32 157.61 164.30 157.26 C 167.29 156.99 170.28 156.85 173.27 156.63 C 172.13 156.14 170.99 155.65 169.83 155.20 Z" />
<path fill="#4a4545" opacity="1.00" d=" M 231.70 197.88 C 232.37 197.63 233.05 197.37 233.74 197.12 C 234.55 199.99 235.61 203.26 233.99 206.06 C 233.05 207.28 231.82 208.25 230.67 209.28 C 231.62 205.56 232.02 201.71 231.70 197.88 Z" />
</g>
<g id="#878285ff">
<path fill="#878285" opacity="1.00" d=" M 204.35 161.12 C 207.82 158.84 211.23 156.42 214.94 154.55 C 224.55 154.76 233.85 160.27 238.17 168.94 C 238.19 168.65 238.24 168.08 238.26 167.79 C 240.40 166.88 242.41 165.67 244.20 164.18 C 243.50 163.13 242.81 162.07 242.07 161.05 C 243.18 160.55 244.29 160.04 245.41 159.54 C 246.04 160.74 246.66 161.95 247.31 163.15 C 247.82 164.11 248.36 165.07 248.88 166.04 C 249.06 166.40 249.43 167.12 249.61 167.48 C 250.08 170.50 250.28 173.57 250.06 176.62 C 249.62 178.28 249.48 179.99 249.70 181.70 C 249.77 182.74 249.86 183.79 249.97 184.83 C 252.05 184.33 254.13 183.84 256.21 183.35 C 256.44 187.34 256.52 191.34 256.62 195.34 C 256.39 195.01 255.93 194.36 255.70 194.03 C 254.97 191.98 254.56 189.82 254.14 187.69 C 254.05 189.76 253.91 191.82 253.77 193.89 C 250.42 189.21 247.95 183.71 243.14 180.28 C 245.92 186.30 250.43 191.46 252.15 197.98 C 250.58 197.53 249.02 197.07 247.46 196.62 C 245.54 193.24 243.21 190.13 241.05 186.91 C 240.26 185.63 239.52 184.32 238.77 183.01 C 239.98 181.77 241.19 180.53 242.41 179.30 C 241.38 177.46 240.33 175.63 239.32 173.78 C 238.77 176.88 238.29 180.15 236.42 182.79 C 235.52 182.98 234.64 183.20 233.75 183.42 C 234.73 181.49 235.61 179.51 236.34 177.48 C 236.83 174.58 236.94 171.38 235.11 168.90 C 230.27 161.84 221.94 155.71 212.93 157.52 C 209.83 159.30 206.79 161.16 203.65 162.87 C 203.83 162.43 204.17 161.56 204.35 161.12 M 245.86 174.10 C 245.98 175.51 246.11 176.92 246.25 178.34 C 247.51 176.65 248.36 174.72 249.03 172.74 C 247.96 173.19 246.91 173.64 245.86 174.10 Z" />
</g>
<g id="#ae765afe">
<path fill="#ae765a" opacity="1.00" d=" M 227.08 155.00 C 229.07 155.07 231.07 155.11 233.07 155.21 C 235.55 155.48 237.71 156.86 239.59 158.42 C 238.89 160.69 238.38 163.02 238.26 165.39 C 236.52 160.20 231.85 157.10 227.08 155.00 Z" />
</g>
<g id="#1a1716fd">
<path fill="#1a1716" opacity="1.00" d=" M 248.17 157.46 C 250.77 156.66 253.36 155.83 256.00 155.18 C 256.33 160.03 256.91 164.85 257.25 169.69 C 255.09 167.28 251.92 166.57 248.88 166.04 C 248.36 165.07 247.82 164.11 247.31 163.15 C 247.60 161.25 247.86 159.35 248.17 157.46 M 250.39 158.11 C 250.69 160.49 250.98 162.87 251.29 165.26 C 252.48 164.75 253.96 164.67 254.87 163.67 C 255.90 161.28 255.04 158.73 254.27 156.41 C 252.97 156.98 251.68 157.54 250.39 158.11 Z" />
<path fill="#1a1716" opacity="1.00" d=" M 236.40 214.62 C 236.80 214.18 237.62 213.31 238.02 212.87 C 237.28 215.28 236.84 218.09 234.68 219.69 C 232.10 221.95 228.50 221.71 225.33 222.11 L 225.60 221.40 C 229.53 219.73 233.48 217.84 236.40 214.62 Z" />
</g>
<g id="#9b9a9cff">
<path fill="#9b9a9c" opacity="1.00" d=" M 256.00 155.18 C 256.55 155.05 257.64 154.78 258.19 154.64 C 258.27 162.15 259.44 169.59 259.97 177.08 C 260.31 182.95 262.64 188.50 262.76 194.41 C 261.54 194.57 260.32 194.74 259.10 194.92 C 259.71 186.78 258.43 178.72 257.32 170.69 L 257.25 169.69 C 256.91 164.85 256.33 160.03 256.00 155.18 Z" />
</g>
<g id="#25292fff">
<path fill="#25292f" opacity="1.00" d=" M 258.19 154.64 C 260.65 163.76 259.45 173.40 261.42 182.58 C 262.42 186.26 266.22 187.31 269.58 187.53 C 269.86 189.54 270.14 191.56 270.41 193.58 C 272.47 193.78 274.52 193.99 276.58 194.22 C 276.98 199.76 277.15 205.33 278.07 210.81 C 278.30 213.21 280.63 214.43 282.33 215.78 C 290.63 221.46 298.25 228.10 306.85 233.35 C 306.84 238.18 307.05 243.10 305.69 247.80 C 303.45 256.25 298.05 263.92 290.57 268.52 C 286.66 270.95 282.09 271.85 277.79 273.34 C 277.99 272.10 277.63 271.07 276.72 270.26 C 282.95 270.38 288.73 267.32 293.35 263.36 C 299.86 257.67 303.74 249.37 304.87 240.88 C 305.17 238.44 305.51 235.87 304.66 233.50 C 302.75 230.97 299.94 229.34 297.46 227.44 C 291.12 222.99 285.29 217.82 278.59 213.90 C 278.63 216.49 278.79 219.09 278.93 221.68 C 278.96 223.39 278.94 225.11 278.90 226.83 C 278.24 227.04 276.92 227.45 276.26 227.66 C 276.46 229.33 276.65 231.02 276.93 232.69 C 276.26 233.80 275.59 234.91 274.96 236.05 C 274.79 232.97 274.51 229.89 273.98 226.85 C 271.62 230.08 272.13 234.10 272.61 237.80 C 272.07 237.58 271.01 237.15 270.48 236.93 C 270.65 234.25 270.78 231.54 270.34 228.88 C 274.55 225.21 273.93 219.18 272.37 214.39 C 272.22 217.42 272.45 220.46 272.36 223.50 C 271.82 223.67 270.74 224.02 270.20 224.19 C 269.87 221.63 269.63 219.07 269.48 216.50 C 270.61 214.37 271.72 212.19 272.32 209.84 C 272.79 206.69 271.83 203.55 270.79 200.62 C 270.12 204.45 270.69 208.33 270.74 212.18 C 270.31 211.88 269.44 211.28 269.00 210.99 C 267.83 205.39 268.86 199.75 269.46 194.17 C 268.00 194.21 266.54 194.28 265.09 194.37 C 264.75 194.40 264.07 194.47 263.73 194.50 C 264.56 201.60 265.47 208.70 265.61 215.85 C 265.77 222.68 268.13 229.19 268.77 235.96 C 268.48 237.71 268.11 239.45 267.84 241.21 C 267.40 237.62 267.31 233.99 266.68 230.42 C 266.55 228.99 265.25 228.17 264.20 227.42 C 263.82 234.05 265.12 240.60 265.62 247.19 C 266.24 255.76 267.58 264.26 268.06 272.84 C 267.90 274.24 267.69 275.64 267.50 277.04 C 266.29 276.37 265.11 275.66 263.87 275.05 C 264.86 274.23 264.86 272.67 263.88 271.85 C 264.31 271.72 265.15 271.45 265.57 271.32 C 265.65 269.17 265.51 267.04 265.49 264.90 C 265.87 256.86 265.11 248.71 262.82 240.99 C 262.06 248.70 263.25 256.48 264.71 264.04 C 261.46 261.24 262.42 256.55 261.78 252.77 C 261.66 251.39 261.50 250.03 261.33 248.67 C 261.07 246.48 260.66 244.32 260.22 242.17 C 261.41 240.25 263.00 238.37 263.15 236.02 C 263.17 233.40 262.59 230.83 262.15 228.26 C 260.93 228.88 259.71 229.50 258.50 230.13 C 258.41 229.08 258.36 228.03 258.34 226.97 C 258.32 226.47 258.30 225.47 258.29 224.96 C 258.77 224.95 259.72 224.91 260.20 224.90 C 260.58 224.86 261.33 224.79 261.71 224.76 C 261.60 222.01 261.51 219.26 261.34 216.52 C 261.02 216.48 260.37 216.41 260.05 216.38 C 258.23 216.38 256.42 216.48 254.61 216.57 C 254.36 218.00 254.11 219.43 253.87 220.86 C 252.30 219.42 251.00 217.73 249.77 216.01 C 251.61 214.01 253.30 211.88 254.90 209.69 C 254.11 210.26 253.33 210.84 252.56 211.45 C 252.40 209.25 252.27 207.06 252.04 204.88 C 252.83 206.21 253.68 207.49 254.54 208.79 C 255.03 205.58 255.16 202.32 254.77 199.10 C 257.01 201.46 260.02 202.04 263.10 201.12 C 262.76 199.34 262.43 197.56 262.10 195.78 C 260.40 195.86 258.70 195.95 257.00 196.04 L 256.62 195.34 C 256.52 191.34 256.44 187.34 256.21 183.35 C 256.66 183.43 257.56 183.58 258.01 183.66 C 257.64 179.35 257.38 175.02 257.32 170.69 C 258.43 178.72 259.71 186.78 259.10 194.92 C 260.32 194.74 261.54 194.57 262.76 194.41 C 262.64 188.50 260.31 182.95 259.97 177.08 C 259.44 169.59 258.27 162.15 258.19 154.64 M 275.75 212.24 C 275.91 208.07 275.67 203.86 274.53 199.84 C 272.83 203.82 272.87 208.79 275.75 212.24 M 261.11 201.59 C 261.67 205.39 260.39 210.38 263.56 213.21 C 263.47 210.15 263.16 207.11 262.77 204.09 C 262.70 202.95 262.15 202.12 261.11 201.59 M 260.11 213.49 C 260.72 209.56 260.29 205.52 258.96 201.77 C 257.65 205.60 258.30 209.93 260.11 213.49 M 274.58 214.74 C 274.64 218.03 274.31 222.41 277.52 224.39 C 277.62 221.35 277.46 218.32 277.39 215.28 C 276.69 215.15 275.28 214.88 274.58 214.74 M 262.85 215.48 C 263.01 218.66 261.36 223.48 264.80 225.36 C 264.51 222.03 264.70 218.42 262.85 215.48 Z" />
</g>
<g id="#635248ff">
<path fill="#635248" opacity="1.00" d=" M 137.45 157.06 C 140.29 156.56 143.12 156.04 145.99 155.75 C 146.27 155.96 146.82 156.39 147.10 156.61 C 144.92 157.30 142.64 157.83 140.66 159.04 C 140.14 164.21 141.79 169.24 142.97 174.21 C 143.24 175.22 143.51 176.24 143.78 177.25 C 139.47 176.80 135.17 176.23 130.94 175.24 C 134.18 175.45 137.42 175.75 140.66 176.11 C 140.34 172.32 139.96 168.53 139.36 164.78 C 139.07 162.84 138.58 160.94 138.06 159.05 C 137.91 158.55 137.61 157.56 137.45 157.06 Z" />
</g>
<g id="#cfc4bdff">
<path fill="#cfc4bd" opacity="1.00" d=" M 157.47 159.90 C 158.35 158.99 159.23 158.07 160.11 157.15 C 161.52 157.65 162.94 158.15 164.35 158.65 C 163.91 161.96 163.54 165.29 163.24 168.63 C 162.93 170.24 162.58 171.84 162.23 173.44 C 161.18 173.47 160.14 173.51 159.10 173.55 C 158.89 168.97 158.87 164.31 157.47 159.90 Z" />
</g>
<g id="#3c3f3fff">
<path fill="#3c3f3f" opacity="1.00" d=" M 203.65 162.87 C 206.79 161.16 209.83 159.30 212.93 157.52 C 213.87 158.00 214.83 158.46 215.81 158.88 C 213.52 160.42 211.25 162.35 210.61 165.16 C 210.59 165.63 210.55 166.58 210.53 167.05 C 207.61 170.23 205.45 174.00 203.50 177.83 C 203.27 178.22 202.81 179.01 202.57 179.41 C 200.42 177.51 197.34 175.95 196.64 172.95 C 196.77 168.47 200.70 165.67 203.65 162.87 Z" />
</g>
<g id="#d2c8c1ff">
<path fill="#d2c8c1" opacity="1.00" d=" M 125.92 160.58 C 129.97 160.08 134.01 159.55 138.06 159.05 C 138.58 160.94 139.07 162.84 139.36 164.78 C 139.13 168.01 140.43 173.62 135.76 173.94 C 132.55 174.21 127.52 174.29 126.41 170.49 C 125.28 167.30 125.66 163.87 125.92 160.58 Z" />
</g>
<g id="#a59c96ff">
<path fill="#a59c96" opacity="1.00" d=" M 164.35 158.65 C 164.87 159.56 165.40 160.47 165.96 161.37 C 165.59 165.43 165.26 169.51 164.56 173.53 C 166.60 171.95 168.86 170.66 171.23 169.63 C 171.84 169.34 173.04 168.77 173.65 168.48 C 175.18 169.04 176.72 169.59 178.26 170.15 C 177.11 171.99 175.98 173.83 174.84 175.67 C 171.33 175.29 167.75 175.48 164.44 176.79 C 164.24 174.04 163.68 171.34 163.24 168.63 C 163.54 165.29 163.91 161.96 164.35 158.65 Z" />
</g>
<g id="#ccc2baff">
<path fill="#ccc2ba" opacity="1.00" d=" M 166.22 159.49 C 169.88 159.42 173.54 159.37 177.20 159.36 C 178.89 159.47 180.58 159.65 182.28 159.81 C 178.89 161.09 175.35 162.25 172.43 164.44 C 170.69 165.59 171.38 167.88 171.23 169.63 C 168.86 170.66 166.60 171.95 164.56 173.53 C 165.26 169.51 165.59 165.43 165.96 161.37 C 166.02 160.90 166.15 159.96 166.22 159.49 Z" />
</g>
<g id="#4b3220ff">
<path fill="#4b3220" opacity="1.00" d=" M 177.20 159.36 C 181.82 159.51 186.45 159.65 191.06 159.16 C 194.96 158.60 198.46 160.70 201.88 162.24 C 198.49 163.58 194.81 163.54 191.26 164.03 C 188.80 164.72 186.40 165.63 184.14 166.83 C 183.22 167.62 182.33 168.43 181.46 169.27 C 180.31 170.94 179.30 172.72 178.43 174.57 C 177.55 176.49 176.85 178.50 176.32 180.55 C 175.92 182.01 175.57 183.47 175.22 184.94 C 174.22 188.95 172.86 194.73 168.16 195.60 C 165.64 195.45 163.14 195.11 160.64 194.82 C 161.73 188.77 164.00 182.95 164.44 176.79 C 167.75 175.48 171.33 175.29 174.84 175.67 C 175.98 173.83 177.11 171.99 178.26 170.15 C 176.72 169.59 175.18 169.04 173.65 168.48 C 178.15 166.22 182.52 163.63 186.25 160.21 C 184.93 160.06 183.60 159.92 182.28 159.81 C 180.58 159.65 178.89 159.47 177.20 159.36 Z" />
</g>
<g id="#898684ff">
<path fill="#898684" opacity="1.00" d=" M 210.61 165.16 C 211.25 162.35 213.52 160.42 215.81 158.88 C 216.28 159.09 217.23 159.50 217.71 159.71 C 215.35 161.53 213.02 163.40 210.61 165.16 Z" />
</g>
<g id="#eba682ff">
<path fill="#eba682" opacity="1.00" d=" M 238.26 165.39 C 238.38 163.02 238.89 160.69 239.59 158.42 C 240.45 159.26 241.28 160.14 242.07 161.05 C 242.81 162.07 243.50 163.13 244.20 164.18 C 242.41 165.67 240.40 166.88 238.26 167.79 C 238.26 167.19 238.26 165.99 238.26 165.39 Z" />
</g>
<g id="#9b7a73ff">
<path fill="#9b7a73" opacity="1.00" d=" M 94.55 160.27 C 98.25 162.53 102.68 162.58 106.86 162.98 C 107.25 165.27 107.59 167.58 107.87 169.90 C 104.73 168.93 101.48 168.37 98.34 167.42 C 97.04 165.92 95.81 164.37 94.59 162.81 C 94.58 162.17 94.56 160.90 94.55 160.27 Z" />
</g>
<g id="#d1c6beff">
<path fill="#d1c6be" opacity="1.00" d=" M 106.86 162.98 C 107.72 161.67 108.60 160.38 109.50 159.10 L 110.09 159.52 C 110.43 161.26 110.59 163.03 110.67 164.80 C 110.50 166.69 110.22 168.58 109.97 170.47 C 109.44 170.32 108.40 170.04 107.87 169.90 C 107.59 167.58 107.25 165.27 106.86 162.98 Z" />
</g>
<g id="#d8cdc7ff">
<path fill="#d8cdc7" opacity="1.00" d=" M 112.77 160.40 C 115.72 160.95 118.72 161.22 121.71 161.51 C 122.23 164.86 122.42 168.25 122.09 171.63 C 119.31 171.51 116.54 171.41 113.76 171.32 C 111.90 167.95 112.42 164.05 112.77 160.40 Z" />
<path fill="#d8cdc7" opacity="1.00" d=" M 272.61 237.80 C 272.13 234.10 271.62 230.08 273.98 226.85 C 274.51 229.89 274.79 232.97 274.96 236.05 C 274.72 236.63 274.26 237.79 274.02 238.37 C 273.67 238.23 272.96 237.94 272.61 237.80 Z" />
</g>
<g id="#c78e72ff">
<path fill="#c78e72" opacity="1.00" d=" M 182.28 159.81 C 183.60 159.92 184.93 160.06 186.25 160.21 C 182.52 163.63 178.15 166.22 173.65 168.48 C 173.04 168.77 171.84 169.34 171.23 169.63 C 171.38 167.88 170.69 165.59 172.43 164.44 C 175.35 162.25 178.89 161.09 182.28 159.81 Z" />
</g>
<g id="#a8968fff">
<path fill="#a8968f" opacity="1.00" d=" M 201.88 162.24 C 202.50 161.96 203.73 161.40 204.35 161.12 C 204.17 161.56 203.83 162.43 203.65 162.87 C 200.70 165.67 196.77 168.47 196.64 172.95 C 197.34 175.95 200.42 177.51 202.57 179.41 C 201.81 180.51 200.93 181.52 200.06 182.54 L 199.42 181.91 C 196.06 179.25 193.81 175.59 192.22 171.68 C 194.09 169.58 195.73 167.29 197.23 164.91 C 192.12 167.15 188.40 171.35 184.77 175.41 C 183.53 173.44 182.41 171.40 181.46 169.27 C 182.33 168.43 183.22 167.62 184.14 166.83 C 184.56 167.86 184.97 168.89 185.38 169.93 C 187.49 168.94 189.59 167.96 191.70 166.98 C 191.55 166.00 191.40 165.01 191.26 164.03 C 194.81 163.54 198.49 163.58 201.88 162.24 Z" />
</g>
<g id="#f8f7f9ff">
<path fill="#f8f7f9" opacity="1.00" d=" M 94.59 162.81 C 95.81 164.37 97.04 165.92 98.34 167.42 C 97.20 167.63 96.05 167.84 94.91 168.06 C 94.78 166.31 94.67 164.56 94.59 162.81 Z" />
<path fill="#f8f7f9" opacity="1.00" d=" M 265.09 194.37 C 266.54 194.28 268.00 194.21 269.46 194.17 C 268.86 199.75 267.83 205.39 269.00 210.99 C 269.44 211.28 270.31 211.88 270.74 212.18 C 270.69 208.33 270.12 204.45 270.79 200.62 C 271.83 203.55 272.79 206.69 272.32 209.84 C 271.72 212.19 270.61 214.37 269.48 216.50 C 268.94 216.47 267.87 216.43 267.34 216.40 C 266.83 209.04 266.24 201.66 265.09 194.37 Z" />
</g>
<g id="#8a8888ff">
<path fill="#8a8888" opacity="1.00" d=" M 210.53 167.05 C 213.54 164.80 217.11 163.53 220.74 162.68 C 217.83 168.18 213.74 173.22 212.59 179.50 C 212.01 182.00 211.60 184.54 211.19 187.08 C 207.12 185.49 204.57 181.98 203.50 177.83 C 205.45 174.00 207.61 170.23 210.53 167.05 M 205.90 181.03 C 207.11 181.34 208.29 182.01 209.58 181.86 C 210.70 178.31 211.95 174.81 213.46 171.40 C 214.25 170.07 213.92 168.56 213.26 167.27 C 209.26 170.87 206.96 175.82 205.90 181.03 Z" />
</g>
<g id="#74635dff">
<path fill="#74635d" opacity="1.00" d=" M 184.14 166.83 C 186.40 165.63 188.80 164.72 191.26 164.03 C 191.40 165.01 191.55 166.00 191.70 166.98 C 189.59 167.96 187.49 168.94 185.38 169.93 C 184.97 168.89 184.56 167.86 184.14 166.83 Z" />
</g>
<g id="#949294ff">
<path fill="#949294" opacity="1.00" d=" M 109.97 170.47 C 110.22 168.58 110.50 166.69 110.67 164.80 C 110.71 168.86 111.70 172.86 113.86 176.32 C 113.39 176.29 112.44 176.22 111.96 176.19 C 109.74 174.76 108.62 172.33 107.87 169.90 C 108.40 170.04 109.44 170.32 109.97 170.47 Z" />
<path fill="#949294" opacity="1.00" d=" M 213.71 184.85 C 215.93 185.27 218.15 185.74 220.32 186.37 C 221.93 188.93 223.50 191.52 224.69 194.31 C 223.81 196.47 227.00 197.08 226.30 194.61 C 227.43 195.35 229.28 195.82 229.39 197.43 C 229.87 201.06 229.15 204.69 228.64 208.28 C 227.62 205.03 226.66 201.77 225.71 198.51 C 225.54 199.80 225.39 201.08 225.24 202.37 C 224.72 200.52 224.16 198.63 223.10 197.01 C 221.28 196.17 219.26 196.01 217.32 195.65 C 216.91 194.40 216.24 193.26 215.91 191.98 C 215.09 189.63 214.22 187.29 213.71 184.85 Z" />
</g>
<g id="#716a67ff">
<path fill="#716a67" opacity="1.00" d=" M 184.77 175.41 C 188.40 171.35 192.12 167.15 197.23 164.91 C 195.73 167.29 194.09 169.58 192.22 171.68 C 190.25 173.89 188.39 176.20 186.56 178.53 L 186.15 179.04 C 185.77 179.33 185.01 179.91 184.62 180.19 C 184.07 179.53 182.97 178.19 182.42 177.53 C 181.02 179.15 179.11 180.59 178.69 182.81 C 179.51 183.74 180.43 184.57 181.35 185.40 C 180.43 186.80 179.45 188.17 178.50 189.56 C 179.71 189.88 180.93 190.21 182.16 190.48 C 182.19 191.05 182.23 192.19 182.26 192.76 C 182.31 193.60 182.40 195.28 182.45 196.12 C 180.70 197.25 178.92 198.33 177.13 199.38 C 176.22 197.90 175.24 196.48 174.26 195.05 C 175.31 193.04 176.43 191.06 177.57 189.11 C 176.78 187.71 176.00 186.33 175.22 184.94 C 175.57 183.47 175.92 182.01 176.32 180.55 C 178.35 179.14 178.83 176.90 178.43 174.57 C 179.30 172.72 180.31 170.94 181.46 169.27 C 182.41 171.40 183.53 173.44 184.77 175.41 Z" />
</g>
<g id="#65473eff">
<path fill="#65473e" opacity="1.00" d=" M 98.34 167.42 C 101.48 168.37 104.73 168.93 107.87 169.90 C 108.62 172.33 109.74 174.76 111.96 176.19 C 109.75 176.09 107.54 175.64 105.72 174.30 C 106.08 173.84 106.80 172.93 107.16 172.47 C 103.59 172.31 100.01 172.39 96.44 172.60 C 96.13 172.21 95.52 171.45 95.21 171.07 C 95.13 170.32 94.99 168.81 94.91 168.06 C 96.05 167.84 97.20 167.63 98.34 167.42 Z" />
</g>
<g id="#c1bcc0ff">
<path fill="#c1bcc0" opacity="1.00" d=" M 205.90 181.03 C 206.96 175.82 209.26 170.87 213.26 167.27 C 213.92 168.56 214.25 170.07 213.46 171.40 C 211.95 174.81 210.70 178.31 209.58 181.86 C 208.29 182.01 207.11 181.34 205.90 181.03 Z" />
<path fill="#c1bcc0" opacity="1.00" d=" M 274.58 214.74 C 275.28 214.88 276.69 215.15 277.39 215.28 C 277.46 218.32 277.62 221.35 277.52 224.39 C 274.31 222.41 274.64 218.03 274.58 214.74 Z" />
</g>
<g id="#716c6cff">
<path fill="#716c6c" opacity="1.00" d=" M 249.61 167.48 C 252.25 172.57 254.02 178.05 256.21 183.35 C 254.13 183.84 252.05 184.33 249.97 184.83 C 249.86 183.79 249.77 182.74 249.70 181.70 C 249.81 180.00 249.96 178.32 250.06 176.62 C 250.28 173.57 250.08 170.50 249.61 167.48 Z" />
</g>
<g id="#6c615bf8">
<path fill="#6c615b" opacity="0.97" d=" M 163.24 168.63 C 163.68 171.34 164.24 174.04 164.44 176.79 C 164.00 182.95 161.73 188.77 160.64 194.82 C 163.14 195.11 165.64 195.45 168.16 195.60 C 165.16 195.85 162.16 195.98 159.15 196.15 C 159.38 193.70 159.45 191.23 159.66 188.78 C 160.39 186.69 161.32 184.67 162.33 182.69 C 160.25 179.39 156.06 180.89 152.85 180.44 C 154.64 177.19 156.11 173.79 157.50 170.36 C 157.55 172.46 157.60 174.56 157.62 176.66 C 157.62 177.20 157.63 178.27 157.63 178.81 C 159.49 178.73 161.35 178.68 163.21 178.59 C 162.58 178.22 161.95 177.86 161.32 177.52 C 161.62 176.16 161.92 174.80 162.23 173.44 C 162.58 171.84 162.93 170.24 163.24 168.63 Z" />
</g>
<g id="#28211db2">
<path fill="#28211d" opacity="0.70" d=" M 95.21 171.07 C 95.52 171.45 96.13 172.21 96.44 172.60 C 100.01 172.39 103.59 172.31 107.16 172.47 C 106.80 172.93 106.08 173.84 105.72 174.30 C 102.55 172.49 98.89 173.42 95.48 173.71 C 95.41 173.05 95.27 171.73 95.21 171.07 Z" />
</g>
<g id="#6b625fff">
<path fill="#6b625f" opacity="1.00" d=" M 123.34 170.90 C 125.60 171.83 127.36 173.58 129.16 175.17 C 126.45 175.23 123.75 175.14 121.05 175.08 C 121.81 173.69 122.58 172.30 123.34 170.90 Z" />
</g>
<g id="#c1c6ccff">
<path fill="#c1c6cc" opacity="1.00" d=" M 232.24 171.26 C 232.79 171.81 232.79 171.81 232.24 171.26 Z" />
</g>
<g id="#e5a17fff">
<path fill="#e5a17f" opacity="1.00" d=" M 186.56 178.53 C 188.39 176.20 190.25 173.89 192.22 171.68 C 193.81 175.59 196.06 179.25 199.42 181.91 C 197.59 183.88 195.85 185.93 194.36 188.17 C 190.02 194.30 190.83 202.21 189.58 209.26 C 188.09 207.21 186.46 205.27 184.86 203.30 C 187.29 199.61 189.30 195.59 189.85 191.15 C 187.27 191.44 184.71 191.91 182.26 192.76 C 182.23 192.19 182.19 191.05 182.16 190.48 L 183.08 190.40 C 184.93 190.09 186.77 189.68 188.61 189.29 C 187.84 185.72 187.16 182.13 186.56 178.53 Z" />
</g>
<g id="#3a3d3eff">
<path fill="#3a3d3e" opacity="1.00" d=" M 221.81 175.10 C 222.95 174.15 224.10 173.20 225.24 172.25 C 226.07 172.50 226.90 172.76 227.74 173.02 C 227.28 174.18 226.84 175.34 226.39 176.51 C 229.74 176.28 233.08 176.71 236.34 177.48 C 235.61 179.51 234.73 181.49 233.75 183.42 C 231.95 184.71 230.17 186.03 228.38 187.34 C 228.84 188.41 229.31 189.49 229.78 190.56 C 226.78 188.85 223.65 187.33 220.32 186.37 C 218.15 185.74 215.93 185.27 213.71 184.85 C 213.67 183.93 213.67 183.01 213.66 182.09 C 214.32 179.55 215.07 177.03 215.75 174.50 C 217.77 174.69 219.79 174.89 221.81 175.10 Z" />
<path fill="#3a3d3e" opacity="1.00" d=" M 230.88 259.52 C 231.09 259.06 231.52 258.14 231.73 257.68 C 238.74 267.40 250.85 275.18 263.22 272.03 C 263.22 272.73 263.23 274.13 263.23 274.83 C 258.90 274.47 254.48 274.71 250.23 273.63 C 242.98 271.84 236.56 267.26 232.11 261.31 C 231.68 260.72 231.27 260.12 230.88 259.52 Z" />
</g>
<g id="#cdc6c7ff">
<path fill="#cdc6c7" opacity="1.00" d=" M 245.86 174.10 C 246.91 173.64 247.96 173.19 249.03 172.74 C 248.36 174.72 247.51 176.65 246.25 178.34 C 246.11 176.92 245.98 175.51 245.86 174.10 Z" />
</g>
<g id="#6a5a57fa">
<path fill="#6a5a57" opacity="0.98" d=" M 239.32 173.78 C 240.33 175.63 241.38 177.46 242.41 179.30 C 241.19 180.53 239.98 181.77 238.77 183.01 C 239.52 184.32 240.26 185.63 241.05 186.91 C 239.49 185.57 237.79 184.42 236.06 183.32 L 236.42 182.79 C 238.29 180.15 238.77 176.88 239.32 173.78 Z" />
</g>
<g id="#baafa3ff">
<path fill="#baafa3" opacity="1.00" d=" M 176.32 180.55 C 176.85 178.50 177.55 176.49 178.43 174.57 C 178.83 176.90 178.35 179.14 176.32 180.55 Z" />
<path fill="#baafa3" opacity="1.00" d=" M 167.59 233.31 C 168.54 232.88 169.49 232.44 170.43 231.99 C 172.54 232.78 174.67 233.51 176.77 234.32 C 178.81 235.20 180.79 236.23 182.75 237.27 C 184.58 236.50 186.42 235.75 188.24 234.94 C 187.56 236.10 186.92 237.30 186.27 238.49 C 184.40 239.01 182.53 239.53 180.69 240.14 C 176.48 237.56 170.32 237.91 167.59 233.31 Z" />
</g>
<g id="#e3dde1ff">
<path fill="#e3dde1" opacity="1.00" d=" M 139.60 179.17 C 142.96 178.59 146.30 177.88 149.65 177.20 C 149.52 178.14 149.39 179.08 149.27 180.02 C 146.06 179.58 142.83 179.30 139.60 179.17 Z" />
<path fill="#e3dde1" opacity="1.00" d=" M 207.66 199.81 C 209.23 199.88 210.80 200.01 212.38 199.97 C 212.68 199.77 213.27 199.37 213.56 199.18 C 216.26 199.44 218.81 200.44 221.19 201.72 C 219.27 203.40 217.37 205.09 215.48 206.80 C 214.76 206.44 214.03 206.08 213.30 205.73 C 210.80 204.43 207.92 203.00 207.66 199.81 Z" />
<path fill="#e3dde1" opacity="1.00" d=" M 275.75 212.24 C 272.87 208.79 272.83 203.82 274.53 199.84 C 275.67 203.86 275.91 208.07 275.75 212.24 Z" />
<path fill="#e3dde1" opacity="1.00" d=" M 260.11 213.49 C 258.30 209.93 257.65 205.60 258.96 201.77 C 260.29 205.52 260.72 209.56 260.11 213.49 Z" />
<path fill="#e3dde1" opacity="1.00" d=" M 260.05 216.38 C 260.37 216.41 261.02 216.48 261.34 216.52 C 261.51 219.26 261.60 222.01 261.71 224.76 C 261.33 224.79 260.58 224.86 260.20 224.90 C 260.25 222.06 260.20 219.21 260.05 216.38 Z" />
<path fill="#e3dde1" opacity="1.00" d=" M 275.73 270.28 L 276.72 270.26 C 277.63 271.07 277.99 272.10 277.79 273.34 C 275.90 273.85 273.67 271.81 275.73 270.28 Z" />
</g>
<g id="#fefdfcff">
<path fill="#fefdfc" opacity="1.00" d=" M 157.63 178.81 C 157.63 178.27 157.62 177.20 157.62 176.66 C 158.85 176.93 160.09 177.20 161.32 177.52 C 161.95 177.86 162.58 178.22 163.21 178.59 C 161.35 178.68 159.49 178.73 157.63 178.81 Z" />
<path fill="#fefdfc" opacity="1.00" d=" M 166.44 212.09 C 168.44 209.57 170.21 206.47 173.34 205.24 C 175.15 204.43 176.76 205.85 178.13 206.84 C 180.99 211.34 184.51 215.38 187.84 219.54 C 188.66 220.47 189.48 221.39 190.32 222.30 C 188.27 223.86 186.21 225.40 184.13 226.92 C 186.53 226.35 188.93 225.77 191.34 225.26 C 189.92 227.12 188.44 228.93 186.81 230.60 C 183.21 231.05 179.74 232.21 176.77 234.32 C 174.67 233.51 172.54 232.78 170.43 231.99 C 172.18 230.61 173.75 229.03 175.29 227.44 C 172.68 227.60 170.10 228.07 167.57 228.71 C 167.56 230.24 167.56 231.77 167.59 233.31 C 170.32 237.91 176.48 237.56 180.69 240.14 C 180.22 240.31 179.27 240.65 178.80 240.81 C 176.41 241.68 173.93 242.44 171.36 242.42 C 167.30 240.70 162.70 239.68 159.38 236.64 C 157.00 233.40 156.89 229.13 155.80 225.37 C 156.20 222.44 156.90 219.57 157.58 216.70 C 158.11 216.49 159.16 216.06 159.69 215.85 C 160.16 215.66 161.12 215.28 161.59 215.10 C 161.27 219.64 161.43 224.21 161.74 228.75 C 164.33 229.74 167.73 229.80 168.95 226.76 C 169.13 223.59 168.14 220.52 167.42 217.48 C 166.30 217.69 165.17 217.91 164.05 218.13 C 164.00 216.18 163.98 214.22 164.04 212.28 C 164.84 212.21 165.64 212.15 166.44 212.09 Z" />
</g>
<g id="#b6b1b2ff">
<path fill="#b6b1b2" opacity="1.00" d=" M 249.70 181.70 C 249.48 179.99 249.62 178.28 250.06 176.62 C 249.96 178.32 249.81 180.00 249.70 181.70 Z" />
</g>
<g id="#8e7e77ff">
<path fill="#8e7e77" opacity="1.00" d=" M 178.69 182.81 C 179.11 180.59 181.02 179.15 182.42 177.53 C 182.97 178.19 184.07 179.53 184.62 180.19 C 183.52 181.92 182.46 183.67 181.35 185.40 C 180.43 184.57 179.51 183.74 178.69 182.81 Z" />
</g>
<g id="#767274ff">
<path fill="#767274" opacity="1.00" d=" M 202.57 179.41 C 202.81 179.01 203.27 178.22 203.50 177.83 C 204.57 181.98 207.12 185.49 211.19 187.08 C 211.60 184.54 212.01 182.00 212.59 179.50 C 212.86 180.14 213.39 181.44 213.66 182.09 C 213.67 183.01 213.67 183.93 213.71 184.85 C 214.22 187.29 215.09 189.63 215.91 191.98 C 212.27 191.06 209.06 189.05 205.60 187.70 C 202.96 187.74 199.92 189.55 199.40 192.33 C 198.73 195.07 198.32 197.86 197.69 200.61 C 197.37 202.39 196.76 204.22 197.11 206.04 C 197.93 206.90 198.87 207.63 199.77 208.40 C 200.06 210.57 199.94 213.59 202.43 214.50 C 207.71 214.69 210.86 209.67 213.30 205.73 C 214.03 206.08 214.76 206.44 215.48 206.80 C 217.11 207.70 218.31 209.12 219.45 210.56 C 221.64 208.62 223.65 206.43 225.04 203.83 C 225.09 203.47 225.19 202.74 225.24 202.37 C 225.39 201.08 225.54 199.80 225.71 198.51 C 226.66 201.77 227.62 205.03 228.64 208.28 C 229.15 204.69 229.87 201.06 229.39 197.43 C 229.28 195.82 227.43 195.35 226.30 194.61 C 225.90 194.53 225.09 194.38 224.69 194.31 C 223.50 191.52 221.93 188.93 220.32 186.37 C 223.65 187.33 226.78 188.85 229.78 190.56 C 229.31 189.49 228.84 188.41 228.38 187.34 C 230.17 186.03 231.95 184.71 233.75 183.42 C 234.64 183.20 235.52 182.98 236.42 182.79 L 236.06 183.32 C 235.01 185.14 233.07 186.71 232.93 188.90 C 234.61 192.04 237.18 194.58 239.14 197.55 C 238.56 203.75 236.47 209.66 232.82 214.72 C 234.01 214.68 235.20 214.65 236.40 214.62 C 233.48 217.84 229.53 219.73 225.60 221.40 C 226.44 218.66 227.89 216.17 229.69 213.96 C 225.58 216.93 220.78 218.61 215.94 219.96 C 213.49 220.53 211.91 222.57 210.29 224.32 C 209.71 223.18 209.10 222.06 208.50 220.95 C 209.03 220.49 210.09 219.59 210.62 219.14 C 209.37 218.68 208.12 218.23 206.88 217.78 C 207.18 219.03 207.48 220.27 207.79 221.52 C 206.02 222.75 203.52 224.20 204.33 226.78 C 205.83 232.50 210.51 236.81 215.82 239.08 C 216.28 238.52 217.19 237.39 217.65 236.83 L 218.08 237.27 C 219.30 240.15 220.18 243.16 221.13 246.13 C 220.62 246.27 219.62 246.53 219.11 246.67 C 214.03 242.26 209.02 237.77 204.15 233.15 C 200.32 234.86 200.90 239.36 200.45 242.82 C 199.99 247.42 196.73 251.00 193.66 254.17 C 190.54 256.22 186.81 257.64 183.04 257.38 C 180.62 256.79 178.71 255.10 176.75 253.67 C 179.63 253.31 182.71 253.72 185.43 252.51 C 188.67 250.15 188.53 245.72 188.71 242.14 C 186.56 242.54 184.44 243.00 182.30 243.44 C 181.13 242.56 179.96 241.69 178.80 240.81 C 179.27 240.65 180.22 240.31 180.69 240.14 C 182.53 239.53 184.40 239.01 186.27 238.49 C 186.92 237.30 187.56 236.10 188.24 234.94 C 188.63 234.65 189.41 234.08 189.79 233.80 C 190.61 235.84 191.55 237.84 192.62 239.77 C 191.68 245.53 188.34 250.40 185.83 255.55 C 192.40 252.63 198.84 245.98 197.83 238.28 C 197.24 236.28 196.35 234.39 195.38 232.55 C 195.73 231.31 196.03 230.05 196.32 228.79 C 198.06 229.71 199.76 230.73 201.50 231.68 C 200.42 229.72 199.36 227.77 198.16 225.89 C 198.54 224.41 199.17 222.94 199.11 221.39 C 197.43 218.16 194.41 215.89 192.21 213.04 C 191.30 211.80 190.47 210.51 189.58 209.26 C 190.83 202.21 190.02 194.30 194.36 188.17 C 197.34 188.04 199.98 186.62 202.26 184.78 C 201.53 184.03 200.80 183.27 200.06 182.54 C 200.93 181.52 201.81 180.51 202.57 179.41 M 230.47 192.17 C 230.04 193.56 230.52 194.06 231.93 193.65 C 232.36 192.25 231.87 191.75 230.47 192.17 M 231.70 197.88 C 232.02 201.71 231.62 205.56 230.67 209.28 C 231.82 208.25 233.05 207.28 233.99 206.06 C 235.61 203.26 234.55 199.99 233.74 197.12 C 233.05 197.37 232.37 197.63 231.70 197.88 M 191.32 204.77 C 190.21 205.29 190.46 207.75 191.90 207.37 C 193.02 206.84 192.77 204.40 191.32 204.77 Z" />
</g>
<g id="#202327dd">
<path fill="#202327" opacity="0.87" d=" M 137.63 179.14 C 138.12 179.15 139.11 179.16 139.60 179.17 C 142.83 179.30 146.06 179.58 149.27 180.02 C 150.45 180.18 151.65 180.32 152.85 180.44 C 156.06 180.89 160.25 179.39 162.33 182.69 C 154.05 181.93 145.78 180.78 137.63 179.14 Z" />
<path fill="#202327" opacity="0.87" d=" M 223.07 242.79 C 225.48 240.03 228.24 237.63 231.08 235.33 C 229.46 237.30 227.57 239.13 226.45 241.46 C 225.66 244.33 227.57 246.99 229.40 249.01 C 229.23 249.77 229.07 250.54 228.95 251.31 C 229.75 253.49 230.78 255.56 231.73 257.68 C 231.52 258.14 231.09 259.06 230.88 259.52 C 227.59 255.38 226.56 250.02 223.61 245.71 C 222.77 245.78 221.94 245.92 221.13 246.13 C 220.18 243.16 219.30 240.15 218.08 237.27 C 218.51 237.57 219.39 238.16 219.83 238.46 C 220.94 239.88 222.01 241.33 223.07 242.79 Z" />
</g>
<g id="#5a4b47ff">
<path fill="#5a4b47" opacity="1.00" d=" M 184.62 180.19 C 185.01 179.91 185.77 179.33 186.15 179.04 C 185.17 182.84 184.32 186.68 183.08 190.40 L 182.16 190.48 C 180.93 190.21 179.71 189.88 178.50 189.56 C 179.45 188.17 180.43 186.80 181.35 185.40 C 182.46 183.67 183.52 181.92 184.62 180.19 Z" />
</g>
<g id="#ad6c4fff">
<path fill="#ad6c4f" opacity="1.00" d=" M 186.15 179.04 L 186.56 178.53 C 187.16 182.13 187.84 185.72 188.61 189.29 C 186.77 189.68 184.93 190.09 183.08 190.40 C 184.32 186.68 185.17 182.84 186.15 179.04 Z" />
</g>
<g id="#7a6965ff">
<path fill="#7a6965" opacity="1.00" d=" M 243.14 180.28 C 247.95 183.71 250.42 189.21 253.77 193.89 C 253.91 191.82 254.05 189.76 254.14 187.69 C 254.56 189.82 254.97 191.98 255.70 194.03 C 255.93 194.36 256.39 195.01 256.62 195.34 L 257.00 196.04 C 256.37 196.05 255.10 196.07 254.46 196.08 C 254.57 197.09 254.67 198.09 254.77 199.10 C 255.16 202.32 255.03 205.58 254.54 208.79 C 253.68 207.49 252.83 206.21 252.04 204.88 C 250.55 202.10 249.00 199.36 247.46 196.62 C 249.02 197.07 250.58 197.53 252.15 197.98 C 250.43 191.46 245.92 186.30 243.14 180.28 Z" />
</g>
<g id="#b27e67ff">
<path fill="#b27e67" opacity="1.00" d=" M 199.42 181.91 L 200.06 182.54 C 200.80 183.27 201.53 184.03 202.26 184.78 C 199.98 186.62 197.34 188.04 194.36 188.17 C 195.85 185.93 197.59 183.88 199.42 181.91 Z" />
</g>
<g id="#010101c7">
<path fill="#010101" opacity="0.78" d=" M 236.06 183.32 C 237.79 184.42 239.49 185.57 241.05 186.91 C 243.21 190.13 245.54 193.24 247.46 196.62 C 249.00 199.36 250.55 202.10 252.04 204.88 C 252.27 207.06 252.40 209.25 252.56 211.45 C 249.27 214.47 246.67 218.27 242.90 220.75 C 242.48 219.10 242.06 217.45 241.65 215.81 C 244.13 214.80 246.76 213.24 247.69 210.57 C 248.00 208.86 247.91 207.13 247.89 205.41 C 244.44 203.45 241.20 201.01 239.14 197.55 C 237.18 194.58 234.61 192.04 232.93 188.90 C 233.07 186.71 235.01 185.14 236.06 183.32 Z" />
</g>
<g id="#969097ff">
<path fill="#969097" opacity="1.00" d=" M 175.22 184.94 C 176.00 186.33 176.78 187.71 177.57 189.11 C 176.43 191.06 175.31 193.04 174.26 195.05 C 172.38 199.54 169.23 203.28 165.52 206.38 C 161.69 205.25 157.62 204.77 153.73 205.88 C 154.11 204.62 154.48 203.35 154.86 202.09 C 154.10 201.46 153.34 200.85 152.58 200.23 C 151.03 202.51 149.48 204.79 148.03 207.13 C 148.54 207.08 149.55 206.99 150.06 206.94 L 149.68 207.78 C 148.19 210.92 147.31 214.29 146.29 217.59 C 144.29 214.47 143.47 210.55 144.96 207.04 C 146.30 202.02 151.13 199.46 154.98 196.59 C 156.11 197.51 157.20 197.39 158.24 196.20 L 159.15 196.15 C 162.16 195.98 165.16 195.85 168.16 195.60 C 172.86 194.73 174.22 188.95 175.22 184.94 M 157.95 198.19 C 157.80 199.87 158.47 201.46 159.20 202.94 C 161.60 201.96 161.88 198.97 162.90 196.90 C 161.26 197.24 159.24 196.91 157.95 198.19 M 165.00 196.44 C 164.30 198.64 163.67 200.86 163.14 203.10 C 166.20 202.79 168.74 201.13 170.17 198.42 C 168.44 197.76 166.74 197.05 165.00 196.44 Z" />
</g>
<g id="#a2a0a2ff">
<path fill="#a2a0a2" opacity="1.00" d=" M 199.40 192.33 C 199.92 189.55 202.96 187.74 205.60 187.70 C 209.06 189.05 212.27 191.06 215.91 191.98 C 216.24 193.26 216.91 194.40 217.32 195.65 C 216.06 195.45 214.81 195.22 213.57 195.00 C 213.57 196.39 213.59 197.78 213.56 199.18 C 213.27 199.37 212.68 199.77 212.38 199.97 C 210.80 200.01 209.23 199.88 207.66 199.81 C 207.92 203.00 210.80 204.43 213.30 205.73 C 210.86 209.67 207.71 214.69 202.43 214.50 C 199.94 213.59 200.06 210.57 199.77 208.40 C 199.79 205.65 198.98 203.01 197.69 200.61 C 198.32 197.86 198.73 195.07 199.40 192.33 M 201.13 193.68 C 199.99 194.49 201.28 196.58 202.49 195.75 C 203.62 194.94 202.33 192.87 201.13 193.68 Z" />
</g>
<g id="#fcb68eff">
<path fill="#fcb68e" opacity="1.00" d=" M 182.26 192.76 C 184.71 191.91 187.27 191.44 189.85 191.15 C 189.30 195.59 187.29 199.61 184.86 203.30 C 184.13 202.40 183.39 201.49 182.67 200.59 C 182.56 199.10 182.52 197.60 182.45 196.12 C 182.40 195.28 182.31 193.60 182.26 192.76 Z" />
</g>
<g id="#ece3dfff">
<path fill="#ece3df" opacity="1.00" d=" M 230.47 192.17 C 231.87 191.75 232.36 192.25 231.93 193.65 C 230.52 194.06 230.04 193.56 230.47 192.17 Z" />
</g>
<g id="#e0dbd6ff">
<path fill="#e0dbd6" opacity="1.00" d=" M 201.13 193.68 C 202.33 192.87 203.62 194.94 202.49 195.75 C 201.28 196.58 199.99 194.49 201.13 193.68 Z" />
</g>
<g id="#d8d3c8ff">
<path fill="#d8d3c8" opacity="1.00" d=" M 224.69 194.31 C 225.09 194.38 225.90 194.53 226.30 194.61 C 227.00 197.08 223.81 196.47 224.69 194.31 Z" />
</g>
<g id="#b4b4b7ff">
<path fill="#b4b4b7" opacity="1.00" d=" M 263.73 194.50 C 264.07 194.47 264.75 194.40 265.09 194.37 C 266.24 201.66 266.83 209.04 267.34 216.40 C 267.87 216.43 268.94 216.47 269.48 216.50 C 269.63 219.07 269.87 221.63 270.20 224.19 C 269.52 224.39 268.18 224.80 267.50 225.00 C 268.45 226.29 269.41 227.57 270.34 228.88 C 270.78 231.54 270.65 234.25 270.48 236.93 C 270.05 236.69 269.20 236.20 268.77 235.96 C 268.13 229.19 265.77 222.68 265.61 215.85 C 265.47 208.70 264.56 201.60 263.73 194.50 Z" />
</g>
<g id="#dfd4cbff">
<path fill="#dfd4cb" opacity="1.00" d=" M 165.52 206.38 C 169.23 203.28 172.38 199.54 174.26 195.05 C 175.24 196.48 176.22 197.90 177.13 199.38 C 177.54 201.56 177.71 203.78 178.00 205.98 L 178.13 206.84 C 176.76 205.85 175.15 204.43 173.34 205.24 C 170.21 206.47 168.44 209.57 166.44 212.09 C 165.64 212.15 164.84 212.21 164.04 212.28 C 164.13 210.72 164.27 209.17 164.49 207.63 C 164.75 207.32 165.26 206.69 165.52 206.38 Z" />
</g>
<g id="#b2afb3ff">
<path fill="#b2afb3" opacity="1.00" d=" M 213.57 195.00 C 214.81 195.22 216.06 195.45 217.32 195.65 C 219.26 196.01 221.28 196.17 223.10 197.01 C 224.16 198.63 224.72 200.52 225.24 202.37 C 225.19 202.74 225.09 203.47 225.04 203.83 C 223.75 203.12 222.48 202.40 221.19 201.72 C 218.81 200.44 216.26 199.44 213.56 199.18 C 213.59 197.78 213.57 196.39 213.57 195.00 Z" />
<path fill="#b2afb3" opacity="1.00" d=" M 238.02 212.87 C 238.55 211.76 239.08 210.64 239.63 209.54 C 239.84 211.81 239.98 214.10 240.15 216.38 C 237.51 219.68 234.77 223.64 230.17 224.08 C 226.93 224.29 223.69 224.00 220.47 223.71 C 222.02 223.00 223.65 222.46 225.33 222.11 C 228.50 221.71 232.10 221.95 234.68 219.69 C 236.84 218.09 237.28 215.28 238.02 212.87 Z" />
<path fill="#b2afb3" opacity="1.00" d=" M 262.85 215.48 C 264.70 218.42 264.51 222.03 264.80 225.36 C 261.36 223.48 263.01 218.66 262.85 215.48 Z" />
</g>
<g id="#474546ba">
<path fill="#474546" opacity="0.73" d=" M 154.98 196.59 C 155.96 195.71 157.04 195.58 158.24 196.20 C 157.20 197.39 156.11 197.51 154.98 196.59 Z" />
</g>
<g id="#838287ff">
<path fill="#838287" opacity="1.00" d=" M 182.45 196.12 C 182.52 197.60 182.56 199.10 182.67 200.59 C 183.39 205.43 187.00 209.06 189.23 213.25 C 186.12 210.53 183.20 207.60 180.35 204.61 C 179.56 205.07 178.78 205.53 178.00 205.98 C 177.71 203.78 177.54 201.56 177.13 199.38 C 178.92 198.33 180.70 197.25 182.45 196.12 Z" />
</g>
<g id="#100e0dff">
<path fill="#100e0d" opacity="1.00" d=" M 254.46 196.08 C 255.10 196.07 256.37 196.05 257.00 196.04 C 258.70 195.95 260.40 195.86 262.10 195.78 C 262.43 197.56 262.76 199.34 263.10 201.12 C 260.02 202.04 257.01 201.46 254.77 199.10 C 254.67 198.09 254.57 197.09 254.46 196.08 Z" />
</g>
<g id="#afabb1ff">
<path fill="#afabb1" opacity="1.00" d=" M 157.95 198.19 C 159.24 196.91 161.26 197.24 162.90 196.90 C 161.88 198.97 161.60 201.96 159.20 202.94 C 158.47 201.46 157.80 199.87 157.95 198.19 Z" />
</g>
<g id="#bbb6bbff">
<path fill="#bbb6bb" opacity="1.00" d=" M 165.00 196.44 C 166.74 197.05 168.44 197.76 170.17 198.42 C 168.74 201.13 166.20 202.79 163.14 203.10 C 163.67 200.86 164.30 198.64 165.00 196.44 Z" />
</g>
<g id="#615e61ff">
<path fill="#615e61" opacity="1.00" d=" M 232.82 214.72 C 236.47 209.66 238.56 203.75 239.14 197.55 C 241.20 201.01 244.44 203.45 247.89 205.41 C 245.73 206.58 243.55 207.69 241.39 208.85 C 241.18 211.27 241.00 213.69 240.81 216.12 L 240.15 216.38 C 239.98 214.10 239.84 211.81 239.63 209.54 C 239.08 210.64 238.55 211.76 238.02 212.87 C 237.62 213.31 236.80 214.18 236.40 214.62 C 235.20 214.65 234.01 214.68 232.82 214.72 Z" />
</g>
<g id="#b2adb3ff">
<path fill="#b2adb3" opacity="1.00" d=" M 152.58 200.23 C 153.34 200.85 154.10 201.46 154.86 202.09 C 154.48 203.35 154.11 204.62 153.73 205.88 C 152.50 206.21 151.28 206.58 150.06 206.94 C 149.55 206.99 148.54 207.08 148.03 207.13 C 149.48 204.79 151.03 202.51 152.58 200.23 Z" />
</g>
<g id="#bfb9baff">
<path fill="#bfb9ba" opacity="1.00" d=" M 189.23 213.25 C 187.00 209.06 183.39 205.43 182.67 200.59 C 183.39 201.49 184.13 202.40 184.86 203.30 C 186.46 205.27 188.09 207.21 189.58 209.26 C 190.47 210.51 191.30 211.80 192.21 213.04 C 190.52 215.04 189.04 217.21 187.84 219.54 C 184.51 215.38 180.99 211.34 178.13 206.84 L 178.00 205.98 C 178.78 205.53 179.56 205.07 180.35 204.61 C 183.20 207.60 186.12 210.53 189.23 213.25 Z" />
<path fill="#bfb9ba" opacity="1.00" d=" M 261.11 201.59 C 262.15 202.12 262.70 202.95 262.77 204.09 C 263.16 207.11 263.47 210.15 263.56 213.21 C 260.39 210.38 261.67 205.39 261.11 201.59 Z" />
</g>
<g id="#efeae6ff">
<path fill="#efeae6" opacity="1.00" d=" M 197.11 206.04 C 196.76 204.22 197.37 202.39 197.69 200.61 C 198.98 203.01 199.79 205.65 199.77 208.40 C 198.87 207.63 197.93 206.90 197.11 206.04 Z" />
</g>
<g id="#aaa4a9ff">
<path fill="#aaa4a9" opacity="1.00" d=" M 221.19 201.72 C 222.48 202.40 223.75 203.12 225.04 203.83 C 223.65 206.43 221.64 208.62 219.45 210.56 C 218.31 209.12 217.11 207.70 215.48 206.80 C 217.37 205.09 219.27 203.40 221.19 201.72 Z" />
<path fill="#aaa4a9" opacity="1.00" d=" M 276.26 227.66 C 276.92 227.45 278.24 227.04 278.90 226.83 C 278.72 230.11 278.76 233.44 278.03 236.66 C 277.62 235.34 277.26 234.02 276.93 232.69 C 276.65 231.02 276.46 229.33 276.26 227.66 Z" />
</g>
<g id="#d5cdc4ff">
<path fill="#d5cdc4" opacity="1.00" d=" M 191.32 204.77 C 192.77 204.40 193.02 206.84 191.90 207.37 C 190.46 207.75 190.21 205.29 191.32 204.77 Z" />
</g>
<g id="#6f6c70f4">
<path fill="#6f6c70" opacity="0.96" d=" M 153.73 205.88 C 157.62 204.77 161.69 205.25 165.52 206.38 C 165.26 206.69 164.75 207.32 164.49 207.63 C 162.42 210.07 160.99 212.95 159.69 215.85 C 159.16 216.06 158.11 216.49 157.58 216.70 L 156.79 217.05 C 157.61 215.36 158.41 213.67 159.29 212.01 C 160.00 210.62 160.70 209.23 161.40 207.84 C 158.19 207.20 154.90 206.98 151.66 207.59 C 151.17 207.64 150.17 207.73 149.68 207.78 L 150.06 206.94 C 151.28 206.58 152.50 206.21 153.73 205.88 Z" />
</g>
<g id="#363238ff">
<path fill="#363238" opacity="1.00" d=" M 247.89 205.41 C 247.91 207.13 248.00 208.86 247.69 210.57 C 246.76 213.24 244.13 214.80 241.65 215.81 L 240.81 216.12 C 241.00 213.69 241.18 211.27 241.39 208.85 C 243.55 207.69 245.73 206.58 247.89 205.41 Z" />
</g>
<g id="#19171880">
<path fill="#191718" opacity="0.50" d=" M 151.66 207.59 C 154.90 206.98 158.19 207.20 161.40 207.84 C 160.70 209.23 160.00 210.62 159.29 212.01 C 158.81 210.62 158.34 209.23 157.87 207.84 C 155.80 207.71 153.73 207.60 151.66 207.59 Z" />
</g>
<g id="#c3bbb5ff">
<path fill="#c3bbb5" opacity="1.00" d=" M 159.69 215.85 C 160.99 212.95 162.42 210.07 164.49 207.63 C 164.27 209.17 164.13 210.72 164.04 212.28 C 163.98 214.22 164.00 216.18 164.05 218.13 C 164.15 221.21 164.39 224.29 164.66 227.36 C 163.93 227.71 162.47 228.40 161.74 228.75 C 161.43 224.21 161.27 219.64 161.59 215.10 C 161.12 215.28 160.16 215.66 159.69 215.85 Z" />
</g>
<g id="#9e9ea2ff">
<path fill="#9e9ea2" opacity="1.00" d=" M 252.56 211.45 C 253.33 210.84 254.11 210.26 254.90 209.69 C 253.30 211.88 251.61 214.01 249.77 216.01 C 247.27 218.70 244.74 221.36 242.07 223.89 C 238.61 227.02 235.52 230.51 232.35 233.93 C 235.26 229.05 240.84 226.08 242.90 220.75 C 246.67 218.27 249.27 214.47 252.56 211.45 Z" />
<path fill="#9e9ea2" opacity="1.00" d=" M 264.20 227.42 C 265.25 228.17 266.55 228.99 266.68 230.42 C 267.31 233.99 267.40 237.62 267.84 241.21 C 268.60 249.31 269.53 257.41 271.14 265.39 C 271.75 269.04 271.46 272.76 271.44 276.45 C 270.78 276.64 269.45 277.02 268.79 277.21 C 268.52 275.75 268.26 274.30 268.06 272.84 C 267.58 264.26 266.24 255.76 265.62 247.19 C 265.12 240.60 263.82 234.05 264.20 227.42 Z" />
<path fill="#9e9ea2" opacity="1.00" d=" M 264.71 264.04 C 263.25 256.48 262.06 248.70 262.82 240.99 C 265.11 248.71 265.87 256.86 265.49 264.90 L 264.71 264.04 Z" />
</g>
<g id="#817e84ff">
<path fill="#817e84" opacity="1.00" d=" M 187.84 219.54 C 189.04 217.21 190.52 215.04 192.21 213.04 C 194.41 215.89 197.43 218.16 199.11 221.39 C 199.17 222.94 198.54 224.41 198.16 225.89 C 196.32 224.06 194.29 222.42 192.27 220.80 C 191.78 221.17 190.81 221.93 190.32 222.30 C 189.48 221.39 188.66 220.47 187.84 219.54 Z" />
</g>
<g id="#5e5855ff">
<path fill="#5e5855" opacity="1.00" d=" M 215.94 219.96 C 220.78 218.61 225.58 216.93 229.69 213.96 C 227.89 216.17 226.44 218.66 225.60 221.40 L 225.33 222.11 C 223.65 222.46 222.02 223.00 220.47 223.71 C 218.50 225.18 216.65 226.81 214.96 228.59 C 214.48 229.64 214.03 230.71 213.61 231.79 C 212.42 229.34 211.47 226.78 210.29 224.32 C 211.91 222.57 213.49 220.53 215.94 219.96 Z" />
</g>
<g id="#fdfdfeff">
<path fill="#fdfdfe" opacity="1.00" d=" M 272.37 214.39 C 273.93 219.18 274.55 225.21 270.34 228.88 C 269.41 227.57 268.45 226.29 267.50 225.00 C 268.18 224.80 269.52 224.39 270.20 224.19 C 270.74 224.02 271.82 223.67 272.36 223.50 C 272.45 220.46 272.22 217.42 272.37 214.39 Z" />
</g>
<g id="#00000023">
</g>
<g id="#000000c2">
<path fill="#000000" opacity="0.76" d=" M 249.77 216.01 C 251.00 217.73 252.30 219.42 253.87 220.86 C 255.35 222.22 256.85 223.55 258.29 224.96 C 258.30 225.47 258.32 226.47 258.34 226.97 C 257.85 226.46 256.86 225.42 256.37 224.90 C 254.74 227.39 252.05 229.69 252.34 232.93 C 252.50 239.20 253.37 245.43 254.11 251.64 C 256.41 251.63 258.71 251.63 261.01 251.63 C 261.09 250.89 261.25 249.41 261.33 248.67 C 261.50 250.03 261.66 251.39 261.78 252.77 C 258.00 253.35 254.72 255.55 251.07 256.40 C 243.72 254.59 236.09 253.97 228.95 251.31 C 229.07 250.54 229.23 249.77 229.40 249.01 C 235.28 251.91 241.88 253.60 248.41 252.10 C 247.05 247.44 245.44 242.80 245.08 237.92 C 244.70 233.13 243.62 228.44 242.07 223.89 C 244.74 221.36 247.27 218.70 249.77 216.01 Z" />
</g>
<g id="#675a4fff">
<path fill="#675a4f" opacity="1.00" d=" M 254.61 216.57 C 256.42 216.48 258.23 216.38 260.05 216.38 C 260.20 219.21 260.25 222.06 260.20 224.90 C 259.72 224.91 258.77 224.95 258.29 224.96 C 256.85 223.55 255.35 222.22 253.87 220.86 C 254.11 219.43 254.36 218.00 254.61 216.57 Z" />
</g>
<g id="#998f93ff">
<path fill="#998f93" opacity="1.00" d=" M 156.79 217.05 L 157.58 216.70 C 156.90 219.57 156.20 222.44 155.80 225.37 C 155.37 228.25 154.58 231.36 155.96 234.12 C 158.60 239.85 165.18 243.10 171.36 242.42 C 173.93 242.44 176.41 241.68 178.80 240.81 C 179.96 241.69 181.13 242.56 182.30 243.44 C 181.73 243.56 180.59 243.78 180.02 243.90 C 178.52 243.34 176.82 243.70 175.88 245.07 C 171.63 245.45 167.35 245.06 163.28 243.74 C 160.52 242.88 157.62 242.62 154.76 242.27 C 154.27 241.96 153.27 241.35 152.77 241.04 C 153.77 240.44 154.77 239.84 155.78 239.24 C 155.57 239.03 155.16 238.59 154.95 238.38 C 153.80 234.61 152.44 230.86 151.91 226.94 C 151.55 223.91 153.50 221.28 154.85 218.73 C 155.50 218.17 156.14 217.61 156.79 217.05 Z" />
</g>
<g id="#eae4e2ff">
<path fill="#eae4e2" opacity="1.00" d=" M 164.05 218.13 C 165.17 217.91 166.30 217.69 167.42 217.48 C 168.14 220.52 169.13 223.59 168.95 226.76 C 167.73 229.80 164.33 229.74 161.74 228.75 C 162.47 228.40 163.93 227.71 164.66 227.36 C 164.39 224.29 164.15 221.21 164.05 218.13 Z" />
</g>
<g id="#fbf8f5ff">
<path fill="#fbf8f5" opacity="1.00" d=" M 206.88 217.78 C 208.12 218.23 209.37 218.68 210.62 219.14 C 210.09 219.59 209.03 220.49 208.50 220.95 L 207.79 221.52 C 207.48 220.27 207.18 219.03 206.88 217.78 Z" />
</g>
<g id="#6a5552ff">
<path fill="#6a5552" opacity="1.00" d=" M 146.50 225.55 C 148.53 222.45 151.39 220.08 154.85 218.73 C 153.50 221.28 151.55 223.91 151.91 226.94 C 152.44 230.86 153.80 234.61 154.95 238.38 C 149.54 236.31 148.26 230.40 146.50 225.55 Z" />
</g>
<g id="#c7bbb4ff">
<path fill="#c7bbb4" opacity="1.00" d=" M 190.32 222.30 C 190.81 221.93 191.78 221.17 192.27 220.80 C 194.29 222.42 196.32 224.06 198.16 225.89 C 199.36 227.77 200.42 229.72 201.50 231.68 C 199.76 230.73 198.06 229.71 196.32 228.79 C 195.10 228.15 193.88 227.54 192.67 226.90 C 191.38 228.87 190.17 230.93 188.55 232.66 C 187.38 234.22 185.22 233.64 183.55 233.95 C 184.63 232.82 185.72 231.72 186.81 230.60 C 188.44 228.93 189.92 227.12 191.34 225.26 C 188.93 225.77 186.53 226.35 184.13 226.92 C 186.21 225.40 188.27 223.86 190.32 222.30 Z" />
</g>
<g id="#aeacb0ff">
<path fill="#aeacb0" opacity="1.00" d=" M 207.79 221.52 L 208.50 220.95 C 209.10 222.06 209.71 223.18 210.29 224.32 C 211.47 226.78 212.42 229.34 213.61 231.79 C 214.50 233.02 215.42 234.22 216.39 235.40 C 216.70 235.75 217.33 236.47 217.65 236.83 C 217.19 237.39 216.28 238.52 215.82 239.08 C 210.51 236.81 205.83 232.50 204.33 226.78 C 203.52 224.20 206.02 222.75 207.79 221.52 M 207.57 222.98 C 206.78 224.01 206.00 225.05 205.21 226.09 C 206.58 228.76 208.12 231.44 210.63 233.21 C 210.08 229.70 209.87 225.87 207.57 222.98 Z" />
</g>
<g id="#02020294">
<path fill="#020202" opacity="0.58" d=" M 278.93 221.68 C 280.00 223.28 281.71 224.77 281.63 226.86 C 281.58 233.14 279.20 239.32 275.16 244.12 C 273.20 246.40 271.52 249.04 271.64 252.18 C 271.39 249.96 271.13 247.73 271.02 245.50 C 274.20 243.34 276.68 240.27 278.03 236.66 C 278.76 233.44 278.72 230.11 278.90 226.83 C 278.94 225.11 278.96 223.39 278.93 221.68 Z" />
<path fill="#020202" opacity="0.58" d=" M 214.96 228.59 C 216.65 226.81 218.50 225.18 220.47 223.71 C 223.69 224.00 226.93 224.29 230.17 224.08 C 226.52 224.79 222.43 224.28 219.12 226.15 C 216.29 229.71 219.15 234.55 219.83 238.46 C 219.39 238.16 218.51 237.57 218.08 237.27 L 217.65 236.83 C 217.33 236.47 216.70 235.75 216.39 235.40 C 215.83 233.14 215.43 230.86 214.96 228.59 Z" />
</g>
<g id="#fbf7f8ff">
<path fill="#fbf7f8" opacity="1.00" d=" M 207.57 222.98 C 209.87 225.87 210.08 229.70 210.63 233.21 C 208.12 231.44 206.58 228.76 205.21 226.09 C 206.00 225.05 206.78 224.01 207.57 222.98 Z" />
</g>
<g id="#00000018">
<path fill="#000000" opacity="0.09" d=" M 213.61 231.79 C 214.03 230.71 214.48 229.64 214.96 228.59 C 215.43 230.86 215.83 233.14 216.39 235.40 C 215.42 234.22 214.50 233.02 213.61 231.79 Z" />
</g>
<g id="#b37052fe">
<path fill="#b37052" opacity="1.00" d=" M 144.73 232.33 C 143.46 229.91 145.06 227.44 146.50 225.55 C 148.26 230.40 149.54 236.31 154.95 238.38 C 155.16 238.59 155.57 239.03 155.78 239.24 C 154.77 239.84 153.77 240.44 152.77 241.04 C 149.81 238.44 146.65 235.83 144.73 232.33 Z" />
</g>
<g id="#6b6c71fe">
<path fill="#6b6c71" opacity="1.00" d=" M 155.96 234.12 C 154.58 231.36 155.37 228.25 155.80 225.37 C 156.89 229.13 157.00 233.40 159.38 236.64 C 162.70 239.68 167.30 240.70 171.36 242.42 C 165.18 243.10 158.60 239.85 155.96 234.12 Z" />
<path fill="#6b6c71" opacity="1.00" d=" M 258.50 230.13 C 259.71 229.50 260.93 228.88 262.15 228.26 C 262.59 230.83 263.17 233.40 263.15 236.02 C 263.00 238.37 261.41 240.25 260.22 242.17 C 259.35 238.20 258.97 234.15 258.50 230.13 Z" />
</g>
<g id="#e5dddaff">
<path fill="#e5ddda" opacity="1.00" d=" M 167.57 228.71 C 170.10 228.07 172.68 227.60 175.29 227.44 C 173.75 229.03 172.18 230.61 170.43 231.99 C 169.49 232.44 168.54 232.88 167.59 233.31 C 167.56 231.77 167.56 230.24 167.57 228.71 Z" />
</g>
<g id="#f1e9e7ff">
<path fill="#f1e9e7" opacity="1.00" d=" M 192.67 226.90 C 193.88 227.54 195.10 228.15 196.32 228.79 C 194.17 230.49 192.00 232.17 189.79 233.80 C 189.41 234.08 188.63 234.65 188.24 234.94 C 186.42 235.75 184.58 236.50 182.75 237.27 C 180.79 236.23 178.81 235.20 176.77 234.32 C 179.74 232.21 183.21 231.05 186.81 230.60 C 185.72 231.72 184.63 232.82 183.55 233.95 C 185.22 233.64 187.38 234.22 188.55 232.66 C 190.17 230.93 191.38 228.87 192.67 226.90 Z" />
<path fill="#f1e9e7" opacity="1.00" d=" M 194.15 236.38 C 194.59 235.11 195.01 233.84 195.38 232.55 C 196.35 234.39 197.24 236.28 197.83 238.28 C 196.60 237.64 195.37 237.01 194.15 236.38 Z" />
</g>
<g id="#a09ba3ff">
<path fill="#a09ba3" opacity="1.00" d=" M 189.79 233.80 C 192.00 232.17 194.17 230.49 196.32 228.79 C 196.03 230.05 195.73 231.31 195.38 232.55 C 195.01 233.84 194.59 235.11 194.15 236.38 C 195.37 237.01 196.60 237.64 197.83 238.28 C 198.84 245.98 192.40 252.63 185.83 255.55 C 188.34 250.40 191.68 245.53 192.62 239.77 C 191.55 237.84 190.61 235.84 189.79 233.80 Z" />
</g>
<g id="#00000015">
</g>
<g id="#00000011">
</g>
<g id="#171b24fc">
<path fill="#171b24" opacity="1.00" d=" M 267.84 241.21 C 268.11 239.45 268.48 237.71 268.77 235.96 C 269.20 236.20 270.05 236.69 270.48 236.93 C 271.01 237.15 272.07 237.58 272.61 237.80 C 272.96 237.94 273.67 238.23 274.02 238.37 C 272.69 240.62 270.63 242.65 271.02 245.50 C 271.13 247.73 271.39 249.96 271.64 252.18 C 272.41 258.31 272.63 264.75 275.73 270.28 C 273.67 271.81 275.90 273.85 277.79 273.34 C 274.60 275.08 271.47 278.66 267.50 277.04 C 267.69 275.64 267.90 274.24 268.06 272.84 C 268.26 274.30 268.52 275.75 268.79 277.21 C 269.45 277.02 270.78 276.64 271.44 276.45 C 271.46 272.76 271.75 269.04 271.14 265.39 C 269.53 257.41 268.60 249.31 267.84 241.21 Z" />
</g>
<g id="#473e3d9d">
<path fill="#473e3d" opacity="0.62" d=" M 154.76 242.27 C 157.62 242.62 160.52 242.88 163.28 243.74 C 160.43 243.39 157.41 243.59 154.76 242.27 Z" />
</g>
<g id="#2d2b2d85">
<path fill="#2d2b2d" opacity="0.52" d=" M 175.88 245.07 C 176.82 243.70 178.52 243.34 180.02 243.90 C 179.00 245.12 177.39 245.55 175.88 245.07 Z" />
</g>
<g id="#a2a1a6f2">
<path fill="#a2a1a6" opacity="0.95" d=" M 263.22 272.03 L 263.88 271.85 C 264.86 272.67 264.86 274.23 263.87 275.05 L 263.23 274.83 C 263.23 274.13 263.22 272.73 263.22 272.03 Z" />
</g>
</svg>

