<?xml version="1.0" encoding="UTF-8" ?>
<!DOCTYPE svg PUBLIC "-//W3C//DTD SVG 1.1//EN" "http://www.w3.org/Graphics/SVG/1.1/DTD/svg11.dtd">
<svg width="384pt" height="384pt" viewBox="0 0 384 384" version="1.1" xmlns="http://www.w3.org/2000/svg">
<g id="#1a1918fe">
<path fill="#1a1918" opacity="1.00" d=" M 211.92 113.73 C 212.44 113.38 213.48 112.70 214.00 112.36 C 219.70 116.64 223.24 123.10 225.10 129.88 C 224.13 128.97 223.12 128.11 222.11 127.25 C 222.03 127.71 221.88 128.63 221.81 129.09 C 219.82 123.26 217.19 117.31 211.92 113.73 Z" />
<path fill="#1a1918" opacity="1.00" d=" M 169.41 135.89 C 172.55 137.09 175.61 138.51 178.51 140.21 C 175.14 142.57 171.31 141.01 167.88 139.72 C 168.41 138.45 168.91 137.17 169.41 135.89 Z" />
</g>
<g id="#434146fe">
<path fill="#434146" opacity="1.00" d=" M 210.48 116.88 C 209.73 120.64 207.67 124.05 204.86 126.63 C 206.77 123.40 208.79 120.23 210.48 116.88 Z" />
<path fill="#434146" opacity="1.00" d=" M 247.41 211.19 C 247.85 209.20 248.70 207.34 249.72 205.59 C 251.54 207.92 251.69 210.92 252.03 213.73 C 252.80 213.27 253.59 212.83 254.37 212.38 C 254.11 212.87 253.59 213.85 253.33 214.34 C 252.81 214.50 251.77 214.84 251.25 215.01 C 250.92 213.60 250.59 212.19 250.26 210.79 C 247.91 215.27 247.55 221.02 243.38 224.36 C 243.63 223.79 244.13 222.66 244.39 222.09 C 245.50 219.41 246.42 216.66 246.99 213.81 C 247.09 213.16 247.31 211.85 247.41 211.19 Z" />
</g>
<g id="#000000c4">
<path fill="#000000" opacity="0.77" d=" M 209.15 125.75 C 215.94 127.27 218.80 134.17 221.09 139.97 C 220.09 140.31 219.10 140.66 218.12 141.03 C 217.11 134.97 213.48 129.92 209.15 125.75 Z" />
<path fill="#000000" opacity="0.77" d=" M 239.63 175.34 C 241.56 174.24 243.53 173.22 245.57 172.31 C 247.41 174.86 251.78 177.21 249.97 180.86 C 248.56 184.59 246.22 187.91 245.07 191.75 C 245.44 192.20 246.18 193.11 246.56 193.56 C 243.93 193.06 241.38 192.21 238.80 191.52 C 240.13 189.14 241.58 186.67 241.90 183.92 C 241.67 180.95 240.62 178.12 239.63 175.34 Z" />
</g>
<g id="#2c323cfc">
<path fill="#2c323c" opacity="1.00" d=" M 222.11 127.25 C 223.12 128.11 224.13 128.97 225.10 129.88 C 227.68 137.12 227.52 144.87 228.24 152.43 C 228.53 153.87 227.96 155.16 226.72 155.94 C 225.65 155.53 224.58 155.13 223.51 154.73 C 223.41 153.59 223.31 152.44 223.21 151.30 C 224.31 143.88 223.48 136.36 221.81 129.09 C 221.88 128.63 222.03 127.71 222.11 127.25 Z" />
</g>
<g id="#282b2c57">
<path fill="#282b2c" opacity="0.34" d=" M 202.99 128.84 C 205.06 129.81 203.21 132.90 201.62 130.95 C 201.97 130.42 202.65 129.37 202.99 128.84 Z" />
</g>
<g id="#36393aff">
<path fill="#36393a" opacity="1.00" d=" M 200.01 134.39 C 201.98 135.72 204.00 136.97 206.10 138.10 C 207.53 142.76 206.74 147.61 205.08 152.09 C 203.02 151.70 200.99 151.22 198.95 150.77 C 203.44 149.48 205.10 143.48 201.96 140.09 C 200.09 138.01 197.38 139.54 195.26 140.24 C 193.41 140.99 191.41 141.25 189.43 141.15 C 185.48 140.85 181.20 140.52 177.72 142.78 C 170.55 147.38 166.05 155.04 163.73 163.09 C 161.11 159.53 159.95 154.80 161.62 150.57 C 162.49 147.30 165.53 145.52 167.96 143.50 C 167.92 143.35 167.84 143.04 167.80 142.89 C 167.68 142.44 167.44 141.53 167.32 141.08 C 167.46 140.74 167.74 140.06 167.88 139.72 C 171.31 141.01 175.14 142.57 178.51 140.21 C 182.16 139.96 186.03 139.61 188.36 136.38 C 190.06 136.73 191.75 137.32 193.51 137.31 C 195.80 136.65 197.89 135.46 200.01 134.39 Z" />
</g>
<g id="#2e3644fd">
<path fill="#2e3644" opacity="1.00" d=" M 155.44 135.66 C 160.08 135.49 164.82 134.88 169.41 135.89 C 168.91 137.17 168.41 138.45 167.88 139.72 C 167.74 140.06 167.46 140.74 167.32 141.08 C 166.77 140.69 165.66 139.91 165.11 139.52 C 163.53 138.43 161.83 137.55 160.07 136.80 C 160.27 137.72 160.48 138.63 160.69 139.55 C 158.82 140.20 156.95 140.85 155.18 141.74 C 153.60 140.52 151.30 139.88 150.45 137.98 C 150.83 135.57 153.64 136.00 155.44 135.66 Z" />
</g>
<g id="#948988ff">
<path fill="#948988" opacity="1.00" d=" M 160.07 136.80 C 161.83 137.55 163.53 138.43 165.11 139.52 C 163.53 141.54 166.03 142.83 167.80 142.89 C 167.84 143.04 167.92 143.35 167.96 143.50 C 165.53 145.52 162.49 147.30 161.62 150.57 C 159.95 154.80 161.11 159.53 163.73 163.09 C 166.05 155.04 170.55 147.38 177.72 142.78 C 181.20 140.52 185.48 140.85 189.43 141.15 C 190.80 142.20 192.19 143.24 193.59 144.26 C 194.58 144.11 195.56 143.96 196.55 143.81 C 197.21 146.17 198.02 148.49 198.95 150.77 C 200.99 151.22 203.02 151.70 205.08 152.09 C 209.89 150.13 212.81 145.46 217.20 142.82 C 216.66 144.81 215.51 146.52 214.28 148.15 C 214.64 148.36 215.37 148.79 215.73 149.00 C 213.42 154.79 209.57 161.80 213.13 167.83 C 212.13 167.57 211.13 167.29 210.13 167.01 C 209.18 166.66 207.61 166.16 207.16 167.49 C 206.74 169.23 209.26 169.31 210.21 168.51 C 210.82 169.47 211.46 170.41 212.10 171.35 C 208.89 172.49 204.33 173.94 202.29 170.16 C 203.39 170.08 204.49 170.01 205.59 169.95 C 204.42 165.87 203.98 161.65 203.75 157.44 C 200.61 159.68 201.73 164.26 200.95 167.60 C 198.60 167.79 196.32 168.42 194.24 169.53 C 193.83 168.94 193.06 168.38 192.48 169.10 C 190.53 171.71 188.81 174.52 187.33 177.42 C 186.89 179.65 187.48 181.93 187.75 184.15 C 187.06 181.99 186.19 179.90 185.19 177.88 C 181.55 180.46 177.91 183.84 173.07 183.16 C 172.63 182.80 171.75 182.07 171.31 181.70 C 169.10 180.99 166.94 182.19 164.79 182.56 C 163.91 182.49 163.05 182.40 162.18 182.29 C 162.45 179.09 164.90 176.90 166.99 174.74 C 167.49 169.97 164.38 166.08 160.47 163.81 C 160.32 163.11 160.02 161.71 159.87 161.01 C 158.78 156.33 159.80 151.56 161.24 147.08 C 161.96 146.02 162.66 144.95 163.38 143.90 C 163.60 143.60 164.03 143.02 164.24 142.73 C 163.05 141.67 161.87 140.61 160.69 139.55 C 160.48 138.63 160.27 137.72 160.07 136.80 M 176.52 147.74 C 173.33 149.42 171.47 152.63 169.48 155.49 C 167.61 158.38 165.69 161.85 166.66 165.40 C 167.74 169.15 168.97 172.88 170.63 176.41 C 171.93 178.71 174.88 181.44 177.60 179.60 C 182.56 176.69 185.62 171.52 190.42 168.39 C 192.84 166.75 195.57 165.59 197.91 163.81 C 199.89 162.35 199.84 159.61 199.61 157.42 C 199.14 152.55 195.92 148.46 192.15 145.58 C 187.52 141.37 179.95 143.01 176.52 147.74 M 200.07 151.86 C 199.86 154.20 200.55 156.56 202.97 157.43 C 204.20 156.23 204.69 154.58 205.14 152.98 C 203.51 152.35 201.81 151.92 200.07 151.86 M 207.04 165.03 C 210.75 163.44 209.68 158.92 210.07 155.69 C 206.51 157.25 205.59 161.69 207.04 165.03 Z" />
</g>
<g id="#161515ff">
<path fill="#161515" opacity="1.00" d=" M 206.10 138.10 C 209.69 139.97 213.48 141.46 217.44 142.36 L 217.20 142.82 C 212.81 145.46 209.89 150.13 205.08 152.09 C 206.74 147.61 207.53 142.76 206.10 138.10 Z" />
</g>
<g id="#0e0e10ff">
<path fill="#0e0e10" opacity="1.00" d=" M 195.26 140.24 C 197.38 139.54 200.09 138.01 201.96 140.09 C 205.10 143.48 203.44 149.48 198.95 150.77 C 198.02 148.49 197.21 146.17 196.55 143.81 C 195.56 143.96 194.58 144.11 193.59 144.26 C 192.19 143.24 190.80 142.20 189.43 141.15 C 191.41 141.25 193.41 140.99 195.26 140.24 Z" />
</g>
<g id="#cb8360ff">
<path fill="#cb8360" opacity="1.00" d=" M 155.18 141.74 C 156.95 140.85 158.82 140.20 160.69 139.55 C 161.87 140.61 163.05 141.67 164.24 142.73 C 164.03 143.02 163.60 143.60 163.38 143.90 C 161.71 144.05 160.02 144.10 158.37 144.43 C 155.05 147.98 154.31 153.05 152.76 157.50 C 150.74 155.07 147.44 152.65 148.43 149.05 C 149.66 145.87 152.61 143.80 155.18 141.74 Z" />
</g>
<g id="#ede5ddff">
<path fill="#ede5dd" opacity="1.00" d=" M 167.80 142.89 C 166.03 142.83 163.53 141.54 165.11 139.52 C 165.66 139.91 166.77 140.69 167.32 141.08 C 167.44 141.53 167.68 142.44 167.80 142.89 Z" />
</g>
<g id="#656160ff">
<path fill="#656160" opacity="1.00" d=" M 218.12 141.03 C 219.10 140.66 220.09 140.31 221.09 139.97 L 221.26 140.85 C 221.50 147.23 216.13 151.34 213.77 156.75 C 213.42 159.25 214.23 161.66 215.17 163.94 C 217.84 163.43 220.47 164.15 222.99 164.98 C 223.77 165.42 224.47 165.98 225.11 166.60 C 226.19 167.99 227.25 169.40 228.48 170.66 C 229.34 172.01 230.19 173.39 230.94 174.81 C 228.68 174.08 226.27 174.37 223.97 173.88 C 223.17 172.73 222.55 171.48 221.86 170.27 C 218.75 169.93 216.46 167.17 213.13 167.83 C 209.57 161.80 213.42 154.79 215.73 149.00 C 215.37 148.79 214.64 148.36 214.28 148.15 C 215.51 146.52 216.66 144.81 217.20 142.82 L 217.44 142.36 C 217.61 142.03 217.95 141.36 218.12 141.03 M 225.27 172.12 C 225.77 172.62 225.77 172.62 225.27 172.12 Z" />
</g>
<g id="#191817ff">
<path fill="#191817" opacity="1.00" d=" M 221.26 140.85 C 221.87 144.34 222.46 147.84 223.21 151.30 C 223.31 152.44 223.41 153.59 223.51 154.73 C 224.58 155.13 225.65 155.53 226.72 155.94 C 228.31 156.72 229.86 157.59 231.43 158.42 C 230.82 159.24 230.21 160.06 229.60 160.89 C 229.12 161.53 228.64 162.17 228.16 162.81 C 230.72 164.55 233.89 165.95 235.11 169.02 C 235.09 169.44 235.07 170.28 235.05 170.70 C 233.25 168.97 231.65 166.97 229.51 165.63 C 227.99 165.63 226.56 166.22 225.11 166.60 C 224.47 165.98 223.77 165.42 222.99 164.98 C 221.16 161.06 217.03 159.27 213.77 156.75 C 216.13 151.34 221.50 147.23 221.26 140.85 Z" />
<path fill="#191817" opacity="1.00" d=" M 110.20 206.46 C 116.23 205.77 122.26 205.06 128.34 205.21 C 125.64 205.52 122.95 205.93 120.24 206.20 C 117.38 206.44 114.50 206.40 111.65 206.69 C 110.36 206.77 110.20 207.98 110.64 208.95 L 110.73 209.68 C 106.76 209.55 102.45 210.85 98.81 208.72 C 101.48 208.07 104.18 208.80 106.83 209.17 C 107.94 208.27 108.77 206.86 110.20 206.46 Z" />
</g>
<g id="#4e565cff">
<path fill="#4e565c" opacity="1.00" d=" M 176.52 147.74 C 179.95 143.01 187.52 141.37 192.15 145.58 C 189.00 148.27 187.58 152.19 186.33 156.01 C 183.42 154.10 180.15 152.87 176.71 152.40 C 176.67 150.84 176.58 149.29 176.52 147.74 Z" />
</g>
<g id="#93634cff">
<path fill="#93634c" opacity="1.00" d=" M 158.37 144.43 C 160.02 144.10 161.71 144.05 163.38 143.90 C 162.66 144.95 161.96 146.02 161.24 147.08 C 156.71 149.08 156.42 154.35 156.27 158.64 C 157.47 159.43 158.67 160.22 159.87 161.01 C 160.02 161.71 160.32 163.11 160.47 163.81 C 157.33 162.47 154.95 160.04 152.76 157.50 C 154.31 153.05 155.05 147.98 158.37 144.43 Z" />
</g>
<g id="#404344ff">
<path fill="#404344" opacity="1.00" d=" M 192.15 145.58 C 195.92 148.46 199.14 152.55 199.61 157.42 C 199.84 159.61 199.89 162.35 197.91 163.81 C 195.57 165.59 192.84 166.75 190.42 168.39 C 185.62 171.52 182.56 176.69 177.60 179.60 C 174.88 181.44 171.93 178.71 170.63 176.41 C 168.97 172.88 167.74 169.15 166.66 165.40 C 165.69 161.85 167.61 158.38 169.48 155.49 C 171.47 152.63 173.33 149.42 176.52 147.74 C 176.58 149.29 176.67 150.84 176.71 152.40 C 180.15 152.87 183.42 154.10 186.33 156.01 C 187.58 152.19 189.00 148.27 192.15 145.58 M 176.25 157.23 C 176.85 157.83 176.85 157.83 176.25 157.23 Z" />
</g>
<g id="#cd8a6bff">
<path fill="#cd8a6b" opacity="1.00" d=" M 156.27 158.64 C 156.42 154.35 156.71 149.08 161.24 147.08 C 159.80 151.56 158.78 156.33 159.87 161.01 C 158.67 160.22 157.47 159.43 156.27 158.64 Z" />
</g>
<g id="#df9c7bff">
<path fill="#df9c7b" opacity="1.00" d=" M 200.07 151.86 C 201.81 151.92 203.51 152.35 205.14 152.98 C 204.69 154.58 204.20 156.23 202.97 157.43 C 200.55 156.56 199.86 154.20 200.07 151.86 Z" />
<path fill="#df9c7b" opacity="1.00" d=" M 192.48 169.10 C 193.06 168.38 193.83 168.94 194.24 169.53 C 191.48 175.37 189.21 181.81 189.77 188.36 C 191.99 194.47 195.74 200.52 201.79 203.46 C 201.70 203.95 201.53 204.91 201.44 205.39 C 200.30 205.91 199.17 206.43 198.03 206.96 C 196.41 207.10 194.79 207.18 193.17 207.26 C 191.54 207.10 189.93 206.89 188.32 206.70 C 184.79 202.90 186.75 197.64 187.10 193.11 C 184.50 192.12 181.81 191.40 179.08 190.88 C 176.67 188.64 174.95 185.83 173.07 183.16 C 177.91 183.84 181.55 180.46 185.19 177.88 C 186.19 179.90 187.06 181.99 187.75 184.15 C 187.48 181.93 186.89 179.65 187.33 177.42 C 188.81 174.52 190.53 171.71 192.48 169.10 Z" />
</g>
<g id="#f3ecedff">
<path fill="#f3eced" opacity="1.00" d=" M 207.04 165.03 C 205.59 161.69 206.51 157.25 210.07 155.69 C 209.68 158.92 210.75 163.44 207.04 165.03 Z" />
</g>
<g id="#f6f6f6ff">
<path fill="#f6f6f6" opacity="1.00" d=" M 176.25 157.23 C 176.85 157.83 176.85 157.83 176.25 157.23 Z" />
</g>
<g id="#a5837cff">
<path fill="#a5837c" opacity="1.00" d=" M 213.77 156.75 C 217.03 159.27 221.16 161.06 222.99 164.98 C 220.47 164.15 217.84 163.43 215.17 163.94 C 214.23 161.66 213.42 159.25 213.77 156.75 Z" />
<path fill="#a5837c" opacity="1.00" d=" M 100.21 214.10 C 102.93 211.37 106.67 211.03 110.23 212.08 C 110.02 213.98 109.97 215.90 110.05 217.81 C 106.94 217.36 103.84 216.83 100.72 216.42 C 100.59 215.84 100.34 214.68 100.21 214.10 Z" />
</g>
<g id="#6b6867ff">
<path fill="#6b6867" opacity="1.00" d=" M 200.95 167.60 C 201.73 164.26 200.61 159.68 203.75 157.44 C 203.98 161.65 204.42 165.87 205.59 169.95 C 204.49 170.01 203.39 170.08 202.29 170.16 C 201.96 169.52 201.28 168.24 200.95 167.60 Z" />
</g>
<g id="#c4b9b3ff">
<path fill="#c4b9b3" opacity="1.00" d=" M 228.16 162.81 C 228.64 162.17 229.12 161.53 229.60 160.89 C 232.71 162.82 236.12 165.02 237.12 168.81 C 237.10 170.25 237.06 171.70 237.00 173.15 C 236.38 171.77 235.77 170.38 235.11 169.02 C 233.89 165.95 230.72 164.55 228.16 162.81 Z" />
<path fill="#c4b9b3" opacity="1.00" d=" M 254.67 176.94 C 257.19 174.00 261.48 173.45 264.87 175.12 C 265.52 176.31 265.80 177.66 266.19 178.95 C 264.67 182.41 262.56 185.56 261.06 189.03 C 258.08 189.31 254.47 190.10 252.62 187.04 C 253.69 184.08 254.63 181.03 254.64 177.85 L 254.67 176.94 Z" />
</g>
<g id="#827e7aff">
<path fill="#827e7a" opacity="1.00" d=" M 225.11 166.60 C 226.56 166.22 227.99 165.63 229.51 165.63 C 231.65 166.97 233.25 168.97 235.05 170.70 C 235.07 170.28 235.09 169.44 235.11 169.02 C 235.77 170.38 236.38 171.77 237.00 173.15 C 237.06 171.70 237.10 170.25 237.12 168.81 C 237.62 170.16 238.10 171.53 238.60 172.89 C 238.04 175.80 235.27 174.56 233.42 173.83 C 232.06 172.37 230.39 171.26 228.48 170.66 C 227.25 169.40 226.19 167.99 225.11 166.60 Z" />
</g>
<g id="#f4efe9ff">
<path fill="#f4efe9" opacity="1.00" d=" M 207.16 167.49 C 207.61 166.16 209.18 166.66 210.13 167.01 C 210.15 167.39 210.19 168.14 210.21 168.51 C 209.26 169.31 206.74 169.23 207.16 167.49 Z" />
</g>
<g id="#eca98aff">
<path fill="#eca98a" opacity="1.00" d=" M 255.59 169.63 C 257.65 168.01 260.16 167.14 262.54 166.10 C 263.14 168.39 264.20 170.51 266.03 172.06 C 268.55 173.77 266.61 176.69 266.19 178.95 C 265.80 177.66 265.52 176.31 264.87 175.12 C 261.48 173.45 257.19 174.00 254.67 176.94 C 254.51 174.48 254.24 171.84 255.59 169.63 Z" />
</g>
<g id="#9b999cff">
<path fill="#9b999c" opacity="1.00" d=" M 210.13 167.01 C 211.13 167.29 212.13 167.57 213.13 167.83 C 213.65 171.40 212.56 174.94 210.68 177.96 C 209.51 178.70 208.36 179.48 207.23 180.29 C 206.56 180.31 205.89 180.33 205.22 180.35 C 206.30 181.31 207.38 182.26 208.47 183.21 C 207.84 185.15 206.54 186.72 204.99 188.00 C 204.23 188.51 203.49 189.03 202.75 189.55 C 202.95 190.28 203.16 191.02 203.37 191.76 C 203.02 191.89 202.33 192.15 201.99 192.28 C 202.11 193.01 202.23 193.75 202.36 194.49 C 201.48 194.50 200.60 194.51 199.72 194.52 C 199.38 191.28 199.50 187.91 198.15 184.88 L 198.49 184.12 C 198.62 183.80 198.89 183.16 199.02 182.85 C 199.75 183.48 200.49 184.11 201.24 184.73 C 200.66 183.02 200.03 181.34 199.47 179.63 C 198.67 175.54 199.88 171.51 200.95 167.60 C 201.28 168.24 201.96 169.52 202.29 170.16 C 204.33 173.94 208.89 172.49 212.10 171.35 C 211.46 170.41 210.82 169.47 210.21 168.51 C 210.19 168.14 210.15 167.39 210.13 167.01 Z" />
</g>
<g id="#737072ff">
<path fill="#737072" opacity="1.00" d=" M 194.24 169.53 C 196.32 168.42 198.60 167.79 200.95 167.60 C 199.88 171.51 198.67 175.54 199.47 179.63 C 198.59 180.02 197.72 180.40 196.85 180.79 C 197.57 181.48 198.29 182.16 199.02 182.85 C 198.89 183.16 198.62 183.80 198.49 184.12 C 197.50 181.75 195.70 184.94 198.15 184.88 C 199.50 187.91 199.38 191.28 199.72 194.52 C 200.90 196.15 202.21 197.87 204.13 198.68 C 206.51 198.28 208.56 196.92 210.58 195.68 C 210.89 192.93 211.55 190.23 212.70 187.70 C 212.94 188.93 213.21 190.17 213.50 191.40 C 213.81 191.51 214.41 191.74 214.71 191.85 C 216.52 192.50 218.35 193.16 220.27 193.37 C 221.97 193.72 222.94 191.87 224.15 191.01 C 224.25 194.48 224.62 197.98 223.96 201.42 C 220.49 202.35 216.62 203.34 214.43 206.45 C 212.63 213.28 218.31 218.54 221.71 223.72 C 222.61 225.11 223.47 226.54 224.33 227.97 C 223.56 228.74 222.78 229.53 222.02 230.32 C 219.46 230.10 216.97 229.26 214.85 227.81 C 214.26 227.02 213.70 226.21 213.14 225.41 C 209.90 221.15 207.53 216.30 204.06 212.22 C 201.70 212.22 199.32 212.25 196.98 212.60 C 196.44 211.41 195.90 210.21 195.36 209.02 C 196.24 208.32 197.12 207.62 198.03 206.96 C 199.17 206.43 200.30 205.91 201.44 205.39 C 201.53 204.91 201.70 203.95 201.79 203.46 C 195.74 200.52 191.99 194.47 189.77 188.36 C 189.21 181.81 191.48 175.37 194.24 169.53 M 191.37 180.53 C 190.56 181.61 190.47 183.39 191.28 184.49 C 192.77 184.39 192.86 180.67 191.37 180.53 M 218.11 199.20 C 217.64 200.62 218.10 201.07 219.51 200.55 C 220.00 199.14 219.53 198.69 218.11 199.20 M 205.65 207.10 C 205.84 210.25 207.93 212.81 209.59 215.34 L 210.08 215.94 C 211.12 218.05 212.75 219.88 215.17 220.34 C 213.94 214.62 210.98 209.42 208.07 204.40 C 207.10 205.16 206.29 206.07 205.65 207.10 Z" />
</g>
<g id="#8a8689ff">
<path fill="#8a8689" opacity="1.00" d=" M 213.13 167.83 C 216.46 167.17 218.75 169.93 221.86 170.27 C 222.55 171.48 223.17 172.73 223.97 173.88 C 226.27 174.37 228.68 174.08 230.94 174.81 C 231.23 175.72 231.48 176.65 231.78 177.56 C 228.32 181.46 230.77 186.76 229.96 191.39 C 228.95 191.01 227.94 190.64 226.97 190.18 C 226.20 187.46 226.81 184.57 226.65 181.79 C 224.10 184.02 224.73 187.94 224.15 191.01 C 222.94 191.87 221.97 193.72 220.27 193.37 C 218.35 193.16 216.52 192.50 214.71 191.85 C 217.18 188.80 220.76 187.17 224.39 185.91 C 224.33 184.10 224.53 182.23 224.04 180.46 C 223.09 178.81 221.15 178.20 219.56 177.34 C 218.87 178.09 218.19 178.84 217.50 179.60 C 215.99 178.88 214.47 178.16 212.96 177.44 C 212.81 179.19 212.68 180.94 212.42 182.68 L 211.67 183.08 C 211.32 181.38 210.99 179.67 210.68 177.96 C 212.56 174.94 213.65 171.40 213.13 167.83 Z" />
</g>
<g id="#ccc8c3ff">
<path fill="#ccc8c3" opacity="1.00" d=" M 228.48 170.66 C 230.39 171.26 232.06 172.37 233.42 173.83 C 235.48 177.67 238.09 182.07 236.05 186.50 C 234.60 183.54 233.16 180.57 231.78 177.56 C 231.48 176.65 231.23 175.72 230.94 174.81 C 230.19 173.39 229.34 172.01 228.48 170.66 Z" />
</g>
<g id="#978f89ff">
<path fill="#978f89" opacity="1.00" d=" M 225.27 172.12 C 225.77 172.62 225.77 172.62 225.27 172.12 Z" />
</g>
<g id="#686363ff">
<path fill="#686363" opacity="1.00" d=" M 233.42 173.83 C 235.27 174.56 238.04 175.80 238.60 172.89 C 238.94 173.70 239.28 174.52 239.63 175.34 C 240.62 178.12 241.67 180.95 241.90 183.92 C 241.58 186.67 240.13 189.14 238.80 191.52 C 237.59 192.59 236.32 193.59 235.08 194.62 C 233.93 195.57 232.78 196.53 231.64 197.49 C 230.83 198.16 230.01 198.83 229.22 199.53 C 228.93 199.80 228.36 200.35 228.07 200.62 C 229.60 203.17 232.18 205.65 231.19 208.89 C 230.23 205.21 227.64 202.44 223.96 201.42 C 224.62 197.98 224.25 194.48 224.15 191.01 C 224.73 187.94 224.10 184.02 226.65 181.79 C 226.81 184.57 226.20 187.46 226.97 190.18 C 227.94 190.64 228.95 191.01 229.96 191.39 C 230.77 186.76 228.32 181.46 231.78 177.56 C 233.16 180.57 234.60 183.54 236.05 186.50 C 238.09 182.07 235.48 177.67 233.42 173.83 M 237.34 176.24 C 237.84 176.74 237.84 176.74 237.34 176.24 M 228.70 196.33 C 231.20 196.23 233.55 194.80 233.19 192.00 C 230.92 192.48 229.64 194.37 228.70 196.33 Z" />
</g>
<g id="#9a958fff">
<path fill="#9a958f" opacity="1.00" d=" M 237.34 176.24 C 237.84 176.74 237.84 176.74 237.34 176.24 Z" />
</g>
<g id="#b6b1b6ff">
<path fill="#b6b1b6" opacity="1.00" d=" M 212.96 177.44 C 214.47 178.16 215.99 178.88 217.50 179.60 C 218.19 178.84 218.87 178.09 219.56 177.34 C 221.15 178.20 223.09 178.81 224.04 180.46 C 224.53 182.23 224.33 184.10 224.39 185.91 C 220.76 187.17 217.18 188.80 214.71 191.85 C 214.41 191.74 213.81 191.51 213.50 191.40 C 213.21 190.17 212.94 188.93 212.70 187.70 L 212.88 186.89 C 215.62 186.72 218.36 186.45 221.06 185.95 C 219.05 183.09 215.82 181.98 212.42 182.68 C 212.68 180.94 212.81 179.19 212.96 177.44 Z" />
</g>
<g id="#d0cfd0ff">
<path fill="#d0cfd0" opacity="1.00" d=" M 207.23 180.29 C 208.36 179.48 209.51 178.70 210.68 177.96 C 210.99 179.67 211.32 181.38 211.67 183.08 C 210.70 183.83 209.83 184.69 208.97 185.56 C 209.68 185.73 211.11 186.08 211.82 186.25 C 209.74 187.48 207.32 187.68 204.99 188.00 C 206.54 186.72 207.84 185.15 208.47 183.21 C 207.38 182.26 206.30 181.31 205.22 180.35 C 205.89 180.33 206.56 180.31 207.23 180.29 Z" />
<path fill="#d0cfd0" opacity="1.00" d=" M 129.55 224.60 C 130.80 223.55 132.39 223.76 133.86 224.13 C 138.93 225.12 144.26 228.85 149.35 226.10 C 149.41 226.55 149.51 227.45 149.56 227.90 C 149.16 228.24 148.35 228.93 147.94 229.27 C 141.78 227.83 135.72 226.00 129.55 224.60 Z" />
</g>
<g id="#817570ff">
<path fill="#817570" opacity="1.00" d=" M 248.62 190.61 C 250.82 186.45 253.72 182.55 254.64 177.85 C 254.63 181.03 253.69 184.08 252.62 187.04 C 254.47 190.10 258.08 189.31 261.06 189.03 C 260.72 190.35 260.44 191.70 260.16 193.04 C 258.27 193.26 257.25 195.40 258.03 197.08 C 257.33 197.75 256.64 198.43 255.96 199.12 C 255.76 196.45 255.24 193.83 254.66 191.23 C 252.67 190.84 250.65 190.64 248.62 190.61 Z" />
</g>
<g id="#fefefeff">
<path fill="#fefefe" opacity="1.00" d=" M 191.37 180.53 C 192.86 180.67 192.77 184.39 191.28 184.49 C 190.47 183.39 190.56 181.61 191.37 180.53 Z" />
<path fill="#fefefe" opacity="1.00" d=" M 235.57 212.28 C 236.53 212.56 237.49 212.85 238.46 213.15 C 239.06 215.39 240.12 217.78 239.09 220.07 C 237.55 223.91 235.89 227.95 232.92 230.91 C 228.28 233.22 222.91 233.30 217.88 234.13 C 215.52 232.84 213.25 231.40 210.91 230.08 C 212.23 229.35 213.52 228.55 214.85 227.81 C 216.97 229.26 219.46 230.10 222.02 230.32 C 225.25 230.03 226.38 227.14 227.01 224.41 C 228.65 224.05 230.29 223.72 231.93 223.40 C 234.17 220.10 235.54 216.28 235.57 212.28 Z" />
</g>
<g id="#fcf7f6ff">
<path fill="#fcf7f6" opacity="1.00" d=" M 196.85 180.79 C 197.72 180.40 198.59 180.02 199.47 179.63 C 200.03 181.34 200.66 183.02 201.24 184.73 C 200.49 184.11 199.75 183.48 199.02 182.85 C 198.29 182.16 197.57 181.48 196.85 180.79 Z" />
<path fill="#fcf7f6" opacity="1.00" d=" M 231.64 197.49 C 232.78 196.53 233.93 195.57 235.08 194.62 C 235.56 195.04 236.51 195.87 236.99 196.29 C 235.66 198.16 233.59 199.43 231.64 197.49 Z" />
<path fill="#fcf7f6" opacity="1.00" d=" M 228.07 200.62 C 228.36 200.35 228.93 199.80 229.22 199.53 C 230.74 201.13 232.20 202.80 233.54 204.56 C 233.51 205.70 233.47 206.85 233.44 207.99 C 234.18 208.45 236.41 208.78 235.30 210.01 C 232.32 213.10 231.12 217.27 229.58 221.17 C 228.24 220.17 226.91 219.17 225.58 218.16 C 225.43 220.71 224.35 223.00 221.71 223.72 C 218.31 218.54 212.63 213.28 214.43 206.45 C 216.62 203.34 220.49 202.35 223.96 201.42 C 227.64 202.44 230.23 205.21 231.19 208.89 C 232.18 205.65 229.60 203.17 228.07 200.62 Z" />
</g>
<g id="#452b1dff">
<path fill="#452b1d" opacity="1.00" d=" M 164.79 182.56 C 166.94 182.19 169.10 180.99 171.31 181.70 C 172.00 184.24 172.79 186.75 173.38 189.32 C 173.74 191.59 174.05 193.88 174.41 196.16 C 174.74 198.47 175.07 200.78 175.60 203.05 C 176.01 204.21 176.44 205.37 176.91 206.52 C 177.49 207.96 178.11 209.40 178.80 210.81 C 179.69 212.54 180.84 214.13 182.20 215.52 C 184.81 217.90 187.85 220.03 191.46 220.41 C 191.56 219.73 191.75 218.39 191.85 217.71 C 192.53 218.74 193.21 219.77 193.90 220.80 C 192.52 225.10 192.78 229.69 193.84 234.03 C 193.32 232.94 192.83 231.85 192.37 230.75 C 192.28 228.85 192.23 226.95 192.17 225.06 C 188.30 223.54 184.14 223.17 180.07 223.99 L 180.57 223.46 C 182.39 223.31 184.21 223.14 186.03 222.95 C 182.85 219.85 178.84 217.90 174.82 216.14 C 175.71 215.27 176.60 214.39 177.51 213.53 C 176.81 211.58 175.92 209.70 174.92 207.90 C 172.94 207.92 170.96 207.93 168.99 207.93 C 167.05 206.35 164.74 204.72 164.65 201.96 C 164.12 197.55 161.19 193.63 161.72 189.07 C 161.69 186.52 163.35 184.49 164.79 182.56 Z" />
</g>
<g id="#817470ff">
<path fill="#817470" opacity="1.00" d=" M 162.18 182.29 C 163.05 182.40 163.91 182.49 164.79 182.56 C 163.35 184.49 161.69 186.52 161.72 189.07 C 161.19 193.63 164.12 197.55 164.65 201.96 C 164.74 204.72 167.05 206.35 168.99 207.93 C 168.33 208.89 167.68 209.86 167.04 210.84 C 165.65 214.84 167.88 219.03 168.01 223.10 C 167.58 223.06 166.72 222.98 166.29 222.94 L 166.12 222.09 C 164.94 217.32 164.68 212.35 163.31 207.63 C 162.92 206.07 161.23 205.58 160.08 204.74 C 159.85 207.41 159.70 210.09 159.57 212.76 C 159.07 212.75 158.05 212.73 157.55 212.72 C 156.83 209.70 158.10 204.74 154.26 203.64 C 152.67 203.08 150.95 203.00 149.28 202.99 C 147.76 202.96 146.24 202.96 144.72 202.97 C 150.82 202.11 156.99 201.75 162.99 200.29 C 161.86 196.96 160.84 193.54 160.64 190.02 C 160.91 187.40 161.72 184.88 162.18 182.29 Z" />
</g>
<g id="#60534eff">
<path fill="#60534e" opacity="1.00" d=" M 171.31 181.70 C 171.75 182.07 172.63 182.80 173.07 183.16 C 174.95 185.83 176.67 188.64 179.08 190.88 C 180.15 191.95 181.25 193.00 182.31 194.10 C 180.86 194.86 179.26 195.26 177.63 195.39 C 179.23 198.02 180.52 200.82 181.59 203.70 C 181.12 204.83 179.85 206.00 180.64 207.30 C 181.15 208.60 182.87 208.64 183.95 209.27 C 185.78 209.54 187.63 209.27 189.34 208.60 C 190.61 208.14 191.88 207.67 193.17 207.26 C 194.79 207.18 196.41 207.10 198.03 206.96 C 197.12 207.62 196.24 208.32 195.36 209.02 C 195.90 210.21 196.44 211.41 196.98 212.60 C 196.70 212.83 196.13 213.29 195.84 213.51 C 195.38 213.90 194.45 214.68 193.99 215.08 C 194.97 215.78 195.96 216.47 196.93 217.21 C 195.90 218.39 194.87 219.57 193.90 220.80 C 193.21 219.77 192.53 218.74 191.85 217.71 C 191.75 218.39 191.56 219.73 191.46 220.41 C 187.85 220.03 184.81 217.90 182.20 215.52 C 182.52 214.32 183.65 212.83 182.31 211.82 C 181.15 211.42 179.98 211.09 178.80 210.81 C 178.11 209.40 177.49 207.96 176.91 206.52 C 177.75 204.55 178.69 202.33 177.04 200.48 C 176.68 201.12 175.96 202.41 175.60 203.05 C 175.07 200.78 174.74 198.47 174.41 196.16 C 174.97 195.10 175.58 194.06 175.99 192.93 C 176.21 191.22 174.34 190.40 173.38 189.32 C 172.79 186.75 172.00 184.24 171.31 181.70 Z" />
<path fill="#60534e" opacity="1.00" d=" M 98.81 208.72 C 102.45 210.85 106.76 209.55 110.73 209.68 C 110.60 210.28 110.36 211.48 110.23 212.08 C 106.67 211.03 102.93 211.37 100.21 214.10 C 99.74 212.90 99.11 211.76 98.42 210.67 C 98.52 210.19 98.72 209.21 98.81 208.72 Z" />
</g>
<g id="#f2edf1ff">
<path fill="#f2edf1" opacity="1.00" d=" M 212.42 182.68 C 215.82 181.98 219.05 183.09 221.06 185.95 C 218.36 186.45 215.62 186.72 212.88 186.89 C 212.94 186.57 213.07 185.93 213.14 185.62 C 212.81 185.78 212.15 186.09 211.82 186.25 C 211.11 186.08 209.68 185.73 208.97 185.56 C 209.83 184.69 210.70 183.83 211.67 183.08 L 212.42 182.68 Z" />
</g>
<g id="#fffaf6ff">
<path fill="#fffaf6" opacity="1.00" d=" M 198.15 184.88 C 195.70 184.94 197.50 181.75 198.49 184.12 L 198.15 184.88 Z" />
</g>
<g id="#888689ff">
<path fill="#888689" opacity="1.00" d=" M 211.82 186.25 C 212.15 186.09 212.81 185.78 213.14 185.62 C 213.07 185.93 212.94 186.57 212.88 186.89 L 212.70 187.70 C 211.55 190.23 210.89 192.93 210.58 195.68 C 208.56 196.92 206.51 198.28 204.13 198.68 C 202.21 197.87 200.90 196.15 199.72 194.52 C 200.60 194.51 201.48 194.50 202.36 194.49 C 202.23 193.75 202.11 193.01 201.99 192.28 C 202.33 192.15 203.02 191.89 203.37 191.76 C 203.16 191.02 202.95 190.28 202.75 189.55 C 203.49 189.03 204.23 188.51 204.99 188.00 C 207.32 187.68 209.74 187.48 211.82 186.25 Z" />
</g>
<g id="#9c8d87ff">
<path fill="#9c8d87" opacity="1.00" d=" M 173.38 189.32 C 174.34 190.40 176.21 191.22 175.99 192.93 C 175.58 194.06 174.97 195.10 174.41 196.16 C 174.05 193.88 173.74 191.59 173.38 189.32 Z" />
</g>
<g id="#ddd2cdff">
<path fill="#ddd2cd" opacity="1.00" d=" M 248.62 190.61 C 250.65 190.64 252.67 190.84 254.66 191.23 C 255.24 193.83 255.76 196.45 255.96 199.12 C 255.62 199.47 254.94 200.17 254.60 200.51 C 251.58 198.47 248.53 196.07 247.70 192.31 C 247.93 191.88 248.39 191.03 248.62 190.61 Z" />
</g>
<g id="#a86d51ff">
<path fill="#a86d51" opacity="1.00" d=" M 179.08 190.88 C 181.81 191.40 184.50 192.12 187.10 193.11 C 186.75 197.64 184.79 202.90 188.32 206.70 C 189.93 206.89 191.54 207.10 193.17 207.26 C 191.88 207.67 190.61 208.14 189.34 208.60 C 187.50 207.49 185.13 206.58 184.64 204.22 C 183.25 200.98 184.62 196.93 182.31 194.10 C 181.25 193.00 180.15 191.95 179.08 190.88 Z" />
</g>
<g id="#928d8dff">
<path fill="#928d8d" opacity="1.00" d=" M 228.70 196.33 C 229.64 194.37 230.92 192.48 233.19 192.00 C 233.55 194.80 231.20 196.23 228.70 196.33 Z" />
</g>
<g id="#948f95ff">
<path fill="#948f95" opacity="1.00" d=" M 235.08 194.62 C 236.32 193.59 237.59 192.59 238.80 191.52 C 241.38 192.21 243.93 193.06 246.56 193.56 C 246.84 193.24 247.41 192.62 247.70 192.31 C 248.53 196.07 251.58 198.47 254.60 200.51 C 254.66 204.46 256.40 208.67 254.37 212.38 C 253.59 212.83 252.80 213.27 252.03 213.73 C 251.69 210.92 251.54 207.92 249.72 205.59 C 245.89 202.64 240.76 200.52 235.92 202.00 C 234.64 202.28 234.19 203.61 233.54 204.56 C 232.20 202.80 230.74 201.13 229.22 199.53 C 230.01 198.83 230.83 198.16 231.64 197.49 C 233.59 199.43 235.66 198.16 236.99 196.29 C 236.51 195.87 235.56 195.04 235.08 194.62 M 239.05 195.20 C 239.36 196.79 240.20 198.15 241.67 198.90 C 242.79 197.13 243.46 195.14 243.08 193.03 C 241.62 193.52 240.26 194.25 239.05 195.20 Z" />
</g>
<g id="#beb9bdff">
<path fill="#beb9bd" opacity="1.00" d=" M 239.05 195.20 C 240.26 194.25 241.62 193.52 243.08 193.03 C 243.46 195.14 242.79 197.13 241.67 198.90 C 240.20 198.15 239.36 196.79 239.05 195.20 Z" />
</g>
<g id="#322e2c9f">
<path fill="#322e2c" opacity="0.62" d=" M 258.03 197.08 C 257.25 195.40 258.27 193.26 260.16 193.04 C 260.02 194.62 259.31 196.11 258.03 197.08 Z" />
</g>
<g id="#493430ff">
<path fill="#493430" opacity="1.00" d=" M 177.63 195.39 C 179.26 195.26 180.86 194.86 182.31 194.10 C 184.62 196.93 183.25 200.98 184.64 204.22 C 185.13 206.58 187.50 207.49 189.34 208.60 C 187.63 209.27 185.78 209.54 183.95 209.27 C 183.18 207.41 182.36 205.56 181.59 203.70 C 180.52 200.82 179.23 198.02 177.63 195.39 Z" />
</g>
<g id="#eae0daff">
<path fill="#eae0da" opacity="1.00" d=" M 218.11 199.20 C 219.53 198.69 220.00 199.14 219.51 200.55 C 218.10 201.07 217.64 200.62 218.11 199.20 Z" />
</g>
<g id="#a1928dff">
<path fill="#a1928d" opacity="1.00" d=" M 175.60 203.05 C 175.96 202.41 176.68 201.12 177.04 200.48 C 178.69 202.33 177.75 204.55 176.91 206.52 C 176.44 205.37 176.01 204.21 175.60 203.05 Z" />
</g>
<g id="#635d60ff">
<path fill="#635d60" opacity="1.00" d=" M 235.92 202.00 C 240.76 200.52 245.89 202.64 249.72 205.59 C 248.70 207.34 247.85 209.20 247.41 211.19 C 247.63 207.44 245.24 203.59 241.09 204.00 C 240.51 204.25 239.37 204.76 238.79 205.02 C 238.61 207.62 240.50 211.02 238.46 213.15 C 237.79 210.68 237.21 208.19 236.57 205.72 C 235.82 205.43 234.30 204.85 233.54 204.56 C 234.19 203.61 234.64 202.28 235.92 202.00 Z" />
</g>
<g id="#353536a5">
<path fill="#353536" opacity="0.65" d=" M 138.82 203.86 C 139.94 202.69 141.61 202.48 143.06 203.15 C 141.95 204.33 140.26 204.57 138.82 203.86 Z" />
</g>
<g id="#9c989bfe">
<path fill="#9c989b" opacity="1.00" d=" M 143.06 203.15 C 143.48 203.10 144.31 203.01 144.72 202.97 C 146.24 202.96 147.76 202.96 149.28 202.99 C 147.51 203.45 145.77 204.00 144.07 204.64 C 143.55 204.75 142.52 204.97 142.00 205.08 C 142.10 206.01 142.22 206.94 142.28 207.87 C 138.61 207.29 134.90 207.79 131.21 207.59 C 128.88 207.36 126.39 206.68 124.21 207.91 C 123.64 208.19 122.50 208.74 121.93 209.02 C 120.86 208.75 119.80 208.47 118.73 208.20 C 119.11 207.70 119.87 206.70 120.24 206.20 C 122.95 205.93 125.64 205.52 128.34 205.21 C 128.75 205.17 129.58 205.11 129.99 205.07 C 132.07 205.53 134.22 205.30 136.07 204.24 C 136.76 204.14 138.13 203.96 138.82 203.86 C 140.26 204.57 141.95 204.33 143.06 203.15 Z" />
</g>
<g id="#d0c5bfff">
<path fill="#d0c5bf" opacity="1.00" d=" M 149.28 202.99 C 150.95 203.00 152.67 203.08 154.26 203.64 C 158.10 204.74 156.83 209.70 157.55 212.72 C 158.05 212.73 159.07 212.75 159.57 212.76 C 159.70 210.09 159.85 207.41 160.08 204.74 C 161.23 205.58 162.92 206.07 163.31 207.63 C 164.68 212.35 164.94 217.32 166.12 222.09 C 164.60 222.84 163.08 223.58 161.55 224.30 C 160.83 220.96 162.34 216.83 158.71 214.76 C 157.53 217.65 157.07 220.85 155.50 223.56 C 153.99 224.40 152.35 224.92 150.72 225.46 C 150.35 225.41 149.60 225.29 149.22 225.23 C 146.84 224.25 142.78 224.40 142.60 221.00 C 142.56 215.42 143.30 208.94 147.56 204.87 C 146.40 204.79 145.23 204.71 144.07 204.64 C 145.77 204.00 147.51 203.45 149.28 202.99 Z" />
</g>
<g id="#302f309b">
<path fill="#302f30" opacity="0.61" d=" M 129.99 205.07 C 131.66 203.50 134.02 203.38 136.07 204.24 C 134.22 205.30 132.07 205.53 129.99 205.07 Z" />
</g>
<g id="#91837eff">
<path fill="#91837e" opacity="1.00" d=" M 180.64 207.30 C 179.85 206.00 181.12 204.83 181.59 203.70 C 182.36 205.56 183.18 207.41 183.95 209.27 C 182.87 208.64 181.15 208.60 180.64 207.30 Z" />
</g>
<g id="#99949aff">
<path fill="#99949a" opacity="1.00" d=" M 238.79 205.02 C 239.37 204.76 240.51 204.25 241.09 204.00 C 241.20 206.21 241.34 208.43 241.51 210.64 C 241.62 214.63 242.82 218.45 244.39 222.09 C 244.13 222.66 243.63 223.79 243.38 224.36 C 242.20 225.52 241.02 226.68 239.85 227.84 C 239.64 228.40 239.24 229.53 239.04 230.09 C 236.48 232.68 233.64 235.19 230.07 236.24 C 225.90 236.76 221.58 236.17 217.88 234.13 C 222.91 233.30 228.28 233.22 232.92 230.91 C 235.89 227.95 237.55 223.91 239.09 220.07 C 240.12 217.78 239.06 215.39 238.46 213.15 C 240.50 211.02 238.61 207.62 238.79 205.02 Z" />
</g>
<g id="#d6cbc5ff">
<path fill="#d6cbc5" opacity="1.00" d=" M 241.09 204.00 C 245.24 203.59 247.63 207.44 247.41 211.19 C 247.31 211.85 247.09 213.16 246.99 213.81 C 245.20 212.68 243.37 211.63 241.51 210.64 C 241.34 208.43 241.20 206.21 241.09 204.00 Z" />
</g>
<g id="#5e5856ff">
<path fill="#5e5856" opacity="1.00" d=" M 142.00 205.08 C 142.52 204.97 143.55 204.75 144.07 204.64 C 145.23 204.71 146.40 204.79 147.56 204.87 C 143.30 208.94 142.56 215.42 142.60 221.00 C 142.78 224.40 146.84 224.25 149.22 225.23 L 149.35 226.10 C 144.26 228.85 138.93 225.12 133.86 224.13 L 134.07 223.25 C 136.15 223.45 138.24 223.48 140.34 223.48 C 140.57 221.28 140.79 219.08 141.06 216.88 C 141.45 213.88 141.94 210.89 142.28 207.87 C 142.22 206.94 142.10 206.01 142.00 205.08 Z" />
</g>
<g id="#b9b5bbff">
<path fill="#b9b5bb" opacity="1.00" d=" M 205.65 207.10 C 206.29 206.07 207.10 205.16 208.07 204.40 C 210.98 209.42 213.94 214.62 215.17 220.34 C 212.75 219.88 211.12 218.05 210.08 215.94 C 211.88 216.17 213.03 213.77 211.49 212.65 C 209.87 211.66 209.42 214.26 209.59 215.34 C 207.93 212.81 205.84 210.25 205.65 207.10 Z" />
</g>
<g id="#ab9a8cff">
<path fill="#ab9a8c" opacity="1.00" d=" M 233.54 204.56 C 234.30 204.85 235.82 205.43 236.57 205.72 C 237.21 208.19 237.79 210.68 238.46 213.15 C 237.49 212.85 236.53 212.56 235.57 212.28 C 235.54 216.28 234.17 220.10 231.93 223.40 C 231.40 223.27 230.32 223.02 229.78 222.89 C 229.73 222.46 229.63 221.60 229.58 221.17 C 231.12 217.27 232.32 213.10 235.30 210.01 C 236.41 208.78 234.18 208.45 233.44 207.99 C 233.47 206.85 233.51 205.70 233.54 204.56 Z" />
</g>
<g id="#746661ff">
<path fill="#746661" opacity="1.00" d=" M 111.65 206.69 C 114.50 206.40 117.38 206.44 120.24 206.20 C 119.87 206.70 119.11 207.70 118.73 208.20 C 117.44 209.83 115.63 211.15 114.91 213.16 C 114.51 215.50 115.20 217.84 115.77 220.09 C 115.91 220.46 116.18 221.19 116.32 221.55 C 119.60 221.63 124.02 221.67 124.75 217.59 C 125.86 217.71 126.98 217.82 128.10 217.95 C 128.14 218.41 128.23 219.34 128.27 219.80 C 128.35 220.19 128.49 220.96 128.57 221.35 C 130.36 222.08 132.20 222.72 134.07 223.25 L 133.86 224.13 C 132.39 223.76 130.80 223.55 129.55 224.60 C 122.74 224.71 115.83 223.84 109.12 225.43 C 110.03 224.34 110.97 223.28 111.86 222.17 C 113.26 218.06 113.08 213.64 113.63 209.38 C 112.88 209.27 111.38 209.06 110.64 208.95 C 110.20 207.98 110.36 206.77 111.65 206.69 M 118.88 223.79 C 122.27 224.12 125.69 224.12 129.10 224.10 L 128.62 223.41 C 125.55 223.19 121.38 221.37 118.88 223.79 M 113.51 223.17 C 113.67 224.55 114.34 224.78 115.53 223.88 C 115.37 222.48 114.69 222.24 113.51 223.17 Z" />
</g>
<g id="#6e6562ff">
<path fill="#6e6562" opacity="1.00" d=" M 124.21 207.91 C 126.39 206.68 128.88 207.36 131.21 207.59 C 130.06 208.63 128.93 209.69 127.80 210.76 C 127.19 210.84 125.97 211.01 125.35 211.09 C 124.97 210.03 124.59 208.97 124.21 207.91 Z" />
</g>
<g id="#d4c9c4ff">
<path fill="#d4c9c4" opacity="1.00" d=" M 131.21 207.59 C 134.90 207.79 138.61 207.29 142.28 207.87 C 141.94 210.89 141.45 213.88 141.06 216.88 C 140.34 218.26 140.12 220.67 138.10 220.66 C 134.80 220.92 131.53 220.25 128.27 219.80 C 128.23 219.34 128.14 218.41 128.10 217.95 C 127.97 215.55 127.91 213.15 127.80 210.76 C 128.93 209.69 130.06 208.63 131.21 207.59 Z" />
</g>
<g id="#d3c9c2ff">
<path fill="#d3c9c2" opacity="1.00" d=" M 118.73 208.20 C 119.80 208.47 120.86 208.75 121.93 209.02 C 122.50 208.74 123.64 208.19 124.21 207.91 C 124.59 208.97 124.97 210.03 125.35 211.09 C 124.65 213.81 123.80 216.49 122.79 219.11 C 120.45 219.44 118.11 219.76 115.77 220.09 C 115.20 217.84 114.51 215.50 114.91 213.16 C 115.63 211.15 117.44 209.83 118.73 208.20 Z" />
</g>
<g id="#9c8d88ff">
<path fill="#9c8d88" opacity="1.00" d=" M 167.04 210.84 C 167.68 209.86 168.33 208.89 168.99 207.93 C 170.96 207.93 172.94 207.92 174.92 207.90 C 175.92 209.70 176.81 211.58 177.51 213.53 C 176.60 214.39 175.71 215.27 174.82 216.14 C 178.84 217.90 182.85 219.85 186.03 222.95 C 184.21 223.14 182.39 223.31 180.57 223.46 C 177.52 223.44 174.48 223.30 171.43 223.25 C 172.38 220.50 172.68 217.58 172.36 214.69 C 170.54 213.47 168.77 212.17 167.04 210.84 Z" />
</g>
<g id="#c9bcb5ff">
<path fill="#c9bcb5" opacity="1.00" d=" M 110.64 208.95 C 111.38 209.06 112.88 209.27 113.63 209.38 C 113.08 213.64 113.26 218.06 111.86 222.17 C 111.22 220.73 110.59 219.29 110.05 217.81 C 109.97 215.90 110.02 213.98 110.23 212.08 C 110.36 211.48 110.60 210.28 110.73 209.68 L 110.64 208.95 Z" />
</g>
<g id="#e9e0ddff">
<path fill="#e9e0dd" opacity="1.00" d=" M 98.42 210.67 C 99.11 211.76 99.74 212.90 100.21 214.10 C 100.34 214.68 100.59 215.84 100.72 216.42 C 99.58 216.56 98.44 216.73 97.31 216.93 C 97.54 214.82 97.98 212.74 98.42 210.67 Z" />
<path fill="#e9e0dd" opacity="1.00" d=" M 202.04 214.22 C 202.54 213.72 203.56 212.72 204.06 212.22 C 207.53 216.30 209.90 221.15 213.14 225.41 C 212.82 225.83 212.19 226.67 211.87 227.09 C 209.56 226.55 207.25 225.96 205.03 225.13 C 202.34 222.48 199.83 219.64 196.93 217.21 C 195.96 216.47 194.97 215.78 193.99 215.08 C 194.45 214.68 195.38 213.90 195.84 213.51 C 198.41 215.06 200.95 216.82 202.53 219.44 C 203.87 221.64 205.64 223.55 208.11 224.46 C 205.93 221.14 202.70 218.32 202.04 214.22 Z" />
</g>
<g id="#a5948fff">
<path fill="#a5948f" opacity="1.00" d=" M 125.35 211.09 C 125.97 211.01 127.19 210.84 127.80 210.76 C 127.91 213.15 127.97 215.55 128.10 217.95 C 126.98 217.82 125.86 217.71 124.75 217.59 C 124.02 221.67 119.60 221.63 116.32 221.55 C 116.18 221.19 115.91 220.46 115.77 220.09 C 118.11 219.76 120.45 219.44 122.79 219.11 C 123.80 216.49 124.65 213.81 125.35 211.09 Z" />
</g>
<g id="#cbbfb8ff">
<path fill="#cbbfb8" opacity="1.00" d=" M 168.01 223.10 C 167.88 219.03 165.65 214.84 167.04 210.84 C 168.77 212.17 170.54 213.47 172.36 214.69 C 172.68 217.58 172.38 220.50 171.43 223.25 C 170.29 223.21 169.15 223.18 168.01 223.10 Z" />
</g>
<g id="#8e817dff">
<path fill="#8e817d" opacity="1.00" d=" M 178.80 210.81 C 179.98 211.09 181.15 211.42 182.31 211.82 C 183.65 212.83 182.52 214.32 182.20 215.52 C 180.84 214.13 179.69 212.54 178.80 210.81 Z" />
</g>
<g id="#827772ff">
<path fill="#827772" opacity="1.00" d=" M 244.39 222.09 C 242.82 218.45 241.62 214.63 241.51 210.64 C 243.37 211.63 245.20 212.68 246.99 213.81 C 246.42 216.66 245.50 219.41 244.39 222.09 Z" />
</g>
<g id="#c2b4adff">
<path fill="#c2b4ad" opacity="1.00" d=" M 196.98 212.60 C 199.32 212.25 201.70 212.22 204.06 212.22 C 203.56 212.72 202.54 213.72 202.04 214.22 C 202.70 218.32 205.93 221.14 208.11 224.46 C 205.64 223.55 203.87 221.64 202.53 219.44 C 200.95 216.82 198.41 215.06 195.84 213.51 C 196.13 213.29 196.70 212.83 196.98 212.60 Z" />
</g>
<g id="#e6e0e3ff">
<path fill="#e6e0e3" opacity="1.00" d=" M 209.59 215.34 C 209.42 214.26 209.87 211.66 211.49 212.65 C 213.03 213.77 211.88 216.17 210.08 215.94 L 209.59 215.34 Z" />
</g>
<g id="#9c8a85ff">
<path fill="#9c8a85" opacity="1.00" d=" M 155.50 223.56 C 157.07 220.85 157.53 217.65 158.71 214.76 C 162.34 216.83 160.83 220.96 161.55 224.30 C 163.08 223.58 164.60 222.84 166.12 222.09 L 166.29 222.94 C 165.48 223.91 164.66 224.88 163.82 225.83 C 162.77 225.69 161.73 225.53 160.69 225.37 C 160.19 224.28 159.69 223.20 159.18 222.12 C 157.94 223.33 156.89 224.71 155.66 225.93 C 154.00 225.95 152.36 225.69 150.72 225.46 C 152.35 224.92 153.99 224.40 155.50 223.56 Z" />
</g>
<g id="#584238ff">
<path fill="#584238" opacity="1.00" d=" M 97.31 216.93 C 98.44 216.73 99.58 216.56 100.72 216.42 C 103.84 216.83 106.94 217.36 110.05 217.81 C 110.59 219.29 111.22 220.73 111.86 222.17 C 110.97 223.28 110.03 224.34 109.12 225.43 C 106.23 225.99 103.19 226.94 100.29 225.97 C 97.94 223.61 97.21 220.15 97.31 216.93 Z" />
</g>
<g id="#a89d98ff">
<path fill="#a89d98" opacity="1.00" d=" M 138.10 220.66 C 140.12 220.67 140.34 218.26 141.06 216.88 C 140.79 219.08 140.57 221.28 140.34 223.48 C 138.24 223.48 136.15 223.45 134.07 223.25 C 132.20 222.72 130.36 222.08 128.57 221.35 C 128.49 220.96 128.35 220.19 128.27 219.80 C 131.53 220.25 134.80 220.92 138.10 220.66 Z" />
</g>
<g id="#767278ff">
<path fill="#767278" opacity="1.00" d=" M 196.93 217.21 C 199.83 219.64 202.34 222.48 205.03 225.13 C 205.56 225.83 206.08 226.56 206.59 227.28 C 206.28 227.62 205.67 228.30 205.37 228.64 C 203.69 231.97 202.92 236.48 205.37 239.61 C 207.87 241.31 211.12 241.46 213.78 242.90 C 211.04 244.73 207.57 245.76 204.37 244.51 C 199.15 243.30 195.97 238.57 193.84 234.03 C 192.78 229.69 192.52 225.10 193.90 220.80 C 194.87 219.57 195.90 218.39 196.93 217.21 M 194.82 223.09 C 195.15 226.45 199.36 227.31 201.96 226.04 C 201.30 224.69 200.82 223.18 199.72 222.11 C 198.03 221.10 196.32 222.39 194.82 223.09 M 195.07 227.17 C 194.76 230.39 196.78 233.12 198.03 235.92 C 199.73 238.77 201.43 242.27 204.96 243.11 C 204.05 238.04 200.70 233.79 200.10 228.64 C 198.46 228.02 196.78 227.53 195.07 227.17 M 210.26 243.20 C 210.80 243.74 210.80 243.74 210.26 243.20 Z" />
</g>
<g id="#d7cecaff">
<path fill="#d7ceca" opacity="1.00" d=" M 225.58 218.16 C 226.91 219.17 228.24 220.17 229.58 221.17 C 229.63 221.60 229.73 222.46 229.78 222.89 C 230.32 223.02 231.40 223.27 231.93 223.40 C 230.29 223.72 228.65 224.05 227.01 224.41 C 226.38 227.14 225.25 230.03 222.02 230.32 C 222.78 229.53 223.56 228.74 224.33 227.97 C 223.47 226.54 222.61 225.11 221.71 223.72 C 224.35 223.00 225.43 220.71 225.58 218.16 Z" />
</g>
<g id="#9d9798fb">
<path fill="#9d9798" opacity="1.00" d=" M 118.88 223.79 C 121.38 221.37 125.55 223.19 128.62 223.41 L 129.10 224.10 C 125.69 224.12 122.27 224.12 118.88 223.79 Z" />
</g>
<g id="#80716dff">
<path fill="#80716d" opacity="1.00" d=" M 155.66 225.93 C 156.89 224.71 157.94 223.33 159.18 222.12 C 159.69 223.20 160.19 224.28 160.69 225.37 C 161.73 225.53 162.77 225.69 163.82 225.83 C 164.19 225.87 164.94 225.95 165.31 225.99 C 164.45 226.73 163.60 227.49 162.75 228.25 C 164.78 227.99 167.62 228.64 168.51 226.18 C 170.38 226.10 172.25 226.09 174.13 226.12 C 173.09 226.74 172.06 227.36 171.00 227.93 C 163.31 228.42 155.66 230.94 147.94 229.27 C 148.35 228.93 149.16 228.24 149.56 227.90 C 149.51 227.45 149.41 226.55 149.35 226.10 L 149.22 225.23 C 149.60 225.29 150.35 225.41 150.72 225.46 C 152.36 225.69 154.00 225.95 155.66 225.93 Z" />
</g>
<g id="#a29da6ff">
<path fill="#a29da6" opacity="1.00" d=" M 194.82 223.09 C 196.32 222.39 198.03 221.10 199.72 222.11 C 200.82 223.18 201.30 224.69 201.96 226.04 C 199.36 227.31 195.15 226.45 194.82 223.09 Z" />
</g>
<g id="#b1adaefd">
<path fill="#b1adae" opacity="1.00" d=" M 113.51 223.17 C 114.69 222.24 115.37 222.48 115.53 223.88 C 114.34 224.78 113.67 224.55 113.51 223.17 Z" />
</g>
<g id="#565051ff">
<path fill="#565051" opacity="1.00" d=" M 166.29 222.94 C 166.72 222.98 167.58 223.06 168.01 223.10 C 169.15 223.18 170.29 223.21 171.43 223.25 C 174.48 223.30 177.52 223.44 180.57 223.46 L 180.07 223.99 C 178.16 227.21 174.40 227.69 171.00 227.93 C 172.06 227.36 173.09 226.74 174.13 226.12 C 172.25 226.09 170.38 226.10 168.51 226.18 C 167.71 226.14 166.11 226.04 165.31 225.99 C 164.94 225.95 164.19 225.87 163.82 225.83 C 164.66 224.88 165.48 223.91 166.29 222.94 Z" />
</g>
<g id="#9b9290f5">
<path fill="#9b9290" opacity="0.96" d=" M 205.03 225.13 C 207.25 225.96 209.56 226.55 211.87 227.09 C 212.19 226.67 212.82 225.83 213.14 225.41 C 213.70 226.21 214.26 227.02 214.85 227.81 C 213.52 228.55 212.23 229.35 210.91 230.08 C 209.09 229.48 207.25 228.97 205.37 228.64 C 205.67 228.30 206.28 227.62 206.59 227.28 C 206.08 226.56 205.56 225.83 205.03 225.13 Z" />
</g>
<g id="#c9c2c5f9">
<path fill="#c9c2c5" opacity="0.98" d=" M 165.31 225.99 C 166.11 226.04 167.71 226.14 168.51 226.18 C 167.62 228.64 164.78 227.99 162.75 228.25 C 163.60 227.49 164.45 226.73 165.31 225.99 Z" />
</g>
<g id="#b3aeb4ff">
<path fill="#b3aeb4" opacity="1.00" d=" M 195.07 227.17 C 196.78 227.53 198.46 228.02 200.10 228.64 C 200.70 233.79 204.05 238.04 204.96 243.11 C 201.43 242.27 199.73 238.77 198.03 235.92 C 196.78 233.12 194.76 230.39 195.07 227.17 Z" />
</g>
<g id="#38363893">
<path fill="#383638" opacity="0.58" d=" M 239.04 230.09 C 239.24 229.53 239.64 228.40 239.85 227.84 C 239.64 228.40 239.24 229.53 239.04 230.09 Z" />
</g>
<g id="#00000012">
<path fill="#000000" opacity="0.07" d=" M 205.37 228.64 C 207.25 228.97 209.09 229.48 210.91 230.08 C 213.25 231.40 215.52 232.84 217.88 234.13 C 221.58 236.17 225.90 236.76 230.07 236.24 C 227.97 236.81 225.83 237.23 223.70 237.69 C 222.43 241.69 220.60 245.58 220.25 249.82 C 219.81 255.35 216.88 260.22 215.61 265.54 C 214.82 269.21 216.55 272.75 217.33 276.27 C 216.63 276.11 215.94 275.96 215.25 275.81 C 215.03 279.42 214.13 283.24 215.88 286.63 C 217.31 289.04 214.40 290.75 213.09 292.40 C 214.52 292.57 215.95 292.76 217.38 292.97 C 215.82 294.21 214.08 295.25 212.72 296.73 C 211.56 299.49 213.63 302.46 212.95 305.30 C 212.41 307.37 211.42 309.33 211.13 311.47 C 211.05 313.90 212.25 316.12 213.13 318.32 C 211.45 317.83 209.75 317.40 208.04 317.06 C 209.02 319.02 210.60 320.57 211.90 322.32 C 212.54 325.72 210.17 328.71 208.99 331.75 C 209.66 333.46 210.49 335.15 210.74 336.99 C 210.75 339.94 209.54 342.74 209.45 345.68 C 209.47 347.71 211.03 349.22 212.20 350.72 C 211.10 351.46 210.00 352.21 208.91 352.97 C 210.22 354.68 211.53 356.39 212.84 358.10 C 211.45 360.46 208.99 362.81 210.04 365.79 C 211.04 369.36 209.77 373.10 206.90 375.41 C 207.39 375.81 207.88 376.21 208.36 376.63 C 210.81 378.28 209.31 381.62 209.22 384.00 L 185.08 384.00 C 185.18 382.45 185.29 380.90 185.41 379.36 C 188.28 377.94 189.58 375.07 189.97 372.03 C 188.34 370.64 186.66 369.31 184.90 368.09 C 185.73 367.77 186.56 367.45 187.39 367.14 C 186.56 363.69 188.14 360.47 189.39 357.36 C 190.23 355.48 189.26 353.50 188.88 351.64 C 188.13 352.04 187.37 352.44 186.62 352.84 C 186.38 350.16 186.03 347.48 185.52 344.84 C 186.60 343.48 187.69 342.13 188.79 340.78 C 188.26 338.97 187.45 337.19 187.42 335.29 C 188.18 332.70 190.35 330.47 189.96 327.61 C 189.74 325.93 190.41 324.37 191.15 322.91 C 188.43 319.45 189.22 314.88 187.28 311.09 C 188.67 308.18 192.14 306.37 192.06 302.81 C 190.44 302.57 188.82 302.33 187.21 302.09 C 189.56 298.36 192.07 294.37 191.71 289.76 C 191.48 283.83 192.00 277.85 194.49 272.39 C 193.35 271.94 192.20 271.48 191.06 271.02 C 191.11 270.74 191.20 270.18 191.25 269.90 C 193.07 269.22 195.86 269.33 196.49 267.05 C 196.09 263.93 193.59 260.90 194.93 257.73 C 196.33 254.48 195.52 250.90 196.23 247.52 C 197.09 244.21 194.71 241.40 193.48 238.56 C 192.13 236.17 192.44 233.37 192.37 230.75 C 192.83 231.85 193.32 232.94 193.84 234.03 C 195.97 238.57 199.15 243.30 204.37 244.51 C 207.57 245.76 211.04 244.73 213.78 242.90 C 211.12 241.46 207.87 241.31 205.37 239.61 C 202.92 236.48 203.69 231.97 205.37 228.64 Z" />
</g>
<g id="#f7eee1f8">
<path fill="#f7eee1" opacity="0.97" d=" M 210.26 243.20 C 210.80 243.74 210.80 243.74 210.26 243.20 Z" />
</g>
</svg>
