<?xml version="1.0" encoding="UTF-8" ?>
<!DOCTYPE svg PUBLIC "-//W3C//DTD SVG 1.1//EN" "http://www.w3.org/Graphics/SVG/1.1/DTD/svg11.dtd">
<svg width="384pt" height="384pt" viewBox="0 0 384 384" version="1.1" xmlns="http://www.w3.org/2000/svg">
<g id="#1b1a19ff">
<path fill="#1b1a19" opacity="1.00" d=" M 219.61 113.25 C 221.39 113.61 223.24 114.10 224.50 115.52 C 230.50 121.32 233.05 129.72 234.19 137.78 C 233.60 143.29 232.91 148.95 234.59 154.35 C 234.57 155.56 234.53 156.78 234.48 157.99 C 235.80 158.78 237.13 159.57 238.46 160.35 C 236.77 161.90 235.13 163.50 233.43 165.04 C 233.87 166.02 234.33 167.00 234.74 167.99 C 233.97 167.75 233.21 167.51 232.45 167.26 C 232.38 168.24 232.32 169.22 232.26 170.19 C 229.08 168.29 226.27 165.87 223.29 163.70 C 220.45 161.63 217.12 160.02 215.01 157.11 C 214.27 156.25 214.95 155.09 215.03 154.13 C 219.05 151.59 220.33 146.86 222.13 142.77 C 222.74 143.11 223.95 143.80 224.56 144.14 C 226.34 146.54 227.67 149.23 229.05 151.87 C 229.28 152.25 229.72 153.01 229.94 153.39 C 232.03 145.15 231.04 136.30 228.77 128.20 C 227.31 122.37 223.63 117.56 219.61 113.25 Z" />
</g>
<g id="#000000b8">
<path fill="#000000" opacity="0.72" d=" M 215.12 126.65 C 217.77 127.44 220.46 128.54 222.12 130.87 C 227.10 136.71 228.02 144.57 229.05 151.87 C 227.67 149.23 226.34 146.54 224.56 144.14 C 224.05 141.00 223.61 137.77 222.10 134.92 C 220.57 131.57 217.68 129.18 215.12 126.65 Z" />
</g>
<g id="#2a3340fe">
<path fill="#2a3340" opacity="1.00" d=" M 154.56 133.58 C 160.69 132.77 167.17 131.83 173.19 133.74 C 172.60 134.83 172.02 135.92 171.42 137.02 C 172.28 137.67 173.11 138.35 173.99 138.98 C 172.32 138.54 170.64 138.14 169.00 137.61 C 167.53 136.84 166.21 135.57 164.54 135.30 C 162.95 136.33 161.80 137.89 160.48 139.22 C 160.20 139.32 159.64 139.52 159.36 139.61 C 157.75 138.21 156.06 136.92 154.37 135.62 C 154.42 135.11 154.51 134.09 154.56 133.58 Z" />
</g>
<g id="#1b1a18fd">
<path fill="#1b1a18" opacity="1.00" d=" M 173.19 133.74 C 177.01 135.37 180.70 137.30 184.49 139.01 C 184.08 139.42 183.26 140.25 182.86 140.67 L 182.12 141.08 C 180.58 140.72 179.03 140.37 177.49 140.02 C 176.32 139.69 175.15 139.34 173.99 138.98 C 173.11 138.35 172.28 137.67 171.42 137.02 C 172.02 135.92 172.60 134.83 173.19 133.74 Z" />
</g>
<g id="#c38b74ff">
<path fill="#c38b74" opacity="1.00" d=" M 160.48 139.22 C 161.80 137.89 162.95 136.33 164.54 135.30 C 166.21 135.57 167.53 136.84 169.00 137.61 C 167.01 139.09 168.94 141.17 170.81 141.28 C 171.15 141.39 171.81 141.63 172.14 141.75 C 169.34 142.80 166.47 144.25 164.91 146.94 C 162.61 150.29 162.76 154.50 162.58 158.37 C 162.18 158.24 161.38 157.97 160.97 157.84 C 160.61 157.70 159.89 157.41 159.52 157.27 C 159.06 154.35 158.89 151.09 160.49 148.47 C 162.42 145.95 165.02 144.04 167.35 141.91 L 168.11 141.45 C 165.45 141.22 162.55 141.18 160.48 139.22 Z" />
</g>
<g id="#29313dff">
<path fill="#29313d" opacity="1.00" d=" M 184.49 139.01 C 187.74 138.73 190.90 137.73 193.12 135.22 C 197.65 137.58 202.19 134.78 206.85 134.69 C 208.20 135.87 209.60 137.02 211.07 138.07 C 211.25 141.20 211.53 144.32 211.93 147.44 C 210.06 149.23 208.26 151.09 206.57 153.05 C 205.10 152.69 203.63 152.36 202.18 151.97 C 201.99 151.73 201.60 151.27 201.40 151.03 C 206.55 150.33 210.19 142.80 205.79 139.20 C 203.13 136.87 200.26 140.42 197.43 140.37 C 196.15 139.51 195.05 138.42 193.90 137.41 C 194.48 139.61 195.06 141.81 195.90 143.92 C 192.09 141.30 187.45 140.20 182.86 140.67 C 183.26 140.25 184.08 139.42 184.49 139.01 Z" />
</g>
<g id="#070808ff">
<path fill="#070808" opacity="1.00" d=" M 195.90 143.92 C 195.06 141.81 194.48 139.61 193.90 137.41 C 195.05 138.42 196.15 139.51 197.43 140.37 C 200.26 140.42 203.13 136.87 205.79 139.20 C 210.19 142.80 206.55 150.33 201.40 151.03 C 200.53 149.86 199.70 148.66 198.81 147.50 C 200.95 147.38 203.07 147.15 205.21 146.94 C 205.20 145.27 205.19 143.61 205.18 141.95 C 203.47 141.78 201.44 140.63 199.91 141.91 C 198.81 143.12 198.45 144.79 197.79 146.25 C 197.16 145.47 196.53 144.69 195.90 143.92 Z" />
</g>
<g id="#fffefeff">
<path fill="#fffefe" opacity="1.00" d=" M 170.81 141.28 C 168.94 141.17 167.01 139.09 169.00 137.61 C 169.90 138.66 170.43 139.96 170.81 141.28 Z" />
<path fill="#fffefe" opacity="1.00" d=" M 232.75 219.92 C 233.55 217.98 234.61 216.15 235.89 214.49 C 236.21 214.98 236.86 215.96 237.19 216.45 C 238.49 221.96 235.17 226.89 232.19 231.18 C 231.21 232.44 230.18 233.90 228.53 234.28 C 223.72 235.36 218.75 235.67 213.84 235.44 C 212.57 233.66 211.29 231.89 210.02 230.11 C 212.71 230.38 215.40 230.75 218.09 231.06 C 219.50 231.21 220.93 231.27 222.35 231.28 C 223.47 229.04 224.63 226.35 227.46 226.04 C 230.50 225.54 231.65 222.39 232.75 219.92 Z" />
</g>
<g id="#817670ff">
<path fill="#817670" opacity="1.00" d=" M 169.00 137.61 C 170.64 138.14 172.32 138.54 173.99 138.98 C 175.15 139.34 176.32 139.69 177.49 140.02 C 175.70 140.58 173.93 141.19 172.14 141.75 C 171.81 141.63 171.15 141.39 170.81 141.28 C 170.43 139.96 169.90 138.66 169.00 137.61 Z" />
<path fill="#817670" opacity="1.00" d=" M 246.75 196.16 C 248.28 193.37 250.24 190.86 252.14 188.32 C 252.05 190.11 251.67 192.48 253.62 193.48 C 256.62 195.18 259.76 192.95 261.90 190.91 C 261.20 192.21 260.58 193.56 259.98 194.91 C 258.48 195.79 257.74 197.43 258.06 199.14 C 257.11 200.49 256.13 201.83 255.18 203.17 C 255.10 200.31 255.95 196.58 253.22 194.66 C 251.28 195.05 249.36 195.52 247.44 196.00 L 246.75 196.16 Z" />
</g>
<g id="#171716ff">
<path fill="#171716" opacity="1.00" d=" M 211.07 138.07 C 213.67 139.22 216.37 140.12 219.00 141.21 C 218.50 141.71 218.00 142.20 217.50 142.70 C 215.63 144.27 213.71 145.77 211.93 147.44 C 211.53 144.32 211.25 141.20 211.07 138.07 Z" />
</g>
<g id="#3e4242ff">
<path fill="#3e4242" opacity="1.00" d=" M 234.19 137.78 C 235.09 143.26 234.92 148.83 234.59 154.35 C 232.91 148.95 233.60 143.29 234.19 137.78 Z" />
<path fill="#3e4242" opacity="1.00" d=" M 194.36 145.52 C 197.13 147.88 199.28 150.88 200.79 154.18 C 201.39 158.33 201.82 163.81 197.08 165.64 C 193.55 167.50 189.90 169.22 186.89 171.89 C 183.93 174.35 181.39 177.51 177.75 179.00 C 175.12 180.08 172.19 178.10 171.29 175.61 C 169.63 171.26 168.05 166.74 167.74 162.07 C 168.40 156.52 172.57 152.29 176.27 148.45 C 177.33 150.26 177.71 152.32 178.04 154.36 C 178.29 154.27 178.80 154.09 179.05 154.00 C 179.10 153.98 179.20 153.95 179.25 153.93 C 180.53 153.62 181.78 152.42 183.14 152.93 C 184.62 153.79 185.61 155.27 186.77 156.48 C 187.39 156.11 188.01 155.73 188.63 155.35 C 188.42 154.82 188.01 153.76 187.80 153.22 C 189.07 152.83 190.33 152.43 191.61 152.05 C 192.57 149.89 193.48 147.71 194.36 145.52 M 182.23 157.25 C 181.55 158.19 182.66 160.19 183.87 159.52 C 184.86 158.58 183.39 156.60 182.23 157.25 M 185.25 167.08 C 185.37 170.40 188.27 165.57 185.25 167.08 Z" />
</g>
<g id="#ca825fff">
<path fill="#ca825f" opacity="1.00" d=" M 159.36 139.61 C 159.64 139.52 160.20 139.32 160.48 139.22 C 162.55 141.18 165.45 141.22 168.11 141.45 L 167.35 141.91 C 164.88 142.39 161.47 141.43 159.89 143.95 C 158.24 146.61 157.44 149.68 156.36 152.60 C 155.12 152.21 153.87 151.83 152.63 151.45 C 149.18 146.22 155.09 141.60 159.36 139.61 Z" />
</g>
<g id="#373a39ff">
<path fill="#373a39" opacity="1.00" d=" M 177.49 140.02 C 179.03 140.37 180.58 140.72 182.12 141.08 C 174.31 145.04 167.92 152.15 165.62 160.69 C 164.63 159.88 163.64 159.08 162.58 158.37 C 162.76 154.50 162.61 150.29 164.91 146.94 C 166.47 144.25 169.34 142.80 172.14 141.75 C 173.93 141.19 175.70 140.58 177.49 140.02 Z" />
</g>
<g id="#9c8d88ff">
<path fill="#9c8d88" opacity="1.00" d=" M 182.86 140.67 C 187.45 140.20 192.09 141.30 195.90 143.92 C 196.53 144.69 197.16 145.47 197.79 146.25 C 198.05 146.56 198.56 147.19 198.81 147.50 C 199.70 148.66 200.53 149.86 201.40 151.03 C 201.60 151.27 201.99 151.73 202.18 151.97 C 201.83 152.52 201.14 153.63 200.79 154.18 C 199.28 150.88 197.13 147.88 194.36 145.52 C 192.55 144.19 190.55 142.61 188.16 142.79 C 183.70 143.23 179.52 145.40 176.27 148.45 C 172.57 152.29 168.40 156.52 167.74 162.07 C 168.05 166.74 169.63 171.26 171.29 175.61 C 172.19 178.10 175.12 180.08 177.75 179.00 C 181.39 177.51 183.93 174.35 186.89 171.89 C 189.90 169.22 193.55 167.50 197.08 165.64 C 197.88 166.40 198.67 167.17 199.47 167.95 C 197.20 169.42 195.00 170.99 192.74 172.48 C 191.34 173.50 189.45 174.06 188.48 175.57 C 187.48 178.27 187.79 181.22 187.67 184.05 C 187.08 182.06 186.46 180.07 185.82 178.10 C 181.97 180.25 177.96 182.16 173.63 183.10 C 173.09 182.43 172.52 181.79 171.94 181.17 C 169.00 179.81 165.72 182.54 162.74 183.06 C 162.86 179.19 165.56 176.56 167.79 173.73 C 168.36 169.24 166.29 165.04 163.01 162.09 C 162.30 160.69 161.67 159.25 160.97 157.84 C 161.38 157.97 162.18 158.24 162.58 158.37 C 163.64 159.08 164.63 159.88 165.62 160.69 C 167.92 152.15 174.31 145.04 182.12 141.08 L 182.86 140.67 Z" />
</g>
<g id="#2b2b30ff">
<path fill="#2b2b30" opacity="1.00" d=" M 199.91 141.91 C 201.44 140.63 203.47 141.78 205.18 141.95 C 205.19 143.61 205.20 145.27 205.21 146.94 C 203.07 147.15 200.95 147.38 198.81 147.50 C 198.56 147.19 198.05 146.56 197.79 146.25 C 198.45 144.79 198.81 143.12 199.91 141.91 Z" />
</g>
<g id="#5c5857ff">
<path fill="#5c5857" opacity="1.00" d=" M 219.00 141.21 C 220.07 141.67 221.11 142.20 222.13 142.77 C 220.33 146.86 219.05 151.59 215.03 154.13 C 215.57 152.20 215.29 150.19 215.35 148.22 C 216.04 146.37 217.11 144.66 217.50 142.70 C 218.00 142.20 218.50 141.71 219.00 141.21 Z" />
</g>
<g id="#9d694fff">
<path fill="#9d694f" opacity="1.00" d=" M 159.89 143.95 C 161.47 141.43 164.88 142.39 167.35 141.91 C 165.02 144.04 162.42 145.95 160.49 148.47 C 158.89 151.09 159.06 154.35 159.52 157.27 C 159.89 157.41 160.61 157.70 160.97 157.84 C 161.67 159.25 162.30 160.69 163.01 162.09 C 161.37 161.09 159.72 160.11 158.10 159.08 C 157.81 158.56 157.22 157.53 156.92 157.01 C 155.42 155.21 153.95 153.38 152.63 151.45 C 153.87 151.83 155.12 152.21 156.36 152.60 C 157.44 149.68 158.24 146.61 159.89 143.95 Z" />
</g>
<g id="#4b5358ff">
<path fill="#4b5358" opacity="1.00" d=" M 188.16 142.79 C 190.55 142.61 192.55 144.19 194.36 145.52 C 193.48 147.71 192.57 149.89 191.61 152.05 C 190.33 152.43 189.07 152.83 187.80 153.22 C 188.01 153.76 188.42 154.82 188.63 155.35 C 188.01 155.73 187.39 156.11 186.77 156.48 C 185.61 155.27 184.62 153.79 183.14 152.93 C 181.78 152.42 180.53 153.62 179.25 153.93 L 179.05 154.00 C 178.80 154.09 178.29 154.27 178.04 154.36 C 177.71 152.32 177.33 150.26 176.27 148.45 C 179.52 145.40 183.70 143.23 188.16 142.79 Z" />
</g>
<g id="#848082ff">
<path fill="#848082" opacity="1.00" d=" M 217.50 142.70 C 217.11 144.66 216.04 146.37 215.35 148.22 C 215.29 150.19 215.57 152.20 215.03 154.13 C 214.95 155.09 214.27 156.25 215.01 157.11 C 217.12 160.02 220.45 161.63 223.29 163.70 C 226.27 165.87 229.08 168.29 232.26 170.19 C 232.32 169.22 232.38 168.24 232.45 167.26 C 233.21 167.51 233.97 167.75 234.74 167.99 C 235.25 169.36 235.66 170.76 236.06 172.17 C 234.93 172.88 233.80 173.58 232.66 174.27 C 231.47 173.21 230.16 172.32 228.80 171.50 C 222.95 167.49 216.97 163.51 212.18 158.21 C 212.18 161.31 210.80 164.93 212.63 167.73 C 216.96 169.15 221.17 170.91 225.57 172.10 C 225.22 172.62 224.52 173.64 224.16 174.16 C 224.41 174.57 224.91 175.38 225.16 175.79 C 223.07 175.13 220.96 174.56 218.86 173.98 C 219.38 175.19 219.91 176.40 220.45 177.61 C 219.80 177.69 219.15 177.77 218.50 177.86 C 218.20 178.75 217.91 179.65 217.61 180.56 C 216.14 179.81 214.67 179.07 213.21 178.31 C 212.61 179.88 212.03 181.46 211.40 183.01 C 209.14 179.54 211.13 175.60 212.80 172.37 C 209.98 173.17 207.08 172.71 204.21 172.71 C 201.88 173.54 200.30 175.68 198.51 177.29 C 198.71 175.71 198.93 174.13 199.43 172.62 C 199.91 172.27 200.87 171.56 201.35 171.20 C 202.78 171.01 204.22 170.82 205.66 170.64 C 204.97 167.42 204.20 164.21 203.35 161.03 C 202.20 163.41 201.30 165.99 199.47 167.95 C 198.67 167.17 197.88 166.40 197.08 165.64 C 201.82 163.81 201.39 158.33 200.79 154.18 C 201.59 155.20 202.40 156.21 203.21 157.23 C 204.32 155.83 205.42 154.42 206.57 153.05 C 208.26 151.09 210.06 149.23 211.93 147.44 C 213.71 145.77 215.63 144.27 217.50 142.70 M 205.62 165.11 C 206.22 165.24 207.42 165.49 208.02 165.61 C 209.93 165.78 209.54 163.45 209.78 162.21 C 210.73 158.77 211.83 155.36 212.70 151.89 C 208.30 154.47 203.12 159.60 205.62 165.11 M 207.39 168.21 C 205.99 169.50 208.25 171.87 209.54 170.38 C 211.02 169.05 208.73 166.72 207.39 168.21 Z" />
</g>
<g id="#c4937aff">
<path fill="#c4937a" opacity="1.00" d=" M 202.18 151.97 C 203.63 152.36 205.10 152.69 206.57 153.05 C 205.42 154.42 204.32 155.83 203.21 157.23 C 202.40 156.21 201.59 155.20 200.79 154.18 C 201.14 153.63 201.83 152.52 202.18 151.97 Z" />
</g>
<g id="#a7a3a8ff">
<path fill="#a7a3a8" opacity="1.00" d=" M 205.62 165.11 C 203.12 159.60 208.30 154.47 212.70 151.89 C 211.83 155.36 210.73 158.77 209.78 162.21 C 209.50 160.56 208.95 158.98 208.12 157.53 C 207.03 159.97 206.36 162.55 205.62 165.11 Z" />
</g>
<g id="#ebeaebff">
<path fill="#ebeaeb" opacity="1.00" d=" M 179.05 154.00 L 179.25 153.93 C 179.20 153.95 179.10 153.98 179.05 154.00 Z" />
</g>
<g id="#1e171384">
<path fill="#1e1713" opacity="0.52" d=" M 156.92 157.01 C 157.22 157.53 157.81 158.56 158.10 159.08 C 157.81 158.56 157.22 157.53 156.92 157.01 Z" />
</g>
<g id="#fefbfaff">
<path fill="#fefbfa" opacity="1.00" d=" M 182.23 157.25 C 183.39 156.60 184.86 158.58 183.87 159.52 C 182.66 160.19 181.55 158.19 182.23 157.25 Z" />
<path fill="#fefbfa" opacity="1.00" d=" M 208.12 157.53 C 208.95 158.98 209.50 160.56 209.78 162.21 C 209.54 163.45 209.93 165.78 208.02 165.61 C 207.42 165.49 206.22 165.24 205.62 165.11 C 206.36 162.55 207.03 159.97 208.12 157.53 Z" />
<path fill="#fefbfa" opacity="1.00" d=" M 218.11 203.49 L 218.95 203.22 C 220.65 205.41 222.25 207.68 223.83 209.96 C 223.41 207.77 222.99 205.57 222.61 203.38 C 226.31 204.85 228.33 208.30 228.46 212.20 C 230.14 211.98 231.83 211.78 233.51 211.56 C 232.13 213.27 230.89 215.11 230.06 217.16 C 228.98 219.58 227.97 222.03 226.98 224.48 C 225.95 222.77 224.69 221.21 223.29 219.80 C 223.03 221.34 222.78 222.88 222.54 224.43 C 222.12 224.41 221.27 224.38 220.85 224.36 C 220.30 223.50 219.74 222.64 219.19 221.79 C 216.46 217.63 213.94 213.18 213.57 208.11 C 215.07 206.56 216.56 204.99 218.11 203.49 Z" />
</g>
<g id="#68625fff">
<path fill="#68625f" opacity="1.00" d=" M 212.18 158.21 C 216.97 163.51 222.95 167.49 228.80 171.50 C 229.18 172.57 229.59 173.64 230.01 174.70 C 229.13 174.68 228.26 174.66 227.39 174.64 C 227.01 175.01 226.25 175.74 225.87 176.11 L 225.16 175.79 C 224.91 175.38 224.41 174.57 224.16 174.16 C 224.52 173.64 225.22 172.62 225.57 172.10 C 221.17 170.91 216.96 169.15 212.63 167.73 C 210.80 164.93 212.18 161.31 212.18 158.21 Z" />
</g>
<g id="#716d6eff">
<path fill="#716d6e" opacity="1.00" d=" M 199.47 167.95 C 201.30 165.99 202.20 163.41 203.35 161.03 C 204.20 164.21 204.97 167.42 205.66 170.64 C 204.22 170.82 202.78 171.01 201.35 171.20 C 200.87 171.56 199.91 172.27 199.43 172.62 C 198.93 174.13 198.71 175.71 198.51 177.29 C 198.14 178.92 197.68 180.53 197.15 182.12 C 196.65 183.19 196.51 184.31 196.74 185.46 C 197.76 190.76 198.61 197.09 203.95 199.83 C 206.10 198.82 208.58 198.16 210.19 196.30 C 210.85 194.27 211.00 192.13 211.30 190.03 C 211.93 191.33 212.57 192.63 213.22 193.92 C 215.42 193.45 217.66 193.77 219.42 195.28 C 223.46 194.28 224.18 189.71 225.78 186.51 C 226.28 188.02 226.78 189.53 227.30 191.03 C 228.32 189.62 229.65 188.33 230.22 186.65 C 229.53 183.75 228.86 180.84 228.76 177.85 C 229.38 177.75 230.62 177.54 231.25 177.44 C 231.74 178.54 232.24 179.66 232.68 180.80 C 232.10 184.66 231.10 188.45 230.57 192.32 C 233.24 191.56 234.59 189.18 235.43 186.72 C 238.23 182.39 234.71 178.04 232.66 174.27 C 233.80 173.58 234.93 172.88 236.06 172.17 C 236.63 175.06 238.27 177.50 239.91 179.88 C 244.06 184.67 239.90 190.11 237.33 194.46 C 239.19 194.98 241.05 195.52 242.91 196.07 C 239.53 195.49 235.39 194.50 232.86 197.55 C 232.36 197.95 231.37 198.76 230.87 199.16 C 230.05 199.70 229.22 200.22 228.36 200.70 C 225.48 202.37 222.14 202.59 218.95 203.22 L 218.11 203.49 C 216.80 204.02 215.26 204.22 214.19 205.21 C 213.50 206.95 213.19 208.81 212.80 210.64 C 211.51 209.11 210.15 207.64 208.73 206.24 C 208.53 206.03 208.13 205.63 207.93 205.42 C 207.67 205.56 207.13 205.82 206.86 205.95 C 206.04 206.38 205.23 206.82 204.43 207.27 C 204.75 209.56 205.02 211.87 205.47 214.15 C 204.85 213.86 203.62 213.29 203.00 213.00 C 200.36 212.44 197.65 212.55 194.98 212.71 C 194.57 211.47 194.18 210.23 193.78 209.00 C 194.88 208.36 195.99 207.71 197.12 207.12 C 198.78 206.62 200.44 206.12 202.10 205.59 C 201.41 204.76 200.73 203.91 199.81 203.33 C 193.22 199.80 191.13 192.08 188.12 185.78 C 188.85 185.58 189.58 185.39 190.31 185.19 C 190.74 185.08 191.59 184.84 192.02 184.73 C 192.46 183.79 192.92 182.87 193.42 181.96 C 194.24 181.26 195.09 180.61 195.93 179.94 C 194.56 178.53 193.18 177.12 191.78 175.74 C 192.11 174.65 192.43 173.57 192.74 172.48 C 195.00 170.99 197.20 169.42 199.47 167.95 M 218.25 201.15 C 218.80 201.70 218.80 201.70 218.25 201.15 Z" />
</g>
<g id="#a6a5a5ff">
<path fill="#a6a5a5" opacity="1.00" d=" M 185.25 167.08 C 188.27 165.57 185.37 170.40 185.25 167.08 Z" />
</g>
<g id="#f4f0ebff">
<path fill="#f4f0eb" opacity="1.00" d=" M 207.39 168.21 C 208.73 166.72 211.02 169.05 209.54 170.38 C 208.25 171.87 205.99 169.50 207.39 168.21 Z" />
</g>
<g id="#dcd8c8ff">
<path fill="#dcd8c8" opacity="1.00" d=" M 199.43 172.62 C 199.91 172.27 200.87 171.56 201.35 171.20 C 200.87 171.56 199.91 172.27 199.43 172.62 Z" />
</g>
<g id="#cecac0ff">
<path fill="#cecac0" opacity="1.00" d=" M 228.80 171.50 C 230.16 172.32 231.47 173.21 232.66 174.27 C 234.71 178.04 238.23 182.39 235.43 186.72 C 234.43 184.79 233.48 182.82 232.68 180.80 C 232.24 179.66 231.74 178.54 231.25 177.44 C 230.83 176.52 230.40 175.62 230.01 174.70 C 229.59 173.64 229.18 172.57 228.80 171.50 Z" />
</g>
<g id="#f0ad8cff">
<path fill="#f0ad8c" opacity="1.00" d=" M 255.57 174.59 C 257.70 172.99 260.18 171.90 262.64 170.88 C 262.95 174.22 265.01 176.80 267.28 179.10 C 266.97 180.08 266.66 181.07 266.36 182.06 C 263.86 179.97 260.72 178.11 257.34 178.81 C 256.08 179.69 255.18 180.96 254.27 182.17 C 254.45 179.62 254.25 176.89 255.57 174.59 Z" />
</g>
<g id="#a8a6a8ff">
<path fill="#a8a6a8" opacity="1.00" d=" M 204.21 172.71 C 207.08 172.71 209.98 173.17 212.80 172.37 C 211.13 175.60 209.14 179.54 211.40 183.01 C 212.03 181.46 212.61 179.88 213.21 178.31 C 214.67 179.07 216.14 179.81 217.61 180.56 C 217.91 179.65 218.20 178.75 218.50 177.86 C 219.15 177.77 219.80 177.69 220.45 177.61 C 219.91 176.40 219.38 175.19 218.86 173.98 C 220.96 174.56 223.07 175.13 225.16 175.79 L 225.87 176.11 C 225.76 176.70 225.52 177.88 225.40 178.46 C 224.42 178.09 223.41 177.79 222.43 177.42 C 223.20 180.03 223.84 182.67 224.35 185.35 L 224.55 186.35 C 223.69 186.74 222.85 187.16 222.02 187.62 C 219.68 185.31 217.21 183.14 214.53 181.25 C 213.47 182.23 212.40 183.20 211.34 184.18 C 210.48 183.61 209.63 183.04 208.77 182.47 C 208.73 183.81 208.68 185.14 208.63 186.48 C 209.45 187.04 210.27 187.61 211.10 188.17 C 207.93 189.35 204.53 189.31 201.23 188.92 C 200.52 187.25 199.81 185.59 199.06 183.94 C 198.73 183.01 198.09 182.41 197.15 182.12 C 197.68 180.53 198.14 178.92 198.51 177.29 C 200.30 175.68 201.88 173.54 204.21 172.71 M 200.86 183.17 C 201.34 184.91 202.01 186.60 203.00 188.12 C 203.81 187.30 204.58 186.44 205.37 185.60 C 204.81 185.59 203.68 185.59 203.11 185.58 C 203.09 184.30 203.07 183.03 203.05 181.75 C 202.50 182.10 201.41 182.81 200.86 183.17 Z" />
</g>
<g id="#db9979ff">
<path fill="#db9979" opacity="1.00" d=" M 188.48 175.57 C 189.45 174.06 191.34 173.50 192.74 172.48 C 192.43 173.57 192.11 174.65 191.78 175.74 C 191.17 177.74 190.57 179.76 190.36 181.85 C 190.32 182.96 190.31 184.08 190.31 185.19 C 189.58 185.39 188.85 185.58 188.12 185.78 C 191.13 192.08 193.22 199.80 199.81 203.33 C 200.73 203.91 201.41 204.76 202.10 205.59 C 200.44 206.12 198.78 206.62 197.12 207.12 C 193.87 207.36 190.59 207.53 187.34 207.25 C 186.24 206.60 184.48 206.24 184.51 204.63 C 184.04 201.49 184.47 198.29 184.01 195.15 C 183.07 193.37 180.87 192.75 179.33 191.57 C 177.33 188.82 175.58 185.89 173.63 183.10 C 177.96 182.16 181.97 180.25 185.82 178.10 C 186.46 180.07 187.08 182.06 187.67 184.05 C 187.79 181.22 187.48 178.27 188.48 175.57 Z" />
</g>
<g id="#8a888cff">
<path fill="#8a888c" opacity="1.00" d=" M 227.39 174.64 C 228.26 174.66 229.13 174.68 230.01 174.70 C 230.40 175.62 230.83 176.52 231.25 177.44 C 230.62 177.54 229.38 177.75 228.76 177.85 C 228.86 180.84 229.53 183.75 230.22 186.65 C 229.65 188.33 228.32 189.62 227.30 191.03 C 226.78 189.53 226.28 188.02 225.78 186.51 C 224.18 189.71 223.46 194.28 219.42 195.28 C 217.66 193.77 215.42 193.45 213.22 193.92 C 212.57 192.63 211.93 191.33 211.30 190.03 C 211.00 192.13 210.85 194.27 210.19 196.30 C 208.58 198.16 206.10 198.82 203.95 199.83 C 198.61 197.09 197.76 190.76 196.74 185.46 C 197.61 185.11 198.39 184.61 199.06 183.94 C 199.81 185.59 200.52 187.25 201.23 188.92 C 204.53 189.31 207.93 189.35 211.10 188.17 C 211.51 188.04 212.33 187.77 212.74 187.63 C 212.77 187.90 212.83 188.44 212.86 188.71 C 212.97 189.62 213.19 191.44 213.29 192.34 C 216.05 191.59 218.19 189.67 220.25 187.78 C 220.69 187.74 221.58 187.66 222.02 187.62 C 222.85 187.16 223.69 186.74 224.55 186.35 C 226.74 186.83 225.82 183.48 224.35 185.35 C 223.84 182.67 223.20 180.03 222.43 177.42 C 223.41 177.79 224.42 178.09 225.40 178.46 C 225.52 177.88 225.76 176.70 225.87 176.11 C 226.25 175.74 227.01 175.01 227.39 174.64 M 200.61 190.15 C 199.35 191.07 200.16 193.89 201.93 193.18 C 203.84 192.45 202.34 189.41 200.61 190.15 Z" />
<path fill="#8a888c" opacity="1.00" d=" M 128.54 222.11 C 131.33 222.25 134.13 222.42 136.92 222.57 C 141.05 223.64 145.13 224.90 149.21 226.12 C 149.46 226.59 149.94 227.54 150.18 228.01 C 143.17 226.59 136.40 224.21 129.43 222.62 L 128.54 222.11 Z" />
</g>
<g id="#928885ff">
<path fill="#928885" opacity="1.00" d=" M 190.36 181.85 C 190.57 179.76 191.17 177.74 191.78 175.74 C 193.18 177.12 194.56 178.53 195.93 179.94 C 195.09 180.61 194.24 181.26 193.42 181.96 C 192.40 181.92 191.38 181.88 190.36 181.85 Z" />
</g>
<g id="#000000c2">
<path fill="#000000" opacity="0.76" d=" M 239.91 179.88 C 241.60 178.24 243.55 176.90 245.65 175.84 C 247.25 178.16 249.54 180.20 250.23 183.01 C 249.23 187.86 245.02 191.45 244.73 196.54 C 244.28 196.42 243.37 196.18 242.91 196.07 C 241.05 195.52 239.19 194.98 237.33 194.46 C 239.90 190.11 244.06 184.67 239.91 179.88 Z" />
</g>
<g id="#c7bbb6ff">
<path fill="#c7bbb6" opacity="1.00" d=" M 257.34 178.81 C 260.72 178.11 263.86 179.97 266.36 182.06 C 265.95 183.35 265.55 184.65 265.15 185.96 C 264.79 186.43 264.07 187.38 263.72 187.86 C 263.11 188.88 262.51 189.89 261.90 190.91 C 259.76 192.95 256.62 195.18 253.62 193.48 C 251.67 192.48 252.05 190.11 252.14 188.32 C 253.20 186.40 253.81 184.29 254.27 182.17 C 255.18 180.96 256.08 179.69 257.34 178.81 Z" />
</g>
<g id="#452d1fff">
<path fill="#452d1f" opacity="1.00" d=" M 162.74 183.06 C 165.72 182.54 169.00 179.81 171.94 181.17 C 172.62 184.46 173.01 187.81 173.58 191.12 C 173.81 192.52 174.04 193.92 174.30 195.31 C 174.71 197.98 175.05 200.66 175.60 203.30 C 175.72 203.72 175.95 204.54 176.07 204.96 C 176.86 207.15 177.57 209.38 178.59 211.48 C 179.51 212.81 180.51 214.08 181.60 215.28 C 184.05 217.72 187.29 219.09 190.42 220.43 C 190.24 221.62 190.07 222.81 189.91 224.00 C 188.99 223.47 188.06 222.94 187.14 222.41 C 186.51 222.06 185.88 221.71 185.24 221.38 C 181.95 219.55 178.17 218.58 175.37 215.95 C 175.98 214.99 176.66 214.07 177.13 213.03 C 176.58 211.12 175.45 209.44 174.52 207.70 C 172.60 207.70 170.68 207.70 168.76 207.69 C 166.40 204.94 165.14 200.55 161.09 199.95 C 161.91 199.69 162.74 199.43 163.56 199.15 C 161.18 194.09 160.54 188.30 162.74 183.06 Z" />
</g>
<g id="#645652ff">
<path fill="#645652" opacity="1.00" d=" M 171.94 181.17 C 172.52 181.79 173.09 182.43 173.63 183.10 C 175.58 185.89 177.33 188.82 179.33 191.57 C 179.49 192.64 179.64 193.71 179.78 194.79 C 178.77 194.78 177.76 194.78 176.75 194.78 C 178.97 198.83 180.84 203.05 182.93 207.16 C 183.57 208.90 185.59 209.13 187.05 209.87 C 187.09 208.99 187.21 208.12 187.34 207.25 C 190.59 207.53 193.87 207.36 197.12 207.12 C 195.99 207.71 194.88 208.36 193.78 209.00 C 194.18 210.23 194.57 211.47 194.98 212.71 C 193.54 213.94 192.11 215.18 190.70 216.45 C 191.31 216.26 192.52 215.89 193.13 215.71 C 193.78 216.32 194.43 216.94 195.08 217.56 C 193.40 219.40 191.83 221.44 191.40 223.96 L 191.18 224.82 C 190.24 228.90 190.95 233.07 191.97 237.07 C 189.61 233.14 189.03 228.46 189.91 224.00 C 190.07 222.81 190.24 221.62 190.42 220.43 C 187.29 219.09 184.05 217.72 181.60 215.28 C 181.71 214.07 182.15 212.77 181.44 211.66 C 180.49 211.53 179.54 211.47 178.59 211.48 C 177.57 209.38 176.86 207.15 176.07 204.96 C 177.46 204.94 178.74 203.44 178.08 202.08 C 177.31 200.26 175.45 201.95 175.60 203.30 C 175.05 200.66 174.71 197.98 174.30 195.31 C 175.99 193.80 176.24 191.85 175.25 189.85 C 174.83 190.17 174.00 190.81 173.58 191.12 C 173.01 187.81 172.62 184.46 171.94 181.17 Z" />
</g>
<g id="#f7f2ebff">
<path fill="#f7f2eb" opacity="1.00" d=" M 190.36 181.85 C 191.38 181.88 192.40 181.92 193.42 181.96 C 192.92 182.87 192.46 183.79 192.02 184.73 C 191.59 184.84 190.74 185.08 190.31 185.19 C 190.31 184.08 190.32 182.96 190.36 181.85 Z" />
</g>
<g id="#efe9edff">
<path fill="#efe9ed" opacity="1.00" d=" M 211.34 184.18 C 212.40 183.20 213.47 182.23 214.53 181.25 C 217.21 183.14 219.68 185.31 222.02 187.62 C 221.58 187.66 220.69 187.74 220.25 187.78 C 217.76 187.89 215.29 188.17 212.86 188.71 C 212.83 188.44 212.77 187.90 212.74 187.63 C 212.33 187.77 211.51 188.04 211.10 188.17 C 210.27 187.61 209.45 187.04 208.63 186.48 C 208.68 185.14 208.73 183.81 208.77 182.47 C 209.63 183.04 210.48 183.61 211.34 184.18 Z" />
</g>
<g id="#514c4bff">
<path fill="#514c4b" opacity="1.00" d=" M 230.57 192.32 C 231.10 188.45 232.10 184.66 232.68 180.80 C 233.48 182.82 234.43 184.79 235.43 186.72 C 234.59 189.18 233.24 191.56 230.57 192.32 Z" />
</g>
<g id="#f2ece8ff">
<path fill="#f2ece8" opacity="1.00" d=" M 197.15 182.12 C 198.09 182.41 198.73 183.01 199.06 183.94 C 198.39 184.61 197.61 185.11 196.74 185.46 C 196.51 184.31 196.65 183.19 197.15 182.12 Z" />
</g>
<g id="#949295ff">
<path fill="#949295" opacity="1.00" d=" M 200.86 183.17 C 201.41 182.81 202.50 182.10 203.05 181.75 C 203.07 183.03 203.09 184.30 203.11 185.58 C 203.68 185.59 204.81 185.59 205.37 185.60 C 204.58 186.44 203.81 187.30 203.00 188.12 C 202.01 186.60 201.34 184.91 200.86 183.17 Z" />
</g>
<g id="#fffff9ff">
<path fill="#fffff9" opacity="1.00" d=" M 224.35 185.35 C 225.82 183.48 226.74 186.83 224.55 186.35 L 224.35 185.35 Z" />
</g>
<g id="#45403e87">
<path fill="#45403e" opacity="0.53" d=" M 263.72 187.86 C 264.07 187.38 264.79 186.43 265.15 185.96 C 264.79 186.43 264.07 187.38 263.72 187.86 Z" />
</g>
<g id="#aea9b0ff">
<path fill="#aea9b0" opacity="1.00" d=" M 212.86 188.71 C 215.29 188.17 217.76 187.89 220.25 187.78 C 218.19 189.67 216.05 191.59 213.29 192.34 C 213.19 191.44 212.97 189.62 212.86 188.71 Z" />
</g>
<g id="#a49590ff">
<path fill="#a49590" opacity="1.00" d=" M 173.58 191.12 C 174.00 190.81 174.83 190.17 175.25 189.85 C 176.24 191.85 175.99 193.80 174.30 195.31 C 174.04 193.92 173.81 192.52 173.58 191.12 Z" />
</g>
<g id="#f1ebeaff">
<path fill="#f1ebea" opacity="1.00" d=" M 200.61 190.15 C 202.34 189.41 203.84 192.45 201.93 193.18 C 200.16 193.89 199.35 191.07 200.61 190.15 Z" />
<path fill="#f1ebea" opacity="1.00" d=" M 203.00 213.00 C 203.62 213.29 204.85 213.86 205.47 214.15 C 207.36 218.51 209.54 222.89 212.83 226.39 L 213.53 227.06 C 211.07 227.75 208.52 227.82 206.04 227.21 C 206.44 224.11 203.61 222.28 202.08 220.00 C 200.79 218.47 200.58 216.43 200.23 214.54 C 201.15 214.03 202.08 213.51 203.00 213.00 Z" />
<path fill="#f1ebea" opacity="1.00" d=" M 193.13 215.71 C 194.14 215.52 195.28 215.04 196.25 215.66 C 199.82 217.64 201.45 221.67 202.36 225.44 C 199.91 222.83 197.58 220.12 195.08 217.56 C 194.43 216.94 193.78 216.32 193.13 215.71 Z" />
</g>
<g id="#4d3c37ff">
<path fill="#4d3c37" opacity="1.00" d=" M 179.33 191.57 C 180.87 192.75 183.07 193.37 184.01 195.15 C 184.47 198.29 184.04 201.49 184.51 204.63 C 184.48 206.24 186.24 206.60 187.34 207.25 C 187.21 208.12 187.09 208.99 187.05 209.87 C 185.59 209.13 183.57 208.90 182.93 207.16 C 180.84 203.05 178.97 198.83 176.75 194.78 C 177.76 194.78 178.77 194.78 179.78 194.79 C 179.64 193.71 179.49 192.64 179.33 191.57 Z" />
<path fill="#4d3c37" opacity="1.00" d=" M 144.94 204.22 C 145.98 204.42 147.02 204.63 148.06 204.84 C 144.91 209.14 143.57 214.66 144.10 219.92 C 144.19 223.48 148.39 223.50 150.95 224.15 C 150.61 224.54 149.93 225.32 149.58 225.71 L 149.21 226.12 C 145.13 224.90 141.05 223.64 136.92 222.57 C 137.53 222.40 138.76 222.08 139.37 221.91 C 140.03 221.86 141.34 221.76 142.00 221.71 C 142.12 220.44 142.24 219.18 142.37 217.92 C 142.76 214.16 143.46 210.43 144.36 206.76 C 144.55 205.91 144.75 205.07 144.94 204.22 Z" />
</g>
<g id="#8f8b90ff">
<path fill="#8f8b90" opacity="1.00" d=" M 232.86 197.55 C 235.39 194.50 239.53 195.49 242.91 196.07 C 243.37 196.18 244.28 196.42 244.73 196.54 C 245.23 196.45 246.24 196.26 246.75 196.16 L 247.44 196.00 C 247.70 199.63 250.36 202.18 253.13 204.20 C 254.45 201.11 254.06 197.81 253.22 194.66 C 255.95 196.58 255.10 200.31 255.18 203.17 C 251.50 207.55 256.25 214.53 250.97 218.22 C 250.57 215.51 250.97 212.29 248.86 210.20 C 246.31 207.59 243.18 205.40 239.63 204.44 C 237.03 203.75 234.45 204.91 231.95 205.46 C 230.75 203.87 229.58 202.26 228.36 200.70 C 229.22 200.22 230.05 199.70 230.87 199.16 C 231.07 199.79 231.47 201.05 231.68 201.68 C 232.91 201.59 234.14 201.52 235.37 201.44 C 235.49 200.43 235.60 199.42 235.72 198.42 C 235.01 198.20 233.58 197.77 232.86 197.55 M 238.04 198.31 C 238.65 199.55 239.33 200.76 240.12 201.91 C 241.87 200.85 242.86 199.12 242.89 197.06 C 241.26 197.41 239.64 197.83 238.04 198.31 M 245.29 203.20 C 244.76 204.81 245.32 205.36 246.96 204.84 C 247.48 203.22 246.93 202.67 245.29 203.20 Z" />
</g>
<g id="#dbd0cbff">
<path fill="#dbd0cb" opacity="1.00" d=" M 247.44 196.00 C 249.36 195.52 251.28 195.05 253.22 194.66 C 254.06 197.81 254.45 201.11 253.13 204.20 C 250.36 202.18 247.70 199.63 247.44 196.00 Z" />
<path fill="#dbd0cb" opacity="1.00" d=" M 238.04 198.31 C 239.64 197.83 241.26 197.41 242.89 197.06 C 242.86 199.12 241.87 200.85 240.12 201.91 C 239.33 200.76 238.65 199.55 238.04 198.31 Z" />
</g>
<g id="#403936be">
<path fill="#403936" opacity="0.75" d=" M 258.06 199.14 C 257.74 197.43 258.48 195.79 259.98 194.91 C 260.52 196.65 259.67 198.37 258.06 199.14 Z" />
</g>
<g id="#eee7ebff">
<path fill="#eee7eb" opacity="1.00" d=" M 230.87 199.16 C 231.37 198.76 232.36 197.95 232.86 197.55 C 233.58 197.77 235.01 198.20 235.72 198.42 C 235.60 199.42 235.49 200.43 235.37 201.44 C 234.14 201.52 232.91 201.59 231.68 201.68 C 231.47 201.05 231.07 199.79 230.87 199.16 Z" />
<path fill="#eee7eb" opacity="1.00" d=" M 206.86 205.95 C 207.13 205.82 207.67 205.56 207.93 205.42 C 208.13 205.63 208.53 206.03 208.73 206.24 C 209.20 211.46 212.69 215.51 214.82 220.10 C 208.62 218.47 207.36 211.41 206.86 205.95 Z" />
<path fill="#eee7eb" opacity="1.00" d=" M 166.71 225.63 C 168.77 225.41 170.84 225.32 172.91 225.18 C 172.27 225.77 171.62 226.37 170.98 226.96 C 170.54 227.00 169.65 227.07 169.21 227.10 C 167.47 227.02 165.74 226.89 164.01 226.78 C 164.91 226.40 165.81 226.02 166.71 225.63 Z" />
</g>
<g id="#7e7371ff">
<path fill="#7e7371" opacity="1.00" d=" M 147.90 201.79 C 152.30 201.26 156.72 200.77 161.09 199.95 C 165.14 200.55 166.40 204.94 168.76 207.69 C 168.60 209.12 168.45 210.55 168.39 211.99 C 168.39 214.27 168.58 216.54 168.76 218.81 C 168.08 221.09 167.39 223.36 166.71 225.63 C 165.81 226.02 164.91 226.40 164.01 226.78 C 165.74 226.89 167.47 227.02 169.21 227.10 C 164.12 227.81 159.05 229.20 153.87 228.42 C 153.02 226.82 151.33 225.92 149.58 225.71 C 149.93 225.32 150.61 224.54 150.95 224.15 L 151.83 224.25 C 153.95 224.49 156.08 224.62 158.22 224.66 C 158.66 223.48 159.12 222.30 159.58 221.13 C 160.39 221.79 161.28 222.35 162.07 223.05 C 162.42 223.46 163.11 224.27 163.46 224.68 C 164.78 223.82 166.10 222.96 167.42 222.10 C 166.49 215.97 166.10 209.68 163.98 203.82 C 160.37 204.90 161.28 209.20 160.60 212.07 C 157.63 211.47 159.24 207.45 158.43 205.26 C 158.03 201.24 153.01 201.97 150.13 201.82 C 149.57 201.81 148.45 201.80 147.90 201.79 Z" />
</g>
<g id="#a3958fff">
<path fill="#a3958f" opacity="1.00" d=" M 175.60 203.30 C 175.45 201.95 177.31 200.26 178.08 202.08 C 178.74 203.44 177.46 204.94 176.07 204.96 C 175.95 204.54 175.72 203.72 175.60 203.30 Z" />
</g>
<g id="#efe3deff">
<path fill="#efe3de" opacity="1.00" d=" M 218.25 201.15 C 218.80 201.70 218.80 201.70 218.25 201.15 Z" />
</g>
<g id="#c8bdb5ff">
<path fill="#c8bdb5" opacity="1.00" d=" M 218.95 203.22 C 222.14 202.59 225.48 202.37 228.36 200.70 C 229.58 202.26 230.75 203.87 231.95 205.46 C 234.31 207.98 236.14 210.89 235.89 214.49 C 234.61 216.15 233.55 217.98 232.75 219.92 C 232.92 217.92 232.97 215.92 233.03 213.92 C 232.02 214.98 231.01 216.04 230.06 217.16 C 230.89 215.11 232.13 213.27 233.51 211.56 C 231.83 211.78 230.14 211.98 228.46 212.20 C 228.33 208.30 226.31 204.85 222.61 203.38 C 222.99 205.57 223.41 207.77 223.83 209.96 C 222.25 207.68 220.65 205.41 218.95 203.22 Z" />
</g>
<g id="#948a88ff">
<path fill="#948a88" opacity="1.00" d=" M 119.97 203.33 C 129.32 204.43 138.62 202.80 147.90 201.79 C 148.45 201.80 149.57 201.81 150.13 201.82 C 149.44 202.83 148.74 203.83 148.06 204.84 C 147.02 204.63 145.98 204.42 144.94 204.22 C 144.75 205.07 144.55 205.91 144.36 206.76 C 139.81 205.68 135.15 206.45 130.76 207.82 C 130.54 208.85 130.36 209.88 130.21 210.93 C 129.96 213.59 129.96 216.26 129.95 218.93 C 128.68 218.24 127.45 217.51 126.20 216.79 C 126.46 213.68 126.58 210.56 126.74 207.45 C 124.81 207.29 122.88 207.13 120.96 206.95 C 121.26 206.32 121.87 205.06 122.18 204.43 C 124.16 204.34 126.14 204.27 128.12 204.18 C 125.40 203.85 122.68 203.63 119.97 203.33 Z" />
</g>
<g id="#cfc4bfff">
<path fill="#cfc4bf" opacity="1.00" d=" M 150.13 201.82 C 153.01 201.97 158.03 201.24 158.43 205.26 C 159.24 207.45 157.63 211.47 160.60 212.07 C 161.28 209.20 160.37 204.90 163.98 203.82 C 166.10 209.68 166.49 215.97 167.42 222.10 C 166.10 222.96 164.78 223.82 163.46 224.68 C 163.11 224.27 162.42 223.46 162.07 223.05 C 162.45 219.44 162.00 215.70 159.41 212.97 C 158.65 216.46 158.05 219.98 157.54 223.51 C 155.64 223.77 153.74 224.04 151.83 224.25 L 150.95 224.15 C 148.39 223.50 144.19 223.48 144.10 219.92 C 143.57 214.66 144.91 209.14 148.06 204.84 C 148.74 203.83 149.44 202.83 150.13 201.82 Z" />
</g>
<g id="#645f61ff">
<path fill="#645f61" opacity="1.00" d=" M 231.95 205.46 C 234.45 204.91 237.03 203.75 239.63 204.44 C 243.18 205.40 246.31 207.59 248.86 210.20 C 250.97 212.29 250.57 215.51 250.97 218.22 C 250.59 218.45 249.82 218.90 249.43 219.13 C 249.11 217.70 248.79 216.28 248.47 214.85 C 245.15 219.00 245.08 225.20 240.43 228.36 C 242.35 224.62 242.08 220.31 242.84 216.27 C 243.87 215.24 245.77 214.59 245.64 212.85 C 245.88 210.68 244.27 208.99 243.27 207.26 C 241.29 206.88 239.30 207.03 237.50 207.97 C 237.49 210.80 237.31 213.63 237.19 216.45 C 236.86 215.96 236.21 214.98 235.89 214.49 C 236.14 210.89 234.31 207.98 231.95 205.46 Z" />
</g>
<g id="#ccc6ccff">
<path fill="#ccc6cc" opacity="1.00" d=" M 245.29 203.20 C 246.93 202.67 247.48 203.22 246.96 204.84 C 245.32 205.36 244.76 204.81 245.29 203.20 Z" />
</g>
<g id="#8c8b91ff">
<path fill="#8c8b91" opacity="1.00" d=" M 214.19 205.21 C 215.26 204.22 216.80 204.02 218.11 203.49 C 216.56 204.99 215.07 206.56 213.57 208.11 C 213.94 213.18 216.46 217.63 219.19 221.79 C 218.75 222.68 218.31 223.58 217.87 224.49 C 216.36 224.15 214.84 223.82 213.33 223.49 C 213.20 224.22 212.95 225.67 212.83 226.39 C 209.54 222.89 207.36 218.51 205.47 214.15 C 205.02 211.87 204.75 209.56 204.43 207.27 C 205.23 206.82 206.04 206.38 206.86 205.95 C 207.36 211.41 208.62 218.47 214.82 220.10 C 212.69 215.51 209.20 211.46 208.73 206.24 C 210.15 207.64 211.51 209.11 212.80 210.64 C 213.19 208.81 213.50 206.95 214.19 205.21 Z" />
</g>
<g id="#281f1bc4">
<path fill="#281f1b" opacity="0.77" d=" M 103.59 207.35 C 106.97 207.21 110.32 206.68 113.38 205.18 C 113.23 205.87 112.93 207.25 112.78 207.93 C 109.75 208.05 106.28 209.33 103.59 207.35 Z" />
</g>
<g id="#756562ff">
<path fill="#756562" opacity="1.00" d=" M 113.38 205.18 C 116.29 204.69 119.24 204.59 122.18 204.43 C 121.87 205.06 121.26 206.32 120.96 206.95 C 119.53 208.83 117.05 210.38 117.24 213.04 C 117.06 215.44 118.12 217.65 119.10 219.77 C 121.60 219.32 125.24 219.84 126.20 216.79 C 127.45 217.51 128.68 218.24 129.95 218.93 C 132.96 220.28 136.17 221.13 139.37 221.91 C 138.76 222.08 137.53 222.40 136.92 222.57 C 134.13 222.42 131.33 222.25 128.54 222.11 C 124.32 221.55 119.60 220.51 115.69 222.76 L 114.90 222.99 C 114.25 223.02 112.93 223.10 112.28 223.14 C 112.93 222.24 113.60 221.36 114.24 220.45 C 116.63 216.33 115.43 211.22 116.53 206.71 C 115.18 207.77 113.84 208.83 112.45 209.82 C 109.60 210.40 106.69 210.63 103.79 210.64 C 103.10 209.58 102.41 208.52 101.71 207.47 C 102.18 207.44 103.12 207.38 103.59 207.35 C 106.28 209.33 109.75 208.05 112.78 207.93 C 112.93 207.25 113.23 205.87 113.38 205.18 Z" />
</g>
<g id="#d5cbc5ff">
<path fill="#d5cbc5" opacity="1.00" d=" M 130.76 207.82 C 135.15 206.45 139.81 205.68 144.36 206.76 C 143.46 210.43 142.76 214.16 142.37 217.92 C 139.36 217.62 136.23 217.70 133.35 216.68 C 131.15 215.70 130.81 212.98 130.21 210.93 C 130.36 209.88 130.54 208.85 130.76 207.82 Z" />
</g>
<g id="#bfb3acff">
<path fill="#bfb3ac" opacity="1.00" d=" M 112.45 209.82 C 113.84 208.83 115.18 207.77 116.53 206.71 C 115.43 211.22 116.63 216.33 114.24 220.45 C 113.93 219.85 113.32 218.65 113.02 218.05 C 112.57 215.33 112.49 212.57 112.45 209.82 Z" />
</g>
<g id="#d3c8c2ff">
<path fill="#d3c8c2" opacity="1.00" d=" M 120.96 206.95 C 122.88 207.13 124.81 207.29 126.74 207.45 C 126.58 210.56 126.46 213.68 126.20 216.79 C 125.24 219.84 121.60 219.32 119.10 219.77 C 118.12 217.65 117.06 215.44 117.24 213.04 C 117.05 210.38 119.53 208.83 120.96 206.95 Z" />
</g>
<g id="#978d88ff">
<path fill="#978d88" opacity="1.00" d=" M 168.76 207.69 C 170.68 207.70 172.60 207.70 174.52 207.70 C 175.45 209.44 176.58 211.12 177.13 213.03 C 176.66 214.07 175.98 214.99 175.37 215.95 C 178.17 218.58 181.95 219.55 185.24 221.38 C 181.40 222.85 177.25 222.89 173.22 222.36 C 173.61 219.65 174.68 216.52 172.95 214.05 C 171.71 212.88 169.93 212.60 168.39 211.99 C 168.45 210.55 168.60 209.12 168.76 207.69 Z" />
</g>
<g id="#928f91ff">
<path fill="#928f91" opacity="1.00" d=" M 237.50 207.97 C 239.30 207.03 241.29 206.88 243.27 207.26 C 242.41 207.45 240.68 207.84 239.81 208.03 C 239.24 211.26 240.04 214.36 242.84 216.27 C 242.08 220.31 242.35 224.62 240.43 228.36 C 236.48 232.10 233.30 236.89 227.94 238.79 C 223.01 239.13 217.97 238.27 213.84 235.44 C 218.75 235.67 223.72 235.36 228.53 234.28 C 230.18 233.90 231.21 232.44 232.19 231.18 C 235.17 226.89 238.49 221.96 237.19 216.45 C 237.31 213.63 237.49 210.80 237.50 207.97 Z" />
</g>
<g id="#b5b0b6ff">
<path fill="#b5b0b6" opacity="1.00" d=" M 100.06 216.07 C 100.00 213.11 100.65 210.22 101.71 207.47 C 102.41 208.52 103.10 209.58 103.79 210.64 C 102.29 211.56 102.69 213.42 102.55 214.89 C 101.72 215.28 100.89 215.68 100.06 216.07 Z" />
<path fill="#b5b0b6" opacity="1.00" d=" M 115.69 222.76 C 119.60 220.51 124.32 221.55 128.54 222.11 L 129.43 222.62 C 124.85 222.68 120.26 222.42 115.69 222.76 Z" />
<path fill="#b5b0b6" opacity="1.00" d=" M 192.06 228.02 C 193.73 228.28 195.38 228.63 197.01 229.08 C 196.50 229.96 196.04 230.87 195.59 231.79 C 196.37 232.33 197.46 232.63 197.77 233.64 C 199.10 236.75 200.06 240.02 200.73 243.34 C 197.74 241.35 194.88 238.36 195.09 234.51 C 192.81 233.10 192.15 230.54 192.06 228.02 Z" />
</g>
<g id="#d5c9c3ff">
<path fill="#d5c9c3" opacity="1.00" d=" M 239.81 208.03 C 240.68 207.84 242.41 207.45 243.27 207.26 C 244.27 208.99 245.88 210.68 245.64 212.85 C 245.77 214.59 243.87 215.24 242.84 216.27 C 240.04 214.36 239.24 211.26 239.81 208.03 Z" />
</g>
<g id="#a4837dff">
<path fill="#a4837d" opacity="1.00" d=" M 103.79 210.64 C 106.69 210.63 109.60 210.40 112.45 209.82 C 112.49 212.57 112.57 215.33 113.02 218.05 C 112.84 217.70 112.47 217.00 112.28 216.65 C 112.07 216.28 111.66 215.56 111.46 215.20 C 109.11 215.02 106.75 214.98 104.39 214.92 C 104.20 213.49 104.00 212.06 103.79 210.64 Z" />
</g>
<g id="#765750ff">
<path fill="#765750" opacity="1.00" d=" M 102.55 214.89 C 102.69 213.42 102.29 211.56 103.79 210.64 C 104.00 212.06 104.20 213.49 104.39 214.92 C 106.75 214.98 109.11 215.02 111.46 215.20 C 111.66 215.56 112.07 216.28 112.28 216.65 C 109.74 217.20 107.17 217.57 104.58 217.73 C 103.91 216.78 103.23 215.83 102.55 214.89 Z" />
</g>
<g id="#bcb0acff">
<path fill="#bcb0ac" opacity="1.00" d=" M 130.21 210.93 C 130.81 212.98 131.15 215.70 133.35 216.68 C 136.23 217.70 139.36 217.62 142.37 217.92 C 142.24 219.18 142.12 220.44 142.00 221.71 C 141.34 221.76 140.03 221.86 139.37 221.91 C 136.17 221.13 132.96 220.28 129.95 218.93 C 129.96 216.26 129.96 213.59 130.21 210.93 Z" />
</g>
<g id="#968a86ff">
<path fill="#968a86" opacity="1.00" d=" M 178.59 211.48 C 179.54 211.47 180.49 211.53 181.44 211.66 C 182.15 212.77 181.71 214.07 181.60 215.28 C 180.51 214.08 179.51 212.81 178.59 211.48 Z" />
</g>
<g id="#c9bdb8ff">
<path fill="#c9bdb8" opacity="1.00" d=" M 168.39 211.99 C 169.93 212.60 171.71 212.88 172.95 214.05 C 174.68 216.52 173.61 219.65 173.22 222.36 C 172.46 222.28 170.95 222.13 170.20 222.05 C 169.70 220.98 169.22 219.90 168.76 218.81 C 168.58 216.54 168.39 214.27 168.39 211.99 Z" />
</g>
<g id="#beb5aeff">
<path fill="#beb5ae" opacity="1.00" d=" M 194.98 212.71 C 197.65 212.55 200.36 212.44 203.00 213.00 C 202.08 213.51 201.15 214.03 200.23 214.54 C 200.58 216.43 200.79 218.47 202.08 220.00 C 203.61 222.28 206.44 224.11 206.04 227.21 C 208.52 227.82 211.07 227.75 213.53 227.06 C 215.03 228.41 216.58 229.71 218.09 231.06 C 215.40 230.75 212.71 230.38 210.02 230.11 C 211.29 231.89 212.57 233.66 213.84 235.44 C 210.79 233.60 207.79 231.64 205.07 229.34 C 204.09 228.09 203.22 226.76 202.36 225.44 C 201.45 221.67 199.82 217.64 196.25 215.66 C 195.28 215.04 194.14 215.52 193.13 215.71 C 192.52 215.89 191.31 216.26 190.70 216.45 C 192.11 215.18 193.54 213.94 194.98 212.71 Z" />
</g>
<g id="#998884ff">
<path fill="#998884" opacity="1.00" d=" M 159.41 212.97 C 162.00 215.70 162.45 219.44 162.07 223.05 C 161.28 222.35 160.39 221.79 159.58 221.13 C 159.12 222.30 158.66 223.48 158.22 224.66 C 156.08 224.62 153.95 224.49 151.83 224.25 C 153.74 224.04 155.64 223.77 157.54 223.51 C 158.05 219.98 158.65 216.46 159.41 212.97 Z" />
</g>
<g id="#b1a193ff">
<path fill="#b1a193" opacity="1.00" d=" M 230.06 217.16 C 231.01 216.04 232.02 214.98 233.03 213.92 C 232.97 215.92 232.92 217.92 232.75 219.92 C 231.65 222.39 230.50 225.54 227.46 226.04 C 227.34 225.65 227.10 224.87 226.98 224.48 C 227.97 222.03 228.98 219.58 230.06 217.16 Z" />
</g>
<g id="#564037ff">
<path fill="#564037" opacity="1.00" d=" M 100.06 216.07 C 100.89 215.68 101.72 215.28 102.55 214.89 C 103.23 215.83 103.91 216.78 104.58 217.73 C 107.17 217.57 109.74 217.20 112.28 216.65 C 112.47 217.00 112.84 217.70 113.02 218.05 C 113.32 218.65 113.93 219.85 114.24 220.45 C 113.60 221.36 112.93 222.24 112.28 223.14 C 112.93 223.10 114.25 223.02 114.90 222.99 C 110.60 224.61 105.62 225.04 101.71 222.20 C 101.03 220.19 100.40 218.16 100.06 216.07 Z" />
</g>
<g id="#807b81ff">
<path fill="#807b81" opacity="1.00" d=" M 191.40 223.96 C 191.83 221.44 193.40 219.40 195.08 217.56 C 197.58 220.12 199.91 222.83 202.36 225.44 C 203.22 226.76 204.09 228.09 205.07 229.34 C 203.90 229.69 202.74 230.06 201.58 230.43 C 200.87 233.64 199.70 237.31 201.61 240.34 C 203.87 242.38 207.11 242.79 209.81 244.08 C 203.37 249.12 194.61 243.69 191.97 237.07 C 190.95 233.07 190.24 228.90 191.18 224.82 C 193.63 225.98 196.25 226.75 198.97 226.93 C 198.51 225.51 198.71 223.58 197.25 222.72 C 195.37 221.23 193.23 223.33 191.40 223.96 M 192.06 228.02 C 192.15 230.54 192.81 233.10 195.09 234.51 C 194.88 238.36 197.74 241.35 200.73 243.34 C 200.06 240.02 199.10 236.75 197.77 233.64 C 197.46 232.63 196.37 232.33 195.59 231.79 C 196.04 230.87 196.50 229.96 197.01 229.08 C 195.38 228.63 193.73 228.28 192.06 228.02 Z" />
</g>
<g id="#564f4dff">
<path fill="#564f4d" opacity="1.00" d=" M 166.71 225.63 C 167.39 223.36 168.08 221.09 168.76 218.81 C 169.22 219.90 169.70 220.98 170.20 222.05 C 170.95 222.13 172.46 222.28 173.22 222.36 C 177.25 222.89 181.40 222.85 185.24 221.38 C 185.88 221.71 186.51 222.06 187.14 222.41 C 185.23 222.84 183.37 223.49 181.71 224.56 C 178.56 226.71 174.64 226.70 170.98 226.96 C 171.62 226.37 172.27 225.77 172.91 225.18 C 170.84 225.32 168.77 225.41 166.71 225.63 Z" />
</g>
<g id="#dcd4d2ff">
<path fill="#dcd4d2" opacity="1.00" d=" M 223.29 219.80 C 224.69 221.21 225.95 222.77 226.98 224.48 C 227.10 224.87 227.34 225.65 227.46 226.04 C 224.63 226.35 223.47 229.04 222.35 231.28 C 222.14 228.92 221.87 226.52 220.85 224.36 C 221.27 224.38 222.12 224.41 222.54 224.43 C 222.78 222.88 223.03 221.34 223.29 219.80 Z" />
</g>
<g id="#a29ca4ff">
<path fill="#a29ca4" opacity="1.00" d=" M 191.40 223.96 C 193.23 223.33 195.37 221.23 197.25 222.72 C 198.71 223.58 198.51 225.51 198.97 226.93 C 196.25 226.75 193.63 225.98 191.18 224.82 L 191.40 223.96 Z" />
</g>
<g id="#686463ff">
<path fill="#686463" opacity="1.00" d=" M 217.87 224.49 C 218.31 223.58 218.75 222.68 219.19 221.79 C 219.74 222.64 220.30 223.50 220.85 224.36 C 221.87 226.52 222.14 228.92 222.35 231.28 C 220.93 231.27 219.50 231.21 218.09 231.06 C 216.58 229.71 215.03 228.41 213.53 227.06 L 212.83 226.39 C 212.95 225.67 213.20 224.22 213.33 223.49 C 214.84 223.82 216.36 224.15 217.87 224.49 Z" />
</g>
<g id="#00000012">
</g>
<g id="#d8d2d4f7">
<path fill="#d8d2d4" opacity="0.97" d=" M 149.21 226.12 L 149.58 225.71 C 151.33 225.92 153.02 226.82 153.87 228.42 C 152.62 228.39 151.39 228.25 150.18 228.01 C 149.94 227.54 149.46 226.59 149.21 226.12 Z" />
</g>
</svg>

