<?xml version="1.0" encoding="UTF-8" ?>
<!DOCTYPE svg PUBLIC "-//W3C//DTD SVG 1.1//EN" "http://www.w3.org/Graphics/SVG/1.1/DTD/svg11.dtd">
<svg width="384pt" height="384pt" viewBox="0 0 384 384" version="1.1" xmlns="http://www.w3.org/2000/svg">
<g id="#ad9b96ff">
<path fill="#ad9b96" opacity="1.00" d=" M 189.50 146.56 C 192.96 144.49 196.49 141.67 200.79 142.16 C 208.94 143.90 214.88 150.80 217.44 158.43 C 218.80 162.63 217.65 167.03 217.04 171.25 C 220.06 170.03 222.32 167.71 224.12 165.06 C 224.32 165.33 224.72 165.87 224.92 166.13 C 224.07 167.50 223.17 168.83 222.30 170.18 C 220.82 171.12 219.29 171.99 217.66 172.66 C 214.33 173.22 211.88 175.51 209.88 178.08 C 206.87 178.93 203.79 179.51 200.67 179.70 C 200.03 179.79 198.74 179.96 198.10 180.05 C 198.47 179.59 199.21 178.68 199.58 178.22 C 200.70 178.05 201.83 177.88 202.96 177.71 C 208.73 177.53 212.77 172.81 215.42 168.17 C 215.89 166.19 216.10 164.16 216.28 162.13 C 213.60 163.00 210.78 163.74 207.99 162.85 C 210.34 161.89 212.79 161.26 215.30 160.89 C 214.96 159.32 214.76 157.59 213.61 156.36 C 212.21 154.32 209.52 154.27 207.35 153.65 C 208.30 153.04 209.24 152.42 210.19 151.81 C 208.52 149.22 206.29 147.03 203.46 145.76 C 201.27 144.91 198.93 143.79 196.53 144.37 C 192.58 145.18 189.57 148.06 186.53 150.50 C 183.48 153.08 179.97 155.65 178.72 159.64 C 178.22 161.31 177.65 163.49 179.10 164.87 C 180.76 166.45 182.89 167.41 184.85 168.59 C 186.32 169.44 187.74 170.37 189.11 171.38 C 189.12 171.80 189.14 172.64 189.15 173.06 C 188.71 173.09 187.83 173.16 187.39 173.19 C 186.24 172.69 185.10 172.16 183.97 171.63 C 183.06 171.21 182.16 170.79 181.27 170.37 C 177.81 168.93 175.86 165.61 173.94 162.60 C 176.27 159.58 177.67 155.96 180.00 152.96 C 182.75 150.28 186.31 148.66 189.50 146.56 Z" />
</g>
<g id="#363939ff">
<path fill="#363939" opacity="1.00" d=" M 200.79 142.16 C 205.88 142.41 211.06 141.95 216.06 143.11 C 215.77 143.38 215.20 143.92 214.91 144.19 C 218.64 146.18 223.25 147.66 225.17 151.80 C 227.04 155.22 226.35 159.23 225.83 162.90 C 225.26 163.62 224.69 164.34 224.12 165.06 C 222.32 167.71 220.06 170.03 217.04 171.25 C 217.65 167.03 218.80 162.63 217.44 158.43 C 214.88 150.80 208.94 143.90 200.79 142.16 M 212.26 146.26 L 212.26 146.71 L 212.71 146.71 L 212.71 146.26 L 212.26 146.26 M 214.27 149.30 L 214.27 149.75 L 214.72 149.75 L 214.72 149.29 L 214.27 149.30 Z" />
</g>
<g id="#8b7a72ef">
<path fill="#8b7a72" opacity="0.94" d=" M 216.06 143.11 C 218.08 143.61 220.00 144.42 221.93 145.15 C 222.99 145.71 224.03 146.29 225.09 146.86 C 226.11 148.51 227.16 150.15 228.21 151.79 C 228.17 155.57 229.01 160.07 225.83 162.90 C 226.35 159.23 227.04 155.22 225.17 151.80 C 223.25 147.66 218.64 146.18 214.91 144.19 C 215.20 143.92 215.77 143.38 216.06 143.11 Z" />
</g>
<g id="#3e4242ff">
<path fill="#3e4242" opacity="1.00" d=" M 196.53 144.37 C 198.93 143.79 201.27 144.91 203.46 145.76 C 201.51 149.05 199.33 152.55 200.26 156.56 C 199.35 157.23 198.45 157.90 197.56 158.57 C 197.45 160.11 197.35 161.66 197.25 163.21 C 195.54 163.58 193.84 163.94 192.13 164.31 C 191.71 163.97 190.86 163.30 190.44 162.97 C 190.38 162.86 190.27 162.62 190.21 162.51 L 190.07 162.71 C 188.66 164.94 186.93 166.96 184.85 168.59 C 182.89 167.41 180.76 166.45 179.10 164.87 C 177.65 163.49 178.22 161.31 178.72 159.64 C 179.97 155.65 183.48 153.08 186.53 150.50 C 189.57 148.06 192.58 145.18 196.53 144.37 M 197.28 149.29 L 197.28 149.74 L 197.72 149.74 L 197.73 149.29 L 197.28 149.29 Z" />
</g>
<g id="#5d4336ad">
<path fill="#5d4336" opacity="0.68" d=" M 221.93 145.15 C 224.23 145.48 226.54 145.78 228.80 146.33 C 234.03 147.81 239.57 146.89 244.81 148.34 C 246.94 149.04 249.00 148.05 250.96 147.32 C 251.79 148.00 252.62 148.68 253.46 149.36 L 253.98 149.84 C 251.75 148.73 249.27 148.48 247.14 149.95 C 245.15 149.47 243.18 148.93 241.21 148.43 C 238.00 147.63 234.32 146.86 231.52 149.13 C 230.03 148.31 228.49 147.54 226.82 147.23 C 226.38 147.14 225.52 146.95 225.09 146.86 C 224.03 146.29 222.99 145.71 221.93 145.15 Z" />
</g>
<g id="#4d5356ff">
<path fill="#4d5356" opacity="1.00" d=" M 203.46 145.76 C 206.29 147.03 208.52 149.22 210.19 151.81 C 209.24 152.42 208.30 153.04 207.35 153.65 C 209.52 154.27 212.21 154.32 213.61 156.36 C 214.76 157.59 214.96 159.32 215.30 160.89 C 212.79 161.26 210.34 161.89 207.99 162.85 C 210.78 163.74 213.60 163.00 216.28 162.13 C 216.10 164.16 215.89 166.19 215.42 168.17 C 215.05 167.12 214.68 166.06 214.32 165.00 C 212.81 166.18 211.29 167.33 209.58 168.20 C 208.78 166.93 207.98 165.65 207.14 164.40 C 202.30 162.44 197.54 165.58 193.42 167.82 C 193.13 167.45 192.55 166.72 192.26 166.35 C 192.05 167.36 191.83 168.38 191.62 169.40 C 190.78 170.06 189.95 170.72 189.11 171.38 C 187.74 170.37 186.32 169.44 184.85 168.59 C 186.93 166.96 188.66 164.94 190.07 162.71 L 190.44 162.97 C 190.86 163.30 191.71 163.97 192.13 164.31 C 193.84 163.94 195.54 163.58 197.25 163.21 C 197.35 161.66 197.45 160.11 197.56 158.57 C 198.45 157.90 199.35 157.23 200.26 156.56 C 199.33 152.55 201.51 149.05 203.46 145.76 M 203.16 153.26 C 202.20 154.61 204.57 156.00 205.54 154.88 C 206.46 153.54 204.12 152.16 203.16 153.26 M 205.14 157.25 L 204.72 157.96 L 205.13 158.68 L 205.96 158.68 L 206.37 157.97 L 205.96 157.25 L 205.14 157.25 M 200.15 158.07 C 198.84 158.82 198.84 159.50 200.15 160.10 C 201.46 159.35 201.46 158.68 200.15 158.07 Z" />
</g>
<g id="#7e7c79ff">
<path fill="#7e7c79" opacity="1.00" d=" M 212.26 146.26 L 212.71 146.26 L 212.71 146.71 L 212.26 146.71 L 212.26 146.26 Z" />
</g>
<g id="#8d634efd">
<path fill="#8d634e" opacity="1.00" d=" M 225.09 146.86 C 225.52 146.95 226.38 147.14 226.82 147.23 C 230.05 149.52 231.36 153.41 232.85 156.90 C 232.60 154.80 232.41 152.69 232.28 150.58 C 235.45 153.94 233.92 158.87 234.10 163.00 C 234.80 162.92 236.20 162.77 236.91 162.69 C 237.95 162.96 238.98 163.26 240.00 163.61 C 238.05 163.79 236.11 164.11 234.16 164.04 C 232.76 163.49 232.27 161.87 231.51 160.70 C 230.84 157.59 230.21 154.37 228.21 151.79 C 227.16 150.15 226.11 148.51 225.09 146.86 Z" />
</g>
<g id="#e59d79ff">
<path fill="#e59d79" opacity="1.00" d=" M 226.82 147.23 C 228.49 147.54 230.03 148.31 231.52 149.13 C 234.32 146.86 238.00 147.63 241.21 148.43 C 240.86 149.58 240.58 150.74 240.36 151.92 C 240.46 153.99 242.00 155.58 243.02 157.27 C 244.48 155.56 245.93 153.83 247.13 151.92 C 247.12 152.38 247.11 153.29 247.10 153.75 C 246.40 155.68 245.83 157.82 244.31 159.30 C 242.12 160.94 239.49 161.88 236.91 162.69 C 236.20 162.77 234.80 162.92 234.10 163.00 C 233.92 158.87 235.45 153.94 232.28 150.58 C 232.41 152.69 232.60 154.80 232.85 156.90 C 231.36 153.41 230.05 149.52 226.82 147.23 Z" />
</g>
<g id="#928e8fff">
<path fill="#928e8f" opacity="1.00" d=" M 247.14 149.95 C 249.27 148.48 251.75 148.73 253.98 149.84 C 255.61 151.81 257.10 153.89 258.50 156.03 C 258.06 156.05 257.19 156.09 256.75 156.12 C 256.50 158.46 256.24 160.80 256.09 163.15 C 258.73 162.34 258.07 158.94 258.61 156.78 C 258.67 157.18 258.78 157.97 258.84 158.36 C 259.89 157.85 260.94 157.29 262.05 156.88 C 262.89 157.28 263.72 157.72 264.54 158.19 C 263.92 158.29 262.67 158.50 262.04 158.60 C 261.77 159.64 261.49 160.67 261.22 161.72 C 262.37 161.67 263.52 161.62 264.67 161.58 C 265.48 162.66 266.29 163.74 267.11 164.83 C 268.53 164.18 269.96 163.52 271.39 162.85 C 273.64 164.95 276.31 166.51 279.01 167.96 C 282.05 169.75 285.06 171.62 287.62 174.06 C 287.05 175.29 286.50 176.52 285.86 177.71 C 285.85 177.40 285.83 176.77 285.82 176.46 C 283.54 176.24 281.39 176.99 279.86 178.72 C 278.30 178.44 276.72 178.27 275.16 178.09 C 274.04 177.41 272.96 176.69 271.89 175.96 C 271.61 175.47 271.04 174.49 270.76 174.00 C 273.30 173.85 275.79 173.23 278.05 172.02 C 277.18 170.72 276.32 169.41 275.48 168.08 C 273.86 170.01 271.99 171.73 269.83 173.03 C 268.03 171.64 267.48 169.48 267.07 167.37 C 266.87 165.40 264.19 164.70 262.74 165.76 C 261.85 167.05 261.19 168.48 260.49 169.88 C 258.92 168.99 257.36 168.10 255.78 167.25 C 254.42 166.76 253.82 167.34 254.01 168.98 C 253.66 168.77 252.98 168.35 252.63 168.14 C 252.62 165.37 252.89 162.62 253.16 159.87 C 253.06 159.44 252.87 158.59 252.77 158.16 L 251.88 157.82 L 251.09 158.21 L 250.91 159.05 C 251.27 159.33 251.97 159.87 252.32 160.15 C 251.82 160.29 250.81 160.58 250.31 160.73 C 249.70 158.21 248.69 155.81 247.10 153.75 C 247.11 153.29 247.12 152.38 247.13 151.92 C 247.13 151.43 247.14 150.44 247.14 149.95 M 252.34 153.44 C 251.03 154.71 253.27 156.70 254.46 155.40 C 255.81 154.13 253.53 152.18 252.34 153.44 M 261.18 163.29 L 260.77 164.01 L 261.17 164.73 L 262.00 164.73 L 262.41 164.02 L 262.00 163.30 L 261.18 163.29 M 276.43 174.12 C 275.42 175.51 277.91 176.70 278.81 175.55 C 279.84 174.15 277.31 172.93 276.43 174.12 Z" />
</g>
<g id="#747775ff">
<path fill="#747775" opacity="1.00" d=" M 197.28 149.29 L 197.73 149.29 L 197.72 149.74 L 197.28 149.74 L 197.28 149.29 Z" />
</g>
<g id="#959193ff">
<path fill="#959193" opacity="1.00" d=" M 214.27 149.30 L 214.72 149.29 L 214.72 149.75 L 214.27 149.75 L 214.27 149.30 Z" />
</g>
<g id="#fab18aff">
<path fill="#fab18a" opacity="1.00" d=" M 241.21 148.43 C 243.18 148.93 245.15 149.47 247.14 149.95 C 247.14 150.44 247.13 151.43 247.13 151.92 C 245.93 153.83 244.48 155.56 243.02 157.27 C 242.00 155.58 240.46 153.99 240.36 151.92 C 240.58 150.74 240.86 149.58 241.21 148.43 Z" />
</g>
<g id="#7e7a78fe">
<path fill="#7e7a78" opacity="1.00" d=" M 253.46 149.36 C 256.11 151.26 258.97 152.83 261.88 154.30 C 265.75 156.27 268.36 159.86 271.39 162.85 C 269.96 163.52 268.53 164.18 267.11 164.83 C 266.29 163.74 265.48 162.66 264.67 161.58 C 263.52 161.62 262.37 161.67 261.22 161.72 C 261.49 160.67 261.77 159.64 262.04 158.60 C 262.67 158.50 263.92 158.29 264.54 158.19 C 263.72 157.72 262.89 157.28 262.05 156.88 C 260.94 157.29 259.89 157.85 258.84 158.36 C 258.78 157.97 258.67 157.18 258.61 156.78 L 258.50 156.03 C 257.10 153.89 255.61 151.81 253.98 149.84 L 253.46 149.36 Z" />
</g>
<g id="#22272ef9">
<path fill="#22272e" opacity="0.98" d=" M 301.61 170.33 C 310.26 163.66 319.56 157.88 328.17 151.16 C 340.45 154.21 351.42 162.71 356.45 174.44 C 359.98 182.07 358.59 190.70 358.18 198.80 C 358.72 199.90 359.31 201.00 359.70 202.18 C 359.70 204.25 358.85 206.19 358.28 208.15 C 357.24 208.32 356.21 208.49 355.18 208.66 C 352.82 212.83 350.87 217.22 348.34 221.29 C 343.44 228.90 334.96 233.50 326.27 235.36 C 319.79 237.02 313.06 236.23 306.49 235.63 C 306.37 235.03 306.12 233.82 305.99 233.22 L 306.96 233.27 C 310.99 233.30 315.00 233.83 319.03 233.97 C 325.82 234.16 332.09 231.08 337.87 227.84 C 342.47 225.32 345.99 221.21 348.53 216.68 C 349.73 214.43 350.72 211.83 350.10 209.26 C 346.00 205.32 340.32 203.70 334.74 203.64 C 334.60 203.33 334.31 202.70 334.16 202.38 C 329.86 201.52 325.52 200.78 321.13 200.63 C 320.55 201.60 319.98 202.58 319.41 203.56 C 317.91 203.55 316.42 203.53 314.93 203.57 L 315.36 203.06 C 316.54 202.83 317.72 202.62 318.91 202.43 C 318.44 201.44 317.98 200.46 317.50 199.49 C 315.32 197.18 312.37 195.66 309.18 195.51 C 308.79 194.89 308.01 193.66 307.62 193.04 C 308.35 193.17 309.83 193.42 310.57 193.54 C 319.06 196.32 327.90 197.91 336.45 200.52 C 339.85 201.62 343.43 201.94 346.97 202.36 C 348.92 202.54 350.39 203.99 352.15 204.71 C 354.61 205.36 357.30 205.27 359.47 203.82 C 350.88 199.44 341.08 198.74 331.95 196.01 C 326.43 194.37 320.69 193.83 315.07 192.73 C 315.30 192.29 315.78 191.40 316.01 190.95 C 318.57 190.62 321.01 189.75 323.41 188.82 C 329.52 190.76 335.92 191.49 342.12 193.09 C 345.06 193.80 346.85 196.47 349.38 197.93 C 350.99 198.80 352.67 197.79 354.16 197.15 C 354.84 198.82 358.37 197.98 356.74 196.19 C 356.31 196.09 355.45 195.88 355.02 195.77 C 357.57 187.78 356.66 178.76 352.40 171.52 C 347.96 164.10 341.04 158.22 333.05 154.95 C 331.15 154.26 329.15 153.47 327.10 153.75 C 323.77 154.85 321.18 157.33 318.34 159.28 C 312.82 163.13 307.23 166.88 301.91 171.00 L 301.61 170.33 M 321.83 190.88 C 322.19 192.43 323.55 193.05 325.01 193.19 C 332.11 194.36 338.93 196.80 346.05 197.87 C 345.83 196.71 345.15 196.03 344.02 195.84 C 338.74 194.33 333.36 193.26 328.09 191.72 C 326.07 191.08 323.95 190.81 321.83 190.88 M 351.25 209.19 L 350.89 209.99 L 351.25 210.80 L 352.11 211.14 L 352.97 210.82 L 353.33 210.02 L 352.97 209.22 L 352.11 208.87 L 351.25 209.19 Z" />
</g>
<g id="#d79572ff">
<path fill="#d79572" opacity="1.00" d=" M 228.21 151.79 C 230.21 154.37 230.84 157.59 231.51 160.70 C 231.06 161.90 230.63 163.09 230.20 164.29 C 228.45 164.92 226.70 165.57 224.92 166.13 C 224.72 165.87 224.32 165.33 224.12 165.06 C 224.69 164.34 225.26 163.62 225.83 162.90 C 229.01 160.07 228.17 155.57 228.21 151.79 Z" />
</g>
<g id="#61686aff">
<path fill="#61686a" opacity="1.00" d=" M 203.16 153.26 C 204.12 152.16 206.46 153.54 205.54 154.88 C 204.57 156.00 202.20 154.61 203.16 153.26 Z" />
</g>
<g id="#b5b1b4ff">
<path fill="#b5b1b4" opacity="1.00" d=" M 252.34 153.44 C 253.53 152.18 255.81 154.13 254.46 155.40 C 253.27 156.70 251.03 154.71 252.34 153.44 Z" />
</g>
<g id="#757176ff">
<path fill="#757176" opacity="1.00" d=" M 247.10 153.75 C 248.69 155.81 249.70 158.21 250.31 160.73 C 250.81 160.58 251.82 160.29 252.32 160.15 L 253.16 159.87 C 252.89 162.62 252.62 165.37 252.63 168.14 C 251.26 167.31 249.95 166.37 248.67 165.41 C 247.61 165.59 246.54 165.76 245.48 165.92 C 245.14 165.82 244.45 165.62 244.11 165.53 C 245.09 165.35 246.06 165.15 247.04 164.94 C 246.31 163.69 245.62 162.42 244.76 161.26 C 242.84 160.66 241.89 162.94 240.64 163.93 L 240.00 163.61 C 238.98 163.26 237.95 162.96 236.91 162.69 C 239.49 161.88 242.12 160.94 244.31 159.30 C 245.83 157.82 246.40 155.68 247.10 153.75 M 246.33 160.22 L 246.33 160.67 L 246.78 160.67 L 246.78 160.22 L 246.33 160.22 Z" />
</g>
<g id="#cbc6caff">
<path fill="#cbc6ca" opacity="1.00" d=" M 256.75 156.12 C 257.19 156.09 258.06 156.05 258.50 156.03 L 258.61 156.78 C 258.07 158.94 258.73 162.34 256.09 163.15 C 256.24 160.80 256.50 158.46 256.75 156.12 Z" />
</g>
<g id="#83898dff">
<path fill="#83898d" opacity="1.00" d=" M 205.14 157.25 L 205.96 157.25 L 206.37 157.97 L 205.96 158.68 L 205.13 158.68 L 204.72 157.96 L 205.14 157.25 Z" />
</g>
<g id="#8b8f8eff">
<path fill="#8b8f8e" opacity="1.00" d=" M 200.15 158.07 C 201.46 158.68 201.46 159.35 200.15 160.10 C 198.84 159.50 198.84 158.82 200.15 158.07 Z" />
</g>
<g id="#c3bebeff">
<path fill="#c3bebe" opacity="1.00" d=" M 251.09 158.21 L 251.88 157.82 L 252.77 158.16 C 252.87 158.59 253.06 159.44 253.16 159.87 L 252.32 160.15 C 251.97 159.87 251.27 159.33 250.91 159.05 L 251.09 158.21 Z" />
</g>
<g id="#c7bebbff">
<path fill="#c7bebb" opacity="1.00" d=" M 246.33 160.22 L 246.78 160.22 L 246.78 160.67 L 246.33 160.67 L 246.33 160.22 Z" />
</g>
<g id="#1d1d1bfe">
<path fill="#1d1d1b" opacity="1.00" d=" M 231.51 160.70 C 232.27 161.87 232.76 163.49 234.16 164.04 C 236.11 164.11 238.05 163.79 240.00 163.61 L 240.64 163.93 C 241.77 164.49 242.87 165.18 244.11 165.53 C 244.45 165.62 245.14 165.82 245.48 165.92 L 246.01 166.43 C 245.27 168.78 245.03 171.24 245.24 173.70 C 248.27 174.62 251.22 175.77 254.19 176.87 C 246.87 175.80 239.90 173.09 232.53 172.29 C 233.14 170.18 233.76 168.07 234.37 165.95 C 231.22 165.96 228.07 166.04 224.92 166.13 C 226.70 165.57 228.45 164.92 230.20 164.29 C 230.63 163.09 231.06 161.90 231.51 160.70 M 236.02 171.80 C 237.57 171.41 239.12 171.00 240.68 170.61 C 240.72 169.43 240.77 168.25 240.81 167.07 C 237.84 166.30 235.74 169.03 236.02 171.80 Z" />
</g>
<g id="#a1948ffe">
<path fill="#a1948f" opacity="1.00" d=" M 240.64 163.93 C 241.89 162.94 242.84 160.66 244.76 161.26 C 245.62 162.42 246.31 163.69 247.04 164.94 C 246.06 165.15 245.09 165.35 244.11 165.53 C 242.87 165.18 241.77 164.49 240.64 163.93 Z" />
</g>
<g id="#909190ff">
<path fill="#909190" opacity="1.00" d=" M 190.21 162.51 C 190.27 162.62 190.38 162.86 190.44 162.97 L 190.07 162.71 L 190.21 162.51 Z" />
</g>
<g id="#dd9b7bff">
<path fill="#dd9b7b" opacity="1.00" d=" M 169.89 169.05 C 171.05 166.79 172.50 164.69 173.94 162.60 C 175.86 165.61 177.81 168.93 181.27 170.37 C 178.90 172.44 176.70 174.69 174.63 177.06 C 171.31 176.89 170.43 173.45 169.58 170.84 C 169.66 170.39 169.81 169.50 169.89 169.05 Z" />
</g>
<g id="#e9dfd8ff">
<path fill="#e9dfd8" opacity="1.00" d=" M 261.18 163.29 L 262.00 163.30 L 262.41 164.02 L 262.00 164.73 L 261.17 164.73 L 260.77 164.01 L 261.18 163.29 Z" />
</g>
<g id="#01020270">
<path fill="#010202" opacity="0.44" d=" M 286.41 163.45 C 288.40 163.04 290.33 163.99 292.11 164.76 C 295.40 166.39 298.60 168.22 301.61 170.33 L 301.91 171.00 L 302.21 171.66 C 300.83 171.49 299.43 171.45 298.05 171.58 C 295.57 168.87 292.34 166.88 288.79 165.93 C 286.59 165.15 284.62 166.77 282.69 167.57 C 283.89 166.16 285.01 164.67 286.41 163.45 Z" />
</g>
<g id="#a5a3a3ff">
<path fill="#a5a3a3" opacity="1.00" d=" M 193.42 167.82 C 197.54 165.58 202.30 162.44 207.14 164.40 C 205.04 164.99 202.96 165.61 200.87 166.22 C 202.19 166.61 203.49 167.05 204.78 167.53 C 204.03 168.05 203.27 168.56 202.53 169.10 C 197.45 167.47 192.81 171.58 190.98 176.01 C 191.93 176.39 192.89 176.77 193.86 177.14 C 193.20 177.78 192.54 178.41 191.87 179.03 C 190.48 178.89 189.10 178.75 187.72 178.62 C 187.85 179.07 188.10 179.97 188.23 180.42 C 188.86 182.84 190.21 184.96 191.64 186.98 C 190.32 186.97 189.77 187.67 189.98 189.08 L 189.62 189.66 C 188.00 190.11 186.38 190.55 184.75 190.96 C 184.40 190.72 183.69 190.23 183.33 189.99 C 182.41 188.81 180.26 189.10 180.29 190.81 C 179.00 190.07 177.74 189.30 176.48 188.53 C 177.70 185.58 179.48 182.92 181.19 180.25 C 183.05 180.02 184.93 179.87 186.81 179.73 C 187.81 177.59 188.70 175.39 189.15 173.06 C 189.14 172.64 189.12 171.80 189.11 171.38 C 189.95 170.72 190.78 170.06 191.62 169.40 C 191.83 168.38 192.05 167.36 192.26 166.35 C 192.55 166.72 193.13 167.45 193.42 167.82 Z" />
</g>
<g id="#787475ff">
<path fill="#787475" opacity="1.00" d=" M 200.87 166.22 C 202.96 165.61 205.04 164.99 207.14 164.40 C 207.98 165.65 208.78 166.93 209.58 168.20 C 205.41 170.03 200.44 171.94 198.99 176.75 C 200.31 177.09 201.63 177.43 202.96 177.71 C 201.83 177.88 200.70 178.05 199.58 178.22 C 199.21 178.68 198.47 179.59 198.10 180.05 L 197.68 180.55 C 197.20 180.94 196.25 181.72 195.77 182.11 C 194.88 181.66 193.99 181.23 193.09 180.82 C 192.78 180.37 192.17 179.48 191.87 179.03 C 192.54 178.41 193.20 177.78 193.86 177.14 C 196.34 174.05 199.40 171.51 202.53 169.10 C 203.27 168.56 204.03 168.05 204.78 167.53 C 203.49 167.05 202.19 166.61 200.87 166.22 Z" />
</g>
<g id="#363737ff">
<path fill="#363737" opacity="1.00" d=" M 209.58 168.20 C 211.29 167.33 212.81 166.18 214.32 165.00 C 214.68 166.06 215.05 167.12 215.42 168.17 C 212.77 172.81 208.73 177.53 202.96 177.71 C 201.63 177.43 200.31 177.09 198.99 176.75 C 200.44 171.94 205.41 170.03 209.58 168.20 Z" />
</g>
<g id="#51443ff3">
<path fill="#51443f" opacity="0.95" d=" M 245.48 165.92 C 246.54 165.76 247.61 165.59 248.67 165.41 C 249.95 166.37 251.26 167.31 252.63 168.14 C 252.98 168.35 253.66 168.77 254.01 168.98 L 254.68 169.38 L 254.70 170.19 C 253.37 170.27 252.03 170.34 250.70 170.40 C 248.97 169.29 247.44 167.90 246.01 166.43 L 245.48 165.92 Z" />
</g>
<g id="#777375ff">
<path fill="#777375" opacity="1.00" d=" M 262.74 165.76 C 264.19 164.70 266.87 165.40 267.07 167.37 C 267.48 169.48 268.03 171.64 269.83 173.03 C 270.06 173.27 270.52 173.76 270.76 174.00 C 271.04 174.49 271.61 175.47 271.89 175.96 C 270.56 176.24 269.23 176.52 267.92 176.86 L 267.26 177.04 C 266.63 176.27 265.98 175.50 265.31 174.76 C 261.81 173.15 258.12 171.99 254.70 170.19 L 254.68 169.38 C 254.95 168.85 255.51 167.79 255.78 167.25 C 257.36 168.10 258.92 168.99 260.49 169.88 C 261.19 168.48 261.85 167.05 262.74 165.76 Z" />
</g>
<g id="#000000c1">
<path fill="#000000" opacity="0.76" d=" M 224.92 166.13 C 228.07 166.04 231.22 165.96 234.37 165.95 C 233.76 168.07 233.14 170.18 232.53 172.29 C 232.42 172.70 232.20 173.53 232.10 173.94 L 231.98 174.90 C 231.94 176.16 231.92 177.43 231.93 178.70 C 236.03 179.91 240.09 181.85 244.46 181.70 C 245.13 180.73 245.78 179.74 246.40 178.72 C 251.46 179.41 256.87 179.83 261.29 182.63 C 264.06 184.39 264.01 187.87 264.29 190.77 C 266.41 191.35 268.54 191.91 270.67 192.48 C 270.49 194.90 270.32 197.31 270.13 199.73 C 272.36 199.79 274.60 199.84 276.84 199.85 L 277.60 199.85 C 277.91 200.99 278.23 202.13 278.55 203.28 C 274.27 203.02 270.03 202.34 265.78 201.80 C 267.20 205.33 269.20 208.57 270.97 211.93 C 268.98 209.56 267.37 206.92 265.87 204.22 C 264.88 202.65 264.00 200.70 262.09 200.09 C 257.72 198.40 252.99 198.10 248.38 197.58 C 248.15 195.88 247.91 194.19 247.68 192.50 C 246.88 191.83 246.08 191.16 245.28 190.48 C 244.79 188.74 244.61 186.84 243.62 185.29 C 240.49 182.90 236.31 182.80 232.55 182.78 C 233.25 184.27 234.07 185.71 235.16 186.96 C 235.04 189.78 235.34 192.71 234.47 195.44 C 233.65 196.37 232.70 197.18 231.82 198.04 L 232.17 197.37 C 233.28 194.81 234.95 192.05 234.10 189.16 C 233.26 186.00 231.44 183.06 228.88 181.00 C 226.59 179.25 224.33 177.30 223.57 174.40 C 226.02 173.36 224.79 169.67 222.20 170.84 L 222.30 170.18 C 223.17 168.83 224.07 167.50 224.92 166.13 Z" />
</g>
<g id="#72727fff">
<path fill="#72727f" opacity="1.00" d=" M 236.02 171.80 C 235.74 169.03 237.84 166.30 240.81 167.07 C 240.77 168.25 240.72 169.43 240.68 170.61 C 239.12 171.00 237.57 171.41 236.02 171.80 Z" />
</g>
<g id="#010101c2">
<path fill="#010101" opacity="0.76" d=" M 245.24 173.70 C 245.03 171.24 245.27 168.78 246.01 166.43 C 247.44 167.90 248.97 169.29 250.70 170.40 C 254.67 173.35 258.98 175.83 263.75 177.22 C 264.14 176.61 264.92 175.37 265.31 174.76 C 265.98 175.50 266.63 176.27 267.26 177.04 C 264.88 177.79 262.43 178.54 259.90 178.30 C 257.97 177.91 256.08 177.37 254.19 176.87 C 251.22 175.77 248.27 174.62 245.24 173.70 Z" />
</g>
<g id="#b7afaaff">
<path fill="#b7afaa" opacity="1.00" d=" M 254.01 168.98 C 253.82 167.34 254.42 166.76 255.78 167.25 C 255.51 167.79 254.95 168.85 254.68 169.38 L 254.01 168.98 Z" />
</g>
<g id="#eae4e7ff">
<path fill="#eae4e7" opacity="1.00" d=" M 190.98 176.01 C 192.81 171.58 197.45 167.47 202.53 169.10 C 199.40 171.51 196.34 174.05 193.86 177.14 C 192.89 176.77 191.93 176.39 190.98 176.01 Z" />
</g>
<g id="#b4b0b1ff">
<path fill="#b4b0b1" opacity="1.00" d=" M 275.48 168.08 C 276.32 169.41 277.18 170.72 278.05 172.02 C 275.79 173.23 273.30 173.85 270.76 174.00 C 270.52 173.76 270.06 173.27 269.83 173.03 C 271.99 171.73 273.86 170.01 275.48 168.08 Z" />
</g>
<g id="#312926a3">
<path fill="#312926" opacity="0.64" d=" M 279.01 167.96 C 282.67 168.93 285.71 171.20 289.09 172.77 C 292.12 173.05 295.09 172.12 298.05 171.58 C 299.43 171.45 300.83 171.49 302.21 171.66 C 303.94 173.60 305.84 175.39 307.97 176.91 C 305.00 175.80 302.05 174.66 299.12 173.47 C 295.29 172.68 291.42 173.54 287.62 174.06 C 285.06 171.62 282.05 169.75 279.01 167.96 Z" />
</g>
<g id="#574b48fd">
<path fill="#574b48" opacity="1.00" d=" M 167.56 173.60 C 168.32 172.08 169.09 170.56 169.89 169.05 C 169.81 169.50 169.66 170.39 169.58 170.84 C 169.17 173.31 168.82 175.99 167.00 177.88 C 163.76 180.80 163.71 185.28 163.71 189.31 C 163.37 188.91 162.70 188.12 162.36 187.72 C 162.32 185.90 162.33 184.07 162.39 182.24 C 162.50 179.83 162.68 177.42 162.78 175.00 C 164.36 174.50 165.96 174.06 167.56 173.60 Z" />
</g>
<g id="#36261aff">
<path fill="#36261a" opacity="1.00" d=" M 217.66 172.66 C 219.29 171.99 220.82 171.12 222.30 170.18 L 222.20 170.84 C 221.83 172.19 223.00 173.29 223.57 174.40 C 224.33 177.30 226.59 179.25 228.88 181.00 C 227.67 180.70 226.44 180.46 225.22 180.23 C 224.24 181.12 223.27 182.01 222.22 182.82 C 221.68 183.05 220.59 183.50 220.05 183.72 L 219.29 184.17 L 219.12 185.04 C 218.85 186.41 218.58 187.78 218.26 189.15 C 218.39 186.27 218.34 183.38 218.34 180.51 C 219.20 180.48 220.06 180.46 220.92 180.44 C 219.86 177.84 218.78 175.24 217.66 172.66 Z" />
</g>
<g id="#08070735">
<path fill="#080707" opacity="0.21" d=" M 250.70 170.40 C 252.03 170.34 253.37 170.27 254.70 170.19 C 258.12 171.99 261.81 173.15 265.31 174.76 C 264.92 175.37 264.14 176.61 263.75 177.22 C 258.98 175.83 254.67 173.35 250.70 170.40 Z" />
</g>
<g id="#bc7f62fe">
<path fill="#bc7f62" opacity="1.00" d=" M 167.00 177.88 C 168.82 175.99 169.17 173.31 169.58 170.84 C 170.43 173.45 171.31 176.89 174.63 177.06 C 173.75 177.98 172.84 178.86 171.88 179.70 C 171.50 179.70 170.73 179.71 170.34 179.71 C 169.21 179.13 168.10 178.50 167.00 177.88 Z" />
</g>
<g id="#726d6bff">
<path fill="#726d6b" opacity="1.00" d=" M 174.63 177.06 C 176.70 174.69 178.90 172.44 181.27 170.37 C 182.16 170.79 183.06 171.21 183.97 171.63 C 181.47 172.16 179.34 173.56 177.91 175.69 C 180.47 175.82 183.02 175.85 185.58 175.81 C 186.17 174.93 186.77 174.06 187.39 173.19 C 187.83 173.16 188.71 173.09 189.15 173.06 C 188.70 175.39 187.81 177.59 186.81 179.73 C 184.93 179.87 183.05 180.02 181.19 180.25 C 179.20 180.52 177.24 180.93 175.29 181.40 C 175.16 180.95 174.91 180.07 174.78 179.62 C 173.81 179.65 172.85 179.68 171.88 179.70 C 172.84 178.86 173.75 177.98 174.63 177.06 M 184.11 177.26 L 183.69 177.98 L 184.10 178.70 L 184.93 178.70 L 185.34 177.98 L 184.93 177.27 L 184.11 177.26 Z" />
</g>
<g id="#0c09079c">
<path fill="#0c0907" opacity="0.61" d=" M 222.20 170.84 C 224.79 169.67 226.02 173.36 223.57 174.40 C 223.00 173.29 221.83 172.19 222.20 170.84 Z" />
</g>
<g id="#e19875ff">
<path fill="#e19875" opacity="1.00" d=" M 177.91 175.69 C 179.34 173.56 181.47 172.16 183.97 171.63 C 185.10 172.16 186.24 172.69 187.39 173.19 C 186.77 174.06 186.17 174.93 185.58 175.81 C 183.02 175.85 180.47 175.82 177.91 175.69 Z" />
</g>
<g id="#98999cff">
<path fill="#98999c" opacity="1.00" d=" M 232.53 172.29 C 239.90 173.09 246.87 175.80 254.19 176.87 C 256.08 177.37 257.97 177.91 259.90 178.30 C 263.96 179.08 268.09 179.61 271.98 181.09 C 271.63 182.62 271.28 184.16 270.93 185.69 C 267.00 183.81 263.40 181.09 259.08 180.12 C 253.11 178.71 247.06 177.62 241.15 175.94 C 238.18 175.08 235.15 174.41 232.10 173.94 C 232.20 173.53 232.42 172.70 232.53 172.29 Z" />
</g>
<g id="#c3886cff">
<path fill="#c3886c" opacity="1.00" d=" M 209.88 178.08 C 211.88 175.51 214.33 173.22 217.66 172.66 C 218.78 175.24 219.86 177.84 220.92 180.44 C 220.06 180.46 219.20 180.48 218.34 180.51 C 218.34 183.38 218.39 186.27 218.26 189.15 C 217.95 190.46 217.54 191.75 217.07 193.02 C 215.98 195.38 214.68 197.62 213.39 199.87 C 213.01 199.28 212.24 198.09 211.85 197.49 C 212.34 195.09 212.55 192.64 212.84 190.20 C 213.74 187.70 214.83 185.27 215.79 182.79 C 213.53 184.05 211.41 185.53 209.32 187.04 C 209.92 184.98 210.20 182.84 210.04 180.71 C 210.00 180.05 209.92 178.74 209.88 178.08 Z" />
</g>
<g id="#6f5247ff">
<path fill="#6f5247" opacity="1.00" d=" M 287.62 174.06 C 291.42 173.54 295.29 172.68 299.12 173.47 C 295.26 174.64 292.11 177.22 289.64 180.35 C 287.86 180.17 286.07 180.11 284.28 180.06 C 284.84 179.30 285.36 178.51 285.86 177.71 C 286.50 176.52 287.05 175.29 287.62 174.06 Z" />
</g>
<g id="#2e333cff">
<path fill="#2e333c" opacity="1.00" d=" M 232.10 173.94 C 235.15 174.41 238.18 175.08 241.15 175.94 C 247.06 177.62 253.11 178.71 259.08 180.12 C 263.40 181.09 267.00 183.81 270.93 185.69 C 271.28 184.16 271.63 182.62 271.98 181.09 C 268.09 179.61 263.96 179.08 259.90 178.30 C 262.43 178.54 264.88 177.79 267.26 177.04 L 267.92 176.86 C 270.29 177.50 272.71 177.89 275.16 178.09 C 276.72 178.27 278.30 178.44 279.86 178.72 C 280.15 179.10 280.73 179.87 281.02 180.26 C 279.99 180.49 278.96 180.70 277.93 180.89 C 276.50 180.89 275.07 180.87 273.65 180.82 C 273.31 182.44 272.97 184.06 272.64 185.68 C 272.33 187.16 272.01 188.64 271.70 190.13 C 273.86 191.43 276.03 192.74 278.34 193.80 L 278.24 194.77 C 278.18 195.23 278.06 196.16 278.00 196.62 C 277.63 197.70 277.24 198.77 276.84 199.85 C 274.60 199.84 272.36 199.79 270.13 199.73 C 270.32 197.31 270.49 194.90 270.67 192.48 C 268.54 191.91 266.41 191.35 264.29 190.77 C 264.01 187.87 264.06 184.39 261.29 182.63 C 256.87 179.83 251.46 179.41 246.40 178.72 C 241.56 177.58 236.80 176.14 231.98 174.90 L 232.10 173.94 Z" />
</g>
<g id="#bbb6b5ff">
<path fill="#bbb6b5" opacity="1.00" d=" M 276.43 174.12 C 277.31 172.93 279.84 174.15 278.81 175.55 C 277.91 176.70 275.42 175.51 276.43 174.12 Z" />
</g>
<g id="#7e5d51ff">
<path fill="#7e5d51" opacity="1.00" d=" M 289.64 180.35 C 292.11 177.22 295.26 174.64 299.12 173.47 C 302.05 174.66 305.00 175.80 307.97 176.91 C 309.32 177.57 310.71 178.20 311.95 179.08 C 312.65 180.37 312.64 181.88 312.80 183.31 C 312.45 183.50 311.75 183.88 311.40 184.07 C 310.18 182.81 309.27 180.93 307.40 180.57 C 302.92 179.67 298.45 181.16 294.03 181.75 C 292.55 181.33 291.10 180.80 289.64 180.35 Z" />
</g>
<g id="#6a686bff">
<path fill="#6a686b" opacity="1.00" d=" M 155.61 179.44 C 157.72 177.56 160.08 175.91 162.78 175.00 C 162.68 177.42 162.50 179.83 162.39 182.24 C 160.73 183.04 158.92 183.43 157.08 183.16 C 156.64 181.90 156.15 180.66 155.61 179.44 Z" />
</g>
<g id="#0000000e">
<path fill="#000000" opacity="0.05" d=" M 231.98 174.90 C 236.80 176.14 241.56 177.58 246.40 178.72 C 245.78 179.74 245.13 180.73 244.46 181.70 C 240.09 181.85 236.03 179.91 231.93 178.70 C 231.92 177.43 231.94 176.16 231.98 174.90 Z" />
</g>
<g id="#4d4b4cb6">
<path fill="#4d4b4c" opacity="0.71" d=" M 141.34 176.65 C 146.08 176.13 150.53 178.19 154.47 180.61 C 154.32 180.92 154.02 181.56 153.88 181.88 C 153.64 182.06 153.17 182.40 152.94 182.58 C 151.61 180.96 150.09 179.41 148.00 178.86 C 147.56 178.75 146.68 178.52 146.24 178.40 C 145.22 178.17 144.19 177.97 143.16 177.79 C 142.35 177.77 140.73 177.73 139.91 177.70 C 137.58 178.08 135.31 178.76 133.16 179.75 L 132.48 180.29 C 130.39 181.98 128.17 183.49 126.00 185.06 C 128.54 179.06 135.46 177.26 141.34 176.65 Z" />
</g>
<g id="#a7a7aaff">
<path fill="#a7a7aa" opacity="1.00" d=" M 267.92 176.86 C 269.23 176.52 270.56 176.24 271.89 175.96 C 272.96 176.69 274.04 177.41 275.16 178.09 C 272.71 177.89 270.29 177.50 267.92 176.86 Z" />
<path fill="#a7a7aa" opacity="1.00" d=" M 293.91 191.06 C 297.58 192.01 301.36 192.53 305.00 193.58 C 304.07 194.51 303.14 195.44 302.22 196.38 C 301.20 196.23 300.19 196.05 299.19 195.87 C 297.78 195.35 296.41 194.73 295.05 194.11 C 294.67 193.09 294.29 192.07 293.91 191.06 Z" />
</g>
<g id="#bcbdbeff">
<path fill="#bcbdbe" opacity="1.00" d=" M 279.86 178.72 C 281.39 176.99 283.54 176.24 285.82 176.46 C 285.83 176.77 285.85 177.40 285.86 177.71 C 285.36 178.51 284.84 179.30 284.28 180.06 C 286.07 180.11 287.86 180.17 289.64 180.35 C 291.10 180.80 292.55 181.33 294.03 181.75 C 296.98 182.69 300.08 182.97 303.15 183.24 L 304.10 183.35 C 303.97 183.61 303.69 184.13 303.55 184.39 C 305.53 186.10 307.06 188.23 308.84 190.15 C 310.66 191.50 312.92 192.07 315.07 192.73 C 320.69 193.83 326.43 194.37 331.95 196.01 C 341.08 198.74 350.88 199.44 359.47 203.82 C 357.30 205.27 354.61 205.36 352.15 204.71 C 350.39 203.99 348.92 202.54 346.97 202.36 C 343.43 201.94 339.85 201.62 336.45 200.52 C 327.90 197.91 319.06 196.32 310.57 193.54 C 306.72 189.82 301.05 191.25 296.41 189.48 C 291.29 187.74 285.84 187.47 280.70 185.87 C 280.82 184.37 281.56 183.76 282.93 184.01 C 285.95 184.80 288.82 186.07 291.83 186.93 C 291.82 186.31 291.81 185.07 291.80 184.45 C 289.40 184.27 286.97 184.17 284.62 183.60 C 282.84 183.30 282.08 181.48 281.02 180.26 C 280.73 179.87 280.15 179.10 279.86 178.72 M 293.77 185.13 C 296.02 189.16 301.06 189.19 305.07 189.91 C 305.00 189.46 304.86 188.57 304.78 188.12 C 301.85 186.60 296.94 187.75 295.66 184.04 C 295.78 180.90 290.81 183.83 293.77 185.13 Z" />
</g>
<g id="#afaea3ff">
<path fill="#afaea3" opacity="1.00" d=" M 184.11 177.26 L 184.93 177.27 L 185.34 177.98 L 184.93 178.70 L 184.10 178.70 L 183.69 177.98 L 184.11 177.26 Z" />
</g>
<g id="#8e8b91ff">
<path fill="#8e8b91" opacity="1.00" d=" M 133.16 179.75 C 135.31 178.76 137.58 178.08 139.91 177.70 C 139.67 179.50 139.45 181.31 139.25 183.12 C 141.16 181.95 143.98 180.53 143.16 177.79 C 144.19 177.97 145.22 178.17 146.24 178.40 C 144.89 180.35 143.91 182.61 144.86 184.96 C 146.62 184.04 148.37 183.08 150.11 182.11 C 149.41 181.02 148.73 179.93 148.00 178.86 C 150.09 179.41 151.61 180.96 152.94 182.58 C 150.13 184.62 147.07 186.30 144.30 188.41 C 143.27 187.24 142.47 185.47 140.71 185.33 C 138.41 184.98 136.08 185.28 133.81 185.62 C 134.48 184.76 135.66 184.10 135.75 182.91 C 135.92 181.29 134.12 180.68 133.16 179.75 M 136.62 180.07 C 135.92 181.11 136.37 182.74 137.33 183.48 C 138.99 183.33 138.26 179.53 136.62 180.07 Z" />
</g>
<g id="#a7a4aaff">
<path fill="#a7a4aa" opacity="1.00" d=" M 139.91 177.70 C 140.73 177.73 142.35 177.77 143.16 177.79 C 143.98 180.53 141.16 181.95 139.25 183.12 C 139.45 181.31 139.67 179.50 139.91 177.70 Z" />
</g>
<g id="#eeaa85ff">
<path fill="#eeaa85" opacity="1.00" d=" M 163.71 189.31 C 163.71 185.28 163.76 180.80 167.00 177.88 C 168.10 178.50 169.21 179.13 170.34 179.71 C 167.76 182.64 165.86 186.07 163.71 189.31 Z" />
</g>
<g id="#c6c2bcff">
<path fill="#c6c2bc" opacity="1.00" d=" M 187.72 178.62 C 189.10 178.75 190.48 178.89 191.87 179.03 C 192.17 179.48 192.78 180.37 193.09 180.82 C 192.59 181.08 191.61 181.61 191.11 181.88 C 190.16 181.36 189.20 180.89 188.23 180.42 C 188.10 179.97 187.85 179.07 187.72 178.62 Z" />
</g>
<g id="#77655dff">
<path fill="#77655d" opacity="1.00" d=" M 200.67 179.70 C 203.79 179.51 206.87 178.93 209.88 178.08 C 209.92 178.74 210.00 180.05 210.04 180.71 C 208.25 181.14 206.48 181.58 204.70 182.02 C 205.21 184.18 205.93 186.30 206.97 188.28 C 207.56 187.97 208.73 187.35 209.32 187.04 C 211.41 185.53 213.53 184.05 215.79 182.79 C 214.83 185.27 213.74 187.70 212.84 190.20 C 211.09 190.01 209.35 189.83 207.61 189.64 C 207.14 190.42 206.68 191.19 206.22 191.97 C 204.55 189.44 202.72 186.95 200.26 185.12 C 198.82 184.04 197.33 183.02 195.77 182.11 C 196.25 181.72 197.20 180.94 197.68 180.55 C 198.29 181.82 201.54 183.37 201.60 181.04 C 201.37 180.70 200.90 180.04 200.67 179.70 Z" />
</g>
<g id="#ada9afff">
<path fill="#ada9af" opacity="1.00" d=" M 146.24 178.40 C 146.68 178.52 147.56 178.75 148.00 178.86 C 148.73 179.93 149.41 181.02 150.11 182.11 C 148.37 183.08 146.62 184.04 144.86 184.96 C 143.91 182.61 144.89 180.35 146.24 178.40 Z" />
</g>
<g id="#868386ff">
<path fill="#868386" opacity="1.00" d=" M 171.88 179.70 C 172.85 179.68 173.81 179.65 174.78 179.62 C 174.91 180.07 175.16 180.95 175.29 181.40 C 177.24 180.93 179.20 180.52 181.19 180.25 C 179.48 182.92 177.70 185.58 176.48 188.53 C 175.98 189.71 175.49 190.90 175.00 192.09 C 175.41 192.89 175.82 193.69 176.23 194.49 C 173.99 196.20 171.59 198.00 170.94 200.91 C 171.97 200.36 173.00 199.81 174.01 199.21 C 174.47 200.04 174.94 200.87 175.41 201.70 C 176.93 201.78 178.45 201.87 179.97 201.95 C 178.60 201.28 177.22 200.62 175.85 199.95 C 176.75 198.58 177.64 197.20 178.60 195.87 C 180.32 197.30 182.03 199.12 184.42 199.24 C 184.80 199.31 185.56 199.45 185.95 199.52 C 185.65 200.72 185.34 201.92 185.08 203.13 C 184.86 202.59 184.41 201.51 184.19 200.97 C 183.01 202.15 181.84 203.35 180.64 204.50 C 178.26 203.59 174.71 202.09 173.30 205.25 C 171.96 204.46 170.57 203.54 170.03 202.00 C 168.32 198.22 171.54 193.14 167.97 190.10 C 167.16 190.52 166.36 190.97 165.58 191.45 C 166.38 192.29 167.18 193.12 167.99 193.96 C 166.66 195.37 165.34 196.79 164.17 198.34 C 161.93 194.22 159.37 190.26 157.63 185.90 C 157.45 184.99 157.27 184.07 157.08 183.16 C 158.92 183.43 160.73 183.04 162.39 182.24 C 162.33 184.07 162.32 185.90 162.36 187.72 C 162.08 190.14 162.03 193.30 164.88 194.19 C 164.59 192.54 164.26 190.89 163.71 189.31 C 165.86 186.07 167.76 182.64 170.34 179.71 C 170.73 179.71 171.50 179.70 171.88 179.70 M 173.24 182.30 L 173.24 182.75 L 173.69 182.75 L 173.70 182.30 L 173.24 182.30 M 170.24 183.31 C 169.18 183.19 167.66 184.45 168.51 185.53 C 169.82 186.87 172.18 183.90 170.24 183.31 M 167.26 186.26 C 166.76 187.63 167.22 188.15 168.64 187.82 C 169.13 186.44 168.67 185.92 167.26 186.26 M 174.35 187.41 C 173.28 187.95 172.57 189.60 173.29 190.65 C 174.85 191.23 176.02 187.70 174.35 187.41 Z" />
</g>
<g id="#b1acb2ff">
<path fill="#b1acb2" opacity="1.00" d=" M 133.16 179.75 C 134.12 180.68 135.92 181.29 135.75 182.91 C 135.66 184.10 134.48 184.76 133.81 185.62 C 133.43 185.76 132.68 186.04 132.30 186.18 C 131.57 184.24 131.41 182.16 132.48 180.29 L 133.16 179.75 Z" />
</g>
<g id="#a39fa6ff">
<path fill="#a39fa6" opacity="1.00" d=" M 136.62 180.07 C 138.26 179.53 138.99 183.33 137.33 183.48 C 136.37 182.74 135.92 181.11 136.62 180.07 Z" />
</g>
<g id="#d8ccc3ff">
<path fill="#d8ccc3" opacity="1.00" d=" M 154.47 180.61 C 154.75 180.31 155.33 179.73 155.61 179.44 C 156.15 180.66 156.64 181.90 157.08 183.16 C 157.27 184.07 157.45 184.99 157.63 185.90 C 157.09 186.93 156.55 187.95 156.06 189.01 C 151.36 186.72 146.74 190.07 143.71 193.47 C 142.81 193.28 141.92 193.09 141.02 192.90 L 141.43 192.21 C 141.90 191.41 142.40 190.62 142.93 189.86 C 143.12 189.65 143.49 189.24 143.68 189.04 C 146.78 189.45 149.57 187.68 152.14 186.21 C 154.09 185.12 155.24 183.16 156.30 181.27 C 155.69 181.42 154.48 181.73 153.88 181.88 C 154.02 181.56 154.32 180.92 154.47 180.61 Z" />
</g>
<g id="#747172ff">
<path fill="#747172" opacity="1.00" d=" M 188.23 180.42 C 189.20 180.89 190.16 181.36 191.11 181.88 C 192.42 182.87 193.66 183.97 194.90 185.05 C 194.56 186.04 194.23 187.03 193.90 188.03 C 194.20 188.57 194.80 189.66 195.11 190.20 C 197.13 188.84 198.89 187.14 200.26 185.12 C 202.72 186.95 204.55 189.44 206.22 191.97 C 206.68 191.19 207.14 190.42 207.61 189.64 C 209.35 189.83 211.09 190.01 212.84 190.20 C 212.55 192.64 212.34 195.09 211.85 197.49 C 211.13 200.58 211.08 203.76 210.83 206.90 C 210.28 209.80 208.88 212.46 208.10 215.30 C 205.80 216.99 203.08 217.83 200.31 218.39 C 201.66 216.75 203.94 215.17 203.20 212.74 C 204.54 211.28 205.77 209.73 206.89 208.10 C 207.10 209.18 207.34 210.25 207.60 211.32 C 209.28 207.50 210.97 202.72 208.41 198.88 C 208.31 199.43 208.10 200.53 207.99 201.08 C 207.54 201.04 206.63 200.97 206.17 200.94 C 206.37 199.71 206.56 198.49 206.75 197.26 C 206.08 197.56 205.41 197.86 204.75 198.16 C 204.68 198.69 204.53 199.76 204.46 200.29 C 203.36 200.21 202.26 200.14 201.17 200.08 C 201.42 199.64 201.92 198.77 202.17 198.34 C 203.18 197.12 203.68 195.22 202.22 194.12 C 200.82 192.42 199.44 190.70 198.04 189.01 C 198.01 190.61 197.98 192.21 198.03 193.82 C 196.73 193.49 195.47 193.95 194.25 194.31 C 193.02 192.47 191.29 191.10 189.26 190.26 L 189.62 189.66 L 189.98 189.08 C 190.50 188.71 191.54 187.98 192.06 187.62 L 191.64 186.98 C 190.21 184.96 188.86 182.84 188.23 180.42 Z" />
</g>
<g id="#c6937bff">
<path fill="#c6937b" opacity="1.00" d=" M 198.10 180.05 C 198.74 179.96 200.03 179.79 200.67 179.70 C 200.90 180.04 201.37 180.70 201.60 181.04 C 201.54 183.37 198.29 181.82 197.68 180.55 L 198.10 180.05 Z" />
</g>
<g id="#978789ff">
<path fill="#978789" opacity="1.00" d=" M 222.22 182.82 C 223.27 182.01 224.24 181.12 225.22 180.23 C 226.44 180.46 227.67 180.70 228.88 181.00 C 231.44 183.06 233.26 186.00 234.10 189.16 C 234.95 192.05 233.28 194.81 232.17 197.37 C 230.35 197.31 228.53 197.24 226.73 197.13 C 227.68 195.89 228.57 194.59 229.45 193.28 C 227.99 193.14 226.49 193.30 225.34 194.31 C 225.33 195.24 225.48 196.16 225.79 197.07 C 224.93 196.67 224.07 196.28 223.21 195.90 C 223.40 193.36 222.74 190.93 221.51 188.72 C 221.77 186.76 222.03 184.79 222.22 182.82 M 224.56 187.66 C 223.41 188.51 223.73 190.35 225.08 190.81 C 227.23 190.24 228.35 188.14 228.87 186.14 C 227.36 186.35 225.61 186.35 224.56 187.66 Z" />
</g>
<g id="#83868aff">
<path fill="#83868a" opacity="1.00" d=" M 281.02 180.26 C 282.08 181.48 282.84 183.30 284.62 183.60 C 286.97 184.17 289.40 184.27 291.80 184.45 C 291.81 185.07 291.82 186.31 291.83 186.93 C 288.82 186.07 285.95 184.80 282.93 184.01 C 281.56 183.76 280.82 184.37 280.70 185.87 C 285.84 187.47 291.29 187.74 296.41 189.48 C 301.05 191.25 306.72 189.82 310.57 193.54 C 309.83 193.42 308.35 193.17 307.62 193.04 C 308.01 193.66 308.79 194.89 309.18 195.51 C 308.89 195.45 308.31 195.32 308.03 195.26 C 307.00 194.73 306.01 194.13 305.00 193.58 C 301.36 192.53 297.58 192.01 293.91 191.06 C 292.72 190.78 291.53 190.50 290.34 190.21 L 289.58 190.02 C 285.79 188.63 281.87 187.75 277.90 187.14 C 276.12 186.72 274.38 186.20 272.64 185.68 C 272.97 184.06 273.31 182.44 273.65 180.82 C 273.80 181.53 274.11 182.96 274.26 183.67 C 276.16 184.06 278.07 184.46 279.98 184.88 C 279.96 184.26 279.93 183.02 279.92 182.40 C 279.42 182.02 278.43 181.27 277.93 180.89 C 278.96 180.70 279.99 180.49 281.02 180.26 Z" />
</g>
<g id="#39302afe">
<path fill="#39302a" opacity="1.00" d=" M 294.03 181.75 C 298.45 181.16 302.92 179.67 307.40 180.57 C 309.27 180.93 310.18 182.81 311.40 184.07 C 310.95 184.30 310.04 184.76 309.59 185.00 C 308.97 184.98 307.72 184.96 307.10 184.94 C 307.60 185.70 308.10 186.46 308.62 187.21 C 309.64 189.22 311.67 190.25 313.83 190.55 C 314.38 190.65 315.47 190.85 316.01 190.95 C 315.78 191.40 315.30 192.29 315.07 192.73 C 312.92 192.07 310.66 191.50 308.84 190.15 C 307.06 188.23 305.53 186.10 303.55 184.39 C 303.69 184.13 303.97 183.61 304.10 183.35 C 305.52 182.56 304.86 179.52 303.19 181.24 C 303.18 181.74 303.16 182.74 303.15 183.24 C 300.08 182.97 296.98 182.69 294.03 181.75 Z" />
</g>
<g id="#b7b3b9ff">
<path fill="#b7b3b9" opacity="1.00" d=" M 126.00 185.06 C 128.17 183.49 130.39 181.98 132.48 180.29 C 131.41 182.16 131.57 184.24 132.30 186.18 L 131.65 186.44 C 130.10 187.14 128.16 187.71 127.40 189.39 C 126.64 191.26 126.44 193.28 126.00 195.24 C 125.84 195.69 125.54 196.60 125.38 197.06 C 123.33 193.32 123.71 188.60 126.00 185.06 Z" />
</g>
<g id="#f3eeebff">
<path fill="#f3eeeb" opacity="1.00" d=" M 153.88 181.88 C 154.48 181.73 155.69 181.42 156.30 181.27 C 155.24 183.16 154.09 185.12 152.14 186.21 C 149.57 187.68 146.78 189.45 143.68 189.04 L 144.30 188.41 C 147.07 186.30 150.13 184.62 152.94 182.58 C 153.17 182.40 153.64 182.06 153.88 181.88 Z" />
</g>
<g id="#8a8586ff">
<path fill="#8a8586" opacity="1.00" d=" M 191.11 181.88 C 191.61 181.61 192.59 181.08 193.09 180.82 C 193.99 181.23 194.88 181.66 195.77 182.11 C 197.33 183.02 198.82 184.04 200.26 185.12 C 198.89 187.14 197.13 188.84 195.11 190.20 C 194.80 189.66 194.20 188.57 193.90 188.03 C 194.23 187.03 194.56 186.04 194.90 185.05 C 193.66 183.97 192.42 182.87 191.11 181.88 Z" />
</g>
<g id="#42342bff">
<path fill="#42342b" opacity="1.00" d=" M 204.70 182.02 C 206.48 181.58 208.25 181.14 210.04 180.71 C 210.20 182.84 209.92 184.98 209.32 187.04 C 208.73 187.35 207.56 187.97 206.97 188.28 C 205.93 186.30 205.21 184.18 204.70 182.02 Z" />
</g>
<g id="#c3c8c7ff">
<path fill="#c3c8c7" opacity="1.00" d=" M 273.65 180.82 C 275.07 180.87 276.50 180.89 277.93 180.89 C 278.43 181.27 279.42 182.02 279.92 182.40 C 279.93 183.02 279.96 184.26 279.98 184.88 C 278.07 184.46 276.16 184.06 274.26 183.67 C 274.11 182.96 273.80 181.53 273.65 180.82 Z" />
</g>
<g id="#241814ad">
<path fill="#241814" opacity="0.68" d=" M 303.19 181.24 C 304.86 179.52 305.52 182.56 304.10 183.35 L 303.15 183.24 C 303.16 182.74 303.18 181.74 303.19 181.24 Z" />
</g>
<g id="#ece4dcff">
<path fill="#ece4dc" opacity="1.00" d=" M 173.24 182.30 L 173.70 182.30 L 173.69 182.75 L 173.24 182.75 L 173.24 182.30 Z" />
</g>
<g id="#dbd5d0ff">
<path fill="#dbd5d0" opacity="1.00" d=" M 170.24 183.31 C 172.18 183.90 169.82 186.87 168.51 185.53 C 167.66 184.45 169.18 183.19 170.24 183.31 Z" />
</g>
<g id="#735751ff">
<path fill="#735751" opacity="1.00" d=" M 220.05 183.72 C 220.59 183.50 221.68 183.05 222.22 182.82 C 222.03 184.79 221.77 186.76 221.51 188.72 C 222.74 190.93 223.40 193.36 223.21 195.90 C 221.86 195.54 220.50 195.25 219.15 194.96 C 218.45 194.31 217.76 193.67 217.07 193.02 C 217.54 191.75 217.95 190.46 218.26 189.15 C 218.58 187.78 218.85 186.41 219.12 185.04 L 219.91 185.33 L 220.64 184.94 L 220.66 184.17 L 220.05 183.72 Z" />
</g>
<g id="#40403fff">
<path fill="#40403f" opacity="1.00" d=" M 293.77 185.13 C 290.81 183.83 295.78 180.90 295.66 184.04 C 295.19 184.31 294.24 184.86 293.77 185.13 Z" />
</g>
<g id="#9b928bff">
<path fill="#9b928b" opacity="1.00" d=" M 219.29 184.17 L 220.05 183.72 L 220.66 184.17 L 220.64 184.94 L 219.91 185.33 L 219.12 185.04 L 219.29 184.17 Z" />
</g>
<g id="#78797aff">
<path fill="#78797a" opacity="1.00" d=" M 293.77 185.13 C 294.24 184.86 295.19 184.31 295.66 184.04 C 296.94 187.75 301.85 186.60 304.78 188.12 C 304.86 188.57 305.00 189.46 305.07 189.91 C 301.06 189.19 296.02 189.16 293.77 185.13 Z" />
</g>
<g id="#767379fe">
<path fill="#767379" opacity="1.00" d=" M 133.81 185.62 C 136.08 185.28 138.41 184.98 140.71 185.33 C 142.47 185.47 143.27 187.24 144.30 188.41 L 143.68 189.04 C 143.49 189.24 143.12 189.65 142.93 189.86 C 139.51 187.79 135.58 186.85 131.65 186.44 L 132.30 186.18 C 132.68 186.04 133.43 185.76 133.81 185.62 Z" />
</g>
<g id="#86878dfd">
<path fill="#86878d" opacity="1.00" d=" M 307.10 184.94 C 307.72 184.96 308.97 184.98 309.59 185.00 C 314.18 186.34 318.98 186.94 323.41 188.82 C 321.01 189.75 318.57 190.62 316.01 190.95 C 315.47 190.85 314.38 190.65 313.83 190.55 C 314.08 190.19 314.56 189.48 314.81 189.13 C 312.79 188.34 310.72 187.70 308.62 187.21 C 308.10 186.46 307.60 185.70 307.10 184.94 Z" />
</g>
<g id="#a9a6a8ff">
<path fill="#a9a6a8" opacity="1.00" d=" M 156.06 189.01 C 156.55 187.95 157.09 186.93 157.63 185.90 C 159.37 190.26 161.93 194.22 164.17 198.34 C 163.97 198.84 163.59 199.86 163.40 200.37 C 162.53 200.63 161.66 200.88 160.80 201.13 C 159.17 197.11 155.92 193.57 156.06 189.01 Z" />
</g>
<g id="#c6c2bdff">
<path fill="#c6c2bd" opacity="1.00" d=" M 167.26 186.26 C 168.67 185.92 169.13 186.44 168.64 187.82 C 167.22 188.15 166.76 187.63 167.26 186.26 Z" />
</g>
<g id="#cfc7c8ff">
<path fill="#cfc7c8" opacity="1.00" d=" M 224.56 187.66 C 225.61 186.35 227.36 186.35 228.87 186.14 C 228.35 188.14 227.23 190.24 225.08 190.81 C 223.73 190.35 223.41 188.51 224.56 187.66 Z" />
</g>
<g id="#f2f1f3ff">
<path fill="#f2f1f3" opacity="1.00" d=" M 271.70 190.13 C 272.01 188.64 272.33 187.16 272.64 185.68 C 274.38 186.20 276.12 186.72 277.90 187.14 C 278.20 187.65 278.81 188.68 279.11 189.19 C 278.79 189.61 278.14 190.43 277.81 190.84 C 275.78 190.59 273.74 190.35 271.70 190.13 Z" />
</g>
<g id="#444041b2">
<path fill="#444041" opacity="0.70" d=" M 127.40 189.39 C 128.16 187.71 130.10 187.14 131.65 186.44 C 135.58 186.85 139.51 187.79 142.93 189.86 C 142.40 190.62 141.90 191.41 141.43 192.21 C 141.19 191.54 140.71 190.19 140.47 189.52 C 137.28 188.36 133.72 186.78 130.33 188.10 C 128.31 190.07 127.25 192.77 126.00 195.24 C 126.44 193.28 126.64 191.26 127.40 189.39 Z" />
</g>
<g id="#f4f2efff">
<path fill="#f4f2ef" opacity="1.00" d=" M 174.35 187.41 C 176.02 187.70 174.85 191.23 173.29 190.65 C 172.57 189.60 173.28 187.95 174.35 187.41 Z" />
</g>
<g id="#e1ded1ff">
<path fill="#e1ded1" opacity="1.00" d=" M 189.98 189.08 C 189.77 187.67 190.32 186.97 191.64 186.98 L 192.06 187.62 C 191.54 187.98 190.50 188.71 189.98 189.08 Z" />
</g>
<g id="#00000015">
<path fill="#000000" opacity="0.08" d=" M 235.16 186.96 C 235.77 187.86 236.82 188.68 236.74 189.89 C 236.76 192.94 236.39 195.98 236.24 199.03 C 236.03 204.08 233.89 208.81 233.82 213.88 C 233.52 221.65 231.40 229.19 229.01 236.54 C 228.13 239.07 228.08 242.11 226.04 244.06 C 224.68 245.50 222.56 245.23 220.77 245.46 C 220.66 246.12 220.54 246.79 220.44 247.46 C 219.82 247.56 219.21 247.66 218.60 247.76 C 217.40 252.40 214.57 256.44 213.57 261.15 C 213.30 262.77 212.43 264.17 211.34 265.38 C 211.54 267.79 212.00 270.21 211.79 272.64 C 211.25 275.61 208.55 277.74 208.35 280.82 C 207.98 284.28 206.85 287.69 207.26 291.19 C 207.97 294.85 204.42 297.67 204.90 301.33 C 205.15 303.79 204.60 306.16 203.49 308.35 C 203.91 310.26 204.61 312.26 203.95 314.20 C 203.51 316.25 201.95 317.74 200.60 319.24 C 200.93 320.17 201.26 321.10 201.59 322.04 C 201.19 322.95 200.79 323.86 200.39 324.78 C 201.29 324.69 202.19 324.62 203.09 324.55 C 202.53 327.58 201.39 330.46 199.67 333.02 C 200.32 334.92 200.54 336.92 199.97 338.87 C 198.90 343.00 200.19 347.29 199.26 351.44 C 198.25 355.73 197.32 360.14 194.89 363.90 C 193.36 366.01 195.73 368.53 194.69 370.78 C 194.05 372.64 193.02 374.39 192.66 376.35 C 192.69 377.72 192.94 379.08 193.17 380.43 C 192.30 381.70 191.34 382.90 190.26 384.00 L 176.30 384.00 C 177.19 379.85 176.34 375.67 175.47 371.60 C 174.83 369.27 176.83 367.31 176.85 365.04 C 176.57 363.03 175.92 361.11 175.36 359.17 C 176.32 358.04 177.29 356.93 178.29 355.83 C 177.68 355.72 176.44 355.49 175.83 355.37 C 176.84 354.53 177.85 353.70 178.86 352.86 C 178.34 348.67 178.13 344.45 177.84 340.24 C 178.41 339.47 178.98 338.70 179.54 337.94 C 178.52 334.95 178.70 331.83 180.18 329.03 C 178.29 325.07 181.08 321.07 181.03 317.01 C 180.86 314.62 182.32 312.77 183.79 311.09 C 182.62 309.80 180.66 308.85 180.49 306.94 C 181.09 305.34 182.15 303.96 183.07 302.53 C 183.11 298.43 183.87 294.33 183.22 290.24 C 184.38 288.36 186.07 286.62 186.36 284.36 C 186.40 281.92 185.56 279.58 185.04 277.22 C 185.73 275.60 186.73 273.99 186.53 272.16 C 186.37 268.56 187.41 265.07 187.82 261.53 C 188.04 259.46 189.02 257.61 189.85 255.74 C 188.74 254.77 187.63 253.80 186.53 252.84 C 187.76 250.90 189.34 249.05 189.83 246.76 C 190.02 243.90 189.05 240.91 190.26 238.18 C 191.35 235.21 192.80 231.83 191.28 228.73 C 188.15 226.01 184.06 227.75 181.22 229.94 C 182.18 231.00 183.15 232.07 184.12 233.15 C 182.68 233.57 181.25 233.98 179.81 234.38 C 178.81 236.01 177.87 237.78 178.06 239.77 C 178.44 243.05 174.73 244.28 172.35 245.41 C 172.85 244.61 173.34 243.81 173.84 243.02 C 177.26 238.73 174.35 232.91 176.73 228.23 C 183.31 225.02 190.95 225.32 197.44 221.87 C 200.32 225.13 203.27 228.40 205.21 232.33 C 211.53 229.55 214.72 223.05 216.83 216.87 C 218.11 219.19 219.70 221.32 221.71 223.06 C 224.89 218.87 227.90 214.40 229.31 209.27 C 230.30 205.55 229.50 201.35 231.82 198.04 C 232.70 197.18 233.65 196.37 234.47 195.44 C 235.34 192.71 235.04 189.78 235.16 186.96 Z" />
</g>
<g id="#aaaaadff">
<path fill="#aaaaad" opacity="1.00" d=" M 277.90 187.14 C 281.87 187.75 285.79 188.63 289.58 190.02 C 286.59 190.04 283.32 189.80 280.84 191.80 C 280.23 190.95 279.66 190.08 279.11 189.19 C 278.81 188.68 278.20 187.65 277.90 187.14 Z" />
</g>
<g id="#bdbdc0ff">
<path fill="#bdbdc0" opacity="1.00" d=" M 308.62 187.21 C 310.72 187.70 312.79 188.34 314.81 189.13 C 314.56 189.48 314.08 190.19 313.83 190.55 C 311.67 190.25 309.64 189.22 308.62 187.21 Z" />
</g>
<g id="#fefdfbff">
<path fill="#fefdfb" opacity="1.00" d=" M 143.71 193.47 C 146.74 190.07 151.36 186.72 156.06 189.01 C 155.92 193.57 159.17 197.11 160.80 201.13 C 160.93 201.37 161.18 201.85 161.31 202.09 C 163.24 202.33 165.30 202.29 166.99 203.42 C 165.53 203.95 163.58 204.34 163.32 206.19 C 163.61 207.33 163.96 208.45 164.38 209.56 C 162.37 211.16 159.71 211.68 157.86 213.50 C 160.46 213.57 163.07 213.64 165.65 214.04 C 162.89 216.40 160.12 219.04 156.30 219.30 C 156.46 219.90 156.80 221.09 156.96 221.69 C 155.73 221.71 154.50 221.76 153.27 221.84 C 150.42 220.29 147.61 218.66 144.88 216.91 C 144.56 216.61 143.93 216.00 143.61 215.70 C 144.91 214.59 146.22 213.49 147.53 212.39 C 147.62 211.86 147.81 210.81 147.91 210.29 C 145.85 210.15 143.79 210.01 141.74 209.88 C 142.59 207.96 143.15 205.95 143.70 203.94 C 142.41 204.96 141.14 206.00 139.85 207.02 C 139.78 205.46 139.12 203.77 139.86 202.28 C 140.70 201.78 141.63 201.46 142.54 201.10 C 142.75 200.18 142.97 199.26 143.18 198.33 C 142.37 198.88 141.57 199.44 140.77 199.99 C 140.69 197.88 140.60 195.77 140.58 193.65 L 141.02 192.90 C 141.92 193.09 142.81 193.28 143.71 193.47 M 146.69 215.92 C 148.02 216.55 149.40 217.11 150.91 217.03 C 150.75 216.44 150.43 215.25 150.27 214.66 C 149.09 213.27 147.51 214.96 146.69 215.92 Z" />
</g>
<g id="#a4a0a1ff">
<path fill="#a4a0a1" opacity="1.00" d=" M 164.88 194.19 C 162.03 193.30 162.08 190.14 162.36 187.72 C 162.70 188.12 163.37 188.91 163.71 189.31 C 164.26 190.89 164.59 192.54 164.88 194.19 Z" />
</g>
<g id="#a6a4a4ff">
<path fill="#a6a4a4" opacity="1.00" d=" M 176.48 188.53 C 177.74 189.30 179.00 190.07 180.29 190.81 C 181.48 191.44 182.49 191.16 183.33 189.99 C 183.69 190.23 184.40 190.72 184.75 190.96 C 184.76 192.32 184.78 193.68 184.78 195.05 C 184.31 195.08 183.35 195.15 182.87 195.19 C 181.43 195.32 180.00 195.54 178.60 195.87 C 177.64 197.20 176.75 198.58 175.85 199.95 C 177.22 200.62 178.60 201.28 179.97 201.95 C 178.45 201.87 176.93 201.78 175.41 201.70 C 174.94 200.87 174.47 200.04 174.01 199.21 C 175.05 198.18 176.04 197.10 176.96 195.97 C 176.78 195.60 176.41 194.86 176.23 194.49 C 175.82 193.69 175.41 192.89 175.00 192.09 C 175.49 190.90 175.98 189.71 176.48 188.53 M 178.33 192.32 L 178.33 192.77 L 178.78 192.77 L 178.78 192.32 L 178.33 192.32 Z" />
</g>
<g id="#c9c6bfff">
<path fill="#c9c6bf" opacity="1.00" d=" M 180.29 190.81 C 180.26 189.10 182.41 188.81 183.33 189.99 C 182.49 191.16 181.48 191.44 180.29 190.81 Z" />
</g>
<g id="#908c90ff">
<path fill="#908c90" opacity="1.00" d=" M 198.04 189.01 C 199.44 190.70 200.82 192.42 202.22 194.12 C 201.18 195.28 200.95 197.21 202.17 198.34 C 201.92 198.77 201.42 199.64 201.17 200.08 C 202.26 200.14 203.36 200.21 204.46 200.29 C 204.12 202.78 203.58 205.26 202.63 207.61 C 200.95 208.84 199.36 210.20 197.90 211.69 C 198.23 209.76 198.55 207.84 198.90 205.92 C 199.79 205.40 200.69 204.90 201.62 204.47 C 201.18 204.28 200.30 203.88 199.86 203.69 C 199.76 203.64 199.57 203.56 199.47 203.51 L 199.21 203.41 C 198.35 201.96 197.32 200.62 196.29 199.30 C 196.94 198.42 197.60 197.55 198.26 196.69 C 198.18 195.73 198.10 194.77 198.03 193.82 C 197.98 192.21 198.01 190.61 198.04 189.01 Z" />
</g>
<g id="#727277ff">
<path fill="#727277" opacity="1.00" d=" M 279.11 189.19 C 279.66 190.08 280.23 190.95 280.84 191.80 C 283.26 193.42 286.26 194.26 289.04 192.99 C 289.41 193.50 290.15 194.52 290.52 195.03 L 290.11 195.68 C 289.44 196.81 288.82 197.97 288.22 199.13 C 284.76 198.54 281.29 197.86 278.00 196.62 C 278.06 196.16 278.18 195.23 278.24 194.77 C 281.67 196.44 285.49 197.11 289.30 197.06 C 286.59 193.90 282.05 194.50 278.34 193.80 C 276.03 192.74 273.86 191.43 271.70 190.13 C 273.74 190.35 275.78 190.59 277.81 190.84 C 278.14 190.43 278.79 189.61 279.11 189.19 Z" />
</g>
<g id="#726c70ff">
<path fill="#726c70" opacity="1.00" d=" M 165.58 191.45 C 166.36 190.97 167.16 190.52 167.97 190.10 C 171.54 193.14 168.32 198.22 170.03 202.00 C 170.57 203.54 171.96 204.46 173.30 205.25 C 174.96 205.76 176.64 206.53 178.42 206.38 C 179.20 205.80 179.94 205.18 180.64 204.50 C 181.84 203.35 183.01 202.15 184.19 200.97 C 184.41 201.51 184.86 202.59 185.08 203.13 C 185.29 203.64 185.72 204.65 185.93 205.16 C 186.77 206.10 187.66 207.01 188.55 207.91 C 188.21 208.68 187.86 209.44 187.52 210.21 C 190.50 209.66 193.41 208.85 196.22 207.73 C 196.44 206.88 196.66 206.04 196.88 205.20 C 197.38 205.38 198.40 205.74 198.90 205.92 C 198.55 207.84 198.23 209.76 197.90 211.69 C 199.36 210.20 200.95 208.84 202.63 207.61 C 201.92 209.45 201.46 211.38 201.17 213.33 C 198.23 214.16 195.04 214.67 192.72 216.85 C 191.51 216.82 190.31 216.77 189.11 216.69 C 189.55 216.44 190.44 215.93 190.89 215.68 C 187.13 213.68 183.01 212.46 178.77 212.07 C 179.86 213.29 180.96 214.50 182.06 215.71 C 181.58 215.78 180.63 215.90 180.15 215.97 C 182.14 219.08 185.14 221.30 188.65 222.42 C 188.26 221.09 187.86 219.78 187.45 218.46 C 188.82 219.06 190.19 219.66 191.56 220.26 C 192.68 219.67 193.81 219.08 194.91 218.45 C 196.23 218.65 197.55 218.86 198.89 219.00 C 198.39 219.94 197.90 220.90 197.44 221.87 C 190.95 225.32 183.31 225.02 176.73 228.23 C 176.56 225.66 176.21 223.11 175.81 220.57 C 173.07 223.85 173.71 228.31 173.64 232.28 C 171.97 226.58 173.45 220.76 173.82 215.00 L 173.89 214.06 L 173.12 213.68 C 171.80 213.41 170.47 213.18 169.14 212.94 C 167.42 217.67 168.16 222.75 168.06 227.68 L 167.22 228.19 C 166.59 226.03 165.86 223.91 165.11 221.79 C 165.44 220.18 165.78 218.58 166.07 216.97 C 166.19 216.26 166.45 214.86 166.57 214.15 C 166.97 212.42 167.48 210.72 167.91 209.00 C 168.21 207.77 168.48 206.54 168.76 205.31 C 168.32 204.84 167.43 203.89 166.99 203.42 C 165.30 202.29 163.24 202.33 161.31 202.09 C 161.18 201.85 160.93 201.37 160.80 201.13 C 161.66 200.88 162.53 200.63 163.40 200.37 C 163.59 199.86 163.97 198.84 164.17 198.34 C 165.34 196.79 166.66 195.37 167.99 193.96 C 167.18 193.12 166.38 192.29 165.58 191.45 M 175.27 208.28 L 175.27 208.73 L 175.72 208.73 L 175.72 208.28 L 175.27 208.28 Z" />
</g>
<g id="#bbbbbdff">
<path fill="#bbbbbd" opacity="1.00" d=" M 184.75 190.96 C 186.38 190.55 188.00 190.11 189.62 189.66 L 189.26 190.26 C 188.36 191.83 187.50 193.44 186.41 194.90 C 186.00 194.94 185.19 195.01 184.78 195.05 C 184.78 193.68 184.76 192.32 184.75 190.96 Z" />
</g>
<g id="#c1c0c4ff">
<path fill="#c1c0c4" opacity="1.00" d=" M 280.84 191.80 C 283.32 189.80 286.59 190.04 289.58 190.02 L 290.34 190.21 C 290.47 190.63 290.73 191.48 290.85 191.91 C 290.40 192.18 289.49 192.72 289.04 192.99 C 286.26 194.26 283.26 193.42 280.84 191.80 Z" />
</g>
<g id="#f3f1f4ff">
<path fill="#f3f1f4" opacity="1.00" d=" M 290.34 190.21 C 291.53 190.50 292.72 190.78 293.91 191.06 C 294.29 192.07 294.67 193.09 295.05 194.11 C 293.53 194.39 292.02 194.68 290.52 195.03 C 290.15 194.52 289.41 193.50 289.04 192.99 C 289.49 192.72 290.40 192.18 290.85 191.91 C 290.73 191.48 290.47 190.63 290.34 190.21 Z" />
</g>
<g id="#a9a4aaff">
<path fill="#a9a4aa" opacity="1.00" d=" M 186.41 194.90 C 187.50 193.44 188.36 191.83 189.26 190.26 C 191.29 191.10 193.02 192.47 194.25 194.31 C 195.47 193.95 196.73 193.49 198.03 193.82 C 198.10 194.77 198.18 195.73 198.26 196.69 C 197.60 197.55 196.94 198.42 196.29 199.30 C 197.32 200.62 198.35 201.96 199.21 203.41 L 199.47 203.51 L 199.86 203.69 C 200.30 203.88 201.18 204.28 201.62 204.47 C 200.69 204.90 199.79 205.40 198.90 205.92 C 198.40 205.74 197.38 205.38 196.88 205.20 C 193.33 203.93 189.53 204.41 185.93 205.16 C 185.72 204.65 185.29 203.64 185.08 203.13 C 185.34 201.92 185.65 200.72 185.95 199.52 C 188.24 200.28 190.46 201.23 192.69 202.18 C 192.70 201.44 192.73 199.97 192.74 199.23 C 192.75 197.52 192.73 195.81 192.70 194.11 C 191.67 194.22 190.64 194.33 189.61 194.45 C 189.15 195.40 188.68 196.33 188.20 197.27 C 187.90 197.39 187.30 197.65 187.00 197.78 C 186.85 197.06 186.56 195.62 186.41 194.90 Z" />
</g>
<g id="#a3a4a7fe">
<path fill="#a3a4a7" opacity="1.00" d=" M 321.83 190.88 C 323.95 190.81 326.07 191.08 328.09 191.72 C 333.36 193.26 338.74 194.33 344.02 195.84 C 345.15 196.03 345.83 196.71 346.05 197.87 C 338.93 196.80 332.11 194.36 325.01 193.19 C 323.55 193.05 322.19 192.43 321.83 190.88 Z" />
</g>
<g id="#f9efeaff">
<path fill="#f9efea" opacity="1.00" d=" M 178.33 192.32 L 178.78 192.32 L 178.78 192.77 L 178.33 192.77 L 178.33 192.32 Z" />
</g>
<g id="#655e5bfe">
<path fill="#655e5b" opacity="1.00" d=" M 217.07 193.02 C 217.76 193.67 218.45 194.31 219.15 194.96 C 218.28 197.92 217.01 200.73 215.68 203.51 C 214.42 206.14 213.99 209.08 212.75 211.72 C 211.59 213.33 209.68 214.16 208.10 215.30 C 208.88 212.46 210.28 209.80 210.83 206.90 C 211.08 203.76 211.13 200.58 211.85 197.49 C 212.24 198.09 213.01 199.28 213.39 199.87 C 214.68 197.62 215.98 195.38 217.07 193.02 Z" />
</g>
<g id="#b9aeabff">
<path fill="#b9aeab" opacity="1.00" d=" M 225.34 194.31 C 226.49 193.30 227.99 193.14 229.45 193.28 C 228.57 194.59 227.68 195.89 226.73 197.13 L 225.79 197.07 C 225.48 196.16 225.33 195.24 225.34 194.31 Z" />
</g>
<g id="#cbbfb3ff">
<path fill="#cbbfb3" opacity="1.00" d=" M 138.20 196.64 C 139.04 195.68 139.83 194.68 140.58 193.65 C 140.60 195.77 140.69 197.88 140.77 199.99 C 141.57 199.44 142.37 198.88 143.18 198.33 C 142.97 199.26 142.75 200.18 142.54 201.10 C 141.63 201.46 140.70 201.78 139.86 202.28 C 139.12 203.77 139.78 205.46 139.85 207.02 C 141.14 206.00 142.41 204.96 143.70 203.94 C 143.15 205.95 142.59 207.96 141.74 209.88 C 141.55 210.29 141.18 211.11 140.99 211.52 C 139.28 211.29 137.66 210.68 136.16 209.83 C 136.55 205.38 138.24 201.13 138.20 196.64 Z" />
</g>
<g id="#c4bfc5ff">
<path fill="#c4bfc5" opacity="1.00" d=" M 189.61 194.45 C 190.64 194.33 191.67 194.22 192.70 194.11 C 192.73 195.81 192.75 197.52 192.74 199.23 C 191.23 198.56 189.73 197.88 188.20 197.27 C 188.68 196.33 189.15 195.40 189.61 194.45 Z" />
</g>
<g id="#c0bdb2ff">
<path fill="#c0bdb2" opacity="1.00" d=" M 202.22 194.12 C 203.68 195.22 203.18 197.12 202.17 198.34 C 200.95 197.21 201.18 195.28 202.22 194.12 Z" />
</g>
<g id="#b1b1b7ff">
<path fill="#b1b1b7" opacity="1.00" d=" M 278.34 193.80 C 282.05 194.50 286.59 193.90 289.30 197.06 C 285.49 197.11 281.67 196.44 278.24 194.77 L 278.34 193.80 Z" />
</g>
<g id="#807f81ff">
<path fill="#807f81" opacity="1.00" d=" M 290.52 195.03 C 292.02 194.68 293.53 194.39 295.05 194.11 C 296.41 194.73 297.78 195.35 299.19 195.87 C 299.36 197.03 299.52 198.19 299.67 199.36 L 299.63 200.23 C 298.37 199.91 297.10 199.66 295.84 199.43 C 296.72 198.08 295.10 196.88 293.87 196.76 C 292.61 196.40 291.36 196.04 290.11 195.68 L 290.52 195.03 Z" />
</g>
<g id="#c1c1c4f9">
<path fill="#c1c1c4" opacity="0.98" d=" M 302.22 196.38 C 303.14 195.44 304.07 194.51 305.00 193.58 C 306.01 194.13 307.00 194.73 308.03 195.26 C 308.31 195.32 308.89 195.45 309.18 195.51 C 312.37 195.66 315.32 197.18 317.50 199.49 C 315.20 198.91 312.90 198.37 310.55 198.04 C 310.39 198.41 310.07 199.15 309.91 199.52 C 309.69 200.07 309.25 201.16 309.03 201.71 C 308.37 201.04 307.74 200.35 307.04 199.73 C 307.75 198.96 308.47 198.19 309.19 197.42 C 306.85 197.16 304.53 196.79 302.22 196.38 Z" />
</g>
<g id="#c6c0c0ff">
<path fill="#c6c0c0" opacity="1.00" d=" M 170.94 200.91 C 171.59 198.00 173.99 196.20 176.23 194.49 C 176.41 194.86 176.78 195.60 176.96 195.97 C 176.04 197.10 175.05 198.18 174.01 199.21 C 173.00 199.81 171.97 200.36 170.94 200.91 Z" />
</g>
<g id="#bebabdff">
<path fill="#bebabd" opacity="1.00" d=" M 178.60 195.87 C 180.00 195.54 181.43 195.32 182.87 195.19 C 183.38 196.54 183.90 197.89 184.42 199.24 C 182.03 199.12 180.32 197.30 178.60 195.87 Z" />
</g>
<g id="#fcfbfcff">
<path fill="#fcfbfc" opacity="1.00" d=" M 182.87 195.19 C 183.35 195.15 184.31 195.08 184.78 195.05 C 185.19 195.01 186.00 194.94 186.41 194.90 C 186.56 195.62 186.85 197.06 187.00 197.78 C 187.30 197.65 187.90 197.39 188.20 197.27 C 189.73 197.88 191.23 198.56 192.74 199.23 C 192.73 199.97 192.70 201.44 192.69 202.18 C 190.46 201.23 188.24 200.28 185.95 199.52 C 185.56 199.45 184.80 199.31 184.42 199.24 C 183.90 197.89 183.38 196.54 182.87 195.19 Z" />
</g>
<g id="#00000022">
<path fill="#000000" opacity="0.13" d=" M 219.15 194.96 C 220.50 195.25 221.86 195.54 223.21 195.90 C 224.07 196.28 224.93 196.67 225.79 197.07 L 226.73 197.13 C 228.53 197.24 230.35 197.31 232.17 197.37 L 231.82 198.04 C 229.50 201.35 230.30 205.55 229.31 209.27 C 227.90 214.40 224.89 218.87 221.71 223.06 C 219.70 221.32 218.11 219.19 216.83 216.87 C 214.72 223.05 211.53 229.55 205.21 232.33 C 203.27 228.40 200.32 225.13 197.44 221.87 C 197.90 220.90 198.39 219.94 198.89 219.00 C 199.24 218.84 199.96 218.54 200.31 218.39 C 203.08 217.83 205.80 216.99 208.10 215.30 C 209.68 214.16 211.59 213.33 212.75 211.72 C 213.99 209.08 214.42 206.14 215.68 203.51 C 217.01 200.73 218.28 197.92 219.15 194.96 Z" />
</g>
<g id="#393b44ff">
<path fill="#393b44" opacity="1.00" d=" M 290.11 195.68 C 291.36 196.04 292.61 196.40 293.87 196.76 C 292.35 198.13 294.41 199.56 295.84 199.43 C 297.10 199.66 298.37 199.91 299.63 200.23 C 300.46 201.68 303.54 200.61 301.71 199.15 C 301.20 199.20 300.18 199.30 299.67 199.36 C 299.52 198.19 299.36 197.03 299.19 195.87 C 300.19 196.05 301.20 196.23 302.22 196.38 C 303.70 197.99 305.15 199.65 306.28 201.54 C 305.39 202.96 304.54 204.41 303.48 205.71 C 302.28 206.01 301.06 206.15 299.83 206.12 C 297.13 205.42 294.40 204.88 291.62 204.69 C 293.10 209.72 296.33 213.93 298.81 218.48 C 299.07 218.94 299.59 219.85 299.84 220.31 C 302.16 224.66 304.66 228.91 306.96 233.27 L 305.99 233.22 C 303.86 229.11 301.85 224.86 298.60 221.48 C 298.35 221.02 297.85 220.08 297.59 219.61 C 295.96 214.58 293.27 210.01 290.46 205.57 C 289.73 204.36 288.48 203.66 287.32 202.96 C 287.68 201.70 287.98 200.42 288.22 199.13 C 288.82 197.97 289.44 196.81 290.11 195.68 M 291.95 200.91 C 291.99 201.35 292.05 202.23 292.09 202.66 C 295.01 204.67 298.72 204.41 302.06 203.95 C 301.82 203.65 301.34 203.03 301.09 202.72 C 298.24 201.50 295.06 200.69 291.95 200.91 Z" />
</g>
<g id="#8a8a8ef0">
<path fill="#8a8a8e" opacity="0.94" d=" M 302.22 196.38 C 304.53 196.79 306.85 197.16 309.19 197.42 C 308.47 198.19 307.75 198.96 307.04 199.73 C 307.74 200.35 308.37 201.04 309.03 201.71 C 309.45 201.97 310.28 202.51 310.70 202.77 C 310.08 203.38 309.47 203.99 308.86 204.61 L 309.71 204.60 C 311.08 205.06 312.45 205.57 313.83 206.07 C 313.59 206.51 313.11 207.39 312.88 207.83 C 311.58 207.82 310.29 207.82 309.00 207.83 C 309.60 207.25 310.21 206.68 310.83 206.13 C 309.29 206.12 307.74 206.11 306.21 206.04 C 306.35 205.49 306.64 204.39 306.79 203.85 C 306.66 203.27 306.41 202.12 306.28 201.54 C 305.15 199.65 303.70 197.99 302.22 196.38 Z" />
</g>
<g id="#aaaab0f1">
<path fill="#aaaab0" opacity="0.95" d=" M 354.16 197.15 C 354.38 196.81 354.80 196.12 355.02 195.77 C 355.45 195.88 356.31 196.09 356.74 196.19 C 358.37 197.98 354.84 198.82 354.16 197.15 Z" />
</g>
<g id="#fffefeff">
<path fill="#fffefe" opacity="1.00" d=" M 132.07 201.96 C 134.34 200.47 136.28 198.55 138.20 196.64 C 138.24 201.13 136.55 205.38 136.16 209.83 C 137.66 210.68 139.28 211.29 140.99 211.52 C 140.92 212.83 140.97 214.13 141.01 215.44 C 140.53 216.20 140.04 216.94 139.54 217.69 C 141.32 218.89 143.11 220.09 144.77 221.45 C 146.13 222.53 147.29 223.99 149.01 224.51 C 149.75 224.76 151.23 225.25 151.97 225.50 C 150.12 227.43 147.41 227.75 144.94 228.30 C 141.52 226.05 138.31 223.49 135.18 220.86 C 133.97 219.75 132.49 218.59 132.42 216.80 C 131.67 211.89 131.96 206.90 132.07 201.96 Z" />
</g>
<g id="#5d5858ff">
<path fill="#5d5858" opacity="1.00" d=" M 204.75 198.16 C 205.41 197.86 206.08 197.56 206.75 197.26 C 206.56 198.49 206.37 199.71 206.17 200.94 C 206.63 200.97 207.54 201.04 207.99 201.08 C 207.59 203.41 207.29 205.76 206.89 208.10 C 205.77 209.73 204.54 211.28 203.20 212.74 C 202.69 212.89 201.68 213.18 201.17 213.33 C 201.46 211.38 201.92 209.45 202.63 207.61 C 203.58 205.26 204.12 202.78 204.46 200.29 C 204.53 199.76 204.68 198.69 204.75 198.16 Z" />
</g>
<g id="#8b8a8dfc">
<path fill="#8b8a8d" opacity="1.00" d=" M 276.84 199.85 C 277.24 198.77 277.63 197.70 278.00 196.62 C 281.29 197.86 284.76 198.54 288.22 199.13 C 287.98 200.42 287.68 201.70 287.32 202.96 L 286.57 202.55 C 284.09 200.99 281.50 199.13 278.40 199.84 L 277.60 199.85 L 276.84 199.85 Z" />
</g>
<g id="#a9a9adff">
<path fill="#a9a9ad" opacity="1.00" d=" M 295.84 199.43 C 294.41 199.56 292.35 198.13 293.87 196.76 C 295.10 196.88 296.72 198.08 295.84 199.43 Z" />
</g>
<g id="#54565eed">
<path fill="#54565e" opacity="0.93" d=" M 310.55 198.04 C 312.90 198.37 315.20 198.91 317.50 199.49 C 317.98 200.46 318.44 201.44 318.91 202.43 C 317.72 202.62 316.54 202.83 315.36 203.06 C 315.83 202.40 316.30 201.74 316.76 201.07 C 314.47 200.56 312.19 200.05 309.91 199.52 C 310.07 199.15 310.39 198.41 310.55 198.04 Z" />
</g>
<g id="#9f9c9aff">
<path fill="#9f9c9a" opacity="1.00" d=" M 208.41 198.88 C 210.97 202.72 209.28 207.50 207.60 211.32 C 207.34 210.25 207.10 209.18 206.89 208.10 C 207.29 205.76 207.59 203.41 207.99 201.08 C 208.10 200.53 208.31 199.43 208.41 198.88 Z" />
</g>
<g id="#4c4b49cc">
<path fill="#4c4b49" opacity="0.80" d=" M 278.40 199.84 C 281.50 199.13 284.09 200.99 286.57 202.55 C 283.67 202.23 280.92 201.30 278.40 199.84 Z" />
</g>
<g id="#9b9b9ffe">
<path fill="#9b9b9f" opacity="1.00" d=" M 299.67 199.36 C 300.18 199.30 301.20 199.20 301.71 199.15 C 303.54 200.61 300.46 201.68 299.63 200.23 L 299.67 199.36 Z" />
</g>
<g id="#e3e2e6ff">
<path fill="#e3e2e6" opacity="1.00" d=" M 309.03 201.71 C 309.25 201.16 309.69 200.07 309.91 199.52 C 312.19 200.05 314.47 200.56 316.76 201.07 C 316.30 201.74 315.83 202.40 315.36 203.06 L 314.93 203.57 L 314.00 203.63 C 312.56 203.95 311.14 204.33 309.71 204.60 L 308.86 204.61 C 309.47 203.99 310.08 203.38 310.70 202.77 C 310.28 202.51 309.45 201.97 309.03 201.71 Z" />
</g>
<g id="#a2a1a5ff">
<path fill="#a2a1a5" opacity="1.00" d=" M 291.95 200.91 C 295.06 200.69 298.24 201.50 301.09 202.72 C 301.34 203.03 301.82 203.65 302.06 203.95 C 298.72 204.41 295.01 204.67 292.09 202.66 C 292.05 202.23 291.99 201.35 291.95 200.91 Z" />
</g>
<g id="#8b888cff">
<path fill="#8b888c" opacity="1.00" d=" M 130.40 202.94 C 130.82 202.70 131.65 202.20 132.07 201.96 C 131.96 206.90 131.67 211.89 132.42 216.80 C 132.49 218.59 133.97 219.75 135.18 220.86 C 138.31 223.49 141.52 226.05 144.94 228.30 C 146.76 229.12 148.66 229.76 150.60 230.26 C 154.21 230.66 157.85 230.74 161.45 231.26 C 160.02 231.81 158.63 232.49 157.04 232.38 C 152.15 232.50 147.02 232.68 142.44 230.65 C 139.51 229.32 136.73 227.69 133.96 226.07 C 132.52 224.45 131.21 222.72 130.00 220.93 C 129.07 217.87 128.10 214.51 129.30 211.38 C 129.95 208.63 131.96 205.74 130.40 202.94 Z" />
</g>
<g id="#1b1b1c98">
<path fill="#1b1b1c" opacity="0.60" d=" M 303.48 205.71 C 304.54 204.41 305.39 202.96 306.28 201.54 C 306.41 202.12 306.66 203.27 306.79 203.85 C 306.42 204.00 305.68 204.32 305.31 204.47 L 305.05 205.27 L 305.44 205.95 L 306.21 206.04 C 307.74 206.11 309.29 206.12 310.83 206.13 C 310.21 206.68 309.60 207.25 309.00 207.83 C 305.86 211.93 303.87 216.89 299.84 220.31 C 299.59 219.85 299.07 218.94 298.81 218.48 C 302.53 216.02 306.32 212.22 305.17 207.32 C 303.38 206.94 301.60 206.54 299.83 206.12 C 301.06 206.15 302.28 206.01 303.48 205.71 Z" />
</g>
<g id="#7f5a4bfe">
<path fill="#7f5a4b" opacity="1.00" d=" M 124.20 211.99 C 123.96 207.97 127.38 205.01 130.40 202.94 C 131.96 205.74 129.95 208.63 129.30 211.38 C 128.10 214.51 129.07 217.87 130.00 220.93 C 129.41 220.76 128.21 220.44 127.62 220.27 C 126.23 217.64 124.12 215.14 124.20 211.99 Z" />
</g>
<g id="#a6a2a4ff">
<path fill="#a6a2a4" opacity="1.00" d=" M 173.30 205.25 C 174.71 202.09 178.26 203.59 180.64 204.50 C 179.94 205.18 179.20 205.80 178.42 206.38 C 176.64 206.53 174.96 205.76 173.30 205.25 Z" />
</g>
<g id="#5c5c60ff">
<path fill="#5c5c60" opacity="1.00" d=" M 199.47 203.51 C 199.57 203.56 199.76 203.64 199.86 203.69 L 199.47 203.51 Z" />
</g>
<g id="#908d8eff">
<path fill="#908d8e" opacity="1.00" d=" M 163.32 206.19 C 163.58 204.34 165.53 203.95 166.99 203.42 C 167.43 203.89 168.32 204.84 168.76 205.31 C 168.48 206.54 168.21 207.77 167.91 209.00 C 166.73 209.18 165.55 209.36 164.38 209.56 C 163.96 208.45 163.61 207.33 163.32 206.19 Z" />
</g>
<g id="#8b878dff">
<path fill="#8b878d" opacity="1.00" d=" M 185.93 205.16 C 189.53 204.41 193.33 203.93 196.88 205.20 C 196.66 206.04 196.44 206.88 196.22 207.73 C 193.41 208.85 190.50 209.66 187.52 210.21 C 187.86 209.44 188.21 208.68 188.55 207.91 C 187.66 207.01 186.77 206.10 185.93 205.16 Z" />
</g>
<g id="#b4b2b6fb">
<path fill="#b4b2b6" opacity="1.00" d=" M 305.31 204.47 C 305.68 204.32 306.42 204.00 306.79 203.85 C 306.64 204.39 306.35 205.49 306.21 206.04 L 305.44 205.95 L 305.05 205.27 L 305.31 204.47 Z" />
</g>
<g id="#0d0d0e3c">
<path fill="#0d0d0e" opacity="0.24" d=" M 309.71 204.60 C 311.14 204.33 312.56 203.95 314.00 203.63 C 314.24 205.03 314.49 206.44 314.75 207.84 C 314.28 207.84 313.34 207.83 312.88 207.83 C 313.11 207.39 313.59 206.51 313.83 206.07 C 312.45 205.57 311.08 205.06 309.71 204.60 Z" />
</g>
<g id="#f2e8dcff">
<path fill="#f2e8dc" opacity="1.00" d=" M 175.27 208.28 L 175.72 208.28 L 175.72 208.73 L 175.27 208.73 L 175.27 208.28 Z" />
</g>
<g id="#ddd5d0ff">
<path fill="#ddd5d0" opacity="1.00" d=" M 164.38 209.56 C 165.55 209.36 166.73 209.18 167.91 209.00 C 167.48 210.72 166.97 212.42 166.57 214.15 L 165.65 214.04 C 163.07 213.64 160.46 213.57 157.86 213.50 C 159.71 211.68 162.37 211.16 164.38 209.56 Z" />
</g>
<g id="#b7b6bafc">
<path fill="#b7b6ba" opacity="1.00" d=" M 351.25 209.19 L 352.11 208.87 L 352.97 209.22 L 353.33 210.02 L 352.97 210.82 L 352.11 211.14 L 351.25 210.80 L 350.89 209.99 L 351.25 209.19 Z" />
</g>
<g id="#ece5e3ff">
<path fill="#ece5e3" opacity="1.00" d=" M 140.99 211.52 C 141.18 211.11 141.55 210.29 141.74 209.88 C 143.79 210.01 145.85 210.15 147.91 210.29 C 147.81 210.81 147.62 211.86 147.53 212.39 C 146.22 213.49 144.91 214.59 143.61 215.70 C 143.36 215.45 142.87 214.96 142.63 214.72 C 142.84 213.34 143.12 211.98 143.41 210.63 C 142.67 212.26 141.90 213.89 141.01 215.44 C 140.97 214.13 140.92 212.83 140.99 211.52 Z" />
</g>
<g id="#a49080ff">
<path fill="#a49080" opacity="1.00" d=" M 141.01 215.44 C 141.90 213.89 142.67 212.26 143.41 210.63 C 143.12 211.98 142.84 213.34 142.63 214.72 C 142.87 214.96 143.36 215.45 143.61 215.70 C 143.93 216.00 144.56 216.61 144.88 216.91 C 145.72 217.95 146.52 219.03 147.34 220.10 C 146.69 220.44 145.41 221.12 144.77 221.45 C 143.11 220.09 141.32 218.89 139.54 217.69 C 140.04 216.94 140.53 216.20 141.01 215.44 Z" />
</g>
<g id="#888281ff">
<path fill="#888281" opacity="1.00" d=" M 178.77 212.07 C 183.01 212.46 187.13 213.68 190.89 215.68 C 190.44 215.93 189.55 216.44 189.11 216.69 C 186.78 216.22 184.45 215.59 182.06 215.71 C 180.96 214.50 179.86 213.29 178.77 212.07 Z" />
</g>
<g id="#adabacff">
<path fill="#adabac" opacity="1.00" d=" M 169.14 212.94 C 170.47 213.18 171.80 213.41 173.12 213.68 L 172.46 214.09 L 172.38 214.83 L 173.04 215.25 L 173.82 215.00 C 173.45 220.76 171.97 226.58 173.64 232.28 C 173.72 233.71 173.31 235.10 172.97 236.48 C 170.41 234.15 169.25 230.83 168.06 227.68 C 168.16 222.75 167.42 217.67 169.14 212.94 M 170.20 228.85 C 170.64 228.91 171.53 229.03 171.97 229.10 C 171.92 227.73 171.86 226.36 171.81 224.99 L 171.91 224.24 C 171.74 221.61 172.15 218.83 170.97 216.38 C 168.06 219.83 168.58 224.95 170.20 228.85 Z" />
</g>
<g id="#898586ff">
<path fill="#898586" opacity="1.00" d=" M 201.17 213.33 C 201.68 213.18 202.69 212.89 203.20 212.74 C 203.94 215.17 201.66 216.75 200.31 218.39 C 199.96 218.54 199.24 218.84 198.89 219.00 C 197.55 218.86 196.23 218.65 194.91 218.45 C 195.44 218.10 196.50 217.42 197.04 217.08 C 195.60 216.98 194.16 216.91 192.72 216.85 C 195.04 214.67 198.23 214.16 201.17 213.33 Z" />
</g>
<g id="#e9e1ddff">
<path fill="#e9e1dd" opacity="1.00" d=" M 146.69 215.92 C 147.51 214.96 149.09 213.27 150.27 214.66 C 150.43 215.25 150.75 216.44 150.91 217.03 C 149.40 217.11 148.02 216.55 146.69 215.92 Z" />
</g>
<g id="#cabfb8ff">
<path fill="#cabfb8" opacity="1.00" d=" M 165.65 214.04 L 166.57 214.15 C 166.45 214.86 166.19 216.26 166.07 216.97 C 163.56 219.39 160.84 222.46 156.96 221.69 C 156.80 221.09 156.46 219.90 156.30 219.30 C 160.12 219.04 162.89 216.40 165.65 214.04 Z" />
</g>
<g id="#eadfd8ff">
<path fill="#eadfd8" opacity="1.00" d=" M 172.46 214.09 L 173.12 213.68 L 173.89 214.06 L 173.82 215.00 L 173.04 215.25 L 172.38 214.83 L 172.46 214.09 Z" />
</g>
<g id="#504b4aff">
<path fill="#504b4a" opacity="1.00" d=" M 182.06 215.71 C 184.45 215.59 186.78 216.22 189.11 216.69 C 190.31 216.77 191.51 216.82 192.72 216.85 C 194.16 216.91 195.60 216.98 197.04 217.08 C 196.50 217.42 195.44 218.10 194.91 218.45 C 193.81 219.08 192.68 219.67 191.56 220.26 C 190.19 219.66 188.82 219.06 187.45 218.46 C 187.86 219.78 188.26 221.09 188.65 222.42 C 185.14 221.30 182.14 219.08 180.15 215.97 C 180.63 215.90 181.58 215.78 182.06 215.71 Z" />
</g>
<g id="#c0b3a6ff">
<path fill="#c0b3a6" opacity="1.00" d=" M 144.88 216.91 C 147.61 218.66 150.42 220.29 153.27 221.84 C 153.57 222.77 153.88 223.71 154.19 224.65 C 152.46 224.63 150.73 224.63 149.01 224.51 C 147.29 223.99 146.13 222.53 144.77 221.45 C 145.41 221.12 146.69 220.44 147.34 220.10 C 146.52 219.03 145.72 217.95 144.88 216.91 Z" />
</g>
<g id="#e1dddeff">
<path fill="#e1ddde" opacity="1.00" d=" M 156.96 221.69 C 160.84 222.46 163.56 219.39 166.07 216.97 C 165.78 218.58 165.44 220.18 165.11 221.79 C 164.02 222.47 162.94 223.18 161.82 223.82 C 161.45 223.81 160.70 223.79 160.33 223.78 C 159.34 223.68 158.35 223.58 157.37 223.47 C 156.24 224.96 155.10 226.45 153.79 227.79 C 152.75 228.64 151.67 229.44 150.60 230.26 C 148.66 229.76 146.76 229.12 144.94 228.30 C 147.41 227.75 150.12 227.43 151.97 225.50 C 151.23 225.25 149.75 224.76 149.01 224.51 C 150.73 224.63 152.46 224.63 154.19 224.65 C 153.88 223.71 153.57 222.77 153.27 221.84 C 154.50 221.76 155.73 221.71 156.96 221.69 Z" />
</g>
<g id="#c5c1c5ff">
<path fill="#c5c1c5" opacity="1.00" d=" M 170.20 228.85 C 168.58 224.95 168.06 219.83 170.97 216.38 C 172.15 218.83 171.74 221.61 171.91 224.24 C 171.69 223.37 170.25 221.51 169.71 223.22 C 169.06 224.58 170.56 226.34 171.81 224.99 C 171.86 226.36 171.92 227.73 171.97 229.10 C 171.53 229.03 170.64 228.91 170.20 228.85 Z" />
</g>
<g id="#00000074">
<path fill="#000000" opacity="0.45" d=" M 274.08 217.12 C 275.83 218.92 277.16 221.27 279.37 222.55 C 285.55 223.82 292.08 222.62 297.59 219.61 C 297.85 220.08 298.35 221.02 298.60 221.48 C 292.60 224.85 285.27 226.54 278.55 224.57 C 276.26 222.66 275.26 219.74 274.08 217.12 Z" />
</g>
<g id="#0000000d">
<path fill="#000000" opacity="0.05" d=" M 127.62 220.27 C 128.21 220.44 129.41 220.76 130.00 220.93 C 131.21 222.72 132.52 224.45 133.96 226.07 C 135.44 227.84 137.16 229.45 139.21 230.54 C 137.76 233.25 138.09 236.23 138.99 239.05 C 140.31 242.53 138.24 245.97 138.48 249.50 C 138.85 254.66 138.60 259.83 138.87 265.00 C 139.03 267.52 137.87 269.84 137.02 272.15 C 137.40 272.34 138.16 272.70 138.54 272.88 C 139.10 275.41 140.09 277.81 141.51 279.98 C 140.76 280.88 139.73 281.62 139.32 282.75 C 139.26 285.31 141.48 287.32 141.61 289.83 C 141.25 292.66 139.51 295.03 138.07 297.40 C 139.61 298.35 141.16 299.29 142.71 300.24 C 141.44 301.74 140.19 303.26 138.97 304.80 C 140.83 306.27 142.79 307.61 144.85 308.79 C 145.22 307.76 145.60 306.74 145.97 305.72 C 145.53 305.64 144.65 305.47 144.20 305.38 C 145.40 302.66 145.06 299.75 145.11 296.89 C 146.22 293.91 148.01 291.21 148.92 288.15 C 151.11 281.94 149.95 275.09 152.50 268.95 C 152.09 267.74 151.69 266.54 151.30 265.33 C 154.86 261.29 153.91 255.31 157.11 251.09 C 158.79 248.83 160.85 246.90 162.91 245.01 C 165.06 243.14 167.42 241.55 169.86 240.10 C 170.37 240.99 170.88 241.89 171.40 242.78 C 172.01 242.84 173.23 242.96 173.84 243.02 C 173.34 243.81 172.85 244.61 172.35 245.41 C 174.73 244.28 178.44 243.05 178.06 239.77 C 177.87 237.78 178.81 236.01 179.81 234.38 C 181.25 233.98 182.68 233.57 184.12 233.15 C 183.15 232.07 182.18 231.00 181.22 229.94 C 184.06 227.75 188.15 226.01 191.28 228.73 C 192.80 231.83 191.35 235.21 190.26 238.18 C 189.05 240.91 190.02 243.90 189.83 246.76 C 189.34 249.05 187.76 250.90 186.53 252.84 C 187.63 253.80 188.74 254.77 189.85 255.74 C 189.02 257.61 188.04 259.46 187.82 261.53 C 187.41 265.07 186.37 268.56 186.53 272.16 C 186.73 273.99 185.73 275.60 185.04 277.22 C 185.56 279.58 186.40 281.92 186.36 284.36 C 186.07 286.62 184.38 288.36 183.22 290.24 C 183.87 294.33 183.11 298.43 183.07 302.53 C 182.15 303.96 181.09 305.34 180.49 306.94 C 180.66 308.85 182.62 309.80 183.79 311.09 C 182.32 312.77 180.86 314.62 181.03 317.01 C 181.08 321.07 178.29 325.07 180.18 329.03 C 178.70 331.83 178.52 334.95 179.54 337.94 C 178.98 338.70 178.41 339.47 177.84 340.24 C 178.13 344.45 178.34 348.67 178.86 352.86 C 177.85 353.70 176.84 354.53 175.83 355.37 C 176.44 355.49 177.68 355.72 178.29 355.83 C 177.29 356.93 176.32 358.04 175.36 359.17 C 175.92 361.11 176.57 363.03 176.85 365.04 C 176.83 367.31 174.83 369.27 175.47 371.60 C 176.34 375.67 177.19 379.85 176.30 384.00 L 124.68 384.00 C 125.94 381.54 127.29 379.07 128.01 376.38 C 128.08 374.12 127.25 371.94 126.79 369.75 C 127.33 369.66 128.41 369.48 128.95 369.39 C 128.05 367.60 126.97 365.85 126.58 363.86 C 126.38 360.42 128.22 357.26 128.46 353.87 C 128.30 351.48 127.39 349.08 128.04 346.68 C 129.08 342.60 128.28 338.34 129.15 334.24 C 129.73 331.40 129.67 328.51 129.49 325.64 C 129.16 320.39 131.00 315.29 130.67 310.03 C 130.84 306.06 130.76 302.11 130.25 298.17 C 130.41 292.42 130.09 286.64 130.90 280.93 C 131.57 275.81 130.72 270.65 131.20 265.52 C 131.50 262.02 132.15 258.52 131.99 255.00 C 131.80 252.19 130.47 249.62 130.17 246.85 C 130.39 243.49 132.65 240.58 132.57 237.16 C 132.54 234.15 132.72 231.14 133.42 228.20 C 130.90 226.03 129.02 223.27 127.62 220.27 Z" />
</g>
<g id="#565352fe">
<path fill="#565352" opacity="1.00" d=" M 173.64 232.28 C 173.71 228.31 173.07 223.85 175.81 220.57 C 176.21 223.11 176.56 225.66 176.73 228.23 C 174.35 232.91 177.26 238.73 173.84 243.02 C 173.23 242.96 172.01 242.84 171.40 242.78 C 170.88 241.89 170.37 240.99 169.86 240.10 C 170.64 238.66 169.83 237.11 169.43 235.71 C 168.57 233.24 167.87 230.72 167.22 228.19 L 168.06 227.68 C 169.25 230.83 170.41 234.15 172.97 236.48 C 173.31 235.10 173.72 233.71 173.64 232.28 Z" />
</g>
<g id="#8c888fff">
<path fill="#8c888f" opacity="1.00" d=" M 161.82 223.82 C 162.94 223.18 164.02 222.47 165.11 221.79 C 165.86 223.91 166.59 226.03 167.22 228.19 C 167.87 230.72 168.57 233.24 169.43 235.71 C 169.83 237.11 170.64 238.66 169.86 240.10 C 167.42 241.55 165.06 243.14 162.91 245.01 C 159.31 246.13 155.19 247.18 151.61 245.48 C 149.76 244.72 148.80 242.88 147.69 241.34 C 150.28 241.45 152.92 242.12 155.49 241.58 C 156.93 240.65 158.14 239.40 159.25 238.11 C 161.27 235.95 162.45 233.23 163.48 230.50 C 164.29 230.09 165.10 229.68 165.92 229.27 C 165.16 229.13 163.64 228.84 162.88 228.70 C 163.04 227.05 163.17 225.41 163.28 223.76 C 162.91 223.78 162.18 223.81 161.82 223.82 M 165.03 236.08 L 164.69 236.91 L 165.04 237.75 L 165.88 238.09 L 166.70 237.75 L 167.04 236.92 L 166.69 236.09 L 165.86 235.74 L 165.03 236.08 M 162.23 238.16 L 161.89 239.01 L 162.22 239.85 L 163.04 240.21 L 163.85 239.86 L 164.20 239.01 L 163.87 238.17 L 163.05 237.81 L 162.23 238.16 Z" />
</g>
<g id="#f8f2f5ff">
<path fill="#f8f2f5" opacity="1.00" d=" M 169.71 223.22 C 170.25 221.51 171.69 223.37 171.91 224.24 L 171.81 224.99 C 170.56 226.34 169.06 224.58 169.71 223.22 Z" />
</g>
<g id="#beb3abff">
<path fill="#beb3ab" opacity="1.00" d=" M 157.37 223.47 C 158.35 223.58 159.34 223.68 160.33 223.78 C 160.13 225.49 159.92 227.19 159.71 228.90 C 157.74 228.53 155.76 228.16 153.79 227.79 C 155.10 226.45 156.24 224.96 157.37 223.47 Z" />
</g>
<g id="#645f62ff">
<path fill="#645f62" opacity="1.00" d=" M 160.33 223.78 C 160.70 223.79 161.45 223.81 161.82 223.82 C 162.18 223.81 162.91 223.78 163.28 223.76 C 163.17 225.41 163.04 227.05 162.88 228.70 C 163.64 228.84 165.16 229.13 165.92 229.27 C 165.10 229.68 164.29 230.09 163.48 230.50 C 162.45 233.23 161.27 235.95 159.25 238.11 C 159.55 236.72 159.80 235.32 160.06 233.93 C 153.06 233.26 145.82 233.25 139.21 230.54 C 137.16 229.45 135.44 227.84 133.96 226.07 C 136.73 227.69 139.51 229.32 142.44 230.65 C 147.02 232.68 152.15 232.50 157.04 232.38 C 158.63 232.49 160.02 231.81 161.45 231.26 C 157.85 230.74 154.21 230.66 150.60 230.26 C 151.67 229.44 152.75 228.64 153.79 227.79 C 155.76 228.16 157.74 228.53 159.71 228.90 C 159.92 227.19 160.13 225.49 160.33 223.78 Z" />
</g>
<g id="#00000019">
<path fill="#000000" opacity="0.10" d=" M 139.21 230.54 C 145.82 233.25 153.06 233.26 160.06 233.93 C 159.80 235.32 159.55 236.72 159.25 238.11 C 158.14 239.40 156.93 240.65 155.49 241.58 C 152.92 242.12 150.28 241.45 147.69 241.34 C 148.80 242.88 149.76 244.72 151.61 245.48 C 155.19 247.18 159.31 246.13 162.91 245.01 C 160.85 246.90 158.79 248.83 157.11 251.09 C 153.91 255.31 154.86 261.29 151.30 265.33 C 151.69 266.54 152.09 267.74 152.50 268.95 C 149.95 275.09 151.11 281.94 148.92 288.15 C 148.01 291.21 146.22 293.91 145.11 296.89 C 145.06 299.75 145.40 302.66 144.20 305.38 C 144.65 305.47 145.53 305.64 145.97 305.72 C 145.60 306.74 145.22 307.76 144.85 308.79 C 142.79 307.61 140.83 306.27 138.97 304.80 C 140.19 303.26 141.44 301.74 142.71 300.24 C 141.16 299.29 139.61 298.35 138.07 297.40 C 139.51 295.03 141.25 292.66 141.61 289.83 C 141.48 287.32 139.26 285.31 139.32 282.75 C 139.73 281.62 140.76 280.88 141.51 279.98 C 140.09 277.81 139.10 275.41 138.54 272.88 C 138.16 272.70 137.40 272.34 137.02 272.15 C 137.87 269.84 139.03 267.52 138.87 265.00 C 138.60 259.83 138.85 254.66 138.48 249.50 C 138.24 245.97 140.31 242.53 138.99 239.05 C 138.09 236.23 137.76 233.25 139.21 230.54 Z" />
</g>
<g id="#afa9afff">
<path fill="#afa9af" opacity="1.00" d=" M 165.03 236.08 L 165.86 235.74 L 166.69 236.09 L 167.04 236.92 L 166.70 237.75 L 165.88 238.09 L 165.04 237.75 L 164.69 236.91 L 165.03 236.08 Z" />
</g>
<g id="#c5bfc5ff">
<path fill="#c5bfc5" opacity="1.00" d=" M 162.23 238.16 L 163.05 237.81 L 163.87 238.17 L 164.20 239.01 L 163.85 239.86 L 163.04 240.21 L 162.22 239.85 L 161.89 239.01 L 162.23 238.16 Z" />
</g>
</svg>
