<?xml version="1.0" encoding="UTF-8" ?>
<!DOCTYPE svg PUBLIC "-//W3C//DTD SVG 1.1//EN" "http://www.w3.org/Graphics/SVG/1.1/DTD/svg11.dtd">
<svg width="384pt" height="384pt" viewBox="0 0 384 384" version="1.1" xmlns="http://www.w3.org/2000/svg">
<g id="#9c8983ff">
<path fill="#9c8983" opacity="1.00" d=" M 198.59 142.79 C 200.77 142.24 203.04 142.69 205.24 142.85 C 209.94 143.41 214.76 143.44 219.30 144.94 C 222.58 145.98 225.81 147.20 229.17 147.98 C 228.40 147.93 226.88 147.84 226.11 147.80 C 227.43 149.85 228.83 151.85 230.09 153.94 C 230.01 158.14 227.84 162.48 229.49 166.57 C 228.42 167.24 227.30 167.84 226.23 168.50 C 224.79 169.60 223.75 171.12 222.53 172.45 C 221.69 172.93 220.83 173.38 219.95 173.79 C 218.02 174.29 216.04 174.69 214.20 175.47 C 212.72 176.66 211.30 177.93 209.78 179.07 C 207.95 179.91 206.04 180.56 204.25 181.50 C 203.72 184.11 204.98 186.65 205.87 189.05 C 204.00 186.99 201.99 185.07 199.82 183.33 C 200.26 183.29 201.13 183.21 201.56 183.17 C 201.44 181.97 201.31 180.78 201.16 179.60 C 202.49 179.14 203.81 178.68 205.15 178.23 C 210.02 176.98 214.11 173.55 216.34 169.07 C 216.88 166.75 217.24 164.39 217.73 162.06 C 217.96 160.98 218.20 159.91 218.45 158.84 C 220.27 163.26 219.01 167.99 218.21 172.48 C 227.29 169.72 230.96 156.58 224.30 149.71 C 219.91 145.58 213.78 144.00 207.92 143.59 C 208.25 144.12 208.89 145.16 209.21 145.69 C 207.07 144.93 204.84 144.45 202.57 144.32 C 199.28 144.56 195.79 144.98 193.11 147.09 C 189.16 150.10 184.98 152.97 181.76 156.80 C 179.75 158.96 179.65 162.00 179.33 164.76 C 179.25 165.37 179.09 166.57 179.01 167.17 C 177.48 165.95 175.91 164.78 174.31 163.65 C 176.31 160.55 178.25 157.40 180.54 154.51 C 183.27 151.12 187.30 149.25 190.91 146.98 C 193.42 145.51 195.81 143.74 198.59 142.79 Z" />
</g>
<g id="#a79892ff">
<path fill="#a79892" opacity="1.00" d=" M 202.57 144.32 C 204.84 144.45 207.07 144.93 209.21 145.69 C 213.39 149.19 216.80 153.59 218.45 158.84 C 218.20 159.91 217.96 160.98 217.73 162.06 C 214.80 156.36 211.41 150.65 206.02 146.93 C 204.88 146.05 203.72 145.19 202.57 144.32 Z" />
</g>
<g id="#363939ff">
<path fill="#363939" opacity="1.00" d=" M 207.92 143.59 C 213.78 144.00 219.91 145.58 224.30 149.71 C 230.96 156.58 227.29 169.72 218.21 172.48 C 219.01 167.99 220.27 163.26 218.45 158.84 C 216.80 153.59 213.39 149.19 209.21 145.69 C 208.89 145.16 208.25 144.12 207.92 143.59 Z" />
</g>
<g id="#3f4242ff">
<path fill="#3f4242" opacity="1.00" d=" M 193.11 147.09 C 195.79 144.98 199.28 144.56 202.57 144.32 C 203.72 145.19 204.88 146.05 206.02 146.93 C 204.21 149.08 202.53 151.35 200.97 153.71 C 201.73 154.31 202.50 154.92 203.27 155.52 C 202.95 156.07 202.30 157.19 201.97 157.75 C 200.32 159.98 198.68 162.30 196.46 164.01 C 194.46 164.01 192.50 163.51 190.51 163.54 C 188.53 164.99 186.92 166.87 185.13 168.54 C 183.23 167.22 181.30 165.96 179.33 164.76 C 179.65 162.00 179.75 158.96 181.76 156.80 C 184.98 152.97 189.16 150.10 193.11 147.09 Z" />
</g>
<g id="#4d555aff">
<path fill="#4d555a" opacity="1.00" d=" M 206.02 146.93 C 211.41 150.65 214.80 156.36 217.73 162.06 C 217.24 164.39 216.88 166.75 216.34 169.07 C 216.12 168.39 215.67 167.02 215.45 166.34 C 214.29 166.26 213.15 166.19 212.00 166.13 C 212.77 164.98 213.63 163.89 214.49 162.82 C 212.18 163.42 209.86 163.95 207.53 164.45 C 204.33 164.80 201.01 164.82 197.98 166.05 C 194.99 167.25 192.62 169.52 189.81 171.03 C 188.06 170.63 186.60 169.50 185.13 168.54 C 186.92 166.87 188.53 164.99 190.51 163.54 C 192.50 163.51 194.46 164.01 196.46 164.01 C 198.68 162.30 200.32 159.98 201.97 157.75 C 203.98 159.81 205.96 156.34 203.27 155.52 C 202.50 154.92 201.73 154.31 200.97 153.71 C 202.53 151.35 204.21 149.08 206.02 146.93 M 206.30 155.27 L 206.29 155.72 L 206.74 155.72 L 206.74 155.27 L 206.30 155.27 M 203.26 159.27 L 203.26 159.72 L 203.71 159.72 L 203.71 159.27 L 203.26 159.27 M 200.19 161.18 L 199.85 162.01 L 200.19 162.83 L 201.02 163.17 L 201.85 162.82 L 202.20 161.99 L 201.85 161.16 L 201.02 160.82 L 200.19 161.18 Z" />
</g>
<g id="#a77155ff">
<path fill="#a77155" opacity="1.00" d=" M 226.11 147.80 C 226.88 147.84 228.40 147.93 229.17 147.98 C 234.36 148.67 239.85 148.65 244.61 151.12 C 241.23 150.46 237.79 150.20 234.37 149.91 C 235.01 153.47 235.65 157.06 235.64 160.70 C 235.50 162.08 235.32 163.47 235.14 164.86 C 236.26 164.86 237.38 164.87 238.51 164.88 C 238.87 165.12 239.61 165.58 239.97 165.81 C 237.87 165.91 235.78 166.00 233.68 166.07 C 233.41 164.93 233.14 163.79 232.85 162.66 C 232.04 159.72 231.22 156.78 230.09 153.94 C 228.83 151.85 227.43 149.85 226.11 147.80 M 229.39 148.62 C 230.80 151.85 232.37 155.01 234.14 158.06 C 233.88 156.30 233.73 154.51 233.16 152.82 C 232.56 150.94 230.79 149.86 229.39 148.62 Z" />
</g>
<g id="#cb8866ff">
<path fill="#cb8866" opacity="1.00" d=" M 229.39 148.62 C 230.79 149.86 232.56 150.94 233.16 152.82 C 233.73 154.51 233.88 156.30 234.14 158.06 C 232.37 155.01 230.80 151.85 229.39 148.62 Z" />
</g>
<g id="#e29975ff">
<path fill="#e29975" opacity="1.00" d=" M 234.37 149.91 C 237.79 150.20 241.23 150.46 244.61 151.12 L 245.29 151.43 C 243.88 152.04 242.46 152.64 241.05 153.24 C 241.80 155.63 242.54 158.02 243.31 160.41 C 244.23 160.43 245.15 160.46 246.08 160.49 C 245.93 160.89 245.63 161.69 245.48 162.09 C 245.39 162.42 245.22 163.08 245.13 163.41 C 244.67 163.30 243.76 163.07 243.30 162.96 C 240.73 162.24 238.19 161.45 235.64 160.70 C 235.65 157.06 235.01 153.47 234.37 149.91 Z" />
</g>
<g id="#f8af88ff">
<path fill="#f8af88" opacity="1.00" d=" M 241.05 153.24 C 242.46 152.64 243.88 152.04 245.29 151.43 C 246.48 152.14 247.65 152.89 248.82 153.64 C 248.61 154.24 248.21 155.43 248.00 156.03 C 247.38 157.52 246.70 158.99 246.08 160.49 C 245.15 160.46 244.23 160.43 243.31 160.41 C 242.54 158.02 241.80 155.63 241.05 153.24 Z" />
</g>
<g id="#555353d7">
<path fill="#555353" opacity="0.84" d=" M 250.71 152.87 C 251.31 152.67 252.52 152.26 253.12 152.05 C 255.61 152.41 256.52 155.23 258.01 156.92 C 257.61 156.77 256.82 156.49 256.43 156.34 C 254.25 155.70 252.34 154.42 250.71 152.87 Z" />
</g>
<g id="#ccc5c6fe">
<path fill="#ccc5c6" opacity="1.00" d=" M 248.82 153.64 C 249.29 153.45 250.24 153.06 250.71 152.87 C 250.61 154.95 250.51 157.02 250.41 159.10 C 249.51 159.40 248.61 159.71 247.72 160.02 C 247.79 158.69 247.89 157.35 248.00 156.03 C 248.21 155.43 248.61 154.24 248.82 153.64 Z" />
</g>
<g id="#9d9697ff">
<path fill="#9d9697" opacity="1.00" d=" M 250.71 152.87 C 252.34 154.42 254.25 155.70 256.43 156.34 C 254.95 157.80 253.51 159.29 252.09 160.80 C 253.04 160.96 253.99 161.13 254.95 161.30 C 255.23 160.63 255.52 159.97 255.80 159.30 C 256.64 159.44 257.48 159.58 258.32 159.72 C 258.50 161.15 258.51 162.59 258.33 164.02 C 258.35 163.62 258.38 162.82 258.40 162.42 C 257.46 162.85 256.53 163.28 255.60 163.72 C 254.26 164.33 252.89 164.90 251.53 165.44 C 250.91 164.21 250.25 163.00 249.60 161.79 C 248.22 161.90 246.85 162.00 245.48 162.09 C 245.63 161.69 245.93 160.89 246.08 160.49 C 246.70 158.99 247.38 157.52 248.00 156.03 C 247.89 157.35 247.79 158.69 247.72 160.02 C 248.61 159.71 249.51 159.40 250.41 159.10 C 250.51 157.02 250.61 154.95 250.71 152.87 Z" />
</g>
<g id="#c78a6aff">
<path fill="#c78a6a" opacity="1.00" d=" M 230.09 153.94 C 231.22 156.78 232.04 159.72 232.85 162.66 C 231.77 164.00 230.68 165.33 229.49 166.57 C 227.84 162.48 230.01 158.14 230.09 153.94 Z" />
</g>
<g id="#8e9596ff">
<path fill="#8e9596" opacity="1.00" d=" M 206.30 155.27 L 206.74 155.27 L 206.74 155.72 L 206.29 155.72 L 206.30 155.27 Z" />
</g>
<g id="#6f7373ff">
<path fill="#6f7373" opacity="1.00" d=" M 201.97 157.75 C 202.30 157.19 202.95 156.07 203.27 155.52 C 205.96 156.34 203.98 159.81 201.97 157.75 Z" />
</g>
<g id="#b4b0b0ff">
<path fill="#b4b0b0" opacity="1.00" d=" M 252.09 160.80 C 253.51 159.29 254.95 157.80 256.43 156.34 C 257.06 157.46 257.71 158.58 258.32 159.72 C 257.48 159.58 256.64 159.44 255.80 159.30 C 255.52 159.97 255.23 160.63 254.95 161.30 C 253.99 161.13 253.04 160.96 252.09 160.80 Z" />
</g>
<g id="#888486ff">
<path fill="#888486" opacity="1.00" d=" M 256.43 156.34 C 256.82 156.49 257.61 156.77 258.01 156.92 C 261.41 159.11 264.70 161.60 267.05 164.95 C 269.80 168.80 273.07 172.29 277.03 174.91 C 279.45 177.32 281.79 179.83 284.49 181.93 C 283.59 183.73 282.67 185.52 281.61 187.22 L 280.81 187.38 C 282.07 184.65 277.23 184.11 278.11 187.08 C 273.76 185.13 269.78 182.48 265.47 180.47 C 264.88 177.67 264.55 174.80 263.63 172.08 C 262.57 170.93 260.95 171.81 259.65 171.83 C 259.78 171.04 259.90 170.25 260.01 169.47 L 260.04 169.29 C 259.98 169.27 259.85 169.23 259.79 169.21 C 259.02 168.95 258.25 168.72 257.47 168.52 C 257.79 167.02 258.13 165.53 258.33 164.02 C 258.51 162.59 258.50 161.15 258.32 159.72 C 257.71 158.58 257.06 157.46 256.43 156.34 M 269.36 171.52 C 268.20 171.79 267.50 173.50 268.35 174.42 C 269.92 175.20 271.19 171.73 269.36 171.52 M 267.46 179.82 C 270.10 180.02 272.75 180.02 275.41 179.91 C 275.22 178.21 274.85 176.54 274.27 174.93 C 272.15 176.76 269.65 178.09 267.46 179.82 M 273.62 181.28 C 272.79 182.83 275.43 184.44 276.66 183.44 C 277.54 181.86 274.86 180.17 273.62 181.28 Z" />
</g>
<g id="#9ea4a6ff">
<path fill="#9ea4a6" opacity="1.00" d=" M 203.26 159.27 L 203.71 159.27 L 203.71 159.72 L 203.26 159.72 L 203.26 159.27 Z" />
</g>
<g id="#8a8d8cff">
<path fill="#8a8d8c" opacity="1.00" d=" M 200.19 161.18 L 201.02 160.82 L 201.85 161.16 L 202.20 161.99 L 201.85 162.82 L 201.02 163.17 L 200.19 162.83 L 199.85 162.01 L 200.19 161.18 Z" />
</g>
<g id="#c98d70ff">
<path fill="#c98d70" opacity="1.00" d=" M 235.14 164.86 C 235.32 163.47 235.50 162.08 235.64 160.70 C 238.19 161.45 240.73 162.24 243.30 162.96 C 241.68 163.56 240.11 164.26 238.51 164.88 C 237.38 164.87 236.26 164.86 235.14 164.86 Z" />
</g>
<g id="#706b6dff">
<path fill="#706b6d" opacity="1.00" d=" M 245.48 162.09 C 246.85 162.00 248.22 161.90 249.60 161.79 C 250.25 163.00 250.91 164.21 251.53 165.44 C 251.54 166.92 251.57 168.43 251.19 169.87 C 250.56 171.13 249.22 171.83 248.18 172.72 C 246.93 171.38 245.66 170.05 244.29 168.83 L 243.76 168.39 C 244.09 168.27 244.74 168.01 245.07 167.88 C 245.11 166.39 245.08 164.90 245.13 163.41 C 245.22 163.08 245.39 162.42 245.48 162.09 Z" />
</g>
<g id="#bbb6b9ff">
<path fill="#bbb6b9" opacity="1.00" d=" M 255.60 163.72 C 256.53 163.28 257.46 162.85 258.40 162.42 C 258.38 162.82 258.35 163.62 258.33 164.02 C 258.13 165.53 257.79 167.02 257.47 168.52 C 256.89 168.45 255.72 168.30 255.14 168.23 C 255.30 166.73 255.45 165.22 255.60 163.72 Z" />
</g>
<g id="#7c7a7aff">
<path fill="#7c7a7a" opacity="1.00" d=" M 207.53 164.45 C 209.86 163.95 212.18 163.42 214.49 162.82 C 213.63 163.89 212.77 164.98 212.00 166.13 C 210.07 170.78 204.23 170.71 200.98 173.99 C 199.76 174.98 199.81 176.67 199.46 178.06 C 198.53 179.26 197.59 180.45 196.72 181.69 C 196.57 181.98 196.26 182.55 196.11 182.84 C 197.53 185.16 199.22 187.32 200.44 189.75 C 201.45 191.80 201.54 194.13 201.87 196.35 C 201.49 196.21 200.74 195.94 200.36 195.80 C 199.42 194.34 198.60 192.82 197.80 191.29 C 196.33 193.74 194.09 195.54 191.75 197.12 C 191.48 195.57 191.20 194.02 190.93 192.47 C 189.69 193.01 188.46 193.54 187.23 194.07 C 187.46 193.51 187.91 192.40 188.14 191.84 C 188.35 191.32 188.77 190.29 188.98 189.77 C 190.78 190.32 192.13 186.93 189.71 187.26 C 189.37 187.52 188.68 188.04 188.34 188.30 L 188.12 187.51 C 187.73 186.12 187.37 184.72 187.02 183.32 C 187.46 182.38 187.90 181.45 188.34 180.51 C 188.76 180.84 189.60 181.50 190.02 181.84 L 190.71 182.34 L 191.57 182.12 L 192.01 181.29 C 191.84 180.88 191.52 180.05 191.36 179.63 C 191.17 179.33 190.80 178.73 190.62 178.43 C 194.07 177.26 196.77 174.81 199.25 172.23 C 201.27 171.38 203.37 170.70 205.34 169.70 C 205.19 168.60 204.23 167.91 203.59 167.10 C 204.90 166.20 206.19 165.30 207.53 164.45 M 192.29 184.22 L 192.29 184.67 L 192.74 184.67 L 192.74 184.22 L 192.29 184.22 M 196.27 187.23 L 196.27 187.67 L 196.72 187.67 L 196.72 187.22 L 196.27 187.23 Z" />
</g>
<g id="#1a1a19fe">
<path fill="#1a1a19" opacity="1.00" d=" M 232.85 162.66 C 233.14 163.79 233.41 164.93 233.68 166.07 C 235.78 166.00 237.87 165.91 239.97 165.81 C 241.24 166.66 242.50 167.52 243.76 168.39 L 244.29 168.83 C 243.42 171.86 243.06 175.02 243.61 178.14 C 239.62 176.60 235.58 175.18 231.54 173.76 C 231.65 171.96 231.76 170.17 231.88 168.38 C 229.99 168.36 228.11 168.34 226.23 168.50 C 227.30 167.84 228.42 167.24 229.49 166.57 C 230.68 165.33 231.77 164.00 232.85 162.66 M 233.92 172.88 C 236.04 172.81 238.13 172.48 240.15 171.83 C 239.64 170.68 239.52 169.27 238.59 168.35 C 235.80 167.69 234.27 170.57 233.92 172.88 Z" />
</g>
<g id="#b0a39dff">
<path fill="#b0a39d" opacity="1.00" d=" M 238.51 164.88 C 240.11 164.26 241.68 163.56 243.30 162.96 C 243.76 163.07 244.67 163.30 245.13 163.41 C 245.08 164.90 245.11 166.39 245.07 167.88 C 244.74 168.01 244.09 168.27 243.76 168.39 C 242.50 167.52 241.24 166.66 239.97 165.81 C 239.61 165.58 238.87 165.12 238.51 164.88 Z" />
</g>
<g id="#dc9b7aff">
<path fill="#dc9b7a" opacity="1.00" d=" M 174.31 163.65 C 175.91 164.78 177.48 165.95 179.01 167.17 C 180.07 168.03 181.14 168.89 182.24 169.70 C 178.77 172.81 175.35 175.99 171.78 178.99 L 171.16 178.73 C 169.46 178.03 167.72 177.41 165.99 176.80 C 167.47 176.37 168.94 175.93 170.42 175.48 C 170.63 173.42 170.83 171.36 171.15 169.31 C 172.14 167.39 173.19 165.50 174.31 163.65 Z" />
</g>
<g id="#9e9b9eff">
<path fill="#9e9b9e" opacity="1.00" d=" M 197.98 166.05 C 201.01 164.82 204.33 164.80 207.53 164.45 C 206.19 165.30 204.90 166.20 203.59 167.10 C 204.23 167.91 205.19 168.60 205.34 169.70 C 203.37 170.70 201.27 171.38 199.25 172.23 C 199.18 171.72 199.06 170.69 199.00 170.17 C 195.33 171.63 190.06 173.54 190.62 178.43 C 190.80 178.73 191.17 179.33 191.36 179.63 L 190.55 180.00 C 190.42 180.46 190.16 181.38 190.02 181.84 C 189.60 181.50 188.76 180.84 188.34 180.51 C 187.90 181.45 187.46 182.38 187.02 183.32 C 184.89 183.13 182.77 182.92 180.65 182.72 C 181.74 184.76 182.91 186.75 184.17 188.69 C 185.48 188.29 186.80 187.90 188.12 187.51 L 188.34 188.30 C 188.50 188.67 188.82 189.40 188.98 189.77 C 188.77 190.29 188.35 191.32 188.14 191.84 C 185.73 191.05 183.38 190.07 181.14 188.88 C 180.61 189.24 180.08 189.60 179.56 189.97 C 180.16 191.54 180.79 193.12 181.43 194.69 C 180.08 195.45 178.74 196.22 177.37 196.95 C 176.35 197.40 175.30 197.80 174.25 198.16 C 173.83 197.96 173.00 197.57 172.58 197.38 L 172.87 196.89 C 173.17 196.41 173.48 195.94 173.79 195.48 C 173.52 193.48 173.45 191.45 173.63 189.44 C 175.85 188.08 179.27 187.04 179.27 183.90 L 178.93 183.30 C 179.90 182.56 180.75 181.52 180.84 180.26 C 182.56 180.09 184.39 180.15 186.00 179.41 C 187.78 178.20 187.79 175.85 187.86 173.93 C 186.91 173.10 185.93 172.30 184.94 171.54 C 184.04 170.92 183.13 170.32 182.24 169.70 C 181.14 168.89 180.07 168.03 179.01 167.17 C 179.09 166.57 179.25 165.37 179.33 164.76 C 181.30 165.96 183.23 167.22 185.13 168.54 C 186.60 169.50 188.06 170.63 189.81 171.03 C 192.62 169.52 194.99 167.25 197.98 166.05 M 175.14 190.19 L 174.70 190.89 L 175.09 191.62 L 175.92 191.65 L 176.35 190.95 L 175.96 190.22 L 175.14 190.19 Z" />
</g>
<g id="#827f82ff">
<path fill="#827f82" opacity="1.00" d=" M 251.53 165.44 C 252.89 164.90 254.26 164.33 255.60 163.72 C 255.45 165.22 255.30 166.73 255.14 168.23 C 255.72 168.30 256.89 168.45 257.47 168.52 C 258.25 168.72 259.02 168.95 259.79 169.21 L 260.01 169.47 C 259.90 170.25 259.78 171.04 259.65 171.83 C 259.54 172.47 259.31 173.75 259.20 174.39 C 257.71 174.56 256.22 174.75 254.74 174.87 C 252.86 174.50 250.98 174.15 249.13 173.72 C 248.89 173.47 248.41 172.97 248.18 172.72 C 249.22 171.83 250.56 171.13 251.19 169.87 C 251.57 168.43 251.54 166.92 251.53 165.44 Z" />
</g>
<g id="#363838ff">
<path fill="#363838" opacity="1.00" d=" M 212.00 166.13 C 213.15 166.19 214.29 166.26 215.45 166.34 C 215.67 167.02 216.12 168.39 216.34 169.07 C 214.11 173.55 210.02 176.98 205.15 178.23 C 203.25 178.23 201.35 178.14 199.46 178.06 C 199.81 176.67 199.76 174.98 200.98 173.99 C 204.23 170.71 210.07 170.78 212.00 166.13 Z" />
</g>
<g id="#000000c1">
<path fill="#000000" opacity="0.76" d=" M 226.23 168.50 C 228.11 168.34 229.99 168.36 231.88 168.38 C 231.76 170.17 231.65 171.96 231.54 173.76 C 231.10 174.09 230.22 174.73 229.78 175.06 C 235.95 177.56 242.18 179.89 248.12 182.92 C 251.02 184.33 254.23 185.27 256.73 187.37 C 258.55 189.96 258.47 193.34 259.76 196.18 C 261.13 197.45 262.82 198.31 264.43 199.26 C 263.91 201.50 263.39 203.73 262.87 205.97 C 265.65 207.29 268.45 208.56 271.34 209.61 C 271.50 210.26 271.80 211.57 271.95 212.22 C 268.62 211.66 265.28 211.13 261.93 210.65 C 263.81 215.72 265.97 220.69 268.37 225.54 C 269.42 227.43 270.47 229.74 272.72 230.43 C 278.21 232.30 284.08 231.28 289.70 230.64 L 290.54 230.55 C 289.71 231.38 288.89 232.23 288.07 233.08 C 281.89 234.08 275.51 233.86 269.67 231.46 C 267.51 224.98 264.24 218.98 261.35 212.83 C 260.45 211.10 259.60 209.17 257.88 208.11 C 253.81 205.47 248.81 204.82 244.70 202.28 C 242.56 197.83 242.18 192.63 239.42 188.47 C 237.10 186.22 233.75 185.70 230.78 184.79 C 231.60 186.56 232.49 188.31 233.21 190.13 C 233.29 192.92 232.65 195.69 231.12 198.04 C 231.98 195.40 232.24 192.58 231.78 189.84 C 230.95 187.84 229.95 185.91 228.65 184.18 C 228.42 183.86 227.97 183.23 227.74 182.91 C 225.50 179.70 224.11 176.01 222.53 172.45 C 223.75 171.12 224.79 169.60 226.23 168.50 M 230.92 177.09 C 230.71 178.36 230.50 179.64 230.30 180.91 C 235.14 183.49 240.44 186.22 246.10 184.74 C 241.89 180.76 236.28 178.93 230.92 177.09 Z" />
</g>
<g id="#8f8ea0ff">
<path fill="#8f8ea0" opacity="1.00" d=" M 233.92 172.88 C 234.27 170.57 235.80 167.69 238.59 168.35 C 239.52 169.27 239.64 170.68 240.15 171.83 C 238.13 172.48 236.04 172.81 233.92 172.88 Z" />
</g>
<g id="#2321217c">
<path fill="#232121" opacity="0.49" d=" M 315.44 173.58 C 319.25 171.95 322.65 169.14 326.87 168.62 C 326.35 168.91 325.31 169.50 324.79 169.79 C 325.11 169.98 325.76 170.35 326.09 170.54 C 316.45 173.53 307.61 178.53 298.61 182.99 C 299.65 184.07 300.70 185.16 301.80 186.20 C 299.74 184.99 297.64 183.87 295.47 182.91 C 292.19 181.49 288.59 182.03 285.15 182.26 L 284.49 181.93 C 281.79 179.83 279.45 177.32 277.03 174.91 C 280.07 176.51 282.82 178.56 285.64 180.51 C 287.22 181.68 289.29 181.11 291.10 181.05 C 292.12 180.89 293.15 180.72 294.18 180.54 C 295.68 181.38 297.45 182.17 299.15 181.35 C 304.81 179.28 309.93 176.00 315.44 173.58 Z" />
</g>
<g id="#72574cfe">
<path fill="#72574c" opacity="1.00" d=" M 164.28 174.14 C 166.93 173.13 169.32 171.49 171.15 169.31 C 170.83 171.36 170.63 173.42 170.42 175.48 C 168.94 175.93 167.47 176.37 165.99 176.80 C 165.18 179.57 164.74 182.49 165.65 185.30 C 165.28 186.26 164.94 187.23 164.57 188.20 C 163.92 186.63 163.26 185.07 162.59 183.52 C 162.70 182.92 162.91 181.71 163.02 181.11 C 163.46 178.79 163.88 176.46 164.28 174.14 Z" />
</g>
<g id="#010101c2">
<path fill="#010101" opacity="0.76" d=" M 244.29 168.83 C 245.66 170.05 246.93 171.38 248.18 172.72 C 248.41 172.97 248.89 173.47 249.13 173.72 C 251.84 176.81 254.87 179.79 258.69 181.48 C 260.09 182.18 261.69 181.68 263.17 181.59 C 262.56 180.59 261.94 179.61 261.30 178.63 C 262.22 179.05 263.15 179.46 264.09 179.85 C 264.30 180.44 264.72 181.62 264.93 182.21 C 264.33 182.43 263.13 182.88 262.52 183.11 C 259.27 183.18 256.01 182.93 252.86 182.07 C 249.86 180.57 246.76 179.30 243.61 178.14 C 243.06 175.02 243.42 171.86 244.29 168.83 Z" />
</g>
<g id="#c8c1bdff">
<path fill="#c8c1bd" opacity="1.00" d=" M 259.79 169.21 C 259.85 169.23 259.98 169.27 260.04 169.29 L 260.01 169.47 L 259.79 169.21 Z" />
</g>
<g id="#282b30e5">
<path fill="#282b30" opacity="0.90" d=" M 324.79 169.79 C 325.31 169.50 326.35 168.91 326.87 168.62 C 327.40 168.90 328.48 169.45 329.01 169.73 C 330.98 170.83 332.95 171.95 334.87 173.15 C 339.40 176.23 343.41 180.14 346.25 184.85 C 345.97 185.42 345.41 186.56 345.14 187.12 C 340.29 180.09 333.70 174.39 326.09 170.54 C 325.76 170.35 325.11 169.98 324.79 169.79 Z" />
</g>
<g id="#746e6dff">
<path fill="#746e6d" opacity="1.00" d=" M 182.24 169.70 C 183.13 170.32 184.04 170.92 184.94 171.54 C 182.05 171.99 179.51 173.41 177.74 175.75 C 181.26 176.38 185.01 176.43 187.86 173.93 C 187.79 175.85 187.78 178.20 186.00 179.41 C 184.39 180.15 182.56 180.09 180.84 180.26 C 180.42 180.27 179.58 180.30 179.16 180.31 C 176.61 180.59 174.06 180.16 171.78 178.99 C 175.35 175.99 178.77 172.81 182.24 169.70 Z" />
</g>
<g id="#efe8e9ff">
<path fill="#efe8e9" opacity="1.00" d=" M 190.62 178.43 C 190.06 173.54 195.33 171.63 199.00 170.17 C 199.06 170.69 199.18 171.72 199.25 172.23 C 196.77 174.81 194.07 177.26 190.62 178.43 Z" />
</g>
<g id="#07080875">
<path fill="#070808" opacity="0.46" d=" M 329.01 169.73 C 331.01 170.78 332.99 171.88 334.87 173.15 C 332.95 171.95 330.98 170.83 329.01 169.73 Z" />
</g>
<g id="#706c6eff">
<path fill="#706c6e" opacity="1.00" d=" M 259.65 171.83 C 260.95 171.81 262.57 170.93 263.63 172.08 C 264.55 174.80 264.88 177.67 265.47 180.47 C 265.13 180.31 264.43 180.01 264.09 179.85 C 263.15 179.46 262.22 179.05 261.30 178.63 C 259.12 177.37 256.96 176.05 254.74 174.87 C 256.22 174.75 257.71 174.56 259.20 174.39 C 259.31 173.75 259.54 172.47 259.65 171.83 Z" />
</g>
<g id="#a5a2a2ff">
<path fill="#a5a2a2" opacity="1.00" d=" M 269.36 171.52 C 271.19 171.73 269.92 175.20 268.35 174.42 C 267.50 173.50 268.20 171.79 269.36 171.52 Z" />
</g>
<g id="#6c6a6dff">
<path fill="#6c6a6d" opacity="1.00" d=" M 130.97 174.98 C 135.30 172.69 140.44 171.58 145.25 172.91 C 148.68 173.81 151.55 176.10 154.97 177.02 C 158.19 176.51 161.22 175.21 164.28 174.14 C 163.88 176.46 163.46 178.79 163.02 181.11 C 161.37 181.16 159.73 181.21 158.08 181.25 C 157.98 180.65 157.78 179.45 157.68 178.85 L 157.16 178.33 C 156.63 178.56 155.57 179.01 155.04 179.23 C 151.73 176.97 148.28 174.80 144.38 173.73 C 143.48 173.73 141.68 173.74 140.78 173.74 C 137.48 173.93 134.20 174.33 130.97 174.98 Z" />
</g>
<g id="#de9674ff">
<path fill="#de9674" opacity="1.00" d=" M 177.74 175.75 C 179.51 173.41 182.05 171.99 184.94 171.54 C 185.93 172.30 186.91 173.10 187.86 173.93 C 185.01 176.43 181.26 176.38 177.74 175.75 Z" />
</g>
<g id="#322318fe">
<path fill="#322318" opacity="1.00" d=" M 219.95 173.79 C 220.83 173.38 221.69 172.93 222.53 172.45 C 224.11 176.01 225.50 179.70 227.74 182.91 C 225.42 183.45 223.14 184.18 220.87 184.88 C 220.88 184.47 220.91 183.66 220.93 183.25 C 220.91 180.07 220.45 176.92 219.95 173.79 Z" />
</g>
<g id="#7d7a80ff">
<path fill="#7d7a80" opacity="1.00" d=" M 130.97 174.98 C 134.20 174.33 137.48 173.93 140.78 173.74 C 140.66 175.73 140.61 177.74 140.63 179.74 C 142.49 178.16 144.59 176.43 144.38 173.73 C 148.28 174.80 151.73 176.97 155.04 179.23 C 151.22 181.02 147.43 182.90 143.85 185.13 C 143.06 185.66 142.29 186.22 141.56 186.82 C 138.71 183.77 134.63 181.15 130.29 182.08 C 127.84 183.34 126.49 185.93 124.85 188.02 C 125.44 186.01 126.05 183.65 124.07 182.20 C 125.61 179.20 127.89 176.47 130.97 174.98 M 132.27 176.69 C 130.04 177.54 128.40 179.33 126.81 181.03 C 130.69 181.10 135.13 181.17 138.23 178.44 C 138.70 177.54 138.96 176.56 139.29 175.61 C 136.94 175.83 134.51 175.85 132.27 176.69 M 147.17 175.94 C 145.79 177.15 144.78 178.72 143.71 180.20 C 145.36 181.67 147.66 181.97 149.31 180.28 C 151.71 179.00 149.55 174.89 147.17 175.94 Z" />
</g>
<g id="#aeaab0ff">
<path fill="#aeaab0" opacity="1.00" d=" M 140.78 173.74 C 141.68 173.74 143.48 173.73 144.38 173.73 C 144.59 176.43 142.49 178.16 140.63 179.74 C 140.61 177.74 140.66 175.73 140.78 173.74 Z" />
</g>
<g id="#947560ff">
<path fill="#947560" opacity="1.00" d=" M 214.20 175.47 C 216.04 174.69 218.02 174.29 219.95 173.79 C 220.45 176.92 220.91 180.07 220.93 183.25 C 220.56 183.12 219.84 182.85 219.48 182.72 C 217.88 180.19 216.16 177.73 214.20 175.47 Z" />
</g>
<g id="#828284fe">
<path fill="#828284" opacity="1.00" d=" M 229.78 175.06 C 230.22 174.73 231.10 174.09 231.54 173.76 C 235.58 175.18 239.62 176.60 243.61 178.14 C 246.76 179.30 249.86 180.57 252.86 182.07 C 253.67 182.74 254.47 183.43 255.27 184.13 C 252.86 183.84 250.46 183.51 248.12 182.92 C 242.18 179.89 235.95 177.56 229.78 175.06 Z" />
</g>
<g id="#00000010">
<path fill="#000000" opacity="0.06" d=" M 249.13 173.72 C 250.98 174.15 252.86 174.50 254.74 174.87 C 256.96 176.05 259.12 177.37 261.30 178.63 C 261.94 179.61 262.56 180.59 263.17 181.59 C 261.69 181.68 260.09 182.18 258.69 181.48 C 254.87 179.79 251.84 176.81 249.13 173.72 Z" />
</g>
<g id="#beb9beff">
<path fill="#beb9be" opacity="1.00" d=" M 132.27 176.69 C 134.51 175.85 136.94 175.83 139.29 175.61 C 138.96 176.56 138.70 177.54 138.23 178.44 C 135.13 181.17 130.69 181.10 126.81 181.03 C 128.40 179.33 130.04 177.54 132.27 176.69 Z" />
</g>
<g id="#b0acafff">
<path fill="#b0acaf" opacity="1.00" d=" M 267.46 179.82 C 269.65 178.09 272.15 176.76 274.27 174.93 C 274.85 176.54 275.22 178.21 275.41 179.91 C 272.75 180.02 270.10 180.02 267.46 179.82 Z" />
</g>
<g id="#01000086">
<path fill="#010000" opacity="0.53" d=" M 283.85 176.07 C 287.99 174.55 291.09 178.48 294.18 180.54 C 293.15 180.72 292.12 180.89 291.10 181.05 C 288.66 179.42 286.21 177.80 283.85 176.07 Z" />
</g>
<g id="#afabb2ff">
<path fill="#afabb2" opacity="1.00" d=" M 147.17 175.94 C 149.55 174.89 151.71 179.00 149.31 180.28 C 147.66 181.97 145.36 181.67 143.71 180.20 C 144.78 178.72 145.79 177.15 147.17 175.94 Z" />
</g>
<g id="#c58a6dff">
<path fill="#c58a6d" opacity="1.00" d=" M 209.78 179.07 C 211.30 177.93 212.72 176.66 214.20 175.47 C 216.16 177.73 217.88 180.19 219.48 182.72 C 219.35 185.68 219.32 188.69 218.49 191.55 C 217.33 195.35 213.98 198.23 213.64 202.31 C 213.54 204.46 212.40 206.28 211.08 207.91 C 211.20 205.68 211.38 203.46 211.64 201.25 C 212.10 197.61 212.56 193.97 213.34 190.39 C 213.82 188.58 214.39 186.80 214.94 185.01 L 214.10 184.93 C 213.07 184.80 212.04 184.67 211.02 184.52 C 210.61 182.70 210.20 180.89 209.78 179.07 Z" />
</g>
<g id="#f0ab85ff">
<path fill="#f0ab85" opacity="1.00" d=" M 165.99 176.80 C 167.72 177.41 169.46 178.03 171.16 178.73 C 169.18 180.79 167.26 182.93 165.65 185.30 C 164.74 182.49 165.18 179.57 165.99 176.80 Z" />
</g>
<g id="#0000000d">
<path fill="#000000" opacity="0.05" d=" M 230.92 177.09 C 236.28 178.93 241.89 180.76 246.10 184.74 C 240.44 186.22 235.14 183.49 230.30 180.91 C 230.50 179.64 230.71 178.36 230.92 177.09 Z" />
<path fill="#000000" opacity="0.05" d=" M 127.20 224.80 C 131.27 224.63 135.05 226.16 138.79 227.54 C 143.47 229.22 148.42 229.95 153.26 231.02 C 151.77 233.57 150.30 237.04 146.93 237.35 C 144.20 237.21 141.61 236.21 139.01 235.46 C 139.33 236.29 139.66 237.12 140.00 237.95 L 140.32 238.67 C 141.32 240.94 142.35 243.24 142.74 245.72 C 143.29 249.88 145.74 253.54 145.76 257.81 C 146.77 258.18 147.79 258.55 148.80 258.92 C 150.80 254.92 151.99 250.50 154.44 246.73 C 156.80 244.31 159.44 242.14 161.20 239.20 C 162.14 238.03 163.09 236.87 164.05 235.72 C 164.71 237.28 165.36 238.85 166.07 240.40 C 167.03 242.22 168.62 243.58 170.62 244.14 C 171.84 243.78 173.05 243.38 174.26 242.98 C 174.52 240.22 174.90 237.47 175.39 234.74 C 177.52 234.80 179.66 234.78 181.80 234.74 C 182.31 235.02 182.80 235.32 183.29 235.64 C 185.22 235.70 187.44 235.26 189.05 236.59 C 189.68 242.99 189.29 249.65 186.14 255.40 C 187.20 255.55 188.26 255.70 189.32 255.86 C 188.29 258.40 187.02 260.84 185.49 263.12 C 186.37 263.88 187.25 264.66 188.13 265.43 C 187.26 266.32 186.38 267.22 185.51 268.11 C 186.52 272.61 185.56 277.16 184.40 281.53 C 183.42 281.72 182.43 281.92 181.45 282.13 C 182.59 283.17 183.78 284.18 184.76 285.39 C 185.06 287.23 184.16 289.00 183.76 290.76 C 182.86 293.51 182.52 296.38 182.20 299.25 C 181.83 302.67 180.14 305.78 179.86 309.22 C 179.48 313.26 179.71 317.36 178.74 321.33 C 178.11 323.84 178.41 326.43 178.51 328.99 C 178.71 332.92 176.83 336.56 176.51 340.44 C 176.29 343.58 178.05 346.73 176.91 349.82 C 175.51 354.19 173.71 358.42 171.56 362.48 C 173.00 362.72 174.44 362.98 175.88 363.25 C 172.82 369.89 171.32 377.11 168.95 384.00 L 122.63 384.00 C 122.31 380.50 122.31 376.97 122.58 373.47 C 123.66 373.90 124.74 374.32 125.83 374.76 C 125.49 371.84 124.19 369.18 121.88 367.32 C 123.10 363.51 125.03 359.99 126.56 356.31 C 127.67 353.99 126.62 351.50 126.26 349.15 C 125.64 346.09 126.76 342.99 126.31 339.93 C 125.67 338.56 124.55 337.52 123.56 336.42 C 125.87 334.19 129.69 331.79 128.68 328.05 C 127.86 324.52 127.72 320.84 128.40 317.27 C 128.93 314.54 130.85 312.26 131.20 309.49 C 130.64 307.36 129.25 305.54 128.82 303.37 C 128.56 299.51 130.64 295.16 127.82 291.83 C 127.89 289.65 127.91 287.47 127.88 285.29 C 130.01 281.02 130.18 276.18 130.25 271.51 C 130.37 269.45 129.41 267.58 128.61 265.75 C 129.22 264.85 129.84 263.97 130.45 263.09 C 128.30 260.96 126.73 258.34 126.16 255.35 C 126.53 255.02 127.28 254.36 127.65 254.03 C 128.87 255.42 130.09 256.80 131.35 258.16 C 131.27 254.83 130.19 251.66 129.64 248.40 C 129.43 245.12 130.43 241.88 130.10 238.59 C 129.83 235.82 130.10 233.04 130.85 230.36 C 129.52 230.76 128.20 231.15 126.88 231.55 C 127.03 229.30 127.13 227.05 127.20 224.80 Z" />
</g>
<g id="#f9f5f2ff">
<path fill="#f9f5f2" opacity="1.00" d=" M 155.04 179.23 C 155.57 179.01 156.63 178.56 157.16 178.33 C 156.47 179.64 155.78 180.95 155.11 182.26 C 155.50 183.50 155.90 184.75 156.19 186.02 C 152.82 185.15 149.36 185.68 146.08 186.63 C 145.33 186.13 144.59 185.63 143.85 185.13 C 147.43 182.90 151.22 181.02 155.04 179.23 Z" />
</g>
<g id="#a3a0a2ff">
<path fill="#a3a0a2" opacity="1.00" d=" M 157.16 178.33 L 157.68 178.85 C 157.78 179.45 157.98 180.65 158.08 181.25 C 158.46 184.90 159.96 188.26 161.39 191.59 C 160.26 192.48 159.13 193.38 158.00 194.27 C 156.97 191.63 156.60 188.81 156.19 186.02 C 155.90 184.75 155.50 183.50 155.11 182.26 C 155.78 180.95 156.47 179.64 157.16 178.33 Z" />
</g>
<g id="#b18c7bff">
<path fill="#b18c7b" opacity="1.00" d=" M 196.72 181.69 C 197.59 180.45 198.53 179.26 199.46 178.06 C 201.35 178.14 203.25 178.23 205.15 178.23 C 203.81 178.68 202.49 179.14 201.16 179.60 C 201.31 180.78 201.44 181.97 201.56 183.17 C 201.13 183.21 200.26 183.29 199.82 183.33 C 198.79 182.78 197.75 182.23 196.72 181.69 Z" />
</g>
<g id="#858387ff">
<path fill="#858387" opacity="1.00" d=" M 171.16 178.73 L 171.78 178.99 C 174.06 180.16 176.61 180.59 179.16 180.31 C 177.88 180.92 178.15 182.42 178.93 183.30 L 179.27 183.90 C 177.40 185.45 175.38 187.06 172.82 187.05 C 173.09 187.85 173.36 188.64 173.63 189.44 C 173.45 191.45 173.52 193.48 173.79 195.48 C 173.48 195.94 173.17 196.41 172.87 196.89 L 172.58 197.38 C 172.31 199.00 172.22 200.65 172.12 202.29 C 172.87 200.93 173.59 199.56 174.25 198.16 C 175.30 197.80 176.35 197.40 177.37 196.95 C 179.40 198.56 181.77 199.64 184.30 200.17 L 184.93 200.58 C 184.30 202.35 183.61 204.10 182.97 205.87 C 185.81 206.16 188.66 206.08 191.50 205.87 L 192.20 205.92 L 192.97 205.97 C 193.39 206.01 194.24 206.11 194.66 206.15 L 195.14 206.85 C 192.93 209.52 190.86 212.29 188.70 215.00 C 188.89 215.77 189.08 216.54 189.28 217.31 C 186.76 216.75 184.24 216.19 181.78 215.43 C 181.66 215.38 181.41 215.30 181.28 215.26 C 178.28 214.15 175.33 212.86 172.16 212.30 C 170.40 212.77 168.23 212.92 166.96 214.36 C 165.78 218.64 166.43 223.19 166.04 227.58 C 165.65 229.59 164.86 231.58 164.98 233.66 C 165.61 235.18 166.90 236.29 167.94 237.54 C 167.74 235.28 167.51 233.03 167.08 230.80 C 168.01 231.95 169.01 233.06 170.01 234.17 C 169.99 232.14 169.99 230.12 169.89 228.11 L 169.82 227.30 L 169.72 226.39 L 169.61 225.39 C 169.62 221.73 170.69 218.22 172.12 214.89 C 172.20 217.30 172.29 219.70 172.12 222.11 C 171.56 226.87 172.02 231.69 171.39 236.44 C 170.43 238.57 167.99 239.35 166.07 240.40 C 165.36 238.85 164.71 237.28 164.05 235.72 C 163.09 236.87 162.14 238.03 161.20 239.20 C 156.47 241.23 151.33 243.33 146.08 242.26 C 143.74 241.90 141.91 240.29 140.32 238.67 L 140.00 237.95 C 142.24 238.05 144.44 238.55 146.48 239.49 C 150.10 241.86 153.81 238.82 156.86 236.97 L 157.53 236.53 C 158.42 236.06 159.33 235.61 160.25 235.17 C 160.39 234.72 160.67 233.83 160.81 233.39 C 161.76 232.49 162.72 231.62 163.70 230.76 C 163.65 228.67 163.53 226.58 163.36 224.50 C 163.71 221.67 164.09 218.84 164.30 215.99 C 164.75 213.31 165.39 210.66 166.10 208.04 C 166.38 207.02 166.68 206.02 166.98 205.02 C 167.73 205.87 168.48 206.71 169.25 207.55 C 168.89 202.39 169.26 197.15 171.34 192.35 C 170.14 190.83 168.94 189.32 167.65 187.88 C 168.44 186.20 169.13 184.49 169.79 182.76 C 168.38 184.36 167.01 186.03 166.02 187.93 C 165.43 191.41 164.69 194.87 163.29 198.12 C 162.95 196.73 162.56 195.35 162.16 193.98 C 161.97 193.38 161.58 192.19 161.39 191.59 C 159.96 188.26 158.46 184.90 158.08 181.25 C 159.73 181.21 161.37 181.16 163.02 181.11 C 162.91 181.71 162.70 182.92 162.59 183.52 C 162.05 186.15 162.40 188.83 163.02 191.41 C 163.56 190.35 164.07 189.28 164.57 188.20 C 164.94 187.23 165.28 186.26 165.65 185.30 C 167.26 182.93 169.18 180.79 171.16 178.73 M 175.29 184.29 L 175.29 184.74 L 175.74 184.74 L 175.74 184.29 L 175.29 184.29 M 170.03 199.20 L 169.62 199.92 L 170.03 200.63 L 170.86 200.63 L 171.27 199.92 L 170.86 199.20 L 170.03 199.20 M 172.94 203.10 C 173.09 205.83 176.34 205.24 178.24 205.66 C 176.96 203.94 175.00 203.28 172.94 203.10 M 179.95 206.20 C 178.19 207.81 176.57 209.60 175.80 211.91 C 177.65 212.13 179.52 212.01 181.38 212.13 C 183.12 213.01 184.69 214.21 186.39 215.19 C 186.71 213.88 187.10 212.58 187.23 211.24 C 184.91 209.40 182.26 208.05 179.95 206.20 Z" />
</g>
<g id="#493a31ff">
<path fill="#493a31" opacity="1.00" d=" M 204.25 181.50 C 206.04 180.56 207.95 179.91 209.78 179.07 C 210.20 180.89 210.61 182.70 211.02 184.52 C 209.64 186.42 208.21 188.28 206.85 190.20 C 206.61 189.91 206.12 189.33 205.87 189.05 C 204.98 186.65 203.72 184.11 204.25 181.50 Z" />
</g>
<g id="#b5b2acff">
<path fill="#b5b2ac" opacity="1.00" d=" M 179.16 180.31 C 179.58 180.30 180.42 180.27 180.84 180.26 C 180.75 181.52 179.90 182.56 178.93 183.30 C 178.15 182.42 177.88 180.92 179.16 180.31 Z" />
</g>
<g id="#fffdfbff">
<path fill="#fffdfb" opacity="1.00" d=" M 190.55 180.00 L 191.36 179.63 C 191.52 180.05 191.84 180.88 192.01 181.29 L 191.57 182.12 L 190.71 182.34 L 190.02 181.84 C 190.16 181.38 190.42 180.46 190.55 180.00 Z" />
</g>
<g id="#2c2d2dff">
<path fill="#2c2d2d" opacity="1.00" d=" M 264.09 179.85 C 264.43 180.01 265.13 180.31 265.47 180.47 C 269.78 182.48 273.76 185.13 278.11 187.08 C 278.78 187.16 280.13 187.31 280.81 187.38 L 281.61 187.22 C 283.33 187.06 285.05 187.03 286.78 186.98 C 285.80 188.10 284.82 189.21 283.85 190.33 C 281.71 189.51 279.54 188.82 277.36 188.15 C 277.05 189.50 276.73 190.84 276.42 192.19 L 275.55 192.26 C 273.90 191.15 272.30 189.99 270.70 188.82 C 270.55 188.39 270.25 187.52 270.11 187.09 C 271.52 186.95 272.94 186.81 274.36 186.67 C 271.35 184.93 268.20 183.41 264.93 182.21 C 264.72 181.62 264.30 180.44 264.09 179.85 Z" />
</g>
<g id="#b7b1b0ff">
<path fill="#b7b1b0" opacity="1.00" d=" M 273.62 181.28 C 274.86 180.17 277.54 181.86 276.66 183.44 C 275.43 184.44 272.79 182.83 273.62 181.28 Z" />
</g>
<g id="#cfcecfff">
<path fill="#cfcecf" opacity="1.00" d=" M 180.65 182.72 C 182.77 182.92 184.89 183.13 187.02 183.32 C 187.37 184.72 187.73 186.12 188.12 187.51 C 186.80 187.90 185.48 188.29 184.17 188.69 C 182.91 186.75 181.74 184.76 180.65 182.72 Z" />
</g>
<g id="#666162ff">
<path fill="#666162" opacity="1.00" d=" M 196.11 182.84 C 196.26 182.55 196.57 181.98 196.72 181.69 C 197.75 182.23 198.79 182.78 199.82 183.33 C 201.99 185.07 204.00 186.99 205.87 189.05 C 206.12 189.33 206.61 189.91 206.85 190.20 C 206.46 192.58 206.70 194.99 206.99 197.36 C 206.05 197.15 205.12 196.94 204.18 196.72 C 203.83 196.75 203.14 196.80 202.79 196.82 C 202.58 196.88 202.17 196.98 201.97 197.04 L 201.87 196.35 C 201.54 194.13 201.45 191.80 200.44 189.75 C 199.22 187.32 197.53 185.16 196.11 182.84 Z" />
</g>
<g id="#33373eff">
<path fill="#33373e" opacity="1.00" d=" M 252.86 182.07 C 256.01 182.93 259.27 183.18 262.52 183.11 C 265.31 184.20 267.61 186.15 269.67 188.28 C 269.13 188.35 268.04 188.49 267.50 188.56 C 264.72 187.52 261.83 186.77 258.87 186.58 C 259.34 187.05 260.28 187.98 260.75 188.45 C 262.78 190.31 265.00 191.98 267.41 193.33 C 266.69 194.70 265.99 196.08 265.30 197.46 C 269.46 198.66 274.22 198.48 277.63 201.54 C 281.99 204.72 287.47 205.49 292.27 207.76 C 297.45 210.19 302.81 212.22 308.19 214.17 C 307.48 213.07 306.76 211.99 306.06 210.91 C 308.30 211.95 310.38 213.29 312.33 214.81 C 311.20 215.20 310.06 215.57 308.93 215.92 C 307.60 216.03 306.27 216.05 304.94 216.06 C 303.33 212.94 299.50 212.78 296.46 213.39 C 298.26 214.61 300.11 215.77 301.98 216.89 C 301.31 217.65 300.64 218.41 299.98 219.18 C 300.49 219.42 301.50 219.92 302.00 220.16 C 301.38 220.13 300.12 220.06 299.49 220.03 C 296.32 219.29 293.25 218.18 290.19 217.08 C 291.08 216.23 291.96 215.37 292.73 214.42 C 289.89 212.94 286.84 211.96 283.80 211.01 C 284.14 212.36 284.49 213.71 284.86 215.07 C 285.98 220.18 288.12 224.98 290.76 229.47 L 291.00 230.09 L 290.54 230.55 L 289.70 230.64 C 287.95 226.32 286.47 221.90 284.48 217.69 C 282.35 212.38 276.00 211.61 271.34 209.61 C 268.45 208.56 265.65 207.29 262.87 205.97 C 263.39 203.73 263.91 201.50 264.43 199.26 C 262.82 198.31 261.13 197.45 259.76 196.18 C 258.47 193.34 258.55 189.96 256.73 187.37 C 254.23 185.27 251.02 184.33 248.12 182.92 C 250.46 183.51 252.86 183.84 255.27 184.13 C 255.67 185.47 257.49 187.06 258.79 185.78 C 259.41 183.82 256.51 183.56 255.27 184.13 C 254.47 183.43 253.67 182.74 252.86 182.07 M 269.80 203.06 C 273.34 205.84 277.77 207.09 282.14 207.82 C 281.24 206.66 280.17 205.63 278.80 205.05 C 275.99 203.73 272.99 201.70 269.80 203.06 M 270.11 205.84 C 270.24 206.47 270.51 207.73 270.65 208.36 C 274.02 209.48 277.40 210.67 280.96 211.10 C 280.78 210.75 280.43 210.04 280.25 209.68 C 277.34 207.46 273.55 206.86 270.11 205.84 M 283.92 208.01 C 286.39 211.16 290.52 211.93 294.19 212.84 C 291.74 209.64 287.71 208.58 283.92 208.01 M 296.22 216.51 C 295.26 217.86 297.61 219.27 298.53 218.03 C 299.47 216.68 297.13 215.27 296.22 216.51 Z" />
</g>
<g id="#818487fe">
<path fill="#818487" opacity="1.00" d=" M 262.52 183.11 C 263.13 182.88 264.33 182.43 264.93 182.21 C 268.20 183.41 271.35 184.93 274.36 186.67 C 272.94 186.81 271.52 186.95 270.11 187.09 C 270.25 187.52 270.55 188.39 270.70 188.82 C 270.19 189.28 269.16 190.20 268.65 190.65 C 270.51 192.62 273.02 192.87 275.55 192.26 L 276.42 192.19 C 277.60 192.83 278.78 193.49 279.98 194.11 C 279.49 194.13 278.52 194.17 278.03 194.20 C 277.20 194.26 275.55 194.39 274.72 194.45 C 277.04 196.24 279.63 197.63 282.28 198.88 C 277.16 197.50 272.12 195.77 267.41 193.33 C 265.00 191.98 262.78 190.31 260.75 188.45 C 262.91 189.48 265.35 189.84 267.50 188.56 C 268.04 188.49 269.13 188.35 269.67 188.28 C 267.61 186.15 265.31 184.20 262.52 183.11 Z" />
</g>
<g id="#7b5b51ff">
<path fill="#7b5b51" opacity="1.00" d=" M 284.49 181.93 L 285.15 182.26 C 287.30 183.28 289.44 184.57 291.87 184.77 C 293.12 184.27 294.29 183.57 295.47 182.91 C 297.64 183.87 299.74 184.99 301.80 186.20 C 303.55 187.75 305.43 189.23 306.81 191.15 C 307.86 192.61 307.39 194.52 307.31 196.18 C 305.34 194.60 303.36 193.03 301.23 191.69 C 296.62 190.73 291.86 190.88 287.25 191.70 C 286.11 191.24 284.98 190.77 283.85 190.33 C 284.82 189.21 285.80 188.10 286.78 186.98 C 285.05 187.03 283.33 187.06 281.61 187.22 C 282.67 185.52 283.59 183.73 284.49 181.93 Z" />
</g>
<g id="#654a41fc">
<path fill="#654a41" opacity="1.00" d=" M 285.15 182.26 C 288.59 182.03 292.19 181.49 295.47 182.91 C 294.29 183.57 293.12 184.27 291.87 184.77 C 289.44 184.57 287.30 183.28 285.15 182.26 Z" />
</g>
<g id="#94908fea">
<path fill="#94908f" opacity="0.92" d=" M 123.56 189.82 C 122.86 187.27 122.87 184.60 124.07 182.20 C 126.05 183.65 125.44 186.01 124.85 188.02 C 124.52 188.47 123.88 189.37 123.56 189.82 Z" />
</g>
<g id="#d2cdc9ff">
<path fill="#d2cdc9" opacity="1.00" d=" M 166.02 187.93 C 167.01 186.03 168.38 184.36 169.79 182.76 C 169.13 184.49 168.44 186.20 167.65 187.88 C 167.24 187.89 166.42 187.92 166.02 187.93 Z" />
</g>
<g id="#645857fd">
<path fill="#645857" opacity="1.00" d=" M 219.48 182.72 C 219.84 182.85 220.56 183.12 220.93 183.25 C 220.91 183.66 220.88 184.47 220.87 184.88 C 220.79 189.36 219.36 194.81 222.92 198.36 L 223.66 198.54 C 225.20 198.64 226.74 198.66 228.28 198.59 L 228.63 197.91 C 228.78 197.54 229.06 196.80 229.21 196.43 C 229.93 194.18 230.84 192.00 231.78 189.84 C 232.24 192.58 231.98 195.40 231.12 198.04 C 230.79 198.61 230.12 199.74 229.78 200.31 C 226.10 200.38 222.53 199.45 219.13 198.10 C 216.88 201.66 214.51 205.19 213.07 209.18 C 212.37 210.75 211.93 212.51 210.79 213.84 C 209.07 215.29 206.94 216.14 204.91 217.06 C 205.95 215.08 207.02 213.11 207.94 211.07 C 209.76 206.92 209.18 202.27 209.25 197.86 L 209.24 196.95 C 210.04 198.38 210.83 199.81 211.64 201.25 C 211.38 203.46 211.20 205.68 211.08 207.91 C 212.40 206.28 213.54 204.46 213.64 202.31 C 213.98 198.23 217.33 195.35 218.49 191.55 C 219.32 188.69 219.35 185.68 219.48 182.72 Z" />
</g>
<g id="#7f6e6afe">
<path fill="#7f6e6a" opacity="1.00" d=" M 220.87 184.88 C 223.14 184.18 225.42 183.45 227.74 182.91 C 227.97 183.23 228.42 183.86 228.65 184.18 C 228.35 184.05 227.76 183.79 227.47 183.66 C 227.92 184.92 228.39 186.17 228.87 187.42 C 227.28 187.43 225.69 187.44 224.11 187.57 C 223.64 187.68 222.72 187.91 222.26 188.02 C 222.20 189.51 222.19 191.00 222.22 192.49 C 222.24 193.60 222.28 194.72 222.33 195.84 C 222.48 196.47 222.77 197.73 222.92 198.36 C 219.36 194.81 220.79 189.36 220.87 184.88 Z" />
</g>
<g id="#aaa2a1ff">
<path fill="#aaa2a1" opacity="1.00" d=" M 163.02 191.41 C 162.40 188.83 162.05 186.15 162.59 183.52 C 163.26 185.07 163.92 186.63 164.57 188.20 C 164.07 189.28 163.56 190.35 163.02 191.41 Z" />
</g>
<g id="#c2bcb8ff">
<path fill="#c2bcb8" opacity="1.00" d=" M 175.29 184.29 L 175.74 184.29 L 175.74 184.74 L 175.29 184.74 L 175.29 184.29 Z" />
</g>
<g id="#c9c4c4ff">
<path fill="#c9c4c4" opacity="1.00" d=" M 172.82 187.05 C 175.38 187.06 177.40 185.45 179.27 183.90 C 179.27 187.04 175.85 188.08 173.63 189.44 C 173.36 188.64 173.09 187.85 172.82 187.05 Z" />
</g>
<g id="#bbb3b2ff">
<path fill="#bbb3b2" opacity="1.00" d=" M 192.29 184.22 L 192.74 184.22 L 192.74 184.67 L 192.29 184.67 L 192.29 184.22 Z" />
</g>
<g id="#777372ff">
<path fill="#777372" opacity="1.00" d=" M 211.02 184.52 C 212.04 184.67 213.07 184.80 214.10 184.93 C 211.71 186.32 210.07 188.56 208.72 190.91 C 210.26 190.74 211.80 190.56 213.34 190.39 C 212.56 193.97 212.10 197.61 211.64 201.25 C 210.83 199.81 210.04 198.38 209.24 196.95 L 209.25 197.86 C 208.69 197.74 207.55 197.49 206.99 197.36 C 206.70 194.99 206.46 192.58 206.85 190.20 C 208.21 188.28 209.64 186.42 211.02 184.52 Z" />
</g>
<g id="#9a898aff">
<path fill="#9a898a" opacity="1.00" d=" M 227.47 183.66 C 227.76 183.79 228.35 184.05 228.65 184.18 C 229.95 185.91 230.95 187.84 231.78 189.84 C 230.84 192.00 229.93 194.18 229.21 196.43 C 228.11 194.76 224.76 196.68 227.03 197.92 C 227.43 197.92 228.23 197.91 228.63 197.91 L 228.28 198.59 C 226.74 198.66 225.20 198.64 223.66 198.54 C 225.12 197.55 223.94 195.39 222.33 195.84 C 222.28 194.72 222.24 193.60 222.22 192.49 C 223.35 191.85 224.71 191.50 225.60 190.50 C 225.98 189.23 224.83 188.39 224.11 187.57 C 225.69 187.44 227.28 187.43 228.87 187.42 C 228.39 186.17 227.92 184.92 227.47 183.66 Z" />
</g>
<g id="#9a9a9cff">
<path fill="#9a9a9c" opacity="1.00" d=" M 255.27 184.13 C 256.51 183.56 259.41 183.82 258.79 185.78 C 257.49 187.06 255.67 185.47 255.27 184.13 Z" />
</g>
<g id="#fefdfcff">
<path fill="#fefdfc" opacity="1.00" d=" M 141.56 186.82 C 142.29 186.22 143.06 185.66 143.85 185.13 C 144.59 185.63 145.33 186.13 146.08 186.63 C 149.36 185.68 152.82 185.15 156.19 186.02 C 156.60 188.81 156.97 191.63 158.00 194.27 C 158.34 195.14 158.67 196.02 159.02 196.89 C 157.06 198.19 155.09 199.46 153.09 200.70 C 156.00 200.12 158.94 199.76 161.90 199.60 C 162.01 197.73 162.13 195.85 162.16 193.98 C 162.56 195.35 162.95 196.73 163.29 198.12 C 163.16 198.51 162.89 199.29 162.75 199.68 C 161.67 202.17 161.57 204.89 162.14 207.53 C 159.65 208.32 157.18 209.21 154.81 210.31 C 157.10 210.47 159.40 210.60 161.70 210.72 C 160.59 211.94 159.61 213.33 158.21 214.24 C 156.11 215.27 153.73 215.46 151.47 215.92 C 152.75 216.99 153.61 219.53 155.64 218.78 C 158.66 217.43 161.04 215.03 163.73 213.15 C 163.87 213.86 164.15 215.28 164.30 215.99 C 164.09 218.84 163.71 221.67 163.36 224.50 C 162.71 222.41 162.39 220.25 162.46 218.06 C 160.27 218.64 158.09 219.26 155.88 219.74 C 154.64 219.64 153.40 219.54 152.17 219.45 C 151.58 220.07 150.99 220.69 150.41 221.32 C 148.71 218.93 146.75 216.73 144.46 214.90 C 142.85 213.54 141.26 212.17 139.68 210.78 C 141.73 209.36 143.76 207.90 145.44 206.04 C 143.36 205.86 141.27 205.60 139.19 205.87 C 137.53 207.73 136.97 210.24 136.18 212.55 C 136.51 212.89 137.18 213.57 137.51 213.91 C 138.29 214.72 139.07 215.53 139.86 216.33 C 141.84 218.59 144.53 219.96 147.35 220.88 C 147.63 221.96 147.92 223.04 148.20 224.13 C 147.58 224.21 146.33 224.39 145.70 224.48 C 143.90 224.64 142.09 224.68 140.29 224.61 C 138.30 222.67 136.19 220.85 133.95 219.20 C 132.36 217.01 130.77 214.79 129.50 212.40 C 128.22 210.16 128.54 207.47 128.70 205.01 C 129.03 202.29 129.35 199.37 131.02 197.09 C 132.84 194.86 135.37 193.38 137.53 191.52 C 135.98 196.19 133.19 200.99 134.72 206.05 C 136.23 205.47 137.81 205.00 139.22 204.18 C 140.60 202.81 141.18 200.88 142.06 199.19 C 140.47 200.08 138.89 200.97 137.29 201.83 C 137.67 198.70 140.01 196.53 142.21 194.52 C 141.14 194.92 140.07 195.32 138.99 195.72 C 139.27 193.39 139.54 191.06 139.95 188.75 C 140.35 188.27 141.16 187.30 141.56 186.82 M 144.51 210.25 C 143.44 211.57 145.76 213.07 146.70 211.80 C 147.76 210.48 145.44 208.98 144.51 210.25 Z" />
</g>
<g id="#5c4d49ff">
<path fill="#5c4d49" opacity="1.00" d=" M 214.10 184.93 L 214.94 185.01 C 214.39 186.80 213.82 188.58 213.34 190.39 C 211.80 190.56 210.26 190.74 208.72 190.91 C 210.07 188.56 211.71 186.32 214.10 184.93 Z" />
</g>
<g id="#b4b0afff">
<path fill="#b4b0af" opacity="1.00" d=" M 278.11 187.08 C 277.23 184.11 282.07 184.65 280.81 187.38 C 280.13 187.31 278.78 187.16 278.11 187.08 Z" />
</g>
<g id="#303845f7">
<path fill="#303845" opacity="0.97" d=" M 346.25 184.85 C 348.86 189.18 351.48 193.78 351.83 198.94 C 352.46 204.71 351.40 210.48 349.70 215.97 C 347.68 214.32 346.44 217.31 348.67 218.13 C 349.37 219.20 350.01 220.31 350.59 221.45 C 346.94 220.58 343.36 219.45 339.90 217.99 C 331.82 214.63 323.65 211.49 315.73 207.75 C 316.09 207.78 316.79 207.85 317.14 207.88 C 324.62 208.95 330.85 214.00 338.38 215.02 C 335.23 212.01 331.08 210.55 327.16 208.86 C 328.78 208.96 330.42 208.97 332.05 209.05 C 334.33 209.81 336.90 210.43 338.36 212.53 C 339.95 214.75 342.12 216.40 344.74 217.22 C 346.72 214.05 348.98 210.82 349.33 206.98 C 349.99 200.14 348.20 193.21 345.14 187.12 C 345.41 186.56 345.97 185.42 346.25 184.85 Z" />
</g>
<g id="#ccc8c1ff">
<path fill="#ccc8c1" opacity="1.00" d=" M 188.34 188.30 C 188.68 188.04 189.37 187.52 189.71 187.26 C 192.13 186.93 190.78 190.32 188.98 189.77 C 188.82 189.40 188.50 188.67 188.34 188.30 Z" />
</g>
<g id="#ccc2c0ff">
<path fill="#ccc2c0" opacity="1.00" d=" M 196.27 187.23 L 196.72 187.22 L 196.72 187.67 L 196.27 187.67 L 196.27 187.23 Z" />
</g>
<g id="#adadb1ff">
<path fill="#adadb1" opacity="1.00" d=" M 258.87 186.58 C 261.83 186.77 264.72 187.52 267.50 188.56 C 265.35 189.84 262.91 189.48 260.75 188.45 C 260.28 187.98 259.34 187.05 258.87 186.58 Z" />
</g>
<g id="#6e6d6fff">
<path fill="#6e6d6f" opacity="1.00" d=" M 166.02 187.93 C 166.42 187.92 167.24 187.89 167.65 187.88 C 168.94 189.32 170.14 190.83 171.34 192.35 C 169.26 197.15 168.89 202.39 169.25 207.55 C 168.48 206.71 167.73 205.87 166.98 205.02 C 165.50 203.29 164.13 201.48 162.75 199.68 C 162.89 199.29 163.16 198.51 163.29 198.12 C 164.69 194.87 165.43 191.41 166.02 187.93 Z" />
</g>
<g id="#bebcbfff">
<path fill="#bebcbf" opacity="1.00" d=" M 179.56 189.97 C 180.08 189.60 180.61 189.24 181.14 188.88 C 183.38 190.07 185.73 191.05 188.14 191.84 C 187.91 192.40 187.46 193.51 187.23 194.07 C 188.46 193.54 189.69 193.01 190.93 192.47 C 191.20 194.02 191.48 195.57 191.75 197.12 C 192.16 199.44 192.58 201.75 193.03 204.07 C 192.76 204.33 192.21 204.86 191.93 205.13 L 192.20 205.92 L 191.50 205.87 C 190.69 204.99 189.90 204.09 189.06 203.23 C 189.73 202.83 191.06 202.01 191.73 201.61 C 190.30 200.26 188.87 198.92 187.44 197.57 C 186.39 198.44 185.35 199.30 184.30 200.17 C 181.77 199.64 179.40 198.56 177.37 196.95 C 178.74 196.22 180.08 195.45 181.43 194.69 C 180.79 193.12 180.16 191.54 179.56 189.97 M 186.07 195.24 L 185.64 195.94 L 186.04 196.67 L 186.87 196.68 L 187.29 195.97 L 186.89 195.25 L 186.07 195.24 M 182.36 196.41 C 181.09 197.75 183.34 200.04 184.68 198.72 C 185.95 197.37 183.70 195.08 182.36 196.41 Z" />
</g>
<g id="#e7dee0ff">
<path fill="#e7dee0" opacity="1.00" d=" M 222.26 188.02 C 222.72 187.91 223.64 187.68 224.11 187.57 C 224.83 188.39 225.98 189.23 225.60 190.50 C 224.71 191.50 223.35 191.85 222.22 192.49 C 222.19 191.00 222.20 189.51 222.26 188.02 Z" />
</g>
<g id="#b6b7b9ff">
<path fill="#b6b7b9" opacity="1.00" d=" M 277.36 188.15 C 279.54 188.82 281.71 189.51 283.85 190.33 C 284.98 190.77 286.11 191.24 287.25 191.70 C 286.78 192.89 286.32 194.08 285.85 195.27 C 283.89 194.88 281.93 194.50 279.98 194.11 C 278.78 193.49 277.60 192.83 276.42 192.19 C 276.73 190.84 277.05 189.50 277.36 188.15 Z" />
</g>
<g id="#ccbfb4ff">
<path fill="#ccbfb4" opacity="1.00" d=" M 138.02 190.97 C 138.68 190.24 139.32 189.50 139.95 188.75 C 139.54 191.06 139.27 193.39 138.99 195.72 C 140.07 195.32 141.14 194.92 142.21 194.52 C 140.01 196.53 137.67 198.70 137.29 201.83 C 138.89 200.97 140.47 200.08 142.06 199.19 C 141.18 200.88 140.60 202.81 139.22 204.18 C 137.81 205.00 136.23 205.47 134.72 206.05 C 133.19 200.99 135.98 196.19 137.53 191.52 L 138.02 190.97 Z" />
</g>
<g id="#adb3b4ff">
<path fill="#adb3b4" opacity="1.00" d=" M 268.65 190.65 C 269.16 190.20 270.19 189.28 270.70 188.82 C 272.30 189.99 273.90 191.15 275.55 192.26 C 273.02 192.87 270.51 192.62 268.65 190.65 Z" />
</g>
<g id="#cec9c9ff">
<path fill="#cec9c9" opacity="1.00" d=" M 175.14 190.19 L 175.96 190.22 L 176.35 190.95 L 175.92 191.65 L 175.09 191.62 L 174.70 190.89 L 175.14 190.19 Z" />
</g>
<g id="#00000014">
<path fill="#000000" opacity="0.08" d=" M 233.21 190.13 C 234.80 194.11 233.90 198.44 233.27 202.52 C 231.92 210.08 230.58 217.64 229.68 225.27 C 229.28 229.82 226.83 233.79 224.99 237.87 C 223.53 241.61 219.26 243.04 217.46 246.55 C 214.42 251.82 212.42 257.61 210.41 263.34 C 209.27 266.42 209.05 269.71 209.08 272.96 C 209.20 275.76 207.44 278.10 206.73 280.71 C 205.76 284.41 206.35 288.28 205.90 292.05 C 205.49 295.09 203.18 297.72 203.64 300.90 C 204.05 304.59 203.56 308.28 203.07 311.94 C 202.69 315.35 200.35 318.15 199.93 321.55 C 199.58 324.42 201.29 327.26 200.33 330.10 C 199.57 332.97 198.18 335.71 198.00 338.71 C 198.23 342.03 199.95 345.13 199.69 348.52 C 199.61 352.26 197.00 355.20 195.89 358.63 C 194.27 363.71 194.57 369.16 193.27 374.31 C 192.26 377.55 190.84 380.67 190.08 384.00 L 168.95 384.00 C 171.32 377.11 172.82 369.89 175.88 363.25 C 174.44 362.98 173.00 362.72 171.56 362.48 C 173.71 358.42 175.51 354.19 176.91 349.82 C 178.05 346.73 176.29 343.58 176.51 340.44 C 176.83 336.56 178.71 332.92 178.51 328.99 C 178.41 326.43 178.11 323.84 178.74 321.33 C 179.71 317.36 179.48 313.26 179.86 309.22 C 180.14 305.78 181.83 302.67 182.20 299.25 C 182.52 296.38 182.86 293.51 183.76 290.76 C 184.16 289.00 185.06 287.23 184.76 285.39 C 183.78 284.18 182.59 283.17 181.45 282.13 C 182.43 281.92 183.42 281.72 184.40 281.53 C 185.56 277.16 186.52 272.61 185.51 268.11 C 186.38 267.22 187.26 266.32 188.13 265.43 C 187.25 264.66 186.37 263.88 185.49 263.12 C 187.02 260.84 188.29 258.40 189.32 255.86 C 188.26 255.70 187.20 255.55 186.14 255.40 C 189.29 249.65 189.68 242.99 189.05 236.59 C 187.44 235.26 185.22 235.70 183.29 235.64 C 182.80 235.32 182.31 235.02 181.80 234.74 C 179.66 234.78 177.52 234.80 175.39 234.74 C 174.90 237.47 174.52 240.22 174.26 242.98 C 173.05 243.38 171.84 243.78 170.62 244.14 C 173.65 238.40 171.61 231.69 174.03 225.81 C 174.76 225.64 176.23 225.28 176.97 225.11 C 180.84 224.65 184.76 224.78 188.63 224.35 C 191.17 224.18 193.21 222.53 195.28 221.23 C 195.66 220.99 196.43 220.52 196.81 220.28 C 197.37 223.17 198.79 225.78 200.39 228.22 C 200.00 229.25 199.62 230.29 199.23 231.32 C 201.94 231.87 204.66 232.68 207.45 232.48 C 209.36 232.40 210.26 230.51 211.12 229.10 C 212.73 226.11 214.42 223.16 216.43 220.41 C 216.77 220.57 217.45 220.88 217.79 221.03 C 218.06 221.64 218.34 222.24 218.61 222.85 C 219.84 223.34 221.06 223.83 222.28 224.32 C 224.69 220.19 226.94 215.92 228.43 211.36 C 229.61 207.80 229.58 204.01 229.78 200.31 C 230.12 199.74 230.79 198.61 231.12 198.04 C 232.65 195.69 233.29 192.92 233.21 190.13 Z" />
</g>
<g id="#989296ff">
<path fill="#989296" opacity="1.00" d=" M 129.02 197.90 C 131.29 194.74 134.55 192.60 138.02 190.97 L 137.53 191.52 C 135.37 193.38 132.84 194.86 131.02 197.09 C 129.35 199.37 129.03 202.29 128.70 205.01 C 128.54 207.47 128.22 210.16 129.50 212.40 C 130.77 214.79 132.36 217.01 133.95 219.20 C 130.90 217.42 128.64 214.68 126.60 211.85 C 127.79 218.40 133.35 224.51 140.29 224.61 C 142.09 224.68 143.90 224.64 145.70 224.48 C 145.23 225.26 144.75 226.04 144.28 226.82 C 147.73 227.07 151.20 227.60 154.38 229.04 C 149.14 229.31 143.93 228.48 138.79 227.54 C 135.05 226.16 131.27 224.63 127.20 224.80 C 125.20 223.50 123.27 222.07 121.68 220.27 C 123.04 219.67 124.39 219.08 125.75 218.49 C 125.07 214.10 123.79 209.67 124.35 205.20 C 125.21 202.40 127.32 200.22 129.02 197.90 Z" />
</g>
<g id="#959196ff">
<path fill="#959196" opacity="1.00" d=" M 191.75 197.12 C 194.09 195.54 196.33 193.74 197.80 191.29 C 198.60 192.82 199.42 194.34 200.36 195.80 C 199.19 196.87 199.23 198.55 198.97 199.99 C 198.29 201.66 197.61 203.33 197.03 205.05 C 196.44 205.32 195.25 205.87 194.66 206.15 C 194.24 206.11 193.39 206.01 192.97 205.97 C 192.98 205.49 193.02 204.54 193.03 204.07 C 192.58 201.75 192.16 199.44 191.75 197.12 M 193.28 199.52 C 192.22 200.39 193.58 202.41 194.76 201.56 C 195.81 200.69 194.45 198.67 193.28 199.52 Z" />
</g>
<g id="#5f4339ff">
<path fill="#5f4339" opacity="1.00" d=" M 287.25 191.70 C 291.86 190.88 296.62 190.73 301.23 191.69 C 300.63 191.95 299.44 192.46 298.84 192.71 C 300.20 193.50 301.56 194.29 302.92 195.09 C 302.64 195.66 302.08 196.82 301.80 197.40 C 299.01 196.32 296.23 194.84 293.19 194.75 C 290.05 195.10 287.21 196.77 284.07 197.06 C 281.84 196.67 279.97 195.26 278.03 194.20 C 278.52 194.17 279.49 194.13 279.98 194.11 C 281.93 194.50 283.89 194.88 285.85 195.27 C 286.32 194.08 286.78 192.89 287.25 191.70 Z" />
</g>
<g id="#bfbabcff">
<path fill="#bfbabc" opacity="1.00" d=" M 158.00 194.27 C 159.13 193.38 160.26 192.48 161.39 191.59 C 161.58 192.19 161.97 193.38 162.16 193.98 C 162.13 195.85 162.01 197.73 161.90 199.60 C 158.94 199.76 156.00 200.12 153.09 200.70 C 155.09 199.46 157.06 198.19 159.02 196.89 C 158.67 196.02 158.34 195.14 158.00 194.27 Z" />
</g>
<g id="#1d1e1ffa">
<path fill="#1d1e1f" opacity="0.98" d=" M 298.84 192.71 C 299.44 192.46 300.63 191.95 301.23 191.69 C 303.36 193.03 305.34 194.60 307.31 196.18 C 307.20 196.86 306.98 198.23 306.87 198.91 L 306.11 199.16 C 304.65 198.61 303.23 198.00 301.80 197.40 C 302.08 196.82 302.64 195.66 302.92 195.09 C 301.56 194.29 300.20 193.50 298.84 192.71 Z" />
</g>
<g id="#d4d4d6ff">
<path fill="#d4d4d6" opacity="1.00" d=" M 265.30 197.46 C 265.99 196.08 266.69 194.70 267.41 193.33 C 272.12 195.77 277.16 197.50 282.28 198.88 C 279.63 197.63 277.04 196.24 274.72 194.45 C 275.55 194.39 277.20 194.26 278.03 194.20 C 279.97 195.26 281.84 196.67 284.07 197.06 C 287.21 196.77 290.05 195.10 293.19 194.75 C 296.23 194.84 299.01 196.32 301.80 197.40 C 303.23 198.00 304.65 198.61 306.11 199.16 C 305.38 199.80 304.67 200.46 303.97 201.14 C 306.37 202.43 308.76 203.75 311.10 205.15 C 308.53 204.57 305.58 204.56 303.47 202.80 C 302.52 201.25 302.06 199.46 301.43 197.77 C 300.50 198.43 299.50 198.99 298.59 199.66 C 295.69 198.71 292.66 198.27 289.66 197.79 C 290.61 198.98 291.58 200.17 292.57 201.34 C 291.92 201.68 290.62 202.36 289.97 202.70 C 292.39 203.56 294.84 204.32 297.27 205.17 C 300.00 207.37 302.81 209.52 306.06 210.91 C 306.76 211.99 307.48 213.07 308.19 214.17 C 302.81 212.22 297.45 210.19 292.27 207.76 C 287.47 205.49 281.99 204.72 277.63 201.54 C 274.22 198.48 269.46 198.66 265.30 197.46 M 282.69 199.74 C 284.55 200.49 286.48 201.02 288.47 201.31 C 288.28 200.05 287.78 198.95 286.95 198.04 C 285.39 198.18 284.03 199.00 282.69 199.74 Z" />
</g>
<g id="#838080ff">
<path fill="#838080" opacity="1.00" d=" M 186.07 195.24 L 186.89 195.25 L 187.29 195.97 L 186.87 196.68 L 186.04 196.67 L 185.64 195.94 L 186.07 195.24 Z" />
</g>
<g id="#f0eef0ff">
<path fill="#f0eef0" opacity="1.00" d=" M 182.36 196.41 C 183.70 195.08 185.95 197.37 184.68 198.72 C 183.34 200.04 181.09 197.75 182.36 196.41 Z" />
</g>
<g id="#c2bfb6ff">
<path fill="#c2bfb6" opacity="1.00" d=" M 200.36 195.80 C 200.74 195.94 201.49 196.21 201.87 196.35 L 201.97 197.04 C 201.04 198.09 200.03 199.06 198.97 199.99 C 199.23 198.55 199.19 196.87 200.36 195.80 Z" />
</g>
<g id="#858186ff">
<path fill="#858186" opacity="1.00" d=" M 202.79 196.82 C 203.14 196.80 203.83 196.75 204.18 196.72 C 205.12 196.94 206.05 197.15 206.99 197.36 C 207.55 197.49 208.69 197.74 209.25 197.86 C 209.18 202.27 209.76 206.92 207.94 211.07 C 207.60 211.08 206.93 211.10 206.59 211.10 C 206.91 209.41 206.83 207.67 206.45 206.00 C 205.98 203.80 205.57 201.58 204.79 199.47 C 204.47 199.45 203.84 199.41 203.52 199.40 C 202.46 202.91 202.44 206.97 199.76 209.79 C 198.84 210.83 197.88 211.83 196.92 212.83 C 196.36 212.48 195.80 212.12 195.24 211.77 C 195.71 210.01 196.19 208.26 196.68 206.52 C 196.77 206.15 196.94 205.41 197.03 205.05 C 197.61 203.33 198.29 201.66 198.97 199.99 C 200.03 199.06 201.04 198.09 201.97 197.04 C 202.17 196.98 202.58 196.88 202.79 196.82 Z" />
</g>
<g id="#d9d0c8ff">
<path fill="#d9d0c8" opacity="1.00" d=" M 222.33 195.84 C 223.94 195.39 225.12 197.55 223.66 198.54 L 222.92 198.36 C 222.77 197.73 222.48 196.47 222.33 195.84 Z" />
</g>
<g id="#d5cbc3ff">
<path fill="#d5cbc3" opacity="1.00" d=" M 227.03 197.92 C 224.76 196.68 228.11 194.76 229.21 196.43 C 229.06 196.80 228.78 197.54 228.63 197.91 C 228.23 197.91 227.43 197.92 227.03 197.92 Z" />
</g>
<g id="#dad4d1ff">
<path fill="#dad4d1" opacity="1.00" d=" M 172.58 197.38 C 173.00 197.57 173.83 197.96 174.25 198.16 C 173.59 199.56 172.87 200.93 172.12 202.29 C 172.22 200.65 172.31 199.00 172.58 197.38 Z" />
</g>
<g id="#735f5cff">
<path fill="#735f5c" opacity="1.00" d=" M 119.11 202.54 C 121.85 199.99 125.27 198.28 129.02 197.90 C 127.32 200.22 125.21 202.40 124.35 205.20 C 123.79 209.67 125.07 214.10 125.75 218.49 C 124.01 217.22 121.50 216.34 120.99 214.01 C 119.96 210.26 119.74 206.36 119.11 202.54 Z" />
</g>
<g id="#e5dfe4ff">
<path fill="#e5dfe4" opacity="1.00" d=" M 184.30 200.17 C 185.35 199.30 186.39 198.44 187.44 197.57 C 188.87 198.92 190.30 200.26 191.73 201.61 C 191.06 202.01 189.73 202.83 189.06 203.23 C 187.72 202.29 186.32 201.44 184.93 200.58 L 184.30 200.17 Z" />
</g>
<g id="#00000021">
<path fill="#000000" opacity="0.13" d=" M 219.13 198.10 C 222.53 199.45 226.10 200.38 229.78 200.31 C 229.58 204.01 229.61 207.80 228.43 211.36 C 226.94 215.92 224.69 220.19 222.28 224.32 C 221.06 223.83 219.84 223.34 218.61 222.85 C 218.34 222.24 218.06 221.64 217.79 221.03 C 217.45 220.88 216.77 220.57 216.43 220.41 C 214.42 223.16 212.73 226.11 211.12 229.10 C 210.26 230.51 209.36 232.40 207.45 232.48 C 204.66 232.68 201.94 231.87 199.23 231.32 C 199.62 230.29 200.00 229.25 200.39 228.22 C 198.79 225.78 197.37 223.17 196.81 220.28 C 199.46 219.09 202.22 218.16 204.91 217.06 C 206.94 216.14 209.07 215.29 210.79 213.84 C 211.93 212.51 212.37 210.75 213.07 209.18 C 214.51 205.19 216.88 201.66 219.13 198.10 Z" />
</g>
<g id="#7e8185ff">
<path fill="#7e8185" opacity="1.00" d=" M 282.69 199.74 C 284.03 199.00 285.39 198.18 286.95 198.04 C 287.78 198.95 288.28 200.05 288.47 201.31 C 286.48 201.02 284.55 200.49 282.69 199.74 Z" />
</g>
<g id="#77787aff">
<path fill="#77787a" opacity="1.00" d=" M 289.66 197.79 C 292.66 198.27 295.69 198.71 298.59 199.66 C 298.98 200.01 299.77 200.72 300.17 201.07 C 298.12 201.67 296.04 202.14 293.93 202.44 C 294.86 203.19 295.78 203.97 296.72 204.73 L 297.27 205.17 C 294.84 204.32 292.39 203.56 289.97 202.70 C 290.62 202.36 291.92 201.68 292.57 201.34 C 291.58 200.17 290.61 198.98 289.66 197.79 Z" />
</g>
<g id="#232732fd">
<path fill="#232732" opacity="1.00" d=" M 298.59 199.66 C 299.50 198.99 300.50 198.43 301.43 197.77 C 302.06 199.46 302.52 201.25 303.47 202.80 C 305.58 204.56 308.53 204.57 311.10 205.15 C 311.71 204.27 312.33 203.38 312.95 202.50 C 313.24 202.84 313.82 203.51 314.10 203.85 L 315.03 203.92 C 315.34 203.71 315.97 203.27 316.29 203.05 C 321.52 205.09 326.84 206.92 332.05 209.05 C 330.42 208.97 328.78 208.96 327.16 208.86 C 323.24 207.14 319.23 205.61 315.05 204.68 C 315.74 205.75 316.44 206.81 317.14 207.88 C 316.79 207.85 316.09 207.78 315.73 207.75 C 310.72 207.32 305.91 205.79 301.08 204.51 C 301.41 205.69 301.75 206.87 302.09 208.05 C 308.80 209.36 315.54 210.90 321.79 213.73 C 326.98 216.48 332.50 218.58 337.48 221.72 C 336.86 222.03 335.60 222.65 334.98 222.95 C 329.89 220.52 324.54 218.69 319.37 216.45 C 316.09 214.85 312.39 215.38 308.93 215.92 C 310.06 215.57 311.20 215.20 312.33 214.81 C 310.38 213.29 308.30 211.95 306.06 210.91 C 302.81 209.52 300.00 207.37 297.27 205.17 L 296.72 204.73 C 298.33 204.04 301.41 204.68 301.31 202.18 C 301.02 201.90 300.45 201.35 300.17 201.07 C 299.77 200.72 298.98 200.01 298.59 199.66 Z" />
</g>
<g id="#bab5b7ff">
<path fill="#bab5b7" opacity="1.00" d=" M 170.03 199.20 L 170.86 199.20 L 171.27 199.92 L 170.86 200.63 L 170.03 200.63 L 169.62 199.92 L 170.03 199.20 Z" />
</g>
<g id="#cac4c4ff">
<path fill="#cac4c4" opacity="1.00" d=" M 193.28 199.52 C 194.45 198.67 195.81 200.69 194.76 201.56 C 193.58 202.41 192.22 200.39 193.28 199.52 Z" />
</g>
<g id="#595455ff">
<path fill="#595455" opacity="1.00" d=" M 203.52 199.40 C 203.84 199.41 204.47 199.45 204.79 199.47 C 205.57 201.58 205.98 203.80 206.45 206.00 C 205.71 207.22 205.06 208.50 204.44 209.79 C 203.55 211.40 202.49 212.93 201.34 214.36 C 200.88 214.44 199.97 214.59 199.52 214.67 C 199.59 213.04 199.67 211.41 199.76 209.79 C 202.44 206.97 202.46 202.91 203.52 199.40 Z" />
</g>
<g id="#5b5e65fe">
<path fill="#5b5e65" opacity="1.00" d=" M 306.11 199.16 L 306.87 198.91 C 309.01 199.95 311.15 201.00 313.36 201.90 L 312.95 202.50 C 312.33 203.38 311.71 204.27 311.10 205.15 C 308.76 203.75 306.37 202.43 303.97 201.14 C 304.67 200.46 305.38 199.80 306.11 199.16 Z" />
</g>
<g id="#969295ff">
<path fill="#969295" opacity="1.00" d=" M 162.75 199.68 C 164.13 201.48 165.50 203.29 166.98 205.02 C 166.68 206.02 166.38 207.02 166.10 208.04 C 164.78 207.87 163.46 207.69 162.14 207.53 C 161.57 204.89 161.67 202.17 162.75 199.68 Z" />
</g>
<g id="#afaab0ff">
<path fill="#afaab0" opacity="1.00" d=" M 182.97 205.87 C 183.61 204.10 184.30 202.35 184.93 200.58 C 186.32 201.44 187.72 202.29 189.06 203.23 C 189.90 204.09 190.69 204.99 191.50 205.87 C 188.66 206.08 185.81 206.16 182.97 205.87 Z" />
</g>
<g id="#9ca0a2ff">
<path fill="#9ca0a2" opacity="1.00" d=" M 293.93 202.44 C 296.04 202.14 298.12 201.67 300.17 201.07 C 300.45 201.35 301.02 201.90 301.31 202.18 C 301.41 204.68 298.33 204.04 296.72 204.73 C 295.78 203.97 294.86 203.19 293.93 202.44 Z" />
</g>
<g id="#95969bff">
<path fill="#95969b" opacity="1.00" d=" M 269.80 203.06 C 272.99 201.70 275.99 203.73 278.80 205.05 C 280.17 205.63 281.24 206.66 282.14 207.82 C 277.77 207.09 273.34 205.84 269.80 203.06 Z" />
</g>
<g id="#8a8a90f2">
<path fill="#8a8a90" opacity="0.95" d=" M 313.36 201.90 C 314.37 202.19 315.34 202.57 316.29 203.05 C 315.97 203.27 315.34 203.71 315.03 203.92 L 314.10 203.85 C 313.82 203.51 313.24 202.84 312.95 202.50 L 313.36 201.90 Z" />
</g>
<g id="#c07959ff">
<path fill="#c07959" opacity="1.00" d=" M 115.63 208.00 C 115.30 205.57 117.66 204.10 119.11 202.54 C 119.74 206.36 119.96 210.26 120.99 214.01 C 121.50 216.34 124.01 217.22 125.75 218.49 C 124.39 219.08 123.04 219.67 121.68 220.27 C 119.08 216.55 116.28 212.61 115.63 208.00 Z" />
</g>
<g id="#c4bfbeff">
<path fill="#c4bfbe" opacity="1.00" d=" M 172.94 203.10 C 175.00 203.28 176.96 203.94 178.24 205.66 C 176.34 205.24 173.09 205.83 172.94 203.10 Z" />
</g>
<g id="#f7f2f0ff">
<path fill="#f7f2f0" opacity="1.00" d=" M 191.93 205.13 C 192.21 204.86 192.76 204.33 193.03 204.07 C 193.02 204.54 192.98 205.49 192.97 205.97 L 192.20 205.92 L 191.93 205.13 Z" />
</g>
<g id="#dcd7d3ff">
<path fill="#dcd7d3" opacity="1.00" d=" M 194.66 206.15 C 195.25 205.87 196.44 205.32 197.03 205.05 C 196.94 205.41 196.77 206.15 196.68 206.52 C 196.30 206.60 195.53 206.76 195.14 206.85 L 194.66 206.15 Z" />
</g>
<g id="#aaa9acff">
<path fill="#aaa9ac" opacity="1.00" d=" M 301.08 204.51 C 305.91 205.79 310.72 207.32 315.73 207.75 C 323.65 211.49 331.82 214.63 339.90 217.99 C 343.36 219.45 346.94 220.58 350.59 221.45 C 350.47 221.97 350.24 223.03 350.12 223.56 C 347.04 223.69 343.95 223.75 340.89 223.39 C 339.72 222.90 338.59 222.33 337.48 221.72 C 332.50 218.58 326.98 216.48 321.79 213.73 C 315.54 210.90 308.80 209.36 302.09 208.05 C 301.75 206.87 301.41 205.69 301.08 204.51 Z" />
</g>
<g id="#8f9095ff">
<path fill="#8f9095" opacity="1.00" d=" M 315.05 204.68 C 319.23 205.61 323.24 207.14 327.16 208.86 C 331.08 210.55 335.23 212.01 338.38 215.02 C 330.85 214.00 324.62 208.95 317.14 207.88 C 316.44 206.81 315.74 205.75 315.05 204.68 Z" />
</g>
<g id="#e9e3e0ff">
<path fill="#e9e3e0" opacity="1.00" d=" M 139.19 205.87 C 141.27 205.60 143.36 205.86 145.44 206.04 C 143.76 207.90 141.73 209.36 139.68 210.78 C 138.91 211.79 138.21 212.85 137.51 213.91 C 137.18 213.57 136.51 212.89 136.18 212.55 C 136.97 210.24 137.53 207.73 139.19 205.87 Z" />
</g>
<g id="#6b686bff">
<path fill="#6b686b" opacity="1.00" d=" M 179.95 206.20 C 182.26 208.05 184.91 209.40 187.23 211.24 C 187.10 212.58 186.71 213.88 186.39 215.19 C 184.69 214.21 183.12 213.01 181.38 212.13 C 179.52 212.01 177.65 212.13 175.80 211.91 C 176.57 209.60 178.19 207.81 179.95 206.20 Z" />
</g>
<g id="#aeaaa2ff">
<path fill="#aeaaa2" opacity="1.00" d=" M 206.45 206.00 C 206.83 207.67 206.91 209.41 206.59 211.10 C 205.65 211.08 204.94 210.64 204.44 209.79 C 205.06 208.50 205.71 207.22 206.45 206.00 Z" />
</g>
<g id="#97969aff">
<path fill="#97969a" opacity="1.00" d=" M 270.11 205.84 C 273.55 206.86 277.34 207.46 280.25 209.68 C 280.43 210.04 280.78 210.75 280.96 211.10 C 277.40 210.67 274.02 209.48 270.65 208.36 C 270.51 207.73 270.24 206.47 270.11 205.84 Z" />
</g>
<g id="#d1c5bfff">
<path fill="#d1c5bf" opacity="1.00" d=" M 162.14 207.53 C 163.46 207.69 164.78 207.87 166.10 208.04 C 165.39 210.66 164.75 213.31 164.30 215.99 C 164.15 215.28 163.87 213.86 163.73 213.15 C 161.04 215.03 158.66 217.43 155.64 218.78 C 153.61 219.53 152.75 216.99 151.47 215.92 C 153.73 215.46 156.11 215.27 158.21 214.24 C 159.61 213.33 160.59 211.94 161.70 210.72 C 159.40 210.60 157.10 210.47 154.81 210.31 C 157.18 209.21 159.65 208.32 162.14 207.53 Z" />
</g>
<g id="#6f615eff">
<path fill="#6f615e" opacity="1.00" d=" M 188.70 215.00 C 190.86 212.29 192.93 209.52 195.14 206.85 C 195.53 206.76 196.30 206.60 196.68 206.52 C 196.19 208.26 195.71 210.01 195.24 211.77 C 195.80 212.12 196.36 212.48 196.92 212.83 C 197.88 211.83 198.84 210.83 199.76 209.79 C 199.67 211.41 199.59 213.04 199.52 214.67 C 196.97 215.06 194.42 215.39 191.86 215.70 C 192.62 216.64 193.37 217.59 194.13 218.54 C 193.37 219.14 192.61 219.74 191.86 220.34 C 193.00 220.63 194.14 220.93 195.28 221.23 C 193.21 222.53 191.17 224.18 188.63 224.35 C 184.76 224.78 180.84 224.65 176.97 225.11 C 178.04 224.07 179.06 222.98 180.09 221.90 C 178.05 222.44 176.01 223.00 173.99 223.61 C 174.40 221.26 175.09 218.97 175.68 216.66 C 174.30 218.34 172.99 220.10 172.12 222.11 C 172.29 219.70 172.20 217.30 172.12 214.89 C 172.14 214.03 172.15 213.16 172.16 212.30 C 175.33 212.86 178.28 214.15 181.28 215.26 C 181.41 215.30 181.66 215.38 181.78 215.43 C 184.24 216.19 186.76 216.75 189.28 217.31 C 189.08 216.54 188.89 215.77 188.70 215.00 M 176.09 214.83 C 177.30 218.06 179.37 220.99 182.72 222.21 C 182.03 220.36 181.61 218.28 180.22 216.80 C 178.96 215.92 177.49 215.42 176.09 214.83 Z" />
</g>
<g id="#8b8c90ff">
<path fill="#8b8c90" opacity="1.00" d=" M 283.92 208.01 C 287.71 208.58 291.74 209.64 294.19 212.84 C 290.52 211.93 286.39 211.16 283.92 208.01 Z" />
</g>
<g id="#e3dad4ff">
<path fill="#e3dad4" opacity="1.00" d=" M 144.51 210.25 C 145.44 208.98 147.76 210.48 146.70 211.80 C 145.76 213.07 143.44 211.57 144.51 210.25 Z" />
</g>
<g id="#767171ff">
<path fill="#767171" opacity="1.00" d=" M 201.34 214.36 C 202.49 212.93 203.55 211.40 204.44 209.79 C 204.94 210.64 205.65 211.08 206.59 211.10 C 206.93 211.10 207.60 211.08 207.94 211.07 C 207.02 213.11 205.95 215.08 204.91 217.06 C 202.22 218.16 199.46 219.09 196.81 220.28 C 196.43 220.52 195.66 220.99 195.28 221.23 C 194.14 220.93 193.00 220.63 191.86 220.34 C 192.61 219.74 193.37 219.14 194.13 218.54 C 196.96 218.00 199.84 217.04 201.34 214.36 Z" />
</g>
<g id="#978372ff">
<path fill="#978372" opacity="1.00" d=" M 137.51 213.91 C 138.21 212.85 138.91 211.79 139.68 210.78 C 141.26 212.17 142.85 213.54 144.46 214.90 C 142.92 215.38 141.39 215.85 139.86 216.33 C 139.07 215.53 138.29 214.72 137.51 213.91 Z" />
</g>
<g id="#8d8c8ef8">
<path fill="#8d8c8e" opacity="0.97" d=" M 283.80 211.01 C 286.84 211.96 289.89 212.94 292.73 214.42 C 291.96 215.37 291.08 216.23 290.19 217.08 L 289.46 216.81 C 288.82 215.34 287.25 214.38 285.67 214.97 L 284.86 215.07 C 284.49 213.71 284.14 212.36 283.80 211.01 Z" />
</g>
<g id="#7c797eff">
<path fill="#7c797e" opacity="1.00" d=" M 126.60 211.85 C 128.64 214.68 130.90 217.42 133.95 219.20 C 136.19 220.85 138.30 222.67 140.29 224.61 C 133.35 224.51 127.79 218.40 126.60 211.85 Z" />
</g>
<g id="#b8b6baff">
<path fill="#b8b6ba" opacity="1.00" d=" M 166.96 214.36 C 168.23 212.92 170.40 212.77 172.16 212.30 C 172.15 213.16 172.14 214.03 172.12 214.89 C 170.69 218.22 169.62 221.73 169.61 225.39 C 169.35 223.79 168.98 222.21 168.59 220.65 C 167.85 222.09 167.25 223.60 166.77 225.15 C 167.51 225.46 168.98 226.08 169.72 226.39 L 169.82 227.30 C 168.68 226.20 166.55 228.46 168.49 228.90 C 168.84 228.70 169.54 228.30 169.89 228.11 C 169.99 230.12 169.99 232.14 170.01 234.17 C 169.01 233.06 168.01 231.95 167.08 230.80 C 166.71 229.73 166.36 228.66 166.04 227.58 C 166.43 223.19 165.78 218.64 166.96 214.36 Z" />
</g>
<g id="#9b9b9ff5">
<path fill="#9b9b9f" opacity="0.96" d=" M 296.46 213.39 C 299.50 212.78 303.33 212.94 304.94 216.06 C 304.45 217.47 303.93 218.87 303.42 220.28 C 303.07 220.25 302.36 220.19 302.00 220.16 C 301.50 219.92 300.49 219.42 299.98 219.18 C 300.64 218.41 301.31 217.65 301.98 216.89 C 300.11 215.77 298.26 214.61 296.46 213.39 Z" />
</g>
<g id="#8d8989ff">
<path fill="#8d8989" opacity="1.00" d=" M 199.52 214.67 C 199.97 214.59 200.88 214.44 201.34 214.36 C 199.84 217.04 196.96 218.00 194.13 218.54 C 193.37 217.59 192.62 216.64 191.86 215.70 C 194.42 215.39 196.97 215.06 199.52 214.67 Z" />
</g>
<g id="#bfb5a9ff">
<path fill="#bfb5a9" opacity="1.00" d=" M 144.46 214.90 C 146.75 216.73 148.71 218.93 150.41 221.32 C 150.99 220.69 151.58 220.07 152.17 219.45 C 153.40 219.54 154.64 219.64 155.88 219.74 L 156.54 220.30 C 155.52 221.71 154.57 223.19 153.34 224.45 C 151.62 224.53 149.91 224.29 148.20 224.13 C 147.92 223.04 147.63 221.96 147.35 220.88 C 144.53 219.96 141.84 218.59 139.86 216.33 C 141.39 215.85 142.92 215.38 144.46 214.90 Z" />
</g>
<g id="#524c4aff">
<path fill="#524c4a" opacity="1.00" d=" M 176.09 214.83 C 177.49 215.42 178.96 215.92 180.22 216.80 C 181.61 218.28 182.03 220.36 182.72 222.21 C 179.37 220.99 177.30 218.06 176.09 214.83 Z" />
</g>
<g id="#ece1ddff">
<path fill="#ece1dd" opacity="1.00" d=" M 181.28 215.26 C 181.41 215.30 181.66 215.38 181.78 215.43 C 181.66 215.38 181.41 215.30 181.28 215.26 Z" />
</g>
<g id="#302e2c95">
<path fill="#302e2c" opacity="0.58" d=" M 285.67 214.97 C 287.25 214.38 288.82 215.34 289.46 216.81 C 287.95 216.90 286.48 216.28 285.67 214.97 Z" />
</g>
<g id="#0e0e0f77">
<path fill="#0e0e0f" opacity="0.47" d=" M 304.94 216.06 C 306.27 216.05 307.60 216.03 308.93 215.92 C 307.53 216.83 306.39 218.06 305.34 219.33 C 303.38 221.74 300.60 223.28 298.45 225.50 C 296.32 227.71 294.09 229.83 291.57 231.61 C 291.43 231.23 291.15 230.47 291.00 230.09 L 290.76 229.47 C 294.77 227.52 297.97 224.27 299.49 220.03 C 300.12 220.06 301.38 220.13 302.00 220.16 C 302.36 220.19 303.07 220.25 303.42 220.28 C 303.93 218.87 304.45 217.47 304.94 216.06 Z" />
</g>
<g id="#a3a2a6fe">
<path fill="#a3a2a6" opacity="1.00" d=" M 296.22 216.51 C 297.13 215.27 299.47 216.68 298.53 218.03 C 297.61 219.27 295.26 217.86 296.22 216.51 Z" />
</g>
<g id="#929198d8">
<path fill="#929198" opacity="0.85" d=" M 348.67 218.13 C 346.44 217.31 347.68 214.32 349.70 215.97 C 349.44 216.51 348.93 217.59 348.67 218.13 Z" />
</g>
<g id="#575353fe">
<path fill="#575353" opacity="1.00" d=" M 172.12 222.11 C 172.99 220.10 174.30 218.34 175.68 216.66 C 175.09 218.97 174.40 221.26 173.99 223.61 C 174.00 224.16 174.02 225.26 174.03 225.81 C 171.61 231.69 173.65 238.40 170.62 244.14 C 168.62 243.58 167.03 242.22 166.07 240.40 C 167.99 239.35 170.43 238.57 171.39 236.44 C 172.02 231.69 171.56 226.87 172.12 222.11 Z" />
</g>
<g id="#9f99a0ff">
<path fill="#9f99a0" opacity="1.00" d=" M 155.88 219.74 C 158.09 219.26 160.27 218.64 162.46 218.06 C 162.39 220.25 162.71 222.41 163.36 224.50 C 163.53 226.58 163.65 228.67 163.70 230.76 C 162.84 229.76 161.94 228.79 161.07 227.79 C 161.00 229.66 160.95 231.52 160.81 233.39 C 160.67 233.83 160.39 234.72 160.25 235.17 C 159.33 235.61 158.42 236.06 157.53 236.53 C 157.21 236.16 156.57 235.40 156.25 235.03 L 155.28 235.06 L 154.74 235.71 L 155.01 236.51 C 155.47 236.62 156.40 236.86 156.86 236.97 C 153.81 238.82 150.10 241.86 146.48 239.49 C 150.53 237.04 155.15 234.54 156.92 229.84 C 158.49 226.81 158.09 223.24 156.54 220.30 L 155.88 219.74 M 158.15 233.23 L 157.80 234.06 L 158.15 234.90 L 158.98 235.24 L 159.81 234.90 L 160.15 234.07 L 159.81 233.24 L 158.98 232.89 L 158.15 233.23 Z" />
</g>
<g id="#6f6969ff">
<path fill="#6f6969" opacity="1.00" d=" M 153.34 224.45 C 154.57 223.19 155.52 221.71 156.54 220.30 C 158.09 223.24 158.49 226.81 156.92 229.84 C 155.15 234.54 150.53 237.04 146.48 239.49 C 144.44 238.55 142.24 238.05 140.00 237.95 C 139.66 237.12 139.33 236.29 139.01 235.46 C 141.61 236.21 144.20 237.21 146.93 237.35 C 150.30 237.04 151.77 233.57 153.26 231.02 C 148.42 229.95 143.47 229.22 138.79 227.54 C 143.93 228.48 149.14 229.31 154.38 229.04 C 151.20 227.60 147.73 227.07 144.28 226.82 C 144.75 226.04 145.23 225.26 145.70 224.48 C 146.33 224.39 147.58 224.21 148.20 224.13 C 149.91 224.29 151.62 224.53 153.34 224.45 Z" />
</g>
<g id="#e7e2e4ff">
<path fill="#e7e2e4" opacity="1.00" d=" M 166.77 225.15 C 167.25 223.60 167.85 222.09 168.59 220.65 C 168.98 222.21 169.35 223.79 169.61 225.39 L 169.72 226.39 C 168.98 226.08 167.51 225.46 166.77 225.15 Z" />
</g>
<g id="#807b81fd">
<path fill="#807b81" opacity="1.00" d=" M 173.99 223.61 C 176.01 223.00 178.05 222.44 180.09 221.90 C 179.06 222.98 178.04 224.07 176.97 225.11 C 176.23 225.28 174.76 225.64 174.03 225.81 C 174.02 225.26 174.00 224.16 173.99 223.61 Z" />
</g>
<g id="#1c1d21b3">
<path fill="#1c1d21" opacity="0.70" d=" M 337.48 221.72 C 338.59 222.33 339.72 222.90 340.89 223.39 C 341.27 224.52 341.66 225.64 342.05 226.77 C 341.87 227.19 341.50 228.03 341.32 228.44 L 341.53 229.30 C 339.39 227.14 337.29 224.93 334.98 222.95 C 335.60 222.65 336.86 222.03 337.48 221.72 Z" />
</g>
<g id="#232831fa">
<path fill="#232831" opacity="0.98" d=" M 340.89 223.39 C 343.95 223.75 347.04 223.69 350.12 223.56 C 349.87 224.48 349.63 225.41 349.38 226.34 C 347.54 226.55 345.70 226.76 343.85 226.87 C 343.40 226.84 342.50 226.79 342.05 226.77 C 341.66 225.64 341.27 224.52 340.89 223.39 Z" />
</g>
<g id="#ece6e5ff">
<path fill="#ece6e5" opacity="1.00" d=" M 168.49 228.90 C 166.55 228.46 168.68 226.20 169.82 227.30 L 169.89 228.11 C 169.54 228.30 168.84 228.70 168.49 228.90 Z" />
</g>
<g id="#95949af5">
<path fill="#95949a" opacity="0.96" d=" M 341.32 228.44 C 341.50 228.03 341.87 227.19 342.05 226.77 C 342.50 226.79 343.40 226.84 343.85 226.87 C 343.72 227.50 343.46 228.77 343.32 229.41 C 342.88 229.38 341.98 229.33 341.53 229.30 L 341.32 228.44 Z" />
</g>
<g id="#c0bac0ff">
<path fill="#c0bac0" opacity="1.00" d=" M 161.07 227.79 C 161.94 228.79 162.84 229.76 163.70 230.76 C 162.72 231.62 161.76 232.49 160.81 233.39 C 160.95 231.52 161.00 229.66 161.07 227.79 Z" />
</g>
<g id="#5f5c5ee8">
<path fill="#5f5c5e" opacity="0.91" d=" M 166.04 227.58 C 166.36 228.66 166.71 229.73 167.08 230.80 C 167.51 233.03 167.74 235.28 167.94 237.54 C 166.90 236.29 165.61 235.18 164.98 233.66 C 164.86 231.58 165.65 229.59 166.04 227.58 Z" />
</g>
<g id="#2c2e35f5">
<path fill="#2c2e35" opacity="0.96" d=" M 341.53 229.30 C 341.98 229.33 342.88 229.38 343.32 229.41 C 341.00 233.24 338.54 237.12 334.98 239.95 C 330.14 243.82 324.26 246.60 318.04 247.19 C 310.26 247.90 302.19 247.35 294.94 244.24 C 293.98 240.29 292.55 236.48 290.80 232.82 C 290.12 232.89 288.75 233.02 288.07 233.08 C 288.89 232.23 289.71 231.38 290.54 230.55 L 291.00 230.09 C 291.15 230.47 291.43 231.23 291.57 231.61 C 292.82 234.85 293.60 238.40 295.80 241.18 C 298.61 243.47 302.32 244.27 305.78 245.13 C 313.35 246.93 321.72 245.68 328.16 241.19 C 333.35 238.12 337.55 233.77 341.53 229.30 Z" />
</g>
<g id="#c0babfff">
<path fill="#c0babf" opacity="1.00" d=" M 158.15 233.23 L 158.98 232.89 L 159.81 233.24 L 160.15 234.07 L 159.81 234.90 L 158.98 235.24 L 158.15 234.90 L 157.80 234.06 L 158.15 233.23 Z" />
</g>
<g id="#c5c0c5ff">
<path fill="#c5c0c5" opacity="1.00" d=" M 155.28 235.06 L 156.25 235.03 C 156.57 235.40 157.21 236.16 157.53 236.53 L 156.86 236.97 C 156.40 236.86 155.47 236.62 155.01 236.51 L 154.74 235.71 L 155.28 235.06 Z" />
</g>
<g id="#0000001d">
<path fill="#000000" opacity="0.11" d=" M 142.74 245.72 C 142.35 243.24 141.32 240.94 140.32 238.67 C 141.91 240.29 143.74 241.90 146.08 242.26 C 151.33 243.33 156.47 241.23 161.20 239.20 C 159.44 242.14 156.80 244.31 154.44 246.73 C 151.99 250.50 150.80 254.92 148.80 258.92 C 147.79 258.55 146.77 258.18 145.76 257.81 C 145.74 253.54 143.29 249.88 142.74 245.72 Z" />
</g>
<g id="#0f100fb6">
<path fill="#0f100f" opacity="0.71" d=" M 305.78 245.13 C 313.45 245.70 321.05 243.97 328.16 241.19 C 321.72 245.68 313.35 246.93 305.78 245.13 Z" />
</g>
</svg>
