<svg xmlns="http://www.w3.org/2000/svg" width="682.667" height="682.667" viewBox="0 0 512 512"  xmlns:v="https://vecta.io/nano"><path fill="#898a8f" d="M379.26 168.63c4.72-1.95 8.92 1.95 11.99 5.07 2.12 1.76 1.67 4.7.94 7.02-3.78.05-5.28 4.2-5.5 7.39-1.98 1.7-2.57 4.25-2.84 6.74-1.43.23-2.88.41-4.27.82-2.34 1.55-3.78 4.07-5.48 6.24l4.34-.54.27 2.92-4.54-.81.19 1.15-1.76-.99-5.37 2.92 1.04-6.57c2.69-2.57 6.17-3.88 9.55-5.26 1.49-.49 2.31-1.89 3.24-3.05l-2.55-.77c-1.11-.74-2.18-1.53-3.23-2.34-.06-.13-.19-.39-.26-.53l-.14.24c-1.78 1.59-.24 3.23 1.21 4.34-2.72 1.48-6.07-1.47-5.04-4.36 2.05-2.29 5.02-3.45 7.7-4.83l-1.94-1.89c-1.11-1.13-2.33-2.14-3.65-3.01.15 1.4.34 2.8.54 4.2-1.39.57-2.84 1.06-4.01 2.01-1.04 1.6-1.28 3.53-1.62 5.36-.95-1.16-1.81-1.18-2.56-.06.15 1.31.91 1.87 2.26 1.69-.49 2.67-1.34 5.62-4.12 6.73l-.04-.98c.77-1.52 1.38-3.13 1.4-4.86l.32-4.3-5.39 2.73a13.62 13.62 0 0 1-1.82-2.21c.76-.76 1.49-1.54 2.23-2.33.98-1.08 1.96-2.16 2.88-3.3l4.09-.84.82-2.03c4.32-1.74 8.19-4.5 11.38-7.87 1.18-1.06 1.92-3.49-.26-3.84m-2.06 17.68c-1.47 1 .18 3.53 1.64 2.39 1.46-1-.19-3.54-1.64-2.39m-2.79 10.82c-.45 1.4.03 1.89 1.43 1.46.45-1.4-.03-1.89-1.43-1.46z"/><path fill="#adb4a3" d="M379.26 168.63c2.18.35 1.44 2.78.26 3.84-3.19 3.37-7.06 6.13-11.38 7.87.61-1.4 1.29-2.88 2.65-3.7 2.36-1.56 4.32-3.58 6.05-5.8a24.11 24.11 0 0 1 2.42-2.21z"/><path fill="#7a7f76" d="M370.48 171.72c2.08-.55 4.23-.67 6.36-.88-1.73 2.22-3.69 4.24-6.05 5.8-1.36.82-2.04 2.3-2.65 3.7l-.82 2.03-4.09.84 1.33-4.16-3.28.65-3.68-.15-2.01-2.75 7.78-1.7c2.53-.77 4.58-2.61 7.11-3.38z"/><path fill="#353636" opacity=".78" d="M348.74 177.74l6.04-.77c-2.01.61-4 1.29-5.87 2.25-.32 1.17.09 1.94 1.21 2.31 1.74.06 3.48-.23 5.22-.43l-.07 1.44-4.79 3.58-.67-2.99-2.38.01 1.31-5.4z"/><path fill="#64635f" d="M354.78 176.97l.81-.17 2.01 2.75 3.68.15-2.29 3.42-1.27 1.77-2.45-2.35.07-1.44c-1.74.2-3.48.49-5.22.43-1.12-.37-1.53-1.14-1.21-2.31 1.87-.96 3.86-1.64 5.87-2.25z"/><path fill="#a09fa4" d="M361.28 179.7l3.28-.65-1.33 4.16-2.88 3.3-1.36-3.39 2.29-3.42z"/><path fill="#535459" d="M373.16 178.53c1.32.87 2.54 1.88 3.65 3.01l-3.11 1.19-.54-4.2z"/><path fill="#8d908e" opacity=".91" d="M386.69 188.11c.22-3.19 1.72-7.34 5.5-7.39-1.11 2.94-3.19 5.32-5.5 7.39z"/><path fill="#aba9b3" d="M376.81 181.54l1.94 1.89c-2.68 1.38-5.65 2.54-7.7 4.83-1.03 2.89 2.32 5.84 5.04 4.36l2.42-1.71 2.55.77c-.93 1.16-1.75 2.56-3.24 3.05-3.38 1.38-6.86 2.69-9.55 5.26-1.75.02-3.5.01-5.24.1l-.25 1.69c1.37 1.08 3.06.03 4.57-.13-1.36 1.51-2.89 2.83-4.59 3.93a79.42 79.42 0 0 1 4.47.98l5.37-2.92 1.76.99.35 2.02c-1.95 1.01-3.91 1.98-5.8 3.09a85.58 85.58 0 0 0-.07-1.6c-.96.63-1.92 1.27-2.84 1.96-2.44-1.27-4.84-2.6-7.19-4.02-1.63-1-3.1-2.34-3.41-4.32 2.01-2.89 4.47-5.42 7.19-7.65l1.02 3.37.04.98c2.78-1.11 3.63-4.06 4.12-6.73a78.63 78.63 0 0 0 .3-1.63c.34-1.83.58-3.76 1.62-5.36 1.17-.95 2.62-1.44 4.01-2.01l3.11-1.19z"/><path fill="#545755" d="M347.43 183.14l2.38-.01.67 2.99.72 2.94c2.48-.85 4.91-2.02 6.52-4.17l1.27-1.77 1.36 3.39-2.23 2.33c-2.4 1.56-5.2 2.22-7.97 2.73l1.51 3.28-1.41.03-2.39-1.91c-1.98.54-4.1.87-5.8 2.11-2.87 1.94-4.5 5.12-6.01 8.13l-1.95.93c-2.15.89-4.37 1.58-6.6 2.24 2.59-1.67 5.1-3.45 7.75-5.01l-2.16-2.71.24-.76.97-3.6c.59-1.93 1.39-3.78 2.21-5.62l3.06-.92 1.65 4.46c1.14-1.55 2.36-3.03 3.5-4.57 1.04-1.42 1.95-2.92 2.71-4.51z"/><path fill="#74747c" d="M350.48 186.12l4.79-3.58 2.45 2.35c-1.61 2.15-4.04 3.32-6.52 4.17l-.72-2.94z"/><path fill="#9d9ea2" d="M339.57 187.76l5.92-3.11-.77 3-3.5 4.57-1.65-4.46z"/><path fill="#4a4648" d="M377.2 186.31c1.45-1.15 3.1 1.39 1.64 2.39-1.46 1.14-3.11-1.39-1.64-2.39z"/><path fill="#a6ae9e" d="M359.94 191.05l5.39-2.73-.32 4.3-8.89 2.21 2-5.99a13.62 13.62 0 0 0 1.82 2.21z"/><path fill="#696b74" d="M376.09 192.62c-1.45-1.11-2.99-2.75-1.21-4.34l.4.29 3.23 2.34-2.42 1.71z"/><path fill="#d3d6d8" d="M374.88 188.28l.14-.24.26.53-.4-.29z"/><path fill="#7c8276" d="M350.15 191.57c2.77-.51 5.57-1.17 7.97-2.73l-2 5.99 8.89-2.21c-.02 1.73-.63 3.34-1.4 4.86l-1.02-3.37c-2.72 2.23-5.18 4.76-7.19 7.65-1.03 1.25-1.86 2.87-3.43 3.51-1.63.18-3.25-.14-4.88-.04-1.25.45-2.24 1.41-3.29 2.19l-.45-2.26c-3.78 2.33-7.29 5.09-11.13 7.32l.62-2.68c4.62-3.67 9.8-6.5 15.05-9.13l.52.5c.68 1.04 1.18 2.17 1.49 3.38 1.37-2.17 4.93-5.12 2.59-7.76-.74-.65-1.49-1.29-2.24-1.91l1.41-.03-1.51-3.28m3.37 2.99c-.52 1.37-.08 1.9 1.34 1.57.51-1.4.07-1.92-1.34-1.57m1.34 1.57l-.37.74.45.7.81-.03.38-.73-.45-.7-.82.02z"/><path fill="#605f65" d="M365.51 190.04c.75-1.12 1.61-1.1 2.56.06l-.3 1.63c-1.35.18-2.11-.38-2.26-1.69z"/><path fill="#8f9684" d="M342.06 195.08c1.7-1.24 3.82-1.57 5.8-2.11l2.39 1.91 2.24 1.91-4.08 4.38-.52-.5-3.47-1.54.08-4.23c-3.36 2.33-4.15 7.19-8.45 8.31 1.51-3.01 3.14-6.19 6.01-8.13z"/><path fill="#383a3e" d="M324.28 197.03c2.51-2.93 6.49-2.86 10.02-2.73l-.97 3.6a108.46 108.46 0 0 0-4.23 3.06l-2.21-2.13-2.76 5.95c-1.06-.16-2.58-1.15-3.37.05 1 1.49 2.18 2.84 3.45 4.12-.26.23-.77.71-1.03.95-2.56 1.39-5.26 2.48-7.9 3.69-.47-.79-.91-1.59-1.34-2.4l-.45-1.86a73.81 73.81 0 0 1 4.62-1.57l-2.06-2.27c.72-1.04 1.38-2.13 2.08-3.19l.26.73.73.17.62-1.39c.7-.9 1.45-1.76 2.22-2.6l.11 2.94c1.77-1.37 3.17-3.13 4.13-5.15l-1.92.03m4.01-1.59c-1.19 1.45 1.41 2.6 2.19 1.19 1.18-1.45-1.41-2.59-2.19-1.19z"/><path fill="#9ea691" d="M353.52 194.56c1.41-.35 1.85.17 1.34 1.57-1.42.33-1.86-.2-1.34-1.57z"/><path fill="#85848c" opacity=".97" d="M328.29 195.44c.78-1.4 3.37-.26 2.19 1.19-.78 1.41-3.38.26-2.19-1.19z"/><path fill="#a2ad8d" d="M336.05 203.21c4.3-1.12 5.09-5.98 8.45-8.31l-.08 4.23c1.16.49 2.33.98 3.47 1.54-5.25 2.63-10.43 5.46-15.05 9.13l-1.93-.77c1.03-1.65 2.05-3.31 3.19-4.89l1.95-.93z"/><path fill="#a7aea2" d="M379.58 195.67c1.39-.41 2.84-.59 4.27-.82-.82 2.2-1.88 4.3-3.12 6.28l-2.29.24-4.34.54c1.7-2.17 3.14-4.69 5.48-6.24z"/><path fill="#7e7d82" d="M383.85 194.85c2.36.07 4.82.03 7.03 1.05l1.07 6.4c-2.56 1.63-4.91 3.62-6.4 6.31-.92 1.88-2.78 2.82-4.63 3.55l-1.6.72c-1.43-2.49-2.1-5.31-.66-7.94 1.51 1.29 3.2 2.7 5.27 1.74-1.4-1.64-2.63-3.44-3.2-5.55 1.24-1.98 2.3-4.08 3.12-6.28z"/><path fill="#9e9fa2" d="M354.86 196.13l.82-.02.45.7-.38.73-.81.03-.45-.7.37-.74z"/><path fill="#54565c" opacity=".91" d="M390.88 195.9l3.85 3.15c-.83 1.16-1.67 2.33-2.78 3.25l-1.07-6.4z"/><path fill="#797a7f" opacity=".96" d="M324.28 197.03l1.92-.03c-.96 2.02-2.36 3.78-4.13 5.15l-.11-2.94 2.32-2.18z"/><path fill="#414344" d="M352.49 196.79c2.34 2.64-1.22 5.59-2.59 7.76-.31-1.21-.81-2.34-1.49-3.38l4.08-4.38z"/><path fill="#51554b" d="M374.41 197.13c1.4-.43 1.88.06 1.43 1.46-1.4.43-1.88-.06-1.43-1.46z"/><path fill="#929198" d="M329.1 200.96l4.23-3.06-.24.76-2.23 4.08-1.76-1.78z"/><path fill="#7f7f86" d="M324.13 204.78l2.76-5.95 2.21 2.13 1.76 1.78 2.23-4.08 2.16 2.71-7.75 5.01 6.6-2.24-3.19 4.89-1.91.85-4.87-5.1z"/><path fill="#767883" d="M363.03 200.09l5.24-.1-1.04 6.57-4.47-.98c1.7-1.1 3.23-2.42 4.59-3.93-1.51.16-3.2 1.21-4.57.13l.25-1.69z"/><path fill="#3c3c40" d="M378.44 201.37l2.29-.24c.57 2.11 1.8 3.91 3.2 5.55-2.07.96-3.76-.45-5.27-1.74-1.44 2.63-.77 5.45.66 7.94-1.67.67-3.24 1.98-5.13 1.86-1.76-.43-3.05-1.85-4.49-2.86l-5.59 3.31c1.73-1.7 3.26-3.59 4.8-5.45l5.8-3.09-.35-2.02-.19-1.15 4.54.81-.27-2.92m-7.32 8.75l2.21 3.6 3.02-.23.56-2.38c-1.84-.75-3.82-.98-5.79-.99z"/><path fill="#999b9f" opacity=".94" d="M318.13 202.3l.67-.6.94.11-.62 1.39-.73-.17-.26-.73z"/><path fill="#919983" d="M351.97 205.27c1.57-.64 2.4-2.26 3.43-3.51.31 1.98 1.78 3.32 3.41 4.32-1.78-.01-3.54.2-5.3.4-1.27 3.15-2.62 6.46-5.38 8.61l-1.68.54c-3.68 1.11-7.5 1.89-10.96 3.63l-1.41-2.03c3.18-3.33 6.11-6.92 9.72-9.81 1.05-.78 2.04-1.74 3.29-2.19 1.63-.1 3.25.22 4.88.04z"/><path opacity=".12" d="M189.88 205.55c1.84-.96 3.86-1.82 5.99-1.47 4.35.44 8.71.87 13.08 1.12 6.11.35 11.83 2.78 17.89 3.46 3.26.36 6.39 1.33 9.48 2.41 3.59 1.45 7.33-.3 10.95-.73-1.41 1.82-2.66 3.75-3.66 5.82-1.49-.56-2.97-1.16-4.52-1.5-2.28.76-3.97 2.7-6.28 3.38-4.29.43-8.84-.62-11.66-4.1-1.22-1.06-2.51-2.47-4.25-2.43-3.94.13-7.53 1.93-11.12 3.36l-.76.27c-3-3.5-5.34-8.33-10.38-9.11-1.58-.26-3.18-.36-4.76-.48z"/><path fill="#a09fa6" d="M320.76 204.83c.79-1.2 2.31-.21 3.37-.05l4.87 5.1 1.91-.85 1.93.77-.62 2.68c-3.24 1.06-5.75-1.69-8.01-3.53-1.27-1.28-2.45-2.63-3.45-4.12z"/><path fill="#4e5053" d="M332.22 212.48c3.84-2.23 7.35-4.99 11.13-7.32l.45 2.26c-3.61 2.89-6.54 6.48-9.72 9.81-2.17.85-4.51.55-6.76.39-3.98-.38-7.84 1.07-11.82.78 2.46-2.13 5.13-3.98 7.9-5.66-.09-.95-.16-1.9-.22-2.84l1.03-.95c2.26 1.84 4.77 4.59 8.01 3.53m-3.92 1.79l-.01.45h.45l.01-.45h-.45z"/><path fill="#5d5b5a" opacity=".85" d="M186.7 207.8l3.18-2.25 4.76.48.35.8-8.29.97z"/><path fill="#3a3a3c" d="M194.64 206.03c5.04.78 7.38 5.61 10.38 9.11-2.66.98-5.45 1.52-8.23 2.07.14-2.72-.01-5.48-.95-8.07l-.85-2.31-.35-.8z"/><path fill="#939888" d="M316.05 205.49l2.06 2.27-4.62 1.57.45 1.86-3.48 4.72 1.19 1.48-.42.59-1.76 3.03c.99 2.42 2.43 5.15.43 7.48l-4.75-.29 3.99 4c-3.75 1.02-7.05-2.68-7.36-6.13 1.18-2.97 4-4.88 5.44-7.7.66-1.47 1.04-3.04 1.55-4.57l2.4-3.65c1.72-1.45 3.39-2.97 4.88-4.66z"/><path fill="#9898a4" d="M353.51 206.48l5.3-.4 7.19 4.02c-1.82 1.82-4.4 3.63-4.23 6.52l-3.63 2.43-.57-.37c-2.9-1.74-6-3.4-9.44-3.59 2.76-2.15 4.11-5.46 5.38-8.61m-1.06 6.87c-1.22 2.01 3.07 2.93 3.32.81-.17-1.52-2.41-1.82-3.32-.81z"/><path fill="#4d4f4f" d="M186.7 207.8l8.29-.97.85 2.31c-2.7.98-6.54.85-7.87 3.9l-.45 2.77c-1.03-.64-1.83-.47-2.39.51-1.11 2.42-1.15 5.17-1.57 7.77l-2.31.48.98 6.16c-2.08-3.22-1.89-7.22-1.58-10.88.75-4.42 2.26-9.29 6.05-12.05z"/><path fill="#b0b4a9" opacity=".98" d="M366 210.1l2.84-1.96.07 1.6-4.8 5.45-.7.44-1.64.99c-.17-2.89 2.41-4.7 4.23-6.52z"/><path fill="#828281" d="M187.97 213.04c1.33-3.05 5.17-2.92 7.87-3.9.94 2.59 1.09 5.35.95 8.07 2.78-.55 5.57-1.09 8.23-2.07l.76-.27c2.49-.57 5.04-.77 7.58-1.02l.71 2.04 2.01.12.16-4.05c1.83 1.05 2.68 2.84 2.96 4.88l-4.99 1.27-3.26.56-5.88 1.23c-1.98.57-3.69 1.75-5.44 2.77l-3.75 1.82c-1.46-1.97-2.15-4.32-3.1-6.54l-4.81-4.91z"/><path fill="#000001" opacity=".78" d="M303.43 215.44c2.34-2.09 5.11-3.6 7.74-5.29l-2.4 3.65c-3.08 4.48-5.9 9.52-10.95 12.06-1.8.88-3.66 1.63-5.52 2.37l-1.21-1.85c5.13-2.39 8.15-7.37 12.34-10.94z"/><path fill="#72776b" d="M315.28 213.59l7.9-3.69.22 2.84c-2.77 1.68-5.44 3.53-7.9 5.66 3.98.29 7.84-1.16 11.82-.78a53.53 53.53 0 0 1-6.86 5.99l.32-4.77c-2.24 1.24-5.27 2.39-5.46 5.38-.65 2.11 1.31 3.28 2.67 4.44 1.59 1.31 3.03 2.78 4.45 4.27l-2 .08-2.82-2.12c-.99.93-2.02 1.82-3.05 2.72l.82-2.07-2.99 1.51c-.7-5.05 2.29-9.58 2.36-14.58.27-1.31.62-2.6.98-3.88l-4.09 2.8-1.19-1.48 3.48-4.72c.43.81.87 1.61 1.34 2.4z"/><path fill="#8b8d98" d="M371.12 210.12c1.97.01 3.95.24 5.79.99l-.56 2.38-3.02.23-2.21-3.6z"/><path fill="#555352" opacity=".85" d="M205.78 214.87c3.59-1.43 7.18-3.23 11.12-3.36 1.74-.04 3.03 1.37 4.25 2.43.58 1.3 1.11 2.62 1.65 3.95l-8.59.22 4.99-1.27c-.28-2.04-1.13-3.83-2.96-4.88l-.16 4.05-2.01-.12-.71-2.04c-2.54.25-5.09.45-7.58 1.02z"/><path fill="#474847" d="M243.61 216.16c1-2.07 2.25-4 3.66-5.82 1.73.81 3.38 1.82 4.94 2.94l-5.21 1.18-1.56.25-1.9 3.82c-2.17-.41-4.38-.68-6.59-.55l-1.21.95-.86 1.25c-2.29.13-4.57-.03-6.86-.05-2.26-.15-3.98 1.57-5.87 2.51l-.81.41c-1.51-.35-2.98-.87-4.51-1.06-2.1.63-4.02 1.91-6.29 1.87l.41-5.19 3.26-.56 8.59-.22-1.65-3.95c2.82 3.48 7.37 4.53 11.66 4.1 2.31-.68 4-2.62 6.28-3.38 1.55.34 3.03.94 4.52 1.5z"/><path opacity=".07" d="M380.92 212.16c1.85-.31 3.74-.42 5.62-.51a16.28 16.28 0 0 1-5.58 3.4l1.29 4.45 5.87 1.29-3.11 3.48c1.07 1.6 2.37 3.03 4.04 4.02l.55-2.77 5.51.85 1.28 4.52-3.08 1.74a23.72 23.72 0 0 1 3.21 2.02l2.59-2.43 2.86 3.79c1.22-3.53 3.73-6.29 7.07-7.94l1.33 3.21 4.28-.9-.21 4.75a106.98 106.98 0 0 1 5.07-.36l.68-3.17c2.9 1.46 6.08 2.67 8.11 5.35l-2.91 1.86-2.55-3.9-5.05 3.04c3.69 1.83 7.49 3.54 11.62 4.11l.19-4.06c2.44 1.81 4.81 4.39 8.16 4 .27-1.53.64-3.03 1.16-4.49l-2.69-1.48.02-1.79c1.84-.1 3.7-.41 5.55-.13 1.81.65 3.45 1.69 5.08 2.71 1.05-1.23 2.08-2.48 3.09-3.75l2.02.5-3.15 3.76c2.09 1.34 4.19 3.29 6.85 3.1 1.24-.92 2.18-2.17 3.21-3.29a173.95 173.95 0 0 1-2.95-4.66c3.02-1.09 5.21 1.79 7.83 2.71 2.23.36 4.49.05 6.73.34 1.53.72 2.58 2.15 3.79 3.3 2-1.31 4.04-2.58 5.99-3.98 3.42.82 6.94.49 10.42.58 1.99.62 3.72 1.83 5.5 2.89l5.38-1.88 2.28 3.61 3.06-8.2a199.83 199.83 0 0 0 4.01 4.25l-2.4 2.95c1.18 1.12 2.35 2.26 3.46 3.46v63.25c-4.6-1.11-9.42-2.73-14.16-1.45-2.48-2.4-5.07-4.73-8.17-6.29.1 1.55.89 2.89 1.76 4.14a116.82 116.82 0 0 0-5.24 1.92c-1.95-1.99-4.06-3.8-6.12-5.67-4.93.84-9.88 1.51-14.72 2.78-2.03-.39-1.74-2.83-2.22-4.35l-2.14 4.21c-2.13-1.44-4.15-3.11-6.52-4.12-2.8-.1-5.52.77-8.3.92-2.76.27-5.5-.29-8.23-.61-2.26-.33-4.48.36-6.72.51-1.69-.61-2.43-2.55-3.56-3.84l-.34 3.64c-2.72.13-5.42.47-8.14.53-2.84.07-5.54-.95-8.31-1.39-3.04-.49-6.17.55-9.18-.31-3.28-.93-6.71-.95-10.04-1.59-5.74-1.48-11.63.31-17.45-.13-3.32.23-6.69-1.6-9.91-.26-4.43 1.38-9.24.85-13.62-.45-4.19-.26-8.39-.42-12.55-1.09-2.98-.56-4.56 2.5-6.36 4.28l-.51-2.31-2.55 4.9c-2.37-.43-4.78-.43-7.17-.59-2.09-.12-3.64-1.85-5.66-2.22-1.85-.43-4.21-.29-4.89-2.5l1.97-.59c1.44-.56 2.86-1.19 4.25-1.89.24-.22.71-.68.95-.91 1.63-1.49 3.13-3.12 4.57-4.79 1.35.74 2.68 1.71 4.29 1.74 5.89.46 11.79-.2 17.69-.04 2.18.05 4.36.47 6.55.22 2.28-1.12 4-3.09 6.22-4.3 4.9-.33 9.83.14 14.74-.27-.03-2.56.89-4.95 2.44-6.97-2.26.07-4.52.02-6.78-.11 1.45-1.98 3.8-2.82 6.01-3.64-1-2.58-2.76-4.73-4.65-6.69 2.19-2.82 3.54-6.15 3.47-9.75-1.58-.69-4.66-.03-4.64-2.43 1.34-2.37 4.33-2.47 6.67-3.12-.44-1.18-.81-2.39-1.41-3.48-2.21-1.57-5.1-1.46-7.66-1.97l-.16 4.3a120.24 120.24 0 0 0-4.12-2.66l1.28-4.26c-3.01.44-6.19.5-8.93-1l-.27-4.02.93-1.18c3.86-3.31 6.8-7.59 8.68-12.31 1-2.78.54-5.8.34-8.67l.7-.44a112.37 112.37 0 0 1 5.59-3.31c1.44 1.01 2.73 2.43 4.49 2.86 1.89.12 3.46-1.19 5.13-1.86l1.6-.72z"/><path fill="#504f48" d="M258.98 214.14c1.45-1.09 2.85-2.99 4.92-2.46 1.66.64 3.19 1.6 4.84 2.27 1.71.62 3.59.5 5.3 1.15 2.64 1.7 4.95 3.95 7.96 5.03 3.47 1.32 6.81 3.23 9.09 6.25l1.21 1.85-.45 4.76-2-1.99c-1.78 1.37-3.81 2.5-5.18 4.32.19 1.7.73 3.35.71 5.07-.73 1.04-2.08 1.36-3.1 2.03-2.13-2.55-5.02-4.19-7.9-5.72-1.54-1.88-2.98-3.84-4.56-5.67 1.55.62 3.14 1.17 4.72 1.73.92-5.18 1.29-10.53.23-15.72-2.25-.12-4.46.31-6.53 1.14-1.04-1.09-2.1-2.15-3.32-3.03l-1.49-.52-4.45-.49m16.33 20.18l.01.45h.45l-.01-.45h-.45z"/><path fill="#5e5f5e" d="M187.52 215.81l.45-2.77 4.81 4.91c.95 2.22 1.64 4.57 3.1 6.54.71 1.25 1.27 2.58 1.74 3.94-1.78.5-3.63.71-5.46.46l.28 2.89-4.7 5.83c-1.06-1.6-2.16-3.16-3.46-4.56l-2.05-2.32-.98-6.16 2.31-.48c1.46-.55 3.61-.59 4.18-2.33.24-1.99-.09-3.98-.22-5.95z"/><path fill="#5e6077" d="M252.21 213.28c.94.65 1.87 1.34 2.92 1.83 1.35.23 2.58-.62 3.85-.97l4.45.49-.27 1.61.56.49.7-.18.5-1.4c1.22.88 2.28 1.94 3.32 3.03 2.07-.83 4.28-1.26 6.53-1.14 1.06 5.19.69 10.54-.23 15.72-1.58-.56-3.17-1.11-4.72-1.73l-.54-.54c-1.78-1.69-3.5-3.89-6.18-3.95l-4.06-.49-1.46-5.14c-1.79 1.25-3.54 2.57-5.08 4.13-1.36-.03-2.96-.52-4.09.51-2.19 1.63-4.1 3.6-6.16 5.39-1.72-.06-3.48-.03-5.11-.6-1.77-1.73-.76-4.33-.58-6.45l1.31 2.01c3.57-2.17 7.39-3.92 11.38-5.17 1.21.73 2.42 1.7 3.89 1.77 1.36-.3.32-2-.33-2.5l-.55-.62c1.94.37 3.89.63 5.84.93l-.12-3.59c-2.32-.07-4.58.36-6.27 2.05-.22-1.1-.38-2.21-.54-3.31l-4.17-1 5.21-1.18m20.09 5.92l-.01.46h.46v-.46h-.45m-6.14 3.81l-.34.84.35.83.83.35.82-.35.34-.83-.34-.84-.83-.34-.83.34z"/><path fill="#d9dae0" d="M352.45 213.35c.91-1.01 3.15-.71 3.32.81-.25 2.12-4.54 1.2-3.32-.81z"/><path fill="#6b6f86" d="M245.44 214.71l1.56-.25 4.17 1 .54 3.31.55.61.55.62c-1.23 0-2.42.32-3.56.73-3.99 1.25-7.81 3-11.38 5.17l-1.31-2.01a69.59 69.59 0 0 1-1.43-2.34l-.25-1.37.86-1.25c.06 1.18 1.48 2.61 2.62 1.63.99-1.06-.36-2.36-1.41-2.58 2.21-.13 4.42.14 6.59.55l1.9-3.82z"/><path fill="#5e5e58" d="M297.82 225.86c5.05-2.54 7.87-7.58 10.95-12.06-.51 1.53-.89 3.1-1.55 4.57-1.44 2.82-4.26 4.73-5.44 7.7.31 3.45 3.61 7.15 7.36 6.13-1.37 1.8-1.7 4.99-4.16 5.55-1.79-1-3.26-2.47-4.81-3.78l1.6-3.06-3.95-5.05z"/><path fill="#878890" d="M328.3 214.27h.45l-.01.45h-.45l.01-.45z"/><path fill="#818384" d="M185.13 216.32c.56-.98 1.36-1.15 2.39-.51.13 1.97.46 3.96.22 5.95-.57 1.74-2.72 1.78-4.18 2.33.42-2.6.46-5.35 1.57-7.77z"/><path fill="#9b9ba9" d="M263.43 214.63l1.49.52-.5 1.4-.7.18-.56-.49.27-1.61z"/><path fill="#b6a56f" d="M311.65 217.39l4.09-2.8-.98 3.88-3.53-.49.42-.59z"/><path fill="#272931" d="M346.45 215.63l1.68-.54c3.44.19 6.54 1.85 9.44 3.59-2.01 1.15-4.07 2.2-6.11 3.3-1.9-1.93-3.62-4.02-5.01-6.35z"/><path fill="#727075" d="M335.49 219.26c3.46-1.74 7.28-2.52 10.96-3.63 1.39 2.33 3.11 4.42 5.01 6.35-2.91 1.65-5.54 3.81-8.71 5-2.12.31-4.32.57-6.12 1.82l-6.94 4.22c-2.01-.34-4.42-.08-5.94-1.71-1.33-1.06-.87-2.93-1.1-4.41 4.47-2.23 8.57-5.08 12.84-7.64z"/><path fill="#54514c" d="M361.77 216.62l1.64-.99c.2 2.87.66 5.89-.34 8.67-1.88 4.72-4.82 9-8.68 12.31-5.44-1.27-10.48-3.66-15.39-6.23l-2.37-1.58c1.8-1.25 4-1.51 6.12-1.82 2.61 3.04 6.54 5.85 10.75 4.62 3.67-1.48 5.83-5.29 7.05-8.87.77-1.79-1.3-2.75-2.41-3.68 1.19-.84 2.39-1.67 3.63-2.43z"/><path fill="#3c3c46" d="M251.71 218.77c1.69-1.69 3.95-2.12 6.27-2.05l.12 3.59-5.84-.93-.55-.61z"/><path fill="#a0a990" d="M327.32 217.62c2.25.16 4.59.46 6.76-.39l1.41 2.03c-4.27 2.56-8.37 5.41-12.84 7.64-1.53.66-3.1 1.21-4.66 1.76-1.36-1.16-3.32-2.33-2.67-4.44.19-2.99 3.22-4.14 5.46-5.38l-.32 4.77a53.53 53.53 0 0 0 6.86-5.99m-9 8.46v.82l.71.42.72-.41v-.82l-.71-.42-.72.41z"/><path fill="#535552" d="M205.07 219.9c1.92-.57 3.91-.88 5.88-1.23l-.41 5.19c2.27.04 4.19-1.24 6.29-1.87 1.53.19 3 .71 4.51 1.06-3.51 1.77-6.45 4.41-9.54 6.8-1.64 1.13-3.58 1.9-4.95 3.37-.55 2.59-.31 5.26-.4 7.88 4.76-.35 8.2-3.69 11.3-6.95.91 2 1.65 4.07 2.24 6.19-1.74.1-3.49.07-5.19.47-2.25.64-2.33 3.31-3.07 5.12l-1.22-3.61-4.12-.39c0 3.2.45 6.38 1.48 9.41l.58 1.98c-1.66-.85-3.66-1.3-4.91-2.75-1.54-3.66-1.12-8.28-4.62-10.89-.32 3.27-.7 6.56-1.7 9.7-.69-3.58-2.19-6.92-4.27-9.91l1.82-1.71.48-3.42 1.18 1.13 2.61 2.54c1.47-3.36 2.42-6.92 3.88-10.27 1.14-1.78 2.41-3.47 3.66-5.17l-2.52-1.47 1.01-1.2m-1.22 24.02c-.76 2.06-.79 5.02 1.24 6.32 2.15-.35.77-3.58 1.17-5.16l-2.41-1.16z"/><path fill="#9092a0" d="M235.74 218.93l1.21-.95c1.05.22 2.4 1.52 1.41 2.58-1.14.98-2.56-.45-2.62-1.63z"/><path fill="#282a2d" d="M309.47 221.01l1.76-3.03 3.53.49c-.07 5-3.06 9.53-2.36 14.58l2.99-1.51-.82 2.07c-1.68 2.45-3.22 4.99-4.82 7.49 2 3.04 4.9 5.25 7.75 7.45-3.25.56-6.55.33-9.81.16-1.45-.23-2.69.65-3.87 1.32l-2.61-.39c-.2-.98-.37-1.96-.48-2.95.52-2.21 2.6-4.23 1.54-6.61-1.43-3.3-5.74-4.94-5.71-8.96 1.23.91 2.44 1.85 3.61 2.85 1.55 1.31 3.02 2.78 4.81 3.78 2.46-.56 2.79-3.75 4.16-5.55-1.31-1.37-2.64-2.69-3.99-4l4.75.29c2-2.33.56-5.06-.43-7.48z"/><path fill="#686962" d="M222.15 222.64c1.89-.94 3.61-2.66 5.87-2.51l6.86.05.25 1.37-1.76 6.91-7.19.85c-1.63 2.35 2.08 3.09 3.37 4.43-1.88 2.51-3.57 5.19-4.62 8.16 1.8-.44 3.68-.7 5.33-1.6 1.28-.94 2.15-2.31 3.17-3.51.36 1.47.94 3.07.18 4.53-.85 1.26-2.11 2.13-3.28 3.07l1.83 2.88c.6 2.36-.9 4.48-2.18 6.31l-5.03-6.8c-3.94 1.56-4.56 6.06-6.09 9.5-.43-3.65.87-7.11 2-10.51-1.3.7-2.74 1.23-3.86 2.22-1.05 1.22-1.36 2.85-1.75 4.37-1.17 5.43-2.17 10.91-2.54 16.46-.31 2.52-.62 5.09-1.61 7.46-2.1-6.15.46-12.44-.17-18.71-4.15 1.21-7.28 4.31-10.14 7.4-3.21-4.62-2.17-10.41-3.57-15.59 1-3.14 1.38-6.43 1.7-9.7 3.5 2.61 3.08 7.23 4.62 10.89 1.25 1.45 3.25 1.9 4.91 2.75l-.58-1.98c1.69-1.48 3.38-3.11 3.86-5.41.74-1.81.82-4.48 3.07-5.12 1.7-.4 3.45-.37 5.19-.47-.59-2.12-1.33-4.19-2.24-6.19-3.1 3.26-6.54 6.6-11.3 6.95.09-2.62-.15-5.29.4-7.88 1.37-1.47 3.31-2.24 4.95-3.37-1.36 1.96-2.22 4.2-2.9 6.48 3.84-1.31 5.99-4.95 9.03-7.39 1.7-1.85 4.91-3.31 4.22-6.3m-13.87 15.63v.45h.45v-.45h-.45z"/><path fill="#e7e4ee" d="M272.3 219.2h.45v.46h-.46l.01-.46z"/><path fill="#977058" d="M357.57 218.68l.57.37c1.11.93 3.18 1.89 2.41 3.68-1.22 3.58-3.38 7.39-7.05 8.87-4.21 1.23-8.14-1.58-10.75-4.62 3.17-1.19 5.8-3.35 8.71-5l6.11-3.3z"/><path fill="#6c6861" d="M199.63 222.67c1.75-1.02 3.46-2.2 5.44-2.77l-1.01 1.2 2.52 1.47-3.66 5.17-.93-1.53-2.36-3.54z"/><path fill="#9192a2" d="M249.25 220.73c1.14-.41 2.33-.73 3.56-.73.65.5 1.69 2.2.33 2.5-1.47-.07-2.68-1.04-3.89-1.77z"/><path fill="#dddcdf" d="M252.5 225.04c1.54-1.56 3.29-2.88 5.08-4.13l1.46 5.14-6.54-1.01z"/><path fill="#51514f" d="M235.13 221.55l1.43 2.34c-.18 2.12-1.19 4.72.58 6.45 1.63.57 3.39.54 5.11.6l-.44.38c-5.5 3.97-7.84 10.92-7.74 17.49-.14 2.15-.52 4.29-.46 6.45.42 2.04 2.01 3.67 2.28 5.77.38 3.33.02 6.68-.19 10.01a46.39 46.39 0 0 0-4.36-.67c.15-4.68-.03-9.35-.27-14.02l-2.13 1.04-.16-2.17 1.2-1.64c1.28-1.83 2.78-3.95 2.18-6.31-.53-1.01-1.19-1.95-1.83-2.88 1.17-.94 2.43-1.81 3.28-3.07.76-1.46.18-3.06-.18-4.53-1.02 1.2-1.89 2.57-3.17 3.51-1.65.9-3.53 1.16-5.33 1.6 1.05-2.97 2.74-5.65 4.62-8.16-1.29-1.34-5-2.08-3.37-4.43 2.37-.5 4.79-.65 7.19-.85.61-2.3 1.27-4.58 1.76-6.91z"/><path fill="#54514b" d="M195.88 224.49l3.75-1.82 2.36 3.54-3.68 4.74-.69-2.52c-.47-1.36-1.03-2.69-1.74-3.94z"/><path fill="#878788" d="M221.34 223.05l.81-.41c.69 2.99-2.52 4.45-4.22 6.3-3.04 2.44-5.19 6.08-9.03 7.39.68-2.28 1.54-4.52 2.9-6.48 3.09-2.39 6.03-5.03 9.54-6.8z"/><path fill="#888580" d="M266.16 223.01l.83-.34.83.34.34.84-.34.83-.82.35-.83-.35-.35-.83.34-.84z"/><path fill="#626363" d="M248.41 225.55c1.13-1.03 2.73-.54 4.09-.51l6.54 1.01 4.06.49c.05 3.49.02 6.98-.19 10.47-1.66-.1-3.32-.12-4.98-.14l2.83 1.96-1.56 1.03c-1.03-.44-2.07-.87-3.12-1.27l.24-.88-.41-.78-.74-.09c-3.32-.52-6.65.12-9.91.73-.68-2.31-1.44-4.73-3.45-6.25l.44-.38c2.06-1.79 3.97-3.76 6.16-5.39z"/><path fill="#909293" d="M201.99 226.21l.93 1.53c-1.46 3.35-2.41 6.91-3.88 10.27l-2.61-2.54c.76-1.44 1.43-2.94 1.88-4.52 1.26-1.55 2.49-3.12 3.68-4.74z"/><path fill="#515252" d="M263.1 226.54c2.68.06 4.4 2.26 6.18 3.95-.57 2.57-1.38 5.08-2.25 7.56l-4.12-1.04c.21-3.49.24-6.98.19-10.47z"/><path fill="#42423f" d="M292.3 228.23l5.52-2.37 3.95 5.05-1.6 3.06-3.61-2.85c-.03 4.02 4.28 5.66 5.71 8.96 1.06 2.38-1.02 4.4-1.54 6.61.11.99.28 1.97.48 2.95l2.61.39-2.24 1.5-1.18-.61c-1.97-.92-4.1-1.36-6.24-1.67-2.52-5.04-3.3-10.72-2.31-16.26l.45-4.76z"/><path fill="#5c5e5f" d="M318.32 226.08l.72-.41.71.42v.82l-.72.41-.71-.42v-.82z"/><path fill="#a29fa8" d="M317.99 228.66l4.66-1.76c.23 1.48-.23 3.35 1.1 4.41 1.52 1.63 3.93 1.37 5.94 1.71l-.62 2.23c-2.27-.63-4.49-1.37-6.63-2.32l-4.45-4.27z"/><path fill="#a09b96" d="M192.16 228.89c1.83.25 3.68.04 5.46-.46l.69 2.52c-.45 1.58-1.12 3.08-1.88 4.52l-1.18-1.13-.48 3.42-1.82 1.71c-1.01-2.45-.48-5.13-.51-7.69l-.28-2.89z"/><path fill="#dca98b" d="M329.69 233.02l6.94-4.22 2.37 1.58 3.21 3.77c-.3 1.37-.51 2.77-1.03 4.07-.91.95-2.03 1.65-3.08 2.44l-2.62-1.25a19.95 19.95 0 0 0-6.41-4.16l.62-2.23z"/><path fill="#5a5854" d="M339 230.38c4.91 2.57 9.95 4.96 15.39 6.23l-.93 1.18c-3.06 1.29-6.31 2.21-9.04 4.15-.13-2.73-.43-5.58-2.21-7.79a130 130 0 0 0-3.21-3.77z"/><path fill="#828079" d="M267.03 238.05l2.25-7.56.54.54 4.56 5.67-4.71-2.68c.43 7.37 3.17 14.36 3.52 21.74-.91 1.59-2.16 3.21-1.88 5.17.23 4.68.84 9.33.96 14.02l-2.01-.45c-.46 2.48-.52 5.42-2.75 7.06-3.57 2.88-8 4.83-12.56 5.4-5.13.55-9.75-3.07-14.88-2.13.55.64 1.12 1.28 1.7 1.91 2 2.06 4.31 3.8 6.76 5.29l-2.59 1.14c-2.29-.97-4.73-1.82-6.5-3.63-2.27-2.25-4.39-4.67-7.03-6.5l-.81-.65-1.39-6.41a49.65 49.65 0 0 1 5.29 4.08c1.49 1.29 3.19 2.32 4.92 3.28l-.41-5.33c-.46-5.14-.69-10.41 1-15.37.61 4.28.38 8.69 1.37 12.91 1.94 2.69 4.23 5.3 7.07 7.07 3.1.54 6.28.02 9.32-.66 1.9-.52 4.17-1.17 5.03-3.14 1.69-3.85 2.01-8.12 2.53-12.24.26-3.32.62-6.88-.78-10.01-1.4-1.34-3.15-2.22-4.8-3.19-.4-2.27-.88-4.54-1.63-6.72-.64-1.09-1.34-2.13-2.04-3.17l-.19-.28c.73-1.14 1.49-2.27 2.31-3.35l1.56-1.03-2.83-1.96c1.66.02 3.32.04 4.98.14 1.38.3 2.75.67 4.12 1.04z"/><path fill="#585856" d="M284.67 235.32c1.37-1.82 3.4-2.95 5.18-4.32l2 1.99c-.99 5.54-.21 11.22 2.31 16.26 2.14.31 4.27.75 6.24 1.67-1.73 1.04-3.7 1.32-5.67 1.09-.91-.24-1.7.27-2.05 1.11.35 3.34 1.45 6.55 2.16 9.82l-1.2 1.45c-1.34-3.66-2.22-7.45-2.98-11.26-.41-1.58-.58-3.7-2.51-4.14.7 9.82 4.27 19.19 4.87 29.05 1.06 5.48-2.97 10.54-1.37 16.01l3.62-1.83-.13 1.85c-.38.97-.81 1.93-1.3 2.86-1.94 1.3-4.35 1.53-6.53 2.23l-2.61-2.63c-4.36 1.48-8.24 4.31-12.89 4.87l-.78-.46c1.25-2.05 3.04-3.67 5.2-4.71 2.73-1.55 6-3.22 6.89-6.5.65-2.7 1.29-5.47 1.18-8.26l-.9-.75c1.25-2.56 2.14-5.27 3.04-7.97-1.13.15-2.23.36-3.33.64l2.51-4.15c-.62-1.36-1.49-2.65-1.69-4.15.56-1.36 1.3-2.64 1.94-3.96l-.3-1.13-.22-.73-1.69.46-5.42 3.27c-.85.54-1.65 1.14-2.41 1.79-.59 1.14.08 2.44.15 3.64.25 1.5.63 3 .6 4.53-1.24 2.84-3.1 5.37-4.13 8.31.01-2.11-.08-4.22-.18-6.32-.12-4.69-.73-9.34-.96-14.02-.28-1.96.97-3.58 1.88-5.17a66.11 66.11 0 0 1 2.83-.29l2.6.18c-.1 2.14-.09 4.29-.09 6.44l3.42-5.72 3.8 1.41c.83-3.54 1.37-7.14 1.65-10.76l-4.86-.81-.26-3.79c1.02-.67 2.37-.99 3.1-2.03.02-1.72-.52-3.37-.71-5.07z"/><path fill="#858589" d="M314.57 233.61l3.05-2.72 2.82 2.12 2-.08c2.14.95 4.36 1.69 6.63 2.32l-4.4 1.14-.11 2.33c-.92.87.08 3.49 1.16 1.78l-.29-1.8.97-1.83c.81.75 1.67 1.69 1.31 2.91-.95 1.8-2.75 2.92-4.13 4.35-1.36-1.82-3.53.58-2.21 2.1-1.19.94-2.47 1.75-3.87 2.32-2.85-2.2-5.75-4.41-7.75-7.45 1.6-2.5 3.14-5.04 4.82-7.49m.88 2.84c-1.27 1.32-2 3.03-2.92 4.59 1.63 2.06 3.42 4.22 6.12 4.84.98-1.39 2.2-2.64 2.89-4.21.58-1.49-.96-2.47-1.85-3.35-1.23-.86-2.64-2.22-4.24-1.87z"/><path fill="#3f3f3d" d="M187.74 237.61c1.45-2.03 3.04-3.96 4.7-5.83.03 2.56-.5 5.24.51 7.69 2.08 2.99 3.58 6.33 4.27 9.91 1.4 5.18.36 10.97 3.57 15.59l1.25 2.03c.63 5.02.69 10.09.08 15.12.04 1.79-.78 4.59 1.42 5.42 4.31 1.86 9.06 2.23 13.62 3.16a68.84 68.84 0 0 0 1.3 2.93l-1.3-.88c-2.12-1.89-5.18-2.8-7.54-.78a78.45 78.45 0 0 1-1.29-1.29c-3.08 1.17-6.47 1.25-9.31-.62l-.18-.8 2.87-.55-1.42-1.58-1.27-6.08c2.3-6.05 1.31-13.09-2.6-18.24l-.01-1.87.03-2.64c-.15-3.59-3.2-5.9-5.26-8.5l-1.27.83c-2.38 1.47-5.35 2.83-5.65 5.98l-1.95.57-1.73-.11c-.68-3.1-.28-6.27.87-9.2l-2.22 1.07c-1.26-2.39-2.21-5.09-4.23-6.97-1.54-.7-3.2-1.1-4.82-1.56 2.49-1.03 4.87-2.3 7.2-3.64-2.1-.45-4.22-.81-6.37-.92 2.19-.85 4.47-1.77 6.87-1.64 1.9.26 3.6 1.22 5.35 1.97l1.05-3.13c1.3 1.4 2.4 2.96 3.46 4.56m-7.62-.89c.84 1.97 3.05 6.78 5.24 3.33.34-2.96-3.3-2.68-5.24-3.33m8.74 12.37l2.96-.19.01-2.93c-1.51.51-3.28 1.15-2.97 3.12z"/><path fill="#82827b" d="M234.07 248.81c-.1-6.57 2.24-13.52 7.74-17.49 2.01 1.52 2.77 3.94 3.45 6.25 3.26-.61 6.59-1.25 9.91-.73l.12 1.78-1.42.91c-4.01 1.58-8.34.55-12.48 1.13-3.36 2.03-3.51 6.46-4.42 9.87l-2.47.04-.43-1.76z"/><path fill="#64615a" d="M269.67 234.02l4.71 2.68c2.88 1.53 5.77 3.17 7.9 5.72l.26 3.79c-.41 1.27-.6 2.71-1.54 3.73-1.24.53-2.54.91-3.82 1.33l1.01-2.21 1.36-.88c1.07-2.64-1.1-5.16-2.29-7.36l.75 7.3-1.41-1.29c-.98 2.77-2.46 5.87-.58 8.64l-2.83.29c-.35-7.38-3.09-14.37-3.52-21.74z"/><path fill="#969082" d="M275.31 234.32h.45l.01.45h-.45l-.01-.45z"/><path fill="#be8869" d="M342.21 234.15c1.78 2.21 2.08 5.06 2.21 7.79l-3.96 3.83a34.09 34.09 0 0 1-4.98-6.36l2.62 1.25c1.05-.79 2.17-1.49 3.08-2.44.52-1.3.73-2.7 1.03-4.07z"/><path fill="#5f5f5f" d="M329.07 235.25a19.95 19.95 0 0 1 6.41 4.16 34.09 34.09 0 0 0 4.98 6.36c2.1 2.24 4.83 4.51 4.76 7.88-2.14 1.69-4.26 3.51-5.63 5.91-1.56 2.74-2.52 5.77-4.18 8.46l-1.62-3.49c-1.94-3.23-4.58-5.93-7.03-8.77-1.81 1.67-3.29 3.66-4.05 6.02l2 .97 2.68-3.56a66.89 66.89 0 0 0 .94 1.38c-.98 2.97-1.73 6.24.22 9.01.35 1.56.58 3.14.81 4.73-.92-2.5-2.53-4.6-4.55-6.3-1.75-1.46-2.3-3.74-3.4-5.64-1.07-.62-2.25-1.01-3.38-1.46-.93 1.67-1.47 3.5-1.59 5.41-.22 3.01-1.63 5.72-2.3 8.62.05 2.7 2.15 4.61 4.42 5.71 1.92-1.67 4.09-3.43 6.81-2.62-2.46 4.31-6.19 8.01-7.22 13l-.95.91c-1.19-2.69-2.84-5.15-4.81-7.33-2.74-3.11-4.83-6.69-7.23-10.06-2 .85-4.1.71-6.04-.22l-1.02-2.57c.25-4.82 5.31-7.79 5.57-12.62-.3-2.62-1.22-5.13-2.09-7.61l2.24-1.5c1.18-.67 2.42-1.55 3.87-1.32 3.26.17 6.56.4 9.81-.16 1.4-.57 2.68-1.38 3.87-2.32.81-.61 1.55-1.31 2.21-2.1 1.38-1.43 3.18-2.55 4.13-4.35.36-1.22-.5-2.16-1.31-2.91l-.97 1.83-.87.02c.05-.78.08-1.55.11-2.33l4.4-1.14z"/><path fill="#6a6967" d="M163.78 244.72c1.78-3.41 4.49-6.21 7.23-8.87 2.15.11 4.27.47 6.37.92-2.33 1.34-4.71 2.61-7.2 3.64 1.62.46 3.28.86 4.82 1.56 2.02 1.88 2.97 4.58 4.23 6.97l-2.39 1.07c-.37-2.52-.94-5.37-3.2-6.9-5.02-1.41-9.01 3.47-9.58 8.02-.33-2.09-1.4-4.39-.28-6.41z"/><path fill="#fed661" d="M315.45 236.45c1.6-.35 3.01 1.01 4.24 1.87.89.88 2.43 1.86 1.85 3.35-.69 1.57-1.91 2.82-2.89 4.21-2.7-.62-4.49-2.78-6.12-4.84.92-1.56 1.65-3.27 2.92-4.59z"/><path fill="#5e5e5d" d="M180.12 236.72c1.94.65 5.58.37 5.24 3.33-2.19 3.45-4.4-1.36-5.24-3.33z"/><path fill="#b8b9bb" d="M255.17 236.84l.74.09.41.78-.24.88-.79.03-.12-1.78z"/><path fill="#a8aaa7" d="M208.28 238.27h.45v.45h-.45v-.45z"/><path opacity=".13" d="M344.42 241.94c2.73-1.94 5.98-2.86 9.04-4.15l.27 4.02c2.74 1.5 5.92 1.44 8.93 1l-1.28 4.26 4.12 2.66.16-4.3c2.56.51 5.45.4 7.66 1.97.6 1.09.97 2.3 1.41 3.48-2.34.65-5.33.75-6.67 3.12-.02 2.4 3.06 1.74 4.64 2.43.07 3.6-1.28 6.93-3.47 9.75 1.89 1.96 3.65 4.11 4.65 6.69-2.21.82-4.56 1.66-6.01 3.64 2.26.13 4.52.18 6.78.11-1.55 2.02-2.47 4.41-2.44 6.97-4.91.41-9.84-.06-14.74.27-2.22 1.21-3.94 3.18-6.22 4.3-2.19.25-4.37-.17-6.55-.22-5.9-.16-11.8.5-17.69.04-1.61-.03-2.94-1-4.29-1.74 1.95-2.49 5.2-3.12 7.68-4.88 2.13-1.89 3.63-4.34 5.39-6.56 2.99-4.01 6.45-7.81 8.36-12.5 1.15-2.73 1.16-5.75 1.07-8.65.07-3.37-2.66-5.64-4.76-7.88 1.29-1.3 2.59-2.61 3.96-3.83z"/><path fill="#565960" d="M253.87 239.53l1.42-.91.79-.03 3.12 1.27-2.31 3.35-.36.59-1.25 1.16-.33-1.54-1.08-3.89m2.4 1.8v.44l.45.01v-.45h-.45z"/><path fill="#b1afb7" d="M325.72 240.5c-1.08 1.71-2.08-.91-1.16-1.78l.87-.02.29 1.8z"/><path fill="#96958d" d="M241.39 240.66c4.14-.58 8.47.45 12.48-1.13l1.08 3.89c-1.27-.57-3.54.71-2.14 2.1l1.28.67-.79 2.23c-1.2 3.36-1.36 6.96-1.28 10.49a63.65 63.65 0 0 0 1.35-.91l-.03 2.32v.38l.06 3.74 2.03-.45c.12-.03.36-.07.48-.1l3.25-.52c-.23-5.57-.74-11.16-.04-16.71.75 2.18 1.23 4.45 1.63 6.72 1.65.97 3.4 1.85 4.8 3.19 1.4 3.13 1.04 6.69.78 10.01-.52 4.12-.84 8.39-2.53 12.24-.86 1.97-3.13 2.62-5.03 3.14-3.04.68-6.22 1.2-9.32.66-2.84-1.77-5.13-4.38-7.07-7.07-.99-4.22-.76-8.63-1.37-12.91-.21-1.5.01-3.32-1.39-4.31-2.4-2.09-4.73-4.43-5.12-7.76l2.47-.04c.91-3.41 1.06-7.84 4.42-9.87z"/><path fill="#9a9ea2" d="M256.27 241.33h.45v.45l-.45-.01v-.44z"/><path fill="#424140" d="M277.26 240.82c1.19 2.2 3.36 4.72 2.29 7.36l-1.36.88-.18-.94c-.41-2.42-.61-4.86-.75-7.3z"/><path fill="#3c3d3b" d="M206.39 241.93l4.12.39 1.22 3.61c-.48 2.3-2.17 3.93-3.86 5.41-1.03-3.03-1.48-6.21-1.48-9.41z"/><path fill="#b88869" d="M164.06 251.13c.57-4.55 4.56-9.43 9.58-8.02 2.26 1.53 2.83 4.38 3.2 6.9-.11 3.62.31 7.24 1.95 10.52l-1.55 2.66c-1.97.34-3.94.69-5.89 1.11-2.63.32-4.74 1.97-6.76 3.55.31-5.56.9-11.26-.53-16.72z"/><path fill="#b3b5b7" d="M252.81 245.52c-1.4-1.39.87-2.67 2.14-2.1l.33 1.54-1.19 1.23-1.28-.67z"/><path fill="#d8dbdd" d="M256.53 243.8l.36-.59.19.28-.55.31z"/><path fill="#a3a3ad" d="M321.37 246.23c-1.32-1.52.85-3.92 2.21-2.1-.66.79-1.4 1.49-2.21 2.1z"/><path fill="#7a7774" d="M203.85 243.92l2.41 1.16c-.4 1.58.98 4.81-1.17 5.16-2.03-1.3-2-4.26-1.24-6.32z"/><path fill="#7a818c" d="M256.53 243.8l.55-.31 2.04 3.17c-.7 5.55-.19 11.14.04 16.71l-3.25.52c-.12.03-.36.07-.48.1l-2.03.45-.06-3.74v-.38l.03-2.32c.46-1.45.89-2.9 1.28-4.37.66 2.25 1.42 4.47 2.2 6.68.09-2.56.12-5.11.03-7.67l-3.36.3-.22-4.52.79-2.23c.3-.3.89-.92 1.19-1.23l1.25-1.16m-1.22 5.47v.45l.45.01.01-.46h-.46z"/><path fill="#6f6e6f" d="M188.86 249.09c-.31-1.97 1.46-2.61 2.97-3.12l-.01 2.93-2.96.19z"/><path fill="#87837c" d="M217 247.99c1.12-.99 2.56-1.52 3.86-2.22-1.13 3.4-2.43 6.86-2 10.51-2.68 7.49-3.66 15.62-2.32 23.49 2.04 5.5 5 10.7 6.05 16.56-1.39-.89-2.79-1.76-4.13-2.7a68.84 68.84 0 0 1-1.3-2.93c-3.32-6.8-4.24-14.41-4.45-21.88.37-5.55 1.37-11.03 2.54-16.46.39-1.52.7-3.15 1.75-4.37z"/><path fill="#737373" d="M282.54 246.21l4.86.81c-.28 3.62-.82 7.22-1.65 10.76l-3.8-1.41-3.42 5.72c0-2.15-.01-4.3.09-6.44l-2.6-.18c-1.88-2.77-.4-5.87.58-8.64l1.41 1.29.18.94-1.01 2.21c1.28-.42 2.58-.8 3.82-1.33.94-1.02 1.13-2.46 1.54-3.73m1.74 10.07v.45h.45v-.45h-.45z"/><path fill="#5f605e" d="M218.86 256.28c1.53-3.44 2.15-7.94 6.09-9.5 1.58 2.34 3.3 4.57 5.03 6.8l-1.2 1.64-4.48 1.29c-.83 4.15-1.31 8.35-2.23 12.49-1.01 4.12.54 8.26 1.47 12.25.36 2.08 1.75 3.66 3.17 5.13 1.93 2.61 3.87 5.24 6.11 7.61-.64-2.04-1.35-4.05-2.22-5.99 2.07 1.51 3.37 3.72 4.5 5.97 3.25.94 5.33 3.54 6.52 6.58-1.49-.06-3.08.08-4.42-.69-3.96-2.05-7.77-4.38-11.6-6.65l-1.11 3.36-2.98 1.26c-1.94-1.24-3.2-3.15-4.35-5.08l1.3.88c1.34.94 2.74 1.81 4.13 2.7-1.05-5.86-4.01-11.06-6.05-16.56-1.34-7.87-.36-16 2.32-23.49z"/><path fill="#161617" d="M179.23 248.94l2.22-1.07c-1.15 2.93-1.55 6.1-.87 9.2l1.73.11c-1.62.59-2.76 1.83-3.52 3.35-1.64-3.28-2.06-6.9-1.95-10.52l2.39-1.07z"/><path fill="#686a69" d="M234.07 248.81l.43 1.76c.39 3.33 2.72 5.67 5.12 7.76 1.4.99 1.18 2.81 1.39 4.31-1.69 4.96-1.46 10.23-1 15.37l-2.24-1.01-2.27 3.06a49.65 49.65 0 0 0-5.29-4.08c.43 2.14.91 4.27 1.39 6.41-1.15 1.66-1.17 3.67-1 5.61-3.44-5.82-2.82-12.79-2.68-19.26l2.51 2.82.91-1.19a46.39 46.39 0 0 1 4.36.67c.21-3.33.57-6.68.19-10.01-.27-2.1-1.86-3.73-2.28-5.77-.06-2.16.32-4.3.46-6.45z"/><path fill="#babdc2" d="M252.02 258.91c-.08-3.53.08-7.13 1.28-10.49.04 1.5.14 3.01.22 4.52l3.36-.3c.09 2.56.06 5.11-.03 7.67-.78-2.21-1.54-4.43-2.2-6.68-.39 1.47-.82 2.92-1.28 4.37a63.65 63.65 0 0 1-1.35.91z"/><path fill="#fff" d="M255.31 249.27h.46l-.01.46-.45-.01v-.45z"/><path fill="#86827a" d="M288.15 248.99c1.93.44 2.1 2.56 2.51 4.14.76 3.81 1.64 7.6 2.98 11.26 2.88 9.02 2.29 18.53 1.63 27.83l-3.62 1.83c-1.6-5.47 2.43-10.53 1.37-16.01-.6-9.86-4.17-19.23-4.87-29.05z"/><path fill="#242526" opacity=".86" d="M189.91 250.63l1.27-.83c2.06 2.6 5.11 4.91 5.26 8.5l-2.51-1.01-1.55-3.13c-1.67.46-3.32.96-4.87 1.72.66-1.81 1.5-3.55 2.4-5.25z"/><path fill="#646466" d="M184.26 256.61c.3-3.15 3.27-4.51 5.65-5.98-.9 1.7-1.74 3.44-2.4 5.25l-.66 5.95c-.7-1.82-1.57-3.56-2.59-5.22z"/><path fill="#7d7d74" d="M292.68 253.12c.35-.84 1.14-1.35 2.05-1.11 1.97.23 3.94-.05 5.67-1.09l1.18.61c.87 2.48 1.79 4.99 2.09 7.61-.26 4.83-5.32 7.8-5.57 12.62l-.44 3.29c-1-4.03-1.55-8.15-2.82-12.11-.71-3.27-1.81-6.48-2.16-9.82z"/><path fill="#505150" d="M187.51 255.88c1.55-.76 3.2-1.26 4.87-1.72l1.55 3.13 2.51 1.01-.03 2.64c-2.37.2-4.77.8-6.43 2.62l-.94 1.23-2.34 2.87c.92 3.36 2.15 6.74 2.11 10.27-.68 2.28-2.33 4.12-3.44 6.22-2.12-2.75-5.55-3.71-8.52-5.2-.53-3.69.96-7.17 2.12-10.57-4.11-.45-8.08.76-11.64 2.74a80.21 80.21 0 0 0 4.02-6.82c1.95-.42 3.92-.77 5.89-1.11l1.55-2.66c2.14-.81 4.03-2.13 5.47-3.92 1.02 1.66 1.89 3.4 2.59 5.22.19-1.98.42-3.97.66-5.95z"/><path fill="#4a4b4b" d="M339.59 259.56c1.37-2.4 3.49-4.22 5.63-5.91.09 2.9.08 5.92-1.07 8.65-1.91 4.69-5.37 8.49-8.36 12.5-1.76 2.22-3.26 4.67-5.39 6.56-2.48 1.76-5.73 2.39-7.68 4.88-1.44 1.67-2.94 3.3-4.57 4.79 1.03-4.99 4.76-8.69 7.22-13 1.3-1.27 2.68-2.46 3.99-3.72l6.05-6.29c1.66-2.69 2.62-5.72 4.18-8.46z"/><path fill="#76736d" d="M224.3 256.51l4.48-1.29.16 2.17 2.13-1.04c.24 4.67.42 9.34.27 14.02-.22.3-.68.89-.91 1.19l-2.51-2.82c0-1.97-.1-3.93-.22-5.88-3.61 7.41-2.12 15.73-.99 23.52-1.42-1.47-2.81-3.05-3.17-5.13-.93-3.99-2.48-8.13-1.47-12.25.92-4.14 1.4-8.34 2.23-12.49z"/><path fill="#cecbce" d="M284.28 256.28h.45v.45h-.45v-.45z"/><path fill="#3e3f3e" d="M322.71 261.78c.76-2.36 2.24-4.35 4.05-6.02 2.45 2.84 5.09 5.54 7.03 8.77-1.72 1.71-3.46 3.4-5.24 5.05-1.95-2.77-1.2-6.04-.22-9.01a66.89 66.89 0 0 1-.94-1.38l-2.68 3.56-2-.97z"/><path fill="#0f0d0d" opacity=".34" d="M182.31 257.18l1.95-.57c-1.44 1.79-3.33 3.11-5.47 3.92.76-1.52 1.9-2.76 3.52-3.35z"/><path fill="#8c8c83" d="M200.79 264.97c2.86-3.09 5.99-6.19 10.14-7.4.63 6.27-1.93 12.56.17 18.71l-1.18 2.29c-2.41-1.55-5.65-3.22-5.51-6.56.09-2.04-.91-3.68-2.37-5.01l-1.25-2.03z"/><path fill="#838387" d="M283.66 259.73l1.69-.46.22.73-.68.53-.84-.13-.39-.67z"/><path fill="#c7c9cd" d="M253.34 260.7v-.38.38z"/><path fill="#494947" d="M278.24 263l5.42-3.27.39.67.84.13.68-.53.3 1.13-1.94 3.96c.2 1.5 1.07 2.79 1.69 4.15l-2.51 4.15c1.1-.28 2.2-.49 3.33-.64l-3.04 7.97c-2.82 4.96-5.52 10.02-7.17 15.51-2.16 1.04-3.95 2.66-5.2 4.71-.81-1.24-1.1-2.96-2.43-3.75-8.24-2.02-16.94-2.02-25.16.07l-1.38 4.08c-2.57.39-5.22.85-7.78.13-4.29-1.07-8.61-2.11-12.77-3.64l2.98-1.26 1.11-3.36c3.83 2.27 7.64 4.6 11.6 6.65 1.34.77 2.93.63 4.42.69-1.19-3.04-3.27-5.64-6.52-6.58-1.13-2.25-2.43-4.46-4.5-5.97-.17-1.94-.15-3.95 1-5.61l.81.65c3.13 4.71 6.78 9.47 12.01 11.95 4.99.66 9.98-1.13 15-.83l1.03.19c2.56.74 5.44 1.65 7.89.02 3.47-2.09 7.58-4.74 8.11-9.13 1.73-.75 3.72-1.36 4.84-3 1.58-2.16 1.67-4.93 1.9-7.48-1.94 1.87-3.41 4.15-5.27 6.09-1.65 1.02-3.51 1.6-5.3 2.31l3.04 2.39c-1.3.53-2.73.95-3.72 2.01-.08.11-.22.33-.3.44a56.27 56.27 0 0 0-1.3 3.34l-2.18.91c-.24-4.2 3.15-7.18 4.29-10.98 1.03-2.94 2.89-5.47 4.13-8.31.03-1.53-.35-3.03-.6-4.53l2.61-1.93-.35-3.5m2.97-.14c-.65 3.1-.71 6.29-.24 9.43 1.94-2.67 2.18-6.7.24-9.43m-46.98 37.49v.46l.45-.01v-.45h-.45z"/><path fill="#717373" d="M189.98 263.56c1.66-1.82 4.06-2.42 6.43-2.62l.01 1.87.03 3.6-1.13 1.58-.44-6.55-.94 1.69c-.99 6.45 2 12.95.34 19.37-2.84-5.93-2.25-12.76-4.3-18.94z"/><path fill="#313333" d="M318.03 260.91c1.13.45 2.31.84 3.38 1.46 1.1 1.9 1.65 4.18 3.4 5.64 2.02 1.7 3.63 3.8 4.55 6.3l-3.99 3.72c-2.72-.81-4.89.95-6.81 2.62-2.27-1.1-4.37-3.01-4.42-5.71.67-2.9 2.08-5.61 2.3-8.62.12-1.91.66-3.74 1.59-5.41z"/><path fill="#8a8b8e" d="M193.94 263.13l.94-1.69.44 6.55 1.13-1.58c1.29 4.86-1.06 10.45 2.57 14.64.46 2.01.86 4.04 1.27 6.08-2.21-.44-3.71-2.23-5.67-3.18-1.36-.77-3.23-1.36-3.27-3.23-.96-5.28-1.15-10.68-2.31-15.93l.94-1.23c2.05 6.18 1.46 13.01 4.3 18.94 1.66-6.42-1.33-12.92-.34-19.37z"/><path fill="#54514d" d="M196.45 266.41l-.03-3.6c3.91 5.15 4.9 12.19 2.6 18.24-3.63-4.19-1.28-9.78-2.57-14.64z"/><path fill="#a39e94" d="M226.71 286.38c-1.13-7.79-2.62-16.11.99-23.52.12 1.95.22 3.91.22 5.88-.14 6.47-.76 13.44 2.68 19.26.87 1.94 1.58 3.95 2.22 5.99-2.24-2.37-4.18-5-6.11-7.61z"/><path fill="#d1d5da" d="M255.43 263.99l.48-.1-.48.1z"/><path fill="#7d4849" d="M275.83 264.79c.76-.65 1.56-1.25 2.41-1.79l.35 3.5-2.61 1.93c-.07-1.2-.74-2.5-.15-3.64z"/><path fill="#706d6b" d="M281.21 262.86c1.94 2.73 1.7 6.76-.24 9.43-.47-3.14-.41-6.33.24-9.43z"/><path fill="#51514d" d="M293.64 264.39l1.2-1.45c1.27 3.96 1.82 8.08 2.82 12.11l.44-3.29 1.02 2.57c-.01 1.73-.17 3.46-.34 5.19-.93 3.07-1.54 6.24-1.6 9.46 2.7-.45 5.13-1.72 7.31-3.34l2.51 2.94c-4.17 1.15-9.22 1.59-11.86 5.49l.13-1.85c.66-9.3 1.25-18.81-1.63-27.83z"/><path fill="#5d5e5c" d="M164.59 267.85c2.02-1.58 4.13-3.23 6.76-3.55l-4.02 6.82c3.56-1.98 7.53-3.19 11.64-2.74-1.16 3.4-2.65 6.88-2.12 10.57 1.52 2.89 3.51 7.65 7.52 6.85l1-1.65c1.11-2.1 2.76-3.94 3.44-6.22.04-3.53-1.19-6.91-2.11-10.27l2.34-2.87c1.16 5.25 1.35 10.65 2.31 15.93.04 1.87 1.91 2.46 3.27 3.23 1.96.95 3.46 2.74 5.67 3.18l1.42 1.58-2.87.55-.85.18c-.24 1.77-.39 3.56-.54 5.36-1.53.03-3.07.17-4.58-.03-2-.79-3.46-2.48-5.08-3.82l-5.79 2.88c-2.36-1.27-4.66-2.7-7.18-3.65-1.75-.22-3.42.62-5.09 1-1.23-1.72-2.15-3.82-4.02-4.95-1.38-.15-2.73.25-4.07.46 2.57-5.99 1.93-12.55 2.95-18.84z"/><path fill="#6f7074" d="M333.79 264.53l1.62 3.49-6.05 6.29-.81-4.73 5.24-5.05z"/><path fill="#75766d" d="M202.04 267c1.46 1.33 2.46 2.97 2.37 5.01-.14 3.34 3.1 5.01 5.51 6.56l1.18-2.29c.99-2.37 1.3-4.94 1.61-7.46.21 7.47 1.13 15.08 4.45 21.88-4.56-.93-9.31-1.3-13.62-3.16-2.2-.83-1.38-3.63-1.42-5.42.61-5.03.55-10.1-.08-15.12z"/><path fill="#686762" d="M270.26 274.5l2.01.45.18 6.32c-1.14 3.8-4.53 6.78-4.29 10.98l2.18-.91a56.27 56.27 0 0 1 1.3-3.34c.08-.11.22-.33.3-.44.99-1.06 2.42-1.48 3.72-2.01l.79-.31c-.53 4.39-4.64 7.04-8.11 9.13-2.45 1.63-5.33.72-7.89-.02 2.47-.54 5.83-.42 7.04-3.12-2.9.19-6.61-.25-8.07 2.93-5.02-.3-10.01 1.49-15 .83-5.23-2.48-8.88-7.24-12.01-11.95 2.64 1.83 4.76 4.25 7.03 6.5 1.77 1.81 4.21 2.66 6.5 3.63l2.59-1.14c2.73.21 5.46.63 8.2.48 2.71-.29 5.06-1.82 7.4-3.1-2.33-1.25-4.91-.2-7.35 0-5.18.71-10.05-1.66-15.01-2.67-.58-.63-1.15-1.27-1.7-1.91 5.13-.94 9.75 2.68 14.88 2.13 4.56-.57 8.99-2.52 12.56-5.4 2.23-1.64 2.29-4.58 2.75-7.06z"/><path fill="#727373" d="M299.12 274.33c1.94.93 4.04 1.07 6.04.22 2.4 3.37 4.49 6.95 7.23 10.06 1.97 2.18 3.62 4.64 4.81 7.33-1.39.7-2.81 1.33-4.25 1.89-1.49-3.8-4.57-6.57-7.07-9.68-1.59-2-3.55-3.64-5.62-5.11l-.24 1.72-1.24-1.24c.17-1.73.33-3.46.34-5.19z"/><path fill="#2e3032" d="M277.92 280.85c1.86-1.94 3.33-4.22 5.27-6.09-.23 2.55-.32 5.32-1.9 7.48-1.12 1.64-3.11 2.25-4.84 3l-.79.31-3.04-2.39c1.79-.71 3.65-1.29 5.3-2.31z"/><path fill="#4c4e4e" d="M235.5 280.06l2.27-3.06 2.24 1.01.41 5.33c-1.73-.96-3.43-1.99-4.92-3.28z"/><path fill="#3c3f3d" d="M176.85 278.95c2.97 1.49 6.4 2.45 8.52 5.2l-1 1.65c-4.01.8-6-3.96-7.52-6.85z"/><path fill="#7e7f82" opacity=".97" d="M300.26 279.04c2.07 1.47 4.03 3.11 5.62 5.11 2.5 3.11 5.58 5.88 7.07 9.68l-1.97.59c-1.24-2.01-2.47-4.03-3.98-5.84l-2.51-2.94c-1.43-1.68-2.93-3.3-4.47-4.88l.24-1.72z"/><path fill="#67685f" d="M297.18 288.98c.06-3.22.67-6.39 1.6-9.46l1.24 1.24 4.47 4.88c-2.18 1.62-4.61 2.89-7.31 3.34z"/><path fill="#75716a" d="M283.4 280.72l.9.75c.11 2.79-.53 5.56-1.18 8.26-.89 3.28-4.16 4.95-6.89 6.5 1.65-5.49 4.35-10.55 7.17-15.51z"/><path fill="#81807e" d="M161.64 286.69c1.34-.21 2.69-.61 4.07-.46 1.87 1.13 2.79 3.23 4.02 4.95 1.93 3.93 7.49 3.66 9.27 7.76-6.66-1.44-12.63-5.27-17.29-10.18l-.07-2.07z"/><path fill="#393837" d="M241.77 286.74c4.96 1.01 9.83 3.38 15.01 2.67 2.44-.2 5.02-1.25 7.35 0-2.34 1.28-4.69 2.81-7.4 3.1-2.74.15-5.47-.27-8.2-.48-2.45-1.49-4.76-3.23-6.76-5.29z"/><path fill="#c8c5c8" d="M271.64 288l.3-.44-.3.44z"/><path fill="#4e5050" d="M161.71 288.76c4.66 4.91 10.63 8.74 17.29 10.18-1.78-4.1-7.34-3.83-9.27-7.76 1.67-.38 3.34-1.22 5.09-1 2.52.95 4.82 2.38 7.18 3.65l5.79-2.88c1.62 1.34 3.08 3.03 5.08 3.82 1.51.2 3.05.06 4.58.03.15-1.8.3-3.59.54-5.36l.85-.18.18.8.62 3.44c2.45.33 4.91.61 7.38.54-7.06 1.34-14.04 3.68-21.29 3.51-2.22.38-3.75 2.43-5.94 2.97-4.85 1.07-10.69 2.35-14.66-1.55 2.81 1.27 5.84 1.93 8.9 2.26-3.68-2.39-7.57-4.48-10.95-7.29l-.3 3.08c-.65-2.71-.92-5.49-1.07-8.26z"/><path fill="#585450" opacity=".96" d="M199.02 290.06c2.84 1.87 6.23 1.79 9.31.62l1.29 1.29-2.6 2.07c-2.47.07-4.93-.21-7.38-.54l-.62-3.44z"/><path fill="#909090" d="M259.42 294.16c1.46-3.18 5.17-2.74 8.07-2.93-1.21 2.7-4.57 2.58-7.04 3.12l-1.03-.19z"/><path fill="#726f6c" opacity=".96" d="M163.08 293.94c3.38 2.81 7.27 4.9 10.95 7.29-3.06-.33-6.09-.99-8.9-2.26a34.22 34.22 0 0 1-2.35-1.95l.3-3.08z"/><path fill="#444544" d="M271.81 301.4c4.65-.56 8.53-3.39 12.89-4.87l2.61 2.63c-5 1.49-10.24 4.65-15.5 2.24z"/><path fill="#a5a2a5" d="M234.23 300.35h.45v.45l-.45.01v-.46z"/></svg>