<?xml version="1.0" encoding="UTF-8" ?>
<!DOCTYPE svg PUBLIC "-//W3C//DTD SVG 1.1//EN" "http://www.w3.org/Graphics/SVG/1.1/DTD/svg11.dtd">
<svg width="512pt" height="512pt" viewBox="0 0 512 512" version="1.1" xmlns="http://www.w3.org/2000/svg">
<g id="#414140ad">
<path fill="#414140" opacity="0.68" d=" M 270.00 172.87 C 272.07 171.21 274.92 171.35 277.13 172.64 C 274.79 173.23 272.37 173.30 270.00 172.87 Z" />
</g>
<g id="#898786ff">
<path fill="#898786" opacity="1.00" d=" M 268.60 173.70 C 268.95 173.49 269.65 173.08 270.00 172.87 C 272.37 173.30 274.79 173.23 277.13 172.64 L 277.87 172.96 C 277.74 174.10 277.60 175.24 277.47 176.38 C 275.76 176.64 274.05 176.91 272.33 177.07 C 271.03 176.95 269.74 176.77 268.45 176.60 C 268.49 175.63 268.55 174.66 268.60 173.70 Z" />
</g>
<g id="#656461ff">
<path fill="#656461" opacity="1.00" d=" M 277.87 172.96 C 279.46 173.74 280.90 174.78 282.20 175.99 C 282.30 177.26 282.41 178.54 282.52 179.83 C 279.70 180.09 276.87 180.23 274.05 180.04 C 273.47 179.05 272.90 178.06 272.33 177.07 C 274.05 176.91 275.76 176.64 277.47 176.38 C 277.60 175.24 277.74 174.10 277.87 172.96 Z" />
</g>
<g id="#505250ff">
<path fill="#505250" opacity="1.00" d=" M 260.06 183.05 C 262.46 179.58 265.31 176.36 268.60 173.70 C 268.55 174.66 268.49 175.63 268.45 176.60 C 269.74 176.77 271.03 176.95 272.33 177.07 C 272.90 178.06 273.47 179.05 274.05 180.04 C 276.87 180.23 279.70 180.09 282.52 179.83 C 282.41 178.54 282.30 177.26 282.20 175.99 C 286.00 179.54 290.36 182.42 294.60 185.43 C 296.35 186.53 296.95 188.59 297.88 190.32 C 296.48 194.23 299.22 197.94 298.88 201.83 C 297.92 205.08 294.83 207.33 294.34 210.76 C 294.09 213.84 294.45 217.00 296.01 219.72 C 296.88 222.26 297.47 224.90 297.75 227.58 C 297.42 227.75 296.76 228.10 296.42 228.27 C 289.10 221.45 279.11 219.26 270.08 215.70 C 269.95 215.44 269.68 214.94 269.54 214.68 C 275.26 215.39 281.02 216.54 286.05 219.48 C 288.05 220.50 290.17 221.26 292.31 221.93 C 292.41 216.05 290.57 210.41 289.32 204.73 C 291.70 205.27 294.88 208.29 296.55 205.07 C 295.33 203.38 294.07 201.74 292.68 200.19 C 292.57 198.47 292.58 196.74 292.62 195.01 C 292.51 193.79 292.93 192.11 291.50 191.54 C 286.40 188.79 280.70 187.38 275.17 185.80 C 272.24 185.18 269.17 184.42 266.19 185.12 C 263.61 185.95 261.60 187.88 259.46 189.45 C 259.24 187.33 258.65 184.91 260.06 183.05 Z" />
</g>
<g id="#5e6162ff">
<path fill="#5e6162" opacity="1.00" d=" M 259.46 189.45 C 261.60 187.88 263.61 185.95 266.19 185.12 C 269.17 184.42 272.24 185.18 275.17 185.80 C 274.27 186.26 273.38 186.72 272.49 187.18 C 272.75 187.69 273.26 188.72 273.52 189.23 C 273.08 189.69 272.20 190.59 271.76 191.04 C 270.22 191.14 268.70 191.25 267.17 191.36 C 268.52 192.28 269.87 193.20 271.24 194.09 C 269.37 193.66 267.50 193.27 265.64 192.80 C 263.72 192.33 261.77 192.02 259.82 191.74 C 259.73 191.16 259.55 190.02 259.46 189.45 Z" />
</g>
<g id="#6d6f6fff">
<path fill="#6d6f6f" opacity="1.00" d=" M 275.17 185.80 C 280.70 187.38 286.40 188.79 291.50 191.54 C 292.93 192.11 292.51 193.79 292.62 195.01 C 286.17 193.36 279.95 190.97 273.52 189.23 C 273.26 188.72 272.75 187.69 272.49 187.18 C 273.38 186.72 274.27 186.26 275.17 185.80 Z" />
</g>
<g id="#98999dff">
<path fill="#98999d" opacity="1.00" d=" M 273.52 189.23 C 279.95 190.97 286.17 193.36 292.62 195.01 C 292.58 196.74 292.57 198.47 292.68 200.19 C 291.49 198.38 290.38 196.18 288.00 195.84 C 282.72 194.54 276.96 191.15 271.72 194.40 L 271.24 194.09 C 269.87 193.20 268.52 192.28 267.17 191.36 C 268.70 191.25 270.22 191.14 271.76 191.04 C 272.20 190.59 273.08 189.69 273.52 189.23 Z" />
</g>
<g id="#ce9a7cff">
<path fill="#ce9a7c" opacity="1.00" d=" M 298.88 201.83 C 299.22 197.94 296.48 194.23 297.88 190.32 C 307.13 198.39 315.79 207.14 325.26 214.94 C 326.25 216.65 327.54 218.98 325.81 220.69 C 323.42 223.76 319.22 222.79 315.95 222.21 C 311.83 219.52 307.52 217.14 303.18 214.82 C 300.39 213.14 297.40 211.84 294.34 210.76 C 294.83 207.33 297.92 205.08 298.88 201.83 Z" />
</g>
<g id="#595652fe">
<path fill="#595652" opacity="1.00" d=" M 259.82 191.74 C 261.77 192.02 263.72 192.33 265.64 192.80 C 265.55 193.74 265.45 194.67 265.36 195.61 C 266.86 196.48 268.38 197.33 269.98 198.03 C 266.75 198.50 264.20 200.63 261.94 202.83 C 259.12 205.33 257.31 208.69 255.83 212.10 C 254.24 216.15 249.60 216.70 245.91 217.61 C 246.07 217.18 246.39 216.30 246.55 215.86 C 246.14 215.88 245.34 215.91 244.94 215.92 C 249.09 214.10 254.12 212.36 256.11 207.91 C 255.95 202.27 256.52 196.51 259.82 191.74 Z" />
</g>
<g id="#312d28ff">
<path fill="#312d28" opacity="1.00" d=" M 265.36 195.61 C 265.45 194.67 265.55 193.74 265.64 192.80 C 267.50 193.27 269.37 193.66 271.24 194.09 L 271.72 194.40 C 276.02 198.01 281.35 200.10 286.80 201.25 C 288.82 201.59 290.77 200.71 292.68 200.19 C 294.07 201.74 295.33 203.38 296.55 205.07 C 294.88 208.29 291.70 205.27 289.32 204.73 C 282.63 203.24 276.26 200.71 269.98 198.03 C 268.38 197.33 266.86 196.48 265.36 195.61 Z" />
</g>
<g id="#605a53ff">
<path fill="#605a53" opacity="1.00" d=" M 271.72 194.40 C 276.96 191.15 282.72 194.54 288.00 195.84 C 290.38 196.18 291.49 198.38 292.68 200.19 C 290.77 200.71 288.82 201.59 286.80 201.25 C 281.35 200.10 276.02 198.01 271.72 194.40 Z" />
</g>
<g id="#6f7067ff">
<path fill="#6f7067" opacity="1.00" d=" M 261.94 202.83 C 264.20 200.63 266.75 198.50 269.98 198.03 C 276.26 200.71 282.63 203.24 289.32 204.73 C 290.57 210.41 292.41 216.05 292.31 221.93 C 290.17 221.26 288.05 220.50 286.05 219.48 C 287.28 216.83 288.29 214.02 288.14 211.06 C 287.76 208.20 285.43 206.04 282.59 205.77 C 280.47 205.76 278.39 206.24 276.31 206.55 C 274.93 204.75 274.45 201.46 271.75 201.31 C 268.41 200.82 265.02 201.54 261.94 202.83 Z" />
</g>
<g id="#81837aff">
<path fill="#81837a" opacity="1.00" d=" M 261.94 202.83 C 265.02 201.54 268.41 200.82 271.75 201.31 C 274.45 201.46 274.93 204.75 276.31 206.55 C 278.39 206.24 280.47 205.76 282.59 205.77 C 285.43 206.04 287.76 208.20 288.14 211.06 C 282.17 210.59 276.50 206.95 270.44 208.46 C 267.93 209.66 268.83 212.65 269.54 214.68 C 269.68 214.94 269.95 215.44 270.08 215.70 C 279.11 219.26 289.10 221.45 296.42 228.27 C 295.27 228.47 294.10 228.33 292.99 227.99 C 284.55 225.58 276.36 222.09 267.60 220.93 C 261.31 220.56 255.00 220.51 248.71 220.39 C 248.98 218.95 249.67 217.46 251.35 217.37 C 255.62 216.43 260.09 216.45 264.18 214.73 C 261.88 212.91 259.08 212.43 256.25 212.97 C 256.15 212.75 255.93 212.31 255.83 212.10 C 257.31 208.69 259.12 205.33 261.94 202.83 Z" />
</g>
<g id="#93948bff">
<path fill="#93948b" opacity="1.00" d=" M 270.44 208.46 C 276.50 206.95 282.17 210.59 288.14 211.06 C 288.29 214.02 287.28 216.83 286.05 219.48 C 281.02 216.54 275.26 215.39 269.54 214.68 C 268.83 212.65 267.93 209.66 270.44 208.46 Z" />
</g>
<g id="#000000c1">
<path fill="#000000" opacity="0.76" d=" M 296.01 219.72 C 294.45 217.00 294.09 213.84 294.34 210.76 C 297.40 211.84 300.39 213.14 303.18 214.82 C 301.15 214.20 299.10 213.67 297.05 213.14 C 299.93 215.86 302.88 218.50 305.96 220.99 C 310.40 224.76 316.30 225.87 321.31 228.65 C 323.35 230.23 325.24 231.99 327.17 233.71 C 327.61 235.72 328.05 237.73 328.63 239.70 C 326.98 241.35 325.43 243.12 324.00 244.98 C 324.25 241.69 322.92 236.95 318.71 237.87 C 315.87 238.02 312.47 239.07 310.10 236.94 C 308.94 234.68 308.66 232.01 307.20 229.92 C 305.10 228.39 302.40 227.49 301.15 225.03 C 299.93 222.83 298.12 221.07 296.01 219.72 Z" />
</g>
<g id="#656562ff">
<path fill="#656562" opacity="1.00" d=" M 245.91 217.61 C 249.60 216.70 254.24 216.15 255.83 212.10 C 255.93 212.31 256.15 212.75 256.25 212.97 C 259.08 212.43 261.88 212.91 264.18 214.73 C 260.09 216.45 255.62 216.43 251.35 217.37 C 249.67 217.46 248.98 218.95 248.71 220.39 C 255.00 220.51 261.31 220.56 267.60 220.93 C 276.36 222.09 284.55 225.58 292.99 227.99 C 294.10 228.33 295.27 228.47 296.42 228.27 C 296.76 228.10 297.42 227.75 297.75 227.58 C 297.47 224.90 296.88 222.26 296.01 219.72 C 298.12 221.07 299.93 222.83 301.15 225.03 C 300.15 226.98 299.19 228.94 298.23 230.91 C 300.59 230.29 302.95 229.13 305.44 229.48 C 306.44 232.36 303.55 236.23 300.34 235.96 C 297.28 236.35 295.63 233.19 293.22 231.91 C 289.56 229.96 285.71 228.38 282.10 226.35 C 281.06 226.98 280.02 227.60 279.00 228.24 C 280.17 230.03 281.59 231.64 283.12 233.13 C 282.80 233.55 282.15 234.39 281.83 234.81 C 277.42 235.41 272.97 235.16 268.56 235.59 C 268.09 236.70 267.62 237.81 267.16 238.92 C 271.50 239.21 275.89 239.30 280.18 238.45 C 280.97 237.67 281.77 236.90 282.57 236.13 C 283.49 236.58 284.41 237.04 285.35 237.47 C 282.81 239.79 280.16 241.99 277.55 244.24 C 276.58 244.07 275.62 243.93 274.65 243.80 C 268.71 242.34 261.79 242.15 256.46 245.50 C 251.43 253.59 252.32 266.36 260.76 271.94 C 264.15 273.15 267.88 273.13 271.31 274.34 C 265.54 275.87 259.47 274.84 253.94 272.93 C 252.55 271.73 252.01 269.87 251.26 268.27 C 251.17 264.17 250.50 260.10 250.67 256.01 C 251.29 251.74 253.47 247.92 255.00 243.93 C 257.77 240.17 261.40 237.20 265.01 234.28 C 263.80 234.02 262.59 233.78 261.39 233.55 C 256.95 232.82 252.40 233.08 248.02 234.09 C 246.06 234.46 244.08 234.77 242.11 235.05 C 241.38 234.54 240.65 234.02 239.92 233.52 C 241.18 232.96 242.50 232.50 243.66 231.74 C 244.28 230.46 244.57 229.05 244.97 227.69 C 246.86 227.20 248.76 226.73 250.66 226.26 C 250.67 225.38 250.68 224.50 250.70 223.63 C 247.35 223.15 243.38 223.22 241.49 219.84 C 242.96 219.08 244.43 218.34 245.91 217.61 M 251.82 230.73 C 259.01 230.45 266.07 232.15 273.25 231.89 C 271.45 229.95 268.71 229.55 266.39 228.55 C 261.58 225.83 256.49 229.33 251.82 230.73 Z" />
</g>
<g id="#0000000b">
</g>
<g id="#585957ff">
<path fill="#585957" opacity="1.00" d=" M 325.26 214.94 C 328.12 216.09 331.15 216.86 333.79 218.49 C 331.18 220.89 333.80 224.88 334.21 227.79 C 336.03 228.58 337.91 229.26 339.83 229.78 C 340.69 228.52 341.55 227.28 342.42 226.03 C 344.27 228.51 346.94 230.81 347.33 234.02 C 347.73 237.14 344.41 238.64 343.21 241.10 C 342.30 243.58 342.27 246.27 341.58 248.81 C 339.45 250.76 337.26 247.69 335.62 246.47 C 333.59 241.77 331.48 236.79 327.17 233.71 C 325.24 231.99 323.35 230.23 321.31 228.65 C 319.27 226.72 317.64 224.43 315.95 222.21 C 319.22 222.79 323.42 223.76 325.81 220.69 C 327.54 218.98 326.25 216.65 325.26 214.94 M 332.30 228.16 C 331.22 229.43 330.19 230.75 329.19 232.09 C 330.12 234.15 331.43 236.25 333.80 236.80 C 334.41 236.16 335.03 235.53 335.65 234.90 C 335.29 232.35 334.62 229.63 332.30 228.16 Z" />
</g>
<g id="#7f7c73ff">
<path fill="#7f7c73" opacity="1.00" d=" M 238.11 219.04 C 240.50 218.26 242.60 216.84 244.94 215.92 C 245.34 215.91 246.14 215.88 246.55 215.86 C 246.39 216.30 246.07 217.18 245.91 217.61 C 244.43 218.34 242.96 219.08 241.49 219.84 C 236.23 222.29 230.83 226.66 230.55 232.92 C 233.81 232.97 236.99 233.83 238.67 236.85 C 239.67 237.99 240.73 239.07 241.77 240.19 C 240.16 242.71 238.70 245.32 237.00 247.78 C 235.67 249.09 233.26 249.81 233.19 251.97 C 232.87 254.57 233.02 257.20 233.11 259.81 C 232.82 262.66 233.71 266.30 231.34 268.45 C 231.00 259.25 231.89 250.09 232.69 240.94 C 230.91 240.83 229.13 240.81 227.35 240.92 C 224.40 239.47 225.40 235.95 226.64 233.66 C 228.69 229.80 229.76 225.49 231.84 221.66 C 233.65 220.26 236.01 219.87 238.11 219.04 Z" />
</g>
<g id="#5a5c5bff">
<path fill="#5a5c5b" opacity="1.00" d=" M 212.63 223.48 C 220.54 219.49 229.44 219.14 238.11 219.04 C 236.01 219.87 233.65 220.26 231.84 221.66 C 229.76 225.49 228.69 229.80 226.64 233.66 C 225.40 235.95 224.40 239.47 227.35 240.92 C 227.47 247.99 227.52 255.26 225.17 262.02 C 225.02 261.28 224.74 259.80 224.59 259.06 C 222.24 259.52 219.82 260.37 218.40 262.43 C 215.81 265.59 217.22 269.86 217.67 273.48 C 213.66 271.92 211.50 267.18 213.14 263.15 C 214.50 258.29 220.38 257.84 224.58 257.39 C 224.86 255.68 225.14 253.97 225.33 252.26 C 225.66 249.32 226.07 246.32 225.50 243.39 C 225.36 241.75 223.38 241.80 222.25 241.16 C 219.58 240.29 217.43 238.09 214.51 238.00 C 214.22 239.53 213.91 241.06 213.68 242.60 C 211.63 236.45 211.66 229.83 212.63 223.48 Z" />
</g>
<g id="#6f6f6eff">
<path fill="#6f6f6e" opacity="1.00" d=" M 334.21 227.79 C 333.80 224.88 331.18 220.89 333.79 218.49 C 336.92 220.68 339.95 223.08 342.42 226.03 C 341.55 227.28 340.69 228.52 339.83 229.78 C 337.91 229.26 336.03 228.58 334.21 227.79 Z" />
</g>
<g id="#4b4d4bff">
<path fill="#4b4d4b" opacity="1.00" d=" M 230.55 232.92 C 230.83 226.66 236.23 222.29 241.49 219.84 C 243.38 223.22 247.35 223.15 250.70 223.63 C 250.68 224.50 250.67 225.38 250.66 226.26 C 248.76 226.73 246.86 227.20 244.97 227.69 C 244.57 229.05 244.28 230.46 243.66 231.74 C 242.50 232.50 241.18 232.96 239.92 233.52 C 240.65 234.02 241.38 234.54 242.11 235.05 C 244.08 234.77 246.06 234.46 248.02 234.09 C 247.22 235.14 246.47 236.23 245.53 237.16 C 243.24 237.37 240.95 236.97 238.67 236.85 C 236.99 233.83 233.81 232.97 230.55 232.92 Z" />
</g>
<g id="#5e5e5bff">
<path fill="#5e5e5b" opacity="1.00" d=" M 191.43 223.81 C 192.83 223.42 194.26 222.67 195.74 223.17 C 199.74 224.18 203.82 224.90 207.96 224.92 C 204.78 226.01 201.30 227.66 199.98 230.98 C 199.53 234.27 199.48 237.68 200.03 240.96 C 200.96 242.60 202.61 243.65 204.05 244.82 C 200.76 244.60 197.07 244.82 194.27 242.81 C 191.14 238.70 192.93 233.34 193.42 228.71 C 191.74 229.80 189.51 230.82 189.30 233.09 C 188.49 237.86 190.56 242.40 192.08 246.80 C 190.35 246.25 188.57 245.83 186.98 244.95 C 184.47 241.19 183.82 236.37 184.95 232.02 C 185.18 230.80 185.41 229.58 185.65 228.36 C 181.55 228.13 177.50 228.84 173.43 229.00 C 174.99 228.03 176.46 226.92 178.06 226.01 C 180.35 225.45 182.69 224.94 185.07 225.00 C 187.71 225.28 189.97 226.91 192.57 227.41 C 194.47 227.59 196.36 227.12 198.23 226.84 C 196.15 225.45 193.82 224.50 191.43 223.81 Z" />
</g>
<g id="#424241ff">
<path fill="#424241" opacity="1.00" d=" M 178.06 226.01 C 182.13 223.52 187.03 225.00 191.43 223.81 C 193.82 224.50 196.15 225.45 198.23 226.84 C 196.36 227.12 194.47 227.59 192.57 227.41 C 189.97 226.91 187.71 225.28 185.07 225.00 C 182.69 224.94 180.35 225.45 178.06 226.01 Z" />
<path fill="#424241" opacity="1.00" d=" M 248.02 234.09 C 252.40 233.08 256.95 232.82 261.39 233.55 C 256.24 235.98 250.93 238.89 247.89 243.91 C 245.93 246.95 246.31 250.76 246.98 254.13 C 248.74 252.28 249.51 249.81 250.76 247.64 C 251.87 246.10 253.58 245.15 255.00 243.93 C 253.47 247.92 251.29 251.74 250.67 256.01 C 250.50 260.10 251.17 264.17 251.26 268.27 C 246.75 265.31 248.54 259.03 247.13 254.54 C 245.36 258.76 242.80 263.20 243.80 267.95 C 245.42 271.53 247.70 274.73 249.91 277.95 C 246.63 276.54 242.55 275.62 240.85 272.11 C 239.52 269.67 237.74 266.86 238.86 264.00 C 241.03 257.21 242.68 250.20 242.85 243.05 C 242.88 241.95 242.52 241.00 241.77 240.19 C 240.73 239.07 239.67 237.99 238.67 236.85 C 240.95 236.97 243.24 237.37 245.53 237.16 C 246.47 236.23 247.22 235.14 248.02 234.09 Z" />
</g>
<g id="#7e8078ff">
<path fill="#7e8078" opacity="1.00" d=" M 207.96 224.92 C 209.53 224.49 211.10 224.03 212.63 223.48 C 211.66 229.83 211.63 236.45 213.68 242.60 C 213.98 243.70 214.35 244.78 214.78 245.84 C 211.29 244.84 207.64 244.77 204.05 244.82 C 202.61 243.65 200.96 242.60 200.03 240.96 C 199.48 237.68 199.53 234.27 199.98 230.98 C 201.30 227.66 204.78 226.01 207.96 224.92 Z" />
</g>
<g id="#50524fff">
<path fill="#50524f" opacity="1.00" d=" M 301.15 225.03 C 302.40 227.49 305.10 228.39 307.20 229.92 C 308.66 232.01 308.94 234.68 310.10 236.94 C 312.47 239.07 315.87 238.02 318.71 237.87 L 319.17 238.55 C 318.13 239.12 317.10 239.70 316.07 240.27 C 315.52 240.10 314.42 239.76 313.88 239.58 C 311.48 238.29 309.14 239.66 307.15 241.01 C 307.33 242.30 307.50 243.59 307.68 244.89 C 307.35 244.63 306.69 244.11 306.36 243.85 C 303.86 241.82 301.32 239.68 298.18 238.71 C 294.07 237.19 289.64 237.67 285.35 237.47 C 284.41 237.04 283.49 236.58 282.57 236.13 C 281.77 236.90 280.97 237.67 280.18 238.45 C 275.89 239.30 271.50 239.21 267.16 238.92 C 267.62 237.81 268.09 236.70 268.56 235.59 C 272.97 235.16 277.42 235.41 281.83 234.81 C 282.15 234.39 282.80 233.55 283.12 233.13 C 281.59 231.64 280.17 230.03 279.00 228.24 C 280.02 227.60 281.06 226.98 282.10 226.35 C 285.71 228.38 289.56 229.96 293.22 231.91 C 295.63 233.19 297.28 236.35 300.34 235.96 C 303.55 236.23 306.44 232.36 305.44 229.48 C 302.95 229.13 300.59 230.29 298.23 230.91 C 299.19 228.94 300.15 226.98 301.15 225.03 Z" />
</g>
<g id="#9e9b92ff">
<path fill="#9e9b92" opacity="1.00" d=" M 251.82 230.73 C 256.49 229.33 261.58 225.83 266.39 228.55 C 268.71 229.55 271.45 229.95 273.25 231.89 C 266.07 232.15 259.01 230.45 251.82 230.73 Z" />
</g>
<g id="#363938ff">
<path fill="#363938" opacity="1.00" d=" M 173.43 229.00 C 177.50 228.84 181.55 228.13 185.65 228.36 C 185.41 229.58 185.18 230.80 184.95 232.02 C 180.54 232.69 176.13 233.42 171.68 233.76 C 171.58 232.87 171.48 231.99 171.39 231.12 C 171.03 231.31 170.31 231.69 169.94 231.88 C 169.41 232.13 168.35 232.63 167.82 232.88 C 167.30 232.85 166.26 232.77 165.73 232.73 C 167.97 230.90 170.60 229.60 173.43 229.00 Z" />
</g>
<g id="#737372ff">
<path fill="#737372" opacity="1.00" d=" M 332.30 228.16 C 334.62 229.63 335.29 232.35 335.65 234.90 C 335.03 235.53 334.41 236.16 333.80 236.80 C 331.43 236.25 330.12 234.15 329.19 232.09 C 330.19 230.75 331.22 229.43 332.30 228.16 Z" />
</g>
<g id="#46494dff">
<path fill="#46494d" opacity="1.00" d=" M 189.30 233.09 C 189.51 230.82 191.74 229.80 193.42 228.71 C 192.93 233.34 191.14 238.70 194.27 242.81 C 197.07 244.82 200.76 244.60 204.05 244.82 C 207.64 244.77 211.29 244.84 214.78 245.84 L 215.18 246.54 C 210.42 246.04 205.84 247.62 201.21 248.41 C 191.81 249.54 182.31 247.85 172.93 249.21 C 170.15 248.83 166.29 249.20 164.84 246.21 C 162.47 242.19 161.44 235.83 165.73 232.73 C 166.26 232.77 167.30 232.85 167.82 232.88 C 167.22 235.78 165.02 238.99 166.91 241.85 C 167.97 244.06 169.77 245.78 171.53 247.45 C 169.17 242.57 168.86 237.14 169.94 231.88 C 170.31 231.69 171.03 231.31 171.39 231.12 C 171.48 231.99 171.58 232.87 171.68 233.76 C 176.13 233.42 180.54 232.69 184.95 232.02 C 183.82 236.37 184.47 241.19 186.98 244.95 C 188.57 245.83 190.35 246.25 192.08 246.80 C 190.56 242.40 188.49 237.86 189.30 233.09 Z" />
</g>
<g id="#67686aff">
<path fill="#67686a" opacity="1.00" d=" M 167.82 232.88 C 168.35 232.63 169.41 232.13 169.94 231.88 C 168.86 237.14 169.17 242.57 171.53 247.45 C 169.77 245.78 167.97 244.06 166.91 241.85 C 165.02 238.99 167.22 235.78 167.82 232.88 Z" />
</g>
<g id="#7b7c7cff">
<path fill="#7b7c7c" opacity="1.00" d=" M 247.89 243.91 C 250.93 238.89 256.24 235.98 261.39 233.55 C 262.59 233.78 263.80 234.02 265.01 234.28 C 261.40 237.20 257.77 240.17 255.00 243.93 C 253.58 245.15 251.87 246.10 250.76 247.64 C 249.51 249.81 248.74 252.28 246.98 254.13 C 246.31 250.76 245.93 246.95 247.89 243.91 Z" />
</g>
<g id="#363636ec">
<path fill="#363636" opacity="0.93" d=" M 327.17 233.71 C 331.48 236.79 333.59 241.77 335.62 246.47 C 332.71 244.88 330.32 242.55 328.63 239.70 C 328.05 237.73 327.61 235.72 327.17 233.71 Z" />
</g>
<g id="#85837cff">
<path fill="#85837c" opacity="1.00" d=" M 285.35 237.47 C 289.64 237.67 294.07 237.19 298.18 238.71 C 301.32 239.68 303.86 241.82 306.36 243.85 C 306.43 244.93 306.51 246.01 306.59 247.10 C 304.55 247.35 302.52 247.57 300.48 247.77 C 301.37 250.00 301.77 252.38 301.35 254.76 C 302.14 255.48 302.92 256.20 303.72 256.92 C 302.56 257.01 301.40 257.11 300.24 257.21 C 300.44 260.18 301.99 263.54 300.07 266.25 C 299.55 267.19 299.00 268.11 298.45 269.04 C 299.64 269.98 300.84 270.92 302.04 271.87 C 301.53 272.17 300.53 272.78 300.02 273.08 C 294.13 273.77 288.25 274.50 282.38 275.28 C 282.91 274.24 283.44 273.20 283.97 272.17 C 281.97 272.29 279.98 272.48 278.02 272.91 C 275.79 273.42 273.56 273.97 271.31 274.34 C 267.88 273.13 264.15 273.15 260.76 271.94 C 252.32 266.36 251.43 253.59 256.46 245.50 C 261.79 242.15 268.71 242.34 274.65 243.80 C 271.39 244.42 268.13 245.02 264.88 245.70 C 263.22 249.03 260.30 251.36 257.25 253.37 C 256.71 257.09 256.71 261.09 258.46 264.52 C 260.93 266.33 264.14 266.45 267.06 266.96 C 271.89 267.50 276.82 268.61 281.68 267.68 C 283.45 267.40 284.48 265.79 285.68 264.64 C 288.35 260.85 293.87 263.66 297.25 260.72 C 297.76 262.83 298.17 264.97 298.59 267.11 C 299.11 262.92 299.27 258.66 298.17 254.55 C 297.63 252.22 297.27 249.86 297.16 247.48 C 298.33 246.73 299.49 245.97 300.65 245.22 C 296.58 243.89 292.92 241.57 288.87 240.24 C 285.26 239.36 283.33 243.01 281.35 245.27 C 280.08 244.90 278.82 244.53 277.55 244.24 C 280.16 241.99 282.81 239.79 285.35 237.47 Z" />
</g>
<g id="#444b3ffc">
<path fill="#444b3f" opacity="1.00" d=" M 318.71 237.87 C 322.92 236.95 324.25 241.69 324.00 244.98 C 324.71 247.84 327.53 250.36 326.52 253.48 C 326.09 255.05 324.44 255.67 323.11 256.25 C 323.77 252.82 324.84 248.54 321.18 246.42 C 321.34 243.64 320.89 240.83 319.17 238.55 L 318.71 237.87 Z" />
</g>
<g id="#474948ff">
<path fill="#474948" opacity="1.00" d=" M 214.51 238.00 C 217.43 238.09 219.58 240.29 222.25 241.16 C 223.38 241.80 225.36 241.75 225.50 243.39 C 226.07 246.32 225.66 249.32 225.33 252.26 C 225.16 250.92 224.97 249.59 224.76 248.26 C 221.57 247.65 218.39 247.01 215.18 246.54 L 214.78 245.84 C 214.35 244.78 213.98 243.70 213.68 242.60 C 213.91 241.06 214.22 239.53 214.51 238.00 Z" />
</g>
<g id="#646468ff">
<path fill="#646468" opacity="1.00" d=" M 307.15 241.01 C 309.14 239.66 311.48 238.29 313.88 239.58 C 313.47 239.74 312.65 240.05 312.24 240.21 C 312.53 245.65 317.86 250.34 315.30 255.88 C 314.50 256.02 312.91 256.30 312.11 256.45 C 312.06 258.03 312.02 259.61 311.99 261.20 C 312.50 261.33 313.52 261.57 314.03 261.70 C 314.57 262.40 315.10 263.11 315.62 263.83 C 316.82 263.29 317.89 262.51 318.84 261.59 C 319.51 261.66 320.85 261.81 321.52 261.88 C 320.07 265.09 317.06 266.91 314.03 268.40 C 314.06 270.75 314.25 273.31 315.87 275.17 C 317.43 276.06 319.34 275.94 321.07 276.29 C 320.29 276.97 319.62 277.85 318.65 278.26 C 314.24 278.39 309.51 278.68 305.79 275.86 C 302.29 278.13 298.54 280.35 294.19 279.96 C 292.37 279.27 290.60 278.47 288.84 277.68 C 292.57 276.15 296.55 275.19 300.02 273.08 C 300.53 272.78 301.53 272.17 302.04 271.87 C 300.84 270.92 299.64 269.98 298.45 269.04 C 299.00 268.11 299.55 267.19 300.07 266.25 C 301.99 263.54 300.44 260.18 300.24 257.21 C 301.40 257.11 302.56 257.01 303.72 256.92 C 302.92 256.20 302.14 255.48 301.35 254.76 C 301.77 252.38 301.37 250.00 300.48 247.77 C 302.52 247.57 304.55 247.35 306.59 247.10 C 306.51 246.01 306.43 244.93 306.36 243.85 C 306.69 244.11 307.35 244.63 307.68 244.89 C 307.50 243.59 307.33 242.30 307.15 241.01 Z" />
</g>
<g id="#6d7187ff">
<path fill="#6d7187" opacity="1.00" d=" M 316.07 240.27 C 317.10 239.70 318.13 239.12 319.17 238.55 C 320.89 240.83 321.34 243.64 321.18 246.42 C 324.84 248.54 323.77 252.82 323.11 256.25 C 322.62 256.31 321.64 256.42 321.16 256.48 C 320.39 255.73 319.63 254.98 318.89 254.22 C 318.42 256.66 318.38 259.15 318.84 261.59 C 317.89 262.51 316.82 263.29 315.62 263.83 C 315.10 263.11 314.57 262.40 314.03 261.70 C 314.45 259.76 314.84 257.81 315.30 255.88 C 317.86 250.34 312.53 245.65 312.24 240.21 C 312.65 240.05 313.47 239.74 313.88 239.58 C 314.42 239.76 315.52 240.10 316.07 240.27 M 319.25 242.22 C 319.81 242.78 319.81 242.78 319.25 242.22 Z" />
</g>
<g id="#404240ff">
<path fill="#404240" opacity="1.00" d=" M 227.35 240.92 C 229.13 240.81 230.91 240.83 232.69 240.94 C 231.89 250.09 231.00 259.25 231.34 268.45 C 228.93 268.88 226.53 268.34 224.21 267.78 C 224.48 265.85 224.82 263.94 225.17 262.02 C 227.52 255.26 227.47 247.99 227.35 240.92 Z" />
</g>
<g id="#585857ff">
<path fill="#585857" opacity="1.00" d=" M 241.77 240.19 C 242.52 241.00 242.88 241.95 242.85 243.05 C 242.68 250.20 241.03 257.21 238.86 264.00 C 237.74 266.86 239.52 269.67 240.85 272.11 C 242.55 275.62 246.63 276.54 249.91 277.95 C 247.70 274.73 245.42 271.53 243.80 267.95 C 245.60 268.97 247.46 269.91 249.37 270.72 C 250.00 269.90 250.62 269.08 251.26 268.27 C 252.01 269.87 252.55 271.73 253.94 272.93 C 259.47 274.84 265.54 275.87 271.31 274.34 C 273.56 273.97 275.79 273.42 278.02 272.91 C 280.70 275.06 284.17 277.34 284.21 281.17 C 282.09 281.44 279.96 281.51 277.83 281.52 C 279.27 282.44 280.70 283.39 282.14 284.32 C 281.92 285.50 281.71 286.68 281.50 287.87 C 284.70 288.56 287.96 288.77 291.22 288.95 C 290.84 289.86 290.45 290.77 290.07 291.68 C 292.59 291.46 295.11 291.27 297.64 291.09 C 297.11 293.42 296.55 295.74 295.94 298.06 C 294.83 298.37 293.71 298.69 292.60 299.01 C 290.85 298.32 289.21 297.41 287.55 296.54 C 288.91 299.78 292.59 300.47 295.36 302.06 C 290.20 301.41 284.83 301.45 280.19 304.12 C 278.83 304.74 277.50 305.41 276.16 306.06 C 275.89 304.85 275.61 303.64 275.35 302.43 C 271.65 302.27 267.94 302.44 264.25 302.15 C 261.78 301.80 259.33 301.32 256.91 300.73 C 254.97 300.18 253.09 299.48 251.20 298.79 C 251.64 298.50 252.53 297.92 252.97 297.64 C 260.16 300.12 267.87 299.81 275.35 299.42 C 277.71 299.22 280.14 299.12 282.38 298.27 C 283.95 297.33 284.93 295.70 286.06 294.31 C 280.60 294.73 275.30 296.70 269.78 296.32 C 264.23 296.00 258.58 295.62 253.35 293.60 C 247.97 291.59 242.63 289.43 237.02 288.16 C 237.30 289.40 237.60 290.64 237.89 291.89 C 235.74 290.48 233.69 288.92 231.69 287.31 C 231.41 287.02 230.83 286.43 230.55 286.14 C 230.81 284.64 231.08 283.15 231.36 281.66 C 232.99 281.27 235.77 281.52 235.75 279.14 C 235.01 276.83 233.17 275.17 231.18 273.91 C 229.68 276.36 228.40 278.94 226.89 281.39 C 225.85 279.60 224.84 277.81 223.88 275.99 C 223.74 273.25 223.87 270.50 224.21 267.78 C 226.53 268.34 228.93 268.88 231.34 268.45 C 233.71 266.30 232.82 262.66 233.11 259.81 C 233.58 262.50 233.74 265.60 236.02 267.48 C 237.69 261.18 239.36 254.11 237.00 247.78 C 238.70 245.32 240.16 242.71 241.77 240.19 M 237.69 274.21 C 238.15 277.31 241.17 278.79 242.97 281.07 C 246.17 285.47 252.11 285.76 257.02 286.75 C 257.05 286.30 257.12 285.40 257.15 284.95 C 261.23 287.71 266.78 288.75 271.19 286.09 C 269.00 285.45 266.83 284.59 265.34 282.79 C 263.47 282.63 261.57 282.61 259.73 282.23 C 257.68 280.70 258.72 277.72 258.44 275.53 C 257.33 275.40 256.21 275.28 255.11 275.17 C 255.10 278.28 255.47 281.44 256.69 284.33 C 254.49 281.78 250.73 281.93 248.33 279.68 C 245.26 277.04 241.43 275.59 237.69 274.21 Z" />
</g>
<g id="#97958eff">
<path fill="#97958e" opacity="1.00" d=" M 281.35 245.27 C 283.33 243.01 285.26 239.36 288.87 240.24 C 292.92 241.57 296.58 243.89 300.65 245.22 C 299.49 245.97 298.33 246.73 297.16 247.48 C 297.27 249.86 297.63 252.22 298.17 254.55 C 297.76 255.38 296.93 257.04 296.51 257.87 C 289.34 255.54 281.52 256.23 274.06 256.32 C 274.06 257.89 274.06 259.47 274.07 261.05 C 281.79 261.40 289.53 260.91 297.25 260.72 C 293.87 263.66 288.35 260.85 285.68 264.64 C 284.48 265.79 283.45 267.40 281.68 267.68 C 276.82 268.61 271.89 267.50 267.06 266.96 C 264.14 266.45 260.93 266.33 258.46 264.52 C 256.71 261.09 256.71 257.09 257.25 253.37 C 260.30 251.36 263.22 249.03 264.88 245.70 C 268.13 245.02 271.39 244.42 274.65 243.80 C 275.62 243.93 276.58 244.07 277.55 244.24 C 278.82 244.53 280.08 244.90 281.35 245.27 Z" />
</g>
<g id="#ffffffff">
<path fill="#ffffff" opacity="1.00" d=" M 319.25 242.22 C 319.81 242.78 319.81 242.78 319.25 242.22 Z" />
<path fill="#ffffff" opacity="1.00" d=" M 288.24 258.29 C 288.79 258.84 288.79 258.84 288.24 258.29 Z" />
</g>
<g id="#00000013">
</g>
<g id="#64635eff">
<path fill="#64635e" opacity="1.00" d=" M 233.19 251.97 C 233.26 249.81 235.67 249.09 237.00 247.78 C 239.36 254.11 237.69 261.18 236.02 267.48 C 233.74 265.60 233.58 262.50 233.11 259.81 C 233.02 257.20 232.87 254.57 233.19 251.97 Z" />
</g>
<g id="#2b2c36fe">
<path fill="#2b2c36" opacity="1.00" d=" M 318.89 254.22 C 319.63 254.98 320.39 255.73 321.16 256.48 C 321.18 257.81 321.23 259.15 321.28 260.48 C 322.21 261.02 323.14 261.57 324.08 262.14 C 323.44 262.07 322.16 261.94 321.52 261.88 C 320.85 261.81 319.51 261.66 318.84 261.59 C 318.38 259.15 318.42 256.66 318.89 254.22 Z" />
</g>
<g id="#808180ff">
<path fill="#808180" opacity="1.00" d=" M 243.80 267.95 C 242.80 263.20 245.36 258.76 247.13 254.54 C 248.54 259.03 246.75 265.31 251.26 268.27 C 250.62 269.08 250.00 269.90 249.37 270.72 C 247.46 269.91 245.60 268.97 243.80 267.95 Z" />
</g>
<g id="#535354ff">
<path fill="#535354" opacity="1.00" d=" M 298.17 254.55 C 299.27 258.66 299.11 262.92 298.59 267.11 C 298.17 264.97 297.76 262.83 297.25 260.72 C 297.12 260.21 296.85 259.18 296.72 258.67 L 296.63 258.31 L 296.51 257.87 C 296.93 257.04 297.76 255.38 298.17 254.55 Z" />
</g>
<g id="#757e8eff">
<path fill="#757e8e" opacity="1.00" d=" M 274.06 256.32 C 281.52 256.23 289.34 255.54 296.51 257.87 L 296.63 258.31 C 296.65 258.40 296.70 258.58 296.72 258.67 C 296.85 259.18 297.12 260.21 297.25 260.72 C 289.53 260.91 281.79 261.40 274.07 261.05 C 274.06 259.47 274.06 257.89 274.06 256.32 M 284.10 257.26 C 282.53 260.24 287.43 257.45 284.10 257.26 M 288.24 258.29 C 288.79 258.84 288.79 258.84 288.24 258.29 M 291.23 258.31 C 291.76 258.85 291.76 258.85 291.23 258.31 Z" />
</g>
<g id="#fffeffff">
<path fill="#fffeff" opacity="1.00" d=" M 312.11 256.45 C 312.91 256.30 314.50 256.02 315.30 255.88 C 314.84 257.81 314.45 259.76 314.03 261.70 C 313.52 261.57 312.50 261.33 311.99 261.20 C 312.02 259.61 312.06 258.03 312.11 256.45 Z" />
</g>
<g id="#eaebeeff">
<path fill="#eaebee" opacity="1.00" d=" M 284.10 257.26 C 287.43 257.45 282.53 260.24 284.10 257.26 Z" />
</g>
<g id="#e9ebf0ff">
<path fill="#e9ebf0" opacity="1.00" d=" M 291.23 258.31 C 291.76 258.85 291.76 258.85 291.23 258.31 Z" />
</g>
<g id="#fafcfcff">
<path fill="#fafcfc" opacity="1.00" d=" M 296.72 258.67 C 296.70 258.58 296.65 258.40 296.63 258.31 L 296.72 258.67 Z" />
</g>
<g id="#323334ff">
<path fill="#323334" opacity="1.00" d=" M 218.40 262.43 C 219.82 260.37 222.24 259.52 224.59 259.06 C 224.74 259.80 225.02 261.28 225.17 262.02 C 224.82 263.94 224.48 265.85 224.21 267.78 C 223.87 270.50 223.74 273.25 223.88 275.99 C 221.78 275.23 219.69 274.42 217.67 273.48 C 217.22 269.86 215.81 265.59 218.40 262.43 Z" />
</g>
<g id="#64667dff">
<path fill="#64667d" opacity="1.00" d=" M 321.52 261.88 C 322.16 261.94 323.44 262.07 324.08 262.14 C 323.79 264.55 323.75 267.14 322.17 269.14 C 320.45 271.15 321.34 273.89 321.07 276.29 C 319.34 275.94 317.43 276.06 315.87 275.17 C 314.25 273.31 314.06 270.75 314.03 268.40 C 317.06 266.91 320.07 265.09 321.52 261.88 Z" />
</g>
<g id="#494b4aff">
<path fill="#494b4a" opacity="1.00" d=" M 324.08 262.14 C 325.36 263.07 326.79 264.22 326.62 266.01 C 326.97 269.22 322.77 270.89 323.53 274.21 C 323.99 276.81 322.77 279.34 320.09 280.00 C 317.43 279.92 314.78 279.67 312.12 279.70 C 310.52 279.74 308.92 279.82 307.34 279.98 C 307.13 280.41 306.73 281.28 306.52 281.71 C 305.80 283.45 305.19 285.23 304.59 287.01 C 305.73 287.67 306.88 288.34 308.04 289.00 C 307.28 290.95 306.33 292.86 305.96 294.93 C 306.66 296.61 307.67 298.14 308.51 299.76 C 307.27 300.56 306.02 301.36 304.77 302.16 C 302.01 300.42 299.06 299.00 295.94 298.06 C 296.55 295.74 297.11 293.42 297.64 291.09 C 295.11 291.27 292.59 291.46 290.07 291.68 C 290.45 290.77 290.84 289.86 291.22 288.95 C 291.79 287.52 292.31 286.07 292.82 284.62 C 291.24 283.41 289.66 282.19 288.10 280.97 C 290.11 280.56 292.14 280.17 294.19 279.96 C 298.54 280.35 302.29 278.13 305.79 275.86 C 309.51 278.68 314.24 278.39 318.65 278.26 C 319.62 277.85 320.29 276.97 321.07 276.29 C 321.34 273.89 320.45 271.15 322.17 269.14 C 323.75 267.14 323.79 264.55 324.08 262.14 Z" />
</g>
<g id="#757574ff">
<path fill="#757574" opacity="1.00" d=" M 278.02 272.91 C 279.98 272.48 281.97 272.29 283.97 272.17 C 283.44 273.20 282.91 274.24 282.38 275.28 C 288.25 274.50 294.13 273.77 300.02 273.08 C 296.55 275.19 292.57 276.15 288.84 277.68 C 290.60 278.47 292.37 279.27 294.19 279.96 C 292.14 280.17 290.11 280.56 288.10 280.97 C 289.66 282.19 291.24 283.41 292.82 284.62 C 292.31 286.07 291.79 287.52 291.22 288.95 C 287.96 288.77 284.70 288.56 281.50 287.87 C 281.71 286.68 281.92 285.50 282.14 284.32 C 280.70 283.39 279.27 282.44 277.83 281.52 C 279.96 281.51 282.09 281.44 284.21 281.17 C 284.17 277.34 280.70 275.06 278.02 272.91 M 282.25 286.25 C 282.80 286.79 282.80 286.79 282.25 286.25 Z" />
</g>
<g id="#474847ff">
<path fill="#474847" opacity="1.00" d=" M 231.18 273.91 C 233.17 275.17 235.01 276.83 235.75 279.14 C 235.77 281.52 232.99 281.27 231.36 281.66 C 231.08 283.15 230.81 284.64 230.55 286.14 C 229.14 284.71 227.90 283.12 226.89 281.39 C 228.40 278.94 229.68 276.36 231.18 273.91 Z" />
</g>
<g id="#787670ff">
<path fill="#787670" opacity="1.00" d=" M 237.69 274.21 C 241.43 275.59 245.26 277.04 248.33 279.68 C 250.73 281.93 254.49 281.78 256.69 284.33 L 257.15 284.95 C 257.12 285.40 257.05 286.30 257.02 286.75 C 252.11 285.76 246.17 285.47 242.97 281.07 C 241.17 278.79 238.15 277.31 237.69 274.21 Z" />
</g>
<g id="#353739ff">
<path fill="#353739" opacity="1.00" d=" M 255.11 275.17 C 256.21 275.28 257.33 275.40 258.44 275.53 C 258.72 277.72 257.68 280.70 259.73 282.23 C 261.57 282.61 263.47 282.63 265.34 282.79 C 266.83 284.59 269.00 285.45 271.19 286.09 C 266.78 288.75 261.23 287.71 257.15 284.95 L 256.69 284.33 C 255.47 281.44 255.10 278.28 255.11 275.17 Z" />
</g>
<g id="#000000c2">
<path fill="#000000" opacity="0.76" d=" M 312.12 279.70 C 314.78 279.67 317.43 279.92 320.09 280.00 C 318.24 280.67 316.47 281.58 316.67 283.85 C 322.04 283.49 327.45 282.19 332.83 283.01 C 336.89 283.58 335.55 288.78 337.22 291.52 L 337.51 292.44 C 335.77 292.07 333.58 292.20 332.42 290.63 C 331.76 288.99 331.43 287.25 331.01 285.54 C 329.86 285.42 328.70 285.30 327.55 285.19 C 327.06 286.41 326.57 287.63 326.08 288.86 C 321.31 288.10 316.43 287.25 311.66 288.47 C 310.45 288.66 309.24 288.83 308.04 289.00 C 306.88 288.34 305.73 287.67 304.59 287.01 C 305.19 285.23 305.80 283.45 306.52 281.71 C 308.57 281.86 310.62 282.00 312.67 282.14 C 312.53 281.53 312.26 280.31 312.12 279.70 Z" />
<path fill="#000000" opacity="0.76" d=" M 344.99 322.26 C 347.67 321.76 350.45 320.50 353.14 321.68 C 351.37 322.38 349.57 323.02 347.78 323.66 L 346.91 323.97 C 346.27 323.39 345.63 322.82 344.99 322.26 Z" />
</g>
<g id="#0606075b">
</g>
<g id="#535359ff">
<path fill="#535359" opacity="1.00" d=" M 327.55 285.19 C 328.70 285.30 329.86 285.42 331.01 285.54 C 331.43 287.25 331.76 288.99 332.42 290.63 C 333.58 292.20 335.77 292.07 337.51 292.44 C 337.93 294.04 338.25 295.66 338.58 297.28 C 340.76 297.96 342.94 298.61 345.13 299.25 C 347.44 300.05 349.64 301.14 351.56 302.68 C 355.21 301.51 359.01 300.33 362.87 301.26 C 368.49 303.97 374.48 305.75 380.40 307.68 C 382.70 308.54 385.68 309.32 386.31 312.09 C 387.24 314.52 384.82 316.27 383.59 318.06 C 382.89 316.39 382.50 314.19 380.48 313.64 C 374.56 311.34 368.37 309.82 362.34 307.84 C 358.11 306.47 353.98 304.73 349.65 303.65 C 341.74 302.32 334.54 298.67 327.45 295.08 C 327.09 292.98 326.57 290.92 326.08 288.86 C 326.57 287.63 327.06 286.41 327.55 285.19 Z" />
</g>
<g id="#f3eff2ff">
<path fill="#f3eff2" opacity="1.00" d=" M 282.25 286.25 C 282.80 286.79 282.80 286.79 282.25 286.25 Z" />
</g>
<g id="#4e4e4dff">
<path fill="#4e4e4d" opacity="1.00" d=" M 231.69 287.31 C 233.69 288.92 235.74 290.48 237.89 291.89 C 239.47 292.69 241.11 293.37 242.78 293.97 C 238.26 297.06 237.99 303.02 238.24 307.98 C 238.45 309.97 238.67 312.33 240.40 313.65 C 245.65 314.41 250.99 313.88 256.25 314.57 C 250.79 314.58 245.30 314.46 239.88 315.19 C 240.58 316.21 241.29 317.24 242.07 318.21 C 243.56 319.36 245.26 320.19 247.03 320.79 C 248.12 322.39 248.15 324.34 248.51 326.17 C 249.69 327.01 250.91 327.80 252.17 328.54 C 250.22 329.04 248.34 329.78 246.46 330.50 C 246.41 331.04 246.31 332.11 246.26 332.65 C 250.20 333.54 254.19 334.18 258.17 334.82 C 251.37 339.03 242.93 338.58 235.88 342.25 C 238.06 340.62 240.07 338.77 241.98 336.84 C 237.16 336.01 232.29 334.15 229.33 330.07 C 228.33 326.62 228.73 322.95 228.31 319.41 C 227.74 319.31 226.60 319.09 226.03 318.99 C 227.47 318.17 229.49 317.94 230.41 316.45 C 230.73 313.32 230.22 310.16 230.67 307.05 C 231.95 303.52 235.77 301.43 236.85 297.85 C 236.02 294.03 233.64 290.67 231.69 287.31 M 233.92 315.19 C 233.92 315.86 233.91 317.19 233.91 317.86 C 235.59 319.36 237.70 320.38 240.01 320.08 C 240.17 316.66 236.46 315.94 233.92 315.19 Z" />
</g>
<g id="#85827aff">
<path fill="#85827a" opacity="1.00" d=" M 237.02 288.16 C 242.63 289.43 247.97 291.59 253.35 293.60 C 258.58 295.62 264.23 296.00 269.78 296.32 C 275.30 296.70 280.60 294.73 286.06 294.31 C 284.93 295.70 283.95 297.33 282.38 298.27 C 280.14 299.12 277.71 299.22 275.35 299.42 C 267.87 299.81 260.16 300.12 252.97 297.64 C 249.55 296.47 246.19 295.14 242.78 293.97 C 241.11 293.37 239.47 292.69 237.89 291.89 C 237.60 290.64 237.30 289.40 237.02 288.16 Z" />
</g>
<g id="#959795ff">
<path fill="#959795" opacity="1.00" d=" M 311.66 288.47 C 316.43 287.25 321.31 288.10 326.08 288.86 C 326.57 290.92 327.09 292.98 327.45 295.08 C 327.40 296.04 327.35 297.00 327.28 297.97 C 325.02 298.72 322.72 298.36 320.92 296.76 C 322.01 296.03 323.13 295.32 324.26 294.64 C 324.17 293.13 324.07 291.62 323.96 290.11 C 321.65 289.73 319.31 289.63 316.98 289.79 C 316.99 291.91 317.12 294.04 317.40 296.15 C 318.44 296.46 319.47 296.78 320.50 297.11 C 318.76 299.58 315.63 300.38 313.01 298.76 C 313.59 297.22 314.38 295.72 314.55 294.07 C 314.37 291.90 312.71 290.25 311.66 288.47 Z" />
</g>
<g id="#737476ff">
<path fill="#737476" opacity="1.00" d=" M 305.96 294.93 C 306.33 292.86 307.28 290.95 308.04 289.00 C 309.24 288.83 310.45 288.66 311.66 288.47 C 312.71 290.25 314.37 291.90 314.55 294.07 C 314.38 295.72 313.59 297.22 313.01 298.76 C 310.16 296.73 312.45 291.49 308.87 290.58 C 308.61 293.63 308.52 296.69 308.51 299.76 C 307.67 298.14 306.66 296.61 305.96 294.93 Z" />
</g>
<g id="#97e9fdff">
<path fill="#97e9fd" opacity="1.00" d=" M 316.98 289.79 C 319.31 289.63 321.65 289.73 323.96 290.11 C 324.07 291.62 324.17 293.13 324.26 294.64 C 323.13 295.32 322.01 296.03 320.92 296.76 L 320.50 297.11 C 319.47 296.78 318.44 296.46 317.40 296.15 C 317.12 294.04 316.99 291.91 316.98 289.79 M 318.99 292.10 C 319.34 293.09 319.69 294.08 320.05 295.08 C 321.18 294.94 322.24 294.59 323.24 294.03 C 323.13 293.29 322.93 291.82 322.83 291.08 C 321.52 291.30 320.23 291.63 318.99 292.10 Z" />
</g>
<g id="#76777aff">
<path fill="#76777a" opacity="1.00" d=" M 337.22 291.52 C 337.92 291.28 339.31 290.78 340.00 290.54 C 344.61 290.47 349.22 290.71 353.80 291.19 C 354.05 293.65 354.18 296.14 353.76 298.59 C 353.39 298.79 352.65 299.19 352.28 299.39 C 353.05 297.01 353.28 294.53 352.93 292.06 C 351.72 292.44 350.51 292.82 349.31 293.21 C 349.11 295.33 348.91 297.44 348.71 299.56 C 347.51 299.49 346.32 299.38 345.13 299.25 C 342.94 298.61 340.76 297.96 338.58 297.28 C 338.25 295.66 337.93 294.04 337.51 292.44 L 337.22 291.52 Z" />
</g>
<g id="#323338fe">
<path fill="#323338" opacity="1.00" d=" M 340.00 290.54 C 345.71 290.91 351.86 288.93 357.20 291.63 C 357.64 294.19 358.14 296.74 358.71 299.27 C 360.10 299.93 361.48 300.61 362.87 301.26 C 359.01 300.33 355.21 301.51 351.56 302.68 C 349.64 301.14 347.44 300.05 345.13 299.25 C 346.32 299.38 347.51 299.49 348.71 299.56 C 349.61 299.52 351.39 299.43 352.28 299.39 C 352.65 299.19 353.39 298.79 353.76 298.59 C 354.18 296.14 354.05 293.65 353.80 291.19 C 349.22 290.71 344.61 290.47 340.00 290.54 Z" />
</g>
<g id="#8d9282ff">
<path fill="#8d9282" opacity="1.00" d=" M 308.87 290.58 C 312.45 291.49 310.16 296.73 313.01 298.76 C 315.63 300.38 318.76 299.58 320.50 297.11 L 320.92 296.76 C 322.72 298.36 325.02 298.72 327.28 297.97 C 327.35 297.00 327.40 296.04 327.45 295.08 C 334.54 298.67 341.74 302.32 349.65 303.65 C 348.52 303.87 347.41 304.14 346.30 304.40 C 347.11 305.38 347.92 306.36 348.78 307.31 C 344.68 305.95 340.37 305.58 336.12 304.98 C 333.36 304.79 331.89 301.71 329.17 301.49 C 325.15 301.18 321.12 301.32 317.10 301.09 C 319.88 303.11 322.22 306.38 325.82 306.84 C 336.43 306.90 346.23 311.58 356.24 314.50 C 358.19 315.16 359.87 313.62 361.53 312.84 C 362.54 311.37 362.24 309.51 362.34 307.84 C 368.37 309.82 374.56 311.34 380.48 313.64 C 382.50 314.19 382.89 316.39 383.59 318.06 C 382.17 318.91 380.68 319.66 379.20 320.39 C 377.98 319.56 376.92 319.70 376.02 320.81 C 375.31 321.56 374.58 322.30 373.84 323.03 C 371.10 323.16 368.03 324.18 365.56 322.48 C 362.03 320.04 357.68 319.90 353.57 319.51 C 350.18 319.26 346.36 318.64 343.51 320.97 C 343.88 321.30 344.62 321.94 344.99 322.26 C 345.63 322.82 346.27 323.39 346.91 323.97 C 346.31 324.20 345.10 324.66 344.50 324.89 C 342.84 323.75 341.20 322.56 339.43 321.61 C 336.58 320.03 333.19 320.32 330.07 319.84 C 329.03 319.52 328.02 319.18 327.01 318.83 C 326.90 317.69 326.79 316.56 326.69 315.43 C 324.67 315.26 322.66 315.09 320.65 314.90 C 320.81 314.53 321.13 313.78 321.29 313.40 C 324.23 312.64 327.29 312.39 330.25 311.65 C 326.65 309.04 322.11 308.58 318.04 307.05 C 313.63 305.39 308.90 304.52 304.77 302.16 C 306.02 301.36 307.27 300.56 308.51 299.76 C 308.52 296.69 308.61 293.63 308.87 290.58 M 369.27 311.65 C 367.13 311.93 365.36 313.29 363.97 314.86 C 365.78 314.98 367.96 314.18 369.37 315.72 C 367.55 316.18 365.93 317.09 364.97 318.75 C 367.34 319.60 370.71 320.86 372.27 318.00 L 371.65 317.51 C 374.13 317.69 377.83 317.40 378.09 314.25 C 375.24 313.13 372.35 311.86 369.27 311.65 Z" />
</g>
<g id="#e5ffffff">
<path fill="#e5ffff" opacity="1.00" d=" M 318.99 292.10 C 320.23 291.63 321.52 291.30 322.83 291.08 C 322.93 291.82 323.13 293.29 323.24 294.03 C 322.24 294.59 321.18 294.94 320.05 295.08 C 319.69 294.08 319.34 293.09 318.99 292.10 Z" />
</g>
<g id="#ffdc4eff">
<path fill="#ffdc4e" opacity="1.00" d=" M 349.31 293.21 C 350.51 292.82 351.72 292.44 352.93 292.06 C 353.28 294.53 353.05 297.01 352.28 299.39 C 351.39 299.43 349.61 299.52 348.71 299.56 C 348.91 297.44 349.11 295.33 349.31 293.21 Z" />
</g>
<g id="#6a6b63ff">
<path fill="#6a6b63" opacity="1.00" d=" M 242.78 293.97 C 246.19 295.14 249.55 296.47 252.97 297.64 C 252.53 297.92 251.64 298.50 251.20 298.79 C 253.09 299.48 254.97 300.18 256.91 300.73 C 256.64 301.12 256.11 301.90 255.84 302.29 C 256.04 303.60 256.23 304.90 256.45 306.21 C 255.23 306.86 253.88 306.97 252.53 306.88 C 251.62 304.34 251.08 301.61 249.60 299.33 C 248.43 298.80 247.19 298.46 245.98 298.07 C 246.79 300.28 247.63 302.47 248.47 304.67 C 246.15 305.82 243.62 306.76 241.90 308.80 C 244.80 310.76 248.25 312.75 251.86 311.69 C 255.17 310.49 258.28 312.78 261.52 312.61 C 264.89 310.30 265.79 305.80 264.25 302.15 C 267.94 302.44 271.65 302.27 275.35 302.43 C 275.61 303.64 275.89 304.85 276.16 306.06 C 275.67 306.93 275.20 307.81 274.74 308.70 C 274.10 309.99 273.53 311.32 272.99 312.66 C 273.68 312.64 275.07 312.61 275.77 312.59 C 273.51 313.46 272.33 315.48 272.02 317.79 C 271.92 317.33 271.73 316.41 271.64 315.95 C 266.45 316.36 261.38 315.07 256.25 314.57 C 250.99 313.88 245.65 314.41 240.40 313.65 C 238.67 312.33 238.45 309.97 238.24 307.98 C 237.99 303.02 238.26 297.06 242.78 293.97 Z" />
</g>
<g id="#2f2e2eff">
<path fill="#2f2e2e" opacity="1.00" d=" M 287.55 296.54 C 289.21 297.41 290.85 298.32 292.60 299.01 C 294.43 299.66 296.27 300.29 298.09 300.98 C 297.74 302.04 297.42 303.10 297.11 304.18 C 294.32 305.77 291.43 307.42 288.17 307.74 C 288.37 307.26 288.78 306.28 288.99 305.79 C 287.45 305.54 285.91 305.29 284.37 305.12 C 284.26 305.55 284.03 306.43 283.92 306.87 C 282.73 305.88 281.46 304.99 280.19 304.12 C 284.83 301.45 290.20 301.41 295.36 302.06 C 292.59 300.47 288.91 299.78 287.55 296.54 Z" />
</g>
<g id="#7c7d75ff">
<path fill="#7c7d75" opacity="1.00" d=" M 245.98 298.07 C 247.19 298.46 248.43 298.80 249.60 299.33 C 251.08 301.61 251.62 304.34 252.53 306.88 C 253.88 306.97 255.23 306.86 256.45 306.21 C 256.23 304.90 256.04 303.60 255.84 302.29 C 256.11 301.90 256.64 301.12 256.91 300.73 C 259.33 301.32 261.78 301.80 264.25 302.15 C 265.79 305.80 264.89 310.30 261.52 312.61 C 258.28 312.78 255.17 310.49 251.86 311.69 C 248.25 312.75 244.80 310.76 241.90 308.80 C 243.62 306.76 246.15 305.82 248.47 304.67 C 247.63 302.47 246.79 300.28 245.98 298.07 Z" />
</g>
<g id="#676668ff">
<path fill="#676668" opacity="1.00" d=" M 292.60 299.01 C 293.71 298.69 294.83 298.37 295.94 298.06 C 299.06 299.00 302.01 300.42 304.77 302.16 C 308.90 304.52 313.63 305.39 318.04 307.05 C 322.11 308.58 326.65 309.04 330.25 311.65 C 327.29 312.39 324.23 312.64 321.29 313.40 C 321.13 313.78 320.81 314.53 320.65 314.90 C 322.66 315.09 324.67 315.26 326.69 315.43 C 326.79 316.56 326.90 317.69 327.01 318.83 C 328.02 319.18 329.03 319.52 330.07 319.84 C 327.15 319.61 324.01 319.33 321.69 317.36 C 320.03 315.44 319.43 312.87 318.03 310.78 C 316.55 309.24 314.29 309.42 312.35 309.16 C 311.61 311.56 311.12 314.30 308.86 315.80 C 308.71 313.24 309.50 310.79 310.05 308.33 C 308.18 307.72 306.33 306.37 304.31 306.71 C 302.72 307.54 301.33 308.69 299.90 309.75 C 299.02 309.41 298.16 309.08 297.29 308.75 C 297.20 307.22 297.11 305.70 297.11 304.18 C 297.42 303.10 297.74 302.04 298.09 300.98 C 296.27 300.29 294.43 299.66 292.60 299.01 Z" />
</g>
<g id="#5f5e66ff">
<path fill="#5f5e66" opacity="1.00" d=" M 317.10 301.09 C 321.12 301.32 325.15 301.18 329.17 301.49 C 331.89 301.71 333.36 304.79 336.12 304.98 C 340.37 305.58 344.68 305.95 348.78 307.31 C 353.13 308.90 357.78 309.96 361.53 312.84 C 359.87 313.62 358.19 315.16 356.24 314.50 C 346.23 311.58 336.43 306.90 325.82 306.84 C 322.22 306.38 319.88 303.11 317.10 301.09 Z" />
</g>
<g id="#020202c1">
<path fill="#020202" opacity="0.76" d=" M 276.16 306.06 C 277.50 305.41 278.83 304.74 280.19 304.12 C 281.46 304.99 282.73 305.88 283.92 306.87 C 284.25 307.16 284.92 307.75 285.25 308.04 C 284.62 308.56 283.99 309.08 283.37 309.61 C 280.69 308.17 277.65 308.32 274.74 308.70 C 275.20 307.81 275.67 306.93 276.16 306.06 Z" />
</g>
<g id="#525250ff">
<path fill="#525250" opacity="1.00" d=" M 288.17 307.74 C 291.43 307.42 294.32 305.77 297.11 304.18 C 297.11 305.70 297.20 307.22 297.29 308.75 C 298.16 309.08 299.02 309.41 299.90 309.75 C 301.33 308.69 302.72 307.54 304.31 306.71 C 306.33 306.37 308.18 307.72 310.05 308.33 C 309.50 310.79 308.71 313.24 308.86 315.80 C 303.22 320.22 295.97 323.45 288.66 322.49 C 286.02 322.18 283.38 322.73 280.91 323.65 C 283.75 322.15 286.86 321.18 289.60 319.51 C 291.70 317.34 290.91 312.83 287.84 311.99 C 285.53 311.49 283.15 311.62 280.81 311.68 C 281.67 311.01 282.52 310.32 283.37 309.61 C 283.99 309.08 284.62 308.56 285.25 308.04 C 286.22 307.99 287.20 307.89 288.17 307.74 M 299.53 311.26 C 297.89 314.39 296.01 317.38 293.94 320.24 C 294.43 320.54 295.41 321.12 295.90 321.41 C 298.85 318.50 300.52 314.53 303.89 311.99 C 302.45 311.67 300.99 311.42 299.53 311.26 Z" />
</g>
<g id="#a9b194ff">
<path fill="#a9b194" opacity="1.00" d=" M 346.30 304.40 C 347.41 304.14 348.52 303.87 349.65 303.65 C 353.98 304.73 358.11 306.47 362.34 307.84 C 362.24 309.51 362.54 311.37 361.53 312.84 C 357.78 309.96 353.13 308.90 348.78 307.31 C 347.92 306.36 347.11 305.38 346.30 304.40 Z" />
</g>
<g id="#747277fe">
<path fill="#747277" opacity="1.00" d=" M 284.37 305.12 C 285.91 305.29 287.45 305.54 288.99 305.79 C 288.78 306.28 288.37 307.26 288.17 307.74 C 287.20 307.89 286.22 307.99 285.25 308.04 C 284.92 307.75 284.25 307.16 283.92 306.87 C 284.03 306.43 284.26 305.55 284.37 305.12 Z" />
</g>
<g id="#00000010">
</g>
<g id="#666564ff">
<path fill="#666564" opacity="1.00" d=" M 299.53 311.26 C 300.99 311.42 302.45 311.67 303.89 311.99 C 300.52 314.53 298.85 318.50 295.90 321.41 C 295.41 321.12 294.43 320.54 293.94 320.24 C 296.01 317.38 297.89 314.39 299.53 311.26 Z" />
</g>
<g id="#a1aa8dff">
<path fill="#a1aa8d" opacity="1.00" d=" M 369.27 311.65 C 372.35 311.86 375.24 313.13 378.09 314.25 C 377.83 317.40 374.13 317.69 371.65 317.51 C 370.88 316.91 370.13 316.31 369.37 315.72 C 367.96 314.18 365.78 314.98 363.97 314.86 C 365.36 313.29 367.13 311.93 369.27 311.65 Z" />
</g>
<g id="#bc896aff">
<path fill="#bc896a" opacity="1.00" d=" M 275.77 312.59 C 277.45 312.32 279.13 312.01 280.81 311.68 C 283.15 311.62 285.53 311.49 287.84 311.99 C 290.91 312.83 291.70 317.34 289.60 319.51 C 286.86 321.18 283.75 322.15 280.91 323.65 C 280.42 323.88 279.44 324.34 278.95 324.57 C 276.89 325.53 274.81 326.42 272.74 327.34 C 273.06 325.34 273.34 323.33 273.57 321.33 C 272.93 320.97 272.30 320.62 271.66 320.28 C 271.75 319.66 271.93 318.42 272.02 317.79 C 272.33 315.48 273.51 313.46 275.77 312.59 Z" />
</g>
<g id="#6b6d71ff">
<path fill="#6b6d71" opacity="1.00" d=" M 233.92 315.19 C 236.46 315.94 240.17 316.66 240.01 320.08 C 237.70 320.38 235.59 319.36 233.91 317.86 C 233.91 317.19 233.92 315.86 233.92 315.19 Z" />
</g>
<g id="#312a27ff">
<path fill="#312a27" opacity="1.00" d=" M 239.88 315.19 C 245.30 314.46 250.79 314.58 256.25 314.57 C 261.38 315.07 266.45 316.36 271.64 315.95 C 271.73 316.41 271.92 317.33 272.02 317.79 C 271.93 318.42 271.75 319.66 271.66 320.28 C 267.07 320.64 263.13 317.75 258.66 317.29 C 253.15 316.68 247.34 316.07 242.07 318.21 C 241.29 317.24 240.58 316.21 239.88 315.19 Z" />
</g>
<g id="#454447ff">
<path fill="#454447" opacity="1.00" d=" M 364.97 318.75 C 365.93 317.09 367.55 316.18 369.37 315.72 C 370.13 316.31 370.88 316.91 371.65 317.51 L 372.27 318.00 C 370.71 320.86 367.34 319.60 364.97 318.75 Z" />
</g>
<g id="#605f5dff">
<path fill="#605f5d" opacity="1.00" d=" M 242.07 318.21 C 247.34 316.07 253.15 316.68 258.66 317.29 C 263.13 317.75 267.07 320.64 271.66 320.28 C 272.30 320.62 272.93 320.97 273.57 321.33 C 273.34 323.33 273.06 325.34 272.74 327.34 C 271.23 328.01 269.72 328.68 268.20 329.32 C 262.84 329.54 257.53 328.51 252.17 328.54 C 250.91 327.80 249.69 327.01 248.51 326.17 C 249.12 325.40 249.74 324.64 250.36 323.88 C 256.17 324.42 262.00 325.70 267.84 324.87 C 269.20 324.87 269.53 323.23 270.29 322.40 C 262.71 323.16 254.81 322.43 248.14 318.48 C 247.76 319.25 247.39 320.02 247.03 320.79 C 245.26 320.19 243.56 319.36 242.07 318.21 Z" />
</g>
<g id="#8d8d91ff">
<path fill="#8d8d91" opacity="1.00" d=" M 248.14 318.48 C 254.81 322.43 262.71 323.16 270.29 322.40 C 269.53 323.23 269.20 324.87 267.84 324.87 C 262.00 325.70 256.17 324.42 250.36 323.88 C 249.74 324.64 249.12 325.40 248.51 326.17 C 248.15 324.34 248.12 322.39 247.03 320.79 C 247.39 320.02 247.76 319.25 248.14 318.48 Z" />
</g>
<g id="#656564ff">
<path fill="#656564" opacity="1.00" d=" M 222.19 323.07 C 222.02 320.77 224.27 319.74 226.03 318.99 C 226.60 319.09 227.74 319.31 228.31 319.41 C 228.73 322.95 228.33 326.62 229.33 330.07 C 232.29 334.15 237.16 336.01 241.98 336.84 C 240.07 338.77 238.06 340.62 235.88 342.25 C 232.23 342.39 228.64 340.42 226.07 337.93 C 223.00 333.69 222.03 328.21 222.19 323.07 M 224.23 326.12 C 225.09 328.11 226.24 329.97 228.04 331.24 C 227.61 328.70 227.82 325.69 225.95 323.69 C 225.37 324.49 224.80 325.31 224.23 326.12 M 228.93 335.10 C 229.02 336.32 229.11 337.55 229.20 338.78 C 230.91 339.88 232.92 339.99 234.90 339.87 C 234.11 337.15 231.20 336.24 228.93 335.10 Z" />
</g>
<g id="#65666bff">
<path fill="#65666b" opacity="1.00" d=" M 343.51 320.97 C 346.36 318.64 350.18 319.26 353.57 319.51 C 357.68 319.90 362.03 320.04 365.56 322.48 C 368.03 324.18 371.10 323.16 373.84 323.03 C 370.89 323.92 367.82 324.35 364.78 324.86 C 364.82 326.49 364.89 328.12 364.96 329.75 C 361.69 331.07 358.63 333.02 355.18 333.80 C 351.23 333.55 347.96 331.02 344.79 328.91 C 344.68 327.57 344.59 326.23 344.50 324.89 C 345.65 325.91 346.82 326.92 347.99 327.92 C 349.24 327.45 350.49 326.99 351.74 326.53 C 352.59 327.36 353.43 328.19 354.29 329.02 C 355.43 328.13 356.62 327.29 357.92 326.64 C 358.58 326.38 359.90 325.87 360.56 325.61 L 360.12 324.83 C 356.09 323.83 351.92 323.46 347.78 323.66 C 349.57 323.02 351.37 322.38 353.14 321.68 C 350.45 320.50 347.67 321.76 344.99 322.26 C 344.62 321.94 343.88 321.30 343.51 320.97 Z" />
</g>
<g id="#373832b1">
<path fill="#373832" opacity="0.69" d=" M 376.02 320.81 C 376.92 319.70 377.98 319.56 379.20 320.39 C 378.19 321.39 377.13 321.53 376.02 320.81 Z" />
</g>
<g id="#7d7d82ff">
<path fill="#7d7d82" opacity="1.00" d=" M 347.78 323.66 C 351.92 323.46 356.09 323.83 360.12 324.83 C 358.66 324.49 357.93 325.09 357.92 326.64 C 356.62 327.29 355.43 328.13 354.29 329.02 C 353.43 328.19 352.59 327.36 351.74 326.53 C 350.49 326.99 349.24 327.45 347.99 327.92 C 346.82 326.92 345.65 325.91 344.50 324.89 C 345.10 324.66 346.31 324.20 346.91 323.97 L 347.78 323.66 Z" />
</g>
<g id="#8e8d8fff">
<path fill="#8e8d8f" opacity="1.00" d=" M 224.23 326.12 C 224.80 325.31 225.37 324.49 225.95 323.69 C 227.82 325.69 227.61 328.70 228.04 331.24 C 226.24 329.97 225.09 328.11 224.23 326.12 Z" />
</g>
<g id="#c6c5cdff">
<path fill="#c6c5cd" opacity="1.00" d=" M 357.92 326.64 C 357.93 325.09 358.66 324.49 360.12 324.83 L 360.56 325.61 C 359.90 325.87 358.58 326.38 357.92 326.64 Z" />
</g>
<g id="#3a3936ff">
<path fill="#3a3936" opacity="1.00" d=" M 252.17 328.54 C 257.53 328.51 262.84 329.54 268.20 329.32 C 264.66 330.78 261.35 332.70 258.17 334.82 C 254.19 334.18 250.20 333.54 246.26 332.65 C 246.31 332.11 246.41 331.04 246.46 330.50 C 248.34 329.78 250.22 329.04 252.17 328.54 Z" />
</g>
<g id="#7e7d7dff">
<path fill="#7e7d7d" opacity="1.00" d=" M 228.93 335.10 C 231.20 336.24 234.11 337.15 234.90 339.87 C 232.92 339.99 230.91 339.88 229.20 338.78 C 229.11 337.55 229.02 336.32 228.93 335.10 Z" />
</g>
</svg>

