<?xml version="1.0" encoding="UTF-8" ?>
<!DOCTYPE svg PUBLIC "-//W3C//DTD SVG 1.1//EN" "http://www.w3.org/Graphics/SVG/1.1/DTD/svg11.dtd">
<svg width="512pt" height="512pt" viewBox="0 0 512 512" version="1.1" xmlns="http://www.w3.org/2000/svg">
<g id="#9ca48fff">
<path fill="#9ca48f" opacity="1.00" d=" M 409.59 172.64 C 412.87 169.97 417.15 169.53 421.19 169.02 C 417.53 172.03 413.97 175.16 410.42 178.29 C 410.54 177.76 410.79 176.70 410.91 176.16 C 409.29 176.34 407.68 176.51 406.07 176.69 C 407.23 175.32 408.37 173.95 409.59 172.64 Z" />
</g>
<g id="#a2a6a7ff">
<path fill="#a2a6a7" opacity="1.00" d=" M 421.19 169.02 C 421.75 169.06 422.86 169.14 423.41 169.18 L 423.35 170.08 C 419.54 173.23 418.76 178.64 414.73 181.53 C 410.00 185.15 406.60 190.19 401.79 193.72 C 398.22 196.35 394.88 199.26 391.86 202.51 C 389.28 205.33 385.56 207.34 384.21 211.11 C 383.43 213.04 382.84 215.04 382.21 217.03 C 380.81 215.75 379.41 214.48 378.00 213.22 C 378.81 211.46 379.67 209.72 380.50 207.97 C 380.03 208.02 379.08 208.13 378.61 208.18 C 382.14 204.16 386.45 200.95 390.34 197.30 C 392.52 195.25 395.02 193.60 397.61 192.10 C 399.40 192.15 401.19 192.17 402.99 192.16 C 403.12 190.82 403.25 189.48 403.39 188.14 C 401.75 189.42 400.06 190.63 398.27 191.70 C 399.77 185.64 406.98 184.73 409.37 179.24 C 409.63 179.01 410.16 178.53 410.42 178.29 C 413.97 175.16 417.53 172.03 421.19 169.02 Z" />
</g>
<g id="#6d6e72ff">
<path fill="#6d6e72" opacity="1.00" d=" M 423.41 169.18 C 423.73 169.36 424.38 169.72 424.70 169.90 C 424.76 172.55 425.09 175.33 427.30 177.10 C 422.62 182.05 415.62 185.43 413.59 192.37 C 412.47 195.03 411.05 197.57 409.30 199.87 C 408.40 200.68 407.47 201.44 406.51 202.17 C 403.30 203.96 400.73 206.59 398.62 209.56 C 397.81 207.85 396.40 206.16 394.29 206.55 C 391.77 208.11 389.55 210.17 387.62 212.41 C 387.73 213.47 387.93 214.51 388.23 215.54 C 388.34 215.91 388.57 216.64 388.68 217.01 C 387.42 217.36 386.18 217.75 384.98 218.25 C 385.13 214.47 385.26 210.06 388.50 207.50 C 398.60 198.72 408.22 189.44 418.29 180.64 C 420.00 178.93 422.08 177.42 423.11 175.18 C 423.41 173.49 423.30 171.77 423.35 170.08 L 423.41 169.18 Z" />
</g>
<g id="#282a2ce4">
<path fill="#282a2c" opacity="0.89" d=" M 424.70 169.90 C 428.01 170.83 428.53 174.30 427.30 177.10 C 425.09 175.33 424.76 172.55 424.70 169.90 Z" />
</g>
<g id="#818282ff">
<path fill="#818282" opacity="1.00" d=" M 414.73 181.53 C 418.76 178.64 419.54 173.23 423.35 170.08 C 423.30 171.77 423.41 173.49 423.11 175.18 C 422.08 177.42 420.00 178.93 418.29 180.64 C 408.22 189.44 398.60 198.72 388.50 207.50 C 385.26 210.06 385.13 214.47 384.98 218.25 C 381.50 221.00 378.07 223.84 374.35 226.27 C 374.36 225.55 374.40 224.11 374.41 223.39 C 373.15 224.35 371.90 225.31 370.71 226.35 C 369.33 224.56 367.74 222.95 366.12 221.38 C 365.70 220.98 364.85 220.18 364.43 219.78 C 360.68 222.87 357.54 226.58 353.96 229.86 C 352.88 229.60 351.80 229.35 350.72 229.11 C 356.05 223.30 362.23 218.39 368.36 213.48 C 371.53 214.59 374.91 214.56 378.00 213.22 C 379.41 214.48 380.81 215.75 382.21 217.03 C 382.84 215.04 383.43 213.04 384.21 211.11 C 385.56 207.34 389.28 205.33 391.86 202.51 C 394.88 199.26 398.22 196.35 401.79 193.72 C 406.60 190.19 410.00 185.15 414.73 181.53 M 368.23 219.05 C 368.01 219.34 367.57 219.92 367.35 220.21 C 368.17 223.27 371.58 218.38 368.23 219.05 Z" />
</g>
<g id="#757b74ff">
<path fill="#757b74" opacity="1.00" d=" M 402.84 174.99 C 405.19 174.55 407.47 173.77 409.59 172.64 C 408.37 173.95 407.23 175.32 406.07 176.69 C 407.68 176.51 409.29 176.34 410.91 176.16 C 410.79 176.70 410.54 177.76 410.42 178.29 C 410.16 178.53 409.63 179.01 409.37 179.24 C 406.69 181.00 403.93 182.63 401.17 184.25 C 401.45 181.12 401.98 178.02 402.84 174.99 Z" />
</g>
<g id="#969999ff">
<path fill="#969999" opacity="1.00" d=" M 396.14 179.12 C 398.14 177.43 400.08 175.31 402.84 174.99 C 401.98 178.02 401.45 181.12 401.17 184.25 C 403.93 182.63 406.69 181.00 409.37 179.24 C 406.98 184.73 399.77 185.64 398.27 191.70 L 397.61 192.10 C 395.02 193.60 392.52 195.25 390.34 197.30 C 386.45 200.95 382.14 204.16 378.61 208.18 C 377.29 209.48 375.99 210.80 374.62 212.04 C 373.91 211.62 372.49 210.78 371.78 210.36 C 377.55 204.89 383.85 200.02 389.79 194.75 C 392.00 192.80 393.78 190.43 395.38 187.96 C 393.70 188.82 392.02 189.68 390.45 190.73 C 388.78 190.04 387.10 189.37 385.44 188.68 L 386.07 188.11 C 389.47 185.16 392.84 182.18 396.14 179.12 Z" />
</g>
<g id="#444645ff">
<path fill="#444645" opacity="1.00" d=" M 210.67 183.00 C 215.48 182.29 220.35 182.16 225.15 181.42 C 232.72 181.18 240.24 182.43 247.78 182.92 C 242.80 183.51 238.23 185.60 233.77 187.75 C 228.85 188.48 223.90 189.17 219.22 190.96 C 219.62 188.36 219.93 185.74 220.08 183.11 C 216.95 182.97 213.81 182.85 210.67 183.00 Z" />
</g>
<g id="#585957ff">
<path fill="#585957" opacity="1.00" d=" M 201.51 182.36 C 204.57 182.59 207.60 183.43 210.67 183.00 C 213.81 182.85 216.95 182.97 220.08 183.11 C 219.93 185.74 219.62 188.36 219.22 190.96 C 223.90 189.17 228.85 188.48 233.77 187.75 C 231.85 189.46 230.29 191.53 228.83 193.64 C 229.67 193.81 231.37 194.17 232.22 194.34 C 230.48 196.54 228.92 198.86 227.36 201.18 C 227.95 201.04 229.14 200.76 229.73 200.63 C 225.67 202.24 221.48 204.04 218.86 207.72 C 221.72 206.50 224.61 205.34 227.62 204.52 C 226.98 209.30 226.48 214.13 226.97 218.95 C 225.22 216.86 223.01 215.23 220.69 213.82 C 221.05 215.86 221.59 217.87 222.18 219.86 C 217.13 217.77 216.76 212.04 215.04 207.58 C 213.42 203.87 215.77 200.05 216.69 196.48 C 213.47 196.27 210.25 196.15 207.02 196.11 C 207.47 199.95 209.20 203.41 211.62 206.39 C 213.39 208.20 212.80 210.78 212.63 213.05 C 211.09 211.43 209.18 210.25 207.14 209.37 C 203.95 207.68 200.24 208.01 196.87 207.03 C 195.23 205.24 194.19 203.02 193.04 200.91 C 190.03 195.69 191.92 188.27 197.51 185.66 C 197.72 187.58 197.93 189.50 198.17 191.42 C 200.52 189.70 203.09 187.91 204.15 185.05 C 203.34 184.08 202.41 183.23 201.51 182.36 M 200.00 203.41 C 199.83 199.47 199.03 195.57 197.67 191.87 C 194.62 195.00 194.75 202.63 200.00 203.41 Z" />
</g>
<g id="#81807fff">
<path fill="#81807f" opacity="1.00" d=" M 197.51 185.66 C 198.87 184.60 200.19 183.47 201.51 182.36 C 202.41 183.23 203.34 184.08 204.15 185.05 C 203.09 187.91 200.52 189.70 198.17 191.42 C 197.93 189.50 197.72 187.58 197.51 185.66 Z" />
</g>
<g id="#717474ff">
<path fill="#717474" opacity="1.00" d=" M 233.77 187.75 C 238.23 185.60 242.80 183.51 247.78 182.92 C 248.54 183.47 249.30 184.04 250.04 184.63 L 250.62 185.17 C 243.94 186.90 237.72 190.21 232.22 194.34 C 231.37 194.17 229.67 193.81 228.83 193.64 C 230.29 191.53 231.85 189.46 233.77 187.75 Z" />
</g>
<g id="#646461ff">
<path fill="#646461" opacity="1.00" d=" M 250.04 184.63 C 257.27 184.62 264.90 185.16 270.90 189.67 C 268.97 190.10 266.10 189.32 265.05 191.51 C 264.41 192.52 263.86 193.60 263.30 194.66 C 261.04 193.34 258.75 192.07 256.43 190.86 C 256.05 193.23 255.68 195.61 255.29 197.98 C 257.27 199.21 259.27 200.41 261.30 201.56 C 262.46 200.02 263.63 198.48 264.79 196.95 C 265.84 198.61 266.78 200.39 268.15 201.84 C 269.93 202.63 271.90 202.86 273.79 203.34 C 277.97 205.49 282.65 205.16 287.18 205.63 C 286.64 207.26 286.11 208.89 285.58 210.52 C 283.35 210.85 281.13 211.18 278.91 211.54 C 283.31 215.82 288.94 218.39 293.93 221.85 C 290.49 221.88 287.04 221.82 283.61 221.58 C 279.93 219.17 275.54 218.69 271.35 219.85 C 271.56 220.47 271.99 221.70 272.21 222.32 C 269.94 222.06 267.71 221.56 265.46 221.22 C 261.05 219.92 256.77 222.02 252.69 223.43 C 249.45 224.65 245.80 225.72 243.79 228.78 C 240.29 233.79 236.87 238.88 233.54 244.01 C 232.85 243.23 232.17 242.44 231.49 241.66 C 232.80 238.92 233.91 236.04 234.21 232.99 C 231.86 234.22 229.09 235.33 227.92 237.91 C 226.48 240.90 225.23 244.00 223.49 246.84 C 222.02 243.49 221.56 239.67 223.01 236.23 C 225.07 233.82 227.48 231.61 228.77 228.66 C 229.93 226.19 228.84 223.47 228.22 221.02 C 228.72 221.72 229.25 222.42 229.78 223.11 C 230.53 221.80 231.27 220.49 232.03 219.19 C 235.96 218.21 239.72 216.55 242.86 213.96 C 248.04 209.66 254.62 207.84 260.30 204.38 C 256.65 201.28 252.95 198.24 249.41 195.02 C 249.43 194.46 249.47 193.33 249.49 192.77 C 251.19 193.49 252.89 194.20 254.61 194.88 C 254.15 192.90 253.75 190.73 251.95 189.49 C 251.04 190.21 250.22 191.03 249.50 191.94 C 249.25 191.11 248.98 190.27 248.70 189.45 C 247.70 189.45 246.70 189.46 245.70 189.49 L 244.82 189.53 C 247.16 188.42 249.54 187.41 251.94 186.44 C 251.61 186.12 250.95 185.49 250.62 185.17 L 250.04 184.63 M 258.36 208.31 C 254.61 209.89 250.74 211.20 247.10 213.04 C 240.02 216.67 234.56 222.66 229.81 228.91 C 228.95 229.79 229.23 231.01 229.32 232.11 C 233.63 228.12 238.43 224.72 242.85 220.87 C 247.58 216.44 253.85 214.29 259.72 211.83 C 263.47 210.17 268.54 210.93 271.27 207.43 C 266.98 206.93 262.42 206.53 258.36 208.31 Z" />
</g>
<g id="#909397ff">
<path fill="#909397" opacity="1.00" d=" M 232.22 194.34 C 237.72 190.21 243.94 186.90 250.62 185.17 C 250.95 185.49 251.61 186.12 251.94 186.44 C 249.54 187.41 247.16 188.42 244.82 189.53 C 240.03 191.59 235.23 194.47 233.01 199.44 C 231.91 199.81 230.82 200.22 229.73 200.63 C 229.14 200.76 227.95 201.04 227.36 201.18 C 228.92 198.86 230.48 196.54 232.22 194.34 Z" />
</g>
<g id="#000000c0">
<path fill="#000000" opacity="0.75" d=" M 371.02 192.63 C 376.01 190.96 380.55 187.62 386.07 188.11 L 385.44 188.68 C 377.88 195.90 368.94 201.99 363.38 211.03 C 361.71 209.05 360.20 206.93 358.76 204.78 C 357.76 205.52 356.76 206.27 355.76 207.01 C 355.52 207.75 355.04 209.23 354.80 209.97 C 356.42 212.30 358.06 214.61 359.69 216.93 C 354.44 221.47 349.52 226.45 343.83 230.46 L 343.23 230.88 C 337.67 232.78 333.70 237.07 330.22 241.59 C 328.74 239.97 327.44 238.21 326.18 236.44 C 324.15 234.42 324.53 231.58 324.68 228.98 C 325.41 230.42 326.10 231.88 326.80 233.34 C 329.46 231.30 332.02 229.14 334.50 226.88 C 333.29 224.74 331.38 222.76 331.17 220.24 C 331.88 219.22 332.75 218.32 333.59 217.41 C 335.18 219.04 336.77 220.68 338.38 222.29 C 341.23 219.44 343.68 216.17 346.94 213.74 C 351.84 210.07 355.25 204.85 359.90 200.89 C 363.41 197.92 366.61 194.28 371.02 192.63 Z" />
</g>
<g id="#b5bdaaff">
<path fill="#b5bdaa" opacity="1.00" d=" M 390.45 190.73 C 392.02 189.68 393.70 188.82 395.38 187.96 C 393.78 190.43 392.00 192.80 389.79 194.75 C 383.85 200.02 377.55 204.89 371.78 210.36 C 371.25 210.05 370.19 209.42 369.66 209.11 C 376.41 202.77 383.20 196.50 390.45 190.73 Z" />
</g>
<g id="#ced2ceff">
<path fill="#ced2ce" opacity="1.00" d=" M 398.27 191.70 C 400.06 190.63 401.75 189.42 403.39 188.14 C 403.25 189.48 403.12 190.82 402.99 192.16 C 401.19 192.17 399.40 192.15 397.61 192.10 L 398.27 191.70 Z" />
</g>
<g id="#30302cff">
<path fill="#30302c" opacity="1.00" d=" M 245.70 189.49 C 246.70 189.46 247.70 189.45 248.70 189.45 C 248.98 190.27 249.25 191.11 249.50 191.94 L 249.49 192.77 C 249.47 193.33 249.43 194.46 249.41 195.02 C 242.85 199.60 235.31 202.50 227.62 204.52 C 224.61 205.34 221.72 206.50 218.86 207.72 C 221.48 204.04 225.67 202.24 229.73 200.63 C 230.82 200.22 231.91 199.81 233.01 199.44 C 238.20 198.17 243.40 196.34 247.18 192.36 C 246.81 191.64 246.07 190.21 245.70 189.49 Z" />
</g>
<g id="#4f504eff">
<path fill="#4f504e" opacity="1.00" d=" M 265.05 191.51 C 266.10 189.32 268.97 190.10 270.90 189.67 C 270.64 193.72 270.25 197.76 269.49 201.74 C 270.92 202.26 272.36 202.79 273.79 203.34 C 271.90 202.86 269.93 202.63 268.15 201.84 C 266.78 200.39 265.84 198.61 264.79 196.95 C 263.63 198.48 262.46 200.02 261.30 201.56 C 259.27 200.41 257.27 199.21 255.29 197.98 C 255.68 195.61 256.05 193.23 256.43 190.86 C 258.75 192.07 261.04 193.34 263.30 194.66 C 263.86 193.60 264.41 192.52 265.05 191.51 Z" />
</g>
<g id="#6d7269fa">
<path fill="#6d7269" opacity="0.98" d=" M 363.38 211.03 C 368.94 201.99 377.88 195.90 385.44 188.68 C 387.10 189.37 388.78 190.04 390.45 190.73 C 383.20 196.50 376.41 202.77 369.66 209.11 C 367.83 210.69 365.94 212.20 364.05 213.71 C 361.83 210.88 359.30 208.13 355.76 207.01 C 356.76 206.27 357.76 205.52 358.76 204.78 C 360.20 206.93 361.71 209.05 363.38 211.03 Z" />
</g>
<g id="#59534fff">
<path fill="#59534f" opacity="1.00" d=" M 233.01 199.44 C 235.23 194.47 240.03 191.59 244.82 189.53 L 245.70 189.49 C 246.07 190.21 246.81 191.64 247.18 192.36 C 243.40 196.34 238.20 198.17 233.01 199.44 Z" />
</g>
<g id="#b5876aff">
<path fill="#b5876a" opacity="1.00" d=" M 249.50 191.94 C 250.22 191.03 251.04 190.21 251.95 189.49 C 253.75 190.73 254.15 192.90 254.61 194.88 C 252.89 194.20 251.19 193.49 249.49 192.77 L 249.50 191.94 Z" />
</g>
<g id="#767473ff">
<path fill="#767473" opacity="1.00" d=" M 200.00 203.41 C 194.75 202.63 194.62 195.00 197.67 191.87 C 199.03 195.57 199.83 199.47 200.00 203.41 Z" />
</g>
<g id="#838387ff">
<path fill="#838387" opacity="1.00" d=" M 409.30 199.87 C 411.05 197.57 412.47 195.03 413.59 192.37 C 415.23 193.03 416.90 193.65 418.56 194.31 C 417.76 196.44 417.40 199.00 415.48 200.47 C 412.37 202.98 409.41 205.67 406.48 208.39 C 404.75 207.39 402.94 208.63 401.83 209.93 C 397.79 212.87 393.76 216.14 388.68 217.01 C 388.57 216.64 388.34 215.91 388.23 215.54 C 392.63 215.80 396.06 212.80 398.62 209.56 C 400.73 206.59 403.30 203.96 406.51 202.17 C 407.58 202.53 408.62 203.17 409.78 203.22 C 410.64 202.47 411.36 201.58 412.13 200.74 C 411.42 200.52 410.01 200.09 409.30 199.87 Z" />
</g>
<g id="#84857dff">
<path fill="#84857d" opacity="1.00" d=" M 227.62 204.52 C 235.31 202.50 242.85 199.60 249.41 195.02 C 252.95 198.24 256.65 201.28 260.30 204.38 C 254.62 207.84 248.04 209.66 242.86 213.96 C 239.72 216.55 235.96 218.21 232.03 219.19 C 231.27 220.49 230.53 221.80 229.78 223.11 C 229.25 222.42 228.72 221.72 228.22 221.02 C 227.91 220.50 227.28 219.47 226.97 218.95 C 226.48 214.13 226.98 209.30 227.62 204.52 Z" />
</g>
<g id="#474948ff">
<path fill="#474948" opacity="1.00" d=" M 207.02 196.11 C 210.25 196.15 213.47 196.27 216.69 196.48 C 215.77 200.05 213.42 203.87 215.04 207.58 C 216.76 212.04 217.13 217.77 222.18 219.86 C 221.59 217.87 221.05 215.86 220.69 213.82 C 223.01 215.23 225.22 216.86 226.97 218.95 C 227.28 219.47 227.91 220.50 228.22 221.02 C 228.84 223.47 229.93 226.19 228.77 228.66 C 227.48 231.61 225.07 233.82 223.01 236.23 C 224.78 231.91 225.57 227.25 224.45 222.65 C 221.66 221.50 218.91 220.21 216.02 219.33 C 214.87 217.25 213.76 215.14 212.63 213.05 C 212.80 210.78 213.39 208.20 211.62 206.39 C 209.20 203.41 207.47 199.95 207.02 196.11 Z" />
<path fill="#474948" opacity="1.00" d=" M 378.61 208.18 C 379.08 208.13 380.03 208.02 380.50 207.97 C 379.67 209.72 378.81 211.46 378.00 213.22 C 374.91 214.56 371.53 214.59 368.36 213.48 C 368.75 213.14 369.52 212.46 369.90 212.12 C 371.47 212.15 373.05 212.18 374.62 212.04 C 375.99 210.80 377.29 209.48 378.61 208.18 Z" />
</g>
<g id="#edffffff">
<path fill="#edffff" opacity="1.00" d=" M 406.51 202.17 C 407.47 201.44 408.40 200.68 409.30 199.87 C 410.01 200.09 411.42 200.52 412.13 200.74 C 411.36 201.58 410.64 202.47 409.78 203.22 C 408.62 203.17 407.58 202.53 406.51 202.17 Z" />
<path fill="#edffff" opacity="1.00" d=" M 347.61 237.56 C 349.38 235.85 351.36 234.38 353.54 233.23 C 354.28 234.73 355.15 236.20 355.65 237.82 C 354.55 239.28 353.23 240.55 351.97 241.87 C 350.54 240.40 349.13 238.93 347.61 237.56 Z" />
</g>
<g id="#555751ff">
<path fill="#555751" opacity="1.00" d=" M 285.58 210.52 C 286.11 208.89 286.64 207.26 287.18 205.63 C 292.08 209.50 295.56 215.53 301.89 217.28 C 304.76 214.69 307.86 211.68 312.11 212.58 C 310.73 212.90 309.35 213.22 307.98 213.54 C 310.83 217.11 313.11 221.11 314.43 225.51 C 315.77 225.56 317.12 225.63 318.47 225.71 L 319.42 225.78 C 318.79 226.53 318.16 227.29 317.54 228.04 C 315.63 228.01 313.73 227.98 311.84 227.95 C 310.92 230.73 310.27 233.58 309.84 236.47 C 308.38 233.93 306.94 231.38 305.53 228.81 C 306.01 227.63 306.48 226.44 306.96 225.26 C 303.51 223.32 299.71 222.15 295.79 221.63 C 295.92 222.76 296.05 223.90 296.19 225.04 C 294.74 225.28 293.29 225.53 291.84 225.73 C 290.71 225.69 289.58 225.63 288.46 225.54 C 286.78 224.90 285.15 224.16 283.52 223.42 C 282.97 224.62 282.43 225.82 281.88 227.02 C 278.55 227.16 275.18 227.74 271.85 227.21 C 268.91 226.21 266.92 223.63 264.68 221.62 L 265.46 221.22 C 267.71 221.56 269.94 222.06 272.21 222.32 C 276.02 222.38 279.81 221.90 283.61 221.58 C 287.04 221.82 290.49 221.88 293.93 221.85 C 288.94 218.39 283.31 215.82 278.91 211.54 C 281.13 211.18 283.35 210.85 285.58 210.52 Z" />
</g>
<g id="#8f8b82ff">
<path fill="#8f8b82" opacity="1.00" d=" M 258.36 208.31 C 262.42 206.53 266.98 206.93 271.27 207.43 C 268.54 210.93 263.47 210.17 259.72 211.83 C 253.85 214.29 247.58 216.44 242.85 220.87 C 238.43 224.72 233.63 228.12 229.32 232.11 C 229.23 231.01 228.95 229.79 229.81 228.91 C 234.56 222.66 240.02 216.67 247.10 213.04 C 250.74 211.20 254.61 209.89 258.36 208.31 Z" />
</g>
<g id="#a0a5a0ff">
<path fill="#a0a5a0" opacity="1.00" d=" M 355.76 207.01 C 359.30 208.13 361.83 210.88 364.05 213.71 C 365.94 212.20 367.83 210.69 369.66 209.11 C 370.19 209.42 371.25 210.05 371.78 210.36 C 372.49 210.78 373.91 211.62 374.62 212.04 C 373.05 212.18 371.47 212.15 369.90 212.12 C 369.52 212.46 368.75 213.14 368.36 213.48 C 362.23 218.39 356.05 223.30 350.72 229.11 C 351.80 229.35 352.88 229.60 353.96 229.86 C 357.54 226.58 360.68 222.87 364.43 219.78 C 364.85 220.18 365.70 220.98 366.12 221.38 C 365.96 223.78 366.51 226.66 364.60 228.54 C 361.85 231.85 357.27 231.81 353.54 233.23 C 351.36 234.38 349.38 235.85 347.61 237.56 C 346.53 237.02 345.40 236.57 344.29 236.10 C 344.12 234.22 343.96 232.34 343.83 230.46 C 349.52 226.45 354.44 221.47 359.69 216.93 C 358.06 214.61 356.42 212.30 354.80 209.97 C 355.04 209.23 355.52 207.75 355.76 207.01 Z" />
</g>
<g id="#1d1d1f7b">
</g>
<g id="#020202bd">
<path fill="#020202" opacity="0.74" d=" M 207.14 209.37 C 209.18 210.25 211.09 211.43 212.63 213.05 C 213.76 215.14 214.87 217.25 216.02 219.33 C 214.40 219.22 212.77 219.18 211.15 219.11 C 209.21 216.15 207.49 212.96 207.14 209.37 Z" />
<path fill="#020202" opacity="0.74" d=" M 150.25 272.51 C 160.59 271.81 171.05 273.12 181.37 271.80 C 184.46 271.39 187.42 272.63 190.41 273.20 L 189.54 273.37 C 186.61 273.93 183.66 274.54 180.66 274.55 C 176.22 273.70 171.72 273.29 167.20 273.46 C 160.28 273.02 153.45 274.42 146.57 274.78 C 142.46 274.25 138.30 275.07 135.00 277.67 C 135.05 276.48 135.10 275.30 135.16 274.12 C 140.20 273.61 145.32 273.87 150.25 272.51 Z" />
</g>
<g id="#8c8c8dfe">
<path fill="#8c8c8d" opacity="1.00" d=" M 307.98 213.54 C 309.35 213.22 310.73 212.90 312.11 212.58 C 316.44 215.52 316.87 221.16 318.47 225.71 C 317.12 225.63 315.77 225.56 314.43 225.51 C 313.11 221.11 310.83 217.11 307.98 213.54 Z" />
</g>
<g id="#828180ff">
<path fill="#828180" opacity="1.00" d=" M 271.35 219.85 C 275.54 218.69 279.93 219.17 283.61 221.58 C 279.81 221.90 276.02 222.38 272.21 222.32 C 271.99 221.70 271.56 220.47 271.35 219.85 Z" />
</g>
<g id="#cacad1ff">
<path fill="#cacad1" opacity="1.00" d=" M 368.23 219.05 C 371.58 218.38 368.17 223.27 367.35 220.21 C 367.57 219.92 368.01 219.34 368.23 219.05 Z" />
</g>
<g id="#828079ff">
<path fill="#828079" opacity="1.00" d=" M 252.69 223.43 C 256.77 222.02 261.05 219.92 265.46 221.22 L 264.68 221.62 C 260.56 223.93 256.14 225.66 252.00 227.93 C 254.48 227.36 256.95 226.73 259.40 226.06 C 258.64 228.13 257.91 230.21 257.21 232.31 C 259.50 232.45 261.80 232.57 264.11 232.57 C 261.46 237.09 257.69 241.72 258.36 247.31 C 258.81 250.09 258.75 254.09 261.98 255.16 C 266.84 257.08 272.16 257.24 277.29 257.79 C 279.97 257.84 283.24 258.56 285.22 256.23 C 287.88 253.29 291.60 251.96 295.33 250.99 C 289.35 250.71 283.36 251.23 277.38 250.93 C 276.64 249.57 275.90 248.21 275.20 246.84 C 282.40 246.08 289.70 247.35 296.85 245.87 L 296.83 246.71 C 296.81 247.20 296.77 248.18 296.75 248.67 C 301.00 251.84 300.86 257.64 299.49 262.26 C 294.54 262.75 289.62 263.73 284.63 263.48 C 281.83 263.31 279.03 263.17 276.22 263.22 C 271.64 262.86 266.92 262.30 262.78 260.18 C 258.64 257.75 256.60 253.05 255.23 248.67 C 253.23 242.79 256.09 236.85 256.23 230.92 C 254.93 232.04 253.62 233.15 252.44 234.40 C 248.76 237.96 247.73 243.11 247.46 248.02 C 245.90 245.68 244.96 242.92 245.78 240.11 C 246.55 235.59 249.88 232.17 251.87 228.18 C 245.82 230.06 241.43 235.05 238.44 240.44 C 236.63 243.29 235.34 247.22 231.50 247.74 C 232.15 246.48 232.82 245.23 233.54 244.01 C 236.87 238.88 240.29 233.79 243.79 228.78 C 245.80 225.72 249.45 224.65 252.69 223.43 M 285.22 249.21 C 285.77 249.76 285.77 249.76 285.22 249.21 Z" />
</g>
<g id="#696b6aff">
<path fill="#696b6a" opacity="1.00" d=" M 252.00 227.93 C 256.14 225.66 260.56 223.93 264.68 221.62 C 266.92 223.63 268.91 226.21 271.85 227.21 C 275.18 227.74 278.55 227.16 281.88 227.02 C 282.43 225.82 282.97 224.62 283.52 223.42 C 285.15 224.16 286.78 224.90 288.46 225.54 C 284.52 228.69 280.52 232.17 275.45 233.28 C 271.70 232.66 267.90 232.51 264.11 232.57 C 261.80 232.57 259.50 232.45 257.21 232.31 C 257.91 230.21 258.64 228.13 259.40 226.06 C 256.95 226.73 254.48 227.36 252.00 227.93 Z" />
</g>
<g id="#737372ff">
<path fill="#737372" opacity="1.00" d=" M 295.79 221.63 C 299.71 222.15 303.51 223.32 306.96 225.26 C 306.48 226.44 306.01 227.63 305.53 228.81 C 301.16 227.09 296.56 225.92 291.84 225.73 C 293.29 225.53 294.74 225.28 296.19 225.04 C 296.05 223.90 295.92 222.76 295.79 221.63 Z" />
</g>
<g id="#707174ff">
<path fill="#707174" opacity="1.00" d=" M 364.60 228.54 C 366.51 226.66 365.96 223.78 366.12 221.38 C 367.74 222.95 369.33 224.56 370.71 226.35 L 371.10 227.31 C 367.45 232.47 362.49 236.42 357.89 240.67 C 353.77 243.55 352.30 248.56 349.26 252.35 C 348.65 250.71 348.06 249.06 347.48 247.42 C 347.23 246.72 346.97 246.03 346.69 245.35 C 344.66 241.51 341.32 238.27 340.82 233.77 C 341.61 232.79 342.40 231.82 343.23 230.88 L 343.83 230.46 C 343.96 232.34 344.12 234.22 344.29 236.10 C 345.40 236.57 346.53 237.02 347.61 237.56 C 349.13 238.93 350.54 240.40 351.97 241.87 C 353.23 240.55 354.55 239.28 355.65 237.82 C 355.15 236.20 354.28 234.73 353.54 233.23 C 357.27 231.81 361.85 231.85 364.60 228.54 Z" />
</g>
<g id="#b5b4bcfd">
<path fill="#b5b4bc" opacity="1.00" d=" M 370.71 226.35 C 371.90 225.31 373.15 224.35 374.41 223.39 C 374.40 224.11 374.36 225.55 374.35 226.27 C 373.27 226.64 372.19 226.99 371.10 227.31 L 370.71 226.35 Z" />
</g>
<g id="#84837cff">
<path fill="#84837c" opacity="1.00" d=" M 288.46 225.54 C 289.58 225.63 290.71 225.69 291.84 225.73 C 296.56 225.92 301.16 227.09 305.53 228.81 C 306.94 231.38 308.38 233.93 309.84 236.47 C 307.53 236.94 305.18 237.31 302.98 238.14 C 302.14 239.67 303.39 241.27 303.74 242.77 C 303.46 244.78 303.15 246.79 302.81 248.79 C 301.97 247.87 301.13 246.95 300.34 245.99 C 299.30 243.88 297.93 241.55 298.50 239.10 C 299.10 237.15 300.28 235.45 301.31 233.71 C 297.34 231.38 293.24 228.23 288.41 228.51 C 285.72 229.57 284.34 232.50 282.54 234.61 C 281.44 234.66 280.35 234.70 279.27 234.74 C 277.98 234.27 276.73 233.74 275.45 233.28 C 280.52 232.17 284.52 228.69 288.46 225.54 Z" />
</g>
<g id="#65697cff">
<path fill="#65697c" opacity="1.00" d=" M 319.42 225.78 C 321.60 226.01 324.02 226.56 324.68 228.98 C 324.53 231.58 324.15 234.42 326.18 236.44 C 325.74 239.86 323.54 242.29 320.63 243.92 C 319.78 246.52 320.34 249.37 319.64 252.01 C 317.82 253.62 315.44 251.58 313.52 251.09 C 313.75 249.53 313.98 247.98 314.25 246.43 C 314.45 247.26 314.31 249.82 315.75 249.31 C 316.83 247.82 315.85 245.83 314.58 244.82 C 312.07 241.16 307.41 242.52 303.74 242.77 C 303.39 241.27 302.14 239.67 302.98 238.14 C 305.18 237.31 307.53 236.94 309.84 236.47 C 310.27 233.58 310.92 230.73 311.84 227.95 C 313.73 227.98 315.63 228.01 317.54 228.04 C 318.16 227.29 318.79 226.53 319.42 225.78 Z" />
</g>
<g id="#636666ff">
<path fill="#636666" opacity="1.00" d=" M 238.44 240.44 C 241.43 235.05 245.82 230.06 251.87 228.18 C 249.88 232.17 246.55 235.59 245.78 240.11 C 244.96 242.92 245.90 245.68 247.46 248.02 C 247.67 248.61 247.88 249.21 248.08 249.81 C 247.32 249.96 246.56 250.11 245.82 250.30 C 244.70 251.32 243.71 252.46 242.70 253.58 C 242.42 247.35 243.20 241.14 244.97 235.17 C 242.74 236.85 240.49 238.52 238.44 240.44 Z" />
</g>
<g id="#9a9891ff">
<path fill="#9a9891" opacity="1.00" d=" M 288.41 228.51 C 293.24 228.23 297.34 231.38 301.31 233.71 C 300.28 235.45 299.10 237.15 298.50 239.10 C 297.93 241.55 299.30 243.88 300.34 245.99 C 299.94 246.16 299.13 246.49 298.72 246.65 C 298.26 246.46 297.32 246.07 296.85 245.87 C 289.70 247.35 282.40 246.08 275.20 246.84 C 274.80 245.24 275.66 243.79 276.33 242.41 C 273.75 240.84 271.17 239.28 268.64 237.65 C 271.98 236.07 275.58 235.08 279.27 234.74 C 280.35 234.70 281.44 234.66 282.54 234.61 C 284.34 232.50 285.72 229.57 288.41 228.51 Z" />
</g>
<g id="#6a6a64ff">
<path fill="#6a6a64" opacity="1.00" d=" M 252.44 234.40 C 253.62 233.15 254.93 232.04 256.23 230.92 C 256.09 236.85 253.23 242.79 255.23 248.67 C 256.60 253.05 258.64 257.75 262.78 260.18 C 266.92 262.30 271.64 262.86 276.22 263.22 C 272.28 263.61 268.35 264.11 264.41 264.53 C 261.05 263.22 257.79 261.56 254.98 259.26 C 251.77 256.33 252.43 251.74 252.28 247.84 C 252.15 243.36 253.14 238.87 252.44 234.40 Z" />
</g>
<g id="#414546fd">
<path fill="#414546" opacity="1.00" d=" M 330.22 241.59 C 333.70 237.07 337.67 232.78 343.23 230.88 C 342.40 231.82 341.61 232.79 340.82 233.77 C 338.24 237.04 335.28 240.01 331.98 242.57 C 331.54 242.32 330.66 241.83 330.22 241.59 Z" />
</g>
<g id="#918f88ff">
<path fill="#918f88" opacity="1.00" d=" M 264.11 232.57 C 267.90 232.51 271.70 232.66 275.45 233.28 C 276.73 233.74 277.98 234.27 279.27 234.74 C 275.58 235.08 271.98 236.07 268.64 237.65 C 271.17 239.28 273.75 240.84 276.33 242.41 C 275.66 243.79 274.80 245.24 275.20 246.84 C 275.90 248.21 276.64 249.57 277.38 250.93 C 283.36 251.23 289.35 250.71 295.33 250.99 C 291.60 251.96 287.88 253.29 285.22 256.23 C 283.24 258.56 279.97 257.84 277.29 257.79 C 272.16 257.24 266.84 257.08 261.98 255.16 C 258.75 254.09 258.81 250.09 258.36 247.31 C 257.69 241.72 261.46 237.09 264.11 232.57 Z" />
</g>
<g id="#414241ff">
<path fill="#414241" opacity="1.00" d=" M 227.92 237.91 C 229.09 235.33 231.86 234.22 234.21 232.99 C 233.91 236.04 232.80 238.92 231.49 241.66 C 232.17 242.44 232.85 243.23 233.54 244.01 C 232.82 245.23 232.15 246.48 231.50 247.74 C 235.34 247.22 236.63 243.29 238.44 240.44 C 240.49 238.52 242.74 236.85 244.97 235.17 C 243.20 241.14 242.42 247.35 242.70 253.58 C 243.71 252.46 244.70 251.32 245.82 250.30 C 247.14 254.29 247.76 258.46 248.72 262.55 C 249.46 266.47 253.82 267.63 256.94 269.11 C 256.59 265.77 255.97 262.47 254.98 259.26 C 257.79 261.56 261.05 263.22 264.41 264.53 C 262.93 265.33 261.50 266.23 260.06 267.11 C 260.76 268.52 260.95 270.58 262.71 271.10 C 267.48 272.68 272.61 272.50 277.55 272.09 C 274.06 270.50 270.11 269.24 267.92 265.84 C 271.01 266.71 273.99 267.89 276.93 269.17 C 277.26 268.15 277.60 267.14 277.95 266.13 C 280.02 266.13 282.09 266.13 284.17 266.15 C 282.83 267.19 281.50 268.25 280.11 269.23 C 279.82 269.39 279.23 269.73 278.94 269.89 C 279.13 270.21 279.52 270.86 279.72 271.18 C 280.26 272.26 280.77 273.37 281.29 274.48 C 280.90 274.72 280.12 275.21 279.73 275.46 C 279.98 275.97 280.24 276.48 280.50 277.00 C 277.31 275.63 273.36 273.35 270.49 276.59 C 265.17 277.23 259.89 278.17 254.79 279.86 C 250.48 279.14 246.10 278.77 241.90 277.51 C 241.98 276.59 242.06 275.67 242.14 274.75 C 242.16 274.45 242.20 273.86 242.22 273.56 C 243.65 274.91 245.10 276.24 246.59 277.55 C 246.58 270.26 241.02 264.50 240.31 257.35 C 239.91 255.16 240.02 252.27 237.64 251.17 C 235.78 250.81 233.88 251.05 232.03 251.28 C 231.68 251.34 230.98 251.47 230.63 251.54 C 230.65 259.06 234.43 266.26 232.94 273.80 C 231.47 273.26 230.00 272.73 228.53 272.20 C 227.78 267.60 227.23 262.96 225.89 258.49 C 225.72 261.67 225.70 264.87 225.31 268.04 C 224.39 261.00 224.98 253.81 223.49 246.84 C 225.23 244.00 226.48 240.90 227.92 237.91 Z" />
</g>
<g id="#b0b4bdff">
<path fill="#b0b4bd" opacity="1.00" d=" M 331.98 242.57 C 335.28 240.01 338.24 237.04 340.82 233.77 C 341.32 238.27 344.66 241.51 346.69 245.35 C 343.51 244.67 340.40 243.73 337.40 242.49 C 336.51 247.04 334.22 251.44 329.78 253.36 C 329.42 253.57 328.70 254.00 328.34 254.22 C 327.34 252.34 326.31 250.49 325.24 248.66 C 327.33 246.47 329.58 244.42 331.98 242.57 Z" />
</g>
<g id="#534d47ff">
<path fill="#534d47" opacity="1.00" d=" M 247.46 248.02 C 247.73 243.11 248.76 237.96 252.44 234.40 C 253.14 238.87 252.15 243.36 252.28 247.84 C 252.43 251.74 251.77 256.33 254.98 259.26 C 253.55 259.33 252.13 259.39 250.71 259.46 C 249.85 256.24 249.05 253.00 248.08 249.81 C 247.88 249.21 247.67 248.61 247.46 248.02 Z" />
</g>
<g id="#60616cff">
<path fill="#60616c" opacity="1.00" d=" M 320.63 243.92 C 323.54 242.29 325.74 239.86 326.18 236.44 C 327.44 238.21 328.74 239.97 330.22 241.59 C 330.66 241.83 331.54 242.32 331.98 242.57 C 329.58 244.42 327.33 246.47 325.24 248.66 C 326.31 250.49 327.34 252.34 328.34 254.22 L 327.88 254.93 C 325.64 257.72 325.16 261.26 324.63 264.68 C 324.15 267.71 320.36 267.64 318.04 268.41 C 317.96 267.52 317.91 266.63 317.87 265.74 C 314.88 265.47 311.92 264.85 309.14 263.72 C 310.42 260.95 311.84 258.25 313.31 255.57 C 310.89 255.29 308.41 254.82 306.01 255.45 C 301.68 255.81 303.43 262.24 299.11 262.90 L 299.49 262.26 C 300.86 257.64 301.00 251.84 296.75 248.67 C 296.77 248.18 296.81 247.20 296.83 246.71 C 297.31 246.70 298.25 246.67 298.72 246.65 C 299.13 246.49 299.94 246.16 300.34 245.99 C 301.13 246.95 301.97 247.87 302.81 248.79 C 303.15 246.79 303.46 244.78 303.74 242.77 C 307.41 242.52 312.07 241.16 314.58 244.82 C 314.50 245.22 314.33 246.03 314.25 246.43 C 313.98 247.98 313.75 249.53 313.52 251.09 C 315.44 251.58 317.82 253.62 319.64 252.01 C 320.34 249.37 319.78 246.52 320.63 243.92 M 321.81 244.15 C 322.29 245.52 322.88 246.86 323.63 248.12 C 324.39 247.15 325.15 246.18 325.90 245.20 C 324.54 244.84 323.17 244.48 321.81 244.15 Z" />
</g>
<g id="#49494aff">
<path fill="#49494a" opacity="1.00" d=" M 349.26 252.35 C 352.30 248.56 353.77 243.55 357.89 240.67 C 357.59 245.49 355.91 250.17 352.95 254.00 C 350.75 257.20 347.13 258.94 344.57 261.79 C 344.51 260.07 345.06 257.77 343.31 256.69 C 342.21 255.67 340.80 257.02 339.73 257.43 C 336.10 260.32 332.25 262.93 328.25 265.28 C 328.40 263.45 329.05 261.70 330.50 260.50 C 335.63 255.55 339.97 248.82 347.48 247.42 C 348.06 249.06 348.65 250.71 349.26 252.35 Z" />
</g>
<g id="#868995ff">
<path fill="#868995" opacity="1.00" d=" M 337.40 242.49 C 340.40 243.73 343.51 244.67 346.69 245.35 C 346.97 246.03 347.23 246.72 347.48 247.42 C 339.97 248.82 335.63 255.55 330.50 260.50 C 329.05 261.70 328.40 263.45 328.25 265.28 C 324.11 269.43 320.80 274.41 316.06 277.94 C 315.28 276.73 314.51 275.53 313.75 274.32 C 315.38 273.91 317.02 273.51 318.66 273.12 C 318.43 271.55 318.18 269.99 318.04 268.41 C 320.36 267.64 324.15 267.71 324.63 264.68 C 325.16 261.26 325.64 257.72 327.88 254.93 C 328.44 256.18 329.06 257.40 329.68 258.63 C 330.22 258.21 331.29 257.36 331.83 256.94 C 331.14 255.74 330.46 254.55 329.78 253.36 C 334.22 251.44 336.51 247.04 337.40 242.49 Z" />
</g>
<g id="#958c79ff">
<path fill="#958c79" opacity="1.00" d=" M 321.81 244.15 C 323.17 244.48 324.54 244.84 325.90 245.20 C 325.15 246.18 324.39 247.15 323.63 248.12 C 322.88 246.86 322.29 245.52 321.81 244.15 Z" />
</g>
<g id="#d6d4d8ff">
<path fill="#d6d4d8" opacity="1.00" d=" M 314.58 244.82 C 315.85 245.83 316.83 247.82 315.75 249.31 C 314.31 249.82 314.45 247.26 314.25 246.43 C 314.33 246.03 314.50 245.22 314.58 244.82 Z" />
</g>
<g id="#edf0f1ff">
<path fill="#edf0f1" opacity="1.00" d=" M 296.85 245.87 C 297.32 246.07 298.26 246.46 298.72 246.65 C 298.25 246.67 297.31 246.70 296.83 246.71 L 296.85 245.87 Z" />
</g>
<g id="#777878ff">
<path fill="#777878" opacity="1.00" d=" M 245.82 250.30 C 246.56 250.11 247.32 249.96 248.08 249.81 C 249.05 253.00 249.85 256.24 250.71 259.46 C 252.13 259.39 253.55 259.33 254.98 259.26 C 255.97 262.47 256.59 265.77 256.94 269.11 C 253.82 267.63 249.46 266.47 248.72 262.55 C 247.76 258.46 247.14 254.29 245.82 250.30 Z" />
</g>
<g id="#ffffffff">
<path fill="#ffffff" opacity="1.00" d=" M 285.22 249.21 C 285.77 249.76 285.77 249.76 285.22 249.21 Z" />
</g>
<g id="#777971ff">
<path fill="#777971" opacity="1.00" d=" M 230.63 251.54 C 230.98 251.47 231.68 251.34 232.03 251.28 C 233.11 257.53 233.36 264.04 235.62 270.01 C 237.76 271.60 240.81 272.09 242.14 274.75 C 242.06 275.67 241.98 276.59 241.90 277.51 C 240.92 278.09 239.93 278.68 238.96 279.27 C 241.41 284.07 245.19 288.92 250.99 289.36 C 252.04 289.62 253.09 289.90 254.15 290.17 C 254.26 290.65 254.49 291.61 254.61 292.09 C 252.17 291.77 249.74 291.42 247.29 291.26 C 243.48 287.74 239.86 284.01 236.65 279.95 C 235.14 278.07 233.95 275.97 232.94 273.80 C 234.43 266.26 230.65 259.06 230.63 251.54 Z" />
</g>
<g id="#615e59ff">
<path fill="#615e59" opacity="1.00" d=" M 232.03 251.28 C 233.88 251.05 235.78 250.81 237.64 251.17 C 240.02 252.27 239.91 255.16 240.31 257.35 C 241.02 264.50 246.58 270.26 246.59 277.55 C 245.10 276.24 243.65 274.91 242.22 273.56 C 242.20 273.86 242.16 274.45 242.14 274.75 C 240.81 272.09 237.76 271.60 235.62 270.01 C 233.36 264.04 233.11 257.53 232.03 251.28 Z" />
</g>
<g id="#cdcbd6ff">
<path fill="#cdcbd6" opacity="1.00" d=" M 328.34 254.22 C 328.70 254.00 329.42 253.57 329.78 253.36 C 330.46 254.55 331.14 255.74 331.83 256.94 C 331.29 257.36 330.22 258.21 329.68 258.63 C 329.06 257.40 328.44 256.18 327.88 254.93 L 328.34 254.22 Z" />
</g>
<g id="#585854ff">
<path fill="#585854" opacity="1.00" d=" M 306.01 255.45 C 308.41 254.82 310.89 255.29 313.31 255.57 C 311.84 258.25 310.42 260.95 309.14 263.72 C 311.92 264.85 314.88 265.47 317.87 265.74 C 317.91 266.63 317.96 267.52 318.04 268.41 C 318.18 269.99 318.43 271.55 318.66 273.12 C 317.02 273.51 315.38 273.91 313.75 274.32 C 314.51 275.53 315.28 276.73 316.06 277.94 C 315.16 278.71 314.26 279.48 313.53 280.40 C 313.53 282.92 314.39 285.32 315.03 287.73 C 314.48 288.56 313.92 289.39 313.38 290.22 C 313.38 289.83 313.38 289.05 313.39 288.66 C 311.35 289.89 309.29 291.07 307.22 292.25 L 307.51 291.37 C 309.77 285.80 307.68 279.36 303.09 275.65 C 297.56 280.05 293.09 285.91 286.23 288.41 C 286.11 288.01 285.86 287.23 285.73 286.83 C 291.06 283.21 295.41 278.43 300.07 274.04 C 302.07 272.15 303.73 269.94 305.37 267.74 C 305.50 267.59 305.76 267.30 305.89 267.15 C 305.04 266.58 304.20 266.02 303.36 265.46 C 304.87 263.92 306.37 262.38 307.88 260.84 C 305.22 262.11 302.43 263.17 300.05 264.92 C 297.99 267.10 298.00 270.68 295.56 272.57 C 292.67 273.33 290.88 270.87 289.79 268.61 C 292.24 267.96 294.70 267.31 297.15 266.64 C 294.91 266.41 292.67 266.20 290.44 265.98 C 293.33 264.96 296.28 264.10 299.11 262.90 C 303.43 262.24 301.68 255.81 306.01 255.45 Z" />
</g>
<g id="#736a66fc">
<path fill="#736a66" opacity="1.00" d=" M 339.73 257.43 C 340.80 257.02 342.21 255.67 343.31 256.69 C 345.06 257.77 344.51 260.07 344.57 261.79 C 344.36 262.06 343.93 262.59 343.72 262.85 C 342.41 261.02 341.08 259.22 339.73 257.43 Z" />
</g>
<g id="#d29d7eff">
<path fill="#d29d7e" opacity="1.00" d=" M 328.25 265.28 C 332.25 262.93 336.10 260.32 339.73 257.43 C 341.08 259.22 342.41 261.02 343.72 262.85 C 343.32 263.36 342.51 264.38 342.11 264.89 C 341.81 265.42 341.20 266.46 340.90 266.98 C 340.30 267.98 339.70 268.99 339.11 270.00 C 338.81 270.52 338.20 271.54 337.90 272.06 C 337.32 273.06 336.74 274.07 336.16 275.08 C 335.01 276.99 333.92 278.94 332.88 280.92 C 332.30 281.95 331.73 282.99 331.18 284.04 C 330.82 284.51 330.09 285.46 329.73 285.93 C 329.61 286.26 329.36 286.93 329.23 287.27 C 326.99 291.39 324.27 295.26 322.43 299.59 C 320.51 297.83 318.60 296.04 317.09 293.91 C 316.32 291.87 315.64 289.81 315.03 287.73 C 314.39 285.32 313.53 282.92 313.53 280.40 C 314.26 279.48 315.16 278.71 316.06 277.94 C 320.80 274.41 324.11 269.43 328.25 265.28 Z" />
</g>
<g id="#676762ff">
<path fill="#676762" opacity="1.00" d=" M 225.31 268.04 C 225.70 264.87 225.72 261.67 225.89 258.49 C 227.23 262.96 227.78 267.60 228.53 272.20 C 230.00 272.73 231.47 273.26 232.94 273.80 C 233.95 275.97 235.14 278.07 236.65 279.95 C 235.44 280.06 234.23 280.19 233.03 280.32 C 234.73 284.86 237.61 288.80 240.80 292.40 C 242.93 291.87 245.09 291.44 247.29 291.26 C 249.74 291.42 252.17 291.77 254.61 292.09 C 254.49 291.61 254.26 290.65 254.15 290.17 C 255.36 290.48 256.57 290.81 257.81 291.03 C 260.39 291.52 263.05 291.47 265.61 290.90 C 265.61 291.47 265.59 292.62 265.59 293.20 C 272.92 293.58 279.26 289.64 285.73 286.83 C 285.86 287.23 286.11 288.01 286.23 288.41 C 287.13 290.30 288.50 291.90 289.83 293.50 C 289.56 294.32 289.30 295.14 289.03 295.96 C 286.64 294.51 284.39 292.76 281.76 291.77 C 279.80 291.73 278.21 293.35 276.51 294.16 C 278.94 294.89 281.39 295.53 283.86 296.11 C 284.59 298.66 285.31 301.21 286.05 303.76 C 288.14 302.93 290.34 302.01 291.53 299.98 C 295.00 294.60 301.60 292.66 307.51 291.37 L 307.22 292.25 C 300.97 296.10 295.84 301.40 290.06 305.88 C 286.21 305.13 282.10 305.09 278.51 303.39 C 275.45 301.11 273.82 297.50 271.89 294.32 C 265.71 294.79 259.55 293.98 253.43 293.12 C 253.34 294.49 253.24 295.87 253.15 297.24 C 250.20 297.38 247.25 297.39 244.30 297.26 C 244.94 298.27 245.57 299.27 246.20 300.29 L 245.34 300.19 C 244.22 300.00 243.11 299.80 242.00 299.60 C 241.91 297.74 242.56 295.40 240.82 294.09 C 238.86 291.62 235.56 293.05 233.01 291.99 C 231.49 291.59 229.84 290.59 228.28 291.41 C 225.62 292.31 225.75 295.55 224.94 297.76 C 229.86 297.17 235.24 295.68 239.70 298.73 C 236.49 299.58 233.26 300.35 230.02 301.04 C 226.06 302.50 222.19 300.94 218.38 299.88 L 218.09 298.96 C 216.72 293.88 215.26 288.81 213.05 284.03 C 211.21 286.37 209.39 288.72 207.55 291.06 C 204.57 288.52 203.32 284.74 201.76 281.29 C 197.40 285.63 196.55 292.01 193.60 297.20 C 189.08 296.36 184.55 295.51 179.95 295.25 C 179.13 292.63 178.45 289.97 177.85 287.30 C 182.06 291.33 187.42 294.12 193.37 293.98 C 193.82 288.57 195.79 283.26 195.39 277.80 C 195.16 274.83 191.73 274.36 189.54 273.37 C 192.13 273.69 194.84 273.66 197.31 274.62 C 199.51 275.92 201.12 277.97 202.86 279.80 C 203.78 278.46 204.70 277.12 205.63 275.79 C 208.32 275.60 211.17 275.80 213.70 274.69 C 215.17 273.30 215.62 271.23 216.38 269.43 C 219.39 269.29 222.35 268.63 225.31 268.04 M 216.53 276.36 C 215.84 280.91 215.66 285.95 217.91 290.12 C 218.93 292.19 221.22 293.01 223.11 294.06 C 224.27 286.40 223.28 278.61 223.67 270.89 C 220.59 271.41 217.11 272.92 216.53 276.36 Z" />
</g>
<g id="#706f70ff">
<path fill="#706f70" opacity="1.00" d=" M 300.05 264.92 C 302.43 263.17 305.22 262.11 307.88 260.84 C 306.37 262.38 304.87 263.92 303.36 265.46 C 304.20 266.02 305.04 266.58 305.89 267.15 C 305.76 267.30 305.50 267.59 305.37 267.74 C 303.83 267.99 301.92 267.44 300.77 268.76 C 298.04 271.57 296.32 275.27 293.17 277.69 C 289.92 277.50 286.69 277.19 283.46 276.80 C 283.72 275.50 283.97 274.21 284.24 272.93 C 282.72 272.36 281.21 271.79 279.72 271.18 C 279.52 270.86 279.13 270.21 278.94 269.89 C 279.23 269.73 279.82 269.39 280.11 269.23 C 282.02 269.69 283.91 270.25 285.80 270.80 C 285.44 268.35 285.05 265.91 284.63 263.48 C 289.62 263.73 294.54 262.75 299.49 262.26 L 299.11 262.90 C 296.28 264.10 293.33 264.96 290.44 265.98 C 292.67 266.20 294.91 266.41 297.15 266.64 C 294.70 267.31 292.24 267.96 289.79 268.61 C 290.88 270.87 292.67 273.33 295.56 272.57 C 298.00 270.68 297.99 267.10 300.05 264.92 Z" />
</g>
<g id="#5f5c5cff">
<path fill="#5f5c5c" opacity="1.00" d=" M 276.22 263.22 C 279.03 263.17 281.83 263.31 284.63 263.48 C 285.05 265.91 285.44 268.35 285.80 270.80 C 283.91 270.25 282.02 269.69 280.11 269.23 C 281.50 268.25 282.83 267.19 284.17 266.15 C 282.09 266.13 280.02 266.13 277.95 266.13 C 277.60 267.14 277.26 268.15 276.93 269.17 C 273.99 267.89 271.01 266.71 267.92 265.84 C 270.11 269.24 274.06 270.50 277.55 272.09 C 272.61 272.50 267.48 272.68 262.71 271.10 C 260.95 270.58 260.76 268.52 260.06 267.11 C 261.50 266.23 262.93 265.33 264.41 264.53 C 268.35 264.11 272.28 263.61 276.22 263.22 Z" />
</g>
<g id="#573b2cae">
<path fill="#573b2c" opacity="0.68" d=" M 340.90 266.98 C 341.20 266.46 341.81 265.42 342.11 264.89 C 341.81 265.42 341.20 266.46 340.90 266.98 Z" />
</g>
<g id="#87847bff">
<path fill="#87847b" opacity="1.00" d=" M 300.77 268.76 C 301.92 267.44 303.83 267.99 305.37 267.74 C 303.73 269.94 302.07 272.15 300.07 274.04 C 295.41 278.43 291.06 283.21 285.73 286.83 C 279.26 289.64 272.92 293.58 265.59 293.20 C 265.59 292.62 265.61 291.47 265.61 290.90 C 269.07 289.65 272.47 288.24 275.93 286.98 C 282.18 284.88 287.19 280.39 293.17 277.69 C 296.32 275.27 298.04 271.57 300.77 268.76 Z" />
</g>
<g id="#575a57ff">
<path fill="#575a57" opacity="1.00" d=" M 190.41 273.20 C 199.03 271.75 207.56 269.30 216.38 269.43 C 215.62 271.23 215.17 273.30 213.70 274.69 C 211.17 275.80 208.32 275.60 205.63 275.79 C 204.70 277.12 203.78 278.46 202.86 279.80 C 201.12 277.97 199.51 275.92 197.31 274.62 C 194.84 273.66 192.13 273.69 189.54 273.37 L 190.41 273.20 Z" />
</g>
<g id="#5e4534b3">
<path fill="#5e4534" opacity="0.70" d=" M 337.90 272.06 C 338.20 271.54 338.81 270.52 339.11 270.00 C 338.81 270.52 338.20 271.54 337.90 272.06 Z" />
</g>
<g id="#888980ff">
<path fill="#888980" opacity="1.00" d=" M 216.53 276.36 C 217.11 272.92 220.59 271.41 223.67 270.89 C 223.28 278.61 224.27 286.40 223.11 294.06 C 221.22 293.01 218.93 292.19 217.91 290.12 C 215.66 285.95 215.84 280.91 216.53 276.36 Z" />
</g>
<g id="#595958ff">
<path fill="#595958" opacity="1.00" d=" M 279.72 271.18 C 281.21 271.79 282.72 272.36 284.24 272.93 C 283.97 274.21 283.72 275.50 283.46 276.80 C 286.69 277.19 289.92 277.50 293.17 277.69 C 287.19 280.39 282.18 284.88 275.93 286.98 C 272.47 288.24 269.07 289.65 265.61 290.90 C 263.05 291.47 260.39 291.52 257.81 291.03 C 260.56 290.26 263.38 289.39 265.69 287.63 C 266.46 285.38 263.37 285.16 261.87 284.72 C 256.11 283.91 250.54 282.17 244.80 281.28 C 246.17 284.44 248.21 287.28 250.99 289.36 C 245.19 288.92 241.41 284.07 238.96 279.27 C 239.93 278.68 240.92 278.09 241.90 277.51 C 246.10 278.77 250.48 279.14 254.79 279.86 C 261.05 284.60 270.18 282.78 275.31 277.22 C 273.70 276.98 272.10 276.77 270.49 276.59 C 273.36 273.35 277.31 275.63 280.50 277.00 C 280.24 276.48 279.98 275.97 279.73 275.46 C 280.12 275.21 280.90 274.72 281.29 274.48 C 280.77 273.37 280.26 272.26 279.72 271.18 Z" />
</g>
<g id="#3b3c3af1">
<path fill="#3b3c3a" opacity="0.95" d=" M 146.57 274.78 C 153.45 274.42 160.28 273.02 167.20 273.46 C 164.24 274.22 161.44 275.54 158.45 276.16 C 154.43 276.83 150.45 275.67 146.57 274.78 Z" />
</g>
<g id="#626361ff">
<path fill="#626361" opacity="1.00" d=" M 167.20 273.46 C 171.72 273.29 176.22 273.70 180.66 274.55 C 178.76 278.54 178.02 282.92 177.85 287.30 C 174.73 290.64 170.02 289.75 165.92 289.98 C 161.96 290.28 158.51 287.95 154.71 287.31 C 150.39 286.53 146.00 286.40 141.62 286.27 C 141.29 287.46 140.95 288.66 140.63 289.86 C 140.01 288.24 139.47 286.58 138.62 285.07 C 136.93 283.73 135.01 285.28 133.36 285.86 C 133.66 283.08 134.40 280.38 135.00 277.67 C 138.30 275.07 142.46 274.25 146.57 274.78 C 150.45 275.67 154.43 276.83 158.45 276.16 C 161.44 275.54 164.24 274.22 167.20 273.46 M 142.65 281.54 C 142.51 282.67 142.81 283.80 142.93 284.93 C 148.87 285.21 154.79 285.90 160.74 285.97 C 160.81 283.82 160.88 281.69 160.94 279.55 C 157.12 277.97 152.73 280.81 149.28 278.30 C 147.00 279.21 144.56 279.94 142.65 281.54 M 166.27 278.85 C 165.41 281.05 164.96 283.38 165.05 285.75 C 166.30 286.09 167.54 286.44 168.79 286.79 C 169.16 285.00 169.72 283.20 169.64 281.35 C 168.86 280.13 167.44 279.59 166.27 278.85 M 137.80 284.34 C 140.34 284.80 141.15 282.91 140.98 280.72 C 138.48 279.99 138.03 282.48 137.80 284.34 Z" />
</g>
<g id="#83867dff">
<path fill="#83867d" opacity="1.00" d=" M 180.66 274.55 C 183.66 274.54 186.61 273.93 189.54 273.37 C 191.73 274.36 195.16 274.83 195.39 277.80 C 195.79 283.26 193.82 288.57 193.37 293.98 C 187.42 294.12 182.06 291.33 177.85 287.30 C 178.02 282.92 178.76 278.54 180.66 274.55 Z" />
</g>
<g id="#765540c9">
<path fill="#765540" opacity="0.79" d=" M 332.88 280.92 C 333.92 278.94 335.01 276.99 336.16 275.08 C 335.08 277.03 333.99 278.98 332.88 280.92 Z" />
</g>
<g id="#76776eff">
<path fill="#76776e" opacity="1.00" d=" M 286.23 288.41 C 293.09 285.91 297.56 280.05 303.09 275.65 C 307.68 279.36 309.77 285.80 307.51 291.37 C 301.60 292.66 295.00 294.60 291.53 299.98 C 290.34 302.01 288.14 302.93 286.05 303.76 C 285.31 301.21 284.59 298.66 283.86 296.11 C 281.39 295.53 278.94 294.89 276.51 294.16 C 278.21 293.35 279.80 291.73 281.76 291.77 C 284.39 292.76 286.64 294.51 289.03 295.96 C 289.30 295.14 289.56 294.32 289.83 293.50 C 288.50 291.90 287.13 290.30 286.23 288.41 Z" />
</g>
<g id="#77746eff">
<path fill="#77746e" opacity="1.00" d=" M 254.79 279.86 C 259.89 278.17 265.17 277.23 270.49 276.59 C 272.10 276.77 273.70 276.98 275.31 277.22 C 270.18 282.78 261.05 284.60 254.79 279.86 Z" />
</g>
<g id="#939397ff">
<path fill="#939397" opacity="1.00" d=" M 142.65 281.54 C 144.56 279.94 147.00 279.21 149.28 278.30 C 152.73 280.81 157.12 277.97 160.94 279.55 C 160.88 281.69 160.81 283.82 160.74 285.97 C 154.79 285.90 148.87 285.21 142.93 284.93 C 142.81 283.80 142.51 282.67 142.65 281.54 Z" />
</g>
<g id="#8f8e91ff">
<path fill="#8f8e91" opacity="1.00" d=" M 166.27 278.85 C 167.44 279.59 168.86 280.13 169.64 281.35 C 169.72 283.20 169.16 285.00 168.79 286.79 C 167.54 286.44 166.30 286.09 165.05 285.75 C 164.96 283.38 165.41 281.05 166.27 278.85 Z" />
</g>
<g id="#40413fff">
<path fill="#40413f" opacity="1.00" d=" M 233.03 280.32 C 234.23 280.19 235.44 280.06 236.65 279.95 C 239.86 284.01 243.48 287.74 247.29 291.26 C 245.09 291.44 242.93 291.87 240.80 292.40 C 237.61 288.80 234.73 284.86 233.03 280.32 Z" />
</g>
<g id="#9b9a9dff">
<path fill="#9b9a9d" opacity="1.00" d=" M 137.80 284.34 C 138.03 282.48 138.48 279.99 140.98 280.72 C 141.15 282.91 140.34 284.80 137.80 284.34 Z" />
</g>
<g id="#4a4a49ff">
<path fill="#4a4a49" opacity="1.00" d=" M 244.80 281.28 C 250.54 282.17 256.11 283.91 261.87 284.72 C 263.37 285.16 266.46 285.38 265.69 287.63 C 263.38 289.39 260.56 290.26 257.81 291.03 C 256.57 290.81 255.36 290.48 254.15 290.17 C 253.09 289.90 252.04 289.62 250.99 289.36 C 248.21 287.28 246.17 284.44 244.80 281.28 Z" />
</g>
<g id="#585958ff">
<path fill="#585958" opacity="1.00" d=" M 193.60 297.20 C 196.55 292.01 197.40 285.63 201.76 281.29 C 203.32 284.74 204.57 288.52 207.55 291.06 C 209.39 288.72 211.21 286.37 213.05 284.03 C 215.26 288.81 216.72 293.88 218.09 298.96 C 214.52 294.70 208.50 294.88 203.45 294.53 C 200.14 294.24 197.19 295.91 194.36 297.35 L 193.60 297.20 Z" />
</g>
<g id="#464544ff">
<path fill="#464544" opacity="1.00" d=" M 133.36 285.86 C 135.01 285.28 136.93 283.73 138.62 285.07 C 139.47 286.58 140.01 288.24 140.63 289.86 C 140.95 288.66 141.29 287.46 141.62 286.27 C 146.00 286.40 150.39 286.53 154.71 287.31 C 158.51 287.95 161.96 290.28 165.92 289.98 C 170.02 289.75 174.73 290.64 177.85 287.30 C 178.45 289.97 179.13 292.63 179.95 295.25 C 175.66 299.21 169.45 297.89 164.22 299.21 C 161.67 299.65 159.15 301.31 156.53 300.38 C 151.34 298.48 145.76 299.80 140.43 300.26 C 138.32 295.26 132.72 291.88 133.36 285.86 M 154.46 298.24 C 157.51 298.41 160.75 297.52 161.16 294.03 C 158.61 294.86 156.07 295.99 154.46 298.24 Z" />
</g>
<g id="#5b4233b4">
<path fill="#5b4233" opacity="0.71" d=" M 329.73 285.93 C 330.09 285.46 330.82 284.51 331.18 284.04 C 330.82 284.51 330.09 285.46 329.73 285.93 Z" />
</g>
<g id="#00000013">
</g>
<g id="#2b2b29ff">
<path fill="#2b2b29" opacity="1.00" d=" M 307.22 292.25 C 309.29 291.07 311.35 289.89 313.39 288.66 C 313.38 289.05 313.38 289.83 313.38 290.22 C 311.73 293.36 308.43 294.85 305.58 296.67 C 300.97 299.67 296.77 303.46 294.05 308.30 C 293.00 310.28 290.88 311.22 288.88 311.96 C 288.41 311.94 287.45 311.91 286.97 311.89 C 287.86 309.81 288.81 307.76 290.06 305.88 C 295.84 301.40 300.97 296.10 307.22 292.25 Z" />
</g>
<g id="#615f59ff">
<path fill="#615f59" opacity="1.00" d=" M 313.38 290.22 C 313.92 289.39 314.48 288.56 315.03 287.73 C 315.64 289.81 316.32 291.87 317.09 293.91 C 315.33 295.15 313.56 296.39 311.87 297.71 C 309.22 299.74 306.96 302.22 304.48 304.44 C 301.18 307.44 296.76 309.22 294.32 313.13 C 296.34 313.34 298.49 313.23 300.06 311.77 C 304.60 307.92 310.15 304.50 312.28 298.63 C 312.92 299.98 313.62 301.30 314.33 302.63 C 311.24 307.97 305.73 311.00 301.61 315.39 C 298.68 315.64 295.82 314.95 292.93 314.68 C 289.88 314.82 286.95 315.83 283.95 316.33 C 283.88 315.81 283.72 314.78 283.64 314.26 C 285.36 313.43 287.12 312.69 288.88 311.96 C 290.88 311.22 293.00 310.28 294.05 308.30 C 296.77 303.46 300.97 299.67 305.58 296.67 C 308.43 294.85 311.73 293.36 313.38 290.22 Z" />
</g>
<g id="#5a5854ff">
<path fill="#5a5854" opacity="1.00" d=" M 228.28 291.41 C 229.84 290.59 231.49 291.59 233.01 291.99 C 235.56 293.05 238.86 291.62 240.82 294.09 C 242.56 295.40 241.91 297.74 242.00 299.60 C 243.11 299.80 244.22 300.00 245.34 300.19 C 240.25 300.81 235.10 300.38 230.02 301.04 C 233.26 300.35 236.49 299.58 239.70 298.73 C 235.24 295.68 229.86 297.17 224.94 297.76 C 225.75 295.55 225.62 292.31 228.28 291.41 Z" />
</g>
<g id="#51504aff">
<path fill="#51504a" opacity="1.00" d=" M 253.43 293.12 C 259.55 293.98 265.71 294.79 271.89 294.32 C 273.82 297.50 275.45 301.11 278.51 303.39 C 282.10 305.09 286.21 305.13 290.06 305.88 C 288.81 307.76 287.86 309.81 286.97 311.89 C 287.45 311.91 288.41 311.94 288.88 311.96 C 287.12 312.69 285.36 313.43 283.64 314.26 C 283.58 311.34 280.74 309.88 279.06 307.89 C 276.63 305.51 275.69 302.08 273.38 299.61 C 270.41 299.12 267.50 300.35 264.56 300.54 C 262.60 299.90 260.67 299.18 258.74 298.48 C 258.75 297.50 258.76 296.52 258.78 295.54 C 256.57 297.14 254.32 298.69 252.06 300.23 C 255.34 300.89 258.69 301.28 262.03 300.90 C 258.74 301.43 255.40 301.56 252.09 301.35 C 250.12 301.02 248.18 300.54 246.20 300.29 C 245.57 299.27 244.94 298.27 244.30 297.26 C 247.25 297.39 250.20 297.38 253.15 297.24 C 253.24 295.87 253.34 294.49 253.43 293.12 Z" />
</g>
<g id="#0e0d0c8f">
<path fill="#0e0d0c" opacity="0.56" d=" M 154.46 298.24 C 156.07 295.99 158.61 294.86 161.16 294.03 C 160.75 297.52 157.51 298.41 154.46 298.24 Z" />
</g>
<g id="#474848ff">
<path fill="#474848" opacity="1.00" d=" M 194.36 297.35 C 197.19 295.91 200.14 294.24 203.45 294.53 C 208.50 294.88 214.52 294.70 218.09 298.96 L 218.38 299.88 C 210.35 299.49 201.93 300.73 194.36 297.35 Z" />
</g>
<g id="#525252ff">
<path fill="#525252" opacity="1.00" d=" M 311.87 297.71 C 313.56 296.39 315.33 295.15 317.09 293.91 C 318.60 296.04 320.51 297.83 322.43 299.59 C 322.09 302.83 320.24 305.45 318.01 307.71 C 317.64 304.80 317.46 301.88 317.35 298.96 C 316.32 300.16 315.29 301.37 314.33 302.63 C 313.62 301.30 312.92 299.98 312.28 298.63 L 311.87 297.71 Z" />
</g>
<g id="#6d6a69fa">
<path fill="#6d6a69" opacity="0.98" d=" M 252.06 300.23 C 254.32 298.69 256.57 297.14 258.78 295.54 C 258.76 296.52 258.75 297.50 258.74 298.48 C 260.67 299.18 262.60 299.90 264.56 300.54 C 263.93 300.63 262.66 300.81 262.03 300.90 C 258.69 301.28 255.34 300.89 252.06 300.23 Z" />
</g>
<g id="#86868aff">
<path fill="#86868a" opacity="1.00" d=" M 304.48 304.44 C 306.96 302.22 309.22 299.74 311.87 297.71 L 312.28 298.63 C 310.15 304.50 304.60 307.92 300.06 311.77 C 298.49 313.23 296.34 313.34 294.32 313.13 C 296.76 309.22 301.18 307.44 304.48 304.44 Z" />
</g>
<g id="#353636ff">
<path fill="#353636" opacity="1.00" d=" M 314.33 302.63 C 315.29 301.37 316.32 300.16 317.35 298.96 C 317.46 301.88 317.64 304.80 318.01 307.71 C 316.02 310.70 314.27 313.83 312.41 316.91 C 312.00 316.52 311.19 315.75 310.78 315.36 C 308.58 316.62 306.41 317.91 304.22 319.17 C 303.35 317.90 302.48 316.64 301.61 315.39 C 305.73 311.00 311.24 307.97 314.33 302.63 Z" />
</g>
<g id="#4b4b4bff">
<path fill="#4b4b4b" opacity="1.00" d=" M 283.95 316.33 C 286.95 315.83 289.88 314.82 292.93 314.68 C 295.82 314.95 298.68 315.64 301.61 315.39 C 302.48 316.64 303.35 317.90 304.22 319.17 C 302.11 320.38 299.91 321.43 297.71 322.44 C 292.82 321.22 287.06 320.94 283.95 316.33 Z" />
</g>
<g id="#676464fd">
<path fill="#676464" opacity="1.00" d=" M 304.22 319.17 C 306.41 317.91 308.58 316.62 310.78 315.36 C 311.19 315.75 312.00 316.52 312.41 316.91 C 309.72 322.23 303.29 325.25 297.71 322.44 C 299.91 321.43 302.11 320.38 304.22 319.17 Z" />
</g>
</svg>

