<?xml version="1.0" encoding="UTF-8" ?>
<!DOCTYPE svg PUBLIC "-//W3C//DTD SVG 1.1//EN" "http://www.w3.org/Graphics/SVG/1.1/DTD/svg11.dtd">
<svg width="512pt" height="512pt" viewBox="0 0 512 512" version="1.1" xmlns="http://www.w3.org/2000/svg">
<g id="#464746ff">
<path fill="#464746" opacity="1.00" d=" M 295.90 196.56 C 301.16 195.33 306.67 195.62 312.03 195.85 C 310.70 195.94 309.38 196.06 308.07 196.19 C 311.12 199.10 314.16 202.69 318.47 203.59 C 318.64 203.24 318.98 202.53 319.15 202.17 C 321.41 206.70 323.41 211.41 326.47 215.48 C 328.00 217.15 327.73 219.48 327.99 221.57 C 325.86 222.62 323.82 223.85 321.95 225.32 C 319.44 223.97 317.71 221.69 317.03 218.93 C 317.09 218.56 317.22 217.80 317.28 217.42 C 318.17 215.81 319.43 213.80 317.81 212.16 C 314.44 207.91 310.81 203.65 306.22 200.67 C 303.11 198.57 299.53 197.37 295.90 196.56 Z" />
</g>
<g id="#787877fe">
<path fill="#787877" opacity="1.00" d=" M 308.07 196.19 C 309.38 196.06 310.70 195.94 312.03 195.85 C 315.04 197.05 317.66 199.26 319.15 202.17 C 318.98 202.53 318.64 203.24 318.47 203.59 C 314.16 202.69 311.12 199.10 308.07 196.19 Z" />
</g>
<g id="#616364ff">
<path fill="#616364" opacity="1.00" d=" M 290.32 200.29 C 291.85 198.62 293.92 197.60 295.90 196.56 C 299.53 197.37 303.11 198.57 306.22 200.67 C 303.35 202.06 300.22 202.72 297.05 202.64 C 297.97 203.70 298.88 204.78 299.78 205.88 C 297.16 204.82 294.51 203.86 291.87 202.88 C 291.14 202.16 290.27 201.42 290.32 200.29 Z" />
</g>
<g id="#989b9fff">
<path fill="#989b9f" opacity="1.00" d=" M 297.05 202.64 C 300.22 202.72 303.35 202.06 306.22 200.67 C 305.70 201.09 304.65 201.93 304.13 202.35 C 308.11 207.73 313.74 211.68 317.28 217.42 C 317.22 217.80 317.09 218.56 317.03 218.93 C 316.26 219.16 315.49 219.39 314.73 219.63 C 314.37 218.04 314.25 216.24 312.98 215.07 C 310.35 212.35 307.78 209.55 304.99 206.99 C 303.66 205.50 301.52 206.09 299.78 205.88 C 298.88 204.78 297.97 203.70 297.05 202.64 Z" />
</g>
<g id="#686a6aff">
<path fill="#686a6a" opacity="1.00" d=" M 306.22 200.67 C 310.81 203.65 314.44 207.91 317.81 212.16 C 319.43 213.80 318.17 215.81 317.28 217.42 C 313.74 211.68 308.11 207.73 304.13 202.35 C 304.65 201.93 305.70 201.09 306.22 200.67 Z" />
</g>
<g id="#302d29ff">
<path fill="#302d29" opacity="1.00" d=" M 291.87 202.88 C 294.51 203.86 297.16 204.82 299.78 205.88 C 300.33 210.81 303.99 214.39 307.14 217.88 C 309.38 220.51 312.78 221.53 315.57 223.40 C 316.99 225.33 317.02 227.87 317.56 230.13 C 316.87 230.34 315.49 230.75 314.80 230.96 C 314.57 229.74 314.35 228.52 314.14 227.31 C 312.79 226.61 311.45 225.88 310.19 225.05 C 305.01 220.78 301.77 214.42 295.88 210.98 C 294.36 208.62 293.71 205.85 292.37 203.40 L 291.87 202.88 Z" />
</g>
<g id="#5f605eff">
<path fill="#5f605e" opacity="1.00" d=" M 282.16 211.11 C 284.30 207.17 288.51 205.25 292.37 203.40 C 293.71 205.85 294.36 208.62 295.88 210.98 C 295.37 210.98 294.36 210.99 293.85 211.00 C 287.07 210.42 280.89 213.82 276.22 218.45 C 280.82 218.56 283.24 223.07 286.85 225.25 L 285.90 224.96 C 279.29 223.27 273.15 218.61 266.01 220.08 C 266.07 220.48 266.20 221.28 266.26 221.69 C 266.31 222.05 266.42 222.77 266.48 223.13 C 271.81 225.36 276.54 228.71 281.65 231.38 C 286.18 233.83 290.37 236.92 294.01 240.56 C 291.81 241.49 289.74 242.88 287.38 243.36 C 285.97 243.07 284.68 242.40 283.40 241.77 C 279.95 238.52 277.30 233.34 272.01 233.08 C 266.91 232.46 261.85 230.92 256.67 231.24 C 256.50 231.55 256.14 232.17 255.97 232.48 C 264.11 232.94 272.28 235.60 278.36 241.19 C 274.28 241.78 270.19 240.96 266.11 241.13 C 262.18 241.79 258.61 243.71 254.84 244.89 C 258.64 241.04 264.11 240.26 269.09 238.88 C 263.70 234.12 256.33 232.99 249.38 233.47 C 250.62 235.88 251.99 238.64 250.12 241.15 C 246.16 247.90 243.74 256.41 236.52 260.49 C 239.58 265.11 238.90 271.66 243.79 275.06 C 243.58 273.29 243.35 271.52 243.16 269.75 C 243.58 270.10 244.43 270.79 244.85 271.14 C 246.56 273.96 247.80 277.23 250.58 279.22 C 250.45 278.16 250.29 277.10 250.11 276.06 C 251.18 276.00 252.26 275.95 253.34 275.91 C 252.57 273.79 252.40 271.55 252.83 269.34 C 254.60 272.58 255.23 276.48 257.66 279.32 C 262.86 283.40 270.09 282.33 276.13 281.14 C 276.57 281.05 277.43 280.87 277.86 280.78 C 279.69 280.95 281.58 281.03 283.31 281.71 C 285.30 283.48 285.37 286.34 285.94 288.76 C 283.86 288.97 280.97 287.73 279.57 289.84 L 279.15 289.67 C 278.91 289.31 278.42 288.57 278.18 288.21 C 277.30 286.38 274.94 284.43 273.20 286.51 C 272.01 286.78 270.79 286.86 269.61 286.53 C 269.68 287.74 269.74 288.95 269.82 290.17 C 266.86 290.17 263.68 290.48 260.99 288.99 C 258.15 286.87 256.39 283.57 253.35 281.69 C 250.67 280.44 247.77 279.76 245.08 278.53 C 245.00 278.89 244.82 279.62 244.74 279.99 C 240.80 274.64 237.32 268.93 233.00 263.89 C 231.70 268.10 235.61 271.44 236.70 275.26 C 238.33 280.57 243.51 283.22 247.67 286.31 C 250.25 287.87 253.06 290.48 256.30 289.26 C 256.58 290.07 256.86 290.88 257.14 291.70 C 256.82 292.57 256.50 293.44 256.18 294.31 C 251.77 291.47 247.13 289.00 242.22 287.12 C 244.08 293.96 252.18 295.00 255.82 300.36 C 249.20 298.41 243.67 293.88 239.62 288.39 C 235.70 282.93 228.87 280.00 226.29 273.53 C 226.70 273.26 227.53 272.71 227.94 272.43 C 228.86 271.82 229.79 271.22 230.72 270.62 C 230.51 267.94 229.87 265.33 229.14 262.75 C 228.32 260.34 230.07 258.13 230.69 255.89 C 230.99 256.47 231.58 257.63 231.87 258.21 C 233.84 252.21 233.82 245.66 236.68 239.95 C 236.23 243.10 235.73 246.24 235.48 249.41 C 240.32 243.13 241.75 234.66 247.81 229.24 C 245.86 229.54 243.91 229.80 241.95 230.03 C 242.94 227.76 244.42 225.37 247.15 225.14 C 251.98 224.48 256.49 222.53 260.09 219.22 C 258.02 218.96 255.93 218.75 253.91 218.20 C 253.44 217.17 253.41 216.00 253.23 214.90 C 248.41 213.06 242.91 213.91 239.07 217.40 C 239.81 217.66 241.28 218.18 242.01 218.44 C 240.64 220.40 238.50 221.10 236.18 221.13 C 236.33 219.71 236.48 218.30 236.61 216.89 C 235.28 217.45 233.91 217.96 232.69 218.74 C 230.51 222.56 229.53 226.92 227.80 230.95 C 227.13 232.94 225.58 235.54 227.51 237.34 C 228.11 237.53 229.30 237.90 229.89 238.09 C 228.17 243.75 227.38 249.65 225.36 255.23 C 225.12 253.18 224.89 251.13 224.75 249.07 C 224.85 248.64 225.07 247.77 225.17 247.34 C 225.56 244.77 228.11 240.82 224.74 239.29 C 221.15 238.98 217.58 239.92 213.99 239.43 C 212.48 236.36 211.31 232.46 207.83 231.08 C 206.13 231.32 204.54 231.98 202.94 232.56 C 200.89 231.19 198.78 229.19 196.11 229.93 C 193.50 229.82 193.25 232.65 192.42 234.44 C 192.05 234.61 191.30 234.94 190.93 235.10 C 190.90 234.38 190.86 232.92 190.84 232.20 C 190.37 227.84 194.21 223.96 192.41 219.69 C 191.76 217.25 191.17 214.79 190.75 212.31 C 190.01 212.18 188.52 211.92 187.77 211.79 C 195.42 208.27 203.99 209.55 212.12 209.10 C 215.01 213.02 212.96 217.91 213.47 222.33 C 214.02 227.34 213.88 232.42 214.60 237.41 C 216.34 238.96 218.10 236.48 219.07 235.15 C 220.58 230.79 220.26 226.03 221.70 221.63 C 222.82 218.38 221.98 214.98 221.35 211.73 C 224.57 212.02 227.73 212.74 230.93 213.25 C 233.42 213.56 235.20 211.45 236.12 209.39 C 232.01 209.29 227.80 209.65 223.85 208.31 C 227.78 208.78 231.76 208.20 235.69 208.74 C 239.10 209.41 242.43 210.87 245.98 210.42 C 250.74 209.87 255.59 209.49 260.31 210.59 C 257.06 210.41 253.82 210.65 250.62 211.14 C 254.34 213.17 260.18 214.51 263.47 211.18 C 267.77 211.05 271.31 213.49 275.01 215.27 C 277.89 215.07 280.88 213.88 282.16 211.11 Z" />
</g>
<g id="#5f5952ff">
<path fill="#5f5952" opacity="1.00" d=" M 299.78 205.88 C 301.52 206.09 303.66 205.50 304.99 206.99 C 307.78 209.55 310.35 212.35 312.98 215.07 C 314.25 216.24 314.37 218.04 314.73 219.63 C 315.49 219.39 316.26 219.16 317.03 218.93 C 317.71 221.69 319.44 223.97 321.95 225.32 C 321.24 227.53 320.11 229.78 317.56 230.13 C 317.02 227.87 316.99 225.33 315.57 223.40 C 312.78 221.53 309.38 220.51 307.14 217.88 C 303.99 214.39 300.33 210.81 299.78 205.88 Z" />
</g>
<g id="#62605dfe">
<path fill="#62605d" opacity="1.00" d=" M 130.05 207.12 C 133.67 207.49 137.34 207.36 140.95 207.86 C 144.45 208.65 147.23 211.11 150.33 212.79 C 147.04 212.40 143.60 212.02 140.55 213.62 C 140.49 213.31 140.36 212.68 140.29 212.36 C 138.72 212.68 137.16 213.03 135.60 213.41 C 135.28 212.92 134.63 211.95 134.31 211.46 C 132.67 211.82 131.01 212.07 129.35 212.29 C 129.71 210.58 129.87 208.85 130.05 207.12 Z" />
</g>
<g id="#6b6b6cff">
<path fill="#6b6b6c" opacity="1.00" d=" M 145.29 207.32 C 147.36 206.78 149.65 206.09 151.68 207.14 C 157.15 209.82 163.38 209.08 169.18 210.37 C 168.99 210.72 168.60 211.41 168.40 211.76 C 162.52 211.97 156.86 209.64 150.94 209.85 C 149.19 209.33 144.75 210.02 145.29 207.32 Z" />
<path fill="#6b6b6c" opacity="1.00" d=" M 226.31 319.30 C 227.19 318.49 228.08 317.69 228.97 316.90 C 234.17 320.39 239.10 324.75 245.37 326.17 C 243.20 327.53 240.80 328.58 238.18 328.19 C 234.58 325.62 230.92 323.10 226.98 321.06 C 226.81 320.62 226.48 319.74 226.31 319.30 Z" />
</g>
<g id="#83847bff">
<path fill="#83847b" opacity="1.00" d=" M 212.12 209.10 C 216.14 209.14 219.93 206.23 223.85 208.31 C 227.80 209.65 232.01 209.29 236.12 209.39 C 235.20 211.45 233.42 213.56 230.93 213.25 C 227.73 212.74 224.57 212.02 221.35 211.73 C 221.98 214.98 222.82 218.38 221.70 221.63 C 220.26 226.03 220.58 230.79 219.07 235.15 C 218.10 236.48 216.34 238.96 214.60 237.41 C 213.88 232.42 214.02 227.34 213.47 222.33 C 212.96 217.91 215.01 213.02 212.12 209.10 Z" />
</g>
<g id="#3f3e3bff">
<path fill="#3f3e3b" opacity="1.00" d=" M 150.94 209.85 C 156.86 209.64 162.52 211.97 168.40 211.76 C 168.60 211.41 168.99 210.72 169.18 210.37 C 170.80 211.36 172.31 212.55 174.02 213.41 C 176.06 213.64 178.12 213.45 180.15 213.26 C 178.14 213.64 176.10 213.97 174.05 214.08 C 171.72 213.87 169.16 212.56 166.98 213.96 C 165.69 214.58 164.46 215.30 163.24 216.03 C 161.78 215.29 160.34 214.52 158.91 213.75 C 155.00 215.38 150.82 216.84 146.51 216.18 C 140.27 215.18 133.38 219.84 127.65 215.95 C 128.27 214.75 128.86 213.54 129.35 212.29 C 131.01 212.07 132.67 211.82 134.31 211.46 C 134.63 211.95 135.28 212.92 135.60 213.41 C 137.16 213.03 138.72 212.68 140.29 212.36 C 140.36 212.68 140.49 213.31 140.55 213.62 C 143.60 212.02 147.04 212.40 150.33 212.79 C 151.15 213.09 151.97 213.40 152.79 213.71 C 152.16 212.43 151.54 211.15 150.94 209.85 Z" />
</g>
<g id="#85817dfb">
<path fill="#85817d" opacity="1.00" d=" M 250.62 211.14 C 253.82 210.65 257.06 210.41 260.31 210.59 C 261.10 210.74 262.68 211.04 263.47 211.18 C 260.18 214.51 254.34 213.17 250.62 211.14 Z" />
</g>
<g id="#8d8f85ff">
<path fill="#8d8f85" opacity="1.00" d=" M 276.22 218.45 C 280.89 213.82 287.07 210.42 293.85 211.00 C 295.64 213.97 297.90 216.95 297.48 220.64 C 300.76 222.47 304.99 223.77 306.35 227.68 C 308.11 231.53 304.30 234.71 302.00 237.28 C 297.34 232.80 292.88 227.91 286.85 225.25 C 283.24 223.07 280.82 218.56 276.22 218.45 Z" />
</g>
<g id="#6e6f66ff">
<path fill="#6e6f66" opacity="1.00" d=" M 293.85 211.00 C 294.36 210.99 295.37 210.98 295.88 210.98 C 301.77 214.42 305.01 220.78 310.19 225.05 C 309.87 231.07 307.44 236.70 306.10 242.53 C 304.97 242.08 303.83 241.63 302.71 241.18 C 304.02 243.91 305.04 246.80 305.15 249.86 C 302.16 248.40 299.06 247.21 295.90 246.19 C 296.39 246.07 297.36 245.83 297.85 245.71 C 296.84 243.80 295.56 242.06 294.01 240.56 C 290.37 236.92 286.18 233.83 281.65 231.38 C 276.54 228.71 271.81 225.36 266.48 223.13 C 266.42 222.77 266.31 222.05 266.26 221.69 C 268.71 222.44 271.21 223.17 273.46 224.46 C 277.96 226.96 282.84 228.84 286.89 232.11 C 290.22 234.77 294.19 236.68 296.95 240.03 C 298.32 241.71 299.95 243.15 301.88 244.17 C 299.98 240.25 296.68 237.34 294.08 233.92 C 291.67 230.63 287.86 228.62 285.90 224.96 L 286.85 225.25 C 292.88 227.91 297.34 232.80 302.00 237.28 C 304.30 234.71 308.11 231.53 306.35 227.68 C 304.99 223.77 300.76 222.47 297.48 220.64 C 297.90 216.95 295.64 213.97 293.85 211.00 Z" />
</g>
<g id="#8d8f87ff">
<path fill="#8d8f87" opacity="1.00" d=" M 180.15 213.26 C 182.69 212.77 185.23 212.26 187.77 211.79 C 188.52 211.92 190.01 212.18 190.75 212.31 C 191.17 214.79 191.76 217.25 192.41 219.69 C 194.21 223.96 190.37 227.84 190.84 232.20 C 188.64 232.41 185.97 232.58 185.04 230.06 C 182.93 225.59 177.95 224.23 174.11 221.70 C 174.13 219.15 174.07 216.61 174.05 214.08 C 176.10 213.97 178.14 213.64 180.15 213.26 Z" />
</g>
<g id="#5f5f5dff">
<path fill="#5f5f5d" opacity="1.00" d=" M 166.98 213.96 C 169.16 212.56 171.72 213.87 174.05 214.08 C 174.07 216.61 174.13 219.15 174.11 221.70 C 173.97 225.26 174.01 228.83 174.63 232.36 C 176.07 232.91 177.50 233.50 178.94 234.06 C 174.23 233.07 169.49 236.21 164.93 234.13 C 162.69 233.11 160.30 233.98 158.06 234.48 C 156.65 233.13 155.64 231.46 154.88 229.68 C 150.32 228.05 145.44 228.93 140.71 228.80 C 138.59 228.63 137.35 230.66 135.91 231.86 C 134.86 230.79 133.81 229.72 132.75 228.66 C 131.97 229.81 131.05 230.86 130.01 231.78 C 129.70 231.58 129.10 231.16 128.79 230.95 C 128.69 229.76 128.59 228.58 128.51 227.39 C 131.41 227.86 134.26 227.23 137.04 226.47 C 143.14 227.01 149.16 225.62 155.24 225.44 C 155.50 224.77 156.03 223.43 156.29 222.76 C 156.06 221.03 156.08 218.84 154.38 217.84 C 147.53 217.64 140.50 217.76 134.25 220.95 C 134.80 221.67 135.35 222.39 135.90 223.11 C 133.25 223.73 130.39 224.65 127.82 223.21 C 127.64 220.79 127.55 218.37 127.65 215.95 C 133.38 219.84 140.27 215.18 146.51 216.18 C 150.82 216.84 155.00 215.38 158.91 213.75 C 160.34 214.52 161.78 215.29 163.24 216.03 C 164.46 215.30 165.69 214.58 166.98 213.96 M 160.31 226.75 C 161.51 227.05 162.70 227.40 163.88 227.80 C 164.46 227.12 165.04 226.44 165.63 225.76 C 165.41 223.19 165.06 220.64 164.59 218.11 C 159.88 217.76 159.93 223.41 160.31 226.75 Z" />
</g>
<g id="#7f8078ff">
<path fill="#7f8078" opacity="1.00" d=" M 239.07 217.40 C 242.91 213.91 248.41 213.06 253.23 214.90 C 253.41 216.00 253.44 217.17 253.91 218.20 C 255.93 218.75 258.02 218.96 260.09 219.22 C 256.49 222.53 251.98 224.48 247.15 225.14 C 244.42 225.37 242.94 227.76 241.95 230.03 C 243.91 229.80 245.86 229.54 247.81 229.24 C 241.75 234.66 240.32 243.13 235.48 249.41 C 235.73 246.24 236.23 243.10 236.68 239.95 C 233.82 245.66 233.84 252.21 231.87 258.21 C 231.58 257.63 230.99 256.47 230.69 255.89 C 232.20 250.31 233.20 244.60 234.64 239.00 C 233.05 238.72 231.46 238.43 229.89 238.09 C 229.30 237.90 228.11 237.53 227.51 237.34 C 225.58 235.54 227.13 232.94 227.80 230.95 C 229.53 226.92 230.51 222.56 232.69 218.74 C 233.91 217.96 235.28 217.45 236.61 216.89 C 236.48 218.30 236.33 219.71 236.18 221.13 C 238.50 221.10 240.64 220.40 242.01 218.44 C 241.28 218.18 239.81 217.66 239.07 217.40 M 244.40 219.50 C 239.86 222.28 234.89 225.54 233.14 230.86 C 234.89 231.50 237.52 233.11 238.66 230.66 C 241.01 226.90 244.13 223.70 248.09 221.63 C 247.26 220.60 246.08 218.61 244.40 219.50 Z" />
</g>
<g id="#828487ff">
<path fill="#828487" opacity="1.00" d=" M 134.25 220.95 C 140.50 217.76 147.53 217.64 154.38 217.84 C 156.08 218.84 156.06 221.03 156.29 222.76 C 151.35 222.37 146.40 222.39 141.47 221.92 C 139.50 221.52 138.04 223.04 136.51 223.99 C 136.64 224.61 136.91 225.85 137.04 226.47 C 134.26 227.23 131.41 227.86 128.51 227.39 C 128.33 225.99 128.06 224.60 127.82 223.21 C 130.39 224.65 133.25 223.73 135.90 223.11 C 135.35 222.39 134.80 221.67 134.25 220.95 Z" />
</g>
<g id="#97969aff">
<path fill="#97969a" opacity="1.00" d=" M 160.31 226.75 C 159.93 223.41 159.88 217.76 164.59 218.11 C 165.06 220.64 165.41 223.19 165.63 225.76 C 165.04 226.44 164.46 227.12 163.88 227.80 C 162.70 227.40 161.51 227.05 160.31 226.75 Z" />
</g>
<g id="#494c4aff">
<path fill="#494c4a" opacity="1.00" d=" M 244.40 219.50 C 246.08 218.61 247.26 220.60 248.09 221.63 C 244.13 223.70 241.01 226.90 238.66 230.66 C 237.52 233.11 234.89 231.50 233.14 230.86 C 234.89 225.54 239.86 222.28 244.40 219.50 Z" />
</g>
<g id="#929088ff">
<path fill="#929088" opacity="1.00" d=" M 266.01 220.08 C 273.15 218.61 279.29 223.27 285.90 224.96 C 287.86 228.62 291.67 230.63 294.08 233.92 C 296.68 237.34 299.98 240.25 301.88 244.17 C 299.95 243.15 298.32 241.71 296.95 240.03 C 294.19 236.68 290.22 234.77 286.89 232.11 C 282.84 228.84 277.96 226.96 273.46 224.46 C 271.21 223.17 268.71 222.44 266.26 221.69 C 266.20 221.28 266.07 220.48 266.01 220.08 Z" />
</g>
<g id="#a5a3a8ff">
<path fill="#a5a3a8" opacity="1.00" d=" M 136.51 223.99 C 138.04 223.04 139.50 221.52 141.47 221.92 C 146.40 222.39 151.35 222.37 156.29 222.76 C 156.03 223.43 155.50 224.77 155.24 225.44 C 149.16 225.62 143.14 227.01 137.04 226.47 C 136.91 225.85 136.64 224.61 136.51 223.99 Z" />
</g>
<g id="#7c7e76ff">
<path fill="#7c7e76" opacity="1.00" d=" M 174.11 221.70 C 177.95 224.23 182.93 225.59 185.04 230.06 C 185.97 232.58 188.64 232.41 190.84 232.20 C 190.86 232.92 190.90 234.38 190.93 235.10 C 189.21 235.28 187.48 235.39 185.75 235.42 C 183.47 235.05 181.19 234.60 178.94 234.06 C 177.50 233.50 176.07 232.91 174.63 232.36 C 174.01 228.83 173.97 225.26 174.11 221.70 Z" />
</g>
<g id="#d6a385ff">
<path fill="#d6a385" opacity="1.00" d=" M 321.95 225.32 C 323.82 223.85 325.86 222.62 327.99 221.57 C 332.00 230.92 336.39 240.10 340.54 249.39 C 342.30 253.39 344.02 257.44 346.31 261.18 C 344.20 265.19 339.48 265.57 335.46 265.16 C 332.71 260.93 329.39 257.08 326.93 252.66 C 325.87 249.30 323.51 246.78 320.54 244.99 C 318.44 243.19 316.73 241.00 315.05 238.82 C 313.63 236.89 312.75 234.66 312.03 232.39 C 312.94 231.89 313.86 231.41 314.80 230.96 C 315.49 230.75 316.87 230.34 317.56 230.13 C 320.11 229.78 321.24 227.53 321.95 225.32 Z" />
</g>
<g id="#585750ff">
<path fill="#585750" opacity="1.00" d=" M 310.19 225.05 C 311.45 225.88 312.79 226.61 314.14 227.31 C 314.35 228.52 314.57 229.74 314.80 230.96 C 313.86 231.41 312.94 231.89 312.03 232.39 C 312.75 234.66 313.63 236.89 315.05 238.82 C 313.77 237.78 312.43 236.83 311.09 235.89 C 309.46 239.54 309.19 245.77 314.08 246.87 C 312.68 247.81 311.00 248.48 310.00 249.88 C 309.80 251.16 309.79 252.46 309.75 253.75 C 309.39 253.60 308.69 253.31 308.33 253.16 C 307.24 252.08 306.22 250.94 305.15 249.86 C 305.04 246.80 304.02 243.91 302.71 241.18 C 303.83 241.63 304.97 242.08 306.10 242.53 C 307.44 236.70 309.87 231.07 310.19 225.05 Z" />
</g>
<g id="#3e3e3dff">
<path fill="#3e3e3d" opacity="1.00" d=" M 135.91 231.86 C 137.35 230.66 138.59 228.63 140.71 228.80 C 145.44 228.93 150.32 228.05 154.88 229.68 C 155.64 231.46 156.65 233.13 158.06 234.48 C 152.97 234.90 147.91 233.91 142.82 233.88 C 138.22 233.83 133.64 234.72 129.03 234.17 C 128.97 233.36 128.85 231.76 128.79 230.95 C 129.10 231.16 129.70 231.58 130.01 231.78 C 131.05 230.86 131.97 229.81 132.75 228.66 C 133.81 229.72 134.86 230.79 135.91 231.86 Z" />
</g>
<g id="#4a4b4aff">
<path fill="#4a4b4a" opacity="1.00" d=" M 192.42 234.44 C 193.25 232.65 193.50 229.82 196.11 229.93 C 198.78 229.19 200.89 231.19 202.94 232.56 C 204.54 231.98 206.13 231.32 207.83 231.08 C 211.31 232.46 212.48 236.36 213.99 239.43 C 217.58 239.92 221.15 238.98 224.74 239.29 C 228.11 240.82 225.56 244.77 225.17 247.34 C 225.22 245.61 225.07 243.88 224.99 242.16 C 215.38 240.64 205.53 240.52 196.11 237.99 C 192.71 236.93 189.27 236.00 185.75 235.42 C 187.48 235.39 189.21 235.28 190.93 235.10 C 191.30 234.94 192.05 234.61 192.42 234.44 Z" />
</g>
<g id="#9b978fff">
<path fill="#9b978f" opacity="1.00" d=" M 256.67 231.24 C 261.85 230.92 266.91 232.46 272.01 233.08 C 277.30 233.34 279.95 238.52 283.40 241.77 L 282.49 242.06 C 281.10 241.79 279.73 241.48 278.36 241.19 C 272.28 235.60 264.11 232.94 255.97 232.48 C 256.14 232.17 256.50 231.55 256.67 231.24 Z" />
</g>
<g id="#020201be">
<path fill="#020201" opacity="0.75" d=" M 158.06 234.48 C 160.30 233.98 162.69 233.11 164.93 234.13 C 169.49 236.21 174.23 233.07 178.94 234.06 C 181.19 234.60 183.47 235.05 185.75 235.42 C 189.27 236.00 192.71 236.93 196.11 237.99 C 192.53 237.53 188.98 236.82 185.40 236.40 C 182.35 235.98 179.48 238.34 176.47 237.34 C 171.22 235.49 165.63 236.96 160.22 236.63 C 154.63 236.41 149.04 236.71 143.45 236.69 C 143.29 235.99 142.98 234.58 142.82 233.88 C 147.91 233.91 152.97 234.90 158.06 234.48 Z" />
</g>
<g id="#434543ff">
<path fill="#434543" opacity="1.00" d=" M 249.38 233.47 C 256.33 232.99 263.70 234.12 269.09 238.88 C 264.11 240.26 258.64 241.04 254.84 244.89 C 252.72 246.69 250.09 248.41 249.42 251.29 C 248.44 255.01 248.05 259.05 245.45 262.10 C 244.90 260.17 244.37 258.23 243.81 256.30 C 242.63 260.69 242.63 265.27 243.16 269.75 C 243.35 271.52 243.58 273.29 243.79 275.06 C 238.90 271.66 239.58 265.11 236.52 260.49 C 243.74 256.41 246.16 247.90 250.12 241.15 C 251.99 238.64 250.62 235.88 249.38 233.47 Z" />
</g>
<g id="#010101c5">
<path fill="#010101" opacity="0.77" d=" M 311.09 235.89 C 312.43 236.83 313.77 237.78 315.05 238.82 C 316.73 241.00 318.44 243.19 320.54 244.99 C 319.95 245.90 319.35 246.80 318.76 247.71 C 317.19 247.44 315.62 247.19 314.08 246.87 C 309.19 245.77 309.46 239.54 311.09 235.89 Z" />
</g>
<g id="#454644ff">
<path fill="#454644" opacity="1.00" d=" M 229.89 238.09 C 231.46 238.43 233.05 238.72 234.64 239.00 C 233.20 244.60 232.20 250.31 230.69 255.89 C 230.07 258.13 228.32 260.34 229.14 262.75 C 229.87 265.33 230.51 267.94 230.72 270.62 C 229.79 271.22 228.86 271.82 227.94 272.43 C 226.60 270.16 225.93 267.60 225.49 265.02 C 223.64 265.97 222.49 267.64 221.58 269.45 L 220.85 269.70 C 224.22 263.31 224.10 256.04 224.75 249.07 C 224.89 251.13 225.12 253.18 225.36 255.23 C 227.38 249.65 228.17 243.75 229.89 238.09 Z" />
</g>
<g id="#727473ff">
<path fill="#727473" opacity="1.00" d=" M 254.84 244.89 C 258.61 243.71 262.18 241.79 266.11 241.13 C 270.19 240.96 274.28 241.78 278.36 241.19 C 279.73 241.48 281.10 241.79 282.49 242.06 C 278.96 243.57 275.09 243.67 271.40 244.48 C 269.48 245.66 267.85 247.25 266.18 248.75 C 265.10 248.12 264.02 247.49 262.94 246.86 C 256.27 250.32 248.43 255.13 248.35 263.63 C 247.05 263.91 245.76 264.19 244.46 264.48 C 244.57 266.70 244.62 268.92 244.85 271.14 C 244.43 270.79 243.58 270.10 243.16 269.75 C 242.63 265.27 242.63 260.69 243.81 256.30 C 244.37 258.23 244.90 260.17 245.45 262.10 C 248.05 259.05 248.44 255.01 249.42 251.29 C 250.09 248.41 252.72 246.69 254.84 244.89 Z" />
</g>
<g id="#55534fff">
<path fill="#55534f" opacity="1.00" d=" M 287.38 243.36 C 289.74 242.88 291.81 241.49 294.01 240.56 C 295.56 242.06 296.84 243.80 297.85 245.71 C 297.36 245.83 296.39 246.07 295.90 246.19 C 293.04 246.08 290.19 245.84 287.35 245.65 C 284.27 245.10 281.91 248.00 278.85 247.58 C 275.26 247.34 271.28 246.78 268.61 249.80 C 267.08 250.17 265.54 250.51 264.01 250.87 C 261.75 251.51 258.99 251.51 257.40 253.50 C 253.86 257.96 253.06 263.83 252.83 269.34 C 252.40 271.55 252.57 273.79 253.34 275.91 C 252.26 275.95 251.18 276.00 250.11 276.06 C 247.75 272.27 248.27 267.87 248.35 263.63 C 248.43 255.13 256.27 250.32 262.94 246.86 C 264.02 247.49 265.10 248.12 266.18 248.75 C 267.85 247.25 269.48 245.66 271.40 244.48 C 275.09 243.67 278.96 243.57 282.49 242.06 L 283.40 241.77 C 284.68 242.40 285.97 243.07 287.38 243.36 Z" />
</g>
<g id="#676a69ff">
<path fill="#676a69" opacity="1.00" d=" M 278.85 247.58 C 281.91 248.00 284.27 245.10 287.35 245.65 C 284.88 248.58 281.77 251.09 277.80 251.41 C 276.67 251.34 275.54 251.28 274.42 251.22 C 272.47 250.77 270.55 250.24 268.61 249.80 C 271.28 246.78 275.26 247.34 278.85 247.58 Z" />
</g>
<g id="#666879ff">
<path fill="#666879" opacity="1.00" d=" M 320.54 244.99 C 323.51 246.78 325.87 249.30 326.93 252.66 C 326.07 253.25 325.23 253.85 324.38 254.44 C 324.87 254.77 325.86 255.44 326.35 255.77 C 326.40 258.43 326.15 261.09 325.91 263.74 C 324.18 264.18 322.44 264.64 320.72 265.10 C 320.99 266.96 321.24 268.83 321.44 270.70 C 322.86 270.42 324.29 269.97 325.76 270.10 C 327.75 273.65 325.78 278.39 321.84 279.51 C 318.31 280.22 321.96 284.04 323.06 280.82 C 323.29 281.17 323.76 281.89 324.00 282.24 C 322.31 284.92 320.89 287.80 321.10 291.07 C 320.52 294.46 319.40 297.73 317.68 300.72 C 315.34 300.74 312.96 300.83 310.72 300.02 C 310.84 299.05 310.94 298.08 311.06 297.11 C 312.09 296.80 313.12 296.50 314.16 296.20 C 315.60 292.57 317.69 289.18 318.42 285.31 C 317.31 285.65 316.20 285.98 315.09 286.30 C 313.59 285.12 312.07 283.99 310.53 282.87 C 311.85 279.66 314.11 277.01 316.01 274.15 C 313.11 271.99 309.54 271.36 306.02 271.94 C 306.40 271.66 307.16 271.11 307.54 270.83 C 306.81 269.96 306.09 269.10 305.36 268.24 C 306.54 267.51 307.71 266.78 308.89 266.04 C 307.09 265.90 305.30 265.76 303.52 265.55 C 302.92 266.60 302.31 267.65 301.78 268.74 C 302.33 266.56 301.93 264.35 300.96 262.36 C 301.47 261.68 302.00 261.02 302.53 260.35 C 302.81 261.72 303.12 263.11 303.98 264.25 C 304.49 260.92 303.93 257.57 303.33 254.30 C 304.99 253.91 306.65 253.49 308.33 253.16 C 308.69 253.31 309.39 253.60 309.75 253.75 C 309.79 252.46 309.80 251.16 310.00 249.88 C 311.00 248.48 312.68 247.81 314.08 246.87 C 315.62 247.19 317.19 247.44 318.76 247.71 C 319.35 246.80 319.95 245.90 320.54 244.99 M 320.24 248.08 C 320.38 251.41 323.22 246.52 320.24 248.08 M 315.17 263.70 C 315.13 265.83 315.14 267.97 315.31 270.10 C 316.39 268.36 317.10 266.44 317.60 264.46 C 318.69 264.19 319.78 263.91 320.88 263.63 C 320.90 262.02 320.96 260.41 320.95 258.81 C 319.41 260.88 318.41 264.38 315.17 263.70 M 319.25 269.24 C 319.80 269.79 319.80 269.79 319.25 269.24 Z" />
</g>
<g id="#82817bff">
<path fill="#82817b" opacity="1.00" d=" M 287.35 245.65 C 290.19 245.84 293.04 246.08 295.90 246.19 C 299.06 247.21 302.16 248.40 305.15 249.86 C 306.22 250.94 307.24 252.08 308.33 253.16 C 306.65 253.49 304.99 253.91 303.33 254.30 C 303.93 257.57 304.49 260.92 303.98 264.25 C 303.12 263.11 302.81 261.72 302.53 260.35 C 302.00 261.02 301.47 261.68 300.96 262.36 L 300.37 263.14 C 300.46 259.55 301.22 255.23 298.53 252.36 C 295.95 250.13 292.48 248.89 289.09 248.89 C 286.21 248.87 285.06 251.92 283.52 253.81 C 281.61 253.00 279.71 252.19 277.80 251.41 C 281.77 251.09 284.88 248.58 287.35 245.65 Z" />
</g>
<g id="#b9bbc3ff">
<path fill="#b9bbc3" opacity="1.00" d=" M 320.24 248.08 C 323.22 246.52 320.38 251.41 320.24 248.08 Z" />
</g>
<g id="#98968fff">
<path fill="#98968f" opacity="1.00" d=" M 283.52 253.81 C 285.06 251.92 286.21 248.87 289.09 248.89 C 292.48 248.89 295.95 250.13 298.53 252.36 C 301.22 255.23 300.46 259.55 300.37 263.14 C 299.99 263.36 299.21 263.79 298.83 264.01 L 298.86 264.85 L 298.10 264.86 C 293.01 262.87 287.55 263.84 282.27 263.14 C 280.56 262.92 278.84 263.15 277.13 263.29 C 277.19 265.12 277.20 266.97 277.16 268.81 C 281.09 268.97 284.81 267.85 288.33 266.23 C 288.40 266.20 288.52 266.16 288.59 266.13 C 290.29 265.61 292.00 265.07 293.78 264.87 C 292.64 266.00 293.96 267.51 295.30 267.41 C 295.37 267.84 295.51 268.70 295.58 269.13 C 293.73 269.33 291.83 269.40 290.06 270.01 C 288.18 271.49 286.95 273.72 284.87 274.95 C 280.79 276.29 276.48 275.19 272.32 274.98 C 268.20 274.68 263.61 274.42 260.37 271.55 C 258.75 268.35 259.04 264.45 260.01 261.09 C 260.56 259.01 262.99 258.59 264.53 257.46 C 266.52 256.53 267.08 254.15 268.69 252.79 C 270.63 252.39 272.91 252.79 274.42 251.22 C 275.54 251.28 276.67 251.34 277.80 251.41 C 279.71 252.19 281.61 253.00 283.52 253.81 Z" />
</g>
<g id="#87857eff">
<path fill="#87857e" opacity="1.00" d=" M 264.01 250.87 C 265.54 250.51 267.08 250.17 268.61 249.80 C 270.55 250.24 272.47 250.77 274.42 251.22 C 272.91 252.79 270.63 252.39 268.69 252.79 C 267.08 254.15 266.52 256.53 264.53 257.46 C 262.99 258.59 260.56 259.01 260.01 261.09 C 259.04 264.45 258.75 268.35 260.37 271.55 C 263.61 274.42 268.20 274.68 272.32 274.98 C 276.48 275.19 280.79 276.29 284.87 274.95 C 286.95 273.72 288.18 271.49 290.06 270.01 C 291.83 269.40 293.73 269.33 295.58 269.13 C 295.51 268.70 295.37 267.84 295.30 267.41 C 295.68 266.34 295.32 264.43 293.78 264.87 C 292.00 265.07 290.29 265.61 288.59 266.13 L 288.33 266.23 C 284.81 267.85 281.09 268.97 277.16 268.81 C 277.20 266.97 277.19 265.12 277.13 263.29 C 278.84 263.15 280.56 262.92 282.27 263.14 C 287.55 263.84 293.01 262.87 298.10 264.86 C 298.64 265.26 299.71 266.05 300.24 266.45 L 300.43 266.73 C 300.69 267.41 301.21 268.78 301.47 269.46 C 299.38 272.82 300.89 276.72 301.72 280.20 C 296.81 281.89 291.60 282.24 286.48 282.83 C 285.79 281.70 285.11 280.56 284.45 279.42 C 282.23 279.77 280.02 280.16 277.86 280.78 C 277.43 280.87 276.57 281.05 276.13 281.14 C 271.60 280.27 266.79 280.24 262.49 278.52 C 259.11 275.58 256.62 271.36 256.10 266.88 C 256.16 260.75 258.25 253.94 264.01 250.87 M 279.39 265.12 C 278.99 266.51 279.49 267.00 280.88 266.60 C 281.29 265.19 280.79 264.69 279.39 265.12 M 282.28 265.10 C 282.44 268.40 285.29 263.57 282.28 265.10 Z" />
</g>
<g id="#76756eff">
<path fill="#76756e" opacity="1.00" d=" M 257.40 253.50 C 258.99 251.51 261.75 251.51 264.01 250.87 C 258.25 253.94 256.16 260.75 256.10 266.88 C 256.62 271.36 259.11 275.58 262.49 278.52 C 266.79 280.24 271.60 280.27 276.13 281.14 C 270.09 282.33 262.86 283.40 257.66 279.32 C 255.23 276.48 254.60 272.58 252.83 269.34 C 253.06 263.83 253.86 257.96 257.40 253.50 Z" />
</g>
<g id="#4a5239fe">
<path fill="#4a5239" opacity="1.00" d=" M 326.35 255.77 C 329.36 257.31 328.84 260.74 328.42 263.52 C 326.67 264.23 324.90 264.87 323.12 265.46 C 321.79 269.90 328.64 269.15 328.81 273.23 C 329.23 277.51 325.55 281.17 325.89 285.59 C 324.13 287.26 322.43 289.02 321.10 291.07 C 320.89 287.80 322.31 284.92 324.00 282.24 C 323.76 281.89 323.29 281.17 323.06 280.82 C 322.75 280.49 322.14 279.84 321.84 279.51 C 325.78 278.39 327.75 273.65 325.76 270.10 C 324.29 269.97 322.86 270.42 321.44 270.70 C 321.24 268.83 320.99 266.96 320.72 265.10 C 322.44 264.64 324.18 264.18 325.91 263.74 C 326.15 261.09 326.40 258.43 326.35 255.77 Z" />
</g>
<g id="#9e9fa7ff">
<path fill="#9e9fa7" opacity="1.00" d=" M 315.17 263.70 C 318.41 264.38 319.41 260.88 320.95 258.81 C 320.96 260.41 320.90 262.02 320.88 263.63 C 319.78 263.91 318.69 264.19 317.60 264.46 C 317.10 266.44 316.39 268.36 315.31 270.10 C 315.14 267.97 315.13 265.83 315.17 263.70 Z" />
</g>
<g id="#5d5d5bff">
<path fill="#5d5d5b" opacity="1.00" d=" M 346.31 261.18 C 347.63 264.29 350.40 266.06 352.95 268.02 C 356.80 273.92 359.12 281.05 359.36 288.06 C 359.23 286.45 358.64 284.97 358.30 283.42 C 356.53 285.95 354.89 288.55 353.27 291.17 C 353.95 291.14 355.31 291.09 355.99 291.07 C 352.93 291.82 350.53 293.82 347.93 295.45 C 343.42 295.84 340.34 291.36 339.36 287.46 C 338.39 284.98 340.15 282.68 340.40 280.27 C 339.07 275.15 334.59 270.72 335.46 265.16 C 339.48 265.57 344.20 265.19 346.31 261.18 Z" />
</g>
<g id="#f8f7f6ff">
<path fill="#f8f7f6" opacity="1.00" d=" M 298.83 264.01 C 299.21 263.79 299.99 263.36 300.37 263.14 C 299.99 263.56 299.24 264.42 298.86 264.85 L 298.83 264.01 Z" />
</g>
<g id="#4b4c4fff">
<path fill="#4b4c4f" opacity="1.00" d=" M 300.37 263.14 L 300.96 262.36 C 301.93 264.35 302.33 266.56 301.78 268.74 L 301.47 269.46 C 301.21 268.78 300.69 267.41 300.43 266.73 C 300.38 266.66 300.29 266.52 300.24 266.45 C 299.71 266.05 298.64 265.26 298.10 264.86 L 298.86 264.85 C 299.24 264.42 299.99 263.56 300.37 263.14 Z" />
</g>
<g id="#7e7b73ff">
<path fill="#7e7b73" opacity="1.00" d=" M 233.00 263.89 C 237.32 268.93 240.80 274.64 244.74 279.99 C 247.68 284.16 252.93 285.58 256.30 289.26 C 253.06 290.48 250.25 287.87 247.67 286.31 C 243.51 283.22 238.33 280.57 236.70 275.26 C 235.61 271.44 231.70 268.10 233.00 263.89 Z" />
</g>
<g id="#898989ff">
<path fill="#898989" opacity="1.00" d=" M 244.46 264.48 C 245.76 264.19 247.05 263.91 248.35 263.63 C 248.27 267.87 247.75 272.27 250.11 276.06 C 250.29 277.10 250.45 278.16 250.58 279.22 C 247.80 277.23 246.56 273.96 244.85 271.14 C 244.62 268.92 244.57 266.70 244.46 264.48 Z" />
</g>
<g id="#000000c5">
<path fill="#000000" opacity="0.77" d=" M 323.12 265.46 C 324.90 264.87 326.67 264.23 328.42 263.52 C 332.43 264.96 333.65 269.43 334.97 273.05 C 335.64 275.91 336.60 279.30 335.07 282.03 C 332.27 283.82 329.24 285.21 326.50 287.12 C 326.35 286.74 326.05 285.97 325.89 285.59 C 325.55 281.17 329.23 277.51 328.81 273.23 C 328.64 269.15 321.79 269.90 323.12 265.46 Z" />
</g>
<g id="#797b72ff">
<path fill="#797b72" opacity="1.00" d=" M 221.58 269.45 C 222.49 267.64 223.64 265.97 225.49 265.02 C 225.93 267.60 226.60 270.16 227.94 272.43 C 227.53 272.71 226.70 273.26 226.29 273.53 C 228.87 280.00 235.70 282.93 239.62 288.39 C 243.67 293.88 249.20 298.41 255.82 300.36 C 259.75 303.49 265.07 303.00 269.50 304.98 C 268.61 305.83 267.76 306.72 266.79 307.48 C 260.85 306.97 255.26 304.50 249.82 302.20 C 243.76 299.58 238.93 295.00 234.68 290.06 C 233.94 291.54 235.42 292.67 236.21 293.73 C 239.44 297.36 243.05 300.69 247.04 303.47 C 247.58 308.34 242.51 310.31 238.95 312.13 C 232.60 308.00 225.52 304.85 218.21 302.84 C 217.89 298.32 219.62 294.04 222.91 290.94 C 224.64 291.97 226.58 292.45 228.48 293.06 C 228.77 291.47 229.07 289.89 229.36 288.30 C 230.62 288.76 231.89 289.21 233.17 289.66 C 230.03 285.17 226.71 280.80 223.81 276.15 C 223.50 273.81 224.10 271.53 224.88 269.35 C 223.78 269.37 222.68 269.40 221.58 269.45 Z" />
</g>
<g id="#d9dce2ff">
<path fill="#d9dce2" opacity="1.00" d=" M 279.39 265.12 C 280.79 264.69 281.29 265.19 280.88 266.60 C 279.49 267.00 278.99 266.51 279.39 265.12 Z" />
</g>
<g id="#ebeef3ff">
<path fill="#ebeef3" opacity="1.00" d=" M 282.28 265.10 C 285.29 263.57 282.44 268.40 282.28 265.10 Z" />
</g>
<g id="#dee1e5ff">
<path fill="#dee1e5" opacity="1.00" d=" M 293.78 264.87 C 295.32 264.43 295.68 266.34 295.30 267.41 C 293.96 267.51 292.64 266.00 293.78 264.87 Z" />
</g>
<g id="#73716aff">
<path fill="#73716a" opacity="1.00" d=" M 303.52 265.55 C 305.30 265.76 307.09 265.90 308.89 266.04 C 307.71 266.78 306.54 267.51 305.36 268.24 C 306.09 269.10 306.81 269.96 307.54 270.83 C 307.16 271.11 306.40 271.66 306.02 271.94 C 305.36 272.16 304.05 272.61 303.40 272.83 C 302.50 276.48 306.65 277.89 308.74 280.06 C 308.18 281.46 307.64 282.86 307.04 284.25 C 302.83 289.19 295.97 288.28 290.17 288.34 C 291.87 290.23 295.64 291.60 294.70 294.68 C 294.08 297.33 290.59 296.60 288.56 297.26 C 287.27 296.82 286.00 296.34 284.72 295.90 C 284.78 295.50 284.90 294.69 284.96 294.29 L 284.22 294.09 C 284.15 294.48 284.02 295.26 283.95 295.64 L 283.28 295.43 C 283.69 294.12 284.09 292.81 284.51 291.50 C 282.85 290.98 281.19 290.45 279.57 289.84 C 280.97 287.73 283.86 288.97 285.94 288.76 C 285.37 286.34 285.30 283.48 283.31 281.71 C 281.58 281.03 279.69 280.95 277.86 280.78 C 280.02 280.16 282.23 279.77 284.45 279.42 C 285.11 280.56 285.79 281.70 286.48 282.83 C 291.60 282.24 296.81 281.89 301.72 280.20 C 300.89 276.72 299.38 272.82 301.47 269.46 L 301.78 268.74 C 302.31 267.65 302.92 266.60 303.52 265.55 Z" />
</g>
<g id="#ffffffff">
<path fill="#ffffff" opacity="1.00" d=" M 288.33 266.23 L 288.59 266.13 C 288.52 266.16 288.40 266.20 288.33 266.23 Z" />
</g>
<g id="#f7faf8ff">
<path fill="#f7faf8" opacity="1.00" d=" M 300.24 266.45 C 300.29 266.52 300.38 266.66 300.43 266.73 L 300.24 266.45 Z" />
</g>
<g id="#999ba1fe">
<path fill="#999ba1" opacity="1.00" d=" M 221.58 269.45 C 222.68 269.40 223.78 269.37 224.88 269.35 C 224.10 271.53 223.50 273.81 223.81 276.15 C 223.73 276.76 223.59 277.97 223.51 278.58 C 222.30 279.00 221.09 279.45 219.89 279.92 C 219.79 277.55 219.67 275.18 219.81 272.81 C 220.10 271.75 220.45 270.72 220.85 269.70 L 221.58 269.45 Z" />
</g>
<g id="#ece9f1ff">
<path fill="#ece9f1" opacity="1.00" d=" M 319.25 269.24 C 319.80 269.79 319.80 269.79 319.25 269.24 Z" />
</g>
<g id="#58595aff">
<path fill="#58595a" opacity="1.00" d=" M 306.02 271.94 C 309.54 271.36 313.11 271.99 316.01 274.15 C 314.11 277.01 311.85 279.66 310.53 282.87 C 312.07 283.99 313.59 285.12 315.09 286.30 C 312.19 287.35 309.13 286.44 307.04 284.25 C 307.64 282.86 308.18 281.46 308.74 280.06 C 306.65 277.89 302.50 276.48 303.40 272.83 C 304.05 272.61 305.36 272.16 306.02 271.94 Z" />
</g>
<g id="#5e5d57ff">
<path fill="#5e5d57" opacity="1.00" d=" M 219.14 280.77 C 219.09 278.10 219.17 275.41 219.81 272.81 C 219.67 275.18 219.79 277.55 219.89 279.92 C 221.09 279.45 222.30 279.00 223.51 278.58 C 223.59 277.97 223.73 276.76 223.81 276.15 C 226.71 280.80 230.03 285.17 233.17 289.66 C 231.89 289.21 230.62 288.76 229.36 288.30 C 229.07 289.89 228.77 291.47 228.48 293.06 C 226.58 292.45 224.64 291.97 222.91 290.94 C 219.62 294.04 217.89 298.32 218.21 302.84 L 218.27 303.77 C 216.48 302.93 214.31 299.58 212.53 301.98 C 213.54 305.43 216.08 308.43 219.67 309.29 C 219.43 307.97 219.19 306.65 218.85 305.36 C 224.01 307.37 229.80 308.22 234.20 311.82 C 236.17 313.32 237.91 315.09 239.74 316.75 C 239.11 317.59 238.48 318.43 237.85 319.27 C 232.08 316.98 230.20 310.15 224.30 308.01 C 224.13 308.40 223.80 309.16 223.63 309.55 C 222.29 309.90 220.94 310.19 219.59 310.49 C 219.35 312.03 219.12 313.57 218.88 315.12 C 216.15 313.57 214.40 310.95 212.22 308.79 C 209.74 307.84 206.99 307.71 204.40 307.11 C 206.79 306.36 209.13 305.48 211.28 304.19 C 210.96 303.77 210.31 302.95 209.98 302.53 C 208.00 302.72 206.01 302.88 204.03 303.05 C 205.64 301.02 208.46 298.98 206.35 296.39 C 204.08 297.96 201.91 299.69 199.99 301.68 C 199.58 301.66 198.76 301.61 198.35 301.58 C 196.81 302.67 195.03 303.27 193.15 303.02 C 193.29 302.09 193.43 301.16 193.55 300.24 C 192.27 299.73 191.00 299.22 189.74 298.70 C 191.92 296.52 195.08 298.10 197.76 297.72 C 198.90 297.31 199.98 296.79 201.10 296.33 C 202.87 295.97 204.68 295.77 206.44 295.33 C 208.12 293.93 209.35 292.09 210.84 290.51 C 214.34 287.45 218.50 285.34 222.51 283.06 C 221.35 282.33 220.23 281.57 219.14 280.77 Z" />
</g>
<g id="#3e4042ff">
<path fill="#3e4042" opacity="1.00" d=" M 245.08 278.53 C 247.77 279.76 250.67 280.44 253.35 281.69 C 256.39 283.57 258.15 286.87 260.99 288.99 C 263.68 290.48 266.86 290.17 269.82 290.17 C 269.74 288.95 269.68 287.74 269.61 286.53 C 270.79 286.86 272.01 286.78 273.20 286.51 C 273.75 289.23 276.15 289.05 278.18 288.21 C 278.42 288.57 278.91 289.31 279.15 289.67 C 279.43 290.96 279.67 292.26 279.92 293.56 C 277.85 293.28 275.57 292.24 273.57 293.29 C 272.21 293.88 272.57 295.68 272.17 296.85 C 267.03 296.02 260.46 296.50 257.14 291.70 C 256.86 290.88 256.58 290.07 256.30 289.26 C 252.93 285.58 247.68 284.16 244.74 279.99 C 244.82 279.62 245.00 278.89 245.08 278.53 Z" />
</g>
<g id="#b3b6bfff">
<path fill="#b3b6bf" opacity="1.00" d=" M 323.06 280.82 C 321.96 284.04 318.31 280.22 321.84 279.51 C 322.14 279.84 322.75 280.49 323.06 280.82 Z" />
</g>
<g id="#929498fe">
<path fill="#929498" opacity="1.00" d=" M 209.11 286.52 C 211.42 283.11 215.73 282.58 219.14 280.77 C 220.23 281.57 221.35 282.33 222.51 283.06 C 218.50 285.34 214.34 287.45 210.84 290.51 C 210.25 289.19 209.67 287.86 209.11 286.52 Z" />
</g>
<g id="#4b4a47ff">
<path fill="#4b4a47" opacity="1.00" d=" M 307.04 284.25 C 309.13 286.44 312.19 287.35 315.09 286.30 C 316.20 285.98 317.31 285.65 318.42 285.31 C 317.69 289.18 315.60 292.57 314.16 296.20 C 313.12 296.50 312.09 296.80 311.06 297.11 C 311.36 295.18 311.85 293.28 312.28 291.38 C 310.49 292.22 308.70 293.05 306.90 293.87 C 308.18 292.20 309.48 290.54 310.81 288.90 C 305.83 290.46 299.46 291.21 296.86 296.39 C 298.77 296.58 300.68 296.76 302.59 296.87 C 300.03 298.74 296.77 298.78 293.87 299.82 C 292.47 301.10 291.27 302.57 290.00 303.99 C 290.21 305.49 290.40 307.01 290.61 308.52 C 291.05 311.63 292.32 314.68 291.80 317.86 C 294.55 318.47 297.28 319.14 300.03 319.79 C 301.66 319.65 303.30 319.43 304.92 319.13 L 305.93 318.89 C 306.15 316.83 306.34 314.77 306.58 312.73 C 307.70 315.90 307.48 319.25 306.56 322.44 C 304.07 323.03 301.60 323.70 299.14 324.40 C 301.62 330.50 304.70 336.33 307.77 342.15 C 309.81 345.62 309.98 350.98 305.58 352.66 L 305.68 351.66 C 305.87 350.41 306.62 349.12 306.08 347.87 C 302.75 339.45 297.83 331.78 294.34 323.45 C 295.58 322.67 296.82 321.89 298.05 321.10 C 295.91 321.36 293.77 321.66 291.65 322.04 C 291.09 321.02 290.54 320.00 290.03 318.96 C 289.30 315.33 288.29 311.76 286.50 308.50 C 285.93 308.45 284.79 308.36 284.22 308.32 C 280.82 307.75 278.52 304.81 275.12 304.24 C 275.30 302.34 276.21 300.31 278.26 299.87 C 281.71 299.06 285.21 298.46 288.56 297.26 C 290.59 296.60 294.08 297.33 294.70 294.68 C 295.64 291.60 291.87 290.23 290.17 288.34 C 295.97 288.28 302.83 289.19 307.04 284.25 Z" />
</g>
<g id="#747475f4">
<path fill="#747475" opacity="0.96" d=" M 353.27 291.17 C 354.89 288.55 356.53 285.95 358.30 283.42 C 358.64 284.97 359.23 286.45 359.36 288.06 C 358.29 289.10 357.46 290.56 355.99 291.07 C 355.31 291.09 353.95 291.14 353.27 291.17 Z" />
</g>
<g id="#954b4dff">
<path fill="#954b4d" opacity="1.00" d=" M 273.20 286.51 C 274.94 284.43 277.30 286.38 278.18 288.21 C 276.15 289.05 273.75 289.23 273.20 286.51 Z" />
</g>
<g id="#00000022">
<path fill="#000000" opacity="0.13" d=" M 321.10 291.07 C 322.43 289.02 324.13 287.26 325.89 285.59 C 326.05 285.97 326.35 286.74 326.50 287.12 C 324.66 295.51 324.00 304.17 320.97 312.27 C 319.48 318.81 315.96 324.59 313.77 330.89 C 312.07 331.80 309.97 332.27 308.68 333.76 C 308.51 335.17 308.58 336.60 308.56 338.03 C 308.37 339.41 308.07 340.78 307.77 342.15 C 304.70 336.33 301.62 330.50 299.14 324.40 C 301.60 323.70 304.07 323.03 306.56 322.44 C 307.48 319.25 307.70 315.90 306.58 312.73 C 304.18 310.85 300.90 311.14 298.26 309.77 C 298.28 307.82 298.70 305.77 298.08 303.88 C 297.00 302.22 295.31 301.11 293.87 299.82 C 296.77 298.78 300.03 298.74 302.59 296.87 C 304.26 296.57 305.93 296.32 307.61 296.07 C 308.62 297.40 309.61 298.76 310.72 300.02 C 312.96 300.83 315.34 300.74 317.68 300.72 C 319.40 297.73 320.52 294.46 321.10 291.07 Z" />
</g>
<g id="#010101c3">
<path fill="#010101" opacity="0.76" d=" M 201.10 296.33 C 201.64 291.76 205.41 288.70 209.11 286.52 C 209.67 287.86 210.25 289.19 210.84 290.51 C 209.35 292.09 208.12 293.93 206.44 295.33 C 204.68 295.77 202.87 295.97 201.10 296.33 Z" />
</g>
<g id="#555452ff">
<path fill="#555452" opacity="1.00" d=" M 242.22 287.12 C 247.13 289.00 251.77 291.47 256.18 294.31 C 256.50 293.44 256.82 292.57 257.14 291.70 C 260.46 296.50 267.03 296.02 272.17 296.85 C 272.57 295.68 272.21 293.88 273.57 293.29 C 275.57 292.24 277.85 293.28 279.92 293.56 C 279.67 292.26 279.43 290.96 279.15 289.67 L 279.57 289.84 C 281.19 290.45 282.85 290.98 284.51 291.50 C 284.09 292.81 283.69 294.12 283.28 295.43 L 283.95 295.64 L 284.72 295.90 C 286.00 296.34 287.27 296.82 288.56 297.26 C 285.21 298.46 281.71 299.06 278.26 299.87 C 276.21 300.31 275.30 302.34 275.12 304.24 C 278.52 304.81 280.82 307.75 284.22 308.32 C 280.38 309.38 276.20 307.67 272.57 309.56 C 270.01 310.76 267.14 310.75 264.39 310.96 C 264.49 311.53 264.69 312.68 264.79 313.25 C 264.76 313.95 264.69 315.36 264.66 316.06 C 262.96 314.90 261.33 313.63 259.98 312.08 C 261.93 316.55 264.94 320.56 266.15 325.34 C 263.36 324.44 262.30 321.49 260.35 319.59 C 258.28 318.37 256.03 320.01 254.11 320.78 C 254.67 321.85 255.24 322.94 255.80 324.02 C 255.64 324.52 255.31 325.52 255.14 326.02 C 255.05 325.31 254.86 323.88 254.76 323.17 C 251.96 323.64 249.17 324.22 246.37 324.72 C 245.30 323.69 244.12 322.81 242.88 322.02 C 244.54 319.98 246.17 317.92 247.84 315.90 C 250.18 313.30 255.22 312.25 255.12 308.18 C 253.35 305.51 249.56 305.31 247.04 303.47 C 243.05 300.69 239.44 297.36 236.21 293.73 C 235.42 292.67 233.94 291.54 234.68 290.06 C 238.93 295.00 243.76 299.58 249.82 302.20 C 255.26 304.50 260.85 306.97 266.79 307.48 C 267.76 306.72 268.61 305.83 269.50 304.98 C 265.07 303.00 259.75 303.49 255.82 300.36 C 252.18 295.00 244.08 293.96 242.22 287.12 M 254.91 311.87 C 255.32 314.21 257.08 315.80 259.03 316.96 C 258.54 314.78 257.82 311.55 254.91 311.87 Z" />
</g>
<g id="#383838ff">
<path fill="#383838" opacity="1.00" d=" M 296.86 296.39 C 299.46 291.21 305.83 290.46 310.81 288.90 C 309.48 290.54 308.18 292.20 306.90 293.87 C 308.70 293.05 310.49 292.22 312.28 291.38 C 311.85 293.28 311.36 295.18 311.06 297.11 C 310.94 298.08 310.84 299.05 310.72 300.02 C 309.61 298.76 308.62 297.40 307.61 296.07 C 305.93 296.32 304.26 296.57 302.59 296.87 C 300.68 296.76 298.77 296.58 296.86 296.39 Z" />
</g>
<g id="#e6e5e6ff">
<path fill="#e6e5e6" opacity="1.00" d=" M 284.22 294.09 L 284.96 294.29 C 284.90 294.69 284.78 295.50 284.72 295.90 L 283.95 295.64 C 284.02 295.26 284.15 294.48 284.22 294.09 Z" />
</g>
<g id="#a4765cff">
<path fill="#a4765c" opacity="1.00" d=" M 199.99 301.68 C 201.91 299.69 204.08 297.96 206.35 296.39 C 208.46 298.98 205.64 301.02 204.03 303.05 C 202.16 305.38 201.46 308.34 200.40 311.08 C 198.71 308.18 199.49 304.79 199.99 301.68 Z" />
</g>
<g id="#787878ff">
<path fill="#787878" opacity="1.00" d=" M 187.79 301.71 C 188.46 300.72 189.07 299.69 189.74 298.70 C 191.00 299.22 192.27 299.73 193.55 300.24 C 193.43 301.16 193.29 302.09 193.15 303.02 C 192.61 306.30 191.29 309.49 191.37 312.86 C 192.56 315.57 194.45 317.98 194.96 320.97 C 193.53 320.63 191.40 320.95 190.78 319.23 C 188.23 313.73 188.99 307.52 187.79 301.71 Z" />
</g>
<g id="#010101e4">
<path fill="#010101" opacity="0.89" d=" M 290.00 303.99 C 291.27 302.57 292.47 301.10 293.87 299.82 C 295.31 301.11 297.00 302.22 298.08 303.88 C 298.70 305.77 298.28 307.82 298.26 309.77 C 296.00 307.94 293.31 306.85 290.61 308.52 C 290.40 307.01 290.21 305.49 290.00 303.99 Z" />
</g>
<g id="#535453ff">
<path fill="#535453" opacity="1.00" d=" M 193.15 303.02 C 195.03 303.27 196.81 302.67 198.35 301.58 C 198.76 301.61 199.58 301.66 199.99 301.68 C 199.49 304.79 198.71 308.18 200.40 311.08 C 201.46 308.34 202.16 305.38 204.03 303.05 C 206.01 302.88 208.00 302.72 209.98 302.53 C 210.31 302.95 210.96 303.77 211.28 304.19 C 209.13 305.48 206.79 306.36 204.40 307.11 C 206.99 307.71 209.74 307.84 212.22 308.79 C 214.40 310.95 216.15 313.57 218.88 315.12 C 219.12 313.57 219.35 312.03 219.59 310.49 C 220.94 310.19 222.29 309.90 223.63 309.55 C 224.99 311.14 226.26 312.81 227.57 314.46 C 226.86 315.30 226.16 316.14 225.46 316.98 C 225.74 317.75 226.02 318.52 226.31 319.30 C 226.48 319.74 226.81 320.62 226.98 321.06 C 223.58 321.27 220.71 319.62 218.39 317.29 C 217.05 319.30 215.82 321.61 213.53 322.69 C 210.54 324.11 207.11 323.90 203.89 323.92 C 202.03 323.49 200.26 322.30 198.30 322.62 C 196.16 322.81 193.64 324.04 191.92 322.11 C 188.48 319.03 183.25 316.41 183.64 311.01 C 182.75 307.17 185.10 304.10 187.79 301.71 C 188.99 307.52 188.23 313.73 190.78 319.23 C 191.40 320.95 193.53 320.63 194.96 320.97 C 194.45 317.98 192.56 315.57 191.37 312.86 C 191.29 309.49 192.61 306.30 193.15 303.02 Z" />
</g>
<g id="#797c7dff">
<path fill="#797c7d" opacity="1.00" d=" M 212.53 301.98 C 214.31 299.58 216.48 302.93 218.27 303.77 C 218.42 304.17 218.71 304.96 218.85 305.36 C 219.19 306.65 219.43 307.97 219.67 309.29 C 216.08 308.43 213.54 305.43 212.53 301.98 Z" />
</g>
<g id="#433f38ff">
<path fill="#433f38" opacity="1.00" d=" M 218.21 302.84 C 225.52 304.85 232.60 308.00 238.95 312.13 C 240.96 313.63 242.98 315.13 244.98 316.65 C 245.93 316.41 246.89 316.16 247.84 315.90 C 246.17 317.92 244.54 319.98 242.88 322.02 C 241.23 321.06 239.52 320.19 237.85 319.27 C 238.48 318.43 239.11 317.59 239.74 316.75 C 237.91 315.09 236.17 313.32 234.20 311.82 C 229.80 308.22 224.01 307.37 218.85 305.36 C 218.71 304.96 218.42 304.17 218.27 303.77 L 218.21 302.84 Z" />
</g>
<g id="#676860ff">
<path fill="#676860" opacity="1.00" d=" M 247.04 303.47 C 249.56 305.31 253.35 305.51 255.12 308.18 C 255.22 312.25 250.18 313.30 247.84 315.90 C 246.89 316.16 245.93 316.41 244.98 316.65 C 242.98 315.13 240.96 313.63 238.95 312.13 C 242.51 310.31 247.58 308.34 247.04 303.47 Z" />
</g>
<g id="#66656bff">
<path fill="#66656b" opacity="1.00" d=" M 290.61 308.52 C 293.31 306.85 296.00 307.94 298.26 309.77 C 300.90 311.14 304.18 310.85 306.58 312.73 C 306.34 314.77 306.15 316.83 305.93 318.89 L 304.92 319.13 C 304.87 317.37 304.84 315.61 304.81 313.86 C 303.10 313.99 301.08 313.28 299.72 314.69 C 298.53 316.22 299.73 318.15 300.03 319.79 C 297.28 319.14 294.55 318.47 291.80 317.86 C 292.32 314.68 291.05 311.63 290.61 308.52 Z" />
</g>
<g id="#858788ff">
<path fill="#858788" opacity="1.00" d=" M 224.30 308.01 C 230.20 310.15 232.08 316.98 237.85 319.27 C 239.52 320.19 241.23 321.06 242.88 322.02 C 244.12 322.81 245.30 323.69 246.37 324.72 L 246.39 325.60 L 245.37 326.17 C 239.10 324.75 234.17 320.39 228.97 316.90 C 228.08 317.69 227.19 318.49 226.31 319.30 C 226.02 318.52 225.74 317.75 225.46 316.98 C 226.16 316.14 226.86 315.30 227.57 314.46 C 226.26 312.81 224.99 311.14 223.63 309.55 C 223.80 309.16 224.13 308.40 224.30 308.01 Z" />
</g>
<g id="#8b9181ff">
<path fill="#8b9181" opacity="1.00" d=" M 272.57 309.56 C 276.20 307.67 280.38 309.38 284.22 308.32 C 284.79 308.36 285.93 308.45 286.50 308.50 C 288.29 311.76 289.30 315.33 290.03 318.96 C 289.43 318.83 288.23 318.58 287.63 318.45 C 286.87 316.35 286.07 314.26 285.30 312.17 C 284.36 312.46 283.46 312.87 282.72 313.52 C 279.65 313.40 276.32 312.54 273.63 314.51 C 273.70 314.19 273.84 313.53 273.91 313.21 C 271.49 313.77 269.06 314.33 266.67 315.00 C 266.05 314.40 265.43 313.82 264.79 313.25 C 264.69 312.68 264.49 311.53 264.39 310.96 C 267.14 310.75 270.01 310.76 272.57 309.56 Z" />
</g>
<g id="#78787dff">
<path fill="#78787d" opacity="1.00" d=" M 254.91 311.87 C 257.82 311.55 258.54 314.78 259.03 316.96 C 257.08 315.80 255.32 314.21 254.91 311.87 Z" />
</g>
<g id="#6c6a6fff">
<path fill="#6c6a6f" opacity="1.00" d=" M 259.98 312.08 C 261.33 313.63 262.96 314.90 264.66 316.06 C 264.69 315.36 264.76 313.95 264.79 313.25 C 265.43 313.82 266.05 314.40 266.67 315.00 C 268.75 318.51 270.65 322.15 272.00 326.01 C 268.09 329.42 262.85 325.77 258.38 327.43 C 259.98 328.61 261.56 329.83 263.24 330.90 C 262.70 332.18 262.18 333.47 261.66 334.77 C 259.81 334.31 257.97 333.86 256.12 333.41 C 255.71 334.22 255.30 335.03 254.89 335.85 C 251.75 333.20 254.43 329.16 255.14 326.02 C 255.31 325.52 255.64 324.52 255.80 324.02 C 255.24 322.94 254.67 321.85 254.11 320.78 C 256.03 320.01 258.28 318.37 260.35 319.59 C 262.30 321.49 263.36 324.44 266.15 325.34 C 264.94 320.56 261.93 316.55 259.98 312.08 Z" />
</g>
<g id="#9fa78fff">
<path fill="#9fa78f" opacity="1.00" d=" M 282.72 313.52 C 283.46 312.87 284.36 312.46 285.30 312.17 C 286.07 314.26 286.87 316.35 287.63 318.45 C 288.23 318.58 289.43 318.83 290.03 318.96 C 290.54 320.00 291.09 321.02 291.65 322.04 C 293.30 325.16 295.03 328.23 296.66 331.36 C 298.28 334.10 297.48 337.36 297.28 340.34 C 298.66 340.72 300.05 341.09 301.44 341.47 C 302.90 344.84 304.31 348.24 305.68 351.66 L 305.58 352.66 C 304.75 353.20 303.91 353.73 303.06 354.27 C 300.09 354.23 297.14 353.90 294.20 353.53 C 294.11 352.95 293.92 351.80 293.83 351.22 C 294.78 350.36 295.73 349.50 296.69 348.65 C 296.31 347.80 295.93 346.96 295.56 346.13 C 293.76 346.26 291.98 346.51 290.27 347.08 C 291.17 349.63 291.91 352.24 292.14 354.95 C 290.55 354.95 288.97 354.96 287.39 354.97 C 286.89 351.51 286.69 347.83 284.86 344.76 C 283.72 344.31 282.46 344.46 281.27 344.37 C 280.98 344.18 280.41 343.82 280.12 343.64 C 277.54 341.75 274.25 341.10 271.18 341.90 C 271.45 343.10 271.72 344.31 272.00 345.52 C 270.93 346.43 269.87 347.34 268.81 348.26 C 267.44 345.71 266.24 342.97 264.14 340.93 C 261.35 338.75 257.98 337.52 254.89 335.85 C 255.30 335.03 255.71 334.22 256.12 333.41 C 257.97 333.86 259.81 334.31 261.66 334.77 C 262.18 333.47 262.70 332.18 263.24 330.90 C 261.56 329.83 259.98 328.61 258.38 327.43 C 262.85 325.77 268.09 329.42 272.00 326.01 C 270.65 322.15 268.75 318.51 266.67 315.00 C 269.06 314.33 271.49 313.77 273.91 313.21 C 273.84 313.53 273.70 314.19 273.63 314.51 C 272.70 319.35 277.43 322.85 278.97 327.11 C 281.52 333.47 286.13 338.86 287.71 345.61 C 288.35 345.45 288.99 345.30 289.63 345.15 C 289.00 343.98 288.37 342.80 287.75 341.63 C 289.74 340.91 291.59 339.84 293.69 339.41 C 293.87 338.04 294.45 336.63 293.76 335.30 C 292.39 331.81 290.92 328.29 288.85 325.15 C 287.14 323.68 284.74 323.33 282.89 322.05 C 281.76 320.95 281.01 319.54 280.11 318.26 C 281.38 317.20 282.66 316.14 283.95 315.08 C 283.64 314.69 283.03 313.91 282.72 313.52 Z" />
</g>
<g id="#535157ff">
<path fill="#535157" opacity="1.00" d=" M 273.63 314.51 C 276.32 312.54 279.65 313.40 282.72 313.52 C 283.03 313.91 283.64 314.69 283.95 315.08 C 282.66 316.14 281.38 317.20 280.11 318.26 C 281.01 319.54 281.76 320.95 282.89 322.05 C 284.74 323.33 287.14 323.68 288.85 325.15 C 290.92 328.29 292.39 331.81 293.76 335.30 C 294.45 336.63 293.87 338.04 293.69 339.41 C 291.59 339.84 289.74 340.91 287.75 341.63 C 288.37 342.80 289.00 343.98 289.63 345.15 C 288.99 345.30 288.35 345.45 287.71 345.61 C 286.13 338.86 281.52 333.47 278.97 327.11 C 277.43 322.85 272.70 319.35 273.63 314.51 Z" />
</g>
<g id="#ffeb50ff">
<path fill="#ffeb50" opacity="1.00" d=" M 299.72 314.69 C 301.08 313.28 303.10 313.99 304.81 313.86 C 304.84 315.61 304.87 317.37 304.92 319.13 C 303.30 319.43 301.66 319.65 300.03 319.79 C 299.73 318.15 298.53 316.22 299.72 314.69 Z" />
</g>
<g id="#40403dff">
<path fill="#40403d" opacity="1.00" d=" M 218.39 317.29 C 220.71 319.62 223.58 321.27 226.98 321.06 C 230.92 323.10 234.58 325.62 238.18 328.19 C 231.87 327.64 225.53 327.69 219.21 327.43 C 216.52 327.41 214.45 325.40 211.91 324.86 C 209.23 324.54 206.49 324.74 203.89 323.92 C 207.11 323.90 210.54 324.11 213.53 322.69 C 215.82 321.61 217.05 319.30 218.39 317.29 Z" />
</g>
<g id="#7a7c78ff">
<path fill="#7a7c78" opacity="1.00" d=" M 291.65 322.04 C 293.77 321.66 295.91 321.36 298.05 321.10 C 296.82 321.89 295.58 322.67 294.34 323.45 C 297.83 331.78 302.75 339.45 306.08 347.87 C 306.62 349.12 305.87 350.41 305.68 351.66 C 304.31 348.24 302.90 344.84 301.44 341.47 C 300.05 341.09 298.66 340.72 297.28 340.34 C 297.48 337.36 298.28 334.10 296.66 331.36 C 295.03 328.23 293.30 325.16 291.65 322.04 Z" />
</g>
<g id="#00000014">
<path fill="#000000" opacity="0.08" d=" M 246.37 324.72 C 249.17 324.22 251.96 323.64 254.76 323.17 C 254.86 323.88 255.05 325.31 255.14 326.02 C 254.43 329.16 251.75 333.20 254.89 335.85 C 257.98 337.52 261.35 338.75 264.14 340.93 C 266.24 342.97 267.44 345.71 268.81 348.26 C 270.76 352.08 272.02 356.22 274.25 359.92 C 277.66 359.35 281.15 359.15 284.52 358.32 C 286.66 356.62 289.25 355.93 291.94 355.68 C 295.61 354.91 299.35 354.73 303.06 354.27 C 303.91 353.73 304.75 353.20 305.58 352.66 C 309.98 350.98 309.81 345.62 307.77 342.15 C 308.07 340.78 308.37 339.41 308.56 338.03 C 311.02 338.41 313.48 338.81 315.94 339.23 C 315.85 342.73 313.35 345.23 310.91 347.43 C 311.00 348.49 311.09 349.56 311.18 350.62 C 306.99 354.94 308.81 361.30 306.37 366.35 C 305.23 368.54 307.15 371.28 305.34 373.23 C 303.59 376.13 299.99 378.68 301.02 382.48 C 301.59 384.47 299.82 385.84 298.80 387.31 C 299.08 388.46 299.36 389.61 299.66 390.76 C 297.76 394.25 294.45 397.34 294.52 401.57 C 294.55 404.11 293.68 406.50 292.45 408.70 C 293.42 408.68 294.39 408.67 295.36 408.68 C 294.64 411.50 291.89 412.30 289.37 412.80 C 289.64 414.12 290.02 415.44 290.06 416.81 C 289.57 418.97 288.10 420.81 287.74 423.01 C 288.12 425.08 289.47 426.82 290.44 428.66 C 289.46 429.80 288.38 430.90 287.60 432.21 C 287.37 433.54 288.08 434.82 288.38 436.10 C 287.73 436.98 287.07 437.87 286.41 438.75 C 287.32 439.23 288.24 439.71 289.16 440.19 C 289.25 440.50 289.41 441.11 289.49 441.42 C 287.82 442.41 286.28 443.61 284.66 444.69 C 286.78 448.09 282.79 451.07 283.42 454.55 C 284.18 460.34 285.27 466.34 283.78 472.10 C 281.54 476.69 278.20 480.78 277.07 485.88 C 278.16 485.81 279.25 485.75 280.35 485.69 C 280.87 483.93 281.41 482.17 281.97 480.43 C 282.58 481.55 284.41 482.41 284.02 483.87 C 282.32 486.50 280.11 488.76 278.10 491.16 C 278.22 494.53 280.28 497.06 283.00 498.86 C 281.98 500.21 280.83 501.51 280.12 503.06 C 279.61 506.02 279.75 509.04 279.19 512.00 L 251.57 512.00 C 253.38 510.09 254.78 507.86 255.93 505.51 C 253.76 503.15 252.44 500.12 251.93 496.98 C 251.86 492.81 254.17 489.14 255.55 485.34 C 254.54 484.09 253.53 482.86 252.52 481.63 C 256.18 480.18 257.55 476.19 256.64 472.55 C 255.12 472.55 253.59 472.55 252.07 472.52 C 254.01 470.30 256.26 468.32 257.87 465.83 C 258.60 464.03 258.62 462.06 258.90 460.17 C 257.56 461.68 256.10 463.07 254.63 464.46 C 255.26 461.77 256.27 459.19 256.77 456.48 C 257.15 453.99 255.36 451.78 255.40 449.34 C 255.82 447.70 256.71 446.18 257.94 445.02 C 259.59 444.64 261.29 444.59 262.97 444.46 C 261.77 442.96 259.92 442.40 258.25 441.63 C 257.30 440.75 256.83 439.50 256.15 438.44 C 259.15 438.87 261.59 437.42 263.15 434.91 C 261.42 433.54 259.70 432.16 257.97 430.81 C 258.70 427.71 259.66 424.66 260.64 421.63 C 262.13 417.03 261.77 412.10 260.84 407.43 C 261.53 406.61 262.22 405.79 262.92 404.98 C 261.68 404.22 260.45 403.46 259.22 402.72 C 259.85 401.69 260.48 400.66 261.09 399.62 C 262.10 399.89 263.11 400.16 264.13 400.44 C 263.18 399.22 262.23 398.01 261.27 396.81 C 263.03 389.92 262.06 382.62 260.89 375.70 C 261.64 374.76 262.55 373.93 263.05 372.82 C 262.92 370.34 261.90 367.94 262.36 365.44 C 263.15 362.58 260.40 360.54 259.90 357.92 C 260.75 353.49 259.66 348.57 262.93 344.90 C 262.59 344.54 261.91 343.84 261.57 343.49 C 260.19 344.10 258.81 344.72 257.44 345.35 C 254.80 343.22 253.93 339.91 253.21 336.75 C 251.71 336.01 250.22 335.28 248.73 334.54 C 248.75 331.39 248.20 328.25 246.39 325.60 L 246.37 324.72 Z" />
</g>
<g id="#808186ff">
<path fill="#808186" opacity="1.00" d=" M 271.18 341.90 C 274.25 341.10 277.54 341.75 280.12 343.64 C 278.32 343.74 276.53 343.96 274.75 344.18 C 276.46 345.35 278.24 346.40 280.16 347.20 C 281.48 349.31 281.93 351.72 281.07 354.10 C 278.02 352.86 274.79 352.21 271.68 351.19 C 270.23 349.20 273.87 347.68 274.95 346.16 C 274.21 346.00 272.74 345.68 272.00 345.52 C 271.72 344.31 271.45 343.10 271.18 341.90 Z" />
</g>
<g id="#525254ff">
<path fill="#525254" opacity="1.00" d=" M 274.75 344.18 C 276.53 343.96 278.32 343.74 280.12 343.64 C 280.41 343.82 280.98 344.18 281.27 344.37 C 282.63 345.92 283.56 347.76 284.30 349.68 C 282.92 348.85 281.56 348.00 280.16 347.20 C 278.24 346.40 276.46 345.35 274.75 344.18 Z" />
</g>
<g id="#6a6b70ff">
<path fill="#6a6b70" opacity="1.00" d=" M 281.27 344.37 C 282.46 344.46 283.72 344.31 284.86 344.76 C 286.69 347.83 286.89 351.51 287.39 354.97 C 288.97 354.96 290.55 354.95 292.14 354.95 L 291.94 355.68 C 289.25 355.93 286.66 356.62 284.52 358.32 C 281.15 359.15 277.66 359.35 274.25 359.92 C 272.02 356.22 270.76 352.08 268.81 348.26 C 269.87 347.34 270.93 346.43 272.00 345.52 C 272.74 345.68 274.21 346.00 274.95 346.16 C 273.87 347.68 270.23 349.20 271.68 351.19 C 274.79 352.21 278.02 352.86 281.07 354.10 C 281.93 351.72 281.48 349.31 280.16 347.20 C 281.56 348.00 282.92 348.85 284.30 349.68 C 283.56 347.76 282.63 345.92 281.27 344.37 Z" />
</g>
<g id="#46444aff">
<path fill="#46444a" opacity="1.00" d=" M 290.27 347.08 C 291.98 346.51 293.76 346.26 295.56 346.13 C 295.93 346.96 296.31 347.80 296.69 348.65 C 295.73 349.50 294.78 350.36 293.83 351.22 C 293.92 351.80 294.11 352.95 294.20 353.53 C 297.14 353.90 300.09 354.23 303.06 354.27 C 299.35 354.73 295.61 354.91 291.94 355.68 L 292.14 354.95 C 291.91 352.24 291.17 349.63 290.27 347.08 Z" />
</g>
</svg>
