<?xml version="1.0" encoding="UTF-8" ?>
<!DOCTYPE svg PUBLIC "-//W3C//DTD SVG 1.1//EN" "http://www.w3.org/Graphics/SVG/1.1/DTD/svg11.dtd">
<svg width="512pt" height="512pt" viewBox="0 0 512 512" version="1.1" xmlns="http://www.w3.org/2000/svg">
<g id="#444544ff">
<path fill="#444544" opacity="1.00" d=" M 296.83 198.28 C 301.32 196.66 306.15 197.66 310.79 197.83 C 313.25 201.27 316.41 204.09 319.73 206.68 C 320.09 206.25 320.82 205.41 321.18 204.99 C 323.17 209.41 325.15 213.87 327.88 217.90 C 327.24 217.99 325.96 218.17 325.32 218.26 C 324.82 221.14 324.35 224.03 323.64 226.86 L 323.38 227.71 C 321.91 226.44 320.05 225.45 319.12 223.70 C 319.08 220.91 319.90 218.21 320.32 215.47 C 317.59 211.36 314.47 207.45 310.80 204.14 C 306.94 200.67 301.81 199.24 296.83 198.28 Z" />
</g>
<g id="#7a7a79fe">
<path fill="#7a7a79" opacity="1.00" d=" M 310.79 197.83 C 315.48 197.69 319.32 200.88 321.18 204.99 C 320.82 205.41 320.09 206.25 319.73 206.68 C 316.41 204.09 313.25 201.27 310.79 197.83 Z" />
</g>
<g id="#676a6aff">
<path fill="#676a6a" opacity="1.00" d=" M 292.54 202.98 C 291.62 200.24 295.19 199.61 296.83 198.28 C 301.81 199.24 306.94 200.67 310.80 204.14 C 314.47 207.45 317.59 211.36 320.32 215.47 C 319.81 215.53 318.81 215.64 318.30 215.70 C 318.18 216.29 317.93 217.46 317.80 218.04 C 314.13 212.46 308.74 208.27 305.25 202.54 C 303.41 203.54 301.51 204.63 300.53 206.57 C 299.16 205.96 297.76 205.41 296.39 204.83 C 296.00 204.66 295.22 204.32 294.82 204.15 C 294.25 203.86 293.11 203.27 292.54 202.98 Z" />
</g>
<g id="#a0a3a6ff">
<path fill="#a0a3a6" opacity="1.00" d=" M 300.53 206.57 C 301.51 204.63 303.41 203.54 305.25 202.54 C 308.74 208.27 314.13 212.46 317.80 218.04 C 317.52 219.34 317.26 220.64 317.00 221.94 C 315.47 216.45 310.83 212.92 307.05 209.00 C 305.43 207.09 302.79 207.04 300.53 206.57 Z" />
</g>
<g id="#5f5c55ff">
<path fill="#5f5c55" opacity="1.00" d=" M 294.82 204.15 C 295.22 204.32 296.00 204.66 296.39 204.83 C 296.11 207.19 296.22 209.58 296.69 211.91 L 295.93 211.86 C 291.48 212.04 287.05 212.69 282.74 213.81 C 285.02 208.78 290.01 206.23 294.82 204.15 Z" />
</g>
<g id="#65635eff">
<path fill="#65635e" opacity="1.00" d=" M 127.75 205.29 C 130.82 205.77 133.91 206.04 137.00 206.32 C 141.20 206.58 144.46 209.53 148.17 211.15 C 143.58 211.12 138.96 213.14 134.44 211.66 C 132.29 211.11 130.15 210.57 127.98 210.12 C 127.88 208.77 127.77 207.43 127.72 206.08 L 127.75 205.29 Z" />
</g>
<g id="#69696aff">
<path fill="#69696a" opacity="1.00" d=" M 142.24 206.89 C 143.86 206.26 145.46 205.47 147.20 205.24 C 149.62 205.60 151.77 206.92 154.16 207.42 C 158.53 208.32 163.08 208.16 167.36 209.55 C 163.94 211.33 160.16 210.03 156.60 209.49 C 153.67 208.98 150.69 208.78 147.73 208.48 C 145.86 208.09 144.05 207.50 142.24 206.89 Z" />
<path fill="#69696a" opacity="1.00" d=" M 226.56 316.14 C 232.16 319.31 237.14 323.53 243.06 326.16 C 241.42 327.55 239.30 328.05 237.18 327.77 C 234.01 325.92 231.04 323.75 228.04 321.64 C 227.46 319.83 227.01 317.98 226.56 316.14 Z" />
</g>
<g id="#2d2c28ff">
<path fill="#2d2c28" opacity="1.00" d=" M 296.69 211.91 C 296.22 209.58 296.11 207.19 296.39 204.83 C 297.76 205.41 299.16 205.96 300.53 206.57 C 302.32 210.03 303.49 213.89 306.17 216.83 C 308.85 220.21 312.61 222.42 315.99 225.01 C 318.30 226.62 318.12 229.74 318.66 232.21 C 318.03 232.40 316.78 232.78 316.16 232.97 C 315.66 229.61 313.07 227.50 310.50 225.64 C 305.73 221.23 302.66 214.93 296.69 211.91 Z" />
</g>
<g id="#3e3f3dff">
<path fill="#3e3f3d" opacity="1.00" d=" M 126.77 224.30 C 125.59 218.19 126.74 212.11 127.72 206.08 C 127.77 207.43 127.88 208.77 127.98 210.12 C 130.15 210.57 132.29 211.11 134.44 211.66 C 138.96 213.14 143.58 211.12 148.17 211.15 C 148.64 211.24 149.58 211.41 150.05 211.50 C 149.28 210.49 148.50 209.49 147.73 208.48 C 150.69 208.78 153.67 208.98 156.60 209.49 C 160.16 210.03 163.94 211.33 167.36 209.55 C 168.55 209.96 169.51 210.80 170.56 211.48 C 167.08 212.07 163.91 213.68 160.75 215.19 C 160.56 214.12 160.37 213.06 160.18 212.00 C 155.22 214.10 149.94 215.26 144.65 216.16 L 144.06 215.84 C 141.52 214.06 138.49 215.69 135.79 216.10 C 132.79 216.91 129.67 216.47 126.69 215.82 C 126.70 218.64 126.66 221.47 126.77 224.30 Z" />
</g>
<g id="#82837aff">
<path fill="#82837a" opacity="1.00" d=" M 211.10 208.21 C 213.76 208.03 216.29 207.11 218.91 206.71 C 220.60 206.90 222.23 207.38 223.90 207.67 C 227.54 208.39 231.21 209.00 234.82 209.87 C 230.94 213.96 225.30 211.82 220.57 211.02 C 221.86 218.30 220.32 225.65 218.59 232.72 C 218.17 235.08 215.75 236.03 214.02 237.28 C 213.25 230.35 212.44 223.36 213.09 216.38 C 213.42 213.49 212.22 210.79 211.10 208.21 Z" />
</g>
<g id="#605a54ff">
<path fill="#605a54" opacity="1.00" d=" M 300.53 206.57 C 302.79 207.04 305.43 207.09 307.05 209.00 C 310.83 212.92 315.47 216.45 317.00 221.94 C 317.26 220.64 317.52 219.34 317.80 218.04 C 317.93 217.46 318.18 216.29 318.30 215.70 C 318.81 215.64 319.81 215.53 320.32 215.47 C 319.90 218.21 319.08 220.91 319.12 223.70 C 320.05 225.45 321.91 226.44 323.38 227.71 C 322.36 229.71 320.74 231.34 318.66 232.21 C 318.12 229.74 318.30 226.62 315.99 225.01 C 312.61 222.42 308.85 220.21 306.17 216.83 C 303.49 213.89 302.32 210.03 300.53 206.57 Z" />
</g>
<g id="#60625fff">
<path fill="#60625f" opacity="1.00" d=" M 188.00 210.28 C 195.36 207.35 203.40 208.65 211.10 208.21 C 212.22 210.79 213.42 213.49 213.09 216.38 C 212.44 223.36 213.25 230.35 214.02 237.28 C 215.75 236.03 218.17 235.08 218.59 232.72 C 220.32 225.65 221.86 218.30 220.57 211.02 C 225.30 211.82 230.94 213.96 234.82 209.87 C 231.21 209.00 227.54 208.39 223.90 207.67 C 228.04 207.76 232.28 207.43 236.29 208.71 C 240.55 210.12 245.08 210.39 249.51 209.86 C 253.10 213.45 259.42 214.13 263.57 211.16 C 267.36 211.39 270.74 213.11 273.94 215.01 C 276.33 216.56 279.21 215.38 281.73 214.84 C 280.27 216.36 278.83 217.89 277.38 219.42 C 279.31 220.62 281.23 221.86 283.12 223.14 C 277.98 222.48 273.23 219.79 267.98 219.95 C 267.92 220.43 267.79 221.39 267.72 221.87 C 272.53 225.41 278.16 227.61 283.18 230.83 C 290.95 235.43 296.66 242.56 302.98 248.85 C 301.08 248.18 299.18 247.50 297.25 246.93 C 296.44 245.35 295.99 243.45 294.60 242.27 C 292.42 240.50 289.97 242.74 287.89 243.56 C 286.65 243.46 285.41 243.35 284.17 243.25 C 281.18 239.60 278.60 234.58 273.53 233.65 C 268.37 232.62 263.18 231.67 257.96 230.93 C 258.64 229.83 259.26 228.70 259.89 227.58 C 263.10 228.12 266.84 229.27 269.34 226.42 C 267.25 224.87 265.24 223.05 262.71 222.26 C 260.43 221.79 258.12 222.44 255.91 222.95 C 257.41 221.78 258.82 220.52 260.25 219.27 C 258.38 219.00 256.51 218.75 254.65 218.48 C 253.42 216.67 252.45 214.05 249.89 213.96 C 246.02 213.11 242.36 214.90 239.29 217.06 C 239.68 217.56 240.46 218.55 240.85 219.05 C 238.09 220.54 235.36 222.11 232.66 223.73 C 234.09 221.12 235.53 218.52 236.92 215.89 C 234.26 217.45 231.17 219.01 230.11 222.14 C 228.62 226.32 227.40 230.63 226.49 234.97 C 226.01 236.85 228.19 237.45 229.54 237.92 C 228.26 244.08 227.15 250.29 225.16 256.28 C 224.99 253.43 224.87 250.58 224.87 247.74 C 224.94 245.35 224.93 242.97 224.89 240.59 C 220.54 240.71 216.17 240.62 211.88 239.82 C 211.15 236.88 211.09 233.41 208.82 231.15 C 205.94 231.23 202.82 232.67 200.18 230.88 C 198.46 230.34 196.60 228.44 194.79 229.65 C 193.39 230.87 192.45 232.50 191.39 234.00 C 190.96 234.11 190.08 234.33 189.65 234.44 C 189.73 233.70 189.89 232.23 189.98 231.49 C 190.48 227.39 192.71 223.43 191.83 219.22 C 191.32 215.97 189.74 213.02 188.00 210.28 Z" />
</g>
<g id="#807d79f6">
<path fill="#807d79" opacity="0.96" d=" M 249.51 209.86 C 254.25 209.37 258.97 210.13 263.57 211.16 C 259.42 214.13 253.10 213.45 249.51 209.86 Z" />
</g>
<g id="#5f605eff">
<path fill="#5f605e" opacity="1.00" d=" M 160.75 215.19 C 163.91 213.68 167.08 212.07 170.56 211.48 C 173.25 212.87 176.34 212.54 179.25 212.29 C 177.27 212.65 175.29 213.04 173.32 213.42 C 173.24 216.55 173.18 219.67 173.10 222.80 C 173.01 225.25 172.89 227.70 172.78 230.16 C 170.23 230.92 167.66 231.66 165.08 232.33 C 164.77 230.50 164.46 228.66 164.27 226.81 C 164.13 223.56 164.14 220.31 163.89 217.06 C 162.50 217.54 160.87 217.67 159.75 218.70 C 158.80 221.07 159.39 223.74 159.37 226.24 C 160.76 226.56 162.15 226.90 163.54 227.20 C 161.02 229.36 158.43 231.48 155.40 232.90 C 154.84 231.14 154.29 229.38 153.73 227.63 C 150.04 227.58 146.37 227.21 142.70 226.87 C 146.67 226.04 150.71 225.57 154.76 225.48 C 154.88 223.91 155.01 222.34 155.09 220.77 C 154.67 219.13 154.22 217.11 152.32 216.63 C 150.10 216.24 147.85 216.74 145.61 216.68 C 145.37 216.55 144.89 216.29 144.65 216.16 C 149.94 215.26 155.22 214.10 160.18 212.00 C 160.37 213.06 160.56 214.12 160.75 215.19 Z" />
</g>
<g id="#8d9087ff">
<path fill="#8d9087" opacity="1.00" d=" M 179.25 212.29 C 182.19 211.75 185.16 211.25 188.00 210.28 C 189.74 213.02 191.32 215.97 191.83 219.22 C 192.71 223.43 190.48 227.39 189.98 231.49 C 188.56 231.46 187.13 231.53 185.74 231.26 C 183.60 229.38 182.21 226.76 179.90 225.06 C 177.82 223.84 175.40 223.41 173.10 222.80 C 173.18 219.67 173.24 216.55 173.32 213.42 C 175.29 213.04 177.27 212.65 179.25 212.29 Z" />
</g>
<g id="#85867dff">
<path fill="#85867d" opacity="1.00" d=" M 282.74 213.81 C 287.05 212.69 291.48 212.04 295.93 211.86 C 297.83 214.79 299.15 218.04 299.86 221.46 C 302.93 223.67 307.16 225.19 308.59 228.99 C 309.26 233.25 305.81 236.66 303.71 239.99 C 302.90 239.15 302.09 238.32 301.29 237.47 C 302.75 236.29 304.40 235.26 305.45 233.67 C 305.46 231.84 305.12 230.05 304.86 228.26 C 303.75 228.55 302.64 228.84 301.53 229.14 C 300.07 224.98 296.84 221.83 295.13 217.81 C 294.37 216.17 293.54 213.85 291.28 214.21 C 288.31 216.17 286.82 219.59 284.92 222.47 C 286.85 224.11 288.74 225.79 290.68 227.41 C 292.69 234.19 298.80 238.62 302.98 244.05 C 304.00 247.87 305.77 251.49 308.81 254.12 C 307.16 254.53 305.48 254.86 303.95 255.61 C 303.40 258.13 304.62 260.65 305.15 263.10 C 304.50 263.70 303.86 264.30 303.22 264.90 C 303.02 262.86 302.82 260.82 302.64 258.79 C 302.17 259.96 301.71 261.15 301.23 262.33 C 300.52 258.73 301.47 253.38 297.21 251.79 C 293.52 249.53 289.08 249.25 285.12 250.94 C 285.46 249.67 285.80 248.41 286.14 247.15 C 289.81 246.55 293.55 246.54 297.25 246.93 C 299.18 247.50 301.08 248.18 302.98 248.85 C 296.66 242.56 290.95 235.43 283.18 230.83 C 278.16 227.61 272.53 225.41 267.72 221.87 C 267.79 221.39 267.92 220.43 267.98 219.95 C 273.23 219.79 277.98 222.48 283.12 223.14 C 281.23 221.86 279.31 220.62 277.38 219.42 C 278.83 217.89 280.27 216.36 281.73 214.84 C 281.98 214.59 282.49 214.07 282.74 213.81 Z" />
</g>
<g id="#6a6c62ff">
<path fill="#6a6c62" opacity="1.00" d=" M 295.93 211.86 L 296.69 211.91 C 302.66 214.93 305.73 221.23 310.50 225.64 C 312.60 232.29 307.90 238.47 307.05 244.96 C 305.59 243.73 304.12 242.51 302.64 241.31 C 302.73 241.99 302.89 243.36 302.98 244.05 C 298.80 238.62 292.69 234.19 290.68 227.41 C 294.64 230.30 298.05 233.82 301.29 237.47 C 302.09 238.32 302.90 239.15 303.71 239.99 C 305.81 236.66 309.26 233.25 308.59 228.99 C 307.16 225.19 302.93 223.67 299.86 221.46 C 299.15 218.04 297.83 214.79 295.93 211.86 Z" />
</g>
<g id="#616468ff">
<path fill="#616468" opacity="1.00" d=" M 135.79 216.10 C 138.49 215.69 141.52 214.06 144.06 215.84 C 141.34 216.74 138.48 217.71 136.59 220.01 C 136.07 221.67 135.65 223.37 135.24 225.07 C 137.50 225.70 139.76 226.38 142.05 226.94 C 139.95 227.33 137.85 227.70 135.73 227.95 C 135.54 228.99 135.34 230.03 135.15 231.08 C 134.06 229.86 132.96 228.65 131.76 227.53 C 132.44 226.01 133.13 224.50 133.82 222.99 C 132.50 222.68 131.19 222.37 129.87 222.07 C 129.28 223.47 128.69 224.87 128.17 226.31 C 128.70 226.46 129.77 226.75 130.30 226.90 C 129.49 228.49 128.62 230.05 127.78 231.63 C 127.41 229.19 127.05 226.75 126.77 224.30 C 126.66 221.47 126.70 218.64 126.69 215.82 C 129.67 216.47 132.79 216.91 135.79 216.10 M 132.10 218.15 C 131.57 219.78 132.12 220.34 133.75 219.83 C 134.27 218.19 133.73 217.63 132.10 218.15 Z" />
</g>
<g id="#7f7f77ff">
<path fill="#7f7f77" opacity="1.00" d=" M 239.29 217.06 C 242.36 214.90 246.02 213.11 249.89 213.96 C 252.45 214.05 253.42 216.67 254.65 218.48 C 256.51 218.75 258.38 219.00 260.25 219.27 C 258.82 220.52 257.41 221.78 255.91 222.95 C 251.06 224.85 244.80 224.66 241.88 229.71 C 243.81 229.58 245.73 229.42 247.65 229.24 C 244.31 233.55 241.60 238.29 239.32 243.24 C 238.14 245.97 235.79 247.87 234.11 250.24 C 232.90 253.20 232.33 256.38 231.20 259.37 C 231.12 258.50 230.96 256.75 230.88 255.87 C 231.92 250.16 233.33 244.53 234.66 238.89 C 232.94 238.59 231.23 238.30 229.54 237.92 C 228.19 237.45 226.01 236.85 226.49 234.97 C 227.40 230.63 228.62 226.32 230.11 222.14 C 231.17 219.01 234.26 217.45 236.92 215.89 C 235.53 218.52 234.09 221.12 232.66 223.73 C 235.36 222.11 238.09 220.54 240.85 219.05 C 240.46 218.55 239.68 217.56 239.29 217.06 M 244.59 219.71 C 239.92 221.93 235.61 225.41 233.48 230.24 C 234.87 230.88 236.27 231.52 237.67 232.15 C 240.43 227.63 244.44 224.15 248.45 220.77 C 247.22 220.30 245.98 218.98 244.59 219.71 Z" />
</g>
<g id="#93958cff">
<path fill="#93958c" opacity="1.00" d=" M 284.92 222.47 C 286.82 219.59 288.31 216.17 291.28 214.21 C 293.54 213.85 294.37 216.17 295.13 217.81 C 296.84 221.83 300.07 224.98 301.53 229.14 C 302.64 228.84 303.75 228.55 304.86 228.26 C 305.12 230.05 305.46 231.84 305.45 233.67 C 304.40 235.26 302.75 236.29 301.29 237.47 C 298.05 233.82 294.64 230.30 290.68 227.41 C 288.74 225.79 286.85 224.11 284.92 222.47 Z" />
</g>
<g id="#828587ff">
<path fill="#828587" opacity="1.00" d=" M 136.59 220.01 C 138.48 217.71 141.34 216.74 144.06 215.84 L 144.65 216.16 C 144.89 216.29 145.37 216.55 145.61 216.68 C 147.85 216.74 150.10 216.24 152.32 216.63 C 154.22 217.11 154.67 219.13 155.09 220.77 C 148.94 220.13 142.73 220.88 136.59 220.01 Z" />
</g>
<g id="#9b9a9dff">
<path fill="#9b9a9d" opacity="1.00" d=" M 159.75 218.70 C 160.87 217.67 162.50 217.54 163.89 217.06 C 164.14 220.31 164.13 223.56 164.27 226.81 L 163.54 227.20 C 162.15 226.90 160.76 226.56 159.37 226.24 C 159.39 223.74 158.80 221.07 159.75 218.70 Z" />
</g>
<g id="#979a9bff">
<path fill="#979a9b" opacity="1.00" d=" M 132.10 218.15 C 133.73 217.63 134.27 218.19 133.75 219.83 C 132.12 220.34 131.57 219.78 132.10 218.15 Z" />
</g>
<g id="#65625eff">
<path fill="#65625e" opacity="1.00" d=" M 325.32 218.26 C 325.96 218.17 327.24 217.99 327.88 217.90 C 329.05 219.90 329.19 222.25 329.57 224.49 C 327.58 225.25 325.60 226.04 323.64 226.86 C 324.35 224.03 324.82 221.14 325.32 218.26 Z" />
</g>
<g id="#4a4c4bff">
<path fill="#4a4c4b" opacity="1.00" d=" M 244.59 219.71 C 245.98 218.98 247.22 220.30 248.45 220.77 C 244.44 224.15 240.43 227.63 237.67 232.15 C 236.27 231.52 234.87 230.88 233.48 230.24 C 235.61 225.41 239.92 221.93 244.59 219.71 Z" />
</g>
<g id="#98989cff">
<path fill="#98989c" opacity="1.00" d=" M 136.59 220.01 C 142.73 220.88 148.94 220.13 155.09 220.77 C 155.01 222.34 154.88 223.91 154.76 225.48 C 150.71 225.57 146.67 226.04 142.70 226.87 L 142.05 226.94 C 139.76 226.38 137.50 225.70 135.24 225.07 C 135.65 223.37 136.07 221.67 136.59 220.01 Z" />
<path fill="#98989c" opacity="1.00" d=" M 247.85 263.52 C 248.23 264.12 248.61 264.73 248.99 265.34 C 246.46 270.33 249.35 275.36 250.83 280.15 C 248.46 277.62 246.76 274.57 244.60 271.87 C 245.14 268.90 245.71 265.81 247.85 263.52 Z" />
</g>
<g id="#89898cff">
<path fill="#89898c" opacity="1.00" d=" M 129.87 222.07 C 131.19 222.37 132.50 222.68 133.82 222.99 C 133.13 224.50 132.44 226.01 131.76 227.53 C 131.39 227.37 130.66 227.06 130.30 226.90 C 129.77 226.75 128.70 226.46 128.17 226.31 C 128.69 224.87 129.28 223.47 129.87 222.07 Z" />
<path fill="#89898c" opacity="1.00" d=" M 222.94 308.55 C 222.54 307.75 222.79 307.16 223.71 306.78 C 224.94 307.25 226.11 307.87 227.27 308.51 C 229.52 312.87 232.62 316.87 237.01 319.24 C 239.83 320.95 242.77 322.46 245.64 324.10 C 244.78 324.78 243.92 325.47 243.06 326.16 C 237.14 323.53 232.16 319.31 226.56 316.14 C 227.01 317.98 227.46 319.83 228.04 321.64 L 227.35 321.15 C 226.28 319.61 225.28 318.04 224.28 316.46 C 225.08 315.56 225.89 314.67 226.70 313.78 C 225.36 312.10 223.81 310.53 222.94 308.55 Z" />
</g>
<g id="#5c5c59ff">
<path fill="#5c5c59" opacity="1.00" d=" M 255.91 222.95 C 258.12 222.44 260.43 221.79 262.71 222.26 C 265.24 223.05 267.25 224.87 269.34 226.42 C 266.84 229.27 263.10 228.12 259.89 227.58 C 259.26 228.70 258.64 229.83 257.96 230.93 C 257.73 231.27 257.27 231.93 257.04 232.27 C 263.40 233.65 269.89 235.20 275.32 238.97 C 275.23 239.54 275.06 240.69 274.97 241.27 C 267.60 240.47 260.47 242.79 253.91 245.96 C 258.49 241.57 264.64 239.50 270.93 239.52 C 265.21 235.43 258.35 233.68 251.39 233.53 C 250.83 234.00 250.27 234.47 249.72 234.95 C 250.36 235.17 251.65 235.61 252.30 235.82 C 251.63 238.51 250.92 241.22 249.60 243.68 C 246.31 249.72 242.75 255.76 237.59 260.42 C 238.61 265.45 240.09 270.48 243.26 274.61 C 243.30 273.26 243.32 271.91 243.33 270.57 C 243.65 270.89 244.29 271.54 244.60 271.87 C 246.76 274.57 248.46 277.62 250.83 280.15 C 249.35 275.36 246.46 270.33 248.99 265.34 C 248.61 264.73 248.23 264.12 247.85 263.52 C 249.78 255.17 257.08 249.56 264.79 246.77 C 264.86 248.07 264.92 249.37 264.99 250.68 C 262.25 251.92 258.95 252.61 257.03 255.09 C 252.35 262.99 251.82 273.81 257.73 281.21 C 261.66 283.80 266.66 283.04 271.07 282.45 C 274.79 282.04 278.53 281.68 282.22 281.00 C 284.09 283.62 285.43 286.56 286.32 289.65 C 284.21 289.50 282.10 289.33 279.99 289.16 C 280.24 289.62 280.72 290.53 280.97 290.98 C 279.88 290.55 278.80 290.12 277.73 289.67 C 277.63 288.88 277.43 287.30 277.33 286.51 C 275.95 286.57 274.57 286.64 273.20 286.68 C 272.09 286.68 270.98 286.65 269.87 286.62 C 269.70 287.97 269.52 289.32 269.35 290.67 C 267.75 290.85 266.15 291.05 264.55 291.16 C 259.81 290.03 256.88 285.90 253.62 282.64 C 253.93 283.66 254.25 284.69 254.56 285.71 C 254.22 286.04 253.53 286.69 253.18 287.01 C 250.02 285.30 246.60 283.65 244.60 280.51 C 240.80 274.63 237.03 268.71 233.48 262.67 C 232.70 264.64 231.85 266.88 233.18 268.84 C 235.91 273.90 237.88 279.77 242.65 283.34 C 246.99 286.72 251.78 289.65 257.13 291.14 C 258.10 292.51 259.08 293.88 260.08 295.24 C 258.57 295.94 257.10 296.74 255.63 297.53 C 259.10 302.34 265.45 302.93 270.88 302.22 C 270.46 301.29 270.04 300.37 269.61 299.45 C 268.09 299.49 266.58 299.53 265.06 299.58 C 265.44 298.92 265.82 298.27 266.20 297.63 C 270.36 297.56 274.52 297.43 278.68 297.30 C 279.10 297.66 279.96 298.38 280.38 298.74 C 277.62 300.09 274.72 301.63 273.63 304.72 C 276.41 306.35 279.19 307.99 282.00 309.58 C 277.91 310.02 272.90 308.06 269.92 311.86 C 266.96 311.60 264.04 310.97 261.16 310.27 C 261.38 310.71 261.83 311.57 262.05 312.00 C 261.81 313.04 261.58 314.08 261.35 315.12 C 259.79 313.95 258.25 312.74 256.58 311.73 C 255.82 311.37 255.06 311.03 254.30 310.70 C 255.08 312.53 255.90 314.35 256.73 316.17 C 256.02 316.31 255.30 316.46 254.60 316.61 C 253.32 315.46 252.05 314.30 250.79 313.15 C 249.56 314.45 248.69 316.89 246.49 316.50 C 243.01 316.32 240.51 313.59 237.83 311.70 C 241.27 310.24 246.14 308.74 246.34 304.24 C 243.75 300.97 239.99 298.93 237.15 295.91 C 235.09 293.76 233.58 291.17 232.15 288.58 C 236.69 291.78 239.69 296.72 244.54 299.52 C 250.47 303.08 256.83 306.37 263.77 307.30 C 265.64 307.70 267.00 306.11 268.41 305.18 C 260.36 304.97 253.26 300.60 246.84 296.16 C 243.25 293.74 240.84 290.10 238.16 286.80 C 235.36 283.33 231.50 280.81 229.05 277.04 C 227.50 274.68 226.24 272.14 224.83 269.69 C 225.05 269.32 225.49 268.58 225.71 268.20 C 224.02 267.98 222.34 267.77 220.66 267.56 C 221.44 266.66 222.25 265.78 223.07 264.91 C 223.79 264.92 224.51 264.93 225.24 264.95 C 227.45 262.15 229.55 259.21 230.88 255.87 C 230.96 256.75 231.12 258.50 231.20 259.37 C 232.33 256.38 232.90 253.20 234.11 250.24 C 235.79 247.87 238.14 245.97 239.32 243.24 C 241.60 238.29 244.31 233.55 247.65 229.24 C 245.73 229.42 243.81 229.58 241.88 229.71 C 244.80 224.66 251.06 224.85 255.91 222.95 Z" />
</g>
<g id="#7c7d75ff">
<path fill="#7c7d75" opacity="1.00" d=" M 173.10 222.80 C 175.40 223.41 177.82 223.84 179.90 225.06 C 182.21 226.76 183.60 229.38 185.74 231.26 C 187.13 231.53 188.56 231.46 189.98 231.49 C 189.89 232.23 189.73 233.70 189.65 234.44 L 189.58 235.47 C 185.05 234.48 180.46 233.79 175.86 233.24 C 174.84 232.20 173.81 231.18 172.78 230.16 C 172.89 227.70 173.01 225.25 173.10 222.80 Z" />
</g>
<g id="#d7a486ff">
<path fill="#d7a486" opacity="1.00" d=" M 323.64 226.86 C 325.60 226.04 327.58 225.25 329.57 224.49 C 331.83 231.00 334.88 237.21 337.46 243.61 C 340.46 250.45 342.95 257.52 346.52 264.10 C 345.33 265.54 344.27 267.18 342.69 268.23 C 340.13 268.62 337.53 268.24 334.97 268.11 C 333.91 264.92 331.80 262.27 330.06 259.45 C 327.68 255.65 325.94 251.51 323.85 247.55 C 322.63 247.09 321.40 246.64 320.19 246.14 C 317.16 243.34 314.91 239.84 312.44 236.57 C 312.84 235.59 313.25 234.61 313.66 233.64 C 314.29 233.47 315.53 233.13 316.16 232.97 C 316.78 232.78 318.03 232.40 318.66 232.21 C 320.74 231.34 322.36 229.71 323.38 227.71 L 323.64 226.86 Z" />
</g>
<g id="#56554fff">
<path fill="#56554f" opacity="1.00" d=" M 310.50 225.64 C 313.07 227.50 315.66 229.61 316.16 232.97 C 315.53 233.13 314.29 233.47 313.66 233.64 C 313.25 234.61 312.84 235.59 312.44 236.57 C 310.83 239.65 310.16 243.11 311.22 246.49 C 313.84 247.10 316.46 247.75 319.07 248.39 C 318.94 248.63 318.68 249.11 318.55 249.35 C 317.03 249.05 315.54 248.65 314.04 248.33 C 310.70 248.43 309.58 251.39 308.81 254.12 C 305.77 251.49 304.00 247.87 302.98 244.05 C 302.89 243.36 302.73 241.99 302.64 241.31 C 304.12 242.51 305.59 243.73 307.05 244.96 C 307.90 238.47 312.60 232.29 310.50 225.64 Z" />
</g>
<g id="#3f3f3fff">
<path fill="#3f3f3f" opacity="1.00" d=" M 130.30 226.90 C 130.66 227.06 131.39 227.37 131.76 227.53 C 132.96 228.65 134.06 229.86 135.15 231.08 C 135.34 230.03 135.54 228.99 135.73 227.95 C 137.85 227.70 139.95 227.33 142.05 226.94 L 142.70 226.87 C 146.37 227.21 150.04 227.58 153.73 227.63 C 154.29 229.38 154.84 231.14 155.40 232.90 C 158.43 231.48 161.02 229.36 163.54 227.20 L 164.27 226.81 C 164.46 228.66 164.77 230.50 165.08 232.33 C 167.66 231.66 170.23 230.92 172.78 230.16 C 173.81 231.18 174.84 232.20 175.86 233.24 C 168.36 234.73 160.85 233.04 153.31 233.38 C 149.14 233.38 145.00 232.87 140.84 232.80 C 139.19 232.88 137.55 233.07 135.91 233.28 C 133.28 233.25 130.66 233.36 128.03 233.32 C 127.97 232.90 127.84 232.05 127.78 231.63 C 128.62 230.05 129.49 228.49 130.30 226.90 Z" />
</g>
<g id="#494948ff">
<path fill="#494948" opacity="1.00" d=" M 194.79 229.65 C 196.60 228.44 198.46 230.34 200.18 230.88 C 202.82 232.67 205.94 231.23 208.82 231.15 C 211.09 233.41 211.15 236.88 211.88 239.82 C 205.60 239.40 199.33 238.66 193.26 236.97 C 192.02 236.50 190.80 235.98 189.58 235.47 L 189.65 234.44 C 190.08 234.33 190.96 234.11 191.39 234.00 C 192.45 232.50 193.39 230.87 194.79 229.65 Z" />
</g>
<g id="#9b978fff">
<path fill="#9b978f" opacity="1.00" d=" M 257.04 232.27 C 257.27 231.93 257.73 231.27 257.96 230.93 C 263.18 231.67 268.37 232.62 273.53 233.65 C 278.60 234.58 281.18 239.60 284.17 243.25 C 283.74 243.21 282.88 243.13 282.45 243.10 C 279.99 241.86 277.65 240.42 275.32 238.97 C 269.89 235.20 263.40 233.65 257.04 232.27 Z" />
</g>
<g id="#020202bd">
<path fill="#020202" opacity="0.74" d=" M 140.84 232.80 C 145.00 232.87 149.14 233.38 153.31 233.38 C 160.85 233.04 168.36 234.73 175.86 233.24 C 180.46 233.79 185.05 234.48 189.58 235.47 C 190.80 235.98 192.02 236.50 193.26 236.97 C 190.85 236.51 188.44 236.06 186.01 235.80 C 182.14 235.31 178.35 237.03 174.49 236.35 C 163.89 234.66 153.13 235.75 142.46 235.75 C 141.92 234.76 141.38 233.78 140.84 232.80 Z" />
</g>
<g id="#434442ff">
<path fill="#434442" opacity="1.00" d=" M 251.39 233.53 C 258.35 233.68 265.21 235.43 270.93 239.52 C 264.64 239.50 258.49 241.57 253.91 245.96 C 248.40 249.69 249.22 257.18 245.76 262.31 C 245.12 260.30 244.50 258.29 243.85 256.29 C 242.78 260.97 242.53 265.82 243.33 270.57 C 243.32 271.91 243.30 273.26 243.26 274.61 C 240.09 270.48 238.61 265.45 237.59 260.42 C 242.75 255.76 246.31 249.72 249.60 243.68 C 250.92 241.22 251.63 238.51 252.30 235.82 C 251.65 235.61 250.36 235.17 249.72 234.95 C 250.27 234.47 250.83 234.00 251.39 233.53 Z" />
</g>
<g id="#434543ff">
<path fill="#434543" opacity="1.00" d=" M 229.54 237.92 C 231.23 238.30 232.94 238.59 234.66 238.89 C 233.33 244.53 231.92 250.16 230.88 255.87 C 229.55 259.21 227.45 262.15 225.24 264.95 C 224.51 264.93 223.79 264.92 223.07 264.91 C 223.95 259.21 224.43 253.47 224.87 247.74 C 224.87 250.58 224.99 253.43 225.16 256.28 C 227.15 250.29 228.26 244.08 229.54 237.92 Z" />
</g>
<g id="#020101c6">
<path fill="#020101" opacity="0.78" d=" M 311.22 246.49 C 310.16 243.11 310.83 239.65 312.44 236.57 C 314.91 239.84 317.16 243.34 320.19 246.14 C 319.91 246.71 319.35 247.83 319.07 248.39 C 316.46 247.75 313.84 247.10 311.22 246.49 Z" />
</g>
<g id="#73746fff">
<path fill="#73746f" opacity="1.00" d=" M 275.32 238.97 C 277.65 240.42 279.99 241.86 282.45 243.10 C 278.71 243.64 274.93 244.17 271.33 245.35 C 268.63 246.18 267.58 249.10 266.16 251.26 C 262.72 252.78 258.87 254.77 257.76 258.68 C 256.14 264.83 255.86 272.41 260.68 277.27 C 263.77 281.50 269.56 279.77 274.02 280.11 C 273.04 280.89 272.06 281.69 271.07 282.45 C 266.66 283.04 261.66 283.80 257.73 281.21 C 251.82 273.81 252.35 262.99 257.03 255.09 C 258.95 252.61 262.25 251.92 264.99 250.68 C 264.92 249.37 264.86 248.07 264.79 246.77 C 257.08 249.56 249.78 255.17 247.85 263.52 C 245.71 265.81 245.14 268.90 244.60 271.87 C 244.29 271.54 243.65 270.89 243.33 270.57 C 242.53 265.82 242.78 260.97 243.85 256.29 C 244.50 258.29 245.12 260.30 245.76 262.31 C 249.22 257.18 248.40 249.69 253.91 245.96 C 260.47 242.79 267.60 240.47 274.97 241.27 C 275.06 240.69 275.23 239.54 275.32 238.97 Z" />
</g>
<g id="#535554ff">
<path fill="#535554" opacity="1.00" d=" M 287.89 243.56 C 289.97 242.74 292.42 240.50 294.60 242.27 C 295.99 243.45 296.44 245.35 297.25 246.93 C 293.55 246.54 289.81 246.55 286.14 247.15 C 280.33 248.43 274.14 247.76 268.64 250.34 C 268.02 250.57 266.78 251.03 266.16 251.26 C 267.58 249.10 268.63 246.18 271.33 245.35 C 274.93 244.17 278.71 243.64 282.45 243.10 C 282.88 243.13 283.74 243.21 284.17 243.25 C 285.41 243.35 286.65 243.46 287.89 243.56 Z" />
</g>
<g id="#6b6f85ff">
<path fill="#6b6f85" opacity="1.00" d=" M 320.19 246.14 C 321.40 246.64 322.63 247.09 323.85 247.55 C 323.77 249.59 323.57 251.64 323.83 253.68 C 324.28 255.80 325.87 257.49 326.38 259.60 C 326.49 261.35 326.21 263.11 326.06 264.86 C 324.61 264.44 323.16 264.03 321.72 263.60 C 321.45 265.38 321.19 267.15 320.93 268.93 C 320.82 269.67 320.60 271.16 320.49 271.90 C 319.43 271.71 318.37 271.53 317.32 271.35 C 318.07 269.35 318.82 267.36 319.57 265.37 C 318.90 265.46 317.54 265.65 316.86 265.74 C 316.92 265.31 317.04 264.43 317.10 264.00 C 317.85 263.10 318.62 262.22 319.41 261.36 C 317.13 258.73 314.65 256.29 312.04 253.99 C 312.71 252.11 313.38 250.22 314.04 248.33 C 315.54 248.65 317.03 249.05 318.55 249.35 C 318.68 249.11 318.94 248.63 319.07 248.39 C 319.35 247.83 319.91 246.71 320.19 246.14 M 321.16 248.08 C 319.85 248.77 319.84 249.45 321.15 250.12 C 322.46 249.43 322.46 248.75 321.16 248.08 M 322.30 251.19 C 322.86 251.74 322.86 251.74 322.30 251.19 M 320.19 262.28 C 320.74 262.82 320.74 262.82 320.19 262.28 Z" />
</g>
<g id="#6c6e6dff">
<path fill="#6c6e6d" opacity="1.00" d=" M 268.64 250.34 C 274.14 247.76 280.33 248.43 286.14 247.15 C 285.80 248.41 285.46 249.67 285.12 250.94 C 282.62 251.64 280.05 252.00 277.48 252.25 C 274.51 251.68 271.59 250.91 268.64 250.34 Z" />
</g>
<g id="#64656cff">
<path fill="#64656c" opacity="1.00" d=" M 308.81 254.12 C 309.58 251.39 310.70 248.43 314.04 248.33 C 313.38 250.22 312.71 252.11 312.04 253.99 C 314.65 256.29 317.13 258.73 319.41 261.36 C 318.62 262.22 317.85 263.10 317.10 264.00 C 315.49 265.48 314.51 267.80 316.35 269.57 C 316.48 268.61 316.73 266.70 316.86 265.74 C 317.54 265.65 318.90 265.46 319.57 265.37 C 318.82 267.36 318.07 269.35 317.32 271.35 C 318.37 271.53 319.43 271.71 320.49 271.90 C 320.60 271.16 320.82 269.67 320.93 268.93 C 322.84 269.86 324.76 270.77 326.69 271.66 C 327.01 278.03 321.31 283.35 322.60 289.71 C 322.01 293.13 321.32 296.65 319.68 299.74 C 317.78 302.27 314.10 301.37 311.69 300.13 C 312.79 298.68 313.92 297.26 314.98 295.79 C 316.84 292.91 318.01 289.67 319.16 286.47 C 316.22 286.57 313.28 286.67 310.35 286.74 C 309.87 285.50 309.42 284.27 308.90 283.06 C 307.69 280.45 305.47 278.56 303.78 276.31 C 303.71 272.79 305.28 269.48 306.06 266.09 C 307.32 265.46 308.59 264.83 309.87 264.20 C 308.29 263.83 306.72 263.46 305.15 263.10 C 304.62 260.65 303.40 258.13 303.95 255.61 C 305.48 254.86 307.16 254.53 308.81 254.12 M 320.46 281.07 C 319.46 282.37 321.74 283.92 322.67 282.63 C 323.69 281.30 321.40 279.79 320.46 281.07 Z" />
</g>
<g id="#b8bbc1ff">
<path fill="#b8bbc1" opacity="1.00" d=" M 321.16 248.08 C 322.46 248.75 322.46 249.43 321.15 250.12 C 319.84 249.45 319.85 248.77 321.16 248.08 Z" />
</g>
<g id="#464f33ff">
<path fill="#464f33" opacity="1.00" d=" M 323.83 253.68 C 323.57 251.64 323.77 249.59 323.85 247.55 C 325.94 251.51 327.68 255.65 330.06 259.45 C 329.30 261.03 328.56 262.62 327.80 264.20 C 326.16 265.32 324.52 266.46 322.91 267.62 C 325.01 269.14 327.16 270.60 329.25 272.15 C 329.86 276.92 325.48 280.21 325.56 284.84 C 325.48 285.98 325.42 287.13 325.38 288.29 C 324.96 288.55 324.13 289.09 323.71 289.35 L 322.60 289.71 C 321.31 283.35 327.01 278.03 326.69 271.66 C 324.76 270.77 322.84 269.86 320.93 268.93 C 321.19 267.15 321.45 265.38 321.72 263.60 C 323.16 264.03 324.61 264.44 326.06 264.86 C 326.21 263.11 326.49 261.35 326.38 259.60 C 325.87 257.49 324.28 255.80 323.83 253.68 Z" />
</g>
<g id="#98968fff">
<path fill="#98968f" opacity="1.00" d=" M 285.12 250.94 C 289.08 249.25 293.52 249.53 297.21 251.79 C 301.47 253.38 300.52 258.73 301.23 262.33 C 300.66 264.05 299.82 265.97 297.65 265.13 C 296.00 265.00 294.33 264.97 292.72 265.39 L 292.23 265.50 C 287.68 262.93 282.34 263.23 277.36 263.90 C 277.27 265.68 277.18 267.47 277.08 269.26 C 280.09 268.96 283.09 268.59 286.07 268.10 C 286.84 268.77 287.60 269.45 288.35 270.15 C 287.84 272.02 287.91 274.78 285.49 275.21 C 279.89 276.46 273.99 275.94 268.35 275.15 C 264.95 274.33 259.97 273.34 259.75 269.00 C 259.39 266.08 258.94 262.59 260.95 260.14 C 262.89 259.15 265.03 258.67 267.11 258.07 C 267.64 256.90 268.17 255.73 268.70 254.57 C 271.60 253.70 274.50 252.80 277.48 252.25 C 280.05 252.00 282.62 251.64 285.12 250.94 M 296.29 263.33 C 296.82 263.87 296.82 263.87 296.29 263.33 Z" />
</g>
<g id="#88867fff">
<path fill="#88867f" opacity="1.00" d=" M 266.16 251.26 C 266.78 251.03 268.02 250.57 268.64 250.34 C 271.59 250.91 274.51 251.68 277.48 252.25 C 274.50 252.80 271.60 253.70 268.70 254.57 C 268.17 255.73 267.64 256.90 267.11 258.07 C 265.03 258.67 262.89 259.15 260.95 260.14 C 258.94 262.59 259.39 266.08 259.75 269.00 C 259.97 273.34 264.95 274.33 268.35 275.15 C 273.99 275.94 279.89 276.46 285.49 275.21 C 287.91 274.78 287.84 272.02 288.35 270.15 C 288.03 268.98 287.71 267.83 287.37 266.68 C 285.98 266.16 284.59 265.64 283.21 265.12 C 282.96 265.42 282.46 266.02 282.21 266.31 C 283.50 266.89 284.80 267.45 286.07 268.10 C 283.09 268.59 280.09 268.96 277.08 269.26 C 277.18 267.47 277.27 265.68 277.36 263.90 C 282.34 263.23 287.68 262.93 292.23 265.50 C 292.77 266.82 293.92 268.99 295.66 267.89 C 296.71 266.26 293.76 265.74 292.72 265.39 C 294.33 264.97 296.00 265.00 297.65 265.13 C 298.33 266.05 299.01 266.97 299.69 267.90 C 299.05 268.00 297.76 268.22 297.12 268.32 C 298.24 268.67 299.36 269.02 300.49 269.37 C 300.83 273.17 301.64 276.98 301.38 280.81 C 297.47 282.87 292.82 283.09 288.48 283.38 C 286.52 283.73 285.51 281.83 284.35 280.65 C 283.64 280.76 282.92 280.88 282.22 281.00 C 278.53 281.68 274.79 282.04 271.07 282.45 C 272.06 281.69 273.04 280.89 274.02 280.11 C 269.56 279.77 263.77 281.50 260.68 277.27 C 255.86 272.41 256.14 264.83 257.76 258.68 C 258.87 254.77 262.72 252.78 266.16 251.26 M 289.32 267.19 C 289.87 267.73 289.87 267.73 289.32 267.19 Z" />
</g>
<g id="#f8f5fdff">
<path fill="#f8f5fd" opacity="1.00" d=" M 322.30 251.19 C 322.86 251.74 322.86 251.74 322.30 251.19 Z" />
</g>
<g id="#73716bff">
<path fill="#73716b" opacity="1.00" d=" M 301.23 262.33 C 301.71 261.15 302.17 259.96 302.64 258.79 C 302.82 260.82 303.02 262.86 303.22 264.90 C 303.86 264.30 304.50 263.70 305.15 263.10 C 306.72 263.46 308.29 263.83 309.87 264.20 C 308.59 264.83 307.32 265.46 306.06 266.09 C 305.28 269.48 303.71 272.79 303.78 276.31 C 305.47 278.56 307.69 280.45 308.90 283.06 C 306.65 285.08 304.47 287.53 301.40 288.28 C 298.07 289.04 294.62 288.98 291.22 289.08 C 292.75 290.98 294.22 292.94 295.43 295.07 C 295.39 295.57 295.31 296.58 295.28 297.09 C 290.32 298.18 285.12 297.83 280.70 295.18 C 282.15 294.32 283.61 293.48 285.06 292.64 C 283.70 292.07 282.34 291.51 280.97 290.98 C 280.72 290.53 280.24 289.62 279.99 289.16 C 282.10 289.33 284.21 289.50 286.32 289.65 C 285.43 286.56 284.09 283.62 282.22 281.00 C 282.92 280.88 283.64 280.76 284.35 280.65 C 285.51 281.83 286.52 283.73 288.48 283.38 C 292.82 283.09 297.47 282.87 301.38 280.81 C 301.64 276.98 300.83 273.17 300.49 269.37 C 299.36 269.02 298.24 268.67 297.12 268.32 C 297.76 268.22 299.05 268.00 299.69 267.90 C 299.01 266.97 298.33 266.05 297.65 265.13 C 299.82 265.97 300.66 264.05 301.23 262.33 Z" />
</g>
<g id="#00000015">
</g>
<g id="#ebeef1ff">
<path fill="#ebeef1" opacity="1.00" d=" M 320.19 262.28 C 320.74 262.82 320.74 262.82 320.19 262.28 Z" />
</g>
<g id="#7e7c75ff">
<path fill="#7e7c75" opacity="1.00" d=" M 233.18 268.84 C 231.85 266.88 232.70 264.64 233.48 262.67 C 237.03 268.71 240.80 274.63 244.60 280.51 C 246.60 283.65 250.02 285.30 253.18 287.01 C 254.81 288.05 256.04 289.56 257.13 291.14 C 251.78 289.65 246.99 286.72 242.65 283.34 C 237.88 279.77 235.91 273.90 233.18 268.84 Z" />
</g>
<g id="#ffffffff">
<path fill="#ffffff" opacity="1.00" d=" M 296.29 263.33 C 296.82 263.87 296.82 263.87 296.29 263.33 Z" />
<path fill="#ffffff" opacity="1.00" d=" M 289.32 267.19 C 289.87 267.73 289.87 267.73 289.32 267.19 Z" />
</g>
<g id="#9b9ca0ff">
<path fill="#9b9ca0" opacity="1.00" d=" M 316.35 269.57 C 314.51 267.80 315.49 265.48 317.10 264.00 C 317.04 264.43 316.92 265.31 316.86 265.74 C 316.73 266.70 316.48 268.61 316.35 269.57 Z" />
</g>
<g id="#010101c7">
<path fill="#010101" opacity="0.78" d=" M 322.91 267.62 C 324.52 266.46 326.16 265.32 327.80 264.20 C 333.06 269.10 336.34 276.32 335.58 283.55 C 334.02 285.80 331.26 286.76 328.88 287.91 C 327.18 288.47 325.43 288.88 323.71 289.35 C 324.13 289.09 324.96 288.55 325.38 288.29 C 331.14 285.41 334.36 277.11 329.25 272.15 C 327.16 270.60 325.01 269.14 322.91 267.62 Z" />
</g>
<g id="#5b5b59ff">
<path fill="#5b5b59" opacity="1.00" d=" M 346.52 264.10 C 348.15 267.46 351.02 269.85 353.63 272.42 C 352.89 272.14 352.16 271.87 351.42 271.60 C 349.94 273.86 348.03 275.83 345.45 276.78 C 342.73 277.59 343.59 281.05 343.03 283.17 C 344.63 282.91 346.27 282.75 347.83 282.26 C 348.39 280.80 348.69 279.25 349.06 277.73 C 351.16 279.91 353.34 282.02 355.57 284.08 C 355.83 281.97 356.11 279.87 356.30 277.76 C 356.49 278.33 356.87 279.45 357.06 280.01 C 358.58 285.54 356.13 290.88 352.85 295.21 C 350.47 296.41 348.40 299.28 345.46 298.58 C 341.66 297.48 339.84 293.57 338.43 290.22 C 339.41 286.82 340.12 283.31 339.65 279.76 C 339.87 278.21 338.76 276.99 337.50 276.33 C 336.40 273.67 335.61 270.90 334.97 268.11 C 337.53 268.24 340.13 268.62 342.69 268.23 C 344.27 267.18 345.33 265.54 346.52 264.10 Z" />
</g>
<g id="#dddfe4ff">
<path fill="#dddfe4" opacity="1.00" d=" M 283.21 265.12 C 284.59 265.64 285.98 266.16 287.37 266.68 C 287.71 267.83 288.03 268.98 288.35 270.15 C 287.60 269.45 286.84 268.77 286.07 268.10 C 284.80 267.45 283.50 266.89 282.21 266.31 C 282.46 266.02 282.96 265.42 283.21 265.12 Z" />
</g>
<g id="#ccd0d4ff">
<path fill="#ccd0d4" opacity="1.00" d=" M 292.23 265.50 L 292.72 265.39 C 293.76 265.74 296.71 266.26 295.66 267.89 C 293.92 268.99 292.77 266.82 292.23 265.50 Z" />
</g>
<g id="#9c9ea3ff">
<path fill="#9c9ea3" opacity="1.00" d=" M 217.43 277.29 C 218.00 273.94 218.05 270.09 220.66 267.56 C 222.34 267.77 224.02 267.98 225.71 268.20 C 225.49 268.58 225.05 269.32 224.83 269.69 C 223.59 272.10 222.79 274.70 222.37 277.38 C 220.72 277.44 219.07 277.35 217.43 277.29 Z" />
</g>
<g id="#7b7c74ff">
<path fill="#7b7c74" opacity="1.00" d=" M 222.37 277.38 C 222.79 274.70 223.59 272.10 224.83 269.69 C 226.24 272.14 227.50 274.68 229.05 277.04 C 231.50 280.81 235.36 283.33 238.16 286.80 C 240.84 290.10 243.25 293.74 246.84 296.16 C 253.26 300.60 260.36 304.97 268.41 305.18 C 267.00 306.11 265.64 307.70 263.77 307.30 C 256.83 306.37 250.47 303.08 244.54 299.52 C 239.69 296.72 236.69 291.78 232.15 288.58 C 233.58 291.17 235.09 293.76 237.15 295.91 C 239.99 298.93 243.75 300.97 246.34 304.24 C 246.14 308.74 241.27 310.24 237.83 311.70 C 231.45 307.43 224.48 303.88 217.11 301.67 C 216.97 299.36 216.51 296.92 217.26 294.68 C 218.69 292.66 220.96 291.46 222.90 289.99 C 224.41 290.58 225.93 291.17 227.45 291.75 C 227.71 290.43 227.99 289.11 228.26 287.79 C 229.16 287.67 230.07 287.56 230.98 287.44 C 228.87 284.01 226.84 280.52 224.94 276.96 C 224.09 277.11 223.23 277.25 222.37 277.38 Z" />
</g>
<g id="#6f6f6eff">
<path fill="#6f6f6e" opacity="1.00" d=" M 351.42 271.60 C 352.16 271.87 352.89 272.14 353.63 272.42 C 354.63 274.14 355.57 275.90 356.30 277.76 C 356.11 279.87 355.83 281.97 355.57 284.08 C 353.34 282.02 351.16 279.91 349.06 277.73 C 348.69 279.25 348.39 280.80 347.83 282.26 C 346.27 282.75 344.63 282.91 343.03 283.17 C 343.59 281.05 342.73 277.59 345.45 276.78 C 348.03 275.83 349.94 273.86 351.42 271.60 Z" />
</g>
<g id="#202126fd">
<path fill="#202126" opacity="1.00" d=" M 329.25 272.15 C 334.36 277.11 331.14 285.41 325.38 288.29 C 325.42 287.13 325.48 285.98 325.56 284.84 C 325.48 280.21 329.86 276.92 329.25 272.15 Z" />
</g>
<g id="#565756ff">
<path fill="#565756" opacity="1.00" d=" M 222.37 277.38 C 223.23 277.25 224.09 277.11 224.94 276.96 C 226.84 280.52 228.87 284.01 230.98 287.44 C 230.07 287.56 229.16 287.67 228.26 287.79 C 227.99 289.11 227.71 290.43 227.45 291.75 C 225.93 291.17 224.41 290.58 222.90 289.99 C 220.96 291.46 218.69 292.66 217.26 294.68 C 216.51 296.92 216.97 299.36 217.11 301.67 L 217.26 302.61 C 215.12 301.19 212.71 300.25 210.27 299.46 C 212.44 303.27 214.84 307.46 219.37 308.74 C 219.38 307.97 219.42 306.44 219.43 305.67 C 220.86 306.02 222.30 306.35 223.71 306.78 C 222.79 307.16 222.54 307.75 222.94 308.55 C 223.81 310.53 225.36 312.10 226.70 313.78 C 225.89 314.67 225.08 315.56 224.28 316.46 C 225.28 318.04 226.28 319.61 227.35 321.15 C 223.66 320.57 220.27 318.98 217.52 316.47 C 215.45 318.45 213.43 320.80 210.54 321.53 C 207.69 322.30 204.71 322.30 201.79 322.20 C 198.66 321.07 195.37 320.21 192.16 321.64 C 194.48 316.20 189.69 311.21 190.19 305.69 C 190.86 302.99 191.37 300.26 191.81 297.52 C 190.04 298.09 188.26 298.68 186.51 299.34 L 185.68 299.66 C 186.81 298.35 187.85 296.95 189.16 295.82 C 192.34 295.44 195.60 296.08 198.73 295.23 C 202.78 294.51 205.81 291.67 209.15 289.51 C 212.99 287.24 217.02 285.11 220.22 281.93 C 219.59 280.78 218.84 279.72 218.13 278.63 C 217.95 278.29 217.60 277.62 217.43 277.29 C 219.07 277.35 220.72 277.44 222.37 277.38 M 198.28 301.32 C 197.00 304.57 197.96 308.05 199.22 311.14 C 199.91 307.85 200.05 304.12 202.58 301.61 C 204.48 299.60 206.40 297.51 206.97 294.70 C 203.38 295.65 199.63 297.62 198.28 301.32 Z" />
</g>
<g id="#1e1e1dcd">
<path fill="#1e1e1d" opacity="0.80" d=" M 337.50 276.33 C 338.76 276.99 339.87 278.21 339.65 279.76 C 337.89 279.70 337.46 277.73 337.50 276.33 Z" />
</g>
<g id="#8f9195ff">
<path fill="#8f9195" opacity="1.00" d=" M 206.17 285.39 C 208.81 281.22 214.11 280.86 218.13 278.63 C 218.84 279.72 219.59 280.78 220.22 281.93 C 217.02 285.11 212.99 287.24 209.15 289.51 C 208.13 288.15 207.14 286.78 206.17 285.39 Z" />
</g>
<g id="#787979ff">
<path fill="#787979" opacity="1.00" d=" M 357.06 280.01 C 357.78 283.57 358.90 287.15 358.77 290.81 C 358.44 293.82 355.34 294.69 352.85 295.21 C 356.13 290.88 358.58 285.54 357.06 280.01 Z" />
<path fill="#787979" opacity="1.00" d=" M 186.51 299.34 C 188.26 298.68 190.04 298.09 191.81 297.52 C 191.37 300.26 190.86 302.99 190.19 305.69 C 189.43 307.35 188.59 308.97 187.77 310.60 C 187.48 306.83 187.15 303.06 186.51 299.34 Z" />
</g>
<g id="#b4b6c1ff">
<path fill="#b4b6c1" opacity="1.00" d=" M 320.46 281.07 C 321.40 279.79 323.69 281.30 322.67 282.63 C 321.74 283.92 319.46 282.37 320.46 281.07 Z" />
</g>
<g id="#292b2eff">
<path fill="#292b2e" opacity="1.00" d=" M 253.62 282.64 C 256.88 285.90 259.81 290.03 264.55 291.16 C 267.46 292.11 270.34 293.17 273.18 294.33 C 268.80 294.41 264.38 294.26 260.08 295.24 C 259.08 293.88 258.10 292.51 257.13 291.14 C 256.04 289.56 254.81 288.05 253.18 287.01 C 253.53 286.69 254.22 286.04 254.56 285.71 C 254.25 284.69 253.93 283.66 253.62 282.64 Z" />
</g>
<g id="#504f4fff">
<path fill="#504f4f" opacity="1.00" d=" M 308.90 283.06 C 309.42 284.27 309.87 285.50 310.35 286.74 C 313.28 286.67 316.22 286.57 319.16 286.47 C 318.01 289.67 316.84 292.91 314.98 295.79 C 313.68 293.37 312.32 290.97 310.95 288.59 C 305.72 290.62 300.63 292.98 295.43 295.07 C 294.22 292.94 292.75 290.98 291.22 289.08 C 294.62 288.98 298.07 289.04 301.40 288.28 C 304.47 287.53 306.65 285.08 308.90 283.06 Z" />
</g>
<g id="#010101c4">
<path fill="#010101" opacity="0.77" d=" M 198.73 295.23 C 200.27 291.31 203.33 288.38 206.17 285.39 C 207.14 286.78 208.13 288.15 209.15 289.51 C 205.81 291.67 202.78 294.51 198.73 295.23 Z" />
</g>
<g id="#4b4a46ff">
<path fill="#4b4a46" opacity="1.00" d=" M 269.87 286.62 C 270.98 286.65 272.09 286.68 273.20 286.68 C 274.62 287.79 276.07 288.92 277.73 289.67 C 278.80 290.12 279.88 290.55 280.97 290.98 C 282.34 291.51 283.70 292.07 285.06 292.64 C 283.61 293.48 282.15 294.32 280.70 295.18 C 285.12 297.83 290.32 298.18 295.28 297.09 C 295.21 297.51 295.08 298.36 295.02 298.79 C 294.42 299.45 293.81 300.10 293.17 300.72 C 291.01 302.83 288.25 304.84 287.97 308.10 C 286.55 308.49 285.13 308.88 283.70 309.23 C 283.28 309.32 282.43 309.49 282.00 309.58 C 279.19 307.99 276.41 306.35 273.63 304.72 C 274.72 301.63 277.62 300.09 280.38 298.74 C 279.96 298.38 279.10 297.66 278.68 297.30 C 274.52 297.43 270.36 297.56 266.20 297.63 C 265.82 298.27 265.44 298.92 265.06 299.58 C 266.58 299.53 268.09 299.49 269.61 299.45 C 270.04 300.37 270.46 301.29 270.88 302.22 C 265.45 302.93 259.10 302.34 255.63 297.53 C 257.10 296.74 258.57 295.94 260.08 295.24 C 264.38 294.26 268.80 294.41 273.18 294.33 C 270.34 293.17 267.46 292.11 264.55 291.16 C 266.15 291.05 267.75 290.85 269.35 290.67 C 269.52 289.32 269.70 287.97 269.87 286.62 Z" />
</g>
<g id="#944c4eff">
<path fill="#944c4e" opacity="1.00" d=" M 273.20 286.68 C 274.57 286.64 275.95 286.57 277.33 286.51 C 277.43 287.30 277.63 288.88 277.73 289.67 C 276.07 288.92 274.62 287.79 273.20 286.68 Z" />
</g>
<g id="#00000026">
</g>
<g id="#3d3d3cff">
<path fill="#3d3d3c" opacity="1.00" d=" M 295.43 295.07 C 300.63 292.98 305.72 290.62 310.95 288.59 C 312.32 290.97 313.68 293.37 314.98 295.79 C 313.92 297.26 312.79 298.68 311.69 300.13 C 310.20 298.62 309.08 295.34 306.44 296.67 C 302.79 298.14 299.01 299.27 295.02 298.79 C 295.08 298.36 295.21 297.51 295.28 297.09 C 295.31 296.58 295.39 295.57 295.43 295.07 Z" />
<path fill="#3d3d3c" opacity="1.00" d=" M 274.21 342.89 C 274.91 343.33 275.60 343.80 276.27 344.30 C 277.50 346.39 278.37 348.66 279.18 350.94 C 277.03 348.19 274.40 345.81 271.06 344.62 C 272.11 344.05 273.16 343.47 274.21 342.89 Z" />
</g>
<g id="#a9795dff">
<path fill="#a9795d" opacity="1.00" d=" M 198.28 301.32 C 199.63 297.62 203.38 295.65 206.97 294.70 C 206.40 297.51 204.48 299.60 202.58 301.61 C 200.05 304.12 199.91 307.85 199.22 311.14 C 197.96 308.05 197.00 304.57 198.28 301.32 Z" />
</g>
<g id="#616260ff">
<path fill="#616260" opacity="1.00" d=" M 181.58 307.98 C 181.06 304.54 183.46 301.90 185.68 299.66 L 186.51 299.34 C 187.15 303.06 187.48 306.83 187.77 310.60 C 188.59 308.97 189.43 307.35 190.19 305.69 C 189.69 311.21 194.48 316.20 192.16 321.64 C 187.69 318.09 180.75 314.77 181.58 307.98 Z" />
</g>
<g id="#777a7bff">
<path fill="#777a7b" opacity="1.00" d=" M 210.27 299.46 C 212.71 300.25 215.12 301.19 217.26 302.61 C 217.98 303.63 218.70 304.66 219.43 305.67 C 219.42 306.44 219.38 307.97 219.37 308.74 C 214.84 307.46 212.44 303.27 210.27 299.46 Z" />
</g>
<g id="#010101df">
<path fill="#010101" opacity="0.87" d=" M 287.97 308.10 C 288.25 304.84 291.01 302.83 293.17 300.72 C 295.26 303.70 295.78 307.31 296.23 310.83 L 295.50 310.62 C 294.53 310.03 293.58 309.41 292.65 308.76 C 291.93 308.23 291.23 307.68 290.53 307.15 C 289.91 307.59 288.66 308.49 288.04 308.93 L 287.97 308.10 Z" />
</g>
<g id="#4b4848ff">
<path fill="#4b4848" opacity="1.00" d=" M 217.11 301.67 C 224.48 303.88 231.45 307.43 237.83 311.70 C 240.51 313.59 243.01 316.32 246.49 316.50 C 248.69 316.89 249.56 314.45 250.79 313.15 C 252.05 314.30 253.32 315.46 254.60 316.61 C 255.30 316.46 256.02 316.31 256.73 316.17 C 255.90 314.35 255.08 312.53 254.30 310.70 C 255.06 311.03 255.82 311.37 256.58 311.73 C 258.85 315.98 260.69 320.44 262.10 325.04 C 260.31 323.11 258.65 321.05 256.67 319.31 C 255.02 317.56 252.12 318.57 250.76 320.18 C 250.52 321.95 250.86 323.74 250.80 325.53 C 250.68 325.90 250.42 326.64 250.30 327.01 C 250.46 325.42 250.54 323.84 250.56 322.26 C 248.90 322.81 247.23 323.36 245.64 324.10 C 242.77 322.46 239.83 320.95 237.01 319.24 C 237.29 318.18 237.58 317.12 237.88 316.06 C 234.88 312.85 231.27 310.31 227.27 308.51 C 226.11 307.87 224.94 307.25 223.71 306.78 C 222.30 306.35 220.86 306.02 219.43 305.67 C 218.70 304.66 217.98 303.63 217.26 302.61 L 217.11 301.67 Z" />
</g>
<g id="#6b6c70ff">
<path fill="#6b6c70" opacity="1.00" d=" M 290.53 307.15 C 291.23 307.68 291.93 308.23 292.65 308.76 C 291.82 311.77 292.38 314.85 293.17 317.80 C 292.27 318.01 290.45 318.43 289.55 318.65 C 289.02 315.41 288.45 312.18 288.04 308.93 C 288.66 308.49 289.91 307.59 290.53 307.15 Z" />
</g>
<g id="#535256ff">
<path fill="#535256" opacity="1.00" d=" M 283.70 309.23 C 285.13 308.88 286.55 308.49 287.97 308.10 L 288.04 308.93 C 288.45 312.18 289.02 315.41 289.55 318.65 C 290.45 318.43 292.27 318.01 293.17 317.80 C 292.38 314.85 291.82 311.77 292.65 308.76 C 293.58 309.41 294.53 310.03 295.50 310.62 C 295.51 311.73 295.49 312.84 295.46 313.96 C 295.24 315.73 294.87 317.48 294.76 319.27 C 296.57 320.18 298.66 320.34 300.62 319.83 C 301.30 319.69 302.67 319.39 303.35 319.25 C 303.38 320.00 303.44 321.50 303.48 322.25 C 300.66 323.05 297.84 323.79 295.02 324.53 C 297.27 330.94 300.26 337.05 302.74 343.37 C 303.77 345.80 303.61 348.48 303.59 351.07 C 302.13 352.13 300.63 353.15 299.11 354.13 C 299.96 350.12 299.00 346.11 297.51 342.38 C 296.50 339.51 295.35 336.70 294.00 333.98 C 291.54 329.09 289.01 324.22 286.87 319.18 C 285.61 315.93 284.70 312.56 283.70 309.23 Z" />
</g>
<g id="#68625cff">
<path fill="#68625c" opacity="1.00" d=" M 227.27 308.51 C 231.27 310.31 234.88 312.85 237.88 316.06 C 237.58 317.12 237.29 318.18 237.01 319.24 C 232.62 316.87 229.52 312.87 227.27 308.51 Z" />
</g>
<g id="#939a83ff">
<path fill="#939a83" opacity="1.00" d=" M 269.92 311.86 C 272.90 308.06 277.91 310.02 282.00 309.58 C 282.43 309.49 283.28 309.32 283.70 309.23 C 284.70 312.56 285.61 315.93 286.87 319.18 C 285.70 319.07 284.54 318.97 283.38 318.87 C 283.28 317.99 283.19 317.13 283.11 316.26 C 282.68 316.02 281.84 315.53 281.42 315.29 C 278.22 313.27 274.55 312.18 270.78 311.96 L 269.92 311.86 Z" />
</g>
<g id="#9ea58fff">
<path fill="#9ea58f" opacity="1.00" d=" M 261.16 310.27 C 264.04 310.97 266.96 311.60 269.92 311.86 L 270.78 311.96 C 270.15 314.57 269.62 317.42 271.24 319.82 C 275.23 326.78 277.41 334.67 282.19 341.19 C 281.91 342.27 281.63 343.35 281.34 344.44 C 279.65 344.37 277.96 344.32 276.27 344.30 C 275.60 343.80 274.91 343.33 274.21 342.89 C 270.13 341.33 267.28 345.43 264.39 347.58 C 263.06 345.30 261.71 343.00 259.88 341.08 C 257.53 338.82 254.39 337.70 251.57 336.17 C 251.51 333.79 251.48 331.41 251.44 329.03 C 252.73 330.93 253.61 333.48 255.94 334.34 C 257.69 333.53 258.42 331.61 259.45 330.12 C 257.60 329.40 255.75 328.70 253.89 328.01 C 254.37 327.40 254.86 326.80 255.35 326.20 C 258.83 326.55 262.30 327.25 265.81 327.07 C 266.91 326.76 268.15 325.49 267.64 324.28 C 266.33 319.96 264.00 316.05 262.05 312.00 C 261.83 311.57 261.38 310.71 261.16 310.27 Z" />
</g>
<g id="#6c6c71ff">
<path fill="#6c6c71" opacity="1.00" d=" M 256.58 311.73 C 258.25 312.74 259.79 313.95 261.35 315.12 C 261.58 314.08 261.81 313.04 262.05 312.00 C 264.00 316.05 266.33 319.96 267.64 324.28 C 268.15 325.49 266.91 326.76 265.81 327.07 C 262.30 327.25 258.83 326.55 255.35 326.20 C 254.86 326.80 254.37 327.40 253.89 328.01 C 255.75 328.70 257.60 329.40 259.45 330.12 C 258.42 331.61 257.69 333.53 255.94 334.34 C 253.61 333.48 252.73 330.93 251.44 329.03 C 251.48 331.41 251.51 333.79 251.57 336.17 C 250.54 335.48 249.54 334.73 248.73 333.81 C 248.05 331.41 249.57 329.19 250.30 327.01 C 250.42 326.64 250.68 325.90 250.80 325.53 C 250.86 323.74 250.52 321.95 250.76 320.18 C 252.12 318.57 255.02 317.56 256.67 319.31 C 258.65 321.05 260.31 323.11 262.10 325.04 C 260.69 320.44 258.85 315.98 256.58 311.73 Z" />
</g>
<g id="#898689fe">
<path fill="#898689" opacity="1.00" d=" M 295.50 310.62 L 296.23 310.83 C 298.20 311.25 300.21 311.47 302.15 312.03 C 304.31 314.95 303.27 318.87 303.48 322.25 C 303.44 321.50 303.38 320.00 303.35 319.25 C 302.67 319.39 301.30 319.69 300.62 319.83 L 300.84 319.02 C 301.18 317.55 301.48 316.07 301.78 314.60 C 299.67 314.39 297.56 314.18 295.46 313.96 C 295.49 312.84 295.51 311.73 295.50 310.62 Z" />
</g>
<g id="#5a575dff">
<path fill="#5a575d" opacity="1.00" d=" M 270.78 311.96 C 274.55 312.18 278.22 313.27 281.42 315.29 C 279.98 315.96 278.54 316.63 277.11 317.31 C 278.11 320.11 280.13 322.24 282.70 323.66 C 280.79 324.68 279.03 326.44 279.51 328.82 C 279.43 331.85 282.05 333.58 284.10 335.30 C 285.80 336.60 286.38 338.75 287.24 340.61 C 285.80 340.83 284.36 341.01 282.92 341.15 L 282.19 341.19 C 277.41 334.67 275.23 326.78 271.24 319.82 C 269.62 317.42 270.15 314.57 270.78 311.96 Z" />
</g>
<g id="#aa9787fe">
<path fill="#aa9787" opacity="1.00" d=" M 294.76 319.27 C 294.87 317.48 295.24 315.73 295.46 313.96 C 295.77 315.57 296.05 317.19 296.34 318.82 C 297.84 318.88 299.33 318.95 300.84 319.02 L 300.62 319.83 C 298.66 320.34 296.57 320.18 294.76 319.27 Z" />
</g>
<g id="#ffe750ff">
<path fill="#ffe750" opacity="1.00" d=" M 295.46 313.96 C 297.56 314.18 299.67 314.39 301.78 314.60 C 301.48 316.07 301.18 317.55 300.84 319.02 C 299.33 318.95 297.84 318.88 296.34 318.82 C 296.05 317.19 295.77 315.57 295.46 313.96 Z" />
</g>
<g id="#40403dff">
<path fill="#40403d" opacity="1.00" d=" M 217.52 316.47 C 220.27 318.98 223.66 320.57 227.35 321.15 L 228.04 321.64 C 231.04 323.75 234.01 325.92 237.18 327.77 C 230.85 327.44 224.54 326.80 218.21 326.34 C 215.45 326.19 213.07 324.71 210.55 323.76 C 207.68 322.95 204.67 322.91 201.79 322.20 C 204.71 322.30 207.69 322.30 210.54 321.53 C 213.43 320.80 215.45 318.45 217.52 316.47 Z" />
</g>
<g id="#a6ae92ff">
<path fill="#a6ae92" opacity="1.00" d=" M 277.11 317.31 C 278.54 316.63 279.98 315.96 281.42 315.29 C 281.84 315.53 282.68 316.02 283.11 316.26 C 283.19 317.13 283.28 317.99 283.38 318.87 C 284.54 318.97 285.70 319.07 286.87 319.18 C 289.01 324.22 291.54 329.09 294.00 333.98 C 293.18 335.99 292.36 337.99 291.55 340.00 C 293.53 340.80 295.52 341.59 297.51 342.38 C 299.00 346.11 299.96 350.12 299.11 354.13 L 298.24 354.36 C 294.97 354.39 291.74 353.90 288.53 353.43 C 288.46 352.91 288.33 351.88 288.26 351.36 C 289.56 350.46 290.87 349.57 292.17 348.67 C 290.50 346.27 287.87 346.15 285.26 346.81 C 285.76 349.66 286.30 352.51 286.44 355.40 C 284.98 355.16 283.52 354.93 282.06 354.70 C 281.79 352.00 281.61 349.29 281.49 346.58 C 282.73 346.11 283.97 345.64 285.21 345.17 C 284.46 343.82 283.72 342.47 282.92 341.15 C 284.36 341.01 285.80 340.83 287.24 340.61 C 288.89 339.52 290.20 337.64 289.27 335.62 C 287.78 331.36 286.58 326.42 282.70 323.66 C 280.13 322.24 278.11 320.11 277.11 317.31 Z" />
</g>
<g id="#404147ff">
<path fill="#404147" opacity="1.00" d=" M 279.51 328.82 C 279.03 326.44 280.79 324.68 282.70 323.66 C 286.58 326.42 287.78 331.36 289.27 335.62 C 290.20 337.64 288.89 339.52 287.24 340.61 C 286.38 338.75 285.80 336.60 284.10 335.30 C 282.05 333.58 279.43 331.85 279.51 328.82 Z" />
</g>
<g id="#81857fff">
<path fill="#81857f" opacity="1.00" d=" M 294.00 333.98 C 295.35 336.70 296.50 339.51 297.51 342.38 C 295.52 341.59 293.53 340.80 291.55 340.00 C 292.36 337.99 293.18 335.99 294.00 333.98 Z" />
</g>
<g id="#707176ff">
<path fill="#707176" opacity="1.00" d=" M 259.88 341.08 C 261.71 343.00 263.06 345.30 264.39 347.58 C 267.28 345.43 270.13 341.33 274.21 342.89 C 273.16 343.47 272.11 344.05 271.06 344.62 C 274.40 345.81 277.03 348.19 279.18 350.94 C 278.37 348.66 277.50 346.39 276.27 344.30 C 277.96 344.32 279.65 344.37 281.34 344.44 C 281.63 343.35 281.91 342.27 282.19 341.19 L 282.92 341.15 C 283.72 342.47 284.46 343.82 285.21 345.17 C 283.97 345.64 282.73 346.11 281.49 346.58 C 281.61 349.29 281.79 352.00 282.06 354.70 C 283.52 354.93 284.98 355.16 286.44 355.40 L 285.74 355.86 C 280.37 357.44 275.06 359.58 269.38 359.68 C 267.53 357.91 266.72 355.38 265.58 353.16 C 263.75 349.10 261.79 345.10 259.88 341.08 Z" />
</g>
<g id="#464449ff">
<path fill="#464449" opacity="1.00" d=" M 285.26 346.81 C 287.87 346.15 290.50 346.27 292.17 348.67 C 290.87 349.57 289.56 350.46 288.26 351.36 C 288.33 351.88 288.46 352.91 288.53 353.43 C 291.74 353.90 294.97 354.39 298.24 354.36 C 294.17 355.53 289.88 355.11 285.74 355.86 L 286.44 355.40 C 286.30 352.51 285.76 349.66 285.26 346.81 Z" />
</g>
</svg>

