<svg xmlns="http://www.w3.org/2000/svg" width="682.667" height="682.667" viewBox="0 0 512 512"  xmlns:v="https://vecta.io/nano"><path fill="#3d403b" opacity=".69" d="M156.81 91.68c.58-3.08 3.45-5.25 6.55-5.16l1.27 3.04-5.31.7-1.07 1.42c-.25 5.1 1.17 10.05 3.19 14.68l.85 2.39c-3.63-4.87-6.55-10.83-5.48-17.07z"/><path fill="#65666f" d="M163.36 86.52c6.05 3.9 10.1 10.14 16.19 14l-2.36-.67c2.62 3.29 5.88 6 9.41 8.29l-1.3-4.6 2.44-.45 2.28 3.13c.66.88 1.34 1.74 2.06 2.57l-2.25 1.97c-1.21.29-2.6 1.27-3.77.34-2.46-1.55-4.57-3.57-6.77-5.45-3.06-3.51-6.53-6.63-9.52-10.2a52.22 52.22 0 0 1-1.07-2.7l-7.29-.96.13 2.5-3.29-2.61 1.07-1.42c1.76-.3 3.53-.5 5.31-.7l-1.27-3.04z"/><path fill="#aab09f" d="M161.44 106.36c-2.02-4.63-3.44-9.58-3.19-14.68l3.29 2.61-.13-2.5 7.29.96a52.22 52.22 0 0 0 1.07 2.7c-2.21-.46-4.39-1-6.58-1.52.74 2.03 1.73 4.02 3.48 5.37 2.97 2.45 5.51 5.35 7.61 8.57-4.41-2.78-8.47-6.12-13.16-8.44 1.15 2.59 2.38 5.15 4 7.49-1.23-.21-2.45-.4-3.68-.56z"/><path fill="#9b9ea9" d="M163.19 93.93l6.58 1.52c2.99 3.57 6.46 6.69 9.52 10.2l3.21 4.85-6.92-.96-1.3-1.67c-2.1-3.22-4.64-6.12-7.61-8.57-1.75-1.35-2.74-3.34-3.48-5.37z"/><path fill="#323236" opacity=".62" d="M181.54 94.8c2.16.55 4.36 1.12 6.26 2.35l-5.82-.89 1.7 6.75-2.87-1.75.73-6.46z"/><path fill="#828287" d="M181.98 96.26l5.82.89c6.18 4.54 10.1 11.18 14.27 17.45l-1.02 1.41-2.13-1.61c-2.38-1.74-4.74-3.53-6.84-5.61-.72-.83-1.4-1.69-2.06-2.57l2.55-1.56-.72-3.14c-1.37.54-2.72 1.11-4.11 1.57l-2.44.45 1.3 4.6c-3.53-2.29-6.79-5-9.41-8.29l2.36.67 1.26.74 2.87 1.75-1.7-6.75m3.22 3.91c-.47 1.4 0 1.88 1.42 1.45.46-1.4-.01-1.88-1.42-1.45z"/><path fill="#979a8f" d="M161.12 99.43c4.69 2.32 8.75 5.66 13.16 8.44l1.3 1.67c1.42 1.83 2.85 3.66 4.4 5.39l-4.18.6c1.44 1.5 2.91 2.99 4.55 4.29-.27.99-.53 1.99-.73 3-.13 1.9-.11 3.8.05 5.7-5.37-5.51-12.28-9.8-16-16.72 1.87.41 3.72.94 5.55 1.54l2-.45a122.6 122.6 0 0 0-6.1-5.97c-1.62-2.34-2.85-4.9-4-7.49z"/><path fill="#abaaaf" d="M185.2 100.17c1.41-.43 1.88.05 1.42 1.45-1.42.43-1.89-.05-1.42-1.45z"/><path fill="#f6f4fb" d="M187.74 103.09l4.11-1.57.72 3.14-2.55 1.56-2.28-3.13z"/><path fill="#7b8277" d="M161.44 106.36l3.68.56 6.1 5.97-2 .45-5.55-1.54-.87-1.66-.51-1.39-.85-2.39z"/><path fill="#807f83" d="M179.29 105.65c2.2 1.88 4.31 3.9 6.77 5.45 1.17.93 2.56-.05 3.77-.34 2.44 1.91 4.47 4.26 6.16 6.85l-2.55 1.63c3.6 2.13 6.63 5.02 9.45 8.08 1.59-.48 3.18-1.13 4.86-1.25 1.5.29 2.74 1.27 4 2.09l5.52 6.51c.7 1 1.35 2.03 2.02 3.06-1.25.05-2.71 1.52-1.7 2.72 1.06 1.1 2.37-.32 2.44-1.44l1.01 2.05c-1.68 1.28-3.36 2.58-5.12 3.75.25-2.01-2.85-2.45-3.25-.51a28.81 28.81 0 0 0-5.23-.53c1.07-2.82.67-5.8-.35-8.56l2.75-4.27c-2.61-.82-5.26-1.53-7.8-2.54-2.28-.82-3.66-2.92-5.22-4.63-2.72-3.24-6.36-5.47-9.53-8.22-1.73-1.55-3.35-3.23-4.79-5.05-1.12-1.59-2.12-3.25-3.21-4.85m11.46 9.53c-.78 1.38 1.49 3.08 2.68 2.13.9-1.41-1.49-3.13-2.68-2.13z"/><path fill="#a9adae" d="M175.58 109.54l6.92.96c1.44 1.82 3.06 3.5 4.79 5.05l-.88 3.23c4.97 4.4 9.41 9.43 14.77 13.37.66 1.99 1.47 3.93 2.56 5.73-4.83-2.55-7.86-7.22-11.83-10.8-4.16-3.87-8.04-8.03-11.93-12.15-1.55-1.73-2.98-3.56-4.4-5.39z"/><path fill="#444447" d="M189.83 110.76l2.25-1.97c2.1 2.08 4.46 3.87 6.84 5.61l-2.15 4.27-.78-1.06c-1.69-2.59-3.72-4.94-6.16-6.85z"/><path fill="#383b3b" opacity=".72" d="M162.8 110.14l.87 1.66c3.72 6.92 10.63 11.21 16 16.72l.55.58 1.58-2.86 2.03 2.68-2.02 3.62-2.9-2.67c-4.27-4.32-8.72-8.45-12.98-12.76-1.92-1.84-2.38-4.54-3.13-6.97z"/><path fill="#818583" d="M175.8 115.53l4.18-.6c3.89 4.12 7.77 8.28 11.93 12.15 3.97 3.58 7 8.25 11.83 10.8.66.42 1.32.83 2 1.23l-2.84 1.91c-8.06-6.49-14.23-15.03-22.55-21.2-1.64-1.3-3.11-2.79-4.55-4.29z"/><path fill="#5d5f66" d="M190.75 115.18c1.19-1 3.58.72 2.68 2.13-1.19.95-3.46-.75-2.68-2.13z"/><path fill="#4a4b4e" opacity=".77" d="M201.05 116.01l1.02-1.41c3.58 4.27 6.08 9.31 9.68 13.56-1.26-.82-2.5-1.8-4-2.09-1.68.12-3.27.77-4.86 1.25-2.82-3.06-5.85-5.95-9.45-8.08l2.55-1.63.78 1.06c2.56 2.93 5.79 5.19 9.3 6.84-.84-3.54-2.34-6.96-5.02-9.5z"/><path fill="#a5a8b6" d="M187.29 115.55c3.17 2.75 6.81 4.98 9.53 8.22 1.56 1.71 2.94 3.81 5.22 4.63 2.54 1.01 5.19 1.72 7.8 2.54l-2.75 4.27c-2-.98-3.98-1.96-5.91-3.06-5.36-3.94-9.8-8.97-14.77-13.37l.88-3.23z"/><path fill="#b3baa7" d="M179.62 122.82l.73-3c8.32 6.17 14.49 14.71 22.55 21.2l2.84-1.91c-.28 1.58-.58 3.15-.73 4.75l1.9 2.44.31.76c-1.4-.36-2.81-.73-4.19-1.15-2.48-3.15-5.24-6.06-8.29-8.66-5.33-4.5-9.7-10.02-15.12-14.43z"/><path fill="#808777" d="M179.62 122.82c5.42 4.41 9.79 9.93 15.12 14.43 3.05 2.6 5.81 5.51 8.29 8.66-2.84-1.01-5.46-2.51-8.05-4.03l.69 3.32c-4.78-4.04-9.16-8.53-13.86-12.66l2.02-3.62-2.03-2.68-1.58 2.86-.55-.58c-.16-1.9-.18-3.8-.05-5.7z"/><path opacity=".75" d="M178.91 129.87l2.9 2.67c4.7 4.13 9.08 8.62 13.86 12.66 2.59 1.7 5.22 3.35 7.63 5.31l-4.78 3.7-.16 1.89c1.52.93 3.01 1.94 4.68 2.62 2.53-1.33 4.54-3.43 6.97-4.91 5.03 3.23 9.28 7.81 12.16 13.06 1.73 3.4 3.59 6.86 6.48 9.44 2.22 1.99 4.79 3.55 7.35 5.07l-1.16 2.02c-.67 1.25-1.3 2.51-1.94 3.78-1.53-.67-3.05-1.34-4.54-2.1-2.21-2.03-4.25-4.24-6.36-6.38l-6.25 3.56-3.74-2.92 5.05-4.54c-3.67-2.59-7.5-4.98-10.77-8.07l-17.46-16.56c-3.48-3.43-5.68-7.86-7.8-12.19-1.25-2.53-1.73-5.34-2.12-8.11z"/><path fill="#555757" d="M203.74 137.88c-1.09-1.8-1.9-3.74-2.56-5.73l5.91 3.06c1.02 2.76 1.42 5.74.35 8.56l-2.43.09c.15-1.6.45-3.17.73-4.75l-2-1.23z"/><path fill="#707173" d="M217.27 134.67c3.09 3.33 5.39 7.33 8.65 10.51 2.19 2.14 4.29 4.37 6.25 6.72.89 1.03 1.8 2.05 2.78 3.01 3.29 2.47 6.97 4.36 10.55 6.38l-2.09 4.09c-.17.36-.53 1.06-.7 1.41l-1.27.48a83.97 83.97 0 0 1-1.78-2.43 30.26 30.26 0 0 0-5.79 5.4l-3.82-.12.85 2.85c-2.23-1.79-4.18-3.91-5.78-6.28l.65.33c2 .47 4.04.75 6.07 1.05-1.72-3.5-3.61-6.98-4.46-10.81-.7-2.64-.99-5.63-3.06-7.62-1.3-1.28-2.78-2.78-4.72-2.84-2.01-.04-4 .39-5.97.67.53 1.09 1.05 2.18 1.64 3.25 1.13 2.16 2.37 4.28 3.8 6.27-3.97-3.66-8.06-7.17-12.16-10.69-.65-.8-1.28-1.62-1.9-2.44l2.43-.09a28.81 28.81 0 0 1 5.23.53c1.06.95 2.14 1.12 3.25.51 1.76-1.17 3.44-2.47 5.12-3.75l-1.01-2.05-.74-1.28-2.02-3.06m12.47 22.06c-2.15 2.53.32 5.4 1.37 7.8 2.09-1.21 3.94-2.79 5.57-4.57-1.77-1.87-4.06-5.64-6.94-3.23z"/><path fill="#bbbbc2" d="M217.59 140.45c-1.01-1.2.45-2.67 1.7-2.72l.74 1.28c-.07 1.12-1.38 2.54-2.44 1.44z"/><path fill="#757874" d="M194.98 141.88c2.59 1.52 5.21 3.02 8.05 4.03l4.19 1.15c-.11 4.86-5.58 6.52-8.86 9.04l.16-1.89 4.78-3.7c-2.41-1.96-5.04-3.61-7.63-5.31l-.69-3.32z"/><path fill="#c0c0c6" d="M212.67 144.3c.4-1.94 3.5-1.5 3.25.51-1.11.61-2.19.44-3.25-.51z"/><path fill="#a0a0ab" d="M206.91 146.3l12.16 10.69c2.05 2.61 3.62 5.53 5.22 8.43l-2.1.27-.02 1.18c-2.88-5.25-7.13-9.83-12.16-13.06-2.43 1.48-4.44 3.58-6.97 4.91-1.67-.68-3.16-1.69-4.68-2.62 3.28-2.52 8.75-4.18 8.86-9.04l-.31-.76z"/><path fill="#a3a6a4" d="M219.6 146.8c1.94.06 3.42 1.56 4.72 2.84 2.07 1.99 2.36 4.98 3.06 7.62.85 3.83 2.74 7.31 4.46 10.81-2.03-.3-4.07-.58-6.07-1.05l1.74-1.72c-1.32-2.88-2.34-5.96-4.3-8.48-2.23-2.54-5.31-4.05-7.94-6.1-.59-1.07-1.11-2.16-1.64-3.25 1.97-.28 3.96-.71 5.97-.67z"/><path fill="#858b7a" d="M215.27 150.72c2.63 2.05 5.71 3.56 7.94 6.1 1.96 2.52 2.98 5.6 4.3 8.48l-1.74 1.72-.65-.33-.83-1.27c-1.6-2.9-3.17-5.82-5.22-8.43-1.43-1.99-2.67-4.11-3.8-6.27z"/><path fill="#252525" opacity=".56" d="M232.17 151.9l8.71 3.11-5.93-.1c-.98-.96-1.89-1.98-2.78-3.01z"/><path fill="#515151" d="M234.95 154.91l5.93.1c2.55 1 5.11 2.12 7.27 3.84l1.75 2.18-6.49 4.35 2.09-4.09c-3.58-2.02-7.26-3.91-10.55-6.38z"/><path fill="#91e8fa" d="M229.74 156.73c2.88-2.41 5.17 1.36 6.94 3.23-1.63 1.78-3.48 3.36-5.57 4.57-1.05-2.4-3.52-5.27-1.37-7.8m1.61.14l-1.63 3.38c1.52.49 3.05.33 4.49-.32l-2.86-3.06z"/><path fill="#e4ffff" d="M231.35 156.87l2.86 3.06c-1.44.65-2.97.81-4.49.32l1.63-3.38z"/><path fill="#454347" d="M248.15 158.85c2.66 2.2 4.52 5.16 6.86 7.67l-3.2 1.7c1.26 3.15 3.36 5.86 6.09 7.87 1.48 2.3 2.63 4.78 3.9 7.2-2.55-1.38-5.12-2.81-7.15-4.92-3.88-3.96-8.17-7.51-11.94-11.58l.7-1.41c2.06-1.6 4.28-2.97 6.49-4.35l-1.75-2.18z"/><path fill="#626467" d="M222.19 165.69l2.1-.27.83 1.27c1.6 2.37 3.55 4.49 5.78 6.28 1.38 1.01 2.84 1.92 4.31 2.81l2.17 4.59-1.38 1.01c-2.56-1.52-5.13-3.08-7.35-5.07-2.89-2.58-4.75-6.04-6.48-9.44.01-.3.02-.89.02-1.18z"/><path fill="#b7bac5" d="M233.87 170.24a30.26 30.26 0 0 1 5.79-5.4l-.59 5.81-.46 2.85 2.37.98c2.2 1.67 3.99 3.79 5.78 5.88l3.03.71-1.77 1.97.84 2.56c-1.32.03-2.75.26-3.93-.46-3.58-1.97-5.9-5.46-8.02-8.83-.96-2.05-1.94-4.09-3.04-6.07z"/><path fill="#8e909e" d="M239.66 164.84l1.78 2.43 1.27-.48c3.77 4.07 8.06 7.62 11.94 11.58 2.03 2.11 4.6 3.54 7.15 4.92l7.59 5.45-.88.41c-.2.41-.59 1.25-.78 1.67l-.15.81c-1.25-1.67-2.3-3.8-4.43-4.48-3.59-1.27-7.32-2.06-10.93-3.24 1.21-1.74 1.31-3.86 1.21-5.9-1.25.98-2.49 1.98-3.64 3.06l-3.03-.71c-1.79-2.09-3.58-4.21-5.78-5.88l2.58-5.18-4.49 1.35c.28-1.93.44-3.87.59-5.81z"/><path fill="#d5a182" d="M251.81 168.22l3.2-1.7c7.35 3.88 14.88 7.41 22.27 11.23 5 2.49 9.82 5.37 15.1 7.24.08 1.25.21 2.52.13 3.78-.58 1.59-2.22 2.45-3.47 3.46l-3.1 1.02c-2.46.13-5.33.87-7.41-.87-4.39-3.18-7.92-7.35-11.93-10.96-2.55-2.31-5.71-3.73-8.7-5.33-2.73-2.01-4.83-4.72-6.09-7.87z"/><path fill="#757884" d="M239.07 170.65l4.49-1.35-2.58 5.18-2.37-.98.46-2.85z"/><path fill="#a8afa1" d="M230.05 170.12l3.82.12 3.04 6.07-1.7-.53-4.31-2.81-.85-2.85z"/><path fill="#6d6f77" d="M235.21 175.78l1.7.53c2.12 3.37 4.44 6.86 8.02 8.83 1.18.72 2.61.49 3.93.46l.83-.38 3.5 1.66.36.41-3.63 1.99c-1.99-.19-3.98-.39-5.96-.67-.72-1.25-1.22-2.71-2.35-3.65-2.05-1.18-4.49-1.24-6.77-1.56l1.16-2.02 1.38-1.01-2.17-4.59z"/><path fill="#c59677" d="M257.9 176.09c2.99 1.6 6.15 3.02 8.7 5.33 4.01 3.61 7.54 7.78 11.93 10.96 2.08 1.74 4.95 1 7.41.87l-1.62.6c-2.1 1.08-4.06 2.38-6.09 3.56l-6.77-3.06 1.38-2.68-2.8-2.42-.65-.51c-2.49-1.88-5.04-3.66-7.59-5.45-1.27-2.42-2.42-4.9-3.9-7.2z"/><path fill="#cfcdd8" d="M249.79 181.07c1.15-1.08 2.39-2.08 3.64-3.06.1 2.04 0 4.16-1.21 5.9l-2.53 1.31-.83.38-.84-2.56 1.77-1.97z"/><path fill="#4e5051" d="M234.84 183.4c2.28.32 4.72.38 6.77 1.56 1.13.94 1.63 2.4 2.35 3.65l5.96.67c2.28 1.46 3.73 3.8 4.63 6.31l-2.15.98-.81-4.75c-2.84-.16-5.75.03-8.5-.79-1.14-1.36-1.91-2.99-3.12-4.29-1.45-.45-2.97-.58-4.45-.8l-1.24 3.58c-2.02-.06-4.03-.12-6.04.05l-2.46 1.27 1.43 2.34.77 1.34c-.38 1.34-.82 2.69-.95 4.09l1.79 1.73 5.81.95.28.74-6.8 3.93-3.43-1.68c-1.51 2.41-2.96 4.87-4.03 7.5l-3.27 1.45.3-4.47-2.61 3.22 1.02-4.82-3.38-4.72 3.46-3.22c2.93-1.68 6.1-2.85 9.24-4.07l-1.72-2.54c-3.46.85-6.91 1.72-10.27 2.88l-.81.3c2.75-1.92 6-2.82 9.05-4.12 2.97-1.28 4.72-4.19 6.7-6.59 1.49.76 3.01 1.43 4.54 2.1l1.94-3.78m-17.19 18.4c2.32-.32 6.92.6 6.59-3.02-2.47.28-5.54.26-6.59 3.02z"/><path fill="#45454e" d="M249.69 185.22l2.53-1.31c3.61 1.18 7.34 1.97 10.93 3.24 2.13.68 3.18 2.81 4.43 4.48-.36 1.85-.61 3.73-.59 5.63.18 2.91.01 5.92-1.56 8.48l-1.37 2.1-3.57-3.25c.2-.55.41-1.08.63-1.61 1.28-1.24 3.4-2.09 3.51-4.12.23-3.17.58-6.89-1.37-9.61-3.19-.45-6.46-.68-9.41-2.12-.17-.06-.5-.19-.66-.25l-3.5-1.66z"/><path fill="#5e5e5b" d="M292.38 184.99l7.87 2.9.46 2.84-7.32.3 1.3 4.77 7.02-.76c3.24 4 6.96 7.56 10.52 11.26a35.33 35.33 0 0 1 1.5 5.18l-1.36.76c-3.58-3.96-6.83-8.24-10.73-11.9-2.71-2.69-6.66-3.15-10.21-3.96l-2.39-4.15c1.25-1.01 2.89-1.87 3.47-3.46.08-1.26-.05-2.53-.13-3.78z"/><path fill="#6b6f86" d="M235.52 185.94c1.48.22 3 .35 4.45.8 1.21 1.3 1.98 2.93 3.12 4.29 2.75.82 5.66.63 8.5.79l-1.73 5.89-1.79-.69c-1.23-1.07-3-1.49-4.34-.35l-2.14 1.02-2.63.23c1.12-1.11 2.26-2.31 2.6-3.91l.1-.35-.44-.01c-2.9-.08-5.8.21-8.69.47l1.75-4.6 1.24-3.58m2.47 1.36l-.4.72.41.71.83-.01.41-.72-.42-.71-.83.01z"/><path fill="#bebcc0" d="M253.19 186.88l.66.25-.3.16-.36-.41z"/><path fill="#a6a5b2" d="M237.99 187.3l.83-.01.42.71-.41.72-.83.01-.41-.71.4-.72z"/><path fill="#616379" d="M253.55 187.29l.3-.16c2.95 1.44 6.22 1.67 9.41 2.12 1.95 2.72 1.6 6.44 1.37 9.61-.11 2.03-2.23 2.88-3.51 4.12l-5.77-5.21-.8-2.18c-.9-2.51-2.35-4.85-4.63-6.31l3.63-1.99z"/><path fill="#404142" d="M300.25 187.89c5.06 3.54 10.4 6.62 15.8 9.6l-3.68 2.61c-3.03-2.47-6.37-5.98-10.66-5.06l-7.02.76-1.3-4.77 7.32-.3-.46-2.84z"/><path fill="#5f627a" d="M228.24 189.57c2.01-.17 4.02-.11 6.04-.05l-1.75 4.6 8.69-.47.34.36c-.34 1.6-1.48 2.8-2.6 3.91l-4.33 3.37-5.81-.95c.18-1.98.3-4.08-.84-5.82l-.77-1.34 1.03-3.61z"/><path fill="#c6cac9" d="M268.51 189.15l.88-.41.65.51c-.02 1.69-.79 2.21-2.31 1.57l.78-1.67z"/><path fill="#686763" d="M270.04 189.25l2.8 2.42-1.38 2.68 6.77 3.06c-1.38.7-2.77 1.46-4.31 1.7-2.42-.1-4.68-1.08-6.93-1.85-.02-1.9.23-3.78.59-5.63l.15-.81c1.52.64 2.29.12 2.31-1.57z"/><path fill="#9395a1" d="M225.78 190.84l2.46-1.27-1.03 3.61-1.43-2.34z"/><path fill="#5f6060" d="M251.59 191.82l.81 4.75 2.15-.98.8 2.18c-.73 3.54-.95 7.16-.71 10.77-2.97-.1-5.96-.34-8.78-1.34l-3.83.92-.44-10.43 2.14-1.02c.97 1.56 3 1.16 4.34.35l1.79.69 1.73-5.89z"/><path fill="#858689" d="M285.94 193.25l3.1-1.02 2.39 4.15c3.55.81 7.5 1.27 10.21 3.96 3.9 3.66 7.15 7.94 10.73 11.9l-1.37.7-2.96 1.41c-.6-4.64-4.36-7.8-7.41-10.97-2.4-2.55-5.78-3.65-8.94-4.91-2.48-1.06-4.86-2.37-7.12-3.84l-.25-.78 1.62-.6z"/><path fill="#949394" d="M213.42 195.49c3.36-1.16 6.81-2.03 10.27-2.88l1.72 2.54c-3.14 1.22-6.31 2.39-9.24 4.07l-2.75-3.73z"/><path fill="#fff" d="M241.22 193.65l.44.01-.1.35-.34-.36z"/><path fill="#585854" d="M278.23 197.41l6.09-3.56.25.78c.62 2.58 1.67 5.11 3.75 6.87-6.71-.82-12.67 2.93-19.19 3.66 4.09 4.06 9.02 7.2 12.8 11.58l1.16 1.32c1.35 1.67 2.6 3.43 3.78 5.23 2.41 3.64 4.25 7.71 4.68 12.1-2.35-2.83-3.98-6.13-5.65-9.38-2.63-5.12-7.56-8.38-11.44-12.45-2.75-2.89-5.64-5.67-9.03-7.82 1.57-2.56 1.74-5.57 1.56-8.48 2.25.77 4.51 1.75 6.93 1.85 1.54-.24 2.93-1 4.31-1.7z"/><path fill="#2b2c2b" d="M301.71 195.04c4.29-.92 7.63 2.59 10.66 5.06.99.93 1.95 1.9 2.91 2.87l-3.05 3.33c-3.56-3.7-7.28-7.26-10.52-11.26z"/><path fill="#787b8d" d="M227.03 198.61c.13-1.4.57-2.75.95-4.09 1.14 1.74 1.02 3.84.84 5.82l-1.79-1.73z"/><path fill="#35342e" d="M284.57 194.63c2.26 1.47 4.64 2.78 7.12 3.84l-1.63 4.73-1.74-1.7c-2.08-1.76-3.13-4.29-3.75-6.87z"/><path fill="#757675" opacity=".95" d="M212.71 202.44c-.64-2.14-1.38-4.58-.1-6.65l.81-.3 2.75 3.73-3.46 3.22z"/><path fill="#d3d2d6" d="M243.73 196.67c1.34-1.14 3.11-.72 4.34.35-1.34.81-3.37 1.21-4.34-.35z"/><path fill="#6b6c6c" d="M234.63 201.29l4.33-3.37 2.63-.23.44 10.43-3.08 1.5 4.16.65-4.9 2.23c-1.22-3.45-2.17-6.99-3.3-10.47l-.28-.74z"/><path d="M254.64 208.54c-.24-3.61-.02-7.23.71-10.77 1.88 1.78 3.85 3.47 5.77 5.21-.22.53-.43 1.06-.63 1.61a73.28 73.28 0 0 0-.55 1.58 59.44 59.44 0 0 0-.87 2.67l-4.43-.3zm20.6 18.29l1.33-7.88c4.35 7.66 7.99 15.68 12.19 23.42 2.67 4.96 2.29 10.78.65 16l-.77 2.62c-3.52 2.83-7.06 5.67-10.93 8.03-2.34 1.3-4.74 2.5-7.22 3.5-1.39.35-2.8.63-4.22.84 3.29-3.53 7.91-5.43 11.08-9.08-5.59 1.52-10.59 4.5-15.5 7.48-2.22.75-4.59.58-6.58-.71 6.46-4.83 13.9-8.15 21.56-10.55.92-7.08-1.46-13.92-4.37-20.26.32-2.88.57-5.78.59-8.68-.62 1.5-1.23 3-1.77 4.53l-.7-2.41c-1.06 4.93-3.1 9.62-6.68 13.26l6.16 1.9c-1.07 1.19-1.98 3.19-3.88 2.92-1.31-.95-2.29-2.25-3.35-3.45l-.59 1.85c.16-2.25.15-4.49.08-6.74-.38-5.26-.24-10.54.4-15.78l4.2-1.2 1.05 4.03.57 2.22 3.82-1.55-1.06-3.11 1.41-1.26 1.42 1.01.83-.25.28-.7m-1.15 3.42l-.42.72.41.71.83.01.41-.72-.41-.71-.82-.01m.32 5.79c.71 2.73 1.82 5.34 2.34 8.13.95 5.29 3.18 10.36 2.99 15.82l2.1.76c1.16-4.38-.63-8.82.17-13.22 1.15-5.45-3.19-9.92-5.5-14.44-.75.95-1.56 1.86-2.1 2.95m-9.69.76l3.33 1.39-.3-4.56c-1.02 1.05-2.05 2.08-3.03 3.17z" fill="#525251"/><path fill="#6a6867" d="M312.37 200.1l3.68-2.61 2.1 1.33.97 8.2-3.84-4.05-2.91-2.87z"/><path fill="#6e6b65" d="M217.65 201.8c1.05-2.76 4.12-2.74 6.59-3.02.33 3.62-4.27 2.7-6.59 3.02z"/><path fill="#625b53" d="M291.69 198.47c3.16 1.26 6.54 2.36 8.94 4.91 3.05 3.17 6.81 6.33 7.41 10.97l.37 1.76c-5.51-1.36-8.81-6.15-12.79-9.73-1.38-1.41-3.37-1.72-5.24-1.9l-1.81-.19-.25-2.79 1.74 1.7 1.63-4.73z"/><path opacity=".08" d="M318.15 198.82c2.24 2.07 4.07 4.52 5.86 6.97l2.98-1.13 1.56 5.17c2.52-.4 4.99-1.09 7.36-2.03l2.92 4.92c2.52-1.83 5.54-4.29 8.84-3.01 2.57 1.51 4.26 4.3 7.14 5.35 3.15 1.25 6.5 1.86 9.78 2.7l-1.44-3.55c1.3-.19 2.6-.45 3.92-.43 2.69.5 4.98 2.49 7.8 2.43 2.31.16 4.9-.57 6.93.9 1.52.93 2.93 2.03 4.37 3.09l5.07-3.62c1.3 2.65 2.79 5.34 5.47 6.82-.29-2.46-.71-4.91-1.2-7.33l10.58 3.94-7.36 2.76 2.58 1.99c5.41-.94 10.87-1.55 16.36-1.65l3.84 3.69 6.28-5.19c2.66 3.04 6.07 5.29 9.88 6.63l-2.27-3.44.44-1.13 3.15.86 1.05-1.32 5.5 4.69c2.97-.57 6.11-.89 8.89.58 3.03-2.22 6.1-4.6 9.91-5.24l-1 3.3 4.03 1.39 2.34-1.92c3.7.75 7.17 2.29 10.28 4.42l3.02-7.63c2.82.61 3.83 3.29 4.58 5.77l1.99-.89 1.8-5.18 6.14 4.23 1.16-3.55c1.75 1.72 3.59 3.36 5.54 4.86 1.35-.71 2.45-3.33 4.19-2.33 1.57 1.8 2.56 4.02 3.59 6.16v30.02c-3.15 1.39-6.23 4.27-9.9 3.09l3.73-1.86c-4.29-.79-8.68-2.53-13.06-1.34-3.9.91-7.88 1.47-11.8 2.27-3.08.68-4.94-2.58-6.95-4.31-1.77.82-3.46 2.07-5.44 2.22-4.15-1.5-8.07-3.6-12.35-4.75l-1.59 4.17c-3.53-.95-6.93-2.31-10.48-3.15-3.1-.68-5.88 1.4-8.58 2.57l.83-3.99-2.18-.69-3.06 2.96c-2.41-.16-4.83.02-7.19.53-4.02-.74-8.07-1.27-12.09-2.01-2.61-.46-5.18-1.32-7.84-1.35-1.81.31-3.13 1.77-4.58 2.78-4.48-.24-8.87-1.61-12.33-4.55-1.07 1.15-1.85 3.05-3.67 3.03-4.78.45-8.88-2.85-13.56-3.03-1.37.77-2.42 1.95-3.56 3l-5.43-4.51c-4.45 2.19-9.5-.12-14.2.15l.83-2.56-4.74-.63-.18 3.69c-5.81-2.59-12.22-1.84-18.39-2.13-3.7.27-7.36 1.6-11.08.72l-1.43 2.41-4.12-3.52c-3.16 3.63-4.27 8.41-6.09 12.75.43-5.63.23-11.33-.66-16.91-.37-2.78-1.77-5.26-3.22-7.61l.11-2.55 1.01-2.02c4.54-2.09 8.35-5.46 10.57-9.98l1.98-.68c1.19-.17 2.37-.34 3.55-.57 4.21-4.4 4.12-10.83 4.26-16.51-.13-2.76-.53-5.48-.97-8.2z"/><path fill="#76786f" d="M269.13 205.16c6.52-.73 12.48-4.48 19.19-3.66l.25 2.79 1.81.19c.25 2.79.54 5.66 1.86 8.19 1.49 3.17 4.56 5.07 6.84 7.6.45 2.2-1.28 4.63-3.66 3.62-1.66-1.9-2.89-4.11-4.24-6.22l-4.31 5.62c-1.18-1.8-2.43-3.56-3.78-5.23 1.6-.26 3.32-.38 4.73-1.27 1.41-1.6 1.72-3.84 2.42-5.79-1.82.52-3.74.86-5.38 1.83-1.21 1.12-2.03 2.56-2.93 3.91-3.78-4.38-8.71-7.52-12.8-11.58z"/><path fill="#898880" d="M234.91 202.03c1.13 3.48 2.08 7.02 3.3 10.47-1.68.79-3.34 1.62-4.99 2.45l-1.09-1.57c-1.83 2.55-4.63 4.96-4.72 8.32 0 3.98 4.82 5.07 6.32 8.21.31 2.44-.77 4.78-1.34 7.12-.17-2.13-.12-4.4-1.15-6.33-1.79-2.47-4.41-4.18-6.76-6.07.13-4.47-.26-8.99.65-13.41l2.98-5.26 6.8-3.93z"/><path fill="#494948" d="M315.28 202.97l3.84 4.05c-.14 5.68-.05 12.11-4.26 16.51-1.38-3.5-2.66-7.03-3.86-10.59l1.37-.7 1.36-.76a35.33 35.33 0 0 0-1.5-5.18l3.05-3.33z"/><path fill="#757675" d="M224.68 204.28l3.43 1.68-2.98 5.26c-1.35 2-2.88 3.88-4.39 5.77l-.09-5.21c1.07-2.63 2.52-5.09 4.03-7.5z"/><path fill="#262623" d="M290.38 204.48c1.87.18 3.86.49 5.24 1.9 3.98 3.58 7.28 8.37 12.79 9.73.81 2.72 1.92 5.33 2.9 7.99l-1.98.68-.68-3.14c-2.02-1.39-4.05-2.76-5.9-4.36-4.23-4.17-8.28-8.51-12.37-12.8z"/><path fill="#85817a" d="M259.94 206.17l.55-1.58 3.57 3.25 1.37-2.1c3.39 2.15 6.28 4.93 9.03 7.82 3.88 4.07 8.81 7.33 11.44 12.45 1.67 3.25 3.3 6.55 5.65 9.38.41 2.81.71 5.63 1.06 8.46l-3.85-1.48c-4.2-7.74-7.84-15.76-12.19-23.42-2.16-3.36-5.91-5.06-9.33-6.84l-1.44-.73-1.07.89-4.79-6.1z"/><path fill="#686a62" d="M290.38 204.48l12.37 12.8c.21 2.94.73 5.95.12 8.89-.83 3.09-2.66 5.77-4.11 8.59l-1.01 2.02-4.53 1.42c.59 4.08 1.08 8.17 1.37 12.28l4.23 2.86.18 1.78c-1.66-.6-3.3-1.23-4.98-1.76-.21.22-.65.66-.87.88-1.3 1.32-2.59 2.67-3.74 4.13 1.64-5.22 2.02-11.04-.65-16l3.85 1.48-1.06-8.46c-.43-4.39-2.27-8.46-4.68-12.1l4.31-5.62c1.35 2.11 2.58 4.32 4.24 6.22 2.38 1.01 4.11-1.42 3.66-3.62-2.28-2.53-5.35-4.43-6.84-7.6-1.32-2.53-1.61-5.4-1.86-8.19z"/><path fill="#838079" d="M245.86 207.2c2.82 1 5.81 1.24 8.78 1.34l4.43.3c1.9 6.09 4.07 12.32 3.65 18.8-.64 5.24-.78 10.52-.4 15.78-1.61 2.36-3.15 4.78-5.02 6.96-3.59 4.25-9.32 6.62-14.87 6.12-3.61-.29-7.23-.64-10.86-.54-.4 0-1.19-.02-1.59-.02 3.1 4.02 7.32 7.04 12.25 8.38l-.73 2.59c-.43.07-1.29.19-1.72.25l-.84-1.41c-2.79-.87-5.7-1.78-7.78-3.94-2.48-2.42-5.42-5.26-4.93-9.06l3.81 1.4c.17-.31.49-.94.66-1.26l.84-1.79c2.52 1.34 5.04 2.88 7.9 3.35 2.92.45 5.84-.33 8.61-1.17 1.6-.51 3.16-1.14 4.74-1.74 1.26-6.14 2.03-12.39 2.24-18.66.22-4.58-2.89-8.27-4.94-12.07-.45-1.91-.88-3.82-1.13-5.77l.07-2.47a242.93 242.93 0 0 0 7.35-2.43c-3.81-.32-7.62-.4-11.42-.74-.99-.4-1.96-.84-2.93-1.28l3.83-.92z"/><path fill="#66635d" d="M259.94 206.17l4.79 6.1 1.07-.89 1.44.73c-.59 3.41-.64 6.92.29 10.27.59 1.67 1.36 3.27 2.11 4.87l-1.67 3.22-1.05-4.03-4.2 1.2c.42-6.48-1.75-12.71-3.65-18.8a59.44 59.44 0 0 1 .87-2.67z"/><path fill="#9b9990" d="M238.95 209.62l3.08-1.5 2.93 1.28.27 5.7.08 5.1-2.21.33-6.59-1.37-.56 6.09 7.24.95 1.97 2.02-.33 6.7c-2.94 2.26-4.52 5.63-6.43 8.69-.84 1.54-3.03 1.16-4.25.34-1.06-1.87-1.51-4-1.91-6.08l.15-.84c.57-2.34 1.65-4.68 1.34-7.12-1.5-3.14-6.32-4.23-6.32-8.21.09-3.36 2.89-5.77 4.72-8.32l1.09 1.57 4.99-2.45c1.62-.77 3.27-1.48 4.9-2.23l-4.16-.65z"/><path fill="#6f7172" opacity=".96" d="M215.07 211.98l2.61-3.22-.3 4.47a39.8 39.8 0 0 0-3.59 2.72l1.28-3.97z"/><path fill="#5e636c" d="M245.23 215.1l-.27-5.7c3.8.34 7.61.42 11.42.74a242.93 242.93 0 0 1-7.35 2.43l-.07 2.47-3.73.06z"/><path fill="#5a5b55" d="M220.74 216.99l4.39-5.77c-.91 4.42-.52 8.94-.65 13.41-.39 1.13-.83 2.24-1.26 3.35l3.16 1.92c.26 2.58.84 5.21.32 7.8-1.23 3.6-3.8 6.52-5.93 9.62l-1.37-.64c-1.33-.55-2.67-1.05-4.01-1.55.9 3.95 2.35 7.91 1.67 12.02-1.87-1.21-3.71-2.46-5.42-3.87-.65-2.11-1.23-4.23-1.8-6.34.14-2.07.39-4.11.63-6.16l5.28-1.11-.62-5.4 2.37 1.48c.45 2.8 1.27 5.53 2.12 8.23 1.74-6.2 1.44-12.74.01-18.97a135.09 135.09 0 0 0-.88 3.6c-3.16 1.71-5.9 4.08-8.3 6.74l-2.16-7.15-4.4.59c2.07-5.12 6.71-8.47 9.9-12.84a39.8 39.8 0 0 1 3.59-2.72c1.07-.51 2.17-.98 3.27-1.45-.03 1.73.03 3.47.09 5.21z"/><path fill="#888983" d="M284.86 212.83c1.64-.97 3.56-1.31 5.38-1.83-.7 1.95-1.01 4.19-2.42 5.79-1.41.89-3.13 1.01-4.73 1.27l-1.16-1.32c.9-1.35 1.72-2.79 2.93-3.91z"/><path fill="#4d4d4c" d="M267.53 222.38c-.93-3.35-.88-6.86-.29-10.27 1.34 2.16 2.83 4.29 3.69 6.71-1.02 1.29-2.23 2.41-3.4 3.56z"/><path fill="#727272" d="M267.24 212.11c3.42 1.78 7.17 3.48 9.33 6.84-.41 2.63-.76 5.28-1.33 7.88-.82-.98-1.66-1-2.53-.06-.36.31-1.06.94-1.41 1.26l1.06 3.11-3.82 1.55-.57-2.22 1.67-3.22c-.75-1.6-1.52-3.2-2.11-4.87 1.17-1.15 2.38-2.27 3.4-3.56-.86-2.42-2.35-4.55-3.69-6.71z"/><path fill="#626466" d="M308.04 214.35l2.96-1.41c1.2 3.56 2.48 7.09 3.86 10.59-1.18.23-2.36.4-3.55.57-.98-2.66-2.09-5.27-2.9-7.99-.1-.44-.28-1.32-.37-1.76z"/><path fill="#787f8d" d="M245.31 220.2l-.08-5.1 3.73-.06c.25 1.95.68 3.86 1.13 5.77.31 4.34.16 8.69.1 13.04l-2.36 1.79-3-.72c.16-2.23.27-4.47.33-6.7l.15-8.02z"/><path fill="#595752" d="M302.75 217.28c1.85 1.6 3.88 2.97 5.9 4.36l.68 3.14c-2.22 4.52-6.03 7.89-10.57 9.98 1.45-2.82 3.28-5.5 4.11-8.59.61-2.94.09-5.95-.12-8.89z"/><path fill="#8c8880" d="M236.51 219.16l6.59 1.37.09 5.67-7.24-.95.56-6.09z"/><path fill="#a7a9ae" d="M243.1 220.53l2.21-.33-.15 8.02-1.97-2.02-.09-5.67z"/><path fill="#989793" d="M250.09 220.81c2.05 3.8 5.16 7.49 4.94 12.07-.21 6.27-.98 12.52-2.24 18.66-1.58.6-3.14 1.23-4.74 1.74-2.84-.45-5.42-1.76-7.79-3.33 3.21-2.15 6.99-1.22 10.44-.32.53-4.51 1.18-9 1.89-13.49l-4.28 2.73-.48-3.23 2.36-1.79c.06-4.35.21-8.7-.1-13.04z"/><path fill="#868582" d="M219.63 225.01c1.43 6.23 1.73 12.77-.01 18.97-.85-2.7-1.67-5.43-2.12-8.23.29-2.4.76-4.78 1.25-7.14l.88-3.6z"/><path fill="#6a6c68" d="M223.22 227.98l1.26-3.35c2.35 1.89 4.97 3.6 6.76 6.07 1.03 1.93.98 4.2 1.15 6.33l-.15.84c-1.11 4.34-.83 8.81-.7 13.23l-.84 1.79c-.28-1.54-.62-3.06-.95-4.58l-2.45-.03-1.07 4.47c-.49 3.8 2.45 6.64 4.93 9.06 2.08 2.16 4.99 3.07 7.78 3.94l.84 1.41 1.72-.25.73-2.59c5.31-1.27 10.81-1.42 16.09-2.8-.48-1.38-.84-2.8-1.38-4.16l-.42 3.48c-4.24-2.27-9.07-1.57-13.66-1.26-4.14.46-7.72-1.94-11.29-3.62 3.63-.1 7.25.25 10.86.54 5.55.5 11.28-1.87 14.87-6.12 1.87-2.18 3.41-4.6 5.02-6.96.07 2.25.08 4.49-.08 6.74-.61 1.92-1.36 3.79-2.09 5.67a222.35 222.35 0 0 1 8.15-.78c-.91 2.08-1.67 4.28-3.07 6.1-1.37 1.72-3.6 2.31-5.62 2.89-3.02.76-6.04 1.52-9.01 2.45l3.36 2.54c-5.35.21-10.83.65-16.03-.95-1.55-.74-3.06-1.53-4.58-2.31l.51 3.51c-6.49-5.85-9.93-14.01-13.09-21.96 2.13-3.1 4.7-6.02 5.93-9.62.52-2.59-.06-5.22-.32-7.8l-3.16-1.92m35 33l3.08 1.43c1.07-1.81 1.62-3.83 1.51-5.93-1.87 1.13-3.35 2.73-4.59 4.5z"/><path fill="#c3c0c3" d="M272.71 226.77c.87-.94 1.71-.92 2.53.06l-.28.7-.83.25-1.42-1.01z"/><path fill="#696963" d="M203.89 228.79l4.4-.59 2.16 7.15c2.4-2.66 5.14-5.03 8.3-6.74-.49 2.36-.96 4.74-1.25 7.14l-2.37-1.48.62 5.4-5.28 1.11c-.24 2.05-.49 4.09-.63 6.16-.44-1.46-.93-2.89-1.41-4.32l-2.23-.51c-.02 4.41-.25 9.01 1.51 13.16 2.74 6.49 5.74 13.21 11.1 17.99 3.3 2.96 6.42 6.11 9.55 9.25l-3.05 1.51-7.85-8.8c-6.11-6.24-10.1-14.06-13.5-22-1.63 2.88-3.28 5.76-5.18 8.48l-1.98 2.69c1.37 3.08 3.25 5.87 5.18 8.62 1.18 1.48 1.12 3.43 1.38 5.22-2.78-4.56-5.5-9.22-9.32-13 2.48-3.05 4.65-6.32 6.53-9.77l-2.61-.75 4.81-5.03c-.31-2.91-.65-5.83-.68-8.76 1.05-3.97 1.74-8.02 1.8-12.13z"/><path fill="#858487" d="M274.09 230.25l.82.01.41.71-.41.72-.83-.01-.41-.71.42-.72z"/><path fill="#2a2c2e" d="M271.28 236.09l1.77-4.53c-.02 2.9-.27 5.8-.59 8.68l-.35-.89-.83-3.26z"/><path fill="#79756e" d="M274.41 236.04c.54-1.09 1.35-2 2.1-2.95 2.31 4.52 6.65 8.99 5.5 14.44-.8 4.4.99 8.84-.17 13.22l-2.1-.76c.19-5.46-2.04-10.53-2.99-15.82-.52-2.79-1.63-5.4-2.34-8.13z"/><path fill="#7a4445" d="M264.72 236.8l3.03-3.17.3 4.56-3.33-1.39z"/><path fill="#656261" d="M263.9 246.94c3.58-3.64 5.62-8.33 6.68-13.26l.7 2.41.83 3.26c-.99 3.09-1.61 6.27-2.05 9.49-2.05-.67-4.1-1.29-6.16-1.9z"/><path fill="#8d8b84" d="M238.4 243.61c1.91-3.06 3.49-6.43 6.43-8.69l3 .72.48 3.23 4.28-2.73c-.71 4.49-1.36 8.98-1.89 13.49-3.45-.9-7.23-1.83-10.44.32 2.37 1.57 4.95 2.88 7.79 3.33-2.77.84-5.69 1.62-8.61 1.17-2.86-.47-5.38-2.01-7.9-3.35-.13-4.42-.41-8.89.7-13.23.4 2.08.85 4.21 1.91 6.08 1.22.82 3.41 1.2 4.25-.34z"/><path fill="#494947" d="M293.22 238.2l4.53-1.42-.11 2.55c.35 4.69 2.12 9.25 1.18 14.01-1.4-.98-2.82-1.91-4.23-2.86-.29-4.11-.78-8.2-1.37-12.28z"/><path fill="#3f4040" d="M270.06 248.84c.44-3.22 1.06-6.4 2.05-9.49l.35.89c2.91 6.34 5.29 13.18 4.37 20.26-7.66 2.4-15.1 5.72-21.56 10.55-1.21.93-2.46 1.89-3.26 3.22-.09 1.93.31 3.84.64 5.73l-.68-.02c-1.56-1.3-2.86-2.87-4.45-4.13-2.03-1.55-4.49-2.36-6.58-3.82-1.31-1.05-2.09-2.59-3.01-3.95 5.2 1.6 10.68 1.16 16.03.95l-3.36-2.54c2.97-.93 5.99-1.69 9.01-2.45 2.02-.58 4.25-1.17 5.62-2.89 1.4-1.82 2.16-4.02 3.07-6.1a222.35 222.35 0 0 0-8.15.78c.73-1.88 1.48-3.75 2.09-5.67l.59-1.85c1.06 1.2 2.04 2.5 3.35 3.45 1.9.27 2.81-1.73 3.88-2.92z"/><path fill="#7a7776" d="M298.82 253.34c.94-4.76-.83-9.32-1.18-14.01 1.45 2.35 2.85 4.83 3.22 7.61.89 5.58 1.09 11.28.66 16.91-.48 2.69-.24 5.43.31 8.09l-3.6.87c.85-2.83 1.88-5.69 1.8-8.69-.1-3.02-.7-6-1.03-9l-.18-1.78z"/><path fill="#434441" d="M201.71 249.19c-.14-2.76-.23-5.55.38-8.27.03 2.93.37 5.85.68 8.76l-4.81 5.03c-2.23-.78-4.27-1.97-6.26-3.21l2.27-2.64 7.74.33z"/><path fill="#89867b" d="M206.2 242.11l2.23.51 1.41 4.32 1.8 6.34c1.07 3.73 2.06 7.6 4.3 10.85 3.35 4.86 7.35 9.25 11.8 13.13 2.3 2.01 4.38 4.25 6.29 6.63a119.09 119.09 0 0 1-3.78-.03l-1.89-1.35c-3.13-3.14-6.25-6.29-9.55-9.25-5.36-4.78-8.36-11.5-11.1-17.99-1.76-4.15-1.53-8.75-1.51-13.16z"/><path fill="#646563" d="M215.39 245.13l4.01 1.55c1.07 6.43 3.24 12.69 6.6 18.29 1.38 2.32 3.67 3.83 5.79 5.41 2.49 1.77 4.7 3.87 6.92 5.95-3.17-.9-6.42-1.44-9.66-2 2.68 3.47 4.19 8.59 8.65 10.16 3.32.73 6.8 1.58 8.96 4.45-1.9.51-3.79 1.18-5.77 1.31-2.44-.15-4.76-.97-7.13-1.51l.42-2.24-3.93-2.64a119.09 119.09 0 0 0 3.78.03c-1.91-2.38-3.99-4.62-6.29-6.63-4.45-3.88-8.45-8.27-11.8-13.13-2.24-3.25-3.23-7.12-4.3-10.85 1.71 1.41 3.55 2.66 5.42 3.87.68-4.11-.77-8.07-1.67-12.02z"/><path fill="#95928a" d="M219.4 246.68l1.37.64c3.16 7.95 6.6 16.11 13.09 21.96l-2.07 1.1c-2.12-1.58-4.41-3.09-5.79-5.41-3.36-5.6-5.53-11.86-6.6-18.29z"/><path fill="#4b4d4d" d="M227.3 248.28l2.45.03.95 4.58-.66 1.26-3.81-1.4 1.07-4.47z"/><path fill="#585754" d="M189.64 249.64l4.33-.78-2.27 2.64c1.99 1.24 4.03 2.43 6.26 3.21l2.61.75c-1.88 3.45-4.05 6.72-6.53 9.77l-4.63 1.91 4.16.73c3.12 4.3 5.83 8.92 7.58 13.97-2-1.29-4.01-2.56-5.95-3.93-3.66-4.46-6.21-9.65-9.47-14.38.41-4.7.9-9.5 3.16-13.73-.53 1.32-.2 2.29.98 2.9 1.77-.18.94-2.61-.23-3.06M187.59 260c.19 1.49 1.57 2.4 2.43 3.52a38.01 38.01 0 0 0 3.13-5.83c-1.97.38-4.38.38-5.56 2.31z"/><path fill="#737473" opacity=".98" d="M188.89 249.8l.75-.16c1.17.45 2 2.88.23 3.06-1.18-.61-1.51-1.58-.98-2.9z"/><path fill="#94958c" d="M198.78 261.7c1.9-2.72 3.55-5.6 5.18-8.48 3.4 7.94 7.39 15.76 13.5 22-2.17.9-4.55 2.5-6.93 1.33-3.28-1.01-4.96-4.16-6.14-7.12-1.17-3.03-3.41-5.42-5.61-7.73z"/><path fill="#4e4b47" d="M294.02 253.36l4.98 1.76 1.03 9c.08 3-.95 5.86-1.8 8.69l3.6-.87c.85 4.91.85 9.91 1.31 14.86.22 2.15-.04 4.32-.73 6.38-.33-6.13-1.32-12.19-2.23-18.25l-2.04 2.39c-1.33-1.49-2.62-3.02-3.75-4.66 1.22-2.3 2.67-4.54 3.24-7.11.4-2.48-.14-4.98-.44-7.45-2 1.62-4.02 3.22-5.92 4.96.76-2.92 1.21-5.89 1.88-8.82l.87-.88z"/><path fill="#807f77" d="M289.41 258.37c1.15-1.46 2.44-2.81 3.74-4.13l-1.88 8.82-1.02 1.01-1.61-3.08.77-2.62z"/><path fill="#534e47" d="M229.98 255.94l1.59.02c3.57 1.68 7.15 4.08 11.29 3.62 4.59-.31 9.42-1.01 13.66 1.26l.42-3.48c.54 1.36.9 2.78 1.38 4.16-5.28 1.38-10.78 1.53-16.09 2.8-4.93-1.34-9.15-4.36-12.25-8.38z"/><path fill="#848485" d="M258.22 260.98c1.24-1.77 2.72-3.37 4.59-4.5.11 2.1-.44 4.12-1.51 5.93l-3.08-1.43z"/><path fill="#70706f" d="M187.59 260c1.18-1.93 3.59-1.93 5.56-2.31a38.01 38.01 0 0 1-3.13 5.83c-.86-1.12-2.24-2.03-2.43-3.52z"/><path fill="#6d6a64" d="M291.27 263.06l5.92-4.96c.3 2.47.84 4.97.44 7.45-.57 2.57-2.02 4.81-3.24 7.11l-2.2-3.61-.89-4.23-3.11 2.31-8.6 5.75-1.88-3.86c3.87-2.36 7.41-5.2 10.93-8.03l1.61 3.08a48.57 48.57 0 0 1 1.02-1.01z"/><path fill="#808179" d="M196.8 264.39l1.98-2.69c2.2 2.31 4.44 4.7 5.61 7.73 1.18 2.96 2.86 6.11 6.14 7.12 2.38 1.17 4.76-.43 6.93-1.33l7.85 8.8-6.45 2.95c-4.63.87-9.56.53-13.6-2.09-.75-2.18-1.36-4.41-1.9-6.65-.26-1.79-.2-3.74-1.38-5.22-1.93-2.75-3.81-5.54-5.18-8.62z"/><path fill="#8f9193" d="M185.73 263.53c3.26 4.73 5.81 9.92 9.47 14.38.42.96.83 1.94 1.22 2.93l-2.16.97c-2.76-5.85-7.46-10.82-8.64-17.34l.11-.94z"/><path fill="#6c6a64" d="M261.85 271.76c4.91-2.98 9.91-5.96 15.5-7.48-3.17 3.65-7.79 5.55-11.08 9.08-1.54-.33-2.99-.96-4.42-1.6z"/><path fill="#707372" d="M183.71 267.28l1.91-2.81c1.18 6.52 5.88 11.49 8.64 17.34l2.16-.97c-.39-.99-.8-1.97-1.22-2.93 1.94 1.37 3.95 2.64 5.95 3.93 1.72 4.34 2.17 9.95 6.96 12.15l.6 3.28-5.66-2.44c-.53-2.34-.95-4.73-1.86-6.97-1.06-2.55-3.44-4.16-5.44-5.92.31 2.59.76 5.16 1.29 7.71-2.03-2.9-4.58-5.36-7.27-7.64-2.93-4.47-6.24-9.12-6.06-14.73z"/><path fill="#40413f" d="M288.19 267.13l3.11-2.31.89 4.23-2.04 2.66c-2.44 3.2-5.75 5.56-9.28 7.43l-.66-4.4c3.01-2.15 5.55-4.84 7.98-7.61z"/><path fill="#3e3d3b" d="M189.41 267.14l4.63-1.91c3.82 3.78 6.54 8.44 9.32 13 .54 2.24 1.15 4.47 1.9 6.65l4.07 9.96-1.22-.85c-4.79-2.2-5.24-7.81-6.96-12.15-1.75-5.05-4.46-9.67-7.58-13.97l-4.16-.73z"/><path fill="#555654" d="M233.35 265.77l4.58 2.31c.92 1.36 1.7 2.9 3.01 3.95 2.09 1.46 4.55 2.27 6.58 3.82 1.59 1.26 2.89 2.83 4.45 4.13l2.17 1.75-4.21.95-4.97-3.08c-2.65 1.26-5.13 2.86-7.26 4.89-4.46-1.57-5.97-6.69-8.65-10.16 3.24.56 6.49 1.1 9.66 2 1.13.81 2.23 1.68 3.49 2.3 1.51-.2 2.94-.73 4.4-1.16-4.07-2.99-8.38-5.65-12.74-8.19l-.51-3.51z"/><path fill="#434644" d="M183.24 275.97l.47-8.69c-.18 5.61 3.13 10.26 6.06 14.73.47 4.64 1.27 9.25 2.51 13.76l-6.56.61c0 2.91.36 5.8.99 8.64.5 2.98.21 6.01.09 9.02a39.88 39.88 0 0 0 1.28 3.72c-1.25-1.3-2.67-2.71-2.36-4.68.22-5.81-.18-11.62-1.45-17.3-1.48-6.51-1.02-13.2-1.03-19.81z"/><path fill="#787a72" d="M279.59 272.88c2.82-1.98 5.72-3.85 8.6-5.75-2.43 2.77-4.97 5.46-7.98 7.61-2.07 1.61-4.43 2.88-7.04 3.34-6.45.61-12.75 2.09-19.03 3.65l-2.17-1.75.68.02c6.39-.92 12.71-2.32 18.95-3.99l-1.11-3.49c2.48-1 4.88-2.2 7.22-3.5l1.88 3.86z"/><path fill="#7a766e" d="M233.86 269.28c4.36 2.54 8.67 5.2 12.74 8.19-1.46.43-2.89.96-4.4 1.16-1.26-.62-2.36-1.49-3.49-2.3-2.22-2.08-4.43-4.18-6.92-5.95l2.07-1.1z"/><path fill="#5d5c58" d="M290.15 271.71l2.04-2.66 2.2 3.61c1.13 1.64 2.42 3.17 3.75 4.66l1.26 12.14c-2.87-.32-5.86-.42-8.49-1.74-2.34-.99-4.55-2.69-7.21-2.6-3.22.11-6.44.76-9.39 2.06-1.96.89-2.93 2.94-4.11 4.62l-.6-5.56-4.81.6-9.12.19c5.57-2.08 11.42-3.21 17.35-3.64l1.64 1.14c3.98-4.27 9.89-5.29 15.47-5.52-1.06 1.85-2.37 3.53-3.84 5.07 2.23-.82 4.49-1.55 6.77-2.25-.05-2.1.03-4.21-.23-6.29-.09-1.69-1.65-2.68-2.68-3.83z"/><path fill="#5e5c58" d="M252.01 274.27c.8-1.33 2.05-2.29 3.26-3.22 1.99 1.29 4.36 1.46 6.58.71 1.43.64 2.88 1.27 4.42 1.6l4.22-.84 1.11 3.49c-6.24 1.67-12.56 3.07-18.95 3.99-.33-1.89-.73-3.8-.64-5.73z"/><path fill="#6e7069" d="M280.87 279.14c3.53-1.87 6.84-4.23 9.28-7.43 1.03 1.15 2.59 2.14 2.68 3.83.26 2.08.18 4.19.23 6.29-2.28.7-4.54 1.43-6.77 2.25 1.47-1.54 2.78-3.22 3.84-5.07-5.58.23-11.49 1.25-15.47 5.52l-1.64-1.14.15-5.31c2.61-.46 4.97-1.73 7.04-3.34l.66 4.4z"/><path fill="#7a7675" opacity=".98" d="M298.14 277.32l2.04-2.39c.91 6.06 1.9 12.12 2.23 18.25-.43 1.45-.95 2.87-1.41 4.32l-.24-.92a68.75 68.75 0 0 1-1.36-7.12c-.53-4.04-.82-8.1-1.26-12.14z"/><path fill="#3f4140" d="M254.14 281.73c6.28-1.56 12.58-3.04 19.03-3.65l-.15 5.31c-5.93.43-11.78 1.56-17.35 3.64-3.03.52-6.06 1.06-9.01 1.91-2.16-2.87-5.64-3.72-8.96-4.45 2.13-2.03 4.61-3.63 7.26-4.89l4.97 3.08 4.21-.95z"/><path fill="#535555" d="M189.77 282.01c2.69 2.28 5.24 4.74 7.27 7.64-.53-2.55-.98-5.12-1.29-7.71 2 1.76 4.38 3.37 5.44 5.92.91 2.24 1.33 4.63 1.86 6.97-2.37-1.01-4.78-1.96-7.19-2.86 1.47 1.85 2.78 3.94 4.77 5.28 2.61 1.34 5.61 1.51 8.45 2.04l-.37-2.02-.6-3.28 1.22.85 3.74 3.32-2.32 3.4c-2.51 4.58-7.69 5.98-12.21 7.72 1.78.37 3.55.93 5.39.92 3.5-.68 6.19-3.23 8.88-5.39l-.62 5.4c-.5 3.3-.21 7.1-2.64 9.73-1.13-1.23-2.26-2.47-3.48-3.61-1.12-.75-2.24-.62-3.36.4-2.51.4-5.05.53-7.55.91l-4.09-4.04c.25-2.06.61-4.14.4-6.22-1.42-1.08-3.13-1.68-4.76-2.36-.63-2.84-.99-5.73-.99-8.64l6.56-.61c-1.24-4.51-2.04-9.12-2.51-13.76z"/><path fill="#454643" d="M225.31 284.02l3.05-1.51 1.89 1.35 3.93 2.64-.42 2.24c-3-.48-6.05-.45-9.08-.41-.69 3.67-1.49 7.54-4.12 10.37-1.38 1.1-2.81 2.15-4.21 3.23l-5.6-.37 2.32-3.4c2.11-.85 4.41-1.43 6.2-2.89 1.35-1.51 2.21-3.36 3.22-5.09-2.45 1.65-4.9 3.3-7.44 4.81 1.12-2.74 2.4-5.42 3.81-8.02 2.2-.86 4.33-1.9 6.45-2.95z"/><path fill="#616159" d="M205.26 284.88c4.04 2.62 8.97 2.96 13.6 2.09-1.41 2.6-2.69 5.28-3.81 8.02 2.54-1.51 4.99-3.16 7.44-4.81-1.01 1.73-1.87 3.58-3.22 5.09-1.79 1.46-4.09 2.04-6.2 2.89l-3.74-3.32a358.32 358.32 0 0 1-4.07-9.96z"/><path fill="#6f6e68" d="M274.31 287.18c2.95-1.3 6.17-1.95 9.39-2.06 2.66-.09 4.87 1.61 7.21 2.6 2.63 1.32 5.62 1.42 8.49 1.74a68.75 68.75 0 0 0 1.36 7.12c-5.66.52-11.35 1.14-16.84 2.71-4.02 1.26-8.2-.03-12.24-.49-.41-2.36-1.02-4.67-1.48-7 1.18-1.68 2.15-3.73 4.11-4.62m-.22 3.15c-.35 1.37-1.24 3.26.37 4.23 4.59 2.4 10.08 1.92 14.95.77 1.86-.43 2.14-2.66 2.89-4.1-6.03-.85-12.13-.83-18.21-.9z"/><path fill="#040404" opacity=".74" d="M264.79 286.84l4.81-.6.6 5.56 1.48 7c.68 7.04 1.09 14.12 2.7 21.03.99 4.74 2.07 9.52 1.98 14.39-.32 4.77-.45 9.55.09 14.3-1.93 6.11.01 12.38-.15 18.6l-3.04-.66c1.32-10.34 1.32-20.8.46-31.18-.45-4.92.77-9.86-.04-14.76-.54-3.32-1.48-6.55-2.14-9.84-1.69-7.82-1.64-15.91-3.69-23.66l-3.06-.18z"/><path fill="#8b8d84" d="M274.09 290.33c6.08.07 12.18.05 18.21.9-.75 1.44-1.03 3.67-2.89 4.1-4.87 1.15-10.36 1.63-14.95-.77-1.61-.97-.72-2.86-.37-4.23z"/><path fill="#606264" d="M195.86 291.97l7.19 2.86 5.66 2.44.37 2.02c-2.84-.53-5.84-.7-8.45-2.04-1.99-1.34-3.3-3.43-4.77-5.28z"/><path fill="#5e605e" d="M283.92 299.29c5.49-1.57 11.18-2.19 16.84-2.71l.24.92.16 1.69-2.75-1.75c-2.45 4.81-2.04 10.36-1.7 15.57.16 2.42 1.64 4.43 2.69 6.53-.05.43-.17 1.29-.23 1.72l-.82-.2c-1.14-.27-2.26-.57-3.38-.87-2.57-.81-5.02-2.01-7.7-2.46-4.38-.65-8.94.09-12.89 2.1-1.61-6.91-2.02-13.99-2.7-21.03 4.04.46 8.22 1.75 12.24.49z"/><path fill="#464747" d="M296.71 313.01c-.34-5.21-.75-10.76 1.7-15.57l2.75 1.75c.75 6.83.27 13.77-1.76 20.35-1.05-2.1-2.53-4.11-2.69-6.53z"/><path fill="#010101" opacity=".74" d="M220.56 298.7c.63 1.31 1.83 2.55 1.67 4.1-2.52 3.43-6.53 5.22-10.04 7.41l.62-5.4 3.54-2.88 4.21-3.23z"/><path fill="#7f6353" d="M210.75 301.56l5.6.37-3.54 2.88c-2.69 2.16-5.38 4.71-8.88 5.39-1.84.01-3.61-.55-5.39-.92 4.52-1.74 9.7-3.14 12.21-7.72z"/><path fill="#6b6862" d="M186.71 305.02c1.63.68 3.34 1.28 4.76 2.36.21 2.08-.15 4.16-.4 6.22l-4.27.44c.12-3.01.41-6.04-.09-9.02z"/><path fill="#828180" d="M186.8 314.04l4.27-.44 4.09 4.04-3.75 2.17-1.79-.42-1.54-1.63-1.28-3.72z"/><path fill="#909092" d="M202.71 316.73c1.12-1.02 2.24-1.15 3.36-.4.47 2.28-3.19 2.63-3.36.4z"/><path fill="#6d6d6c" d="M206.07 316.33c1.22 1.14 2.35 2.38 3.48 3.61l-1.35 1.09c-5.62.78-11.33.28-16.79-1.22 1.23-.75 2.47-1.49 3.75-2.17 2.5-.38 5.04-.51 7.55-.91.17 2.23 3.83 1.88 3.36-.4z"/><path fill="#83867d" d="M274.38 319.83c3.95-2.01 8.51-2.75 12.89-2.1 2.68.45 5.13 1.65 7.7 2.46-.12 2.69-.07 5.43-.76 8.05-.9 3.13-3.28 5.49-5.31 7.91-4.27.26-8.77.47-12.54-1.93.09-4.87-.99-9.65-1.98-14.39z"/><path fill="#454645" opacity=".83" d="M189.62 319.39l1.79.42c5.46 1.5 11.17 2 16.79 1.22-2.1 1.54-4 3.57-6.56 4.29-2.61.34-5.2-.39-7.69-1.06 3.55.42 7.13-.05 10.59-.89-4.39-.62-8.8-1-13.19-1.61l-1.73-2.37z"/><path fill="#6d6f67" d="M294.97 320.19l3.38.87c-.26 5.04-1.14 10.01-2.35 14.9l-6.17.16-.93.03c2.03-2.42 4.41-4.78 5.31-7.91.69-2.62.64-5.36.76-8.05z"/><path fill="#403f3d" d="M298.35 321.06l.82.2c-.46 3.63-1.19 7.23-1.43 10.89-.26 2.52.96 4.82 1.73 7.14.99 2.52 1.16 5.25 1.44 7.92-.53-2.68-1.43-5.26-2.43-7.79-.57 5.9 1.28 11.66 1.4 17.55l-3.94-1.57 1.44 3.25c.12 4.02-.5 8.01-1.48 11.9l3.01 1.66-.02.93-1.1 5.74c-1.35.84-2.66 1.74-4 2.59-2.54-5.48-2.11-11.62-2.15-17.49.01-3.32.79-6.57 1.63-9.76 1.62-5.97 1.21-12.26 2.73-18.26 1.21-4.89 2.09-9.86 2.35-14.9z"/><path fill="#716e6a" opacity=".93" d="M191.35 321.76c4.39.61 8.8.99 13.19 1.61-3.46.84-7.04 1.31-10.59.89-.97-.72-1.81-1.6-2.6-2.5z"/><path fill="#626360" d="M276.36 334.22c3.77 2.4 8.27 2.19 12.54 1.93l.93-.03c1.95 8.46 2.41 17.64-1.14 25.77l-.26-4.2c.08-1.27.18-2.53.3-3.78l-8.35.34c-.5 1.52-1 3.04-1.43 4.59-.52-3.51-1.52-6.92-2.5-10.32-.54-4.75-.41-9.53-.09-14.3m4.57 11.89c.7.96 1.3 2.01 2.2 2.82 1.87.78 3.96.68 5.95.88-.69-1.81-.77-4.48-2.97-5.14-1.89-.83-3.58.66-5.18 1.44z"/><path fill="#4f5153" d="M289.83 336.12l6.17-.16c-1.52 6-1.11 12.29-2.73 18.26-.84 3.19-1.62 6.44-1.63 9.76.04 5.87-.39 12.01 2.15 17.49-1.22.15-2.44.23-3.65.25-1.34-.23-2.66-.52-3.98-.79.16-2.5.36-4.99.67-7.47.53-2.97.37-6-.34-8.92l2.2-2.65c3.55-8.13 3.09-17.31 1.14-25.77z"/><path fill="#5e5b59" opacity=".95" d="M299.88 356.97c-.12-5.89-1.97-11.65-1.4-17.55 1 2.53 1.9 5.11 2.43 7.79.13 5.48 3.47 10.89 1.04 16.28-.83-2.13-1.6-4.29-2.07-6.52z"/><path fill="#99989c" d="M280.93 346.11c1.6-.78 3.29-2.27 5.18-1.44 2.2.66 2.28 3.33 2.97 5.14-1.99-.2-4.08-.1-5.95-.88-.9-.81-1.5-1.86-2.2-2.82z"/><path fill="#434442" d="M276.3 367.12c.16-6.22-1.78-12.49.15-18.6.98 3.4 1.98 6.81 2.5 10.32.53 5.72.62 11.5-.92 17.09-.01 1.22.07 2.43.25 3.65 1.24 1.32 3.18.76 4.78.9l2.12 1.25c-3.03-.12-6.04-.51-9.04-.93-.12-4.56.04-9.12.16-13.68z"/><path fill="#7e8184" d="M280.38 354.25l8.35-.34-.3 3.78-.91-3.07-2.33.36c-.73 5.33-2.22 10.53-2.77 15.89l4.41 2.59c-.31 2.48-.51 4.97-.67 7.47l3.98.79c-1.66.03-3.31.05-4.96.01l-2.12-1.25 1.86-2.28c-2.27-.85-4.57-1.62-6.89-2.27 1.54-5.59 1.45-11.37.92-17.09.43-1.55.93-3.07 1.43-4.59m0 18.16c-.94 1.83 2.97 2.85 3.11.82-.25-1.31-2.24-1.82-3.11-.82z"/><path fill="#9d9ca1" d="M285.19 354.98l2.33-.36.91 3.07.26 4.2-2.2 2.65c.71 2.92.87 5.95.34 8.92l-4.41-2.59c.55-5.36 2.04-10.56 2.77-15.89z"/><path fill="#524e47" d="M297.38 358.65c1.75 2.78 3.66 5.5 4.78 8.63l.11.87-3.47-.65.11 4.71-3.01-1.66c.98-3.89 1.6-7.88 1.48-11.9z"/><path fill="#67625c" d="M298.8 367.5l3.47.65.18 2.67-2.3-.31-1.26 2.63.02-.93-.11-4.71z"/><path fill="#4e4c49" d="M300.15 370.51l2.3.31.09 6.78-4.75 1.28 1.1-5.74 1.26-2.63z"/><path fill="#5c5d5d" d="M280.38 372.41c.87-1 2.86-.49 3.11.82-.14 2.03-4.05 1.01-3.11-.82z"/><path fill="#5d6165" d="M278.03 375.93l6.89 2.27-1.86 2.28c-1.6-.14-3.54.42-4.78-.9-.18-1.22-.26-2.43-.25-3.65z"/></svg>