<?xml version="1.0" encoding="UTF-8" ?>
<!DOCTYPE svg PUBLIC "-//W3C//DTD SVG 1.1//EN" "http://www.w3.org/Graphics/SVG/1.1/DTD/svg11.dtd">
<svg width="512pt" height="512pt" viewBox="0 0 512 512" version="1.1" xmlns="http://www.w3.org/2000/svg">
<g id="#7b7977ff">
<path fill="#7b7977" opacity="1.00" d=" M 285.60 180.77 C 290.18 178.13 296.01 180.07 299.13 184.05 C 299.00 184.75 298.74 186.17 298.61 186.88 C 296.85 186.61 295.09 186.33 293.36 185.96 C 291.00 184.24 288.25 183.27 285.40 182.74 C 285.45 182.24 285.55 181.26 285.60 180.77 Z" />
</g>
<g id="#575a59ff">
<path fill="#575a59" opacity="1.00" d=" M 272.73 194.17 C 272.61 186.75 281.22 185.11 285.60 180.77 C 285.55 181.26 285.45 182.24 285.40 182.74 C 288.25 183.27 291.00 184.24 293.36 185.96 C 291.63 186.05 289.91 186.20 288.22 186.53 C 287.79 188.45 289.80 189.58 290.88 190.84 C 288.24 190.49 285.44 190.71 284.32 193.50 C 282.35 194.12 280.40 194.82 278.44 195.45 C 276.51 195.10 274.61 194.68 272.73 194.17 Z" />
</g>
<g id="#474947ff">
<path fill="#474947" opacity="1.00" d=" M 299.13 184.05 C 301.92 187.59 304.87 191.02 307.87 194.39 C 307.99 195.74 308.15 197.09 308.30 198.44 L 308.32 198.70 C 308.64 202.06 308.73 205.42 308.81 208.79 C 307.22 207.94 305.63 207.08 303.96 206.38 C 303.99 205.82 304.03 204.70 304.06 204.14 C 304.14 202.58 304.26 201.02 304.39 199.46 C 300.25 196.04 295.35 193.77 290.88 190.84 C 289.80 189.58 287.79 188.45 288.22 186.53 C 289.91 186.20 291.63 186.05 293.36 185.96 C 295.09 186.33 296.85 186.61 298.61 186.88 C 298.74 186.17 299.00 184.75 299.13 184.05 Z" />
</g>
<g id="#6f7070ff">
<path fill="#6f7070" opacity="1.00" d=" M 284.32 193.50 C 285.44 190.71 288.24 190.49 290.88 190.84 C 295.35 193.77 300.25 196.04 304.39 199.46 C 304.26 201.02 304.14 202.58 304.06 204.14 C 299.42 198.84 292.37 196.85 286.81 192.75 C 285.97 192.99 285.14 193.24 284.32 193.50 Z" />
</g>
<g id="#939599ff">
<path fill="#939599" opacity="1.00" d=" M 284.32 193.50 C 285.14 193.24 285.97 192.99 286.81 192.75 C 292.37 196.85 299.42 198.84 304.06 204.14 C 304.03 204.70 303.99 205.82 303.96 206.38 C 303.60 206.26 302.88 206.02 302.51 205.90 C 299.22 202.12 294.52 200.14 290.23 197.75 C 287.94 196.29 285.19 196.99 282.66 197.04 C 281.26 196.49 279.86 195.93 278.44 195.45 C 280.40 194.82 282.35 194.12 284.32 193.50 Z" />
</g>
<g id="#2c2b26ff">
<path fill="#2c2b26" opacity="1.00" d=" M 272.73 194.17 C 274.61 194.68 276.51 195.10 278.44 195.45 C 279.86 195.93 281.26 196.49 282.66 197.04 C 285.64 201.58 290.41 204.39 295.05 206.98 C 297.68 208.53 300.93 208.10 303.66 209.31 C 304.99 210.73 305.80 212.54 306.77 214.21 C 305.85 214.88 304.93 215.56 304.02 216.25 C 303.57 215.11 303.09 213.99 302.62 212.87 C 294.82 210.49 288.28 205.46 281.13 201.73 C 278.85 200.66 277.81 198.27 276.61 196.22 C 275.29 196.01 273.98 195.81 272.68 195.62 C 272.69 195.26 272.72 194.53 272.73 194.17 Z" />
</g>
<g id="#605a53ff">
<path fill="#605a53" opacity="1.00" d=" M 308.30 198.44 C 308.15 197.09 307.99 195.74 307.87 194.39 C 310.78 195.88 312.00 198.75 312.90 201.71 C 312.04 202.27 311.18 202.84 310.33 203.41 C 309.63 207.10 310.61 212.04 306.77 214.21 C 305.80 212.54 304.99 210.73 303.66 209.31 C 300.93 208.10 297.68 208.53 295.05 206.98 C 290.41 204.39 285.64 201.58 282.66 197.04 C 285.19 196.99 287.94 196.29 290.23 197.75 C 294.52 200.14 299.22 202.12 302.51 205.90 C 302.88 206.02 303.60 206.26 303.96 206.38 C 305.63 207.08 307.22 207.94 308.81 208.79 C 308.73 205.42 308.64 202.06 308.32 198.70 C 308.32 198.64 308.31 198.50 308.30 198.44 Z" />
</g>
<g id="#5b5b54ff">
<path fill="#5b5b54" opacity="1.00" d=" M 267.02 209.07 C 266.41 203.81 269.51 199.45 272.68 195.62 C 273.98 195.81 275.29 196.01 276.61 196.22 C 277.81 198.27 278.85 200.66 281.13 201.73 C 288.28 205.46 294.82 210.49 302.62 212.87 C 303.09 213.99 303.57 215.11 304.02 216.25 C 303.72 216.54 303.10 217.11 302.80 217.40 C 303.52 218.58 304.24 219.77 305.02 220.93 C 304.05 220.69 303.07 220.46 302.10 220.24 C 301.28 226.22 304.89 231.47 308.31 236.00 C 306.98 237.62 305.37 238.96 303.47 239.87 C 302.47 237.86 301.40 235.82 299.72 234.29 C 294.42 228.20 286.03 226.16 280.89 219.95 C 285.40 220.35 288.99 223.21 292.70 225.49 C 293.91 226.22 295.14 226.93 296.38 227.65 C 297.17 223.34 298.46 218.90 298.21 214.54 C 295.14 210.92 289.79 211.22 285.54 210.05 C 285.65 208.73 285.77 207.42 285.89 206.11 C 282.99 204.89 280.04 203.08 276.77 203.47 C 273.00 204.17 269.76 206.48 267.02 209.07 Z" />
</g>
<g id="#cac7caff">
<path fill="#cac7ca" opacity="1.00" d=" M 308.30 198.44 C 308.31 198.50 308.32 198.64 308.32 198.70 L 308.30 198.44 Z" />
</g>
<g id="#d29f81ff">
<path fill="#d29f81" opacity="1.00" d=" M 310.33 203.41 C 311.18 202.84 312.04 202.27 312.90 201.71 C 313.97 203.31 315.16 204.83 316.36 206.35 C 316.42 206.43 316.55 206.59 316.61 206.67 C 317.85 208.24 319.09 209.81 320.36 211.37 C 320.42 211.45 320.54 211.60 320.60 211.68 C 326.35 218.66 331.32 226.30 337.58 232.84 C 338.73 238.32 332.08 240.36 327.80 239.48 C 325.24 236.33 321.96 233.91 318.93 231.25 C 318.47 230.88 317.54 230.14 317.08 229.77 C 316.34 229.21 315.61 228.65 314.88 228.10 C 312.00 225.19 308.63 222.84 305.02 220.93 C 304.24 219.77 303.52 218.58 302.80 217.40 C 303.10 217.11 303.72 216.54 304.02 216.25 C 304.93 215.56 305.85 214.88 306.77 214.21 C 310.61 212.04 309.63 207.10 310.33 203.41 Z" />
</g>
<g id="#7f8077ff">
<path fill="#7f8077" opacity="1.00" d=" M 276.77 203.47 C 280.04 203.08 282.99 204.89 285.89 206.11 C 285.77 207.42 285.65 208.73 285.54 210.05 C 289.79 211.22 295.14 210.92 298.21 214.54 C 298.46 218.90 297.17 223.34 296.38 227.65 C 295.14 226.93 293.91 226.22 292.70 225.49 C 293.88 223.72 295.51 222.10 295.97 219.97 C 295.81 217.54 293.72 215.53 291.47 214.82 C 287.07 213.34 282.87 211.35 278.41 210.07 C 278.10 208.71 277.80 207.35 277.51 205.99 C 276.51 206.02 275.54 206.18 274.60 206.47 C 273.16 209.52 272.42 212.83 271.51 216.06 C 269.13 215.35 266.70 214.84 264.26 214.39 C 265.16 212.60 266.04 210.81 267.02 209.07 C 269.76 206.48 273.00 204.17 276.77 203.47 Z" />
</g>
<g id="#8e8e86ff">
<path fill="#8e8e86" opacity="1.00" d=" M 274.60 206.47 C 275.54 206.18 276.51 206.02 277.51 205.99 C 277.80 207.35 278.10 208.71 278.41 210.07 C 282.87 211.35 287.07 213.34 291.47 214.82 C 293.72 215.53 295.81 217.54 295.97 219.97 C 295.51 222.10 293.88 223.72 292.70 225.49 C 288.99 223.21 285.40 220.35 280.89 219.95 C 286.03 226.16 294.42 228.20 299.72 234.29 C 300.07 235.21 300.41 236.13 300.73 237.07 C 294.94 234.80 290.25 230.45 284.34 228.46 C 280.28 227.14 277.02 224.06 272.80 223.13 C 267.12 221.28 260.71 222.18 255.52 218.85 C 256.42 218.29 257.36 217.80 258.34 217.38 C 264.72 216.58 270.97 218.60 277.30 219.00 C 275.51 217.75 273.59 216.72 271.51 216.06 C 272.42 212.83 273.16 209.52 274.60 206.47 Z" />
</g>
<g id="#583c2d9f">
<path fill="#583c2d" opacity="0.62" d=" M 316.36 206.35 C 316.42 206.43 316.55 206.59 316.61 206.67 C 316.55 206.59 316.42 206.43 316.36 206.35 Z" />
</g>
<g id="#626462ff">
<path fill="#626462" opacity="1.00" d=" M 253.49 211.78 C 257.99 210.77 263.01 211.92 267.02 209.07 C 266.04 210.81 265.16 212.60 264.26 214.39 C 266.70 214.84 269.13 215.35 271.51 216.06 C 273.59 216.72 275.51 217.75 277.30 219.00 C 270.97 218.60 264.72 216.58 258.34 217.38 C 257.36 217.80 256.42 218.29 255.52 218.85 C 260.71 222.18 267.12 221.28 272.80 223.13 C 277.02 224.06 280.28 227.14 284.34 228.46 C 290.25 230.45 294.94 234.80 300.73 237.07 C 300.41 236.13 300.07 235.21 299.72 234.29 C 301.40 235.82 302.47 237.86 303.47 239.87 C 305.37 238.96 306.98 237.62 308.31 236.00 C 308.76 236.35 309.66 237.05 310.11 237.40 C 309.90 238.35 309.69 239.31 309.47 240.26 C 307.39 241.48 305.40 242.86 303.69 244.57 C 302.49 243.66 301.22 242.83 299.98 241.99 C 298.50 240.21 297.35 237.87 294.94 237.24 C 290.68 236.00 288.37 231.70 284.12 230.37 C 284.00 232.16 283.88 233.95 283.77 235.75 C 282.96 236.17 282.13 236.58 281.31 236.98 C 280.18 235.56 279.01 234.00 277.12 233.63 C 274.00 232.84 271.35 231.00 268.50 229.61 C 265.70 229.03 262.83 229.77 260.01 229.87 C 256.56 230.29 252.82 229.76 249.70 231.60 C 253.46 231.90 257.23 231.65 260.98 231.94 C 265.08 232.23 268.75 234.21 272.51 235.67 C 271.30 236.39 270.16 237.29 268.79 237.65 C 267.25 237.28 265.83 236.52 264.40 235.87 C 258.72 232.64 252.06 232.94 245.92 234.41 C 245.63 233.30 245.34 232.20 245.05 231.10 C 246.39 230.78 247.72 230.45 249.06 230.13 C 249.65 228.59 250.26 227.07 250.87 225.54 C 252.50 225.99 254.13 226.43 255.77 226.87 C 256.47 225.70 257.16 224.53 257.82 223.34 C 255.44 222.80 253.11 222.02 250.90 220.97 C 250.81 218.95 250.69 216.94 250.55 214.94 C 249.20 214.91 247.86 214.89 246.52 214.79 C 246.08 214.72 245.21 214.57 244.77 214.50 C 247.96 214.62 250.85 213.44 253.49 211.78 Z" />
</g>
<g id="#50382a9c">
<path fill="#50382a" opacity="0.61" d=" M 320.36 211.37 C 320.42 211.45 320.54 211.60 320.60 211.68 C 320.54 211.60 320.42 211.45 320.36 211.37 Z" />
</g>
<g id="#7d7e75ff">
<path fill="#7d7e75" opacity="1.00" d=" M 230.46 215.06 C 231.36 214.41 232.26 213.75 233.16 213.08 C 234.74 213.37 236.32 213.68 237.90 214.00 C 240.27 214.32 242.37 215.48 244.25 216.91 C 245.01 216.21 245.76 215.50 246.52 214.79 C 247.86 214.89 249.20 214.91 250.55 214.94 C 250.69 216.94 250.81 218.95 250.90 220.97 C 247.59 222.85 244.07 224.68 241.61 227.68 C 239.82 229.84 239.64 233.15 241.65 235.24 C 242.09 235.64 242.96 236.45 243.40 236.85 C 242.72 239.57 241.92 242.25 240.98 244.89 C 240.21 243.93 239.44 242.96 238.68 242.00 C 237.82 245.14 237.13 248.40 235.32 251.17 C 234.98 249.43 234.70 247.70 234.42 245.95 C 233.61 252.12 233.18 258.42 231.24 264.37 L 230.63 263.54 C 231.28 255.62 232.25 247.74 233.67 239.92 C 231.73 239.82 229.78 239.77 227.84 239.69 C 226.49 239.62 225.15 239.52 223.80 239.44 C 223.04 236.23 221.91 233.10 221.44 229.83 C 221.16 226.34 221.91 222.87 222.29 219.42 C 222.74 219.58 223.64 219.90 224.10 220.06 C 222.62 224.29 222.78 228.82 224.42 232.97 C 226.24 232.74 228.52 232.50 229.12 230.41 C 229.30 228.08 228.81 225.76 228.55 223.46 C 228.93 223.12 229.68 222.43 230.06 222.09 C 230.34 224.58 230.83 227.05 231.48 229.48 C 232.06 230.82 232.18 233.01 234.16 232.79 C 236.14 233.38 237.02 231.26 237.94 229.97 C 240.05 226.55 243.14 223.92 245.66 220.83 C 244.13 220.55 242.60 220.35 241.07 220.12 C 240.35 219.37 239.69 218.57 239.05 217.76 C 236.01 217.53 232.90 217.07 230.46 215.06 Z" />
</g>
<g id="#a3ffffff">
<path fill="#a3ffff" opacity="1.00" d=" M 237.90 214.00 C 240.16 214.46 242.47 214.46 244.77 214.50 C 245.21 214.57 246.08 214.72 246.52 214.79 C 245.76 215.50 245.01 216.21 244.25 216.91 C 242.37 215.48 240.27 214.32 237.90 214.00 Z" />
<path fill="#a3ffff" opacity="1.00" d=" M 301.32 297.23 C 304.34 296.34 307.31 297.73 309.54 299.73 C 308.93 300.79 308.32 301.84 307.72 302.91 C 305.79 303.07 303.86 303.22 301.94 303.47 C 301.64 301.39 301.46 299.31 301.32 297.23 M 304.13 299.11 C 304.13 299.81 304.14 301.20 304.14 301.90 C 304.90 301.93 306.40 301.99 307.15 302.02 C 307.15 301.26 307.14 299.74 307.14 298.98 C 306.38 299.02 304.88 299.08 304.13 299.11 Z" />
</g>
<g id="#696a66ff">
<path fill="#696a66" opacity="1.00" d=" M 228.98 215.44 C 229.35 215.35 230.09 215.16 230.46 215.06 C 232.90 217.07 236.01 217.53 239.05 217.76 C 239.69 218.57 240.35 219.37 241.07 220.12 C 237.85 223.21 234.65 226.33 231.48 229.48 C 230.83 227.05 230.34 224.58 230.06 222.09 C 231.25 219.72 231.00 217.25 228.98 215.44 Z" />
</g>
<g id="#5e605eff">
<path fill="#5e605e" opacity="1.00" d=" M 197.92 219.98 C 206.70 217.02 215.94 215.60 225.20 215.79 C 224.83 217.21 224.46 218.64 224.10 220.06 C 223.64 219.90 222.74 219.58 222.29 219.42 C 221.91 222.87 221.16 226.34 221.44 229.83 C 221.91 233.10 223.04 236.23 223.80 239.44 C 225.15 239.52 226.49 239.62 227.84 239.69 C 227.99 245.33 227.88 251.28 224.88 256.28 C 224.98 254.59 225.10 252.90 225.24 251.22 C 225.41 248.65 226.76 245.49 224.46 243.48 C 222.04 240.91 219.20 237.56 215.25 238.24 C 211.20 238.83 208.11 235.49 204.22 234.98 C 204.07 237.20 203.94 239.42 203.71 241.63 L 202.79 241.79 C 202.24 237.43 203.31 233.05 202.68 228.72 C 201.88 225.87 201.55 222.92 201.76 219.96 C 200.48 219.95 199.20 219.95 197.92 219.98 Z" />
</g>
<g id="#888a81ff">
<path fill="#888a81" opacity="1.00" d=" M 225.20 215.79 C 226.46 215.72 227.72 215.61 228.98 215.44 C 231.00 217.25 231.25 219.72 230.06 222.09 C 229.68 222.43 228.93 223.12 228.55 223.46 C 228.81 225.76 229.30 228.08 229.12 230.41 C 228.52 232.50 226.24 232.74 224.42 232.97 C 222.78 228.82 222.62 224.29 224.10 220.06 C 224.46 218.64 224.83 217.21 225.20 215.79 Z" />
</g>
<g id="#5e5f5fff">
<path fill="#5e5f5f" opacity="1.00" d=" M 167.75 218.52 C 169.82 218.27 171.78 217.14 173.88 217.33 C 180.44 219.27 187.34 219.37 193.95 221.10 C 190.77 221.80 187.20 223.11 186.71 226.84 C 185.41 231.01 186.61 235.34 187.56 239.45 C 185.78 240.00 184.01 240.64 182.15 240.89 C 180.52 240.28 179.23 239.06 177.84 238.05 C 177.39 239.32 176.94 240.59 176.50 241.86 C 172.17 241.74 169.92 237.30 165.79 236.60 C 167.66 236.18 169.37 235.29 171.01 234.34 C 169.21 233.11 167.59 231.19 165.35 230.89 C 162.36 232.52 159.23 234.07 155.71 233.57 C 155.14 234.67 154.58 235.78 154.08 236.91 C 153.84 238.69 153.74 240.48 153.59 242.27 C 152.08 240.95 150.81 239.40 149.90 237.62 C 148.52 237.46 147.14 237.31 145.77 237.17 C 145.06 234.14 145.01 230.98 145.86 227.98 C 148.19 227.63 150.50 227.17 152.80 226.61 C 152.98 227.08 153.33 228.02 153.51 228.48 C 158.08 227.54 162.72 226.18 167.42 227.10 C 169.90 227.59 170.41 224.44 170.70 222.67 C 165.70 222.11 160.65 222.59 155.76 223.74 C 155.36 222.99 154.96 222.25 154.55 221.52 C 155.50 220.50 156.40 219.44 157.31 218.39 C 160.78 218.52 164.28 218.90 167.75 218.52 M 170.32 219.45 C 170.07 219.73 169.56 220.29 169.30 220.57 C 170.87 221.23 172.36 222.21 174.07 222.46 C 176.71 222.13 179.32 221.56 181.99 221.55 C 178.11 220.80 174.22 220.07 170.32 219.45 Z" />
</g>
<g id="#000000c1">
<path fill="#000000" opacity="0.76" d=" M 170.32 219.45 C 174.22 220.07 178.11 220.80 181.99 221.55 C 179.32 221.56 176.71 222.13 174.07 222.46 C 172.36 222.21 170.87 221.23 169.30 220.57 C 169.56 220.29 170.07 219.73 170.32 219.45 Z" />
<path fill="#000000" opacity="0.76" d=" M 302.10 220.24 C 303.07 220.46 304.05 220.69 305.02 220.93 C 308.63 222.84 312.00 225.19 314.88 228.10 C 312.92 226.99 310.90 225.99 308.87 225.02 C 311.16 229.25 314.34 232.90 317.65 236.35 C 320.80 239.64 325.17 241.41 328.31 244.72 C 331.21 247.67 332.55 251.67 334.10 255.40 C 332.50 259.47 328.00 261.66 327.11 266.10 C 326.56 265.90 325.45 265.48 324.90 265.27 C 323.44 264.72 321.98 264.15 320.53 263.62 C 321.58 262.02 322.50 260.22 324.31 259.33 C 325.56 258.29 327.76 257.76 327.73 255.79 C 328.21 253.01 325.89 251.02 324.43 249.00 C 324.31 246.86 325.28 244.17 323.46 242.53 C 321.31 240.24 317.95 241.73 315.23 241.41 C 312.69 241.64 311.70 238.82 310.11 237.40 C 309.66 237.05 308.76 236.35 308.31 236.00 C 304.89 231.47 301.28 226.22 302.10 220.24 Z" />
</g>
<g id="#888a82ff">
<path fill="#888a82" opacity="1.00" d=" M 193.95 221.10 C 195.27 220.73 196.59 220.34 197.92 219.98 C 199.20 219.95 200.48 219.95 201.76 219.96 C 201.55 222.92 201.88 225.87 202.68 228.72 C 200.36 232.48 201.12 236.87 200.91 241.05 C 196.94 240.30 196.93 235.79 194.89 233.11 C 193.54 232.35 192.07 231.84 190.64 231.27 C 190.37 230.03 190.12 228.79 189.87 227.55 C 188.86 227.82 187.86 228.09 186.86 228.36 C 186.82 227.98 186.74 227.22 186.71 226.84 C 187.20 223.11 190.77 221.80 193.95 221.10 Z" />
</g>
<g id="#484a49ff">
<path fill="#484a49" opacity="1.00" d=" M 241.07 220.12 C 242.60 220.35 244.13 220.55 245.66 220.83 C 243.14 223.92 240.05 226.55 237.94 229.97 C 237.02 231.26 236.14 233.38 234.16 232.79 C 232.18 233.01 232.06 230.82 231.48 229.48 C 234.65 226.33 237.85 223.21 241.07 220.12 Z" />
</g>
<g id="#535351ff">
<path fill="#535351" opacity="1.00" d=" M 241.61 227.68 C 244.07 224.68 247.59 222.85 250.90 220.97 C 253.11 222.02 255.44 222.80 257.82 223.34 C 257.16 224.53 256.47 225.70 255.77 226.87 C 254.13 226.43 252.50 225.99 250.87 225.54 C 250.26 227.07 249.65 228.59 249.06 230.13 C 247.72 230.45 246.39 230.78 245.05 231.10 C 245.34 232.20 245.63 233.30 245.92 234.41 C 244.49 234.67 243.07 234.95 241.65 235.24 C 239.64 233.15 239.82 229.84 241.61 227.68 Z" />
</g>
<g id="#3a3d3cff">
<path fill="#3a3d3c" opacity="1.00" d=" M 145.86 227.98 C 147.81 224.71 151.32 223.18 154.55 221.52 C 154.96 222.25 155.36 222.99 155.76 223.74 C 160.65 222.59 165.70 222.11 170.70 222.67 C 170.41 224.44 169.90 227.59 167.42 227.10 C 162.72 226.18 158.08 227.54 153.51 228.48 C 153.33 228.02 152.98 227.08 152.80 226.61 C 150.50 227.17 148.19 227.63 145.86 227.98 Z" />
</g>
<g id="#0000000d">
<path fill="#000000" opacity="0.05" d=" M 308.87 225.02 C 310.90 225.99 312.92 226.99 314.88 228.10 C 315.61 228.65 316.34 229.21 317.08 229.77 C 317.54 230.14 318.47 230.88 318.93 231.25 C 321.96 233.91 325.24 236.33 327.80 239.48 C 328.11 240.36 328.40 241.26 328.68 242.17 C 328.85 243.50 329.75 244.53 330.90 245.18 C 331.75 245.97 332.56 246.81 333.35 247.68 C 334.87 250.88 335.64 254.35 336.25 257.83 C 335.68 256.68 335.13 255.54 334.60 254.39 C 334.47 254.64 334.23 255.15 334.10 255.40 C 332.55 251.67 331.21 247.67 328.31 244.72 C 325.17 241.41 320.80 239.64 317.65 236.35 C 314.34 232.90 311.16 229.25 308.87 225.02 Z" />
</g>
<g id="#7a7b74ff">
<path fill="#7a7b74" opacity="1.00" d=" M 187.56 239.45 C 186.61 235.34 185.41 231.01 186.71 226.84 C 186.74 227.22 186.82 227.98 186.86 228.36 C 187.86 228.09 188.86 227.82 189.87 227.55 C 190.12 228.79 190.37 230.03 190.64 231.27 C 192.07 231.84 193.54 232.35 194.89 233.11 C 196.93 235.79 196.94 240.30 200.91 241.05 C 201.12 236.87 200.36 232.48 202.68 228.72 C 203.31 233.05 202.24 237.43 202.79 241.79 C 202.25 241.86 201.16 242.01 200.62 242.09 C 196.17 241.72 191.60 241.59 187.56 239.45 Z" />
</g>
<g id="#97948cff">
<path fill="#97948c" opacity="1.00" d=" M 260.01 229.87 C 262.83 229.77 265.70 229.03 268.50 229.61 C 271.35 231.00 274.00 232.84 277.12 233.63 C 277.24 234.30 277.46 235.66 277.57 236.33 C 275.88 236.16 274.18 235.98 272.51 235.67 C 268.75 234.21 265.08 232.23 260.98 231.94 C 257.23 231.65 253.46 231.90 249.70 231.60 C 252.82 229.76 256.56 230.29 260.01 229.87 Z" />
</g>
<g id="#848489ff">
<path fill="#848489" opacity="1.00" d=" M 165.35 230.89 C 167.59 231.19 169.21 233.11 171.01 234.34 C 169.37 235.29 167.66 236.18 165.79 236.60 C 161.89 236.71 157.99 237.09 154.08 236.91 C 154.58 235.78 155.14 234.67 155.71 233.57 C 159.23 234.07 162.36 232.52 165.35 230.89 Z" />
</g>
<g id="#545553ff">
<path fill="#545553" opacity="1.00" d=" M 284.12 230.37 C 288.37 231.70 290.68 236.00 294.94 237.24 C 297.35 237.87 298.50 240.21 299.98 241.99 C 294.84 240.95 289.52 240.18 284.30 241.08 C 281.45 241.91 278.61 243.24 275.56 242.77 C 271.36 242.11 267.67 244.57 263.80 245.71 C 263.36 245.78 262.46 245.94 262.02 246.01 C 260.01 246.45 257.58 246.43 256.22 248.24 C 252.95 251.69 252.44 256.57 250.83 260.84 C 249.74 261.50 248.49 261.78 247.31 262.20 C 247.59 257.31 248.86 252.07 252.74 248.75 C 255.50 246.50 257.95 243.84 260.93 241.87 C 262.15 242.39 263.31 243.06 264.48 243.70 C 266.36 242.14 268.12 240.38 270.29 239.22 C 273.90 238.18 277.75 238.25 281.31 236.98 C 282.13 236.58 282.96 236.17 283.77 235.75 C 283.88 233.95 284.00 232.16 284.12 230.37 Z" />
</g>
<g id="#5c4435ba">
<path fill="#5c4435" opacity="0.73" d=" M 317.08 229.77 C 317.54 230.14 318.47 230.88 318.93 231.25 C 318.47 230.88 317.54 230.14 317.08 229.77 Z" />
</g>
<g id="#414241ff">
<path fill="#414241" opacity="1.00" d=" M 245.92 234.41 C 252.06 232.94 258.72 232.64 264.40 235.87 C 258.23 238.19 251.37 240.89 248.01 246.96 C 246.44 251.49 246.83 256.48 245.05 260.98 C 244.05 260.13 243.05 259.29 242.06 258.44 C 242.35 260.97 242.59 263.50 242.90 266.03 C 241.90 266.55 240.91 267.07 239.92 267.60 C 238.98 266.49 238.07 265.38 237.16 264.26 C 241.79 258.20 243.43 250.64 245.42 243.45 C 245.95 241.59 245.86 239.65 245.70 237.75 C 245.13 237.53 243.97 237.08 243.40 236.85 C 242.96 236.45 242.09 235.64 241.65 235.24 C 243.07 234.95 244.49 234.67 245.92 234.41 Z" />
</g>
<g id="#747474ff">
<path fill="#747474" opacity="1.00" d=" M 277.12 233.63 C 279.01 234.00 280.18 235.56 281.31 236.98 C 277.75 238.25 273.90 238.18 270.29 239.22 C 268.12 240.38 266.36 242.14 264.48 243.70 C 263.31 243.06 262.15 242.39 260.93 241.87 C 257.95 243.84 255.50 246.50 252.74 248.75 C 248.86 252.07 247.59 257.31 247.31 262.20 C 248.49 261.78 249.74 261.50 250.83 260.84 C 252.44 256.57 252.95 251.69 256.22 248.24 C 257.58 246.43 260.01 246.45 262.02 246.01 C 257.95 248.32 254.32 252.57 254.84 257.52 C 255.42 262.43 254.91 268.36 259.18 271.83 C 261.80 274.95 266.07 274.80 269.77 275.01 C 269.60 275.58 269.25 276.71 269.07 277.28 C 264.90 277.48 259.83 278.52 256.39 275.52 C 253.77 271.79 253.12 267.09 251.00 263.09 C 250.33 263.20 248.99 263.42 248.31 263.53 C 248.10 267.89 250.48 271.72 251.35 275.88 C 247.96 273.22 243.66 270.66 242.90 266.03 C 242.59 263.50 242.35 260.97 242.06 258.44 C 243.05 259.29 244.05 260.13 245.05 260.98 C 246.83 256.48 246.44 251.49 248.01 246.96 C 251.37 240.89 258.23 238.19 264.40 235.87 C 265.83 236.52 267.25 237.28 268.79 237.65 C 270.16 237.29 271.30 236.39 272.51 235.67 C 274.18 235.98 275.88 236.16 277.57 236.33 C 277.46 235.66 277.24 234.30 277.12 233.63 Z" />
</g>
<g id="#5a5a59ff">
<path fill="#5a5a59" opacity="1.00" d=" M 337.58 232.84 C 339.73 234.71 342.30 235.99 344.70 237.51 C 343.18 239.90 343.04 242.78 342.65 245.50 C 340.85 246.26 339.07 247.04 337.29 247.82 C 338.20 250.29 339.19 252.73 340.31 255.11 C 341.47 254.41 343.10 254.03 343.61 252.61 C 343.87 250.67 343.63 248.71 343.52 246.78 C 345.82 247.80 348.15 248.74 350.51 249.65 C 351.14 248.68 351.78 247.71 352.43 246.75 C 353.78 249.96 356.88 253.05 355.84 256.76 C 355.43 259.42 352.33 259.96 350.65 261.63 C 349.76 263.57 349.31 265.68 348.48 267.64 C 346.34 269.68 344.28 266.39 342.84 265.00 C 342.11 263.77 341.15 263.46 339.96 264.09 C 339.64 263.61 339.02 262.64 338.71 262.16 C 338.74 259.63 338.99 257.05 338.37 254.57 C 337.43 251.82 335.23 249.79 333.35 247.68 C 332.56 246.81 331.75 245.97 330.90 245.18 C 331.64 243.72 330.31 241.84 328.68 242.17 C 328.40 241.26 328.11 240.36 327.80 239.48 C 332.08 240.36 338.73 238.32 337.58 232.84 Z" />
</g>
<g id="#494a49ff">
<path fill="#494a49" opacity="1.00" d=" M 204.22 234.98 C 208.11 235.49 211.20 238.83 215.25 238.24 C 219.20 237.56 222.04 240.91 224.46 243.48 C 226.76 245.49 225.41 248.65 225.24 251.22 C 225.14 249.31 224.97 247.41 224.80 245.52 C 216.88 245.83 209.00 244.50 201.35 242.58 L 200.62 242.09 C 201.16 242.01 202.25 241.86 202.79 241.79 L 203.71 241.63 C 203.94 239.42 204.07 237.20 204.22 234.98 Z" />
</g>
<g id="#40403efe">
<path fill="#40403e" opacity="1.00" d=" M 154.08 236.91 C 157.99 237.09 161.89 236.71 165.79 236.60 C 169.92 237.30 172.17 241.74 176.50 241.86 C 176.94 240.59 177.39 239.32 177.84 238.05 C 179.23 239.06 180.52 240.28 182.15 240.89 C 184.01 240.64 185.78 240.00 187.56 239.45 C 191.60 241.59 196.17 241.72 200.62 242.09 L 201.35 242.58 C 192.91 243.05 184.48 244.93 176.00 243.86 C 169.67 242.99 163.33 244.67 157.02 243.78 C 154.18 243.55 151.34 243.53 148.50 243.46 C 148.07 242.97 147.21 241.99 146.78 241.50 C 146.44 240.06 146.07 238.62 145.77 237.17 C 147.14 237.31 148.52 237.46 149.90 237.62 C 150.81 239.40 152.08 240.95 153.59 242.27 C 153.74 240.48 153.84 238.69 154.08 236.91 Z" />
</g>
<g id="#545452ff">
<path fill="#545452" opacity="1.00" d=" M 243.40 236.85 C 243.97 237.08 245.13 237.53 245.70 237.75 C 245.86 239.65 245.95 241.59 245.42 243.45 C 243.43 250.64 241.79 258.20 237.16 264.26 C 238.07 265.38 238.98 266.49 239.92 267.60 C 240.91 267.07 241.90 266.55 242.90 266.03 C 243.66 270.66 247.96 273.22 251.35 275.88 C 250.48 271.72 248.10 267.89 248.31 263.53 C 248.99 263.42 250.33 263.20 251.00 263.09 C 253.12 267.09 253.77 271.79 256.39 275.52 C 259.83 278.52 264.90 277.48 269.07 277.28 C 272.71 276.92 276.34 276.46 279.93 275.71 C 281.79 278.06 283.18 280.74 284.07 283.60 C 281.96 283.76 279.86 283.93 277.76 284.11 C 279.56 285.34 281.40 286.50 283.28 287.62 C 281.59 288.58 279.97 289.66 278.51 290.95 C 283.14 291.19 287.72 291.95 292.34 292.35 C 289.67 292.72 287.02 293.14 284.37 293.56 C 284.33 294.77 284.29 295.99 284.27 297.21 C 287.19 297.96 289.84 299.43 291.84 301.71 C 290.30 302.28 288.77 302.85 287.23 303.42 C 288.15 304.28 289.06 305.15 290.01 305.99 C 288.94 306.50 287.91 307.07 286.89 307.66 C 288.94 309.13 291.06 310.49 293.16 311.88 C 293.56 312.27 294.35 313.04 294.74 313.43 C 293.89 314.18 293.04 314.94 292.19 315.70 C 289.80 314.30 287.51 311.30 284.43 312.40 C 287.21 315.37 290.33 318.00 293.50 320.55 C 292.85 320.36 291.54 319.97 290.89 319.77 C 290.27 320.49 289.67 321.21 289.07 321.94 C 286.65 323.23 284.21 324.48 281.74 325.67 C 278.17 326.75 274.47 327.38 270.74 327.48 C 275.38 325.09 279.43 321.80 282.80 317.83 C 281.93 317.58 281.06 317.33 280.19 317.09 C 277.65 319.84 274.84 322.36 271.56 324.20 C 272.07 321.13 272.21 318.01 272.01 314.91 C 272.18 313.68 271.47 311.59 273.10 311.12 C 275.92 309.81 278.93 308.71 281.09 306.37 C 278.47 306.59 275.86 306.89 273.25 307.18 C 273.48 306.16 273.71 305.14 273.94 304.12 C 276.14 303.01 278.27 301.77 280.30 300.39 C 282.84 301.16 285.49 302.11 288.15 301.22 C 285.23 299.45 282.17 297.37 278.62 297.40 C 273.97 297.11 269.22 299.15 264.68 297.42 C 258.92 295.38 252.37 294.48 247.91 289.93 C 250.73 288.43 253.99 288.35 257.11 288.33 C 262.24 290.24 267.70 289.64 272.95 288.62 C 268.25 287.96 263.91 285.97 259.45 284.47 C 258.02 283.13 258.53 280.79 258.17 279.00 C 256.95 279.32 255.73 279.65 254.51 279.97 C 255.06 281.71 255.60 283.46 256.15 285.21 C 252.92 283.78 249.37 282.75 246.85 280.13 C 244.07 277.27 240.75 274.92 238.41 271.66 C 236.87 268.42 233.23 267.22 231.24 264.37 C 233.18 258.42 233.61 252.12 234.42 245.95 C 234.70 247.70 234.98 249.43 235.32 251.17 C 237.13 248.40 237.82 245.14 238.68 242.00 C 239.44 242.96 240.21 243.93 240.98 244.89 C 241.92 242.25 242.72 239.57 243.40 236.85 M 234.74 254.70 C 233.50 257.02 233.10 261.80 236.64 262.09 C 237.77 257.06 239.05 252.05 239.62 246.91 C 238.46 249.80 237.03 252.54 234.74 254.70 M 261.60 282.12 C 263.50 283.38 265.35 285.43 267.87 285.00 C 267.81 282.39 265.33 280.70 263.89 278.75 C 263.12 279.86 262.36 280.99 261.60 282.12 M 272.25 280.95 C 272.24 281.71 272.21 283.23 272.20 283.99 C 273.71 283.77 275.21 283.52 276.71 283.20 C 275.70 281.49 274.27 280.45 272.25 280.95 Z" />
</g>
<g id="#475137fe">
<path fill="#475137" opacity="1.00" d=" M 310.11 237.40 C 311.70 238.82 312.69 241.64 315.23 241.41 C 317.95 241.73 321.31 240.24 323.46 242.53 C 325.28 244.17 324.31 246.86 324.43 249.00 C 325.89 251.02 328.21 253.01 327.73 255.79 C 327.76 257.76 325.56 258.29 324.31 259.33 C 322.50 260.22 321.58 262.02 320.53 263.62 C 320.14 263.75 319.36 264.01 318.98 264.15 C 319.24 262.00 319.48 259.86 319.75 257.73 C 320.97 257.98 322.21 258.69 323.48 258.39 C 324.52 256.18 325.49 253.24 323.85 251.07 C 321.97 248.40 322.27 244.93 320.81 242.08 C 318.49 242.41 316.15 243.21 313.83 242.44 C 311.22 241.43 308.93 243.16 307.00 244.71 C 307.64 246.08 308.28 247.47 308.89 248.86 C 308.61 248.66 308.05 248.27 307.77 248.07 C 306.38 246.93 305.06 245.71 303.69 244.57 C 305.40 242.86 307.39 241.48 309.47 240.26 C 309.69 239.31 309.90 238.35 310.11 237.40 Z" />
</g>
<g id="#6d6d6cff">
<path fill="#6d6d6c" opacity="1.00" d=" M 342.65 245.50 C 343.04 242.78 343.18 239.90 344.70 237.51 C 347.87 240.03 350.45 243.23 352.43 246.75 C 351.78 247.71 351.14 248.68 350.51 249.65 C 348.15 248.74 345.82 247.80 343.52 246.78 C 343.63 248.71 343.87 250.67 343.61 252.61 C 343.10 254.03 341.47 254.41 340.31 255.11 C 339.19 252.73 338.20 250.29 337.29 247.82 C 339.07 247.04 340.85 246.26 342.65 245.50 Z" />
</g>
<g id="#424443ff">
<path fill="#424443" opacity="1.00" d=" M 227.84 239.69 C 229.78 239.77 231.73 239.82 233.67 239.92 C 232.25 247.74 231.28 255.62 230.63 263.54 C 230.26 264.94 229.18 266.27 229.39 267.75 C 230.83 271.34 234.09 274.32 233.76 278.47 C 231.35 278.25 228.94 277.95 226.54 277.63 C 227.66 274.77 228.02 271.70 227.48 268.68 C 226.34 267.98 225.20 267.29 224.07 266.60 C 224.79 263.21 224.55 259.71 224.88 256.28 C 227.88 251.28 227.99 245.33 227.84 239.69 Z" />
</g>
<g id="#0000000c">
<path fill="#000000" opacity="0.05" d=" M 142.07 243.47 C 143.51 242.54 145.10 241.85 146.78 241.50 C 147.21 241.99 148.07 242.97 148.50 243.46 C 151.34 243.53 154.18 243.55 157.02 243.78 C 163.33 244.67 169.67 242.99 176.00 243.86 C 184.48 244.93 192.91 243.05 201.35 242.58 C 209.00 244.50 216.88 245.83 224.80 245.52 C 224.97 247.41 225.14 249.31 225.24 251.22 C 225.10 252.90 224.98 254.59 224.88 256.28 C 224.55 259.71 224.79 263.21 224.07 266.60 C 220.87 273.12 225.01 279.86 228.48 285.29 C 229.10 288.03 229.93 290.82 229.71 293.66 C 227.40 296.98 223.26 298.49 219.57 299.76 C 218.36 303.41 219.69 308.56 215.87 310.81 C 213.33 312.37 209.87 311.80 207.67 314.05 C 207.43 314.30 206.96 314.80 206.73 315.05 C 205.30 319.52 204.11 324.43 206.08 328.95 C 206.70 331.78 209.43 333.08 211.64 334.53 C 211.98 334.74 212.66 335.17 213.00 335.38 C 216.24 338.28 220.22 335.89 223.78 335.20 C 226.80 335.52 229.84 335.66 232.85 335.25 C 234.21 340.99 233.04 346.97 234.18 352.71 C 236.30 357.86 239.59 363.37 237.55 369.12 C 238.24 370.43 238.96 371.74 239.68 373.04 C 238.40 374.46 237.12 375.87 235.82 377.27 C 236.97 380.31 238.68 383.15 239.42 386.35 C 240.13 390.88 244.30 393.55 246.78 397.10 C 246.37 397.27 245.54 397.59 245.13 397.75 C 243.36 396.11 241.56 394.49 239.68 392.98 C 239.20 398.01 242.71 403.20 247.82 404.05 C 249.40 403.36 247.82 401.82 247.63 400.72 C 248.40 400.15 249.18 399.58 249.96 399.02 C 251.90 401.68 252.46 404.96 253.07 408.12 C 254.13 407.16 255.18 406.20 256.21 405.22 C 255.25 404.15 254.28 403.09 253.32 402.03 C 254.39 401.05 255.57 400.14 256.43 398.95 C 256.55 397.44 256.44 395.93 256.41 394.43 C 257.38 392.95 258.49 391.53 259.15 389.89 C 259.57 387.64 257.57 386.20 256.25 384.75 C 255.58 385.71 254.91 386.68 254.24 387.65 C 253.42 384.75 252.65 381.83 252.21 378.84 C 253.59 380.31 254.67 382.02 255.59 383.82 C 257.14 383.96 258.69 384.08 260.25 384.18 C 260.23 380.68 260.94 377.07 264.06 375.02 C 267.89 372.64 265.84 367.89 266.60 364.25 C 267.32 362.56 268.52 361.13 269.33 359.49 C 269.39 357.65 268.87 355.86 268.55 354.08 C 270.65 351.42 273.85 348.61 271.92 344.95 C 272.59 343.65 273.28 342.35 273.97 341.06 C 273.09 339.83 272.22 338.60 271.34 337.38 C 272.09 337.35 272.85 337.33 273.61 337.32 C 274.13 332.24 278.40 329.03 281.74 325.67 C 284.21 324.48 286.65 323.23 289.07 321.94 C 288.27 323.17 287.62 324.56 286.39 325.44 C 282.59 328.07 280.08 332.84 280.95 337.49 C 281.80 342.53 278.29 346.76 277.55 351.54 C 276.69 359.56 275.47 367.53 274.49 375.53 C 273.08 376.03 271.67 376.54 270.27 377.05 C 271.29 378.35 272.37 379.63 273.18 381.09 C 272.32 385.67 269.45 389.48 266.81 393.18 C 268.11 397.96 267.45 402.86 267.14 407.71 C 266.10 407.63 265.05 407.55 264.02 407.48 C 262.94 412.87 264.92 418.38 263.33 423.75 C 264.54 423.12 265.75 422.48 267.02 421.98 C 268.65 422.76 267.36 424.22 266.99 425.39 C 266.15 425.38 265.31 425.37 264.47 425.37 C 264.89 426.21 265.31 427.07 265.74 427.93 C 264.79 428.78 263.84 429.63 262.89 430.49 C 263.83 431.95 264.90 433.32 266.09 434.61 C 265.30 438.92 264.82 443.38 263.01 447.41 C 262.45 448.79 260.95 449.30 259.76 449.98 C 259.41 451.45 259.08 452.92 258.77 454.40 C 260.43 455.21 262.07 456.08 263.64 457.08 C 262.20 457.34 260.75 457.59 259.30 457.82 C 259.66 460.57 260.26 463.28 261.18 465.90 C 260.71 468.24 261.11 470.61 261.83 472.86 C 260.90 473.75 259.96 474.64 259.03 475.53 C 260.36 475.47 261.69 475.41 263.02 475.36 C 263.57 476.87 264.01 478.49 262.94 479.91 C 260.81 483.18 260.92 487.17 259.53 490.73 C 261.11 493.41 263.82 495.29 265.11 498.16 C 265.52 500.22 264.95 502.30 264.69 504.35 C 263.15 504.37 261.61 504.41 260.07 504.46 C 261.13 505.44 262.20 506.42 263.28 507.40 C 262.46 509.12 261.45 510.78 259.96 512.00 L 117.81 512.00 C 119.44 510.83 122.48 509.83 122.05 507.33 C 121.52 502.15 120.66 496.98 120.71 491.77 C 121.51 489.27 122.78 486.92 123.39 484.35 C 122.27 483.97 121.16 483.58 120.04 483.21 C 122.01 483.08 123.98 482.96 125.95 482.84 C 124.80 482.34 123.65 481.84 122.50 481.36 C 121.62 478.40 122.38 475.53 123.87 472.92 C 123.39 470.95 122.03 469.28 121.67 467.28 C 121.88 463.94 123.08 460.67 125.36 458.19 C 128.00 455.29 125.18 451.47 126.18 448.15 C 126.72 446.18 126.33 444.20 125.78 442.29 C 129.48 439.04 130.90 434.09 134.06 430.39 C 132.00 430.64 130.01 431.24 127.98 431.67 C 128.89 430.47 129.79 429.27 130.66 428.06 C 130.11 426.72 129.56 425.38 129.02 424.05 C 131.58 422.15 133.76 419.69 133.91 416.35 C 132.59 416.32 131.27 416.31 129.96 416.30 C 130.02 415.86 130.15 414.98 130.21 414.54 C 131.83 414.58 133.45 414.61 135.07 414.65 C 134.87 412.47 134.50 410.32 133.98 408.20 C 136.03 406.00 136.23 403.25 135.18 400.52 C 133.80 400.87 132.43 401.23 131.05 401.58 C 132.08 400.16 133.10 398.75 134.13 397.35 C 133.13 396.51 132.15 395.69 131.16 394.87 C 134.59 391.62 138.26 387.89 138.20 382.80 C 136.70 382.61 135.20 382.41 133.70 382.22 C 135.46 381.39 137.21 380.56 138.97 379.75 C 137.14 378.97 135.32 378.19 133.49 377.42 C 133.32 376.99 132.98 376.13 132.81 375.70 C 135.13 375.66 137.45 375.62 139.77 375.56 C 139.68 374.41 139.59 373.26 139.50 372.11 C 140.34 371.30 141.18 370.48 142.03 369.68 C 140.14 369.21 136.62 370.61 136.20 368.07 C 137.96 363.94 141.22 360.69 143.31 356.73 C 141.73 355.24 140.47 353.45 139.92 351.33 C 141.21 350.03 142.48 348.70 143.74 347.37 C 142.41 346.92 141.07 346.47 139.74 346.03 C 142.04 342.85 141.68 338.62 141.12 334.96 C 139.99 331.81 136.83 330.03 134.77 327.54 C 136.23 327.79 137.67 328.13 139.12 328.47 C 140.15 327.54 141.19 326.61 142.22 325.68 C 141.87 324.47 141.53 323.27 141.20 322.07 C 142.36 320.42 143.53 318.78 144.69 317.14 C 143.18 316.85 141.66 316.57 140.14 316.31 C 139.20 312.05 140.59 307.78 140.48 303.49 C 141.41 303.36 142.33 303.22 143.26 303.09 C 142.61 301.44 141.59 299.99 140.30 298.79 C 141.06 297.47 141.84 296.17 142.62 294.86 C 141.40 294.21 140.17 293.55 138.95 292.90 C 137.22 295.72 135.97 300.31 131.78 299.66 C 133.12 298.19 135.67 297.36 135.95 295.18 C 134.65 293.44 133.04 291.98 131.49 290.47 C 132.22 289.76 132.94 289.06 133.67 288.36 C 135.66 289.60 137.82 290.59 140.19 290.78 C 138.50 287.82 136.33 285.03 135.79 281.57 C 137.21 281.53 138.64 281.49 140.06 281.47 C 139.90 279.71 139.73 277.96 139.55 276.21 C 137.57 276.42 135.63 276.83 133.70 277.31 C 134.13 276.34 134.56 275.38 134.98 274.42 C 137.23 274.81 139.48 275.22 141.73 275.62 C 142.26 274.63 142.73 273.60 143.14 272.55 C 141.84 272.55 140.55 272.55 139.25 272.54 C 140.61 269.33 141.22 265.75 143.44 262.98 C 144.51 263.67 145.58 264.35 146.66 265.04 C 146.80 262.23 146.51 259.41 146.69 256.60 C 147.98 255.10 150.51 255.29 152.20 254.22 C 153.62 251.29 154.60 248.15 155.87 245.15 C 154.55 245.72 153.25 246.30 151.95 246.88 C 148.65 245.76 145.33 244.68 142.07 243.47 Z" />
</g>
<g id="#6a6d6bff">
<path fill="#6a6d6b" opacity="1.00" d=" M 275.56 242.77 C 278.61 243.24 281.45 241.91 284.30 241.08 C 283.78 244.53 280.85 246.17 277.89 247.28 L 277.24 247.07 C 272.95 245.42 268.30 245.69 263.80 245.71 C 267.67 244.57 271.36 242.11 275.56 242.77 Z" />
</g>
<g id="#83827cff">
<path fill="#83827c" opacity="1.00" d=" M 284.30 241.08 C 289.52 240.18 294.84 240.95 299.98 241.99 C 301.22 242.83 302.49 243.66 303.69 244.57 C 305.06 245.71 306.38 246.93 307.77 248.07 C 305.83 249.48 303.49 250.04 301.18 250.45 C 301.62 252.51 302.11 254.56 302.57 256.63 C 302.24 257.93 301.70 259.16 301.10 260.36 L 300.87 260.04 C 300.32 258.82 299.76 257.62 299.23 256.40 C 298.74 254.33 298.30 252.24 297.91 250.15 C 298.85 249.55 299.79 248.95 300.73 248.35 C 297.28 246.80 293.37 245.97 290.53 243.33 C 286.74 243.42 283.91 245.83 281.82 248.78 C 280.51 248.27 279.21 247.75 277.89 247.28 C 280.85 246.17 283.78 244.53 284.30 241.08 Z" />
</g>
<g id="#636571ff">
<path fill="#636571" opacity="1.00" d=" M 307.00 244.71 C 308.93 243.16 311.22 241.43 313.83 242.44 C 312.13 247.08 316.48 250.64 317.50 254.87 C 317.54 257.41 314.51 257.55 312.80 258.48 C 312.80 258.69 312.80 259.10 312.79 259.30 C 312.88 261.06 313.07 262.82 313.25 264.58 C 314.90 265.50 316.66 266.28 318.60 266.11 C 318.70 265.62 318.88 264.64 318.98 264.15 C 319.36 264.01 320.14 263.75 320.53 263.62 C 321.98 264.15 323.44 264.72 324.90 265.27 C 324.90 268.40 324.73 271.81 321.94 273.81 C 322.71 276.69 322.30 280.53 318.92 281.42 C 314.71 281.66 307.97 282.41 306.94 276.91 C 306.12 275.37 305.07 273.96 303.81 272.74 C 304.57 271.83 305.34 270.92 306.10 270.01 C 305.37 269.19 304.64 268.37 303.91 267.55 C 304.33 267.38 305.16 267.03 305.58 266.86 C 305.26 265.56 304.96 264.26 304.67 262.96 C 305.42 262.15 306.20 261.36 306.85 260.47 C 306.75 258.33 303.98 257.82 302.57 256.63 C 302.11 254.56 301.62 252.51 301.18 250.45 C 303.49 250.04 305.83 249.48 307.77 248.07 C 308.05 248.27 308.61 248.66 308.89 248.86 C 308.28 247.47 307.64 246.08 307.00 244.71 M 306.79 268.17 C 306.90 269.91 307.63 271.44 308.92 272.63 C 309.82 271.68 310.71 270.73 311.59 269.76 C 310.08 268.98 308.46 268.45 306.79 268.17 M 319.40 275.21 C 318.95 276.59 319.44 277.09 320.85 276.73 C 321.29 275.35 320.81 274.84 319.40 275.21 M 319.34 278.07 C 319.49 281.40 322.32 276.52 319.34 278.07 Z" />
</g>
<g id="#6d7086ff">
<path fill="#6d7086" opacity="1.00" d=" M 313.83 242.44 C 316.15 243.21 318.49 242.41 320.81 242.08 C 322.27 244.93 321.97 248.40 323.85 251.07 C 325.49 253.24 324.52 256.18 323.48 258.39 C 322.21 258.69 320.97 257.98 319.75 257.73 C 319.48 259.86 319.24 262.00 318.98 264.15 C 318.88 264.64 318.70 265.62 318.60 266.11 C 316.66 266.28 314.90 265.50 313.25 264.58 C 315.06 263.50 315.54 261.61 315.62 259.65 C 314.92 259.56 313.50 259.39 312.79 259.30 C 312.80 259.10 312.80 258.69 312.80 258.48 C 314.51 257.55 317.54 257.41 317.50 254.87 C 316.48 250.64 312.13 247.08 313.83 242.44 Z" />
</g>
<g id="#1d1e20d4">
<path fill="#1d1e20" opacity="0.83" d=" M 328.68 242.17 C 330.31 241.84 331.64 243.72 330.90 245.18 C 329.75 244.53 328.85 243.50 328.68 242.17 Z" />
</g>
<g id="#97958eff">
<path fill="#97958e" opacity="1.00" d=" M 281.82 248.78 C 283.91 245.83 286.74 243.42 290.53 243.33 C 293.37 245.97 297.28 246.80 300.73 248.35 C 299.79 248.95 298.85 249.55 297.91 250.15 C 298.30 252.24 298.74 254.33 299.23 256.40 C 298.95 257.58 298.64 258.76 298.33 259.93 C 297.82 259.87 296.79 259.75 296.28 259.69 C 289.26 258.51 282.13 257.99 275.02 258.53 C 275.17 260.32 275.33 262.11 275.47 263.91 C 281.08 264.86 286.93 262.25 292.30 264.56 C 290.11 265.05 287.90 265.45 285.70 265.84 C 285.52 267.19 285.35 268.53 285.19 269.88 C 279.01 271.64 272.56 270.25 266.32 269.59 C 263.32 268.78 258.79 268.45 258.18 264.68 C 257.32 261.36 257.30 257.37 259.71 254.67 C 260.95 253.22 263.07 253.50 264.77 253.12 C 264.96 251.49 265.15 249.86 265.34 248.23 C 269.31 247.94 273.28 247.56 277.24 247.07 L 277.89 247.28 C 279.21 247.75 280.51 248.27 281.82 248.78 Z" />
</g>
<g id="#87847eff">
<path fill="#87847e" opacity="1.00" d=" M 262.02 246.01 C 262.46 245.94 263.36 245.78 263.80 245.71 C 268.30 245.69 272.95 245.42 277.24 247.07 C 273.28 247.56 269.31 247.94 265.34 248.23 C 265.15 249.86 264.96 251.49 264.77 253.12 C 263.07 253.50 260.95 253.22 259.71 254.67 C 257.30 257.37 257.32 261.36 258.18 264.68 C 258.79 268.45 263.32 268.78 266.32 269.59 C 272.56 270.25 279.01 271.64 285.19 269.88 C 285.35 268.53 285.52 267.19 285.70 265.84 C 287.90 265.45 290.11 265.05 292.30 264.56 C 294.19 264.27 295.72 263.03 297.29 262.04 C 298.57 264.44 298.38 267.17 298.53 269.80 C 299.21 271.96 300.67 273.77 301.84 275.69 C 295.65 276.26 289.61 277.90 283.39 278.13 C 283.38 277.07 283.36 276.02 283.36 274.97 C 282.21 275.22 281.07 275.47 279.93 275.71 C 276.34 276.46 272.71 276.92 269.07 277.28 C 269.25 276.71 269.60 275.58 269.77 275.01 C 266.07 274.80 261.80 274.95 259.18 271.83 C 254.91 268.36 255.42 262.43 254.84 257.52 C 254.32 252.57 257.95 248.32 262.02 246.01 Z" />
</g>
<g id="#77736dff">
<path fill="#77736d" opacity="1.00" d=" M 234.74 254.70 C 237.03 252.54 238.46 249.80 239.62 246.91 C 239.05 252.05 237.77 257.06 236.64 262.09 C 233.10 261.80 233.50 257.02 234.74 254.70 Z" />
</g>
<g id="#333332e9">
<path fill="#333332" opacity="0.91" d=" M 333.35 247.68 C 335.23 249.79 337.43 251.82 338.37 254.57 C 338.99 257.05 338.74 259.63 338.71 262.16 C 337.82 260.75 336.97 259.32 336.25 257.83 C 335.64 254.35 334.87 250.88 333.35 247.68 Z" />
</g>
<g id="#74726cff">
<path fill="#74726c" opacity="1.00" d=" M 299.23 256.40 C 299.76 257.62 300.32 258.82 300.87 260.04 C 300.90 260.17 300.98 260.42 301.01 260.54 L 301.10 260.36 C 301.70 259.16 302.24 257.93 302.57 256.63 C 303.98 257.82 306.75 258.33 306.85 260.47 C 306.20 261.36 305.42 262.15 304.67 262.96 C 304.96 264.26 305.26 265.56 305.58 266.86 C 305.16 267.03 304.33 267.38 303.91 267.55 C 303.25 267.80 301.93 268.30 301.26 268.55 C 301.25 269.55 301.25 270.54 301.26 271.54 C 301.90 271.84 303.18 272.44 303.81 272.74 C 305.07 273.96 306.12 275.37 306.94 276.91 C 305.32 278.91 303.73 281.21 301.18 282.07 C 297.26 283.35 293.08 283.30 289.01 283.57 C 290.49 285.02 292.37 286.22 293.29 288.13 C 293.22 289.58 292.71 290.96 292.34 292.35 C 287.72 291.95 283.14 291.19 278.51 290.95 C 279.97 289.66 281.59 288.58 283.28 287.62 C 281.40 286.50 279.56 285.34 277.76 284.11 C 279.86 283.93 281.96 283.76 284.07 283.60 C 283.18 280.74 281.79 278.06 279.93 275.71 C 281.07 275.47 282.21 275.22 283.36 274.97 C 283.36 276.02 283.38 277.07 283.39 278.13 C 289.61 277.90 295.65 276.26 301.84 275.69 C 300.67 273.77 299.21 271.96 298.53 269.80 C 298.38 267.17 298.57 264.44 297.29 262.04 C 297.04 261.45 296.53 260.27 296.28 259.69 C 296.79 259.75 297.82 259.87 298.33 259.93 C 298.64 258.76 298.95 257.58 299.23 256.40 M 283.21 289.23 C 283.77 289.79 283.77 289.79 283.21 289.23 Z" />
</g>
<g id="#79808eff">
<path fill="#79808e" opacity="1.00" d=" M 275.02 258.53 C 282.13 257.99 289.26 258.51 296.28 259.69 C 296.53 260.27 297.04 261.45 297.29 262.04 C 295.72 263.03 294.19 264.27 292.30 264.56 C 286.93 262.25 281.08 264.86 275.47 263.91 C 275.33 262.11 275.17 260.32 275.02 258.53 M 285.42 261.29 C 285.69 262.69 289.37 262.67 289.63 261.26 C 288.42 260.47 286.61 260.50 285.42 261.29 M 291.26 261.23 C 291.81 261.78 291.81 261.78 291.26 261.23 Z" />
</g>
<g id="#e4e3e5ff">
<path fill="#e4e3e5" opacity="1.00" d=" M 312.79 259.30 C 313.50 259.39 314.92 259.56 315.62 259.65 C 315.54 261.61 315.06 263.50 313.25 264.58 C 313.07 262.82 312.88 261.06 312.79 259.30 Z" />
</g>
<g id="#ffffffff">
<path fill="#ffffff" opacity="1.00" d=" M 300.87 260.04 L 301.10 260.36 L 301.01 260.54 C 300.98 260.42 300.90 260.17 300.87 260.04 Z" />
<path fill="#ffffff" opacity="1.00" d=" M 291.26 261.23 C 291.81 261.78 291.81 261.78 291.26 261.23 Z" />
<path fill="#ffffff" opacity="1.00" d=" M 283.21 289.23 C 283.77 289.79 283.77 289.79 283.21 289.23 Z" />
</g>
<g id="#bec3cbff">
<path fill="#bec3cb" opacity="1.00" d=" M 285.42 261.29 C 286.61 260.50 288.42 260.47 289.63 261.26 C 289.37 262.67 285.69 262.69 285.42 261.29 Z" />
</g>
<g id="#63645eff">
<path fill="#63645e" opacity="1.00" d=" M 229.39 267.75 C 229.18 266.27 230.26 264.94 230.63 263.54 L 231.24 264.37 C 233.23 267.22 236.87 268.42 238.41 271.66 C 237.65 271.62 236.15 271.53 235.39 271.49 C 238.28 276.46 241.41 282.22 247.18 284.21 C 250.13 285.33 253.20 287.26 256.45 286.14 C 256.61 286.69 256.95 287.78 257.11 288.33 C 253.99 288.35 250.73 288.43 247.91 289.93 C 252.37 294.48 258.92 295.38 264.68 297.42 C 269.22 299.15 273.97 297.11 278.62 297.40 C 282.17 297.37 285.23 299.45 288.15 301.22 C 285.49 302.11 282.84 301.16 280.30 300.39 C 278.27 301.77 276.14 303.01 273.94 304.12 C 272.12 305.02 270.53 306.30 269.05 307.67 C 269.93 308.40 270.82 309.13 271.71 309.86 C 269.80 310.31 267.89 310.76 265.98 311.19 C 268.04 312.35 270.05 313.58 272.01 314.91 C 272.21 318.01 272.07 321.13 271.56 324.20 C 274.84 322.36 277.65 319.84 280.19 317.09 C 281.06 317.33 281.93 317.58 282.80 317.83 C 279.43 321.80 275.38 325.09 270.74 327.48 C 269.10 327.07 267.49 326.51 265.90 325.94 C 264.95 325.58 264.02 325.18 263.11 324.76 C 266.04 323.66 271.34 323.25 270.92 319.03 C 271.09 313.96 263.19 313.85 260.87 317.19 C 256.92 318.07 253.50 315.50 249.90 314.40 C 253.60 312.68 257.11 310.60 260.74 308.74 C 257.79 303.78 252.10 299.75 246.12 301.08 C 244.54 297.47 241.16 295.36 237.54 294.15 C 237.03 296.06 236.79 298.09 235.83 299.85 C 234.51 301.77 231.92 301.72 229.89 302.28 C 230.00 298.01 232.35 294.40 234.72 291.04 C 234.61 290.51 234.39 289.47 234.28 288.94 C 239.57 293.15 245.63 296.30 251.70 299.19 C 258.78 301.67 266.39 302.29 273.83 302.89 C 273.81 302.28 273.76 301.06 273.74 300.45 C 265.70 299.80 257.69 297.94 250.26 294.81 C 244.85 291.06 239.31 287.35 233.17 284.89 C 232.02 284.33 230.97 284.74 230.43 285.89 C 229.94 285.74 228.97 285.44 228.48 285.29 C 225.01 279.86 220.87 273.12 224.07 266.60 C 225.20 267.29 226.34 267.98 227.48 268.68 C 228.02 271.70 227.66 274.77 226.54 277.63 C 228.94 277.95 231.35 278.25 233.76 278.47 C 234.09 274.32 230.83 271.34 229.39 267.75 Z" />
</g>
<g id="#232322b9">
<path fill="#232322" opacity="0.73" d=" M 339.96 264.09 C 341.15 263.46 342.11 263.77 342.84 265.00 C 341.59 265.64 340.63 265.34 339.96 264.09 Z" />
</g>
<g id="#4b4a45ff">
<path fill="#4b4a45" opacity="1.00" d=" M 324.90 265.27 C 325.45 265.48 326.56 265.90 327.11 266.10 C 327.16 267.70 327.33 269.29 327.24 270.89 C 326.57 272.53 324.92 273.45 323.67 274.61 C 324.00 277.06 325.17 280.03 322.95 281.95 C 320.62 284.51 317.02 281.83 314.29 283.24 C 311.90 284.10 311.75 287.02 310.92 289.06 C 311.04 287.07 311.03 285.08 311.02 283.09 C 310.32 283.12 308.91 283.16 308.21 283.18 C 307.13 286.39 306.17 289.63 305.34 292.91 C 306.50 293.35 307.67 293.78 308.85 294.22 C 308.24 294.79 307.62 295.35 307.00 295.91 C 304.17 295.49 301.24 294.62 298.39 295.19 C 295.27 298.03 293.15 301.74 291.57 305.61 C 291.18 305.70 290.40 305.90 290.01 305.99 C 289.06 305.15 288.15 304.28 287.23 303.42 C 288.77 302.85 290.30 302.28 291.84 301.71 C 289.84 299.43 287.19 297.96 284.27 297.21 C 284.29 295.99 284.33 294.77 284.37 293.56 C 287.02 293.14 289.67 292.72 292.34 292.35 C 292.71 290.96 293.22 289.58 293.29 288.13 C 292.37 286.22 290.49 285.02 289.01 283.57 C 293.08 283.30 297.26 283.35 301.18 282.07 C 303.73 281.21 305.32 278.91 306.94 276.91 C 307.97 282.41 314.71 281.66 318.92 281.42 C 322.30 280.53 322.71 276.69 321.94 273.81 C 324.73 271.81 324.90 268.40 324.90 265.27 Z" />
</g>
<g id="#575858ff">
<path fill="#575858" opacity="1.00" d=" M 301.26 268.55 C 301.93 268.30 303.25 267.80 303.91 267.55 C 304.64 268.37 305.37 269.19 306.10 270.01 C 305.34 270.92 304.57 271.83 303.81 272.74 C 303.18 272.44 301.90 271.84 301.26 271.54 C 301.25 270.54 301.25 269.55 301.26 268.55 Z" />
</g>
<g id="#575859ff">
<path fill="#575859" opacity="1.00" d=" M 306.79 268.17 C 308.46 268.45 310.08 268.98 311.59 269.76 C 310.71 270.73 309.82 271.68 308.92 272.63 C 307.63 271.44 306.90 269.91 306.79 268.17 Z" />
</g>
<g id="#7d7a73ff">
<path fill="#7d7a73" opacity="1.00" d=" M 235.39 271.49 C 236.15 271.53 237.65 271.62 238.41 271.66 C 240.75 274.92 244.07 277.27 246.85 280.13 C 249.37 282.75 252.92 283.78 256.15 285.21 L 256.45 286.14 C 253.20 287.26 250.13 285.33 247.18 284.21 C 241.41 282.22 238.28 276.46 235.39 271.49 Z" />
</g>
<g id="#abaeb9ff">
<path fill="#abaeb9" opacity="1.00" d=" M 319.40 275.21 C 320.81 274.84 321.29 275.35 320.85 276.73 C 319.44 277.09 318.95 276.59 319.40 275.21 Z" />
</g>
<g id="#b0afbdff">
<path fill="#b0afbd" opacity="1.00" d=" M 319.34 278.07 C 322.32 276.52 319.49 281.40 319.34 278.07 Z" />
</g>
<g id="#2b2e31ff">
<path fill="#2b2e31" opacity="1.00" d=" M 254.51 279.97 C 255.73 279.65 256.95 279.32 258.17 279.00 C 258.53 280.79 258.02 283.13 259.45 284.47 C 263.91 285.97 268.25 287.96 272.95 288.62 C 267.70 289.64 262.24 290.24 257.11 288.33 C 256.95 287.78 256.61 286.69 256.45 286.14 L 256.15 285.21 C 255.60 283.46 255.06 281.71 254.51 279.97 Z" />
</g>
<g id="#6f6e6cff">
<path fill="#6f6e6c" opacity="1.00" d=" M 261.60 282.12 C 262.36 280.99 263.12 279.86 263.89 278.75 C 265.33 280.70 267.81 282.39 267.87 285.00 C 265.35 285.43 263.50 283.38 261.60 282.12 Z" />
</g>
<g id="#8c494bff">
<path fill="#8c494b" opacity="1.00" d=" M 272.25 280.95 C 274.27 280.45 275.70 281.49 276.71 283.20 C 275.21 283.52 273.71 283.77 272.20 283.99 C 272.21 283.23 272.24 281.71 272.25 280.95 Z" />
</g>
<g id="#919091ff">
<path fill="#919091" opacity="1.00" d=" M 308.21 283.18 C 308.91 283.16 310.32 283.12 311.02 283.09 C 311.03 285.08 311.04 287.07 310.92 289.06 L 310.74 289.91 C 310.17 291.37 309.55 292.81 308.85 294.22 C 307.67 293.78 306.50 293.35 305.34 292.91 C 306.17 289.63 307.13 286.39 308.21 283.18 Z" />
</g>
<g id="#87847bff">
<path fill="#87847b" opacity="1.00" d=" M 230.43 285.89 C 230.97 284.74 232.02 284.33 233.17 284.89 C 239.31 287.35 244.85 291.06 250.26 294.81 C 257.69 297.94 265.70 299.80 273.74 300.45 C 273.76 301.06 273.81 302.28 273.83 302.89 C 266.39 302.29 258.78 301.67 251.70 299.19 C 245.63 296.30 239.57 293.15 234.28 288.94 C 233.01 287.91 231.74 286.86 230.43 285.89 Z" />
</g>
<g id="#525251ff">
<path fill="#525251" opacity="1.00" d=" M 228.48 285.29 C 228.97 285.44 229.94 285.74 230.43 285.89 C 231.74 286.86 233.01 287.91 234.28 288.94 C 234.39 289.47 234.61 290.51 234.72 291.04 C 232.35 294.40 230.00 298.01 229.89 302.28 C 229.53 305.07 229.75 307.88 229.93 310.68 C 229.64 310.99 229.08 311.63 228.79 311.94 C 227.17 311.03 225.38 310.36 223.50 310.32 C 222.86 314.09 227.67 315.76 230.55 316.83 C 230.75 316.16 231.16 314.81 231.36 314.14 C 232.17 314.17 232.98 314.21 233.80 314.26 C 235.20 316.09 236.74 317.79 238.36 319.43 C 238.14 320.53 237.91 321.62 237.69 322.72 C 237.93 323.05 238.41 323.72 238.66 324.06 C 239.09 324.66 239.95 325.87 240.38 326.47 C 237.84 326.78 235.26 326.74 232.75 326.21 C 232.42 327.43 232.08 328.66 231.74 329.89 C 234.25 330.96 236.70 332.18 239.04 333.61 C 233.97 334.31 228.83 334.35 223.78 335.20 C 220.22 335.89 216.24 338.28 213.00 335.38 C 214.51 335.02 216.00 334.60 217.50 334.18 C 215.43 331.30 212.64 328.66 212.10 325.00 C 211.57 322.18 211.05 319.27 211.49 316.42 C 212.08 314.91 213.56 314.02 214.66 312.92 C 212.35 313.44 210.01 313.77 207.67 314.05 C 209.87 311.80 213.33 312.37 215.87 310.81 C 219.69 308.56 218.36 303.41 219.57 299.76 C 223.26 298.49 227.40 296.98 229.71 293.66 C 229.93 290.82 229.10 288.03 228.48 285.29 Z" />
</g>
<g id="#000000bf">
<path fill="#000000" opacity="0.75" d=" M 308.85 294.22 C 309.55 292.81 310.17 291.37 310.74 289.91 C 310.78 290.63 310.86 292.08 310.90 292.80 C 313.88 293.25 317.05 293.00 319.88 294.15 C 322.48 295.42 321.88 298.61 321.97 300.98 C 321.72 301.27 321.20 301.87 320.95 302.17 C 320.62 302.54 319.97 303.29 319.65 303.67 C 315.40 301.11 312.24 296.41 307.00 295.91 C 307.62 295.35 308.24 294.79 308.85 294.22 Z" />
</g>
<g id="#75786fff">
<path fill="#75786f" opacity="1.00" d=" M 237.54 294.15 C 241.16 295.36 244.54 297.47 246.12 301.08 C 252.10 299.75 257.79 303.78 260.74 308.74 C 257.11 310.60 253.60 312.68 249.90 314.40 C 243.40 312.46 236.68 311.22 229.93 310.68 C 229.75 307.88 229.53 305.07 229.89 302.28 C 231.92 301.72 234.51 301.77 235.83 299.85 C 236.79 298.09 237.03 296.06 237.54 294.15 Z" />
</g>
<g id="#787a7aff">
<path fill="#787a7a" opacity="1.00" d=" M 298.39 295.19 C 301.24 294.62 304.17 295.49 307.00 295.91 C 308.48 296.67 310.34 297.14 311.30 298.60 C 311.45 299.77 311.41 300.96 311.45 302.14 C 310.84 301.31 310.20 300.51 309.54 299.73 C 307.31 297.73 304.34 296.34 301.32 297.23 C 301.46 299.31 301.64 301.39 301.94 303.47 C 298.45 304.00 295.03 304.91 291.57 305.61 C 293.15 301.74 295.27 298.03 298.39 295.19 Z" />
</g>
<g id="#4d4d52ff">
<path fill="#4d4d52" opacity="1.00" d=" M 307.00 295.91 C 312.24 296.41 315.40 301.11 319.65 303.67 C 319.97 303.29 320.62 302.54 320.95 302.17 C 320.05 305.51 319.73 309.95 323.48 311.70 C 323.79 311.78 324.41 311.95 324.72 312.03 C 328.57 313.26 332.56 312.72 336.13 310.92 C 335.92 312.30 335.62 313.66 335.40 315.04 C 335.54 315.26 335.82 315.70 335.96 315.91 C 342.03 320.55 348.27 324.96 354.24 329.72 C 357.21 331.72 357.36 336.88 353.93 338.48 C 352.46 334.98 349.59 332.51 346.48 330.51 C 339.42 325.64 333.21 319.54 325.61 315.46 C 320.91 313.04 317.39 308.99 313.38 305.64 C 312.24 304.80 311.79 303.45 311.45 302.14 C 311.41 300.96 311.45 299.77 311.30 298.60 C 310.34 297.14 308.48 296.67 307.00 295.91 Z" />
</g>
<g id="#f5ffffff">
<path fill="#f5ffff" opacity="1.00" d=" M 304.13 299.11 C 304.88 299.08 306.38 299.02 307.14 298.98 C 307.14 299.74 307.15 301.26 307.15 302.02 C 306.40 301.99 304.90 301.93 304.14 301.90 C 304.14 301.20 304.13 299.81 304.13 299.11 Z" />
</g>
<g id="#979e8aff">
<path fill="#979e8a" opacity="1.00" d=" M 309.54 299.73 C 310.20 300.51 310.84 301.31 311.45 302.14 C 311.79 303.45 312.24 304.80 313.38 305.64 C 317.39 308.99 320.91 313.04 325.61 315.46 C 333.21 319.54 339.42 325.64 346.48 330.51 C 349.59 332.51 352.46 334.98 353.93 338.48 C 351.34 341.08 347.59 341.22 344.24 342.04 C 345.11 341.44 345.98 340.83 346.85 340.22 C 344.96 340.25 343.08 340.27 341.19 340.28 C 341.68 339.06 342.17 337.86 342.67 336.66 C 341.53 335.84 340.43 334.93 339.12 334.43 C 337.94 335.09 336.86 335.91 335.77 336.70 C 338.05 338.40 340.29 340.14 342.40 342.04 C 340.20 342.86 337.96 343.59 335.66 344.08 L 334.65 344.07 C 334.08 342.44 333.47 340.83 332.85 339.23 C 329.32 337.69 325.76 336.22 322.08 335.09 C 319.84 334.82 317.58 334.77 315.33 334.84 C 315.35 336.28 315.38 337.71 315.41 339.15 C 310.94 335.72 305.67 333.84 300.16 332.85 C 299.13 332.04 298.14 331.19 297.15 330.33 C 298.64 330.44 300.13 330.56 301.62 330.68 C 301.62 329.57 301.62 328.46 301.63 327.36 C 299.48 326.56 296.88 326.23 295.57 324.11 C 299.16 323.85 302.77 323.73 306.34 323.26 C 306.40 322.78 306.51 321.83 306.56 321.35 C 302.08 318.21 297.80 314.79 293.16 311.88 C 291.06 310.49 288.94 309.13 286.89 307.66 C 287.91 307.07 288.94 306.50 290.01 305.99 C 290.40 305.90 291.18 305.70 291.57 305.61 C 295.03 304.91 298.45 304.00 301.94 303.47 C 303.86 303.22 305.79 303.07 307.72 302.91 C 308.32 301.84 308.93 300.79 309.54 299.73 M 297.90 309.05 C 299.21 310.03 300.62 310.88 302.03 311.72 C 302.49 313.15 302.72 314.95 304.33 315.60 C 308.67 317.86 313.18 319.91 316.98 323.07 C 320.44 326.05 324.48 328.22 328.23 330.81 C 330.28 332.54 332.71 330.41 334.77 329.78 C 334.76 329.16 334.74 327.93 334.73 327.32 C 331.36 324.67 327.88 322.16 324.56 319.44 C 321.05 316.17 314.92 318.22 312.14 313.86 C 312.27 312.71 313.14 311.82 313.66 310.83 C 309.52 309.99 305.31 309.58 301.17 308.74 C 300.06 308.44 298.96 308.76 297.90 309.05 Z" />
</g>
<g id="#67676cff">
<path fill="#67676c" opacity="1.00" d=" M 320.95 302.17 C 321.20 301.87 321.72 301.27 321.97 300.98 C 326.31 303.40 331.43 302.25 336.00 303.77 C 336.04 306.15 336.16 308.53 336.13 310.92 C 332.56 312.72 328.57 313.26 324.72 312.03 C 325.19 310.77 325.44 308.81 324.07 308.03 C 322.54 308.40 323.38 310.58 323.48 311.70 C 319.73 309.95 320.05 305.51 320.95 302.17 M 330.75 305.71 C 329.66 307.31 330.12 309.37 329.95 311.19 C 331.29 311.24 332.64 311.27 333.99 311.29 C 335.04 309.39 335.14 307.24 334.83 305.13 C 333.46 305.28 332.08 305.34 330.75 305.71 Z" />
</g>
<g id="#31302eff">
<path fill="#31302e" opacity="1.00" d=" M 269.05 307.67 C 270.53 306.30 272.12 305.02 273.94 304.12 C 273.71 305.14 273.48 306.16 273.25 307.18 C 275.86 306.89 278.47 306.59 281.09 306.37 C 278.93 308.71 275.92 309.81 273.10 311.12 C 271.47 311.59 272.18 313.68 272.01 314.91 C 270.05 313.58 268.04 312.35 265.98 311.19 C 267.89 310.76 269.80 310.31 271.71 309.86 C 270.82 309.13 269.93 308.40 269.05 307.67 Z" />
</g>
<g id="#28282cfe">
<path fill="#28282c" opacity="1.00" d=" M 336.00 303.77 C 340.46 306.39 339.32 312.84 335.96 315.91 C 335.82 315.70 335.54 315.26 335.40 315.04 C 335.62 313.66 335.92 312.30 336.13 310.92 C 336.16 308.53 336.04 306.15 336.00 303.77 Z" />
</g>
<g id="#ffde45ff">
<path fill="#ffde45" opacity="1.00" d=" M 330.75 305.71 C 332.08 305.34 333.46 305.28 334.83 305.13 C 335.14 307.24 335.04 309.39 333.99 311.29 C 332.64 311.27 331.29 311.24 329.95 311.19 C 330.12 309.37 329.66 307.31 330.75 305.71 Z" />
</g>
<g id="#615f65ff">
<path fill="#615f65" opacity="1.00" d=" M 297.90 309.05 C 298.96 308.76 300.06 308.44 301.17 308.74 C 305.31 309.58 309.52 309.99 313.66 310.83 C 313.14 311.82 312.27 312.71 312.14 313.86 C 314.92 318.22 321.05 316.17 324.56 319.44 C 327.88 322.16 331.36 324.67 334.73 327.32 C 334.74 327.93 334.76 329.16 334.77 329.78 C 332.71 330.41 330.28 332.54 328.23 330.81 C 324.48 328.22 320.44 326.05 316.98 323.07 C 313.18 319.91 308.67 317.86 304.33 315.60 C 302.72 314.95 302.49 313.15 302.03 311.72 C 300.62 310.88 299.21 310.03 297.90 309.05 Z" />
</g>
<g id="#9999a1ff">
<path fill="#9999a1" opacity="1.00" d=" M 323.48 311.70 C 323.38 310.58 322.54 308.40 324.07 308.03 C 325.44 308.81 325.19 310.77 324.72 312.03 C 324.41 311.95 323.79 311.78 323.48 311.70 Z" />
</g>
<g id="#717475ff">
<path fill="#717475" opacity="1.00" d=" M 223.50 310.32 C 225.38 310.36 227.17 311.03 228.79 311.94 C 229.66 312.66 230.51 313.39 231.36 314.14 C 231.16 314.81 230.75 316.16 230.55 316.83 C 227.67 315.76 222.86 314.09 223.50 310.32 Z" />
</g>
<g id="#31302cff">
<path fill="#31302c" opacity="1.00" d=" M 228.79 311.94 C 229.08 311.63 229.64 310.99 229.93 310.68 C 236.68 311.22 243.40 312.46 249.90 314.40 C 253.50 315.50 256.92 318.07 260.87 317.19 C 260.25 318.73 259.71 320.31 259.18 321.89 C 258.73 322.14 257.83 322.65 257.38 322.90 C 252.73 317.69 245.88 315.28 239.07 314.70 C 237.32 314.48 235.56 314.35 233.80 314.26 C 232.98 314.21 232.17 314.17 231.36 314.14 C 230.51 313.39 229.66 312.66 228.79 311.94 Z" />
</g>
<g id="#666668ff">
<path fill="#666668" opacity="1.00" d=" M 284.43 312.40 C 287.51 311.30 289.80 314.30 292.19 315.70 C 293.04 314.94 293.89 314.18 294.74 313.43 C 294.35 313.04 293.56 312.27 293.16 311.88 C 297.80 314.79 302.08 318.21 306.56 321.35 C 306.51 321.83 306.40 322.78 306.34 323.26 C 302.77 323.73 299.16 323.85 295.57 324.11 C 296.88 326.23 299.48 326.56 301.63 327.36 C 301.62 328.46 301.62 329.57 301.62 330.68 C 300.13 330.56 298.64 330.44 297.15 330.33 C 298.14 331.19 299.13 332.04 300.16 332.85 C 298.38 332.22 295.78 332.04 295.17 329.88 C 294.12 326.88 293.97 323.67 293.50 320.55 C 290.33 318.00 287.21 315.37 284.43 312.40 Z" />
</g>
<g id="#767475ff">
<path fill="#767475" opacity="1.00" d=" M 207.67 314.05 C 210.01 313.77 212.35 313.44 214.66 312.92 C 213.56 314.02 212.08 314.91 211.49 316.42 C 211.05 319.27 211.57 322.18 212.10 325.00 C 212.64 328.66 215.43 331.30 217.50 334.18 C 216.00 334.60 214.51 335.02 213.00 335.38 C 212.66 335.17 211.98 334.74 211.64 334.53 C 209.55 328.17 206.79 321.87 206.73 315.05 C 206.96 314.80 207.43 314.30 207.67 314.05 Z" />
</g>
<g id="#828385ff">
<path fill="#828385" opacity="1.00" d=" M 233.80 314.26 C 235.56 314.35 237.32 314.48 239.07 314.70 C 242.77 320.49 249.86 321.85 255.98 323.63 C 256.33 323.45 257.03 323.08 257.38 322.90 C 257.83 322.65 258.73 322.14 259.18 321.89 C 260.48 322.85 261.77 323.83 263.11 324.76 C 264.02 325.18 264.95 325.58 265.90 325.94 C 263.59 325.01 261.03 325.47 259.23 327.18 C 252.72 325.69 246.26 323.96 240.06 321.43 C 239.59 322.30 239.12 323.18 238.66 324.06 C 238.41 323.72 237.93 323.05 237.69 322.72 C 237.91 321.62 238.14 320.53 238.36 319.43 C 236.74 317.79 235.20 316.09 233.80 314.26 Z" />
</g>
<g id="#575757ff">
<path fill="#575757" opacity="1.00" d=" M 206.08 328.95 C 204.11 324.43 205.30 319.52 206.73 315.05 C 206.79 321.87 209.55 328.17 211.64 334.53 C 209.43 333.08 206.70 331.78 206.08 328.95 Z" />
</g>
<g id="#68625cff">
<path fill="#68625c" opacity="1.00" d=" M 239.07 314.70 C 245.88 315.28 252.73 317.69 257.38 322.90 C 257.03 323.08 256.33 323.45 255.98 323.63 C 249.86 321.85 242.77 320.49 239.07 314.70 Z" />
</g>
<g id="#b78465ff">
<path fill="#b78465" opacity="1.00" d=" M 260.87 317.19 C 263.19 313.85 271.09 313.96 270.92 319.03 C 271.34 323.25 266.04 323.66 263.11 324.76 C 261.77 323.83 260.48 322.85 259.18 321.89 C 259.71 320.31 260.25 318.73 260.87 317.19 Z" />
</g>
<g id="#666667ff">
<path fill="#666667" opacity="1.00" d=" M 240.06 321.43 C 246.26 323.96 252.72 325.69 259.23 327.18 C 257.61 328.78 255.57 329.79 253.36 330.28 C 249.09 328.83 244.91 326.91 240.38 326.47 C 239.95 325.87 239.09 324.66 238.66 324.06 C 239.12 323.18 239.59 322.30 240.06 321.43 Z" />
</g>
<g id="#3c3b38ff">
<path fill="#3c3b38" opacity="1.00" d=" M 232.75 326.21 C 235.26 326.74 237.84 326.78 240.38 326.47 C 244.91 326.91 249.09 328.83 253.36 330.28 C 246.58 332.19 239.94 334.78 232.85 335.25 C 229.84 335.66 226.80 335.52 223.78 335.20 C 228.83 334.35 233.97 334.31 239.04 333.61 C 236.70 332.18 234.25 330.96 231.74 329.89 C 232.08 328.66 232.42 327.43 232.75 326.21 Z" />
</g>
<g id="#0000001d">
<path fill="#000000" opacity="0.11" d=" M 259.23 327.18 C 261.03 325.47 263.59 325.01 265.90 325.94 C 267.49 326.51 269.10 327.07 270.74 327.48 C 274.47 327.38 278.17 326.75 281.74 325.67 C 278.40 329.03 274.13 332.24 273.61 337.32 C 272.85 337.33 272.09 337.35 271.34 337.38 C 272.22 338.60 273.09 339.83 273.97 341.06 C 273.28 342.35 272.59 343.65 271.92 344.95 C 273.85 348.61 270.65 351.42 268.55 354.08 C 268.87 355.86 269.39 357.65 269.33 359.49 C 268.52 361.13 267.32 362.56 266.60 364.25 C 265.84 367.89 267.89 372.64 264.06 375.02 C 260.94 377.07 260.23 380.68 260.25 384.18 C 258.69 384.08 257.14 383.96 255.59 383.82 C 254.67 382.02 253.59 380.31 252.21 378.84 C 252.65 381.83 253.42 384.75 254.24 387.65 C 254.91 386.68 255.58 385.71 256.25 384.75 C 257.57 386.20 259.57 387.64 259.15 389.89 C 258.49 391.53 257.38 392.95 256.41 394.43 C 256.44 395.93 256.55 397.44 256.43 398.95 C 255.57 400.14 254.39 401.05 253.32 402.03 C 254.28 403.09 255.25 404.15 256.21 405.22 C 255.18 406.20 254.13 407.16 253.07 408.12 C 252.46 404.96 251.90 401.68 249.96 399.02 C 249.18 399.58 248.40 400.15 247.63 400.72 C 247.82 401.82 249.40 403.36 247.82 404.05 C 242.71 403.20 239.20 398.01 239.68 392.98 C 241.56 394.49 243.36 396.11 245.13 397.75 C 245.54 397.59 246.37 397.27 246.78 397.10 C 244.30 393.55 240.13 390.88 239.42 386.35 C 238.68 383.15 236.97 380.31 235.82 377.27 C 237.12 375.87 238.40 374.46 239.68 373.04 C 238.96 371.74 238.24 370.43 237.55 369.12 C 239.59 363.37 236.30 357.86 234.18 352.71 C 233.04 346.97 234.21 340.99 232.85 335.25 C 239.94 334.78 246.58 332.19 253.36 330.28 C 255.57 329.79 257.61 328.78 259.23 327.18 Z" />
</g>
<g id="#434144ff">
<path fill="#434144" opacity="1.00" d=" M 339.12 334.43 C 340.43 334.93 341.53 335.84 342.67 336.66 C 342.17 337.86 341.68 339.06 341.19 340.28 C 343.08 340.27 344.96 340.25 346.85 340.22 C 345.98 340.83 345.11 341.44 344.24 342.04 C 341.79 344.00 338.70 344.39 335.66 344.08 C 337.96 343.59 340.20 342.86 342.40 342.04 C 340.29 340.14 338.05 338.40 335.77 336.70 C 336.86 335.91 337.94 335.09 339.12 334.43 Z" />
</g>
<g id="#7b7b81ff">
<path fill="#7b7b81" opacity="1.00" d=" M 315.33 334.84 C 317.58 334.77 319.84 334.82 322.08 335.09 C 320.27 335.96 318.46 336.83 316.73 337.86 C 321.50 338.95 326.56 339.55 330.83 342.15 C 332.87 343.51 332.98 346.15 333.46 348.32 L 332.33 348.56 C 330.83 347.12 329.47 345.55 328.11 343.99 C 327.55 344.78 327.00 345.58 326.45 346.38 C 323.41 344.72 319.97 344.23 316.55 344.64 C 316.17 343.43 315.80 342.22 315.46 341.00 C 315.45 340.54 315.42 339.62 315.41 339.15 C 315.38 337.71 315.35 336.28 315.33 334.84 Z" />
</g>
<g id="#515155ff">
<path fill="#515155" opacity="1.00" d=" M 322.08 335.09 C 325.76 336.22 329.32 337.69 332.85 339.23 C 333.47 340.83 334.08 342.44 334.65 344.07 C 334.23 345.48 333.84 346.90 333.46 348.32 C 332.98 346.15 332.87 343.51 330.83 342.15 C 326.56 339.55 321.50 338.95 316.73 337.86 C 318.46 336.83 320.27 335.96 322.08 335.09 Z" />
</g>
<g id="#66676cff">
<path fill="#66676c" opacity="1.00" d=" M 315.34 344.62 C 315.38 343.41 315.43 342.21 315.46 341.00 C 315.80 342.22 316.17 343.43 316.55 344.64 C 319.97 344.23 323.41 344.72 326.45 346.38 C 327.00 345.58 327.55 344.78 328.11 343.99 C 329.47 345.55 330.83 347.12 332.33 348.56 C 329.17 349.06 326.33 350.87 323.15 351.11 C 319.94 349.79 317.79 346.93 315.34 344.62 Z" />
</g>
</svg>
