<svg xmlns="http://www.w3.org/2000/svg" width="682.667" height="682.667" viewBox="0 0 512 512"  xmlns:v="https://vecta.io/nano"><path fill="#757676" opacity=".96" d="M270.63 153.79c2.65-1.57 6.56-1.03 7.55 2.25l.02 1.61c-2.63-1.07-5.18-2.33-7.57-3.86z"/><path fill="#5b5c5a" d="M261.95 156.85c2.71-1.49 5.75-2.13 8.68-3.06 2.39 1.53 4.94 2.79 7.57 3.86l-.02-1.61c.78 2.48 2.37 4.52 5.05 5.05l-.12 3.88c-5.81 2.89-12.72 3.17-18.02 7.11-3.09 2.23-6.21 4.43-9.43 6.47l-2.58.48.51-1.85c.63-2.07 1.11-4.45-.31-6.33-.76-1.74-2.81-1.78-4.34-2.38 3.4-2.16 4.34-6.58 7.71-8.7l-1.55 3.08c2.19.56 4.38 1.46 6.69 1.29 2.52-1.48 4.84-3.75 5.29-6.77l-5.13-.52m1.56 9.06l.82 2.81c1.53.75 3.29-.1 4.9-.22-.27-1.53-.68-3.03-1.2-4.48-1.57.49-3.07 1.14-4.52 1.89z"/><path fill="#6a6a69" d="M256.65 159.77l5.3-2.92 5.13.52c-.45 3.02-2.77 5.29-5.29 6.77-2.31.17-4.5-.73-6.69-1.29l1.55-3.08z"/><path fill="#373736" opacity=".87" d="M283.23 161.09l1.57.64c-.47 2.64-1.65 5.1-3.36 7.17-1.69-.41-3.38-1.15-5.15-.92l-2.02 2.06 3.01 1.53c-3.89.23-8.11-.43-11.4 2.19-3.25 1.89-6.37 4.29-10.22 4.79 3.22-2.04 6.34-4.24 9.43-6.47 5.3-3.94 12.21-4.22 18.02-7.11l.12-3.88z"/><path fill="#757674" d="M263.51 165.91c1.45-.75 2.95-1.4 4.52-1.89.52 1.45.93 2.95 1.2 4.48-1.61.12-3.37.97-4.9.22l-.82-2.81z"/><path fill="#606061" d="M276.29 167.98c1.77-.23 3.46.51 5.15.92l-2.31 2.5-1.85.17-3.01-1.53 2.02-2.06z"/><path fill="#d7a485" d="M231.65 178.66c5.72-3.46 11.83-6.29 17.29-10.19 1.53.6 3.58.64 4.34 2.38 1.42 1.88.94 4.26.31 6.33-1.82.46-3.54 1.23-4.89 2.54-3.36 3-7.14 5.47-10.37 8.61-3.1 2.9-6.05 6.02-9.6 8.37-1.41 1.09-3.26.97-4.93 1.07-1.46-1.55-3.31-2.57-5.36-3.1-1.18-.44-2.34-.93-3.49-1.42l-1.22-4.19 17.92-10.4z"/><path fill="#1c1c1c" opacity=".64" d="M265.88 173.76c3.29-2.62 7.51-1.96 11.4-2.19l1.85-.17c-3.91 2.64-8.88 1.3-13.25 2.36z"/><path opacity=".76" d="M257.26 180.43c4.51-2.19 9.33-3.69 14.32-4.24 2.78 3.45 5.36 7.06 7.67 10.84l-1.6 1.81c-1.28-1.91-2.52-4.04-4.82-4.85l-.78-.4-.85.4-2.96 1.3-1.62 4.56-3-.42c-.87-1.76-1.61-3.62-2.83-5.17-1.5-.81-3.2-1.11-4.82-1.56l1.29-2.27z"/><path fill="#be9073" d="M248.7 179.72c1.35-1.31 3.07-2.08 4.89-2.54l-.51 1.85a40.88 40.88 0 0 1-4.15 3.96c-2.1 1.5-4.02 3.23-5.74 5.15-3.83 3.19-7.42 6.66-10.51 10.58-2.02 1.64-4.25 2.99-6.52 4.26l-2.28-.75-.82-3.91.74-.55c1.67-.1 3.52.02 4.93-1.07 3.55-2.35 6.5-5.47 9.6-8.37 3.23-3.14 7.01-5.61 10.37-8.61z"/><path opacity=".06" d="M248.93 182.99c2.55-1.43 5.25-3.27 8.33-2.56l-1.29 2.27c-1.03 1.56-2.04 3.18-3.46 4.42-1.75.09-3.5-.15-5.25-.07-2.37.8-3 3.58-3.9 5.64-2.04 1.29-4.18 2.42-6.38 3.39 2.02-2.68 4.14-5.29 6.21-7.94 1.72-1.92 3.64-3.65 5.74-5.15z"/><path fill="#4b533c" d="M252.51 187.12c1.42-1.24 2.43-2.86 3.46-4.42 1.62.45 3.32.75 4.82 1.56 1.22 1.55 1.96 3.41 2.83 5.17l3 .42-.86 2.43-5.14-1.15.28-4.05-3.15.07-.47.01h-3.05l-.68 3.46-5.14-1.55-3.45 1.01.78 3.52c-.38 3.44-.24 6.92.57 10.29 1.93-.41 3.85-.93 5.55-1.98-.63.8-1.21 1.63-1.83 2.43l-3.06 3.84-4.95-6.01c1.33-2.91 4.22-6.59 1.34-9.48.9-2.06 1.53-4.84 3.9-5.64 1.75-.08 3.5.16 5.25.07z"/><path fill="#151515" opacity=".59" d="M341.28 183.95c1.76-1.61 4.87-1.86 6.22.42-2.09.04-4.19.02-6.22-.42z"/><path fill="#62667c" d="M268.24 185.29l2.96-1.3.12.8.68.4.68-.42.15-.78c2.3.81 3.54 2.94 4.82 4.85l1.6-1.81c1.99.29 4.61-.17 5.86 1.81.71 1.48 1.12 3.09 1.6 4.66l2.4.85-.78.37-2.47 1.23-2.04-1.97c.05 2.73 1.7 6.65-1.4 8.31-4.06.65-7.68-1.72-11.01-3.67l-1.61-3.16-1.88 1.32-5.73-1.61-1.03 1.81-.33-1.44c-2.98 2.14-6.19 3.96-8.97 6.37-1.7 1.05-3.62 1.57-5.55 1.98-.81-3.37-.95-6.85-.57-10.29.86-1.53 1.77-3.02 2.67-4.53 1.74.41 3.44.98 5.14 1.55l.68-3.46h3.05c.12 0 .35 0 .47-.01l3.15-.07-.28 4.05 5.14 1.15.86-2.43 1.62-4.56m4 2.99v.45h.45v-.45h-.45m5.98 1.87c-.47 1.43 0 1.9 1.39 1.4.46-1.43 0-1.9-1.39-1.4m-28.95 1.12v.46h.46v-.46h-.46m9.94.85c-.47 1.41-.01 1.88 1.4 1.41.47-1.41 0-1.88-1.4-1.41m8.03.26v.45h.45v-.45h-.45z"/><path fill="#757e60" d="M271.2 183.99l.85-.4.78.4-.15.78-.68.42-.68-.4-.12-.8z"/><path fill="#4d4e53" d="M341.28 183.95c2.03.44 4.13.46 6.22.42l.81.9c-1.54.29-3.21.46-4.37 1.62-3.18 2.79-6.35 5.63-10.13 7.6l-2.01-3.21c3.03-2.6 6.17-5.08 9.48-7.33z"/><path fill="#7e817e" d="M343.94 186.89c1.16-1.16 2.83-1.33 4.37-1.62 1.16 1.56 2.9 2.95 3.07 5.02l1.45 9.03-2.3-.36-.78-.45c.39-3.62 1.45-7.55-.59-10.91a120.07 120.07 0 0 0-3.26.86c-2.88 1.12-4.68 3.76-7.17 5.46-.14 1.5-.25 3.01-.35 4.52-2.28-.01-4.59-.21-6.84.21-3.32 1.62-5.82 4.46-8.68 6.74-1.15.94-2.32 1.85-3.52 2.73.52-2.11.5-4.28.43-6.43 1.18.28 2.35.6 3.49 1.03 3.14-1.86 5.9-4.26 8.59-6.7l-2.03-3.09 1.98-1.65 2.01 3.21c3.78-1.97 6.95-4.81 10.13-7.6z"/><path fill="#c8c5cb" d="M257.28 187.16l.47-.01c-.12.01-.35.01-.47.01z"/><path fill="#010101" opacity=".76" d="M232.68 198.72c3.09-3.92 6.68-7.39 10.51-10.58l-6.21 7.94c2.2-.97 4.34-2.1 6.38-3.39 2.88 2.89-.01 6.57-1.34 9.48-4.17 1.44-8.54 3.6-12.98 1.84 1.17-1.8 2.34-3.59 3.64-5.29z"/><path fill="#c5c3cf" d="M272.24 188.28h.45v.45h-.45v-.45z"/><path fill="#9aa08b" d="M345.9 188.46l3.26-.86c2.04 3.36.98 7.29.59 10.91-1.24-.76-2.43-1.57-3.62-2.39.61-2.54.65-5.17-.23-7.66z"/><path fill="#242321" opacity=".55" d="M208.62 189.41l4.39-.02c-1.83.9-3.79 1.47-5.77 1.95l1.38-1.93z"/><path fill="#646261" d="M213.01 189.39l.72-.33 1.22 4.19c-3.06.76-6.28 1.3-9.27-.02l1.56-1.89c1.98-.48 3.94-1.05 5.77-1.95z"/><path fill="#a2a3ad" d="M244.96 190.08l3.45-1.01-2.67 4.53-.78-3.52z"/><path fill="#adb697" d="M338.73 193.92c2.49-1.7 4.29-4.34 7.17-5.46.88 2.49.84 5.12.23 7.66l-2.49.92-2.1.9-.4 6.82-2.02 1.17-.5-4.89c-5.21-.8-8.98 3.47-12.97 6.05l-2.79-1.7c2.86-2.28 5.36-5.12 8.68-6.74 2.25-.42 4.56-.22 6.84-.21l.35-4.52z"/><path fill="#b3b6bf" d="M278.22 190.15c1.39-.5 1.85-.03 1.39 1.4-1.39.5-1.86.03-1.39-1.4z"/><path fill="#f1eef6" d="M249.27 191.27h.46v.46h-.46v-.46z"/><path fill="#242425" d="M309.83 193.58c2.41-2.87 6.32-2.53 9.68-2.22l.68 1.46-2.04 1.18-8.32-.42z"/><path fill="#b7bac3" d="M259.21 192.12c1.4-.47 1.87 0 1.4 1.41-1.41.47-1.87 0-1.4-1.41z"/><path fill="#aeadba" d="M267.24 192.38h.45v.45h-.45v-.45z"/><path fill="#454746" d="M194.18 200.07c3.79-2.35 7.61-4.65 11.5-6.84 2.99 1.32 6.21.78 9.27.02 1.15.49 2.31.98 3.49 1.42-1.52 2.16-3.34 4.09-5.38 5.78l-1.65-.75c-1.52-.26-3.42-1.4-4.79-.21-7.25 6.42-13.04 14.99-14.24 24.79-1.53-3.4-1.64-7.2-2.88-10.68 1.55-2.62 2.9-5.37 4.74-7.8 1.61-1.94 3.27-3.85 4.77-5.88l-4.83.15z"/><path fill="#4d4c50" d="M318.15 194l2.04-1.18 2.16 5.15c2.6-1.51 5.14-3.13 7.47-5.04l2.03 3.09c-2.69 2.44-5.45 4.84-8.59 6.7-1.14-.43-2.31-.75-3.49-1.03.07 2.15.09 4.32-.43 6.43l-1.36.93c-3.17.64-5.96 2.2-8.09 4.64-3.2 1.3-6.61 1.89-9.96 2.68 2.26-3.24 5.5-5.58 8.81-7.63 2.72-.52 5.47-.85 8.21-1.25.93-4.44 1.44-8.96 1.2-13.49z"/><path fill="#575758" d="M283.82 193.98l2.04 1.97c2.68 2.6 6.33 3.68 9.62 5.28.2 1.81.53 3.61.96 5.39-1.17-1.51-2.41-2.97-3.63-4.44-2.08.78-4.1 1.69-6.07 2.72l3.02 6.46c.09 1.51.09 3.02.1 4.53-1.41-1.52-2.77-3.09-4.02-4.74-2.16-2.98-4.27-6.15-7.6-7.94l-2.78 2.18-.17 3.83-2.35.68-3.15-.89c.66-3.44 1.18-6.91 1.62-10.39 3.33 1.95 6.95 4.32 11.01 3.67 3.1-1.66 1.45-5.58 1.4-8.31z"/><path fill="#5b5959" opacity=".87" d="M289.11 194.35c3.81.59 8.48 1.58 9.86 5.74.2 1.18.37 2.37.5 3.57l-2.64 3.51-.39-.55c-.43-1.78-.76-3.58-.96-5.39.3-1.11.63-2.21.97-3.3-2.8-.83-5.62-1.66-8.12-3.21l.78-.37z"/><path fill="#67676b" d="M308.94 199.86l.89-6.28 8.32.42c.24 4.53-.27 9.05-1.2 13.49-2.74.4-5.49.73-8.21 1.25l-2.11-2.49c1.03-2.03 1.96-4.13 2.31-6.39m2.89-4.96c-.25 1.89.09 3.7 1.27 5.23l4.03-.1c.18-1.72.17-3.46.04-5.18-1.79-.14-3.57-.16-5.34.05m1.32 9.44l-.41.72.43.71.82-.01.4-.73-.42-.71-.82.02z"/><path fill="#625c53" d="M218.44 194.67c2.05.53 3.9 1.55 5.36 3.1l-.74.55c-1.8.79-3.82 1.2-5.43 2.39-1.35 2.37-1.67 5.26-3.43 7.43-2.7 3.52-5.88 6.67-9.26 9.54l-3.18-.65c.1-4.54 4.03-7.29 6.37-10.75 1.54-2.52 4.28-3.72 6.84-4.94l-1.91-.89c2.04-1.69 3.86-3.62 5.38-5.78z"/><path fill="#676869" d="M251.86 201.91c2.78-2.41 5.99-4.23 8.97-6.37l.33 1.44.13.77c2.25.1 4.67.41 6.63-.97l1.88-1.32 1.61 3.16c-.44 3.48-.96 6.95-1.62 10.39-1.96-.53-4.02-.52-5.8.53 4.04.97 8.22 1.02 12.3 1.8-3.49 1.63-7.51.66-11.23 1.04l-.3.01c.09.11.26.35.35.46.33 2.34.66 4.7.7 7.07l-.77-.06c.79-1.35.28-3.42-1.59-3.13l-.86-.88c-.06-.28-.2-.84-.27-1.12l-1.28-1.87-1.23-.78-2.74-1.78c1.73-.23 3.47-.48 5.19-.78-3.14-1.14-6.48-.12-9.7.05-.66-1.83-1.48-3.6-2.53-5.23l1.83-2.43z"/><path fill="#b2b1b7" d="M262.19 195.17l5.73 1.61c-1.96 1.38-4.38 1.07-6.63.97l-.13-.77 1.03-1.81z"/><path fill="#858485" d="M285.86 195.95l2.47-1.23c2.5 1.55 5.32 2.38 8.12 3.21l-.97 3.3c-3.29-1.6-6.94-2.68-9.62-5.28z"/><path fill="#ffe64b" d="M311.83 194.9c1.77-.21 3.55-.19 5.34-.05.13 1.72.14 3.46-.04 5.18l-4.03.1c-1.18-1.53-1.52-3.34-1.27-5.23z"/><path fill="#454347" d="M343.64 197.04l2.49-.92 3.62 2.39.78.45c-1.74 1.27-3.61 2.33-5.56 3.21-1.05-1.53-1.58-3.28-1.33-5.13z"/><path fill="#979e8b" d="M341.54 197.94l2.1-.9c-.25 1.85.28 3.6 1.33 5.13 1.95-.88 3.82-1.94 5.56-3.21l2.3.36c.37 2.11.43 4.25.41 6.38-3.09-.32-6.21.23-8.62 2.3l-1.59-4.28-1.89 1.04.4-6.82z"/><path fill="#656767" d="M206.62 199.49c1.37-1.19 3.27-.05 4.79.21-4.44 3.83-7.99 8.53-11.61 13.11-2.13 2.47-1.58 5.9-1.59 8.91l2.71-.73-1.01 2.43c-.81 1.6-1.76 3.12-2.71 4.64l-4.37-3.08-.45-.7c1.2-9.8 6.99-18.37 14.24-24.79z"/><path fill="#2c2c28" d="M217.63 200.71c1.61-1.19 3.63-1.6 5.43-2.39l.82 3.91-2.65-.16-3.24 5.88c-3.61 4.42-7.44 8.66-11.13 13-1.18 1.25-2.39 2.56-3.97 3.3-1-.25-2-.53-2.98-.83l1.01-2.43c.33-1.31.59-2.64.84-3.96l3.18.65c3.38-2.87 6.56-6.02 9.26-9.54 1.76-2.17 2.08-5.06 3.43-7.43z"/><path fill="#595955" d="M226.16 202.98c2.27-1.27 4.5-2.62 6.52-4.26-1.3 1.7-2.47 3.49-3.64 5.29 4.44 1.76 8.81-.4 12.98-1.84l4.95 6.01c-2.81 5.34-3.34 11.39-3.27 17.32l-1.13 2.34c.99 1.65 2.34 3.22 2.5 5.22.38 3.92.43 7.87.99 11.78l-4.97-3.76c-.78.99-1.6 1.97-2.22 3.08-.31 6.2 3.61 11.4 6.37 16.62l-5.49-1.14c.02-4.09-1.56-7.91-3.19-11.59-1.58 3.45-1.86 7.32-.3 10.84l-2.74 3.41.34 2.19c2.13-.64 4.39-2.09 6.65-1.1 5.22 1.84 10.56 3.61 15.3 6.55 1.76 1.25 3.41 2.65 5.05 4.07l-.53 2.09c-2.78-1.84-5.91-3.11-9.26-3.33 1.19 2.72 3.37 4.74 5.82 6.33-3.32-.49-6.7-.9-9.82-2.2a112.6 112.6 0 0 0 2.99-.59c-3.03-1.48-6.1-2.85-9.13-4.29l2.85-2.51c-2.72-1.69-5.77-2.65-8.84-3.41 1.9 1.16 3.98 2.34 4.6 4.65-1.11-.31-2.2-.66-3.28-1.03-3.47-1.9-7.41-2.51-11.33-2.54-.7-2.32-1.31-4.66-1.86-7.02l5.52.57 1.72-2.55c.8.55 1.58 1.13 2.38 1.71.05-3.92-.17-7.87.52-11.75.8-4.39 3.18-8.23 5.47-11.97l3.02 3.92c-.41-2.95-1.01-5.86-1.43-8.8-.21-1.96-.32-3.93-.48-5.89-2.17-.03-4.45-.01-6.27-1.36 3.92-5.61 9.39-10.25 11.73-16.87-5.34 2.37-10.12 6.31-13.25 11.26-3.29 4-6.97 7.79-9.18 12.55-2.97 5.28-3.82 11.35-4.86 17.23-.32 2.18-.47 4.39-.6 6.59l1.87 1.6c-.54 1.09-1.02 2.21-1.5 3.33l-2.81-1.27c-.83 2.92-1.1 6.02.22 8.86-1.02.47-2.07.88-3.12 1.3l-.08 4.15c.44 5.43-1.18 10.72-1.22 16.11a66.27 66.27 0 0 0-1.28-2.12c.75-3.55 1.82-7.06 1.83-10.71.01-3.11.15-6.21.64-9.28.58-2.96-.83-5.77-1.4-8.61l2.68.57c.65-3.74 0-7.48-1.3-10.99l.22-10.74 1.53 1.18c.94.96 1.85 1.97 2.76 2.97 1.06-2.29 2-4.63 2.92-6.98 3.34-7.18 6.82-14.65 12.93-19.93 1.34-1.29 2.42-2.81 3.47-4.35-3.32-2.3-7.49-1.53-11.19-2.56-2.2-.74-4.46-.19-6.54.62 1.14-1.93 2.17-3.92 3.24-5.88l2.65.16 2.28.75m19.08 67.28c-.97 1.33 1.36 2.76 2.33 1.62.95-1.33-1.37-2.76-2.33-1.62z"/><path fill="#5a5a57" opacity=".96" d="M191.77 202.25l2.41-2.18 4.83-.15-4.77 5.88-2.47-3.55z"/><path fill="#95969b" d="M211.41 199.7l1.65.75 1.91.89c-2.56 1.22-5.3 2.42-6.84 4.94-2.34 3.46-6.27 6.21-6.37 10.75-.25 1.32-.51 2.65-.84 3.96l-2.71.73c.01-3.01-.54-6.44 1.59-8.91 3.62-4.58 7.17-9.28 11.61-13.11z"/><path opacity=".84" d="M298.97 200.09c.46.93.97 1.83 1.52 2.72 2.17.92 4.86.97 7.02.01.57-.95 1.04-1.93 1.43-2.96-.35 2.26-1.28 4.36-2.31 6.39l2.11 2.49c-3.31 2.05-6.55 4.39-8.81 7.63l-.59.72c-.99-.99-2.06-1.9-3.13-2.79 3.95-2 3.5-6.9 3.26-10.64-.13-1.2-.3-2.39-.5-3.57z"/><path fill="#58575f" d="M325.65 207.09c3.99-2.58 7.76-6.85 12.97-6.05.18 1.62.38 3.25.5 4.89l-.23.79-.79 2.69a48.08 48.08 0 0 1-3.75.8c-1.1 2.13-2.36 4.24-4.39 5.62-2.35 1.66-4.83 3.19-6.86 5.25-2.13 2.12-4.1 4.48-6.78 5.94l-1.21-2.97c2.19-2.74 4.57-5.32 6.61-8.17.9-3.08 1.21-6.68 3.93-8.79z"/><path fill="#3b3b3a" d="M286.74 204.9c1.97-1.03 3.99-1.94 6.07-2.72l3.63 4.44.39.55c-1.5 1.62-2.08 3.75-2.08 5.93l-4.99-1.74-3.02-6.46z"/><path fill="#888785" d="M190.03 204.01l1.74-1.76 2.47 3.55c-1.84 2.43-3.19 5.18-4.74 7.8l-.29-.76c-.66-2.96-.21-6.01.82-8.83z"/><path fill="#73716a" d="M278.24 203.21c3.33 1.79 5.44 4.96 7.6 7.94.03 3.63.18 7.26.48 10.89 1.3-1.36 2.54-2.78 4-3.97 1.47-.68 3.85-.53 4.31 1.37.77 4.41.35 9.23 3.26 12.99-.69 1.91-1.5 3.78-2.36 5.63-.12-2.87-.39-5.75-1.38-8.47l-1.36 2.42c-.78-.97-1.61-1.9-2.45-2.82-.78 1.14-1.57 2.28-2.3 3.45-1-2.11-.92-4.42-.67-6.68-2.66 1.01-5.72 1.57-7.76 3.68-.48 1.15-.86 2.34-1.15 3.55-.28-1.39-1.23-2.82-.78-4.26 1.01-1.31 3.22-2.08 2.96-4.05-.41-5.21-1.72-10.31-2.11-15.53-1.08-.07-2.16-.11-3.24-.13l.17-3.83 2.78-2.18m13.98 25.09v.45h.45v-.45h-.45z"/><path fill="#222120" opacity=".45" d="M189.21 212.84c-1.55-2.71-1.7-6.64.82-8.83-1.03 2.82-1.48 5.87-.82 8.83z"/><path fill="#010101" opacity=".18" d="M296.83 207.17l2.64-3.51c.24 3.74.69 8.64-3.26 10.64l-1.46-1.2c0-2.18.58-4.31 2.08-5.93z"/><path fill="#aba9af" d="M313.15 204.34l.82-.02.42.71-.4.73-.82.01-.43-.71.41-.72z"/><path fill="#6a6a70" d="M341.14 204.76l1.89-1.04 1.59 4.28c2.41-2.07 5.53-2.62 8.62-2.3l3.13.9c.69 3.78 1.6 7.52 2.52 11.25-3.79 3.19-8.2 5.46-12.91 6.94l-1.31-3.08 1.22-1.61c1.8.75 3.71 1.95 5.72 1.16l-.89-4.82c.8-1.47 1.56-2.96 2.28-4.47-2.32-.03-4.62.28-6.81 1.03l1.48-3.48c-1.56 1-3.12 2-4.5 3.23-.16-2.76-1.77-4.91-4.28-6.03l.23-.79 2.02-1.17m7.04 2.88c-1.07 1.94 2.88 3.58 3.47 1.39-.36-1.3-2.31-1.91-3.47-1.39z"/><path fill="#8b8882" d="M246.97 208.18l3.06-3.84c1.05 1.63 1.87 3.4 2.53 5.23 3.22-.17 6.56-1.19 9.7-.05l-5.19.78 2.74 1.78c-3.32.3-8-.55-9.94 2.9-1.68 2.88-3.27 6.21-2.64 9.63.84 1.85 2.88 2.82 3.82 4.62.2 2.96-.41 5.9-.89 8.82 2.17 1.5 4.83 1.34 7.34 1.27l-1.02-3.17 1.92-1.91 1.43 2.99 1.19-1.39 4.88-.15c.29-3.66.1-7.32-.14-10.97l-.01-.47.06-4.33c-.04-2.37-.37-4.73-.7-7.07l-.05-.47c3.72-.38 7.74.59 11.23-1.04-4.08-.78-8.26-.83-12.3-1.8 1.78-1.05 3.84-1.06 5.8-.53l3.15.89 2.35-.68c1.08.02 2.16.06 3.24.13.39 5.22 1.7 10.32 2.11 15.53.26 1.97-1.95 2.74-2.96 4.05-.45 1.44.5 2.87.78 4.26a62.69 62.69 0 0 1 .89 3.59c-1.29 3.77-1.56 7.73-1.95 11.67-1.22 2.58-3.53 4.49-5.82 6.12-3.68 2.47-8.36 2.03-12.53 1.51-3.28-.36-6.77-1.71-8.46-4.71-1.84-3.34-2.47-7.25-2.12-11.02.19-3.51 1.02-7.17-.2-10.58-.68-2.13-2.91-3.05-4.57-4.27-.07-5.93.46-11.98 3.27-17.32m20.3 21.78c.3 2.82.96 5.68 2.53 8.08.84-2.27 1.78-4.58 1.9-7.03-.36-1.75-1.73-3.02-2.76-4.39-.58 1.07-1.83 2-1.67 3.34m.56 19.5c-1.78-.59-3.61-1.03-5.46-1.3l-.64-1.89c-1.44 1.52-2.77 3.15-4.01 4.84 3.2 2.56 7.92 2.34 11.59 1.1 2.42-4 1.54-8.89.44-13.16-1.95 3.08-1.35 6.96-1.92 10.41z"/><path fill="#a1aa8d" d="M319.34 208.12l3.52-2.73 2.79 1.7c-2.72 2.11-3.03 5.71-3.93 8.79-1.62 1.04-3.38 1.84-5.31 1.99l-1.32-4.72 2.52-1.13.37-2.97 1.36-.93z"/><path fill="#717369" d="M217.99 207.95c2.08-.81 4.34-1.36 6.54-.62 3.7 1.03 7.87.26 11.19 2.56-1.05 1.54-2.13 3.06-3.47 4.35-2.45-1.97-4.74-5.12-8.12-5.14-4.86 1.46-5.86 7.1-7.85 11.09-2.57.95-5.61 1.42-7.44 3.64-1.5 1.79-.85 4.3-.86 6.43-1.14-2.97-1.21-6.17-1.12-9.31l11.13-13z"/><path fill="#837e73" d="M232 218.43c3.13-4.95 7.91-8.89 13.25-11.26-2.34 6.62-7.81 11.26-11.73 16.87-1.13 1.11-2.48 1.95-3.79 2.83 1.14-2.7 1.89-5.54 2.27-8.44z"/><path fill="#9fa78e" d="M338.89 206.72c2.51 1.12 4.12 3.27 4.28 6.03l-1.36 2.09c-.8 2.26-.86 4.66-.79 7.04l3.65-.17 1.31 3.08c-2.34 1.65-4.75 3.44-6.16 6.01-1.59 2.98-2.64 6.28-4.76 8.96-.18-1.94-.26-3.9-.29-5.85-1.34-.3-2.69-.55-4.04-.73-.89 1.85-1.93 3.64-3.09 5.33-.06-3.74.09-7.47.09-11.21l-1.84-1.5c-4.86 2.88-9.11 6.62-13 10.68-1.16.82-2.35 1.58-3.54 2.34-.53-1.32-1.06-2.64-1.53-3.98-.83-2.87-1-5.87-1.45-8.81 1.49-1.34 3.31-2.16 5.26-2.57-.87 3.17-1.56 6.38-2.37 9.56 1.98-1.72 3.64-3.77 5.04-5.99l2.02-.01c2.68-1.46 4.65-3.82 6.78-5.94 2.03-2.06 4.51-3.59 6.86-5.25 1.22 1.5 2.61 2.93 3.44 4.7.58 2.49.57 5.07.84 7.61.85-1.01 2.28-1.71 2.66-3.04.42-5.23 1.04-10.44 1.2-15.69l.79-2.69m-8.83 22.71c-.46 1.39.02 1.88 1.44 1.46.44-1.39-.04-1.88-1.44-1.46z"/><path fill="#86868a" d="M348.18 207.64c1.16-.52 3.11.09 3.47 1.39-.59 2.19-4.54.55-3.47-1.39z"/><path fill="#8d8f86" d="M216.28 220.19c1.99-3.99 2.99-9.63 7.85-11.09 3.38.02 5.67 3.17 8.12 5.14-6.11 5.28-9.59 12.75-12.93 19.93l-4.2-1.08-1.48 5.09a88.73 88.73 0 0 1-1.53-1.18l-1.22-.85-2.6-4.97-.31-.92c.01-2.13-.64-4.64.86-6.43 1.83-2.22 4.87-2.69 7.44-3.64z"/><path fill="#696a6c" d="M309.89 213.69c2.13-2.44 4.92-4 8.09-4.64l-.37 2.97-2.52 1.13 1.32 4.72c1.93-.15 3.69-.95 5.31-1.99-2.04 2.85-4.42 5.43-6.61 8.17l1.21 2.97-2.02.01c-1.4 2.22-3.06 4.27-5.04 5.99l2.37-9.56c1.56-2.48 2.91-5.27 2.43-8.29-.8-1.54-2.74-1.26-4.17-1.48z"/><path fill="#959b88" d="M334.35 210.21l3.75-.8c-.16 5.25-.78 10.46-1.2 15.69-.38 1.33-1.81 2.03-2.66 3.04-.27-2.54-.26-5.12-.84-7.61-.83-1.77-2.22-3.2-3.44-4.7 2.03-1.38 3.29-3.49 4.39-5.62z"/><path fill="#4e4e50" d="M343.17 212.75c1.38-1.23 2.94-2.23 4.5-3.23l-1.48 3.48-2.34 6.39-2.04-4.55 1.36-2.09z"/><path fill="#4b4a43" d="M285.84 211.15c1.25 1.65 2.61 3.22 4.02 4.74l-.1-4.53 4.99 1.74 1.46 1.2 3.13 2.79 1.34 1.72 3.66 4.58 1.73 2.13-.61 2.65-2.73 1.36-.49 3.51-4.35-.61c-2.91-3.76-2.49-8.58-3.26-12.99-.46-1.9-2.84-2.05-4.31-1.37-1.46 1.19-2.7 2.61-4 3.97-.3-3.63-.45-7.26-.48-10.89z"/><path fill="#9e9c93" d="M249.87 214.98c1.94-3.45 6.62-2.6 9.94-2.9l1.23.78-.75 1.31.46.67 1.57-.11.27 1.12c-1.94 5.62-1.11 11.65-1.81 17.47.01.13.02.39.03.53l.21 1.99-1.19 1.39-1.43-2.99-1.92 1.91 1.02 3.17c-2.51.07-5.17.23-7.34-1.27.48-2.92 1.09-5.86.89-8.82-.94-1.8-2.98-2.77-3.82-4.62-.63-3.42.96-6.75 2.64-9.63m1.28 7.75c2.09 1.22 4.79 3.61 7.19 1.64 1.07-1.14.43-2.61.21-3.92-2.76-.91-5.55.14-7.4 2.28z"/><path fill="#d1d5d3" d="M264.76 212.39l.3-.01.05.47-.35-.46z"/><path fill="#7f7f84" d="M346.19 213c2.19-.75 4.49-1.06 6.81-1.03l-2.28 4.47.89 4.82c-2.01.79-3.92-.41-5.72-1.16l-1.22 1.61-3.65.17c-.07-2.38-.01-4.78.79-7.04l2.04 4.55 2.34-6.39z"/><path fill="#bab8b5" d="M261.04 212.86l1.28 1.87-1.57.11-.46-.67.75-1.31z"/><path fill="#8f9187" d="M299.93 216.37c3.35-.79 6.76-1.38 9.96-2.68 1.43.22 3.37-.06 4.17 1.48.48 3.02-.87 5.81-2.43 8.29-1.95.41-3.77 1.23-5.26 2.57l-.3-.51c-.56-.73-1.14-1.43-1.73-2.13 1.35-1.45 1.48-3.41 1.57-5.29a126.52 126.52 0 0 0-5.23.71l-1.34-1.72.59-.72z"/><path fill="#757e8c" d="M260.78 233.32c.7-5.82-.13-11.85 1.81-17.47l.86.88a11.9 11.9 0 0 0 .3 3.03c.32.02.97.08 1.29.1l.77.06-.06 4.33a7.37 7.37 0 0 1 .01.47c.24 3.65.43 7.31.14 10.97l-4.88.15-.21-1.99-.03-.53m3.45-12.06v.45h.45v-.45h-.45m-.94 2.03v.45h.45v-.45h-.45m0 1.99v.45h.45v-.45h-.45m-.12 2.74c.1 2.1-.14 4.63 1.71 6.09-.15-2.1.18-4.65-1.71-6.09z"/><path fill="#d0d3d8" d="M263.45 216.73c1.87-.29 2.38 1.78 1.59 3.13l-1.29-.1a11.9 11.9 0 0 1-.3-3.03z"/><path fill="#ecffff" d="M300.68 218.81l5.23-.71c-.09 1.88-.22 3.84-1.57 5.29l-3.66-4.58z"/><path opacity=".09" d="M345.98 224.79c4.71-1.48 9.12-3.75 12.91-6.94 1.13.88 2.23 1.84 3.53 2.51 2.81-.52 5.45-1.69 8.24-2.32.26 1.46-.67 3.54.81 4.52 4.74-.88 9.3.94 14.03.89 2.41 1.32 4.23 3.49 6.63 4.83 1.52.74 3.24.9 4.88 1.25 3.58.62 7 1.89 10.53 2.73l1.72-2.46c1.72 1.23 3.36 2.61 5.23 3.65 2.98.63 6.06.38 9.09.51l-.46 3.71c1.49-1.24 3.09-2.35 4.76-3.36 1.19 1.09 2.27 2.43 3.79 3.07 1.99-.09 3.95-.46 5.92-.73l-1.46 4.16 4.61-1.16-1.29-4.02c1.83-.83 3.8-1.19 5.8-1.35l1.84-2.2 1.15 2.13 2.93-1.01c.31 1.01.59 2.04 1.01 3.01 1.43 1.11 3.16 1.74 4.79 2.52l-.52-5.72 1.43-.9c1.38.88 2.73 1.84 4.24 2.52 2.14.1 3.4-2.04 4.87-3.26l1.93 3.52c1.52-1.24 3.01-2.91 5.17-2.69l.71 4.45c4.38.33 8.54-1.72 12.95-1.26 3.25-.28 5.85 2.34 9.09 2.11 4.26.26 8.91-.44 12.73 1.91.77-2.03 1.62-4.04 2.43-6.06v29.12c-1.33-2.12-2.51-4.4-4.33-6.16-1.57-.29-3.2-.05-4.73-.49-1.44-.68-2.71-1.64-4.01-2.51l-2.06 2.77c2.08.35 4.27.68 6 2.01 2.48 1.84 5.76 2.99 7.09 6-2.45-.75-4.83-1.68-7.2-2.64l-3.28 1.17-.22-2.45c-3.07.35-6.16.34-9.23.55-2.93.3-5.03 3.05-7.92 3.3-2.89-1.09-5.29-3.11-7.94-4.63-1.83.6-3.64 1.44-5.59 1.51-1.94-.62-3.42-2.32-5.51-2.49-2.23-.25-4.37-.95-6.28-2.14l-2.52 1.59 2.9 3.6c-3.7.93-6.94-1.91-10.53-2.4l-2.26-2.97c-.41 1.12-.84 2.23-1.28 3.33-2.79.14-5.51.82-8.26 1.24-2.93.2-5.85-.11-8.78-.09-2.49.12-4.52-1.58-6.84-2.15-2.96.57-5.98 2.43-8.91.75-2.03.68-4.02 1.68-6.17 1.84-2.13-.4-3.99-2.01-6.25-1.58-2.92.34-5.88.24-8.71-.61l-3.27 1.93c-2.11-.63-4.26-1.65-6.51-1.2-4.88.84-9.83.4-14.72.01-3.58-.43-6.68 2.1-10.23 1.91-4.03-.09-8.04.25-12.02.81l-2.53-3.22c-3.87 1.19-7.17 3.55-10.27 6.07-2.81-5.38-1.14-11.69-3.67-17.12-.79-2.11-1.25-4.31-1.4-6.55 3.32.05 6.66.47 9.97.04 3.84-2.11 4.24-6.92 5.29-10.7 1.41-2.57 3.82-4.36 6.16-6.01z"/><path fill="#95928a" d="M222.82 230.98c2.21-4.76 5.89-8.55 9.18-12.55-.38 2.9-1.13 5.74-2.27 8.44-4.4 6.83-6.68 14.74-9.5 22.3l-2.27-.96c1.04-5.88 1.89-11.95 4.86-17.23z"/><path fill="#8e8980" d="M251.15 222.73c1.85-2.14 4.64-3.19 7.4-2.28.22 1.31.86 2.78-.21 3.92-2.4 1.97-5.1-.42-7.19-1.64z"/><path fill="#4f4e4a" d="M202.89 224.25c1.58-.74 2.79-2.05 3.97-3.3-.09 3.14-.02 6.34 1.12 9.31l.31.92-1.35.4c-2.22-1.94-3.5-4.69-5.3-6.97l-.54 4.94c-1.87-1.07-4.1-.98-6.13-1.53-.82-.94-1.46-2.01-2.14-3.04l4.37 3.08 2.71-4.64 2.98.83z"/><path fill="#c3c8cc" d="M264.23 221.26h.45v.45h-.45v-.45z"/><path fill="#caced1" d="M263.29 223.29h.45v.45h-.45v-.45z"/><path fill="#636462" d="M229.73 226.87c1.31-.88 2.66-1.72 3.79-2.83 1.82 1.35 4.1 1.33 6.27 1.36l.48 5.89-3.16-1.95c-.52 4.41-3.36 7.9-5.14 11.81-1.13 5.43-.39 11.19-2.67 16.39l-2.07-.26c-1.45-1.07-2.86-2.17-4.27-3.29l-2.35 1.46-1.38.95-1.87-1.6c.13-2.2.28-4.41.6-6.59l2.27.96c2.82-7.56 5.1-15.47 9.5-22.3z"/><path fill="#fff" d="M265.76 224.72l-.01-.47.01.47z"/><path fill="#64625d" d="M201.1 229.55l.54-4.94c1.8 2.28 3.08 5.03 5.3 6.97l1.35-.4 2.6 4.97c-1.65-.38-3.42-.4-4.95-1.18-1.98-1.44-3.27-3.58-4.84-5.42z"/><path fill="#cbcfd7" d="M263.29 225.28h.45v.45h-.45v-.45z"/><path fill="#6c6d6a" d="M242.57 227.84l1.13-2.34c1.66 1.22 3.89 2.14 4.57 4.27 1.22 3.41.39 7.07.2 10.58-.35 3.77.28 7.68 2.12 11.02 1.69 3 5.18 4.35 8.46 4.71 4.17.52 8.85.96 12.53-1.51 2.29-1.63 4.6-3.54 5.82-6.12.39-3.94.66-7.9 1.95-11.67 1.78 6.09.02 12.6 2.06 18.61-1.86 2.44-2.75 5.41-4.12 8.12-.8 1.65-2.75 1.73-4.32 2.01 1.41-1.34 2.76-2.74 4.07-4.16-1 .16-2 .35-2.98.56l.58-3.85-9.59 2.95 2.01 2.93c-1.43-.1-2.85-.25-4.27-.38l.88 2.74a86.57 86.57 0 0 0 6.16 1.75c-4.02 1.65-8.44.97-12.66 1.27 1.51-.73 2.84-1.77 3.86-3.1-3.43-1.07-7.02-1.35-10.55-1.96-2.14-.4-3.71-2.06-5.24-3.49-2.76-5.22-6.68-10.42-6.37-16.62.62-1.11 1.44-2.09 2.22-3.08l4.97 3.76c-.56-3.91-.61-7.86-.99-11.78-.16-2-1.51-3.57-2.5-5.22m2.64 20.57c-.07 1.61-.16 3.42 1.25 4.55l-3.49.71c2.11 5.3 7.44 9 13.12 9.29 2.05.38 4.15.5 6.23.68l-.42-3.3c-3.91-1.68-8.2-2.86-11.4-5.79-1.54-2.13-1.8-4.9-2.6-7.35l-2.69 1.21z"/><path fill="#595959" d="M279.61 229.64c2.04-2.11 5.1-2.67 7.76-3.68-.25 2.26-.33 4.57.67 6.68l-1.15 4.27-1.1-1.81-3.14 1.88c-1.34.35-1.86 1.96-.92 3.03 1.37 1.32 1.72-1.6 1.48-2.44l2.07 2.11-1.19 2.25 1.67 1.16c-1.37 1.63-2.54 3.41-3.69 5.2 2.44.98 4.33-.74 6.09-2.22l.11 3.03c-.29 3.72-3.99 4.94-6.86 6.29-2.04-6.01-.28-12.52-2.06-18.61a62.69 62.69 0 0 0-.89-3.59c.29-1.21.67-2.4 1.15-3.55z"/><path fill="#595957" d="M306.07 225.52l.3.51c.45 2.94.62 5.94 1.45 8.81-1.22-.1-2.8-.94-3.47.56 0 1.24.26 2.46.56 3.66l-2.8-.73c.22 6.15-1.89 11.95-2.9 17.93-1.44 4.14-3.57 7.98-6.2 11.48l-2.53-.03a175.06 175.06 0 0 0-4.75 5.46c-1.13-1.01-2.25-2.02-3.31-3.08 1.33-4.94 6.05-8.48 6.25-13.81l-1.55-.31c1.88-.94 3.71-2.07 4.96-3.8 2.26-4.12 3.45-9.05 2.04-13.65l-1.42.02c-.14.01-.42.01-.56.01l-1.58.02c-.5-2.32 1.44-3.51 3.19-4.53l-.96-2.03 1.36-2.42c.99 2.72 1.26 5.6 1.38 8.47.86-1.85 1.67-3.72 2.36-5.63l4.35.61.49-3.51 2.73-1.36.61-2.65z"/><path fill="#68676b" d="M312.89 236.48c3.89-4.06 8.14-7.8 13-10.68l1.84 1.5-.09 11.21c1.16-1.69 2.2-3.48 3.09-5.33 1.35.18 2.7.43 4.04.73.03 1.95.11 3.91.29 5.85-1.85.71-3.79 1.14-5.72 1.53l.2-2.13c-2.46.57-4.95.98-7.46 1.3.6 1.67 1.18 3.35 1.71 5.05-2.92-1.32-4.91-4.95-3.45-8 1.83-2.22 4.03-4.08 5.84-6.31-5.06 2.74-9.06 7.01-13.98 9.99l2.43-3.6-1.74-1.11z"/><path fill="#a09f9c" d="M267.27 229.96c-.16-1.34 1.09-2.27 1.67-3.34 1.03 1.37 2.4 2.64 2.76 4.39-.12 2.45-1.06 4.76-1.9 7.03-1.57-2.4-2.23-5.26-2.53-8.08z"/><path fill="#c3c9d0" d="M263.17 228.02c1.89 1.44 1.56 3.99 1.71 6.09-1.85-1.46-1.61-3.99-1.71-6.09z"/><path fill="#d2cfd2" d="M292.22 228.3h.45v.45h-.45v-.45z"/><path fill="#969289" d="M237.11 229.34l3.16 1.95 1.43 8.8-3.02-3.92c-2.29 3.74-4.67 7.58-5.47 11.97-.69 3.88-.47 7.83-.52 11.75l-2.38-1.71-1.01-.64c2.28-5.2 1.54-10.96 2.67-16.39 1.78-3.91 4.62-7.4 5.14-11.81z"/><path fill="#494948" d="M290.34 229.19l2.45 2.82.96 2.03c-1.75 1.02-3.69 2.21-3.19 4.53l1.58-.02.56-.01 1.42-.02c1.41 4.6.22 9.53-2.04 13.65-.48-3.02-.92-6.19.06-9.17 1.3-.82 1.22-3.95-.79-2.66l-.32.72c-1.06 2.62-1.93 5.32-2.76 8.04l-.11-3.03c-.31-1.32-.67-2.62-1.03-3.92l-1.37.94-1.67-1.16a60.21 60.21 0 0 1 1.19-2.25l1.61-2.77c.44-1.41.77-2.85 1.15-4.27.73-1.17 1.52-2.31 2.3-3.45z"/><path fill="#7c8177" d="M330.06 229.43c1.4-.42 1.88.07 1.44 1.46-1.42.42-1.9-.07-1.44-1.46z"/><path fill="#4f4e4d" d="M312.2 241.19c4.92-2.98 8.92-7.25 13.98-9.99-1.81 2.23-4.01 4.09-5.84 6.31-1.46 3.05.53 6.68 3.45 8-.53-1.7-1.11-3.38-1.71-5.05 2.51-.32 5-.73 7.46-1.3l-.2 2.13c1.93-.39 3.87-.82 5.72-1.53 2.12-2.68 3.17-5.98 4.76-8.96-1.05 3.78-1.45 8.59-5.29 10.7-3.31.43-6.65.01-9.97-.04.15 2.24.61 4.44 1.4 6.55.75 4.29.73 8.67 1.22 13l-.79-.17-2.88-.52c-.37 2.78-1.05 5.52-2.3 8.04l-4.01-.34c1.08-1.81 2.1-3.65 3.28-5.38l1.75-1.82-1.22-2.98-1.53-1.39c-1.73-.03-3.5.08-5.2-.29-2.08-1.16-3.73-2.95-5.49-4.51-3.77 1.29-3.5 5.95-4.92 9.02-2.79 6.11-7.36 11.04-11.47 16.26l-1.72-.3c3.4-4.62 7.19-9.03 9.69-14.23 1.85-3.62 2.77-7.6 3.83-11.49.73-2.35 1.75-4.64 2.09-7.1-.03-1.67-.91-3.18-1.38-4.75-.3-1.2-.56-2.42-.56-3.66.67-1.5 2.25-.66 3.47-.56.47 1.34 1 2.66 1.53 3.98 1.19-.76 2.38-1.52 3.54-2.34l1.74 1.11-2.43 3.6m.8 3.86c2.33-.28 3.87-2.21 5.07-4.05l-.83-1.34c-1.84 1.42-3.97 2.87-4.24 5.39m-1.65 1.09c-1.24.78-3.24 2.72-1.19 3.83 1.95-.24 3.39-1.73 4.89-2.85-1.02-.66-2.52-2.17-3.7-.98m6.65 2.79c1.72 3.66 4.02 7 6.06 10.48 1.18-1.44 1.17-3.39.76-5.12-1.64-2.42-3.95-4.56-6.82-5.36z"/><path fill="#7a7e74" d="M215.12 233.09l4.2 1.08-2.92 6.98-2.76-2.97 1.48-5.09z"/><path fill="#f5f6f7" d="M260.81 233.85l-.03-.53.03.53z"/><path fill="#954c4d" d="M282.65 236.98l3.14-1.88 1.1 1.81-1.61 2.77-2.07-2.11-.56-.59z"/><path fill="#727172" d="M281.73 240.01c-.94-1.07-.42-2.68.92-3.03l.56.59c.24.84-.11 3.76-1.48 2.44z"/><path fill="#88878b" d="M292.14 238.55l.56-.01c-.14.01-.42.01-.56.01z"/><path fill="#77736b" d="M302.11 238.33l2.8.73c.47 1.57 1.35 3.08 1.38 4.75-.34 2.46-1.36 4.75-2.09 7.1l-.54-2.75c-1.06 2.91-2.45 5.71-4.45 8.1 1.01-5.98 3.12-11.78 2.9-17.93z"/><path fill="#9f9d95" d="M267.83 249.46c.57-3.45-.03-7.33 1.92-10.41 1.1 4.27 1.98 9.16-.44 13.16-3.67 1.24-8.39 1.46-11.59-1.1 1.24-1.69 2.57-3.32 4.01-4.84l.64 1.89c1.85.27 3.68.71 5.46 1.3z"/><path fill="#6b6d6f" d="M291.35 240.34c2.01-1.29 2.09 1.84.79 2.66l-1.11-1.94.32-.72z"/><path fill="#747378" d="M313 245.05c.27-2.52 2.4-3.97 4.24-5.39l.83 1.34c-1.2 1.84-2.74 3.77-5.07 4.05z"/><path fill="#292c30" d="M291.03 241.06l1.11 1.94c-.98 2.98-.54 6.15-.06 9.17-1.25 1.73-3.08 2.86-4.96 3.8l-.72.35c-1.71-.02-3.37-.44-4.99-.93 2.87-1.35 6.57-2.57 6.86-6.29l2.76-8.04z"/><path fill="#747270" d="M285.76 243.09l1.37-.94 1.03 3.92c-1.76 1.48-3.65 3.2-6.09 2.22l3.69-5.2z"/><path fill="#666564" d="M311.35 246.14c1.18-1.19 2.68.32 3.7.98-1.5 1.12-2.94 2.61-4.89 2.85-2.05-1.11-.05-3.05 1.19-3.83z"/><path fill="#524e49" d="M245.21 248.41l2.69-1.21c.8 2.45 1.06 5.22 2.6 7.35 3.2 2.93 7.49 4.11 11.4 5.79l.42 3.3c-2.08-.18-4.18-.3-6.23-.68-4.09-2.4-6.58-6.53-9.63-10-1.41-1.13-1.32-2.94-1.25-4.55z"/><path fill="#827f7d" d="M211.89 247.74c1.3 3.51 1.95 7.25 1.3 10.99l-2.68-.57c-.05-3.53.65-6.99 1.38-10.42z"/><path fill="#3b3c3b" d="M236.26 258.89c-1.56-3.52-1.28-7.39.3-10.84 1.63 3.68 3.21 7.5 3.19 11.59l5.49 1.14c1.53 1.43 3.1 3.09 5.24 3.49 3.53.61 7.12.89 10.55 1.96-1.02 1.33-2.35 2.37-3.86 3.1l-1.36.61c-4.74-2.94-10.08-4.71-15.3-6.55-2.26-.99-4.52.46-6.65 1.1l-.34-2.19 2.74-3.41z"/><path fill="#8b877f" d="M303.66 248.16l.54 2.75c-1.06 3.89-1.98 7.87-3.83 11.49-2.5 5.2-6.29 9.61-9.69 14.23-.99 1.16-2.04 2.27-3.12 3.34l-.5.46c-1.68.56-3.4 1.01-5.11 1.45 1.98-5.92 7.81-9.05 11.06-14.14 2.63-3.5 4.76-7.34 6.2-11.48 2-2.39 3.39-5.19 4.45-8.1z"/><path fill="#1d1d1c" opacity=".55" d="M325.96 248.01c2.53 5.43.86 11.74 3.67 17.12.11 6.65 1.48 13.24 1.21 19.9-.49 6.3-1.72 12.55-1.65 18.89-.04 2.26.91 4.66-.1 6.81-.37-3.54-1.1-7.07-.87-10.64 1.54-4.97 1.22-10.23 1.9-15.33.43-3.77-.41-7.5-1.02-11.2-.07-1.58-.07-3.15-.11-4.72-.06-2.71-.89-5.31-1.81-7.83-.49-4.33-.47-8.71-1.22-13z"/><path fill="#656463" d="M318 248.93c2.87.8 5.18 2.94 6.82 5.36.41 1.73.42 3.68-.76 5.12-2.04-3.48-4.34-6.82-6.06-10.48z"/><path fill="#686961" d="M303.87 260.67c1.42-3.07 1.15-7.73 4.92-9.02 1.76 1.56 3.41 3.35 5.49 4.51 1.7.37 3.47.26 5.2.29l1.53 1.39c-1.72-.26-3.44-.34-5.17-.31a78.49 78.49 0 0 0 2.02 2.49c-1.11 2.63-2.31 5.22-3.73 7.7-3.69-1.98-6.06-5.85-10.26-7.05z"/><path fill="#858586" d="M242.97 253.67l3.49-.71c3.05 3.47 5.54 7.6 9.63 10-5.68-.29-11.01-3.99-13.12-9.29z"/><path fill="#464948" d="M220.61 255.45l2.35-1.46 4.27 3.29 2.07.26 1.01.64-1.72 2.55-5.52-.57c-.72-1.62-1.59-3.17-2.46-4.71z"/><path fill="#4e4e4c" d="M277.29 263.51c1.37-2.71 2.26-5.68 4.12-8.12 1.62.49 3.28.91 4.99.93-1.44 2.89-2.38 6.09-4.5 8.58-1.96 2.11-4.53 3.5-6.74 5.31-3.48 2.84-6.96 5.68-10.25 8.74l-3.78 1.46c-.41-.11-1.23-.35-1.64-.47a70.9 70.9 0 0 1 .84-3.84l.53-2.09c-1.64-1.42-3.29-2.82-5.05-4.07l1.36-.61c4.22-.3 8.64.38 12.66-1.27 1.06-.83 2.11-1.67 3.14-2.54 1.57-.28 3.52-.36 4.32-2.01z"/><path fill="#82847b" d="M219.23 256.4l1.38-.95 2.46 4.71 1.86 7.02-.87.92-2.35-3.23-3.29-1.68-3.28 4.13c-1.32-2.84-1.05-5.94-.22-8.86l2.81 1.27 1.5-3.33z"/><path fill="#7d7a73" d="M286.4 256.32l.72-.35 1.55.31c-.2 5.33-4.92 8.87-6.25 13.81l-.76-.8c-3.05 4.41-7.68 7.29-12.49 9.43-1.36.54-2.85.18-4.26.23 3.29-3.06 6.77-5.9 10.25-8.74 2.21-1.81 4.78-3.2 6.74-5.31 2.12-2.49 3.06-5.69 4.5-8.58z"/><path fill="#967059" d="M315.84 257.53c1.73-.03 3.45.05 5.17.31l1.22 2.98-1.75 1.82-2.62-2.62-2.02-2.49z"/><path fill="#575149" d="M265.05 261.02c3.18-1.03 6.38-2 9.59-2.95l-.58 3.85c-2.25.94-4.5 2.1-7 2.03l-2.01-2.93z"/><path fill="#3c3b36" d="M314.13 267.72c1.42-2.48 2.62-5.07 3.73-7.7l2.62 2.62c-1.18 1.73-2.2 3.57-3.28 5.38-2.53 4.09-5.7 8.02-6.2 13l-.81 3.83c-.35 1.3-.76 2.6-1.27 3.86l-1.17 1.36c-.26-1.63-.49-3.25-.6-4.89l1.84-6.23c1.4-3.88 3.05-7.67 5.14-11.23z"/><path fill="#86878b" d="M323.51 260.32l2.88.52c-.72 6.59-4.28 12.29-7.26 18.05l2.22 2.69c-1.67-.35-3.34-.8-5.06-.88-2.25.97-3.29 3.39-4.57 5.32-.38-.3-1.15-.88-1.53-1.17l.81-3.83c4.24-3.46 8.31-7.38 10.21-12.66 1.25-2.52 1.93-5.26 2.3-8.04z"/><path fill="#8a8989" d="M274.06 261.92l2.98-.56-4.07 4.16-3.14 2.54-6.16-1.75-.88-2.74 4.27.38c2.5.07 4.75-1.09 7-2.03z"/><path fill="#797a73" d="M292.4 276.93c4.11-5.22 8.68-10.15 11.47-16.26 4.2 1.2 6.57 5.07 10.26 7.05-2.09 3.56-3.74 7.35-5.14 11.23-3.22 2.99-6.09 6.38-9.76 8.84-.11-3.49.06-6.99.36-10.47-2.41.16-4.83.09-7.19-.39z"/><path fill="#666" d="M326.39 260.84l.79.17c.92 2.52 1.75 5.12 1.81 7.83-2.87 4.06-4.49 8.87-7.64 12.74l-2.22-2.69c2.98-5.76 6.54-11.46 7.26-18.05z"/><path fill="#73736c" d="M218.42 263.19l3.29 1.68-2.07 2.33c1.58 3.82 4.05 7.27 7.17 9.98 1.22 1.09 2.91 1.27 4.44 1.69.19 3.58 4.09 5.07 7.21 4.62h.78c-.85.91-1.59 2.43-3.08 2.21-2.72-.38-4.89-2.29-7.33-3.4-4.27-2.3-9.18-2.6-13.88-3.25l.19-2.96 2.77 1.98c.4-1.31.87-2.6 1.11-3.94-.76-1.9-2.15-3.5-3.83-4.64-1.46.59-1.28 2.4-1.73 3.66l-1.52-.38.08-4.15c1.05-.42 2.1-.83 3.12-1.3 1.17-1.32 2.22-2.73 3.28-4.13z"/><path fill="#494b4a" d="M219.64 267.2l2.07-2.33 2.35 3.23c1.78 2.49 4.34 4.21 6.83 5.92l2.32 1.71-1.45 2.26-.51.88c-1.53-.42-3.22-.6-4.44-1.69-3.12-2.71-5.59-6.16-7.17-9.98z"/><path fill="#8a897f" d="M234.94 266.1c3.07.76 6.12 1.72 8.84 3.41l-2.85 2.51 9.13 4.29-2.99.59c-4.29-2.52-9.2-1.24-13.86-1.17l-2.32-1.71c1.83-1.38 3.63-2.8 5.37-4.3 1.08.37 2.17.72 3.28 1.03-.62-2.31-2.7-3.49-4.6-4.65z"/><path fill="#74716c" d="M224.93 267.18c3.92.03 7.86.64 11.33 2.54-1.74 1.5-3.54 2.92-5.37 4.3-2.49-1.71-5.05-3.43-6.83-5.92l.87-.92z"/><path fill="#6d6b64" d="M290.48 267.71l2.53.03c-3.25 5.09-9.08 8.22-11.06 14.14 1.71-.44 3.43-.89 5.11-1.45-1.81 1.66-3.67 3.27-5.57 4.84l.31 1.81c-5.3.64-10.95 4.09-16.03.94l.21-.93c2.5-.93 5.22-1.33 7.56-2.66 3.02-1.97 5.48-4.65 7.71-7.45l-2.08-2.02c-5.18 4.17-11.47 6.78-18.13 7.18l-2.39-.76 2.48-.97 3.78-1.46c1.41-.05 2.9.31 4.26-.23 4.81-2.14 9.44-5.02 12.49-9.43l.76.8c1.06 1.06 2.18 2.07 3.31 3.08a175.06 175.06 0 0 1 4.75-5.46z"/><path fill="#69625b" d="M317.2 268.02l4.01.34c-1.9 5.28-5.97 9.2-10.21 12.66.5-4.98 3.67-8.91 6.2-13z"/><path fill="#585754" d="M215.19 269.49c1.68 1.14 3.07 2.74 3.83 4.64-.24 1.34-.71 2.63-1.11 3.94l-2.77-1.98-1.68-2.94c.45-1.26.27-3.07 1.73-3.66z"/><path fill="#505151" d="M321.35 281.58c3.15-3.87 4.77-8.68 7.64-12.74l.11 4.72c-1.81 1.34-3.97 2.7-4.47 5.08-.83 3.28-1.17 6.81-3.43 9.51l4.78 2.74c1.18-2.17 2.55-4.23 4.14-6.13-.68 5.1-.36 10.36-1.9 15.33-3.73 1.65-4.23 6.63-8.08 8.17-3.28 2.05-7.28 1.72-10.89.91-1.73-1.33-3.31-3.04-5.51-3.54l-2.09-.55.03-4.1c2.07 1.8 4.1 3.81 6.7 4.84 2.19.81 4.56.38 6.81.18-2.24-1.48-4.8-2.31-7.29-3.25-.49-2.35-.6-4.77.15-7.08 1.69 1.85 2.84 4.08 3.76 6.4.18-2.15.03-4.4.8-6.45 1.96-2.27 4.2-4.35 5.46-7.13l-3.86.34c-.82-.96-1.63-1.91-2.49-2.81 1.28-1.93 2.32-4.35 4.57-5.32 1.72.08 3.39.53 5.06.88z"/><path fill="#6f6f67" d="M245.24 270.26c.96-1.14 3.28.29 2.33 1.62-.97 1.14-3.3-.29-2.33-1.62z"/><path fill="#88897f" d="M211.94 272.77l1.52.38 1.68 2.94-.19 2.96-.84 7.41 2.74.14c4.55 1.05 9.19 1.73 13.74 2.8.47 2.54-2.51 3.92-3.77 5.76-4.71.8-9.18-1.16-13.84-1.34-.38 4.46-.47 8.94-.41 13.42-.45-6.12.25-12.46-1.85-18.36.04-5.39 1.66-10.68 1.22-16.11z"/><path fill="#75716b" d="M251.07 272.77c3.35.22 6.48 1.49 9.26 3.33l-.84 3.84 1.64.47-2.48.97c-6.74-.52-13.19-2.93-19.98-2.95-2.3-.23-4.6-.51-6.91-.44l1.45-2.26c4.66-.07 9.57-1.35 13.86 1.17 3.12 1.3 6.5 1.71 9.82 2.2-2.45-1.59-4.63-3.61-5.82-6.33z"/><path fill="#3f3e3c" d="M324.63 278.64c.5-2.38 2.66-3.74 4.47-5.08.61 3.7 1.45 7.43 1.02 11.2-1.59 1.9-2.96 3.96-4.14 6.13l-4.78-2.74c2.26-2.7 2.6-6.23 3.43-9.51z"/><path fill="#50514f" d="M261.04 282.14c6.66-.4 12.95-3.01 18.13-7.18l2.08 2.02c-2.23 2.8-4.69 5.48-7.71 7.45-2.34 1.33-5.06 1.73-7.56 2.66-1.47-1.81-3.16-3.44-4.94-4.95z"/><path fill="#83867d" d="M231.76 277.99c2.31-.07 4.61.21 6.91.44l-.21 5.06c-3.12.45-7.02-1.04-7.21-4.62l.51-.88z"/><path fill="#6b6d65" d="M287.56 279.97l3.12-3.34 1.72.3c2.36.48 4.78.55 7.19.39-.3 3.48-.47 6.98-.36 10.47 3.67-2.46 6.54-5.85 9.76-8.84l-1.84 6.23-1.58 4.49c-2.49.27-5.28 1.06-7.49-.58-3.92-2.48-8.82-4.39-10.52-9.12z"/><path fill="#434543" d="M238.67 278.43c6.79.02 13.24 2.43 19.98 2.95l2.39.76c1.78 1.51 3.47 3.14 4.94 4.95l-.21.93c-2.77-.62-5.61-.75-8.43-.99-5.79-2.11-11.94-3.36-18.1-3.54h-.78l.21-5.06z"/><path fill="#606160" d="M214.95 279.05c4.7.65 9.61.95 13.88 3.25 2.44 1.11 4.61 3.02 7.33 3.4 1.49.22 2.23-1.3 3.08-2.21 6.16.18 12.31 1.43 18.1 3.54-4.55.02-9.07-.69-13.62-.58-.66 2.51-1.33 5.01-1.75 7.57-2.42 1.03-5.29 1.75-6.81 4.1-1.7 2.2-.52 5.07-.88 7.59-.58 2.12-1.82 4.01-2.26 6.18 1.25 2.67 4.67 3.16 7.08 4.39-.39 1.57-.73 3.15-1.04 4.74-.03-1.25-.08-2.48-.15-3.72-4.36-.27-8.67-1.23-13.04-1.2-2.87 1.2-5.94 1.78-9.03 1.99.16 3.06.37 6.12.91 9.14-2.11-6.48-3.86-13.16-4.18-19.99-.06-4.48.03-8.96.41-13.42 4.66.18 9.13 2.14 13.84 1.34 4.94-.13 10.12-.22 14.41-3.02l-2.73-3.66c-3.89-.03-7.81-.26-11.55-1.4l2.86-1.94c-4.52.14-8.98-.56-13.41-1.38l.45 2.84c-.92-.07-1.83-.12-2.74-.14l.84-7.41z"/><path fill="#50504f" d="M287.06 280.43l.5-.46c1.7 4.73 6.6 6.64 10.52 9.12 2.21 1.64 5 .85 7.49.58l1.58-4.49c.11 1.64.34 3.26.6 4.89-1.3 1.42-2.48 3.1-2.43 5.13.03 1.15.12 2.31.2 3.47l-6.91.76c-2.72-.9-4.38-3.22-5.7-5.61 3.7.74 7.59 1.47 11.27.18l-1.55-1.83c-3.41-.86-7.05-.59-10.29.78l-2.28-.94c-.67-1.05-1.32-2.11-1.94-3.18l-1.35-2.4c-1.67.19-3.33.39-4.97.65l-.31-1.81c1.9-1.57 3.76-3.18 5.57-4.84z"/><path fill="#7a7b72" d="M216.4 283.76c4.43.82 8.89 1.52 13.41 1.38l-2.86 1.94c3.74 1.14 7.66 1.37 11.55 1.4l2.73 3.66c-4.29 2.8-9.47 2.89-14.41 3.02 1.26-1.84 4.24-3.22 3.77-5.76-4.55-1.07-9.19-1.75-13.74-2.8l-.45-2.84z"/><path fill="#626566" d="M310.19 284.85l1.53 1.17 2.49 2.81 3.86-.34c-1.26 2.78-3.5 4.86-5.46 7.13-.77 2.05-.62 4.3-.8 6.45-.92-2.32-2.07-4.55-3.76-6.4-.75 2.31-.64 4.73-.15 7.08l-3.93-2.72-2.29.95-3.07-1.55 6.91-.76-.2-3.47c2.25-.87 4.26-2.23 5.86-4.03l-2.26-2.46c.51-1.26.92-2.56 1.27-3.86z"/><path fill="#1e1e1d" opacity=".59" d="M243.72 286.45c4.55-.11 9.07.6 13.62.58 2.82.24 5.66.37 8.43.99 5.08 3.15 10.73-.3 16.03-.94 1.64-.26 3.3-.46 4.97-.65l1.35 2.4c-4.86-2.73-10.11-.06-14.94 1.24-2.83.99-5.71-.16-8.44-.92-5.79-1.84-11.95-1.37-17.93-1.93-1.27-.31-2.99.36-2.88 1.9-.68 8.09-.92 16.36-3.74 24.08.52-6.4 1.5-12.76 1.78-19.18.42-2.56 1.09-5.06 1.75-7.57z"/><path fill="#7c7f80" d="M307.75 290.07l1.17-1.36 2.26 2.46c-1.6 1.8-3.61 3.16-5.86 4.03-.05-2.03 1.13-3.71 2.43-5.13z"/><path fill="#020202" opacity=".76" d="M290.06 292.01l2.28.94.57.87c1.32 2.39 2.98 4.71 5.7 5.61l3.07 1.55-.03 4.1c-3.32-.79-6.25-2.6-8.86-4.73-.33-2.94-.87-5.95-2.73-8.34z"/><path fill="#6b6863" d="M292.34 292.95c3.24-1.37 6.88-1.64 10.29-.78l1.55 1.83c-3.68 1.29-7.57.56-11.27-.18l-.57-.87z"/><path fill="#4a4c4b" d="M235.16 298.12c1.52-2.35 4.39-3.07 6.81-4.1-.28 6.42-1.26 12.78-1.78 19.18l-.33 2.76-.76.32c-2.41-1.23-5.83-1.72-7.08-4.39.44-2.17 1.68-4.06 2.26-6.18.36-2.52-.82-5.39.88-7.59z"/><path fill="#866655" d="M301.68 300.98l2.29-.95 3.93 2.72c2.49.94 5.05 1.77 7.29 3.25-2.25.2-4.62.63-6.81-.18-2.6-1.03-4.63-3.04-6.7-4.84z"/><path fill="#5f5d59" d="M320.14 308.26c3.85-1.54 4.35-6.52 8.08-8.17-.23 3.57.5 7.1.87 10.64l-.29.71-2.69-3.23c-3.56 3.16-8.16 4.48-12.84 4.7-1.52-.25-3.03-.54-4.54-.82l-2.06-2.16c.85-.27 1.71-.53 2.58-.76 3.61.81 7.61 1.14 10.89-.91z"/><path fill="#6f6f6d" d="M303.74 305.63c2.2.5 3.78 2.21 5.51 3.54l-2.58.76 2.06 2.16-.32 3.9c2.03-.31 3.68-1.41 4.86-3.08 4.68-.22 9.28-1.54 12.84-4.7l2.69 3.23-.51.66c-6.26 4.14-14.01 4.05-21.2 4.85-4.12-2.17-2.59-7.54-3.35-11.32z"/><path fill="#888889" d="M308.73 312.09l4.54.82c-1.18 1.67-2.83 2.77-4.86 3.08l.32-3.9z"/><path fill="#575857" d="M307.09 316.95c7.19-.8 14.94-.71 21.2-4.85-1.82 2.22-3.18 4.87-5.46 6.67-2.32 1.34-5.07 1.92-7.73 1.87-2.93-.54-5.44-2.3-8.01-3.69z"/><path fill="#7f8179" d="M224.87 316.1c4.37-.03 8.68.93 13.04 1.2.07 1.24.12 2.47.15 3.72-.5 2.93-.97 5.88-.94 8.87-.98 1.14-1.97 2.29-2.9 3.48-4.77.12-9.62 1.1-14.34-.06l3.47-.4.02-2.68c3.57-2.4 6.44-6.69 5.15-11.12-1.04-1.2-2.38-2.07-3.65-3.01z"/><path fill="#8e9088" d="M215.84 318.09c3.09-.21 6.16-.79 9.03-1.99 1.27.94 2.61 1.81 3.65 3.01 1.29 4.43-1.58 8.72-5.15 11.12l-.02 2.68-3.47.4c-1.93-.56-2.01-2.82-2.65-4.38l-.48-1.7c-.54-3.02-.75-6.08-.91-9.14z"/><path fill="#070606" opacity=".76" d="M239.1 316.28l.76-.32c-.47 3.38-.53 6.82 0 10.2.6 3.7-.77 7.35-.39 11.06.6 7.26-.1 14.55.38 21.82.55 3.88-2.55 7.33-1.03 11.2.02 2.03-.23 4.06-.49 6.08-.87-8.03-1.9-16.3-.27-24.29 1.34-3.68-.55-7.4-.13-11.15.37-3.7-.24-7.36-.81-10.99-.03-2.99.44-5.94.94-8.87.31-1.59.65-3.17 1.04-4.74z"/><path fill="#626260" d="M217.23 328.93c.64 1.56.72 3.82 2.65 4.38 4.72 1.16 9.57.18 14.34.06-1.27 2.37-2.56 4.85-2.87 7.56.55 3.36 2.68 6.21 4.7 8.86-1.07.91-2.47 1.57-3.18 2.83-.58 2.75-.59 5.59-.89 8.38-1.22-3.14-1.81-6.46-2.16-9.79l-5.6.45c-1.19 2.49-2.07 5.12-2.85 7.77-.8-3.4-1.95-6.71-2.68-10.12-.54-2.36.97-4.58.93-6.93-.81-1.24-2.32-1.75-3.49-2.56-1.15 4.29-1.49 8.73-1.99 13.12-.23 1.87-.93 3.62-1.87 5.24-.45-1.71-1.11-3.41-1.06-5.2.42-2.09 1.32-4.04 1.8-6.12.75-3.5.37-7.16 1.28-10.64.95-2.46 3.16-4.47 2.94-7.29m8.51 13.49l.12 4.71c2.69.12 4.76-1.72 5.51-4.2-1.74-1.06-3.74-.76-5.63-.51z"/><path fill="#545351" d="M234.22 333.37l2.9-3.48c.57 3.63 1.18 7.29.81 10.99-.42 3.75 1.47 7.47.13 11.15-.69-.74-1.35-1.48-2.01-2.24-2.02-2.65-4.15-5.5-4.7-8.86.31-2.71 1.6-5.19 2.87-7.56z"/><path fill="#3c3e3c" d="M216.13 339.82c1.17.81 2.68 1.32 3.49 2.56.04 2.35-1.47 4.57-.93 6.93.73 3.41 1.88 6.72 2.68 10.12l.16 3.71a22.01 22.01 0 0 1-.7 7.62l.63 1.47.39.92c.11 1.59.14 3.18.16 4.77-3.75-1.07-6.42-4.14-9.86-5.82 2.27-.2 4.36-1.1 6.19-2.44-1.25-4.86-1.67-9.87-1.95-14.87l1.49-4.6-3.74 2.75c.5-4.39.84-8.83 1.99-13.12z"/><path fill="#8c8b8e" d="M225.74 342.42c1.89-.25 3.89-.55 5.63.51-.75 2.48-2.82 4.32-5.51 4.2l-.12-4.71z"/><path fill="#3f4040" d="M236.05 349.79l2.01 2.24c-1.63 7.99-.6 16.26.27 24.29a98.53 98.53 0 0 1-3.29.81c.52-2.03 1.35-4.06 1.23-6.18-.93-2.44-2.38-4.65-3.32-7.09-.35-.95-.67-1.9-.97-2.86.3-2.79.31-5.63.89-8.38.71-1.26 2.11-1.92 3.18-2.83z"/><path fill="#949498" d="M224.22 351.66l5.6-.45c.35 3.33.94 6.65 2.16 9.79.3.96.62 1.91.97 2.86l-3.13 6.56c-1.18-.44-2.35-.91-3.51-1.37-.07-5.87-2.27-11.49-2.09-17.39z"/><path fill="#acaaae" d="M221.37 359.43c.78-2.65 1.66-5.28 2.85-7.77-.18 5.9 2.02 11.52 2.09 17.39l3.51 1.37 2.4.86c-.14 2-.24 4-.3 6.02-1.27.08-2.54.21-3.8.33-.18-1.93-.23-3.9-.82-5.75-1.47-2.3-3.78-4.24-3.85-7.17l-1.92-1.57-.16-3.71m7.83 14.73l-.35.84.33.83.82.34.83-.36.35-.84-.33-.83-.82-.34-.83.36z"/><path fill="#63615c" d="M216.39 354.79c.28 5 .7 10.01 1.95 14.87-1.83 1.34-3.92 2.24-6.19 2.44-.04-3.29-.14-6.59.37-9.84.41-2.87 2.37-5.12 3.87-7.47z"/><path fill="#52585d" d="M221.53 363.14l1.92 1.57c.07 2.93 2.38 4.87 3.85 7.17.59 1.85.64 3.82.82 5.75l-6.11.29-.16-4.77c1.29-.01 2.57-.12 3.85-.32l.38-2.13-4.62 1.53-.63-1.47a22.01 22.01 0 0 0 .7-7.62z"/><path fill="#4c4e52" d="M232.95 363.86c.94 2.44 2.39 4.65 3.32 7.09.12 2.12-.71 4.15-1.23 6.18l-3.12.17.3-6.02-2.4-.86 3.13-6.56z"/><path fill="#7d8081" d="M221.46 372.23l4.62-1.53-.38 2.13c-1.28.2-2.56.31-3.85.32l-.39-.92z"/><path fill="#4e5155" d="M229.2 374.16l.83-.36.82.34.33.83-.35.84-.83.36-.82-.34-.33-.83.35-.84z"/></svg>