<svg xmlns="http://www.w3.org/2000/svg" width="682.667" height="682.667" viewBox="0 0 512 512"  xmlns:v="https://vecta.io/nano"><path fill="#202022" opacity=".81" d="M293.9 115.85c.65-2.38 2.56-4.23 5.02-4.62l3.43 2.38-7.66 2.01-.79.23z"/><path fill="#57585f" d="M294.69 115.62l7.66-2.01c3.04 2.41 3.95 6.32 5.41 9.71-2.28-2.11-3.36-5.06-4.71-7.77-1.38 1.03-3.11 1.96-3.57 3.77-1.18 3.6-1.16 7.44-1.59 11.17-.78 3.52-1.57 7.04-1.94 10.63-.35 2.83-1 5.61-1.82 8.35-2.27-2.01-4.6-4.44-3.97-7.73l4.53-26.12z"/><path fill="#1a1b1d" opacity=".64" d="M289.43 136.36c2.71-6.54 2.64-13.75 4.47-20.51l.79-.23-4.53 26.12c-.54 1.21-1.17 2.37-1.8 3.52-1.7.43-3.4.78-5.1 1.16 4.23-1.59 4.54-6.46 6.17-10.06z"/><path fill="#979d8a" d="M299.48 119.32c.46-1.81 2.19-2.74 3.57-3.77 1.35 2.71 2.43 5.66 4.71 7.77.63 1.4 1.25 2.82 1.58 4.33l-1.59 7.29-1.5.9-.78-1.34.97-7.64.48-.73-2.82-1.11c-1.82 3.18-1.78 6.88-1.8 10.44-.87-1.97-3.34-2.96-4.41-4.97.43-3.73.41-7.57 1.59-11.17z"/><path fill="#8a907f" d="M304.1 125.02l2.82 1.11-.48.73-2.03.65c-1.89 2.22-.19 4.96 1.06 6.99l.78 1.34 1.5-.9.08 5.15a19.97 19.97 0 0 0 .34 3.85c.27 5.76-.96 12.13 2.53 17.17-.59 1.5-1.21 3.03-1.32 4.66l-.46 5.83-3.07-1.01c.17 2.67.97 5.24 2.05 7.68l-1.79 1.26c-.51-1.25-.99-2.5-1.44-3.76l-.2-.71c-.64-1.32.08-4.26-2.17-3.67-.47 3.65-.95 7.29-1.62 10.9-.74-3.5.35-7.63-2.3-10.45 1.02-6.63 1.35-13.36 2.72-19.94.6-3.76 1.76-7.52 1.52-11.36-.37-1.08-1.73-1.01-2.62-1.32-.88-.06-1.77-.1-2.64-.12l-1.41 2.02c.37-3.59 1.16-7.11 1.94-10.63 1.07 2.01 3.54 3 4.41 4.97.02-3.56-.02-7.26 1.8-10.44z"/><path fill="#494748" d="M304.41 127.51l2.03-.65-.97 7.64c-1.25-2.03-2.95-4.77-1.06-6.99z"/><path fill="#646469" d="M309.34 127.65c.48 1.76.74 3.67 1.88 5.16l1.97 1.63-.35 3.19-.73 3.24 2.46-.12.22-2.76 3.49-1.25c1.07 1.69 2.9 3.14 2.81 5.33 0 3.08-.92 6.1-2.19 8.88-.98 2.23-3.48 3.17-4.89 5.07-1.21 1.63-2.26 3.36-3.31 5.09-3.49-5.04-2.26-11.41-2.53-17.17 1.2-.6 2.93-2.53 1.14-3.54l-1.48-.31c-.04-1.72-.11-3.43-.08-5.15.41-2.46 1.05-4.86 1.59-7.29m2.13 16.48c-.07 1.29.16 2.57.44 3.83-.38-.96-1.02-1.52-1.92-1.67-.58 3.33.48 6.7.08 10.06l-.22 1.93c2.35-.65 3.57-3.16 3.27-5.47l.87.43c1.36-1.24 2.56-2.96 1.7-4.86-.88-2.27 1.67-4.07 1.26-6.37-2.03-.12-4.41.11-5.48 2.12z"/><path fill="#77777c" d="M311.22 132.81l5.42-.36 1.64 4.29-3.49 1.25-1.95-.36a34.18 34.18 0 0 0 .35-3.19l-1.97-1.63z"/><path fill="#b9b7be" d="M312.11 140.87l.73-3.24 1.95.36-.22 2.76-2.46.12z"/><path fill="#9fa68e" d="M297.36 139.1l2.64.12c-1.77 8.58-3.74 17.21-3.95 26.01-.95-1.2-1.79-2.47-2.45-3.84.32-3.97.25-7.95.53-11.92.82-2.74 1.47-5.52 1.82-8.35l1.41-2.02z"/><path fill="#65646b" d="M300 139.22c.89.31 2.25.24 2.62 1.32.24 3.84-.92 7.6-1.52 11.36-1.37 6.58-1.7 13.31-2.72 19.94-.82 3.44-.75 7.17-2.43 10.35l-.87-.35c-.84-5.61 1.87-11.05.97-16.61.21-8.8 2.18-17.43 3.95-26.01z"/><path fill="#4c4d4d" d="M307.83 140.09l1.48.31c1.79 1.01.06 2.94-1.14 3.54a19.97 19.97 0 0 1-.34-3.85z"/><path fill="#393b40" d="M288.36 145.26l1.8-3.52c-.63 3.29 1.7 5.72 3.97 7.73-.28 3.97-.21 7.95-.53 11.92l-.59-.55c-.33-2.11-.58-4.23-1.07-6.31-.28-1.01-.72-1.96-1.22-2.87l-.6-.71-1.41-1.57c-2.09.03-4.14.42-6.13 1.03-.34 1.95-.63 3.92-.75 5.9-.33-2.91-1-5.85-.39-8.77l1.82-1.12 5.1-1.16z"/><path fill="#838388" d="M311.47 144.13c1.07-2.01 3.45-2.24 5.48-2.12.41 2.3-2.14 4.1-1.26 6.37.86 1.9-.34 3.62-1.7 4.86l-.87-.43-.51-1.93-.7-2.92c-.28-1.26-.51-2.54-.44-3.83z"/><path fill="#343436" opacity=".79" d="M309.99 146.29c.9.15 1.54.71 1.92 1.67l.7 2.92c-2.1.98-2.15 3.5-2.54 5.47.4-3.36-.66-6.73-.08-10.06z"/><path fill="#7b7c7c" d="M282.58 150.41c1.99-.61 4.04-1 6.13-1.03l1.41 1.57c-2.37-.16-4.74-.08-7.1.15.41 1.8 1.61 4.01 3.8 3.62 1.93.12 2.8-1.85 3.9-3.06.5.91.94 1.86 1.22 2.87-.63 1.1-1.37 2.17-1.74 3.4.11 1.58 1.63 2.21 2.81 2.91l.59.55c.66 1.37 1.5 2.64 2.45 3.84.9 5.56-1.81 11-.97 16.61l.87.35c1.68-3.18 1.61-6.91 2.43-10.35 2.65 2.82 1.56 6.95 2.3 10.45l.35 11.78c-.13.49-.37 1.48-.49 1.97l-1.6 1.05c1.23 1.88 3.14 3.14 5.14 4.09l-3.09 5.94c-1.4-2.85-1.72-6.19-3.61-8.79l-1.16-1.41c2.83-3.7 4.07-8.81 2.74-13.32-1.94 1.56-2.27 4.06-2.93 6.31l-1.69-1-1.5-4.36c.1-2.93.39-6.4-2.6-8.05-.43-2.57.01-5.14.83-7.59.61-2.03 1.36-4.05 1.49-6.19l-1.06-.97c-1.75-2.21-3.73 1.27-1.43 2.32-1.45 1.84-3.82 1.98-5.95 2.29-.18-.36-.52-1.08-.69-1.44.3-.05.91-.14 1.21-.18-.03-2.71-.68-5.35-1.24-7.99l-1.32 2.32-.25-2.76c.12-1.98.41-3.95.75-5.9z"/><path fill="#ffd24b" d="M283.02 151.1c2.36-.23 4.73-.31 7.1-.15l.6.71c-1.1 1.21-1.97 3.18-3.9 3.06-2.19.39-3.39-1.82-3.8-3.62z"/><path fill="#0b0b0c" opacity=".22" d="M310.07 156.35c.39-1.97.44-4.49 2.54-5.47l.51 1.93c.3 2.31-.92 4.82-3.27 5.47l.22-1.93z"/><path fill="#9d9da4" d="M290.2 157.93c.37-1.23 1.11-2.3 1.74-3.4.49 2.08.74 4.2 1.07 6.31-1.18-.7-2.7-1.33-2.81-2.91z"/><path fill="#96969d" opacity=".96" d="M283.4 156.75c.56 2.64 1.21 5.28 1.24 7.99l-1.21.18c-.58-1.31-.92-2.69-1.21-4.07l-.14-1.78 1.32-2.32z"/><path fill="#111112" opacity=".61" d="M282.22 160.85c.29 1.38.63 2.76 1.21 4.07l.69 1.44c.27 1.06.71 2.12.6 3.23-.79 1.13-2.41 1.06-3.56 1.57a48.51 48.51 0 0 1-4.35-.05c1.49-1.14 3.22-1.84 4.94-2.56.75-2.5.55-5.14.47-7.7z"/><path fill="#bcbbc3" d="M290.07 164.07c-2.3-1.05-.32-4.53 1.43-2.32l-1.43 2.32z"/><path fill="#3a3a3f" d="M291.5 161.75l1.06.97c-.13 2.14-.88 4.16-1.49 6.19-1.6-.57-3.21-1.54-4.94-.9-.36 1.43-1.22 2.97-.62 4.45 1.4 1.32 2.64 2.79 3.96 4.21l-5.44 1.03-7.44-1.71c2.15.11 4.33.16 6.47-.2l.16-2.13c-2.25-.22-4.5.13-6.38 1.44.05-2.5 2.15-3.55 4.32-3.94 1.15-.51 2.77-.44 3.56-1.57.11-1.11-.33-2.17-.6-3.23 2.13-.31 4.5-.45 5.95-2.29l1.43-2.32z"/><path fill="#4f4e4f" opacity=".97" d="M309.38 165.77c-.25 4.11 1.93 9.28-1.48 12.5-1.08-2.44-1.88-5.01-2.05-7.68l3.07 1.01.46-5.83z"/><path fill="#5b5a61" d="M286.13 168.01c1.73-.64 3.34.33 4.94.9-.82 2.45-1.26 5.02-.83 7.59l-.77.17-3.96-4.21c-.6-1.48.26-3.02.62-4.45z"/><path fill="#646464" d="M302.3 171.39c2.25-.59 1.53 2.35 2.17 3.67l.2.71 1.44 3.76c-1.39.87-2.71 1.85-4.02 2.83-.5 2.02-.9 4.33.14 6.26 1.59.85 3.32 1.42 5.02 2.01l-1.39.94c-1.86.36-3.85.66-4.83 2.5l-.35-11.78c.67-3.61 1.15-7.25 1.62-10.9z"/><path fill="#6e6f6f" opacity=".96" d="M219.67 173.91c1.4-.82 2.69-2.07 4.35-2.28 1.5.24 2.85.99 4.23 1.59-2.74.73-5.52 1.34-8.35 1.64l-.23-.95z"/><path fill="#010101" opacity=".76" d="M275.04 171.99l1.55 4 7.44 1.71c-1.97 4.74-2.31 10.49-.19 15.23l.7 1.49c.21 1.16.53 2.37.14 3.53-1.51 2.25-3.14 4.41-4.91 6.45-2-4.11-1.02-8.65-.99-13.01-1.27-3.06-4.88-2.72-7.57-2.46 2.14-.23 4.25-.63 6.37-1.01-1.34-5.23-1.79-10.6-2.54-15.93z"/><path fill="#50504d" d="M228.25 173.22l5.73 2.45-2.35.2.43 1.65c-.94 2.55-3.4 4.22-5.84 5.21l-.8.14c-1.2-.34-2.36-.76-3.52-1.2-.86-2.21-1.41-4.52-2-6.81 2.83-.3 5.61-.91 8.35-1.64z"/><path fill="#595857" d="M216.73 176.04c.94-.76 1.93-1.45 2.94-2.13l.23.95 2 6.81 3.52 1.2c-1.36.38-2.73.84-3.92 1.63-.58 1.56.99 3.03 1.61 4.38 1.68-.72 3.59-1.45 4.51-3.16.26-1.18-.97-2.01-1.4-2.99 2.44-.99 4.9-2.66 5.84-5.21l-.43-1.65 2.35-.2c1.71.1 3.65-.58 5.24.25 1.4 1.7.08 3.77-1.14 5.12-4.2 1.9-7.83 4.81-11.13 7.99-1.29 1.07-1.74 2.71-2.37 4.18-1.59 1.53-3.21 3.04-4.71 4.68-.96 1.02-1.92 2.04-2.83 3.11-.26-1.81-.55-3.61-.98-5.38-.25-3.68-4.92-3.9-6.46-6.66 2.74-2.57 6.72-2.74 9.89-4.55.45-1.83.61-3.72.2-5.58l-3.38-.99.42-1.8z"/><path fill="#8f919a" d="M276.84 175.1c1.88-1.31 4.13-1.66 6.38-1.44l-.16 2.13c-2.14.36-4.32.31-6.47.2l.25-.89z"/><path fill="#c0c2a9" d="M304.47 175.06l.2.71-.2-.71z"/><path fill="#6e6f6e" d="M209.49 186.48c2.24-3.59 4.13-7.5 7.24-10.44l-.42 1.8 3.38.99c.41 1.86.25 3.75-.2 5.58-3.17 1.81-7.15 1.98-9.89 4.55 1.54 2.76 6.21 2.98 6.46 6.66l-.34.75c-2.11-2.11-4.75-3.52-7.75-3.77.11-2.12.25-4.32 1.52-6.12z"/><path fill="#909193" d="M284.03 177.7c1.83-.21 3.63-.62 5.44-1.03l.77-.17c2.99 1.65 2.7 5.12 2.6 8.05-.27 1.93-.49 3.91.15 5.8-3.27-.14-6.55.45-9.15 2.58-2.12-4.74-1.78-10.49.19-15.23m2.14 2.73c-2.47 1.33-2.24 4.62-1.69 6.97 2.1.45 4.26.49 6.4.32.15-2.09-.19-4.16-.82-6.15.16-1.68-3.05-2.32-3.89-1.14z"/><path fill="#87c6f6" d="M286.17 180.43c.84-1.18 4.05-.54 3.89 1.14l-.58.36-2.93-1-.38-.5z"/><path fill="#373736" opacity=".94" d="M226.95 189.03c3.3-3.18 6.93-6.09 11.13-7.99-1.85 2.61-3.72 5.24-6.14 7.36-2.34 1.77-4.85 3.3-7.36 4.81.63-1.47 1.08-3.11 2.37-4.18z"/><path fill="#9cffff" d="M284.48 187.4c-.55-2.35-.78-5.64 1.69-6.97l.38.5-.59 4.05 2.79-.24.73-2.81.58-.36c.63 1.99.97 4.06.82 6.15-2.14.17-4.3.13-6.4-.32z"/><path fill="#eff" d="M286.55 180.93l2.93 1-.73 2.81-2.79.24.59-4.05z"/><path fill="#737372" d="M221.5 184.5c1.19-.79 2.56-1.25 3.92-1.63l.8-.14c.43.98 1.66 1.81 1.4 2.99-.92 1.71-2.83 2.44-4.51 3.16-.62-1.35-2.19-2.82-1.61-4.38z"/><path fill="#8d9087" d="M296.03 189.91c.66-2.25.99-4.75 2.93-6.31 1.33 4.51.09 9.62-2.74 13.32l-4.11-1.15.79-2.83.45-1.67.99-2.36 1.69 1z"/><path fill="#424a31" d="M244.66 188.23c1.99-1.06 3.55-3.43 6.07-2.95 1.72-.1 2.66 1.43 3.38 2.74l-.16.75c-2.24-.08-4.49-.17-6.7.15-.85 1.11-1.91 2.51-3.49 2.1-2.48-.48-4.85.41-7.14 1.25l-.75-.38c1.21-1.1 2.31-2.38 3.75-3.19 1.67-.22 3.38-.12 5.04-.47z"/><path fill="#383b45" d="M260.81 187.94c1.04-1.33 2.26-2.94 4.17-2.71 2.43-.3 3.19 2.44 4.63 3.81l1.6-.11c2.69-.26 6.3-.6 7.57 2.46-.03 4.36-1.01 8.9.99 13.01 1.77-2.04 3.4-4.2 4.91-6.45l.87-.26c1.8.74 3.62 1.46 5.48 2.05 1.96-1.09 4.06-1.97 6.35-1.41-2.5 2.8-1.95 6.81-3.88 9.84l-.83-.03c-1.65-.03-3.31.04-4.96.09-3.09-1.12-6.3-2.1-9.07-3.9-.88-1.35-1.08-2.98-1.4-4.52a120.5 120.5 0 0 0-.48-5.03c.1-2.24-1.92-3.75-3.85-4.36l-1.31.73-1.12.95c-2.65-2.49-6-4.07-9.67-4.16z"/><path fill="#aab09e" d="M292.99 190.35c-.64-1.89-.42-3.87-.15-5.8l1.5 4.36-.99 2.36-.36-.92z"/><path opacity=".76" d="M224.58 193.21l7.36-4.81c1.1 1.37 2.31 2.71 3.93 3.49l.75.38.48 1.65c-.26 2.93-.51 5.88-1.35 8.71-3.17 1.58-6.82 2.19-9.73 4.27-1.66 2.34-2.39 5.41-4.94 7.05-1.94 1.36-3.44 3.18-4.64 5.21-2.5 1.92-5.52 3.92-8.71 2.25 3.08-3.5 6.21-7.04 8.41-11.18 2.04-3.85 2.42-8.25 3.73-12.34 1.5-1.64 3.12-3.15 4.71-4.68z"/><path fill="#333340" d="M254.11 188.02c.72.98 1.09 2.33 2.21 2.96l3.33.3-.24 2.79-2.24.99-5.37-2.51c.91-1.14 1.84-2.32 2.15-3.78l.16-.75z"/><path fill="#62657c" d="M260.81 187.94c3.67.09 7.02 1.67 9.67 4.16.61.93 1.74 2.72 3.04 1.75.68-1.3-.83-2.4-1.92-2.7l1.31-.73c1.93.61 3.95 2.12 3.85 4.36-.69 1.55-1.37 3.1-1.92 4.7-2.69.53-5.75.35-8.11-1.11-2.55-2.85-4.58-6.13-6.24-9.56l.32-.87m3.41 2.07v.82l.72.42.71-.42v-.82l-.71-.42-.72.42z"/><path fill="#676b83" d="M243.76 191.02c1.58.41 2.64-.99 3.49-2.1 2.21-.32 4.46-.23 6.7-.15-.31 1.46-1.24 2.64-2.15 3.78l-1.78 2.2c-.36 1.53-.54 3.1-.67 4.67l-.87.08c-3.67-.09-7.22.88-10.83 1.39.72-1.76 1.11-3.62 1.69-5.42l-2.24-1.55-.48-1.65c2.29-.84 4.66-1.73 7.14-1.25m5.54-.99v.83l.71.41.71-.41.01-.82-.72-.42-.71.41z"/><path fill="#53576f" d="M259.65 191.28l.84-2.47c1.66 3.43 3.69 6.71 6.24 9.56 2.36 1.46 5.42 1.64 8.11 1.11.55-1.6 1.23-3.15 1.92-4.7a120.5 120.5 0 0 1 .48 5.03c-.37 2-.91 3.96-1.54 5.89-1.28-.28-2.56-.55-3.81-.93-2.29-1.47-4.63-2.86-7.07-4.08-1.96-1.3-2.33-3.61-2.74-5.74a49.47 49.47 0 0 0-1.1-.42l-1.57-.46c.06-.93.14-1.86.24-2.79z"/><path fill="#9796a7" d="M249.3 190.03l.71-.41.72.42-.01.82-.71.41-.71-.41v-.83z"/><path fill="#a1a1b2" d="M264.22 190.01l.72-.42.71.42v.82l-.71.42-.72-.42v-.82z"/><path fill="#707173" d="M283.84 192.93c2.6-2.13 5.88-2.72 9.15-2.58l.36.92-.45 1.67-8.36 1.48-.7-1.49z"/><path fill="#8e91a2" d="M270.48 192.1l1.12-.95c1.09.3 2.6 1.4 1.92 2.7-1.3.97-2.43-.82-3.04-1.75z"/><path fill="#706f70" opacity=".93" d="M305.86 191.57l1.39-.94 2.03 1.47c-.9 1.32-2.96.99-3.42-.53z"/><path fill="#4e4d4b" d="M301.03 194.07c.98-1.84 2.97-2.14 4.83-2.5.46 1.52 2.52 1.85 3.42.53 3.17 3.86 6.73 7.73 7.81 12.78l-.52.87c-1.92-2.09-3.11-4.65-3.8-7.38l-1.93 2.56-3.73-3.59-1.48 3.73-1.55.11c-2-.95-3.91-2.21-5.14-4.09l1.6-1.05.49-1.97z"/><path fill="#ce9b7c" d="M199.29 205.31c2.94-4.21 6.55-7.99 8.68-12.71 3 .25 5.64 1.66 7.75 3.77-.79 1.94-1.4 3.95-2.19 5.9-1.01.72-2.21 1.29-2.9 2.38-3.3 5.02-5.54 11.09-10.68 14.6-1.85.01-3.71-.13-5.54.21-2.13.62-3.78 2.16-5.56 3.39l-1.62-.11.53-2.8c4.59-4.24 7.82-9.66 11.53-14.63z"/><path fill="#7a7c8e" d="M250.02 194.75l1.78-2.2 5.37 2.51-.94 1.67-1.94 2.25c-1.04-1.76-2.53-3.17-4.27-4.23z"/><path fill="#9d9da6" d="M284.54 194.42l8.36-1.48-.79 2.83-6.56 1.92-.87.26c.39-1.16.07-2.37-.14-3.53z"/><path fill="#525350" d="M237.1 193.92l2.24 1.55-1.69 5.42.92 2.5c1.61.97 3.59.8 5.41 1.03l-1.46 1.36c-5.42 4.69-7.27 12.19-6.38 19.1l-.69 1.64c-3.15 1.05-6.45-.27-9.58-.75 1.92-3.62 3.98-7.38 4.45-11.51.36-2.79-2.76-3.96-4.93-4.55.45 2.36 1.03 4.71 1.59 7.05-2-.87-3.96-1.82-5.9-2.81 2.55-1.64 3.28-4.71 4.94-7.05 2.91-2.08 6.56-2.69 9.73-4.27.84-2.83 1.09-5.78 1.35-8.71z"/><path fill="#a8a7b1" d="M259.41 194.07l1.57.46c-.32 1.85-.87 3.66-1.46 5.45-1.04-1.15-2.12-2.25-3.29-3.25l.94-1.67 2.24-.99z"/><path fill="#646566" d="M260.98 194.53l1.1.42c.41 2.13.78 4.44 2.74 5.74-.47 3.47-.66 6.97-.72 10.48-2.78.23-6.85 1.89-8.42-1.42-1.02.92-2.11 1.89-3.54 2.02-1.01-3.63-.51-7.56-1.62-11.12l-1.17-1.23c.13-1.57.31-3.14.67-4.67 1.74 1.06 3.23 2.47 4.27 4.23l1.11 1.72a26.32 26.32 0 0 0 4.12-.72c.59-1.79 1.14-3.6 1.46-5.45z"/><path fill="#6e5342" opacity=".84" d="M215.72 196.37l.34-.75c.43 1.77.72 3.57.98 5.38-2.54 4.26-4.68 8.74-7.08 13.08 1-3.99 2.04-7.99 3.57-11.81.79-1.95 1.4-3.96 2.19-5.9z"/><path fill="#656770" d="M285.55 197.69l6.56-1.92 4.11 1.15 1.16 1.41c-2.29-.56-4.39.32-6.35 1.41-1.86-.59-3.68-1.31-5.48-2.05z"/><path fill="#f3f2f3" d="M256.23 196.73c1.17 1 2.25 2.1 3.29 3.25a26.32 26.32 0 0 1-4.12.72l-1.11-1.72 1.94-2.25z"/><path fill="#696868" d="M307.11 197.34l3.73 3.59 1.93-2.56c.69 2.73 1.88 5.29 3.8 7.38l-1.27.72c-3.68-.77-6.57-3.44-9.67-5.4a131.35 131.35 0 0 1 1.48-3.73z"/><path fill="#585b72" d="M237.65 200.89c3.61-.51 7.16-1.48 10.83-1.39-1.46 1.67-2.9 3.38-4.5 4.92-1.82-.23-3.8-.06-5.41-1.03l-.92-2.5z"/><path fill="#46454a" d="M297.38 198.33c1.89 2.6 2.21 5.94 3.61 8.79.63 1.23 1.36 2.4 2.13 3.55l-3.81-2.3-.65 2.13c-.52 2.41-2.13 4.37-2.85 6.71l-1.41-2.37 1.6-3.96-2.5-2.71c1.93-3.03 1.38-7.04 3.88-9.84z"/><path fill="#6e6f70" d="M248.48 199.5l.87-.08 1.17 1.23c1.11 3.56.61 7.49 1.62 11.12-1.9.21-3.82.17-5.71-.04l-.94-5.08-2.97-.87 1.46-1.36c1.6-1.54 3.04-3.25 4.5-4.92z"/><path fill="#4b4c4a" d="M277.24 199.81c.32 1.54.52 3.17 1.4 4.52 2.77 1.8 5.98 2.78 9.07 3.9l3.37 1.87 2.56 1.58c-1.32 1.69-3.25 2.7-4.84 4.08-.85 1.17-1.26 2.59-1.72 3.95l-4.45-.11c-1.01 1.64-2.1 3.23-3.4 4.66l-.54-5.33a27.54 27.54 0 0 0-.49-3.02c-.33-4.53-3.42-7.95-6.31-11.14 1.25.38 2.53.65 3.81.93.63-1.93 1.17-3.89 1.54-5.89z"/><path fill="#585859" d="M264.1 211.17c.06-3.51.25-7.01.72-10.48 2.44 1.22 4.78 2.61 7.07 4.08-2.08 1.74-2.71 4.36-3.09 6.93l-.71 2.39c-2.42 1.23-5.63-.83-8.05.86l-1.3.69-1.42.83v.81c-.51.06-1.53.16-2.05.21l.22-2.17-.67-.46-.8-.22c-1.38-.38-2.8-.74-3.97-1.6 2.04.04 4.08.21 6.12.09l.47.58.08-.55c2.41.26 4.87.19 7.26-.26l.12-1.73z"/><path fill="#565654" d="M304.08 201.18l1.55-.11c3.1 1.96 5.99 4.63 9.67 5.4l1.27-.72.52-.87c.94 2.66.97 5.5-.04 8.15l-.86-.33c-1.57-.46-3.22-1.45-4.87-.76-1.65.39-2.52 1.93-3.54 3.12-.55.84-1.26 1.47-2.14 1.88.26-1.73.57-3.46.75-5.2l-3.27-1.07c-.77-1.15-1.5-2.32-2.13-3.55l3.09-5.94z"/><path fill="#b3876b" d="M210.63 204.65c.69-1.09 1.89-1.66 2.9-2.38-1.53 3.82-2.57 7.82-3.57 11.81l-2.23 7.33c-1.16.75-2.34 1.47-3.46 2.28l-2.33-2.66c-.65-.61-1.32-1.2-1.99-1.78 5.14-3.51 7.38-9.58 10.68-14.6z"/><path fill="#767473" d="M268.8 211.7c.38-2.57 1.01-5.19 3.09-6.93 2.89 3.19 5.98 6.61 6.31 11.14-2.44-2.44-3.32-6.1-6.17-8.12-1.02 1.51-.14 3.22.33 4.75 1.39 3.82 2.44 7.75 3.73 11.61 1.03-1.65 1.98-3.37 2.6-5.22l.54 5.33c1.3-1.43 2.39-3.02 3.4-4.66 1.49-.04 2.97.01 4.45.11.53 5.1.1 10.37-1.82 15.17a73.98 73.98 0 0 0-1.52-6.08c-1.02 2.11-2.01 4.24-3.24 6.23-2.55-1.64 1.33-5.06-.87-6.52-1.91.21-3.74.79-5.6 1.24-.99-6.04-1.64-12.16-3.18-18.09l-2.05.04m16.42 17.61v.45h.45v-.45h-.45z"/><path fill="#87857e" d="M236.14 224.88c-.89-6.91.96-14.41 6.38-19.1.99.27 1.98.57 2.97.87l.94 5.08c1.89.21 3.81.25 5.71.04 1.43-.13 2.52-1.1 3.54-2.02 1.57 3.31 5.64 1.65 8.42 1.42l-.12 1.73c-2.39.45-4.85.52-7.26.26l-.55-.03c-2.04.12-4.08-.05-6.12-.09 1.17.86 2.59 1.22 3.97 1.6-2.18-.06-4.26.63-6.31 1.28-1.71.55-3.93.35-5.06 2.01-1.52 2.56-2.52 5.38-3.59 8.14 1.36 1.97 3.86 2.69 5.31 4.54.54 3.35-.49 6.73-.02 10.08.54 3.06 1.93 6.74 5.47 7.17.87-2.11.94-4.74 2.68-6.35 3.21-.23 6.43-.29 9.59-.95.85 3.29-1.51 6.49-2.38 9.6-1.13-1.78-1.76-4.09-3.48-5.35-1.11 2.63-3.04 4.78-5.25 6.55.23 1.67 1.38 3.5 3.2 3.67 2.88.29 5.95.1 8.58-1.19 3.01-3.97 2.53-9.3 3.03-14 .08-3.07 1.31-6.43-.35-9.29-.83-1.58-2.62-2.29-3.63-3.73-.73-1.98-1.33-4.03-1.6-6.12l-.17-5.75c2.42-1.69 5.63.37 8.05-.86l.71-2.39 2.05-.04c1.54 5.93 2.19 12.05 3.18 18.09-3.47 3.11-1.22 7.92-1.15 11.88-3.55 1.96-1.1 7.07-3.3 9.99-2 2.39-4.65 4.28-7.58 5.33-5.66 1.74-11.55.36-17.27-.17-1.42-.72-2.32-2.04-2.61-3.59l-.47-10.17c-.1-3.2.62-6.36.49-9.56-1.88-2.95-5.93-4.56-6-8.58z"/><path fill="#8f8f98" d="M287.71 208.23l4.96-.09-1.59 1.96-3.37-1.87z"/><path fill="#68645e" d="M272.03 207.79c2.85 2.02 3.73 5.68 6.17 8.12a27.54 27.54 0 0 1 .49 3.02c-.62 1.85-1.57 3.57-2.6 5.22-1.29-3.86-2.34-7.79-3.73-11.61-.47-1.53-1.35-3.24-.33-4.75z"/><path fill="#595a58" d="M292.67 208.14l.83.03 2.5 2.71-1.6 3.96 1.41 2.37c.72-2.34 2.33-4.3 2.85-6.71-.08 3.37-.46 6.76-.23 10.14.01 1.83 1.93 2.53 3.08 3.59 1.33 2.23 2.38 4.61 3.4 6.99-1.52.39-3.01.86-4.49 1.37-.21 3.45.48 6.85.84 10.27l-.46 4.26c-.14 1.82-.17 3.64-.29 5.46-.17 4.28-3.06 7.99-2.78 12.35 2.46-.6 4.61-1.97 6.86-3.07 1.03 1.77 2.01 3.99 4.37 4.17 2.27-1.04 4.21-2.66 6.21-4.15.6 1.86 1.32 3.68 2.03 5.51-.83 1.41-1.41 3-2.54 4.21-1.55 1.27-3.41 2.07-5.15 3.03-1.7-.43-3.31-1.11-4.89-1.83 1.33-1.88 3.84-1.81 5.83-2.5 1.89-.42 3.27-1.87 4.73-3.03-3.3.54-6.51 1.5-9.75 2.29-3.35.91-6.81.22-10.21.15-2.08 1.85-3.47 4.28-4.94 6.6l-1.45 1.78c-1.54.05-3.08.07-4.62.07.48-3.38 2.22-6.83.92-10.22-1.75 2.01-3.16 4.27-4.93 6.27-2.06 2.13-4.7 3.56-7.02 5.37 1.05 1.34 2.26 2.57 3.71 3.49-3.28 0-5.35-2.62-8.03-4.01-5.19-.83-10.47.16-15.67-.4-2.01-.84-3.85-2.12-5.44-3.6-1.74-1.41-2.55-3.81-4.8-4.59 5.81-.37 11.66-.37 17.45.33 2.52.87 5.01 2.09 7.72 2.28 2.75-1.11 5.07-3.14 7.88-4.18l-2.82 8.08c3.16-1.32 4.5-4.67 6.84-6.93 1.3-1.48 2.99-2.68 3.94-4.43.18-2.63.24-5.27.9-7.83.45-1.44-.17-2.84-.58-4.2.73-1.43 1.37-2.9 1.97-4.39l.41-2.78c-1.15-.92-2.3-1.83-3.51-2.66l.29-6.4 1.82-2.48c1.92-4.8 2.35-10.07 1.82-15.17.46-1.36.87-2.78 1.72-3.95 1.59-1.38 3.52-2.39 4.84-4.08l-2.56-1.58 1.59-1.96m1.81 24.36c.43 5.16.45 10.36.44 15.54.03 7.92-4.03 15.09-4.79 22.88a61.47 61.47 0 0 1 .78 1.38c2.2-2.41 4.32-5.11 4.93-8.39.96-5.27 2.62-10.48 2.54-15.88.08-7.31-.55-14.9-3.59-21.62-1.4 1.8-.39 4.06-.31 6.09m-34.35 41.08c-1.36.51-2.43 1.51-3.48 2.48.96.64 1.97 1.97 3.28 1.47 1.76-.57 3.57-1.1 5.37-.31 1.4.69 2.99-.44 2.69-2.02-2.43-1.2-5.42-.14-7.86-1.62z"/><path fill="#3b3533" d="M299.31 208.37l3.81 2.3 3.27 1.07-.75 5.2c.88-.41 1.59-1.04 2.14-1.88l1.02 7.08-2-2.6-1.88-1.82-2.73 1.57-.68 4.94c-1.15-1.06-3.07-1.76-3.08-3.59-.23-3.38.15-6.77.23-10.14l.65-2.13m2.77 5.48c-1.23 1.2-.44 2.81-.11 4.2 2-.45 2.18-2.31 1.91-4.02l-1.8-.18z"/><path fill="#78756b" d="M225.39 209.71c2.17.59 5.29 1.76 4.93 4.55-.47 4.13-2.53 7.89-4.45 11.51-1.79 2.9-3.87 5.89-3.89 9.44-.05 2.55-.45 5.09-2.14 7.12-.08-4.54.47-9.05.83-13.56-1.33 2.66-2.81 5.24-3.89 8.01.78-3.47 1-7.13 2.68-10.32 1.6-3.11 3.55-6.07 4.45-9.49-2.45.86-4.96 1.55-7.47 2.19 1.2-2.03 2.7-3.85 4.64-5.21 1.94.99 3.9 1.94 5.9 2.81-.56-2.34-1.14-4.69-1.59-7.05z"/><path fill="#c18d6f" d="M311.32 211.94c1.65-.69 3.3.3 4.87.76.83 6.54 5.75 11.63 6.73 18.14l-1.92 1.05-3.44 1.05c-1.17.4-2.32.87-3.48 1.29-.85-.04-1.7-.1-2.54-.19.25-3.61-.81-7.05-2.34-10.27l-.4-1.63c-.47-2.34-.76-4.71-1.02-7.08 1.02-1.19 1.89-2.73 3.54-3.12z"/><path fill="#c8c9c8" d="M256.17 213.13l.55.03-.08.55-.47-.58z"/><path fill="#a77a5d" d="M316.19 212.7l.86.33c3.33 8.14 8.49 15.36 11.81 23.51-2.75-1.34-5.37-2.89-7.86-4.65l1.92-1.05c-.98-6.51-5.9-11.6-6.73-18.14z"/><path fill="#828185" d="M302.08 213.85l1.8.18c.27 1.71.09 3.57-1.91 4.02-.33-1.39-1.12-3 .11-4.2z"/><path fill="#9a9891" d="M247.71 215.92c2.05-.65 4.13-1.34 6.31-1.28l.8.22c-.68.91-.77 1.88-.27 2.9l.19.62.1.54.29 3.15.03.59c.08 3.15-.26 6.29-.53 9.42l-.03.61.12 5.29c1.74.05 3.46-.12 5.17-.45.98-5.58-1.07-11.24.32-16.83.27 2.09.87 4.14 1.6 6.12 1.01 1.44 2.8 2.15 3.63 3.73 1.66 2.86.43 6.22.35 9.29-.5 4.7-.02 10.03-3.03 14-2.63 1.29-5.7 1.48-8.58 1.19-1.82-.17-2.97-2-3.2-3.67 2.21-1.77 4.14-3.92 5.25-6.55 1.72 1.26 2.35 3.57 3.48 5.35.87-3.11 3.23-6.31 2.38-9.6-3.16.66-6.38.72-9.59.95-1.74 1.61-1.81 4.24-2.68 6.35-3.54-.43-4.93-4.11-5.47-7.17-.47-3.35.56-6.73.02-10.08-1.45-1.85-3.95-2.57-5.31-4.54 1.07-2.76 2.07-5.58 3.59-8.14 1.13-1.66 3.35-1.46 5.06-2.01z"/><path fill="#e3e5e6" d="M254.82 214.86l.67.46-.22 2.17-.72.27c-.5-1.02-.41-1.99.27-2.9z"/><path fill="#787d88" d="M258.74 215.64l1.3-.69.17 5.75c-1.39 5.59.66 11.25-.32 16.83-1.71.33-3.43.5-5.17.45-.14-1.76-.16-3.53-.12-5.29a12.45 12.45 0 0 0 .03-.61c.27-3.13.61-6.27.53-9.42-.01-.14-.03-.44-.03-.59l-.29-3.15-.1-.54-.19-.62.72-.27 2.05-.21.8-.05.62-1.59m-1.37 5.79c-1.04 1.78-.6 4.17.03 6.04 1.02-1.25 1.67-5.13-.03-6.04m-.01 9.04c-.77 1.51-.96 3.63-.05 5.12 1.51-.6 1.25-4.34.05-5.12z"/><path fill="#cdd0d3" d="M257.32 216.47l1.42-.83-.62 1.59-.8.05v-.81z"/><path fill="#5a5c54" d="M216.44 219.16l7.47-2.19c-.9 3.42-2.85 6.38-4.45 9.49-1.68 3.19-1.9 6.85-2.68 10.32-.8 2.27-1.49 4.57-1.95 6.94l-.99.08c.06-2.56-.01-5.13.19-7.68l1.01-2.77c.43-1.35.77-2.73 1.15-4.08.58-2 1.25-3.97 1.83-5.97-4.59 1.94-9.43 3.12-14.11 4.79-1.57 4.04-.87 8.51-.47 12.71-1.54.77-3.15 1.38-4.78 1.93l3.26-15.62c.14-1.51 1.31-2.48 2.35-3.42 1.12-.81 2.3-1.53 3.46-2.28 3.19 1.67 6.21-.33 8.71-2.25z"/><path fill="#cfcfcf" d="M254.84 218.92l-.1-.54.1.54z"/><path fill="#020202" opacity=".76" d="M302.19 219.29l2.73-1.57 1.88 1.82-1.7 1.72c.04 4.3 1.37 9.16 4.88 11.92-.13-3.15-.4-6.28-.78-9.41 1.53 3.22 2.59 6.66 2.34 10.27-2.51-.07-4.63-1.45-6.63-2.82-1.02-2.38-2.07-4.76-3.4-6.99.2-1.65.43-3.3.68-4.94z"/><path fill="#5a5652" d="M194.41 219.46c1.83-.34 3.69-.2 5.54-.21l1.99 1.78c-1.17.8-2.61 1.35-3.46 2.54-.49 3.59.79 7.25-.17 10.82-.97 3.61-1.67 7.71-4.77 10.19l-.89.21c-2.11-3.87-.5-8.17.09-12.2.36-2.85 1.67-5.42 2.98-7.93l-1.57-.3c-.81.89-1.61 1.78-2.37 2.71l-1.51.04-1.22-1.02c-.27-1.07-.4-2.16-.2-3.24 1.78-1.23 3.43-2.77 5.56-3.39z"/><path fill="#464846" d="M182.24 225.13c1.66-1.92 3.65-3.5 5.52-5.19l-.53 2.8 1.62.11c-.2 1.08-.07 2.17.2 3.24-2.24 4.7-3.14 9.85-4.09 14.92-1.24 2.16-2.63 4.29-4.64 5.81l-1.54-1.91-.41-.62c-.66-7.69 3.27-14.89 8.4-20.33-1.52.36-3.03.75-4.53 1.17z"/><path opacity=".05" d="M305.1 221.26l1.7-1.72 2 2.6.4 1.63.78 9.41c-3.51-2.76-4.84-7.62-4.88-11.92z"/><path fill="#312f29" d="M201.94 221.03l2.33 2.66c-1.04.94-2.21 1.91-2.35 3.42l-3.26 15.62-1.73 5.97c-.77 2.44-2.67 4.17-4.66 5.66l1.27-9.78c3.1-2.48 3.8-6.58 4.77-10.19.96-3.57-.32-7.23.17-10.82.85-1.19 2.29-1.74 3.46-2.54z"/><path fill="#bcc2cb" d="M257.37 221.43c1.7.91 1.05 4.79.03 6.04-.63-1.87-1.07-4.26-.03-6.04z"/><path fill="#e0e1e6" d="M255.13 222.07c0 .15.02.45.03.59l-.03-.59z"/><path fill="#7e8078" d="M203.91 228.09c4.68-1.67 9.52-2.85 14.11-4.79-.58 2-1.25 3.97-1.83 5.97-2.39-.07-4.79-.09-7.17.04-.99 3.65 3.37 4.49 6.02 4.04l-1.01 2.77c-2.84-.45-6.1-.76-7.86 2.04.38 3.76 3.19 6.69 6.89 7.33.78 3.86-.36 7.55-1.49 11.2l1.9 3.49-1.59.28c-6.38-1.39-11.84-6.09-14.95-11.76l1.73-5.97c1.63-.55 3.24-1.16 4.78-1.93-.4-4.2-1.1-8.67.47-12.71z"/><path fill="#5b5c5a" d="M182.24 225.13l4.53-1.17c-5.13 5.44-9.06 12.64-8.4 20.33-1.27-2.08-3.18-4.31-5.84-2.92-1.98 2.3-2.17 5.47-2.69 8.32-1.03-2.62-.49-5.6.98-7.94 1.67-1.92 3.76-3.49 5.1-5.69 2.24-3.57 3.99-7.42 6.32-10.93z"/><path fill="#8c8d90" d="M194.15 224.36l1.57.3c-1.31 2.51-2.62 5.08-2.98 7.93-.59 4.03-2.2 8.33-.09 12.2-1.5.44-3.05.62-4.62.6l3.75-18.32c.76-.93 1.56-1.82 2.37-2.71z"/><path fill="#60615f" d="M236.14 224.88c.07 4.02 4.12 5.63 6 8.58.13 3.2-.59 6.36-.49 9.56l.47 10.17c-1-3.17-1.82-6.41-2.83-9.58-.77-2.48-2.44-4.57-3.24-7.03-.08-1.75.43-3.46.68-5.18l-3.73-.75-.51-.7c-.84 3.59-2.64 6.8-4.76 9.78-1.03 1.24-.56 2.92-.62 4.39.16 4-2.08 8.13-.02 11.96 2.25 4.64 4.73 9.23 5.94 14.28-2.27-.24-4.54-.54-6.81-.54-2.37.75-4.38 2.26-6.42 3.62a19.27 19.27 0 0 1-4.39-5.21c1.33-.17 2.69-.25 3.99-.65l1.73-.88c.7-4.11-.11-8.24-1.12-12.22-1.07-3.97-.71-8.13-.17-12.15 1.69-2.03 2.09-4.57 2.14-7.12.02-3.55 2.1-6.54 3.89-9.44 3.13.48 6.43 1.8 9.58.75l.69-1.64z"/><path fill="#757878" d="M189.05 226.09l1.22 1.02 1.51-.04-3.75 18.32-2.22.74-.85-5.12c.95-5.07 1.85-10.22 4.09-14.92z"/><path fill="#88847d" d="M294.48 232.5c-.08-2.03-1.09-4.29.31-6.09 3.04 6.72 3.67 14.31 3.59 21.62.08 5.4-1.58 10.61-2.54 15.88-.61 3.28-2.73 5.98-4.93 8.39a61.47 61.47 0 0 0-.78-1.38c.76-7.79 4.82-14.96 4.79-22.88.01-5.18-.01-10.38-.44-15.54z"/><path fill="#575858" d="M274.03 229.75c1.86-.45 3.69-1.03 5.6-1.24 2.2 1.46-1.68 4.88.87 6.52l-1.27 1.13c-2.19.85-2.68 2.99-2.28 5.13-.05 1.79 1.66 2.62 2.85 3.61-1.87 1.2-3.62 2.59-5.15 4.2l2.4 1.4 3.27-1.17 1.26-.88c-.45 1.57-.13 3.68-1.69 4.7-1.4 1.36-3.4.74-5.11.6l-.82 1.98c2.47 1.61 5.55.6 8.3.57-.83 4.49-4.15 7.8-5.98 11.86l1.72-8.04-4.72 3.85-4.32-1.03.1-.81c.71-1.99 1.93-4.08 4.36-3.65-.13-2.25-.43-4.49-.62-6.73.47-3.35.67-6.76.08-10.12-.07-3.96-2.32-8.77 1.15-11.88z"/><path fill="#94958c" d="M209.02 229.31l7.17-.04-1.15 4.08c-2.65.45-7.01-.39-6.02-4.04z"/><path fill="#8e8b83" d="M216.78 236.78c1.08-2.77 2.56-5.35 3.89-8.01-.36 4.51-.91 9.02-.83 13.56-.54 4.02-.9 8.18.17 12.15 1.01 3.98 1.82 8.11 1.12 12.22l-1.73.88c-.67-1.21-1.33-2.43-1.9-3.68-.35-2.71-.78-5.41-1.42-8.06-.95-3.98-.51-8.12-1.25-12.12.46-2.37 1.15-4.67 1.95-6.94z"/><path fill="#454444" d="M280.5 235.03c1.23-1.99 2.22-4.12 3.24-6.23l1.52 6.08-1.82 2.48-1.48-1.17c-.2 2.92-.22 5.84-.14 8.76l1.33-1.19 3.51 2.66-.41 2.78-1.57-2.99-3.1 2.24-1.26.88c-.04-1.44 1.12-3.51-.52-4.43-1.19-.99-2.9-1.82-2.85-3.61l2.63-1.5-.35-3.63 1.27-1.13z"/><path fill="#bcbabd" d="M285.22 229.31h.45v.45h-.45v-.45z"/><path fill="#8f8b83" d="M227.73 239.73c2.12-2.98 3.92-6.19 4.76-9.78l.51.7c-.09 4.75 1.3 9.67-.4 14.28-.58-1.69-1.12-3.39-1.26-5.17-.16 2.17-.34 4.34-.35 6.52l.06 3.45c-.46 7.32 1.6 14.41 4.55 21.03l-2.57-.4c-1.21-5.05-3.69-9.64-5.94-14.28-2.06-3.83.18-7.96.02-11.96.06-1.47-.41-3.15.62-4.39z"/><path fill="#c4cad4" d="M257.36 230.47c1.2.78 1.46 4.52-.05 5.12-.91-1.49-.72-3.61.05-5.12z"/><path fill="#524f4d" d="M233 230.65l3.73.75c-.25 1.72-.76 3.43-.68 5.18.8 2.46 2.47 4.55 3.24 7.03l2.83 9.58c.29 1.55 1.19 2.87 2.61 3.59 3.23 3 7.58 3.97 11.87 4.24 2.09.36 4.15.86 6.2 1.43l-2.68 2.01-.81.41-1.43.31a6.94 6.94 0 0 0-3.52-.4l-1.39.04c-2.84-1.27-6.05-2.14-8.17-4.57l-5.01-5.3c-.68-.95-1.32-1.92-1.97-2.87.74-1.05 1.43-2.15 1.84-3.37-.33-1.52-1.64-2.65-2.97-3.32-1.94-.05-3.81.54-5.7.89.01-2.18.19-4.35.35-6.52.14 1.78.68 3.48 1.26 5.17 1.7-4.61.31-9.53.4-14.28z"/><path fill="#6d6e65" d="M300.42 232.59l4.49-1.37c2 1.37 4.12 2.75 6.63 2.82l2.54.19c.4 3.22.5 6.47.26 9.7-.42 6 .54 11.97.83 17.95-2 1.49-3.94 3.11-6.21 4.15-2.36-.18-3.34-2.4-4.37-4.17-2.25 1.1-4.4 2.47-6.86 3.07-.28-4.36 2.61-8.07 2.78-12.35l.29-5.46c1.43 1.46 3.71 1.22 5.25 2.33 2.24 2.86-.14 6.08-.28 9.1 1.21 1.99 3.41 3.08 5.33 4.28.65-2.86.18-5.78-.23-8.63-.5-3.01.4-5.98.88-8.92-2.98-2.3-6.94-2.07-10.49-2.42-.36-3.42-1.05-6.82-.84-10.27z"/><path fill="#e4e9ed" d="M254.6 232.69l.03-.61-.03.61z"/><path fill="#4c4c4b" d="M317.56 232.94l3.44-1.05c2.49 1.76 5.11 3.31 7.86 4.65 2.16 4.3 5.94 7.58 7.73 12.09 2.08 4.58 2.73 9.8 5.86 13.87 1.59 1.99 1.87 4.87.57 7.07-.39-3.37-1.48-6.99-4.3-9.12l-1.43-.15c-1.01 2.32-.3 4.81-.22 7.23-1.35 1.18-2.74 2.31-4.14 3.43l1.94.81c-.52.76-1.05 1.51-1.59 2.25-2.61.6-5.16 1.39-7.66 2.32l-4.61.5-1.48-2.46c-3.33.31-6.71 1.08-10.02.25 1.74-.96 3.6-1.76 5.15-3.03 1.13-1.21 1.71-2.8 2.54-4.21l1.45-1.51c-.19 2.03-1.22 4.07-.67 6.12 2.14-.65 4.36-.96 6.59-1.08.9-1.74 1.52-3.62 2.02-5.51-2.03.09-4.52.78-5.81-1.32.33-1.8.77-3.59 1.66-5.2 1.34-.21 2.68-.4 4.03-.51 1.97-2.31 1.78-5.51 1.85-8.35-.05-3.24-.02-6.52-.7-9.71-.2-1.71-2.22-1.83-3.39-2.6-1.24-.89-2.58-1.62-4.08-1.92 1.31 6.51 1.89 13.24.39 19.78-1.43-1.16-.77-3.05-.7-4.6.26-2.24.39-4.5.24-6.75l-3.39.58c.66-3.91 2.56-7.95.87-11.87m11.47 12.3c-1 4.49-.2 9.59 3.01 13.05 1.52-1.25.63-3.09.54-4.72-.26-1.5.44-2.91.66-4.36-.2-1.99-1.31-3.73-2.18-5.49l-2.03 1.52z"/><path fill="#2c2d29" d="M314.08 234.23l3.48-1.29c1.69 3.92-.21 7.96-.87 11.87-.24 7.09 2.33 13.97 1.96 21.07l-1.45 1.51c-.71-1.83-1.43-3.65-2.03-5.51-.29-5.98-1.25-11.95-.83-17.95.24-3.23.14-6.48-.26-9.7z"/><path fill="#97968e" d="M206.17 238.16c1.76-2.8 5.02-2.49 7.86-2.04-.2 2.55-.13 5.12-.19 7.68l-.78 1.69c-3.7-.64-6.51-3.57-6.89-7.33z"/><path fill="#8b4849" d="M276.95 241.29c-.4-2.14.09-4.28 2.28-5.13l.35 3.63-2.63 1.5z"/><path fill="#6c6a68" d="M281.96 236.19l1.48 1.17-.29 6.4-1.33 1.19.14-8.76z"/><path fill="#898a8f" d="M320.15 235.8c1.5.3 2.84 1.03 4.08 1.92-.55 6.34 1.09 12.88-.59 19.1-1.37 1.12-2.23-.33-3.1-1.24 1.5-6.54.92-13.27-.39-19.78z"/><path fill="#636465" d="M324.23 237.72c1.17.77 3.19.89 3.39 2.6.68 3.19.65 6.47.7 9.71-.07 2.84.12 6.04-1.85 8.35l-4.03.51c-.89 1.61-1.33 3.4-1.66 5.2 1.29 2.1 3.78 1.41 5.81 1.32-.5 1.89-1.12 3.77-2.02 5.51-2.23.12-4.45.43-6.59 1.08-.55-2.05.48-4.09.67-6.12.37-7.1-2.2-13.98-1.96-21.07l3.39-.58c.15 2.25.02 4.51-.24 6.75-.07 1.55-.73 3.44.7 4.6.87.91 1.73 2.36 3.1 1.24 1.68-6.22.04-12.76.59-19.1z"/><path fill="#6c6967" d="M172.53 241.37c2.66-1.39 4.57.84 5.84 2.92l.41.62c-1.34 1.02-2.89 1.87-3.84 3.29-.27 3.48 3.15 5.29 5.54 7.08 1.76 1.94 3.23 4.12 4.52 6.4l-3.9-.66c-3.36-3-7.77-4.99-10.11-8.97l2.15.78c1.87-2.45.84-5.53-.17-8.1-1.89 1.34-2.14 3.8-2.93 5.8l-.2-.84c.52-2.85.71-6.02 2.69-8.32z"/><path fill="#565957" d="M180.32 246.82c2.01-1.52 3.4-3.65 4.64-5.81l.85 5.12c-.83 2.27-1.41 4.63-1.35 7.06l-1.59-1.14-2.39 3.23c-2.39-1.79-5.81-3.6-5.54-7.08.95-1.42 2.5-2.27 3.84-3.29l1.54 1.91z"/><path fill="#72726b" d="M269.58 251.62c2.2-2.92-.25-8.03 3.3-9.99.59 3.36.39 6.77-.08 10.12-1.56 2.09-3.14 4.22-5.16 5.88-3.57 1.46-7.41 2.12-11.04 3.39-4.29-.27-8.64-1.24-11.87-4.24 5.72.53 11.61 1.91 17.27.17 2.93-1.05 5.58-2.94 7.58-5.33z"/><path fill="#808179" d="M301.26 242.86c3.55.35 7.51.12 10.49 2.42-.48 2.94-1.38 5.91-.88 8.92.41 2.85.88 5.77.23 8.63-1.92-1.2-4.12-2.29-5.33-4.28.14-3.02 2.52-6.24.28-9.1-1.54-1.11-3.82-.87-5.25-2.33l.46-4.26z"/><path fill="#5e6161" d="M192.65 244.79l.89-.21-1.27 9.78-.54 4.84-1.24-.35c-2.32-1.59-5.6-2.44-6.03-5.66-.06-2.43.52-4.79 1.35-7.06l2.22-.74c1.57.02 3.12-.16 4.62-.6z"/><path fill="#666763" d="M213.06 245.49l.78-1.69.99-.08c.74 4 .3 8.14 1.25 12.12.64 2.65 1.07 5.35 1.42 8.06-.58-.96-.89-2.2-1.87-2.82-1.24-.31-2.51-.43-3.75-.62l1.59-.28-1.9-3.49c1.13-3.65 2.27-7.34 1.49-11.2z"/><path fill="#32322e" d="M329.03 245.24l2.03-1.52c.87 1.76 1.98 3.5 2.18 5.49-.22 1.45-.92 2.86-.66 4.36.09 1.63.98 3.47-.54 4.72-3.21-3.46-4.01-8.56-3.01-13.05z"/><path fill="#8f8e8e" d="M170.04 250.53c.79-2 1.04-4.46 2.93-5.8 1.01 2.57 2.04 5.65.17 8.1l-2.15-.78-.95-1.52z"/><path fill="#6f716f" d="M230.99 246.28c1.89-.35 3.76-.94 5.7-.89 1.33.67 2.64 1.8 2.97 3.32-.41 1.22-1.1 2.32-1.84 3.37l1.97 2.87.16 5.84-3.02-1.7c-1.95-3.13-3.65-6.42-5.88-9.36-.04-1.15-.05-2.3-.06-3.45z"/><path fill="#6e6d6c" d="M274.65 249.1c1.53-1.61 3.28-3 5.15-4.2 1.64.92.48 2.99.52 4.43l-3.27 1.17-2.4-1.4z"/><path fill="#2f3133" d="M281.58 248.45l3.1-2.24 1.57 2.99-1.97 4.39-2.02 2.71c-2.75.03-5.83 1.04-8.3-.57l.82-1.98c1.71.14 3.71.76 5.11-.6 1.56-1.02 1.24-3.13 1.69-4.7z"/><path fill="#4e4e4a" d="M192.27 254.36c1.99-1.49 3.89-3.22 4.66-5.66 3.11 5.67 8.57 10.37 14.95 11.76 1.24.19 2.51.31 3.75.62.98.62 1.29 1.86 1.87 2.82.57 1.25 1.23 2.47 1.9 3.68-1.3.4-2.66.48-3.99.65-1.15-2.03-2.26-4.14-3.98-5.75-1.52-1.1-3.48-.48-5.19-.47-4.96.53-10.41.41-14.51-2.81a98.08 98.08 0 0 1 .54-4.84m2.75 1.89l-.78 1.54c1.43 1.35 2.97 2.73 4.9 3.31 1.99.3 4.02.07 6.01-.13-.74-1.19-2.32-1.2-3.48-1.73-2.34-.72-4.45-1.95-6.65-2.99z"/><path fill="#494a49" d="M231.05 249.73c2.23 2.94 3.93 6.23 5.88 9.36 2.04 3.23 5.19 5.48 8 7.99-1.78.37-3.59.79-5.2 1.67-1.19 1.44-2.26 4.25-.15 5.41-1.74 2.42-4.04 4.35-5.92 6.65-4.51 3-7.23-4.25-11.62-3.77-.17 4.36 1.06 8.59 2.14 12.77-3.32-4.81-3.59-10.78-4.38-16.37 2.04-1.36 4.05-2.87 6.42-3.62 2.27 0 4.54.3 6.81.54l2.57.4c-2.95-6.62-5.01-13.71-4.55-21.03m1.25 25.51v.45h.45v-.45h-.45z"/><path fill="#494c4c" d="M180.48 255.28l2.39-3.23 1.59 1.14c.43 3.22 3.71 4.07 6.03 5.66-1.67 1.5-3.21 3.68-5.63 3.88-1.51.26-2.6-.99-3.76-1.71l3.9.66c-1.29-2.28-2.76-4.46-4.52-6.4z"/><path fill="#61605a" d="M267.64 257.63c2.02-1.66 3.6-3.79 5.16-5.88l.62 6.73c-2.43-.43-3.65 1.66-4.36 3.65l-8.94 2.33 2.68-2.01-6.2-1.43c3.63-1.27 7.47-1.93 11.04-3.39z"/><path fill="#77756e" d="M282.26 256.3l2.02-2.71c.41 1.36 1.03 2.76.58 4.2-.66 2.56-.72 5.2-.9 7.83-.95 1.75-2.64 2.95-3.94 4.43-2.34 2.26-3.68 5.61-6.84 6.93l2.82-8.08.28-.74c1.83-4.06 5.15-7.37 5.98-11.86z"/><path fill="#8b8c8c" d="M239.79 254.95l5.01 5.3c2.12 2.43 5.33 3.3 8.17 4.57-1.49.29-2.97 1-4.51.67-3.33-.46-5.86-2.85-8.51-4.7l-.16-5.84z"/><path fill="#67635e" d="M195.02 256.25c2.2 1.04 4.31 2.27 6.65 2.99 1.16.53 2.74.54 3.48 1.73-1.99.2-4.02.43-6.01.13-1.93-.58-3.47-1.96-4.9-3.31l.78-1.54z"/><path fill="#606263" d="M236.93 259.09l3.02 1.7c2.65 1.85 5.18 4.24 8.51 4.7 1.54.33 3.02-.38 4.51-.67l1.39-.04c.35 1.9 2.73 2.13 3.52.4l1.43-.31c2.35 1.5 5 2.87 7.87 2.11.67-1.31 1.36-2.63 1.78-4.04l4.32 1.03c-3.11 2.43-6.54 4.82-10.55 5.34-1.69.09-2.53-1.71-3.9-2.34-1.67-.24-3.36-.1-5.03.01-2.95.33-5.93.66-8.87.1-2.81-2.51-5.96-4.76-8-7.99z"/><path fill="#41413f" d="M273.28 263.97l4.72-3.85-1.72 8.04-.28.74c-2.81 1.04-5.13 3.07-7.88 4.18-2.71-.19-5.2-1.41-7.72-2.28l-.96-2.3c-1.79-.8-3.7-1.26-5.64-1.52 1.67-.11 3.36-.25 5.03-.01 1.37.63 2.21 2.43 3.9 2.34 4.01-.52 7.44-2.91 10.55-5.34z"/><path fill="#686565" d="M337.29 260.3l1.43.15c2.82 2.13 3.91 5.75 4.3 9.12l-.15.84c-1.01-1.19-1.99-2.41-2.91-3.66-1.17 2.13-3.34 4.52-2.06 7.09 1.33-.65 2.65-1.31 3.95-2.02l.15 1.66c-4.94 3.97-10.8 6.55-16.92 8.08-1.71-1.25-3.1-2.84-4.07-4.72l4.61-.5c1.4.26 2.77 1.22 4.24.89 1.71-.28 2.38-2.06 3.42-3.21.54-.74 1.07-1.49 1.59-2.25l-1.94-.81c1.4-1.12 2.79-2.25 4.14-3.43-.08-2.42-.79-4.91.22-7.23z"/><path fill="#848483" d="M260.12 264.46l8.94-2.33-.1.81c-.42 1.41-1.11 2.73-1.78 4.04-2.87.76-5.52-.61-7.87-2.11l.81-.41z"/><path opacity=".09" d="M505.96 265.58a22.31 22.31 0 0 1 3.01-1.72c1.12.99 2.16 2.09 3.03 3.33v43.33c-1.08.04-2.65-.5-3.15.85-1.85 3.66-2.92 7.78-5.89 10.78a61.84 61.84 0 0 1-2.49-1.57c-.52-2.06-.62-4.25-1.58-6.17-2.07.31-4.1.77-6.1 1.37l5.06 2.36c-1.93 1.29-4.02 2.35-5.81 3.85-1.31 1.58-2.33 3.39-3.28 5.21-2.54-.91-4.01-3.38-5.97-5.08-1.36.54-2.52 1.45-2.88 2.93 1.13.33 2.26.69 3.39 1.08-2.84 1.68-6.1 2.09-9.28 2.63-.52 1.32-.64 2.85-1.52 3.99-1.04.71-2.58 1.71-3.3.08.78-3.05 3.48-5.15 4.46-8.1.47-1.33-.58-2.27-1.63-2.82-1.47 1.06-3.41 2.15-3.42 4.23-.55 1.96-.17 4.59-2.12 5.84-2.15.22-4.3-.26-6.4-.66l2.42-2.4c-.34-.96-.76-1.88-1.24-2.77-2.5.26-4.91 1-7.28 1.78l3.79 1.98-1.53 3.15 3.34 1.41a29.85 29.85 0 0 1-1.44 3.09c-.98-.49-1.91-1.06-2.93-1.43-1.67.02-3.25.74-4.74 1.41-1.64.7-2.2 2.59-3.56 3.64-1.82 1.03-3.92 1.29-5.96 1.37l1.97-3.02c-1.31-.29-2.63-.53-3.97-.56l-.66 2.74-4.51-.29c-.27 1.29-1 2.62-.59 3.97-1.44-1.71-2.95-3.35-4.47-4.97-3.86.79-7.12 3.27-10.95 4.1-1.27-.24-2.5-.6-3.74-.92l-.96 3.41c-2.12.28-3.17-1.83-4.57-3-.56 1.17-.87 2.44-1.12 3.73-2.07-1.72-4.1-3.61-6.62-4.62-1.94-.77-3.74.69-5.56 1.11-2.87.47-5.61-.84-8.44-1.09-2-.02-3.91.78-5.91.77-.4-1.11-.77-2.23-.94-3.39-1.72-1.12-3.81-1.47-5.81-1.1-1.1 1.36-2.15 2.75-3.16 4.17-1.82-1.4-3.47-3.03-5.5-4.11-2.65-1.55-6.07.77-8.48-1.41-1.51-1.31-3.57-.93-5.4-.92-1.26-1.53-2.4-3.15-3.58-4.73l-3.43 1.72-1.93-1.49c-1.41.16-2.81.36-4.19.62-2.05-1.05-3.87-2.5-5.97-3.44-1.68 1.35-3.79 1-5.74.64-.29 1.12-.56 2.24-.8 3.37-1.22-1.53-1.91-4.02-4.12-4.28-2.81-.43-5.35-1.71-7.92-2.85-4.86.66-8.44 5.37-13.47 5.23.09-2.3-.19-4.58-.06-6.87a41.03 41.03 0 0 1-3.33 3.88c-2.42-.89-4.71-2.11-7.2-2.78-2.57-.11-5.08.62-7.65.62-2.41-1.14-4.34-3.08-6.72-4.27-1.19-.4-2.45.06-3.67-.08-2.07-.31-3.65 1.31-5.16 2.44-1.49-1.53-2.77-3.24-4.04-4.94-.37 1.62-.81 3.24-1.47 4.77-2.21.55-3.62-2.28-5.46-3.2-1.16.42-2.38.91-3.07 1.99-.48 2.92-.65 5.89-1.31 8.79-.12-3.84-.56-7.65-.85-11.47-.38-4.51.5-8.99.53-13.5.08-3.82.08-7.71-1.16-11.37-.67-2.77-2.4-5.82-.73-8.56 3.64.05 7.28.3 10.92.1l-.14.99c-.91 5.7-2.19 11.49-1.46 17.3.15 2.27 1.8 3.95 3.43 5.35 3.59 3.43 10.89 1.9 12.12-3.2.17-.36.53-1.07.71-1.43 1.81-3.85 3.86-7.61 5.22-11.65.99-2.75 1.98-5.51 2.6-8.37 1.91-1.09 3.8-2.28 5.9-2.98 4.09-.42 7.81 1.6 11.38 3.3l1.86-2.24c1.87 1.18 3.64 2.98 6 2.97 2.33-.1 4.3 1.29 6.18 2.49.98-1.13 1.91-2.3 2.99-3.33 2.61-.92 5.46-.79 8.16-1.36.07-1.26.11-2.51.14-3.77 6.12-1.53 11.98-4.11 16.92-8.08 1.71.98 3.4 2.04 5.26 2.71.9-.69 1.73-2.11 3.07-1.56 2.28.62 4.4 1.77 6.74 2.23 1.95-.29 3.83-.92 5.74-1.41l-.28 2.57c.79-.93 1.6-1.83 2.43-2.72 1.48.77 2.92 1.63 4.44 2.34 2.41.32 4.83-.4 7.25-.14 1.37.79 2.3 2.15 3.37 3.29 1.59-.9 3.25-1.69 4.92-2.45 1.47.62 2.91 1.35 4.41 1.9 3.35.47 6.28-1.63 8.53-3.86a52.44 52.44 0 0 1 1.14 3.55c3.07-.34 5.92.82 8.73 1.9 1.98-1.4 3.7-3.34 6.1-4.02 1.22 1.18 2.07 3.31 4.06 3.19 2.37-.13 4.99.63 7.15-.62.21-1.1.45-2.18.69-3.27 1.54 1.3 3.08 2.62 4.86 3.59l2.45-3.08c1.56.74 2.89 2.63 4.8 2.07 2.98-.69 6.02-1.14 9.09-1.08 2.7.33 4.31-2.52 6.74-3.07 2.33.13 4.19 1.81 6.34 2.59 1.46-.88 3.09-1.42 4.81-1.28 1.24-.61 2.1-1.79 3.14-2.68 2.02.89 4.01 1.83 6.07 2.66-.56-1.51-1.62-2.74-2.62-3.97 1.71-1.4 3.58-2.59 5.57-3.56.71.83 1.4 1.69 2.05 2.58l-3.44 4.12c.15 1.28.54 2.52 1.03 3.72 2.28-.12 4.6-.46 6.67-1.49 1.39-1.54-.7-2.73-1.52-3.87-.34-.91.51-1.59.91-2.3 2.24.96 4.51 3.79 7.12 2.4l-2.1-2.85c.37-1.85 1.01-3.69 2.15-5.21 1.07-.91 2.6-.36 3.85-.23 1.28 2.48-1.98 3.8-3.16 5.58l4.28 1.19c-1.16 1.25-2.32 2.51-3.25 3.95.75 1.49 1.61 2.93 2.54 4.33.13-4.07 2.53-7.66 2.26-11.78 1.09 0 2.17.11 3.25.34l2.27 5.19 2.39-.36c.99-2.92.92-6.05 1.66-9.03z"/><path fill="#818183" d="M254.36 264.78a6.94 6.94 0 0 1 3.52.4c-.79 1.73-3.17 1.5-3.52-.4z"/><path fill="#3a3a38" d="M239.73 268.75c1.61-.88 3.42-1.3 5.2-1.67 2.94.56 5.92.23 8.87-.1 1.94.26 3.85.72 5.64 1.52l.96 2.3c-5.79-.7-11.64-.7-17.45-.33-1.3 1.06-2.4 2.34-3.37 3.69-2.11-1.16-1.04-3.97.15-5.41z"/><path fill="#42413e" opacity=".93" d="M305.43 269.56c3.24-.79 6.45-1.75 9.75-2.29-1.46 1.16-2.84 2.61-4.73 3.03-1.99.69-4.5.62-5.83 2.5-1.82-.61-3.54-2.01-5.5-1.89-2.91 1.86-5.48 4.3-8.84 5.4 1.47-2.32 2.86-4.75 4.94-6.6 3.4.07 6.86.76 10.21-.15z"/><path fill="#7c7b7b" d="M337.9 273.84c-1.28-2.57.89-4.96 2.06-7.09l2.91 3.66-1.02 1.41-3.95 2.02z"/><path fill="#494a48" d="M280.2 274.21c1.77-2 3.18-4.26 4.93-6.27 1.3 3.39-.44 6.84-.92 10.22 1.54 0 3.08-.02 4.62-.07-1.73 2.19-3.7 4.17-5.75 6.06l-.79.03-5.4-1.11c-1.45-.92-2.66-2.15-3.71-3.49 2.32-1.81 4.96-3.24 7.02-5.37z"/><path fill="#7c786f" d="M239.58 274.16c.97-1.35 2.07-2.63 3.37-3.69 2.25.78 3.06 3.18 4.8 4.59 1.59 1.48 3.43 2.76 5.44 3.6 5.2.56 10.48-.43 15.67.4 2.68 1.39 4.75 4.01 8.03 4.01l5.4 1.11c-4.25 1.59-9.04.91-12.95 3.53l.22-2.13c.08-1.59.49-3.36-.7-4.66-5.45-.64-10.94.01-16.4-.4-3.72-.2-7.45-.98-11.16-.36l-.12 3.74c-.04 1.02-.12 2.04-.19 3.06l-.88.06c-2.82-.41-5.75-.95-8.03-2.76.5-1.17 1-2.33 1.58-3.45 1.88-2.3 4.18-4.23 5.92-6.65z"/><path opacity=".14" d="M290.28 276.31c3.36-1.1 5.93-3.54 8.84-5.4 1.96-.12 3.68 1.28 5.5 1.89 1.58.72 3.19 1.4 4.89 1.83 3.31.83 6.69.06 10.02-.25l1.48 2.46c.97 1.88 2.36 3.47 4.07 4.72l-.14 3.77c-2.7.57-5.55.44-8.16 1.36-1.08 1.03-2.01 2.2-2.99 3.33-1.88-1.2-3.85-2.59-6.18-2.49-2.36.01-4.13-1.79-6-2.97l-1.86 2.24c-3.57-1.7-7.29-3.72-11.38-3.3-2.1.7-3.99 1.89-5.9 2.98l.61-2.33c2.05-1.89 4.02-3.87 5.75-6.06l1.45-1.78z"/><path fill="#737069" d="M260.13 273.58c2.44 1.48 5.43.42 7.86 1.62.3 1.58-1.29 2.71-2.69 2.02-1.8-.79-3.61-.26-5.37.31-1.31.5-2.32-.83-3.28-1.47 1.05-.97 2.12-1.97 3.48-2.48z"/><path fill="#8f8e91" d="M325.62 276.34c2.5-.93 5.05-1.72 7.66-2.32-1.04 1.15-1.71 2.93-3.42 3.21-1.47.33-2.84-.63-4.24-.89z"/><path fill="#9f9d9f" d="M232.3 275.24h.45v.45h-.45v-.45z"/><path fill="#595b59" d="M222.04 277.04c4.39-.48 7.11 6.77 11.62 3.77-.58 1.12-1.08 2.28-1.58 3.45 2.28 1.81 5.21 2.35 8.03 2.76-.95 2.05-1.75 4.17-2.44 6.32-4.04.65-8.2.63-12.01-1.03l-1.48-2.5c-1.08-4.18-2.31-8.41-2.14-12.77z"/><path fill="#3f4240" d="M241.3 280.16c3.71-.62 7.44.16 11.16.36 5.46.41 10.95-.24 16.4.4 1.19 1.3.78 3.07.7 4.66-6.21.39-12.38-.55-18.58-.6-3.3-.04-6.58-.41-9.8-1.08l.12-3.74z"/><path fill="#575654" d="M241.18 283.9c3.22.67 6.5 1.04 9.8 1.08 6.2.05 12.37.99 18.58.6l-.22 2.13c3.91-2.62 8.7-1.94 12.95-3.53l.79-.03-.61 2.33c-.62 2.86-1.61 5.62-2.6 8.37-2.8-.27-5.39.84-8.02 1.54-2.93.24-5.78-.81-8.62-1.37-.93-1.31-1.91-2.59-2.75-3.95l1.25-1.64c2.46 2.04 4.8 4.88 8.29 4.88 3.35.44 8.04-.76 8.02-4.88-2.96.15-5.92.84-8.88.55-2.96-1.25-5.8-3.17-9.17-2.49-4.45-1.12-9.04-1.37-13.6-.94-1.81.11-3.61.25-5.4.41l.19-3.06z"/><path fill="#484a4b" d="M240.99 286.96l5.4-.41.69 4.05c-1.8.54-3.51 1.3-5.19 2.13l-4.22.61c.69-2.15 1.49-4.27 2.44-6.32l.88-.06z"/><path fill="#222221" opacity=".64" d="M246.39 286.55c4.56-.43 9.15-.18 13.6.94-3.64.2-7.28-.05-10.92-.1-1.67 2.74.06 5.79.73 8.56 1.24 3.66 1.24 7.55 1.16 11.37-.64-5.02-1.54-10.05-3.47-14.76l-.41-1.96-.69-4.05z"/><path fill="#434543" d="M259.99 287.49c3.37-.68 6.21 1.24 9.17 2.49 2.96.29 5.92-.4 8.88-.55.02 4.12-4.67 5.32-8.02 4.88-3.49 0-5.83-2.84-8.29-4.88l-1.25 1.64-.63-2.59.14-.99z"/><path fill="#252626" d="M258.39 305.78c-.73-5.81.55-11.6 1.46-17.3l.63 2.59c.84 1.36 1.82 2.64 2.75 3.95.79 3.51 1.56 7.6-1.22 10.47a131.29 131.29 0 0 0-3.36-3.32c.46 2.65 1.75 5.01 3.09 7.31l.08 1.65c-1.63-1.4-3.28-3.08-3.43-5.35z"/><path fill="#60615e" d="M241.89 292.73c1.68-.83 3.39-1.59 5.19-2.13l.41 1.96-.2 3.17c-2.63 1.99-5.43 3.84-7.57 6.38l.07.82 1.11 1.38c2.83-.75 4.85-2.93 6.21-5.43-.37 3.7.26 8.52-3.41 10.79-3.6 2.09-8.16.4-11.88 2.31 1.38 2.53 4.78 1.65 7.17 1.84 3.74.16 6.83-2.19 9.97-3.85-.4 2.77-1.76 5.18-3.71 7.15-3.12.69-6.27 1.17-9.45 1.36l-5.77-5.22c.03 4.26.78 8.47 1.95 12.55l-2.08-1.8c-1.35-3.16-2.66-6.39-2.97-9.84 1.38-2.73 3.29-5.62 2.69-8.83-.67-1.72-1.76-3.22-2.69-4.8l-.15-5.47c1.31 2.05 2.65 4.17 4.59 5.7 1.92 1.18 4.2 1.56 6.41 1.81l1.02-3.84c2.54-1.74 6.34-2.35 7.13-5.81a109.22 109.22 0 0 0-4.04-.2z"/><path fill="#80827a" d="M225.66 292.31c3.81 1.66 7.97 1.68 12.01 1.03l4.22-.61a109.22 109.22 0 0 1 4.04.2c-.79 3.46-4.59 4.07-7.13 5.81l-1.02 3.84c-2.21-.25-4.49-.63-6.41-1.81-1.94-1.53-3.28-3.65-4.59-5.7a61.18 61.18 0 0 0-1.12-2.76z"/><path fill="#41403f" d="M247.49 292.56c1.93 4.71 2.83 9.74 3.47 14.76-.03 4.51-.91 8.99-.53 13.5.29 3.82.73 7.63.85 11.47-1.57 5.43-8.66 6.83-13.36 4.9-2.41-.62-2.99-3.27-4.18-5.1 2.6 1.16 5.12 2.94 8.05 3.05 3.71-.6 7.4-3 8.56-6.73l-2.34 1.07c-2.4-3.66-2.17-8.19-2.76-12.36 1.95-1.97 3.31-4.38 3.71-7.15-3.14 1.66-6.23 4.01-9.97 3.85-2.39-.19-5.79.69-7.17-1.84 3.72-1.91 8.28-.22 11.88-2.31 3.67-2.27 3.04-7.09 3.41-10.79l.18-3.15.2-3.17z"/><path fill="#353738" d="M271.85 296.39c2.63-.7 5.22-1.81 8.02-1.54-1.36 4.04-3.41 7.8-5.22 11.65-4.06 1.16-9.6 3.15-12.64-1.01 2.78-2.87 2.01-6.96 1.22-10.47 2.84.56 5.69 1.61 8.62 1.37z"/><path fill="#787a72" d="M239.72 302.11c2.14-2.54 4.94-4.39 7.57-6.38l-.18 3.15c-1.36 2.5-3.38 4.68-6.21 5.43l-1.11-1.38-.07-.82z"/><path fill="#3a3b39" d="M226.93 300.54c.93 1.58 2.02 3.08 2.69 4.8.6 3.21-1.31 6.1-2.69 8.83l-.8-5.96c.72-1.83 1.15-3.75.01-5.51l.79-2.16z"/><path fill="#605f5f" d="M258.65 302.17l3.36 3.32c3.04 4.16 8.58 2.17 12.64 1.01l-.71 1.43c-1.9.93-3.81 2.06-5.96 2.24-2.1 0-4.17-.41-6.24-.69-1.34-2.3-2.63-4.66-3.09-7.31z"/><path fill="#686562" opacity=".88" d="M226.14 302.7c1.14 1.76.71 3.68-.01 5.51-1.21-1.75-.9-3.72.01-5.51z"/><path fill="#383a3c" opacity=".98" d="M267.98 310.17c2.15-.18 4.06-1.31 5.96-2.24-1.23 5.1-8.53 6.63-12.12 3.2l-.08-1.65c2.07.28 4.14.69 6.24.69z"/><path fill="#373939" d="M230.03 313.26l5.77 5.22 1.52 8.66c.41 1.71-1.57 2.48-2.47 3.57l-1.53.72c-1.54-2.27-2.59-4.82-3.42-7.42l2.08 1.8c-1.17-4.08-1.92-8.29-1.95-12.55z"/><path fill="#42464b" d="M235.8 318.48c3.18-.19 6.33-.67 9.45-1.36.59 4.17.36 8.7 2.76 12.36-3.56 3.27-8.94 2.92-13.16 1.23.9-1.09 2.88-1.86 2.47-3.57-.35-2.91-1.03-5.77-1.52-8.66z"/><path fill="#616264" d="M248.01 329.48l2.34-1.07c-1.16 3.73-4.85 6.13-8.56 6.73-2.93-.11-5.45-1.89-8.05-3.05l-.42-.66 1.53-.72c4.22 1.69 9.6 2.04 13.16-1.23z"/></svg>