<svg xmlns="http://www.w3.org/2000/svg" width="682.667" height="682.667" viewBox="0 0 512 512"  xmlns:v="https://vecta.io/nano"><path d="M284.58 151.94c1.85.46 4.08.42 5.52 1.86 1.52 3.41 3.1 6.78 5.22 9.86.94 1.1-.16 2.39-.49 3.49-4.82-1.4-9.62.47-14.35 1.29l-.9-4.31-5.74.1a188.03 188.03 0 0 0 3.01 5.08c-3.62 2.66-7.47 4.99-11.69 6.58 0-2.02.01-4.03-.1-6.04-1.02-1.45-2.11-2.84-3.19-4.24 3.12-2.77 5.32-6.61 9.16-8.5 3.93-2.25 8.52-3.52 13.05-2.63l7.46 4.11c-.62-1.38-1.24-2.77-2.05-4.03-1.52-1.03-3.38-1.28-5.09-1.81l.18-.81m-14.85 9.2c1.25.59 2.47 1.73 3.96 1.51 1.66-.73 2.48-2.47 3.48-3.88-2.62.3-5.14 1.11-7.44 2.37zm-35.25 87.8c-.51-5.96 3.25-10.88 6.72-15.29-.08 5.17-.56 10.33-.36 15.51-.74-2.02-1.36-4.08-1.97-6.14l-4.39 5.92z" fill="#5c5d5b"/><path fill="#7a7b7b" d="M284.4 152.75c1.71.53 3.57.78 5.09 1.81.81 1.26 1.43 2.65 2.05 4.03l-7.46-4.11.32-1.73z"/><path fill="#767674" d="M269.73 161.14c2.3-1.26 4.82-2.07 7.44-2.37-1 1.41-1.82 3.15-3.48 3.88-1.49.22-2.71-.92-3.96-1.51z"/><path fill="#717170" d="M273.84 164.23l5.74-.1.9 4.31-3.63.87-3.01-5.08z"/><path fill="#dba789" d="M245.28 173.5c5.47-2.75 11.16-5.06 16.59-7.89 1.08 1.4 2.17 2.79 3.19 4.24-1.59 4.88-6.02 7.6-10.2 10.02-5.62 3.19-9.9 8.2-15.43 11.52-2.76 1.73-6.06 2.09-9.21 2.51-1.07-2-2.97-3.29-4.88-4.41l-.71-.43c.61-1.75.15-4.48 2.36-5.12 5.74-2.39 12.09-3.77 16.98-7.86.72-.67.81-1.75 1.31-2.58z"/><path fill="#424240" d="M280.48 168.44c4.73-.82 9.53-2.69 14.35-1.29l-1.45 1.74c-2.7-.61-5.47-.55-8.14.13a16.74 16.74 0 0 0 2.89 2.04c1.36-.15 2.68-.54 3.99-.95-1.85 1.63-4.05 2.77-6.26 3.83-1.64-.86-3.25-1.85-5.05-2.34-1.5-.12-2.93.49-4.27 1.07-6.92 3.98-14.83 5.93-21.42 10.53 3.2-2.63 6.38-5.34 10.04-7.31 4.22-1.59 8.07-3.92 11.69-6.58 1.2-.32 2.41-.61 3.63-.87z"/><path fill="#6a6a6a" d="M285.24 169.02c2.67-.68 5.44-.74 8.14-.13l-1.26 1.22c-1.31.41-2.63.8-3.99.95a16.74 16.74 0 0 1-2.89-2.04z"/><path fill="#bb8d72" d="M265.06 169.85l.1 6.04c-3.66 1.97-6.84 4.68-10.04 7.31-.87.56-1.75 1.11-2.64 1.64-1.61.92-3.36 1.65-4.81 2.82-1.5 1.53-2.47 3.46-3.71 5.18-2.74 2.71-5.79 5.1-8.22 8.11-2.09-.71-4.31-1.65-5.2-3.84l-.15-2.4-.17-.81c3.15-.42 6.45-.78 9.21-2.51 5.53-3.32 9.81-8.33 15.43-11.52 4.18-2.42 8.61-5.14 10.2-10.02z"/><path opacity=".05" d="M276.54 172.67c1.34-.58 2.77-1.19 4.27-1.07 1.8.49 3.41 1.48 5.05 2.34l-.64 2.86c3.94.7 7.93 1.79 10.91 4.64l4.31-1.33.12 2.47c4.09-.9 8.03.52 11.76 2.07 3.43 1.67 7.15-.23 10.71.52 1.76.28 3.53.49 5.32.52l.43 2.68 2.99-.42 2.29 2.94c1.66-1.07 3.3-2.18 5.14-2.94 2.39-.36 4.7.98 6.54 2.38 2.39 1.97 2.81 6.09 6.27 6.7 2.39.91 4.67-.58 6.78-1.54l-.39 3.55c3.97 1.15 7.65-.91 11.36-1.98 1.82.86-.14 2.84-.28 4.21 1.45.44 2.89.9 4.32 1.4l1.68-2.39-2.67-6.06c3.07 1.81 6.32 3.45 8.91 5.95 1.33 1.27.78 3.3 1.05 4.92l4.67-2.39c.59 1.03 1.24 2.03 1.89 3.03 3.86 1.56 8.17.87 12.13 2 2.5 1.21 4.18 3.66 6.74 4.79 3 .77 6.16-.14 9.18.58 2.13.52 4.12 1.5 6.27 1.98 2.64.19 5.18-1.15 7.83-.81 1.64 1.87 2.81 4.09 4.05 6.24l.94-1.63 3.64-.22c.16-.7.33-1.39.51-2.09 3.2-.33 6.43-1.01 9.67-.65 2.27.56 4.04 2.26 6.21 3.09 1.29.25 2.62.14 3.94.12 1.16.97 2.3 1.97 3.54 2.84 1.48-.85 1.45-2.81 2.1-4.22 1.15.87 2.38 1.63 3.65 2.35l4.28-1.82c2.11.92 4.5 2.47 6.81 1.16 4.41-1.32 7.68-5.5 12.46-5.64-1.69 1.82-3.48 3.55-5.16 5.38l.26 1.43c2.02.48 4.09.65 6.16.88 1.07-2.07 2.45-3.97 4.03-5.68l.95 6.41c3.25-.58 5.33-3.24 7.49-5.47l.57 6.15 4.42-1.89v189.37c-1.15-.68-2.3-1.31-3.46-1.94l.22-4.21-7.59 2.77c-1.71-1-3.41-2.24-5.45-2.35-4.59-.25-9.29-.5-13.76.73-.13-1.1.12-2.3-.39-3.31-.81-.96-1.78-1.75-2.7-2.57a87.45 87.45 0 0 1-3.98 2.97l-.57-4.83c-1.34 1.31-2.61 2.7-3.93 4.04l-1.56-2.69c-1.54.38-3.08.8-4.66.94-1.59-.58-2.99-1.54-4.41-2.42l-6.05 3.25.82-4.71-1.89.37-1.08 3.44c-2.2-.82-4.31-1.84-6.24-3.16-1.29-.7-2.52-1.94-4.1-1.68-1.63.82-3.01 2.05-4.41 3.2.3-2.43.26-4.89.07-7.33l-9.72 3.1 1.46-4.08c-4.24-2.23-8.48-4.44-12.6-6.87.36-.54.73-1.08 1.11-1.61l5.66.45c-.96-2.19-1.87-4.4-2.76-6.61 2.53.19 5 .81 7.32 1.86l-.17 4.09 5.73-.04-2.85-5.16 5.5-1.6.4-1.97-3.94.12 1.45-1.82c3.04-.43 6.34-1.03 8.05-3.92a28.44 28.44 0 0 0-5.68-1.27l1.13-6.84c2.02 2.69 3.75 5.71 6.51 7.73 2.11 1.56 4.18 3.19 6.01 5.08l4.44-2.27c-2.11-.68-4.2-1.44-6.29-2.17l4.16-.9-1.27-3.83 3.73-1.2 1.69-3.91-6.19.8c.13-2.29.53-4.67-.15-6.91-1.52-2.08-3.5-3.82-4.61-6.2 2.62 1.16 5.1 2.59 7.66 3.88-.19-2.18-2.35-3.41-4.23-4.64l5.68-1.96-4.1-6.13-3.94 2.7c1.8-3.1 2.7-6.59 2.97-10.15l3.88.98-.38-2.88c-3.16-.37-6.33-.66-9.5-.93 2.03 2.39 4.96 4.99 3.46 8.45l-6.48-4.16c-.1.4-.32 1.21-.43 1.61l1.15 4.45c-1.76-.93-3.34-2.17-4.52-3.77a20.35 20.35 0 0 1-3.89 3.64l1.6 3.3-4.26 1.65c0-2.9.35-5.81 1.02-8.63l3.25.01-1.25-3.35c.68-2.05 1.29-4.12 1.84-6.2l3.55-.35c-.62-1.7-.74-4.11-2.74-4.79-1.85-.95-3.8.06-5.57.67l3.38 3.07-2.82 4.58-6.62-3.93c-.18 2.77-.87 5.48-1.94 8.04-1.9-1.94-4.34-3.09-7.02-3.4.81-1.81 1.2-3.77 1.18-5.75l1-.9 4.47 2.06c-1.16-2.91-1.5-6.04-1.49-9.14-1.48 1.68-2.97 3.35-4.32 5.13-2.84-.22-5.65-.68-8.41-1.41l2.49-1.09c-3.35-2.19-6.79-4.3-10.61-5.58 1.21 3.19 3.65 5.59 5.81 8.15 1.46 1.48.99 3.71 1.25 5.6-1.44-.5-2.89-.94-4.36-1.31l-2.61.89c.79-2.2.94-4.56-.09-6.72-1.76 2.56-3.27 5.54-6.25 6.88l-.15-4.33c-4.82.56-8.35 4.63-13.31 4.62l.49 4.84-2.91 1.37-4.92-2.82-5.19 2.52-6.61-2.36-3.37 5.17c1.68 1.51 3.98 1.48 6.09 1.79 1.6 1.17 2.5 3.16 1.65 5.07a36.88 36.88 0 0 1-3.92-.67l-4.08 1.08c-1.86-1.32-3.84-3.19-6.32-2.61-2.77.95-4.8 3.21-7 5.04l4.38 3.4c-2.03.77-4.24 1.26-5.99 2.6-.92 1.13-.27 2.71-.3 4.03-3.64.9-7.06 2.49-10.09 4.68-.08-1.38-.99-3.08.2-4.21 1.32-1.33 2.94-2.32 4.47-3.39-3.27-1.37-6.77-1.01-9.99.3l2.77 4.36-2.7.8-4.8-2.33-2.32 3.38-5.51-.98c.85.91 1.78 1.76 2.48 2.8.7 1.92.6 4.01.77 6.02l-1.73 1.44-1.67-1.65c-.41-1.54-.96-3.05-1.68-4.47-.61 1.9-1.13 3.83-1.6 5.78l-1.82 1.08-1.96-5.76 2.41-3.89c-1.31-1.8-2.45-3.71-3.66-5.57l2.52-.2c-.11-1.67-.18-3.34-.24-5-1.43-.03-2.86 0-4.28.07l-1.43-4.72c-1.32 3.25-1.39 7.19-4.21 9.64l-5.82-7.25c2.03-.31 4.05-.7 6.07-1.11-.95-.8-1.75-1.8-2.86-2.38-1.85-.31-3.73-.04-5.59.09l2.29 1.7c-3.31 2.13-6.4 4.57-9.66 6.76l-.5-5.59-2.89 3.94c-.74-1.18-1.51-2.35-2.27-3.5 4-2.18 8.3-3.71 12.74-4.69-1.17-2.22-1.98-4.61-2.76-6.98-1.96.24-3.91.48-5.85.81-1.98-1.56-3.57-3.5-4.45-5.88l6.64 1.14c-1.75-1.52-3.52-3.01-5.33-4.45l1.45-3.23-2.63-1.82-.73 3.34-3.14-.52-1.13 4.13-1.52-3.32-1.79-.69-.13 4.18-3.39-.7a163.81 163.81 0 0 0 4.34-9.19l-2.26-3.39a61.59 61.59 0 0 0 .99-1.27c2.32.58 4.7.89 7.09.82l.19-3.71-2.5-.66-.99-3.14-3.8-2.23c1.4-2.47 2.85-4.92 4.47-7.27-3.12-1.23-6.13-2.77-8.64-5.02l2.16-.13 3.04 1.21c2.16.84 4.33 1.72 6.64 2.11 2.03.26 4.08.4 6.13.55 1.35 3.21 2.79 6.4 4.8 9.26 2.37 3.96 5.81 7.18 10.19 8.79 3.5 2.35 2.07 6.79 2.42 10.3.89.89 1.83 1.73 2.8 2.56.88.72 1.78 1.42 2.71 2.1 3.82 3.33 9.73 2.87 13.49-.31l2.9-3.55 2.01-2.32c2.04-8.01.52-16.83 4.25-24.43 1.38-2.95.69-6.27.76-9.4.58-4.63 1.53-9.24 1.42-13.92.11-1.79-1.08-3.21-2.13-4.51l-1.6-1.72c-.35-2.77-.62-5.54-.87-8.32 3.46.39 6.94 1.25 10.45.9 2.09-1.01 2.59-3.55 3.62-5.43 1.44-5.01 5.95-7.85 10.22-10.25a47.31 47.31 0 0 1 3.61-1.68 136.64 136.64 0 0 0 8.02-3.32c-.73-4.5-.27-9.62-3.53-13.24-1.02-5.27-1.61-10.61-2.04-15.95l-1.32-1.64-.53-.66c-1.05-1.35-2.21-2.6-3.51-3.7-3.28-1.54-6.91-2.18-10.51-1.78-1.94-2.05-4.32-3.61-7.05-4.39-5.11-1.59-9.32-5.35-14.68-6.24-9.79-1.75-19.49-4.35-29.47-4.71l-.5 1.47-.48-1.22c-1.33-2.96-2.15-6.31-4.39-8.75-2.16-1.22-4.82-.68-7.19-.76.51-1.24 1.12-2.43 1.78-3.6z"/><path fill="#020201" opacity=".11" d="M255.12 183.2c6.59-4.6 14.5-6.55 21.42-10.53-.66 1.17-1.27 2.36-1.78 3.6-3.74 1.33-7.29 3.13-10.72 5.12.08 1.1.19 2.21.31 3.32-2.22-.42-4.69-1.81-6.86-.52a49.01 49.01 0 0 1-1.89 2.65l-.85 1.12c-.78-1.03-1.53-2.08-2.27-3.12.89-.53 1.77-1.08 2.64-1.64z"/><path fill="#c08f71" opacity=".98" d="M231 179.95c4.72-2.23 9.44-4.49 14.28-6.45-.5.83-.59 1.91-1.31 2.58-4.89 4.09-11.24 5.47-16.98 7.86-2.21.64-1.75 3.37-2.36 5.12l-.63-.38-1.27-1.87.49-2.43c2.58-1.51 5.12-3.08 7.78-4.43z"/><path opacity=".77" d="M274.76 176.27c2.37.08 5.03-.46 7.19.76 2.24 2.44 3.06 5.79 4.39 8.75-2.8-.39-5.55-1.03-8.25-1.84-1.58-.39-3.18-.96-4.82-.83-1.33.5-2.13 1.79-3.16 2.7-1.25 1.14-2.61 2.15-3.94 3.17l-1.82-4.27-.31-3.32c3.43-1.99 6.98-3.79 10.72-5.12z"/><path fill="#533f34" opacity=".64" d="M216.11 184.74c4.81-2.07 10.11-2.64 14.89-4.79-2.66 1.35-5.2 2.92-7.78 4.43l-.49 2.43c-1.37-2.39-4.29-1.97-6.62-2.07z"/><path fill="#4a5239" d="M270.11 185.81c1.03-.91 1.83-2.2 3.16-2.7 1.64-.13 3.24.44 4.82.83l.28 2.71c-2.72-.58-5.5-.64-8.26-.84z"/><path fill="#64677d" d="M257.49 184.19c2.17-1.29 4.64.1 6.86.52l-1.76 5.27c2.17.41 4.68 2.04 6.67.42.41-1.5.62-3.05.85-4.59 2.76.2 5.54.26 8.26.84 2.78.62 5.38 1.85 8.1 2.7-.2 4.22-.21 8.45-.59 12.67-4.59-.02-8.55-2.39-12.6-4.21-1.03-.37-2.06-.72-3.1-1.04-3.23-.88-5.75-3.11-7.51-5.9l-3.41.1.12.83c.03 1.65.02 3.31.01 4.97-2.26 1.58-4.42 3.3-6.51 5.1l-5.76-1.47a95.13 95.13 0 0 0-.01-7.74c.14-.43.44-1.28.59-1.71l.5.75.8.11.32-.7-1.35-.93-.53-1.17 2.78.3a5.09 5.09 0 0 0 .39.02c1.6.11 3.22.15 4.83.21l.16-2.7a49.01 49.01 0 0 0 1.89-2.65m13.59 2.98l-.41.71.42.72.82-.01.41-.71-.41-.72-.83.01m3.15.1v.45h.45v-.45h-.45m6.07 2.12c-1.41 1.26.7 3.7 2.14 2.47 1.35-1.24-.71-3.68-2.14-2.47m-13.34 2.7a62.6 62.6 0 0 0 3.67 3.02l.04-3.07a57.38 57.38 0 0 1-3.71.05z"/><path fill="#323332" opacity=".95" d="M278.09 183.94c2.7.81 5.45 1.45 8.25 1.84l.48 1.22 1.08 2.89-1.43-.54c-2.72-.85-5.32-2.08-8.1-2.7l-.28-2.71z"/><path fill="#636260" d="M216.11 184.74c2.33.1 5.25-.32 6.62 2.07l1.27 1.87c-3.59.04-7.46.61-10.62-1.51l2.73-2.43z"/><path fill="#60585a" opacity=".95" d="M247.67 187.66c1.45-1.17 3.2-1.9 4.81-2.82l2.27 3.12.85-1.12-.16 2.7-4.83-.21-.39-.02-2.78-.3.53 1.17-.27.77-.59 1.71-3.15.18c1.24-1.72 2.21-3.65 3.71-5.18z"/><path fill="#34343c" opacity=".95" d="M264.35 184.71l1.82 4.27 3.94-3.17-.85 4.59c-1.99 1.62-4.5-.01-6.67-.42l1.76-5.27z"/><path opacity=".13" d="M287.32 185.53c9.98.36 19.68 2.96 29.47 4.71 5.36.89 9.57 4.65 14.68 6.24 2.73.78 5.11 2.34 7.05 4.39 3.6-.4 7.23.24 10.51 1.78-8.83 1.84-16.41 6.98-24.68 10.32l-1.84-7.72c-2.88-.1-5.76-.07-8.63.15l-2.25.1c-.2 2.05-.4 4.1-.8 6.12l-1.51 2.54c-2.2-.03-4.65-.77-6.68.34-.92 1.24-1.61 2.63-2.33 3.98l-3.52-9.1c-.52-2.63-.01-5.24 1.89-7.2l.38-.58c1.73-1.98 2.26-4.62 1.56-7.14-3.13-2.24-7.1-2.76-10.66-4.03l-2.06-.54a77.45 77.45 0 0 1-1.08-2.89l.5-1.47z"/><path fill="#454746" d="M198.95 194.94c4.53-3.09 9.79-4.86 14.43-7.77 3.16 2.12 7.03 1.55 10.62 1.51l.63.38.71.43-1.42 3.61-5.08 1.61c-1.32.44-2.63.91-3.92 1.45l-.36-3.24c-4.46 2.45-8.3 5.9-11.45 9.89-.91 1.22-1.76 2.49-2.57 3.79-1.68 2.74-3.06 5.67-4.03 8.74-.8-4.71-1.12-9.5-1.02-14.27-.05-1.99 1.24-3.61 2.35-5.13-.77 2.35-1.31 4.76-1.81 7.18 1.74-1.24 3.88-2.23 4.79-4.28.7-1.46 1.19-3 1.72-4.52-1.2.18-2.4.39-3.59.62z"/><path fill="#8f92a3" d="M271.08 187.17l.83-.01.41.72-.41.71-.82.01-.42-.72.41-.71z"/><path fill="#c0bfcb" d="M274.23 187.27h.45v.45h-.45v-.45z"/><path fill="#9b9baa" d="M250.22 189.31l.39.02a5.09 5.09 0 0 1-.39-.02z"/><path fill="#a7aab6" d="M280.3 189.39c1.43-1.21 3.49 1.23 2.14 2.47-1.44 1.23-3.55-1.21-2.14-2.47z"/><path fill="#6a6a6d" d="M225.34 189.49c1.91 1.12 3.81 2.41 4.88 4.41l.17.81-5.44.07-1.03-1.68 1.42-3.61z"/><path fill="#b9bbc3" d="M247.97 190.18l1.35.93-.32.7-.8-.11-.5-.75.27-.77z"/><path fill="#545352" d="M286.47 189.35l1.43.54 2.06.54-1.85 2.33.17 1.65c2.61 1.18 5.33 2.09 8.01 3.09l2.77 4.1-.38.58c-1.56-1.02-3.06-2.18-4.8-2.86-1.99.51-3.81 1.49-5.65 2.36 1.52 3.87 3.27 7.65 4.49 11.63l.65 3.37c-1.66 1.81-3.3 3.63-5.08 5.31-.13-4.37.38-8.94-1.13-13.14-1.7-4.08-6.15-5.58-10.05-6.7l-.82 6.19-3.28.65c-1.13-3.68-.58-7.51.27-11.18 4.05 1.82 8.01 4.19 12.6 4.21.38-4.22.39-8.45.59-12.67z"/><path fill="#9c9da6" d="M259.26 190.97l3.41-.1c1.76 2.79 4.28 5.02 7.51 5.9l-6.13-.01c-.77-2.31-2.64-3.79-4.67-4.96l-.12-.83z"/><path fill="#6a6867" d="M288.11 192.76l1.85-2.33c3.56 1.27 7.53 1.79 10.66 4.03.7 2.52.17 5.16-1.56 7.14-.95-1.35-1.9-2.7-2.77-4.1-.14-1.29.22-2.42 1.06-3.4-3.07-.54-6.15-.98-9.24-1.34z"/><path fill="#696968" d="M259.38 191.8c2.03 1.17 3.9 2.65 4.67 4.96l6.13.01 3.1 1.04c-.85 3.67-1.4 7.5-.27 11.18l3.28-.65.82-6.19c3.9 1.12 8.35 2.62 10.05 6.7 1.51 4.2 1 8.77 1.13 13.14l-2.5 2.3 1.39.85c-2.7 1.46-5.16 3.29-7.54 5.2-.23-.99-1.13-2.07-.5-3.07 1.23-.7 2.57-1.14 3.89-1.65-.55-5.19-1.3-10.38-2.73-15.42-3.97 1.01-8.15 1.69-12.19.62-1.46-1.34-3.61-.43-3.6 1.6l-1.72-.42a47.17 47.17 0 0 0-.98-1.02l-1.49-1.57c1.38-.27 2.69-.79 3.9-1.5-3.35.02-6.7.03-10 .59-.27-1.54-.55-3.07-.89-4.59l-.45-2.04c2.09-1.8 4.25-3.52 6.51-5.1l-.01-4.97z"/><path fill="#81808f" d="M266.96 192.09l3.71-.05-.04 3.07-3.67-3.02z"/><path fill="#696b6a" d="M203.11 202.81c3.15-3.99 6.99-7.44 11.45-9.89l.36 3.24c-3.84 3.15-7.01 7.06-11.14 9.88l-.67-3.23z"/><path fill="#5f5850" d="M218.84 194.71l5.08-1.61 1.03 1.68c-2.28 3.13-4.08 6.6-6.59 9.56-3.94 4.26-8.9 7.36-13.52 10.8.57-2.29.97-4.62 1.52-6.91 3.75-4.3 7.53-9.06 13.1-11.02l-.62-2.5z"/><path fill="#010101" opacity=".78" d="M235.74 200.95c2.43-3.01 5.48-5.4 8.22-8.11l3.15-.18a95.13 95.13 0 0 1 .01 7.74c-3.7 1.02-7.64 1.96-11.38.55z"/><path fill="#818081" d="M288.11 192.76l9.24 1.34c-.84.98-1.2 2.11-1.06 3.4l-8.01-3.09-.17-1.65z"/><path fill="#787775" d="M198.95 194.94l3.59-.62-1.72 4.52c-.91 2.05-3.05 3.04-4.79 4.28l1.81-7.18 1.11-1z"/><path fill="#888a8d" d="M214.92 196.16l3.92-1.45.62 2.5c-5.57 1.96-9.35 6.72-13.1 11.02-.92 1.05-1.88 2.08-2.83 3.1-.04-1.77-.02-3.54.25-5.29 4.13-2.82 7.3-6.73 11.14-9.88z"/><path fill="#2c2b29" d="M224.95 194.78l5.44-.07.15 2.4c-2.73.26-4.41 2.34-5.38 4.74l-.38.71c-3.37 2.68-6.84 5.29-9.74 8.5-1.46 1.6-2.8 3.31-4.11 5.03-2.07 1.12-4.35 1.77-6.61 2.38.51 2.15 1.02 4.31 1.67 6.44l-2.27-3.5-4.42.08-2.22-4.59c1.24 1.45 2.58 2.8 3.9 4.18l2.89-4.49.97-1.45c4.62-3.44 9.58-6.54 13.52-10.8 2.51-2.96 4.31-6.43 6.59-9.56z"/><path fill="#5a5a54" d="M225.16 201.85c.97-2.4 2.65-4.48 5.38-4.74.89 2.19 3.11 3.13 5.2 3.84 3.74 1.41 7.68.47 11.38-.55a220.63 220.63 0 0 0 5.76 1.47l.45 2.04c-2.86 2.16-6.13 3.63-9.38 5.08-3.16 1.39-5.66 3.82-7.91 6.37l-8.96 9.64c-4.67 4.59-5.39 11.48-8.48 17.04l1.25 3.17c-.45 1.7-1.14 3.33-1.59 5.03l-.08 1.03c.06 1.75.45 3.47.46 5.23-.96 1.54-2.89 2.11-4.06 3.47-1.58 4.15-.03 8.59 2.05 12.25l2.83-2.18c.48 1.82 1.05 3.62 1.6 5.43l-4.25-.26 1.48 3.09c-1.13.84-2.25 1.72-3.33 2.64l-1.93-2.18-1.2-1.41c2.41-4.07-.39-8.49-1.4-12.53-.69-4.02-.6-8.12-.04-12.14.1 2.89.45 5.78.89 8.64 1.68-3.81 1.84-8 1.94-12.1l-2.52.67c.32-2.42.68-4.88 1.65-7.14l2.35.89 1.45-2.59-1.88-1.34c.67-2.12 1.1-4.6-.26-6.56-2.32-3.09-6.05-4.84-8.02-8.24-.65-2.13-1.16-4.29-1.67-6.44 2.26-.61 4.54-1.26 6.61-2.38l-.12 1.76c-.24 6.73 2.37 13.43 7.49 17.88.86-3.1 2.82-5.67 4.72-8.2 2.46-3.56 4.75-7.27 7.64-10.51 1.76-1.91 3.8-3.53 5.82-5.15 2.22-1.79 4.32-3.7 6.4-5.65-5.84-1.69-11.67-3.52-17.72-4.37m-8.95 35.44v.45h.45v-.45h-.45z"/><path fill="#3b3b3a" d="M288.23 201.68c1.84-.87 3.66-1.85 5.65-2.36 1.74.68 3.24 1.84 4.8 2.86-1.9 1.96-2.41 4.57-1.89 7.2l-.24 5.48-3.83-1.55c-1.22-3.98-2.97-7.76-4.49-11.63z"/><path fill="#75766d" d="M225.16 201.85c6.05.85 11.88 2.68 17.72 4.37-2.08 1.95-4.18 3.86-6.4 5.65-.76-3.7-4.76-6.59-8.44-5.01-3.54 2.05-4.56 6.59-7.78 8.95-3.03 1.13-6.31 1.35-9.45 2.04l.12-1.76c1.31-1.72 2.65-3.43 4.11-5.03l3.84.01c2.4-2.52 4.48-5.33 5.9-8.51l.38-.71z"/><path fill="#7a7c7e" d="M200.54 206.6l2.57-3.79.67 3.23c-.27 1.75-.29 3.52-.25 5.29l2.83-3.1-1.52 6.91-.97 1.45c-1.77-3.09-2.55-6.56-3.33-9.99z"/><path fill="#5e5f55" d="M215.04 211.06c2.9-3.21 6.37-5.82 9.74-8.5-1.42 3.18-3.5 5.99-5.9 8.51l-3.84-.01z"/><path fill="#565555" d="M324.35 212.97c8.27-3.34 15.85-8.48 24.68-10.32 1.3 1.1 2.46 2.35 3.51 3.7l-.93-.13c-1.66-.29-3.41-.41-4.92.46-4.43 2.15-9.25 3.72-13.03 6.99-4.72 3.06-9.74 5.64-14.66 8.34-3.67 1.2-7.36 2.38-10.88 3.97l1.15 4.49c-.13 2.52-.48 5.02-1.03 7.49-.78 1.48-1.66 2.91-2.51 4.36-2.72 4.32-2.97 9.61-5.16 14.18l-4.15.67-3.17-3.31c.56-1.44 1.14-2.86 1.64-4.32 1.39-3.47 1.95-7.18 1.95-10.9l-3.21.92c-.69-2.5-.64-5.11-.22-7.65l-5.38 1.9c-1.19 1-2.09 2.28-2.69 3.71l1.13 1.27c.62.97 1.2 1.98 1.78 2.99l-4.4 5.43 3.09 1.25 3.25-3.4c.04 1.35.03 2.7 0 4.06-.5 2.16-2.21 3.64-3.84 4.98l-5.39-1.24c.68-2.25 1.4-4.55 1.26-6.93-.27-5.26-.41-10.7-2.58-15.59 2.38-1.91 4.84-3.74 7.54-5.2l2.26.06c-.23 2.33-.36 4.68-.49 7.02l3.16-5.36 1.41 1.34 1.46.81.81-.4.44-1.57c.24-1.48.59-2.92.88-4.38 1.01 2.4 2.14 4.8 2.4 7.43.33 1.54.21 3.27 1.03 4.66 1.19.83 2.53 1.44 3.83 2.09 1.04-2.27 2.34-4.47 2.86-6.94.44-2.65.17-5.35.34-8.03.12-.98.29-1.96.48-2.92 2.14.39 4.35 1.04 6.54.59 1.09-.92 1.15-2.54 1.76-3.76l-4.69 1.66-2.87-1.66.53-1.62 1.51-2.54 3.07.65.83.3c1.66.64 3.36 1.21 5.07 1.72.13-2.63.13-5.25.11-7.88-2.01-.36-4.01-.75-6.03-1.01 2.87-.22 5.75-.25 8.63-.15.57 2.58 1.19 5.15 1.84 7.72m-7.33 4.33l-.41.72.43.71.82-.02.4-.72-.42-.71-.82.02z"/><path fill="#817f78" d="M243.95 208.99c3.25-1.45 6.52-2.92 9.38-5.08.34 1.52.62 3.05.89 4.59 3.3-.56 6.65-.57 10-.59-1.21.71-2.52 1.23-3.9 1.5l1.49 1.57c-3 .18-6.24-.32-9.05.92-2.45 2.21-3.51 5.55-4.21 8.68-.88 3.45 2.39 5.89 4.13 8.42-.41 1.37-.82 2.74-1.16 4.13-1.03-3.4-3.27-6.19-5.86-8.54-.02-5.26.83-10.49 2.11-15.57-2.21 3.38-4.83 6.48-7.86 9.18-2.77 2.85-5.51 5.76-8.8 8.04 1.66-3.62 5.31-6.59 4.93-10.88 2.25-2.55 4.75-4.98 7.91-6.37z"/><path fill="#8b807a" d="M311.63 205.5l2.25-.1 6.03 1.01-.11 7.88-5.07-1.72a29.98 29.98 0 0 0 3.82-.94c.56-1.4.42-2.95.58-4.42l-4.83.02-.4 5.04-3.07-.65c.4-2.02.6-4.07.8-6.12z"/><path fill="#7f827c" d="M346.69 206.68c1.51-.87 3.26-.75 4.92-.46-3.24 1.39-6.7 2.56-9.45 4.82-.96 1.47-1.34 3.21-1.93 4.84a34.54 34.54 0 0 1-6.57-2.21c3.78-3.27 8.6-4.84 13.03-6.99z"/><path fill="#8a8c83" d="M228.04 206.86c3.68-1.58 7.68 1.31 8.44 5.01-2.02 1.62-4.06 3.24-5.82 5.15-.94-2.07-2.63-4.7-5.31-3.73-2.47 1.96-4.9 4.11-6.7 6.72-1.07 3.29 2.07 5.77 4.37 7.52-1.9 2.53-3.86 5.1-4.72 8.2-5.12-4.45-7.73-11.15-7.49-17.88 3.14-.69 6.42-.91 9.45-2.04 3.22-2.36 4.24-6.9 7.78-8.95z"/><path fill="#606263" d="M196.51 215.34c.97-3.07 2.35-6 4.03-8.74.78 3.43 1.56 6.9 3.33 9.99l-2.89 4.49c-1.32-1.38-2.66-2.73-3.9-4.18l-.57-1.56z"/><path fill="#ffeb51" d="M314.3 207.23l4.83-.02c-.16 1.47-.02 3.02-.58 4.42a29.98 29.98 0 0 1-3.82.94l-.83-.3.4-5.04z"/><path fill="#a7af93" d="M342.16 211.04c2.75-2.26 6.21-3.43 9.45-4.82l.93.13.53.66c.72 3.54 1.12 7.31-.22 10.76-1.68.13-2.94-1.07-4.26-1.9l-2.55-.18-2.09-.17c.13 2.09.31 4.18.68 6.25-1.2.6-2.3 1.38-3.26 2.3l-1.01-5.59-1.42-.91c-4.91.83-9.67 2.74-13.75 5.59-2.56 2.62-3.91 6.14-6.09 9.05l-4.03-5.25c-1.74 3.75-3.2 7.62-4.39 11.58l-1.75-.41-.69-.17c.55-2.47.9-4.97 1.03-7.49a187.78 187.78 0 0 0 4.26-4.21l5.29-1.09.18-3.16c4.92-2.7 9.94-5.28 14.66-8.34a34.54 34.54 0 0 0 6.57 2.21c.59-1.63.97-3.37 1.93-4.84z"/><path fill="#464449" d="M353.07 207.01l1.32 1.64c.43 5.34 1.02 10.68 2.04 15.95l-1.21.13-.23-5.08c-2.65.62-5.33 1.17-7.94 1.97l-1.01-5.93 2.55.18c1.32.83 2.58 2.03 4.26 1.9 1.34-3.45.94-7.22.22-10.76z"/><path fill="#515352" d="M239.91 218.2c3.03-2.7 5.65-5.8 7.86-9.18-1.28 5.08-2.13 10.31-2.11 15.57.41 3.49 1.68 6.84 1.77 10.38.04 2.36-.17 4.71-.32 7.07l-2.69-1.25c-.31-3.86-1-7.68-2.3-11.33.34-1.8.93-3.6.83-5.44-.66-2.1-1.97-3.92-3.04-5.82z"/><path fill="#44474b" d="M264.51 212.42c-.01-2.03 2.14-2.94 3.6-1.6l-.8.97-.35.37-1.66 1.31-.69-.15-.1-.9z"/><path fill="#86847d" d="M268.11 210.82c4.04 1.07 8.22.39 12.19-.62 1.43 5.04 2.18 10.23 2.73 15.42-1.32.51-2.66.95-3.89 1.65-.63 1 .27 2.08.5 3.07 2.17 4.89 2.31 10.33 2.58 15.59.14 2.38-.58 4.68-1.26 6.93-2.82 1.61-5.59 3.56-8.89 3.98-2.63.4-5.35.62-7.65 2.07-3.94-.38-7.84-1.82-10.82-4.47-1.88-1.58-2.16-4.19-2.69-6.43-.22-2.45-.24-4.92-.15-7.38 2.23 4.65 5.43 8.97 9.92 11.66 3.35.24 6.95.95 10.15-.42 2.48-2.61 2.42-6.57 2.89-9.93.22-4.07 1.4-8.16.72-12.22-1.35-3.64-4.04-6.56-6.34-9.62-.19 1.91-.37 3.83-.37 5.76l-2.09 1.95-.64.51a31.98 31.98 0 0 0-1.74 2.45c.05-5.49.22-10.98.69-16.44l1.35-.86 1.66-1.31.35-.37c.2-.25.6-.73.8-.97m-1.93 5.35c-1.29.72-1.28 1.41.03 2.04 1.29-.73 1.28-1.41-.03-2.04m-.8 2.96c-.48 1.4-.02 1.9 1.39 1.51.48-1.4.01-1.9-1.39-1.51m-.21 3.29c-.46 1.39.01 1.89 1.42 1.49.46-1.39-.02-1.89-1.42-1.49z"/><path fill="#484742" d="M296.55 214.86l.24-5.48 3.52 9.1c1.78 2.24 4.45 3.3 7.26 3.39-.17 2.68.1 5.38-.34 8.03-.52 2.47-1.82 4.67-2.86 6.94-1.3-.65-2.64-1.26-3.83-2.09-.82-1.39-.7-3.12-1.03-4.66-.26-2.63-1.39-5.03-2.4-7.43l-.8-4.34-2.94-1.64-.65-3.37 3.83 1.55z"/><path fill="#939189" d="M252.76 211.9c2.81-1.24 6.05-.74 9.05-.92l.98 1.02 1.02 1.29.8.03.69.15-1.35.86c-2.47-.11-4.9-.77-7.38-.64-1.62.2-1.68 1.86-1.83 3.14 1.62 2.31 4.82 2.09 7.27 2.83-.2 2.12-.76 4.19-1.77 6.08l-5.76-1.66c-.97 1.12-.89 2.65-.99 4.03-.13 3.78-.11 7.56-.06 11.34 2.91-.53 5.73-1.47 8.66-1.86 3.06.24 6.15.71 9.19-.1-.29 1.25-.62 2.48-.93 3.72-2.68 2.18-7.13 1.94-8.81 5.41-1.25 1.64-.89 3.75-.86 5.67-4.49-2.69-7.69-7.01-9.92-11.66.08-2.51.42-5.01.76-7.5.34-1.39.75-2.76 1.16-4.13-1.74-2.53-5.01-4.97-4.13-8.42.7-3.13 1.76-6.47 4.21-8.68z"/><path fill="#f7faf8" d="M266.96 212.16l.35-.37-.35.37z"/><path fill="#f8f7f6" d="M262.79 212l1.72.42.1.9-.8-.03-1.02-1.29z"/><path fill="#9a9b91" d="M218.65 220.01c1.8-2.61 4.23-4.76 6.7-6.72 2.68-.97 4.37 1.66 5.31 3.73-2.89 3.24-5.18 6.95-7.64 10.51-2.3-1.75-5.44-4.23-4.37-7.52z"/><path fill="#9c9a94" d="M256.57 213.69c2.48-.13 4.91.53 7.38.64-.47 5.46-.64 10.95-.69 16.44-.02 1.44.06 2.89.14 4.34l2.52-1.91 1.06-1.15 1.31 2.11c-.12-2.77-.4-5.53-.56-8.3 0-1.93.18-3.85.37-5.76 2.3 3.06 4.99 5.98 6.34 9.62.68 4.06-.5 8.15-.72 12.22-.47 3.36-.41 7.32-2.89 9.93-3.2 1.37-6.8.66-10.15.42-.03-1.92-.39-4.03.86-5.67 1.68-3.47 6.13-3.23 8.81-5.41l.93-3.72c-3.04.81-6.13.34-9.19.1-2.93.39-5.75 1.33-8.66 1.86-.05-3.78-.07-7.56.06-11.34.1-1.38.02-2.91.99-4.03 1.97.38 3.87 1.02 5.76 1.66 1.01-1.89 1.57-3.96 1.77-6.08-2.45-.74-5.65-.52-7.27-2.83.15-1.28.21-2.94 1.83-3.14z"/><path fill="#010101" opacity=".89" d="M302.64 214.5c2.03-1.11 4.48-.37 6.68-.34l-.53 1.62-.74 3.17-.48 2.92c-2.81-.09-5.48-1.15-7.26-3.39.72-1.35 1.41-2.74 2.33-3.98z"/><path fill="#9ba28d" d="M343.95 215.52l2.09.17 1.01 5.93c2.61-.8 5.29-1.35 7.94-1.97l.23 5.08c-3.47.53-7.35.39-10.31 2.51-.34 1.12-.48 2.27-.65 3.42l-.64 1.34c-1.32 2.6-2.22 5.38-2.97 8.19-2.09 1.96-4.27 3.82-6.43 5.7l-.62-3.8-2.95 2.68-.65.55.23 1.71-.3 1.52-.91 4.59 5 1.04-.7 2.5c-3.1-.08-6.18-.49-9.24-.99 1.87-2.15 2.78-4.9 3.21-7.67-.13-2.67-.59-5.3-1.17-7.89-5.24 2.08-10.1 4.99-15.38 6.96-.08-3.46 1-6.82 3.61-9.18 3.04 1.28 5.68-.75 7.9-2.6 3.24-1.52 6.52-3.19 10.09-3.79 1.66.2 2.97 1.42 4.4 2.21l-.99-4.82c2.98-2.07 6.33-3.51 9.83-4.47l-.95-2.67c-.37-2.07-.55-4.16-.68-6.25z"/><path fill="#939089" d="M227.08 225c3.05-3.16 5.95-6.46 8.96-9.64.38 4.29-3.27 7.26-4.93 10.88-2.67 4.38-4.89 9.02-7.16 13.62-.99 2.05-2.46 3.81-4.1 5.35l-1.25-3.17c3.09-5.56 3.81-12.45 8.48-17.04z"/><path fill="#e5e8eb" d="M266.18 216.17c1.31.63 1.32 1.31.03 2.04-1.31-.63-1.32-1.32-.03-2.04z"/><path fill="#78787b" d="M308.05 218.95l.74-3.17 2.87 1.66 4.69-1.66c-.61 1.22-.67 2.84-1.76 3.76-2.19.45-4.4-.2-6.54-.59z"/><path fill="#787978" d="M288.29 221.99c1.78-1.68 3.42-3.5 5.08-5.31l2.94 1.64.8 4.34-.88 4.38-2.09.33-.62.83-1.41-1.34-3.16 5.36.49-7.02-2.26-.06-1.39-.85 2.5-2.3z"/><path fill="#7b7b84" d="M317.02 217.3l.82-.02.42.71-.4.72-.82.02-.43-.71.41-.72z"/><path fill="#636462" d="M231.11 226.24c3.29-2.28 6.03-5.19 8.8-8.04 1.07 1.9 2.38 3.72 3.04 5.82.1 1.84-.49 3.64-.83 5.44-2.62 1.85-5.35 3.68-7.36 6.22-1.35 1.74-1.48 4.03-1.88 6.11a74 74 0 0 1-2.8 12.56c-2.48-1.29-4.92-2.68-7.32-4.12l.99 5.13c.19 1.26.33 2.54.45 3.82-2.06-2.92-4.02-5.93-5.94-8.94.45-1.7 1.14-3.33 1.59-5.03 1.64-1.54 3.11-3.3 4.1-5.35 2.27-4.6 4.49-9.24 7.16-13.62z"/><path fill="#4e4e53" d="M325.19 223.16c4.08-2.85 8.84-4.76 13.75-5.59l.91 2.47-3.61 2.17 2.52 1.73c-2.77 2.47-6.27 3.74-9.59 5.27-2.88 1.29-4.91 3.77-6.92 6.1-2.22 1.85-4.86 3.88-7.9 2.6 1.63-1.86 3.29-3.7 4.75-5.7 2.18-2.91 3.53-6.43 6.09-9.05z"/><path fill="#67676a" d="M338.94 217.57l1.42.91 1.01 5.59c.96-.92 2.06-1.7 3.26-2.3l.95 2.67c-3.5.96-6.85 2.4-9.83 4.47l.99 4.82c-1.43-.79-2.74-2.01-4.4-2.21-3.57.6-6.85 2.27-10.09 3.79 2.01-2.33 4.04-4.81 6.92-6.1 3.32-1.53 6.82-2.8 9.59-5.27l-2.52-1.73 3.61-2.17-.91-2.47z"/><path fill="#bbbfc6" d="M265.38 219.13c1.4-.39 1.87.11 1.39 1.51-1.41.39-1.87-.11-1.39-1.51z"/><path fill="#cacdd4" d="M265.17 222.42c1.4-.4 1.88.1 1.42 1.49-1.41.4-1.88-.1-1.42-1.49z"/><path fill="#84887f" d="M308.12 225.98c3.52-1.59 7.21-2.77 10.88-3.97l-.18 3.16-5.29 1.09a187.78 187.78 0 0 1-4.26 4.21c-.35-1.51-.75-3-1.15-4.49z"/><path fill="#6c6e6c" d="M247.43 234.97c-.09-3.54-1.36-6.89-1.77-10.38 2.59 2.35 4.83 5.14 5.86 8.54-.34 2.49-.68 4.99-.76 7.5-.09 2.46-.07 4.93.15 7.38l-1.94-1.1-2.19 1.29c.65 1.54 1.28 3.09 2.02 4.59l-3.77.35c1.47 1.9 3.04 3.71 4.73 5.41l1.39-2.39c2.8 4.25 7.34 7.12 12.45 7.58l.83 3.6c2.43-.2 4.89-.26 7.32.05l.73.48c-5.06 1.34-10.69 2.18-15.62.03 1.43-.6 2.88-1.15 4.36-1.64-5-2.39-10.91-2.4-15.38-5.95-1.26-3.9-3.51-7.36-5-11.15-.2-5.18.28-10.34.36-15.51l.92-4.19c1.3 3.65 1.99 7.47 2.3 11.33l2.69 1.25c.15-2.36.36-4.71.32-7.07z"/><path fill="#6a6b6f" d="M344.91 227.24c2.96-2.12 6.84-1.98 10.31-2.51l1.21-.13c3.26 3.62 2.8 8.74 3.53 13.24a136.64 136.64 0 0 1-8.02 3.32c-.07-3.63.87-7.15 2.24-10.49-2.41-.36-4.82-.01-6.99 1.13l2.37-4.14c-1.78.99-3.57 1.95-5.3 3 .17-1.15.31-2.3.65-3.42z"/><path fill="#6f7787" d="M267.73 225.86l.56 8.3-1.31-2.11-1.14-1.04-.68.27-.22.73.98 1.19-2.52 1.91-.14-4.34 1.74-2.45-.15.9.48.62.69-.33-.38-1.7 2.09-1.95z"/><path fill="#aeadaf" d="M294.14 227.37l2.09-.33-.44 1.57-.81.4-1.46-.81.62-.83z"/><path fill="#636268" d="M315.07 226.96l4.03 5.25c-1.46 2-3.12 3.84-4.75 5.7-2.61 2.36-3.69 5.72-3.61 9.18 5.28-1.97 10.14-4.88 15.38-6.96.58 2.59 1.04 5.22 1.17 7.89l-1.73-.87a78.95 78.95 0 0 0-1.39-.53c-4.8 1.3-8.85 4.4-13.47 6.2l4.06-4.51-4.29-.54c-.39-3.23-.78-6.47-1.54-9.64l1.75.41c1.19-3.96 2.65-7.83 4.39-11.58z"/><path fill="#ebeef3" d="M265 228.32l.64-.51.38 1.7-.69.33-.48-.62.15-.9z"/><path fill="#4f4f51" d="M344.26 230.66l5.3-3-2.37 4.14-2.57 4.84c-.41-1.53-.78-3.08-1-4.64l.64-1.34z"/><path fill="#9b978f" d="M234.76 235.68c2.01-2.54 4.74-4.37 7.36-6.22l-.92 4.19c-3.47 4.41-7.23 9.33-6.72 15.29-.17.3-.53.9-.71 1.2-.66 2.23-1.07 4.52-1.42 6.81l-2.27-2.6a74 74 0 0 0 2.8-12.56c.4-2.08.53-4.37 1.88-6.11z"/><path fill="#808084" d="M347.19 231.8c2.17-1.14 4.58-1.49 6.99-1.13-1.37 3.34-2.31 6.86-2.24 10.49a47.31 47.31 0 0 0-3.61 1.68c-2.48-1.1-5.07-1.94-7.68-2.65.75-2.81 1.65-5.59 2.97-8.19.22 1.56.59 3.11 1 4.64.83-1.63 1.68-3.25 2.57-4.84z"/><path fill="#d9dce2" d="M265.16 231.28l.68-.27 1.14 1.04-1.06 1.15-.98-1.19.22-.73z"/><path fill="#454443" d="M288.03 233.81l5.38-1.9c-.42 2.54-.47 5.15.22 7.65l3.21-.92c0 3.72-.56 7.43-1.95 10.9-.26-1.91-.64-3.79-.99-5.68 1.24-.59 1.56-1.46.95-2.6-.33.2-.98.62-1.31.83-1.66 2.05-2.5 4.57-3.35 7.03.03-1.36.04-2.71 0-4.06l-.08-1.65-1.86-1.63c-.58-1.01-1.16-2.02-1.78-2.99l2.59-1.68-1.03-3.3z"/><path fill="#954b4d" d="M285.34 237.52c.6-1.43 1.5-2.71 2.69-3.71l1.03 3.3-2.59 1.68-1.13-1.27z"/><path fill="#909283" opacity=".98" d="M216.21 237.29h.45v.45h-.45v-.45z"/><path fill="#4e4d4c" d="M308.24 237.96l.69.17c.76 3.17 1.15 6.41 1.54 9.64l4.29.54-4.06 4.51c4.62-1.8 8.67-4.9 13.47-6.2l1.39.53c-2.2 1.55-4.59 2.97-6.27 5.12.02 2.06.87 3.98 1.47 5.92l3.32-2.5c3.06.5 6.14.91 9.24.99 1.82-.86 3.49-2.05 4.79-3.59-1.03 1.88-1.53 4.42-3.62 5.43-3.51.35-6.99-.51-10.45-.9l.87 8.32-2.71-.1c-1.62-1.33-3.26-2.64-4.92-3.91l-.35 1.68-.18.78c-2.52-2.33-4.85-4.85-7.01-7.52-3.71 1.04-4.65 4.98-6.38 7.91-3.14 4.53-6.89 8.64-11.02 12.28-.95.5-1.92.96-2.88 1.45 2.84-3.51 5.95-6.77 8.84-10.23 3.92-4.77 5.77-10.74 7.72-16.48.61-1.89 1.59-3.79 1.46-5.82-.45-1.28-1.13-2.46-1.75-3.66.85-1.45 1.73-2.88 2.51-4.36m3.79 18.89c2.28.65 3.72-2.44 5-3.95-1.89.57-5.9 1.21-5 3.95z"/><path fill="#757674" opacity=".97" d="M214.27 239.71l1.88 1.34-1.45 2.59-2.35-.89 1.92-3.04z"/><path fill="#a9b194" d="M334.22 245.89l6.43-5.7c2.61.71 5.2 1.55 7.68 2.65-4.27 2.4-8.78 5.24-10.22 10.25-1.3 1.54-2.97 2.73-4.79 3.59l.7-2.5c.42-1.71 1.11-3.94-.63-5.17-1.15-.22-2.31-.36-3.46-.46l.3-1.52.79-1.51-.37-.75 2.95-2.68.62 3.8z"/><path fill="#77787b" d="M293.54 242.09l1.31-.83c.61 1.14.29 2.01-.95 2.6l-.36-1.77z"/><path fill="#6e6d6c" d="M288.25 241.78l1.86 1.63.08 1.65-3.25 3.4-3.09-1.25 4.4-5.43z"/><path fill="#292c2e" d="M290.19 249.12c.85-2.46 1.69-4.98 3.35-7.03l.36 1.77.99 5.68-1.64 4.32-5.1 2.01-1.88.72-1.14-1.47 1.22-1.02c1.63-1.34 3.34-2.82 3.84-4.98z"/><path fill="#464746" d="M234.48 248.94l4.39-5.92 1.97 6.14c1.49 3.79 3.74 7.25 5 11.15-3.61-1.76-7.69-4.5-11.77-2.41.22-2.59-.05-5.18-.3-7.76l.71-1.2z"/><path fill="#77736b" d="M300.57 256.5c2.19-4.57 2.44-9.86 5.16-14.18.62 1.2 1.3 2.38 1.75 3.66.13 2.03-.85 3.93-1.46 5.82-2.01 2.4-4.17 4.67-6.13 7.11l.68-2.41z"/><path fill="#6a706c" d="M330 245.32l.65-.55.37.75-.79 1.51-.23-1.71z"/><path fill="#5d574e" d="M246.78 248.2l2.19-1.29 1.94 1.1c.53 2.24.81 4.85 2.69 6.43 2.98 2.65 6.88 4.09 10.82 4.47 3.66.55 7.34-.04 10.96-.65l2.24 3.01c-4.21 2.61-9.23 2.8-14.02 2.47-5.11-.46-9.65-3.33-12.45-7.58a50.88 50.88 0 0 1-2.35-3.37c-.74-1.5-1.37-3.05-2.02-4.59z"/><path fill="#717175" d="M319.29 252.27c1.68-2.15 4.07-3.57 6.27-5.12l1.73.87c-.43 2.77-1.34 5.52-3.21 7.67l-3.32 2.5c-.6-1.94-1.45-3.86-1.47-5.92z"/><path fill="#636467" d="M329.93 248.55l3.46.46c1.74 1.23 1.05 3.46.63 5.17l-5-1.04.91-4.59z"/><path fill="#888480" d="M210.7 249.89l2.52-.67c-.1 4.1-.26 8.29-1.94 12.1-.44-2.86-.79-5.75-.89-8.64l.31-2.79z"/><path fill="#4d4e4d" d="M222.76 250.23l7.32 4.12-1.04 2.2-5.29-1.19-.99-5.13z"/><path fill="#5c5d5a" d="M232.35 256.95c.35-2.29.76-4.58 1.42-6.81.25 2.58.52 5.17.3 7.76l-.57 2.81c2.58-.03 5.3-.18 7.7.98 4.64 2.16 9.11 4.67 13.58 7.17 2.1 1.94 3.89 4.18 5.6 6.46 4.53-2.51 10.06-2.64 14.14-6.01l-2.04-1.44-.73-.48c2.77-1.61 5.66-3.25 7.41-6.04 1.37.98 2.71 2.01 4.06 3.04-5.69 5.84-13.48 9.09-19.36 14.76 1.35-.06 2.78.2 4.07-.33 9.49-4.58 18.34-11.71 22.34-21.74l-2.12-1.21 5.1-2.01 3.17 3.31 4.15-.67-.68 2.41c-1.26 2.93-2.64 5.84-4.68 8.31-2.87 3.49-6.76 5.91-10.08 8.92-3.19 2.84-5.85 6.21-8.42 9.6l4.29-.68-2.87 2.46c1.34.71 2.67 1.41 3.97 2.19l-1.21 3.38c-2.05-.15-4.1-.29-6.13-.55 1.73-.41 3.42-.94 5.12-1.48-3.39-2.93-7.94-3.31-12.12-4.28a109.94 109.94 0 0 1 .36 3.65l-3.04-1.21c-.25-.3-.77-.88-1.02-1.18-1.25-3.69-4.54-5.81-8.13-6.82l3.31-.41c-3.43-1.55-7.17-2.57-10.17-4.92-2.32-1.79-5.01-2.97-7.72-4-4.55-1.66-8.7-4.27-12.18-7.62.59 1.98 1.12 3.98 1.62 6-1.94-.93-4.3-1.62-5.34-3.69-1.1-2.29-.98-4.92-1.25-7.4-.12-1.28-.26-2.56-.45-3.82l5.29 1.19 1.04-2.2c.77.85 1.52 1.72 2.27 2.6m1.55 6.26c1.17 1.46 2.68 2.6 4.3 3.54l1.3 2.8c5.66 1.09 11.51 3.18 14.95 8.11l4.1.27-.13-2.65c-3.97-1.93-8.08-3.59-11.89-5.82-4.06-2.36-8.09-4.91-12.63-6.25z"/><path fill="#86877d" d="M218.18 251.27l.08-1.03c1.92 3.01 3.88 6.02 5.94 8.94.27 2.48.15 5.11 1.25 7.4 1.04 2.07 3.4 2.76 5.34 3.69-.5-2.02-1.03-4.02-1.62-6 3.48 3.35 7.63 5.96 12.18 7.62l-1.54 4.28c-2.62-.54-5.26-1.05-7.78-1.95-4.3-2.38-7.7-6.04-10.38-10.11l-2.52 1.23.81 4.2-.48.5a118.26 118.26 0 0 1-2.83 2.18c-2.08-3.66-3.63-8.1-2.05-12.25 1.17-1.36 3.1-1.93 4.06-3.47-.01-1.76-.4-3.48-.46-5.23z"/><path fill="#8a8780" d="M299.89 258.91l6.13-7.11c-1.95 5.74-3.8 11.71-7.72 16.48-2.89 3.46-6 6.72-8.84 10.23-2.29 1.53-4.49 3.2-6.59 5l-1.87 1.55c-1.43.26-2.86.47-4.29.68 2.57-3.39 5.23-6.76 8.42-9.6 3.32-3.01 7.21-5.43 10.08-8.92 2.04-2.47 3.42-5.38 4.68-8.31z"/><path fill="#7f8081" d="M245.03 253.14l3.77-.35 2.35 3.37-1.39 2.39c-1.69-1.7-3.26-3.51-4.73-5.41z"/><path fill="#66645f" d="M272.07 256.84c3.3-.42 6.07-2.37 8.89-3.98l5.39 1.24-1.22 1.02-4.56 3.98-.36.31-1.76 1.45-.83.41-2.24-3.01c-3.62.61-7.3 1.2-10.96.65 2.3-1.45 5.02-1.67 7.65-2.07z"/><path fill="#78787d" d="M312.03 256.85c-.9-2.74 3.11-3.38 5-3.95-1.28 1.51-2.72 4.6-5 3.95z"/><path fill="#3f4042" d="M280.57 259.1l4.56-3.98 1.14 1.47 1.88-.72-4.93 8.52-4.06-3.04-.71-.49 1.76-1.45.36-.31m3.63-1.97c-1.33.68-1.35 1.36-.05 2.03 1.32-.68 1.34-1.36.05-2.03z"/><path fill="#3a3d3c" d="M234.07 257.9c4.08-2.09 8.16.65 11.77 2.41 4.47 3.55 10.38 3.56 15.38 5.95-1.48.49-2.93 1.04-4.36 1.64-.7.3-1.4.63-2.08.96-4.47-2.5-8.94-5.01-13.58-7.17-2.4-1.16-5.12-1.01-7.7-.98l.57-2.81z"/><path fill="#817e75" d="M288.15 255.87l2.12 1.21c-4 10.03-12.85 17.16-22.34 21.74-1.29.53-2.72.27-4.07.33 5.88-5.67 13.67-8.92 19.36-14.76 1.86-2.71 3.42-5.61 4.93-8.52z"/><path fill="#656567" d="M284.2 257.13c1.29.67 1.27 1.35-.05 2.03-1.3-.67-1.28-1.35.05-2.03z"/><path fill="#67685f" d="M303.36 264.78c1.73-2.93 2.67-6.87 6.38-7.91 2.16 2.67 4.49 5.19 7.01 7.52-.52 3.34-2.39 6.16-4.49 8.71-2.1-3.56-4.45-7.57-8.9-8.32z"/><path fill="#b4b2b6" d="M280.21 259.41l.36-.31-.36.31z"/><path fill="#888" d="M277.62 261.27l.83-.41.71.49c-1.75 2.79-4.64 4.43-7.41 6.04-2.43-.31-4.89-.25-7.32-.05l-.83-3.6c4.79.33 9.81.14 14.02-2.47z"/><path fill="#828383" d="M317.28 261.93l4.92 3.91 2.71.1 1.6 1.72-.19 1.7c-3.14 4.42-5.93 9.08-9.37 13.28l-2.92-.42 1.65-2.59c1.13-1.55 2.24-3.11 3.27-4.73 1.14-1.9 2.17-3.86 3.22-5.81-1.81-1.78-3.6-3.56-5.24-5.48.08-.42.26-1.26.35-1.68z"/><path fill="#74716a" d="M233.9 263.21c4.54 1.34 8.57 3.89 12.63 6.25 3.81 2.23 7.92 3.89 11.89 5.82l.13 2.65-4.1-.27c-3.44-4.93-9.29-7.02-14.95-8.11l-1.3-2.8c-1.62-.94-3.13-2.08-4.3-3.54z"/><path fill="#4a4c4a" d="M219.13 265.34l2.52-1.23c2.68 4.07 6.08 7.73 10.38 10.11l-.31 2.31-1.1 2.94c-3.79-3.06-7.29-6.45-10.68-9.93l-.81-4.2z"/><path fill="#43413b" d="M316.75 264.39l.18-.78c1.64 1.92 3.43 3.7 5.24 5.48l-3.22 5.81-2.16-2.31c-3.55 3.05-6.57 6.8-7.88 11.37-.92 2.44-1.41 5.03-2.49 7.41-1.13 1.89-2.97 3.2-4.38 4.87-1.85-.23-3.6-.8-5.33-1.46 1.97-.39 3.95-.71 5.95-1.01l3.46-9.7c1.84-3.76 3.61-7.6 6.14-10.97 2.1-2.55 3.97-5.37 4.49-8.71z"/><path fill="#676868" d="M210.43 264.82c1.01 4.04 3.81 8.46 1.4 12.53l-1.2 1.3c-.88 2.39-1.36 4.9-1.88 7.39.01-3.61-.25-7.26.43-10.83.63-3.43 1.32-6.88 1.25-10.39z"/><path fill="#7b7c73" d="M303.36 264.78c4.45.75 6.8 4.76 8.9 8.32-2.53 3.37-4.3 7.21-6.14 10.97-2.57 2.18-5.16 4.54-6.15 7.89-2.42-.18-4.79-.69-7.09-1.43 2.76-2.94 5.25-6.38 5.04-10.62-1.89-.89-3.76-1.82-5.58-2.85 4.13-3.64 7.88-7.75 11.02-12.28z"/><path fill="#4b4c4a" d="M254.78 268.86l2.08-.96c4.93 2.15 10.56 1.31 15.62-.03l2.04 1.44c-4.08 3.37-9.61 3.5-14.14 6.01-1.71-2.28-3.5-4.52-5.6-6.46z"/><path fill="#373631" d="M326.51 267.66c1.05 1.3 2.24 2.72 2.13 4.51.11 4.68-.84 9.29-1.42 13.92a23.71 23.71 0 0 0-5.38 10.58l-3.34-2.75c1.42-2.69 2.48-5.54 3.5-8.39 1.23-3.54 4.61-5.89 5.41-9.62.06-2.24-.55-4.41-1.09-6.55l.19-1.7z"/><path fill="#777870" d="M219.46 270.04l.48-.5c3.39 3.48 6.89 6.87 10.68 9.93 1.39 1.06 2.74 2.28 4.41 2.9 1.13-.35 2.25-.76 3.36-1.17l-.17.85-.74 3.62c-2.56.18-5.18-.01-7.42-1.39l-11.77-5.98-1.48-3.09 4.25.26c-.55-1.81-1.12-3.61-1.6-5.43z"/><path fill="#6b6b6c" d="M316.95 282.64c3.44-4.2 6.23-8.86 9.37-13.28.54 2.14 1.15 4.31 1.09 6.55-3.21 2.77-5.26 6.55-8.13 9.62l-2.33-2.89z"/><path fill="#716b65" d="M241.35 271.89c2.71 1.03 5.4 2.21 7.72 4 3 2.35 6.74 3.37 10.17 4.92l-3.31.41c-5.68-1.02-11.28-2.41-16.87-3.8l-.5 2.85c-1.71-2.13-4.35-2.95-6.84-3.74l.31-2.31c2.52.9 5.16 1.41 7.78 1.95l1.54-4.28z"/><path fill="#69625b" d="M308.91 283.96c1.31-4.57 4.33-8.32 7.88-11.37l2.16 2.31c-1.03 1.62-2.14 3.18-3.27 4.73-2.29 1.38-4.65 2.68-6.77 4.33z"/><path fill="#535453" d="M319.28 285.53c2.87-3.07 4.92-6.85 8.13-9.62-.8 3.73-4.18 6.08-5.41 9.62-1.02 2.85-2.08 5.7-3.5 8.39l3.34 2.75a23.71 23.71 0 0 1 5.38-10.58c-.07 3.13.62 6.45-.76 9.4-3.73 7.6-2.21 16.42-4.25 24.43l-2.52-2.84c-3.67 2.19-7.76 4.26-12.16 3.16-1.8-.44-3.58-.94-5.36-1.41l-2.12-.56-1.75 3.17c-.35-3.51 1.08-7.95-2.42-10.3l-.01-3.93.45-.77c2.03 2.12 3.92 4.75 6.9 5.56 2.53.9 5.21.31 7.76-.16-2.77-1.2-5.61-2.32-8.16-3.96-.27-2.63-.42-5.27-.51-7.9l3.55-1.09.56 7.16c.63-2.15 1.15-4.36 2.23-6.33 1.37-2.13 3.38-3.72 5.22-5.42l-4.74.53c.07-2.67-.56-6 1.92-7.83 1.4-1.63 3.47-.1 5.15.16l3.08-1.63z"/><path fill="#878981" d="M230.62 279.47l1.1-2.94c2.49.79 5.13 1.61 6.84 3.74l-.17.93-3.36 1.17c-1.67-.62-3.02-1.84-4.41-2.9z"/><path fill="#434543" d="M239.06 277.42c5.59 1.39 11.19 2.78 16.87 3.8 3.59 1.01 6.88 3.13 8.13 6.82-2.93-.21-5.86-.41-8.75-.92-5.31-2.85-11.41-3.33-17.09-5.07l.17-.85.17-.93.5-2.85z"/><path fill="#6c6f67" d="M289.46 278.51l2.88-1.45 5.58 2.85c.21 4.24-2.28 7.68-5.04 10.62 2.3.74 4.67 1.25 7.09 1.43.99-3.35 3.58-5.71 6.15-7.89l-3.46 9.7c-2 .3-3.98.62-5.95 1.01 1.73.66 3.48 1.23 5.33 1.46l-.89 1.13c-3.66 2.07-8.03.4-11.92 1.68l-2.25-3.1c2.62-.54 5.3-.66 7.96-.33-3.19-4.8-7.13-9.09-12.07-12.11 2.1-1.8 4.3-3.47 6.59-5z"/><path fill="#92908c" d="M210.63 278.65l1.2-1.3 1.2 1.41c-.36 3.35-.99 6.66-1.53 9.99-.45 1.86-1.02 3.7-1.6 5.53l-2.69-.66 1.54-7.58c.52-2.49 1-5 1.88-7.39z"/><path fill="#6c6b66" d="M218.29 278.3c3.87 2.09 7.85 3.98 11.77 5.98l-1.27 1.77a112.23 112.23 0 0 1-11.6-2.87l-1 2.86c3.96 1.4 8.79 1.43 11.61 4.98-5.26-.08-10.51-.47-15.77-.73l-.53-1.54c.54-3.33 1.17-6.64 1.53-9.99l1.93 2.18c1.08-.92 2.2-1.8 3.33-2.64z"/><path fill="#7c7e80" d="M308.91 283.96c2.12-1.65 4.48-2.95 6.77-4.33l-1.65 2.59 2.92.42 2.33 2.89-3.08 1.63c-1.68-.26-3.75-1.79-5.15-.16-2.48 1.83-1.85 5.16-1.92 7.83l4.74-.53c-1.84 1.7-3.85 3.29-5.22 5.42-1.08 1.97-1.6 4.18-2.23 6.33l-.56-7.16-3.55 1.09.51 7.9-3.91-2.8a8.35 8.35 0 0 0-2.59 1.36l-.45.77-1.02-3.58c1.99.23 3.99.25 6 .29l.3-6.55.89-1.13c1.41-1.67 3.25-2.98 4.38-4.87 1.08-2.38 1.57-4.97 2.49-7.41z"/><path fill="#5d5b57" d="M238.22 282.05c5.68 1.74 11.78 2.22 17.09 5.07l-6.97-.08c-2.76-.24-6.02-1.46-8.38.65-.66 3.38.03 6.85-.36 10.27-1.34-2.08-2.69-4.47-5.12-5.41-2.13-.85-4.41-1.24-6.68-1.53-2.82-3.55-7.65-3.58-11.61-4.98l1-2.86a112.23 112.23 0 0 0 11.6 2.87l1.27-1.77c2.24 1.38 4.86 1.57 7.42 1.39l.74-3.62z"/><path fill="#4c4e4b" d="M281 285.06l1.87-1.55c4.94 3.02 8.88 7.31 12.07 12.11-2.66-.33-5.34-.21-7.96.33-1.47-2.19-2.56-4.78-4.88-6.24-1.3-.78-2.63-1.48-3.97-2.19l2.87-2.46z"/><path fill="#040403" opacity=".75" d="M239.96 287.69c2.36-2.11 5.62-.89 8.38-.65l-5.26 1.02c-1.74 8.68-1.95 17.6-4.09 26.2-.7 2.97-1.67 5.87-2.1 8.9-.56 3.87.92 7.71.45 11.59-.35 2.75-.97 5.49-.86 8.29.22 7 .18 14.01.26 21.01.19 2.9-1.76 5.26-2.42 7.97-.18 3.58.51 7.13.58 10.71l-.9.14c-.03-6.29-.95-12.61.06-18.88.87-5.78.16-11.64.64-17.44.52-5.59-.86-11.18.05-16.75l.82-5.61c2.28-8.28 3.42-16.8 3.99-25.36l.04-.87c.39-3.42-.3-6.89.36-10.27z"/><path fill="#9a9ca2" d="M267.76 286.78c4.18.97 8.73 1.35 12.12 4.28-1.7.54-3.39 1.07-5.12 1.48-2.31-.39-4.48-1.27-6.64-2.11a109.94 109.94 0 0 0-.36-3.65z"/><path fill="#7e8076" d="M209.9 294.28l1.6-5.53.53 1.54c5.26.26 10.51.65 15.77.73 2.27.29 4.55.68 6.68 1.53 2.43.94 3.78 3.33 5.12 5.41l-.04.87c-3.5.15-6.97.49-10.46.75-6.75.56-13.58-2.75-20.16-.08l.26-2.93.7-2.29z"/><path fill="#919498" d="M282.1 289.71c2.32 1.46 3.41 4.05 4.88 6.24l2.25 3.1 1.59 3.25c-1.72-.05-3.43 0-5.13.05-2.01-2.86-3.45-6.05-4.8-9.26l1.21-3.38z"/><path fill="#606260" d="M208.16 295.07l1.04 1.5-.26 2.93c6.58-2.67 13.41.64 20.16.08.04 2.25.13 4.53-.35 6.74-.57 2.84-1.61 5.74-.85 8.66.25 2.52 2.33 4.12 3.99 5.78-2.76-.02-5.43-.73-8.06-1.44-2.78-.93-5.44.78-8.03 1.53l-4.57 1.44c-2.64-3.95-1.95-8.81-2.01-13.3.08-4.67-.6-9.29-1.06-13.92z"/><path fill="#555755" d="M289.23 299.05c3.89-1.28 8.26.39 11.92-1.68-.14 2.17-.21 4.36-.3 6.55-2.01-.04-4.01-.06-6-.29-1.36-.41-2.69-.9-4.03-1.33-.51-1.1-1.04-2.18-1.59-3.25z"/><path fill="#505150" d="M229.1 299.58l10.46-.75c-.57 8.56-1.71 17.08-3.99 25.36l-.43-3.62-3.25.19c-1.66-1.66-3.74-3.26-3.99-5.78-.76-2.92.28-5.82.85-8.66.48-2.21.39-4.49.35-6.74z"/><path fill="#010101" opacity=".76" d="M285.69 302.35l5.13-.05 4.03 1.33 1.02 3.58.01 3.93c-4.38-1.61-7.82-4.83-10.19-8.79z"/><path fill="#a7785d" d="M296.32 306.44a8.35 8.35 0 0 1 2.59-1.36c1.37.83 2.6 1.86 3.91 2.8 2.55 1.64 5.39 2.76 8.16 3.96-2.55.47-5.23 1.06-7.76.16-2.98-.81-4.87-3.44-6.9-5.56z"/><path fill="#747272" d="M307.53 320.24c4.4 1.1 8.49-.97 12.16-3.16l2.52 2.84-2.01 2.32c-6.31 1.12-12.68 2.02-19.1 1.76-.97-.83-1.91-1.67-2.8-2.56l1.75-3.17 2.12.56-.04 4.02c2.1-.14 3.98-1.04 5.4-2.61z"/><path fill="#808179" d="M215.8 320.85c2.59-.75 5.25-2.46 8.03-1.53 2.63.71 5.3 1.42 8.06 1.44l3.25-.19.43 3.62-.82 5.61c-.63 2.81-1.62 5.52-2.61 8.21-3.75-.15-7.49-.06-11.23-.06l-1.49-3.47c2.03-1.27 4.23-2.63 5.1-5 1.12-2.57 1.56-6.15-.4-8.37-2.75-.42-5.55-.31-8.32-.26z"/><path fill="#868586" d="M302.17 318.83l5.36 1.41c-1.42 1.57-3.3 2.47-5.4 2.61l.04-4.02z"/><path fill="#8f9189" d="M215.8 320.85c2.77-.05 5.57-.16 8.32.26 1.96 2.22 1.52 5.8.4 8.37-.87 2.37-3.07 3.73-5.1 5l1.49 3.47c-2.38-.07-4.73-.39-7.07-.77.03-4.51-.46-9.08-2.02-13.34l-.59-1.55a173.3 173.3 0 0 1 4.57-1.44z"/><path fill="#4c4d4d" opacity=".93" d="M301.1 324c6.42.26 12.79-.64 19.1-1.76-1 1.16-1.93 2.38-2.9 3.55-4.5-.23-9.01-.09-13.49.31-.93-.68-1.83-1.38-2.71-2.1z"/><path fill="#424341" d="M211.82 323.84c1.56 4.26 2.05 8.83 2.02 13.34-.15 3.3.35 6.56 1.28 9.72.82 2.69-.97 5.42-.11 8.12.87 3.3 1.73 6.67 1.4 10.12-.57 5.71 2.03 11.12 1.78 16.83l-4.59 1.14-1.48-.36c-.23-2.35-.25-4.72.11-7.05.64-4.11-.05-8.25-.31-12.36l1.87-4.16-4 1.63c.17-5.92 2.59-11.7 1.53-17.64-1.13 3.09-1.57 6.35-1.82 9.61-.28 3.96-1.95 7.61-3.1 11.37-.12-3.11 1.06-6.03 1.83-8.98.87-3.22.83-6.58 1.45-9.84.61-3.03 2.85-5.42 3.55-8.42-.04-4.38-.86-8.73-1.41-13.07z"/><path fill="#6f6c69" opacity=".94" d="M303.81 326.1c4.48-.4 8.99-.54 13.49-.31-3.76 3.18-9.67 3.64-13.49.31z"/><path fill="#3e3d3c" d="M232.14 338.01l2.61-8.21c-.91 5.57.47 11.16-.05 16.75-.48 5.8.23 11.66-.64 17.44-1.01 6.27-.09 12.59-.06 18.88l-2.87.36c.15-2.12.43-4.27.1-6.38-.6-3.06-2.27-5.87-2.37-9.04-.14-3.62.44-7.22.93-10.79l3.93-1.53c-1.04-2.41-2.8-4.58-3.35-7.15 1.15-1.3 2.5-2.41 3.79-3.56l-2.02-6.77z"/><path fill="#60615f" d="M213.84 337.18c2.34.38 4.69.7 7.07.77 3.74 0 7.48-.09 11.23.06l2.02 6.77c-1.29 1.15-2.64 2.26-3.79 3.56.55 2.57 2.31 4.74 3.35 7.15l-3.93 1.53c-.49 3.57-1.07 7.17-.93 10.79.1 3.17 1.77 5.98 2.37 9.04.33 2.11.05 4.26-.1 6.38-5.83.35-11.89 2.27-17.53-.12 1.54-.34 3.06-.76 4.59-1.14.25-5.71-2.35-11.12-1.78-16.83.33-3.45-.53-6.82-1.4-10.12-.86-2.7.93-5.43.11-8.12-.93-3.16-1.43-6.42-1.28-9.72m4.83 12.82c2.04.86 4.25 2.28 6.55 1.39 1.62-.35 2.02-2.16 2.86-3.35-2.86-2.58-8.14-1.94-9.41 1.96m-1.57 8l2.45 4.91-1.66 2.62h1.82c-1.51 2.77-.33 5.71.89 8.33l1.81.43 1.88 1.81c.79-.94 1.94-1.79 1.98-3.14.48-4.88-.45-9.77-.79-14.63.09-1.58-1.56-2.06-2.58-2.83a33.06 33.06 0 0 0-5.8 2.5m2.06 19.1l-.35.83.33.82.83.34.84-.34.36-.82-.34-.83-.83-.34-.84.34m4.72-.19l.13 4.16c1.2-.73 2.43-1.4 3.68-2.02l-3.81-2.14z"/><path fill="#656461" opacity=".95" d="M211.32 343.17c1.06 5.94-1.36 11.72-1.53 17.64-.22 1.94-.44 3.89-.94 5.8-1.9.85-2.15-1.08-2.45-2.46 1.15-3.76 2.82-7.41 3.1-11.37.25-3.26.69-6.52 1.82-9.61z"/><path fill="#9b999d" d="M218.67 350c1.27-3.9 6.55-4.54 9.41-1.96-.84 1.19-1.24 3-2.86 3.35-2.3.89-4.51-.53-6.55-1.39z"/><path fill="#86888b" d="M217.1 358a33.06 33.06 0 0 1 5.8-2.5c-.47 6.25-.68 12.52-.49 18.79l-1.81-.43c-1.22-2.62-2.4-5.56-.89-8.33h-1.82l1.66-2.62-2.45-4.91z"/><path fill="#a6a5a9" d="M222.9 355.5c1.02.77 2.67 1.25 2.58 2.83.34 4.86 1.27 9.75.79 14.63-.04 1.35-1.19 2.2-1.98 3.14l-1.88-1.81c-.19-6.27.02-12.54.49-18.79z"/><path fill="#62605d" d="M207.89 372.11c.43-3.28 2.49-5.96 4.03-8.77.26 4.11.95 8.25.31 12.36-.36 2.33-.34 4.7-.11 7.05-1.61-.39-3.25-.67-4.88-.94.12-3.24.15-6.5.65-9.7z"/><path fill="#8e9193" d="M219.16 377.1l.84-.34.83.34.34.83-.36.82-.84.34-.83-.34-.33-.82.35-.83z"/><path fill="#919194" d="M223.88 376.91l3.81 2.14-3.68 2.02-.13-4.16z"/></svg>