<?xml version="1.0" encoding="UTF-8" ?>
<!DOCTYPE svg PUBLIC "-//W3C//DTD SVG 1.1//EN" "http://www.w3.org/Graphics/SVG/1.1/DTD/svg11.dtd">
<svg width="512pt" height="512pt" viewBox="0 0 512 512" version="1.1" xmlns="http://www.w3.org/2000/svg">
<g id="#6a6a67ff">
<path fill="#6a6a67" opacity="1.00" d=" M 207.41 179.20 C 209.29 177.91 211.39 179.16 213.24 179.80 C 214.69 180.40 216.12 181.04 217.57 181.64 C 218.53 185.36 213.32 185.70 212.04 188.61 C 212.00 187.51 211.95 186.40 211.90 185.30 C 210.71 186.51 209.54 187.72 208.37 188.94 C 208.44 187.59 208.49 186.23 208.51 184.88 C 206.48 186.18 205.77 188.67 204.73 190.72 C 203.16 193.58 202.14 196.81 204.06 199.81 C 201.80 200.33 200.18 198.77 198.89 197.14 C 197.03 193.21 197.61 188.49 199.71 184.79 C 201.95 182.53 204.67 180.78 207.41 179.20 Z" />
</g>
<g id="#454745ff">
<path fill="#454745" opacity="1.00" d=" M 216.65 179.81 C 221.88 179.09 227.17 179.50 232.42 179.42 C 239.00 180.23 245.51 181.62 252.04 182.78 C 247.54 182.36 243.16 183.85 239.25 185.95 C 234.41 186.55 229.39 186.12 224.85 188.23 C 221.93 185.76 226.04 182.85 227.64 180.89 C 224.03 180.10 220.34 179.80 216.65 179.81 Z" />
</g>
<g id="#525352ff">
<path fill="#525352" opacity="1.00" d=" M 213.24 179.80 C 214.38 179.84 215.51 179.84 216.65 179.81 C 220.34 179.80 224.03 180.10 227.64 180.89 C 226.04 182.85 221.93 185.76 224.85 188.23 C 229.39 186.12 234.41 186.55 239.25 185.95 L 238.68 186.34 C 237.23 187.46 235.65 188.40 234.02 189.22 C 229.63 190.96 224.33 191.32 221.10 195.15 C 220.40 196.16 218.90 197.12 219.25 198.51 C 221.15 204.65 218.78 211.67 222.96 217.16 L 221.98 217.19 L 221.09 217.04 C 218.71 215.34 216.73 213.12 215.69 210.36 C 214.99 208.40 213.66 206.81 211.79 205.88 C 209.10 203.92 205.71 203.94 202.61 203.22 C 200.17 202.27 199.90 199.23 198.89 197.14 C 200.18 198.77 201.80 200.33 204.06 199.81 C 205.78 197.06 204.76 193.74 204.73 190.72 C 205.77 188.67 206.48 186.18 208.51 184.88 C 208.49 186.23 208.44 187.59 208.37 188.94 C 209.54 187.72 210.71 186.51 211.90 185.30 C 211.95 186.40 212.00 187.51 212.04 188.61 C 213.32 185.70 218.53 185.36 217.57 181.64 C 216.12 181.04 214.69 180.40 213.24 179.80 Z" />
</g>
<g id="#6f7172ff">
<path fill="#6f7172" opacity="1.00" d=" M 239.25 185.95 C 243.16 183.85 247.54 182.36 252.04 182.78 C 252.79 183.41 253.53 184.05 254.25 184.72 C 248.73 185.31 244.25 189.06 238.83 189.89 C 238.79 188.70 238.74 187.52 238.68 186.34 L 239.25 185.95 Z" />
</g>
<g id="#2f323aff">
<path fill="#2f323a" opacity="1.00" d=" M 422.14 183.65 C 426.03 182.18 431.60 185.65 430.21 190.08 C 428.86 190.52 427.52 190.97 426.19 191.45 C 426.07 190.28 425.95 189.12 425.84 187.96 C 425.73 186.82 425.63 185.70 425.54 184.57 C 424.91 184.36 423.65 183.94 423.02 183.73 L 422.14 183.65 Z" />
</g>
<g id="#646562ff">
<path fill="#646562" opacity="1.00" d=" M 255.59 185.94 C 263.43 182.35 272.93 184.71 279.61 189.74 C 276.26 190.80 273.36 192.78 270.41 194.61 C 268.64 192.93 267.13 190.72 264.66 190.05 C 264.27 193.38 263.19 196.56 260.35 198.57 C 261.86 202.05 265.69 203.51 269.25 203.76 C 269.64 200.98 270.27 198.16 272.20 196.01 C 275.33 198.59 274.77 203.50 277.98 206.11 C 279.17 207.86 281.27 207.73 283.08 207.25 C 283.86 207.10 285.41 206.80 286.18 206.65 C 287.47 208.35 288.37 210.33 287.90 212.51 C 286.05 212.61 284.20 212.71 282.36 212.81 C 282.97 215.56 283.92 218.21 284.92 220.85 C 286.26 220.47 287.61 220.08 288.96 219.69 C 293.79 223.47 300.22 223.32 305.71 225.64 C 305.51 223.66 305.35 221.67 305.19 219.69 C 306.55 219.45 307.92 219.21 309.28 218.98 C 309.42 219.51 309.70 220.58 309.83 221.12 C 309.27 221.15 308.14 221.19 307.57 221.22 C 308.12 223.15 308.64 225.10 309.20 227.03 C 307.71 228.24 305.99 229.07 304.23 229.77 C 301.82 228.84 299.38 227.96 296.96 227.07 L 297.72 226.58 C 293.64 223.42 288.40 222.46 283.35 222.76 C 279.49 220.83 275.10 220.75 271.00 221.93 C 271.65 222.59 272.31 223.25 272.97 223.92 C 270.18 223.65 267.47 222.98 264.74 222.43 C 259.51 221.29 254.62 224.14 249.82 225.73 C 245.45 227.07 242.86 231.16 241.01 235.06 C 244.61 233.03 247.60 230.05 251.40 228.37 C 255.71 226.37 260.28 224.99 264.68 223.21 C 264.82 223.63 265.12 224.45 265.26 224.86 C 267.87 225.66 270.16 227.15 272.49 228.52 C 275.31 229.30 278.32 228.76 281.17 228.37 C 282.01 227.27 282.21 225.12 283.94 225.13 C 285.05 225.80 286.05 226.62 287.07 227.42 C 283.99 228.65 281.77 231.16 280.80 234.31 C 276.94 234.44 273.10 234.02 269.27 233.55 C 264.93 232.97 260.54 233.46 256.28 234.40 C 253.49 243.05 252.94 254.87 261.07 260.91 C 263.42 263.22 266.90 262.87 269.92 263.24 C 269.21 263.80 268.49 264.35 267.78 264.89 C 267.12 265.07 265.81 265.42 265.15 265.59 C 266.31 268.04 267.91 270.37 270.23 271.86 C 272.56 272.29 274.94 272.34 277.30 272.57 C 273.32 274.88 268.45 273.07 264.15 272.86 C 261.80 272.88 260.36 270.99 260.05 268.85 C 261.79 268.45 263.51 267.70 263.74 265.71 C 260.91 264.60 258.07 263.54 255.26 262.40 C 256.15 265.18 256.82 268.02 257.00 270.94 C 253.74 269.50 250.28 267.95 248.06 265.05 C 246.53 260.35 247.29 255.10 245.04 250.57 C 244.16 251.02 243.28 251.47 242.41 251.93 C 242.75 247.02 242.07 241.45 245.77 237.59 C 245.97 240.00 246.16 242.42 246.28 244.84 C 246.84 244.19 247.39 243.54 247.94 242.89 C 248.74 248.05 247.33 254.21 251.67 258.15 C 253.08 253.53 251.61 248.73 252.05 244.03 C 252.33 240.93 252.96 237.88 253.34 234.79 C 255.52 232.79 257.64 230.69 259.29 228.22 C 256.97 228.67 254.18 228.56 252.46 230.44 C 250.59 232.48 248.70 234.52 246.49 236.21 C 246.31 235.74 245.95 234.80 245.77 234.33 C 242.55 236.51 239.49 239.11 237.66 242.63 C 236.15 245.50 233.46 247.43 231.47 249.94 C 231.23 250.50 230.75 251.63 230.51 252.19 C 230.15 249.55 229.78 246.91 229.48 244.27 C 230.55 243.99 231.62 243.71 232.69 243.43 C 232.65 240.28 231.81 236.89 229.21 234.86 C 227.47 238.74 226.26 242.87 224.02 246.53 C 220.92 242.04 222.69 236.39 225.05 232.02 C 228.40 229.83 230.42 226.38 231.29 222.53 C 232.86 218.94 236.80 218.12 239.85 216.30 C 245.07 212.68 250.63 209.44 256.78 207.71 C 258.45 207.05 260.56 206.89 261.66 205.29 C 260.02 203.07 258.28 200.93 256.54 198.78 C 255.65 197.97 255.17 196.50 253.91 196.25 C 250.29 197.02 247.37 199.47 244.11 201.08 C 242.44 202.15 240.49 201.05 238.72 200.92 C 244.74 199.13 249.94 195.05 256.20 194.10 C 257.10 195.07 258.08 195.97 259.06 196.88 C 260.26 196.21 261.44 195.52 262.63 194.83 C 262.23 192.47 261.70 189.84 259.62 188.35 C 257.40 188.01 255.59 189.60 253.76 190.57 C 253.45 190.17 252.83 189.37 252.53 188.97 C 251.80 188.68 251.08 188.40 250.35 188.14 C 252.08 187.38 253.83 186.65 255.59 185.94 M 261.51 208.44 C 256.87 211.02 251.34 211.22 246.72 213.84 C 240.86 217.44 235.94 222.28 230.94 226.93 C 229.78 227.92 230.28 229.62 230.10 230.94 C 235.64 226.45 241.44 222.27 247.35 218.27 C 250.10 216.26 253.67 216.23 256.56 214.55 C 258.11 213.67 259.71 212.78 261.52 212.63 C 265.75 212.08 269.82 210.77 273.87 209.47 C 272.71 208.03 270.66 208.45 269.05 208.16 C 266.56 208.18 263.80 207.01 261.51 208.44 Z" />
</g>
<g id="#979b9eff">
<path fill="#979b9e" opacity="1.00" d=" M 411.34 187.47 C 414.66 185.50 418.42 184.58 422.14 183.65 L 423.02 183.73 C 418.68 188.68 411.42 190.56 408.75 197.03 C 412.06 195.47 415.00 193.25 418.30 191.67 C 420.37 188.97 422.67 186.46 425.54 184.57 C 425.63 185.70 425.73 186.82 425.84 187.96 C 419.79 194.00 412.76 198.86 406.14 204.22 C 402.56 206.96 398.49 209.03 395.12 212.06 C 393.13 213.83 390.90 215.30 388.64 216.70 C 385.09 218.54 385.54 223.38 382.76 225.99 C 381.55 224.18 380.25 222.44 379.00 220.67 C 379.50 219.55 379.95 218.42 380.40 217.28 C 380.01 216.86 379.24 216.03 378.86 215.62 C 382.94 211.96 387.46 208.86 392.08 205.92 C 393.88 204.85 395.03 203.08 396.04 201.29 C 394.77 201.66 393.51 202.04 392.29 202.54 C 390.95 202.16 389.62 201.80 388.30 201.44 C 388.35 201.03 388.46 200.23 388.51 199.82 C 388.83 199.56 389.47 199.05 389.78 198.79 C 391.52 197.61 393.25 196.41 394.97 195.20 C 395.44 194.83 396.37 194.10 396.83 193.73 C 397.59 193.24 398.34 192.76 399.11 192.28 C 399.54 191.87 400.39 191.06 400.82 190.65 C 402.21 189.91 403.60 189.19 405.03 188.51 C 404.69 189.91 404.31 191.29 403.90 192.67 C 403.48 194.07 403.33 195.52 403.16 196.97 C 405.87 195.66 408.86 194.46 410.77 192.04 C 411.16 190.54 411.19 188.99 411.34 187.47 M 399.12 204.14 C 400.15 203.59 401.19 203.04 402.24 202.49 C 402.95 203.03 403.67 203.57 404.40 204.11 C 405.71 201.83 405.84 199.05 407.54 196.95 C 404.11 198.52 400.68 200.51 399.12 204.14 Z" />
</g>
<g id="#b1b8a8ff">
<path fill="#b1b8a8" opacity="1.00" d=" M 423.02 183.73 C 423.65 183.94 424.91 184.36 425.54 184.57 C 422.67 186.46 420.37 188.97 418.30 191.67 C 415.00 193.25 412.06 195.47 408.75 197.03 C 411.42 190.56 418.68 188.68 423.02 183.73 Z" />
</g>
<g id="#838687ff">
<path fill="#838687" opacity="1.00" d=" M 238.83 189.89 C 244.25 189.06 248.73 185.31 254.25 184.72 C 254.59 185.02 255.25 185.64 255.59 185.94 C 253.83 186.65 252.08 187.38 250.35 188.14 C 244.75 190.64 238.66 192.98 235.27 198.47 C 234.71 198.63 233.57 198.96 233.00 199.13 C 232.29 199.10 230.87 199.04 230.16 199.02 C 231.69 197.33 233.55 195.88 234.74 193.92 C 234.65 192.33 234.30 190.78 234.02 189.22 C 235.65 188.40 237.23 187.46 238.68 186.34 C 238.74 187.52 238.79 188.70 238.83 189.89 Z" />
</g>
<g id="#5c564eff">
<path fill="#5c564e" opacity="1.00" d=" M 250.35 188.14 C 251.08 188.40 251.80 188.68 252.53 188.97 C 249.43 195.64 241.73 197.06 235.27 198.47 C 238.66 192.98 244.75 190.64 250.35 188.14 Z" />
</g>
<g id="#c59273ff">
<path fill="#c59273" opacity="1.00" d=" M 253.76 190.57 C 255.59 189.60 257.40 188.01 259.62 188.35 C 261.70 189.84 262.23 192.47 262.63 194.83 C 261.44 195.52 260.26 196.21 259.06 196.88 C 258.08 195.97 257.10 195.07 256.20 194.10 C 255.35 192.94 254.58 191.74 253.76 190.57 Z" />
</g>
<g id="#626566ff">
<path fill="#626566" opacity="1.00" d=" M 403.90 192.67 C 406.01 190.47 408.64 188.85 411.34 187.47 C 411.19 188.99 411.16 190.54 410.77 192.04 C 408.86 194.46 405.87 195.66 403.16 196.97 C 403.33 195.52 403.48 194.07 403.90 192.67 Z" />
</g>
<g id="#6f7173ff">
<path fill="#6f7173" opacity="1.00" d=" M 406.14 204.22 C 412.76 198.86 419.79 194.00 425.84 187.96 C 425.95 189.12 426.07 190.28 426.19 191.45 C 427.52 190.97 428.86 190.52 430.21 190.08 C 428.88 193.01 426.05 194.73 423.61 196.64 C 420.75 198.74 418.07 201.07 415.19 203.14 C 414.21 203.75 411.89 204.16 412.42 205.72 C 413.48 206.29 414.68 205.57 415.69 205.21 L 415.84 205.95 C 415.36 206.29 414.40 206.97 413.91 207.31 C 412.98 209.12 415.84 208.67 416.17 207.45 C 417.32 207.99 418.47 208.53 419.63 209.08 C 418.99 213.65 414.84 215.97 411.53 218.53 C 407.31 222.12 401.54 222.86 397.03 225.99 C 392.90 228.81 387.77 228.69 383.02 229.25 C 382.50 229.04 381.48 228.62 380.97 228.41 C 381.19 228.10 381.63 227.49 381.85 227.19 C 382.08 226.89 382.53 226.29 382.76 225.99 C 385.54 223.38 385.09 218.54 388.64 216.70 C 390.90 215.30 393.13 213.83 395.12 212.06 C 398.49 209.03 402.56 206.96 406.14 204.22 M 408.06 215.90 C 409.15 216.53 410.35 217.00 411.64 216.70 C 412.02 215.84 412.41 214.98 412.82 214.13 C 412.35 213.89 411.43 213.43 410.97 213.19 C 409.79 213.86 408.86 214.83 408.06 215.90 M 385.89 227.40 C 390.45 227.89 395.34 226.59 398.27 222.86 C 399.31 221.15 397.22 220.02 396.34 218.87 C 396.35 218.39 396.38 217.43 396.40 216.96 C 392.15 219.63 388.50 223.08 385.89 227.40 Z" />
</g>
<g id="#5d5e5cff">
<path fill="#5d5e5c" opacity="1.00" d=" M 221.10 195.15 C 224.33 191.32 229.63 190.96 234.02 189.22 C 234.30 190.78 234.65 192.33 234.74 193.92 C 233.55 195.88 231.69 197.33 230.16 199.02 C 230.87 199.04 232.29 199.10 233.00 199.13 C 228.95 200.18 224.41 200.98 222.14 204.96 C 225.80 204.04 229.39 202.88 233.07 202.02 C 228.05 206.32 229.03 213.33 229.91 219.15 C 227.94 215.88 225.66 212.76 222.89 210.12 C 223.38 212.56 224.36 214.85 225.55 217.04 C 224.90 217.07 223.61 217.13 222.96 217.16 C 218.78 211.67 221.15 204.65 219.25 198.51 C 218.90 197.12 220.40 196.16 221.10 195.15 Z" />
</g>
<g id="#33312dff">
<path fill="#33312d" opacity="1.00" d=" M 235.27 198.47 C 241.73 197.06 249.43 195.64 252.53 188.97 C 252.83 189.37 253.45 190.17 253.76 190.57 C 254.58 191.74 255.35 192.94 256.20 194.10 C 249.94 195.05 244.74 199.13 238.72 200.92 C 236.83 201.24 234.94 201.59 233.07 202.02 C 229.39 202.88 225.80 204.04 222.14 204.96 C 224.41 200.98 228.95 200.18 233.00 199.13 C 233.57 198.96 234.71 198.63 235.27 198.47 Z" />
</g>
<g id="#4c4b48ff">
<path fill="#4c4b48" opacity="1.00" d=" M 264.66 190.05 C 267.13 190.72 268.64 192.93 270.41 194.61 C 273.36 192.78 276.26 190.80 279.61 189.74 C 280.32 194.21 278.47 198.52 278.24 202.95 C 278.68 205.34 280.81 206.82 283.08 207.25 C 281.27 207.73 279.17 207.86 277.98 206.11 C 274.77 203.50 275.33 198.59 272.20 196.01 C 270.27 198.16 269.64 200.98 269.25 203.76 C 265.69 203.51 261.86 202.05 260.35 198.57 C 263.19 196.56 264.27 193.38 264.66 190.05 Z" />
</g>
<g id="#868587ff">
<path fill="#868587" opacity="1.00" d=" M 204.06 199.81 C 202.14 196.81 203.16 193.58 204.73 190.72 C 204.76 193.74 205.78 197.06 204.06 199.81 Z" />
</g>
<g id="#2f2f32af">
<path fill="#2f2f32" opacity="0.69" d=" M 399.11 192.28 C 399.54 191.87 400.39 191.06 400.82 190.65 C 400.39 191.06 399.54 191.87 399.11 192.28 Z" />
</g>
<g id="#3f4145b7">
<path fill="#3f4145" opacity="0.72" d=" M 394.97 195.20 C 395.44 194.83 396.37 194.10 396.83 193.73 C 396.37 194.10 395.44 194.83 394.97 195.20 Z" />
</g>
<g id="#7f8078ff">
<path fill="#7f8078" opacity="1.00" d=" M 244.11 201.08 C 247.37 199.47 250.29 197.02 253.91 196.25 C 255.17 196.50 255.65 197.97 256.54 198.78 C 254.35 199.27 252.08 199.73 250.31 201.19 C 246.84 203.96 242.22 204.54 238.69 207.22 C 238.77 210.28 239.26 213.30 239.85 216.30 C 236.80 218.12 232.86 218.94 231.29 222.53 C 230.82 221.40 230.36 220.28 229.91 219.15 C 229.03 213.33 228.05 206.32 233.07 202.02 C 234.94 201.59 236.83 201.24 238.72 200.92 C 240.49 201.05 242.44 202.15 244.11 201.08 Z" />
</g>
<g id="#afb4adff">
<path fill="#afb4ad" opacity="1.00" d=" M 399.12 204.14 C 400.68 200.51 404.11 198.52 407.54 196.95 C 405.84 199.05 405.71 201.83 404.40 204.11 C 403.67 203.57 402.95 203.03 402.24 202.49 C 401.19 203.04 400.15 203.59 399.12 204.14 Z" />
</g>
<g id="#909188ff">
<path fill="#909188" opacity="1.00" d=" M 250.31 201.19 C 252.08 199.73 254.35 199.27 256.54 198.78 C 258.28 200.93 260.02 203.07 261.66 205.29 C 260.56 206.89 258.45 207.05 256.78 207.71 C 250.63 209.44 245.07 212.68 239.85 216.30 C 239.26 213.30 238.77 210.28 238.69 207.22 C 242.22 204.54 246.84 203.96 250.31 201.19 Z" />
</g>
<g id="#000000bd">
<path fill="#000000" opacity="0.74" d=" M 380.79 200.75 C 383.53 199.23 386.76 199.29 389.78 198.79 C 389.47 199.05 388.83 199.56 388.51 199.82 C 382.55 205.17 375.98 209.78 369.91 214.97 C 368.26 216.56 366.60 218.14 364.91 219.68 C 362.64 218.43 361.35 216.11 359.68 214.24 C 359.33 214.16 358.64 214.00 358.29 213.92 C 362.70 209.24 368.24 205.63 373.90 202.61 C 373.43 203.81 372.97 205.01 372.49 206.20 C 375.23 204.34 377.87 202.33 380.79 200.75 Z" />
</g>
<g id="#7c7d7cfd">
<path fill="#7c7d7c" opacity="1.00" d=" M 369.91 214.97 C 375.98 209.78 382.55 205.17 388.51 199.82 C 388.46 200.23 388.35 201.03 388.30 201.44 C 389.62 201.80 390.95 202.16 392.29 202.54 C 389.69 204.56 387.11 206.60 384.32 208.36 C 379.86 211.10 376.18 214.90 371.74 217.68 C 371.14 216.77 370.53 215.86 369.91 214.97 Z" />
</g>
<g id="#b8c0abff">
<path fill="#b8c0ab" opacity="1.00" d=" M 392.29 202.54 C 393.51 202.04 394.77 201.66 396.04 201.29 C 395.03 203.08 393.88 204.85 392.08 205.92 C 387.46 208.86 382.94 211.96 378.86 215.62 C 376.90 217.27 375.21 219.20 373.66 221.23 C 373.03 220.04 372.42 218.84 371.74 217.68 C 376.18 214.90 379.86 211.10 384.32 208.36 C 387.11 206.60 389.69 204.56 392.29 202.54 Z" />
</g>
<g id="#373837b5">
<path fill="#373837" opacity="0.71" d=" M 412.42 205.72 C 411.89 204.16 414.21 203.75 415.19 203.14 C 415.31 203.66 415.57 204.70 415.69 205.21 C 414.68 205.57 413.48 206.29 412.42 205.72 Z" />
</g>
<g id="#020202ba">
<path fill="#020202" opacity="0.73" d=" M 211.79 205.88 C 213.66 206.81 214.99 208.40 215.69 210.36 C 216.73 213.12 218.71 215.34 221.09 217.04 C 219.11 216.60 216.87 216.85 215.09 215.81 C 212.72 213.09 212.13 209.35 211.79 205.88 Z" />
<path fill="#020202" opacity="0.73" d=" M 319.00 274.24 C 321.07 272.95 323.04 271.48 325.20 270.33 L 326.19 270.16 C 324.15 272.59 321.96 274.90 319.82 277.26 C 318.93 276.86 318.03 276.47 317.13 276.09 C 317.74 275.46 318.36 274.84 319.00 274.24 Z" />
<path fill="#020202" opacity="0.73" d=" M 310.37 284.29 C 309.61 282.74 309.58 281.07 310.40 279.53 C 312.08 279.96 313.77 280.39 315.46 280.82 C 313.72 281.91 312.03 283.07 310.37 284.29 Z" />
</g>
<g id="#2020229d">
<path fill="#202022" opacity="0.62" d=" M 413.91 207.31 C 414.40 206.97 415.36 206.29 415.84 205.95 C 415.93 206.32 416.09 207.08 416.17 207.45 C 415.84 208.67 412.98 209.12 413.91 207.31 Z" />
</g>
<g id="#8f8d85ff">
<path fill="#8f8d85" opacity="1.00" d=" M 261.51 208.44 C 263.80 207.01 266.56 208.18 269.05 208.16 C 270.66 208.45 272.71 208.03 273.87 209.47 C 269.82 210.77 265.75 212.08 261.52 212.63 C 259.71 212.78 258.11 213.67 256.56 214.55 C 253.67 216.23 250.10 216.26 247.35 218.27 C 241.44 222.27 235.64 226.45 230.10 230.94 C 230.28 229.62 229.78 227.92 230.94 226.93 C 235.94 222.28 240.86 217.44 246.72 213.84 C 251.34 211.22 256.87 211.02 261.51 208.44 Z" />
</g>
<g id="#575850ff">
<path fill="#575850" opacity="1.00" d=" M 286.18 206.65 C 292.14 207.74 294.71 213.99 299.05 217.54 C 301.63 214.90 305.09 212.58 308.95 213.74 C 307.28 214.18 305.61 214.62 303.94 215.08 C 305.71 216.39 307.49 217.69 309.28 218.98 C 307.92 219.21 306.55 219.45 305.19 219.69 C 305.35 221.67 305.51 223.66 305.71 225.64 C 300.22 223.32 293.79 223.47 288.96 219.69 C 287.61 220.08 286.26 220.47 284.92 220.85 C 283.92 218.21 282.97 215.56 282.36 212.81 C 284.20 212.71 286.05 212.61 287.90 212.51 C 288.37 210.33 287.47 208.35 286.18 206.65 Z" />
</g>
<g id="#464744fd">
<path fill="#464744" opacity="1.00" d=" M 222.89 210.12 C 225.66 212.76 227.94 215.88 229.91 219.15 C 230.36 220.28 230.82 221.40 231.29 222.53 C 230.42 226.38 228.40 229.83 225.05 232.02 C 226.11 228.83 227.10 225.50 227.02 222.12 C 226.24 219.77 223.82 218.60 221.98 217.19 L 222.96 217.16 C 223.61 217.13 224.90 217.07 225.55 217.04 C 224.36 214.85 223.38 212.56 222.89 210.12 Z" />
</g>
<g id="#eaffffff">
<path fill="#eaffff" opacity="1.00" d=" M 408.06 215.90 C 408.86 214.83 409.79 213.86 410.97 213.19 C 411.43 213.43 412.35 213.89 412.82 214.13 C 412.41 214.98 412.02 215.84 411.64 216.70 C 410.35 217.00 409.15 216.53 408.06 215.90 Z" />
<path fill="#eaffff" opacity="1.00" d=" M 358.29 213.92 C 358.64 214.00 359.33 214.16 359.68 214.24 C 359.22 215.13 358.77 216.03 358.31 216.93 C 359.49 219.33 362.98 221.89 360.31 224.52 C 358.57 221.98 356.68 219.42 356.14 216.31 C 356.87 215.53 357.59 214.73 358.29 213.92 Z" />
<path fill="#eaffff" opacity="1.00" d=" M 346.84 242.19 C 348.85 241.41 350.79 240.46 352.71 239.47 C 353.46 241.12 355.10 242.69 354.62 244.65 C 353.71 246.25 352.18 247.41 350.38 247.78 C 349.12 245.97 347.91 244.12 346.84 242.19 Z" />
<path fill="#eaffff" opacity="1.00" d=" M 327.17 257.63 C 328.67 258.98 328.93 260.90 328.83 262.82 C 326.74 262.98 326.53 260.65 325.92 259.20 C 326.23 258.81 326.86 258.02 327.17 257.63 Z" />
</g>
<g id="#8f8f90ff">
<path fill="#8f8f90" opacity="1.00" d=" M 303.94 215.08 C 305.61 214.62 307.28 214.18 308.95 213.74 C 313.51 216.29 314.55 221.79 315.32 226.51 C 313.88 226.47 312.44 226.39 311.01 226.20 C 310.65 224.49 310.26 222.80 309.83 221.12 C 309.70 220.58 309.42 219.51 309.28 218.98 C 307.49 217.69 305.71 216.39 303.94 215.08 Z" />
</g>
<g id="#828484ff">
<path fill="#828484" opacity="1.00" d=" M 359.68 214.24 C 361.35 216.11 362.64 218.43 364.91 219.68 C 366.60 218.14 368.26 216.56 369.91 214.97 C 370.53 215.86 371.14 216.77 371.74 217.68 C 372.42 218.84 373.03 220.04 373.66 221.23 C 374.71 222.36 376.28 222.58 377.64 223.13 C 379.13 224.38 380.51 225.77 381.85 227.19 C 381.63 227.49 381.19 228.10 380.97 228.41 C 381.48 228.62 382.50 229.04 383.02 229.25 C 379.70 230.30 376.95 232.49 374.05 234.33 C 374.58 233.49 375.01 231.86 373.82 231.38 C 372.44 231.21 371.75 232.75 371.30 233.80 C 369.04 232.38 367.64 230.04 365.91 228.08 C 366.00 229.42 366.12 230.76 366.27 232.10 C 365.76 230.71 365.21 229.35 364.68 227.98 C 359.15 230.62 355.90 237.52 348.98 237.04 C 352.77 232.74 358.52 230.83 362.12 226.32 C 361.71 226.20 360.88 225.95 360.47 225.83 C 360.43 225.51 360.35 224.85 360.31 224.52 C 362.98 221.89 359.49 219.33 358.31 216.93 C 358.77 216.03 359.22 215.13 359.68 214.24 M 369.17 226.30 C 367.87 226.29 367.28 228.71 368.83 228.79 C 370.12 228.79 370.71 226.37 369.17 226.30 Z" />
</g>
<g id="#000000bf">
<path fill="#000000" opacity="0.75" d=" M 339.95 229.16 C 344.89 224.32 350.47 220.25 356.14 216.31 C 356.68 219.42 358.57 221.98 360.31 224.52 C 360.35 224.85 360.43 225.51 360.47 225.83 C 355.04 229.28 349.56 232.66 344.60 236.77 C 340.69 239.80 336.22 242.17 332.96 245.98 C 331.95 246.66 330.93 247.33 329.91 247.99 C 329.39 248.01 328.35 248.04 327.83 248.05 C 327.36 244.74 327.53 241.39 327.25 238.07 C 330.08 236.88 332.66 235.11 334.85 232.96 C 333.87 230.98 332.78 229.04 331.95 226.99 C 332.14 225.39 333.77 224.71 334.85 223.76 C 336.40 225.69 338.02 227.59 339.95 229.16 Z" />
<path fill="#000000" opacity="0.75" d=" M 178.00 270.16 C 181.61 270.16 185.27 269.17 188.84 270.12 C 192.58 271.16 196.47 270.66 200.27 270.30 C 196.46 271.17 192.59 271.72 188.71 272.16 C 181.91 272.16 175.17 270.51 168.35 271.18 C 162.86 271.75 157.33 271.98 151.87 271.11 C 153.80 270.37 155.83 269.80 157.93 270.06 C 164.61 270.54 171.31 270.28 178.00 270.16 Z" />
</g>
<g id="#5a5a5fff">
<path fill="#5a5a5f" opacity="1.00" d=" M 373.66 221.23 C 375.21 219.20 376.90 217.27 378.86 215.62 C 379.24 216.03 380.01 216.86 380.40 217.28 C 379.95 218.42 379.50 219.55 379.00 220.67 C 378.66 221.28 377.98 222.52 377.64 223.13 C 376.28 222.58 374.71 222.36 373.66 221.23 Z" />
</g>
<g id="#888986ff">
<path fill="#888986" opacity="1.00" d=" M 271.00 221.93 C 275.10 220.75 279.49 220.83 283.35 222.76 C 279.93 223.44 276.47 224.02 272.97 223.92 C 272.31 223.25 271.65 222.59 271.00 221.93 Z" />
</g>
<g id="#53566aff">
<path fill="#53566a" opacity="1.00" d=" M 307.57 221.22 C 308.14 221.19 309.27 221.15 309.83 221.12 C 310.26 222.80 310.65 224.49 311.01 226.20 C 312.44 226.39 313.88 226.47 315.32 226.51 C 316.27 226.86 317.20 227.27 318.17 227.62 C 317.91 228.53 317.67 229.44 317.45 230.36 C 315.69 229.85 313.93 229.36 312.18 228.88 C 312.07 231.45 311.92 234.01 311.72 236.57 C 310.64 236.83 309.56 237.11 308.49 237.38 C 307.55 234.62 306.70 231.59 304.23 229.77 C 305.99 229.07 307.71 228.24 309.20 227.03 C 308.64 225.10 308.12 223.15 307.57 221.22 Z" />
</g>
<g id="#bb9862ff">
<path fill="#bb9862" opacity="1.00" d=" M 377.64 223.13 C 377.98 222.52 378.66 221.28 379.00 220.67 C 380.25 222.44 381.55 224.18 382.76 225.99 C 382.53 226.29 382.08 226.89 381.85 227.19 C 380.51 225.77 379.13 224.38 377.64 223.13 Z" />
</g>
<g id="#96938bff">
<path fill="#96938b" opacity="1.00" d=" M 249.82 225.73 C 254.62 224.14 259.51 221.29 264.74 222.43 L 264.68 223.21 C 260.28 224.99 255.71 226.37 251.40 228.37 C 247.60 230.05 244.61 233.03 241.01 235.06 C 242.86 231.16 245.45 227.07 249.82 225.73 Z" />
</g>
<g id="#545755ff">
<path fill="#545755" opacity="1.00" d=" M 264.74 222.43 C 267.47 222.98 270.18 223.65 272.97 223.92 C 276.47 224.02 279.93 223.44 283.35 222.76 C 288.40 222.46 293.64 223.42 297.72 226.58 L 296.96 227.07 C 293.66 227.13 290.36 227.19 287.07 227.42 C 286.05 226.62 285.05 225.80 283.94 225.13 C 282.21 225.12 282.01 227.27 281.17 228.37 C 278.32 228.76 275.31 229.30 272.49 228.52 C 270.16 227.15 267.87 225.66 265.26 224.86 C 265.12 224.45 264.82 223.63 264.68 223.21 L 264.74 222.43 Z" />
</g>
<g id="#a4a9a1ff">
<path fill="#a4a9a1" opacity="1.00" d=" M 344.60 236.77 C 349.56 232.66 355.04 229.28 360.47 225.83 C 360.88 225.95 361.71 226.20 362.12 226.32 C 358.52 230.83 352.77 232.74 348.98 237.04 C 355.90 237.52 359.15 230.62 364.68 227.98 C 365.21 229.35 365.76 230.71 366.27 232.10 L 366.40 232.96 C 362.31 236.11 357.19 237.11 352.71 239.47 C 350.79 240.46 348.85 241.41 346.84 242.19 C 345.61 242.39 344.37 242.52 343.13 242.67 C 343.54 240.68 344.03 238.71 344.60 236.77 Z" />
</g>
<g id="#bcbdc3ff">
<path fill="#bcbdc3" opacity="1.00" d=" M 369.17 226.30 C 370.71 226.37 370.12 228.79 368.83 228.79 C 367.28 228.71 367.87 226.29 369.17 226.30 Z" />
</g>
<g id="#85857eff">
<path fill="#85857e" opacity="1.00" d=" M 287.07 227.42 C 290.36 227.19 293.66 227.13 296.96 227.07 C 299.38 227.96 301.82 228.84 304.23 229.77 C 306.70 231.59 307.55 234.62 308.49 237.38 C 306.41 237.91 304.40 238.64 302.42 239.46 C 302.05 241.89 302.11 244.35 302.40 246.79 C 303.95 247.47 305.52 248.11 307.11 248.72 C 305.54 248.98 303.98 249.25 302.42 249.54 C 302.32 252.46 303.01 255.62 301.44 258.29 C 300.88 254.53 301.59 250.47 299.78 246.98 C 298.99 245.02 297.58 242.88 298.50 240.72 C 298.97 238.86 300.59 237.21 300.49 235.29 C 296.97 231.49 291.53 229.05 286.31 230.27 C 284.92 232.32 284.18 235.39 281.37 235.92 C 281.23 235.52 280.94 234.72 280.80 234.31 C 281.77 231.16 283.99 228.65 287.07 227.42 Z" />
</g>
<g id="#666a7bff">
<path fill="#666a7b" opacity="1.00" d=" M 318.17 227.62 C 319.71 227.66 321.55 226.87 322.80 228.16 C 325.43 229.87 324.42 233.20 324.46 235.81 C 325.09 236.60 325.72 237.41 326.35 238.22 C 325.44 239.67 324.79 241.27 323.81 242.68 C 322.40 243.93 319.85 244.21 319.57 246.42 C 319.38 248.87 319.64 251.33 319.72 253.79 C 317.74 255.28 315.30 253.91 313.24 253.36 C 313.40 252.64 313.57 251.91 313.75 251.19 C 314.23 251.01 315.20 250.63 315.68 250.45 C 315.83 248.98 315.77 247.50 315.67 246.03 C 315.19 246.25 314.22 246.69 313.74 246.91 C 313.28 246.08 312.81 245.26 312.34 244.45 C 308.87 243.80 304.75 243.68 302.40 246.79 C 302.11 244.35 302.05 241.89 302.42 239.46 C 304.40 238.64 306.41 237.91 308.49 237.38 C 309.56 237.11 310.64 236.83 311.72 236.57 C 311.92 234.01 312.07 231.45 312.18 228.88 C 313.93 229.36 315.69 229.85 317.45 230.36 C 317.67 229.44 317.91 228.53 318.17 227.62 Z" />
</g>
<g id="#848585ff">
<path fill="#848585" opacity="1.00" d=" M 252.46 230.44 C 254.18 228.56 256.97 228.67 259.29 228.22 C 257.64 230.69 255.52 232.79 253.34 234.79 C 250.76 236.90 249.05 239.78 247.94 242.89 C 247.39 243.54 246.84 244.19 246.28 244.84 C 246.16 242.42 245.97 240.00 245.77 237.59 C 245.95 237.25 246.31 236.56 246.49 236.21 C 248.70 234.52 250.59 232.48 252.46 230.44 Z" />
</g>
<g id="#5b5c60ee">
<path fill="#5b5c60" opacity="0.93" d=" M 365.91 228.08 C 367.64 230.04 369.04 232.38 371.30 233.80 C 371.99 233.93 373.36 234.19 374.05 234.33 C 372.60 235.26 371.09 236.08 369.67 237.04 C 368.28 236.89 366.90 236.77 365.52 236.67 C 365.99 235.48 366.67 234.28 366.40 232.96 L 366.27 232.10 C 366.12 230.76 366.00 229.42 365.91 228.08 Z" />
</g>
<g id="#999790ff">
<path fill="#999790" opacity="1.00" d=" M 286.31 230.27 C 291.53 229.05 296.97 231.49 300.49 235.29 C 300.59 237.21 298.97 238.86 298.50 240.72 C 297.58 242.88 298.99 245.02 299.78 246.98 L 299.07 246.96 C 297.66 246.52 296.15 246.70 294.94 247.57 C 288.21 247.94 281.47 247.75 274.74 247.27 C 274.86 246.06 275.13 244.88 275.45 243.72 C 273.93 242.73 272.43 241.72 270.93 240.71 C 271.05 239.60 271.13 238.49 271.18 237.37 C 274.47 236.25 277.96 236.28 281.37 235.92 C 284.18 235.39 284.92 232.32 286.31 230.27 Z" />
</g>
<g id="#c4c3cafe">
<path fill="#c4c3ca" opacity="1.00" d=" M 371.30 233.80 C 371.75 232.75 372.44 231.21 373.82 231.38 C 375.01 231.86 374.58 233.49 374.05 234.33 C 373.36 234.19 371.99 233.93 371.30 233.80 Z" />
</g>
<g id="#827f78ff">
<path fill="#827f78" opacity="1.00" d=" M 256.28 234.40 C 260.54 233.46 264.93 232.97 269.27 233.55 C 266.72 234.13 264.11 234.65 261.76 235.82 C 258.69 239.35 257.30 244.27 257.95 248.90 C 258.29 251.72 258.77 255.17 261.73 256.44 C 265.66 259.11 270.54 258.52 275.01 259.03 C 277.71 259.22 280.49 259.87 283.17 259.14 C 285.84 258.02 287.04 254.51 290.11 254.17 C 292.95 253.65 295.79 253.06 298.50 252.00 C 300.22 255.15 299.52 258.90 300.37 262.29 C 296.85 264.13 292.87 264.73 289.00 265.37 C 285.32 266.09 281.85 263.94 278.18 264.30 C 274.71 264.49 271.24 264.74 267.78 264.89 C 268.49 264.35 269.21 263.80 269.92 263.24 C 266.90 262.87 263.42 263.22 261.07 260.91 C 252.94 254.87 253.49 243.05 256.28 234.40 Z" />
</g>
<g id="#7b7d85ff">
<path fill="#7b7d85" opacity="1.00" d=" M 366.40 232.96 C 366.67 234.28 365.99 235.48 365.52 236.67 C 366.90 236.77 368.28 236.89 369.67 237.04 C 366.59 242.62 358.64 243.73 357.06 250.24 C 356.59 249.28 356.12 248.32 355.66 247.37 C 354.13 248.50 352.65 249.69 351.14 250.83 C 349.16 252.13 347.16 253.41 345.05 254.48 C 339.76 254.71 335.29 258.02 332.08 262.01 C 329.87 264.98 325.10 265.98 325.20 270.33 C 323.04 271.48 321.07 272.95 319.00 274.24 L 318.03 273.97 C 319.05 273.10 317.68 270.08 316.80 272.01 C 316.93 272.44 317.18 273.32 317.31 273.75 C 314.72 273.46 313.71 270.64 314.84 268.50 C 317.70 268.56 321.33 270.15 323.50 267.51 C 326.18 265.40 323.55 261.42 325.92 259.20 C 326.53 260.65 326.74 262.98 328.83 262.82 C 328.93 260.90 328.67 258.98 327.17 257.63 C 327.43 257.31 327.94 256.67 328.20 256.36 C 333.29 256.59 335.48 251.41 336.59 247.31 C 339.41 249.03 342.05 251.53 345.54 251.63 C 344.61 247.89 341.83 245.00 339.80 241.83 C 337.51 243.19 335.23 244.57 332.96 245.98 C 336.22 242.17 340.69 239.80 344.60 236.77 C 344.03 238.71 343.54 240.68 343.13 242.67 C 344.37 242.52 345.61 242.39 346.84 242.19 C 347.91 244.12 349.12 245.97 350.38 247.78 C 352.18 247.41 353.71 246.25 354.62 244.65 C 355.10 242.69 353.46 241.12 352.71 239.47 C 357.19 237.11 362.31 236.11 366.40 232.96 M 356.73 239.82 C 356.49 241.45 357.46 242.41 358.89 242.93 C 359.77 242.02 360.55 241.03 361.17 239.94 C 359.69 239.86 358.21 239.82 356.73 239.82 Z" />
</g>
<g id="#3f403fff">
<path fill="#3f403f" opacity="1.00" d=" M 237.66 242.63 C 239.49 239.11 242.55 236.51 245.77 234.33 C 245.95 234.80 246.31 235.74 246.49 236.21 C 246.31 236.56 245.95 237.25 245.77 237.59 C 242.07 241.45 242.75 247.02 242.41 251.93 C 243.28 251.47 244.16 251.02 245.04 250.57 C 247.29 255.10 246.53 260.35 248.06 265.05 C 250.28 267.95 253.74 269.50 257.00 270.94 C 256.82 268.02 256.15 265.18 255.26 262.40 C 258.07 263.54 260.91 264.60 263.74 265.71 C 263.51 267.70 261.79 268.45 260.05 268.85 C 260.36 270.99 261.80 272.88 264.15 272.86 C 268.45 273.07 273.32 274.88 277.30 272.57 C 277.78 272.60 278.74 272.66 279.22 272.69 C 279.56 274.22 279.88 275.75 280.19 277.28 C 278.30 276.84 276.40 276.47 274.49 276.17 C 274.09 276.49 273.27 277.13 272.86 277.45 C 267.59 278.66 262.13 277.65 256.84 278.75 C 252.10 278.70 247.14 279.05 242.69 277.12 C 243.21 276.89 244.24 276.42 244.75 276.19 C 244.87 274.34 245.43 272.58 246.05 270.85 C 245.70 267.48 244.78 264.05 242.90 261.19 C 241.25 258.61 241.25 255.32 239.41 252.83 C 238.77 252.01 238.12 251.19 237.47 250.37 C 235.47 250.18 233.47 250.02 231.47 249.94 C 233.46 247.43 236.15 245.50 237.66 242.63 Z" />
<path fill="#3f403f" opacity="1.00" d=" M 141.53 271.54 C 144.95 271.00 148.44 271.58 151.87 271.11 C 157.33 271.98 162.86 271.75 168.35 271.18 C 166.94 272.41 165.75 274.42 163.66 274.42 C 158.68 274.61 153.70 273.97 148.82 273.05 C 145.70 272.47 142.74 273.96 139.73 274.50 C 140.30 273.53 140.27 271.90 141.53 271.54 Z" />
</g>
<g id="#918f88ff">
<path fill="#918f88" opacity="1.00" d=" M 261.76 235.82 C 264.11 234.65 266.72 234.13 269.27 233.55 C 273.10 234.02 276.94 234.44 280.80 234.31 C 280.94 234.72 281.23 235.52 281.37 235.92 C 277.96 236.28 274.47 236.25 271.18 237.37 C 271.13 238.49 271.05 239.60 270.93 240.71 C 272.43 241.72 273.93 242.73 275.45 243.72 C 275.13 244.88 274.86 246.06 274.74 247.27 C 275.22 248.99 275.85 250.67 276.50 252.34 C 283.82 252.96 291.15 251.65 298.50 252.00 C 295.79 253.06 292.95 253.65 290.11 254.17 C 287.04 254.51 285.84 258.02 283.17 259.14 C 280.49 259.87 277.71 259.22 275.01 259.03 C 270.54 258.52 265.66 259.11 261.73 256.44 C 258.77 255.17 258.29 251.72 257.95 248.90 C 257.30 244.27 258.69 239.35 261.76 235.82 Z" />
</g>
<g id="#404140ff">
<path fill="#404140" opacity="1.00" d=" M 229.21 234.86 C 231.81 236.89 232.65 240.28 232.69 243.43 C 231.62 243.71 230.55 243.99 229.48 244.27 C 229.78 246.91 230.15 249.55 230.51 252.19 C 230.94 259.04 233.31 265.63 233.45 272.49 C 231.65 272.58 229.85 272.60 228.06 272.45 C 227.79 265.85 226.44 259.38 225.34 252.89 C 225.24 256.02 225.09 259.15 225.10 262.28 C 224.32 257.06 224.56 251.77 224.02 246.53 C 226.26 242.87 227.47 238.74 229.21 234.86 Z" />
</g>
<g id="#554f48ff">
<path fill="#554f48" opacity="1.00" d=" M 253.34 234.79 C 252.96 237.88 252.33 240.93 252.05 244.03 C 251.61 248.73 253.08 253.53 251.67 258.15 C 247.33 254.21 248.74 248.05 247.94 242.89 C 249.05 239.78 250.76 236.90 253.34 234.79 Z" />
</g>
<g id="#595957ff">
<path fill="#595957" opacity="1.00" d=" M 326.35 238.22 L 327.25 238.07 C 327.53 241.39 327.36 244.74 327.83 248.05 C 327.25 248.08 326.10 248.13 325.52 248.15 C 324.56 246.22 321.73 247.20 322.33 249.33 C 322.16 250.91 322.16 252.70 321.08 253.98 C 319.35 255.68 317.08 256.72 315.37 258.44 C 313.82 261.00 313.10 263.96 312.31 266.82 C 315.20 267.02 318.11 267.04 321.01 266.94 L 321.84 266.93 C 321.95 266.52 322.16 265.69 322.26 265.27 C 322.02 263.63 321.77 261.98 321.55 260.34 C 324.02 257.99 324.93 254.84 325.15 251.54 C 325.37 251.36 325.81 250.99 326.03 250.81 C 326.76 252.65 327.49 254.50 328.20 256.36 C 327.94 256.67 327.43 257.31 327.17 257.63 C 326.86 258.02 326.23 258.81 325.92 259.20 C 323.55 261.42 326.18 265.40 323.50 267.51 C 321.33 270.15 317.70 268.56 314.84 268.50 C 313.71 270.64 314.72 273.46 317.31 273.75 L 318.03 273.97 L 319.00 274.24 C 318.36 274.84 317.74 275.46 317.13 276.09 C 315.55 275.79 313.73 275.19 312.27 276.14 C 311.35 277.08 310.95 278.37 310.40 279.53 C 309.58 281.07 309.61 282.74 310.37 284.29 C 311.16 287.34 310.96 290.53 310.59 293.63 C 310.38 295.06 310.13 296.49 309.89 297.92 C 311.24 297.99 312.60 298.07 313.96 298.15 C 314.19 300.93 315.66 303.21 318.00 304.71 C 317.76 307.34 316.99 309.87 314.77 311.51 C 312.39 309.52 313.85 306.19 313.72 303.55 C 312.50 303.09 311.26 302.68 310.01 302.33 C 309.54 304.88 310.22 308.09 307.89 309.87 C 304.35 312.69 300.68 315.39 296.81 317.74 C 292.22 319.64 287.45 321.12 282.70 322.56 C 280.56 321.10 278.75 319.03 278.63 316.33 C 278.50 313.45 275.97 311.71 274.41 309.58 C 272.14 306.90 271.67 303.23 269.56 300.44 C 265.33 300.12 261.18 301.18 256.98 301.19 C 252.89 301.19 249.16 299.04 245.06 299.18 C 241.10 299.20 237.13 299.13 233.17 299.38 C 235.93 297.88 239.18 298.33 242.19 297.95 C 238.72 293.84 232.84 296.49 228.31 296.66 C 227.87 294.06 227.63 291.42 227.52 288.79 C 230.50 287.44 233.46 289.42 235.90 290.98 C 240.79 294.00 245.85 298.41 252.06 296.79 C 250.82 294.86 249.04 293.41 247.16 292.15 C 249.30 291.98 251.43 291.67 253.48 291.05 C 256.26 290.24 259.03 289.41 261.79 288.55 C 262.00 284.58 257.25 285.16 254.55 284.61 C 250.80 284.36 247.61 281.76 243.80 282.01 C 243.44 283.06 243.08 284.12 242.72 285.18 C 240.94 283.17 239.76 280.76 238.76 278.30 C 239.76 279.11 240.77 279.93 241.77 280.76 C 242.43 275.50 240.08 270.57 236.65 266.74 C 236.62 268.15 236.60 269.58 236.57 271.00 C 233.42 265.41 233.47 258.81 232.83 252.60 C 234.93 253.61 237.22 253.53 239.41 252.83 C 241.25 255.32 241.25 258.61 242.90 261.19 C 244.78 264.05 245.70 267.48 246.05 270.85 C 245.43 272.58 244.87 274.34 244.75 276.19 C 244.24 276.42 243.21 276.89 242.69 277.12 C 247.14 279.05 252.10 278.70 256.84 278.75 C 255.48 279.52 254.17 280.38 252.87 281.26 C 259.32 284.46 267.45 283.74 273.49 279.82 C 273.34 279.22 273.02 278.04 272.86 277.45 C 273.27 277.13 274.09 276.49 274.49 276.17 C 276.40 276.47 278.30 276.84 280.19 277.28 C 279.88 275.75 279.56 274.22 279.22 272.69 C 278.74 272.66 277.78 272.60 277.30 272.57 C 274.94 272.34 272.56 272.29 270.23 271.86 C 267.91 270.37 266.31 268.04 265.15 265.59 C 265.81 265.42 267.12 265.07 267.78 264.89 C 271.24 264.74 274.71 264.49 278.18 264.30 C 281.85 263.94 285.32 266.09 289.00 265.37 C 292.87 264.73 296.85 264.13 300.37 262.29 C 299.52 258.90 300.22 255.15 298.50 252.00 C 297.86 250.79 297.21 249.59 296.51 248.42 C 297.15 248.05 298.43 247.33 299.07 246.96 L 299.78 246.98 C 301.59 250.47 300.88 254.53 301.44 258.29 C 303.01 255.62 302.32 252.46 302.42 249.54 C 303.98 249.25 305.54 248.98 307.11 248.72 C 305.52 248.11 303.95 247.47 302.40 246.79 C 304.75 243.68 308.87 243.80 312.34 244.45 C 312.81 245.26 313.28 246.08 313.74 246.91 C 313.78 248.34 313.78 249.76 313.75 251.19 C 313.57 251.91 313.40 252.64 313.24 253.36 C 315.30 253.91 317.74 255.28 319.72 253.79 C 319.64 251.33 319.38 248.87 319.57 246.42 C 319.85 244.21 322.40 243.93 323.81 242.68 C 324.79 241.27 325.44 239.67 326.35 238.22 M 285.55 268.00 C 285.63 269.50 285.71 271.01 285.80 272.53 C 284.19 272.37 282.57 272.21 280.96 272.04 C 282.07 272.77 283.19 273.51 284.29 274.27 C 284.11 275.32 283.98 276.39 283.93 277.46 L 284.33 277.54 L 284.62 277.61 C 286.89 278.65 289.38 278.22 291.77 278.02 C 292.06 278.40 292.65 279.17 292.94 279.55 C 286.56 280.13 282.18 285.30 276.33 287.26 C 270.87 289.15 264.97 290.03 260.04 293.23 C 265.55 296.42 271.96 293.23 277.37 291.33 C 287.02 288.40 293.82 280.55 301.60 274.61 C 303.50 273.40 304.19 271.25 303.82 269.09 C 299.06 267.81 297.22 273.87 294.53 276.66 C 293.84 275.33 293.02 273.93 291.30 274.33 C 291.05 274.96 290.55 276.22 290.30 276.85 C 288.90 274.58 289.23 271.72 288.58 269.20 C 290.77 269.07 293.04 269.19 295.13 268.36 C 291.95 267.96 288.74 267.88 285.55 268.00 M 295.97 282.97 C 293.10 286.38 288.82 287.90 285.14 290.20 C 280.47 293.01 274.94 293.75 270.13 296.22 C 271.10 298.45 274.09 298.67 275.31 300.72 C 276.25 302.49 276.79 304.43 277.46 306.31 C 281.02 307.00 284.70 306.78 288.28 306.32 C 285.74 308.37 282.25 310.27 282.79 314.12 C 285.27 313.35 288.72 313.07 289.69 310.20 C 290.75 307.55 293.33 306.12 295.49 304.46 C 298.73 302.21 301.81 299.12 306.03 299.11 C 308.11 299.14 308.46 296.71 309.22 295.26 C 307.16 295.34 305.08 295.47 303.09 296.02 C 304.08 295.37 304.92 294.53 305.81 293.75 C 305.91 288.71 304.08 283.63 300.99 279.68 C 299.04 280.32 297.31 281.42 295.97 282.97 M 305.54 302.41 C 303.34 306.64 298.67 308.35 295.12 311.19 C 293.54 312.55 291.10 312.38 289.69 313.90 C 290.52 315.12 291.38 316.33 292.31 317.49 C 296.76 312.75 303.05 310.17 307.44 305.33 C 308.52 304.07 308.39 302.28 308.70 300.74 C 307.41 300.84 306.03 301.03 305.54 302.41 Z" />
</g>
<g id="#505158ff">
<path fill="#505158" opacity="1.00" d=" M 356.73 239.82 C 358.21 239.82 359.69 239.86 361.17 239.94 C 360.55 241.03 359.77 242.02 358.89 242.93 C 357.46 242.41 356.49 241.45 356.73 239.82 Z" />
</g>
<g id="#adb1bbff">
<path fill="#adb1bb" opacity="1.00" d=" M 332.96 245.98 C 335.23 244.57 337.51 243.19 339.80 241.83 C 341.83 245.00 344.61 247.89 345.54 251.63 C 342.05 251.53 339.41 249.03 336.59 247.31 C 335.48 251.41 333.29 256.59 328.20 256.36 C 327.49 254.50 326.76 252.65 326.03 250.81 C 327.29 249.83 328.60 248.90 329.91 247.99 C 330.93 247.33 331.95 246.66 332.96 245.98 Z" />
</g>
<g id="#e1dfe3ff">
<path fill="#e1dfe3" opacity="1.00" d=" M 313.74 246.91 C 314.22 246.69 315.19 246.25 315.67 246.03 C 315.77 247.50 315.83 248.98 315.68 250.45 C 315.20 250.63 314.23 251.01 313.75 251.19 C 313.78 249.76 313.78 248.34 313.74 246.91 Z" />
</g>
<g id="#7b8290ff">
<path fill="#7b8290" opacity="1.00" d=" M 274.74 247.27 C 281.47 247.75 288.21 247.94 294.94 247.57 C 295.34 247.78 296.12 248.21 296.51 248.42 C 297.21 249.59 297.86 250.79 298.50 252.00 C 291.15 251.65 283.82 252.96 276.50 252.34 C 275.85 250.67 275.22 248.99 274.74 247.27 Z" />
</g>
<g id="#e6e8eaff">
<path fill="#e6e8ea" opacity="1.00" d=" M 294.94 247.57 C 296.15 246.70 297.66 246.52 299.07 246.96 C 298.43 247.33 297.15 248.05 296.51 248.42 C 296.12 248.21 295.34 247.78 294.94 247.57 Z" />
</g>
<g id="#eddbafff">
<path fill="#eddbaf" opacity="1.00" d=" M 322.33 249.33 C 321.73 247.20 324.56 246.22 325.52 248.15 C 324.61 249.04 323.55 249.43 322.33 249.33 Z" />
</g>
<g id="#4c4c4cff">
<path fill="#4c4c4c" opacity="1.00" d=" M 351.14 250.83 C 352.65 249.69 354.13 248.50 355.66 247.37 C 356.12 248.32 356.59 249.28 357.06 250.24 C 355.21 255.98 352.71 261.99 347.61 265.60 C 344.89 267.39 342.26 269.34 340.13 271.83 C 340.94 269.31 340.67 266.11 337.64 265.34 C 333.29 264.49 329.80 268.29 326.19 270.16 L 325.20 270.33 C 325.10 265.98 329.87 264.98 332.08 262.01 C 335.29 258.02 339.76 254.71 345.05 254.48 C 345.59 257.07 346.25 259.64 347.15 262.13 C 349.61 259.90 351.36 257.02 352.48 253.91 C 352.03 252.88 351.58 251.85 351.14 250.83 Z" />
</g>
<g id="#62647bff">
<path fill="#62647b" opacity="1.00" d=" M 325.52 248.15 C 326.10 248.13 327.25 248.08 327.83 248.05 C 328.35 248.04 329.39 248.01 329.91 247.99 C 328.60 248.90 327.29 249.83 326.03 250.81 C 325.81 250.99 325.37 251.36 325.15 251.54 C 324.93 254.84 324.02 257.99 321.55 260.34 C 321.77 261.98 322.02 263.63 322.26 265.27 C 321.95 265.69 321.32 266.52 321.01 266.94 C 318.11 267.04 315.20 267.02 312.31 266.82 C 313.10 263.96 313.82 261.00 315.37 258.44 C 317.08 256.72 319.35 255.68 321.08 253.98 C 322.16 252.70 322.16 250.91 322.33 249.33 C 323.55 249.43 324.61 249.04 325.52 248.15 Z" />
</g>
<g id="#6e6e68ff">
<path fill="#6e6e68" opacity="1.00" d=" M 230.51 252.19 C 230.75 251.63 231.23 250.50 231.47 249.94 C 233.47 250.02 235.47 250.18 237.47 250.37 C 238.12 251.19 238.77 252.01 239.41 252.83 C 237.22 253.53 234.93 253.61 232.83 252.60 C 233.47 258.81 233.42 265.41 236.57 271.00 C 236.60 269.58 236.62 268.15 236.65 266.74 C 240.08 270.57 242.43 275.50 241.77 280.76 C 240.77 279.93 239.76 279.11 238.76 278.30 C 239.76 280.76 240.94 283.17 242.72 285.18 C 245.75 288.03 249.83 289.23 253.48 291.05 C 251.43 291.67 249.30 291.98 247.16 292.15 C 249.04 293.41 250.82 294.86 252.06 296.79 C 245.85 298.41 240.79 294.00 235.90 290.98 C 233.46 289.42 230.50 287.44 227.52 288.79 C 227.63 291.42 227.87 294.06 228.31 296.66 C 232.84 296.49 238.72 293.84 242.19 297.95 C 239.18 298.33 235.93 297.88 233.17 299.38 C 232.77 299.56 231.98 299.92 231.58 300.10 C 228.24 300.54 225.26 298.63 222.08 298.01 C 221.03 292.41 216.63 287.61 218.14 281.64 C 219.15 284.03 219.98 286.53 221.31 288.77 C 222.50 289.85 224.20 289.66 225.68 289.89 C 225.24 283.40 226.71 276.71 224.72 270.39 C 225.72 271.24 226.72 272.18 228.06 272.45 C 229.85 272.60 231.65 272.58 233.45 272.49 C 233.31 265.63 230.94 259.04 230.51 252.19 M 232.26 280.05 C 233.55 286.02 238.20 290.69 243.83 292.78 C 244.57 292.03 245.29 291.25 245.80 290.31 C 242.12 287.19 238.68 283.76 236.40 279.44 C 234.99 279.25 233.47 279.16 232.26 280.05 Z" />
</g>
<g id="#636262ff">
<path fill="#636262" opacity="1.00" d=" M 345.05 254.48 C 347.16 253.41 349.16 252.13 351.14 250.83 C 351.58 251.85 352.03 252.88 352.48 253.91 C 351.36 257.02 349.61 259.90 347.15 262.13 C 346.25 259.64 345.59 257.07 345.05 254.48 Z" />
</g>
<g id="#5e605eff">
<path fill="#5e605e" opacity="1.00" d=" M 225.34 252.89 C 226.44 259.38 227.79 265.85 228.06 272.45 C 226.72 272.18 225.72 271.24 224.72 270.39 C 223.73 269.35 221.95 268.55 220.83 269.87 C 218.54 273.31 218.45 277.65 218.14 281.64 C 216.63 287.61 221.03 292.41 222.08 298.01 L 221.26 297.80 C 219.74 296.30 218.44 294.51 216.59 293.38 C 212.28 292.42 207.80 292.10 203.39 292.19 C 201.14 292.08 199.65 293.89 198.18 295.29 C 194.12 294.48 190.04 293.69 185.93 293.14 C 182.77 292.13 182.42 288.75 181.96 285.94 C 186.47 288.47 190.85 293.26 196.52 291.43 C 197.32 285.55 197.64 279.62 198.86 273.80 C 195.71 273.12 192.46 273.35 189.29 272.85 L 188.71 272.16 C 192.59 271.72 196.46 271.17 200.27 270.30 C 208.37 268.75 216.56 267.46 224.83 267.56 C 225.41 265.85 225.19 264.04 225.10 262.28 C 225.09 259.15 225.24 256.02 225.34 252.89 Z" />
</g>
<g id="#dbd7ddff">
<path fill="#dbd7dd" opacity="1.00" d=" M 321.01 266.94 C 321.32 266.52 321.95 265.69 322.26 265.27 C 322.16 265.69 321.95 266.52 321.84 266.93 L 321.01 266.94 Z" />
</g>
<g id="#d09b7cff">
<path fill="#d09b7c" opacity="1.00" d=" M 326.19 270.16 C 329.80 268.29 333.29 264.49 337.64 265.34 C 340.67 266.11 340.94 269.31 340.13 271.83 C 337.01 276.15 334.08 280.61 331.20 285.10 C 330.81 285.54 330.04 286.41 329.65 286.85 C 329.57 287.20 329.42 287.89 329.35 288.23 C 328.92 288.64 328.08 289.45 327.66 289.85 C 327.57 290.20 327.39 290.89 327.30 291.23 C 326.88 291.63 326.03 292.44 325.61 292.84 C 325.53 293.19 325.37 293.88 325.30 294.23 C 324.87 294.63 324.02 295.43 323.60 295.83 C 323.52 296.17 323.37 296.86 323.30 297.21 C 322.89 297.62 322.07 298.45 321.66 298.86 C 321.55 299.18 321.33 299.83 321.22 300.15 C 320.87 300.62 320.16 301.56 319.80 302.03 C 319.18 302.91 318.58 303.80 318.00 304.71 C 315.66 303.21 314.19 300.93 313.96 298.15 C 313.70 297.03 313.45 295.92 313.20 294.81 C 312.55 294.52 311.25 293.93 310.59 293.63 C 310.96 290.53 311.16 287.34 310.37 284.29 C 312.03 283.07 313.72 281.91 315.46 280.82 C 317.07 279.84 318.57 278.67 319.82 277.26 C 321.96 274.90 324.15 272.59 326.19 270.16 Z" />
</g>
<g id="#85817aff">
<path fill="#85817a" opacity="1.00" d=" M 285.55 268.00 C 288.74 267.88 291.95 267.96 295.13 268.36 C 293.04 269.19 290.77 269.07 288.58 269.20 C 289.23 271.72 288.90 274.58 290.30 276.85 C 290.55 276.22 291.05 274.96 291.30 274.33 C 293.02 273.93 293.84 275.33 294.53 276.66 C 297.22 273.87 299.06 267.81 303.82 269.09 C 304.19 271.25 303.50 273.40 301.60 274.61 C 293.82 280.55 287.02 288.40 277.37 291.33 C 271.96 293.23 265.55 296.42 260.04 293.23 C 264.97 290.03 270.87 289.15 276.33 287.26 C 282.18 285.30 286.56 280.13 292.94 279.55 C 292.65 279.17 292.06 278.40 291.77 278.02 C 289.38 278.22 286.89 278.65 284.62 277.61 C 284.55 277.59 284.40 277.56 284.33 277.54 L 283.93 277.46 C 283.98 276.39 284.11 275.32 284.29 274.27 C 283.19 273.51 282.07 272.77 280.96 272.04 C 282.57 272.21 284.19 272.37 285.80 272.53 C 285.71 271.01 285.63 269.50 285.55 268.00 Z" />
</g>
<g id="#888981ff">
<path fill="#888981" opacity="1.00" d=" M 220.83 269.87 C 221.95 268.55 223.73 269.35 224.72 270.39 C 226.71 276.71 225.24 283.40 225.68 289.89 C 224.20 289.66 222.50 289.85 221.31 288.77 C 219.98 286.53 219.15 284.03 218.14 281.64 C 218.45 277.65 218.54 273.31 220.83 269.87 Z" />
</g>
<g id="#636462ff">
<path fill="#636462" opacity="1.00" d=" M 168.35 271.18 C 175.17 270.51 181.91 272.16 188.71 272.16 L 189.29 272.85 C 186.81 273.09 183.91 273.22 182.25 275.38 C 181.70 278.58 181.80 281.85 181.85 285.08 C 176.76 284.57 171.43 284.08 166.87 286.92 C 165.50 286.12 164.16 285.27 162.80 284.46 C 165.20 282.49 165.98 278.25 162.65 276.79 C 159.74 276.30 156.79 278.37 153.90 276.94 C 150.45 277.19 147.06 278.46 143.54 278.52 C 143.30 279.59 143.06 280.67 142.82 281.76 C 141.42 281.43 140.08 280.88 138.77 280.32 C 139.01 278.78 139.16 277.23 139.35 275.69 C 139.44 275.39 139.63 274.80 139.73 274.50 C 142.74 273.96 145.70 272.47 148.82 273.05 C 153.70 273.97 158.68 274.61 163.66 274.42 C 165.75 274.42 166.94 272.41 168.35 271.18 Z" />
</g>
<g id="#c4c4c7ff">
<path fill="#c4c4c7" opacity="1.00" d=" M 316.80 272.01 C 317.68 270.08 319.05 273.10 318.03 273.97 L 317.31 273.75 C 317.18 273.32 316.93 272.44 316.80 272.01 Z" />
</g>
<g id="#82857cff">
<path fill="#82857c" opacity="1.00" d=" M 182.25 275.38 C 183.91 273.22 186.81 273.09 189.29 272.85 C 192.46 273.35 195.71 273.12 198.86 273.80 C 197.64 279.62 197.32 285.55 196.52 291.43 C 190.85 293.26 186.47 288.47 181.96 285.94 L 181.85 285.08 C 181.80 281.85 181.70 278.58 182.25 275.38 Z" />
</g>
<g id="#868781ff">
<path fill="#868781" opacity="1.00" d=" M 312.27 276.14 C 313.73 275.19 315.55 275.79 317.13 276.09 C 318.03 276.47 318.93 276.86 319.82 277.26 C 318.57 278.67 317.07 279.84 315.46 280.82 C 313.77 280.39 312.08 279.96 310.40 279.53 C 310.95 278.37 311.35 277.08 312.27 276.14 Z" />
</g>
<g id="#8c8c90ff">
<path fill="#8c8c90" opacity="1.00" d=" M 143.54 278.52 C 147.06 278.46 150.45 277.19 153.90 276.94 C 156.79 278.37 159.74 276.30 162.65 276.79 C 165.98 278.25 165.20 282.49 162.80 284.46 C 159.99 283.51 157.05 283.06 154.11 282.73 C 150.33 282.41 146.65 280.66 142.82 281.76 C 143.06 280.67 143.30 279.59 143.54 278.52 Z" />
</g>
<g id="#f6f2f6ff">
<path fill="#f6f2f6" opacity="1.00" d=" M 284.33 277.54 C 284.40 277.56 284.55 277.59 284.62 277.61 L 284.33 277.54 Z" />
</g>
<g id="#7a7771ff">
<path fill="#7a7771" opacity="1.00" d=" M 256.84 278.75 C 262.13 277.65 267.59 278.66 272.86 277.45 C 273.02 278.04 273.34 279.22 273.49 279.82 C 267.45 283.74 259.32 284.46 252.87 281.26 C 254.17 280.38 255.48 279.52 256.84 278.75 Z" />
</g>
<g id="#40403fff">
<path fill="#40403f" opacity="1.00" d=" M 232.26 280.05 C 233.47 279.16 234.99 279.25 236.40 279.44 C 238.68 283.76 242.12 287.19 245.80 290.31 C 245.29 291.25 244.57 292.03 243.83 292.78 C 238.20 290.69 233.55 286.02 232.26 280.05 Z" />
</g>
<g id="#525252ff">
<path fill="#525252" opacity="1.00" d=" M 139.01 286.83 C 138.59 284.69 138.37 282.48 138.77 280.32 C 140.08 280.88 141.42 281.43 142.82 281.76 C 146.65 280.66 150.33 282.41 154.11 282.73 C 157.05 283.06 159.99 283.51 162.80 284.46 C 164.16 285.27 165.50 286.12 166.87 286.92 C 171.43 284.08 176.76 284.57 181.85 285.08 L 181.96 285.94 C 182.42 288.75 182.77 292.13 185.93 293.14 C 179.43 296.46 171.87 295.35 165.09 297.78 C 159.60 296.08 153.91 296.44 148.25 296.80 C 147.81 296.28 146.94 295.22 146.50 294.69 C 152.00 290.68 159.20 293.63 165.31 291.40 C 164.19 292.66 163.09 293.93 162.01 295.22 C 163.82 294.92 165.62 294.57 167.44 294.34 C 172.37 294.45 177.16 293.11 182.03 292.58 C 179.18 291.57 176.38 290.31 173.39 289.76 C 170.78 289.29 167.97 289.78 165.54 288.55 C 162.48 287.17 159.46 285.16 155.95 285.45 C 152.82 285.62 149.68 285.47 146.64 284.65 C 146.37 285.61 146.09 286.57 145.82 287.54 C 143.54 287.37 141.27 287.13 139.01 286.83 Z" />
</g>
<g id="#72746bff">
<path fill="#72746b" opacity="1.00" d=" M 295.97 282.97 C 297.31 281.42 299.04 280.32 300.99 279.68 C 304.08 283.63 305.91 288.71 305.81 293.75 C 304.92 294.53 304.08 295.37 303.09 296.02 C 297.94 299.13 293.12 302.75 288.28 306.32 C 284.70 306.78 281.02 307.00 277.46 306.31 C 276.79 304.43 276.25 302.49 275.31 300.72 C 274.09 298.67 271.10 298.45 270.13 296.22 C 274.94 293.75 280.47 293.01 285.14 290.20 C 288.82 287.90 293.10 286.38 295.97 282.97 Z" />
</g>
<g id="#494947ff">
<path fill="#494947" opacity="1.00" d=" M 243.80 282.01 C 247.61 281.76 250.80 284.36 254.55 284.61 C 257.25 285.16 262.00 284.58 261.79 288.55 C 259.03 289.41 256.26 290.24 253.48 291.05 C 249.83 289.23 245.75 288.03 242.72 285.18 C 243.08 284.12 243.44 283.06 243.80 282.01 M 246.23 283.25 C 246.79 283.81 246.79 283.81 246.23 283.25 Z" />
</g>
<g id="#d0cccfff">
<path fill="#d0cccf" opacity="1.00" d=" M 246.23 283.25 C 246.79 283.81 246.79 283.81 246.23 283.25 Z" />
</g>
<g id="#40403dff">
<path fill="#40403d" opacity="1.00" d=" M 146.64 284.65 C 149.68 285.47 152.82 285.62 155.95 285.45 C 159.46 285.16 162.48 287.17 165.54 288.55 C 167.97 289.78 170.78 289.29 173.39 289.76 C 176.38 290.31 179.18 291.57 182.03 292.58 C 177.16 293.11 172.37 294.45 167.44 294.34 C 166.74 293.35 166.02 292.37 165.31 291.40 C 159.20 293.63 152.00 290.68 146.50 294.69 C 144.25 291.80 140.12 290.61 139.01 286.83 C 141.27 287.13 143.54 287.37 145.82 287.54 C 146.09 286.57 146.37 285.61 146.64 284.65 Z" />
</g>
<g id="#624735b1">
<path fill="#624735" opacity="0.69" d=" M 329.65 286.85 C 330.04 286.41 330.81 285.54 331.20 285.10 C 330.81 285.54 330.04 286.41 329.65 286.85 Z" />
</g>
<g id="#593e2fb1">
<path fill="#593e2f" opacity="0.69" d=" M 327.66 289.85 C 328.08 289.45 328.92 288.64 329.35 288.23 C 328.92 288.64 328.08 289.45 327.66 289.85 Z" />
</g>
<g id="#543d2eaa">
<path fill="#543d2e" opacity="0.67" d=" M 325.61 292.84 C 326.03 292.44 326.88 291.63 327.30 291.23 C 326.88 291.63 326.03 292.44 325.61 292.84 Z" />
</g>
<g id="#1414129c">
<path fill="#141412" opacity="0.61" d=" M 165.31 291.40 C 166.02 292.37 166.74 293.35 167.44 294.34 C 165.62 294.57 163.82 294.92 162.01 295.22 C 163.09 293.93 164.19 292.66 165.31 291.40 Z" />
</g>
<g id="#484949ff">
<path fill="#484949" opacity="1.00" d=" M 203.39 292.19 C 207.80 292.10 212.28 292.42 216.59 293.38 C 218.44 294.51 219.74 296.30 221.26 297.80 C 213.54 297.92 205.45 298.37 198.18 295.29 C 199.65 293.89 201.14 292.08 203.39 292.19 Z" />
</g>
<g id="#7f7a78ff">
<path fill="#7f7a78" opacity="1.00" d=" M 310.59 293.63 C 311.25 293.93 312.55 294.52 313.20 294.81 C 313.45 295.92 313.70 297.03 313.96 298.15 C 312.60 298.07 311.24 297.99 309.89 297.92 C 310.13 296.49 310.38 295.06 310.59 293.63 Z" />
</g>
<g id="#4f382ba5">
<path fill="#4f382b" opacity="0.65" d=" M 323.60 295.83 C 324.02 295.43 324.87 294.63 325.30 294.23 C 324.87 294.63 324.02 295.43 323.60 295.83 Z" />
</g>
<g id="#2a2b28ff">
<path fill="#2a2b28" opacity="1.00" d=" M 303.09 296.02 C 305.08 295.47 307.16 295.34 309.22 295.26 C 308.46 296.71 308.11 299.14 306.03 299.11 C 301.81 299.12 298.73 302.21 295.49 304.46 C 293.33 306.12 290.75 307.55 289.69 310.20 C 288.72 313.07 285.27 313.35 282.79 314.12 C 282.25 310.27 285.74 308.37 288.28 306.32 C 293.12 302.75 297.94 299.13 303.09 296.02 Z" />
</g>
<g id="#513a2daa">
<path fill="#513a2d" opacity="0.67" d=" M 321.66 298.86 C 322.07 298.45 322.89 297.62 323.30 297.21 C 322.89 297.62 322.07 298.45 321.66 298.86 Z" />
</g>
<g id="#00000015">
<path fill="#000000" opacity="0.08" d=" M 231.58 300.10 C 231.98 299.92 232.77 299.56 233.17 299.38 C 237.13 299.13 241.10 299.20 245.06 299.18 C 249.16 299.04 252.89 301.19 256.98 301.19 C 261.18 301.18 265.33 300.12 269.56 300.44 C 271.67 303.23 272.14 306.90 274.41 309.58 C 275.97 311.71 278.50 313.45 278.63 316.33 C 278.75 319.03 280.56 321.10 282.70 322.56 C 285.57 323.98 288.74 324.65 291.56 326.18 L 292.04 326.90 C 289.91 326.67 287.70 326.21 285.61 326.91 C 285.84 329.34 286.28 331.81 285.83 334.25 C 285.52 336.50 283.66 338.01 282.33 339.70 C 282.44 342.08 283.20 344.46 283.02 346.84 C 280.89 350.68 281.57 355.21 280.52 359.35 C 280.04 361.52 278.54 363.38 278.48 365.65 C 278.31 368.90 277.96 372.14 277.39 375.35 C 276.76 378.74 277.60 382.16 277.52 385.58 C 276.47 385.57 275.42 385.56 274.37 385.56 C 274.89 387.43 275.37 389.32 275.84 391.22 C 274.65 391.54 273.48 391.88 272.30 392.21 C 272.97 393.40 273.65 394.60 274.34 395.79 C 272.90 396.19 271.47 396.60 270.05 397.03 C 271.95 398.72 274.09 400.11 276.28 401.42 C 274.41 402.43 272.39 403.09 270.35 403.65 C 270.86 405.31 271.49 406.96 271.70 408.70 C 270.84 410.74 269.69 412.64 268.70 414.62 C 269.65 415.25 270.60 415.89 271.55 416.54 C 271.44 416.87 271.21 417.53 271.09 417.86 C 270.09 418.27 269.09 418.67 268.08 419.08 C 267.88 422.83 269.44 426.47 268.95 430.22 C 268.46 433.99 267.96 437.77 267.60 441.56 C 268.86 441.64 270.13 441.71 271.40 441.80 C 270.21 442.28 269.01 442.77 267.82 443.26 C 270.48 445.99 268.04 449.62 268.44 452.85 C 268.93 455.68 270.38 458.23 270.90 461.06 C 270.24 464.83 268.41 468.31 267.98 472.16 C 269.30 472.26 270.63 472.37 271.96 472.49 C 272.67 475.70 269.03 475.85 266.87 476.58 C 266.39 478.52 265.98 480.48 265.65 482.46 C 267.63 482.67 270.04 482.58 270.96 484.76 C 269.69 486.61 268.53 488.54 267.46 490.51 C 269.79 493.62 272.65 496.61 273.61 500.48 C 273.24 503.98 271.80 507.35 271.94 510.93 C 271.23 511.28 270.52 511.64 269.81 512.00 L 232.11 512.00 C 231.75 510.09 231.47 508.18 231.26 506.27 C 232.22 505.54 233.19 504.81 234.14 504.07 C 233.98 502.06 235.87 500.08 234.52 498.22 C 232.48 499.40 230.37 500.50 228.12 501.22 C 228.85 499.73 229.22 497.68 230.95 497.00 C 232.54 496.58 234.19 496.48 235.83 496.31 C 235.41 494.58 234.83 492.86 234.73 491.09 C 235.57 488.74 237.07 486.53 236.76 483.92 C 236.50 480.59 237.47 477.36 237.58 474.08 C 235.83 471.47 232.83 469.15 233.57 465.63 C 235.16 464.85 236.78 464.11 238.27 463.15 C 239.77 461.25 239.88 458.67 240.39 456.39 C 238.36 457.23 236.36 458.37 234.10 458.31 C 236.24 455.06 240.71 452.89 240.69 448.57 C 240.88 446.96 239.72 445.71 238.96 444.43 C 240.08 443.49 241.21 442.57 242.34 441.64 C 241.75 441.05 241.16 440.46 240.58 439.88 C 241.08 438.29 241.64 436.72 241.95 435.08 C 241.23 432.39 239.45 430.10 238.89 427.37 C 238.91 425.81 240.27 424.68 241.02 423.41 C 240.28 421.75 239.61 420.06 238.94 418.37 C 240.16 417.46 241.38 416.55 242.60 415.65 C 241.46 414.46 240.33 413.27 239.20 412.08 C 240.32 410.78 241.43 409.47 242.53 408.16 C 241.87 407.12 241.21 406.08 240.55 405.04 C 240.87 403.53 241.94 402.00 241.56 400.46 C 239.92 399.62 238.10 399.19 236.43 398.41 C 237.40 398.14 238.37 397.88 239.35 397.64 C 238.93 395.30 237.63 393.31 236.21 391.46 C 237.37 391.02 238.52 390.59 239.68 390.16 C 238.70 385.48 237.57 380.76 235.13 376.59 C 236.59 376.42 238.06 376.25 239.52 376.10 C 240.12 371.40 238.96 366.75 237.78 362.24 C 238.67 363.19 239.57 364.15 240.47 365.10 C 240.44 359.98 239.85 354.90 238.83 349.90 C 238.99 346.63 240.92 343.55 240.06 340.19 C 240.92 339.80 241.78 339.41 242.64 339.04 C 242.03 332.19 242.33 325.30 241.38 318.48 C 241.07 315.17 242.01 311.86 241.49 308.57 C 241.20 306.57 239.16 305.69 237.83 304.44 C 238.50 303.03 239.18 301.62 239.86 300.22 C 237.10 300.10 234.34 300.04 231.58 300.10 Z" />
</g>
<g id="#563d2ea8">
<path fill="#563d2e" opacity="0.66" d=" M 319.80 302.03 C 320.16 301.56 320.87 300.62 321.22 300.15 C 320.87 300.62 320.16 301.56 319.80 302.03 Z" />
</g>
<g id="#848588ff">
<path fill="#848588" opacity="1.00" d=" M 305.54 302.41 C 306.03 301.03 307.41 300.84 308.70 300.74 C 308.39 302.28 308.52 304.07 307.44 305.33 C 303.05 310.17 296.76 312.75 292.31 317.49 C 291.38 316.33 290.52 315.12 289.69 313.90 C 291.10 312.38 293.54 312.55 295.12 311.19 C 298.67 308.35 303.34 306.64 305.54 302.41 Z" />
</g>
<g id="#3a3b3bff">
<path fill="#3a3b3b" opacity="1.00" d=" M 310.01 302.33 C 311.26 302.68 312.50 303.09 313.72 303.55 C 313.85 306.19 312.39 309.52 314.77 311.51 C 311.56 314.92 308.92 318.82 306.25 322.66 C 305.86 322.34 305.06 321.70 304.67 321.39 C 301.64 322.05 298.41 323.09 295.63 321.12 C 295.93 322.05 296.24 322.98 296.55 323.92 C 294.91 324.74 293.25 325.49 291.56 326.18 C 288.74 324.65 285.57 323.98 282.70 322.56 C 287.45 321.12 292.22 319.64 296.81 317.74 C 300.68 315.39 304.35 312.69 307.89 309.87 C 310.22 308.09 309.54 304.88 310.01 302.33 Z" />
</g>
<g id="#777573fe">
<path fill="#777573" opacity="1.00" d=" M 295.63 321.12 C 298.41 323.09 301.64 322.05 304.67 321.39 C 305.06 321.70 305.86 322.34 306.25 322.66 C 303.29 327.45 297.14 329.05 292.04 326.90 L 291.56 326.18 C 293.25 325.49 294.91 324.74 296.55 323.92 C 296.24 322.98 295.93 322.05 295.63 321.12 Z" />
</g>
</svg>
