<svg xmlns="http://www.w3.org/2000/svg" width="682.667" height="682.667" viewBox="0 0 512 512"  xmlns:v="https://vecta.io/nano"><path fill="#5c5d65" d="M149.37 92.44c1.22-1.59 3.27-3.05 5.37-2.44 2.07.87 3.7 2.46 5.37 3.91 3.74 3.43 7.75 6.58 12.03 9.31l.54.28a67.91 67.91 0 0 0 3.18-.22l-2.73 2.37c1.71 1.81 3.67 3.37 5.93 4.44l-1.95-4.7 2.36.25c.83.88 1.65 1.77 2.45 2.68l2.04 2.49-1.91.53c2.24 2.45 4.42 4.96 6.83 7.25 2.94 3.33 6.37 6.2 10.14 8.56-.54-3.63-2.4-6.84-5.07-9.31l1.28-.75c2.3 2.34 3.93 5.2 5.55 8.03 2.38.94 4.77 2.06 6.49 4.04l-.48.57c-2.96-.53-5.95-.66-8.94-.86-2.56-.06-4.14-2.38-5.94-3.86-1.87-1.97-4.55-2.73-6.73-4.24-.97-1.04-1.63-2.32-2.4-3.5-1.5-2.78-4.15-4.58-6.75-6.23-5.29-3.65-10.64-7.29-15.2-11.86-2.51-2.29-5.17-5-8.73-5.34-2.04.34-3.19 2.13-3.43 4.05l-.12.96c-.19-2.13-.73-4.62.82-6.41z"/><path fill="#a1a3a5" d="M148.67 97.89c.24-1.92 1.39-3.71 3.43-4.05 3.56.34 6.22 3.05 8.73 5.34 4.56 4.57 9.91 8.21 15.2 11.86l-.53 2.74c-2.38-.51-4.68-1.32-6.97-2.16-1.69-.73-3.56-1.22-4.92-2.52-1.56-1.44-3.06-3.04-5.09-3.82-3.9-1.56-6.54-4.96-9.85-7.39z"/><path fill="#899080" d="M148.67 97.89c3.31 2.43 5.95 5.83 9.85 7.39 2.03.78 3.53 2.38 5.09 3.82 1.36 1.3 3.23 1.79 4.92 2.52 1.65 2.82 3.9 5.21 6.74 6.85l.58 2.58-2.16 1.31-.62-.47c-1.33-1.01-2.66-2.04-4.08-2.91-2.07-1.41-4.85-.55-6.96-1.87-2.05-1.26-4.22-2.33-6.61-2.77l-.84-.23c-.6-1.61-1.25-3.21-2.06-4.73l5.03 1.38c-2.02-4.03-4.77-7.74-8.74-10.03l-.26-1.88.12-.96z"/><path fill="#74747a" opacity=".98" d="M173.2 98.23l4.09-.15 5.47 5.69-3.29 1.87-2.36-.25 1.95 4.7c-2.26-1.07-4.22-2.63-5.93-4.44l2.73-2.37-3.18.22-.54-.28 1.06-4.99m3.36 3.06c-1.02 1.23 1.22 2.36 2.01 1.25 1.01-1.24-1.23-2.36-2.01-1.25z"/><path fill="#343437" opacity=".59" d="M177.29 98.08c4.05 1.48 6.56 5.21 9.57 8.09l-2.18-.41-1.92-1.99-5.47-5.69z"/><path fill="#99a28d" opacity=".96" d="M148.81 100.73c3.97 2.29 6.72 6 8.74 10.03l-5.03-1.38c-1.9-2.55-3.45-5.4-3.71-8.65z"/><path fill="#aaa9b0" d="M176.56 101.29c.78-1.11 3.02.01 2.01 1.25-.79 1.11-3.03-.02-2.01-1.25z"/><path fill="#cfcdd5" d="M179.47 105.64l3.29-1.87 1.92 1.99-2.76 2.56-2.45-2.68z"/><path fill="#85858a" d="M184.68 105.76l2.18.41.94 1.05c.89 2 1.72 4.09 3.33 5.65 1.29 1.48 2.73 2.81 4.1 4.22l-1.28.75-1.97-1.39-8.02-5.64-2.04-2.49 2.76-2.56z"/><path fill="#3b3b3f" opacity=".65" d="M187.8 107.22c1.53 1.61 2.42 3.65 3.33 5.65-1.61-1.56-2.44-3.65-3.33-5.65z"/><path fill="#b3b9b1" d="M168.53 111.62c2.29.84 4.59 1.65 6.97 2.16a26.24 26.24 0 0 0-.23 4.69c-2.84-1.64-5.09-4.03-6.74-6.85z"/><path fill="#898d91" d="M176.03 111.04c2.6 1.65 5.25 3.45 6.75 6.23l-3.18.93-.65-1.35-2.2 3.16c3.42 4.01 7.21 7.71 11.57 10.69 4.21 2.73 6.16 7.75 10.45 10.37l.49 2.16-.16.73c-9.07-6.47-16.58-14.82-25.41-21.6l2.16-1.31c-.21-.86-.4-1.72-.58-2.58a26.24 26.24 0 0 1 .23-4.69l.53-2.74z"/><path fill="#424144" opacity=".92" d="M182.05 111.34l1.91-.53 8.02 5.64c-.94.84-1.98 1.56-3.1 2.14-2.41-2.29-4.59-4.8-6.83-7.25z"/><path fill="#3f4143" opacity=".8" d="M154.58 114.11l.84.23c4.16 7.03 11.41 11.3 17.44 16.56l2.46-1.69c.22 1.44.44 2.88.59 4.34l-1 1.51-3.07-2.94c-4.33-4.36-9.36-7.91-13.9-12.04-1.81-1.52-2.58-3.82-3.36-5.97z"/><path fill="#9ea1a2" d="M155.42 114.34c2.39.44 4.56 1.51 6.61 2.77 2.11 1.32 4.89.46 6.96 1.87 1.42.87 2.75 1.9 4.08 2.91l-.9 1.86 2.83 3.05-2.73.22.59 3.88c-6.03-5.26-13.28-9.53-17.44-16.56z"/><path fill="#aab0a4" d="M178.95 116.85l.65 1.35c2.98 6.18 9.19 9.7 14.36 13.84 2.15 3.43 4.87 6.49 7.93 9.13a88.34 88.34 0 0 0-2.63 2.06l-.49-2.16c-4.29-2.62-6.24-7.64-10.45-10.37-4.36-2.98-8.15-6.68-11.57-10.69l2.2-3.16z"/><path fill="#a6a8b3" d="M179.6 118.2l3.18-.93c.77 1.18 1.43 2.46 2.4 3.5 2.18 1.51 4.86 2.27 6.73 4.24 1.8 1.48 3.38 3.8 5.94 3.86l8.94.86-4.92 6.37c-2.56-1.5-5.26-2.73-7.91-4.06-5.17-4.14-11.38-7.66-14.36-13.84z"/><path fill="#bac3ad" d="M172.17 123.75l.9-1.86.62.47c8.83 6.78 16.34 15.13 25.41 21.6.65.74 1.29 1.49 1.92 2.26l1.38 1.62-1.81 1.28c-1.16-.82-2.31-1.64-3.43-2.51-4.3-4.27-9.13-7.91-13.78-11.77-2.84-2.64-5.65-5.31-8.38-8.04-.97-1-1.9-2.03-2.83-3.05z"/><path fill="#7a8175" d="M172.27 127.02l2.73-.22c2.73 2.73 5.54 5.4 8.38 8.04l-2.31 3.23c-1.55-1.69-3.19-3.33-5.16-4.52-.15-1.46-.37-2.9-.59-4.34l-2.46 1.69-.59-3.88z"/><path fill="#807f83" d="M207.27 129.16c2.07 2.69 4.3 5.26 6.56 7.8a68.83 68.83 0 0 0-1.54 1.94l.62.93c.64.96 1.57 1.39 2.77 1.29-.63 2.27-2.53 3.7-4.69 4.4.66-1.62-2.02-4-2.71-1.69a76.86 76.86 0 0 1 .37 1.62c-2.22.05-4.35-.58-6.54-.82.71-1.23 1.41-2.47 1.91-3.79-.19-1.77-1.25-3.27-2.15-4.74 1.69-2.09 3.3-4.23 4.92-6.37l.48-.57z"/><path opacity=".75" d="M171.84 132.12l3.07 2.94c4 3.71 8.41 6.94 12.3 10.78 2.09 2.22 4.97 3.26 7.8 4.19l3.52 3.18c-1.55 1.23-3.21 2.29-4.9 3.31 1.47 1.33 2.75 3.8 5.11 3.14 3.23-.93 4.41-4.46 5.86-7.13l1.41 1.44c2.01 2.96 4.47 5.53 7.02 8.02 5.06 5.29 6.62 14.04 13.97 16.97 1.34.56 2.73 1 4.11 1.48.12 1.74.25 3.48.29 5.22l-6 .29-7.36-6.2c-1.96 1.25-3.93 2.54-6.11 3.4-1.44-.32-2.15-1.75-3.1-2.73l4.23-4.5c-3.4-1.78-6.84-3.56-9.89-5.91-.74-1.89-1.21-4.03-2.74-5.47-1.7-1.74-4.28-1.86-6.48-2.54-4.9-3.69-9.28-8.02-13.83-12.1-4.25-5.02-7.77-11.1-8.28-17.78z"/><path fill="#5a5c5d" d="M193.96 132.04l7.91 4.06c.9 1.47 1.96 2.97 2.15 4.74-.5 1.32-1.2 2.56-1.91 3.79l-1.09 1.59-1.92-2.26.16-.73 2.63-2.06c-3.06-2.64-5.78-5.7-7.93-9.13z"/><path fill="#767d71" d="M174.91 135.06l1-1.51c1.97 1.19 3.61 2.83 5.16 4.52l2.31-3.23c4.65 3.86 9.48 7.5 13.78 11.77l-4.15.21 2 3.21c-2.83-.93-5.71-1.97-7.8-4.19-3.89-3.84-8.3-7.07-12.3-10.78z"/><path fill="#75787b" d="M213.83 136.96c2.91 3.87 5.33 8.2 9.47 10.95.51 1.72.8 3.5 1.07 5.27-2.57-2.13-4.88-4.54-7.27-6.86-1.9-.95-3.4.39-4.8 1.56l-5.26-.64c.63.98 1.26 1.96 1.94 2.92l-1.08 2.17c-1.81-1.53-3.75-2.9-5.5-4.49l-1.38-1.62 1.09-1.59c2.19.24 4.32.87 6.54.82l2.34.07c2.16-.7 4.06-2.13 4.69-4.4 1.01-1.65-1.88-2.63-2.77-1.29a50.05 50.05 0 0 1-.62-.93 68.83 68.83 0 0 1 1.54-1.94z"/><path fill="#cfced8" d="M212.91 139.83c.89-1.34 3.78-.36 2.77 1.29-1.2.1-2.13-.33-2.77-1.29z"/><path fill="#b9b9bf" d="M208.28 143.83c.69-2.31 3.37.07 2.71 1.69l-2.34-.07-.37-1.62z"/><path fill="#6d7364" d="M193.01 146.82l4.15-.21 3.43 2.51-2.06 4.09-3.52-3.18-2-3.21z"/><path fill="#808488" d="M212.3 147.88c1.4-1.17 2.9-2.51 4.8-1.56l-3.42 1.87c2.93 3.01 6.03 5.84 9.79 7.78l.9-2.79.73.95c1.36-.17 2.74-.56 4.12-.31 1.59.87 2.66 2.41 3.98 3.62-1.62-.67-3.25-1.33-4.83-2.1-1.13.92-2.38 1.74-3.28 2.9-.16 1.64.44 3.21.97 4.73-3.23-6.18-9.31-9.92-13.76-15.09z"/><path fill="#a2a799" d="M207.04 147.24l5.26.64c4.45 5.17 10.53 8.91 13.76 15.09l.99 2.09c.36.97.71 1.95 1.03 2.94-2-.18-4-.37-5.97-.75.09-2.83.25-5.78-.8-8.48l-.2-.28c-3.92-2.97-8.65-4.79-12.13-8.33-.68-.96-1.31-1.94-1.94-2.92z"/><path fill="#9999a5" d="M213.68 148.19l3.42-1.87 7.27 6.86-.9 2.79c-3.76-1.94-6.86-4.77-9.79-7.78z"/><path fill="#9d9ca9" d="M202.4 147.84c1.75 1.59 3.69 2.96 5.5 4.49 4.28 4.28 9.21 7.89 13.14 12.52l-2.12.41c-4.03-4.06-8.26-7.94-12.91-11.29l-1.41-1.44c-1.45 2.67-2.63 6.2-5.86 7.13-2.36.66-3.64-1.81-5.11-3.14 1.69-1.02 3.35-2.08 4.9-3.31.74-1.34 1.4-2.72 2.06-4.09l1.81-1.28m-5.52 11.36c2.57-.08 3.88-2.25 5.1-4.18-2.04.88-5.04 1.39-5.1 4.18z"/><path fill="#454447" d="M223.3 147.91c2.37 1.95 4.55 4.3 7.5 5.38 3.6 1.37 7.5 2.06 10.78 4.18 2.55 1.63 4.31 4.15 6.41 6.26l-3.21 2.23 2.83 2.95.89.92c4.08 3.52 8.08 7.27 10.59 12.14-2.96-.46-5.07-2.48-6.88-4.69-2.87-1.96-6.22-3.3-8.65-5.86-1.75-1.83-3.28-3.85-5.03-5.67.8-1.62 1.52-3.28 2.25-4.92-1.91-.92-3.82-1.81-5.78-2.62l-1.8-.77c-1.32-1.21-2.39-2.75-3.98-3.62-1.38-.25-2.76.14-4.12.31l-.73-.95c-.27-1.77-.56-3.55-1.07-5.27z"/><path fill="#888f7f" d="M208.98 150.16c3.48 3.54 8.21 5.36 12.13 8.33l.2.28c1.05 2.7.89 5.65.8 8.48l-2.17-.93a51.02 51.02 0 0 1-1.02-1.06l2.12-.41c-3.93-4.63-8.86-8.24-13.14-12.52l1.08-2.17z"/><path fill="#606363" d="M206.01 153.97c4.65 3.35 8.88 7.23 12.91 11.29a51.02 51.02 0 0 0 1.02 1.06c1.56 1.77 3.09 3.57 4.78 5.21 1.04.98 2.09 1.94 3.22 2.82a82.76 82.76 0 0 1 1.26 4.93l-2.2-.32c-7.35-2.93-8.91-11.68-13.97-16.97-2.55-2.49-5.01-5.06-7.02-8.02z"/><path fill="#c0beca" d="M196.88 159.2c.06-2.79 3.06-3.3 5.1-4.18-1.22 1.93-2.53 4.1-5.1 4.18z"/><path fill="#8dc6d4" d="M225.09 158.24c.9-1.16 2.15-1.98 3.28-2.9l4.83 2.1 1.8.77.48 2.08c-2.97 1.29-5.77 2.92-8.43 4.77l-.99-2.09c-.53-1.52-1.13-3.09-.97-4.73m.57.83l1.08 1.37c.72 1.56 2.27-.11 3.32-.27l-1.23-3.1-3.17 2z"/><path fill="#e8ffff" d="M225.66 159.07l3.17-2 1.23 3.1c-1.05.16-2.6 1.83-3.32.27l-1.08-1.37z"/><path fill="#d9dbd2" d="M221.11 158.49l.2.28-.2-.28z"/><path fill="#6f6f6f" d="M235 158.21l5.78 2.62-2.25 4.92-1.83.12 1.18-2.92c-4.52 2.7-7.7 7.54-13.16 8.58-1.69-1.64-3.22-3.44-4.78-5.21l2.17.93c1.97.38 3.97.57 5.97.75-.32-.99-.67-1.97-1.03-2.94 2.66-1.85 5.46-3.48 8.43-4.77l-.48-2.08z"/><path opacity=".53" d="M193.95 162c2.2.68 4.78.8 6.48 2.54 1.53 1.44 2 3.58 2.74 5.47-3.23-2.49-6.16-5.33-9.22-8.01z"/><path fill="#acadad" d="M224.72 171.53c5.46-1.04 8.64-5.88 13.16-8.58l-1.18 2.92a19.58 19.58 0 0 0-1.2 4.88l.33 2.8.04.56c.15 1.58.11 3.37 1.29 4.61 2.35 2.85 5.46 5.13 8.99 6.29l.93 3.74-1.69-.37c-3.3-2.77-6.78-5.31-9.97-8.2-2.25-2.25-4.81-4.13-7.48-5.83-1.13-.88-2.18-1.84-3.22-2.82z"/><path fill="#636261" d="M244.78 165.96l3.21-2.23 1.93 1.39-2.31 3.79-2.83-2.95z"/><path fill="#aa7c61" opacity=".95" d="M249.92 165.12c4.94 3.32 10.36 5.82 15.89 8.01 2.32 1.14 4.72 2.1 7.18 2.93 5.81 2.52 11.41 5.51 17.36 7.7l-.92 1.62c-10.58-4.08-21.09-8.41-31.02-13.91-2.39-1.21-4.73-2.68-7.37-3.25-.87.51-1.71 1.05-2.54 1.61a75.99 75.99 0 0 1-.89-.92c.74-1.28 1.53-2.53 2.31-3.79z"/><path fill="#9092a2" d="M236.7 165.87l1.83-.12 5.03 5.67c2.43 2.56 5.78 3.9 8.65 5.86l-.28.54-5.82 2.95c-3.41-2.24-6.07-5.81-10.24-6.66l-.04-.56c1.47-.95 3.27-1.67 3.82-3.5a143.64 143.64 0 0 0-4.15.7 19.58 19.58 0 0 1 1.2-4.88z"/><path fill="#d6a283" d="M248.5 169.83l2.54-1.61c2.64.57 4.98 2.04 7.37 3.25 9.93 5.5 20.44 9.83 31.02 13.91-1.07 1.74-2.2 3.46-3.66 4.89-1.22.64-2.46 1.22-3.67 1.86-2.65 1.17-5.42 3.8-8.46 2.27-2.74-.79-3.94-3.56-5.47-5.69-2.67-2.7-5.88-4.75-9.08-6.74-2.51-4.87-6.51-8.62-10.59-12.14z"/><path fill="#696c79" d="M235.5 170.75l4.15-.7c-.55 1.83-2.35 2.55-3.82 3.5l-.33-2.8z"/><path fill="#593f2f" opacity=".66" d="M265.81 173.13c2.45.82 4.86 1.76 7.18 2.93-2.46-.83-4.86-1.79-7.18-2.93z"/><path fill="#bbbeca" d="M235.87 174.11c4.17.85 6.83 4.42 10.24 6.66l.88 4.02-.84.22c-3.53-1.16-6.64-3.44-8.99-6.29-1.18-1.24-1.14-3.03-1.29-4.61z"/><path fill="#414442" opacity=".96" d="M229.2 179.28l-1.26-4.93c2.67 1.7 5.23 3.58 7.48 5.83l-.72 2.1c-.99.25-1.56-.67-2.21-1.22l-1.38-.62-4.11-1.48 2.2.32z"/><path fill="#939691" d="M252.21 177.28c1.81 2.21 3.92 4.23 6.88 4.69 3.2 1.99 6.41 4.04 9.08 6.74h-2.72c-3.5-2.42-7.91-2.5-11.68-4.31-1.54-.89-3.31-.7-4.93-.17l-.93.27c1.71-1.99 2.94-4.31 4.02-6.68l.28-.54z"/><path fill="#d2cfda" d="M246.11 180.77l5.82-2.95c-1.08 2.37-2.31 4.69-4.02 6.68l-.92.29-.88-4.02z"/><path fill="#5f5f60" d="M231.11 180.44l1.38.62c.65.55 1.22 1.47 2.21 1.22l.72-2.1c3.19 2.89 6.67 5.43 9.97 8.2a119.75 119.75 0 0 0-4.73.91c2.19 1.51 4.78 2.03 7.42 1.93l-2.07 1.02 2.07 2.58 2.61-1.61c.11 1.2.17 2.4.23 3.6l2.14-.91.17 1.66c.35 3.16.11 6.55 1.47 9.5 1.49 1.34 3.1 2.56 4.81 3.63-3.11.19-6.25.41-9.35-.09-1.2-.35-2.39-.73-3.56-1.14l-.05-.32c-.24-2.12-.39-4.25-.41-6.38-1.1 2.19-2.28 4.66-4.85 5.36-.29-2.29-.68-4.58-.72-6.89-.11-1.8 1.19-3.23 1.96-4.73l5.39.29-2.39-2.33c-3-2.69-5.86-5.53-8.7-8.38l3.7-1.06c-2.05-.48-4.09-1.04-6.11-1.64l.51 2.57c-.64 1.38-1.27 2.77-1.82 4.2l-3.79.01-3.72-.05c2.17-1.14 4.15-2.63 5.8-4.45-.04-1.74-.17-3.48-.29-5.22m18.48 27.89c.05 1.53 3.72 1.52 3.79 0-1-.88-2.8-.88-3.79 0z"/><path fill="#525252" d="M248.84 184.23c1.62-.53 3.39-.72 4.93.17 3.77 1.81 8.18 1.89 11.68 4.31-.12 2.96.34 5.89.7 8.83.47 2.95-.82 5.79-2.08 8.38l-1.1 1.94-4.13-3.64c.94 2.63 1.84 5.6 4.26 7.27 3.08 1.26 6.31 2.23 9.14 4.06-1.41 2.26-3.29 4.14-5 6.16-.96-2.24-1.9-4.49-2.71-6.79-.05 2.94-.7 5.81-1.85 8.51-.56-4.34-1.46-8.69-3.17-12.74-1.71-1.07-3.32-2.29-4.81-3.63-1.36-2.95-1.12-6.34-1.47-9.5 3.36 1.85 6.43 4.13 9.5 6.41.63-4.23 1.23-8.54.69-12.82.05-1.27-.76-2.29-1.83-2.87-1.72.1-3.41.41-5.1.64-1.56-1.39-3.3-2.57-5.31-3.19l-2.36-.76.02-.74z"/><path fill="#4c5341" d="M234.42 183.38l6.11 1.64-3.7 1.06-1.9-.13-.51-2.57z"/><path fill="#616379" d="M246.99 184.79l.92-.29.93-.27-.02.74c-.09 1.17-.51 3.22 1.17 3.42 1.36.03 1.64-1.68 1.19-2.66 2.01.62 3.75 1.8 5.31 3.19l5.1-.64c1.07.58 1.88 1.6 1.83 2.87.54 4.28-.06 8.59-.69 12.82-3.07-2.28-6.14-4.56-9.5-6.41l-.17-1.66c-.44-2.03-.39-4.46-1.92-6.03-1.31-.51-2.7-.8-4.06-1.12-.33-1.24-.63-2.49-.93-3.74l.84-.22z"/><path fill="#605e5f" d="M289.43 185.38l.92-1.62 5.02.88 2.25 2.41c-2.62 1.16-5.4 1.89-8.25 2.15l1.04 4.51c3.96-.3 8.52-.97 11.59 2.19l8.13 7.43c1.85 2.96.54 6.31.2 9.46.53 2.53 2.1 4.68 3.3 6.94l-.53.5c-1.01.1-2.45.89-3.16-.22-2.23-2.44-2.98-5.74-3.86-8.82l-.26-.86 2.29.67 1.28-2.11c-3.34-4.66-7.55-8.63-12.03-12.18-1.79-1.49-4.22-1.42-6.4-1.67-1.83-1.48-3.57-3.07-5.19-4.77 1.46-1.43 2.59-3.15 3.66-4.89z"/><path fill="#383b37" opacity=".88" d="M225.4 185.95l6-.29c-1.65 1.82-3.63 3.31-5.8 4.45l-1.08.04-1.77.07 2.65-4.27z"/><path fill="#868896" d="M248.82 184.97l2.36.76c.45.98.17 2.69-1.19 2.66-1.68-.2-1.26-2.25-1.17-3.42z"/><path fill="#6c7087" d="M233.11 190.15l1.82-4.2 1.9.13c2.84 2.85 5.7 5.69 8.7 8.38a98.99 98.99 0 0 1-3 2.04l-.7.16-1.34-2.78-.18-.38-.42-.04c-2.58-.26-5.17-.38-7.75-.51l.97-2.8z"/><path fill="#3d3e3e" d="M297.62 187.05c3.64 1.98 7.52 3.5 11.1 5.59.35 1.78.7 3.56 1.17 5.32-2.31-2.47-5.23-4.19-8.4-5.3l.51 3.24c-3.07-3.16-7.63-2.49-11.59-2.19l-1.04-4.51c2.85-.26 5.63-.99 8.25-2.15z"/><path fill="#4e4f5d" d="M240.66 189.29l4.73-.91 1.69.37c1.36.32 2.75.61 4.06 1.12 1.53 1.57 1.48 4 1.92 6.03l-2.14.91-.23-3.6-.91-2-1.7.01c-2.64.1-5.23-.42-7.42-1.93z"/><path fill="#5f5d56" d="M265.45 188.71h2.72c1.53 2.13 2.73 4.9 5.47 5.69 3.04 1.53 5.81-1.1 8.46-2.27l.27 1.53c.42 1.88 1.27 3.65 2.53 5.13-6.33 1.42-12.12 4.86-18.71 5.15 4.91 3.9 10.14 7.44 14.6 11.87l1.07 1.27c4.17 4.6 6.71 10.31 10.23 15.36 1.05-2.31 2.02-4.74 3.7-6.68 1.58-1.37 3.51-2.22 5.32-3.21-.45-1.4-.79-2.84-1.41-4.17-1.99-2.44-5.29-3.33-7.33-5.73-2.57-3.31-3.72-7.4-5.45-11.16l1.83-4.95 1.39.48c2.6.82 5.4 1.44 7.46 3.38 3.15 2.89 6.75 5.75 8.22 9.93l.26.86c-1.45.2-3.08 1.15-4.44.17-4.55-2.82-7.48-7.92-12.82-9.51 2.12 4.16 6.01 6.88 9.11 10.24 2.73 2.92 6.07 5.15 9.53 7.12-.48 1.9-.95 3.81-1.53 5.68-2.68 3.41-6.16 6.07-9.44 8.85-1.32.7-2.68 1.32-4.02 1.96l-.1 2.14c-3.34-5.13-5.22-11.18-9.42-15.73-5.68-6.07-12.2-11.27-18.88-16.19 1.26-2.59 2.55-5.43 2.08-8.38-.36-2.94-.82-5.87-.7-8.83z"/><path fill="#5f637a" d="M213.24 193.27c2.85-1.82 6.14-2.87 9.51-3.05l1.77-.07 1.84 1.54c1.26.54 2.07-.94 2.96-1.53l3.79-.01-.97 2.8 7.75.51.6.42 1.34 2.78c-3.19.15-5.93 1.61-8 4-2.47 1.12-5.13 1.66-7.77 2.18l-1.87-8.35-1.34-3.37-9.61 2.15z"/><path fill="#898a99" d="M224.52 190.15l1.08-.04 3.72.05c-.89.59-1.7 2.07-2.96 1.53l-1.84-1.54z"/><path fill="#7a7a7a" d="M282.1 192.13l3.67-1.86c1.62 1.7 3.36 3.29 5.19 4.77l-.82 1.98-1.39-.48-6.38-2.88-.27-1.53z"/><path fill="#8c8c8d" d="M213.24 193.27l9.61-2.15 1.34 3.37c-4.61.81-8.71 3.1-12.38 5.92-.6-2.39-1.21-5.72 1.43-7.14z"/><path fill="#706f7f" d="M248.08 191.22l1.7-.01.91 2-2.61 1.61-2.07-2.58 2.07-1.02z"/><path fill="#b9b7c2" d="M239.89 193.46l.42.04.18.38-.6-.42z"/><path fill="#2a2a2a" d="M301.49 192.66c3.17 1.11 6.09 2.83 8.4 5.3l2.33 2.13-2.09 3.24-8.13-7.43-.51-3.24z"/><path fill="#605e5d" d="M309.89 197.96l-1.17-5.32 5.29 3.38 1.97 6.81-3.76-2.74-2.33-2.13z"/><path fill="#393834" d="M284.9 198.79c-1.26-1.48-2.11-3.25-2.53-5.13l6.38 2.88-1.83 4.95-2.02-2.7z"/><path fill="#585952" d="M211.81 200.41c3.67-2.82 7.77-5.11 12.38-5.92.78 2.74 1.31 5.55 1.87 8.35 2.64-.52 5.3-1.06 7.77-2.18l.17.89c-2.1 1.43-4.35 2.62-6.53 3.93-1.41-.11-3.12-1.2-4.38-.16-2.77 2.83-3.83 6.91-3.42 10.8 1.6-1.89 3.15-3.84 4.5-5.91-1.04 4.46-.46 9.04-.68 13.57-.41 1.32-.89 2.62-1.37 3.93l2.72 2.17-1.59 3.14 2.16 3.91c-2.2 3.22-3.65 6.87-4.78 10.58l-.77-.17c-.06-2.88.05-5.75.13-8.63.13-3.6-.19-7.2-.43-10.79l-1.41.48c-1.52.55-3.15.89-4.49 1.82-1.69 1.76-2.84 3.93-4.22 5.92-1.21-2.74-.43-5.62.38-8.34l-5.21-1.22c2.06-2.57 4.45-4.86 6.44-7.49 1.78-2.27 2.22-5.2 3.04-7.89l.04 3.16c2.94-2.72 3.81-6.68 4.6-10.44-.73.67-1.45 1.34-2.14 2.04l-4.78-5.55m6.06-.37l5.01-.09-.05-2.9c-1.85.65-3.55 1.61-4.96 2.99z"/><path fill="#a5a5ab" d="M242.53 196.5l3-2.04 2.39 2.33-5.39-.29z"/><path fill="#8a8b8f" d="M290.96 195.04c2.18.25 4.61.18 6.4 1.67 4.48 3.55 8.69 7.52 12.03 12.18l-1.28 2.11-2.29-.67c-1.47-4.18-5.07-7.04-8.22-9.93-2.06-1.94-4.86-2.56-7.46-3.38l.82-1.98z"/><path fill="#4a4a49" d="M314.01 196.02l2.27 1.89c.07 7.3.96 15.14-2.65 21.82-1.2-2.26-2.77-4.41-3.3-6.94.34-3.15 1.65-6.5-.2-9.46l2.09-3.24c1.22.96 2.49 1.85 3.76 2.74l-1.97-6.81z"/><path fill="#6c6964" d="M217.87 200.04c1.41-1.38 3.11-2.34 4.96-2.99l.05 2.9-5.01.09z"/><path fill="#6c6c6d" d="M233.83 200.66c2.07-2.39 4.81-3.85 8-4l.7-.16c-.77 1.5-2.07 2.93-1.96 4.73.04 2.31.43 4.6.72 6.89l-5.76.67-1.53-7.24-.17-.89z"/><path opacity=".07" d="M316.28 197.91c1.45 2.13 2.45 4.71 4.49 6.37 2.62 1.13 5.49 1.77 8.35 1.78 2.42-.32 4.5-1.8 6.84-2.45 1.67.33 3.03 1.48 4.49 2.32l2.53-.98 8.74 2.15c2.36.55 3.72 2.75 5.3 4.39l2.15-1.06 3.48 2.2-.02-4.54c1.06 1.22 2.45 2.06 3.78 2.98l3.53-.3c2.49.68 4.66 2.32 7.27 2.61 2.4.3 4.77.87 6.94 1.98l.18-1.83-3.34-2.89c2.02.23 4.27-.04 6.04 1.18 1.23 1.01 2.05 2.4 2.99 3.67 1.34-.67 2.67-1.4 4.1-1.89 2.38.63 4.11 2.63 6.36 3.58 1.78.21 3.6-.45 5.35-.02.58 1.03 1.04 2.13 1.53 3.22l3.48-3.69 3.36 5.39 2.23-2.23c2.48.46 4.88 1.32 7.01 2.69l5.46-2.38 3.43 2.52c4.23-.63 8.51-1.1 12.62-2.35-.97 1.32-1.92 2.65-2.85 4l2.27 1.16 4.46-5.45 2.05 4.92 3.96-3.07 3.26 2.98 1.85-3.68 4.06 1.56 3.1-3.78c1.24 2.43 1.77 5.88 4.66 6.93 3.27 1.38 6.61-.57 9.72-1.52a109.98 109.98 0 0 0-1.05-5.47l4.54 3.57c2.23-.55 4.48-1.29 6.81-1.17 1.91.84 2.98 2.84 4.36 4.32l2.63-3.66 3.26 4.17 2.73-1.82-1.32-2.51 1.29-.52c2.45 1.93 4.96 3.79 7.26 5.9v37.85c-2.96-3.13-7.48-3.44-11.51-3.78-5.05-.15-10.09 1.05-15.13.11-1.46 1.15-2.88 2.39-4.51 3.3-1.78-.22-3.47-.8-5.17-1.32-.4-1.31.12-3.33-1.42-3.94-1.12.54-2.17 1.2-3.23 1.84-1.95-.05-3.89-.16-5.82-.35-1.37-.79-2.7-1.64-4.08-2.38-1.05.85-1.97 1.82-2.92 2.77l-1.9-3.38-2.6 3.12c-3.11-1.02-6.17-2.22-9.32-3.1-3.12-1.05-5.85 1.48-8.46 2.8l-.5-4.8c-3.79 1.01-7.68 2.57-11.65 1.82-6.76-.94-13.59-2.54-20.42-1.19l-2.66-3.44-2.18-.08.14 4.71-3.96-1.44-.55 1.66c-1.68-1.46-3.37-2.97-5.35-4.01-2.3.2-4.44 1.14-6.6 1.87-.14-1.63-.18-3.28-.01-4.91l-5.07 1.77 1.62 2.5-.95 1.9c-2.71-2.06-5.29-4.29-7.49-6.89l-1.28 2.81-5.77-3.57c-3 2.33-6.99 3.43-10.71 2.42-2.04-1.14-3.33-3.44-5.54-4.22-2.32.25-4.51 1.13-6.74 1.79-1.15-.53-2.26-1.25-3.52-1.47-3.1 0-6.16 1.23-9.25.54-3.25-.69-6.31-2.03-9.44-3.12l-3.18 2.03c-1.54-.19-3.2-.93-4.69-.19-1.93.81-2.36 3.02-3.27 4.68-.82 1.96-2.23 3.56-3.68 5.07l-1.19-2.17c-.72-4.06-.82-8.27-2.33-12.15l-2.08-3.03-1.14-5.88c3.28-2.78 6.76-5.44 9.44-8.85.84-1 1.59-2.12 2.63-2.92 1.22-.38 2.48-.62 3.7-.99l.84-.75.53-.5c3.61-6.68 2.72-14.52 2.65-21.82z"/><path fill="#75766d" d="M266.19 203.94c6.59-.29 12.38-3.73 18.71-5.15.69.88 1.36 1.78 2.02 2.7 1.73 3.76 2.88 7.85 5.45 11.16 2.04 2.4 5.34 3.29 7.33 5.73.62 1.33.96 2.77 1.41 4.17-1.81.99-3.74 1.84-5.32 3.21-1.68 1.94-2.65 4.37-3.7 6.68-3.52-5.05-6.06-10.76-10.23-15.36 2.17-1.03 4.46-1.89 6.35-3.41.5-1.51.53-3.13.71-4.69-1.95.56-4.2.68-5.74 2.14-1.39 1.19-1.84 3.03-2.39 4.69-4.46-4.43-9.69-7.97-14.6-11.87z"/><path fill="#88877f" d="M227.47 205.48l6.53-3.93 1.53 7.24 5.76-.67c2.57-.7 3.75-3.17 4.85-5.36.02 2.13.17 4.26.41 6.38l-.58.09c-3.73.1-7.41.68-11.06 1.42 2.21.02 4.43.03 6.64.16l-.23 2.82-7.06-1.33-1.84 3.33-1.53-2.85c-1.34 2.08-2.92 4.1-3.61 6.51-.43 2.31.11 4.66.43 6.95-1.44-.75-2.83-1.62-4.22-2.46.22-4.53-.36-9.11.68-13.57 1.04-1.62 2.11-3.22 3.3-4.73z"/><path fill="#292926" d="M288.82 201.85c5.34 1.59 8.27 6.69 12.82 9.51 1.36.98 2.99.03 4.44-.17.88 3.08 1.63 6.38 3.86 8.82.71 1.11 2.15.32 3.16.22l-.84.75c-1.22.37-2.48.61-3.7.99-1.04.8-1.79 1.92-2.63 2.92.58-1.87 1.05-3.78 1.53-5.68-3.46-1.97-6.8-4.2-9.53-7.12-3.1-3.36-6.99-6.08-9.11-10.24z"/><path fill="#6b6e6f" opacity=".98" d="M216.59 205.96l2.14-2.04c-.79 3.76-1.66 7.72-4.6 10.44l-.04-3.16c.46-1.9 1.45-3.61 2.5-5.24z"/><path fill="#737472" d="M223.09 205.32c1.26-1.04 2.97.05 4.38.16-1.19 1.51-2.26 3.11-3.3 4.73-1.35 2.07-2.9 4.02-4.5 5.91-.41-3.89.65-7.97 3.42-10.8z"/><path fill="#87837b" d="M258.84 204.22l4.13 3.64 1.1-1.94c6.68 4.92 13.2 10.12 18.88 16.19 4.2 4.55 6.08 10.6 9.42 15.73l-1.28 4.83c-2.86-2.98-4.88-6.57-6.43-10.37-2.02-5.08-6.14-8.84-8.95-13.44l-1.36-2.16-2.11-1.15c-2.83-1.83-6.06-2.8-9.14-4.06-2.42-1.67-3.32-4.64-4.26-7.27z"/><path fill="#838387" d="M249.59 208.33c.99-.88 2.79-.88 3.79 0-.07 1.52-3.74 1.53-3.79 0z"/><path fill="#44474f" d="M234.91 210.65c3.65-.74 7.33-1.32 11.06-1.42.15.06.47.18.63.23 1.17.41 2.36.79 3.56 1.14l-1.9 1.18-.03 2.82-3.86-.29c.81-1.04.54-3.34-1.08-3.3l-1.74-.2c-2.21-.13-4.43-.14-6.64-.16z"/><path d="M245.97 209.23l.58-.09.05.32-.63-.23zm3 18.4l-.03-.4.03.4zm-1.63 7.09l.52-.05-.52.05z" fill="#fff"/><path fill="#888982" d="M283.18 211.12c1.54-1.46 3.79-1.58 5.74-2.14-.18 1.56-.21 3.18-.71 4.69-1.89 1.52-4.18 2.38-6.35 3.41l-1.07-1.27c.55-1.66 1-3.5 2.39-4.69z"/><path fill="#9e9b92" d="M241.55 210.81l1.74.2c-.2 1.12-.05 2.2.45 3.26.54 2.34.86 4.73.92 7.13l-2.27-.99c-2.18-1.08-4.62-1.28-7.02-1.22l-.18 5.46c2.69.6 5.54 1.07 8.09-.32l1 1.83-.23 2.37-1.91 1.67c-2.56 3.31-5.15 6.74-9.01 8.62-.07-3.39-.23-6.78-.74-10.13-1.49-.96-3.08-1.72-4.68-2.45-.32-2.29-.86-4.64-.43-6.95.69-2.41 2.27-4.43 3.61-6.51l1.53 2.85 1.84-3.33 7.06 1.33.23-2.82z"/><path fill="#b3b2b2" d="M243.29 211.01c1.62-.04 1.89 2.26 1.08 3.3l-.63-.04c-.5-1.06-.65-2.14-.45-3.26z"/><path fill="#838079" d="M248.26 211.78l1.9-1.18c3.1.5 6.24.28 9.35.09 1.71 4.05 2.61 8.4 3.17 12.74l-.5 1.38c-1.7 3.42-1.41 7.24-.98 10.92l-.79 3.44-1.06-4.27c-.53 3.59-.7 7.24-1.5 10.79-.85 3.55-4.15 5.65-7.22 7.12 1.35-3.07 2.68-6.26 2.74-9.68.13-4.36.87-8.68.85-13.04-.59-3.22-3.61-5.6-3.69-9-.28-3.21.38-6.88-2.27-9.31z"/><path fill="#918f87" d="M248.26 211.78c2.65 2.43 1.99 6.1 2.27 9.31.08 3.4 3.1 5.78 3.69 9 .02 4.36-.72 8.68-.85 13.04-.06 3.42-1.39 6.61-2.74 9.68-4.92 1.4-10.2 2.06-15.23.87-1.87-.52-4.21-1.46-4.46-3.68-1.34-7.07-.12-14.37 1.45-21.31.51 3.35.67 6.74.74 10.13 3.86-1.88 6.45-5.31 9.01-8.62l-.22 5.22 2.15-.31c1.09-.15 2.18-.28 3.27-.39.13-.01.39-.04.52-.05l1.45-.12c.03-2.31-.17-4.62-.34-6.92l-.03-.4-.71-12.63.03-2.82z"/><path fill="#787d8d" d="M243.74 214.27l.63.04 3.86.29.71 12.63.03.4.34 6.92-1.45.12-.52.05-3.27.39-.02-6.58.23-2.37.38-4.76c-.06-2.4-.38-4.79-.92-7.13z"/><path fill="#727272" d="M264.53 214.92l2.71 6.79c1.71-2.02 3.59-3.9 5-6.16l2.11 1.15 1.36 2.16c-.35 3.55-1.16 7.01-2.08 10.45l-2.22-3.13a186.97 186.97 0 0 1-3.21 5.04l.38-5.96-6.4-.45.5-1.38c1.15-2.7 1.8-5.57 1.85-8.51z"/><path fill="#8d8981" d="M235.37 219.19c2.4-.06 4.84.14 7.02 1.22l.89 3.92c-2.55 1.39-5.4.92-8.09.32l.18-5.46z"/><path fill="#585857" d="M273.63 229.31c.92-3.44 1.73-6.9 2.08-10.45 2.81 4.6 6.93 8.36 8.95 13.44 1.55 3.8 3.57 7.39 6.43 10.37l1.28-4.83c2.07 3.25.9 7.07 1.11 10.64 1.45 1.97 3.11 3.79 5 5.35l-5.15-.82-1.17-.15a19.78 19.78 0 0 0-1.52 1.37c-.63-2.09-1.21-4.19-1.78-6.29-1.02.63-2.05 1.23-3 1.95-1.67 2.85-1.99 6.25-2.57 9.44 2.25-.54 4.42-1.43 5.96-3.24-.58 1.63-1.06 3.29-1.56 4.94l-2.33 1.62-.6 2.16 3.59-1.63.61 3.08c-.54.48-1.06.99-1.56 1.52-2.61 1-5.05 2.35-7.26 4.05-1.49-.75-2.83-2.64-4.68-2.07-3.11.97-5.69 3.07-8.43 4.76l4.16.8c-5.66 3.2-12.37 3.04-18.45 5.04 1.1.29 2.2.56 3.31.82-3.2.65-6.15 2.07-9.01 3.58l1.44 2.97-1.28.56c-1.82-.88-3.66-1.7-5.56-2.37l.76-.26c2.9-.77 4.65-3.2 4.78-6.13l1.81-.38-.47-3.11 2.6 2.23c.94-2.58 1.6-5.53 3.91-7.28 3.51-2.81 7.41-5.06 11.12-7.59 2.64.12 5.27.38 7.92.52-4.36 3.65-9.87 5.45-14.3 8.99 1.62.33 3.24.74 4.91.82 1.62-1.05 2.97-2.46 4.57-3.55 1.89-1.24 4.2-1.72 6.04-3.05.91-1.27 1.53-2.7 2.34-4.02.57-.91 1.18-1.78 1.79-2.65.01-2.31.01-4.62-.14-6.93.59-1.26 1.46-2.46 1.49-3.89.3-5.55-1.73-11.23-5.83-15.05-.27 5.21 1.66 10.17 2.17 15.31-1.96-2.74-4.65-5.42-4.7-9.02l-.16-10.08-4.82 2.26-1.88-6.96c-.77 1.36-1.62 2.7-2.14 4.18.07 1.34.31 2.67.51 4.01l3.46.49c-1.15 1.9-2.54 3.78-3.04 5.98.35.85.77 1.66 1.18 2.49-.88 1.12-1.83 2.18-2.73 3.29l-.5.63a311.64 311.64 0 0 0-1.09-11.44c-.43-3.68-.72-7.5.98-10.92l6.4.45-.38 5.96 3.21-5.04 2.22 3.13m-.38.96v.45l.45-.01v-.44h-.45z"/><path fill="#b8bbbf" d="M242.39 220.41l2.27.99-.38 4.76-1-1.83-.89-3.92z"/><path fill="#6e6f6b" d="M222.12 227.71l1.37-3.93 4.22 2.46c1.6.73 3.19 1.49 4.68 2.45-1.57 6.94-2.79 14.24-1.45 21.31.25 2.22 2.59 3.16 4.46 3.68 5.03 1.19 10.31.53 15.23-.87 3.07-1.47 6.37-3.57 7.22-7.12.8-3.55.97-7.2 1.5-10.79l1.06 4.27.79-3.44a311.64 311.64 0 0 1 1.09 11.44 123.21 123.21 0 0 1-3.69 8.81l1.4.94c-.96 1.22-1.84 2.5-2.74 3.76-3.95-1.27-8.1-1.89-12.24-1.52-4.83.43-9.6-.55-14.32-1.4-1.39-1.44-2.7-2.94-4.14-4.32 2.94-.15 2.25-3.38 2.71-5.42l-3.13.12-.4 4.63c-.03 1.77-.22 3.85 1.24 5.16 2.83 2.92 6.13 5.39 8.66 8.61 4.23.29 8.83.62 12.39-2.14l-2.26-.33c3.38-1.85 7.39-1.42 10.97-2.68 1.51-.02 3.03.07 4.55.15-.04-1.91-.03-3.82 0-5.72 1.92-.89 4-1.36 6.08-1.74-.32 3.72-2.62 6.61-5.23 9.08-3.84.26-8.03.83-10.89 3.65l-1.62 1.99c-4.85.21-9.68-.28-14.46-1 1.59 1.77 3.15 3.58 4.82 5.29-3.39-1.8-6.88-3.67-9.36-6.68-4.54-5.56-8.34-11.85-10-18.9 1.13-3.71 2.58-7.36 4.78-10.58l-2.16-3.91 1.59-3.14-2.72-2.17z"/><path fill="#414241" d="M263.41 230.28c.52-1.48 1.37-2.82 2.14-4.18l1.88 6.96 4.82-2.26.16 10.08c.05 3.6 2.74 6.28 4.7 9.02l2.17 3.63c.15 2.31.15 4.62.14 6.93-.61.87-1.22 1.74-1.79 2.65l-3.56.81-7.92-.52-4.01-.24c2.61-2.47 4.91-5.36 5.23-9.08-2.08.38-4.16.85-6.08 1.74l-1.29 1.1-1.4-.94a123.21 123.21 0 0 0 3.69-8.81l.5-.63 2.68 5.45c1.41-1.42 3.32-2.55 4.05-4.48.72-4.29.02-8.62.08-12.92-1.24 2.94-2.52 5.87-4.08 8.66-.41-.83-.83-1.64-1.18-2.49.5-2.2 1.89-4.08 3.04-5.98l-3.46-.49c-.2-1.34-.44-2.67-.51-4.01z"/><path fill="#626360" d="M203.26 234.82c-.36-2.85-.99-6.02 1.35-8.24l5.21 1.22c-.81 2.72-1.59 5.6-.38 8.34 1.38-1.99 2.53-4.16 4.22-5.92 1.34-.93 2.97-1.27 4.49-1.82-1.53 4.46-1.18 9.24.07 13.72l1.77-3.41c-.08 2.88-.19 5.75-.13 8.63l-1.67-.33c.96 4.25 2.22 8.49 4.52 12.24 2.05 3.32 3.47 7.04 5.84 10.15 2.43 1.73 5.31 2.66 7.9 4.12 3.24 1.79 6.53 3.47 9.97 4.85l-.22-2.5 2.32.17.47 3.11-1.81.38c-3.43.43-6.43 2.23-8.33 5.13l3.55 1-.76.26c-1.75-.03-3.49-.03-5.24.01 1.28 1.4 2.59 2.78 3.91 4.15l-4.29-.93c-1.08-1.36-1.92-3.17-3.7-3.75-1.92-.75-4.03-.67-6.05-.7-3.52-3.42-6.46-7.38-9.99-10.79-4.01-3.73-7.34-8.14-9.55-13.17-.87-1.48-1.82-2.91-2.73-4.36-2.64 3.62-4.64 8.05-8.73 10.29-2.04.5-4.12.84-6.19 1.21l.14 1.78c-.77-1.23-1.48-2.5-2.18-3.75.91-3.36 1.39-6.87 2.92-10.03.88-2.09 3.43-1.43 5.2-1.48l-1.79 2.89c1.21.66 2.29 1.59 3.61 2.04 2.28-.93 4.68-2.38 5.65-4.74.24-3.21-.81-6.36-.71-9.57.61-3.38 2.15-6.7 1.34-10.2m2.13 11.15c-.36 6.49 3.18 12.24 5.7 17.96 3.05 7.71 10.35 12.39 16.45 17.52 2.13 1.57 4.59 4.23 7.45 2.67-1.96-1.91-3.55-4.19-5.66-5.94-1.86-1.27-3.92-2.31-5.28-4.16-2.5-3.18-6.46-5.31-7.61-9.41-1.17-3.9-4.37-6.75-5.54-10.64-1.25-3.95-2.16-8-3.46-11.94-.95 1.15-2.13 2.32-2.05 3.94z"/><path fill="#858583" d="M218.15 228.4l1.41-.48c.24 3.59.56 7.19.43 10.79-.56 1.15-1.17 2.28-1.77 3.41-1.25-4.48-1.6-9.26-.07-13.72z"/><path fill="#a4a6a9" d="M242.14 230.2l1.91-1.67c-.14 2.19-.09 4.38.02 6.58l-2.15.31.22-5.22z"/><path fill="#919094" d="M273.25 230.27h.45v.44l-.45.01v-.45z"/><path fill="#4c4a48" d="M292.47 235.7l4.02-1.96 1.14 5.88-.82 3.2 1.28 2.52 1.62-2.69c1.51 3.88 1.61 8.09 2.33 12.15.26 5.41-.75 10.77-.72 16.18-1.44.07-2.21.79-2.31 2.17.74 1.81 2.62-.28 2.57-1.46 2.38 5.04 1.73 10.7 2.58 16.06.29 1.96.5 4-.27 5.9l-.6-3.59c-.5-4.06-1.31-8.08-2.08-12.09-.45.24-1.34.74-1.79.99-2.67-1.1-3.69-3.91-4.82-6.32 1.4-1.87 3.13-3.73 3.35-6.17.51-2.59-.38-5.14-.92-7.65l-2.82.07-2.27 4.05a105.71 105.71 0 0 1 .1-3.98l1.29-5.95 5.15.82c-1.89-1.56-3.55-3.38-5-5.35-.21-3.57.96-7.39-1.11-10.64l.1-2.14m6.7 12.13c-.53 4.49-.59 9.33 1.7 13.39.83-4.49.97-9.46-1.7-13.39z"/><path fill="#434340" d="M203.26 234.82c.81 3.5-.73 6.82-1.34 10.2-.1 3.21.95 6.36.71 9.57-.97 2.36-3.37 3.81-5.65 4.74-1.32-.45-2.4-1.38-3.61-2.04l1.79-2.89c2.19.14 4.39.34 6.58.53-.36-3.27-1.01-6.53-.96-9.84.37-3.52 1.87-6.8 2.48-10.27z"/><path fill="#605f5e" d="M269.6 234.59c-.06 4.3.64 8.63-.08 12.92-.73 1.93-2.64 3.06-4.05 4.48l-2.68-5.45 2.73-3.29c1.56-2.79 2.84-5.72 4.08-8.66z"/><path fill="#817d76" d="M274.94 234.59c4.1 3.82 6.13 9.5 5.83 15.05-.03 1.43-.9 2.63-1.49 3.89-.7-1.23-1.43-2.43-2.17-3.63-.51-5.14-2.44-10.1-2.17-15.31z"/><path fill="#6a6664" opacity=".92" d="M296.81 242.82l.82-3.2 2.08 3.03-1.62 2.69-1.28-2.52z"/><path fill="#8a877d" d="M205.39 245.97c-.08-1.62 1.1-2.79 2.05-3.94 1.3 3.94 2.21 7.99 3.46 11.94 1.17 3.89 4.37 6.74 5.54 10.64 1.15 4.1 5.11 6.23 7.61 9.41 1.36 1.85 3.42 2.89 5.28 4.16 2.11 1.75 3.7 4.03 5.66 5.94-2.86 1.56-5.32-1.1-7.45-2.67-6.1-5.13-13.4-9.81-16.45-17.52-2.52-5.72-6.06-11.47-5.7-17.96z"/><path fill="#8f8c84" d="M218.19 247.01l1.67.33.77.17c1.66 7.05 5.46 13.34 10 18.9 2.48 3.01 5.97 4.88 9.36 6.68 1.97 1.11 4.04 2.07 6.21 2.78l.22 2.5c-3.44-1.38-6.73-3.06-9.97-4.85-2.59-1.46-5.47-2.39-7.9-4.12-2.37-3.11-3.79-6.83-5.84-10.15-2.3-3.75-3.56-7.99-4.52-12.24z"/><path fill="#4b4d4d" d="M226.14 248.14l3.13-.12c-.46 2.04.23 5.27-2.71 5.42l-.82-.67.4-4.63z"/><path fill="#444443" d="M285.86 249.89c.95-.72 1.98-1.32 3-1.95l1.78 6.29-1.39 1.86c-1.54 1.81-3.71 2.7-5.96 3.24.58-3.19.9-6.59 2.57-9.44z"/><path fill="#7d7a78" d="M299.17 247.83c2.67 3.93 2.53 8.9 1.7 13.39-2.29-4.06-2.23-8.9-1.7-13.39z"/><path fill="#888780" d="M292.16 252.86l1.17.15-1.29 5.95-1.95 3.12-2.4-1.05 1.56-4.94 1.39-1.86a19.78 19.78 0 0 1 1.52-1.37z"/><path fill="#848586" d="M225.74 252.77l.82.67 4.14 4.32c2.48 2.5 5.36 4.76 8.76 5.85 2.05.55 4.21.36 6.31.46l2.26.33c-3.56 2.76-8.16 2.43-12.39 2.14-2.53-3.22-5.83-5.69-8.66-8.61-1.46-1.31-1.27-3.39-1.24-5.16z"/><path fill="#838383" d="M260 256.92l1.29-1.1v5.72l-4.55-.15.52-.71 2.74-3.76z"/><path fill="#81827a" d="M195.27 266.67c4.09-2.24 6.09-6.67 8.73-10.29l2.73 4.36c-2.35.38-4.98.82-6.03 3.29 2.11 3.32 4.29 6.61 6.69 9.73 1.12 1.83 3.44 1.26 5.23 1.4l1.52 1.71 2.14-2.96c3.53 3.41 6.47 7.37 9.99 10.79l-1.19 1.16c-5.36 2.61-11.39 3-17.24 3.32l-4.72-10.3c-2.15-4.36-5.17-8.18-7.85-12.21z"/><path fill="#524c44" d="M230.7 257.76c4.72.85 9.49 1.83 14.32 1.4 4.14-.37 8.29.25 12.24 1.52l-.52.71c-3.58 1.26-7.59.83-10.97 2.68-2.1-.1-4.26.09-6.31-.46-3.4-1.09-6.28-3.35-8.76-5.85z"/><path fill="#6a6a64" d="M290.09 262.08l1.95-3.12-.1 3.98 2.27-4.05 2.82-.07c.54 2.51 1.43 5.06.92 7.65-.22 2.44-1.95 4.3-3.35 6.17-2.05 1.78-1.78 4.39-1.27 6.78l2.87.47c-1.14 1.28-2.2 2.65-3.58 3.69-1.95 1.01-4.14 1.35-6.25 1.89l1.51-3.68-.85-1.65c-1.99.97-4.08 1.81-5.86 3.15.02 1.04-.03 2.08-.15 3.13 2.57.23 5.19.3 7.72.9l5.33 2.49c2.08.46 4.22.53 6.34.72l-.24-2.73.59 6.69c1.42-1.1 2.4-2.61 2.53-4.43l.6 3.59c-1.92 5.28-.81 10.99-1.28 16.47-.15-3.65-.53-7.28-.79-10.93l-2.57-.32c-2.97-.28-5.97-.2-8.95-.08l4.16-5c-5.79-1.91-12.2-3.24-18.19-1.5-2.04.35-2.61 3.36-1.28 4.74 2.29 1.37 4.9 2.08 7.47 2.7-3.24.56-6.5.93-9.78 1.2-1-3.86-2.2-7.92-.36-11.75.58-2.05 1.02-4.15 1.24-6.27-.05-1.11-.1-2.23-.38-3.31-.21-1.53-2.12-1.43-3.22-1.83 2.19-.27 4.41-.32 6.62-.38l3.57-2.93.93 3.87c5.74-1.86 9.54-6.81 11.87-12.14l-2.2-1.29-1.79 1.36-.61-3.08-3.59 1.63.6-2.16 2.33-1.62 2.4 1.05z"/><path fill="#989990" d="M200.7 264.03c1.05-2.47 3.68-2.91 6.03-3.29 2.21 5.03 5.54 9.44 9.55 13.17l-2.14 2.96-1.52-1.71c-1.79-.14-4.11.43-5.23-1.4-2.4-3.12-4.58-6.41-6.69-9.73z"/><path fill="#333535" d="M251.25 266.81c2.86-2.82 7.05-3.39 10.89-3.65 1.33.05 2.67.15 4.01.24-3.71 2.53-7.61 4.78-11.12 7.59-2.31 1.75-2.97 4.7-3.91 7.28l-2.6-2.23c.96-3.67 3.78-6.23 6.76-8.36l-4.03-.87z"/><path fill="#66645f" d="M274.07 263.92l3.56-.81-2.34 4.02c-1.84 1.33-4.15 1.81-6.04 3.05-1.6 1.09-2.95 2.5-4.57 3.55-1.67-.08-3.29-.49-4.91-.82 4.43-3.54 9.94-5.34 14.3-8.99z"/><path fill="#414140" d="M288.96 266.26l1.79-1.36 2.2 1.29c-2.33 5.33-6.13 10.28-11.87 12.14l-.93-3.87a41.38 41.38 0 0 0 7.25-6.68c.5-.53 1.02-1.04 1.56-1.52z"/><path fill="#7e8083" d="M187.04 265.91l2.18 3.75 3.27 5c2.12 4.1 5.97 6.69 9.84 8.97.64 1.81 1.15 3.67 1.72 5.51l-.83-.11c-1.81-1.36-3.49-2.87-5.18-4.36-1.53.37-3.06 1.43-4.66 1.07-1.95-1.1-3.1-3.12-4.4-4.86l-.23-1.57 4.35 2.64c-2.25-4.98-5.5-9.41-7.91-14.3l1.85-1.74z"/><path fill="#3d3c38" d="M189.08 267.88l6.19-1.21c2.68 4.03 5.7 7.85 7.85 12.21 1.66 3.39 3.19 6.85 4.72 10.3.73 1.71 1.41 3.45 2.01 5.23a62.8 62.8 0 0 0-1.23 1.07c-1.91-1.82-4.09-3.59-4.57-6.34-.57-1.84-1.08-3.7-1.72-5.51-1.93-4.63-4.17-9.47-8.56-12.26l-1.28 3.29-3.27-5-.14-1.78z"/><path fill="#464644" d="M251.25 266.81l4.03.87c-2.98 2.13-5.8 4.69-6.76 8.36l-2.32-.17c-2.17-.71-4.24-1.67-6.21-2.78-1.67-1.71-3.23-3.52-4.82-5.29 4.78.72 9.61 1.21 14.46 1l1.62-1.99z"/><path fill="#7a7a72" d="M280.14 271.83c2.21-1.7 4.65-3.05 7.26-4.05a41.38 41.38 0 0 1-7.25 6.68l-3.57 2.93-6.62.38c-4.61 1.26-9.15 2.8-13.91 3.41l-3.31-.82c6.08-2 12.79-1.84 18.45-5.04l-4.16-.8c2.74-1.69 5.32-3.79 8.43-4.76 1.85-.57 3.19 1.32 4.68 2.07z"/><path fill="#444645" d="M183.84 278.38c-.31-3.37-1.51-7.28.97-10.13-.46 2.52-.72 5.2.22 7.64.88 2.6 2.34 4.93 3.79 7.25 2.09 3.21 2.41 7.13 3.76 10.65-1.51 1.15-2.92 2.43-4.16 3.87-.82 4.32-.37 8.74.39 13.04-1.21-2.39-1.48-5.06-1.52-7.69.06-4.19-2.64-7.82-2.63-12-.08-4.22-.13-8.45-.82-12.63z"/><path fill="#6b6e6e" d="M184.81 268.25l.38-.6c2.41 4.89 5.66 9.32 7.91 14.3l-4.35-2.64.23 1.57c-1.28-1.69-2.67-3.3-3.95-4.99-.94-2.44-.68-5.12-.22-7.64z"/><path fill="#857f79" d="M299.01 273.15c.1-1.38.87-2.1 2.31-2.17l.26.71c.05 1.18-1.83 3.27-2.57 1.46z"/><path fill="#59554f" d="M193.77 271.37c4.39 2.79 6.63 7.63 8.56 12.26-3.87-2.28-7.72-4.87-9.84-8.97l1.28-3.29z"/><path fill="#5a5955" d="M293.33 279.42c-.51-2.39-.78-5 1.27-6.78 1.13 2.41 2.15 5.22 4.82 6.32 0 2.97.49 5.9.75 8.84l.24 2.73c-2.12-.19-4.26-.26-6.34-.72-1.85-.68-3.52-1.74-5.33-2.49-2.53-.6-5.15-.67-7.72-.9.12-1.05.17-2.09.15-3.13 1.78-1.34 3.87-2.18 5.86-3.15l.85 1.65-1.51 3.68c2.11-.54 4.3-.88 6.25-1.89 1.38-1.04 2.44-2.41 3.58-3.69l-2.87-.47z"/><path fill="#565756" d="M185.03 275.89l3.95 4.99c1.3 1.74 2.45 3.76 4.4 4.86 1.6.36 3.13-.7 4.66-1.07l5.18 4.36-.25 6.76-5.27-2.36c1.53 1.95 2.85 4.22 5.01 5.56 2.82.23 5.69-.67 8.54-.06l-.96 5.32-1.82-3.47c-2.58.52-5.23.39-7.77-.27.17 3.51.44 7.02 1 10.5l-.48 1.47c4.63.3 9.22-.72 12.96-3.56l.89 3.24c-.74 3.05-.81 6.21-.51 9.33-2.24 1.45-4.41 2.99-6.55 4.58-4.64.14-9.3-.06-13.85-1.03l-1.34-1.91c5.79.14 11.59.9 17.38.1l-.32-4.4c-3.25.73-6.46 1.77-9.79 2.07-3.62-.69-6.04-3.84-9.21-5.47a60.52 60.52 0 0 0-1.32.22c-.75 2.42 1.01 4.55 2.16 6.52-1.07-.92-2.19-1.78-3.16-2.8-.46-2.51.51-5 .95-7.45a24.21 24.21 0 0 1 3.79 2.4c-.3-2.03-.95-3.97-1.93-5.76l-2.29 2.77-.27-.63c-.76-4.3-1.21-8.72-.39-13.04l4.3 1.18 1.52-1.87-1.66-3.18c-1.35-3.52-1.67-7.44-3.76-10.65-1.45-2.32-2.91-4.65-3.79-7.25z"/><path fill="#3f413f" d="M256.05 281.18c4.76-.61 9.3-2.15 13.91-3.41 1.1.4 3.01.3 3.22 1.83.28 1.08.33 2.2.38 3.31-6.62.99-13.17 2.34-19.69 3.84l4.34.67c-3.62.46-7.23.97-10.79 1.76l-.22-.89 1.28-.56-1.44-2.97c2.86-1.51 5.81-2.93 9.01-3.58z"/><path fill="#7f7c7b" d="M299.42 278.96l1.79-.99c.77 4.01 1.58 8.03 2.08 12.09-.13 1.82-1.11 3.33-2.53 4.43l-.59-6.69c-.26-2.94-.75-5.87-.75-8.84z"/><path fill="#3d4040" d="M238.85 284.66c1.9-2.9 4.9-4.7 8.33-5.13-.13 2.93-1.88 5.36-4.78 6.13l-3.55-1z"/><path fill="#585954" d="M253.87 286.75c6.52-1.5 13.07-2.85 19.69-3.84-.22 2.12-.66 4.22-1.24 6.27a74.85 74.85 0 0 0-2.41-2.31c-3.9-.73-7.82.21-11.7.55l-4.34-.67z"/><path fill="#494b4b" d="M226.27 284.7c2.02.03 4.13-.05 6.05.7 1.78.58 2.62 2.39 3.7 3.75-2.01-.21-4.03-.31-6.04-.29l-4.06.85c-1.06 3.28-1.95 6.64-3.35 9.81-1.08 2.74-3.96 3.95-6.33 5.36l-3.02-.62c-3.1 3.36-7.06 5.72-11.52 6.75-.56-3.48-.83-6.99-1-10.5 2.54.66 5.19.79 7.77.27l1.82 3.47c.26-1.79.6-3.56.96-5.32a32.7 32.7 0 0 0-2.63-3.45 62.8 62.8 0 0 1 1.23-1.07c1.54.21 3.08.5 4.62.79l-1.64 2.44c1.39.44 2.78.91 4.22 1.17 2.22-.12 4.34-1.46 5.56-3.3.04-1.23-.02-2.46-.02-3.68-1.02 1.46-2.29 2.72-3.97 3.39.72-3.94 3.79-6.64 6.46-9.36l1.19-1.16z"/><path fill="#64615b" d="M207.84 289.18c5.85-.32 11.88-.71 17.24-3.32-2.67 2.72-5.74 5.42-6.46 9.36 1.68-.67 2.95-1.93 3.97-3.39 0 1.22.06 2.45.02 3.68-1.22 1.84-3.34 3.18-5.56 3.3-1.44-.26-2.83-.73-4.22-1.17l1.64-2.44c-1.54-.29-3.08-.58-4.62-.79-.6-1.78-1.28-3.52-2.01-5.23z"/><path fill="#72746d" d="M236.4 285.93l5.24-.01c1.9.67 3.74 1.49 5.56 2.37l.22.89c-2.32.58-4.69 1.3-7.11.9l-3.91-4.15z"/><path fill="#040404" opacity=".74" d="M269.91 286.87l2.41 2.31c-1.84 3.83-.64 7.89.36 11.75.56 6.7 1.55 13.35 2.55 20l1.53-.69c-.52 5.35.41 10.65 1 15.95-.68 4.55-.78 9.14-.11 13.69-1.16 8.12 1.6 16.14.62 24.25-.28-3.59-3.25-6.41-3.01-10.08l.13-19.08c-.03-3.99-.84-7.93-.78-11.91.04-3.42.53-6.86.01-10.26-2.03-11.9-4.81-23.8-4.71-35.93z"/><path fill="#6b6c6e" d="M203.22 289.03l.83.11c.48 2.75 2.66 4.52 4.57 6.34a32.7 32.7 0 0 1 2.63 3.45c-2.85-.61-5.72.29-8.54.06-2.16-1.34-3.48-3.61-5.01-5.56l5.27 2.36.25-6.76z"/><path fill="#010101" opacity=".75" d="M225.92 289.71l4.06-.85c-1.54 1.97-3.11 3.96-4 6.32-1.35 3.3-1.38 6.94-2.4 10.33-1.85 3.23-5.33 5-8.51 6.65l-.89-3.24 2.06-4.04c2.37-1.41 5.25-2.62 6.33-5.36 1.4-3.17 2.29-6.53 3.35-9.81z"/><path fill="#86887f" d="M276.27 292.29c5.99-1.74 12.4-.41 18.19 1.5l-4.16 5c-2.63.12-5.24.54-7.84.94-2.57-.62-5.18-1.33-7.47-2.7-1.33-1.38-.76-4.39 1.28-4.74z"/><path fill="#333635" d="M188.42 297.66c1.24-1.44 2.65-2.72 4.16-3.87l1.66 3.18-1.52 1.87-4.3-1.18z"/><path fill="#5e5f5e" d="M282.46 299.73l7.84-.94 8.95.08c-1.69 7.43-.65 15.14.93 22.49l-6.29-.47c-5.46-1.87-11.6-2.72-17.13-.65l-1.53.69c-1-6.65-1.99-13.3-2.55-20 3.28-.27 6.54-.64 9.78-1.2z"/><path fill="#434342" d="M299.25 298.87l2.57.32c.26 3.65.64 7.28.79 10.93.3 9.14-3.62 17.77-3.63 26.87.66 2.8 2.29 5.25 3.19 7.98l-2.3-1.97c.13 3.84.74 7.65 1.96 11.3.26-2.17.52-4.33.66-6.49.53 4.23 1.47 8.39 2.24 12.58-.84-1.83-1.8-3.6-2.76-5.36-.08 1.95-.17 3.91-.15 5.87l-3.61-1.75c.87 1.87 1.73 3.74 2.71 5.57-.95 2.11-2.09 4.21-2.37 6.54.2 2.31 1.58 4.33 1.94 6.62-.1 1.56-.67 3.03-1.17 4.5l-1.71 2.14-1.78-.08c-1.27-3.6-2.95-7.07-4.01-10.75-1.12-5.35-.59-10.85-.6-16.27 1.06-.99 2.68-1.59 3.22-3-.27-3.06-.69-6.12-.58-9.19.23-2.45-1.59-4.35-2.72-6.32l6.76-1.14c.95-5.44 1.57-10.93 2.28-16.41-1.58-7.35-2.62-15.06-.93-22.49z"/><path fill="#946955" d="M201.7 311.01c4.46-1.03 8.42-3.39 11.52-6.75l3.02.62-2.06 4.04c-3.74 2.84-8.33 3.86-12.96 3.56l.48-1.47z"/><path fill="#737069" d="M189.08 311.33l2.29-2.77c.98 1.79 1.63 3.73 1.93 5.76a24.21 24.21 0 0 0-3.79-2.4l-.43-.59z"/><path fill="#7d7d7c" d="M189.56 315.65l1.32-.22c3.17 1.63 5.59 4.78 9.21 5.47 3.33-.3 6.54-1.34 9.79-2.07l.32 4.4c-5.79.8-11.59.04-17.38-.1l-1.1-.96c-1.15-1.97-2.91-4.1-2.16-6.52z"/><path fill="#84877e" d="M276.76 320.24c5.53-2.07 11.67-1.22 17.13.65l3.07 1.6c.13 5.38-1.57 11.03-5.63 14.73-4.4 1.33-9.57 1.56-13.57-1.03-.59-5.3-1.52-10.6-1-15.95z"/><path fill="#636461" d="M293.89 320.89l6.29.47c-.71 5.48-1.33 10.97-2.28 16.41l-6.76 1.14c1.13 1.97 2.95 3.87 2.72 6.32-.11 3.07.31 6.13.58 9.19-.54 1.41-2.16 2.01-3.22 3l-.88-.47c-1.64-.54-3.37-1.46-5.13-1.01-1.68.84-3.11 2.08-4.58 3.23-1.88-2.75-2.73-5.99-2.98-9.29-.67-4.55-.57-9.14.11-13.69 4 2.59 9.17 2.36 13.57 1.03 4.06-3.7 5.76-9.35 5.63-14.73l-3.07-1.6m-11.8 28.79c1.6.71 3.18 1.51 4.89 1.93 1.36-.23 2.11-1.54 3.12-2.34l-2.34-3.15c-2.27.53-4.51 1.4-5.67 3.56z"/><path fill="#6c6a67" opacity=".93" d="M194.16 325.04c4.55.97 9.21 1.17 13.85 1.03-3.85 3.5-10.59 3.05-13.85-1.03z"/><path fill="#605e5d" opacity=".98" d="M299.87 343l2.3 1.97.32 2.84-.66 6.49c-1.22-3.65-1.83-7.46-1.96-11.3z"/><path fill="#a7a5a9" d="M282.09 349.68c1.16-2.16 3.4-3.03 5.67-3.56l2.34 3.15c-1.01.8-1.76 2.11-3.12 2.34-1.71-.42-3.29-1.22-4.89-1.93z"/><path fill="#434644" d="M278.27 374.13c.98-8.11-1.78-16.13-.62-24.25.25 3.3 1.1 6.54 2.98 9.29l.78 1.42c-.71 7.46-3.11 15.24-.47 22.59l-3.1-.36c.01-2.91.1-5.81.43-8.69z"/><path fill="#635f5b" opacity=".97" d="M301.97 355.03l2.76 5.36c.58 2.07-.18 4.12-.75 6.1l-2.16-5.59.15-5.87z"/><path fill="#7f8284" d="M280.63 359.17c1.47-1.15 2.9-2.39 4.58-3.23 1.76-.45 3.49.47 5.13 1.01l-3.63.86c-.87 5.51-1.43 11.07-1.38 16.66-.91-.62-2.12-1.04-2.58-2.1-.08-2.18.49-4.31.5-6.48-.1-1.9-.97-3.65-1.84-5.3l-.78-1.42z"/><path fill="#9f9ea2" d="M286.71 357.81l3.63-.86c-1.22 5.98-.32 12.16-1.86 18.1l-3.15-.58c-.05-5.59.51-11.15 1.38-16.66z"/><path fill="#6d7173" d="M290.34 356.95l.88.47c.01 5.42-.52 10.92.6 16.27l-4.31 4.26c-1.33-.67-2.2-.33-2.61 1.04.58 1.39 1.56 1.65 2.92.77.34 1.44.76 2.87 1.19 4.3-2.7-.25-5.38-.58-8.07-.88-2.64-7.35-.24-15.13.47-22.59.87 1.65 1.74 3.4 1.84 5.3-.01 2.17-.58 4.3-.5 6.48.46 1.06 1.67 1.48 2.58 2.1 1.04.21 2.1.39 3.15.58 1.54-5.94.64-12.12 1.86-18.1z"/><path fill="#53514d" d="M298.55 371.26c.28-2.33 1.42-4.43 2.37-6.54 1.3 2.46 3.04 4.82 3.51 7.64.46 3.17.32 6.4.34 9.6l-5.45.42c.5-1.47 1.07-2.94 1.17-4.5-.36-2.29-1.74-4.31-1.94-6.62z"/><path fill="#505357" d="M287.51 377.95l4.31-4.26c1.06 3.68 2.74 7.15 4.01 10.75l-6.82-.38c-.43-1.43-.85-2.86-1.19-4.3l-.31-1.81z"/><path fill="#9d9ca0" d="M284.9 378.99c.41-1.37 1.28-1.71 2.61-1.04l.31 1.81c-1.36.88-2.34.62-2.92-.77z"/></svg>