<?xml version="1.0" encoding="UTF-8" ?>
<!DOCTYPE svg PUBLIC "-//W3C//DTD SVG 1.1//EN" "http://www.w3.org/Graphics/SVG/1.1/DTD/svg11.dtd">
<svg width="512pt" height="512pt" viewBox="0 0 512 512" version="1.1" xmlns="http://www.w3.org/2000/svg">
<g id="#7c7c79ff">
<path fill="#7c7c79" opacity="1.00" d=" M 275.99 178.06 C 280.09 174.24 286.63 174.99 290.41 178.88 C 289.76 180.21 289.11 181.54 288.47 182.88 C 284.21 181.31 279.79 179.65 275.18 180.50 C 275.45 179.68 275.72 178.87 275.99 178.06 Z" />
</g>
<g id="#545652ff">
<path fill="#545652" opacity="1.00" d=" M 266.48 190.94 C 267.06 185.21 272.27 181.83 275.99 178.06 C 275.72 178.87 275.45 179.68 275.18 180.50 C 279.79 179.65 284.21 181.31 288.47 182.88 C 289.11 181.54 289.76 180.21 290.41 178.88 C 294.01 183.19 298.39 186.75 302.65 190.38 C 304.24 191.68 304.89 193.69 305.83 195.44 C 303.91 198.31 304.49 201.75 304.54 204.98 C 304.83 208.88 300.78 210.97 298.40 213.41 C 299.69 214.64 300.98 215.89 302.29 217.11 C 301.06 216.58 299.81 216.13 298.56 215.67 C 298.56 217.75 297.91 220.08 299.16 221.93 C 301.62 225.73 303.87 229.81 307.48 232.67 C 309.74 234.29 310.18 237.32 312.10 239.20 C 315.11 239.98 318.25 239.51 321.32 239.69 C 317.39 241.18 313.16 241.33 309.01 241.29 C 308.80 243.46 308.65 245.66 308.94 247.84 C 308.15 246.97 307.35 246.12 306.48 245.34 C 305.29 244.39 304.09 243.46 302.84 242.61 C 304.71 239.83 306.75 237.14 308.11 234.06 C 306.35 232.10 303.57 234.43 301.42 234.68 C 298.81 231.34 296.04 227.90 292.07 226.13 C 284.61 223.50 278.18 218.30 270.26 216.99 C 264.25 215.82 257.97 216.22 252.18 218.22 C 251.36 217.78 250.55 217.34 249.73 216.91 C 249.75 216.47 249.79 215.59 249.81 215.15 C 252.98 213.49 256.23 211.99 259.34 210.23 C 261.93 208.87 261.47 205.64 262.07 203.23 C 262.75 198.85 265.97 195.36 266.48 190.94 M 277.96 188.95 C 278.27 189.47 278.89 190.52 279.20 191.04 C 277.38 191.53 275.65 192.28 273.89 192.93 C 276.74 195.74 281.15 193.96 284.60 195.33 C 289.50 197.14 294.45 199.24 298.39 202.78 C 298.36 201.53 298.83 200.07 297.88 199.04 C 298.17 197.79 298.44 196.54 298.73 195.30 C 294.10 193.01 289.54 190.54 284.70 188.73 C 282.51 187.86 280.15 188.48 277.96 188.95 M 270.93 193.88 C 271.73 196.52 273.31 198.89 276.04 199.78 C 273.24 200.37 270.51 201.26 268.15 202.93 C 264.39 205.81 261.50 209.68 260.15 214.26 C 261.65 213.40 263.13 212.51 264.61 211.60 C 265.19 212.60 265.76 213.60 266.35 214.61 C 274.18 216.82 282.60 217.83 289.43 222.61 C 291.57 223.92 293.85 225.00 296.20 225.89 C 296.07 221.24 295.53 216.62 294.95 212.01 C 294.80 210.48 294.27 208.94 293.03 207.95 C 294.72 208.34 296.46 208.39 298.19 208.50 C 298.46 209.48 298.73 210.46 299.01 211.44 C 299.63 211.05 300.88 210.28 301.50 209.89 C 300.99 207.92 300.25 205.31 297.76 205.26 C 290.59 204.60 283.67 201.60 278.23 196.90 C 276.19 195.12 273.45 194.62 270.93 193.88 Z" />
</g>
<g id="#6e7070ff">
<path fill="#6e7070" opacity="1.00" d=" M 277.96 188.95 C 280.15 188.48 282.51 187.86 284.70 188.73 C 289.54 190.54 294.10 193.01 298.73 195.30 C 298.44 196.54 298.17 197.79 297.88 199.04 C 294.56 196.91 290.89 195.42 287.35 193.70 C 284.75 192.52 282.13 191.03 279.20 191.04 C 278.89 190.52 278.27 189.47 277.96 188.95 Z" />
</g>
<g id="#949699ff">
<path fill="#949699" opacity="1.00" d=" M 279.20 191.04 C 282.13 191.03 284.75 192.52 287.35 193.70 C 290.89 195.42 294.56 196.91 297.88 199.04 C 298.83 200.07 298.36 201.53 298.39 202.78 C 294.45 199.24 289.50 197.14 284.60 195.33 C 281.15 193.96 276.74 195.74 273.89 192.93 C 275.65 192.28 277.38 191.53 279.20 191.04 Z" />
</g>
<g id="#322f2aff">
<path fill="#322f2a" opacity="1.00" d=" M 270.93 193.88 C 273.45 194.62 276.19 195.12 278.23 196.90 C 283.67 201.60 290.59 204.60 297.76 205.26 C 300.25 205.31 300.99 207.92 301.50 209.89 C 300.88 210.28 299.63 211.05 299.01 211.44 C 298.73 210.46 298.46 209.48 298.19 208.50 C 296.46 208.39 294.72 208.34 293.03 207.95 C 287.22 205.54 281.68 202.57 276.04 199.78 C 273.31 198.89 271.73 196.52 270.93 193.88 Z" />
</g>
<g id="#d09c7eff">
<path fill="#d09c7e" opacity="1.00" d=" M 304.54 204.98 C 304.49 201.75 303.91 198.31 305.83 195.44 C 312.18 202.97 319.25 209.85 325.70 217.30 C 327.80 219.67 329.91 222.09 332.52 223.93 C 334.39 229.59 327.52 232.10 323.02 231.29 C 319.57 227.56 315.07 225.08 310.96 222.18 C 310.45 221.87 309.43 221.25 308.92 220.94 C 306.85 219.81 304.76 218.71 302.74 217.49 L 302.29 217.11 C 300.98 215.89 299.69 214.64 298.40 213.41 C 300.78 210.97 304.83 208.88 304.54 204.98 Z" />
</g>
<g id="#6f7067ff">
<path fill="#6f7067" opacity="1.00" d=" M 268.15 202.93 C 270.51 201.26 273.24 200.37 276.04 199.78 C 281.68 202.57 287.22 205.54 293.03 207.95 C 294.27 208.94 294.80 210.48 294.95 212.01 C 295.53 216.62 296.07 221.24 296.20 225.89 C 293.85 225.00 291.57 223.92 289.43 222.61 C 290.96 220.58 292.81 218.47 292.78 215.77 C 293.11 212.50 290.40 209.59 287.36 208.86 C 285.19 208.61 283.04 209.16 280.91 209.48 C 280.34 207.79 279.77 206.11 279.23 204.42 C 275.55 203.80 271.86 203.34 268.15 202.93 Z" />
</g>
<g id="#898b82ff">
<path fill="#898b82" opacity="1.00" d=" M 268.15 202.93 C 271.86 203.34 275.55 203.80 279.23 204.42 C 279.77 206.11 280.34 207.79 280.91 209.48 C 283.04 209.16 285.19 208.61 287.36 208.86 C 290.40 209.59 293.11 212.50 292.78 215.77 C 292.81 218.47 290.96 220.58 289.43 222.61 C 282.60 217.83 274.18 216.82 266.35 214.61 C 265.76 213.60 265.19 212.60 264.61 211.60 C 263.13 212.51 261.65 213.40 260.15 214.26 C 261.50 209.68 264.39 205.81 268.15 202.93 Z" />
</g>
<g id="#82837bff">
<path fill="#82837b" opacity="1.00" d=" M 230.02 217.61 C 234.72 218.08 238.31 213.79 243.07 214.87 C 243.32 216.63 245.39 217.86 247.00 216.91 C 246.85 218.15 246.71 219.40 246.56 220.65 C 246.01 220.61 244.91 220.52 244.37 220.48 C 239.59 219.11 236.06 223.11 233.39 226.45 C 231.91 228.27 231.40 230.61 230.76 232.80 C 232.17 233.00 233.58 233.21 234.99 233.41 C 236.27 231.64 237.57 229.87 238.82 228.08 C 238.28 231.35 238.91 234.58 240.55 237.45 C 242.06 239.97 241.05 242.89 240.56 245.55 C 239.87 244.36 239.20 243.16 238.53 241.97 C 237.61 244.72 236.63 247.46 235.61 250.18 C 235.26 248.35 234.88 246.53 234.52 244.70 C 232.58 251.34 233.92 258.63 230.96 264.97 C 231.22 256.71 232.31 248.52 233.07 240.29 C 231.27 240.29 229.46 240.28 227.66 240.24 C 225.46 236.71 225.73 232.32 225.48 228.32 C 225.17 224.19 227.40 220.57 230.02 217.61 Z" />
</g>
<g id="#c7c7c7db">
<path fill="#c7c7c7" opacity="0.86" d=" M 243.07 214.87 C 244.36 214.82 245.64 214.96 246.91 215.30 C 246.93 215.70 246.98 216.50 247.00 216.91 C 245.39 217.86 243.32 216.63 243.07 214.87 Z" />
</g>
<g id="#646562ff">
<path fill="#646562" opacity="1.00" d=" M 246.91 215.30 C 247.63 215.26 249.08 215.19 249.81 215.15 C 249.79 215.59 249.75 216.47 249.73 216.91 C 250.55 217.34 251.36 217.78 252.18 218.22 C 260.94 222.19 271.18 220.72 279.98 224.67 C 284.73 226.01 288.77 229.60 293.85 229.65 C 293.26 228.47 292.66 227.30 292.07 226.13 C 296.04 227.90 298.81 231.34 301.42 234.68 C 303.57 234.43 306.35 232.10 308.11 234.06 C 306.75 237.14 304.71 239.83 302.84 242.61 C 301.34 241.61 299.78 240.70 298.19 239.88 C 297.19 237.72 296.56 234.99 294.18 233.93 C 289.68 231.72 285.54 228.36 280.37 227.95 C 281.07 230.31 282.61 232.67 282.16 235.22 C 279.69 236.84 276.60 236.48 273.80 236.69 C 275.24 236.30 276.65 235.85 278.08 235.41 C 274.50 231.92 269.89 229.30 264.95 228.46 C 258.66 228.80 252.57 230.72 246.34 231.56 C 246.69 230.10 246.88 228.61 247.35 227.18 C 250.09 226.23 253.58 226.06 254.28 222.59 C 249.90 222.05 245.61 223.17 241.73 225.14 C 242.60 223.58 243.51 222.04 244.37 220.48 C 244.91 220.52 246.01 220.61 246.56 220.65 C 246.71 219.40 246.85 218.15 247.00 216.91 C 246.98 216.50 246.93 215.70 246.91 215.30 Z" />
</g>
<g id="#908e86ff">
<path fill="#908e86" opacity="1.00" d=" M 252.18 218.22 C 257.97 216.22 264.25 215.82 270.26 216.99 C 278.18 218.30 284.61 223.50 292.07 226.13 C 292.66 227.30 293.26 228.47 293.85 229.65 C 288.77 229.60 284.73 226.01 279.98 224.67 C 271.18 220.72 260.94 222.19 252.18 218.22 Z" />
</g>
<g id="#000000c1">
<path fill="#000000" opacity="0.76" d=" M 299.16 221.93 C 297.91 220.08 298.56 217.75 298.56 215.67 C 299.81 216.13 301.06 216.58 302.29 217.11 L 302.74 217.49 C 305.06 221.90 308.94 225.13 312.43 228.57 C 315.81 231.80 320.40 233.19 324.09 235.97 C 326.68 238.48 329.11 241.26 330.64 244.56 C 332.63 248.05 329.04 251.10 327.55 254.01 C 326.17 250.79 323.74 247.80 324.09 244.11 C 324.45 242.06 322.82 240.74 321.32 239.69 C 318.25 239.51 315.11 239.98 312.10 239.20 C 310.18 237.32 309.74 234.29 307.48 232.67 C 303.87 229.81 301.62 225.73 299.16 221.93 Z" />
</g>
<g id="#5c5e5dff">
<path fill="#5c5e5d" opacity="1.00" d=" M 205.86 221.48 C 213.55 218.51 221.79 217.31 230.02 217.61 C 227.40 220.57 225.17 224.19 225.48 228.32 C 225.73 232.32 225.46 236.71 227.66 240.24 C 227.43 245.71 228.04 251.59 225.04 256.46 C 225.09 255.68 225.17 254.12 225.22 253.33 C 225.42 249.47 226.57 245.32 225.03 241.61 C 223.44 238.84 219.89 240.55 217.37 240.02 C 214.63 239.14 212.10 237.71 209.39 236.76 C 209.33 239.06 209.26 241.35 209.25 243.65 C 208.75 243.67 207.73 243.71 207.22 243.73 C 207.57 236.52 206.62 229.35 207.03 222.15 C 206.73 221.99 206.15 221.65 205.86 221.48 Z" />
</g>
<g id="#585a5aff">
<path fill="#585a5a" opacity="1.00" d=" M 172.98 221.65 C 177.45 222.39 181.72 219.40 186.10 220.84 C 190.95 222.01 195.94 222.57 200.91 222.96 C 198.23 224.03 194.79 224.60 193.25 227.31 C 191.06 232.18 192.07 237.83 194.48 242.42 C 190.26 242.78 186.23 241.68 182.91 239.03 C 182.95 242.46 185.31 244.90 188.13 246.52 C 186.83 246.44 185.55 246.34 184.26 246.24 C 181.22 244.16 178.46 241.42 174.86 240.33 C 170.41 239.59 165.88 240.33 161.44 240.79 C 161.86 242.30 162.29 243.81 162.70 245.32 C 159.72 243.50 156.79 241.60 153.78 239.83 C 153.05 236.98 153.21 234.04 153.98 231.22 C 156.30 230.66 158.60 230.05 160.90 229.42 C 161.07 230.43 161.25 231.45 161.42 232.47 C 166.25 231.36 171.17 230.69 176.11 230.31 C 176.62 228.94 177.14 227.57 177.66 226.21 C 173.20 225.25 168.62 225.55 164.24 226.80 C 164.27 226.22 164.32 225.05 164.34 224.47 C 166.92 222.69 169.72 221.03 172.98 221.65 Z" />
</g>
<g id="#484947ff">
<path fill="#484947" opacity="1.00" d=" M 233.39 226.45 C 236.06 223.11 239.59 219.11 244.37 220.48 C 243.51 222.04 242.60 223.58 241.73 225.14 C 245.61 223.17 249.90 222.05 254.28 222.59 C 253.58 226.06 250.09 226.23 247.35 227.18 C 246.88 228.61 246.69 230.10 246.34 231.56 C 246.04 232.34 245.72 233.12 245.39 233.89 C 246.83 233.49 248.28 233.09 249.74 232.78 C 254.29 233.34 258.91 233.46 263.38 234.48 C 257.82 237.15 251.79 239.92 248.27 245.24 C 246.24 249.15 246.20 253.74 246.25 258.05 C 244.84 258.72 243.48 259.47 242.07 260.13 C 242.22 260.81 242.36 261.50 242.50 262.20 C 243.17 266.38 244.65 272.09 249.89 272.04 C 251.88 271.99 252.84 273.73 253.81 275.18 C 252.74 276.10 251.66 277.00 250.58 277.91 C 252.45 277.55 254.30 277.05 256.20 276.81 C 255.79 279.17 255.58 281.58 255.95 283.96 C 248.94 282.09 244.19 276.24 237.98 272.86 C 238.37 271.81 238.78 270.76 239.20 269.72 C 237.20 269.17 235.19 268.65 233.19 268.13 C 233.04 266.17 232.81 264.22 232.67 262.26 C 233.87 263.43 235.13 264.54 236.36 265.70 C 238.62 259.19 238.67 252.17 240.56 245.55 C 241.05 242.89 242.06 239.97 240.55 237.45 C 238.91 234.58 238.28 231.35 238.82 228.08 C 237.57 229.87 236.27 231.64 234.99 233.41 C 233.58 233.21 232.17 233.00 230.76 232.80 C 231.40 230.61 231.91 228.27 233.39 226.45 Z" />
</g>
<g id="#64493ac8">
<path fill="#64493a" opacity="0.78" d=" M 308.92 220.94 C 309.43 221.25 310.45 221.87 310.96 222.18 C 310.45 221.87 309.43 221.25 308.92 220.94 Z" />
</g>
<g id="#81827bff">
<path fill="#81827b" opacity="1.00" d=" M 200.91 222.96 C 202.56 222.48 204.20 221.97 205.86 221.48 C 206.15 221.65 206.73 221.99 207.03 222.15 C 206.62 229.35 207.57 236.52 207.22 243.73 C 206.54 243.75 205.18 243.80 204.50 243.83 C 201.17 243.32 197.86 242.60 194.48 242.42 C 192.07 237.83 191.06 232.18 193.25 227.31 C 194.79 224.60 198.23 224.03 200.91 222.96 Z" />
</g>
<g id="#5c5d5bff">
<path fill="#5c5d5b" opacity="1.00" d=" M 332.52 223.93 C 336.81 226.37 341.57 228.28 344.86 232.13 C 347.91 235.69 350.92 239.57 352.44 244.04 C 353.39 248.28 348.08 249.54 347.17 253.12 C 346.53 255.11 346.10 257.15 345.61 259.19 C 344.03 258.65 342.45 258.07 341.03 257.17 C 338.97 251.52 336.17 246.14 332.81 241.16 C 331.36 238.92 329.05 237.52 326.83 236.19 C 326.37 235.89 325.47 235.30 325.02 235.00 C 324.35 233.76 323.70 232.51 323.02 231.29 C 327.52 232.10 334.39 229.59 332.52 223.93 Z" />
</g>
<g id="#3a3d3cff">
<path fill="#3a3d3c" opacity="1.00" d=" M 153.98 231.22 C 156.76 228.03 160.71 226.42 164.34 224.47 C 164.32 225.05 164.27 226.22 164.24 226.80 C 168.62 225.55 173.20 225.25 177.66 226.21 C 177.14 227.57 176.62 228.94 176.11 230.31 C 171.17 230.69 166.25 231.36 161.42 232.47 C 161.25 231.45 161.07 230.43 160.90 229.42 C 158.60 230.05 156.30 230.66 153.98 231.22 Z" />
<path fill="#3a3d3c" opacity="1.00" d=" M 330.85 331.80 C 334.37 328.87 339.20 329.08 343.14 330.98 C 343.83 331.78 343.47 332.91 343.06 333.75 C 339.41 331.37 334.96 332.05 330.85 331.80 Z" />
</g>
<g id="#959189ff">
<path fill="#959189" opacity="1.00" d=" M 246.34 231.56 C 252.57 230.72 258.66 228.80 264.95 228.46 C 269.89 229.30 274.50 231.92 278.08 235.41 C 276.65 235.85 275.24 236.30 273.80 236.69 C 272.14 236.77 270.48 236.77 268.82 236.83 C 269.88 236.02 270.94 235.20 272.00 234.37 C 264.92 231.74 257.11 230.55 249.74 232.78 C 248.28 233.09 246.83 233.49 245.39 233.89 C 245.72 233.12 246.04 232.34 246.34 231.56 Z" />
</g>
<g id="#555654ff">
<path fill="#555654" opacity="1.00" d=" M 280.37 227.95 C 285.54 228.36 289.68 231.72 294.18 233.93 C 296.56 234.99 297.19 237.72 298.19 239.88 C 294.49 239.39 290.76 239.18 287.06 238.73 C 282.99 236.64 279.50 240.49 275.47 240.51 C 273.04 240.68 270.62 240.44 268.20 240.25 C 268.44 239.11 268.65 237.97 268.82 236.83 C 270.48 236.77 272.14 236.77 273.80 236.69 C 276.60 236.48 279.69 236.84 282.16 235.22 C 282.61 232.67 281.07 230.31 280.37 227.95 Z" />
</g>
<g id="#615f5eff">
<path fill="#615f5e" opacity="1.00" d=" M 249.74 232.78 C 257.11 230.55 264.92 231.74 272.00 234.37 C 270.94 235.20 269.88 236.02 268.82 236.83 C 268.65 237.97 268.44 239.11 268.20 240.25 C 270.62 240.44 273.04 240.68 275.47 240.51 C 279.50 240.49 282.99 236.64 287.06 238.73 L 286.22 239.44 C 284.08 241.20 282.16 243.36 279.54 244.40 C 277.26 245.01 274.88 244.86 272.55 244.84 C 268.95 244.37 265.25 243.71 261.66 244.60 C 259.04 245.24 256.05 246.07 254.80 248.75 C 250.96 256.18 251.11 265.91 256.34 272.66 C 259.50 277.61 266.12 275.75 271.01 275.40 C 272.96 275.12 274.90 274.76 276.87 274.54 C 278.67 275.09 280.99 275.25 282.09 277.02 C 283.03 278.68 283.46 280.55 284.02 282.36 C 281.95 282.66 279.88 282.93 277.82 283.25 C 277.45 283.00 276.70 282.52 276.33 282.27 C 278.46 281.52 280.41 280.32 282.52 279.52 C 280.52 278.36 278.25 278.06 275.98 278.12 C 275.72 279.55 275.47 280.98 275.21 282.42 C 272.69 281.03 270.19 279.62 267.74 278.12 C 267.67 279.96 267.46 281.79 267.40 283.62 C 266.77 283.80 265.50 284.16 264.86 284.34 C 263.10 284.01 261.29 283.76 259.63 283.08 C 258.76 282.14 258.60 280.80 258.14 279.66 C 259.44 279.02 260.76 278.40 262.08 277.78 C 260.13 277.39 258.17 277.06 256.20 276.81 C 254.30 277.05 252.45 277.55 250.58 277.91 C 251.66 277.00 252.74 276.10 253.81 275.18 C 252.84 273.73 251.88 271.99 249.89 272.04 C 248.92 268.15 248.09 264.24 247.12 260.36 C 245.59 260.98 244.04 261.58 242.50 262.20 C 242.36 261.50 242.22 260.81 242.07 260.13 C 243.48 259.47 244.84 258.72 246.25 258.05 C 246.43 258.38 246.78 259.04 246.96 259.38 C 248.06 255.82 248.24 251.72 250.82 248.84 C 255.49 243.90 261.05 239.95 266.16 235.50 C 265.46 235.24 264.08 234.74 263.38 234.48 C 258.91 233.46 254.29 233.34 249.74 232.78 Z" />
</g>
<g id="#7b7c7cff">
<path fill="#7b7c7c" opacity="1.00" d=" M 248.27 245.24 C 251.79 239.92 257.82 237.15 263.38 234.48 C 264.08 234.74 265.46 235.24 266.16 235.50 C 261.05 239.95 255.49 243.90 250.82 248.84 C 248.24 251.72 248.06 255.82 246.96 259.38 C 246.78 259.04 246.43 258.38 246.25 258.05 C 246.20 253.74 246.24 249.15 248.27 245.24 Z" />
</g>
<g id="#424140fe">
<path fill="#424140" opacity="1.00" d=" M 326.83 236.19 C 329.05 237.52 331.36 238.92 332.81 241.16 C 336.17 246.14 338.97 251.52 341.03 257.17 C 337.98 255.21 335.03 252.82 333.68 249.34 C 331.81 244.75 330.21 239.94 326.83 236.19 Z" />
</g>
<g id="#464746ff">
<path fill="#464746" opacity="1.00" d=" M 209.39 236.76 C 212.10 237.71 214.63 239.14 217.37 240.02 C 219.89 240.55 223.44 238.84 225.03 241.61 C 226.57 245.32 225.42 249.47 225.22 253.33 C 225.16 251.31 224.99 249.30 224.87 247.29 C 217.16 246.82 209.64 244.68 201.92 244.53 C 202.57 244.35 203.85 244.00 204.50 243.83 C 205.18 243.80 206.54 243.75 207.22 243.73 C 207.73 243.71 208.75 243.67 209.25 243.65 C 209.26 241.35 209.33 239.06 209.39 236.76 Z" />
</g>
<g id="#464745ff">
<path fill="#464745" opacity="1.00" d=" M 182.91 239.03 C 186.23 241.68 190.26 242.78 194.48 242.42 C 197.86 242.60 201.17 243.32 204.50 243.83 C 203.85 244.00 202.57 244.35 201.92 244.53 C 197.46 245.89 192.82 246.94 188.13 246.52 C 185.31 244.90 182.95 242.46 182.91 239.03 Z" />
</g>
<g id="#82827cff">
<path fill="#82827c" opacity="1.00" d=" M 287.06 238.73 C 290.76 239.18 294.49 239.39 298.19 239.88 C 299.78 240.70 301.34 241.61 302.84 242.61 C 304.09 243.46 305.29 244.39 306.48 245.34 C 305.29 247.27 303.37 248.41 301.31 249.20 C 301.33 248.67 301.37 247.59 301.39 247.05 C 299.07 245.56 296.75 243.95 294.07 243.18 C 291.33 242.25 288.03 242.03 286.22 239.44 L 287.06 238.73 Z" />
</g>
<g id="#403f3dff">
<path fill="#403f3d" opacity="1.00" d=" M 153.78 239.83 C 156.79 241.60 159.72 243.50 162.70 245.32 C 162.29 243.81 161.86 242.30 161.44 240.79 C 165.88 240.33 170.41 239.59 174.86 240.33 C 178.46 241.42 181.22 244.16 184.26 246.24 C 175.63 246.63 166.97 246.78 158.34 246.33 C 155.18 245.99 154.50 242.33 153.78 239.83 Z" />
<path fill="#403f3d" opacity="1.00" d=" M 325.41 263.74 C 327.21 266.00 327.49 269.25 325.38 271.43 C 323.34 273.61 323.97 276.68 323.39 279.35 C 322.38 282.00 319.29 281.80 316.99 281.57 C 318.50 280.59 320.01 279.61 321.46 278.53 C 321.86 274.62 322.91 270.85 324.34 267.21 C 324.69 266.05 325.05 264.89 325.41 263.74 Z" />
</g>
<g id="#414341ff">
<path fill="#414341" opacity="1.00" d=" M 227.66 240.24 C 229.46 240.28 231.27 240.29 233.07 240.29 C 232.31 248.52 231.22 256.71 230.96 264.97 C 230.37 266.24 229.68 267.45 228.99 268.68 C 227.53 268.43 226.06 268.21 224.60 267.95 C 224.65 264.12 224.61 260.27 225.04 256.46 C 228.04 251.59 227.43 245.71 227.66 240.24 Z" />
</g>
<g id="#94928aff">
<path fill="#94928a" opacity="1.00" d=" M 279.54 244.40 C 282.16 243.36 284.08 241.20 286.22 239.44 C 288.03 242.03 291.33 242.25 294.07 243.18 C 296.75 243.95 299.07 245.56 301.39 247.05 C 301.37 247.59 301.33 248.67 301.31 249.20 C 297.59 250.08 298.83 254.56 297.41 257.22 C 296.21 252.76 294.50 248.20 290.83 245.17 C 289.29 243.63 286.92 244.16 284.97 243.85 C 286.99 246.78 292.16 249.15 290.46 253.32 C 289.84 256.20 286.56 255.57 284.36 256.03 C 284.60 252.91 284.61 249.75 283.74 246.72 C 280.20 247.26 276.72 248.16 273.30 249.24 C 274.33 250.42 275.31 251.66 276.35 252.84 C 275.86 254.23 275.36 255.62 274.95 257.03 C 274.64 258.86 274.55 260.72 274.45 262.58 C 280.79 262.81 287.13 261.76 293.45 262.64 C 289.39 263.81 286.39 266.72 283.19 269.27 C 275.89 270.96 267.98 269.73 261.09 266.96 C 257.29 265.56 256.87 260.95 257.31 257.50 C 257.59 253.04 261.41 250.12 264.63 247.57 C 266.87 245.75 269.78 245.23 272.55 244.84 C 274.88 244.86 277.26 245.01 279.54 244.40 Z" />
</g>
<g id="#676a80ff">
<path fill="#676a80" opacity="1.00" d=" M 309.01 241.29 C 313.16 241.33 317.39 241.18 321.32 239.69 C 322.02 242.66 322.35 245.79 320.94 248.62 C 322.26 249.04 323.57 249.46 324.90 249.89 C 324.50 252.29 324.12 254.70 323.73 257.10 C 322.11 256.79 320.48 256.55 318.86 256.26 C 318.80 254.71 318.55 253.18 318.33 251.65 C 318.20 253.28 317.15 254.69 317.14 256.35 C 317.59 256.61 318.47 257.13 318.91 257.38 C 319.00 258.91 318.92 260.44 318.82 261.97 C 318.73 263.01 318.61 264.06 318.47 265.10 C 316.71 265.42 314.99 265.84 313.23 266.14 C 313.12 265.55 312.90 264.38 312.79 263.80 C 313.38 263.33 314.57 262.40 315.16 261.93 C 314.93 260.58 314.89 259.22 315.01 257.86 C 313.93 258.15 312.84 258.41 311.74 258.65 C 312.72 256.65 314.12 254.89 315.58 253.23 C 314.56 253.14 313.54 253.08 312.53 253.05 C 311.37 251.28 310.15 249.56 308.94 247.84 C 308.65 245.66 308.80 243.46 309.01 241.29 M 320.22 243.22 C 320.79 243.78 320.79 243.78 320.22 243.22 Z" />
</g>
<g id="#495135fd">
<path fill="#495135" opacity="1.00" d=" M 321.32 239.69 C 322.82 240.74 324.45 242.06 324.09 244.11 C 323.74 247.80 326.17 250.79 327.55 254.01 C 326.33 256.49 324.12 258.05 321.51 258.78 C 321.39 260.04 321.28 261.29 321.18 262.56 C 320.59 262.41 319.41 262.12 318.82 261.97 C 318.92 260.44 319.00 258.91 318.91 257.38 L 318.86 256.26 C 320.48 256.55 322.11 256.79 323.73 257.10 C 324.12 254.70 324.50 252.29 324.90 249.89 C 323.57 249.46 322.26 249.04 320.94 248.62 C 322.35 245.79 322.02 242.66 321.32 239.69 Z" />
</g>
<g id="#5f5f5dff">
<path fill="#5f5f5d" opacity="1.00" d=" M 235.61 250.18 C 236.63 247.46 237.61 244.72 238.53 241.97 C 239.20 243.16 239.87 244.36 240.56 245.55 C 238.67 252.17 238.62 259.19 236.36 265.70 C 235.13 264.54 233.87 263.43 232.67 262.26 C 232.81 264.22 233.04 266.17 233.19 268.13 C 235.19 268.65 237.20 269.17 239.20 269.72 C 238.78 270.76 238.37 271.81 237.98 272.86 C 237.77 273.38 237.35 274.42 237.15 274.94 C 239.94 278.21 242.51 282.04 246.55 283.87 C 249.79 285.16 253.29 285.59 256.60 286.66 C 259.32 287.50 261.99 288.48 264.73 289.27 C 265.66 289.54 266.60 289.81 267.54 290.07 C 266.61 291.60 266.92 293.51 265.97 295.03 C 271.42 296.69 277.06 295.61 282.49 294.48 C 285.59 293.59 288.69 295.44 290.14 298.16 C 291.66 300.97 294.26 302.85 297.00 304.38 C 296.84 304.78 296.51 305.60 296.35 306.01 C 303.45 310.55 312.11 312.55 318.37 318.35 C 314.57 318.84 310.66 319.12 307.14 320.79 C 309.40 321.37 311.67 321.85 313.96 322.34 C 313.72 323.67 313.47 325.01 313.23 326.35 C 314.16 326.84 315.09 327.36 316.04 327.85 C 313.36 327.36 310.10 327.14 308.51 324.57 C 306.55 322.04 307.30 318.20 304.97 315.96 C 301.32 313.56 299.85 319.05 297.26 320.63 C 297.76 318.13 298.34 315.64 298.98 313.17 C 297.14 311.99 295.31 310.81 293.48 309.64 C 292.61 310.92 291.74 312.20 290.88 313.48 C 288.18 312.39 286.74 310.12 286.71 307.23 C 288.04 306.15 289.30 304.98 290.58 303.82 C 289.09 302.43 287.64 301.00 286.09 299.70 C 285.00 299.03 283.83 298.53 282.62 298.14 C 278.03 297.57 273.42 298.71 268.83 298.14 C 264.55 297.61 260.28 296.98 256.09 295.95 C 247.92 294.00 241.63 287.56 233.27 286.11 C 233.42 287.11 233.55 288.10 233.68 289.11 C 231.54 286.81 227.27 282.92 230.00 279.85 C 232.92 280.57 235.50 282.18 238.09 283.65 C 238.59 283.46 239.59 283.07 240.08 282.87 C 236.32 278.19 232.95 273.20 228.99 268.68 C 229.68 267.45 230.37 266.24 230.96 264.97 C 233.92 258.63 232.58 251.34 234.52 244.70 C 234.88 246.53 235.26 248.35 235.61 250.18 Z" />
</g>
<g id="#ffffffff">
<path fill="#ffffff" opacity="1.00" d=" M 320.22 243.22 C 320.79 243.78 320.79 243.78 320.22 243.22 Z" />
</g>
<g id="#86847dff">
<path fill="#86847d" opacity="1.00" d=" M 261.66 244.60 C 265.25 243.71 268.95 244.37 272.55 244.84 C 269.78 245.23 266.87 245.75 264.63 247.57 C 261.41 250.12 257.59 253.04 257.31 257.50 C 256.87 260.95 257.29 265.56 261.09 266.96 C 267.98 269.73 275.89 270.96 283.19 269.27 C 286.39 266.72 289.39 263.81 293.45 262.64 C 287.13 261.76 280.79 262.81 274.45 262.58 C 274.55 260.72 274.64 258.86 274.95 257.03 C 278.96 257.66 283.01 257.35 287.05 257.49 C 290.03 257.53 292.98 259.77 295.90 258.28 C 295.55 260.37 296.26 262.29 298.09 263.46 C 297.68 267.18 297.72 271.09 300.87 273.68 C 295.24 275.52 289.37 276.37 283.48 276.78 C 283.36 275.80 283.24 274.82 283.13 273.85 C 281.04 274.06 278.95 274.28 276.87 274.54 C 274.90 274.76 272.96 275.12 271.01 275.40 C 271.10 274.59 271.24 273.79 271.43 273.01 C 268.70 273.07 265.93 273.31 263.23 272.77 C 258.24 270.65 254.77 265.37 255.05 259.90 C 254.40 254.07 256.23 247.60 261.66 244.60 M 280.64 260.72 C 282.91 260.86 285.19 260.75 287.38 260.09 C 285.14 259.06 282.49 258.78 280.64 260.72 M 290.23 259.16 C 289.73 260.56 290.19 261.03 291.61 260.58 C 292.12 259.18 291.66 258.71 290.23 259.16 Z" />
</g>
<g id="#9f9c96ff">
<path fill="#9f9c96" opacity="1.00" d=" M 284.97 243.85 C 286.92 244.16 289.29 243.63 290.83 245.17 C 294.50 248.20 296.21 252.76 297.41 257.22 C 297.04 257.48 296.28 258.01 295.90 258.28 C 292.98 259.77 290.03 257.53 287.05 257.49 C 283.01 257.35 278.96 257.66 274.95 257.03 C 275.36 255.62 275.86 254.23 276.35 252.84 C 275.31 251.66 274.33 250.42 273.30 249.24 C 276.72 248.16 280.20 247.26 283.74 246.72 C 284.61 249.75 284.60 252.91 284.36 256.03 C 286.56 255.57 289.84 256.20 290.46 253.32 C 292.16 249.15 286.99 246.78 284.97 243.85 Z" />
</g>
<g id="#74736dff">
<path fill="#74736d" opacity="1.00" d=" M 254.80 248.75 C 256.05 246.07 259.04 245.24 261.66 244.60 C 256.23 247.60 254.40 254.07 255.05 259.90 C 254.77 265.37 258.24 270.65 263.23 272.77 C 265.93 273.31 268.70 273.07 271.43 273.01 C 271.24 273.79 271.10 274.59 271.01 275.40 C 266.12 275.75 259.50 277.61 256.34 272.66 C 251.11 265.91 250.96 256.18 254.80 248.75 Z" />
</g>
<g id="#6c6c6aff">
<path fill="#6c6c6a" opacity="1.00" d=" M 306.48 245.34 C 307.35 246.12 308.15 246.97 308.94 247.84 C 310.15 249.56 311.37 251.28 312.53 253.05 C 313.54 253.08 314.56 253.14 315.58 253.23 C 314.12 254.89 312.72 256.65 311.74 258.65 C 311.99 260.38 312.39 262.09 312.79 263.80 C 312.90 264.38 313.12 265.55 313.23 266.14 C 309.43 266.95 305.52 266.33 301.71 266.86 C 301.00 267.65 300.44 268.56 299.83 269.43 C 302.18 270.63 304.54 271.82 306.90 273.02 C 306.52 274.49 306.15 275.95 305.79 277.42 C 300.72 281.45 294.18 282.00 287.97 282.30 C 290.11 284.34 295.17 286.60 292.13 289.96 C 287.90 291.33 282.22 292.07 278.86 288.53 C 280.21 287.68 281.57 286.86 282.94 286.03 C 281.19 285.19 279.49 284.24 277.82 283.25 C 279.88 282.93 281.95 282.66 284.02 282.36 C 283.46 280.55 283.03 278.68 282.09 277.02 C 280.99 275.25 278.67 275.09 276.87 274.54 C 278.95 274.28 281.04 274.06 283.13 273.85 C 283.24 274.82 283.36 275.80 283.48 276.78 C 289.37 276.37 295.24 275.52 300.87 273.68 C 297.72 271.09 297.68 267.18 298.09 263.46 C 296.26 262.29 295.55 260.37 295.90 258.28 C 296.28 258.01 297.04 257.48 297.41 257.22 C 298.83 254.56 297.59 250.08 301.31 249.20 C 303.37 248.41 305.29 247.27 306.48 245.34 Z" />
</g>
<g id="#9a9dacff">
<path fill="#9a9dac" opacity="1.00" d=" M 318.33 251.65 C 318.55 253.18 318.80 254.71 318.86 256.26 L 318.91 257.38 C 318.47 257.13 317.59 256.61 317.14 256.35 C 317.15 254.69 318.20 253.28 318.33 251.65 Z" />
</g>
<g id="#e5e4e6ff">
<path fill="#e5e4e6" opacity="1.00" d=" M 311.74 258.65 C 312.84 258.41 313.93 258.15 315.01 257.86 C 314.89 259.22 314.93 260.58 315.16 261.93 C 314.57 262.40 313.38 263.33 312.79 263.80 C 312.39 262.09 311.99 260.38 311.74 258.65 Z" />
</g>
<g id="#bcc1caff">
<path fill="#bcc1ca" opacity="1.00" d=" M 280.64 260.72 C 282.49 258.78 285.14 259.06 287.38 260.09 C 285.19 260.75 282.91 260.86 280.64 260.72 Z" />
</g>
<g id="#c4c9cdff">
<path fill="#c4c9cd" opacity="1.00" d=" M 290.23 259.16 C 291.66 258.71 292.12 259.18 291.61 260.58 C 290.19 261.03 289.73 260.56 290.23 259.16 Z" />
</g>
<g id="#838484ff">
<path fill="#838484" opacity="1.00" d=" M 242.50 262.20 C 244.04 261.58 245.59 260.98 247.12 260.36 C 248.09 264.24 248.92 268.15 249.89 272.04 C 244.65 272.09 243.17 266.38 242.50 262.20 Z" />
</g>
<g id="#00000010">
<path fill="#000000" opacity="0.06" d=" M 220.00 260.97 C 221.21 261.77 222.41 262.57 223.63 263.38 C 223.62 264.83 223.61 266.29 223.61 267.75 C 223.10 272.14 223.70 276.62 225.98 280.47 C 229.02 285.27 232.47 290.11 233.34 295.87 C 231.03 299.02 227.76 301.25 224.63 303.50 C 224.36 306.81 224.22 310.16 223.35 313.38 C 220.86 315.60 217.12 315.68 214.73 318.11 C 214.48 318.32 213.98 318.74 213.74 318.95 C 212.96 325.46 212.66 334.35 219.69 337.59 C 220.77 338.24 221.86 338.88 222.96 339.51 C 227.14 340.80 230.90 337.92 235.01 337.76 C 238.85 337.46 242.64 336.71 246.35 335.65 C 250.80 334.28 254.96 332.16 259.23 330.33 C 262.14 329.05 265.01 327.72 267.92 326.46 C 268.33 326.29 269.16 325.94 269.57 325.77 C 270.13 325.63 271.25 325.35 271.80 325.21 C 270.99 327.64 269.92 329.97 268.68 332.21 C 269.18 334.92 269.18 337.70 268.01 340.25 C 268.64 341.19 269.17 342.18 269.70 343.19 C 268.17 342.42 267.21 344.60 265.68 343.84 C 266.31 349.06 266.04 354.39 264.56 359.46 C 262.14 367.15 263.17 375.55 259.88 383.02 C 257.55 387.03 260.27 391.36 261.09 395.42 C 260.03 395.10 258.98 394.77 257.94 394.45 C 257.06 398.30 255.02 402.59 257.56 406.26 C 256.14 407.46 254.80 408.75 253.36 409.93 C 254.25 411.68 255.01 413.50 255.89 415.26 C 254.70 415.54 253.51 415.82 252.32 416.10 C 252.13 420.73 254.52 424.79 255.84 429.08 C 256.82 432.13 254.23 434.69 252.93 437.20 C 251.96 436.91 250.99 436.67 250.02 436.46 C 251.29 438.42 252.53 440.40 253.81 442.36 C 252.41 445.36 251.10 448.40 249.92 451.49 C 251.59 451.50 253.26 451.52 254.94 451.52 C 251.06 455.37 249.97 460.86 249.11 466.04 C 251.12 465.42 253.06 464.57 254.89 463.52 C 253.67 468.11 253.04 472.86 253.88 477.57 C 253.45 482.85 253.07 488.17 254.23 493.41 C 256.20 493.10 258.19 493.50 260.16 493.23 C 258.99 497.58 255.72 500.82 251.31 501.84 C 251.69 503.66 251.91 505.57 252.74 507.27 C 254.29 509.35 256.62 510.65 258.80 512.00 L 146.45 512.00 C 144.90 511.52 143.39 510.94 141.87 510.42 C 143.23 509.49 144.59 508.56 145.97 507.66 C 144.35 505.87 142.67 504.14 140.98 502.44 C 141.14 504.49 141.27 506.55 141.31 508.62 C 140.36 507.12 138.30 505.86 138.75 503.86 C 139.23 500.16 139.26 496.41 139.73 492.72 C 140.80 491.75 142.01 490.95 143.19 490.13 C 142.74 487.53 142.55 484.89 142.79 482.27 C 143.34 476.05 140.93 469.09 135.06 466.15 C 137.86 466.34 140.92 466.77 143.35 465.04 C 140.40 460.57 141.17 455.08 140.31 450.06 C 141.34 451.03 142.36 452.02 143.39 453.00 C 143.76 448.61 145.98 443.92 143.52 439.75 C 142.17 439.88 140.81 440.00 139.46 440.12 C 142.12 438.10 144.81 436.07 146.99 433.52 C 146.25 432.79 145.51 432.07 144.78 431.36 C 145.22 429.38 145.70 427.41 146.13 425.43 C 145.38 424.46 144.63 423.49 143.88 422.54 C 145.11 422.88 146.33 423.22 147.57 423.56 C 147.50 421.16 146.25 419.10 144.85 417.24 C 149.98 411.75 148.68 403.90 150.59 397.19 C 150.94 395.49 152.34 394.35 153.45 393.13 C 152.31 392.90 151.17 392.68 150.04 392.47 C 150.33 389.65 150.88 386.87 151.79 384.19 C 153.34 379.72 153.07 374.91 154.22 370.35 C 154.93 367.55 153.79 364.79 153.66 362.00 C 154.73 360.27 157.04 359.90 158.73 358.99 C 157.20 356.29 155.69 353.58 154.19 350.88 C 155.34 350.56 156.49 350.25 157.64 349.94 C 156.81 349.00 155.97 348.06 155.14 347.13 C 155.85 346.75 156.56 346.39 157.27 346.03 C 157.49 344.79 157.72 343.55 157.95 342.32 C 158.61 341.96 159.29 341.63 159.96 341.30 C 159.98 337.24 162.50 334.03 164.98 331.07 C 164.51 330.89 163.58 330.53 163.11 330.35 C 161.57 331.09 160.03 331.82 158.47 332.51 C 160.50 328.85 165.69 328.44 167.01 324.34 C 165.90 323.54 164.60 322.93 163.74 321.84 C 163.45 320.25 163.55 318.62 163.57 317.02 C 164.60 318.12 165.62 319.24 166.64 320.36 C 166.95 320.32 167.58 320.24 167.89 320.20 C 168.22 319.04 168.56 317.88 168.89 316.73 C 170.81 315.98 172.71 315.16 174.39 313.95 C 173.27 312.88 171.83 312.28 170.43 311.67 C 168.91 313.48 167.33 315.25 165.68 316.94 C 165.17 312.22 167.05 307.66 166.60 302.93 C 167.71 303.05 168.82 303.15 169.94 303.23 C 169.53 305.19 169.15 307.16 168.73 309.12 C 169.26 309.21 169.80 309.30 170.34 309.39 C 172.16 305.37 174.96 301.88 176.74 297.85 C 178.15 295.30 175.51 293.18 174.21 291.26 C 172.33 291.76 170.45 292.29 168.56 292.79 C 168.51 289.17 167.32 285.75 165.32 282.77 C 166.17 282.49 167.01 282.22 167.86 281.96 C 167.78 278.09 167.27 274.26 166.44 270.49 C 169.98 269.67 172.80 272.38 175.66 273.98 C 177.16 272.69 178.70 271.44 180.20 270.15 C 181.10 270.61 182.02 271.06 182.94 271.50 C 181.68 272.27 180.41 273.03 179.15 273.81 C 180.66 275.47 182.63 276.56 184.78 277.17 C 184.60 278.35 184.41 279.53 184.22 280.71 C 187.41 277.21 191.99 275.81 196.64 276.47 C 195.87 278.00 195.05 279.50 194.27 281.02 C 195.72 282.40 197.18 283.75 198.64 285.11 C 198.43 281.63 197.96 277.83 200.28 274.90 C 200.87 276.90 201.50 278.90 202.04 280.93 C 203.18 279.98 204.33 279.03 205.48 278.09 C 204.65 277.22 203.83 276.35 203.00 275.49 C 204.99 272.70 207.65 270.52 210.66 268.93 C 212.01 270.00 213.41 271.00 214.79 272.05 C 214.97 270.15 215.10 268.25 215.17 266.34 C 216.38 265.80 217.58 265.25 218.79 264.72 C 219.19 263.47 219.60 262.22 220.00 260.97 Z" />
</g>
<g id="#575864ff">
<path fill="#575864" opacity="1.00" d=" M 318.82 261.97 C 319.41 262.12 320.59 262.41 321.18 262.56 C 322.59 262.91 324.00 263.30 325.41 263.74 C 325.05 264.89 324.69 266.05 324.34 267.21 C 323.98 265.94 323.62 264.68 323.25 263.42 C 320.26 265.35 316.96 266.98 314.51 269.62 C 312.90 272.05 312.78 275.09 312.20 277.88 C 315.27 278.24 318.36 278.48 321.46 278.53 C 320.01 279.61 318.50 280.59 316.99 281.57 C 316.54 281.54 315.64 281.47 315.18 281.44 C 311.82 280.73 308.59 279.43 305.79 277.42 C 306.15 275.95 306.52 274.49 306.90 273.02 C 304.54 271.82 302.18 270.63 299.83 269.43 C 300.44 268.56 301.00 267.65 301.71 266.86 C 305.52 266.33 309.43 266.95 313.23 266.14 C 314.99 265.84 316.71 265.42 318.47 265.10 C 318.61 264.06 318.73 263.01 318.82 261.97 Z" />
</g>
<g id="#64667dff">
<path fill="#64667d" opacity="1.00" d=" M 314.51 269.62 C 316.96 266.98 320.26 265.35 323.25 263.42 C 323.62 264.68 323.98 265.94 324.34 267.21 C 322.91 270.85 321.86 274.62 321.46 278.53 C 318.36 278.48 315.27 278.24 312.20 277.88 C 312.78 275.09 312.90 272.05 314.51 269.62 Z" />
</g>
<g id="#6a6d66fe">
<path fill="#6a6d66" opacity="1.00" d=" M 223.61 267.75 L 224.60 267.95 C 226.06 268.21 227.53 268.43 228.99 268.68 C 227.80 272.55 226.98 276.53 225.98 280.47 C 223.70 276.62 223.10 272.14 223.61 267.75 Z" />
</g>
<g id="#4f4f4eff">
<path fill="#4f4f4e" opacity="1.00" d=" M 228.99 268.68 C 232.95 273.20 236.32 278.19 240.08 282.87 C 239.59 283.07 238.59 283.46 238.09 283.65 C 235.50 282.18 232.92 280.57 230.00 279.85 C 227.27 282.92 231.54 286.81 233.68 289.11 C 235.42 290.36 237.24 291.51 239.15 292.50 C 233.08 297.48 232.89 306.15 234.77 313.16 C 234.93 313.70 235.25 314.78 235.41 315.32 C 239.34 315.28 243.27 315.57 247.17 316.10 C 245.99 316.46 244.83 316.84 243.68 317.25 C 243.40 317.34 242.84 317.53 242.55 317.62 C 242.61 320.06 242.71 322.50 242.84 324.94 C 244.38 326.32 246.21 327.33 248.15 328.04 C 244.91 328.08 241.67 328.33 238.44 328.43 C 238.52 329.67 238.60 330.92 238.69 332.17 C 241.47 332.77 244.55 333.17 246.35 335.65 C 242.64 336.71 238.85 337.46 235.01 337.76 C 230.90 337.92 227.14 340.80 222.96 339.51 C 224.01 338.71 225.07 337.92 226.12 337.13 C 224.03 334.81 221.64 332.59 220.42 329.65 C 218.92 325.64 219.32 321.28 219.51 317.09 C 217.91 317.43 216.31 317.72 214.73 318.11 C 217.12 315.68 220.86 315.60 223.35 313.38 C 224.22 310.16 224.36 306.81 224.63 303.50 C 227.76 301.25 231.03 299.02 233.34 295.87 C 232.47 290.11 229.02 285.27 225.98 280.47 C 226.98 276.53 227.80 272.55 228.99 268.68 M 228.22 312.99 C 228.24 313.69 228.28 315.08 228.31 315.77 C 230.53 316.90 233.29 319.50 235.64 317.15 C 233.86 314.69 231.28 313.14 228.22 312.99 Z" />
</g>
<g id="#7d7a74ff">
<path fill="#7d7a74" opacity="1.00" d=" M 237.15 274.94 C 237.35 274.42 237.77 273.38 237.98 272.86 C 244.19 276.24 248.94 282.09 255.95 283.96 C 256.12 284.63 256.44 285.98 256.60 286.66 C 253.29 285.59 249.79 285.16 246.55 283.87 C 242.51 282.04 239.94 278.21 237.15 274.94 Z" />
</g>
<g id="#2d3033ff">
<path fill="#2d3033" opacity="1.00" d=" M 256.20 276.81 C 258.17 277.06 260.13 277.39 262.08 277.78 C 260.76 278.40 259.44 279.02 258.14 279.66 C 258.60 280.80 258.76 282.14 259.63 283.08 C 261.29 283.76 263.10 284.01 264.86 284.34 C 265.77 285.04 266.66 285.80 267.55 286.54 C 266.61 287.45 265.67 288.36 264.73 289.27 C 261.99 288.48 259.32 287.50 256.60 286.66 C 256.44 285.98 256.12 284.63 255.95 283.96 C 255.58 281.58 255.79 279.17 256.20 276.81 Z" />
</g>
<g id="#4c4d4bff">
<path fill="#4c4d4b" opacity="1.00" d=" M 287.97 282.30 C 294.18 282.00 300.72 281.45 305.79 277.42 C 308.59 279.43 311.82 280.73 315.18 281.44 C 312.30 281.69 308.34 280.99 307.91 284.86 C 306.98 287.19 306.05 289.54 304.75 291.69 C 304.57 291.97 304.22 292.51 304.04 292.78 C 302.76 292.91 301.48 293.02 300.21 293.12 C 300.48 294.05 300.75 294.97 301.02 295.90 C 300.85 298.29 300.55 300.68 300.26 303.06 C 299.17 303.49 298.08 303.93 297.00 304.38 C 294.26 302.85 291.66 300.97 290.14 298.16 C 288.69 295.44 285.59 293.59 282.49 294.48 C 277.06 295.61 271.42 296.69 265.97 295.03 C 266.92 293.51 266.61 291.60 267.54 290.07 C 266.60 289.81 265.66 289.54 264.73 289.27 C 265.67 288.36 266.61 287.45 267.55 286.54 C 266.66 285.80 265.77 285.04 264.86 284.34 C 265.50 284.16 266.77 283.80 267.40 283.62 C 267.46 281.79 267.67 279.96 267.74 278.12 C 270.19 279.62 272.69 281.03 275.21 282.42 C 275.47 280.98 275.72 279.55 275.98 278.12 C 278.25 278.06 280.52 278.36 282.52 279.52 C 280.41 280.32 278.46 281.52 276.33 282.27 C 276.70 282.52 277.45 283.00 277.82 283.25 C 279.49 284.24 281.19 285.19 282.94 286.03 C 281.57 286.86 280.21 287.68 278.86 288.53 C 282.22 292.07 287.90 291.33 292.13 289.96 C 295.17 286.60 290.11 284.34 287.97 282.30 M 304.06 289.29 C 306.84 287.36 307.63 284.05 307.09 280.84 C 304.96 282.97 302.76 286.18 304.06 289.29 Z" />
</g>
<g id="#7e7e7fff">
<path fill="#7e7e7f" opacity="1.00" d=" M 304.06 289.29 C 302.76 286.18 304.96 282.97 307.09 280.84 C 307.63 284.05 306.84 287.36 304.06 289.29 Z" />
</g>
<g id="#000000be">
<path fill="#000000" opacity="0.75" d=" M 307.91 284.86 C 309.02 286.11 310.13 287.38 311.24 288.65 C 316.37 288.55 321.69 287.89 326.69 289.25 C 330.01 290.14 329.02 294.31 329.38 296.92 C 329.18 297.38 328.79 298.30 328.60 298.76 C 324.10 297.68 321.73 293.66 318.75 290.54 C 318.61 291.09 318.34 292.19 318.21 292.74 C 313.69 292.86 309.25 291.82 304.75 291.69 C 306.05 289.54 306.98 287.19 307.91 284.86 Z" />
</g>
<g id="#86837aff">
<path fill="#86837a" opacity="1.00" d=" M 233.27 286.11 C 241.63 287.56 247.92 294.00 256.09 295.95 C 260.28 296.98 264.55 297.61 268.83 298.14 C 273.42 298.71 278.03 297.57 282.62 298.14 C 280.88 299.29 279.20 300.82 277.02 301.00 C 270.39 301.72 263.65 301.25 257.13 299.91 C 250.95 297.93 245.05 295.18 239.15 292.50 C 237.24 291.51 235.42 290.36 233.68 289.11 C 233.55 288.10 233.42 287.11 233.27 286.11 Z" />
</g>
<g id="#4f4f55ff">
<path fill="#4f4f55" opacity="1.00" d=" M 318.75 290.54 C 321.73 293.66 324.10 297.68 328.60 298.76 C 328.79 298.30 329.18 297.38 329.38 296.92 C 330.16 296.80 330.96 296.71 331.76 296.68 C 329.42 298.70 328.47 301.82 330.51 304.42 C 330.78 304.72 331.30 305.33 331.57 305.63 C 334.89 308.83 339.58 307.37 343.42 306.17 L 344.46 305.93 L 344.94 306.58 C 346.03 307.82 347.28 308.94 348.64 309.89 C 354.57 312.70 360.24 316.04 366.10 319.00 C 368.21 320.23 370.97 321.37 371.48 324.06 C 372.24 326.57 370.06 328.38 368.67 330.13 C 367.92 324.97 362.64 323.38 358.63 321.36 C 351.44 318.08 345.03 313.25 337.55 310.60 C 331.08 308.37 325.59 304.18 319.93 300.47 C 319.48 297.87 318.82 295.31 318.21 292.74 C 318.34 292.19 318.61 291.09 318.75 290.54 Z" />
</g>
<g id="#949a87ff">
<path fill="#949a87" opacity="1.00" d=" M 304.75 291.69 C 309.25 291.82 313.69 292.86 318.21 292.74 C 318.82 295.31 319.48 297.87 319.93 300.47 C 325.59 304.18 331.08 308.37 337.55 310.60 C 345.03 313.25 351.44 318.08 358.63 321.36 C 362.64 323.38 367.92 324.97 368.67 330.13 C 368.05 330.44 366.80 331.06 366.18 331.37 C 363.21 331.43 360.26 331.10 357.33 330.70 C 356.65 328.10 354.35 326.97 351.93 326.47 C 346.80 325.85 342.12 328.87 337.01 328.34 C 333.27 328.08 329.53 328.53 326.04 329.90 C 322.78 328.87 319.39 328.45 316.04 327.85 C 315.09 327.36 314.16 326.84 313.23 326.35 C 313.47 325.01 313.72 323.67 313.96 322.34 C 311.67 321.85 309.40 321.37 307.14 320.79 C 310.66 319.12 314.57 318.84 318.37 318.35 C 312.11 312.55 303.45 310.55 296.35 306.01 C 296.51 305.60 296.84 304.78 297.00 304.38 C 298.08 303.93 299.17 303.49 300.26 303.06 C 300.55 300.68 300.85 298.29 301.02 295.90 C 301.90 298.01 302.92 300.06 303.91 302.12 C 304.92 301.61 305.93 301.10 306.94 300.59 C 306.99 297.67 305.99 294.95 304.04 292.78 C 304.22 292.51 304.57 291.97 304.75 291.69 M 309.25 294.00 C 309.21 296.33 309.38 298.66 309.94 300.92 C 312.16 300.48 314.37 299.95 316.59 299.49 C 316.00 298.06 317.28 296.65 316.69 295.23 C 314.25 294.57 311.76 294.19 309.25 294.00 M 308.18 305.84 C 310.38 307.32 311.92 309.49 313.64 311.46 C 316.34 313.13 319.69 313.24 322.60 314.45 C 329.51 317.23 335.75 321.47 342.72 324.11 C 344.50 324.90 346.12 323.31 347.74 322.76 C 347.70 322.18 347.63 321.02 347.60 320.44 C 343.42 318.33 339.27 316.20 335.28 313.77 C 331.69 311.44 326.97 312.84 323.35 310.65 C 321.99 309.89 322.50 308.11 322.24 306.85 C 317.59 306.12 312.87 306.03 308.18 305.84 Z" />
</g>
<g id="#696a62ff">
<path fill="#696a62" opacity="1.00" d=" M 239.15 292.50 C 245.05 295.18 250.95 297.93 257.13 299.91 C 255.93 300.18 254.74 300.49 253.57 300.83 C 253.07 300.97 252.08 301.25 251.59 301.39 C 251.49 303.28 251.22 305.15 251.10 307.04 C 250.20 306.56 249.29 306.09 248.39 305.63 C 248.26 303.47 248.45 301.20 247.65 299.15 C 246.33 297.58 244.04 297.52 242.23 296.85 C 242.72 299.06 243.23 301.28 243.76 303.48 C 241.45 304.13 239.13 304.77 236.83 305.43 C 237.52 307.16 237.81 309.39 239.70 310.28 C 242.75 312.40 246.50 311.32 249.79 310.56 C 252.16 311.65 254.99 314.91 257.59 312.68 C 260.32 310.36 260.49 306.48 261.19 303.22 C 264.73 303.63 268.30 303.80 271.85 304.20 C 271.54 305.77 271.31 307.37 270.95 308.94 C 269.92 310.48 268.93 312.05 267.94 313.61 C 268.71 313.61 270.25 313.61 271.02 313.60 C 269.00 314.97 267.22 316.67 265.88 318.71 C 265.95 318.27 266.10 317.41 266.18 316.97 C 260.02 316.54 254.12 314.54 248.00 313.86 C 243.61 313.29 239.19 313.14 234.77 313.16 C 232.89 306.15 233.08 297.48 239.15 292.50 Z" />
</g>
<g id="#727375ff">
<path fill="#727375" opacity="1.00" d=" M 300.21 293.12 C 301.48 293.02 302.76 292.91 304.04 292.78 C 305.99 294.95 306.99 297.67 306.94 300.59 C 305.93 301.10 304.92 301.61 303.91 302.12 C 302.92 300.06 301.90 298.01 301.02 295.90 C 300.75 294.97 300.48 294.05 300.21 293.12 Z" />
</g>
<g id="#b7ffffff">
<path fill="#b7ffff" opacity="1.00" d=" M 309.25 294.00 C 311.76 294.19 314.25 294.57 316.69 295.23 C 317.28 296.65 316.00 298.06 316.59 299.49 C 314.37 299.95 312.16 300.48 309.94 300.92 C 309.38 298.66 309.21 296.33 309.25 294.00 M 312.19 296.19 C 312.17 296.85 312.11 298.16 312.08 298.82 C 312.81 298.86 314.28 298.94 315.01 298.97 C 315.00 298.22 314.98 296.71 314.97 295.96 C 314.27 296.02 312.89 296.13 312.19 296.19 Z" />
</g>
<g id="#f7ffffff">
<path fill="#f7ffff" opacity="1.00" d=" M 312.19 296.19 C 312.89 296.13 314.27 296.02 314.97 295.96 C 314.98 296.71 315.00 298.22 315.01 298.97 C 314.28 298.94 312.81 298.86 312.08 298.82 C 312.11 298.16 312.17 296.85 312.19 296.19 Z" />
</g>
<g id="#7b7c74ff">
<path fill="#7b7c74" opacity="1.00" d=" M 242.23 296.85 C 244.04 297.52 246.33 297.58 247.65 299.15 C 248.45 301.20 248.26 303.47 248.39 305.63 C 249.29 306.09 250.20 306.56 251.10 307.04 C 251.22 305.15 251.49 303.28 251.59 301.39 C 252.08 301.25 253.07 300.97 253.57 300.83 C 256.07 301.72 258.59 302.60 261.19 303.22 C 260.49 306.48 260.32 310.36 257.59 312.68 C 254.99 314.91 252.16 311.65 249.79 310.56 C 246.50 311.32 242.75 312.40 239.70 310.28 C 237.81 309.39 237.52 307.16 236.83 305.43 C 239.13 304.77 241.45 304.13 243.76 303.48 C 243.23 301.28 242.72 299.06 242.23 296.85 Z" />
</g>
<g id="#6e6e72ff">
<path fill="#6e6e72" opacity="1.00" d=" M 330.51 304.42 C 328.47 301.82 329.42 298.70 331.76 296.68 C 332.24 296.76 333.20 296.90 333.68 296.98 C 336.67 297.46 339.72 297.60 342.70 298.23 C 346.74 298.77 344.94 303.80 344.94 306.58 L 344.46 305.93 C 344.24 303.80 344.13 301.66 343.99 299.52 C 342.46 299.92 340.93 300.31 339.40 300.71 C 339.56 302.44 339.73 304.17 339.89 305.90 C 340.78 305.97 342.54 306.11 343.42 306.17 C 339.58 307.37 334.89 308.83 331.57 305.63 C 333.17 305.45 333.89 304.67 333.71 303.30 C 332.39 302.72 331.32 303.10 330.51 304.42 Z" />
</g>
<g id="#2a2b2ffd">
<path fill="#2a2b2f" opacity="1.00" d=" M 333.68 296.98 C 337.67 297.95 342.02 296.54 345.84 298.19 C 350.36 300.27 347.94 306.00 348.64 309.89 C 347.28 308.94 346.03 307.82 344.94 306.58 C 344.94 303.80 346.74 298.77 342.70 298.23 C 339.72 297.60 336.67 297.46 333.68 296.98 Z" />
</g>
<g id="#52524eff">
<path fill="#52524e" opacity="1.00" d=" M 282.62 298.14 C 283.83 298.53 285.00 299.03 286.09 299.70 C 285.95 301.43 286.20 303.15 286.63 304.83 C 282.05 304.92 277.09 304.53 273.00 306.98 C 272.28 307.59 271.59 308.24 270.95 308.94 C 271.31 307.37 271.54 305.77 271.85 304.20 C 268.30 303.80 264.73 303.63 261.19 303.22 C 258.59 302.60 256.07 301.72 253.57 300.83 C 254.74 300.49 255.93 300.18 257.13 299.91 C 263.65 301.25 270.39 301.72 277.02 301.00 C 279.20 300.82 280.88 299.29 282.62 298.14 Z" />
</g>
<g id="#2d2b2aff">
<path fill="#2d2b2a" opacity="1.00" d=" M 286.63 304.83 C 286.20 303.15 285.95 301.43 286.09 299.70 C 287.64 301.00 289.09 302.43 290.58 303.82 C 289.30 304.98 288.04 306.15 286.71 307.23 C 284.42 308.65 281.80 309.47 279.13 309.71 C 279.36 309.26 279.83 308.37 280.06 307.93 C 277.95 307.55 275.83 307.18 273.70 306.98 L 273.00 306.98 C 277.09 304.53 282.05 304.92 286.63 304.83 Z" />
</g>
<g id="#ffe148ff">
<path fill="#ffe148" opacity="1.00" d=" M 339.40 300.71 C 340.93 300.31 342.46 299.92 343.99 299.52 C 344.13 301.66 344.24 303.80 344.46 305.93 L 343.42 306.17 C 342.54 306.11 340.78 305.97 339.89 305.90 C 339.73 304.17 339.56 302.44 339.40 300.71 Z" />
</g>
<g id="#aaaab1ff">
<path fill="#aaaab1" opacity="1.00" d=" M 330.51 304.42 C 331.32 303.10 332.39 302.72 333.71 303.30 C 333.89 304.67 333.17 305.45 331.57 305.63 C 331.30 305.33 330.78 304.72 330.51 304.42 Z" />
</g>
<g id="#605f66ff">
<path fill="#605f66" opacity="1.00" d=" M 308.18 305.84 C 312.87 306.03 317.59 306.12 322.24 306.85 C 322.50 308.11 321.99 309.89 323.35 310.65 C 326.97 312.84 331.69 311.44 335.28 313.77 C 339.27 316.20 343.42 318.33 347.60 320.44 C 347.63 321.02 347.70 322.18 347.74 322.76 C 346.12 323.31 344.50 324.90 342.72 324.11 C 335.75 321.47 329.51 317.23 322.60 314.45 C 319.69 313.24 316.34 313.13 313.64 311.46 C 311.92 309.49 310.38 307.32 308.18 305.84 Z" />
</g>
<g id="#01010125">
<path fill="#010101" opacity="0.15" d=" M 270.95 308.94 C 271.59 308.24 272.28 307.59 273.00 306.98 L 273.70 306.98 C 273.82 307.75 274.05 309.29 274.16 310.06 C 273.42 311.23 272.68 312.41 271.95 313.59 L 271.02 313.60 C 270.25 313.61 268.71 313.61 267.94 313.61 C 268.93 312.05 269.92 310.48 270.95 308.94 Z" />
</g>
<g id="#6e6c70fd">
<path fill="#6e6c70" opacity="1.00" d=" M 273.70 306.98 C 275.83 307.18 277.95 307.55 280.06 307.93 C 279.83 308.37 279.36 309.26 279.13 309.71 C 277.48 309.91 275.81 309.96 274.16 310.06 C 274.05 309.29 273.82 307.75 273.70 306.98 Z" />
</g>
<g id="#4f4f4dff">
<path fill="#4f4f4d" opacity="1.00" d=" M 279.13 309.71 C 281.80 309.47 284.42 308.65 286.71 307.23 C 286.74 310.12 288.18 312.39 290.88 313.48 C 291.74 312.20 292.61 310.92 293.48 309.64 C 295.31 310.81 297.14 311.99 298.98 313.17 C 298.34 315.64 297.76 318.13 297.26 320.63 C 293.03 323.51 288.07 325.43 282.94 325.77 C 279.19 326.04 275.52 324.09 271.80 325.21 C 271.25 325.35 270.13 325.63 269.57 325.77 C 271.02 325.13 272.47 324.48 273.96 323.92 C 277.36 324.08 280.83 325.26 284.21 324.41 C 288.07 322.55 290.48 318.78 293.27 315.68 C 292.21 315.37 291.17 315.01 290.14 314.61 C 287.77 317.62 285.06 320.37 281.89 322.55 C 281.81 319.39 283.05 314.97 279.20 313.57 C 276.78 313.55 274.36 313.57 271.95 313.59 C 272.68 312.41 273.42 311.23 274.16 310.06 C 275.81 309.96 277.48 309.91 279.13 309.71 Z" />
</g>
<g id="#727477ff">
<path fill="#727477" opacity="1.00" d=" M 228.22 312.99 C 231.28 313.14 233.86 314.69 235.64 317.15 C 233.29 319.50 230.53 316.90 228.31 315.77 C 228.28 315.08 228.24 313.69 228.22 312.99 Z" />
</g>
<g id="#322c29ff">
<path fill="#322c29" opacity="1.00" d=" M 234.77 313.16 C 239.19 313.14 243.61 313.29 248.00 313.86 C 254.12 314.54 260.02 316.54 266.18 316.97 C 266.10 317.41 265.95 318.27 265.88 318.71 C 265.78 319.33 265.59 320.57 265.50 321.20 C 263.60 321.21 261.66 321.04 260.00 320.05 C 256.03 317.89 251.67 316.50 247.17 316.10 C 243.27 315.57 239.34 315.28 235.41 315.32 C 235.25 314.78 234.93 313.70 234.77 313.16 Z" />
</g>
<g id="#b98667ff">
<path fill="#b98667" opacity="1.00" d=" M 271.95 313.59 C 274.36 313.57 276.78 313.55 279.20 313.57 C 279.74 315.60 280.47 317.62 280.64 319.74 C 279.32 322.19 276.28 322.78 273.96 323.92 C 272.47 324.48 271.02 325.13 269.57 325.77 C 269.16 325.94 268.33 326.29 267.92 326.46 C 267.17 324.68 266.25 322.97 265.50 321.20 C 265.59 320.57 265.78 319.33 265.88 318.71 C 267.22 316.67 269.00 314.97 271.02 313.60 L 271.95 313.59 Z" />
</g>
<g id="#605e5dff">
<path fill="#605e5d" opacity="1.00" d=" M 279.20 313.57 C 283.05 314.97 281.81 319.39 281.89 322.55 C 285.06 320.37 287.77 317.62 290.14 314.61 C 291.17 315.01 292.21 315.37 293.27 315.68 C 290.48 318.78 288.07 322.55 284.21 324.41 C 280.83 325.26 277.36 324.08 273.96 323.92 C 276.28 322.78 279.32 322.19 280.64 319.74 C 280.47 317.62 279.74 315.60 279.20 313.57 Z" />
</g>
<g id="#656361ff">
<path fill="#656361" opacity="1.00" d=" M 247.17 316.10 C 251.67 316.50 256.03 317.89 260.00 320.05 C 261.66 321.04 263.60 321.21 265.50 321.20 C 266.25 322.97 267.17 324.68 267.92 326.46 C 265.01 327.72 262.14 329.05 259.23 330.33 C 255.59 329.32 251.90 328.49 248.15 328.04 C 246.21 327.33 244.38 326.32 242.84 324.94 C 244.48 324.01 246.24 322.85 248.21 323.56 C 253.49 324.74 258.81 326.28 264.28 325.47 C 264.43 324.97 264.72 323.98 264.87 323.48 C 257.44 323.53 249.53 322.15 243.68 317.25 C 244.83 316.84 245.99 316.46 247.17 316.10 Z" />
</g>
<g id="#7a7877ff">
<path fill="#7a7877" opacity="1.00" d=" M 214.73 318.11 C 216.31 317.72 217.91 317.43 219.51 317.09 C 219.32 321.28 218.92 325.64 220.42 329.65 C 221.64 332.59 224.03 334.81 226.12 337.13 C 225.07 337.92 224.01 338.71 222.96 339.51 C 221.86 338.88 220.77 338.24 219.69 337.59 C 218.16 331.23 215.48 325.24 213.74 318.95 C 213.98 318.74 214.48 318.32 214.73 318.11 Z" />
</g>
<g id="#8e8f93ff">
<path fill="#8e8f93" opacity="1.00" d=" M 242.55 317.62 C 242.84 317.53 243.40 317.34 243.68 317.25 C 249.53 322.15 257.44 323.53 264.87 323.48 C 264.72 323.98 264.43 324.97 264.28 325.47 C 258.81 326.28 253.49 324.74 248.21 323.56 C 246.24 322.85 244.48 324.01 242.84 324.94 C 242.71 322.50 242.61 320.06 242.55 317.62 Z" />
</g>
<g id="#595a59fe">
<path fill="#595a59" opacity="1.00" d=" M 219.69 337.59 C 212.66 334.35 212.96 325.46 213.74 318.95 C 215.48 325.24 218.16 331.23 219.69 337.59 Z" />
</g>
<g id="#7d807dff">
<path fill="#7d807d" opacity="1.00" d=" M 337.01 328.34 C 342.12 328.87 346.80 325.85 351.93 326.47 C 351.76 327.65 351.57 328.83 351.33 330.01 C 353.33 330.23 355.32 330.47 357.33 330.70 C 360.26 331.10 363.21 331.43 366.18 331.37 C 360.69 332.70 355.78 336.28 349.90 335.62 C 349.32 337.36 350.18 340.31 347.90 340.83 C 347.36 340.83 346.28 340.83 345.75 340.83 C 345.63 339.39 345.51 337.96 345.39 336.53 C 345.58 333.63 341.98 335.26 343.51 337.40 C 339.33 339.01 334.86 336.93 330.59 338.16 C 330.36 336.52 330.28 334.87 329.99 333.25 C 329.12 331.70 327.41 330.91 326.04 329.90 C 329.53 328.53 333.27 328.08 337.01 328.34 M 330.85 331.80 C 334.96 332.05 339.41 331.37 343.06 333.75 C 343.47 332.91 343.83 331.78 343.14 330.98 C 339.20 329.08 334.37 328.87 330.85 331.80 Z" />
</g>
<g id="#514f51ff">
<path fill="#514f51" opacity="1.00" d=" M 351.93 326.47 C 354.35 326.97 356.65 328.10 357.33 330.70 C 355.32 330.47 353.33 330.23 351.33 330.01 C 351.57 328.83 351.76 327.65 351.93 326.47 Z" />
</g>
<g id="#3b3a37ff">
<path fill="#3b3a37" opacity="1.00" d=" M 238.44 328.43 C 241.67 328.33 244.91 328.08 248.15 328.04 C 251.90 328.49 255.59 329.32 259.23 330.33 C 254.96 332.16 250.80 334.28 246.35 335.65 C 244.55 333.17 241.47 332.77 238.69 332.17 C 238.60 330.92 238.52 329.67 238.44 328.43 Z" />
</g>
<g id="#b1b0b7ff">
<path fill="#b1b0b7" opacity="1.00" d=" M 343.51 337.40 C 341.98 335.26 345.58 333.63 345.39 336.53 C 344.92 336.75 343.98 337.19 343.51 337.40 Z" />
</g>
<g id="#65666bff">
<path fill="#65666b" opacity="1.00" d=" M 330.59 338.16 C 334.86 336.93 339.33 339.01 343.51 337.40 C 343.98 337.19 344.92 336.75 345.39 336.53 C 345.51 337.96 345.63 339.39 345.75 340.83 C 346.28 340.83 347.36 340.83 347.90 340.83 C 345.00 341.90 342.18 343.47 339.08 343.81 C 335.64 343.10 333.08 340.45 330.59 338.16 Z" />
</g>
</svg>
