<svg xmlns="http://www.w3.org/2000/svg" width="682.667" height="682.667" viewBox="0 0 512 512"  xmlns:v="https://vecta.io/nano"><path fill="#565653" d="M251.99 156.77c1.61-1.62 3.86-1.64 5.79-.55 2.51.74 2.86 3.56 3.72 5.64-1.21 3.73-5.14 5-8.46 6.22l-3.02-.26-1.07-3.85.89-1.93-2.27-2.6c1.01-.54 2-1.11 2.98-1.72 3.15 1 6.38 1.74 9.65 2.24-.82-1-1.5-2.14-2.55-2.9-1.85-.47-3.78-.37-5.66-.29z"/><path fill="#4e4d52" d="M331.43 156.27c2.46-1.27 5.86-.88 6.96 1.95-2.15.98-4.26 2.16-5.61 4.16l-2.24 3.26c-2.35 2.74-4.71 5.48-6.65 8.53-3.89 5.42-7.7 10.9-10.68 16.88-3.6 2.38-6.48 5.62-9.04 9.05-.77-1.8-1.63-3.55-2.46-5.32l.45-.62 1.66-2.52c2.92.15 6.49-.02 7.91-3.09l.26-1.36c.45-3.86.48-7.82-1.07-11.46l2.97-.51 1.21 1.69c2.95-3.95 5.99-7.82 9.14-11.61 2.46-2.96 4.23-6.52 7.19-9.03z"/><path fill="#737373" opacity=".98" d="M250.55 157.72l1.44-.95c1.88-.08 3.81-.18 5.66.29 1.05.76 1.73 1.9 2.55 2.9-3.27-.5-6.5-1.24-9.65-2.24z"/><path d="M332.78 162.38c1.35-2 3.46-3.18 5.61-4.16l2.03 3.6c.14 2.76-.12 5.53-.36 8.28l-4-.93c.57-1.65 1.2-3.6.05-5.16-.54-1.39-2.13-1.31-3.33-1.63zm-4.84 27.71c1-2.76 2.64-5.22 4.16-7.71 1.05 1.18 2.64 2.16 2.85 3.87.4 3.76-.46 7.5-.8 11.24 1.3-.02 2.6-.02 3.9-.11-2.24 4.32-4.19 8.82-4.98 13.66-.61 1-1.26 1.97-1.9 2.95l-.71-3.64-3.12-.17c-.83 2.13-1.03 4.86-3.21 6.12-.2-2.1-.33-4.2-.41-6.3-.04-1.33-.13-2.66-.22-3.99l-2.06-.54c-2.17 3.74-6.06 6.16-7.81 10.17-1.46 2.75-3.25 5.32-5.27 7.7-1.5 1.41-2.92 2.92-4.11 4.6.53-2.4 1.15-4.78 1.96-7.09-1.59-1.27-3.44-2.11-5.3-2.87l3.66-2.01c-.69-.89-1.04-2.24-2.21-2.63-2.2-.91-4.52.14-6.67.69-.37-1.02-.71-2.05-1-3.09.47-1.76 1.05-3.49 1.74-5.19.59 1.8.75 3.82 1.84 5.42 2.42.55 5.25.32 6.19-2.37 1.02.92 2.08 1.81 3.14 2.7l-.42 6.54c2.35-2.67 4.41-5.58 6.68-8.32 1.02-1.25 2.02-2.52 2.86-3.9 2.01-2.98 3.15-6.59 5.94-8.99.53 1.46.38 3.56 2.15 4.17-.1-3.03-1.72-6.61.95-8.98l3.95 1.53 1.27-1.51c-1.04-.57-2.59-.69-3.04-1.95m-1.79 17.18l-.41.71.4.72.83.01.41-.71-.4-.72-.83-.01z" fill="#99a08a"/><path fill="#6a6b69" d="M237.54 167.93c2.57-3.62 5.97-6.63 10.03-8.49l2.27 2.6-.89 1.93c-.99 1.68-2.15 3.25-3.29 4.82-2.73-.05-5.45-.26-8.12-.86z"/><path fill="#62615d" d="M261.5 161.86c2.05.45 4.13.84 6.11 1.59 1.45 2.17-1.48 3.86-2.31 5.72-4.07.04-7.64 2.03-11.27 3.59l-.99-4.68c3.32-1.22 7.25-2.49 8.46-6.22z"/><path fill="#a7af92" d="M332.78 162.38c1.2.32 2.79.24 3.33 1.63 1.15 1.56.52 3.51-.05 5.16-.6 1.64-1.19 3.3-1.49 5.04-.26 2.46-1.06 4.87-3.31 6.19l-1.54-3.63c-2.79-.13-4.19 2.41-5.68 4.34-2.86 3.99-6.97 7.54-7.29 12.79-.67 2.18-1.73 4.22-2.81 6.22l-2.66-2.03c.72-2.32 1.33-4.68 1.93-7.04 2.98-5.98 6.79-11.46 10.68-16.88 1.98.36 3.98.54 5.99.58.07-3.04.19-6.1.66-9.11l2.24-3.26z"/><path fill="#464446" d="M340.42 161.82l.65 2.25c.23 2.32.77 4.59 1.51 6.8-2.28 1.26-4.21 3.04-5.69 5.16l-2.32-1.82c.3-1.74.89-3.4 1.49-5.04l4 .93.36-8.28z"/><path fill="#5b5c5c" d="M245.66 168.79l3.29-4.82 1.07 3.85-3.96 2.38c.71 1.93 1.9 3.64 3.94 4.31-2.46 1.74-4.16 4.26-5.89 6.66l-4.67 3.03v-5.31c-1.35-2.35-3.3-4.25-5.43-5.89l3.53-5.07c2.67.6 5.39.81 8.12.86z"/><path fill="#80817f" d="M341.07 164.07c2.22 3.96 3.3 8.38 2.96 12.93l-1.34 1.09c-1.01.17-2.03.32-3.01.6-1.03 1.08-1.27 2.66-1.83 4-.72 2.35-1.74 4.66-1.88 7.15-.11 2.03.95 3.84 1.83 5.6 1.06-3.63.76-7.74 3.12-10.9 1.65.33 3.32.59 4.99.86-.62 1.83-1.35 3.63-1.7 5.53.17 1.56.73 3.04 1.17 4.54-2.28 1.14-4.87 1.35-7.33 1.91-1.3.09-2.6.09-3.9.11.34-3.74 1.2-7.48.8-11.24-.21-1.71-1.8-2.69-2.85-3.87l-.84-1.98c2.25-1.32 3.05-3.73 3.31-6.19l2.32 1.82c-.2 1.13-.36 2.27-.5 3.41 3.1-1.67 6.4-4.8 6.19-8.57-.74-2.21-1.28-4.48-1.51-6.8z"/><path fill="#80837f" d="M323.89 174.17c1.94-3.05 4.3-5.79 6.65-8.53-.47 3.01-.59 6.07-.66 9.11-2.01-.04-4.01-.22-5.99-.58z"/><path fill="#707070" d="M246.06 170.2l3.96-2.38 3.02.26.99 4.68-4.03 1.75c-2.04-.67-3.23-2.38-3.94-4.31z"/><path fill="#373737" d="M254.03 172.76c3.63-1.56 7.2-3.55 11.27-3.59l-2 3.12c-.75-1.46-3.58-2.11-4.08-.13.29 1.72 2.57 1.02 3.7.69-1.5 1.18-3.03 2.37-4.81 3.08-2.51.8-5.2.79-7.72 1.56-2.26.92-4.23 2.4-6.28 3.68 1.73-2.4 3.43-4.92 5.89-6.66 1.32-.62 2.68-1.18 4.03-1.75z"/><path fill="#5d5e5f" d="M259.22 172.16c.5-1.98 3.33-1.33 4.08.13l-.38.56c-1.13.33-3.41 1.03-3.7-.69z"/><path fill="#9ba28c" d="M336.89 176.03c1.48-2.12 3.41-3.9 5.69-5.16.21 3.77-3.09 6.9-6.19 8.57.14-1.14.3-2.28.5-3.41z"/><path fill="#d4a082" d="M217.09 187.13c5.81-4.49 11.94-8.68 16.92-14.13 2.13 1.64 4.08 3.54 5.43 5.89-2.4 3.99-5.32 7.64-8.72 10.83-4.35 4.08-7.05 9.55-11.36 13.65-1.21 1.23-3.05 1.14-4.61 1.57-2.87-3.62-7.87-2.58-11.9-3.3-.19-2.39 1.37-4.22 2.99-5.76 3.91-2.71 7.45-5.9 11.25-8.75z"/><path fill="#27272b" d="M303.95 174.99c2.02-2.64 5.74-1.6 8.6-1.69l1.34 1.92-2.97.51-6.76.54c-.81 2.96-1.37 5.98-1.81 9.01.22-3.42-.76-7.4 1.6-10.29z"/><path fill="#68676c" d="M304.16 176.27l6.76-.54c1.55 3.64 1.52 7.6 1.07 11.46-1.26-.43-3.16-.58-3.94.73.42 1.46 2.55.66 3.68.63-1.42 3.07-4.99 3.24-7.91 3.09l-2.14-1.52.67-4.84c.44-3.03 1-6.05 1.81-9.01m.98.9c.22 1.55-.23 3.47 1.17 4.6 1.58.25 3.18.19 4.78.22l.22-3.94c-1.9-1.14-4.05-1.19-6.17-.88z"/><path fill="#ffde45" d="M305.14 177.17c2.12-.31 4.27-.26 6.17.88l-.22 3.94c-1.6-.03-3.2.03-4.78-.22-1.4-1.13-.95-3.05-1.17-4.6z"/><path fill="#696870" d="M324.04 181.11c1.49-1.93 2.89-4.47 5.68-4.34l1.54 3.63.84 1.98c-1.52 2.49-3.16 4.95-4.16 7.71.45 1.26 2 1.38 3.04 1.95l-1.27 1.51-3.95-1.53c-2.67 2.37-1.05 5.95-.95 8.98-1.77-.61-1.62-2.71-2.15-4.17-2.79 2.4-3.93 6.01-5.94 8.99 1.34-6.66 5.34-12.3 9.61-17.41 1.03-1.71 3.54-3.72 1.92-5.79-5.27 3.38-7.91 9.12-11.08 14.25l-.42-2.97c.32-5.25 4.43-8.8 7.29-12.79z"/><path fill="#67686d" d="M342.69 178.09l1.34-1.09c1.58.72 3.23 1.34 4.65 2.37 1.31 2.73 1.68 5.83 1.89 8.82.13 3.3-3.1 5.23-5.19 7.28-.44-1.5-1-2.98-1.17-4.54.35-1.9 1.08-3.7 1.7-5.53l-4.99-.86-.1-.79 3.01-.1.09-2.73-3.19 2.05-2.88-.28c.56-1.34.8-2.92 1.83-4 .98-.28 2-.43 3.01-.6z"/><path fill="#b68a6d" d="M239.44 178.89c.12 1.77.08 3.54 0 5.31-2.33 1.42-4.1 3.52-5.51 5.82l-.75 1.17c-2.11-.06-3.22 1.88-3.28 3.76-2.63 3.37-5.51 6.54-7.96 10.04-1.27 1.63-2.56 3.26-4.07 4.68-.88-.19-1.56-.69-2.04-1.47l-1.86-2.97.78-.29c1.56-.43 3.4-.34 4.61-1.57 4.31-4.1 7.01-9.57 11.36-13.65 3.4-3.19 6.32-6.84 8.72-10.83z"/><path opacity=".76" d="M244.19 183.55c3.71-2.03 7.3-5.1 11.77-4.94 1.73-.01 2.64 1.7 3.8 2.7 1.51 1.75 3.57 2.82 5.6 3.84l-.23 1.67c-1.06 1.23-2.21 2.38-3.37 3.53-1.78-1.67-2.9-3.88-4.53-5.67-2.18-1.03-4.67-.46-6.23 1.33-2.28 2.91-6.96-.1-8.95 3.14-1.4 1.65-.55 3.84-.4 5.74l-.39 3.94c-1.33 1.01-2.65 2.02-3.93 3.09-2.17 1.91-4.4 3.74-6.83 5.3-1.53.9-3.05 1.82-4.72 2.42-1.55.28-3.09-.24-4.62-.43l.61-3.43c3.15-1.74 6.03-3.92 8.73-6.29 3-2.65 6.35-5.01 8.65-8.34 1.74-2.49 3.29-5.11 5.04-7.6z"/><path fill="#94949a" d="M340.73 182.97l3.19-2.05-.09 2.73-3.01.1-.09-.78z"/><path opacity=".04" d="M233.93 190.02c3.22-2.43 6.2-5.49 10.26-6.47-1.75 2.49-3.3 5.11-5.04 7.6-2.3 3.33-5.65 5.69-8.65 8.34-2.7 2.37-5.58 4.55-8.73 6.29l.17-.79c2.45-3.5 5.33-6.67 7.96-10.04 1.79-.5 3.01-1.92 3.28-3.76l.75-1.17z"/><path fill="#5c5b63" d="M317.17 196.87c3.17-5.13 5.81-10.87 11.08-14.25 1.62 2.07-.89 4.08-1.92 5.79-4.27 5.11-8.27 10.75-9.61 17.41-.84 1.38-1.84 2.65-2.86 3.9l-4.66-.33.54-4.47.3-1.66c.33-1.74.74-3.47 1.24-5.17l2.66 2.03c1.08-2 2.14-4.04 2.81-6.22l.42 2.97z"/><path fill="#515154" d="M337.85 182.69l2.88.28.09.78.1.79c-2.36 3.16-2.06 7.27-3.12 10.9-.88-1.76-1.94-3.57-1.83-5.6.14-2.49 1.16-4.8 1.88-7.15z"/><path fill="#474e37" d="M251 186.01c1.56-1.79 4.05-2.36 6.23-1.33 1.63 1.79 2.75 4 4.53 5.67l2.4 1.15-.25 1.53a54.19 54.19 0 0 1-7.06-1.07l-.73-.15 1.8-3.86-6.96-.61-.24 2.99c-2.31-.04-4.63-.01-6.93.29-1.26.2-1.88 1-1.85 2.4l-.15.93-.14.94c-.15-1.9-1-4.09.4-5.74 1.99-3.24 6.67-.23 8.95-3.14z"/><path fill="#3a3835" opacity=".98" d="M265.36 185.15c1.72-.47 3.5-.9 5.3-.78 1.7.69 2.92 2.15 4.31 3.29 1.78-.04 3.58-.3 5.34.09 1.26.64 2.27 1.66 3.36 2.56-.12 2.97-1.57 6.71 1 9.04 2.52 1.19 5.33 1.51 8 2.24l2.54.68 6.5-7.49 2.46 5.32-.41.69c-2.44-.36-4.88.1-7.11 1.12l.48 3.22c.29 1.55.53 3.15 1.2 4.6 1.37 1.02 3.26.4 4.86.63v-6.75l.9 3.76.37 1.43c-.94 2.69-3.77 2.92-6.19 2.37-1.09-1.6-1.25-3.62-1.84-5.42-.69 1.7-1.27 3.43-1.74 5.19l-1.08 1.33c-3.07-.99-1.2-4.18-.54-6.21l.95-2.85c-3.55-1.32-7.27-1.93-10.99-2.5l-1.66-.36c.03-2.63.59-5.3.12-7.91-1.12-1.39-2.66-2.32-4.08-3.36l-1.98 1.61-.62.5c-.88-1.14-1.78-2.29-2.95-3.14-2.13-.87-4.48-.92-6.73-1.23l.23-1.67z"/><path fill="#6c7186" d="M250.96 187.34l6.96.61-1.8 3.86c-1.85 1.43 1.08 4.1 1.52 1.5l-.79-1.35a54.19 54.19 0 0 0 7.06 1.07c-2.46 1.82 1.55 3.32 2.24.94l.16 3.2-1.26.62-4.85-1.3-.84 2.81-1.22.21-.34-3.73c-2.03-.99-4.38-1.47-6.52-.53-2.69 1.31-5.17 3.08-8.09 3.88l.73-4.93-2.13-.25.15-.93c1.66 1.19 3.63-1.13 1.85-2.4 2.3-.3 4.62-.33 6.93-.29l.24-2.99z"/><path fill="#202025" opacity=".65" d="M261.76 190.35l3.37-3.53-.97 4.68-2.4-1.15z"/><path fill="#5f6278" d="M265.13 186.82c2.25.31 4.6.36 6.73 1.23 1.17.85 2.07 2 2.95 3.14-.27 1.39 2.19 2.65 1.95.59l-1.33-1.09 1.98-1.61c1.42 1.04 2.96 1.97 4.08 3.36.47 2.61-.09 5.28-.12 7.91l-1.88-.45 1.44 2.43-3.95 1.85-.64-.56c-2.37-1.87-5.18-3.04-8.08-3.82l-1.95-2.63-.16-3.2-.39-.62-1.85-.32.25-1.53.97-4.68m1.01 1.66c-.71 1.27 1.51 2.3 2.33 1.31.66-1.27-1.52-2.27-2.33-1.31m11.97 2.75l-.41.72.42.71h.82l.41-.72-.42-.72-.82.01z"/><path fill="#9999a1" d="M308.05 187.92c.78-1.31 2.68-1.16 3.94-.73l-.26 1.36c-1.13.03-3.26.83-3.68-.63z"/><path fill="#838698" d="M266.14 188.48c.81-.96 2.99.04 2.33 1.31-.82.99-3.04-.04-2.33-1.31z"/><path opacity=".75" d="M294.14 192.11c1.02-2.82 4.42-2.05 6.75-2.32l1.27 4.37-.45.62c-2.02 2.63-4.26 5.06-6.5 7.49l-2.54-.68c.42-3.16.35-6.46 1.47-9.48z"/><path fill="#4b382b" opacity=".64" d="M229.9 194.95c.06-1.88 1.17-3.82 3.28-3.76-.27 1.84-1.49 3.26-3.28 3.76z"/><path fill="#8f929a" d="M241.94 193.02c-.03-1.4.59-2.2 1.85-2.4 1.78 1.27-.19 3.59-1.85 2.4z"/><path fill="#abaeb9" d="M274.81 191.19l.62-.5 1.33 1.09c.24 2.06-2.22.8-1.95-.59z"/><path fill="#b0afbd" d="M278.11 191.23l.82-.01.42.72-.41.72h-.82l-.42-.71.41-.72z"/><path fill="#8a8f85" d="M304.17 200.1c2.56-3.43 5.44-6.67 9.04-9.05-.6 2.36-1.21 4.72-1.93 7.04-.5 1.7-.91 3.43-1.24 5.17-2.12-.77-4.19-1.65-6.28-2.47l.41-.69z"/><path fill="#9ea0ad" d="M256.12 191.81l.73.15.79 1.35c-.44 2.6-3.37-.07-1.52-1.5z"/><path fill="#9594a2" d="M263.91 193.03l1.85.32.39.62c-.69 2.38-4.7.88-2.24-.94z"/><path fill="#5f637a" d="M241.79 193.95l2.13.25-.73 4.93c2.92-.8 5.4-2.57 8.09-3.88 2.14-.94 4.49-.46 6.52.53-2.68 2.74-6.37 4.17-8.98 6.98-1.52.77-3.07 1.46-4.63 2.15-1.07-1.98-2.14-3.97-2.93-6.08.1-1.31.26-2.63.39-3.94l.14-.94z"/><path fill="#615b53" d="M194.9 203.25c3.5-2.66 7.48-4.62 10.94-7.37-1.62 1.54-3.18 3.37-2.99 5.76 4.03.72 9.03-.32 11.9 3.3l-.78.29c-2.82 1.48-5.4 3.42-7.25 6.03.55 1.34 1.83 2.75.87 4.23-2.32 5.28-5.87 9.95-10.15 13.79-.12-2.07-.3-4.14-.28-6.22 2.42-5.31 5.63-10.25 9.02-14.99 1.07-1.53 1.93-3.19 2.74-4.87-3.35.05-6.74-.03-10.04.64-.1.02-.28.07-.37.1l-2.39.85-1.22-1.54z"/><path fill="#676869" d="M257.8 195.78l.34 3.73 1.22-.21c1.95-.28 3.92-.59 5.69-1.51l1.26-.62 1.95 2.63c0 3.08-.18 6.18-1.04 9.16-2.32-.26-4.5.58-6.34 1.95l-.68.37-2.18 1.15c-3.03.64-6.15.69-9.23.5 2.27-.8 4.61-1.41 6.96-1.96l-5.44-.32c-.3-2.3-.47-4.79-2.43-6.34l.94-1.55c2.61-2.81 6.3-4.24 8.98-6.98z"/><path fill="#dfdee1" d="M259.36 199.3l.84-2.81 4.85 1.3c-1.77.92-3.74 1.23-5.69 1.51z"/><path fill="#4a4a4e" d="M241.26 198.83c.79 2.11 1.86 4.1 2.93 6.08l4.63-2.15-.94 1.55-3.28 3.91c-2.94-1.56-3.89-5.39-7.27-6.3l3.93-3.09z"/><path fill="#575859" d="M268.26 199.8c2.9.78 5.71 1.95 8.08 3.82l-3.61 2.19c-.48 1.4-.53 2.91-.68 4.38-1.09.27-2.41 1.68-3.46.64l-1.37-1.87c.86-2.98 1.04-6.08 1.04-9.16z"/><path d="M279.49 199.9l1.88.45 1.66.36.25 3.17c3.29.57 6.58 1.23 9.79 2.18-.66 2.03-2.53 5.22.54 6.21l1.08-1.33c.29 1.04.63 2.07 1 3.09 1.54 1.55 3.27 2.93 5.22 3.95 1.86.76 3.71 1.6 5.3 2.87-.81 2.31-1.43 4.69-1.96 7.09l2.99 3.8c-.3 3.3-.48 6.62-.19 9.92l1.56.28c-1.26 1.62-2.63 3.19-3.47 5.08-.89 2.57-1.16 5.3-1.87 7.92-.97 3.04-2.1 6.03-3.44 8.93-1.67 3.64-4.4 6.68-5.94 10.39l-.7 1.54c2.2.45 4.37 1.08 6.42 2.02l-1.59 3.35c3.99 1.84 8.36 1.44 12.6 1.18l1.55.34-1.89 4.3.67 1.69 2.35-.65 3.68 1.49c1.6-2.12 2.97-4.4 4.09-6.81-1.08-.28-2.32-.17-3.26-.82-.95-1.18-1.64-2.55-2.43-3.83 1.36-.97 2.58-2.27 4.27-2.64 2.14-.58 4.74-1.02 5.68-3.36.99-2.01 1.8-4.11 2.52-6.23-.65 4.41-.89 8.89-.7 13.35 2.49-1.45 2.97-4.28 3.45-6.88l2.91.13c.92 4.91 1.36 9.92.82 14.9l-1.2-1.23c-.73 1.66-1.39 3.34-2.17 4.98-1.22 2.86-4.34 4.51-4.97 7.68-3.49-.26-7.52.11-10.33-2.37-1.42-1.79-2.11-4.02-2.99-6.1-2.69-.01-5.35.47-7.8 1.59-2.5-.16-4.51-1.61-6.08-3.46 3.39-.07 6.77-.19 10.14-.44l-.01-3.03c-4.22.55-8.56 1.24-12.72-.02-.78-.94-1.42-2.09-2.53-2.66-2.83-.08-5.63.51-8.37 1.14l.55-1.9c5.54-6.01 9.56-13.17 13.19-20.44 2.16-4.41 2.2-9.4 3.07-14.13 1.09-3.36 2.06-6.95 1.33-10.49-.71-1.7-1.99-3.07-3.08-4.53.68-2.51 1.21-5.06 1.6-7.63l-2.34.15-1.67 3.94c-1.59-.49-3.26-.82-4.69-1.69-.67-1.54-1.09-3.18-1.49-4.8l-.47-2.41-4.55-.35-.57 3.42-2.73.43c-.19-1.72-.36-3.43-.45-5.15-.12-2.36.05-4.82-.78-7.06-1.21-2.57-3.26-4.62-5.24-6.59l3.95-1.85-1.44-2.43m45.56 82.34c.68 2.37 2.84 3.18 5.07 3.59.01-2.28-.6-4.47-2.04-6.26l-3.03 2.67m-24.91 1.1c-.41 1.38.09 1.88 1.49 1.5.4-1.4-.09-1.9-1.49-1.5zm-25.9-5.24l5.46-.07-.48 2.35-1.39 5.4c-3.07-1.22-6.38-1.36-9.61-.75l-3.15-3.05c3.33-.46 6.62-1.62 9.17-3.88z" fill="#4d4d4c"/><path fill="#878688" d="M283.03 200.71c3.72.57 7.44 1.18 10.99 2.5l-.95 2.85c-3.21-.95-6.5-1.61-9.79-2.18l-.25-3.17z"/><path fill="#909290" d="M296.65 201.91c2.23-1.02 4.67-1.48 7.11-1.12l6.28 2.47-.3 1.66c-1.6 1.37-3.54 2.27-5.65 2.45l-.9-3.76c-2.14-.03-4.2.48-6.06 1.52l-.48-3.22z"/><path fill="#6d6a62" d="M237.33 201.92c3.38.91 4.33 4.74 7.27 6.3-.89 1.44-1.69 2.93-2.42 4.45-3.2.12-4.54 3.24-6.03 5.57-2.11 3.54-4.72 6.73-7.17 10.03.39-2.11.82-4.28 2.14-6.03 2.35-3.41 4.39-7.02 6.02-10.83l-2.83.88c1.43-1.8 3.59-2.68 5.61-3.63-.73-1.72-1.71-3.31-2.9-4.75l-2.6 2.15 1.09 3.17c-1.8-.35-3.54-.91-5.01-2.01 2.43-1.56 4.66-3.39 6.83-5.3z"/><path fill="#484947" d="M184.75 212.4c3.47-2.95 6.99-5.86 10.15-9.15l1.22 1.54 2.39-.85.37-.1c3.3-.67 6.69-.59 10.04-.64-.81 1.68-1.67 3.34-2.74 4.87a146.65 146.65 0 0 0-5 1.68l-1.24-2.19c-4.05 3.78-6 9.08-9.1 13.56-1.18.99-2.42 1.92-3.64 2.85l-1.34-3.71 1.04-4.97-2.15-2.89z"/><path fill="#cac7ca" d="M198.51 203.94c.09-.03.27-.08.37-.1l-.37.1z"/><path fill="#595952" d="M234.42 206.06l2.6-2.15c1.19 1.44 2.17 3.03 2.9 4.75-2.02.95-4.18 1.83-5.61 3.63-2.57 3.37-6.11 6.04-7.9 9.97-1.99 4.17-4.22 8.3-7.42 11.69.43-5.53 3.61-10.21 6.69-14.62 1.24-1.74 2.35-3.57 3.38-5.45-4.58-.12-9.19-.06-13.68-1.11-1.79-.58-2.97 1.35-4.24 2.26.62-1.87 1.13-3.78 1.64-5.69l3.05-1.14c.48.78 1.16 1.28 2.04 1.47 1.51-1.42 2.8-3.05 4.07-4.68l-.17.79-.61 3.43c1.53.19 3.07.71 4.62.43 1.67-.6 3.19-1.52 4.72-2.42 1.47 1.1 3.21 1.66 5.01 2.01l-1.09-3.17z"/><path fill="#6a6760" d="M272.73 205.81c1.14-.83 2.39-1.5 3.61-2.19l.64.56c1.98 1.97 4.03 4.02 5.24 6.59.83 2.24.66 4.7.78 7.06-.51 2.48-1.47 4.85-3.06 6.84-1.92-5.03-2.72-10.38-4.35-15.49-1.19.31-2.38.62-3.54 1.01.15-1.47.2-2.98.68-4.38z"/><path fill="#a4fbff" d="M297.13 205.13c1.86-1.04 3.92-1.55 6.06-1.52v6.75c-1.6-.23-3.49.39-4.86-.63-.67-1.45-.91-3.05-1.2-4.6m1.89-.25l.07 2.98 2.81-.01.12-2.99-3 .02z"/><path fill="#82817b" d="M244.6 208.22l3.28-3.91c1.96 1.55 2.13 4.04 2.43 6.34l-2.12.06c-1.81 4.24-5.86 8.06-4.93 13.01.34 2.91 3.3 4.2 5.36 5.79-.15 2.74-.53 5.54-2.15 7.85-.26-2.28-.43-4.59-1.05-6.8-1.26-1.69-3.2-2.67-4.88-3.86.03-4.71.24-9.49 1.64-14.03.73-1.52 1.53-3.01 2.42-4.45z"/><path fill="#f5ffff" d="M299.02 204.88l3-.02-.12 2.99-2.81.01-.07-2.98z"/><path fill="#8b8f7d" d="M304.09 207.37c2.11-.18 4.05-1.08 5.65-2.45l-.54 4.47 4.66.33c-2.27 2.74-4.33 5.65-6.68 8.32l.42-6.54-3.14-2.7-.37-1.43z"/><path fill="#605f62" d="M321.44 205.47l2.06.54.22 3.99c-1.16 2.35-3.03 4.21-4.89 6.01l2.07 2.17-1.41 3.99-.9-4.49c-2.86 2.38-4.95 5.52-6.56 8.85l1.47.2-1.1 1.72-1.92.56-1.05 1.28c-.92-.89-1.87-1.75-2.69-2.73.17-1.52.99-2.86 1.62-4.22 2.02-2.38 3.81-4.95 5.27-7.7 1.75-4.01 5.64-6.43 7.81-10.17z"/><path fill="#2e2e29" d="M206.72 211.26c1.85-2.61 4.43-4.55 7.25-6.03l1.86 2.97-3.05 1.14-1.64 5.69c-2.98 5.4-6.35 10.57-9.28 16.01-1.46 2.15-4 3.2-5.61 5.18.27 1.68.88 3.28 1.42 4.89-1.84-.78-3.77-1.32-5.66-1.95l3.18-1.29c-.02-1.4-.03-2.79-.14-4.17.85-1.45 1.63-2.93 2.39-4.42 4.28-3.84 7.83-8.51 10.15-13.79.96-1.48-.32-2.89-.87-4.23z"/><path fill="#6a706a" d="M326.15 207.27l.83.01.4.72-.41.71-.83-.01-.4-.72.41-.71z"/><path fill="#6f7071" d="M190.84 221.12c3.1-4.48 5.05-9.78 9.1-13.56l1.24 2.19c-2.5 5.78-5.87 11.12-8.68 16.75l-1.55-.93c-.11-1.48-.14-2.97-.11-4.45z"/><path fill="#8b8d90" d="M201.18 209.75l5-1.68c-3.39 4.74-6.6 9.68-9.02 14.99-.73 1.62-1.39 3.44-3.05 4.36l-1.61-.92c2.81-5.63 6.18-10.97 8.68-16.75z"/><path fill="#85837c" d="M260.88 210.91c1.84-1.37 4.02-2.21 6.34-1.95l1.37 1.87c1.05 1.04 2.37-.37 3.46-.64l3.54-1.01c1.63 5.11 2.43 10.46 4.35 15.49 1.59-1.99 2.55-4.36 3.06-6.84.09 1.72.26 3.43.45 5.15l2.73-.43.57-3.42 4.55.35.47 2.41c-.18 2.61-.68 5.18-1.14 7.76l-3.67-1.15-2.81 5.45.55-6.99c-3.28.49-6.17 2.1-8.63 4.27.26 5.15.85 10.28 1.15 15.42-1.71 3.52-2.88 8.15-6.95 9.64-6.88 2.94-14.61 2.34-21.53-.12-1.28-2.56-2.32-5.24-2.98-8.03l.14-2.09c2.13 1.11 4.21 2.38 5.85 4.17 1.9 1.86 3.77 4.46 6.76 4.29 3.05-.06 6.43-.21 9-2.03 2.49-6.17 1.9-12.95 2.74-19.43.47-2.59-1.76-4.29-3.17-6.1-1.67-1.76-2.19-4.21-2.89-6.45-.46-1.9-1.11-3.73-1.82-5.54l1.55-2.94-3.27-.66.23-.45m11.39 1.33v.45h.45v-.45h-.45m16.99 16.05v.46h.45v-.46h-.45z"/><path fill="#97958d" d="M248.19 210.71l2.12-.06c1.82-.01 3.63.15 5.44.32l-6.96 1.96c3.08.19 6.2.14 9.23-.5l1.75 2.73-1.44.14-.26.69.66 1.35-.15 2.9-.02.47c.07 5.53-.91 11.17.44 16.61 1.52-.52 3.09-.96 4.5-1.77 1.78-4.9-.83-10.09.69-15.05.7 2.24 1.22 4.69 2.89 6.45 1.41 1.81 3.64 3.51 3.17 6.1-.84 6.48-.25 13.26-2.74 19.43-2.57 1.82-5.95 1.97-9 2.03-2.99.17-4.86-2.43-6.76-4.29-1.64-1.79-3.72-3.06-5.85-4.17l.57-8.69c1.62-2.31 2-5.11 2.15-7.85-2.06-1.59-5.02-2.88-5.36-5.79-.93-4.95 3.12-8.77 4.93-13.01z"/><path d="M318.83 216.01c1.86-1.8 3.73-3.66 4.89-6.01l.41 6.3c2.18-1.26 2.38-3.99 3.21-6.12l3.12.17.71 3.64 1.9-2.95c-.53 1.92-.54 4.41-2.58 5.43-2.9 1.62-6.38 1.41-9.59 1.71l-2.07-2.17zm-76.6 17.27c-.49-2.21-1.44-4.31-1.69-6.58 1.68 1.19 3.62 2.17 4.88 3.86.62 2.21.79 4.52 1.05 6.8l-.57 8.69-.14 2.09-2.7-7.34c-.68-2.45-.39-5.03-.83-7.52z" fill="#696b6a"/><path fill="#8b8c84" d="M234.31 212.29l2.83-.88c-1.63 3.81-3.67 7.42-6.02 10.83-1.32 1.75-1.75 3.92-2.14 6.03l-.42.71c-1.79 3.05-4.1 5.87-5.12 9.31-1.56 6.14-2.99 12.35-5 18.37-2.47-3.92-.3-8.27-.63-12.48-.26-3.19 2.68-6.23.64-9.27-1.32 3.18-1.99 6.92-4.94 9.08l1.21 4.02c-4.86-2.04-8.37-6.2-10.88-10.71 1.75-3.28 3.84-6.37 6.44-9.03 3.29-3.16 2.32-8.47 5.25-11.81 3.49-2.51 7.63.31 10.15 2.87-3.08 4.41-6.26 9.09-6.69 14.62 3.2-3.39 5.43-7.52 7.42-11.69 1.79-3.93 5.33-6.6 7.9-9.97z"/><path d="M260.2 211.28l.68-.37-.23.45-.45-.08zm1.06 8.99h.45l.01.45h-.46v-.45zm28 8.02h.45v.46h-.45v-.46z" fill="#fff"/><path fill="#73756b" d="M211.14 215.03c1.27-.91 2.45-2.84 4.24-2.26 4.49 1.05 9.1.99 13.68 1.11-1.03 1.88-2.14 3.71-3.38 5.45-2.52-2.56-6.66-5.38-10.15-2.87-2.93 3.34-1.96 8.65-5.25 11.81-2.6 2.66-4.69 5.75-6.44 9.03-.86-2.02-1.45-4.14-1.98-6.26 2.93-5.44 6.3-10.61 9.28-16.01z"/><path fill="#545653" d="M236.15 218.24c1.49-2.33 2.83-5.45 6.03-5.57-1.4 4.54-1.61 9.32-1.64 14.03.25 2.27 1.2 4.37 1.69 6.58.44 2.49.15 5.07.83 7.52.71 2.52 1.84 4.88 2.7 7.34.66 2.79 1.7 5.47 2.98 8.03l-1.9.8a90.51 90.51 0 0 0-2.27-2.52c-.97-1.08-2.04-2.09-2.71-3.39.51-1.18 1.16-2.29 1.79-3.4-1.48-1.68-3.21-3.22-4.19-5.26-.77-1.84-.89-3.85-1.16-5.79.04-3.13-.72-6.23-3.1-8.41-2.13.77-4.38 1.3-6.64.78l.42-.71c2.45-3.3 5.06-6.49 7.17-10.03z"/><path fill="#52555b" d="M258.02 212.43l2.18-1.15.45.08 3.27.66-1.55 2.94-2.3.98-.3-.78-1.75-2.73m3.25.86l.01.45h.45v-.45h-.46z"/><path fill="#cac7c9" d="M272.27 212.24h.45v.45h-.45v-.45z"/><path fill="#6e6c68" d="M179.61 218.51c.83-2.63 3.22-4.3 5.14-6.11l2.15 2.89-1.04 4.97-2 .64.05-3.81-3.72 2.17 1.07 7.57c-2.43-2.03-2.26-5.51-1.65-8.32z"/><path fill="#c7c7c7" d="M261.27 213.29h.46v.45h-.45l-.01-.45z"/><path fill="#6e6e71" d="M295.69 214.03c2.15-.55 4.47-1.6 6.67-.69 1.17.39 1.52 1.74 2.21 2.63l-3.66 2.01c-1.95-1.02-3.68-2.4-5.22-3.95z"/><path fill="#b8b7b4" d="M258.33 215.3l1.44-.14.3.78-1.34 1.4-.66-1.35.26-.69z"/><path fill="#7c828e" d="M260.07 215.94l2.3-.98c.71 1.81 1.36 3.64 1.82 5.54-1.52 4.96 1.09 10.15-.69 15.05-1.41.81-2.98 1.25-4.5 1.77-1.35-5.44-.37-11.08-.44-16.61l.02-.47.15-2.9 1.34-1.4m1.19 4.33v.45h.46l-.01-.45h-.45m0 2.1c-.79 1.2-.76 3.02.04 4.22 1.39-.3 1.38-3.95-.04-4.22m0 6.89v.45h.46l-.01-.46-.45.01m-.91 3.02l-.01.45.45.01v-.45l-.44-.01m.92 1.97l-.01.45h.45v-.45h-.44z"/><path fill="#8b8a8a" d="M180.19 219.26l3.72-2.17-.05 3.81-.9 7.63-1.7-1.7-1.07-7.57z"/><path fill="#706f72" opacity=".96" d="M312.03 226.53c1.61-3.33 3.7-6.47 6.56-8.85l.9 4.49 2.6.67c.41 1.31.81 2.62 1.28 3.92-2.3-1.29-4.32-3.67-7.05-3.84-1.04 1.19-1.91 2.51-2.82 3.81l-1.47-.2z"/><path fill="#575a59" d="M185.86 220.26l1.34 3.71 3.64-2.85.11 4.45 1.55.93 1.61.92c-.28 2.15.1 4.28.94 6.28l.14 4.17-3.18 1.29c-5-1.4-7.15-6.31-9.05-10.63.18-2.56.64-5.09.9-7.63l2-.64z"/><path fill="#d3d4d1" d="M258.56 220.71l.02-.47-.02.47z"/><path fill="#bec3cb" d="M261.26 222.37c1.42.27 1.43 3.92.04 4.22-.8-1.2-.83-3.02-.04-4.22z"/><path fill="#585958" d="M290.63 229.65l1.14-7.76c.4 1.62.82 3.26 1.49 4.8 1.43.87 3.1 1.2 4.69 1.69-1 4.13.04 8.36.38 12.51.49 3.76.12 7.55-.33 11.29-.25 3.64-1.42 7.13-3.59 10.07-1.6 1.08-3.35 2.07-4.38 3.77-3.36 4.95-5.88 10.68-10.81 14.36l.48-2.35-5.46.07c2.37-2.26 4.71-4.56 6.84-7.05 2-2.3 2.8-5.31 4-8.05.88-2.37 2.66-4.94 1.05-7.42 1.86-1.39 3.19-3.33 4.22-5.38.93-3.88 1.33-7.86 1.77-11.81l-2.15 1.17-1.2-.76-2.39 1.03.38-4.2 5.41.73-.58-2.63c-1.25-.25-2.5-.57-3.77-.61-1.53.51-2.77 1.6-4.15 2.4l-2.36 1.11a81.24 81.24 0 0 0-.47 3.49c.19 1.66.47 3.31.75 4.96-.85 1.3-1.72 2.6-2.51 3.95l-.97 2.16-.89-4.54c-.3-5.14-.89-10.27-1.15-15.42 2.46-2.17 5.35-3.78 8.63-4.27l-.55 6.99 2.81-5.45 3.67 1.15z"/><path fill="#747679" d="M194.11 227.42c1.66-.92 2.32-2.74 3.05-4.36-.02 2.08.16 4.15.28 6.22l-2.39 4.42c-.84-2-1.22-4.13-.94-6.28z"/><path fill="#4f4f4e" d="M313.5 226.73l2.82-3.81c2.73.17 4.75 2.55 7.05 3.84 3.39 3.96 4.11 9.37 3.88 14.4-1.89-4.84-5.81-8.23-9.33-11.85l-1.65 2.48c3.12 2.41 6.11 5.09 7.87 8.69-3.24-.69-6.75-1.42-9.73.53.12.47.34 1.41.45 1.89-.51.27-1.01.55-1.5.83l1.32 5.63c-1.22-.88-2.96-1.54-3.21-3.21 1.47-4.11-.85-8.09-2.28-11.85 2.15-.58 4.7-1.06 5.67-3.37-.3-1.27-1.51-1.81-2.46-2.48l1.1-1.72z"/><path opacity=".05" d="M322.09 222.84l3.96 1.02 1.64 3.67c2.7 0 5.46-.16 8.09.6 4.85 1.44 9.79 2.8 14.17 5.42 2.37-.63 4.75-1.54 7.24-1.48 1.82.38 3.26 1.75 5.07 2.21 5.15 1.01 10.46 2.32 15.66.82l-1.52 5.06c2.72-.92 5.25-2.3 7.6-3.94 2.07 3.52 5.64 5.89 9.42 7.24 1.3-.16 2.56-.62 3.82-1l.62 1.04c2.64-.06 5.28.16 7.86.73l2.35-1.87c3.2.87 6.61 1.38 9.73-.11l-1.38 4.1 3.25 1.46 2.57-4.6c3.52.78 7.01 1.99 10.66 1.98 3.05.01 6.16-.02 9.11.87 2.69.82 5.23 2.05 7.89 2.99-1.67-1.89-3.46-3.65-5.25-5.41 3.63-1.84 6.91 1.57 8.56 4.51l-2.24.68 1.19 2.01c1.13-1.04 2.35-2.02 3.28-3.27.42-1.22.48-2.53.83-3.76.86-.79 1.86-1.38 2.83-2.03l1.99 3.17a189.96 189.96 0 0 0 5.68-1.5l-.32 3.3c2.6 1.5 5.52 2.6 8.55 1.88l-2.02-3.37c4.87.31 8.4 4.3 13.01 5.56l-1.5-4.88c3.45-.24 6.83-1.02 9.9-2.65 1.69-1.04 3.56-.17 5.06.76l-2.78 1.08c2.22.51 4.49.7 6.77.63l-.02-3.38 3.27.21-.76-4.18c1.96 1.48 4.02 2.81 6.07 4.17v148.64c-2.71-2.35-5.18-5.24-8.69-6.38.35 1.81.76 3.61 1.18 5.41l-4.51-.82 2.04-3.82c-1.36-1.2-3.04-1.88-4.77-2.33l-2.09 2.63 3.42 2.8c-.76.59-1.5 1.22-2.33 1.7-2.05.08-4.05-.58-5.98-1.2-3.17-.99-5.43-3.89-8.82-4.3l-.12 4.26-4.73-1.42-.3-2.76-2.95 2.19c-2.78-1.94-6.16-2.53-9.45-2.92-.44 1.21-.98 2.39-1.65 3.51-3.15-1.8-6.48-3.28-9.99-4.19l-2.49 2.35c-2.35-.94-4.26-2.6-6.01-4.37l-4.63 1.28-6.23-4.1a57.79 57.79 0 0 1 .35-1.53c-3.02-.36-5.85-1.46-8.51-2.86a68.99 68.99 0 0 0 4.25 4.98c-1.52.98-3.07 1.93-4.65 2.82-1.25-1.54-2.36-3.25-3.95-4.47-3.15-1.05-6.63-.33-9.74-1.54-1.57-.47-3.13-1.4-4.81-1.05-3.65.66-7.04 2.22-10.62 3.12 1.48-1.47 3.01-2.9 4.57-4.29-2.21.77-4.39 1.72-6.73 1.98-3.41-.33-6.44-2.18-9.81-2.67-1.9-.26-3.82.06-5.71-.21-1.17-.78-2.13-1.82-3.14-2.77l3.53-3.2-8.89 3.41c-2.99 1.18-6.24.26-9.31-.01l-.48-3.59c-3.2 1.1-5.88 4.1-9.44 3.71.93-.74 1.87-1.46 2.83-2.17-.7-3.25-3.07-5.86-6.32-6.66l-3.55 5.19-4.86-3.76c-2.8 1.22-5.83 1.94-8.77.76 1.88-1.08 3.87-1.99 5.65-3.24 1.32-.82 1.76-3.28.02-3.85-3.11-1.09-6.74-2.64-9.83-.71 2.99 1.19 6.02 2.28 8.95 3.63-3.26 1.57-7.08.18-10.57.54-.63-1.24-1.32-2.45-1.77-3.76-.02-2.11 1.85-4.53-.62-5.93-1.48 1.81-2.14 4.06-2.57 6.33.91 1.34 1.86 2.67 2.58 4.14-.52 1.65-1.81 2.91-2.77 4.32 2.65-.24 5.29-.63 7.92-1.1-.61 2-.68 4.9-3.11 5.58-3.1-.48-4.9-3.17-7.06-5.11-1.56-.83-3.59-.7-5.2-.05-1.93 1.07-.58 3.48-.48 5.15l-2.39 1.74-4.44-3.87-4.24-.03 1.21-2.4 4.34.01a164.04 164.04 0 0 1 1.75-9.36h-4.03l1.2 5.71c-3.75.74-7.53 1.39-11.35 1.65 2.28 1.65 4.69 3.36 5.79 6.07l-3.7.22-2.66 2.41c-.47-1.75-.87-3.51-1.5-5.2-1.64-1.15-3.23.84-4.75 1.36l1.33-3.05-2.81 1.14c-.6 2.1-1.62 4.04-3.1 5.65-1.64-.79-3.27-1.6-4.87-2.45l4.59-.97 1.35-3.92c-2.54-.07-5.2.1-7.59-.89-1.82-.97-3.3-2.44-4.87-3.74-1.66 2.65-.98 5.79-.77 8.71l-2.84 1.34-1.37-1.01a50.44 50.44 0 0 0 1.25-8.63l-1.67-1.53-3.21 5.33-.68-1.98-4.24 1.47 1.99-5.22-3.1 1.19-1.05-2.9 7.12-1.11c-.51-1.99-1.46-3.82-2.59-5.52l1.47-2.29 2.26 4.39 2.78-5.22c-1.92-1.05-3.87-2.02-5.86-2.88 5.02-.47 9.22-3.55 14-4.89-3.16-1.22-6.28-2.57-9.29-4.11l-1.98 6.92c-1.01-1.37-2.81-2.58-2.58-4.48.33-1.98 1.43-3.71 2.3-5.49l-.83-2.82 5.37-1.45c-2.65-2.62-6.84-3.25-10.25-1.97-1.48 2.12-2.81 4.37-4.73 6.14-.18-.44-.56-1.31-.75-1.75 1.76-3.03 3.81-5.97 6.88-7.8l1.08-3.25c.37-.21 1.1-.64 1.46-.86l1.25 4.44c1.68-.03 3.34-.31 4.96-.77-.53-1.06-.59-2.57-1.85-3.05-2.8-1.47-5.46-3.18-8.25-4.65-1.68-1.03-3.63-.29-5.4.02l-.33 1.76c1.66.8 3.27 1.71 4.84 2.69-1.89-.06-3.77-.27-5.65-.12-2.14.57-2.41 3.07-3.1 4.82l-1.61.54c-.47-4.46-1.45-8.85-1.93-13.31 2.24-7.9 2.38-16.12 3.36-24.21a57.52 57.52 0 0 0 13.24.65l7.22.33c1.41.9 2.73 2.45 4.58 2.22 5.21-.69 10.19-2.89 14.26-6.23 2.74-.63 5.54-1.22 8.37-1.14 1.11.57 1.75 1.72 2.53 2.66l1.56 2.33c.5 1.8.53 3.83 1.56 5.45 3.08 1.86 6.91 1.49 10.26 2.6 2.21 2.92 1.83 7.11 4.11 9.96 4.54 1.94 9.91 3.45 14.6 1.09 3.07-.72 4.86-3.27 6.09-5.97l.45-.61c2.04-1.91 2.62-4.78 1.59-7.37-1.23-3.31-.89-6.84-.88-10.29-.41-8.3-2.56-16.42-5.44-24.18l-.89-2.04c-1.35-3.07-3.86-5.94-3.28-9.51.43-1.75.93-3.47 1.32-5.23.23-5.03-.49-10.44-3.88-14.4-.47-1.3-.87-2.61-1.28-3.92z"/><path fill="#746f66" d="M299.62 224.44l2.34-.15c-.39 2.57-.92 5.12-1.6 7.63 1.09 1.46 2.37 2.83 3.08 4.53.73 3.54-.24 7.13-1.33 10.49-2.1 1.08-3.37 3.06-4.11 5.24.45-3.74.82-7.53.33-11.29-.34-4.15-1.38-8.38-.38-12.51.53-1.33 1.1-2.63 1.67-3.94z"/><path fill="#686868" d="M304.25 227.94c1.19-1.68 2.61-3.19 4.11-4.6-.63 1.36-1.45 2.7-1.62 4.22.82.98 1.77 1.84 2.69 2.73l1.05-1.28 1.92-.56c.95.67 2.16 1.21 2.46 2.48-.97 2.31-3.52 2.79-5.67 3.37l-1.95-2.56-2.99-3.8z"/><path fill="#636462" d="M228.56 228.98c2.26.52 4.51-.01 6.64-.78 2.38 2.18 3.14 5.28 3.1 8.41l-1.98-.28-2.21-.29c-1.76 3.51-5 6.79-4.52 11.01.41 5.1.27 10.29 1.5 15.29.48-1.4.95-2.81 1.36-4.23.81 2.62 1.69 5.25 1.86 8.01l-3.19.85c-.36-1.31-.47-2.73-1.17-3.9-2.08-1.41-4.52-2.16-6.81-3.14l-2.5.65a65.82 65.82 0 0 1-3.66.53c.46-1.5.93-2.99 1.46-4.45 2.01-6.02 3.44-12.23 5-18.37 1.02-3.44 3.33-6.26 5.12-9.31z"/><path fill="#e1e5ec" d="M261.26 229.26l.45-.01.01.46h-.46v-.45z"/><path fill="#66625f" d="M317.92 229.31c3.52 3.62 7.44 7.01 9.33 11.85-.39 1.76-.89 3.48-1.32 5.23l-1.52-1.58c-1.24-1.22-2.32-2.65-3.81-3.58-2.07-.57-3.97.81-5.74 1.67l-.45-1.89c2.98-1.95 6.49-1.22 9.73-.53-1.76-3.6-4.75-6.28-7.87-8.69l1.65-2.48z"/><path fill="#5d5d58" d="M196.25 236.22c1.61-1.98 4.15-3.03 5.61-5.18.53 2.12 1.12 4.24 1.98 6.26 2.51 4.51 6.02 8.67 10.88 10.71l-1.21-4.02c2.95-2.16 3.62-5.9 4.94-9.08 2.04 3.04-.9 6.08-.64 9.27.33 4.21-1.84 8.56.63 12.48-.53 1.46-1 2.95-1.46 4.45l-1.99.19-.88.08c-3.68-3.4-2.02-8.56-2.68-12.92-.37-1.99-2.76-2.19-4.3-2.81-3.45-.84-6.44-2.77-9.46-4.54-.54-1.61-1.15-3.21-1.42-4.89m5.04 1.82l-.34.83.35.83.84.35.83-.34.34-.82-.35-.83-.84-.35-.83.33z"/><path fill="#b2b8be" d="M260.35 232.28l.44.01v.45l-.45-.01.01-.45z"/><path fill="#3a3a39" d="M307.24 231.74l1.95 2.56c1.43 3.76 3.75 7.74 2.28 11.85-.62-1.88-1.13-3.8-1.61-5.71-.32.37-.94 1.12-1.25 1.5l-1.56-.28c-.29-3.3-.11-6.62.19-9.92z"/><path fill="#51514f" d="M283.67 235.52c1.38-.8 2.62-1.89 4.15-2.4 1.27.04 2.52.36 3.77.61l.58 2.63-5.41-.73-.38 4.2 2.39-1.03 1.2.76 2.15-1.17c-.44 3.95-.84 7.93-1.77 11.81l-.69-3.94-2.9-.79c-.73 2.37-1.24 4.81-2.15 7.12-1.77 1.11-3.76 1.79-5.67 2.61.3.39.88 1.19 1.18 1.59l5.2-.73c-1.69 3.03-2.8 6.47-5.4 8.9-3.08 2.94-5.39 6.66-8.94 9.1-2.29 1.51-3.6 3.97-5.06 6.21-6.66-.81-13.25-2.17-19.94-2.7l5.23-.86c-2.6-1.98-5.87-2.44-8.99-2.92.77-.96 1.59-1.89 2.41-2.81l-2.89-.74-.29-2.03 1.86-1.71c5.03.74 9.75 2.84 14.79 3.47 3.81-.42 7.59-1.03 11.38-1.56.55-1.05 1.11-2.11 1.71-3.13l4.54-4.32-2.49.33c1.56-1.45 3.42-2.76 4.32-4.73.45-1.76.45-3.58.55-5.37l.97-2.16 3.87 1.09c1.1-1.86 1.93-3.88 2.25-6.02l-3.61.98c-.28-1.65-.56-3.3-.75-4.96l2.94-.52-.11-4.08m-5.47 22.62c-1.31.72-1.32 1.4-.01 2.04 1.3-.73 1.31-1.41.01-2.04m-26.36 15.06c1.15 2.03 2.5 4.76 5.21 4.76 2.03.36 3.94-.53 5.36-1.93-3.18-1.92-6.99-2.2-10.57-2.83z"/><path fill="#aeb5bf" d="M261.27 234.25h.44v.45h-.45l.01-.45z"/><path fill="#96928c" d="M234.11 236.04l2.21.29-1.09 4.76c-2.95 5.18-2.65 11.26-2.78 17.02-.41 1.42-.88 2.83-1.36 4.23-1.23-5-1.09-10.19-1.5-15.29-.48-4.22 2.76-7.5 4.52-11.01z"/><path fill="#8c494b" d="M281.31 236.63l2.36-1.11.11 4.08-2.94.52.47-3.49z"/><path fill="#717274" d="M236.32 236.33l1.98.28c.27 1.94.39 3.95 1.16 5.79.98 2.04 2.71 3.58 4.19 5.26l-1.79 3.4c.67 1.3 1.74 2.31 2.71 3.39l-3.71.09c1.67 2.34 3.19 4.9 5.53 6.64 1.3.21 2.63.07 3.94.08l9.26 3.07 1.82.81c2.93 2.3 6.62 1.36 9.78.14l-1.71 3.13-11.38 1.56 1.77-2.95-2.92-.96c-3.13-1.01-6.44-1.34-9.57-2.34-2.62-.82-4.26-3.19-5.97-5.18-2.63-3.09-4.49-6.86-5.15-10.87-.25-2.47.34-4.93.6-7.37-.41.19-1.22.59-1.63.79.4-1.58.72-3.18 1.09-4.76z"/><path fill="#3c3b37" opacity=".79" d="M201.29 238.04l.83-.33.84.35.35.83-.34.82-.83.34-.84-.35-.35-.83.34-.83z"/><path fill="#464846" d="M235.23 241.09l1.63-.79c-.26 2.44-.85 4.9-.6 7.37.66 4.01 2.52 7.78 5.15 10.87 1.71 1.99 3.35 4.36 5.97 5.18 3.13 1 6.44 1.33 9.57 2.34-3.73-.06-7.56.45-11.19-.68-3-.89-5.9-2.05-8.87-3.01l-.26 4.77-.55 3.02-1.38-1.03c-.16-1.01-.29-2.01-.39-3.01-.17-2.76-1.05-5.39-1.86-8.01.13-5.76-.17-11.84 2.78-17.02z"/><path fill="#6a6a62" d="M308.61 241.94l1.25-1.5 1.61 5.71c.25 1.67 1.99 2.33 3.21 3.21a56.42 56.42 0 0 0 5 2.45c-1.09.52-1.97 1.38-2.39 2.52-4.1 8.8-5.13 18.55-6.67 28.02-4.24.26-8.61.66-12.6-1.18l1.59-3.35c-2.05-.94-4.22-1.57-6.42-2.02a104.78 104.78 0 0 1 .7-1.54c2.91-.48 5.58-1.76 8.18-3.09.09 2.66.44 5.31 1.11 7.89 1.51-.31 3.5.14 4.54-1.31 2.14-2.59 3.04-5.97 2.86-9.28-.31-2.92 2.03-5.04 3-7.58-.45-2.02-1.87-3.73-3.55-4.88-1.98-1.36-4.5-.99-6.76-1.07.71-2.62.98-5.35 1.87-7.92.84-1.89 2.21-3.46 3.47-5.08z"/><path fill="#b78465" d="M314.86 242.9c1.77-.86 3.67-2.24 5.74-1.67 1.49.93 2.57 2.36 3.81 3.58.05 2.89-.54 5.73-2.48 7.96l-2.25-.96-5-2.45-1.32-5.63 1.5-.83z"/><path fill="#6e6d6c" d="M281.59 245.08l3.61-.98c-.32 2.14-1.15 4.16-2.25 6.02l-3.87-1.09 2.51-3.95z"/><path fill="#322e2a" d="M324.41 244.81l1.52 1.58c-.58 3.57 1.93 6.44 3.28 9.51-1.25-1.59-2.65-3.07-4.28-4.28-1.01.41-1.83 1.08-2.45 2.01-1.94 2.11-3.93 4.28-4.7 7.12-1.53 3.9-2.49 7.97-3.3 12.07-.47 1.73-.74 3.52-.56 5.32.19 1.61-.29 3.16-.91 4.62l-.84-.07c-.38-.09-1.16-.26-1.55-.34 1.54-9.47 2.57-19.22 6.67-28.02.42-1.14 1.3-2 2.39-2.52l2.25.96c1.94-2.23 2.53-5.07 2.48-7.96z"/><path fill="#2e3134" d="M284.61 252.59c.91-2.31 1.42-4.75 2.15-7.12l2.9.79.69 3.94c-1.03 2.05-2.36 3.99-4.22 5.38l-.81.48-5.2.73-1.18-1.59c1.91-.82 3.9-1.5 5.67-2.61z"/><path fill="#65635c" d="M277.22 246.65l.89 4.54c-.1 1.79-.1 3.61-.55 5.37-.9 1.97-2.76 3.28-4.32 4.73-3.59 2.24-7.84 2.71-11.83 3.85l-1.82-.81 1.15-2.12c-4.52-.82-8.71-2.82-12-6.04 6.92 2.46 14.65 3.06 21.53.12 4.07-1.49 5.24-6.12 6.95-9.64z"/><path fill="#8a867e" d="M298 252.18c.74-2.18 2.01-4.16 4.11-5.24-.87 4.73-.91 9.72-3.07 14.13-3.63 7.27-7.65 14.43-13.19 20.44-.57-.8-1.92-1.6-1.23-2.73 2.82-5.76 7.03-10.73 9.79-16.53 2.17-2.94 3.34-6.43 3.59-10.07z"/><path fill="#656666" d="M322.48 253.63c.62-.93 1.44-1.6 2.45-2.01 1.63 1.21 3.03 2.69 4.28 4.28l.89 2.04-2.25 7.89c-.72 2.12-1.53 4.22-2.52 6.23l-.07-1.63-4.24 1.56c2.6-5.66 4.64-11.68 5.05-17.94-1.05 1.32-2.08 2.65-3.02 4.04l-.57-4.46z"/><path fill="#828383" d="M240.86 254.54l3.71-.09 2.27 2.52 3.49 4.29c-1.31-.01-2.64.13-3.94-.08-2.34-1.74-3.86-4.3-5.53-6.64z"/><path fill="#544e46" d="M317.78 260.75c.77-2.84 2.76-5.01 4.7-7.12l.57 4.46-.72 2.34-4.55.32z"/><path fill="#919194" d="M323.05 258.09l3.02-4.04c-.41 6.26-2.45 12.28-5.05 17.94l-4.16 1.47.19-2.23c3.24-2.71 4.07-6.98 5.28-10.8l.72-2.34z"/><path fill="#797b72" d="M303.27 254.94c2.26.08 4.78-.29 6.76 1.07 1.68 1.15 3.1 2.86 3.55 4.88-.97 2.54-3.31 4.66-3 7.58.18 3.31-.72 6.69-2.86 9.28-1.04 1.45-3.03 1-4.54 1.31-.67-2.58-1.02-5.23-1.11-7.89-2.6 1.33-5.27 2.61-8.18 3.09 1.54-3.71 4.27-6.75 5.94-10.39 1.34-2.9 2.47-5.89 3.44-8.93z"/><path fill="#49433c" d="M246.84 256.97l1.9-.8c3.29 3.22 7.48 5.22 12 6.04l-1.15 2.12c-3.11-.97-6.21-1.94-9.26-3.07l-3.49-4.29z"/><path fill="#75716a" d="M285.32 256.06l.81-.48c1.61 2.48-.17 5.05-1.05 7.42-1.2 2.74-2 5.75-4 8.05-2.13 2.49-4.47 4.79-6.84 7.05-2.55 2.26-5.84 3.42-9.17 3.88-8.47-1.44-17.31-1.35-25.42-4.47.84-1.25 1.67-2.51 2.57-3.72 3.12.48 6.39.94 8.99 2.92l-5.23.86c6.69.53 13.28 1.89 19.94 2.7 1.46-2.24 2.77-4.7 5.06-6.21 3.55-2.44 5.86-6.16 8.94-9.1 2.6-2.43 3.71-5.87 5.4-8.9z"/><path fill="#706f72" d="M278.2 258.14c1.3.63 1.29 1.31-.01 2.04-1.31-.64-1.3-1.32.01-2.04z"/><path fill="#3a3934" d="M330.1 257.94c2.88 7.76 5.03 15.88 5.44 24.18-.01 3.45-.35 6.98.88 10.29 1.03 2.59.45 5.46-1.59 7.37l.79-2.46c1.07-3.39-.95-6.65-1.29-9.99.54-4.98.1-9.99-.82-14.9l-2.91-.13c-.48 2.6-.96 5.43-3.45 6.88-.19-4.46.05-8.94.7-13.35l2.25-7.89z"/><path fill="#525250" d="M220.64 260.58l2.5-.65c2.29.98 4.73 1.73 6.81 3.14.7 1.17.81 2.59 1.17 3.9l3.19-.85.39 3.01c-1.17.97-2.17 2.96-3.97 2.33-5.33-1.07-7.39-6.85-10.09-10.88z"/><path fill="#68625c" d="M317.78 260.75l4.55-.32c-1.21 3.82-2.04 8.09-5.28 10.8a84.49 84.49 0 0 1-2.57 1.59c.81-4.1 1.77-8.17 3.3-12.07z"/><path fill="#a0a09f" opacity=".89" d="M214.11 261.38l.88-.08c-.11 2.71.84 5.25 2.19 7.56l-1.94.12-1.02.1c.12-2.57.07-5.14-.11-7.7z"/><path fill="#777a70" d="M214.99 261.3l1.99-.19 3.66-.53c2.7 4.03 4.76 9.81 10.09 10.88 1.8.63 2.8-1.36 3.97-2.33l1.38 1.03c.2-1.01.38-2.02.55-3.02 2.19-.49 4.43-.9 6.68-.64l-1.86 1.71.29 2.03c-3.77.2-7.38 1.66-9.76 4.68-5.21-.63-6.86-6.83-11.68-8.01l-.27 3.89-.12 1.58-2.35-.15c.26-1.04.58-2.06.91-3.07a60.03 60.03 0 0 0-1.29-.3c-1.35-2.31-2.3-4.85-2.19-7.56z"/><path fill="#868686" d="M261.41 265.14c3.99-1.14 8.24-1.61 11.83-3.85l2.49-.33-4.54 4.32c-3.16 1.22-6.85 2.16-9.78-.14z"/><path fill="#2f3131" d="M236.89 262.37l8.87 3.01c3.63 1.13 7.46.62 11.19.68.98.3 1.95.61 2.92.96l-1.77 2.95c-5.04-.63-9.76-2.73-14.79-3.47-2.25-.26-4.49.15-6.68.64.12-1.59.17-3.18.26-4.77z"/><path fill="#686660" d="M290.03 266.02c1.03-1.7 2.78-2.69 4.38-3.77-2.76 5.8-6.97 10.77-9.79 16.53-.69 1.13.66 1.93 1.23 2.73l-.55 1.9c-4.07 3.34-9.05 5.54-14.26 6.23-1.85.23-3.17-1.32-4.58-2.22l1.76-2.39c3.23-.61 6.54-.47 9.61.75.43-1.81.88-3.62 1.39-5.4 4.93-3.68 7.45-9.41 10.81-14.36z"/><path fill="#484a49" d="M220.3 266.91c4.82 1.18 6.47 7.38 11.68 8.01l.82.22.03 2.76-1.3 2.21c-5.14-1.1-7.96-5.91-11.5-9.31l.27-3.89z"/><path fill="#303130" opacity=".6" d="M214.22 269.08l1.02-.1-1.59 9.84 2.17 2.38-.05.81.49 4.76c.46 4.05.24 8.15.58 12.22.17 2.28 1.61 4.19 2.22 6.35.31 1.83.27 3.7.52 5.54.55 2.42 1.18 4.82 1.37 7.31-3.84-9.94-5.84-20.57-5.6-31.23.23-3.24-1.72-6-2.28-9.07-.06-2.98.66-5.9 1.15-8.81z"/><path fill="#8f8e8c" d="M215.24 268.98l1.94-.12 1.29.3-.91 3.07c-.35 3.03-.91 6.03-1.74 8.97l-2.17-2.38 1.59-9.84z"/><path fill="#8a897e" d="M231.98 274.92c2.38-3.02 5.99-4.48 9.76-4.68a102.08 102.08 0 0 1 2.89.74c-.82.92-1.64 1.85-2.41 2.81-.9 1.21-1.73 2.47-2.57 3.72-.4-.15-1.19-.46-1.58-.62-1.7-.74-3.47-1.32-5.27-1.75l-.82-.22z"/><path fill="#727474" d="M321.02 271.99l4.24-1.56.07 1.63c-.94 2.34-3.54 2.78-5.68 3.36-1.69.37-2.91 1.67-4.27 2.64l-1.46.08c-.18-1.8.09-3.59.56-5.32l2.57-1.59-.19 2.23 4.16-1.47z"/><path fill="#696a67" d="M220.03 270.8c3.54 3.4 6.36 8.21 11.5 9.31l1.3-2.21-.14 2.61c-3.55.71-7.13 1.29-10.74 1.6-1.98-1.15-4.15-1.02-6.18-.1l.05-.81c.83-2.94 1.39-5.94 1.74-8.97l2.35.15.12-1.58z"/><path fill="#78756e" d="M251.84 273.2c3.58.63 7.39.91 10.57 2.83-1.42 1.4-3.33 2.29-5.36 1.93-2.71 0-4.06-2.73-5.21-4.76z"/><path fill="#7b7c75" d="M232.8 275.14c1.8.43 3.57 1.01 5.27 1.75l-2.9.13c2.36 1.78 4.52 3.97 5.02 7.03l-.91 4.46c-3.43.1-6.86.28-10.27.71 1.06-1.47 4.05-2.77 2.62-4.85-3.1-1.42-6.95.16-9.68-2.26 3.61-.31 7.19-.89 10.74-1.6l.14-2.61-.03-2.76z"/><path fill="#424442" d="M235.17 277.02l2.9-.13 1.58.62c8.11 3.12 16.95 3.03 25.42 4.47l3.15 3.05-1.76 2.39c-2.4-.15-4.81-.24-7.22-.33-6.17-1.89-12.58-3.05-19.05-3.04-.5-3.06-2.66-5.25-5.02-7.03z"/><path d="M313.92 278.14l1.46-.08c.79 1.28 1.48 2.65 2.43 3.83.94.65 2.18.54 3.26.82-1.12 2.41-2.49 4.69-4.09 6.81l-3.68-1.49 2.46-5.07-2.75-.2c.62-1.46 1.1-3.01.91-4.62zm11.13 4.1l3.03-2.67c1.44 1.79 2.05 3.98 2.04 6.26-2.23-.41-4.39-1.22-5.07-3.59z" fill="#5f6062"/><path fill="#888a82" d="M215.77 282.01c2.03-.92 4.2-1.05 6.18.1 2.73 2.42 6.58.84 9.68 2.26 1.43 2.08-1.56 3.38-2.62 4.85-4.43.67-8.7-.88-12.75-2.45l-.49-4.76z"/><path fill="#322e2a" opacity=".94" d="M300.14 283.34c1.4-.4 1.89.1 1.49 1.5-1.4.38-1.9-.12-1.49-1.5z"/><path fill="#76797b" d="M312.17 282.69l.84.07 2.75.2-2.46 5.07-2.35.65-.67-1.69 1.89-4.3z"/><path fill="#5f6160" d="M240.19 284.05c6.47-.01 12.88 1.15 19.05 3.04a57.52 57.52 0 0 1-13.24-.65l-1.27-.12c-2.82 2.25-5.9 4.1-9.34 5.21-1.67.39-1.72 2.33-1.96 3.69-.36 3.85-.45 7.75-.08 11.61.03 1.3.65 2.24 1.84 2.83-5.23.01-10.5-.07-15.61 1.22-.25-1.84-.21-3.71-.52-5.54-.61-2.16-2.05-4.07-2.22-6.35-.34-4.07-.12-8.17-.58-12.22 4.05 1.57 8.32 3.12 12.75 2.45 3.41-.43 6.84-.61 10.27-.71l.91-4.46z"/><path fill="#5e5c58" opacity=".97" d="M296.2 284.93c4.16 1.26 8.5.57 12.72.02l.01 3.03c-3.37.25-6.75.37-10.14.44-.25-.29-.77-.87-1.03-1.16-.51-.79-1.03-1.56-1.56-2.33z"/><path fill="#4f5150" d="M235.39 291.53c3.44-1.11 6.52-2.96 9.34-5.21l1.27.12c-.98 8.09-1.12 16.31-3.36 24.21l-.31.65-1.42-2.86c-1.9.46-3.79.95-5.72 1.22-1.19-.59-1.81-1.53-1.84-2.83-.37-3.86-.28-7.76.08-11.61.24-1.36.29-3.3 1.96-3.69z"/><path fill="#5e5c58" d="M333.13 286.1l1.2 1.23c.34 3.34 2.36 6.6 1.29 9.99l-2.57-2.13c-1.73 1.55-3.28 3.46-5.46 4.41-3.45.9-7.04.97-10.56 1.48-1.56-1.18-3.11-2.39-4.49-3.78-1.89-2.64-4.1-5.38-7.67-5.42 2.45-1.12 5.11-1.6 7.8-1.59.88 2.08 1.57 4.31 2.99 6.1 2.81 2.48 6.84 2.11 10.33 2.37.63-3.17 3.75-4.82 4.97-7.68.78-1.64 1.44-3.32 2.17-4.98z"/><path fill="#050505" opacity=".77" d="M297.76 287.26l1.03 1.16c1.57 1.85 3.58 3.3 6.08 3.46 3.57.04 5.78 2.78 7.67 5.42.17 2.03.1 4.16.89 6.09.71 1.76 2.8 1.48 4.33 1.86l.72.11c3.03 1.7 6.49 1.79 9.81 1-4.69 2.36-10.06.85-14.6-1.09-2.28-2.85-1.9-7.04-4.11-9.96-3.35-1.11-7.18-.74-10.26-2.6-1.03-1.62-1.06-3.65-1.56-5.45z"/><path fill="#797879" d="M327.59 299.6c2.18-.95 3.73-2.86 5.46-4.41l2.57 2.13-.79 2.46-.45.61-15.9 4.97-.72-.11-.73-4.17c3.52-.51 7.11-.58 10.56-1.48z"/><path fill="#6e7072" d="M312.54 297.3c1.38 1.39 2.93 2.6 4.49 3.78l.73 4.17c-1.53-.38-3.62-.1-4.33-1.86-.79-1.93-.72-4.06-.89-6.09z"/><path fill="#565757" d="M318.48 305.36l15.9-4.97c-1.23 2.7-3.02 5.25-6.09 5.97-3.32.79-6.78.7-9.81-1z"/><path fill="#878982" d="M235.19 309.66c1.93-.27 3.82-.76 5.72-1.22l1.42 2.86-.97 1.99c-2.69 1.26-5.52 2.31-7.93 4.05-1.07 1.12-1.52 2.65-2.22 4.01l-3.54.75.27 3.56c-2.9-.7-5.27-2.51-7.02-4.87l.03-2.6c-.19-2.49-.82-4.89-1.37-7.31 5.11-1.29 10.38-1.21 15.61-1.22z"/><path fill="#070707" opacity=".75" d="M242.33 311.3l.31-.65c.48 4.46 1.46 8.85 1.93 13.31.25 4.37-.25 8.73-.57 13.08-.43 5.26 1.21 10.46.47 15.72-.48 3.76-.56 7.58-1.26 11.32-.19-4.26-.06-8.52.1-12.78.23-4.24-1.39-8.41-.55-12.64 1.32-5.7.66-11.63-1.38-17.08a69.48 69.48 0 0 1-.02-8.29l.97-1.99z"/><path fill="#7a7d75" d="M233.43 317.34c2.41-1.74 5.24-2.79 7.93-4.05a69.48 69.48 0 0 0 .02 8.29l-3.43 3.67c-3.32.34-6.67.67-10.01.41l-.27-3.56 3.54-.75c.7-1.36 1.15-2.89 2.22-4.01z"/><path fill="#5f5f5e" d="M220.92 320.79c1.75 2.36 4.12 4.17 7.02 4.87 3.34.26 6.69-.07 10.01-.41-.37 3.32-.65 6.66-.55 10.02l2.79.98 1.32 3.34c-1.66 1.05-3.46 1.94-5.42 2.26-2.99-.79-4.34 2.14-5.91 4.08l-.85-1.11c-.97-1.45-2.17-2.78-3.9-3.3l-1.68-.69c-1.46 5.04-1.47 10.42.06 15.45l-2.23 1.03c-.92-.68-2.47-.81-2.82-2.03-.76-2.93-.22-5.99-.35-8.97.01-2.81-.92-5.5-1.11-8.28.45-3.05 1.74-5.93 1.79-9.05.06-2.84.64-5.61 1.83-8.19m-1.08 20.66l1.73-.74c2.65-2.72.44-6.59.05-9.74-1.64 3.22-1.94 6.91-1.78 10.48z"/><path fill="#4e4d4b" d="M237.95 325.25l3.43-3.67c2.04 5.45 2.7 11.38 1.38 17.08-.32.23-.94.7-1.25.93l-1.32-3.34-2.79-.98c-.1-3.36.18-6.7.55-10.02z"/><path fill="#2e2d2b" opacity=".9" d="M219.84 341.45c-.16-3.57.14-7.26 1.78-10.48.39 3.15 2.6 7.02-.05 9.74-.44.18-1.3.55-1.73.74z"/><path fill="#414143" d="M241.51 339.59l1.25-.93c-.84 4.23.78 8.4.55 12.64-.16 4.26-.29 8.52-.1 12.78l-2.43.96-.31-5.33 1.47-1.57-6.1 1.47.43-1.43c.7-2.23 1.23-4.62.37-6.88-1.04-3.06-.9-6.3-.55-9.45 1.96-.32 3.76-1.21 5.42-2.26z"/><path fill="#3a3d3c" d="M223.81 356.28c-1.53-5.03-1.52-10.41-.06-15.45.42.18 1.26.52 1.68.69.25 4.67.85 9.3 2.16 13.8.72 1.66-.56 3.09-1.22 4.52l1.21 1.52.46.62-.46 3.46c-2.95-1.91-4.3-5.23-6-8.13l2.23-1.03z"/><path fill="#838387" d="M230.18 345.93c1.57-1.94 2.92-4.87 5.91-4.08-.35 3.15-.49 6.39.55 9.45.86 2.26.33 4.65-.37 6.88l-2.66-2.04c-.04-4.19-1.98-7.92-4.28-11.32l.85 1.11z"/><path fill="#54585e" d="M225.43 341.52c1.73.52 2.93 1.85 3.9 3.3 2.3 3.4 4.24 7.13 4.28 11.32l2.66 2.04-.43 1.43c-1.52.37-3.02.88-3.18 2.68 2.73-.36 5.46-1.07 7.81-2.58l.31 5.33c-4.19 1.63-9.03 2.67-13.2.4l.46-3.46c1.16.7 3.91-.21 2.73-1.85-1.39-.62-2.45-.21-3.19 1.23l-1.21-1.52c.66-1.43 1.94-2.86 1.22-4.52-1.31-4.5-1.91-9.13-2.16-13.8z"/><path fill="#747374" d="M235.84 359.61l6.1-1.47-1.47 1.57c-2.35 1.51-5.08 2.22-7.81 2.58.16-1.8 1.66-2.31 3.18-2.68z"/><path fill="#747779" d="M227.58 361.36c.74-1.44 1.8-1.85 3.19-1.23 1.18 1.64-1.57 2.55-2.73 1.85l-.46-.62z"/></svg>