<?xml version="1.0" encoding="UTF-8" ?>
<!DOCTYPE svg PUBLIC "-//W3C//DTD SVG 1.1//EN" "http://www.w3.org/Graphics/SVG/1.1/DTD/svg11.dtd">
<svg width="512pt" height="512pt" viewBox="0 0 512 512" version="1.1" xmlns="http://www.w3.org/2000/svg">
<g id="#81807eff">
<path fill="#81807e" opacity="1.00" d=" M 291.52 185.85 C 296.37 182.42 303.14 184.44 306.19 189.29 C 305.00 189.86 303.82 191.11 302.41 190.47 C 298.65 189.25 295.13 187.41 291.52 185.85 Z" />
</g>
<g id="#494a49ff">
<path fill="#494a49" opacity="1.00" d=" M 278.76 194.12 C 280.67 188.64 287.01 188.09 291.52 185.85 C 295.13 187.41 298.65 189.25 302.41 190.47 C 303.82 191.11 305.00 189.86 306.19 189.29 C 309.15 193.74 312.36 198.06 316.13 201.86 C 317.66 203.23 317.58 205.42 318.09 207.25 C 315.83 208.58 314.08 210.51 313.97 213.25 C 312.36 212.52 310.05 212.48 309.25 210.64 C 309.15 208.36 309.34 206.09 309.53 203.83 C 303.27 197.67 295.66 192.54 286.95 190.69 C 283.74 189.92 281.15 192.42 278.76 194.12 Z" />
</g>
<g id="#646767ff">
<path fill="#646767" opacity="1.00" d=" M 278.76 194.12 C 281.15 192.42 283.74 189.92 286.95 190.69 C 295.66 192.54 303.27 197.67 309.53 203.83 C 308.94 204.20 307.75 204.94 307.16 205.31 C 301.69 202.35 296.96 198.29 291.88 194.75 C 290.78 196.16 289.70 197.59 288.64 199.03 C 288.25 199.00 287.45 198.93 287.06 198.89 C 284.24 197.98 281.45 196.99 278.71 195.87 C 278.73 195.44 278.75 194.56 278.76 194.12 Z" />
</g>
<g id="#8b8d90ff">
<path fill="#8b8d90" opacity="1.00" d=" M 288.64 199.03 C 289.70 197.59 290.78 196.16 291.88 194.75 C 296.96 198.29 301.69 202.35 307.16 205.31 C 307.63 206.96 307.77 208.68 307.60 210.39 C 304.40 206.41 300.06 203.66 295.88 200.84 C 293.77 199.33 291.12 199.23 288.64 199.03 Z" />
</g>
<g id="#302c27ff">
<path fill="#302c27" opacity="1.00" d=" M 278.71 195.87 C 281.45 196.99 284.24 197.98 287.06 198.89 C 291.91 204.50 297.32 210.83 305.08 211.99 C 308.57 212.52 309.42 216.57 310.66 219.28 C 309.34 219.95 308.00 220.57 306.66 221.20 C 306.63 219.93 306.57 218.68 306.52 217.42 C 301.10 215.22 296.65 211.41 292.07 207.89 C 288.55 204.97 282.88 203.69 282.40 198.35 C 281.21 198.08 280.02 197.81 278.83 197.53 C 278.80 197.12 278.74 196.29 278.71 195.87 Z" />
</g>
<g id="#565754ff">
<path fill="#565754" opacity="1.00" d=" M 271.58 209.95 C 271.43 204.67 275.27 200.85 278.83 197.53 C 280.02 197.81 281.21 198.08 282.40 198.35 C 282.88 203.69 288.55 204.97 292.07 207.89 C 296.65 211.41 301.10 215.22 306.52 217.42 C 306.57 218.68 306.63 219.93 306.66 221.20 C 306.64 222.24 306.57 223.29 306.42 224.33 C 303.49 228.23 306.15 232.61 307.59 236.51 C 308.65 240.36 312.87 241.59 315.88 243.55 C 313.72 244.03 311.09 243.75 309.44 245.47 C 308.86 246.86 309.02 248.42 308.85 249.89 C 308.52 249.69 307.85 249.29 307.51 249.09 C 305.56 247.51 303.86 245.55 301.55 244.46 C 296.83 242.06 291.39 242.17 286.24 241.92 C 283.37 242.00 280.78 243.46 277.94 243.72 C 274.27 244.01 270.60 244.24 266.94 244.70 C 268.37 242.84 270.04 241.16 271.97 239.83 C 274.28 239.79 276.60 239.76 278.91 239.57 C 281.04 239.32 283.13 238.85 285.22 238.38 C 285.46 237.05 285.71 235.72 285.95 234.39 C 287.99 234.45 290.03 234.57 292.06 234.82 C 295.56 238.12 300.02 240.14 303.71 243.22 C 302.14 236.09 295.46 232.19 290.27 227.83 C 288.77 226.40 285.48 225.19 286.70 222.61 C 289.96 224.62 293.09 226.86 295.94 229.43 C 297.43 230.83 299.10 232.01 300.86 233.06 C 302.15 228.10 301.35 222.86 303.04 217.97 C 300.77 215.67 297.85 214.30 294.94 213.02 C 291.13 211.67 290.24 206.89 286.55 205.37 C 284.12 204.13 281.35 205.03 278.91 205.72 C 277.56 206.40 276.24 207.14 274.93 207.89 C 273.79 208.55 272.67 209.23 271.58 209.95 Z" />
</g>
<g id="#615a52ff">
<path fill="#615a52" opacity="1.00" d=" M 287.06 198.89 C 287.45 198.93 288.25 199.00 288.64 199.03 C 291.12 199.23 293.77 199.33 295.88 200.84 C 300.06 203.66 304.40 206.41 307.60 210.39 C 307.77 208.68 307.63 206.96 307.16 205.31 C 307.75 204.94 308.94 204.20 309.53 203.83 C 309.34 206.09 309.15 208.36 309.25 210.64 C 310.05 212.48 312.36 212.52 313.97 213.25 C 313.68 215.63 312.60 217.81 310.66 219.28 C 309.42 216.57 308.57 212.52 305.08 211.99 C 297.32 210.83 291.91 204.50 287.06 198.89 Z" />
</g>
<g id="#76776eff">
<path fill="#76776e" opacity="1.00" d=" M 278.91 205.72 C 281.35 205.03 284.12 204.13 286.55 205.37 C 290.24 206.89 291.13 211.67 294.94 213.02 C 297.85 214.30 300.77 215.67 303.04 217.97 C 301.35 222.86 302.15 228.10 300.86 233.06 C 299.10 232.01 297.43 230.83 295.94 229.43 C 299.00 226.21 299.81 221.74 298.48 217.55 C 294.35 215.86 289.11 215.63 286.33 211.68 C 284.98 209.98 283.77 208.16 282.54 206.38 C 281.32 206.16 280.12 205.94 278.91 205.72 Z" />
</g>
<g id="#8e9087ff">
<path fill="#8e9087" opacity="1.00" d=" M 274.93 207.89 C 276.24 207.14 277.56 206.40 278.91 205.72 C 280.12 205.94 281.32 206.16 282.54 206.38 C 283.77 208.16 284.98 209.98 286.33 211.68 C 289.11 215.63 294.35 215.86 298.48 217.55 C 299.81 221.74 299.00 226.21 295.94 229.43 C 293.09 226.86 289.96 224.62 286.70 222.61 C 283.47 220.44 279.50 219.69 276.34 217.42 C 275.23 214.95 277.23 212.84 278.52 210.93 C 277.31 209.92 276.11 208.91 274.93 207.89 Z" />
</g>
<g id="#87857cff">
<path fill="#87857c" opacity="1.00" d=" M 271.58 209.95 C 272.67 209.23 273.79 208.55 274.93 207.89 C 276.11 208.91 277.31 209.92 278.52 210.93 C 277.23 212.84 275.23 214.95 276.34 217.42 C 279.50 219.69 283.47 220.44 286.70 222.61 C 285.48 225.19 288.77 226.40 290.27 227.83 C 295.46 232.19 302.14 236.09 303.71 243.22 C 300.02 240.14 295.56 238.12 292.06 234.82 C 289.09 231.99 285.22 230.47 281.91 228.11 C 277.63 225.03 272.19 224.68 267.40 222.76 C 264.47 221.43 260.44 221.91 258.46 219.03 C 263.08 215.21 268.95 219.98 274.14 217.95 C 272.23 217.03 270.26 216.22 268.28 215.46 C 269.31 213.58 270.32 211.69 271.58 209.95 Z" />
</g>
<g id="#d3a081ff">
<path fill="#d3a081" opacity="1.00" d=" M 313.97 213.25 C 314.08 210.51 315.83 208.58 318.09 207.25 C 319.26 209.21 320.59 211.07 321.88 212.94 C 322.20 213.45 322.83 214.46 323.14 214.96 C 324.03 216.30 324.91 217.65 325.78 219.00 C 326.13 219.48 326.83 220.44 327.18 220.91 C 331.61 227.21 335.59 233.81 340.08 240.07 C 340.52 241.37 340.91 242.68 341.33 243.99 C 339.25 245.72 336.92 247.69 334.04 247.54 C 332.47 247.08 331.08 246.19 329.70 245.37 C 324.16 239.60 318.26 234.18 311.86 229.36 C 310.15 227.58 308.29 225.94 306.42 224.33 C 306.57 223.29 306.64 222.24 306.66 221.20 C 308.00 220.57 309.34 219.95 310.66 219.28 C 312.60 217.81 313.68 215.63 313.97 213.25 Z" />
</g>
<g id="#626361ff">
<path fill="#626361" opacity="1.00" d=" M 252.29 211.49 C 258.61 209.24 265.55 213.46 271.58 209.95 C 270.32 211.69 269.31 213.58 268.28 215.46 C 270.26 216.22 272.23 217.03 274.14 217.95 C 268.95 219.98 263.08 215.21 258.46 219.03 C 260.44 221.91 264.47 221.43 267.40 222.76 C 272.19 224.68 277.63 225.03 281.91 228.11 C 285.22 230.47 289.09 231.99 292.06 234.82 C 290.03 234.57 287.99 234.45 285.95 234.39 C 285.71 235.72 285.46 237.05 285.22 238.38 C 283.13 238.85 281.04 239.32 278.91 239.57 C 279.13 238.50 279.36 237.43 279.59 236.37 C 275.63 232.90 270.55 229.26 265.00 230.19 C 260.87 230.62 256.72 230.48 252.60 230.07 C 252.57 229.02 252.55 227.98 252.52 226.94 C 255.66 226.57 259.61 227.33 261.30 223.95 C 259.04 222.66 256.68 221.55 254.20 220.76 C 252.89 218.93 252.11 216.64 250.44 215.11 C 244.54 214.23 238.57 213.69 232.74 212.35 C 239.24 212.41 246.03 213.82 252.29 211.49 Z" />
</g>
<g id="#82837aff">
<path fill="#82837a" opacity="1.00" d=" M 221.30 214.10 C 225.26 213.84 228.74 210.57 232.74 212.35 C 238.57 213.69 244.54 214.23 250.44 215.11 C 252.11 216.64 252.89 218.93 254.20 220.76 C 249.75 222.82 244.17 223.95 241.56 228.53 C 241.42 231.24 241.76 233.95 241.58 236.67 C 241.04 239.19 243.38 240.89 244.02 243.14 C 242.09 243.60 240.45 242.60 239.04 241.41 C 238.15 244.31 237.03 247.14 235.77 249.91 C 235.25 248.96 234.74 248.01 234.22 247.06 C 232.98 252.02 233.44 257.48 231.14 262.11 C 231.00 261.52 230.72 260.33 230.58 259.74 C 231.56 253.19 232.75 246.68 233.84 240.15 C 232.16 239.64 230.48 239.09 228.80 238.59 C 226.64 239.26 224.70 240.42 222.84 241.68 C 220.08 238.24 219.95 233.69 219.11 229.55 C 218.01 224.28 220.41 219.21 221.30 214.10 M 228.10 215.19 C 227.63 221.20 226.07 227.09 225.96 233.14 C 228.80 233.69 229.72 230.94 229.88 228.72 C 230.21 228.55 230.88 228.22 231.21 228.05 C 231.52 229.06 231.84 230.07 232.18 231.07 L 231.94 231.91 C 233.44 232.32 234.98 232.58 236.53 232.73 C 237.84 230.67 239.11 228.58 240.64 226.67 C 242.38 224.52 245.09 223.26 246.32 220.69 C 246.43 219.79 246.55 218.90 246.68 218.01 C 245.41 218.33 244.14 218.65 242.87 218.95 L 243.01 218.16 C 242.65 218.13 241.92 218.08 241.55 218.06 C 241.87 217.38 242.17 216.70 242.46 216.01 C 241.61 214.98 240.09 215.99 238.98 215.90 C 235.34 216.70 231.68 215.83 228.10 215.19 Z" />
</g>
<g id="#5e4332a6">
<path fill="#5e4332" opacity="0.65" d=" M 321.88 212.94 C 322.20 213.45 322.83 214.46 323.14 214.96 C 322.83 214.46 322.20 213.45 321.88 212.94 Z" />
</g>
<g id="#616362ff">
<path fill="#616362" opacity="1.00" d=" M 160.96 215.28 C 163.02 214.58 165.24 213.60 167.37 214.68 C 172.62 216.93 178.71 215.45 183.80 218.19 C 186.11 219.68 188.82 218.65 191.31 218.30 C 188.76 219.14 186.14 219.78 183.60 220.66 C 181.80 222.53 182.22 225.56 181.87 227.96 C 181.88 231.06 182.22 234.15 182.65 237.22 C 180.59 237.57 178.51 237.84 176.43 238.03 C 175.20 237.03 173.92 236.11 172.65 235.19 C 171.46 236.43 170.72 238.82 168.67 238.72 C 166.34 238.84 165.19 236.32 163.69 234.97 C 159.62 234.94 155.45 235.69 151.47 234.59 L 150.66 234.25 C 155.29 233.30 160.08 234.24 164.66 232.96 C 164.51 231.31 165.17 228.41 162.73 228.31 C 157.90 227.88 153.32 230.07 148.55 230.52 C 147.93 231.27 147.30 232.01 146.66 232.75 L 146.13 233.01 C 145.38 231.75 144.62 230.50 143.90 229.23 C 143.58 227.70 143.23 226.18 142.90 224.66 C 145.81 224.19 148.71 225.96 151.55 224.69 C 155.39 223.23 159.49 223.64 163.46 224.15 C 164.54 223.10 165.63 222.06 166.74 221.04 C 168.45 220.64 170.16 220.22 171.87 219.81 C 171.38 220.64 170.89 221.47 170.41 222.30 C 173.46 221.47 176.37 220.20 179.04 218.50 C 173.91 217.88 168.72 217.48 163.72 216.14 C 162.79 215.87 161.88 215.56 160.96 215.28 Z" />
</g>
<g id="#5f615fff">
<path fill="#5f615f" opacity="1.00" d=" M 197.76 216.73 C 205.16 213.42 213.42 214.34 221.30 214.10 C 220.41 219.21 218.01 224.28 219.11 229.55 C 219.95 233.69 220.08 238.24 222.84 241.68 C 224.70 240.42 226.64 239.26 228.80 238.59 C 227.16 244.40 228.00 250.76 225.51 256.30 C 225.24 254.11 225.05 251.92 225.05 249.72 C 225.17 247.96 225.07 246.21 224.94 244.46 C 219.99 243.83 215.00 243.83 210.04 243.36 C 213.72 243.28 217.39 243.30 221.06 242.97 C 219.47 240.35 217.84 237.27 214.78 236.17 C 212.32 236.00 209.61 237.15 207.39 235.64 C 205.27 234.30 202.94 233.48 200.42 234.04 C 200.11 235.90 199.81 237.78 199.41 239.63 L 198.65 240.04 C 198.13 236.04 198.66 232.04 198.95 228.05 C 198.72 224.26 197.87 220.53 197.76 216.73 Z" />
</g>
<g id="#63625dfe">
<path fill="#63625d" opacity="1.00" d=" M 148.16 215.18 C 152.41 215.48 156.70 215.78 160.96 215.28 C 161.88 215.56 162.79 215.87 163.72 216.14 C 163.82 217.31 163.87 218.49 163.88 219.67 C 159.93 220.00 155.97 219.05 152.05 219.87 C 149.81 220.48 148.40 218.12 146.76 217.05 C 147.11 216.59 147.81 215.65 148.16 215.18 Z" />
</g>
<g id="#6c6b67ff">
<path fill="#6c6b67" opacity="1.00" d=" M 228.10 215.19 C 231.68 215.83 235.34 216.70 238.98 215.90 C 240.09 215.99 241.61 214.98 242.46 216.01 C 242.17 216.70 241.87 217.38 241.55 218.06 L 241.24 218.79 C 241.65 218.83 242.46 218.91 242.87 218.95 C 244.14 218.65 245.41 218.33 246.68 218.01 C 246.55 218.90 246.43 219.79 246.32 220.69 C 244.52 220.54 242.29 218.96 240.80 220.60 C 237.69 223.84 233.82 226.74 232.18 231.07 C 231.84 230.07 231.52 229.06 231.21 228.05 C 230.88 228.22 230.21 228.55 229.88 228.72 C 229.72 230.94 228.80 233.69 225.96 233.14 C 226.07 227.09 227.63 221.20 228.10 215.19 Z" />
</g>
<g id="#3e403fff">
<path fill="#3e403f" opacity="1.00" d=" M 141.10 221.27 C 143.21 220.19 145.48 219.16 146.76 217.05 C 148.40 218.12 149.81 220.48 152.05 219.87 C 155.97 219.05 159.93 220.00 163.88 219.67 C 164.83 220.12 165.78 220.58 166.74 221.04 C 165.63 222.06 164.54 223.10 163.46 224.15 C 159.49 223.64 155.39 223.23 151.55 224.69 C 148.71 225.96 145.81 224.19 142.90 224.66 C 141.63 224.80 140.37 224.96 139.11 225.13 C 139.75 223.83 140.43 222.55 141.10 221.27 Z" />
</g>
<g id="#353432fe">
<path fill="#353432" opacity="1.00" d=" M 163.88 219.67 C 163.87 218.49 163.82 217.31 163.72 216.14 C 168.72 217.48 173.91 217.88 179.04 218.50 C 176.37 220.20 173.46 221.47 170.41 222.30 C 170.89 221.47 171.38 220.64 171.87 219.81 C 170.16 220.22 168.45 220.64 166.74 221.04 C 165.78 220.58 164.83 220.12 163.88 219.67 Z" />
</g>
<g id="#8b8d85ff">
<path fill="#8b8d85" opacity="1.00" d=" M 191.31 218.30 C 193.45 217.76 195.63 217.33 197.76 216.73 C 197.87 220.53 198.72 224.26 198.95 228.05 C 195.63 230.38 197.10 234.73 195.98 238.10 C 192.28 237.47 191.22 233.96 190.33 230.83 C 188.89 230.23 187.45 229.63 186.00 229.04 C 185.70 228.01 185.39 226.99 185.09 225.97 C 184.02 226.63 182.94 227.30 181.87 227.96 C 182.22 225.56 181.80 222.53 183.60 220.66 C 186.14 219.78 188.76 219.14 191.31 218.30 Z" />
</g>
<g id="#faf7f7ff">
<path fill="#faf7f7" opacity="1.00" d=" M 241.55 218.06 C 241.92 218.08 242.65 218.13 243.01 218.16 L 242.87 218.95 C 242.46 218.91 241.65 218.83 241.24 218.79 L 241.55 218.06 Z" />
</g>
<g id="#634836a7">
<path fill="#634836" opacity="0.65" d=" M 325.78 219.00 C 326.13 219.48 326.83 220.44 327.18 220.91 C 326.83 220.44 326.13 219.48 325.78 219.00 Z" />
</g>
<g id="#494b49ff">
<path fill="#494b49" opacity="1.00" d=" M 240.80 220.60 C 242.29 218.96 244.52 220.54 246.32 220.69 C 245.09 223.26 242.38 224.52 240.64 226.67 C 239.11 228.58 237.84 230.67 236.53 232.73 C 234.98 232.58 233.44 232.32 231.94 231.91 L 232.18 231.07 C 233.82 226.74 237.69 223.84 240.80 220.60 Z" />
</g>
<g id="#0000000b">
<path fill="#000000" opacity="0.04" d=" M 137.19 235.81 C 135.92 230.86 135.93 223.97 141.10 221.27 C 140.43 222.55 139.75 223.83 139.11 225.13 C 137.74 229.29 139.29 233.49 139.80 237.64 C 140.30 238.58 140.32 240.08 141.51 240.45 C 144.85 240.96 148.25 240.51 151.61 240.81 C 153.34 241.35 155.08 242.01 156.92 241.89 C 166.35 241.55 175.82 241.43 185.23 242.32 C 188.69 242.32 191.96 240.83 195.40 240.54 C 200.21 241.80 205.14 242.53 210.04 243.36 C 215.00 243.83 219.99 243.83 224.94 244.46 C 225.07 246.21 225.17 247.96 225.05 249.72 C 224.23 254.96 224.69 260.30 224.03 265.55 C 223.48 267.03 222.76 268.47 222.47 270.03 C 221.75 277.44 228.71 283.36 227.11 290.85 C 225.49 292.77 223.08 293.73 220.94 294.93 C 218.84 295.46 216.47 295.32 214.59 296.47 C 212.57 299.25 212.06 302.76 211.77 306.10 C 208.90 308.23 205.23 308.02 201.94 308.96 C 198.97 313.32 196.49 319.04 198.48 324.33 C 199.06 328.00 202.68 329.63 205.40 331.57 C 206.67 332.25 208.03 333.47 209.60 333.03 C 211.65 332.74 213.70 332.17 215.79 332.22 C 222.08 332.79 228.40 332.37 234.71 332.72 C 236.92 333.10 239.14 333.39 241.38 333.56 C 243.11 337.79 242.87 342.39 241.32 346.63 C 242.68 348.37 244.43 350.04 244.71 352.35 C 245.55 356.59 243.68 360.74 243.78 364.97 C 244.56 366.64 245.74 368.08 246.81 369.57 C 245.09 370.22 241.91 369.46 241.84 372.02 C 243.41 373.52 245.70 373.54 247.69 374.01 C 245.79 377.74 246.05 381.83 245.76 385.86 C 247.82 388.47 247.67 391.91 248.59 394.96 C 247.18 396.57 245.79 398.19 244.39 399.81 C 246.37 403.09 248.04 406.56 248.96 410.29 C 247.68 410.33 246.40 410.38 245.12 410.43 C 245.59 412.53 246.12 414.63 246.70 416.71 C 247.90 416.50 249.10 416.30 250.30 416.10 C 248.83 420.47 250.58 425.38 248.37 429.51 C 247.19 429.02 246.02 428.55 244.85 428.08 C 244.24 428.98 243.63 429.87 243.01 430.77 C 245.23 430.95 247.45 431.14 249.68 431.29 C 250.13 434.83 248.54 438.11 247.61 441.43 C 249.25 440.79 250.89 440.13 252.51 439.46 C 253.72 441.07 254.92 442.69 256.10 444.32 C 254.73 445.00 253.37 445.69 251.93 446.21 C 252.10 448.01 252.99 450.15 251.64 451.71 C 250.56 453.25 249.32 454.68 248.11 456.12 C 248.37 456.58 248.89 457.50 249.15 457.95 C 252.42 456.37 255.17 453.97 258.20 452.00 C 259.18 449.35 260.51 446.75 260.58 443.86 C 260.61 441.64 262.41 440.07 263.57 438.35 C 261.43 437.48 259.31 436.60 257.18 435.73 C 257.71 434.58 258.20 433.42 258.61 432.23 C 260.26 432.75 261.94 433.19 263.61 433.65 C 263.31 432.56 263.02 431.49 262.72 430.41 C 262.95 430.10 263.41 429.50 263.64 429.20 C 264.52 429.74 265.40 430.29 266.28 430.84 C 266.94 427.85 267.99 424.86 267.61 421.76 C 266.22 421.38 264.83 421.00 263.45 420.62 C 265.30 416.99 267.57 413.52 268.77 409.60 C 269.36 405.86 267.07 401.96 268.62 398.33 C 270.20 396.40 271.61 394.31 271.90 391.76 C 272.78 391.18 273.67 390.62 274.57 390.06 C 274.29 388.83 274.01 387.62 273.75 386.40 C 277.65 382.40 276.97 376.42 277.32 371.31 C 277.91 369.81 279.25 368.77 280.27 367.57 C 280.81 361.02 282.28 354.55 284.13 348.25 C 284.68 346.12 284.21 343.86 284.79 341.75 C 286.31 339.54 288.98 338.63 291.25 337.41 C 294.83 338.31 297.67 340.73 300.30 343.20 C 300.97 345.57 301.52 348.01 302.74 350.17 C 303.94 351.96 305.19 353.76 306.87 355.14 C 308.36 356.68 310.43 355.18 312.14 354.89 C 314.40 355.25 315.82 357.00 317.02 358.79 C 314.74 358.38 312.49 357.75 310.18 357.67 C 307.94 358.11 306.37 359.95 304.64 361.29 C 307.45 363.89 308.85 367.48 310.06 371.02 C 307.87 372.83 305.84 374.82 303.94 376.93 C 305.90 378.30 308.40 379.19 310.77 378.38 C 312.50 377.10 313.71 374.07 316.23 375.60 C 312.98 380.51 307.72 383.70 304.84 388.89 C 303.33 391.42 300.93 393.45 300.21 396.41 C 301.86 397.32 303.49 398.26 305.13 399.20 C 301.47 404.12 297.37 408.71 292.87 412.88 C 289.64 415.85 286.72 419.20 284.73 423.14 C 286.29 423.30 287.85 423.46 289.42 423.61 C 289.58 424.17 289.89 425.27 290.05 425.83 C 287.94 427.78 285.65 429.57 283.83 431.82 C 282.29 433.99 283.15 436.78 283.33 439.22 C 286.75 439.01 290.17 439.69 292.80 442.01 C 291.48 442.88 290.11 443.69 288.91 444.72 C 288.47 446.63 289.07 448.61 289.24 450.53 C 287.07 452.55 285.09 454.79 283.63 457.38 C 285.09 458.27 286.46 459.32 287.67 460.54 C 289.22 460.21 290.77 459.87 292.33 459.58 C 289.86 462.32 286.92 464.57 284.22 467.07 C 284.79 468.40 285.35 469.74 285.91 471.09 C 284.98 472.71 283.98 474.29 283.29 476.03 C 283.52 477.13 285.04 477.35 285.83 478.05 C 284.87 479.18 283.92 480.31 282.99 481.47 C 285.97 482.31 288.67 480.83 291.13 479.31 C 291.28 479.71 291.60 480.50 291.75 480.90 C 290.47 483.38 289.43 485.99 288.92 488.75 C 286.62 488.69 284.90 487.02 283.11 485.80 C 281.13 488.02 279.14 490.77 280.00 493.93 C 280.02 496.62 282.36 498.03 284.39 499.28 C 284.07 497.83 283.71 496.40 283.32 494.98 C 286.20 494.47 287.41 497.14 288.79 499.11 C 286.41 499.57 284.80 501.41 283.34 503.18 C 283.51 503.59 283.69 504.00 283.87 504.42 C 285.25 504.05 286.63 503.68 288.02 503.32 C 287.56 506.38 286.54 509.32 284.99 512.00 L 106.37 512.00 C 107.66 509.34 109.05 506.72 110.84 504.37 C 112.04 504.58 113.25 504.78 114.45 504.99 C 113.39 502.78 111.95 500.56 111.95 498.03 C 112.33 496.15 113.38 494.52 114.24 492.86 C 113.99 491.87 113.73 490.89 113.47 489.91 C 114.59 489.15 115.70 488.38 116.82 487.62 C 114.85 486.38 112.85 485.19 110.99 483.79 C 112.11 480.94 117.45 482.53 117.88 478.96 C 117.75 475.06 116.30 471.32 116.39 467.39 C 115.82 463.98 120.29 462.36 119.69 458.88 C 120.32 455.50 117.71 453.17 115.53 451.06 C 115.71 450.20 115.89 449.35 116.07 448.50 C 115.74 448.23 115.09 447.70 114.76 447.43 C 116.71 444.39 117.52 440.83 117.39 437.24 C 118.58 436.68 119.84 436.33 121.15 436.25 C 121.28 437.43 121.40 438.62 121.53 439.81 C 122.76 438.85 123.99 437.89 125.23 436.95 C 122.61 434.88 119.41 433.32 117.71 430.31 C 119.88 428.92 122.01 427.49 124.14 426.05 C 122.11 425.52 120.09 424.99 118.07 424.46 C 119.99 422.84 122.00 421.33 124.14 420.00 C 122.95 419.48 121.77 418.96 120.58 418.44 C 121.11 415.75 121.17 412.99 120.63 410.31 C 122.70 410.48 124.76 410.59 126.83 410.70 C 125.81 408.37 124.83 406.04 123.83 403.72 C 124.78 403.69 125.73 403.68 126.68 403.67 C 125.31 401.82 124.09 399.87 122.94 397.88 C 124.86 397.55 126.78 397.25 128.73 397.14 C 129.36 394.79 130.43 392.43 130.20 389.94 C 129.64 388.41 128.52 387.17 127.55 385.88 C 127.94 384.75 128.33 383.64 128.72 382.52 C 127.23 382.44 125.75 382.36 124.27 382.28 C 125.28 381.15 126.29 380.02 127.32 378.91 C 124.90 376.08 121.80 378.59 119.34 379.88 C 119.13 377.94 119.65 376.05 120.25 374.22 C 123.16 374.27 126.67 376.67 129.08 374.12 C 129.83 373.36 130.91 372.43 130.57 371.23 C 130.09 367.64 128.81 364.21 127.15 361.01 C 128.58 358.41 129.95 355.69 132.22 353.70 C 131.98 353.13 131.75 352.57 131.53 352.01 C 134.58 350.05 131.95 346.67 129.65 345.38 C 132.30 344.23 134.24 342.04 136.25 340.06 C 137.47 337.20 135.06 334.51 133.73 332.17 C 132.14 332.71 130.53 333.21 128.92 333.69 C 127.71 331.39 126.54 329.07 125.42 326.73 C 125.52 326.45 125.72 325.87 125.82 325.58 C 128.16 326.47 130.66 326.67 132.97 325.54 C 133.77 326.31 134.57 327.08 135.37 327.85 C 135.30 324.02 135.55 320.10 137.56 316.72 C 134.96 318.74 132.33 320.74 129.84 322.92 C 127.93 322.41 125.50 322.58 124.20 320.83 C 121.85 317.79 120.46 313.91 117.08 311.78 C 116.79 312.38 116.20 313.56 115.91 314.16 C 115.29 313.14 114.67 312.12 114.04 311.12 C 115.03 310.38 116.02 309.61 117.09 308.99 C 121.29 309.82 123.76 313.64 126.74 316.33 C 128.61 318.23 131.49 317.59 133.89 317.65 C 134.00 315.11 134.05 312.58 134.07 310.05 C 133.20 311.75 132.32 313.53 130.73 314.69 C 130.46 314.25 129.91 313.36 129.64 312.92 C 128.93 313.16 128.21 313.40 127.51 313.65 C 127.16 312.82 126.72 312.03 126.18 311.32 C 128.13 310.12 130.09 308.96 132.06 307.83 C 131.62 307.09 131.17 306.35 130.73 305.62 C 129.18 305.54 127.64 305.47 126.09 305.42 C 125.70 304.58 125.31 303.75 124.92 302.92 C 124.54 303.41 124.16 303.89 123.78 304.38 C 124.01 305.61 124.25 306.83 124.49 308.05 C 123.13 307.84 121.76 307.67 120.39 307.53 C 119.74 303.52 123.34 300.65 124.03 296.88 C 126.02 297.87 126.79 299.90 127.33 301.93 C 128.63 300.90 129.95 299.90 131.30 298.94 C 130.43 295.16 126.68 294.05 123.52 292.81 C 124.73 290.36 125.93 287.91 126.93 285.37 C 129.24 285.25 131.54 285.41 133.80 285.89 C 131.33 287.63 128.93 289.50 127.11 291.94 C 127.55 292.19 128.42 292.68 128.85 292.92 C 130.63 289.99 133.50 288.25 136.89 287.88 C 135.72 285.89 134.76 283.66 132.92 282.19 C 131.53 281.51 129.90 281.68 128.40 281.49 C 128.79 280.27 129.18 279.04 129.57 277.81 C 127.97 276.98 126.36 276.14 124.66 275.52 C 125.06 274.10 125.41 272.67 125.74 271.23 C 127.86 271.34 130.01 271.57 132.13 271.25 C 133.79 269.43 135.15 267.36 136.94 265.66 C 136.65 265.33 136.05 264.66 135.76 264.33 C 132.57 264.36 130.81 267.14 128.98 269.32 C 125.86 267.61 127.78 264.72 129.06 262.47 C 127.96 261.33 126.86 260.19 125.77 259.05 C 130.17 257.28 135.02 258.59 139.59 257.63 C 140.36 258.31 141.13 258.99 141.90 259.68 C 140.65 260.84 139.27 261.99 138.86 263.73 C 141.15 263.28 143.39 262.58 145.56 261.75 C 144.46 259.42 142.87 257.38 141.04 255.58 C 141.72 253.89 141.92 251.73 143.58 250.66 C 144.97 250.12 146.45 249.84 147.90 249.50 C 142.36 247.07 137.75 242.01 137.19 235.81 Z" />
</g>
<g id="#595957ff">
<path fill="#595957" opacity="1.00" d=" M 241.56 228.53 C 244.17 223.95 249.75 222.82 254.20 220.76 C 256.68 221.55 259.04 222.66 261.30 223.95 C 259.61 227.33 255.66 226.57 252.52 226.94 C 252.55 227.98 252.57 229.02 252.60 230.07 C 251.80 231.00 251.00 231.93 250.20 232.87 C 250.69 232.87 251.67 232.88 252.15 232.88 C 251.80 233.25 251.11 233.99 250.76 234.36 C 248.86 234.26 246.75 233.71 245.11 234.97 C 245.93 236.29 246.76 237.61 247.58 238.93 C 245.42 247.70 242.09 256.12 237.30 263.78 C 239.96 267.52 239.80 273.47 244.70 275.21 C 244.24 273.06 243.73 270.93 243.32 268.78 C 245.47 271.34 247.64 273.91 250.13 276.15 C 251.23 272.67 247.48 269.78 248.57 266.27 C 249.32 263.09 248.24 259.95 247.61 256.86 C 247.04 257.90 246.48 258.93 245.94 259.98 C 246.93 256.19 246.64 252.23 247.42 248.41 C 250.00 243.66 254.99 240.64 259.95 238.81 C 257.60 241.20 254.98 243.25 252.34 245.29 C 249.26 247.56 248.89 251.67 248.20 255.14 C 252.14 250.20 257.20 246.42 261.98 242.35 C 262.64 243.95 263.29 245.55 263.92 247.17 C 263.53 247.24 262.76 247.38 262.37 247.45 C 260.28 248.05 257.74 248.36 256.41 250.29 C 252.69 256.14 250.69 263.75 253.51 270.39 C 254.75 273.11 255.77 276.63 258.87 277.76 C 262.87 279.47 267.29 278.92 271.45 278.19 C 273.59 277.92 275.73 277.63 277.87 277.36 C 282.15 278.04 284.06 281.94 284.80 285.78 C 282.79 285.63 280.79 285.50 278.78 285.41 C 280.26 286.42 281.76 287.40 283.28 288.36 C 282.92 289.82 282.57 291.28 282.22 292.74 C 285.87 293.22 289.56 293.32 293.24 293.34 C 290.49 294.35 287.51 294.14 284.69 294.80 C 282.84 295.34 282.01 297.20 280.99 298.65 C 284.16 300.48 287.35 302.33 290.88 303.39 C 288.85 305.16 286.25 305.96 283.71 306.63 C 282.11 307.09 280.53 307.57 278.96 308.08 C 284.36 314.03 291.13 318.66 296.07 325.07 C 294.26 325.88 292.31 326.22 290.34 326.17 C 287.46 322.64 284.27 318.40 279.17 318.67 C 277.78 317.14 276.33 315.68 274.92 314.17 C 275.29 313.72 276.04 312.81 276.42 312.35 C 275.45 311.41 274.49 310.47 273.54 309.54 C 273.58 308.25 273.62 306.96 273.67 305.68 C 272.65 305.46 271.62 305.24 270.61 305.04 C 272.64 304.39 274.47 303.29 276.16 302.00 C 273.76 301.56 271.32 301.36 268.88 301.18 C 264.48 300.90 260.56 298.62 256.27 297.81 C 251.83 296.91 247.77 294.63 244.59 291.41 C 239.93 286.57 233.78 283.65 228.23 280.00 C 228.71 284.40 231.97 287.58 235.15 290.32 C 232.19 291.77 229.14 293.54 227.59 296.60 C 225.58 300.25 226.09 304.56 225.90 308.57 C 225.73 308.89 225.37 309.54 225.19 309.87 C 223.56 308.76 221.78 307.86 219.78 307.77 C 220.18 311.70 224.02 313.45 227.04 315.18 C 226.85 316.82 226.59 318.45 226.35 320.10 C 224.05 319.07 222.25 317.32 220.28 315.82 C 218.68 315.15 216.90 315.18 215.21 314.96 C 216.60 313.41 217.86 311.76 219.01 310.02 C 216.89 310.35 214.84 310.95 212.82 311.65 C 212.50 314.50 211.89 317.33 210.52 319.87 C 209.88 317.87 209.26 315.85 208.60 313.86 C 206.01 316.61 208.20 320.64 209.46 323.53 C 211.18 327.56 216.01 328.08 219.17 330.58 C 215.87 330.97 212.21 330.58 209.60 333.03 C 208.03 333.47 206.67 332.25 205.40 331.57 C 202.68 329.63 199.06 328.00 198.48 324.33 C 196.49 319.04 198.97 313.32 201.94 308.96 C 205.23 308.02 208.90 308.23 211.77 306.10 C 216.29 303.70 216.30 297.41 220.94 294.93 C 223.08 293.73 225.49 292.77 227.11 290.85 C 228.71 283.36 221.75 277.44 222.47 270.03 C 222.76 268.47 223.48 267.03 224.03 265.55 C 225.21 266.46 226.39 267.38 227.58 268.29 C 227.66 270.57 227.88 272.91 229.16 274.88 C 230.03 274.59 230.91 274.31 231.79 274.03 C 230.80 271.34 229.58 268.72 228.88 265.93 C 228.99 263.77 229.98 261.79 230.58 259.74 C 230.72 260.33 231.00 261.52 231.14 262.11 C 233.44 257.48 232.98 252.02 234.22 247.06 C 234.74 248.01 235.25 248.96 235.77 249.91 C 237.03 247.14 238.15 244.31 239.04 241.41 C 240.45 242.60 242.09 243.60 244.02 243.14 C 243.38 240.89 241.04 239.19 241.58 236.67 C 241.76 233.95 241.42 231.24 241.56 228.53 M 234.67 254.68 C 233.71 256.24 234.14 258.16 234.06 259.90 C 234.74 259.90 236.10 259.90 236.78 259.90 C 237.78 256.58 238.57 253.21 239.62 249.91 C 237.95 251.47 236.11 252.89 234.67 254.68 M 232.33 270.73 C 236.77 274.71 239.04 280.60 244.09 283.93 C 247.44 286.88 252.12 287.02 256.25 288.09 C 256.14 287.62 255.93 286.69 255.83 286.22 C 257.01 287.71 257.29 290.09 259.28 290.79 C 263.56 292.39 268.18 292.76 272.71 293.14 C 272.19 292.12 271.67 291.10 271.15 290.08 C 272.80 289.94 274.44 289.77 276.08 289.57 C 273.45 288.68 270.00 289.90 267.89 288.05 C 270.96 287.60 274.07 287.61 277.15 287.98 C 277.16 288.72 277.18 290.19 277.19 290.93 C 276.54 291.58 275.89 292.23 275.25 292.88 C 277.00 292.87 278.75 292.86 280.51 292.86 C 280.24 291.18 280.51 289.17 279.07 287.95 C 276.70 285.01 272.62 285.07 269.49 283.43 C 268.95 284.60 269.07 286.26 267.85 286.99 C 264.62 286.78 260.41 287.25 258.60 283.89 C 260.16 283.18 261.35 281.88 262.90 281.15 C 259.53 280.13 255.55 280.73 252.90 278.02 C 251.08 276.02 248.69 277.74 247.12 279.09 C 249.43 281.47 252.51 282.86 254.90 285.13 C 252.08 284.16 249.14 283.20 246.99 281.02 C 242.58 276.27 238.24 271.45 233.74 266.79 C 233.12 268.04 232.65 269.37 232.33 270.73 M 200.94 313.15 C 201.29 317.96 202.43 322.70 203.84 327.30 C 204.38 329.54 206.38 331.56 208.86 330.90 C 208.91 327.71 205.83 325.82 204.94 322.96 C 204.76 318.36 204.96 313.72 205.71 309.18 C 204.11 310.44 201.69 311.15 200.94 313.15 Z" />
</g>
<g id="#535559ff">
<path fill="#535559" opacity="1.00" d=" M 139.11 225.13 C 140.37 224.96 141.63 224.80 142.90 224.66 C 143.23 226.18 143.58 227.70 143.90 229.23 C 141.72 230.29 143.35 232.36 143.90 233.91 C 144.46 233.68 145.57 233.23 146.13 233.01 L 146.66 232.75 C 148.00 233.23 149.33 233.73 150.66 234.25 L 151.47 234.59 C 150.00 235.96 148.51 237.30 146.99 238.61 C 144.66 237.93 142.23 237.63 139.80 237.64 C 139.29 233.49 137.74 229.29 139.11 225.13 Z" />
</g>
<g id="#000000c2">
<path fill="#000000" opacity="0.76" d=" M 307.59 236.51 C 306.15 232.61 303.49 228.23 306.42 224.33 C 308.29 225.94 310.15 227.58 311.86 229.36 C 313.93 234.35 317.31 238.89 321.22 242.59 C 319.44 242.94 317.67 243.28 315.88 243.55 C 312.87 241.59 308.65 240.36 307.59 236.51 Z" />
</g>
<g id="#7c7e76ff">
<path fill="#7c7e76" opacity="1.00" d=" M 181.87 227.96 C 182.94 227.30 184.02 226.63 185.09 225.97 C 185.39 226.99 185.70 228.01 186.00 229.04 C 187.45 229.63 188.89 230.23 190.33 230.83 C 191.22 233.96 192.28 237.47 195.98 238.10 C 197.10 234.73 195.63 230.38 198.95 228.05 C 198.66 232.04 198.13 236.04 198.65 240.04 C 197.31 240.20 195.97 240.31 194.62 240.37 C 191.84 239.78 189.02 239.43 186.20 239.17 C 185.01 238.53 183.83 237.87 182.65 237.22 C 182.22 234.15 181.88 231.06 181.87 227.96 Z" />
</g>
<g id="#8c8c90ff">
<path fill="#8c8c90" opacity="1.00" d=" M 148.55 230.52 C 153.32 230.07 157.90 227.88 162.73 228.31 C 165.17 228.41 164.51 231.31 164.66 232.96 C 160.08 234.24 155.29 233.30 150.66 234.25 C 149.33 233.73 148.00 233.23 146.66 232.75 C 147.30 232.01 147.93 231.27 148.55 230.52 Z" />
</g>
<g id="#97958cff">
<path fill="#97958c" opacity="1.00" d=" M 265.00 230.19 C 270.55 229.26 275.63 232.90 279.59 236.37 C 279.36 237.43 279.13 238.50 278.91 239.57 C 276.60 239.76 274.28 239.79 271.97 239.83 L 271.16 239.85 C 272.50 239.10 273.82 238.34 275.16 237.58 C 270.03 234.25 263.76 231.34 257.53 232.77 C 255.73 232.83 253.94 232.88 252.15 232.88 C 251.67 232.88 250.69 232.87 250.20 232.87 C 251.00 231.93 251.80 231.00 252.60 230.07 C 256.72 230.48 260.87 230.62 265.00 230.19 Z" />
</g>
<g id="#909092ff">
<path fill="#909092" opacity="1.00" d=" M 143.90 233.91 C 143.35 232.36 141.72 230.29 143.90 229.23 C 144.62 230.50 145.38 231.75 146.13 233.01 C 145.57 233.23 144.46 233.68 143.90 233.91 Z" />
</g>
<g id="#696b6aff">
<path fill="#696b6a" opacity="1.00" d=" M 257.53 232.77 C 263.76 231.34 270.03 234.25 275.16 237.58 C 273.82 238.34 272.50 239.10 271.16 239.85 L 271.97 239.83 C 270.04 241.16 268.37 242.84 266.94 244.70 C 270.60 244.24 274.27 244.01 277.94 243.72 C 280.78 243.46 283.37 242.00 286.24 241.92 C 284.01 244.17 281.66 246.28 279.37 248.46 C 278.86 248.32 277.83 248.03 277.32 247.89 C 272.94 246.73 268.39 247.27 263.92 247.17 C 263.29 245.55 262.64 243.95 261.98 242.35 C 263.37 241.26 264.84 240.28 266.31 239.31 C 266.18 238.65 266.05 237.99 265.91 237.34 C 265.72 236.68 265.49 236.04 265.23 235.41 C 262.66 234.53 259.96 234.03 257.53 232.77 Z" />
</g>
<g id="#424241ff">
<path fill="#424241" opacity="1.00" d=" M 252.15 232.88 C 253.94 232.88 255.73 232.83 257.53 232.77 C 259.96 234.03 262.66 234.53 265.23 235.41 C 265.49 236.04 265.72 236.68 265.91 237.34 C 263.89 237.71 261.86 238.05 259.95 238.81 C 254.99 240.64 250.00 243.66 247.42 248.41 C 246.64 252.23 246.93 256.19 245.94 259.98 C 245.71 260.46 245.25 261.41 245.02 261.88 C 244.15 260.56 243.28 259.24 242.42 257.92 C 242.45 261.56 242.74 265.19 243.32 268.78 C 243.73 270.93 244.24 273.06 244.70 275.21 C 239.80 273.47 239.96 267.52 237.30 263.78 C 242.09 256.12 245.42 247.70 247.58 238.93 C 246.76 237.61 245.93 236.29 245.11 234.97 C 246.75 233.71 248.86 234.26 250.76 234.36 C 251.11 233.99 251.80 233.25 252.15 232.88 Z" />
</g>
<g id="#4a4b4aff">
<path fill="#4a4b4a" opacity="1.00" d=" M 200.42 234.04 C 202.94 233.48 205.27 234.30 207.39 235.64 C 209.61 237.15 212.32 236.00 214.78 236.17 C 217.84 237.27 219.47 240.35 221.06 242.97 C 217.39 243.30 213.72 243.28 210.04 243.36 C 205.14 242.53 200.21 241.80 195.40 240.54 L 194.62 240.37 C 195.97 240.31 197.31 240.20 198.65 240.04 L 199.41 239.63 C 199.81 237.78 200.11 235.90 200.42 234.04 Z" />
</g>
<g id="#414040ff">
<path fill="#414040" opacity="1.00" d=" M 151.47 234.59 C 155.45 235.69 159.62 234.94 163.69 234.97 C 165.19 236.32 166.34 238.84 168.67 238.72 C 170.72 238.82 171.46 236.43 172.65 235.19 C 173.92 236.11 175.20 237.03 176.43 238.03 C 178.51 237.84 180.59 237.57 182.65 237.22 C 183.83 237.87 185.01 238.53 186.20 239.17 C 178.93 241.30 171.18 241.73 163.70 240.53 C 159.68 239.92 155.63 240.46 151.61 240.81 C 148.25 240.51 144.85 240.96 141.51 240.45 C 140.32 240.08 140.30 238.58 139.80 237.64 C 142.23 237.63 144.66 237.93 146.99 238.61 C 148.51 237.30 150.00 235.96 151.47 234.59 Z" />
</g>
<g id="#7f807fff">
<path fill="#7f807f" opacity="1.00" d=" M 259.95 238.81 C 261.86 238.05 263.89 237.71 265.91 237.34 C 266.05 237.99 266.18 238.65 266.31 239.31 C 264.84 240.28 263.37 241.26 261.98 242.35 C 257.20 246.42 252.14 250.20 248.20 255.14 C 248.89 251.67 249.26 247.56 252.34 245.29 C 254.98 243.25 257.60 241.20 259.95 238.81 Z" />
</g>
<g id="#020101bf">
<path fill="#020101" opacity="0.75" d=" M 163.70 240.53 C 171.18 241.73 178.93 241.30 186.20 239.17 C 189.02 239.43 191.84 239.78 194.62 240.37 L 195.40 240.54 C 191.96 240.83 188.69 242.32 185.23 242.32 C 175.82 241.43 166.35 241.55 156.92 241.89 C 155.08 242.01 153.34 241.35 151.61 240.81 C 155.63 240.46 159.68 239.92 163.70 240.53 Z" />
</g>
<g id="#424442ff">
<path fill="#424442" opacity="1.00" d=" M 228.80 238.59 C 230.48 239.09 232.16 239.64 233.84 240.15 C 232.75 246.68 231.56 253.19 230.58 259.74 C 229.98 261.79 228.99 263.77 228.88 265.93 C 229.58 268.72 230.80 271.34 231.79 274.03 C 230.91 274.31 230.03 274.59 229.16 274.88 C 227.88 272.91 227.66 270.57 227.58 268.29 C 226.39 267.38 225.21 266.46 224.03 265.55 C 224.69 260.30 224.23 254.96 225.05 249.72 C 225.05 251.92 225.24 254.11 225.51 256.30 C 228.00 250.76 227.16 244.40 228.80 238.59 Z" />
</g>
<g id="#5e5f5dff">
<path fill="#5e5f5d" opacity="1.00" d=" M 340.08 240.07 C 341.80 241.94 343.63 243.74 345.78 245.12 C 352.85 249.32 356.04 257.55 358.27 265.02 C 358.67 269.86 352.34 269.46 351.29 273.36 C 350.58 274.55 350.19 277.32 348.23 276.56 C 345.06 275.03 341.50 273.44 339.72 270.23 C 340.55 267.79 342.18 265.01 340.63 262.49 C 338.22 257.99 336.06 253.06 331.92 249.87 C 331.15 248.38 330.48 246.85 329.70 245.37 C 331.08 246.19 332.47 247.08 334.04 247.54 C 336.92 247.69 339.25 245.72 341.33 243.99 C 340.91 242.68 340.52 241.37 340.08 240.07 Z" />
</g>
<g id="#82817cff">
<path fill="#82817c" opacity="1.00" d=" M 286.24 241.92 C 291.39 242.17 296.83 242.06 301.55 244.46 C 303.86 245.55 305.56 247.51 307.51 249.09 C 305.83 250.02 304.10 250.87 302.37 251.68 C 302.05 257.56 303.45 263.58 301.67 269.33 C 300.71 264.25 301.09 259.06 300.73 253.94 C 300.46 254.28 299.94 254.97 299.67 255.32 C 298.70 252.72 297.90 249.99 296.28 247.71 C 293.95 245.87 290.81 245.45 287.95 245.16 C 285.55 244.96 284.61 247.76 282.94 249.00 C 281.94 250.48 280.52 248.76 279.37 248.46 C 281.66 246.28 284.01 244.17 286.24 241.92 Z" />
</g>
<g id="#666777ff">
<path fill="#666777" opacity="1.00" d=" M 315.88 243.55 C 317.67 243.28 319.44 242.94 321.22 242.59 L 321.81 243.13 C 322.63 247.55 324.79 251.73 324.63 256.31 C 324.64 256.40 324.64 256.59 324.64 256.69 C 324.66 257.43 324.68 258.93 324.70 259.68 C 323.01 260.21 321.31 260.73 319.62 261.23 C 319.78 262.67 319.93 264.11 320.06 265.56 C 320.75 265.66 322.14 265.86 322.84 265.96 C 323.37 266.04 324.44 266.20 324.97 266.29 C 324.92 268.65 325.63 271.29 324.23 273.41 C 322.16 276.17 323.82 279.97 321.45 282.63 C 317.74 281.91 313.93 281.83 310.21 281.17 C 307.32 277.10 314.81 273.89 312.70 269.47 C 309.04 268.90 305.34 268.91 301.67 269.33 C 303.45 263.58 302.05 257.56 302.37 251.68 C 304.10 250.87 305.83 250.02 307.51 249.09 C 307.85 249.29 308.52 249.69 308.85 249.89 C 309.02 248.42 308.86 246.86 309.44 245.47 C 311.09 243.75 313.72 244.03 315.88 243.55 M 318.14 257.20 C 317.61 258.83 318.16 259.40 319.78 258.90 C 320.29 257.26 319.74 256.69 318.14 257.20 M 313.43 261.39 C 313.53 262.75 313.60 264.12 313.65 265.49 C 315.39 266.05 317.16 266.53 319.00 266.64 C 318.55 265.26 316.97 265.54 315.85 265.23 C 315.78 263.84 315.70 262.46 315.61 261.07 C 315.06 261.15 313.97 261.31 313.43 261.39 M 320.09 276.20 C 318.28 276.61 319.38 279.42 321.01 278.95 C 322.85 278.55 321.69 275.76 320.09 276.20 Z" />
</g>
<g id="#4c543afe">
<path fill="#4c543a" opacity="1.00" d=" M 321.81 243.13 C 323.06 244.21 324.19 245.43 325.31 246.66 C 325.06 247.96 324.83 249.27 324.61 250.58 C 326.88 252.54 329.25 255.43 327.71 258.59 C 326.17 260.38 323.87 261.22 321.88 262.39 C 322.28 263.55 322.57 264.75 322.84 265.96 C 322.14 265.86 320.75 265.66 320.06 265.56 C 319.93 264.11 319.78 262.67 319.62 261.23 C 321.31 260.73 323.01 260.21 324.70 259.68 C 324.68 258.93 324.66 257.43 324.64 256.69 L 324.63 256.31 C 324.79 251.73 322.63 247.55 321.81 243.13 Z" />
</g>
<g id="#97968fff">
<path fill="#97968f" opacity="1.00" d=" M 282.94 249.00 C 284.61 247.76 285.55 244.96 287.95 245.16 C 290.81 245.45 293.95 245.87 296.28 247.71 C 297.90 249.99 298.70 252.72 299.67 255.32 C 299.42 256.88 299.17 258.45 298.98 260.03 C 298.28 260.05 296.89 260.09 296.19 260.12 C 292.01 260.60 287.74 260.57 283.63 259.62 C 283.56 259.61 283.42 259.59 283.34 259.58 C 280.76 259.34 278.06 259.45 275.65 260.51 C 274.77 261.97 275.71 263.61 275.88 265.14 C 282.32 265.44 288.78 264.56 295.20 265.39 C 292.52 266.68 289.55 266.81 286.63 266.61 C 286.16 268.29 286.34 270.70 284.33 271.36 C 281.10 272.86 277.45 272.18 274.04 272.03 C 270.10 271.82 266.13 271.27 262.47 269.74 C 256.48 268.15 257.65 260.17 259.56 255.77 C 261.21 255.31 262.85 254.84 264.50 254.36 C 265.04 252.83 265.57 251.31 266.10 249.78 C 269.84 249.18 273.58 248.52 277.32 247.89 C 277.83 248.03 278.86 248.32 279.37 248.46 C 280.52 248.76 281.94 250.48 282.94 249.00 Z" />
</g>
<g id="#73736cff">
<path fill="#73736c" opacity="1.00" d=" M 256.41 250.29 C 257.74 248.36 260.28 248.05 262.37 247.45 C 259.48 249.91 256.63 252.85 255.62 256.61 C 255.80 260.59 256.01 264.60 256.48 268.56 C 258.15 272.23 261.39 275.71 265.59 276.18 C 267.66 276.48 269.69 277.03 271.45 278.19 C 267.29 278.92 262.87 279.47 258.87 277.76 C 255.77 276.63 254.75 273.11 253.51 270.39 C 250.69 263.75 252.69 256.14 256.41 250.29 Z" />
</g>
<g id="#87857eff">
<path fill="#87857e" opacity="1.00" d=" M 262.37 247.45 C 262.76 247.38 263.53 247.24 263.92 247.17 C 268.39 247.27 272.94 246.73 277.32 247.89 C 273.58 248.52 269.84 249.18 266.10 249.78 C 265.57 251.31 265.04 252.83 264.50 254.36 C 262.85 254.84 261.21 255.31 259.56 255.77 C 257.65 260.17 256.48 268.15 262.47 269.74 C 266.13 271.27 270.10 271.82 274.04 272.03 C 277.45 272.18 281.10 272.86 284.33 271.36 C 286.34 270.70 286.16 268.29 286.63 266.61 C 289.55 266.81 292.52 266.68 295.20 265.39 C 296.70 265.24 298.22 265.18 299.73 265.11 C 298.56 269.28 298.93 273.45 300.72 277.37 C 296.48 278.03 292.26 278.83 287.98 279.16 C 284.32 279.95 281.56 275.94 277.87 277.36 C 275.73 277.63 273.59 277.92 271.45 278.19 C 269.69 277.03 267.66 276.48 265.59 276.18 C 261.39 275.71 258.15 272.23 256.48 268.56 C 256.01 264.60 255.80 260.59 255.62 256.61 C 256.63 252.85 259.48 249.91 262.37 247.45 Z" />
</g>
<g id="#000000c3">
<path fill="#000000" opacity="0.76" d=" M 325.31 246.66 C 330.36 251.09 335.02 256.91 335.16 263.93 C 333.77 266.87 330.18 268.21 328.49 271.09 C 327.69 269.24 327.17 266.92 324.97 266.29 C 324.44 266.20 323.37 266.04 322.84 265.96 C 322.57 264.75 322.28 263.55 321.88 262.39 C 323.87 261.22 326.17 260.38 327.71 258.59 C 329.25 255.43 326.88 252.54 324.61 250.58 C 324.83 249.27 325.06 247.96 325.31 246.66 Z" />
</g>
<g id="#78756fff">
<path fill="#78756f" opacity="1.00" d=" M 234.67 254.68 C 236.11 252.89 237.95 251.47 239.62 249.91 C 238.57 253.21 237.78 256.58 236.78 259.90 C 236.10 259.90 234.74 259.90 234.06 259.90 C 234.14 258.16 233.71 256.24 234.67 254.68 Z" />
</g>
<g id="#323232fc">
<path fill="#323232" opacity="1.00" d=" M 331.92 249.87 C 336.06 253.06 338.22 257.99 340.63 262.49 C 342.18 265.01 340.55 267.79 339.72 270.23 C 337.84 266.98 338.16 263.15 337.26 259.64 C 335.84 256.19 333.37 253.31 331.92 249.87 Z" />
</g>
<g id="#73706aff">
<path fill="#73706a" opacity="1.00" d=" M 299.67 255.32 C 299.94 254.97 300.46 254.28 300.73 253.94 C 301.09 259.06 300.71 264.25 301.67 269.33 C 301.84 270.43 302.01 271.54 302.18 272.65 C 304.25 273.92 307.98 274.58 307.50 277.75 C 306.65 280.83 303.28 282.20 300.93 284.00 C 297.27 284.65 293.55 284.88 289.87 285.33 C 291.25 286.63 292.65 287.92 294.07 289.20 C 293.78 290.58 293.52 291.96 293.24 293.34 C 289.56 293.32 285.87 293.22 282.22 292.74 C 282.57 291.28 282.92 289.82 283.28 288.36 C 281.76 287.40 280.26 286.42 278.78 285.41 C 280.79 285.50 282.79 285.63 284.80 285.78 C 284.06 281.94 282.15 278.04 277.87 277.36 C 281.56 275.94 284.32 279.95 287.98 279.16 C 292.26 278.83 296.48 278.03 300.72 277.37 C 298.93 273.45 298.56 269.28 299.73 265.11 C 298.22 265.18 296.70 265.24 295.20 265.39 C 296.20 264.27 297.21 263.17 298.22 262.07 C 298.41 261.56 298.79 260.54 298.98 260.03 C 299.17 258.45 299.42 256.88 299.67 255.32 M 283.22 291.21 C 283.76 291.75 283.76 291.75 283.22 291.21 Z" />
</g>
<g id="#ffffffff">
<path fill="#ffffff" opacity="1.00" d=" M 324.64 256.69 C 324.64 256.59 324.64 256.40 324.63 256.31 L 324.64 256.69 Z" />
<path fill="#ffffff" opacity="1.00" d=" M 283.34 259.58 C 283.42 259.59 283.56 259.61 283.63 259.62 L 283.34 259.58 Z" />
<path fill="#ffffff" opacity="1.00" d=" M 280.26 263.21 C 280.81 263.75 280.81 263.75 280.26 263.21 Z" />
<path fill="#ffffff" opacity="1.00" d=" M 284.23 263.22 C 284.77 263.76 284.77 263.76 284.23 263.22 Z" />
<path fill="#ffffff" opacity="1.00" d=" M 292.20 263.25 C 292.74 263.80 292.74 263.80 292.20 263.25 Z" />
<path fill="#ffffff" opacity="1.00" d=" M 308.23 275.22 C 308.82 275.81 308.82 275.81 308.23 275.22 Z" />
</g>
<g id="#7a7b7bff">
<path fill="#7a7b7b" opacity="1.00" d=" M 245.94 259.98 C 246.48 258.93 247.04 257.90 247.61 256.86 C 248.24 259.95 249.32 263.09 248.57 266.27 C 247.48 269.78 251.23 272.67 250.13 276.15 C 247.64 273.91 245.47 271.34 243.32 268.78 C 242.74 265.19 242.45 261.56 242.42 257.92 C 243.28 259.24 244.15 260.56 245.02 261.88 C 245.25 261.41 245.71 260.46 245.94 259.98 Z" />
</g>
<g id="#b8bac2ff">
<path fill="#b8bac2" opacity="1.00" d=" M 318.14 257.20 C 319.74 256.69 320.29 257.26 319.78 258.90 C 318.16 259.40 317.61 258.83 318.14 257.20 Z" />
</g>
<g id="#7e8493ff">
<path fill="#7e8493" opacity="1.00" d=" M 275.65 260.51 C 278.06 259.45 280.76 259.34 283.34 259.58 L 283.63 259.62 C 287.74 260.57 292.01 260.60 296.19 260.12 C 296.58 261.04 297.26 261.69 298.22 262.07 C 297.21 263.17 296.20 264.27 295.20 265.39 C 288.78 264.56 282.32 265.44 275.88 265.14 C 275.71 263.61 274.77 261.97 275.65 260.51 M 280.26 263.21 C 280.81 263.75 280.81 263.75 280.26 263.21 M 284.23 263.22 C 284.77 263.76 284.77 263.76 284.23 263.22 M 292.20 263.25 C 292.74 263.80 292.74 263.80 292.20 263.25 Z" />
</g>
<g id="#e2e3e1ff">
<path fill="#e2e3e1" opacity="1.00" d=" M 296.19 260.12 C 296.89 260.09 298.28 260.05 298.98 260.03 C 298.79 260.54 298.41 261.56 298.22 262.07 C 297.26 261.69 296.58 261.04 296.19 260.12 Z" />
</g>
<g id="#fffeffff">
<path fill="#fffeff" opacity="1.00" d=" M 313.43 261.39 C 313.97 261.31 315.06 261.15 315.61 261.07 C 315.70 262.46 315.78 263.84 315.85 265.23 C 316.97 265.54 318.55 265.26 319.00 266.64 C 317.16 266.53 315.39 266.05 313.65 265.49 C 313.60 264.12 313.53 262.75 313.43 261.39 Z" />
<path fill="#fffeff" opacity="1.00" d=" M 320.09 276.20 C 321.69 275.76 322.85 278.55 321.01 278.95 C 319.38 279.42 318.28 276.61 320.09 276.20 Z" />
</g>
<g id="#495334fe">
<path fill="#495334" opacity="1.00" d=" M 324.97 266.29 C 327.17 266.92 327.69 269.24 328.49 271.09 C 327.22 272.86 325.93 274.62 324.52 276.28 C 324.48 278.67 325.40 281.59 323.41 283.45 C 322.07 285.22 319.74 284.52 317.89 284.43 C 319.10 283.89 320.29 283.29 321.45 282.63 C 323.82 279.97 322.16 276.17 324.23 273.41 C 325.63 271.29 324.92 268.65 324.97 266.29 Z" />
</g>
<g id="#79766fff">
<path fill="#79766f" opacity="1.00" d=" M 232.33 270.73 C 232.65 269.37 233.12 268.04 233.74 266.79 C 238.24 271.45 242.58 276.27 246.99 281.02 C 249.14 283.20 252.08 284.16 254.90 285.13 C 255.13 285.40 255.60 285.95 255.83 286.22 C 255.93 286.69 256.14 287.62 256.25 288.09 C 252.12 287.02 247.44 286.88 244.09 283.93 C 239.04 280.60 236.77 274.71 232.33 270.73 Z" />
</g>
<g id="#58595aff">
<path fill="#58595a" opacity="1.00" d=" M 301.67 269.33 C 305.34 268.91 309.04 268.90 312.70 269.47 C 314.81 273.89 307.32 277.10 310.21 281.17 C 313.93 281.83 317.74 281.91 321.45 282.63 C 320.29 283.29 319.10 283.89 317.89 284.43 C 316.94 284.66 316.10 285.15 315.31 285.72 C 314.03 285.60 312.75 285.46 311.48 285.31 C 310.78 287.61 310.25 289.99 309.17 292.16 C 307.82 293.69 306.10 294.83 304.48 296.05 C 304.59 296.62 304.82 297.77 304.93 298.34 C 303.20 297.80 301.48 297.06 300.70 295.29 C 304.38 294.58 308.16 292.80 309.30 288.92 C 308.24 288.66 307.19 288.41 306.14 288.17 C 305.75 287.50 305.36 286.83 304.98 286.17 C 302.72 286.91 300.42 287.53 298.10 288.05 C 298.83 286.56 299.66 285.10 300.93 284.00 C 303.28 282.20 306.65 280.83 307.50 277.75 C 307.98 274.58 304.25 273.92 302.18 272.65 C 302.01 271.54 301.84 270.43 301.67 269.33 M 308.23 275.22 C 308.82 275.81 308.82 275.81 308.23 275.22 Z" />
</g>
<g id="#3f4042ff">
<path fill="#3f4042" opacity="1.00" d=" M 247.12 279.09 C 248.69 277.74 251.08 276.02 252.90 278.02 C 255.55 280.73 259.53 280.13 262.90 281.15 C 261.35 281.88 260.16 283.18 258.60 283.89 C 260.41 287.25 264.62 286.78 267.85 286.99 C 269.07 286.26 268.95 284.60 269.49 283.43 C 272.62 285.07 276.70 285.01 279.07 287.95 C 280.51 289.17 280.24 291.18 280.51 292.86 C 278.75 292.86 277.00 292.87 275.25 292.88 C 275.89 292.23 276.54 291.58 277.19 290.93 C 277.18 290.19 277.16 288.72 277.15 287.98 C 274.07 287.61 270.96 287.60 267.89 288.05 C 270.00 289.90 273.45 288.68 276.08 289.57 C 274.44 289.77 272.80 289.94 271.15 290.08 C 271.67 291.10 272.19 292.12 272.71 293.14 C 268.18 292.76 263.56 292.39 259.28 290.79 C 257.29 290.09 257.01 287.71 255.83 286.22 C 255.60 285.95 255.13 285.40 254.90 285.13 C 252.51 282.86 249.43 281.47 247.12 279.09 Z" />
</g>
<g id="#86827bff">
<path fill="#86827b" opacity="1.00" d=" M 228.23 280.00 C 233.78 283.65 239.93 286.57 244.59 291.41 C 247.77 294.63 251.83 296.91 256.27 297.81 C 260.56 298.62 264.48 300.90 268.88 301.18 C 271.32 301.36 273.76 301.56 276.16 302.00 C 274.47 303.29 272.64 304.39 270.61 305.04 C 263.34 303.64 256.00 302.35 249.05 299.71 C 244.85 295.97 239.85 293.35 235.15 290.32 C 231.97 287.58 228.71 284.40 228.23 280.00 Z" />
</g>
<g id="#494942ff">
<path fill="#494942" opacity="1.00" d=" M 289.87 285.33 C 293.55 284.88 297.27 284.65 300.93 284.00 C 299.66 285.10 298.83 286.56 298.10 288.05 C 300.42 287.53 302.72 286.91 304.98 286.17 C 305.36 286.83 305.75 287.50 306.14 288.17 C 307.19 288.41 308.24 288.66 309.30 288.92 C 308.16 292.80 304.38 294.58 300.70 295.29 C 300.31 295.06 299.53 294.60 299.15 294.37 C 298.29 295.22 297.43 296.06 296.58 296.92 C 295.89 297.63 295.23 298.35 294.63 299.13 C 294.38 299.49 293.89 300.20 293.65 300.56 C 292.77 301.54 291.84 302.48 290.88 303.39 C 287.35 302.33 284.16 300.48 280.99 298.65 C 282.01 297.20 282.84 295.34 284.69 294.80 C 287.51 294.14 290.49 294.35 293.24 293.34 C 293.52 291.96 293.78 290.58 294.07 289.20 C 292.65 287.92 291.25 286.63 289.87 285.33 Z" />
</g>
<g id="#828284ff">
<path fill="#828284" opacity="1.00" d=" M 311.48 285.31 C 312.75 285.46 314.03 285.60 315.31 285.72 C 314.79 289.49 313.39 293.04 311.97 296.55 C 309.73 297.50 307.42 298.52 304.93 298.34 C 304.82 297.77 304.59 296.62 304.48 296.05 C 306.10 294.83 307.82 293.69 309.17 292.16 C 310.25 289.99 310.78 287.61 311.48 285.31 Z" />
</g>
<g id="#6a6b62ff">
<path fill="#6a6b62" opacity="1.00" d=" M 227.59 296.60 C 229.14 293.54 232.19 291.77 235.15 290.32 C 239.85 293.35 244.85 295.97 249.05 299.71 L 247.90 299.94 C 247.29 300.07 246.06 300.33 245.44 300.46 C 245.18 302.31 244.88 304.15 244.58 306.00 C 243.63 305.48 242.66 305.03 241.66 304.65 C 241.72 302.21 241.72 299.76 241.77 297.33 C 240.18 295.67 238.15 294.62 235.92 294.10 C 236.44 296.37 237.04 298.63 237.74 300.86 C 234.70 300.98 231.62 300.98 228.63 301.58 C 227.46 303.43 229.90 304.81 230.91 306.09 C 233.61 309.20 237.96 308.63 241.58 309.54 C 243.84 310.52 245.85 311.99 247.91 313.33 C 251.28 311.19 253.09 307.61 254.39 303.97 C 257.67 304.74 260.95 305.54 264.10 306.77 C 262.42 309.19 260.76 311.71 260.21 314.66 C 258.86 315.73 257.50 316.78 256.25 317.96 C 251.86 317.12 248.14 314.49 243.92 313.15 C 238.04 311.19 232.04 309.50 225.90 308.57 C 226.09 304.56 225.58 300.25 227.59 296.60 Z" />
</g>
<g id="#e4e1e4ff">
<path fill="#e4e1e4" opacity="1.00" d=" M 283.22 291.21 C 283.76 291.75 283.76 291.75 283.22 291.21 Z" />
</g>
<g id="#7b7d74ff">
<path fill="#7b7d74" opacity="1.00" d=" M 235.92 294.10 C 238.15 294.62 240.18 295.67 241.77 297.33 C 241.72 299.76 241.72 302.21 241.66 304.65 C 242.66 305.03 243.63 305.48 244.58 306.00 C 244.88 304.15 245.18 302.31 245.44 300.46 C 246.06 300.33 247.29 300.07 247.90 299.94 C 249.80 301.66 251.96 303.09 254.39 303.97 C 253.09 307.61 251.28 311.19 247.91 313.33 C 245.85 311.99 243.84 310.52 241.58 309.54 C 237.96 308.63 233.61 309.20 230.91 306.09 C 229.90 304.81 227.46 303.43 228.63 301.58 C 231.62 300.98 234.70 300.98 237.74 300.86 C 237.04 298.63 236.44 296.37 235.92 294.10 Z" />
</g>
<g id="#000000bd">
<path fill="#000000" opacity="0.74" d=" M 299.15 294.37 C 299.53 294.60 300.31 295.06 300.70 295.29 C 301.48 297.06 303.20 297.80 304.93 298.34 C 307.42 298.52 309.73 297.50 311.97 296.55 C 314.61 298.52 315.32 301.62 315.12 304.78 C 314.03 304.86 312.94 304.98 311.86 305.14 C 311.44 305.21 310.60 305.35 310.18 305.42 C 307.95 303.45 305.72 301.46 303.23 299.85 C 301.04 298.80 298.80 297.89 296.58 296.92 C 297.43 296.06 298.29 295.22 299.15 294.37 Z" />
</g>
<g id="#020202c4">
<path fill="#020202" opacity="0.77" d=" M 214.59 296.47 C 216.47 295.32 218.84 295.46 220.94 294.93 C 216.30 297.41 216.29 303.70 211.77 306.10 C 212.06 302.76 212.57 299.25 214.59 296.47 Z" />
</g>
<g id="#919785ff">
<path fill="#919785" opacity="1.00" d=" M 294.63 299.13 C 295.23 298.35 295.89 297.63 296.58 296.92 C 298.80 297.89 301.04 298.80 303.23 299.85 C 303.67 302.74 303.36 306.17 305.72 308.33 C 307.94 310.59 309.92 313.08 311.22 316.00 C 308.57 315.38 305.89 314.88 303.18 314.82 C 303.32 314.40 303.60 313.55 303.74 313.13 C 300.45 312.38 297.13 311.79 293.78 311.40 C 293.53 312.92 293.26 314.43 292.97 315.95 C 289.86 312.87 286.80 309.73 283.71 306.63 C 286.25 305.96 288.85 305.16 290.88 303.39 C 291.84 302.48 292.77 301.54 293.65 300.56 C 293.91 301.95 294.19 303.34 294.48 304.74 C 296.57 304.71 298.66 304.70 300.76 304.70 C 300.73 303.19 300.73 301.70 300.74 300.20 C 298.76 299.58 296.72 299.01 294.63 299.13 Z" />
</g>
<g id="#e9ffffff">
<path fill="#e9ffff" opacity="1.00" d=" M 294.63 299.13 C 296.72 299.01 298.76 299.58 300.74 300.20 C 300.73 301.70 300.73 303.19 300.76 304.70 C 298.66 304.70 296.57 304.71 294.48 304.74 C 294.19 303.34 293.91 301.95 293.65 300.56 C 293.89 300.20 294.38 299.49 294.63 299.13 Z" />
</g>
<g id="#4e4e4cff">
<path fill="#4e4e4c" opacity="1.00" d=" M 247.90 299.94 L 249.05 299.71 C 256.00 302.35 263.34 303.64 270.61 305.04 C 271.62 305.24 272.65 305.46 273.67 305.68 C 273.62 306.96 273.58 308.25 273.54 309.54 C 274.49 310.47 275.45 311.41 276.42 312.35 C 276.04 312.81 275.29 313.72 274.92 314.17 C 276.33 315.68 277.78 317.14 279.17 318.67 C 279.52 319.29 280.23 320.53 280.59 321.15 C 275.06 326.56 266.44 328.92 258.93 327.11 C 261.71 326.71 264.61 326.36 267.14 325.03 C 269.54 323.25 271.12 320.64 272.98 318.35 C 269.05 317.58 266.88 321.93 263.50 323.18 C 263.36 321.35 263.23 319.50 262.68 317.74 C 261.87 316.70 261.05 315.67 260.21 314.66 C 260.76 311.71 262.42 309.19 264.10 306.77 C 260.95 305.54 257.67 304.74 254.39 303.97 C 251.96 303.09 249.80 301.66 247.90 299.94 Z" />
</g>
<g id="#4c4c51fe">
<path fill="#4c4c51" opacity="1.00" d=" M 303.23 299.85 C 305.72 301.46 307.95 303.45 310.18 305.42 C 310.60 305.35 311.44 305.21 311.86 305.14 C 311.71 308.26 310.86 312.08 313.39 314.52 C 317.00 315.85 321.50 317.69 325.11 315.42 C 325.38 315.06 325.93 314.34 326.20 313.98 C 326.65 311.96 326.90 309.89 327.18 307.84 C 329.80 310.32 329.92 314.28 328.56 317.44 C 327.32 318.53 325.60 318.84 324.13 319.52 C 329.21 325.81 335.62 330.90 340.92 337.00 C 342.30 338.87 341.47 341.39 341.60 343.55 C 340.40 344.34 339.22 345.16 338.02 345.96 C 338.06 345.58 338.12 344.81 338.15 344.42 C 338.27 343.41 338.39 342.40 338.53 341.40 C 331.70 334.11 324.53 327.15 317.64 319.94 C 317.84 319.27 318.05 318.60 318.26 317.94 C 317.14 318.29 316.03 318.64 314.92 319.01 C 313.74 317.94 312.47 316.97 311.22 316.00 C 309.92 313.08 307.94 310.59 305.72 308.33 C 303.36 306.17 303.67 302.74 303.23 299.85 Z" />
</g>
<g id="#69696cff">
<path fill="#69696c" opacity="1.00" d=" M 311.86 305.14 C 312.94 304.98 314.03 304.86 315.12 304.78 C 318.74 307.23 323.33 306.09 327.18 307.84 C 326.90 309.89 326.65 311.96 326.20 313.98 C 326.07 312.33 325.86 310.70 325.67 309.07 C 324.19 309.41 322.52 309.34 321.24 310.25 C 320.49 311.65 320.40 313.29 320.06 314.82 C 321.74 315.03 323.42 315.25 325.11 315.42 C 321.50 317.69 317.00 315.85 313.39 314.52 C 310.86 312.08 311.71 308.26 311.86 305.14 Z" />
</g>
<g id="#9ba28cff">
<path fill="#9ba28c" opacity="1.00" d=" M 278.96 308.08 C 280.53 307.57 282.11 307.09 283.71 306.63 C 286.80 309.73 289.86 312.87 292.97 315.95 C 295.20 318.14 297.72 319.99 300.26 321.81 C 305.61 325.39 308.57 331.56 314.26 334.76 C 314.94 336.25 315.57 337.77 316.20 339.29 C 315.46 339.09 314.73 338.89 314.00 338.70 C 313.27 339.42 312.54 340.13 311.82 340.86 C 311.38 340.61 310.49 340.11 310.05 339.86 C 307.70 338.90 305.17 338.83 302.68 338.89 C 302.59 340.10 302.51 341.33 302.43 342.55 C 301.89 342.72 300.83 343.04 300.30 343.20 C 297.67 340.73 294.83 338.31 291.25 337.41 C 288.77 336.63 286.29 335.86 283.86 334.95 C 283.93 334.36 284.07 333.19 284.13 332.60 C 285.86 333.02 287.60 333.43 289.33 333.83 C 289.33 332.61 289.29 331.40 289.21 330.19 C 287.88 328.69 285.76 328.26 284.05 327.31 C 286.03 326.39 288.18 326.11 290.34 326.17 C 292.31 326.22 294.26 325.88 296.07 325.07 C 291.13 318.66 284.36 314.03 278.96 308.08 Z" />
</g>
<g id="#767879ff">
<path fill="#767879" opacity="1.00" d=" M 219.78 307.77 C 221.78 307.86 223.56 308.76 225.19 309.87 C 225.53 310.07 226.22 310.47 226.56 310.66 C 226.89 312.14 227.19 313.65 227.04 315.18 C 224.02 313.45 220.18 311.70 219.78 307.77 Z" />
</g>
<g id="#818080ff">
<path fill="#818080" opacity="1.00" d=" M 200.94 313.15 C 201.69 311.15 204.11 310.44 205.71 309.18 C 204.96 313.72 204.76 318.36 204.94 322.96 C 205.83 325.82 208.91 327.71 208.86 330.90 C 206.38 331.56 204.38 329.54 203.84 327.30 C 202.43 322.70 201.29 317.96 200.94 313.15 Z" />
</g>
<g id="#32312dff">
<path fill="#32312d" opacity="1.00" d=" M 225.19 309.87 C 225.37 309.54 225.73 308.89 225.90 308.57 C 232.04 309.50 238.04 311.19 243.92 313.15 C 248.14 314.49 251.86 317.12 256.25 317.96 C 255.34 319.10 254.49 320.28 253.64 321.47 C 252.20 321.71 250.77 321.98 249.34 322.20 C 248.97 322.11 248.25 321.92 247.89 321.83 C 248.00 320.70 248.12 319.58 248.25 318.46 C 243.50 315.32 238.14 312.85 232.39 312.44 C 231.75 312.33 230.46 312.12 229.82 312.01 C 228.70 311.62 227.61 311.18 226.56 310.66 C 226.22 310.47 225.53 310.07 225.19 309.87 Z" />
</g>
<g id="#ffe845ff">
<path fill="#ffe845" opacity="1.00" d=" M 321.24 310.25 C 322.52 309.34 324.19 309.41 325.67 309.07 C 325.86 310.70 326.07 312.33 326.20 313.98 C 325.93 314.34 325.38 315.06 325.11 315.42 C 323.42 315.25 321.74 315.03 320.06 314.82 C 320.40 313.29 320.49 311.65 321.24 310.25 Z" />
</g>
<g id="#4f5050ff">
<path fill="#4f5050" opacity="1.00" d=" M 212.82 311.65 C 214.84 310.95 216.89 310.35 219.01 310.02 C 217.86 311.76 216.60 313.41 215.21 314.96 C 216.90 315.18 218.68 315.15 220.28 315.82 C 222.25 317.32 224.05 319.07 226.35 320.10 C 226.59 318.45 226.85 316.82 227.04 315.18 C 227.19 313.65 226.89 312.14 226.56 310.66 C 227.61 311.18 228.70 311.62 229.82 312.01 C 231.34 314.02 232.86 316.04 234.45 318.00 C 234.14 319.37 233.83 320.74 233.48 322.10 C 235.23 323.57 237.05 324.96 239.08 326.05 C 235.24 325.97 231.41 325.53 227.81 324.14 C 227.30 325.58 226.76 327.01 226.21 328.44 C 229.35 329.62 232.58 330.62 235.58 332.15 L 234.71 332.72 C 228.40 332.37 222.08 332.79 215.79 332.22 C 213.70 332.17 211.65 332.74 209.60 333.03 C 212.21 330.58 215.87 330.97 219.17 330.58 C 216.01 328.08 211.18 327.56 209.46 323.53 C 208.20 320.64 206.01 316.61 208.60 313.86 C 209.26 315.85 209.88 317.87 210.52 319.87 C 211.89 317.33 212.50 314.50 212.82 311.65 Z" />
</g>
<g id="#5f5e65ff">
<path fill="#5f5e65" opacity="1.00" d=" M 293.78 311.40 C 297.13 311.79 300.45 312.38 303.74 313.13 C 303.60 313.55 303.32 314.40 303.18 314.82 C 302.99 315.37 302.63 316.49 302.44 317.05 C 304.83 320.29 309.04 320.07 312.39 321.57 C 315.61 324.37 318.48 327.58 321.33 330.76 C 322.45 331.78 322.13 333.31 322.18 334.66 C 320.89 335.31 319.61 335.98 318.34 336.66 C 317.01 335.95 315.62 335.38 314.26 334.76 C 308.57 331.56 305.61 325.39 300.26 321.81 C 297.72 319.99 295.20 318.14 292.97 315.95 C 293.26 314.43 293.53 312.92 293.78 311.40 Z" />
</g>
<g id="#8c8d91ff">
<path fill="#8c8d91" opacity="1.00" d=" M 229.82 312.01 C 230.46 312.12 231.75 312.33 232.39 312.44 C 237.04 316.27 241.86 320.43 247.89 321.83 C 248.25 321.92 248.97 322.11 249.34 322.20 C 251.18 322.70 253.03 323.22 254.88 323.71 C 254.38 324.50 254.10 325.37 254.03 326.32 C 247.84 325.87 242.38 322.81 236.80 320.41 C 235.59 320.74 234.56 321.50 233.48 322.10 C 233.83 320.74 234.14 319.37 234.45 318.00 C 232.86 316.04 231.34 314.02 229.82 312.01 Z" />
</g>
<g id="#69655eff">
<path fill="#69655e" opacity="1.00" d=" M 232.39 312.44 C 238.14 312.85 243.50 315.32 248.25 318.46 C 248.12 319.58 248.00 320.70 247.89 321.83 C 241.86 320.43 237.04 316.27 232.39 312.44 Z" />
</g>
<g id="#a3ac91ff">
<path fill="#a3ac91" opacity="1.00" d=" M 303.18 314.82 C 305.89 314.88 308.57 315.38 311.22 316.00 C 312.47 316.97 313.74 317.94 314.92 319.01 C 317.48 322.12 320.55 324.72 323.45 327.51 C 325.43 329.35 324.76 332.33 325.10 334.75 C 327.73 335.25 330.93 334.94 332.85 337.17 C 334.93 339.34 336.58 341.87 338.15 344.42 C 338.12 344.81 338.06 345.58 338.02 345.96 C 337.52 346.24 336.51 346.79 336.00 347.06 C 333.18 346.48 329.98 346.41 327.87 344.18 C 327.74 342.88 327.59 341.60 327.43 340.32 C 324.65 338.46 320.80 339.20 318.34 336.66 C 319.61 335.98 320.89 335.31 322.18 334.66 C 322.13 333.31 322.45 331.78 321.33 330.76 C 318.48 327.58 315.61 324.37 312.39 321.57 C 309.04 320.07 304.83 320.29 302.44 317.05 C 302.63 316.49 302.99 315.37 303.18 314.82 Z" />
</g>
<g id="#b68465ff">
<path fill="#b68465" opacity="1.00" d=" M 256.25 317.96 C 257.50 316.78 258.86 315.73 260.21 314.66 C 261.05 315.67 261.87 316.70 262.68 317.74 C 262.17 319.31 261.69 320.89 261.23 322.48 C 258.62 323.31 256.04 322.53 253.64 321.47 C 254.49 320.28 255.34 319.10 256.25 317.96 Z" />
</g>
<g id="#676767ff">
<path fill="#676767" opacity="1.00" d=" M 262.68 317.74 C 263.23 319.50 263.36 321.35 263.50 323.18 C 266.88 321.93 269.05 317.58 272.98 318.35 C 271.12 320.64 269.54 323.25 267.14 325.03 C 264.61 326.36 261.71 326.71 258.93 327.11 C 256.51 325.71 254.50 327.12 252.80 328.87 C 247.95 330.03 243.43 327.84 239.08 326.05 C 237.05 324.96 235.23 323.57 233.48 322.10 C 234.56 321.50 235.59 320.74 236.80 320.41 C 242.38 322.81 247.84 325.87 254.03 326.32 C 254.10 325.37 254.38 324.50 254.88 323.71 C 253.03 323.22 251.18 322.70 249.34 322.20 C 250.77 321.98 252.20 321.71 253.64 321.47 C 256.04 322.53 258.62 323.31 261.23 322.48 C 261.69 320.89 262.17 319.31 262.68 317.74 Z" />
</g>
<g id="#838780ff">
<path fill="#838780" opacity="1.00" d=" M 314.92 319.01 C 316.03 318.64 317.14 318.29 318.26 317.94 C 318.05 318.60 317.84 319.27 317.64 319.94 C 324.53 327.15 331.70 334.11 338.53 341.40 C 338.39 342.40 338.27 343.41 338.15 344.42 C 336.58 341.87 334.93 339.34 332.85 337.17 C 330.93 334.94 327.73 335.25 325.10 334.75 C 324.76 332.33 325.43 329.35 323.45 327.51 C 320.55 324.72 317.48 322.12 314.92 319.01 Z" />
</g>
<g id="#6c6c6eff">
<path fill="#6c6c6e" opacity="1.00" d=" M 279.17 318.67 C 284.27 318.40 287.46 322.64 290.34 326.17 C 288.18 326.11 286.03 326.39 284.05 327.31 C 285.76 328.26 287.88 328.69 289.21 330.19 C 289.29 331.40 289.33 332.61 289.33 333.83 C 287.60 333.43 285.86 333.02 284.13 332.60 C 284.07 333.19 283.93 334.36 283.86 334.95 C 279.90 331.55 283.22 325.35 280.59 321.15 C 280.23 320.53 279.52 319.29 279.17 318.67 Z" />
</g>
<g id="#0000001b">
<path fill="#000000" opacity="0.11" d=" M 280.59 321.15 C 283.22 325.35 279.90 331.55 283.86 334.95 C 286.29 335.86 288.77 336.63 291.25 337.41 C 288.98 338.63 286.31 339.54 284.79 341.75 C 284.21 343.86 284.68 346.12 284.13 348.25 C 282.28 354.55 280.81 361.02 280.27 367.57 C 279.25 368.77 277.91 369.81 277.32 371.31 C 276.97 376.42 277.65 382.40 273.75 386.40 C 274.01 387.62 274.29 388.83 274.57 390.06 C 273.67 390.62 272.78 391.18 271.90 391.76 C 271.61 394.31 270.20 396.40 268.62 398.33 C 267.07 401.96 269.36 405.86 268.77 409.60 C 267.57 413.52 265.30 416.99 263.45 420.62 C 264.83 421.00 266.22 421.38 267.61 421.76 C 267.99 424.86 266.94 427.85 266.28 430.84 C 265.40 430.29 264.52 429.74 263.64 429.20 C 263.41 429.50 262.95 430.10 262.72 430.41 C 263.02 431.49 263.31 432.56 263.61 433.65 C 261.94 433.19 260.26 432.75 258.61 432.23 C 258.20 433.42 257.71 434.58 257.18 435.73 C 259.31 436.60 261.43 437.48 263.57 438.35 C 262.41 440.07 260.61 441.64 260.58 443.86 C 260.51 446.75 259.18 449.35 258.20 452.00 C 255.17 453.97 252.42 456.37 249.15 457.95 C 248.89 457.50 248.37 456.58 248.11 456.12 C 249.32 454.68 250.56 453.25 251.64 451.71 C 252.99 450.15 252.10 448.01 251.93 446.21 C 253.37 445.69 254.73 445.00 256.10 444.32 C 254.92 442.69 253.72 441.07 252.51 439.46 C 250.89 440.13 249.25 440.79 247.61 441.43 C 248.54 438.11 250.13 434.83 249.68 431.29 C 247.45 431.14 245.23 430.95 243.01 430.77 C 243.63 429.87 244.24 428.98 244.85 428.08 C 246.02 428.55 247.19 429.02 248.37 429.51 C 250.58 425.38 248.83 420.47 250.30 416.10 C 249.10 416.30 247.90 416.50 246.70 416.71 C 246.12 414.63 245.59 412.53 245.12 410.43 C 246.40 410.38 247.68 410.33 248.96 410.29 C 248.04 406.56 246.37 403.09 244.39 399.81 C 245.79 398.19 247.18 396.57 248.59 394.96 C 247.67 391.91 247.82 388.47 245.76 385.86 C 246.05 381.83 245.79 377.74 247.69 374.01 C 245.70 373.54 243.41 373.52 241.84 372.02 C 241.91 369.46 245.09 370.22 246.81 369.57 C 245.74 368.08 244.56 366.64 243.78 364.97 C 243.68 360.74 245.55 356.59 244.71 352.35 C 244.43 350.04 242.68 348.37 241.32 346.63 C 242.87 342.39 243.11 337.79 241.38 333.56 C 239.14 333.39 236.92 333.10 234.71 332.72 L 235.58 332.15 C 241.28 330.87 247.26 330.85 252.80 328.87 C 254.50 327.12 256.51 325.71 258.93 327.11 C 266.44 328.92 275.06 326.56 280.59 321.15 Z" />
</g>
<g id="#3d3c37ff">
<path fill="#3d3c37" opacity="1.00" d=" M 227.81 324.14 C 231.41 325.53 235.24 325.97 239.08 326.05 C 243.43 327.84 247.95 330.03 252.80 328.87 C 247.26 330.85 241.28 330.87 235.58 332.15 C 232.58 330.62 229.35 329.62 226.21 328.44 C 226.76 327.01 227.30 325.58 227.81 324.14 Z" />
</g>
<g id="#8c9183ff">
<path fill="#8c9183" opacity="1.00" d=" M 314.26 334.76 C 315.62 335.38 317.01 335.95 318.34 336.66 C 320.80 339.20 324.65 338.46 327.43 340.32 C 325.38 340.34 323.36 340.73 321.63 341.88 C 322.85 343.21 324.16 344.47 325.53 345.67 C 326.30 345.16 327.08 344.66 327.87 344.18 C 329.98 346.41 333.18 346.48 336.00 347.06 C 332.93 347.47 329.85 347.88 326.95 349.01 C 324.39 349.43 321.79 349.26 319.22 349.14 C 319.14 347.47 319.06 345.80 318.96 344.14 C 317.76 343.73 316.56 343.32 315.39 342.84 C 314.18 342.21 312.99 341.53 311.82 340.86 C 312.54 340.13 313.27 339.42 314.00 338.70 C 314.73 338.89 315.46 339.09 316.20 339.29 C 315.57 337.77 314.94 336.25 314.26 334.76 Z" />
</g>
<g id="#797a7fff">
<path fill="#797a7f" opacity="1.00" d=" M 302.68 338.89 C 305.17 338.83 307.70 338.90 310.05 339.86 C 307.94 340.28 305.84 340.75 303.77 341.31 C 306.57 343.87 311.71 341.73 313.58 345.38 C 313.06 347.13 312.59 348.89 312.15 350.67 C 309.15 349.30 305.86 348.94 302.74 350.17 C 301.52 348.01 300.97 345.57 300.30 343.20 C 300.83 343.04 301.89 342.72 302.43 342.55 C 302.51 341.33 302.59 340.10 302.68 338.89 Z" />
</g>
<g id="#4d4e51ff">
<path fill="#4d4e51" opacity="1.00" d=" M 303.77 341.31 C 305.84 340.75 307.94 340.28 310.05 339.86 C 310.49 340.11 311.38 340.61 311.82 340.86 C 312.99 341.53 314.18 342.21 315.39 342.84 C 314.77 343.67 314.16 344.52 313.58 345.38 C 311.71 341.73 306.57 343.87 303.77 341.31 Z" />
</g>
<g id="#545355ff">
<path fill="#545355" opacity="1.00" d=" M 321.63 341.88 C 323.36 340.73 325.38 340.34 327.43 340.32 C 327.59 341.60 327.74 342.88 327.87 344.18 C 327.08 344.66 326.30 345.16 325.53 345.67 C 324.16 344.47 322.85 343.21 321.63 341.88 Z" />
</g>
<g id="#69696eff">
<path fill="#69696e" opacity="1.00" d=" M 315.39 342.84 C 316.56 343.32 317.76 343.73 318.96 344.14 C 319.06 345.80 319.14 347.47 319.22 349.14 C 321.79 349.26 324.39 349.43 326.95 349.01 C 324.83 349.70 322.58 349.73 320.42 350.18 C 319.22 350.82 319.04 352.37 318.35 353.44 C 316.27 353.89 314.18 354.31 312.14 354.89 C 310.43 355.18 308.36 356.68 306.87 355.14 C 305.19 353.76 303.94 351.96 302.74 350.17 C 305.86 348.94 309.15 349.30 312.15 350.67 C 312.59 348.89 313.06 347.13 313.58 345.38 C 314.16 344.52 314.77 343.67 315.39 342.84 M 314.42 346.31 C 313.35 347.50 315.13 349.84 316.52 348.87 C 317.49 347.69 315.80 345.34 314.42 346.31 Z" />
</g>
<g id="#929298ff">
<path fill="#929298" opacity="1.00" d=" M 314.42 346.31 C 315.80 345.34 317.49 347.69 316.52 348.87 C 315.13 349.84 313.35 347.50 314.42 346.31 Z" />
</g>
</svg>
