<svg xmlns="http://www.w3.org/2000/svg" width="682.667" height="682.667" viewBox="0 0 512 512"  xmlns:v="https://vecta.io/nano"><path fill="#252426" opacity=".97" d="M311.55 125.33c2.52-.55 5.1.16 6.11 2.73l-8.01-.46 1.9-2.27z"/><path fill="#525259" d="M307.75 130.62c.3-1.19 1.13-2.1 1.9-3.02l8.01.46.4.59c-1.38.66-3.05 1-4 2.3-1.74 2.28-1.72 5.29-2.26 7.98l-.95 2.08c-1.93 3.97-3.22 8.2-4.4 12.45-.45 1.59-.84 3.21-1.14 4.84l-.93-.16c-1.08-.44-2.15-.91-3.2-1.41-.26-2.54-.24-5.11-.01-7.65 3.37-5.68 4.63-12.23 6.58-18.46z"/><path fill="#8f9483" d="M314.06 130.95c.95-1.3 2.62-1.64 4-2.3l1.23 2.13c.66 2.87.73 5.82.86 8.75l2.17-.65c2.93 4.95-4.05 9.9-1.26 14.89-.69.91-1.09 1.94-1.19 3.08-.59 3.63-.88 7.36-.47 11.03.5 1.98 1.43 3.85 1.64 5.91l-.72 2.07c-1.21 3.21-1.02 6.69-1.38 10.05-1.92-.51-2.97-2.16-3.93-3.75.2 2.97.53 5.93.78 8.9l-.78.21-1.6-.53c-.62-2.86-.81-5.81-1.6-8.63l-1.41.36c-1.3 3.77-1.8 7.79-3.31 11.5-1.68 4.21-3.21 8.57-3.47 13.13-2.27.72-3.97-1.08-4.22-3.2-.09-.35-.29-1.05-.38-1.39-2.65.62-5.39 1.22-8.11.59l-.04-2.07 6.97-.28.13-2.61c-2.74-.15-5.49-.11-8.23-.04l.09-2.97a93.89 93.89 0 0 0 6.27-.27c.41-2.45.24-5.07-1.21-7.18a58.2 58.2 0 0 0-3.74.06l-1.93 2.53c-.32-1.37-.56-2.75-.53-4.16 1.84-1.41 4.07-1.43 6.27-1.1.15.1.43.31.57.41l.13-.39c1.55-4.54 2.86-9.28 5.83-13.14l1.66.03-1.16-1.81c.39-4.06.7-8.19 2.39-11.97l.93.16c-.17 2.57-.53 5.14-1.07 7.66.97-.94 1.95-1.88 2.88-2.87-2.09 5.21-1.51 10.9-2.8 16.25-.96.18-1.91.36-2.86.49-.6 1.42-1.24 2.82-1.95 4.19 3.07 3.65.79 8.7 1.65 13 .9-1.67 1.62-3.48 2.95-4.86 2.67-2.56 3.77-6.65 2.61-10.18 2.16-8.88 4.61-17.72 7.92-26.25.92-1.8-.73-3.28-1.75-4.55l-2.55 1.87-.46-2.7c-1.84-.04-2.61 1.79-3.43 3.11 1.18-4.25 2.47-8.48 4.4-12.45.93 2.39 1.98 4.75 3.38 6.91 1.59-.85.1-3.36.27-4.88l1.29.01c.81 1.42 1.26 3.33 3.03 3.88.64-1.77 1.1-3.62.93-5.51l-2.19-1.45c-.21-2.27-.29-4.99-2.6-6.2-1.29 1.57-2.25 3.36-3.16 5.16.54-2.69.52-5.7 2.26-7.98m-16.84 61.23c.01 1.6-.63 5 1.71 4.99 1.17-1.49.67-5.28-1.71-4.99z"/><path fill="#646569" d="M319.29 130.78c1.16 2.44 2.17 4.97 3.63 7.26 1.86 2.56 1.58 5.86 2.13 8.82l4.54-.32c2.5 1.59 1.86 5.1 3.35 7.41 2.77 4.83-1.86 9.29-4.11 13.25l-3.96.18c1.3-1.45 3.64-2.79 2.97-5.09-.55-2.02.74-3.7 1.7-5.34-.57-1.03-1.2-2.02-1.77-3.03.17-1.54 1.94-2.24 2.75-3.45.36-1.36-.97-2.23-1.65-3.18-1.92.27-2.95 1.94-3.73 3.53-.77 1.4-.64 2.99-.33 4.49-2.05 2.75-.91 6.33-1.33 9.48-.49 1.13-1.03 2.24-1.49 3.38l2.09.54c-.6 1.92-1.81 3.52-3.04 5.08-.21-2.06-1.14-3.93-1.64-5.91-.41-3.67-.12-7.4.47-11.03 1.94.22 2.92-2 1.19-3.08-2.79-4.99 4.19-9.94 1.26-14.89l-2.17.65c-.13-2.93-.2-5.88-.86-8.75z"/><path fill="#a2ab90" d="M311.8 138.93c.91-1.8 1.87-3.59 3.16-5.16 2.31 1.21 2.39 3.93 2.6 6.2l-1.77 3.08c-.33 0-.97-.01-1.29-.01-.17 1.52 1.32 4.03-.27 4.88-1.4-2.16-2.45-4.52-3.38-6.91l.95-2.08z"/><path fill="#464549" d="M317.56 139.97l2.19 1.45c.17 1.89-.29 3.74-.93 5.51-1.77-.55-2.22-2.46-3.03-3.88l1.77-3.08z"/><path fill="#7d7d83" d="M325.14 150.82c.78-1.59 1.81-3.26 3.73-3.53.68.95 2.01 1.82 1.65 3.18-.81 1.21-2.58 1.91-2.75 3.45l1.77 3.03c-.96 1.64-2.25 3.32-1.7 5.34.67 2.3-1.67 3.64-2.97 5.09l-1.39-2.59c.42-3.15-.72-6.73 1.33-9.48l2.35-2.41c-.22-1.12-.89-1.81-2.02-2.08z"/><path fill="#38363a" d="M298.52 153.54l2.65-4.46c-.23 2.54-.25 5.11.01 7.65l3.2 1.41c-1.69 3.78-2 7.91-2.39 11.97-3.45-2.89-.12-8.44-3.6-11.49-2.5-.59-5.07-.72-7.63-.73l.02-.93a23.99 23.99 0 0 1 1.68-2.44c2.03-.26 4.05-.56 6.06-.98z"/><path fill="#aab395" d="M306.45 153.46c.82-1.32 1.59-3.15 3.43-3.11l.46 2.7c-.78 3.44-2.01 6.74-3.22 10.04-.93.99-1.91 1.93-2.88 2.87.54-2.52.9-5.09 1.07-7.66.3-1.63.69-3.25 1.14-4.84z"/><path fill="#63626a" d="M310.34 153.05l2.55-1.87c1.02 1.27 2.67 2.75 1.75 4.55-3.31 8.53-5.76 17.37-7.92 26.25 1.16 3.53.06 7.62-2.61 10.18-1.33 1.38-2.05 3.19-2.95 4.86-.86-4.3 1.42-9.35-1.65-13 .71-1.37 1.35-2.77 1.95-4.19.95-.13 1.9-.31 2.86-.49 1.29-5.35.71-11.04 2.8-16.25 1.21-3.3 2.44-6.6 3.22-10.04z"/><path fill="#a6a5ac" d="M325.14 150.82c1.13.27 1.8.96 2.02 2.08l-2.35 2.41c-.31-1.5-.44-3.09.33-4.49z"/><path fill="#4c4c4d" d="M321.06 153.77c1.73 1.08.75 3.3-1.19 3.08.1-1.14.5-2.17 1.19-3.08z"/><path opacity=".76" d="M290.35 167.02c.46-3.36-2.04-7.08.43-10.06l-.02.93c-.01 1.93.03 3.86.11 5.79-.16 2.85-.35 5.73.11 8.56l1 2.03c.87 1.56.79 3.34.15 4.96a105.07 105.07 0 0 1-6.53 1.57c-.29 1.13-1.03 2.5-.19 3.57.95.93 1.94 1.81 2.9 2.73-.21 2.38-.67 4.73-.95 7.11-.45 4.26 2.06 8.51.47 12.71l-2.72.27-3.27-2.01c.39-2.71.85-5.84-1.96-7.41l.22-6.87 1.16 4.06 2.63.07c.07-2.39-.85-4.67-.86-7.05 0-3.76-1.4-7.75.64-11.23 2.06-.49 4.16-.74 6.25-.99-.22-2.93-.06-5.85.43-8.74z"/><path fill="#76777b" d="M290.76 157.89c2.56.01 5.13.14 7.63.73l-6.3.6.78 3.12.75 1.15 5.22.53c.5 2.38.12 4.81-2.06 6.22l1.08 1.99-.44 1.43-5.44.61-1-2.03c2.14-2.41 1.02-5.93-.11-8.56l-.11-5.79z"/><path fill="#ffe149" d="M292.09 159.22l6.3-.6-.38 4.07-5.14-.35-.78-3.12z"/><path fill="#a59889" d="M298.39 158.62c3.48 3.05.15 8.6 3.6 11.49l1.16 1.81-1.66-.03-1.44-.86-2.19 1.2-1.08-1.99c2.18-1.41 2.56-3.84 2.06-6.22l-5.22-.53-.75-1.15a97.08 97.08 0 0 0 5.14.35l.38-4.07z"/><path fill="#999aa2" opacity=".97" d="M290.87 163.68c1.13 2.63 2.25 6.15.11 8.56-.46-2.83-.27-5.71-.11-8.56z"/><path fill="#6a6b6b" opacity=".93" d="M228.88 167.89c1.58-1.18 2.84-3.32 5.06-3.17 2 .01 3.71 1.14 5 2.59-3.35.25-6.71.36-10.06.58z"/><path fill="#525250" d="M228.88 167.89l10.06-.58a50.62 50.62 0 0 0 2.04 1.81 62.79 62.79 0 0 1-1.45 5.38c-2.78 1.69-6.13 1.66-9.25 1.31l.25-4.51c-.6-1.38-2.42-1.62-3.59-2.41l1.94-1z"/><path fill="#5c5c5a" d="M225.14 169.91l1.8-1.02c1.17.79 2.99 1.03 3.59 2.41.02 1.51-.15 3.01-.25 4.51 3.12.35 6.47.38 9.25-1.31l1.45-5.38c2.45 1.22 5.17 1.15 7.83 1.12 1.03 1.61-.02 3.36-.78 4.82-5.42 2.01-11.62 4.28-14.24 9.9-2.47 1.46-4.92 3.17-5.77 6.07-1.66 1.23-3.19 2.64-4.75 4-.05-2.4.09-4.89-.9-7.13-1.29-.91-2.6-2.37-4.32-2.14-1.47.46-2.75 1.33-4.01 2.18 1.98-2.75 1.77-6.65 4.36-8.98 3.15.49 6.29-.34 9.32-1.13.8-1.47 1.22-3.08 1.45-4.73-1.05-1.4-2.54-2.33-4.03-3.19m4.14 8.42c.53 1.58 1.24 3.53 2.81 4.31 2.46-.57 4.75-2.7 3.73-5.42-2.25-.56-4.56-.02-6.54 1.11z"/><path fill="#6f6f6d" d="M225.14 169.91c1.49.86 2.98 1.79 4.03 3.19-.23 1.65-.65 3.26-1.45 4.73-3.03.79-6.17 1.62-9.32 1.13 2.1-3.11 3.57-6.8 6.74-9.05z"/><path fill="#53545b" d="M297.86 172.23l2.19-1.2 1.44.86c-2.97 3.86-4.28 8.6-5.83 13.14l-.7-.02c-2.2-.33-4.43-.31-6.27 1.1l.04-.86 1.51-1.22c1.57.07 3.16.28 4.72-.05 1.42-2.2-2.38-1.86-3.6-2.26l.77-2.49c.64-1.62.72-3.4-.15-4.96a100.53 100.53 0 0 0 5.44-.61l.44-1.43z"/><path fill="#454647" d="M233.79 184.96c2.62-5.62 8.82-7.89 14.24-9.9-2.81 5.51-8.66 8.1-14.24 9.9z"/><path fill="#5a5a5a" d="M320.32 175.86c.26 2.12.31 4.28-.14 6.38-.61 3.28-1.05 6.94-3.6 9.35-1.9 1.25-4.16 1.8-6.13 2.92-1.15 1.47-.91 3.48-.5 5.17 1.05.41 2.09.85 3.13 1.31-1.61-.07-3.21-.07-4.81-.1.33-2.62.46-5.47 1.97-7.73 1.38-1.05 3.17-1.32 4.77-1.89l.78-.21-.78-8.9c.96 1.59 2.01 3.24 3.93 3.75.36-3.36.17-6.84 1.38-10.05z"/><path fill="#747473" d="M229.28 178.33c1.98-1.13 4.29-1.67 6.54-1.11 1.02 2.72-1.27 4.85-3.73 5.42-1.57-.78-2.28-2.73-2.81-4.31z"/><path fill="#383a43" d="M285.6 180.8l6.53-1.57-.77 2.49c1.22.4 5.02.06 3.6 2.26-1.56.33-3.15.12-4.72.05-.27-2.63-3.15-1.93-4.8-1.11l3.29 2.33-.04.86c-.03 1.41.21 2.79.53 4.16.32 1.6.49 3.23.61 4.86l-.09 2.97c-.33 2.18-.79 4.38-.46 6.59 2.1.33 4.12 1.03 5.92 2.19 1.48-.88 2.85-1.92 4.2-2.98.25 2.12 1.95 3.92 4.22 3.2.01 1.27-.1 2.53-.38 3.78-1.01-.66-1.82-1.85-3.1-1.94l-1.89 6.35c-4.55-2.42-8.72-5.46-13.14-8.1l2.72-.27c1.59-4.2-.92-8.45-.47-12.71.28-2.38.74-4.73.95-7.11l-2.9-2.73c-.84-1.07-.1-2.44.19-3.57z"/><path fill="#676975" d="M285.44 182.92c1.65-.82 4.53-1.52 4.8 1.11l-1.51 1.22c-1.15-.71-2.23-1.51-3.29-2.33z"/><path fill="#666665" d="M310.4 182.47l1.41-.36c.79 2.82.98 5.77 1.6 8.63l1.6.53c-1.6.57-3.39.84-4.77 1.89-1.51 2.26-1.64 5.11-1.97 7.73l4.81.1a11.17 11.17 0 0 1 2.61 1.83c-2.2 2.5-4.7-1.47-7.38-.75-.82 1.82-1.47 3.73-1.55 5.74.92 1.34 1.94 2.65 2.54 4.19-1.03 1-1.92 2.25-3.31 2.76l-3.16-.52c-2.46-1.21-2.77 1.77-3.26 3.41-.52 2.38-2.35 4.07-3.61 6.05l-.61 1.16c1.45 1.87 3.07 3.63 4.24 5.71l-.56.54-2.33.45c-.55 4.87 1.06 9.94-.68 14.74-1.24-3.59.19-7.41-1.05-10.98-.81-2.61-.78-5.56-2.58-7.76-1.36-1.53-.52-3.67-.48-5.47.21-1.42.49-2.83.79-4.22 1.87-.75 4.73-.28 5.55-2.58l1.89-6.35c1.28.09 2.09 1.28 3.1 1.94.28-1.25.39-2.51.38-3.78.26-4.56 1.79-8.92 3.47-13.13 1.51-3.71 2.01-7.73 3.31-11.5z"/><path opacity=".76" d="M237.46 184.45c2.26-.85 4.34.97 6.09 2.18 1.2 1.02 2.91.43 4.33.46l-.02.95-1.33 1.51c-2.13-.51-4.59-2.18-6.65-.72-2.71 1.89-1.25 5.46-1.27 8.17-.46 1.88-.62 4.15-2.19 5.48-2.09 1.1-4.52 1.3-6.7 2.18l-1.2 2.28c.27 1.17.74 2.27 1.42 3.28l-2.89.44c-2.7-.09-4.8 1.44-6.33 3.52-.93 1.02-1.88 2.02-2.95 2.89-1.89.48-3.85.28-5.77.21l.66-2.48c3.43-2.26 5.64-5.78 8.3-8.82 3.95-4.25 4.7-10.3 7.98-14.99 2.99-1.99 5.41-4.74 8.52-6.54z"/><path fill="#4c4d4b" d="M262.01 187.96c.46-3.06 4.19-2.83 6.51-2.57 1.38.98 2.01 2.67 2.97 4.02 2.99-.56 6.47-1.36 8.61 1.49l-.22 6.87c-.1 2.32-.24 4.67.09 6.99l1.87.42 3.27 2.01c4.42 2.64 8.59 5.68 13.14 8.1-.82 2.3-3.68 1.83-5.55 2.58-.3 1.39-.58 2.8-.79 4.22-1-.4-1.99-.81-2.96-1.24-1.51-.74-3.04-1.49-4.72-1.74-.86 1.66-1.27 3.79-3.19 4.56-.75-1.52-.97-3.21-1.11-4.87.01-2.57.2-5.3-1.01-7.65-1-1.92-2.47-3.53-3.82-5.2l2.25-.32.64-1.49c1.71-3.34-1.06-6.95.83-10.28-.93-1.5-2.26-2.69-3.73-3.65l-1.27.3-2.33 1.71c-.84-1.09-1.49-2.39-2.65-3.17-2.22-.66-4.55-.8-6.83-1.09z"/><path fill="#d2cfd6" d="M294.96 185.01l.7.02-.13.39-.57-.41z"/><path fill="#d09c7e" d="M214.04 187.94c1.26-.85 2.54-1.72 4.01-2.18 1.72-.23 3.03 1.23 4.32 2.14-.76 3.09-1.19 6.54-3.65 8.82-5.38 5.2-7.72 12.57-12.66 18.11-1.58-1.01-3.24-2-5.15-2.16-3.47.36-6.91 3.23-10.35 1.48 7.58-8.96 15.78-17.36 23.48-26.21z"/><path fill="#6c7184" d="M247.88 187.09c2.23-1.99 5.77-1.95 7.77.36l.82 3.35-2.6 2.12-1.04 1.23.18.79c-1.93.58-3.91.96-5.89 1.39-2.82.39-4.75 2.72-7.32 3.75l.02-1.89c3.21-2.8 8.94-4.96 8.04-10.15l.02-.95z"/><path fill="#b6886c" d="M222.37 187.9c.99 2.24.85 4.73.9 7.13l-1.19 1.06c-2.83 2.15-4.24 5.48-5.28 8.77l-.94 2.05c-1.24 1.35-2.87 2.52-3.35 4.39-1.07 2.9-1.68 6.96-5.38 7.52l-.3-2.71-.77-1.28c4.94-5.54 7.28-12.91 12.66-18.11 2.46-2.28 2.89-5.73 3.65-8.82z"/><path fill="#5a5f76" d="M239.88 188.83c2.06-1.46 4.52.21 6.65.72l1.33-1.51c.9 5.19-4.83 7.35-8.04 10.15l-.02 1.89c2.57-1.03 4.5-3.36 7.32-3.75 1.98-.43 3.96-.81 5.89-1.39l.82-.26.37-.91-.33-.85c2.26.51 4.57.99 6.91.85l-1.28 1.52c.49.51.97 1.04 1.42 1.6l-4.6.42-.25 2.31c-5.68-1.74-9.58 3.67-13.17 7.09l-.67.45c-2.86-2.63-3.51-6.47-3.62-10.16.02-2.71-1.44-6.28 1.27-8.17m-.81 3.43l-.36.81.36.79.86.33.86-.34.36-.8-.35-.79-.87-.33-.86.33m3.21.02v.47h.46v-.46l-.46-.01m13.94 2.98v.46h.46v-.45l-.46-.01m-14.96 8.97v.45h.46l-.01-.46-.45.01z"/><path fill="#5d6077" d="M262.01 187.96c2.28.29 4.61.43 6.83 1.09 1.16.78 1.81 2.08 2.65 3.17.77 1.87 2.59 2.11 4.36 1.72-.17-1.42-1.09-2.46-2.03-3.43l1.27-.3c1.47.96 2.8 2.15 3.73 3.65-1.89 3.33.88 6.94-.83 10.28-4.34-.24-8.44-1.69-12.11-3.97-.74-.47-1.46-.95-2.17-1.44l-.31-2.82c-.59-1-1.33-1.89-2.03-2.8l-.34-1.71a56.47 56.47 0 0 1 .98-3.44m4.03 2.27l-.4.73.41.72h.81l.4-.73-.41-.72h-.81m4.23 11.04v.46h.46v-.46h-.46z"/><path fill="#95eafd" d="M289.22 190.27l1.93-2.53 3.74-.06c1.45 2.11 1.62 4.73 1.21 7.18l-6.27.27c-.12-1.63-.29-3.26-.61-4.86m2.04-1.18l.36 4.92c1.34-1.02 3.88-1.64 3.32-3.79-.56-1.74-2.27-1.58-3.68-1.13z"/><path fill="#e0ffff" d="M291.26 189.09c1.41-.45 3.12-.61 3.68 1.13.56 2.15-1.98 2.77-3.32 3.79l-.36-4.92z"/><path fill="#acabb9" d="M266.04 190.23h.81l.41.72-.4.73h-.81l-.41-.72.4-.73z"/><path fill="#2c2d36" d="M256.47 190.8l4.56.6.34 1.71-.59.66c-2.34.14-4.65-.34-6.91-.85l2.6-2.12z"/><path fill="#7b7e91" d="M271.49 192.22l2.33-1.71c.94.97 1.86 2.01 2.03 3.43-1.77.39-3.59.15-4.36-1.72z"/><path fill="#9fa1a8" d="M239.07 192.26l.86-.33.87.33.35.79-.36.8-.86.34-.86-.33-.36-.79.36-.81z"/><path d="M242.28 192.28l.46.01v.46h-.46v-.47zm16 30.94h.46l.01.46h-.46l-.01-.46z" fill="#fff"/><path fill="#a8ad9b" d="M297.22 192.18c2.38-.29 2.88 3.5 1.71 4.99-2.34.01-1.7-3.39-1.71-4.99z"/><path fill="#afb4be" d="M252.83 194.15l1.04-1.23.33.85-.37.91-.82.26-.18-.79z"/><path fill="#fefefe" d="M261.37 193.11l2.03 2.8c-1.45.93-2.18 2.38-2.07 4.1-1.76.03-3.52-.12-5.26-.39l.25-2.31 4.6-.42-1.42-1.6 1.28-1.52.59-.66z"/><path fill="#cbcad4" d="M256.22 195.26l.46.01v.45h-.46v-.46z"/><path fill="#5c4435" opacity=".77" d="M216.8 204.86c1.04-3.29 2.45-6.62 5.28-8.77-1.43 3.11-3.01 6.17-5.28 8.77z"/><path fill="#676769" d="M261.33 200.01c-.11-1.72.62-3.17 2.07-4.1l.31 2.82 2.17 1.44-.92 9.86c-2.47 1.13-5.13 1.81-7.85 1.7l-.31-3.64-1.43 2.44c-2.3.98-4.87 1.02-7.31 1.44l-1.09-1.34.26-4.35-4.33.43c3.59-3.42 7.49-8.83 13.17-7.09 1.74.27 3.5.42 5.26.39z"/><path fill="#4f504d" d="M236.42 202.48c1.57-1.33 1.73-3.6 2.19-5.48.11 3.69.76 7.53 3.62 10.16-1.96 3.03-3.97 6.24-4.37 9.92-.29 2.61-.19 5.25-.11 7.88-1.39 1.48-2.95 2.79-4.67 3.88l.79-5.15-4.11-1c1.38-3.75 3.31-7.23 5.31-10.68-1.19-2.02-2.59-3.91-4.19-5.63l-2.36.56 1.2-2.28c2.18-.88 4.61-1.08 6.7-2.18z"/><path fill="#0a0a0b" opacity=".42" d="M279.88 197.77c2.81 1.57 2.35 4.7 1.96 7.41l-1.87-.42c-.33-2.32-.19-4.67-.09-6.99z"/><path fill="#6f6f72" d="M289.74 198.1l8.23.04-.13 2.61-6.97.28.04 2.07c2.72.63 5.46.03 8.11-.59l.38 1.39-4.2 2.98c-1.8-1.16-3.82-1.86-5.92-2.19-.33-2.21.13-4.41.46-6.59z"/><path fill="#575859" d="M265.88 200.17c3.67 2.28 7.77 3.73 12.11 3.97l-.64 1.49-2.25.32c-1.51-.35-3.04-.9-4.6-.48-.58 1.53-.41 3.16-.31 4.76l-.5 1.74c-1.94.85-4.03.08-4.73-1.94.36-3.28.62-6.57.92-9.86z"/><path fill="#9c9baa" d="M270.27 201.27h.46v.46h-.46v-.46z"/><path fill="#515050" d="M308.31 202.07c2.68-.72 5.18 3.25 7.38.75 3.42 3.01 3.58 8.04 5.68 11.9-2.32-.83-5.06-1.35-6.51-3.54-.96-.95-1.45-2.6-2.86-2.94-.3 1.19-.55 2.39-.76 3.6 2.53 2.68 7.4 3.47 8 7.6l-4.84-.11c-1.78 1.44-3.53 2.99-4.74 4.95-.13 1.21-.04 2.43.02 3.64l-1.66-1.03a39.73 39.73 0 0 1-.39-3.05c.87-3.93-2.92-6.6-4.8-9.6a48.37 48.37 0 0 0 3.16.52c1.39-.51 2.28-1.76 3.31-2.76-.6-1.54-1.62-2.85-2.54-4.19.08-2.01.73-3.92 1.55-5.74z"/><path fill="#bcbac1" d="M241.26 204.23l.45-.01.01.46h-.46v-.45z"/><path fill="#67655d" d="M270.5 205.47c1.56-.42 3.09.13 4.6.48 1.35 1.67 2.82 3.28 3.82 5.2 1.21 2.35 1.02 5.08 1.01 7.65-.63 1.77-1.38 3.5-2.17 5.21l-1.07-.83c-.96-2.74-1.39-5.67-2.86-8.21-1.13-2.87-1.03-5.95-1.05-8.97-.75 1.01-.68 2.35-.99 3.53l-1.6.7c-.1-1.6-.27-3.23.31-4.76z"/><path fill="#757067" d="M228.52 206.94l2.36-.56c1.6 1.72 3 3.61 4.19 5.63-2 3.45-3.93 6.93-5.31 10.68-3.18 3-4.45 7.31-5.62 11.39-.94 3.57-2.21 7.13-2.08 10.87.02 5.46-.5 10.96-1.98 16.22-.87-3.02-.04-6.15.02-9.21.33-3.96-.33-8.04.88-11.9.86-2.91 1.41-5.89 2.11-8.84.72-2.94 2.63-5.38 3.57-8.23-.1-1.12-1.06-1.89-1.55-2.83l-.58-1.09c1.82-2.39 4.28-4.16 6.92-5.54-.24-1.21-.86-2.28-1.51-3.31-.68-1.01-1.15-2.11-1.42-3.28z"/><path fill="#82817a" d="M242.9 206.71l4.33-.43-.26 4.35c-3.17 1.51-3.24 5.48-5.23 8.03-1.8 2.27-1.81 5.23-1.46 7.97l5.23 3.78c-.3 1.4-.92 2.7-1.5 4-1.05-2.98-2.89-5.62-6.06-6.55l-.2-2.9.11-7.88c.4-3.68 2.41-6.89 4.37-9.92l.67-.45z"/><path fill="#87857d" d="M271.79 209.53c.31-1.18.24-2.52.99-3.53.02 3.02-.08 6.1 1.05 8.97-.52 5.01 1.06 9.9 1.3 14.89l-2.61-2.05c-1.1 1.76-.17 3.63.42 5.38 1.08 3.75 1.11 7.69 1.44 11.56-1.04 3.28-1.32 7.14-4.06 9.57-2.33 2.44-5.76 3.11-8.81 4.22-1.69.48-3.49 1.35-5.26.71-2.45-.75-4.98-1.36-7.56-.98-3.97-.92-5.18-5.12-5.43-8.7-.17-4.03-.84-8.22.71-12.08 1.34 3.07 1.18 7.66 5.08 8.7 2.2-1.3 3.19-3.77 4.55-5.82 2.15-.28 4.17.75 6.25 1.16 1.31-.84 2.58-1.81 4.09-2.27-.3 3.6-1.97 6.91-2.51 10.48-1.72.32-2.81-1.05-3.85-2.17-2.22.6-4.1 1.98-5.79 3.49.32 1.28.8 2.51 1.5 3.63 3.8.53 7.74.29 11.34-1.1.93-2.67 1.12-5.51.97-8.3-.22-4.17 2.3-8.04 1.58-12.21-.47-3.29-3.23-5.51-4.48-8.44-.37-2.63-.03-5.45-1.6-7.77l.04-2.59 6.03-.25-.23-.98c-4.02-.49-8.41-1.11-12.23.61-2.73.46-6.14 2.32-8.6.38.4-.89 1.05-1.58 1.95-2.07 2.44-.42 5.01-.46 7.31-1.44.51-.8.98-1.61 1.43-2.44l.31 3.64c2.72.11 5.38-.57 7.85-1.7.7 2.02 2.79 2.79 4.73 1.94l.5-1.74 1.6-.7z"/><path fill="#5b5b53" d="M212.51 211.3c.48-1.87 2.11-3.04 3.35-4.39l-3.2 7.89-.66 2.48c1.92.07 3.88.27 5.77-.21 1.07-.87 2.02-1.87 2.95-2.89 2.26 1.24 5.26.63 7.02-1.19l-.69-2.33 2.89-.44c.65 1.03 1.27 2.1 1.51 3.31-2.64 1.38-5.1 3.15-6.92 5.54l.58 1.09c-1.92 4.03-4.16 7.91-5.85 12.06-.7.53-1.42 1.04-2.14 1.55l-.14-1.67c.04-.44.1-1.34.13-1.78l1.29-2.22c1.68-2.64 2.86-5.56 3.46-8.63-2.26-.18-4.56-.04-6.69.8-3.37 1.27-6.97 1.65-10.48 2.32.21-1.05.46-2.08.76-3.09l1.68-.68c3.7-.56 4.31-4.62 5.38-7.52z"/><path fill="#5d5c5b" d="M312 208.24c1.41.34 1.9 1.99 2.86 2.94 1.45 2.19 4.19 2.71 6.51 3.54 2.27 3.8.97 8.14.47 12.21-.73-1.53-1.14-3.31-2.34-4.56-1.64-.79-3.54-.85-5.3-.6-3.01 1.48-2.44 5.22-2.38 7.98l-.88.36-1-1.53-.26-.66c-.06-1.21-.15-2.43-.02-3.64 1.21-1.96 2.96-3.51 4.74-4.95l4.84.11c-.6-4.13-5.47-4.92-8-7.6.21-1.21.46-2.41.76-3.6z"/><path fill="#68675f" opacity=".97" d="M220.72 214.18c1.53-2.08 3.63-3.61 6.33-3.52l.69 2.33c-1.76 1.82-4.76 2.43-7.02 1.19z"/><path fill="#9a9890" d="M241.74 218.66c1.99-2.55 2.06-6.52 5.23-8.03l1.09 1.34c-.9.49-1.55 1.18-1.95 2.07 2.46 1.94 5.87.08 8.6-.38l1.7.63c.41 1.63 1.45 3.41.32 5l-.15.61-.13.85c-.97 5.09.44 10.31-.74 15.36l-.52.51.38.23c1.46 1.45 3.51 1.38 5.4 1.1 1.06-5.99-.51-12.07 0-18.11l.13-2.97c1.57 2.32 1.23 5.14 1.6 7.77 1.25 2.93 4.01 5.15 4.48 8.44.72 4.17-1.8 8.04-1.58 12.21.15 2.79-.04 5.63-.97 8.3-3.6 1.39-7.54 1.63-11.34 1.1-.7-1.12-1.18-2.35-1.5-3.63 1.69-1.51 3.57-2.89 5.79-3.49 1.04 1.12 2.13 2.49 3.85 2.17.54-3.57 2.21-6.88 2.51-10.48-1.51.46-2.78 1.43-4.09 2.27-2.08-.41-4.1-1.44-6.25-1.16-1.36 2.05-2.35 4.52-4.55 5.82-3.9-1.04-3.74-5.63-5.08-8.7l.04-3.08c.58-1.3 1.2-2.6 1.5-4-1.71-1.31-3.48-2.54-5.23-3.78-.35-2.74-.34-5.7 1.46-7.97z"/><path fill="#494a48" d="M190.56 214.15c3.44 1.75 6.88-1.12 10.35-1.48l-.97 2.48a63.35 63.35 0 0 0 3.08.82c-.56 1.05-1.33 2.03-1.58 3.21.08 2.28.83 4.62-.07 6.84l-1.41-1.83-3.05.26c.96-1.55 1.92-3.12 2.6-4.81l.32-.72-2.68-.2c-1.02.73-2.02 1.5-2.98 2.32l-1.29-2.04c-.9.45-1.52 1.14-1.87 2.08-1.81 4.2-2.91 8.68-4.97 12.78-1.99.82-3.02 2.7-4 4.49-3.22-5.4.15-11.47 2.86-16.3-1.22.35-2.42.72-3.62 1.11 1.77-2.27 3.12-4.81 4.72-7.19 1.33-.99 3.01-1.32 4.56-1.82z"/><path fill="#706360" d="M200.91 212.67c1.91.16 3.57 1.15 5.15 2.16l.77 1.28-3.81-.14-3.08-.82.97-2.48z"/><path fill="#63666c" d="M254.71 213.66c3.82-1.72 8.21-1.1 12.23-.61l.23.98-6.03.25-.04 2.59-.13 2.97c-.92-.57-1.68-.42-2.28.45l-.41.37-1.83.09.13-.85.15-.61c1.13-1.59.09-3.37-.32-5l-1.7-.63m3.57 1.51c-.31 1.4.23 1.89 1.6 1.44.3-1.41-.23-1.89-1.6-1.44z"/><path fill="#302f2e" d="M299.57 217.65c.49-1.64.8-4.62 3.26-3.41 1.88 3 5.67 5.67 4.8 9.6-.7-.6-1.42-1.18-2.15-1.74-.23 1.98-.31 3.97-.45 5.96l-1.24 1.33c-.75-1.81-2.15-3.43-2.36-5.41.25-2.35.91-4.65.76-7.02l-.96.18c-.78 2.09-1.18 4.29-1.78 6.44l-3.49.12c1.26-1.98 3.09-3.67 3.61-6.05z"/><path fill="#a8acb2" d="M258.28 215.17c1.37-.45 1.9.03 1.6 1.44-1.37.45-1.91-.04-1.6-1.44z"/><path fill="#757575" d="M273.83 214.97c1.47 2.54 1.9 5.47 2.86 8.21l1.07.83 2.17-5.21c.14 1.66.36 3.35 1.11 4.87 1.92-.77 2.33-2.9 3.19-4.56 1.68.25 3.21 1 4.72 1.74-.33 2.82-.12 5.69-.61 8.49a13.66 13.66 0 0 1-2.07 1.95l-2.03-1.1.12 3.39-1.17.89-1.63-.66c-.13-1.8-.07-3.61-.01-5.4-.84-.31-1.83-1.19-2.66-.36-2.18 1.47-4.02 3.37-5.95 5.14-.59-1.75-1.52-3.62-.42-5.38l2.61 2.05c-.24-4.99-1.82-9.88-1.3-14.89m12.43 14.34v.46h.46v-.46h-.46z"/><path fill="#302b27" d="M203.02 215.97l3.81.14.3 2.71-1.68.68-.76 3.09c-1.33 6.78-3.92 13.24-6.77 19.51-.78 1.73-1.87 3.3-2.97 4.84-2.54 2.56 0 5.66 1.98 7.56-2.01-.48-3.96-1.18-5.95-1.7-2.59.09-5.88 1.91-7.76-.79 2.88-.39 5.78-.1 8.67-.06.65-3.05.74-6.24 2.22-9.06.14-1.51.05-3.01-.11-4.5l2.06.43c2.42-3.97 3.61-8.51 5.31-12.8.9-2.22.15-4.56.07-6.84.25-1.18 1.02-2.16 1.58-3.21z"/><path fill="#585854" d="M301.23 217.14l.96-.18c.15 2.37-.51 4.67-.76 7.02.21 1.98 1.61 3.6 2.36 5.41.44 2.7 1.27 5.41 3.38 7.31-1.61-.22-3.22-.32-4.83-.41-.12 3.87.02 7.75-.16 11.62l-.22 2.81c-1.05 4.83-2.09 9.73-4.51 14.09-.77 1.57-1.67 3.21-1.35 5.04 1.6-.13 3.13-.69 4.65-1.19a28.7 28.7 0 0 1 4.82 2.88l-1.78 2.48c-3.78.29-7.7.42-11.2-1.26 3.08-7.72 6.53-15.55 7.02-23.96-.11-5.9-.43-11.8-.58-17.69l.56-.54c-1.17-2.08-2.79-3.84-4.24-5.71l.61-1.16 3.49-.12c.6-2.15 1-4.35 1.78-6.44z"/><path fill="#707271" d="M191.01 221.08c.35-.94.97-1.63 1.87-2.08l1.29 2.04c-.61 3.23-1.29 6.47-2.44 9.56-.85 2.38-1.97 4.74-2.05 7.32 1.21.87 2.6 1.98 3.51.11l.81.36c.16 1.49.25 2.99.11 4.5-.91.83-1.86 1.63-3.04 2.04l-.68-5.25-3.39-.25c-.5-1.83-.78-3.69-.96-5.57 2.06-4.1 3.16-8.58 4.97-12.78z"/><path fill="#95979b" d="M194.17 221.04l2.98-2.32 2.68.2-.32.72-2.83 2.14c-1.29 3.22-1.78 6.72-3.03 9.97-.87 2-.84 4.17-.46 6.28-.91 1.87-2.3.76-3.51-.11.08-2.58 1.2-4.94 2.05-7.32 1.15-3.09 1.83-6.33 2.44-9.56z"/><path fill="#6f7067" d="M215.17 220.27c2.13-.84 4.43-.98 6.69-.8-.6 3.07-1.78 5.99-3.46 8.63l-.82-2.58c-1.47-.88-3.11-1.39-4.78-1.71-1.54-.23-3.08-.31-4.63-.32-.99 2.15-2.1 4.31-2.42 6.68-.02 1.88.35 3.74.38 5.62-.87 1.51-3.08 1.23-4.53 1.91-1.09 4.13-.7 8.58 1.29 12.38-2.16-2.29-4.96-4.53-4.97-7.98 2.85-6.27 5.44-12.73 6.77-19.51 3.51-.67 7.11-1.05 10.48-2.32z"/><path fill="#cbcecf" d="M256.58 219.9l.15-.61-.15.61z"/><path fill="#768091" d="M258.69 220.29c.6-.87 1.36-1.02 2.28-.45-.51 6.04 1.06 12.12 0 18.11-1.89.28-3.94.35-5.4-1.1l.14-.74c1.18-5.05-.23-10.27.74-15.36.46-.03 1.37-.07 1.83-.09l.41-.37m-.41 2.93l.01.46h.46l-.01-.46h-.46m.11 2.15c-1.04.33-1.86 2.64-.34 2.83 1.18-.21 1.78-2.7.34-2.83z"/><path fill="#615b54" d="M196.68 221.78c.9-.77 1.89-1.43 2.83-2.14-.68 1.69-1.64 3.26-2.6 4.81l3.05-.26 1.41 1.83c-1.7 4.29-2.89 8.83-5.31 12.8l-2.06-.43-.81-.36c-.38-2.11-.41-4.28.46-6.28 1.25-3.25 1.74-6.75 3.03-9.97z"/><path fill="#8f8c84" d="M225.11 220.16c.49.94 1.45 1.71 1.55 2.83-.94 2.85-2.85 5.29-3.57 8.23l-2.11 8.84c-1.21 3.86-.55 7.94-.88 11.9-.06 3.06-.89 6.19-.02 9.21l.45 2-2.11-.53c-1.3-2.33-1.3-5.05-1.82-7.59-.27-1.97-1.05-3.95-.56-5.95 1.23-5.61.97-11.5 3.22-16.88 1.69-4.15 3.93-8.03 5.85-12.06z"/><path fill="#e5e6ec" d="M258.28 220.66l.41-.37-.41.37z"/><path fill="#565756" d="M288.95 220.85l2.96 1.24c-.04 1.8-.88 3.94.48 5.47 1.8 2.2 1.77 5.15 2.58 7.76 1.24 3.57-.19 7.39 1.05 10.98-1.07 7.84-4.26 15.1-7.4 22.3-1.03 2.18-1.22 4.62-1.98 6.89-.77 1.76-2.25 3.08-3.39 4.6 2.89-.66 5.06-2.78 7.38-4.47l-.53 2.54c-2.89 2.31-5.32 5.31-8.81 6.79-3.95-.77-7.97-1.12-11.91-1.95l-.64-1.84c4.03-1.96 9.37-3.36 10.86-8.16l-.53-2.09c1.92-2 4.73-3.45 5.41-6.35.94-3.5 2.92-7.04 1.95-10.73.98-3.77 2.51-8.08.12-11.64l1.02-.42-1.71-1.97c.23-2.83.54-5.67.41-8.51a13.66 13.66 0 0 0 2.07-1.95c.49-2.8.28-5.67.61-8.49z"/><path fill="#565957" d="M181.28 223.16l3.62-1.11c-2.71 4.83-6.08 10.9-2.86 16.3.98-1.79 2.01-3.67 4-4.49.18 1.88.46 3.74.96 5.57l3.39.25.68 5.25c1.18-.41 2.13-1.21 3.04-2.04-1.48 2.82-1.57 6.01-2.22 9.06-2.89-.04-5.79-.33-8.67.06l-1.01-1.12c-1.06-3.96-5.2-6.59-5-10.96.86-2.62 2.47-5.02 2.54-7.86-1.8-1.08-3.85-.56-5.77-.22 1.15-2.38 3.92-3.29 5.21-5.56l2.09-3.13z"/><path fill="#6f6d71" d="M305.48 222.1l2.15 1.74.39 3.05-2.99 1.17.45-5.96z"/><path fill="#bd8a6b" d="M311.82 229.75c-.06-2.76-.63-6.5 2.38-7.98 1.76-.25 3.66-.19 5.3.6 1.2 1.25 1.61 3.03 2.34 4.56 1.98 4.72 4.34 9.28 6.15 14.07-1.92-.94-3.86-1.88-5.9-2.54-.95.57-1.87 1.21-2.9 1.62-1.73-.09-3.41-.49-5.11-.77-.86-3.17-1.35-6.41-2.26-9.56z"/><path fill="#80837a" d="M208.17 223.49c1.55.01 3.09.09 4.63.32l-1.02 3.2 5.33 3.31-.13 1.78-.82-.28c-2.74-1.37-6.44-.69-7.74 2.33-.28 3.09 1.63 5.85 4.51 6.89l2.2-.99c-.54 5.29-1.82 10.53-1.58 15.88-3.27-.66-6.24-2.26-9.07-3.97l-1.59-1.88c-1.99-3.8-2.38-8.25-1.29-12.38 1.45-.68 3.66-.4 4.53-1.91-.03-1.88-.4-3.74-.38-5.62.32-2.37 1.43-4.53 2.42-6.68z"/><path fill="#5f615e" d="M224.14 234.08c1.17-4.08 2.44-8.39 5.62-11.39a144.66 144.66 0 0 1 4.11 1l-.79 5.15c1.72-1.09 3.28-2.4 4.67-3.88l.2 2.9.29 2.63c-1.25.06-2.49.15-3.73.27-1.85 2.42-3.87 4.75-5.21 7.5-1.22 2.88-1.89 5.98-2.14 9.09-.25 6.71 3.9 12.9 3.32 19.71l-.73 1.3c-1.82-.62-3.58-1.38-5.4-1.98-1.04.96-2.13 1.87-3.17 2.83-1.99-1.11-3.81-2.48-5.49-4.01l1.44 4.69c-2.42-1.84-1.68-5.27-3.35-7.59-1.43-2.2-2.83-4.73-5.28-5.93-2.27-.49-4.62.47-6.9-.06-1.62-.43-3.13-1.17-4.67-1.81-1.98-1.9-4.52-5-1.98-7.56 2.07 2.96 4.65 5.68 8.08 7.03l1.45-2.01c2.83 1.71 5.8 3.31 9.07 3.97-.24-5.35 1.04-10.59 1.58-15.88l1.03-8.23.82.28.14 1.67 2.14-1.55c-2.25 5.38-1.99 11.27-3.22 16.88-.49 2 .29 3.98.56 5.95.52 2.54.52 5.26 1.82 7.59l2.11.53-.45-2c1.48-5.26 2-10.76 1.98-16.22-.13-3.74 1.14-7.3 2.08-10.87z"/><path fill="#96968e" d="M212.8 223.81c1.67.32 3.31.83 4.78 1.71l.82 2.58-1.29 2.22-5.33-3.31 1.02-3.2z"/><path fill="#ced1d8" d="M258.39 225.37c1.44.13.84 2.62-.34 2.83-1.52-.19-.7-2.5.34-2.83z"/><path fill="#555" d="M278.89 228.05c.83-.83 1.82.05 2.66.36l.01 5.4 1.63.66-3.05 2.16c-1.2.83-2.5 1.72-2.13 3.38l3.01-.02c-1.03 1.04-2.39 1.93-2.76 3.44l3.23.74.34.63c-2.05.85-3.99 1.96-5.56 3.55.32 1.59 2 1.91 3.33 2.29l2.7-3.12c.08 1.72 1 3.86-.51 5.23-1.64 1.57-4.54.25-6.19 1.77l-.49 2.44c3.1.06 6.15-.66 9.06-1.69-1.52 3.18-2.46 6.89-5.29 9.21-.3-.16-.88-.49-1.17-.65l.11-1.55c-1.63.88-3.21 1.83-4.72 2.91-.65-1.1-1.71-2.09-1.8-3.43-.01-.13-.03-.39-.03-.52.4-2.25 2.6-3.7 3.01-5.97.65-3.44 1.5-7.15.1-10.52-.33-3.87-.36-7.81-1.44-11.56 1.93-1.77 3.77-3.67 5.95-5.14z"/><path fill="#030304" opacity=".77" d="M305.03 228.06l2.99-1.17 1.66 1.03.26.66c-2.35 2.31-1.45 5.67-1.31 8.58l-1.46-.46c-2.11-1.9-2.94-4.61-3.38-7.31l1.24-1.33z"/><path fill="#686a69" d="M237.95 227.86c3.17.93 5.01 3.57 6.06 6.55l-.04 3.08c-1.55 3.86-.88 8.05-.71 12.08l-2.92-.18-1.76 2.62c-1.42-1.44-2.57-3.11-3.76-4.74-.34.35-1.01 1.07-1.34 1.42-.8.73-1.56 1.5-2.19 2.38.16-3.46.61-6.9.94-10.35l2.78 1.32c.83 2.12 3.01 2.85 4.97 3.58-.82-5.02-.47-10.18-1.74-15.13l-.29-2.63z"/><path fill="#eeebee" d="M286.26 229.31h.46v.46h-.46v-.46z"/><path opacity=".07" d="M308.63 237.16c-.14-2.91-1.04-6.27 1.31-8.58l1 1.53c.69 2.9 2.39 6.27.34 8.98l-2.65-1.93z"/><path fill="#505251" d="M234.51 230.76l3.73-.27c1.27 4.95.92 10.11 1.74 15.13-1.96-.73-4.14-1.46-4.97-3.58.11-3.77-.2-7.53-.5-11.28z"/><path fill="#3b3e40" d="M284.24 230.19l2.03 1.1c.13 2.84-.18 5.68-.41 8.51l1.71 1.97-1.02.42c2.39 3.56.86 7.87-.12 11.64l-2.26 1.44c-2.91 1.03-5.96 1.75-9.06 1.69l.49-2.44c1.65-1.52 4.55-.2 6.19-1.77 1.51-1.37.59-3.51.51-5.23l-.47-2.72-.34-.63-3.23-.74c.37-1.51 1.73-2.4 2.76-3.44-.23-1.14-.52-2.26-.88-3.36 1-.75 2.05-1.41 3.05-2.16l1.17-.89c-.01-1.13-.07-2.26-.12-3.39m-.16 5.69c-2.06 2.27-1.19 6.13-.11 8.73 1.63-2.54 1.14-5.75 1.03-8.6l-.92-.13z"/><path fill="#372a26" d="M310.94 230.11l.88-.36 2.26 9.56 5.11.77c1.03-.41 1.95-1.05 2.9-1.62 2.04.66 3.98 1.6 5.9 2.54l1 2.75-3.83-.65c-1.08-.88-2.03-2.58-3.66-1.89l-.54 2.17c-2.07 1.34-3.05 3.58-3.23 5.98-.45 4.65-1.94 9.58.07 14.06-.35 1.98-.51 3.99.07 5.94-.38 1.13-.85 2.23-1.76 3.05l-1.37-2.4c-.08-5.68-.24-11.37.08-17.05.17-3.59 1.54-6.97 1.8-10.54-1.78-1.12-3.61-2.15-5.34-3.33 2.05-2.71.35-6.08-.34-8.98z"/><path fill="#716f6a" d="M173.98 231.85c1.92-.34 3.97-.86 5.77.22-.07 2.84-1.68 5.24-2.54 7.86-.2 4.37 3.94 7 5 10.96-3.26-2.69-7.07-4.95-9.45-8.53-1.01-3.49-.78-7.41 1.22-10.51m-.96 7.16c.31 1.29.33 3.37 1.81 3.85 2.04-1.66 1.8-4.5.99-6.73-1.53-1.29-3.11 1.46-2.8 2.88z"/><path fill="#97968e" d="M208.42 234.15c1.3-3.02 5-3.7 7.74-2.33l-1.03 8.23-2.2.99c-2.88-1.04-4.79-3.8-4.51-6.89z"/><path fill="#7a7975" d="M229.3 238.26c1.34-2.75 3.36-5.08 5.21-7.5.3 3.75.61 7.51.5 11.28l-2.78-1.32-.48-1.75c-2.83 2.02-1.25 6.84-4.59 8.38.25-3.11.92-6.21 2.14-9.09z"/><path fill="#838079" d="M296.7 231.56l2.33-.45.58 17.69c-.49 8.41-3.94 16.24-7.02 23.96-.63.97-1.3 1.91-1.96 2.86-2.32 1.69-4.49 3.81-7.38 4.47 1.14-1.52 2.62-2.84 3.39-4.6.76-2.27.95-4.71 1.98-6.89 3.14-7.2 6.33-14.46 7.4-22.3 1.74-4.8.13-9.87.68-14.74z"/><path fill="#898887" d="M173.02 239.01c-.31-1.42 1.27-4.17 2.8-2.88.81 2.23 1.05 5.07-.99 6.73-1.48-.48-1.5-2.56-1.81-3.85z"/><path fill="#ced1d5" d="M255.19 236.62l.52-.51-.14.74-.38-.23z"/><path fill="#666462" d="M284.08 235.88l.92.13c.11 2.85.6 6.06-1.03 8.6-1.08-2.6-1.95-6.46.11-8.73z"/><path fill="#6b6c63" d="M302.34 236.29l4.83.41 1.46.46 2.65 1.93 5.34 3.33c-.26 3.57-1.63 6.95-1.8 10.54-.32 5.68-.16 11.37-.08 17.05l-1.69-.89c.06 1.23.13 2.46.34 3.68-3.17.66-6.38 1.04-9.6 1.22l1.78-2.48a28.7 28.7 0 0 0-4.82-2.88c-1.52.5-3.05 1.06-4.65 1.19-.32-1.83.58-3.47 1.35-5.04l.66 1.7c2.09-.51 3.88-1.79 5.83-2.66 1.49 1.99 1.81 4.9 4.04 6.26 2.87-1.59 3.71-5.08 4.77-7.95-.64-1.4-1.31-2.8-1.79-4.26-.08-2.76 3.46-5.45 1.29-8.06l-2.07-1.11c-2.47-1.37-5.3-1.74-8-.82.18-3.87.04-7.75.16-11.62z"/><path fill="#8f4749" d="M278.01 240.01c-.37-1.66.93-2.55 2.13-3.38.36 1.1.65 2.22.88 3.36l-3.01.02z"/><path fill="#8e8b84" d="M227.16 247.35c3.34-1.54 1.76-6.36 4.59-8.38l.48 1.75c-.33 3.45-.78 6.89-.94 10.35.58 4.67.31 9.75 2.76 13.94l-1.18 3.07-2.39-1.02c.58-6.81-3.57-13-3.32-19.71z"/><path fill="#8a8b8f" d="M321.5 241.21c1.63-.69 2.58 1.01 3.66 1.89.35 6.39-.98 12.68-1.19 19.04 2.02.22 2.05-1.71 2.5-3.15.46.95.7 1.97.73 3.05-.73.84-1.53 1.63-2.35 2.38l-2.88-1.07c-1.04 1.36-1.78 2.91-2.59 4.42l-1.51 1.59c-.58-1.95-.42-3.96-.07-5.94 3.91-2.91 4.09-8.03 4.48-12.46.12-2.59.41-5.42-1.32-7.58l.54-2.17z"/><path fill="#4c4d48" d="M194.95 246.94c1.1-1.54 2.19-3.11 2.97-4.84.01 3.45 2.81 5.69 4.97 7.98l1.59 1.88-1.45 2.01c-3.43-1.35-6.01-4.07-8.08-7.03z"/><path fill="#616262" d="M325.16 243.1l3.83.65.21.6c-.45 2.45.18 4.91-.09 7.37-1.36 3.3-.57 7.02-1.91 10.32-.03-1.08-.27-2.1-.73-3.05-.45 1.44-.48 3.37-2.5 3.15.21-6.36 1.54-12.65 1.19-19.04z"/><path fill="#564f47" d="M317.73 249.36c.18-2.4 1.16-4.64 3.23-5.98 1.73 2.16 1.44 4.99 1.32 7.58-1.4-.85-2.93-1.41-4.55-1.6z"/><path fill="#65635e" d="M274.38 244.75c1.4 3.37.55 7.08-.1 10.52-.41 2.27-2.61 3.72-3.01 5.97l.03.52c.09 1.34 1.15 2.33 1.8 3.43-1.56 1.14-3.21 2.19-5.08 2.73.83-1.85 1.53-3.76 2.09-5.71-3.05 1.08-6.23 1.7-9.45 1.93l-1.32-2.49c-3.62-.88-7.93-.35-10.65-3.38 2.58-.38 5.11.23 7.56.98 1.77.64 3.57-.23 5.26-.71 3.05-1.11 6.48-1.78 8.81-4.22 2.74-2.43 3.02-6.29 4.06-9.57z"/><path fill="#716f6e" d="M276.27 248.35c1.57-1.59 3.51-2.7 5.56-3.55l.47 2.72-2.7 3.12c-1.33-.38-3.01-.7-3.33-2.29z"/><path fill="#363532" d="M329.11 251.72c.27-2.46-.36-4.92.09-7.37 2.13 2.4 3.12 5.47 4.16 8.45.64 3.73-1.51 7.22-.71 10.97l-1.59 1.62c-2.77-4.04-2.27-9.06-1.95-13.67z"/><path fill="#7b7d7c" d="M233.48 248.69l1.34-1.42c1.19 1.63 2.34 3.3 3.76 4.74 4.92 3.7 7.55 10.65 14.32 11.48l-.48 1.41c-2.1.17-4.45.2-6.19-1.19-2.02-1.45-4.1-2.86-6.52-3.52-3.72-2.71-4.28-7.63-6.23-11.5z"/><path fill="#8a8b84" d="M302.18 247.91c2.7-.92 5.53-.55 8 .82l1.48 3.18c-1.76.42-3.56 1.05-5.39.81-1.52-.47-2.9-1.28-4.31-2l.22-2.81z"/><path fill="#444442" d="M231.29 251.07c.63-.88 1.39-1.65 2.19-2.38 1.95 3.87 2.51 8.79 6.23 11.5 1.75 4.39 6.43 6.68 10.96 6.86.79 1.83 2.72 2.49 4.44 3.15-3.39-.18-6.76-.63-10.12-1.12-1.78-.07-3.55.2-5.29.59l-.67 3.31-3.6-1.01c.6-2.5.7-5.11-1.38-6.96-2.45-4.19-2.18-9.27-2.76-13.94z"/><path fill="#4d4d4d" d="M240.34 249.39l2.92.18c.25 3.58 1.46 7.78 5.43 8.7 2.72 3.03 7.03 2.5 10.65 3.38l1.32 2.49-1.66.4c-2.06-.16-4.08-.63-6.1-1.05-6.77-.83-9.4-7.78-14.32-11.48l1.76-2.62z"/><path fill="#76776f" d="M310.18 248.73l2.07 1.11c2.17 2.61-1.37 5.3-1.29 8.06.48 1.46 1.15 2.86 1.79 4.26-1.06 2.87-1.9 6.36-4.77 7.95-2.23-1.36-2.55-4.27-4.04-6.26-1.95.87-3.74 2.15-5.83 2.66l-.66-1.7c2.42-4.36 3.46-9.26 4.51-14.09 1.41.72 2.79 1.53 4.31 2 1.83.24 3.63-.39 5.39-.81l-1.48-3.18z"/><path fill="#666059" d="M317.73 249.36c1.62.19 3.15.75 4.55 1.6-.39 4.43-.57 9.55-4.48 12.46-2.01-4.48-.52-9.41-.07-14.06z"/><path fill="#4d4d4c" d="M327.2 262.04c1.34-3.3.55-7.02 1.91-10.32-.32 4.61-.82 9.63 1.95 13.67l1.59-1.62c-.8-3.75 1.35-7.24.71-10.97 1.21 1.03 2.45 2.03 3.57 3.17-.06 2.33.25 4.64 1.33 6.74 1.6 2.97-.04 6.99 2.6 9.47 1.85 1.72 2.4 4.41 1.31 6.7-1.05-3.56-2.89-6.81-5.03-9.81-.54 1.57-1.37 3.13-1.27 4.84.39 1.49 1.53 2.62 2.33 3.91l-2.62 3.22-5.48 2.48c-2.07.7-4.2 1.21-6.33 1.71a69.24 69.24 0 0 0-3.93-1.28c.19 1.49.41 2.98.65 4.47-1.85-2.01-2.48-4.74-3.81-7.06-3.87-.53-8.35 1.16-11.71-1.29 3.78-.43 7.23-2.95 11.09-2.41l1.9.36c1.55.32 3.12.5 4.71.57.96-2.52 1.93-5.03 3.05-7.49l-4.54.68c-.84-1.22-1.32-2.63-1.8-4.01.81-1.51 1.55-3.06 2.59-4.42.95.37 1.92.7 2.88 1.07.82-.75 1.62-1.54 2.35-2.38z"/><path fill="#78756f" d="M284.17 255.27l2.26-1.44c.97 3.69-1.01 7.23-1.95 10.73-.68 2.9-3.49 4.35-5.41 6.35a39.08 39.08 0 0 1-3.22 2.68l-2.04-.27c2-2.33 3.25-5.19 3.31-8.28l.59-1.21 1.17.65c2.83-2.32 3.77-6.03 5.29-9.21z"/><path opacity=".08" d="M336.93 255.97l3.48 3.38c3.72-.58 6.72 1.66 9.7 3.51 1.2 1.05 2.64.21 3.88-.24a65.29 65.29 0 0 1 3.58 1.73l1.71-1.99c2.54.14 4.48 2.01 6.76 2.92 2.24-.24 3.82-3.4 6.27-2.33 1.79.89 3.65.2 5.47-.17 1.85.54 3.53 1.52 5.41 2 1.87.05 3.63-.82 5.46-1.2l.8 1.53c1.93-.13 3.47.92 4.94 2.05 3.13.91 6.35-.6 9.45-1.1 1.23 2.66 4.13 2.91 6.68 2.33.58-.99 1.19-1.95 1.8-2.92 2.34.35 4.57 1.34 5.98 3.33.68 1.13 1.99 1.05 3.13 1.13l.22-3.18c1.56 1.19 3 2.53 4.42 3.9 3.74-.56 7.26-2.03 10.84-3.2l2.96 3.24c1.2-.78 2.38-1.74 3.89-1.68-.19 1.57-.45 3.12-.73 4.68 3.41-1.82 6.08-4.67 9.25-6.83.12 1.06.27 2.12.41 3.17 2.54.96 5.22 1.63 7.95 1.35l.1 2.81c1.71-1.53 1.66-3.97 2.65-5.91 2.17-1.18 3.52 2.21 5.65 1.95 1.38-.78 2.51-1.9 3.86-2.72 2 .31 3.99.71 5.99 1.05a63.2 63.2 0 0 1 3.03-2.37c1.98 1.36 1.77 3.65 1.56 5.76 2.06-.95 4.05-2.19 5.37-4.09.35-2.17-2.35-1.53-3.66-2.1 1.62-1.12 3.44-1.9 5.26-2.64l.23 2.32c1.62.59 3.13 1.44 4.04 2.98 2.84.24 5.51 1.17 8.14 2.18 4.37-.28 2.41-7.12 6.86-7.29.81 1.33 1.6 2.66 2.28 4.07v43.19c-2.73 3.48-6.31 6.38-7.81 10.68-1.75 1.27-4.04 1.31-6.08 1.72 1.61-2.56 3.04-5.4 2.52-8.52l-7.42-2.99c-.01 1.63.11 3.26.38 4.88 1.51.56 3.02 1.14 4.52 1.76-2.06 1.64-4.64 2.59-6.38 4.62-1.02 1.35-1.76 2.89-2.76 4.26l-2.66-.46.24 5.23c1.51-.27 3.04-.49 4.58-.63.78 1.07 1.7 2.04 2.67 2.96-.1 1.58-.52 3.12-.97 4.63-1.13.05-1.71-1.02-2.4-1.68l1.29-2.87c-2.69.36-5.37.82-7.98 1.54l-.46 3.49c-2.47-1.53-4.08-4.4-7.12-4.9l-.65 2.22c1.9.96 3.97 1.83 5.24 3.65l-.78 2.69c-2.25-1.42-3.7-4.48-6.65-4.46-.99.06-2.6-.2-2.96 1.03-.07 1.63.11 3.25.18 4.88-2.3-.61-1.35-3.44-1.89-5.18-2.99 1.84-3.93 5.87-2.09 8.86l-6.52-.43c-.61-2.3 2.22-3.42 2.8-5.47-2.31-.09-4.56 1.24-5.16 3.55-.64 2.7-3.05 4.23-5.36 5.4-1.41.59-3.07.14-4.42.85-1.3 1.34-2.37 2.89-3.76 4.14-1.93-.8-3.82-1.74-5.39-3.13l.44-1.58c2.1-.62 4.28.68 6.45.42 1.37-.58 1.08-2.11 1.1-3.28-5.73-.92-11.12 1.78-16.64 2.71-2.73-1.36-.93-5.07-2.76-7.07-1.13 2.17-.67 6.55-4.02 6.46l-1.05-2.22c-.8.86-1.49 1.87-2.48 2.54-1.89.21-3.82.16-5.68-.19-1.74-.62-2.91-2.61-4.93-2.37-3.03-.16-5.88 1.6-8.84 1.35-.39-1.95 1.86-3.79 2.4-5.75-2.11.82-4 2.08-5.9 3.3-.56-1.24-1-2.52-1.38-3.81-1.18.4-2.35.85-3.55 1.2-1.61-.13-3.14-.72-4.75-.82-2.39.16-4.72.72-7.1.92-1-1.87-1.98-3.76-3.2-5.5-1.9.68-.96 2.88-.04 4.01-.81 1.09-1.79 2.03-2.83 2.89-3.56-2.66-8.52-3.2-11.25-6.91-1.64.59-3.2 1.37-4.81 2.01-3.47.07-6.42-1.91-9.12-3.85-1.3.62-2.54 1.4-3.92 1.83-1.89-.38-3.78-.76-5.71-.81-1.02-1.07-1.88-2.31-3.12-3.12-1.6.69-3.07 2.33-4.84 2.24-2.74-1.78-6-2.22-8.92-3.57-1.45-.68-3.09-.46-4.63-.59-3.03-.05-5.83-1.43-8.83-1.72-2.89-.44-5.77.27-8.65.2-.38-2.5-.18-5.23-1.73-7.37-1.27-1.67-1.53-3.77-1.24-5.8 1.87-.31 3.9-.26 5.56-1.3-1.1-1.79-1.89-3.73-2.38-5.77-1.3-.09-2.61-.13-3.89-.31-1.89-.49-3.08-2.19-4.06-3.75-1.95-3.33-4.81-6.37-5-10.43l-2.71 2.03c-1.12-1.62-.82-3.66-1.1-5.5-3.1.12-5.84-2.04-8.96-1.06l2.39-5.57 4.22-2.03c3.49-1.48 5.92-4.48 8.81-6.79 2.56-.55 4.63-2.2 7.01-3.16 2.22-.16 3.77 1.91 5.47 3.05l2.39 2.02c3.36 2.45 7.84.76 11.71 1.29 1.33 2.32 1.96 5.05 3.81 7.06 1.18 1.1 2.52 2.58 4.33 2.07 4.78-.78 9.98-1.61 13.78-4.87 1.62-1.98 2.49-4.45 3.57-6.74 1.09-2.29.54-4.98-1.31-6.7-2.64-2.48-1-6.5-2.6-9.47-1.08-2.1-1.39-4.41-1.33-6.74z"/><path fill="#5e6061" d="M239.71 260.19c2.42.66 4.5 2.07 6.52 3.52 1.74 1.39 4.09 1.36 6.19 1.19l.48-1.41 6.1 1.05-3.96.61.35.7c2.12.35 4.33.27 6.37 1.07l-.36 1.93c1.88-.62 3.84-.86 5.82-.68-2.26.68-4.78 2.47-7.07.94-1.85-3.53-6.29-2.23-9.48-2.06-4.53-.18-9.21-2.47-10.96-6.86z"/><path fill="#acaaaf" d="M271.27 261.24c0 .13.02.39.03.52l-.03-.52z"/><path fill="#828281" d="M260.66 264.14c3.22-.23 6.4-.85 9.45-1.93-.56 1.95-1.26 3.86-2.09 5.71l-.8.25c-1.98-.18-3.94.06-5.82.68l.36-1.93c-2.04-.8-4.25-.72-6.37-1.07l-.35-.7 3.96-.61 1.66-.4z"/><path fill="#414240" d="M273.1 265.19c1.51-1.08 3.09-2.03 4.72-2.91l-.11 1.55-.59 1.21c-1.43 1.4-2.15 3.27-2.93 5.07-2.55.91-4.98 2.12-7.21 3.67-3.47-.88-6.75-2.33-10.16-3.41 1.11-.4 2.22-.82 3.33-1.26 2.29 1.53 4.81-.26 7.07-.94l.8-.25c1.87-.54 3.52-1.59 5.08-2.73z"/><path fill="#787971" d="M215.69 265.2c1.68 1.53 3.5 2.9 5.49 4.01l-1.18 1.73c1.24 3.16 3.73 5.59 6.27 7.75 1.39 1.11 2.88 2.34 4.72 2.54 1.49.36 2.29-1.16 3.02-2.15l-.48 3.8c2.16 1.12 4.54 1.57 6.96 1.33l.72.13c-.53.81-.79 2.09-1.95 2.18-3.3.68-6.26-1.36-9.1-2.7-2.32-1.2-4.88-1.75-7.32-2.64-1.03-.23-1.23-1.41-1.71-2.18l-1 .35c-.63 2.89-.39 5.87-.25 8.8-1.72-5.96 1.26-12.96-2.75-18.26l-1.44-4.69z"/><path fill="#5d5c57" d="M234.05 265.01c2.08 1.85 1.98 4.46 1.38 6.96l3.6 1.01c-1.74 1.67-3.81 2.93-6.03 3.87-1.85-2.65-1.79-6.06-.13-8.77l1.18-3.07z"/><path fill="#555651" d="M274.19 270.11c.78-1.8 1.5-3.67 2.93-5.07-.06 3.09-1.31 5.95-3.31 8.28l-1.36.32c-.8 1.42-1.39 2.94-2.17 4.38-.98.62-2.17.74-3.28.99-5.46-.33-10.93-.15-16.39-.34l-.27-2.46c-2.49-1.49-5.47-2.51-7.05-5.12l2.36-.2-.66-1.81c3.36.49 6.73.94 10.12 1.12l1.71.17c3.41 1.08 6.69 2.53 10.16 3.41 2.23-1.55 4.66-2.76 7.21-3.67m-18.04 4.17c-.43 1.13-.46 2.28-.08 3.46 1.91.19 4.12.59 5.44-1.18 1.7.39 4.75 2.36 5.32-.4-3.09-1.95-7.17-1.21-10.68-1.88z"/><path fill="#4a4c4b" d="M224.35 266.38l5.4 1.98.73-1.3 2.39 1.02c-1.66 2.71-1.72 6.12.13 8.77l1.01 2.23c-.73.99-1.53 2.51-3.02 2.15-1.84-.2-3.33-1.43-4.72-2.54-2.54-2.16-5.03-4.59-6.27-7.75l1.18-1.73 3.17-2.83z"/><path fill="#2e3031" d="M250.67 267.05c3.19-.17 7.63-1.47 9.48 2.06l-3.33 1.26-1.71-.17c-1.72-.66-3.65-1.32-4.44-3.15z"/><path fill="#58595b" d="M317.87 269.36l1.51-1.59c.48 1.38.96 2.79 1.8 4.01l4.54-.68-3.05 7.49c-1.59-.07-3.16-.25-4.71-.57 1.05-1.8 1.77-3.77 2.1-5.83-.95.3-1.88.66-2.79 1.07-.81 1.32-.9 2.92-1.21 4.4-3.86-.54-7.31 1.98-11.09 2.41l-2.39-2.02c3.53-1.75 7.88-1.52 11.04-4.01l-.23-1.24c-.21-1.22-.28-2.45-.34-3.68l1.69.89 1.37 2.4c.91-.82 1.38-1.92 1.76-3.05z"/><path fill="#77716b" d="M239.7 269.67c1.74-.39 3.51-.66 5.29-.59l.66 1.81-2.36.2c1.58 2.61 4.56 3.63 7.05 5.12l.27 2.46c5.46.19 10.93.01 16.39.34l-1.07 2.08c-8.4-.74-17.18.35-25.24-2.59.6-1.67 2.37-3.49 1.14-5.29l-2.8-.23.67-3.31z"/><path fill="#656563" d="M337.14 269.07c2.14 3 3.98 6.25 5.03 9.81-1.08 2.29-1.95 4.76-3.57 6.74-3.8 3.26-9 4.09-13.78 4.87-1.81.51-3.15-.97-4.33-2.07l-.65-4.47a69.24 69.24 0 0 1 3.93 1.28c.66.93 1.33 1.89 2.33 2.49 1.53-.99 5.2-1.84 4-4.2l5.48-2.48c.13 1.89 1.85 1.75 3.3 1.78.53-1.72.69-3.61-.68-5-.8-1.29-1.94-2.42-2.33-3.91-.1-1.71.73-3.27 1.27-4.84z"/><path fill="#69665e" d="M275.85 273.59a39.08 39.08 0 0 0 3.22-2.68l.53 2.09c-1.49 4.8-6.83 6.2-10.86 8.16l-2.81-.07 1.07-2.08c1.11-.25 2.3-.37 3.28-.99.78-1.44 1.37-2.96 2.17-4.38l1.36-.32 2.04.27z"/><path fill="#6d6f72" d="M317.27 273.26c.91-.41 1.84-.77 2.79-1.07-.33 2.06-1.05 4.03-2.1 5.83l-1.9-.36c.31-1.48.4-3.08 1.21-4.4z"/><path fill="#87887e" d="M239.03 272.98l2.8.23c1.23 1.8-.54 3.62-1.14 5.29-1.8-.41-4.52-2.14-5.62.26l4.66 1.54c.32 1.28.58 2.59.76 3.91-2.42.24-4.8-.21-6.96-1.33l.48-3.8-1.01-2.23c2.22-.94 4.29-2.2 6.03-3.87z"/><path fill="#4a4a48" d="M290.63 275.62l1.96-2.86c3.5 1.68 7.42 1.55 11.2 1.26 3.22-.18 6.43-.56 9.6-1.22.05.31.17.93.23 1.24-3.16 2.49-7.51 2.26-11.04 4.01-1.7-1.14-3.25-3.21-5.47-3.05-2.38.96-4.45 2.61-7.01 3.16l.53-2.54z"/><path fill="#75726c" d="M256.15 274.28c3.51.67 7.59-.07 10.68 1.88-.57 2.76-3.62.79-5.32.4-1.32 1.77-3.53 1.37-5.44 1.18-.38-1.18-.35-2.33.08-3.46z"/><path fill="#404240" d="M235.07 278.76c1.1-2.4 3.82-.67 5.62-.26 8.06 2.94 16.84 1.85 25.24 2.59l2.81.07.64 1.84c-.49 1.5-1.04 2.98-1.57 4.48l-2.58-.62c-7.82-2.09-16.02-1.78-24.02-2.52l-.72-.13c-.18-1.32-.44-2.63-.76-3.91a105.83 105.83 0 0 1-4.66-1.54z"/><path fill="#848283" d="M338.2 277.82c1.37 1.39 1.21 3.28.68 5-1.45-.03-3.17.11-3.3-1.78l2.62-3.22z"/><path fill="#5b5d5b" d="M220.13 279.35l1-.35c.48.77.68 1.95 1.71 2.18 2.44.89 5 1.44 7.32 2.64 2.84 1.34 5.8 3.38 9.1 2.7 1.16-.09 1.42-1.37 1.95-2.18 8 .74 16.2.43 24.02 2.52-2 .08-3.99.28-5.97.49l-.34 2.66-.16 1.99c-.41-1.58-.76-3.17-1.13-4.75-3.21-.63-6.47-.93-9.73-1.12-2.12-.01-4.24.29-6.24 1.01-.2 1.5.21 3.29-1 4.46-1.16 1.75-3.87 3.63-2.36 5.96 1.26.57 2.63.85 3.98 1.15-3.9 1.9-8.16.54-12.22 1.51-1.99.2-3.87-.74-5.78-1.15.8 3.07 1.31 6.22 2.41 9.21.98 1.72 2.7 2.81 4.38 3.78 1.48-.58 2.87-1.55 4.47-1.73 1.81.27 3.51 1.01 5.27 1.53 1.45-.85 2.77-1.91 4.02-3.03-.24 2.55-.07 5.12-.29 7.68-.79 1.61-2.86 1.99-4.39 2.64-2.95 1.16-6.07.06-9.1-.02-.12 1.18-.13 2.37-.02 3.56 5.44.74 10.77-.55 15.68-2.82a36.46 36.46 0 0 1-1.6 5.31c-3.86 1.53-8.04 2.13-12.18 2.07-1.45-.4-2.91-1.34-4.46-.81-.22 2.08-.54 4.21-.03 6.27.5 2.15 1.3 4.32.66 6.54-1.09-1.7-2.26-3.34-3.15-5.16-.5-2.67-1.09-5.36-1.04-8.09.08-2.03 1.66-3.5 2.47-5.25.44-2.17-.33-4.37-1.2-6.33-.64 1.74-1.16 3.55-2.11 5.17-1.55-.92-.83-3.04-1.05-4.52 1.82-3.56 1.62-7.7 1.33-11.58-.99-5.24-3.16-10.18-4.47-15.34-.14-2.93-.38-5.91.25-8.8z"/><path fill="#73746d" d="M269.38 283c3.94.83 7.96 1.18 11.91 1.95l-4.22 2.03c-.98-.24-1.97-.44-2.96-.6-2.11.5-4.07 2.1-6.3 1.1l1.57-4.48z"/><path fill="#8f8e90" d="M323.77 285.23l6.33-1.71c1.2 2.36-2.47 3.21-4 4.2-1-.6-1.67-1.56-2.33-2.49z"/><path fill="#474b4e" d="M241.66 287.14c2-.72 4.12-1.02 6.24-1.01-.97 3.31-1.63 6.75-1.24 10.22l.03 7.17c-1.39 4.65 2.16 8.81 1.43 13.45-.18 2.36.33 4.68.5 7.02-.08 2.02-.61 4-.68 6.03-.05 2.87.6 5.72.52 8.6-.08 2.5-.92 4.89-1.51 7.31-1.52 1.2-2.86 2.99-4.98 3-3.63.42-8.65.13-10.17-3.86l.15-2.02c2.55 1.05 5 2.36 7.61 3.26 2.57-2.04 6.68-2.65 7.77-6.07-3.83 2-8.28 3.67-12.51 1.77-.56-4.94-1.66-9.8-1.89-14.76 4.14.06 8.32-.54 12.18-2.07a36.46 36.46 0 0 0 1.6-5.31c-4.91 2.27-10.24 3.56-15.68 2.82-.11-1.19-.1-2.38.02-3.56 3.03.08 6.15 1.18 9.1.02 1.53-.65 3.6-1.03 4.39-2.64.22-2.56.05-5.13.29-7.68.12-1.61.22-3.21.28-4.81-1.82 1.1-3.57 2.31-5.32 3.5-.89-.35-2.33-.19-2.63-1.34 2.77-1.05 6.39-1.39 7.65-4.54l.15-2.52-2.68-.41c-1.35-.3-2.72-.58-3.98-1.15-1.51-2.33 1.2-4.21 2.36-5.96 1.21-1.17.8-2.96 1-4.46z"/><path fill="#242525" opacity=".7" d="M247.9 286.13c3.26.19 6.52.49 9.73 1.12l1.13 4.75c.53 1.68 1.46 3.47 3.19 4.18 2.93 1.46 6.3 1.07 9.46 1.27-2.09 2.78-6.19 2.02-9.18 1.56-4.09-2.14-4.87-6.83-5.36-10.96-2.6-.48-5.24-.65-7.88-.59-.88 2.93-1.53 5.93-2.33 8.89-.39-3.47.27-6.91 1.24-10.22z"/><path fill="#333434" d="M267.81 287.48c2.23 1 4.19-.6 6.3-1.1l2.96.6-2.39 5.57c-.69 1.55-1.62 2.98-2.74 4.25l.3-2.41c-2.85.59-5.95 1.61-8.73.18-1.71-1.33-3.1-3.01-4.59-4.56l.34-2.66 5.97-.49 2.58.62z"/><path fill="#666566" d="M258.92 290.01c1.49 1.55 2.88 3.23 4.59 4.56 2.78 1.43 5.88.41 8.73-.18l-.3 2.41-.53.65c-3.16-.2-6.53.19-9.46-1.27-1.73-.71-2.66-2.5-3.19-4.18l.16-1.99z"/><path fill="#82847c" d="M224.28 299.07c1.91.41 3.79 1.35 5.78 1.15 4.06-.97 8.32.39 12.22-1.51l2.68.41-.15 2.52c-1.26 3.15-4.88 3.49-7.65 4.54.3 1.15 1.74.99 2.63 1.34 1.75-1.19 3.5-2.4 5.32-3.5-.06 1.6-.16 3.2-.28 4.81-1.25 1.12-2.57 2.18-4.02 3.03-1.76-.52-3.46-1.26-5.27-1.53-1.6.18-2.99 1.15-4.47 1.73-1.68-.97-3.4-2.06-4.38-3.78-1.1-2.99-1.61-6.14-2.41-9.21z"/><path fill="#171716" opacity=".6" d="M248.12 316.97c.73-4.64-2.82-8.8-1.43-13.45 2.5 3.33 3.25 7.68 2.55 11.73-.42 2.33-.04 4.68.31 7 .54 2.86-1.02 5.63-.53 8.5.68 4.21 1.08 8.52.48 12.77-.19 1.28-1.76 1.57-2.55 2.41.59-2.42 1.43-4.81 1.51-7.31.08-2.88-.57-5.73-.52-8.6.07-2.03.6-4.01.68-6.03-.17-2.34-.68-4.66-.5-7.02z"/><path fill="#3f3f3b" d="M223.49 321.61c-.74-2.11-1.91-4.44-.47-6.54.22 1.48-.5 3.6 1.05 4.52.95-1.62 1.47-3.43 2.11-5.17.87 1.96 1.64 4.16 1.2 6.33-.81 1.75-2.39 3.22-2.47 5.25-.05 2.73.54 5.42 1.04 8.09-2.47-3.77-.85-8.47-2.46-12.48z"/><path fill="#383b3a" d="M228.47 326.44c1.55-.53 3.01.41 4.46.81.23 4.96 1.33 9.82 1.89 14.76a52.96 52.96 0 0 0-2.77-.65l-.1 1.69-.15 2.02c-1.3-1.74-2.32-3.67-2.7-5.82.64-2.22-.16-4.39-.66-6.54-.51-2.06-.19-4.19.03-6.27z"/><path fill="#666769" d="M234.82 342.01c4.23 1.9 8.68.23 12.51-1.77-1.09 3.42-5.2 4.03-7.77 6.07-2.61-.9-5.06-2.21-7.61-3.26l.1-1.69a52.96 52.96 0 0 1 2.77.65z"/></svg>