<svg xmlns="http://www.w3.org/2000/svg" width="682.667" height="682.667" viewBox="0 0 512 512"  xmlns:v="https://vecta.io/nano"><path fill="#2f312d" opacity=".58" d="M141.1 96.02c.86-2.86 4.46-4.67 7.17-3.17-1.75 1.23-3.75 2.03-5.79 2.65l-.49 2.62-.2 2.58c-.02 2.46-.2 5.03.77 7.35l2.21 3.24.25.78c-1.5-1.48-3.62-2.81-3.67-5.16-.4-3.59-1.5-7.36-.25-10.89z"/><path fill="#41424c" d="M142.48 95.5c2.04-.62 4.04-1.42 5.79-2.65 5.82 4.42 11.39 9.19 17.54 13.18l.17 1.65-3.32-.24c-2.61-2.53-6.02-4.04-8.51-6.71-2.63-2.71-6.08-4.53-9.9-4.72l-1.71 1.57-.55.54.49-2.62z"/><path fill="#9fa3ac" d="M142.54 97.58l1.71-1.57c3.82.19 7.27 2.01 9.9 4.72 2.49 2.67 5.9 4.18 8.51 6.71l2.26 2.61c-1.46-.2-2.92-.34-4.39-.47-1.79-1.74-3.89-3.14-6.17-4.15l-.26.72c-3.72-3.05-8.27-4.99-11.56-8.57z"/><path fill="#adb4a3" d="M141.99 98.12l.55-.54c3.29 3.58 7.84 5.52 11.56 8.57l-.41 1.77c-4.96-.23-8-4.8-11.9-7.22l.2-2.58z"/><path fill="#6c6c73" d="M165.13 100.12c2.08.08 4.28-.25 6.25.57 2.08 1.58 3.81 3.6 6.1 4.92 1.33.93 2.92 1.59 3.94 2.9 1.11 1.72 1.69 3.71 2.47 5.59-2.5-2.19-3.49-5.75-6.49-7.4-1.79-.76-3.92-1.45-5.45.21l3.05 3.25.33.57c-.84 1.42-1.97 2.62-3.26 3.64 3 .04 4.31 3.04 6.18 4.9-2.18-.88-4.7-1.32-6.36-3.13-2.12-2.26-4.47-4.27-6.97-6.09l-2.26-2.61 3.32.24-.17-1.65-.68-5.91m4.14 2.41c-.8 1.21 1.05 3.14 2.2 1.99.99-1.21-1.11-2.85-2.2-1.99z"/><path fill="#9ba58d" d="M141.79 100.7c3.9 2.42 6.94 6.99 11.9 7.22l.41-1.77.26-.72c2.28 1.01 4.38 2.41 6.17 4.15a66.45 66.45 0 0 1 .74 1.46c-2.12-1.07-4.25-2.11-6.42-3.06.94 2.76 3.43 4.18 6.1 4.92l.32-1.86c2.24 1.58 5.15 2.6 6.54 5.1-.02 1.28-1.56 1.67-2.37 2.41 1.44.47 2.85 1.12 3.77 2.39-2.94-.2-5.8-1.66-8.76-1.16-.93 2.12 1.82 3.49 2.68 5.2-4.2-1.44-6.51-6.23-11.32-6.17l-.83-2.27c-.54-1.31-1.15-2.6-1.74-3.89l.74.22c2.62 2.38 5.23 4.81 8.37 6.5l.98-2.29c-2.27-2.87-5.59-4.76-8.28-7.25l-1.39 1.23c-2.05-1.77-4.23-3.42-6.6-4.74l-.5 1.73c-.97-2.32-.79-4.89-.77-7.35z"/><path fill="#a3a3aa" d="M169.27 102.53c1.09-.86 3.19.78 2.2 1.99-1.15 1.15-3-.78-2.2-1.99z"/><path fill="#a6af98" d="M143.06 106.32c2.37 1.32 4.55 2.97 6.6 4.74l.32 1.81-.74-.22-4.47-1.36-2.21-3.24.5-1.73z"/><path fill="#d1d0d6" d="M171.95 106.91c1.53-1.66 3.66-.97 5.45-.21l.14 2.14-2.54 1.32c-.96-1.14-2.02-2.18-3.05-3.25z"/><path fill="#838388" d="M177.4 106.7c3 1.65 3.99 5.21 6.49 7.4l2.19 2.08-1.32.99c-3.32-1.85-7.07-3.3-9.43-6.44l-.33-.57 2.54-1.32-.14-2.14z"/><path fill="#b3b9ab" d="M154.85 107.98l6.42 3.06-.32 1.86c-2.67-.74-5.16-2.16-6.1-4.92z"/><path fill="#9ea2ac" d="M160.53 109.58l4.39.47c2.5 1.82 4.85 3.83 6.97 6.09 1.66 1.81 4.18 2.25 6.36 3.13 2.54 1.58 4.85 3.49 7.29 5.22 1.52 3.53 4.58 5.97 8.36 6.7-1.19.79-2.63.48-3.96.45l2.81 2.52-2.52-.17c-7.13-2.69-11.37-9.62-18.26-12.73-.04.43-.14 1.28-.19 1.71l-2.57-2.03c-.92-1.27-2.33-1.92-3.77-2.39.81-.74 2.35-1.13 2.37-2.41-1.39-2.5-4.3-3.52-6.54-5.1a66.45 66.45 0 0 0-.74-1.46z"/><path fill="#6a6e6f" d="M149.66 111.06l1.39-1.23c2.69 2.49 6.01 4.38 8.28 7.25l-.98 2.29c-3.14-1.69-5.75-4.12-8.37-6.5l-.32-1.81z"/><path fill="#798071" d="M144.77 111.29l4.47 1.36 1.74 3.89-2.38 1.62c2.33 3.08 5.54 5.28 8.57 7.61 3.25 2.35 6.25 5.02 9.55 7.31l-.56-3.89 1.68-1.24c3.63 3.46 7.61 6.51 11.31 9.89 3.31 3.1 7.59 4.98 10.64 8.37 1.15 1.28 2.45 2.44 4.13 2.97 1.69.73 3.33 1.57 4.94 2.46l-4.15.83c-.52 1.54-1.04 3.11-2.14 4.35l-.59-.73c-.44-1.17.04-3.16-1.48-3.62-3.35-1.46-7.04-2.47-9.67-5.18l2.53.19c-2.49-2.79-5.46-5.09-8.19-7.64-1.96-1.76-4.16-3.9-7.04-3.26-.58-.64-1.17-1.25-1.79-1.84-5.21-4.52-10.95-8.39-16.12-12.96-2.84-2.5-4.21-6.16-5.2-9.71l-.25-.78m43.52 36.79v.82l.73.4.72-.42-.01-.81-.72-.4-.72.41m3.86 3.2l-.01.45h.46v-.45h-.45z"/><path fill="#434244" d="M172.07 114.37c1.29-1.02 2.42-2.22 3.26-3.64 2.36 3.14 6.11 4.59 9.43 6.44l1.51 1.46-4.2-.48c.83 3.35 4.55 4.65 6.84 6.88l-3.37-.54c-2.44-1.73-4.75-3.64-7.29-5.22-1.87-1.86-3.18-4.86-6.18-4.9z"/><path fill="#5f6068" d="M186.08 116.18c3.52 2.89 7.36 6.07 7.96 10.9l1.07 3.06-1.21 1.05c-3.78-.73-6.84-3.17-8.36-6.7l3.37.54 3.45 2.01c-.17-3.87-3.59-6-6.09-8.41-.37-.37-1.13-1.1-1.51-1.46l1.32-.99z"/><path fill="#9fa1a5" d="M148.6 118.16l2.38-1.62.83 2.27c4.81-.06 7.12 4.73 11.32 6.17-.86-1.71-3.61-3.08-2.68-5.2 2.06 1.52 4.23 2.9 6.42 4.24l-2.72-.09c1.18 1.38 2.39 2.75 3.69 4.02l-1.68 1.24.56 3.89c-3.3-2.29-6.3-4.96-9.55-7.31-3.03-2.33-6.24-4.53-8.57-7.61z"/><path fill="#050505" opacity=".12" d="M182.07 118.15l4.2.48c2.5 2.41 5.92 4.54 6.09 8.41l-3.45-2.01c-2.29-2.23-6.01-3.53-6.84-6.88z"/><path fill="#7e8285" d="M160.45 119.78c2.96-.5 5.82.96 8.76 1.16l2.57 2.03 3.34 2.89-1.06 3.53c-2.44-1.74-4.62-3.83-7.19-5.37l-6.42-4.24z"/><path fill="#b8bfaf" d="M171.97 121.26c6.89 3.11 11.13 10.04 18.26 12.73l.88 3.25c-1.54-.41-3.09-.91-4.19-2.13-3.57-3.55-8.14-5.82-11.8-9.25l-3.34-2.89.19-1.71z"/><path fill="#b8bfab" d="M164.15 123.93l2.72.09c2.57 1.54 4.75 3.63 7.19 5.37l1.89 1.15c4.48 3.67 8.84 7.51 13.58 10.87 2.81 2.18 6.15 4.04 7.68 7.42l-3.29.35c-1.68-.53-2.98-1.69-4.13-2.97-3.05-3.39-7.33-5.27-10.64-8.37-3.7-3.38-7.68-6.43-11.31-9.89-1.3-1.27-2.51-2.64-3.69-4.02z"/><path fill="#9c9f96" d="M175.12 125.86c3.66 3.43 8.23 5.7 11.8 9.25 1.1 1.22 2.65 1.72 4.19 2.13 1.97.85 3.89 1.89 5.5 3.33 1.2 1.21.73 4.21-1.43 3.63-6.21-3.6-10.82-9.42-16.93-13.19a26.04 26.04 0 0 0-2.3-.47c-.64-.37-1.27-.76-1.89-1.15l1.06-3.53z"/><path fill="#404045" d="M195.78 127.32c.9-.4 1.82-1.38 2.89-.91 4.49 1.55 6.72 5.96 9.14 9.68-1.83-.89-3.78-1.52-5.73-2.09l-3.06 3.16c.55 2.59 1.25 5.15 1.94 7.72-1.46-1.81-3.69-.53-2.53 1.59l.37 2.48-1.59-.12c-1.53-3.38-4.87-5.24-7.68-7.42-4.74-3.36-9.1-7.2-13.58-10.87a26.04 26.04 0 0 1 2.3.47c6.11 3.77 10.72 9.59 16.93 13.19 2.16.58 2.63-2.42 1.43-3.63-1.61-1.44-3.53-2.48-5.5-3.33l-.88-3.25 2.52.17c1.1.94 2.2 1.9 3.45 2.64 1.89.48 3.06-1.6 4.29-2.66l1.91-2.29c-.95-1.37-1.75-2.93-3.15-3.9-1.13-.33-2.31-.45-3.47-.63z"/><path fill="#7d7f8e" d="M194.04 127.08l1.74.24c1.16.18 2.34.3 3.47.63 1.4.97 2.2 2.53 3.15 3.9l-1.91 2.29-5.38-4-1.07-3.06z"/><path fill="#b0b1bf" d="M195.11 130.14c1.86 1.23 3.64 2.59 5.38 4-1.23 1.06-2.4 3.14-4.29 2.66-1.25-.74-2.35-1.7-3.45-2.64l-2.81-2.52c1.33.03 2.77.34 3.96-.45l1.21-1.05z"/><path fill="#828284" d="M202.08 134c1.95.57 3.9 1.2 5.73 2.09l2.28 1.84-.38.73c-1.76 1.65-.14 4.13 2.1 3.43-.61 2.3-2.54 3.91-4.74 4.63l-.24-1.49-.71-.29-1.3.5c-.98.16-1.94.42-2.72 1.06l5.77 2.12-3.81.31c2.63 4.3 8.15 4.76 11.47 8.28.3 2.01.51 4.03.79 6.05-2.47-1.7-4.82-3.55-7.14-5.43-3.53-2.88-7.63-5.15-10.38-8.88l-.37-2.48c1.04.44 3.29-.04 2.53-1.59-.69-2.57-1.39-5.13-1.94-7.72l3.06-3.16z"/><path opacity=".75" d="M166.34 134.74l1.79 1.84c3.55 4.34 9 6.48 12.7 10.71 2.63 2.71 6.32 3.72 9.67 5.18 1.52.46 1.04 2.45 1.48 3.62l-2.83.26c.58 2.36 2.85 4.89 5.47 4.4 2.17-1.48 4.09-3.29 6.25-4.8 3.37 2.17 6.66 4.5 9.56 7.27l.41.68c2.31 5.33 4.47 11.74 10.04 14.48 1.68.7 3.42 1.24 5.16 1.78-.67 2.41-1.65 4.71-2.94 6.86l-.67 1.22c-1.65-3.09-4.03-6.12-7.42-7.34-2.35.16-3.68 3.01-6.04 3.27-1.55-.4-3.25-1.45-3.75-3.04 1.03-1.05 2.51-1.44 3.7-2.28.42-1.02.69-2.1.99-3.16-5.36-.21-10.6-2.35-14.09-6.5l-21.57-17.43c-2.43-2.09-3.56-5.21-5.26-7.84-1.81-2.73-2.07-6.05-2.65-9.18z"/><path fill="#757778" opacity=".94" d="M168.13 136.58c2.88-.64 5.08 1.5 7.04 3.26 2.73 2.55 5.7 4.85 8.19 7.64l-2.53-.19c-3.7-4.23-9.15-6.37-12.7-10.71z"/><path fill="#4c4c50" opacity=".84" d="M210.09 137.93c3.22 1.72 3.04 6.08 6.03 7.97 2.93 2.07 5.7 4.37 7.99 7.14l-2.06.63c-3.04-2.63-5.45-6.13-9.17-7.88-2.24-.8-3.87 1.08-4.3 3.08l-.71-.25c-1.94-.67-3.88-1.33-5.77-2.12.78-.64 1.74-.9 2.72-1.06l1.41 1.36.84-.08c2.2-.72 4.13-2.33 4.74-4.63.77-1.53-1.07-2.67-2.1-3.43l.38-.73z"/><path fill="#b9b8c1" d="M211.81 142.09c-2.24.7-3.86-1.78-2.1-3.43 1.03.76 2.87 1.9 2.1 3.43z"/><path fill="#969e89" d="M198.43 146.47c-1.16-2.12 1.07-3.4 2.53-1.59.76 1.55-1.49 2.03-2.53 1.59z"/><path fill="#c4c4ca" d="M204.82 145.44l1.3-.5.71.29.24 1.49-.84.08-1.41-1.36z"/><path fill="#7c7f88" d="M208.58 148.87c.43-2 2.06-3.88 4.3-3.08 3.72 1.75 6.13 5.25 9.17 7.88.52-.15 1.55-.47 2.06-.63l1.19.62-1.3 1.81c-1.56 1.74-2.14 3.92-2.13 6.21l-.35.62c-.76-2.2-2.04-4.15-3.4-6.02l.28-.75 2.59.11c-.94-2.16-2.54-3.91-4.35-5.37-1.65-1.32-3.52-3.21-5.84-2.43l1.46 4.44c-1.26-1.1-2.45-2.28-3.68-3.41z"/><path fill="#a1a2ad" d="M210.8 147.84c2.32-.78 4.19 1.11 5.84 2.43 1.81 1.46 3.41 3.21 4.35 5.37l-2.59-.11-3.36-1.6-2.78-1.65-1.46-4.44z"/><path fill="#9a9e9b" d="M188.29 148.08l.72-.41.72.4.01.81-.72.42-.73-.4v-.82z"/><path fill="#9c9ca8" d="M193.92 149.18l3.29-.35 1.59.12c2.75 3.73 6.85 6 10.38 8.88 2.32 1.88 4.67 3.73 7.14 5.43.38 1.05.83 2.08 1.33 3.08l-5-3.69-2.22.57c-2.9-2.77-6.19-5.1-9.56-7.27-2.16 1.51-4.08 3.32-6.25 4.8-2.62.49-4.89-2.04-5.47-4.4l2.83-.26.59.73c1.1-1.24 1.62-2.81 2.14-4.35l4.15-.83c-1.61-.89-3.25-1.73-4.94-2.46z"/><path fill="#b0b7a4" d="M204.06 148.93l3.81-.31.71.25 3.68 3.41 2.78 1.65.49 3.28c-3.32-3.52-8.84-3.98-11.47-8.28z"/><path fill="#aab09c" d="M192.15 151.28h.45v.45h-.46l.01-.45z"/><path fill="#99a092" d="M215.04 153.93l3.36 1.6-.28.75-.59 1.51c.45 2.06 1.2 4.04 1.94 6.01.84-.3 1.52-.8 2.05-1.5l.35-.62 3.07 2.65-1.2 5.37 1.26 1.59-1.43 1.18c-2.16-1.88-3.34-4.67-5.92-6.13-.5-1-.95-2.03-1.33-3.08l-.79-6.05-.49-3.28z"/><path fill="#737475" d="M224 155.47l1.3-1.81.68.34c2.98 2.42 6.17 4.59 9.07 7.11.17 1.61.36 3.22.63 4.82l1.04 1.34c-1.33-.75-2.69-1.43-4.07-2.07l-.67-.3c-2.56 1.87-4.55 4.37-6.98 6.39l-1.26-1.59c.43-1.78.82-3.58 1.2-5.37 1.41-1.37 3.25-2.48 4.01-4.37-.44-2.41-3.08-3.38-4.95-4.49z"/><path fill="#4f504f" d="M225.98 154c5.24.16 10.13 2.53 14 5.97-1.96 1.57-3.79 3.4-4.3 5.96-.27-1.6-.46-3.21-.63-4.82-2.9-2.52-6.09-4.69-9.07-7.11z"/><path fill="#92e2fa" d="M224 155.47c1.87 1.11 4.51 2.08 4.95 4.49-.76 1.89-2.6 3-4.01 4.37l-3.07-2.65c-.01-2.29.57-4.47 2.13-6.21m-.72 2.75c-1.67 2.22 2.12 4.51 3.02 1.73.46-2.09-1.48-2.75-3.02-1.73z"/><path fill="#adb4a1" d="M217.53 157.79l.59-1.51c1.36 1.87 2.64 3.82 3.4 6.02-.53.7-1.21 1.2-2.05 1.5l-1.94-6.01z"/><path fill="#e9ffff" d="M223.28 158.22c1.54-1.02 3.48-.36 3.02 1.73-.9 2.78-4.69.49-3.02-1.73z"/><path fill="#404041" d="M239.98 159.97c1.34 1.69 2.79 3.31 4.71 4.36a55.12 55.12 0 0 0-3.64.07c2.71 3.15 5.49 6.35 9.03 8.6 2.61 1.77 3.93 4.78 6.09 7-.88.34-1.75.7-2.6 1.08-1.21-1.64-2.47-3.3-4.2-4.43-4.35-2.95-8.37-6.35-12.65-9.38l-1.04-1.34c.51-2.56 2.34-4.39 4.3-5.96z"/><path fill="#7a7e7d" d="M210.43 163.22l2.22-.57 5 3.69c2.58 1.46 3.76 4.25 5.92 6.13l1.35 1.68-4.54-1.49c-1.55-4.4-6.01-6.25-9.54-8.76l-.41-.68z"/><path fill="#5d5f60" d="M210.84 163.9c3.53 2.51 7.99 4.36 9.54 8.76 1.24 2.1 3.3 3.53 4.76 5.46-1.42.13-2.84.21-4.26.26-5.57-2.74-7.73-9.15-10.04-14.48z"/><path fill="#d5a082" d="M241.05 164.4l3.64-.07c2.63 1.47 5.32 2.85 8.15 3.89 5.25 1.92 10.21 4.54 15.45 6.49 6.33 2.41 12.44 5.4 18.94 7.35-1.31 2.65-2.52 5.68-5.4 6.97-1.37.78-2.64 1.71-3.86 2.7-1.73 1.22-3.97 2.64-6.07 1.35-2.31-.67-3.33-2.87-4.27-4.86-.68-1.62-2.45-2.15-3.86-2.94-2.83-1.29-5.36-3.14-7.6-5.28-2.16-2.22-3.48-5.23-6.09-7-3.54-2.25-6.32-5.45-9.03-8.6z"/><path fill="#aaadab" d="M225 171.29c2.43-2.02 4.42-4.52 6.98-6.39l.67.3-.04 5.58-.65 2.99-1.18 4.23-1.67-.5c-1.48-1.01-2.85-2.16-4.19-3.35l-1.35-1.68 1.43-1.18z"/><path fill="#8d8e9a" d="M232.65 165.2l4.07 2.07c4.28 3.03 8.3 6.43 12.65 9.38 1.73 1.13 2.99 2.79 4.2 4.43l-1.92 1.73c-1.36.57-2.72 1.14-3.97 1.93l3.69 1.55c-1.06 1.81-3.25 1.5-5.02 1.46-1.19-1.42-3.36-1.41-4.48.09l-.45-2.95 3.44-.52a107.64 107.64 0 0 0 3.43-4.53l-1.93-1.07-.13-1.42c-1.6-1.27-3.16-2.59-4.9-3.67-1.99-1.27-4.42-1.94-5.91-3.88l-2.81.98c.05-1.86.01-3.72.04-5.58z"/><path fill="#9698a7" d="M232.61 170.78l2.81-.98c1.49 1.94 3.92 2.61 5.91 3.88 1.74 1.08 3.3 2.4 4.9 3.67l.13 1.42-2.4 1.32c-2.16-1.81-4.13-3.9-6.58-5.32-1.73-.67-3.61-.74-5.42-1l.65-2.99z"/><path fill="#4a4d4e" d="M220.38 172.66l4.54 1.49c1.34 1.19 2.71 2.34 4.19 3.35-1.53.18-2.4 1.4-3.07 2.66l-5.16-1.78 4.26-.26c-1.46-1.93-3.52-3.36-4.76-5.46z"/><path fill="#babcc9" d="M231.96 173.77c1.81.26 3.69.33 5.42 1 2.45 1.42 4.42 3.51 6.58 5.32l-1.88 2.72 2.78 1.56-3.44.52c-3.01-1.71-6.22-3.03-9.21-4.76l-1.43-2.13 1.18-4.23z"/><path fill="#333534" opacity=".96" d="M226.04 180.16c.67-1.26 1.54-2.48 3.07-2.66l1.67.5 1.43 2.13c-.27 1.06-.18 2.49-1.58 2.66l-.87-2.57c-2.48-1.01-3 2.09-2.6 3.84-1.15 1.24-2.55 2.2-4.06 2.96 1.29-2.15 2.27-4.45 2.94-6.86z"/><path fill="#d8d5e1" d="M243.96 180.09l2.4-1.32 1.93 1.07-3.43 4.53-2.78-1.56 1.88-2.72z"/><path fill="#636359" d="M227.16 184.06c-.4-1.75.12-4.85 2.6-3.84l.87 2.57c1.4-.17 1.31-1.6 1.58-2.66 2.99 1.73 6.2 3.05 9.21 4.76l.45 2.95-1.92 2.03c-1.7-2.4-3.91-4.28-6.89-4.77-.64-.48-2.53-2.01-2.72-.41l.77 1.25c-1.33-.6-2.63-1.26-3.95-1.88z"/><path fill="#9a9e8f" d="M256.17 180c2.24 2.14 4.77 3.99 7.6 5.28 1.41.79 3.18 1.32 3.86 2.94l-2.25.56c-1.19-.91-2.32-1.91-3.67-2.56-2.05-.36-4.16-.3-6.2-.73-1.43-.66-2.63-1.72-3.86-2.68l1.92-1.73 2.6-1.08z"/><path fill="#645e56" d="M287.23 182.06c2.2.13 4.51.3 6.12 2.01l-.82 2.24-5.19.81 2.33 4.3 3.63-.01-.73 1.35c-1.67.6-3.46.98-4.86 2.13 2.59 1.21 5.83 1.24 7.86 3.46 2.89 2.81 6.05 5.43 8.17 8.91.5 1.52.94 3.07 1.48 4.59-2.83-.94-5.7-2.06-7.89-4.17-3.05-2.83-6.21-5.8-10.38-6.81 2.21 3.18 5.26 5.63 8 8.33l-1.91.35c-1.78-1.12-3.59-2.17-5.39-3.23-1.35-2.21-2.55-4.5-3.66-6.84a30.87 30.87 0 0 0 2.35-2.5c-.01-2.37-2.76-3.05-4.41-4.06 1.58.43 3.25.31 4.6-.7-1.54-1.1-3.12-2.16-4.7-3.19 2.88-1.29 4.09-4.32 5.4-6.97m3.97 3.08l.01.45h.45v-.45h-.46z"/><path fill="#515151" d="M247.68 184.74c1.25-.79 2.61-1.36 3.97-1.93 1.23.96 2.43 2.02 3.86 2.68 2.04.43 4.15.37 6.2.73 1.35.65 2.48 1.65 3.67 2.56-1.26 4.64.04 9.49-1.32 14.12.45 1.75 2.23 2.48 3.59 3.43 3.64 2.23 7.08 4.78 10.31 7.57l1.2.98-2.27 1.36c-3.55-2.85-7.36-5.37-10.84-8.32-1.27-1.31-3.14-1.22-4.78-1.6-1.65-.73-2.98-1.99-4.45-2.99 1.6 2.96 4.01 5.41 5.38 8.5.34 2.05.53 4.13.63 6.21-2.87-2.48-2.42-7.04-5.34-9.47a39.85 39.85 0 0 0-3.04-.46l-1.47-.82c-.02-3.26-.29-6.62.91-9.73 2.54 2.14 4.96 4.45 7.86 6.11 1.09-4.42-.54-9.05.95-13.41-1.39-3.13-4.73-1.69-7.09-.81l-1.96-3.13-2.28-.03-3.69-1.55z"/><path fill="#474b51" d="M227.16 184.06l3.95 1.88 1.78-.03-.84 4.22c-2.98-2.11-6.63-1.24-9.99-1.07l.37-.82.67-1.22c1.51-.76 2.91-1.72 4.06-2.96z"/><path fill="#c5b49d" d="M230.34 184.69c.19-1.6 2.08-.07 2.72.41l-.17.81-1.78.03-.77-1.25z"/><path fill="#3d3e3e" d="M293.35 184.07c3.52 1.72 7.27 3.12 10.14 5.91 1.2 1.66 2.28 3.41 3.4 5.14-1.83-1.18-3.51-2.57-5.25-3.86-1.3-.61-2.26.57-2.93 1.49-1.66-.91-3.49-1.58-5.41-1.34l-3.63.01c-.71-1.47-1.5-2.9-2.33-4.3l5.19-.81.82-2.24z"/><path fill="#6d7188" d="M233.06 185.1c2.98.49 5.19 2.37 6.89 4.77 2.17 1.35 4.72 1.25 7.18 1.17l1.84.28-1.09 3.16c-1.4-1.11-3.08-1.67-4.83-1.91l.8 2.49-1.83.08-2.6-2.2-.47-.2-7.58.33.68-2.94.84-4.22.17-.81z"/><path fill="#908f91" d="M291.2 185.14h.46v.45h-.45l-.01-.45z"/><path fill="#5e6076" d="M251.37 186.29l2.28.03 1.96 3.13c2.36-.88 5.7-2.32 7.09.81-1.49 4.36.14 8.99-.95 13.41-2.9-1.66-5.32-3.97-7.86-6.11-2.01-1.02-4.2-1.69-6.01-3.08l1.09-3.16-1.84-.28-.91-2.56.13-.73c1.77.04 3.96.35 5.02-1.46m7.89 2.97v.46h.45v-.46h-.45m-5.14 4.16c-1.22.96.28 3.29 1.61 2.27 1.17-.97-.3-3.24-1.61-2.27z"/><path fill="#9ca194" d="M241.87 187.84c1.12-1.5 3.29-1.51 4.48-.09l-.13.73c-1.4.73-3.25.52-4.35-.64z"/><path fill="#61647b" d="M222.06 189.06c3.36-.17 7.01-1.04 9.99 1.07l-.68 2.94c2.53-.07 5.05-.29 7.58-.33l.47.2c.88.71 1.75 1.45 2.6 2.2l-.07 1.72-1.92.19c-2.73.02-5.07 1.42-7.27 2.89-2.46 1.3-5.57 2.25-8.04.41-1.07-2.1-.01-4.6.05-6.84a79.58 79.58 0 0 0-1.31-.65c-.69-.85-1.36-1.71-2.02-2.58l-2.59-.53c1.06-.26 2.13-.49 3.21-.69m2.23 1.21v.46h.46v-.46h-.46m2.96-.03v.46h.45v-.46h-.45z"/><path fill="#40414c" d="M239.95 189.87l1.92-2.03c1.1 1.16 2.95 1.37 4.35.64l.91 2.56c-2.46.08-5.01.18-7.18-1.17z"/><path fill="#5f5e5a" d="M265.38 188.78l2.25-.56c.94 1.99 1.96 4.19 4.27 4.86 2.1 1.29 4.34-.13 6.07-1.35l3.08.96-2.45 1.09c1.71 1.14 3.63 2.19 4.58 4.13-3.83.56-7.6 1.56-11.03 3.38-2.48 1.39-5.33 1.47-8.09 1.61 1.36-4.63.06-9.48 1.32-14.12z"/><path fill="#9d9cad" d="M259.26 189.26h.45v.46h-.45v-.46z"/><path fill="#7f7b78" d="M277.97 191.73c1.22-.99 2.49-1.92 3.86-2.7l4.7 3.19c-1.35 1.01-3.02 1.13-4.6.7l-.88-.23-3.08-.96z"/><path fill="#5f5d5d" d="M303.49 189.98c3.85-1.42 6.15 2.83 8.75 4.83l1.02 3.35c-1.39 1.01-2.78-.14-3.93-.93l-2.44-2.11-3.4-5.14z"/><path fill="#878787" d="M211.83 191.88c2.25-.96 4.65-1.54 7.02-2.13l2.59.53 2.02 2.58c-4.27 1.69-9.08 2.94-11.63 7.13-1.59-2.32-1.69-5.83 0-8.11z"/><path fill="#b9baba" d="M224.29 190.27h.46v.46h-.46v-.46z"/><path fill="#b6b5c2" d="M227.25 190.24h.45v.46h-.45v-.46z"/><path fill="#5f6061" d="M293.3 191.41c1.92-.24 3.75.43 5.41 1.34 2.64 2.75 5.51 5.25 8.5 7.62 1.03 1.45 2.04 2.97 2.57 4.69-.36 1.43-1.12 2.73-1.75 4.05l3.5 8.1-1.63 2.03-2.63-2.22-2.05-5.17c-.54-1.52-.98-3.07-1.48-4.59.94 1.25 2.2 1.53 3.54.68-.41-1.49-.69-3.14-1.94-4.19-4.02-3.93-8.52-7.33-12.77-10.99l.73-1.35z"/><path fill="#2a2a2a" d="M298.71 192.75c.67-.92 1.63-2.1 2.93-1.49l5.25 3.86 2.44 2.11c-.53 1.16-1.13 2.31-2.12 3.14-2.99-2.37-5.86-4.87-8.5-7.62z"/><path fill="#b8b8c5" d="M238.95 192.74l.47.2-.47-.2z"/><path fill="#595a54" d="M223.46 192.86l1.31.65c-.06 2.24-1.12 4.74-.05 6.84 2.47 1.84 5.58.89 8.04-.41l.49 1.87c-2.23 1.37-4.63 2.39-7.03 3.41l-3.32-1.09c-2.98 3.53-4.79 8.06-4.7 12.7 1.78-2.14 3.39-4.41 5.1-6.62-.61 2.7-.78 5.47-.64 8.23.13 2.9-.12 5.79-.36 8.68.91.57 1.8 1.16 2.69 1.76-.79 1.31-2.35 2.39-2.52 3.96 2.33 3.65 4.06 7.62 6.21 11.37.28 3.21.36 6.44.3 9.66l-3.45-1.03c-.11-3.35-1.56-6.53-4.35-8.44l-2.46 1.77-.84-1.98c1.01-6.29 1.95-13.02-.36-19.14l-.3 2.01c-1.64.84-3.64 1.08-5.08 2.25-.59 2.68-.6 5.69-2.88 7.62-1.66-1.21-3.41-2.29-5.26-3.18-1.26 2.29-.7 5.03-1.63 7.42-.17-3-.97-5.94-1-8.95.61-2.58 2.77-4.42 4.23-6.55 2.46-3.48 5.35-6.59 8.14-9.79l-.6-2.37c3.34-2.84 4.7-7.26 5.75-11.37-1.99.34-2.79 2.28-3.68 3.84a90.81 90.81 0 0 0 .05-3.69l-3.43-2.3c2.55-4.19 7.36-5.44 11.63-7.13z"/><path fill="#5e5f60" d="M243.05 192.57c1.75.24 3.43.8 4.83 1.91 1.81 1.39 4 2.06 6.01 3.08-1.2 3.11-.93 6.47-.91 9.73-2.6.24-5.19.58-7.81.46l-.58-5.84c-.41 1.61-.55 3.26-.7 4.92l-3.61-.04-.25-9.74 1.92-.19c1.75-.2 3.5-.5 5.22-.88-.85-.88-1.96-1.18-3.32-.92l-.8-2.49z"/><path fill="#81807d" d="M254.12 193.42c1.31-.97 2.78 1.3 1.61 2.27-1.33 1.02-2.83-1.31-1.61-2.27z"/><path fill="#373632" d="M278.6 193.78l2.45-1.09.88.23c1.65 1.01 4.4 1.69 4.41 4.06a30.87 30.87 0 0 1-2.35 2.5l-.81-1.57c-.95-1.94-2.87-2.99-4.58-4.13z"/><path fill="#8e8f93" d="M287.71 194.89c1.4-1.15 3.19-1.53 4.86-2.13 4.25 3.66 8.75 7.06 12.77 10.99 1.25 1.05 1.53 2.7 1.94 4.19-1.34.85-2.6.57-3.54-.68-2.12-3.48-5.28-6.1-8.17-8.91-2.03-2.22-5.27-2.25-7.86-3.46z"/><path fill="#a5a5ab" d="M242.02 195.14l1.83-.08c1.36-.26 2.47.04 3.32.92-1.72.38-3.47.68-5.22.88l.07-1.72z"/><path opacity=".07" d="M312.24 194.81c2.04 1.21 3.98 2.59 5.69 4.24 2.27 2.38 5.76 2.88 8.9 2.85 2.08-.86 3.94-2.16 5.97-3.13 1.18 1.63 1.96 3.68 3.62 4.89 2.08.16 4-1.16 6.08-.99 2.17.85 3.75 2.7 5.77 3.83 2.16.48 4.38-.16 6.56.03 1.68.74 2 3.25 3.96 3.67 1.99.89 3.53-1.07 5.09-1.97l3.21 2.58 3.69-1.11c3.31 1.86 6.94 3.43 10.83 2.81l-.02-2.45c3.17 1.18 6.36 2.66 8.38 5.52 1.18-.54 2.32-1.65 3.72-1.35 2.61.26 4.43 2.32 6.57 3.61 2.04-.3 3.89-1.62 6.02-1.34 2.04.12 4.03.59 6.02 1.08.39 1.32.76 2.66 1.29 3.94 1.63 1.24 2.07-1.24 2.95-2.15 1.86.91 3.08 2.6 4.27 4.23l.4-2.23 1.81 2.38c1.86-1.1 3.77-2.09 5.77-2.91l3.29 2.79c3.16-1.08 6.38-2.2 9.78-2.18l2.41 2.78 4.57-2.16c1.37 1.51 2.47 3.67 4.75 3.82l.69-4.83c.86 1.86 1.42 3.83 1.93 5.81 1.2-.83 2.39-1.68 3.56-2.57l-1.42-2.44c.4-.18 1.18-.56 1.57-.75l3.97 2.56 4.03-2.58c-.73 1.83-1.35 3.7-1.88 5.6 3.48-.63 6.97-.33 10.4.4 3.98-.07 7.3-3.09 11.34-3.06l-.39 5.01c1.33-1.3 2.63-2.62 3.92-3.96 2.57.33 5.22.4 7.55-.91l2.22 2.39c2.4-.73 4.93-2.07 7.49-1.3 3.01 1.46.82 5.68 3.43 7.44v30.91l-3.26 1.68-.19 2.34c-4.92.65-8.16-3.74-11.81-6.2-2.18-.01-3.98 1.92-6.21 1.77-1.96-.09-3.86-.64-5.78-.97l-.13 2.25c-2.53.46-5.28.91-7.64-.42-2.63-1.38-5.43-2.4-8.42-2.58-3.29-.15-6.08-2.19-9.34-2.45.46 1.62 1.07 3.19 1.76 4.73-4.46-.55-8.47-2.57-12.56-4.23-1.88-.98-3.72.53-5.47 1.1l1.74-3.66-.54-1.76c-2.49 2.08-5.07 4.07-7.89 5.68l.49-4.81c-2.45-.23-3.21 2.71-4.73 4.1-2.53-1.39-4.87-3.56-7.87-3.75-1.48.75-2.64 1.97-3.89 3.04-.86-.78-1.7-1.59-2.62-2.28-2.1-.32-4.18.31-6.23.62.77-2.15 2.06-6.04-1.15-6.77.13 1.44.31 2.88.51 4.32-2.06-.61-4.16-.26-6.06.67l-.24 4.83-2.08.09c.28-2.49.53-5 .18-7.49l-3.22-.35-1.9 5.58c-1.79.09-3.89.37-5.33-.95-1.62-1.52-.69-3.88-.65-5.79-1.96 1.02-3.9 2.06-5.82 3.14l.82 2.14-5.33-.44-.19-2.58 3.06-2.41c-1.3-.3-2.57-.86-3.91-.77-1.88.54-3.54 1.59-5.24 2.5l-3.97-3.67c-.81.97-1.43 2.08-1.93 3.24-1.76-1.2-3.46-2.49-5.12-3.82-3.34 1.7-6.98 2.54-10.7 2.89-.75-1.84-1.23-4.06-3.11-5.1-2.13-1.35-4.76-1.08-7.16-1.02-.4 1.22-.78 2.46-1.33 3.63-2.17.98-3.41-2.2-5.47-2.29-2.48-.24-4.94.34-7.26 1.16-1.25-.73-2.48-1.48-3.7-2.24l-2.51 1.63-.36-3.54c-2.75-.65-6.23-.14-8-2.82-.87 3.6-3.71 5.99-6.12 8.58l.32 1.28c1.87.57 3.78 1.02 5.65 1.6l-1.86 2.95-5.09-2.84-4.28 3.92c-.34-4.51-1.84-8.82-3.01-13.16-.37-1.43-1.05-2.76-1.83-4.01-1.21-1.79-2.3-3.66-3.21-5.62.72-1.45 1.35-2.96 2.26-4.31 2.01-2.29 4.96-3.61 6.74-6.15 1.44-2.1 2.02-4.62 2.73-7.03l.73.23 2.63 2.22 1.63-2.03c1.41-2.13 2.58-4.56 2.48-7.19-.04-3.96-.13-7.94-.75-11.86-.31-1.13-.65-2.24-1.02-3.35z"/><path fill="#6b6b6c" d="M232.76 199.94c2.2-1.47 4.54-2.87 7.27-2.89l.25 9.74 3.61.04-.25.78c-2.69.22-5.45 1.07-8.14.62-1.36-1.84-1.55-4.29-2.25-6.42l-.49-1.87z"/><path fill="#484747" d="M309.33 197.23c1.15.79 2.54 1.94 3.93.93.62 3.92.71 7.9.75 11.86.1 2.63-1.07 5.06-2.48 7.19l-3.5-8.1c.63-1.32 1.39-2.62 1.75-4.05-.53-1.72-1.54-3.24-2.57-4.69.99-.83 1.59-1.98 2.12-3.14z"/><path fill="#787a70" d="M272.15 201.29c3.43-1.82 7.2-2.82 11.03-3.38l.81 1.57c1.11 2.34 2.31 4.63 3.66 6.84.74 1.89 1.22 3.92 2.34 5.65 1.74 1.28 4.58 1.39 5.42 3.65 1 1.41-.25 2.81-.74 4.14l-4.02.31v-3.83c-1.74-.78-3.52-1.43-5.35-1.96.13 2.08-.02 4.19-1.11 6.02-1.13-1.45-2.3-2.87-3.55-4.21 1.89-1.5 3.83-2.95 5.83-4.32.1-1.55.12-3.1.09-4.65-4.34-.56-6.73 3.57-8.6 6.78-3.23-2.79-6.67-5.34-10.31-7.57-1.36-.95-3.14-1.68-3.59-3.43 2.76-.14 5.61-.22 8.09-1.61z"/><path fill="#252422" d="M286.95 200.87c4.17 1.01 7.33 3.98 10.38 6.81 2.19 2.11 5.06 3.23 7.89 4.17l2.05 5.17-.73-.23c-4.29-.87-7.36-4.04-10.61-6.69-.24-.23-.74-.68-.98-.9-2.74-2.7-5.79-5.15-8-8.33z"/><path fill="#636566" opacity=".91" d="M215.21 205.98c.89-1.56 1.69-3.5 3.68-3.84-1.05 4.11-2.41 8.53-5.75 11.37-1.25-2.74 1.08-5.13 2.07-7.53z"/><path fill="#88887f" d="M233.25 201.81c.7 2.13.89 4.58 2.25 6.42 2.69.45 5.45-.4 8.14-.62l.25-.78c.15-1.66.29-3.31.7-4.92l.58 5.84c2.62.12 5.21-.22 7.81-.46l1.47.82-4.42.89c-4.98.99-10.41-.81-15.03 1.84 2.23-.31 4.45-.74 6.68-1.04l1.08 1.04-4 3.23c-3.17-1.38-6.72-1.37-9.93-.12-2.07 2-3.38 4.98-2.87 7.88.41 1.65 1.2 3.17 1.86 4.74-1.29-.42-3.49.02-3.81-1.74-.44-2.92.73-5.83 1.09-8.72l-2.44 2.33c-.14-2.76.03-5.53.64-8.23 1.17-1.54 2.14-3.22 2.92-4.99 2.4-1.02 4.8-2.04 7.03-3.41z"/><path fill="#89857d" d="M256.82 203.33c1.47 1 2.8 2.26 4.45 2.99 1.64.38 3.51.29 4.78 1.6 3.48 2.95 7.29 5.47 10.84 8.32 2.16 2.12 4.34 4.23 6.26 6.58 2.64 3.47 4.64 7.37 6.93 11.08.13 1.98.29 3.98.51 5.96l-2.55-.76c-1.46-3.19-3.5-6.06-5.02-9.21-1.9-4.58-6.01-7.67-8.39-11.97-2.99-3.41-6.96-6.19-11.25-7.72l-1.18 1.63c-1.37-3.09-3.78-5.54-5.38-8.5z"/><path fill="#727372" d="M218.2 216.83c-.09-4.64 1.72-9.17 4.7-12.7l3.32 1.09c-.78 1.77-1.75 3.45-2.92 4.99-1.71 2.21-3.32 4.48-5.1 6.62z"/><path fill="#6b6d64" d="M287.65 206.32l5.39 3.23 1.91-.35.98.9c1.51 3.42 3.79 6.85 3.58 10.74-1.43 2.1-3.78 3.28-5.49 5.12-.83 1.76-1.33 3.67-2.02 5.49-3.84-2.69-4.98-7.6-7.81-11.15 1.09-1.83 1.24-3.94 1.11-6.02 1.83.53 3.61 1.18 5.35 1.96v3.83l4.02-.31c.49-1.33 1.74-2.73.74-4.14-.84-2.26-3.68-2.37-5.42-3.65-1.12-1.73-1.6-3.76-2.34-5.65z"/><path fill="#888982" d="M277.96 213.9c1.87-3.21 4.26-7.34 8.6-6.78.03 1.55.01 3.1-.09 4.65-2 1.37-3.94 2.82-5.83 4.32l-1.48-1.21-1.2-.98z"/><path fill="#706d6d" d="M254.45 208.11l3.04.46c2.92 2.43 2.47 6.99 5.34 9.47-.1-2.08-.29-4.16-.63-6.21l1.18-1.63c4.29 1.53 8.26 4.31 11.25 7.72l-.68 8.1-1.27-.98c-1.92.22-.23 2.67 1.05 1.78l-.76 2.27-.46-.25c-.97-.84-1.85-1.99-3.26-1.98.4 1.29.83 2.57 1.28 3.85l-4.18.98c-.16-2.12.11-4.45-1.28-6.24-1.99.98-3.75 2.35-5.36 3.85l-1.01-2.8 2.42-.08c-.57-4.85-.98-9.88-2.97-14.38-2.43-1.41-5.54-1.19-8.16-2.26l.04-.78c1.48-.26 2.94-.59 4.42-.89m9.58 3.86c.17 2.98.78 5.92 1.36 8.85 1.37-.08 3.51-.21 3.57-2.04.84-3.18-2.45-5.59-4.93-6.81z"/><path fill="#58595c" d="M235 210.84c4.62-2.65 10.05-.85 15.03-1.84l-.04.78c-1.17 1.03-2.33 2.06-3.41 3.18l-2.06-.28-1.76-1.84-1.08-1.04c-2.23.3-4.45.73-6.68 1.04z"/><path fill="#83817a" d="M246.58 212.96c1.08-1.12 2.24-2.15 3.41-3.18 2.62 1.07 5.73.85 8.16 2.26 1.99 4.5 2.4 9.53 2.97 14.38l-2.42.08 1.01 2.8c1.23 5.12.88 10.42 1.19 15.64-2.42 3.15-4.47 6.84-8.09 8.79-2.87 1.58-5.76 3.36-9.01 4.01-4.01.25-7.95-.98-11.97-.75-.48 0-1.46 0-1.94-.01 1.81 3.69 6.01 5.09 9.36 7.02l-1.22 2.38c-1.2-.05-2.53.01-3.44-.92-3.76-3-7.91-5.93-9.83-10.52l.77-2.1 3.45 1.03c.06-3.22-.02-6.45-.3-9.66.58-5.72 2.87-11.68.46-17.27 1.17.46 2.33.96 3.49 1.46l-.69 6.39c-.51 3.32-.53 6.7.06 10.02 2.23.15 4.38-.48 6.4-1.37l1.84-5.99c2.53.11 5.05.41 7.56.72l2.49-3.14c1.13 4.38-1.83 8.35-2.56 12.56-2.88-.54-5.82-1.2-8.74-.54-.45 1.73-.62 3.88 1.3 4.82 3.67 1.34 7.67.03 11.1-1.46.98-3.29 1.31-6.7 1.23-10.12-.08-3.37 1.51-6.57 1.17-9.93-.31-3.12-2.64-5.4-3.88-8.13-.67-2.1-.97-4.29-1.68-6.37-.51-.99-1.06-1.96-1.65-2.9z"/><path fill="#5c5a55" d="M295.93 210.1c3.25 2.65 6.32 5.82 10.61 6.69-.71 2.41-1.29 4.93-2.73 7.03-1.78 2.54-4.73 3.86-6.74 6.15-.91 1.35-1.54 2.86-2.26 4.31l-4.31.27-.42-.65c-2.29-3.71-4.29-7.61-6.93-11.08-1.92-2.35-4.1-4.46-6.26-6.58l2.27-1.36 1.48 1.21c1.25 1.34 2.42 2.76 3.55 4.21 2.83 3.55 3.97 8.46 7.81 11.15.69-1.82 1.19-3.73 2.02-5.49 1.71-1.84 4.06-3.02 5.49-5.12.21-3.89-2.07-7.32-3.58-10.74z"/><path fill="#9e9c95" d="M238.76 214.07l4-3.23.02 1.66c-.97 1.11-.84 2.1.4 2.96.61 3.2.48 6.47.28 9.71l-.04.48-.54 8.71-4.72-1.07-1.75 4.36c-1.25-1.31-2.73-2.34-4.47-2.86l.69-6.39-3.49-1.46-1.32-.37c-.66-1.57-1.45-3.09-1.86-4.74-.51-2.9.8-5.88 2.87-7.88 3.21-1.25 6.76-1.26 9.93.12m-3.42 4.07a23.32 23.32 0 0 0-1.37 2.96c-.15 2.18 2 3.39 3.71 4.16.93.47 2.81.96 2.96-.63 1.51-3.36-1.62-7.68-5.3-6.49m6.01 9.13v.45h.45v-.45h-.45z"/><path fill="#787f8a" d="M242.76 210.84l1.76 1.84 2.06.28 1.65 2.9c-.46 6.22.42 12.42.15 18.63-1.83.13-3.68.15-5.5-.13l.54-8.71.04-.48c.2-3.24.33-6.51-.28-9.71.7-1.11.57-2.09-.4-2.96l-.02-1.66z"/><path fill="#50504f" d="M264.03 211.97c2.48 1.22 5.77 3.63 4.93 6.81-.06 1.83-2.2 1.96-3.57 2.04l-1.36-8.85z"/><path fill="#c5c5c5" d="M243.18 215.46c-1.24-.86-1.37-1.85-.4-2.96.97.87 1.1 1.85.4 2.96z"/><path fill="#6d6f6e" d="M222.66 218.44l2.44-2.33c-.36 2.89-1.53 5.8-1.09 8.72.32 1.76 2.52 1.32 3.81 1.74l1.32.37c2.41 5.59.12 11.55-.46 17.27-2.15-3.75-3.88-7.72-6.21-11.37.17-1.57 1.73-2.65 2.52-3.96l-2.69-1.76c.24-2.89.49-5.78.36-8.68z"/><path fill="#979490" d="M248.23 215.86c.71 2.08 1.01 4.27 1.68 6.37 1.24 2.73 3.57 5.01 3.88 8.13.34 3.36-1.25 6.56-1.17 9.93.08 3.42-.25 6.83-1.23 10.12-3.43 1.49-7.43 2.8-11.1 1.46-1.92-.94-1.75-3.09-1.3-4.82 2.92-.66 5.86 0 8.74.54.73-4.21 3.69-8.18 2.56-12.56l-2.49 3.14c-2.51-.31-5.03-.61-7.56-.72l-1.84 5.99c-2.02.89-4.17 1.52-6.4 1.37-.59-3.32-.57-6.7-.06-10.02 1.74.52 3.22 1.55 4.47 2.86.51-1.48 1.1-2.93 1.75-4.36 1.56.4 3.13.79 4.72 1.07 1.82.28 3.67.26 5.5.13.27-6.21-.61-12.41-.15-18.63z"/><path fill="#8d8981" d="M235.34 218.14c3.68-1.19 6.81 3.13 5.3 6.49-.15 1.59-2.03 1.1-2.96.63-1.71-.77-3.86-1.98-3.71-4.16a23.32 23.32 0 0 1 1.37-2.96z"/><path fill="#52514f" d="M273.95 226.02l.68-8.1c2.38 4.3 6.49 7.39 8.39 11.97 1.52 3.15 3.56 6.02 5.02 9.21 1.97 4.15 3.51 8.82 2.52 13.45-1.51 4.77-4.06 9.26-7.79 12.63-1.98 1.24-3.9 2.57-5.93 3.72-3.09 1.13-5.6 3.53-8.86 4.17l.21-2.76c3.61-1.49 6.9-3.51 9.58-6.38-.63-.97-1.49-1.27-2.56-.91-3.06 1.02-5.43 3.36-8.22 4.93-3.56 2.01-7.12 4.03-10.85 5.71l-.5-2.85c2.27-2.17 4.67-4.24 7.44-5.75 4.17-2.26 8.13-4.95 12.62-6.58.58-3.19 2.21-7.84-1.55-9.66-1.77 5.07-4.69 10.4-10.03 12.35.87-2.43 2.1-4.82 2.11-7.46 3.65-1.91 6.69-6.04 5.46-10.3-.52-1.9-.16-3.86.18-5.75l1.45-.79c2.64 2.78 2.01 6.9 3.56 10.18 1.6 3.45 2.49 7.14 3.4 10.81 1.77-.63 2.06-2.74 2.91-4.19-1.02-2.05-2.19-4.11-2.48-6.42-.19-1.76.52-3.51.2-5.24-1.02-3.08-2.71-5.87-4.41-8.6-1.47-.03-2.93.02-4.39.15l-.12 2.48-1.38-2.22-.91 2.38-1.21-2.29c-.93 2.1-1.24 4.39-1.87 6.58-1.64 1.97-3.49 3.77-4.9 5.92l-.47.63-.35-2.1c-.31-5.22.04-10.52-1.19-15.64 1.61-1.5 3.37-2.87 5.36-3.85 1.39 1.79 1.12 4.12 1.28 6.24l4.18-.98c-.45-1.28-.88-2.56-1.28-3.85 1.41-.01 2.29 1.14 3.26 1.98a18.62 18.62 0 0 0 .35.6l.11-.35.76-2.27.22-.8z"/><path fill="#858583" d="M217.52 225.05c2.31 6.12 1.37 12.85.36 19.14-1-3.18-1.64-6.47-3-9.53 1.49-2.28 2.2-4.9 2.34-7.6l.3-2.01z"/><path fill="#e5eaee" d="M243.42 225.65l.04-.48-.04.48z"/><path fill="#a4a3a5" d="M273.73 226.82c-1.28.89-2.97-1.56-1.05-1.78l1.27.98-.22.8z"/><path fill="#636360" d="M212.14 229.31c1.44-1.17 3.44-1.41 5.08-2.25-.14 2.7-.85 5.32-2.34 7.6 1.36 3.06 2 6.35 3 9.53l.84 1.98 2.46-1.77c2.79 1.91 4.24 5.09 4.35 8.44l-.77 2.1c1.92 4.59 6.07 7.52 9.83 10.52.91.93 2.24.87 3.44.92l1.04 1.79c-1.06.08-2.12.24-3.16.39l3.65 4c-2.29-.99-4.71-1.82-6.62-3.49-3.29-2.77-5.32-6.66-8-9.97-2.64-3.17-3.1-7.44-5.1-10.94-.84-.5-1.7-.94-2.59-1.32 2.2 6.97 5.42 13.58 9.04 19.92.58 1 1.17 2.11 2.29 2.62 3.94 2.11 8.02 3.95 11.98 6.03 1.83.9 3 2.64 4.28 4.16-2.11 1.63-4.45 3.1-5.88 5.41 2.31.73 4.74.55 7.13.41a69.56 69.56 0 0 1 .06 4.57c-2.3.26-4.71.83-6.97.06-3.02-1.67-5.49-4.72-9.17-4.87-4.65 2.06-8.69 6.08-9.94 11.12 1.65-.61 2.89-1.89 4.1-3.11l.5 2.75c-2.3 2.52-5.2 4.64-8.69 5.03l-2.7.22-2.27 3.66a91.41 91.41 0 0 1 .44-3.75 76.47 76.47 0 0 1 .76-2.7l.34-1.27c-1.92-2.75-3.38-5.76-4.73-8.82 1.37.67 2.68 1.64 4.25 1.76 5.67.36 11.24-1.68 15.71-5.11-2.99-2.17-5.78-4.6-8.48-7.12-5.24-4.92-10.25-10.33-13.33-16.91l-1.04-1.87c-.49-1.34-2.14-.51-3.13-.47.18-3.61-.28-7.19-.9-10.73-.6-2.36.75-4.51 1.47-6.66.93-2.39.37-5.13 1.63-7.42 1.85.89 3.6 1.97 5.26 3.18 2.28-1.93 2.29-4.94 2.88-7.62m-7.64 16.75c.37 2.15.11 4.34.35 6.5 2.63 6.07 5.92 11.84 9.27 17.54 4.01 4.97 9.41 8.54 14.59 12.16 2.14 1.43 4.37 3.41 7.14 2.59-.9-2.92-3.89-4.58-6.12-6.44-3.48-1.79-5.73-5.12-9.02-7.17-2.71-1.68-3.82-4.83-5.69-7.26-1.31-1.97-3.28-3.54-4.02-5.84-1.37-4.49-3.15-8.84-4.99-13.16l-1.51 1.08z"/><path fill="#d2d0d0" d="M241.35 227.27h.45v.45h-.45v-.45z"/><path fill="#a8a6aa" d="M272.51 228.84l.46.25-.11.35-.35-.6z"/><path fill="#75736c" d="M272.11 233.56c1.46-.13 2.92-.18 4.39-.15 1.7 2.73 3.39 5.52 4.41 8.6.32 1.73-.39 3.48-.2 5.24.29 2.31 1.46 4.37 2.48 6.42-.85 1.45-1.14 3.56-2.91 4.19-.91-3.67-1.8-7.36-3.4-10.81-1.55-3.28-.92-7.4-3.56-10.18l-1.45.79.12-1.62.12-2.48z"/><path fill="#5e5d5d" d="M266.62 240.49c.63-2.19.94-4.48 1.87-6.58l1.21 2.29-.23 9.37c-.32 3.23-2.94 6.16-6.3 6.23l.06-3.47-1.51-1.92c1.41-2.15 3.26-3.95 4.9-5.92z"/><path fill="#2f3131" d="M269.7 236.2l.91-2.38 1.38 2.22-.12 1.62c-.34 1.89-.7 3.85-.18 5.75 1.23 4.26-1.81 8.39-5.46 10.3-1.94.5-3.88.96-5.85 1.3l-1.42-1.15c1.24-2.1 1.98-4.42 2.29-6.82l.47-.63 1.51 1.92-.06 3.47c3.36-.07 5.98-3 6.3-6.23.32-3.12.14-6.25.23-9.37z"/><path fill="#787871" d="M290.08 233.9l.42.65c2.67 3.43 1.93 7.9 2.02 11.93-.11 3 2.91 4.77 5.41 5.59 2.15-4.29-1.17-8.71-2.11-12.89l2.2.72c.78 1.25 1.46 2.58 1.83 4.01.07 2.47.25 4.96.99 7.34 1.23 4.15 1.42 8.81-.43 12.81-.57-3.23-.41-6.61-1.46-9.74-1.39-1.52-3.78-1.55-5.67-2.11-.66 3.17-1.06 6.39-1.33 9.62 1.25-1.69 2.51-3.9 4.97-3.46.7 2.35 1.02 4.79 1.11 7.24-1.64 1.02-2.67 2.67-3.76 4.2l-1-3.89-3.04-1.85c-2.72 4.02-6.12 7.46-10.04 10.3-1.29.96-2.4 2.28-3.95 2.82-2.07.26-4.18.18-6.25.51-5.22 1.75-10.6 3.04-16.11 3.37 4.94-3.93 12.33-2.02 17.18-6.06a110.06 110.06 0 0 0-3.63-.14l.55-1.8c3.26-.64 5.77-3.04 8.86-4.17l3.13 3.13c3-1.5 5.94-3.55 7.09-6.86-1.43-.02-2.87-.05-4.29.01 3.73-3.37 6.28-7.86 7.79-12.63.99-4.63-.55-9.3-2.52-13.45l2.55.76c-.22-1.98-.38-3.98-.51-5.96z"/><path fill="#484846" d="M290.5 234.55l4.31-.27c.91 1.96 2 3.83 3.21 5.62l-2.2-.72c.94 4.18 4.26 8.6 2.11 12.89-2.5-.82-5.52-2.59-5.41-5.59-.09-4.03.65-8.5-2.02-11.93z"/><path fill="#4d4b46" d="M299.85 243.91c1.17 4.34 2.67 8.65 3.01 13.16-.19 4.63-.58 9.26-.25 13.89.2 2.85 1.39 5.5 1.87 8.3.38 2.88-.03 5.81.35 8.7.34 2.05 1.2 3.96 1.61 5.99-.17 1.36-1.59 2.15-2.33 3.22l.02-.88c-.22-5.84-.53-11.8-2.13-17.45l-2.34 2.3c-1.39-2.77-3.16-5.32-4.99-7.81 1.29-1.45 2.44-3.01 3.61-4.54l-.25-3.18c-.09-2.45-.41-4.89-1.11-7.24-2.46-.44-3.72 1.77-4.97 3.46.27-3.23.67-6.45 1.33-9.62 1.89.56 4.28.59 5.67 2.11 1.05 3.13.89 6.51 1.46 9.74 1.85-4 1.66-8.66.43-12.81-.74-2.38-.92-4.87-.99-7.34m.44 24.25c.05 2.81-1.6 6.23.67 8.5 2.3-2.18.79-5.57.72-8.32l-1.39-.18z"/><path fill="#8e8b83" d="M204.5 246.06l1.51-1.08c1.84 4.32 3.62 8.67 4.99 13.16.74 2.3 2.71 3.87 4.02 5.84 1.87 2.43 2.98 5.58 5.69 7.26 3.29 2.05 5.54 5.38 9.02 7.17 2.23 1.86 5.22 3.52 6.12 6.44-2.77.82-5-1.16-7.14-2.59-5.18-3.62-10.58-7.19-14.59-12.16-3.35-5.7-6.64-11.47-9.27-17.54-.24-2.16.02-4.35-.35-6.5z"/><path fill="#64635f" d="M252.81 253.73c3.62-1.95 5.67-5.64 8.09-8.79l.35 2.1c-.31 2.4-1.05 4.72-2.29 6.82-2.57.84-4.03 3.17-5.46 5.29l-.48-.01c-5.38-1.37-10.76 1.03-16.18.33-1.98-.02-3.43-1.5-5.01-2.48 4.02-.23 7.96 1 11.97.75 3.25-.65 6.14-2.43 9.01-4.01z"/><path fill="#918e87" d="M217.25 246.84c.89.38 1.75.82 2.59 1.32 2 3.5 2.46 7.77 5.1 10.94 2.68 3.31 4.71 7.2 8 9.97 1.91 1.67 4.33 2.5 6.62 3.49 1.71 1.02 3.5 1.92 5.36 2.65a57.7 57.7 0 0 1 2.72 2.24l-2.21 1.69-.59.43c-1.28-1.52-2.45-3.26-4.28-4.16-3.96-2.08-8.04-3.92-11.98-6.03-1.12-.51-1.71-1.62-2.29-2.62-3.62-6.34-6.84-12.95-9.04-19.92z"/><path fill="#383938" d="M274.15 248.82c3.76 1.82 2.13 6.47 1.55 9.66-4.49 1.63-8.45 4.32-12.62 6.58-2.77 1.51-5.17 3.58-7.44 5.75l-2.59 2.53.24 2.6.33 3.26-1.56-.16c-1.06-1.86-1.94-3.81-2.76-5.78 1.27-1.18 2.34-2.56 3.01-4.18l2.56-1.77-4.91-.4c.49-1.56 2.29-1.9 3.62-2.41 3.55-.99 7.2-1.69 10.54-3.33 5.34-1.95 8.26-7.28 10.03-12.35z"/><path fill="#534d47" d="M253.5 259.15c1.43-2.12 2.89-4.45 5.46-5.29l1.42 1.15c-2.36 3.11-4.71 7.06-8.94 7.67-2.06.61-4.04-.43-5.93-1.13-.27.88.02 2.29-1.08 2.65-1.73.24-3.47 0-5.18-.2-3.35-1.93-7.55-3.33-9.36-7.02a125.46 125.46 0 0 0 1.94.01c1.58.98 3.03 2.46 5.01 2.48 5.42.7 10.8-1.7 16.18-.33.1.04.29.12.38.15l.1-.14m2.77-1.88v.45h.45v-.45h-.45z"/><path fill="#6d6d6d" d="M260.38 255.01l5.85-1.3c-.01 2.64-1.24 5.03-2.11 7.46-3.34 1.64-6.99 2.34-10.54 3.33-1.33.51-3.13.85-3.62 2.41l4.91.4-2.56 1.77c-4.42-.58-9.01.94-13.24-.91l-1.04-1.79 1.22-2.38c1.71.2 3.45.44 5.18.2 1.1-.36.81-1.77 1.08-2.65 1.89.7 3.87 1.74 5.93 1.13 4.23-.61 6.58-4.56 8.94-7.67z"/><path fill="#8c8a8d" d="M256.27 257.27h.45v.45h-.45v-.45z"/><path fill="#808179" d="M201.8 258.56c.99-.04 2.64-.87 3.13.47l1.04 1.87c-2.25 1.4-4.59 2.71-6.58 4.48.04 2.45 3.24 3 4.37 4.94 2.1 3.42 4.22 7.17 8.08 8.86 2.53 1.22 5.1-.57 7.46-1.37 2.7 2.52 5.49 4.95 8.48 7.12-4.47 3.43-10.04 5.47-15.71 5.11-1.57-.12-2.88-1.09-4.25-1.76-3.35-6.61-6.42-13.56-11.59-18.99 1.43-3.02 2.72-6.1 3.69-9.3l1.88-1.43z"/><path fill="#595754" d="M192.52 259.59c2.46-.65 4.97-.11 7.4.4-.97 3.2-2.26 6.28-3.69 9.3-2.19.04-4.25.87-5.56 2.69 1.49.36 3 .59 4.48 1.01 3.07 3.04 5.71 6.64 7.08 10.77l-3.23-1.47c-3.56-2.08-6.03-5.47-8.61-8.59-1.47-1.66-2.1-3.81-2.74-5.88 1.74-2.26 2.08-5.21 3.46-7.67-.64 1.32-.41 2.23.71 2.73 1.05-.85 1.29-1.95.7-3.29z"/><path fill="#9d9ba0" d="M253.02 259.14l.48.01-.1.14c-.09-.03-.28-.11-.38-.15z"/><path fill="#6d6e6d" opacity=".96" d="M191.11 260.15l1.41-.56c.59 1.34.35 2.44-.7 3.29-1.12-.5-1.35-1.41-.71-2.73z"/><path fill="#96968d" d="M199.39 265.38c1.99-1.77 4.33-3.08 6.58-4.48 3.08 6.58 8.09 11.99 13.33 16.91-2.36.8-4.93 2.59-7.46 1.37-3.86-1.69-5.98-5.44-8.08-8.86-1.13-1.94-4.33-2.49-4.37-4.94z"/><path fill="#66655f" d="M266.99 267.95c2.79-1.57 5.16-3.91 8.22-4.93 1.07-.36 1.93-.06 2.56.91-2.68 2.87-5.97 4.89-9.58 6.38-1.21 1-2.12 2.59-3.81 2.82-3.75.72-7.4 1.84-11.09 2.81l-.24-2.6 2.59-2.53.5 2.85c3.73-1.68 7.29-3.7 10.85-5.71z"/><path fill="#414241" d="M290.23 264.07l3.04 1.85c-2.37 5.3-6.27 10.42-12.13 12.01l-.95-3.56c3.92-2.84 7.32-6.28 10.04-10.3z"/><path fill="#67625c" d="M276.84 268.9l5.93-3.72 4.29-.01c-1.15 3.31-4.09 5.36-7.09 6.86l-3.13-3.13z"/><path fill="#686761" d="M293.27 265.92l1 3.89c1.09-1.53 2.12-3.18 3.76-4.2l.25 3.18-3.61 4.54c-3.12 2.97-6.6 5.58-9.44 8.85-1.42 2.05-4.15 1.89-6.32 2.5 1.74 1.2 3.05 4.07 5.55 3.27 2.66-2.09 4.23-5.19 5.62-8.2.96-2.28 3.3-3.51 5.62-3.93l-1.83 5.41 2.36.4c-1.41 3.92-6.09 4.03-9.15 6.06 2.96.71 5.87 1.67 8.5 3.26-3.81 2.26-8.28 1.64-12.44 1.1-3.09-.59-5.96.97-8.81 1.87l1.18 2.09-2.18.92-.69 2.04c-1.31-3.76.18-7.82-.85-11.63l-1.27-1c-4.93-.05-9.8 1.33-14.75.77 5.35-1.62 10.85-2.61 16.24-4.01 2.07-.37 2.18-2.98 1.25-4.43a12.44 12.44 0 0 0-3.27-.97c2.07-.33 4.18-.25 6.25-.51 1.55-.54 2.66-1.86 3.95-2.82l.95 3.56c5.86-1.59 9.76-6.71 12.13-12.01z"/><path fill="#717474" d="M184.68 270.82c.51-1.09 1.57-1.73 2.43-2.51-1.82 3.52 1.79 6.36 3.52 9.06 2.19 2.44 3.3 6.63 7.09 6.88l1.28-1.96 3.23 1.47 3 4.3-.11 3.85-6.64-6.48-3.52 3.33c-3.72-2.91-6.34-6.91-8.89-10.82-1.48-2.07-1.3-4.71-1.39-7.12z"/><path fill="#8b8c8f" d="M187.11 268.31l.54-.49c.64 2.07 1.27 4.22 2.74 5.88 2.58 3.12 5.05 6.51 8.61 8.59l-1.28 1.96c-3.79-.25-4.9-4.44-7.09-6.88-1.73-2.7-5.34-5.54-3.52-9.06z"/><path fill="#454644" d="M235.91 268.56l3.16-.39c4.23 1.85 8.82.33 13.24.91-.67 1.62-1.74 3-3.01 4.18.82 1.97 1.7 3.92 2.76 5.78-1.63-.71-2.63-2.24-3.76-3.53l-3.38-.3c-1.86-.73-3.65-1.63-5.36-2.65l-3.65-4z"/><path fill="#6f6b68" opacity=".98" d="M300.29 268.16l1.39.18c.07 2.75 1.58 6.14-.72 8.32-2.27-2.27-.62-5.69-.67-8.5z"/><path fill="#363530" d="M190.67 271.98c1.31-1.82 3.37-2.65 5.56-2.69 5.17 5.43 8.24 12.38 11.59 18.99 1.35 3.06 2.81 6.07 4.73 8.82-.08.32-.25.95-.34 1.27-1.83-1.51-3.62-3.06-5.32-4.71-.44-1.9-.94-3.79-1.66-5.6-.97-1.46-1.99-2.87-3-4.3-1.37-4.13-4.01-7.73-7.08-10.77-1.48-.42-2.99-.65-4.48-1.01z"/><path fill="#5d5b57" d="M264.38 273.13c1.69-.23 2.6-1.82 3.81-2.82l-.21 2.76-.55 1.8 3.63.14c-4.85 4.04-12.24 2.13-17.18 6.06l-2.66 1.55c-1.78-1.36-3.34-3.49-5.79-3.48l2.21-1.69a57.7 57.7 0 0 0-2.72-2.24l3.38.3c1.13 1.29 2.13 2.82 3.76 3.53l1.56.16-.33-3.26c3.69-.97 7.34-2.09 11.09-2.81z"/><path fill="#434544" d="M186.47 295.21c-.62-8.12-3.31-16.22-1.79-24.39.09 2.41-.09 5.05 1.39 7.12 2.55 3.91 5.17 7.91 8.89 10.82-1.08 3.39.11 6.73.87 10.03l-.92 2.11a194.01 194.01 0 0 0-4.8.4c-.12 3.21-.2 6.44.03 9.66-1.38-2.72-.46-5.86-1.06-8.73-1.05-2.28-2.53-4.43-2.61-7.02z"/><path fill="#5b5955" d="M285.23 282.18c2.84-3.27 6.32-5.88 9.44-8.85 1.83 2.49 3.6 5.04 4.99 7.81.68 2.84 1.22 5.71 1.61 8.6l-.25 1.68c-1.53-.08-3.06-.22-4.57-.38l-.87-.09c-2.63-1.59-5.54-2.55-8.5-3.26 3.06-2.03 7.74-2.14 9.15-6.06l-2.36-.4 1.83-5.41c-2.32.42-4.66 1.65-5.62 3.93-1.39 3.01-2.96 6.11-5.62 8.2-2.5.8-3.81-2.07-5.55-3.27 2.17-.61 4.9-.45 6.32-2.5z"/><path fill="#404241" d="M253.88 281.07c5.51-.33 10.89-1.62 16.11-3.37a12.44 12.44 0 0 1 3.27.97c.93 1.45.82 4.06-1.25 4.43-5.39 1.4-10.89 2.39-16.24 4.01-2.6.43-5.31.73-7.61 2.11-3.58 2.6-8.23 1.76-12.18.62-2.75-.73-6.14-1.16-8.54.65-1.89 3.89-1.04 8.95-4.27 12.19-3.19.64-6.03 2.39-9.25 2.92.04-1.79 1.04-3.27 2.06-4.66 3.49-.39 6.39-2.51 8.69-5.03l-.5-2.75c-1.21 1.22-2.45 2.5-4.1 3.11 1.25-5.04 5.29-9.06 9.94-11.12 3.68.15 6.15 3.2 9.17 4.87 2.26.77 4.67.2 6.97-.06a69.56 69.56 0 0 0-.06-4.57c-2.39.14-4.82.32-7.13-.41 1.43-2.31 3.77-3.78 5.88-5.41l.59-.43c2.45-.01 4.01 2.12 5.79 3.48l2.66-1.55z"/><path fill="#7f7c7b" d="M299.66 281.14l2.34-2.3c1.6 5.65 1.91 11.61 2.13 17.45l-1.88-.59c-.51-1.96-.69-3.97-.98-5.96-.39-2.89-.93-5.76-1.61-8.6z"/><path fill="#545656" d="M198.48 285.43l6.64 6.48.11-3.85c.72 1.81 1.22 3.7 1.66 5.6l-3.11 3.34-3.71-.74c1.27 1.76 2.54 3.68 4.66 4.5 1.04-.62 2-1.48 3.21-1.74 1.28.46 2.36 1.32 3.51 2.05l-.44 3.75 2.27-3.66 2.7-.22c-1.02 1.39-2.02 2.87-2.06 4.66-1.29 5.83-7.95 7-12.94 7.69 3.37 2.24 7.97 2.06 11.46.18 2.44-1.98 3.38-5.29 5.92-7.18-.06 2.62-.38 5.25-1.21 7.76-1.17 3.43-.84 7.09-1.19 10.64l-1.38.81-3.62-4.74c-2.67.85-5.21 2.13-7.98 2.59-2.82-.19-5.55-1.82-7.27-4.03-.54-2.16.26-4.81-1.39-6.56-.8-1.21-2.26-.04-3.28.12l-.9-1.92c-.23-3.22-.15-6.45-.03-9.66l4.8-.4.92-2.11c-.76-3.3-1.95-6.64-.87-10.03 1.19-1.09 2.36-2.2 3.52-3.33z"/><path fill="#020201" opacity=".74" d="M255.77 287.11c4.95.56 9.82-.82 14.75-.77l1.27 1c1.03 3.81-.46 7.87.85 11.63l1.16 3.06c.22 7.02 1.25 14.04 2.87 20.87.59 1.96 1.12 3.94 1.33 5.99l.11 1.89c.06 2.28.28 4.55.55 6.82.75 3.87-2.03 7.92.55 11.46-.56 3.48-1.35 7.04-.63 10.57.67 3.5.85 7.05.68 10.6l-2.18-.34c-.75-2.59-.29-5.3-.1-7.92.48-4.61.49-9.27-.04-13.88-.49-3.57-.12-7.24-1.17-10.73-.94-3.08.66-6.18.41-9.29-.34-4.32-1.25-8.57-2.22-12.78-1.9-9.32-3.2-18.75-3.97-28.22-7.28.7-14.66.53-21.83 2.15 2.3-1.38 5.01-1.68 7.61-2.11z"/><path fill="#010101" opacity=".73" d="M227.44 290.49c2.4-1.81 5.79-1.38 8.54-.65-2.95-.09-6.12 1-7.91 3.44-.81 4.49-1.97 8.93-2.09 13.52-1.86 3.36-5.69 5.17-8.08 8.18-2.84 2.64 1.75 7.57-1.94 9.71.35-3.55.02-7.21 1.19-10.64.83-2.51 1.15-5.14 1.21-7.76 1.66-1.14 3.35-2.23 4.81-3.61 3.23-3.24 2.38-8.3 4.27-12.19z"/><path fill="#5f615f" d="M301.27 289.74l.98 5.96 1.88.59-.02.88-.02.77c-1.23.16-2.09.8-2.58 1.92l-6.12.77c-1.1 2.74.93 5.13 1.99 7.53-1.93 4.63 1.03 9.17.7 13.87-6.33-2.11-13.49-3.67-19.85-.83l-1.56 1.7c-1.62-6.83-2.65-13.85-2.87-20.87 6.82-1.7 13.87-2.14 20.77-3.43 2.25-1.74 2.46-4.97 1.88-7.56 1.51.16 3.04.3 4.57.38l.25-1.68z"/><path fill="#84857b" d="M274.33 293.92c2.85-.9 5.72-2.46 8.81-1.87 4.16.54 8.63 1.16 12.44-1.1l.87.09c.58 2.59.37 5.82-1.88 7.56-6.9 1.29-13.95 1.73-20.77 3.43l-1.16-3.06.69-2.04 2.18-.92-1.18-2.09z"/><path fill="#6e7074" d="M203.78 297l3.11-3.34 5.32 4.71-.76 2.7c-1.15-.73-2.23-1.59-3.51-2.05-1.21.26-2.17 1.12-3.21 1.74-2.12-.82-3.39-2.74-4.66-4.5l3.71.74z"/><path fill="#7f7a76" opacity=".97" d="M301.51 299.86c.49-1.12 1.35-1.76 2.58-1.92l.09 2.83c-.44 1.9-2.37.06-2.67-.91z"/><path fill="#4b4b4b" d="M304.09 297.94c1.6 8.07-.3 16.26-.61 24.36l-1.18.8c-1.42-.32-2.82-.69-4.22-1.07.33-4.7-2.63-9.24-.7-13.87-1.06-2.4-3.09-4.79-1.99-7.53 2.03-.29 4.07-.55 6.12-.77.3.97 2.23 2.81 2.67.91l-.09-2.83z"/><path fill="#9f725a" d="M213.92 305.6c3.22-.53 6.06-2.28 9.25-2.92-1.46 1.38-3.15 2.47-4.81 3.61-2.54 1.89-3.48 5.2-5.92 7.18-3.49 1.88-8.09 2.06-11.46-.18 4.99-.69 11.65-1.86 12.94-7.69z"/><path fill="#747573" d="M191.04 312.88c1.02-.16 2.48-1.33 3.28-.12 1.65 1.75.85 4.4 1.39 6.56 1.72 2.21 4.45 3.84 7.27 4.03 2.77-.46 5.31-1.74 7.98-2.59l3.62 4.74-.67.39c-4.32-.07-8.64-.21-12.96-.13-1.59-.09-3.05.57-4.48 1.18-1.75-1.74-3.57-3.41-5.15-5.3.24-2.92.83-5.96-.28-8.76z"/><path fill="#6e7069" d="M278.23 321.2c6.36-2.84 13.52-1.28 19.85.83 1.4.38 2.8.75 4.22 1.07l-.36.75c-2.35 4.9-1.56 10.58-2.9 15.76a185.49 185.49 0 0 1-6.23-.72c3.5-4.44 5.27-10.03 5.01-15.67-5.9-.42-11.78-1.4-17.7-1.16a30.87 30.87 0 0 0-1.21 3.06c.38 1.39 1.06 2.68 1.67 3.99l-2.58-.22c-.21-2.05-.74-4.03-1.33-5.99l1.56-1.7z"/><path fill="#868880" d="M280.12 322.06c5.92-.24 11.8.74 17.7 1.16.26 5.64-1.51 11.23-5.01 15.67-3.92-.09-8.05 1.3-11.85.16-1.87-2.22-2.01-5.53-2.85-8.27-.02-.47-.08-1.42-.11-1.89l2.58.22c-.61-1.31-1.29-2.6-1.67-3.99a30.87 30.87 0 0 1 1.21-3.06z"/><path fill="#484746" d="M299.04 339.61c1.34-5.18.55-10.86 2.9-15.76-.48 5.18-1.38 10.31-1.68 15.5-.18 2.46 2.36 3.94 3.08 6.15 1.55 4.7 1.23 9.71 1.53 14.59-1.32-4.18-.89-8.64-1.88-12.88a3.31 3.31 0 0 0-1.78-2.28c.57 6.46 2.31 12.76 2.51 19.27l-3.57-2.25-2.22-3.24c-2.8 1.81-1.89 5.45-2 8.27.24 3.66-.08 7.31-.72 10.91l-1.64-.51c-.26-1.85-.07-3.73-.51-5.55l-.27-.69c1.38-4.57.78-9.41 1.61-14.06.7-3.74-.57-7.71 1.32-11.22-1.61-2.06-4.35-4.04-2.91-6.97a185.49 185.49 0 0 0 6.23.72z"/><path fill="#525454" d="M196.47 326.94c1.43-.61 2.89-1.27 4.48-1.18 4.32-.08 8.64.06 12.96.13-1.14 1.14-2.25 2.32-3.49 3.35-4.14-.48-8.31-.43-12.47-.27l-1.48-2.03z"/><path fill="#64625f" opacity=".88" d="M197.95 328.97c4.16-.16 8.33-.21 12.47.27-2.63 2.15-6.14 2.18-9.32 1.67-1.39.01-2.33-.97-3.15-1.94z"/><path fill="#626361" d="M278.11 330.78c.84 2.74.98 6.05 2.85 8.27 3.8 1.14 7.93-.25 11.85-.16-1.44 2.93 1.3 4.91 2.91 6.97-1.89 3.51-.62 7.48-1.32 11.22-.83 4.65-.23 9.49-1.61 14.06-2.01-4.07-1.48-8.73-1.18-13.09l1.35-.88c-3.91.18-7.82-.09-11.63-.98 1.29 3.83 3.29 8.02 1.11 11.93-1.77-3.62-.69-7.68-2.13-11.35-.95-2.49 0-5.27-1.1-7.71-2.58-3.54.2-7.59-.55-11.46-.27-2.27-.49-4.54-.55-6.82m5.08 20.82c2.66 1.46 5.74 1.41 8.68 1.14.05-1.32.63-2.95-.81-3.76-1.82-1.61-4.34-.86-6.45-.43-1.44.2-1.1 2.03-1.42 3.05z"/><path fill="#605d5a" opacity=".98" d="M301.21 344.93a3.31 3.31 0 0 1 1.78 2.28c.99 4.24.56 8.7 1.88 12.88.76 1.64 1.87 3.13 2.4 4.89-.21 1.53-.88 2.95-1.43 4.4-.94-1.63-1.71-3.35-2.12-5.18-.2-6.51-1.94-12.81-2.51-19.27z"/><path fill="#98979a" d="M283.19 351.6c.32-1.02-.02-2.85 1.42-3.05 2.11-.43 4.63-1.18 6.45.43 1.44.81.86 2.44.81 3.76-2.94.27-6.02.32-8.68-1.14z"/><path fill="#404240" d="M279.21 349.06c1.1 2.44.15 5.22 1.1 7.71 1.44 3.67.36 7.73 2.13 11.35.1 2.49-.02 5.01-.95 7.35-1.35 3.12-.25 6.49.48 9.61l-2.72-.3c-.19-4.85.13-9.7.01-14.55.17-3.55-.01-7.1-.68-10.6-.72-3.53.07-7.09.63-10.57z"/><path fill="#737679" d="M281.33 356.19c3.81.89 7.72 1.16 11.63.98l-1.35.88h-2.88l.25 1.28c-1.89 2.19-1.61 5.12-1.9 7.8-.09 1.84-2.03 2.92-2.32 4.65.53 2.68 2.98 4.26 5.12 5.63-.1 2.51-.16 5.04-.43 7.54l-2.58.47-4.9-.34c-.73-3.12-1.83-6.49-.48-9.61.93-2.34 1.05-4.86.95-7.35 2.18-3.91.18-8.1-1.11-11.93m4.92 24.18c-1.22 1.56 1.7 2.69 2.64 1.45 1.22-1.58-1.71-2.7-2.64-1.45z"/><path fill="#9c9b9f" d="M288.73 358.05h2.88c-.3 4.36-.83 9.02 1.18 13.09l.27.69-3.18 5.58c-2.14-1.37-4.59-2.95-5.12-5.63.29-1.73 2.23-2.81 2.32-4.65.29-2.68.01-5.61 1.9-7.8l-.25-1.28z"/><path fill="#3d3c3a" d="M295.93 366.98c.11-2.82-.8-6.46 2-8.27l2.22 3.24 1.57 3.94c-.68 2.8-1.77 5.47-2.71 8.2.06 1.7 1.98 2.7 2.9 4.03l1.15 1.26-1.74 4.95-.16.58-.89.35c-1.81-.14-3.57-.58-5.13-1.49l.07-5.88c.64-3.6.96-7.25.72-10.91z"/><path fill="#504d48" d="M299.01 374.09l2.71-8.2c1.55 3.34 4.31 6.29 4.53 10.13.25 2.69.25 5.39.3 8.1-1.74-.27-3.54-.32-5.23.21.48-1.69 1.1-3.33 1.74-4.95.66-1.65 1.05-3.38 1.31-5.12l-2.39-1.33-.07 5.19c-.92-1.33-2.84-2.33-2.9-4.03z"/><path fill="#53555a" d="M289.88 377.41l3.18-5.58c.44 1.82.25 3.7.51 5.55l1.64.51-.07 5.88c1.56.91 3.32 1.35 5.13 1.49-4.23 1.82-9.1 1.62-13.4.16l2.58-.47c.27-2.5.33-5.03.43-7.54z"/><path fill="#65605a" d="M301.98 372.93l2.39 1.33c-.26 1.74-.65 3.47-1.31 5.12l-1.15-1.26.07-5.19z"/><path fill="#a7a5a9" d="M286.25 380.37c.93-1.25 3.86-.13 2.64 1.45-.94 1.24-3.86.11-2.64-1.45z"/><path fill="#666463" opacity=".93" d="M301.32 384.33c1.69-.53 3.49-.48 5.23-.21v.53c-1.58 1.15-3.64.63-5.39.26l.16-.58z"/></svg>