<svg xmlns="http://www.w3.org/2000/svg" width="682.667" height="682.667" viewBox="0 0 512 512"  xmlns:v="https://vecta.io/nano"><path fill="#787979" opacity=".98" d="M261.99 156.02c.76-.86 1.39-2.79 2.91-2.12 2.4.32 4.2 2.04 5.12 4.21l-8.03-2.09z"/><path fill="#585755" d="M257.83 156.68l4.16-.66c2.71.55 5.37 1.32 8.03 2.09l1.17 2.17-.76 2.14c-2.83.76-5.29 2.32-7.68 3.93-2.1.27-3.98-1.5-5.82-2.36l3.04-4.93-2.14-2.38z"/><path fill="#62625f" d="M247.79 162.73c2.92-2.6 6.03-5.41 10.04-6.05l2.14 2.38-3.04 4.93c1.84.86 3.72 2.63 5.82 2.36 2.39-1.61 4.85-3.17 7.68-3.93l.76-2.14 2.99.61 1.89 2.28c-.75 1.91-2.1 3.68-4.23 4.06-5 1.29-10.53 2.46-13.87 6.78-2.74 1.85-6.78 2.58-7.88 6.11l-.37.72a34.41 34.41 0 0 0-3.44 1.25c.84-1.96 1.9-4.06 1.02-6.2-.96-2.43-2.67-4.51-5.23-5.3 2.63-2.07 3.24-5.67 5.72-7.86z"/><path fill="#474745" d="M274.18 160.89l2.49.58c.5 3.58-2 6.49-4.27 8.91-.9-1.34-3.64-2.13-4.19-.08.29 1.77 2.61.97 3.72.58l-3.73 2.31c-3.41-1.39-6.98-.52-10.23.82 3.34-4.32 8.87-5.49 13.87-6.78 2.13-.38 3.48-2.15 4.23-4.06l-1.89-2.28z"/><path fill="#6b6b6d" d="M268.21 170.3c.55-2.05 3.29-1.26 4.19.08l-.47.5c-1.11.39-3.43 1.19-3.72-.58z"/><path fill="#d5a183" d="M220.12 185.19a843.72 843.72 0 0 0 21.95-14.6c2.56.79 4.27 2.87 5.23 5.3-2.94 5.66-8.31 9.3-12.73 13.68-4.13 3.84-6.93 9.02-11.73 12.14-.92.69-2.11.55-3.17.7l-.39-.82c-.42-.93-.8-1.88-1.15-2.84-2.52-.73-5.15-.79-7.71-1.27-1.08-.85-1.33-2.24-1.8-3.44 3.84-2.95 8.16-5.28 11.5-8.85z"/><path fill="#4e4d52" d="M332.94 174.95c1.59-1.54 3.13-3.27 5.21-4.16 1.79-.45 3.67-.19 5.46.2l.5 1.6c-4.51 1.17-6.94 5.38-10.15 8.37-3.6 3.42-7.21 6.83-10.65 10.41-1.28 1.45-3.15 2.04-4.92 2.64-.47 1.69-.81 3.41-1.15 5.13l-1.13 1.92c-4.36.17-6.12 4.64-9.42 6.7-1.89.23-3.79.13-5.68.11l1.38-1.01a83.22 83.22 0 0 1 3.16 0l-1.32-2.15c.45-1.54.88-3.09 1.28-4.65 3.12.56 6.32.26 9.31-.77.66-2.39 1.03-4.86.94-7.34l-.24-4.66-.06-1.37c-2.39-.83-4.95-.76-7.43-.91 2.3-2.86 6.31-2.74 9.47-1.56.58 1.48 1.2 2.94 1.85 4.39 1.79-.48 2.94-2 4.18-3.26 3.03-3.32 6.29-6.41 9.41-9.63z"/><path fill="#252525" opacity=".76" d="M257.97 174.01c3.25-1.34 6.82-2.21 10.23-.82-2.49 2.44-6.17.26-8.95 1.92-3.07 1.63-5.96 3.61-9.16 5.01 1.1-3.53 5.14-4.26 7.88-6.11z"/><path fill="#82857f" d="M333.96 180.96c3.21-2.99 5.64-7.2 10.15-8.37l.26.89c-.84.74-1.7 1.45-2.57 2.15-2.65 1.6-5.34 3.61-6.48 6.6-.27 1.57-.33 3.16-.45 4.74-2.47.35-5.51-.56-7.34 1.59-3.59 3.38-6.34 7.57-10.29 10.58.34-1.72.68-3.44 1.15-5.13 1.77-.6 3.64-1.19 4.92-2.64 3.44-3.58 7.05-6.99 10.65-10.41z"/><path fill="#949a86" d="M341.8 175.63l2.57-2.15 1.47.81c1.24 3.63 1.43 7.82-.59 11.21l-2.8-2.93c.58-1.96 1.23-3.91 2.21-5.71l-2.86-1.23z"/><path fill="#47464b" d="M345.84 174.29l1.18.8c.94 5.89 3.32 11.52 3.09 17.58l-.85-.09a48.22 48.22 0 0 0-.24-6.69c-2.85-.86-4.47 2.21-6.45 3.67l-1.44.28c-.28-1.2-.75-2.37-.73-3.61.29-1.4 1.38-2.44 2.05-3.66l2.8 2.93c2.02-3.39 1.83-7.58.59-11.21z"/><path fill="#b4876c" d="M247.3 175.89c.88 2.14-.18 4.24-1.02 6.2l-2.49 1.64c-2.58 1.39-4.63 3.48-6.02 6.05-3.23 3.49-6.79 6.8-8.85 11.17-1.69 1.39-3.31 2.84-4.94 4.3-1.39.53-2.92.74-4.2-.18l-.11-2.66c1.06-.15 2.25-.01 3.17-.7 4.8-3.12 7.6-8.3 11.73-12.14 4.42-4.38 9.79-8.02 12.73-13.68z"/><path fill="#a4ac91" d="M335.32 182.23c1.14-2.99 3.83-5 6.48-6.6l2.86 1.23c-.98 1.8-1.63 3.75-2.21 5.71-.67 1.22-1.76 2.26-2.05 3.66-.02 1.24.45 2.41.73 3.61-1.78 1.25-3.18 2.96-4.83 4.38l-1.54-4.3c-3.42-1.17-5.51 2.21-7.67 4.18-1.93 2.07-4.4 3.65-5.95 6.03-.83 2.38-.95 4.92-1.72 7.31-.77 1.5-3.01 2.85-4.47 1.44-1.02-2.69.28-5.31 1.16-7.82l1.13-1.92c3.95-3.01 6.7-7.2 10.29-10.58 1.83-2.15 4.87-1.24 7.34-1.59.12-1.58.18-3.17.45-4.74z"/><path opacity=".76" d="M251.04 181.84c3.96-1.75 7.63-4.56 12.06-4.98 2.16-.43 2.94 1.86 3.91 3.27.86 1.64 2.53 2.54 4.02 3.51-1.95.65-4.37 1.19-4.81 3.56l-.45 1.8-2.65.19a71.4 71.4 0 0 1-2.04-2.25c-1.27-1.6-2.77-3.49-5.09-3.01-2.44-.23-3.81 1.96-5.29 3.48a97.71 97.71 0 0 1-3.82-.58c1.48-1.59 2.75-3.34 4.16-4.99z"/><path opacity=".05" d="M246.28 182.09a34.41 34.41 0 0 1 3.44-1.25l1.32 1-4.16 4.99c-1.4.97-2.77 1.99-3.82 3.34-3.73 4.71-9.1 7.7-14.14 10.78 2.06-4.37 5.62-7.68 8.85-11.17a22.36 22.36 0 0 0 6.02-6.05c.81-.57 1.64-1.12 2.49-1.64z"/><path fill="#574133" opacity=".71" d="M237.77 189.78c1.39-2.57 3.44-4.66 6.02-6.05a22.36 22.36 0 0 1-6.02 6.05z"/><path fill="#4c533d" d="M250.7 187.41c1.48-1.52 2.85-3.71 5.29-3.48 2.32-.48 3.82 1.41 5.09 3.01l-.6 1.09-3.65-.69-.63-.09a26.28 26.28 0 0 0-4.06-.18l-.55 3.44c-2.23-.38-4.5-.58-6.76-.39l-.82.03-.95.02c1.05-1.35 2.42-2.37 3.82-3.34l3.82.58z"/><path fill="#4a4a44" d="M266.22 187.2c.44-2.37 2.86-2.91 4.81-3.56 1.83 1.11 3.5 2.47 5.31 3.61 2.04.29 4.11-.12 6.16.16 3.1 1.6 1.88 5.61 2.51 8.41l6.85 2.35-6.75-.74.18 3.18c2.45.98 5.18 1.26 7.52 2.52 2.67 1.7 2.4 5.14 2.68 7.89l-.59.6-.63.64-.01.87 2.43 2.01 2.47 2.54.62.54 4.53 3.8c-.71 1.61-1.82 2.97-3.04 4.23-1.25 1.09-.25 3.53-1.99 4.2-2.16 1.11-3.78-1.44-4.75-3-.73-2.59-.3-5.36-.75-8l-.7-.54c-1.47-.5-3.01-.68-4.54-.62l-2.71 4c-.7-2.92-1.02-5.91-1.4-8.89-.45-3.23-2.51-5.87-4.24-8.52l1.77-.51-2.11-1.13 2.49-.85 1.07-10.13c-.79-1.65-2.71-2.04-4.33-2.31-1.34-.18-2.47.28-3.38 1.4-1.1-1.62-2.28-3.34-4.24-3.94l-4.47-.23-.77.02m18.1 16.13c-1.3 1.4 1.1 3.43 2.42 2.25 1.33-1.37-1.12-3.54-2.42-2.25z"/><path fill="#625c57" d="M209.18 192.23c3.64-2.35 6.88-5.36 10.94-7.04-3.34 3.57-7.66 5.9-11.5 8.85.47 1.2.72 2.59 1.8 3.44 2.56.48 5.19.54 7.71 1.27.35.96.73 1.91 1.15 2.84-1.68.51-3.43.9-5 1.72-1.73 2.84-1.47 6.58-3.82 9.13-2.92 3.4-5.12 8.1-9.65 9.55-.11-3.4 3.05-5.63 4.34-8.57l-2.22.37c2.01-3.4 3.82-7.07 7.44-9.05-1.5-1.67-3.52-.27-5.19.28l-3.02-1.08c2.2-2.69 5.67-.63 8.5-1.16 1.33-.77 1.58-2.39 2.1-3.69-3.71-1.29-7.62-.66-11.4-.11a72.96 72.96 0 0 1 .48-2.96c2.1-1.87 5.04-2.25 7.34-3.79m-4.94 5.03v.45h.45v-.45h-.45z"/><path fill="#68686b" d="M308.03 185.01c2.48.15 5.04.08 7.43.91l.06 1.37c-2.02-.85-4.12-1.56-6.33-1.1 0 1.73.13 3.46.38 5.17l6.19.59c.09 2.48-.28 4.95-.94 7.34-2.99 1.03-6.19 1.33-9.31.77l-1.6-2.85c1.84-1.19 2.75-3.1 3.27-5.16l.92-1.15-.52-.66-.8-.07c.01-1.8.03-3.7 1.25-5.16m3.2 11.27l-.37.84.32.82.82.32.85-.37.37-.84-.32-.82-.83-.31-.84.36z"/><path fill="#ffdb46" d="M309.19 186.19c2.21-.46 4.31.25 6.33 1.1l.24 4.66-6.19-.59c-.25-1.71-.38-3.44-.38-5.17z"/><path fill="#999f8c" d="M342.57 189.56c1.98-1.46 3.6-4.53 6.45-3.67a48.22 48.22 0 0 1 .24 6.69c-2.76-.47-5.28.57-7.5 2.12-1.08-1.76-.06-3.55.81-5.14z"/><path fill="#63667c" d="M252.14 187.07a26.28 26.28 0 0 1 4.06.18l.63.09 3.65.69-2.47 3.68c-.81.53-2.4 1.53-1.39 2.64 1.55 1.39 3.11-1.04 2.19-2.45 2.03.24 4.08.31 6.14.36l.82-3.26.45-1.8.77-.02.31 2.48 4.52.48-.36-2.73c1.96.6 3.14 2.32 4.24 3.94.81 2.85 4.05 1 3.38-1.4 1.62.27 3.54.66 4.33 2.31-.27 3.38-.67 6.76-1.07 10.13l-2.49.85c-3.52-.95-6.73-2.69-9.91-4.44-1.06-1.87-1.97-3.82-2.92-5.74l-1.62.18a109.79 109.79 0 0 0-.43 3.17c-1.79-.07-3.6.03-5.3.66-3.6 1.22-7.96 2.02-9.77 5.82l-3.52.72c-1.16-1.05-1.74-2.47-1.96-3.99l-.12-.55-.58-2.89c-.36-1.99-.55-4-.66-6.01l.95-.02c-.05.44-.17 1.33-.23 1.78.88 2.04 2.16-.98 1.05-1.81 2.26-.19 4.53.01 6.76.39l.55-3.44m4.13 2.21v.46h.45v-.46h-.45z"/><path d="M256.2 187.25l.63.09-.63-.09zm19.06 16.02h.46v.46h-.46v-.46zm-12.03 24.05l.45-.01v.46h-.45v-.45z" fill="#fff"/><path fill="#2f3039" d="M261.08 186.94l2.04 2.25 2.65-.19-.82 3.26-6.14-.36-.8-.19c.89-1.18 1.7-2.42 2.47-3.68l.6-1.09z"/><path fill="#787b8d" d="M266.99 187.18l4.47.23.36 2.73-4.52-.48-.31-2.48z"/><path fill="#adabb9" d="M256.27 189.28h.45v.46h-.45v-.46z"/><path fill="#010101" opacity=".76" d="M228.92 200.95c5.04-3.08 10.41-6.07 14.14-10.78.11 2.01.3 4.02.66 6.01-1.23 2.04-2.57 4.01-3.93 5.96.99 1.59 2.1 3.1 3.31 4.54-1.98-.99-3.92-2.17-6.12-2.6-2.51.7-4.71 2.19-7.2 2.96-2.15.55-4.1-.64-5.8-1.79l4.94-4.3z"/><path fill="#9c9ea2" d="M244.01 190.15l.82-.03c1.11.83-.17 3.85-1.05 1.81l.23-1.78z"/><path fill="#999cab" d="M275.7 191.35c.91-1.12 2.04-1.58 3.38-1.4.67 2.4-2.57 4.25-3.38 1.4z"/><path fill="#96959b" opacity=".93" d="M306.78 190.17l.8.07.52.66-.92 1.15-.4-1.88z"/><path fill="#5f5e65" d="M327.09 194.1c2.16-1.97 4.25-5.35 7.67-4.18l1.54 4.3c-.66 1.12-1.23 2.29-1.81 3.46l-.71 1.26c-3.4 2.9-6.06 6.56-9.69 9.22-2.07 1.47-3 3.87-3.8 6.18-1.42 1.57-2.91 3.07-4.37 4.61-1.44-.41-3.58-.01-4.52-1.31.39-3.15 1.2-6.23 1.73-9.36l1.82.6c1.46 1.41 3.7.06 4.47-1.44.77-2.39.89-4.93 1.72-7.31 1.55-2.38 4.02-3.96 5.95-6.03z"/><path fill="#6b6b6f" d="M336.3 194.22c1.65-1.42 3.05-3.13 4.83-4.38l1.44-.28c-.87 1.59-1.89 3.38-.81 5.14 2.22-1.55 4.74-2.59 7.5-2.12l.85.09 3.47.65c.31 2.22.58 4.46 1.23 6.62.3 1.47 1.45 3.04.75 4.56-2.21 3.27-5.69 5.46-9.44 6.53-5.85 2.07-8.1 8.48-9.53 13.96l-.73-.39c.98-3.38 1.65-7.03 3.96-9.82 1.23-1.54 2.37-3.15 3.12-4.99l.65-1.36c1.42-.28 2.87-.47 4.31-.67l-2.37-3.87c.99-2.11 5.64-1.62 4.23-4.66-3.06-.7-5.21 1.49-6.76 3.81.3-2.13 1.26-4.07 1.93-6.1-1.7.32-2.84 1.66-3.87 2.93-.48-1.55-1.05-3.09-2.02-4.39-1.55.66-3.09 1.36-4.55 2.2.58-1.17 1.15-2.34 1.81-3.46m10.01 1.98c-1.23 1.43 1.38 2.47 2.2 1.22 1.35-1.44-1.39-2.57-2.2-1.22z"/><path fill="#a3a5b0" d="M256.62 194.35c-1.01-1.11.58-2.11 1.39-2.64l.8.19c.92 1.41-.64 3.84-2.19 2.45z"/><path fill="#acaab1" d="M265.4 193.24l1.62-.18a47.22 47.22 0 0 1-.73 5.3c-2.31.66-4.94.68-6.62-1.29 1.7-.63 3.51-.73 5.3-.66l.43-3.17z"/><path fill="#696968" d="M267.02 193.06l2.92 5.74c-.73 3.9-1.59 8.23.38 11.91l2.24-.02c.65-1.74 1.21-3.51 1.99-5.2 1.5-1.59 3.77-.92 5.64-.61 1.73 2.65 3.79 5.29 4.24 8.52.38 2.98.7 5.97 1.4 8.89-.17.25-.53.73-.7.98l-2.13-3.24c-.08 1.87-.55 3.83.2 5.63l3.32.83-.2 1.66c-2.37-1.11-4.82.28-7.13.81.47-4.37-.64-8.67-.95-13-.26-1.97-.17-4.08-1.22-5.83-1.13.84-2.22 1.73-3.39 2.51-1.9.9-3.98.04-5.91-.24l1.34-1.44-.15-.95c-5.76-.78-11.56-.36-17.34-.31-.66-1.84-1.45-3.63-2.6-5.21l.93-1.6c1.81-3.8 6.17-4.6 9.77-5.82 1.68 1.97 4.31 1.95 6.62 1.29a47.22 47.22 0 0 0 .73-5.3z"/><path fill="#474947" d="M189.06 206c4.86-2.48 8.6-6.56 12.78-9.98a72.96 72.96 0 0 0-.48 2.96c3.78-.55 7.69-1.18 11.4.11-.52 1.3-.77 2.92-2.1 3.69-2.83.53-6.3-1.53-8.5 1.16-2.6 3.5-5.2 7-7.62 10.63-1.25 1.76-1.44 3.93-1.93 5.97-2.78 2.51-1.84 6.41-2.06 9.73-2.3-2.72-2.38-6.51-4.49-9.33-1.05-1.64-2.4-3.21-2.68-5.2-.34-1.74.66-3.31 1.39-4.8l-.07.88c-.19 2.61-.15 5.34 1.38 7.6.78-1.49 1.49-3 2.17-4.53 1-1.91 2.13-3.76 2.77-5.82l-1.96-3.07z"/><path fill="#575755" d="M239.79 202.14l3.93-5.96.58 2.89.12.55c.22 1.52.8 2.94 1.96 3.99l3.52-.72-.93 1.6c-1.58 1.95-3.36 3.79-4.44 6.09-2.12 4.1-2.45 8.81-2.49 13.35-.16 3.83 2.04 7.23 2.02 11.04.05 3.33.46 6.65.95 9.95-1.58-.96-3.75-1.64-4.29-3.62-.78-3.22-.79-6.56-1.33-9.82-.27-1.64-.61-3.27-.98-4.88-2.29-.07-4.6-.17-6.81-.81.77-1.6 1.4-3.28 2.5-4.7 2.98-3.82 5.4-8.02 7.96-12.13-1.74.52-3.69.76-5.08 2.04-3.13 2.88-5.8 6.23-8.17 9.75-1.42 2.02-2.86 4.02-4.09 6.17l-1.81-2.04c1.49-2.86 3.46-5.45 5.6-7.85 1.25-1.76 3.82-3.39 3.35-5.78-4.6-.2-9.14-.93-13.6-2.07-3.07 2.92-4.49 6.99-6.37 10.68-1.46 1.26-3.31 1.99-4.7 3.33-1.64 2.15-2.63 4.96-2.07 7.68.56 3.55 2.73 6.55 4.59 9.54-4.9-.17-8.35-3.74-11.86-6.67l.29-3.5c2.15-1.14 4.7-1.94 5.76-4.35 4.03-7.15 10.62-12.66 13.44-20.49l2.44-.33c1.28.92 2.81.71 4.2.18 1.7 1.15 3.65 2.34 5.8 1.79 2.49-.77 4.69-2.26 7.2-2.96 2.2.43 4.14 1.61 6.12 2.6-1.21-1.44-2.32-2.95-3.31-4.54m-36.34 31.12l.01.46.45-.01v-.45h-.46z"/><path fill="#99989e" d="M311.23 196.28l.84-.36.83.31.32.82-.37.84-.85.37-.82-.32-.32-.82.37-.84z"/><path fill="#9ea48d" d="M334.49 197.68c1.46-.84 3-1.54 4.55-2.2.97 1.3 1.54 2.84 2.02 4.39l-1.2 2.06c-1.36 2.35-1.33 5.1-.89 7.7l3.97.16c-.75 1.84-1.89 3.45-3.12 4.99-2.31 2.79-2.98 6.44-3.96 9.82l-.91 2.63c-2.53-.02-1.14-2.93-1.4-4.5-1.12-.07-2.24-.07-3.35 0-1.84 1.32-1.48 4.59-3.92 5.21-.17-3.56.46-7.18-.31-10.69l-1.06-1.31c-1.82 1.13-3.35 2.62-4.78 4.2-2.22 2.49-5.08 4.46-6.61 7.5-1.53 2.08-3.43 3.84-5.48 5.4-.49-1.34-.96-2.68-1.28-4.06l-.23-2.67c4.19-.91 6.7-4.37 9.39-7.36l4.37-4.61c1.75-1.69 3.21-3.7 5.22-5.1l1.79 3.06c.75-1.68.32-3.55.36-5.32l1.95-.51c2.03 2.29 2.92 5.2 2.99 8.22l1.28.32c1.57-1.41 2.77-3.15 3.99-4.85l-3.85 1.41c.68-2.51 1.61-4.97 1.92-7.56-.07-1.89-1.32-3.45-2.16-5.07l.71-1.26m-5.43 21.58l-.41.72.41.72h.82l.4-.72-.41-.72h-.81z"/><path fill="#96959c" d="M346.31 196.2c.81-1.35 3.55-.22 2.2 1.22-.82 1.25-3.43.21-2.2-1.22z"/><path fill="#9e9c9e" d="M204.24 197.26h.45v.45h-.45v-.45z"/><path fill="#8c8c8d" d="M285.11 197.43l6.75.74 4.91 2.05c.63 1.31 1.35 2.6 1.74 4.01.06 2.57-1.11 5.09-3.02 6.79-.28-2.75-.01-6.19-2.68-7.89-2.34-1.26-5.07-1.54-7.52-2.52l-.18-3.18z"/><path opacity=".75" d="M299.47 197.29c1.43-.51 2.97-.1 4.44-.08l1.6 2.85-1.28 4.65 1.32 2.15a83.22 83.22 0 0 0-3.16 0l-1.38 1.01c-1.96 2.08-3.09 4.73-4.32 7.27l-2.43-2.01 1.45-.32-.14-.78-.67-.41.59-.6c1.91-1.7 3.08-4.22 3.02-6.79-.39-1.41-1.11-2.7-1.74-4.01l2.7-2.93z"/><path fill="#4d4e51" d="M341.06 199.87c1.03-1.27 2.17-2.61 3.87-2.93-.67 2.03-1.63 3.97-1.93 6.1-.56 1.7.17 4.33-1.98 5-.5-2.02-.86-4.06-1.16-6.11l1.2-2.06z"/><path opacity=".04" d="M354.81 199.94c.68-1.03 1.22-2.78 2.7-1.62.21 2.25.18 4.62 1.53 6.57 1 1.39 1.51 3.82 3.55 3.94l.03-3.96c1.08.68 2.75.82 3.28 2.12-.42 2.98-2.93 4.91-4.81 7 1.75.93 3.41 2.06 4.75 3.54 1.4-3.89 4.62-6.65 7.21-9.75l1.94 1.98-2.72 3.09c.9 1.31 1.73 2.68 2.76 3.9 1.98.92 2.96-1.68 4.18-2.74a64.3 64.3 0 0 1 2.57 2.88l-1.69 2.49c2.59.19 5.26.98 7.78-.06 1.44 1.12 2.71 2.43 3.83 3.87.02 1.61-.79 3.47.08 4.93l5.29-4.61.39-3.32 2.38-.02c.08 2.29-.18 4.58-.45 6.86 2.73.22 5.19-1.09 7.64-2.11 1.17 1.21 2.08 2.64 3.13 3.96 1.11.56 2.38.65 3.58.92 1.26 1.18 1.97 3.72 4.11 2.98-.25-1.23-.63-2.42-1.12-3.56 1.42-.5 2.8-1.15 3.65-2.47 1.31.64 2.59 1.34 3.96 1.87 1.73.13 3.41-.55 5.13-.77 1.21 1.11 2.57 2.21 4.28 2.4 2.35.64 4.81-1.26 7.05.03 3.81 1.95 8.24 2.59 12.46 1.85 1.59-.25 2.58-1.7 3.76-2.66 2.78 1.03 4.58 4.51 7.71 4.23l.36-2.98-3.08-.24.19-3.27c2.21-.82 4.16.37 5.99 1.49l2.86-2.44c1.33.73 2.58 1.6 3.75 2.59l-1.33 2.04c1.31-.09 2.63-.32 3.95-.13 2.41 1.4 4.34 3.69 7.09 4.47 2.44.67 4.91-.14 7.36-.26 1.47.32 2.72 1.24 4.06 1.87l2.63-3.78.18 3.54c1.8.23 3.88.82 5.51-.35 1.67-1.12 2.12-3.23 2.98-4.93 1.61.56 3.2 1.14 4.77 1.83v172.2c-1.62-.51-3.28-.86-4.82-1.56-1.73-1.18-3.04-2.87-4.51-4.33-2.1.06-4.2.61-6.28.31-1.17-.77-2.25-1.66-3.36-2.51l-3.01 1.4-2.38-2.29c-2.69.37-2.69 3.63-3.81 5.56-1.21-.94-2.53-1.89-3.11-3.36-.21-1.48-.12-2.98-.13-4.46-5.09 1-10.26 1.14-15.4 1.78-1.96-2.63-4.51-5.05-8.05-4.73-2.47 1.5-4.07 4.04-6.18 5.97-1.68-.89-2.8-2.43-3.94-3.88-.95.81-1.91 1.62-2.89 2.39-2.18-.86-4.5-1.18-6.83-1.08-1.43-1.57-.79-3.43.15-5.05.83-1.16-.73-1.96-1.3-2.73-1.5 2.6-2.5 5.73-5.25 7.32-1.49-.53-2.92-1.21-4.23-2.09l1.03-2.81-1.56-1.27c-1.4 2.22-.61 5.23-2.32 7.25-.87-2.66-1.61-5.47-3.7-7.46a101.38 101.38 0 0 1-2.17 4.29l-4.97-2.04c-2.06.86-2.16 3.28-2.83 5.1-1.33-.82-2.76-1.72-3.04-3.38 1.06-.4 2.78-.01 3.28-1.31.54-1.59-.45-3.12-1.22-4.43-1.74.86-3.36 2.08-5.25 2.59-2.21-.68-4.48-.54-6.69.06-1.14-1.71-.2-3.64.18-5.42-2.35.25-4.68-.14-6.58-1.61-2.24 1.3-4.35 3.15-7.1 2.92l-.48 2.93-1.99.61-2.53-3.11-1.44 2.25c.78 1.73 1.66 3.41 2.61 5.06-1.33.88-3.21.74-4.59.07-1.3-1.72-2.82-3.19-4.94-3.8.51-2.39 2.86-3.36 4.68-4.62-.99-.81-1.76-2.1-3.07-2.37-1.97.21-3.91.6-5.85.97-2.21.45-3.89 2.31-6.17 2.52l-.96-2.44c-1.14.01-2.27.03-3.39.08l.02-3.51c-1.26.29-2.48.74-3.65 1.26-1.33-.48-2.64-1.52-4.1-.97l-.56 3.53c-1.7-.29-2.83-1.68-4.1-2.71l.29 2.46c-1.39-.18-2.79-.32-4.18-.44l-.86 1.83c.74 2.13 2.51 3.76 3.48 5.82l-1.94.94c-2.64-1.9-5.81-2.56-9.01-2.42a127.75 127.75 0 0 1 2.9 4.49l-1.68.85c-2.04-3.19-4.04-6.64-7.88-7.85l2.57-2.96-1.69-3.74 1.8-2.64c-2.5-1.46-5.4-.26-6.69 2.18 1.17 1.89 3.21 3.72 2.67 6.17-.17 1.45-.52 3.44-2.32 3.58-3.58.78-6.53 3.13-8.91 5.82l3.16.07c-.92 1.54-2.03 3.14-3.9 3.58-2.37-.4-2.45-3.6-1.38-5.25 1.59-2.22 3.93-3.77 5.49-6.02 1.74-2.59 3.14-5.46 3.61-8.57-2.19-.21-4.4-.24-6.59-.13l2.44 4.18c-1.42-.09-2.83-.13-4.22-.39-1.01-.72-1.71-1.76-2.52-2.68-1.2.91-2.34 1.91-3.4 2.97 1.43 2.94 4.62 5.86 3 9.36-3.13.72-6.05-1.12-8.97-1.94-1.58-.24-1.51-2.05-1.31-3.22l5.68-.5c-1.09-2.04-2.64-5.15-5.46-4.36-2.8.64-5.82-.35-8.49.81 2.01 1.64 4.96.97 6.91 2.72-1.1.9-2.12 2.53-3.71 2.41-2.22-.67-4.41-1.42-6.69-1.82-.05-2.46.19-4.92.31-7.38a6.18 6.18 0 0 0-3.07.36c-.41 1.78-.63 3.64-1.49 5.28l-3.22-1.48c-1.22 1.68-1.96 3.63-2.9 5.47-1.33-.48-2.63-1.01-3.9-1.59.08-2.9.45-5.77.64-8.66-2.37.52-4.71 1.18-6.93 2.16 1.5 1.04 2.98 2.12 4.4 3.29-.97 2.25-3.53 1.6-5.45 1.72-1.85-.16-3.34 1.11-4.88 1.91a98.41 98.41 0 0 0-1.66-4.55c-.88-.58-2.67-.45-2.71-1.78 1.28-1.55 2.9-2.82 3.96-4.54-.16-.95-.53-1.84-.76-2.76.28-1.18 1.33-1.95 2.03-2.87l3.11 2.69c1.72-1.19-.24-3.03-1.16-4.1-2.5-1.39-4.76.94-6.82 2.07-2.06-.4-4.03-1.23-5.49-2.76.48-1.25.93-2.5 1.35-3.75l-1.47-1.15c-1 2.29-1.25 5.19-3.51 6.68-2.61 1.94-5.22 4.16-8.46 4.87l-1.52-1.77c1.46-.57 2.9-1.18 4.29-1.9l.58-.53c.22-2.79-.28-5.6.12-8.37.57-1.47 1.54-2.79 1.91-4.33-.07-2.3-.63-4.54-.88-6.81-.74-5.64.32-11.3.21-16.96-.16-4.11.69-8.35-.8-12.3-.99-2.58-.1-5.29.39-7.86 1.42-6.21 2.37-12.51 3.11-18.83.36-2.76.04-5.53-.53-8.23l.45-.58c2.75-.06 5.45.48 8.15.97 4.56.92 9.24.23 13.84.78l2.48 1.37c4.99.49 9.9-1.48 14.03-4.14 2.81-.31 5.66-.53 8.46.02.86 1.25 1.74 2.49 2.51 3.81l.77 2.17c.21 1.75.28 3.54.65 5.27 3.19 2.93 7.65 3.87 11.64 5.25 1.82 2.82-.22 7.27 2.85 9.25 4.86 3.44 11.41 4.34 16.91 1.95 1.01-.76 1.63-1.89 2.28-2.94l1.65-2.86 1.6-2.9.84-2.2c-.45-1.01-.87-2.02-1.26-3.04 1.13-7.78.35-15.65.74-23.47l1.04-4.29c3.9-1.97 8.05-.08 12.04.38 2.7-.94 4.64-3.41 7.44-4.18 4.18-.29 8.22 1.09 12.26 1.93.85-1.49 1.65-4.15 3.89-3.05.35 1.66.8 3.3 1.4 4.9 1.21-.81 2.5-1.53 3.5-2.61.35-1.47-.09-3-.11-4.48 1.81.86 2.19 2.71 2.32 4.53 2.01-.59 4.06-1.35 6.19-1.03 3.36.47 6.78-.17 9.89-1.48.89-.75 1.46-1.8 2.18-2.69 1.51 1.3 2.91 2.72 4.54 3.87 1.36.58 2.52-.67 3.62-1.26 1.81-1.34 3.95-2.11 6.12-2.67l1.84 3.54c1.86-.52 3.69-1.14 5.48-1.88l-.87-2.13c1.64.21 3.3.35 4.97.38l.85-1.53c4.62 1.66 9.62.74 14.34.01 1.41 1.19 2.89 2.41 4.84 2.42a124.8 124.8 0 0 0-1.17-5c1.56.51 3.1 1.16 4.75 1.32 1.95-.19 3.78-.97 5.67-1.46 2.29 1.35 4.2 3.2 6.25 4.88l1.78-1.03c-1.44-5.75-7.69-7.88-11.06-12.28-1.25.42-2.49.87-3.76 1.18-2.01-.46-2.36-2.98-3.98-4-1.67-1.05-3.53-1.71-5.36-2.38a36.16 36.16 0 0 0 3.82 3.91c-.29 2.46-1.3 4.73-2.48 6.88a27.04 27.04 0 0 1-2.53-3.33c.45-1.54 1.07-3.07.95-4.7a101.28 101.28 0 0 0-2.54 1.32l-1.81-1.18 1.89-2.71c-3.29-.17-6.55-.57-9.75-1.31l-.45 4.39c-4.15-2.97-8.65-5.43-13.48-7.1l-1.44 3.12-3.79-2.36c-2.94.97-5.82 2.36-8.96 2.45-1.79-1.51-2.22-4.07-3.34-6.07-1.4.23-2.81.94-4.23.62-3.3-1.02-6.58-2.13-9.6-3.83-1.6-.03-3.18.28-4.78.31-2.42-.78-4.45-2.47-6.88-3.27-2.51-.99-5.21-1.16-7.86-1.43-3.77-.33-6.83-2.96-10.49-3.66-1.37.28-2.68.76-4 1.2-1.92-1.02-3.59-2.42-5.36-3.67 1.43-5.48 3.68-11.89 9.53-13.96 3.75-1.07 7.23-3.26 9.44-6.53.7-1.52-.45-3.09-.75-4.56z"/><path fill="#cecbd4" d="M244.3 199.07l.12.55-.12-.55z"/><path fill="#58595a" d="M269.94 198.8c3.18 1.75 6.39 3.49 9.91 4.44l2.11 1.13-1.77.51c-1.87-.31-4.14-.98-5.64.61-.78 1.69-1.34 3.46-1.99 5.2l-2.24.02c-1.97-3.68-1.11-8.01-.38-11.91m5.32 4.47v.46h.46v-.46h-.46z"/><path fill="#8d9384" d="M324.09 208.16c3.63-2.66 6.29-6.32 9.69-9.22.84 1.62 2.09 3.18 2.16 5.07-.31 2.59-1.24 5.05-1.92 7.56l3.85-1.41c-1.22 1.7-2.42 3.44-3.99 4.85l-1.28-.32c-.07-3.02-.96-5.93-2.99-8.22l-1.95.51c-.04 1.77.39 3.64-.36 5.32l-1.79-3.06c-2.01 1.4-3.47 3.41-5.22 5.1.8-2.31 1.73-4.71 3.8-6.18z"/><path fill="#848488" d="M343 203.04c1.55-2.32 3.7-4.51 6.76-3.81 1.41 3.04-3.24 2.55-4.23 4.66l2.37 3.87-4.31.67-.65 1.36-3.97-.16c-.44-2.6-.47-5.35.89-7.7l1.16 6.11c2.15-.67 1.42-3.3 1.98-5z"/><path fill="#8d9182" d="M306.69 207.76c3.3-2.06 5.06-6.53 9.42-6.7-.88 2.51-2.18 5.13-1.16 7.82l-1.82-.6c-.53 3.13-1.34 6.21-1.73 9.36.94 1.3 3.08.9 4.52 1.31-2.69 2.99-5.2 6.45-9.39 7.36-.43-1.57-.87-3.25-2.22-4.29l-4.53-3.8c1.63-.14 3.26-.38 4.88-.62l.47-3.51c1.87.34 3.78.51 5.69.27l.73-2.84c-1.56-.93-3.09-2.17-4.98-2.22a71.51 71.51 0 0 0-1.23 2.84c-1.59-.83-3.33-1.2-5.11-.91-.53 2.11-.91 4.27-1.07 6.45l-2.47-2.54c1.23-2.54 2.36-5.19 4.32-7.27 1.89.02 3.79.12 5.68-.11z"/><path fill="#2b2a27" d="M214.28 203.31c1.57-.82 3.32-1.21 5-1.72l.39.82.11 2.66-2.44.33c-2.82 7.83-9.41 13.34-13.44 20.49-1.06 2.41-3.61 3.21-5.76 4.35l-.29 3.5c-1.74-.02-3.48-.04-5.2-.28l-.8-1.19 4.07.81c.89-1.36 1.01-3 1.2-4.57 1.46-1.92 2.64-4.06 2.6-6.56 0-3.06 1.45-5.75 3.21-8.16l2.22-.37c-1.29 2.94-4.45 5.17-4.34 8.57 4.53-1.45 6.73-6.15 9.65-9.55 2.35-2.55 2.09-6.29 3.82-9.13z"/><path fill="#746e6b" d="M284.32 203.33c1.3-1.29 3.75.88 2.42 2.25-1.32 1.18-3.72-.85-2.42-2.25z"/><path fill="#6d706f" d="M202.16 203.94l3.02 1.08c-2.96 5.58-7.28 10.26-10.45 15.71l-2.12-.19c.49-2.04.68-4.21 1.93-5.97 2.42-3.63 5.02-7.13 7.62-10.63z"/><path fill="#848588" d="M205.18 205.02c1.67-.55 3.69-1.95 5.19-.28-3.62 1.98-5.43 5.65-7.44 9.05-1.76 2.41-3.21 5.1-3.21 8.16.04 2.5-1.14 4.64-2.6 6.56-.65-2.62-.54-5.63-2.39-7.78 3.17-5.45 7.49-10.13 10.45-15.71z"/><path fill="#85847e" d="M244.53 210.58c1.08-2.3 2.86-4.14 4.44-6.09 1.15 1.58 1.94 3.37 2.6 5.21 5.78-.05 11.58-.47 17.34.31l.15.95c-4.1.14-8.28-.25-12.28.85-2.26.63-4.08 2.13-5.79 3.67l-2.22-.97a87.49 87.49 0 0 0 2.45 6.98c1.97.26 3.85-.5 5.73-.96a15.86 15.86 0 0 1 .73 5.08c-2.03 1.4-4.41-.15-6.24-1.16-2.01-.99-1.92-3.51-2.6-5.35-1.61 1.24-1.86 3.69-3.6 4.93.72 3.23 5.11 4.24 4.92 7.81l-1.91-.28-.39.46c-1.99-2.66-4.45-5.02-5.82-8.09.04-4.54.37-9.25 2.49-13.35z"/><path fill="#72716e" d="M184.77 210.94c1.09-1.9 2.42-3.74 4.29-4.94l1.96 3.07c-.64 2.06-1.77 3.91-2.77 5.82.01-1.41.11-2.92-.98-3.98l-2.57.91.07-.88z"/><path fill="#7d7e75" d="M218.26 209.18c4.46 1.14 9 1.87 13.6 2.07.47 2.39-2.1 4.02-3.35 5.78-1.89-3.53-6.5-4.6-9.8-2.37-.35 1.83-.47 3.83-1.74 5.32-1.96 2.59-2.94 5.73-4.46 8.57-2.09.34-4.19.58-6.3.76.12 1.38-.12 3.47 1.8 3.62 3.51.67 6.19 3.61 9.93 3.27-1.3 2.37-2.32 4.92-2.2 7.68-1.73-.66-3.38-1.53-4.87-2.62l-1.16-.85c-1.86-2.99-4.03-5.99-4.59-9.54-.56-2.72.43-5.53 2.07-7.68 1.39-1.34 3.24-2.07 4.7-3.33 1.88-3.69 3.3-7.76 6.37-10.68z"/><path fill="#827e73" d="M236.98 211c1.39-1.28 3.34-1.52 5.08-2.04-2.56 4.11-4.98 8.31-7.96 12.13-1.1 1.42-1.73 3.1-2.5 4.7-2.76 2.72-3.63 6.8-6.66 9.26.77-5.37 3.86-9.92 6.06-14.76l-2.19.46c2.37-3.52 5.04-6.87 8.17-9.75z"/><path fill="#9ca28e" d="M306.57 209.3c1.89.05 3.42 1.29 4.98 2.22l-.73 2.84c-1.91.24-3.82.07-5.69-.27l.21-1.95 1.23-2.84z"/><path fill="#87847d" d="M273.63 212.64l3.39-2.51c1.05 1.75.96 3.86 1.22 5.83.31 4.33 1.42 8.63.95 13-1.91 1.88-1.97 4.51-1.6 6.99-1.45 2.6-2.43 5.45-2.14 8.47.46 4.03-2.34 7.91-6.23 8.96.85-3.5 2.28-6.84 2.73-10.43.73-5.76 1.78-11.76.01-17.44-1.97-.49-3.87.16-5.64.98.51-2.66.34-5.4-1.03-7.79l-.73-1.82c.12-1.55.33-3.1.54-4.64l2.62.16c1.93.28 4.01 1.14 5.91.24z"/><path fill="#858483" d="M184.7 211.82l2.57-.91c1.09 1.06.99 2.57.98 3.98l-2.17 4.53c-1.53-2.26-1.57-4.99-1.38-7.6z"/><path fill="#5d5e62" d="M256.78 211.81c4-1.1 8.18-.71 12.28-.85l-1.34 1.44-2.62-.16c-.21 1.54-.42 3.09-.54 4.64l-.99-.19.37-1.82.06-2.58-2.1 1.62-.31-.71-1.58-.16-3.23-1.23z"/><path fill="#a6ffff" d="M300.23 211.23c1.78-.29 3.52.08 5.11.91l-.21 1.95-.47 3.51-4.88.62-.62-.54c.16-2.18.54-4.34 1.07-6.45m.79.89l-.06 3.03 2.84-.16.07-2.81-2.85-.06z"/><path fill="#9f9c92" d="M250.99 215.48c1.71-1.54 3.53-3.04 5.79-3.67l3.23 1.23 1.21 1.31.68-.44 2.1-1.62-.06 2.58-1.25.97.01.8-1.95.93c-1.2 3.41.06 7.04-.68 10.52l-2.08-.78c-.08 2.93.14 5.88 1.05 8.69l.58 2.1c-1.53.38-3.11.34-4.66.35-.47.76-.85 1.61-1.49 2.25-1.06.16-2.12.23-3.18.23-.24-3.03-.12-6.06-.13-9.09.19-3.57-4.2-4.58-4.92-7.81 1.74-1.24 1.99-3.69 3.6-4.93.68 1.84.59 4.36 2.6 5.35 1.83 1.01 4.21 2.56 6.24 1.16a15.86 15.86 0 0 0-.73-5.08c-1.88.46-3.76 1.22-5.73.96a87.49 87.49 0 0 1-2.45-6.98l2.22.97m9.27-.19v.46h.46v-.46h-.46z"/><path fill="#131313" opacity=".48" d="M294.27 212.26l.63-.64.67.41.14.78-1.45.32.01-.87z"/><path fill="#f4ffff" d="M301.02 212.12l2.85.06-.07 2.81-2.84.16.06-3.03z"/><path fill="#90928a" d="M218.71 214.66c3.3-2.23 7.91-1.16 9.8 2.37-2.14 2.4-4.11 4.99-5.6 7.85-1.87 3.68-3.22 7.59-4.97 11.32-3.74.34-6.42-2.6-9.93-3.27-1.92-.15-1.68-2.24-1.8-3.62 2.11-.18 4.21-.42 6.3-.76 1.52-2.84 2.5-5.98 4.46-8.57 1.27-1.49 1.39-3.49 1.74-5.32z"/><path fill="#dcdcdb" d="M260.01 213.04l1.58.16.31.71-.68.44-1.21-1.31z"/><path fill="#fcfcfe" d="M260.26 215.29h.46v.46h-.46v-.46z"/><path fill="#cacdd1" d="M262.69 215.84l1.25-.97-.37 1.82-.87-.05-.01-.8z"/><path fill="#67666a" d="M320.13 220.14c1.43-1.58 2.96-3.07 4.78-4.2l1.06 1.31c.77 3.51.14 7.13.31 10.69 2.44-.62 2.08-3.89 3.92-5.21 1.11-.07 2.23-.07 3.35 0 .26 1.57-1.13 4.48 1.4 4.5-.52 1.01-.94 2.36-2.26 2.54-3.99 1.01-8.44-.44-12.14 1.79-2.62.87-4.28 3.06-5.98 5.09-.34.02-1.01.07-1.35.1l-.49-2.62c-1.41 1.78-2.94 3.51-4.83 4.8 1.34-2.76 3.09-5.35 5.41-7.38 1.64 1.6 3.65-.43 5.22-1.12l.58-2.03-3.89 1.05-1.7-1.81c1.53-3.04 4.39-5.01 6.61-7.5z"/><path fill="#767f91" d="M260.75 217.57l1.95-.93.87.05.99.19.73 1.82c-1.22 5.72.1 11.49-.25 17.24-1.72.67-3.54.63-5.3.21-.39-2.68-.35-5.42.33-8.06.74-3.48-.52-7.11.68-10.52m2.52 1.7v.46h.45v-.45l-.45-.01m-1.65 2.97c-.44 1.27.38 3 1.6 3.57 1.88-.55.01-4.12-1.6-3.57m1.61 5.08v.45h.45v-.46l-.45.01m-1.14 3.09c-.36 1.4.16 1.9 1.54 1.5.35-1.41-.16-1.91-1.54-1.5z"/><path fill="#797979" d="M288.54 218.29c1.53-.06 3.07.12 4.54.62.03 3.19.32 6.51-1.12 9.48l-.08.47.08.68-1.56.2-1.64-1.71-2.9 4.06.46-3.94.2-1.66-3.32-.83c-.75-1.8-.28-3.76-.2-5.63l2.13 3.24.7-.98 2.71-4z"/><path fill="#fcfdff" d="M263.27 219.27l.45.01v.45h-.45v-.46z"/><path fill="#94938b" d="M265.29 218.7c1.37 2.39 1.54 5.13 1.03 7.79 1.77-.82 3.67-1.47 5.64-.98 1.77 5.68.72 11.68-.01 17.44-.45 3.59-1.88 6.93-2.73 10.43-6.16 2.2-14.47 3.2-19.2-2.35-4.21-5.51-2.51-12.66-2.16-19.01l.39-.46 1.91.28c.01 3.03-.11 6.06.13 9.09 1.06 0 2.12-.07 3.18-.23.64-.64 1.02-1.49 1.49-2.25 1.55-.01 3.13.03 4.66-.35l-.58-2.1.7.15c1.76.42 3.58.46 5.3-.21.35-5.75-.97-11.52.25-17.24z"/><path fill="#595a58" d="M293.08 218.91l.7.54c.45 2.64.02 5.41.75 8 .97 1.56 2.59 4.11 4.75 3 1.74-.67.74-3.11 1.99-4.2 1.22-1.26 2.33-2.62 3.04-4.23 1.35 1.04 1.79 2.72 2.22 4.29l.23 2.67-2.5-.53-1.58 7.11c-3.96 3.47-.64 9.04-2.75 13.25-1.94 4.36-2.15 9.3-4.55 13.47-5.34 4.74-10.08 10.27-13.67 16.45-.58 1.07-1.73 1.58-2.66 2.25l.85-3.63c-5.7 1.67-11.1 4.47-17.07 5.11a86.41 86.41 0 0 0-3.07-1.1l2.57-.95c3.76-.91 5.02-5.18 8.51-6.57-.55 1.08-1.04 2.18-1.53 3.29 1.06.07 2.16.41 3.23.14 1.66-1.59 3.24-3.3 5.3-4.42 3.93-2.13 5.98-6.32 7.94-10.13.88-2.04 2.09-4.16 1.8-6.46l-1.58-.36 2.18-.79c3.42-1.36 4.3-5.49 3.85-8.79-.4-2.47 1.74-4.48 1.26-6.99l-2.84 1.04-1.36-2.32c-.14 1.96-.21 3.92-.31 5.89l-.68-.39c-.32-2.82-.12-5.66-.14-8.48l1.53 1.52c.43-.73.88-1.46 1.33-2.18l2.17 2.42c.06-2.47-.15-4.96-1.03-7.29l-.08-.68.08-.47c1.44-2.97 1.15-6.29 1.12-9.48z"/><path fill="#676c67" d="M329.06 219.26h.81l.41.72-.4.72h-.82l-.41-.72.41-.72z"/><path fill="#928f88" d="M228.81 220.75l2.19-.46c-2.2 4.84-5.29 9.39-6.06 14.76-2.39 5.62-3.01 11.73-4.42 17.62-1.3-.26-3.48-.23-3.69-1.93.72-2.91 1.72-5.76 2.13-8.74.75-5.41 3.35-10.27 5.76-15.08 1.23-2.15 2.67-4.15 4.09-6.17z"/><path fill="#606363" d="M190.55 230.27c.22-3.32-.72-7.22 2.06-9.73l2.12.19c1.85 2.15 1.74 5.16 2.39 7.78-.19 1.57-.31 3.21-1.2 4.57l-4.07-.81-1.3-2z"/><path fill="#b0b4be" d="M261.62 222.24c1.61-.55 3.48 3.02 1.6 3.57-1.22-.57-2.04-2.3-1.6-3.57z"/><path fill="#72726c" d="M242.04 223.93c1.37 3.07 3.83 5.43 5.82 8.09-.35 6.35-2.05 13.5 2.16 19.01 4.73 5.55 13.04 4.55 19.2 2.35 3.89-1.05 6.69-4.93 6.23-8.96-.29-3.02.69-5.87 2.14-8.47 1.37 5.57.89 11.4 1.76 17.06.71 2.85-1.2 5.1-2.89 7.13-1.9-.49-3.79-1.1-5.76-1.26-2.29.05-4.49.91-6.78.98-5.39.25-10.46-2.15-15.02-4.76-.86-2.55-1.65-5.12-2.75-7.57-1.25.86-2.48 1.74-3.7 2.63-1.61-1.36-1.93-4.39-4.21-4.68l-.52 1.54c-.56-1.17-1.19-2.31-1.82-3.43-1.77 2.6-1.93 5.71-1.84 8.75l-1.52 1.73c-1.56-7.26 3.5-13.39 5.28-20.04l-2.73-.32-.16-3.38a146.06 146.06 0 0 1 4.46 1.15c.54 3.26.55 6.6 1.33 9.82.54 1.98 2.71 2.66 4.29 3.62-.49-3.3-.9-6.62-.95-9.95.02-3.81-2.18-7.21-2.02-11.04z"/><path fill="#616361" d="M217.94 236.2c1.75-3.73 3.1-7.64 4.97-11.32l1.81 2.04c-2.41 4.81-5.01 9.67-5.76 15.08-.41 2.98-1.41 5.83-2.13 8.74.21 1.7 2.39 1.67 3.69 1.93 1.41-5.89 2.03-12 4.42-17.62 3.03-2.46 3.9-6.54 6.66-9.26 2.21.64 4.52.74 6.81.81.37 1.61.71 3.24.98 4.88a146.06 146.06 0 0 0-4.46-1.15l.16 3.38c-2.71 3.61-5.75 7.79-5.13 12.55.51 4.22.33 8.46.23 12.69l-2.3 1.08c-1.67-.96-3.32-1.96-4.94-3l-1.44 1.98-.56-.61-1.36-1.35c-1.1 1.24-2.13 2.54-3.15 3.86l-1.18-.29-1 2.16-.35.79c-.58-1.13-1.14-2.27-1.65-3.43 1.34-4.07.7-8.4-.12-12.5-.36-2.14-.74-4.28-1.27-6.38 1.49 1.09 3.14 1.96 4.87 2.62-.12-2.76.9-5.31 2.2-7.68z"/><path opacity=".11" d="M334.95 227.23l.91-2.63.73.39c1.77 1.25 3.44 2.65 5.36 3.67l4-1.2c3.66.7 6.72 3.33 10.49 3.66 2.65.27 5.35.44 7.86 1.43 2.43.8 4.46 2.49 6.88 3.27 1.6-.03 3.18-.34 4.78-.31 3.02 1.7 6.3 2.81 9.6 3.83 1.42.32 2.83-.39 4.23-.62 1.12 2 1.55 4.56 3.34 6.07 3.14-.09 6.02-1.48 8.96-2.45l3.79 2.36 1.44-3.12c4.83 1.67 9.33 4.13 13.48 7.1l.45-4.39c3.2.74 6.46 1.14 9.75 1.31l-1.89 2.71 1.81 1.18 2.54-1.32c.12 1.63-.5 3.16-.95 4.7a27.04 27.04 0 0 0 2.53 3.33c1.18-2.15 2.19-4.42 2.48-6.88a36.16 36.16 0 0 1-3.82-3.91c1.83.67 3.69 1.33 5.36 2.38 1.62 1.02 1.97 3.54 3.98 4 1.27-.31 2.51-.76 3.76-1.18 3.37 4.4 9.62 6.53 11.06 12.28l-1.78 1.03c-2.05-1.68-3.96-3.53-6.25-4.88-1.89.49-3.72 1.27-5.67 1.46-1.65-.16-3.19-.81-4.75-1.32a124.8 124.8 0 0 1 1.17 5c-1.95-.01-3.43-1.23-4.84-2.42-4.72.73-9.72 1.65-14.34-.01l-.85 1.53c-1.67-.03-3.33-.17-4.97-.38l.87 2.13c-1.79.74-3.62 1.36-5.48 1.88l-1.84-3.54c-2.17.56-4.31 1.33-6.12 2.67-1.1.59-2.26 1.84-3.62 1.26-1.63-1.15-3.03-2.57-4.54-3.87-.72.89-1.29 1.94-2.18 2.69-3.11 1.31-6.53 1.95-9.89 1.48-2.13-.32-4.18.44-6.19 1.03-.13-1.82-.51-3.67-2.32-4.53.02 1.48.46 3.01.11 4.48-1 1.08-2.29 1.8-3.5 2.61-.6-1.6-1.05-3.24-1.4-4.9-2.24-1.1-3.04 1.56-3.89 3.05-4.04-.84-8.08-2.22-12.26-1.93-2.8.77-4.74 3.24-7.44 4.18-3.99-.46-8.14-2.35-12.04-.38l-1.04 4.29c-2.36-4.87-1.83-10.48-3.81-15.44l-.33-.73c-2.22-3.46-.77-7.58-.89-11.37.22-4.33-1.94-8.21-3.64-12.03-.29-1.35-.84-2.78-2.17-3.4a70.93 70.93 0 0 0-1.42-.97c3.7-2.23 8.15-.78 12.14-1.79 1.32-.18 1.74-1.53 2.26-2.54z"/><path fill="#a9aaab" d="M257.99 227.31l2.08.78c-.68 2.64-.72 5.38-.33 8.06l-.7-.15c-.91-2.81-1.13-5.76-1.05-8.69z"/><path fill="#59595a" d="M279.19 228.96c2.31-.53 4.76-1.92 7.13-.81l-.46 3.94 2.9-4.06 1.64 1.71-5.19 6.28-2.27-.7-.74 3.5 2.49-.03c-.9 1.46-2.76 2.71-2.32 4.65l1.31.44c-1.07 1.61-2.1 3.25-2.95 4.99-.58 1.34-1.06 2.72-1.38 4.14-.87-5.66-.39-11.49-1.76-17.06-.37-2.48-.31-5.11 1.6-6.99z"/><path fill="#eae6ea" d="M291.88 228.86l.08-.47-.08.47z"/><path fill="#4d4d4a" d="M304.26 228.45l2.5.53c.32 1.38.79 2.72 1.28 4.06 2.05-1.56 3.95-3.32 5.48-5.4l1.7 1.81 3.89-1.05-.58 2.03c-1.57.69-3.58 2.72-5.22 1.12-2.32 2.03-4.07 4.62-5.41 7.38 1.89-1.29 3.42-3.02 4.83-4.8l.49 2.62 1.35-.1c1.7-2.03 3.36-4.22 5.98-5.09l1.42.97c-2.31 1.56-.07 4.22 2.17 3.4 1.7 3.82 3.86 7.7 3.64 12.03.12 3.79-1.33 7.91.89 11.37-.94-.81-1.9-1.59-2.85-2.37 1-4.22 1.33-8.92-1.06-12.75-1.94-2.08-4.53-3.41-6.89-4.93-.03 3.95 4.11 5.91 5.23 9.46-1.85-.06-3.7-.29-5.55-.09-1.58.49-2.71 1.82-4 2.79-2.37-.92-4.46-2.38-6.65-3.63-1.8 3.02-2.09 6.59-2.92 9.94l-.97 2.2c-.88 1.41-1.9 2.72-2.91 4.04l-.2-1.01c1.22-4.27 2.71-8.47 3.43-12.86.82-4.8 3.01-10.38-.65-14.56.66-2.34 1.07-4.74 1.58-7.11m7 9.64c-1.34.76-2.05 3.18-.35 3.96 1.49-.45 3.39-.64 4.34-2.03-.19-1.64-2.55-2.59-3.99-1.93z"/><path fill="#bcc0c9" d="M262.09 230.41c1.38-.41 1.89.09 1.54 1.5-1.38.4-1.9-.1-1.54-1.5z"/><path fill="#48484a" d="M285.21 236.02c1.62-2.18 3.42-4.22 5.19-6.28l1.56-.2c.88 2.33 1.09 4.82 1.03 7.29l-2.17-2.42-1.33 2.18-1.53-1.52.14 8.48.68.39.31-5.89 1.36 2.32 2.84-1.04c.48 2.51-1.66 4.52-1.26 6.99.45 3.3-.43 7.43-3.85 8.79 1.13-3.07 3-6.52 1.66-9.81-1.79-1.45-2.13 1.79-2.49 2.89-.26 2.92-2.19 5.05-4.26 6.92l2.91.79c-.86 2.07-1.81 4.1-3.01 5.99l-4.3 3.07c-.9-1.53-1.63-3.15-2.23-4.82 1.69-2.03 3.6-4.28 2.89-7.13.32-1.42.8-2.8 1.38-4.14l3.14.84c1.33-1.8 4-4.26 2.05-6.51l-2.24.68-1.31-.44c-.44-1.94 1.42-3.19 2.32-4.65l.52-2.77m5.08-4.89v.82l.72.4.72-.41v-.81l-.72-.41-.72.41z"/><path fill="#838385" d="M290.29 231.13l.72-.41.72.41v.81l-.72.41-.72-.4v-.82z"/><path fill="#2f2f2c" opacity=".76" d="M203.45 233.26h.46v.45l-.45.01-.01-.46z"/><path fill="#6e6d6e" opacity=".96" d="M324.14 235.93c-2.24.82-4.48-1.84-2.17-3.4 1.33.62 1.88 2.05 2.17 3.4z"/><path fill="#97948b" d="M235.09 233.71l2.73.32c-1.78 6.65-6.84 12.78-5.28 20.04-.36 2.36-.05 4.71.77 6.95l-2.42.09-.7-2.16c.1-4.23.28-8.47-.23-12.69-.62-4.76 2.42-8.94 5.13-12.55z"/><path fill="#944a4c" d="M282.94 235.32l2.27.7-.52 2.77-2.49.03.74-3.5z"/><path fill="#87837b" d="M299.93 248.81c2.11-4.21-1.21-9.78 2.75-13.25 3.66 4.18 1.47 9.76.65 14.56-.72 4.39-2.21 8.59-3.43 12.86-3.74 4.07-6.09 9.15-9.43 13.53-1.62 2.15-3.66 3.93-5.52 5.86l-1.73-1.31c2.31-7.36 9.2-11.82 12.16-18.78 2.4-4.17 2.61-9.11 4.55-13.47z"/><path fill="#686766" d="M311.26 238.09c1.44-.66 3.8.29 3.99 1.93-.95 1.39-2.85 1.58-4.34 2.03-1.7-.78-.99-3.2.35-3.96z"/><path fill="#686860" d="M317.87 239.28c2.36 1.52 4.95 2.85 6.89 4.93 2.39 3.83 2.06 8.53 1.06 12.75l-2.31.07c.72 1.55 1.58 3.27.39 4.86-2.62 4.65-4.2 10.29-8.85 13.41l-1.04-2.37c1.64-5.24 4.42-10.02 7.49-14.53 1.28-2.49 2.13-5.77.04-8.09-2.21-.95-4.52-.12-6.45 1.04-.08 2 1.45 3.23 2.88 4.33-1.03 5.2-4.01 9.7-5.61 14.72-1.64 5.08-3.19 10.25-3.67 15.6-1.61.55-3.32.72-4.99.39 1-3.01 2.78-5.62 4.68-8.12 1.68-2.26.86-5.2 1.23-7.78 1.21-2.39 4.87-4.47 2.83-7.43-2.31-2.5-5.41-3.96-8.46-5.31.83-3.35 1.12-6.92 2.92-9.94 2.19 1.25 4.28 2.71 6.65 3.63 1.29-.97 2.42-2.3 4-2.79 1.85-.2 3.7.03 5.55.09-1.12-3.55-5.26-5.51-5.23-9.46z"/><path fill="#706f6e" d="M283.68 243.88l2.24-.68c1.95 2.25-.72 4.71-2.05 6.51l-3.14-.84c.85-1.74 1.88-3.38 2.95-4.99z"/><path fill="#484948" d="M234.06 252.34c-.09-3.04.07-6.15 1.84-8.75l1.82 3.43c.75 2.8 1.59 5.61 3.07 8.13 1.81 3.64 3.91 7.36 7.46 9.58-2.84-.44-5.75-2.46-8.59-.95-.68.39-1.35.8-2.02 1.22l.55 1.85c-3.25 1.02-6.55 2.04-9.3 4.14-4-2.87-5.94-7.45-7.38-11.98l1.44-1.98c1.62 1.04 3.27 2.04 4.94 3l2.3-1.08.7 2.16c-1.22 1.31-4.42 2.58-2.7 4.71 1.44.88 3.14.42 4.7.25.65-1.62 1.13-3.37.42-5.05-.82-2.24-1.13-4.59-.77-6.95l1.52-1.73z"/><path fill="#7b7b7b" d="M238.24 245.48c2.28.29 2.6 3.32 4.21 4.68 3.47 3.58 6.24 7.75 9.75 11.28-1.4.62-3.02.91-4.28-.19-2.38-2.03-4.42-4.47-7.13-6.1-1.48-2.52-2.32-5.33-3.07-8.13l.52-1.54z"/><path fill="#292c31" d="M287.35 248.19c.36-1.1.7-4.34 2.49-2.89 1.34 3.29-.53 6.74-1.66 9.81l-2.18.79-2.91-.79c2.07-1.87 4-4 4.26-6.92z"/><path fill="#747372" opacity=".96" d="M212.14 247.64c.82 4.1 1.46 8.43.12 12.5-.48-1.09-.92-2.19-1.34-3.3-.41-3.13.32-6.23 1.22-9.2z"/><path fill="#575752" d="M242.45 250.16l3.7-2.63c1.1 2.45 1.89 5.02 2.75 7.57 4.56 2.61 9.63 5.01 15.02 4.76 2.29-.07 4.49-.93 6.78-.98 1.97.16 3.86.77 5.76 1.26.6 1.67 1.33 3.29 2.23 4.82 1.4-1.06 2.85-2.06 4.3-3.07-1.04 1.92-2.2 3.83-4.02 5.11-2.83 2.14-5.05 5.02-8.13 6.84-3.49 1.39-4.75 5.66-8.51 6.57-4.95-1.41-10.04-2.32-15.17-2.62a52.96 52.96 0 0 0 2.99-1.75c-2.57-1.45-5.84-1.62-8.03-3.68l1.22-1.74-.26-2.6 1.08-2.09c4.08.68 8.03 2 11.66 4.01 2.57 1.52 4.88 4.14 7.94 4.46l8.74-3.94c1.42-.47 2-1.9 2.57-3.14l-5.48 1.18c1.49-2.54 3.94-4.21 6.36-5.79l-1.14-1.51c-1.79.69-3.55 1.48-5.34 2.16-2.02.96-4.08-.47-6.14-.45-2.08.61-4.18 1.14-6.35 1.31.48.84 1.21 1.42 2.18 1.75-2.47-.32-4.95-.61-7.43-.84 1.4-.4 2.79-.86 4.18-1.33-.64-1.6-2.14-2.12-3.71-2.36-3.51-3.53-6.28-7.7-9.75-11.28m7.75 22.04c.24 1.79 2.39 2.78 3.41 4.24 1.36 1.86 3.92 1.41 5.93 1.5.05-1.01.66-2.48-.53-3.07-2.96-.82-5.97-1.49-8.81-2.67z"/><path fill="#b78465" d="M315.09 251.35c1.93-1.16 4.24-1.99 6.45-1.04 2.09 2.32 1.24 5.6-.04 8.09l-3.53-2.72c-1.43-1.1-2.96-2.33-2.88-4.33z"/><path fill="#676a69" d="M240.79 255.15c2.71 1.63 4.75 4.07 7.13 6.1 1.26 1.1 2.88.81 4.28.19 1.57.24 3.07.76 3.71 2.36l-4.18 1.33-3.48-.4c-3.55-2.22-5.65-5.94-7.46-9.58z"/><path fill="#7f7b74" d="M286 255.9l1.58.36c.29 2.3-.92 4.42-1.8 6.46-1.96 3.81-4.01 8-7.94 10.13-2.06 1.12-3.64 2.83-5.3 4.42-1.07.27-2.17-.07-3.23-.14.49-1.11.98-2.21 1.53-3.29 3.08-1.82 5.3-4.7 8.13-6.84 1.82-1.28 2.98-3.19 4.02-5.11 1.2-1.89 2.15-3.92 3.01-5.99z"/><path fill="#3b3a36" d="M312.36 270.4c1.6-5.02 4.58-9.52 5.61-14.72l3.53 2.72c-3.07 4.51-5.85 9.29-7.49 14.53l1.04 2.37-.53.48c-1.67 1.53-3.07 3.54-2.35 5.92l.13.92c-1.03 1.3-1.91 2.88-3.61 3.38.48-5.35 2.03-10.52 3.67-15.6z"/><path fill="#2c2c2b" opacity=".54" d="M210.92 256.84l1.34 3.3 1.65 3.43c-.86 4.52-.81 9.14-.74 13.72-.31 1.92-.88 3.8-1.01 5.74.13 1.11 1.35 1.58 2.02 2.35-.06 1.51-.13 3.02-.12 4.54.87 7.27.38 14.64 1.91 21.85-.46-1.06-1.05-2.07-1.3-3.2-1.04-6.14-1.55-12.37-1.3-18.61.28-3.01-2.58-5.44-1.78-8.47 1.59-8.19.68-16.51-.67-24.65z"/><path fill="#6c6c67" d="M216.44 260.91l3.15-3.86 1.36 1.35-2.09 1.71c.24 2.22 1.43 4.12 2.88 5.76-1.2 1.3-2.71 2.9-1.78 4.82 2.78 2.68 5.8 5.15 8.06 8.32l.36 3.39c1.68.68 3.83.81 4.85 2.53l-2.01 1.21c-5.3-.69-10.65-1.05-15.87-2.27.39-4.62 1.63-9.52-.48-13.92l-.76.41c-.45 2.29-.5 4.64-.94 6.93-.07-4.58-.12-9.2.74-13.72l.35-.79c.5 1.44.48 3.48 2.48 3.53-.04-1.8-.09-3.61-.3-5.4m.8 8.29l-.33.83.37.8.85.31.83-.36.33-.84-.37-.8-.85-.31-.83.37z"/><path fill="#97979c" d="M323.51 257.03l2.31-.07c.63 6.56-3.04 12.5-5.75 18.22a60.79 60.79 0 0 0 1.83 3.08c-1.26-.62-2.54-1.19-3.81-1.75l-1.18 1.45-2.39-2.18.53-.48c4.65-3.12 6.23-8.76 8.85-13.41 1.19-1.59.33-3.31-.39-4.86z"/><path fill="#686969" d="M325.82 256.96l2.85 2.37.33.73c1.02 4.62-1.66 8.74-3.04 12.95-.88 2.07-2.18 3.97-4.06 5.25a60.79 60.79 0 0 1-1.83-3.08c2.71-5.72 6.38-11.66 5.75-18.22z"/><path fill="#8a8a84" d="M303.01 259.95l.97-2.2c3.05 1.35 6.15 2.81 8.46 5.31-1.53 1.3-3.24 2.44-5.28 2.68-1.6-1.77-2.95-3.74-4.15-5.79z"/><path fill="#8a8a80" d="M218.86 260.11l2.09-1.71.56.61c1.44 4.53 3.38 9.11 7.38 11.98 1 .7 1.94 1.62 3.17 1.89 1.49-.49 2.73-1.51 4.15-2.16 1.19-.1 2.37.22 3.55.38.5.97 1.03 1.93 1.59 2.88-1.32 3.25-5.83.64-7.77 2.95 1.26 1.43 2.9 2.43 4.5 3.44l.02 2.31c-2.28-.25-4.47-.96-6.15-2.58.31-1.53.53-3.08.67-4.63-4.2-2.51-7.93-5.68-10.88-9.6-1.45-1.64-2.64-3.54-2.88-5.76z"/><path fill="#96958f" d="M215.26 260.62l1.18.29c.21 1.79.26 3.6.3 5.4-2-.05-1.98-2.09-2.48-3.53l1-2.16z"/><path fill="#74766e" d="M300.1 263.99l2.91-4.04c1.2 2.05 2.55 4.02 4.15 5.79 2.04-.24 3.75-1.38 5.28-2.68 2.04 2.96-1.62 5.04-2.83 7.43-.37 2.58.45 5.52-1.23 7.78-1.9 2.5-3.68 5.11-4.68 8.12-2.66-.57-5.74-.82-7.55-3.12l1.5-2.44-5.89-2.82c1.75-5.3 7.21-8.42 8.34-14.02z"/><path fill="#3f3e3a" d="M329 260.06c1.98 4.96 1.45 10.57 3.81 15.44-.39 7.82.39 15.69-.74 23.47-.92-1.88-.52-3.99-.47-5.99.19-4.65.3-9.31.33-13.96-2.84 1.44-1.51 5.6-3.81 7.67-1.81-.99-3.52-2.14-5.09-3.46.81-.89 1.66-1.76 2.4-2.72.55-2.46.33-5.01.53-7.5 1.38-4.21 4.06-8.33 3.04-12.95z"/><path fill="#5f5b55" d="M230.89 261.11l2.42-.09c.71 1.68.23 3.43-.42 5.05-1.56.17-3.26.63-4.7-.25-1.72-2.13 1.48-3.4 2.7-4.71z"/><path fill="#797b7b" d="M269.47 263.36l5.34-2.16 1.14 1.51c-2.42 1.58-4.87 3.25-6.36 5.79-3.63.62-7.3 1.05-10.98 1.06l-.48-1.12c1.26-.62 3.59-.18 3.64-2.08l-2.61-.39c-.97-.33-1.7-.91-2.18-1.75 2.17-.17 4.27-.7 6.35-1.31 2.06-.02 4.12 1.41 6.14.45z"/><path fill="#6d6b64" d="M281.71 278.73c3.59-6.18 8.33-11.71 13.67-16.45-2.96 6.96-9.85 11.42-12.16 18.78l1.73 1.31c-.62.92-1.18 1.88-1.78 2.82-4.13 2.66-9.04 4.63-14.03 4.14l-2.48-1.37.23-1c2.18-1.02 4.58-1.45 6.82-2.32 1.92-.99 3.52-2.49 5.34-3.66.93-.67 2.08-1.18 2.66-2.25z"/><path fill="#313232" d="M239.66 263.78c2.84-1.51 5.75.51 8.59.95 1.15.19 2.31.32 3.48.4l7.43.84 2.61.39c-.05 1.9-2.38 1.46-3.64 2.08l-2.31 1.5c-3.63-2.01-7.58-3.33-11.66-4.01-1.53-.66-3.01-1.41-4.5-2.15z"/><path fill="#515251" d="M290.47 276.51c3.34-4.38 5.69-9.46 9.43-13.53l.2 1.01c-1.13 5.6-6.59 8.72-8.34 14.02l5.89 2.82-1.5 2.44c1.81 2.3 4.89 2.55 7.55 3.12 1.67.33 3.38.16 4.99-.39 1.7-.5 2.58-2.08 3.61-3.38l.47 2.34c-1.88 1.5-3.91 2.97-5.08 5.14.16 1.24.89 1.93 2.21 2.04l2.18.71 2.68 4.15c-.16-3.45 1.24-6.5 3.37-9.12-.9-.26-1.81-.5-2.68-.83-.92-1.44-1.08-3.21-1.63-4.79l3.09-4.3 1.18-1.45c1.27.56 2.55 1.13 3.81 1.75 1.88-1.28 3.18-3.18 4.06-5.25-.2 2.49.02 5.04-.53 7.5-.74.96-1.59 1.83-2.4 2.72 1.57 1.32 3.28 2.47 5.09 3.46 2.3-2.07.97-6.23 3.81-7.67-.03 4.65-.14 9.31-.33 13.96-.05 2-.45 4.11.47 5.99.39 1.02.81 2.03 1.26 3.04l-.84 2.2-2.51-2.01c-1.41.93-2.8 1.89-4.18 2.87-1.56.76-3.15 1.48-4.74 2.17-2.72.02-5.44-.06-8.16-.01-1.89-1.55-2.89-3.78-3.41-6.12 2.35.2 4.85 1.13 7.1-.02-1.62-.68-3.25-1.31-4.88-1.94-.72-1.13-1.38-2.28-2.18-3.34-1.64-.89-3.99-.62-4.97 1.13-1.93-.42-3.98-.71-5.67-1.8-1.26-1.03-2.25-2.33-3.35-3.51 3.56-.31 8.62 1.89 10.93-1.78-3.89-1.56-8.25-.24-12.33-.83-.77-1.32-1.65-2.56-2.51-3.81-2.8-.55-5.65-.33-8.46-.02l1.78-2.82c1.86-1.93 3.9-3.71 5.52-5.86z"/><path fill="#6f6a63" d="M237.64 265l2.02-1.22 4.5 2.15-1.08 2.09-3.61 1.3.29 1.78c-1.18-.16-2.36-.48-3.55-.38-1.42.65-2.66 1.67-4.15 2.16-1.23-.27-2.17-1.19-3.17-1.89 2.75-2.1 6.05-3.12 9.3-4.14l-.55-1.85z"/><path fill="#484b49" d="M219.96 270.69c-.93-1.92.58-3.52 1.78-4.82 2.95 3.92 6.68 7.09 10.88 9.6-.14 1.55-.36 3.1-.67 4.63-1.29-.42-2.62-.75-3.93-1.09-2.26-3.17-5.28-5.64-8.06-8.32z"/><path fill="#414442" d="M269.59 268.5l5.48-1.18c-.57 1.24-1.15 2.67-2.57 3.14l-8.74 3.94c-3.06-.32-5.37-2.94-7.94-4.46l2.31-1.5.48 1.12c3.68-.01 7.35-.44 10.98-1.06z"/><path fill="#787970" d="M239.47 269.32l3.61-1.3.26 2.6-1.22 1.74c2.19 2.06 5.46 2.23 8.03 3.68l-2.99 1.75c5.13.3 10.22 1.21 15.17 2.62l-2.57.95c-6.59-.42-12.97-2.12-19.48-3.06-.58 1.59-1.11 3.2-1.46 4.85.25 2.4 1.99 4.18 3.31 6.07-3.29 2.38-7.45 3.55-11.49 3.1.87-1.99 1.35-4.09.58-6.18l2.01-1.21c-1.02-1.72-3.17-1.85-4.85-2.53l-.36-3.39c1.31.34 2.64.67 3.93 1.09 1.68 1.62 3.87 2.33 6.15 2.58l-.02-2.31c-1.6-1.01-3.24-2.01-4.5-3.44 1.94-2.31 6.45.3 7.77-2.95-.56-.95-1.09-1.91-1.59-2.88l-.29-1.78z"/><path fill="#cac6c3" d="M217.24 269.2l.83-.37.85.31.37.8-.33.84-.83.36-.85-.31-.37-.8.33-.83z"/><path fill="#86887f" d="M214.11 270.36l.76-.41c2.11 4.4.87 9.3.48 13.92 5.22 1.22 10.57 1.58 15.87 2.27.77 2.09.29 4.19-.58 6.18-2.88-.14-5.76.34-8.64.14-2.77-.38-5.35-1.55-7.94-2.54-.01-1.52.06-3.03.12-4.54-.67-.77-1.89-1.24-2.02-2.35.13-1.94.7-3.82 1.01-5.74.44-2.29.49-4.64.94-6.93z"/><path fill="#79766f" d="M250.2 272.2c2.84 1.18 5.85 1.85 8.81 2.67 1.19.59.58 2.06.53 3.07-2.01-.09-4.57.36-5.93-1.5-1.02-1.46-3.17-2.45-3.41-4.24z"/><path fill="#747576" d="M312.17 281.7c-.72-2.38.68-4.39 2.35-5.92l2.39 2.18-3.09 4.3-1.65-.56z"/><path fill="#4f504e" d="M262.83 282.46c5.97-.64 11.37-3.44 17.07-5.11l-.85 3.63c-1.82 1.17-3.42 2.67-5.34 3.66-2.24.87-4.64 1.3-6.82 2.32l-.49-2.3c-1.17-.76-2.34-1.53-3.57-2.2z"/><path fill="#414341" d="M240.28 278.3c6.51.94 12.89 2.64 19.48 3.06a86.41 86.41 0 0 1 3.07 1.1c1.23.67 2.4 1.44 3.57 2.2l.49 2.3-.23 1c-4.6-.55-9.28.14-13.84-.78 1.42-.12 2.84-.29 4.26-.52-1.68-1.47-4.05-1.31-6.11-1.64-4.1-.29-8.19-.77-12.15-1.87.35-1.65.88-3.26 1.46-4.85z"/><path fill="#606162" d="M312.17 281.7l1.65.56c.55 1.58.71 3.35 1.63 4.79.87.33 1.78.57 2.68.83-2.13 2.62-3.53 5.67-3.37 9.12l-2.68-4.15-2.18-.71c1.65-2.03 4.04-4.31 2.87-7.18l-.47-2.34-.13-.92z"/><path fill="#606160" d="M238.82 283.15c3.96 1.1 8.05 1.58 12.15 1.87 2.06.33 4.43.17 6.11 1.64-1.42.23-2.84.4-4.26.52-2.7-.49-5.4-1.03-8.15-.97l-.45.58c-.46 1.32-.84 2.67-1.15 4.04-1.82 1.27-3.51 2.73-5.3 4.06-1.23.69-2.94 1.12-3.17 2.77-1.41 5-1.97 10.24-1.72 15.43-2.15-.17-4.29-.63-6.45-.54-1.27.53-2.42 1.32-3.58 2.03l-5.54-.59c.79 3.35 1.53 6.73 1.74 10.18-1.63-3.97-2.21-8.23-3.08-12.4-1.53-7.21-1.04-14.58-1.91-21.85 2.59.99 5.17 2.16 7.94 2.54 2.88.2 5.76-.28 8.64-.14 4.04.45 8.2-.72 11.49-3.1-1.32-1.89-3.06-3.67-3.31-6.07m-11.55 20.14v.45h.45l.01-.45h-.46z"/><path fill="#7a7c7e" d="M307.69 290.1c1.17-2.17 3.2-3.64 5.08-5.14 1.17 2.87-1.22 5.15-2.87 7.18-1.32-.11-2.05-.8-2.21-2.04z"/><path fill="#020202" opacity=".69" d="M244.22 286.79c.57 2.7.89 5.47.53 8.23-.74 6.32-1.69 12.62-3.11 18.83-.49 2.57-1.38 5.28-.39 7.86 1.49 3.95.64 8.19.8 12.3.11 5.66-.95 11.32-.21 16.96.25 2.27.81 4.51.88 6.81-.37 1.54-1.34 2.86-1.91 4.33-.4 2.77.1 5.58-.12 8.37l-.58.53.09-7.92c.25-6.13-.25-12.29.67-18.38.15-8.93-2.02-17.85-.8-26.8l.44-3.7c1.54-7.69 3.48-15.49 2.56-23.38.31-1.37.69-2.72 1.15-4.04z"/><path fill="#6b6965" d="M294.14 289.02c4.08.59 8.44-.73 12.33.83-2.31 3.67-7.37 1.47-10.93 1.78l-.63-.44-.77-2.17z"/><path fill="#474847" d="M237.77 294.89l5.3-4.06c.92 7.89-1.02 15.69-2.56 23.38l-.52-.81c-.98-1.51-2.06-2.99-2.77-4.66-.09-2.91 1.78-5.56 1.52-8.5-.17-1.81-.59-3.58-.97-5.35z"/><path fill="#020202" opacity=".77" d="M294.91 291.19l.63.44c1.1 1.18 2.09 2.48 3.35 3.51 1.69 1.09 3.74 1.38 5.67 1.8l2.64 4.77c-3.99-1.38-8.45-2.32-11.64-5.25-.37-1.73-.44-3.52-.65-5.27z"/><path fill="#535453" d="M234.6 297.66c.23-1.65 1.94-2.08 3.17-2.77l.97 5.35c.26 2.94-1.61 5.59-1.52 8.5.71 1.67 1.79 3.15 2.77 4.66l-7.11-.31c-.25-5.19.31-10.43 1.72-15.43z"/><path fill="#736254" d="M304.56 296.94c.98-1.75 3.33-2.02 4.97-1.13.8 1.06 1.46 2.21 2.18 3.34l4.88 1.94c-2.25 1.15-4.75.22-7.1.02.52 2.34 1.52 4.57 3.41 6.12l-2.02 3.7-.83.03c-3.07-1.98-1.03-6.43-2.85-9.25-.8-1.64-1.7-3.22-2.64-4.77z"/><path fill="#7b797a" d="M325.8 305.07l4.18-2.87 2.51 2.01-1.6 2.9-4.66-.18-.43-1.86z"/><path fill="#969791" d="M227.27 303.29h.46l-.01.45h-.45v-.45z"/><path fill="#6b6c6c" d="M321.06 307.24l4.74-2.17.43 1.86 4.66.18-1.65 2.86-.59-1.35c-4.77.75-9.41 3.38-14.36 2.13 1.85-.7 3.73-1.3 5.66-1.76l1.11-1.75z"/><path fill="#9e9d9f" d="M312.9 307.23l8.16.01-1.11 1.75c-1.93.46-3.81 1.06-5.66 1.76l-3.41.18 2.02-3.7z"/><path fill="#555554" d="M314.29 310.75c4.95 1.25 9.59-1.38 14.36-2.13.14.34.44 1.01.59 1.35-.65 1.05-1.27 2.18-2.28 2.94-5.5 2.39-12.05 1.49-16.91-1.95l.83-.03 3.41-.18z"/><path fill="#80827a" d="M226.43 312.55c2.16-.09 4.3.37 6.45.54l7.11.31.52.81-.44 3.7c-2.2 1.7-5.74 2.64-6.04 5.85 1.61-.65 3.17-1.48 4.93-1.67-.14 2.18-.37 4.46-1.53 6.38-2.73 1.84-6.22 1.6-9.36 1.58l-2.73-2.71c2.82-3.11 5.84-7.44 4.23-11.8-2.23-.42-4.47-.74-6.72-.96 1.16-.71 2.31-1.5 3.58-2.03z"/><path fill="#8d8f87" d="M217.31 313.99l5.54.59 6.72.96c1.61 4.36-1.41 8.69-4.23 11.8a99.71 99.71 0 0 0 2.73 2.71c-2.78-.18-5.54-.51-8.3-.88l-.4-2.53-.32-2.47c-.21-3.45-.95-6.83-1.74-10.18z"/><path fill="#5e5e5d" d="M234.03 323.76c.3-3.21 3.84-4.15 6.04-5.85-1.22 8.95.95 17.87.8 26.8-1.95.79-3.84 1.71-5.66 2.75-.18 5.81.08 11.64.3 17.45 1.58-.55 3.14-1.16 4.69-1.82l-.09 7.92c-1.39.72-2.83 1.33-4.29 1.9-2.25-.76-4.4.42-6.6.72-1.6-.1-3.1-.71-4.59-1.24l.43-4.27c.99.41 3.65-.13 2.43-1.63-1.02-.94-2.49-.32-3.43.39l-.59-.89c.67-.64 1.37-1.25 2.07-1.86-.66-2.76-1.74-5.46-1.57-8.35 2.07.41 1.53 2.74 2.16 4.25 1.15 2.44 2.84 4.58 4.05 6.99l.01 2.24c1.37.87 3.23-.8 3.24-2.25.26-1.62.46-3.25.54-4.88-.52-4.77.54-9.71-.9-14.34l-1.23-1.65c-2.41.51-4.77 1.22-7.09 2.02-1.69-1.29-3.52-2.92-3.43-5.25.24-1.61.69-3.17 1.05-4.75-1.6-2.76-2.39-5.83-2.6-8.99 2.76.37 5.52.7 8.3.88 3.14.02 6.63.26 9.36-1.58 1.16-1.92 1.39-4.2 1.53-6.38-1.76.19-3.32 1.02-4.93 1.67m-8.72 20.27c2.86-.14 6.83.79 8.37-2.38.01-1.13-.47-2.16-.84-3.18-.71-.13-1.42-.17-2.12-.13-2.2 1.45-4.38 3.18-5.41 5.69z"/><path fill="#3d3f3d" d="M219.37 326.64l.4 2.53c.21 3.16 1 6.23 2.6 8.99l-1.05 4.75c-.09 2.33 1.74 3.96 3.43 5.25-.49 2.51-.9 5.05-.78 7.62-.17 2.89.91 5.59 1.57 8.35l-2.07 1.86.59.89 1 1.24-.43 4.27c-3.15-.77-4.62-3.66-5.79-6.39.54-1.14 1.41-2.18 1.57-3.45-.03-2.53-1.11-4.94-1.02-7.47l1.44-7.85c-1.49.62-3.08 2.34-4.57.77.84-4.25 1.23-8.58 2.18-12.81.22-1.81 1.21-3.95-.37-5.43l-.81.46c-.52 2.64-.55 5.36-.97 8.02.07-2.89-.27-5.83.29-8.68.82-1.07 1.82-1.98 2.79-2.92m.88 13.64v.46h.45v-.46h-.45z"/><path fill="#646360" opacity=".95" d="M217.26 330.22l.81-.46c1.58 1.48.59 3.62.37 5.43-.95 4.23-1.34 8.56-2.18 12.81l-1.17 3.26c-2.03-4.39.88-8.62 1.2-13.02.42-2.66.45-5.38.97-8.02z"/><path fill="#7a7879" d="M225.31 344.03c1.03-2.51 3.21-4.24 5.41-5.69.7-.04 1.41 0 2.12.13.37 1.02.85 2.05.84 3.18-1.54 3.17-5.51 2.24-8.37 2.38z"/><path fill="#a09282" d="M220.25 340.28h.45v.46h-.45v-.46z"/><path fill="#40403f" d="M235.21 347.46c1.82-1.04 3.71-1.96 5.66-2.75-.92 6.09-.42 12.25-.67 18.38-1.55.66-3.11 1.27-4.69 1.82-.22-5.81-.48-11.64-.3-17.45z"/><path fill="#666b6f" d="M224.75 348.16c2.32-.8 4.68-1.51 7.09-2.02l1.23 1.65-3.92.06-.86 1.47c-.32 4.67 2.31 8.91 2.2 13.58l3.48-.77c-.08 1.63-.28 3.26-.54 4.88-1.09-.2-2.17-.19-3.25.01-1.21-2.41-2.9-4.55-4.05-6.99-.63-1.51-.09-3.84-2.16-4.25-.12-2.57.29-5.11.78-7.62z"/><path fill="#5f5d59" d="M216.26 348c1.49 1.57 3.08-.15 4.57-.77-.29 2.65-1.08 5.21-1.44 7.85-.09 2.53.99 4.94 1.02 7.47-.16 1.27-1.03 2.31-1.57 3.45-1.16-.47-2.71-.35-3.52-1.43-.45-4.42.4-8.89-.23-13.31.36-1.1.79-2.18 1.17-3.26z"/><path fill="#8d8d91" d="M229.15 347.85l3.92-.06c1.44 4.63.38 9.57.9 14.34l-3.48.77c.11-4.67-2.52-8.91-2.2-13.58l.86-1.47z"/><path fill="#797b7d" d="M224.06 366.88c.94-.71 2.41-1.33 3.43-.39 1.22 1.5-1.44 2.04-2.43 1.63l-1-1.24z"/><path fill="#99989c" d="M230.18 367.02c1.08-.2 2.16-.21 3.25-.01-.01 1.45-1.87 3.12-3.24 2.25l-.01-2.24z"/></svg>