<svg xmlns="http://www.w3.org/2000/svg" width="682.667" height="682.667" viewBox="0 0 512 512"  xmlns:v="https://vecta.io/nano"><path fill="#333533" opacity=".67" d="M159.95 87.29c1.34-.33 2.89-1.33 4.21-.4 1.78 1.15 3.16 2.8 4.65 4.29l-1.59-.31-3.18-.37c1.58-2.57-2.57-2.51-4.09-3.21z"/><path fill="#313339" opacity=".97" d="M159.95 87.29c1.52.7 5.67.64 4.09 3.21l-5.93.31c.55-1.2 1.18-2.38 1.84-3.52z"/><path fill="#777a85" d="M158.11 90.81l5.93-.31 3.18.37 1.25 5.01c-2.45-1.15-4.8-2.49-7.01-4.03l-.43 2.3-3.07-2.61.15-.73z"/><path fill="#65676f" d="M167.22 90.87l1.59.31c3.28 3.42 6.71 6.77 10.81 9.2l-2.45-.52c2.31 2.95 5.12 5.45 8.23 7.53l.09-4.31 2.17.54 2.22 2.7c.73.88 1.46 1.76 2.24 2.61l-2.39 1.35c-1.31.55-2.64 1.02-3.98 1.48-3.07-3.33-6.45-6.34-10.05-9.09-2.02-2.63-4.13-5.39-7.23-6.79l-1.25-5.01z"/><path fill="#a6af9a" d="M159.16 102.99c-1.8-3.52-2.17-7.63-1.2-11.45l3.07 2.61 4.08 3.52-1.62 2.17-2.26.28c1.23 2.35 2.44 4.72 3.79 7.01-1.96-1.37-4.01-2.62-5.86-4.14z"/><path fill="#9b9ea8" d="M161.46 91.85c2.21 1.54 4.56 2.88 7.01 4.03 3.1 1.4 5.21 4.16 7.23 6.79l4.18 5.62-3.52.31-11.25-10.93-4.08-3.52.43-2.3z"/><path fill="#7a7b80" d="M182.26 95.54c2.24.67 4.6 1.26 6.45 2.78 4.17 3.33 8 7.26 10.25 12.17.04 1.24.03 2.47.02 3.71-2.38-1.63-4.74-3.32-6.86-5.27-.78-.85-1.51-1.73-2.24-2.61l2.88-1.62c-1.06-.94-1.9-2.09-2.51-3.36l-2.59 2.28-2.17-.54-.09 4.31c-3.11-2.08-5.92-4.58-8.23-7.53l2.45.52 2 .53.64-5.37m3.07 4.59c-.47 1.39 0 1.88 1.41 1.45.47-1.4 0-1.89-1.41-1.45z"/><path fill="#a8adad" d="M163.49 99.84l1.62-2.17c3.85 3.54 7.45 7.34 11.25 10.93l3.52-.31c2.59 2.78 5.48 5.27 8.07 8.06.27 1.96.11 4.4 1.92 5.7 2.87 1.95 6.28 2.92 9.2 4.79 3.34 2.15 7.12 3.41 10.93 4.4l-3.75 3.68c-2.03-1.41-4.15-2.68-6.27-3.94 1.17 2.34 2.35 4.68 3.77 6.89-2.39-1.4-4.6-3.1-6.48-5.14-5.11-5.56-10.74-10.64-15.78-16.28-5.31-6.25-11.72-11.38-18-16.61z"/><path fill="#8e9686" d="M161.23 100.12l2.26-.28c6.28 5.23 12.69 10.36 18 16.61l-5-.17 4.3 3.71-2.19.94 1.39 2.12c-3.81-1.68-7.01-4.4-9.95-7.3l-2.93 1.6-.48-.44c-1.08-1.74-3.53-3.75-1.69-5.8 2.9 1.36 5.62 3.07 8.48 4.51a48.91 48.91 0 0 0-8.4-8.49c-1.35-2.29-2.56-4.66-3.79-7.01z"/><path fill="#aaaaae" d="M185.33 100.13c1.41-.44 1.88.05 1.41 1.45-1.41.43-1.88-.06-1.41-1.45z"/><path fill="#9295a1" d="M175.7 102.67c3.6 2.75 6.98 5.76 10.05 9.09 1.27 1.19 2.6 2.31 3.95 3.4 3.56 3.17 6.71 6.78 10.27 9.94 1.24 1.24 2.97 1.61 4.61 1.99l1.45.36 6.23 1.46-2.26 2.33c-3.81-.99-7.59-2.25-10.93-4.4-2.92-1.87-6.33-2.84-9.2-4.79-1.81-1.3-1.65-3.74-1.92-5.7-2.59-2.79-5.48-5.28-8.07-8.06-1.51-1.79-2.8-3.74-4.18-5.62z"/><path fill="#cbc9d1" d="M187.66 103.62l2.59-2.28c.61 1.27 1.45 2.42 2.51 3.36l-2.88 1.62-2.22-2.7z"/><path fill="#777c77" d="M159.16 102.99c1.85 1.52 3.9 2.77 5.86 4.14a48.91 48.91 0 0 1 8.4 8.49l-8.48-4.51c-1.84 2.05.61 4.06 1.69 5.8-4.19-3.52-4.76-9.39-7.47-13.92z"/><path fill="#47474b" d="M189.73 110.28l2.39-1.35c2.12 1.95 4.48 3.64 6.86 5.27l-.02-3.71a57.05 57.05 0 0 0 3.32 4.56l-1.4.02-3.25.14-.56 3.49-.92-.96c-1.92-2.67-3.99-5.24-6.42-7.46z"/><path fill="#6a6b6e" d="M185.75 111.76l3.98-1.48c2.43 2.22 4.5 4.79 6.42 7.46l-6.45-2.58-3.95-3.4z"/><path fill="#5c5e62" opacity=".95" d="M189.7 115.16l6.45 2.58.92.96c2.67 2.65 5.1 5.51 7.51 8.39-1.64-.38-3.37-.75-4.61-1.99-3.56-3.16-6.71-6.77-10.27-9.94z"/><path fill="#626474" d="M200.88 115.07l1.4-.02c3.67 4.37 6.09 9.65 9.98 13.86l-6.23-1.46c-.12-4.67-2.33-8.8-5.15-12.38z"/><path fill="#9b9ea4" d="M167.11 117.35l2.93-1.6c2.94 2.9 6.14 5.62 9.95 7.3l-1.11 5.54c-2.26-3.02-5.18-5.41-8.12-7.71l-.86-1.04-1.14-1.28-1.65-1.21z"/><path fill="#818683" d="M176.49 116.28l5 .17c5.04 5.64 10.67 10.72 15.78 16.28 1.88 2.04 4.09 3.74 6.48 5.14l1.75 1.09-2.56 2.29c-7.84-6.62-14.23-14.74-22.15-21.26l-4.3-3.71z"/><path fill="#242527" opacity=".62" d="M168.19 119.11l.57-.55 1.14 1.28-1.57.07-.14-.8z"/><path fill="#b9c2ab" d="M178.6 120.93l2.19-.94c7.92 6.52 14.31 14.64 22.15 21.26l2.56-2.29-.36 4.86 1.82 2.6.13.8c-4.86-1.87-8.18-5.97-11.87-9.42-5.22-4.77-9.95-10.05-15.23-14.75l-1.39-2.12z"/><path opacity=".75" d="M178.9 132.19c-1.57-4.5-5.48-7.5-8.14-11.31 2.94 2.3 5.86 4.69 8.12 7.71 2.36 3.13 5 6.05 7.96 8.63 3.34 2.93 6.19 6.46 9.95 8.89 2.14 1.39 4.31 2.73 6.4 4.19-1.86 1.72-3.67 3.51-5.25 5.49l5.16 2.49c2.23-1.56 4.41-3.25 6.93-4.33 5.21 2.94 8.96 7.95 12.19 12.87 2.15 4.2 4.46 8.65 8.7 11.11 1.48 1.27 4.09 1.93 4.33 4.15-.39 1.78-1.2 3.43-1.91 5.1l-4.37-1.57c-2.31-2.35-4.66-4.65-7.03-6.93l-6.17 3.63-3.74-2.93 4.55-4.55c-2.81-2.25-5.72-4.39-8.45-6.74-.57-1.46-1.05-2.97-1.9-4.29-1.39-.77-2.9-1.27-4.35-1.88-4.68-3.54-8.96-7.56-13.05-11.76-4.87-4.97-7.56-11.54-9.93-17.97z"/><path fill="#757a72" d="M179.99 123.05c5.28 4.7 10.01 9.98 15.23 14.75 3.69 3.45 7.01 7.55 11.87 9.42-.16 4.83-5.63 6.53-9.15 8.57 1.58-1.98 3.39-3.77 5.25-5.49-2.09-1.46-4.26-2.8-6.4-4.19-3.76-2.43-6.61-5.96-9.95-8.89-2.96-2.58-5.6-5.5-7.96-8.63l1.11-5.54m11.27 15.52c-.86 1.19 1.03 3.03 2.2 2.16.87-1.19-1.03-3.04-2.2-2.16z"/><path fill="#818084" d="M212.26 128.91c2.47 2.84 4.89 5.72 7.22 8.68-1.98-.68-3.12 3.05-.64 2.55l1.11-1.1c.12 1.25.17 2.52.24 3.78l-3.81 2.18c-.16-2.06-2.56-2.15-3.97-1.33-1.67.17-3.36.17-5.04.17.57-3.04 1.25-6.43-1.12-8.92l3.75-3.68 2.26-2.33z"/><path fill="#595b5d" d="M199.98 130.98l6.27 3.94c2.37 2.49 1.69 5.88 1.12 8.92-.55 0-1.67-.02-2.23-.02l.36-4.86-1.75-1.09c-1.42-2.21-2.6-4.55-3.77-6.89z"/><path fill="#616360" opacity=".9" d="M191.26 138.57c1.17-.88 3.07.97 2.2 2.16-1.17.87-3.06-.97-2.2-2.16z"/><path fill="#c0bfc8" d="M218.84 140.14c-2.48.5-1.34-3.23.64-2.55l.47 1.45-1.11 1.1z"/><path fill="#474748" d="M219.48 137.59c3.5 4.43 7.35 8.57 11.44 12.45 4.36 4.41 11.04 4.58 16.07 7.9 2.56 1.42 4.05 4.01 5.5 6.45l-3.26 2.89c1.16 1.45 2.29 2.94 3.52 4.33 1.94 1.91 4.04 3.63 6.16 5.33 1.01 2.1 1.88 4.25 2.88 6.35-7.41-3.98-13.19-10.14-18.84-16.23l-.37-3.66 3.62-1.8-7.72-4.12c-2.17-1.29-4.22-2.77-6.35-4.13l-1.07.44-1.97.85c-.13-2.02.25-4.24-.78-6.08-2.01-2.73-5.21-4.18-8.12-5.74-.07-1.26-.12-2.53-.24-3.78l-.47-1.45z"/><path fill="#777a7a" d="M207.37 143.84l5.04-.17c.21 1.88 2.64 2.59 3.97 1.33l3.81-2.18c2.91 1.56 6.11 3.01 8.12 5.74 1.03 1.84.65 4.06.78 6.08l1.97-.85-.44 1.33c-1.08 2.75-1.41 5.7-1.22 8.64l-4.07-10.22-4.2-.84 3.39-1.99c-1.23-1.28-2.35-2.72-3.84-3.72-2.67-.3-5.29.61-7.87 1.14 3.57 3.46 7.73 6.23 11.4 9.57l-1.62 3.65c-4.63-5.55-10.12-10.29-15.63-14.93l-1.82-2.6 2.23.02z"/><path fill="#b2b3b8" d="M212.41 143.67c1.41-.82 3.81-.73 3.97 1.33-1.33 1.26-3.76.55-3.97-1.33z"/><path fill="#9b9ea6" d="M206.96 146.42c5.51 4.64 11 9.38 15.63 14.93.65 1.42 1.22 2.87 1.88 4.28l-2.92-.11.67 1.3c-3.23-4.92-6.98-9.93-12.19-12.87-2.52 1.08-4.7 2.77-6.93 4.33l-5.16-2.49c3.52-2.04 8.99-3.74 9.15-8.57l-.13-.8z"/><path fill="#aeb5ac" d="M212.81 148.13c2.58-.53 5.2-1.44 7.87-1.14 1.49 1 2.61 2.44 3.84 3.72l-3.39 1.99 4.2.84 4.07 10.22 1.29 3.14-3.43.79-1.47-1.98 2.23-.11-3.81-7.9c-3.67-3.34-7.83-6.11-11.4-9.57z"/><path fill="#929a8e" d="M231.06 153.79l1.07-.44 6.35 4.13 1.18 3.5c-3.81 2.05-7.49 4.75-8.79 9.11l3.27-1.08c-1.23 1.12-2.43 2.28-3.61 3.45-2.14-2.16-4.37-4.27-6.06-6.83-.66-1.41-1.23-2.86-1.88-4.28l1.62-3.65c1.46 2.54 2.59 5.24 3.81 7.9l-2.23.11 1.47 1.98 3.43-.79-1.29-3.14c3-.1 5.47-1.74 7.49-3.85-2.05-1.65-4.18-3.2-6.27-4.79l.44-1.33z"/><path fill="#90e5f8" d="M229.4 163.76c-.19-2.94.14-5.89 1.22-8.64l6.27 4.79c-2.02 2.11-4.49 3.75-7.49 3.85m1.94-6.84l-1.55 2.99 2.14 1.32 2.13-1.62-2.72-2.69z"/><path fill="#e5ffff" d="M231.34 156.92l2.72 2.69-2.13 1.62-2.14-1.32 1.55-2.99z"/><path fill="#6e6e70" d="M238.48 157.48l7.72 4.12-3.62 1.8.37 3.66c-1.01-.79-2.07-1.51-3.16-2.18-1.97 1.25-3.82 2.69-5.65 4.13l-3.27 1.08c1.3-4.36 4.98-7.06 8.79-9.11l-1.18-3.5z"/><path opacity=".52" d="M201.88 161.92l4.35 1.88c.85 1.32 1.33 2.83 1.9 4.29-2.25-1.88-4.24-4.05-6.25-6.17z"/><path fill="#606466" d="M221.55 165.52l2.92.11c1.69 2.56 3.92 4.67 6.06 6.83l3.95 4-3.56 1.47c-4.24-2.46-6.55-6.91-8.7-11.11l-.67-1.3z"/><path fill="#a8abaf" d="M234.14 169.01l5.65-4.13-.42 6.01a29.14 29.14 0 0 0 .15 2.95l.56.42-2.41 4.92-1.69-1.37-1.5-1.35-3.95-4 3.61-3.45z"/><path fill="#8e909d" d="M239.79 164.88c1.09.67 2.15 1.39 3.16 2.18 5.65 6.09 11.43 12.25 18.84 16.23l7.61 5.41-.81.37-.58 1.7-.57-.44c-4.12-4.02-9.94-4.85-15.22-6.42 1.12-1.79 1.27-3.9 1.25-5.95a111.82 111.82 0 0 0-3.67 3.24c-3.08-2.53-6.4-4.73-9.72-6.94l-.56-.42 3.06-1.44.71-3.17-3.92 1.66c.04-2.01.25-4.01.42-6.01z"/><path fill="#737171" d="M249.23 167.28l3.26-2.89 5.38 3.24-4.03 1.08-1.09 2.9-3.52-4.33z"/><path fill="#d5a182" d="M253.84 168.71c1.3-.49 2.67-.77 4.03-1.08 7.28 4.49 15.16 7.86 22.75 11.79 4.69 2.26 9.18 4.97 14.02 6.93l-5.09 6.08-3.67.75c-2.43.2-5.28.93-7.35-.8-4.2-3.05-7.62-7.01-11.48-10.44-2.38-2.17-5.33-3.51-8.14-5-2.12-1.7-4.22-3.42-6.16-5.33.33-.98.69-1.95 1.09-2.9z"/><path fill="#6f727e" d="M239.37 170.89l3.92-1.66-.71 3.17-3.06 1.44-.15-2.95z"/><path fill="#b7bac6" d="M237.67 179.18l2.41-4.92c3.32 2.21 6.64 4.41 9.72 6.94l-1.88 1.79 1.02 2.66c-4.26.6-7.02-3.11-10.01-5.44l-1.26-1.03z"/><path fill="#434452" d="M230.92 177.93l3.56-1.47 1.5 1.35.73 5.47 1.7.6c2.55.53 4.72 1.93 5.48 4.52l3 1.08 1.85 1.06-4.84.69-2.39-.14.21-4.21-6.36-.89-1.08 3.4-6.34.51-2.49.61-.84.32c1.29-1.87 2.77-3.6 4.36-5.22l4.37 1.57c.71-1.67 1.52-3.32 1.91-5.1-.24-2.22-2.85-2.88-4.33-4.15z"/><path fill="#c69577" d="M258.91 176.94c2.81 1.49 5.76 2.83 8.14 5 3.86 3.43 7.28 7.39 11.48 10.44 2.07 1.73 4.92 1 7.35.8l-1.58.76c-1.82 1.04-3.55 2.21-5.34 3.3l-7.68-2.82 1.7-2.74-2.91-2.47-.67-.51c-2.49-1.87-5.07-3.62-7.61-5.41-1-2.1-1.87-4.25-2.88-6.35z"/><path fill="#5a5d5c" d="M235.98 177.81l1.69 1.37 1.26 1.03-.52 3.67-1.7-.6-.73-5.47z"/><path fill="#ceccd8" d="M249.8 181.2l3.67-3.24c.02 2.05-.13 4.16-1.25 5.95l-2.45 1.35-.83.39-1.02-2.66 1.88-1.79z"/><path fill="#6e717c" d="M238.93 180.21c2.99 2.33 5.75 6.04 10.01 5.44l.83-.39 2.96 1.86.37.28-.43.2-.51.23-1.6.68-3.67.97-3-1.08c-.76-2.59-2.93-3.99-5.48-4.52l.52-3.67z"/><path fill="#46464e" d="M249.77 185.26l2.45-1.35c5.28 1.57 11.1 2.4 15.22 6.42-.36 2.35-.7 4.71-.8 7.09.01 1.75.1 3.49.17 5.24-1 1.85-2.01 3.7-2.91 5.6a55.29 55.29 0 0 0-3.2-3.46 52.89 52.89 0 0 0 .18-1.72c1.36-1.2 3.26-2.27 3.41-4.29.31-3.1.79-6.53-.58-9.42-3.23-1.42-6.8-1.63-10.24-2.15-.18-.02-.55-.08-.74-.1l-2.96-1.86z"/><path fill="#62667d" d="M235.36 185.99l6.36.89-.21 4.21 2.39.14 7.71.58-1.43 4.08-6.49 1.03-2.22.56c-2.46.87-4.82 1.99-7.17 3.13-2.35 1.1-4.78 2.02-7.24 2.84l-1.6-8.05c-2.13-2.81-5.85-1.67-8.83-1.6l7.98-2.97.84-.32c.17 1.31.88 2.09 2.15 2.33 1.59-.12 1.31-2.24.34-2.94l6.34-.51 1.08-3.4m2.65 1.3l-.4.72.42.71.82-.01.41-.72-.43-.71-.82.01m3.3 5.96v.45h.45v-.45h-.45z"/><path fill="#c2c0c5" d="M252.73 187.12l.74.1-.37.18-.37-.28z"/><path fill="#a6a5b2" d="M238.01 187.29l.82-.01.43.71-.41.72-.82.01-.42-.71.4-.72z"/><path fill="#616379" d="M253.1 187.4l.37-.18c3.44.52 7.01.73 10.24 2.15 1.37 2.89.89 6.32.58 9.42-.15 2.02-2.05 3.09-3.41 4.29-4.47-4.08-7.06-9.59-10.32-14.57l1.6-.68c.12-.06.38-.17.51-.23l.43-.2z"/><path fill="#606060" d="M294.64 186.35l5.46 1.61.67 2.73-7.85.43c.86 1.29 1.41 2.94 2.75 3.83 1.92.62 3.97.22 5.95.17 3.33 3.91 7.07 7.45 10.53 11.24.64 1.65 1.14 3.36 1.55 5.09l-1.32.74c-3.46-3.73-6.66-7.72-10.29-11.3-1.95-1.98-4.64-2.83-7.12-3.91-2.16-1.05-3.84-2.79-5.42-4.55 1.73-2 3.42-4.03 5.09-6.08z"/><path fill="#9f9eb0" d="M252.16 187.83l.51-.23-.51.23z"/><path d="M300.1 187.96c5.19 2.95 9.85 6.79 15.34 9.23-.95 1.15-1.85 2.34-2.74 3.52-3.1-2.73-6.48-6.63-11.08-5.59-1.98.05-4.03.45-5.95-.17-1.34-.89-1.89-2.54-2.75-3.83 2.61-.19 5.23-.29 7.85-.43l-.67-2.73zm-15.29 82.81c2.18-2.05 4.11-4.48 6.86-5.8.24 1.35.33 2.73.39 4.11l-1.76 2.61c-2.64 3.21-6.04 5.67-9.7 7.58-.14-1.3-.33-2.6-.3-3.91 1.29-1.72 2.99-3.08 4.51-4.59zm-30.66 10.87c6.2-1.39 12.39-2.9 18.72-3.6l.39 5.24c-5.35.42-10.67 1.39-15.65 3.46-3.66.68-7.36 1.21-10.96 2.17-2.47-2.41-5.6-3.93-8.93-4.73 2.28-2.14 5.04-3.65 7.89-4.88l4.45 3.21 4.09-.87z" fill="#404140"/><path fill="#575857" d="M246.89 189.48l3.67-.97c3.26 4.98 5.85 10.49 10.32 14.57a52.89 52.89 0 0 1-.18 1.72l-1.21.31c1.52 2.21 3.07 4.39 4.7 6.53a24.73 24.73 0 0 1 9.17 4.14c-1.49 2.5-3.4 4.73-5.69 6.53l-1.68-4.37-1.02 6.58 4.75 1.79-1.8 6.26 4.63-1.53-1.69-2.94 1.81-1.51 1.29 1.12.81-.16.7-.18.99-8.45c1.66 2.23 3.2 4.55 4.8 6.83 3.87 5.3 6.37 11.43 8.69 17.53.24 2.55.26 5.11.32 7.67-1.18-2.19-2.55-4.26-3.94-6.32-1.61 2.69-1.71 5.83-1.82 8.87.03 2.24-1.22 4.15-2.28 6.03-.62-3.94-.87-7.91-1.09-11.89-.25-4.21-2.41-7.94-4.17-11.67l-1.7 1.1c1.57 5.61 2.67 11.33 3.45 17.1-2.48-4.43-4.44-9.1-6.05-13.9.18-2.96.26-5.92.15-8.88-.53 2.33-1.13 4.67-1.19 7.07-.61 3.73-.48 7.66-1.96 11.19-1.81 2.45-5.34 1.77-8 2.11.43-2.79.57-5.61.5-8.41-.16-3.92-.55-7.85-.21-11.77.23-3.25.91-6.49.55-9.76-.44-3.61-1.61-7.07-2.6-10.55-3.27.04-6.67-.32-9.82.75-.51.78-.95 1.6-1.33 2.45l-3.48.62-.25-2.52-.24-2.06a58.53 58.53 0 0 1 10.83-.47l-.37-2.14c-.76-5.46-1.75-10.9-3.64-16.09l-7.71-.58c1.62-.18 3.23-.44 4.84-.69l-1.85-1.06m27.19 40.76l-.42.71.41.72h.83l.41-.71-.41-.72h-.82m-9.44 6.64c1.22.38 2.42.82 3.61 1.31-.09-1.39-.21-2.78-.38-4.15-1.6-.17-2.15 1.96-3.23 2.84z"/><path fill="#c3c7c5" d="M268.59 189.07l.81-.37.67.51-.5 1.83-.88.22-.68-.49.58-1.7z"/><path fill="#686663" d="M270.07 189.21l2.91 2.47-1.7 2.74 7.68 2.82c-2.14 1.14-4.36 2.57-6.86 2.54-1.95-.45-3.69-1.48-5.46-2.36.1-2.38.44-4.74.8-7.09l.57.44.68.49.88-.22.5-1.83z"/><path fill="#848794" d="M225.45 190.51l2.49-.61c.97.7 1.25 2.82-.34 2.94-1.27-.24-1.98-1.02-2.15-2.33z"/><path fill="#5f6061" d="M251.61 191.81c1.89 5.19 2.88 10.63 3.64 16.09-4.34.63-8.69.16-13.04.13l-.74-10.55 2.22-.56c1.96.24 3.93.45 5.91.49l.58-1.52 1.43-4.08z"/><path fill="#787a7a" d="M285.88 193.18l3.67-.75c1.58 1.76 3.26 3.5 5.42 4.55l.33 2.8-3.57-1.21c-2.52-1.05-4.91-2.39-7.18-3.88l-.25-.75 1.58-.76z"/><path fill="#969696" d="M216.63 193.8c2.98-.07 6.7-1.21 8.83 1.6-3.23 1.02-6.5 2.03-9.47 3.71l-1.96-2.98 2.6-2.33z"/><path fill="#fff" d="M241.31 193.25h.45v.45h-.45v-.45z"/><path fill="#7b7b7a" d="M211.62 197.59c.59-2.28 3.14-2.9 5.01-3.79l-2.6 2.33 1.96 2.98-3.12 4.05c-.76-1.72-1.86-3.63-1.25-5.57z"/><path fill="#565550" d="M278.96 197.24l5.34-3.3.25.75c.64 2.62 2.1 4.9 3.83 6.93-4.15-.41-8.19.65-12.14 1.76-3.13 1.02-6.38.13-9.43-.72l-.17-5.24c1.77.88 3.51 1.91 5.46 2.36 2.5.03 4.72-1.4 6.86-2.54z"/><path fill="#2b2c2b" d="M301.62 195.12c4.6-1.04 7.98 2.86 11.08 5.59l2.47 2.35-3.02 3.3c-3.46-3.79-7.2-7.33-10.53-11.24z"/><path fill="#3b3a36" d="M284.55 194.69c2.27 1.49 4.66 2.83 7.18 3.88l-2.36 4.4-.99-1.35c-1.73-2.03-3.19-4.31-3.83-6.93z"/><path fill="#4e4f4f" d="M215.99 199.11c2.97-1.68 6.24-2.69 9.47-3.71.62 2.66 1.08 5.36 1.6 8.05 2.46-.82 4.89-1.74 7.24-2.84l.59 1.89c-2.3 1.09-4.6 2.21-6.86 3.39l-3.41-1.67c-1.47 2.45-2.87 4.96-3.89 7.63-1.24.55-2.47 1.1-3.67 1.73l.85-5.76c-.99 1.35-1.98 2.7-2.89 4.1.39-1.62.71-3.26 1.05-4.9-1.09-1.27-2.18-2.53-3.2-3.86 1.02-1.36 2.03-2.74 3.12-4.05m1.77 2.7c2.15-.15 4.32-.3 6.39-.94l-.18-1.93c-2.52-.3-4.56 1.15-6.21 2.87z"/><path fill="#b7b6bb" d="M243.69 196.92c2.14-.46 4.31-.75 6.49-1.03l-.58 1.52c-1.98-.04-3.95-.25-5.91-.49z"/><path fill="#858589" d="M294.97 196.98c2.48 1.08 5.17 1.93 7.12 3.91 3.63 3.58 6.83 7.57 10.29 11.3l-1.39.72-2.95 1.44c-.51-2.09-1.19-4.2-2.64-5.84-2.85-3.42-6.01-6.81-10.1-8.73l-.33-2.8z"/><path fill="#6b6c6d" d="M234.3 200.61l7.17-3.13.74 10.55-5.17.94-2.15-6.47-.59-1.89z"/><path fill="#656262" d="M312.7 200.71l2.74-3.52 1.7.55c1.09 2.91 1.98 5.96 1.93 9.1l-3.9-3.78-2.47-2.35z"/><path opacity=".07" d="M317.14 197.74l2.54.84c3.48 3.46 6.81 7.12 10.53 10.33 2.67-.98 4.77-3 6.99-4.72l1.34.87-1.05 3.88c3.76-.31 7.4-1.29 11.01-2.36 1.8-.73 3.39.73 4.93 1.44l-1.1 3.05 4.71 1.92c2.97-.68 6.07-1.33 9.11-.67 2.74.48 4.97 2.23 7.21 3.75 2.07-.69 4.12-1.65 6.34-1.75 2.54 1.1 4.66 2.94 6.89 4.54 1.84-1.5 3.47-3.59 5.89-4.17 3.41-.37 6.28 1.99 9.14 3.48l2-2.85 6.6 8.03.18-7.51 2.75 6.8 6.41-1.33 1.1 4.43 2.14.09c.77-1.42 1.45-2.91 2.49-4.17.94-.57 2.23-.63 3.13.11 2.39 1.65 4.41 3.78 6.6 5.69l.6-4.61 8.13-1.67-1.25 3.11 1.09-.01 5.08-2.18-.25 4.2c2.7-.05 5.4.05 8.1.21l-.14-2.97 3.06.3-.96-2.6c2.77.44 5.56.74 8.36.86 2.06 1.69 3.98 3.74 6.55 4.65 2.3.84 3.87-1.45 5.47-2.67.88 0 1.76.01 2.66.04l1.58-3.23c2.15 2.02 3.98 4.35 5.29 7 1.08-2.71 2.92-5.04 5.46-6.53l.82 3.65 4.07-1.86 2.77 3.09 2.64-4.8 5.9 3.83 1.95-3.7v43.21c-1.62 2.03-3.44 3.88-5.29 5.69-2.52-2.77-5.6-5.04-9.35-5.73l.12 5.13c-1.78-.62-3.59-1.16-5.37-1.74l3.8-5.19c-4.1 2.8-8.9 4.34-13.88 4.18-2.19-1.32-4.43-2.91-7.09-2.93-4.34-.11-8.69-.32-13.02-.26-2.64-.05-4.63 1.85-6.51 3.42-1.87-1.69-3.46-3.83-5.82-4.87-2.87-.05-5.73.32-8.42-.85-1.03-.68-1.61.77-2.41 1.15-1.51-.48-3.01-1-4.56-1.31-3.57-.5-6.89 1.51-10.41 1.57-1.75-.89-3.15-2.34-4.93-3.18-1.6-.47-3.29-.51-4.95-.61l2.81 4.84-1.54.83c-1.62-1.68-3.11-3.59-5.2-4.71-1.47.54-2.86 1.29-4.25 2.01-3.32-.79-6.68-1.32-10.04-1.9-3.89-.52-6.32-3.91-8.98-6.42l-.55 3.16c-5.73.23-11.24-1.4-16.55-3.36-1.09 1.02-2.13 2.11-3.35 2.96-2.35-.12-3.98-2.19-5.79-3.44 0 2.02-.07 4.04-.11 6.06l-2.92-6.06c-3.6.12-7.19.42-10.75.97l.77-3.48-4.7-.84-.06 3.84c-4.59-2.19-9.7-2.63-14.71-2.1-4.97-.04-9.94 2.15-14.84.59l-2.02 2.9-2.88-4.06c-1.85 2-3.8 4.13-4.27 6.92-1 4.79-1.22 9.71-1.79 14.57l-.33-.81-.77-1.72c-.02-6.59 1.02-13.17.33-19.77.74-2.03 1.49-4.15 2.97-5.78 2.43.15 4.81.84 7.25.84 2.44-1.03 1.8-4.12 2.12-6.24 2.55 2.61 5.1 5.55 8.64 6.82 2.69.77 5-1.33 7.17-2.57-2.25-3.44-5.2-6.66-5.88-10.86l2.24-.1c.65 1.28 1.13 2.68 2 3.84 1.08.16 2.17.34 3.28.37l.72-5.96 2.02 5.86c-1.35 1.25-2.76 2.45-3.89 3.91-.53 3 2.25 4.85 4.12 6.67.69-3.37 1.76-6.66 3.23-9.78 2.48-4.65-.28-9.83-.2-14.72l-2.63-1.04-2.67 3.8c-3.07-1.87-5.96-4.03-8.59-6.49l-2.12 2.25-3.14-3.19c.44-3.66.74-7.34 1.01-11.02.05-3.14-.84-6.19-1.93-9.1z"/><path fill="#716d68" d="M217.76 201.81c1.65-1.72 3.69-3.17 6.21-2.87l.18 1.93c-2.07.64-4.24.79-6.39.94z"/><path fill="#625c53" d="M291.73 198.57l3.57 1.21c4.09 1.92 7.25 5.31 10.1 8.73 1.45 1.64 2.13 3.75 2.64 5.84l.44 1.74c-5.78-1.41-9.11-6.52-13.38-10.15-1.3-1.33-3.22-1.1-4.9-1.21-.26-.6-.54-1.19-.83-1.76l2.36-4.4z"/><path fill="#76786f" d="M276.24 203.38c3.95-1.11 7.99-2.17 12.14-1.76l.99 1.35c.29.57.57 1.16.83 1.76.93 3.27 1.48 6.76 3.4 9.65 1.93 2.62 4.62 4.54 7.03 6.68-1.66 1.03-3.05 3.29-5.24 2.85-1.49-1.87-2.59-4-3.76-6.07l-4.75 5.5c-1.17-1.92-2.46-3.78-3.86-5.54 1.36.41 2.74.76 4.12 1.12 1.46-2.6 2.8-5.26 3.97-8-2.22.41-4.52.61-6.59 1.56-1.13 1.23-1.83 2.76-2.63 4.2-4.31-4.08-8.32-9.16-14.3-10.77-1.27 1.18-2.44 2.47-3.6 3.75l-.09-1.4c.9-1.9 1.91-3.75 2.91-5.6 3.05.85 6.3 1.74 9.43.72z"/><path fill="#888880" d="M228.03 205.89l6.86-3.39 2.15 6.47.96 2.88 1.34.05-5.03 1.57-.63 3.53-1.15-3.11c-1.47 2.13-3.13 4.2-4.06 6.66-.64 1.79.06 3.69.54 5.44l-1.93.84-2.45-2.97c.25-4.18.06-8.39.58-12.55l2.82-5.42z"/><path fill="#4a4a4a" d="M315.17 203.06l3.9 3.78c-.27 3.68-.57 7.36-1.01 11.02-.88 2.01-1.93 3.96-3.2 5.76a204.05 204.05 0 0 1-3.87-10.71l1.39-.72 1.32-.74c-.41-1.73-.91-3.44-1.55-5.09l3.02-3.3z"/><path fill="#737474" d="M224.62 204.22l3.41 1.67-2.82 5.42c-1.54 1.71-3.22 3.28-4.9 4.85l.42-4.31c1.02-2.67 2.42-5.18 3.89-7.63z"/><path fill="#262623" d="M290.2 204.73c1.68.11 3.6-.12 4.9 1.21 4.27 3.63 7.6 8.74 13.38 10.15.76 2.62 1.73 5.18 2.65 7.76l-1.61 1.34-.89-3.65c-1.83-1.15-3.67-2.29-5.38-3.61-4.37-4.38-8.37-9.13-13.05-13.2z"/><path fill="#88847d" d="M259.49 205.11l1.21-.31 3.2 3.46.09 1.4 3.6-3.75c3.76 6.32 10.3 10 15.15 15.31 3.84 4.97 6.42 10.78 9.28 16.35.21 1.74.31 3.5.43 5.26l-2.5.45c-2.32-6.1-4.82-12.23-8.69-17.53l-4.8-6.83c-.98-1.1-1.99-2.18-3.1-3.14a24.73 24.73 0 0 0-9.17-4.14c-1.63-2.14-3.18-4.32-4.7-6.53z"/><path fill="#6a6c64" d="M290.2 204.73c4.68 4.07 8.68 8.82 13.05 13.2-.45 2.98-.09 6.59-2.68 8.7-2.67 2.53-5.17 5.22-7.18 8.31-2.29-3.8-4.32-7.75-6.51-11.6l4.75-5.5c1.17 2.07 2.27 4.2 3.76 6.07 2.19.44 3.58-1.82 5.24-2.85-2.41-2.14-5.1-4.06-7.03-6.68-1.92-2.89-2.47-6.38-3.4-9.65z"/><path fill="#5c5a54" d="M267.59 205.91c5.98 1.61 9.99 6.69 14.3 10.77l1.13 1.12c1.4 1.76 2.69 3.62 3.86 5.54 2.19 3.85 4.22 7.8 6.51 11.6 2.01-3.09 4.51-5.78 7.18-8.31 2.59-2.11 2.23-5.72 2.68-8.7 1.71 1.32 3.55 2.46 5.38 3.61l.89 3.65c-3.53 3.68-6.99 7.53-11.49 10.05-1.85 1.12-3.76 2.1-5.68 3.08l-.33-.75c-2.86-5.57-5.44-11.38-9.28-16.35-4.85-5.31-11.39-8.99-15.15-15.31z"/><path fill="#7f7f80" d="M242.21 208.03c4.35.03 8.7.5 13.04-.13l.37 2.14a58.53 58.53 0 0 0-10.83.47l.24 2.06c-1.88-.36-3.78-.66-5.69-.67l-1.34-.05-.96-2.88c1.72-.34 3.44-.69 5.17-.94z"/><path fill="#6b6e6e" opacity=".96" d="M215.02 211.92l2.89-4.1-.85 5.76c-1.14.71-2.23 1.5-3.29 2.34l1.25-4z"/><path fill="#5a5b54" d="M220.31 216.16l4.9-4.85c-.52 4.16-.33 8.37-.58 12.55-.26 1.73-.62 3.45-.97 5.17l-1.16.12-1.9.2-.11-.46c-.3-1.28-.65-2.55-.99-3.81l-1 4.32c-3.11.87-5.32 3.23-7.75 5.21l-1.31.21c-.43-2.23-.66-4.49-.92-6.74l-4.16.39.55 9.37-2.83 3.14c.58-2.72 1.19-5.44 1.34-8.22.26-2.3.08-4.89 1.68-6.77 2.73-3.49 5.98-6.54 8.67-10.07 1.06-.84 2.15-1.63 3.29-2.34 1.2-.63 2.43-1.18 3.67-1.73-.19 1.43-.3 2.87-.42 4.31z"/><path fill="#9b9990" d="M239.34 211.9c1.91.01 3.81.31 5.69.67-1.3 2.58-2.3 5.36-2.21 8.29l-5.07-1.82c-.75 1.68-3.01 3.5-1.7 5.44 2.02 1.54 4.73 1.49 7.13 1.91l1.43 5.19.51 3.51c-2.37 2.72-4.39 5.71-6.67 8.5-.72 1.05-1.95 1.83-3.25 1.38-2.37-.56-2.78-3.38-3.42-5.34.14-2.83.69-5.68.3-8.51-.73-1.87-2-3.45-3.07-5.13-.48-1.75-1.18-3.65-.54-5.44.93-2.46 2.59-4.53 4.06-6.66l1.15 3.11.63-3.53c1.65-.6 3.34-1.08 5.03-1.57m-3 16.36v.44h.44v-.44h-.44z"/><path fill="#85847d" d="M250.09 212.02c3.15-1.07 6.55-.71 9.82-.75.99 3.48 2.16 6.94 2.6 10.55.36 3.27-.32 6.51-.55 9.76-.34 3.92.05 7.85.21 11.77-3.04 4.42-5.91 9.58-11.16 11.67-6.17 2.9-12.99.46-19.47.95l-1.63-.03c2.4 2.6 4.84 5.34 8.08 6.93 2.82 1.4 6.06 1.17 9.11 1.16l.12 1.84-9.88 1.84c-1.96-2.11-4.17-3.96-6.29-5.9-2.56-2.35-4.83-5.36-4.84-8.99l4.92 1.35-.06-.89c.07-4.56.38-9.1.71-13.65.64 1.96 1.05 4.78 3.42 5.34 1.3.45 2.53-.33 3.25-1.38 2.28-2.79 4.3-5.78 6.67-8.5l4.23-.15-1.2 2.8c1.89-.41 3.91-.58 5.61-1.58 1.48-1.05 1.44-3.16 1.07-4.74-1.03-3.77-3.3-7.02-4.79-10.6-.46-2.11-.94-4.22-1.28-6.35.38-.85.82-1.67 1.33-2.45m.61 37.75c-2.42-.67-4.83-1.72-7.37-1.58-1.52.44-3.51 1.81-2.06 3.48 3.62 1.76 7.72.99 11.45.06.96-4.55 1.66-9.2 1.17-13.86-3.28 3.11-3.23 7.72-3.19 11.9z"/><path fill="#878882" d="M284.52 212.48c2.07-.95 4.37-1.15 6.59-1.56-1.17 2.74-2.51 5.4-3.97 8l-4.12-1.12-1.13-1.12c.8-1.44 1.5-2.97 2.63-4.2z"/><path fill="#a4a6a8" d="M242.82 220.86c-.09-2.93.91-5.71 2.21-8.29l.25 2.52c.37 5.5.21 11.04-.67 16.49-.46-1.73-1.01-3.44-1.43-5.19-.22-1.84-.33-3.68-.36-5.53z"/><path fill="#626467" d="M308.04 214.35l2.95-1.44a204.05 204.05 0 0 0 3.87 10.71l-3.73.23-2.65-7.76-.44-1.74z"/><path fill="#787e8c" d="M244.61 231.58c.88-5.45 1.04-10.99.67-16.49l3.48-.62c.34 2.13.82 4.24 1.28 6.35.37 4.69.6 9.53-.69 14.12l-4.23.15-.51-3.51z"/><path fill="#737373" d="M273.36 215.78c1.11.96 2.12 2.04 3.1 3.14l-.99 8.45-.7.18-.11-1.39-.69-.29-1.3.72-1.81 1.51 1.69 2.94-4.63 1.53 1.8-6.26-4.75-1.79 1.02-6.58 1.68 4.37c2.29-1.8 4.2-4.03 5.69-6.53z"/><path opacity=".11" d="M318.06 217.86l3.14 3.19 2.12-2.25c2.63 2.46 5.52 4.62 8.59 6.49l2.67-3.8 2.63 1.04c-.08 4.89 2.68 10.07.2 14.72-1.47 3.12-2.54 6.41-3.23 9.78-1.87-1.82-4.65-3.67-4.12-6.67 1.13-1.46 2.54-2.66 3.89-3.91l-2.02-5.86-.72 5.96c-1.11-.03-2.2-.21-3.28-.37-.87-1.16-1.35-2.56-2-3.84l-2.24.1c.68 4.2 3.63 7.42 5.88 10.86-2.17 1.24-4.48 3.34-7.17 2.57-3.54-1.27-6.09-4.21-8.64-6.82-.32 2.12.32 5.21-2.12 6.24-2.44 0-4.82-.69-7.25-.84-1.48 1.63-2.23 3.75-2.97 5.78-.31-2.45-.76-4.87-1.42-7.24-.73-1.22-1.51-2.4-2.27-3.58a83.46 83.46 0 0 1 .3-4.17c4.5-2.52 7.96-6.37 11.49-10.05l1.61-1.34c1.24-.05 2.49-.1 3.73-.23 1.27-1.8 2.32-3.75 3.2-5.76z"/><path fill="#8c8880" d="M237.75 219.04l5.07 1.82.36 5.53c-2.4-.42-5.11-.37-7.13-1.91-1.31-1.94.95-3.76 1.7-5.44z"/><path fill="#989695" d="M250.04 220.82c1.49 3.58 3.76 6.83 4.79 10.6.37 1.58.41 3.69-1.07 4.74-1.7 1-3.72 1.17-5.61 1.58l1.2-2.8c1.29-4.59 1.06-9.43.69-14.12z"/><path fill="#6a6c6b" d="M224.63 223.86l2.45 2.97 1.93-.84c1.07 1.68 2.34 3.26 3.07 5.13.39 2.83-.16 5.68-.3 8.51-.33 4.55-.64 9.09-.71 13.65-.4-1.74-.88-3.46-1.34-5.18l-3.29.87c-.1 1.28-.2 2.56-.23 3.85.01 3.63 2.28 6.64 4.84 8.99l-2.3 1.29c-3.52-4.7-5.26-10.38-8.19-15.4 1.96-3.38 3.77-6.86 5.24-10.48-.84-2.69-1.05-5.5-.69-8.29l-1.45.1c.35-1.72.71-3.44.97-5.17z"/><path fill="#858583" d="M219.5 225.08l.99 3.81c.69 4.79.61 9.7-.46 14.43l-.75.16c-.59-2.58-1.24-5.16-1.62-7.78.14-2.12.47-4.22.84-6.3.31-1.45.65-2.89 1-4.32z"/><path fill="#c7c5c7" d="M272.67 226.59l1.3-.72.69.29.11 1.39-.81.16-1.29-1.12z"/><path fill="#6a6b64" d="M204.36 228.47l4.16-.39.92 6.74 1.31-.21c2.43-1.98 4.64-4.34 7.75-5.21l-.84 6.3-2.57-1.43.3 6.04-5.14-1.1c-.07 4.27-.06 8.55.29 12.81-1.06-2.57-2.58-4.92-4.08-7.26-.15 3.53-.09 7.18 1.34 10.48 2.73 6.49 5.78 13.1 10.92 18.07 3.16 3.03 6.45 5.94 9.66 8.93l-3.15 1.42c-2.09-.66-4.18-1.26-6.29-1.85-.12-1.73-.15-3.49-.58-5.18-.9-1.95-2.52-3.44-3.89-5.05-3.46-3.7-5.85-8.22-7.9-12.81l-2.56-5.6c-2.19 3.96-5.43 7.42-6.78 11.79 1.22 3.85 4.14 6.83 6.4 10.09-.19 1.07-.36 2.15-.52 3.23-2.31-4.8-5.25-9.32-9.02-13.11 2.44-3.17 4.65-6.51 6.58-10.01l-2.63-.41c1.54-1.67 3.28-3.22 4.34-5.25.49-2.82-.1-5.69-.3-8.52l2.83-3.14-.55-9.37z"/><path fill="#4c4f4d" d="M220.6 229.35l1.9-.2 1.16-.12 1.45-.1c-.36 2.79-.15 5.6.69 8.29-1.47 3.62-3.28 7.1-5.24 10.48l-1.12-1.15c-.86-.89-1.75-1.75-2.64-2.61l2.48-.46.75-.16c1.07-4.73 1.15-9.64.46-14.43l.11.46z"/><path fill="#cdcac0" d="M236.34 228.26h.44v.44h-.44v-.44z"/><path fill="#89878b" d="M274.08 230.24h.82l.41.72-.41.71h-.83l-.41-.72.42-.71z"/><path fill="#2c2d2f" d="M271.63 238.46c.06-2.4.66-4.74 1.19-7.07.11 2.96.03 5.92-.15 8.88l-1.04-1.81z"/><path fill="#60615f" d="M215.09 234.27l2.57 1.43c.38 2.62 1.03 5.2 1.62 7.78l-2.48.46 2.64 2.61c.75 4.52 1.66 9.09 3.74 13.22 2.13 4.24 4.36 8.85 8.61 11.36 3.94 2.35 7.97 4.58 11.57 7.46l2.69-1.44c-6.41-3.8-13.27-7.52-17.3-14.05l2.3-1.29c2.12 1.94 4.33 3.79 6.29 5.9l.53.56c1.3 1.92 2.59 4.02 4.84 4.97 3.54 1.6 6.29 4.36 9.27 6.78l2.17 1.62-4.09.87-4.45-3.21c-2.85 1.23-5.61 2.74-7.89 4.88l-1.04.92c.33 1.13.71 2.25 1.09 3.38l-2.57.5-1.44-.21.47-2.22c-1.35-.89-2.69-1.78-3.99-2.74l3.79-.03c-3.43-4.15-7.64-7.52-11.4-11.33-3.7-3.63-4.96-8.89-8.35-12.75-1.97-2.16-3.35-4.77-3.74-7.68-.35-4.26-.36-8.54-.29-12.81l5.14 1.1-.3-6.04z"/><path fill="#7a4445" d="M264.64 236.88c1.08-.88 1.63-3.01 3.23-2.84l.38 4.15-3.61-1.31z"/><path fill="#4d4b47" d="M292.35 238.32l5.68-3.08-.3 4.17c-.08 2.22.01 4.44.13 6.65l2.14-3.07c.66 2.37 1.11 4.79 1.42 7.24.69 6.6-.35 13.18-.33 19.77l-2.95-.07-.24 3.07 3.96-1.28.33.81c.1 4.76.5 9.51.95 14.26.24 2.16-.17 4.32-.74 6.41-.24-6.18-1.21-12.31-2.13-18.42l-2.31 2.51c-1.22-1.52-2.42-3.04-3.53-4.64 1.16-2.31 2.57-4.56 3.09-7.12.34-2.47-.1-4.96-.35-7.42-1.96 1.62-3.89 3.29-5.82 4.96l1.8-8.65 1.26-.7 4.49 1.29c.44 1.84.97 3.66 1.49 5.49 1.48-4.25.76-8.71-.84-12.8-.38 1.88-.75 3.76-1.02 5.65-1.29-1.02-2.63-1.98-3.95-2.95 0-4.13-.41-8.32-2.23-12.08z"/><path fill="#827d77" d="M275.27 237.07l1.7-1.1c1.76 3.73 3.92 7.46 4.17 11.67.22 3.98.47 7.95 1.09 11.89l-.87 1.62-2.36-6.22-.28-.76c-.78-5.77-1.88-11.49-3.45-17.1z"/><path fill="#9b9991" d="M250.7 249.77c-.04-4.18-.09-8.79 3.19-11.9.49 4.66-.21 9.31-1.17 13.86-3.73.93-7.83 1.7-11.45-.06-1.45-1.67.54-3.04 2.06-3.48 2.54-.14 4.95.91 7.37 1.58z"/><path fill="#68655f" d="M292.45 242.83l-.43-5.26.33.75c1.82 3.76 2.23 7.95 2.23 12.08l3.95 2.95.37 1.66-4.49-1.29-1.26.7-2.94 1.61c.1-1.69.11-3.39.06-5.08-.06-2.56-.08-5.12-.32-7.67l2.5-.45z"/><path fill="#3f3f3f" d="M269.67 249.65c1.48-3.53 1.35-7.46 1.96-11.19l1.04 1.81c1.61 4.8 3.57 9.47 6.05 13.9l.28.76-1.07 1.23.36 5.91c-4.79-.07-9.57.81-13.91 2.88l-2.38-.67c2.9-2.57 5.15-5.78 6.31-9.5-2.07.27-4.14.56-6.17 1.02l-1.35.9-1.12-.8 2-4.14c2.66-.34 6.19.34 8-2.11z"/><path fill="#5d5957" opacity=".87" d="M297.86 246.06l-.13-6.65 2.27 3.58-2.14 3.07z"/><path fill="#42413f" d="M201.62 248.87c-.04-2.64-.04-5.29.46-7.89.2 2.83.79 5.7.3 8.52-1.06 2.03-2.8 3.58-4.34 5.25l-2.76-.44-3.34-3.14 1.89-2.59 7.79.29z"/><path fill="#6a6a65" d="M251.01 255.02c5.25-2.09 8.12-7.25 11.16-11.67.07 2.8-.07 5.62-.5 8.41-.63 1.39-1.31 2.76-2 4.14l1.12.8c-.89 1.64-1.67 3.35-2.42 5.06 1.48-.19 3.26.27 4.43-.92-.04-1.7-.38-3.38-.66-5.04 2.03-.46 4.1-.75 6.17-1.02-1.16 3.72-3.41 6.93-6.31 9.5-3.69-.36-7.26.8-10.72 1.89l1.2 3.38c-4.88-.28-9.79-.38-14.61-1.28l-.53-.56 9.88-1.84-.12-1.84.11-1.1c3.73.33 7.44-.39 11.01-1.41-.34-1.39-.76-2.76-1.34-4.06l-.26 3.38c-4.31-2.18-9.14-1.52-13.76-1.25-4.12.3-7.69-2.07-11.32-3.62 6.48-.49 13.3 1.95 19.47-.95z"/><path fill="#8d8a81" d="M207.8 255.24c-1.43-3.3-1.49-6.95-1.34-10.48 1.5 2.34 3.02 4.69 4.08 7.26.39 2.91 1.77 5.52 3.74 7.68 3.39 3.86 4.65 9.12 8.35 12.75 3.76 3.81 7.97 7.18 11.4 11.33l-3.79.03-1.86-1.57-9.66-8.93c-5.14-4.97-8.19-11.58-10.92-18.07z"/><path fill="#4f504d" d="M284.51 253.5c.11-3.04.21-6.18 1.82-8.87l3.94 6.32-.06 5.08c-.98 4.1-3.87 7.25-7.05 9.83l3.72.57c-2.42 2.29-4.91 4.49-7.43 6.67l.16-3.77c-4.49.84-8.78 2.45-12.82 4.57l.44-2.47c3.75-1.79 7.34-4 10.1-7.16-5.52 1.68-10.53 4.56-15.52 7.38-2.16.52-4.34-.05-6.39-.73 2.83-2.22 5.78-4.29 8.96-5.97 4.34-2.07 9.12-2.95 13.91-2.88-.15-1.97-.21-3.94-.36-5.91.27-.3.8-.92 1.07-1.23l2.36 6.22.87-1.62c1.06-1.88 2.31-3.79 2.28-6.03z"/><path fill="#8d8a83" d="M219.44 246.55l1.12 1.15c2.93 5.02 4.67 10.7 8.19 15.4 4.03 6.53 10.89 10.25 17.3 14.05l-2.69 1.44c-3.6-2.88-7.63-5.11-11.57-7.46-4.25-2.51-6.48-7.12-8.61-11.36-2.08-4.13-2.99-8.7-3.74-13.22z"/><path fill="#505252" d="M226.44 248.97l3.29-.87 1.34 5.18.06.89-4.92-1.35.23-3.85z"/><path fill="#7a7775" d="M299.55 247.7c1.6 4.09 2.32 8.55.84 12.8l-1.49-5.49-.37-1.66c.27-1.89.64-3.77 1.02-5.65z"/><path fill="#5b5c5a" d="M188.66 250.66c.99-1.88 3.38-1.69 5.17-2.08l-1.89 2.59 3.34 3.14-1.81 4.32-5.82.55 1.12 4.51.31 3.77c-1.09-1.39-2.31-2.66-3.51-3.95.87-4.3.8-8.98 3.09-12.85z"/><path fill="#82837b" d="M197.23 264.96c1.35-4.37 4.59-7.83 6.78-11.79l2.56 5.6c-2.88.33-5.26 1.91-7.06 4.11l5.1 2.03c.23 2.16.32 4.36.94 6.46 1.28 1.12 2.79 1.95 4.23 2.85l4.69-2.64c1.37 1.61 2.99 3.1 3.89 5.05.43 1.69.46 3.45.58 5.18l6.29 1.85c-2.14 1.08-4.22 2.25-6.31 3.41-4.67.76-9.54.23-13.68-2.15-.78-2.2-1.45-4.42-2.13-6.64l.52-3.23c-2.26-3.26-5.18-6.24-6.4-10.09z"/><path fill="#535351" d="M195.28 254.31l2.76.44 2.63.41c-1.93 3.5-4.14 6.84-6.58 10.01l-4.73 2.89-.28-.6-.31-3.77c1.67-1.59 3.31-3.22 4.7-5.06.68-1.41 1.24-2.87 1.81-4.32z"/><path fill="#706f68" d="M290.21 256.03l2.94-1.61-1.8 8.65 5.82-4.96c.25 2.46.69 4.95.35 7.42-.52 2.56-1.93 4.81-3.09 7.12l-2.37-3.57c-.06-1.38-.15-2.76-.39-4.11-2.75 1.32-4.68 3.75-6.86 5.8-1.52 1.51-3.22 2.87-4.51 4.59-.03 1.31.16 2.61.3 3.91 3.66-1.91 7.06-4.37 9.7-7.58 3.05 2.44 2.98 6.43 3.06 9.96l-5.2 1.77c.82 1.46 1.54 3 2.63 4.29 2.71 1.24 5.81 1.06 8.72 1.41l-1.55-11.83 2.31-2.51c.92 6.11 1.89 12.24 2.13 18.42l-.97 3.94c-6.96.03-14.09.29-20.65 2.86l-9.2-1.19c-.46-3-1.01-5.99-1.08-9.02 2.03-1.45 4.03-3.05 6.42-3.88 2.88-.85 5.93-.64 8.91-.67l4.46-6.92c-3.47.75-7 1.34-10.33 2.6-2.37.81-3.91 2.88-5.56 4.64l-1.14-2.28-.39-5.24c-6.33.7-12.52 2.21-18.72 3.6l-2.17-1.62.74-.06c6.46-1.12 12.86-2.59 19.21-4.22-3.72-.33-7.31-1.57-10.12-4.09 4.99-2.82 10-5.7 15.52-7.38-2.76 3.16-6.35 5.37-10.1 7.16l-.44 2.47c4.04-2.12 8.33-3.73 12.82-4.57l-.16 3.77c2.52-2.18 5.01-4.38 7.43-6.67l-3.72-.57c3.18-2.58 6.07-5.73 7.05-9.83m-16.9 36.93c4.48 4.44 11.22 3.5 16.76 2.14 1.19-.98 1.53-2.59 2.29-3.86-4.95-.36-9.91-.79-14.88-.64-1.74-.09-2.87 1.46-4.17 2.36z"/><path fill="#544e48" d="M229.91 255.94l1.63.03c3.63 1.55 7.2 3.92 11.32 3.62 4.62-.27 9.45-.93 13.76 1.25l.26-3.38c.58 1.3 1 2.67 1.34 4.06-3.57 1.02-7.28 1.74-11.01 1.41l-.11 1.1c-3.05.01-6.29.24-9.11-1.16-3.24-1.59-5.68-4.33-8.08-6.93z"/><path fill="#818181" d="M260.79 256.7l1.35-.9c.28 1.66.62 3.34.66 5.04-1.17 1.19-2.95.73-4.43.92l2.42-5.06z"/><path fill="#71716f" d="M187.65 259.18c1.93-.29 3.87-.45 5.82-.55-1.39 1.84-3.03 3.47-4.7 5.06l-1.12-4.51z"/><path fill="#98988f" d="M199.51 262.88c1.8-2.2 4.18-3.78 7.06-4.11 2.05 4.59 4.44 9.11 7.9 12.81l-4.69 2.64c-1.44-.9-2.95-1.73-4.23-2.85-.62-2.1-.71-4.3-.94-6.46l-5.1-2.03z"/><path fill="#8c8d90" d="M185.57 263.51l3.51 3.95.28.6 1.07 2.19c1.67 3.34 3.56 6.69 6.5 9.09l-1.45 2.39c-1.05-1.21-2.11-2.41-3.11-3.66-3.08-4.1-5.68-8.64-6.96-13.65l.16-.91z"/><path fill="#343636" d="M251.28 266.17c3.46-1.09 7.03-2.25 10.72-1.89l2.38.67c-3.18 1.68-6.13 3.75-8.96 5.97l-3.23 2.44-.46 3.32-1.01 1.49-2.1-4.23c1.32-1.43 2.65-2.86 3.86-4.39-.37-1.14-.79-2.26-1.2-3.38z"/><path fill="#6f7172" d="M183.98 267.33l1.43-2.91c1.28 5.01 3.88 9.55 6.96 13.65l-3.78 1.6c-1.59-2.24-3.15-4.51-4.54-6.89-.38-1.8-.25-3.65-.07-5.45z"/><path fill="#373632" d="M189.36 268.06l4.73-2.89c3.77 3.79 6.71 8.31 9.02 13.11.68 2.22 1.35 4.44 2.13 6.64 1.28 3.33 2.83 6.56 4.27 9.84l-.19.7c-3.1-2.36-5.5-5.52-6.63-9.27l-2.09-5.59c-1.57-4.81-4.09-9.31-7.99-12.61l-2.18 2.26-1.07-2.19z"/><path fill="#434644" d="M183.21 277.99c.05-3.56-.09-7.18.77-10.66-.18 1.8-.31 3.65.07 5.45 1.97 6.32 6.32 11.69 7.44 18.32l-4.43 2.36 2.08 2.29-2.98-.25-.08 2.14c-.09 2.52-.16 5.05-.12 7.58-.48-4.32-1.34-8.58-2.16-12.84-.89-4.75-.58-9.59-.59-14.39z"/><path fill="#58544d" d="M192.61 267.99c3.9 3.3 6.42 7.8 7.99 12.61-1.24-.4-2.47-.8-3.67-1.26-2.94-2.4-4.83-5.75-6.5-9.09l2.18-2.26z"/><path fill="#454543" d="M237.87 268.27c4.82.9 9.73 1 14.61 1.28-1.21 1.53-2.54 2.96-3.86 4.39l2.1 4.23 1.01-1.49c.31 1.09.64 2.19.99 3.28l-.74.06c-2.98-2.42-5.73-5.18-9.27-6.78-2.25-.95-3.54-3.05-4.84-4.97z"/><path fill="#5c5b57" d="M290.3 271.69l1.76-2.61 2.37 3.57 3.53 4.64 1.55 11.83c-2.91-.35-6.01-.17-8.72-1.41-1.09-1.29-1.81-2.83-2.63-4.29l5.2-1.77c-.08-3.53-.01-7.52-3.06-9.96z"/><path fill="#7b756f" d="M298.14 269.93l2.95.07.77 1.72-3.96 1.28.24-3.07z"/><path fill="#5e5c57" d="M252.19 273.36l3.23-2.44c2.05.68 4.23 1.25 6.39.73 2.81 2.52 6.4 3.76 10.12 4.09-6.35 1.63-12.75 3.1-19.21 4.22-.35-1.09-.68-2.19-.99-3.28l.46-3.32z"/><path fill="#525454" d="M184.05 272.78c1.39 2.38 2.95 4.65 4.54 6.89 1.11 1.48 2.24 2.99 3.69 4.16 1.51-.16 2.97-.65 4.45-1l4.66 4.12.22 5.6-5.81-.2c1.72 1.84 3.35 3.84 5.46 5.26 1.14.81 2.44-.19 3.65-.28 1.27-.09 2.54-.03 3.82-.03l.59-1.84.19-.7 3.17 3.34-2.58 3.74c-1.43 1.9-2.65 4.32-5.07 5.11-2.04.74-4.18 1.16-6.32 1.52l-7.27-2.81-.88-8.76-2.52 5.25-1.96-4.51.08-2.14 2.98.25 3.05.22-.7-4.87c-1.12-6.63-5.47-12-7.44-18.32z"/><path fill="#7d7f81" d="M192.37 278.07l3.11 3.66 1.45-2.39 3.67 1.26 2.09 5.59-1.3.76-4.66-4.12c-1.48.35-2.94.84-4.45 1-1.45-1.17-2.58-2.68-3.69-4.16l3.78-1.6z"/><path fill="#5d5f59" d="M279.96 280.92c3.33-1.26 6.86-1.85 10.33-2.6l-4.46 6.92c-2.98.03-6.03-.18-8.91.67-2.39.83-4.39 2.43-6.42 3.88l-.02-2.61-2.47-.27c-3.46-.32-6.94-.31-10.4-.17 4.98-2.07 10.3-3.04 15.65-3.46l1.14 2.28c1.65-1.76 3.19-3.83 5.56-4.64z"/><path fill="#454743" d="M225.23 283.66l3.15-1.42 1.86 1.57 3.99 2.74-.47 2.22c-3.08-.41-6.2-.45-9.31-.43l-2.25 8.54c-1.77 1.84-3.72 3.49-5.85 4.9l-6.25.06 2.58-3.74c2.24-.81 4.73-1.26 6.61-2.8 1.38-1.5 2.26-3.35 3.27-5.09l-7.41 4.77c.75-2.85 1.69-5.74 3.77-7.91l6.31-3.41z"/><path fill="#616159" d="M205.24 284.92c4.14 2.38 9.01 2.91 13.68 2.15-2.08 2.17-3.02 5.06-3.77 7.91 2.5-1.54 4.94-3.18 7.41-4.77-1.01 1.74-1.89 3.59-3.27 5.09-1.88 1.54-4.37 1.99-6.61 2.8-1.07-1.11-2.15-2.2-3.17-3.34-1.44-3.28-2.99-6.51-4.27-9.84z"/><path fill="#71736c" d="M236.68 285.1l1.04-.92c3.33.8 6.46 2.32 8.93 4.73-3.73 1.47-7.71 1.43-11.45.07l2.57-.5-1.09-3.38z"/><path fill="#646567" d="M201.39 286.95l1.3-.76c1.13 3.75 3.53 6.91 6.63 9.27l-.59 1.84c-1.28 0-2.55-.06-3.82.03-1.21.09-2.51 1.09-3.65.28-2.11-1.42-3.74-3.42-5.46-5.26l5.81.2-.22-5.6z"/><path fill="#020201" opacity=".74" d="M268.01 286.91l2.47.27.02 2.61c.07 3.03.62 6.02 1.08 9.02.84 7.01 1.18 14.1 2.79 21 .96 4.34 1.73 8.72 2 13.16-.19 2.95-.63 5.88-.76 8.84-1.03 8.43.61 16.83.7 25.26l-3.09-.56c1.15-9.75 1.71-19.61.67-29.39-.45-3.75-.3-7.52-.08-11.28.28-4.32-.79-8.54-1.73-12.71-2.03-8.63-2.31-17.54-4.07-26.22z"/><path fill="#8c8e85" d="M273.31 292.96c1.3-.9 2.43-2.45 4.17-2.36 4.97-.15 9.93.28 14.88.64-.76 1.27-1.1 2.88-2.29 3.86-5.54 1.36-12.28 2.3-16.76-2.14z"/><path fill="#353836" d="M187.06 293.46l4.43-2.36c.32 1.61.47 3.24.7 4.87l-3.05-.22-2.08-2.29z"/><path fill="#63625d" d="M190.56 296.9l.88 8.76 7.27 2.81 4.51 2.15c-3.11.21-6.23.08-9.34-.04l3.2 3.73-4.53.84c-1.65-.82-3.36-1.5-5.07-2.19l-1.03 3.13c-.07-3.63-.16-7.26-.49-10.87-.04-2.53.03-5.06.12-7.58.72 1.47 1.28 3.02 1.96 4.51l2.52-5.25z"/><path opacity=".75" d="M216.35 301.78c2.13-1.41 4.08-3.06 5.85-4.9-.19 2.22-.14 4.46-.62 6.65-1.67 2.75-5.02 3.65-7.76 4.97l.64-5.29 1.89-1.43z"/><path fill="#5e5f5e" d="M280.78 300c6.56-2.57 13.69-2.83 20.65-2.86l-.12 1.85-3.01-1.36c-1.52 5.3-1.58 10.88-1.28 16.35-.04 2.08 1.53 3.6 2.64 5.19-.25.77-.49 1.55-.71 2.34l-3.96-1.31c-3.17-1.07-6.29-2.56-9.69-2.66-3.78-.29-7.52.7-10.93 2.27-1.61-6.9-1.95-13.99-2.79-21 3.07.35 6.13.77 9.2 1.19z"/><path fill="#464746" d="M297.02 313.98c-.3-5.47-.24-11.05 1.28-16.35l3.01 1.36c-.06 6.74.91 13.74-1.65 20.18-1.11-1.59-2.68-3.11-2.64-5.19z"/><path fill="#7e6354" d="M210.1 301.84l6.25-.06-1.89 1.43-1.58 1.69c-2.74 2.6-6.07 4.54-9.66 5.72-1.5-.74-2.99-1.48-4.51-2.15 2.14-.36 4.28-.78 6.32-1.52 2.42-.79 3.64-3.21 5.07-5.11z"/><path fill="#525351" d="M203.22 310.62c3.59-1.18 6.92-3.12 9.66-5.72-.65 4.53-1.08 9.08-1.48 13.63l-1.94 1.49c-1.11-1.26-2.22-2.51-3.41-3.68-1.08-.81-2.19-.71-3.33.3-2.47.42-4.98.56-7.46.91-.89-.82-1.8-1.62-2.71-2.4l4.53-.84-3.2-3.73c3.11.12 6.23.25 9.34.04z"/><path fill="#838282" d="M187.48 312.96l5.07 2.19 2.71 2.4-3.74 2.14-1.68-.45-3.39-3.15 1.03-3.13z"/><path fill="#919093" d="M202.72 316.64c1.14-1.01 2.25-1.11 3.33-.3.43 2.31-3.23 2.55-3.33.3z"/><path fill="#6d6d6c" d="M206.05 316.34l3.41 3.68-1.35 1.02c-5.56.6-11.2.15-16.59-1.35 1.23-.74 2.46-1.48 3.74-2.14 2.48-.35 4.99-.49 7.46-.91.1 2.25 3.76 2.01 3.33-.3z"/><path fill="#83867e" d="M274.37 319.81c3.41-1.57 7.15-2.56 10.93-2.27 3.4.1 6.52 1.59 9.69 2.66-.13 2.89.06 5.86-.8 8.66-1.05 2.82-3.22 4.99-5.11 7.25-3.25.06-6.57.45-9.76-.31-1.23-.66-2.05-1.82-2.95-2.83-.27-4.44-1.04-8.82-2-13.16z"/><path fill="#454646" opacity=".83" d="M189.84 319.24l1.68.45c5.39 1.5 11.03 1.95 16.59 1.35-2.08 1.51-3.95 3.51-6.46 4.28-2.58.36-5.18-.32-7.63-1.05 3.53.33 7.08-.11 10.54-.87-4.4-.64-8.82-1.06-13.23-1.61l-1.49-2.55z"/><path fill="#6d6e67" d="M294.99 320.2l3.96 1.31c-1 4.82-1.49 9.74-2.86 14.48l-2.09-.05c-1.64.02-3.28.09-4.92.17 1.89-2.26 4.06-4.43 5.11-7.25.86-2.8.67-5.77.8-8.66z"/><path fill="#716e6a" opacity=".93" d="M191.33 321.79l13.23 1.61c-3.46.76-7.01 1.2-10.54.87-1.05-.66-1.88-1.57-2.69-2.48z"/><path fill="#616260" d="M275.61 341.81l.76-8.84c.9 1.01 1.72 2.17 2.95 2.83 3.19.76 6.51.37 9.76.31l4.92-.17c-.05 4.4.24 8.82-.22 13.2-.47 4.73-3.33 8.7-4.88 13.09l-.84-2.61.7-5.35-4.77-.01-3.66.02-1.35 4.58c-1.41-5.63-2.02-11.41-3.37-17.05m5.21 4.26c.96 1.06 1.65 2.5 2.98 3.16 1.63.42 3.33.36 5.01.44-.46-1.64-.81-3.3-1.28-4.93-2.36-.39-4.68.06-6.71 1.33z"/><path fill="#41413f" d="M294 335.94l2.09.05c1.43 1.07 3.25 2.01 3.93 3.77.63 2.43.59 4.98.86 7.47-.55-2.71-1.44-5.33-2.4-7.91-.5 5.89.88 11.67 1.75 17.46l-4.48-1.31c.76 1.42 1.54 2.84 2.39 4.21l-.7.51-.07.86c-.13 3.05-.48 6.09-1.18 9.06l2.54 2.3.62.52c-.66 1.91-1.19 3.87-1.8 5.81-1.19.97-2.41 1.89-3.69 2.73-.9-2.35-1.74-4.73-2.54-7.11l-3.36-1.39c1.38-3.42 1.8-7.14.94-10.74 1.55-4.39 4.41-8.36 4.88-13.09.46-4.38.17-8.8.22-13.2z"/><path fill="#5e5b58" opacity=".95" d="M300.23 356.78c-.87-5.79-2.25-11.57-1.75-17.46.96 2.58 1.85 5.2 2.4 7.91.33 4.51 2.15 8.84 1.88 13.39l-1.69 2.46c-.21-2.11-.53-4.21-.84-6.3z"/><path fill="#444443" d="M275.61 341.81c1.35 5.64 1.96 11.42 3.37 17.05 0 2.87-.14 5.77.35 8.62.46 2.73 2.63 4.67 4.31 6.71l-5.12-2.11-.45 4c-.13 1.4-.24 2.79-.3 4.2-.43-.11-1.27-.34-1.69-.46-.12-4.25.18-8.5.23-12.75-.09-8.43-1.73-16.83-.7-25.26z"/><path fill="#99989b" d="M280.82 346.07c2.03-1.27 4.35-1.72 6.71-1.33l1.28 4.93c-1.68-.08-3.38-.02-5.01-.44-1.33-.66-2.02-2.1-2.98-3.16z"/><path fill="#7f8284" d="M280.33 354.28l3.66-.02c.39 2.33.86 4.74.32 7.1-.45 2.92-1.78 5.77-1.51 8.76.6 1.43 2.16 2.17 3.24 3.23 1.64-4.46 0-9.34 2.02-13.73l.84 2.61c.86 3.6.44 7.32-.94 10.74-.9 2.65-1.58 5.38-2.14 8.13l5.2-.66-.14 1.66c-2.91.49-5.8-.2-8.42-1.48l-.38-4.04-4.01-.5c.12-1.34.28-2.67.45-4l5.12 2.11c-1.68-2.04-3.85-3.98-4.31-6.71-.49-2.85-.35-5.75-.35-8.62.41-1.54.89-3.06 1.35-4.58m3.13 20.88c-1.26 1.41 1.18 3.48 2.46 2.21 1.26-1.42-1.18-3.5-2.46-2.21z"/><path fill="#a2a1a5" d="M283.99 354.26l4.77.01-.7 5.35c-2.02 4.39-.38 9.27-2.02 13.73-1.08-1.06-2.64-1.8-3.24-3.23-.27-2.99 1.06-5.84 1.51-8.76.54-2.36.07-4.77-.32-7.1z"/><path fill="#1e1d1b" opacity=".64" d="M295.75 355.47l4.48 1.31.84 6.3-.88 1.31-1.27-3.17-.78-1.54-2.39-4.21z"/><path fill="#5d5750" opacity=".86" d="M297.44 360.19l.7-.51.78 1.54-1.55-.17.07-.86z"/><path fill="#524f4a" d="M297.37 361.05l1.55.17 1.27 3.17.88-1.31 1.69-2.46-.29 6.16c-.09 3.59.34 7.22-.23 10.79-1.53.51-3.12.83-4.69 1.17.61-1.94 1.14-3.9 1.8-5.81 1.25-.44 1.4-3.29-.34-2.21l-.28 1.69-2.54-2.3c.7-2.97 1.05-6.01 1.18-9.06z"/><path fill="#756f67" d="M299.01 370.72c1.74-1.08 1.59 1.77.34 2.21l-.62-.52.28-1.69z"/><path fill="#4c5055" d="M285.82 381.1c.56-2.75 1.24-5.48 2.14-8.13l3.36 1.39 2.54 7.11-2.98.63.14-1.66-5.2.66z"/><path fill="#9e9da1" d="M283.46 375.16c1.28-1.29 3.72.79 2.46 2.21-1.28 1.27-3.72-.8-2.46-2.21z"/><path fill="#5c6164" d="M278.07 376.08l4.01.5.38 4.04-4.69-.34.3-4.2z"/></svg>