<?xml version="1.0" encoding="UTF-8" ?>
<!DOCTYPE svg PUBLIC "-//W3C//DTD SVG 1.1//EN" "http://www.w3.org/Graphics/SVG/1.1/DTD/svg11.dtd">
<svg width="512pt" height="512pt" viewBox="0 0 512 512" version="1.1" xmlns="http://www.w3.org/2000/svg">
<g id="#595a59ff">
<path fill="#595a59" opacity="1.00" d=" M 215.01 175.54 C 218.07 174.29 220.82 176.51 223.78 176.85 C 226.77 177.24 229.80 177.35 232.76 177.99 C 230.95 181.28 228.25 183.92 225.30 186.19 C 225.65 187.21 226.10 188.19 226.48 189.20 C 223.49 190.31 220.24 189.05 218.34 186.60 C 216.82 184.37 213.77 186.87 214.06 189.01 C 212.83 192.92 215.27 196.44 215.33 200.24 C 213.13 199.93 210.88 199.85 208.75 199.19 C 206.09 197.67 206.12 194.21 205.39 191.60 C 204.32 186.63 205.60 179.92 210.94 177.95 C 210.59 179.91 210.27 181.88 210.09 183.86 C 213.32 182.87 215.91 180.49 217.88 177.82 C 218.13 176.02 216.24 175.99 215.01 175.54 M 207.36 193.68 C 208.51 194.21 209.72 194.62 210.95 194.95 C 211.29 192.39 211.63 189.81 211.61 187.23 C 211.20 186.88 210.38 186.17 209.96 185.81 C 208.17 187.99 207.55 190.93 207.36 193.68 Z" />
</g>
<g id="#848382ff">
<path fill="#848382" opacity="1.00" d=" M 210.94 177.95 C 212.28 177.13 213.61 176.27 215.01 175.54 C 216.24 175.99 218.13 176.02 217.88 177.82 C 215.91 180.49 213.32 182.87 210.09 183.86 C 210.27 181.88 210.59 179.91 210.94 177.95 Z" />
</g>
<g id="#4c4d4aff">
<path fill="#4c4d4a" opacity="1.00" d=" M 223.78 176.85 C 233.89 175.49 243.78 178.85 253.31 181.81 C 247.75 184.19 241.33 184.87 236.68 189.04 C 234.31 188.91 232.07 188.15 229.83 187.42 C 229.14 191.02 225.31 192.21 223.16 194.75 C 222.87 197.08 223.03 199.58 223.98 201.75 C 225.25 201.40 226.50 200.96 227.75 200.53 C 230.02 201.51 232.51 201.18 234.89 200.82 C 230.71 206.66 230.90 214.81 233.85 221.14 C 235.51 220.28 237.07 219.25 238.74 218.42 C 238.87 218.78 239.13 219.51 239.26 219.87 C 236.12 222.28 232.33 224.30 230.65 228.09 C 229.28 228.68 227.92 229.28 226.56 229.90 C 228.27 226.32 229.74 222.37 229.64 218.36 C 227.43 214.42 222.37 213.57 218.78 211.35 C 217.81 207.58 217.87 203.41 215.33 200.24 C 215.27 196.44 212.83 192.92 214.06 189.01 C 213.77 186.87 216.82 184.37 218.34 186.60 C 220.24 189.05 223.49 190.31 226.48 189.20 C 226.10 188.19 225.65 187.21 225.30 186.19 C 228.25 183.92 230.95 181.28 232.76 177.99 C 229.80 177.35 226.77 177.24 223.78 176.85 Z" />
</g>
<g id="#707272ff">
<path fill="#707272" opacity="1.00" d=" M 236.68 189.04 C 241.33 184.87 247.75 184.19 253.31 181.81 C 256.86 182.48 259.63 184.86 262.46 186.93 C 261.39 188.34 260.29 189.73 259.15 191.08 C 258.83 190.55 258.19 189.51 257.87 188.99 C 258.18 188.64 258.80 187.95 259.10 187.61 C 258.64 185.25 255.63 185.42 253.85 186.02 C 248.87 187.61 243.75 188.87 239.03 191.15 C 238.25 190.44 237.46 189.73 236.68 189.04 Z" />
</g>
<g id="#929397ff">
<path fill="#929397" opacity="1.00" d=" M 253.85 186.02 C 255.63 185.42 258.64 185.25 259.10 187.61 C 251.25 187.98 243.28 191.27 237.90 197.13 C 236.76 197.24 235.62 197.34 234.48 197.44 C 236.31 195.60 238.06 193.60 239.03 191.15 C 243.75 188.87 248.87 187.61 253.85 186.02 Z" />
<path fill="#929397" opacity="1.00" d=" M 297.74 309.76 C 300.42 308.29 301.56 304.97 304.48 303.85 C 304.26 305.20 304.07 306.55 303.89 307.90 C 298.94 312.91 292.06 315.28 286.44 319.42 C 285.53 318.20 284.84 316.85 284.25 315.47 C 289.39 315.44 293.42 312.07 297.74 309.76 Z" />
</g>
<g id="#696a69ff">
<path fill="#696a69" opacity="1.00" d=" M 265.66 186.46 C 267.61 185.45 269.63 184.16 271.94 184.49 C 278.28 184.84 284.67 186.95 289.62 191.00 C 289.01 193.24 286.70 191.50 285.15 191.56 C 283.28 192.42 282.05 194.41 280.06 194.96 C 277.86 193.47 276.11 191.43 274.04 189.78 C 273.33 191.21 272.74 192.70 272.05 194.14 C 271.27 190.64 268.79 188.04 265.66 186.46 Z" />
</g>
<g id="#808080ff">
<path fill="#808080" opacity="1.00" d=" M 207.36 193.68 C 207.55 190.93 208.17 187.99 209.96 185.81 C 210.38 186.17 211.20 186.88 211.61 187.23 C 211.63 189.81 211.29 192.39 210.95 194.95 C 209.72 194.62 208.51 194.21 207.36 193.68 Z" />
</g>
<g id="#5c5f60ff">
<path fill="#5c5f60" opacity="1.00" d=" M 229.83 187.42 C 232.07 188.15 234.31 188.91 236.68 189.04 C 237.46 189.73 238.25 190.44 239.03 191.15 C 238.06 193.60 236.31 195.60 234.48 197.44 C 231.87 197.51 229.56 198.69 227.75 200.53 C 226.50 200.96 225.25 201.40 223.98 201.75 C 223.03 199.58 222.87 197.08 223.16 194.75 C 225.31 192.21 229.14 191.02 229.83 187.42 Z" />
</g>
<g id="#5b5650ff">
<path fill="#5b5650" opacity="1.00" d=" M 237.90 197.13 C 243.28 191.27 251.25 187.98 259.10 187.61 C 258.80 187.95 258.18 188.64 257.87 188.99 C 257.41 189.12 256.47 189.39 256.01 189.53 C 255.13 190.79 254.97 192.67 253.42 193.34 C 248.60 195.70 243.25 196.89 237.90 197.13 Z" />
</g>
<g id="#c29072ff">
<path fill="#c29072" opacity="1.00" d=" M 262.46 186.93 C 263.52 186.78 264.59 186.62 265.66 186.46 C 268.79 188.04 271.27 190.64 272.05 194.14 C 271.36 195.38 270.28 196.30 269.31 197.30 C 266.47 196.84 263.35 196.89 261.00 194.99 C 260.39 193.68 259.78 192.37 259.15 191.08 C 260.29 189.73 261.39 188.34 262.46 186.93 Z" />
</g>
<g id="#31302cff">
<path fill="#31302c" opacity="1.00" d=" M 256.01 189.53 C 256.47 189.39 257.41 189.12 257.87 188.99 C 258.19 189.51 258.83 190.55 259.15 191.08 C 259.78 192.37 260.39 193.68 261.00 194.99 C 257.77 193.47 254.79 195.76 251.94 197.03 C 246.41 198.92 240.60 199.68 234.89 200.82 C 232.51 201.18 230.02 201.51 227.75 200.53 C 229.56 198.69 231.87 197.51 234.48 197.44 C 235.62 197.34 236.76 197.24 237.90 197.13 C 243.25 196.89 248.60 195.70 253.42 193.34 C 254.97 192.67 255.13 190.79 256.01 189.53 Z" />
</g>
<g id="#4b4a47ff">
<path fill="#4b4a47" opacity="1.00" d=" M 272.05 194.14 C 272.74 192.70 273.33 191.21 274.04 189.78 C 276.11 191.43 277.86 193.47 280.06 194.96 C 282.05 194.41 283.28 192.42 285.15 191.56 C 286.70 191.50 289.01 193.24 289.62 191.00 C 290.72 196.82 286.82 202.67 289.18 208.48 C 286.97 208.85 284.77 209.45 282.51 209.45 C 280.36 206.81 277.60 204.85 274.26 204.04 C 272.35 201.80 269.69 200.61 266.86 200.00 C 267.68 199.11 268.49 198.20 269.31 197.30 C 270.28 196.30 271.36 195.38 272.05 194.14 M 279.78 197.22 C 278.90 198.59 278.27 200.12 278.02 201.73 C 279.18 203.05 280.80 204.11 282.64 203.69 C 285.16 201.93 283.00 196.46 279.78 197.22 Z" />
</g>
<g id="#636461ff">
<path fill="#636461" opacity="1.00" d=" M 251.94 197.03 C 254.79 195.76 257.77 193.47 261.00 194.99 C 263.35 196.89 266.47 196.84 269.31 197.30 C 268.49 198.20 267.68 199.11 266.86 200.00 C 266.43 200.10 265.59 200.31 265.16 200.41 C 267.46 202.95 270.65 205.39 274.26 204.04 C 277.60 204.85 280.36 206.81 282.51 209.45 C 284.77 209.45 286.97 208.85 289.18 208.48 C 289.69 208.79 290.71 209.43 291.22 209.74 C 290.68 211.30 290.25 212.92 289.43 214.37 C 287.95 215.04 286.14 215.08 284.88 216.16 C 285.43 218.15 287.05 219.62 288.07 221.38 C 285.71 222.35 283.10 219.49 281.01 221.62 C 282.82 222.48 284.69 223.22 286.49 224.10 C 285.43 224.45 284.36 224.68 283.26 224.80 C 279.07 221.70 272.84 221.23 268.66 224.59 C 267.44 224.67 266.22 224.75 265.00 224.80 L 264.63 224.26 C 264.41 223.94 263.97 223.30 263.74 222.97 C 258.06 223.30 252.49 225.16 247.10 226.94 C 242.41 229.48 240.02 234.62 236.12 238.10 C 234.13 239.42 235.26 241.65 235.77 243.43 C 234.80 244.80 233.50 243.57 233.71 242.22 C 233.39 240.58 232.99 238.91 233.22 237.25 C 234.73 235.03 237.03 233.08 236.82 230.13 C 233.61 231.17 230.83 233.14 227.85 234.68 C 226.83 233.30 226.84 231.51 226.56 229.90 C 227.92 229.28 229.28 228.68 230.65 228.09 C 231.91 228.07 233.29 228.22 234.36 227.39 C 239.66 223.93 245.06 220.61 250.64 217.63 C 254.52 216.59 258.30 215.28 262.08 213.92 C 266.89 213.29 272.08 213.81 276.32 210.92 C 274.40 208.88 271.44 209.59 268.95 209.11 C 265.21 208.33 261.83 210.64 258.25 211.27 C 256.06 211.17 253.89 210.93 251.72 210.73 C 256.42 207.96 262.14 208.43 266.98 206.10 C 264.81 204.21 262.49 202.43 260.94 199.96 C 260.11 198.85 259.65 197.35 258.43 196.61 C 256.28 196.10 254.07 196.74 251.94 197.03 Z" />
</g>
<g id="#787971ff">
<path fill="#787971" opacity="1.00" d=" M 251.94 197.03 C 254.07 196.74 256.28 196.10 258.43 196.61 C 259.65 197.35 260.11 198.85 260.94 199.96 C 258.56 199.51 256.04 198.89 253.67 199.71 C 251.27 200.70 249.36 202.57 246.99 203.62 C 244.74 203.49 242.31 201.61 240.26 203.26 C 238.53 204.54 235.60 205.86 236.31 208.48 C 238.94 209.75 240.80 211.76 241.50 214.62 C 245.19 214.30 248.29 211.93 251.72 210.73 C 253.89 210.93 256.06 211.17 258.25 211.27 C 254.04 212.43 249.43 213.04 245.92 215.85 C 243.85 217.44 241.60 218.76 239.26 219.87 C 239.13 219.51 238.87 218.78 238.74 218.42 C 237.07 219.25 235.51 220.28 233.85 221.14 C 230.90 214.81 230.71 206.66 234.89 200.82 C 240.60 199.68 246.41 198.92 251.94 197.03 Z" />
</g>
<g id="#706f6dff">
<path fill="#706f6d" opacity="1.00" d=" M 279.78 197.22 C 283.00 196.46 285.16 201.93 282.64 203.69 C 280.80 204.11 279.18 203.05 278.02 201.73 C 278.27 200.12 278.90 198.59 279.78 197.22 Z" />
</g>
<g id="#8a8c83ff">
<path fill="#8a8c83" opacity="1.00" d=" M 253.67 199.71 C 256.04 198.89 258.56 199.51 260.94 199.96 C 262.49 202.43 264.81 204.21 266.98 206.10 C 262.14 208.43 256.42 207.96 251.72 210.73 C 248.29 211.93 245.19 214.30 241.50 214.62 C 240.80 211.76 238.94 209.75 236.31 208.48 C 235.60 205.86 238.53 204.54 240.26 203.26 C 242.31 201.61 244.74 203.49 246.99 203.62 C 249.36 202.57 251.27 200.70 253.67 199.71 Z" />
</g>
<g id="#000000c0">
<path fill="#000000" opacity="0.75" d=" M 265.16 200.41 C 265.59 200.31 266.43 200.10 266.86 200.00 C 269.69 200.61 272.35 201.80 274.26 204.04 C 270.65 205.39 267.46 202.95 265.16 200.41 Z" />
<path fill="#000000" opacity="0.75" d=" M 340.87 237.04 C 345.67 233.61 350.98 230.97 355.78 227.52 C 356.02 227.83 356.51 228.46 356.76 228.77 C 357.96 230.74 359.21 232.73 360.94 234.30 C 353.28 239.50 344.78 243.37 337.18 248.67 C 334.07 250.90 330.62 252.57 327.14 254.14 C 326.43 253.13 325.72 252.11 324.94 251.16 C 324.62 250.85 323.99 250.21 323.68 249.90 C 323.35 249.57 322.70 248.91 322.37 248.59 C 324.34 247.38 326.36 246.17 327.74 244.25 C 330.12 242.87 332.76 241.85 334.81 239.97 C 334.02 237.71 332.77 235.62 332.26 233.27 C 333.25 232.33 334.77 230.46 336.23 231.65 C 337.71 233.48 338.49 236.13 340.87 237.04 Z" />
<path fill="#000000" opacity="0.75" d=" M 305.63 283.44 C 308.07 283.16 310.51 282.78 312.90 282.19 C 310.88 284.20 308.80 286.16 306.91 288.31 C 306.24 286.77 305.50 285.16 305.63 283.44 Z" />
</g>
<g id="#606169ff">
<path fill="#606169" opacity="1.00" d=" M 423.00 200.69 C 424.63 200.11 426.42 200.12 427.98 200.91 C 428.68 202.95 429.38 205.00 430.16 207.01 C 421.89 211.25 413.77 215.84 406.22 221.25 C 405.31 221.79 404.31 222.03 403.23 221.98 C 402.21 220.46 404.63 220.17 405.32 219.19 C 409.56 215.69 414.31 212.87 419.23 210.43 C 421.20 209.64 421.76 207.09 423.95 206.66 C 426.13 206.40 426.64 204.06 426.59 202.21 C 426.45 200.34 424.25 200.87 423.00 200.69 Z" />
<path fill="#606169" opacity="1.00" d=" M 397.62 237.08 C 400.82 238.94 404.46 235.64 407.99 235.97 C 402.66 238.03 397.24 239.88 391.81 241.64 C 385.17 242.32 378.36 242.33 372.05 244.85 C 373.38 243.97 374.71 243.09 376.03 242.19 C 377.01 241.56 377.97 240.91 378.95 240.26 L 379.57 240.37 C 385.65 241.20 392.84 241.69 397.62 237.08 Z" />
</g>
<g id="#909594ff">
<path fill="#909594" opacity="1.00" d=" M 404.08 209.01 C 410.12 205.66 416.23 202.32 423.00 200.69 C 424.25 200.87 426.45 200.34 426.59 202.21 C 426.64 204.06 426.13 206.40 423.95 206.66 C 421.76 207.09 421.20 209.64 419.23 210.43 C 414.31 212.87 409.56 215.69 405.32 219.19 C 401.57 220.03 397.96 221.52 394.95 223.95 C 392.18 226.24 388.55 226.88 385.45 228.55 C 383.54 230.46 383.39 233.30 382.88 235.80 L 382.25 236.30 C 381.53 233.93 380.34 231.77 378.89 229.80 C 380.24 228.25 381.86 226.98 383.32 225.53 C 380.44 225.39 377.96 227.28 375.59 228.66 C 373.65 229.49 373.76 231.96 374.21 233.68 C 374.85 236.43 377.07 238.32 378.95 240.26 C 377.97 240.91 377.01 241.56 376.03 242.19 C 375.61 242.15 374.78 242.08 374.36 242.04 C 373.59 239.41 370.67 240.10 370.91 242.74 C 370.59 242.64 369.95 242.46 369.63 242.37 C 368.39 240.86 367.74 238.96 367.26 237.10 C 368.88 237.61 370.76 235.88 369.36 234.40 C 369.16 234.06 368.75 233.38 368.55 233.05 C 366.06 232.34 363.64 234.66 362.48 236.68 L 363.06 237.22 C 360.58 239.40 357.69 241.03 355.02 242.95 C 358.51 241.93 362.75 242.07 364.84 238.60 C 365.15 239.90 365.43 241.25 365.30 242.61 C 363.71 244.18 361.70 245.39 359.53 245.94 C 357.66 246.03 355.87 245.33 354.03 245.16 C 353.55 246.00 353.11 246.86 352.71 247.75 C 350.64 246.60 348.23 247.19 346.27 248.29 C 346.14 248.91 345.88 250.15 345.75 250.77 C 343.82 250.14 341.89 249.52 339.92 249.04 C 340.06 250.19 340.22 251.35 340.41 252.51 C 340.05 252.27 339.33 251.80 338.97 251.56 C 338.51 250.50 338.39 249.18 337.18 248.67 C 344.78 243.37 353.28 239.50 360.94 234.30 C 361.40 230.84 358.90 228.02 356.59 225.80 C 357.45 225.02 358.36 224.30 359.33 223.65 C 361.72 226.06 363.05 230.10 366.75 230.76 C 368.60 231.24 370.50 231.64 372.42 231.82 C 372.45 230.67 372.40 229.52 372.49 228.38 C 378.80 223.46 386.24 220.35 393.02 216.17 C 391.46 215.77 389.82 215.49 388.62 214.32 C 391.17 213.05 393.65 211.62 396.03 210.05 C 399.62 208.23 402.83 205.41 406.89 204.70 C 406.03 206.18 404.99 207.55 404.08 209.01 Z" />
</g>
<g id="#181819cb">
<path fill="#181819" opacity="0.80" d=" M 427.98 200.91 C 430.77 201.47 432.51 204.54 431.04 207.11 L 430.16 207.01 C 429.38 205.00 428.68 202.95 427.98 200.91 Z" />
</g>
<g id="#7e7f7fff">
<path fill="#7e7f7f" opacity="1.00" d=" M 406.22 221.25 C 413.77 215.84 421.89 211.25 430.16 207.01 L 431.04 207.11 C 430.67 208.26 430.04 209.33 429.01 210.02 C 425.38 212.75 421.88 215.74 417.78 217.76 C 415.67 219.03 412.13 219.35 411.90 222.35 C 412.99 222.00 414.08 221.62 415.16 221.21 C 416.17 223.24 417.86 224.84 418.91 226.85 C 418.71 227.39 418.29 228.46 418.09 228.99 C 415.19 231.93 411.70 234.22 407.99 235.97 C 404.46 235.64 400.82 238.94 397.62 237.08 L 398.35 236.39 C 401.30 234.02 404.26 231.61 407.64 229.85 C 407.87 230.54 408.33 231.93 408.56 232.62 C 409.50 232.63 410.44 232.55 411.37 232.36 C 411.56 231.41 411.68 230.45 411.73 229.48 C 411.06 229.37 409.73 229.16 409.06 229.05 C 408.18 227.96 407.77 226.62 407.36 225.31 C 406.38 225.46 405.41 225.72 404.52 226.15 C 403.71 227.25 403.37 228.62 402.63 229.76 C 401.26 230.71 399.63 231.17 398.07 231.71 C 397.89 231.35 397.51 230.64 397.32 230.29 C 394.65 231.23 392.34 232.94 389.93 234.39 C 389.53 233.98 388.72 233.18 388.32 232.77 C 388.25 231.72 388.22 230.67 388.25 229.62 C 386.67 231.85 385.22 234.28 382.88 235.80 C 383.39 233.30 383.54 230.46 385.45 228.55 C 388.55 226.88 392.18 226.24 394.95 223.95 C 397.96 221.52 401.57 220.03 405.32 219.19 C 404.63 220.17 402.21 220.46 403.23 221.98 C 404.31 222.03 405.31 221.79 406.22 221.25 Z" />
</g>
<g id="#8c8981ff">
<path fill="#8c8981" opacity="1.00" d=" M 258.25 211.27 C 261.83 210.64 265.21 208.33 268.95 209.11 C 271.44 209.59 274.40 208.88 276.32 210.92 C 272.08 213.81 266.89 213.29 262.08 213.92 C 258.30 215.28 254.52 216.59 250.64 217.63 C 245.06 220.61 239.66 223.93 234.36 227.39 C 233.29 228.22 231.91 228.07 230.65 228.09 C 232.33 224.30 236.12 222.28 239.26 219.87 C 241.60 218.76 243.85 217.44 245.92 215.85 C 249.43 213.04 254.04 212.43 258.25 211.27 Z" />
</g>
<g id="#555752ff">
<path fill="#555752" opacity="1.00" d=" M 291.22 209.74 C 293.67 211.13 295.22 213.55 297.23 215.44 C 299.82 215.28 302.43 213.83 304.99 214.91 C 303.76 215.03 302.54 215.21 301.33 215.43 C 301.32 215.98 301.29 217.07 301.28 217.62 C 301.31 220.42 302.05 223.15 302.48 225.91 C 299.32 225.74 296.17 225.33 293.02 225.13 C 295.03 226.34 297.01 227.62 298.92 228.99 C 294.74 228.28 290.49 228.60 286.28 228.74 C 285.23 228.16 284.20 227.55 283.12 227.03 C 282.20 228.17 281.70 229.69 280.48 230.55 C 276.25 231.24 271.92 230.96 267.65 230.90 C 267.87 229.96 268.17 229.03 268.37 228.08 C 267.21 227.02 265.77 226.23 265.00 224.80 C 266.22 224.75 267.44 224.67 268.66 224.59 C 273.50 225.28 278.40 225.23 283.26 224.80 C 284.36 224.68 285.43 224.45 286.49 224.10 C 284.69 223.22 282.82 222.48 281.01 221.62 C 283.10 219.49 285.71 222.35 288.07 221.38 C 287.05 219.62 285.43 218.15 284.88 216.16 C 286.14 215.08 287.95 215.04 289.43 214.37 C 290.25 212.92 290.68 211.30 291.22 209.74 Z" />
</g>
<g id="#000000bf">
<path fill="#000000" opacity="0.75" d=" M 380.18 215.17 C 385.13 212.51 390.87 212.13 396.03 210.05 C 393.65 211.62 391.17 213.05 388.62 214.32 C 385.33 216.00 383.22 219.26 379.92 220.96 C 375.51 224.19 369.73 225.89 366.75 230.76 C 363.05 230.10 361.72 226.06 359.33 223.65 C 364.38 220.81 369.43 217.88 374.77 215.61 C 374.61 216.67 374.45 217.74 374.29 218.81 C 376.25 217.58 378.13 216.24 380.18 215.17 Z" />
</g>
<g id="#798172fe">
<path fill="#798172" opacity="1.00" d=" M 379.92 220.96 C 383.22 219.26 385.33 216.00 388.62 214.32 C 389.82 215.49 391.46 215.77 393.02 216.17 C 386.24 220.35 378.80 223.46 372.49 228.38 C 372.40 229.52 372.45 230.67 372.42 231.82 C 370.50 231.64 368.60 231.24 366.75 230.76 C 369.73 225.89 375.51 224.19 379.92 220.96 Z" />
</g>
<g id="#949496ff">
<path fill="#949496" opacity="1.00" d=" M 301.33 215.43 C 302.54 215.21 303.76 215.03 304.99 214.91 C 307.12 216.01 309.21 217.51 310.14 219.82 C 310.61 222.79 310.97 225.80 310.85 228.82 C 310.23 228.77 308.99 228.66 308.38 228.60 C 307.34 225.52 307.47 222.04 305.79 219.19 C 304.89 217.53 302.82 217.95 301.28 217.62 C 301.29 217.07 301.32 215.98 301.33 215.43 Z" />
<path fill="#949496" opacity="1.00" d=" M 343.70 269.33 C 343.17 265.51 346.85 263.44 349.76 262.02 C 348.19 264.59 346.58 267.15 344.68 269.49 C 344.43 269.45 343.95 269.37 343.70 269.33 Z" />
</g>
<g id="#666664ff">
<path fill="#666664" opacity="1.00" d=" M 301.28 217.62 C 302.82 217.95 304.89 217.53 305.79 219.19 C 307.47 222.04 307.34 225.52 308.38 228.60 C 308.99 228.66 310.23 228.77 310.85 228.82 C 310.97 225.80 310.61 222.79 310.14 219.82 C 311.48 222.45 311.52 225.52 312.80 228.16 C 314.05 228.90 315.42 229.42 316.79 229.90 C 314.62 231.16 311.19 229.19 309.90 231.91 C 309.15 234.97 309.69 238.21 309.82 241.33 C 309.83 243.88 311.97 245.60 313.45 247.42 C 313.14 249.24 312.84 251.06 312.68 252.90 C 312.66 253.16 312.63 253.70 312.61 253.97 C 314.69 254.91 316.93 255.49 318.90 256.68 C 316.27 257.93 313.63 259.30 311.81 261.65 C 312.16 260.48 312.46 259.29 312.66 258.09 C 309.24 257.85 305.77 257.74 302.38 258.29 C 301.03 259.00 301.22 260.57 301.19 261.85 C 303.43 262.11 305.69 262.10 307.94 262.27 C 306.63 265.62 303.80 268.29 300.46 269.56 C 296.79 270.62 292.91 270.57 289.19 271.41 C 289.43 272.42 289.73 273.43 290.24 274.35 C 293.72 276.07 296.40 272.45 299.24 271.08 C 301.86 269.11 305.21 269.96 308.05 270.83 C 307.83 271.72 307.53 272.59 307.12 273.41 C 305.88 273.18 304.66 272.83 303.42 272.64 C 302.99 273.39 302.58 274.15 302.21 274.93 C 302.08 273.87 301.73 272.92 301.14 272.08 C 297.76 273.96 295.31 277.00 293.06 280.07 C 291.50 282.28 288.48 282.28 286.15 283.16 C 286.80 282.32 287.44 281.46 288.03 280.58 C 284.94 279.83 281.38 280.45 278.79 278.30 C 279.95 277.99 281.09 277.62 282.21 277.18 C 282.41 276.76 282.80 275.93 282.99 275.51 C 281.82 275.77 280.68 276.12 279.51 276.33 C 279.26 275.84 278.77 274.87 278.52 274.38 C 278.54 273.83 278.59 272.73 278.62 272.18 C 280.34 271.90 282.09 271.83 283.82 271.58 C 284.47 267.64 280.01 265.90 276.82 265.74 C 278.20 265.49 279.58 265.16 280.99 265.03 C 283.28 265.27 285.16 267.43 287.59 266.78 C 291.86 266.02 296.11 265.06 300.30 263.97 C 298.78 261.02 298.85 257.71 298.38 254.53 C 297.25 252.85 295.72 251.37 295.26 249.33 C 295.90 249.32 297.16 249.31 297.80 249.31 C 298.15 249.02 298.86 248.44 299.22 248.15 C 300.00 249.00 300.15 251.05 301.71 250.46 C 302.30 247.12 301.56 243.78 301.41 240.44 C 303.20 240.11 305.02 239.95 306.81 239.62 C 307.00 237.51 307.24 234.98 305.70 233.30 C 303.58 231.65 301.15 230.47 298.92 228.99 C 297.01 227.62 295.03 226.34 293.02 225.13 C 296.17 225.33 299.32 225.74 302.48 225.91 C 302.05 223.15 301.31 220.42 301.28 217.62 M 283.22 278.06 C 283.37 281.36 286.23 276.52 283.22 278.06 Z" />
</g>
<g id="#1a1a1a77">
<path fill="#1a1a1a" opacity="0.47" d=" M 411.90 222.35 C 412.13 219.35 415.67 219.03 417.78 217.76 C 416.87 218.88 416.01 220.04 415.16 221.21 C 414.08 221.62 412.99 222.00 411.90 222.35 Z" />
</g>
<g id="#838380ff">
<path fill="#838380" opacity="1.00" d=" M 268.66 224.59 C 272.84 221.23 279.07 221.70 283.26 224.80 C 278.40 225.23 273.50 225.28 268.66 224.59 Z" />
</g>
<g id="#96938bff">
<path fill="#96938b" opacity="1.00" d=" M 247.10 226.94 C 252.49 225.16 258.06 223.30 263.74 222.97 C 263.97 223.30 264.41 223.94 264.63 224.26 C 257.82 227.00 250.67 228.85 244.13 232.27 C 245.08 230.47 246.07 228.69 247.10 226.94 Z" />
</g>
<g id="#6c6d69ff">
<path fill="#6c6d69" opacity="1.00" d=" M 244.13 232.27 C 250.67 228.85 257.82 227.00 264.63 224.26 L 265.00 224.80 C 265.77 226.23 267.21 227.02 268.37 228.08 C 268.17 229.03 267.87 229.96 267.65 230.90 C 271.92 230.96 276.25 231.24 280.48 230.55 C 281.70 229.69 282.20 228.17 283.12 227.03 C 284.20 227.55 285.23 228.16 286.28 228.74 C 283.24 231.38 281.14 235.44 276.81 236.16 C 273.30 235.40 269.71 235.03 266.12 235.14 C 263.41 235.28 260.61 235.12 258.02 236.02 C 254.06 240.25 254.55 246.49 255.23 251.80 C 255.88 256.90 259.52 261.02 263.40 264.09 C 266.21 264.43 269.04 263.95 271.86 263.94 C 271.24 264.74 270.60 265.52 269.95 266.30 C 267.01 266.40 264.07 266.29 261.14 266.09 C 260.65 266.01 259.67 265.86 259.18 265.78 C 257.12 263.31 254.50 261.29 252.62 258.71 C 251.99 255.28 252.02 251.77 251.59 248.32 C 250.88 244.01 253.18 240.03 253.43 235.78 C 254.31 234.79 255.63 234.44 256.79 233.90 C 259.19 234.05 261.60 234.18 264.01 234.04 C 262.93 231.66 260.94 229.91 258.20 230.48 C 256.89 230.35 255.58 230.17 254.27 230.15 C 251.92 232.48 249.98 235.24 247.12 237.00 C 247.43 235.40 247.71 233.79 247.93 232.18 C 243.40 235.38 239.28 239.14 235.77 243.43 C 235.26 241.65 234.13 239.42 236.12 238.10 C 240.02 234.62 242.41 229.48 247.10 226.94 C 246.07 228.69 245.08 230.47 244.13 232.27 Z" />
</g>
<g id="#787778ff">
<path fill="#787778" opacity="1.00" d=" M 375.59 228.66 C 377.96 227.28 380.44 225.39 383.32 225.53 C 381.86 226.98 380.24 228.25 378.89 229.80 C 376.67 232.25 379.58 235.73 382.25 236.30 C 380.71 237.18 380.01 238.72 379.57 240.37 L 378.95 240.26 C 377.07 238.32 374.85 236.43 374.21 233.68 C 373.76 231.96 373.65 229.49 375.59 228.66 Z" />
</g>
<g id="#545662ff">
<path fill="#545662" opacity="1.00" d=" M 404.52 226.15 C 405.41 225.72 406.38 225.46 407.36 225.31 C 407.77 226.62 408.18 227.96 409.06 229.05 C 408.70 229.25 407.99 229.65 407.64 229.85 C 404.26 231.61 401.30 234.02 398.35 236.39 C 397.22 235.23 396.05 234.13 394.95 232.96 C 395.97 232.51 397.01 232.09 398.07 231.71 C 399.63 231.17 401.26 230.71 402.63 229.76 C 403.37 228.62 403.71 227.25 404.52 226.15 Z" />
</g>
<g id="#e7e5edff">
<path fill="#e7e5ed" opacity="1.00" d=" M 356.59 225.80 C 358.90 228.02 361.40 230.84 360.94 234.30 C 359.21 232.73 357.96 230.74 356.76 228.77 C 356.72 228.03 356.63 226.54 356.59 225.80 Z" />
<path fill="#e7e5ed" opacity="1.00" d=" M 407.64 229.85 C 407.99 229.65 408.70 229.25 409.06 229.05 C 409.73 229.16 411.06 229.37 411.73 229.48 C 411.68 230.45 411.56 231.41 411.37 232.36 C 410.44 232.55 409.50 232.63 408.56 232.62 C 408.33 231.93 407.87 230.54 407.64 229.85 Z" />
<path fill="#e7e5ed" opacity="1.00" d=" M 370.91 242.74 C 370.67 240.10 373.59 239.41 374.36 242.04 C 373.25 242.68 372.10 242.91 370.91 242.74 Z" />
<path fill="#e7e5ed" opacity="1.00" d=" M 323.91 264.92 C 323.89 263.72 323.25 262.09 324.88 261.70 C 326.20 263.83 326.81 266.28 326.95 268.78 C 326.03 268.12 325.14 267.43 324.27 266.72 C 324.18 266.27 324.00 265.37 323.91 264.92 Z" />
</g>
<g id="#27282991">
<path fill="#272829" opacity="0.57" d=" M 418.09 228.99 C 418.29 228.46 418.71 227.39 418.91 226.85 L 419.28 227.60 C 418.98 227.94 418.38 228.64 418.09 228.99 Z" />
</g>
<g id="#878780ff">
<path fill="#878780" opacity="1.00" d=" M 286.28 228.74 C 290.49 228.60 294.74 228.28 298.92 228.99 C 301.15 230.47 303.58 231.65 305.70 233.30 C 307.24 234.98 307.00 237.51 306.81 239.62 C 305.02 239.95 303.20 240.11 301.41 240.44 C 301.56 243.78 302.30 247.12 301.71 250.46 C 300.15 251.05 300.00 249.00 299.22 248.15 C 298.48 247.24 297.66 246.43 296.95 245.50 C 296.90 242.39 297.76 239.36 298.08 236.28 C 294.25 234.81 290.72 231.10 286.35 232.17 C 283.77 233.90 282.80 238.04 279.12 237.96 C 278.35 237.36 277.58 236.76 276.81 236.16 C 281.14 235.44 283.24 231.38 286.28 228.74 Z" />
</g>
<g id="#63667bff">
<path fill="#63667b" opacity="1.00" d=" M 316.79 229.90 C 318.76 228.83 321.23 228.02 322.86 230.14 C 325.34 232.02 323.56 235.03 323.81 237.53 C 324.41 240.47 325.18 243.66 323.72 246.50 C 322.55 246.62 321.37 246.65 320.20 246.79 C 318.93 248.52 319.11 250.81 319.20 252.85 C 321.19 252.83 322.36 251.10 323.68 249.90 C 323.99 250.21 324.62 250.85 324.94 251.16 C 325.13 254.48 323.80 257.84 324.75 261.11 L 324.88 261.70 C 323.25 262.09 323.89 263.72 323.91 264.92 C 323.07 265.63 322.26 266.37 321.46 267.12 C 321.38 267.22 321.22 267.42 321.14 267.51 C 320.82 268.13 320.16 269.36 319.84 269.97 C 320.61 270.01 322.15 270.09 322.92 270.12 C 324.24 270.13 325.57 270.07 326.90 269.95 C 325.77 270.49 324.61 270.96 323.53 271.58 C 323.36 272.11 323.00 273.17 322.83 273.70 L 322.29 274.11 C 322.19 273.41 321.98 272.00 321.88 271.29 C 320.43 270.99 318.96 270.84 317.50 270.70 C 317.50 270.27 317.49 269.42 317.49 268.99 C 314.70 268.04 311.16 268.71 309.29 265.71 C 309.80 264.18 310.88 262.94 311.81 261.65 C 313.63 259.30 316.27 257.93 318.90 256.68 C 316.93 255.49 314.69 254.91 312.61 253.97 C 312.63 253.70 312.66 253.16 312.68 252.90 C 313.71 252.51 314.73 252.10 315.74 251.66 C 315.83 249.91 314.94 248.33 313.45 247.42 C 311.97 245.60 309.83 243.88 309.82 241.33 C 309.69 238.21 309.15 234.97 309.90 231.91 C 311.19 229.19 314.62 231.16 316.79 229.90 M 321.34 257.07 C 321.49 260.37 324.34 255.53 321.34 257.07 Z" />
</g>
<g id="#424342ff">
<path fill="#424342" opacity="1.00" d=" M 225.02 232.81 C 225.48 231.81 226.03 230.86 226.56 229.90 C 226.84 231.51 226.83 233.30 227.85 234.68 C 230.83 233.14 233.61 231.17 236.82 230.13 C 237.03 233.08 234.73 235.03 233.22 237.25 C 232.99 238.91 233.39 240.58 233.71 242.22 C 233.50 243.57 234.80 244.80 235.77 243.43 C 239.28 239.14 243.40 235.38 247.93 232.18 C 247.71 233.79 247.43 235.40 247.12 237.00 C 243.65 239.91 243.33 244.70 243.09 248.89 C 243.02 250.21 244.52 250.81 245.18 251.78 C 244.16 252.40 243.15 253.04 242.12 253.63 C 241.60 250.90 241.56 247.86 239.67 245.63 C 237.13 245.53 234.30 245.99 232.86 248.32 L 232.28 248.34 C 231.91 248.34 231.15 248.35 230.77 248.35 C 230.56 256.32 232.62 264.11 233.48 271.99 C 231.62 272.42 229.67 272.57 227.81 272.14 C 227.38 268.50 227.24 264.83 226.76 261.19 L 225.95 261.10 C 225.80 262.96 225.81 264.82 225.62 266.68 C 220.37 267.46 215.06 267.99 209.75 267.96 C 214.57 266.11 219.78 266.63 224.80 265.97 C 224.83 259.12 224.89 252.23 224.12 245.42 C 225.75 244.12 227.21 242.49 227.35 240.30 C 228.20 237.52 226.11 235.16 225.02 232.81 M 231.23 246.20 C 231.83 246.80 231.83 246.80 231.23 246.20 Z" />
</g>
<g id="#88898aff">
<path fill="#88898a" opacity="1.00" d=" M 247.12 237.00 C 249.98 235.24 251.92 232.48 254.27 230.15 C 255.58 230.17 256.89 230.35 258.20 230.48 C 257.74 231.62 257.26 232.76 256.79 233.90 C 255.63 234.44 254.31 234.79 253.43 235.78 C 251.13 238.16 249.07 240.83 247.64 243.83 C 247.13 245.53 246.77 247.26 246.35 248.99 C 245.87 244.98 246.78 240.99 247.12 237.00 Z" />
</g>
<g id="#4f5151ff">
<path fill="#4f5151" opacity="1.00" d=" M 258.20 230.48 C 260.94 229.91 262.93 231.66 264.01 234.04 C 261.60 234.18 259.19 234.05 256.79 233.90 C 257.26 232.76 257.74 231.62 258.20 230.48 Z" />
</g>
<g id="#d1a75cff">
<path fill="#d1a75c" opacity="1.00" d=" M 382.25 236.30 C 379.58 235.73 376.67 232.25 378.89 229.80 C 380.34 231.77 381.53 233.93 382.25 236.30 Z" />
</g>
<g id="#4a4b4eed">
<path fill="#4a4b4e" opacity="0.93" d=" M 382.88 235.80 C 385.22 234.28 386.67 231.85 388.25 229.62 C 388.22 230.67 388.25 231.72 388.32 232.77 C 388.72 233.18 389.53 233.98 389.93 234.39 C 386.59 236.57 383.14 238.59 379.57 240.37 C 380.01 238.72 380.71 237.18 382.25 236.30 L 382.88 235.80 Z" />
</g>
<g id="#9c9991ff">
<path fill="#9c9991" opacity="1.00" d=" M 286.35 232.17 C 290.72 231.10 294.25 234.81 298.08 236.28 C 297.76 239.36 296.90 242.39 296.95 245.50 C 297.66 246.43 298.48 247.24 299.22 248.15 C 298.86 248.44 298.15 249.02 297.80 249.31 C 297.16 249.31 295.90 249.32 295.26 249.33 C 289.10 248.33 282.81 250.02 276.67 248.46 C 276.02 248.30 275.38 248.12 274.75 247.92 C 275.00 246.75 275.73 245.65 275.63 244.43 C 272.89 242.88 269.76 241.47 269.20 237.93 C 272.38 236.74 275.83 238.22 279.12 237.96 C 282.80 238.04 283.77 233.90 286.35 232.17 Z" />
</g>
<g id="#75776fff">
<path fill="#75776f" opacity="1.00" d=" M 225.02 232.81 C 226.11 235.16 228.20 237.52 227.35 240.30 C 227.21 242.49 225.75 244.12 224.12 245.42 C 221.78 241.39 223.14 236.71 225.02 232.81 Z" />
</g>
<g id="#797a78ff">
<path fill="#797a78" opacity="1.00" d=" M 362.48 236.68 C 363.64 234.66 366.06 232.34 368.55 233.05 C 368.75 233.38 369.16 234.06 369.36 234.40 C 367.80 234.80 367.10 235.70 367.26 237.10 C 367.74 238.96 368.39 240.86 369.63 242.37 C 369.95 242.46 370.59 242.64 370.91 242.74 C 372.10 242.91 373.25 242.68 374.36 242.04 C 374.78 242.08 375.61 242.15 376.03 242.19 C 374.71 243.09 373.38 243.97 372.05 244.85 C 367.12 248.49 362.30 252.29 356.66 254.80 C 355.88 256.59 355.50 258.52 354.79 260.34 C 353.76 259.11 352.72 257.90 351.69 256.69 C 352.70 253.65 355.81 252.45 357.81 250.23 C 356.67 250.22 355.53 250.24 354.40 250.28 C 353.98 249.65 353.13 248.38 352.71 247.75 C 353.11 246.86 353.55 246.00 354.03 245.16 C 355.87 245.33 357.66 246.03 359.53 245.94 C 361.70 245.39 363.71 244.18 365.30 242.61 C 365.43 241.25 365.15 239.90 364.84 238.60 C 364.75 238.35 364.59 237.85 364.50 237.60 C 364.14 237.50 363.42 237.32 363.06 237.22 L 362.48 236.68 Z" />
</g>
<g id="#82807aff">
<path fill="#82807a" opacity="1.00" d=" M 258.02 236.02 C 260.61 235.12 263.41 235.28 266.12 235.14 C 261.26 237.07 259.16 242.32 257.72 246.95 C 257.51 250.67 257.08 256.16 261.40 257.74 C 264.97 259.90 269.24 259.32 273.21 259.77 C 276.64 260.03 280.22 260.76 283.58 259.67 C 285.23 258.49 286.12 256.03 288.37 255.89 C 289.83 255.74 291.04 254.92 292.10 253.94 C 286.62 252.38 280.96 254.58 275.40 253.86 C 275.03 251.95 275.10 249.84 276.67 248.46 C 282.81 250.02 289.10 248.33 295.26 249.33 C 295.72 251.37 297.25 252.85 298.38 254.53 C 298.85 257.71 298.78 261.02 300.30 263.97 C 296.11 265.06 291.86 266.02 287.59 266.78 C 285.16 267.43 283.28 265.27 280.99 265.03 C 279.58 265.16 278.20 265.49 276.82 265.74 C 274.54 266.04 272.25 266.24 269.95 266.30 C 270.60 265.52 271.24 264.74 271.86 263.94 C 269.04 263.95 266.21 264.43 263.40 264.09 C 259.52 261.02 255.88 256.90 255.23 251.80 C 254.55 246.49 254.06 240.25 258.02 236.02 M 277.21 250.27 C 277.76 250.82 277.76 250.82 277.21 250.27 Z" />
</g>
<g id="#918f88ff">
<path fill="#918f88" opacity="1.00" d=" M 266.12 235.14 C 269.71 235.03 273.30 235.40 276.81 236.16 C 277.58 236.76 278.35 237.36 279.12 237.96 C 275.83 238.22 272.38 236.74 269.20 237.93 C 269.76 241.47 272.89 242.88 275.63 244.43 C 275.73 245.65 275.00 246.75 274.75 247.92 C 275.38 248.12 276.02 248.30 276.67 248.46 C 275.10 249.84 275.03 251.95 275.40 253.86 C 280.96 254.58 286.62 252.38 292.10 253.94 C 291.04 254.92 289.83 255.74 288.37 255.89 C 286.12 256.03 285.23 258.49 283.58 259.67 C 280.22 260.76 276.64 260.03 273.21 259.77 C 269.24 259.32 264.97 259.90 261.40 257.74 C 257.08 256.16 257.51 250.67 257.72 246.95 C 259.16 242.32 261.26 237.07 266.12 235.14 Z" />
</g>
<g id="#babbc1ff">
<path fill="#babbc1" opacity="1.00" d=" M 367.26 237.10 C 367.10 235.70 367.80 234.80 369.36 234.40 C 370.76 235.88 368.88 237.61 367.26 237.10 Z" />
</g>
<g id="#55504aff">
<path fill="#55504a" opacity="1.00" d=" M 253.43 235.78 C 253.18 240.03 250.88 244.01 251.59 248.32 C 252.02 251.77 251.99 255.28 252.62 258.71 C 254.50 261.29 257.12 263.31 259.18 265.78 C 257.90 265.85 256.63 265.97 255.37 266.10 C 255.00 264.87 254.74 263.61 254.41 262.38 C 253.26 262.72 252.10 263.95 250.91 263.06 C 248.53 262.16 250.48 259.36 249.50 257.67 C 246.98 253.50 247.87 248.46 247.64 243.83 C 249.07 240.83 251.13 238.16 253.43 235.78 Z" />
</g>
<g id="#717272ff">
<path fill="#717272" opacity="1.00" d=" M 243.09 248.89 C 243.33 244.70 243.65 239.91 247.12 237.00 C 246.78 240.99 245.87 244.98 246.35 248.99 C 246.77 247.26 247.13 245.53 247.64 243.83 C 247.87 248.46 246.98 253.50 249.50 257.67 C 250.48 259.36 248.53 262.16 250.91 263.06 C 252.10 263.95 253.26 262.72 254.41 262.38 C 254.74 263.61 255.00 264.87 255.37 266.10 C 255.92 268.12 256.44 270.16 256.65 272.25 C 252.95 270.60 249.25 268.28 247.13 264.74 C 245.83 260.54 246.71 255.95 245.18 251.78 C 244.52 250.81 243.02 250.21 243.09 248.89 Z" />
</g>
<g id="#a6aca1ff">
<path fill="#a6aca1" opacity="1.00" d=" M 363.06 237.22 C 363.42 237.32 364.14 237.50 364.50 237.60 C 364.59 237.85 364.75 238.35 364.84 238.60 C 362.75 242.07 358.51 241.93 355.02 242.95 C 357.69 241.03 360.58 239.40 363.06 237.22 Z" />
</g>
<g id="#444b38fd">
<path fill="#444b38" opacity="1.00" d=" M 323.81 237.53 C 326.48 238.80 327.53 241.42 327.74 244.25 C 326.36 246.17 324.34 247.38 322.37 248.59 C 322.70 248.91 323.35 249.57 323.68 249.90 C 322.36 251.10 321.19 252.83 319.20 252.85 C 319.11 250.81 318.93 248.52 320.20 246.79 C 321.37 246.65 322.55 246.62 323.72 246.50 C 325.18 243.66 324.41 240.47 323.81 237.53 Z" />
</g>
<g id="#3c3e3dff">
<path fill="#3c3e3d" opacity="1.00" d=" M 232.86 248.32 C 234.30 245.99 237.13 245.53 239.67 245.63 C 241.56 247.86 241.60 250.90 242.12 253.63 C 243.15 253.04 244.16 252.40 245.18 251.78 C 246.71 255.95 245.83 260.54 247.13 264.74 C 249.25 268.28 252.95 270.60 256.65 272.25 C 256.44 270.16 255.92 268.12 255.37 266.10 C 256.63 265.97 257.90 265.85 259.18 265.78 C 259.67 265.86 260.65 266.01 261.14 266.09 C 261.22 266.53 261.39 267.42 261.47 267.87 C 260.79 269.00 258.94 269.77 259.55 271.33 C 260.31 274.21 263.55 274.64 266.04 274.88 C 270.18 275.14 274.72 276.85 278.52 274.38 C 278.77 274.87 279.26 275.84 279.51 276.33 C 280.68 276.12 281.82 275.77 282.99 275.51 C 282.80 275.93 282.41 276.76 282.21 277.18 C 281.09 277.62 279.95 277.99 278.79 278.30 C 276.53 277.64 273.66 276.38 271.77 278.45 C 267.51 277.91 263.15 280.46 259.16 278.15 C 256.86 277.18 254.35 277.93 251.96 277.93 C 248.65 278.16 245.35 277.54 242.20 276.54 C 242.91 275.84 243.60 275.12 244.26 274.38 C 244.97 273.41 246.22 272.41 245.90 271.06 C 244.90 264.74 242.79 258.60 240.00 252.84 C 239.17 251.43 238.72 249.57 237.28 248.67 C 235.82 248.37 234.33 248.38 232.86 248.32 Z" />
</g>
<g id="#f9f4f7ff">
<path fill="#f9f4f7" opacity="1.00" d=" M 231.23 246.20 C 231.83 246.80 231.83 246.80 231.23 246.20 Z" />
</g>
<g id="#95e6fbff">
<path fill="#95e6fb" opacity="1.00" d=" M 346.27 248.29 C 348.23 247.19 350.64 246.60 352.71 247.75 C 353.13 248.38 353.98 249.65 354.40 250.28 C 352.94 252.07 351.45 254.09 349.15 254.83 C 348.34 254.22 347.56 253.57 346.81 252.89 C 346.54 252.36 346.01 251.30 345.75 250.77 C 345.88 250.15 346.14 248.91 346.27 248.29 M 350.07 247.98 C 347.71 249.60 348.87 253.29 351.90 251.77 C 352.93 250.27 351.88 248.08 350.07 247.98 Z" />
</g>
<g id="#72736cff">
<path fill="#72736c" opacity="1.00" d=" M 230.77 248.35 C 231.15 248.35 231.91 248.34 232.28 248.34 C 233.40 255.70 232.97 263.34 235.35 270.48 C 235.67 270.55 236.31 270.68 236.63 270.75 C 236.65 269.44 236.60 268.13 236.60 266.82 C 238.93 269.59 240.41 272.93 241.51 276.35 C 240.45 277.22 239.35 278.07 238.35 279.01 C 239.52 281.88 241.92 284.21 242.28 287.41 C 239.30 285.32 237.77 281.97 235.56 279.22 C 234.42 279.01 233.28 278.96 232.12 279.06 C 232.25 280.62 232.56 282.16 232.92 283.68 C 232.45 283.64 231.50 283.57 231.03 283.54 C 229.94 285.96 230.75 288.65 230.54 291.20 C 229.64 291.52 228.71 291.78 227.80 292.08 C 231.35 295.06 236.19 296.04 240.45 293.94 C 240.29 292.93 240.03 291.95 239.75 290.98 C 241.40 291.42 243.58 292.79 244.92 291.00 C 244.67 290.47 244.17 289.40 243.92 288.87 C 243.94 288.52 243.98 287.82 244.00 287.47 C 246.99 288.82 249.87 290.46 252.41 292.53 C 250.51 292.20 248.62 291.77 246.73 291.39 C 248.28 293.19 249.98 294.93 250.95 297.14 C 249.42 296.75 247.92 296.24 246.43 295.75 C 245.03 295.01 243.46 295.17 242.04 295.75 C 242.28 296.25 242.76 297.26 243.00 297.76 C 239.96 297.68 236.98 298.36 233.97 298.56 C 232.06 298.25 230.37 297.21 228.52 296.68 C 227.92 296.53 226.71 296.23 226.11 296.07 C 225.73 295.67 224.98 294.86 224.61 294.46 C 224.17 291.82 223.23 289.33 222.23 286.87 C 224.02 287.25 225.83 287.60 227.67 287.67 C 229.36 283.07 228.23 277.05 224.21 274.08 C 223.09 275.15 222.09 276.33 221.12 277.52 C 220.79 275.64 220.95 273.70 221.79 271.97 C 222.46 270.76 222.80 268.67 224.60 268.90 C 225.68 269.96 226.67 271.12 227.81 272.14 C 229.67 272.57 231.62 272.42 233.48 271.99 C 232.62 264.11 230.56 256.32 230.77 248.35 Z" />
</g>
<g id="#605f5aff">
<path fill="#605f5a" opacity="1.00" d=" M 232.86 248.32 C 234.33 248.38 235.82 248.37 237.28 248.67 C 238.72 249.57 239.17 251.43 240.00 252.84 C 239.38 252.92 238.13 253.08 237.50 253.16 C 238.62 260.53 241.54 267.48 244.26 274.38 C 243.60 275.12 242.91 275.84 242.20 276.54 L 241.51 276.35 C 240.41 272.93 238.93 269.59 236.60 266.82 C 236.60 268.13 236.65 269.44 236.63 270.75 C 236.31 270.68 235.67 270.55 235.35 270.48 C 232.97 263.34 233.40 255.70 232.28 248.34 L 232.86 248.32 Z" />
<path fill="#605f5a" opacity="1.00" d=" M 306.18 296.97 C 307.29 298.10 308.46 299.17 309.40 300.46 C 310.04 302.92 309.74 305.51 309.98 308.03 C 309.51 306.60 309.16 305.13 308.66 303.71 C 307.27 303.51 305.85 303.59 304.48 303.85 C 301.56 304.97 300.42 308.29 297.74 309.76 C 293.42 312.07 289.39 315.44 284.25 315.47 C 284.84 316.85 285.53 318.20 286.44 319.42 C 292.06 315.28 298.94 312.91 303.89 307.90 C 304.33 308.93 304.79 309.95 305.26 310.97 C 302.18 315.64 296.51 317.30 292.12 320.40 C 290.50 320.80 288.81 321.57 287.13 321.09 C 285.60 320.23 284.25 319.11 282.72 318.27 C 280.66 317.85 279.34 320.07 277.45 320.41 C 276.00 320.44 274.56 320.18 273.13 320.00 C 273.03 319.50 272.83 318.49 272.72 317.99 C 276.39 316.60 280.58 316.17 283.75 313.74 C 288.41 308.57 294.55 304.29 301.59 303.36 C 304.72 303.03 305.67 299.56 306.18 296.97 Z" />
</g>
<g id="#e3e1e4ff">
<path fill="#e3e1e4" opacity="1.00" d=" M 313.45 247.42 C 314.94 248.33 315.83 249.91 315.74 251.66 C 314.73 252.10 313.71 252.51 312.68 252.90 C 312.84 251.06 313.14 249.24 313.45 247.42 Z" />
</g>
<g id="#eeffffff">
<path fill="#eeffff" opacity="1.00" d=" M 350.07 247.98 C 351.88 248.08 352.93 250.27 351.90 251.77 C 348.87 253.29 347.71 249.60 350.07 247.98 Z" />
</g>
<g id="#aaadb6ff">
<path fill="#aaadb6" opacity="1.00" d=" M 327.14 254.14 C 330.62 252.57 334.07 250.90 337.18 248.67 C 338.39 249.18 338.51 250.50 338.97 251.56 C 339.33 251.80 340.05 252.27 340.41 252.51 C 341.58 254.32 344.83 256.63 342.83 258.88 C 338.89 258.84 337.45 254.61 334.37 253.32 C 333.61 256.88 331.19 261.04 326.94 260.33 C 327.04 258.26 327.11 256.20 327.14 254.14 Z" />
</g>
<g id="#737785ff">
<path fill="#737785" opacity="1.00" d=" M 339.92 249.04 C 341.89 249.52 343.82 250.14 345.75 250.77 C 346.01 251.30 346.54 252.36 346.81 252.89 C 346.31 255.11 346.86 257.28 347.84 259.29 C 346.17 260.54 344.68 262.00 343.14 263.41 C 342.64 262.46 342.20 261.49 341.68 260.57 C 338.89 261.22 336.21 262.33 333.71 263.72 C 330.98 265.25 329.28 267.99 326.90 269.95 C 325.57 270.07 324.24 270.13 322.92 270.12 C 323.38 268.99 323.83 267.86 324.27 266.72 C 325.14 267.43 326.03 268.12 326.95 268.78 C 326.81 266.28 326.20 263.83 324.88 261.70 L 324.75 261.11 C 325.30 260.91 326.39 260.52 326.94 260.33 C 331.19 261.04 333.61 256.88 334.37 253.32 C 337.45 254.61 338.89 258.84 342.83 258.88 C 344.83 256.63 341.58 254.32 340.41 252.51 C 340.22 251.35 340.06 250.19 339.92 249.04 Z" />
</g>
<g id="#ffffffff">
<path fill="#ffffff" opacity="1.00" d=" M 277.21 250.27 C 277.76 250.82 277.76 250.82 277.21 250.27 Z" />
<path fill="#ffffff" opacity="1.00" d=" M 311.23 271.35 C 311.68 271.26 312.58 271.08 313.03 270.99 C 312.58 271.29 311.68 271.88 311.23 272.18 L 311.23 271.35 Z" />
</g>
<g id="#a0a595ff">
<path fill="#a0a595" opacity="1.00" d=" M 354.40 250.28 C 355.53 250.24 356.67 250.22 357.81 250.23 C 355.81 252.45 352.70 253.65 351.69 256.69 C 350.44 257.60 349.14 258.44 347.84 259.29 C 346.86 257.28 346.31 255.11 346.81 252.89 C 347.56 253.57 348.34 254.22 349.15 254.83 C 351.45 254.09 352.94 252.07 354.40 250.28 Z" />
</g>
<g id="#494d43f9">
<path fill="#494d43" opacity="0.98" d=" M 324.94 251.16 C 325.72 252.11 326.43 253.13 327.14 254.14 C 327.11 256.20 327.04 258.26 326.94 260.33 C 326.39 260.52 325.30 260.91 324.75 261.11 C 323.80 257.84 325.13 254.48 324.94 251.16 Z" />
</g>
<g id="#4f514dff">
<path fill="#4f514d" opacity="1.00" d=" M 237.50 253.16 C 238.13 253.08 239.38 252.92 240.00 252.84 C 242.79 258.60 244.90 264.74 245.90 271.06 C 246.22 272.41 244.97 273.41 244.26 274.38 C 241.54 267.48 238.62 260.53 237.50 253.16 Z" />
</g>
<g id="#cbc8d4ff">
<path fill="#cbc8d4" opacity="1.00" d=" M 321.34 257.07 C 324.34 255.53 321.49 260.37 321.34 257.07 Z" />
</g>
<g id="#504f4fff">
<path fill="#504f4f" opacity="1.00" d=" M 347.84 259.29 C 349.14 258.44 350.44 257.60 351.69 256.69 C 352.72 257.90 353.76 259.11 354.79 260.34 C 352.92 265.19 350.13 269.75 346.25 273.25 C 343.58 275.52 340.31 276.93 337.46 278.95 C 337.99 275.26 334.68 272.23 331.08 272.70 C 325.41 275.18 322.07 281.14 316.11 283.12 C 319.47 279.22 324.93 277.03 327.04 272.20 C 325.61 272.61 324.21 273.15 322.83 273.70 C 323.00 273.17 323.36 272.11 323.53 271.58 C 324.61 270.96 325.77 270.49 326.90 269.95 C 329.28 267.99 330.98 265.25 333.71 263.72 C 336.21 262.33 338.89 261.22 341.68 260.57 C 342.20 261.49 342.64 262.46 343.14 263.41 C 344.68 262.00 346.17 260.54 347.84 259.29 M 343.70 269.33 C 343.95 269.37 344.43 269.45 344.68 269.49 C 346.58 267.15 348.19 264.59 349.76 262.02 C 346.85 263.44 343.17 265.51 343.70 269.33 Z" />
</g>
<g id="#555553ff">
<path fill="#555553" opacity="1.00" d=" M 302.38 258.29 C 305.77 257.74 309.24 257.85 312.66 258.09 C 312.46 259.29 312.16 260.48 311.81 261.65 C 310.88 262.94 309.80 264.18 309.29 265.71 C 311.16 268.71 314.70 268.04 317.49 268.99 C 317.49 269.42 317.50 270.27 317.50 270.70 C 316.01 270.80 314.52 270.91 313.03 270.99 C 312.58 271.08 311.68 271.26 311.23 271.35 L 311.23 272.18 C 311.90 275.03 313.79 278.30 317.22 277.55 C 316.25 278.14 315.29 278.73 314.34 279.34 C 310.82 277.50 306.50 279.67 305.63 283.44 C 305.50 285.16 306.24 286.77 306.91 288.31 C 309.76 287.18 312.32 285.48 314.96 283.94 C 313.33 285.99 311.27 287.59 309.15 289.09 C 306.94 290.64 306.00 293.29 304.87 295.62 C 303.93 297.16 303.20 299.29 301.09 299.41 C 302.67 294.42 301.08 289.31 300.41 284.31 C 300.54 282.96 298.93 281.95 297.85 282.89 C 294.65 284.77 291.89 287.28 288.89 289.44 C 285.90 290.75 282.97 292.19 279.97 293.47 C 275.42 295.00 270.13 294.88 266.23 297.94 C 270.30 300.49 271.11 305.43 274.03 308.86 C 277.49 310.26 281.44 308.82 284.92 307.98 C 281.60 309.96 278.71 312.52 276.49 315.69 C 274.97 315.80 273.46 315.50 271.97 315.30 C 269.88 312.78 267.86 310.04 267.21 306.76 C 266.59 304.88 266.60 302.37 264.58 301.35 C 260.50 299.81 255.48 302.03 251.75 299.26 C 249.85 297.60 247.28 297.83 244.94 297.78 C 245.31 297.27 246.06 296.26 246.43 295.75 C 247.92 296.24 249.42 296.75 250.95 297.14 C 249.98 294.93 248.28 293.19 246.73 291.39 C 248.62 291.77 250.51 292.20 252.41 292.53 C 249.87 290.46 246.99 288.82 244.00 287.47 C 243.98 287.82 243.94 288.52 243.92 288.87 C 243.37 288.38 242.82 287.89 242.28 287.41 C 241.92 284.21 239.52 281.88 238.35 279.01 C 239.35 278.07 240.45 277.22 241.51 276.35 L 242.20 276.54 C 245.35 277.54 248.65 278.16 251.96 277.93 C 254.35 277.93 256.86 277.18 259.16 278.15 C 254.93 279.65 250.49 279.99 246.06 279.47 C 246.26 279.87 246.66 280.66 246.86 281.06 C 251.40 281.81 255.81 283.09 260.21 284.41 C 264.79 284.22 269.19 282.38 273.69 281.51 C 273.10 280.46 272.43 279.45 271.77 278.45 C 273.66 276.38 276.53 277.64 278.79 278.30 C 281.38 280.45 284.94 279.83 288.03 280.58 C 287.44 281.46 286.80 282.32 286.15 283.16 C 281.45 285.15 277.21 288.38 272.06 289.12 C 266.64 290.03 261.20 291.15 256.12 293.29 C 257.68 295.56 260.58 295.68 263.07 295.39 C 273.43 294.18 283.73 290.64 291.81 283.87 C 295.15 280.77 300.05 279.14 302.21 274.93 C 302.58 274.15 302.99 273.39 303.42 272.64 C 304.66 272.83 305.88 273.18 307.12 273.41 C 307.53 272.59 307.83 271.72 308.05 270.83 C 305.21 269.96 301.86 269.11 299.24 271.08 C 296.40 272.45 293.72 276.07 290.24 274.35 C 289.73 273.43 289.43 272.42 289.19 271.41 C 292.91 270.57 296.79 270.62 300.46 269.56 C 303.80 268.29 306.63 265.62 307.94 262.27 C 305.69 262.10 303.43 262.11 301.19 261.85 C 301.22 260.57 301.03 259.00 302.38 258.29 Z" />
</g>
<g id="#5e605eff">
<path fill="#5e605e" opacity="1.00" d=" M 225.95 261.10 L 226.76 261.19 C 227.24 264.83 227.38 268.50 227.81 272.14 C 226.67 271.12 225.68 269.96 224.60 268.90 C 222.80 268.67 222.46 270.76 221.79 271.97 C 220.95 273.70 220.79 275.64 221.12 277.52 C 221.62 280.62 221.28 283.85 222.23 286.87 C 223.23 289.33 224.17 291.82 224.61 294.46 C 222.64 293.32 221.58 291.31 220.40 289.48 C 218.35 289.33 216.33 289.88 214.29 289.71 C 212.18 289.12 210.25 286.92 207.93 287.88 C 205.08 288.71 202.83 290.72 200.61 292.58 C 197.19 291.94 193.76 290.94 190.26 291.40 C 188.66 289.60 187.31 287.58 185.60 285.89 C 184.23 285.96 182.89 286.25 181.52 286.33 C 179.83 284.99 179.01 282.87 177.69 281.21 C 175.70 282.05 174.92 284.22 173.58 285.75 C 170.85 286.17 170.07 282.32 167.65 281.75 C 162.63 280.75 157.50 279.38 152.40 280.78 C 151.92 281.90 152.36 284.92 150.34 283.67 C 150.08 282.41 149.92 281.14 149.75 279.88 C 152.82 277.74 152.33 273.48 153.83 270.36 C 156.18 271.07 158.60 271.91 161.06 271.17 C 164.69 270.07 169.22 274.84 171.86 270.76 C 171.97 270.34 172.19 269.49 172.30 269.06 C 169.87 268.82 167.39 268.89 165.01 268.30 C 170.35 268.63 175.70 268.29 181.03 267.95 C 186.70 268.17 192.38 268.50 198.01 269.25 C 201.94 269.10 205.82 268.24 209.75 267.96 C 215.06 267.99 220.37 267.46 225.62 266.68 C 225.81 264.82 225.80 262.96 225.95 261.10 M 186.61 276.48 C 186.43 279.25 185.91 282.66 188.29 284.70 C 191.67 287.66 195.98 290.53 200.70 289.79 C 201.47 287.02 201.05 284.12 201.60 281.34 C 202.75 277.75 202.78 273.95 203.81 270.33 C 200.19 270.16 196.55 270.23 192.93 270.33 C 189.58 270.03 186.75 273.29 186.61 276.48 M 161.30 277.15 C 162.07 280.50 166.25 279.81 168.83 279.44 C 170.01 277.99 169.56 275.98 167.98 275.05 C 165.69 273.24 162.89 275.42 161.30 277.15 Z" />
</g>
<g id="#4c4f4dff">
<path fill="#4c4f4d" opacity="1.00" d=" M 321.46 267.12 C 322.26 266.37 323.07 265.63 323.91 264.92 C 324.00 265.37 324.18 266.27 324.27 266.72 C 323.83 267.86 323.38 268.99 322.92 270.12 C 322.15 270.09 320.61 270.01 319.84 269.97 C 320.16 269.36 320.82 268.13 321.14 267.51 C 321.22 267.42 321.38 267.22 321.46 267.12 Z" />
</g>
<g id="#575554ff">
<path fill="#575554" opacity="1.00" d=" M 261.14 266.09 C 264.07 266.29 267.01 266.40 269.95 266.30 C 272.25 266.24 274.54 266.04 276.82 265.74 C 280.01 265.90 284.47 267.64 283.82 271.58 C 282.09 271.83 280.34 271.90 278.62 272.18 C 278.59 272.73 278.54 273.83 278.52 274.38 C 274.72 276.85 270.18 275.14 266.04 274.88 C 263.55 274.64 260.31 274.21 259.55 271.33 C 258.94 269.77 260.79 269.00 261.47 267.87 C 261.39 267.42 261.22 266.53 261.14 266.09 Z" />
</g>
<g id="#f3eff3ff">
<path fill="#f3eff3" opacity="1.00" d=" M 321.14 267.51 C 321.22 267.42 321.38 267.22 321.46 267.12 C 321.38 267.22 321.22 267.42 321.14 267.51 Z" />
</g>
<g id="#454645ff">
<path fill="#454645" opacity="1.00" d=" M 148.20 268.10 C 153.80 269.34 159.45 267.08 165.01 268.30 C 167.39 268.89 169.87 268.82 172.30 269.06 C 172.19 269.49 171.97 270.34 171.86 270.76 C 169.22 274.84 164.69 270.07 161.06 271.17 C 158.60 271.91 156.18 271.07 153.83 270.36 C 149.82 270.64 149.92 275.78 148.77 278.71 C 149.01 279.00 149.50 279.58 149.75 279.88 C 149.92 281.14 150.08 282.41 150.34 283.67 C 152.36 284.92 151.92 281.90 152.40 280.78 C 157.50 279.38 162.63 280.75 167.65 281.75 C 170.07 282.32 170.85 286.17 173.58 285.75 C 174.92 284.22 175.70 282.05 177.69 281.21 C 179.01 282.87 179.83 284.99 181.52 286.33 C 182.89 286.25 184.23 285.96 185.60 285.89 C 187.31 287.58 188.66 289.60 190.26 291.40 C 185.80 293.45 180.67 292.40 176.13 294.17 C 172.41 295.86 168.80 292.84 165.00 293.32 C 162.01 292.95 158.13 294.90 155.93 292.09 C 152.96 288.70 147.62 288.01 145.69 283.62 C 144.23 278.37 145.85 272.83 148.20 268.10 M 171.01 291.90 C 172.85 292.06 176.27 291.82 175.73 289.19 C 173.66 288.95 171.96 290.13 171.01 291.90 Z" />
</g>
<g id="#7c7d7fff">
<path fill="#7c7d7f" opacity="1.00" d=" M 148.77 278.71 C 149.92 275.78 149.82 270.64 153.83 270.36 C 152.33 273.48 152.82 277.74 149.75 279.88 C 149.50 279.58 149.01 279.00 148.77 278.71 Z" />
</g>
<g id="#80827aff">
<path fill="#80827a" opacity="1.00" d=" M 186.61 276.48 C 186.75 273.29 189.58 270.03 192.93 270.33 C 196.55 270.23 200.19 270.16 203.81 270.33 C 202.78 273.95 202.75 277.75 201.60 281.34 C 201.05 284.12 201.47 287.02 200.70 289.79 C 195.98 290.53 191.67 287.66 188.29 284.70 C 185.91 282.66 186.43 279.25 186.61 276.48 Z" />
</g>
<g id="#9ea296ff">
<path fill="#9ea296" opacity="1.00" d=" M 313.03 270.99 C 314.52 270.91 316.01 270.80 317.50 270.70 C 318.96 270.84 320.43 270.99 321.88 271.29 C 321.98 272.00 322.19 273.41 322.29 274.11 C 320.69 275.39 318.97 276.50 317.22 277.55 C 313.79 278.30 311.90 275.03 311.23 272.18 C 311.68 271.88 312.58 271.29 313.03 270.99 Z" />
</g>
<g id="#85817aff">
<path fill="#85817a" opacity="1.00" d=" M 293.06 280.07 C 295.31 277.00 297.76 273.96 301.14 272.08 C 301.73 272.92 302.08 273.87 302.21 274.93 C 300.05 279.14 295.15 280.77 291.81 283.87 C 283.73 290.64 273.43 294.18 263.07 295.39 C 260.58 295.68 257.68 295.56 256.12 293.29 C 261.20 291.15 266.64 290.03 272.06 289.12 C 277.21 288.38 281.45 285.15 286.15 283.16 C 288.48 282.28 291.50 282.28 293.06 280.07 Z" />
</g>
<g id="#0000000e">
<path fill="#000000" opacity="0.05" d=" M 322.83 273.70 C 324.21 273.15 325.61 272.61 327.04 272.20 C 324.93 277.03 319.47 279.22 316.11 283.12 C 315.82 283.33 315.25 283.74 314.96 283.94 C 312.32 285.48 309.76 287.18 306.91 288.31 C 308.80 286.16 310.88 284.20 312.90 282.19 C 313.43 281.26 313.91 280.31 314.34 279.34 C 315.29 278.73 316.25 278.14 317.22 277.55 C 318.97 276.50 320.69 275.39 322.29 274.11 L 322.83 273.70 Z" />
</g>
<g id="#ce9a7bff">
<path fill="#ce9a7b" opacity="1.00" d=" M 316.11 283.12 C 322.07 281.14 325.41 275.18 331.08 272.70 C 334.68 272.23 337.99 275.26 337.46 278.95 C 336.17 280.36 334.93 281.82 333.69 283.28 C 333.59 283.39 333.40 283.62 333.30 283.73 C 333.06 284.02 332.58 284.60 332.34 284.89 C 331.97 285.41 331.24 286.45 330.88 286.97 C 330.32 287.68 329.77 288.38 329.23 289.10 C 328.87 289.56 328.14 290.49 327.78 290.95 C 326.94 292.01 326.11 293.07 325.27 294.14 C 324.91 294.60 324.19 295.54 323.84 296.00 C 323.30 296.70 322.76 297.41 322.23 298.11 C 321.85 298.56 321.09 299.45 320.71 299.90 C 318.86 302.38 317.01 304.85 315.08 307.25 C 313.85 308.20 312.57 309.10 311.18 309.80 C 310.88 309.36 310.28 308.47 309.98 308.03 C 309.74 305.51 310.04 302.92 309.40 300.46 C 308.46 299.17 307.29 298.10 306.18 296.97 C 305.85 296.63 305.19 295.96 304.87 295.62 C 306.00 293.29 306.94 290.64 309.15 289.09 C 311.27 287.59 313.33 285.99 314.96 283.94 C 315.25 283.74 315.82 283.33 316.11 283.12 Z" />
</g>
<g id="#808185ff">
<path fill="#808185" opacity="1.00" d=" M 161.30 277.15 C 162.89 275.42 165.69 273.24 167.98 275.05 C 169.56 275.98 170.01 277.99 168.83 279.44 C 166.25 279.81 162.07 280.50 161.30 277.15 Z" />
</g>
<g id="#888a82ff">
<path fill="#888a82" opacity="1.00" d=" M 221.12 277.52 C 222.09 276.33 223.09 275.15 224.21 274.08 C 228.23 277.05 229.36 283.07 227.67 287.67 C 225.83 287.60 224.02 287.25 222.23 286.87 C 221.28 283.85 221.62 280.62 221.12 277.52 Z" />
</g>
<g id="#78746eff">
<path fill="#78746e" opacity="1.00" d=" M 246.06 279.47 C 250.49 279.99 254.93 279.65 259.16 278.15 C 263.15 280.46 267.51 277.91 271.77 278.45 C 272.43 279.45 273.10 280.46 273.69 281.51 C 269.19 282.38 264.79 284.22 260.21 284.41 C 255.81 283.09 251.40 281.81 246.86 281.06 C 246.66 280.66 246.26 279.87 246.06 279.47 Z" />
</g>
<g id="#dedbdeff">
<path fill="#dedbde" opacity="1.00" d=" M 283.22 278.06 C 286.23 276.52 283.37 281.36 283.22 278.06 Z" />
</g>
<g id="#959987ff">
<path fill="#959987" opacity="1.00" d=" M 305.63 283.44 C 306.50 279.67 310.82 277.50 314.34 279.34 C 313.91 280.31 313.43 281.26 312.90 282.19 C 310.51 282.78 308.07 283.16 305.63 283.44 Z" />
</g>
<g id="#3f403fff">
<path fill="#3f403f" opacity="1.00" d=" M 232.12 279.06 C 233.28 278.96 234.42 279.01 235.56 279.22 C 237.77 281.97 239.30 285.32 242.28 287.41 C 242.82 287.89 243.37 288.38 243.92 288.87 C 244.17 289.40 244.67 290.47 244.92 291.00 C 243.58 292.79 241.40 291.42 239.75 290.98 C 237.22 288.79 234.95 286.32 232.92 283.68 C 232.56 282.16 232.25 280.62 232.12 279.06 Z" />
</g>
<g id="#6e7067ff">
<path fill="#6e7067" opacity="1.00" d=" M 297.85 282.89 C 298.93 281.95 300.54 282.96 300.41 284.31 C 301.08 289.31 302.67 294.42 301.09 299.41 C 295.22 301.24 290.10 304.78 284.92 307.98 C 281.44 308.82 277.49 310.26 274.03 308.86 C 271.11 305.43 270.30 300.49 266.23 297.94 C 270.13 294.88 275.42 295.00 279.97 293.47 C 281.89 294.52 285.65 294.97 285.19 297.87 C 284.32 301.12 280.47 300.84 277.99 302.04 C 277.78 302.51 277.38 303.46 277.17 303.93 C 279.66 305.84 282.69 304.58 284.32 302.25 C 286.00 299.78 289.07 300.61 291.59 300.37 C 292.86 297.70 292.21 294.44 293.24 291.61 C 291.80 290.85 290.32 290.18 288.89 289.44 C 291.89 287.28 294.65 284.77 297.85 282.89 Z" />
</g>
<g id="#615f5dff">
<path fill="#615f5d" opacity="1.00" d=" M 231.03 283.54 C 231.50 283.57 232.45 283.64 232.92 283.68 C 234.95 286.32 237.22 288.79 239.75 290.98 C 240.03 291.95 240.29 292.93 240.45 293.94 C 236.19 296.04 231.35 295.06 227.80 292.08 C 228.71 291.78 229.64 291.52 230.54 291.20 C 230.75 288.65 229.94 285.96 231.03 283.54 Z" />
</g>
<g id="#4f372aa8">
<path fill="#4f372a" opacity="0.66" d=" M 333.30 283.73 C 333.40 283.62 333.59 283.39 333.69 283.28 C 333.59 283.39 333.40 283.62 333.30 283.73 Z" />
</g>
<g id="#684936b8">
<path fill="#684936" opacity="0.72" d=" M 330.88 286.97 C 331.24 286.45 331.97 285.41 332.34 284.89 C 331.97 285.41 331.24 286.45 330.88 286.97 Z" />
</g>
<g id="#4b4c4bff">
<path fill="#4b4c4b" opacity="1.00" d=" M 207.93 287.88 C 210.25 286.92 212.18 289.12 214.29 289.71 C 216.33 289.88 218.35 289.33 220.40 289.48 C 221.58 291.31 222.64 293.32 224.61 294.46 C 224.98 294.86 225.73 295.67 226.11 296.07 C 217.52 296.38 208.71 295.61 200.61 292.58 C 202.83 290.72 205.08 288.71 207.93 287.88 Z" />
<path fill="#4b4c4b" opacity="1.00" d=" M 304.48 303.85 C 305.85 303.59 307.27 303.51 308.66 303.71 C 309.16 305.13 309.51 306.60 309.98 308.03 C 310.28 308.47 310.88 309.36 311.18 309.80 C 312.57 309.10 313.85 308.20 315.08 307.25 C 312.37 310.37 312.04 315.04 308.46 317.45 C 303.92 321.22 300.83 326.36 296.57 330.37 C 297.50 328.37 297.79 325.98 295.33 325.04 C 298.82 322.34 302.89 320.16 305.33 316.35 C 306.38 314.57 308.14 312.54 307.20 310.35 C 306.72 310.51 305.74 310.81 305.26 310.97 C 304.79 309.95 304.33 308.93 303.89 307.90 C 304.07 306.55 304.26 305.20 304.48 303.85 Z" />
</g>
<g id="#1e1d1cce">
<path fill="#1e1d1c" opacity="0.81" d=" M 171.01 291.90 C 171.96 290.13 173.66 288.95 175.73 289.19 C 176.27 291.82 172.85 292.06 171.01 291.90 Z" />
</g>
<g id="#84847dff">
<path fill="#84847d" opacity="1.00" d=" M 279.97 293.47 C 282.97 292.19 285.90 290.75 288.89 289.44 C 290.32 290.18 291.80 290.85 293.24 291.61 C 292.21 294.44 292.86 297.70 291.59 300.37 C 289.07 300.61 286.00 299.78 284.32 302.25 C 282.69 304.58 279.66 305.84 277.17 303.93 C 277.38 303.46 277.78 302.51 277.99 302.04 C 280.47 300.84 284.32 301.12 285.19 297.87 C 285.65 294.97 281.89 294.52 279.97 293.47 Z" />
</g>
<g id="#573e30a6">
<path fill="#573e30" opacity="0.65" d=" M 327.78 290.95 C 328.14 290.49 328.87 289.56 329.23 289.10 C 328.87 289.56 328.14 290.49 327.78 290.95 Z" />
</g>
<g id="#654837bc">
<path fill="#654837" opacity="0.74" d=" M 323.84 296.00 C 324.19 295.54 324.91 294.60 325.27 294.14 C 324.91 294.60 324.19 295.54 323.84 296.00 Z" />
</g>
<g id="#eae9eaf4">
<path fill="#eae9ea" opacity="0.96" d=" M 242.04 295.75 C 243.46 295.17 245.03 295.01 246.43 295.75 C 246.06 296.26 245.31 297.27 244.94 297.78 C 244.46 297.78 243.48 297.77 243.00 297.76 C 242.76 297.26 242.28 296.25 242.04 295.75 Z" />
</g>
<g id="#312f2bff">
<path fill="#312f2b" opacity="1.00" d=" M 301.09 299.41 C 303.20 299.29 303.93 297.16 304.87 295.62 C 305.19 295.96 305.85 296.63 306.18 296.97 C 305.67 299.56 304.72 303.03 301.59 303.36 C 294.55 304.29 288.41 308.57 283.75 313.74 C 280.58 316.17 276.39 316.60 272.72 317.99 C 272.49 317.08 272.24 316.18 271.97 315.30 C 273.46 315.50 274.97 315.80 276.49 315.69 C 278.71 312.52 281.60 309.96 284.92 307.98 C 290.10 304.78 295.22 301.24 301.09 299.41 Z" />
</g>
<g id="#00000015">
<path fill="#000000" opacity="0.08" d=" M 228.52 296.68 C 230.37 297.21 232.06 298.25 233.97 298.56 C 236.98 298.36 239.96 297.68 243.00 297.76 C 243.48 297.77 244.46 297.78 244.94 297.78 C 247.28 297.83 249.85 297.60 251.75 299.26 C 255.48 302.03 260.50 299.81 264.58 301.35 C 266.60 302.37 266.59 304.88 267.21 306.76 C 267.86 310.04 269.88 312.78 271.97 315.30 C 272.24 316.18 272.49 317.08 272.72 317.99 C 272.83 318.49 273.03 319.50 273.13 320.00 C 273.55 324.25 278.17 325.69 281.09 327.98 C 279.67 328.27 278.16 328.43 276.89 329.18 C 274.83 332.41 274.30 336.40 275.63 340.00 C 274.96 340.46 274.25 340.86 273.58 341.34 C 274.00 343.84 275.12 346.40 274.06 348.92 C 273.37 352.17 271.21 354.73 269.30 357.35 C 269.36 357.83 269.46 358.78 269.51 359.26 C 270.97 359.42 272.44 359.43 273.90 359.58 C 274.12 361.79 271.23 362.48 270.38 364.29 C 270.64 365.88 271.22 367.39 271.53 368.97 C 270.28 371.67 268.68 374.25 268.34 377.27 C 268.10 380.45 265.70 382.64 264.16 385.22 C 263.30 388.67 268.85 387.94 269.16 390.84 C 267.87 391.62 266.50 392.27 265.21 393.04 C 265.93 394.26 266.78 395.41 267.50 396.65 C 266.12 397.13 264.71 397.51 263.37 398.07 C 263.38 401.48 265.15 404.44 266.97 407.19 C 265.56 407.65 263.45 407.07 262.67 408.61 C 262.53 411.55 262.96 414.50 262.57 417.44 C 262.33 420.88 262.18 425.04 265.12 427.42 C 264.17 429.07 263.16 430.70 261.99 432.21 C 260.49 432.95 258.64 433.25 257.86 434.96 C 260.57 436.74 265.51 436.10 265.99 440.19 C 266.70 443.06 262.84 444.22 262.58 446.90 C 262.31 449.07 261.32 451.00 260.29 452.90 C 261.47 454.26 264.91 454.24 264.00 456.79 C 262.85 458.68 261.30 460.27 260.09 462.11 C 261.11 464.07 263.50 464.59 265.18 465.83 C 263.99 466.58 262.76 467.27 261.60 468.08 C 263.32 469.84 263.49 472.19 263.34 474.54 C 264.30 474.22 265.24 473.84 266.21 473.54 C 266.33 473.85 266.58 474.48 266.70 474.79 C 264.38 478.41 261.31 481.67 260.20 485.94 C 262.40 487.73 264.33 485.27 266.14 484.20 C 266.44 484.37 267.04 484.71 267.34 484.88 C 267.00 486.82 265.89 488.73 266.36 490.73 C 267.27 491.99 268.60 492.87 269.60 494.07 C 270.00 495.69 270.08 498.28 268.10 498.85 C 267.39 498.11 266.83 497.09 265.71 496.98 C 265.06 499.77 264.96 502.67 265.16 505.53 C 266.78 505.48 268.39 505.31 270.02 505.23 C 268.28 506.73 266.28 507.90 264.48 509.31 C 264.39 510.20 264.42 511.10 264.59 512.00 L 220.66 512.00 C 222.78 509.19 226.44 506.47 225.08 502.54 C 226.32 500.59 227.47 498.58 228.58 496.55 C 230.67 495.52 235.02 494.24 233.35 491.17 C 230.61 492.93 227.59 494.65 224.20 494.15 C 225.89 491.24 228.40 488.97 230.97 486.84 C 229.82 486.57 228.67 486.37 227.54 486.06 C 226.94 484.20 227.86 482.28 228.71 480.67 C 230.75 480.16 232.88 480.31 234.95 479.99 C 232.98 477.57 230.70 475.34 229.31 472.50 C 230.37 472.36 231.44 472.30 232.50 472.15 C 233.06 468.23 229.01 465.10 229.48 461.08 C 230.24 458.28 232.30 455.90 232.48 452.93 C 232.12 450.88 230.75 449.17 230.06 447.24 C 231.51 446.08 233.44 445.33 234.26 443.56 C 236.48 440.28 233.13 436.90 231.70 434.05 C 231.06 434.11 230.41 434.18 229.78 434.26 C 229.66 433.98 229.44 433.42 229.33 433.14 C 229.86 432.02 230.55 430.99 231.05 429.86 C 230.46 426.76 229.22 423.76 229.29 420.56 C 229.05 417.12 230.96 414.09 231.56 410.80 C 229.94 406.40 227.07 401.36 229.72 396.79 C 228.60 395.79 227.16 397.33 225.95 397.50 C 227.68 393.73 227.86 389.15 231.48 386.54 C 231.40 386.20 231.25 385.52 231.18 385.18 C 229.46 384.38 227.60 383.94 225.90 383.10 C 224.63 380.89 227.09 378.95 227.79 376.98 C 226.37 376.11 224.84 375.45 223.48 374.49 C 222.23 372.39 221.24 370.04 220.88 367.62 C 221.39 367.01 221.89 366.40 222.39 365.80 C 222.29 364.69 222.00 363.62 221.89 362.53 C 222.61 361.89 223.41 361.34 224.14 360.69 C 224.84 358.13 224.64 355.41 225.36 352.84 C 227.18 353.44 229.10 353.40 229.84 351.28 C 227.17 350.52 224.43 350.01 221.77 349.24 C 224.43 347.55 227.47 346.24 229.49 343.73 C 229.90 340.35 226.76 338.31 224.95 335.95 C 226.46 334.14 228.26 337.22 229.93 337.67 C 231.15 336.81 229.70 335.58 229.47 334.57 C 227.77 331.66 229.44 328.31 229.45 325.20 C 228.13 325.02 226.80 324.94 225.49 324.77 C 225.56 323.27 225.81 321.79 226.08 320.32 C 226.59 321.06 227.10 321.80 227.62 322.56 C 230.61 319.57 228.04 315.89 226.33 313.07 C 230.17 311.10 230.20 306.45 231.64 302.89 C 230.25 301.96 228.65 303.78 227.43 302.92 C 228.76 301.03 229.82 298.92 228.52 296.68 Z" />
</g>
<g id="#5a3f30ac">
<path fill="#5a3f30" opacity="0.67" d=" M 320.71 299.90 C 321.09 299.45 321.85 298.56 322.23 298.11 C 321.85 298.56 321.09 299.45 320.71 299.90 Z" />
</g>
<g id="#2f2f2fff">
<path fill="#2f2f2f" opacity="1.00" d=" M 305.26 310.97 C 305.74 310.81 306.72 310.51 307.20 310.35 C 308.14 312.54 306.38 314.57 305.33 316.35 C 302.89 320.16 298.82 322.34 295.33 325.04 C 294.96 325.32 294.20 325.88 293.83 326.16 C 292.92 325.17 291.85 324.26 291.29 323.03 C 291.51 322.13 291.79 321.26 292.12 320.40 C 296.51 317.30 302.18 315.64 305.26 310.97 Z" />
</g>
<g id="#4c4c4bff">
<path fill="#4c4c4b" opacity="1.00" d=" M 277.45 320.41 C 279.34 320.07 280.66 317.85 282.72 318.27 C 284.25 319.11 285.60 320.23 287.13 321.09 C 288.81 321.57 290.50 320.80 292.12 320.40 C 291.79 321.26 291.51 322.13 291.29 323.03 C 291.85 324.26 292.92 325.17 293.83 326.16 C 291.25 328.52 287.39 328.32 284.74 330.54 C 283.48 329.75 282.32 328.81 281.09 327.98 C 278.17 325.69 273.55 324.25 273.13 320.00 C 274.56 320.18 276.00 320.44 277.45 320.41 Z" />
</g>
<g id="#767474fe">
<path fill="#767474" opacity="1.00" d=" M 293.83 326.16 C 294.20 325.88 294.96 325.32 295.33 325.04 C 297.79 325.98 297.50 328.37 296.57 330.37 C 293.13 332.87 288.18 333.26 284.74 330.54 C 287.39 328.32 291.25 328.52 293.83 326.16 Z" />
</g>
</svg>
