<svg xmlns="http://www.w3.org/2000/svg" width="682.667" height="682.667" viewBox="0 0 512 512"  xmlns:v="https://vecta.io/nano"><path fill="#34353b" d="M239.14 87.03c1.36-2.05 4.04-1.8 6.16-1.55.46 7.55 3.31 14.59 5.56 21.72l1.33 4.62-.91.48c-1.05-2.29-2.25-4.5-3.38-6.74l-.12-.67c-.81-5.11-3.99-9.52-4.28-14.76l-3.23-.58-1.74-.38c.39 2.65.74 5.3 1.28 7.93-1.22-3.16-2.49-6.87-.67-10.07z"/><path fill="#8a8e80" d="M245.3 85.48c3.66 2.79 6.22 6.72 8.73 10.51l.51 1.58-2.52 1.05.41 2.36.11.66c.4 2.04.89 4.06 1.38 6.09l-3.06-.53c-2.25-7.13-5.1-14.17-5.56-21.72z"/><path fill="#727670" d="M238.53 89.17l1.74.38c1.1 5.26 2.36 10.48 3.65 15.7l3.86-.36.12.67-.3 3.38-2.76-1.5c1.71 6.89 3.21 14 6.66 20.27l-4.08 3.54c-1.63-3.22-2.7-6.69-4.15-9.99-.56-2.58-1.28-5.12-1.66-7.73-.45-2.92 1.07-5.76.56-8.68-.48-2.67-1.5-5.2-2.36-7.75-.54-2.63-.89-5.28-1.28-7.93z"/><path fill="#72767e" d="M240.27 89.55l3.23.58c.29 5.24 3.47 9.65 4.28 14.76l-3.86.36-3.65-15.7z"/><path fill="#3a3a3a" opacity=".69" d="M254.03 95.99c1.84 3 3.33 6.48 6.68 8.1-.67 1.07-1.33 2.16-1.95 3.26a35.24 35.24 0 0 1-4.22-9.78l-.51-1.58z"/><path fill="#7e8278" d="M252.02 98.62l2.52-1.05a35.24 35.24 0 0 0 4.22 9.78c-.73 2.26-.23 4.61 1 6.6l1.01 1.28c1.3 1.41 2.53 2.9 3.63 4.48l1.71 4.16-3.3-2.72a81.93 81.93 0 0 0 0 3.84c-.73-3.61-1.6-7.35-4.54-9.84a88.74 88.74 0 0 0-2.14 1.17l-3.4-2.58-.54-1.92-1.33-4.62 3.06.53-1.38-6.09c.62 1.06 1.41 2.03 2.37 2.82.8-1.73-.17-4.81-2.48-3.48l-.41-2.36z"/><path fill="#50514d" d="M252.43 100.98c2.31-1.33 3.28 1.75 2.48 3.48-.96-.79-1.75-1.76-2.37-2.82l-.11-.66z"/><path fill="#737479" d="M260.71 104.09c1.12-1.1 1.86-4.46 3.86-2.86 5.64 3.93 7.56 11.18 7.31 17.74.48 7.82-1.67 15.58-.57 23.38.49 4.45-.04 8.96.83 13.37l1.92 9.28-2 1.72-2.19-1.56c.18-2.52-1.26-4.61-2.61-6.59-.63-2.74-1.11-5.52-1.57-8.3l4.4.58c.3-2.26.6-4.55.26-6.82-.24-2.34-.61-4.7-1.51-6.89.9-4.07 1.84-8.19 1.64-12.38-1.52-2.12-2.9-5.68-6.08-5.05-1.1-1.58-2.33-3.07-3.63-4.48 1.87-.31 1.54-4.12-.47-2.83l-.54 1.55c-1.23-1.99-1.73-4.34-1-6.6.62-1.1 1.28-2.19 1.95-3.26m2.52.15l-.34.83.35.83.83.35.83-.35.33-.83-.34-.83-.84-.35-.82.35m-.22 4.15c.05 2.18 1.55 3.36 3.6 3.62l.17-3.78-3.77.16z"/><path fill="#98979d" d="M263.23 104.24l.82-.35.84.35.34.83-.33.83-.83.35-.83-.35-.35-.83.34-.83z"/><path fill="#72747d" d="M247.9 105.56l3.38 6.74.91-.48.54 1.92-2.2 6.13 2.46 1.09 1.19-1.88.42 2.51-1.8 7.05-1.3-.93c-3.45-6.27-4.95-13.38-6.66-20.27l2.76 1.5.3-3.38z"/><path fill="#f0eef5" d="M263.01 108.39l3.77-.16-.17 3.78c-2.05-.26-3.55-1.44-3.6-3.62z"/><path fill="#45464e" d="M260.3 112.4c2.01-1.29 2.34 2.52.47 2.83l-1.01-1.28.54-1.55z"/><path fill="#5c5d65" d="M250.53 119.87l2.2-6.13 1.45 5.34-1.19 1.88-2.46-1.09z"/><path fill="#909485" d="M252.73 113.74l3.4 2.58 2.14-1.17c2.94 2.49 3.81 6.23 4.54 9.84 1.11 3.87 2.77 7.55 3.83 11.43.73 2.76 2.13 5.26 3.71 7.61.34 2.27.04 4.56-.26 6.82l-4.4-.58c.46 2.78.94 5.56 1.57 8.3l-.66.76c-1.83-3.46-2.99-7.21-3.66-11.05l3.21-.35c-2.21-7.36-4.06-14.83-6.6-22.09l-.07 5.25c-2.03-2.94-3.93-6.02-4.88-9.5l-.42-2.51c-.41-1.8-.94-3.57-1.45-5.34z"/><path fill="#2a2b28" opacity=".6" d="M264.4 119.71c3.18-.63 4.56 2.93 6.08 5.05l-2.78-2.1c-.97 1.13-2.26 2.08-2.82 3.5-.13 4.03 2.1 7.57 3.96 10.98.9 2.19 1.27 4.55 1.51 6.89-1.58-2.35-2.98-4.85-3.71-7.61-1.06-3.88-2.72-7.56-3.83-11.43a81.93 81.93 0 0 1 0-3.84l3.3 2.72-1.71-4.16z"/><path opacity=".75" d="M242.91 128.23c-.67-2.32-.24-4.69.36-6.97 1.45 3.3 2.52 6.77 4.15 9.99l1.24.48c.54 3.07 1.22 6.13 1.66 9.22l-.55 2.38 3.83 4.16c-.56 1.53-.98 3.1-1.39 4.68-2.2.86-4.35 1.85-6.51 2.81l1.15 2.52.42.86c2.45-.24 4.84-.85 7.2-1.54 4.09 3.6 3.83 9.6 5.54 14.41.32 1.28.7 2.54 1.16 3.79l1.86 4c.32 1.13.6 2.28.84 3.44l.46 3.21-6.22-.71-2.33-4.84-7.57.83-.44-3.82 6.14-2.54c-.97-2.56-2.07-5.07-2.75-7.72-.68-2.52-.11-5.13.19-7.66-1.85.01-4.5 1.08-5.55-1.07-1.12-1.84.23-3.9.55-5.78.88-2.31-.17-4.68-.72-6.93-1.79-5.58-1.31-11.54-2.72-17.2z"/><path fill="#444652" d="M252.8 128.64l1.8-7.05c.95 3.48 2.85 6.56 4.88 9.5l.65 4.85-2.11-2.26-.51-.54c-1.49-1.59-2.94-3.22-4.71-4.5z"/><path fill="#6d6e67" d="M259.55 125.84c2.54 7.26 4.39 14.73 6.6 22.09l-3.21.35-.91.11-.2-.85c.58-3.2 2.1-7.69-1.57-9.65l-2.3-1.27.06-2.94 2.11 2.26-.65-4.85c-.03-1.75.02-3.5.07-5.25z"/><path fill="#5f6370" d="M251.5 127.71l1.3.93c1.77 1.28 3.22 2.91 4.71 4.5-2.85-1-5.87-1.18-8.85-1.41l-1.24-.48 4.08-3.54z"/><path fill="#6d6c72" opacity=".98" d="M248.66 131.73c2.98.23 6 .41 8.85 1.41l.51.54-6.2 1.24-1.5 6.03-1.66-9.22z"/><path fill="#fac856" d="M251.82 134.92l6.2-1.24-.06 2.94-5.65 1.12-.49-2.82z"/><path fill="#838487" d="M250.32 140.95l1.5-6.03.49 2.82 5.65-1.12 2.3 1.27c.02 3.28.46 6.55 1.57 9.65l.2.85-4.71.75-2.45-3.7-.86 1.37-.41.68-3.83-4.16.55-2.38z"/><path fill="#aaaab1" d="M260.26 137.89c3.67 1.96 2.15 6.45 1.57 9.65-1.11-3.1-1.55-6.37-1.57-9.65z"/><path fill="#93949a" d="M254.01 146.81l.86-1.37 2.45 3.7-3.16.55-.15-2.88z"/><path fill="#4d4d58" d="M253.6 147.49l.41-.68.15 2.88 3.16-.55 4.71-.75.91-.11c.67 3.84 1.83 7.59 3.66 11.05-1.52 2.06-3.97 2.63-6.37 2.87l.39-2.6 2.78-1.88c-.68-1.75-1.4-3.48-2.23-5.16l.33-1.91c-3.13.27-6.27.63-9.29 1.52.41-1.58.83-3.15 1.39-4.68z"/><path fill="#808383" d="M252.21 152.17c3.02-.89 6.16-1.25 9.29-1.52l-.33 1.91c.83 1.68 1.55 3.41 2.23 5.16l-2.78 1.88-.39 2.6c2.4-.24 4.85-.81 6.37-2.87l.66-.76c1.35 1.98 2.79 4.07 2.61 6.59v1.01c-1.65-1.02-3.4-3.29-5.55-2.12-1.61.61-1.36 2.76-1.84 4.11l-.71-5.06-1.69-.05-.07 8.18c-1.71-4.81-1.45-10.81-5.54-14.41l.14-2.67-7.76 3.35-1.15-2.52c2.16-.96 4.31-1.95 6.51-2.81z"/><path fill="#b1b1bb" d="M246.85 157.5l7.76-3.35-.14 2.67c-2.36.69-4.75 1.3-7.2 1.54l-.42-.86z"/><path fill="#a6aaa1" d="M260.08 163.05l1.69.05.71 5.06 1.26 4.37.39 3.11-2.96-.62c-.46-1.25-.84-2.51-1.16-3.79l.07-8.18z"/><path fill="#96e5f8" d="M264.32 164.05c2.15-1.17 3.9 1.1 5.55 2.12l-.11 3.76-6.02 2.6-1.26-4.37c.48-1.35.23-3.5 1.84-4.11m-.67 1.86l.58 3 3.27-.73-.5-3.3-3.35 1.03z"/><path fill="#e8ffff" d="M263.65 165.91l3.35-1.03.5 3.3-3.27.73-.58-3z"/><path fill="#7e7f7e" d="M269.87 165.16l2.19 1.56 2-1.72c2.41.11 4.84.26 7.21.75l.41 2.2-6.05-.93 1.29 7.3c-1.22 2.52-2.51 5.06-2.93 7.86l-1.55.4c-1.42-1.56-3.61-.94-5.44-.87 2.54-1.78 5.23-3.65 6.52-6.59-3.73.57-7.23 2.04-10.49 3.9-.6-1.35-1.26-2.66-1.86-4l2.96.62-.39-3.11 6.02-2.6.11-3.76v-1.01m1.36 3.26c-.98.88.29 2.95 1.48 2.14.98-.88-.29-2.95-1.48-2.14z"/><path fill="#565552" d="M281.27 165.75c4.25 3.15 8.7 6.39 10.94 11.36-3.66-.09-6.79-2.01-9.73-3.99.54 1.56.38 3.58 1.66 4.76 2.99 1.25 6.31 1.04 9.48 1.09 1.46 1.46 1.52 3.56 1.64 5.5-1.65.57-3.55.81-4.89 2.02-1.54 2-1.74 4.63-2.3 7l-3.03-.44a82.62 82.62 0 0 0-1.88-3.17l-.46 4.89 2.44-.9c.28 3.36.47 6.83 1.97 9.92 2.48 5.07 5.36 10.18 10 13.6l-5.74 3.75c1.18 4.14 3.24 7.95 4.41 12.09l.19.9c1.57 6.28 1.28 12.81 2.67 19.12 1.37-1.01 2.65-2.2 4.21-2.93 2.23-.74 4.71-.54 6.88-1.49 2.24-1.63 3.15-4.4 4.39-6.77 2.11 3.36 4.56 6.73 4.35 10.92-2.61.99-5.13 2.33-7.95 2.6-2.91.42-5.96.1-8.76 1.12-1.85 1.95-3.05 4.39-4.37 6.71l-3.01 1.96c1.08-4.8 2.99-9.63 2.01-14.62-.56-4.06-1.09-8.14-1.83-12.17-.96-5.16-3.43-9.85-5.61-14.57-1.56-3.3-3.01-6.82-5.82-9.29l-2.08-2.01.45-3.47-2.37-2.7-.24-2.69c1.5.23 3.01.43 4.48.82.64 1.65.96 3.41 1.36 5.14l2.65.34c-.68-3.78-1.35-7.7-3.43-11-1.02-1.74-3.28-1.88-4.95-2.64l.16-1.56.23-3.32c1.16-.88 3-1.32 3.33-2.95-.3-2.64-1.67-5.01-2.81-7.37l1.95-3.12-4.94-3.87c-.33-2.45-.84-4.87-1.29-7.3l6.05.93-.41-2.2z"/><path fill="#afb4a1" d="M271.23 168.42c1.19-.81 2.46 1.26 1.48 2.14-1.19.81-2.46-1.26-1.48-2.14z"/><path fill="#666665" d="M282.48 173.12c2.94 1.98 6.07 3.9 9.73 3.99l1.41 1.86c-3.17-.05-6.49.16-9.48-1.09-1.28-1.18-1.12-3.2-1.66-4.76z"/><path fill="#5a5f6e" d="M276.92 174.32l4.94 3.87-1.95 3.12-3.36-3.76c-2.01 4.89.75 9.76 2.84 14.08l-4.9.44c-1.62-1.56-3.38-3.03-5.47-3.91l2.08-.91-2.29-3.55c1.2-.4 2.41-.77 3.63-1.12l1.55-.4c.42-2.8 1.71-5.34 2.93-7.86z"/><path fill="#afafb6" d="M263.03 179.02c3.26-1.86 6.76-3.33 10.49-3.9-1.29 2.94-3.98 4.81-6.52 6.59-1.07.11-2.14.19-3.2.26l.07.49c-.24-1.16-.52-2.31-.84-3.44z"/><path fill="#42424a" d="M279.39 191.63c-2.09-4.32-4.85-9.19-2.84-14.08 1.14 1.22 2.29 2.45 3.36 3.76 1.14 2.36 2.51 4.73 2.81 7.37-.33 1.63-2.17 2.07-3.33 2.95z"/><path fill="#484947" d="M263.8 181.97l3.2-.26c1.83-.07 4.02-.69 5.44.87l-3.63 1.12c-2.49.52-3.74 2.54-3.99 4.95l4.2-.49c2.09.88 3.85 2.35 5.47 3.91l-.63 2.63c-.69 2.58-.14 5.22.79 7.67l3.06-3.47 1.18 4.95.24 2.69-3.48 1.06-2.08 6.6c-1.4-2.75-2.98-5.41-4.67-7.99l2.36-1.52c.33-1.8.58-3.61.67-5.43-.06-2.45.07-5.03-.94-7.31-1.5-1.59-3.91-.63-5.82-.78-2.44-2.15-5.47-3.3-8.74-3.04l1.68-3.17 6.22.71-.46-3.21-.07-.49z"/><path fill="#787c86" d="M264.82 188.65c.25-2.41 1.5-4.43 3.99-4.95l2.29 3.55-2.08.91-4.2.49z"/><path fill="#434a30" d="M243.66 185.21l5.44.52.79 2.47-8.16-.38 1.93-2.61z"/><path fill="#ce997a" d="M290.37 186.49c1.34-1.21 3.24-1.45 4.89-2.02l.59.61-1.51 1.41c3.33 3.41 6.65 6.84 9.6 10.6 4.19 5.35 8.84 10.31 13.14 15.58l-1.63.55-5.19-.92c-1.85 1.19-3.7 2.39-5.62 3.45-1.76-4.8-4.39-9.19-6.67-13.75-.93-1.66-1.74-3.48-3.21-4.73-1.41-.76-2.96-1.2-4.44-1.77l-2.25-2.01c.56-2.37.76-5 2.3-7z"/><path fill="#936b53" opacity=".88" d="M295.85 185.08c4.74 5.29 9.53 10.55 14.03 16.05 1.52 2.12 3.33 4 5.34 5.65 2.19 2.37 4.25 4.85 6.33 7.32-1.08.34-2.18.66-3.27.97l-3.59-1.51.76-.34 1.63-.55c-4.3-5.27-8.95-10.23-13.14-15.58-2.95-3.76-6.27-7.19-9.6-10.6l1.51-1.41z"/><path fill="#65687d" d="M240.63 189.29l1.1-1.47 8.16.38 1.05 3.37 3.41-.06c.82-1.05 1.43-2.23 2.08-3.38 3.27-.26 6.3.89 8.74 3.04 1.91.15 4.32-.81 5.82.78 1.01 2.28.88 4.86.94 7.31-2.55.08-5.19.31-7.65-.52-2.12-.98-3.52-2.96-5.09-4.6l-1.85 4.67-1.32.94-.94-1.96-4.7-1.16c-2.18-.5-4.41-1.43-6.67-.86-3.44.92-6.48 2.85-9.67 4.39l1.5-4.32-2.65-.91c1.16-.23 1.77-.87 1.83-1.93-.58-.83-1.4-1.12-2.44-.89.51-4.25 5.37-3.12 8.35-2.82m-4.37 3.98v.45l.45-.01v-.45l-.45.01m20 1.06v.45l.45-.01v-.45l-.45.01z"/><path fill="#7a767a" d="M283.16 189.88l1.88 3.17.1.82-2.44.9.46-4.89z"/><path fill="#c1bfc9" d="M274.49 192.07l4.9-.44-.23 3.32-5.3-.25.63-2.63z"/><path fill="#797a83" d="M232.28 192.11c1.04-.23 1.86.06 2.44.89-.06 1.06-.67 1.7-1.83 1.93l-.72-.26.11-2.56z"/><path fill="#c1bfcb" d="M236.26 193.27l.45-.01v.45l-.45.01v-.45z"/><path fill="#0c0a09" opacity=".69" d="M285.04 193.05l3.03.44 2.25 2.01.34.78-4.68-1.6c.63 2.89 1.18 5.91 2.96 8.36 3.06 4.29 6.4 8.45 10.46 11.85l.66 2.81-2.95-.31c-4.64-3.42-7.52-8.53-10-13.6-1.5-3.09-1.69-6.56-1.97-9.92l-.1-.82z"/><path fill="#c6c4cf" d="M256.26 194.33l.45-.01v.45l-.45.01v-.45z"/><path fill="#53566f" d="M259.19 194.14c1.57 1.64 2.97 3.62 5.09 4.6 2.46.83 5.1.6 7.65.52-.09 1.82-.34 3.63-.67 5.43-3.73-.7-7.03-2.56-10.14-4.64-1.25-.46-2.52-.85-3.78-1.24.68-1.53 1.26-3.1 1.85-4.67z"/><path fill="#585b73" d="M232.17 194.67l.72.26 2.65.91-1.5 4.32c3.19-1.54 6.23-3.47 9.67-4.39 2.26-.57 4.49.36 6.67.86l-.43 3.23-1.9-.09c-4.51-.59-7.05 3.99-10.29 6.29-1.01.91-2.01 1.84-2.94 2.82l-3.09-2.39.08-.93.36-10.89z"/><path fill="#787984" d="M273.86 194.7l5.3.25-.16 1.56-1.29 2.39-3.06 3.47c-.93-2.45-1.48-5.09-.79-7.67z"/><path opacity=".05" d="M285.98 194.68l4.68 1.6c1.97 5.34 5.23 10.04 7.9 15.04.3 1.19.58 2.38.84 3.57-4.06-3.4-7.4-7.56-10.46-11.85-1.78-2.45-2.33-5.47-2.96-8.36z"/><path fill="#b48668" d="M290.32 195.5c1.48.57 3.03 1.01 4.44 1.77 1.47 1.25 2.28 3.07 3.21 4.73 2.28 4.56 4.91 8.95 6.67 13.75-2.95.4-4.46-2.5-6.08-4.43-2.67-5-5.93-9.7-7.9-15.04l-.34-.78z"/><path fill="#dbdade" d="M250.38 196.63l4.7 1.16.94 1.96c-2.02.18-4.05.19-6.07.11l.43-3.23z"/><path fill="#a3a798" d="M277.71 198.9l1.29-2.39c1.67.76 3.93.9 4.95 2.64 2.08 3.3 2.75 7.22 3.43 11l-2.65-.34c-.4-1.73-.72-3.49-1.36-5.14-1.47-.39-2.98-.59-4.48-.82-.33-1.67-.77-3.31-1.18-4.95z"/><path fill="#6f7071" d="M237.76 206.06c3.24-2.3 5.78-6.88 10.29-6.29-.35 3.81-.21 7.64.04 11.46-1.71.25-3.44.39-5.16.53l-1.26-5.3-3.91-.4z"/><path fill="#626363" d="M257.34 198.81l3.78 1.24c-.05 3.82-.25 7.64-.51 11.45-2.44-.11-4.88-.05-7.32-.01l-1.28-2.98c-1.29.94-2.58 1.86-3.92 2.72-.25-3.82-.39-7.65-.04-11.46l1.9.09c2.02.08 4.05.07 6.07-.11l1.32-.94z"/><path fill="#4d4d4a" d="M198.1 200.9c3.14-1.87 5.92 1.16 9.01 1.49 3.04.28 6.08-.18 9.1-.44 1.24 2.73-.32 5.2-2 7.31-3.4 5.52-7.59 10.52-10.88 16.11l-2.56-5.04c2.16-1.52 4.33-3.04 6.22-4.89.89-1.88 2.02-3.88 1.54-6.03-2.07-.54-4.07.46-6.02 1l-1.39-.12-2.67-6.02 4.57-3.12-4.92-.25z"/><path fill="#555" d="M261.12 200.05c3.11 2.08 6.41 3.94 10.14 4.64a45.08 45.08 0 0 1-2.36 1.52c-1.13.1-2.26.17-3.39.24l-.6 5.65-4.3-.6c.26-3.81.46-7.63.51-11.45z"/><path fill="#6f6f6e" opacity=".98" d="M198.1 200.9l4.92.25-4.57 3.12-2.09-1.59 1.74-1.78z"/><path fill="#4b3629" opacity=".63" d="M309.88 201.13c1.9 1.77 3.7 3.64 5.34 5.65-2.01-1.65-3.82-3.53-5.34-5.65z"/><path d="M192.4 209.33c.96-2.41 2.21-4.72 3.96-6.65l2.09 1.59 2.67 6.02 1.39.12a33.44 33.44 0 0 0 4.48 5.03c-1.89 1.85-4.06 3.37-6.22 4.89l2.56 5.04-.68 3.3-2.22 1.43c-.1-2.52-.52-5.01-.99-7.48l-.16-.92c-.55-.78-1.16-1.51-1.82-2.19-1.94-.22-3.9-.11-5.85-.13 2.44-3.38 6.21-5.38 8.97-8.44-2.37-1.84-5.32-1.98-8.18-1.61zm90.37 21.91c-.01-3.55.38-7.09 1.04-10.57 3.09 6.36 5.94 12.88 7.71 19.75 1.17 4.49.89 9.2.18 13.74-1.44 4.46-1.27 9.2-2.27 13.76-.91-1.34-1.75-2.72-2.59-4.09-2.09 2.42-4.49 4.52-7.1 6.36.71-3.68 2.21-7.11 3.89-10.43 2.1-4.21 1.24-9.05.36-13.45l-1.97-1.21c-.36-.81-.68-1.62-.93-2.46-.02-.08-.07-.24-.09-.33-.79-2.74-.43-5.6.21-8.32l1.77 3.01c-.1-1.92-.18-3.84-.21-5.76z" fill="#585958"/><path fill="#53554f" d="M218.84 211.91c4.09-2.55 8-5.77 12.97-6.35l-.08.93c-.52 2.73-1.27 5.41-1.95 8.1l2.45-.19c-.67 4.36-.58 8.79-.44 13.2l-2.25 1.58 3.85 3.59c-.08 3.26.12 6.61-.81 9.77-1.21 2-3.24 3.31-4.98 4.81l.17-3.21c.73-5.15.65-10.34.2-15.51l.29-3.33-2.8 1.14 3.56-5.26c-2.75-1.45-5.66.3-8.37.97l-.02-4.76-5.75-1.68c1.07-1.5 2.45-2.75 3.96-3.8z"/><path fill="#87857e" d="M234.82 208.88l2.94-2.82 3.91.4 1.26 5.3 5.16-.53 3.92-2.72 1.28 2.98 7.32.01 4.3.6.6-5.65 3.39-.24c1.69 2.58 3.27 5.24 4.67 7.99l-1.22.04c-1.75-2.19-3.06-4.7-4.74-6.94-.26 1.47-.73 2.96-.55 4.47.5 5.67 2.03 11.17 3 16.77-.75 1.74-1.8 3.47-1.78 5.43.02 4.73.74 9.44.74 14.18l-1.44-2.14c-.74 2.35-1.03 5.02-2.67 6.97-5.12 5.06-12.99 6.98-19.9 4.94-2.72-.79-6.66-1.61-6.92-5.08-1.12-6.79.03-13.68-.34-20.52l-5.96-4.72c-.14-4.41-.23-8.84.44-13.2.73-1.9 1.58-3.75 2.59-5.52m16.14 4.1l.23 1c-4.13 1.11-8.36 1.75-12.49 2.81-1.35 2.38-2.94 4.65-3.91 7.22.54 3.34 3.86 5.01 5.78 7.49.26 2.71-.74 5.42-.12 8.12.35 1.82.82 3.62 1.22 5.44 1.98-1.45 4.14-2.64 6.33-3.76 1.47-.78 3.26-1.92 2.96-3.88l1.53.36c.7 1.25 1.48 2.47 2.34 3.63 1.39-.78 2.79-1.53 4.2-2.27-.34 3.45-.82 7.07-2.84 10-1.83.77-3.87.69-5.77 1.2-1.17.68-2.01 1.77-2.97 2.7 3.38 3.24 8.13 1.63 12.05.54.53-3.87.85-7.77 1.06-11.67.16-3.62 2.09-7.31.53-10.84-.47-1.8-2.11-2.77-3.5-3.8-.36-2.51.18-5.34-1.38-7.52-.07-1.62-.27-3.23-.41-4.84 2.14-.47 4.26-1.04 6.38-1.58-3.73-.4-7.48-.51-11.22-.35z"/><path fill="#686968" d="M231.73 206.49l3.09 2.39c-1.01 1.77-1.86 3.62-2.59 5.52l-2.45.19 1.95-8.1z"/><path fill="#625f59" d="M275.65 207.6l3.48-1.06 2.37 2.7-.45 3.47-2.33-.33.19 3.89-4.94-1.1-.35 2.52-1.38 6.73c-1.86-4.16-3.5-8.41-5.18-12.65-.18-1.51.29-3 .55-4.47 1.68 2.24 2.99 4.75 4.74 6.94l1.22-.04c.74-2.18 1.4-4.39 2.08-6.6z"/><path fill="#6c6c6a" d="M192.4 209.33c2.86-.37 5.81-.23 8.18 1.61-2.76 3.06-6.53 5.06-8.97 8.44 1.95.02 3.91-.09 5.85.13.66.68 1.27 1.41 1.82 2.19-2 .07-4.01.02-5.98.36-1.44.62-2.3 2.03-3.3 3.17-.3-2.86-1.22-5.82-.27-8.65.74-2.47 1.73-4.86 2.67-7.25z"/><path fill="#71716f" d="M202.51 210.41c1.95-.54 3.95-1.54 6.02-1 .48 2.15-.65 4.15-1.54 6.03a33.44 33.44 0 0 1-4.48-5.03z"/><path fill="#010101" opacity=".76" d="M203.33 225.37c3.29-5.59 7.48-10.59 10.88-16.11l-.14 2.86c1.59-.05 3.18-.09 4.77-.21-1.51 1.05-2.89 2.3-3.96 3.8-.5 1.89-.74 3.88-1.56 5.67-1.23 1.99-3.06 3.54-4.27 5.54-1.03 2.28-1.25 4.83-2.17 7.15-.81 1.39-2.19 2.31-3.44 3.27.23-2.92.09-5.87-.79-8.67.2-1.11.42-2.21.68-3.3z"/><path fill="#6f7168" d="M298.56 211.32c1.62 1.93 3.13 4.83 6.08 4.43l5.62-3.45 5.19.92-.76.34c-2.08 1.01-4.19 1.99-6.49 2.35l-3.4.37c1.42 2.37 2.8 4.85 3.11 7.64.82 6.41 3.6 12.31 6.21 18.14-1.24 2.37-2.15 5.14-4.39 6.77-2.17.95-4.65.75-6.88 1.49-1.56.73-2.84 1.92-4.21 2.93-1.39-6.31-1.1-12.84-2.67-19.12 1.51.19 3.03.47 4.56.35 2.54-.37 4.05-2.65 5.64-4.41-3.08-.1-6.68-1.23-9.39.71l-1 2.45c-1.17-4.14-3.23-7.95-4.41-12.09l5.74-3.75 2.95.31-.66-2.81c-.26-1.19-.54-2.38-.84-3.57z"/><path fill="#6e6d6d" d="M267.06 211.77c1.68 4.24 3.32 8.49 5.18 12.65 1.21 2.62 3.96 3.19 6.55 3.58l1.27-1.89-2.97-3.33c1.46-1.85 2.09-4.17 1.82-6.51l-.19-3.89 2.33.33 2.08 2.01-1.68.26c.75 1.91 1.52 3.81 2.36 5.69-.66 3.48-1.05 7.02-1.04 10.57l-3.89-1.9.24 3.74-3.99 1.79-.74-5.46-4.33-.87c-.97-5.6-2.5-11.1-3-16.77m14.2 16.52l-.01.45h.46v-.45h-.45z"/><path fill="#515152" d="M250.96 212.98c3.74-.16 7.49-.05 11.22.35l-6.38 1.58-4.22.89-.39-1.82-.23-1z"/><path fill="#9b9990" d="M238.7 216.79c4.13-1.06 8.36-1.7 12.49-2.81l.39 1.82c.21 3.03.22 6.15-.64 9.09-.77 1.03-1.19 2.79.23 3.51-.18 1.75-.25 3.52-.24 5.29a9.02 9.02 0 0 0 .01.52l.01.63.01.53v2.05c.3 1.96-1.49 3.1-2.96 3.88-2.19 1.12-4.35 2.31-6.33 3.76-.4-1.82-.87-3.62-1.22-5.44-.62-2.7.38-5.41.12-8.12-1.92-2.48-5.24-4.15-5.78-7.49.97-2.57 2.56-4.84 3.91-7.22z"/><path fill="#5c554c" d="M308.2 215.91c2.3-.36 4.41-1.34 6.49-2.35l3.59 1.51-4.14.83.74 2.15-3.81-.2 1.24.89c2.15 2.68 3.61 5.81 4.71 9.04-1.41-.21-2.82-.45-4.22-.7l-1.17 1.9c-1.95-4.19-.18-9.42-3.43-13.07z"/><path fill="#444343" d="M321.55 214.1c1.84.78 4 1.31 5.14 3.1 2.44 3.34 4.35 7.02 6.73 10.41l-3.47-2.25c.97 3.04 1.64 6.16 1.83 9.35l-2.28.43c-.33-4.8-1.48-9.94-5.19-13.32l-1.54 3.22c-.94-2.24-2.13-4.36-3.3-6.48l-4.59-.51-.74-2.15c1.38-.25 2.77-.51 4.14-.83l3.27-.97m1.75 4.12l-.01.46.46.01.01-.46-.46-.01z"/><path fill="#7f8594" d="M251.58 215.8l4.22-.89.41 4.84c-.48 6.04-.21 12.09.43 18.11-1.39-.01-2.77-.01-4.15-.08l-1.53-.36v-2.05c0-.14 0-.4-.01-.53l-.01-.63-.01-.52c-.01-1.77.06-3.54.24-5.29.87-1.01 1.17-2.79-.23-3.51.86-2.94.85-6.06.64-9.09m1.72 2.32v.82l.72.41.71-.41v-.82l-.72-.41-.71.41m.08 3.04c-.43 1.4.06 1.88 1.46 1.45.42-1.4-.07-1.88-1.46-1.45m.7 10.19c-1.15.37-1.74 2.12-.9 3.05 1.55.63 2.68-2.88.9-3.05z"/><path fill="#4e4e4c" d="M273.97 215.17l4.94 1.1c.27 2.34-.36 4.66-1.82 6.51l-2.75 2.17-.72-7.26.35-2.52z"/><path fill="#88847b" d="M281.45 214.98l1.68-.26c2.81 2.47 4.26 5.99 5.82 9.29 2.18 4.72 4.65 9.41 5.61 14.57.74 4.03 1.27 8.11 1.83 12.17-.3 3.37-1.23 6.65-2.37 9.83-.83-2.13-1.64-4.25-2.32-6.42.71-4.54.99-9.25-.18-13.74-1.77-6.87-4.62-13.39-7.71-19.75-.84-1.88-1.61-3.78-2.36-5.69z"/><path fill="#636461" d="M214.88 215.71l5.75 1.68.02 4.76c2.71-.67 5.62-2.42 8.37-.97l-3.56 5.26 2.8-1.14-.29 3.33c-.96 2.46-2.36 4.86-2.44 7.57-.08 2.82 1.27 5.38 2.24 7.94l-.17 3.21c1.74-1.5 3.77-2.81 4.98-4.81.93-3.16.73-6.51.81-9.77l-3.85-3.59 2.25-1.58 5.96 4.72c.37 6.84-.78 13.73.34 20.52.26 3.47 4.2 4.29 6.92 5.08 6.91 2.04 14.78.12 19.9-4.94 1.64-1.95 1.93-4.62 2.67-6.97l1.44 2.14c0 1.59-.05 3.18-.16 4.76-.2 1.5-.47 2.98-.75 4.47 2.16-.55 4.38-.79 6.6-.75-1.87 3.87-4.68 7.32-8.51 9.38l.46-3.04c-2.74-.1-5.47-.14-8.19-.09-6.06-1.73-12.31-2.63-18.55-3.36l-3.67-4.08c.27-1.75 1.7-4.96-1.14-5.23l.7-2.38-4.31-1.64c.64 1.49.76 3.63 2.77 3.86a97.96 97.96 0 0 0-1.74 2.6l-1.6 2.48 3.02 5.31c-.37 3.33.66 6.56 1.93 9.59-2.03-2.41-3.92-4.99-5.02-7.96-1.47-3.85-1.65-8.02-2.81-11.95-.29-1.57-1.75-2.35-2.82-3.33.03 3.49-.01 7 .31 10.48.17 2.63 2.07 4.63 3.5 6.67 2.7 3.5 5.14 7.19 7.19 11.1 1-.54 1.99-1.1 2.98-1.67l1.95 1.09.72 3.92 1.8-.02 1.27.72-.22 1.6-2.3 2.09-3.6.25 2.03-1.04-2.98-5.62c-2.93.02-5.85.42-8.67 1.23l.34 3.44-4.33.02-1.37-1.88c-1.61-2.71-3.92-4.88-6.48-6.68-3.64-2.2-2.99-6.86-4.08-10.41-2.29-6.52-3.99-13.31-3.54-20.28l-.01-3.24c-2.07.45-4.24.88-5.91 2.28-2.53 1.96-5.5 4.59-5.12 8.12.51 2.47 1.77 4.71 2.84 6.98-1.03 1.68-2.23 3.3-2.87 5.18.13 3.91 2.77 7.21 5.31 9.99-1.81-.8-3.59-1.66-5.37-2.51a93.34 93.34 0 0 1-1.68 2.24c.57-4.92.56-9.88.32-14.82-.22-5.27-1.66-10.44-1.43-15.74 1.07-.52 2.14-1.04 3.24-1.5 1.44-.52 2.92-.95 4.37-1.44 1.25-.96 2.63-1.88 3.44-3.27.92-2.32 1.14-4.87 2.17-7.15 1.21-2 3.04-3.55 4.27-5.54.82-1.79 1.06-3.78 1.56-5.67m-.39 13.94c-3.15 5.63-1.53 12.3-1.82 18.42-.59 7.72 2.28 15.33 6.42 21.73 1.58 2.68 3.05 5.91 6.45 6.53-1.83-4.48-3.3-9.11-5.53-13.42-3.44-6.66-4.2-14.41-3.53-21.8.43-4.04 0-8.11-.76-12.08l-1.23.62m49.2 31.28l3.25 1.27-.57-4.69c-.96 1.08-1.85 2.23-2.68 3.42z"/><path fill="#292927" d="M304.8 216.28l3.4-.37c3.25 3.65 1.48 8.88 3.43 13.07 1.49 4.31 3.24 8.55 5.62 12.45.68 1.24 1.34 2.49 1.94 3.78l.36 1.56c-.07 1.68-.23 3.35-.35 5.03l3 .24c2.05.13 4.11.21 6.17.13-2.84 2.23-6.64.49-9.9.81.21-4.19-2.24-7.56-4.35-10.92-2.61-5.83-5.39-11.73-6.21-18.14-.31-2.79-1.69-5.27-3.11-7.64z"/><path fill="#e0e2e5" d="M253.3 218.12l.71-.41.72.41v.82l-.71.41-.72-.41v-.82z"/><path fill="#7e7b79" d="M272.24 224.42l1.38-6.73.72 7.26 2.75-2.17 2.97 3.33-1.27 1.89c-2.59-.39-5.34-.96-6.55-3.58z"/><path fill="#606061" d="M311.07 217.85l3.81.2 4.59.51 3.3 6.48 2.41 6.87-.04 5.79c-2.38 2.17-4.26 4.79-5.95 7.51l-1.94-3.78 1.83-4.65.22 2.14 2.72-1.21c-.53-4.31-1.97-8.45-3.36-12.54-.72-1.76-1.26-3.75-2.71-5.07-1.19-.53-2.43-.91-3.64-1.36a95.59 95.59 0 0 0-1.24-.89z"/><path d="M323.3 218.22l.46.01-.01.46-.46-.01.01-.46zm-72.35 16.62c.01.13.01.39.01.53l-.01-.53z" fill="#fff"/><path fill="#97979d" d="M312.31 218.74l3.64 1.36c1.45 1.32 1.99 3.31 2.71 5.07 1.39 4.09 2.83 8.23 3.36 12.54-.89.44-1.8.84-2.72 1.21l-.22-2.14c-.16-3.1-.97-6.11-2.06-9-1.1-3.23-2.56-6.36-4.71-9.04z"/><path fill="#989691" d="M256.21 219.75c1.56 2.18 1.02 5.01 1.38 7.52 1.39 1.03 3.03 2 3.5 3.8 1.56 3.53-.37 7.22-.53 10.84-.21 3.9-.53 7.8-1.06 11.67-3.92 1.09-8.67 2.7-12.05-.54.96-.93 1.8-2.02 2.97-2.7 1.9-.51 3.94-.43 5.77-1.2 2.02-2.93 2.5-6.55 2.84-10l-4.2 2.27c-.86-1.16-1.64-2.38-2.34-3.63 1.38.07 2.76.07 4.15.08-.64-6.02-.91-12.07-.43-18.11z"/><path fill="#b1b3ba" d="M253.38 221.16c1.39-.43 1.88.05 1.46 1.45-1.4.43-1.89-.05-1.46-1.45z"/><path fill="#ca9678" d="M190 225.23c1-1.14 1.86-2.55 3.3-3.17 1.97-.34 3.98-.29 5.98-.36l.16.92c-1.54 4.33-2.93 8.74-5 12.86-.99 2.11-3.53 2.57-5.47 3.41-1.28.42-2.58.8-3.86 1.19l1.02-3.66c1.47-3.67 3.05-7.31 3.87-11.19z"/><path fill="#292a29" d="M324.31 221.82c3.71 3.38 4.86 8.52 5.19 13.32-1.47-1.04-2.94-2.08-4.32-3.23-.76-2.31-1.51-4.62-2.41-6.87l1.54-3.22z"/><path fill="#ac7e62" d="M199.44 222.62c.47 2.47.89 4.96.99 7.48l-1.36 8.68-3.24 1.5-4.18-.23-2.68-1.16c1.94-.84 4.48-1.3 5.47-3.41 2.07-4.12 3.46-8.53 5-12.86z"/><path fill="#d2d6da" d="M251.17 228.4c-1.42-.72-1-2.48-.23-3.51 1.4.72 1.1 2.5.23 3.51z"/><path fill="#4d4d4c" d="M329.95 225.36l3.47 2.25c2.33 1.85 5.54 3.43 6.05 6.69.6 3.26.95 7.13-1.61 9.69.58-2.33 1.01-4.7 1.33-7.08-.54-1.62-.74-3.88-2.6-4.56-1.23-.24-2.47-.42-3.71-.52.26 2.61 1.11 5.09 2.26 7.44l-.45 1.45c-1.7 3.81-4.88 6.87-5.77 11.05l-.55.4c-2.06.08-4.12 0-6.17-.13l.47-5.38-3.12.11-.36-1.56c1.69-2.72 3.57-5.34 5.95-7.51.07-1.93.11-3.86.04-5.79 1.38 1.15 2.85 2.19 4.32 3.23l2.28-.43c-.19-3.19-.86-6.31-1.83-9.35z"/><path fill="#656057" d="M311.63 228.98l1.17-1.9 4.22.7c1.09 2.89 1.9 5.9 2.06 9l-1.83 4.65c-2.38-3.9-4.13-8.14-5.62-12.45z"/><path fill="#d6d3d7" d="M281.26 228.29h.45v.45h-.46l.01-.45z"/><path fill="#8a8880" d="M214.49 229.65l1.23-.62c.76 3.97 1.19 8.04.76 12.08-.67 7.39.09 15.14 3.53 21.8 2.23 4.31 3.7 8.94 5.53 13.42-3.4-.62-4.87-3.85-6.45-6.53-4.14-6.4-7.01-14.01-6.42-21.73.29-6.12-1.33-12.79 1.82-18.42z"/><path fill="#7f7f7d" d="M225.53 236.2c.08-2.71 1.48-5.11 2.44-7.57.45 5.17.53 10.36-.2 15.51-.97-2.56-2.32-5.12-2.24-7.94z"/><path fill="#595959" d="M270.06 228.54l4.33.87.74 5.46-3.38-3.59c.39 2.6 1.52 4.97 3.13 7.04l-3.07 6.39 4.85-1.76 2.32-1.99c-.66 3.72-.98 7.73-3.07 10.97-1.91 1.66-4.73.89-7.05.98.11-1.58.16-3.17.16-4.76 0-4.74-.72-9.45-.74-14.18-.02-1.96 1.03-3.69 1.78-5.43z"/><path fill="#3e3f3e" d="M279.12 233.08l-.24-3.74 3.89 1.9.21 5.76-1.77-3.01c-.64 2.72-1 5.58-.21 8.32l.09.33c.25.84.57 1.65.93 2.46-.51 3.38-1.24 6.72-2.08 10.04-1.19 4.58-1.18 9.4-2.7 13.9-.97 1.5-2.04 2.94-3.05 4.41l-1.04-1.4c-.63-.83-1.33-1.58-2.09-2.27-3.03-.78-6.21-.58-9.3-.45l-.76-2.57c1.48-.16 2.95-.39 4.43-.63l.77-.12c3.83-2.06 6.64-5.51 8.51-9.38-2.22-.04-4.44.2-6.6.75.28-1.49.55-2.97.75-4.47 2.32-.09 5.14.68 7.05-.98 2.09-3.24 2.41-7.25 3.07-10.97.03-1.76-.02-3.51-.08-5.26-3.05.93-1.73 4.84-2.24 7.25-1.58.68-3.22 1.21-4.85 1.76.99-2.15 2.04-4.27 3.07-6.39-1.61-2.07-2.74-4.44-3.13-7.04 1.15 1.17 2.27 2.38 3.38 3.59l3.99-1.79m2.19-.81v.44h.45v-.44h-.45z"/><path fill="#888982" d="M296.78 230.78c2.71-1.94 6.31-.81 9.39-.71-1.59 1.76-3.1 4.04-5.64 4.41-1.53.12-3.05-.16-4.56-.35l-.19-.9 1-2.45z"/><path fill="#aab0bb" d="M254.08 231.35c1.78.17.65 3.68-.9 3.05-.84-.93-.25-2.68.9-3.05z"/><path fill="#818083" d="M281.31 232.27h.45v.44h-.45v-.44z"/><path fill="#6b6762" d="M332.88 231.83c1.24.1 2.48.28 3.71.52 1.86.68 2.06 2.94 2.6 4.56l-3.11-.51-.94 2.87c-1.15-2.35-2-4.83-2.26-7.44z"/><path fill="#d6d8db" d="M250.94 234.21c-.01-.13-.01-.39-.01-.52l.01.52z"/><path fill="#5d5651" d="M185.65 235.08l.48 1.34-1.02 3.66 3.86-1.19 2.68 1.16-2.34-.13c2.1 3.53 4.89 6.93 5.32 11.16.64 4.97.45 9.99.13 14.97-.72-1.65-1.58-3.24-2.47-4.8-3.73-5.82-4.44-13.16-2.87-19.8l-2.67 1.5c-1.4.85-2.74 1.79-4.02 2.81l-1.54 1.5c1.65-4 2.94-8.13 4.46-12.18z"/><path fill="#6b6866" d="M276.66 242.95c.51-2.41-.81-6.32 2.24-7.25l.08 5.26-2.32 1.99z"/><path fill="#818081" d="M336.08 236.4l3.11.51c-.32 2.38-.75 4.75-1.33 7.08l-.46.61-2.71-3.88.45-1.45.94-2.87z"/><path fill="#7c7e76" d="M203.83 240.84c1.67-1.4 3.84-1.83 5.91-2.28l.01 3.24c-2.02.2-4.08.27-6.03.88-1.69 1.71-2.93 4.3-2.05 6.71 1.12 3.7 2.14 7.48 2.02 11.39 2.96 1.4 6.57 4.01 9.6 1.3 1.09 3.55.44 8.21 4.08 10.41-4.48.26-9.2.56-13.38-1.38-2.54-2.78-5.18-6.08-5.31-9.99.64-1.88 1.84-3.5 2.87-5.18-1.07-2.27-2.33-4.51-2.84-6.98-.38-3.53 2.59-6.16 5.12-8.12z"/><path fill="#352b27" d="M189.31 239.92l2.34.13 4.18.23c-.23 5.3 1.21 10.47 1.43 15.74.24 4.94.25 9.9-.32 14.82l-1.93 1.74c-.3-2.16-.31-4.35-.25-6.53.32-4.98.51-10-.13-14.97-.43-4.23-3.22-7.63-5.32-11.16z"/><path fill="#5b5b5b" opacity=".97" d="M328.92 251.77c.89-4.18 4.07-7.24 5.77-11.05l2.71 3.88c-1.51 1.42-3.1 2.77-4.64 4.16-1.25 1.05-2.54 2.04-3.84 3.01z"/><path fill="#8e8f92" d="M186.75 242.95l2.67-1.5c-1.57 6.64-.86 13.98 2.87 19.8l-3.66 1.97c-1.1-6.7-2.17-13.46-1.88-20.27z"/><path fill="#8f9088" d="M203.72 242.68c1.95-.61 4.01-.68 6.03-.88-.45 6.97 1.25 13.76 3.54 20.28-3.03 2.71-6.64.1-9.6-1.3.12-3.91-.9-7.69-2.02-11.39-.88-2.41.36-5 2.05-6.71z"/><path fill="#a19fa3" d="M281.09 242.64l-.09-.33.09.33z"/><path fill="#6e7070" d="M182.73 245.76c1.28-1.02 2.62-1.96 4.02-2.81-.29 6.81.78 13.57 1.88 20.27l3.66-1.97c.89 1.56 1.75 3.15 2.47 4.8-.06 2.18-.05 4.37.25 6.53.39 2.36.56 4.78.06 7.14l-2.52-2.07c-1.18-.26-2.38-.48-3.5-.93-1.45-1.99-2.15-4.39-3.03-6.65l4.48 3.13c.54-1.21 1.3-2.37 1.43-3.71.11-1.8-1.37-3.11-2.27-4.51l-1.91 3.97c-1.43-3.28-3-6.54-3.62-10.09-.76-4.33-.94-8.73-1.4-13.1z"/><path fill="#77746d" d="M282.02 245.1l1.97 1.21c.88 4.4 1.74 9.24-.36 13.45-1.68 3.32-3.18 6.75-3.89 10.43-.29.33-.89.97-1.19 1.29l-1.31-2.44c1.52-4.5 1.51-9.32 2.7-13.9.84-3.32 1.57-6.66 2.08-10.04z"/><path fill="#505250" d="M181.19 247.26l1.54-1.5c.46 4.37.64 8.77 1.4 13.1.62 3.55 2.19 6.81 3.62 10.09l1.91-3.97c.9 1.4 2.38 2.71 2.27 4.51-.13 1.34-.89 2.5-1.43 3.71l-4.48-3.13c.88 2.26 1.58 4.66 3.03 6.65 1.12.45 2.32.67 3.5.93l2.52 2.07c.5-2.36.33-4.78-.06-7.14l1.93-1.74 1.68-2.24 5.37 2.51c4.18 1.94 8.9 1.64 13.38 1.38 2.56 1.8 4.87 3.97 6.48 6.68-3.3-.54-6-2.57-8.97-3.92-2.28-.02-4.14 1.55-5.9 2.78l1.05-2.84-3.25.79-.19-.79-.77-.37-.7.48-.08.8c-2.47-.26-4.96-.39-7.44-.44.7.87 1.26 1.89 2.2 2.54 2.8.83 5.76.38 8.62.3-3.37 3.79-8.66 2.84-13.17 2.86-1.7 3.1-2.65 7.03-5.75 9.06-3.22.44-6.38-.66-9.42-1.57 2.96.15 5.93.1 8.9.09l-.21-2.12c-1.81-1.93-4.43-2.58-6.83-3.43-1.89-.66-3.74-1.43-5.56-2.24l-1.56-2.01 3.14-6.68c-1.77-1.41-3.94-1.99-6.18-1.97 1.23-4.95 2.03-10.07 4.24-14.72 1.6-2.91 3.66-5.54 5.17-8.51z"/><path fill="#777978" d="M231.5 246.19l4.31 1.64-.7 2.38-.84-.16c-2.01-.23-2.13-2.37-2.77-3.86z"/><path fill="#67696d" d="M319.55 246.77l3.12-.11-.47 5.38-3-.24.35-5.03z"/><path fill="#949189" d="M225.23 246.79c1.07.98 2.53 1.76 2.82 3.33 1.16 3.93 1.34 8.1 2.81 11.95 1.1 2.97 2.99 5.55 5.02 7.96 1 1.21 2.14 2.31 3.33 3.34l-2.98 1.67c-2.05-3.91-4.49-7.6-7.19-11.1-1.43-2.04-3.33-4.04-3.5-6.67-.32-3.48-.28-6.99-.31-10.48z"/><path opacity=".07" d="M328.92 251.77l3.84-3.01c-1.69 2.51-2.77 5.42-2.39 8.48l2.99-4.05a59.02 59.02 0 0 0 5.51 6.11l1.25-5.67c1.84 1.42 3.94 2.46 6.21 3.03l-.66 2.17 2.38 1.19c.21-1.41.35-2.84.79-4.2.94-.71 1.97-1.28 2.99-1.88l2.4 6.17 4.35-1.93.78 3.31c3.43-1.01 6.83-2.12 10.18-3.39l-.82 2.54 3.7 4.71 3.55-3.54c2.7.17 5.4.09 8.09-.17-.22 2.39-.34 5.07 1.88 6.62 1.29-1.34 1.56-3.23 2.03-4.95 2.91.08 5.4 1.56 7.52 3.44 1.71-.5 3.4-1.33 5.22-1.28 2.98.53 5.77 1.78 8.63 2.74l.73-6.88c1.44 1.74 2.79 3.61 4.59 5.01 4.68-.15 9.6.18 14.04-1.59l1.51 3.52c1.41-1.47 2.8-2.97 4.16-4.49 2.34 1.59 4.64 3.41 7.44 4.1 1.41-1.3 2.58-2.85 4.03-4.12 1.71-.61 3.58-.36 5.37-.57 2.25-.11 4.31-1.17 6.53-1.44 2.38.01 4.69.72 7.02 1.14l-1.06-5.91 4.14.55-1.25-2.29c1.98-1.57 3.98-3.09 6.08-4.49-.01 2.3-.87 4.42-1.98 6.39 1.22.65 2.34 1.92 3.84 1.67 4.27-.49 8.54-1.02 12.75-1.94-2.06-.66-4.15-1.21-6.25-1.71.21-.83.44-1.65.67-2.48 3.38.43 6.78.34 10.17.58l3.02-2.33 6.25 4.86c1.81-1.69 3.59-3.42 5.34-5.19l5.52 2.38v77.7c-1.31 2.87-3.21 5.4-4.87 8.07-2.04 3.19-1.6 7.69-5.12 9.91-.68-.75-1.32-1.54-1.91-2.35-.47-3.25.41-6.86-1.56-9.77-1.05-.6-2.17-1.05-3.27-1.52l-.19 4.08 2.29.9c-1.92 3.41-4.44 6.42-7.35 9.03l-4.23-1.78-1.27 4.02c-.76-2.77-1.38-5.57-1.98-8.38-2.08 1.97-4.03 4.11-6.31 5.87-2.25 1.8-5.3.57-7.87.44l2.78 4.63c-2.74-1.65-5.19-3.87-8.21-4.98-5.41.79-10.69 2.49-16.18 2.91a191.7 191.7 0 0 1 1.8-6.34l-4.96-.78c-1.14.97-2.13 2.21-3.53 2.8-2.46.23-4.94-.36-7.24-1.16-2.88-1.07-4.87-3.53-6.98-5.64-2.8.9-5.77 2.98-8.77 1.71-3.59-1.51-7.53-1.32-11.28-2.12l-.43 1.77-3.54-2.83c-2.6.64-5.24 1.15-7.9 1.41l1.59-3.23c-3.87-.14-7.35-1.86-10.51-3.97-2.89 1.14-5.71 2.79-8.86 3.03-1.65-.93-1.99-3.27-2.95-4.82-2.36.08-4.72.45-6.88 1.45-2.23-1.13-4.35-2.51-6.71-3.34-2.48-.17-4.84 1.28-7.35 1.01-4.37-.37-9-.71-12.67-3.38-2.02.14-4.03.33-6.03.55l-1.62-6.59 2.29-2.48-1.24-5.23-2.19-.49-.77 4.26c-1.37-2.69-2.23-6.36-5.61-7.12.52 1.28 1.07 2.55 1.63 3.81l-2.17 3.02-1.77-4.23-4.85-1.1 2.43-3.95-2.79-2.88c-.97 1.15-1.78 2.46-2.93 3.44-1.22.24-2.46.18-3.68.2.33-1.47.68-2.93 1.06-4.39l-4.93-2.68-.12 3.74-5.86.8.17-4.68c-1.62-.9-3.2-1.98-5.01-2.46-1.9-.13-3.73.51-5.56.87-.06-1.34-.09-2.68-.1-4.01 2.55-7.33 2.57-15.11 3.3-22.74 1.42-3.18 3.07-6.26 4.16-9.58 1.32-2.32 2.52-4.76 4.37-6.71 2.8-1.02 5.85-.7 8.76-1.12 2.82-.27 5.34-1.61 7.95-2.6 3.26-.32 7.06 1.42 9.9-.81l.55-.4z"/><path fill="#48494a" d="M234.27 250.05l.84.16c2.84.27 1.41 3.48 1.14 5.23l-3.72-2.79 1.74-2.6z"/><path fill="#656561" d="M296.39 250.75c.98 4.99-.93 9.82-2.01 14.62l3.01-1.96c-1.09 3.32-2.74 6.4-4.16 9.58-.85 2.4-1.44 4.89-2.16 7.33-4.2 1.9-8.61 3.3-12.78 5.27l1.28 2.6c-1.55 1.15-3.02 2.49-4.83 3.23-1.62.16-3.09-.81-4.59-1.27.31-1.9.64-3.8.85-5.71.11-1.76.11-3.52.12-5.28l4.54-.29c-1.18-1.59-2.03-3.41-1.47-5.42 1.01-1.47 2.08-2.91 3.05-4.41l1.31 2.44c1.12 3.15.38 6.48-.18 9.66 6.16-.14 11.1-4.67 13.67-9.97-.89-1.07-1.78-2.14-2.61-3.25 1-4.56.83-9.3 2.27-13.76.68 2.17 1.49 4.29 2.32 6.42 1.14-3.18 2.07-6.46 2.37-9.83z"/><path fill="#828383" d="M230.93 255.13l1.6-2.48 3.72 2.79 3.67 4.08c2.9 3.78 7.62 5.03 12.11 5.6-5.15 1.78-10.5.34-15.26-1.86-.98-.91-1.92-1.85-2.82-2.82-1.06-1.74-2.03-3.54-3.02-5.31z"/><path fill="#474849" d="M263.69 260.93c.83-1.19 1.72-2.34 2.68-3.42l.57 4.69-3.25-1.27z"/><path fill="#56514c" d="M239.92 259.52c6.24.73 12.49 1.63 18.55 3.36l-.94.37c-1.8.73-3.6 1.46-5.5 1.87-4.49-.57-9.21-1.82-12.11-5.6z"/><path fill="#454644" d="M235.88 270.03c-1.27-3.03-2.3-6.26-1.93-9.59l2.82 2.82c3.34 3.77 8.16 5.66 13.04 6.44-2.19.71-4.44 1.19-6.67 1.71.12 2.32.24 4.64.54 6.95l-1.8.02-.72-3.92c-.66-.35-1.31-.72-1.95-1.09-1.19-1.03-2.33-2.13-3.33-3.34z"/><path fill="#5e6161" d="M236.77 263.26c4.76 2.2 10.11 3.64 15.26 1.86 1.9-.41 3.7-1.14 5.5-1.87l2.03 2.59 5.87.29c-1.48.24-2.95.47-4.43.63-2.24.13-4.49-.03-6.7.37-1.59.69-2.95 1.79-4.49 2.57-4.88-.78-9.7-2.67-13.04-6.44m16.79 1.9c.16 1.42.81 1.66 1.95.7-.16-1.43-.8-1.66-1.95-.7z"/><path fill="#7d7e7d" d="M258.47 262.88l8.19.09-.46 3.04-.77.12-5.87-.29-2.03-2.59.94-.37z"/><path fill="#444544" d="M279.74 270.19c2.61-1.84 5.01-3.94 7.1-6.36l2.59 4.09 2.61 3.25c-2.57 5.3-7.51 9.83-13.67 9.97.56-3.18 1.3-6.51.18-9.66l1.19-1.29z"/><path fill="#7f7f81" d="M253.56 265.16c1.15-.96 1.79-.73 1.95.7-1.14.96-1.79.72-1.95-.7z"/><path fill="#373736" d="M254.3 267.13c2.21-.4 4.46-.24 6.7-.37l.76 2.57c-4.8.4-9.45 1.76-13.96 3.37-2.06 1.5-2.62 3.98-2.85 6.38l-1.27-.72c-.3-2.31-.42-4.63-.54-6.95 2.23-.52 4.48-1 6.67-1.71 1.54-.78 2.9-1.88 4.49-2.57z"/><path fill="#5a5954" d="M247.8 272.7c4.51-1.61 9.16-2.97 13.96-3.37 3.09-.13 6.27-.33 9.3.45.76.69 1.46 1.44 2.09 2.27l-2.95.15.27 5.59c-6.21.94-12.48 1.38-18.76 1.61l-2.76-.72 3.75-1.02-4.9-4.96z"/><path fill="#6e6a65" d="M171.78 270.49c2.24-.02 4.41.56 6.18 1.97l-3.14 6.68-1.81-2.3-2.8 2.42c-.67-3.05.68-5.93 1.57-8.77z"/><path fill="#86877f" d="M270.2 272.2l2.95-.15 1.04 1.4c-.56 2.01.29 3.83 1.47 5.42l-4.54.29c-5.57.42-11.13 1.15-16.72 1.3l-2.69-1.06c6.28-.23 12.55-.67 18.76-1.61l-.27-5.59z"/><path fill="#79726a" d="M244.95 279.08c.23-2.4.79-4.88 2.85-6.38l4.9 4.96-3.75 1.02 2.76.72 2.69 1.06c-3.22.26-6.45.37-9.67.22l.22-1.6z"/><path fill="#424242" opacity=".96" d="M291.07 280.32l2.16-7.33c-.73 7.63-.75 15.41-3.3 22.74l-1.8 2.59c-1.44-6.2 1.14-12.19 2.94-18z"/><path fill="#6b6763" d="M197.6 275.66l7.44.44 1.74-.12 3.25-.79-1.05 2.84-.56.47c-2.86.08-5.82.53-8.62-.3-.94-.65-1.5-1.67-2.2-2.54z"/><path fill="#2d2a28" opacity=".88" d="M205.12 275.3l.7-.48.77.37.19.79-1.74.12.08-.8z"/><path fill="#474847" d="M229.21 277.59c2.82-.81 5.74-1.21 8.67-1.23l2.98 5.62-2.03 1.04c-3.12.58-6.26 1.12-9.43 1.21-1.57-.81-2.96-1.92-4.18-3.18l4.33-.02-.34-3.44z"/><path fill="#888787" d="M170.21 279.26l2.8-2.42 1.81 2.3 1.56 2.01-2.44 3.63-3.11-3.84-.62-1.68z"/><path fill="#3f4140" d="M254.4 280.46c5.59-.15 11.15-.88 16.72-1.3-.01 1.76-.01 3.52-.12 5.28-5.26.37-10.53.67-15.75 1.39l-12.06.28-.76-3.34c.78-.68 1.54-1.38 2.3-2.09 3.22.15 6.45.04 9.67-.22z"/><path fill="#565857" d="M278.29 285.59c4.17-1.97 8.58-3.37 12.78-5.27-1.8 5.81-4.38 11.8-2.94 18-1.27 6.49-1.3 13.21.79 19.55l-1.17 2.47c-1.07-3.72-1.78-7.52-2.23-11.35-3.16 1.48-2.79 5.11-3.56 7.97-3.4 2.42-7.78 2.9-11.47 4.81-1.51-.47-3.01-1-4.5-1.51l-.06 4.32-2.83 1.43-.1-11.8.26-7.18 1.45 2.89c.87-7.48.84-15.08-.9-22.44-2.64-.35-5.26-.84-7.84-1.48l-.72-.17c5.22-.72 10.49-1.02 15.75-1.39-.21 1.91-.54 3.81-.85 5.71 1.5.46 2.97 1.43 4.59 1.27 1.81-.74 3.28-2.08 4.83-3.23l-1.28-2.6m-11.12 11.32c-1.96 5.85-.29 12.17 2.43 17.48 1.51.92 3.32 1.32 5.08 1.3 2.72-2.26 4.93-5.07 7.55-7.45 2.18-1.89 3.2-4.64 4.21-7.25-2.18-2.42-5.58-1.54-8.45-1.7-3.78.23-7.28-1.31-10.82-2.38z"/><path fill="#676766" d="M170.83 280.94l3.11 3.84 2.44-3.63 5.56 2.24-.78 3.5c2.5.73 5.14.92 7.61-.07l.21 2.12c-2.97.01-5.94.06-8.9-.09-2.57-.88-5.21-1.85-7.31-3.61-.89-1.31-1.36-2.85-1.94-4.3m6.47 3.33v.45h.45v-.45h-.45z"/><path fill="#797c74" d="M229.4 284.23c3.17-.09 6.31-.63 9.43-1.21l3.6-.25.76 3.34c4.02-.02 8.04-.2 12.06-.28l.72.17c-1.94 2.91-1.95 6.5-3.11 9.7l.5-2.28c-2.14 1.32-4.19 2.89-6.59 3.71-2.81.85-5.57-.58-7.94-1.94-.71-1.3-1.24-2.69-1.78-4.07 2.65 2.55 6.27 5.71 10.21 4.19 3.63-1.24 5.7-4.77 6.12-8.43-5.85-.48-11.53 1.32-17.36 1.32-2.12-1.47-4.36-2.75-6.62-3.97z"/><path fill="#9d9c9d" d="M177.3 284.27h.45v.45h-.45v-.45z"/><path fill="#807f81" d="M181.16 286.89l.78-3.5c2.4.85 5.02 1.5 6.83 3.43-2.47.99-5.11.8-7.61.07z"/><path fill="#303233" d="M236.02 288.2c5.83 0 11.51-1.8 17.36-1.32-.42 3.66-2.49 7.19-6.12 8.43-3.94 1.52-7.56-1.64-10.21-4.19-.37-.97-.71-1.95-1.03-2.92z"/><path opacity=".07" d="M252.86 295.7c1.16-3.2 1.17-6.79 3.11-9.7 2.58.64 5.2 1.13 7.84 1.48 1.74 7.36 1.77 14.96.9 22.44l-1.45-2.89-.26 7.18c-1.58-3.61-2.4-7.48-2.61-11.41-3.34-.54-6.43-1.93-9.25-3.75.6-1.1 1.24-2.19 1.72-3.35z"/><path fill="#313435" opacity=".97" d="M246.77 297.13c2.4-.82 4.45-2.39 6.59-3.71l-.5 2.28c-.48 1.16-1.12 2.25-1.72 3.35-2.23.26-4.48.81-6.72.51-2.46-.47-4.15-2.49-5.59-4.37 2.37 1.36 5.13 2.79 7.94 1.94z"/><path fill="#797c73" d="M267.17 296.91c3.54 1.07 7.04 2.61 10.82 2.38 2.87.16 6.27-.72 8.45 1.7-1.01 2.61-2.03 5.36-4.21 7.25-2.62 2.38-4.83 5.19-7.55 7.45-1.76.02-3.57-.38-5.08-1.3-2.72-5.31-4.39-11.63-2.43-17.48z"/><path fill="#484846" d="M281.96 316.96c.77-2.86.4-6.49 3.56-7.97.45 3.83 1.16 7.63 2.23 11.35-.27 4.57.12 9.3-1.43 13.7-.27-1.48-.54-2.95-.95-4.39l-1.22-1.16-1.71-1.81-2.7.07 1.94-3.64c-3.77.03-7.59-.11-11.19-1.34 3.69-1.91 8.07-2.39 11.47-4.81z"/><path fill="#646361" d="M265.99 320.26l4.5 1.51c3.6 1.23 7.42 1.37 11.19 1.34l-1.94 3.64-.79.04c-3.69.25-7.45.48-11.04-.56l-1.98-1.65.06-4.32z"/><path fill="#3b3d3c" d="M263.1 326.01l2.83-1.43 1.98 1.65c-.33 2.95-.25 5.98-1.05 8.86-1.17 3.01-3.1 5.77-3.34 9.08-1.09-6-.2-12.11-.42-18.16z"/><path fill="#484c52" d="M267.91 326.23c3.59 1.04 7.35.81 11.04.56-.34 5.15-2.79 10.44-.85 15.51-2.21.3-4.52.88-6.7.15-2.29-.73-4.46-1.8-6.7-2.64.63 1.32.72 3.15 2.15 3.93 1.94 1.21 4.09 2.01 6.16 2.94l.86 2.53c-3.89-.19-9.01-.59-10.35-5.04.24-3.31 2.17-6.07 3.34-9.08.8-2.88.72-5.91 1.05-8.86z"/><path fill="#3d3c3b" d="M279.74 326.75l2.7-.07 1.71 1.81c-.76 2.6-.66 5.32-.3 7.98-1 3.51-2.05 7.16-4.42 10.02-1.35 1.7-3.61 2.1-5.56 2.72l-.86-2.53 5.58-2.93-.49-1.45c-1.94-5.07.51-10.36.85-15.51l.79-.04z"/><path fill="#55504a" opacity=".94" d="M284.15 328.49l1.22 1.16c.41 1.44.68 2.91.95 4.39l-2.47 2.43c-.36-2.66-.46-5.38.3-7.98z"/><path fill="#636567" d="M264.7 339.81l6.7 2.64c2.18.73 4.49.15 6.7-.15l.49 1.45-5.58 2.93c-2.07-.93-4.22-1.73-6.16-2.94-1.43-.78-1.52-2.61-2.15-3.93z"/></svg>