<svg xmlns="http://www.w3.org/2000/svg" width="682.667" height="682.667" viewBox="0 0 512 512"  xmlns:v="https://vecta.io/nano"><path fill="#75767c" d="M336.34 90.6c3.81-3.36 9.14-1.04 12.96 1.06 1.84.9 2.46 3.04 1.97 4.93-1.13 6.29-4.04 12.5-2.59 19.01-1.95 1.91-2.84 4.45-2.55 7.16a235.34 235.34 0 0 1-2.86 7.22l-3.2-.58-.93 2.94-.69-2.43c2.25-3.33 4.17-6.93 4.85-10.93l.18-.68.64-1.85c1.31-1.29 1.77-3.19.51-4.69-1.39-2.28-.66-4.94-.16-7.36-4.41 1.3-9.04 1.23-13.58.95 2.36 1.36 4.8 2.6 7.28 3.74-1.74 2.09-3.5 4.15-5.12 6.32-1.93 2.58-3.49 5.47-4.3 8.6l-.42 1.55-1-.2.13-1.62.45-2.23a117.31 117.31 0 0 1 .86-3.22l-2.67-.46-2.79-.47.51-2.48c1.77-1.89 3.8-3.78 4.51-6.37.69-2.59.25-5.3-.03-7.91 1.74-2.67 3.59-5.27 5.71-7.64-.83 1.79-1.47 3.66-2.07 5.54 3.42-1.15 3.98-4.79 4.4-7.9m.99 4.64v.45h.45v-.45h-.45m9.3 5.97c.1 2.78.4 5.56.15 8.34 1.92-4.27 2.81-8.9 3.19-13.55-1.21 1.64-3.01 3.11-3.34 5.21m-9.4.1v.45h.45v-.45h-.45m-8.32 7.94c.54 1.33 1.49 2.36 2.79 2.96l1.14-2.1-3.93-.86m-.75 4.31c-1.13 1.27 1 3.31 2.26 2.25 1.11-1.26-1-3.29-2.26-2.25z"/><path fill="#a5ac9a" opacity=".96" d="M336.34 90.6c-.42 3.11-.98 6.75-4.4 7.9l2.07-5.54 2.33-2.36z"/><path fill="#ced3d8" d="M337.33 95.24h.45v.45h-.45v-.45z"/><path fill="#93978f" d="M346.63 101.21c.33-2.1 2.13-3.57 3.34-5.21-.38 4.65-1.27 9.28-3.19 13.55.25-2.78-.05-5.56-.15-8.34z"/><path fill="#585a65" d="M322.21 108.94c.84-3.18 3.62-5.22 5.63-7.65-2.3 4.11-5.15 8.08-5.89 12.84-.4 2.32-.72 4.65-.94 6.99a53.05 53.05 0 0 0-.12 5.78l.17 2.93 4.13 1.23 1.86-4.92.28-.78 1 .2-1.48 7.55a200.91 200.91 0 0 1-7.33-1.34l6.51 2.6c-.02 7.44-2.52 14.54-3.61 21.85l-5.78-2.53c-2.35 3.85-.75 8.63-2.93 12.48l5.86 3.03c-1.32 7.56-3.75 14.95-4.25 22.63l-4.59-.33 1.43-.71c1.11-2.02-2.44-2.11-3.25-.81-.66-1.6-1.26-3.23-1.83-4.86l.51-4.11-.06-1.37c-1.09-.64-2.2-1.23-3.3-1.82 1.78.11 3.57.11 5.37.13 2.01-8.52 2.99-17.23 4.73-25.81.54-2.71 1.16-5.4 1.85-8.08.47-1.17.99-2.31 1.46-3.47 1.91.89 3.9 1.56 5.92 2.14-1.63-1.55-3.66-2.5-5.82-3.07.37-6.3 1.57-12.51 2.39-18.76.77-3.98 1.09-8.03 2.08-11.96m-2.62 25.34c.68 2.48 3.5 2.31 5.52 2.7-.4-2.65-3.56-2.22-5.52-2.7m-.32 3.2c-.84 1.78 3.09 2.78 3.3.86-.38-1.29-2.34-1.77-3.3-.86m-.84 5.84c-.58 1.82 3.51 2.8 4 1.05-.64-1.36-2.78-1.92-4-1.05m-.77 2.84c-.49 1.78 3.46 2.78 3.95 1.02-.55-1.43-2.78-1.94-3.95-1.02m-.77 1.94c-.31 1.51-.59 3.03-.84 4.55l4.51 1.35-.98-2.53a29.83 29.83 0 0 1 2.2-1.45l-4.89-1.92m-3.32 20.3c-.29 1.61 3.42 2.62 3.89 1.01-.71-1.23-2.69-1.8-3.89-1.01m.08 2.71c-.69 1.57 2.8 2.73 3.01.95-.34-1.15-2.08-1.78-3.01-.95m-1.73 1.91l1.43 2.76-1.77.38-.52 3.81 4.91 1.14-2.4-2.66c1.46-.84 2.73-1.95 3.54-3.45-1.67-.8-3.41-1.45-5.19-1.98m-1.38 8.42c-.36 1.66 3.43 2.68 3.8.98-.71-1.17-2.63-1.76-3.8-.98m-.34 2.64l-.74 3.12 4.15 1.92-1.19-2.9 2.52-.88c-1.5-.68-3.08-1.25-4.74-1.26z"/><path fill="#a7b095" d="M327.84 101.29l.46-.69c.28 2.61.72 5.32.03 7.91-.71 2.59-2.74 4.48-4.51 6.37l.27-1.42-2.14.67c.74-4.76 3.59-8.73 5.89-12.84z"/><path fill="#aca7a9" d="M337.23 101.31h.45v.45h-.45v-.45z"/><path fill="#929988" d="M330.89 105.35c4.54.28 9.17.35 13.58-.95-.5 2.42-1.23 5.08.16 7.36-1.32 1.19-1.69 3.26-.51 4.69l-.64 1.85c-.82-1.16-1.81-1.46-2.98-.89-.91 1.63 1.74 2.23 2.8 1.57-.68 4-2.6 7.6-4.85 10.93l-.61-2.3-.05-2.77c.27-4.01.95-7.98 1.12-12-3.64 4.59-6.3 10.58-5.5 16.54-.01 1.48-.15 2.97-.37 4.44-.73 3.24-2.26 6.21-3.85 9.11.17 1.24.38 2.48.41 3.74-.99 2.2-2.98 3.74-4.18 5.82-.34 2.08-.06 4.2-.08 6.29.07 4.16-1.29 8.15-2.16 12.17-1.64 6.88-2.32 13.94-3.84 20.85-.63 2.46-1.5 4.85-2.35 7.24l-2.08-1.38c.15-1.09.28-2.18.39-3.26l.02-2.57c.5-7.68 2.93-15.07 4.25-22.63.98-4.32 2.07-8.62 2.85-12.98 1.09-7.31 3.59-14.41 3.61-21.85l-6.51-2.6a200.91 200.91 0 0 0 7.33 1.34l1.48-7.55.42-1.55.46 1.95c2.69-2.86 3.75-6.7 3.84-10.55 1.62-2.17 3.38-4.23 5.12-6.32-2.48-1.14-4.92-2.38-7.28-3.74z"/><path fill="#adaeb6" d="M328.91 109.25l3.93.86-1.14 2.1c-1.3-.6-2.25-1.63-2.79-2.96z"/><path fill="#b5b8a9" d="M344.12 116.45c-1.18-1.43-.81-3.5.51-4.69 1.26 1.5.8 3.4-.51 4.69z"/><path fill="#a5a9b7" d="M321.95 114.13l2.14-.67-.27 1.42-.51 2.48 2.79.47-1.07 2.12 2.88 1.56-.45 2.23-5.25-.4-1.2-2.22.94-6.99z"/><path fill="#595961" d="M328.16 113.56c1.26-1.04 3.37.99 2.26 2.25-1.26 1.06-3.39-.98-2.26-2.25z"/><path fill="#6b7167" d="M333.41 129.38c-.8-5.96 1.86-11.95 5.5-16.54-.17 4.02-.85 7.99-1.12 12l-4.38 4.54z"/><path fill="#b3b8a9" d="M328.75 124.01c.81-3.13 2.37-6.02 4.3-8.6-.09 3.85-1.15 7.69-3.84 10.55l-.46-1.95z"/><path fill="#37373c" opacity=".95" d="M346.13 122.76c-.29-2.71.6-5.25 2.55-7.16l1.03 2.36c-.89 1.99-1.94 3.9-3.1 5.74l-.48-.94z"/><path fill="#6b6b71" d="M349.71 117.96c2.7-2.05 6.1-1.97 9.32-1.76.56 3.66.23 7.4-1.15 10.86l-3.54.83c-.88-2.26-1.85-4.49-2.92-6.67a156.22 156.22 0 0 1-4.81 2.48c1.16-1.84 2.21-3.75 3.1-5.74z"/><path fill="#afb3a4" d="M340.5 117.41c1.17-.57 2.16-.27 2.98.89l-.18.68c-1.06.66-3.71.06-2.8-1.57z"/><path fill="#d5d4e0" d="M325.03 119.95l1.07-2.12 2.67.46-.86 3.22-2.88-1.56z"/><path fill="#212223" opacity=".53" d="M316.18 144.06c1.01-7.77 1.48-15.66 3.95-23.16-.82 6.25-2.02 12.46-2.39 18.76l-.1.93-1.46 3.47z"/><path fill="#838797" d="M321.01 121.12l1.2 2.22 5.25.4-.13 1.62-.28.78-6.16.76a53.05 53.05 0 0 1 .12-5.78z"/><path fill="#7e7f84" d="M351.42 121.22l2.92 6.67c-1.57.2-3.14.27-4.72.25l.41-.76-.25-.78-.76-.07-.44.72.22.86-2.19-4.41 4.81-2.48z"/><path fill="#5d5e63" d="M346.13 122.76l.48.94 2.19 4.41.82.03c1.58.02 3.15-.05 4.72-.25l3.54-.83c-1.49 3.79-3.18 7.49-5.15 11.05-.94-1.68-1.74-3.48-3.05-4.92-1.33-.6-2.76-.94-4.15-1.36l-.42 2.14-.55 3.13-.5-.7-.58-1.52c-1.11 3.83-2.46 7.6-3.81 11.36-.91-3.22-.67-6.56.47-9.68 1.04-2.2 2.17-4.35 3.13-6.58a235.34 235.34 0 0 0 2.86-7.22m1.16 6.59c-.99 1.33 1.34 2.78 2.27 1.55.99-1.34-1.34-2.79-2.27-1.55z"/><path fill="#48484d" d="M333.41 129.38l4.38-4.54.05 2.77c-.53 3.07-1.8 5.92-2.88 8.81l-1.92-2.6c.22-1.47.36-2.96.37-4.44z"/><path fill="#6b707f" d="M320.89 126.9l6.16-.76-1.86 4.92-4.13-1.23-.17-2.93z"/><path fill="#adadb5" d="M349.02 126.53l.76.07.25.78-.41.76-.82-.03-.22-.86.44-.72z"/><path fill="#7e8372" d="M334.96 136.42c1.08-2.89 2.35-5.74 2.88-8.81l.61 2.3.69 2.43 1 4.22c-1.14 3.12-1.38 6.46-.47 9.68l-1.11 5.51-.92 4.22c-.49 2.19-1.05 4.38-1.88 6.47-2.73 3.35-6.76 7.7-4.8 12.34.53.8 1.1 1.59 1.67 2.38-2 .61-3.8 1.76-4.62 3.77.55-4 .84-8.04 1.72-11.99.83-3.54.32-7.32 1.69-10.74 1.76-4.52 4.13-9 4.41-13.93-.47-1.35-1.22-2.56-1.9-3.8.35-1.35.64-2.71 1.03-4.05z"/><path fill="#3d414b" d="M340.07 129.4l3.2.58-3.13 6.58-1-4.22.93-2.94z"/><path fill="#7f8088" d="M347.29 129.35c.93-1.24 3.26.21 2.27 1.55-.93 1.23-3.26-.22-2.27-1.55z"/><path fill="#77787e" d="M345.53 131.83c1.39.42 2.82.76 4.15 1.36 1.31 1.44 2.11 3.24 3.05 4.92l-1.18 1.88c-2.68.59-5.4 1.01-8.14 1.28l.65-4.87.5.7 1.02 1.32 2.19.45 1.16-4.53-3.82-.37.42-2.14z"/><path fill="#6f727d" d="M319.59 134.28c1.96.48 5.12.05 5.52 2.7-2.02-.39-4.84-.22-5.52-2.7z"/><path fill="#666769" d="M329.19 142.93c1.59-2.9 3.12-5.87 3.85-9.11l1.92 2.6-1.03 4.05c-1.35 3.46-2.84 6.89-3.54 10.55-2.64 13.81-6.22 27.44-8.2 41.38l-1.6 1.05-1.25-1.65c1.52-6.91 2.2-13.97 3.84-20.85.87-4.02 2.23-8.01 2.16-12.17.02-2.09-.26-4.21.08-6.29 1.2-2.08 3.19-3.62 4.18-5.82-.03-1.26-.24-2.5-.41-3.74z"/><path fill="#e7e6ef" d="M345.11 133.97l3.82.37-1.16 4.53-2.19-.45-1.02-1.32.55-3.13z"/><path fill="#6f6f70" opacity=".96" d="M205.92 137.48c1.56-2.11 4.18-2.1 6.54-2.09-1.87 1.17-3.51 3.06-5.81 3.31l-.73-1.22z"/><path fill="#5b5b57" d="M212.46 135.39c2.44-.26 4.88-.73 7.35-.55 1.54.39 2.51 1.83 3.65 2.84l-.49 2.84-.75.38c-3.25 1.44-6.3 3.35-8.79 5.9-1.17-.55-2.31-1.16-3.55-1.52-1.74.16-3.41.71-5.08 1.18l-1.18-3.3c-1.93 1.21-3.86 2.42-5.67 3.79 2.32-3.42 5.07-6.53 7.97-9.47l.73 1.22c2.3-.25 3.94-2.14 5.81-3.31z"/><path fill="#3f4041" opacity=".8" d="M339.67 146.24c1.35-3.76 2.7-7.53 3.81-11.36l.58 1.52c-.19 1.62-.43 3.25-.65 4.87 2.74-.27 5.46-.69 8.14-1.28-.85.93-1.76 1.81-2.68 2.68-1.8.05-3.6.13-5.37.49-.83.72-1.58 1.5-2.28 2.33-.53 3.29-.09 6.64.08 9.95l-2.74-3.69 1.11-5.51z"/><path fill="#737782" d="M319.27 137.48c.96-.91 2.92-.43 3.3.86-.21 1.92-4.14.92-3.3-.86z"/><path fill="#6f7071" opacity=".96" d="M223.46 137.68l1.38 1.69c.54 1.98.86 4.01 1.13 6.05-1.71-1.12-2.55-2.97-3-4.9l.49-2.84z"/><path fill="#4e4d49" d="M224.84 139.37c1.57 2.11 2.09 4.73 2.57 7.26l-2.92-.25c.55 2.08 1.29 4.1 2.06 6.11l-.11.8c-1.74-1.87-3.79.74-2.46 2.49-1.78-1.37-3.35-2.97-4.84-4.63 1.26 2.25 2.2 4.67 2.84 7.17-3.04-.19-4.84-2.78-6.7-4.82 2.7-3.97 4.51-8.46 6.94-12.6l.75-.38c.45 1.93 1.29 3.78 3 4.9-.27-2.04-.59-4.07-1.13-6.05z"/><path fill="#6c717b" d="M317.74 139.66c2.16.57 4.19 1.52 5.82 3.07-2.02-.58-4.01-1.25-5.92-2.14l.1-.93z"/><path fill="#454544" d="M213.43 146.8c2.49-2.55 5.54-4.46 8.79-5.9-2.43 4.14-4.24 8.63-6.94 12.6-5.1 3.56-6.71 9.9-10.59 14.49l-.84-.26.57-3.4 1.52-1.69c2.23-3.29 2.65-7.36 4.15-10.97 1.01-1.69 2.13-3.32 3.34-4.87m1.83 2.44v.45h.44l.01-.45h-.45z"/><path fill="#999f8d" d="M333.93 140.47c.68 1.24 1.43 2.45 1.9 3.8-.28 4.93-2.65 9.41-4.41 13.93-1.37 3.42-.86 7.2-1.69 10.74-.88 3.95-1.17 7.99-1.72 11.99l-.38 1.65c-2.32 2.86-1.78 6.69-2.27 10.1l-3.17-.28c1.98-13.94 5.56-27.57 8.2-41.38.7-3.66 2.19-7.09 3.54-10.55z"/><path fill="#696b71" opacity=".96" d="M343.5 143.16c1.77-.36 3.57-.44 5.37-.49-1.37 5.53-2.24 12.37-7.97 15.19-1.18-.45-2.21-1.21-3.26-1.89l.92-4.22 2.74 3.69c1.4-1.62 3.5-3.1 3.55-5.45-.01-2.34-.79-4.58-1.35-6.83z"/><path fill="#737373" d="M197.95 146.95c1.81-1.37 3.74-2.58 5.67-3.79l1.18 3.3c1.67-.47 3.34-1.02 5.08-1.18 1.24.36 2.38.97 3.55 1.52-1.21 1.55-2.33 3.18-3.34 4.87-2.11-.48-3.98-1.57-5.59-2.98l-8.27 4.25.59-4.04 1.13-1.95z"/><path d="M318.43 143.32c1.22-.87 3.36-.31 4 1.05-.49 1.75-4.58.77-4-1.05zm-4.86 25.08c1.2-.79 3.18-.22 3.89 1.01-.47 1.61-4.18.6-3.89-1.01z" fill="#71747f"/><path opacity=".04" d="M341.22 145.49c.7-.83 1.45-1.61 2.28-2.33.56 2.25 1.34 4.49 1.35 6.83-.05 2.35-2.15 3.83-3.55 5.45-.17-3.31-.61-6.66-.08-9.95z"/><path fill="#656668" opacity=".98" d="M224.49 146.38l2.92.25c.22 2-.26 3.96-.86 5.86l-2.06-6.11z"/><path fill="#6e717d" d="M317.66 146.16c1.17-.92 3.4-.41 3.95 1.02-.49 1.76-4.44.76-3.95-1.02z"/><path fill="#5c5d5c" d="M196.23 152.94l8.27-4.25c1.61 1.41 3.48 2.5 5.59 2.98-1.5 3.61-1.92 7.68-4.15 10.97l.03-1.85-2.89.63c-1.41-1.39-2.74-2.92-4.46-3.93-1.38-.55-2.47.71-3.56 1.32.19-3.35.13-6.86 1.76-9.91-.24 1.34-.41 2.69-.59 4.04z"/><path fill="#6d707c" d="M316.89 148.1l4.89 1.92-2.2 1.45.98 2.53-4.51-1.35.84-4.55z"/><path fill="#7a787a" d="M215.26 149.24h.45l-.01.45h-.44v-.45z"/><path opacity=".77" d="M304.17 155.23c1.45-1.54 2.74-3.51 4.81-4.24 1.82.18 3.58.71 5.35 1.15-1.74 8.58-2.72 17.29-4.73 25.81-1.8-.02-3.59-.02-5.37-.13-1.81-.93-3.56-1.98-5.31-2.99-1.06 2.14-1.64 4.47-1.85 6.85 1.65.75 3.3 1.52 5 2.19l3.39.83c.51 1.31 1.79 2.52 1.56 4-1.3 1.1-2.83 1.88-4.33 2.66l-1.94.95-.11 3.62c-.73 1.92-1.65 3.76-2.56 5.6-2.3-1-5-1.65-6.44-3.89 2.48-10.84 3.32-22 6.03-32.79 1.1-3.82 4.11-6.6 6.5-9.62z"/><path fill="#646467" opacity=".96" d="M223.98 155.78c-1.33-1.75.72-4.36 2.46-2.49.04 1.21-.99 3.32-2.46 2.49z"/><path fill="#686d76" d="M313.71 166.17c2.18-3.85.58-8.63 2.93-12.48l5.78 2.53c-.78 4.36-1.87 8.66-2.85 12.98l-5.86-3.03z"/><path fill="#7a7878" d="M195.06 158.81c1.09-.61 2.18-1.87 3.56-1.32 1.72 1.01 3.05 2.54 4.46 3.93l2.89-.63-.03 1.85-1.52 1.69-3.04-1.4c-2.13-.9-4.32-1.64-6.51-2.36l.19-1.76z"/><path fill="#e0ac8b" d="M194.87 160.57l6.51 2.36c-1.7 8.29-4.81 16.2-6.99 24.36-1.14 4.33-.63 8.89-1.76 13.21-1.75 1.8-4.55 1.67-6.86 2.09-2.22-.44-4.29-1.36-6.27-2.43 2.43-5.3 3.99-10.96 6.3-16.31 2.89-7.81 6.71-15.29 9.07-23.28z"/><path opacity=".77" d="M217.17 163.22c2.31-2.22 5.73-2.48 8.77-2.4 2.19-.1 4 1.5 4.96 3.35 1.52 2.97 2.33 6.24 3.31 9.42l-3.43 3.72-3.67-4.13 1.12 5.72-4.54-2.51-2.24 2.39c-2.94-4.2-8.57-3.49-12.96-2.74 2.3-4.62 4.78-9.32 8.68-12.82z"/><path fill="#c49478" d="M201.38 162.93l3.04 1.4-.57 3.4-.81 4.18c-1.3 4.62-2.24 9.37-2.14 14.19.14 2.39.44 4.77.71 7.15-.69 1.56-1.36 3.13-1.93 4.74-.86 2.79-1.58 5.62-2.43 8.41l-4.42-1.77c-2.3-.88-4.67-1.49-7.06-2.04 2.31-.42 5.11-.29 6.86-2.09 1.13-4.32.62-8.88 1.76-13.21 2.18-8.16 5.29-16.07 6.99-24.36z"/><path fill="#6d6c6a" d="M330.96 174.78c-1.96-4.64 2.07-8.99 4.8-12.34 1.78 2.21 3.39 4.57 4.84 7.02l-3.98-.54c-1.35 2.42-3.24 4.48-5.66 5.86z"/><path fill="#212123" d="M203.85 167.73l.84.26c-.24 1.64-.54 3.27-.51 4.93.8 1.65 2.85 2.17 4.31 3.12l3.51 9.27-5.78-.68.27-5.51c-3.13-1.04-3.26-4.46-3.45-7.21l.81-4.18z"/><path fill="#565656" d="M336.62 168.92l3.98.54c2.1 3.34 4.18 6.72 5.65 10.4.85 3.01 1.58 6.09 1.71 9.23.13 3.36-1.13 6.53-1.88 9.75-3.45 2.21-6.85 4.5-10.37 6.59l1.44 2.83-3.44.93c.02-2.39.09-4.9-.88-7.13-.87-2.09-3.39-2.22-5.25-2.82-.79-1.38-2.1-2.76-1.7-4.47.62-4.06 1.58-8.07 1.75-12.19l.38-1.65c.82-2.01 2.62-3.16 4.62-3.77l-1.67-2.38c2.42-1.38 4.31-3.44 5.66-5.86m-.84 6.91c-.63 4.02 3.27 6.51 4.08 10.05-1.68 1.98-3.59 3.77-5.03 5.95l5.33 3.86c.58-2.85 1.68-5.64 1.67-8.58-.57-3.18-1.7-6.25-2.83-9.27-.36-1.57-1.68-2.27-3.22-2.01m-4.08 7.22a12.14 12.14 0 0 0 3.31 4.18c.44-1.78.79-3.57 1.07-5.38-1.51.2-2.97.64-4.38 1.2z"/><path fill="#6c707d" d="M313.65 171.11c.93-.83 2.67-.2 3.01.95-.21 1.78-3.7.62-3.01-.95z"/><path fill="#726f72" d="M200.9 186.1c-.1-4.82.84-9.57 2.14-14.19.19 2.75.32 6.17 3.45 7.21a203.14 203.14 0 0 1-.27 5.51c-1.8.4-3.56.94-5.32 1.47z"/><path opacity=".12" d="M227.11 173.18l3.67 4.13 3.43-3.72c2.03 1.3 3.99 2.83 6.32 3.58 3.94 1.04 8.34.24 11.99 2.38 2.76 1.59 5.54 3.37 8.82 3.51 1.69 2.04 2.91 4.68 5.21 6.1 1.79-.04 3.43-.94 5.1-1.52l.06 2.84c5.96-.12 11.13 3.41 17.02 3.79l3.03-2.99-.31 5.56c-.17 2.38-.42 4.76-.66 7.14l-7.14-.58c-.16 4.13 4.89 4.89 6.15 8.39l-4 1.67c-1.92-.78-3.95-1.44-5.49-2.89-1.33-.92-2.46-2.52-4.24-2.43-1.29-.15-2.25.8-3.18 1.51l-2.25 2.12-3.19.59c-1.03-1.94-1.53-4.33-3.23-5.8-1.95-1.34-4.01.12-5.87.82-2.29.47-4.64.09-6.95.29-1.55.3-2.94 1.12-4.35 1.78-1.21-2.48-2.51-5.09-4.96-6.57-3.45-2.2-6.74-4.87-8.44-8.71-.69-2.44-.4-5.59-2.58-7.31-1.55-.55-3.22-.54-4.83-.67-2.46-.45-4.87-1.12-7.34-1.49.77-2.01 1.56-4.01 2.55-5.92.72-.83 1.48-1.61 2.24-2.39l4.54 2.51-1.12-5.72z"/><path fill="#6f717c" d="M311.92 173.02c1.78.53 3.52 1.18 5.19 1.98-.81 1.5-2.08 2.61-3.54 3.45l2.4 2.66-4.91-1.14.52-3.81 1.77-.38-1.43-2.76z"/><path opacity=".9" d="M208.49 176.04c4.39-.75 10.02-1.46 12.96 2.74-.99 1.91-1.78 3.91-2.55 5.92-2.3.18-4.59.52-6.9.61-1.12-3.11-2.25-6.22-3.51-9.27z"/><path fill="#41434a" opacity=".95" d="M297.07 181.68c.21-2.38.79-4.71 1.85-6.85.37 1.91.79 3.83 1.53 5.65l1.62 3.39-5-2.19z"/><path fill="#9c9ca5" d="M298.92 174.83l5.31 2.99 3.3 1.82.06 1.37-7.14-.53c-.74-1.82-1.16-3.74-1.53-5.65z"/><path fill="#717172" d="M335.78 175.83c1.54-.26 2.86.44 3.22 2.01 1.13 3.02 2.26 6.09 2.83 9.27.01 2.94-1.09 5.73-1.67 8.58l-5.33-3.86c1.44-2.18 3.35-3.97 5.03-5.95-.81-3.54-4.71-6.03-4.08-10.05z"/><path fill="#6e707c" d="M300.45 180.48l7.14.53-.51 4.11-1.62-.42-3.39-.83-1.62-3.39z"/><path fill="#322924" opacity=".54" d="M346.25 179.86l2.97 7.86c-.39 5.15-1.88 10.14-2.18 15.3-.02 4.82 1.07 9.57 1.53 14.36l-1.12-2.67a95.09 95.09 0 0 1-1.34-12.82l-.03-3.05c.75-3.22 2.01-6.39 1.88-9.75-.13-3.14-.86-6.22-1.71-9.23z"/><path fill="#6e727d" d="M310.54 181.44c1.17-.78 3.09-.19 3.8.98-.37 1.7-4.16.68-3.8-.98z"/><path fill="#757574" d="M331.7 183.05c1.41-.56 2.87-1 4.38-1.2l-1.07 5.38a12.14 12.14 0 0 1-3.31-4.18z"/><path fill="#717277" d="M325.36 192.68c.49-3.41-.05-7.24 2.27-10.1-.17 4.12-1.13 8.13-1.75 12.19-.4 1.71.91 3.09 1.7 4.47-1.69 2.88-3.27 5.84-4.33 9.02l-.19-2.47-5.06.94-1.95-5.73c-.55.96-1.07 1.93-1.53 2.94-.93-1.3-1.91-2.58-3-3.75-2.45-1.69-5.29-2.62-8.18-3.16l-.88 3.15c2.29 1.66 5.08 2.08 7.84 1.89l-1.28 2.24c-2.85-.97-5.66-2.05-8.41-3.25l.03-5.13.11-3.62 1.94-.95 2.07.87c3.48 1.62 6.92 3.33 10.15 5.43l2.08 1.38c.85-2.39 1.72-4.78 2.35-7.24l1.25 1.65 1.6-1.05 3.17.28m-6.23 3.65c-.73 2.22-.77 4.59-.83 6.91 2.75-1.4 2.39-4.8 2.76-7.38l-1.93.47z"/><path fill="#535351" d="M200.9 186.1l5.32-1.47 5.78.68 6.9-.61c2.47.37 4.88 1.04 7.34 1.49-5.69.46-11.42.34-17.1.96l-.16 4.48c5.34-.49 10.71-1.23 16.08-.8 1.86.03 3.36 1.21 4.94 2.04l-5.47 3.56c4.47 3.23 8.4 7.21 13.22 9.93 2.1 1.26 4.61.65 6.9.48l1.16 5.31 2.42-1.12c.35 3.84-.7 7.6-.82 11.42.92 1.06 2.22 1.66 3.39 2.39-1.22.76-2.46 1.51-3.64 2.33-1.79-3.05-3.96-5.86-6.57-8.25-.64 2.95-.09 6.57-2.46 8.84-6.2-.47-11.21 4.01-15.33 8.07-2.6 2.72-5.12 5.53-7.59 8.37l-2.57-.21c2.64-4.23 6.33-7.61 10.03-10.89 1.45-1.35 2.79-2.81 4.12-4.28-4.49-1.93-9.64-1.63-13.89-4.25l2.42-5.84a74.02 74.02 0 0 1 1.41.39c1 .29 2.01.6 3 .94 2.28.69 4.75 2.04 7.14.97 2.93-.93 3.96-4.15 6.21-5.95 3.22-1.35 6.85-1.8 9.65-4.08-2.86-1.23-5.99-.93-8.96-.35-4.57.84-8.73 3.09-12.64 5.51-3.42-.58-6.82-1.28-10.21-2.02-2.31-2.95-4.37-6.08-6.74-8.99 1.4-.16 2.82-.27 4.19-.61 2.6-1.92 3.71-5.12 5.05-7.93l-3.05.09-2.38-4.11c-1.98 1.11-4.21 1.46-6.38.66-.27-2.38-.57-4.76-.71-7.15m8.8 7.69c3.25 1.11 8.33 2.96 10.52-.82-3.49-.27-7.31-1-10.52.82z"/><path fill="#6b6e79" d="M310.2 184.08c1.66.01 3.24.58 4.74 1.26l-2.52.88 1.19 2.9-4.15-1.92.74-3.12z"/><path fill="#3a3c40" opacity=".98" d="M305.46 184.7l1.62.42 1.83 4.86 1.82 1.52 4.59.33-.02 2.57c-3.45-.87-6.88-3.12-10.54-2.17l-2.07-.87c1.5-.78 3.03-1.56 4.33-2.66.23-1.48-1.05-2.69-1.56-4z"/><path fill="#838181" d="M226.24 186.19c1.61.13 3.28.12 4.83.67 2.18 1.72 1.89 4.87 2.58 7.31-1.26-.32-2.5-.7-3.65-1.3-1.58-.83-3.08-2.01-4.94-2.04-5.37-.43-10.74.31-16.08.8l.16-4.48c5.68-.62 11.41-.5 17.1-.96z"/><path opacity=".05" d="M349.22 187.72c1.12 1.08 2.34 2.1 3.27 3.37-.95 2.29-2.13 4.53-2.25 7.07l2.34-3.33c1.51.43 3.16.62 4.51 1.49 1.22 1.09 2.03 2.54 2.97 3.87 3.54.38 7.06-.27 10.38-1.48-.52 1.59-1.04 3.21-1.15 4.89.78.45 1.61.81 2.48 1.07 1.61-.79 3.03-1.92 4.48-2.97l-1.74-6.3c2.19 1.64 4.66 2.86 7.31 3.59l-3.08 5.69c2.89-1.8 5.62-4 8.9-5.04 2.61-.82 4.57 1.62 6.48 2.96l-5.04 2.12c2.74 2.95 7.36 4.71 11.07 2.47 5.46-2.94 11.64-4.79 16.14-9.26l-.59 2.77c2.07 3.98 6.73 5.22 10.78 6.12 5 .94 10.42 3.03 15.26.36l2.33 2.8c2.27-1.9 3.9-4.41 4.52-7.32l4.11 1.91c-1.8 1.74-2.98 3.97-2.01 6.48 1.81-1.57 3.58-3.2 5.32-4.85 1.86 2.16 3.8 4.26 5.82 6.27 1.47-.66 2.92-1.44 4.51-1.8 2.36-.22 4.74.36 7.1.01 1.82-.36 3.56-1.07 5.31-1.67 2.33 1.97 4.63 3.99 6.9 6.04l-1.26-5.06c2.37.35 4.81.53 7.11 1.29 1.85.72 2.57 3.55 4.91 3.06 5.19-.3 10.45-.81 15.59.33v121.76c-2.99.05-5.96-.27-8.89-.86-3.87-.78-7.74.48-11.63.49-4.15.1-8.11-1.49-12.22-1.71-3.75-.04-7.35 1.43-11.11 1.25-6.02-.21-12.01-1.03-18.04-.86-3.48.13-6.93-.38-10.4-.43-2.73-.03-5.18 1.36-7.82 1.77-2.61-.15-5.04-1.27-7.64-1.49-3.59-.34-7.21.01-10.8-.36-7.66-.85-15.4-.52-23.07 0-4.1.21-8.04-1.23-12.12-1.29-5.53-.04-11.05-.54-16.58-.25-6.17.29-12.32-.6-18.49-.44-5.68.19-11.3-.96-16.98-.95-8.92.16-18.04-.64-26.42-3.9 10.58.17 21.14 1.04 31.67 2.08 5.18.3 10.38-.1 15.56.37 6.1.61 12.08-1.52 18.17-.84 5.21.52 10.33-.9 15.53-1.03 5.9-.18 11.8-.44 17.69-.86l-1.2-2.6c2.01.98 4.21 1.43 6.44 1.25 3.26-.23 6.24 1.79 9.52 1.23 2.8-.11 5.39-1.28 7.64-2.89a123.66 123.66 0 0 1 5.41 2.4l.33-6.46c1.45 1.93 2.96 3.82 4.51 5.67l3.47-.59-2.36-2.37 2.25-.49.26-4.09 5.11 1.17 3.17-2.97-7.06-3.63-3.94 3.94c-2.46-1.85-4.91-3.81-7.81-4.9-3.36-1.26-6.97-1.57-10.34-2.79-1.64-.54-3.19-1.33-4.87-1.7-2.65.35-5.06 1.65-7.56 2.52l-.14-4.64c-2.16.03-4.38.41-6.48-.19-2.8-1.72-4.99-4.42-8.2-5.45-3.32-1.18-6.69-2.39-9.49-4.61-8.76-6.47-19.84-7.97-30.31-9.53-3.82-.41-7.66-1.17-11.05-3.04 1.87-5-1.98-9.38-3.09-14.07 1.6-1.12 3.22-2.23 4.93-3.22 3.36-1.68 6.64-3.59 9.4-6.18 2.58-2.41 5.73-4.14 8.15-6.7.91-2.63.69-5.48.74-8.22-.16-4.37.04-9.25-2.97-12.79a40.71 40.71 0 0 0-2.49-2.43c-.4-3.82-1.15-7.59-1.81-11.37-.46-4.79-1.55-9.54-1.53-14.36.3-5.16 1.79-10.15 2.18-15.3z"/><path fill="#6c6d75" d="M308.91 189.98c.81-1.3 4.36-1.21 3.25.81l-1.43.71-1.82-1.52z"/><path fill="#5d5d5f" d="M304.76 192.23c3.66-.95 7.09 1.3 10.54 2.17-.11 1.08-.24 2.17-.39 3.26-3.23-2.1-6.67-3.81-10.15-5.43z"/><path fill="#323435" d="M201.61 193.25c2.17.8 4.4.45 6.38-.66l2.38 4.11-3.7 4.22-2.16-1.16 1.7-3.43-5.4 3.19-1.13-1.53 1.93-4.74z"/><path fill="#726e6a" d="M209.7 193.79c3.21-1.82 7.03-1.09 10.52-.82-2.19 3.78-7.27 1.93-10.52.82z"/><path fill="#3f403f" d="M224.53 196.43l5.47-3.56c1.15.6 2.39.98 3.65 1.3 1.7 3.84 4.99 6.51 8.44 8.71 2.45 1.48 3.75 4.09 4.96 6.57 1.41-.66 2.8-1.48 4.35-1.78 2.31-.2 4.66.18 6.95-.29l-.85 2.96c-3.1-.3-6.4-.86-9.27.69l-2.42 1.12-1.16-5.31c-2.29.17-4.8.78-6.9-.48-4.82-2.72-8.75-6.7-13.22-9.93z"/><path fill="#625f5d" d="M200.81 199.52l5.4-3.19-1.7 3.43-4.26 6.79c-1 .12-2.01-.03-3-.15l2.43-8.41 1.13 1.53z"/><path fill="#666b70" d="M210.37 196.7l3.05-.09c-1.34 2.81-2.45 6.01-5.05 7.93-1.37.34-2.79.45-4.19.61-1.07-1.99 1.46-2.93 2.49-4.23 1.32-1.33 2.51-2.77 3.7-4.22z"/><path fill="#4d5567" d="M298.08 201.53l2.56-5.6-.03 5.13 8.41 3.25c-1.12 2.78-3.73 4.27-6.28 5.55l-.72.43c-2.11-2.51-3.54-5.5-3.94-8.76z"/><path fill="#55555d" d="M319.13 196.33l1.93-.47c-.37 2.58-.01 5.98-2.76 7.38.06-2.32.1-4.69.83-6.91z"/><path opacity=".85" d="M291.45 196.84l.19.8c1.44 2.24 4.14 2.89 6.44 3.89.4 3.26 1.83 6.25 3.94 8.76.09 5.13-.27 10.27-1.44 15.28-.77 3.15-.92 6.57.93 9.4-.84 1.07-1.65 2.17-2.36 3.34-.76 2.82-1.24 5.7-1.74 8.57-.17-1.38-.43-2.74-.7-4.1-.36-1.91-.93-3.86-2.24-5.35-2.66-3.15-5.49-6.16-8.23-9.24.57-2.8 1.35-5.55 2.08-8.31.21-1.39.69-2.86.26-4.25-.76-.92-1.78-1.56-2.78-2.17l4-1.67c-1.26-3.5-6.31-4.26-6.15-8.39l7.14.58.66-7.14z"/><path fill="#e4bd59" d="M303.34 197.03c2.89.54 5.73 1.47 8.18 3.16l-1.22 1.88c-2.76.19-5.55-.23-7.84-1.89l.88-3.15z"/><path fill="#3e3a36" d="M327.58 199.24c1.86.6 4.38.73 5.25 2.82.97 2.23.9 4.74.88 7.13-1.08 7.81-2.05 15.73-4.74 23.19-1.57 4.08 1.35 7.92 3.22 11.32.62 1.69 1.11 3.42 1.62 5.16-1.61.06-3.2.13-4.8.12l-2.54-.21c-2-.31-4.04-.08-5.84.88l-.78.33c.27-2.92 1.82-5.38 3.79-7.46 2.44-2.47 2.91-6.01 3.79-9.21 2.44-7.59 4.18-15.43 4.9-23.37.55-3.05-1.66-5.4-3.42-7.56-1.83 4.66-3.34 9.54-3.4 14.59-.03 3.38-.35 6.77-1.45 9.98l-.92 2.99c-1.46 3.12-3.18 6.25-6.17 8.15.26-2.83.64-5.64 1.18-8.42 2.75-2.53 3.84-6.06 4.18-9.68.46-2.7 1.62-5.26 1.9-7.99-.39-.82-.94-1.55-1.44-2.3l.46-1.44c1.06-3.18 2.64-6.14 4.33-9.02z"/><path fill="#6f6e6d" d="M335.71 205.43c3.52-2.09 6.92-4.38 10.37-6.59l.03 3.05c-1.86 2.57-4.27 4.72-7.25 5.88l-1.71.49-1.44-2.83z"/><path fill="#5e605d" d="M175.01 210.2c1.37-3.4 2.74-6.81 4.49-10.04 1.98 1.07 4.05 1.99 6.27 2.43 2.39.55 4.76 1.16 7.06 2.04-2.75 2.29-4.25 5.56-5.06 8.97l2.98 3.35c-2.42 1.58-5.39 2.99-6.45 5.89-1.07 3.43-1.88 8.07 1.77 10.3 2.14 1.33 4.67 1.32 6.85.07-2.01 3.22-.46 6.81.07 10.2-1.22 1.47-2.16 3.15-2.74 4.97-2.33-.8-4.93-1.16-6.85-2.83-2.89-2.37-4.02-6.07-5.91-9.16-1.02-1.73-2.91-2.6-4.47-3.75 2.09-2.8 1.32-6.37.8-9.54-.31-1.95-.85-4.09-2.54-5.31-1.92 4.66-1.78 10.05 1.11 14.29-3.57-2.43-3.48-7.13-3.01-10.95.53-4.23 4.08-7.12 5.63-10.93m6.2 5.11c-1.21.76-.06 3.01 1.18 1.91 1.2-.77.06-3.02-1.18-1.91z"/><path fill="#4c4c4a" d="M200.25 206.55c1.6-2.14 2.89-4.5 4.26-6.79l2.16 1.16c-1.03 1.3-3.56 2.24-2.49 4.23 2.37 2.91 4.43 6.04 6.74 8.99l-1.83 3.3 3.59-.47c.87.6 1.74 1.2 2.64 1.76l-2.42 5.84-.27.68-.62-1.89c-1.29 1.17-2.93 2.19-3.53 3.92-.92 2.39-1.45 5.01-3.12 7.03-1.88 2.56-4.64 4.19-7.25 5.9 2.05-6.7 6.92-11.9 11.84-16.65l-4.12.02-1.72.02-1.09-1.96c-2.87 2.02-4.93 4.88-6.57 7.93-1.11 1.28-2.33 2.46-3.53 3.64-2.18 1.25-4.71 1.26-6.85-.07.36-1.75 1-3.51.78-5.32-.4-1.85-1.64-3.36-2.55-4.98 1.06-2.9 4.03-4.31 6.45-5.89l-2.98-3.35c.81-3.41 2.31-6.68 5.06-8.97l4.42 1.77c.99.12 2 .27 3 .15z"/><path fill="#514d4b" d="M310.3 202.07l1.22-1.88c1.09 1.17 2.07 2.45 3 3.75l-1.62 4.32-2.61 1.12c-1.04.33-1.97.86-2.79 1.59l-3.58 1.8-1.18-2.91c2.55-1.28 5.16-2.77 6.28-5.55l1.28-2.24z"/><path fill="#8b907d" d="M314.52 203.94c.46-1.01.98-1.98 1.53-2.94l1.95 5.73 5.06-.94.19 2.47-.46 1.44c-2.46 4.05-6.15 7.07-9.49 10.36-1.4.02-2.78.1-4.16.18.61-4.18 2.13-8.11 3.76-11.98.52-1.45 1.02-2.9 1.62-4.32z"/><path fill="#b48467" d="M338.86 207.77c2.98-1.16 5.39-3.31 7.25-5.88a95.09 95.09 0 0 0 1.34 12.82l1.55 15.52c.35 3.84.77 7.77.04 11.6-.12 1.66-1.64 2.53-2.76 3.5.51-7.09.63-14.24-.2-21.31-.62-5.56-3.56-10.44-6.35-15.15-.3 3.12-.36 6.26-.77 9.37-.59 4.36-2.66 8.4-2.89 12.83-.28 4.17.9 8.23 1.61 12.3.29 1.09-.08 2.17-.36 3.22-1.31-.65-2.58-1.35-3.83-2.08l-.99-10.19c-.69-6.87 1.86-13.46 2.6-20.22.15-2.65 1.4-5.02 3.76-6.33z"/><path opacity=".1" d="M325.51 216.97c.06-5.05 1.57-9.93 3.4-14.59 1.76 2.16 3.97 4.51 3.42 7.56-.72 7.94-2.46 15.78-4.9 23.37l-3.64 1.89c-.07-2.75-.11-5.52.27-8.25 1.1-3.21 1.42-6.6 1.45-9.98z"/><path fill="#65687f" d="M258.35 207.38c1.86-.7 3.92-2.16 5.87-.82 1.7 1.47 2.2 3.86 3.23 5.8l3.19-.59-3.32 1.83-.41 4.51-7.37 1.83c-2.68.84-4.96 2.53-7.32 3.99l-1.42.91c-1.17-.73-2.47-1.33-3.39-2.39.12-3.82 1.17-7.58.82-11.42 2.87-1.55 6.17-.99 9.27-.69l.85-2.96m2.9 1.96v.45h.45v-.45h-.45m4.04 5.95v.45h.45v-.45h-.45z"/><path fill="#3f4146" opacity=".91" d="M272.89 209.65c.93-.71 1.89-1.66 3.18-1.51 1.78-.09 2.91 1.51 4.24 2.43 1.54 1.45 3.57 2.11 5.49 2.89 1 .61 2.02 1.25 2.78 2.17.43 1.39-.05 2.86-.26 4.25l-2.57-4.6c-1.8-.14-3.68.04-5.4-.55-1.28-.82-2.16-2.1-3.1-3.26l-.51-.71-.84-.22-3.01-.89z"/><path fill="#62636c" d="M310.29 209.38l2.61-1.12c-1.63 3.87-3.15 7.8-3.76 11.98 1.38-.08 2.76-.16 4.16-.18l.61 1.34-3.12.63-2.77.02c-2.62-2.46-3.66-5.83-4.1-9.28 1.2-.58 2.41-1.16 3.58-1.8l1.43 1 .96-.18.62-.73-.22-1.68z"/><path fill="#87644d" d="M333.71 209.19l3.44-.93 1.71-.49c-2.36 1.31-3.61 3.68-3.76 6.33-.74 6.76-3.29 13.35-2.6 20.22.28 3.4.69 6.79.99 10.19l-1.3-.81c-1.87-3.4-4.79-7.24-3.22-11.32 2.69-7.46 3.66-15.38 4.74-23.19z"/><path fill="#bbbac6" d="M261.25 209.34h.45v.45h-.45v-.45z"/><path fill="#a7a8b0" d="M307.5 210.97c.82-.73 1.75-1.26 2.79-1.59l.22 1.68-.62.73-.96.18-1.43-1z"/><path fill="#c89679" d="M339.73 208.87c2.79 4.71 5.73 9.59 6.35 15.15.83 7.07.71 14.22.2 21.31-2.84 1.16-5.92 1.59-8.96 1.26.28-1.05.65-2.13.36-3.22-.71-4.07-1.89-8.13-1.61-12.3.23-4.43 2.3-8.47 2.89-12.83.41-3.11.47-6.25.77-9.37z"/><path fill="#6b6660" d="M233.77 210.65c2.97-.58 6.1-.88 8.96.35-2.8 2.28-6.43 2.73-9.65 4.08-2.25 1.8-3.28 5.02-6.21 5.95-2.39 1.07-4.86-.28-7.14-.97 5.88-3.56 12.49-5.54 18.49-8.84a115.2 115.2 0 0 0-4.45-.57z"/><path fill="#5e6075" d="M270.64 211.77l2.25-2.12 3.01.89-.34.73.34.74.81.05.54-.59c.94 1.16 1.82 2.44 3.1 3.26 1.72.59 3.6.41 5.4.55l2.57 4.6-2.08 8.31-2.63 2.04c-1.33-.18-2.57-.69-3.83-1.11-.37-2.09-.44-4.37-1.65-6.19-2.32-1.61-5.11-2.49-7.14-4.51-.79-1.14-2.26-1.38-3.38-.57l-.7.26.41-4.51 3.32-1.83m13.65 5.49v.45h.45v-.45h-.45m-6.2 2.22c-1.2.8.12 2.89 1.32 1.96 1.19-.81-.12-2.89-1.32-1.96z"/><path fill="#2d313c" d="M302.02 210.29l.72-.43 1.18 2.91c.44 3.45 1.48 6.82 4.1 9.28l-1.78.03 1.31 1.59c1.32 1.73 2.69 3.46 3.56 5.47-.07 3.16-2.41 5.6-4.02 8.12-1.25 0-2.5 0-3.75-.02l-.53-.66c2.64-2.58 1.79-6.39 1.61-9.67l-3.84-1.34c1.17-5.01 1.53-10.15 1.44-15.28z"/><path fill="#787979" d="M313.3 220.06c3.34-3.29 7.03-6.31 9.49-10.36.5.75 1.05 1.48 1.44 2.3-.28 2.73-1.44 5.29-1.9 7.99l-1.86-2.99c-1.59 2.76-2.52 5.84-3.98 8.66-1.3.24-2.62.27-3.92.3l2.93-2.02-4.71-1.91 3.12-.63-.61-1.34z"/><path fill="#8f8d8e" d="M221.13 216.16c3.91-2.42 8.07-4.67 12.64-5.51a115.2 115.2 0 0 1 4.45.57c-6 3.3-12.61 5.28-18.49 8.84-.99-.34-2-.65-3-.94l4.4-2.96z"/><path fill="#d7d4db" d="M275.56 211.27l.34-.73.84.22.51.71-.54.59-.81-.05-.34-.74z"/><path fill="#626462" d="M210.92 214.14c3.39.74 6.79 1.44 10.21 2.02-1.49.96-2.93 1.98-4.4 2.96l-1.41-.39c-.9-.56-1.77-1.16-2.64-1.76l-3.59.47 1.83-3.3z"/><path d="M181.21 215.31c1.24-1.11 2.38 1.14 1.18 1.91-1.24 1.1-2.39-1.15-1.18-1.91zm-9.93 2.48c1.69 1.22 2.23 3.36 2.54 5.31.52 3.17 1.29 6.74-.8 9.54l-.63-.56c-2.89-4.24-3.03-9.63-1.11-14.29z" fill="#81807f"/><path fill="#a9a7b4" d="M265.29 215.29h.45v.45h-.45v-.45z"/><path fill="#545350" d="M347.45 214.71l1.12 2.67c.66 3.78 1.41 7.55 1.81 11.37.05 2.64.27 5.29.96 7.86 1.25 4.51.16 9.2.65 13.8l3.03.21c.5-6.55-.25-13.16-2.15-19.44 3.01 3.54 2.81 8.42 2.97 12.79-.05 2.74.17 5.59-.74 8.22-2.42 2.56-5.57 4.29-8.15 6.7-2.76 2.59-6.04 4.5-9.4 6.18-.57-2.72-1.17-5.45-2.17-8.05-1.97-2.8-4.23-5.38-6.37-8.04 1.6.01 3.19-.06 4.8-.12-.51-1.74-1-3.47-1.62-5.16l1.3.81c1.25.73 2.52 1.43 3.83 2.08 3.04.33 6.12-.1 8.96-1.26 1.12-.97 2.64-1.84 2.76-3.5.73-3.83.31-7.76-.04-11.6l-1.55-15.52m-8.11 43.57v.45h.45v-.45h-.45z"/><path fill="#393b46" d="M267.61 217.85c1.12-.81 2.59-.57 3.38.57-.9 1.18-2.89.79-3.38-.57z"/><path fill="#b3b1be" d="M284.29 217.26h.45v.45h-.45v-.45z"/><path fill="#595760" d="M316.49 225.66l3.98-8.66 1.86 2.99c-.34 3.62-1.43 7.15-4.18 9.68-2.14-1.34-4.28-2.69-6.53-3.84l.95.13c1.3-.03 2.62-.06 3.92-.3z"/><path fill="#5b5b5b" d="M266.91 218.11l.7-.26c.49 1.36 2.48 1.75 3.38.57 2.03 2.02 4.82 2.9 7.14 4.51 1.21 1.82 1.28 4.1 1.65 6.19l.19 1.33c-.07 4.01 1.74 7.58 4 10.77.44 2.27.8 4.56 1.2 6.85-.98.62-1.99 1.2-2.99 1.78l4.17 3.27c-.62 1.76-1.39 3.6-.74 5.47-.59.88-1.24 1.93-2.37 1.06-.19-2.38-.06-4.76-.05-7.14-.88.69-2.23.98-2.66 2.1-.53 3.08-.24 6.24-.8 9.31-.27 2.33-1.4 4.9.25 6.99-1.3.53-2.63.99-3.95 1.45.03-6.82.84-13.67 3.06-20.13 1.8-5.12.65-10.59-.37-15.74-.42-1.45-.58-3.39-2.15-4.09-2.77-1.32-5.68-2.33-8.53-3.44-2.85-1.16-5.97-.36-8.92-.24-2.05-1.93-4.3-3.67-6.9-4.79 2.36-1.46 4.64-3.15 7.32-3.99 2.42-.75 4.93-1.14 7.37-1.83z"/><path fill="#61625f" d="M240.59 218.92c2.61 2.39 4.78 5.2 6.57 8.25-1.39 2.13-2.65 4.33-3.87 6.56-3.14 1.32-4.42 4.65-6.02 7.38-2.41.34-5.07.49-6.93 2.27-4.8 4.2-9.46 8.87-12.31 14.66-2.95 5.99-1.45 12.81-1.19 19.18l-2.49.18c-.86-2.59-1.82-5.14-2.9-7.64l-3.53 3.54c-1.37-2.02-3.27-3.98-3.26-6.58-.22-3.3-.09-6.6-.2-9.9 1.12 2 1.65 4.25 1.86 6.52l-.03.94-.1 3.33 1.86 1.86c2.76-5.82 4.34-12.16 7.72-17.69 1.74-2.89 3.53-5.76 5.51-8.5 2.37-3.27 5.69-5.64 8.62-8.38 2.65-2.48 5.48-4.78 8.23-7.14 2.37-2.27 1.82-5.89 2.46-8.84m-9.32 16.39l-.11 2.57c2.03-.02 4.25.53 6.12-.52 1.33-1.87 1.6-4.21.83-6.36-2.43 1.18-4.7 2.66-6.84 4.31z"/><path fill="#8a8782" d="M278.09 219.48c1.2-.93 2.51 1.15 1.32 1.96-1.2.93-2.52-1.16-1.32-1.96z"/><path fill="#727575" d="M196.45 229.57c1.64-3.05 3.7-5.91 6.57-7.93l1.09 1.96 1.72-.02c-3.31 4.25-6.23 8.85-10.15 12.59.02-2.22.22-4.44.77-6.6z"/><path fill="#85848d" d="M306.24 222.08l1.78-.03 2.77-.02 4.71 1.91-2.93 2.02-.95-.13-4.07-2.16-1.31-1.59z"/><path fill="#3c3f3c" d="M184.3 222.84c.91 1.62 2.15 3.13 2.55 4.98.22 1.81-.42 3.57-.78 5.32-3.65-2.23-2.84-6.87-1.77-10.3z"/><path fill="#7f8183" d="M205.83 223.58l4.12-.02c-4.92 4.75-9.79 9.95-11.84 16.65l-3.84 4.97-1.28-1.77c-.53-3.39-2.08-6.98-.07-10.2 1.2-1.18 2.42-2.36 3.53-3.64-.55 2.16-.75 4.38-.77 6.6 3.92-3.74 6.84-8.34 10.15-12.59z"/><path fill="#494a46" d="M208.48 227.28c.6-1.73 2.24-2.75 3.53-3.92l.62 1.89-1.34 3.68-.97 2.74c-3 4.17-6.87 7.56-10.49 11.17-1.96 1.58-.98 4.25-1.07 6.39-1.09-.04-2.41.21-3.24-.67-.68-1.01-.88-2.25-1.25-3.38 1.31-1.64 2.58-3.3 3.84-4.97 2.61-1.71 5.37-3.34 7.25-5.9 1.67-2.02 2.2-4.64 3.12-7.03z"/><path fill="#817f78" d="M252.22 223.93c2.6 1.12 4.85 2.86 6.9 4.79 2.95-.12 6.07-.92 8.92.24l8.53 3.44c1.57.7 1.73 2.64 2.15 4.09 1.02 5.15 2.17 10.62.37 15.74-2.22 6.46-3.03 13.31-3.06 20.13 1.32-.46 2.65-.92 3.95-1.45 2.37-2.52 3.76-5.71 5.07-8.86l-.14 3.89c-.61 2.36-1.3 4.69-2.16 6.97-2.33.8-4.79 1.07-7.24.92-1.07 1.51-2.03 3.14-3.36 4.43-6.26 4.01-13.82 4.75-21.02 5.54-5.22-2.68-10.3-5.74-14.51-9.86.38-.93.78-1.86 1.2-2.77.78 1.01 1.55 2.04 2.42 3 2.37-.42 2.2-3.45 3.02-5.23 1.08-4.4 2.34-8.75 3.54-13.11.39-1.9 1.1-4 .17-5.85-1.34-2.78-3.39-5.12-5.21-7.59.62-2.86 1-5.77 1.53-8.66 1.22-2.23 2.48-4.43 3.87-6.56 1.18-.82 2.42-1.57 3.64-2.33l1.42-.91m11.88 7.1l.18.79c-1.25 1.26-2.44 2.59-3.84 3.67-3.1.3-6.11-1.65-9.19-.94-2.75 1.76-5.54 4.26-6.33 7.53-.6 2.44 1.66 3.97 3.32 5.24l.48-.79c2.49 4.29-.36 8.74-.86 13.12-2.18 3.21-2.5 7.17-2.25 10.93 1.77 1.08 3.38 2.4 4.83 3.88 4.81.55 9.66 1.13 14.51.73 1.6-2.83 2.67-5.89 3.45-9.03 1.24-4.93 3.69-9.75 3.28-14.95-.89-.9-1.94-1.6-2.96-2.33l-1.38-2.91c.44-2.82.66-5.67.54-8.52l.92-3.57 2.64-.98c-2.15-1.54-4.79-1.74-7.34-1.87z"/><path fill="#464b5a" d="M307.55 223.67c1.32.79 2.69 1.48 4.07 2.16 2.25 1.15 4.39 2.5 6.53 3.84-.54 2.78-.92 5.59-1.18 8.42l-3.28 2.76-5.24-.94-1.36-2.65c1.61-2.52 3.95-4.96 4.02-8.12-.87-2.01-2.24-3.74-3.56-5.47m1.73 12.55v.45h.45v-.45h-.45z"/><path fill="#78786f" d="M212.63 225.25l.27-.68c4.25 2.62 9.4 2.32 13.89 4.25-1.33 1.47-2.67 2.93-4.12 4.28-1.44-1.16-2.81-2.46-4.49-3.27-2.21-.77-4.59-.71-6.89-.9l1.34-3.68z"/><path fill="#131417" d="M301.51 234.97c-1.85-2.83-1.7-6.25-.93-9.4l3.84 1.34c.18 3.28 1.03 7.09-1.61 9.67l-1.3-1.61z"/><path fill="#7f7a70" d="M222.8 235.83c4.12-4.06 9.13-8.54 15.33-8.07-2.75 2.36-5.58 4.66-8.23 7.14-2.93 2.74-6.25 5.11-8.62 8.38-1.98 2.74-3.77 5.61-5.51 8.5-3.38 5.53-4.96 11.87-7.72 17.69l-1.86-1.86.1-3.33 2.48.1c1.52-4.01 2.64-8.18 4.54-12.04 3.56-6.73 8.48-12.64 13.87-17.99-1.47.48-2.94.94-4.38 1.48z"/><path fill="#030303" opacity=".82" d="M323.14 229.94l.92-2.99c-.38 2.73-.34 5.5-.27 8.25l3.64-1.89c-.88 3.2-1.35 6.74-3.79 9.21-1.97 2.08-3.52 4.54-3.79 7.46l-2.57 1.12 1.52-7.53c2.17-4.29 3.87-8.82 4.34-13.63z"/><path fill="#4e4d44" d="M283.61 230.23c.92-.61 1.76-1.34 2.63-2.04l8.23 9.24c1.31 1.49 1.88 3.44 2.24 5.35l-2.14 7.42c-.66-2.38-1.33-5.85-4.52-5.62-1.53.83-2.84 1.99-4.23 3.02l-.65.47-1.2-6.85c-.37-3.9-1.93-7.49-4-10.77l-.19-1.33c1.26.42 2.5.93 3.83 1.11z"/><path fill="#8c8d84" d="M211.29 228.93c2.3.19 4.68.13 6.89.9 1.68.81 3.05 2.11 4.49 3.27-3.7 3.28-7.39 6.66-10.03 10.89l-4.95 7.76c-2.62-.63-5.23-1.29-7.77-2.19l-.61-.89c1.97-2.52 4.67-4.27 6.99-6.43 2.3-3.07 2.9-6.99 4.02-10.57l.97-2.74z"/><path fill="#6d6b6a" d="M351.34 236.61c-.69-2.57-.91-5.22-.96-7.86l2.49 2.43c1.9 6.28 2.65 12.89 2.15 19.44l-3.03-.21c-.49-4.6.6-9.29-.65-13.8z"/><path fill="#727372" d="M316.97 238.09c2.99-1.9 4.71-5.03 6.17-8.15-.47 4.81-2.17 9.34-4.34 13.63-1.99 2.46-4.08 4.84-5.87 7.45.28-2.72.75-5.42 1.72-7.99l-.96-2.18c1.07-.94 2.16-1.87 3.28-2.76z"/><path fill="#50504d" d="M231.27 235.31c2.14-1.65 4.41-3.13 6.84-4.31.77 2.15.5 4.49-.83 6.36-1.87 1.05-4.09.5-6.12.52l.11-2.57z"/><path fill="#424345" d="M264.1 231.03c2.55.13 5.19.33 7.34 1.87l-2.64.98-4.01.24-.51-2.3-.18-.79z"/><path fill="#6e6b69" d="M283.97 241.22c-2.26-3.19-4.07-6.76-4-10.77 2.07 3.28 3.63 6.87 4 10.77z"/><path fill="#7a7b72" d="M199.83 242.84c3.62-3.61 7.49-7 10.49-11.17-1.12 3.58-1.72 7.5-4.02 10.57-2.32 2.16-5.02 3.91-6.99 6.43l-.55.56c.09-2.14-.89-4.81 1.07-6.39z"/><path fill="#929088" d="M260.44 235.49c1.4-1.08 2.59-2.41 3.84-3.67l.51 2.3-.59 2.37-.95 4.12c-1.57 2.92-2.99 5.95-3.7 9.21a59.94 59.94 0 0 1-8.83-6.61l-2 3.32-.48.79c-1.66-1.27-3.92-2.8-3.32-5.24.79-3.27 3.58-5.77 6.33-7.53 3.08-.71 6.09 1.24 9.19.94z"/><path fill="#565856" d="M237.27 241.11c1.6-2.73 2.88-6.06 6.02-7.38l-1.53 8.66c-1.09.91-3 1.64-2.61 3.4.88 1.51 2.2 2.7 3.41 3.96l-2.81.67 1.14 5.42c-3.22 4.31-5.92 9.03-7.32 14.26l-1.99 1.27c-.52-1.79-1.15-3.54-1.69-5.32-.69-3.06-.6-6.21-.44-9.32l2.87.36c-.14 2.34-.06 4.68.07 7.02 2.9-4.53 3.48-9.95 3.77-15.19-1.11 1.07-2.2 2.16-3.36 3.17-.79.45-1.59.87-2.39 1.29a119.17 119.17 0 0 1-1.81-1.31c1.36-1.69 2.58-3.49 3.87-5.23 2.06-1.48 3.68-3.46 4.8-5.73z"/><path fill="#939088" d="M222.8 235.83l4.38-1.48c-5.39 5.35-10.31 11.26-13.87 17.99-1.9 3.86-3.02 8.03-4.54 12.04l-2.48-.1.03-.94c1.67-6.87 4.55-13.52 8.89-19.14 2.47-2.84 4.99-5.65 7.59-8.37z"/><path fill="#636770" d="M264.79 234.12l4.01-.24-.92 3.57-3.68-.96.59-2.37z"/><path fill="#939888" d="M299.15 238.31c.71-1.17 1.52-2.27 2.36-3.34l1.3 1.61.53.66.87 3.07-.51 1.41c-.8 1.26-1.7 2.46-2.6 3.66-.13-2.48-.9-4.84-1.95-7.07z"/><path fill="#787e8b" d="M264.2 236.49l3.68.96c.12 2.85-.1 5.7-.54 8.52-.44 2.93-.67 5.9-1.46 8.77-.13 1.09-1.38 1.27-2.18 1.68l-.31.13-2.38 1.01-.72-1.35c1.41-5.12 3.19-10.21 2.96-15.6l.95-4.12z"/><path fill="#9f9fa7" d="M309.28 236.22h.45v.45h-.45v-.45z"/><path fill="#6b6d76" d="M303.34 237.24l3.75.02 1.36 2.65c-.6 1.25-1.43 2.52-1.05 3.98.48 2.92.54 5.89-.04 8.81l-3.06-4.77-3.37.91.17-3.46 2.6-3.66c.07 1.09 1.73 2.48 2.36.97.38-1.23-.82-2.12-1.85-2.38l-.87-3.07z"/><path fill="#5d5c58" d="M297.41 246.88l1.74-8.57c1.05 2.23 1.82 4.59 1.95 7.07l-.17 3.46v2.9l3.12.23.25-4.04 3.06 4.77-.15 1.99c-.32 2.9-1.26 5.67-2.24 8.41l-2.59-1.42c-2.25-1.45-4.47-3.01-6.25-5.03-.26-3.31.86-6.52 1.28-9.77z"/><path fill="#44464c" d="M304.21 240.31c1.03.26 2.23 1.15 1.85 2.38-.63 1.51-2.29.12-2.36-.97l.51-1.41z"/><path fill="#b0b99e" d="M307.4 243.89c-.38-1.46.45-2.73 1.05-3.98l5.24.94.96 2.18c-.97 2.57-1.44 5.27-1.72 7.99l-.72 2.13-5 1.54.15-1.99c.58-2.92.52-5.89.04-8.81z"/><path fill="#797369" d="M230.34 243.38c1.86-1.78 4.52-1.93 6.93-2.27-1.12 2.27-2.74 4.25-4.8 5.73-2.28 1.13-4.5 2.47-6.2 4.41-3.07 3.39-6.1 6.99-7.83 11.28-.91 2.06 0 4.28.27 6.39.74 3.66.62 7.41.32 11.12l-2.19-2.82c-.26-6.37-1.76-13.19 1.19-19.18 2.85-5.79 7.51-10.46 12.31-14.66z"/><path fill="#9da0a6" d="M259.55 249.82c.71-3.26 2.13-6.29 3.7-9.21.23 5.39-1.55 10.48-2.96 15.6-1.22-1.93-.97-4.24-.74-6.39z"/><path fill="#6d6f6e" d="M239.15 245.79c-.39-1.76 1.52-2.49 2.61-3.4 1.82 2.47 3.87 4.81 5.21 7.59.93 1.85.22 3.95-.17 5.85l-3.54 13.11-2.97-1.71-2.47 3.94-1.2 2.77-3.05-3.84c1.4-5.23 4.1-9.95 7.32-14.26l-1.14-5.42 2.81-.67c-1.21-1.26-2.53-2.45-3.41-3.96z"/><path fill="#a19e95" d="M248.72 246.53l2-3.32a59.94 59.94 0 0 0 8.83 6.61c-.23 2.15-.48 4.46.74 6.39l.72 1.35-1.94.91-2.18-1.94c-2.69 2.59-5.46 5.1-8.34 7.49l-.69-4.37c.5-4.38 3.35-8.83.86-13.12z"/><path fill="#383735" d="M296.71 242.78l.7 4.1c-.42 3.25-1.54 6.46-1.28 9.77 1.78 2.02 4 3.58 6.25 5.03-.3 2.7-1.32 5.23-3.37 7.07-2.3-1.56-4.23-3.57-6.22-5.48.72-4.07.95-8.2 1.53-12.28l.25-.79c.77-2.46 1.52-4.92 2.14-7.42m.59 22.46v.45h.45v-.45h-.45z"/><path fill="#645f59" d="M190.25 248.38c.58-1.82 1.52-3.5 2.74-4.97l1.28 1.77c.37 1.13.57 2.37 1.25 3.38.83.88 2.15.63 3.24.67l.55-.56.61.89 1.03 3.89c-4.23-.05-7.45-2.76-10.7-5.07z"/><path fill="#777971" d="M207.69 251.75l4.95-7.76 2.57.21c-4.34 5.62-7.22 12.27-8.89 19.14-.21-2.27-.74-4.52-1.86-6.52-1.14-1.16-2.33-2.27-3.51-3.37a100.99 100.99 0 0 0-1.03-3.89c2.54.9 5.15 1.56 7.77 2.19z"/><path fill="#686969" d="M285.82 247.6c1.39-1.03 2.7-2.19 4.23-3.02 3.19-.23 3.86 3.24 4.52 5.62l-.25.79-2.79 5.26c-1.13-3.32-1.9-7.43-5.71-8.65z"/><path fill="#515050" d="M312.93 251.02c1.79-2.61 3.88-4.99 5.87-7.45l-1.52 7.53 2.57-1.12.78-.33c-3.05 3.13-6.88 5.58-9.03 9.48a122.19 122.19 0 0 0 3.8-.18c4.03-.14 8.53-1.63 12.08 1.04-3.52.27-6.94 1.16-10.26 2.29-2.2.75-4.58.51-6.78 1.18-1.77 1.18-3.16 2.82-4.7 4.28l-3.05 2.88c-1.23-.61-2.48-1.21-3.68-1.87 2.05-1.84 3.07-4.37 3.37-7.07a71.41 71.41 0 0 0 2.59 1.42l2.09 1.04c2.14-3.45 3.85-7.15 5.15-10.99l.72-2.13z"/><path fill="#9f9b92" d="M226.27 251.25c1.7-1.94 3.92-3.28 6.2-4.41l-3.87 5.23c-1.74 2.08-3.33 4.28-4.65 6.66-1.94 3.29-4 6.54-5.24 10.19-.27-2.11-1.18-4.33-.27-6.39 1.73-4.29 4.76-7.89 7.83-11.28z"/><path fill="#95938c" d="M267.34 245.97l1.38 2.91c1.02.73 2.07 1.43 2.96 2.33.41 5.2-2.04 10.02-3.28 14.95-.78 3.14-1.85 6.2-3.45 9.03-4.85.4-9.7-.18-14.51-.73-1.45-1.48-3.06-2.8-4.83-3.88-.25-3.76.07-7.72 2.25-10.93.19 1.46.44 2.91.69 4.37 2.88-2.39 5.65-4.9 8.34-7.49l2.18 1.94 1.94-.91 2.38-1.01.31-.13c.8-.41 2.05-.59 2.18-1.68.79-2.87 1.02-5.84 1.46-8.77z"/><path fill="#7c7b78" d="M285.17 248.07l.65-.47c3.81 1.22 4.58 5.33 5.71 8.65l-1.67 3.01-.92-5.3-3.33 4.63c-.65-1.87.12-3.71.74-5.47l-4.17-3.27 2.99-1.78z"/><path fill="#b5b1b6" d="M300.93 248.84l3.37-.91-.25 4.04-3.12-.23v-2.9z"/><path fill="#ab8167" d="M320.63 249.65c1.8-.96 3.84-1.19 5.84-.88-2.92 2.37-6.15 4.31-9.14 6.59-1.22.8-1.43 2.33-1.93 3.59l-3.8.18c2.15-3.9 5.98-6.35 9.03-9.48z"/><path fill="#898885" d="M232.8 252.09l3.36-3.17c-.29 5.24-.87 10.66-3.77 15.19-.13-2.34-.21-4.68-.07-7.02.12-1.67.32-3.33.48-5z"/><path fill="#d5a081" d="M326.47 248.77l2.54.21c2.14 2.66 4.4 5.24 6.37 8.04-.63 1.47-1.2 2.99-2.1 4.33-1.32.28-2.68.09-3.99-.12l-1.81-1.24c-3.55-2.67-8.05-1.18-12.08-1.04.5-1.26.71-2.79 1.93-3.59 2.99-2.28 6.22-4.22 9.14-6.59z"/><path fill="#4c4745" d="M291.53 256.25l2.79-5.26c-.58 4.08-.81 8.21-1.53 12.28-1.17-1.06-2.38-2.05-3.59-3.03l-.97 1.97-1.4-2.48-1.92 6.21.14-3.89c-1.31 3.15-2.7 6.34-5.07 8.86-1.65-2.09-.52-4.66-.25-6.99.56-3.07.27-6.23.8-9.31.43-1.12 1.78-1.41 2.66-2.1-.01 2.38-.14 4.76.05 7.14 1.13.87 1.78-.18 2.37-1.06 1.14-1.52 2.23-3.08 3.33-4.63l.92 5.3 1.67-3.01z"/><path fill="#6d6f6c" d="M223.95 258.73c1.32-2.38 2.91-4.58 4.65-6.66l1.81 1.31 2.39-1.29-.48 5-2.87-.36c-.16 3.11-.25 6.26.44 9.32l-4.93-2.52-1.01-4.8z"/><path fill="#7c7b80" d="M307.21 254.69l5-1.54c-1.3 3.84-3.01 7.54-5.15 10.99l-2.09-1.04c.98-2.74 1.92-5.51 2.24-8.41z"/><path fill="#fff" d="M263.39 256.55l.31-.13-.31.13z"/><path fill="#bc8769" d="M335.38 257.02c1 2.6 1.6 5.33 2.17 8.05-1.71.99-3.33 2.1-4.93 3.22-.85-2.47-1.9-4.88-3.33-7.06 1.31.21 2.67.4 3.99.12.9-1.34 1.47-2.86 2.1-4.33z"/><path fill="#9b999b" d="M339.34 258.28h.45v.45h-.45v-.45z"/><path fill="#585653" d="M223.95 258.73l1.01 4.8-.04 3.49-.36 4.16-1.48-3.23c-.99 2.25-2.33 4.44-2.62 6.92.2 2.14 1.22 4.11 1.43 6.25-.13 1.4-1.39 2.24-2.29 3.17l-.6.18-2.65-.33c-3.93-2.61-5.58-7.27-8.43-10.84l3.53-3.54c1.08 2.5 2.04 5.05 2.9 7.64l2.49-.18 2.19 2.82c.3-3.71.42-7.46-.32-11.12 1.24-3.65 3.3-6.9 5.24-10.19z"/><path fill="#242629" d="M284.91 265.94l1.92-6.21 1.4 2.48-.64 4.49 2.59-1.27-.12 2.33c-3.77 1.87-4.84 6.12-6.86 9.46-1.67 3.02-5.04 4.31-7.9 5.92l-3.31-2.3c2.43-.82 4.99-1.38 7.22-2.7 1.56-1.45 2.53-3.39 3.54-5.23.86-2.28 1.55-4.61 2.16-6.97z"/><path fill="#70706f" d="M289.2 260.24l3.59 3.03c1.99 1.91 3.92 3.92 6.22 5.48l3.68 1.87 3.05-2.88-.57 6.08 4.74-2.72c-1.32 3.85-1.62 7.91-1.78 11.95.16 3.52-2.74 5.88-4.44 8.62-1.44 1.97-1.69 4.47-1.85 6.83-1.06-2.21-2.2-4.38-3.3-6.58l-2.72-.26.35-2.43c1.85-1.81 3.99-3.48 5.15-5.85.52-1.83.19-3.76-.02-5.61-.33-1.78-.76-3.54-1.16-5.29a103.54 103.54 0 0 0-10.2-1.77l.12-2.95.12-2.33-2.59 1.27c.19-1.5.37-3.01.64-4.49l.97-1.97z"/><path fill="#5c5e5e" d="M327.48 259.99l1.81 1.24c1.43 2.18 2.48 4.59 3.33 7.06 1.11 4.69 4.96 9.07 3.09 14.07l-.7-.43c-1.87-2.57-3.63-5.22-5.64-7.68a185.87 185.87 0 0 0-7.14 6.6 105.79 105.79 0 0 1-3.53 3.19l-1.82 1.43c-1.28.24-3.37-.13-3.56 1.66-1.04 3.59-2.3 7.14-4.66 10.1-2.27 5.51-.35 11.58-1.04 17.33l-4.62.5c-.94-4.53-2.72-8.82-3.93-13.27 4.54 2.13 5.03 7.71 7.85 11.4-1-5.11-2.84-10-5.08-14.69.16-2.36.41-4.86 1.85-6.83 1.7-2.74 4.6-5.1 4.44-8.62.16-4.04.46-8.1 1.78-11.95l-4.74 2.72.57-6.08c1.54-1.46 2.93-3.1 4.7-4.28 2.2-.67 4.58-.43 6.78-1.18 3.32-1.13 6.74-2.02 10.26-2.29z"/><path fill="#848585" d="M224.96 263.53l4.93 2.52 1.69 5.32 1.94 7.16c1.05 2.87 3.24 5.11 5.29 7.31-2.35-.6-4.96-1.09-6.45-3.23-3.15-3.15-2.97-7.84-4.11-11.84-.39-1.76-2.11-2.64-3.33-3.75.06-1.17.07-2.33.04-3.49z"/><path fill="#81827a" d="M297.3 265.24h.45v.45h-.45v-.45z"/><path fill="#6d706f" d="M224.92 267.02c1.22 1.11 2.94 1.99 3.33 3.75 1.14 4 .96 8.69 4.11 11.84 1.49 2.14 4.1 2.63 6.45 3.23 1.48.78 2.94 1.62 4.42 2.44l-1.52.03c-2.49-.09-4.98-.26-7.44-.67a277.7 277.7 0 0 0-9.37-4.51l2.95-1.61c-1.04-3.46-2.16-6.9-3.29-10.34l.36-4.16z"/><path fill="#555757" d="M240.29 267.23l2.97 1.71c-.82 1.78-.65 4.81-3.02 5.23-.87-.96-1.64-1.99-2.42-3l2.47-3.94z"/><path fill="#3f403e" d="M223.08 267.95l1.48 3.23 3.29 10.34-2.95 1.61c-1.84.92-3.65 2.06-5.7 2.41-1.02-.32-1.94-.87-2.85-1.4l2.65.33.36.04.24-.22c.9-.93 2.16-1.77 2.29-3.17-.21-2.14-1.23-4.11-1.43-6.25.29-2.48 1.63-4.67 2.62-6.92z"/><path fill="#5d5e5b" d="M283.2 277.22c2.02-3.34 3.09-7.59 6.86-9.46l-.12 2.95c-.35 6.53-1.39 13.06-.89 19.62 2.47-.41 4.92-1.01 7.27-1.9l-.15.8-.35 2.43c-.29 2.37-.53 4.74-.62 7.13a45.05 45.05 0 0 0 1.03 3.37c-3.31 2.74-7.78 2.01-11.54 3.58 4.4 1.72 8.92-.79 13.42.14l.24.87c-1.35 4.4-6.46 4.8-10.33 4.55-2.45-.05-4.4-1.68-6.36-2.95 3.4.58 6.76 1.56 10.23 1.6 2.16.08 3.74-1.61 5.42-2.69-2.73.3-5.44.92-8.19.93-2.77-.28-5.27-1.62-7.85-2.54l-2.08 1.16c-3.85 2-8.26 2.73-12.56 2.24.57-1.85 1.21-3.68 1.87-5.49-2.48-1.24-5.23-.46-7.78.1 3.5-2.35 7.84-4.14 9.73-8.18 1.93-3.66 3.88-7.52 3.9-11.77l.95-.57c2.86-1.61 6.23-2.9 7.9-5.92m-4.98 21.01c-1.71 2.25-4.29 4.54-4.07 7.61 3.13.68 5.51-2.46 6.69-5 3.93-8.04 6.95-16.85 6.93-25.88-5.5 6.68-3.75 16.73-9.55 23.27z"/><path fill="#49433d" d="M231.58 271.37l1.99-1.27 3.05 3.84c4.21 4.12 9.29 7.18 14.51 9.86l-5.54.81.89 3.92c-1.08-.12-2.17-.19-3.25-.25l-4.42-2.44c-2.05-2.2-4.24-4.44-5.29-7.31-.85-2.33-1.28-4.78-1.94-7.16z"/><path fill="#82837b" d="M289.94 270.71a103.54 103.54 0 0 1 10.2 1.77l1.16 5.29c-2.21 3.25-4.29 6.72-4.98 10.66-2.35.89-4.8 1.49-7.27 1.9-.5-6.56.54-13.09.89-19.62z"/><path fill="#51514d" d="M275.51 273.83c2.45.15 4.91-.12 7.24-.92-1.01 1.84-1.98 3.78-3.54 5.23-2.23 1.32-4.79 1.88-7.22 2.7l3.31 2.3-.95.57c-2.2 1.82-3.53 4.37-5.09 6.71-1.84 2.78-4.8 4.48-7.37 6.5-3.5 2.72-7.37 4.89-11.23 7.05 3.34.52 6.78.68 10.06-.31 2.55-.56 5.3-1.34 7.78-.1-.66 1.81-1.3 3.64-1.87 5.49-5.41-.67-11.63.24-16.05-3.65-2.65-1.97-1.5-6-3.78-8.24-3.7-3.74-8.06-6.77-12.53-9.52 2.46.41 4.95.58 7.44.67 1.26.84 2.49 1.71 3.73 2.57l-.61 2.23c2.98.17 6.07.56 8.97-.39 4.78-1.63 9.7-4.15 12.06-8.86-3.19 1.44-5.97 3.66-9.22 4.98-3.34.92-6.8.02-10.16-.31l-.89-3.92 5.54-.81c7.2-.79 14.76-1.53 21.02-5.54 1.33-1.29 2.29-2.92 3.36-4.43z"/><path fill="#505150" d="M329.37 274.25c2.01 2.46 3.77 5.11 5.64 7.68l-2.57 4.21 2.69 6.54-3.2 3.5-1.71-3.32-5.03-1.68c.87-3.79-1.06-7.21-2.96-10.33a185.87 185.87 0 0 1 7.14-6.6z"/><path fill="#8a867e" d="M278.22 298.23c5.8-6.54 4.05-16.59 9.55-23.27.02 9.03-3 17.84-6.93 25.88-1.18 2.54-3.56 5.68-6.69 5-.22-3.07 2.36-5.36 4.07-7.61z"/><path fill="#423f38" d="M301.3 277.77c.21 1.85.54 3.78.02 5.61-1.16 2.37-3.3 4.04-5.15 5.85l.15-.8c.69-3.94 2.77-7.41 4.98-10.66z"/><path fill="#3e3f3f" d="M318.7 284.04l3.53-3.19c1.9 3.12 3.83 6.54 2.96 10.33l-3.58 2.23c-1.38-2.99-2.35-6.14-2.91-9.37z"/><path opacity=".11" d="M332.44 286.14l2.57-4.21.7.43c3.39 1.87 7.23 2.63 11.05 3.04 10.47 1.56 21.55 3.06 30.31 9.53 2.8 2.22 6.17 3.43 9.49 4.61 3.21 1.03 5.4 3.73 8.2 5.45 2.1.6 4.32.22 6.48.19l.14 4.64c2.5-.87 4.91-2.17 7.56-2.52 1.68.37 3.23 1.16 4.87 1.7 3.37 1.22 6.98 1.53 10.34 2.79 2.9 1.09 5.35 3.05 7.81 4.9l3.94-3.94 7.06 3.63-3.17 2.97-5.11-1.17-.26 4.09-2.25.49 2.36 2.37-3.47.59c-1.55-1.85-3.06-3.74-4.51-5.67l-.33 6.46a123.66 123.66 0 0 0-5.41-2.4c-2.25 1.61-4.84 2.78-7.64 2.89-3.28.56-6.26-1.46-9.52-1.23-2.23.18-4.43-.27-6.44-1.25l1.2 2.6c-5.89.42-11.79.68-17.69.86-5.2.13-10.32 1.55-15.53 1.03-6.09-.68-12.07 1.45-18.17.84-5.18-.47-10.38-.07-15.56-.37-10.53-1.04-21.09-1.91-31.67-2.08l-2.99-1.06c5.01-.05 9.93-1.49 13.99-4.46 5.5-3.99 12.55-5.81 17.03-11.15 4.72-4.65 9.1-11.09 7.31-18.05-.82-2.21-1.77-4.37-2.69-6.54z"/><path fill="#bebabc" d="M219 284.47l.6-.18-.24.22-.36-.04z"/><path fill="#8e8f8f" d="M256.64 288.84c3.25-1.32 6.03-3.54 9.22-4.98-2.36 4.71-7.28 7.23-12.06 8.86-2.9.95-5.99.56-8.97.39l.61-2.23-3.73-2.57 1.52-.03c1.08.06 2.17.13 3.25.25 3.36.33 6.82 1.23 10.16.31z"/><path fill="#727069" d="M269.26 290.42c1.56-2.34 2.89-4.89 5.09-6.71-.02 4.25-1.97 8.11-3.9 11.77-1.89 4.04-6.23 5.83-9.73 8.18-3.28.99-6.72.83-10.06.31 3.86-2.16 7.73-4.33 11.23-7.05 2.57-2.02 5.53-3.72 7.37-6.5z"/><path fill="#4e4f4f" d="M316.88 285.47l1.82-1.43c.56 3.23 1.53 6.38 2.91 9.37l-.69 2.99 4.36-1.8-.84 2.43c-.99 1.79-2.53 3.14-4.13 4.36-.04-5.52-2.26-10.62-3.43-15.92z"/><path fill="#2d2e2d" d="M313.32 287.13c.19-1.79 2.28-1.42 3.56-1.66 1.17 5.3 3.39 10.4 3.43 15.92-.37.26-1.09.8-1.46 1.06-1.4.21-2.81.02-4.18-.25-1.35.42-2.69.88-4.02 1.36-.9-2.03-1.58-4.15-1.99-6.33 2.36-2.96 3.62-6.51 4.66-10.1z"/><path fill="#797979" d="M295.82 291.66l2.72.26 3.3 6.58c2.24 4.69 4.08 9.58 5.08 14.69-2.82-3.69-3.31-9.27-7.85-11.4-1.35-.93-2.61-1.96-3.87-3 .09-2.39.33-4.76.62-7.13z"/><path fill="#6f6b67" d="M321.61 293.41l3.58-2.23 5.03 1.68 1.71 3.32c-1.75 2.43-3.24 5.05-4.36 7.83-3 .22-5.94-.46-8.72-1.56l1.46-1.06c1.6-1.22 3.14-2.57 4.13-4.36l3.3-.33.59-2.77-3.05.67c-1.5.49-2.93 1.14-4.36 1.8l.69-2.99z"/><path fill="#404142" d="M335.13 292.68c1.79 6.96-2.59 13.4-7.31 18.05-.15-2.24-.3-4.48-.25-6.72 1.12-2.78 2.61-5.4 4.36-7.83 1.02-1.2 2.11-2.35 3.2-3.5z"/><path fill="#818083" d="M325.28 294.6l3.05-.67-.59 2.77-3.3.33.84-2.43z"/><path fill="#52514f" d="M307.62 314.56c.69-5.75-1.23-11.82 1.04-17.33.41 2.18 1.09 4.3 1.99 6.33 1.33-.48 2.67-.94 4.02-1.36 1.37.27 2.78.46 4.18.25 2.78 1.1 5.72 1.78 8.72 1.56-.05 2.24.1 4.48.25 6.72-4.48 5.34-11.53 7.16-17.03 11.15-4.06 2.97-8.98 4.41-13.99 4.46-2.6-.82-4.21-3.14-6.05-4.98 3.85-.48 7.75-.42 11.59.09.26-1.9.54-3.79.66-5.7v-.69l4.62-.5m4.3-4.87l2.7 1.98c-2.04 2.09-4.12 4.32-4.74 7.28 2.69-.47 5.8-1.37 6.83-4.24.25-2.34-1.09-4.44-1.92-6.54l-2.87 1.52z"/><path fill="#87888b" d="M295.2 298.79l3.87 3c1.21 4.45 2.99 8.74 3.93 13.27v.69l-3.03-2.55-1.62-6.45-.24-.87-1.88-3.72a45.05 45.05 0 0 1-1.03-3.37z"/><path fill="#706f6b" d="M296.23 302.16l1.88 3.72c-4.5-.93-9.02 1.58-13.42-.14 3.76-1.57 8.23-.84 11.54-3.58z"/><path fill="#71726a" d="M279.19 306.81l2.08-1.16c2.58.92 5.08 2.26 7.85 2.54 2.75-.01 5.46-.63 8.19-.93-1.68 1.08-3.26 2.77-5.42 2.69-3.47-.04-6.83-1.02-10.23-1.6 1.96 1.27 3.91 2.9 6.36 2.95 3.87.25 8.98-.15 10.33-4.55.59 2.13 1.11 4.29 1.62 6.45-3 1.53-6.22 3.32-9.71 2.66-4.44-.47-7.88-3.72-10.34-7.2l-.73-1.85z"/><path fill="#3a3a37" d="M311.92 309.69l2.87-1.52c.83 2.1 2.17 4.2 1.92 6.54-1.03 2.87-4.14 3.77-6.83 4.24.62-2.96 2.7-5.19 4.74-7.28l-2.7-1.98z"/><path fill="#424344" d="M279.92 308.66c2.46 3.48 5.9 6.73 10.34 7.2 3.49.66 6.71-1.13 9.71-2.66l3.03 2.55c-.12 1.91-.4 3.8-.66 5.7-3.84-.51-7.74-.57-11.59-.09-2.38-1.99-5.13-3.55-7.25-5.85-1.77-1.94-2.61-4.47-3.58-6.85z"/></svg>