<?xml version="1.0" encoding="UTF-8" ?>
<!DOCTYPE svg PUBLIC "-//W3C//DTD SVG 1.1//EN" "http://www.w3.org/Graphics/SVG/1.1/DTD/svg11.dtd">
<svg width="512pt" height="512pt" viewBox="0 0 512 512" version="1.1" xmlns="http://www.w3.org/2000/svg">
<g id="#515351ff">
<path fill="#515351" opacity="1.00" d=" M 264.51 210.45 C 266.64 210.01 268.84 210.07 271.01 210.14 C 275.04 210.03 277.73 213.55 281.16 215.12 C 281.22 217.06 281.30 219.01 281.41 220.96 C 278.52 218.33 275.48 215.00 271.17 215.51 C 270.60 215.49 269.47 215.47 268.90 215.46 C 270.35 218.55 272.01 221.53 273.33 224.69 C 274.73 228.01 274.65 231.67 275.11 235.18 C 273.82 234.09 272.54 232.98 271.29 231.85 C 265.09 225.61 256.28 221.50 247.38 222.45 C 243.99 222.73 241.98 225.74 239.96 228.09 C 241.36 228.17 242.77 228.24 244.18 228.30 C 242.12 228.70 240.09 229.22 238.10 229.88 C 237.03 229.40 235.96 228.93 234.89 228.47 C 234.69 227.58 234.49 226.69 234.29 225.81 C 232.05 228.05 229.54 230.11 227.87 232.84 C 226.55 235.67 226.43 238.86 225.85 241.89 C 224.39 247.02 225.65 252.23 226.95 257.23 C 222.28 251.52 218.54 244.17 219.74 236.60 C 220.05 230.73 221.54 225.05 223.63 219.58 C 221.73 221.35 219.88 223.15 218.03 224.97 C 217.37 223.97 216.70 222.98 216.04 221.99 C 218.34 219.49 221.69 218.32 224.89 217.50 C 226.79 218.32 228.38 219.71 230.27 220.55 C 234.96 221.14 239.65 219.99 244.24 219.15 C 249.94 217.98 255.90 217.64 261.31 215.36 C 262.69 213.95 263.32 212.00 264.51 210.45 Z" />
</g>
<g id="#979289ff">
<path fill="#979289" opacity="1.00" d=" M 268.90 215.46 C 269.47 215.47 270.60 215.49 271.17 215.51 C 274.58 220.21 277.86 225.16 279.77 230.68 C 280.67 235.88 278.91 241.07 278.24 246.20 C 277.82 246.38 276.99 246.75 276.57 246.93 C 276.23 242.99 275.67 239.09 275.11 235.18 C 274.65 231.67 274.73 228.01 273.33 224.69 C 272.01 221.53 270.35 218.55 268.90 215.46 Z" />
</g>
<g id="#616260ff">
<path fill="#616260" opacity="1.00" d=" M 271.17 215.51 C 275.48 215.00 278.52 218.33 281.41 220.96 C 281.30 219.01 281.22 217.06 281.16 215.12 C 283.44 215.98 286.14 216.28 287.84 218.21 C 290.76 221.38 292.26 225.64 295.51 228.55 C 292.82 231.43 293.83 235.47 293.87 239.01 C 294.18 244.42 293.33 249.81 291.63 254.93 C 290.89 257.54 290.42 260.22 290.01 262.91 C 294.22 262.36 298.39 261.53 302.52 260.56 C 302.94 257.95 303.37 255.35 303.78 252.74 C 303.65 256.17 303.64 259.61 303.45 263.04 C 298.94 263.80 294.89 266.72 290.30 266.72 C 288.47 265.05 288.73 262.14 288.15 259.88 C 287.58 260.35 287.02 260.83 286.46 261.30 C 286.53 263.06 286.61 264.82 286.68 266.58 C 285.94 267.37 285.19 268.17 284.47 268.97 C 283.86 269.66 283.26 270.36 282.67 271.06 C 282.00 267.37 278.89 264.68 275.37 263.77 C 271.69 262.74 267.68 262.00 265.12 258.89 C 263.73 259.71 262.36 260.58 260.86 261.21 C 257.73 261.19 255.09 259.03 252.93 256.97 C 251.16 255.58 251.41 253.19 251.04 251.22 C 250.75 248.78 249.24 246.76 248.10 244.66 C 253.11 247.12 257.77 250.55 263.29 251.76 C 264.82 252.16 266.07 250.99 267.39 250.47 C 265.83 248.64 264.25 246.83 262.66 245.03 C 264.22 244.52 265.78 243.98 267.33 243.42 C 261.92 241.63 255.87 242.65 250.88 239.41 C 251.85 241.40 252.81 243.41 253.77 245.42 C 250.12 243.76 246.30 240.75 242.10 242.30 C 240.19 243.19 238.31 244.14 236.41 245.06 C 235.20 245.65 233.99 246.24 232.81 246.88 C 235.18 242.15 238.51 237.43 243.75 235.69 C 247.55 234.55 251.40 233.32 255.36 232.95 C 258.89 233.79 261.95 235.97 265.32 237.28 C 266.56 239.10 267.73 240.97 268.93 242.82 C 269.85 241.82 270.78 240.83 271.71 239.83 C 270.76 238.45 269.80 237.07 268.85 235.69 C 269.66 234.41 270.47 233.13 271.29 231.85 C 272.54 232.98 273.82 234.09 275.11 235.18 C 275.67 239.09 276.23 242.99 276.57 246.93 C 276.99 246.75 277.82 246.38 278.24 246.20 C 278.91 241.07 280.67 235.88 279.77 230.68 C 277.86 225.16 274.58 220.21 271.17 215.51 M 285.37 218.87 C 285.32 222.71 286.47 226.42 286.70 230.24 C 286.85 233.18 288.29 235.88 288.45 238.81 C 288.06 242.91 286.42 246.91 286.90 251.09 C 286.48 252.25 286.08 253.40 285.68 254.56 C 284.46 253.06 283.33 251.46 281.85 250.21 C 279.55 249.68 277.15 249.83 274.82 249.45 C 277.64 251.78 279.62 254.89 280.24 258.53 C 278.75 258.05 277.27 257.57 275.79 257.12 C 276.96 261.26 280.78 263.35 284.54 264.76 C 284.23 262.24 283.74 259.74 283.18 257.26 C 284.62 256.96 286.07 256.66 287.52 256.38 L 287.66 257.34 C 292.76 246.61 294.30 233.69 289.42 222.58 C 288.75 220.72 287.05 219.69 285.37 218.87 Z" />
</g>
<g id="#918f86ff">
<path fill="#918f86" opacity="1.00" d=" M 285.37 218.87 C 287.05 219.69 288.75 220.72 289.42 222.58 C 294.30 233.69 292.76 246.61 287.66 257.34 L 287.52 256.38 C 287.27 254.62 287.05 252.86 286.90 251.09 C 286.42 246.91 288.06 242.91 288.45 238.81 C 288.29 235.88 286.85 233.18 286.70 230.24 C 286.47 226.42 285.32 222.71 285.37 218.87 Z" />
</g>
<g id="#797874ff">
<path fill="#797874" opacity="1.00" d=" M 218.03 224.97 C 219.88 223.15 221.73 221.35 223.63 219.58 C 221.54 225.05 220.05 230.73 219.74 236.60 C 218.54 244.17 222.28 251.52 226.95 257.23 C 225.65 252.23 224.39 247.02 225.85 241.89 C 226.28 242.77 226.70 243.67 227.10 244.57 C 227.91 246.68 228.84 248.80 230.55 250.37 C 231.30 249.20 232.06 248.04 232.81 246.88 C 233.99 246.24 235.20 245.65 236.41 245.06 C 236.17 254.16 229.41 261.74 229.87 270.95 C 230.24 275.37 234.08 278.26 237.44 280.61 C 241.44 283.20 245.58 286.26 250.51 286.54 C 254.10 286.80 257.70 287.02 261.27 287.46 C 256.13 285.13 250.73 283.25 246.11 279.93 C 246.65 278.76 247.19 277.59 247.74 276.43 C 254.93 280.46 262.61 283.69 270.73 285.29 C 269.55 283.98 268.36 282.67 267.17 281.38 C 269.40 278.41 273.11 277.76 276.55 277.22 C 274.27 275.44 273.44 272.73 273.41 269.94 C 274.25 269.66 275.10 269.37 275.96 269.09 C 273.62 266.01 270.11 263.69 266.16 263.56 C 262.63 264.59 259.30 270.00 255.62 266.40 C 249.94 261.43 243.04 257.40 239.03 250.83 C 237.61 248.74 238.24 246.52 240.57 245.60 C 241.25 246.39 241.95 247.17 242.66 247.95 C 244.31 250.07 246.59 251.72 249.28 250.33 C 248.58 248.77 247.90 247.21 247.16 245.68 C 245.78 244.13 243.92 243.19 242.10 242.30 C 246.30 240.75 250.12 243.76 253.77 245.42 C 252.81 243.41 251.85 241.40 250.88 239.41 C 255.87 242.65 261.92 241.63 267.33 243.42 C 265.78 243.98 264.22 244.52 262.66 245.03 C 264.25 246.83 265.83 248.64 267.39 250.47 C 266.07 250.99 264.82 252.16 263.29 251.76 C 257.77 250.55 253.11 247.12 248.10 244.66 C 249.24 246.76 250.75 248.78 251.04 251.22 C 251.41 253.19 251.16 255.58 252.93 256.97 C 255.09 259.03 257.73 261.19 260.86 261.21 C 262.36 260.58 263.73 259.71 265.12 258.89 C 267.68 262.00 271.69 262.74 275.37 263.77 C 278.89 264.68 282.00 267.37 282.67 271.06 C 282.46 275.27 280.73 279.16 278.01 282.33 C 277.03 282.46 276.05 282.60 275.08 282.74 C 273.44 285.96 271.88 289.23 270.25 292.47 C 269.95 291.91 269.35 290.81 269.05 290.26 C 269.78 288.78 270.36 287.23 270.96 285.71 C 269.74 285.79 268.52 285.89 267.31 285.99 C 266.79 287.44 266.27 288.90 265.75 290.36 C 263.94 290.91 262.13 291.45 260.32 291.97 C 258.38 290.24 256.23 288.69 253.67 288.06 C 253.46 288.78 253.05 290.22 252.85 290.94 C 254.15 292.00 255.45 293.07 256.75 294.15 C 253.97 293.57 251.17 293.06 248.41 292.37 C 242.26 289.05 235.49 286.52 230.28 281.73 C 226.23 278.01 225.30 272.34 225.24 267.10 C 225.49 264.82 223.21 263.81 221.78 262.52 C 222.36 261.84 222.95 261.16 223.54 260.49 C 217.03 254.52 213.17 245.60 213.48 236.75 C 213.53 232.17 216.69 227.89 214.98 223.29 C 215.25 222.96 215.78 222.31 216.04 221.99 C 216.70 222.98 217.37 223.97 218.03 224.97 Z" />
</g>
<g id="#737474ff">
<path fill="#737474" opacity="1.00" d=" M 247.38 222.45 C 256.28 221.50 265.09 225.61 271.29 231.85 C 270.47 233.13 269.66 234.41 268.85 235.69 C 269.80 237.07 270.76 238.45 271.71 239.83 C 270.78 240.83 269.85 241.82 268.93 242.82 C 267.73 240.97 266.56 239.10 265.32 237.28 C 261.05 230.11 251.87 228.45 244.18 228.30 C 242.77 228.24 241.36 228.17 239.96 228.09 C 241.98 225.74 243.99 222.73 247.38 222.45 Z" />
</g>
<g id="#525351ff">
<path fill="#525351" opacity="1.00" d=" M 160.75 224.74 C 164.62 223.15 168.58 224.22 172.39 225.33 C 177.68 225.75 183.23 223.97 188.31 226.33 C 184.13 227.66 179.39 228.88 176.76 232.71 C 173.87 236.63 175.10 241.72 174.36 246.22 C 173.05 246.31 171.74 246.23 170.43 246.18 C 172.74 247.35 174.93 248.74 177.08 250.20 C 174.39 250.16 171.73 249.67 169.28 248.53 C 169.43 249.86 169.58 251.19 169.66 252.53 C 168.49 256.71 166.74 260.70 165.73 264.92 C 162.49 264.05 158.58 263.76 157.30 260.08 C 156.36 260.21 155.43 260.34 154.49 260.47 C 154.59 262.88 154.60 265.36 155.49 267.64 C 156.29 269.66 158.32 270.74 159.93 272.05 C 161.56 271.03 163.19 270.02 164.82 269.00 C 164.19 271.74 163.41 274.44 162.70 277.16 C 159.61 277.27 156.52 276.40 154.13 274.40 C 153.94 267.49 151.58 260.76 148.16 254.80 C 148.25 251.13 150.47 247.96 151.65 244.58 C 153.90 251.14 161.89 254.67 168.39 252.95 C 164.56 251.38 160.28 250.85 156.80 248.49 C 160.25 244.22 158.68 238.75 158.30 233.82 C 157.14 235.14 155.98 236.45 154.79 237.74 C 154.79 237.26 154.78 236.30 154.77 235.82 C 155.26 234.09 155.86 232.39 156.44 230.69 C 158.03 231.00 159.05 229.48 159.33 228.13 C 159.77 226.98 160.27 225.87 160.75 224.74 Z" />
</g>
<g id="#575654ff">
<path fill="#575654" opacity="1.00" d=" M 203.18 233.25 C 208.57 232.46 211.36 226.81 214.98 223.29 C 216.69 227.89 213.53 232.17 213.48 236.75 C 213.17 245.60 217.03 254.52 223.54 260.49 C 222.95 261.16 222.36 261.84 221.78 262.52 C 223.21 263.81 225.49 264.82 225.24 267.10 C 225.30 272.34 226.23 278.01 230.28 281.73 C 235.49 286.52 242.26 289.05 248.41 292.37 C 245.41 294.33 241.83 293.93 238.52 293.18 C 239.65 295.05 240.73 296.96 241.78 298.88 C 241.64 299.29 241.34 300.12 241.20 300.53 L 241.80 301.09 C 242.73 301.95 243.68 302.80 244.62 303.65 C 242.11 304.45 239.60 305.27 237.12 306.18 C 237.67 304.30 238.22 302.43 238.76 300.56 C 237.76 299.87 236.77 299.19 235.78 298.51 C 234.13 297.33 232.51 296.13 230.85 294.97 C 228.57 293.33 226.06 291.95 224.11 289.91 C 222.30 287.59 221.68 284.61 221.01 281.81 C 220.98 278.21 221.34 274.63 221.90 271.08 C 221.95 270.76 222.03 270.11 222.07 269.78 C 222.95 267.06 220.61 265.08 219.10 263.16 C 217.32 259.06 214.10 255.88 211.99 251.99 C 209.72 246.50 209.27 240.46 207.33 234.85 C 205.94 234.33 204.56 233.81 203.18 233.25 M 223.13 277.78 C 223.23 282.27 224.81 286.87 228.13 289.99 C 229.95 291.79 232.67 291.64 235.01 291.97 C 234.96 291.32 234.84 290.02 234.78 289.37 C 232.65 288.61 230.14 288.23 228.66 286.35 C 226.46 283.72 225.72 280.11 223.13 277.78 Z" />
<path fill="#575654" opacity="1.00" d=" M 315.00 302.88 C 318.37 302.70 321.62 304.02 325.00 303.95 C 333.00 303.83 341.19 301.07 349.07 303.65 C 346.07 303.35 343.02 302.91 340.03 303.43 C 336.78 305.78 334.24 309.00 331.59 311.99 C 330.76 310.45 329.92 308.92 329.09 307.39 C 326.84 308.30 324.60 309.22 322.38 310.18 C 323.78 312.84 326.11 314.85 329.25 314.84 C 324.55 318.61 319.56 322.63 313.47 323.72 C 310.41 324.35 307.40 323.18 304.34 323.34 C 301.83 323.47 299.33 323.63 296.83 323.86 C 297.25 323.71 298.08 323.43 298.50 323.29 C 300.05 322.73 301.58 322.14 303.12 321.56 C 302.52 319.99 302.03 318.36 301.11 316.94 C 299.41 315.34 297.16 314.55 295.13 313.48 L 295.19 312.45 L 295.24 311.64 C 295.34 310.39 295.40 309.13 295.46 307.88 C 296.80 306.07 298.14 304.25 299.46 302.43 C 302.53 302.88 305.38 304.16 307.66 306.27 C 310.06 305.06 312.38 303.59 315.00 302.88 M 309.19 310.04 C 307.05 313.02 307.50 317.11 306.94 320.62 C 311.66 319.04 316.55 317.93 321.05 315.74 C 321.00 313.54 320.71 310.85 318.40 309.86 C 315.40 309.15 312.15 309.20 309.19 310.04 Z" />
</g>
<g id="#838483ff">
<path fill="#838483" opacity="1.00" d=" M 227.87 232.84 C 229.54 230.11 232.05 228.05 234.29 225.81 C 234.49 226.69 234.69 227.58 234.89 228.47 C 235.96 228.93 237.03 229.40 238.10 229.88 C 233.06 233.59 229.09 238.59 227.10 244.57 C 226.70 243.67 226.28 242.77 225.85 241.89 C 226.43 238.86 226.55 235.67 227.87 232.84 Z" />
</g>
<g id="#74746dff">
<path fill="#74746d" opacity="1.00" d=" M 176.76 232.71 C 179.39 228.88 184.13 227.66 188.31 226.33 C 193.35 228.46 198.15 231.11 203.18 233.25 C 204.56 233.81 205.94 234.33 207.33 234.85 C 209.27 240.46 209.72 246.50 211.99 251.99 C 214.10 255.88 217.32 259.06 219.10 263.16 C 215.12 260.78 212.19 257.12 209.60 253.34 C 206.36 249.00 207.55 242.95 204.20 238.63 C 203.37 240.88 202.67 243.23 202.82 245.65 C 201.65 246.08 200.47 246.50 199.30 246.94 C 196.55 243.32 191.11 242.89 187.55 245.56 C 186.99 246.63 186.47 247.73 186.00 248.85 C 186.10 251.84 186.45 254.81 186.80 257.78 C 184.90 258.20 183.01 258.63 181.13 259.08 C 181.04 258.63 180.86 257.74 180.77 257.30 C 181.08 255.60 181.44 253.91 181.79 252.22 C 180.56 251.70 179.33 251.17 178.11 250.65 C 177.85 250.54 177.33 250.31 177.08 250.20 C 174.93 248.74 172.74 247.35 170.43 246.18 C 171.74 246.23 173.05 246.31 174.36 246.22 C 175.10 241.72 173.87 236.63 176.76 232.71 M 177.81 246.06 C 179.67 248.19 181.92 249.93 184.37 251.34 C 184.33 248.20 184.39 245.06 184.60 241.94 C 183.65 241.63 182.69 241.34 181.81 240.88 C 182.00 239.15 182.36 237.44 182.67 235.73 C 180.67 238.98 179.07 242.46 177.81 246.06 Z" />
</g>
<g id="#232423d0">
<path fill="#232423" opacity="0.82" d=" M 156.44 230.69 C 156.69 229.32 157.80 227.93 159.33 228.13 C 159.05 229.48 158.03 231.00 156.44 230.69 Z" />
</g>
<g id="#524d47ff">
<path fill="#524d47" opacity="1.00" d=" M 244.18 228.30 C 251.87 228.45 261.05 230.11 265.32 237.28 C 261.95 235.97 258.89 233.79 255.36 232.95 C 251.40 233.32 247.55 234.55 243.75 235.69 C 238.51 237.43 235.18 242.15 232.81 246.88 C 232.06 248.04 231.30 249.20 230.55 250.37 C 228.84 248.80 227.91 246.68 227.10 244.57 C 229.09 238.59 233.06 233.59 238.10 229.88 C 240.09 229.22 242.12 228.70 244.18 228.30 Z" />
</g>
<g id="#828379ff">
<path fill="#828379" opacity="1.00" d=" M 293.87 239.01 C 293.83 235.47 292.82 231.43 295.51 228.55 C 296.89 229.57 298.32 230.54 299.76 231.49 C 301.76 232.80 303.85 233.95 305.82 235.31 C 306.66 236.25 307.49 237.22 308.31 238.19 C 306.57 242.96 304.37 247.64 303.78 252.74 C 303.37 255.35 302.94 257.95 302.52 260.56 C 298.39 261.53 294.22 262.36 290.01 262.91 C 290.42 260.22 290.89 257.54 291.63 254.93 C 292.04 256.09 292.46 257.24 292.88 258.40 C 295.16 258.44 297.81 259.32 299.81 257.80 C 301.72 256.49 301.56 253.94 301.72 251.90 C 301.74 248.26 301.91 244.54 300.99 240.98 C 300.38 238.56 298.06 237.28 296.28 235.80 C 295.47 236.87 294.67 237.94 293.87 239.01 Z" />
</g>
<g id="#656665ff">
<path fill="#656665" opacity="1.00" d=" M 299.76 231.49 C 304.00 231.29 308.36 231.47 312.13 233.67 C 313.57 232.65 314.81 230.62 316.84 231.16 C 318.47 232.45 321.27 233.47 321.16 235.94 C 320.67 237.66 319.85 239.25 319.17 240.90 C 316.91 246.07 317.22 251.93 315.07 257.14 C 314.49 259.42 311.83 259.64 309.93 260.12 C 311.37 254.22 313.15 248.36 313.97 242.33 C 314.36 239.55 312.87 236.93 310.81 235.18 C 309.14 235.12 307.48 235.19 305.82 235.31 C 303.85 233.95 301.76 232.80 299.76 231.49 Z" />
</g>
<g id="#4e4e4bff">
<path fill="#4e4e4b" opacity="1.00" d=" M 316.84 231.16 C 320.00 232.02 323.20 233.11 325.86 235.11 C 328.15 236.86 329.72 239.33 331.82 241.29 C 333.35 242.31 335.24 242.59 336.98 243.13 C 336.63 243.04 335.91 242.88 335.55 242.80 C 336.19 243.76 336.84 244.73 337.49 245.69 C 335.87 246.03 334.25 246.37 332.63 246.70 C 332.31 250.32 332.36 253.95 332.80 257.56 C 333.43 262.76 333.03 268.00 332.97 273.23 C 329.92 273.01 327.13 271.72 324.46 270.34 C 325.59 268.66 326.65 266.92 327.70 265.19 C 326.50 264.13 325.31 263.07 324.11 262.01 C 326.25 259.10 328.99 256.32 329.70 252.66 C 330.08 249.07 327.48 246.19 325.65 243.40 C 323.09 244.81 319.90 245.79 318.41 248.49 C 317.17 251.92 317.75 255.70 316.76 259.19 C 314.27 261.97 309.86 262.23 307.76 265.53 C 310.31 266.06 312.88 266.50 315.46 266.95 C 313.75 268.82 311.93 270.56 310.04 272.23 C 313.48 272.63 316.94 272.76 320.40 272.54 C 320.58 273.32 320.77 274.10 320.96 274.88 C 316.49 277.91 311.21 279.33 306.00 280.46 C 305.43 280.20 304.29 279.68 303.72 279.42 C 304.54 279.36 306.17 279.25 306.99 279.19 C 305.52 277.97 304.05 276.77 302.57 275.57 C 302.96 273.77 303.36 271.96 303.77 270.16 C 302.53 270.20 301.29 270.23 300.06 270.27 C 299.80 273.54 300.00 277.07 302.85 279.21 C 302.21 279.08 300.94 278.82 300.31 278.68 C 298.77 280.58 297.21 282.45 295.60 284.28 C 296.16 285.28 296.70 286.30 297.27 287.30 C 296.13 289.52 295.46 292.65 292.69 293.37 C 294.11 290.26 294.97 286.87 293.31 283.67 C 294.98 281.60 295.95 279.13 296.13 276.47 C 294.31 275.86 292.50 275.26 290.70 274.62 C 289.55 271.86 287.37 269.81 284.47 268.97 C 285.19 268.17 285.94 267.37 286.68 266.58 C 286.61 264.82 286.53 263.06 286.46 261.30 C 287.02 260.83 287.58 260.35 288.15 259.88 C 288.73 262.14 288.47 265.05 290.30 266.72 C 294.89 266.72 298.94 263.80 303.45 263.04 C 303.64 259.61 303.65 256.17 303.78 252.74 C 304.37 247.64 306.57 242.96 308.31 238.19 C 307.49 237.22 306.66 236.25 305.82 235.31 C 307.48 235.19 309.14 235.12 310.81 235.18 C 310.97 243.80 311.05 252.91 306.53 260.60 C 307.66 260.45 308.79 260.30 309.93 260.12 C 311.83 259.64 314.49 259.42 315.07 257.14 C 317.22 251.93 316.91 246.07 319.17 240.90 C 319.85 239.25 320.67 237.66 321.16 235.94 C 321.27 233.47 318.47 232.45 316.84 231.16 Z" />
<path fill="#4e4e4b" opacity="1.00" d=" M 349.72 304.21 C 351.20 305.53 352.87 306.87 355.00 306.71 C 363.36 306.74 371.94 307.97 380.05 305.24 C 381.33 305.45 382.61 305.70 383.89 306.00 C 381.72 306.94 379.51 307.79 377.24 308.43 C 374.36 308.16 371.46 308.03 368.62 308.59 C 368.03 308.67 366.84 308.84 366.25 308.92 C 361.10 309.12 356.11 307.84 351.07 307.05 C 350.63 306.09 350.18 305.15 349.72 304.21 Z" />
</g>
<g id="#3d3e3cff">
<path fill="#3d3e3c" opacity="1.00" d=" M 154.79 237.74 C 155.98 236.45 157.14 235.14 158.30 233.82 C 158.68 238.75 160.25 244.22 156.80 248.49 C 155.14 246.98 153.56 245.37 151.96 243.80 C 153.03 241.19 153.96 238.52 154.77 235.82 C 154.78 236.30 154.79 237.26 154.79 237.74 Z" />
</g>
<g id="#999a9eff">
<path fill="#999a9e" opacity="1.00" d=" M 310.81 235.18 C 312.87 236.93 314.36 239.55 313.97 242.33 C 313.15 248.36 311.37 254.22 309.93 260.12 C 308.79 260.30 307.66 260.45 306.53 260.60 C 311.05 252.91 310.97 243.80 310.81 235.18 Z" />
</g>
<g id="#5d5b59ff">
<path fill="#5d5b59" opacity="1.00" d=" M 177.81 246.06 C 179.07 242.46 180.67 238.98 182.67 235.73 C 182.36 237.44 182.00 239.15 181.81 240.88 C 182.69 241.34 183.65 241.63 184.60 241.94 C 184.39 245.06 184.33 248.20 184.37 251.34 C 181.92 249.93 179.67 248.19 177.81 246.06 Z" />
</g>
<g id="#92938aff">
<path fill="#92938a" opacity="1.00" d=" M 293.87 239.01 C 294.67 237.94 295.47 236.87 296.28 235.80 C 298.06 237.28 300.38 238.56 300.99 240.98 C 301.91 244.54 301.74 248.26 301.72 251.90 C 301.56 253.94 301.72 256.49 299.81 257.80 C 297.81 259.32 295.16 258.44 292.88 258.40 C 292.46 257.24 292.04 256.09 291.63 254.93 C 293.33 249.81 294.18 244.42 293.87 239.01 Z" />
</g>
<g id="#8f8b83ff">
<path fill="#8f8b83" opacity="1.00" d=" M 204.20 238.63 C 207.55 242.95 206.36 249.00 209.60 253.34 C 212.19 257.12 215.12 260.78 219.10 263.16 C 220.61 265.08 222.95 267.06 222.07 269.78 C 217.94 266.29 213.46 263.17 209.95 259.01 C 206.54 255.20 204.65 250.36 202.82 245.65 C 202.67 243.23 203.37 240.88 204.20 238.63 Z" />
</g>
<g id="#929189ff">
<path fill="#929189" opacity="1.00" d=" M 236.41 245.06 C 238.31 244.14 240.19 243.19 242.10 242.30 C 243.92 243.19 245.78 244.13 247.16 245.68 C 245.65 246.43 244.15 247.19 242.66 247.95 C 241.95 247.17 241.25 246.39 240.57 245.60 C 238.24 246.52 237.61 248.74 239.03 250.83 C 243.04 257.40 249.94 261.43 255.62 266.40 C 259.30 270.00 262.63 264.59 266.16 263.56 C 270.11 263.69 273.62 266.01 275.96 269.09 C 275.10 269.37 274.25 269.66 273.41 269.94 C 273.44 272.73 274.27 275.44 276.55 277.22 C 273.11 277.76 269.40 278.41 267.17 281.38 C 268.36 282.67 269.55 283.98 270.73 285.29 C 262.61 283.69 254.93 280.46 247.74 276.43 C 247.19 277.59 246.65 278.76 246.11 279.93 C 250.73 283.25 256.13 285.13 261.27 287.46 C 257.70 287.02 254.10 286.80 250.51 286.54 C 245.58 286.26 241.44 283.20 237.44 280.61 C 234.08 278.26 230.24 275.37 229.87 270.95 C 229.41 261.74 236.17 254.16 236.41 245.06 Z" />
</g>
<g id="#3f3c3aff">
<path fill="#3f3c3a" opacity="1.00" d=" M 318.41 248.49 C 319.90 245.79 323.09 244.81 325.65 243.40 C 327.48 246.19 330.08 249.07 329.70 252.66 C 328.99 256.32 326.25 259.10 324.11 262.01 C 325.31 263.07 326.50 264.13 327.70 265.19 C 326.65 266.92 325.59 268.66 324.46 270.34 C 323.35 271.90 322.20 273.43 320.96 274.88 C 320.77 274.10 320.58 273.32 320.40 272.54 C 316.94 272.76 313.48 272.63 310.04 272.23 C 311.93 270.56 313.75 268.82 315.46 266.95 C 312.88 266.50 310.31 266.06 307.76 265.53 C 309.86 262.23 314.27 261.97 316.76 259.19 C 317.75 255.70 317.17 251.92 318.41 248.49 Z" />
</g>
<g id="#5c5b58ff">
<path fill="#5c5b58" opacity="1.00" d=" M 335.55 242.80 C 335.91 242.88 336.63 243.04 336.98 243.13 C 344.84 245.57 353.72 244.54 360.91 248.99 C 360.36 249.74 359.82 250.50 359.29 251.27 C 360.51 252.82 361.75 254.38 363.00 255.93 C 361.37 255.32 359.69 254.58 357.92 254.69 C 356.29 256.74 354.73 258.97 352.01 259.62 C 349.55 257.34 346.79 254.24 343.11 254.64 C 339.79 255.66 338.10 259.06 336.41 261.82 C 334.58 265.38 333.92 269.36 333.72 273.32 L 332.97 273.23 C 333.03 268.00 333.43 262.76 332.80 257.56 C 332.36 253.95 332.31 250.32 332.63 246.70 C 334.25 246.37 335.87 246.03 337.49 245.69 C 336.84 244.73 336.19 243.76 335.55 242.80 M 339.74 246.95 C 340.20 248.16 340.41 249.56 341.30 250.57 C 342.67 250.76 344.05 250.70 345.43 250.70 C 343.83 249.04 341.91 247.74 339.74 246.95 Z" />
</g>
<g id="#726f68ff">
<path fill="#726f68" opacity="1.00" d=" M 151.96 243.80 C 153.56 245.37 155.14 246.98 156.80 248.49 C 160.28 250.85 164.56 251.38 168.39 252.95 C 161.89 254.67 153.90 251.14 151.65 244.58 L 151.96 243.80 Z" />
</g>
<g id="#50514eff">
<path fill="#50514e" opacity="1.00" d=" M 187.55 245.56 C 191.11 242.89 196.55 243.32 199.30 246.94 C 198.43 247.28 197.57 247.62 196.70 247.97 C 197.47 249.67 198.23 251.36 198.97 253.07 C 195.20 250.52 191.48 247.88 187.55 245.56 Z" />
</g>
<g id="#5f615aff">
<path fill="#5f615a" opacity="1.00" d=" M 199.30 246.94 C 200.47 246.50 201.65 246.08 202.82 245.65 C 204.65 250.36 206.54 255.20 209.95 259.01 C 213.46 263.17 217.94 266.29 222.07 269.78 C 222.03 270.11 221.95 270.76 221.90 271.08 C 216.73 268.36 212.18 264.68 207.72 260.95 C 205.17 264.14 204.39 268.18 203.71 272.09 C 201.48 269.45 199.12 266.92 196.96 264.23 L 196.91 263.50 C 197.94 261.05 198.94 258.59 199.92 256.12 C 197.07 254.15 193.89 252.74 190.54 251.89 C 190.84 253.11 191.14 254.33 191.45 255.56 C 190.92 255.35 189.88 254.93 189.35 254.72 C 189.04 252.61 188.73 250.51 188.43 248.42 C 187.62 248.56 186.81 248.70 186.00 248.85 C 186.47 247.73 186.99 246.63 187.55 245.56 C 191.48 247.88 195.20 250.52 198.97 253.07 C 198.23 251.36 197.47 249.67 196.70 247.97 C 197.57 247.62 198.43 247.28 199.30 246.94 Z" />
</g>
<g id="#b1b4b0ff">
<path fill="#b1b4b0" opacity="1.00" d=" M 242.66 247.95 C 244.15 247.19 245.65 246.43 247.16 245.68 C 247.90 247.21 248.58 248.77 249.28 250.33 C 246.59 251.72 244.31 250.07 242.66 247.95 Z" />
</g>
<g id="#7f7f7eff">
<path fill="#7f7f7e" opacity="1.00" d=" M 339.74 246.95 C 341.91 247.74 343.83 249.04 345.43 250.70 C 344.05 250.70 342.67 250.76 341.30 250.57 C 340.41 249.56 340.20 248.16 339.74 246.95 Z" />
</g>
<g id="#7f7e7dff">
<path fill="#7f7e7d" opacity="1.00" d=" M 169.28 248.53 C 171.73 249.67 174.39 250.16 177.08 250.20 C 177.33 250.31 177.85 250.54 178.11 250.65 C 178.29 253.11 179.33 255.33 180.77 257.30 C 180.86 257.74 181.04 258.63 181.13 259.08 C 181.57 260.47 181.38 262.38 182.88 263.16 C 187.38 265.91 192.52 267.42 197.05 270.13 C 197.01 271.30 196.97 272.47 196.93 273.65 C 194.12 272.16 191.27 270.74 188.40 269.39 C 187.26 270.67 186.13 271.96 184.99 273.25 C 183.42 272.61 181.83 272.06 180.23 271.51 C 181.71 270.94 183.18 270.37 184.66 269.79 C 181.83 268.24 178.88 266.94 175.83 265.91 C 176.58 264.13 177.57 262.48 178.52 260.81 C 177.59 259.67 176.66 258.53 175.72 257.42 C 173.99 255.46 171.79 254.01 169.66 252.53 C 169.58 251.19 169.43 249.86 169.28 248.53 Z" />
</g>
<g id="#474849ff">
<path fill="#474849" opacity="1.00" d=" M 186.00 248.85 C 186.81 248.70 187.62 248.56 188.43 248.42 C 188.73 250.51 189.04 252.61 189.35 254.72 C 189.88 254.93 190.92 255.35 191.45 255.56 C 191.14 254.33 190.84 253.11 190.54 251.89 C 193.89 252.74 197.07 254.15 199.92 256.12 C 198.94 258.59 197.94 261.05 196.91 263.50 C 193.95 261.39 191.01 259.25 188.08 257.12 C 190.39 261.21 191.10 267.56 196.78 268.25 C 196.86 266.91 196.92 265.57 196.96 264.23 C 199.12 266.92 201.48 269.45 203.71 272.09 C 206.65 275.55 209.89 278.74 212.87 282.16 C 210.07 281.14 207.37 279.87 204.90 278.21 C 202.63 275.21 200.31 272.13 197.05 270.13 C 192.52 267.42 187.38 265.91 182.88 263.16 C 181.38 262.38 181.57 260.47 181.13 259.08 C 183.01 258.63 184.90 258.20 186.80 257.78 C 186.45 254.81 186.10 251.84 186.00 248.85 Z" />
</g>
<g id="#757573ff">
<path fill="#757573" opacity="1.00" d=" M 274.82 249.45 C 277.15 249.83 279.55 249.68 281.85 250.21 C 283.33 251.46 284.46 253.06 285.68 254.56 C 286.08 253.40 286.48 252.25 286.90 251.09 C 287.05 252.86 287.27 254.62 287.52 256.38 C 286.07 256.66 284.62 256.96 283.18 257.26 C 283.74 259.74 284.23 262.24 284.54 264.76 C 280.78 263.35 276.96 261.26 275.79 257.12 C 277.27 257.57 278.75 258.05 280.24 258.53 C 279.62 254.89 277.64 251.78 274.82 249.45 Z" />
</g>
<g id="#414244ff">
<path fill="#414244" opacity="1.00" d=" M 360.91 248.99 C 365.79 252.32 369.92 257.16 371.04 263.10 C 371.85 267.19 369.13 270.69 367.03 273.89 C 365.85 272.99 364.70 272.07 363.55 271.16 C 364.81 269.18 366.43 267.28 366.85 264.91 C 367.11 261.48 365.05 258.47 363.00 255.93 C 361.75 254.38 360.51 252.82 359.29 251.27 C 359.82 250.50 360.36 249.74 360.91 248.99 Z" />
</g>
<g id="#515254ff">
<path fill="#515254" opacity="1.00" d=" M 178.11 250.65 C 179.33 251.17 180.56 251.70 181.79 252.22 C 181.44 253.91 181.08 255.60 180.77 257.30 C 179.33 255.33 178.29 253.11 178.11 250.65 Z" />
</g>
<g id="#323334ff">
<path fill="#323334" opacity="1.00" d=" M 165.73 264.92 C 166.74 260.70 168.49 256.71 169.66 252.53 C 171.79 254.01 173.99 255.46 175.72 257.42 C 171.32 260.45 172.83 266.43 170.58 270.68 C 169.24 274.05 165.87 275.84 162.70 277.16 C 163.41 274.44 164.19 271.74 164.82 269.00 C 165.11 267.64 165.42 266.28 165.73 264.92 Z" />
</g>
<g id="#726e6cff">
<path fill="#726e6c" opacity="1.00" d=" M 357.92 254.69 C 359.69 254.58 361.37 255.32 363.00 255.93 C 365.05 258.47 367.11 261.48 366.85 264.91 C 366.43 267.28 364.81 269.18 363.55 271.16 C 362.67 270.45 361.81 269.75 360.96 269.04 C 362.03 267.64 363.23 266.35 364.50 265.12 C 364.50 263.86 364.50 262.60 364.49 261.34 C 361.54 261.60 359.22 263.51 357.04 265.33 C 355.32 263.46 353.75 261.46 352.01 259.62 C 354.73 258.97 356.29 256.74 357.92 254.69 Z" />
</g>
<g id="#3a3c3ffe">
<path fill="#3a3c3f" opacity="1.00" d=" M 148.16 254.80 C 151.58 260.76 153.94 267.49 154.13 274.40 C 151.68 271.84 149.94 268.74 148.38 265.59 C 148.43 261.99 148.11 258.40 148.16 254.80 Z" />
</g>
<g id="#eab897ff">
<path fill="#eab897" opacity="1.00" d=" M 336.41 261.82 C 338.10 259.06 339.79 255.66 343.11 254.64 C 346.79 254.24 349.55 257.34 352.01 259.62 C 353.75 261.46 355.32 263.46 357.04 265.33 C 358.27 266.64 359.58 267.87 360.96 269.04 C 361.81 269.75 362.67 270.45 363.55 271.16 C 364.70 272.07 365.85 272.99 367.03 273.89 C 367.97 274.60 368.91 275.29 369.87 275.98 C 372.49 277.84 375.10 279.71 377.76 281.52 C 374.09 284.15 369.51 283.57 365.29 283.27 C 360.28 282.11 354.74 281.78 350.61 278.37 C 344.93 273.82 337.81 269.61 336.41 261.82 Z" />
</g>
<g id="#2c2e30ff">
<path fill="#2c2e30" opacity="1.00" d=" M 188.08 257.12 C 191.01 259.25 193.95 261.39 196.91 263.50 L 196.96 264.23 C 196.92 265.57 196.86 266.91 196.78 268.25 C 191.10 267.56 190.39 261.21 188.08 257.12 Z" />
</g>
<g id="#00000024">
<path fill="#000000" opacity="0.14" d=" M 170.58 270.68 C 172.83 266.43 171.32 260.45 175.72 257.42 C 176.66 258.53 177.59 259.67 178.52 260.81 C 177.57 262.48 176.58 264.13 175.83 265.91 C 175.73 267.32 175.70 268.74 175.65 270.17 C 170.32 275.73 171.28 284.11 167.46 290.46 C 165.61 293.57 164.29 296.95 163.77 300.54 C 161.46 297.96 158.57 295.89 156.73 292.90 C 154.90 289.90 151.74 287.76 150.80 284.24 C 149.06 278.21 147.52 271.90 148.38 265.59 C 149.94 268.74 151.68 271.84 154.13 274.40 C 156.52 276.40 159.61 277.27 162.70 277.16 C 165.87 275.84 169.24 274.05 170.58 270.68 Z" />
</g>
<g id="#7d7c7fff">
<path fill="#7d7c7f" opacity="1.00" d=" M 154.49 260.47 C 155.43 260.34 156.36 260.21 157.30 260.08 C 158.58 263.76 162.49 264.05 165.73 264.92 C 165.42 266.28 165.11 267.64 164.82 269.00 C 163.19 270.02 161.56 271.03 159.93 272.05 C 158.32 270.74 156.29 269.66 155.49 267.64 C 154.60 265.36 154.59 262.88 154.49 260.47 Z" />
</g>
<g id="#82837bff">
<path fill="#82837b" opacity="1.00" d=" M 207.72 260.95 C 212.18 264.68 216.73 268.36 221.90 271.08 C 221.34 274.63 220.98 278.21 221.01 281.81 C 219.97 282.77 218.94 283.73 217.91 284.70 C 216.50 284.32 215.09 283.95 213.69 283.57 C 215.33 285.84 216.97 288.18 217.60 290.95 C 215.30 288.94 213.17 286.75 211.01 284.60 C 207.54 286.48 203.66 286.23 200.24 284.38 C 200.86 283.50 201.48 282.63 202.10 281.76 C 200.73 279.49 199.39 277.20 198.09 274.89 C 200.40 275.91 202.70 276.96 204.90 278.21 C 207.37 279.87 210.07 281.14 212.87 282.16 C 209.89 278.74 206.65 275.55 203.71 272.09 C 204.39 268.18 205.17 264.14 207.72 260.95 Z" />
</g>
<g id="#8e8d90ff">
<path fill="#8e8d90" opacity="1.00" d=" M 357.04 265.33 C 359.22 263.51 361.54 261.60 364.49 261.34 C 364.50 262.60 364.50 263.86 364.50 265.12 C 363.23 266.35 362.03 267.64 360.96 269.04 C 359.58 267.87 358.27 266.64 357.04 265.33 Z" />
</g>
<g id="#cc9d80ff">
<path fill="#cc9d80" opacity="1.00" d=" M 333.72 273.32 C 333.92 269.36 334.58 265.38 336.41 261.82 C 337.81 269.61 344.93 273.82 350.61 278.37 C 354.74 281.78 360.28 282.11 365.29 283.27 C 359.46 283.05 353.14 283.61 347.95 280.44 C 347.60 280.18 346.90 279.67 346.55 279.41 C 344.74 278.03 342.96 276.62 341.04 275.39 C 339.65 274.77 338.23 274.24 336.79 273.78 C 335.77 273.58 334.74 273.45 333.72 273.32 Z" />
</g>
<g id="#555655ff">
<path fill="#555655" opacity="1.00" d=" M 175.83 265.91 C 178.88 266.94 181.83 268.24 184.66 269.79 C 183.18 270.37 181.71 270.94 180.23 271.51 C 181.83 272.06 183.42 272.61 184.99 273.25 C 191.87 277.64 196.96 284.20 203.09 289.51 C 204.40 289.14 205.70 288.78 207.01 288.41 C 209.81 292.03 212.15 295.98 214.40 299.96 C 216.26 297.58 218.12 295.19 219.98 292.81 C 221.32 293.61 222.66 294.41 224.00 295.22 C 223.28 297.71 222.48 300.18 221.87 302.71 C 219.62 302.54 217.38 302.43 215.13 302.37 C 215.25 306.28 219.08 308.00 221.84 309.99 C 220.79 310.43 219.75 310.87 218.71 311.33 C 213.82 309.77 208.70 308.87 203.95 306.92 C 201.56 304.73 200.01 301.82 198.04 299.27 C 200.01 294.55 196.96 289.58 194.16 285.91 C 190.02 282.20 186.81 276.49 180.70 276.00 C 179.11 273.98 177.38 272.07 175.65 270.17 C 175.70 268.74 175.73 267.32 175.83 265.91 Z" />
</g>
<g id="#646363ff">
<path fill="#646363" opacity="1.00" d=" M 188.40 269.39 C 191.27 270.74 194.12 272.16 196.93 273.65 C 196.97 272.47 197.01 271.30 197.05 270.13 C 200.31 272.13 202.63 275.21 204.90 278.21 C 202.70 276.96 200.40 275.91 198.09 274.89 C 199.39 277.20 200.73 279.49 202.10 281.76 C 201.48 282.63 200.86 283.50 200.24 284.38 C 203.66 286.23 207.54 286.48 211.01 284.60 C 213.17 286.75 215.30 288.94 217.60 290.95 C 216.97 288.18 215.33 285.84 213.69 283.57 C 215.09 283.95 216.50 284.32 217.91 284.70 C 218.94 283.73 219.97 282.77 221.01 281.81 C 221.68 284.61 222.30 287.59 224.11 289.91 C 226.06 291.95 228.57 293.33 230.85 294.97 C 228.51 296.23 225.97 297.33 224.14 299.33 C 223.64 301.48 223.90 303.71 223.93 305.90 C 224.68 306.01 226.20 306.22 226.95 306.33 C 225.40 306.61 223.83 306.80 222.27 307.01 C 222.10 305.58 221.97 304.14 221.87 302.71 C 222.48 300.18 223.28 297.71 224.00 295.22 C 222.66 294.41 221.32 293.61 219.98 292.81 C 218.12 295.19 216.26 297.58 214.40 299.96 C 212.15 295.98 209.81 292.03 207.01 288.41 C 205.70 288.78 204.40 289.14 203.09 289.51 C 196.96 284.20 191.87 277.64 184.99 273.25 C 186.13 271.96 187.26 270.67 188.40 269.39 Z" />
</g>
<g id="#626479ff">
<path fill="#626479" opacity="1.00" d=" M 284.47 268.97 C 287.37 269.81 289.55 271.86 290.70 274.62 C 292.50 275.26 294.31 275.86 296.13 276.47 C 295.95 279.13 294.98 281.60 293.31 283.67 C 294.97 286.87 294.11 290.26 292.69 293.37 C 292.33 293.32 291.59 293.23 291.22 293.18 C 290.17 293.03 289.12 292.88 288.07 292.74 C 288.60 295.47 289.45 298.13 290.16 300.82 C 289.94 301.10 289.49 301.66 289.26 301.95 C 291.21 301.86 293.15 301.77 295.11 301.79 C 293.77 302.92 292.74 304.70 290.96 305.14 C 289.01 304.91 287.14 304.22 285.20 303.96 C 282.83 305.07 280.98 306.99 278.94 308.59 C 278.33 308.59 277.11 308.61 276.50 308.62 C 275.01 306.95 273.41 305.37 271.80 303.83 C 273.34 302.35 274.75 300.62 276.70 299.65 C 278.64 299.08 280.69 299.74 282.65 299.93 C 281.97 298.79 281.30 297.66 280.63 296.53 C 281.59 295.62 282.55 294.72 283.51 293.82 C 283.00 290.91 283.01 287.82 281.74 285.11 C 280.62 284.03 279.27 283.22 278.01 282.33 C 280.73 279.16 282.46 275.27 282.67 271.06 C 283.26 270.36 283.86 269.66 284.47 268.97 M 293.39 279.06 C 293.56 282.38 296.36 277.50 293.39 279.06 M 288.16 286.29 C 287.77 287.68 288.27 288.18 289.67 287.79 C 290.06 286.38 289.56 285.88 288.16 286.29 M 287.20 301.16 C 287.77 301.73 287.77 301.73 287.20 301.16 M 278.22 303.54 C 277.32 304.58 277.69 306.75 279.16 307.08 C 281.23 306.81 280.13 302.57 278.22 303.54 Z" />
</g>
<g id="#6b696bff">
<path fill="#6b696b" opacity="1.00" d=" M 300.06 270.27 C 301.29 270.23 302.53 270.20 303.77 270.16 C 303.36 271.96 302.96 273.77 302.57 275.57 C 304.05 276.77 305.52 277.97 306.99 279.19 C 306.17 279.25 304.54 279.36 303.72 279.42 L 302.85 279.21 C 300.00 277.07 299.80 273.54 300.06 270.27 Z" />
</g>
<g id="#202226ff">
<path fill="#202226" opacity="1.00" d=" M 320.96 274.88 C 322.20 273.43 323.35 271.90 324.46 270.34 C 327.13 271.72 329.92 273.01 332.97 273.23 L 333.72 273.32 C 334.74 273.45 335.77 273.58 336.79 273.78 C 336.20 275.02 335.65 276.28 335.14 277.56 C 334.79 278.51 334.45 279.47 334.13 280.43 C 333.19 280.88 332.25 281.34 331.31 281.79 C 329.81 282.17 328.31 282.54 326.82 282.93 L 326.15 283.06 C 319.51 281.18 312.16 284.29 306.00 280.46 C 311.21 279.33 316.49 277.91 320.96 274.88 Z" />
</g>
<g id="#b7b6c0ff">
<path fill="#b7b6c0" opacity="1.00" d=" M 336.79 273.78 C 338.23 274.24 339.65 274.77 341.04 275.39 C 340.47 276.08 339.91 276.78 339.35 277.47 C 337.94 277.50 336.54 277.53 335.14 277.56 C 335.65 276.28 336.20 275.02 336.79 273.78 Z" />
</g>
<g id="#818379ff">
<path fill="#818379" opacity="1.00" d=" M 341.04 275.39 C 342.96 276.62 344.74 278.03 346.55 279.41 C 344.48 279.37 342.41 279.33 340.35 279.28 C 340.17 282.23 340.01 285.18 339.92 288.13 C 337.67 289.67 335.24 291.19 332.42 291.20 C 331.79 288.42 328.99 288.78 326.99 289.67 C 327.74 290.05 329.26 290.81 330.01 291.20 C 332.18 292.05 334.47 292.56 336.79 292.84 C 336.71 293.46 336.54 294.71 336.46 295.33 C 344.37 294.90 352.09 297.37 359.99 296.79 C 367.33 296.35 374.66 297.09 382.00 296.85 C 385.71 297.02 388.66 292.76 392.38 294.68 C 393.17 296.30 394.28 297.75 395.51 299.08 C 395.04 299.15 394.10 299.29 393.64 299.36 C 384.60 298.25 375.48 298.85 366.40 298.66 C 351.94 299.04 337.45 298.47 323.00 299.27 C 316.42 299.43 309.84 298.51 303.28 299.20 C 304.96 301.31 307.54 302.95 310.34 302.26 C 315.16 301.32 320.01 300.13 324.97 300.81 C 339.40 302.20 353.90 301.69 368.35 301.03 C 373.01 300.75 377.62 301.64 382.26 301.84 C 381.52 302.97 380.78 304.10 380.05 305.24 C 371.94 307.97 363.36 306.74 355.00 306.71 C 352.87 306.87 351.20 305.53 349.72 304.21 L 349.07 303.65 C 341.19 301.07 333.00 303.83 325.00 303.95 C 321.62 304.02 318.37 302.70 315.00 302.88 C 312.38 303.59 310.06 305.06 307.66 306.27 C 305.38 304.16 302.53 302.88 299.46 302.43 C 298.02 302.14 296.57 301.89 295.11 301.79 C 293.15 301.77 291.21 301.86 289.26 301.95 C 289.49 301.66 289.94 301.10 290.16 300.82 C 291.18 300.34 292.22 299.91 293.28 299.55 C 295.84 299.21 298.35 298.51 300.52 297.06 C 299.85 293.50 299.71 289.86 300.34 286.29 C 308.44 282.21 317.76 285.97 326.15 283.06 L 326.82 282.93 C 327.80 283.22 328.78 283.53 329.75 283.85 C 330.14 283.33 330.92 282.31 331.31 281.79 C 332.25 281.34 333.19 280.88 334.13 280.43 C 334.45 279.47 334.79 278.51 335.14 277.56 C 336.54 277.53 337.94 277.50 339.35 277.47 C 339.91 276.78 340.47 276.08 341.04 275.39 M 309.52 284.75 C 309.96 286.46 310.35 288.19 310.68 289.94 C 315.79 290.69 320.99 290.59 326.11 290.00 C 325.96 288.69 325.82 287.38 325.69 286.07 C 322.81 284.91 319.92 286.57 317.00 286.33 C 314.44 286.12 311.99 285.34 309.52 284.75 M 303.89 286.79 C 303.85 289.26 303.90 291.73 304.05 294.20 C 305.62 293.43 307.28 292.75 308.61 291.58 C 308.91 290.05 308.92 288.48 309.03 286.93 C 307.31 286.86 305.60 286.82 303.89 286.79 M 307.96 293.18 C 308.90 294.19 309.85 295.20 310.80 296.20 C 313.18 295.09 315.52 293.46 318.24 293.43 C 320.94 294.29 322.83 297.31 325.99 296.83 C 328.79 297.22 331.48 296.11 332.13 293.17 C 330.62 293.65 329.13 294.16 327.65 294.70 C 327.57 293.86 327.49 293.03 327.41 292.19 C 320.94 291.40 314.30 291.57 307.96 293.18 Z" />
</g>
<g id="#303130fe">
<path fill="#303130" opacity="1.00" d=" M 180.70 276.00 C 186.81 276.49 190.02 282.20 194.16 285.91 C 196.96 289.58 200.01 294.55 198.04 299.27 C 192.07 291.66 186.26 283.92 180.70 276.00 Z" />
</g>
<g id="#010101ca">
<path fill="#010101" opacity="0.79" d=" M 369.87 275.98 C 372.21 276.03 374.55 276.08 376.89 276.12 C 377.45 277.79 378.01 279.45 378.58 281.12 L 377.76 281.52 C 375.10 279.71 372.49 277.84 369.87 275.98 Z" />
<path fill="#010101" opacity="0.79" d=" M 295.60 284.28 C 297.21 282.45 298.77 280.58 300.31 278.68 C 300.94 278.82 302.21 279.08 302.85 279.21 L 303.72 279.42 C 304.29 279.68 305.43 280.20 306.00 280.46 C 312.16 284.29 319.51 281.18 326.15 283.06 C 317.76 285.97 308.44 282.21 300.34 286.29 C 299.32 286.63 298.29 286.97 297.27 287.30 C 296.70 286.30 296.16 285.28 295.60 284.28 Z" />
<path fill="#010101" opacity="0.79" d=" M 254.65 308.56 C 258.24 308.24 261.76 309.16 265.21 310.04 C 274.97 312.92 285.24 311.39 295.24 311.64 L 295.19 312.45 C 284.86 312.19 274.52 312.78 264.23 311.71 C 260.67 311.50 257.09 311.17 253.61 310.40 C 253.87 309.94 254.39 309.02 254.65 308.56 Z" />
</g>
<g id="#252627ff">
<path fill="#252627" opacity="1.00" d=" M 223.13 277.78 C 225.72 280.11 226.46 283.72 228.66 286.35 C 230.14 288.23 232.65 288.61 234.78 289.37 C 234.84 290.02 234.96 291.32 235.01 291.97 C 232.67 291.64 229.95 291.79 228.13 289.99 C 224.81 286.87 223.23 282.27 223.13 277.78 Z" />
</g>
<g id="#c1bfcbff">
<path fill="#c1bfcb" opacity="1.00" d=" M 293.39 279.06 C 296.36 277.50 293.56 282.38 293.39 279.06 Z" />
</g>
<g id="#cecfddff">
<path fill="#cecfdd" opacity="1.00" d=" M 340.35 279.28 C 342.41 279.33 344.48 279.37 346.55 279.41 C 346.90 279.67 347.60 280.18 347.95 280.44 C 347.93 282.15 347.92 283.87 347.92 285.59 C 347.90 286.91 347.89 288.25 347.88 289.58 C 345.28 288.85 342.61 288.39 339.92 288.13 C 340.01 285.18 340.17 282.23 340.35 279.28 Z" />
</g>
<g id="#444644fb">
<path fill="#444644" opacity="1.00" d=" M 347.95 280.44 C 353.14 283.61 359.46 283.05 365.29 283.27 C 369.51 283.57 374.09 284.15 377.76 281.52 L 378.58 281.12 C 380.33 282.19 382.05 283.30 383.72 284.51 L 382.81 284.57 C 380.23 284.65 377.66 284.70 375.08 284.66 C 366.03 284.66 356.88 284.09 347.92 285.59 C 347.92 283.87 347.93 282.15 347.95 280.44 Z" />
</g>
<g id="#555556ff">
<path fill="#555556" opacity="1.00" d=" M 275.08 282.74 C 276.05 282.60 277.03 282.46 278.01 282.33 C 279.27 283.22 280.62 284.03 281.74 285.11 C 283.01 287.82 283.00 290.91 283.51 293.82 C 282.55 294.72 281.59 295.62 280.63 296.53 C 281.30 297.66 281.97 298.79 282.65 299.93 C 280.69 299.74 278.64 299.08 276.70 299.65 C 274.75 300.62 273.34 302.35 271.80 303.83 C 268.82 304.44 266.22 306.03 263.47 307.22 C 260.90 307.55 258.34 306.77 255.80 306.44 C 255.51 306.97 254.93 308.03 254.65 308.56 C 254.39 309.02 253.87 309.94 253.61 310.40 C 250.89 309.59 248.29 308.44 245.73 307.23 C 248.16 306.18 250.36 304.69 252.48 303.11 C 257.30 304.88 262.49 304.86 267.32 303.09 C 267.02 302.63 266.43 301.70 266.13 301.24 C 265.61 300.47 265.08 299.73 264.54 298.99 C 266.88 297.25 268.95 295.11 270.25 292.47 C 271.88 289.23 273.44 285.96 275.08 282.74 Z" />
</g>
<g id="#abacb2ff">
<path fill="#abacb2" opacity="1.00" d=" M 326.82 282.93 C 328.31 282.54 329.81 282.17 331.31 281.79 C 330.92 282.31 330.14 283.33 329.75 283.85 C 328.78 283.53 327.80 283.22 326.82 282.93 Z" />
</g>
<g id="#646569ff">
<path fill="#646569" opacity="1.00" d=" M 383.72 284.51 C 390.46 283.74 397.24 284.50 404.00 284.37 C 412.13 284.29 420.27 284.46 428.40 284.35 C 427.08 286.75 426.22 289.36 425.65 292.04 C 425.06 292.04 423.89 292.04 423.30 292.04 C 424.31 290.00 425.22 287.57 423.62 285.54 C 420.70 284.37 417.50 285.14 414.48 285.27 C 403.93 286.46 393.34 285.60 382.81 284.57 L 383.72 284.51 Z" />
<path fill="#646569" opacity="1.00" d=" M 386.30 312.76 C 389.58 312.45 392.55 314.41 395.79 314.47 C 397.89 314.05 399.86 313.10 402.00 312.84 C 404.69 312.98 407.24 313.95 409.79 314.72 C 409.75 315.49 409.71 316.26 409.67 317.03 C 410.53 316.11 411.40 315.20 412.24 314.26 C 411.86 315.35 411.51 316.45 411.19 317.57 C 405.83 319.39 400.06 318.64 394.69 317.32 C 390.34 316.24 385.86 316.38 381.43 316.65 C 378.75 316.96 377.01 314.48 374.88 313.31 C 378.69 314.32 382.50 313.14 386.30 312.76 Z" />
</g>
<g id="#c5c7d1ff">
<path fill="#c5c7d1" opacity="1.00" d=" M 309.52 284.75 C 311.99 285.34 314.44 286.12 317.00 286.33 C 319.92 286.57 322.81 284.91 325.69 286.07 C 325.82 287.38 325.96 288.69 326.11 290.00 C 320.99 290.59 315.79 290.69 310.68 289.94 C 310.35 288.19 309.96 286.46 309.52 284.75 Z" />
</g>
<g id="#b4b7c0ff">
<path fill="#b4b7c0" opacity="1.00" d=" M 347.92 285.59 C 356.88 284.09 366.03 284.66 375.08 284.66 C 375.26 285.64 375.45 286.62 375.65 287.61 C 368.95 287.79 362.26 287.99 355.57 287.47 C 353.13 287.11 351.05 288.38 349.29 289.92 C 348.94 289.84 348.24 289.67 347.88 289.58 C 347.89 288.25 347.90 286.91 347.92 285.59 Z" />
</g>
<g id="#c3c4cdff">
<path fill="#c3c4cd" opacity="1.00" d=" M 375.08 284.66 C 377.66 284.70 380.23 284.65 382.81 284.57 C 393.34 285.60 403.93 286.46 414.48 285.27 C 417.82 286.16 422.41 285.69 423.65 289.77 C 417.12 290.51 410.54 290.22 403.99 290.27 C 390.04 290.31 376.09 290.29 362.14 290.29 C 358.23 290.37 354.31 290.51 350.40 290.19 L 349.29 289.92 C 351.05 288.38 353.13 287.11 355.57 287.47 C 362.26 287.99 368.95 287.79 375.65 287.61 C 375.45 286.62 375.26 285.64 375.08 284.66 Z" />
</g>
<g id="#8b8d8aff">
<path fill="#8b8d8a" opacity="1.00" d=" M 414.48 285.27 C 417.50 285.14 420.70 284.37 423.62 285.54 C 425.22 287.57 424.31 290.00 423.30 292.04 C 413.32 292.02 403.33 291.93 393.34 292.03 C 393.65 293.09 393.97 294.16 394.28 295.23 C 393.81 295.09 392.85 294.81 392.38 294.68 C 388.66 292.76 385.71 297.02 382.00 296.85 C 374.66 297.09 367.33 296.35 359.99 296.79 C 352.09 297.37 344.37 294.90 336.46 295.33 C 336.54 294.71 336.71 293.46 336.79 292.84 C 340.69 292.81 344.60 292.66 348.50 292.34 C 348.94 293.54 349.40 294.74 349.86 295.94 C 360.57 296.34 371.30 296.06 382.03 296.16 C 381.61 294.82 381.19 293.49 380.79 292.15 C 373.06 291.73 365.30 292.65 357.60 291.67 C 359.10 291.18 360.61 290.69 362.14 290.29 C 376.09 290.29 390.04 290.31 403.99 290.27 C 410.54 290.22 417.12 290.51 423.65 289.77 C 422.41 285.69 417.82 286.16 414.48 285.27 Z" />
</g>
<g id="#343842fe">
<path fill="#343842" opacity="1.00" d=" M 428.40 284.35 C 429.35 287.15 429.51 290.12 429.32 293.06 C 428.11 292.67 426.88 292.33 425.65 292.04 C 426.22 289.36 427.08 286.75 428.40 284.35 Z" />
</g>
<g id="#3d3e41ff">
<path fill="#3d3e41" opacity="1.00" d=" M 267.31 285.99 C 268.52 285.89 269.74 285.79 270.96 285.71 C 270.36 287.23 269.78 288.78 269.05 290.26 C 268.38 291.36 267.66 292.43 266.96 293.51 C 266.55 292.46 266.15 291.41 265.75 290.36 C 266.27 288.90 266.79 287.44 267.31 285.99 Z" />
</g>
<g id="#e4e2eaff">
<path fill="#e4e2ea" opacity="1.00" d=" M 288.16 286.29 C 289.56 285.88 290.06 286.38 289.67 287.79 C 288.27 288.18 287.77 287.68 288.16 286.29 Z" />
</g>
<g id="#a8a9b2ff">
<path fill="#a8a9b2" opacity="1.00" d=" M 297.27 287.30 C 298.29 286.97 299.32 286.63 300.34 286.29 C 299.71 289.86 299.85 293.50 300.52 297.06 C 298.35 298.51 295.84 299.21 293.28 299.55 C 292.60 297.42 291.93 295.29 291.22 293.18 C 291.59 293.23 292.33 293.32 292.69 293.37 C 295.46 292.65 296.13 289.52 297.27 287.30 Z" />
</g>
<g id="#94e8fdff">
<path fill="#94e8fd" opacity="1.00" d=" M 303.89 286.79 C 305.60 286.82 307.31 286.86 309.03 286.93 C 308.92 288.48 308.91 290.05 308.61 291.58 C 307.28 292.75 305.62 293.43 304.05 294.20 C 303.90 291.73 303.85 289.26 303.89 286.79 M 306.12 288.37 C 304.66 289.31 306.14 291.98 307.66 290.81 C 309.09 289.86 307.63 287.19 306.12 288.37 Z" />
</g>
<g id="#6e6d6bff">
<path fill="#6e6d6b" opacity="1.00" d=" M 253.67 288.06 C 256.23 288.69 258.38 290.24 260.32 291.97 C 262.13 291.45 263.94 290.91 265.75 290.36 C 266.15 291.41 266.55 292.46 266.96 293.51 C 267.66 292.43 268.38 291.36 269.05 290.26 C 269.35 290.81 269.95 291.91 270.25 292.47 C 268.95 295.11 266.88 297.25 264.54 298.99 C 262.43 296.81 259.49 296.82 256.85 297.93 C 255.13 297.62 253.43 297.20 251.76 296.72 C 251.97 298.85 252.20 300.98 252.48 303.11 C 250.36 304.69 248.16 306.18 245.73 307.23 C 243.69 307.88 241.63 308.45 239.59 309.08 L 239.22 308.81 C 238.56 308.37 237.89 307.95 237.22 307.54 C 232.76 309.73 227.64 311.85 222.64 310.18 C 227.62 309.45 232.44 307.98 237.12 306.18 C 239.60 305.27 242.11 304.45 244.62 303.65 C 243.68 302.80 242.73 301.95 241.80 301.09 C 241.80 300.54 241.79 299.44 241.78 298.88 C 240.73 296.96 239.65 295.05 238.52 293.18 C 241.83 293.93 245.41 294.33 248.41 292.37 C 251.17 293.06 253.97 293.57 256.75 294.15 C 255.45 293.07 254.15 292.00 252.85 290.94 C 253.05 290.22 253.46 288.78 253.67 288.06 Z" />
</g>
<g id="#ecffffff">
<path fill="#ecffff" opacity="1.00" d=" M 306.12 288.37 C 307.63 287.19 309.09 289.86 307.66 290.81 C 306.14 291.98 304.66 289.31 306.12 288.37 Z" />
</g>
<g id="#474440ff">
<path fill="#474440" opacity="1.00" d=" M 332.42 291.20 C 335.24 291.19 337.67 289.67 339.92 288.13 C 342.61 288.39 345.28 288.85 347.88 289.58 C 348.24 289.67 348.94 289.84 349.29 289.92 L 350.40 290.19 C 352.59 290.75 354.80 291.22 357.02 291.62 C 354.17 291.72 351.33 292.01 348.50 292.34 C 344.60 292.66 340.69 292.81 336.79 292.84 C 334.47 292.56 332.18 292.05 330.01 291.20 C 330.61 291.20 331.82 291.20 332.42 291.20 Z" />
</g>
<g id="#cccbd3ff">
<path fill="#cccbd3" opacity="1.00" d=" M 326.99 289.67 C 328.99 288.78 331.79 288.42 332.42 291.20 C 331.82 291.20 330.61 291.20 330.01 291.20 C 329.26 290.81 327.74 290.05 326.99 289.67 Z" />
</g>
<g id="#b1b7a3ff">
<path fill="#b1b7a3" opacity="1.00" d=" M 350.40 290.19 C 354.31 290.51 358.23 290.37 362.14 290.29 C 360.61 290.69 359.10 291.18 357.60 291.67 C 365.30 292.65 373.06 291.73 380.79 292.15 C 381.19 293.49 381.61 294.82 382.03 296.16 C 371.30 296.06 360.57 296.34 349.86 295.94 C 349.40 294.74 348.94 293.54 348.50 292.34 C 351.33 292.01 354.17 291.72 357.02 291.62 C 354.80 291.22 352.59 290.75 350.40 290.19 Z" />
</g>
<g id="#d2d0dcff">
<path fill="#d2d0dc" opacity="1.00" d=" M 288.07 292.74 C 289.12 292.88 290.17 293.03 291.22 293.18 C 291.93 295.29 292.60 297.42 293.28 299.55 C 292.22 299.91 291.18 300.34 290.16 300.82 C 289.45 298.13 288.60 295.47 288.07 292.74 Z" />
</g>
<g id="#a2a994ff">
<path fill="#a2a994" opacity="1.00" d=" M 307.96 293.18 C 314.30 291.57 320.94 291.40 327.41 292.19 C 327.49 293.03 327.57 293.86 327.65 294.70 C 329.13 294.16 330.62 293.65 332.13 293.17 C 331.48 296.11 328.79 297.22 325.99 296.83 C 322.83 297.31 320.94 294.29 318.24 293.43 C 315.52 293.46 313.18 295.09 310.80 296.20 C 309.85 295.20 308.90 294.19 307.96 293.18 Z" />
</g>
<g id="#a7ae97ff">
<path fill="#a7ae97" opacity="1.00" d=" M 393.34 292.03 C 403.33 291.93 413.32 292.02 423.30 292.04 C 423.89 292.04 425.06 292.04 425.65 292.04 C 426.88 292.33 428.11 292.67 429.32 293.06 C 429.84 293.24 430.87 293.60 431.39 293.78 C 430.64 294.20 429.13 295.04 428.38 295.46 C 425.81 296.73 422.91 297.98 420.06 296.82 C 415.39 295.17 410.66 297.68 405.91 297.29 C 403.52 297.35 401.61 295.78 399.73 294.53 C 398.95 295.49 398.16 296.44 397.39 297.41 C 395.71 296.51 394.04 295.60 392.38 294.68 C 392.85 294.81 393.81 295.09 394.28 295.23 C 393.97 294.16 393.65 293.09 393.34 292.03 Z" />
</g>
<g id="#797979ff">
<path fill="#797979" opacity="1.00" d=" M 397.39 297.41 C 398.16 296.44 398.95 295.49 399.73 294.53 C 401.61 295.78 403.52 297.35 405.91 297.29 C 410.66 297.68 415.39 295.17 420.06 296.82 C 422.91 297.98 425.81 296.73 428.38 295.46 C 429.91 296.95 431.94 296.74 433.90 296.40 C 429.76 299.44 425.71 302.69 422.59 306.81 C 419.99 306.83 417.39 306.82 414.80 306.84 C 417.27 306.45 419.73 306.01 422.20 305.63 C 418.93 305.45 415.49 305.04 413.56 302.05 C 417.19 301.80 420.84 301.71 424.47 301.35 C 422.73 300.04 420.69 298.97 418.44 299.41 C 413.23 300.09 408.07 301.17 402.83 301.56 C 405.17 301.92 407.53 302.22 409.89 302.47 C 410.03 302.89 410.16 303.32 410.31 303.74 C 411.23 304.15 412.16 304.57 413.09 304.99 C 410.16 304.76 407.24 304.53 404.32 304.30 C 404.20 304.93 403.97 306.18 403.85 306.80 C 403.53 306.77 402.90 306.72 402.59 306.69 C 400.33 305.15 397.70 304.37 394.99 304.20 C 395.07 303.97 395.21 303.50 395.29 303.27 C 398.04 303.24 400.54 302.15 402.38 300.08 C 400.86 299.51 399.36 298.97 397.84 298.43 C 397.73 298.18 397.51 297.67 397.39 297.41 Z" />
</g>
<g id="#cacbd2fd">
<path fill="#cacbd2" opacity="1.00" d=" M 431.39 293.78 C 432.68 294.17 433.52 295.04 433.90 296.40 C 431.94 296.74 429.91 296.95 428.38 295.46 C 429.13 295.04 430.64 294.20 431.39 293.78 Z" />
</g>
<g id="#d49d7dff">
<path fill="#d49d7d" opacity="1.00" d=" M 224.14 299.33 C 225.97 297.33 228.51 296.23 230.85 294.97 C 232.51 296.13 234.13 297.33 235.78 298.51 C 233.51 301.78 230.61 304.65 226.95 306.33 C 226.20 306.22 224.68 306.01 223.93 305.90 C 223.90 303.71 223.64 301.48 224.14 299.33 Z" />
</g>
<g id="#919789ff">
<path fill="#919789" opacity="1.00" d=" M 395.51 299.08 C 394.28 297.75 393.17 296.30 392.38 294.68 C 394.04 295.60 395.71 296.51 397.39 297.41 C 397.51 297.67 397.73 298.18 397.84 298.43 C 399.36 298.97 400.86 299.51 402.38 300.08 C 400.54 302.15 398.04 303.24 395.29 303.27 C 395.21 303.50 395.07 303.97 394.99 304.20 C 391.83 304.16 388.74 305.01 385.97 306.50 C 385.27 306.33 384.58 306.16 383.89 306.00 C 382.61 305.70 381.33 305.45 380.05 305.24 C 380.78 304.10 381.52 302.97 382.26 301.84 C 386.22 302.13 390.22 301.46 393.64 299.36 C 394.10 299.29 395.04 299.15 395.51 299.08 Z" />
</g>
<g id="#949787ff">
<path fill="#949787" opacity="1.00" d=" M 251.76 296.72 C 253.43 297.20 255.13 297.62 256.85 297.93 C 255.52 298.70 253.65 298.89 252.76 300.22 C 252.97 301.48 254.56 302.01 255.68 302.11 C 259.18 302.06 262.63 301.42 266.13 301.24 C 266.43 301.70 267.02 302.63 267.32 303.09 C 262.49 304.86 257.30 304.88 252.48 303.11 C 252.20 300.98 251.97 298.85 251.76 296.72 Z" />
</g>
<g id="#bec7a9ff">
<path fill="#bec7a9" opacity="1.00" d=" M 256.85 297.93 C 259.49 296.82 262.43 296.81 264.54 298.99 C 265.08 299.73 265.61 300.47 266.13 301.24 C 262.63 301.42 259.18 302.06 255.68 302.11 C 254.56 302.01 252.97 301.48 252.76 300.22 C 253.65 298.89 255.52 298.70 256.85 297.93 Z" />
</g>
<g id="#b2b8a8ff">
<path fill="#b2b8a8" opacity="1.00" d=" M 323.00 299.27 C 337.45 298.47 351.94 299.04 366.40 298.66 C 375.48 298.85 384.60 298.25 393.64 299.36 C 390.22 301.46 386.22 302.13 382.26 301.84 C 377.62 301.64 373.01 300.75 368.35 301.03 C 353.90 301.69 339.40 302.20 324.97 300.81 C 320.01 300.13 315.16 301.32 310.34 302.26 C 307.54 302.95 304.96 301.31 303.28 299.20 C 309.84 298.51 316.42 299.43 323.00 299.27 Z" />
<path fill="#b2b8a8" opacity="1.00" d=" M 402.83 301.56 C 408.07 301.17 413.23 300.09 418.44 299.41 C 420.69 298.97 422.73 300.04 424.47 301.35 C 420.84 301.71 417.19 301.80 413.56 302.05 C 415.49 305.04 418.93 305.45 422.20 305.63 C 419.73 306.01 417.27 306.45 414.80 306.84 C 411.17 307.49 407.49 307.18 403.85 306.80 C 403.97 306.18 404.20 304.93 404.32 304.30 C 407.24 304.53 410.16 304.76 413.09 304.99 C 412.16 304.57 411.23 304.15 410.31 303.74 C 410.16 303.32 410.03 302.89 409.89 302.47 C 407.53 302.22 405.17 301.92 402.83 301.56 Z" />
</g>
<g id="#3b3938ff">
<path fill="#3b3938" opacity="1.00" d=" M 235.78 298.51 C 236.77 299.19 237.76 299.87 238.76 300.56 C 238.22 302.43 237.67 304.30 237.12 306.18 C 232.44 307.98 227.62 309.45 222.64 310.18 L 221.84 309.99 C 219.08 308.00 215.25 306.28 215.13 302.37 C 217.38 302.43 219.62 302.54 221.87 302.71 C 221.97 304.14 222.10 305.58 222.27 307.01 C 223.83 306.80 225.40 306.61 226.95 306.33 C 230.61 304.65 233.51 301.78 235.78 298.51 Z" />
</g>
<g id="#b9b6b8ff">
<path fill="#b9b6b8" opacity="1.00" d=" M 241.78 298.88 C 241.79 299.44 241.80 300.54 241.80 301.09 L 241.20 300.53 C 241.34 300.12 241.64 299.29 241.78 298.88 Z" />
</g>
<g id="#ffffffff">
<path fill="#ffffff" opacity="1.00" d=" M 287.20 301.16 C 287.77 301.73 287.77 301.73 287.20 301.16 Z" />
<path fill="#ffffff" opacity="1.00" d=" M 267.21 308.29 C 267.82 308.90 267.82 308.90 267.21 308.29 Z" />
<path fill="#ffffff" opacity="1.00" d=" M 243.21 324.24 C 243.80 324.82 243.80 324.82 243.21 324.24 Z" />
</g>
<g id="#4b3b37ff">
<path fill="#4b3b37" opacity="1.00" d=" M 295.11 301.79 C 296.57 301.89 298.02 302.14 299.46 302.43 C 298.14 304.25 296.80 306.07 295.46 307.88 C 289.94 307.58 284.43 307.95 278.94 308.59 C 280.98 306.99 282.83 305.07 285.20 303.96 C 287.14 304.22 289.01 304.91 290.96 305.14 C 292.74 304.70 293.77 302.92 295.11 301.79 Z" />
</g>
<g id="#f1f0f4ff">
<path fill="#f1f0f4" opacity="1.00" d=" M 278.22 303.54 C 280.13 302.57 281.23 306.81 279.16 307.08 C 277.69 306.75 277.32 304.58 278.22 303.54 Z" />
</g>
<g id="#57423efd">
<path fill="#57423e" opacity="1.00" d=" M 263.47 307.22 C 266.22 306.03 268.82 304.44 271.80 303.83 C 273.41 305.37 275.01 306.95 276.50 308.62 C 272.67 308.38 268.96 309.47 265.21 310.04 C 261.76 309.16 258.24 308.24 254.65 308.56 C 254.93 308.03 255.51 306.97 255.80 306.44 C 258.34 306.77 260.90 307.55 263.47 307.22 M 267.21 308.29 C 267.82 308.90 267.82 308.90 267.21 308.29 Z" />
</g>
<g id="#00000015">
<path fill="#000000" opacity="0.08" d=" M 331.59 311.99 C 334.24 309.00 336.78 305.78 340.03 303.43 C 343.02 302.91 346.07 303.35 349.07 303.65 L 349.72 304.21 C 350.18 305.15 350.63 306.09 351.07 307.05 C 356.11 307.84 361.10 309.12 366.25 308.92 L 366.92 309.21 C 363.97 312.01 363.05 315.99 361.55 319.60 C 358.43 325.30 352.71 329.92 352.09 336.78 C 351.88 341.09 348.93 344.49 347.73 348.51 C 345.79 356.46 342.98 364.22 339.40 371.58 C 340.09 372.47 340.79 373.36 341.50 374.25 C 339.28 378.81 336.89 383.48 336.70 388.65 C 335.79 389.08 334.88 389.51 333.98 389.95 C 334.14 393.06 333.48 396.11 331.80 398.75 C 329.62 402.10 331.92 406.18 330.51 409.77 C 329.66 415.13 325.10 419.14 325.20 424.72 C 326.17 424.36 327.14 424.00 328.11 423.65 C 326.55 428.33 324.78 432.95 323.47 437.71 C 322.76 441.38 323.12 445.19 322.03 448.82 C 321.04 452.01 322.77 455.21 322.44 458.42 C 321.27 461.36 319.23 463.85 317.56 466.52 C 321.14 474.61 318.16 484.78 311.93 490.78 C 313.94 490.24 315.96 489.73 317.98 489.22 C 318.75 489.67 319.54 490.13 320.33 490.60 C 316.43 491.91 313.50 494.74 312.28 498.69 C 313.85 499.47 315.43 500.26 317.01 501.05 C 313.92 504.04 314.08 508.61 311.69 512.00 L 282.11 512.00 C 283.38 511.42 284.64 510.80 285.89 510.18 C 285.12 509.57 284.35 508.96 283.58 508.35 C 285.31 507.72 287.05 507.10 288.79 506.48 C 287.44 504.18 286.17 501.84 284.96 499.48 C 286.81 499.36 288.67 499.24 290.54 499.12 C 289.82 496.61 288.02 494.76 285.95 493.29 C 287.90 492.34 289.85 491.39 291.80 490.44 C 290.81 489.83 289.82 489.23 288.84 488.64 C 289.41 487.83 289.98 487.01 290.56 486.20 C 289.34 485.78 288.11 485.37 286.89 484.96 C 288.09 483.49 289.30 482.02 290.51 480.56 C 289.41 477.13 290.06 473.64 291.41 470.39 C 293.05 466.33 291.60 462.06 291.37 457.93 C 292.95 454.88 294.46 451.74 294.50 448.22 C 295.47 443.47 292.58 438.84 294.01 434.12 C 295.74 428.13 295.88 421.43 300.01 416.40 C 298.48 416.90 296.95 417.39 295.43 417.88 C 295.98 414.26 296.82 410.70 297.77 407.18 C 299.00 402.69 297.82 398.06 297.35 393.56 C 299.20 393.32 301.06 393.09 302.92 392.85 C 301.28 389.24 299.74 385.18 300.91 381.20 C 302.34 376.95 303.38 372.59 304.14 368.18 C 301.83 361.59 308.13 355.51 306.18 348.85 C 304.15 341.39 307.06 333.94 308.60 326.70 C 305.74 324.74 302.59 326.28 299.59 326.90 C 296.67 326.77 293.98 325.26 291.13 324.70 C 293.02 324.34 294.93 324.17 296.83 323.86 C 299.33 323.63 301.83 323.47 304.34 323.34 C 307.40 323.18 310.41 324.35 313.47 323.72 C 319.56 322.63 324.55 318.61 329.25 314.84 C 330.04 313.90 330.82 312.94 331.59 311.99 Z" />
</g>
<g id="#b1afb7ff">
<path fill="#b1afb7" opacity="1.00" d=" M 385.97 306.50 C 388.74 305.01 391.83 304.16 394.99 304.20 C 397.70 304.37 400.33 305.15 402.59 306.69 C 397.12 307.85 391.39 307.95 385.97 306.50 Z" />
</g>
<g id="#262729ff">
<path fill="#262729" opacity="1.00" d=" M 383.89 306.00 C 384.58 306.16 385.27 306.33 385.97 306.50 C 391.39 307.95 397.12 307.85 402.59 306.69 C 402.90 306.72 403.53 306.77 403.85 306.80 C 407.49 307.18 411.17 307.49 414.80 306.84 C 414.59 307.92 414.36 309.01 414.13 310.10 C 410.12 308.02 405.63 306.91 401.15 308.07 C 399.44 308.29 397.73 308.39 396.01 308.40 C 390.59 308.05 385.57 310.64 380.19 310.73 C 378.03 310.78 375.87 310.72 373.72 310.55 C 374.88 309.83 376.04 309.11 377.24 308.43 C 379.51 307.79 381.72 306.94 383.89 306.00 Z" />
</g>
<g id="#cb9576ff">
<path fill="#cb9576" opacity="1.00" d=" M 222.64 310.18 C 227.64 311.85 232.76 309.73 237.22 307.54 C 237.89 307.95 238.56 308.37 239.22 308.81 C 235.04 313.64 228.90 316.73 222.48 316.91 C 221.59 315.96 220.75 314.98 219.94 313.98 C 219.63 313.32 219.02 311.99 218.71 311.33 C 219.75 310.87 220.79 310.43 221.84 309.99 L 222.64 310.18 Z" />
</g>
<g id="#404040ff">
<path fill="#404040" opacity="1.00" d=" M 239.59 309.08 C 241.63 308.45 243.69 307.88 245.73 307.23 C 248.29 308.44 250.89 309.59 253.61 310.40 C 257.09 311.17 260.67 311.50 264.23 311.71 C 258.73 311.88 252.92 311.58 247.82 313.98 C 245.68 314.92 243.43 315.58 241.16 316.11 C 240.36 313.84 239.91 311.47 239.59 309.08 Z" />
</g>
<g id="#0000000f">
<path fill="#000000" opacity="0.06" d=" M 278.94 308.59 C 284.43 307.95 289.94 307.58 295.46 307.88 C 295.40 309.13 295.34 310.39 295.24 311.64 C 285.24 311.39 274.97 312.92 265.21 310.04 C 268.96 309.47 272.67 308.38 276.50 308.62 C 277.11 308.61 278.33 308.59 278.94 308.59 Z" />
</g>
<g id="#6b6a69ff">
<path fill="#6b6a69" opacity="1.00" d=" M 322.38 310.18 C 324.60 309.22 326.84 308.30 329.09 307.39 C 329.92 308.92 330.76 310.45 331.59 311.99 C 330.82 312.94 330.04 313.90 329.25 314.84 C 326.11 314.85 323.78 312.84 322.38 310.18 Z" />
</g>
<g id="#86878cff">
<path fill="#86878c" opacity="1.00" d=" M 366.25 308.92 C 366.84 308.84 368.03 308.67 368.62 308.59 C 370.27 309.36 371.95 310.07 373.72 310.55 C 375.87 310.72 378.03 310.78 380.19 310.73 C 385.57 310.64 390.59 308.05 396.01 308.40 C 396.18 309.18 396.52 310.72 396.69 311.49 C 398.35 311.55 400.01 311.61 401.68 311.68 C 401.50 310.47 401.33 309.27 401.15 308.07 C 405.63 306.91 410.12 308.02 414.13 310.10 C 413.66 311.55 412.96 312.91 412.24 314.26 C 411.40 315.20 410.53 316.11 409.67 317.03 C 409.71 316.26 409.75 315.49 409.79 314.72 C 407.24 313.95 404.69 312.98 402.00 312.84 C 399.86 313.10 397.89 314.05 395.79 314.47 C 392.55 314.41 389.58 312.45 386.30 312.76 C 382.50 313.14 378.69 314.32 374.88 313.31 C 372.29 311.82 369.62 310.47 366.92 309.21 L 366.25 308.92 Z" />
</g>
<g id="#14141261">
<path fill="#141412" opacity="0.38" d=" M 368.62 308.59 C 371.46 308.03 374.36 308.16 377.24 308.43 C 376.04 309.11 374.88 309.83 373.72 310.55 C 371.95 310.07 370.27 309.36 368.62 308.59 Z" />
</g>
<g id="#f5f3f9ff">
<path fill="#f5f3f9" opacity="1.00" d=" M 396.01 308.40 C 397.73 308.39 399.44 308.29 401.15 308.07 C 401.33 309.27 401.50 310.47 401.68 311.68 C 400.01 311.61 398.35 311.55 396.69 311.49 C 396.52 310.72 396.18 309.18 396.01 308.40 Z" />
</g>
<g id="#5d5c59ff">
<path fill="#5d5c59" opacity="1.00" d=" M 239.22 308.81 L 239.59 309.08 C 239.91 311.47 240.36 313.84 241.16 316.11 C 243.43 315.58 245.68 314.92 247.82 313.98 C 247.57 315.94 247.31 317.90 247.21 319.88 C 247.32 322.02 247.57 324.16 247.82 326.30 C 247.89 326.77 248.03 327.72 248.10 328.19 C 244.84 328.42 241.57 328.18 238.36 327.59 C 237.82 329.25 237.28 330.91 236.68 332.55 C 236.34 332.52 235.64 332.48 235.30 332.45 C 235.10 330.49 234.89 328.54 234.67 326.59 C 233.10 326.20 231.53 325.82 229.97 325.43 C 229.23 323.48 228.74 321.35 227.38 319.73 C 225.88 318.57 224.12 317.83 222.48 316.91 C 228.90 316.73 235.04 313.64 239.22 308.81 M 243.21 324.24 C 243.80 324.82 243.80 324.82 243.21 324.24 Z" />
</g>
<g id="#666768ff">
<path fill="#666768" opacity="1.00" d=" M 309.19 310.04 C 312.15 309.20 315.40 309.15 318.40 309.86 C 320.71 310.85 321.00 313.54 321.05 315.74 C 316.55 317.93 311.66 319.04 306.94 320.62 C 307.50 317.11 307.05 313.02 309.19 310.04 Z" />
</g>
<g id="#b68668ff">
<path fill="#b68668" opacity="1.00" d=" M 247.82 313.98 C 252.92 311.58 258.73 311.88 264.23 311.71 C 274.52 312.78 284.86 312.19 295.19 312.45 L 295.13 313.48 C 295.11 314.01 295.08 315.07 295.07 315.59 C 291.26 315.55 287.48 315.94 283.71 316.40 C 277.80 317.16 272.04 314.90 266.13 315.32 C 260.45 315.64 254.80 316.36 249.15 316.96 C 248.50 317.92 247.85 318.90 247.21 319.88 C 247.31 317.90 247.57 315.94 247.82 313.98 Z" />
</g>
<g id="#4c4d4cff">
<path fill="#4c4d4c" opacity="1.00" d=" M 219.94 313.98 C 220.75 314.98 221.59 315.96 222.48 316.91 C 224.12 317.83 225.88 318.57 227.38 319.73 C 228.74 321.35 229.23 323.48 229.97 325.43 C 231.53 325.82 233.10 326.20 234.67 326.59 C 234.89 328.54 235.10 330.49 235.30 332.45 C 231.96 332.09 228.62 331.67 225.27 331.42 C 225.10 332.09 224.76 333.43 224.59 334.10 C 224.44 330.31 225.48 326.13 223.24 322.75 C 221.61 320.04 220.94 316.94 219.94 313.98 Z" />
</g>
<g id="#6f6d6dff">
<path fill="#6f6d6d" opacity="1.00" d=" M 295.13 313.48 C 297.16 314.55 299.41 315.34 301.11 316.94 C 302.03 318.36 302.52 319.99 303.12 321.56 C 301.58 322.14 300.05 322.73 298.50 323.29 C 297.82 321.95 297.13 320.63 296.50 319.27 C 295.98 318.06 295.50 316.83 295.07 315.59 C 295.08 315.07 295.11 314.01 295.13 313.48 Z" />
</g>
<g id="#dca88aff">
<path fill="#dca88a" opacity="1.00" d=" M 249.15 316.96 C 254.80 316.36 260.45 315.64 266.13 315.32 C 272.04 314.90 277.80 317.16 283.71 316.40 C 287.48 315.94 291.26 315.55 295.07 315.59 C 295.50 316.83 295.98 318.06 296.50 319.27 C 294.24 320.59 291.82 321.63 289.26 322.21 C 283.24 323.61 277.37 325.74 271.17 326.21 C 263.41 326.86 255.56 327.49 247.82 326.30 C 247.57 324.16 247.32 322.02 247.21 319.88 C 247.85 318.90 248.50 317.92 249.15 316.96 Z" />
</g>
<g id="#bc8a6eff">
<path fill="#bc8a6e" opacity="1.00" d=" M 296.50 319.27 C 297.13 320.63 297.82 321.95 298.50 323.29 C 298.08 323.43 297.25 323.71 296.83 323.86 C 294.93 324.17 293.02 324.34 291.13 324.70 C 279.63 327.15 268.09 329.82 256.32 330.48 C 254.32 330.35 252.32 330.15 250.34 329.84 C 249.57 329.31 248.82 328.76 248.10 328.19 C 248.03 327.72 247.89 326.77 247.82 326.30 C 255.56 327.49 263.41 326.86 271.17 326.21 C 277.37 325.74 283.24 323.61 289.26 322.21 C 291.82 321.63 294.24 320.59 296.50 319.27 Z" />
</g>
<g id="#454646ff">
<path fill="#454646" opacity="1.00" d=" M 238.36 327.59 C 241.57 328.18 244.84 328.42 248.10 328.19 C 248.82 328.76 249.57 329.31 250.34 329.84 C 250.53 330.83 250.71 331.82 250.90 332.81 C 246.16 332.88 241.41 332.88 236.68 332.55 C 237.28 330.91 237.82 329.25 238.36 327.59 Z" />
</g>
<g id="#6d6b6aff">
<path fill="#6d6b6a" opacity="1.00" d=" M 250.34 329.84 C 252.32 330.15 254.32 330.35 256.32 330.48 C 255.22 332.51 254.24 334.97 251.87 335.80 C 246.63 338.18 240.83 339.94 235.02 339.38 C 231.28 338.23 227.87 336.20 224.59 334.10 C 224.76 333.43 225.10 332.09 225.27 331.42 C 228.62 331.67 231.96 332.09 235.30 332.45 C 235.64 332.48 236.34 332.52 236.68 332.55 C 241.41 332.88 246.16 332.88 250.90 332.81 C 250.71 331.82 250.53 330.83 250.34 329.84 Z" />
</g>
</svg>
