<svg xmlns="http://www.w3.org/2000/svg" width="682.667" height="682.667" viewBox="0 0 512 512"  xmlns:v="https://vecta.io/nano"><path fill="#68533d" opacity=".49" d="M282.43 32.33l2.13.01c2.79 5.02 3.03 11.08 3.29 16.71l-.06 1.04c-.91-2.97-.74-6.14-1.7-9.11-.44-2.22.04-5.04-2.17-6.43-1.58.44-1.8 1.97-2.08 3.34l-.82 3.33c-.87-3.07-.53-6.29 1.41-8.89z"/><path fill="#fff7cb" d="M281.84 37.89c.28-1.37.5-2.9 2.08-3.34 2.21 1.39 1.73 4.21 2.17 6.43l-2.21-3.66-2.04.57z"/><path fill="#fff" d="M281.84 37.89l2.04-.57 2.21 3.66c.96 2.97.79 6.14 1.7 9.11 1.54 3.87 1.85 8.07 3.24 11.96.74 1.76 1.64 3.46 2.75 5.03 1.04 1.14 2.2 2.15 3.38 3.16l.09 2.68c-1.71.63-3.37 1.43-4.53 2.86-2.23 1.59-4.98 1.56-7.58 1.41l2.51 1.3c.32 1.41-.42 2.56-1.4 3.48l-.41-.82c-.71-1.59-2.18-2.5-3.66-3.27-2.63-1.34-4.93-3.21-7.33-4.9.21-1.67.32-3.43 1.31-4.86 1.2-.97 1.51-2.48 1.81-3.91l1.54-.66c.82-3.13.29-6.42.35-9.61 1.7-4.04.57-8.49 1.16-12.72l.82-3.33z"/><path fill="#241a13" opacity=".26" d="M287.85 49.05c1.06.94 2.37 1.77 2.91 3.17 1.36 3.12.3 6.57.27 9.83-1.39-3.89-1.7-8.09-3.24-11.96l.06-1.04z"/><path fill="#b29670" opacity=".75" d="M277.97 64.21c.66-3.41.76-6.96 1.89-10.27-.06 3.19.47 6.48-.35 9.61l-1.54.66z"/><path fill="#674f3a" opacity=".51" d="M293.78 67.08c2.15.33 4.27.96 5.95 2.4.36 1.81-.73 3.12-2.48 3.44l-.09-2.68-3.38-3.16z"/><path fill="#edd6aa" opacity=".94" d="M273.12 68.17l3.04-.05c-.99 1.43-1.1 3.19-1.31 4.86-1.92-.79-2.98-2.93-1.73-4.81z"/><path fill="#85897e" d="M285.14 77.19c2.6.15 5.35.18 7.58-1.41-1.12 1.29-2.45 2.48-3.1 4.1l3.28 3.34.19 2.4c-1 .73-2.78 1.05-2.77 2.59-.15 2.51.39 5 .92 7.44l-1.75-.87-.86 2.35-1.55-2.35c.44-4.31.86-8.68-.83-12.81.98-.92 1.72-2.07 1.4-3.48l-2.51-1.3z"/><path fill="#3b3837" opacity=".73" d="M282.18 77.88c1.48.77 2.95 1.68 3.66 3.27l-2.84.98c-2.44 1.28-5.15 1.33-7.46-.3 2.44-.66 4.98-.71 7.49-.89.13-1.09-.15-2.11-.85-3.06z"/><path fill="#9ea495" d="M283 82.13l2.84-.98.41.82c1.69 4.13 1.27 8.5.83 12.81-.93 1.76-2.7 1.12-4.03.3l-.28-5.52.19-2.62c.07-1.6.04-3.21.04-4.81z"/><path fill="#596071" d="M275.23 89.97c.01-2.71-.34-5.47.31-8.14 2.31 1.63 5.02 1.58 7.46.3l-.04 4.81-1.03.9c-1.86-1.02-3.69-2.12-5.79-2.52l-.04 4.56-.87.09z"/><path fill="#282828" opacity=".56" d="M292.9 83.22c1.65 1.71 3.69 2.96 5.69 4.23l.33 7.52c2.04.27 4.24.09 6.1 1.12 2.03 1.1 4.83 1.81 5.38 4.41.73 4.84.34 9.79-.45 14.6-.92 4.87 1.48 9.61.91 14.48l-.71 1.35c.39-3.22-.21-6.4-1.34-9.42-.35-2.78.31-5.61.34-8.41 1.34-4.6 1.81-10.02-.98-14.17-2.01-1.14-4.06-2.2-6.1-3.28l-1.59 2.27c-1.34-.38-2.19-1.59-2.69-2.82-.05-2.51.05-5.04-.43-7.52l-4.27-1.96-.19-2.4z"/><path fill="#b9bbc5" d="M276.14 85.32c2.1.4 3.93 1.5 5.79 2.52l1.03-.9-.19 2.62c-1.85 2.46-.94 5.74-1 8.59-.51-1.2-.61-3.07-2.28-3.11.47 3-1.01 6.62 1.15 9.12l1.41-1.14-.03 5.06-1.61.04-.32.65.39.65 1.49.42.09.88-2 .44c-.15 1.49.07 2.98.3 4.45l2.33.63.08.73-2.75.93c.92 2.18 1.56 4.48 1.4 6.87l1.46 1.55-.06 1.68.08.59c.61 2.16 1.03 4.36 1.48 6.56l-.01.77-.25 2.9-1.99.39.12 8.74c-.15 1.11.2 2.17.78 3.12 1.37-.43 1.41-2.16 1.95-3.26.32 3.41.31 6.84.15 10.26l-1.81.14-.42.77.35.79 1.76.19-.19 1.82c-1.39.17-2.06.93-2.02 2.28l-2-1.96c-.6-2.76-.96-5.57-1.2-8.38.52-6.18-.32-12.31-.85-18.45l1.3-1.28-.29-.81-1.7-.32c.03-1.29.02-2.57-.01-3.86l1.77-.27.35-.81-.43-.77c-.44 0-1.33 0-1.77-.01l.03-.89c1.85-1.03 2.77-4.97.14-5.44.39-2.6-.63-5.15-.32-7.73.45-2.05-.39-4.12.45-6.11-1.11-3.31-1.67-6.73-2.15-10.18-.07-2.3-.04-4.61-.02-6.91l.04-4.56m2.82 44.96l-.41.73.4.72h.82l.4-.73-.4-.72h-.81m3.28-.19l-1.07 1.11c.44 2.45 3.67-.98 1.07-1.11m-.79 3.08c-.41 1.37.1 1.87 1.52 1.51.4-1.37-.11-1.88-1.52-1.51m.74 3.1l-.4.72.41.72h.82l.4-.72-.41-.72h-.82m.3 15.83c-.4 1.35.12 1.86 1.55 1.52.39-1.36-.12-1.87-1.55-1.52m-.03 3.04c-.41 1.36.1 1.86 1.53 1.52.41-1.36-.1-1.87-1.53-1.52z"/><path fill="#a0a993" d="M290.32 88.21c-.01-1.54 1.77-1.86 2.77-2.59.11 3.4-.01 6.81-.05 10.21l2.65-1.24.37-5.79c1.87 1.27.93 4.31 1.73 6.3.5 1.23 1.35 2.44 2.69 2.82-1.4 1.84-2.28 3.99-2.55 6.29l-1.53-.42c-.42-1.14-.89-2.28-1.77-3.15.01 2.15.04 4.34-.7 6.4a90.13 90.13 0 0 0-1.42-.66c-.71-3.55-.05-7.26-1.27-10.73-.53-2.44-1.07-4.93-.92-7.44z"/><path fill="#71756b" d="M293.09 85.62l4.27 1.96c.48 2.48.38 5.01.43 7.52-.8-1.99.14-5.03-1.73-6.3l-.37 5.79-2.65 1.24c.04-3.4.16-6.81.05-10.21z"/><path opacity=".75" d="M275.23 89.97l.87-.09.02 6.91c-.65 7.43.51 14.86.23 22.3-.16 3.35.53 6.64.81 9.95.3 2.72-1.97 4.63-3.24 6.75-2.12 3.36-2.9 7.53-5.93 10.28l-1.03-1.97-1.02-2.12a84.95 84.95 0 0 0 3.21.96c.23-3.18.12-6.38.2-9.56 1.86-.59 3.74-1.14 5.63-1.63 1.63-3.31-1.84-5.35-4.34-6.57l-.32-2.08c1.02-1.53 2.18-2.98 3.08-4.6.51-2.87.3-5.81.47-8.71.43-4.09.1-8.24.83-12.31a35.04 35.04 0 0 0 .53-7.51z"/><path fill="#808579" d="M281.77 98.15c.06-2.85-.85-6.13 1-8.59l.28 5.52c.22 6.57 1.02 13.09 1.25 19.66.02 2.35 2.79 1.98 4.4 2.06l1.65-2.88 1.12.77.07.51.04.51-.06 2.18-.45 6.91-1.38 3.32-3.33-.22c-.27-3.3.52-7.11-1.23-10.04-.18 5.31.32 10.64-.09 15.94l-.66 1.35c-.45-2.2-.87-4.4-1.48-6.56l-.08-.59.06-1.68c.24-3.11.19-6.24-.11-9.35l-.08-.73-.63-5.52-.09-.88.05-1.76.03-5.06c-.04-1.63-.16-3.25-.28-4.87z"/><path fill="#d0d0db" d="M279.49 95.04c1.67.04 1.77 1.91 2.28 3.11l.28 4.87-1.41 1.14c-2.16-2.5-.68-6.12-1.15-9.12z"/><path fill="#abb398" d="M283.05 95.08c1.33.82 3.1 1.46 4.03-.3l1.55 2.35c.06 3.82.49 7.65.02 11.46l-2.33.95c.28 1.3 1.63 1.81 2.56 2.61l1.47 1.77-1.65 2.88c-1.61-.08-4.38.29-4.4-2.06-.23-6.57-1.03-13.09-1.25-19.66z"/><path fill="#716f77" d="M288.63 97.13l.86-2.35 1.75.87c1.22 3.47.56 7.18 1.27 10.73l1.42.66c.74-2.06.71-4.25.7-6.4.88.87 1.35 2.01 1.77 3.15-.2 3.86 1.3 7.73.26 11.53-.49-1.83-.46-3.9-1.56-5.49-.9-1.32-2.64-1.23-4.02-1.58l.95 2.99.1.62c-1.03.48-2.16.55-3.25.29-.93-.8-2.28-1.31-2.56-2.61l2.33-.95c.47-3.81.04-7.64-.02-11.46z"/><path fill="#69696f" d="M300.48 97.92l1.59-2.27 6.1 3.28c2.79 4.15 2.32 9.57.98 14.17l-.83.22c-1.18-.78-2.57-1.37-3.43-2.53-.49-3.44-.93-7.49 2.02-10-1.27-.35-2.54-.66-3.82-.89-1.74-.87-3.7 1.16-2.04 2.62l-.01.8-.02 1.62-.22 2.61c-.43 1.9-.57 3.84.17 5.68.93 3.56 1.82 7.15 1.89 10.85l-.97-3.04-.47-1.26-2.02-1.21c-.46-4.79-.08-9.69-1.47-14.36.27-2.3 1.15-4.45 2.55-6.29z"/><path fill="#6a6a6b" opacity=".93" d="M276.12 96.79c.48 3.45 1.04 6.87 2.15 10.18-.84 1.99 0 4.06-.45 6.11-.31 2.58.71 5.13.32 7.73-.21 1.8-.25 3.62-.14 5.44l-.03.89.08 1.86c.03 1.29.04 2.57.01 3.86l-.09 1.9-.95.2-3.1.83c1.27-2.12 3.54-4.03 3.24-6.75-.28-3.31-.97-6.6-.81-9.95.28-7.44-.88-14.87-.23-22.3z"/><path fill="#9a9aa2" d="M301.05 102.52c-1.66-1.46.3-3.49 2.04-2.62-.08 1.31-.76 2.19-2.04 2.62z"/><path fill="#848589" d="M303.09 99.9c1.28.23 2.55.54 3.82.89-2.95 2.51-2.51 6.56-2.02 10 .86 1.16 2.25 1.75 3.43 2.53-.97 1.72-2.19 3.28-3.1 5.03-.61 4.33 1.31 8.44 1.77 12.68-.2 2.48-1.35 4.78-1.96 7.18l-1.49 4.47c-.78 1.75-.88 3.66-.75 5.54-1.05-2.66-.79-5.49-.14-8.2.54-1.61 1.1-3.22 1.53-4.87.71-3.76 1.27-7.88-1.32-11.07-.07-3.7-.96-7.29-1.89-10.85l2.65-.69c.12-1.37.14-2.75.07-4.13l-2.89-.86.22-2.61c1.42.79 4.3-1.46 1.81-2.14l-1.79.52.01-.8c1.28-.43 1.96-1.31 2.04-2.62z"/><path fill="#a3a3a9" d="M301.04 103.32l1.79-.52c2.49.68-.39 2.93-1.81 2.14l.02-1.62z"/><path fill="#b7baa9" d="M296.4 103.79l1.53.42c1.39 4.67 1.01 9.57 1.47 14.36l2.02 1.21c.11.31.35.94.47 1.26l-1.14-1.37c-1.15 1.97-1.3 4.32-1.99 6.47a42.38 42.38 0 0 1-1.06-6.02l-2.63 1.13c-.42 2.61-.12 5.32-1.07 7.83-1.01 2.24 1.1 4.38.86 6.65-.13 1.28-.79 2.4-1.47 3.47l-1.52-1.14c-.66-4.4-.14-8.86-.8-13.26.1-2.31.27-4.61.45-6.91 1.45.36 2.51 2.58 4.13 1.65.43-1.39.7-2.81 1.01-4.22 1.04-3.8-.46-7.67-.26-11.53z"/><path fill="#dedee9" d="M280.41 108.12l1.61-.04-.05 1.76-1.49-.42-.39-.65.32-.65z"/><path fill="#8f938d" d="M291.08 108.25c1.38.35 3.12.26 4.02 1.58 1.1 1.59 1.07 3.66 1.56 5.49l-1.01 4.22c-1.62.93-2.68-1.29-4.13-1.65l.06-2.18-.04-.51-.07-.51-1.12-.77-1.47-1.77c1.09.26 2.22.19 3.25-.29l.34-.12-.44-.5-.95-2.99z"/><path fill="#faf9fe" d="M300.97 113.23c-.74-1.84-.6-3.78-.17-5.68l2.89.86c.07 1.38.05 2.76-.07 4.13l-2.65.69z"/><path opacity=".36" d="M272.56 110.73l1.31-.94c-.17 2.9.04 5.84-.47 8.71-.9 1.62-2.06 3.07-3.08 4.6l.32 2.08-3.42-1.42c-.48-2.09 2.12-2.34 3.38-3.3 1.25-3.11.99-6.55 1.96-9.73z"/><path fill="#dbdae6" d="M280.06 111.16l2-.44.63 5.52-2.33-.63c-.23-1.47-.45-2.96-.3-4.45z"/><path fill="#c1c0c1" d="M292.03 111.24l.44.5-.34.12-.1-.62z"/><path fill="#646567" d="M308.32 113.32l.83-.22c-.03 2.8-.69 5.63-.34 8.41 1.13 3.02 1.73 6.2 1.34 9.42-2.07 2.18-3.04 5.11-5.12 7.28.61-2.4 1.76-4.7 1.96-7.18-.46-4.24-2.38-8.35-1.77-12.68.91-1.75 2.13-3.31 3.1-5.03z"/><path fill="#d8d7d6" d="M291.58 115.71l-.04-.51.04.51z"/><path fill="#e5e4eb" d="M280.02 117.9l2.75-.93c.3 3.11.35 6.24.11 9.35l-1.46-1.55c.16-2.39-.48-4.69-1.4-6.87z"/><path fill="#aeb5a1" d="M285.13 117.86c1.75 2.93.96 6.74 1.23 10.04l3.33.22.69 19.84c.12 4.74 2.58 10.15-.93 14.24.77 3.43 1.78 6.91 1.08 10.46-.41.09-1.24.29-1.65.39-1.29-4.77-.55-9.85-2.45-14.47-1.66-7.43.59-15.38-2.06-22.66l.01-.77.66-1.35c.41-5.3-.09-10.63.09-15.94z"/><path fill="#888f78" d="M295.07 121.25l2.63-1.13a42.38 42.38 0 0 0 1.06 6.02l-1.07 5.7c-.46-1.01-.95-2.01-1.68-2.83-1.45 2-.12 4.52-.45 6.77-.51 3.58.37 7.1 1.32 10.53l2.35-3.6c1.32 2.26 1.07 5 1.59 7.5l-.24 1.81-2.36-.5-2.36 1.42c-.16-4.29-.11-8.81-2.05-12.75l-.87-.28c-.84 3.54.28 7.1-.02 10.65-1.21-4.07-.91-8.32-1.05-12.5l1.52 1.14c.68-1.07 1.34-2.19 1.47-3.47.24-2.27-1.87-4.41-.86-6.65.95-2.51.65-5.22 1.07-7.83z"/><path fill="#2f3031" d="M298.76 126.14c.69-2.15.84-4.5 1.99-6.47l1.14 1.37.97 3.04c2.59 3.19 2.03 7.31 1.32 11.07-.47-1.16-1.23-1.86-2.28-2.1-.38 2.36-.53 4.84.75 6.97-.65 2.71-.91 5.54.14 8.2.17 3.22-1.03 6.32-1.13 9.53.19 1.59-1.67 1.72-2.7 2.19.73-1.06 1.51-2.07 2.19-3.17.48-1.59-.38-3.18-.57-4.75l.24-1.81c.97-5.61.17-11.31.42-16.96.15-2.61-1.42-4.86-2.48-7.11z"/><path fill="#f4f5f8" d="M278.14 120.81c2.63.47 1.71 4.41-.14 5.44-.11-1.82-.07-3.64.14-5.44z"/><path fill="#6d6f6f" d="M289.69 128.12l1.38-3.32c.66 4.4.14 8.86.8 13.26.14 4.18-.16 8.43 1.05 12.5-.44 3.73-.13 7.48.44 11.18.98 6.16.42 12.43 1.39 18.59.4 2.56.41 5.15.35 7.73l-2.04-.3c-.26-3.42.27-7.18-1.75-10.19-1.1-1.44-1.01-3.22-.78-4.91.7-3.55-.31-7.03-1.08-10.46 3.51-4.09 1.05-9.5.93-14.24-.06-6.62-.47-13.23-.69-19.84z"/><path fill="#767b6e" d="M298.76 126.14c1.06 2.25 2.63 4.5 2.48 7.11-.25 5.65.55 11.35-.42 16.96-.52-2.5-.27-5.24-1.59-7.5a148.39 148.39 0 0 0-2.35 3.6c-.95-3.43-1.83-6.95-1.32-10.53.33-2.25-1-4.77.45-6.77.73.82 1.22 1.82 1.68 2.83.29-1.92.71-3.8 1.07-5.7z"/><path fill="#f9fafc" d="M277.97 127.14l1.77.01.43.77-.35.81-1.77.27-.08-1.86z"/><path fill="#f6f4fb" d="M282.9 128.59l-.08-.59.08.59z"/><path fill="#eef3f6" d="M278.96 130.28h.81l.4.72-.4.73h-.82l-.4-.72.41-.73z"/><path fill="#e8e7ee" d="M282.24 130.09c2.6.13-.63 3.56-1.07 1.11l1.07-1.11z"/><path fill="#f4f7f7" d="M278.06 132.86l1.7.32.29.81-1.3 1.28-.78-.51.09-1.9z"/><path fill="#dfdeea" d="M281.45 133.17c1.41-.37 1.92.14 1.52 1.51-1.42.36-1.93-.14-1.52-1.51z"/><path fill="#070707" opacity=".2" d="M301.9 133.05c1.05.24 1.81.94 2.28 2.1l-1.53 4.87c-1.28-2.13-1.13-4.61-.75-6.97z"/><path fill="#ebba9a" d="M273.92 135.79l3.1-.83-.15 7.76-1.75 9.35c-.78 3.17-2.83 5.77-4.46 8.52-1.24 2.05-2.41 4.26-4.48 5.6-3.7 2.5-7.12 5.48-11.28 7.22-1.05-.81-2.08-1.65-3.09-2.51.18-1.68 0-3.56 1.12-4.96 3.87-5.1 9.24-9.16 11.91-15.1.95-1.65 1.95-3.28 3.15-4.77 3.03-2.75 3.81-6.92 5.93-10.28z"/><path fill="#7e7169" d="M277.02 134.96l.95-.2.78.51c.53 6.14 1.37 12.27.85 18.45-.43 2.65-.57 5.33-.73 8.01-1.33.07-2.65.15-3.97.27 1.47-.79 1.99-2.43 1.98-4 .2-5.09.31-10.19-.01-15.28l.15-7.76z"/><path fill="#edecf6" d="M282.19 136.27h.82l.41.72-.4.72h-.82l-.41-.72.4-.72z"/><path fill="#43403e" d="M284.37 135.92c2.65 7.28.4 15.23 2.06 22.66 1.9 4.62 1.16 9.7 2.45 14.47.25 6.07-1.65 12.02-.97 18.09l-.85-.33c.01-2.37.54-4.94-.9-7.03l.82-1.93c.13-1.28.12-2.56-.02-3.83-.22-3.56-3.17-6.49-2.46-10.14.14-2.03.25-4.06.32-6.1l.19-1.82.12-1.89c.16-3.42.17-6.85-.15-10.26l-.86-8.99.25-2.9z"/><path fill="#cfcdd8" d="M282.13 139.21l1.99-.39.86 8.99c-.54 1.1-.58 2.83-1.95 3.26-.58-.95-.93-2.01-.78-3.12.18-2.91-.14-5.82-.12-8.74z"/><path fill="#aeb3a6" d="M292.94 139.91l.87.28c1.94 3.94 1.89 8.46 2.05 12.75.98 7.91 1 15.88 2 23.8l-1.57.25c.89 3.97.83 8.03.78 12.06-.14 2.1.65 4.08 1.67 5.87l1.24 2.05c-.66 2.94-1 5.95-1.07 8.96l-1.91.77c-1.07-3.12-.99-6.44-.84-9.69.16-3.03-.57-5.99-1.06-8.95.06-2.58.05-5.17-.35-7.73-.97-6.16-.41-12.43-1.39-18.59-.57-3.7-.88-7.45-.44-11.18.3-3.55-.82-7.11.02-10.65z"/><path fill="#404344" d="M248.03 146.03c2.71-2.02 5.67-3.83 8.89-4.93 3.31 1.1 6.76 1.76 10.04 3l1.03 1.97c-1.2 1.49-2.2 3.12-3.15 4.77l-.73.01-.48-.58c.66-.96 1.32-1.92 1.93-2.92l-1.63-.79-.77-1.52c-4.49-.83-8.75 1.26-12.23 3.9l-3.94 3-1.33-1.17c.75-1.6 1.33-3.3 2.37-4.74z"/><path fill="#686563" opacity=".94" d="M256.92 141.1c3.03-.94 6.18-.37 9.02.88l1.02 2.12c-3.28-1.24-6.73-1.9-10.04-3z"/><path fill="#d7a887" d="M275.12 152.07c.77-3.08 1.11-6.24 1.75-9.35.32 5.09.21 10.19.01 15.28.01 1.57-.51 3.21-1.98 4l-1.55.46-.18 5.38-3.02 2.25-.66 3.57a116.11 116.11 0 0 0-.58 3.25l-.1.96-4.67-.21c-3.15-1.23-6.49-2.19-9.24-4.25 4.16-1.74 7.58-4.72 11.28-7.22 2.07-1.34 3.24-3.55 4.48-5.6 1.63-2.75 3.68-5.35 4.46-8.52z"/><path opacity=".08" d="M302.79 148.22c-.13-1.88-.03-3.79.75-5.54l7.19 4.64c2.1 1.25 4.92-.42 6.87 1.17 3.85 2.97 8.65 4.39 12.34 7.59 1.12.86 2.15 1.91 3.48 2.47 1.42.11 2.84-.05 4.26.03 1.88.56 3.56 1.63 5.44 2.2 2-.22 3.9-.91 5.83-1.42l-.66 4.24c3.67-.22 7.42-.02 10.71 1.83l1.85-.73c1.34 1.52 2.69 3.05 4.16 4.45 1.27-1.16 2.49-2.38 3.63-3.68l1.37 2.56a21.42 21.42 0 0 1 9.47 4.55c3.49-.06 6.92.58 10.35 1.26.81 1.08.7 2.58 1.07 3.84 1.31-.55 2.59-1.24 3.99-1.55 2.63.79 4.82 2.52 7.25 3.75 1.67-.51 3.27-1.42 5.02-1.59 1.81.58 3.27 1.92 5.06 2.58 2.64.13 5.34-.39 7.91.51 2.15-.51 4.15-2.01 6.46-1.19l.85 4.5c2.28.13 4.56.16 6.85.07l.17-2.57a48.59 48.59 0 0 1 4.08.87l-1.46 3.74c2.78-.33 4.4-2.57 5.88-4.7 2.92.86 5.1 2.97 5.94 5.91.81-.88 1.6-1.77 2.49-2.57 3.34-.62 6.11 1.89 8.78 3.5 1.63-.51 3.23-1.14 4.88-1.62 2.99.62 5.33 2.88 8.01 4.25 2.76-2.73 6.36-4.25 10-5.44 1.55 1.28 2.62 3 3.79 4.6l2.34-3.51 1.98 3.35c2.15-.47 4.35-1.36 6.55-.65l-2.83 3.24 1.23.77c3.04.19 2.62-3.87 2.4-5.91 1.43.74 2.91 1.42 4.4 2.06 1.27-1.55 2.29-3.28 3.34-4.98 1.81 1.31 1.08 3.74 1.25 5.64 1.29 1.14 2.97.63 4.49.36v38.83c-1.82-.65-3.79-1.47-5.73-.83-1.45.8-2.8 1.76-4.18 2.66-2.47-2.32-3.17-5.72-4.78-8.58l-2.11 4.76-3.21-2.48c-1.87.99-3.71 2.18-5.83 2.55-2.07-1.74-3.63-3.96-5.33-6.04-1.06.59-1.23 1.8-1.56 2.85-1.95-1.05-4.08-1.62-6.29-1.71-2.64-.07-4.82-2.85-7.52-1.82-.98 1.04-1.78 2.21-2.62 3.36l-1.84-2.29a95.92 95.92 0 0 0-3.84.59c-1.69-1.58-2.55-4.12-4.97-4.74l.23 3.63c-2.47.2-4.84 2.25-7.24 1.57a82.05 82.05 0 0 1 1.34-2.42c-.32-1.07-.54-2.25-1.49-2.96-1.59.66-3.15 1.47-4.85 1.79-2.7.36-5.37-.4-8.06-.51-1.15.43-2.22 1.04-3.3 1.6-.58-1.52-1.19-3.03-1.84-4.51-3.6.15-7.11 1-10.57 1.99-1.51-3.7-6.2-3.3-9.15-1.73-1.01-.57-2.04-1.1-3.11-1.53l-3.18 1.69-1.35-2.22c-2.96-.08-5.7 1.15-8.48 1.98l-.41-4.32c-2.79-.06-5.55 1.08-8.33.42-3.9-.89-7.69-2.22-11.66-2.78-.87-.14-1.67.36-2.48.56l.15-2.58c-1.82.41-3 1.95-4.36 3.09l-2.01-2.73-2.34 1.09c-2.51-.93-5.15-1.03-7.53.33.23-1.53.96-3.14.25-4.64-3.35 3.02-8.55 1.35-11.61 4.86-1.14-.85-1.71-2.18-2.52-3.3-1.44-.93-3.23-.95-4.88-.98l-1.63 2.42-1.83-.55-.7-2.05c-1.81.15-3.57-.29-5.2-1.03.46 1.98.61 4.11 1.61 5.92 1.05 1.16 2.19 2.24 3.25 3.41-1.39.74-2.74 1.54-4.03 2.43.2 3.02 2.4 5.3 3.8 7.83-.99 1.2-2.04 2.33-3.14 3.41-1.74-7.1-3.79-14.15-4.31-21.48-.78-1.35-1.66-2.64-2.54-3.91l.66-.42 1.61-.92c.61-2.84-.59-5.67-1.37-8.36-.99-3.55-4-5.9-6.01-8.84-1.61-2.03-2.79-4.89-5.64-5.38l-2.49-.41c-.59-1.42-1-2.96-1.93-4.21-1.14-.59-2.36-1-3.55-1.44-1.48-2.03-1.37-4.61-1.48-7 .02-1.69-.21-3.48.47-5.08 1.03-.47 2.89-.6 2.7-2.19.1-3.21 1.3-6.31 1.13-9.53z"/><path fill="#716e6d" d="M250.93 148.94c3.48-2.64 7.74-4.73 12.23-3.9l.77 1.52 1.63.79c-.61 1-1.27 1.96-1.93 2.92-2.44-.58-3.58-4.55-6.34-3.09-1.08 3.03 1.68 4.93 3.97 6.16-1.96 2.02-4.07 3.89-6.07 5.87-.52-1.26-1.09-2.5-1.74-3.7l-.69-.01h-.74l-1.64.03c-1.96-1.96-.48-4.58.55-6.59z"/><path fill="#8c8b8f" d="M257.29 147.18c2.76-1.46 3.9 2.51 6.34 3.09l.48.58c-1.01.77-1.94 1.61-2.85 2.49-2.29-1.23-5.05-3.13-3.97-6.16z"/><path fill="#545555" d="M246.99 151.94l3.94-3c-1.03 2.01-2.51 4.63-.55 6.59l1.64-.03h.74l.69.01c.65 1.2 1.22 2.44 1.74 3.7l-1.08 1.84-2.03-.8c-3.56.68-7.04 1.93-10.17 3.74l.04-3.18.18-2.68 1.59-.5.43-.89-.3-1.87c-.01-1.16.09-2.31.29-3.46l1.52-.64 1.33 1.17z"/><path fill="#c79b7f" d="M261.26 153.34c.91-.88 1.84-1.72 2.85-2.49l.73-.01c-2.67 5.94-8.04 10-11.91 15.1-1.12 1.4-.94 3.28-1.12 4.96-3-3.27.32-7.09 2.3-9.85l1.08-1.84c2-1.98 4.11-3.85 6.07-5.87z"/><path fill="#72766b" d="M298.22 151.52l2.36.5c.19 1.57 1.05 3.16.57 4.75-.68 1.1-1.46 2.11-2.19 3.17-.68 1.6-.45 3.39-.47 5.08.11 2.39 0 4.97 1.48 7l3.78 6.06c-1.56 1.04-3.32.61-4.99.18l-.9-1.52c-1-7.92-1.02-15.89-2-23.8l2.36-1.42z"/><path fill="#eae9f1" d="M282.49 152.1c1.43-.35 1.94.16 1.55 1.52-1.43.34-1.95-.17-1.55-1.52z"/><path fill="#6d727c" d="M278.87 161.73l.73-8.01c.24 2.81.6 5.62 1.2 8.38l-2.97.72-3.51.36c-.14 2.39-.33 4.84.33 7.17 1.83.46 3.71.33 5.58.32l.77 1.34-3.68.45-.11 4.46.03.9c-1.76-2.73-5.68-.71-8.33-.91l.58-3.25c1.37.81 2.75 1.75 4.43 1.62a33.85 33.85 0 0 0-1.13-3.93l-2.64-1.26 3.02-2.25.18-5.38 1.55-.46 3.97-.27z"/><path fill="#6d6c69" opacity=".95" d="M242.13 158.13c-.36-1.34.17-3.03 1.72-3.26l.3 1.87-.43.89-1.59.5z"/><path fill="#c8c3c4" d="M252.02 155.5h.74-.74z"/><path fill="#e1e1ec" d="M282.46 155.14c1.43-.35 1.94.16 1.53 1.52-1.43.34-1.94-.16-1.53-1.52z"/><path fill="#e8e4ee" d="M283.32 158.21l1.81-.14-.12 1.89-1.76-.19-.35-.79.42-.77z"/><path fill="#605f5b" d="M241.91 163.99c3.13-1.81 6.61-3.06 10.17-3.74l2.03.8c-1.98 2.76-5.3 6.58-2.3 9.85 1.01.86 2.04 1.7 3.09 2.51 2.75 2.06 6.09 3.02 9.24 4.25-2.91.51-5.78 1.25-8.68 1.8-3.33.64-6.74.38-10.09.76l-.53 3.55-.77.38c-1.03-2.91-.97-6.02-1.12-9.05-1.38.58-2.27 1.8-3.14 2.95.21-3.4.78-6.75 1.16-10.12.91.71 1.81 1.45 2.65 2.26.18.34.52 1.03.69 1.38 1.24.36 2.52.15 3.78.01-.95-1.47-1.55-3.11-1.89-4.81l2.63-2.79c-2.4.33-4.67 1.15-6.94 1.94l.02-1.93z"/><path fill="#363635" opacity=".86" d="M240.97 167.93c-1.12-2.44-.11-4.89.98-7.12l-.04 3.18-.02 1.93c2.27-.79 4.54-1.61 6.94-1.94l-2.63 2.79c-.97 1.05-1.82 2.2-2.58 3.42-.84-.81-1.74-1.55-2.65-2.26z"/><path fill="#e3e2f0" d="M277.83 162.82l2.97-.72 2 1.96.11 5.8-2.85-.03c-.54-2.4-1.44-4.69-2.23-7.01z"/><path fill="#87888b" d="M282.8 164.06c-.04-1.35.63-2.11 2.02-2.28l-.32 6.1c-.71 3.65 2.24 6.58 2.46 10.14-2.64-.48-1.96 2.15-1.89 3.83h1.91l-.82 1.93-3.87.55c-.59 2.85-.66 5.77-.63 8.67.07 2.47-.15 5.09 1.1 7.34a39.75 39.75 0 0 1 .89 2.87l.76 2.64c1.55.37 3.13.63 4.73.58-1.86.75-4.69.37-5.4 2.71-.99-1.27-2.61-2.39-2.38-4.2 0-6.67-.3-13.38-1.51-19.95l-1.56-1.98a81.54 81.54 0 0 1 1.65-.25c1.14-2.42-1.45-4.16-2.73-5.84-.03-1.49.03-2.98.11-4.46l3.68-.45-.77-1.34-.17-.84 2.85.03c.04-1.93-.02-3.87-.11-5.8z"/><path fill="#bfc1ce" d="M274.32 163.18l3.51-.36 2.23 7.01.17.84c-1.87.01-3.75.14-5.58-.32-.66-2.33-.47-4.78-.33-7.17z"/><path fill="#8a8988" d="M243.62 170.19c.76-1.22 1.61-2.37 2.58-3.42.34 1.7.94 3.34 1.89 4.81-1.26.14-2.54.35-3.78-.01l-.69-1.38z"/><path fill="#c0c1cb" d="M270.15 170.09l2.64 1.26a33.85 33.85 0 0 1 1.13 3.93c-1.68.13-3.06-.81-4.43-1.62l.66-3.57z"/><path fill="#575654" d="M299.97 172.02l3.55 1.44c.93 1.25 1.34 2.79 1.93 4.21-.59 1.12-1.12 2.27-1.59 3.44.05 2.16 1.71 3.88 3.15 5.33 2.01-.69 3.63-2.34 4.18-4.41l-3.25-3.95c2.85.49 4.03 3.35 5.64 5.38 2.01 2.94 5.02 5.29 6.01 8.84.78 2.69 1.98 5.52 1.37 8.36l-1.61.92c-4.38-3.21-4.33-9.2-7.52-13.29-1.93.35-4.46.74-5.25 2.81-.28 2.91.11 5.83.37 8.74 3.18 2.96 7.86 1.26 11.74 2.16.88 1.27 1.76 2.56 2.54 3.91l-1.02 3.05c-.59-.95-.67-2.98-2.21-2.75-1.95.39-3.7 1.57-5.01 3.04-.63 1.44.83 2.8 1.16 4.18l-1.51.58-2.51.2-.8-.27-2.16-.8.32-1.73c-1.43-.48-2.49-1.48-3.17-2.81l-3.41-.67c-.15-2.26.15-4.84 2.73-5.47-.06-2.35-2.42-3.71-3.66-5.49l-1.24-2.05c1.31-5.45 2.34-11.31.02-16.66 1.67.43 3.43.86 4.99-.18-1.06-2.14-2.5-4.05-3.78-6.06z"/><path fill="#a1a592" d="M288.88 173.05l1.65-.39c-.23 1.69-.32 3.47.78 4.91 2.02 3.01 1.49 6.77 1.75 10.19-1.51.6-2.92 1.69-2.85 3.48-.61 2.68 1.35 4.77 2.69 6.83a93.74 93.74 0 0 1-1.96 4.04l-.81-.25c-.96-3.53-1.42-7.16-2.22-10.72-.68-6.07 1.22-12.02.97-18.09z"/><path fill="#4e504f" d="M239.81 178.05c.87-1.15 1.76-2.37 3.14-2.95.15 3.03.09 6.14 1.12 9.05-1.11.97-2.13 2.03-3.16 3.09l2.41 1.47.36 3.14c3.98 1.24 7.99 2.66 12.21 2.6 1.85-.01 2.14 2.33 3 3.55-1.24-.29-2.49-.56-3.73-.81-5.57-.96-11.11-2.83-16.82-2.19-.54-.96-1.1-1.9-1.69-2.82-1.92-.69-4.02-.5-6.03-.67 1.06-2.17 1.79-4.57 3.48-6.36 2.04-2.28 5.38-3.69 5.71-7.1z"/><path fill="#212326" d="M268.91 176.91c2.65.2 6.57-1.82 8.33.91.23 1.72-.19 3.77 1.05 5.19l1.56 1.98c-1.83 4.88.05 10.01.51 14.95-.79 2.45-2.25 4.6-3.17 7l-.12-3.13c-.01-2.46-.4-4.98-2.04-6.92-2-2.16-1.22-5.54-3.36-7.59l-3.55.46-.37-2.46c.52-1.54 1.29-2.98 1.84-4.51.27-1.67-.53-3.29-.78-4.92l.1-.96z"/><path fill="#919398" d="M277.21 176.92c1.28 1.68 3.87 3.42 2.73 5.84l-1.65.25c-1.24-1.42-.82-3.47-1.05-5.19l-.03-.9z"/><path fill="#80837d" d="M296.29 176.99l1.57-.25.9 1.52c2.32 5.35 1.29 11.21-.02 16.66-1.02-1.79-1.81-3.77-1.67-5.87.05-4.03.11-8.09-.78-12.06z"/><path fill="#4c4a46" d="M255.46 179.46l8.68-1.8 4.67.21c.25 1.63 1.05 3.25.78 4.92l-1.84 4.51c-1.56-.44-3.14-.8-4.73-1.02-1.1.8-1.94 2.7-3.55 2.13-2.69-1.08-4.22-3.94-6.94-5.01-2.49-1-5.18-.03-7.69.37l.53-3.55c3.35-.38 6.76-.12 10.09-.76z"/><path fill="#c8c7cf" d="M285.07 181.85c-.07-1.68-.75-4.31 1.89-3.83.14 1.27.15 2.55.02 3.83h-1.91z"/><path fill="#686665" d="M305.45 177.67l2.49.41 3.25 3.95c-.55 2.07-2.17 3.72-4.18 4.41-1.44-1.45-3.1-3.17-3.15-5.33.47-1.17 1-2.32 1.59-3.44z"/><path fill="#3e3d3b" d="M244.84 183.77c2.51-.4 5.2-1.37 7.69-.37 2.72 1.07 4.25 3.93 6.94 5.01 1.61.57 2.45-1.33 3.55-2.13 1.59.22 3.17.58 4.73 1.02l.37 2.46c.53 3.79 4.01 8.12 1.02 11.64-1.23-1.75-1.93-4.47-4.47-4.55-.37 2.18-.41 4.5-1.59 6.45-1.13-1.04-2.25-2.11-3.21-3.31l-.98-1.99c-.86-1.22-1.15-3.56-3-3.55-4.22.06-8.23-1.36-12.21-2.6l-.36-3.14a36.88 36.88 0 0 1-2.41-1.47c1.03-1.06 2.05-2.12 3.16-3.09l.77-.38z"/><path fill="#b6b7bf" d="M282.29 184.33l3.87-.55c1.44 2.09.91 4.66.9 7.03l-.19 4.97-2.59.45-.09 2.56 2.6.13-.08.84-3.95.58c-1.25-2.25-1.03-4.87-1.1-7.34-.03-2.9.04-5.82.63-8.67m1.99 1.86l-.37.82.33.81.84.32.85-.35.37-.82-.33-.8-.84-.33-.85.35m.26 7.83c2.43.15 1.68-3.38 1.45-4.94-3.13-.74-1.52 3.24-1.45 4.94z"/><path fill="#010101" opacity=".79" d="M280.36 199.94c-.46-4.94-2.34-10.07-.51-14.95 1.21 6.57 1.51 13.28 1.51 19.95-.23 1.81 1.39 2.93 2.38 4.2.07 2.01 1.16 4.46-.6 6.05-2.15-2.07-5.38-2.64-7.26-4.94l1.31-3.31c.92-2.4 2.38-4.55 3.17-7z"/><path fill="#d7d5e1" d="M284.28 186.19l.85-.35.84.33.33.8-.37.82-.85.35-.84-.32-.33-.81.37-.82z"/><path fill="#84887a" d="M290.21 191.24c-.07-1.79 1.34-2.88 2.85-3.48l2.04.3c.49 2.96 1.22 5.92 1.06 8.95-.15 3.25-.23 6.57.84 9.69l1.91-.77-.16 2.59-2.89 1.67-2.63-1.42c-.54-2.29-1.17-4.58-2.29-6.66l1.96-4.04c-1.34-2.06-3.3-4.15-2.69-6.83z"/><path fill="#666768" d="M306.58 191.1c.79-2.07 3.32-2.46 5.25-2.81 3.19 4.09 3.14 10.08 7.52 13.29l-.66.42c-3.88-.9-8.56.8-11.74-2.16-.26-2.91-.65-5.83-.37-8.74z"/><path fill="#53524d" d="M268.12 189.76l3.55-.46c2.14 2.05 1.36 5.43 3.36 7.59 1.64 1.94 2.03 4.46 2.04 6.92-1.67 1.46-2.48 3.6-4.04 5.14-1.37-.66-2.74-1.34-3.99-2.21l-1.71-2.11-2.34-.42c-.12 2.35.33 4.67 1.16 6.86l1.94-.94c2.19 2.39 5.21.86 7.79.12 1.88 2.3 5.11 2.87 7.26 4.94 1.76-1.59.67-4.04.6-6.05.71-2.34 3.54-1.96 5.4-2.71l1.68-.54-.69-4.03.81.25c1.12 2.08 1.75 4.37 2.29 6.66-2.68.88-5.5 1-8.28 1.2l-.44 2.95 3.27 1.3c2.22 1.1 3.42 3.25 3.35 5.72l.22 1.67 2.61.53c1.21.98 2.54 2.04 2.78 3.68-1.82-.01-3.48-.69-4.88-1.83-1.04-.65-2.13-1.19-3.23-1.71-.08-1.48-.17-2.97-.57-4.4l-.21-.86-.89-.43-1.96-.81-2.78 2.85c-2.56-3.89-7.87-3.63-11.97-4.47-.37 2.06 2.08 2.29 3.3 3.32 1.09 1.77-.73 3.4-1.56 4.83l-1.77-.18c-1.87 1.28-1.8 3.89-2.2 5.89l2.84.14 1.22-2.24c2.42 2.6 6.75.1 9.07 2.94-4.87 2.17-11.31-2.64-15.49 1.97l-3.36-.6c.51-1.49 1.97-2.15 3.18-2.97l.35-2.1c-1.86.05-3.51.94-5.05 1.88-1.39-.89-2.24-2.32-3.23-3.57l-1.37-.32c-5.73-.74-11.25-2.53-16.98-3.17l-.27-.98c4.33-.12 8.72-.01 12.89 1.27 3.3.89 6.71 2.35 10.17 1.62.92-2.59-.9-4.86-1.47-7.27-.45-2.11-.69-4.25-1.15-6.35 1.47-.38 4.06 0 3.71-2.29-2-.14-3.98-.37-5.97-.46a5.32 5.32 0 0 0 1.94-2.5l.82-3.03c.96 1.2 2.08 2.27 3.21 3.31 1.18-1.95 1.22-4.27 1.59-6.45 2.54.08 3.24 2.8 4.47 4.55 2.99-3.52-.49-7.85-1.02-11.64z"/><path fill="#cbcad5" d="M284.54 194.02c-.07-1.7-1.68-5.68 1.45-4.94.23 1.56.98 5.09-1.45 4.94z"/><path fill="#7f8b9a" d="M287.06 190.81l.85.33c.8 3.56 1.26 7.19 2.22 10.72-2.21.08-4.91-.72-6.48 1.35a39.75 39.75 0 0 0-.89-2.87l3.95-.58.08-.84.08-3.14a137.54 137.54 0 0 1 .19-4.97z"/><path fill="#616361" d="M228.24 198.62c.04-2.58 1.13-4.91 2.38-7.11 2.01.17 4.11-.02 6.03.67l1.69 2.82c-.61 2.38-2.14 4.22-4.37 5.23l-1.54.96c2.1.57 4.26.94 6.45.85-1 .48-1.94 1.07-2.71 1.88-1.91 2.82-4.07 5.47-6.15 8.16-.87-4.1.06-8.09 1.66-11.87l-3.44-1.59z"/><path fill="#6f7172" d="M238.34 195c5.71-.64 11.25 1.23 16.82 2.19-3.88 1.88-8.04-.48-12.02-.7-1.31.33-.56 1.6-.48 2.51-2.97-.67-5.81.74-8.69 1.23 2.23-1.01 3.76-2.85 4.37-5.23z"/><path fill="#616262" d="M243.14 196.49c3.98.22 8.14 2.58 12.02.7l3.73.81.98 1.99-.82 3.03c-4.94-3.14-10.86-2.93-16.39-4.02-.08-.91-.83-2.18.48-2.51z"/><path fill="#dbd9e5" d="M284.28 196.23l2.59-.45-.08 3.14-2.6-.13.09-2.56z"/><path fill="#777779" d="M299.98 196.97c1.24 1.78 3.6 3.14 3.66 5.49-2.58.63-2.88 3.21-2.73 5.47l3.41.67c.68 1.33 1.74 2.33 3.17 2.81l-.32 1.73-1.11 1.11c-1.27-1.21-2.6-2.35-4.06-3.31l-2.8 1.08 1.02 4.82-.88 1.27c-1.89-.58-3.89-1.49-5.88-.79-.9.76-1.63 1.69-2.33 2.62.07-2.47-1.13-4.62-3.35-5.72 2.96.95 6.11 1.53 9.2.83.01-1.69-.54-3.3-1.12-4.86l2.89-1.67.16-2.59c.07-3.01.41-6.02 1.07-8.96z"/><path fill="#87898c" d="M233.97 200.23c2.88-.49 5.72-1.9 8.69-1.23 5.53 1.09 11.45.88 16.39 4.02a5.32 5.32 0 0 1-1.94 2.5l-1.57-2.31c-5.31-.28-10.6-2.47-15.91-1.32l-.75.15c-2.19.09-4.35-.28-6.45-.85l1.54-.96z"/><path fill="#605c58" d="M239.63 201.89c5.31-1.15 10.6 1.04 15.91 1.32l1.57 2.31c-4.24 1.91-8.85.2-13.15-.62-1.87-.26-3.11-1.72-4.33-3.01z"/><path fill="#454540" d="M238.88 202.04l.75-.15c1.22 1.29 2.46 2.75 4.33 3.01 4.3.82 8.91 2.53 13.15.62 1.99.09 3.97.32 5.97.46.35 2.29-2.24 1.91-3.71 2.29-4.42.77-8.9.23-13.28-.57-3.57-.48-6.54-2.7-9.92-3.78.77-.81 1.71-1.4 2.71-1.88z"/><path fill="#d3ffff" d="M283.65 203.21c1.57-2.07 4.27-1.27 6.48-1.35l.69 4.03-1.68.54c-1.6.05-3.18-.21-4.73-.58l-.76-2.64z"/><path fill="#7e8176" d="M236.17 203.92c3.38 1.08 6.35 3.3 9.92 3.78 4.38.8 8.86 1.34 13.28.57.46 2.1.7 4.24 1.15 6.35.57 2.41 2.39 4.68 1.47 7.27-3.46.73-6.87-.73-10.17-1.62 1.55-.04 3.32.26 4.61-.83.74-2.43 1.12-5.55-.24-7.77-4.08-2.14-8.77-1.3-13.12-.77-2.01-.23-2.42-2.34-2.92-3.92a19.86 19.86 0 0 0-2.91 1.72l1.19 2.2c-2.19 2.41-4.12 5.05-5.46 8.02-1.92.09-3.6-.81-5.2-1.74.82-1.67 1.53-3.39 2.25-5.1 2.08-2.69 4.24-5.34 6.15-8.16z"/><path fill="#2e3033" d="M264.99 204.21l2.34.42 1.71 2.11-.95 3.39-1.94.94c-.83-2.19-1.28-4.51-1.16-6.86z"/><path fill="#676566" d="M273.03 208.95c1.56-1.54 2.37-3.68 4.04-5.14l.12 3.13-1.31 3.31c-2.58.74-5.6 2.27-7.79-.12l.95-3.39c1.25.87 2.62 1.55 3.99 2.21z"/><path fill="#6f6e6e" d="M312.99 209.25c1.31-1.47 3.06-2.65 5.01-3.04 1.54-.23 1.62 1.8 2.21 2.75l-.71 2.06c-1.68 1.02-3.5 1.75-5.35 2.41-.33-1.38-1.79-2.74-1.16-4.18z"/><path fill="#594032" opacity=".66" d="M321.23 205.91c.52 7.33 2.57 14.38 4.31 21.48a235.13 235.13 0 0 1 4.43 20.46c.17 1.97 1.44 3.49 2.47 5.08l-1.24.15-1.95-1.04c-.33-6.16-1.66-12.22-3.07-18.2-2.48-7.53-2.94-15.73-6.68-22.82l.71-2.06 1.02-3.05z"/><path fill="#92938a" d="M237.24 208.7a19.86 19.86 0 0 1 2.91-1.72c.5 1.58.91 3.69 2.92 3.92 4.35-.53 9.04-1.37 13.12.77 1.36 2.22.98 5.34.24 7.77-1.29 1.09-3.06.79-4.61.83-4.17-1.28-8.56-1.39-12.89-1.27l-5.96-.08c1.34-2.97 3.27-5.61 5.46-8.02l-1.19-2.2z"/><path fill="#a3a2a9" d="M284.95 209.97c2.78-.2 5.6-.32 8.28-1.2l2.63 1.42c.58 1.56 1.13 3.17 1.12 4.86-3.09.7-6.24.12-9.2-.83l-3.27-1.3.44-2.95z"/><path fill="#433533" d="M299.2 212.02l2.8-1.08c1.46.96 2.79 2.1 4.06 3.31l-.4 4.46c-.32 2.79-.28 5.6-.02 8.39-3.08-2.14-5.76-5.45-9.86-5.37 1.29-1.1 2.49-2.3 3.56-3.62l.88-1.27c-.22-1.63-.62-3.23-1.02-4.82m3.92 11c.06-2.17.62-5.01-1.22-6.6-2.08 1.66-1.45 5.91 1.22 6.6z"/><path fill="#cf9b7c" d="M319.5 211.02c3.74 7.09 4.2 15.29 6.68 22.82 1.41 5.98 2.74 12.04 3.07 18.2-.28 2.79 1.4 7.11-2.11 8.34-2.39-.42-2.17-3.1-2.54-4.94-.51-4.15-1.3-8.26-1.62-12.43-.33-4.75-2.11-9.22-3.15-13.83-.44-1.11-.49-2.69-1.76-3.22-2.34 4.1-.97 8.98-1.67 13.43-.53 3.63.77 7.11 1.72 10.55.6 1.57-.42 3.24.2 4.81.89 2.41 1.56 5.17 3.96 6.55-2.72.61-5.56.74-8.14-.47-.05-4.95-2.26-9.59-2.07-14.58l1.84-.53 1.24-15.16c-.13-5.59-.63-11.25-2.51-16.55l1.51-.58c1.85-.66 3.67-1.39 5.35-2.41z"/><path fill="#010000" opacity=".07" d="M307.17 213.14l2.16.8c-.11 2.86-.15 5.75.34 8.59 1.05 5.81.79 11.76.42 17.63l-.94-.13c-3.23-3.26.97-7.81-1.88-11.11l-.39-.78c-.12-3.17-.24-6.38-1.22-9.43.09-1.49.2-2.98.4-4.46.27-.28.83-.83 1.11-1.11z"/><path fill="#61637a" d="M270.25 214.16c4.1.84 9.41.58 11.97 4.47l2.78-2.85 1.96.81-.72.44-2.1 1.37-.01 2.56 1.13 1.41c-.8 2.05-1.71 4.06-2.9 5.91-.3.15-.9.43-1.21.58-2.32-2.84-6.65-.34-9.07-2.94l-.04-1.92-.05-1.69c.83-1.43 2.65-3.06 1.56-4.83-1.22-1.03-3.67-1.26-3.3-3.32m6.97 2.9v.8l.74.4.73-.4v-.81l-.74-.4-.73.41z"/><path fill="#31251e" opacity=".61" d="M309.33 213.94l.8.27c.55 3.81.24 7.69.83 11.5-.31 7.16.51 14.33.07 21.49l-2.12-3.53c-.98-3.24-2.87-6.32-2.01-9.83l.37-4.92c2.85 3.3-1.35 7.85 1.88 11.11l.94.13c.37-5.87.63-11.82-.42-17.63-.49-2.84-.45-5.73-.34-8.59z"/><path fill="#c08c6c" d="M310.13 214.21l2.51-.2c1.88 5.3 2.38 10.96 2.51 16.55-.53 5.04-.83 10.11-1.24 15.16-.46.14-1.38.4-1.84.53-.26-3.74-.48-7.49-.4-11.24-.01-3.11.41-6.32-.71-9.3-.59-3.81-.28-7.69-.83-11.5z"/><path fill="#626462" d="M215.89 226.97c3.01-4.43 8.71-5.58 11.88-9.79 1.6.93 3.28 1.83 5.2 1.74l5.96.08.27.98c-4.02.85-8.25.53-12.13 2.02-2.46.9-5.03 1.55-7.34 2.79-.81.91-1.11 2.12-1.58 3.22 4.13-.45 8.02-2.08 12.16-2.52 3.05-.32 6.04-1.71 9.13-1.01 5.17 1.06 10.52 1.82 15.77.91l.97-2.24 1.37.32c.99 1.25 1.84 2.68 3.23 3.57-1.04.88-1.99 1.87-2.93 2.86l1.28 2.03c-.93.99-2.26 2.08-2.06 3.59 1.57-.31 3.04-1.4 3.88-2.74l1.35-2.55 3.36.6c-3.17 3.76-3.51 8.81-3.66 13.5l-.23 1.73c-1.65-.7-3.34-2.19-5.21-1.44-.16 1.08-.89 2.58.2 3.42 1.36.84 3.25.92 4.25 2.27.95 3.33-1.73 6.11-4.12 7.99-1.97.18-2.71-1.89-3.83-3.08-1.02 3.71-3.26 7.15-6.85 8.8l-.61-1.56c3.23-4.46 5.16-9.7 6.34-15.04-.97-.09-1.94-.15-2.91-.19l-2.62 2.94c-1.48.01-3.04-.22-4.43.43l1.82 2.65c-.53 2.25-1.22 4.45-1.87 6.66l4.21-1.74-1.01 3.56c-1.11 1.45-2.18 2.94-3.16 4.48-.49-1.19-1.1-2.33-1.72-3.46l-3.29-.82c-.84-3.09.11-6.43-1.38-9.36.52-2.76 3.07-4.3 4.48-6.56.9-.89 1.79-1.81 2.45-2.9l-2.31-3.33 2.3.64c.77 1.36 1.49 2.76 2.14 4.2 2.57 1.23 4.23-1.39 5.09-3.4l-3.1-.4c.06-1.63.03-3.27-.11-4.89-2.65-3.03-7.05-1.69-10.58-2.2-2.79.2-6.05-1.1-8.48.74-3.56 2.68-8.11 3.72-11.36 6.85l-1.56-1.47c1.37-4.19.56-8.61 1.35-12.88m32.01 5.05c.62.85 1.34 1.62 2.16 2.31 1.64-.64 3.22-1.49 4.51-2.71.34-1.53.01-3.12.01-4.67-3.16-.45-5.05 2.9-6.68 5.07z"/><path fill="#bbb9c6" d="M277.22 217.06l.73-.41.74.4v.81l-.73.4-.74-.4v-.8z"/><path fill="#6f7382" d="M284.14 218.4l2.1-1.37.32.71 1.5.14c.4 1.43.49 2.92.57 4.4l3.23 1.71.28 2.51c-2.77 1.56-5.93 1.74-9.03 1.73l-.75.05c1.19-1.85 2.1-3.86 2.9-5.91 1.84-1.12-.1-3.67-1.13-1.41l.01-2.56m6.13 6.89v.46h.46v-.46h-.46z"/><path fill="#d4d1dc" d="M286.24 217.03l.72-.44.89.43.21.86-1.5-.14-.32-.71z"/><path fill="#e0dde9" d="M293.46 217.32c1.99-.7 3.99.21 5.88.79-1.07 1.32-2.27 2.52-3.56 3.62l-1.82.41-2.61-.53-.22-1.67c.7-.93 1.43-1.86 2.33-2.62z"/><path fill="#858187" d="M303.12 223.02c-2.67-.69-3.3-4.94-1.22-6.6 1.84 1.59 1.28 4.43 1.22 6.6z"/><path fill="#1d1614" opacity=".59" d="M305.64 227.1c-.26-2.79-.3-5.6.02-8.39.98 3.05 1.1 6.26 1.22 9.43l-1.24-1.04z"/><path fill="#918f86" d="M227.07 222c3.88-1.49 8.11-1.17 12.13-2.02 5.73.64 11.25 2.43 16.98 3.17l-.97 2.24c-5.25.91-10.6.15-15.77-.91-3.09-.7-6.08.69-9.13 1.01-4.14.44-8.03 2.07-12.16 2.52.47-1.1.77-2.31 1.58-3.22 2.31-1.24 4.88-1.89 7.34-2.79z"/><path fill="#bbbac7" d="M284.13 220.96c1.03-2.26 2.97.29 1.13 1.41l-1.13-1.41z"/><path fill="#6b7186" d="M268.02 228.02c.4-2 .33-4.61 2.2-5.89-.07 1.24.53 1.86 1.82 1.87l.04 1.92-1.22 2.24-2.84-.14z"/><path fill="#999dae" d="M270.22 222.13l1.77.18.05 1.69c-1.29-.01-1.89-.63-1.82-1.87z"/><path fill="#606177" d="M293.96 222.14l1.82-.41c4.1-.08 6.78 3.23 9.86 5.37l1.24 1.04.39.78c-.08 1.64-.23 3.28-.37 4.92l-2.27.98c-.57 2.24-1.05 4.57-2.47 6.46-.71-3.17-1.66-6.36-4.17-8.59.27-2.19.76-4.33 1.06-6.5-1.3.92-2.24 2.21-3.18 3.47-1.39-.87-2.5-2.09-3.73-3.16l-.28-2.51c1.4 1.14 3.06 1.82 4.88 1.83-.24-1.64-1.57-2.7-2.78-3.68m8.11 9.84c1.75.44 4.95-.44 3.72-2.81-1.89-.36-4.01.58-3.72 2.81z"/><path fill="#7b7770" d="M260.78 227.04c1.54-.94 3.19-1.83 5.05-1.88l-.35 2.1c-1.21.82-2.67 1.48-3.18 2.97l-1.35 2.55-1.82-.85-1.28-2.03 2.93-2.86z"/><path fill="#b0abb4" d="M290.27 225.29h.46v.46h-.46v-.46z"/><path fill="#565657" d="M295.87 229.66c.94-1.26 1.88-2.55 3.18-3.47l-1.06 6.5c2.51 2.23 3.46 5.42 4.17 8.59l-.97 1.53-.99 1.45-1.31.6c-1.72-1.27-3.49-2.46-5.37-3.48-1.6-.68-1.49-2.66-2.03-4.05l-.98 1.23c-2.84.06-5.5-1.27-8.16-2.13-.52-2.76.16-5.52.76-8.2 3.1.01 6.26-.17 9.03-1.73 1.23 1.07 2.34 2.29 3.73 3.16z"/><path fill="#835f48" d="M310.96 225.71c1.12 2.98.7 6.19.71 9.3-.08 3.75.14 7.5.4 11.24-.19 4.99 2.02 9.63 2.07 14.58l-.81.34c-1.14-1.5-2.05-3.16-2.32-5.05.13-2.97.13-5.95.02-8.92.44-7.16-.38-14.33-.07-21.49z"/><path fill="#e4b296" d="M318.07 225.96c1.27.53 1.32 2.11 1.76 3.22 1.04 4.61 2.82 9.08 3.15 13.83.32 4.17 1.11 8.28 1.62 12.43.37 1.84.15 4.52 2.54 4.94l-4.86.92c-2.4-1.38-3.07-4.14-3.96-6.55-.62-1.57.4-3.24-.2-4.81-.95-3.44-2.25-6.92-1.72-10.55.7-4.45-.67-9.33 1.67-13.43z"/><path fill="#545553" d="M213.45 233.33c.79-2.13 1.24-4.4 2.44-6.36-.79 4.27.02 8.69-1.35 12.88l1.56 1.47c-.96 1.57-1.89 3.42-3.99 3.48l1.12 2.87c4.71-4.4 9.98-9.12 16.74-9.56 5.56-.25 11.16-.64 16.55-2.18.14 1.62.17 3.26.11 4.89l3.1.4c-.86 2.01-2.52 4.63-5.09 3.4-.65-1.44-1.37-2.84-2.14-4.2l-2.3-.64c-2.46.06-4.95.37-7.3 1.11-4.41 2.68-6.87 7.5-8.79 12.11-1.46 4.81-1.7 9.91-1.64 14.91-.31 2.36.09 4.65 1.08 6.81-.01.47-.05 1.4-.07 1.87 1.67 2.21 4.01 3.83 6.48 5.05l.75.39c1.41 1.6 2.44 3.88 4.67 4.49 2.41.77 4.88 1.51 7.43 1.68 1.62-.28 3.13-.98 4.75-1.3 2.51-.15 5.35.68 7.46-1.15l1.45-1.33a47.68 47.68 0 0 1 2.03 1.23c-4.02 3.19-8.75 5.31-13.44 7.31-2.64 1.31-5.5.31-8.21-.13-2.04-.44-4.1 1.11-6.07.22-3.29-1.29-6.55-2.73-9.98-3.62 2.26 3.55 5.72 6.22 9.22 8.5 2.09 2.87 6.35 2.13 8.24 5.11-1.56 1.06-3.39 1.55-5.19 2.01-2.42-2.31-4.93-4.54-7.77-6.33-3.56-2.01-4.9-6.18-6.25-9.78-.52-2.02 2.11-2.64 2.58-4.31.41-2.79.19-5.63-.11-8.41-.3-2.88-1.97-5.39-2.32-8.26-.47-3.13-.29-6.45-1.87-9.3-1.13-2.01-1.47-4.29-1.53-6.56l2.98-.14c3.45-2.17 5.45-5.96 7.92-9.1-2.13.68-4.43 1.15-6.23 2.54-.95 1.17-1.75 2.44-2.61 3.68-2 .4-4.02.68-6.03 1.02l-.1-.86-1.49-.49c-.63-2.8-1.05-5.76-.3-8.58.94-2.39 2.59-4.43 3.51-6.84z"/><path fill="#787876" d="M247.9 232.02c1.63-2.17 3.52-5.52 6.68-5.07 0 1.55.33 3.14-.01 4.67-1.29 1.22-2.87 2.07-4.51 2.71-.82-.69-1.54-1.46-2.16-2.31z"/><path fill="#7d7a73" d="M282.36 228.28l.75-.05c-.6 2.68-1.28 5.44-.76 8.2 2.66.86 5.32 2.19 8.16 2.13l.98-1.23c.54 1.39.43 3.37 2.03 4.05 1.88 1.02 3.65 2.21 5.37 3.48l1.31-.6c-.91 1.02-1.92 1.95-2.9 2.9-.68 1.13-1.18 2.35-1.61 3.59-1.61 4.57-1.62 9.6-3.95 13.93-2.88 6.63-5.59 13.71-11.3 18.5l-.59-1.62c-4.38.96-8.36 3.4-12.89 3.74-5.68.75-10.75-2.45-15.86-4.37-3.24-2.27-7.49-2.81-10.25-5.81-4.55-4.24-6.2-10.6-6.59-16.61-.24-2.09.65-4.03 1.32-5.94 1.49 2.93.54 6.27 1.38 9.36.56 2.79 1.14 5.67 2.9 8 .96 2.19 1.95 4.64 4.27 5.71l1.28-.64c.51.86 1.12 1.66 1.73 2.45 1.27-.25 2.54-.52 3.83-.65 2.19.64 4.03 2.07 6.07 3.06 3.51 1.91 7.62 1.88 11.49 2.41 2.14.22 4.76.29 6.27-1.53 2.66-3.07 5.34-6.17 7.24-9.79 2.14-3.95 5.41-7.86 4.79-12.65-.5-3.7 1.16-7.14 1.83-10.69l.66-3.46 3.77-.05c-1.84-2.16-4.25-3.94-7-4.7l-1.35.44c-2.02 1.56-3.89 3.32-5.53 5.27.42 2.53.97 5.1.53 7.67-2.51.3-4.74-1.12-6.9-2.16l-.29-.62c.36-2.71 2.5-4.35 4.35-6.07 1.46-1.14.3-3.13-.4-4.37-2.69-2.15-6.68-2.42-9.67-.78-1.62 1.84-3.08 3.82-4.83 5.55.15-4.69.49-9.74 3.66-13.5 4.18-4.61 10.62.2 15.49-1.97l1.21-.58z"/><path fill="#dfdee4" d="M302.07 231.98c-.29-2.23 1.83-3.17 3.72-2.81 1.23 2.37-1.97 3.25-3.72 2.81z"/><path fill="#a17f6c" d="M259.13 231.93l1.82.85c-.84 1.34-2.31 2.43-3.88 2.74-.2-1.51 1.13-2.6 2.06-3.59z"/><path fill="#97938b" d="M227.46 234.47c2.43-1.84 5.69-.54 8.48-.74 3.53.51 7.93-.83 10.58 2.2-5.39 1.54-10.99 1.93-16.55 2.18-6.76.44-12.03 5.16-16.74 9.56l-1.12-2.87c2.1-.06 3.03-1.91 3.99-3.48 3.25-3.13 7.8-4.17 11.36-6.85z"/><path fill="#64514b" d="M304.63 234.82l2.27-.98c-.86 3.51 1.03 6.59 2.01 9.83-.67 3.4-.9 6.86-1.1 10.32l-1.28-.38c-.1-1.04 0-2.09-.12-3.12l-1.05-.55-1.39-.69c-.85-2.14-.5-5.23-2.78-6.44l.97-1.53c1.42-1.89 1.9-4.22 2.47-6.46z"/><path fill="#98958d" d="M266.83 238.78c2.99-1.64 6.98-1.37 9.67.78.7 1.24 1.86 3.23.4 4.37-1.85 1.72-3.99 3.36-4.35 6.07.08.15.22.47.29.62 2.16 1.04 4.39 2.46 6.9 2.16.44-2.57-.11-5.14-.53-7.67 1.64-1.95 3.51-3.71 5.53-5.27l.02.89-.12 2c-2.17 7.06-4.48 14.09-7.8 20.72l-1.64-.1-.62-1.96c-3.21.88-4.29 4.74-7.39 5.84-3.17 1.02-6.32 2.09-9.32 3.56 1.43-2.6 3.33-4.96 4.11-7.87.95-1.94 1.9-3.93 3.44-5.48 1.07-1.28 2.73-2.48 2.39-4.37-.04-3.48-3.53-5.31-6.04-7.01l.23-1.73c1.75-1.73 3.21-3.71 4.83-5.55z"/><path fill="#737373" d="M232.9 240.89c2.35-.74 4.84-1.05 7.3-1.11l2.31 3.33c-.66 1.09-1.55 2.01-2.45 2.9-3.12 1.23-6.28 3.1-7.64 6.33-2.57 6.03-4.85 12.79-3.14 19.36.75 3.06 3.28 5.11 5.4 7.25-1.87.32-3.51 1.22-4.72 2.69-2.47-1.22-4.81-2.84-6.48-5.05l.07-1.87c1.76 1.21 3.52 2.44 5.5 3.25-.61-4.24-3.98-6.99-6.58-10.06-.06-5 .18-10.1 1.64-14.91 1.92-4.61 4.38-9.43 8.79-12.11z"/><path fill="#3d3e3f" d="M284.74 239.84l1.35-.44c2.75.76 5.16 2.54 7 4.7l-3.77.05-4.56-3.42-.02-.89z"/><path fill="#565961" d="M284.76 240.73l4.56 3.42c-1.31.2-3.03 1.77-4.16.45l-.52-1.87.12-2z"/><path fill="#3f3f3d" d="M220.47 245.4c1.8-1.39 4.1-1.86 6.23-2.54-2.47 3.14-4.47 6.93-7.92 9.1l-2.98.14c-1.39-.13-2.76-.29-4.12-.56l-.78-1.24.93-.2c2.01-.34 4.03-.62 6.03-1.02.86-1.24 1.66-2.51 2.61-3.68z"/><path fill="#707582" d="M276.84 263.45c3.32-6.63 5.63-13.66 7.8-20.72l.52 1.87c1.13 1.32 2.85-.25 4.16-.45l-.66 3.46-2.87 2.14c.24 5.42-2.31 10.38-5.17 14.82-1.02-1-2.46-1.04-3.78-1.12z"/><path fill="#a3aa8b" d="M300.2 244.26l.99-1.45c2.28 1.21 1.93 4.3 2.78 6.44.37 3.24-.95 6.3-2.74 8.93l-5.37.62c1.42-1.94 2.37-4.15 2.1-6.61 1.09 1.58.67 3.8 1.93 5.32 3.33-2.79 1.46-7.14-.32-10.19l-2.27-.16c.98-.95 1.99-1.88 2.9-2.9z"/><path fill="#727473" d="M256.56 244.62c1.87-.75 3.56.74 5.21 1.44 2.51 1.7 6 3.53 6.04 7.01.34 1.89-1.32 3.09-2.39 4.37-1.54 1.55-2.49 3.54-3.44 5.48-3.86 2.83-5.69 7.67-9.98 10.01.82-1.87 2.79-4.2 1.08-6.15-.89-1.3-1.94-2.48-3.1-3.55l-2.57 1.34c-1.05.6-2.32.92-3.11 1.88-.52 1.44-.49 3-.56 4.52l-1.77-4.76c.98-1.54 2.05-3.03 3.16-4.48l.47.73.61 1.56c3.59-1.65 5.83-5.09 6.85-8.8 1.12 1.19 1.86 3.26 3.83 3.08 2.39-1.88 5.07-4.66 4.12-7.99-1-1.35-2.89-1.43-4.25-2.27-1.09-.84-.36-2.34-.2-3.42z"/><path fill="#040303" opacity=".77" d="M307.81 253.99c.2-3.46.43-6.92 1.1-10.32.67 1.19 1.41 2.35 2.12 3.53.11 2.97.11 5.95-.02 8.92l-.8-.31-2.4-1.82z"/><path fill="#524e48" d="M232.42 252.34c1.36-3.23 4.52-5.1 7.64-6.33-1.41 2.26-3.96 3.8-4.48 6.56-.67 1.91-1.56 3.85-1.32 5.94.39 6.01 2.04 12.37 6.59 16.61 2.76 3 7.01 3.54 10.25 5.81l-1.49 3.49c-2.73.38-5.46-.28-8.17-.44-2.65-1.09-4.85-2.94-6.76-5.03-2.12-2.14-4.65-4.19-5.4-7.25-1.71-6.57.57-13.33 3.14-19.36z"/><path fill="#83817d" d="M246.41 250.17l2.62-2.94 2.91.19c-1.18 5.34-3.11 10.58-6.34 15.04l-.47-.73 1.01-3.56-4.21 1.74c.65-2.21 1.34-4.41 1.87-6.66l-1.82-2.65c1.39-.65 2.95-.42 4.43-.43z"/><path fill="#bec7a9" d="M297.3 247.16l2.27.16c1.78 3.05 3.65 7.4.32 10.19-1.26-1.52-.84-3.74-1.93-5.32l-2.27-1.44c.43-1.24.93-2.46 1.61-3.59z"/><path fill="#908e87" d="M285.79 249.75l2.87-2.14c-.67 3.55-2.33 6.99-1.83 10.69.62 4.79-2.65 8.7-4.79 12.65-1.9 3.62-4.58 6.72-7.24 9.79-1.51 1.82-4.13 1.75-6.27 1.53-3.87-.53-7.98-.5-11.49-2.41-2.04-.99-3.88-2.42-6.07-3.06-1.29.13-2.56.4-3.83.65-.61-.79-1.22-1.59-1.73-2.45l-.4-.77c-.45-1.08-.87-2.17-1.27-3.26.07-1.52.04-3.08.56-4.52.79-.96 2.06-1.28 3.11-1.88-.07 1.89.3 3.76 1.13 5.47-.26.92-.45 1.86-.58 2.82 1.29.54 2.82 1.15 4.04.07 4.29-2.34 6.12-7.18 9.98-10.01-.78 2.91-2.68 5.27-4.11 7.87 3-1.47 6.15-2.54 9.32-3.56 3.1-1.1 4.18-4.96 7.39-5.84l.62 1.96 1.64.1c1.32.08 2.76.12 3.78 1.12 2.86-4.44 5.41-9.4 5.17-14.82z"/><path fill="#767475" opacity=".85" d="M210.24 248.75l1.49.49.1.86-.93.2-.66-1.55z"/><path fill="#686868" d="M303.97 249.25l1.39.69c-.53 2.58-1.76 5.16-1.45 7.83.9 1.51 2.16 2.82 2.9 4.43.79 2.34.38 4.82-.02 7.19l-1.6-.78-.64-3.59-2.7 3.99c-.16-2.76-.83-5.45-1.76-8.04l1.14-2.79c1.79-2.63 3.11-5.69 2.74-8.93z"/><path fill="#ece9eb" d="M272.84 250.62l-.29-.62.29.62z"/><path fill="#5c5b58" d="M305.36 249.94l1.05.55c.12 1.03.02 2.08.12 3.12l1.28.38 2.4 1.82c-.49 4.25-1.32 8.83.07 12.96l.77.52 1.78-.46c.81-2.47.54-5.11.5-7.66l.81-.34c2.58 1.21 5.42 1.08 8.14.47l4.86-.92c3.51-1.23 1.83-5.55 2.11-8.34l1.95 1.04 2.78 1.39a29.34 29.34 0 0 0-2.25 2.07c-2.49 3.56-2.31 8.16-2.91 12.3.24 2.28 2.71 2.06 4.4 2.05.49 1.03.56 2.17.28 3.28-1.53-1.07-3.31-1.19-5.05-.67-.44 1.99-.63 4.03-.82 6.06-3.36.51-5.73 3.01-8.46 4.77-3.15-4.2-4.2-9.89-8.54-13.15h-2.76l-1.08-1.79c.4-2.37.81-4.85.02-7.19-.74-1.61-2-2.92-2.9-4.43-.31-2.67.92-5.25 1.45-7.83z"/><path fill="#4e4d4c" d="M291.74 264.68c2.33-4.33 2.34-9.36 3.95-13.93l2.27 1.44c.27 2.46-.68 4.67-2.1 6.61a80.19 80.19 0 0 1 5.37-.62c-.41.91-.79 1.84-1.14 2.79-1.77.05-3.52.18-5.26.43-.32 2.95.15 5.95-.44 8.87-.79 1.73-2.75 2.62-3.65 4.32-.24 1.52-.29 3.08-.65 4.59-1.94 3.53-5.91 4.98-9.12 7.05.45 1.57 2.58.62 3.77 1l1.15 1.53-4.05 1.06c-2.92-.11-5.82-.48-8.73-.69l-1.67-.13-1.43-.97c1.16-1.5 3.14-1.61 4.86-1.93-.03 2.9 3.23 2.14 5.14 2.07.16-1.99-1.75-2.13-3.2-2.37 1.35-.66 2.57-1.55 3.63-2.62 5.71-4.79 8.42-11.87 11.3-18.5m-7.57 16.62l-.41.72.4.73.81.02.41-.72-.4-.74-.81-.01z"/><path fill="#706d6c" d="M331.73 256.54a29.34 29.34 0 0 1 2.25-2.07c1.94 1.06 2.45 3.37 3.36 5.22 1.64 4.15 3.34 8.49 3.32 13.02-.9 2.07-2.12 4.01-2.73 6.21-.7 1.02-1.46 2-2.22 2.98-2.48-1.69-3.19-4.98-2.21-7.73.28-1.11.21-2.25-.28-3.28-.61-4.77.86-9.9-1.49-14.35z"/><path fill="#3c3c3b" d="M310.21 255.81l.8.31c.27 1.89 1.18 3.55 2.32 5.05.04 2.55.31 5.19-.5 7.66l-1.78.46-.77-.52c-1.39-4.13-.56-8.71-.07-12.96z"/><path fill="#444545" d="M328.82 268.84c.6-4.14.42-8.74 2.91-12.3 2.35 4.45.88 9.58 1.49 14.35-1.69.01-4.16.23-4.4-2.05z"/><path fill="#747372" d="M294.83 261.4c1.74-.25 3.49-.38 5.26-.43.93 2.59 1.6 5.28 1.76 8.04l-2.35-.12-1.38-.66-1.36 3.09-1.85.38-.08 2.17 3.32-.7c-.6 1.88-2.63 1.75-4.23 1.71l-3.18-.29c.9-1.7 2.86-2.59 3.65-4.32.59-2.92.12-5.92.44-8.87z"/><path fill="#835c47" d="M236.96 261.93l3.29.82 1.72 3.46 1.77 4.76 1.27 3.26c-1.4-1.77-3.21-3.16-5.15-4.3-1.76-2.33-2.34-5.21-2.9-8z"/><path fill="#abafab" d="M247.41 264.57l2.57-1.34c1.16 1.07 2.21 2.25 3.1 3.55l-4.54 3.26c-.83-1.71-1.2-3.58-1.13-5.47z"/><path fill="#575857" d="M301.85 269.01l2.7-3.99.64 3.59 1.6.78 1.08 1.79c1.02 1.88 2.48 3.48 3.44 5.39.53 1.9.8 3.87 1.08 5.83.6 3.06-1.4 5.96-.63 9.03.77 4.58-1.58 8.8-2.17 13.25-.04 1.28-1.22 1.88-2.05 2.62l-1.53-2.32c-5.09 3.27-9.65 7.6-15.56 9.36-1.65.28-1.96 2.03-2.47 3.32-1.27 2.11-3.19 3.68-5.06 5.25-3.16 2.66-5.27 6.34-6.85 10.11-.84.84-1.65 1.71-2.57 2.46-1.9.46-3.9.42-5.82.14l-.49-.59 2.49-.13c.77-1.97 1.23-4.04 1.52-6.13l2.25.71c.29.95.78 1.78 1.47 2.47 1.12-3.02 1.71-6.21 2.85-9.23 1.82-4.57 7.28-6.25 9.17-10.73 1-2.7 1.58-5.57 2.95-8.12 1.6-2.14 4.16-3.52 5.14-6.11-2.8.46-5.05 4.61-7.92 2.12.88-3.15 5.07-3.7 6.17-6.83-1.92-2.15-4.08-5.22-7.39-4.29l-1.15-1.53c2.45-1.66 5.15-3.08 7.09-5.37.73-1.26.78-2.77 1.19-4.15l2.49.7 1.4 2.48c1.09 1.89 2.2 3.85 3.86 5.32 1.35.39 2.76.6 4.16.81-.42 1.95-1 3.92-.76 5.94 1.37-.03 3.2 1 4.3-.25 1.32-2.36 2.28-4.97 2.48-7.67-1.24.06-2.14.83-2.9 1.75a64.24 64.24 0 0 0-.15-3.42c.98.12 2.27.81 2.72-.52-.75-4.73-2.43-10.1-7.31-12.03-1.38-1.26-2.56.33-3.43 1.31l-.36-2.35-.02-.89 2.35.12z"/><path fill="#616363" d="M248.54 270.04l4.54-3.26c1.71 1.95-.26 4.28-1.08 6.15-1.22 1.08-2.75.47-4.04-.07.13-.96.32-1.9.58-2.82z"/><path fill="#434443" d="M223.55 274.72c-.99-2.16-1.39-4.45-1.08-6.81 2.6 3.07 5.97 5.82 6.58 10.06-1.98-.81-3.74-2.04-5.5-3.25z"/><path fill="#36373a" d="M298.12 268.23l1.38.66.02.89-1.37 3.39-3.32.7.08-2.17 1.85-.38 1.36-3.09z"/><path fill="#5b4d44" d="M239.86 269.93c1.94 1.14 3.75 2.53 5.15 4.3l.4.77-1.28.64c-2.32-1.07-3.31-3.52-4.27-5.71z"/><path fill="#7d6a62" d="M299.52 269.78l.36 2.35c.63 2.14 2.93 3.02 4.29 4.63-1.36-.68-2.78-1.25-4.18-1.82-2.02 1.31-3.1 3.57-3.08 5.95l-1.4-2.48-2.49-.7.9-2.83c1.6.04 3.63.17 4.23-1.71l1.37-3.39z"/><path fill="#393534" d="M299.88 272.13c.87-.98 2.05-2.57 3.43-1.31 4.88 1.93 6.56 7.3 7.31 12.03-.45 1.33-1.74.64-2.72.52-.95-2.35-2.1-4.66-3.73-6.61-1.36-1.61-3.66-2.49-4.29-4.63z"/><path fill="#c69071" d="M307.87 271.18h2.76c4.34 3.26 5.39 8.95 8.54 13.15l-1.79 3.89c-1.93.97-3.75 2.13-5.62 3.21-.77-3.07 1.23-5.97.63-9.03-.28-1.96-.55-3.93-1.08-5.83-.96-1.91-2.42-3.51-3.44-5.39z"/><path fill="#4c4c4b" d="M328.45 273.5c1.74-.52 3.52-.4 5.05.67-.98 2.75-.27 6.04 2.21 7.73l2.22-2.98-.73 3.22c-2.83 2.55-6.75 1.43-10.16 1.81-2.29.22-3.79 2.19-5.69 3.26-1.29.47-2.65.67-3.97 1.01l1.79-3.89c2.73-1.76 5.1-4.26 8.46-4.77.19-2.03.38-4.07.82-6.06z"/><path fill="#272727" d="M290.09 279.18c.36-1.51.41-3.07.65-4.59l3.18.29-.9 2.83c-.41 1.38-.46 2.89-1.19 4.15-1.94 2.29-4.64 3.71-7.09 5.37-1.19-.38-3.32.57-3.77-1 3.21-2.07 7.18-3.52 9.12-7.05z"/><path fill="#d39c7d" d="M296.91 280.89c-.02-2.38 1.06-4.64 3.08-5.95l4.18 1.82c1.63 1.95 2.78 4.26 3.73 6.61l.15 3.42-.4.5-2.72-.27-4.16-.81c-1.66-1.47-2.77-3.43-3.86-5.32z"/><path fill="#868787" d="M229.96 281.64c1.21-1.47 2.85-2.37 4.72-2.69 1.91 2.09 4.11 3.94 6.76 5.03l-2.57 1.71c-2.54-1.66-4.95-3.69-8.16-3.66l-.75-.39z"/><path fill="#5f605f" d="M251.1 280.93c5.11 1.92 10.18 5.12 15.86 4.37 4.53-.34 8.51-2.78 12.89-3.74l.59 1.62c-1.06 1.07-2.28 1.96-3.63 2.62l-1.94.3c-1.72.32-3.7.43-4.86 1.93-4.44 5.9-10.32 10.38-15.85 15.17-1.99-.36-4.11-1.08-6.05-.15-4.02 1.6-8.2 2.75-12.28 4.2-.94-.72-1.87-1.44-2.76-2.2 1.8-.46 3.63-.95 5.19-2.01-1.89-2.98-6.15-2.24-8.24-5.11 4.41.29 8.94 1.46 13.3.13 3.54-.9 6.09-3.68 9.11-5.55 2.7-1.75 5.89-2.89 7.97-5.45l-1.9-1.41a47.68 47.68 0 0 0-2.03-1.23l-1.45 1.33c.36-3.21-3.59-1.38-5.41-1.33l1.49-3.49z"/><path fill="#737372" d="M284.17 281.3l.81.01.4.74-.41.72-.81-.02-.4-.73.41-.72z"/><path fill="#707373" d="M230.71 282.03c3.21-.03 5.62 2 8.16 3.66l2.57-1.71c2.71.16 5.44.82 8.17.44 1.82-.05 5.77-1.88 5.41 1.33-2.11 1.83-4.95 1-7.46 1.15-1.62.32-3.13 1.02-4.75 1.3-2.55-.17-5.02-.91-7.43-1.68-2.23-.61-3.26-2.89-4.67-4.49z"/><path fill="#3d3d3a" d="M308.05 286.79c.76-.92 1.66-1.69 2.9-1.75-.2 2.7-1.16 5.31-2.48 7.67-1.1 1.25-2.93.22-4.3.25-.24-2.02.34-3.99.76-5.94l2.72.27.4-.5z"/><path fill="#7d7b73" d="M258.5 285.65l1.9 1.41c-2.08 2.56-5.27 3.7-7.97 5.45-3.02 1.87-5.57 4.65-9.11 5.55-4.36 1.33-8.89.16-13.3-.13-3.5-2.28-6.96-4.95-9.22-8.5 3.43.89 6.69 2.33 9.98 3.62 1.97.89 4.03-.66 6.07-.22 2.71.44 5.57 1.44 8.21.13 4.69-2 9.42-4.12 13.44-7.31z"/><path fill="#2f3131" d="M274.87 286.1l1.94-.3c1.45.24 3.36.38 3.2 2.37-1.91.07-5.17.83-5.14-2.07z"/><path fill="#918d85" d="M270.01 288.03l1.43.97c-2.29 3.47-5.03 6.61-7.51 9.94-2.6 3.04-5.47 6.12-9.25 7.67l-7.89 3.51c-1.89-.66-4.31-.47-5.74-2.04 3.5-2 7.53-2.44 11.36-3.43l1.75-1.45c5.53-4.79 11.41-9.27 15.85-15.17z"/><path fill="#74746d" d="M285.89 288.76c3.31-.93 5.47 2.14 7.39 4.29-1.1 3.13-5.29 3.68-6.17 6.83 2.87 2.49 5.12-1.66 7.92-2.12-.98 2.59-3.54 3.97-5.14 6.11-1.37 2.55-1.95 5.42-2.95 8.12a40.75 40.75 0 0 0-3.56-3.01l2.4-6.91-2.43-1.37-1.2-.68c-.05-2.94.54-5.83.59-8.76l-.9-1.44 4.05-1.06z"/><path fill="#5f615a" d="M271.44 289l1.67.13-4.11 6.89c-1.61 2.82-3.97 5.1-5.69 7.85 4.13 1.06 8.34 3.84 12.7 2.27-2.49 2.14-4.78 4.49-6.65 7.2-3.03 1.87-6.45-.05-9.54-.67-1.92.39-3.89.96-5.7-.11-2.77 2.85-6.08 5.45-7.64 9.21l1.33 2.3c-3.03-.51-3.81-3.36-4.85-5.78l-2.99.13-.02-3.17 3.66 1.82-.02-1.96c2.02-1.13 4.31-1.66 6.29-2.87-1.01-.74-2.03-1.47-3.09-2.12 2.6-1.23 5.24-2.37 7.89-3.51 3.78-1.55 6.65-4.63 9.25-7.67 2.48-3.33 5.22-6.47 7.51-9.94z"/><path fill="#83847c" d="M273.11 289.13l8.73.69.9 1.44-.59 8.76-6.14 6.12c-4.36 1.57-8.57-1.21-12.7-2.27 1.72-2.75 4.08-5.03 5.69-7.85 1.34-2.32 2.63-4.66 4.11-6.89z"/><path fill="#474949" d="M282.15 300.02l1.2.68-1.43 3.24-8.56 8.46c-1.35 1.24-2.1 2.93-2.85 4.57-.34-1.31-1.77-3.22-3.17-1.78-1.2 1.51-2.43 3.55-1.36 5.48l-.27.56c-1.76 1.35-3.65 2.54-5.67 3.47l-3.16 1.33c-2.07.12-5.36.93-5.54-2.07a39.34 39.34 0 0 1 4.41-1.07c-2.33-2.13-.06-5.29.06-7.86-1.9 1.69-3.78 3.47-5.18 5.62-.34 1.33-.47 2.71-.66 4.08l-2.16-.66-1.33-2.3c1.56-3.76 4.87-6.36 7.64-9.21 1.81 1.07 3.78.5 5.7.11 3.09.62 6.51 2.54 9.54.67 1.87-2.71 4.16-5.06 6.65-7.2 2.11-1.97 4.09-4.08 6.14-6.12z"/><path fill="#797775" d="M283.35 300.7l2.43 1.37-2.4 6.91c-1.34 1.86-3.07 3.48-5.37 3.99l-.92-2.01c1.67-2.29 3.85-4.28 4.83-7.02l1.43-3.24z"/><path fill="#72726b" d="M248.11 303.05c1.94-.93 4.06-.21 6.05.15l-1.75 1.45c-3.83.99-7.86 1.43-11.36 3.43 1.43 1.57 3.85 1.38 5.74 2.04 1.06.65 2.08 1.38 3.09 2.12-1.98 1.21-4.27 1.74-6.29 2.87l.02 1.96-3.66-1.82.02 3.17 2.99-.13c1.04 2.42 1.82 5.27 4.85 5.78l2.16.66c.19-1.37.32-2.75.66-4.08 1.4-2.15 3.28-3.93 5.18-5.62-.12 2.57-2.39 5.73-.06 7.86a39.34 39.34 0 0 0-4.41 1.07c.18 3 3.47 2.19 5.54 2.07-.59.57-1.15 1.17-1.68 1.8.99.36 1.99.71 3.01 1.03l-.41 1.68-3.58 1.51 1.02 2.06-.33.51c-.66.85-.74 1.75-.22 2.69l.55 1.17c1.09-.28 2.17-.61 3.25-.96-.53 1.89-1.08 3.79-1.46 5.73 1.1 4.09-.62 8.04-1 12.1-1.36 2.94-4.28 4.68-7.38 5.29-1.62-.56-3.27-1-4.9-1.48 2.46-.06 4.95-.18 7.37-.72l1.1-1.54c2.17-3.76 3.76-8.31 2.85-12.67l-1.1-1.16-1.42.98c-.37-2.09.67-3.99 1.35-5.9-.26-1.02-.8-1.67-1.63-1.94l-.53 2.13c-1.19-.11-2.39-.21-3.58-.27-3.09-.16-6.36.62-9.28-.72 1.85-.1 3.73-.24 5.48-.9l.84-3.18c1.6.25 3.22.39 4.84.53 1.58-1.63 4.01-3.3 4.02-5.74-3.26-.08-6.51.01-9.76.06l1.36 2.96c-2.14-.25-4.27-.59-6.42-.78l-.54.56c-.82 1.75-1.43 3.59-2.04 5.42-5.28-2-6.8-8.08-6.74-13.17 1.88-5.34 5.55-10.05 5.91-15.86 4.08-1.45 8.26-2.6 12.28-4.2z"/><path fill="#666767" d="M273.36 312.4c2.9-2.77 5.7-5.65 8.56-8.46-.98 2.74-3.16 4.73-4.83 7.02l.92 2.01c2.3-.51 4.03-2.13 5.37-3.99a40.75 40.75 0 0 1 3.56 3.01c-1.89 4.48-7.35 6.16-9.17 10.73-1.14 3.02-1.73 6.21-2.85 9.23-.69-.69-1.18-1.52-1.47-2.47l-2.25-.71c.23-4.82 3.32-8.88 3.77-13.64-2.12-.48-2.74 1.78-3.52 3.25-1.13 2.58-2.53 5.05-3.47 7.72.21 1.57.78 3.08.85 4.68-.58 1.29-1.42 2.43-2.19 3.61l-.7-.49c-.91-.62-1.85-1.21-2.78-1.78l.84-2.08a30.87 30.87 0 0 0 2.75-1.4c.3-2.53-.45-4.99-1.04-7.41l.27-.56c2.23-.2 3.86-1.59 4.53-3.7.75-1.64 1.5-3.33 2.85-4.57z"/><path fill="#383838" d="M290.45 314.34c5.91-1.76 10.47-6.09 15.56-9.36l1.53 2.32c-4.23 4.24-9.69 7.08-13.5 11.77l-2.59 1.02c-1.12-.87-2.28-1.68-3.47-2.43.51-1.29.82-3.04 2.47-3.32z"/><path fill="#2c2d2f" d="M267.34 315.19c1.4-1.44 2.83.47 3.17 1.78-.67 2.11-2.3 3.5-4.53 3.7-1.07-1.93.16-3.97 1.36-5.48z"/><path fill="#7f8082" d="M271.45 318.38c.78-1.47 1.4-3.73 3.52-3.25-.45 4.76-3.54 8.82-3.77 13.64-.29 2.09-.75 4.16-1.52 6.13l-2.49.13-.55-.64c.77-1.18 1.61-2.32 2.19-3.61-.07-1.6-.64-3.11-.85-4.68.94-2.67 2.34-5.14 3.47-7.72z"/><path fill="#292a28" d="M287.98 317.66l3.47 2.43c-3.36 3.47-7.33 6.24-10.78 9.6-1.36 1.33-2.99 2.34-4.6 3.33 1.58-3.77 3.69-7.45 6.85-10.11 1.87-1.57 3.79-3.14 5.06-5.25z"/><path opacity=".07" d="M291.45 320.09l2.59-1.02-1.69 3.63 2.37-.04c1.06 1.75 1.54 4.04 3.36 5.2 1.38.47 2.85.61 4.29.85l.18 4.57c2.67.64 5.48-.17 8.1.69l-1.16 2.93c1.66.48 3.34 1.11 5.1.83.34-1.95.71-3.9 1.45-5.73 1.84 1.02 3.73 2.12 5.03 3.84.47 1.31.7 2.7.97 4.07.76-1.1 1.28-2.42 2.33-3.28 1-.23 2.03-.33 3.06-.45l.2-3.21c1.64 1.57 3.32 3.2 5.55 3.86 2.16.63 4.27 2.2 6.57 1.88 1.25-2.92-2.24-3.19-4.21-3.19-.26-1.8-.35-3.74.56-5.38 2.43.58 3.21 3.27 5.14 4.55 1.37.65 2.92 1 4.45.96 2.2-.63 3.93-2.95 6.41-2.41 1.41.11 2.03 1.57 2.93 2.47l3.1-1.43c1.17-.08 2.01.99 3 1.47l4-2.7c3.03 1.23 6.18 1.91 9.45 1.91 1.94 1.45 4.3 1.96 6.57.88.16-1.46.48-3.65 2.48-3.31l3.58 2.42c2.81-.32 5.64-.26 8.46-.29 2.31-1.08 4.44-2.74 7.12-2.73l2.38 3.27 1.33-3.83c2.41-.07 4.81.48 7.22.19l-.19-2.41c1.87.93 3.91 1.38 5.99 1.5l1.39 3.5 3.36-3.17c1.76.48 3.23 1.64 4.75 2.62 2.54-.93 3.74-3.42 5.12-5.54.54-1.41 2.18-1.11 3.29-.71.76 2.61 1.72 5.43 4.47 6.53l-.73-5.62c3.47 1.14 7.09 1.15 10.7.95 1.85-.33 3.12 1.09 4.39 2.18l2.64-.92 2.21 1.02c-.27-1.48-.5-2.96-.71-4.43 1.29-.93 2.72-2.15 4.45-1.79.56 1.97-.75 3.56-1.78 5.07.8.5 1.64.96 2.52 1.36l2.7-2.69c1.62-.14 3.26-.02 4.84.44l.72 2.62c2.7.36 3.74-3.02 6.3-3.11 2.13-.48 4 .72 5.91 1.44 2.41-.16 4.52-1.66 6.81-2.37 1.44 1.31 2.8 2.74 4.4 3.88 1.84.41 3.74.07 5.6-.12.25-1.73-1.03-2.99-1.9-4.31 3.67.27 7.36.11 11.03-.22v28.88c-.98-.75-1.98-1.45-2.98-2.15-1.15 1.47-1.66 4.32-4 4.11-2.35-.56-4.43-1.87-6.68-2.69-1.21.99-2.11 2.66-3.73 2.93-3.12-.48-6.21-1.21-9.23-2.14l.26 3.74c-3.06 1.02-5.4-1.22-7.67-2.87l-3.15 2.85c-1.74-.75-3.6-1.28-5.49-.81a55.06 55.06 0 0 1-2.75-2.26c.07 1.44.5 3-.38 4.3-1.17-.89-2.29-1.84-3.51-2.64-2.07-.09-2.69 2.51-3.95 3.72l-.95-3.78-1.96 1.42-2.25-2.15c-3.54.64-7.04 1.46-10.54 2.31-3.17.71-6.54-.19-9.65.83-.9 1.47-1.62 3.05-2.48 4.55-1.69-.48-3.42-.78-5.17-.83l-1.15-3.32c-4.82-.36-8.78 3.85-13.66 3.7-.47-.74-.64-1.84-1.6-2.09-2.41-.75-4.94-1.85-7.51-1.41-.31 1.9.01 4.17-1.65 5.54-2.27-1.17-4.47-2.49-6.8-3.55-.67 1.28-.84 3.16-2.46 3.63-2.24-.39-4.06-1.94-6.05-2.94-1.74.57-2.23 2.32-2.74 3.88-1.74.28-3.01-1.07-4.32-1.95-.51 1.36-1.02 2.74-1.8 3.98-2.88-1.27-6.09-1.35-8.97-2.6-3.39 1.24-6.42 5.22-10.3 3.48l-17.68-.64c-1.21.07-2.19.9-3.24 1.4-2-.71-3.84-1.77-5.84-2.46-1.83.01-3.09 2.08-4.99 1.85-4.26.01-8.2-1.67-12.14-3.04-5.12.41-10.4.96-15.43-.43-1.72-.59-3.52-.07-5.27.01-2.69.25-5.33-.64-8.01-.47-6.61 1.5-13.62 1.9-20.23.1-3.95-.88-7.96-1.48-11.95-2.18-3.63-.51-6.64-2.81-10.05-3.97-2.33-.79-4.26-2.32-6.17-3.8 2.65.69 5.34 1.24 8.02 1.86 1.63.48 3.28.92 4.9 1.48 1.91 1.75 4.63 1.59 6.98 2.29l2.43 1.47 2.39-1.34c.88.31 1.78.59 2.69.83 4.84.6 9.72-1.22 13.01-4.79 1.25-.69 2.73-1.3 3.29-2.74 1.29-2.65 2.58-5.89.98-8.69-1.16-3.24-3.67-5.89-6.85-7.2-3.84-1.32-8.27-.22-11.82-2.47.09-1.44.71-2.74 1.5-3.92l2.69-.18.7.49.55.64.49.59c1.92.28 3.92.32 5.82-.14.92-.75 1.73-1.62 2.57-2.46 1.61-.99 3.24-2 4.6-3.33 3.45-3.36 7.42-6.13 10.78-9.6z"/><path fill="#3a3b3b" d="M260.04 324.7c2.02-.93 3.91-2.12 5.67-3.47.59 2.42 1.34 4.88 1.04 7.41l-2.75 1.4c-3.43.24-5.45 3.52-8.76 4.07l-1.02-2.06 3.58-1.51 2.33-.7c1.15-1.41 2.8-4.7-.09-5.14z"/><path fill="#4b4d4c" d="M229.05 342.8c-.03-6.52-2.55-13.59.87-19.69-.06 5.09 1.46 11.17 6.74 13.17l2.22 1.07c2.92 1.34 6.19.56 9.28.72-.02 2.8-.22 5.89-2.38 7.94-2.74.67-5.59-.08-8.29-.58-2.83-.42-4.7-2.75-7.02-4.16l-1.42 1.53z"/><path fill="#747478" d="M256.88 326.03l3.16-1.33c2.89.44 1.24 3.73.09 5.14l-1.92-.98-3.01-1.03c.53-.63 1.09-1.23 1.68-1.8z"/><path fill="#5f5d5a" d="M244.3 328.12l9.76-.06c-.01 2.44-2.44 4.11-4.02 5.74l-4.84-.53c-2.22-.65-4.38-1.5-6.5-2.41l.54-.56 6.42.78-1.36-2.96z"/><path fill="#a5a2a6" d="M258.21 328.86l1.92.98-2.33.7.41-1.68z"/><path fill="#898685" d="M255.24 334.11c3.31-.55 5.33-3.83 8.76-4.07l-.84 2.08c-.91 2.29-2.52 4.18-4.67 5.4l-3.25.96-.55-1.17c1.78-.25 2.66-2.88.22-2.69l.33-.51z"/><path fill="#87877f" d="M236.66 336.28l2.04-5.42c2.12.91 4.28 1.76 6.5 2.41l-.84 3.18c-1.75.66-3.63.8-5.48.9l-2.22-1.07z"/><path fill="#2e2f2f" d="M263.16 332.12l2.78 1.78-2.69.18c-.79 1.18-1.41 2.48-1.5 3.92 3.55 2.25 7.98 1.15 11.82 2.47 3.18 1.31 5.69 3.96 6.85 7.2-2.83-.53-5.61-1.33-8.48-1.57-5.15 0-9.75-2.75-14.91-2.85.38-1.94.93-3.84 1.46-5.73 2.15-1.22 3.76-3.11 4.67-5.4m-3 7.09c-.64 2.08 1.78 3.81 3.64 2.81.67-2.31-1.98-2.67-3.64-2.81z"/><path fill="#a4a09f" d="M254.69 337.31c-.52-.94-.44-1.84.22-2.69 2.44-.19 1.56 2.44-.22 2.69z"/><path fill="#5e5e5b" d="M252.27 336.21c.83.27 1.37.92 1.63 1.94-.68 1.91-1.72 3.81-1.35 5.9-.62 1.43-.97 3.45-2.75 3.87-3.55.95-7.17 1.75-10.82 2.12-2.42-.36-4.72-1.23-7.11-1.75.59 1.98 2.07 3.28 4.06 3.79.32.56.98 1.66 1.31 2.21-3.7.45-5.92-2.96-7.46-5.77l-2.07.41c-.27-2.16.37-4.23 1.34-6.13.35-.39 1.06-1.15 1.42-1.53 2.32 1.41 4.19 3.74 7.02 4.16 2.7.5 5.55 1.25 8.29.58 2.16-2.05 2.36-5.14 2.38-7.94 1.19.06 2.39.16 3.58.27l.53-2.13z"/><path fill="#545250" d="M260.16 339.21c1.66.14 4.31.5 3.64 2.81-1.86 1-4.28-.73-3.64-2.81z"/><path fill="#4b4a49" d="M252.55 344.05l1.42-.98 1.1 1.16c.91 4.36-.68 8.91-2.85 12.67-1.73-1.57-3.7-3.11-6.17-3.02l.81-2.07c-3.6.75-7.3.98-10.93.27-1.99-.51-3.47-1.81-4.06-3.79 2.39.52 4.69 1.39 7.11 1.75 3.65-.37 7.27-1.17 10.82-2.12 1.78-.42 2.13-2.44 2.75-3.87z"/><path fill="#4f504e" d="M257.03 343.25c5.16.1 9.76 2.85 14.91 2.85 2.87.24 5.65 1.04 8.48 1.57 1.6 2.8.31 6.04-.98 8.69-.56 1.44-2.04 2.05-3.29 2.74-1.86.44-3.68 1.03-5.47 1.69-2.29.9-4.8.54-7.19.68l-.35 2.42c-.91-.24-1.81-.52-2.69-.83l-2.45-1.33-2.37 1.2c-2.35-.7-5.07-.54-6.98-2.29 3.1-.61 6.02-2.35 7.38-5.29.38-4.06 2.1-8.01 1-12.1m8.18 3.81c1.51 1.57 3.26 3.33 2.57 5.74-2.62.92-3.36-2.7-5.72-2.95l-.99 2.03c1.01.71 2.04 1.4 3.11 2.05-.78.68-1.54 1.37-2.27 2.1 1.43 1.61 3.72 2.17 5.77 2.56l.67-1.17c.26.28.76.86 1.02 1.14 1.75-.46 3.11-1.69 3.71-3.4a4.7 4.7 0 0 0 2.26-1.99c.9-1.95-.17-4.58-1.7-5.88-2.78-.51-5.63-.21-8.43-.23m.05 2.21l.01.46h.46v-.47l-.47.01z"/><path fill="#756e6a" d="M265.21 347.06c2.8.02 5.65-.28 8.43.23 1.53 1.3 2.6 3.93 1.7 5.88-1.18-1.32-1.81-3.41-3.54-4.08l-2.63.16c0 1.57-.53 3.41.46 4.81 1.07.57 2.28.81 3.45 1.1-.6 1.71-1.96 2.94-3.71 3.4l-1.02-1.14-.67 1.17c-2.05-.39-4.34-.95-5.77-2.56l2.27-2.1-3.11-2.05.99-2.03c2.36.25 3.1 3.87 5.72 2.95.69-2.41-1.06-4.17-2.57-5.74z"/><path fill="#454441" d="M227.71 348.93l2.07-.41c1.54 2.81 3.76 6.22 7.46 5.77l7.94-.22-1.94 1.24c2.25 1.82 5.07 2.63 7.88 3.13-2.42.54-4.91.66-7.37.72l-8.02-1.86c-3.29-1.99-7.47-4.11-8.02-8.37z"/><path fill="#cac7c9" d="M265.26 349.27l.47-.01v.47h-.46l-.01-.46z"/><path fill="#838286" d="M269.17 349.25l2.63-.16c1.73.67 2.36 2.76 3.54 4.08a4.7 4.7 0 0 1-2.26 1.99c-1.17-.29-2.38-.53-3.45-1.1-.99-1.4-.46-3.24-.46-4.81z"/><path fill="#6d665f" d="M235.93 352.08c3.63.71 7.33.48 10.93-.27l-.81 2.07-.87.19c-2.64.23-5.29.26-7.94.22l-1.31-2.21z"/><path fill="#313332" d="M245.18 354.07l.87-.19c2.47-.09 4.44 1.45 6.17 3.02l-1.1 1.54c-2.81-.5-5.63-1.31-7.88-3.13l1.94-1.24z"/><path fill="#2f3031" opacity=".87" d="M270.68 360.79c1.79-.66 3.61-1.25 5.47-1.69-3.29 3.57-8.17 5.39-13.01 4.79l.35-2.42c2.39-.14 4.9.22 7.19-.68z"/><path fill="#6c6966" opacity=".96" d="M255.63 362.93l2.37-1.2 2.45 1.33-2.39 1.34-2.43-1.47z"/></svg>