<svg xmlns="http://www.w3.org/2000/svg" width="682.667" height="682.667" viewBox="0 0 512 512"  xmlns:v="https://vecta.io/nano"><path fill="#f5e7bf" opacity=".97" d="M279.45 44.78c.29-1.56.85-3.05 1.45-4.51 1.92.63 2.4 2.57 2.76 4.33l-4.21.18z"/><path fill="#fffffe" d="M279.45 44.78l4.21-.18c1.25 6.86 2.32 13.78 4.6 20.39 1.01 3.13 4.08 4.81 6.2 7.11-1.63 2.69-4.45 4.3-7.12 5.78l-1.84.85-.53 3.05-.74-.08-1.98-2.13-.61-.39a110.95 110.95 0 0 0-3.61-2.16c-1.46-1.23-2.83-2.58-4.26-3.84a23.51 23.51 0 0 0 1.34-2.93c1.36-1.65 3.45-3.13 3.32-5.52.07-4.31.99-8.56.85-12.87 0-2.36-.01-4.72.17-7.08z"/><path fill="#806f55" opacity=".57" d="M279.28 51.86c.14 4.31-.78 8.56-.85 12.87.13 2.39-1.96 3.87-3.32 5.52l-2.47-.07c-1.43.98.27 2.38 1.13 3 1.43 1.26 2.8 2.61 4.26 3.84-2.78-1.64-7.41-3.08-6.68-7.17l4.11-1.49c1.73-5.39 2.17-11.09 3.82-16.5z"/><path fill="#e4cfa4" opacity=".91" d="M272.64 70.18l2.47.07a23.51 23.51 0 0 1-1.34 2.93c-.86-.62-2.56-2.02-1.13-3z"/><path fill="#606260" d="M285.5 78.73l1.84-.85c1.35 2.46 2.95 4.79 4.87 6.85.81 1.09 1.56 2.23 2.23 3.43-.76 2.72-.75 5.92-3.06 7.91l-.06-9.32c-.3-1.56-.91-3.03-1.64-4.42l-4.71-.55.53-3.05z"/><path fill="#292a30" d="M281.64 79.18l.61.39-1.62 3.64c-2.49 1.14-4.98.65-7.05-1.06l8.06-2.97z"/><path fill="#a8b098" d="M282.25 79.57l1.98 2.13c1.66 4.77-.28 10.06 2.05 14.64.62 2.43.86 4.95.91 7.45-.41 1.87-1.08 3.7-1.22 5.62.1 2.14 1.28 4.03 2.2 5.9-1.79-.02-3.57.07-5.35.14-1.26-10.71-1.63-21.48-2.19-32.24.49-1.23 1.06-2.43 1.62-3.64z"/><path fill="#787a81" opacity=".98" d="M273.21 86.63c-.03-1.5.16-3 .37-4.48 2.07 1.71 4.56 2.2 7.05 1.06.56 10.76.93 21.53 2.19 32.24.35 4.65.57 9.39-.67 13.94-.42-8.87-1.47-17.68-2.19-26.52l-.04-.91-.04-1.97v-.84c-.13-4.23-.43-8.46-1.19-12.62-1.68-.27-3.32.24-4.91.72l-.57-.62z"/><path fill="#868a7d" d="M284.23 81.7l.74.08 4.71.55c.73 1.39 1.34 2.86 1.64 4.42l-2.51-.56c-1.31 3.04-.06 6.36.5 9.42l-1.78-1.48-1.25 2.21c-2.33-4.58-.39-9.87-2.05-14.64z"/><path fill="#3e3f3c" opacity=".67" d="M292.21 84.73l3.61 2.51c.88 2.34.82 4.93 1.41 7.35l4.46 1.33c-2.47.37-4.07 2.24-5.29 4.25l-.4-3.04c-.31-3.02-.5-6.1-1.56-8.97-.67-1.2-1.42-2.34-2.23-3.43z"/><path fill="#bcbec7" d="M273.78 87.25c1.59-.48 3.23-.99 4.91-.72.76 4.16 1.06 8.39 1.19 12.62l-1.38-.98c-1.91.41.21 2.6 1.38 1.82l.04 1.97-1.56.16.02.74 1.58.01c.72 8.84 1.77 17.65 2.19 26.52l-1.02-2.19c-.84.98-1.71 1.94-2.82 2.63-.57-5.72-.77-11.47-2.11-17.09-.42-4.68-1.43-9.29-1.79-13.98-.17-3.84-.16-7.69-.63-11.51m4.42 7.99l-.42.71.41.72h.83l.42-.71-.41-.72h-.83z"/><path fill="#a1a795" d="M289.31 95.61c-.56-3.06-1.81-6.38-.5-9.42l2.51.56.06 9.32c2.31-1.99 2.3-5.19 3.06-7.91 1.06 2.87 1.25 5.95 1.56 8.97l-.54.03-1.73.11c-1.51 2.81-1.45 6.09-1.35 9.19l-.77.58c-.87-3.79-1.43-7.65-2.3-11.43z"/><path opacity=".72" d="M273.21 86.63l.57.62c.47 3.82.46 7.67.63 11.51.06 5.72-.44 11.46.1 17.17.38 4.06.94 8.13.8 12.22-2.67-1.28-5.33-2.6-7.81-4.22 1.75-2.21 4.27-4.18 4.34-7.24.9-10 2.01-20 1.37-30.06z"/><path fill="#706f75" d="M286.28 96.34l1.25-2.21 1.78 1.48c.87 3.78 1.43 7.64 2.3 11.43l-2.96 2.24c-1.05-1.65-1.4-3.56-1.46-5.49-.05-2.5-.29-5.02-.91-7.45z"/><path fill="#e5e4f1" d="M278.2 95.24h.83l.41.72-.42.71h-.83l-.41-.72.42-.71z"/><path fill="#6b6b71" d="M293.73 97.27l1.73-.11c-.54 1.32-1.01 2.86-.44 4.26l1.38-1.25c1.22-2.01 2.82-3.88 5.29-4.25 2.18 1.24 4.48 2.36 6.37 4.04-.02 4.26.19 8.72-1.78 12.65-1.05-.65-2.05-1.36-3-2.15-1.35-3.36.36-6.94.49-10.39-1.51-.74-3.13-1.49-4.84-.97l-.51 1.69c.03 2.06.28 4.11.48 6.16.17 2.09.29 4.18.38 6.27.07 2.14.05 4.32.61 6.4-.68 1.31-1.4 2.6-2.17 3.86.19-5.51-.35-11.03-.76-16.52l-1.78.3c-.11 1.56-.1 3.12-.13 4.69l-2.11-1.08c.64-1.52.32-3.05-.56-4.41-.1-3.1-.16-6.38 1.35-9.19m.5 6.83l-.34.83.35.83.84.34.83-.35.34-.83-.35-.83-.83-.33-.84.34z"/><path fill="#b3b1b8" d="M295.46 97.16l.54-.03.4 3.04-1.38 1.25c-.57-1.4-.1-2.94.44-4.26z"/><path fill="#dfdfeb" d="M279.88 99.99c-1.17.78-3.29-1.41-1.38-1.82l1.38.98v.84z"/><path fill="#5e5d5a" d="M274.41 98.76c.36 4.69 1.37 9.3 1.79 13.98-.13 6.95-.64 13.98 1 20.81.19 5.25.38 10.52 1.38 15.69.84 4.08.54 8.28-.68 12.24l-.92.22c-1.25.54-3.08.34-3.83 1.65-.38 1.97.25 3.92.89 5.77a132.08 132.08 0 0 0 4 .24c1.3-.08 2.61-.18 3.93-.32l.38-5.13c.37-1.09.81-2.15 1.23-3.21.14 3.34-.08 6.69-.59 10-2.14.2-4.26.49-6.37.92-.22 2.06-.42 4.14-.45 6.22-1.9-.63-3.9-1.76-5.93-1.08a28.36 28.36 0 0 0-2.63 1.86c-7.09.48-14.2.86-21.24 1.78-.25 1.02-.51 2.04-.8 3.06l-.56.45c-1.69-1.69-3.6-3.14-5.69-4.28l1.65-11.53c1.28-2.96 4.19-4.45 7.33-4.45-1.34 2.86-4.7 4.99-4.27 8.46l2.76-.59c.07-.02.23-.05.31-.07l.07-.22c.6-2.12 1.28-4.31 3.45-5.28l.35 2.99c.29 1.88 1.81 3.13 3.15 4.31 3.58 2.71 8.03 4.55 12.59 3.89.65-1.05 1.32-2.1 1.88-3.21a80.79 80.79 0 0 0 4.66 1.4c-.25-2.47-1.27-4.84-3.97-5.24 1.98-1.02 2.83-2.91 3.06-5.04.2-2.87 2.67-4.66 3.69-7.16.52-4.3.08-8.64.31-12.95.19-3.44.03-6.9-.93-10.22a23.16 23.16 0 0 1-.26-3.11l.16-3.46c.14-4.09-.42-8.16-.8-12.22-.54-5.71-.04-11.45-.1-17.17z"/><path fill="#838488" d="M298.93 99.1c1.71-.52 3.33.23 4.84.97-.13 3.45-1.84 7.03-.49 10.39.95.79 1.95 1.5 3 2.15-.74 1.76-1.5 3.53-2.39 5.23l-1.16 1.15-2.44 1.3-.4-.67c-.56-2.08-.54-4.26-.61-6.4l2.55-.92c.24-1.56.2-3.13-.07-4.68l-2.86-.67c-.2-2.05-.45-4.1-.48-6.16.31 1.17.85 2.25 1.42 3.31l2.13-.1c-.12-2.08-1.77-3.45-3.04-4.9z"/><path fill="#a1a0a7" d="M298.42 100.79l.51-1.69c1.27 1.45 2.92 2.82 3.04 4.9l-2.13.1c-.57-1.06-1.11-2.14-1.42-3.31z"/><path fill="#555659" d="M308.06 99.96c1.55 7.74.03 15.69.63 23.52-1.71-1.79-3.34-3.64-4.8-5.64.89-1.7 1.65-3.47 2.39-5.23 1.97-3.93 1.76-8.39 1.78-12.65z"/><path fill="#dbdde9" d="M278.36 102.12l1.56-.16.04.91c-.39 0-1.18-.01-1.58-.01l-.02-.74z"/><path fill="#8b8f80" d="M287.19 103.79c.06 1.93.41 3.84 1.46 5.49l2.96-2.24.77-.58c.88 1.36 1.2 2.89.56 4.41l2.11 1.08c.03 2.4-.47 4.81-.19 7.21.47 1.81 1.57 3.38 2.49 5l-.84 1.84-.89 3.99-1.16-3.83-1.12 3.87c.01-5.12-.33-10.36-2.4-15.12l-1.12 2.31-1.17-1.35-.48-.56c-.92-1.87-2.1-3.76-2.2-5.9.14-1.92.81-3.75 1.22-5.62m2.97 8.26c-1.33.67-1.35 1.34-.05 2.03 1.33-.67 1.34-1.35.05-2.03z"/><path fill="#acabb4" d="M294.23 104.1l.84-.34.83.33.35.83-.34.83-.83.35-.84-.34-.35-.83.34-.83z"/><path fill="#acabb1" d="M295.18 107.26l1.78-.3c.41 5.49.95 11.01.76 16.52l-.37.68c-.92-1.62-2.02-3.19-2.49-5-.28-2.4.22-4.81.19-7.21.03-1.57.02-3.13.13-4.69z"/><path fill="#f2f0f7" d="M298.9 106.95l2.86.67c.27 1.55.31 3.12.07 4.68l-2.55.92-.38-6.27z"/><path fill="#a8aba5" d="M290.16 112.05c1.29.68 1.28 1.36-.05 2.03-1.3-.69-1.28-1.36.05-2.03z"/><path fill="#cacbd3" d="M276.2 112.74c1.34 5.62 1.54 11.37 2.11 17.09 1.11-.69 1.98-1.65 2.82-2.63l1.02 2.19c-.06 1.55-.1 3.11-.03 4.66.64 5.23 1.34 10.45 1.62 15.71-.3 1.73-.49 3.79-2.8 3.33-.85-5.61.26-11.36-1.02-16.9-.22-1.42-1.72-1.9-2.72-2.64-1.64-6.83-1.13-13.86-1-20.81z"/><path fill="#91958f" d="M282.82 115.45l5.35-.14.48.56-4.46 2.63c1.1 2.42 2.7 4.57 4.66 6.37l.76-2.84.58 5.73-2.49-.03c-1.23.39-2.36 1-3.46 1.64l-.52 4.67-1.6.01c-.07-1.55-.03-3.11.03-4.66 1.24-4.55 1.02-9.29.67-13.94z"/><path fill="#b0b6a2" d="M289.82 117.22l1.12-2.31c2.07 4.76 2.41 10 2.4 15.12-.18 10.75.75 21.51 2.8 32.05-.16 1.9-.28 3.81-.6 5.69-1.14 2.62.1 5.26 1.08 7.7-.41.95-1.1 1.89-.95 2.99.11 4.16 1.65 8.54-.17 12.55l-1.58-2.75c.74-7.45-.82-14.84-1.1-22.27-.84-6.58-1.12-13.19-1.33-19.81-.73-6.12-1.53-12.24-1.3-18.42-.14-1.92-.41-3.82-.58-5.73.05-1.61.09-3.21.21-4.81z"/><path fill="#7a7e71" d="M288.65 115.87l1.17 1.35-.21 4.81-.76 2.84c-1.96-1.8-3.56-3.95-4.66-6.37l4.46-2.63z"/><path fill="#60605a" d="M302.73 118.99l1.16-1.15c1.46 2 3.09 3.85 4.8 5.64.62 2.22 1.73 4.62.75 6.91-1.13 2.83-3.25 5.08-5.09 7.45-3.88 4.52-2.35 10.89-3.35 16.33-.12 2.93-2.05 5.24-3.21 7.8-.83 2.89-.22 5.95.13 8.87-.82-1-1.6-2.04-2.38-3.07.32-1.88.44-3.79.6-5.69 1.29-2.37 3.59-4.53 3.42-7.43-.16-4.56-.06-9.12-.39-13.67-.27-4.94-1.72-9.72-2.08-14.65 2.49.7 3.42 3.01 4.14 5.25-1.22 2.72-1.7 5.68-1.27 8.64l3.46-3.96c.68-.86 1.66-1.54 2.08-2.58 1-5.07-.93-10.05-2.77-14.69z"/><path fill="#89898d" d="M300.29 120.29l2.44-1.3c1.84 4.64 3.77 9.62 2.77 14.69-.42 1.04-1.4 1.72-2.08 2.58l-.37-4.18c-.33-4.04-1.18-8.05-2.76-11.79z"/><path fill="#2a2b2d" d="M297.72 123.48l2.17-3.86.4.67c1.58 3.74 2.43 7.75 2.76 11.79l-1.82-.5c-.72-2.24-1.65-4.55-4.14-5.25l-.58-.33.84-1.84.37-.68z"/><path fill="#7b8170" d="M293.34 130.03c.3-1.31.7-2.59 1.12-3.87l1.16 3.83.89-3.99.58.33c.36 4.93 1.81 9.71 2.08 14.65.33 4.55.23 9.11.39 13.67.17 2.9-2.13 5.06-3.42 7.43-2.05-10.54-2.98-21.3-2.8-32.05z"/><path fill="#6e7171" d="M287.7 127.73l2.49.03c-.23 6.18.57 12.3 1.3 18.42.21 6.62.49 13.23 1.33 19.81.28 7.43 1.84 14.82 1.1 22.27-.6-.88-1.21-1.75-1.84-2.61-.04-2.41-.17-4.83-.6-7.21l-2.51-1.88c-.96 2.48-1.65 5.05-2.13 7.66l-.79-.3-1.22-.67.14-.82c.57-1.95.39-3.96-.02-5.92l-.21-4.01 2.49.25.19-3.84c.37 1.51.18 4.09 2.42 3.84-.02-2.47-.35-4.93-.72-7.37-.8-3.82 1.25-7.5.75-11.34l-2.17-26.31z"/><path fill="#b0b6a3" d="M284.24 129.37c1.1-.64 2.23-1.25 3.46-1.64l2.17 26.31c.5 3.84-1.55 7.52-.75 11.34.37 2.44.7 4.9.72 7.37-2.24.25-2.05-2.33-2.42-3.84.34-6.17-3.13-11.75-2.74-17.92.13-5.67-.44-11.31-.96-16.95.09-1.56.3-3.12.52-4.67z"/><path opacity=".77" d="M268.86 134.3c1.04-2.39 4.2-1.9 6.29-2.69a23.16 23.16 0 0 0 .26 3.11c-2.23 2.04-4.39 4.17-6.11 6.67-.2-2.35-.94-4.74-.44-7.09z"/><path fill="#141413" opacity=".36" d="M301.23 131.58l1.82.5.37 4.18-3.46 3.96c-.43-2.96.05-5.92 1.27-8.64z"/><path fill="#b4b6c0" d="M277.2 133.55c1 .74 2.5 1.22 2.72 2.64 1.28 5.54.17 11.29 1.02 16.9 2.31.46 2.5-1.6 2.8-3.33l.32 4.04-2.87.67c-.28 2.19-.14 4.96 2.47 5.56l-.08.67c-.42 1.06-.86 2.12-1.23 3.21-1.38-.99-2.85-1.85-4.45-2.43 1.22-3.96 1.52-8.16.68-12.24-1-5.17-1.19-10.44-1.38-15.69z"/><path fill="#444242" d="M282.12 134.05l1.6-.01c.52 5.64 1.09 11.28.96 16.95-.39 6.17 3.08 11.75 2.74 17.92l-.19 3.84-2.49-.25-1.75-1.8c.51-3.31.73-6.66.59-10l.08-.67c.28-2.06.49-4.15.4-6.23l-.32-4.04c-.28-5.26-.98-10.48-1.62-15.71z"/><path fill="#a6826b" opacity=".93" d="M269.3 141.39c1.72-2.5 3.88-4.63 6.11-6.67.96 3.32 1.12 6.78.93 10.22l-1 .09a83.54 83.54 0 0 0-.32-7.25c-3.79 2.47-5.32 6.92-7.89 10.43-4.81 7.36-11.58 13.22-16.16 20.73l-.35-2.99c1.12-1.51 2.09-3.13 3.17-4.66l.47-.57c2.66-2.14 4.74-4.85 6.85-7.51 1.2-1.4 2.45-2.75 3.61-4.18l1.37-1.81c.71-1.05 1.37-2.14 2.02-3.23-3.53-1.7-7.36-2.64-11.22-3.21 4.02-1.4 7.87.62 11.61 1.87l.8-1.26z"/><path fill="#ebb999" d="M267.13 148.21c2.57-3.51 4.1-7.96 7.89-10.43a83.54 83.54 0 0 1 .32 7.25c-.16 4.14.04 8.56-2.01 12.32-1.92 3.55-3.96 7.22-7.21 9.73-3.59 2.73-7.39 5.57-12 6.17-1.34-1.18-2.86-2.43-3.15-4.31 4.58-7.51 11.35-13.37 16.16-20.73z"/><path opacity=".07" d="M304.35 137.84c-.14 2.08-.22 4.18.16 6.24 3.72 1.59 7.49 3.1 11.45 3.95 6.59 1.39 11.03 7.18 17.24 9.38 1.65-.54 2.98-1.79 4.58-2.48 1.22 1.34 2.35 2.77 3.46 4.2.95-1.33.84-2.97.75-4.52 3.85.63 6.57 3.39 9.27 5.95 2.54.16 4.45-1.96 6.6-3.02 2.08 2.53 3.49 6.02 6.79 7.17 1.06-.82 2.17-1.57 3.33-2.25 1.8 1.79 3.15 3.97 5.07 5.65 1.93-.88 3.87-1.74 5.84-2.53 1.33.97 2.61 2.03 4.05 2.85 1.99.11 3.95-.52 5.93-.73 1.26 1.2 2.34 2.65 3.86 3.54 3.11.84 6.31 1.41 9.5 1.88 3.55.29 7.28.4 10.45 2.23.96 1.21 1.73 2.57 2.54 3.89a11.78 11.78 0 0 0 5.07-.93l.34-3.05c1.29.74 2.53 1.63 3.96 2.11 1.77.18 3.5-.42 5.28-.45 2.73 1.23 4.71 3.84 7.69 4.6 1.83.18 3.59-.58 5.41-.71 2.24.53 4 2.45 6.34 2.65 1.89-.49 3.48-1.94 5.45-2.11 1.69-.02 2.3 1.77 3.13 2.92 2.76-.34 5.49-1.53 8.31-.86.55 1.76.6 3.95 2.22 5.16 1.25.96 2.66 2.26 4.38 1.95 3.66-.76 6.7-3.17 10.29-4.18 1.32 1.33 2.59 2.71 3.81 4.14l2.17-2.93 2.27 2.62c2.08-.08 4.15-.27 6.23-.48-.65 1.46-3.11 2.95-1.6 4.58 1.33-1.64 2.41-3.45 3.46-5.27l3.33.52 4.07-4.45c.32 2.02.67 4.05 1.18 6.04a74.82 74.82 0 0 0 3.99.37v38.45c-1.18-2.45-2.22-5.81-5.36-6.23-2.42.3-4.47 2.8-6.99 1.86.11-1.32.29-2.63.53-3.92-1.28.07-2.77-.33-3.85.53-.9 1.15-1.64 2.42-2.42 3.66-2.45-2.43-5.35-5.33-9.14-4.21 1.69 1.55 3.47 3.03 5.21 4.54l-2.92.84c-2.26-1.56-3.89-3.8-5.85-5.68-1.08.61-2.12 1.29-3.26 1.78-3.6-.26-6.7-2.45-10.22-3.04-1.3.27-2.52.83-3.75 1.31-1.73-.77-3.44-1.56-5.19-2.24-.37 1.24-.69 2.5-.94 3.77-1.39-2.38-3.16-4.57-5.57-5.98a57.21 57.21 0 0 0-1.16 5.19c-1.82-1.51-3.37-3.43-5.49-4.53-3.2.2-6.19 1.98-9.44 1.51-2.64-.36-5.26.08-7.89.16l1.06-3.26c-2.02.17-4.05.56-6.08.39-1.98-.83-3.68-2.18-5.47-3.34.15 1.16.24 2.33.15 3.5-1.41-.72-2.78-1.52-4.24-2.1-2.43-.24-4.76 1.22-7.2.83-2.63-.35-5.17-1.58-7.86-1.17-2.19.33-4.33.89-6.5 1.29l-1.03-4.09c-3.82.09-7.84 1.71-11.49-.06-3.79-1.54-7.89-2.11-11.61-3.85l-3.53 2.03-.39-1.95c-1.67.03-3.34.19-5 .08-2.13-.5-3.93-1.96-6.1-2.28-3.43.16-6.68 1.52-10.11 1.65-2.41-.07-4.66-1.05-7.03-1.36-1.81-.13-3.59.5-5.4.35-2.41-.57-4.72-1.51-7.17-1.91.52 4.17 1.04 8.47-.77 12.43-1.09-3.73-1.8-7.56-2.63-11.35l-.52-2.4-.29-1.17c.62-1.03 1.83-2.02 1.49-3.37-.9-6.85-5.47-12.28-10.03-17.14-1.5-2.12-3.75-3.4-6.07-4.42-.85-.77-1.65-1.58-2.48-2.35-1.34-1.15-2.75-2.23-4.08-3.39-.35-2.92-.96-5.98-.13-8.87 1.16-2.56 3.09-4.87 3.21-7.8 1-5.44-.53-11.81 3.35-16.33z"/><path fill="#3c3f40" d="M245.03 150.8c2.36-4.8 6.72-8.53 11.86-10.02 3.86.57 7.69 1.51 11.22 3.21-.65 1.09-1.31 2.18-2.02 3.23-2.1-1.16-4.17-3.22-6.76-2.75-5.26.88-9.32 4.66-12.64 8.58-.54-.77-1.09-1.52-1.66-2.25z"/><path fill="#716f6f" d="M246.69 153.05c3.32-3.92 7.38-7.7 12.64-8.58 2.59-.47 4.66 1.59 6.76 2.75l-1.37 1.81c-2.07-1.27-4.16-2.95-6.74-2.73-.99 1.15-1.19 2.74-.67 4.15 1.14 1.08 2.49 1.89 3.8 2.76-2.11 2.66-4.19 5.37-6.85 7.51-.06-1.7-.22-3.39-.38-5.09-1.86-.04-3.74.12-5.59-.1-1.01-.37-1.07-1.69-1.6-2.48z"/><path fill="#d7a786" d="M275.34 145.03l1-.09c-.23 4.31.21 8.65-.31 12.95-1.02 2.5-3.49 4.29-3.69 7.16-.23 2.13-1.08 4.02-3.06 5.04l-.69 3.84c-.56 1.11-1.23 2.16-1.88 3.21-4.56.66-9.01-1.18-12.59-3.89 4.61-.6 8.41-3.44 12-6.17 3.25-2.51 5.29-6.18 7.21-9.73 2.05-3.76 1.85-8.18 2.01-12.32z"/><path fill="#848387" d="M257.98 146.3c2.58-.22 4.67 1.46 6.74 2.73l-3.61 4.18c-1.31-.87-2.66-1.68-3.8-2.76-.52-1.41-.32-3 .67-4.15z"/><path fill="#525353" d="M242.97 154.76l2.06-3.96 1.66 2.25c.53.79.59 2.11 1.6 2.48 1.85.22 3.73.06 5.59.1l.38 5.09-.47.57-.96-1.21c-3.91.27-7.21 2.82-11.03 3.52v-2.8l.11-1.74c2.6.1 3.28-3.13 1.06-4.3z"/><path fill="#d4d1dc" d="M281.19 154.47l2.87-.67c.09 2.08-.12 4.17-.4 6.23-2.61-.6-2.75-3.37-2.47-5.56z"/><path fill="#6b6a65" opacity=".96" d="M242.97 154.76c2.22 1.17 1.54 4.4-1.06 4.3-.07-1.5.22-3.03 1.06-4.3z"/><path fill="#757169" d="M241.8 163.6c3.82-.7 7.12-3.25 11.03-3.52l.96 1.21c-1.08 1.53-2.05 3.15-3.17 4.66-2.17.97-2.85 3.16-3.45 5.28l-.38.29-2.76.59c-.43-3.47 2.93-5.6 4.27-8.46-3.14 0-6.05 1.49-7.33 4.45l.83-7.3v2.8z"/><path fill="#bdbfcc" d="M273.15 163.35c.75-1.31 2.58-1.11 3.83-1.65-.31 2.61.04 5.23 1.06 7.66l-4-.24c-.64-1.85-1.27-3.8-.89-5.77z"/><path fill="#e0dfed" d="M276.98 161.7l.92-.22c1.6.58 3.07 1.44 4.45 2.43l-.38 5.13-3.93.32c-1.02-2.43-1.37-5.05-1.06-7.66z"/><path fill="#6d6c6c" d="M296.62 175.47c-.98-2.44-2.22-5.08-1.08-7.7l2.38 3.07 4.08 3.39-.11 4.63c-1.51-.42-2.98-1-4.32-1.82l-.95-1.57z"/><path fill="#bebfca" d="M269.28 170.09c2.7.4 3.72 2.77 3.97 5.24l-4.66-1.4.69-3.84z"/><path fill="#c1bec1" d="M247.17 171.23l-.07.22-.31.07.38-.29z"/><path fill="#88898c" d="M276.62 171.62c2.11-.43 4.23-.72 6.37-.92l1.75 1.8.21 4.01c-.56 1.96-.72 3.98.02 5.92l-.14.82-3.58.6-3.21-.77c-1.89-1.07-1.7-3.38-1.87-5.24.03-2.08.23-4.16.45-6.22m.53 7.68c-1.35.99.12 3.65 1.61 2.47 1.36-1-.12-3.67-1.61-2.47z"/><path fill="#575654" d="M302 174.23l2.48 2.35c-.69 1.4-1.56 2.76-1.88 4.32.54 2.36 2.35 4.11 4.22 5.51l3.73-5.41c4.56 4.86 9.13 10.29 10.03 17.14.34 1.35-.87 2.34-1.49 3.37-1.67-1.87-3.49-3.69-4.41-6.08-1.25-2.52-1.86-5.53-4.02-7.48-2.81-.76-5.79 1.95-5.5 4.81.18 2.78.17 6.65 3.11 8.02 3.66.86 7.5.72 11.11 1.9l.52 2.4a56.19 56.19 0 0 1-.24 3.66l-1.09-3.42c-2.89.68-5.43 2.4-7.25 4.73l1.67 2.97c-1.18.28-2.38.52-3.58.68l-2.14-.5c-.9-1.24-1.73-2.56-2.89-3.56-1.41-.67-3-.82-4.49-1.18-.03-2.68 2.09-4.76 2.42-7.3-.93-2.41-2.77-4.32-4.23-6.41l.07-.85c1.2-5.56 1.65-11.48-.58-16.86 1.34.82 2.81 1.4 4.32 1.82.07-1.55.11-3.09.11-4.63z"/><path fill="#82867c" d="M295.67 178.46c-.15-1.1.54-2.04.95-2.99l.95 1.57c2.23 5.38 1.78 11.3.58 16.86l-2.91-1.8c.43 4.53-.5 9.23.81 13.64h1.58c.26-3.66.24-7.33.45-10.99 1.46 2.09 3.3 4 4.23 6.41-.33 2.54-2.45 4.62-2.42 7.3 1.49.36 3.08.51 4.49 1.18 1.16 1 1.99 2.32 2.89 3.56-2.62.04-4.81-1.42-7.15-2.35l-1.42 3.22c-.83-.73-1.68-1.44-2.47-2.21-.83-1.21-1.6-2.46-2.35-3.72-1.09-1.87-2.07-3.81-3.22-5.65-2.03-1.95-4.82-2.53-7.55-2.3-.42 2.13.06 4.26.45 6.35l.24 2-1.37-.97-.39-.67c-2.75-7.69-.1-16.45-4-23.82a57.66 57.66 0 0 0 3.21.77c-.98 5.01.76 9.88.83 14.87l1.58.16 2.19.11a80.2 80.2 0 0 0 .18-4.37c.07-3.57-.08-7.14.02-10.7l.79.3c.34 5.45.35 11.05 2.33 16.23 1.26-.44 2.32-1.24 3.08-2.33-1.05-2.05-2.53-3.95-3.01-6.23-.07-2.39 1.73-4.27 2.84-6.24.63.86 1.24 1.73 1.84 2.61l1.58 2.75c1.82-4.01.28-8.39.17-12.55z"/><path fill="#202226" d="M267.61 178.62a28.36 28.36 0 0 1 2.63-1.86c2.03-.68 4.03.45 5.93 1.08.17 1.86-.02 4.17 1.87 5.24 3.9 7.37 1.25 16.13 4 23.82-1.08-1.26-1.56-3.91-3.64-3.57-.54 1.24-.91 2.55-1.23 3.87 0-6.25-2.43-12.22-6.19-17.11-.79-.81-2.07-.53-3.07-.8l-.06-1.3c.63-1.93 1.64-3.79 1.73-5.85-.54-1.23-1.29-2.37-1.97-3.52z"/><path fill="#c4c3cb" d="M284.97 182.43c-.74-1.94-.58-3.96-.02-5.92.41 1.96.59 3.97.02 5.92z"/><path fill="#9c9e92" d="M286.84 184.22c.48-2.61 1.17-5.18 2.13-7.66l2.51 1.88c.43 2.38.56 4.8.6 7.21-1.11 1.97-2.91 3.85-2.84 6.24.48 2.28 1.96 4.18 3.01 6.23-.76 1.09-1.82 1.89-3.08 2.33-1.98-5.18-1.99-10.78-2.33-16.23z"/><path fill="#696867" d="M304.48 176.58c2.32 1.02 4.57 2.3 6.07 4.42l-3.73 5.41c-1.87-1.4-3.68-3.15-4.22-5.51.32-1.56 1.19-2.92 1.88-4.32z"/><path fill="#4d4a47" d="M246.37 180.4c7.04-.92 14.15-1.3 21.24-1.78.68 1.15 1.43 2.29 1.97 3.52-.09 2.06-1.1 3.92-1.73 5.85-1.48-.69-2.99-1.29-4.55-1.76l-3.38 2.46c-1.78-1.47-3.36-3.19-5.36-4.36-2.77-1.47-5.99-.92-8.99-.87.29-1.02.55-2.04.8-3.06z"/><path fill="#b8b8be" d="M277.15 179.3c1.49-1.2 2.97 1.47 1.61 2.47-1.49 1.18-2.96-1.48-1.61-2.47z"/><path fill="#4e504f" d="M239.32 179.63c2.09 1.14 4 2.59 5.69 4.28l-3.77 3.05c1.57 2.53 3.09 5.14 3.78 8.07l-5.82-.27c-1.09-1-2.09-2.16-3.43-2.83-1.66-.24-3.34-.17-5-.19 1.46-4.91 5.93-7.9 8.55-12.11z"/><path fill="#3f3d3b" d="M245.57 183.46c3-.05 6.22-.6 8.99.87 2 1.17 3.58 2.89 5.36 4.36l3.38-2.46c1.56.47 3.07 1.07 4.55 1.76l.06 1.3c.1 3.74 4.12 6.67 2.53 10.5-2.08-1.37-4.21-2.75-6.71-3.17.62 2.27 1.37 4.7-.37 6.68-1.11-1.52-2.12-3.14-3.6-4.33-1.34-.95-2.89-1.51-4.48-1.82-3.38-.88-6.81-1.59-10.26-2.12-.69-2.93-2.21-5.54-3.78-8.07 1.22-1.06 2.49-2.07 3.77-3.05l.56-.45z"/><path fill="#bfbec8" d="M281.25 183.85l3.58-.6 1.22.67c-.1 3.56.05 7.13-.02 10.7-1.86.63-2.1 2.59-2.37 4.26l-1.58-.16c-.07-4.99-1.81-9.86-.83-14.87z"/><path fill="#666768" d="M305.16 192.76c-.29-2.86 2.69-5.57 5.5-4.81 2.16 1.95 2.77 4.96 4.02 7.48.92 2.39 2.74 4.21 4.41 6.08l.29 1.17c-3.61-1.18-7.45-1.04-11.11-1.9-2.94-1.37-2.93-5.24-3.11-8.02z"/><path fill="#504f4c" d="M267.91 189.29c1 .27 2.28-.01 3.07.8 3.76 4.89 6.19 10.86 6.19 17.11-.11 2.62-.43 5.29-1.88 7.55a85.7 85.7 0 0 0-5.3-.35c.68 1.64 2.42 2.06 3.92 2.64-.23 1.69-.65 3.35-1.08 5l-.92-.14-.91-.14-.73.49c-1.48 1.64-1.83 3.89-2.59 5.89-.63.95-1.32 1.86-1.98 2.8l-2.42-1.63c1.36-1.59 2.79-3.15 3.82-4.99-2.5.64-4.94 1.52-7.49 1.96-.96-1.05-1.84-2.19-2.98-3.04-1.82-.67-3.76-.92-5.66-1.25-4.45-.66-8.89-1.56-13.4-1.65-5.8-.07-11.28 2.08-16.87 3.32l-1.6.4c3.21-2.4 6.36-4.9 9.17-7.78-.44 1.15-.82 2.32-1.19 3.49 3.26-.1 6.5-.43 9.76-.58 6.37-.38 12.84.03 18.96 1.95l3.01 1.07c1.91.75 3.97.81 5.99.59.68-5.2-4.47-9.35-2.79-14.53a4.52 4.52 0 0 0-.16-2.55c-.97-2.16-1.71-4.41-2.09-6.75 1.48 1.19 2.49 2.81 3.6 4.33 1.74-1.98.99-4.41.37-6.68 2.5.42 4.63 1.8 6.71 3.17 1.59-3.83-2.43-6.76-2.53-10.5m-2.61 15.47c.31 2.25.15 4.88 1.78 6.68 1.83-1.53 1.55-4.19 1.61-6.34-1.13-.14-2.26-.25-3.39-.34m7.91 4c-1.11-.54-2.25-1.9-3.53-.94-1.83.73-.64 2.97.4 3.91 1.91-.42 4.28-.57 5.45-2.38.92-1.22.75-2.78.69-4.2-1.49.68-2.05 2.38-3.01 3.61z"/><path fill="#606363" d="M230.77 191.74c1.66.02 3.34-.05 5 .19 1.34.67 2.34 1.83 3.43 2.83l-1.41 3.93c-1.47.96-3.06 1.92-3.79 3.6l-1.13 3.13c1.93-.5 3.91-1.31 5.93-.74-3.23 1.06-5.82 3.32-7.96 5.88-1.84-3.7.38-7.29 1.4-10.84l-2.94-1.93c.24-2.07.77-4.09 1.47-6.05z"/><path fill="#b9bcb2" d="M295.24 192.1l2.91 1.8-.07.85c-.21 3.66-.19 7.33-.45 10.99h-1.58c-1.31-4.41-.38-9.11-.81-13.64z"/><path fill="#6f7171" d="M239.2 194.76l5.82.27c3.45.53 6.88 1.24 10.26 2.12-3.04.88-6.16.42-9.24.11-1.45-.38-2.71.37-3.45 1.6l-4.8-.17 1.41-3.93z"/><path fill="#dbd8e5" d="M283.66 198.88c.27-1.67.51-3.63 2.37-4.26l-.18 4.37-2.19-.11z"/><path fill="#5e6060" d="M242.59 198.86c.74-1.23 2-1.98 3.45-1.6 3.08.31 6.2.77 9.24-.11 1.59.31 3.14.87 4.48 1.82.38 2.34 1.12 4.59 2.09 6.75l-2.19-.12c-1.18-1.51-2.06-3.61-4.1-4.1-4.23-1.28-8.65-1.74-12.97-2.64z"/><path fill="#94969a" d="M234 202.29c.73-1.68 2.32-2.64 3.79-3.6l4.8.17c4.32.9 8.74 1.36 12.97 2.64 2.04.49 2.92 2.59 4.1 4.1l-1.82.27c-1.02-.92-1.75-2.34-3.17-2.69-3.83-1.08-7.84-1.49-11.81-1.34-2.95.21-5.9.47-8.86.45z"/><path fill="#80b1d9" d="M283.11 200.19c2.73-.23 5.52.35 7.55 2.3l-2.18-.47-4.44-.79-.51 1.96.57 1.69c2.04.4 4.11.62 6.18.79l-6.72.87c-.39-2.09-.87-4.22-.45-6.35z"/><path fill="#daffff" d="M284.04 201.23l4.44.79-1.62 1.94-3.33-.77.51-1.96z"/><path fill="#464641" d="M234 202.29c2.96.02 5.91-.24 8.86-.45l-.67 2.21c4.9 2.06 10.41 3.47 15.65 1.82.46-.06 1.36-.2 1.82-.27l2.19.12a4.52 4.52 0 0 1 .16 2.55l-5.15.4c-6.3.51-12.58-.88-18.06-3.99-2.02-.57-4 .24-5.93.74.36-1.05.72-2.1 1.13-3.13z"/><path fill="#5d5a55" d="M242.86 201.84c3.97-.15 7.98.26 11.81 1.34 1.42.35 2.15 1.77 3.17 2.69-5.24 1.65-10.75.24-15.65-1.82l.67-2.21z"/><path fill="#94f3fc" d="M288.48 202.02l2.18.47-.38 3.18-6.18-.79-.57-1.69 3.33.77 1.62-1.94z"/><path fill="#010101" opacity=".79" d="M278.4 203.33c2.08-.34 2.56 2.31 3.64 3.57l.39.67c.47 2.05.77 4.13 1.01 6.22-2.44-.63-5.01-.92-6.89 1.07l-1.26-.11c1.45-2.26 1.77-4.93 1.88-7.55.32-1.32.69-2.63 1.23-3.87z"/><path fill="#686b70" d="M290.66 202.49l3.22 5.65c-3.27.7-6.61 1.04-9.94 1.26l-.14-.86-.24-2 6.72-.87.38-3.18z"/><path fill="#83857b" d="M230.84 210.56c2.14-2.56 4.73-4.82 7.96-5.88 5.48 3.11 11.76 4.5 18.06 3.99 3.17 3.84 2.18 8.98 1.95 13.54l-3.01-1.07c.59-2.79 1.74-5.76.76-8.59-1.11-1.29-2.73-2.29-4.5-2.12-3.66.12-7.31.51-10.94.9-2.27.15-4.43 1.31-5.73 3.18-.82 1.75.63 3.27 1.45 4.68l-9.76.58c.37-1.17.75-2.34 1.19-3.49 1.03-1.82 1.85-3.75 2.57-5.72z"/><path fill="#2a2c30" d="M265.3 204.76l3.39.34c-.06 2.15.22 4.81-1.61 6.34-1.63-1.8-1.47-4.43-1.78-6.68z"/><path fill="#6b6a6b" d="M273.21 208.76c.96-1.23 1.52-2.93 3.01-3.61.06 1.42.23 2.98-.69 4.2-1.17 1.81-3.54 1.96-5.45 2.38-1.04-.94-2.23-3.18-.4-3.91 1.28-.96 2.42.4 3.53.94z"/><path fill="#6e6d6d" d="M311.32 210.05c1.82-2.33 4.36-4.05 7.25-4.73l1.09 3.42-1.16 2.17-3.8 1.62-.9.26-.81.23-1.67-2.97z"/><path fill="#454646" d="M319.9 205.08c.83 3.79 1.54 7.62 2.63 11.35 1.69 9.24 4.96 18.12 6.37 27.41.38 2.25.59 4.57 1.4 6.72 1.89 2.11 4.9 3.23 6.01 6.01 1.93 4.38 3.54 8.98 4.22 13.75.34 2.13-.72 4.11-1.49 6.03-1-5.23-1.78-10.5-2.73-15.74-.46-2.02-.8-4.17-2.02-5.88a28.63 28.63 0 0 0-2.93-.85c1.4 5.54 1.93 11.24 1.81 16.95a129.57 129.57 0 0 1-4.9-1.18c.58-3.21 1.12-6.45 1.12-9.72.33-3.34.65-6.74-.09-10.05-2.29-11.35-4.7-22.71-8.15-33.78-.58-1.87-1.62-3.55-2.65-5.19l1.16-2.17a56.19 56.19 0 0 0 .24-3.66z"/><path fill="#707167" d="M256.86 208.67l5.15-.4c-1.68 5.18 3.47 9.33 2.79 14.53-2.02.22-4.08.16-5.99-.59.23-4.56 1.22-9.7-1.95-13.54z"/><path fill="#4e4f53" d="M282.43 207.57l1.37.97.14.86.51 3.19c2.16 1.24 4.48 2.14 6.84 2.92l-.71 2.15-3.02-.55-.48-.08c-2.04-.39-4.1.04-6.15-.05-1.59-.4-2.94-1.39-4.38-2.12 1.88-1.99 4.45-1.7 6.89-1.07l-1.01-6.22z"/><path fill="#a3a4a9" d="M283.94 209.4c3.33-.22 6.67-.56 9.94-1.26.75 1.26 1.52 2.51 2.35 3.72l-.37 2.92c-1.53.27-3.04.55-4.57.73-2.36-.78-4.68-1.68-6.84-2.92l-.51-3.19z"/><path fill="#93948b" d="M241.12 211.33c3.63-.39 7.28-.78 10.94-.9 1.77-.17 3.39.83 4.5 2.12.98 2.83-.17 5.8-.76 8.59-6.12-1.92-12.59-2.33-18.96-1.95-.82-1.41-2.27-2.93-1.45-4.68 1.3-1.87 3.46-3.03 5.73-3.18z"/><path fill="#433531" d="M300.12 210.85c2.34.93 4.53 2.39 7.15 2.35l2.14.5.32 7.48c-.46-2.71-1.07-5.48-2.69-7.77-2.55 4.08-1.2 9.15-1.27 13.68-1.2-.99-2.78-1.66-3.6-3.04-.32-2 .27-4.01.41-6l-1.45-1.74-2.43-2.24 1.42-3.22z"/><path fill="#b7876c" d="M314.7 212.53l3.8-1.62c1.03 1.64 2.07 3.32 2.65 5.19 3.45 11.07 5.86 22.43 8.15 33.78.74 3.31.42 6.71.09 10.05a137.29 137.29 0 0 0-4.55.17l.64-.63c2.34-1.78 1.51-4.87 1.42-7.38-.95-8.99-1.9-18.13-5.21-26.62-1.57-3.98-2.37-8.22-4.22-12.08l-2.77-.86z"/><path fill="#606277" d="M296.23 211.86l2.47 2.21 2.43 2.24a7.8 7.8 0 0 0-.15 3.53c.89 1.7 1.76-.97 1.6-1.79-.14 1.99-.73 4-.41 6 .82 1.38 2.4 2.05 3.6 3.04l1.02 1.16.15.74c-1.85.28-3.94.29-5.29 1.8 1.71.94 3.64 1.26 5.57.94l-.94 2.45-3.65 2.89c-1.68-1.08-3.4-2.44-4-4.43-.31-2.19-.07-4.41-.1-6.61l.01-.42-.3-.25c-1.55-1.72-3.75-2.36-5.99-2.36l-4.6-.56-.24-4.72.15-.61 3.02.55.71-2.15 4.57-.73.37-2.92m-3.83 4.5c-.58 1.81-.95 3.67-1.12 5.57 2.95.61 6.13-1.17 7.5-3.76-1.5-2.07-4.08-2.13-6.38-1.81m6.86 6.91v.45h.45l.01-.45h-.46z"/><path fill="#bd8a6b" d="M309.41 213.7c1.2-.16 2.4-.4 3.58-.68l.81-.23c-.93 2.56-1.33 5.29-.51 7.93 1.7 6.63 1.66 13.59.64 20.32-1.1 6.44.55 12.89 1.79 19.18 1.93.45 3.89.79 5.88.93-2.71 1.17-5.63.25-8.38-.2-.74-2.59-1.33-5.23-1.43-7.92-.25-7.45-1.28-14.84-1.27-22.29-.03-3.2-.4-6.39-.79-9.56-.22-2.49-.29-4.98-.32-7.48z"/><path fill="#d5a081" d="M313.8 212.79l.9-.26 2.77.86c1.85 3.86 2.65 8.1 4.22 12.08 3.31 8.49 4.26 17.63 5.21 26.62.09 2.51.92 5.6-1.42 7.38-2.92-11.47-3.04-23.61-7.7-34.63-1.84 4.14-1.73 8.75-1.74 13.18-.01 6.41 1.94 12.57 3.15 18.8.16 1.93 1.68 3.09 3.15 4.11l-.74.22c-1.99-.14-3.95-.48-5.88-.93-1.24-6.29-2.89-12.74-1.79-19.18 1.02-6.73 1.06-13.69-.64-20.32-.82-2.64-.42-5.37.51-7.93z"/><path fill="#5f6279" d="M269.99 214.4l5.3.35 1.26.11c1.44.73 2.79 1.72 4.38 2.12 2.05.09 4.11-.34 6.15.05l-2.73 1.2c-.45 3.36-.04 6.82 1.52 9.86-4.34.52-8.58-.97-12.9-.99-.2-1.68-.33-3.37-.14-5.06.43-1.65.85-3.31 1.08-5-1.5-.58-3.24-1-3.92-2.64m7.25 2.62v.83l.71.41.71-.42v-.82l-.71-.42-.71.42z"/><path opacity=".07" d="M307.04 213.41c1.62 2.29 2.23 5.06 2.69 7.77l.79 9.56c0 3.2-.32 6.4-.49 9.6l-2.25-2.63c.06-3.17 1.82-6.96-.99-9.46l-1.02-1.16c.07-4.53-1.28-9.6 1.27-13.68z"/><path fill="#e1dfec" d="M292.4 216.36c2.3-.32 4.88-.26 6.38 1.81-1.37 2.59-4.55 4.37-7.5 3.76.17-1.9.54-3.76 1.12-5.57z"/><path fill="#8d8a91" d="M301.13 216.31l1.45 1.74c.16.82-.71 3.49-1.6 1.79a7.8 7.8 0 0 1 .15-3.53z"/><path fill="#9190a3" d="M277.24 217.02l.71-.42.71.42v.82l-.71.42-.71-.41v-.83z"/><path fill="#6f7285" d="M284.35 218.23l2.73-1.2.33.69.24 4.72 4.6.56c-.48 1.27-.32 2.94-1.4 3.91-1.53.8-3.3.92-4.98 1.18-1.56-3.04-1.97-6.5-1.52-9.86z"/><path fill="#c1bec8" d="M287.08 217.03l.48.08-.15.61-.33-.69z"/><path fill="#939189" d="M220.7 223.66c5.59-1.24 11.07-3.39 16.87-3.32 4.51.09 8.95.99 13.4 1.65l1 2.21-1.13.43c-6.31.05-12.9-2.13-18.92.73-4.27.36-8.5.98-12.7 1.82l1.48-3.52z"/><path fill="#737270" d="M250.97 221.99c1.9.33 3.84.58 5.66 1.25 1.14.85 2.02 1.99 2.98 3.04 2.55-.44 4.99-1.32 7.49-1.96-1.03 1.84-2.46 3.4-3.82 4.99l-1.95 3.59-2.3-1.06c-4.69-1.46-8.01 3-10.38 6.31-.39-2.22-.93-4.61-.05-6.79 1.01-2.02 2.71-3.58 4.18-5.27-6.96.03-13.92-.31-20.86-.73 6.02-2.86 12.61-.68 18.92-.73.28-.1.85-.32 1.13-.43l-1-2.21z"/><path fill="#6e7489" d="M267.68 228.14c.76-2 1.11-4.25 2.59-5.89l1.05 1.01.6-.55-.01-.81.92.14c-.19 1.69-.06 3.38.14 5.06l-5.29 1.04z"/><path fill="#979bab" d="M270.27 222.25l.73-.49.91.14.01.81-.6.55-1.05-1.01z"/><path fill="#585756" d="M292.25 223c2.24 0 4.44.64 5.99 2.36l.29.67c.03 2.2-.21 4.42.1 6.61.6 1.99 2.32 3.35 4 4.43l3.65-2.89c-.48 3.28 1.39 6.1 2.37 9.08.66 2.95-.83 5.81-1.09 8.73.06 1.39 1.18 2.45 1.77 3.66-.1 3.57-.26 7.17.22 10.72.14 1.53 1.22 3.84 2.98 2.37 1.97-2.19 1.43-5.23.69-7.79 2.75.45 5.67 1.37 8.38.2l.74-.22 2.5-.83a137.29 137.29 0 0 1 4.55-.17c0 3.27-.54 6.51-1.12 9.72a129.57 129.57 0 0 0 4.9 1.18c.18 2.43-.19 5.1 1.06 7.31 1.25.44 2.62.15 3.93.21-.82 1.66-1.47 3.54-2.97 4.72-2.86.97-6 .26-8.91 1-1.65.79-3.12 1.88-4.69 2.8-1.8-.51-2.68-2.13-3.29-3.76-2.02-4.46-4.69-8.6-7.72-12.42-3.68-4.09-3.48-10.25-7.57-14.06 1.12-4.77.97-9.74-.4-14.44-1.17.71-2.24 1.56-3.16 2.56-2.34-1.28-4.42-2.96-6.47-4.65-2.91-2.4-7.24-1.58-10.17-3.83-.46-1.74-.63-3.53-1.11-5.25-.93-.93-2.32-1.05-3.53-1.33-3.48-.62-6.97-1.17-10.49-1.55 1.77-.31 3.52-.7 5.29-1.04 4.32.02 8.56 1.51 12.9.99 1.68-.26 3.45-.38 4.98-1.18 1.08-.97.92-2.64 1.4-3.91m3.9 3.36c-1.31.19-1.96 2.14-.99 3.06 1.78.99 3.02-2.84.99-3.06m-4.01.9l-.34.82.36.83.84.34.83-.34.33-.83-.35-.83-.84-.34-.83.35z"/><path fill="#fff" d="M299.26 223.27h.46l-.01.45h-.45v-.45z"/><path fill="#616261" d="M215.87 226.91c.93-1.1 2.05-2.02 3.23-2.85l1.6-.4-1.48 3.52c4.2-.84 8.43-1.46 12.7-1.82 6.94.42 13.9.76 20.86.73-1.47 1.69-3.17 3.25-4.18 5.27-.88 2.18-.34 4.57.05 6.79 2.37-3.31 5.69-7.77 10.38-6.31a83.82 83.82 0 0 0-2.98 4.44c1.87-.95 3.72-1.96 5.28-3.38.66-1.19 1.25-2.42 1.95-3.59l2.42 1.63c-3.14 3.7-3.43 8.61-4.02 13.2-2.03 3.04-.23 6.35.03 9.59-.48 1.87-2.01 3.48-3.81 4.16-1.79-.28-3.54-.77-5.3-1.18-.86 1.69-1.6 3.44-2.21 5.24a43.31 43.31 0 0 1-4.68 3.01c1.59-6.1 6.13-11.23 6.12-17.78-2.65-1.65-4.73 1.35-6.8 2.62a92.93 92.93 0 0 0-1.91-4.03c-1.9 2.91.12 5.93.32 8.95-.52 2.38-1.63 4.56-2.52 6.81l4.56-1.38c-.95 1.61-1.94 3.19-2.99 4.73-1.62-.92-3.25-1.82-4.89-2.68-.61-2.91-1.18-5.86-2.48-8.56.64-3.3 3.89-4.99 5.31-7.89l2.21-2.1c-.94-1.58-2.04-3.5-4.05-3.75-2.2.23-4.31 1.05-6.54 1.17l-1.58-1.7c1.09-.59 2.21-1.15 3.37-1.62 3.96-.88 8.02-1.07 12.07-1.12l-.64-2.06c-3.53-.71-7.14-.67-10.72-.88-2.05-.3-4.18-1.13-6.22-.35-5.01 1.44-9.17 4.73-13.01 8.11-1.04-4.82.29-9.7.55-14.54z"/><path fill="#a09fab" d="M298.24 225.36l.3.25-.01.42-.29-.67z"/><path fill="#e4b297" d="M316.04 238.02c.01-4.43-.1-9.04 1.74-13.18 4.66 11.02 4.78 23.16 7.7 34.63l-.64.63-2.5.83c-1.47-1.02-2.99-2.18-3.15-4.11-1.21-6.23-3.16-12.39-3.15-18.8z"/><path fill="#767482" d="M296.15 226.36c2.03.22.79 4.05-.99 3.06-.97-.92-.32-2.87.99-3.06z"/><path fill="#585956" d="M211.09 238.03c1.94-3.55 3.07-7.46 4.78-11.12-.26 4.84-1.59 9.72-.55 14.54l.67 3.26c3.65-2.21 7.06-4.87 11.11-6.34 2.25-.08 4.51-.24 6.74-.62-1.16.47-2.28 1.03-3.37 1.62l1.58 1.7c-5.13 6.46-9.33 14.25-8.94 22.74.24 3.65 2.68 6.66 5.88 8.24l1.69 2.86c-.26 1.56-.55 3.11-.9 4.66l-1.51-1.24c.34-4.24-2.97-7.21-6.21-9.3.4 1.91.84 3.81 1.37 5.69.39 1.37.96 2.74 2.14 3.62 2.53 2.19 5.07 4.37 7.39 6.8-2.44-1.35-5.05-2.41-7.81-2.86a56.16 56.16 0 0 0-.98 3.43c6.95 5.77 16.5 4.65 24.9 5.32-2.21 1.11-4.39 2.82-7 2.52-4.4-.25-8.79-.61-13.2-.39-2.83-2.11-5.79-4.04-8.89-5.73-.09 1.15-.16 2.31-.21 3.48-1.52-2.7.93-4.9 1.92-7.21 1.08-6.08-1.8-11.8-2.69-17.69-.71-4.59-1.77-9.12-3.32-13.49 1.35-.17 2.97.19 3.98-.96 2.76-2.56 5-5.64 7.17-8.7-2.39.64-5.05 1.14-6.68 3.2-1.75 2.07-4.04 3.52-6.57 4.45l-3.3-.85c-1.1-3.8-1.26-8.12.81-11.63z"/><path fill="#333641" d="M292.14 227.26l.83-.35.84.34.35.83-.33.83-.83.34-.84-.34-.36-.83.34-.82z"/><path fill="#787670" d="M265.7 230.94l1.98-2.8c3.52.38 7.01.93 10.49 1.55 1.21.28 2.6.4 3.53 1.33.48 1.72.65 3.51 1.11 5.25 2.93 2.25 7.26 1.43 10.17 3.83 2.05 1.69 4.13 3.37 6.47 4.65a41.28 41.28 0 0 0-2.09 2.5c-.24 1.29-.41 2.59-.62 3.88-3.22 7.44-5.1 15.44-8.87 22.65-1.1 2-2.31 3.98-2.86 6.22l3.24 1.88-1.37.96c-1.51-.18-2.99-.43-4.48-.65-3.93-1.21-7.5 1.19-11.13 2.25-3.03 1.03-6.25.22-9.35.66-1.05.81-1.92 1.82-2.83 2.77l-.83-1.29-.82-1.17c-3.45.9-6.74 2.64-10.4 2.49-4.28-.06-8.87.19-12.72-2.02 2.49.02 4.84-.79 7.16-1.6 3.81.06 7.73.8 11.42-.52-.47-1-.69-2.28-1.77-2.83-2.73-1.74-5.91-2.66-8.58-4.51-2.96-2.09-5.22-5.12-6.42-8.53-1.61-4.53-2.65-9.57-1.01-14.25 1.3 2.7 1.87 5.65 2.48 8.56.44 2.19.81 4.4 1.56 6.51 1.03 2.51 2.25 5.36 4.78 6.67.31-.03.93-.11 1.25-.15l.63-.15 1.45 2.15c3.1.27 6.21.79 8.92 2.43 6.26 3.55 14.82 5.05 20.97.5 4.94-3.29 7.4-8.94 9.74-14.16 1.3-2.68.77-5.69.78-8.54-.08-3.02.39-6.03.16-9.05l-.24-2.4 2.5-1.96 3.15-.22c-1.7-2.05-3.98-3.44-6.45-4.36l-1.84.74c-1.8.72-3.53 1.85-5.54 1.73-1.05-2.88-1.82-5.85-2.93-8.71-1.24.52-2.47 1.1-3.75 1.5-2.01.26-4.12-.47-6.06.13-1.62 3.12-2.08 6.95-5 9.28.59-4.59.88-9.5 4.02-13.2z"/><path fill="#040303" opacity=".78" d="M306.79 228.25c2.81 2.5 1.05 6.29.99 9.46l2.25 2.63c.09 5.05 2.2 10.72-.7 15.31-.59-1.21-1.71-2.27-1.77-3.66.26-2.92 1.75-5.78 1.09-8.73-.98-2.98-2.85-5.8-2.37-9.08l.94-2.45-.28-2.74-.15-.74z"/><path fill="#dad9df" d="M301.65 230.79c1.35-1.51 3.44-1.52 5.29-1.8l.28 2.74c-1.93.32-3.86 0-5.57-.94z"/><path fill="#3f3d3c" d="M310.03 240.34l.49-9.6c-.01 7.45 1.02 14.84 1.27 22.29.1 2.69.69 5.33 1.43 7.92.74 2.56 1.28 5.6-.69 7.79-1.76 1.47-2.84-.84-2.98-2.37-.48-3.55-.32-7.15-.22-10.72 2.9-4.59.79-10.26.7-15.31z"/><path fill="#9f7e6b" d="M259.03 231.84l2.3 1.06c-1.56 1.42-3.41 2.43-5.28 3.38l2.98-4.44z"/><path fill="#87857c" d="M215.32 241.45c3.84-3.38 8-6.67 13.01-8.11 2.04-.78 4.17.05 6.22.35-3.09 1.16-7.44.89-9.24 4.13l1.79.55c-4.05 1.47-7.46 4.13-11.11 6.34l-.67-3.26z"/><path fill="#8f8e87" d="M272.74 234.73c1.28-.4 2.51-.98 3.75-1.5l2.93 8.71c2.01.12 3.74-1.01 5.54-1.73l-.34 3.5c-1.23 6.99-5.2 13.1-6.63 20.01l2.08 1.45c1.83-1.72 3-3.96 3.77-6.32 1.17-3.55 2.63-6.98 4-10.44.23 3.02-.24 6.03-.16 9.05-.01 2.85.52 5.86-.78 8.54-2.34 5.22-4.8 10.87-9.74 14.16-6.15 4.55-14.71 3.05-20.97-.5-2.71-1.64-5.82-2.16-8.92-2.43l-1.45-2.15.04-2.61 3.25 1.51c2.49.16 4.4-1.65 6.02-3.29 3.45-3.77 6.36-7.99 9.76-11.81 1.4-1.89 3.6-3.95 2.93-6.54-2.15-2.68-5.48-4.52-6.14-8.2 2.92-2.33 3.38-6.16 5-9.28 1.94-.6 4.05.13 6.06-.13m-2.57 18.36c-2.29 4.63-5.92 8.42-8.22 13.04l1.01.51c5.38-.86 10.26-3.99 13.2-8.59-1.68-2-3.68-3.74-5.99-4.96z"/><path fill="#9b978e" d="M234.55 233.69c3.58.21 7.19.17 10.72.88l.64 2.06c-4.05.05-8.11.24-12.07 1.12-2.23.38-4.49.54-6.74.62-.45-.13-1.34-.41-1.79-.55 1.8-3.24 6.15-2.97 9.24-4.13z"/><path d="M238.59 239.9c2.01.25 3.11 2.17 4.05 3.75l-2.21 2.1c-2.69 1.33-5.64 2.67-7.26 5.34-3.69 6.3-4.71 13.77-4.18 20.96-3.2-1.58-5.64-4.59-5.88-8.24-.39-8.49 3.81-16.28 8.94-22.74 2.23-.12 4.34-.94 6.54-1.17zm23.12 13.83c-.26-3.24-2.06-6.55-.03-9.59.66 3.68 3.99 5.52 6.14 8.2.67 2.59-1.53 4.65-2.93 6.54-3.4 3.82-6.31 8.04-9.76 11.81-.83-1-1.67-1.99-2.44-3.03-.68-1.53-1.29-3.09-1.92-4.63a46.32 46.32 0 0 0-.38-1.08c.61-1.8 1.35-3.55 2.21-5.24 1.76.41 3.51.9 5.3 1.18 1.8-.68 3.33-2.29 3.81-4.16z" fill="#737474"/><path fill="#5a5c64" d="M284.96 240.21l1.84-.74-.42 2.13 3.72 2.45-2.5 1.96-2.98-2.3.34-3.5z"/><path fill="#353638" d="M286.38 241.6l.42-2.13c2.47.92 4.75 2.31 6.45 4.36l-3.15.22-3.72-2.45z"/><path fill="#9aa088" d="M299.45 244.75c.92-1 1.99-1.85 3.16-2.56 1.37 4.7 1.52 9.67.4 14.44l-1.8 1.71-2.86-.63-.3-1.72-.84-3.97 2.86 5.2c.75-1.54 2.12-3.08 1.63-4.91-.43-2.29-1.54-5.23-4.34-5.06a41.28 41.28 0 0 1 2.09-2.5z"/><path fill="#40413f" d="M220.15 246.06c1.63-2.06 4.29-2.56 6.68-3.2-2.17 3.06-4.41 6.14-7.17 8.7-1.01 1.15-2.63.79-3.98.96a28.39 28.39 0 0 0-2.1-2.01c2.53-.93 4.82-2.38 6.57-4.45z"/><path fill="#6d7380" d="M277.99 263.72c1.43-6.91 5.4-13.02 6.63-20.01l2.98 2.3.24 2.4c-1.37 3.46-2.83 6.89-4 10.44-.77 2.36-1.94 4.6-3.77 6.32l-2.08-1.45z"/><path fill="#524d48" d="M233.17 251.09c1.62-2.67 4.57-4.01 7.26-5.34-1.42 2.9-4.67 4.59-5.31 7.89-1.64 4.68-.6 9.72 1.01 14.25 1.2 3.41 3.46 6.44 6.42 8.53 2.67 1.85 5.85 2.77 8.58 4.51 1.08.55 1.3 1.83 1.77 2.83-3.69 1.32-7.61.58-11.42.52-3.93-2.72-7.65-5.77-10.8-9.37-.59-.94-1.13-1.91-1.69-2.86-.53-7.19.49-14.66 4.18-20.96z"/><path fill="#81807b" d="M243.12 245.77l1.91 4.03c2.07-1.27 4.15-4.27 6.8-2.62.01 6.55-4.53 11.68-6.12 17.78a43.31 43.31 0 0 0 4.68-3.01 46.32 46.32 0 0 1 .38 1.08c-1.17 1.01-2.31 2.07-3.36 3.21l.83 3.91.87 3.83-3.25-1.51-.04 2.61-.63.15-.25-.84c-.88-3.15-1.73-6.31-2.45-9.51 1.05-1.54 2.04-3.12 2.99-4.73l-4.56 1.38c.89-2.25 2-4.43 2.52-6.81-.2-3.02-2.22-6.04-.32-8.95z"/><path fill="#c2cbac" d="M297.36 247.25c2.8-.17 3.91 2.77 4.34 5.06.49 1.83-.88 3.37-1.63 4.91l-2.86-5.2-.47-.89.62-3.88z"/><path fill="#4c4b4a" d="M287.87 273.78c3.77-7.21 5.65-15.21 8.87-22.65l.47.89.84 3.97c-1.37-.07-2.18.53-2.42 1.79.79.94 1.69.92 2.72-.07l2.86.63c-1.65 1.79-3.95 2.65-6.16 3.54-.2 1.96-.25 3.93-.38 5.9-.05 2.59-2.31 4.31-3.28 6.55-.74 2.62-1.05 5.59-3.14 7.55l-3.24-1.88c.55-2.24 1.76-4.22 2.86-6.22z"/><path fill="#a29e94" d="M270.17 253.09c2.31 1.22 4.31 2.96 5.99 4.96-2.94 4.6-7.82 7.73-13.2 8.59l-1.01-.51c2.3-4.62 5.93-8.41 8.22-13.04z"/><path fill="#706d6c" d="M331.36 253.88a28.63 28.63 0 0 1 2.93.85c1.22 1.71 1.56 3.86 2.02 5.88l2.73 15.74-.88 2c-1.31-.06-2.68.23-3.93-.21-1.25-2.21-.88-4.88-1.06-7.31.12-5.71-.41-11.41-1.81-16.95z"/><path fill="#a5a1a3" d="M295.63 257.78c.24-1.26 1.05-1.86 2.42-1.79l.3 1.72c-1.03.99-1.93 1.01-2.72.07z"/><path fill="#6f6d6e" d="M301.21 258.34l1.8-1.71c4.09 3.81 3.89 9.97 7.57 14.06-1.64 1.12-.14 2.97.2 4.37a62.68 62.68 0 0 1 .31 4.13c-.93-2.15-1.92-4.26-2.78-6.44-.93-2.35-1.85-4.86-3.97-6.42-1.26.92-2.54 1.83-3.75 2.82l-2.86-.11c-.94.93-2.07 1.82-2.37 3.17l.91 2.57c-.69 1.23-1.55 2.35-2.5 3.38l-2.38-3.83c.97-2.24 3.23-3.96 3.28-6.55.13-1.97.18-3.94.38-5.9 2.21-.89 4.51-1.75 6.16-3.54z"/><path fill="#875f4a" d="M237.6 262.2l4.89 2.68 2.45 9.51c-1.53-2.27-3.65-4.02-5.78-5.68-.75-2.11-1.12-4.32-1.56-6.51z"/><path fill="#a9ada9" d="M247.41 266.24c1.05-1.14 2.19-2.2 3.36-3.21l1.92 4.63-4.45 2.49-.83-3.91z"/><path fill="#585958" d="M304.34 266.33c2.12 1.56 3.04 4.07 3.97 6.42-1.92-1.15-3.88-2.35-6.11-2.77-.75.88-1.49 1.78-2.11 2.76-1.27 2.32-2.58 4.67-3.19 7.27.39 2.32 2.11 4.13 3.84 5.6 1.67.33 3.35.6 5.05.74-.37 1.8-.62 3.63-.69 5.48l5.7.89c.2 2.04.32 4.1.26 6.15-.76 2.4-1.63 4.76-2.69 7.04l-1.68-1.47c-3.48 1.34-5.96 4.26-9.04 6.24-3.94 2.8-9.13 3.76-12.29 7.63-2.6 3.03-5.24 6.03-8.39 8.5.87-2.28 1.45-4.81 3.26-6.57 2.43-2.65 5.75-4.78 6.75-8.44.88-2.66 1.35-5.53 2.94-7.89 1.47-2.14 3.3-3.99 5.03-5.91-2.35 1.35-4.71 2.7-7.22 3.74.23-4.08 4.63-5.99 5.43-9.8-.72-1.21-1.24-2.87-2.73-3.3-1.57-.27-3.17-.17-4.74-.09.01-.4.05-1.2.07-1.6 3.4-2.2 6.38-5.02 8.01-8.79.95-1.03 1.81-2.15 2.5-3.38 1.38-1.91 2.87-3.76 4.32-5.63 1.21-.99 2.49-1.9 3.75-2.82z"/><path fill="#626465" d="M248.24 270.15l4.45-2.49 2.44 3.03c-1.62 1.64-3.53 3.45-6.02 3.29l-.87-3.83z"/><path fill="#3c3c3e" d="M297.73 269.04l2.86.11-4.32 5.63-.91-2.57c.3-1.35 1.43-2.24 2.37-3.17z"/><path fill="#414241" d="M222.06 269.03c3.24 2.09 6.55 5.06 6.21 9.3-1.59-1.23-3.22-2.42-4.84-3.61-.53-1.88-.97-3.78-1.37-5.69z"/><path fill="#5e4e44" d="M239.16 268.71c2.13 1.66 4.25 3.41 5.78 5.68l.25.84-1.25.15c-2.53-1.31-3.75-4.16-4.78-6.67z"/><path fill="#363533" d="M300.09 272.74c.62-.98 1.36-1.88 2.11-2.76 2.23.42 4.19 1.62 6.11 2.77l2.78 6.44c.17 1.5-.38 2.94-.81 4.36l-3.04-3.72c-1.85-2.85-4.34-5.21-7.15-7.09z"/><path fill="#ca9274" d="M310.78 275.06c-.34-1.4-1.84-3.25-.2-4.37 3.03 3.82 5.7 7.96 7.72 12.42-.09 3.03-2.45 4.94-4.76 6.49-.4-4.92-.58-10.01-2.76-14.54z"/><path fill="#d39c7d" d="M300.09 272.74c2.81 1.88 5.3 4.24 7.15 7.09.43 1.69.66 3.43.86 5.16-2.44.33-4.9.51-7.36.62-1.73-1.47-3.45-3.28-3.84-5.6.61-2.6 1.92-4.95 3.19-7.27z"/><path fill="#808181" d="M225.57 278.34c-1.18-.88-1.75-2.25-2.14-3.62l4.84 3.61 1.51 1.24.9-4.66c3.15 3.6 6.87 6.65 10.8 9.37-2.32.81-4.67 1.62-7.16 1.6l-1.36-.74c-2.32-2.43-4.86-4.61-7.39-6.8z"/><path fill="#262627" d="M288.25 281.88c2.09-1.96 2.4-4.93 3.14-7.55l2.38 3.83c-1.63 3.77-4.61 6.59-8.01 8.79l-4.75-.2 5.87-3.91 1.37-.96z"/><path fill="#7f6557" d="M310.78 275.06c2.18 4.53 2.36 9.62 2.76 14.54-1 .6-2.02 1.15-3.04 1.69.19-2.1.43-4.2.67-6.29-1.8.42-3.59.9-5.38 1.35-1.7-.14-3.38-.41-5.05-.74 2.46-.11 4.92-.29 7.36-.62-.2-1.73-.43-3.47-.86-5.16.95 1.29 1.98 2.51 3.04 3.72.43-1.42.98-2.86.81-4.36a62.68 62.68 0 0 0-.31-4.13z"/><path fill="#5f605e" d="M271.27 284.44c3.63-1.06 7.2-3.46 11.13-2.25-2.5 3.37-6.76 4.11-10.43 5.55l.94 1.31c-2.12 5.05-5.94 9.08-8.4 13.93 2.77 3.23 7.4 4.16 11.43 3.23-2.05 1.72-3.81 3.82-4.4 6.5 1.72-.65 3.43-1.34 5.09-2.14-3.13 4.39-6.68 8.73-8.11 14.05-.51 1.89.54 3.75.5 5.66-.83 1.46-2.2 2.51-3.44 3.6-1.31.59-2.62 1.15-3.9 1.79.72-1.77 1.32-3.57 1.89-5.39 1.02-.56 2.03-1.15 2.96-1.85 1.13-2.39-.62-4.67-1.73-6.67 1.53-.78 3.12-1.5 4.43-2.63 1.44-1.22 1.43-3.26 1.77-4.96l-2.92-.23c-3.47-.39-6.95-.61-10.44-.5-1.05.13-1.93-.5-2.8-.97-2.06 1.23-3.94 3.38-6.56 2.56-.22 2.7-.61 5.37-1.31 7.99-2.56-2.45-5.76-4.4-7.37-7.68 2.29 1.15 4.49 2.45 6.72 3.71-.1-1.11-.3-2.23-.21-3.34.76-1.31 1.71-2.48 2.59-3.7l-1.76-2c3.05-1.33 6.17-2.5 9.11-4.09 3.96-2.16 6.89-5.72 9.82-9.06 2.25-2.59 3.94-5.6 5.17-8.79-2.27 1.28-4.35 2.88-6.02 4.88-2.92 3.43-6.2 6.52-9.61 9.45-6.97-.29-13.79 2.22-19.37 6.3-2.75-3.83-6.41-6.82-10.19-9.56-2.85-2.02-4.99-4.92-6.08-8.23.05-1.17.12-2.33.21-3.48 3.1 1.69 6.06 3.62 8.89 5.73.77.95 1.17 2.33 2.36 2.85 3.2 1.35 6.77 1.76 10.22 1.52 3.39-.26 6.27-2.23 9.13-3.87 2.92-1.8 6.2-3.17 8.51-5.79.91-.95 1.78-1.96 2.83-2.77 3.1-.44 6.32.37 9.35-.66z"/><path fill="#474847" d="M225.15 282.28c2.76.45 5.37 1.51 7.81 2.86l1.36.74c3.85 2.21 8.44 1.96 12.72 2.02 3.66.15 6.95-1.59 10.4-2.49l.82 1.17c-3.1 1.4-6.17 2.88-9.19 4.45-8.4-.67-17.95.45-24.9-5.32a56.16 56.16 0 0 1 .98-3.43z"/><path fill="#393b3b" d="M282.4 282.19l4.48.65-5.87 3.91 4.75.2-.07 1.6-8.95.75-3.83-.25-.94-1.31c3.67-1.44 7.93-2.18 10.43-5.55z"/><path fill="#3a3a38" d="M318.3 283.11c.61 1.63 1.49 3.25 3.29 3.76-2.8 1.24-6.28 1.76-8.15 4.42-1.13 2.4-1.51 5.08-2.38 7.58.06-2.05-.06-4.11-.26-6.15l-5.7-.89c.07-1.85.32-3.68.69-5.48l5.38-1.35-.67 6.29 3.04-1.69c2.31-1.55 4.67-3.46 4.76-6.49z"/><path fill="#85837b" d="M249.07 291.03c3.02-1.57 6.09-3.05 9.19-4.45l.83 1.29c-2.31 2.62-5.59 3.99-8.51 5.79-2.86 1.64-5.74 3.61-9.13 3.87-3.45.24-7.02-.17-10.22-1.52-1.19-.52-1.59-1.9-2.36-2.85 4.41-.22 8.8.14 13.2.39 2.61.3 4.79-1.41 7-2.52z"/><path fill="#908c84" d="M265.02 292.95c1.67-2 3.75-3.6 6.02-4.88-1.23 3.19-2.92 6.2-5.17 8.79-2.93 3.34-5.86 6.9-9.82 9.06-2.94 1.59-6.06 2.76-9.11 4.09-2.08-.37-4.2-.77-6.02-1.88 4.34-3.23 10.68-1.67 14.49-5.73 3.41-2.93 6.69-6.02 9.61-9.45z"/><path fill="#757267" d="M285.69 288.55c1.57-.08 3.17-.18 4.74.09 1.49.43 2.01 2.09 2.73 3.3-4.24 2.36-8.45 5.36-10.21 10.1l-.85-2.29c.57-2.33 1.92-4.31 3.46-6.11-1.86-3-5.52-4-8.82-4.34 3-.03 5.97-.41 8.95-.75z"/><path fill="#83847c" d="M272.91 289.05l3.83.25c3.3.34 6.96 1.34 8.82 4.34-1.54 1.8-2.89 3.78-3.46 6.11-1.8 2.38-3.98 4.43-6.16 6.46-4.03.93-8.66 0-11.43-3.23 2.46-4.85 6.28-8.88 8.4-13.93z"/><path fill="#78797a" d="M282.95 302.04c1.76-4.74 5.97-7.74 10.21-10.1-.8 3.81-5.2 5.72-5.43 9.8 2.51-1.04 4.87-2.39 7.22-3.74-1.73 1.92-3.56 3.77-5.03 5.91-1.59 2.36-2.06 5.23-2.94 7.89l-2.99-1.52c-5.32 1.78-10.04 6.25-10.68 12.02 2.03 1.35 3.27 3.36 3.15 5.86l-.19.83-2.6-1.99c-2.35 1.97-2.77 5.2-4.09 7.82l-2.53.15-1.47-1.09c1.24-1.09 2.61-2.14 3.44-3.6.04-1.91-1.01-3.77-.5-5.66 1.43-5.32 4.98-9.66 8.11-14.05 2.61-2.44 5.17-5.07 6.32-8.53z"/><path fill="#4c4944" d="M282.1 299.75l.85 2.29c-1.15 3.46-3.71 6.09-6.32 8.53-1.66.8-3.37 1.49-5.09 2.14.59-2.68 2.35-4.78 4.4-6.5 2.18-2.03 4.36-4.08 6.16-6.46z"/><path fill="#73736c" d="M236.04 308.7c5.58-4.08 12.4-6.59 19.37-6.3-3.81 4.06-10.15 2.5-14.49 5.73 1.82 1.11 3.94 1.51 6.02 1.88l1.76 2c-.88 1.22-1.83 2.39-2.59 3.7-.09 1.11.11 2.23.21 3.34-2.23-1.26-4.43-2.56-6.72-3.71 1.61 3.28 4.81 5.23 7.37 7.68 1.96 1.68 4.33 3.21 6.99 3.31 2.68-.12 5.29-.81 7.96-1.11-.34 1.59-.71 3.23-1.73 4.56l-1.2-.85-.72.25-.54 1.39-2.99 1.21-.56 3.33-.03 1.64c-3.05.27-6.03 1.05-9.1 1.13l.03-4.61a74.11 74.11 0 0 0 4.69 1.35c2.06-1.7 3.61-3.93 4.36-6.5-2.32-.12-4.67-.31-6.96.18-1.37.51-2.42 1.58-3.67 2.31-1.37.13-2.73-.23-4.08-.39l.38 1.46c-1.77.89-2.72 2.58-3.39 4.37-3.39-1.75-5.33-5.14-6.81-8.5.13-1.52.29-3.03.5-4.53l.63-1.59c1.99 2.23 3.99 4.46 5.88 6.78-1.87-3.8-3.34-7.84-3.65-12.09 1.08-2.45 2.14-4.91 3.08-7.42z"/><path fill="#3a3b3a" d="M297.65 310.68c3.08-1.98 5.56-4.9 9.04-6.24l1.68 1.47c-1.82 2.33-4.16 4.15-6.43 6.02-3.53 2.66-6.73 5.72-10.34 8.28l-2.55-2.08c-3.64 2.76-7.64 5.96-8.1 10.86-1.68 1.69-3.34 3.4-5.11 5l-.63.42 1.06-5.42.19-.83.51-1.35c3.15-2.47 5.79-5.47 8.39-8.5 3.16-3.87 8.35-4.83 12.29-7.63z"/><path fill="#646566" d="M273.31 322.3c.64-5.77 5.36-10.24 10.68-12.02l2.99 1.52c-1 3.66-4.32 5.79-6.75 8.44-1.81 1.76-2.39 4.29-3.26 6.57l-.51 1.35c.12-2.5-1.12-4.51-3.15-5.86z"/><path fill="#474848" d="M248.28 315.03c2.62.82 4.5-1.33 6.56-2.56.87.47 1.75 1.1 2.8.97 3.49-.11 6.97.11 10.44.5-2.73 2.95-5.09 6.23-7.17 9.66l3.89-1.84c1.11 2 2.86 4.28 1.73 6.67-.93.7-1.94 1.29-2.96 1.85a141.49 141.49 0 0 0-8.67 4.44l-.72.39c.17-1.12.36-2.23.56-3.33l2.99-1.21 2.46-.79c1.02-1.33 1.39-2.97 1.73-4.56-2.67.3-5.28.99-7.96 1.11-2.66-.1-5.03-1.63-6.99-3.31.7-2.62 1.09-5.29 1.31-7.99m1.82 7.85c2.83.59 6.35.84 8.88-.72-1.85-.13-3.69-.15-5.53-.19 1.1-2.18 2.25-4.38 2.58-6.84-2.88 1.56-5.47 4.46-5.93 7.75m6.18-2.63v.44h.45v-.45l-.45.01z"/><path opacity=".07" d="M291.6 320.21c3.61-2.56 6.81-5.62 10.34-8.28-.95 2.21-1.78 4.47-2.59 6.74 2.12-.21 4.25-.38 6.39-.48.32 2.63.09 5.29-.76 7.81-1.84-1.43-3.62-2.95-5.4-4.45-1.13.42-2.2.96-3.22 1.59.3 1.42.7 2.82 1.19 4.2 1.92.04 3.84-.5 5.74-.28 1.18.95.37 2.74.58 4.06l2.04 1c.44-3.83 2.83-6.91 6.08-8.84 1.08 3.21-.56 6.31-.86 9.48.36 1.21.97 2.33 1.52 3.48 1.14-2.39 2.68-4.62 5.49-4.98l.34-2.97c3.69.64 5.05 4.47 7.44 6.88.78-1.87.91-4.36 2.87-5.44 1.25-1.07 2.87-.43 4.3-.27l-4.18 4.69c1.53.91 3.14 1.69 4.85 2.2.55-3.23.87-6.98 4.24-8.58 1.69 1.7 2.03 4.18 3.16 6.21 2.44 2.66 6.51 1.24 8.74-.94.83-1.17.63-2.74.93-4.09 3.13 2.49 6.19 5.36 10.1 6.53 1.05-1.18 2.13-2.33 3.22-3.48 2.29.82 4.41 2.21 6.82 2.64 1.32-.25 2.61-.63 3.91-.98l2.5 2.14c1.75-.74 2.3-2.75 3.27-4.21 2.96.07 5.22 2.55 8.17 2.69 1.98.11 3.98.15 5.96-.07 2.46-.46 4.62-1.87 7.07-2.43 3.11-.69 6.41-.44 9.41-1.62 1.76-.82 3.08-2.3 4.53-3.53l.98 4.4 3.12-2.48 1.23 3.53 7.82-1.22c3.39-.26 5.29-3.94 8.67-4.22 2.83.17 5.39 1.69 8.24 1.83 2.15.03 4.23-.77 6.39-.67 2.09.34 4 1.49 6.16 1.54.82-1.26 1.62-2.55 2.63-3.66 1.16-.77 2.63-.58 3.94-.41l1.11 2.33c2.79.55 5.59 1.21 8.44 1.51 2.33-.21 4.64-.72 6.94-1.19 1.71-.84 3-2.44 4.92-2.91l.49 4.14c2.32-.18 5.1-.48 6.47-2.65.24-1.53.26-3.08.38-4.62 2.42 1.34 4.34 3.37 6.64 4.89 2.11.29 4.31-.05 6.28-.86 2.09-1.15 3.61-3.07 5.36-4.64v47.27c-1.88-1.01-3.77-1.98-5.54-3.16l.96-2.83c-1.95-.52-2.64 1.56-3.55 2.81-2.68.08-5.35.37-8.02.63-1.65-.27-2.72-2.26-4.55-2.03-4.21.33-8.34 1.37-12.44 2.37l-.27 3.46c-1.27-1.09-2.46-2.31-3.92-3.13-2.38-.2-4.64.95-7 1.03-1.81-.34-3.4-1.42-5.22-1.63-2.18.39-4.06 1.7-6.2 2.23-2.05-.16-3.9-1.29-5.96-1.33-4.16-.21-7.03 3.75-11.16 3.84-1.53-1.02-2.81-2.37-4.38-3.33-2.89.2-5.34 2.15-8.19 2.55-3.47-.35-6.87-2.5-10.4-1.39-.77.91-1.15 2.06-1.67 3.12-2.06-.44-4.08-1.2-6.19-1.31-2.47.53-4.76 1.63-7.17 2.37-.92-.83-1.67-1.92-2.78-2.49-1.24-.07-2.45.28-3.66.52l1.05 2.64c-4.14-.66-8.36-2.21-12.55-1.14-2.58.77-4.87 2.27-7.37 3.23l2.1-4.12c-5.68 1.57-11.65 1.78-17.48 1.08-3.47-.56-7.01.28-10.44-.6-2.91-1.01-5.06 1.8-7.47 2.92-1.07-.96-2.12-1.93-3.13-2.93-2.93.25-5.86.98-8.8.46-3.76-.66-7.64.24-11.34-.79-2.51-.54-4.97-1.73-7.59-1.41-8.87 1.59-17.56-2.89-26.46-1.54l-16.11 3.1c-3.9-1.46-7.95-2.45-11.81-4.01-5.81-1.63-11.79-2.96-17.14-5.82-1.27-.77-2.15-2.01-3.18-3.04 2.27.17 4.54.41 6.8.74 1.4.46 2.79.98 4.2 1.45 2.51.79 5.1 1.36 7.6 2.24l.57.37c2.57 1.6 5.72.92 8.58 1.05 3.71.68 7.5 1.02 11.26.44 5.74-.71 11.59-.57 17.22-2.09 3.53-1.29 7.13 1.23 10.65-.12 6.13-1.98 12.55-3.06 18.45-5.74 2.05-1.27 4.25-.1 6.23.67l-2.96-10.75c-2.19-.22-4.21.78-6.28 1.33-1.16-.7-2.16-1.78-3.52-2.03-7.5-.85-15-1.98-22.28-4.02-5.67-1.34-11.62-1.67-17.05-3.93l-.6-4.49c1.77-1.6 3.43-3.31 5.11-5 3.71-2.74 7.08-5.88 10.65-8.78z"/><path fill="#2e2f30" d="M268.08 313.94l2.92.23c-.34 1.7-.33 3.74-1.77 4.96-1.31 1.13-2.9 1.85-4.43 2.63l-3.89 1.84c2.08-3.43 4.44-6.71 7.17-9.66z"/><path fill="#72706d" d="M250.1 322.88c.46-3.29 3.05-6.19 5.93-7.75-.33 2.46-1.48 4.66-2.58 6.84l5.53.19c-2.53 1.56-6.05 1.31-8.88.72z"/><path fill="#575753" opacity=".91" d="M230.73 321.43l2.23-5.31c.31 4.25 1.78 8.29 3.65 12.09-1.89-2.32-3.89-4.55-5.88-6.78z"/><path fill="#282827" opacity=".97" d="M280.95 328.99c.46-4.9 4.46-8.1 8.1-10.86l2.55 2.08c-3.57 2.9-6.94 6.04-10.65 8.78z"/><path fill="#797779" d="M256.28 320.25l.45-.01v.45h-.45v-.44z"/><path fill="#474542" d="M227.5 331.14c-.08-2.93 1.48-5.52 2.6-8.12l-.5 4.53c-.66 4.45-.27 8.94.49 13.35-.62 1.96-1.66 3.84-1.81 5.93 1.27 2.8 3.21 5.41 5.73 7.21 3.08 1.08 6.45.78 9.67.94 2.18 1.53 4.59 2.74 7.18 3.45-2.25.92-4.68 1.2-7.09 1.18-2.26-.33-4.53-.57-6.8-.74-2.57-2.4-5.72-4.09-8.15-6.63-2.31-2.67-1.18-6.38-.82-9.5.76-3.88-.42-7.73-.5-11.6z"/><path fill="#555757" d="M269.58 334.82c1.32-2.62 1.74-5.85 4.09-7.82l2.6 1.99-1.06 5.42c-2.45 1.45-5.6 2.11-8.16.56l2.53-.15z"/><path fill="#515453" d="M230.09 340.9c-.76-4.41-1.15-8.9-.49-13.35 1.48 3.36 3.42 6.75 6.81 8.5 1.16.71 2.33 1.39 3.53 2.05l1.52.84c-2.76 1.57-5.59 3.01-8.57 4.11l-2.8-2.15z"/><path fill="#5d5b59" d="M243.5 330.61c1.25-.73 2.3-1.8 3.67-2.31 2.29-.49 4.64-.3 6.96-.18-.75 2.57-2.3 4.8-4.36 6.5l-4.69-1.35-5.28-1.59-.38-1.46c1.35.16 2.71.52 4.08.39z"/><path fill="#a4a1a6" d="M258.27 329.18l.72-.25 1.2.85-2.46.79.54-1.39z"/><path fill="#84807e" d="M254.9 334.72l8.67-4.44-1.89 5.39-1.24 1.23c-1.15 1.15-2.11 2.47-3.08 3.77-1.47 1.28-3.1 2.35-4.64 3.54.21-2.53.72-5.03 1.43-7.46l1.5-.25.28-.66-1.03-1.12z"/><path fill="#88877e" d="M236.41 336.05c.67-1.79 1.62-3.48 3.39-4.37l5.28 1.59-.03 4.61-5.11.22-3.53-2.05z"/><path opacity=".12" d="M261.68 335.67l3.9-1.79 1.47 1.09c2.56 1.55 5.71.89 8.16-.56l.63-.42.6 4.49c5.43 2.26 11.38 2.59 17.05 3.93 7.28 2.04 14.78 3.17 22.28 4.02 1.36.25 2.36 1.33 3.52 2.03 2.07-.55 4.09-1.55 6.28-1.33 1.06 3.56 1.93 7.17 2.96 10.75-1.98-.77-4.18-1.94-6.23-.67-5.9 2.68-12.32 3.76-18.45 5.74-3.52 1.35-7.12-1.17-10.65.12-5.63 1.52-11.48 1.38-17.22 2.09-3.76.58-7.55.24-11.26-.44 4.22-.96 8.79-1.77 11.63-5.38l2.33-2.11c2.41-2.31 2.93-5.79 1.56-8.78l-.23-.81c-1.15-2.49-2.63-5.17-5.3-6.25-4.65-1.91-10.28-.97-14.27-4.49l1.24-1.23z"/><path fill="#a6a1a1" d="M254.18 335.11l.72-.39 1.03 1.12-.28.66-1.5.25.03-1.64z"/><path fill="#62615e" d="M245.05 337.88c3.07-.08 6.05-.86 9.1-1.13-.71 2.43-1.22 4.93-1.43 7.46-.88 1.26-1.53 2.92-3.1 3.47-3.05 1.17-6.28 2.07-9.55 2.23-3.02-.42-5.84-1.79-8.92-1.92.51 1.09.96 2.24 1.69 3.21 4.22 2.53 9.51.01 13.77 2.29l-2.93 1.49c-3.22-.16-6.59.14-9.67-.94-2.52-1.8-4.46-4.41-5.73-7.21.15-2.09 1.19-3.97 1.81-5.93l2.8 2.15c3.44 2.59 8.05 4.1 12.31 3.09 2.31-1.7 2.93-4.71 3.68-7.3a79.81 79.81 0 0 0-7.42.1l-1.52-.84 5.11-.22z"/><path fill="#303132" d="M257.36 340.67c.97-1.3 1.93-2.62 3.08-3.77 3.99 3.52 9.62 2.58 14.27 4.49 2.67 1.08 4.15 3.76 5.3 6.25-7.54-.89-15.26-1.21-22.43-3.92l-.22-3.05m3.08-.53c-.99 1.32 1.31 2.8 2.28 1.62.97-1.32-1.32-2.8-2.28-1.62z"/><path fill="#464848" d="M241.46 338.94l7.42-.1c-.75 2.59-1.37 5.6-3.68 7.3-4.26 1.01-8.87-.5-12.31-3.09 2.98-1.1 5.81-2.54 8.57-4.11z"/><path fill="#5e5b59" d="M260.44 340.14c.96-1.18 3.25.3 2.28 1.62-.97 1.18-3.27-.3-2.28-1.62z"/><path fill="#515150" d="M252.72 344.21l4.64-3.54.22 3.05c7.17 2.71 14.89 3.03 22.43 3.92l.23.81c-.82 2.86-1.39 5.8-1.56 8.78-.76.72-1.56 1.4-2.33 2.11-5.73.28-11.16 2.12-16.3 4.58-.39-2.35-3.36-2.52-4.48-.62-2.5-.88-5.09-1.45-7.6-2.24 2.95-.51 6.01-1.89 7.31-4.77 1.18-2.73 1.69-5.71 2.05-8.63.3-1.58-1.01-2.72-1.83-3.86-.52 4.29-.33 8.99-3.12 12.59l-5.77-2.9c-4.26-2.28-9.55.24-13.77-2.29-.73-.97-1.18-2.12-1.69-3.21 3.08.13 5.9 1.5 8.92 1.92 3.27-.16 6.5-1.06 9.55-2.23 1.57-.55 2.22-2.21 3.1-3.47m14.86 3.92c.26 1.6.47 3.2.64 4.82l-2.48 1.53-.3.17c-.8.38-1.21 1.04-1.23 1.98 1.35 1.32 3.34 1.09 5.06.89l.38-2.05c.99 0 1.98.01 2.98-.05 1.38-.62 1.84-2.21 2.55-3.41-1.06-3.29-4.63-3.81-7.6-3.88m-5.45 2.07c-1.74.36-1.18 3.33.62 2.74 1.72-.38 1.16-3.33-.62-2.74z"/><path fill="#6b6864" opacity=".96" d="M255.5 343.8c.82 1.14 2.13 2.28 1.83 3.86-.36 2.92-.87 5.9-2.05 8.63-1.3 2.88-4.36 4.26-7.31 4.77l-4.2-1.45c2.41.02 4.84-.26 7.09-1.18l1.52-2.04c2.79-3.6 2.6-8.3 3.12-12.59z"/><path fill="#88878b" d="M267.58 348.13c2.97.07 6.54.59 7.6 3.88-.71 1.2-1.17 2.79-2.55 3.41l-2.98.05-.38 2.05c-1.72.2-3.71.43-5.06-.89.02-.94.43-1.6 1.23-1.98.08-.04.23-.13.3-.17l2.48-1.53-.64-4.82z"/><path fill="#5c5857" opacity=".88" d="M278.68 357.23c.17-2.98.74-5.92 1.56-8.78 1.37 2.99.85 6.47-1.56 8.78z"/><path fill="#767574" d="M262.13 350.2c1.78-.59 2.34 2.36.62 2.74-1.8.59-2.36-2.38-.62-2.74z"/><path fill="#313231" d="M243.68 354.98l2.93-1.49 5.77 2.9-1.52 2.04c-2.59-.71-5-1.92-7.18-3.45z"/><path fill="#ebe5e8" d="M265.44 354.65l.3-.17-.3.17z"/><path fill="#37393b" d="M260.05 363.92c5.14-2.46 10.57-4.3 16.3-4.58-2.84 3.61-7.41 4.42-11.63 5.38-2.86-.13-6.01.55-8.58-1.05 1.29.7 2.6.78 3.91.25z"/><path fill="#6c6a66" d="M255.57 363.3c1.12-1.9 4.09-1.73 4.48.62-1.31.53-2.62.45-3.91-.25l-.57-.37z"/></svg>