<svg xmlns="http://www.w3.org/2000/svg" width="682.667" height="682.667" viewBox="0 0 512 512"  xmlns:v="https://vecta.io/nano"><path fill="#ecd6aa" opacity=".96" d="M277.33 33.92c.82-.85 1.87-3.05 3.28-1.71 1.83 1.72 1.41 4.41 1.77 6.67-1.13-2.17-3.19-3.5-5.05-4.96z"/><path fill="#fffffe" d="M276.89 46.03c.03-4.04.23-8.08.44-12.11 1.86 1.46 3.92 2.79 5.05 4.96.74 2.66 1.28 5.37 1.5 8.13.23 3.41 1.85 6.51 2.46 9.85.6 3.23 1.74 6.43 3.82 9.02 1.35 1.16 3.09 1.73 4.63 2.59.33 1.21.32 2.62-.96 3.28l-8.21 6.26c-.84.59-1.72 1.12-2.6 1.64-1.27-.49-2.51-1.04-3.67-1.72-3.41-2.25-6.93-4.36-10.97-5.23.18-1.34.17-2.84 1.08-3.94 1.24-.56 2.53-1.03 3.8-1.54a49.86 49.86 0 0 0 .74-3.16c1.69-.64 2.46-2.47 1.87-4.16-.59-4.67 1.11-9.2 1.02-13.87z"/><path fill="#b08e6b" opacity=".74" d="M274 64.06c-.64-1.68.01-3.67 1.87-4.16.59 1.69-.18 3.52-1.87 4.16z"/><path fill="#868a7f" d="M279.35 77.93c1.16.68 2.4 1.23 3.67 1.72l2.6-1.64c.09 1.19.35 2.32.78 3.42 1.17.94 2.46 1.71 3.72 2.52l.6 1.51 3.79 1.11c.7 2.88.6 5.86.6 8.81-1.68 2.62-2.61 7.25.8 8.93l-.05 3.43-1.37.94c-.46 2.47-.22 5.01-.4 7.5-1.82-.59-.89-3.17-1.42-4.65-1.16-.27-2.31-.5-3.49-.6l-.75.17-.35.79.68 1.57.41 1.42-.59 7.21-2.11-2.52-.89-5.07-3.31-1.02c1.22-1.94 3.62-3.49 3.16-6.06-.23-3.45.37-7.14-1.31-10.33l-.74-2.15c.65-1.57 1.34-3.12 1.93-4.71-.64-1.42-1.59-2.73-1.89-4.27.04-1.68.36-3.34.57-5l-3.96 1.87c.17-1.68-.02-3.34-.68-4.9m7.85 8.34c-.88 3.2-.31 6.51-.13 9.75-3.22.86-.16 4.63 1.86 5.1l.12 1.8-.79.35c-.6 2.3-.98 4.66-1.42 6.99l2.12-.19c.18-1.42.25-2.85.23-4.28.23 1.22 1.27 1.94 2.26 2.54.12-2.76-.11-5.53-1.13-8.12.93-1.41 2.61-2.26 3.11-3.95 1-2.93 1.05-6.13.54-9.16l-1.63-.51c.41 2.08 1.34 4.18.86 6.33-.57 1.71-1.84 3.05-3.21 4.16-.41-3.28-.23-6.58-.36-9.87a23.02 23.02 0 0 0-2.43-.94m6.08 18.96l-.35.81.35.81.85.34.85-.33.35-.81-.35-.82-.85-.33-.85.33z"/><path fill="#a1a795" d="M280.03 82.83l3.96-1.87-.57 5c.3 1.54 1.25 2.85 1.89 4.27l-1.93 4.71.74 2.15c-1.42 1.06-3.07 1.49-4.81 1.08-.2-4-.27-8.01-.26-12.02l.09-2.92.89-.4z"/><path fill="#292a31" d="M271.66 83.66c2.45-.59 4.98-.47 7.48-.43l-.09 2.92c-2.33.07-4.66-.01-6.99-.05-.93 3.68.01 7.45.27 11.15l-.04 4.49c-.09 3.51-.38 7.02-1.03 10.47.08-7.74.21-15.49-.04-23.24-.01-1.78-.13-3.6.44-5.31z"/><path fill="#3d3b3d" opacity=".93" d="M290.12 83.95c1.85.36 3.7.77 5.48 1.42.19 3.14-.14 6.33.59 9.43 2.19.41 4.45.84 6.15 2.41l-.99-.06-1.61-.06c-2.08 2.12-2.58 5.2-2.46 8.06-.25 1.27-.77 2.47-1.43 3.58l.01-.99.05-3.43c.25-3.01-.06-6.01-.8-8.93 0-2.95.1-5.93-.6-8.81l-3.79-1.11-.6-1.51z"/><path fill="#7f8394" d="M272.06 86.1l6.99.05c-.01 4.01.06 8.02.26 12.02.49 7.66 1.68 15.25 1.73 22.94.14 3.02.46 6.17-.87 9l-.38-.77c.18-5.23-.46-10.44-1-15.64 0-1.63.03-3.26-.04-4.89-.13-1.48-.48-2.92-.75-4.37l-.13-1.33.12-4.19c-.31-3.4.51-7.64-1.94-10.36a18.69 18.69 0 0 0-2.99 1.69c-.41 2.31-.64 4.65-.73 7-.26-3.7-1.2-7.47-.27-11.15z"/><path fill="#a7ad9d" d="M287.2 86.27a23.02 23.02 0 0 1 2.43.94l.36 9.87c1.37-1.11 2.64-2.45 3.21-4.16.48-2.15-.45-4.25-.86-6.33l1.63.51c.51 3.03.46 6.23-.54 9.16-.5 1.69-2.18 2.54-3.11 3.95 1.02 2.59 1.25 5.36 1.13 8.12-.99-.6-2.03-1.32-2.26-2.54l-.14-2.87-.12-1.8c-.11-1.86-1.15-3.44-1.86-5.1-.18-3.24-.75-6.55.13-9.75z"/><path fill="#b6b8c1" d="M273.06 90.25a18.69 18.69 0 0 1 2.99-1.69c2.45 2.72 1.63 6.96 1.94 10.36l-1.99-.73c.23 1.71-.59 4.68 1.87 4.92l.13 1.33c-3.13 1.61-1.36 5.81-.98 8.48 1.71-.29 1.2-2.82 1.73-4.11.07 1.63.04 3.26.04 4.89-2.4.9-1.88 3.79-1.86 5.81.34 2.96.25 6.1 1.45 8.86.35.25 1.06.73 1.41.97l.38.77c-2.97-.69-2.1 2.82-2.11 4.63l1.84 1.31c.02-1.5.04-2.99.14-4.48l.78 2.51.1 2.65-2.55.79c-1.62 3.41.84 6.62 1.63 9.87.4 1.49-1.37 2.61-1.06 4.1.49 3.04.86 6.11 1.43 9.14l1.73.68.1.91c-2.66-1.09-2.77 2.81-.23 2.71a77.49 77.49 0 0 0-.81 2.88c-.33 1.08-.61 2.16-.87 3.25-.87-1.25-1.87-2.38-2.96-3.44.21-2.58-.98-5-1.01-7.56-.13-4-.06-8.01-.15-12.01.17-4.37-1-8.63-1.04-12.99l1.58-.09.01-.75c-.4 0-1.19-.01-1.59-.01l.01-.83 1.71-1.67c-.41-2.18-.72-4.42-1.54-6.49l-1.29-.6c-.9-7.6-.72-15.28-1.73-22.88l.04-4.49c.09-2.35.32-4.69.73-7z"/><path fill="#646565" d="M288.93 101.12c-2.02-.47-5.08-4.24-1.86-5.1.71 1.66 1.75 3.24 1.86 5.1z"/><path fill="#afaeb4" d="M295.91 104.31c-3.41-1.68-2.48-6.31-.8-8.93.74 2.92 1.05 5.92.8 8.93z"/><path fill="#aeb79a" d="M279.31 98.17c1.74.41 3.39-.02 4.81-1.08 1.68 3.19 1.08 6.88 1.31 10.33.46 2.57-1.94 4.12-3.16 6.06l3.31 1.02c.39 1.67.66 3.36.89 5.07l-3.36-.7c-.7.73-1.4 1.48-2.07 2.24-.05-7.69-1.24-15.28-1.73-22.94z"/><path fill="#9d9da3" d="M297.28 105.15c-.12-2.86.38-5.94 2.46-8.06l1.61.06c-1.76 2 1.02 3.57 1.87 5.3-1.96 2.15-1.99 5.01-1.6 7.73l-3.11-.99.88-2.8-2.11-1.24z"/><path fill="#efedf6" d="M276 98.19l1.99.73-.12 4.19c-2.46-.24-1.64-3.21-1.87-4.92z"/><path fill="#6c6c71" d="M303.22 102.45c-.85-1.73-3.63-3.3-1.87-5.3l.99.06 4.86 1.51c1.34 4.87.96 10.02.25 14.97-.8.71-1.58 1.45-2.35 2.21l-.3-2.61c-.97.03-1.93.15-2.87.37l-.31-3.48c-.39-2.72-.36-5.58 1.6-7.73z"/><path opacity=".75" d="M272.29 101.74c1.01 7.6.83 15.28 1.73 22.88.06 1.74.08 3.48.22 5.22l-.84.55c-2.8-1.05-5.61-2.14-8.11-3.8-.09-3.04 4.21-3.56 4.97-6.24.53-2.68.62-5.43 1-8.14.65-3.45.94-6.96 1.03-10.47z"/><path fill="#5c5d61" d="M288.26 103.27l.79-.35.14 2.87c.02 1.43-.05 2.86-.23 4.28l-2.12.19 1.42-6.99z"/><path fill="#ceced8" d="M277.02 112.92c-.38-2.67-2.15-6.87.98-8.48l.75 4.37c-.53 1.29-.02 3.82-1.73 4.11z"/><path fill="#bbb9c3" d="M293.28 105.23l.85-.33.85.33.35.82-.35.81-.85.33-.85-.34-.35-.81.35-.81z"/><path fill="#76777b" d="M297.28 105.15l2.11 1.24-.88 2.8c-.77 2.04-.09 4.2.22 6.26l.65 3.11 3.46.47c.46 1.85.39 3.75.04 5.61.94-.61 1.9-1.21 2.97-1.6l1.25 1.79-4.14 1.51c-.7-2.05-.77-4.23-1.06-6.36l-2.47 1.1-2.28-2.25c-.38-3.37-.77-6.74-1.3-10.1.66-1.11 1.18-2.31 1.43-3.58z"/><path fill="#939a85" d="M294.49 108.68l1.37-.94-.01.99c-1.77 3.15-1.23 6.85-1.07 10.29.01 2.19.91 4.21 1.99 6.07l-.21 1.91c-.28 1.48-.63 2.94-.98 4.41l-2.44-.55-1.02.98c-.06-.42-.2-1.25-.27-1.67.12-5.22-.73-10.43-2.68-15.29l-.41-1.42c1.15-.7 1.29-1.55.42-2.53 1.18.1 2.33.33 3.49.6.53 1.48-.4 4.06 1.42 4.65.18-2.49-.06-5.03.4-7.5z"/><path fill="#b5b3bb" d="M294.78 119.02c-.16-3.44-.7-7.14 1.07-10.29.53 3.36.92 6.73 1.3 10.1.08 2.09-.12 4.18-.38 6.26-1.08-1.86-1.98-3.88-1.99-6.07z"/><path fill="#f0eef6" d="M298.51 109.19l3.11.99.31 3.48-3.2 1.79c-.31-2.06-.99-4.22-.22-6.26z"/><path fill="#bbb" d="M288.43 111.1l.75-.17c.87.98.73 1.83-.42 2.53l-.68-1.57.35-.79z"/><path fill="#838488" d="M301.93 113.66c.94-.22 1.9-.34 2.87-.37l.3 2.61-2.26 3.13-3.46-.47-.65-3.11 3.2-1.79z"/><path fill="#e3e2e9" d="M276.93 119.51c-.02-2.02-.54-4.91 1.86-5.81.54 5.2 1.18 10.41 1 15.64l-1.41-.97c-1.2-2.76-1.11-5.9-1.45-8.86z"/><path fill="#58585a" d="M305.1 115.9l2.35-2.21.51 4.04-2.74 3.02c1.82 1.39 3.4 3.09 3.86 5.42l.37 2.55-2.36 3.48-1.22 1.11-1.27-.39 1.18-2.91-2.82-3.67 4.14-1.51-1.25-1.79c-1.07.39-2.03.99-2.97 1.6.35-1.86.42-3.76-.04-5.61l2.26-3.13z"/><path fill="#c2c7b4" d="M289.17 114.88c1.95 4.86 2.8 10.07 2.68 15.29l-2.88-.15c-.37-2.62-.6-5.28-.39-7.93.14-2.41.4-4.81.59-7.21z"/><path fill="#373839" opacity=".83" d="M305.22 120.75l2.74-3.02 1.12 8.44c-.46-2.33-2.04-4.03-3.86-5.42z"/><path fill="#8e9289" d="M281.04 121.11l2.07-2.24 3.36.7c-1.1 1.03-3.45 1.43-3.15 3.34 1.36 2.66 4.47 4.64 3.82 8.01l-4.98.78-.45 2.15-.89.23-.78-2.51.13-1.46c1.33-2.83 1.01-5.98.87-9z"/><path fill="#3b3b3b" d="M297.15 118.83l2.28 2.25c1.07 4.67 3 9.1 3.77 13.85.99-.36 1.9-.9 2.67-1.62l1.22-1.11c-.8 1.77-1.79 3.44-3.04 4.94l-1.67-1.27a108.28 108.28 0 0 0-.4-4c-2.66-.62-2.21 2.59-2.82 4.26-.06-3.19-.24-6.7-2.6-9.13.06-.48.16-1.43.21-1.91.26-2.08.46-4.17.38-6.26m1.41 7.31c-.94.82.06 2.97 1.32 2.36 1-.82-.05-3.03-1.32-2.36z"/><path fill="#737673" d="M286.47 119.57l2.11 2.52c-.21 2.65.02 5.31.39 7.93.25 3.35.24 6.72.68 10.06l.09.92 2.27 30.01.15 3c.36 6.74 1.87 13.38 1.71 20.16-.86-1.38-1.8-2.71-2.66-4.09l-.38-3.97c-.1-1.18-.26-2.36-.47-3.52-.73-1.15-2.04-1.64-3.2-2.19l-1.35 1.99c-.1-1.39.05-2.79.28-4.16l1.52-.87c1.36-3.8-.16-7.86-.54-11.72l1.81-.39c.05-11.46-1.97-22.85-1.74-34.33.65-3.37-2.46-5.35-3.82-8.01-.3-1.91 2.05-2.31 3.15-3.34z"/><path fill="#88898d" d="M299.43 121.08l2.47-1.1c.29 2.13.36 4.31 1.06 6.36l2.82 3.67-1.18 2.91 1.27.39c-.77.72-1.68 1.26-2.67 1.62-.77-4.75-2.7-9.18-3.77-13.85z"/><path fill="#d0d3d5" d="M274.02 124.62l1.29.6c.82 2.07 1.13 4.31 1.54 6.49l-1.71 1.67-.9-3.54-.22-5.22z"/><path fill="#1a1c1d" d="M298.56 126.14c1.27-.67 2.32 1.54 1.32 2.36-1.26.61-2.26-1.54-1.32-2.36z"/><path fill="#7a7e71" d="M296.56 127c2.36 2.43 2.54 5.94 2.6 9.13-.23 2.23-.26 4.48.03 6.7 1.79-1.92 2.62-4.44 3.19-6.96l1.67 1.27c-1.04 2.03-1.88 4.16-2.49 6.37-1.63 4.91.4 10.43-1.61 15.18-.34-3.39-1.02-6.73-1.41-10.11-.27-2.08-.41-4.25-1.56-6.07-.72 1.36-.67 2.9-.68 4.39-.3.29-.88.88-1.17 1.17-.72-1.59-1.36-3.22-2.32-4.68l-.38-.62c-.44-1.23-.75-2.5-.98-3.77l1.54-.56c.15-2.23-.51-4.41-.87-6.6.26-.24.77-.74 1.02-.98l2.44.55c.35-1.47.7-2.93.98-4.41z"/><path opacity=".07" d="M309.45 128.72c.71 2.7-1.48 5.11-.89 7.76 2.43.49 4.86-.32 7.31-.33 2.23.49 4.18 1.81 6.41 2.34 2.31-.15 4.56-.97 6.89-.75 2.24.15 4.05 1.6 6.1 2.35 1.16-.13 2.3-.43 3.45-.67l2.42 4.52c2.04 1.98 5.13 2.06 7.46 3.57 2.98 1.91 6.55 2.44 9.7 4.03 2.63.38 4.41-2.35 6.51-3.52-.52 2.05-1.51 3.92-2.45 5.81l.99 1.96c1.38.2 2.88.66 4.24.05.81-.75 1.57-1.56 2.35-2.35l2.41 2.79 4.5-1.8c.99.43 1.96.89 2.93 1.39l-2.67 2.31c.92.32 1.85.61 2.79.89l3.49-1.9.4 4.02 4.13-2.42c2.56.96 5.05 2.13 7.3 3.69 1.96-.23 3.86-.8 5.79-1.19-.07 2.59-2.44 4.01-3.89 5.86 2.93-.33 5.41-2.34 8.37-2.42l-1.28 2.73c1.17.44 2.33-.21 3.47-.49 1.14 1.19 1.92 2.9 3.52 3.55 1.93.14 3.54-1.94 5.56-1.3 5.13 1.16 9.97 4.21 15.39 3.66 1.76.16 3.25 1.34 4.89 1.95 2.93-.67 5.97-3.48 8.99-1.75 2.73 1.34 5.71 2.03 8.39 3.48 2.59 1.33 5.37 2.4 8.31 2.51 1.1-1.2 2.12-2.47 3.1-3.77.44 1.36.9 2.71 1.4 4.06 1.44-.33 2.88-.63 4.34-.86l3.35 3.54c1.26-1.75 2.13-3.92 4.06-5.08 2.15.95 1.01 3.97 1.92 5.81 2.89-1.82 6.45-1.56 9.36-3.35 3.22-.62 6.31 1.27 9.42 1.93.42-1.13.86-2.26 1.32-3.38 2.21.62 3.39 2.56 4.46 4.43a138.66 138.66 0 0 0 3.46-2.1 31.11 31.11 0 0 1 3.08 3.31v40.92l-3.63-1.55 1.34-3.32c-.83-.43-1.69-.82-2.55-1.16-.96 1.6-1.8 3.31-3.14 4.64l-1.55-1.1 1.07-3.1c-1.57-.46-3.15-.9-4.78-1.04-1.65-.28-2.95 1.17-4.54 1.25-1.91-.52-3.69-1.42-5.53-2.12l-.31 2.94c-3 .46-4.72-2.25-6.87-3.75-1.44-.41-2.97-.53-4.46-.53-1.83.89-2.94 3.19-5.05 3.37-2.7-.88-4.81-3.2-7.75-3.41-3.36-.71-6.8-.95-10.13.03-2.81-1.19-5.61-2.5-8.76-2.04l-1.94-1.71-3.85.14c-.95-.67-1.76-1.89-3.06-1.75-3.42.18-6.83.88-10.26.46-3.94-.5-7.93.02-11.85-.61l-2.29-2.86c-1.01.8-2.03 1.57-3.07 2.32-2.17-.53-4.41-.85-6.47-1.72-.93-1.15-1.57-2.78-3.25-2.95-2.41-.93-4.68.83-7.06.88-1.56-.81-3.02-1.79-4.54-2.67-1.81.31-3.56.91-5.36 1.23-3.03-.31-5.69-2.57-8.83-2.01-3.31.47-6.57-.33-9.76-1.09-1.74-.39-3.17-1.83-5.02-1.66-4.06.26-8.11-.68-12.16-.08-2.99.65-5.23-2.51-8.2-2.01a30.72 30.72 0 0 1-6.71-.18c-2.72-.42-5.36.63-7.91 1.4-.31 2.05-1.56 3.6-3.38 4.54.23-3.35.18-6.76-.88-9.98.38-2.09.65-4.23 1.48-6.19 1.32-1.01 3.27-.57 4.61-1.56.73-1.05 2.22-2.56.61-3.52-2.52 2-5.92 2.33-8.35 4.44-1.86-2.04-3.51-4.41-3.87-7.22 1.16.5 2.31 1.04 3.46 1.57.12-1.95-1.25-3.86-.49-5.77 1.29-1.86 3.16-3.27 4.22-5.31-1.87-.39-3.91-.3-5.62-1.23-.98-2.56-2.27-4.97-4.16-6.99l2.77-1.64-3.92-3.05 1.11-2.76c-2.27-.43-4.71-.46-6.71-1.74-.57-3.12-.26-6.71-3.09-8.83.61-2.21 1.45-4.34 2.49-6.37 1.25-1.5 2.24-3.17 3.04-4.94.76-1.18 1.55-2.33 2.36-3.48z"/><path fill="#27282e" d="M273.4 130.39l.84-.55c.48 4.98-3.9 8.04-7.05 11.12l-.39-2.95.11-1.99.14-1.68c1.64.2 3.3.31 4.96.41 1.26-1.1 1.06-2.87 1.39-4.36z"/><path fill="#89756a" d="M274.24 129.84l.9 3.54-.01.83v.85c.04 4.36 1.21 8.62 1.04 12.99-.5-.01-1.48-.01-1.97-.01l-.94-.02c.07-3.73.23-7.48-.25-11.2-2.07 1.72-3.23 4.26-5.04 6.22l-.78-2.08c3.15-3.08 7.53-6.14 7.05-11.12z"/><path fill="#fbfbfd" d="M278.06 134.74c.01-1.81-.86-5.32 2.11-4.63l-.13 1.46-.14 4.48-1.84-1.31z"/><path fill="#a7ac9c" d="M288.97 130.02l2.88.15.27 1.67c.36 2.19 1.02 4.37.87 6.6l-1.54.56-.79-4.26c-1.05 1.58-1.07 3.51-1.01 5.34-.44-3.34-.43-6.71-.68-10.06z"/><path fill="#b4baa5" d="M282.16 131.7l4.98-.78c-.23 11.48 1.79 22.87 1.74 34.33-.46.09-1.36.29-1.81.39.38 3.86 1.9 7.92.54 11.72l-1.52.87c-1-6.36-1.53-12.77-2.56-19.13-.64-8.41-1.5-16.82-1.82-25.25l.45-2.15m4.28 22.7c-.68 1.05.05 2.62 1.08 3.16 1.68-.28.52-3.95-1.08-3.16z"/><path fill="#2d2f28" opacity=".52" d="M299.16 136.13c.61-1.67.16-4.88 2.82-4.26l.4 4c-.57 2.52-1.4 5.04-3.19 6.96-.29-2.22-.26-4.47-.03-6.7z"/><path fill="#555351" opacity=".87" d="M262.65 134.89c1.39-.51 2.9-.95 4.4-.55l-.14 1.68c-1.49.88-3.25.07-4.26-1.13z"/><path fill="#e7eaee" d="M275.13 134.21l1.59.01-.01.75-1.58.09v-.85z"/><path fill="#413f3d" d="M280.82 134.08l.89-.23c.32 8.43 1.18 16.84 1.82 25.25 1.03 6.36 1.56 12.77 2.56 19.13-.23 1.37-.38 2.77-.28 4.16.53 2.71.61 5.58-1.59 7.62l-.07-1.05-.12-1.87c.25-1.37.27-2.74.07-4.11-.14-2.33-.57-4.77-2.82-5.96.5-3.06.4-6.16-.12-9.21a77.49 77.49 0 0 1 .81-2.88l.23-2.71-.1-.91c.3-8.22-.96-16.37-1.18-24.58l-.1-2.65z"/><path fill="#37393a" d="M251.53 142.99c2.74-3.78 6.26-7.41 11.12-8.1 1.01 1.2 2.77 2.01 4.26 1.13l-.11 1.99c-2.03.18-4.1.24-6.06.84-2.12.74-3.49 2.65-5.04 4.16-.98.74-2.04 1.39-3.24 1.68l-.93-1.7z"/><path fill="#cfd0ca" d="M289.65 140.08c-.06-1.83-.04-3.76 1.01-5.34l.79 4.26c.23 1.27.54 2.54.98 3.77l-2.69-1.77-.09-.92z"/><path fill="#ecba9a" d="M267.97 143.04c1.81-1.96 2.97-4.5 5.04-6.22.48 3.72.32 7.47.25 11.2-.1 1.9-.06 3.82-.49 5.68-1.04 1.3-2.31 2.39-3.26 3.76-1.48 2.23-2.3 4.89-4.14 6.88-2.11 1.63-5 2.12-6.72 4.29-1.53 1.88-3.7 2.97-5.94 3.76-2.45-1.28-3.62-3.77-3.95-6.41 1.39-2.17 2.82-4.33 4.47-6.32 2.1-2.17 4.09-4.45 6.1-6.71l4.2-4.67c1.54-1.69 3.01-3.45 4.44-5.24z"/><path fill="#e8e5f1" d="M278.37 137.52l2.55-.79c.22 8.21 1.48 16.36 1.18 24.58l-1.73-.68c-.57-3.03-.94-6.1-1.43-9.14-.31-1.49 1.46-2.61 1.06-4.1-.79-3.25-3.25-6.46-1.63-9.87z"/><path fill="#747070" d="M260.74 138.85c1.96-.6 4.03-.66 6.06-.84l.39 2.95c-1.8-1.2-3.63.06-4.95 1.3.28 2.04.76 4.03 1.29 6.02l-4.2 4.67-.56-1.97-2.32-.71c-1.27-2.18-.88-4.86-.75-7.26 1.55-1.51 2.92-3.42 5.04-4.16z"/><path fill="#949295" d="M262.24 142.26c1.32-1.24 3.15-2.5 4.95-1.3l.78 2.08-4.44 5.24-1.29-6.02z"/><path fill="#bbbeb2" d="M289.74 141l2.69 1.77.38.62c.19 5.19-.02 10.44 1.17 15.53.99 4.05.89 8.25.53 12.38-.74-1.07-1.58-1.17-2.5-.29-1.06-9.98-1.52-20-2.27-30.01z"/><path fill="#565756" d="M248.84 148.62c.7-1.97 1.07-4.16 2.69-5.63l.93 1.7c1.2-.29 2.26-.94 3.24-1.68-.13 2.4-.52 5.08.75 7.26l2.32.71.56 1.97-6.1 6.71c-2.25-.42-4.43.27-6.56.92l1.4-7.6c1.91-.7 2.71-3.16.77-4.36z"/><path fill="#838979" d="M292.81 143.39c.96 1.46 1.6 3.09 2.32 4.68l1.17-1.17c.01-1.49-.04-3.03.68-4.39 1.15 1.82 1.29 3.99 1.56 6.07.39 3.38 1.07 6.72 1.41 10.11-1.62 1.32-3.35 2.76-3.63 4.98-.91 3.02-.65 6.2-.47 9.3l-1.61.21.27-1.88c.36-4.13.46-8.33-.53-12.38-1.19-5.09-.98-10.34-1.17-15.53z"/><path opacity=".13" d="M299.95 158.69c2.01-4.75-.02-10.27 1.61-15.18 2.83 2.12 2.52 5.71 3.09 8.83 2 1.28 4.44 1.31 6.71 1.74l-1.11 2.76c1.29 1.04 2.6 2.04 3.92 3.05l-2.77 1.64c1.89 2.02 3.18 4.43 4.16 6.99 1.71.93 3.75.84 5.62 1.23-1.06 2.04-2.93 3.45-4.22 5.31-.76 1.91.61 3.82.49 5.77l-3.46-1.57c.36 2.81 2.01 5.18 3.87 7.22 2.43-2.11 5.83-2.44 8.35-4.44 1.61.96.12 2.47-.61 3.52-1.34.99-3.29.55-4.61 1.56-.83 1.96-1.1 4.1-1.48 6.19-1.99-3.74-3.98-7.59-7.47-10.16-.66-.58-1.32-1.13-1.99-1.67 1.12-2.3-1.77-3-3.45-3.14l-1.32-.7c-2.01-3.13-4.89-5.54-8.47-6.66l-.49-7.31c.28-2.22 2.01-3.66 3.63-4.98z"/><path fill="#d7a887" d="M273.26 148.02l.94.02c-.19 5.26.41 10.57-.32 15.8-1.45 2.81-4.03 4.99-5 8.1-.6 1.67-.93 3.42-1.14 5.18l-.94-.07c-5.1.07-9.95-1.77-14.09-4.66 2.24-.79 4.41-1.88 5.94-3.76 1.72-2.17 4.61-2.66 6.72-4.29 1.84-1.99 2.66-4.65 4.14-6.88.95-1.37 2.22-2.46 3.26-3.76.43-1.86.39-3.78.49-5.68z"/><path fill="#464449" d="M274.2 148.04l1.97.01.15 12.01c.03 2.56 1.22 4.98 1.01 7.56a123.89 123.89 0 0 0-3.9 1.03l-1.52.5c-.57 1.88-.85 3.83-1.18 5.76l-1.85-2.97c.97-3.11 3.55-5.29 5-8.1.73-5.23.13-10.54.32-15.8z"/><path fill="#434544" d="M246.29 155.9c.15-2.38-.33-5.32 2.03-6.79a7.92 7.92 0 0 0-.25 3.87l-1.4 7.6c2.13-.65 4.31-1.34 6.56-.92-1.65 1.99-3.08 4.15-4.47 6.32l-2.31-.4-1.99 4.78c1.01-4.76 1.92-9.58 1.83-14.46z"/><path fill="#6c6c69" opacity=".98" d="M248.32 149.11l.52-.49c1.94 1.2 1.14 3.66-.77 4.36a7.92 7.92 0 0 1 .25-3.87z"/><path fill="#e5e4e6" d="M286.44 154.4c1.6-.79 2.76 2.88 1.08 3.16-1.03-.54-1.76-2.11-1.08-3.16z"/><path fill="#e9e5f0" d="M281.97 164.93c-2.54.1-2.43-3.8.23-2.71l-.23 2.71z"/><path fill="#85897d" d="M295.85 172.97c-.18-3.1-.44-6.28.47-9.3l.49 7.31.21 3.37c1.57.24 3.15.47 4.67.99l.01 4.35-1.97-.31c-.98-1.09-1.31-3.2-2.96-3.38-.25 3.5 1.79 6.58 2.15 10 .38 3.38-.84 6.64-1.1 9.98.24 3.22 3.23 5.09 4.93 7.56l-3.05 2.67.25 2.48c2.12 1.66 5.04 2.62 6.06 5.36l-.07.89c-2.12-1.28-4.21-2.6-6.48-3.6-.69 1.32-1.3 2.69-1.8 4.1l1.1 1.96c-.23 1.16.09 2.6-.83 3.52-1.23-2.62-2.48-5.33-4.74-7.23-1.91-1.53-2.23-4.06-3.15-6.17l-1.1.64-1.55-1.08a4.67 4.67 0 0 0-4.39-.94c-2.52.36-1.12 4.47 1.18 3.84l.85.04c1.26.1 2.51.04 3.75-.21l-.11.94c-2.36 1.11-5.02.47-7.49.2-1.26-1.82-1.7-4.02-1.92-6.19-.04-4.53-1.12-9-.93-13.54l1.38-.32c.05 4.35-.13 8.71.31 13.04l1.8.12 3.14.02c-.01-1.47-.05-2.94-.11-4.4l-.37-5.51c.16-1.29.58-2.48 1.27-3.58.56 4.82.31 9.85 2.11 14.44l1.02.84c.77-.94 1.49-1.91 2.17-2.91-1.15-2.59-3.85-4.73-3.45-7.81.98-1.46 2.14-2.8 3.12-4.27l.49-.8c.86 1.38 1.8 2.71 2.66 4.09.35 2.96.28 5.93.24 8.9l1.95-.05c.85-3.9-.82-7.75-.64-11.66.17-3.28-.4-6.52-.66-9.77.64-2.84 1.56-5.66 1.09-8.62m-.61 31.3v.45h.46v-.45h-.46m3.04.01v.45h.45v-.45h-.45m-3.13 1.97l-.41.72.41.72h.82l.41-.72-.41-.72h-.82z"/><path fill="#61605c" d="M246.45 165.58l2.31.4c.33 2.64 1.5 5.13 3.95 6.41 4.14 2.89 8.99 4.73 14.09 4.66l.04.93c-6.9-.68-13.76.5-20.57 1.4-2.08.04-3.04 2.13-4.4 3.37-1.38-3.81.96-7.39 2.04-10.95.13-.36.41-1.08.55-1.44.61-1.62 1.27-3.21 1.99-4.78z"/><path fill="#d9d8e7" d="M273.43 168.65l3.9-1.03c1.09 1.06 2.09 2.19 2.96 3.44l-.38 3.98a15.92 15.92 0 0 1-3.52-.24c-1.69-1.61-2.08-4.08-2.96-6.15z"/><path fill="#6b6c77" d="M280.29 171.06l.87-3.25c.52 3.05.62 6.15.12 9.21-2.03.43-4.1.61-6.17.43-2.16-.43-4.06.74-5.91 1.65l-.9-1.25c3.63-1.55 7.57-1.93 11.48-1.95l.13-.86.38-3.98z"/><path fill="#babdc9" d="M271.91 169.15l1.52-.5c.88 2.07 1.27 4.54 2.96 6.15a15.92 15.92 0 0 0 3.52.24l-.13.86c-3.91.02-7.85.4-11.48 1.95l-.56-.73c.21-1.76.54-3.51 1.14-5.18l1.85 2.97c.33-1.93.61-3.88 1.18-5.76z"/><path fill="#d0d1cc" d="M292.01 171.01c.92-.88 1.76-.78 2.5.29l-.27 1.88-2.08.83-.15-3z"/><path fill="#555553" d="M296.81 170.98c3.58 1.12 6.46 3.53 8.47 6.66-1.12 1.43-2.19 2.91-3.11 4.47.63 2.48 1.9 5.29 4.67 5.85l1.07-3.58c1.33-.54 2.72-.91 4.13-1.23 3.49 2.57 5.48 6.42 7.47 10.16 1.06 3.22 1.11 6.63.88 9.98-.11 2.15.15 4.29.42 6.41l-.74.49c-.4-1.34-.89-2.65-1.38-3.96-2.18.73-4.31 1.84-5.8 3.63-.72 1.68-.73 3.54-1.04 5.32-.49 0-1.48-.01-1.97-.02l-.91-.08c-1-.33-1.99-.67-2.96-1.03-1.02-2.74-3.94-3.7-6.06-5.36l-.25-2.48 3.05-2.67c-1.7-2.47-4.69-4.34-4.93-7.56.26-3.34 1.48-6.6 1.1-9.98-.36-3.42-2.4-6.5-2.15-10 1.65.18 1.98 2.29 2.96 3.38l1.97.31c.07-1.45.06-2.91-.01-4.35-1.52-.52-3.1-.75-4.67-.99a95.2 95.2 0 0 1-.21-3.37m8.5 21.4c-.57 2.85-.23 5.88.58 8.65 2.93 3.39 7.95 1.68 11.84 1.84-3.75-3.75-3.66-9.55-6.85-13.62-2.11.38-4.6.98-5.57 3.13z"/><path fill="#4f4e4b" d="M237.8 180.79c3.28-2.02 3.49-6.34 6.11-8.99-1.08 3.56-3.42 7.14-2.04 10.95 1.36-1.24 2.32-3.33 4.4-3.37 6.81-.9 13.67-2.08 20.57-1.4.12 2.71.11 5.42-.08 8.13-1.81.32-3.64.47-5.42.88-1.41.35-2.58 1.51-4.05 1.54-3.22-2.33-5.73-6.17-10.11-6.36l-2.45 1.6c-1.96 1.39-5.45 1.96-5.52 4.9l2.48.87c.69 1.46.84 3.68 2.74 4.11 3.35 1 6.9.52 10.31 1.14 1.53.94 2.11 2.86 3.08 4.3l-2.54-.77c-5.83-2.22-12.12-2.38-18.26-2.86-.71-1.08-1.48-2.11-2.27-3.13-2.05-.05-4.1.13-6.14.32.76-5.33 5.05-8.93 9.19-11.86z"/><path fill="#a3aa9f" d="M294.24 173.18l1.61-.21c.47 2.96-.45 5.78-1.09 8.62.26 3.25.83 6.49.66 9.77-.18 3.91 1.49 7.76.64 11.66-.48.02-1.46.04-1.95.05.04-2.97.11-5.94-.24-8.9.16-6.78-1.35-13.42-1.71-20.16l2.08-.83z"/><path fill="#1e2125" d="M266.8 177.05l.94.07.56.73.9 1.25c.28 2.24.17 4.96 2.64 6l2.23-2.07c.11 1.81.25 3.75 1.73 5.02l2.54 2.35-.01.82c-.19 4.54.89 9.01.93 13.54-.82 2.24-1.85 4.4-2.95 6.51l-.86-2.08c-.46-2.5-.27-5.17-1.25-7.53-1.41-1.79-2.83-3.61-3.25-5.91-.23-1.75-1.57-2.82-2.87-3.82-1.49-1.62-1.6-3.75-1.32-5.82.19-2.71.2-5.42.08-8.13l-.04-.93z"/><path fill="#3a3c3e" d="M269.2 179.1c1.85-.91 3.75-2.08 5.91-1.65l-1.04 5.58-2.23 2.07c-2.47-1.04-2.36-3.76-2.64-6z"/><path fill="#86878a" d="M275.11 177.45c2.07.18 4.14 0 6.17-.43 2.25 1.19 2.68 3.63 2.82 5.96-2.91-.03-2.72 3.76-.07 4.11l.12 1.87c-1.71.13-3.24.72-4.44 1.94l-1.38.32.01-.82c.4-2.43-.84-4.78-3.09-5.79l.55 3.44c-1.48-1.27-1.62-3.21-1.73-5.02l1.04-5.58z"/><path fill="#6d6c6b" d="M302.17 182.11c.92-1.56 1.99-3.04 3.11-4.47l1.32.7c.11 1.87 1.65 3.04 3.45 3.14l1.99 1.67c-1.41.32-2.8.69-4.13 1.23l-1.07 3.58c-2.77-.56-4.04-3.37-4.67-5.85z"/><path fill="#363635" opacity=".73" d="M306.6 178.34c1.68.14 4.57.84 3.45 3.14-1.8-.1-3.34-1.27-3.45-3.14z"/><path fill="#a3a994" d="M287.16 180.4c1.16.55 2.47 1.04 3.2 2.19l.47 3.52-1.39-3.09c-.51 2.2-.9 4.43-1.04 6.69.73.46 1.5.85 2.32 1.17l-3.12 4.27c-.4 3.08 2.3 5.22 3.45 7.81l-2.17 2.91-1.02-.84c-1.8-4.59-1.55-9.62-2.11-14.44-.69 1.1-1.11 2.29-1.27 3.58l-.26-4.16c2.2-2.04 2.12-4.91 1.59-7.62l1.35-1.99z"/><path fill="#3f3d3b" d="M244.73 183.77l2.45-1.6c4.38.19 6.89 4.03 10.11 6.36 1.47-.03 2.64-1.19 4.05-1.54 1.78-.41 3.61-.56 5.42-.88-.28 2.07-.17 4.2 1.32 5.82.66 2.97 1.97 6.35.01 9.13-1.29-1.61-2.25-3.72-4.38-4.32.29 2.55-.05 5.13-1.93 7.05-2.13-.6-2.8-3.06-3.96-4.7-.97-1.44-1.55-3.36-3.08-4.3-3.41-.62-6.96-.14-10.31-1.14-1.9-.43-2.05-2.65-2.74-4.11l3.01-.9a56.5 56.5 0 0 0 .03-4.87z"/><path fill="#cdccd4" d="M284.03 187.09c-2.65-.35-2.84-4.14.07-4.11.2 1.37.18 2.74-.07 4.11z"/><path fill="#aeaeb3" d="M289.44 183.02l1.39 3.09.38 3.97-.49.8c-.82-.32-1.59-.71-2.32-1.17.14-2.26.53-4.49 1.04-6.69z"/><path fill="#2f302f" d="M239.21 188.67c.07-2.94 3.56-3.51 5.52-4.9l-.03 4.87-3.01.9-2.48-.87z"/><path fill="#919298" d="M275.25 184.61c2.25 1.01 3.49 3.36 3.09 5.79l-2.54-2.35-.55-3.44z"/><path fill="#bfbec7" d="M279.71 190.9c1.2-1.22 2.73-1.81 4.44-1.94l.07 1.05.26 4.16.37 5.51-2 1.3-1.03 3.08-1.8-.12c-.44-4.33-.26-8.69-.31-13.04z"/><path fill="#6b6b6c" d="M305.31 192.38c.97-2.15 3.46-2.75 5.57-3.13 3.19 4.07 3.1 9.87 6.85 13.62-3.89-.16-8.91 1.55-11.84-1.84-.81-2.77-1.15-5.8-.58-8.65z"/><path fill="#5e6161" d="M228.61 192.65l6.14-.32 2.27 3.13c-1.36 1.1-1.49 2.93-2.14 4.44-.83.63-1.99.15-2.95.22l-3.88-1.32c-.88-2.04.12-4.14.56-6.15z"/><path fill="#58584f" d="M268.08 191.93c1.3 1 2.64 2.07 2.87 3.82.42 2.3 1.84 4.12 3.25 5.91.98 2.36.79 5.03 1.25 7.53-2.95-.26-5.33-2.64-8.31-2.44-.15-1.76-1.74-2.24-3.25-1.85-.14 2.23.29 4.44 1.16 6.49 1.3-.3 1.99-1.11 2.08-2.45 1.48.9 2.97 2.13 4.78 2.19a24.27 24.27 0 0 0 3.3-1.04l-.45 1.71-3.66.48c1.7.61 3.87 1.06 4.14 3.22l-1.23 2.32-2.89-.44c-2.41 1.57-3.98 4.05-5.12 6.62l-4.38 2.77-2.45.26-2.23-1.84c-.84-.71-1.63-1.55-2.75-1.76-4.57-1.32-9.21-2.43-13.96-2.8-1.19-.43-2.35-.91-3.54-1.34l1.97-.11c2.72-.08 5.45-.12 8.18-.01 4.53 1.79 9.35 2.7 14.15 3.42.23-3.74-1.7-7.08-2.38-10.67-.15-1.21-.8-2.22-1.68-3.03 1.35-.59 3.46-.45 4.09-2.01-5.87-1.14-11.94.61-17.73-1.16-1.82-.36-3-1.9-4.4-2.97l2.18-.71c5.3 1.18 10.75 1.46 16.03 2.79.13-1.64-1.62-2.54-2.88-3.12-3.86-1.46-8.06-1.6-12.12-2.04l-1.18-2.2c4.75.5 9.61 2.18 14.36.85l2.54.77c1.16 1.64 1.83 4.1 3.96 4.7 1.88-1.92 2.22-4.5 1.93-7.05 2.13.6 3.09 2.71 4.38 4.32 1.96-2.78.65-6.16-.01-9.13z"/><path fill="#6d7070" d="M234.88 199.9c.65-1.51.78-3.34 2.14-4.44 6.14.48 12.43.64 18.26 2.86-4.75 1.33-9.61-.35-14.36-.85l1.18 2.2c-1.72.03-3.44.1-5.15.31l-.21 1.58c1.44.14 2.89.27 4.33.48l-2.18.71c-2.33.43-4.71.53-7.08.41l-1.15-1.4 1.27-1.64c.96-.07 2.12.41 2.95-.22z"/><path fill="#87898c" d="M236.95 199.98c1.71-.21 3.43-.28 5.15-.31 4.06.44 8.26.58 12.12 2.04 1.26.58 3.01 1.48 2.88 3.12-5.28-1.33-10.73-1.61-16.03-2.79-1.44-.21-2.89-.34-4.33-.48l.21-1.58z"/><path fill="#dad8e4" d="M282.85 200.98l2-1.3.11 4.4-3.14-.02 1.03-3.08z"/><path fill="#64615a" d="M228.88 212.93c-.14-3.78-1.06-8.1 1.78-11.17l1.15 1.4c.74.77 1.55 1.46 2.43 2.06a65.08 65.08 0 0 1-5.36 7.71z"/><path fill="#454540" d="M231.81 203.16c2.37.12 4.75.02 7.08-.41 1.4 1.07 2.58 2.61 4.4 2.97 5.79 1.77 11.86.02 17.73 1.16-.63 1.56-2.74 1.42-4.09 2.01-3.97.55-7.95-.09-11.87-.71-3.71-.58-7.08-2.45-10.82-2.96-.88-.6-1.69-1.29-2.43-2.06z"/><path fill="#dbdad8" d="M295.24 204.27h.46v.45h-.46v-.45z"/><path fill="#bdbcb8" d="M298.28 204.28h.45v.45h-.45v-.45z"/><path fill="#87897f" d="M234.24 205.22c3.74.51 7.11 2.38 10.82 2.96 3.92.62 7.9 1.26 11.87.71.88.81 1.53 1.82 1.68 3.03.68 3.59 2.61 6.93 2.38 10.67-4.8-.72-9.62-1.63-14.15-3.42.18-2.06 1.04-4.59-.99-6.04-1.9-2.06-4.78.01-6.55 1.22-.64 1.52-.47 3.22-.64 4.83l-1.97.11c-2.01-.13-4.03-.28-6.01-.69-.29-1.75-.68-3.5-1.75-4.96l-.05-.71a65.08 65.08 0 0 0 5.36-7.71z"/><path fill="#2a2d31" d="M263.89 204.9c1.51-.39 3.1.09 3.25 1.85l-.01 2.19c-.09 1.34-.78 2.15-2.08 2.45-.87-2.05-1.3-4.26-1.16-6.49z"/><path fill="#050606" opacity=".79" d="M279.26 204.76c.22 2.17.66 4.37 1.92 6.19l2.24 4.05-.43 1.81c-1.52-2.19-3.59-3.76-6.16-4.49l-.52-1.05c1.1-2.11 2.13-4.27 2.95-6.51z"/><path fill="#6f6f72" d="M267.14 206.75c2.98-.2 5.36 2.18 8.31 2.44l-.24.9a24.27 24.27 0 0 1-3.3 1.04c-1.81-.06-3.3-1.29-4.78-2.19l.01-2.19z"/><path fill="#84e3ff" d="M284.18 209.98c-2.3.63-3.7-3.48-1.18-3.84a34.06 34.06 0 0 1 1.18 3.84z"/><path fill="#cdfeff" d="M283 206.14a4.67 4.67 0 0 1 4.39.94l-2.36 2.94-.85-.04a34.06 34.06 0 0 0-1.18-3.84z"/><path fill="#d1d2cd" d="M295.15 206.25h.82l.41.72-.41.72h-.82l-.41-.72.41-.72z"/><path fill="#6f6d6d" d="M312.89 209.86c1.49-1.79 3.62-2.9 5.8-3.63l1.38 3.96.03.84c-2.35 1.54-4.79 2.98-7.36 4.13l-.89.02c.31-1.78.32-3.64 1.04-5.32z"/><path fill="#85e6ff" d="M287.39 207.08l1.55 1.08-.16 1.65c-1.24.25-2.49.31-3.75.21l2.36-2.94z"/><path fill="#9d9da4" d="M288.94 208.16l1.1-.64c.92 2.11 1.24 4.64 3.15 6.17 2.26 1.9 3.51 4.61 4.74 7.23l-1.87 1.24-2.43.91-1.82.49c-1.51-1.84-.99-4.27-1.54-6.43-1.86-1.75-4.41-2.05-6.85-2.13-.67-1.39-1.44-2.73-2.24-4.05 2.47.27 5.13.91 7.49-.2l.11-.94.16-1.65z"/><path fill="#303324" d="M275.45 209.19l.86 2.08.52 1.05c2.57.73 4.64 2.3 6.16 4.49l.43-1.81c2.44.08 4.99.38 6.85 2.13l-.2 1.55-1.96-.9-2.12-1.01-2.18 1.17-2.16.46-1.77-2.53-4.64-.37c-.27-2.16-2.44-2.61-4.14-3.22l3.66-.48.45-1.71.24-.9z"/><path fill="#70513f" opacity=".75" d="M320.07 210.19l.74-.49c1.69 6.78 3.1 13.63 5.14 20.31 1 3.24 1.6 6.57 2.13 9.91-1.74-3.1-3.51-6.31-3.73-9.94-.52-6.51-3.29-12.53-4.25-18.95l-.03-.84z"/><path fill="#3a312e" d="M299.46 211.34c2.27 1 4.36 2.32 6.48 3.6-.36 4.35-.47 8.73-.16 13.09-1.21-2.82-1.83-5.86-3.28-8.57l-.34-.66-.59-1.12c-.93-.15-1.87-.22-2.81-.28l-1.1-1.96c.5-1.41 1.11-2.78 1.8-4.1z"/><path fill="#ce9a7b" d="M312.74 215.16c2.57-1.15 5.01-2.59 7.36-4.13.96 6.42 3.73 12.44 4.25 18.95.22 3.63 1.99 6.84 3.73 9.94.49 2.3.87 4.62 1.17 6.95.09 3.95.4 7.94-.11 11.87-.56 2.22-3.35 1.83-5.04 2.53.56-1.21 1.36-2.43 1.26-3.82-.08-4.6-1.65-8.98-2.15-13.52-.32-2.87-.74-5.72-1.56-8.49-.99-3.34-1.53-6.94-3.66-9.8-2.76 4.27-1.84 9.57-2.11 14.38-.43 6.13 2.31 11.78 3.37 17.71.15 1.92 1.67 3.05 3.12 4.07-1.97 1.51-4.38.47-6.56.16-.33-4.31-.82-8.62-1.82-12.83-.57-2.35-.63-4.79-.32-7.18.72-6.4 1.61-13.07-.32-19.35-.79-2.41-.76-4.95-.61-7.44z"/><path fill="#9c9c91" d="M239.3 214.35c1.77-1.21 4.65-3.28 6.55-1.22 2.03 1.45 1.17 3.98.99 6.04-2.73-.11-5.46-.07-8.18.01.17-1.61 0-3.31.64-4.83z"/><path fill="#73766c" d="M225.71 218.93l3.22-5.29c1.07 1.46 1.46 3.21 1.75 4.96 1.98.41 4 .56 6.01.69l3.54 1.34c-4.87.23-9.75.73-14.51 1.83l-.01-3.53z"/><path opacity=".07" d="M306.01 214.05l2.96 1.03c.23 5.38.15 10.79.97 16.13.73 4.95.33 10.02-.84 14.87a45.54 45.54 0 0 0-.54-3.69c-.4-2.48-.99-4.92-1.4-7.39.91-2.49-.32-4.77-1.38-6.97-.31-4.36-.2-8.74.16-13.09l.07-.89z"/><path fill="#1a1410" opacity=".78" d="M308.97 215.08l.91.08c-.44 6.64 1.09 13.2.97 19.85 1.16 7.31.54 14.71 1.16 22.06-.8-.97-1.71-1.86-2.96-2.14l-2.03-.25c.55-2.9 1.43-5.72 2.08-8.6 1.17-4.85 1.57-9.92.84-14.87-.82-5.34-.74-10.75-.97-16.13z"/><path fill="#b88567" d="M309.88 215.16l1.97.02.89-.02c-.15 2.49-.18 5.03.61 7.44 1.93 6.28 1.04 12.95.32 19.35-.31 2.39-.25 4.83.32 7.18 1 4.21 1.49 8.52 1.82 12.83-.88-.32-1.77-.63-2.66-.92l-1.14-3.97c-.62-7.35 0-14.75-1.16-22.06.12-6.65-1.41-13.21-.97-19.85z"/><path fill="#5f6279" d="M274.01 217.82l1.23-2.32 4.64.37 1.77 2.53 2.16-.46c.66 3.64.52 7.34-.1 10.97l-1.43.28-.79.16c-2.76-.9-5.65-1.46-8.56-1.2-.79-1.91-1.09-3.96-.9-6.02l1.98-4.31m3.25.43v.46h.46v-.46h-.46m2 5.01l.01.46h.45v-.46h-.46z"/><path fill="#40404b" d="M266 224c1.14-2.57 2.71-5.05 5.12-6.62l2.89.44-1.98 4.31-2.43.49c-.81 1.47-1.41 3.04-1.98 4.61l-1.22.24-.4-3.47z"/><path fill="#747788" d="M283.81 217.94l2.18-1.17 2.12 1.01-1.24 4.21c1.1 1.29 2.55 2.22 3.87 3.28l-.36 2.96-6.67.68c.62-3.63.76-7.33.1-10.97m1.46 4.34v.45h.46v-.45h-.46m4.09 2.96v.45h.45v-.45h-.45z"/><path fill="#616273" d="M290.27 217.13c.55 2.16.03 4.59 1.54 6.43.35 1.1.74 2.79 2.26 2.67 1.83-.37.75-2.7-.44-3.16l2.43-.91 3 1.68c-1.52.84-3.42 2.37-2.15 4.25l-1.58 3.16-2.87-3.15-1.6.09-.48.04.36-2.96c-1.32-1.06-2.77-1.99-3.87-3.28l1.24-4.21 1.96.9.2-1.55z"/><path fill="#4f494b" d="M298.76 217.4l2.81.28.59 1.12c-1.79.1-3.07 2.24-1.68 3.66 1.64 1.03 1.82-2.02 2.02-3 1.45 2.71 2.07 5.75 3.28 8.57 1.06 2.2 2.29 4.48 1.38 6.97l-.75-3.01c-.96-1.69-3.03-1.58-4.68-2.03-.08-1.93-.22-4.02-1.78-5.38l-.89-.74-3-1.68 1.87-1.24c.92-.92.6-2.36.83-3.52z"/><path fill="#d1ceda" d="M277.26 218.25h.46v.46h-.46v-.46z"/><path fill="#555651" opacity=".89" d="M215.05 228.37c2.22-4.41 6.75-6.78 10.66-9.44l.01 3.53c-3.92 1.2-7.62 3.15-10.67 5.91z"/><path fill="#7d7a80" d="M300.48 222.46c-1.39-1.42-.11-3.56 1.68-3.66l.34.66c-.2.98-.38 4.03-2.02 3z"/><path fill="#8c8a81" d="M225.72 222.46c4.76-1.1 9.64-1.6 14.51-1.83 4.75.37 9.39 1.48 13.96 2.8 1.12.21 1.91 1.05 2.75 1.76l-5.67.49c-4.82.46-9.64.5-14.39-.43-6.23.92-12.43 2.33-18.54 3.89-1.21.31-2.45.09-3.66 0l.37-.77c3.05-2.76 6.75-4.71 10.67-5.91z"/><path fill="#6f768d" d="M269.6 222.62l2.43-.49c-.19 2.06.11 4.11.9 6.02-1.84.17-3.91.64-5.31-.92.57-1.57 1.17-3.14 1.98-4.61z"/><path fill="#f4f1fa" d="M285.27 222.28h.46v.45h-.46v-.45z"/><path fill="#f3f0f8" d="M279.26 223.26h.46v.46h-.45l-.01-.46z"/><path fill="#555560" d="M291.81 223.56l1.82-.49c1.19.46 2.27 2.79.44 3.16-1.52.12-1.91-1.57-2.26-2.67z"/><path fill="#5c5e5d" d="M261.62 226.77L266 224l.4 3.47 1.22-.24c1.4 1.56 3.47 1.09 5.31.92 2.91-.26 5.8.3 8.56 1.2l-1.64 1.73c-3.59-.48-7.14-1.58-10.8-1.34-2.22-.02-3.73 1.89-4.98 3.48-2.56 3.47-2.81 7.93-3.21 12.07-2.21.02-4.53-1.51-6.53.04l-.07 2.24c1.78 1.26 4.03 1.58 5.92 2.66.07 1.24-.31 2.4-1.08 3.37-1.58-.47-3.19-1.04-4.84-.66.69 1.68 2.96 3.11 2.53 4.98l-4.64-.33c-.82 1.03-1.57 2.12-2.31 3.2-1.2 1.53-2.65 2.85-4.21 4.01l-.64.49c-.61-2.34.96-4.35 1.92-6.33 1.89-3.4 3.37-7.04 4.19-10.85.77-3.3 2.04-6.45 3.15-9.64-1.12-.99-2.44-1.83-3.12-3.2 1.36-.75 2.79-1.39 4.34-1.61a43.99 43.99 0 0 0 1.46 2.59c4.53-1.59 5.05-6.9 8.22-9.94l-3.53.46z"/><path fill="#888997" d="M296.91 228.09c-1.27-1.88.63-3.41 2.15-4.25l.89.74-1.77 2.51-1.27 1z"/><path fill="#616361" d="M218.34 229.14c6.11-1.56 12.31-2.97 18.54-3.89 4.75.93 9.57.89 14.39.43l-.06 2.01c-1.17 1.19-2.4 2.33-3.52 3.56.31 1.65.39 3.34-.16 4.96l-2.06-1.07c-2.64-1.27-5.65-.86-8.47-1.11-2.88-.07-5.75-.65-8.63-.44-4.75 2.46-8.84 6.05-13.57 8.58-.26-1.31-.58-2.62-.69-3.95.99-1.57 2.49-2.72 3.75-4.07-1.35-.84-2.71-1.65-4.09-2.42l.91-2.59c1.21.09 2.45.31 3.66 0z"/><path fill="#72716e" d="M251.27 225.68l5.67-.49 2.23 1.84 2.45-.26 3.53-.46c-3.17 3.04-3.69 8.35-8.22 9.94a43.99 43.99 0 0 1-1.46-2.59c-1.55.22-2.98.86-4.34 1.61.68 1.37 2 2.21 3.12 3.2-1.11 3.19-2.38 6.34-3.15 9.64-2.79.03-5.25 1.4-7.61 2.72.4 3.57-.93 6.92-2.57 10.01l-1.95 2.1-1.12-.96c1.59-4.24.4-8.92 1.92-13.16.47-1.45 1.61-2.64 3.12-2.99l1.47 2.5c2.2-1.12 4.39-2.28 6.35-3.79.08-1.79.17-3.71-.71-5.33-.66-.86-1.93-.67-2.85-1.03l.38-1.97c.55-1.62.47-3.31.16-4.96 1.12-1.23 2.35-2.37 3.52-3.56l.06-2.01z"/><path fill="#aaaab7" d="M289.36 225.24h.45v.45h-.45v-.45z"/><path fill="#646679" d="M298.18 227.09l1.77-2.51c1.56 1.36 1.7 3.45 1.78 5.38l.22 3.79 4.46-1.76.75 3.01-.94.3-2.24.73c-.96 1.56-1.68 3.24-2.28 4.96-.97-2.69-2.65-5.01-3.87-7.57-.1-2.11.68-4.2.35-6.33z"/><path fill="#e0ad90" d="M315.88 240.02c.27-4.81-.65-10.11 2.11-14.38 2.13 2.86 2.67 6.46 3.66 9.8.82 2.77 1.24 5.62 1.56 8.49.5 4.54 2.07 8.92 2.15 13.52.1 1.39-.7 2.61-1.26 3.82l-1.73.53c-1.45-1.02-2.97-2.15-3.12-4.07-1.06-5.93-3.8-11.58-3.37-17.71z"/><path fill="#555556" d="M296.91 228.09l1.27-1c.33 2.13-.45 4.22-.35 6.33 1.22 2.56 2.9 4.88 3.87 7.57l-.06 3.04-2.12.58-.24 2.11-3.3 1.39-6.2-3.35 2.61-.74 4.82 1.62c-2.14-1.95-4.18-4.09-6.71-5.54-3.01-1.24-6.43-1.45-9.16-3.37.12-2.53.52-5.04.94-7.54l1.43-.28 6.67-.68.48-.04 1.6-.09c1.02.98 1.95 2.06 2.87 3.15l1.58-3.16z"/><path fill="#c3c4c8" d="M290.38 228.23l.48-.04-.48.04z"/><path fill="#838079" d="M281.49 229.35l.79-.16-.94 7.54c2.73 1.92 6.15 2.13 9.16 3.37 2.53 1.45 4.57 3.59 6.71 5.54l-4.82-1.62c-2.57-1.49-5.15-3.03-8.04-3.8l-.19 4.32-.68.37-1.49-.84c-2.2 3.06-1.87 7.59-4.87 10.04-1.67-1.2-3.31-2.52-4.41-4.27-.17-3.01 3.05-5.45 2.1-8.45-2.92-1.35-6.26-2.04-9.42-1.18-1.03 1.78-2.02 3.67-2.22 5.75.43 1.38 1.23 2.62 2.02 3.83-2.03-.88-4.25-1.97-4.33-4.5.4-4.14.65-8.6 3.21-12.07 1.25-1.59 2.76-3.5 4.98-3.48 3.66-.24 7.21.86 10.8 1.34l1.64-1.73z"/><path fill="#d9d9df" d="M301.73 229.96c1.65.45 3.72.34 4.68 2.03l-4.46 1.76-.22-3.79z"/><path fill="#575956" d="M213.77 231.73l4.09 2.42c-1.26 1.35-2.76 2.5-3.75 4.07.11 1.33.43 2.64.69 3.95-.69 1.42-1.54 2.9-1.07 4.54 3.54-3.58 7.71-6.82 12.68-8.07 5.69-.98 11.58-.7 17.19-2.21l1.87-1.29 2.06 1.07-.38 1.97c.92.36 2.19.17 2.85 1.03.88 1.62.79 3.54.71 5.33-1.96 1.51-4.15 2.67-6.35 3.79l-1.47-2.5c-1.51.35-2.65 1.54-3.12 2.99-1.52 4.24-.33 8.92-1.92 13.16l-1.4 1.38c-1.36-3.24.51-7.57-2.46-10.01.81-1.89 1.68-3.77 2.2-5.76 2.07-1.46 4.37-2.55 6.56-3.8-.96-1.18-1.93-2.4-3.19-3.28-2.43-.28-4.87.29-7.2.93-3.17.82-4.83 3.93-6.39 6.53-1.43 2.72-3.2 5.46-3.36 8.62-.15 2.92-.18 5.86 0 8.79.06 2.6 1.78 4.7 3.1 6.82a57.66 57.66 0 0 0-3.61-.9c-.16 1.01-.29 2.04-.4 3.07l.14 2.09c2.86 3.05 6.83 4.91 9.26 8.42-2.18-1.04-4.36-2.37-6.83-2.52-.38 1.16-.71 2.34-.96 3.53 4.88 3.33 10.99 6.58 16.94 4.02-2.3-1.45-4.88-2.36-7.24-3.69l3.19-.24a172.11 172.11 0 0 1 7.82.98c2.4.35 4.9.92 7.3.17 1.68-.29 3.44-1.17 5.12-.38-3 1.95-6.04 3.88-9.31 5.35-4.33-.11-8.68-.64-12.98.01-2.4.24-4.89.95-7.26.17-3.08-.85-5.21-3.41-7.77-5.14-.1 1.22-.15 2.44-.18 3.67-2.01-2.46.68-4.87 1.61-7.12.7-10.58-3.76-20.51-5.55-30.75.96.17 1.91.32 2.88.46 3.26-2.71 5.61-6.38 7.22-10.26-1.21.39-2.43.76-3.56 1.36-2.6 1.34-3.37 5.06-6.48 5.6-1.76.35-4.27 1.28-5.32-.81-.73-3.01-.58-6.14-.54-9.2 1.7-2.69 3.56-5.32 4.57-8.36z"/><path fill="#9a978e" d="M228.37 233.59c2.88-.21 5.75.37 8.63.44 2.82.25 5.83-.16 8.47 1.11l-1.87 1.29c-5.61 1.51-11.5 1.23-17.19 2.21-4.97 1.25-9.14 4.49-12.68 8.07-.47-1.64.38-3.12 1.07-4.54 4.73-2.53 8.82-6.12 13.57-8.58z"/><path fill="#5f4c4b" d="M303.98 236.03l2.24-.73c-.33 2.66.5 5.15 2.34 7.09l.54 3.69-2.08 8.6-.81 5.25-3.52-.63c1.72-5.06.99-10.43-1.05-15.27-.01-1.02.03-2.03.06-3.04.6-1.72 1.32-3.4 2.28-4.96z"/><path fill="#241d1c" opacity=".72" d="M306.22 235.3l.94-.3 1.4 7.39c-1.84-1.94-2.67-4.43-2.34-7.09z"/><path fill="#414140" d="M208.86 250.14c-.84-3.22-1.18-6.99.34-10.05-.04 3.06-.19 6.19.54 9.2 1.05 2.09 3.56 1.16 5.32.81 3.11-.54 3.88-4.26 6.48-5.6 1.13-.6 2.35-.97 3.56-1.36-1.61 3.88-3.96 7.55-7.22 10.26-.97-.14-1.92-.29-2.88-.46-2.05-.9-4.37-1.39-6.14-2.8z"/><path fill="#747474" d="M232.36 241.44c2.33-.64 4.77-1.21 7.2-.93 1.26.88 2.23 2.1 3.19 3.28l-6.56 3.8c-1.85 1.27-3.82 2.61-4.79 4.72-2.89 6.06-4.46 12.93-3.53 19.64.45 3.56 3.98 5.33 6.2 7.75-1.65-.82-3.28-.22-4.37 1.18 2.35 1.44 4.95 2.7 6.5 5.1l-3.19.24-1.91-1.34c-2.43-3.51-6.4-5.37-9.26-8.42l-.14-2.09c2.21 1.48 4.27 3.3 6.84 4.15-.37-2.33-1.52-4.4-2.83-6.32-1.32-2.12-3.04-4.22-3.1-6.82-.18-2.93-.15-5.87 0-8.79.16-3.16 1.93-5.9 3.36-8.62 1.56-2.6 3.22-5.71 6.39-6.53z"/><path fill="#929088" d="M265.39 240.21c3.16-.86 6.5-.17 9.42 1.18.95 3-2.27 5.44-2.1 8.45 1.1 1.75 2.74 3.07 4.41 4.27 3-2.45 2.67-6.98 4.87-10.04l1.49.84-2.7 8.85c-1.22 3.81-3.73 7.09-4.55 11.04 1.36-.09 2.86.06 4.08-.69 1.85-2.16 2.78-4.91 3.85-7.49.86 1.6 2.49 3.21 1.85 5.19-.88 3.84-2.51 7.47-4.21 11.01-1.94 4.21-5.59 7.68-9.94 9.27-4.28.26-8.37-1.42-12.5-2.29-3.28-.68-6.12-2.5-9.24-3.63-1.47.55-2.9 1.17-4.3 1.87-1.42-.98-2.11-2.56-2.73-4.1l-1.14-4.82c.99-1.3 1.97-2.6 3.04-3.83l.64-.49c.55 1.73 1.15 3.44 1.78 5.15-.77 1.23-1.21 2.59-.1 3.79 1.84.64 3.36-.81 4.81-1.71 2.41-1.69 4.78-3.44 7.32-4.95 2.72-.23 5.37-1.04 7.91-2.01 2.9-1.73 3.66-6.1 7.53-6.32-1.43-2.1-3.16-4.19-5.67-4.96-.74.71-1.44 1.44-2.13 2.21-.2-2.18.28-4.87-1.89-6.21-.79-1.21-1.59-2.45-2.02-3.83.2-2.08 1.19-3.97 2.22-5.75z"/><path fill="#313133" d="M284.35 240.22c2.89.77 5.47 2.31 8.04 3.8l-2.61.74-2.53.65-.56 1.67-2.53-2.54.19-4.32z"/><path fill="#727474" d="M254.33 245.33c2-1.55 4.32-.02 6.53-.04.08 2.53 2.3 3.62 4.33 4.5 2.17 1.34 1.69 4.03 1.89 6.21-2.07 4.01-5.16 7.34-7.64 11.08-2.54 1.51-4.91 3.26-7.32 4.95-.02-1.38-.01-2.75.04-4.12.6-2.67-1.67-4.69-2.32-7.12.74-1.08 1.49-2.17 2.31-3.2 1.54.14 3.09.24 4.64.33.43-1.87-1.84-3.3-2.53-4.98 1.65-.38 3.26.19 4.84.66.77-.97 1.15-2.13 1.08-3.37-1.89-1.08-4.14-1.4-5.92-2.66l.07-2.24z"/><path fill="#989d8b" d="M299.52 244.61l2.12-.58c2.04 4.84 2.77 10.21 1.05 15.27l-2.53-.34c.53-1.68.74-3.45.04-5.11-.75-1.77-.16-3.62.12-5.41l-1.04-1.72.24-2.11z"/><path fill="#6e7481" d="M283.48 244.91l.68-.37 2.53 2.54c-.67 3.22-1.67 6.36-2.53 9.54-1.07 2.58-2 5.33-3.85 7.49-1.22.75-2.72.6-4.08.69.82-3.95 3.33-7.23 4.55-11.04.96-2.93 1.78-5.9 2.7-8.85z"/><path fill="#797871" d="M287.25 245.41l2.53-.65 6.2 3.35-.3.81c-2 4.44-2.53 9.31-3.7 13.99-2.32 5.53-4.91 10.94-8.12 16.02-1.32 1.58.11 3.35.89 4.78l-2.99-1.1c-2.6 1.05-4.85 2.93-7.65 3.46-2.91.58-5.87.77-8.82 1.07a91.01 91.01 0 0 0-6.18.61l-2.67-1c-1.68-.79-3.44.09-5.12.38-2.4.75-4.9.18-7.3-.17l1.18-1.86 3.45-.46a17.86 17.86 0 0 0 1.42-2.66c-1.28-1.46-2.76-2.71-4.25-3.94 1.4-.7 2.83-1.32 4.3-1.87 3.12 1.13 5.96 2.95 9.24 3.63 4.13.87 8.22 2.55 12.5 2.29 4.35-1.59 8-5.06 9.94-9.27 1.7-3.54 3.33-7.17 4.21-11.01.64-1.98-.99-3.59-1.85-5.19.86-3.18 1.86-6.32 2.53-9.54l.56-1.67z"/><path fill="#c2ccad" d="M299.28 246.72l1.04 1.72c-.28 1.79-.87 3.64-.12 5.41.7 1.66.49 3.43-.04 5.11l-2.58-.39c-1.79-2.88-1.97-6.36-1.9-9.65l.3-.81 3.3-1.39z"/><path fill="#5d5b58" d="M329.25 246.87c.09 2.98 2.24 4.79 4.62 6.17l-1.89 2.67c-1.62 2.37-1.97 5.26-2.57 8-.44 2.25-1.11 4.5-.93 6.82 1.71.67 3.6.7 5.06-.6.19 2.2.34 4.42.9 6.57.9 1.19 2.27 1.9 3.45 2.78-.68 1.48-1.46 3.06-3.09 3.68-2.48-2.75-1.95-6.5-2.02-9.9-1.45.06-2.89.23-4.31.5-1.34 2.55.11 5.37.51 7.99-1.25-.4-2.51-.77-3.77-1.1l-2.81 3.07c-1.4.11-2.8-.02-4.19-.17-2.97-4.18-4.23-9.73-8.76-12.64l-.92-1.19c2.06.62 4.12 1.4 6.29 1.51 1.47-.19 1.76-2.07 2.18-3.22-.36-1.96-.95-3.87-1.19-5.85 2.18.31 4.59 1.35 6.56-.16l1.73-.53c1.69-.7 4.48-.31 5.04-2.53.51-3.93.2-7.92.11-11.87m-4.98 18.43v.46h.46v-.46h-.46m-5.99 10.96l.01.46h.45v-.46h-.46z"/><path fill="#524d48" d="M231.4 252.31c.97-2.11 2.94-3.45 4.79-4.72-.52 1.99-1.39 3.87-2.2 5.76-1.85 3.72-.86 7.96-.1 11.82.43 2.28 1.28 4.52 3 6.16l1.11-2.15c1.83 1.44 3.61 2.95 5.09 4.76.62 1.54 1.31 3.12 2.73 4.1 1.49 1.23 2.97 2.48 4.25 3.94a17.86 17.86 0 0 1-1.42 2.66l-3.45.46c-2.02-.35-4.04-.69-5.97-1.33-2.18-.68-3.53-2.62-5.16-4.07-2.22-2.42-5.75-4.19-6.2-7.75-.93-6.71.64-13.58 3.53-19.64z"/><path fill="#83817c" d="M243.49 250.83c2.36-1.32 4.82-2.69 7.61-2.72-.82 3.81-2.3 7.45-4.19 10.85-.96 1.98-2.53 3.99-1.92 6.33-1.07 1.23-2.05 2.53-3.04 3.83-.33-.97-.69-1.94-1.08-2.88 1.49-2.17 2.89-4.44 3.59-7-1.2.5-2.39 1.02-3.54 1.6 1.64-3.09 2.97-6.44 2.57-10.01z"/><path fill="#64625f" d="M291.98 262.91c1.17-4.68 1.7-9.55 3.7-13.99-.07 3.29.11 6.77 1.9 9.65l2.58.39 2.53.34 3.52.63.81-5.25 2.03.25.4.87c.35 2.93-1.55 5.03-3.56 6.83-1.57 3.19-1.21 6.96-2.6 10.26 1.54-.35 3.09-.72 4.6-1.22-1.23 1.16-1.91 2.67-2.25 4.3-2.07-.67-4.06-1.51-6.12-2.16-1.37.02-1.98 1.6-2.2 2.75.4.34 1.18 1.04 1.58 1.39l-2.71.37c-.66 2.87 1.46 5.39 3.08 7.54 2.4.21 4.81.11 7.22.03l-1 1.57c-3.89 1.67-9.81.9-11.66 5.59 2.06 2.42 5.56 3.17 7.27 5.95l-1.56 1.33c-2.14.07-4.27-.18-6.38-.44l.51-2.05c-2.22 1.11-4.34 2.41-6.66 3.3l-1.1-.93c1.14-1.74 2.33-3.45 3.38-5.24-1.75-2.04-4.05-3.47-6.4-4.69 5.13-.18 8.17-4.75 10.99-8.41.88-.91.79-2.16.19-3.18 1.41-3.13 3.37-6.01 4.22-9.36-1.74 1.25-3.46 2.54-5.29 3.68.03-2.16.18-4.32.32-6.47l.71-.01c1.17 0 2.34.05 3.5.19.94 1.3 1.59 2.97 3.23 3.54.11-2.28.05-4.56-.22-6.82-2.24-1.77-5.2-1.19-7.76-.7l-.8.17z"/><path fill="#73706f" d="M333.87 253.04c1.85 1.34 2.46 3.64 3.43 5.6-.17 3.17-.55 6.47.42 9.57.66.87 1.61 1.48 2.38 2.26-.89 2.89-1.93 5.77-2.21 8.81-1.18-.88-2.55-1.59-3.45-2.78-.56-2.15-.71-4.37-.9-6.57-.34-4.76.12-9.66-1.56-14.22a51.19 51.19 0 0 1 1.89-2.67z"/><path fill="#7c746b" d="M233.89 265.17c-.76-3.86-1.75-8.1.1-11.82 2.97 2.44 1.1 6.77 2.46 10.01.4 1.96.95 3.9 1.55 5.82l-1.11 2.15c-1.72-1.64-2.57-3.88-3-6.16z"/><path fill="#a3a096" d="M267.08 256l2.13-2.21c2.51.77 4.24 2.86 5.67 4.96-3.87.22-4.63 4.59-7.53 6.32-2.54.97-5.19 1.78-7.91 2.01 2.48-3.74 5.57-7.07 7.64-11.08z"/><path fill="#3a3a39" d="M309.05 254.93c1.25.28 2.16 1.17 2.96 2.14l1.14 3.97c.36 2.46.74 5.71-1.97 7.01-2.59-3.59.29-8.44-1.73-12.25l-.4-.87z"/><path fill="#4f4f4c" d="M309.45 255.8c2.02 3.81-.86 8.66 1.73 12.25 2.71-1.3 2.33-4.55 1.97-7.01.89.29 1.78.6 2.66.92.24 1.98.83 3.89 1.19 5.85-.42 1.15-.71 3.03-2.18 3.22-2.17-.11-4.23-.89-6.29-1.51-1.46-2.04-2.02-4.51-2.64-6.89 2.01-1.8 3.91-3.9 3.56-6.83z"/><path fill="#454646" d="M329.41 263.71c.6-2.74.95-5.63 2.57-8 1.68 4.56 1.22 9.46 1.56 14.22-1.46 1.3-3.35 1.27-5.06.6-.18-2.32.49-4.57.93-6.82z"/><path fill="#5a5855" d="M240.92 260.84l3.54-1.6c-.7 2.56-2.1 4.83-3.59 7l-1.9-3.3 1.95-2.1z"/><path fill="#464646" d="M337.3 258.64c3.2 2.83 3.53 7.34 3.52 11.33.08 3.35-1.49 6.39-2.93 9.31.28-3.04 1.32-5.92 2.21-8.81-.77-.78-1.72-1.39-2.38-2.26-.97-3.1-.59-6.4-.42-9.57z"/><path fill="#a5a8a5" d="M245.63 264.8c1.56-1.16 3.01-2.48 4.21-4.01.65 2.43 2.92 4.45 2.32 7.12l-4.75 2.04-1.78-5.15z"/><path fill="#815b46" d="M236.45 263.36l1.4-1.38 1.12.96 1.9 3.3 1.08 2.88 1.14 4.82c-1.48-1.81-3.26-3.32-5.09-4.76l-1.55-5.82z"/><path fill="#7e7975" d="M292.78 262.74c2.56-.49 5.52-1.07 7.76.7.27 2.26.33 4.54.22 6.82-1.64-.57-2.29-2.24-3.23-3.54-1.16-.14-2.33-.19-3.5-.19l-1.25-3.79z"/><path fill="#4d4d4c" d="M291.98 262.91l.8-.17 1.25 3.79-.71.01-1.35.03c-2.01 2.11-1.98 5.26-1.03 7.85-1.25.79-1.76 2.14-2.21 3.48-.81 2.04-1.46 4.24-2.9 5.95-3.51 2.95-8.35 2.65-12.59 3.46l-.67.73c2.16 1.94 5.31 1.02 7.87.63 5.95-.84 9.83-5.84 13.63-9.98.6 1.02.69 2.27-.19 3.18-2.82 3.66-5.86 8.23-10.99 8.41-2.73-.1-5.45-.08-8.17.02l-3.51-.56-.9-.14c-1.64-.61-3.09.42-4.4 1.26-1.75.96-3.64 1.69-5.64 1.92l-.16-3.34 2.25.64.32.12.1-.12c.86-.96 1.7-1.94 2.51-2.94 2.95-.3 5.91-.49 8.82-1.07 2.8-.53 5.05-2.41 7.65-3.46l2.99 1.1c-.78-1.43-2.21-3.2-.89-4.78 3.21-5.08 5.8-10.49 8.12-16.02z"/><path fill="#78777b" d="M303.29 272.89c1.39-3.3 1.03-7.07 2.6-10.26.62 2.38 1.18 4.85 2.64 6.89l.92 1.19-1.56.96c-1.51.5-3.06.87-4.6 1.22z"/><path fill="#fff" d="M324.27 265.3h.46v.46h-.46v-.46z"/><path fill="#313334" d="M291.97 266.57l1.35-.03-.32 6.47c1.83-1.14 3.55-2.43 5.29-3.68-.85 3.35-2.81 6.23-4.22 9.36-3.8 4.14-7.68 9.14-13.63 9.98-2.56.39-5.71 1.31-7.87-.63l.67-.73c4.24-.81 9.08-.51 12.59-3.46 1.44-1.71 2.09-3.91 2.9-5.95l3.24-1.09-1.03-2.39c-.95-2.59-.98-5.74 1.03-7.85z"/><path fill="#5d5f5e" d="M247.41 269.95l4.75-2.04-.04 4.12c-1.45.9-2.97 2.35-4.81 1.71-1.11-1.2-.67-2.56.1-3.79z"/><path fill="#393a38" d="M222.1 271.3l3.61.9c1.31 1.92 2.46 3.99 2.83 6.32-2.57-.85-4.63-2.67-6.84-4.15l.4-3.07z"/><path fill="#d09b7b" d="M309.45 270.71c4.53 2.91 5.79 8.46 8.76 12.64.14 2.43-1.35 4.3-3.12 5.76l-2.52.95c-.97-2.56-1.57-5.23-1.99-7.92-.2-2.91-2.89-4.55-4.94-6.17.34-1.63 1.02-3.14 2.25-4.3l1.56-.96z"/><path fill="#3d3c3b" d="M297.32 276.56c.22-1.15.83-2.73 2.2-2.75l6.12 2.16c2.05 1.62 4.74 3.26 4.94 6.17.42 2.69 1.02 5.36 1.99 7.92-.76 1.51-1.2 3.13-1.5 4.79l-2.07-1.04-2.38 3.93c-1.45-.12-2.87-.41-4.25-.84.33-1.87.77-3.76 1.78-5.4l2.88-.36c.36-1.78.08-3.58-.54-5.25-1.38-3.57-3.84-6.74-7.59-7.94l-1.58-1.39z"/><path fill="#4a4b4a" d="M328.47 273.56c1.42-.27 2.86-.44 4.31-.5.07 3.4-.46 7.15 2.02 9.9-2.5-.11-5.15-.73-7.54.3-2.19.98-3.9 2.74-5.99 3.88-1.98.9-4.13 1.29-6.18 1.97 1.77-1.46 3.26-3.33 3.12-5.76 1.39.15 2.79.28 4.19.17.92-1.04 1.87-2.06 2.81-3.07 1.26.33 2.52.7 3.77 1.1-.4-2.62-1.85-5.44-.51-7.99z"/><path fill="#7f7e84" d="M288.73 277.9c.45-1.34.96-2.69 2.21-3.48l1.03 2.39-3.24 1.09z"/><path fill="#999799" d="M318.28 276.26h.46v.46h-.45l-.01-.46z"/><path fill="#d49e7e" d="M296.19 278.32l2.71-.37c3.75 1.2 6.21 4.37 7.59 7.94-2.41.08-4.82.18-7.22-.03-1.62-2.15-3.74-4.67-3.08-7.54z"/><path fill="#868586" d="M229.7 280.88c1.09-1.4 2.72-2 4.37-1.18 1.63 1.45 2.98 3.39 5.16 4.07 1.93.64 3.95.98 5.97 1.33l-1.18 1.86-7.82-.98c-1.55-2.4-4.15-3.66-6.5-5.1z"/><path fill="#474846" d="M224.27 282.36c2.47.15 4.65 1.48 6.83 2.52l1.91 1.34 7.24 3.69c-5.95 2.56-12.06-.69-16.94-4.02.25-1.19.58-2.37.96-3.53z"/><path fill="#575858" d="M306.49 285.89c.62 1.67.9 3.47.54 5.25l-2.88.36c-1.01 1.64-1.45 3.53-1.78 5.4 1.38.43 2.8.72 4.25.84l2.38-3.93 2.07 1.04-1.9 9.14c-.02 1.33-1.02 2.2-1.9 3.05l-.73-2.71c-1.16-.04-2.32.21-3.14 1.08-4.29 3.5-8.61 7.2-13.94 9.01-2.09.48-2.58 2.78-3.55 4.39-1.21 1.88-3.06 3.16-4.89 4.38-3.35 2.19-5.94 5.67-6.13 9.79l-1.13 2.14c-1.85.3-3.71.61-5.58.66l2.19-6.89 1.76.61c.4 1.2.78 2.42 1.14 3.64 1.19-2.99 1.46-6.25 2.64-9.24 1.75-4.06 6.05-6.13 8.21-9.91 1.62-2.97 2.35-6.29 3.58-9.41.92-2.38 3.48-3.38 5.46-4.69 2.11.26 4.24.51 6.38.44l1.56-1.33c-1.71-2.78-5.21-3.53-7.27-5.95 1.85-4.69 7.77-3.92 11.66-5.59l1-1.57z"/><path fill="#60615f" d="M219.12 287.14c2.56 1.73 4.69 4.29 7.77 5.14 2.37.78 4.86.07 7.26-.17 4.3-.65 8.65-.12 12.98-.01-2.47 1.07-5.09 2.6-7.87 1.98-3.75-.76-8.21-1.27-11.53.88 2.85 1.84 6.27 3.33 9.72 2.64 4.43-.83 9.09-1.58 12.83-4.3 2.82-2.08 6.64-2.62 8.83-5.55a91.01 91.01 0 0 1 6.18-.61c-.81 1-1.65 1.98-2.51 2.94h-.42l-2.25-.64a94.42 94.42 0 0 0 .16 3.34c2-.23 3.89-.96 5.64-1.92-1.68 2.6-3.58 5.08-6.03 7-2.6 2.03-4.78 4.58-7.55 6.39-4.1 1.36-8.5 1.69-12.47 3.47-.73.49-1.25 1.22-1.82 1.88l-3.21-1.06c.54 2.27 3.09 3.33 3.27 5.76a22.81 22.81 0 0 0 4.17-.91l.4-2.75c5.86-.71 11.38-3.37 15.95-7.05 4.81-3.85 7.7-9.4 11.69-13.99l.9.14c-1.92 5.7-6.21 10-9.14 15.11 3.73 2.58 8.72 2.78 12.9 1.26-2.47 2.24-4.22 5.11-6.43 7.58-3.93 2.03-8.09-1.77-12.05-.43-.98 1.19-1.76 2.52-2.55 3.84l-.71-1.28c.4-1.56 1.11-3.26.19-4.78-2.54 1.6-5.19 3.02-7.77 4.55-.55 2.67-1.05 5.35-2.01 7.91-1.69-.55-2.18-2.2-2.67-3.71l-2.72-.57c-1.08-2.22-1.78-4.87-4.42-5.65.08-1.9.4-3.82-.13-5.67l-.65-2.16c1.36-.91 2.69-1.85 4-2.84-.76-2.47-3.45-2.75-5.56-3.39-4.68-1.05-7.84-4.94-11.78-7.35-.2-.33-.58-1.01-.77-1.35.03-1.23.08-2.45.18-3.67z"/><path fill="#85817a" d="M247.13 292.1c3.27-1.47 6.31-3.4 9.31-5.35l2.67 1c-2.19 2.93-6.01 3.47-8.83 5.55-3.74 2.72-8.4 3.47-12.83 4.3-3.45.69-6.87-.8-9.72-2.64 3.32-2.15 7.78-1.64 11.53-.88 2.78.62 5.4-.91 7.87-1.98z"/><path fill="#8e8a83" d="M265.91 290.86c1.31-.84 2.76-1.87 4.4-1.26-3.99 4.59-6.88 10.14-11.69 13.99-4.57 3.68-10.09 6.34-15.95 7.05l-.4 2.75a22.81 22.81 0 0 1-4.17.91c-.18-2.43-2.73-3.49-3.27-5.76l3.21 1.06c.57-.66 1.09-1.39 1.82-1.88 3.97-1.78 8.37-2.11 12.47-3.47 2.77-1.81 4.95-4.36 7.55-6.39 2.45-1.92 4.35-4.4 6.03-7z"/><path fill="#8b8b90" d="M262.36 290.08h.42l-.1.12-.32-.12z"/><path fill="#83847c" d="M271.21 289.74l3.51.56c2.17 1.12 4.6 1.15 6.98 1.11-.13 3.21-.84 6.36-1.63 9.47l-5.1 5.23c-4.18 1.52-9.17 1.32-12.9-1.26 2.93-5.11 7.22-9.41 9.14-15.11z"/><path fill="#777774" d="M274.72 290.3l8.17-.02c2.35 1.22 4.65 2.65 6.4 4.69l-3.38 5.24 1.1.93c2.32-.89 4.44-2.19 6.66-3.3l-.51 2.05c-1.98 1.31-4.54 2.31-5.46 4.69-1.23 3.12-1.96 6.44-3.58 9.41-.98-.9-2-1.75-3.11-2.47-1.61.54-3.24 1.1-4.92 1.39-.86-2.69 2.1-4.18 3.5-6l1.32 3.43c1.23-2.61 2.17-5.35 2.69-8.18l-2.23-.42-1.3-.86c.79-3.11 1.5-6.26 1.63-9.47-2.38.04-4.81.01-6.98-1.11z"/><path fill="#525351" d="M219.71 292.16c3.94 2.41 7.1 6.3 11.78 7.35 2.11.64 4.8.92 5.56 3.39-1.31.99-2.64 1.93-4 2.84-3.24-2.74-6.65-5.27-10.08-7.76-1.95-1.32-2.29-3.84-3.26-5.82z"/><path fill="#464747" d="M274.97 306.11l5.1-5.23 1.3.86-.33.87c-2.72 4.62-7.81 7.46-9.79 12.53-.86 2.04-1.71 4.11-2.99 5.93.36-2.05.55-4.12.63-6.2l-2.66.25c-.66 1.8-1.14 3.66-1.69 5.5-2.54 1.7-.48 4.9-.69 7.32.15 1.99-1.9 2.88-3.52 3.23-2.56.54-4.6 2.22-6.77 3.57l-.52-1.83 1.42-1.4c1.76.4 3.4-.83 3.48-2.64l.79-2.87c-3.31-.01-6.71 1.26-9.94.35l-.94-1.32c2.36-.92 4.81-1.54 7.25-2.17l-3.48-1.15c.72-1.56 1.51-3.09 2.32-4.61.79-1.32 1.57-2.65 2.55-3.84 3.96-1.34 8.12 2.46 12.05.43 2.21-2.47 3.96-5.34 6.43-7.58z"/><path fill="#868687" d="M281.37 301.74l2.23.42c-.52 2.83-1.46 5.57-2.69 8.18l-1.32-3.43 1.45-4.3.33-.87z"/><path fill="#676768" d="M271.25 315.14c1.98-5.07 7.07-7.91 9.79-12.53-.51 1.42-.94 2.87-1.45 4.3-1.4 1.82-4.36 3.31-3.5 6 1.68-.29 3.31-.85 4.92-1.39 1.11.72 2.13 1.57 3.11 2.47-2.16 3.78-6.46 5.85-8.21 9.91-1.18 2.99-1.45 6.25-2.64 9.24-.36-1.22-.74-2.44-1.14-3.64l-1.76-.61c.65-1.83.36-3.78.6-5.67.73-2.76 2.03-5.33 2.71-8.11l-2.43.03z"/><path fill="#3a3b3b" d="M303.4 305.41c.82-.87 1.98-1.12 3.14-1.08l.73 2.71c-5.01 4.77-10.82 8.59-15.96 13.21-1.08-.73-2.17-1.43-3.29-2.09l-2.11.65c.97-1.61 1.46-3.91 3.55-4.39 5.33-1.81 9.65-5.51 13.94-9.01z"/><path fill="#76766f" d="M232.97 309.19l.73-1.29c.53 1.85.21 3.77.13 5.67 2.64.78 3.34 3.43 4.42 5.65l2.72.57c.49 1.51.98 3.16 2.67 3.71l3.23 1.47c1.45-3.48 3.42-6.73 6.36-9.15l.71 1.28c-.81 1.52-1.6 3.05-2.32 4.61l3.48 1.15c-2.44.63-4.89 1.25-7.25 2.17l.94 1.32c3.23.91 6.63-.36 9.94-.35l-.79 2.87c-1.8-.42-3.3.88-3.48 2.64l-1.42 1.4.52 1.83a29.45 29.45 0 0 0-2.11 1.56l-.17 1.18-1.46-.78c-1.23.96-2.53 1.89-4.12 2.09-3.19-.23-6.52.44-9.58-.7 1.76-.07 3.52-.18 5.25-.54l1.63-3.35c1.3.33 2.62.57 3.95.82 1.9-1.87 3.3-4.19 4.21-6.69-2.74.06-5.6.83-8.23-.22-2.51-.99-5.05-2.14-7.06-3.97-1.36-1.98-2.29-4.24-3.78-6.13.39 3.03 1.08 6.2 3.01 8.65 2.1 1.62 5.42 1.91 6.29 4.79-1.88-.05-3.85-.67-5.63.2-1.18 1.24-1.66 2.91-2.28 4.46-1.6-1.26-3.5-2.25-4.69-3.93-1.88-3.23-2.98-7.9.24-10.7 1.41 2.62 2.53 5.49 4.81 7.51-1.33-3.33-4.52-6.56-3.27-10.38l2.4-9.42z"/><path fill="#4c4e4d" d="M228.49 319.41c1.63-3.35 2.49-7.04 4.48-10.22l-2.4 9.42c-1.25 3.82 1.94 7.05 3.27 10.38-2.28-2.02-3.4-4.89-4.81-7.51-3.22 2.8-2.12 7.47-.24 10.7 1.19 1.68 3.09 2.67 4.69 3.93l2.64 1.98c3.06 1.14 6.39.47 9.58.7-.87 2.37-1.43 4.9-2.73 7.09-1.44 1.68-3.91 1.06-5.84.99-3.59-.18-6.35-2.61-9.28-4.37-1.04.66-2.02 1.41-2.96 2.2 1.25-4.18-.44-8.37-.49-12.56.38-4.49 2.17-8.7 4.09-12.73z"/><path fill="#52524f" d="M245.65 315.59l7.77-4.55c.92 1.52.21 3.22-.19 4.78-2.94 2.42-4.91 5.67-6.36 9.15-1.1-.45-2.18-.93-3.23-1.47.96-2.56 1.46-5.24 2.01-7.91z"/><path fill="#312f2f" d="M266.23 315.12l2.66-.25c-.08 2.08-.27 4.15-.63 6.2-.8 1.06-1.72 2.03-2.58 3.03l-1.14-3.48 1.69-5.5z"/><path fill="#848588" d="M271.25 315.14l2.43-.03c-.68 2.78-1.98 5.35-2.71 8.11-.24 1.89.05 3.84-.6 5.67l-2.19 6.89-6.31-1.25c2.55-.72 5.93-1.13 6.14-4.44l-2.99-2.5a34.08 34.08 0 0 1 .66-3.49l2.58-3.03c1.28-1.82 2.13-3.89 2.99-5.93z"/><path fill="#5f5c59" d="M232.09 318.01c1.49 1.89 2.42 4.15 3.78 6.13 2.01 1.83 4.55 2.98 7.06 3.97 2.63 1.05 5.49.28 8.23.22-.91 2.5-2.31 4.82-4.21 6.69l-3.95-.82-7.24-2.55c1.78-.87 3.75-.25 5.63-.2-.87-2.88-4.19-3.17-6.29-4.79-1.93-2.45-2.62-5.62-3.01-8.65z"/><path fill="#272726" d="M285.91 318.81l2.11-.65 3.29 2.09c-3.51 3.22-7.09 6.38-11.05 9.05.07-2.06.29-4.11.76-6.11 1.83-1.22 3.68-2.5 4.89-4.38z"/><path fill="#68696a" d="M263.85 327.94c.21-2.42-1.85-5.62.69-7.32l1.14 3.48a34.08 34.08 0 0 0-.66 3.49l2.99 2.5c-.21 3.31-3.59 3.72-6.14 4.44-1.02.59-1.94 1.32-2.88 2.02l-2.05.35 3.39-5.73c1.62-.35 3.67-1.24 3.52-3.23z"/><path fill="#444" d="M274.89 332.98c.19-4.12 2.78-7.6 6.13-9.79-.47 2-.69 4.05-.76 6.11-1.38 1.75-3.28 2.93-5.37 3.68z"/><path fill="#959397" d="M254.46 331.51c.18-1.76 1.68-3.06 3.48-2.64-.08 1.81-1.72 3.04-3.48 2.64z"/><path fill="#898583" d="M253.56 334.74c2.17-1.35 4.21-3.03 6.77-3.57l-3.39 5.73-1.28 2.02-2.05 4.12-3.67 1.27c-.5-2.43 1.32-4.44 1.34-6.83l.17-1.18 2.11-1.56z"/><path fill="#86877f" d="M233.48 336.11c.62-1.55 1.1-3.22 2.28-4.46l7.24 2.55-1.63 3.35c-1.73.36-3.49.47-5.25.54l-2.64-1.98z"/><path opacity=".1" d="M258.99 336.55l2.88-2.02 6.31 1.25c1.87-.05 3.73-.36 5.58-.66-.19 1.19-.27 2.39-.34 3.59 7.79 2.68 15.74 4.93 23.9 6.19 3.66 1.19 7.24-.71 10.91-.74 3.13-.13 6.26-.41 9.39-.66 4.16-.47 7.89 2.73 12.08 1.78 3.81-.92 7.78-.99 11.55-2.12 2.32-.86 4.59.68 6.21 2.22l-.01 3.42c1.13-.56 2.3-1.07 3.32-1.83.87-1.25.82-3.03 2.09-4.01 2.07 1.52 3.76 3.8 6.31 4.54 2.3.05 4.03-1.82 6.01-2.73l2.9 1.48c1.32-.67 2.62-1.37 3.92-2.07 2.05.83 3.89 2.15 6.05 2.71 1.26-.14 2.47-.56 3.68-.93l-2.35-3.07a19.03 19.03 0 0 1 2.58-.63c3 1.08 5.48 3.23 8.43 4.44 1.94 1.02 4.1.05 6.14.07 1.43.43 2.34 1.76 3.42 2.71-1.13.1-2.28.11-3.38.38-1.72 1.27-2.66 3.28-4.1 4.82-3.6.69-6.76-1.64-9.71-3.32-2.5.32-.25 4.09-2.29 4.93-1.16-.19-2.28-.52-3.41-.79l1.47 4.7c-1.97-.72-3.91-2.52-6.11-1.89-2.08.44-2.06 2.95-3.17 4.4l-.58-3.37c-1.89 1.61-3.34 4.08-6.01 4.41-1.99.58-3.41-1.36-5.02-2.16-2.02.62-3.81 1.79-5.8 2.48-2.45.68-4.22-1.46-6.07-2.64l.4 3.59c-3.89-.51-8.51 1.05-11.55-2.11l-3.56 1.75-3.95-1.2-3.1 2.33-2.29-1.77c-6.92 1.38-13.95 2.17-21 2.36-3.72-.05-7.47-.53-11.16.16-5.51 1.08-11.13.63-16.68 1.13-4.11-.11-8.06-1.53-12.14-1.94 2.09-2.21 5.43-1.68 8.18-2.13 3.62 1.26 6.66-1.38 9.69-2.92 4.01-1.82 5.31-6.42 7.18-10.04 1.07-2.12-1.3-3.7-2.8-4.7-3.38-1.97-7.17-4.85-11.28-3.3-4.49-1.39-9.22-1.89-13.61-3.59l.89-2.5z"/><path fill="#5e5d59" d="M245.7 338.79c1.59-.2 2.89-1.13 4.12-2.09l1.46.78c-.02 2.39-1.84 4.4-1.34 6.83-.76 1.42-1.5 2.89-2.6 4.09-3.34 1.29-6.91 1.98-10.46 2.46-2.76.33-5.65-1.46-8.25-.07 2.44 2.44 6.11 2.63 9.37 2.79 3.13.13 5.84-1.7 8.83-2.31l-.68 3.81c-1.63-.46-3.3-.2-4.92.16-4.09 0-8.2-.07-12.25.6-1.74-1.14-3.54-2.42-4.47-4.33-.72-2.25-.04-4.59.38-6.81.94-.79 1.92-1.54 2.96-2.2 2.93 1.76 5.69 4.19 9.28 4.37 1.93.07 4.4.69 5.84-.99 1.3-2.19 1.86-4.72 2.73-7.09z"/><path fill="#262627" d="M256.94 336.9l2.05-.35-.89 2.5c4.39 1.7 9.12 2.2 13.61 3.59l3.32 3.29c-4.86-1.71-10.22-1.44-14.93-3.63l-2.06-1.62-2.38-1.76 1.28-2.02z"/><path fill="#363738" d="M253.61 343.04l2.05-4.12 2.38 1.76c-2.02 1.59.74 3.44 2.06 1.62 4.71 2.19 10.07 1.92 14.93 3.63 2.76 1.83 3.02 5.13 2.8 8.16-.32-1.4-.73-2.77-1.17-4.12l-.2-.71-3.45-.52-8.78-1.04c-3.57-1.46-8.37-1.02-10.62-4.66z"/><path fill="#64615e" d="M260.1 342.3c-1.32 1.82-4.08-.03-2.06-1.62l2.06 1.62z"/><path opacity=".16" d="M271.71 342.64c4.11-1.55 7.9 1.33 11.28 3.3 1.5 1 3.87 2.58 2.8 4.7-1.87 3.62-3.17 8.22-7.18 10.04-3.03 1.54-6.07 4.18-9.69 2.92 2.12-1.39 4.29-2.76 6.09-4.57 1.24-1.43 2.67-2.95 2.82-4.94.22-3.03-.04-6.33-2.8-8.16l-3.32-3.29z"/><path fill="#4f4e4d" d="M249.94 344.31l3.67-1.27c2.25 3.64 7.05 3.2 10.62 4.66l-1.86 1.38c.41 1.66 2.57 3.54.9 5.06-1.63-1.2-3.1-2.71-5.07-3.31.14 2.5-.02 5.12.81 7.52 3.98 4.55 11.42.88 13.45-3.85.17-1.92.17-3.86.55-5.76 1.15.15 2.3.33 3.45.52l.2.71c-.79 2.97-1.31 6-1.65 9.06-1.8 1.81-3.97 3.18-6.09 4.57-2.75.45-6.09-.08-8.18 2.13l-4.77-.54c-.23-2.33-2.8-2.19-4.12-.85-6.09-.94-11.35-4.96-17.67-4.62-1.61-1.46-3.39-2.7-5.2-3.88 4.05-.67 8.16-.6 12.25-.6-2.06.46-4.13.86-6.2 1.26 3.24 1.57 6.88 2.1 10.07 3.82 2.77 2.28 5.78-.76 6.99-3.24 1.5-3.69 2.14-7.77 1.88-11.74l-1.66-.21c-.46 4.19-.74 8.61-3.18 12.22l-2.98-2.27a126.8 126.8 0 0 0 .68-3.81c-2.99.61-5.7 2.44-8.83 2.31-3.26-.16-6.93-.35-9.37-2.79 2.6-1.39 5.49.4 8.25.07 3.55-.48 7.12-1.17 10.46-2.46 1.1-1.2 1.84-2.67 2.6-4.09z"/><path fill="#706d68" d="M252.31 345.13l1.66.21c.26 3.97-.38 8.05-1.88 11.74-1.21 2.48-4.22 5.52-6.99 3.24 1.51-.73 3.14-1.45 4.03-2.97 2.44-3.61 2.72-8.03 3.18-12.22z"/><path fill="#6a6867" d="M264.23 347.7l8.78 1.04c-.38 1.9-.38 3.84-.55 5.76-2.03 4.73-9.47 8.4-13.45 3.85-.83-2.4-.67-5.02-.81-7.52 1.97.6 3.44 2.11 5.07 3.31 1.67-1.52-.49-3.4-.9-5.06l1.86-1.38m1.34 2.36c-.04 2.06-.79 4.72 1.16 6.17 1.01 1.09 3.46.35 3.36-1.32.23-1.68-.62-3.24-1.52-4.58-1-.14-2-.23-3-.27z"/><path fill="#868589" d="M265.57 350.06l3 .27c.9 1.34 1.75 2.9 1.52 4.58.1 1.67-2.35 2.41-3.36 1.32-1.95-1.45-1.2-4.11-1.16-6.17z"/><path fill="#585554" opacity=".82" d="M275.01 359.03c.34-3.06.86-6.09 1.65-9.06l1.17 4.12c-.15 1.99-1.58 3.51-2.82 4.94z"/><path fill="#323433" d="M241.23 355.24c1.62-.36 3.29-.62 4.92-.16l2.98 2.27c-.89 1.52-2.52 2.24-4.03 2.97-3.19-1.72-6.83-2.25-10.07-3.82l6.2-1.26z"/><path fill="#73706c" opacity=".96" d="M251.85 364.34c1.32-1.34 3.89-1.48 4.12.85a7.45 7.45 0 0 1-4.12-.85z"/></svg>