<svg xmlns="http://www.w3.org/2000/svg" width="682.667" height="682.667" viewBox="0 0 512 512"  xmlns:v="https://vecta.io/nano"><path fill="#fbeec0" d="M280.45 32.8c.1-2.77.75-5.52 2.51-7.73a19.98 19.98 0 0 1 2.71 2.73l-5.22 5z"/><path d="M285.67 27.8c.93 5.17 1.29 10.43 2.17 15.61.67 3.52 1.94 6.89 2.56 10.42.62 3.28 1.65 6.51 3.34 9.4.95 1.23 1.98 2.39 2.95 3.6.85 1.24 1.64 2.51 2.58 3.69-3.6 1.98-6.73 4.69-10.31 6.72l-1.17.76a56.13 56.13 0 0 0-1.08 2.52l-2.43-1.51c-2.5-1.53-4.98-3.11-7.33-4.87-1.47-1.41-2.89-2.87-4.34-4.31 2.81-3.93 7.42-7.86 6.43-13.21-.18-1.53-.4-3.05-.52-4.58.62-3.04 1.24-6.1 1.32-9.21.12-3.35.3-6.7.61-10.03 1.69-1.72 3.41-3.4 5.22-5zm-7.62 105.36l.76.13.36.71-1.26.97.14-1.81zm10.27 8.12h.45v.45h-.45v-.45z" fill="#fff"/><path fill="#140d0a" opacity=".19" d="M276.68 48.62c.31-2.26 1.9-4 3.16-5.79-.08 3.11-.7 6.17-1.32 9.21-.69 1.51-1.52 2.96-2.34 4.4l.5-7.82z"/><path fill="#554130" opacity=".46" d="M278.52 52.04l.52 4.58-3.44 5.53c-.03-1.92.01-3.85.58-5.71l2.34-4.4z"/><path fill="#d9c49c" opacity=".87" d="M275.6 62.15l3.44-5.53c.99 5.35-3.62 9.28-6.43 13.21l4.34 4.31c-2.46-1.38-5.04-2.53-7.52-3.87l1.36-3.5 4.45-1.64.36-2.98z"/><path fill="#5d4633" opacity=".51" d="M293.74 63.23c2.51 1.13 5.18 2.01 7.39 3.69.23.74.4 1.5.51 2.28l-1.31.73c-.06-1.92-1.55-3.95-3.64-3.1l-2.95-3.6z"/><path fill="#312419" opacity=".32" d="M267.83 66.34c2.45-.54 4.92-.92 7.41-1.21l-4.45 1.64-1.36 3.5c-.66-1.25-1.14-2.59-1.6-3.93z"/><path fill="#d2ae83" opacity=".85" d="M296.69 66.83c2.09-.85 3.58 1.18 3.64 3.1l-1.06.59c-.94-1.18-1.73-2.45-2.58-3.69z"/><path fill="#a1a698" d="M287.79 78l1.17-.76.41 4.3 2.25 1.02.48.57-5.71.35c.35 1.43.87 2.84.92 4.32-.27 1.36-.92 2.62-1.09 4-.02 1.82.44 3.6.76 5.38l-4.36 2.85c-.23-3-.84-5.97-.79-8.99.11-3.19 1.03-6.27 1.78-9.35l.67-2.68 2.43 1.51 1.08-2.52z"/><path fill="#35373f" d="M275.65 83.01l7.96-1.32c-.75 3.08-1.67 6.16-1.78 9.35-.05 3.02.56 5.99.79 8.99-.18 6.44.79 12.81 1.17 19.23l-1.69-.57-.03-2.06a74.08 74.08 0 0 0 .09-1.53c-.04-3.78-.66-7.52-1.21-11.25l.09-.78c.71-5.1.32-10.27-.3-15.35l-.18-1.47c-1.34-.35-2.7-.65-4.04-.95l-.87-2.29z"/><path fill="#2f302d" opacity=".6" d="M291.62 82.56c2.18 1.02 4.58 1.71 6.48 3.25.95 2.92.63 6.06.81 9.09 3.47.71 6.93 1.63 10.11 3.26-2.32-.38-4.64-.81-6.94-1.28l-3.16 2.32-.86-4c.1-2.87-.1-5.76-.77-8.56l-1.52-.64-2.6-.99-1.07-1.88-.48-.57z"/><path opacity=".74" d="M274.37 83.67l.6-.32c-.23 2.93-.13 5.87-.08 8.8.14 6.63.51 13.26.39 19.9-.27 6.73 2.02 13.46.32 20.15-1.59-3.25-5.12-4.47-8.08-6.08l.26-2.45 3.74-3.32c1.78-4.92 1.24-10.24 1.58-15.36.21-7.12 1.38-14.18 1.27-21.32z"/><path fill="#7a808f" d="M274.97 83.35l.68-.34.87 2.29 4.04.95.18 1.47c-1.83 1.15-3.68 2.3-5.27 3.76l-.58.67.08-8.8z"/><path fill="#8a9080" d="M286.39 83.48l5.71-.35 1.07 1.88.01 1.71-2.49-.51-.51 9.45-2.48 1.14-.72.38c-.32-1.78-.78-3.56-.76-5.38.17-1.38.82-2.64 1.09-4-.05-1.48-.57-2.89-.92-4.32z"/><path fill="#72766c" d="M293.17 85.01l2.6.99-.39 3.73c-.19 1.15.2 2.06 1.19 2.72l-3.67 3.87.28-9.6-.01-1.71z"/><path fill="#a7ad9e" d="M290.69 86.21l2.49.51-.28 9.6c-.16 2.49.89 4.74 2.42 6.65-.8 1.88-1.7 3.71-2.82 5.42l-.24-2.41-.97-8.84.31-1.52-.74-.34-.68.38.51-9.45z"/><path fill="#939a87" d="M295.77 86l1.52.64c.67 2.8.87 5.69.77 8.56-2.31 1.38-1.48 4.31-1.79 6.53l-.95 1.24c-1.53-1.91-2.58-4.16-2.42-6.65l3.67-3.87c1.51-.87.56-3.44-1.19-2.72l.39-3.73z"/><path fill="#d1d0dc" d="M275.47 91.48c1.59-1.46 3.44-2.61 5.27-3.76.62 5.08 1.01 10.25.3 15.35-2.79-.79-1.96-4.38-2.57-6.58l-2.54-.58a166.2 166.2 0 0 0-.46-4.43z"/><path fill="#b3b5ac" d="M295.38 89.73c1.75-.72 2.7 1.85 1.19 2.72-.99-.66-1.38-1.57-1.19-2.72z"/><path fill="#5a5c5f" opacity=".91" d="M274.89 92.15l.58-.67.46 4.43.13 2.03-.18 1.87c.71 4.88 1.15 9.79 1.37 14.71l-.06.9a63.28 63.28 0 0 0 .02 8.03l-.08 5.08-.1 1.8.51 1.91-2.07.89.13-.93c1.7-6.69-.59-13.42-.32-20.15.12-6.64-.25-13.27-.39-19.9z"/><path fill="#b4b7bf" d="M275.93 95.91l2.54.58c.61 2.2-.22 5.79 2.57 6.58l-.09.78-1.48.88c-.6 2.39.08 4.88-.25 7.3l-1.97 2.49c-.22-4.92-.66-9.83-1.37-14.71l.75.01.46-.66-1.03-1.22-.13-2.03z"/><path fill="#737279" d="M287.7 96.8l2.48-1.14 1.11 1.48c.51 2.92.75 5.88.97 8.84l-3.51 2.93c-.11-4.05-.6-8.08-1.05-12.11z"/><path fill="#e3e4dc" d="M290.18 95.66l.68-.38.74.34-.31 1.52-1.11-1.48z"/><path fill="#afadb4" d="M296.27 101.73c.31-2.22-.52-5.15 1.79-6.53l.86 4c-.15 2.9-.15 6.18-2.4 8.34l-.25-5.81z"/><path fill="#aeb699" d="M282.62 100.03l4.36-2.85.72-.38c.45 4.03.94 8.06 1.05 12.11v.68l-2.91 2.31c1.13.84 2.32 1.62 3.33 2.62.56 1.54.04 3.23-.02 4.82l-5.36-.08c-.38-6.42-1.35-12.79-1.17-19.23z"/><path fill="#6c6c72" d="M298.92 99.2l3.16-2.32 6.94 1.28c3.21 7.56.08 15.8.87 23.68l-.48.76c-.21-2.83.08-5.84-1.3-8.42-1.38-1.57-3.6-2.85-3.55-5.2-.48-2.5.86-4.75 1.93-6.89-1.11-.74-2.06-1.91-3.43-2.1-1.04.25-2.07.54-3.08.89.36 2.62.6 5.26.66 7.91.01 2.3.43 4.57.97 6.8.62 3.09.74 6.26 1.39 9.35-.65-1.84-1.74-3.47-3.05-4.9-.56-4.1-.92-8.22-1.2-12.34-1.39 1.47-2.72 3-3.91 4.64l-1.49-1.45-1.65-.92.8-1.58c1.12-1.71 2.02-3.54 2.82-5.42l.95-1.24c.05 1.94.14 3.87.25 5.81 2.25-2.16 2.25-5.44 2.4-8.34z"/><path fill="#f1f6fb" d="M276.06 97.94l1.03 1.22-.46.66-.75-.01.18-1.87z"/><path fill="#87878d" d="M299.98 100.88c1.01-.35 2.04-.64 3.08-.89 1.37.19 2.32 1.36 3.43 2.1-1.07 2.14-2.41 4.39-1.93 6.89-.05 2.35 2.17 3.63 3.55 5.2l-3.04 6.76c.82 3.9 1.8 7.76 2.84 11.6l-.58 2.17c-.97 1.92-2.11 3.75-3.23 5.57l.25-5.24c.14-3.42-.52-6.8-1.35-10.1-.65-3.09-.77-6.26-1.39-9.35 2.46-1.64 2.29-4.63 2.45-7.24l-3.42.44c-.06-2.65-.3-5.29-.66-7.91m1.48 3.3c.16 1.41.82 1.64 1.98.7-.17-1.41-.83-1.65-1.98-.7z"/><path fill="#d4d4de" d="M279.47 104.73l1.48-.88c.55 3.73 1.17 7.47 1.21 11.25-1.66.15-3.31.25-4.97.32l.06-.9c.68-.81 1.34-1.64 1.97-2.49.33-2.42-.35-4.91.25-7.3z"/><path fill="#b2b1b7" d="M301.46 104.18c1.15-.95 1.81-.71 1.98.7-1.16.94-1.82.71-1.98-.7z"/><path fill="#5d5e60" d="M288.75 108.91l3.51-2.93.24 2.41-.8 1.58-1.08 1.38-1.87-1.76v-.68z"/><path fill="#aeacb2" d="M294.84 112.34c1.19-1.64 2.52-3.17 3.91-4.64.28 4.12.64 8.24 1.2 12.34.14 1.96.22 3.93.32 5.9l-2.17-1.03c-1.7-3.49-1.81-7.36-1.12-11.12l-1.34-.68-.8-.77z"/><path fill="#efedf3" d="M300.64 108.79l3.42-.44c-.16 2.61.01 5.6-2.45 7.24-.54-2.23-.96-4.5-.97-6.8z"/><path fill="#89917d" d="M285.84 111.9l2.91-2.31 1.87 1.76c.59 1.65 3.22 1.69 2.73-.46l1.49 1.45.8.77 1.34.68c-.69 3.76-.58 7.63 1.12 11.12l1.51 3.9-.07 9.4-1.65-.96c-.51-2.49-1.35-4.92-2.92-6.96-.18-3.15-.55-6.3-1.33-9.36-.38-1.28-.51-2.77-1.47-3.75-1.3-.02-1.27 1.88-1.19 2.79l.29 5.39c-1.31-.13-2.88.25-3.91-.77-1.53-1.52-2.41-3.54-3.57-5.33 1.78 0 3.57.03 5.36.08.06-1.59.58-3.28.02-4.82-1.01-1-2.2-1.78-3.33-2.62m6.23 2.39l-.4.72.42.71.82-.01.41-.72-.43-.71-.82.01z"/><path fill="#babbba" d="M290.62 111.35l1.08-1.38 1.65.92c.49 2.15-2.14 2.11-2.73.46z"/><path opacity=".28" d="M269.62 120.43c.52-3.24 1.17-6.47 2.24-9.58.21 3.17.07 6.35-.34 9.5l-3.74 3.32-.26 2.45-1.62-1.4c-.01-2.15 2.44-2.95 3.72-4.29z"/><path fill="#c3c3c2" d="M292.07 114.29l.82-.01.43.71-.41.72-.82.01-.42-.71.4-.72z"/><path fill="#505155" d="M308.11 114.18c1.38 2.58 1.09 5.59 1.3 8.42-1.74.43-3.12-.55-4.34-1.66.81-2.34 1.93-4.56 3.04-6.76z"/><path fill="#b5b7c0" d="M277.19 115.42l4.97-.32-.09 1.53c-2.12.91-2.44 2.86-2.06 4.93l2.18.37.63 8.18c-.45-1.63-1.23-3.14-2.09-4.58-.34 3.28-1.08 7.19 1.73 9.65l.14.72-1.28 1.21c-.66 3.42.1 6.91.43 10.32l1.89-3.42c.11 2.61.2 5.23.14 7.84l-2.55.54c.54 1.68 1.31 3.27 2.18 4.8l.2.66c-2.95 1.84-1.38 5.41.23 7.6l-.02.83-1.82.62c-1.48-1.66-3.01-3.5-3-5.85-.43-5.44-.29-10.92-.69-16.36l.54-6.63-.16-1.74-.73-.46-.05-.89 1.26-.97-.36-.71-.76-.13.31-.9c.63-.76 1.68-2.89-.08-2.99l-1.25 1.06.1-1.8c.68-1 2.2-1.84 1.76-3.27l-1.68-1.81a63.28 63.28 0 0 1-.02-8.03m3.26 7.76c-.45 1.4.04 1.88 1.45 1.44.43-1.4-.05-1.88-1.45-1.44m1.06 25.97c-.48 1.38 0 1.88 1.41 1.48.47-1.39 0-1.88-1.41-1.48z"/><path fill="#eeedf3" d="M280.01 121.56c-.38-2.07-.06-4.02 2.06-4.93l.03 2.06.09 3.24-2.18-.37z"/><path fill="#d2d3cd" d="M290.98 119.97c-.08-.91-.11-2.81 1.19-2.79.96.98 1.09 2.47 1.47 3.75-1.01.23-2.07-.09-2.66-.96z"/><path fill="#8d9289" d="M282.1 118.69l1.69.57c1.16 1.79 2.04 3.81 3.57 5.33 1.03 1.02 2.6.64 3.91.77.18 6.04-.42 12.19 1.24 18.08l.05 1c-.14 4.71-.08 9.44-.5 14.14l-.51-.81c-2.22-8.7-1.66-17.74-2.08-26.62-1.89-.67-3.68-1.6-5.3-2.78 1.46 11.72.63 23.59 2.16 35.3l-1.1.19c-.48-2.02-1-4.03-1.62-6.01l-.2-.66.37-5.34c.06-2.61-.03-5.23-.14-7.84-.08-2.73-.5-5.44-1.04-8.11l-.14-.72c.14-1.69.33-3.38.36-5.07-.04-2.74-.29-5.47-.63-8.18l-.09-3.24z"/><path fill="#b8bcab" d="M290.98 119.97c.59.87 1.65 1.19 2.66.96.78 3.06 1.15 6.21 1.33 9.36.29 5.96.18 11.95.75 17.9.07 1.94.03 3.89.09 5.83.64 6.25 1.43 12.49 1.23 18.79-.65 6.4-.62 12.85-.26 19.26.07 1.84.85 3.52 1.73 5.1l1.4 1.74c-.78 3.56-1.11 7.31-3 10.51-.77-3.4-1.18-6.87-1.37-10.34l-.7-15.03c-.36-5.01-1.35-9.97-1.37-15.01-.02-3.53-.22-7.11-1.41-10.46.42-4.7.36-9.43.5-14.14.2 3.58.52 7.16 1.02 10.71 1.9-3.78 1.12-8.22-1.07-11.71-1.66-5.89-1.06-12.04-1.24-18.08l-.29-5.39z"/><path fill="#1d1f21" d="M299.95 120.04c1.31 1.43 2.4 3.06 3.05 4.9.83 3.3 1.49 6.68 1.35 10.1l-3.24-4.13-1.5-2.1-1.51-3.9 2.17 1.03-.32-5.9z"/><path fill="#626262" d="M305.07 120.94c1.22 1.11 2.6 2.09 4.34 1.66l.48-.76c.09 2.32.43 4.66.15 6.99-.6 1.3-1.41 2.48-2.13 3.71-1.04-3.84-2.02-7.7-2.84-11.6z"/><path fill="#fbfafe" d="M280.45 123.18c1.4-.44 1.88.04 1.45 1.44-1.41.44-1.9-.04-1.45-1.44z"/><path fill="#e7e9ea" d="M277.21 123.45l1.68 1.81c.44 1.43-1.08 2.27-1.76 3.27l.08-5.08z"/><path fill="#f7f6f8" d="M280.73 125.53c.86 1.44 1.64 2.95 2.09 4.58-.03 1.69-.22 3.38-.36 5.07-2.81-2.46-2.07-6.37-1.73-9.65z"/><path fill="#b2b8a4" d="M284.17 128.37c1.62 1.18 3.41 2.11 5.3 2.78.42 8.88-.14 17.92 2.08 26.62-.38 2.53-.3 5.39-2.2 7.36.18 3.9.74 7.8.5 11.71l-1.58-.18c-.28-4.38-.17-8.87-1.94-12.99-1.53-11.71-.7-23.58-2.16-35.3m4.15 12.91v.45h.45v-.45h-.45z"/><path fill="#edeff3" d="M278.28 129.27c1.76.1.71 2.23.08 2.99l-.82-.02-.51-1.91 1.25-1.06z"/><path fill="#75796d" d="M299.54 138.21l.07-9.4 1.5 2.1c.82 4.32 1.25 8.72 2.07 13.05l.11.84-1.91 1.17-2.12-2.25-3.54 4.47c-.57-5.95-.46-11.94-.75-17.9 1.57 2.04 2.41 4.47 2.92 6.96l1.65.96z"/><path opacity=".04" d="M301.11 130.91l3.24 4.13-.25 5.24 3.23-5.57c.07 1.54-.16 3.21.56 4.63 2.19 1.57 4.98.4 7.44.85 1.86.81 3.43 2.18 5.32 2.93 1.95.6 4.05.58 5.98 1.25 1.51 1.15 2.63 2.72 4.17 3.85 1.75.47 3.52-.55 5.23-.92 2.33 1.77 4.04 4.18 4.84 7.01 2.29.09 4.76-.16 6.81 1.09l7.29 4.33 2.85-2.15c1.69 1.81 3.1 4.26 5.58 5.04 3.05.37 6.09-.4 9.1-.81l-1.5 3.63c3.75-.33 7.67-.42 11.03 1.57 1.67-.17 3.36-.53 5.04-.27 1.63.61 2.93 1.84 4.35 2.82 2.86 2.25 6.41 3.24 9.74 4.55l3.38-1.43 1.76 2.53c1.68-.03 3.41-.27 5.04.26 1.48.96 2.62 2.34 3.85 3.59 4.95-1.76 10.34-.85 15.48-1.65-.98 1.79-1.93 3.59-2.8 5.43 2-.81 3.92-1.88 6.04-2.38 2.06.49 3.87 1.65 5.9 2.25 1.92.09 3.82-.88 5.74-.26 6.16 1.5 12.67.8 18.75 2.74 1.86.63 3.8 1.15 5.79.99 3.4-.2 6.71 1.04 10.12.73 2.13-.23 4.27-.02 6.34.55l.04-2.17c3.52.69 6.96 1.73 10.29 3.06l2.15-.77c1.19.71 2.38 1.47 3.66 2.04 1.37-1.55 2.57-3.24 3.94-4.79l1.93 5.85 3.44-.35v178c-2.21-1.38-4.47-3.15-7.2-3.14-3.13 0-6.21.63-9.33.86-1.29-.89-2.61-1.94-4.23-2.08-1.81-.16-3.52.59-5.25 1.01-2.37.69-4.86.69-7.31.68v4.2l-4-3.42c-3.21.82-6.54 1.38-9.83.69-3.37-.78-6.68.4-9.84 1.42l-2.97-1.97c-2.98 1.95-6.85 1.65-9.7 3.84-.73.47-1.44.95-2.15 1.44-1.96-1.68-3.96-3.31-6.04-4.81-2.27 1.37-4.63 3.4-7.48 2.92-3.7-.62-7.42-1.3-11.19-1.21l-1.79 3.6c-1.3-1.6-2.23-3.44-2.78-5.43-2.56 2.47-5.25 5.37-8.95 5.9-1.6-.37-2.87-1.52-4.25-2.35-5.55 1.88-11.37 2.75-17.22 2.94-2.74-.05-5.37-1.33-8.14-.82-3.56.47-7.15.85-10.72.31-1.83-.35-3.64.02-5.26.87-2.75-.79-5.43-2.05-8.32-2.15-2.18.61-3.96 2.12-5.84 3.32l-3.28-3.25c-2.85.84-5.81 1.53-8.8 1.21-5.4-.45-10.78-1.19-16.15-1.94-4.89-.78-9.87.59-14.71-.73-5.28-.57-10.75-2.53-15.99-.77-3.32 1.01-6.83.97-10.22 1.61-1.86.3-3.75.67-5.63.32-5.57-.95-10.89-2.96-16.31-4.52-5.25-1.51-10.42-3.35-15.38-5.64-1.9-.7-2.83-2.57-3.95-4.1 4.29 1.25 8.68 2.13 12.95 3.49l2.38.84c3.06 1.05 5.81 2.89 8.94 3.7 3.52.05 7-.7 10.5-1.01 1.65.95 3.36 2.22 5.39 1.85 7.97-1.19 16.08-.42 24.01-1.92 2.96-.29 5.93.26 8.88-.15 1.89-.57 3.6-1.59 5.34-2.49l2.91 1.01c1.48-1.24 2.92-2.75 4.91-3.08 2.06-.43 4.17-.5 6.26-.66l.07-2.2c1.46.69 2.86 1.67 4.5 1.89 4.05-1.15 7.77-3.21 11.74-4.57l-1.66 2.71c1.92 1.05 4.02 1.33 6.08.5-.78-3.01-2.98-5.25-5.17-7.32l-3.43.76-2.38-3.31-2.18 2.17c-2.34-1.4-4.79-2.99-7.63-2.83-2.02-.14-3.66 1.17-5.31 2.11l-1.33-2.98c-6.03-.33-12.1-.19-18.09-1.12-6.93-1.03-13.78-2.6-20.49-4.59-2.33-.54-4.02-2.29-5.62-3.93 2.11-2.35 4.22-4.73 6.59-6.82 4.19-2.44 7.88-5.58 11.41-8.89 5.25-4.53 11-8.46 16.22-13.04 4.41-3.69 2.91-10.02 4.64-14.9.97-1.37 2.29-2.41 3.58-3.45l2.53-1.25c2.58.25 4.8-.95 6.75-2.51 3.37-2.86 9.34.3 11.71-4.05 1.55-3.21 3.34-6.48 3.62-10.09.02-4.32-1.16-8.57-2.93-12.48-1.06-2.21-2.28-4.55-4.49-5.81l-2.69-.89c-.84-11.55-4.57-22.62-7.32-33.8-.42-4.14-1.1-8.24-1.89-12.31-.59-2.83.19-5.67.64-8.46 1.41-2.67 3.41-4.95 5.58-7.02.75.91 1.46 1.87 2.34 2.66 1.85.93 4 .49 5.96.27 4.13-.72 8.35-.6 12.5-1.26 4.15 2.25 9.27 2.6 13.72 1.14 1.33-1.63 1.99-3.75 2.13-5.83-1.32-1.97-3.55-3.06-5.34-4.54 2.75-2.34 6.13.14 9.08.7-1.68-2.45-3-5.16-3.23-8.16l-3.38 3.49.67-4.69-8.34 1.4-.97-2.93c-5.6-1.79-12.6-2.87-15.49-8.7-3.4-1.46-7.05-2.12-10.55-3.24-4.33-2.91-7.45-7.26-9.9-11.79l-3.4.7c-1.42-1.43-2.73-3.04-4.48-4.08-1.71-.81-3.62-1.05-5.45-1.42-.82-4.33-1.25-8.73-2.07-13.05z"/><path fill="#967f70" d="M277.54 132.24l.82.02-.31.9-.14 1.81.05.89.17 1.76.72.44-.54 6.63-2.05 3.51c-.12-3.85-.56-7.67-1.01-11.48l-.07-.88-2.44.99 1.18-2.97 1.55-.73c.51-.23 1.55-.67 2.07-.89z"/><path fill="#3e3530" opacity=".78" d="M263.04 136.36c3.76-.1 7.57-.56 10.88-2.5-.38 1-.78 1.99-1.18 2.97-.91 1.91-2.09 3.67-3.46 5.28l1.22-3.79-1.1-.34c-1.92-.85-4.23-2.15-6.27-.93-3.46 1.71-6.67 3.87-10.02 5.76a82.25 82.25 0 0 1 .15-1.56c2.69-2.47 5.96-4.87 9.78-4.89z"/><path fill="#ebba9a" d="M272.74 136.83l2.44-.99.07.88c.1 4.76.26 9.54-.17 14.3-.22 3.1-2.29 5.58-3.9 8.1-2.02 2.92-3.8 6.18-6.78 8.26-3.1 2.21-6.44 4.05-9.67 6.06-1.67-1.08-3.5-2.13-4.57-3.87-.54-1.65-.16-3.42-.14-5.11 1.14-1.21 2.21-2.48 3.29-3.75l4.12-4.72c2.19-2.49 4.43-4.93 6.53-7.5l2.69-3.32 2.63-3.06c1.37-1.61 2.55-3.37 3.46-5.28z"/><path fill="#e7ebee" d="M277.96 135.86l.73.46.16 1.74-.72-.44-.17-1.76z"/><path fill="#dbdae4" d="M281.32 137.11l1.28-1.21c.54 2.67.96 5.38 1.04 8.11l-1.89 3.42c-.33-3.41-1.09-6.9-.43-10.32z"/><path fill="#444445" opacity=".97" d="M253.11 142.81c3.35-1.89 6.56-4.05 10.02-5.76 1.7 1.66 4.14 1.61 6.27.93.28.08.83.26 1.1.34l-1.22 3.79c-1.71-.7-3.37-1.78-5.25-1.85-2.79.26-5.35 1.56-7.74 2.93-2.47 1.37-4.5 3.36-6.23 5.56l-.32-2.9c1.02-1.64 2.16-3.22 3.52-4.6l-.15 1.56z"/><path fill="#696766" opacity=".97" d="M263.13 137.05c2.04-1.22 4.35.08 6.27.93-2.13.68-4.57.73-6.27-.93z"/><path fill="#d4a586" d="M275.25 136.72c.45 3.81.89 7.63 1.01 11.48.04 4.47.51 9.04-.63 13.42-1.28 3.98-3.9 7.34-6.3 10.69.11 1.36.23 2.71.41 4.06-1.62.27-3.24.55-4.87.73-1.53-.18-3.04-.41-4.54-.71a80.57 80.57 0 0 1-5.6-2.95c3.23-2.01 6.57-3.85 9.67-6.06 2.98-2.08 4.76-5.34 6.78-8.26 1.61-2.52 3.68-5 3.9-8.1.43-4.76.27-9.54.17-14.3z"/><path fill="#747170" d="M256.29 143.19c2.39-1.37 4.95-2.67 7.74-2.93 1.88.07 3.54 1.15 5.25 1.85l-2.63 3.06c-1.61-1.51-3.55-2.51-5.81-2.4-.28 2.53.81 4.64 3.12 5.72l-6.53 7.5-.72-2.62-4.83-2.46 4.41-7.72z"/><path fill="#555" d="M250.06 148.75c1.73-2.2 3.76-4.19 6.23-5.56-1.71 2.43-3.06 5.08-4.41 7.72l4.83 2.46.72 2.62-4.12 4.72c-2.71.11-5.4.55-8.03 1.19l1-9.69c.96-2.22 2.21-4.29 3.46-6.36l.32 2.9z"/><path fill="#8f8e91" d="M260.84 142.77c2.26-.11 4.2.89 5.81 2.4l-2.69 3.32c-2.31-1.08-3.4-3.19-3.12-5.72z"/><path fill="#d1d3cb" d="M292.51 143.44c2.19 3.49 2.97 7.93 1.07 11.71-.5-3.55-.82-7.13-1.02-10.71l-.05-1z"/><path fill="#888f79" d="M295.72 148.19l3.54-4.47 2.12 2.25-.22 5.9-5.35 2.15-.09-5.83z"/><path opacity=".11" d="M303.18 143.96c1.83.37 3.74.61 5.45 1.42 1.75 1.04 3.06 2.65 4.48 4.08l3.4-.7c2.45 4.53 5.57 8.88 9.9 11.79 3.5 1.12 7.15 1.78 10.55 3.24 2.89 5.83 9.89 6.91 15.49 8.7l.97 2.93 8.34-1.4-.67 4.69 3.38-3.49c.23 3 1.55 5.71 3.23 8.16-2.95-.56-6.33-3.04-9.08-.7 1.79 1.48 4.02 2.57 5.34 4.54-.14 2.08-.8 4.2-2.13 5.83-4.45 1.46-9.57 1.11-13.72-1.14-4.15.66-8.37.54-12.5 1.26-1.96.22-4.11.66-5.96-.27-.88-.79-1.59-1.75-2.34-2.66-2.17 2.07-4.17 4.35-5.58 7.02-2.17-6.71-5.88-13.14-11.58-17.46a55.26 55.26 0 0 0-1.18-.97l-4.66-3.77-.64-.5c-1.69-1.48-3.49-2.92-4.75-4.8-.57-2.14-.62-4.44-.12-6.59 1.04-2.45 2.88-4.53 3.49-7.15.93-3.66 1.43-7.46 1-11.22l-.11-.84z"/><path fill="#584b47" d="M278.31 144.69c.4 5.44.26 10.92.69 16.36-.01 2.35 1.52 4.19 3 5.85l-3.01-.15c-1.84.13-3.66.37-5.47.61l-.78 5.28-3.41-.33c2.4-3.35 5.02-6.71 6.3-10.69 1.14-4.38.67-8.95.63-13.42l2.05-3.51z"/><path fill="#3f403c" opacity=".76" d="M301.38 145.97l1.91-1.17c.43 3.76-.07 7.56-1 11.22-.61 2.62-2.45 4.7-3.49 7.15-.5 2.15-.45 4.45.12 6.59 1.26 1.88 3.06 3.32 4.75 4.8-1.56-.53-3.17-.94-4.67-1.63-1.43-2.38-1.45-5.31-1.37-8-.01-2.93 2.11-5.18 3.09-7.8.46-1.71.34-3.51.44-5.26.04-1.96.12-3.93.22-5.9z"/><path fill="#dedce7" d="M281.51 149.15c1.41-.4 1.88.09 1.41 1.48-1.41.4-1.89-.1-1.41-1.48z"/><path fill="#3c3d3b" d="M243.25 171.27c1.51-6.28.46-13.04 3.03-19.06-.41 3.22-.63 6.46-1 9.69 2.63-.64 5.32-1.08 8.03-1.19-1.08 1.27-2.15 2.54-3.29 3.75-1.51.74-3.11 1.27-4.71 1.77-.74 1.65-1.45 3.33-2.06 5.04z"/><path fill="#eae7f0" d="M281.23 152.39l2.55-.54-.37 5.34c-.87-1.53-1.64-3.12-2.18-4.8z"/><path fill="#71746d" d="M295.81 154.02l5.35-2.15c-.1 1.75.02 3.55-.44 5.26-.98 2.62-3.1 4.87-3.09 7.8-.08 2.69-.06 5.62 1.37 8 1.5.69 3.11 1.1 4.67 1.63l.64.5c-.63 1.67-.23 4.24-2.27 4.93-1.41-.94-2.67-2.08-3.86-3.26l-1.14-3.92c.2-6.3-.59-12.54-1.23-18.79z"/><path fill="#cccad3" d="M283.84 165.45c-1.61-2.19-3.18-5.76-.23-7.6l1.62 6.01-1.39 1.59z"/><path fill="#767a75" d="M291.55 157.77l.51.81c1.19 3.35 1.39 6.93 1.41 10.46.02 5.04 1.01 10 1.37 15.01.38 5 .43 10.02.7 15.03l-2.23.59c-.23-4.63-.34-9.27-.74-13.89-.01-2.34-1.41-4.16-3.4-5.23-2.79 7.08-1.83 14.86-.8 22.19.03 1.37 1.88 1.16 2.76 1.76 1.93.38 3.09 1.96 4.12 3.5l-2.04.83.06 2.92c-1.78.46-3.55 1.26-5.43 1.15-1.99-.28-3.82-1.17-5.67-1.89a28.52 28.52 0 0 1-2.11-8.17c.54-5.48.23-11.17-2.66-16.01l5.7.76c-2.48 1.11-1.88 4.1-1.96 6.29.18 3.01-.07 6.16.98 9.04 1.23.58 2.55.95 3.84 1.37 1.44-5.4-.09-10.92-.09-16.37l-.04-1.85.17-2.96c-.28-1.67-.63-3.33-1.1-4.95.92.37 1.84.72 2.78 1.07-.55-5.18-1.33-10.34-1.35-15.56 1.77 4.12 1.66 8.61 1.94 12.99l1.58.18c.24-3.91-.32-7.81-.5-11.71 1.9-1.97 1.82-4.83 2.2-7.36m-8.57 47.35c.12 1.69.44 3.35 1 4.95 2.27-.11 4.54-.38 6.75-.96-.89-1.43-1.55-3.11-3-4.07-1.58-.22-3.18-.01-4.75.08z"/><path fill="#61605c" d="M245.31 166.23c1.6-.5 3.2-1.03 4.71-1.77-.02 1.69-.4 3.46.14 5.11 1.07 1.74 2.9 2.79 4.57 3.87l5.6 2.95c-4.53 1.84-9.42 2.4-14.24 2.9-1.59.09-3.61.47-4.65-1.09.55-2.33 1.19-4.63 1.81-6.93.61-1.71 1.32-3.39 2.06-5.04m-.06 4.03v.46h.45l.01-.46h-.46z"/><path fill="#43403d" d="M285.23 163.86l1.1-.19c.02 5.22.8 10.38 1.35 15.56l-2.78-1.07-.91-1.29c-.47-3.51-.24-7.06-.17-10.59l.02-.83 1.39-1.59z"/><path fill="#6f707b" d="M282 166.9l1.82-.62c-.07 3.53-.3 7.08.17 10.59-2.29-.1-4.56-.3-6.83-.47-2.1-.21-3.97.8-5.83 1.58l-1.08-1.03c3.62-1.73 7.66-2.16 11.64-1.87l-.06-.8.17-7.38z"/><path fill="#bcbfcc" d="M273.52 167.36l5.47-.61-2.15 2.45c1.15 2.16 2.88 3.86 4.99 5.08l.06.8c-3.98-.29-8.02.14-11.64 1.87l-.51-.58c-.18-1.35-.3-2.7-.41-4.06l3.41.33.78-5.28z"/><path fill="#e6e5f2" d="M278.99 166.75l3.01.15-.17 7.38c-2.11-1.22-3.84-2.92-4.99-5.08l2.15-2.45z"/><path fill="#fffcff" d="M245.25 170.26h.46l-.01.46h-.45v-.46z"/><path fill="#81847c" d="M297.04 172.81l1.14 3.92c1.02 3.34 2.11 6.73 2.11 10.26-.06 3.47-.98 6.84-1.78 10.18-.88-1.58-1.66-3.26-1.73-5.1-.36-6.41-.39-12.86.26-19.26z"/><path fill="#555554" d="M304.31 175.06l4.66 3.77c-2.31-.51-4.89.73-5.28 3.2.3 2.35 2.02 4.16 3.26 6.08l2.14-1.31-.99-3.12 4.55.52-2.5-4.4c5.7 4.32 9.41 10.75 11.58 17.46-.45 2.79-1.23 5.63-.64 8.46.79 4.07 1.47 8.17 1.89 12.31-.81-2.06-1.7-4.09-2.36-6.21-.36-1.9-.56-3.82-.79-5.73-2.03 1.03-4.49 1.74-5.73 3.79-.79 1.67-1.01 3.52-1.4 5.31a87.67 87.67 0 0 1-3.26-.27l-2.61-.84.55-1.62c-2-1.39-4.03-2.77-5.69-4.56.57-1.72 1.45-3.3 2.21-4.93l-.85-.93-3.14-3.13-1.4-1.74c.8-3.34 1.72-6.71 1.78-10.18 0-3.53-1.09-6.92-2.11-10.26 1.19 1.18 2.45 2.32 3.86 3.26 2.04-.69 1.64-3.26 2.27-4.93m2.23 17.05c-.21 3.18-.21 6.51.75 9.57 3.67 1.91 8.02 1.83 11.92.73-3.8-2.86-3.92-7.85-6-11.74-2.02-2.14-5.71-1.36-6.67 1.44z"/><path fill="#4f4f4d" d="M260.33 176.39l4.54.71 4.3.62c-1 3.53-2.12 7.02-3.38 10.46a133.5 133.5 0 0 1-4.58-3.57l-1.81 3.48c-3.66-.9-5.7-4.89-9.61-5.1-4.27-.95-7.95 1.92-10.68 4.82 1.07 2.46 2.06 4.95 2.88 7.51-2.02 0-4.02.14-6.03.27l-.2-3.51c-2.42.11-4.83.3-7.24.53.93-2.82 1.98-5.8 4.28-7.82 2.7-2.42 5.8-4.34 8.64-6.59 1.04 1.56 3.06 1.18 4.65 1.09 4.82-.5 9.71-1.06 14.24-2.9z"/><path fill="#1f2126" d="M264.87 177.1l4.87-.73.51.58 1.08 1.03-1.39 5.53 4.11.13.24-4.57 1.69 2.11c.25 1.93.7 3.84 1.42 5.65 2.89 4.84 3.2 10.53 2.66 16.01-.94 2.1-2.01 4.13-3.03 6.2l-.37-2.88c-.11-2.34-.91-4.57-2.43-6.36-.93-2.37-1.49-4.95-2.98-7.05-1.55-1.82-3.58-3.13-5.46-4.57 1.26-3.44 2.38-6.93 3.38-10.46l-4.3-.62z"/><path fill="#3f4044" d="M271.33 177.98c1.86-.78 3.73-1.79 5.83-1.58l-1.18 4.78-1.69-2.11-.24 4.57-4.11-.13 1.39-5.53z"/><path fill="#87888c" d="M275.98 181.18l1.18-4.78 6.83.47.91 1.29c.47 1.62.82 3.28 1.1 4.95-.75-1.35-2.93-.63-2.49.93.39 1.07 1.16 1.74 2.32 2.03l.04 1.85-2.77-.33-5.7-.76c-.72-1.81-1.17-3.72-1.42-5.65z"/><path fill="#6c6a69" d="M303.69 182.03c.39-2.47 2.97-3.71 5.28-3.2l1.18.97 2.5 4.4-4.55-.52.99 3.12-2.14 1.31c-1.24-1.92-2.96-3.73-3.26-6.08z"/><path fill="#a0a393" d="M289.17 180.55c1.99 1.07 3.39 2.89 3.4 5.23.08 3.5-2.02 6.4-3.21 9.54-.93 2.38 1.13 4.34 2.31 6.18l-.54 3c-.88-.6-2.73-.39-2.76-1.76-1.03-7.33-1.99-15.11.8-22.19z"/><path fill="#d1d0d9" d="M283.51 184.04c-.44-1.56 1.74-2.28 2.49-.93l-.17 2.96c-1.16-.29-1.93-.96-2.32-2.03z"/><path fill="#403e3c" d="M239.11 187.81c2.73-2.9 6.41-5.77 10.68-4.82 3.91.21 5.95 4.2 9.61 5.1l1.81-3.48a133.5 133.5 0 0 0 4.58 3.57c1.88 1.44 3.91 2.75 5.46 4.57 1.49 2.1 2.05 4.68 2.98 7.05-1.8-1.16-3.09-2.86-3.85-4.85-.32 2.1-.71 4.2-1.11 6.29l-4.37.89 1.58 2.98-2.45 1.07c-4.05 2.03-8.62 2.53-13.09 2.43-5.03-.18-9.97-1.65-14.37-4.08l.12-1.85.85.08c5.66 3.56 12.59 4.77 19.11 3.25 1.46-.4 2.88-.9 4.3-1.41a89.95 89.95 0 0 0-2.95-1.47c-.35-1.64-.24-3.54-1.31-4.91-3.06-2.03-6.92-1.91-10.45-2.21l-4.25-.69c-.82-2.56-1.81-5.05-2.88-7.51z"/><path fill="#8c9080" d="M292.57 185.78c.4 4.62.51 9.26.74 13.89l2.23-.59c.19 3.47.6 6.94 1.37 10.34 1.89-3.2 2.22-6.95 3-10.51 1.02 1.06 2.1 2.08 3.14 3.13-1.71 2.35-3.48 4.88-3.3 7.94l.08 4.1-3.93-1.78c1.49 2.54 4.2 4.96 3.81 8.14l-1.64.63c-2.58-2.61-2.04-6.81-4.8-9.32l-.06-2.92 2.04-.83c-1.03-1.54-2.19-3.12-4.12-3.5l.54-3c-1.18-1.84-3.24-3.8-2.31-6.18 1.19-3.14 3.29-6.04 3.21-9.54z"/><path fill="#c2c1ca" d="M281.14 193.88c.08-2.19-.52-5.18 1.96-6.29l2.77.33c0 5.45 1.53 10.97.09 16.37-1.29-.42-2.61-.79-3.84-1.37-1.05-2.88-.8-6.03-.98-9.04z"/><path fill="#69696a" d="M306.54 192.11c.96-2.8 4.65-3.58 6.67-1.44 2.08 3.89 2.2 8.88 6 11.74-3.9 1.1-8.25 1.18-11.92-.73-.96-3.06-.96-6.39-.75-9.57z"/><path fill="#616464" d="M228.52 192.61l7.24-.53.2 3.51.07 4.33-3.96.38-3.53-1.87-.6-3.29.58-2.53z"/><path fill="#625f5a" d="M227.14 198.53l.8-3.39.6 3.29 3.53 1.87.94 2.03 3.68.35-.12 1.85c-5.09 2.52-6.91 8.11-9.58 12.7 1.64-5.29 1.09-10.97 2.77-16.26l-2.62-2.44z"/><path fill="#9e9fa4" d="M235.96 195.59l6.03-.27 4.25.69-8.7 1.63c1.74 1.88 4.38 1.96 6.73 2.34 4.66.61 9.33 1.46 13.73 3.15a89.95 89.95 0 0 1 2.95 1.47c-1.42.51-2.84 1.01-4.3 1.41-1.17-1.06-2.18-2.53-3.85-2.79-4.99-.99-10.29-2.24-15.26-.46l-.85-.08-3.68-.35-.94-2.03 3.96-.38-.07-4.33z"/><path fill="#4d4d4d" d="M269.27 201.24l1.11-6.29c.76 1.99 2.05 3.69 3.85 4.85 1.52 1.79 2.32 4.02 2.43 6.36l-2.73 2.84-6.74-2.21-.71-1.68-1.58-2.98 4.37-.89z"/><path fill="#626262" d="M246.24 196.01c3.53.3 7.39.18 10.45 2.21 1.07 1.37.96 3.27 1.31 4.91-4.4-1.69-9.07-2.54-13.73-3.15-2.35-.38-4.99-.46-6.73-2.34l8.7-1.63z"/><path fill="#595752" d="M237.54 202.76c4.97-1.78 10.27-.53 15.26.46 1.67.26 2.68 1.73 3.85 2.79-6.52 1.52-13.45.31-19.11-3.25z"/><path fill="#666568" d="M303.05 202.04l.85.93c-.76 1.63-1.64 3.21-2.21 4.93 1.66 1.79 3.69 3.17 5.69 4.56l-.55 1.62-.44 1.36c-2.32-1.69-4.52-3.53-6.64-5.46-.18-3.06 1.59-5.59 3.3-7.94z"/><path fill="#030302" opacity=".78" d="M277.03 209.04l3.03-6.2a28.52 28.52 0 0 0 2.11 8.17l2.01 2.94-1.38 1.6-4.84-2.69-.93-3.82z"/><path fill="#78786f" d="M226.99 217.23c2.67-4.59 4.49-10.18 9.58-12.7 4.4 2.43 9.34 3.9 14.37 4.08l7.98.24c1.56 4.51 3.31 8.95 4.95 13.43-3.07.69-6.13-.06-9.03-1.05.7-3.08 2.95-7.43-.36-9.76-3.43-2.92-8.08-1.64-12.07-1.08-1.19-1.18-2.33-2.41-3.67-3.4-1.8-.45-3.53.84-4.54 2.22-1.53 3.16-1.32 6.8-1.16 10.22-.99.19-1.97.4-2.95.62l-3.5-2.1.4-.72z"/><path fill="#2a2c30" d="M264.03 206.18l2.45-1.07.71 1.68v2.06l-.35 1.8-2.56.34-.25-4.81z"/><path fill="#94dcf9" d="M282.98 205.12c1.57-.09 3.17-.3 4.75-.08 1.45.96 2.11 2.64 3 4.07-2.21.58-4.48.85-6.75.96-.56-1.6-.88-3.26-1-4.95m2.3 1.16c-1.08 1.32 1.26 2.78 2.21 1.57 1.08-1.32-1.26-2.79-2.21-1.57z"/><path fill="#55544e" d="M250.94 208.61c4.47.1 9.04-.4 13.09-2.43l.25 4.81 2.56-.34.35-1.8c2.41 3.74 7.37 1.98 10.77 4.01 1.64.84 3.24 1.77 4.84 2.69l1.38-1.6c2.19.68 4.31 1.59 6.28 2.77l-2.29 1.36-1.37-.91a63.55 63.55 0 0 0-2.8.69l-1.76.46c-2.29-1.86-5.12-2.61-8.03-2.63l-1.85 6.62-1.76-.38-.93.44-.81 1.58-1.03 3.65-1.64.02.01-2.96-4.51 1.98-2.92-.06c-.88-1.19-1.32-3.08-3.02-3.33-2.29-.6-4.66-.79-6.99-1.17-1.99-.39-3.97-.77-5.97-1.08l.31-1.94c3.99.18 7.94.94 11.74 2.17 2.9.99 5.96 1.74 9.03 1.05l-4.95-13.43-7.98-.24z"/><path fill="#747478" d="M273.93 209l2.73-2.84.37 2.88.93 3.82c-3.4-2.03-8.36-.27-10.77-4.01v-2.06c2.26.68 4.5 1.43 6.74 2.21z"/><path fill="#e3ffff" d="M285.28 206.28c.95-1.22 3.29.25 2.21 1.57-.95 1.21-3.29-.25-2.21-1.57z"/><path fill="#6e6d6d" d="M314.1 209.88c1.24-2.05 3.7-2.76 5.73-3.79l.79 5.73-3.54 1.66-3.56 1.38-.82.33c.39-1.79.61-3.64 1.4-5.31z"/><path fill="#919289" d="M234.2 209.21c1.01-1.38 2.74-2.67 4.54-2.22 1.34.99 2.48 2.22 3.67 3.4 3.99-.56 8.64-1.84 12.07 1.08 3.31 2.33 1.06 6.68.36 9.76-3.8-1.23-7.75-1.99-11.74-2.17-3.35-.11-6.72-.05-10.06.37-.16-3.42-.37-7.06 1.16-10.22z"/><path fill="#403533" d="M299.75 209.98c2.12 1.93 4.32 3.77 6.64 5.46-.14 4.62.32 9.24.44 13.86-2.47-1.05-4.82-2.47-6.44-4.66l-.41-.63-1.91-2.94 1.64-.63c.39-3.18-2.32-5.6-3.81-8.14l3.93 1.78a140.17 140.17 0 0 1-.08-4.1m1.17 13.05l2.36.28c-.09-1.45-.24-2.9-.42-4.33-2.98-1.46-1.96 2.4-1.94 4.05z"/><path fill="#a2a1a9" d="M282.17 211.01c1.85.72 3.68 1.61 5.67 1.89 1.88.11 3.65-.69 5.43-1.15 2.76 2.51 2.22 6.71 4.8 9.32l-3.41 2.2-.68-.21-3.12-.94 2.71-3.55-3.11-1.85c-1.97-1.18-4.09-2.09-6.28-2.77-.69-.97-1.37-1.95-2.01-2.94z"/><path fill="#bb896d" d="M317.08 213.48l3.54-1.66c.66 2.12 1.55 4.15 2.36 6.21 2.75 11.18 6.48 22.25 7.32 33.8.07 2.73.1 5.46.05 8.2-1.48.28-2.96.57-4.42.91l1.68-1.37c-.5-9.34-.57-18.84-3.23-27.88-1.29-4.34-2.81-8.61-4.13-12.94-.54-2.03-1.77-3.75-3.17-5.27z"/><path opacity=".07" d="M306.83 214.08l2.61.84c.38 7.36 1.3 14.71.98 22.1-.06 2.02-.95 3.88-1.57 5.77-.44-3-1-5.97-1.45-8.97-.22-1.5-.42-3.01-.57-4.52-.12-4.62-.58-9.24-.44-13.86l.44-1.36z"/><path fill="#d4a080" d="M313.52 214.86l3.56-1.38c1.4 1.52 2.63 3.24 3.17 5.27l4.13 12.94c2.66 9.04 2.73 18.54 3.23 27.88l-1.68 1.37-.74.22c.36-6.81-1.53-13.43-2.31-20.14-.64-5.31-2.19-10.47-4.27-15.38-1.11 1.92-1.56 4.09-1.55 6.3-.1 4.98-1.19 10.05.09 14.96l3.22 13.76 3.08 1.01-1.69.54c-1.26-.36-3.02.02-3.84-1.21-1.19-2.23-1.38-4.81-1.82-7.25-.7-5.24-1.96-10.5-1.47-15.82.29-4.03 1.28-8.08.63-12.12-.6-3.65-1.31-7.28-1.74-10.95z"/><path fill="#563e2f" opacity=".72" d="M309.44 214.92l3.26.27c-.84 1.81-1.18 3.79-1.01 5.78.42 7.69-.15 15.38-.26 23.07l-.64 3.9c-.66-1.14-1.31-2.27-1.92-3.43l-.01-.69-.01-.38v-.65c.62-1.89 1.51-3.75 1.57-5.77.32-7.39-.6-14.74-.98-22.1z"/><path fill="#b88769" d="M312.7 215.19l.82-.33c.43 3.67 1.14 7.3 1.74 10.95.65 4.04-.34 8.09-.63 12.12-.49 5.32.77 10.58 1.47 15.82.44 2.44.63 5.02 1.82 7.25.82 1.23 2.58.85 3.84 1.21l-2.61.93c-2.13-.71-4.23-1.49-6.32-2.27l-.99-11.12-.41-5.71c.11-7.69.68-15.38.26-23.07-.17-1.99.17-3.97 1.01-5.78z"/><path fill="#61637a" d="M274.21 215.69c2.91.02 5.74.77 8.03 2.63l1.76-.46c.55 3.3.64 6.65.27 9.98l-2.05 1.45-.77-.18c-4.4-1.42-9.03-1.61-13.62-1.51l1.03-3.65 1.79.36.92-.46.79-1.54 1.85-6.62z"/><path fill="#727687" d="M284 217.86l2.8-.69-.78 1.14.36.6 1.52-.05-1.08 3.12 4.41 3.34-2.34 3.78-4.62-1.26c.37-3.33.28-6.68-.27-9.98z"/><path fill="#e7e5eb" d="M286.8 217.17l1.37.91-.27.78-1.52.05-.36-.6.78-1.14z"/><path fill="#616275" d="M290.46 216.72l3.11 1.85-2.71 3.55 3.12.94c-1.05.28-2.51 1.55-1.41 2.65 1.54 1.29 2.98-1.1 2.09-2.44l3.41-2.2 1.91 2.94-1.6.28c-1.24 1.6 1.86 1.95 2.01.35 1.62 2.19 3.97 3.61 6.44 4.66l.57 4.52c-2.79 2.15-4.42 5.31-5.86 8.43-1-2.93-2.37-5.73-3.17-8.73-.55-2.13.1-4.31.44-6.42-1.18 1.2-2.37 2.39-3.69 3.42l-1.53-.09c.9-1.34-.84-3.85-2.25-2.33l-.28 1.72-2.17-.72 2.34-3.78-4.41-3.34 1.08-3.12.27-.78 2.29-1.36m11.73 13.42l-.1 3.04c1.73-.23 4.44-.53 3.91-2.98l-3.81-.06z"/><path fill="#606160" d="M215.58 226.5c3.15-3.47 7.4-5.62 11.01-8.55l3.5 2.1 2.95-.62c3.34-.42 6.71-.48 10.06-.37l-.31 1.94c-8.75-1.52-17.72.85-25.28 5.27-.89 1.05-1.28 2.37-1.66 3.66 4.53-.27 8.75-2.02 13.16-2.92 7.48-1.32 15.18-1.35 22.67-.07-1.17 1.31-2.49 2.53-3.38 4.06-.66 2.05-.62 4.34-.03 6.41.95 1.84 2.57 3.21 3.92 4.75l1.74-2.54c-1.21-1.42-2.56-2.72-3.97-3.94 1.53-1.01 3.02-2.36 4.94-2.47 1.23.53 2.36 1.27 3.53 1.96 2.76-2.24 4.36-5.46 6.12-8.47l-2.86-.06 4.51-1.98-.01 2.96 1.64-.02c4.59-.1 9.22.09 13.62 1.51-.87.81-1.71 1.65-2.56 2.48-3.62-1.29-7.74-3.45-11.57-1.73-5.4 3.56-5.63 10.57-7.37 16.19l-3.96-.43-.88 1.85c1.77.8 3.56 1.58 5.19 2.67-1.03 4.64-3.57 10.32-8.79 11.26-2.34.65-4.63 1.5-6.87 2.44 2.52-5.8 6.16-11.3 6.59-17.78-2.47.31-4.53 1.72-6.29 3.39l-3.19-2.32c-.38 2.85-.29 5.72-.31 8.58-.03 2.6-1.95 4.63-3.4 6.61l-1.49 1c-.89-3.23-.2-6.93-2.26-9.76l1.86-5.92c1.88-1.39 3.83-2.67 5.75-3.98l-3.57-2.44c-1.38 1.81-2.66 3.74-4.37 5.26-1.79-.75-3.41-1.82-5.06-2.82l3.38-4.04-9.31.46c6.79-3.17 14.47-2.9 21.78-3.5l-.03-2.28c-5.66-.19-11.41-1.55-17.04-.57-4.43 2.68-8.23 6.36-13.05 8.43.26-3.49-.01-6.98-.37-10.45.29-1.75.03-3.8 1.32-5.21z"/><path fill="#817d81" d="M300.92 223.03c-.02-1.65-1.04-5.51 1.94-4.05l.42 4.33-2.36-.28z"/><path fill="#939189" d="M217.51 226.27c7.56-4.42 16.53-6.79 25.28-5.27 2 .31 3.98.69 5.97 1.08 1.78.87 3.5 1.85 5.23 2.82-4.05-.14-8.09-.55-12.12-.91-7.31-.71-14.27 2.13-21.39 3.22-1.13.36-2.14-.25-2.97-.94z"/><path fill="#73726e" d="M248.76 222.08l6.99 1.17c1.7.25 2.14 2.14 3.02 3.33l2.92.06 2.86.06c-1.76 3.01-3.36 6.23-6.12 8.47-1.17-.69-2.3-1.43-3.53-1.96-1.92.11-3.41 1.46-4.94 2.47 1.41 1.22 2.76 2.52 3.97 3.94l-1.74 2.54c-1.35-1.54-2.97-2.91-3.92-4.75-.59-2.07-.63-4.36.03-6.41.89-1.53 2.21-2.75 3.38-4.06-7.49-1.28-15.19-1.25-22.67.07-4.41.9-8.63 2.65-13.16 2.92.38-1.29.77-2.61 1.66-3.66.83.69 1.84 1.3 2.97.94 7.12-1.09 14.08-3.93 21.39-3.22 4.03.36 8.07.77 12.12.91-1.73-.97-3.45-1.95-5.23-2.82z"/><path fill="#8e93a0" d="M269.67 222.37l.93-.44 1.76.38-.79 1.54-.92.46-1.79-.36.81-1.58z"/><path fill="#40404c" d="M293.98 223.06l.68.21c.89 1.34-.55 3.73-2.09 2.44-1.1-1.1.36-2.37 1.41-2.65z"/><path fill="#d7d5de" d="M298.38 224.29l1.6-.28.41.63c-.15 1.6-3.25 1.25-2.01-.35z"/><path fill="#e1ae91" d="M317.06 231.94c-.01-2.21.44-4.38 1.55-6.3 2.08 4.91 3.63 10.07 4.27 15.38.78 6.71 2.67 13.33 2.31 20.14l-1.74.51-3.08-1.01-3.22-13.76c-1.28-4.91-.19-9.98-.09-14.96z"/><path fill="#555556" d="M295.12 230.52c1.32-1.03 2.51-2.22 3.69-3.42-.34 2.11-.99 4.29-.44 6.42.8 3 2.17 5.8 3.17 8.73l.22.65-3.08 3.01-7.19-5.03c-2.87-2.06-6.44-2.54-9.63-3.89-1.18-2.42.06-5.2.36-7.7l2.05-1.45 4.62 1.26 2.17.72 2.53.61c.38.03 1.15.07 1.53.09z"/><path fill="#383c48" d="M291.34 228.1c1.41-1.52 3.15.99 2.25 2.33l-2.53-.61.28-1.72z"/><path fill="#7f7d77" d="M267.32 229.86c3.83-1.72 7.95.44 11.57 1.73l2.56-2.48.77.18c-.3 2.5-1.54 5.28-.36 7.7 3.19 1.35 6.76 1.83 9.63 3.89l-1.59.57c-2.03-.43-4.08-.82-6.16-.73-2.62 3.79-3.47 8.41-5.55 12.45-1.88 1.52-4.15-.75-5.74-1.78-.52-2.83 1.2-5.45 1.65-8.18-2.38-2.28-6.04-2.21-9.08-3-.61 2.15-1.55 4.29-1.55 6.57 1.88 2.8 4.28 5.52 3.7 9.19-1.39 1.66-2.87 3.25-4.31 4.87-4.03 3.97-6.58 9.52-11.89 12.08l2.21-4.11-2.78-1.05c.17-1.45-.44-2.79-1.04-4.07l-3.33 1.44c-1.69 1.24-2.66 3.12-3.55 4.96-.37-1.05-.77-2.08-1.21-3.08a94.51 94.51 0 0 0 3.66-8.16c-2.09.95-4.16 1.92-6.16 3.03l-.73.44c1.45-1.98 3.37-4.01 3.4-6.61.02-2.86-.07-5.73.31-8.58l3.19 2.32c1.76-1.67 3.82-3.08 6.29-3.39-.43 6.48-4.07 11.98-6.59 17.78 2.24-.94 4.53-1.79 6.87-2.44 5.22-.94 7.76-6.62 8.79-11.26-1.63-1.09-3.42-1.87-5.19-2.67l.88-1.85 3.96.43c1.74-5.62 1.97-12.63 7.37-16.19z"/><path fill="#e2e1e6" d="M302.19 230.14l3.81.06c.53 2.45-2.18 2.75-3.91 2.98l.1-3.04z"/><path fill="#595956" d="M214.26 231.71c.36 3.47.63 6.96.37 10.45l-.19 2.79c2.79-1.72 5.53-3.54 8.53-4.87 3.1-.22 6.21-.29 9.31-.46l-3.38 4.04c-6.56 6.92-7.98 17.06-6.55 26.16.05 1.67-.02 3.35-.02 5.02 1.18 3.41 4.24 5.61 6.74 8.01-1.66-.54-3.35-.97-5.04-1.41l-.81 4.31c2 1.34 3.97 2.77 6.17 3.8 2.65 1.26 5.67 1.22 8.55 1.29 4.12 0 8.25-.06 12.34-.53-2.86 1.54-5.81 3.53-9.22 3.2-4.97-.31-9.96-.28-14.91-.79l.46 4.07c3.68.63 7.34 1.47 10.82 2.84l1.4 4.05-5.06 2.73c-5.86-5.07-13.56-9.4-15.4-17.54.2-2.95 3.14-5.29 2.54-8.44-1.11-8.86-3.01-17.61-5.18-26.27 4.65-2.43 7.7-6.77 10.06-11.3-1.98.59-4.03 1.03-5.84 2.05-1.23 1.09-2 2.56-2.9 3.9l-5.1 1.89a84.79 84.79 0 0 0-2.6-1.12c-.28-2.77-.93-5.62-.24-8.37 1.19-3.43 3.54-6.28 5.15-9.5z"/><path fill="#98948c" d="M227.68 233.73c5.63-.98 11.38.38 17.04.57l.03 2.28c-7.31.6-14.99.33-21.78 3.5-3 1.33-5.74 3.15-8.53 4.87l.19-2.79c4.82-2.07 8.62-5.75 13.05-8.43z"/><path fill="#5f4a46" d="M301.54 242.25c1.44-3.12 3.07-6.28 5.86-8.43l1.45 8.97v.65c0 .1.01.29.01.38l.01.69c-.06 3.64-.64 7.25-1.29 10.84a55.86 55.86 0 0 0-2.43 1.26l-.82-3.86c-.62-3.34-1.5-6.62-2.57-9.85l-.22-.65z"/><path fill="#929089" d="M265.02 240.21c3.04.79 6.7.72 9.08 3-.45 2.73-2.17 5.35-1.65 8.18 1.59 1.03 3.86 3.3 5.74 1.78 2.08-4.04 2.93-8.66 5.55-12.45l.27 3c-2.28 6.91-5.08 13.64-7.96 20.33 1.01.12 2.03.38 3.05.24 1.43-.51 2.22-1.96 2.95-3.19 1.95-3.77 2.88-7.95 4.08-11.99l1.05 1.88c-1.15 4.34-1.06 8.86-1.91 13.24-1.56 4.39-4.58 8.06-7.1 11.92-1.9 2.46-4.07 5.89-7.64 5.5-5.29-.29-10.55-1.59-15.3-3.94-1.67-.76-3.28-1.67-5.08-2.08-1.67.31-3.22 1.04-4.8 1.65-1.04-2.07-1.85-4.24-2.61-6.42l-.26-.77c.89-1.84 1.86-3.72 3.55-4.96l.62 3.22 2.51.76c-.98 1.14-1.85 2.36-2.71 3.59l2.6 1.33 1.92-1.11c5.31-2.56 7.86-8.11 11.89-12.08-.86 1.96-1.62 3.97-2.39 5.97 1.48.06 3.16.72 4.52-.17 3.34-2.12 7.06-4.07 9.05-7.66-1.17-2.49-2.28-5-3.38-7.52l-3.49 4.51c.58-3.67-1.82-6.39-3.7-9.19 0-2.28.94-4.42 1.55-6.57z"/><path fill="#48494e" d="M283.74 240.72c2.08-.09 4.13.3 6.16.73l2.46 3.3-4.15.53-3.36 2.32-.84-3.88-.27-3m2.48 2.58v.45l.45.01v-.45l-.45-.01z"/><path fill="#747575" d="M238.33 241.22l3.57 2.44-5.75 3.98c-7.19 5.11-8.97 15-7.98 23.27l.03 2.87-5.85-3.96c-1.43-9.1-.01-19.24 6.55-26.16 1.65 1 3.27 2.07 5.06 2.82 1.71-1.52 2.99-3.45 4.37-5.26z"/><path fill="#7b7a73" d="M291.49 240.88c2.49 1.54 4.85 3.28 7.19 5.03l.53.44c-.96 1-2.42 1.69-2.85 3.1-.29 1.69-.18 3.41-.08 5.12l-2.09-2.41c-1.51 10.05-6.02 19.42-11.53 27.87l2.61 3.25-1.08.72c-1.32-.41-2.62-.87-3.96-1.23-5.73-.92-10.64 3.41-16.34 3.03-4.96-.29-9.56-2.47-13.97-4.59-1.63-1.19-3.16-2.5-4.57-3.93 1.58-.61 3.13-1.34 4.8-1.65 1.8.41 3.41 1.32 5.08 2.08 4.75 2.35 10.01 3.65 15.3 3.94 3.57.39 5.74-3.04 7.64-5.5 2.52-3.86 5.54-7.53 7.1-11.92.85-4.38.76-8.9 1.91-13.24.38-1.9.71-3.8 1.03-5.71 1.38-.2 2.76-.38 4.15-.53l-2.46-3.3 1.59-.57z"/><path fill="#424340" d="M219.95 244.91c1.81-1.02 3.86-1.46 5.84-2.05-2.36 4.53-5.41 8.87-10.06 11.3a25.33 25.33 0 0 0-3.78-3.46l5.1-1.89c.9-1.34 1.67-2.81 2.9-3.9z"/><path fill="#959398" d="M286.22 243.3l.45.01v.45l-.45-.01v-.45z"/><path fill="#989d89" d="M298.68 245.91l3.08-3.01c1.07 3.23 1.95 6.51 2.57 9.85-.52 2.12-1.15 4.21-1.75 6.3-1.48-.26-2.94-.51-4.39-.87l2.75-.4c-.37-3.83.12-7.92-1.73-11.43l-.53-.44z"/><path fill="#b3aeb1" opacity=".95" d="M308.86 243.82l-.01-.38.01.38z"/><path fill="#6f7583" d="M276.05 264.05c2.88-6.69 5.68-13.42 7.96-20.33.25 1.29.55 2.58.84 3.88 1.1-.8 2.21-1.59 3.36-2.32l-1.03 5.71-1.05-1.88c-1.2 4.04-2.13 8.22-4.08 11.99-.73 1.23-1.52 2.68-2.95 3.19-1.02.14-2.04-.12-3.05-.24z"/><path fill="#271d18" opacity=".82" d="M311.43 244.04l.41 5.71a38.28 38.28 0 0 1-1.13 4.73l-1.54.42-1.59.45c.65-3.59 1.23-7.2 1.29-10.84.61 1.16 1.26 2.29 1.92 3.43l.64-3.9z"/><path fill="#c2ccad" d="M299.21 246.35c1.85 3.51 1.36 7.6 1.73 11.43l-2.75.4c-.66-1.19-1.28-2.41-1.91-3.61-.1-1.71-.21-3.43.08-5.12.43-1.41 1.89-2.1 2.85-3.1z"/><path fill="#524d48" d="M228.17 270.91c-.99-8.27.79-18.16 7.98-23.27l-1.86 5.92c-1.81 4.37-1.05 9.23.38 13.59.45 1.78 1.97 2.91 3.23 4.12l.04-3.11c1.43 1.73 2.98 3.35 4.54 4.96l.26-2.26c.76 2.18 1.57 4.35 2.61 6.42 1.41 1.43 2.94 2.74 4.57 3.93l-1.16 3.51c-3.84.34-8.04.12-11.24-2.27-2.85-2.21-5.3-4.89-7.67-7.59-.62-1.29-1.18-2.62-1.68-3.95z"/><path fill="#413a35" d="M310.71 254.48a38.28 38.28 0 0 0 1.13-4.73c.24 3.71.65 7.41.99 11.12.13 1.88.18 3.77.23 5.66l-3 .08c.15-3.11.36-6.25-.07-9.34l-.82-2.37a69.17 69.17 0 0 1 1.54-.42z"/><path fill="#a39f95" d="M267.17 255.97l3.49-4.51 3.38 7.52c-1.99 3.59-5.71 5.54-9.05 7.66-1.36.89-3.04.23-4.52.17.77-2 1.53-4.01 2.39-5.97l4.31-4.87z"/><path fill="#656363" d="M294.19 252.16l2.09 2.41 1.91 3.61 4.39.87 1.75-6.3.82 3.86 2.43-1.26 1.59-.45.82 2.37c-1.11 1.74-2.53 3.37-3.07 5.41-.09 1.72.18 3.44.35 5.15l-2.12-5.1c-.54 2.88.55 6.9-2.23 8.8-2.67-2.97-2.36-7.49-4.88-10.63-1.15.57-2.33 1.09-3.4 1.8-.72 1.43-1.01 3.01-1.35 4.56l-1.31-1.39-2.27 5 2.45 4.18c-1.37-2.1-3.64-.21-3.33 1.77l-1.2.56c-.14 2.19-.12 4.73-2.36 5.9l-2.61-3.25c5.51-8.45 10.02-17.82 11.53-27.87z"/><path fill="#434444" d="M330.3 251.83l2.69.89-1.55 1.46c.33 1.36.87 2.65 1.31 3.98.67 4.61.43 9.27.29 13.91l-4.23-1.35c.62-3.55 1.39-7.09 1.54-10.69.05-2.74.02-5.47-.05-8.2z"/><path fill="#706e6c" d="M331.44 254.18l1.55-1.46c2.21 1.26 3.43 3.6 4.49 5.81 1.77 3.91 2.95 8.16 2.93 12.48-.28 3.61-2.07 6.88-3.62 10.09-1.85-2.34-3.22-5.08-3.17-8.12-.1-4.93 1.01-10.09-.87-14.82-.44-1.33-.98-2.62-1.31-3.98z"/><path fill="#757068" d="M234.29 253.56c2.06 2.83 1.37 6.53 2.26 9.76.42 1.62.91 3.23 1.39 4.84l-.04 3.11c-1.26-1.21-2.78-2.34-3.23-4.12-1.43-4.36-2.19-9.22-.38-13.59z"/><path fill="#51504e" d="M306.92 262.68c.54-2.04 1.96-3.67 3.07-5.41.43 3.09.22 6.23.07 9.34l3-.08-.23-5.66 6.32 2.27c1.96 3.29-.52 6.66-.14 10.12-3.62-.69-7.15-1.89-10.33-3.77l-1.41-1.66c-.17-1.71-.44-3.43-.35-5.15z"/><path fill="#5f5d5a" d="M332.75 258.16c1.88 4.73.77 9.89.87 14.82-2.93.11-5.83.69-8.45 2.01l1.45 4.66c-3.32-.05-6.65.07-9.94.48-2.03-3.41-4.21-6.76-7.03-9.56l-.97-1.08c3.18 1.88 6.71 3.08 10.33 3.77-.38-3.46 2.1-6.83.14-10.12l2.61-.93 1.69-.54c.44-.12 1.31-.38 1.74-.51l.74-.22c1.46-.34 2.94-.63 4.42-.91-.15 3.6-.92 7.14-1.54 10.69l4.23 1.35c.14-4.64.38-9.3-.29-13.91m-13.48 19.12v.45h.45v-.45h-.45z"/><path fill="#605e5a" d="M238.77 261.88l6.16-3.03-3.66 8.16-2.5-5.13z"/><path fill="#757370" d="M294.64 262.7c1.07-.71 2.25-1.23 3.4-1.8 2.52 3.14 2.21 7.66 4.88 10.63 2.78-1.9 1.69-5.92 2.23-8.8l2.12 5.1 1.41 1.66.97 1.08-.77.74c-2.51 2.64-6.09 1.3-9.22 1.31l-.9 1.02-2.15 2.56-.68-.26c1.07-2.17 2.07-4.39 2.66-6.74-1.88 1.19-3.72 2.44-5.53 3.73l.23-5.67c.34-1.55.63-3.13 1.35-4.56z"/><path fill="#7f5b46" d="M236.55 263.32l1.49-1 .73-.44 2.5 5.13 1.21 3.08.26.77-.26 2.26-4.54-4.96-1.39-4.84z"/><path fill="#afb2ad" d="M246.03 265.13l3.33-1.44c.6 1.28 1.21 2.62 1.04 4.07l-1.24 1.35-2.51-.76-.62-3.22z"/><path fill="#2e3034" d="M291.98 265.87l1.31 1.39-.23 5.67 5.53-3.73c-.59 2.35-1.59 4.57-2.66 6.74-1.11 2.19-1.77 4.85-4.04 6.17-3.46 2.31-6.66 5.2-10.69 6.48l-1.05-1.46c1.28-1.12 2.64-2.17 4.04-3.13l1.08-.72c2.24-1.17 2.22-3.71 2.36-5.9l1.2-.56c1.23.15 3.72.11 3.33-1.77-.79-1.42-1.63-2.8-2.45-4.18l2.27-5z"/><path fill="#606261" d="M250.4 267.76l2.78 1.05-2.21 4.11-1.92 1.11-2.6-1.33 2.71-3.59 1.24-1.35z"/><path fill="#404243" d="M222.33 274.84l.02-5.02 5.85 3.96-.03-2.87 1.68 3.95-1.46 3.91-6.06-3.93z"/><path fill="#d29c7e" d="M309.65 270.57c2.82 2.8 5 6.15 7.03 9.56l.42.74c-.41 1.28-.72 2.61-1.36 3.81-1.3.76-2.69 1.3-4.06 1.9-.32-4.61-3.22-8.3-4.87-12.43a23.96 23.96 0 0 1 2.07-2.84l.77-.74z"/><path fill="#565757" d="M299.66 272.62c3.13-.01 6.71 1.33 9.22-1.31a23.96 23.96 0 0 0-2.07 2.84c1.65 4.13 4.55 7.82 4.87 12.43l.4 3.57c1.24-.4 2.49-.79 3.72-1.24-1.29 1.04-2.61 2.08-3.58 3.45-1.73 4.88-.23 11.21-4.64 14.9l-1.61-2.2c-5.66 3.81-11.34 7.7-17.81 10.01l-1.25 2.69c-1.85 2.54-4.36 4.49-6.25 6.99-.52 1.42-.53 2.95-.71 4.44-2.37 2.09-4.48 4.47-6.59 6.82-4.63-.36-9.32-1.7-13.94-.53l1.15-2.15.39-.63.68.19c2.42.8 4.84 1.6 7.3 2.26l1.06-6.26 2.6.33c.26 1.26.55 2.52.86 3.79 1.35-4.67 1.79-9.64 4.24-13.93l-2.91.21c.77-2.47 1.23-5.46 3.73-6.83 1.97-1.64 4.51-.61 6.68-.08 1.15-2.91 1.96-5.99 3.57-8.7 1.22-1.47 2.89-2.48 4.4-3.62l7.05-.3c-.17-3.77-4.37-4.51-7.07-5.98l1.95-5.11 2.02-.1c3.3-.25 7.03-.01 9.56-2.56.15.93.23 1.87.24 2.81-1.43 2.1-3.31 3.92-4.23 6.34l3.54 1.77c1.63-2.43 3.66-4.94 3.6-8.03-.09-3.74-.97-7.59-3.02-10.75-2.06-2.4-5.3-3.2-8.05-4.51.23-.25.67-.76.9-1.02z"/><path fill="#4e4e4d" d="M325.17 274.99c2.62-1.32 5.52-1.9 8.45-2.01-.05 3.04 1.32 5.78 3.17 8.12-2.37 4.35-8.34 1.19-11.71 4.05-1.95 1.56-4.17 2.76-6.75 2.51.27-2.35.07-4.75-1.23-6.79l-.42-.74c3.29-.41 6.62-.53 9.94-.48l-1.45-4.66z"/><path fill="#848287" d="M288.83 276.82c-.31-1.98 1.96-3.87 3.33-1.77.39 1.88-2.1 1.92-3.33 1.77z"/><path fill="#393937" d="M298.76 273.64c2.75 1.31 5.99 2.11 8.05 4.51 2.05 3.16 2.93 7.01 3.02 10.75.06 3.09-1.97 5.6-3.6 8.03l-3.54-1.77c.92-2.42 2.8-4.24 4.23-6.34-.01-.94-.09-1.88-.24-2.81-1.45-3.27-3.59-6.28-6.68-8.18a52.55 52.55 0 0 0-3.39-1.63l2.15-2.56z"/><path fill="#7e807f" d="M229.07 282.85c-2.5-2.4-5.56-4.6-6.74-8.01l6.06 3.93 1.46-3.91c2.37 2.7 4.82 5.38 7.67 7.59 3.2 2.39 7.4 2.61 11.24 2.27 1.38-.15 2.76-.35 4.15-.54l1.59 1.4c-5.43 3.15-11.69.98-17.52.69-3.03-.03-5.61-1.62-7.91-3.42z"/><path fill="#5f605d" d="M291.89 282.11c2.27-1.32 2.93-3.98 4.04-6.17l.68.26 3.39 1.63-3.92.28.51 4.75-1.35 2.15 1.88 3.56-2.02.1-1.95 5.11c2.7 1.47 6.9 2.21 7.07 5.98l-7.05.3.57-2.09c-2.49 1.27-5.09 2.33-7.8 3.04.99-2.34 2.44-4.42 4.13-6.29-3.71-3.17-8.38-4.85-13.28-4.69-2.06.02-5.09-.8-6.06 1.68-2.47 4.71-5.64 8.98-8.88 13.18 3.88 1.39 7.95 2.09 12.05 2.35-1.91 2.08-3.35 4.56-5.43 6.49-3.32 1.66-6.87-.51-10.26-.79-2.25 1.36-3.48 3.87-4.81 6.06l-1.3-1.12c-1.06-.79-2.16-1.54-3.25-2.28-1.59 2.5-3 5.11-4.25 7.8-1.52-1.1-2.6-2.65-3.58-4.22l-2.86-1.14.13-2.77c3.66-.76 7.74-.52 10.81-3.01l-2.52-2.2c4.35-2 9.15-3.42 12.63-6.88 4.26-4.13 8.27-8.74 10.61-14.27-3.73 1.18-6.35 4.13-8.81 7-2.43 1.57-4.74 3.31-7.02 5.09-1.88 1.54-4.38 1.78-6.64 2.41-4.36 1.01-8.42 3.26-12.96 3.47l-.62-.47 5.06-2.73-1.4-4.05c3.28-.76 6.45-1.99 9.25-3.87 4.24-2.86 9.19-4.76 12.68-8.62l-2.24-.85c-.87-.27-1.74-.49-2.62-.71l-1.59-1.4-4.15.54 1.16-3.51c4.41 2.12 9.01 4.3 13.97 4.59 5.7.38 10.61-3.95 16.34-3.03-1.8 2.01-4.21 3.21-6.76 3.99l-.37 2.24c2.7.12 5.44.17 8.1-.41 4.03-1.28 7.23-4.17 10.69-6.48z"/><path fill="#b3b1b4" d="M319.27 277.28h.45v.45h-.45v-.45z"/><path fill="#d49e7e" d="M296.08 278.11l3.92-.28c3.09 1.9 5.23 4.91 6.68 8.18-3.65.06-7.57-.11-10.09-3.15l-.51-4.75z"/><path fill="#494a49" d="M224.03 281.44l5.04 1.41c2.3 1.8 4.88 3.39 7.91 3.42 5.83.29 12.09 2.46 17.52-.69.88.22 1.75.44 2.62.71l-6.84 4.02c-4.09.47-8.22.53-12.34.53-2.88-.07-5.9-.03-8.55-1.29-2.2-1.03-4.17-2.46-6.17-3.8l.81-4.31z"/><path fill="#bc8769" d="M317.1 280.87c1.3 2.04 1.5 4.44 1.23 6.79l-2.53 1.25-3.72 1.24-.4-3.57 4.06-1.9c.64-1.2.95-2.53 1.36-3.81z"/><path fill="#2c2e2e" d="M280.23 282.77l3.96 1.23c-1.4.96-2.76 2.01-4.04 3.13l1.05 1.46c-2.66.58-5.4.53-8.1.41l.37-2.24c2.55-.78 4.96-1.98 6.76-3.99z"/><path fill="#756e6a" d="M295.24 285.01l1.35-2.15c2.52 3.04 6.44 3.21 10.09 3.15-2.53 2.55-6.26 2.31-9.56 2.56l-1.88-3.56z"/><path fill="#7f7d74" d="M257.12 286.29l2.24.85c-3.49 3.86-8.44 5.76-12.68 8.62-2.8 1.88-5.97 3.11-9.25 3.87-3.48-1.37-7.14-2.21-10.82-2.84l-.46-4.07c4.95.51 9.94.48 14.91.79 3.41.33 6.36-1.66 9.22-3.2 2.31-1.29 4.55-2.71 6.84-4.02z"/><path fill="#8d8b83" d="M261.01 295.91c2.46-2.87 5.08-5.82 8.81-7-2.34 5.53-6.35 10.14-10.61 14.27-3.48 3.46-8.28 4.88-12.63 6.88a35.22 35.22 0 0 1-6.12-1.97c3.35-1.48 6.95-2.17 10.43-3.23 4.44-1.47 7.68-5.12 10.12-8.95z"/><path fill="#83847c" d="M270.73 291.71c.97-2.48 4-1.66 6.06-1.68l4.87 1.54-.43 7.99c-2.31 2.68-4.87 5.13-7.33 7.68-4.1-.26-8.17-.96-12.05-2.35 3.24-4.2 6.41-8.47 8.88-13.18z"/><path fill="#72736f" d="M276.79 290.03c4.9-.16 9.57 1.52 13.28 4.69-1.69 1.87-3.14 3.95-4.13 6.29 2.71-.71 5.31-1.77 7.8-3.04l-.57 2.09c-1.51 1.14-3.18 2.15-4.4 3.62-1.61 2.71-2.42 5.79-3.57 8.7-2.17-.53-4.71-1.56-6.68.08-2.5 1.37-2.96 4.36-3.73 6.83l2.91-.21c-2.45 4.29-2.89 9.26-4.24 13.93-.31-1.27-.6-2.53-.86-3.79l-2.6-.33c.41-3.3 1.08-6.55 2.21-9.67.41-1.63 1.7-3.83-.24-4.97 1.76-3.77 5.12-6.34 8.05-9.14.06 1.68.22 3.35.38 5.03 3.4-1.57 4.74-6.7 1.91-9.35l-1.08-1.23c.04-2.67.22-5.33.43-7.99l-4.87-1.54z"/><path fill="#73736c" d="M253.99 301l7.02-5.09c-2.44 3.83-5.68 7.48-10.12 8.95-3.48 1.06-7.08 1.75-10.43 3.23a35.22 35.22 0 0 0 6.12 1.97l2.52 2.2c-3.07 2.49-7.15 2.25-10.81 3.01l-.13 2.77 2.86 1.14c.98 1.57 2.06 3.12 3.58 4.22 1.02.46 2.06.89 3.1 1.33.73-2.7 2.09-5.19 4.4-6.85l1.3 1.12-.97 2.77 3.41.64-5.76 1.86v2.46c1.62-.2 3.25-.38 4.86-.66l.26 1.78.85.25.74-.52-.1-1.77a38.8 38.8 0 0 1 2.42-.14l.94.64-.98 3.73 3.76.73.48-.72 2.11-2.64 2.81 1.61-1.47 3.97-5.12-.1-.68-.19-.82-1.76-2.01.86-1.52-.82 1.22-1.12c.25-2.01-2.56-.69-1.9.74l-4.02 1.44 1.35 2.3 3.88-1.14-.34 1.75 3.77-1.62-1.15 2.15-.96 1.81-3.9 1.8a108.93 108.93 0 0 0 .26 3.07l-4.21 1.91c.35-2.75 1.7-5.92-.36-8.31l-1.52 2.48-5.7.09-2.14-.02c.83-1.49 1.55-3.03 2.16-4.61 1.64.12 3.33.3 4.95-.09 1.96-1.15 3.02-3.3 4.39-5.02-4.03-.33-8.43.34-12.07-1.83-3.47-1.84-5.43-5.38-7.51-8.54.93 2.98 1.79 6 2.88 8.94l.3.78c-1.41-1.42-2.88-2.77-4.36-4.1.25 1.34.51 2.69.87 4.01l-.99 1.09c1.67 3.39 3.74 6.6 6.42 9.29-6.81-1.56-10.53-8.66-10.08-15.26 2.51-5.23 5.31-10.37 6.54-16.09 4.54-.21 8.6-2.46 12.96-3.47 2.26-.63 4.76-.87 6.64-2.41m-1.61 34.32c-1.12 1.41 1.4 2.64 2.23 1.31 1.11-1.42-1.41-2.65-2.23-1.31z"/><path fill="#474949" d="M281.23 299.56l1.08 1.23-2.29 4.32c-2.93 2.8-6.29 5.37-8.05 9.14-1.59 3.16-3.23 6.31-5.18 9.27l-.65-2.59-2.63 1.11 1.91 5.37c-.72.87-1.42 1.75-2.11 2.64l-.3-3.56c-.99-.04-1.98-.1-2.96-.18l-.94-.64a38.8 38.8 0 0 0-2.42.14l-1.75.26c-1.61.28-3.24.46-4.86.66v-2.46l5.76-1.86-3.41-.64.97-2.77c1.33-2.19 2.56-4.7 4.81-6.06 3.39.28 6.94 2.45 10.26.79 2.08-1.93 3.52-4.41 5.43-6.49 2.46-2.55 5.02-5 7.33-7.68m-16.53 16.17c-.81 1.29-1.22 2.76-1.73 4.17l5.03.43c.7-1.78 1.15-3.63 1.21-5.53-1.51.21-3.19.04-4.51.93z"/><path fill="#898a8c" d="M282.31 300.79c2.83 2.65 1.49 7.78-1.91 9.35l-.38-5.03 2.29-4.32z"/><path fill="#3b3c3b" d="M288.16 315.07c6.47-2.31 12.15-6.2 17.81-10.01l1.61 2.2c-5.22 4.58-10.97 8.51-16.22 13.04l-4.45-2.54 1.25-2.69z"/><path fill="#303233" d="M264.7 315.73c1.32-.89 3-.72 4.51-.93-.06 1.9-.51 3.75-1.21 5.53l-5.03-.43c.51-1.41.92-2.88 1.73-4.17z"/><path fill="#838487" d="M266.79 323.52c1.95-2.96 3.59-6.11 5.18-9.27 1.94 1.14.65 3.34.24 4.97-1.13 3.12-1.8 6.37-2.21 9.67-.31 2.09-.68 4.17-1.06 6.26-2.46-.66-4.88-1.46-7.3-2.26 1.7.08 3.41.08 5.12.1l1.47-3.97-2.81-1.61-1.91-5.37 2.63-1.11.65 2.59z"/><path fill="#4e4e4b" d="M244.6 323.4c1.25-2.69 2.66-5.3 4.25-7.8l3.25 2.28c-2.31 1.66-3.67 4.15-4.4 6.85l-3.1-1.33z"/><path fill="#5f5f5d" d="M232.81 318.22c2.08 3.16 4.04 6.7 7.51 8.54 3.64 2.17 8.04 1.5 12.07 1.83-1.37 1.72-2.43 3.87-4.39 5.02-1.62.39-3.31.21-4.95.09-3.96-1-7.59-3.05-10.55-5.85-.36-1.32-.62-2.67-.87-4.01 1.48 1.33 2.95 2.68 4.36 4.1 1.48 2.08 3.92 2.72 6.32 3.04-1.81-1.89-4.11-3.14-6.62-3.82-1.09-2.94-1.95-5.96-2.88-8.94z"/><path fill="#262725" d="M286.91 317.76l4.45 2.54c-3.53 3.31-7.22 6.45-11.41 8.89.18-1.49.19-3.02.71-4.44 1.89-2.5 4.4-4.45 6.25-6.99z"/><path fill="#4d4f4e" d="M226.06 343.54c1-6.83-1.53-14.1 1.79-20.57-.45 6.6 3.27 13.7 10.08 15.26l2.96.08 2.14.02 3 .79c-.34 2.09-.3 4.44-1.7 6.18-.99 1.55-3.03 1.4-4.63 1.37-3.98-.11-7.43-2.29-10.62-4.44l-3.02 1.31z"/><path fill="#919194" d="M254.94 326.07l1.75-.26.1 1.77-.74.52-.85-.25-.26-1.78z"/><path fill="#343432" d="M260.05 326.31l2.96.18.3 3.56-.48.72-3.76-.73.98-3.73z"/><path fill="#83807b" d="M235.69 327.16c2.51.68 4.81 1.93 6.62 3.82-2.4-.32-4.84-.96-6.32-3.04l-.3-.78z"/><path fill="#86877e" d="M231.51 328.94l.99-1.09c2.96 2.8 6.59 4.85 10.55 5.85-.61 1.58-1.33 3.12-2.16 4.61l-2.96-.08c-2.68-2.69-4.75-5.9-6.42-9.29z"/><path fill="#aca9ad" d="M255.93 330.6c-.66-1.43 2.15-2.75 1.9-.74l-1.22 1.12-.68-.38z"/><path fill="#515153" d="M251.91 332.04l4.02-1.44.68.38 1.52.82-.99 1.4-3.88 1.14-1.35-2.3z"/><path fill="#9a9592" d="M258.13 331.8l2.01-.86.82 1.76-.39.63-3.77 1.62.34-1.75.99-1.4z"/><path fill="#a09c9c" d="M252.38 335.32c.82-1.34 3.34-.11 2.23 1.31-.83 1.33-3.35.1-2.23-1.31z"/><path opacity=".11" d="M259.42 335.48c4.62-1.17 9.31.17 13.94.53 1.6 1.64 3.29 3.39 5.62 3.93 6.71 1.99 13.56 3.56 20.49 4.59 5.99.93 12.06.79 18.09 1.12l1.33 2.98c1.65-.94 3.29-2.25 5.31-2.11 2.84-.16 5.29 1.43 7.63 2.83l2.18-2.17 2.38 3.31 3.43-.76c2.19 2.07 4.39 4.31 5.17 7.32-2.06.83-4.16.55-6.08-.5l1.66-2.71c-3.97 1.36-7.69 3.42-11.74 4.57-1.64-.22-3.04-1.2-4.5-1.89l-.07 2.2c-2.09.16-4.2.23-6.26.66-1.99.33-3.43 1.84-4.91 3.08l-2.91-1.01c-1.74.9-3.45 1.92-5.34 2.49-2.95.41-5.92-.14-8.88.15-7.93 1.5-16.04.73-24.01 1.92-2.03.37-3.74-.9-5.39-1.85 3.72-1.47 7.57-3.2 10.24-6.29 2.3-2.78 2.35-6.71 1.31-10.01-1.48-2.46-3.34-4.86-6.03-6.05-4.34-2.27-10.15-.49-13.62-4.52l.96-1.81z"/><path fill="#615f5c" d="M250.25 335.76c2.06 2.39.71 5.56.36 8.31-.42 1.4-.4 3.67-2.33 3.79-3.19.39-6.11 1.8-9.22 2.47-3.18-.59-6.42-2.56-9.53-.51 1 .85 1.94 1.84 3.12 2.47 3.96.68 8.07.2 11.95 1.39l-5.39 1.66c-2.67-.34-5.54-.33-7.95-1.67-2.01-1.44-3.93-3.15-5.2-5.3-.35-1.34-.19-2.73-.15-4.08l.15-.75 3.02-1.31c3.19 2.15 6.64 4.33 10.62 4.44 1.6.03 3.64.18 4.63-1.37 1.4-1.74 1.36-4.09 1.7-6.18l-3-.79 5.7-.09 1.52-2.48z"/><path fill="#323233" d="M254.56 339.09l3.9-1.8c3.47 4.03 9.28 2.25 13.62 4.52 2.69 1.19 4.55 3.59 6.03 6.05l-5.42-.11-.77-.03c-4.65-.95-9.41-1.46-13.99-2.73-1.5-.31-2.28-1.7-3.11-2.83l-.26-3.07m3.93 1.28c-.85 1.17 1.19 2.49 2.08 1.5.85-1.18-1.19-2.5-2.08-1.5z"/><path fill="#5c5957" d="M258.49 340.37c.89-1 2.93.32 2.08 1.5-.89.99-2.93-.33-2.08-1.5z"/><path fill="#50504d" d="M250.61 344.07l4.21-1.91c.83 1.13 1.61 2.52 3.11 2.83 4.58 1.27 9.34 1.78 13.99 2.73-1.37-.03-2.75-.03-4.12-.01l-4.2.06 1.51 6.03-5.94-3.76c.49 2.69.7 5.51 1.91 8.01.68 1.51 2.54 1.68 3.99 1.58 2.39-.09 4.34-1.64 6.12-3.08l3.24-2.86-1.74-5.94c1.8.07 3.61.09 5.42.11 1.04 3.3.99 7.23-1.31 10.01-2.67 3.09-6.52 4.82-10.24 6.29-3.5.31-6.98 1.06-10.5 1.01-3.13-.81-5.88-2.65-8.94-3.7 1.86-1.19 4.04-2.18 5.21-4.16 1.83-3.03 2.48-6.56 3.29-9.96l-2.19-2.34c-.58 4.07-.95 8.34-3.08 11.97-1.89-1.15-3.78-2.3-5.75-3.3-3.88-1.19-7.99-.71-11.95-1.39-1.18-.63-2.12-1.62-3.12-2.47 3.11-2.05 6.35-.08 9.53.51 3.11-.67 6.03-2.08 9.22-2.47 1.93-.12 1.91-2.39 2.33-3.79z"/><path fill="#434341" opacity=".9" d="M225.76 351.29c-1.18-2.24-.49-4.74.15-7-.04 1.35-.2 2.74.15 4.08 1.27 2.15 3.19 3.86 5.2 5.3 2.41 1.34 5.28 1.33 7.95 1.67l-2.45.81c3.51.83 7 1.75 10.4 2.95l-2.42 1.53c-4.27-1.36-8.66-2.24-12.95-3.49-1.98-1.98-4.29-3.64-6.03-5.85z"/><path fill="#6f6c66" d="M253.43 345.01l2.19 2.34c-.81 3.4-1.46 6.93-3.29 9.96-1.17 1.98-3.35 2.97-5.21 4.16l-2.38-.84 2.42-1.53c1.07-.69 2.15-1.38 3.19-2.12 2.13-3.63 2.5-7.9 3.08-11.97z"/><path fill="#706b69" d="M263.6 347.77l4.2-.06c-.4 2.2-1.75 4.6-.67 6.79 1.26.85 2.68 1.42 4.06 2.05-1.78 1.44-3.73 2.99-6.12 3.08-1.45.1-3.31-.07-3.99-1.58-1.21-2.5-1.42-5.32-1.91-8.01l5.94 3.76-1.51-6.03z"/><path fill="#7e7e82" d="M267.8 347.71l4.12.01.77.03 1.74 5.94-3.24 2.86c-1.38-.63-2.8-1.2-4.06-2.05-1.08-2.19.27-4.59.67-6.79z"/><path fill="#2f3130" d="M244.6 353.68c1.97 1 3.86 2.15 5.75 3.3l-3.19 2.12c-3.4-1.2-6.89-2.12-10.4-2.95l2.45-.81 5.39-1.66z"/></svg>