<svg xmlns="http://www.w3.org/2000/svg" width="682.667" height="682.667" viewBox="0 0 512 512"  xmlns:v="https://vecta.io/nano"><path fill="#fffffe" d="M279.24 53.19l.65-.66 1.57.81c1.57 5.38 1.61 11.17 3.93 16.34 1.09 1.94 2.67 3.54 3.99 5.33l-2.16 2.26c-1.05.65-2.13 1.27-3.22 1.85-1.53.02-3.05-.03-4.57 0l-.85.05c-1.72-1.3-3.39-2.66-4.84-4.23.96-1.39 2.46-2.35 3.27-3.84 1.71-5.83.68-12.07 2.23-17.91z"/><path fill="#39383c" opacity=".95" d="M284 79.12l3.22-1.85c-.7 1.09-1.31 2.25-1.56 3.54 3.49 1.93 5.69 5.33 8.75 7.79.25 2.09.4 4.2.6 6.3 3.51.25 6.97 1.19 9.76 3.41l-3.52-.3c-.82-.8-1.65-1.59-2.5-2.35-.78 1.26-1.51 2.6-1.55 4.13-.1 1.56-.13 3.12-.18 4.69-.05 1.13-.07 2.26-.08 3.39.19 1.85.55 3.69.8 5.54.15 4.48 1.25 8.89 3.15 12.94.2 1.57.24 3.15.27 4.74-1.79-2.17-3.1-4.66-4.48-7.09l-.14-2.19c-.1-2.31-.29-4.61-.43-6.91l-.04-.82c-.08-5.83-.74-11.67-2-17.36-.36-2.59-.57-5.22-1.36-7.72-1.86-1.82-3.39-3.92-5.01-5.95l-3.71-.63a45.39 45.39 0 0 0 .01-3.3z"/><path fill="#121110" opacity=".48" d="M278.58 79.17l.85-.05-.06 2.12-.03.69-6.44.08c2.08-.54 3.95-1.59 5.68-2.84z"/><path fill="#9ba191" d="M279.43 79.12H284l-.01 3.3c-.73 2.68 1.02 5.08 1.54 7.63l-1.98 2.98.5 2.02-1.96.66-2.45-1.32-.57-8.36.27-4.1.03-.69.06-2.12m2.67 1.13l-.41.71.42.72h.82l.41-.72-.41-.71h-.83z"/><path fill="#dedde0" d="M282.1 80.25h.83l.41.71-.41.72h-.82l-.42-.72.41-.71z"/><path fill="#42423a" opacity=".62" d="M279.34 81.93l.03-.69-.03.69z"/><path fill="#444753" d="M271.34 82.47l1.56-.46 6.44-.08-.27 4.1c-2.57-.43-5.04-1.29-7.26-2.67l.71 7.86c.36 8.7 3.38 17.36 1.49 26.06l-1.53-6.58c-.36-5.17.3-10.37-.51-15.51-.68-4.2-.92-8.47-.63-12.72z"/><path fill="#7a7d82" d="M271.81 83.36c2.22 1.38 4.69 2.24 7.26 2.67.04 2.8.28 5.58.57 8.36.69 9.53 1.45 19.06 2.62 28.54-.08 9.5 1.11 18.93 1.37 28.42l-1.53-1.49a104.85 104.85 0 0 1-.2-5.01c.01-2.67-.1-5.36-.68-7.98-.81-16.62-2.56-33.17-3.59-49.78-1.49.24-3.18.25-4.35 1.34l-.76 2.79-.71-7.86z"/><path fill="#6f6f73" d="M285.53 90.05c-.52-2.55-2.27-4.95-1.54-7.63l3.71.63 5.01 5.95-.79 4.83c.18 1.46-1.25 2.75-2.61 1.95l-.25-8.91-2.16-.1c-.27 2.88-.78 5.96.52 8.68 1.59 3.39 1.48 7.19 1.97 10.83-.63 1.53-1.56 2.91-2.54 4.24-.77-1.69-1.03-3.54-1.15-5.38-.12-3.42-.55-6.84-1.65-10.09l-.5-2.02 1.98-2.98z"/><path fill="#bebfc8" d="M273.28 88.43c1.17-1.09 2.86-1.1 4.35-1.34l3.59 49.78-2.7.16-.57-3.23c-.1-1.18-.75-1.77-1.96-1.78l.02-.9 1.25-1.17-.4-.72-.76.16-1.94.52.05-1.73c.19-3.63.08-7.27-.2-10.9 1.89-8.7-1.13-17.36-1.49-26.06l.76-2.79m5.06 28.85v.45h.45v-.45h-.45m-2.38 9.01l-.41.72.41.73h.81l.41-.72-.41-.73h-.81z"/><path fill="#a0a693" d="M286.9 86.77l2.16.1c.33 2.96.18 5.94.25 8.91 1.36.8 2.79-.49 2.61-1.95l.79-4.83c.79 2.5 1 5.13 1.36 7.72l-.74.5c-.99.87-2.81 1.37-2.71 2.98-.12 2.07-.21 4.2-1.23 6.08-.49-3.64-.38-7.44-1.97-10.83-1.3-2.72-.79-5.8-.52-8.68z"/><path fill="#acb49e" d="M279.64 94.39l2.45 1.32 1.96-.66c1.1 3.25 1.53 6.67 1.65 10.09-.93 1.46-1.93 2.89-2.52 4.52 1.46 1.53 3.15 2.99 3.72 5.11-1.35.78-3.21.97-4.12 2.32.28 3.43.31 7.2 1.87 10.3l2.3-1.34c-.32 5.39.7 10.77.03 16.15 1.13 5.59 2.74 11.41 1.48 17.12l-1.22.85c-1.87 1.3-1.14 4.05-1.43 6.01-.51-4.98-2.24-9.79-2.18-14.83-.26-9.49-1.45-18.92-1.37-28.42-1.17-9.48-1.93-19.01-2.62-28.54z"/><path fill="#838387" d="M297.2 99.79c.04-1.53.77-2.87 1.55-4.13l2.5 2.35 1.27 3.08c-1.22 2.78-2.17 5.87-.54 8.72l3.49-.36c.4 1.48.2 3.29 1.29 4.5l1.74 1.61-.35 2.78-3.34-3.43c-2.85 1.4-3.43 4.88-3.03 7.75l4.04-.24.11 4.41-5.04-.48c-1.9-4.05-3-8.46-3.15-12.94l2.98-.9c.04-1.78-.28-3.55-.85-5.23l-2.93.59c.01-1.13.03-2.26.08-3.39l2.93-.59c.61-2.05-.96-3.53-2.75-4.1m3.01 19.63c-.82.75-.79 3.18.6 3.14.81-.75.83-3.23-.6-3.14z"/><path fill="#898e84" d="M290.62 100.2c-.1-1.61 1.72-2.11 2.71-2.98-.33 4.49.44 9-.38 13.46-.33 1.91 1.91 2.52 3.12 3.4l.04.82c-1.3.32-2.93.57-3.17 2.18.5 2 1.49 3.83 2.44 5.65l1.16-.92.14 2.19c-1.39-.04-1.98.6-1.75 1.93-.04 1.59-.01 3.19.01 4.78l-3.2-2.05c.03-2.47.34-4.93.41-7.4-.67-1.84-1.89-3.84-3.92-4.34-1.31.92-2.54 1.94-3.63 3.1.86 1.16 2.18 1.69 3.48 2.21l.08 2.43c-.31.34-.91 1.04-1.21 1.39l-2.3 1.34c-1.56-3.1-1.59-6.87-1.87-10.3.91-1.35 2.77-1.54 4.12-2.32-.57-2.12-2.26-3.58-3.72-5.11.59-1.63 1.59-3.06 2.52-4.52.12 1.84.38 3.69 1.15 5.38.98-1.33 1.91-2.71 2.54-4.24 1.02-1.88 1.11-4.01 1.23-6.08z"/><path fill="#b0aeb8" d="M293.33 97.22l.74-.5c1.26 5.69 1.92 11.53 2 17.36-1.21-.88-3.45-1.49-3.12-3.4.82-4.46.05-8.97.38-13.46z"/><path fill="#6a6a6f" d="M301.25 98.01l3.52.3c1.52 1 1.81 3.01 1.92 4.68.16 3.65-.13 7.31.07 10.96-1.09-1.21-.89-3.02-1.29-4.5l-3.49.36c-1.63-2.85-.68-5.94.54-8.72-.4-1.04-.81-2.08-1.27-3.08z"/><path fill="#9e9ea6" d="M297.2 99.79c1.79.57 3.36 2.05 2.75 4.1l-2.93.59.18-4.69z"/><path fill="#f4f2f8" d="M296.94 107.87l2.93-.59c.57 1.68.89 3.45.85 5.23l-2.98.9-.8-5.54z"/><path fill="#010101" opacity=".63" d="M272.48 110.7l1.53 6.58c.28 3.63.39 7.27.2 10.9-1.68-.86-3.34-1.77-4.84-2.92 2.61-4.39 2.9-9.59 3.11-14.56z"/><path fill="#aeacb3" d="M292.94 117.08c.24-1.61 1.87-1.86 3.17-2.18l.43 6.91-1.16.92c-.95-1.82-1.94-3.65-2.44-5.65z"/><path fill="#555554" d="M301.78 122.66c-.4-2.87.18-6.35 3.03-7.75l3.34 3.43c.27 3.21 1.57 6.24 1.7 9.46-.58 2.76-2.15 5.19-3.55 7.59l-2.48.62-.22-2.54 2.68-1.77-.34-1.86a28.03 28.03 0 0 0-4.03-1.62l-.08 4.2-1.81-.04-.03 1.13c-1.15 2.1-1.3 4.47-1.13 6.82l.07 4.67a7.01 7.01 0 0 0 1.76-2.17c.14 4.96-.39 9.91-1.26 14.78-.44 1.89-2.68 2.87-2.95 4.85-.38 2.58-.48 5.19-.53 7.8l-2.26-1.56c-.06-3.95.82-7.86.53-11.82l.89 3.94c1.23-1.22 2.81-2.28 3.46-3.96-.57-7.59-.26-15.22-.82-22.81-.15-2.93-1.57-5.54-2.82-8.12-.23-1.33.36-1.97 1.75-1.93 1.38 2.43 2.69 4.92 4.48 7.09-.03-1.59-.07-3.17-.27-4.74 1.67.23 3.35.4 5.04.48.02-1.48-.02-2.95-.11-4.41l-4.04.24z"/><path fill="#fdfbff" d="M278.34 117.28h.45v.45h-.45v-.45z"/><path fill="#74796d" d="M284.6 120.02c1.09-1.16 2.32-2.18 3.63-3.1l-.15 5.31c-1.3-.52-2.62-1.05-3.48-2.21z"/><path fill="#b1b8a4" d="M288.23 116.92c2.03.5 3.25 2.5 3.92 4.34l-.41 7.4-1.29.55c.97 2.1 2.67 4.16 2.1 6.62-.91 4.66.93 9.24.45 13.91-.32 2.47.61 4.8 1.22 7.14.29 3.96-.59 7.87-.53 11.82l2.26 1.56.05.89c-.23 2.17-.99 4.23-1.31 6.38 0 3.23.87 6.4.94 9.63.13 1.14-.23 3.08-1.75 2.95.23-7.45-1.58-14.71-1.91-22.12-.35-5.4-1.4-10.73-1.54-16.14-.23-6.46-1.57-12.85-1.33-19.33.17-2.66-.41-5.28-.94-7.86l-.08-2.43.15-5.31z"/><path fill="#a7a5ad" d="M300.21 119.42c1.43-.09 1.41 2.39.6 3.14-1.39.04-1.42-2.39-.6-3.14z"/><path fill="#6f7071" d="M286.95 126.05l1.21-1.39c.53 2.58 1.11 5.2.94 7.86-.24 6.48 1.1 12.87 1.33 19.33.14 5.41 1.19 10.74 1.54 16.14.33 7.41 2.14 14.67 1.91 22.12-2.06-1.72-1.89-4.85-2.48-7.28-.33-2.71-.71-5.78-3.46-7.1-2.95 6.03-1.1 12.79-.87 19.15-.02 1.46-.16 2.93-.59 4.34l-1.63-.47c2.11-5.41.28-11.36-.61-16.86l-.06-.71c.97-1.23 1.29-2.85.74-4.33-.31-1.64-.55-3.29-.77-4.94l2.01.93a100.32 100.32 0 0 0-.01-3.88c.43 1.53.88 3.1 1.9 4.37 3.05-3.93.32-9.01-.81-13.16l1.22-.85c1.26-5.71-.35-11.53-1.48-17.12.67-5.38-.35-10.76-.03-16.15z"/><path fill="#e8edf4" d="M275.96 126.29h.81l.41.73-.41.72h-.81l-.41-.73.41-.72z"/><path fill="#797e6f" d="M294.93 125.93c1.25 2.58 2.67 5.19 2.82 8.12.56 7.59.25 15.22.82 22.81-.65 1.68-2.23 2.74-3.46 3.96l-.89-3.94c-.61-2.34-1.54-4.67-1.22-7.14.48-4.67-1.36-9.25-.45-13.91.57-2.46-1.13-4.52-2.1-6.62l1.29-.55 3.2 2.05-.01-4.78z"/><path fill="#69696b" opacity=".85" d="M301.91 128.22a28.03 28.03 0 0 1 4.03 1.62l.34 1.86-2.68 1.77.22 2.54-1.58 1.7c-.73 1.63-1.17 3.38-1.55 5.12a7.01 7.01 0 0 1-1.76 2.17l-.07-4.67c1.82-1.8 3.26-4.65 1.13-6.82l.03-1.13 1.81.04.08-4.2z"/><path fill="#7f6e5c" d="M274.16 129.91l1.94-.52-.09 1.73-.02.9.15 1.8c-.08 9.05 1.87 17.94 1.8 26.99-1.09.2-2.17.43-3.25.7l-2.55.73c.02 2.08.23 4.15.52 6.21l-1.45-.51-.29-4.14c1.16-4 3.85-7.56 3.9-11.85a110.78 110.78 0 0 0-.48-16.29 81.45 81.45 0 0 1-.21-3.82 124.21 124.21 0 0 1 .03-1.93z"/><path fill="#eaeef2" d="M276.1 129.39l.76-.16.4.72-1.25 1.17.09-1.73z"/><path fill="#010000" opacity=".78" d="M267.92 134.31c.75-2.76 4.05-2.07 6.21-2.47l.21 3.82c-2.6 2.9-3.43 6.92-6.12 9.73l-1.05-2.16.08-.93c.33-2.65.34-5.34.67-7.99z"/><path fill="#e9ecf0" d="M275.99 132.02c1.21.01 1.86.6 1.96 1.78l-1.81.02-.15-1.8z"/><path fill="#afb2bc" d="M276.14 133.82l1.81-.02.57 3.23 2.7-.16c.58 2.62.69 5.31.68 7.98-.76-.41-1.53-.48-2.32-.21-.34 3.67.24 7.35.75 10.98.15 1.42 1.02 2.58 1.72 3.78l-.95 1.87-3.16-.46c.07-9.05-1.88-17.94-1.8-26.99m2.26 9.2l2.28-.3c.9-1.42.53-3.13.39-4.68-1.98.38-1.71 3.43-2.67 4.98z"/><path fill="#090908" opacity=".2" d="M299.99 133.51c2.13 2.17.69 5.02-1.13 6.82-.17-2.35-.02-4.72 1.13-6.82z"/><path fill="#eab998" d="M274.34 135.66a110.78 110.78 0 0 1 .48 16.29c-.05 4.29-2.74 7.85-3.9 11.85-1.72 1.98-3.43 4.11-5.93 5.13-2.05.83-3.41 2.61-5.06 3.99-1.22.68-2.61.92-3.92 1.32-2.54-1.48-4.6-3.78-4.29-6.89 4.46-4.82 9.62-9.34 12.33-15.45l2.26-4.55 1.91-1.96c2.69-2.81 3.52-6.83 6.12-9.73z"/><path fill="#cdcdd8" d="M278.4 143.02c.96-1.55.69-4.6 2.67-4.98.14 1.55.51 3.26-.39 4.68l-2.28.3z"/><path opacity=".08" d="M302.24 137.71c1.81 1.13 1.25 3.53 1.75 5.33 6.4 4.17 15.11 3.57 20.6 9.3 2.99 1.91 6.08 3.66 8.76 6.03 2.45.1 4.97-.06 7.23 1.08 2.5 1.38 5.28.48 7.93.28 1.35 1.61 2.49 3.7 4.72 4.18 2.26.67 3.55-1.82 5.06-3a73.93 73.93 0 0 0 1.07 4.14c2.39.43 4.26 1.96 5.96 3.61 1.1-1.34 2.06-2.78 3.01-4.23 1.13 1.28 2.13 2.67 3.33 3.88 2.63.95 5.28 1.86 7.61 3.45 1.82 1.56 3.99-.41 6.04.07 3.34.53 6.77.49 10.08 1.22l.29.61c-1.58.6-3.97.23-4.55 2.22 3.2.63 6.57.63 9.47-1.04.18.35.56 1.04.75 1.39 1.04-.45 2.07-.93 3.1-1.42l-.97 2.38c2.47.44 5 .38 7.48.77 1.36.54 2.23 1.84 3.37 2.73 2.14-.04 4.29.1 6.42.46l2.03-1.43 1.61 1.31 2.34-.2.7 2.5c1.95-.01 3.91.22 5.61 1.28 1.16-1.08 1.97-3.13 3.9-2.67 2.26-.19 2.8 2.4 3.91 3.85l2.09-3.7c2.59.88 5.06 2.46 5.35 5.42 1.79-1.65 3.54-3.41 5.75-4.49 2.87 1.01 4.34 3.82 6.18 6.02 2.47-.14 2.78-3.08 3.85-4.79 1.02 1.13 1.75 2.68 3.16 3.39 1.59-.22 3.03-.98 4.61-1.28 1.89-.03 2.57 1.9 3.45 3.21 2.55-.98 4.85-2.69 7.57-3.16 1.38.65 2.54 1.82 4.05 2.18 1.08-.34 2.13-.8 3.2-1.22l.6 3.45c2.65-.71 5.49-2.29 8.09-.57l.4-1.53a29.11 29.11 0 0 0 3.56 1.31l3.38-4.8c1.89 1.42.59 5.02 2.9 6.25.99-.06 1.97-.16 2.96-.3v28.54c-1.38-.19-2.88-.76-4.16.05-2.12 1.24-3.32 3.52-4.89 5.33l-2.99-5.79c-1.32.7-2.65 1.38-4.01 2.01l-2.27-1.01-.57 1.76c-.92-.61-1.77-1.29-2.58-2.02-3.81.26-7.6-1.34-11.28.31l-3.17-2.18-2.28 2.74-5.8-1.91a65.66 65.66 0 0 0-4.12 1.79c-1.2-1.67-2.37-3.36-3.75-4.88l-3.06 2.68c-2.06-.97-4.08-2.11-6.35-2.5l-.5 1.86a130.79 130.79 0 0 0-3.46-2.33l-4.66 1.25c-1.76-1.19-3.4-2.53-5.15-3.73-2.14.72-4.18 1.74-6.38 2.26-1.67.49-3.14-.74-4.67-1.16-1.18-.51-2.44.09-3.65.11-1.53-.55-2.89-1.45-4.4-2.03-3.2-.25-6.11 1.48-9.19 2.05-2.13-.09-4.16-.87-6.24-1.28-.54-1.17-.7-2.72-2.11-3.17l-2.66 2.95-1.84.18c-.15-.94-.28-1.87-.4-2.8-4.39-3.02-9.48.86-14.2.57-2.34-.87-4.29-2.84-6.89-2.9-5.37-.59-10.79-2.47-16.2-1.44-2.36-.33-4.35-2.53-6.82-1.87-3.64.82-7.42.34-11.04 1.31-4.19-.93-8.35-2.03-12.47-3.24-1.89-.64-4.28-.09-5.43 1.6-.27 2.53.83 5 .62 7.54-.31 1.55-.9 3.03-1.38 4.54-.78-2.46-1.67-4.88-2.27-7.38-.72-3.61-.1-7.24.19-10.85-.38-6.64-5.73-11.26-9.27-16.41l-.43-.55c-2.27-3.52-6.34-5-9.65-7.29l-4.17-2.74-.05-.89c.05-2.61.15-5.22.53-7.8.27-1.98 2.51-2.96 2.95-4.85.87-4.87 1.4-9.82 1.26-14.78.38-1.74.82-3.49 1.55-5.12z"/><path fill="#5c5958" opacity=".85" d="M257.78 140.48c3.22-1.52 6.75-.04 9.47 1.82l-.08.93-9.39-2.75z"/><path fill="#424344" d="M249.68 144.73c2.37-1.96 5.24-3.19 8.1-4.25l9.39 2.75 1.05 2.16-1.91 1.96c-2.06-1.76-4.32-3.71-7.25-3.37-5.45-.44-8.55 4.44-11.97 7.76l-.48-1.86c.94-1.76 1.46-3.85 3.07-5.15z"/><path fill="#555655" d="M247.09 151.74c3.42-3.32 6.52-8.2 11.97-7.76v.88l-1.08 1.39c-2.32.67-5.17.85-6.55 3.14-1.64 1.71-.85 4.13-.29 6.11l3.59.05.37 3.54c-4.06 1.58-8.28 2.66-12.36 4.16l-.72-.4c.13-4.56.29-10.25 4.59-12.97l.48 1.86z"/><path fill="#73706e" d="M259.06 143.98c2.93-.34 5.19 1.61 7.25 3.37l-2.26 4.55c-3.3 2.69-5.99 6-8.82 9.16l-.13-1.97-.37-3.54-3.59-.05c-.56-1.98-1.35-4.4.29-6.11 1.38-2.29 4.23-2.47 6.55-3.14-.13 2.17.35 4.76 2.95 5.1l2.24-1.52c.54-2.79-2.27-3.7-4.11-4.97v-.88z"/><path fill="#d5d3de" d="M279.58 144.64c.79-.27 1.56-.2 2.32.21l.2 5.01c-.14 3.15 1.4 6.57-.05 9.54-.7-1.2-1.57-2.36-1.72-3.78-.51-3.63-1.09-7.31-.75-10.98z"/><path fill="#8a898d" d="M259.06 144.86c1.84 1.27 4.65 2.18 4.11 4.97l-2.24 1.52c-2.6-.34-3.08-2.93-2.95-5.1l1.08-1.39z"/><path fill="#3e3c3a" d="M282.1 149.86l1.53 1.49c-.06 5.04 1.67 9.85 2.18 14.83l.34 2.78a100.32 100.32 0 0 1 .01 3.88l-2.01-.93c-1.69-2.86-6.03-2.9-8.31-.76-.12 1.86-.25 3.73-.18 5.61-2.2-.06-4.4-.23-6.59.01-1.26.64-1.7 1.65-1.29 3.03.98.86 2.09 1.56 3.19 2.29-.35 2.13-1.39 4.23-1.24 6.41 1.44 1.38 2.71 2.99 2.44 5.12-.47 2.43-.7 4.95-1.65 7.26-1.46-1.52-2.54-3.7-4.82-4.03.05 2.27.08 4.67-1.58 6.45-2.04-2.95-3.74-6.28-6.66-8.48-3.51-.47-7.23-.11-10.49-1.76-1.85-1.58-3.25-3.63-5.05-5.27 1.28-2.84 4.65-3.82 7.42-4.6 4.5-.78 7.66 3.1 11.39 4.8.8-1.02 1.62-2.02 2.44-3.02 1.85.72 3.61 1.92 5.68 1.84l.01-2.48-2.39-2.43.13-2.63.01-.72c-1.26-.44-2.54-.81-3.81-1.2a50.24 50.24 0 0 0 4.08-.35c.34-1.48.67-2.96.93-4.45.51 1.05 1.04 2.08 1.6 3.1 1.44.11 2.9.13 4.36.06-.12-1.3.19-2.76-.57-3.91-1.47-1.08-3.37-.84-5.07-1.02.38-1.51 1.94-2.02 3.08-2.84l1.45.51c2.57 1.04 5.37.87 8.05.41l.4-.83c.27-2.25.11-4.51-.01-6.76.23-.47.71-1.4.95-1.87 1.45-2.97-.09-6.39.05-9.54z"/><path fill="#c1977d" d="M255.23 161.06c2.83-3.16 5.52-6.47 8.82-9.16-2.71 6.11-7.87 10.63-12.33 15.45l-.85-1.63 1.15-1.75c1.1-.94 2.24-1.83 3.21-2.91z"/><path fill="#6c6a64" d="M242.74 163.25c4.08-1.5 8.3-2.58 12.36-4.16l.13 1.97c-.97 1.08-2.11 1.97-3.21 2.91l-1.72-.26c-2.44-.57-4.81.39-7.14.99l-.42-1.45z"/><path fill="#959c84" d="M285.81 166.18c.29-1.96-.44-4.71 1.43-6.01 1.13 4.15 3.86 9.23.81 13.16-1.02-1.27-1.47-2.84-1.9-4.37l-.34-2.78z"/><path fill="#dddcea" d="M274.69 161.51l3.25-.7 3.16.46c.12 2.25.28 4.51.01 6.76l-2.95.08c-1.4-2.07-2.22-4.45-3.47-6.6z"/><path fill="#bcbecb" d="M272.14 162.24l2.55-.73c1.25 2.15 2.07 4.53 3.47 6.6l2.95-.08-.4.83c-2.68.46-5.48.63-8.05-.41-.29-2.06-.5-4.13-.52-6.21z"/><path fill="#404240" d="M242.02 162.85l.72.4.42 1.45c2.33-.6 4.7-1.56 7.14-.99-3.01 1.83-5.61 4.49-6.24 8.08l-.6-.17c-.48-1.28-.92-2.56-1.32-3.86-.07-1.64-.12-3.27-.12-4.91z"/><path fill="#8a8683" d="M244.06 171.79c.63-3.59 3.23-6.25 6.24-8.08l1.72.26-1.15 1.75c-2.27 1.96-3.44 5.92-6.81 6.07z"/><path fill="#d7a786" d="M264.99 168.93c2.5-1.02 4.21-3.15 5.93-5.13l.29 4.14c-1.14.82-2.7 1.33-3.08 2.84l-.32 1.77-.93 4.45-4.08.35c-2.41-.69-4.65-1.84-6.79-3.11 1.31-.4 2.7-.64 3.92-1.32 1.65-1.38 3.01-3.16 5.06-3.99z"/><path fill="#5f5e5a" d="M244.06 171.79c3.37-.15 4.54-4.11 6.81-6.07l.85 1.63c-.31 3.11 1.75 5.41 4.29 6.89 2.14 1.27 4.38 2.42 6.79 3.11l3.81 1.2-.01.72c-4.46.38-8.95.27-13.39.86-3.97-.15-7.93-.74-11.92-.44-.12-2.18-.2-4.36-.21-6.54a88.47 88.47 0 0 0 1.06-5.39c.4 1.3.84 2.58 1.32 3.86l.6.17z"/><path fill="#88888c" d="M275.84 171.15c2.28-2.14 6.62-2.1 8.31.76l.77 4.94c-2.81-.24-2.25 3.09-.74 4.33l.06.71-3.9 2.22.26-1.81-2.25-.32c-.36-1.77-.16-4.22-2.6-4.28l-.09-.94c-.07-1.88.06-3.75.18-5.61z"/><path fill="#bdbeca" d="M268.13 170.78c1.7.18 3.6-.06 5.07 1.02.76 1.15.45 2.61.57 3.91-1.46.07-2.92.05-4.36-.06l-1.6-3.1.32-1.77z"/><path fill="#838579" d="M296 171.15l4.17 2.74.46 4.16-3.8-1.73c1.08 5.44 2.3 11.15.38 16.57l-3.08-1.78c-.04 4.26.63 8.49.59 12.75-1.17-.15-2.33-.4-3.46-.7l.73 1.69-1.64-.04c-.77-1.63-1.02-3.73-2.68-4.74-1.78-.7-3.72-.12-5.53.12.15 1.98.51 3.95.89 5.91l-1.17 1.2c-1.19-1.6-1.82-3.5-2.14-5.45l.21-11.97c.82 2.51.79 5.18 1.11 7.78l3.81 1.09 1.63.47c.43-1.41.57-2.88.59-4.34.41 1.88 1.13 3.67 2.04 5.36.72-.88 2.08-1.79 1.69-3.11-.63-2.29-2.15-4.5-1.6-6.97.58-2.49 1.62-4.85 2.2-7.33.59 2.43.42 5.56 2.48 7.28 1.52.13 1.88-1.81 1.75-2.95-.07-3.23-.94-6.4-.94-9.63.32-2.15 1.08-4.21 1.31-6.38z"/><path fill="#4d4e4d" d="M237.03 183.05c2.89-2.53 2.36-6.7 4.05-9.9.01 2.18.09 4.36.21 6.54 3.99-.3 7.95.29 11.92.44 4.44-.59 8.93-.48 13.39-.86l-.13 2.63c.78.82 1.58 1.63 2.39 2.43l-.01 2.48c-2.07.08-3.83-1.12-5.68-1.84l-2.44 3.02c-3.73-1.7-6.89-5.58-11.39-4.8-2.77.78-6.14 1.76-7.42 4.6 1.8 1.64 3.2 3.69 5.05 5.27 3.26 1.65 6.98 1.29 10.49 1.76 2.92 2.2 4.62 5.53 6.66 8.48 1.66-1.78 1.63-4.18 1.58-6.45 2.28.33 3.36 2.51 4.82 4.03.95-2.31 1.18-4.83 1.65-7.26 1.02 1.05 2.43 1.91 2.75 3.45.94 3.33 1.58 6.76 1.97 10.2v.97a85.26 85.26 0 0 0-1.11-3.18l-2.28 3.3a55.97 55.97 0 0 1-4.1-.09c-.08-1.09-.21-2.18-.34-3.26l2.22-1.04c-1.4-1.34-3.19-2-5.11-1.98-.04 1.4 1.03 2.22 2.03 3.01l-1.6.05c-.16 1.29-.26 2.59-.26 3.9l-.76-1.13-2.44-.39c-1.42-.38-2.8-.88-4.2-1.26l1.68-1.62c.22-1.98.18-4.26-1.27-5.81-1.24-1.5-3.27-1.76-5.04-2.2-3.32-.67-6.68-1.4-10.08-1.25l-4.77-.06-1.72-3.19c-1.99-.37-4.02-.39-6.03-.38 1.05-3.27 2.9-6.18 5.32-8.61z"/><path fill="#575654" d="M300.17 173.89c3.31 2.29 7.38 3.77 9.65 7.29-1.82-1.29-3.75-2.41-5.78-3.33-.89.9-1.9 1.81-2.12 3.13.55 2.14 1.73 4.3 3.87 5.19 1.34-1.62 2.77-3.18 4.46-4.44 3.54 5.15 8.89 9.77 9.27 16.41-.29 3.61-.91 7.24-.19 10.85l-1.69-3.61c-2.14.23-3.99 1.5-5.48 2.98-.41 1.47-.25 3.01-.31 4.52l-1.92.14-2.69.07-.87-.12c-1.23-1.75-2.59-3.44-4.42-4.59-.89.54-1.67 1.24-2.45 1.92l-.96.24c0-3.6 1.47-6.76 3.59-9.59-.74-1.31-2.05-2.11-3.18-3.03l-1.74-5.03c1.92-5.42.7-11.13-.38-16.57 1.25.61 2.51 1.19 3.8 1.73a96.15 96.15 0 0 0-.46-4.16m3.64 18.03l1.4.77c-.33 2.01-.69 4.1-.23 6.13 1.09 1.34 2.86 1.76 4.44 2.25 2.7.22 5.52.5 8.13-.38l.48-1.06-2.41-.44c-1.76-2.82-2.37-6.13-3.64-9.16-.49-1.19-1.57-2.61-3.03-2.31-2.65-.28-3.99 2.28-5.14 4.2z"/><path fill="#999c96" d="M287.07 194.88c-.23-6.36-2.08-13.12.87-19.15 2.75 1.32 3.13 4.39 3.46 7.1-.58 2.48-1.62 4.84-2.2 7.33-.55 2.47.97 4.68 1.6 6.97.39 1.32-.97 2.23-1.69 3.11-.91-1.69-1.63-3.48-2.04-5.36z"/><path fill="#202226" d="M267.78 179.8c-.41-1.38.03-2.39 1.29-3.03 2.19-.24 4.39-.07 6.59-.01l.09.94.56 4.04 2.04.24 2.25.32-.26 1.81-.94.32-1.6-.89 2.13 6.34-.21 11.97-2.83 5.42c-.39-3.44-1.03-6.87-1.97-10.2-.32-1.54-1.73-2.4-2.75-3.45.27-2.13-1-3.74-2.44-5.12-.15-2.18.89-4.28 1.24-6.41-1.1-.73-2.21-1.43-3.19-2.29z"/><path fill="#d4d3db" d="M284.18 181.18c-1.51-1.24-2.07-4.57.74-4.33.55 1.48.23 3.1-.74 4.33z"/><path fill="#adadb3" d="M275.75 177.7c2.44.06 2.24 2.51 2.6 4.28l-2.04-.24-.56-4.04z"/><path fill="#696968" d="M301.92 180.98c.22-1.32 1.23-2.23 2.12-3.13 2.03.92 3.96 2.04 5.78 3.33l.43.55c-1.69 1.26-3.12 2.82-4.46 4.44-2.14-.89-3.32-3.05-3.87-5.19z"/><path fill="#c4c3cd" d="M280.34 184.11l3.9-2.22c.89 5.5 2.72 11.45.61 16.86l-3.81-1.09c-.32-2.6-.29-5.27-1.11-7.78-.65-2.14-1.44-4.22-2.13-6.34l1.6.89.94-.32z"/><path fill="#646465" d="M303.81 191.92c1.15-1.92 2.49-4.48 5.14-4.2 1.46-.3 2.54 1.12 3.03 2.31 1.27 3.03 1.88 6.34 3.64 9.16l2.41.44-.48 1.06c-2.61.88-5.43.6-8.13.38l-.29-1.63-1.17-.99c-.22-2.28.12-5.14-2.75-5.76l-1.4-.77z"/><path fill="#a2a992" d="M294.13 191.11l3.08 1.78 1.74 5.03-1.31 9.76-3.51-1.09-.57 1.26-1.42.37c.68-1.1.37-2.29-.15-3.37l-.73-1.69c1.13.3 2.29.55 3.46.7.04-4.26-.63-8.49-.59-12.75z"/><path fill="#5f6161" d="M231.71 191.66c2.01-.01 4.04.01 6.03.38l1.72 3.19-.97 3.36c-1.47.54-2.98.97-4.48 1.39-1.4-.59-2.8-1.22-4.06-2.07.21-2.18.98-4.23 1.76-6.25z"/><path fill="#757576" d="M305.21 192.69c2.87.62 2.53 3.48 2.75 5.76l1.17.99.29 1.63c-1.58-.49-3.35-.91-4.44-2.25-.46-2.03-.1-4.12.23-6.13z"/><path fill="#a0a2a7" d="M239.46 195.23l4.77.06c-1.26.71-2.65 1.11-4.07 1.33l.08 1.15c4.33 2.1 9.22 2.33 13.87 3.24 2.11.44 4.39 1.01 5.79 2.78l-.94.74c-4.4-1.81-9.08-2.9-13.86-2.9-3.33.04-6.67.82-9.99.12l-2.04-.7.94-1.07c1.5-.42 3.01-.85 4.48-1.39l.97-3.36z"/><path fill="#616262" d="M244.23 195.29c3.4-.15 6.76.58 10.08 1.25 1.77.44 3.8.7 5.04 2.2 1.45 1.55 1.49 3.83 1.27 5.81l-1.68 1.62c-5.07 1.01-10.31.06-15.03-1.88l-.8-1 1.99-1.66c4.78 0 9.46 1.09 13.86 2.9l.94-.74c-1.4-1.77-3.68-2.34-5.79-2.78-4.65-.91-9.54-1.14-13.87-3.24l-.08-1.15c1.42-.22 2.81-.62 4.07-1.33z"/><path fill="#7a767b" d="M298.95 197.92c1.13.92 2.44 1.72 3.18 3.03-2.12 2.83-3.59 5.99-3.59 9.59l-.23 2.1c1.19 1.18 2.45 2.31 3.48 3.64.49 1.62.37 3.33.4 5-1.14-.44-2.24-.95-3.32-1.52-.3-1.21-.67-2.44-1.71-3.23-2.18-2.35-1.81-6.03-3.6-8.68l.57-1.26a46.05 46.05 0 0 0 3.51 1.09c.73-3.21.79-6.52 1.31-9.76z"/><path fill="#85c8e5" d="M282.14 200.19c1.81-.24 3.75-.82 5.53-.12 1.66 1.01 1.91 3.11 2.68 4.74l-7.32 1.29-.89-5.91m1.86.77c-.32 1.28-.28 2.56.1 3.85 1.49-.22 3.17-.4 4.12-1.73l-1.33-2.24-2.89.12z"/><path fill="#6d6a62" d="M233.07 201.05l2.04.7-.93 2.3 1.75 1.16c-1.3 2.53-3.07 4.75-4.91 6.9-.45-3.79-.91-8.1 2.05-11.06z"/><path fill="#484843" d="M235.11 201.75c3.32.7 6.66-.08 9.99-.12l-1.99 1.66.8 1c4.72 1.94 9.96 2.89 15.03 1.88 1.4.38 2.78.88 4.2 1.26l-2.43 1.56c-6.05-.03-12.37-.11-17.96-2.72-2.15-.9-4.52-2.54-6.82-1.06l-1.75-1.16.93-2.3z"/><path fill="#cfffff" d="M284 200.96l2.89-.12 1.33 2.24c-.95 1.33-2.63 1.51-4.12 1.73-.38-1.29-.42-2.57-.1-3.85z"/><path fill="#5e5d5e" d="M266.17 201.99c1.92-.02 3.71.64 5.11 1.98l-2.22 1.04-.86-.01c-1-.79-2.07-1.61-2.03-3.01z"/><path fill="#020201" opacity=".79" d="M276.89 207.27c.82-1.87 1.84-3.64 2.83-5.42.32 1.95.95 3.85 2.14 5.45l1.29 1.96-.01 3.77-.18 1.56-3.21-1.39-1.88-.24-.92-1.25-.06-3.47v-.97z"/><path fill="#808278" d="M235.93 205.21c2.3-1.48 4.67.16 6.82 1.06 5.59 2.61 11.91 2.69 17.96 2.72-.77 4.85 2.9 8.96 2.13 13.76-2.36-.21-4.67-.73-6.93-1.42 1.33-2.4 2.5-5.13 1.79-7.92-1.67-2.77-5.14-3.43-8.09-2.75-3.43.79-6.86-.05-10.29-.31-2.12 1.71-3.8 4.43-3.94 7.19 1.25.5 2.49 1.03 3.77 1.48-2 .05-4.02.35-6.01.06-1.53-.6-2.92-1.51-4.33-2.34.79-1.52 1.48-3.08 2.21-4.63 1.84-2.15 3.61-4.37 4.91-6.9z"/><path fill="#2c2e32" d="M266.6 205.05l1.6-.05.86.01.34 3.26-.24 1.83c-.19 1.16-.87 1.76-2.01 1.81l-.81-2.96c0-1.31.1-2.61.26-3.9z"/><path fill="#605e5f" d="M273.5 208.36l2.28-3.3 1.11 3.18.06 3.47-1.39-1.07c-2.16.18-4.49.9-6.4-.54l.24-1.83 4.1.09z"/><path fill="#6b6d71" d="M283.03 206.1l7.32-1.29 1.64.04c.52 1.08.83 2.27.15 3.37-2.94.73-5.96 1.21-8.99 1.04l-1.29-1.96 1.17-1.2z"/><path fill="#6e6d6d" d="M312.16 208.36c1.49-1.48 3.34-2.75 5.48-2.98l1.69 3.61c-1.68 1.48-3.48 2.85-5.55 3.74l-.97.07-.96.08c.06-1.51-.1-3.05.31-4.52z"/><path fill="#585851" d="M263.14 207.43l2.44.39.76 1.13.81 2.96c1.14-.05 1.82-.65 2.01-1.81 1.91 1.44 4.24.72 6.4.54l1.39 1.07.92 1.25.26 1.8.79.41.79-.32.04-1.65 3.21 1.39.18-1.56c2.94.94 6.59.95 8.51 3.72l-2.46 1.04c-.18-.95-1.02-1.6-1.97-1.24-1.97-.16-3.29 1.41-4.95 2.15l-3.55-2.52c-1.47-.73-3.02.01-4.49.31-3.81.28-5.57 4-6.61 7.19-3.78 1.06-7.11 3.59-11.17 3.58.56-1.16 1.17-2.31 1.39-3.59l-1.42-.16c-7.82-1.3-15.61-4.4-23.65-2.92-4.13.44-7.82 3.12-12.06 2.58 2.74-2.09 5.47-4.2 8.1-6.43 1.41.83 2.8 1.74 4.33 2.34 1.99.29 4.01-.01 6.01-.06 5.69-.32 11.38.42 16.76 2.31 2.26.69 4.57 1.21 6.93 1.42.77-4.8-2.9-8.91-2.13-13.76l2.43-1.56z"/><path fill="#a3a3ac" d="M283.15 209.26c3.03.17 6.05-.31 8.99-1.04l1.42-.37c1.79 2.65 1.42 6.33 3.6 8.68-1.49.43-2.96.94-4.37 1.59l-.06 4.24c-1.93-1.19-.83-3.75-1.08-5.61-1.92-2.77-5.57-2.78-8.51-3.72l.01-3.77z"/><path fill="#68676b" d="M301.95 208.38c1.83 1.15 3.19 2.84 4.42 4.59l-1.48 1.13c-1.56-1.57-3.39-2.84-5.39-3.8.78-.68 1.56-1.38 2.45-1.92z"/><path fill="#be8b6f" d="M319.33 208.99c.6 2.5 1.49 4.92 2.27 7.38 1.37 8.98 4.82 17.48 6.5 26.39-.1 3.81.52 7.57 1.1 11.33.15 1.72.6 3.84-.94 5.12-1.08.34-2.17.63-3.28.86 2.22-4.81.51-10.14.28-15.16-.35-6.78-1.83-13.48-4.45-19.75-1.64-3.7-2.52-7.65-3.45-11.57-1.17-.43-2.36-.71-3.58-.86 2.07-.89 3.87-2.26 5.55-3.74z"/><path fill="#93948b" d="M239.32 210.35c3.43.26 6.86 1.1 10.29.31 2.95-.68 6.42-.02 8.09 2.75.71 2.79-.46 5.52-1.79 7.92-5.38-1.89-11.07-2.63-16.76-2.31-1.28-.45-2.52-.98-3.77-1.48.14-2.76 1.82-5.48 3.94-7.19z"/><path fill="#453734" d="M298.31 212.64l.23-2.1.96-.24c2 .96 3.83 2.23 5.39 3.8-.54 4.79.72 9.48 1.9 14.08-2.2-1.11-4.02-2.75-5.42-4.76-.85-1.63-2.76-1.42-4.31-1.45l-1.14 1.79c-.88 1.18-2.32.77-3.57.72l.38-2.12a91.78 91.78 0 0 1 6.14-2.6c1.08.57 2.18 1.08 3.32 1.52-.03-1.67.09-3.38-.4-5-1.03-1.33-2.29-2.46-3.48-3.64z"/><path fill="#787239" d="M277.87 212.96l1.88.24-.04 1.65-.79.32-.79-.41-.26-1.8z"/><path opacity=".08" d="M304.89 214.1l1.48-1.13.87.12c.77 5.99 2.45 12.13 1.23 18.15l-1.68-3.06c-1.18-4.6-2.44-9.29-1.9-14.08z"/><path fill="#100a08" opacity=".78" d="M307.24 213.09l2.69-.07-1.14 2.25c.1 7.25 1.76 14.41 1.86 21.67l.13 7.83c-.08 3.48-.14 6.97-.04 10.46l-1.71-.18c-1.09-.65-1.96-1.73-1.66-3.06.22-3.07.87-6.09 1.05-9.16l.87 2.08.53-.37c-.07-3.6.14-7.26-.37-10.82l-1.13-1.07.15-1.41c1.22-6.02-.46-12.16-1.23-18.15z"/><path fill="#c79274" d="M309.93 213.02l1.92-.14.96-.08c-.38 2.08-.65 4.25.06 6.3 1.12 3.6 1.45 7.37 2.35 11.03.82 3.88.06 7.81.02 11.72-.06 3.84 2.19 7.17 2.79 10.89.66 3.01.37 7.23 4.25 7.94-2.05.54-4.17.92-6.28.6-2.52-3.5-2.21-7.83-2.57-11.88-.01-1.94-1.43-3.32-2.65-4.63l-.13-7.83c-.1-7.26-1.76-14.42-1.86-21.67l1.14-2.25z"/><path fill="#d7a383" d="M312.81 212.8l.97-.07c1.22.15 2.41.43 3.58.86.93 3.92 1.81 7.87 3.45 11.57 2.62 6.27 4.1 12.97 4.45 19.75.23 5.02 1.94 10.35-.28 15.16l-1.75.4c1.82-3.05.6-6.54.1-9.76-2.08-8.54-2.28-17.68-6.34-25.64-1.03 1.5-1.33 3.33-1.77 5.06-.9-3.66-1.23-7.43-2.35-11.03-.71-2.05-.44-4.22-.06-6.3z"/><path fill="#43434e" d="M267.62 223.68c1.04-3.19 2.8-6.91 6.61-7.19l.16 1.08c-.46 1.5-1.03 2.97-1.69 4.4l-.78.29-.54.22c-2.35.8-2.38 3.72-3.19 5.69l-3.23 1.87-1.81-.52c2.03-1.5 3.99-3.22 4.47-5.84z"/><path fill="#676b82" d="M274.23 216.49c1.47-.3 3.02-1.04 4.49-.31 1.24.74 2.4 1.64 3.55 2.52 1.66-.74 2.98-2.31 4.95-2.15-.36 1.44-.75 2.9-.72 4.4 1.41-.36 1.85-2.12 2.69-3.16l2.46-1.04c.25 1.86-.85 4.42 1.08 5.61l-.38 2.12c-.82 1.12-1.34 2.68-2.7 3.26-1.88.31-3.79.25-5.69.31l-.81.02c.73-1.68 2.46-3.57 1.2-5.43-2.78-1.82-5.73 2.29-8.64.77l-1.32-5.84-.16-1.08m4.03.77v.45h.46v-.46l-.46.01m12.11 6.99l.01.46h.45v-.46h-.46z"/><path fill="#abaab8" d="M287.22 216.55c.95-.36 1.79.29 1.97 1.24-.84 1.04-1.28 2.8-2.69 3.16-.03-1.5.36-2.96.72-4.4z"/><path fill="#fcf9ff" d="M278.26 217.26l.46-.01v.46h-.46v-.45z"/><path fill="#ece8f4" d="M292.79 218.12c1.41-.65 2.88-1.16 4.37-1.59 1.04.79 1.41 2.02 1.71 3.23l-6.14 2.6.06-4.24z"/><path fill="#5a5d73" d="M274.39 217.57c.32 1.97.8 3.91 1.32 5.84 2.91 1.52 5.86-2.59 8.64-.77 1.26 1.86-.47 3.75-1.2 5.43l-.92.03c-3.45.03-6.88-.24-10.28-.8.53-1.65 1.09-3.29 1.42-4.99l-.67-.34c.66-1.43 1.23-2.9 1.69-4.4z"/><path fill="#939088" d="M232.77 220.59c8.04-1.48 15.83 1.62 23.65 2.92l-1.84 2.06c-6.61-1.5-13.46-2.43-20.2-1.27l-15.51 2.71.83-3.14 1.01-.7c4.24.54 7.93-2.14 12.06-2.58z"/><path fill="#6d7389" d="M268.19 228.17c.81-1.97.84-4.89 3.19-5.69l.54-.22.78-.29.67.34c-.33 1.7-.89 3.34-1.42 4.99a36.62 36.62 0 0 0-3.76.87z"/><path fill="#9ea2af" d="M271.38 222.48l.54-.22-.54.22z"/><path fill="#747483" d="M295.92 223.76l1.14-1.79c1.55.03 3.46-.18 4.31 1.45l-2.48 3.57c-.89 1.02-1.87 1.96-2.86 2.89l-1.25-1.81 2.85-2.94-1.71-1.37z"/><path fill="#747371" d="M256.42 223.51l1.42.16c-.22 1.28-.83 2.43-1.39 3.59 4.06.01 7.39-2.52 11.17-3.58-.48 2.62-2.44 4.34-4.47 5.84-1.15 1.35-1.1 3.45-2.66 4.49l-2.08-1.33c-2.1-.66-4.21.67-5.81 1.9-1.39 1.09-2.07 3.35-4.06 3.41-.12-2.22-.31-4.45-.04-6.66.89-1.77 2.39-3.13 3.57-4.7-2.43-.57-4.93-.1-7.39-.38-2.79-.26-5.55-1.25-8.38-.87-4.52.59-8.96 1.68-13.38 2.75-1.72.37-3.54.91-5.25.22l1.2-1.34c5.19-.8 10.34-1.78 15.51-2.71 6.74-1.16 13.59-.23 20.2 1.27a90.06 90.06 0 0 1 1.84-2.06z"/><path fill="#60615f" d="M213.04 235.12c2.5-3.62 2.2-9.15 6.66-11.25l-.83 3.14-1.2 1.34c1.71.69 3.53.15 5.25-.22 4.42-1.07 8.86-2.16 13.38-2.75 2.83-.38 5.59.61 8.38.87 2.46.28 4.96-.19 7.39.38-1.18 1.57-2.68 2.93-3.57 4.7-.27 2.21-.08 4.44.04 6.66 1.99-.06 2.67-2.32 4.06-3.41 1.6-1.23 3.71-2.56 5.81-1.9-1.52 2.36-3.46 4.41-5.72 6.07-.37 2-.38 4.04-.65 6.06-1.65 2.2-3.74 4.07-6.04 5.56-.91-1.4-1.69-2.88-2.42-4.37-.4 1.07-.87 2.13-1.09 3.26.25 1.61 1.1 3.06 1.48 4.65-.61 2.73-1.92 5.24-2.95 7.83 1.74-1 3.5-1.97 5.31-2.83-.9 2.82-2.35 5.42-3.52 8.13-.68-1.26-1.5-2.45-2.38-3.58l-2.71-.28c-1.56-2.76-.74-5.9-.97-8.88l-.62-.66a32.94 32.94 0 0 0-1.93 3.24l-3.14-1.11c.65-2.09 1.13-4.37 2.72-5.99 2.4-2.6 5.86-3.71 8.89-5.38.15-1.21.07-2.43-.35-3.58-2.28-.61-4.6-1.32-6.98-1.14-3.81 1.16-6.22 4.46-7.79 7.94-3.2 4.78-4.1 10.64-4.33 16.27-.06 3.38 1.8 6.6 4.77 8.22l1.23-2.2c.39 1.71.89 3.39 1.4 5.06-.2 1.29-.44 2.58-.76 3.85-1.32.53-1.98-.59-2.69-1.46l.66-2.15c-1.2-2.87-3.62-4.99-5.9-7.01.19 2.34.82 4.63 1.76 6.78l-1.97.19c-2.66-6.09-3.07-12.81-4.93-19.11-.26-1.18-.35-2.38-.41-3.57 4.71-1.52 7.66-5.89 10.51-9.66-1.64.18-3.39.26-4.8 1.22-1.77 1.25-2.76 3.31-4.43 4.67-2.06.87-4.32 1.06-6.51 1.31-1.78-2.25-1.58-5.34-1.52-8.05.02-2.7 2.19-4.63 3.41-6.86m12.36 1.15c-2.64 1.49-5.63 2.3-8.11 4.06-1.19 1.24-1.66 2.94-2.24 4.51 2.33-1.16 4.18-3.04 6.39-4.38 3.55-1.77 7.49-2.63 11.43-2.87 4.27-.5 8.55-.98 12.86-.98l-.02-2.26c-4.56-.55-9.17-.77-13.77-.69-2.48-.12-4.44 1.59-6.54 2.61z"/><path fill="#a0a1b0" d="M290.37 224.25h.46v.46h-.45l-.01-.46z"/><path fill="#5e5f5f" d="M292.35 224.48c1.25.05 2.69.46 3.57-.72l1.71 1.37-2.85 2.94-2.15-1.26-.45 1.9c-.91.59-2.34.66-2.77 1.79-.65 2.73-.42 5.56-.43 8.35-2.21-.97-5.03-1.28-6.67-3.13-.32-2.66.78-5.21 1.65-7.67 1.9-.06 3.81 0 5.69-.31 1.36-.58 1.88-2.14 2.7-3.26z"/><path fill="#5e5f75" d="M298.89 226.99l2.48-3.57c1.4 2.01 3.22 3.65 5.42 4.76l1.68 3.06-.15 1.41-2.38 2.62c-1.18 2.06-2.48 4.05-4.06 5.84-.31-1.89-.45-3.83-1.1-5.64-.8-1.24-2.07-2.17-2.59-3.56.01-1.66.35-3.3.7-4.92m4.46 2.16c-.67.92-1.08 1.95-1.24 3.08 1.67-.16 3.35-.48 4.79-1.4.14-1.93-2.21-1.97-3.55-1.68z"/><path fill="#e5b499" d="M315.22 230.13c.44-1.73.74-3.56 1.77-5.06 4.06 7.96 4.26 17.1 6.34 25.64.5 3.22 1.72 6.71-.1 9.76l-.95.21c-3.88-.71-3.59-4.93-4.25-7.94-.6-3.72-2.85-7.05-2.79-10.89.04-3.91.8-7.84-.02-11.72z"/><path fill="#5f6160" d="M271.95 227.3c3.4.56 6.83.83 10.28.8l-.43 3c-1.34 0-2.58-.52-3.82-.92-3-1.14-6.34-1.16-9.47-.6-5.95 3.3-5.39 10.85-6.46 16.63-1.55.87-3.32 1.09-5.06 1.25l4.33 2.76c-.02 1.24-.08 2.48-.2 3.72-.77-.73-1.38-1.58-1.86-2.54-1.63.29-2.92 1.35-4.12 2.41 1.23 1.25 3.31 2.15 2.93 4.24-2.03.27-3.3-1.45-4.73-2.55-.97 3.75-3.44 6.78-5.82 9.74-1.29-.17-1.67-.79-1.16-1.86 2.11-4.56 4.6-9 5.88-13.89.51-2.37.44-4.82.92-7.2 1.36-3.54 4.49-5.96 7.33-8.28 1.56-1.04 1.51-3.14 2.66-4.49l1.81.52c1.09-.6 2.15-1.24 3.23-1.87a36.62 36.62 0 0 1 3.76-.87z"/><path fill="#545454" d="M292.63 226.81l2.15 1.26 1.25 1.81 2.86-2.89c-.35 1.62-.69 3.26-.7 4.92.52 1.39 1.79 2.32 2.59 3.56.65 1.81.79 3.75 1.1 5.64l-.67 1.71-1.2 2.29c-2.08-1.8-4.37-3.38-7-4.26l-.22-4.72-1.92 3.31-1.89-.59c.01-2.79-.22-5.62.43-8.35.43-1.13 1.86-1.2 2.77-1.79l.45-1.9z"/><path fill="#84817a" d="M282.23 228.1l.92-.03.81-.02c-.87 2.46-1.97 5.01-1.65 7.67 1.64 1.85 4.46 2.16 6.67 3.13l1.89.59 1.92-3.31.22 4.72.08.98c-2.18-.32-4.21-1.2-6.17-2.15l-1.63-.4-.37.7c-3.1 4.09-2.74 9.75-5.89 13.76-1.87-1.08-3.84-2.18-5.14-3.96-.75-2.81 1.89-4.76 3.15-6.93-.82-1.94-3.15-1.57-4.86-1.79-1.9 0-3.91-.42-5.73.25-.92 1.12-1.69 2.42-1.97 3.85.25 1.64.95 3.17 1.6 4.69-1.46-1.09-2.82-2.29-4.03-3.64 1.07-5.78.51-13.33 6.46-16.63 3.13-.56 6.47-.54 9.47.6 1.24.4 2.48.92 3.82.92l.43-3z"/><path fill="#f6f5f8" d="M303.35 229.15c1.34-.29 3.69-.25 3.55 1.68-1.44.92-3.12 1.24-4.79 1.4.16-1.13.57-2.16 1.24-3.08z"/><path fill="#8f8d86" d="M258.41 232.68l2.08 1.33c-2.84 2.32-5.97 4.74-7.33 8.28-.48 2.38-.41 4.83-.92 7.2-1.28 4.89-3.77 9.33-5.88 13.89-.51 1.07-.13 1.69 1.16 1.86.62 1.65 1.26 3.3 1.98 4.91-.42 1.19-.7 2.41-.41 3.67 1.37.13 2.98.45 4.05-.69l5.23-4.39c2.07 1.49 4.48-.27 6.65-.66 2.74-.61 4.68-2.75 7.08-4.04 1.88-.69 4.15-.34 5.73-1.79l1.27 2.66c1.27-.55 2.69-1.04 3.44-2.31 3.28-4.58 3.48-10.43 5.48-15.55.4-.99.82-1.97 1.26-2.95l.88.24c-.61 3.83-1.98 7.55-2.04 11.45-.1 3.42.45 7.07-1.16 10.24-1.77 3.51-3.29 7.19-5.48 10.46-2.02 2.03-4.39 3.75-6.92 5.08-3.23.97-6.68.96-10.02.78-4.44-.33-7.94-3.42-12-4.87-2.19-.67-4.47-.85-6.7-1.31l-.63-2.03c.12-2.61-1.19-4.89-2.4-7.1 1.17-2.71 2.62-5.31 3.52-8.13-1.81.86-3.57 1.83-5.31 2.83 1.03-2.59 2.34-5.1 2.95-7.83-.38-1.59-1.23-3.04-1.48-4.65.22-1.13.69-2.19 1.09-3.26.73 1.49 1.51 2.97 2.42 4.37 2.3-1.49 4.39-3.36 6.04-5.56.27-2.02.28-4.06.65-6.06 2.26-1.66 4.2-3.71 5.72-6.07z"/><path opacity=".11" d="M308.32 232.65l1.13 1.07c.51 3.56.3 7.22.37 10.82l-.53.37-.87-2.08c-.94-2.48-1.88-4.97-2.48-7.56l2.38-2.62z"/><path fill="#99968d" d="M225.4 236.27c2.1-1.02 4.06-2.73 6.54-2.61 4.6-.08 9.21.14 13.77.69l.02 2.26c-4.31 0-8.59.48-12.86.98-3.94.24-7.88 1.1-11.43 2.87-2.21 1.34-4.06 3.22-6.39 4.38.58-1.57 1.05-3.27 2.24-4.51 2.48-1.76 5.47-2.57 8.11-4.06z"/><path fill="#604c49" d="M301.88 241.11c1.58-1.79 2.88-3.78 4.06-5.84.6 2.59 1.54 5.08 2.48 7.56-.18 3.07-.83 6.09-1.05 9.16-.3 1.33.57 2.41 1.66 3.06l-2.43.14-.26 3.04c-1.25-.24-2.46-.63-3.66-1.02.9-4.3 2.4-9.13.39-13.32l-1.86-1.07.67-1.71z"/><path fill="#727372" d="M235.34 239.68c2.38-.18 4.7.53 6.98 1.14.42 1.15.5 2.37.35 3.58-3.03 1.67-6.49 2.78-8.89 5.38-1.59 1.62-2.07 3.9-2.72 5.99-1.54 4.54-2.71 9.33-1.84 14.14l-1.23 2.2c-2.97-1.62-4.83-4.84-4.77-8.22.23-5.63 1.13-11.49 4.33-16.27 1.57-3.48 3.98-6.78 7.79-7.94z"/><path fill="#62656c" d="M285.29 239.28l1.63.4-1 2.1 3.36 2.32-1.26 2.95-3.06-1.46-.04-5.61.37-.7z"/><path fill="#94928b" d="M279.03 253.74c3.15-4.01 2.79-9.67 5.89-13.76.01 1.87.1 3.74.04 5.61-2.4 4.37-2.31 9.69-5.5 13.7-3.27-.66-4.58-3.94-6.85-5.96-1.57-.87-2.6.94-3.67 1.74-.53-1.96-1.45-3.77-2.86-5.22-.65-1.52-1.35-3.05-1.6-4.69.28-1.43 1.05-2.73 1.97-3.85 1.82-.67 3.83-.25 5.73-.25 1.71.22 4.04-.15 4.86 1.79-1.26 2.17-3.9 4.12-3.15 6.93 1.3 1.78 3.27 2.88 5.14 3.96z"/><path fill="#3a3c3e" d="M285.92 241.78l1-2.1c1.96.95 3.99 1.83 6.17 2.15l.54 2.34-3.47.17-.88-.24-3.36-2.32z"/><path fill="#73706b" d="M293.01 240.85c2.63.88 4.92 2.46 7 4.26l-3.01 2c-.4 2.36 1.2 4.45 1.17 6.76-.55 1.13-1.23 2.19-1.86 3.27l3.7-.01 2.67.08 3.66 1.02.26-3.04 2.43-.14c-.22 2.18-1.53 3.96-2.24 5.98-.07 2.08.16 4.16.23 6.24-1.23-.62-2.33-1.44-3.41-2.27l-1.21 1.19-1.22-5.02.72-3.03c-1.59-.3-3.2-.44-4.81-.31l-.98 2.98 1.43.02c-.67 1.35-1.28 2.76-1.58 4.25l3 1.06 1.54 2.58c-1.64.79-3.22 1.69-4.69 2.76-.87-2.85-.24-6.18-1.74-8.78l-2.95 3.56c-.52-2.18-.56-4.42-.79-6.63-.55-1.38-1.44-2.59-2.21-3.84.06-3.9 1.43-7.62 2.04-11.45l3.47-.17-.54-2.34-.08-.98z"/><path fill="#3d3f3e" d="M222.09 244.05c1.41-.96 3.16-1.04 4.8-1.22-2.85 3.77-5.8 8.14-10.51 9.66.06 1.19.15 2.39.41 3.57-1.09-2.68-2.78-5.09-5.64-6.03 2.19-.25 4.45-.44 6.51-1.31 1.67-1.36 2.66-3.42 4.43-4.67z"/><path fill="#909481" d="M301.21 242.82l1.86 1.07c2.01 4.19.51 9.02-.39 13.32l-2.67-.08c1.67-3.05 2.07-7.07-.42-9.81l-2.59-.21c1.02-.64 2.03-1.29 3.01-2l1.2-2.29z"/><path fill="#585857" d="M328.1 242.76c.89 2.89 1.3 5.9 2.1 8.81l1.83 1.16c-2.08.81-1.86 3.29-2.3 5.1-.49 3.95-1.79 7.81-1.59 11.82 1.53.6 3.09 1.11 4.68 1.57-.01.42-.01 1.27-.01 1.7-1.58.07-3.14.2-4.7.35-.71 2.74.43 5.37 1.45 7.87-1.7-.56-3.4-1.1-5.15-1.47-1.48 1.93-3.42 3.38-5.88 3.73-.27-.36-.82-1.06-1.09-1.41-2.39-3.71-3.92-7.97-6.89-11.3.5 4.85 2.97 9.38 2.52 14.34-.64 2.38-1.45 4.77-1.4 7.27.7 4.58-1.81 8.65-2.3 13.1-.67.52-1.33 1.06-1.98 1.6l-2.28-.9c-4.59 3.27-9.29 6.49-14.63 8.41-2.06.49-2.48 2.77-3.41 4.35-3.57 4.22-8.28 7.71-10.06 13.19l-4.32 4.11c-1.91-.16-3.83-.32-5.67-.87l2.45-.55c.7-1.96 1.27-3.96 1.64-6.01 1.69.49 2.85 1.75 3.75 3.22.77-2.64 1.28-5.36 2.28-7.92 2.49-4.65 8.19-6.94 9.72-12.2.98-2.63 1.48-5.53 3.14-7.85 1.72-1.97 3.81-3.62 5.23-5.87-2.51 1.07-4.87 2.44-7.32 3.61-.13-4.71 4.96-6.32 7.34-9.64-1.72-1.94-3.72-3.68-6.23-4.49 2.08-1.8 4.16-3.59 6.05-5.59 1.25-1.02.35-2.66.24-3.94.7-1 1.21-2.61-.05-3.42l-.57-.56 1.51-.76c2.13-.79 3.34-2.66 4.3-4.6l1.6.08-.85 3.13a55.46 55.46 0 0 0 1.57 1.87c-3.91-.31-5.25 4.12-6.14 7.14 2.22 2.84 5.83 3.71 9.12 4.68-.33 2.04-.54 4.1-.54 6.17 1.45.14 2.93.17 4.4.05.91-2.88 1.67-5.82 2.2-8.8-.99.55-1.95 1.13-2.92 1.71l.4-2.22 1.95-1.76c-.08-3.43-2.03-6.46-3.69-9.35-.83-1.78-2.87-2.11-4.55-2.56l-.65-2.67 1.21-1.19c1.08.83 2.18 1.65 3.41 2.27-.07-2.08-.3-4.16-.23-6.24.71-2.02 2.02-3.8 2.24-5.98l1.71.18c.34 1.3.62 2.64 1.17 3.89 1.08 1.15 2.67 1.57 4.09 2.16 2.11.32 4.23-.06 6.28-.6l.95-.21 1.75-.4c1.11-.23 2.2-.52 3.28-.86 1.54-1.28 1.09-3.4.94-5.12-.58-3.76-1.2-7.52-1.1-11.33m-10 33.52l-.4.72.4.73h.82l.4-.73-.4-.72h-.82z"/><path fill="#a3775b" d="M310.78 244.77c1.22 1.31 2.64 2.69 2.65 4.63.36 4.05.05 8.38 2.57 11.88-1.42-.59-3.01-1.01-4.09-2.16-.55-1.25-.83-2.59-1.17-3.89-.1-3.49-.04-6.98.04-10.46z"/><path fill="#717473" d="M262.05 246.21c1.21 1.35 2.57 2.55 4.03 3.64 1.41 1.45 2.33 3.26 2.86 5.22-4.13 4.05-7.54 8.77-10.57 13.67l-5.23 4.39c.92-1.6 1.69-3.27 2.4-4.97l-2.1-.65c-.66-1.36-1.37-2.72-2.34-3.88a88.71 88.71 0 0 0-3.58 1.61c2.38-2.96 4.85-5.99 5.82-9.74 1.43 1.1 2.7 2.82 4.73 2.55.38-2.09-1.7-2.99-2.93-4.24 1.2-1.06 2.49-2.12 4.12-2.41.48.96 1.09 1.81 1.86 2.54.12-1.24.18-2.48.2-3.72l-4.33-2.76c1.74-.16 3.51-.38 5.06-1.25z"/><path fill="#6f7481" d="M279.46 259.29c3.19-4.01 3.1-9.33 5.5-13.7l3.06 1.46c-2 5.12-2.2 10.97-5.48 15.55-.75 1.27-2.17 1.76-3.44 2.31l-1.27-2.66 1.63-2.96z"/><path fill="#c0c9a9" d="M297 247.11l2.59.21c2.49 2.74 2.09 6.76.42 9.81l-3.7.01 1.86-3.27c.03-2.31-1.57-4.4-1.17-6.76z"/><path fill="#a09c92" d="M268.94 255.07c1.07-.8 2.1-2.61 3.67-1.74 2.27 2.02 3.58 5.3 6.85 5.96l-1.63 2.96c-1.58 1.45-3.85 1.1-5.73 1.79-2.4 1.29-4.34 3.43-7.08 4.04-2.17.39-4.58 2.15-6.65.66 3.03-4.9 6.44-9.62 10.57-13.67z"/><path fill="#464646" d="M329.73 257.83c.44-1.81.22-4.29 2.3-5.1.99.72 2.24 1.24 2.86 2.36 2.42 4.25 3.84 9.01 4.53 13.84l-2.76-1.67c-.58-4.34-.11-9.36-3.63-12.62-1.08 1.53-.72 3.42-.61 5.16.32 3.8.42 7.61.4 11.42-1.59-.46-3.15-.97-4.68-1.57-.2-4.01 1.1-7.87 1.59-11.82z"/><path fill="#797771" d="M234.2 256.88a32.94 32.94 0 0 1 1.93-3.24l.62.66c.23 2.98-.59 6.12.97 8.88.44 1.88.71 3.81 1.44 5.61 1.24 3.12 3.14 6.56 6.68 7.38 2.23.46 4.51.64 6.7 1.31 4.06 1.45 7.56 4.54 12 4.87 3.34.18 6.79.19 10.02-.78 2.53-1.33 4.9-3.05 6.92-5.08 2.19-3.27 3.71-6.95 5.48-10.46 1.61-3.17 1.06-6.82 1.16-10.24.77 1.25 1.66 2.46 2.21 3.84.23 2.21.27 4.45.79 6.63-.23 4.97-3.86 8.62-5.81 12.92.12 1.22.41 2.41.67 3.61l-2.28-1.29c-1.86 1.16-3.48 2.68-5.42 3.71-3.18.98-6.58.86-9.87.74-5.81-.14-11.11-2.56-16.36-4.79-2.46-1.35-5.1-2.31-7.56-3.66-2.51-1.75-4.67-3.98-6.58-6.35-3.17-4.05-2.85-9.47-3.71-14.27z"/><path fill="#6f6d6c" d="M333.03 254.64c3.52 3.26 3.05 8.28 3.63 12.62l2.76 1.67c.22 1.5.76 3.08.1 4.56-1.26 3.29-1.69 7.22-4.58 9.6l-3.39-.08c.58-3.34 1.21-6.69 1.26-10.09l.01-1.7c.02-3.81-.08-7.62-.4-11.42-.11-1.74-.47-3.63.61-5.16z"/><path fill="#514d48" d="M231.06 255.77l3.14 1.11c.86 4.8.54 10.22 3.71 14.27 1.91 2.37 4.07 4.6 6.58 6.35 2.46 1.35 5.1 2.31 7.56 3.66l-1.46 3.38c-3.87.74-7.95-.14-11.49-1.73-3.09-2.31-5.55-5.35-8.48-7.84-.51-1.67-1.01-3.35-1.4-5.06-.87-4.81.3-9.6 1.84-14.14z"/><path fill="#4f4e4d" d="M297.09 257.83c1.61-.13 3.22.01 4.81.31l-.72 3.03c-1.21-.18-2.43-.32-3.64-.34l-1.43-.02.98-2.98z"/><path fill="#7c7975" d="M297.54 260.83c1.21.02 2.43.16 3.64.34.25 1.71.76 3.36 1.22 5.02l.65 2.67-.95-.06-1.6-.08-1.54-2.58-3-1.06c.3-1.49.91-2.9 1.58-4.25z"/><path fill="#865e48" d="M237.72 263.18l2.71.28c.88 1.13 1.7 2.32 2.38 3.58 1.21 2.21 2.52 4.49 2.4 7.1-1.85-1.97-3.81-3.85-6.05-5.35-.73-1.8-1-3.73-1.44-5.61z"/><path fill="#474848" d="M291.12 266.26c.92-1.24 1.92-2.41 2.95-3.56 1.5 2.6.87 5.93 1.74 8.78l.39 1.84-1.51.76-.9-.13c1.18-.89 1.21-1.69.08-2.4-1.3.03-1.94.71-1.92 2.04-.19 2.5-.21 5.26-2.18 7.11-1.98 3.03-6.57 3.16-7.96 6.61 3.57-.02 6.48-2.37 9.26-4.32 1.74-1.1 2.42-3.09 2.58-5.05l1.66.12c.11 1.28 1.01 2.92-.24 3.94-1.89 2-3.97 3.79-6.05 5.59-2.32.91-4.72 1.63-7.15 2.18-3.6.13-7.73-1.55-10.81 1.04l-.04-.86-.12-1.71c-2.19.44-3.78 2.03-5.09 3.73l-3.57-.34c.04-1.29.33-2.53 1.16-3.54.19 1.03.62 1.94 1.27 2.71 1.14-1.7 2.36-3.34 3.74-4.85 3.29.12 6.69.24 9.87-.74 1.94-1.03 3.56-2.55 5.42-3.71l2.28 1.29c-.26-1.2-.55-2.39-.67-3.61 1.95-4.3 5.58-7.95 5.81-12.92z"/><path fill="#a9ada9" d="M247.52 265.24l3.58-1.61c.97 1.16 1.68 2.52 2.34 3.88l-3.94 2.64-1.98-4.91z"/><path fill="#40413f" d="M221.93 268.2c2.28 2.02 4.7 4.14 5.9 7.01l-.66 2.15c-1.11-.86-2.28-1.65-3.48-2.38-.94-2.15-1.57-4.44-1.76-6.78z"/><path fill="#636564" d="M249.5 270.15l3.94-2.64 2.1.65c-.71 1.7-1.48 3.37-2.4 4.97-1.07 1.14-2.68.82-4.05.69-.29-1.26-.01-2.48.41-3.67z"/><path fill="#5c4e45" d="M239.16 268.79c2.24 1.5 4.2 3.38 6.05 5.35l.63 2.03c-3.54-.82-5.44-4.26-6.68-7.38z"/><path fill="#36383b" d="M295.81 271.48c1.47-1.07 3.05-1.97 4.69-2.76-.96 1.94-2.17 3.81-4.3 4.6l-.39-1.84z"/><path fill="#363535" d="M302.1 268.8l.95.06c1.68.45 3.72.78 4.55 2.56 1.66 2.89 3.61 5.92 3.69 9.35l-1.95 1.76c-1.55-3.34-3.66-6.39-6.52-8.73a55.46 55.46 0 0 1-1.57-1.87l.85-3.13z"/><path fill="#ca9374" d="M310.55 270.69c2.97 3.33 4.5 7.59 6.89 11.3-.67 1.32-.49 3.54-2.34 3.83l-2.03-.79c.45-4.96-2.02-9.49-2.52-14.34z"/><path fill="#716e71" d="M291.95 273.59c-.02-1.33.62-2.01 1.92-2.04 1.13.71 1.1 1.51-.08 2.4l-1.84-.36z"/><path fill="#4b4b49" d="M328.11 273.27l4.7-.35c-.05 3.4-.68 6.75-1.26 10.09l3.39.08c-2.83 1.02-5.89.3-8.81.79-1.86.7-3.17 2.33-4.87 3.33-1.25.49-2.6.64-3.89.96l1.16-4.77c2.46-.35 4.4-1.8 5.88-3.73 1.75.37 3.45.91 5.15 1.47-1.02-2.5-2.16-5.13-1.45-7.87z"/><path fill="#272626" d="M289.77 280.7c1.97-1.85 1.99-4.61 2.18-7.11l1.84.36.9.13.57.56c-1.23.63-1.85 1.96-1.61 3.3-.16 1.96-.84 3.95-2.58 5.05-2.78 1.95-5.69 4.3-9.26 4.32 1.39-3.45 5.98-3.58 7.96-6.61z"/><path fill="#d39c7c" d="M296.68 280.94c.89-3.02 2.23-7.45 6.14-7.14 2.86 2.34 4.97 5.39 6.52 8.73l-.4 2.22c-.92.66-2.05.77-3.14.87-3.29-.97-6.9-1.84-9.12-4.68z"/><path fill="#7e7f80" d="M221.72 275.17l1.97-.19c1.2.73 2.37 1.52 3.48 2.38.71.87 1.37 1.99 2.69 1.46.32-1.27.56-2.56.76-3.85 2.93 2.49 5.39 5.53 8.48 7.84 3.54 1.59 7.62 2.47 11.49 1.73l3.45-.68 1.32 1.93c-5.56 2.94-11.68.79-17.53.47-3.38-.21-6.24-2.3-8.67-4.49-1.73-2.68-4.44-4.34-7.18-5.8l-.26-.8z"/><path fill="#98735a" d="M293.65 277.94c-.24-1.34.38-2.67 1.61-3.3 1.26.81.75 2.42.05 3.42l-1.66-.12z"/><path fill="#5f605f" d="M221.98 275.97c2.74 1.46 5.45 3.12 7.18 5.8l-4.56-.54c-.49 1.45-.83 2.96-1.02 4.49 3.48 2.06 7.02 4.54 11.21 4.67 4.76.33 9.53.45 14.3.74-2.22 1.2-4.49 2.72-7.12 2.62-4.43-.26-9.2-1.45-13.42.43 3.84 1.91 8.25 2.16 12.48 2.26 4.96.23 9.08-2.92 13.26-5.11 2.01-1.35 5.14-2.54 4.93-5.47-1.1-.93-2.61-.18-3.86-.07l-1.32-1.93-3.45.68 1.46-3.38c5.25 2.23 10.55 4.65 16.36 4.79-1.38 1.51-2.6 3.15-3.74 4.85-.65-.77-1.08-1.68-1.27-2.71-.83 1.01-1.12 2.25-1.16 3.54l3.57.34c-2.96 4.29-7.36 7.22-11.09 10.76-2.56 2.56-6.52 1.8-9.69 2.98-3.15.19-6.33.32-9.36 1.3-4.47-2.64-8.06-6.45-12.16-9.59-2.99-2.14-3.96-5.92-4.73-9.32.88-1.19 2.13-2.15 2.73-3.52.36-2.85.27-5.74.47-8.61z"/><path fill="#afadb0" d="M318.1 276.28h.82l.4.72-.4.73h-.82l-.4-.73.4-.72z"/><path fill="#494a49" d="M224.6 281.23l4.56.54c2.43 2.19 5.29 4.28 8.67 4.49 5.85.32 11.97 2.47 17.53-.47 1.25-.11 2.76-.86 3.86.07l-10.13 5.27-14.3-.74c-4.19-.13-7.73-2.61-11.21-4.67.19-1.53.53-3.04 1.02-4.49z"/><path fill="#b68063" d="M317.44 281.99l1.09 1.41-1.16 4.77c-2.03 1.19-3.89 2.63-5.7 4.13-.05-2.5.76-4.89 1.4-7.27l2.03.79c1.85-.29 1.67-2.51 2.34-3.83z"/><path fill="#3c3d3a" d="M308.94 284.75l2.92-1.71c-.53 2.98-1.29 5.92-2.2 8.8-1.47.12-2.95.09-4.4-.05 0-2.07.21-4.13.54-6.17 1.09-.1 2.22-.21 3.14-.87z"/><path fill="#89857e" d="M249.09 291.13l10.13-5.27c.21 2.93-2.92 4.12-4.93 5.47-4.18 2.19-8.3 5.34-13.26 5.11-4.23-.1-8.64-.35-12.48-2.26 4.22-1.88 8.99-.69 13.42-.43 2.63.1 4.9-1.42 7.12-2.62z"/><path fill="#8e8b83" d="M265.81 291.97c1.31-1.7 2.9-3.29 5.09-3.73l.12 1.71c-3.76 4.29-6.54 9.42-11.01 13.05-3.73 3.54-8.81 4.87-13.29 7.16-1.76-.45-3.85-.47-5.06-2.05 1.11-.82 2.22-1.63 3.37-2.4 3.17-1.18 7.13-.42 9.69-2.98 3.73-3.54 8.13-6.47 11.09-10.76z"/><path fill="#76736c" d="M281.87 289.77c2.43-.55 4.83-1.27 7.15-2.18 2.51.81 4.51 2.55 6.23 4.49-2.38 3.32-7.47 4.93-7.34 9.64 2.45-1.17 4.81-2.54 7.32-3.61-1.42 2.25-3.51 3.9-5.23 5.87-1.66 2.32-2.16 5.22-3.14 7.85l-4.83-.99c1.52-2.37 3.22-4.77 3.65-7.63a79.16 79.16 0 0 1-2.43-1.63l-1.09-1.7c-.67-1.22-1.2-2.5-1.64-3.81.46-2.06 2.81-4.26 1.35-6.3z"/><path fill="#84847d" d="M271.06 290.81c3.08-2.59 7.21-.91 10.81-1.04 1.46 2.04-.89 4.24-1.35 6.3.44 1.31.97 2.59 1.64 3.81-1.41 2-3.08 3.79-4.89 5.42-1.69.58-3.39 1.28-5.19 1.44-3.15-.69-7.4-1.74-7.46-5.71 3.05-2.71 5.71-6.1 6.44-10.22z"/><path fill="#5a5b56" d="M260.01 303c4.47-3.63 7.25-8.76 11.01-13.05l.04.86c-.73 4.12-3.39 7.51-6.44 10.22-1.8 1.48-3.58 3.02-4.77 5.05 1.67 1.07 3.49 1.9 5.16 3.01-.57 1.58-1.23 3.13-2 4.63-1.56-.17-3.11-.52-4.67-.41-2.05 1.59-2.91 4.24-4.21 6.42l-.13-1.69c-1.51.73-3.17 1.53-3.92 3.13-.35 1.33-.47 2.71-.66 4.07-4.49-1.45-6.92-5.78-9.7-9.26 1.7.67 3.36 1.43 5 2.22l-1.08-2.97c2.16-.84 4.39-1.61 6.29-2.99-1.05-.73-2.11-1.45-3.21-2.08 4.48-2.29 9.56-3.62 13.29-7.16z"/><path fill="#2b2d2e" d="M282.16 299.88l1.09 1.7-2.21 3.51c-3.02 2.23-5.83 4.76-8.29 7.61-1.92 2.19-2.63 5.08-3.91 7.63-1.36.33-2.73.62-4.1.88-1.34-3.53 2.26-6.09 4.99-7.46 2.31-2.99 4.82-5.82 7.54-8.45 1.81-1.63 3.48-3.42 4.89-5.42z"/><path fill="#676961" d="M259.85 306.08c1.19-2.03 2.97-3.57 4.77-5.05.06 3.97 4.31 5.02 7.46 5.71 1.8-.16 3.5-.86 5.19-1.44-2.72 2.63-5.23 5.46-7.54 8.45-2.23.25-4.49.26-6.72-.03.77-1.5 1.43-3.05 2-4.63-1.67-1.11-3.49-1.94-5.16-3.01z"/><path fill="#88898b" d="M281.04 305.09l2.21-3.51 2.43 1.63c-.43 2.86-2.13 5.26-3.65 7.63l-4.05 2.1c1.88-2.24 3.27-4.83 3.06-7.85z"/><path fill="#656666" d="M272.75 312.7c2.46-2.85 5.27-5.38 8.29-7.61.21 3.02-1.18 5.61-3.06 7.85 1.36-.68 2.72-1.35 4.05-2.1l4.83.99c-1.53 5.26-7.23 7.55-9.72 12.2-1 2.56-1.51 5.28-2.28 7.92-.9-1.47-2.06-2.73-3.75-3.22.41-4.77 3.38-8.81 3.85-13.58-3.11.84-3.76 4.15-5.07 6.65-.74 1.74-1.92 3.34-2.25 5.23.42 1.86 1.27 3.8.12 5.6-1.08.05-2.16.09-3.23.23-.21.17-.62.52-.83.7-.95.81-1.95 1.57-2.92 2.36l2.23-4.96c2.28-.43 3.06-2.92 3.12-4.94-.28-1.65-.89-3.22-1.39-4.81 1.37-.26 2.74-.55 4.1-.88 1.28-2.55 1.99-5.44 3.91-7.63z"/><path fill="#74746d" d="M235.67 307.01c3.03-.98 6.21-1.11 9.36-1.3l-3.37 2.4c1.21 1.58 3.3 1.6 5.06 2.05 1.1.63 2.16 1.35 3.21 2.08-1.9 1.38-4.13 2.15-6.29 2.99l1.08 2.97-5-2.22c2.78 3.48 5.21 7.81 9.7 9.26.19-1.36.31-2.74.66-4.07.75-1.6 2.41-2.4 3.92-3.13l.13 1.69-.81 2.31c2.26.61 4.14-.65 6.14-1.42l.24 1.24c-2.7 1.12-5.64 1.45-8.4 2.4l-.49 1.55 3.97 1.51c1.2 1.41 3.8.97 3.46-1.22l1.66.23.07 2.44c-1.44-.45-2.95.55-3.2 2.02-1.26.28-2.95.37-2.81 2.1a35.31 35.31 0 0 0 2.07 2.34c-1.16-.38-2.17-.18-3.03.62-.92.75-1.81 1.54-2.68 2.36-1.74.08-3.48.01-5.21-.03l-1.66-.02 1.57-4.02c1.39.26 2.81.57 4.24.46 2.11-1.75 3.34-4.31 4.7-6.64-4.57-.32-9.17-.02-13.65.93.47-3.79-3.06-6.16-5.1-8.86-.49 1.24.58 3.74-1.17 4.05-.94-2.91-1.03-5.97-1-8.99 1.02-2.65 1.88-5.35 2.63-8.08z"/><path fill="#373837" d="M290.48 314.51c5.34-1.92 10.04-5.14 14.63-8.41l2.28.9c-4.99 4.83-10.7 8.78-16.03 13.2l-4.29-1.34c.93-1.58 1.35-3.86 3.41-4.35z"/><path fill="#464748" d="M258.34 313.31c1.56-.11 3.11.24 4.67.41 2.23.29 4.49.28 6.72.03-2.73 1.37-6.33 3.93-4.99 7.46.5 1.59 1.11 3.16 1.39 4.81-.06 2.02-.84 4.51-3.12 4.94-3.1-.29-5.14 2.18-6.98 4.27l-2.07-2.34c-.14-1.73 1.55-1.82 2.81-2.1 1.37.49 3.63-.19 3.2-2.02l-.07-2.44-1.66-.23c-1.35-.21-2.5.19-3.46 1.22l-3.97-1.51.49-1.55c2.76-.95 5.7-1.28 8.4-2.4l-.24-1.24c-2 .77-3.88 2.03-6.14 1.42l.81-2.31c1.3-2.18 2.16-4.83 4.21-6.42m2.24 15.77c.76 1.02 1.91 1.3 3.43.83l.23-1.87c-.53-2.48-3.1-.21-3.66 1.04z"/><path fill="#676663" d="M229.87 321.87c.6-2.46 1.73-4.72 3.17-6.78-.03 3.02.06 6.08 1 8.99 1.75-.31.68-2.81 1.17-4.05 2.04 2.7 5.57 5.07 5.1 8.86 4.48-.95 9.08-1.25 13.65-.93-1.36 2.33-2.59 4.89-4.7 6.64-1.43.11-2.85-.2-4.24-.46-2.31-.8-4.59-1.67-6.83-2.64-1.54-1.7-3.16-3.34-4.59-5.13-1.01-1.58-1.39-3.45-2.32-5.07l-1.41.57z"/><path fill="#838486" d="M269.89 321.8c1.31-2.5 1.96-5.81 5.07-6.65-.47 4.77-3.44 8.81-3.85 13.58-.37 2.05-.94 4.05-1.64 6.01l-2.45.55c-1.12-.55-2.23-1.13-3.32-1.73l.83-.7c1.07-.14 2.15-.18 3.23-.23 1.15-1.8.3-3.74-.12-5.6.33-1.89 1.51-3.49 2.25-5.23z"/><path fill="#292928" opacity=".93" d="M287.07 318.86l4.29 1.34c-4.81 3.92-8.94 8.72-14.35 11.85 1.78-5.48 6.49-8.97 10.06-13.19z"/><path fill="#76796f" d="M231.28 321.3c.93 1.62 1.31 3.49 2.32 5.07 1.43 1.79 3.05 3.43 4.59 5.13l-1.81 1.83c.03 1.24.15 2.48.32 3.72-2.2-1.69-4.65-3.31-6-5.81-.99-2.39-1.07-5.03-1.34-7.56l.51-1.81 1.41-.57z"/><path fill="#4c4e4d" d="M229.1 341.67c-1.91-5.87-1.98-12.2.26-17.99.27 2.53.35 5.17 1.34 7.56 1.35 2.5 3.8 4.12 6 5.81 2.01 1.29 4.46 1.12 6.75 1.11l1.66.02 2.47.95c-.04 1.84-.18 3.72-.9 5.44-2.5 2.53-6.49 2.37-9.67 1.5-2.83-1.08-5.26-2.96-7.91-4.4z"/><path fill="#88898c" d="M254.78 327.32c.96-1.03 2.11-1.43 3.46-1.22.34 2.19-2.26 2.63-3.46 1.22z"/><path fill="#302f2d" d="M260.58 329.08c.56-1.25 3.13-3.52 3.66-1.04l-.23 1.87c-1.52.47-2.67.19-3.43-.83z"/><path fill="#99979b" d="M256.77 330.79c.25-1.47 1.76-2.47 3.2-2.02.43 1.83-1.83 2.51-3.2 2.02z"/><path fill="#7d7c7b" d="M256.03 335.23c1.84-2.09 3.88-4.56 6.98-4.27l-2.23 4.96-1.24 1.12-2.83 1.41c-.47 1.82-.66 3.71-.6 5.6.25 4.01-.19 8.06-1.24 11.94-1.41 2.85-4.34 4.46-7.03 5.9-1.67-.73-3.33-1.44-5.02-2.09l.03-1.74c2.63 1.49 6.48 2.23 8.52-.61 2.75-3.74 3.21-8.67 2.31-13.1l-1.46-.25a77.08 77.08 0 0 0-.74-1.19c.78-2.05 2.61-3.95 1.71-6.27 1.25.86 2.51-.18 2.84-1.41z"/><path fill="#85857d" d="M236.38 333.33l1.81-1.83 6.83 2.64-1.57 4.02c-2.29.01-4.74.18-6.75-1.11-.17-1.24-.29-2.48-.32-3.72z"/><path opacity=".11" d="M260.78 335.92l2.92-2.36 3.32 1.73c1.84.55 3.76.71 5.67.87.61 1.01.64 2.82 2.05 3.06 2.55.35 5.19.29 7.62 1.27 5.08 1.83 10.5 2.32 15.76 3.35 6.24 2.34 12.97.87 19.44 1.7.42 1.09.67 2.3 1.44 3.22 1.76-1.32 3.57-3.13 5.99-2.74 2.61-.17 4.5 1.7 6.28 3.32l2.74-1 2.11 2c2.31-1.48 5.17-2.22 7.6-.51l-1.3 2.41.52 1.42 3.64-1.67-.98 2.63 3.89 1.39c-2.59 1.33-5.52 1.75-8.4 1.82-.91-.68-1.83-1.33-2.75-1.98-2.97.84-5.73 2.19-8.39 3.7-5.21-.43-10.62-.44-15.56 1.54-.43.52-.83 1.07-1.2 1.63l-2.94-1.46c-1.32 1-2.51 2.23-4 2.99-3.64.46-7.33-.51-10.96.18a52.3 52.3 0 0 1-11.31.71c-5.64-.3-11.17 1.43-16.81.99l1.6-2.29c3.12-.89 5.91-2.63 8.22-4.89 2.95-2.34 3.72-6.25 3.14-9.81-1.28-3.63-4.39-6.08-7.83-7.52-4.02-2.42-10 .04-12.76-4.58l1.24-1.12z"/><path fill="#a9a4a5" d="M253 335.85c.86-.8 1.87-1 3.03-.62-.33 1.23-1.59 2.27-2.84 1.41l-.19-.79z"/><path fill="#605f5c" d="M250.32 338.21l2.68-2.36.19.79c.9 2.32-.93 4.22-1.71 6.27l.74 1.19c-.89 1.65-1.86 3.26-2.92 4.81-3.22-1.33-6.02 1.64-9.24 1.43-2.99-.14-5.77-1.36-8.69-1.87l-.78 2.36c-.69-1.19-1.42-2.37-2.29-3.44l-1.58 1.63c-.1-2.68 1.2-5.05 2.38-7.35 2.65 1.44 5.08 3.32 7.91 4.4 3.18.87 7.17 1.03 9.67-1.5.72-1.72.86-3.6.9-5.44l-2.47-.95 5.21.03z"/><path fill="#333334" d="M256.71 338.45l2.83-1.41c2.76 4.62 8.74 2.16 12.76 4.58 3.44 1.44 6.55 3.89 7.83 7.52l-1.69-.36c-7.24-2.48-15.19-1.74-22.33-4.73-.06-1.89.13-3.78.6-5.6m3.58 2.65l.01.81.72.42.72-.4-.01-.82-.72-.42-.72.41z"/><path fill="#6d6967" d="M260.29 341.1l.72-.41.72.42.01.82-.72.4-.72-.42-.01-.81z"/><path fill="#434341" d="M252.22 344.1l1.46.25c.9 4.43.44 9.36-2.31 13.1l-1.04-1.06c.02-2.53-.42-5.03-1.03-7.48 1.06-1.55 2.03-3.16 2.92-4.81z"/><path fill="#50504f" d="M256.11 344.05c7.14 2.99 15.09 2.25 22.33 4.73-.05 3.43-.46 6.87-1.45 10.17-2.31 2.26-5.1 4-8.22 4.89-3.03.5-6.22 1.41-9.24.34-1.32-1.33-3.13-1.28-4.86-1.14-2.35.15-4.72-.04-6.83-1.15 2.69-1.44 5.62-3.05 7.03-5.9 1.05-3.88 1.49-7.93 1.24-11.94m7.97 3.92c.7.74 1.55 1.28 2.55 1.62.14 1.46.35 3.08-.34 4.44-.76.62-1.86.23-2.75.51-1.03.57-1.76 1.52-2.42 2.48.38.88.79 1.75 1.25 2.6 2.41.16 4.85.27 7.24-.15 3.05-1.25 5.45-4.09 6.04-7.36-1.1-1.51-2.37-2.91-3.96-3.91-2.47-.68-5.09-.49-7.61-.23m-2.84 2.5c-1.59.71-1.13 3.6.76 3.39 1.73-.42.91-3.72-.76-3.39z"/><path fill="#51514e" d="M228.3 347.39c.87 1.07 1.6 2.25 2.29 3.44l.78-2.36c2.92.51 5.7 1.73 8.69 1.87 3.22.21 6.02-2.76 9.24-1.43.61 2.45 1.05 4.95 1.03 7.48l-3.86-2.76-.78-.98c-3.65.15-7.31.35-10.97.36.98 1.03 2.29 1.59 3.63 2.01l-2.45 1.94c-2.65-1.64-5.08-3.68-8.01-4.81-.48-1.01-.87-2.06-1.17-3.13l1.58-1.63z"/><path fill="#6b6867" d="M264.08 347.97c2.52-.26 5.14-.45 7.61.23 1.59 1 2.86 2.4 3.96 3.91-.59 3.27-2.99 6.11-6.04 7.36-2.39.42-4.83.31-7.24.15l-1.25-2.6c.66-.96 1.39-1.91 2.42-2.48.89-.28 1.99.11 2.75-.51.69-1.36.48-2.98.34-4.44-1-.34-1.85-.88-2.55-1.62m4.17 1.21c-.3 1.54-.76 3.14-.39 4.72.42 1.3 1.96 1.47 3.07 1.85.76-.86 1.74-1.73 1.7-2.98.44-2.3-2.14-4.81-4.38-3.59z"/><path fill="#858589" d="M268.25 349.18c2.24-1.22 4.82 1.29 4.38 3.59.04 1.25-.94 2.12-1.7 2.98-1.11-.38-2.65-.55-3.07-1.85-.37-1.58.09-3.18.39-4.72z"/><path fill="#595656" opacity=".89" d="M278.44 348.78l1.69.36c.58 3.56-.19 7.47-3.14 9.81.99-3.3 1.4-6.74 1.45-10.17z"/><path fill="#777676" d="M261.24 350.47c1.67-.33 2.49 2.97.76 3.39-1.89.21-2.35-2.68-.76-3.39z"/><path fill="#474441" d="M227.89 352.15c2.93 1.13 5.36 3.17 8.01 4.81l2.45-1.94 4.57.09-.07 2.95-.03 1.74-2.89.2c-4.12-2.34-9.62-3.38-12.04-7.85z"/><path fill="#6c665f" d="M234.72 353.01c3.66-.01 7.32-.21 10.97-.36.2.24.58.73.78.98l-3.55 1.48-4.57-.09c-1.34-.42-2.65-.98-3.63-2.01z"/><path fill="#303232" d="M242.92 355.11l3.55-1.48c1.22 1 2.56 1.84 3.86 2.76l1.04 1.06c-2.04 2.84-5.89 2.1-8.52.61l.07-2.95z"/><path fill="#65625f" opacity=".93" d="M254.67 363.04c1.73-.14 3.54-.19 4.86 1.14-1.71.92-4.63 1.66-4.86-1.14z"/></svg>