<svg xmlns="http://www.w3.org/2000/svg" width="682.667" height="682.667" viewBox="0 0 512 512"  xmlns:v="https://vecta.io/nano"><path fill="#a7a3a0" opacity=".85" d="M294.39 76.86l1.62 1.69-.5 5.75-3.08-1.35 1.96-6.09z"/><path fill="#848879" d="M295.51 84.3c.07-1.93.3-3.84.5-5.75l5.36 8.01-.36 1.78c-1.66 2.3-3.36 4.72-3.66 7.64-.87 5.39-1.28 11.03.51 16.29l.9 1.18.73-.25.27-.73-.53-1.39.68-2.12c1.09-3.41 1.69-7.05 3.82-10.02.09 1.95.15 3.89.16 5.84.07 5-.31 9.97-.5 14.96-.15 2.24.96 4.26 1.94 6.19l-.76 2.53c-.45 2.98.28 5.94.79 8.87.64 3.5.37 7.06.37 10.59-.07 4.23.25 8.47-.11 12.7-.99 1.46-2.19 2.76-3.18 4.22-1.37 5.77-.68 11.76.24 17.54.82 4 .46 8.07-.3 12.05-1.42 4.52 4.72 8.13 2.06 12.55l-1.44 3.06 5.94 4.27-.7 2.06-.6.27c-1.74-1.71-3.87-2.87-6.33-3.06l.22 3.27c-.63-.59-1.24-1.19-1.84-1.8-1.16-1.25-2.24-2.55-3.32-3.86l-2.54-.16 2.38-1.25c-.76-1.85-1.47-3.72-2.46-5.45l1.89-4.22c-.92-1.98-1.99-3.93-2.39-6.08.87-3.96 4.35-7.55 2.87-11.81-.36-1.83-2.3-2.45-3.64-3.4l.61-3.17c.53-1.24 1.13-2.45 1.59-3.72-.14-2.6-1.56-4.89-2.42-7.28l-.28-2.7c1.23.36 2.47.67 3.72.99-.22 5-.29 10.01-.28 15.03l2.62 1.2-.17 2.55c-1.24 2.85-1.18 5.83.11 8.66 1.53 6.85.14 13.92 1.51 20.79 3.73-8.74.17-18.12.8-27.18.33-9.96.88-19.94.34-29.9-.19-4.62-.86-9.23-.5-13.85.38-5.37 1.36-10.75.8-16.15.01-1.98-1.63-3.28-2.8-4.65.01-.46.05-1.39.07-1.86l-2.31.44c.1-2.39-.82-4.56-2.23-6.44.97-1.77 2.32-3.47 2.48-5.56.18-3.1-.62-6.14-.98-9.19.34-4.17.6-8.35.35-12.53z"/><path fill="#4c5260" d="M283.44 83.6l8.07-.83-.67 9.96-.37 4.24-1.23-7.29-.11-1.03-2.94.76c-1.48 2.33-2.09 5.07-2.29 7.79-.05-4.54-.31-9.07-.46-13.6z"/><path fill="#9ca292" d="M291.51 82.77l.92.18 3.08 1.35c.25 4.18-.01 8.36-.35 12.53l-2.09 1.07-2.23-5.17c.19-3.32.34-6.65.67-9.96z"/><path opacity=".77" d="M283.34 109c.12-8.47-.37-16.94.1-25.4l.46 13.6c-.12 8.32.28 16.64.17 24.96l.01 1.81-.01 2.56c-.26 2.45-.67 4.88-1.06 7.31l-8.86 12.25-.81-1.7-1.19-2.48 2.88.89c.14-2.42.16-4.87.67-7.25 1.75-1.49 4-2.16 6.08-3.05 2.36-7.62 1.44-15.66 1.56-23.5z"/><path fill="#74796f" d="M301.37 86.56l.48.6 2.7 3.96c-.51 2.72-.95 5.69-3.37 7.43-.28-3.39-.34-6.81-.17-10.21l.36-1.78z"/><path fill="#2b2c2f" d="M301.85 87.16c1.31.97 2.75 1.81 3.9 2.99.84 2.38 1.01 4.93 1.45 7.41 2.93.95 5.89 1.96 8.49 3.66l-3.34-.37-2.33-2.23c-.99 1.85-2.16 3.66-2.66 5.72-.24 1.8 0 3.62.09 5.43.14 2.18.08 4.38-.03 6.57-.09 1.92-.41 4.19 1.43 5.46-.19 2.58.02 5.18.78 7.66l.47 2.54-1.53.07-4-3.61.76-2.53c2.14-6.81.6-14.01.83-21 0-4.64-.29-9.33-1.61-13.81-.83-1.37-1.74-2.69-2.7-3.96z"/><path fill="#cbc8d5" d="M286.19 89.41l2.94-.76.11 1.03-.57 6.65c-.98-2.25-1.78-4.58-2.48-6.92z"/><path fill="#a2a89c" d="M297.35 95.98c.3-2.92 2-5.34 3.66-7.64-.17 3.4-.11 6.82.17 10.21 2.42-1.74 2.86-4.71 3.37-7.43 1.32 4.48 1.61 9.17 1.61 13.81l-2.27-.15c-.01-1.95-.07-3.89-.16-5.84-2.13 2.97-2.73 6.61-3.82 10.02.33-4.46.04-9.18-2.56-12.98z"/><path fill="#b9bbc3" d="M283.9 97.2c.2-2.72.81-5.46 2.29-7.79.7 2.34 1.5 4.67 2.48 6.92l.57-6.65 1.23 7.29-.04.89c-.8 4.38-1.1 8.86-.44 13.28l1.3-1.45-.01 3.64-1.28-1.47c-.85 12.74-.11 25.51-.26 38.27-.62-1.25-1.29-2.47-1.97-3.68-.48 4.48-.37 8.99-.07 13.48l2.39 1.4-1.13 1.86-1.59.23-4.73.68c.66 2.53 1.67 5.07 4.21 6.23l-.09.93c-2.67-.06-5.34-.2-8-.31l.1-6.73 5.74-1.7c.36-12-.4-23.99-.53-35.99l.01-2.56c1.49 1.33 3.28 2.24 5.07 3.12l-.04-5.08-2.49 1.52-2.55-1.37c.11-8.32-.29-16.64-.17-24.96m3.34-.09l-.35.83.34.83.83.35.83-.34.35-.83-.34-.83-.83-.35-.83.34m0 3.04l-.35.83.34.83.83.35.83-.34.35-.83-.34-.83-.83-.35-.83.34m.03 2.96l-.35.83.35.83.83.34.83-.34.34-.83-.34-.83-.83-.34-.83.34m.35 2.66c-.22 1.73-.35 3.48-.48 5.23l2.11-.07c-.32-1.77-.01-3.96-1.63-5.16m-.26 6.46c.2 3.04-.78 6.55 1.43 9.07.34-3.05.31-6.12.17-9.18l-1.6.11m.76 19.08l-.4.72.42.71.82-.01.41-.72-.42-.71-.83.01m-.81 2.89l-.34.83.34.83.83.35.83-.34.35-.83-.35-.83-.83-.35-.83.34m.92 3.18c-1.56.89-.68 3.68.26 4.84 1.48-.72 1.16-4.01-.26-4.84z"/><path fill="#acb599" d="M290.84 92.73l2.23 5.17 2.09-1.07c.36 3.05 1.16 6.09.98 9.19-.16 2.09-1.51 3.79-2.48 5.56 1.41 1.88 2.33 4.05 2.23 6.44l-.8.16c-1.4.64-2.66 1.55-3.85 2.51l.04-7.36.01-3.64c.04-3.97-.59-7.89-.86-11.83l.04-.89.37-4.24z"/><path fill="#6c6a72" d="M297.35 95.98c2.6 3.8 2.89 8.52 2.56 12.98l-.68 2.12-1.37 1.19c-1.79-5.26-1.38-10.9-.51-16.29z"/><path fill="#d4d4e0" d="M287.24 97.11l.83-.34.83.35.34.83-.35.83-.83.34-.83-.35-.34-.83.35-.83z"/><path fill="#797c7c" d="M289.99 111.14c-.66-4.42-.36-8.9.44-13.28.27 3.94.9 7.86.86 11.83l-1.3 1.45z"/><path fill="#85868a" d="M307.36 104.34c.5-2.06 1.67-3.87 2.66-5.72l2.33 2.23c1.5 3.35-.63 6.71-.72 10.09.38 2.44 1.48 4.7 2.41 6.97l-2.04 4.02c.78 1.69 1.73 3.33 2.19 5.15-.35 1.08-.85 2.1-1.3 3.14-.83-2.47-1.68-4.95-2.92-7.25l-1.12-1.17c-1.84-1.27-1.52-3.54-1.43-5.46l3.24-.87-.01-4.92-3.2-.78c-.09-1.81-.33-3.63-.09-5.43m1.14 1.83c.13 1.45.76 1.7 1.9.75-.14-1.45-.77-1.7-1.9-.75z"/><path fill="#dbdbe7" d="M287.24 100.15l.83-.34.83.35.34.83-.35.83-.83.34-.83-.35-.34-.83.35-.83z"/><path fill="#6a6a70" d="M312.35 100.85l3.34.37 1.47 1.79c.09 5.12-.53 10.38-3.12 14.9-.93-2.27-2.03-4.53-2.41-6.97.09-3.38 2.22-6.74.72-10.09z"/><path fill="#d8d9e4" d="M287.27 103.11l.83-.34.83.34.34.83-.34.83-.83.34-.83-.34-.35-.83.35-.83z"/><path fill="#58595b" d="M317.16 103.01c1.34 6.2-.3 12.46-.38 18.69-.06 3.71.81 7.42.36 11.13-.91 2.37-2.74 4.21-4.31 6.15-.36-.15-1.07-.47-1.42-.62 1.03-2.59 1.84-5.33 1.48-8.14.45-1.04.95-2.06 1.3-3.14-.46-1.82-1.41-3.46-2.19-5.15l2.04-4.02c2.59-4.52 3.21-9.78 3.12-14.9z"/><path fill="#a6a5ad" d="M303.89 104.78l2.27.15c-.23 6.99 1.31 14.19-.83 21-.98-1.93-2.09-3.95-1.94-6.19.19-4.99.57-9.96.5-14.96z"/><path fill="#d0cfda" d="M287.62 105.77c1.62 1.2 1.31 3.39 1.63 5.16l-2.11.07.48-5.23z"/><path fill="#acabb1" d="M308.5 106.17c1.13-.95 1.76-.7 1.9.75-1.14.95-1.77.7-1.9-.75z"/><path fill="#f4f3f9" d="M307.42 116.34l.03-6.57 3.2.78.01 4.92-3.24.87z"/><path fill="#adadac" d="M297.86 112.27l1.37-1.19.53 1.39-.27.73-.73.25-.9-1.18z"/><path fill="#dedde6" d="M287.36 112.23l1.6-.11c.14 3.06.17 6.13-.17 9.18-2.21-2.52-1.23-6.03-1.43-9.07z"/><path fill="#76777d" d="M290 111.86l1.28 1.47-.04 7.36.15 1.91c-.07 6.14-.58 12.27-.33 18.41 0 6.54.7 13.17-.57 19.64l-.4.68c-.22-3.73-.27-7.47-.35-11.2.15-12.76-.59-25.53.26-38.27z"/><path fill="#777b70" d="M295.89 118.02l2.31-.44-.07 1.86c-.57 5.3-1.11 10.62-.66 15.94.63 7.86.04 15.73.42 23.59.3 6.73.49 13.47.15 20.2l-2.62-1.2c-.01-5.02.06-10.03.28-15.03.34-11.31-.53-22.64.38-33.93-.61-2.68-1.83-5.17-2.49-7.83.44-1.03.94-2.03 1.5-3l.8-.16z"/><path fill="#8b8f86" d="M291.24 120.69c1.19-.96 2.45-1.87 3.85-2.51-.56.97-1.06 1.97-1.5 3 .66 2.66 1.88 5.15 2.49 7.83l-2.9.92-1.79-7.33-.15-1.91z"/><path fill="#b7bda9" d="M298.13 119.44c1.17 1.37 2.81 2.67 2.8 4.65.56 5.4-.42 10.78-.8 16.15-.36 4.62.31 9.23.5 13.85.54 9.96-.01 19.94-.34 29.9-.63 9.06 2.93 18.44-.8 27.18-1.37-6.87.02-13.94-1.51-20.79l-.11-8.66.17-2.55c.34-6.73.15-13.47-.15-20.2-.38-7.86.21-15.73-.42-23.59-.45-5.32.09-10.64.66-15.94z"/><path fill="#d7d7de" d="M284.07 122.16l2.55 1.37 2.49-1.52.04 5.08c-1.79-.88-3.58-1.79-5.07-3.12l-.01-1.81z"/><path fill="#8d8d92" d="M308.85 121.8l1.12 1.17c1.24 2.3 2.09 4.78 2.92 7.25.36 2.81-.45 5.55-1.48 8.14-.39-3.01-.93-5.99-1.78-8.9-.76-2.48-.97-5.08-.78-7.66z"/><path fill="#afb5a3" d="M291.39 122.6l1.79 7.33 2.9-.92c-.91 11.29-.04 22.62-.38 33.93l-3.72-.99-1.49-1.3c1.27-6.47.57-13.1.57-19.64-.25-6.14.26-12.27.33-18.41z"/><path fill="#4d4e4c" d="M284.07 126.53c.13 12 .89 23.99.53 35.99l-5.74 1.7-.1 6.73 2.71 1.35c-.16 2.16-.34 4.32-.39 6.5-2.35-.47-4.71-.86-7.08-1.21-.31 3.75-.88 7.47-1.89 11.09-2.8-.74-5.7-.41-8.55-.63-2.24-1.26-3.88-3.39-6.17-4.57-3.98-1.8-9.08-.46-11.7 3.01-.22 2.6.56 5.14 1.06 7.66-1.39-.11-2.79-.16-4.19-.21l-1.84-2.97-6.12-.37c.89-2.52 2.14-4.99 4.22-6.75 2.48-2.17 5.13-4.49 5.83-7.89l1.51 3.38c7.79.2 15.62.33 23.39-.44l2.87-.34 1-3.65 4.74 1.61-1.29-4.41-2.23-.77c1.86-3.92 4.28-7.53 6.38-11.32 1.57-2.73 1.12-6.01 1.48-9.02l.11-.87c1.39-5.35.89-10.86.4-16.29.39-2.43.8-4.86 1.06-7.31z"/><path fill="#67695b" d="M304.57 128.46l4 3.61c-1.15 3.89-2.1 8-.95 12.02l.22 1.65c.41 5.04-.07 10.25-2.22 14.88.36-4.23.04-8.47.11-12.7 0-3.53.27-7.09-.37-10.59-.51-2.93-1.24-5.89-.79-8.87z"/><path fill="#5c5c5f" opacity=".8" d="M309.63 129.46c.85 2.91 1.39 5.89 1.78 8.9l1.42.62c-1.63 1.93-3.16 3.94-4.56 6.03l-.43.73-.22-1.65c1.66-3.82 2.92-7.88 2.48-12.09l-.47-2.54z"/><path fill="#e4e3ea" d="M288.12 131.31l.83-.01.42.71-.41.72-.82.01-.42-.71.4-.72z"/><path fill="#1f201e" opacity=".51" d="M308.57 132.07l1.53-.07c.44 4.21-.82 8.27-2.48 12.09-1.15-4.02-.2-8.13.95-12.02z"/><path fill="#b88f74" d="M274.15 146.09l8.86-12.25c.49 5.43.99 10.94-.4 16.29-.06-3.8-.36-7.6-.73-11.38-2.9 2.89-5.29 6.21-7.6 9.57-3.93 5.63-8.7 10.58-13.68 15.28-2.19 1.9-3.34 4.6-4.03 7.36l-1.1-4.92c4.23-4.14 8.38-8.36 12.45-12.66l1.92-2.13 3.42-4.03.89-1.13z"/><path fill="#d8d7e3" d="M287.31 134.2l.83-.34.83.35.35.83-.35.83-.83.34-.83-.35-.34-.83.34-.83z"/><path fill="#dfdfe8" d="M288.23 137.38c1.42.83 1.74 4.12.26 4.84-.94-1.16-1.82-3.95-.26-4.84z"/><path fill="#ecbb9b" d="M274.28 148.32c2.31-3.36 4.7-6.68 7.6-9.57.37 3.78.67 7.58.73 11.38l-.11.87c-2.11 3.64-4.48 7.12-6.73 10.67-1.43 2.19-2.89 4.54-5.3 5.78-3.6 2.01-7.25 3.93-10.7 6.18a43.09 43.09 0 0 1-3.2-2.67c.69-2.76 1.84-5.46 4.03-7.36 4.98-4.7 9.75-9.65 13.68-15.28z"/><path fill="#3c3e40" d="M251.47 149.6c2.91-4.26 7.17-7.79 12.45-8.44l9.42 3.23.81 1.7-.89 1.13c-2.91-.92-5.73-2.55-8.85-2.53-3.59.54-5.86 3.72-8.57 5.81-1.15.82-2.33 1.58-3.51 2.35l-.86-3.25z"/><path fill="#615e5d" opacity=".88" d="M263.92 141.16c2.77-.45 5.58-.09 8.23.75l1.19 2.48-9.42-3.23z"/><path fill="#75726f" d="M264.41 144.69c3.12-.02 5.94 1.61 8.85 2.53l-3.42 4.03-.67-1.29c-.43-1.12-.2-2.93-1.63-3.33-1.45-.09-2.89.11-4.32.24.26 1.35.17 2.86.92 4.07 1.15.96 2.49 1.67 3.78 2.44-4.07 4.3-8.22 8.52-12.45 12.66l-.69-.55-1.24-.87 1.57-1.74c-2.63.38-5.42 1.37-7.98.14 4.18-1.39 8.9-1.3 12.79-3.46.22-1.28.29-2.58.39-3.87l-3.72-.22-.75-4.97c2.71-2.09 4.98-5.27 8.57-5.81z"/><path opacity=".1" d="M307.84 145.74l.43-.73c.65 1.55 1.14 3.19 2.12 4.58 2 1.09 4.25 1.66 6.19 2.87 2.46 2.67 3.16 7.25 7.05 8.36 4.83 1.58 9.94 2.5 14.3 5.27 3.76 2.41 8.51 2.26 12.28 4.62 1.49.84 2.92 1.8 4.47 2.56 2.6 1.29 5.71.52 8.35 1.62 1.67 1.29 3.01 3.17 5.18 3.68 3.1.79 5.64 2.74 8.34 4.33 4.42 2.07 9.41 2.47 14.23 2.44l-1.48 5.34 7.35-.61c.27 3.52.62 7.04 1 10.56-2.52.28-5.26 1.4-7.71.33-1.62-1.68-2.6-3.84-3.73-5.85l.3 7.04-6.72 1.57-.99-3.76c-4.42-2.25-8.94 1.05-13.5.05-4.9-.79-9.84.1-14.75-.28-5.25-.37-10.53-.34-15.76-.94-3.55-.42-7.13-.08-10.66.37l-.87.11c-1.25-5.96-4.72-11.1-8.98-15.33l-1.07-1.1c-2.76-2.95-5.75-5.68-9.01-8.07-1.93-2.93-1.92-6.55-1.76-9.93.99-1.46 2.19-2.76 3.18-4.22 2.15-4.63 2.63-9.84 2.22-14.88z"/><path fill="#8b8a8d" d="M263.22 146.87c1.43-.13 2.87-.33 4.32-.24 1.43.4 1.2 2.21 1.63 3.33l.67 1.29-1.92 2.13c-1.29-.77-2.63-1.48-3.78-2.44-.75-1.21-.66-2.72-.92-4.07z"/><path fill="#d3d1db" d="M287.77 146.45l1.97 3.68.35 11.2-2.39-1.4c-.3-4.49-.41-9 .07-13.48z"/><path fill="#525352" d="M248.14 156.17c.51-2.45 1.78-4.64 3.33-6.57l.86 3.25 3.51-2.35.75 4.97 3.72.22-.39 3.87c-3.89 2.16-8.61 2.07-12.79 3.46a92.81 92.81 0 0 0 .77-5.23c1.28.21 2.96-.56 3-2.01-.28-1.7-2.28-.52-2.76.39z"/><path fill="#d9aa88" d="M275.77 161.67c2.25-3.55 4.62-7.03 6.73-10.67-.36 3.01.09 6.29-1.48 9.02-2.1 3.79-4.52 7.4-6.38 11.32-.45 1.18-.85 2.37-1.22 3.57-.36 1.21-.68 2.43-1 3.65l-2.87.34c-3.32-1.63-6.69-3.22-9.78-5.27 3.45-2.25 7.1-4.17 10.7-6.18 2.41-1.24 3.87-3.59 5.3-5.78z"/><path fill="#6b6b67" d="M248.14 156.17c.48-.91 2.48-2.09 2.76-.39-.04 1.45-1.72 2.22-3 2.01l.24-1.62z"/><path fill="#46433f" d="M290.09 161.33l.4-.68 1.49 1.3.28 2.7c-.45 3.69-.1 7.41.83 11l-.61 3.17-.72 3.77-.74.35-.83-4.38c-1.13-5.02-2.49-10.22-1.23-15.37.29-.46.85-1.39 1.13-1.86z"/><path fill="#5f5e5a" d="M244.65 175.96l2.48-12.94c2.56 1.23 5.35.24 7.98-.14l-1.57 1.74c-1.74 1.88-3.31 3.91-4.74 6.05l3.32 1.36c.56-2.3 1.46-4.5 2.66-6.54l.69.55 1.1 4.92a43.09 43.09 0 0 0 3.2 2.67c3.09 2.05 6.46 3.64 9.78 5.27-7.77.77-15.6.64-23.39.44l-1.51-3.38z"/><path fill="#e3e2f0" d="M282.64 164.1l4.73-.68-.52 6.91c-2.54-1.16-3.55-3.7-4.21-6.23z"/><path fill="#88888c" d="M287.37 163.42l1.59-.23c-1.26 5.15.1 10.35 1.23 15.37l-2.1 2.6.96 2.64 1.97-.86.74-.35c-.78 6.64-1.02 13.49.46 20.06l-.95.07c-1.8-.11-3.6-.31-5.39-.5l1.08 6.42-1.74.21-2.77-5.02c1.62-3.67 1.4-7.78 1.19-11.7-.22-4.56-2.5-8.75-2.56-13.33.05-2.18.23-4.34.39-6.5l-2.71-1.35 8 .31.09-.93.52-6.91m-5.29 18.1c-.88 1.17-.62 1.81.77 1.95.94-1.18.69-1.83-.77-1.95m3.1 4.77c-.19 4.52-.14 9.04-.06 13.56l2.62 1.48c2.53-.16 1.86-2.8 2.13-4.57.06-3.92.09-7.84-.17-11.74l-4.52 1.27z"/><path fill="#858280" d="M248.8 170.67c1.43-2.14 3-4.17 4.74-6.05l1.24.87c-1.2 2.04-2.1 4.24-2.66 6.54l-3.32-1.36z"/><path fill="#a4ad8d" d="M292.26 164.65c.86 2.39 2.28 4.68 2.42 7.28-.46 1.27-1.06 2.48-1.59 3.72-.93-3.59-1.28-7.31-.83-11z"/><path fill="#72716f" d="M302.68 182.38c-.92-5.78-1.61-11.77-.24-17.54-.16 3.38-.17 7 1.76 9.93.96 1.87 1.99 3.72 2.66 5.73-1.34.73-2.77 1.29-4.18 1.88z"/><path fill="#bebec7" d="M274.64 171.34l2.23.77 1.29 4.41-4.74-1.61 1.22-3.57z"/><path fill="#585754" d="M304.2 174.77c3.26 2.39 6.25 5.12 9.01 8.07-1.94.26-1.67 4.11.42 2.67l.65-1.57c4.26 4.23 7.73 9.37 8.98 15.33-.05 1.2-.15 2.39-.28 3.59l-3.06.91c-1.5-3.86-2.89-7.76-4.22-11.68l-4.72-1.1c-1.5 3.29-3.22 7.04-1.81 10.68 2.68 3.79 7.99 3.11 12.03 3.9l.68 3.37c-2.35.93-4.75 1.83-6.83 3.3.24 1.32.57 2.63.9 3.94l-1.32.44c-1.56 2.37-2.24 5.16-2.7 7.93l-.16-.86c-.5-2.7-1.44-5.43-3.53-7.32l.7-2.06 3.25-2c-2.13-2.38-4.82-4.11-7.75-5.33 2.66-4.42-3.48-8.03-2.06-12.55.76-3.98 1.12-8.05.3-12.05 1.41-.59 2.84-1.15 4.18-1.88-.67-2.01-1.7-3.86-2.66-5.73m3.67 8.11c.13 2.33.31 4.88 2.17 6.56l1.72-.54c.8-2.49-2.2-4.52-3.89-6.02z"/><path fill="#202226" d="M274 177.59l7.08 1.21c.06 4.58 2.34 8.77 2.56 13.33.21 3.92.43 8.03-1.19 11.7-.78 1.35-1.62 2.65-2.41 3.99l.12-2.7c-.68-4.29-1.8-8.56-3.72-12.47-.79-1.91-2.64-2.97-4.33-3.97 1.01-3.62 1.58-7.34 1.89-11.09z"/><path fill="#bdbcc3" d="M288.09 181.16l2.1-2.6.83 4.38-1.97.86-.96-2.64z"/><path fill="#989c92" d="M292.48 178.82c1.34.95 3.28 1.57 3.64 3.4 1.48 4.26-2 7.85-2.87 11.81.4 2.15 1.47 4.1 2.39 6.08l-1.89 4.22-1.3-.97-.23-.71c-1.48-6.57-1.24-13.42-.46-20.06l.72-3.77z"/><path fill="#d9d9e1" d="M282.08 181.52c1.46.12 1.71.77.77 1.95-1.39-.14-1.65-.78-.77-1.95z"/><path fill="#5f5f68" d="M297.98 190.38c-1.29-2.83-1.35-5.81-.11-8.66l.11 8.66z"/><path fill="#3f3d3b" d="M245.69 186.49c2.62-3.47 7.72-4.81 11.7-3.01 2.29 1.18 3.93 3.31 6.17 4.57 2.85.22 5.75-.11 8.55.63 1.69 1 3.54 2.06 4.33 3.97 1.92 3.91 3.04 8.18 3.72 12.47l-4.8-3.82-2.32 1.56-3.91-.81-1.17 1.85 4.29 2.3-3.09.11-.01 2.42c-4.1-.72-8.28-.51-12.39-.04-5.42-.12-10.43-2.26-15.02-4.96-1.52-.25-3.05-.4-4.57-.54l-.42-2.16c3.06.25 6.14.25 9.21.36l-1.24 1.94c4.84 2.26 10.21 3.2 15.46 1.93l2.47.37 2.13.35c-.96-2.83-1.54-6.01-3.68-8.24-1.74-1.07-3.86-1.17-5.82-1.6-2.85-.63-5.65-1.5-8.53-1.99-.5-2.52-1.28-5.06-1.06-7.66z"/><path d="M307.87 182.88c1.69 1.5 4.69 3.53 3.89 6.02l-1.72.54c-1.86-1.68-2.04-4.23-2.17-6.56zm-51.43 39.74c2.08.97 3.57 2.74 4.99 4.49l6.4-1.07-4.99 6.71.01-1.16-3.7.68c-2.97.66-5.87 1.64-8.76 2.6-.57-3.36.99-6.37 2.89-9.02l4.7-1.02-1.54-2.21z" fill="#71706f"/><path fill="#797878" d="M313.63 185.51c-2.09 1.44-2.36-2.41-.42-2.67l1.07 1.1-.65 1.57z"/><path fill="#c0c0cb" d="M285.18 186.29l4.52-1.27c.26 3.9.23 7.82.17 11.74l-2.59.72.46 3.85-2.62-1.48c-.08-4.52-.13-9.04.06-13.56z"/><path fill="#5f6262" d="M234.6 190.6l6.12.37 1.84 2.97-2.56 4.75-3.15-.52-4.28-1.09 2.03-6.48z"/><path fill="#676768" d="M310.98 190.99l4.72 1.1c1.33 3.92 2.72 7.82 4.22 11.68l3.06-.91-1.78 2.71c-4.04-.79-9.35-.11-12.03-3.9-1.41-3.64.31-7.39 1.81-10.68z"/><path fill="#717273" d="M242.56 193.94l4.19.21c2.88.49 5.68 1.36 8.53 1.99-3.36.14-6.72.46-10.02 1.08-1.68.79-3.23 1.83-4.75 2.89 2.71.15 5.4-.29 8.03-.96 2.59.17 5.18.54 7.72 1.13-1.31.45-1.67 1.13-1.07 2.05 1.18.13 2.01-.37 2.5-1.51 2.22.96 4.12 2.47 4.96 4.81l-2.47-.37c-4.29-2.59-9.29-3.52-14.22-3.87-3.07-.11-6.15-.11-9.21-.36l-.36-2.08.46-.78 3.15.52 2.56-4.75z"/><path fill="#626363" d="M245.26 197.22c3.3-.62 6.66-.94 10.02-1.08 1.96.43 4.08.53 5.82 1.6 2.14 2.23 2.72 5.41 3.68 8.24-.54-.08-1.6-.26-2.13-.35-.84-2.34-2.74-3.85-4.96-4.81l-1.43-.54c-2.54-.59-5.13-.96-7.72-1.13l-3.28-1.93z"/><path fill="#d7d6e2" d="M287.28 197.48l2.59-.72c-.27 1.77.4 4.41-2.13 4.57l-.46-3.85z"/><path fill="#97999d" d="M240.51 200.11c1.52-1.06 3.07-2.1 4.75-2.89l3.28 1.93c-2.63.67-5.32 1.11-8.03.96z"/><path fill="#696760" d="M233.37 203.34c.8-1.59 1.98-2.95 3.02-4.39l.36 2.08.42 2.16 4.57.54c-3.57 1.56-6.54 4.17-8.89 7.25.03-2.54-.24-5.17.52-7.64z"/><path fill="#2e2c2b" opacity=".61" d="M323.26 199.27l.87-.11c-.95 5.28-1.17 10.69-.54 16.02l-.39-1.43c-.46-1.6-.93-3.2-1.32-4.81-.26-1.12-.47-2.25-.68-3.37.61-.9 1.2-1.8 1.78-2.71.13-1.2.23-2.39.28-3.59z"/><path fill="#625f59" d="M245.96 201.39c4.93.35 9.93 1.28 14.22 3.87-5.25 1.27-10.62.33-15.46-1.93l1.24-1.94z"/><path fill="#a0a1a4" d="M255.19 202.33c-.6-.92-.24-1.6 1.07-2.05l1.43.54c-.49 1.14-1.32 1.64-2.5 1.51z"/><path fill="#4d4d4d" d="M275.36 201.3l4.8 3.82-.12 2.7-.41 1.62-1.13-2.7-2.82 3.26-3.83-2.13.4-1.67.79-3.34 2.32-1.56z"/><path fill="#5d5d5e" d="M269.13 202.05l3.91.81-.79 3.34-4.29-2.3 1.17-1.85z"/><path fill="#7aacdd" d="M285.88 202.22l5.39.5-3.97.54.01 3.69 5.94-1.01.59 1.9-6.88.8-1.08-6.42z"/><path fill="#ecffff" d="M287.3 203.26l3.97-.54.95-.07.23.71.8 2.58-5.94 1.01-.01-3.69z"/><path fill="#86887e" d="M232.85 210.98c2.35-3.08 5.32-5.69 8.89-7.25 4.59 2.7 9.6 4.84 15.02 4.96l5.63.77c.9 4.51 1.91 9 2.53 13.57-6.71-.4-12.56-4.3-19.19-5.21 1.84-.44 3.65-1.02 5.47-1.56-.81-1.82-.92-4.57-3.21-5.15-3.46.56-5.32 3.69-6.32 6.75-2.99.09-5.97.28-8.95.5l4.55 1.04a178.99 178.99 0 0 0-6.96.94l1.05-1.99-1.79-.98a69.98 69.98 0 0 1 .66-2.19c.84-1.42 1.68-2.84 2.62-4.2z"/><path fill="#020201" opacity=".79" d="M282.45 203.83l2.77 5.02 1.35 2.56.7 4.86c-3.18-.07-5.75-2.03-8.18-3.85l.37-2.15.17-.83.41-1.62 2.41-3.99z"/><path fill="#696c6f" d="M292.45 203.36l1.3.97c.99 1.73 1.7 3.6 2.46 5.45l-2.38 1.25-7.26.38-1.35-2.56 1.74-.21 6.88-.8-.59-1.9-.8-2.58z"/><path fill="#2a2d31" d="M269.16 206.31l3.09-.11-.4 1.67-.97 3.63-1.47.97-.26-3.74.01-2.42z"/><path fill="#6a686a" d="M275.68 210l2.82-3.26 1.13 2.7-.17.83c-2.56 1.74-5.66 1.45-8.58 1.23l.97-3.63 3.83 2.13z"/><path fill="#454443" d="M304.44 206.98c2.93 1.22 5.62 2.95 7.75 5.33l-3.25 2-5.94-4.27 1.44-3.06z"/><path fill="#595a53" d="M256.76 208.69c4.11-.47 8.29-.68 12.39.04a92.65 92.65 0 0 0 .26 3.74l1.47-.97c2.92.22 6.02.51 8.58-1.23l-.37 2.15c2.43 1.82 5 3.78 8.18 3.85 2.9.34 5.8.8 8.72.96 1.62.31 2.58-1.35 3.7-2.18.6.61 1.21 1.21 1.84 1.8l.43 5.7-3.08.69 2.67-2.65c-1.98-.95-4-2.47-6.31-1.91-1.46 1.31-1.54 3.5-2.21 5.25l3.92.28-1.11 2.57-1.89-.78c-1.7-.67-3.42-1.26-5.18-1.7l.42-.72 2.15-2.7-1.7-3.13-4.2 2.18c-3.67-3.22-8.62-4.39-13.41-4.29l2.18 1.83c-2.09 2-4.34 4.27-4.23 7.39.11 1.34.27 2.68.43 4.02l2.47-.2c3.63-.53 7.27.03 10.64 1.46l-1.93 1.54c-3.43-.83-6.88-1.94-10.45-1.77-2.91.13-4.98 2.66-6.16 5.08-1.59 3.5-2.51 7.26-3.73 10.9l-3.52-4.06c-1.26 1.91-2.16 4.03-2.47 6.31l6.87 2.07-2.3 3.54-2.09-2.63-.5 7.32-3.99-2.77c-1.73 3.65-4.37 6.79-8 8.65 2.84-5.81 6.39-11.33 8.07-17.64 1.02-3.22 2.21-6.38 3.74-9.38 1.98-1.44 4.19-2.65 5.78-4.55 1.74-2.18 3.32-4.47 4.99-6.71-2.13.39-4.27.75-6.4 1.07-1.42-1.75-2.91-3.52-4.99-4.49-6.31-1.48-12.63-3.36-19.17-3.22-1.53-.3-3.04-.67-4.55-1.04 2.98-.22 5.96-.41 8.95-.5l4.06-.04c6.63.91 12.48 4.81 19.19 5.21-.62-4.57-1.63-9.06-2.53-13.57l-5.63-.77z"/><path fill="#6e6d6e" d="M315.05 212.24c2.08-1.47 4.48-2.37 6.83-3.3l1.32 4.81-2.12.78-5.13 1.65-.9-3.94z"/><path fill="#9d9d93" d="M241.67 217.86c1-3.06 2.86-6.19 6.32-6.75 2.29.58 2.4 3.33 3.21 5.15l-5.47 1.56-4.06.04z"/><path fill="#a3a3aa" d="M286.57 211.41l7.26-.38 2.54.16 3.32 3.86c-1.12.83-2.08 2.49-3.7 2.18-2.92-.16-5.82-.62-8.72-.96l-.7-4.86z"/><path fill="#473e3c" d="M301.31 213.58c2.46.19 4.59 1.35 6.33 3.06-.37 3.91-.7 7.91.29 11.76.68 2.73 1.32 5.52 1.1 8.35l-.44-3.16-.48-.69c-1.72-2.43-3.7-4.65-5.63-6.91a63.69 63.69 0 0 1-1.22-1.1c-.81-.54-1.6-1.09-2.38-1.65l3.08-.69-.43-5.7-.22-3.27m1.77 5.06c-.16 1.83-.32 3.66-.24 5.49l2.03-.19c.19-1.98-.41-3.87-1.79-5.3z"/><path fill="#735341" opacity=".76" d="M321.08 214.53l2.12-.78.39 1.43c1.49 6.99 2.4 14.08 4 21.05 1.33 5.82 2.35 11.76 2.17 17.76-.06 2.87-.14 5.75-.48 8.61l-.74.44c-.16-4.68-.07-9.37-.23-14.05-.24-7.39-2.32-14.54-3.44-21.81-.66-4.38-1.93-8.64-3.79-12.65z"/><path fill="#626361" d="M220.92 221.97c3.16-2.18 6.68-3.92 9.31-6.79a69.98 69.98 0 0 0-.66 2.19l1.79.98-1.05 1.99c-4.02.37-7.77 1.99-10.7 4.77 6.73-.14 13.45-.76 20.19-.84 4.55-.06 8.97 1.22 13.48 1.58-1.9 2.65-3.46 5.66-2.89 9.02 2.89-.96 5.79-1.94 8.76-2.6l-2.09 5.03c-1.53 3-2.72 6.16-3.74 9.38-2.89-.07-5.62.94-8.19 2.17l-.05-3.58c2.47-.58 4.9-1.27 7.33-2.01l-4.61-3.85 1.24-4.93-1.58.29c-4.71-2.88-10.52-3.86-15.95-3.11-5.29 1.49-9.83 4.77-14.9 6.8.41-2.94 2.3-5.25 4.29-7.32l-4.4-3.18c1.09-2.24 2.26-4.61 4.42-5.99z"/><path fill="#60637a" d="M272.03 215.64c4.79-.1 9.74 1.07 13.41 4.29l2.07 2.95-.24.8c-.54 2.02-.94 4.08-1.3 6.15l-1.75.22-.7.09c-3.37-1.43-7.01-1.99-10.64-1.46.47-1.87.95-3.74 1.56-5.57.67-1.26 1.41-2.49 2.15-3.71l-2.38-1.93-2.18-1.83z"/><path fill="#d29e7f" d="M315.95 216.18l5.13-1.65c1.86 4.01 3.13 8.27 3.79 12.65 1.12 7.27 3.2 14.42 3.44 21.81.16 4.68.07 9.37.23 14.05-3.35 1.44-6.97 2.12-10.59 2.32-2.77-5.03-2.45-10.92-3.03-16.46-.57-6.08.99-12.09.8-18.17-.12-4.72-.45-9.44-1.09-14.11l1.32-.44m1.08 25.77c-.67 7.39 1.99 14.5 2.52 21.82 1.34-.02 2.68 0 4.03-.08 1.52-2.26.51-5.15.41-7.65-1.43-9.2-.73-19.04-4.95-27.59-1.51 4.34-1.65 8.96-2.01 13.5z"/><path opacity=".07" d="M307.64 216.64l.6-.27c2.09 1.89 3.03 4.62 3.53 7.32-.89 5.95.23 12.1-1.09 17.96l-1.73 1c-.02-1.97.02-3.93.08-5.9.22-2.83-.42-5.62-1.1-8.35-.99-3.85-.66-7.85-.29-11.76zM287.1 322.89l2.86-1.14c-1.49 3.31-3.23 6.52-5.5 9.38 2.8-.98 5.61-2.31 8.64-2.26 2.74.29 5.29 1.44 7.88 2.33l3.17 6.77 4.44-3.43 1.49 3.46c3.49-1.82 7.17-3.73 11.25-3.21l.38 4.38c1.72-1.5 3.23-3.56 5.52-4.16 2.87-.09 5.5 1.33 8.16 2.23l-.95-3.45 2.93-.84.08 4.93c5.26-1.77 10.49-4.12 16.14-4.11l-.33 3.91c1.5-1.07 2.89-2.57 4.84-2.7 2.6-.33 5.13-1.02 7.69-1.59 2.96.87 5.36 3.01 8.31 3.93 3.48.56 6.73-1.54 8.46-4.46 3.47.88 6.89 2.28 10.52 2.37 3.19-.42 6.24-1.58 9.43-2.06l-.85 3.15c3.28.55 6.63.66 9.91.03-1.71-.45-3.42-.86-5.13-1.24l-.41-3.79c2.37.45 4.81 1.38 7.25.79 2.11-.48 4.14-1.24 6.2-1.92l1.18 4.4 1.15.28c.75-1.29 1.48-2.59 2.37-3.79 1.68.62 3.27 1.47 4.87 2.28l1.4-1.4c3.98 1.35 8.2 1.3 12.36 1.26l-1.77-4.78c3.57.85 7.23 1.05 10.88 1.08 2.37-.16 3.91 1.91 5.59 3.24 3.64-.62 7.37-.9 11.03-.26l.09-3.71a41.05 41.05 0 0 1 4.64 6.1l5.12-4.18-.79-1.81c2.48.8 4.95 1.91 7.61 1.81 2.86-.18 5.62-1.12 8.48-1.28 2.81 1.34.96 4.96 1.12 7.38l3.62-.9-.81-3.37c3.75.26 6.73-2.01 9.2-4.58 1.73.14 3.46.29 5.18.54v26c-1.17-1.1-2.38-2.15-3.58-3.2a138.87 138.87 0 0 1-3.73 6.24c-2.09-1.63-4.48-2.82-7.06-3.42l-1.02-2.8a91.01 91.01 0 0 1-2.16 6.13c-.9-1.89-.61-3.93-.06-5.87l-5.79-.53-.4 5.56-3.72-1.17-.21 3.42a64.81 64.81 0 0 1-.88.81c-2.27-1.63-4.61-3.88-7.64-3.5-2.98.32-6.04.28-8.65-1.39-1.2 1.26-2.14 2.94-3.75 3.69-4.27.32-8.42-2.26-12.69-.88-5.25 1.43-10.71 1.41-16.07 2.15l-.34-3.87c-.89 1.78-1.54 3.68-1.9 5.65-2-1.31-4.2-2.3-6.52-2.9l.13-1.48 3.38-1.27c-1.37-.35-2.72-.75-4.12-.89-2.91.85-5.18 3.19-8.18 3.81-3.6.72-7.29.82-10.89 1.52-2.62.38-5.24 1.15-7.9.97-1.09-.67-2.07-1.5-3.06-2.29-1.7 1.31-3.57 2.39-5.58 3.16l-.46 1.87-8.78-1.73c-.73.88-1.31 1.95-2.29 2.57-3.1.83-6.37.57-9.5 1.24-5.35 1.12-10.61 2.66-16.02 3.44-2.86.4-5.42-1.36-8.22-1.58-2.66.11-5.22 1.05-7.88 1.2-1.93.09-3.86-.21-5.79-.16-2.3.07-4.46 1.12-6.76 1.11-3.14-.29-6.14-1.36-9.25-1.81-3.9-.65-7.83.28-11.74-.15-4.29-.47-8.57-1.2-12.9-1.17-7.51-.25-14.96 1.26-22.47.8-5.48-.33-11.26-.3-16.19-3.07 4.93.47 9.93-.06 14.68-1.42 4.49-1.29 9.45-2.01 13.11-5.14 2.55-2.67 2.82-6.57 3.65-9.99-2.82-2.25-5.55-4.68-8.79-6.3-2.29-1.24-4.96-1.1-7.47-1.26-2.51-.26-5.16-.29-7.45-1.47-1.07-.87-1.95-1.94-2.86-2.96l1.14-1.03 1.97-1.54 4.13 2.85c2.9.7 5.78-.26 8.08-2.05 5.38-3.58 10.21-7.9 15.55-11.51z"/><path fill="#bc896b" d="M311.93 224.55c.46-2.77 1.14-5.56 2.7-7.93.64 4.67.97 9.39 1.09 14.11.19 6.08-1.37 12.09-.8 18.17.58 5.54.26 11.43 3.03 16.46l-.8-.16a100.13 100.13 0 0 1-3.51-.9c1.05-6.83-.45-13.65-2.04-20.27-.02-6.5.5-12.99.33-19.48z"/><path fill="#40404b" d="M269.98 224.86c-.11-3.12 2.14-5.39 4.23-7.39l2.38 1.93-2.15 3.71-4.46 1.75z"/><path fill="#6f7287" d="M285.44 219.93l4.2-2.18 1.7 3.13-2.15 2.7-1.68-.7-2.07-2.95z"/><path fill="#8f8d85" d="M237.27 219.4c6.54-.14 12.86 1.74 19.17 3.22l1.54 2.21c-1.56.37-3.12.74-4.7 1.02-4.51-.36-8.93-1.64-13.48-1.58-6.74.08-13.46.7-20.19.84 2.93-2.78 6.68-4.4 10.7-4.77a178.99 178.99 0 0 1 6.96-.94z"/><path fill="#dfdeea" d="M293.03 223.93c.67-1.75.75-3.94 2.21-5.25 2.31-.56 4.33.96 6.31 1.91l-2.67 2.65-1.93.97-3.92-.28z"/><path fill="#878489" d="M303.08 218.64c1.38 1.43 1.98 3.32 1.79 5.3l-2.03.19c-.08-1.83.08-3.66.24-5.49z"/><path fill="#72788c" d="M269.98 224.86l4.46-1.75-1.56 5.57-2.47.2-.43-4.02z"/><path fill="#a1a0b0" d="M287.51 222.88l1.68.7-.42.72-1.5-.62.24-.8z"/><path fill="#616276" d="M296.95 224.21l1.93-.97 2.38 1.65-.49.69.24.82.84.14.63-.55 5.63 6.91a15.29 15.29 0 0 0-2.67-.36c-.96.76-1.79 1.65-2.65 2.51l5.8-1.46.44 3.16-.86.45-1.39.74c-.78 1.19-1.44 2.46-2.14 3.69l-2.21.73c-1.27-4.34-3.75-8.91-1.67-13.43l-.01-1.58-.7-.25-.62.52-.19 1.68-3.17 4.31-.69-4.38c-.57 0-1.72-.01-2.29-.01l.86-3.22 1.89.78 1.11-2.57z"/><path fill="#707285" d="M287.27 223.68l1.5.62c1.76.44 3.48 1.03 5.18 1.7l-.86 3.22c-2.39.04-4.76.31-7.12.61l1.3-6.15z"/><path fill="#261c16" opacity=".67" d="M311.77 223.69l.16.86c.17 6.49-.35 12.98-.33 19.48-.12 4.81-.47 9.62-.66 14.43-.4-.21-1.21-.61-1.62-.82l-1.45-.74 1.06-10.17c1.06-1.1 1.03-2.15-.1-3.18-2.02-1.65-1.52-4.22-.66-6.35l.86-.45c-.06 1.97-.1 3.93-.08 5.9l1.73-1c1.32-5.86.2-12.01 1.09-17.96z"/><path fill="#f1eef4" d="M301.26 224.89l1.22 1.1-.63.55-.84-.14-.24-.82.49-.69z"/><path fill="#9a98a6" d="M299.43 227.62l.62-.52.7.25.01 1.58-1.52.37.19-1.68z"/><path fill="#565754" d="M211.62 236.46c1.75-2.76 3.55-5.51 4.88-8.5l4.4 3.18c-1.99 2.07-3.88 4.38-4.29 7.32l-1.05 4.65 3.5-2.13c5.35-.89 10.61-2.19 15.9-3.35-4.88 5.04-9.93 10.39-11.87 17.33-1.44 4.1-1.07 8.48-.75 12.73 0 1.72-.11 3.44-.11 5.17.42 1.78 1.07 3.49 1.74 5.19-.79 1.95-1.76 3.89-3.45 5.23.05-9.54-1.91-18.87-3.54-28.22-.25-1.55-.45-3.11-.64-4.66 2.37-.83 5.07-1.31 6.81-3.29 1.8-1.93 3.22-4.18 4.65-6.39-3.22.74-5.97 2.54-8.35 4.77-1.93 1.9-4.74 1.99-7.24 2.45l-1.86-1.42c0-3.36-.78-7.11 1.27-10.06z"/><path fill="#555557" d="M285.97 229.83l7.12-.61 2.29.01.69 4.38 3.17-4.31 1.52-.37c-2.08 4.52.4 9.09 1.67 13.43l2.21-.73c-.91 1.47-1.91 2.88-3.01 4.22l-1.9 2.22c-.49-.55-.98-1.08-1.49-1.6-2.23-2.23-4.48-4.59-7.4-5.88-2.38-1.06-4.86-1.84-7.32-2.69l.7-7.85 1.75-.22z"/><path fill="#e5b397" d="M317.03 241.95c.36-4.54.5-9.16 2.01-13.5 4.22 8.55 3.52 18.39 4.95 27.59.1 2.5 1.11 5.39-.41 7.65-1.35.08-2.69.06-4.03.08-.53-7.32-3.19-14.43-2.52-21.82z"/><path fill="#797874" d="M264.98 234.99c1.18-2.42 3.25-4.95 6.16-5.08 3.57-.17 7.02.94 10.45 1.77l1.93-1.54.7-.09-.7 7.85c2.46.85 4.94 1.63 7.32 2.69 2.92 1.29 5.17 3.65 7.4 5.88l-1.25.45c-3.4-1.73-6.52-3.96-9.94-5.66-.28.22-.86.65-1.15.87l-5.02 3.82c-1.74-2.19-3.29-4.7-5.74-6.17-2.07-1.08-4.44-1.74-6.78-1.5-2.77 1.76-5.16 4.95-5.05 8.34 1.39 2.04 3.29 3.68 4.65 5.75.92 2.65-1.33 4.88-2.87 6.75-4.6 4.81-8.44 10.48-14.08 14.17.15-1.79.43-3.58.5-5.38-.24-1.74-.63-3.45-1.01-5.16-1.39.74-2.79 1.47-4.14 2.28-1.24.9-2.41 1.91-3.58 2.91l-.93-2.07 4.11-7.73-6.67 3.01c1.24-2.56 2.82-5 3.53-7.76.29-2.51-.3-5-.58-7.47l2.84-.65.05 3.58c2.57-1.23 5.3-2.24 8.19-2.17-1.68 6.31-5.23 11.83-8.07 17.64 3.63-1.86 6.27-5 8-8.65l3.99 2.77.5-7.32 2.09 2.63 2.3-3.54-6.87-2.07c.31-2.28 1.21-4.4 2.47-6.31l3.52 4.06c1.22-3.64 2.14-7.4 3.73-10.9z"/><path fill="#918e86" d="M216.61 238.46c5.07-2.03 9.61-5.31 14.9-6.8 5.43-.75 11.24.23 15.95 3.11-2.18.41-4.36.81-6.56 1.05-4.7.34-9.49-.03-14.12 1.02-2.9.67-5.27 2.56-7.72 4.14l-3.5 2.13 1.05-4.65z"/><path fill="#957969" d="M259.15 232.27l3.7-.68-.01 1.16c-1.59 1.9-3.8 3.11-5.78 4.55l2.09-5.03z"/><path fill="#edecf0" d="M305.44 232.54a15.29 15.29 0 0 1 2.67.36l.48.69-5.8 1.46 2.65-2.51z"/><path fill="#5e5d5b" d="M247.46 234.77l1.58-.29-1.24 4.93 4.61 3.85-7.33 2.01-2.84.65c.28 2.47.87 4.96.58 7.47-.71 2.76-2.29 5.2-3.53 7.76l6.67-3.01-4.11 7.73c-.87-2.08-2.69-3.41-4.66-4.36l-1.25-8.98c-2.45 3.41-1.67 7.8-.98 11.64.27 1.94 1.57 3.47 2.71 4.98l.28-2.17c1.75 2.01 3.59 3.94 5.36 5.94l.98-1.25c1.49-.85 3.02-1.61 4.55-2.38l2.67-1.38c-.07 1.8-.35 3.59-.5 5.38-2.22-.02-4.41-.38-6.58-.75.22 1.12.43 2.24.71 3.35.76 1.22 1.61 2.38 2.52 3.5-3.86-2.01-8.15-3.6-11.03-7.02-3.38-3.73-3.27-9.58-7.47-12.71.9-3.83 2.12-7.79 4.82-10.75 2.77-2.71 6.53-4.02 9.95-5.69-.79-2.02-1.96-3.86-3.41-5.47l.38-1.93c2.2-.24 4.38-.64 6.56-1.05z"/><path fill="#717171" d="M226.78 236.84c4.63-1.05 9.42-.68 14.12-1.02l-.38 1.93c1.45 1.61 2.62 3.45 3.41 5.47-3.42 1.67-7.18 2.98-9.95 5.69-2.7 2.96-3.92 6.92-4.82 10.75-1.24 4.71-1.1 9.71.59 14.29-.46 1.65-1.13 3.23-1.84 4.78.22.87.45 1.73.7 2.59-1.49-1.16-3.06-2.22-4.64-3.27-.67-1.7-1.32-3.41-1.74-5.19l5.91 3.28c-1.34-3.18-3.22-6.13-5.8-8.45-.32-4.25-.69-8.63.75-12.73 1.94-6.94 6.99-12.29 11.87-17.33-5.29 1.16-10.55 2.46-15.9 3.35 2.45-1.58 4.82-3.47 7.72-4.14z"/><path fill="#63504c" d="M306.78 237.94l1.39-.74c-.86 2.13-1.36 4.7.66 6.35l-.72.55-.27 1 1.09 1.63c-.28 3.4-.66 6.79-1.06 10.17-1.2-.64-2.39-1.32-3.57-1.99.18-3.24-.78-6.42-2.67-9.06 1.1-1.34 2.1-2.75 3.01-4.22.7-1.23 1.36-2.5 2.14-3.69z"/><path fill="#93918a" d="M268.36 238.28c2.34-.24 4.71.42 6.78 1.5 2.45 1.47 4 3.98 5.74 6.17l5.02-3.82-.64 2.65c-.85 3.61-1.74 7.22-3.13 10.67-1.22 3.1-3.38 5.69-4.91 8.62.61 1.11 1.73 1.78 2.61 2.66 2.34-3.05 4.31-6.38 5.6-10 .64 1.88 2.02 3.82 1.36 5.89-1.37 4.54-4.14 8.48-6.82 12.33-2.05 2.65-4.13 5.58-7.25 7.04-6.65.86-13.09-1.92-18.91-4.84-2.65-1.49-5.74-1.39-8.67-1.26-.28-1.11-.49-2.23-.71-3.35 2.17.37 4.36.73 6.58.75 5.64-3.69 9.48-9.36 14.08-14.17 1.54-1.87 3.79-4.1 2.87-6.75-1.36-2.07-3.26-3.71-4.65-5.75-.11-3.39 2.28-6.58 5.05-8.34m7.26 9.3c-1.57.74-1.72 2.67-2.37 4.08 2.02 1.38 4.19 2.55 6.49 3.44.37-2.06 1.81-4.41.55-6.4-1.28-.97-3.11-2.26-4.67-1.12z"/><path fill="#414342" d="M219.45 245.49c2.38-2.23 5.13-4.03 8.35-4.77-1.43 2.21-2.85 4.46-4.65 6.39-1.74 1.98-4.44 2.46-6.81 3.29l.64 4.66c-.74-2.85-2.29-5.47-4.77-7.12 2.5-.46 5.31-.55 7.24-2.45z"/><path fill="#3a3c40" d="M285.9 242.13l1.15-.87c3.42 1.7 6.54 3.93 9.94 5.66l-.59.2c-2.45.1-4.89-.22-7.3-.58-1.35-.44-2.62-1.05-3.84-1.76l.64-2.65z"/><path fill="#5e5b5e" opacity=".76" d="M308.11 244.1l.72-.55c1.13 1.03 1.16 2.08.1 3.18l-1.09-1.63.27-1z"/><path fill="#9f7559" d="M311.6 244.03c1.59 6.62 3.09 13.44 2.04 20.27l-.88-.27-1.82-5.57.66-14.43z"/><path fill="#6d7280" d="M282.13 255.45c1.39-3.45 2.28-7.06 3.13-10.67 1.22.71 2.49 1.32 3.84 1.76-1.37 3.34-2.53 6.77-3.67 10.19-1.29 3.62-3.26 6.95-5.6 10-.88-.88-2-1.55-2.61-2.66 1.53-2.93 3.69-5.52 4.91-8.62z"/><path fill="#7a7872" d="M289.1 246.54c2.41.36 4.85.68 7.3.58l.59-.2 1.25-.45 1.49 1.6.42.57-2.82.93-.08 3.61c-3.4 2.9-3.88 7.44-4.93 11.49-1.77 4.01-3.7 7.96-5.94 11.73-2.52 4.25-6.21 7.6-9.84 10.89l-4.03-.14c-2.64-.17-5.29-.27-7.91-.59-2.27-.49-4.63-1.29-6.9-.37l-1.33.4c-.17-.65-.31-1.3-.53-1.93-2.3.71-4.48 1.85-6.88 2.2-2.82.2-5.55-.7-8.31-1.11a81.18 81.18 0 0 0 3.69-1.05c2.04-.84 3.94-1.96 5.79-3.16l-2.47-2.15c-.91-1.12-1.76-2.28-2.52-3.5 2.93-.13 6.02-.23 8.67 1.26 5.82 2.92 12.26 5.7 18.91 4.84 3.12-1.46 5.2-4.39 7.25-7.04 2.68-3.85 5.45-7.79 6.82-12.33.66-2.07-.72-4.01-1.36-5.89 1.14-3.42 2.3-6.85 3.67-10.19z"/><path fill="#969b88" d="M301.63 245.85c1.89 2.64 2.85 5.82 2.67 9.06l-.27 1.42a38.62 38.62 0 0 1-2.95 3.43c.88-3.72.56-7.6-.93-11.12l-.42-.57 1.9-2.22z"/><path fill="#807c74" d="M275.62 247.58c1.56-1.14 3.39.15 4.67 1.12 1.26 1.99-.18 4.34-.55 6.4-2.3-.89-4.47-2.06-6.49-3.44.65-1.41.8-3.34 2.37-4.08z"/><path fill="#bfc7a9" d="M297.33 249.57l2.82-.93c1.49 3.52 1.81 7.4.93 11.12l-3.53.91-.82.21c1-2.46.81-5.12.52-7.7-.01-1.21.03-2.41.08-3.61z"/><path fill="#7f766c" d="M234.96 264.17c-.69-3.84-1.47-8.23.98-11.64.64 2.96.88 5.98 1.25 8.98a175.13 175.13 0 0 0 .76 5.47l-.28 2.17c-1.14-1.51-2.44-3.04-2.71-4.98z"/><path fill="#6f6e6b" d="M292.32 264.67c1.05-4.05 1.53-8.59 4.93-11.49.29 2.58.48 5.24-.52 7.7-1.07 1.51.74 3.4 2.3 2.37 1.66-.99-.18-2.7-1.48-2.58l3.53-.91a38.62 38.62 0 0 0 2.95-3.43c-.2 1.38-.57 2.85.02 4.19 1.65 4.34 4.31 8.51 4.28 13.31l.01 1.33c-1.82-2.24-3.55-4.55-5.14-6.95l-2.28 3.58-.06-1.66-.79-.39-1.39.91-.46.56c-1.52 1.47-3.06 2.92-4.49 4.48-1.21.13-2.42.33-3.61.53 1.44-1.8 3.28-3.49 3.89-5.79.48-2.09-.86-3.96-1.69-5.76z"/><path fill="#454646" d="M329.76 253.99c2.64 2.52 5.39 5.17 6.41 8.81-.97-1.45-2.01-2.84-3.04-4.23l-1.69 1.33c.73 5.05 1.17 10.16.88 15.28l-5.17-.97c.84-3.84 1.68-7.7 2.13-11.61.34-2.86.42-5.74.48-8.61z"/><path fill="#52514e" d="M304.03 256.33l.27-1.42 3.57 1.99 1.45.74-4.31 1.59 3.78 3.11c-.32 3.12-.12 6.26.29 9.36l3.51.09.17-7.76.88.27 3.51.9c.27 3.25.99 6.98-1.1 9.81-1.64.72-3.48.42-5.2.35l-2.52-1.53c.03-4.8-2.63-8.97-4.28-13.31-.59-1.34-.22-2.81-.02-4.19z"/><path fill="#646266" d="M305.01 259.23l4.31-1.59-.53 4.7-3.78-3.11z"/><path fill="#3f3c3a" d="M309.32 257.64l1.62.82 1.82 5.57-.17 7.76-3.51-.09c-.41-3.1-.61-6.24-.29-9.36l.53-4.7z"/><path fill="#716e6d" d="M331.44 259.9l1.69-1.33 3.04 4.23.3.8c-.17 2.48-.62 4.97-.39 7.46.42 2.1 1.75 3.92 2.11 6.03-.57 3.19-2.12 6.11-3.38 9.06l-.47.69c-1.47-2.66-2.34-5.64-2.11-8.71l.09-2.95c.29-5.12-.15-10.23-.88-15.28z"/><path fill="#534d47" d="M229.16 259.66c4.2 3.13 4.09 8.98 7.47 12.71 2.88 3.42 7.17 5.01 11.03 7.02l2.47 2.15c-1.85 1.2-3.75 2.32-5.79 3.16-5.86-2.04-10.52-6.21-14.59-10.75-1.69-4.58-1.83-9.58-.59-14.29z"/><path fill="#4b4a4a" d="M296.73 260.88l.82-.21c1.3-.12 3.14 1.59 1.48 2.58-1.56 1.03-3.37-.86-2.3-2.37z"/><path fill="#7f5f4c" d="M237.19 261.51c1.97.95 3.79 2.28 4.66 4.36l.93 2.07 1.51 3.73-.98 1.25-5.36-5.94-.76-5.47z"/><path fill="#b0b3af" d="M246.36 265.03l4.14-2.28 1.01 5.16-2.67 1.38c-.94-1.35-1.74-2.8-2.48-4.26z"/><path fill="#5f5e5b" d="M328.54 263.04l.74-.44c-.45 3.91-1.29 7.77-2.13 11.61l5.17.97-.09 2.95c-1.96-.73-3.92-1.53-6-1.82-2.09 1.38-1.48 4.12-1.73 6.25l-9.69-.23c-1.24-2.37-2.49-4.74-3.96-6.97 1.72.07 3.56.37 5.2-.35 2.09-2.83 1.37-6.56 1.1-9.81l.8.16c3.62-.2 7.24-.88 10.59-2.32z"/><path fill="#4a4a4a" d="M336.47 263.6c1.63 4.21 3.45 8.6 3.02 13.22-.42 3.56-2.8 6.42-4.68 9.33 1.26-2.95 2.81-5.87 3.38-9.06-.36-2.11-1.69-3.93-2.11-6.03-.23-2.49.22-4.98.39-7.46z"/><path fill="#8c8c85" d="M242.78 267.94l3.58-2.91c.74 1.46 1.54 2.91 2.48 4.26l-4.55 2.38-1.51-3.73z"/><path fill="#4b4b4b" d="M292.32 264.67c.83 1.8 2.17 3.67 1.69 5.76-.61 2.3-2.45 3.99-3.89 5.79l3.61-.53.95.15-2.11.6-2.56.85c-.98 6.24-7.42 10.35-13.47 10 3.63-3.29 7.32-6.64 9.84-10.89 2.24-3.77 4.17-7.72 5.94-11.73z"/><path fill="#3e3f3d" d="M222.23 272.86l.11-5.17c2.58 2.32 4.46 5.27 5.8 8.45a211.9 211.9 0 0 1-5.91-3.28z"/><path fill="#5f5753" d="M303.2 268.21c1.59 2.4 3.32 4.71 5.14 6.95 2.06 4.17 3.16 8.73 2.91 13.4l-.78-.3-3.11-1.07.32-.74c2.26-3.66.82-8.27-1.84-11.28-1.52-1.66-3.89-1.91-5.97-2.36l-2.1-.15c.12-.36.34-1.09.45-1.45l.46-.56 1.37 1.36.87-.22c.79-1.18 1.53-2.38 2.28-3.58z"/><path fill="#a19fa0" d="M298.68 270.65l1.39-.91.79.39.06 1.66-.87.22-1.37-1.36z"/><path fill="#353639" d="M293.73 275.69l4.49-4.48-.45 1.45-.98 3.53-1.04-.17-1.07-.18-.95-.15z"/><path fill="#d39d7d" d="M297.77 272.66l2.1.15-1.02 2.36c3.68 3.12 6.82 6.86 8.83 11.28l-.32.74c-1.13.8-2.29 1.56-3.44 2.32-2.62-.98-5.99-1.36-7.45-4.08-1.6-2.89-.34-6.26.32-9.24.3-1.19.63-2.36.98-3.53z"/><path fill="#383736" d="M299.87 272.81c2.08.45 4.45.7 5.97 2.36 2.66 3.01 4.1 7.62 1.84 11.28-2.01-4.42-5.15-8.16-8.83-11.28l1.02-2.36z"/><path fill="#818382" d="M227.91 278.73c.71-1.55 1.38-3.13 1.84-4.78 4.07 4.54 8.73 8.71 14.59 10.75a81.18 81.18 0 0 1-3.69 1.05c-4.4-.17-8.92-1.07-12.04-4.43-.25-.86-.48-1.72-.7-2.59z"/><path fill="#cc9576" d="M308.34 275.16l-.01-1.33 2.52 1.53c1.47 2.23 2.72 4.6 3.96 6.97l1.8 3.7c-1.33 2.35-3.13 4.39-5.23 6.1l-.13-3.57c.25-4.67-.85-9.23-2.91-13.4z"/><path fill="#7b5f4e" d="M294.68 275.84l1.07.18-3.47 5.2.29-4.78 2.11-.6z"/><path fill="#595a59" d="M295.75 276.02l1.04.17c-.66 2.98-1.92 6.35-.32 9.24 1.46 2.72 4.83 3.1 7.45 4.08l-1.91 4.67 3.73 2.68 2.32-3.74 1.85.84c-.94 5.23-1.24 10.92-4.42 15.4l-1.91-2.01c-3.48 1.86-6.67 4.17-9.98 6.31-3.26 2.1-7.59 2.52-10.01 5.84-3.36 4.05-7.43 7.41-11.69 10.47l1.15-6.14-2.41-.81-.1-3.37.96-4.15c-3.67 3.12-6.09 7.32-8.29 11.52-.59-1.76-1.15-3.54-1.6-5.34 3.49-.6 5.12-3.62 6.62-6.46 3.13-3.6 7.13-6.27 10.61-9.49-.3.48-.91 1.42-1.22 1.89-1.54 2.19-3.05 4.41-4.4 6.72 3.33-.27 6.76-.22 9.97-1.28 1.67-2.39 2.59-5.23 4.38-7.55 1.3-1.68 2.92-3.07 4.47-4.51l-6.64 1.8-.22-2.42c1.47-.96 2.87-2.01 4.24-3.09l2.88-2.38c-1.51-1.44-2.68-3.52-4.7-4.22-3.37-.29-6.73.36-10.09.18-1.96-.21-3.96-.57-5.92-.24-2.14 1.54-3.51 3.87-5.09 5.92-2.18 3.09-4.83 5.8-7.73 8.21l-1.68 1.4 5.84 3.17-2.9 4.61c-1.89-.2-3.76-.45-5.64-.69-1.16 1.84-2.34 3.68-3.35 5.61l-.02-2.68c-2.74 2.3-4.59 5.38-5.61 8.79-2.99-3.05-6.01-6.08-9.14-8.99 3.7-.7 7.38-1.74 10.54-3.86l-2.14-2.82c4.17-2.05 8.63-3.57 12.5-6.19 5.06-3.55 8.99-8.49 11.99-13.85l-4.04 1.84-4.2 1.72-1.37-3.25 2.63 1.22 2.42-4.23c2.62.32 5.27.42 7.91.59 1.14.79 2.14 2.1 3.66 2.11 6.22.35 13.09-2.3 16.11-8.04 1.1-1.77 2.25-3.51 3.47-5.2z"/><path fill="#4e4e4d" d="M326.23 276.31c2.08.29 4.04 1.09 6 1.82-.23 3.07.64 6.05 2.11 8.71-2.58 2.15-6.09.92-9.11 1.46-3.04.58-5.82 2.02-8.72 3.05l.1-5.32-1.8-3.7 9.69.23c.25-2.13-.36-4.87 1.73-6.25z"/><path fill="#2a2b2b" d="M290.01 277.29l2.56-.85-.29 4.78c-3.02 5.74-9.89 8.39-16.11 8.04-1.52-.01-2.52-1.32-3.66-2.11l4.03.14c6.05.35 12.49-3.76 13.47-10z"/><path fill="#494b49" d="M220.52 283.28c1.69-1.34 2.66-3.28 3.45-5.23l4.64 3.27c3.12 3.36 7.64 4.26 12.04 4.43 2.76.41 5.49 1.31 8.31 1.11 2.4-.35 4.58-1.49 6.88-2.2.22.63.36 1.28.53 1.93-3.05 1.2-6.03 2.58-9.06 3.84l-14.35-1.34c-4.86-.48-8.92-3.41-13.19-5.49l.75-.32z"/><path fill="#5e605f" d="M217.01 284.69l2.76-1.09c4.27 2.08 8.33 5.01 13.19 5.49l14.35 1.34c-2.06.86-4.1 1.98-6.38 2.09-7.15.12-14.31-1.28-20.83-4.23l.48 1.76 4.87 2.51-2.21 2.28c5.35.93 10.75 3.15 16.23 1.82 7.03-1.51 13.1-5.62 19.35-8.97l-1.12-1.5c2.27-.92 4.63-.12 6.9.37l-2.42 4.23-2.63-1.22 1.37 3.25 4.2-1.72c-3.82 4.24-7.98 8.2-12.76 11.34-6.75-.64-13.27 1.51-19.51 3.8-3.68-4.38-8.07-8.04-12.1-12.05-2.61-2.48-3.4-6.07-3.74-9.5z"/><path fill="#99715b" d="M316.61 286.03l-.1 5.32-6.6 2.61-1.85-.84 2.41-4.86.78.3.13 3.57c2.1-1.71 3.9-3.75 5.23-6.1z"/><path fill="#817f76" d="M247.31 290.43l9.06-3.84 1.33-.4 1.12 1.5c-6.25 3.35-12.32 7.46-19.35 8.97-5.48 1.33-10.88-.89-16.23-1.82l2.21-2.28-4.87-2.51-.48-1.76c6.52 2.95 13.68 4.35 20.83 4.23 2.28-.11 4.32-1.23 6.38-2.09z"/><path fill="#403d3a" d="M307.36 287.19l3.11 1.07-2.41 4.86-2.32 3.74-3.73-2.68 1.91-4.67 3.44-2.32z"/><path fill="#908d84" d="M265.12 291.1l4.04-1.84c-3 5.36-6.93 10.3-11.99 13.85-3.87 2.62-8.33 4.14-12.5 6.19-2.46-.51-4.82-1.42-6.93-2.78 4.83-1.46 10.37-.97 14.62-4.08 4.78-3.14 8.94-7.1 12.76-11.34z"/><path fill="#83847c" d="M271.59 290.63c1.96-.33 3.96.03 5.92.24l3.26 2.02c-.63 2.46-1.37 4.98-1.08 7.55l-5.52 5.92c-5.1 2.26-10.52.15-15.4-1.6 2.9-2.41 5.55-5.12 7.73-8.21 1.58-2.05 2.95-4.38 5.09-5.92z"/><path fill="#75736d" d="M277.51 290.87c3.36.18 6.72-.47 10.09-.18 2.02.7 3.19 2.78 4.7 4.22l-2.88 2.38.27-2.37c-3.13 1.82-6.34 3.77-8.21 6.99 1.24-.49 2.49-.97 3.7-1.53l.22 2.42 6.64-1.8c-1.55 1.44-3.17 2.83-4.47 4.51-1.79 2.32-2.71 5.16-4.38 7.55-3.21 1.06-6.64 1.01-9.97 1.28 1.35-2.31 2.86-4.53 4.4-6.72l1.2 3.82c1.81-2.5 3.25-5.27 3.78-8.34l-2.62.68c.09-.69.15-1.38.18-2.07l-.47-1.27c-.29-2.57.45-5.09 1.08-7.55l-3.26-2.02z"/><path fill="#828385" d="M281.48 301.91c1.87-3.22 5.08-5.17 8.21-6.99l-.27 2.37c-1.37 1.08-2.77 2.13-4.24 3.09-1.21.56-2.46 1.04-3.7 1.53z"/><path fill="#484a4a" d="M279.69 300.44l.47 1.27-.18 2.07-1.14 1.95c-3.48 3.22-7.48 5.89-10.61 9.49l-5.11.07c-.94 2-1.85 4.12-1.51 6.39.45 1.8 1.01 3.58 1.6 5.34l.23.69c-1.49 1.09-2.97 2.2-4.5 3.23-2.91 1.36-6.03 2.18-9.14 2.93.79-1.49 1.79-2.86 2.89-4.14.63 1.83 3.46 1.19 3.31-.71l.81-3.77-3.11.54-.77.13c-2.14.05-4.28-.08-6.41-.23 1.22-1.39 2.77-2.42 4.45-3.17l.07-3.66c1.01-1.93 2.19-3.77 3.35-5.61l5.64.69c2.08.03 4.45.72 6.3-.55 2.88-2.03 5.24-4.68 7.84-7.03 1.98-1.84 3.71-3.92 5.52-5.92z"/><path fill="#77786f" d="M232.85 306.24c6.24-2.29 12.76-4.44 19.51-3.8-4.25 3.11-9.79 2.62-14.62 4.08 2.11 1.36 4.47 2.27 6.93 2.78l2.14 2.82c-3.16 2.12-6.84 3.16-10.54 3.86 3.13 2.91 6.15 5.94 9.14 8.99 1.02-3.41 2.87-6.49 5.61-8.79l.02 2.68-.07 3.66c-1.68.75-3.23 1.78-4.45 3.17 2.13.15 4.27.28 6.41.23-.95 1.26 1.55 3.12 1.76 1.15-.24-.32-.74-.96-.99-1.28l3.11-.54-.81 3.77c-1.33-.58-2.43-.34-3.31.71-1.1 1.28-2.1 2.65-2.89 4.14l-.43 2.14c-2.38.67-4.77 1.33-7.22 1.64-3.32-.03-6.87-.11-9.76-1.95-2.9-1.84-5.2-4.74-6.12-8.08-.59-2.64.01-5.36.49-7.97 2.26 3.47 4.24 7.36 7.76 9.76 3.34 2.38 7.37 3.43 11.29 4.41l4.32-6.21c-3.74.01-7.7.29-11.12-1.5-3.8-1.83-5.74-5.79-8.08-9.07.57 2.06.97 4.22 1.96 6.14 2.23 2.54 5.15 4.39 7.36 6.98-1.7-.37-3.48-.55-5.04-1.34-2.04-1.35-3.42-3.5-4.41-5.69-1.74-3.85-.7-8.18.16-12.12l1.89-4.77z"/><path fill="#878888" d="M279.98 303.78l2.62-.68c-.53 3.07-1.97 5.84-3.78 8.34l-1.2-3.82 1.22-1.89 1.14-1.95z"/><path fill="#686a61" d="M257.09 306.16l1.68-1.4c4.88 1.75 10.3 3.86 15.4 1.6-2.6 2.35-4.96 5-7.84 7.03-1.85 1.27-4.22.58-6.3.55l2.9-4.61-5.84-3.17z"/><path fill="#3a3b3a" d="M293.6 313.66c3.31-2.14 6.5-4.45 9.98-6.31l1.91 2.01c-5.04 4.3-11.53 6.94-15.53 12.39a77.34 77.34 0 0 0-2.86 1.14l-1.25-3.34-2.26-.05c2.42-3.32 6.75-3.74 10.01-5.84z"/><path fill="#5f5c5a" d="M226.99 318.84l3.97-7.83c-.86 3.94-1.9 8.27-.16 12.12.99 2.19 2.37 4.34 4.41 5.69 1.56.79 3.34.97 5.04 1.34-2.21-2.59-5.13-4.44-7.36-6.98-.99-1.92-1.39-4.08-1.96-6.14 2.34 3.28 4.28 7.24 8.08 9.07 3.42 1.79 7.38 1.51 11.12 1.5l-4.32 6.21c-3.92-.98-7.95-2.03-11.29-4.41-3.52-2.4-5.5-6.29-7.76-9.76l.23-.81z"/><path fill="#2b2d2f" d="M263.12 315.29l5.11-.07c-1.5 2.84-3.13 5.86-6.62 6.46-.34-2.27.57-4.39 1.51-6.39z"/><path fill="#898a8d" d="M263.21 327.02c2.2-4.2 4.62-8.4 8.29-11.52l-.96 4.15c-1.91 3.05-3.28 6.41-3.8 9.99-.35 2.57-1.52 4.9-3.27 6.81l-4.13-2.85c1.46-.43 2.94-.76 4.42-1.09l1.16-2.3c-.51-.83-1.01-1.66-1.48-2.5l-.23-.69z"/><path fill="#4c4e4d" d="M223.67 328.98c.19-3.61 1.82-6.91 3.32-10.14l-.23.81c-.48 2.61-1.08 5.33-.49 7.97.92 3.34 3.22 6.24 6.12 8.08 2.89 1.84 6.44 1.92 9.76 1.95.53 2.47.88 5.5-1.49 7.2-5.9 1.99-11.6-1.68-16.07-5.18-.41-3.55-1.11-7.1-.92-10.69z"/><path fill="#2a2a29" d="M283.59 319.5l2.26.05 1.25 3.34c-5.34 3.61-10.17 7.93-15.55 11.51l-.17-1.83.52-2.6c4.26-3.06 8.33-6.42 11.69-10.47z"/><path fill="#6e6f70" d="M266.74 329.64c.52-3.58 1.89-6.94 3.8-9.99.01 1.12.06 2.24.1 3.37l2.41.81-1.15 6.14-.52 2.6c-.83-1.06-1.69-2.09-2.54-3.12l-2.1.19z"/><path fill="#97979a" d="M252.93 325.92l.77-.13.99 1.28c-.21 1.97-2.71.11-1.76-1.15z"/><path fill="#686a6b" d="M258.94 330.94l4.5-3.23 1.48 2.5-1.16 2.3-4.42 1.09-1.97 1.54 1.57-4.2z"/><path fill="#969499" d="M252.69 329.73c.88-1.05 1.98-1.29 3.31-.71.15 1.9-2.68 2.54-3.31.71z"/><path fill="#555657" d="M266.74 329.64l2.1-.19 2.54 3.12.17 1.83c-2.3 1.79-5.18 2.75-8.08 2.05 1.75-1.91 2.92-4.24 3.27-6.81z"/><path fill="#898582" d="M249.8 333.87c3.11-.75 6.23-1.57 9.14-2.93l-1.57 4.2-1.14 1.03-2.12 1.99-3.01 4.05-3.19 1.05-1.35-.36c1.3-2.13 2.42-4.4 2.81-6.89l.43-2.14m.45 1.44v.44h.45v-.44h-.45z"/><path fill="#bab4b5" d="M250.25 335.31h.45v.44h-.45v-.44z"/><path fill="#5d5d5a" d="M242.15 337.65c2.45-.31 4.84-.97 7.22-1.64-.39 2.49-1.51 4.76-2.81 6.89l1.35.36.76.32c-1.95 1.8-3.67 4.17-6.38 4.85-5.09 1.46-10.42.55-15.58.12 2.39 1.31 4.81 2.82 7.59 3.07 3.63.35 7.03-1.25 10.35-2.46l-.54 4.46-3.93-.06c-3.58-.14-7.22-.06-10.72-.94-3.04-.77-4.26-3.98-5.84-6.33l-1.7 2.61c-.08-3.3.73-6.53 2.67-9.23 4.47 3.5 10.17 7.17 16.07 5.18 2.37-1.7 2.02-4.73 1.49-7.2z"/><path fill="#282829" d="M254.11 338.16l2.12-1.99c.91 1.02 1.79 2.09 2.86 2.96 2.29 1.18 4.94 1.21 7.45 1.47 3.24 1.83 6.13 4.33 8.06 7.55-4.09-1.54-8.15-3.19-12.39-4.31-1.7-.36-2.97-1.57-4.09-2.81l-1.22-1.08c-.92-.62-1.86-1.21-2.79-1.79z"/><path fill="#3f4244" d="M251.1 342.21l3.01-4.05 2.79 1.79c-1.46 0-1.97.63-1.54 1.88 1.17.74 2.09.48 2.76-.8 1.12 1.24 2.39 2.45 4.09 2.81 4.24 1.12 8.3 2.77 12.39 4.31 1.47 2.81 1.31 6.33-.6 8.9-2.1 2.69-5.1 4.47-7.96 6.24-4.75 1.36-9.75 1.89-14.68 1.42l-1.43-.71 3.38-.27c2.53-.06 4.03-2.45 5.78-3.93 2.2-.4 4.41-.71 6.59-1.23 4.17-.52 6.36-6.49 3.45-9.54-2.7-1.09-5.61-1.46-8.41-2.16-3.53-.79-6.83-2.36-9.62-4.66z"/><path fill="#5e5c5a" d="M255.36 341.83c-.43-1.25.08-1.88 1.54-1.88l1.22 1.08c-.67 1.28-1.59 1.54-2.76.8z"/><path opacity=".17" d="M266.54 340.6c2.51.16 5.18.02 7.47 1.26 3.24 1.62 5.97 4.05 8.79 6.3-.83 3.42-1.1 7.32-3.65 9.99-3.66 3.13-8.62 3.85-13.11 5.14 2.86-1.77 5.86-3.55 7.96-6.24 1.91-2.57 2.07-6.09.6-8.9-1.93-3.22-4.82-5.72-8.06-7.55z"/><path fill="#525250" d="M247.91 343.26l3.19-1.05c2.79 2.3 6.09 3.87 9.62 4.66.32 1.51.65 3.03 1.09 4.52l.31.7-6.32 4.24 3.29 3.47c-1.75 1.48-3.25 3.87-5.78 3.93l-.95-1.4c-1.38.23-2.75.56-4.12.85l-7.39-2.85c3.1-.33 6.95-.72 8.61-3.8 1.5-3.12 2.46-6.56 2.77-10-.6-.85-1.36-1.57-2.12-2.26-.36-.18-1.08-.52-1.44-.69l-.76-.32m8.15 6.57l-1.17 3.38 4.88-.05-1.04-2.81-2.67-.52z"/><path fill="#494846" d="M248.67 343.58l1.44.69c-.59 4.22-1.71 8.39-3.7 12.18l-2.3-2.83.54-4.46c-3.32 1.21-6.72 2.81-10.35 2.46-2.78-.25-5.2-1.76-7.59-3.07 5.16.43 10.49 1.34 15.58-.12 2.71-.68 4.43-3.05 6.38-4.85z"/><path fill="#65635e" opacity=".97" d="M250.11 344.27c.76.69 1.52 1.41 2.12 2.26-.31 3.44-1.27 6.88-2.77 10-1.66 3.08-5.51 3.47-8.61 3.8l-3.12-1.24-.66-2.65c3.05.74 6.65 2.6 9.34.01 1.99-3.79 3.11-7.96 3.7-12.18z"/><path fill="#4a4946" opacity=".97" d="M221.92 348.9l1.7-2.61c1.58 2.35 2.8 5.56 5.84 6.33 3.5.88 7.14.8 10.72.94-2.33.14-4.65.44-6.96.71l2.75 2.97-3.83-.29-2.27-.63c.31-1.64-1.57-2.98-3.03-2.22-1.54-1.83-3.24-3.51-4.92-5.2z"/><path fill="#6e6b68" d="M260.72 346.87c2.8.7 5.71 1.07 8.41 2.16 2.91 3.05.72 9.02-3.45 9.54-2.18.52-4.39.83-6.59 1.23l-3.29-3.47 6.32-4.24c1.16 1.74 2.5 3.36 3.84 4.97 1.13-2.06 2.23-4.15 3.28-6.25l-4.06-1.6-3.37 2.18c-.44-1.49-.77-3.01-1.09-4.52z"/><path fill="#87868a" d="M261.81 351.39l3.37-2.18 4.06 1.6-3.28 6.25-3.84-4.97-.31-.7z"/><path fill="#6a6969" d="M256.06 349.83l2.67.52 1.04 2.81-4.88.05 1.17-3.38z"/><path fill="#313232" d="M240.18 353.56l3.93.06 2.3 2.83c-2.69 2.59-6.29.73-9.34-.01l.66 2.65-5.59-2.14 3.83.29-2.75-2.97 6.96-.71z"/><path fill="#1d1e1e" opacity=".71" d="M226.84 354.1c1.46-.76 3.34.58 3.03 2.22-1.35-.15-2.36-1.12-3.03-2.22z"/><path fill="#6b6966" opacity=".96" d="M248.24 363.18l4.12-.85.95 1.4-3.38.27-1.69-.82z"/></svg>