<?xml version="1.0" encoding="UTF-8" ?>
<!DOCTYPE svg PUBLIC "-//W3C//DTD SVG 1.1//EN" "http://www.w3.org/Graphics/SVG/1.1/DTD/svg11.dtd">
<svg width="512pt" height="512pt" viewBox="0 0 512 512" version="1.1" xmlns="http://www.w3.org/2000/svg">
<g id="#21222286">
<path fill="#212222" opacity="0.53" d=" M 262.87 208.56 C 264.65 207.05 266.68 207.10 268.98 208.73 C 267.02 209.56 264.76 209.63 262.87 208.56 Z" />
</g>
<g id="#585856fd">
<path fill="#585856" opacity="1.00" d=" M 257.49 214.59 C 258.30 211.59 258.93 208.10 262.87 208.56 C 264.76 209.63 267.02 209.56 268.98 208.73 C 272.04 210.79 275.62 211.73 279.17 212.56 C 276.84 212.79 277.18 215.28 276.60 216.96 C 272.73 216.65 270.20 211.78 265.81 213.92 C 262.17 213.65 266.76 217.03 267.22 218.67 C 267.40 223.08 270.56 226.61 271.22 230.92 C 269.84 230.24 268.50 229.47 267.15 228.74 C 261.09 223.95 253.15 222.36 245.63 222.75 C 240.09 223.57 237.72 230.65 231.93 230.11 C 233.20 227.94 234.83 226.01 236.03 223.80 C 223.26 230.40 221.74 247.38 227.10 259.17 C 216.87 250.67 216.84 236.67 219.18 224.88 C 207.36 234.13 212.47 252.53 223.11 260.91 C 227.49 263.90 211.55 263.04 225.66 264.27 C 227.26 267.57 228.48 271.51 227.42 275.14 C 227.83 271.68 222.99 273.15 224.14 275.88 C 223.77 285.53 231.43 291.84 239.20 295.75 C 238.88 296.01 238.23 296.52 237.90 296.78 C 237.51 296.74 236.72 296.66 236.32 296.62 C 232.24 296.90 227.16 301.41 227.89 306.06 C 225.99 306.72 224.11 307.49 222.15 307.97 C 220.59 305.31 220.01 297.99 215.66 300.65 C 212.08 306.16 219.23 307.73 222.27 310.52 C 227.01 309.93 231.65 308.56 236.23 307.17 C 233.46 312.88 223.51 309.11 222.87 315.91 C 220.53 313.59 216.90 314.18 214.01 313.00 C 212.46 312.84 209.36 312.51 207.81 312.34 C 205.56 310.14 203.64 307.65 201.86 305.06 C 204.06 293.70 191.74 284.70 181.72 281.20 C 179.12 279.08 177.35 276.24 176.28 273.08 C 176.63 272.54 177.34 271.46 177.69 270.92 C 177.14 276.03 183.43 272.55 185.96 275.14 C 186.24 277.72 178.14 276.54 182.49 278.46 C 191.02 277.84 196.62 284.37 202.39 289.52 C 206.97 290.92 211.52 292.45 214.90 295.97 C 214.00 289.55 222.68 289.05 223.13 283.04 C 227.27 272.44 214.93 271.84 210.18 265.82 C 207.45 263.22 206.25 267.46 205.55 269.53 C 202.75 276.62 209.88 280.40 214.12 284.39 C 213.04 287.01 207.25 283.32 205.72 281.29 C 204.11 278.04 200.21 277.24 198.01 274.49 C 200.84 271.20 194.43 268.12 198.04 265.03 C 201.14 261.27 194.16 258.45 192.12 262.08 C 188.63 264.86 190.46 257.01 187.03 256.66 C 187.13 251.87 192.36 248.91 196.75 249.35 C 198.23 252.27 201.21 256.21 202.02 250.57 C 206.15 260.51 214.37 268.66 224.09 273.14 C 223.71 268.00 218.31 265.47 215.01 262.17 C 214.21 258.35 210.93 255.78 210.06 251.98 C 207.88 247.03 207.50 238.75 199.92 239.15 C 210.33 237.66 211.39 218.12 223.96 221.88 C 223.87 225.70 228.77 223.87 231.25 223.41 C 240.01 220.56 249.39 219.14 257.49 214.59 Z" />
</g>
<g id="#656461fe">
<path fill="#656461" opacity="1.00" d=" M 265.81 213.92 C 270.20 211.78 272.73 216.65 276.60 216.96 C 277.18 215.28 276.84 212.79 279.17 212.56 C 285.67 213.22 287.02 220.71 292.01 223.75 C 287.13 232.28 287.17 214.72 280.94 215.94 C 282.65 224.52 287.58 232.69 285.58 241.95 C 288.49 246.24 282.94 253.79 289.02 255.34 C 283.70 258.15 289.41 262.82 286.10 265.90 C 285.47 266.60 284.86 267.32 284.28 268.05 C 282.85 261.86 274.45 259.59 268.93 259.75 C 267.47 257.56 265.86 254.31 263.86 257.94 C 254.88 261.38 252.39 249.04 248.20 243.86 C 254.17 245.75 259.62 249.98 266.08 250.04 C 265.90 246.95 263.85 244.04 265.87 241.11 C 260.97 239.80 255.71 241.20 250.81 239.06 C 251.48 241.54 253.91 242.86 255.31 244.88 C 251.53 244.63 248.83 240.16 244.95 242.24 C 241.96 243.61 237.10 242.96 235.89 246.65 C 234.46 246.23 233.54 247.18 232.77 248.27 C 234.35 238.62 244.82 233.75 253.67 233.49 C 256.27 233.92 259.70 236.04 260.32 232.10 C 263.47 233.92 265.97 243.43 269.77 237.92 C 267.96 235.15 266.43 232.16 267.15 228.74 C 268.50 229.47 269.84 230.24 271.22 230.92 C 270.56 226.61 267.40 223.08 267.22 218.67 C 275.27 225.40 271.67 237.51 276.78 245.15 C 278.38 239.34 277.96 232.98 276.89 227.16 C 273.00 222.90 271.30 216.53 265.81 213.92 Z" />
</g>
<g id="#8a877fff">
<path fill="#8a877f" opacity="1.00" d=" M 267.22 218.67 C 266.76 217.03 262.17 213.65 265.81 213.92 C 271.30 216.53 273.00 222.90 276.89 227.16 C 277.96 232.98 278.38 239.34 276.78 245.15 C 271.67 237.51 275.27 225.40 267.22 218.67 Z" />
</g>
<g id="#828279ff">
<path fill="#828279" opacity="1.00" d=" M 280.94 215.94 C 287.17 214.72 287.13 232.28 292.01 223.75 C 293.32 224.24 294.63 224.73 295.95 225.22 C 296.43 225.54 297.39 226.17 297.88 226.49 C 300.55 227.91 303.22 229.36 305.81 230.93 C 304.96 236.42 304.25 241.94 303.36 247.43 C 298.26 244.75 303.06 237.61 301.09 233.77 C 298.32 232.48 292.50 228.58 291.76 233.79 C 290.43 240.91 290.75 248.32 289.02 255.34 C 282.94 253.79 288.49 246.24 285.58 241.95 C 287.58 232.69 282.65 224.52 280.94 215.94 Z" />
</g>
<g id="#27282795">
<path fill="#272827" opacity="0.58" d=" M 223.96 221.88 C 226.34 222.55 228.77 223.06 231.25 223.41 C 228.77 223.87 223.87 225.70 223.96 221.88 Z" />
</g>
<g id="#767673ff">
<path fill="#767673" opacity="1.00" d=" M 245.63 222.75 C 253.15 222.36 261.09 223.95 267.15 228.74 C 266.43 232.16 267.96 235.15 269.77 237.92 C 265.97 243.43 263.47 233.92 260.32 232.10 C 253.30 228.93 244.65 227.22 237.40 230.41 C 231.08 235.45 225.43 242.08 226.98 251.02 C 229.49 251.51 231.69 250.61 232.77 248.27 C 233.54 247.18 234.46 246.23 235.89 246.65 C 238.09 252.81 231.14 257.70 231.84 263.97 C 227.57 279.14 249.14 288.36 261.23 284.80 C 257.47 281.94 247.27 281.71 250.06 275.18 C 256.80 278.37 263.90 280.70 271.09 282.60 C 268.75 284.60 267.49 291.88 272.05 291.66 C 271.14 293.80 269.88 295.76 268.91 297.87 C 264.54 296.07 257.84 294.40 255.85 300.04 C 256.25 298.18 256.62 296.32 257.15 294.49 C 258.92 294.27 262.98 296.40 261.90 293.17 C 258.68 292.79 255.52 292.32 252.30 292.10 C 243.78 287.07 233.44 285.06 226.96 276.83 C 227.08 276.40 227.31 275.56 227.42 275.14 C 228.48 271.51 227.26 267.57 225.66 264.27 C 211.55 263.04 227.49 263.90 223.11 260.91 C 212.47 252.53 207.36 234.13 219.18 224.88 C 216.84 236.67 216.87 250.67 227.10 259.17 C 221.74 247.38 223.26 230.40 236.03 223.80 C 234.83 226.01 233.20 227.94 231.93 230.11 C 237.72 230.65 240.09 223.57 245.63 222.75 Z" />
</g>
<g id="#2c2c2da4">
<path fill="#2c2c2d" opacity="0.64" d=" M 308.97 226.29 C 309.61 225.32 309.67 223.35 311.13 223.30 C 311.50 224.81 311.12 228.00 308.97 226.29 Z" />
</g>
<g id="#656665fd">
<path fill="#656665" opacity="1.00" d=" M 311.13 223.30 C 312.42 223.15 313.72 223.03 315.02 222.95 C 315.25 223.24 315.70 223.81 315.93 224.10 C 320.42 227.91 314.86 233.30 316.00 238.08 C 314.55 242.86 318.66 253.65 310.21 253.44 C 312.02 246.51 311.56 239.24 313.31 232.31 C 310.78 231.60 310.75 227.24 307.70 228.45 C 305.89 227.89 305.94 229.57 305.81 230.93 C 303.22 229.36 300.55 227.91 297.88 226.49 C 298.41 226.11 299.47 225.35 300.01 224.97 C 303.00 225.27 306.18 224.98 308.97 226.29 C 311.12 228.00 311.50 224.81 311.13 223.30 Z" />
</g>
<g id="#2021218f">
<path fill="#202121" opacity="0.56" d=" M 315.02 222.95 C 316.72 222.59 318.61 222.59 320.02 223.75 C 318.67 224.14 317.30 224.25 315.93 224.10 C 315.70 223.81 315.25 223.24 315.02 222.95 Z" />
</g>
<g id="#555452fb">
<path fill="#555452" opacity="1.00" d=" M 315.93 224.10 C 317.30 224.25 318.67 224.14 320.02 223.75 C 326.79 226.34 329.71 234.64 337.76 234.18 C 341.16 234.72 344.63 234.97 348.07 235.06 C 360.97 234.67 376.05 249.60 366.85 261.88 C 365.25 260.76 363.87 259.36 362.49 257.99 C 370.31 254.11 360.88 240.06 354.19 244.22 C 354.50 246.45 355.12 248.89 351.91 248.27 C 345.33 238.59 337.10 249.05 335.66 256.86 C 334.69 259.90 334.10 263.24 337.01 265.12 C 333.71 265.23 330.76 263.72 328.76 261.15 C 330.55 261.27 332.33 261.60 334.12 261.80 C 333.38 257.49 331.77 252.92 327.06 251.74 C 329.00 247.30 332.27 241.48 327.49 237.58 C 325.36 231.61 319.05 234.90 316.00 238.08 C 314.86 233.30 320.42 227.91 315.93 224.10 Z" />
</g>
<g id="#2e2f2c9a">
<path fill="#2e2f2c" opacity="0.60" d=" M 295.95 225.22 C 297.28 224.80 298.63 224.72 300.01 224.97 C 299.47 225.35 298.41 226.11 297.88 226.49 C 297.39 226.17 296.43 225.54 295.95 225.22 Z" />
</g>
<g id="#434341fe">
<path fill="#434341" opacity="1.00" d=" M 305.81 230.93 C 305.94 229.57 305.89 227.89 307.70 228.45 C 307.98 230.86 308.45 233.24 308.98 235.61 C 304.12 239.12 305.14 247.22 306.90 252.46 C 306.84 254.67 308.87 253.67 310.21 253.44 C 318.66 253.65 314.55 242.86 316.00 238.08 C 319.05 234.90 325.36 231.61 327.49 237.58 C 332.27 241.48 329.00 247.30 327.06 251.74 C 331.77 252.92 333.38 257.49 334.12 261.80 C 332.33 261.60 330.55 261.27 328.76 261.15 C 322.27 257.69 321.25 263.77 326.24 264.25 C 331.57 265.00 335.41 269.37 340.19 271.52 C 339.87 272.09 339.22 273.23 338.89 273.80 C 337.92 274.25 336.96 274.70 335.99 275.15 C 338.38 270.47 331.97 274.70 329.89 275.47 C 322.96 273.99 315.88 277.48 309.21 276.36 C 311.84 272.38 302.28 271.87 305.68 267.72 C 307.42 262.88 315.71 269.54 312.02 260.95 C 310.34 254.44 309.68 265.65 306.52 263.60 C 297.03 264.41 304.28 260.56 306.69 258.99 C 305.87 256.97 305.01 254.97 304.40 252.87 C 304.09 251.28 303.80 249.68 303.48 248.09 L 303.36 247.43 C 304.25 241.94 304.96 236.42 305.81 230.93 Z" />
</g>
<g id="#838587ff">
<path fill="#838587" opacity="1.00" d=" M 307.70 228.45 C 310.75 227.24 310.78 231.60 313.31 232.31 C 311.56 239.24 312.02 246.51 310.21 253.44 C 308.87 253.67 306.84 254.67 306.90 252.46 C 312.52 249.22 308.75 241.04 308.98 235.61 C 308.45 233.24 307.98 230.86 307.70 228.45 Z" />
</g>
<g id="#534e49ff">
<path fill="#534e49" opacity="1.00" d=" M 237.40 230.41 C 244.65 227.22 253.30 228.93 260.32 232.10 C 259.70 236.04 256.27 233.92 253.67 233.49 C 244.82 233.75 234.35 238.62 232.77 248.27 C 231.69 250.61 229.49 251.51 226.98 251.02 C 225.43 242.08 231.08 235.45 237.40 230.41 Z" />
</g>
<g id="#909187ff">
<path fill="#909187" opacity="1.00" d=" M 291.76 233.79 C 292.50 228.58 298.32 232.48 301.09 233.77 C 303.06 237.61 298.26 244.75 303.36 247.43 L 303.48 248.09 C 303.50 253.91 291.20 257.26 291.69 249.84 C 292.90 244.55 292.41 239.11 291.76 233.79 Z" />
</g>
<g id="#4f4f4dfb">
<path fill="#4f4f4d" opacity="1.00" d=" M 156.03 242.02 C 158.61 238.66 161.02 233.70 165.97 234.23 C 173.01 235.73 180.17 233.00 187.22 234.62 C 176.23 236.07 171.18 248.73 176.13 258.03 C 177.58 263.02 166.74 254.18 170.15 259.82 C 174.06 264.94 162.74 261.02 160.99 261.03 C 156.45 261.18 154.31 256.74 154.24 252.93 C 154.78 249.28 155.28 245.63 156.03 242.02 Z" />
</g>
<g id="#575755fe">
<path fill="#575755" opacity="1.00" d=" M 289.02 255.34 C 290.75 248.32 290.43 240.91 291.76 233.79 C 292.41 239.11 292.90 244.55 291.69 249.84 C 291.00 253.53 290.31 257.23 289.92 260.98 C 294.63 258.28 301.54 257.42 304.40 252.87 C 305.01 254.97 305.87 256.97 306.69 258.99 C 304.28 260.56 297.03 264.41 306.52 263.60 C 309.68 265.65 310.34 254.44 312.02 260.95 C 315.71 269.54 307.42 262.88 305.68 267.72 C 302.28 271.87 311.84 272.38 309.21 276.36 C 306.73 275.33 304.19 274.07 301.45 274.12 C 300.72 277.72 297.38 280.34 299.75 284.01 C 299.11 286.58 299.45 287.74 301.95 286.02 C 302.21 286.48 302.73 287.42 302.99 287.88 C 302.96 289.78 302.90 291.69 302.83 293.60 C 299.66 294.40 302.17 290.23 300.80 288.62 C 300.39 286.89 297.96 288.75 296.88 289.04 C 292.99 289.32 298.85 284.55 296.36 282.61 C 292.54 278.88 301.37 277.26 298.00 272.29 C 290.45 274.94 293.05 265.15 286.10 265.90 C 289.41 262.82 283.70 258.15 289.02 255.34 Z" />
</g>
<g id="#201f1d69">
<path fill="#201f1d" opacity="0.41" d=" M 337.76 234.18 C 341.23 233.94 344.69 234.08 348.07 235.06 C 344.63 234.97 341.16 234.72 337.76 234.18 Z" />
</g>
<g id="#6f6f6cfe">
<path fill="#6f6f6c" opacity="1.00" d=" M 176.13 258.03 C 171.18 248.73 176.23 236.07 187.22 234.62 C 191.64 235.53 195.64 237.78 199.92 239.15 C 207.50 238.75 207.88 247.03 210.06 251.98 C 210.93 255.78 214.21 258.35 215.01 262.17 C 212.37 260.13 209.85 257.92 207.45 255.60 C 207.39 251.58 206.34 247.41 203.78 244.23 C 200.08 242.28 202.42 248.26 202.02 250.57 C 201.21 256.21 198.23 252.27 196.75 249.35 C 192.36 248.91 187.13 251.87 187.03 256.66 C 186.44 260.29 188.47 263.50 189.11 266.95 C 184.98 264.98 181.09 267.56 185.22 271.83 C 189.77 270.47 193.99 272.55 198.01 274.49 C 200.21 277.24 204.11 278.04 205.72 281.29 C 207.25 283.32 213.04 287.01 214.12 284.39 C 217.24 284.72 220.41 284.79 223.13 283.04 C 222.68 289.05 214.00 289.55 214.90 295.97 C 211.52 292.45 206.97 290.92 202.39 289.52 C 196.62 284.37 191.02 277.84 182.49 278.46 C 178.14 276.54 186.24 277.72 185.96 275.14 C 183.43 272.55 177.14 276.03 177.69 270.92 C 182.28 270.04 180.00 268.33 177.18 266.68 C 175.77 265.59 174.27 264.63 172.75 263.72 C 166.00 264.85 155.57 264.63 153.54 255.78 C 153.71 255.07 154.06 253.65 154.24 252.93 C 154.31 256.74 156.45 261.18 160.99 261.03 C 162.74 261.02 174.06 264.94 170.15 259.82 C 166.74 254.18 177.58 263.02 176.13 258.03 Z" />
</g>
<g id="#5c5956ff">
<path fill="#5c5956" opacity="1.00" d=" M 306.90 252.46 C 305.14 247.22 304.12 239.12 308.98 235.61 C 308.75 241.04 312.52 249.22 306.90 252.46 Z" />
</g>
<g id="#757573ff">
<path fill="#757573" opacity="1.00" d=" M 250.81 239.06 C 255.71 241.20 260.97 239.80 265.87 241.11 C 263.85 244.04 265.90 246.95 266.08 250.04 C 259.62 249.98 254.17 245.75 248.20 243.86 C 252.39 249.04 254.88 261.38 263.86 257.94 C 265.86 254.31 267.47 257.56 268.93 259.75 L 268.01 260.19 C 264.81 261.24 263.48 267.70 259.61 265.43 C 253.38 261.88 247.71 257.34 241.97 253.02 C 239.65 251.48 237.18 247.12 240.99 245.82 C 243.70 248.35 246.41 252.62 249.99 248.95 C 248.31 246.71 246.41 244.63 244.95 242.24 C 248.83 240.16 251.53 244.63 255.31 244.88 C 253.91 242.86 251.48 241.54 250.81 239.06 Z" />
</g>
<g id="#00000012">
<path fill="#000000" opacity="0.07" d=" M 145.51 274.61 C 148.24 263.83 149.88 251.91 156.03 242.02 C 155.28 245.63 154.78 249.28 154.24 252.93 C 154.06 253.65 153.71 255.07 153.54 255.78 C 152.58 258.49 151.79 261.25 150.90 263.99 C 149.32 264.89 149.29 267.13 150.85 268.07 C 150.94 269.65 151.02 271.23 151.12 272.81 C 149.96 289.46 152.30 306.26 157.08 322.09 C 159.90 324.16 162.37 328.27 164.83 329.58 C 170.32 314.72 171.93 298.23 176.97 282.97 C 177.67 279.79 180.51 281.77 182.30 282.77 C 188.40 289.71 194.98 296.33 200.04 304.11 C 195.39 302.16 191.49 298.18 188.44 294.11 C 184.47 300.67 177.61 305.96 176.17 313.65 C 180.25 315.02 180.31 318.54 176.57 320.55 C 171.93 322.16 176.80 326.90 176.07 330.02 C 179.18 334.32 174.02 337.45 175.37 341.46 C 175.06 345.24 178.06 348.14 178.48 351.66 C 175.32 355.28 175.71 361.38 178.77 364.97 C 175.82 370.15 172.52 378.52 178.97 382.25 C 177.34 388.73 175.19 396.19 179.91 401.85 C 177.15 401.71 173.69 406.75 177.64 406.61 C 181.91 406.36 178.12 412.15 180.15 414.56 C 185.96 420.92 173.42 417.27 177.82 422.11 C 183.91 423.84 175.67 432.58 182.07 433.98 C 186.82 434.76 181.13 437.61 180.09 439.51 C 187.49 441.20 183.79 452.59 180.46 457.06 C 180.77 461.15 179.80 465.63 182.67 469.03 C 180.20 477.19 182.68 485.57 182.86 493.86 C 181.37 496.21 177.95 500.39 181.41 502.55 C 184.87 504.37 185.29 508.41 185.18 512.00 L 154.17 512.00 C 152.25 507.87 151.40 503.08 153.74 498.91 C 150.77 495.50 147.27 491.52 153.10 489.12 C 147.15 484.09 152.14 475.97 150.81 469.47 C 149.55 468.49 145.89 468.14 148.29 466.29 C 152.93 462.22 145.94 457.21 147.20 452.41 C 149.04 450.92 152.44 449.34 150.45 446.49 C 147.20 442.45 152.04 436.46 147.95 433.04 C 145.50 430.75 145.65 427.20 145.16 424.13 C 146.64 424.30 150.01 425.71 149.69 423.12 C 147.45 418.55 146.68 413.50 146.41 408.46 C 140.63 398.44 149.23 386.43 142.51 376.57 C 143.16 356.75 143.82 336.75 146.05 317.01 C 143.92 302.78 149.17 288.74 145.51 274.61 Z" />
<path fill="#000000" opacity="0.07" d=" M 348.85 314.85 C 352.47 311.54 355.21 306.08 361.24 307.71 L 361.98 307.86 C 363.02 309.22 364.78 309.72 366.45 309.47 C 357.22 311.12 354.91 320.68 350.66 327.67 C 347.89 331.84 351.96 338.49 346.40 340.45 C 345.91 349.93 342.95 359.07 338.59 367.45 C 339.53 372.79 335.76 376.21 333.10 380.10 C 335.82 387.57 326.39 392.82 329.48 400.67 C 325.96 405.37 331.81 413.16 326.32 416.33 C 320.81 419.97 327.88 427.24 323.96 431.85 C 322.68 438.19 323.14 444.90 320.44 450.92 C 322.06 455.13 323.06 459.95 319.14 463.12 C 316.09 470.75 322.15 479.71 317.35 487.17 C 318.15 488.71 319.28 490.06 320.08 491.62 C 315.66 490.96 312.58 497.23 315.66 500.29 C 319.38 503.91 316.08 508.00 316.89 512.00 L 280.70 512.00 C 281.81 508.29 284.18 505.27 286.19 502.05 C 278.13 505.32 282.54 497.67 285.42 493.55 C 285.41 488.64 283.96 482.18 288.35 479.07 C 286.87 473.98 292.01 468.20 288.26 463.75 C 288.28 460.45 290.46 457.59 291.26 454.45 C 289.25 451.79 288.11 448.55 288.08 445.21 C 296.08 444.35 291.94 433.27 291.52 427.45 C 298.63 415.99 289.66 400.84 298.41 390.18 C 299.07 377.51 302.34 365.33 302.44 352.56 C 306.81 349.98 302.39 345.78 302.99 342.05 C 303.59 337.10 305.56 332.26 303.89 327.23 C 295.12 326.03 288.19 331.00 279.86 330.08 L 279.95 329.29 C 284.27 328.16 288.70 327.30 292.93 325.80 C 294.65 326.36 296.70 326.56 298.11 325.17 C 298.84 325.17 300.31 325.17 301.04 325.17 C 302.55 324.96 305.55 324.53 307.05 324.31 C 307.48 324.20 308.33 323.97 308.76 323.86 C 313.12 334.32 310.25 345.83 309.36 356.56 C 314.44 359.14 309.58 363.46 308.13 367.06 C 308.64 369.76 314.01 372.26 310.59 374.58 C 304.85 379.04 309.93 386.84 310.43 392.59 C 313.32 394.24 322.88 396.69 318.25 390.82 C 320.51 387.82 319.50 385.38 316.90 382.90 C 325.95 377.64 325.98 366.37 330.35 358.38 C 335.16 355.45 333.54 349.39 336.15 345.13 C 342.05 335.65 344.83 325.01 348.85 314.85 Z" />
</g>
<g id="#919089ff">
<path fill="#919089" opacity="1.00" d=" M 235.89 246.65 C 237.10 242.96 241.96 243.61 244.95 242.24 C 246.41 244.63 248.31 246.71 249.99 248.95 C 246.41 252.62 243.70 248.35 240.99 245.82 C 237.18 247.12 239.65 251.48 241.97 253.02 C 247.71 257.34 253.38 261.88 259.61 265.43 C 263.48 267.70 264.81 261.24 268.01 260.19 C 274.73 262.45 277.35 270.00 272.39 275.39 C 269.18 277.72 272.14 280.97 274.16 282.87 C 273.40 282.80 271.86 282.67 271.09 282.60 C 263.90 280.70 256.80 278.37 250.06 275.18 C 247.27 281.71 257.47 281.94 261.23 284.80 C 249.14 288.36 227.57 279.14 231.84 263.97 C 231.14 257.70 238.09 252.81 235.89 246.65 Z" />
</g>
<g id="#787372ff">
<path fill="#787372" opacity="1.00" d=" M 354.19 244.22 C 360.88 240.06 370.31 254.11 362.49 257.99 C 358.83 254.89 355.08 251.88 351.91 248.27 C 355.12 248.89 354.50 246.45 354.19 244.22 Z" />
</g>
<g id="#84817aff">
<path fill="#84817a" opacity="1.00" d=" M 202.02 250.57 C 202.42 248.26 200.08 242.28 203.78 244.23 C 206.34 247.41 207.39 251.58 207.45 255.60 C 209.85 257.92 212.37 260.13 215.01 262.17 C 218.31 265.47 223.71 268.00 224.09 273.14 C 214.37 268.66 206.15 260.51 202.02 250.57 Z" />
</g>
<g id="#e0b090fe">
<path fill="#e0b090" opacity="1.00" d=" M 335.66 256.86 C 337.10 249.05 345.33 238.59 351.91 248.27 C 355.08 251.88 358.83 254.89 362.49 257.99 C 363.87 259.36 365.25 260.76 366.85 261.88 C 371.23 264.94 375.61 267.99 380.03 270.99 C 378.28 273.59 376.56 276.21 374.89 278.86 C 374.30 279.72 373.68 280.56 373.05 281.39 C 360.50 275.85 348.61 268.61 337.34 260.73 C 335.88 259.96 335.97 258.25 335.66 256.86 Z" />
</g>
<g id="#74746bff">
<path fill="#74746b" opacity="1.00" d=" M 303.48 248.09 C 303.80 249.68 304.09 251.28 304.40 252.87 C 301.54 257.42 294.63 258.28 289.92 260.98 C 290.31 257.23 291.00 253.53 291.69 249.84 C 291.20 257.26 303.50 253.91 303.48 248.09 Z" />
</g>
<g id="#4c4d4df9">
<path fill="#4c4d4d" opacity="0.98" d=" M 150.90 263.99 C 151.79 261.25 152.58 258.49 153.54 255.78 C 155.57 264.63 166.00 264.85 172.75 263.72 C 170.48 266.82 171.54 271.20 169.01 274.25 C 167.25 269.50 162.60 267.75 158.17 270.16 C 153.20 276.57 161.44 286.06 168.74 281.90 C 168.62 283.63 168.56 285.38 168.82 287.11 C 159.66 291.07 152.33 280.81 151.12 272.81 C 151.02 271.23 150.94 269.65 150.85 268.07 C 151.20 266.71 151.22 265.35 150.90 263.99 Z" />
</g>
<g id="#414242ff">
<path fill="#414242" opacity="1.00" d=" M 187.03 256.66 C 190.46 257.01 188.63 264.86 192.12 262.08 C 194.16 258.45 201.14 261.27 198.04 265.03 C 194.43 268.12 200.84 271.20 198.01 274.49 C 193.99 272.55 189.77 270.47 185.22 271.83 C 181.09 267.56 184.98 264.98 189.11 266.95 C 188.47 263.50 186.44 260.29 187.03 256.66 Z" />
</g>
<g id="#ab846afd">
<path fill="#ab846a" opacity="1.00" d=" M 337.01 265.12 C 334.10 263.24 334.69 259.90 335.66 256.86 C 335.97 258.25 335.88 259.96 337.34 260.73 C 348.61 268.61 360.50 275.85 373.05 281.39 C 371.86 281.91 370.57 282.16 369.30 282.36 C 362.97 278.57 356.62 274.81 349.93 271.72 C 345.49 269.79 341.36 267.22 337.01 265.12 Z" />
</g>
<g id="#807f79ff">
<path fill="#807f79" opacity="1.00" d=" M 268.01 260.19 L 268.93 259.75 C 274.45 259.59 282.85 261.86 284.28 268.05 C 284.67 272.87 281.46 276.54 277.84 279.29 C 274.57 282.22 277.09 288.99 271.86 290.04 C 272.24 287.64 274.93 285.07 274.16 282.87 C 272.14 280.97 269.18 277.72 272.39 275.39 C 277.35 270.00 274.73 262.45 268.01 260.19 Z" />
</g>
<g id="#2f2e30fe">
<path fill="#2f2e30" opacity="1.00" d=" M 326.24 264.25 C 321.25 263.77 322.27 257.69 328.76 261.15 C 330.76 263.72 333.71 265.23 337.01 265.12 C 341.36 267.22 345.49 269.79 349.93 271.72 C 348.14 272.55 348.26 275.14 346.30 275.79 C 344.52 274.17 342.26 273.01 340.19 271.52 C 335.41 269.37 331.57 265.00 326.24 264.25 Z" />
</g>
<g id="#22211f87">
<path fill="#22211f" opacity="0.53" d=" M 150.85 268.07 C 149.29 267.13 149.32 264.89 150.90 263.99 C 151.22 265.35 151.20 266.71 150.85 268.07 Z" />
</g>
<g id="#343434f8">
<path fill="#343434" opacity="0.97" d=" M 169.01 274.25 C 171.54 271.20 170.48 266.82 172.75 263.72 C 174.27 264.63 175.77 265.59 177.18 266.68 C 176.25 268.51 175.22 270.42 175.58 272.55 C 176.44 278.25 174.10 284.28 168.82 287.11 C 168.56 285.38 168.62 283.63 168.74 281.90 C 168.84 279.34 168.93 276.79 169.01 274.25 Z" />
</g>
<g id="#7f8078ff">
<path fill="#7f8078" opacity="1.00" d=" M 205.55 269.53 C 206.25 267.46 207.45 263.22 210.18 265.82 C 214.93 271.84 227.27 272.44 223.13 283.04 C 220.41 284.79 217.24 284.72 214.12 284.39 C 209.88 280.40 202.75 276.62 205.55 269.53 Z" />
</g>
<g id="#676978ff">
<path fill="#676978" opacity="1.00" d=" M 284.28 268.05 C 284.86 267.32 285.47 266.60 286.10 265.90 C 293.05 265.15 290.45 274.94 298.00 272.29 C 301.37 277.26 292.54 278.88 296.36 282.61 C 298.85 284.55 292.99 289.32 296.88 289.04 C 295.14 290.43 292.51 288.28 291.13 290.26 C 290.10 292.90 294.37 293.47 294.06 296.01 C 294.15 298.31 291.76 299.48 290.48 301.04 C 286.00 302.91 289.88 303.14 292.90 303.25 C 297.67 303.92 291.39 308.81 288.99 306.07 C 286.39 304.74 283.93 304.89 281.23 305.94 C 279.55 304.17 277.67 302.59 275.95 300.87 C 277.09 297.98 280.96 295.46 284.17 296.67 C 290.79 299.13 279.09 291.54 286.91 291.57 C 285.53 286.27 285.80 277.71 277.84 279.29 C 281.46 276.54 284.67 272.87 284.28 268.05 Z" />
</g>
<g id="#11101067">
<path fill="#111010" opacity="0.40" d=" M 177.18 266.68 C 180.00 268.33 182.28 270.04 177.69 270.92 C 177.34 271.46 176.63 272.54 176.28 273.08 L 175.58 272.55 C 175.22 270.42 176.25 268.51 177.18 266.68 Z" />
</g>
<g id="#6d6c6dff">
<path fill="#6d6c6d" opacity="1.00" d=" M 158.17 270.16 C 162.60 267.75 167.25 269.50 169.01 274.25 C 168.93 276.79 168.84 279.34 168.74 281.90 C 161.44 286.06 153.20 276.57 158.17 270.16 Z" />
</g>
<g id="#5c5c5afa">
<path fill="#5c5c5a" opacity="0.98" d=" M 380.03 270.99 C 383.10 271.84 385.32 274.12 387.95 275.73 C 392.03 273.82 396.37 274.24 399.77 277.19 C 402.82 277.86 406.03 277.95 409.16 277.85 C 409.94 278.66 410.21 279.77 409.97 281.16 L 409.13 281.15 C 399.24 280.86 389.41 282.68 379.50 281.83 C 378.92 278.61 377.97 275.59 374.89 278.86 C 376.56 276.21 378.28 273.59 380.03 270.99 Z" />
</g>
<g id="#757579fd">
<path fill="#757579" opacity="1.00" d=" M 338.89 273.80 C 339.22 273.23 339.87 272.09 340.19 271.52 C 342.26 273.01 344.52 274.17 346.30 275.79 C 341.81 277.55 341.65 277.59 346.24 278.83 C 346.16 279.66 345.99 281.33 345.91 282.16 C 345.26 278.06 341.02 279.10 337.81 278.78 C 337.23 278.19 336.68 277.58 336.16 276.97 C 339.82 278.84 345.24 273.41 338.89 273.80 Z" />
</g>
<g id="#080706df">
<path fill="#080706" opacity="0.87" d=" M 346.30 275.79 C 348.26 275.14 348.14 272.55 349.93 271.72 C 356.62 274.81 362.97 278.57 369.30 282.36 C 362.17 281.45 349.76 287.60 346.24 278.83 C 341.65 277.59 341.81 277.55 346.30 275.79 Z" />
</g>
<g id="#01010123">
<path fill="#010101" opacity="0.14" d=" M 151.12 272.81 C 152.33 280.81 159.66 291.07 168.82 287.11 C 174.10 284.28 176.44 278.25 175.58 272.55 L 176.28 273.08 C 177.35 276.24 179.12 279.08 181.72 281.20 C 181.87 281.59 182.16 282.37 182.30 282.77 C 180.51 281.77 177.67 279.79 176.97 282.97 C 171.93 298.23 170.32 314.72 164.83 329.58 C 162.37 328.27 159.90 324.16 157.08 322.09 C 152.30 306.26 149.96 289.46 151.12 272.81 Z" />
</g>
<g id="#2b2d2fff">
<path fill="#2b2d2f" opacity="1.00" d=" M 224.14 275.88 C 222.99 273.15 227.83 271.68 227.42 275.14 C 227.31 275.56 227.08 276.40 226.96 276.83 C 224.77 282.84 232.07 286.80 235.89 290.07 C 236.91 292.46 239.25 293.23 241.53 293.97 C 242.28 295.65 245.33 296.86 244.04 298.92 C 242.40 297.90 240.89 296.69 239.20 295.75 C 231.43 291.84 223.77 285.53 224.14 275.88 Z" />
</g>
<g id="#050505d3">
<path fill="#050505" opacity="0.83" d=" M 329.89 275.47 C 331.97 274.70 338.38 270.47 335.99 275.15 C 336.56 280.26 332.02 280.19 328.72 281.27 C 325.27 282.67 321.83 283.99 318.03 284.11 C 313.67 284.55 308.91 282.95 304.76 284.75 C 303.80 285.14 302.87 285.56 301.95 286.02 C 299.45 287.74 299.11 286.58 299.75 284.01 C 297.38 280.34 300.72 277.72 301.45 274.12 C 304.19 274.07 306.73 275.33 309.21 276.36 C 315.88 277.48 322.96 273.99 329.89 275.47 Z" />
</g>
<g id="#b4b6c0ff">
<path fill="#b4b6c0" opacity="1.00" d=" M 335.99 275.15 C 336.96 274.70 337.92 274.25 338.89 273.80 C 345.24 273.41 339.82 278.84 336.16 276.97 C 336.11 276.51 336.03 275.60 335.99 275.15 Z" />
</g>
<g id="#525254fe">
<path fill="#525254" opacity="1.00" d=" M 328.72 281.27 C 332.02 280.19 336.56 280.26 335.99 275.15 C 336.03 275.60 336.11 276.51 336.16 276.97 C 336.68 277.58 337.23 278.19 337.81 278.78 C 337.41 281.42 336.87 284.13 336.99 286.83 C 340.44 288.55 344.91 287.25 347.97 290.13 C 348.02 290.61 348.12 291.56 348.17 292.04 C 347.08 292.49 345.97 292.89 344.84 293.25 C 339.56 291.79 333.89 294.09 328.81 291.48 L 329.98 291.29 C 338.95 292.96 338.75 276.01 328.72 281.27 Z" />
</g>
<g id="#535152ff">
<path fill="#535152" opacity="1.00" d=" M 226.96 276.83 C 233.44 285.06 243.78 287.07 252.30 292.10 C 248.70 292.70 245.11 293.32 241.53 293.97 C 239.25 293.23 236.91 292.46 235.89 290.07 C 232.07 286.80 224.77 282.84 226.96 276.83 Z" />
</g>
<g id="#393939f6">
<path fill="#393939" opacity="0.96" d=" M 374.89 278.86 C 377.97 275.59 378.92 278.61 379.50 281.83 C 389.41 282.68 399.24 280.86 409.13 281.15 C 408.80 281.60 408.16 282.51 407.83 282.97 C 387.17 282.39 366.58 284.00 345.94 284.05 C 345.93 283.58 345.92 282.63 345.91 282.16 C 345.99 281.33 346.16 279.66 346.24 278.83 C 349.76 287.60 362.17 281.45 369.30 282.36 C 370.57 282.16 371.86 281.91 373.05 281.39 C 373.68 280.56 374.30 279.72 374.89 278.86 Z" />
</g>
<g id="#10100f59">
<path fill="#10100f" opacity="0.35" d=" M 399.77 277.19 C 402.83 277.40 406.35 276.33 409.16 277.85 C 406.03 277.95 402.82 277.86 399.77 277.19 Z" />
</g>
<g id="#56565aff">
<path fill="#56565a" opacity="1.00" d=" M 271.86 290.04 C 277.09 288.99 274.57 282.22 277.84 279.29 C 285.80 277.71 285.53 286.27 286.91 291.57 C 279.09 291.54 290.79 299.13 284.17 296.67 C 280.96 295.46 277.09 297.98 275.95 300.87 C 277.67 302.59 279.55 304.17 281.23 305.94 C 276.77 307.79 274.25 301.72 270.02 303.67 C 270.00 301.68 269.76 299.69 268.91 297.87 C 269.88 295.76 271.14 293.80 272.05 291.66 C 267.49 291.88 268.75 284.60 271.09 282.60 C 271.86 282.67 273.40 282.80 274.16 282.87 C 274.93 285.07 272.24 287.64 271.86 290.04 Z" />
</g>
<g id="#c6c6d0ff">
<path fill="#c6c6d0" opacity="1.00" d=" M 336.99 286.83 C 336.87 284.13 337.41 281.42 337.81 278.78 C 341.02 279.10 345.26 278.06 345.91 282.16 C 345.92 282.63 345.93 283.58 345.94 284.05 C 345.35 286.81 346.49 286.95 348.57 285.64 C 373.00 284.32 397.51 283.72 422.01 283.98 C 424.80 283.52 425.40 286.92 426.21 288.87 C 422.67 288.98 419.20 288.93 415.68 289.10 C 413.43 289.20 411.20 289.41 408.99 289.72 C 402.78 288.52 396.54 289.64 390.31 289.62 C 388.55 284.47 379.60 289.11 375.07 287.21 C 374.00 290.24 378.27 287.11 378.32 289.85 C 368.20 290.19 358.08 289.86 347.97 290.13 C 344.91 287.25 340.44 288.55 336.99 286.83 Z" />
</g>
<g id="#313130f4">
<path fill="#313130" opacity="0.96" d=" M 181.72 281.20 C 191.74 284.70 204.06 293.70 201.86 305.06 C 201.41 304.83 200.50 304.35 200.04 304.11 C 194.98 296.33 188.40 289.71 182.30 282.77 C 182.16 282.37 181.87 281.59 181.72 281.20 Z" />
</g>
<g id="#80837efe">
<path fill="#80837e" opacity="1.00" d=" M 318.03 284.11 C 321.83 283.99 325.27 282.67 328.72 281.27 C 338.75 276.01 338.95 292.96 329.98 291.29 C 330.50 286.00 321.99 290.82 328.81 291.48 C 333.89 294.09 339.56 291.79 344.84 293.25 C 355.57 299.11 369.89 294.64 382.58 296.08 C 379.81 289.29 386.92 294.69 389.32 291.14 C 375.73 292.37 361.59 290.10 348.17 292.04 C 348.12 291.56 348.02 290.61 347.97 290.13 C 358.08 289.86 368.20 290.19 378.32 289.85 C 382.30 289.61 386.32 289.19 390.31 289.62 C 396.54 289.64 402.78 288.52 408.99 289.72 C 403.59 291.63 397.86 290.73 392.29 290.98 C 392.45 297.05 398.25 297.30 401.53 292.95 C 403.90 300.75 414.66 293.88 420.01 294.94 C 428.40 299.52 412.81 298.02 409.90 299.84 C 394.90 302.73 418.32 298.65 411.11 303.98 C 408.66 306.43 411.81 306.05 413.80 306.14 C 414.53 308.00 415.42 309.80 416.02 311.72 L 415.50 312.38 C 410.42 315.21 404.91 310.29 399.81 313.87 C 396.73 316.41 394.23 312.12 390.99 312.51 C 389.44 312.33 387.87 312.25 386.32 312.28 C 383.54 312.18 380.77 312.09 378.01 312.01 C 377.46 311.95 376.37 311.84 375.83 311.78 C 376.20 311.57 376.94 311.15 377.31 310.94 C 381.55 311.88 385.29 310.09 389.13 308.81 C 391.49 309.28 392.72 308.82 391.06 306.58 C 394.76 304.70 403.92 308.57 404.99 304.18 C 400.46 304.64 395.76 302.44 391.36 304.14 C 382.02 304.45 388.07 305.80 390.20 306.63 C 389.35 306.73 387.66 306.94 386.81 307.04 C 385.28 307.09 383.75 307.15 382.23 307.24 C 378.82 307.10 375.48 306.96 372.11 306.63 C 366.15 306.12 360.21 305.70 354.24 305.71 C 350.89 302.84 346.37 302.95 342.20 303.00 C 333.21 302.86 324.26 304.35 315.28 303.28 C 313.37 304.28 311.80 305.79 310.00 306.98 C 307.26 303.83 302.97 303.53 299.12 302.72 C 297.35 300.61 294.97 302.96 292.90 303.25 C 289.88 303.14 286.00 302.91 290.48 301.04 C 297.53 302.36 303.30 295.73 300.80 288.62 C 302.17 290.23 299.66 294.40 302.83 293.60 C 309.38 295.48 309.64 283.87 302.99 287.88 C 302.73 287.42 302.21 286.48 301.95 286.02 C 302.87 285.56 303.80 285.14 304.76 284.75 C 306.15 284.82 307.55 284.90 308.94 284.99 C 306.05 294.70 319.25 291.52 325.00 289.82 C 325.08 285.76 321.35 284.75 318.03 285.07 L 318.03 284.11 M 310.37 292.35 C 303.80 294.19 313.57 298.79 314.83 296.03 C 312.76 293.07 318.88 292.78 320.19 294.76 C 323.17 298.16 331.22 298.97 331.08 292.97 C 324.26 294.30 318.33 289.77 310.37 292.35 M 348.39 298.52 C 337.24 298.81 325.99 299.59 314.88 299.27 C 311.38 301.00 304.37 296.37 303.94 301.97 C 326.07 300.79 348.06 302.37 370.13 300.28 C 380.74 300.55 392.88 302.54 402.22 298.18 C 384.29 298.25 366.33 297.86 348.39 298.52 M 398.02 308.06 C 396.60 312.29 401.38 310.89 403.98 310.94 C 405.40 306.70 400.61 308.10 398.02 308.06 Z" />
</g>
<g id="#0d0e0d3e">
<path fill="#0d0e0d" opacity="0.24" d=" M 409.13 281.15 L 409.97 281.16 C 416.69 282.30 423.63 281.54 430.32 282.89 C 422.82 283.01 415.32 283.02 407.83 282.97 C 408.16 282.51 408.80 281.60 409.13 281.15 Z" />
</g>
<g id="#72757af9">
<path fill="#72757a" opacity="0.98" d=" M 345.94 284.05 C 366.58 284.00 387.17 282.39 407.83 282.97 C 415.32 283.02 422.82 283.01 430.32 282.89 L 429.70 283.48 C 427.08 285.46 425.85 290.64 430.01 290.90 C 425.46 289.82 418.71 292.17 415.68 289.10 C 419.20 288.93 422.67 288.98 426.21 288.87 C 425.40 286.92 424.80 283.52 422.01 283.98 C 397.51 283.72 373.00 284.32 348.57 285.64 C 346.49 286.95 345.35 286.81 345.94 284.05 Z" />
</g>
<g id="#14141474">
<path fill="#141414" opacity="0.45" d=" M 430.32 282.89 C 430.44 284.45 430.68 287.55 430.80 289.10 C 429.81 287.41 429.39 285.42 429.70 283.48 L 430.32 282.89 Z" />
</g>
<g id="#404341e4">
<path fill="#404341" opacity="0.89" d=" M 304.76 284.75 C 308.91 282.95 313.67 284.55 318.03 284.11 L 318.03 285.07 C 314.97 285.01 311.98 285.03 308.94 284.99 C 307.55 284.90 306.15 284.82 304.76 284.75 Z" />
</g>
<g id="#3b3d45fa">
<path fill="#3b3d45" opacity="0.98" d=" M 430.01 290.90 C 425.85 290.64 427.08 285.46 429.70 283.48 C 429.39 285.42 429.81 287.41 430.80 289.10 C 430.78 289.62 430.72 290.65 430.70 291.17 L 430.01 290.90 Z" />
</g>
<g id="#b7b8c0ff">
<path fill="#b7b8c0" opacity="1.00" d=" M 308.94 284.99 C 311.98 285.03 314.97 285.01 318.03 285.07 C 321.35 284.75 325.08 285.76 325.00 289.82 C 319.25 291.52 306.05 294.70 308.94 284.99 Z" />
</g>
<g id="#a2e2fdff">
<path fill="#a2e2fd" opacity="1.00" d=" M 302.99 287.88 C 309.64 283.87 309.38 295.48 302.83 293.60 C 302.90 291.69 302.96 289.78 302.99 287.88 Z" />
</g>
<g id="#f6f5f8ff">
<path fill="#f6f5f8" opacity="1.00" d=" M 375.07 287.21 C 379.60 289.11 388.55 284.47 390.31 289.62 C 386.32 289.19 382.30 289.61 378.32 289.85 C 378.27 287.11 374.00 290.24 375.07 287.21 Z" />
</g>
<g id="#9f9fa7ff">
<path fill="#9f9fa7" opacity="1.00" d=" M 296.88 289.04 C 297.96 288.75 300.39 286.89 300.80 288.62 C 303.30 295.73 297.53 302.36 290.48 301.04 C 291.76 299.48 294.15 298.31 294.06 296.01 C 294.37 293.47 290.10 292.90 291.13 290.26 C 292.51 288.28 295.14 290.43 296.88 289.04 Z" />
</g>
<g id="#cfcdd5ff">
<path fill="#cfcdd5" opacity="1.00" d=" M 328.81 291.48 C 321.99 290.82 330.50 286.00 329.98 291.29 L 328.81 291.48 Z" />
</g>
<g id="#a1a796ff">
<path fill="#a1a796" opacity="1.00" d=" M 408.99 289.72 C 411.20 289.41 413.43 289.20 415.68 289.10 C 418.71 292.17 425.46 289.82 430.01 290.90 L 430.70 291.17 L 431.23 291.77 C 431.64 292.12 432.47 292.84 432.88 293.20 C 432.92 293.89 432.99 295.28 433.03 295.98 C 429.96 296.38 425.89 294.75 423.82 297.69 C 425.41 298.24 428.78 297.24 428.01 299.97 C 429.53 304.29 414.64 297.51 418.64 302.39 C 419.76 304.35 422.61 303.46 424.40 304.57 C 422.63 304.65 419.10 304.82 417.33 304.90 C 415.78 304.67 412.67 304.21 411.11 303.98 C 418.32 298.65 394.90 302.73 409.90 299.84 C 412.81 298.02 428.40 299.52 420.01 294.94 C 414.66 293.88 403.90 300.75 401.53 292.95 C 398.25 297.30 392.45 297.05 392.29 290.98 C 397.86 290.73 403.59 291.63 408.99 289.72 Z" />
</g>
<g id="#acb1a4ff">
<path fill="#acb1a4" opacity="1.00" d=" M 348.17 292.04 C 361.59 290.10 375.73 292.37 389.32 291.14 C 386.92 294.69 379.81 289.29 382.58 296.08 C 369.89 294.64 355.57 299.11 344.84 293.25 C 345.97 292.89 347.08 292.49 348.17 292.04 Z" />
</g>
<g id="#6a6969ff">
<path fill="#6a6969" opacity="1.00" d=" M 252.30 292.10 C 255.52 292.32 258.68 292.79 261.90 293.17 C 262.98 296.40 258.92 294.27 257.15 294.49 C 256.62 296.32 256.25 298.18 255.85 300.04 C 253.82 302.86 256.65 306.16 259.76 305.88 C 259.05 307.24 258.34 308.59 257.62 309.95 C 252.79 310.05 245.94 305.05 243.19 311.19 C 241.99 309.25 240.86 307.24 239.27 305.61 C 237.09 302.58 240.96 299.29 237.90 296.78 C 238.23 296.52 238.88 296.01 239.20 295.75 C 240.89 296.69 242.40 297.90 244.04 298.92 C 245.33 296.86 242.28 295.65 241.53 293.97 C 245.11 293.32 248.70 292.70 252.30 292.10 Z" />
</g>
<g id="#9da096ff">
<path fill="#9da096" opacity="1.00" d=" M 310.37 292.35 C 318.33 289.77 324.26 294.30 331.08 292.97 C 331.22 298.97 323.17 298.16 320.19 294.76 C 318.88 292.78 312.76 293.07 314.83 296.03 C 313.57 298.79 303.80 294.19 310.37 292.35 Z" />
</g>
<g id="#72756ff0">
<path fill="#72756f" opacity="0.94" d=" M 431.23 291.77 C 432.66 291.88 435.53 292.10 436.96 292.21 L 436.92 296.73 C 435.58 296.92 432.90 297.29 431.56 297.48 C 429.67 304.10 426.18 309.02 418.02 305.93 L 416.98 305.89 L 417.33 304.90 C 419.10 304.82 422.63 304.65 424.40 304.57 C 422.61 303.46 419.76 304.35 418.64 302.39 C 414.64 297.51 429.53 304.29 428.01 299.97 C 428.78 297.24 425.41 298.24 423.82 297.69 C 425.89 294.75 429.96 296.38 433.03 295.98 C 437.16 297.47 436.94 291.40 432.88 293.20 C 432.47 292.84 431.64 292.12 431.23 291.77 Z" />
</g>
<g id="#dbdbe1ff">
<path fill="#dbdbe1" opacity="1.00" d=" M 432.88 293.20 C 436.94 291.40 437.16 297.47 433.03 295.98 C 432.99 295.28 432.92 293.89 432.88 293.20 Z" />
</g>
<g id="#0000000b">
<path fill="#000000" opacity="0.04" d=" M 188.44 294.11 C 191.49 298.18 195.39 302.16 200.04 304.11 C 200.50 304.35 201.41 304.83 201.86 305.06 C 203.64 307.65 205.56 310.14 207.81 312.34 C 209.36 312.51 212.46 312.84 214.01 313.00 C 216.90 314.18 220.53 313.59 222.87 315.91 C 223.55 316.94 224.24 317.97 224.90 319.02 C 224.58 322.62 226.88 325.34 229.06 327.88 C 229.23 330.63 228.26 333.75 229.81 336.22 C 231.67 338.91 234.97 339.98 237.90 341.08 C 240.63 341.86 243.54 342.30 246.30 341.44 C 251.89 339.76 259.73 338.78 261.23 332.11 L 261.98 331.90 C 264.88 333.16 267.27 332.90 269.14 331.11 C 269.57 331.04 270.43 330.92 270.86 330.85 C 272.31 331.38 274.06 331.41 275.16 330.15 L 275.89 329.77 C 277.19 330.14 278.51 330.24 279.86 330.08 C 288.19 331.00 295.12 326.03 303.89 327.23 C 305.56 332.26 303.59 337.10 302.99 342.05 C 302.39 345.78 306.81 349.98 302.44 352.56 C 302.34 365.33 299.07 377.51 298.41 390.18 C 289.66 400.84 298.63 415.99 291.52 427.45 C 291.94 433.27 296.08 444.35 288.08 445.21 C 288.11 448.55 289.25 451.79 291.26 454.45 C 290.46 457.59 288.28 460.45 288.26 463.75 C 292.01 468.20 286.87 473.98 288.35 479.07 C 283.96 482.18 285.41 488.64 285.42 493.55 C 282.54 497.67 278.13 505.32 286.19 502.05 C 284.18 505.27 281.81 508.29 280.70 512.00 L 274.38 512.00 C 274.50 505.77 265.90 511.71 266.93 505.24 C 276.36 508.32 270.22 500.07 273.67 496.12 C 272.40 495.02 268.41 492.90 271.89 492.38 C 276.55 494.54 277.67 485.85 272.07 487.76 C 274.26 480.05 275.55 471.34 279.13 464.34 C 272.53 461.27 280.65 458.69 278.84 454.41 C 273.34 449.15 285.10 447.71 282.25 443.89 C 273.81 442.17 281.45 432.32 280.81 426.92 C 280.42 422.86 285.73 421.24 285.08 417.15 C 283.46 415.26 280.80 414.60 279.10 412.75 C 278.60 410.10 280.92 408.11 281.92 405.87 C 277.77 406.49 274.09 404.22 280.05 401.01 C 285.71 398.91 278.82 393.86 282.93 390.17 C 278.30 388.34 270.85 393.15 268.56 396.85 C 274.27 401.85 266.50 409.73 261.03 406.85 C 264.87 402.55 259.20 399.58 261.20 395.29 C 263.50 393.69 267.29 394.20 265.99 390.19 C 261.96 391.67 259.51 387.97 256.07 386.83 C 256.15 389.29 258.48 394.49 254.07 393.98 C 248.97 393.72 256.66 387.89 252.07 387.87 C 248.30 386.82 255.00 381.85 251.36 381.36 C 249.10 383.39 245.37 386.63 248.16 389.75 C 249.95 391.75 246.09 390.73 245.01 391.24 C 243.78 396.65 253.22 394.66 252.62 400.09 C 252.21 404.33 258.28 405.26 258.20 409.94 C 250.99 413.87 254.01 402.10 248.10 404.01 C 245.50 404.62 243.83 407.69 246.93 409.08 C 250.92 411.99 243.84 417.46 241.67 413.31 C 239.93 407.78 244.93 401.97 244.91 396.23 C 243.73 394.48 241.61 395.82 239.94 395.77 C 239.19 392.55 242.54 391.12 244.13 388.91 C 240.49 389.92 233.90 392.16 236.96 397.02 C 238.11 400.56 238.42 410.05 232.63 407.43 C 230.64 407.26 231.55 405.36 231.54 404.05 C 225.64 404.79 219.80 403.43 213.85 404.88 C 214.13 402.56 218.57 401.25 216.14 398.89 C 212.67 395.68 214.97 390.92 214.78 386.86 C 211.46 389.43 207.96 393.35 203.26 393.73 C 200.76 391.50 198.65 388.54 196.43 392.70 C 192.83 386.84 194.46 393.77 195.68 397.13 C 195.15 402.04 186.11 399.01 186.03 403.64 C 191.61 403.10 192.20 410.53 188.56 413.41 C 188.46 418.52 192.93 422.81 197.72 424.50 C 195.46 428.73 198.84 438.01 190.92 435.21 C 190.25 439.16 198.92 435.26 196.40 439.35 C 195.79 443.30 188.30 436.15 191.39 444.53 C 189.78 448.15 192.89 449.14 193.45 445.18 C 197.72 446.42 195.15 453.95 192.86 456.90 C 190.83 459.50 193.23 465.72 196.75 462.79 C 200.28 461.29 195.93 465.60 194.27 465.53 C 194.88 470.43 194.34 475.28 193.34 480.13 C 192.39 484.54 197.40 489.03 193.85 492.82 C 191.47 495.91 196.64 499.14 193.13 502.12 C 195.99 504.77 197.90 508.00 198.26 512.00 L 185.18 512.00 C 185.29 508.41 184.87 504.37 181.41 502.55 C 177.95 500.39 181.37 496.21 182.86 493.86 C 182.68 485.57 180.20 477.19 182.67 469.03 C 179.80 465.63 180.77 461.15 180.46 457.06 C 183.79 452.59 187.49 441.20 180.09 439.51 C 181.13 437.61 186.82 434.76 182.07 433.98 C 175.67 432.58 183.91 423.84 177.82 422.11 C 173.42 417.27 185.96 420.92 180.15 414.56 C 178.12 412.15 181.91 406.36 177.64 406.61 C 173.69 406.75 177.15 401.71 179.91 401.85 C 175.19 396.19 177.34 388.73 178.97 382.25 C 172.52 378.52 175.82 370.15 178.77 364.97 C 175.71 361.38 175.32 355.28 178.48 351.66 C 178.06 348.14 175.06 345.24 175.37 341.46 C 174.02 337.45 179.18 334.32 176.07 330.02 C 176.80 326.90 171.93 322.16 176.57 320.55 C 180.31 318.54 180.25 315.02 176.17 313.65 C 177.61 305.96 184.47 300.67 188.44 294.11 Z" />
</g>
<g id="#ba8c71ff">
<path fill="#ba8c71" opacity="1.00" d=" M 227.89 306.06 C 227.16 301.41 232.24 296.90 236.32 296.62 C 234.46 300.41 232.42 305.05 227.89 306.06 Z" />
</g>
<g id="#a9af9aff">
<path fill="#a9af9a" opacity="1.00" d=" M 255.85 300.04 C 257.84 294.40 264.54 296.07 268.91 297.87 C 269.76 299.69 270.00 301.68 270.02 303.67 C 266.61 304.48 263.10 304.84 259.76 305.88 C 256.65 306.16 253.82 302.86 255.85 300.04 Z" />
</g>
<g id="#424140ff">
<path fill="#424140" opacity="1.00" d=" M 236.32 296.62 C 236.72 296.66 237.51 296.74 237.90 296.78 C 240.96 299.29 237.09 302.58 239.27 305.61 C 238.26 306.14 237.24 306.66 236.23 307.17 C 231.65 308.56 227.01 309.93 222.27 310.52 C 219.23 307.73 212.08 306.16 215.66 300.65 C 220.01 297.99 220.59 305.31 222.15 307.97 C 224.11 307.49 225.99 306.72 227.89 306.06 C 232.42 305.05 234.46 300.41 236.32 296.62 Z" />
</g>
<g id="#b1b5a9ff">
<path fill="#b1b5a9" opacity="1.00" d=" M 348.39 298.52 C 366.33 297.86 384.29 298.25 402.22 298.18 C 392.88 302.54 380.74 300.55 370.13 300.28 C 348.06 302.37 326.07 300.79 303.94 301.97 C 304.37 296.37 311.38 301.00 314.88 299.27 C 325.99 299.59 337.24 298.81 348.39 298.52 Z" />
</g>
<g id="#544540fc">
<path fill="#544540" opacity="1.00" d=" M 292.90 303.25 C 294.97 302.96 297.35 300.61 299.12 302.72 C 302.05 304.59 300.28 306.62 298.11 308.19 C 291.99 308.16 285.76 307.46 279.70 308.63 C 275.47 309.23 271.38 310.42 267.19 311.21 C 264.07 310.48 260.82 308.53 257.62 309.95 C 258.34 308.59 259.05 307.24 259.76 305.88 C 263.10 304.84 266.61 304.48 270.02 303.67 C 274.25 301.72 276.77 307.79 281.23 305.94 C 283.93 304.89 286.39 304.74 288.99 306.07 C 291.39 308.81 297.67 303.92 292.90 303.25 Z" />
</g>
<g id="#5a5958fc">
<path fill="#5a5958" opacity="1.00" d=" M 299.12 302.72 C 302.97 303.53 307.26 303.83 310.00 306.98 C 311.80 305.79 313.37 304.28 315.28 303.28 C 324.26 304.35 333.21 302.86 342.20 303.00 C 334.48 313.39 323.19 327.76 308.76 323.86 C 308.33 323.97 307.48 324.20 307.05 324.31 C 305.37 323.68 303.54 323.32 301.77 323.80 C 300.38 321.23 299.08 318.61 298.04 315.90 C 297.76 314.84 297.48 313.79 297.19 312.75 L 297.08 312.16 C 299.48 312.41 298.56 310.46 298.20 309.01 L 298.11 308.19 C 300.28 306.62 302.05 304.59 299.12 302.72 M 312.29 310.18 C 308.75 312.35 311.63 316.94 309.13 320.11 C 313.68 318.82 319.39 319.36 322.84 315.77 C 324.84 309.44 316.24 309.02 312.29 310.18 Z" />
</g>
<g id="#0000001b">
<path fill="#000000" opacity="0.11" d=" M 342.20 303.00 C 346.37 302.95 350.89 302.84 354.24 305.71 C 356.27 306.98 358.94 306.98 361.24 307.71 C 355.21 306.08 352.47 311.54 348.85 314.85 C 344.83 325.01 342.05 335.65 336.15 345.13 C 333.54 349.39 335.16 355.45 330.35 358.38 C 325.98 366.37 325.95 377.64 316.90 382.90 C 319.50 385.38 320.51 387.82 318.25 390.82 C 322.88 396.69 313.32 394.24 310.43 392.59 C 309.93 386.84 304.85 379.04 310.59 374.58 C 314.01 372.26 308.64 369.76 308.13 367.06 C 309.58 363.46 314.44 359.14 309.36 356.56 C 310.25 345.83 313.12 334.32 308.76 323.86 C 323.19 327.76 334.48 313.39 342.20 303.00 Z" />
</g>
<g id="#c0bec5ff">
<path fill="#c0bec5" opacity="1.00" d=" M 391.36 304.14 C 395.76 302.44 400.46 304.64 404.99 304.18 C 403.92 308.57 394.76 304.70 391.06 306.58 L 390.20 306.63 C 388.07 305.80 382.02 304.45 391.36 304.14 Z" />
</g>
<g id="#d1cfd4ff">
<path fill="#d1cfd4" opacity="1.00" d=" M 411.11 303.98 C 412.67 304.21 415.78 304.67 417.33 304.90 L 416.98 305.89 C 416.19 305.95 414.59 306.08 413.80 306.14 C 411.81 306.05 408.66 306.43 411.11 303.98 Z" />
</g>
<g id="#5f625af2">
<path fill="#5f625a" opacity="0.95" d=" M 354.24 305.71 C 360.21 305.70 366.15 306.12 372.11 306.63 C 370.74 306.97 370.27 308.24 369.71 309.36 C 369.31 309.18 368.51 308.80 368.11 308.62 C 366.58 308.43 363.52 308.05 361.98 307.86 L 361.24 307.71 C 358.94 306.98 356.27 306.98 354.24 305.71 Z" />
</g>
<g id="#c39073ff">
<path fill="#c39073" opacity="1.00" d=" M 236.23 307.17 C 237.24 306.66 238.26 306.14 239.27 305.61 C 240.86 307.24 241.99 309.25 243.19 311.19 L 242.76 311.95 C 238.25 315.55 230.78 323.56 224.90 319.02 C 224.24 317.97 223.55 316.94 222.87 315.91 C 223.51 309.11 233.46 312.88 236.23 307.17 Z" />
</g>
<g id="#434244d1">
<path fill="#434244" opacity="0.82" d=" M 413.80 306.14 C 414.59 306.08 416.19 305.95 416.98 305.89 L 418.02 305.93 C 417.53 307.94 416.86 309.88 416.02 311.72 C 415.42 309.80 414.53 308.00 413.80 306.14 Z" />
</g>
<g id="#454642ac">
<path fill="#454642" opacity="0.67" d=" M 369.71 309.36 C 370.27 308.24 370.74 306.97 372.11 306.63 C 375.48 306.96 378.82 307.10 382.23 307.24 C 379.60 307.51 374.33 308.03 371.69 308.30 C 373.53 309.25 375.42 310.08 377.31 310.94 C 376.94 311.15 376.20 311.57 375.83 311.78 C 373.58 311.63 371.67 310.31 369.71 309.36 Z" />
</g>
<g id="#0707072b">
<path fill="#070707" opacity="0.17" d=" M 382.23 307.24 C 383.75 307.15 385.28 307.09 386.81 307.04 C 387.58 307.63 388.35 308.22 389.13 308.81 C 385.29 310.09 381.55 311.88 377.31 310.94 C 375.42 310.08 373.53 309.25 371.69 308.30 C 374.33 308.03 379.60 307.51 382.23 307.24 Z" />
</g>
<g id="#333131c9">
<path fill="#333131" opacity="0.79" d=" M 386.81 307.04 C 387.66 306.94 389.35 306.73 390.20 306.63 L 391.06 306.58 C 392.72 308.82 391.49 309.28 389.13 308.81 C 388.35 308.22 387.58 307.63 386.81 307.04 Z" />
</g>
<g id="#464240fb">
<path fill="#464240" opacity="1.00" d=" M 243.19 311.19 C 245.94 305.05 252.79 310.05 257.62 309.95 C 257.31 314.32 261.89 312.88 264.96 313.15 L 266.04 313.22 C 261.09 314.52 253.97 311.72 250.85 316.97 C 246.74 319.09 241.94 317.15 242.76 311.95 L 243.19 311.19 Z" />
</g>
<g id="#281f1bb9">
<path fill="#281f1b" opacity="0.73" d=" M 279.70 308.63 C 285.76 307.46 291.99 308.16 298.11 308.19 L 298.20 309.01 C 292.03 309.02 285.86 308.93 279.70 308.63 Z" />
</g>
<g id="#303031a1">
<path fill="#303031" opacity="0.63" d=" M 361.98 307.86 C 363.52 308.05 366.58 308.43 368.11 308.62 C 367.70 308.83 366.87 309.26 366.45 309.47 C 364.78 309.72 363.02 309.22 361.98 307.86 Z" />
</g>
<g id="#d9d7deff">
<path fill="#d9d7de" opacity="1.00" d=" M 398.02 308.06 C 400.61 308.10 405.40 306.70 403.98 310.94 C 401.38 310.89 396.60 312.29 398.02 308.06 Z" />
</g>
<g id="#0c0908bc">
<path fill="#0c0908" opacity="0.74" d=" M 257.62 309.95 C 260.82 308.53 264.07 310.48 267.19 311.21 C 266.44 311.84 265.69 312.49 264.96 313.15 C 261.89 312.88 257.31 314.32 257.62 309.95 Z" />
</g>
<g id="#03020227">
<path fill="#030202" opacity="0.15" d=" M 267.19 311.21 C 271.38 310.42 275.47 309.23 279.70 308.63 C 285.86 308.93 292.03 309.02 298.20 309.01 C 298.56 310.46 299.48 312.41 297.08 312.16 C 295.36 311.57 293.44 311.65 291.93 312.73 C 291.28 312.88 289.97 313.18 289.31 313.33 C 282.80 313.06 276.29 312.93 269.78 313.22 C 269.09 313.22 267.70 313.23 267.01 313.24 L 266.04 313.22 L 264.96 313.15 C 265.69 312.49 266.44 311.84 267.19 311.21 Z" />
</g>
<g id="#6b6b6cff">
<path fill="#6b6b6c" opacity="1.00" d=" M 312.29 310.18 C 316.24 309.02 324.84 309.44 322.84 315.77 C 319.39 319.36 313.68 318.82 309.13 320.11 C 311.63 316.94 308.75 312.35 312.29 310.18 Z" />
</g>
<g id="#302f2ea7">
<path fill="#302f2e" opacity="0.65" d=" M 207.81 312.34 C 209.36 312.51 212.46 312.84 214.01 313.00 C 212.46 312.84 209.36 312.51 207.81 312.34 Z" />
</g>
<g id="#5a5856fc">
<path fill="#5a5856" opacity="1.00" d=" M 224.90 319.02 C 230.78 323.56 238.25 315.55 242.76 311.95 C 241.94 317.15 246.74 319.09 250.85 316.97 C 249.10 324.13 251.07 335.69 261.23 332.11 C 259.73 338.78 251.89 339.76 246.30 341.44 C 243.49 341.34 240.69 341.22 237.90 341.08 C 234.97 339.98 231.67 338.91 229.81 336.22 C 229.62 333.40 230.98 330.18 229.06 327.88 C 226.88 325.34 224.58 322.62 224.90 319.02 Z" />
</g>
<g id="#33251b8b">
<path fill="#33251b" opacity="0.55" d=" M 291.93 312.73 C 293.44 311.65 295.36 311.57 297.08 312.16 L 297.19 312.75 C 295.48 313.36 293.65 313.16 291.93 312.73 Z" />
</g>
<g id="#3a3a3c89">
<path fill="#3a3a3c" opacity="0.54" d=" M 378.01 312.01 C 380.77 312.09 383.54 312.18 386.32 312.28 C 383.53 312.92 380.62 312.78 377.81 312.91 L 378.01 312.01 Z" />
</g>
<g id="#616267fa">
<path fill="#616267" opacity="0.98" d=" M 390.99 312.51 C 394.23 312.12 396.73 316.41 399.81 313.87 C 404.91 310.29 410.42 315.21 415.50 312.38 C 414.81 314.06 415.70 317.05 413.27 317.34 C 408.74 317.21 404.23 317.18 399.73 317.02 L 398.90 316.87 C 396.58 315.24 394.35 314.98 392.21 316.11 C 391.80 314.91 391.39 313.70 390.99 312.51 Z" />
</g>
<g id="#966e55fe">
<path fill="#966e55" opacity="1.00" d=" M 266.04 313.22 L 267.01 313.24 L 267.20 314.26 C 261.87 315.90 256.25 315.65 250.85 316.97 C 253.97 311.72 261.09 314.52 266.04 313.22 Z" />
</g>
<g id="#a77b5efc">
<path fill="#a77b5e" opacity="1.00" d=" M 267.01 313.24 C 267.70 313.23 269.09 313.22 269.78 313.22 C 276.22 313.76 282.94 314.99 289.31 313.33 C 289.97 313.18 291.28 312.88 291.93 312.73 C 293.65 313.16 295.48 313.36 297.19 312.75 C 297.48 313.79 297.76 314.84 298.04 315.90 C 287.88 313.43 277.32 317.58 267.20 314.26 L 267.01 313.24 Z" />
</g>
<g id="#654836d9">
<path fill="#654836" opacity="0.85" d=" M 269.78 313.22 C 276.29 312.93 282.80 313.06 289.31 313.33 C 282.94 314.99 276.22 313.76 269.78 313.22 Z" />
</g>
<g id="#ce9b7cfe">
<path fill="#ce9b7c" opacity="1.00" d=" M 267.20 314.26 C 277.32 317.58 287.88 313.43 298.04 315.90 C 299.08 318.61 300.38 321.23 301.77 323.80 C 301.59 324.14 301.22 324.83 301.04 325.17 C 300.31 325.17 298.84 325.17 298.11 325.17 C 296.38 324.61 294.35 324.46 292.93 325.80 C 288.70 327.30 284.27 328.16 279.95 329.29 C 278.63 328.47 276.98 328.74 275.89 329.77 L 275.16 330.15 C 273.71 329.60 271.93 329.54 270.86 330.85 C 270.43 330.92 269.57 331.04 269.14 331.11 C 266.20 329.80 263.82 330.07 261.98 331.90 L 261.23 332.11 C 251.07 335.69 249.10 324.13 250.85 316.97 C 256.25 315.65 261.87 315.90 267.20 314.26 Z" />
</g>
<g id="#1717177a">
<path fill="#171717" opacity="0.48" d=" M 392.21 316.11 C 394.35 314.98 396.58 315.24 398.90 316.87 C 396.31 318.07 394.08 317.81 392.21 316.11 Z" />
</g>
<g id="#3d3e41c0">
<path fill="#3d3e41" opacity="0.75" d=" M 399.73 317.02 C 404.23 317.18 408.74 317.21 413.27 317.34 C 408.93 318.97 404.09 317.81 399.73 317.02 Z" />
</g>
<g id="#332c279b">
<path fill="#332c27" opacity="0.61" d=" M 301.04 325.17 C 301.22 324.83 301.59 324.14 301.77 323.80 C 303.54 323.32 305.37 323.68 307.05 324.31 C 305.55 324.53 302.55 324.96 301.04 325.17 Z" />
</g>
<g id="#735440c9">
<path fill="#735440" opacity="0.79" d=" M 292.93 325.80 C 294.35 324.46 296.38 324.61 298.11 325.17 C 296.70 326.56 294.65 326.36 292.93 325.80 Z" />
</g>
<g id="#2a2927ad">
<path fill="#2a2927" opacity="0.68" d=" M 229.06 327.88 C 230.98 330.18 229.62 333.40 229.81 336.22 C 228.26 333.75 229.23 330.63 229.06 327.88 Z" />
</g>
<g id="#5b4334ad">
<path fill="#5b4334" opacity="0.68" d=" M 275.89 329.77 C 276.98 328.74 278.63 328.47 279.95 329.29 L 279.86 330.08 C 278.51 330.24 277.19 330.14 275.89 329.77 Z" />
</g>
<g id="#614435b7">
<path fill="#614435" opacity="0.72" d=" M 270.86 330.85 C 271.93 329.54 273.71 329.60 275.16 330.15 C 274.06 331.41 272.31 331.38 270.86 330.85 Z" />
</g>
<g id="#7a5744d1">
<path fill="#7a5744" opacity="0.82" d=" M 261.98 331.90 C 263.82 330.07 266.20 329.80 269.14 331.11 C 267.27 332.90 264.88 333.16 261.98 331.90 Z" />
</g>
<g id="#2f2e2d9c">
<path fill="#2f2e2d" opacity="0.61" d=" M 237.90 341.08 C 240.69 341.22 243.49 341.34 246.30 341.44 C 243.54 342.30 240.63 341.86 237.90 341.08 Z" />
</g>
</svg>
