<?xml version="1.0" encoding="UTF-8" ?>
<!DOCTYPE svg PUBLIC "-//W3C//DTD SVG 1.1//EN" "http://www.w3.org/Graphics/SVG/1.1/DTD/svg11.dtd">
<svg width="512pt" height="512pt" viewBox="0 0 512 512" version="1.1" xmlns="http://www.w3.org/2000/svg">
<g id="#4f504fff">
<path fill="#4f504f" opacity="1.00" d=" M 262.61 209.64 C 265.58 209.60 268.62 209.02 271.55 209.67 C 275.13 211.37 278.47 213.61 282.32 214.72 C 278.55 216.70 274.47 214.77 270.52 215.37 C 269.38 215.02 268.25 214.67 267.12 214.32 C 267.66 215.76 268.21 217.20 268.76 218.65 C 269.13 223.61 270.96 228.26 272.98 232.76 C 271.64 231.82 270.30 230.89 268.98 229.94 C 262.61 224.70 254.26 221.11 245.92 222.82 C 241.81 224.70 238.72 228.46 234.13 229.45 C 235.18 226.91 236.25 224.39 237.22 221.82 C 233.62 224.69 230.58 228.19 227.98 231.98 C 225.06 236.13 224.79 241.43 224.59 246.34 C 224.33 250.51 226.72 254.18 227.26 258.24 C 224.37 255.43 222.41 251.86 220.82 248.20 C 222.14 240.78 219.95 232.72 223.68 225.81 C 224.44 224.30 225.33 222.86 226.21 221.43 C 231.48 222.09 236.78 221.23 241.87 219.85 C 247.67 218.31 253.79 217.78 259.28 215.21 C 261.06 213.89 261.52 211.48 262.61 209.64 Z" />
</g>
<g id="#98948bff">
<path fill="#98948b" opacity="1.00" d=" M 267.12 214.32 C 268.25 214.67 269.38 215.02 270.52 215.37 C 273.23 219.98 276.88 224.15 278.57 229.30 C 279.78 234.94 278.48 240.76 277.33 246.30 C 274.90 243.15 275.37 238.99 274.82 235.28 C 274.29 229.33 273.57 222.81 268.76 218.65 C 268.21 217.20 267.66 215.76 267.12 214.32 Z" />
</g>
<g id="#616260ff">
<path fill="#616260" opacity="1.00" d=" M 270.52 215.37 C 274.47 214.77 278.55 216.70 282.32 214.72 C 288.51 216.50 290.23 223.58 294.84 227.39 C 288.76 226.46 288.67 218.78 283.28 216.70 C 284.30 224.84 287.78 232.67 287.17 240.99 C 286.94 245.34 286.44 249.67 286.14 254.02 C 284.69 252.16 283.18 250.24 281.12 249.04 C 278.83 248.19 276.32 248.49 273.92 248.35 C 276.92 250.57 279.62 253.30 280.43 257.08 C 279.15 257.22 277.88 257.35 276.61 257.49 C 278.66 260.52 281.74 262.48 285.03 263.96 C 284.62 261.07 284.46 258.15 284.59 255.24 C 285.21 255.42 286.44 255.78 287.06 255.96 C 287.35 256.07 287.94 256.28 288.24 256.39 C 291.23 247.17 292.58 237.46 291.48 227.79 C 293.36 233.75 293.39 240.08 293.27 246.27 C 292.96 248.94 292.14 251.51 291.56 254.13 C 291.25 256.07 291.08 258.03 290.90 259.98 C 294.89 259.67 298.82 258.81 302.63 257.57 C 302.98 255.64 303.37 253.71 303.67 251.77 C 303.63 254.66 303.65 257.55 303.60 260.45 C 299.03 262.04 294.46 263.66 289.77 264.90 C 289.28 262.26 289.32 259.55 289.63 256.89 C 285.84 259.45 286.37 264.13 286.20 268.13 C 285.15 267.76 284.11 267.37 283.08 266.97 C 280.48 265.09 278.01 262.87 274.81 262.11 C 272.22 261.59 269.61 261.20 267.01 260.76 C 266.45 259.18 265.91 257.60 265.38 256.02 C 264.27 257.46 263.39 259.17 261.89 260.26 C 259.13 261.33 256.63 258.94 255.24 256.82 C 252.57 252.73 250.46 248.31 247.92 244.15 C 254.16 247.17 260.24 250.95 267.27 251.78 C 266.52 248.75 264.63 246.28 262.35 244.23 C 263.97 243.96 265.60 243.68 267.23 243.38 C 265.71 242.31 264.09 241.22 262.14 241.38 C 258.23 241.38 254.37 240.65 250.68 239.37 C 251.99 241.34 253.28 243.32 254.59 245.29 C 250.66 243.57 246.54 241.38 242.10 242.29 C 239.81 243.39 237.56 244.58 235.30 245.75 C 234.68 246.07 233.45 246.69 232.83 247.01 C 235.50 240.09 241.85 234.89 249.24 233.92 C 254.47 232.52 259.77 234.25 264.43 236.62 C 265.89 238.38 267.24 240.23 268.66 242.04 C 271.97 238.72 268.99 233.90 268.98 229.94 C 270.30 230.89 271.64 231.82 272.98 232.76 C 270.96 228.26 269.13 223.61 268.76 218.65 C 273.57 222.81 274.29 229.33 274.82 235.28 C 275.37 238.99 274.90 243.15 277.33 246.30 C 278.48 240.76 279.78 234.94 278.57 229.30 C 276.88 224.15 273.23 219.98 270.52 215.37 Z" />
</g>
<g id="#86877dff">
<path fill="#86877d" opacity="1.00" d=" M 283.28 216.70 C 288.67 218.78 288.76 226.46 294.84 227.39 C 295.37 227.61 296.44 228.04 296.97 228.26 C 301.14 229.84 305.03 232.24 307.61 235.96 C 305.43 240.97 303.70 246.25 303.67 251.77 C 303.37 253.71 302.98 255.64 302.63 257.57 C 298.82 258.81 294.89 259.67 290.90 259.98 C 291.08 258.03 291.25 256.07 291.56 254.13 C 293.47 255.06 295.50 256.52 297.74 255.84 C 300.07 255.42 301.49 253.05 301.59 250.82 C 301.81 247.00 301.33 243.14 300.33 239.46 C 299.57 236.69 296.72 235.42 294.61 233.80 C 294.07 237.95 293.76 242.12 293.27 246.27 C 293.39 240.08 293.36 233.75 291.48 227.79 C 292.58 237.46 291.23 247.17 288.24 256.39 C 287.94 256.28 287.35 256.07 287.06 255.96 C 286.83 255.48 286.37 254.51 286.14 254.02 C 286.44 249.67 286.94 245.34 287.17 240.99 C 287.78 232.67 284.30 224.84 283.28 216.70 Z" />
</g>
<g id="#5c5e5dff">
<path fill="#5c5e5d" opacity="1.00" d=" M 213.76 224.76 C 216.32 220.95 221.03 219.12 225.48 218.90 C 225.66 219.53 226.03 220.80 226.21 221.43 C 225.33 222.86 224.44 224.30 223.68 225.81 C 219.95 232.72 222.14 240.78 220.82 248.20 C 219.64 245.75 218.49 243.13 218.90 240.34 C 219.39 235.60 219.69 230.84 219.61 226.07 C 218.31 226.60 217.01 227.12 215.72 227.65 C 214.51 232.34 212.70 237.21 213.82 242.11 C 214.81 246.56 216.47 250.99 219.42 254.53 C 221.74 257.57 224.91 260.20 225.90 264.04 C 227.11 268.64 227.09 273.45 227.97 278.11 C 226.53 275.57 225.18 272.97 223.49 270.59 C 222.67 269.38 221.88 268.16 221.04 266.97 C 217.82 260.40 210.24 256.60 208.96 249.05 C 208.08 244.45 206.70 239.92 204.13 235.96 C 207.55 232.41 210.88 228.76 213.76 224.76 Z" />
</g>
<g id="#777773ff">
<path fill="#777773" opacity="1.00" d=" M 227.98 231.98 C 230.58 228.19 233.62 224.69 237.22 221.82 C 236.25 224.39 235.18 226.91 234.13 229.45 C 238.72 228.46 241.81 224.70 245.92 222.82 C 254.26 221.11 262.61 224.70 268.98 229.94 C 268.99 233.90 271.97 238.72 268.66 242.04 C 267.24 240.23 265.89 238.38 264.43 236.62 C 259.99 230.12 251.47 228.47 244.12 228.27 C 238.48 227.88 234.79 232.70 231.45 236.47 C 228.16 240.01 227.51 244.98 227.45 249.62 C 228.58 250.00 229.72 250.38 230.86 250.77 C 231.52 249.52 232.18 248.26 232.83 247.01 C 233.45 246.69 234.68 246.07 235.30 245.75 C 237.39 251.81 231.53 256.18 230.72 261.83 C 230.00 265.98 228.94 270.72 231.45 274.50 C 233.84 278.51 238.07 280.80 241.97 283.09 C 244.72 284.60 247.54 286.46 250.80 286.39 C 255.41 286.35 260.00 286.69 264.56 287.34 C 259.27 284.18 252.94 283.37 247.82 279.86 C 247.77 278.54 247.71 277.22 247.63 275.91 C 254.46 278.40 261.07 281.48 267.97 283.79 C 267.66 286.90 267.65 290.05 268.00 293.17 C 269.67 290.71 270.89 288.00 271.99 285.24 C 270.92 284.84 269.86 284.44 268.80 284.07 C 269.44 284.14 270.73 284.29 271.37 284.36 C 271.24 283.97 270.98 283.18 270.85 282.79 C 271.23 281.57 271.68 280.37 272.12 279.17 C 275.22 278.17 278.36 277.03 280.91 274.93 C 279.93 274.45 278.95 273.97 277.98 273.50 C 279.22 269.29 277.44 265.34 274.81 262.11 C 278.01 262.87 280.48 265.09 283.08 266.97 C 282.86 271.85 283.80 278.93 278.13 281.14 C 274.97 282.17 274.55 285.58 273.56 288.28 C 272.21 292.40 268.92 295.41 266.19 298.62 C 264.43 297.03 262.10 296.45 259.84 296.02 C 259.65 295.61 259.28 294.80 259.09 294.40 C 254.70 293.17 250.35 291.77 246.09 290.13 C 239.32 287.60 231.91 284.54 227.97 278.11 C 227.09 273.45 227.11 268.64 225.90 264.04 C 224.91 260.20 221.74 257.57 219.42 254.53 C 216.47 250.99 214.81 246.56 213.82 242.11 C 212.70 237.21 214.51 232.34 215.72 227.65 C 217.01 227.12 218.31 226.60 219.61 226.07 C 219.69 230.84 219.39 235.60 218.90 240.34 C 218.49 243.13 219.64 245.75 220.82 248.20 C 222.41 251.86 224.37 255.43 227.26 258.24 C 226.72 254.18 224.33 250.51 224.59 246.34 C 224.79 241.43 225.06 236.13 227.98 231.98 Z" />
</g>
<g id="#52524cff">
<path fill="#52524c" opacity="1.00" d=" M 313.05 227.54 C 313.94 227.58 314.83 227.62 315.73 227.70 C 313.97 229.04 312.26 230.46 310.77 232.11 C 310.04 237.29 310.92 242.56 310.10 247.74 C 309.59 251.18 308.62 254.54 307.41 257.80 C 308.29 257.51 309.17 257.24 310.06 256.98 C 311.52 256.91 312.98 256.95 314.44 256.96 C 312.33 258.57 310.19 260.18 308.33 262.09 C 309.39 262.91 310.46 263.73 311.53 264.56 C 311.21 266.13 310.86 267.69 310.54 269.27 C 313.28 269.66 316.03 270.06 318.77 270.49 C 318.81 270.92 318.90 271.77 318.94 272.20 C 316.83 272.56 314.51 272.46 312.62 273.59 C 310.89 275.12 309.89 277.26 308.73 279.21 L 307.92 279.29 C 306.43 278.69 305.01 277.93 303.56 277.24 C 304.42 277.24 306.15 277.25 307.01 277.26 C 305.72 276.04 304.40 274.85 303.09 273.65 C 303.49 271.74 304.67 269.93 304.59 267.95 C 303.13 267.20 301.12 268.03 300.67 269.61 C 299.72 272.16 301.41 274.55 302.47 276.75 C 300.51 278.05 298.67 279.66 297.69 281.85 C 296.46 283.45 298.28 285.08 298.92 286.53 C 299.60 286.29 300.97 285.81 301.66 285.57 C 301.32 285.82 300.65 286.32 300.32 286.57 C 297.98 288.40 295.88 290.80 292.86 291.44 C 293.89 289.65 295.11 287.94 295.78 285.97 C 295.35 284.69 294.74 283.50 294.17 282.30 C 295.64 279.90 296.68 277.27 297.06 274.48 C 295.03 273.92 293.01 273.38 290.98 272.86 C 290.69 271.74 290.41 270.63 290.13 269.53 C 288.82 269.05 287.51 268.58 286.20 268.13 C 286.37 264.13 285.84 259.45 289.63 256.89 C 289.32 259.55 289.28 262.26 289.77 264.90 C 294.46 263.66 299.03 262.04 303.60 260.45 C 303.65 257.55 303.63 254.66 303.67 251.77 C 303.70 246.25 305.43 240.97 307.61 235.96 C 305.03 232.24 301.14 229.84 296.97 228.26 C 301.94 229.05 307.19 228.37 311.84 230.73 C 312.24 229.66 312.64 228.60 313.05 227.54 M 300.81 266.91 C 303.12 267.28 305.48 267.36 307.79 267.83 C 307.85 266.60 307.90 265.38 307.96 264.15 C 305.57 264.84 301.78 263.98 300.81 266.91 Z" />
</g>
<g id="#3c3c3aff">
<path fill="#3c3c3a" opacity="1.00" d=" M 152.96 246.89 C 154.65 239.65 156.41 230.19 164.70 227.81 C 162.91 230.56 160.33 232.68 158.60 235.46 C 157.48 239.52 159.23 243.63 160.14 247.56 C 159.45 249.67 157.52 251.04 156.07 252.63 C 154.97 250.75 153.98 248.81 152.96 246.89 Z" />
</g>
<g id="#5e5f59ff">
<path fill="#5e5f59" opacity="1.00" d=" M 164.70 227.81 C 167.17 228.05 169.54 228.87 171.92 229.54 C 169.81 234.10 165.59 238.23 166.46 243.65 C 166.77 247.73 171.66 248.23 174.72 249.32 C 174.89 250.00 175.22 251.34 175.39 252.02 C 178.45 248.04 180.51 243.42 182.33 238.77 C 182.15 240.91 181.81 243.04 181.85 245.19 C 184.08 242.95 186.31 240.71 188.48 238.41 C 187.06 241.07 185.38 243.64 184.55 246.56 C 184.19 248.69 184.63 250.85 184.80 252.99 C 188.32 248.10 192.19 243.38 196.90 239.59 C 196.02 241.98 195.05 244.34 193.95 246.64 C 195.00 245.87 196.05 245.12 197.10 244.36 C 198.05 245.97 198.99 247.58 199.96 249.17 C 200.62 248.11 201.28 247.05 201.89 245.97 C 204.01 251.24 205.99 256.81 210.11 260.90 C 213.69 264.44 217.66 267.56 221.67 270.60 C 216.02 270.16 212.12 265.77 207.77 262.69 C 205.47 266.35 204.96 270.67 204.86 274.90 C 202.67 272.84 199.75 271.41 198.24 268.74 C 197.71 263.55 199.15 258.31 198.09 253.12 C 197.68 253.73 196.86 254.94 196.44 255.55 C 194.76 255.60 193.08 255.62 191.40 255.67 C 191.12 257.11 190.84 258.55 190.57 259.99 C 189.66 257.11 188.68 254.25 187.51 251.47 C 185.99 255.16 187.11 259.08 187.95 262.78 C 186.54 262.22 185.13 261.66 183.69 261.20 C 184.53 260.21 184.20 257.41 182.46 258.05 C 181.81 259.12 181.99 260.12 182.99 261.07 L 182.19 260.91 C 180.54 259.78 178.27 258.46 178.24 256.21 C 178.67 254.94 179.55 253.89 180.30 252.81 C 179.68 252.36 179.07 251.92 178.46 251.47 C 177.13 252.51 176.03 253.81 174.70 254.85 C 173.01 253.79 171.31 252.77 169.64 251.70 C 169.51 251.44 169.27 250.91 169.15 250.65 C 167.87 250.49 166.83 251.51 165.55 251.35 C 164.61 248.23 163.41 245.13 163.11 241.86 C 162.90 239.35 164.41 237.17 165.38 234.98 C 165.05 234.22 164.64 233.52 164.14 232.87 C 163.49 233.04 162.19 233.39 161.55 233.56 C 160.74 238.19 161.02 242.94 160.14 247.56 C 159.23 243.63 157.48 239.52 158.60 235.46 C 160.33 232.68 162.91 230.56 164.70 227.81 Z" />
</g>
<g id="#4c4e4dff">
<path fill="#4c4e4d" opacity="1.00" d=" M 171.92 229.54 C 177.31 228.72 182.98 227.44 188.23 229.68 C 184.48 230.69 180.21 231.42 177.64 234.64 C 174.10 238.63 174.12 244.34 174.72 249.32 C 171.66 248.23 166.77 247.73 166.46 243.65 C 165.59 238.23 169.81 234.10 171.92 229.54 Z" />
</g>
<g id="#514c46ff">
<path fill="#514c46" opacity="1.00" d=" M 231.45 236.47 C 234.79 232.70 238.48 227.88 244.12 228.27 C 251.47 228.47 259.99 230.12 264.43 236.62 C 259.77 234.25 254.47 232.52 249.24 233.92 C 241.85 234.89 235.50 240.09 232.83 247.01 C 232.18 248.26 231.52 249.52 230.86 250.77 C 229.72 250.38 228.58 250.00 227.45 249.62 C 227.51 244.98 228.16 240.01 231.45 236.47 Z" />
</g>
<g id="#636565ff">
<path fill="#636565" opacity="1.00" d=" M 310.77 232.11 C 312.26 230.46 313.97 229.04 315.73 227.70 C 316.95 228.00 318.17 228.32 319.39 228.68 C 319.84 230.63 321.13 232.85 319.66 234.68 C 317.75 237.50 317.07 240.83 317.06 244.20 C 316.74 248.53 316.11 252.91 314.44 256.96 C 312.98 256.95 311.52 256.91 310.06 256.98 C 311.39 251.14 312.08 245.19 313.41 239.36 C 314.10 236.63 311.84 234.40 310.77 232.11 Z" />
</g>
<g id="#50514fff">
<path fill="#50514f" opacity="1.00" d=" M 319.39 228.68 C 324.56 229.92 328.09 233.92 331.55 237.63 C 339.03 241.05 347.61 240.47 355.49 242.49 C 362.67 244.88 368.89 250.83 370.63 258.31 C 371.48 262.45 368.74 266.01 367.47 269.74 C 366.07 268.65 364.76 267.46 363.46 266.27 C 364.52 263.51 367.24 260.52 365.61 257.45 C 364.13 254.42 362.02 250.81 358.38 250.27 C 356.18 249.87 355.03 252.21 354.33 253.88 C 353.05 256.80 356.32 259.10 357.86 261.18 C 354.82 258.69 352.00 255.94 349.38 253.02 C 349.79 252.91 350.61 252.68 351.02 252.57 C 350.90 248.48 349.36 244.63 346.59 241.62 C 347.05 244.58 347.58 247.54 347.88 250.53 C 345.71 249.23 344.42 247.02 342.75 245.22 C 339.89 243.30 336.27 243.42 332.99 243.01 C 331.92 249.55 334.01 255.94 334.83 262.37 C 334.68 264.33 334.28 266.35 334.75 268.30 C 335.91 270.46 337.87 272.03 339.64 273.68 C 339.10 273.72 338.02 273.80 337.48 273.84 C 334.06 271.75 330.86 269.32 327.33 267.43 C 327.35 266.91 327.38 265.87 327.40 265.35 C 329.01 265.83 330.62 266.31 332.24 266.77 C 331.63 262.76 328.57 260.19 325.05 258.63 C 326.75 255.70 328.76 252.87 329.77 249.61 C 330.32 245.69 327.55 242.45 325.21 239.65 C 322.50 241.17 319.79 242.70 317.06 244.20 C 317.07 240.83 317.75 237.50 319.66 234.68 C 321.13 232.85 319.84 230.63 319.39 228.68 Z" />
</g>
<g id="#75756dff">
<path fill="#75756d" opacity="1.00" d=" M 177.64 234.64 C 180.21 231.42 184.48 230.69 188.23 229.68 C 190.15 230.41 192.04 231.21 193.96 231.96 C 194.48 232.25 195.52 232.83 196.05 233.13 C 198.72 234.11 201.40 235.11 204.13 235.96 C 206.70 239.92 208.08 244.45 208.96 249.05 C 210.24 256.60 217.82 260.40 221.04 266.97 C 216.41 263.04 211.62 259.00 208.38 253.79 C 206.71 249.56 206.40 244.81 203.69 240.99 C 203.11 242.66 202.56 244.34 201.89 245.97 C 201.28 247.05 200.62 248.11 199.96 249.17 C 198.99 247.58 198.05 245.97 197.10 244.36 C 196.05 245.12 195.00 245.87 193.95 246.64 C 195.05 244.34 196.02 241.98 196.90 239.59 C 192.19 243.38 188.32 248.10 184.80 252.99 C 184.63 250.85 184.19 248.69 184.55 246.56 C 185.38 243.64 187.06 241.07 188.48 238.41 C 186.31 240.71 184.08 242.95 181.85 245.19 C 181.81 243.04 182.15 240.91 182.33 238.77 C 180.51 243.42 178.45 248.04 175.39 252.02 C 175.22 251.34 174.89 250.00 174.72 249.32 C 174.12 244.34 174.10 238.63 177.64 234.64 Z" />
</g>
<g id="#1d1d1c98">
<path fill="#1d1d1c" opacity="0.60" d=" M 193.96 231.96 C 194.48 232.25 195.52 232.83 196.05 233.13 C 195.52 232.83 194.48 232.25 193.96 231.96 Z" />
</g>
<g id="#a7a8acff">
<path fill="#a7a8ac" opacity="1.00" d=" M 310.10 247.74 C 310.92 242.56 310.04 237.29 310.77 232.11 C 311.84 234.40 314.10 236.63 313.41 239.36 C 312.08 245.19 311.39 251.14 310.06 256.98 C 309.17 257.24 308.29 257.51 307.41 257.80 C 308.62 254.54 309.59 251.18 310.10 247.74 Z" />
<path fill="#a7a8ac" opacity="1.00" d=" M 160.72 262.27 C 161.86 260.89 164.57 262.50 163.37 264.10 C 162.32 265.57 159.57 263.76 160.72 262.27 Z" />
</g>
<g id="#4e4f4eff">
<path fill="#4e4f4e" opacity="1.00" d=" M 161.55 233.56 C 162.19 233.39 163.49 233.04 164.14 232.87 C 164.64 233.52 165.05 234.22 165.38 234.98 C 164.41 237.17 162.90 239.35 163.11 241.86 C 163.41 245.13 164.61 248.23 165.55 251.35 C 166.83 251.51 167.87 250.49 169.15 250.65 C 169.27 250.91 169.51 251.44 169.64 251.70 C 170.29 253.56 170.82 255.47 171.34 257.38 C 166.27 264.19 167.92 273.25 164.93 280.88 C 163.25 281.02 161.58 281.19 159.90 281.28 C 154.00 279.45 151.00 273.36 149.45 267.83 C 148.95 262.43 148.77 256.90 150.86 251.78 C 151.50 250.44 152.14 249.11 152.71 247.75 C 152.92 250.64 153.60 253.94 156.45 255.38 C 160.50 257.42 165.27 258.45 169.78 257.50 C 165.65 254.72 160.25 255.37 156.07 252.63 C 157.52 251.04 159.45 249.67 160.14 247.56 C 161.02 242.94 160.74 238.19 161.55 233.56 M 160.72 262.27 C 159.57 263.76 162.32 265.57 163.37 264.10 C 164.57 262.50 161.86 260.89 160.72 262.27 M 158.63 275.24 C 161.06 276.22 163.49 274.62 165.68 273.71 C 165.73 271.59 165.82 269.47 165.94 267.35 C 164.29 267.62 162.64 267.90 161.00 268.17 C 159.80 266.45 158.65 264.70 157.46 262.98 C 153.54 266.37 155.76 271.98 158.63 275.24 Z" />
</g>
<g id="#93948bff">
<path fill="#93948b" opacity="1.00" d=" M 294.61 233.80 C 296.72 235.42 299.57 236.69 300.33 239.46 C 301.33 243.14 301.81 247.00 301.59 250.82 C 301.49 253.05 300.07 255.42 297.74 255.84 C 295.50 256.52 293.47 255.06 291.56 254.13 C 292.14 251.51 292.96 248.94 293.27 246.27 C 293.76 242.12 294.07 237.95 294.61 233.80 Z" />
</g>
<g id="#747575ff">
<path fill="#747575" opacity="1.00" d=" M 250.68 239.37 C 254.37 240.65 258.23 241.38 262.14 241.38 C 264.09 241.22 265.71 242.31 267.23 243.38 C 265.60 243.68 263.97 243.96 262.35 244.23 C 264.63 246.28 266.52 248.75 267.27 251.78 C 260.24 250.95 254.16 247.17 247.92 244.15 C 250.46 248.31 252.57 252.73 255.24 256.82 C 256.63 258.94 259.13 261.33 261.89 260.26 C 263.39 259.17 264.27 257.46 265.38 256.02 C 265.91 257.60 266.45 259.18 267.01 260.76 C 264.11 262.86 261.25 265.02 258.58 267.41 C 253.60 264.09 249.05 260.17 244.40 256.42 C 241.32 253.88 238.84 250.60 237.95 246.65 C 239.56 246.73 241.21 246.90 242.68 247.64 C 243.86 248.69 244.99 249.82 246.26 250.78 C 247.31 250.37 248.34 249.90 249.34 249.37 C 248.60 248.12 247.88 246.86 247.11 245.64 C 245.86 243.97 243.95 243.11 242.10 242.29 C 246.54 241.38 250.66 243.57 254.59 245.29 C 253.28 243.32 251.99 241.34 250.68 239.37 Z" />
</g>
<g id="#413f3cff">
<path fill="#413f3c" opacity="1.00" d=" M 317.06 244.20 C 319.79 242.70 322.50 241.17 325.21 239.65 C 327.55 242.45 330.32 245.69 329.77 249.61 C 328.76 252.87 326.75 255.70 325.05 258.63 C 328.57 260.19 331.63 262.76 332.24 266.77 C 330.62 266.31 329.01 265.83 327.40 265.35 C 327.38 265.87 327.35 266.91 327.33 267.43 C 325.68 267.17 324.03 267.00 322.37 266.83 C 323.15 267.95 323.94 269.06 324.73 270.18 C 321.23 275.62 314.84 278.09 308.73 279.21 C 309.89 277.26 310.89 275.12 312.62 273.59 C 314.51 272.46 316.83 272.56 318.94 272.20 C 318.90 271.77 318.81 270.92 318.77 270.49 C 316.03 270.06 313.28 269.66 310.54 269.27 C 310.86 267.69 311.21 266.13 311.53 264.56 C 310.46 263.73 309.39 262.91 308.33 262.09 C 310.19 260.18 312.33 258.57 314.44 256.96 C 316.11 252.91 316.74 248.53 317.06 244.20 Z" />
</g>
<g id="#908c85ff">
<path fill="#908c85" opacity="1.00" d=" M 203.69 240.99 C 206.40 244.81 206.71 249.56 208.38 253.79 C 211.62 259.00 216.41 263.04 221.04 266.97 C 221.88 268.16 222.67 269.38 223.49 270.59 C 223.03 270.60 222.12 270.60 221.67 270.60 C 217.66 267.56 213.69 264.44 210.11 260.90 C 205.99 256.81 204.01 251.24 201.89 245.97 C 202.56 244.34 203.11 242.66 203.69 240.99 Z" />
</g>
<g id="#62605cff">
<path fill="#62605c" opacity="1.00" d=" M 346.59 241.62 C 349.36 244.63 350.90 248.48 351.02 252.57 C 350.61 252.68 349.79 252.91 349.38 253.02 C 347.52 251.94 345.57 249.97 343.23 250.83 C 340.01 252.42 338.39 255.89 336.69 258.86 C 336.06 260.03 335.42 261.19 334.83 262.37 C 334.01 255.94 331.92 249.55 332.99 243.01 C 336.27 243.42 339.89 243.30 342.75 245.22 C 344.42 247.02 345.71 249.23 347.88 250.53 C 347.58 247.54 347.05 244.58 346.59 241.62 Z" />
</g>
<g id="#908f87ff">
<path fill="#908f87" opacity="1.00" d=" M 235.30 245.75 C 237.56 244.58 239.81 243.39 242.10 242.29 C 243.95 243.11 245.86 243.97 247.11 245.64 C 245.63 246.30 244.16 246.97 242.68 247.64 C 241.21 246.90 239.56 246.73 237.95 246.65 C 238.84 250.60 241.32 253.88 244.40 256.42 C 242.68 256.04 240.95 255.78 239.21 255.50 C 241.59 258.70 243.11 262.46 243.03 266.50 C 245.85 268.63 248.53 270.93 251.13 273.32 C 249.90 273.40 248.68 273.49 247.46 273.58 C 247.52 274.35 247.58 275.13 247.63 275.91 C 247.71 277.22 247.77 278.54 247.82 279.86 C 252.94 283.37 259.27 284.18 264.56 287.34 C 260.00 286.69 255.41 286.35 250.80 286.39 C 247.54 286.46 244.72 284.60 241.97 283.09 C 238.07 280.80 233.84 278.51 231.45 274.50 C 228.94 270.72 230.00 265.98 230.72 261.83 C 231.53 256.18 237.39 251.81 235.30 245.75 Z" />
</g>
<g id="#b1b4b0ff">
<path fill="#b1b4b0" opacity="1.00" d=" M 242.68 247.64 C 244.16 246.97 245.63 246.30 247.11 245.64 C 247.88 246.86 248.60 248.12 249.34 249.37 C 248.34 249.90 247.31 250.37 246.26 250.78 C 244.99 249.82 243.86 248.69 242.68 247.64 Z" />
</g>
<g id="#706d68fe">
<path fill="#706d68" opacity="1.00" d=" M 152.96 246.89 C 153.98 248.81 154.97 250.75 156.07 252.63 C 160.25 255.37 165.65 254.72 169.78 257.50 C 165.27 258.45 160.50 257.42 156.45 255.38 C 153.60 253.94 152.92 250.64 152.71 247.75 L 152.96 246.89 Z" />
</g>
<g id="#737370ff">
<path fill="#737370" opacity="1.00" d=" M 273.92 248.35 C 276.32 248.49 278.83 248.19 281.12 249.04 C 283.18 250.24 284.69 252.16 286.14 254.02 C 286.37 254.51 286.83 255.48 287.06 255.96 C 286.44 255.78 285.21 255.42 284.59 255.24 C 284.46 258.15 284.62 261.07 285.03 263.96 C 281.74 262.48 278.66 260.52 276.61 257.49 C 277.88 257.35 279.15 257.22 280.43 257.08 C 279.62 253.30 276.92 250.57 273.92 248.35 Z" />
</g>
<g id="#787373ff">
<path fill="#787373" opacity="1.00" d=" M 354.33 253.88 C 355.03 252.21 356.18 249.87 358.38 250.27 C 362.02 250.81 364.13 254.42 365.61 257.45 C 367.24 260.52 364.52 263.51 363.46 266.27 C 361.61 264.55 359.74 262.85 357.86 261.18 C 356.32 259.10 353.05 256.80 354.33 253.88 Z" />
</g>
<g id="#7c7d7fff">
<path fill="#7c7d7f" opacity="1.00" d=" M 174.70 254.85 C 176.03 253.81 177.13 252.51 178.46 251.47 C 179.07 251.92 179.68 252.36 180.30 252.81 C 179.55 253.89 178.67 254.94 178.24 256.21 C 178.27 258.46 180.54 259.78 182.19 260.91 C 182.25 262.60 182.29 264.30 182.34 266.00 C 185.15 267.77 188.39 267.51 191.38 266.39 C 191.13 267.22 190.89 268.06 190.67 268.90 C 192.20 269.51 193.74 270.08 195.23 270.79 C 196.41 272.31 197.44 273.95 198.43 275.61 C 195.34 274.73 192.31 273.63 189.35 272.38 C 188.60 273.66 187.84 274.93 187.08 276.20 C 184.83 275.52 182.53 275.03 180.21 274.68 C 181.92 273.97 183.56 273.08 185.07 272.00 C 182.31 270.94 179.44 270.22 176.53 269.68 C 177.07 267.63 178.22 265.84 179.25 264.02 C 178.42 263.15 177.57 262.29 176.73 261.45 C 175.12 259.85 173.21 258.62 171.34 257.38 C 170.82 255.47 170.29 253.56 169.64 251.70 C 171.31 252.77 173.01 253.79 174.70 254.85 Z" />
<path fill="#7c7d7f" opacity="1.00" d=" M 390.75 280.13 C 394.66 280.19 397.96 283.01 401.95 282.64 C 411.06 282.45 420.18 282.67 429.28 282.13 C 429.45 282.46 429.79 283.11 429.96 283.44 C 424.85 283.17 419.74 283.27 414.64 283.51 C 406.33 283.62 397.99 285.17 389.74 283.45 C 390.47 283.47 391.93 283.50 392.66 283.52 C 392.01 282.39 391.37 281.27 390.75 280.13 Z" />
</g>
<g id="#ebb998ff">
<path fill="#ebb998" opacity="1.00" d=" M 336.69 258.86 C 338.39 255.89 340.01 252.42 343.23 250.83 C 345.57 249.97 347.52 251.94 349.38 253.02 C 352.00 255.94 354.82 258.69 357.86 261.18 C 359.74 262.85 361.61 264.55 363.46 266.27 C 364.76 267.46 366.07 268.65 367.47 269.74 C 368.58 270.56 369.70 271.38 370.83 272.20 C 373.35 274.21 375.90 276.20 378.47 278.16 C 376.32 280.41 373.76 282.83 370.35 282.19 C 365.17 281.12 359.66 280.68 355.01 277.93 C 350.27 275.16 346.06 271.60 341.67 268.33 C 339.98 266.92 338.01 265.68 336.90 263.74 C 336.54 262.14 336.65 260.48 336.69 258.86 Z" />
<path fill="#ebb998" opacity="1.00" d=" M 444.73 274.99 C 446.46 273.00 449.65 272.88 451.30 275.08 C 451.66 276.69 450.74 278.23 450.43 279.79 C 448.69 278.00 446.79 276.38 444.73 274.99 Z" />
<path fill="#ebb998" opacity="1.00" d=" M 491.81 289.23 C 494.95 289.72 498.87 288.21 501.42 290.64 C 502.58 291.47 503.54 293.77 502.07 294.70 C 497.54 298.05 491.56 295.06 486.66 297.58 C 491.03 295.74 496.00 295.63 500.07 293.06 C 497.69 291.08 494.81 289.89 491.81 289.23 Z" />
<path fill="#ebb998" opacity="1.00" d=" M 452.63 303.71 C 457.19 300.54 462.78 299.17 468.24 300.45 C 463.61 300.05 459.45 302.12 455.48 304.21 C 453.93 304.93 452.40 305.69 450.99 306.66 C 450.93 306.73 450.81 306.86 450.75 306.93 C 450.07 308.28 449.63 309.73 449.11 311.15 C 448.62 311.50 447.64 312.18 447.15 312.53 C 446.40 312.55 444.91 312.60 444.16 312.63 C 443.83 312.19 443.17 311.32 442.84 310.88 C 446.27 308.72 449.19 305.85 452.63 303.71 Z" />
</g>
<g id="#00000013">
<path fill="#000000" opacity="0.07" d=" M 148.21 257.13 C 148.66 255.16 149.88 253.50 150.86 251.78 C 148.77 256.90 148.95 262.43 149.45 267.83 C 148.12 277.21 148.68 287.69 155.17 295.18 C 154.41 297.10 153.63 299.00 152.82 300.90 C 154.64 303.30 156.86 305.37 159.38 307.02 C 160.30 306.14 161.21 305.26 162.13 304.38 C 162.98 306.37 163.64 308.43 164.47 310.43 C 167.33 302.64 170.30 294.81 171.51 286.56 C 172.22 281.84 173.16 276.93 176.45 273.26 C 178.27 275.13 180.07 277.04 181.68 279.10 C 182.51 280.21 183.31 281.36 184.14 282.48 C 183.25 283.31 182.36 284.14 181.47 284.98 C 181.75 286.22 182.03 287.47 182.31 288.72 C 177.85 290.56 176.35 295.44 172.89 298.42 C 175.29 297.95 177.70 297.58 180.11 297.22 C 177.88 299.33 175.17 301.21 173.93 304.11 C 172.49 309.09 173.83 314.34 175.59 319.06 C 174.56 320.12 173.47 321.14 172.44 322.20 C 173.57 323.73 174.92 325.15 175.63 326.94 C 175.55 331.56 172.92 335.97 173.80 340.64 C 174.71 344.25 176.86 347.57 176.84 351.39 C 176.01 354.84 173.92 357.94 173.69 361.56 C 173.16 364.46 174.75 367.11 175.11 369.92 C 175.24 372.64 174.43 375.35 174.82 378.07 C 175.37 379.74 176.35 381.25 176.85 382.93 C 176.37 385.14 175.02 387.18 175.29 389.53 C 175.67 394.26 175.79 399.01 174.92 403.70 C 174.02 407.68 177.28 411.13 176.70 415.07 C 176.28 418.73 175.36 422.39 175.76 426.10 C 176.17 428.36 178.07 430.02 178.67 432.21 C 178.79 434.99 178.03 437.76 178.43 440.55 C 178.73 443.42 180.52 445.80 182.02 448.17 C 179.93 449.27 177.84 450.38 175.75 451.48 C 177.88 454.21 179.72 457.51 178.96 461.12 C 178.90 463.25 176.51 463.80 175.07 464.83 C 176.45 466.08 177.83 467.34 179.19 468.62 C 177.22 468.15 175.26 467.67 173.32 467.13 C 175.12 468.97 176.25 471.29 177.10 473.70 C 177.87 476.09 179.98 477.60 181.79 479.18 C 179.26 480.75 176.93 482.69 175.35 485.25 C 178.42 486.68 181.47 488.54 182.53 491.99 C 179.43 493.83 175.66 494.65 173.14 497.39 C 175.46 499.32 177.70 501.37 180.02 503.32 C 179.48 503.83 178.89 504.26 178.24 504.62 C 174.72 503.17 170.95 501.77 167.14 502.99 C 167.40 503.83 167.83 504.59 168.42 505.26 C 172.30 505.38 176.48 505.30 179.71 507.83 C 178.89 509.23 178.08 510.64 177.19 512.00 L 159.08 512.00 C 159.15 508.38 160.11 504.77 162.67 502.10 C 160.79 502.76 158.91 503.41 156.94 503.78 C 160.20 498.44 162.77 492.72 164.19 486.62 C 163.29 486.85 162.38 487.06 161.46 487.23 C 162.83 485.49 159.17 485.87 160.66 484.21 C 159.59 484.73 158.52 485.26 157.45 485.80 C 157.18 482.67 157.02 479.52 156.91 476.38 C 157.93 477.21 158.96 478.06 159.98 478.91 C 158.43 475.65 157.13 472.28 155.98 468.86 C 156.89 468.57 157.80 468.29 158.71 468.01 C 157.39 465.20 155.79 462.44 155.22 459.35 C 155.20 456.54 157.33 453.80 155.80 451.04 C 153.78 446.36 154.70 441.13 156.17 436.44 C 157.31 433.63 154.50 431.49 153.19 429.32 C 154.98 427.67 158.07 426.02 157.14 423.11 C 156.06 420.38 153.94 418.24 152.17 415.96 C 153.77 414.78 155.37 413.62 156.99 412.46 C 155.82 411.54 154.66 410.62 153.50 409.70 C 154.21 408.74 154.91 407.79 155.62 406.83 C 154.13 406.96 152.65 407.14 151.18 407.34 C 153.08 402.59 151.11 397.73 150.31 392.99 C 150.01 391.33 148.96 389.98 148.06 388.60 C 150.24 384.08 146.75 379.73 146.87 375.15 C 146.94 370.91 146.83 366.67 146.33 362.45 C 146.09 353.17 146.21 343.88 145.49 334.62 C 145.53 325.16 146.53 315.74 146.53 306.28 C 147.93 289.92 145.32 273.39 148.21 257.13 Z" />
<path fill="#000000" opacity="0.07" d=" M 338.96 303.95 C 342.05 302.13 345.70 302.17 349.15 302.64 L 349.89 302.99 C 351.15 304.03 352.26 305.28 353.63 306.20 C 358.12 307.53 362.84 308.10 367.53 308.11 C 369.22 308.84 370.87 309.66 372.56 310.42 C 370.28 312.16 367.76 313.61 364.97 314.33 C 364.64 316.40 364.44 318.51 363.78 320.51 C 362.80 323.08 360.53 324.89 359.49 327.43 C 359.27 329.74 359.92 332.02 360.34 334.27 C 357.83 336.11 355.21 337.85 353.00 340.06 C 351.95 341.15 350.76 342.70 351.48 344.29 C 353.42 344.15 355.33 343.74 357.25 343.44 C 355.59 347.37 351.81 349.69 349.62 353.22 C 350.39 354.93 351.61 356.36 352.67 357.89 C 349.71 360.34 346.74 362.87 344.63 366.12 C 346.09 366.33 347.56 366.54 349.04 366.75 C 347.77 368.36 346.27 369.86 345.51 371.79 C 344.91 374.26 345.33 376.82 345.56 379.31 C 343.72 379.14 341.89 378.92 340.06 378.68 C 341.38 381.50 343.32 384.25 343.39 387.46 C 343.10 389.46 341.76 391.09 340.95 392.89 C 339.40 395.59 339.51 398.82 338.41 401.68 C 337.36 403.74 335.64 405.35 334.13 407.07 C 335.41 408.20 336.73 409.29 338.02 410.43 C 336.03 412.14 333.62 413.60 332.36 415.98 C 331.23 419.11 333.24 422.13 334.31 424.97 C 332.91 427.02 331.32 429.09 330.98 431.62 C 330.34 435.64 329.34 439.99 331.54 443.73 C 330.39 444.94 329.16 446.06 328.02 447.28 C 329.55 451.52 329.32 456.05 327.37 460.11 C 325.74 460.06 324.12 459.90 322.50 459.81 C 324.99 461.51 327.65 463.20 329.14 465.92 C 327.29 466.51 325.43 467.07 323.57 467.62 C 325.17 468.32 326.78 469.03 328.39 469.75 C 327.35 473.06 326.06 476.37 325.87 479.87 C 325.83 483.96 328.24 487.95 326.96 492.05 C 325.88 495.60 324.39 499.01 323.25 502.54 C 324.59 502.54 325.94 502.56 327.28 502.57 C 327.61 504.03 327.98 505.48 328.41 506.92 C 327.44 507.75 326.48 508.58 325.52 509.41 C 325.96 510.27 326.41 511.13 326.89 512.00 L 287.19 512.00 C 287.53 510.85 287.83 509.69 288.12 508.54 C 289.47 509.19 290.82 509.85 292.17 510.53 C 291.12 508.37 289.76 506.27 289.39 503.86 C 289.43 500.40 290.36 497.03 290.88 493.63 C 289.89 493.76 288.90 493.92 287.91 494.08 C 287.71 493.92 287.32 493.61 287.13 493.45 C 288.77 491.95 290.73 490.68 291.85 488.71 C 292.66 485.43 292.07 482.01 291.84 478.69 C 292.86 478.90 293.88 479.12 294.91 479.35 C 292.05 474.14 292.43 468.05 290.77 462.48 C 291.92 461.07 293.39 459.99 294.77 458.83 C 293.60 458.26 292.44 457.70 291.27 457.14 C 293.04 454.60 295.72 452.21 295.95 448.98 C 295.08 444.96 293.22 441.03 294.09 436.81 C 295.69 437.10 297.29 437.44 298.90 437.73 C 298.83 437.19 298.70 436.10 298.64 435.56 C 296.69 435.12 294.75 434.69 292.82 434.23 C 293.86 433.63 294.91 433.03 295.96 432.44 C 296.20 427.71 295.48 422.35 299.33 418.79 C 298.04 414.89 297.11 410.75 297.70 406.63 C 298.56 404.27 300.27 402.35 301.72 400.33 C 299.09 398.94 298.22 396.13 297.61 393.42 C 298.95 394.30 300.28 395.19 301.61 396.07 C 303.74 390.90 298.55 386.10 300.37 380.90 C 302.33 374.46 305.02 368.00 304.67 361.13 C 304.42 358.24 305.53 355.54 306.18 352.78 C 306.44 349.50 305.46 346.19 306.25 342.93 C 307.37 337.51 307.48 331.94 306.90 326.45 C 302.83 325.98 298.78 325.28 294.71 324.82 C 296.12 324.52 297.51 324.18 298.91 323.83 C 302.98 323.44 307.10 322.94 311.16 323.67 C 317.51 324.38 323.19 320.67 327.97 316.93 C 331.40 314.47 333.50 310.68 336.63 307.91 C 336.94 307.66 337.55 307.16 337.86 306.91 C 339.15 306.20 339.51 305.21 338.96 303.95 Z" />
</g>
<g id="#434546ff">
<path fill="#434546" opacity="1.00" d=" M 187.95 262.78 C 187.11 259.08 185.99 255.16 187.51 251.47 C 188.68 254.25 189.66 257.11 190.57 259.99 C 190.84 258.55 191.12 257.11 191.40 255.67 C 193.08 255.62 194.76 255.60 196.44 255.55 C 196.86 254.94 197.68 253.73 198.09 253.12 C 199.15 258.31 197.71 263.55 198.24 268.74 C 199.75 271.41 202.67 272.84 204.86 274.90 C 207.48 277.21 209.86 279.78 212.55 282.02 C 212.15 282.14 211.37 282.39 210.98 282.51 C 210.08 282.27 209.20 281.99 208.33 281.69 C 204.22 277.76 200.78 272.82 195.23 270.79 C 193.74 270.08 192.20 269.51 190.67 268.90 C 190.89 268.06 191.13 267.22 191.38 266.39 C 188.39 267.51 185.15 267.77 182.34 266.00 C 182.29 264.30 182.25 262.60 182.19 260.91 L 182.99 261.07 L 183.69 261.20 C 185.13 261.66 186.54 262.22 187.95 262.78 Z" />
</g>
<g id="#9c9990ff">
<path fill="#9c9990" opacity="1.00" d=" M 239.21 255.50 C 240.95 255.78 242.68 256.04 244.40 256.42 C 249.05 260.17 253.60 264.09 258.58 267.41 C 261.45 267.53 263.52 265.33 265.88 264.09 C 267.56 262.93 269.24 264.93 270.75 265.59 C 269.33 268.05 268.43 270.83 269.56 273.59 C 267.62 272.67 265.68 271.38 263.47 271.36 C 260.32 271.79 258.60 274.77 256.73 276.99 C 261.09 279.69 265.93 281.39 270.85 282.79 C 270.98 283.18 271.24 283.97 271.37 284.36 C 270.73 284.29 269.44 284.14 268.80 284.07 L 267.97 283.79 C 261.07 281.48 254.46 278.40 247.63 275.91 C 247.58 275.13 247.52 274.35 247.46 273.58 C 248.68 273.49 249.90 273.40 251.13 273.32 C 248.53 270.93 245.85 268.63 243.03 266.50 C 243.11 262.46 241.59 258.70 239.21 255.50 Z" />
</g>
<g id="#333435ff">
<path fill="#333435" opacity="1.00" d=" M 164.93 280.88 C 167.92 273.25 166.27 264.19 171.34 257.38 C 173.21 258.62 175.12 259.85 176.73 261.45 C 172.65 263.71 173.98 268.85 172.75 272.61 C 171.53 278.26 165.78 282.87 159.90 281.28 C 161.58 281.19 163.25 281.02 164.93 280.88 Z" />
</g>
<g id="#9a989bff">
<path fill="#9a989b" opacity="1.00" d=" M 182.46 258.05 C 184.20 257.41 184.53 260.21 183.69 261.20 L 182.99 261.07 C 181.99 260.12 181.81 259.12 182.46 258.05 Z" />
</g>
<g id="#c29578ff">
<path fill="#c29578" opacity="1.00" d=" M 334.83 262.37 C 335.42 261.19 336.06 260.03 336.69 258.86 C 336.65 260.48 336.54 262.14 336.90 263.74 C 338.01 265.68 339.98 266.92 341.67 268.33 C 346.06 271.60 350.27 275.16 355.01 277.93 C 359.66 280.68 365.17 281.12 370.35 282.19 C 365.24 282.03 360.12 281.82 355.04 281.15 C 352.93 280.04 350.85 278.89 348.80 277.68 C 346.69 276.45 344.55 275.27 342.25 274.44 C 341.60 274.25 340.29 273.87 339.64 273.68 C 337.87 272.03 335.91 270.46 334.75 268.30 C 334.28 266.35 334.68 264.33 334.83 262.37 Z" />
</g>
<g id="#88867eff">
<path fill="#88867e" opacity="1.00" d=" M 258.58 267.41 C 261.25 265.02 264.11 262.86 267.01 260.76 C 269.61 261.20 272.22 261.59 274.81 262.11 C 277.44 265.34 279.22 269.29 277.98 273.50 C 278.95 273.97 279.93 274.45 280.91 274.93 C 278.36 277.03 275.22 278.17 272.12 279.17 C 271.68 280.37 271.23 281.57 270.85 282.79 C 265.93 281.39 261.09 279.69 256.73 276.99 C 258.60 274.77 260.32 271.79 263.47 271.36 C 265.68 271.38 267.62 272.67 269.56 273.59 C 268.43 270.83 269.33 268.05 270.75 265.59 C 269.24 264.93 267.56 262.93 265.88 264.09 C 263.52 265.33 261.45 267.53 258.58 267.41 Z" />
</g>
<g id="#00000022">
<path fill="#000000" opacity="0.13" d=" M 172.75 272.61 C 173.98 268.85 172.65 263.71 176.73 261.45 C 177.57 262.29 178.42 263.15 179.25 264.02 C 178.22 265.84 177.07 267.63 176.53 269.68 C 176.49 270.87 176.47 272.06 176.45 273.26 C 173.16 276.93 172.22 281.84 171.51 286.56 C 170.30 294.81 167.33 302.64 164.47 310.43 C 163.64 308.43 162.98 306.37 162.13 304.38 C 161.21 305.26 160.30 306.14 159.38 307.02 C 156.86 305.37 154.64 303.30 152.82 300.90 C 153.63 299.00 154.41 297.10 155.17 295.18 C 148.68 287.69 148.12 277.21 149.45 267.83 C 151.00 273.36 154.00 279.45 159.90 281.28 C 165.78 282.87 171.53 278.26 172.75 272.61 Z" />
<path fill="#000000" opacity="0.13" d=" M 369.85 307.89 C 371.06 307.66 372.29 307.44 373.51 307.23 C 374.41 308.09 375.31 308.96 376.24 309.80 C 374.05 309.38 371.96 308.59 369.85 307.89 Z" />
</g>
<g id="#79787aff">
<path fill="#79787a" opacity="1.00" d=" M 158.63 275.24 C 155.76 271.98 153.54 266.37 157.46 262.98 C 158.65 264.70 159.80 266.45 161.00 268.17 C 162.64 267.90 164.29 267.62 165.94 267.35 C 165.82 269.47 165.73 271.59 165.68 273.71 C 163.49 274.62 161.06 276.22 158.63 275.24 Z" />
</g>
<g id="#82837bff">
<path fill="#82837b" opacity="1.00" d=" M 204.86 274.90 C 204.96 270.67 205.47 266.35 207.77 262.69 C 212.12 265.77 216.02 270.16 221.67 270.60 C 222.44 274.29 222.51 278.06 222.26 281.81 C 221.21 283.45 220.09 285.04 218.99 286.65 C 216.88 285.04 214.76 283.47 212.55 282.02 C 209.86 279.78 207.48 277.21 204.86 274.90 Z" />
</g>
<g id="#2e3032ff">
<path fill="#2e3032" opacity="1.00" d=" M 300.81 266.91 C 301.78 263.98 305.57 264.84 307.96 264.15 C 307.90 265.38 307.85 266.60 307.79 267.83 C 305.48 267.36 303.12 267.28 300.81 266.91 Z" />
</g>
<g id="#64677cff">
<path fill="#64677c" opacity="1.00" d=" M 283.08 266.97 C 284.11 267.37 285.15 267.76 286.20 268.13 C 287.51 268.58 288.82 269.05 290.13 269.53 C 290.41 270.63 290.69 271.74 290.98 272.86 C 293.01 273.38 295.03 273.92 297.06 274.48 C 296.68 277.27 295.64 279.90 294.17 282.30 C 294.74 283.50 295.35 284.69 295.78 285.97 C 295.11 287.94 293.89 289.65 292.86 291.44 C 291.59 291.60 290.34 291.75 289.08 291.92 C 289.65 293.42 290.24 294.90 290.76 296.42 C 289.64 300.96 284.15 300.69 282.22 304.41 C 282.11 303.37 280.32 301.53 279.70 303.21 C 279.56 304.31 279.90 305.26 280.70 306.07 C 280.34 306.28 279.61 306.71 279.24 306.93 C 277.12 305.50 275.02 304.04 272.90 302.61 C 274.63 300.75 276.56 298.66 279.24 298.36 C 281.13 298.24 283.01 298.53 284.89 298.71 C 283.99 297.60 283.10 296.48 282.22 295.35 C 283.02 294.49 283.83 293.62 284.64 292.77 C 284.12 289.61 284.14 286.23 282.58 283.36 C 281.21 282.41 279.64 281.82 278.13 281.14 C 283.80 278.93 282.86 271.85 283.08 266.97 Z" />
</g>
<g id="#212326ff">
<path fill="#212326" opacity="1.00" d=" M 322.37 266.83 C 324.03 267.00 325.68 267.17 327.33 267.43 C 330.86 269.32 334.06 271.75 337.48 273.84 L 336.29 273.93 C 333.04 273.20 330.13 271.56 327.17 270.14 C 327.94 272.55 328.82 274.94 329.82 277.27 C 331.84 277.72 334.15 277.86 335.50 279.66 C 334.25 280.04 332.99 280.41 331.73 280.75 C 330.42 280.68 329.12 280.63 327.82 280.52 C 321.40 277.28 314.32 282.33 307.92 279.29 L 308.73 279.21 C 314.84 278.09 321.23 275.62 324.73 270.18 C 323.94 269.06 323.15 267.95 322.37 266.83 Z" />
</g>
<g id="#6d6b6cff">
<path fill="#6d6b6c" opacity="1.00" d=" M 300.67 269.61 C 301.12 268.03 303.13 267.20 304.59 267.95 C 304.67 269.93 303.49 271.74 303.09 273.65 C 304.40 274.85 305.72 276.04 307.01 277.26 C 306.15 277.25 304.42 277.24 303.56 277.24 L 302.47 276.75 C 301.41 274.55 299.72 272.16 300.67 269.61 Z" />
</g>
<g id="#000000bc">
<path fill="#000000" opacity="0.74" d=" M 389.81 269.48 C 390.82 269.44 391.84 269.44 392.87 269.49 C 393.86 271.87 394.67 274.81 397.55 275.48 C 407.52 278.74 418.21 278.48 428.42 280.56 C 428.64 280.95 429.07 281.74 429.28 282.13 C 420.18 282.67 411.06 282.45 401.95 282.64 C 397.96 283.01 394.66 280.19 390.75 280.13 C 389.43 280.67 388.14 281.28 386.86 281.88 C 384.90 280.72 382.93 279.60 380.99 278.44 C 385.99 278.54 387.60 272.97 389.81 269.48 Z" />
</g>
<g id="#545555ff">
<path fill="#545555" opacity="1.00" d=" M 176.53 269.68 C 179.44 270.22 182.31 270.94 185.07 272.00 C 183.56 273.08 181.92 273.97 180.21 274.68 C 182.53 275.03 184.83 275.52 187.08 276.20 C 193.67 280.95 199.35 286.82 205.03 292.59 C 206.40 291.72 207.77 290.86 209.15 290.00 C 209.45 290.27 210.04 290.79 210.33 291.06 C 211.39 293.98 212.91 296.70 214.56 299.32 C 216.87 296.44 219.01 291.77 223.53 293.25 C 223.51 297.87 223.62 302.49 224.02 307.09 C 221.97 304.40 219.53 301.85 216.09 301.09 C 215.79 302.63 215.51 304.17 215.23 305.72 C 218.04 307.38 220.89 309.52 224.32 309.52 C 228.91 309.49 233.24 307.72 237.55 306.36 L 236.96 306.84 C 233.06 311.24 226.83 310.75 221.53 311.73 C 221.37 312.14 221.06 312.96 220.91 313.36 C 216.03 311.42 210.73 310.87 205.79 309.16 C 203.44 307.04 201.66 304.38 199.66 301.95 C 201.36 296.57 198.18 291.24 194.67 287.39 C 190.87 283.94 187.19 279.46 181.68 279.10 C 180.07 277.04 178.27 275.13 176.45 273.26 C 176.47 272.06 176.49 270.87 176.53 269.68 Z" />
</g>
<g id="#4a4c4eff">
<path fill="#4a4c4e" opacity="1.00" d=" M 327.17 270.14 C 330.13 271.56 333.04 273.20 336.29 273.93 C 336.29 274.87 336.29 276.75 336.30 277.70 C 338.69 277.47 340.80 276.36 342.25 274.44 C 344.55 275.27 346.69 276.45 348.80 277.68 C 348.62 279.42 348.45 281.15 348.28 282.90 C 351.53 283.12 354.79 283.17 358.05 282.96 C 357.05 282.34 356.06 281.73 355.04 281.15 C 360.12 281.82 365.24 282.03 370.35 282.19 C 373.76 282.83 376.32 280.41 378.47 278.16 C 375.90 276.20 373.35 274.21 370.83 272.20 C 374.32 274.10 377.76 276.10 380.99 278.44 C 382.93 279.60 384.90 280.72 386.86 281.88 C 388.14 281.28 389.43 280.67 390.75 280.13 C 391.37 281.27 392.01 282.39 392.66 283.52 C 391.93 283.50 390.47 283.47 389.74 283.45 C 388.20 283.35 386.66 283.32 385.13 283.36 C 381.83 283.50 378.55 283.68 375.26 283.79 C 369.50 283.44 363.74 283.79 357.98 283.75 C 354.49 283.79 350.84 283.64 347.60 285.16 C 347.51 284.30 347.32 282.57 347.23 281.71 C 347.10 280.55 346.98 279.39 346.86 278.23 C 344.29 278.23 341.72 278.23 339.16 278.20 C 339.02 280.60 338.86 283.01 338.65 285.42 C 338.27 284.07 337.91 282.73 337.55 281.40 C 335.61 281.17 333.67 280.91 331.73 280.75 C 332.99 280.41 334.25 280.04 335.50 279.66 C 334.15 277.86 331.84 277.72 329.82 277.27 C 328.82 274.94 327.94 272.55 327.17 270.14 Z" />
</g>
<g id="#636566ff">
<path fill="#636566" opacity="1.00" d=" M 195.23 270.79 C 200.78 272.82 204.22 277.76 208.33 281.69 C 205.33 280.67 202.62 278.97 200.12 277.07 C 200.71 280.15 202.24 283.10 201.88 286.34 C 204.33 287.49 206.82 288.60 209.15 290.00 C 207.77 290.86 206.40 291.72 205.03 292.59 C 199.35 286.82 193.67 280.95 187.08 276.20 C 187.84 274.93 188.60 273.66 189.35 272.38 C 192.31 273.63 195.34 274.73 198.43 275.61 C 197.44 273.95 196.41 272.31 195.23 270.79 Z" />
</g>
<g id="#474748ff">
<path fill="#474748" opacity="1.00" d=" M 221.67 270.60 C 222.12 270.60 223.03 270.60 223.49 270.59 C 225.18 272.97 226.53 275.57 227.97 278.11 C 231.91 284.54 239.32 287.60 246.09 290.13 C 246.71 291.26 247.32 292.38 247.94 293.52 C 245.20 293.52 242.45 293.43 239.72 293.62 C 238.34 293.85 236.99 294.19 235.63 294.47 C 228.54 295.35 222.82 288.41 222.26 281.81 C 222.51 278.06 222.44 274.29 221.67 270.60 M 224.19 279.76 C 224.90 285.36 228.66 292.04 235.01 292.03 C 235.06 291.33 235.16 289.94 235.21 289.24 C 233.64 288.71 232.01 288.31 230.59 287.43 C 227.99 285.26 227.27 281.42 224.19 279.76 M 236.17 289.61 C 234.91 291.01 237.27 293.18 238.56 291.79 C 239.81 290.39 237.44 288.23 236.17 289.61 Z" />
</g>
<g id="#bebfcbff">
<path fill="#bebfcb" opacity="1.00" d=" M 336.29 273.93 L 337.48 273.84 C 338.02 273.80 339.10 273.72 339.64 273.68 C 340.29 273.87 341.60 274.25 342.25 274.44 C 340.80 276.36 338.69 277.47 336.30 277.70 C 336.29 276.75 336.29 274.87 336.29 273.93 Z" />
</g>
<g id="#ffffffff">
<path fill="#ffffff" opacity="1.00" d=" M 434.91 289.69 C 437.37 284.21 442.12 280.38 444.73 274.99 C 446.79 276.38 448.69 278.00 450.43 279.79 C 451.53 281.07 453.04 281.80 454.70 282.09 C 457.22 283.31 459.66 284.77 462.36 285.63 C 465.51 285.80 468.91 284.47 471.83 286.17 C 477.97 289.79 485.42 286.22 491.81 289.23 C 494.81 289.89 497.69 291.08 500.07 293.06 C 496.00 295.63 491.03 295.74 486.66 297.58 C 484.23 298.13 481.73 297.51 479.27 297.66 C 475.26 297.19 471.99 299.84 468.24 300.45 C 462.78 299.17 457.19 300.54 452.63 303.71 C 449.19 305.85 446.27 308.72 442.84 310.88 C 441.54 309.35 441.13 307.40 440.56 305.55 C 438.44 303.82 436.49 301.84 435.77 299.11 C 435.54 295.96 435.37 292.81 434.91 289.69 Z" />
</g>
<g id="#767778ff">
<path fill="#767778" opacity="1.00" d=" M 201.88 286.34 C 202.24 283.10 200.71 280.15 200.12 277.07 C 202.62 278.97 205.33 280.67 208.33 281.69 C 209.20 281.99 210.08 282.27 210.98 282.51 C 214.28 284.09 216.62 286.93 218.13 290.20 C 215.58 288.76 213.06 287.28 210.49 285.89 C 210.41 287.61 210.33 289.33 210.33 291.06 C 210.04 290.79 209.45 290.27 209.15 290.00 C 206.82 288.60 204.33 287.49 201.88 286.34 Z" />
</g>
<g id="#010101cd">
<path fill="#010101" opacity="0.80" d=" M 297.69 281.85 C 298.67 279.66 300.51 278.05 302.47 276.75 L 303.56 277.24 C 305.01 277.93 306.43 278.69 307.92 279.29 C 314.32 282.33 321.40 277.28 327.82 280.52 C 326.54 281.57 325.58 283.41 323.75 283.52 C 316.40 284.30 308.65 282.52 301.66 285.57 C 300.97 285.81 299.60 286.29 298.92 286.53 C 298.28 285.08 296.46 283.45 297.69 281.85 Z" />
</g>
<g id="#bdc0cdff">
<path fill="#bdc0cd" opacity="1.00" d=" M 339.16 278.20 C 341.72 278.23 344.29 278.23 346.86 278.23 C 346.98 279.39 347.10 280.55 347.23 281.71 C 345.42 281.63 343.58 281.40 341.79 281.74 C 340.53 282.76 339.59 284.11 338.65 285.42 C 338.86 283.01 339.02 280.60 339.16 278.20 Z" />
</g>
<g id="#060605e3">
<path fill="#060605" opacity="0.89" d=" M 348.28 282.90 C 348.45 281.15 348.62 279.42 348.80 277.68 C 350.85 278.89 352.93 280.04 355.04 281.15 C 356.06 281.73 357.05 282.34 358.05 282.96 C 354.79 283.17 351.53 283.12 348.28 282.90 Z" />
</g>
<g id="#313130fe">
<path fill="#313130" opacity="1.00" d=" M 181.68 279.10 C 187.19 279.46 190.87 283.94 194.67 287.39 C 198.18 291.24 201.36 296.57 199.66 301.95 C 194.49 295.46 189.34 288.95 184.14 282.48 C 183.31 281.36 182.51 280.21 181.68 279.10 Z" />
<path fill="#313130" opacity="1.00" d=" M 267.97 283.79 L 268.80 284.07 C 269.86 284.44 270.92 284.84 271.99 285.24 C 270.89 288.00 269.67 290.71 268.00 293.17 C 267.65 290.05 267.66 286.90 267.97 283.79 Z" />
</g>
<g id="#252627ff">
<path fill="#252627" opacity="1.00" d=" M 224.19 279.76 C 227.27 281.42 227.99 285.26 230.59 287.43 C 232.01 288.31 233.64 288.71 235.21 289.24 C 235.16 289.94 235.06 291.33 235.01 292.03 C 228.66 292.04 224.90 285.36 224.19 279.76 Z" />
</g>
<g id="#575555ff">
<path fill="#575555" opacity="1.00" d=" M 273.56 288.28 C 274.55 285.58 274.97 282.17 278.13 281.14 C 279.64 281.82 281.21 282.41 282.58 283.36 C 284.14 286.23 284.12 289.61 284.64 292.77 C 283.83 293.62 283.02 294.49 282.22 295.35 C 283.10 296.48 283.99 297.60 284.89 298.71 C 283.01 298.53 281.13 298.24 279.24 298.36 C 276.56 298.66 274.63 300.75 272.90 302.61 C 275.02 304.04 277.12 305.50 279.24 306.93 C 279.61 306.71 280.34 306.28 280.70 306.07 C 281.08 305.65 281.84 304.82 282.22 304.41 C 284.15 300.69 289.64 300.96 290.76 296.42 C 290.95 297.87 291.07 299.34 291.15 300.81 C 290.91 301.16 290.44 301.87 290.21 302.22 C 292.12 302.02 294.03 301.80 295.96 301.68 C 295.56 302.07 294.77 302.87 294.37 303.27 C 291.11 303.21 287.18 302.10 284.75 304.96 C 283.76 305.95 282.82 307.00 281.88 308.04 C 277.05 308.22 272.21 308.68 267.60 310.19 C 263.77 309.50 259.68 307.67 255.93 309.69 C 251.43 310.24 246.94 309.43 242.48 308.91 C 245.06 307.68 247.68 306.52 250.38 305.55 C 251.48 305.15 252.57 304.74 253.67 304.33 C 259.12 305.10 264.64 304.63 269.90 303.02 C 269.69 302.78 269.26 302.30 269.05 302.06 C 268.09 300.92 267.17 299.75 266.19 298.62 C 268.92 295.41 272.21 292.40 273.56 288.28 Z" />
</g>
<g id="#838579ff">
<path fill="#838579" opacity="1.00" d=" M 323.75 283.52 C 325.58 283.41 326.54 281.57 327.82 280.52 C 329.12 280.63 330.42 280.68 331.73 280.75 C 333.67 280.91 335.61 281.17 337.55 281.40 C 337.91 282.73 338.27 284.07 338.65 285.42 L 338.92 286.41 L 339.15 287.19 C 337.43 288.37 335.69 289.50 333.94 290.63 C 333.22 290.48 331.79 290.18 331.07 290.03 C 331.34 286.87 327.13 287.79 326.98 290.36 L 326.45 291.32 C 320.47 291.05 313.82 290.40 308.57 293.86 C 309.25 294.52 309.99 295.12 310.77 295.67 C 312.78 294.74 314.75 293.60 316.97 293.23 C 320.13 294.07 323.04 295.61 326.14 296.62 C 324.60 296.93 323.08 297.34 321.57 297.76 C 325.76 298.30 330.00 298.48 334.23 298.29 C 329.06 298.56 323.88 298.64 318.74 299.25 C 320.96 300.10 323.30 300.80 325.71 300.63 C 330.54 300.40 335.38 300.42 340.21 300.67 C 354.47 301.30 368.77 299.49 383.00 300.62 C 383.58 302.10 384.18 303.58 384.77 305.07 C 375.59 306.59 366.24 306.72 356.97 305.91 C 354.38 305.63 352.20 304.06 349.89 302.99 L 349.15 302.64 C 340.82 300.31 332.21 302.51 323.83 303.32 C 321.28 303.06 318.78 302.37 316.22 302.34 C 313.92 303.00 311.94 304.40 309.88 305.58 C 306.92 304.30 303.58 302.63 300.43 304.31 C 299.64 302.43 298.04 301.29 295.96 301.68 C 294.03 301.80 292.12 302.02 290.21 302.22 C 290.44 301.87 290.91 301.16 291.15 300.81 C 294.45 299.95 297.75 298.92 300.56 296.89 C 299.97 293.48 299.80 290.00 300.32 286.57 C 300.65 286.32 301.32 285.82 301.66 285.57 C 308.65 282.52 316.40 284.30 323.75 283.52 M 327.52 282.10 C 327.67 283.53 328.32 283.77 329.48 282.84 C 329.32 281.40 328.67 281.16 327.52 282.10 M 310.15 285.03 C 310.10 286.68 310.03 288.33 309.98 289.98 C 315.36 290.04 320.76 290.07 326.14 289.70 C 325.73 288.15 325.32 286.60 324.90 285.06 C 319.99 284.66 315.07 284.83 310.15 285.03 M 303.71 286.85 C 303.79 289.24 303.91 291.63 304.04 294.03 C 305.58 293.20 307.12 292.37 308.70 291.59 C 308.85 289.64 308.77 287.63 307.86 285.86 C 306.50 286.29 305.12 286.62 303.71 286.85 M 303.41 299.81 C 308.02 301.27 314.58 303.35 318.35 299.23 C 313.41 299.10 308.05 297.44 303.41 299.81 Z" />
</g>
<g id="#e1e0eeff">
<path fill="#e1e0ee" opacity="1.00" d=" M 341.79 281.74 C 343.58 281.40 345.42 281.63 347.23 281.71 C 347.32 282.57 347.51 284.30 347.60 285.16 C 345.23 287.56 341.88 287.10 338.92 286.41 L 338.65 285.42 C 339.59 284.11 340.53 282.76 341.79 281.74 Z" />
</g>
<g id="#666561ff">
<path fill="#666561" opacity="1.00" d=" M 212.55 282.02 C 214.76 283.47 216.88 285.04 218.99 286.65 C 220.09 285.04 221.21 283.45 222.26 281.81 C 222.82 288.41 228.54 295.35 235.63 294.47 C 237.84 296.27 240.31 297.75 242.97 298.81 C 241.91 297.06 240.81 295.34 239.72 293.62 C 242.45 293.43 245.20 293.52 247.94 293.52 C 247.32 292.38 246.71 291.26 246.09 290.13 C 250.35 291.77 254.70 293.17 259.09 294.40 C 259.28 294.80 259.65 295.61 259.84 296.02 C 257.80 297.24 255.71 298.38 253.66 299.57 C 253.59 301.16 253.65 302.74 253.67 304.33 C 252.57 304.74 251.48 305.15 250.38 305.55 C 246.87 305.30 243.38 304.85 239.87 304.67 C 239.63 302.83 239.41 300.98 239.19 299.14 C 238.02 298.91 236.86 298.69 235.69 298.48 C 234.72 297.60 233.76 296.73 232.80 295.86 C 230.54 297.25 227.95 298.33 226.28 300.47 C 225.25 302.32 226.43 304.45 226.71 306.36 C 225.81 306.62 224.92 306.86 224.02 307.09 C 223.62 302.49 223.51 297.87 223.53 293.25 C 219.01 291.77 216.87 296.44 214.56 299.32 C 212.91 296.70 211.39 293.98 210.33 291.06 C 210.33 289.33 210.41 287.61 210.49 285.89 C 213.06 287.28 215.58 288.76 218.13 290.20 C 216.62 286.93 214.28 284.09 210.98 282.51 C 211.37 282.39 212.15 282.14 212.55 282.02 M 243.08 299.21 C 241.51 302.18 246.41 299.39 243.08 299.21 Z" />
</g>
<g id="#ccccd2ff">
<path fill="#ccccd2" opacity="1.00" d=" M 327.52 282.10 C 328.67 281.16 329.32 281.40 329.48 282.84 C 328.32 283.77 327.67 283.53 327.52 282.10 Z" />
</g>
<g id="#9c7c5cb2">
<path fill="#9c7c5c" opacity="0.70" d=" M 454.70 282.09 C 456.49 281.84 458.29 281.59 460.10 281.38 C 460.88 282.78 461.63 284.19 462.36 285.63 C 459.66 284.77 457.22 283.31 454.70 282.09 Z" />
</g>
<g id="#b4b6bfff">
<path fill="#b4b6bf" opacity="1.00" d=" M 357.98 283.75 C 363.74 283.79 369.50 283.44 375.26 283.79 C 376.58 284.58 377.88 285.42 379.18 286.26 C 374.66 287.22 369.59 286.24 365.58 289.00 C 362.91 289.36 360.22 289.46 357.53 289.50 C 359.39 289.19 362.00 289.45 362.45 287.05 C 358.12 287.56 353.02 285.93 349.27 288.73 C 351.80 289.10 354.35 289.34 356.91 289.53 C 354.65 289.80 352.38 290.00 350.11 290.11 C 346.71 288.32 342.92 287.65 339.15 287.19 L 338.92 286.41 C 341.88 287.10 345.23 287.56 347.60 285.16 C 350.84 283.64 354.49 283.79 357.98 283.75 Z" />
</g>
<g id="#d5d8deff">
<path fill="#d5d8de" opacity="1.00" d=" M 375.26 283.79 C 378.55 283.68 381.83 283.50 385.13 283.36 C 385.91 283.99 386.69 284.63 387.48 285.27 C 386.27 285.39 385.06 285.51 383.86 285.65 C 383.85 285.94 383.84 286.53 383.83 286.83 C 384.94 287.41 386.04 288.03 387.12 288.68 C 379.98 289.67 372.76 289.10 365.58 289.00 C 369.59 286.24 374.66 287.22 379.18 286.26 C 377.88 285.42 376.58 284.58 375.26 283.79 Z" />
</g>
<g id="#c5c6d0ff">
<path fill="#c5c6d0" opacity="1.00" d=" M 385.13 283.36 C 386.66 283.32 388.20 283.35 389.74 283.45 C 397.99 285.17 406.33 283.62 414.64 283.51 C 417.86 284.27 421.17 284.24 424.45 283.88 C 424.61 285.31 424.78 286.75 424.97 288.19 C 421.24 288.80 417.48 289.19 413.72 289.47 C 407.39 288.29 400.93 289.26 394.55 288.84 C 392.75 286.29 389.92 286.80 387.82 288.60 L 387.12 288.68 C 386.04 288.03 384.94 287.41 383.83 286.83 C 383.84 286.53 383.85 285.94 383.86 285.65 C 385.06 285.51 386.27 285.39 387.48 285.27 C 386.69 284.63 385.91 283.99 385.13 283.36 Z" />
</g>
<g id="#505461ff">
<path fill="#505461" opacity="1.00" d=" M 414.64 283.51 C 419.74 283.27 424.85 283.17 429.96 283.44 C 430.22 286.06 430.19 288.69 430.06 291.32 C 425.07 289.67 419.80 289.80 414.63 289.62 L 413.72 289.47 C 417.48 289.19 421.24 288.80 424.97 288.19 C 424.78 286.75 424.61 285.31 424.45 283.88 C 421.17 284.24 417.86 284.27 414.64 283.51 Z" />
</g>
<g id="#c0c0caff">
<path fill="#c0c0ca" opacity="1.00" d=" M 310.15 285.03 C 315.07 284.83 319.99 284.66 324.90 285.06 C 325.32 286.60 325.73 288.15 326.14 289.70 C 320.76 290.07 315.36 290.04 309.98 289.98 C 310.03 288.33 310.10 286.68 310.15 285.03 Z" />
<path fill="#c0c0ca" opacity="1.00" d=" M 386.86 305.25 C 392.41 302.79 399.11 302.58 404.63 305.24 C 398.76 306.55 392.73 306.40 386.86 305.25 Z" />
</g>
<g id="#8dd9f2ff">
<path fill="#8dd9f2" opacity="1.00" d=" M 303.71 286.85 C 305.12 286.62 306.50 286.29 307.86 285.86 C 308.77 287.63 308.85 289.64 308.70 291.59 C 307.12 292.37 305.58 293.20 304.04 294.03 C 303.91 291.63 303.79 289.24 303.71 286.85 M 306.05 288.25 C 304.61 289.20 306.08 291.89 307.59 290.69 C 309.01 289.73 307.56 287.05 306.05 288.25 Z" />
</g>
<g id="#a5a5aeff">
<path fill="#a5a5ae" opacity="1.00" d=" M 292.86 291.44 C 295.88 290.80 297.98 288.40 300.32 286.57 C 299.80 290.00 299.97 293.48 300.56 296.89 C 297.75 298.92 294.45 299.95 291.15 300.81 C 291.07 299.34 290.95 297.87 290.76 296.42 C 290.24 294.90 289.65 293.42 289.08 291.92 C 290.34 291.75 291.59 291.60 292.86 291.44 Z" />
</g>
<g id="#45423fff">
<path fill="#45423f" opacity="1.00" d=" M 333.94 290.63 C 335.69 289.50 337.43 288.37 339.15 287.19 C 342.92 287.65 346.71 288.32 350.11 290.11 L 350.46 291.28 C 345.49 291.74 340.50 292.09 335.58 292.93 C 335.01 292.17 334.47 291.40 333.94 290.63 Z" />
</g>
<g id="#e4e2ecff">
<path fill="#e4e2ec" opacity="1.00" d=" M 349.27 288.73 C 353.02 285.93 358.12 287.56 362.45 287.05 C 362.00 289.45 359.39 289.19 357.53 289.50 L 356.91 289.53 C 354.35 289.34 351.80 289.10 349.27 288.73 Z" />
</g>
<g id="#edecf3ff">
<path fill="#edecf3" opacity="1.00" d=" M 387.82 288.60 C 389.92 286.80 392.75 286.29 394.55 288.84 C 392.30 288.78 390.06 288.69 387.82 288.60 Z" />
</g>
<g id="#ebffffff">
<path fill="#ebffff" opacity="1.00" d=" M 306.05 288.25 C 307.56 287.05 309.01 289.73 307.59 290.69 C 306.08 291.89 304.61 289.20 306.05 288.25 Z" />
</g>
<g id="#d6d6dcff">
<path fill="#d6d6dc" opacity="1.00" d=" M 326.98 290.36 C 327.13 287.79 331.34 286.87 331.07 290.03 C 329.71 290.20 328.34 290.31 326.98 290.36 Z" />
</g>
<g id="#807b80ff">
<path fill="#807b80" opacity="1.00" d=" M 236.17 289.61 C 237.44 288.23 239.81 290.39 238.56 291.79 C 237.27 293.18 234.91 291.01 236.17 289.61 Z" />
</g>
<g id="#8a8e85ff">
<path fill="#8a8e85" opacity="1.00" d=" M 356.91 289.53 L 357.53 289.50 C 360.22 289.46 362.91 289.36 365.58 289.00 C 372.76 289.10 379.98 289.67 387.12 288.68 L 387.82 288.60 C 390.06 288.69 392.30 288.78 394.55 288.84 C 400.93 289.26 407.39 288.29 413.72 289.47 L 414.63 289.62 C 408.06 290.56 401.41 290.62 394.80 290.71 C 394.61 292.25 394.36 293.78 394.04 295.30 C 396.55 295.83 398.96 295.02 401.17 293.88 C 402.19 294.41 403.21 294.95 404.25 295.46 C 402.46 296.03 400.70 296.70 398.94 297.36 C 401.13 298.09 403.31 298.89 405.47 299.73 C 408.56 301.34 412.23 301.70 415.01 303.89 C 412.74 303.45 410.21 303.12 408.39 304.89 C 410.77 305.18 413.16 305.39 415.56 305.40 C 411.92 305.81 408.24 305.90 404.63 305.24 C 399.11 302.58 392.41 302.79 386.86 305.25 C 386.16 305.16 385.47 305.10 384.77 305.07 C 384.18 303.58 383.58 302.10 383.00 300.62 C 388.38 301.04 393.81 300.11 398.75 297.95 C 392.12 297.27 385.45 297.60 378.80 297.49 C 380.32 297.11 381.82 296.65 383.32 296.21 C 374.82 295.47 366.29 296.17 357.77 295.81 C 366.21 294.84 374.70 295.72 383.16 295.05 C 381.92 293.55 381.32 290.87 378.99 290.86 C 376.08 290.54 373.17 290.86 370.26 291.01 C 363.67 291.45 357.06 290.87 350.46 291.28 L 350.11 290.11 C 352.38 290.00 354.65 289.80 356.91 289.53 Z" />
</g>
<g id="#6c6e70ff">
<path fill="#6c6e70" opacity="1.00" d=" M 326.98 290.36 C 328.34 290.31 329.71 290.20 331.07 290.03 C 331.79 290.18 333.22 290.48 333.94 290.63 C 334.47 291.40 335.01 292.17 335.58 292.93 C 335.84 293.25 336.35 293.91 336.61 294.23 C 343.68 294.56 350.69 295.80 357.77 295.81 C 366.29 296.17 374.82 295.47 383.32 296.21 C 381.82 296.65 380.32 297.11 378.80 297.49 C 363.94 297.44 349.09 297.92 334.23 298.29 C 330.00 298.48 325.76 298.30 321.57 297.76 C 323.08 297.34 324.60 296.93 326.14 296.62 C 328.42 296.20 332.23 296.00 332.23 292.91 C 330.28 292.43 328.37 291.85 326.45 291.32 L 326.98 290.36 Z" />
</g>
<g id="#a6ad98ff">
<path fill="#a6ad98" opacity="1.00" d=" M 394.80 290.71 C 401.41 290.62 408.06 290.56 414.63 289.62 C 419.80 289.80 425.07 289.67 430.06 291.32 C 431.07 291.60 432.08 291.89 433.10 292.19 C 432.47 292.88 431.83 293.57 431.20 294.27 C 432.31 294.78 433.58 295.09 434.57 295.87 C 431.30 295.30 427.98 295.32 424.71 295.81 C 421.29 296.40 418.02 294.55 414.60 295.19 C 411.17 295.66 407.70 295.77 404.25 295.46 C 403.21 294.95 402.19 294.41 401.17 293.88 C 398.96 295.02 396.55 295.83 394.04 295.30 C 394.36 293.78 394.61 292.25 394.80 290.71 Z" />
</g>
<g id="#e0d6c1f2">
<path fill="#e0d6c1" opacity="0.95" d=" M 433.10 292.19 C 433.73 291.38 434.34 290.55 434.91 289.69 C 435.37 292.81 435.54 295.96 435.77 299.11 C 435.56 298.37 435.12 296.88 434.90 296.13 L 434.57 295.87 C 433.58 295.09 432.31 294.78 431.20 294.27 C 431.83 293.57 432.47 292.88 433.10 292.19 Z" />
</g>
<g id="#a2a599ff">
<path fill="#a2a599" opacity="1.00" d=" M 308.57 293.86 C 313.82 290.40 320.47 291.05 326.45 291.32 C 328.37 291.85 330.28 292.43 332.23 292.91 C 332.23 296.00 328.42 296.20 326.14 296.62 C 323.04 295.61 320.13 294.07 316.97 293.23 C 314.75 293.60 312.78 294.74 310.77 295.67 C 309.99 295.12 309.25 294.52 308.57 293.86 Z" />
</g>
<g id="#afb69fff">
<path fill="#afb69f" opacity="1.00" d=" M 335.58 292.93 C 340.50 292.09 345.49 291.74 350.46 291.28 C 357.06 290.87 363.67 291.45 370.26 291.01 C 373.17 290.86 376.08 290.54 378.99 290.86 C 381.32 290.87 381.92 293.55 383.16 295.05 C 374.70 295.72 366.21 294.84 357.77 295.81 C 350.69 295.80 343.68 294.56 336.61 294.23 C 336.35 293.91 335.84 293.25 335.58 292.93 Z" />
</g>
<g id="#2e3134ff">
<path fill="#2e3134" opacity="1.00" d=" M 235.63 294.47 C 236.99 294.19 238.34 293.85 239.72 293.62 C 240.81 295.34 241.91 297.06 242.97 298.81 C 240.31 297.75 237.84 296.27 235.63 294.47 Z" />
</g>
<g id="#787978ff">
<path fill="#787978" opacity="1.00" d=" M 414.60 295.19 C 418.02 294.55 421.29 296.40 424.71 295.81 C 427.98 295.32 431.30 295.30 434.57 295.87 L 434.90 296.13 C 431.12 296.41 429.12 299.39 427.33 302.33 C 425.24 304.69 422.25 305.54 419.18 305.26 C 417.86 303.58 416.55 301.91 415.23 300.25 C 418.74 300.44 422.25 300.55 425.76 300.73 C 425.79 300.10 425.84 298.84 425.86 298.21 C 418.98 296.37 412.29 299.22 405.47 299.73 C 403.31 298.89 401.13 298.09 398.94 297.36 C 400.70 296.70 402.46 296.03 404.25 295.46 C 407.70 295.77 411.17 295.66 414.60 295.19 Z" />
</g>
<g id="#d49d7eff">
<path fill="#d49d7e" opacity="1.00" d=" M 226.28 300.47 C 227.95 298.33 230.54 297.25 232.80 295.86 C 233.76 296.73 234.72 297.60 235.69 298.48 C 233.85 302.20 230.82 305.29 226.71 306.36 C 226.43 304.45 225.25 302.32 226.28 300.47 Z" />
</g>
<g id="#bfc8abff">
<path fill="#bfc8ab" opacity="1.00" d=" M 253.66 299.57 C 255.71 298.38 257.80 297.24 259.84 296.02 C 262.10 296.45 264.43 297.03 266.19 298.62 C 267.17 299.75 268.09 300.92 269.05 302.06 C 264.81 301.73 260.58 302.25 256.35 302.29 C 254.81 302.39 254.45 300.51 253.66 299.57 Z" />
</g>
<g id="#b9beacff">
<path fill="#b9beac" opacity="1.00" d=" M 334.23 298.29 C 349.09 297.92 363.94 297.44 378.80 297.49 C 385.45 297.60 392.12 297.27 398.75 297.95 C 393.81 300.11 388.38 301.04 383.00 300.62 C 368.77 299.49 354.47 301.30 340.21 300.67 C 335.38 300.42 330.54 300.40 325.71 300.63 C 323.30 300.80 320.96 300.10 318.74 299.25 C 323.88 298.64 329.06 298.56 334.23 298.29 Z" />
</g>
<g id="#a4ab97ff">
<path fill="#a4ab97" opacity="1.00" d=" M 405.47 299.73 C 412.29 299.22 418.98 296.37 425.86 298.21 C 425.84 298.84 425.79 300.10 425.76 300.73 C 422.25 300.55 418.74 300.44 415.23 300.25 C 416.55 301.91 417.86 303.58 419.18 305.26 C 418.55 305.28 417.28 305.31 416.65 305.33 C 416.24 304.97 415.42 304.25 415.01 303.89 C 412.23 301.70 408.56 301.34 405.47 299.73 Z" />
</g>
<g id="#3d3c3aff">
<path fill="#3d3c3a" opacity="1.00" d=" M 235.69 298.48 C 236.86 298.69 238.02 298.91 239.19 299.14 C 239.41 300.98 239.63 302.83 239.87 304.67 C 239.09 305.23 238.32 305.79 237.55 306.36 C 233.24 307.72 228.91 309.49 224.32 309.52 C 220.89 309.52 218.04 307.38 215.23 305.72 C 215.51 304.17 215.79 302.63 216.09 301.09 C 219.53 301.85 221.97 304.40 224.02 307.09 C 224.92 306.86 225.81 306.62 226.71 306.36 C 230.82 305.29 233.85 302.20 235.69 298.48 Z" />
</g>
<g id="#b7bbadff">
<path fill="#b7bbad" opacity="1.00" d=" M 303.41 299.81 C 308.05 297.44 313.41 299.10 318.35 299.23 C 314.58 303.35 308.02 301.27 303.41 299.81 Z" />
</g>
<g id="#33241a5c">
<path fill="#33241a" opacity="0.36" d=" M 468.24 300.45 C 471.99 299.84 475.26 297.19 479.27 297.66 C 476.12 300.40 471.99 301.16 468.05 301.99 C 463.86 302.77 459.86 305.67 455.48 304.21 C 459.45 302.12 463.61 300.05 468.24 300.45 Z" />
</g>
<g id="#bdbabcff">
<path fill="#bdbabc" opacity="1.00" d=" M 243.08 299.21 C 246.41 299.39 241.51 302.18 243.08 299.21 Z" />
</g>
<g id="#939685ff">
<path fill="#939685" opacity="1.00" d=" M 253.67 304.33 C 253.65 302.74 253.59 301.16 253.66 299.57 C 254.45 300.51 254.81 302.39 256.35 302.29 C 260.58 302.25 264.81 301.73 269.05 302.06 C 269.26 302.30 269.69 302.78 269.90 303.02 C 264.64 304.63 259.12 305.10 253.67 304.33 Z" />
</g>
<g id="#433533ff">
<path fill="#433533" opacity="1.00" d=" M 295.96 301.68 C 298.04 301.29 299.64 302.43 300.43 304.31 C 299.22 305.44 298.09 306.64 296.95 307.83 C 291.92 307.82 286.89 307.73 281.88 308.04 C 282.82 307.00 283.76 305.95 284.75 304.96 C 287.98 304.98 291.94 306.10 294.37 303.27 C 294.77 302.87 295.56 302.07 295.96 301.68 Z" />
</g>
<g id="#d0ced8ff">
<path fill="#d0ced8" opacity="1.00" d=" M 279.70 303.21 C 280.32 301.53 282.11 303.37 282.22 304.41 C 281.84 304.82 281.08 305.65 280.70 306.07 C 279.90 305.26 279.56 304.31 279.70 303.21 Z" />
</g>
<g id="#565653ff">
<path fill="#565653" opacity="1.00" d=" M 309.88 305.58 C 311.94 304.40 313.92 303.00 316.22 302.34 C 318.78 302.37 321.28 303.06 323.83 303.32 C 328.52 303.50 332.51 306.00 336.63 307.91 C 333.50 310.68 331.40 314.47 327.97 316.93 C 323.19 320.67 317.51 324.38 311.16 323.67 C 307.10 322.94 302.98 323.44 298.91 323.83 C 299.30 323.69 300.08 323.41 300.47 323.26 C 301.94 322.69 303.40 322.10 304.87 321.53 C 303.87 319.45 302.87 317.38 301.70 315.40 C 300.06 315.29 298.42 315.18 296.78 315.08 C 296.61 314.19 296.47 313.30 296.36 312.41 C 296.41 312.06 296.52 311.35 296.57 311.00 C 296.66 310.21 296.85 308.62 296.95 307.83 C 298.09 306.64 299.22 305.44 300.43 304.31 C 303.58 302.63 306.92 304.30 309.88 305.58 M 323.82 310.13 C 325.19 311.87 326.70 313.49 328.31 315.02 C 330.41 313.78 331.83 311.76 333.16 309.77 C 332.07 308.81 331.00 307.81 329.99 306.76 C 327.86 307.74 325.80 308.87 323.82 310.13 M 310.72 309.69 C 308.06 312.71 308.69 317.15 308.28 320.88 C 312.70 318.96 317.50 317.89 321.74 315.57 C 322.95 313.39 321.77 309.61 318.99 309.46 C 316.25 309.14 313.43 309.18 310.72 309.69 Z" />
</g>
<g id="#706e6eff">
<path fill="#706e6e" opacity="1.00" d=" M 323.83 303.32 C 332.21 302.51 340.82 300.31 349.15 302.64 C 345.70 302.17 342.05 302.13 338.96 303.95 C 337.76 304.53 337.39 305.52 337.86 306.91 C 337.55 307.16 336.94 307.66 336.63 307.91 C 332.51 306.00 328.52 303.50 323.83 303.32 Z" />
</g>
<g id="#3b3c3dff">
<path fill="#3b3c3d" opacity="1.00" d=" M 419.18 305.26 C 422.25 305.54 425.24 304.69 427.33 302.33 C 426.64 303.31 426.13 304.44 425.25 305.27 C 422.31 305.81 419.30 305.73 416.34 305.97 C 415.80 309.45 414.56 312.77 412.84 315.83 L 413.17 314.87 C 413.70 313.05 414.25 311.23 414.83 309.43 C 411.65 306.20 407.19 306.54 403.09 307.19 C 401.28 307.27 399.47 307.25 397.67 307.26 C 391.78 307.21 386.26 309.53 380.57 310.71 C 380.54 309.45 380.52 308.19 380.49 306.93 C 379.12 307.89 378.15 310.10 376.24 309.80 C 375.31 308.96 374.41 308.09 373.51 307.23 C 372.29 307.44 371.06 307.66 369.85 307.89 C 369.27 307.94 368.11 308.05 367.53 308.11 C 362.84 308.10 358.12 307.53 353.63 306.20 C 352.26 305.28 351.15 304.03 349.89 302.99 C 352.20 304.06 354.38 305.63 356.97 305.91 C 366.24 306.72 375.59 306.59 384.77 305.07 C 385.47 305.10 386.16 305.16 386.86 305.25 C 392.73 306.40 398.76 306.55 404.63 305.24 C 408.24 305.90 411.92 305.81 415.56 305.40 L 416.65 305.33 C 417.28 305.31 418.55 305.28 419.18 305.26 Z" />
</g>
<g id="#858288ff">
<path fill="#858288" opacity="1.00" d=" M 284.75 304.96 C 287.18 302.10 291.11 303.21 294.37 303.27 C 291.94 306.10 287.98 304.98 284.75 304.96 Z" />
</g>
<g id="#c5c2c9ff">
<path fill="#c5c2c9" opacity="1.00" d=" M 408.39 304.89 C 410.21 303.12 412.74 303.45 415.01 303.89 C 415.42 304.25 416.24 304.97 416.65 305.33 L 415.56 305.40 C 413.16 305.39 410.77 305.18 408.39 304.89 Z" />
</g>
<g id="#7b7779ff">
<path fill="#7b7779" opacity="1.00" d=" M 239.87 304.67 C 243.38 304.85 246.87 305.30 250.38 305.55 C 247.68 306.52 245.06 307.68 242.48 308.91 C 242.12 308.88 241.39 308.82 241.02 308.80 C 239.64 308.20 238.30 307.51 236.96 306.84 L 237.55 306.36 C 238.32 305.79 239.09 305.23 239.87 304.67 Z" />
</g>
<g id="#30302fb4">
<path fill="#30302f" opacity="0.71" d=" M 337.86 306.91 C 337.39 305.52 337.76 304.53 338.96 303.95 C 339.51 305.21 339.15 306.20 337.86 306.91 Z" />
</g>
<g id="#a78260c3">
<path fill="#a78260" opacity="0.76" d=" M 450.75 306.93 C 450.81 306.86 450.93 306.73 450.99 306.66 C 450.93 306.73 450.81 306.86 450.75 306.93 Z" />
</g>
<g id="#cd987aff">
<path fill="#cd987a" opacity="1.00" d=" M 221.53 311.73 C 226.83 310.75 233.06 311.24 236.96 306.84 C 238.30 307.51 239.64 308.20 241.02 308.80 C 240.97 309.28 240.86 310.24 240.80 310.72 C 236.67 314.47 231.43 316.56 226.54 319.10 C 225.29 318.42 224.01 317.82 222.72 317.22 C 222.16 315.91 221.52 314.64 220.91 313.36 C 221.06 312.96 221.37 312.14 221.53 311.73 Z" />
</g>
<g id="#666565ff">
<path fill="#666565" opacity="1.00" d=" M 323.82 310.13 C 325.80 308.87 327.86 307.74 329.99 306.76 C 331.00 307.81 332.07 308.81 333.16 309.77 C 331.83 311.76 330.41 313.78 328.31 315.02 C 326.70 313.49 325.19 311.87 323.82 310.13 Z" />
</g>
<g id="#85868bff">
<path fill="#85868b" opacity="1.00" d=" M 367.53 308.11 C 368.11 308.05 369.27 307.94 369.85 307.89 C 371.96 308.59 374.05 309.38 376.24 309.80 C 378.15 310.10 379.12 307.89 380.49 306.93 C 380.52 308.19 380.54 309.45 380.57 310.71 C 386.26 309.53 391.78 307.21 397.67 307.26 C 397.94 308.36 398.22 309.46 398.52 310.57 C 399.77 310.57 401.02 310.57 402.29 310.58 C 402.55 309.45 402.82 308.32 403.09 307.19 C 407.19 306.54 411.65 306.20 414.83 309.43 C 414.25 311.23 413.70 313.05 413.17 314.87 C 409.04 310.66 401.93 311.32 396.94 313.57 C 394.36 312.59 391.81 311.26 389.02 311.13 C 387.16 311.35 385.42 312.06 383.64 312.60 C 379.83 312.73 376.14 311.54 372.56 310.42 C 370.87 309.66 369.22 308.84 367.53 308.11 Z" />
</g>
<g id="#f7f5fbff">
<path fill="#f7f5fb" opacity="1.00" d=" M 397.67 307.26 C 399.47 307.25 401.28 307.27 403.09 307.19 C 402.82 308.32 402.55 309.45 402.29 310.58 C 401.02 310.57 399.77 310.57 398.52 310.57 C 398.22 309.46 397.94 308.36 397.67 307.26 Z" />
</g>
<g id="#040303c6">
<path fill="#040303" opacity="0.78" d=" M 255.93 309.69 C 259.68 307.67 263.77 309.50 267.60 310.19 C 266.64 310.66 265.68 311.13 264.72 311.61 C 261.70 311.72 258.68 311.64 255.66 311.67 C 255.73 311.17 255.86 310.18 255.93 309.69 Z" />
</g>
<g id="#00000010">
<path fill="#000000" opacity="0.06" d=" M 267.60 310.19 C 272.21 308.68 277.05 308.22 281.88 308.04 C 286.89 307.73 291.92 307.82 296.95 307.83 C 296.85 308.62 296.66 310.21 296.57 311.00 C 286.04 312.95 275.33 311.94 264.72 311.61 C 265.68 311.13 266.64 310.66 267.60 310.19 Z" />
</g>
<g id="#3e3e3bff">
<path fill="#3e3e3b" opacity="1.00" d=" M 241.02 308.80 C 241.39 308.82 242.12 308.88 242.48 308.91 C 246.94 309.43 251.43 310.24 255.93 309.69 C 255.86 310.18 255.73 311.17 255.66 311.67 C 254.43 312.19 253.21 312.71 251.99 313.23 C 249.71 314.11 247.52 315.32 245.09 315.73 C 242.48 315.54 241.53 312.80 240.80 310.72 C 240.86 310.24 240.97 309.28 241.02 308.80 Z" />
</g>
<g id="#686869ff">
<path fill="#686869" opacity="1.00" d=" M 310.72 309.69 C 313.43 309.18 316.25 309.14 318.99 309.46 C 321.77 309.61 322.95 313.39 321.74 315.57 C 317.50 317.89 312.70 318.96 308.28 320.88 C 308.69 317.15 308.06 312.71 310.72 309.69 Z" />
</g>
<g id="#5c5b58ff">
<path fill="#5c5b58" opacity="1.00" d=" M 226.54 319.10 C 231.43 316.56 236.67 314.47 240.80 310.72 C 241.53 312.80 242.48 315.54 245.09 315.73 C 247.52 315.32 249.71 314.11 251.99 313.23 C 255.71 312.97 259.44 313.20 263.17 313.16 C 258.72 314.41 254.06 314.32 249.56 315.26 C 249.31 316.76 249.05 318.26 248.87 319.77 C 249.13 322.26 249.55 324.74 249.78 327.24 C 249.82 327.98 249.92 329.45 249.96 330.18 C 246.79 329.56 243.59 329.21 240.39 328.80 C 239.57 330.45 238.74 332.11 237.91 333.76 C 236.51 333.70 235.13 333.59 233.75 333.45 C 234.52 333.29 236.07 332.97 236.84 332.81 C 236.86 331.19 236.92 329.57 236.98 327.96 C 234.61 328.23 232.23 328.49 229.86 328.79 C 231.18 325.08 228.93 321.75 226.54 319.10 Z" />
</g>
<g id="#614535d7">
<path fill="#614535" opacity="0.84" d=" M 264.72 311.61 C 275.33 311.94 286.04 312.95 296.57 311.00 C 296.52 311.35 296.41 312.06 296.36 312.41 C 285.31 313.45 274.21 312.19 263.17 313.16 C 259.44 313.20 255.71 312.97 251.99 313.23 C 253.21 312.71 254.43 312.19 255.66 311.67 C 258.68 311.64 261.70 311.72 264.72 311.61 Z" />
</g>
<g id="#636469fe">
<path fill="#636469" opacity="1.00" d=" M 383.64 312.60 C 385.42 312.06 387.16 311.35 389.02 311.13 C 391.81 311.26 394.36 312.59 396.94 313.57 C 401.93 311.32 409.04 310.66 413.17 314.87 L 412.84 315.83 C 408.03 318.87 401.81 317.07 396.54 316.31 C 391.86 316.11 388.47 311.82 383.64 312.60 Z" />
</g>
<g id="#9f7b5bba">
<path fill="#9f7b5b" opacity="0.73" d=" M 447.15 312.53 C 447.64 312.18 448.62 311.50 449.11 311.15 C 448.62 311.50 447.64 312.18 447.15 312.53 Z" />
</g>
<g id="#bc8a6bff">
<path fill="#bc8a6b" opacity="1.00" d=" M 263.17 313.16 C 274.21 312.19 285.31 313.45 296.36 312.41 C 296.47 313.30 296.61 314.19 296.78 315.08 L 296.96 315.90 C 289.45 316.26 281.91 317.13 274.40 316.29 C 270.51 315.82 266.59 316.02 262.73 316.57 C 258.04 317.24 252.92 316.89 248.87 319.77 C 249.05 318.26 249.31 316.76 249.56 315.26 C 254.06 314.32 258.72 314.41 263.17 313.16 Z" />
</g>
<g id="#dca789ff">
<path fill="#dca789" opacity="1.00" d=" M 262.73 316.57 C 266.59 316.02 270.51 315.82 274.40 316.29 C 281.91 317.13 289.45 316.26 296.96 315.90 C 297.32 317.29 297.73 318.67 298.21 320.03 C 291.11 322.41 283.90 324.50 276.73 326.65 C 267.89 328.48 258.71 328.09 249.78 327.24 C 249.55 324.74 249.13 322.26 248.87 319.77 C 252.92 316.89 258.04 317.24 262.73 316.57 Z" />
</g>
<g id="#6e6d6cff">
<path fill="#6e6d6c" opacity="1.00" d=" M 296.78 315.08 C 298.42 315.18 300.06 315.29 301.70 315.40 C 302.87 317.38 303.87 319.45 304.87 321.53 C 303.40 322.10 301.94 322.69 300.47 323.26 C 299.70 322.19 298.93 321.13 298.21 320.03 C 297.73 318.67 297.32 317.29 296.96 315.90 L 296.78 315.08 Z" />
</g>
<g id="#4b4c4aff">
<path fill="#4b4c4a" opacity="1.00" d=" M 222.72 317.22 C 224.01 317.82 225.29 318.42 226.54 319.10 C 228.93 321.75 231.18 325.08 229.86 328.79 C 232.23 328.49 234.61 328.23 236.98 327.96 C 236.92 329.57 236.86 331.19 236.84 332.81 C 236.07 332.97 234.52 333.29 233.75 333.45 C 231.52 333.22 229.36 332.62 227.20 332.06 C 227.89 326.49 223.47 322.47 222.72 317.22 Z" />
</g>
<g id="#b9886cff">
<path fill="#b9886c" opacity="1.00" d=" M 276.73 326.65 C 283.90 324.50 291.11 322.41 298.21 320.03 C 298.93 321.13 299.70 322.19 300.47 323.26 C 300.08 323.41 299.30 323.69 298.91 323.83 C 297.51 324.18 296.12 324.52 294.71 324.82 C 289.17 325.68 283.69 326.91 278.22 328.18 C 275.02 328.61 271.84 329.18 268.70 329.94 C 268.29 330.02 267.47 330.18 267.06 330.25 C 265.01 329.41 262.74 329.55 260.91 330.81 C 260.50 330.84 259.67 330.90 259.26 330.93 C 257.69 331.04 256.12 331.16 254.54 331.20 C 253.01 330.89 251.49 330.51 249.96 330.18 C 249.92 329.45 249.82 327.98 249.78 327.24 C 258.71 328.09 267.89 328.48 276.73 326.65 Z" />
</g>
<g id="#454545ff">
<path fill="#454545" opacity="1.00" d=" M 240.39 328.80 C 243.59 329.21 246.79 329.56 249.96 330.18 C 251.49 330.51 253.01 330.89 254.54 331.20 C 253.17 332.27 251.94 333.92 250.01 333.76 C 245.97 333.94 241.94 333.76 237.91 333.76 C 238.74 332.11 239.57 330.45 240.39 328.80 Z" />
</g>
<g id="#4c362a98">
<path fill="#4c362a" opacity="0.60" d=" M 268.70 329.94 C 271.84 329.18 275.02 328.61 278.22 328.18 C 275.11 329.05 271.91 329.58 268.70 329.94 Z" />
</g>
<g id="#5d4334b4">
<path fill="#5d4334" opacity="0.71" d=" M 260.91 330.81 C 262.74 329.55 265.01 329.41 267.06 330.25 C 265.18 331.38 262.96 331.53 260.91 330.81 Z" />
</g>
<g id="#6f6d6cff">
<path fill="#6f6d6c" opacity="1.00" d=" M 254.54 331.20 C 256.12 331.16 257.69 331.04 259.26 330.93 C 257.86 332.93 256.74 335.39 254.38 336.43 C 249.62 338.83 244.34 340.42 238.98 340.43 C 235.51 339.98 232.29 338.35 229.20 336.79 C 227.29 335.99 227.32 333.79 227.20 332.06 C 229.36 332.62 231.52 333.22 233.75 333.45 C 235.13 333.59 236.51 333.70 237.91 333.76 C 241.94 333.76 245.97 333.94 250.01 333.76 C 251.94 333.92 253.17 332.27 254.54 331.20 Z" />
</g>
</svg>
