<svg xmlns="http://www.w3.org/2000/svg" width="682.667" height="682.667" viewBox="0 0 512 512"  xmlns:v="https://vecta.io/nano"><path fill="#503d2d" opacity=".43" d="M289.49 9.36l5.01-.06c2.09 4.28 1.99 9.03 1.65 13.65-.81-2.57-.91-5.27-1.16-7.93a91.19 91.19 0 0 0-1.01-3.69l-2.23-1.03-2.95 1.24.69-2.18z"/><path fill="#6d5640" opacity=".52" d="M288.8 11.54l2.95-1.24 2.23 1.03c-1.67.84-4.01 1.08-4.81 3.02-.46 2.22-.21 4.51-.31 6.77-1.23 4.89-1.04 9.92-1.07 14.91.07 2.32-1.55 4.13-2.74 5.95 2.56-9.96 2.32-20.31 3.75-30.44z"/><path fill="#fadfab" d="M289.17 14.35c.8-1.94 3.14-2.18 4.81-3.02l1.01 3.69-3.73-.86-2.4 6.96c.1-2.26-.15-4.55.31-6.77z"/><path fill="#fff" d="M291.26 14.16l3.73.86c.25 2.66.35 5.36 1.16 7.93l.61 2.24c.33 3.62-.02 7.27.3 10.89.29 2.83 1.88 5.29 2.48 8.04.22 2.25-.28 4.48-.39 6.71-.64 4.97 1.9 10.27 6.16 12.89l1.3.79c.28 1.15.62 2.29.75 3.46-.55 1.45-1.62 2.61-2.55 3.82l-.53.51c-2.19 2.44-5.08 4.11-8.27 4.86l-.98.03-5.14-.1c-5.06-1.62-8.55-5.84-13.14-8.31.67-2.39 1.45-4.81 3.01-6.79 1.28-1.54 2.1-3.37 2.17-5.38 1.46-1.55 2.83-3.26 3.29-5.39l.8-3.3c.49-1.38.08-2.36-1.22-2.93l.25-3.01c1.19-1.82 2.81-3.63 2.74-5.95.03-4.99-.16-10.02 1.07-14.91.69-2.35 1.54-4.66 2.4-6.96z"/><path fill="#5f4b38" opacity=".49" d="M296.76 25.19c.84 2.77.99 5.67 1.3 8.53 1.05 6.12 2.94 12.07 4.05 18.18l.1 1.67-2.38-1.38-.68-1.36c.11-2.23.61-4.46.39-6.71-.6-2.75-2.19-5.21-2.48-8.04-.32-3.62.03-7.27-.3-10.89z"/><path fill="#0c0705" opacity=".15" d="M298.06 33.72c1.69 1.79 3.73 3.51 4.3 6.03 1.37 5.26 1.22 10.82 2.84 16.04.84 2.61 2.88 4.54 4.58 6.61-1.69-.99-3.98-1.44-4.86-3.38-1.2-2.26-2-4.7-2.81-7.12-1.11-6.11-3-12.06-4.05-18.18z"/><path fill="#473325" opacity=".43" d="M281.18 53c1.17-3.72 3.01-7.2 3.87-11.02l-.25 3.01c-.39 1.36.02 2.34 1.22 2.93l-.8 3.3-4.04 1.78z"/><path fill="#f7e8b3" opacity=".97" d="M284.8 44.99c1.3.57 1.71 1.55 1.22 2.93-1.2-.59-1.61-1.57-1.22-2.93z"/><path fill="#a98865" opacity=".73" d="M281.18 53l4.04-1.78c-.46 2.13-1.83 3.84-3.29 5.39l-.75-3.61z"/><path fill="#fffbd1" d="M299.15 50.83l.68 1.36c2.03 3.74 3.79 7.62 5.48 11.53-4.26-2.62-6.8-7.92-6.16-12.89z"/><path fill="#d5a77b" opacity=".91" d="M299.83 52.19l2.38 1.38-.1-1.67c.81 2.42 1.61 4.86 2.81 7.12.88 1.94 3.17 2.39 4.86 3.38 2.14 1.72 2.74 4.88 1.36 7.25-1.9 1.61-4.59 1.8-6.86 2.65l.53-.51c2.31-1.22 4.84-2.35 5.99-4.88l-4.19-2.4-1.3-.79c-1.69-3.91-3.45-7.79-5.48-11.53z"/><path fill="#ffebb5" d="M274.34 61.36l5.42.63c-1.56 1.98-2.34 4.4-3.01 6.79-1.1-.85-2.3-1.72-2.94-2.99-.2-1.5.32-2.97.53-4.43z"/><path fill="#fffcd3" d="M306.61 64.51l4.19 2.4c-1.15 2.53-3.68 3.66-5.99 4.88.93-1.21 2-2.37 2.55-3.82-.13-1.17-.47-2.31-.75-3.46z"/><path fill="#dad1ce" opacity=".97" d="M289.89 77.09l5.14.1-.26 4.06-3.61-3.16-1.27-1z"/><path fill="#8b8c82" d="M295.03 77.19l.98-.03.61 4.14 3.89 2.46-.08 2.92-2.68-.2c-.29 2.33-.1 4.66.1 6.99l-.02.24v1.75l-3.14.66c-.86-2.1-1.92-4.09-3.02-6.06l2.81-1.5.29-7.31.26-4.06z"/><path fill="#9ba090" d="M291.16 78.09l3.61 3.16-.29 7.31-2.81 1.5 3.02 6.06.27.72-3.43.57-1.88-1.38c-.01-4.61-.01-9.22.46-13.81l.23-.92.82-3.21z"/><path opacity=".75" d="M281.47 81.56c2.93-.48 5.91-.24 8.87-.26l-.23.92-7.98.09-.5 15.07c-.21 4.57.76 9.11.68 13.68-.08 2.88-1.73 5.37-2.44 8.09-.03 2.17 1.31 4.07 2.05 6.05-.88 1.13-1.76 2.26-2.57 3.44-2.9-2.1-5.65-4.41-8.28-6.83 2.14-4.24 6.46-7.68 6.5-12.73.32-6.74 1.4-13.42 1.55-20.17.39-2.46-.02-5.81 2.35-7.35z"/><path fill="#5b5c5e" d="M282.13 82.31l7.98-.09c-.47 4.59-.47 9.2-.46 13.81l.11 20.94.17 6.82 2.3-.26-3.06 3.39.04-.84a42.8 42.8 0 0 0-.06-4.24c-.07-1.19-.17-2.37-.29-3.54l-1.11-3.82.22-.77.16-1.76-.07-.91.11-1.92.05-3.89c.09-3.22-.08-6.43-.33-9.64l.11-.9-.04-1.89.13-.91V89.1l-.41-2.88-4.44 1.1c-.82 5.36-.34 10.79.15 16.16.55 6.01-.08 12.08.64 18.08l-.72.6c-.08.48-.26 1.44-.35 1.91l.02.89.21 1.8.22.81c-.08 3.05.11 6.09.51 9.11a184.96 184.96 0 0 1-.14 9.42l-.95.04c-.1-3.1-.51-6.21-1.48-9.17-1.37-1.17-2.81-2.26-4.25-3.34.78-1.65 1.45-3.35 2.25-4.99.81-1.18 1.69-2.31 2.57-3.44-.74-1.98-2.08-3.88-2.05-6.05.71-2.72 2.36-5.21 2.44-8.09.08-4.57-.89-9.11-.68-13.68l.5-15.07z"/><path fill="#312f2f" opacity=".9" d="M300.51 83.76l4.24 2.64.78 9.19 5.33 1.43c-2.78.17-3.97 3.19-5.7 4.97l-.55-5.54c-.57-3.28.82-7.65-2.07-10.02-.07 3.65.13 7.54-2.21 10.62-.1-3.45-.01-6.91.1-10.37l.08-2.92z"/><path fill="#b7bac3" d="M283.24 87.32l4.44-1.1.41 2.88c-2.91-1.07-2.93 3.92 0 2.79l-.13.91-1.75.44-.34.82.41.76 1.72-.13-.11.9c-1.66 2.37-2.47 5.13-2.59 8.01l2.92 1.63-.05 3.89h-1.75l-.42.78.34.81 1.72.33.07.91-1.82.2-.41.82.36.78 1.71-.04-.22.77c-1.09 1.72-1.72 3.64-1.62 5.69l2.73-1.87.29 3.54-1.58-.92c-2.45 1.3-.73 4.3-.25 6.27l1.89-1.11-.04.84-.48.52-2.11 1.95c-.3 1.63.44 3.24.75 4.82l1.45-1.38-.09 1.72c-.81 1.14-2.27 2.06-2.2 3.62-.31 1.95.93 3.55 2.04 5.01l-.05.73c-.92 1.87-2.11 3.76-1.92 5.94.16 4.81.32 9.65 1.45 14.35.01 2.91-.34 5.81-.27 8.72-2.96-.02-5.92-.24-8.8-.93-.3-2.43-.64-4.85-1.05-7.26l3.82-.06c.06 3.12 1.41 7.44 5.14 7.54-.11-2.63-.71-5.19-1.74-7.6-2.48-5.86-1.31-12.35-1.33-18.51a184.96 184.96 0 0 0 .14-9.42c.73-3.02 2.03-6.55-.51-9.11l-.22-.81 1.73-.07.33-.82-.45-.77-1.82-.14-.02-.89a111.69 111.69 0 0 0 1.71-.19l.31-.86-.95-1.46c-.72-6-.09-12.07-.64-18.08-.49-5.37-.97-10.8-.15-16.16z"/><path fill="#a3a997" d="M297.75 86.48l2.68.2c-.11 3.46-.2 6.92-.1 10.37 2.34-3.08 2.14-6.97 2.21-10.62 2.89 2.37 1.5 6.74 2.07 10.02l-1.09 1.29c-1.04.38-2.09.71-3.14 1.06.09 2.8.17 5.73-1.15 8.31-.01-3.94-.99-7.76-1.4-11.65v-1.75c.01-.06.01-.18.02-.24-.2-2.33-.39-4.66-.1-6.99z"/><path fill="#d7d3e0" d="M288.09 91.89c-2.93 1.13-2.91-3.86 0-2.79v2.79z"/><path fill="#dddce8" d="M286.21 93.24l1.75-.44.04 1.89-1.72.13-.41-.76.34-.82z"/><path fill="#f0f0ed" d="M297.85 93.47c-.01.06-.01.18-.02.24l.02-.24z"/><path fill="#65646a" d="M294.69 96.12l3.14-.66c.41 3.89 1.39 7.71 1.4 11.65a56.26 56.26 0 0 1-1.31 2.84c-.38-.14-1.12-.44-1.49-.58-.46-4.18-.1-8.49-1.47-12.53l-.27-.72z"/><path fill="#dddde7" d="M285.3 103.6c.12-2.88.93-5.64 2.59-8.01l.33 9.64-2.92-1.63z"/><path fill="#acb499" d="M289.65 96.03l1.88 1.38 3.43-.57c.14 4.14.24 8.33-.82 12.37-.76 2.84.51 5.65 1.07 8.41l-5.45-.65c-.25-6.98-.04-13.96-.11-20.94z"/><path fill="#8d9283" d="M294.96 96.84c1.37 4.04 1.01 8.35 1.47 12.53l1.49.58 1.24.5c.56 1.78.9 3.63 1.25 5.47l.96-2.88a101.6 101.6 0 0 1 1.18 3.48c-.02 2.81.57 5.56 1.26 8.27-.18 2.21-.57 4.41-1.14 6.56-.7-2.05-1-4.23-1.15-6.41-.42 2.06-.88 4.12-1.11 6.22-.51-4.24.98-9.76-3.01-12.68-1.86.46-3.53 1.41-5.11 2.44 1.43 2.51 2.91 5.12 3.01 8.09l-2.33.65-1.43-1.58-1.86-.39-.99-.25.48-.52 3.06-3.39-2.3.26-.17-6.82 5.45.65c-.56-2.76-1.83-5.57-1.07-8.41 1.06-4.04.96-8.23.82-12.37m3.15 19.45l-.42.71.4.72.82.01.43-.71-.41-.72-.82-.01z"/><path fill="#838486" d="M300.38 98.8l3.14-1.06c.06 1.9.29 3.8.53 5.7l1.11-1.45c1.73-1.78 2.92-4.8 5.7-4.97l5.22 1.9-4.61.25c.71 3.3-.16 6.59-.64 9.84l-4.6 1.01 1.26 4.69 2.68-.36.56-3.28.75-.6c.81 1.47 2.2 2.79 2.38 4.53-.94 2.86-3.25 5.46-2.58 8.65.55 4.16.61 8.38-.08 12.53l-.72 3.38c-.89 1.48-1.9 2.87-2.91 4.26l-.09-.75c.28-2.03 1.77-4.21.61-6.19l-.76-1.67 2.61.26c.02-3.22-.18-6.44-.56-9.63.35-1.66 1.78-3.73.45-5.26-2.14.2-.94 3.34-.63 4.66-.61-2.13-1.21-4.38-3.1-5.75-.25 1.85-.46 3.72-.57 5.6-.51-5.8-.31-11.63-.77-17.43-3.23 1.94-.71 5.98-2.21 8.86a101.6 101.6 0 0 0-1.18-3.48l-.96 2.88c-.35-1.84-.69-3.69-1.25-5.47l-1.24-.5a56.26 56.26 0 0 0 1.31-2.84c1.32-2.58 1.24-5.51 1.15-8.31m4.88 5.76c-.94 1.15-.7 1.82.72 1.99.92-1.16.68-1.82-.72-1.99m2.05-.5c-1.23 1.53 1.54 2.87 2.49 1.5 1.23-1.53-1.54-2.87-2.49-1.5m-4.97 1.03l-.34.83.35.83.83.34.83-.35.35-.83-.35-.83-.83-.33-.84.34z"/><path fill="#c1bfc4" d="M304.61 96.45l.55 5.54-1.11 1.45-.53-5.7 1.09-1.29z"/><path fill="#6f6f75" d="M311.47 99.17l4.61-.25c.97 4.27.91 8.67.51 13l-2.37-3.6-2.74 2.15-.75.6.1-2.06c.48-3.25 1.35-6.54.64-9.84z"/><path fill="#5d5d62" d="M305.26 104.56c1.4.17 1.64.83.72 1.99-1.42-.17-1.66-.84-.72-1.99z"/><path fill="#a7a7ac" d="M307.31 104.06c.95-1.37 3.72-.03 2.49 1.5-.95 1.37-3.72.03-2.49-1.5z"/><path fill="#a9a8b1" d="M302.34 105.09l.84-.34.83.33.35.83-.35.83-.83.35-.83-.34-.35-.83.34-.83z"/><path fill="#b6b3b9" d="M302.55 116.52c1.5-2.88-1.02-6.92 2.21-8.86.46 5.8.26 11.63.77 17.43v.89l-1.53-.41-.19-.78c-.69-2.71-1.28-5.46-1.26-8.27z"/><path fill="#505052" d="M314.22 108.32l2.37 3.6c-.25 3.51-.76 7.09-2.61 10.16-1.75 2.54-.71 5.64-1.07 8.48-.34 1.93-1.15 3.74-1.71 5.62.69-4.15.63-8.37.08-12.53-.67-3.19 1.64-5.79 2.58-8.65-.18-1.74-1.57-3.06-2.38-4.53l2.74-2.15z"/><path fill="#e8e7f2" d="M286.42 109.12h1.75l-.11 1.92-1.72-.33-.34-.81.42-.78z"/><path fill="#f0eef6" d="M306.23 110.02l4.6-1.01-.1 2.06-.56 3.28-2.68.36-1.26-4.69z"/><path fill="#e9e8f2" d="M286.31 112.15l1.82-.2-.16 1.76-1.71.04-.36-.78.41-.82z"/><path fill="#e5e4ed" d="M286.13 120.17c-.1-2.05.53-3.97 1.62-5.69l1.11 3.82-2.73 1.87z"/><path fill="#c4c4c3" d="M298.11 116.29l.82.01.41.72-.43.71-.82-.01-.4-.72.42-.71z"/><path fill="#727471" d="M292.29 120.92c1.58-1.03 3.25-1.98 5.11-2.44-.76 4.17-.68 8.41-.36 12.61l.1 1.79-.03.75c-.37 7.49.2 14.98.24 22.47.4 13.72 1.26 27.43 1.03 41.16-.99-2.48-2-4.98-2.43-7.63.11-3.1.06-6.19-.25-9.28l-2.67-1.36c-1.08 3.59-2.2 7.24-2.3 11.03-.12 4.62.78 9.18 1.44 13.72l-.9-.15a92.82 92.82 0 0 0-5.24-.71l-.11 5.08 1.03.05c1.92-.01 3.84-.13 5.76-.25l.77-2.97c1.94 1.52 2.42 3.84 2.09 6.18-3.36.24-6.74.09-10.08-.34-2.99-5.1-2.15-11.1-2.23-16.74-.01-2.5 0-5-.13-7.49l1.05 2.29c.78 4.44.67 8.96.93 13.44l2.61-.12 1.89-.13.27-4.05a53.31 53.31 0 0 0-.82-12.1l-.11-.69c.44-1.35.95-2.68 1.39-4.03.66-1.93 1.28-3.87 1.67-5.87l2.39.65c.72-4.22-.02-8.45-1.31-12.49 1.21-1.12 2.53-2.34 2.26-4.17l-.05-30.12c-.1-2.97-1.58-5.58-3.01-8.09z"/><path fill="#bac1ad" d="M297.4 118.48c3.99 2.92 2.5 8.44 3.01 12.68l-3.37-.07c-.32-4.2-.4-8.44.36-12.61z"/><path fill="#484945" d="M306.1 119.49c1.89 1.37 2.49 3.62 3.1 5.75l.18.6c.38 3.19.58 6.41.56 9.63l-2.61-.26.76 1.67-2.02.11c-.46-3.85-1.19-7.65-2.07-11.42l1.53.41v-.89c.11-1.88.32-3.75.57-5.6m2.99 14.6l-.17-4.02c-3.12-.85-2.75 4.66.17 4.02z"/><path fill="#a6a5ab" d="M309.2 125.24c-.31-1.32-1.51-4.46.63-4.66 1.33 1.53-.1 3.6-.45 5.26l-.18-.6z"/><path fill="#e6e5ec" d="M287.32 127.19c-.48-1.97-2.2-4.97.25-6.27l1.58.92a42.8 42.8 0 0 1 .06 4.24l-1.89 1.11z"/><path fill="#f8f9f8" d="M283.31 122.16l.72-.6.95 1.46-.31.86-1.71.19.35-1.91z"/><path fill="#f7f8f8" d="M282.98 124.96l1.82.14.45.77-.33.82-1.73.07-.21-1.8z"/><path fill="#797d6f" d="M300.41 131.16c.23-2.1.69-4.16 1.11-6.22.15 2.18.45 4.36 1.15 6.41.57-2.15.96-4.35 1.14-6.56l.19.78c.88 3.77 1.61 7.57 2.07 11.42.2 2.08.71 4.11 1.41 6.08l.09.75c.4 4.4-.29 8.83-1.43 13.07-.55 2.06-2.27 3.45-3.54 5.06-.92 2.51-1.4 5.26-.75 7.9.78 3.09 3.78 5.12 4.58 8.18-.34 1.88-2.4 2.98-3.55 4.41-.77-3.53-1.57-7.06-1.93-10.66-.08-5.95-.17-11.9-.93-17.81l.12-.8.13-.95c.28-1.93.43-3.88.32-5.82-.36-1.88-.86-3.71-1.38-5.54 1.86-2.94 1.41-6.42 1.2-9.7z"/><path fill="#b1b7a3" d="M289.68 127.69l1.86.39 1.43 1.58 2.33-.65c-.2 10.04 0 20.08.05 30.12.27 1.83-1.05 3.05-2.26 4.17-1.31 2.45-1.32 5.29-1.31 8-.27-3.16-.56-6.32-.7-9.49-.5-11.37.37-22.84-1.4-34.12z"/><path fill="#d5d7d9" d="M283.41 127.57c2.54 2.56 1.24 6.09.51 9.11-.4-3.02-.59-6.06-.51-9.11z"/><path fill="#efeef2" d="M286.58 129.39l2.11-1.95.09 5.39-1.45 1.38c-.31-1.58-1.05-3.19-.75-4.82z"/><path fill="#87898c" d="M288.69 127.44l.99.25c1.77 11.28.9 22.75 1.4 34.12l-2.22 1.69c.58-6.52.18-13.08-.38-19.59l.05-.73c.22-2.87.19-5.75.16-8.63l.09-1.72c.1-1.8 0-3.6-.09-5.39z"/><path fill="#717171" d="M309.09 134.09c-2.92.64-3.29-4.87-.17-4.02l.17 4.02z"/><path fill="#9ea295" d="M297.04 131.09l3.37.07c.21 3.28.66 6.76-1.2 9.7l-1.76 4 3.14 1.54c.11 1.94-.04 3.89-.32 5.82-.2-2.08-.44-4.4-2.33-5.67-.01 2.29-1.14 6.19 2.2 6.62l-.12.8-2.67 2.13c-.04-7.49-.61-14.98-.24-22.47.16.99.73 3.72 2.2 2.48 1.23-1.61-.76-2.93-2.17-3.23l-.1-1.79z"/><path fill="#b9beaf" d="M297.14 132.88c1.41.3 3.4 1.62 2.17 3.23-1.47 1.24-2.04-1.49-2.2-2.48l.03-.75z"/><path fill="#edbb9b" d="M277.1 133.63l4.25 3.34-.19 8.73c-1.67 1.57-3.11 3.37-3.99 5.5-1.73 4.03-4.38 7.54-6.81 11.16-3.3 5.52-9.81 7.53-14.77 11.16-1.63-1.17-3.19-2.43-4.77-3.65 1.44-5.01 5.11-8.78 8.88-12.18a34.03 34.03 0 0 0 8.16-10.87l1.24-1.71c2.66-3.83 5.58-7.48 8-11.48z"/><path fill="#dedde7" d="M286.49 138.17c-.07-1.56 1.39-2.48 2.2-3.62l-.16 8.63c-1.11-1.46-2.35-3.06-2.04-5.01z"/><path fill="#816756" d="M281.35 136.97c.97 2.96 1.38 6.07 1.48 9.17-.23 3.79.88 8.19-1.57 11.46l-.65.72c.05-2.17.11-4.35.25-6.51.16-2.04.24-4.07.3-6.11l.19-8.73z"/><path fill="#2d2f2a" opacity=".56" d="M306.07 136.99l2.02-.11c1.16 1.98-.33 4.16-.61 6.19-.7-1.97-1.21-4-1.41-6.08z"/><path opacity=".04" d="M307.57 143.82l2.91-4.26 2.65 3.22 3.85-1.17c2.05 3.54 4.83 6.85 8.6 8.61 2.32.3 4.66-.09 6.98.19 1.98.89 3.62 2.36 5.37 3.64 1.33-.58 2.72-1.62 4.25-1.06 4.08 1.03 6.69 4.6 9.52 7.44 1.68-1.27 3.39-2.5 5.12-3.7l8.63 9.03 1.19-3.35a155.92 155.92 0 0 1 6.53-1.09l-1.99 4.26c2.11-.05 4.22-.18 6.32.05 2.24.29 4.19 1.53 6.37 2.05 3.18-.15 6.06-1.88 9.24-2.11 2.27.31 4.01 2.04 5.89 3.21l-6.06 1.5c4.83 1.15 10.45 2.81 14.85-.43l1.04 2.13c1.34.72 2.75 1.36 3.97 2.3.7 1.3 1.14 2.71 1.64 4.1.84-.26 1.69-.49 2.51-.85.97-2.15 1.62-4.43 2.49-6.62l.35 3.61c2.89.16 5.8.75 8.27 2.33 3.99 2.41 8.23 4.67 12.99 4.93-1.68-2-4.17-2.89-6.48-3.9 1.09-.58 2.09-1.67 3.43-1.48 3.52.43 6.36 2.85 9.72 3.78 1.97.39 4 .23 5.98.54 1.69.73 2.98 2.11 4.42 3.24l2.32-3.06c.88.62 1.75 1.27 2.71 1.78 3.15.27 6.18-1.06 9.33-1.07 2.84 1.33 5.22 3.49 8.05 4.87a128.83 128.83 0 0 0-3.24-4.43c2.07.62 4.15 1.34 6.32 1.47 3.07.23 6.23-.31 9.22.64 3.02.94 5.91 2.21 8.86 3.36-.31-2.49-.19-5.1 1.88-6.82 1.82.75 3.7 1.34 5.61 1.8l.25 3.39c.87-1.02 1.74-2.05 2.57-3.11V355.9c-1.01-.18-2.01-.33-3.01-.47-1.02 1.48-1.87 3.2-3.39 4.24-2.11.28-4.16-.64-6.26-.53-1.91.56-3.58 1.82-5.56 2.12-2.63-.04-5.17-1.23-7.81-.74-5.13.74-10.38 1.29-15.5.24l-2.77 4.48-4.08-3.37c-2.71.45-5.5.45-8.1-.52.19 1.42 1.73 3.24.24 4.36-3.23-.2-6.57-1.62-7.56-4.94-4.29 1.06-8.72.94-13.09.94-1.33 1.48-2.59 3.49-4.8 3.58-3.04.7-5.33-1.97-8.1-2.52-2.84.46-5.43 1.86-8.25 2.39-2.49.43-5.05.05-7.54.49-1.39.72-2.55 1.78-3.75 2.74l-6.13-2.86-2.77 3.58c-2.96-.89-5.83-2.17-8.91-2.52-2.84.69-5.26 2.54-8.12 3.12-3.45.41-6.87-.61-10.31-.35-2.38.19-4.58 1.48-6.97 1.35-7.48-1.38-15.14-1.35-22.71-1.03-2.43.02-4.78-.63-7.18-.9-2.47-.27-4.88.67-7.34.56-3.09-.48-6.05-1.67-9.2-1.8-4.65-.28-9.32-.11-13.95-.72-4.54-.6-9.11.29-13.66-.19-6.47-.78-13 1.15-19.43-.23-1.77-.31-3.01-1.73-4.33-2.83l2.7-.23c10.8 2.11 21.69-.38 32.53-.31 5.44.73 10.77-.81 16.18-1.14 4.18-.68 8.22-2.69 12.57-1.94 3.25.55 6.58.44 9.57-1.09 1.78.58 3.53 1.46 5.44 1.54 2.73-.61 5.24-2.05 8.04-2.4 2.97-.37 5.96-.68 8.91-1.27.85-2.45 1.63-4.93 2.26-7.45-2.68-1.44-4.78-3.64-6.21-6.31-1.74 1.75-3.54 3.44-5.35 5.12-.88-1.51-1.33-3.61-3.18-4.23-1.9-.8-4-1.24-6.06-1.01-2.47.46-4.67 1.78-7.11 2.34-3.48-.26-6.76-1.76-10.27-1.89l-17.42-1.08c-5.93-.25-11.44-2.96-17.39-3.08-2.55-.16-5.16.15-7.67-.47-2.07-.72-3.86-2.05-5.8-3.06l1.68-2.44c2.09-1.65 4.26-3.21 6.4-4.79 3.36-2.37 6.56-4.93 9.67-7.62 5.3-4.42 10.96-8.38 16.33-12.72 3.04-4.56 4.24-10.29 4.27-15.72 1.92-1.08 3.88-2.1 5.91-2.96 5.74-2.64 11.75-4.78 18.14-4.96 1.38-2.91 2.84-5.78 4.3-8.65 1.47-5.12.07-10.61-2.5-15.13-.82-1.68-1.75-3.29-2.81-4.82-1.55-2.15-3.48-4.21-3.81-6.96-.96-5.67-1.63-11.4-3.03-17-1.44-6.03-2.12-12.26-4.41-18.07l-.36-2.57c-.2-2.53-.32-5.08-.92-7.56l-.37-.55c.95-1.22 2.55-2.35 2.02-4.13-.32-2.51-1.44-4.81-2.46-7.08-1.37-3.16-3.04-6.22-5.26-8.86-1.98-2.2-4.44-3.85-6.81-5.58-2.18-2.18-4.39-4.37-6.07-6.96-1.1-2.69-.67-5.7-.71-8.53 1.27-1.61 2.99-3 3.54-5.06 1.14-4.24 1.83-8.67 1.43-13.07z"/><path fill="#414243" d="M256.47 141.62c2.45-.9 5.12-.52 7.62-.02l-4.29.46c2.3 1.38 4.9 2.08 7.56 2.34l1.74.71-1.24 1.71-1.73 1.39c-1.95-1.09-3.86-2.4-6.08-2.87-2.25.28-4.33 1.26-6.38 2.16-2.26 1.44-4.16 3.33-5.92 5.32l-2.39-2.01c2.82-3.93 6.51-7.47 11.11-9.19z"/><path fill="#b8bcad" d="M297.45 144.86l1.76-4 1.38 5.54-3.14-1.54z"/><path fill="#605e5d" opacity=".93" d="M259.8 142.06l4.29-.46 3.27 2.8c-2.66-.26-5.26-.96-7.56-2.34z"/><path fill="#dfdce7" d="M286.56 149.85c-.19-2.18 1-4.07 1.92-5.94.56 6.51.96 13.07.38 19.59l-.85.7c-1.13-4.7-1.29-9.54-1.45-14.35z"/><path fill="#73716e" d="M253.67 147.5c2.05-.9 4.13-1.88 6.38-2.16 2.22.47 4.13 1.78 6.08 2.87l-2.84 3.25-1.34-4.19-4.87 1.11c.69 2.2 1.54 4.34 2.61 6.38l-2.5.76c-1.2 4.06-4.13 7.18-6.93 10.22-2.02-3.02-5.55-.75-8.05.25l.74-2.08c4.14-1.24 8.59-2.07 11.99-4.93l-.98-2.16-3.2-.49c-.37-3.27 1.32-6.13 2.91-8.83z"/><path fill="#daaa89" d="M277.17 151.2c.88-2.13 2.32-3.93 3.99-5.5l-.3 6.11-6.03 10.02c-3.31 5.57-8.04 10.05-12.1 15.04-2.42-1.04-4.87-2.02-7.14-3.35 4.96-3.63 11.47-5.64 14.77-11.16 2.43-3.62 5.08-7.13 6.81-11.16z"/><path fill="#333132" d="M282.83 146.14l.95-.04c.02 6.16-1.15 12.65 1.33 18.51l-3.4.06-3.82.06c-.58 2.04-1.06 4.13-1.19 6.25l-3.09-.57c1.56-3.67 3.03-7.48 5.65-10.56.88 1.03 1.91 1.9 3.08 2.61a97.67 97.67 0 0 0-1.08-4.86c2.45-3.27 1.34-7.67 1.57-11.46z"/><path fill="#8f8e92" d="M257.08 148.38l4.87-1.11 1.34 4.19c-1.05 1.25-2.25 2.38-3.6 3.3-1.07-2.04-1.92-4.18-2.61-6.38z"/><path fill="#be957a" d="M266.13 148.21l1.73-1.39a34.03 34.03 0 0 1-8.16 10.87c-3.77 3.4-7.44 7.17-8.88 12.18l-.56-4.13c2.8-3.04 5.73-6.16 6.93-10.22l2.5-.76c1.35-.92 2.55-2.05 3.6-3.3.93-1.1 1.84-2.21 2.84-3.25z"/><path fill="#c2c5ba" d="M297.94 146.55c1.89 1.27 2.13 3.59 2.33 5.67l-.13.95c-3.34-.43-2.21-4.33-2.2-6.62z"/><path fill="#515251" d="M247.75 152.82c1.76-1.99 3.66-3.88 5.92-5.32-1.59 2.7-3.28 5.56-2.91 8.83l3.2.49.98 2.16c-3.4 2.86-7.85 3.69-11.99 4.93-.26.69-.5 1.38-.74 2.08.19 1.8.79 3.53 1.54 5.17l1.27 1.92c-1.64 1.56-2.45 3.69-3.12 5.79 3.55.49 7.16.46 10.65-.44 3.65-.91 7.44-.64 11.16-.61 2.21.2 4.41.46 6.61.71-3.85.8-7.75 1.32-11.64 1.87l-.95 5.48c-2.9-1.11-5.69-2.62-8.75-3.22-4.11-.29-8.03 2.21-9.52 6.04a194.91 194.91 0 0 0 3.42 6.37c-1.86-.11-3.71-.14-5.56-.2-.84-1.07-1.67-2.15-2.62-3.11-3.12-.65-5.09 2.28-6.81 4.35.57-3.13 1.36-6.35 3.35-8.89 1.95-2.65 4.87-4.35 6.88-6.93 2.28-7.22 2.63-14.87 3.98-22.29.46-2.63 1.73-5.03 3.26-7.19l2.39 2.01m-4.59 3.52l-.45 1.48c1.56 2.78 3.3-3.18.45-1.48z"/><path fill="#c3977a" d="M274.83 161.83l6.03-10.02-.25 6.51-1.35 1.53c-2.62 3.08-4.09 6.89-5.65 10.56l-.6 1.47-1.61 3.89c-2.26.65-4.51 1.38-6.82 1.87l-1.85-.77c4.06-4.99 8.79-9.47 12.1-15.04z"/><path fill="#bec2b1" d="M297.35 156.1l2.67-2.13c.76 5.91.85 11.86.93 17.81-.88 8.43-1.25 16.97-.24 25.41.44 3.53.15 7.13-.89 10.54-1.11-3.38-1.39-6.94-1.44-10.47.23-13.73-.63-27.44-1.03-41.16z"/><path fill="#706f6c" d="M243.16 156.34c2.85-1.7 1.11 4.26-.45 1.48l.45-1.48z"/><path fill="#120e0c" opacity=".9" d="M280.61 158.32l.65-.72 1.08 4.86c-1.17-.71-2.2-1.58-3.08-2.61l1.35-1.53z"/><path fill="#464342" d="M288.86 163.5l2.22-1.69.7 9.49.23 3.84c-.39 2-1.01 3.94-1.67 5.87l.02-.98c-.37-2.23-1.14-4.36-2.21-6.33l-.41-.78c-.07-2.91.28-5.81.27-8.72l.85-.7z"/><path fill="#575755" d="M301.85 169.85c-.65-2.64-.17-5.39.75-7.9.04 2.83-.39 5.84.71 8.53 1.68 2.59 3.89 4.78 6.07 6.96-.78 1.52-1.66 3.01-2.16 4.64.08 2.34 1.74 4.19 2.87 6.12l2.57-3.36 1.56.13c1.9 2.78 3.9 5.73 7.23 6.91 1.02 2.27 2.14 4.57 2.46 7.08.53 1.78-1.07 2.91-2.02 4.13-1.1-1.22-2.69-2.14-3.13-3.81-1.01-3.39-1.79-6.89-3.78-9.87l-5.82 1.62c-.15 3.21-.56 6.46-.07 9.66 3.44 3.41 8.76 2.53 13.17 2.95.6 2.48.72 5.03.92 7.56l-.4-.74-1.99-3.37c-1.73 1.09-3.65 2-5.01 3.57-.27 1.31-.27 2.67-.33 4.01l-1.63.09c-1.29-.09-2.56-.24-3.83-.34l-2.01-2.16h4.42c-.62-4.09-4.6-5.67-7.97-7.01.35-1.06.74-2.1 1.13-3.14-1.29-2.03-2.76-3.97-3.65-6.22.4-4.47 1.93-8.92.97-13.45 1.15-1.43 3.21-2.53 3.55-4.41-.8-3.06-3.8-5.09-4.58-8.18z"/><path fill="#a5ae8e" d="M291.78 171.3c-.01-2.71 0-5.55 1.31-8 1.29 4.04 2.03 8.27 1.31 12.49l-2.39-.65-.23-3.84z"/><path fill="#40403f" d="M242.21 165.99c2.5-1 6.03-3.27 8.05-.25-2.22.77-4.69 1.54-5.73 3.89l-.78 1.53c-.75-1.64-1.35-3.37-1.54-5.17z"/><path fill="#6d7078" d="M276.7 170.98c.13-2.12.61-4.21 1.19-6.25l1.05 7.26c2.88.69 5.84.91 8.8.93l.41.78-6.89.76-.45 6.29-.71-6.18-3.34 1.26-.06-4.85z"/><path fill="#e6e5f3" d="M281.71 164.67l3.4-.06c1.03 2.41 1.63 4.97 1.74 7.6-3.73-.1-5.08-4.42-5.14-7.54z"/><path fill="#61605c" d="M244.53 169.63c1.04-2.35 3.51-3.12 5.73-3.89l.56 4.13 4.77 3.65c2.27 1.33 4.72 2.31 7.14 3.35l1.85.77-.87.18c-3.72-.03-7.51-.3-11.16.61-3.49.9-7.1.93-10.65.44.67-2.1 1.48-4.23 3.12-5.79 1.68-.86 1.93-3.61-.49-3.45z"/><path fill="#7c7c7b" d="M243.75 171.16l.78-1.53c2.42-.16 2.17 2.59.49 3.45l-1.27-1.92z"/><path fill="#c5c6d1" d="M273.01 171.88l.6-1.47 3.09.57.06 4.85-1.56.32-.83-.08-1.36-4.19z"/><path fill="#222427" d="M271.4 175.77l1.61-3.89 1.36 4.19-3.94 8.28c2.42-.88 5.12-1.52 6.87-3.55.56-1.93-.85-3.42-2.1-4.65l1.56-.32 3.34-1.26.71 6.18.03.76-.85 2.26c-1.26 3.68-1.01 7.63-.17 11.37.47 2.63 1.76 5.75-.66 7.83-1.4-3.36-2.48-6.86-4.04-10.15-1.03-2.31-3.14-3.81-5.02-5.38l-2.12 1.76c-.24-1.2-.69-2.43-.48-3.66 1.08-3.38 4.83-5.89 3.9-9.77z"/><path fill="#84887d" d="M300.95 171.78c.36 3.6 1.16 7.13 1.93 10.66.96 4.53-.57 8.98-.97 13.45.89 2.25 2.36 4.19 3.65 6.22l-1.13 3.14c-.54 1.99-.71 4.06-.7 6.12l-2.38 2.84c.25 2.55.55 5.09.88 7.64l-1.22-1.11c-1.02-1.17-1.97-2.38-2.94-3.58l1.61-1.42-1.34-1.76c-.88-1.04-1.82-2.03-2.77-3.01.33-2.34-.15-4.66-2.09-6.18l-1.31-1.05 3.58-2.56c-1.17-2.45-3.02-4.96-2.46-7.83.2-1.61 1.67-2.58 2.66-3.72.43 2.65 1.44 5.15 2.43 7.63.05 3.53.33 7.09 1.44 10.47 1.04-3.41 1.33-7.01.89-10.54-1.01-8.44-.64-16.98.24-25.41z"/><path fill="#86878b" d="M281.26 174.46l6.89-.76c1.07 1.97 1.84 4.1 2.21 6.33l-2.31 1.46.9 3.55.11.69-4.88 2.96-1.05-2.29-.29-.67.07-2.69-2.07-1.53-.03-.76.45-6.29z"/><path fill="#423e3c" d="M264.58 177.64c2.31-.49 4.56-1.22 6.82-1.87.93 3.88-2.82 6.39-3.9 9.77-.21 1.23.24 2.46.48 3.66 1.04 3.64 1.3 7.46.53 11.18-.99-1.54-1.86-3.17-3.03-4.58-1.26-.63-2.75-.1-4.1-.1 1.19 2.17 2.18 4.52 1.79 7.06l-2.13-.82c-1.36-2.75-2.38-6.1-5.27-7.64-3.52-1.34-7.51-.46-11.03-1.87-1.06-1.02-1.66-2.4-2.4-3.64l-2.88-.09c1.49-3.83 5.41-6.33 9.52-6.04 3.06.6 5.85 2.11 8.75 3.22l.95-5.48c3.89-.55 7.79-1.07 11.64-1.87l-6.61-.71.87-.18z"/><path fill="#464647" d="M274.37 176.07l.83.08c1.25 1.23 2.66 2.72 2.1 4.65-1.75 2.03-4.45 2.67-6.87 3.55l3.94-8.28z"/><path fill="#676766" d="M309.38 177.44c2.37 1.73 4.83 3.38 6.81 5.58l-1.97 1.95-1.56-.13-2.57 3.36c-1.13-1.93-2.79-3.78-2.87-6.12.5-1.63 1.38-3.12 2.16-4.64z"/><path fill="#9ea395" d="M293.03 178.99l2.67 1.36c.31 3.09.36 6.18.25 9.28-.99 1.14-2.46 2.11-2.66 3.72-.56 2.87 1.29 5.38 2.46 7.83l-3.58 2.56c-.66-4.54-1.56-9.1-1.44-13.72.1-3.79 1.22-7.44 2.3-11.03z"/><path fill="#c7c6ce" d="M288.05 181.49l2.31-1.46-.02.98-1.39 4.03-.9-3.55z"/><path fill="#97979c" d="M279.99 183.77l.85-2.26 2.07 1.53-.07 2.69-2.85-1.96z"/><path fill="#3e3e3e" opacity=".91" d="M316.19 183.02c2.22 2.64 3.89 5.7 5.26 8.86-3.33-1.18-5.33-4.13-7.23-6.91l1.97-1.95z"/><path fill="#030303" opacity=".88" d="M279.82 195.14c-.84-3.74-1.09-7.69.17-11.37l2.85 1.96.29.67c.13 2.49.12 4.99.13 7.49l-3.44 1.25z"/><path fill="#c0bfc9" d="M284.18 188.69l4.88-2.96a53.31 53.31 0 0 1 .82 12.1l-2.8.48.64 3.7-2.61.12c-.26-4.48-.15-9-.93-13.44m3.22 3.34l-.01.83.71.41.72-.4.01-.83-.72-.42-.71.41z"/><path fill="#494949" d="M270.1 187.44c1.88 1.57 3.99 3.07 5.02 5.38 1.56 3.29 2.64 6.79 4.04 10.15l-.91 1.11-4.6 4.54-5.89-1.57.18 3.93c3 .75 6.87 1.52 8.82-1.63 1.66 3.57 5.63 6.07 9.57 4.66 1.44.64 2.86 1.31 4.27 2.03l1.56.76-1.41 4.29 2.92 1.87c1.12.95 2.19 1.96 3.26 2.97-1.83-.3-3.64-.59-5.44-.97-.27-.26-.79-.8-1.05-1.06l-.37-.36c-.73-.68-1.47-1.34-2.21-1.99l-.13-4.37-2.5-.89-1.86 1.76c-1.64-.69-3.25-1.47-4.87-2.18-1.46-.41-2.95-.71-4.43-.96-2.58-.47-5.27-.43-7.73-1.36-.66-1.13-1.08-2.36-1.48-3.58l2 .58c.38-2.13.77-4.26 1.35-6.34l.88-1.72c-1.32-1.08-2.99-1.25-4.63-1.07l.15 2.36.13 4.38-2.91-2.02-2.57-.51 1.29-1.21c-1.25-2.4-2.31-4.98-4.19-6.97-1.81-1.12-4.07-.95-6.11-1.19-2.46-.42-4.89-.93-7.37-1.19a194.91 194.91 0 0 1-3.42-6.37l2.88.09c.74 1.24 1.34 2.62 2.4 3.64 3.52 1.41 7.51.53 11.03 1.87 2.89 1.54 3.91 4.89 5.27 7.64l2.13.82c.39-2.54-.6-4.89-1.79-7.06 1.35 0 2.84-.53 4.1.1 1.17 1.41 2.04 3.04 3.03 4.58.77-3.72.51-7.54-.53-11.18l2.12-1.76z"/><path fill="#696a6a" d="M309.16 191.03l5.82-1.62c1.99 2.98 2.77 6.48 3.78 9.87.44 1.67 2.03 2.59 3.13 3.81l.37.55c-4.41-.42-9.73.46-13.17-2.95-.49-3.2-.08-6.45.07-9.66z"/><path fill="#616462" d="M227.89 196.11c1.72-2.07 3.69-5 6.81-4.35.95.96 1.78 2.04 2.62 3.11l-.39 3.92c-1.42.84-2.76 1.82-4.06 2.85l5.17.35-5.06 1.25 4.8 1.66c-4.3.87-6.44 5.02-8.65 8.36-.28-4.26.27-8.49 1.29-12.63-1.22-1.25-3-2.52-2.53-4.52z"/><path fill="#eae7f0" d="M287.4 192.03l.71-.41.72.42-.01.83-.72.4-.71-.41.01-.83z"/><path fill="#010101" opacity=".8" d="M279.82 195.14l3.44-1.25c.08 5.64-.76 11.64 2.23 16.74.3 1.12.58 2.24.84 3.38-3.94 1.41-7.91-1.09-9.57-4.66l1.49-5.27.91-1.11c2.42-2.08 1.13-5.2.66-7.83z"/><path fill="#737475" d="M237.32 194.87l5.56.2c2.48.26 4.91.77 7.37 1.19-2.71.45-5.45.64-8.19.42l-.2 2.33-4.93-.22.39-3.92z"/><path fill="#636464" d="M242.06 196.68c2.74.22 5.48.03 8.19-.42 2.04.24 4.3.07 6.11 1.19 1.88 1.99 2.94 4.57 4.19 6.97l-1.29 1.21-2.77-.23 1.45-3.04c-5.18-1.86-10.64-2.66-16.08-3.35l.2-2.33z"/><path fill="#d8d6e2" d="M287.08 198.31l2.8-.48-.27 4.05-1.89.13-.64-3.7z"/><path fill="#9a9b9e" d="M232.87 201.64c1.3-1.03 2.64-2.01 4.06-2.85l4.93.22c5.44.69 10.9 1.49 16.08 3.35l-1.45 3.04c-1.13-.93-2.13-2.2-3.62-2.54-4.35-1.06-8.89-1.6-13.35-1.03l-1.48.16c-1.73-.05-3.45-.2-5.17-.35z"/><path fill="#5d5a55" d="M239.52 201.83c4.46-.57 9-.03 13.35 1.03 1.49.34 2.49 1.61 3.62 2.54-5.71.51-13.04 1.73-16.97-3.57z"/><path fill="#606060" d="M264.46 201.42c1.64-.18 3.31-.01 4.63 1.07l-.88 1.72-3.6-.43-.15-2.36z"/><path fill="#42413c" d="M238.04 201.99l1.48-.16c3.93 5.3 11.26 4.08 16.97 3.57a36.93 36.93 0 0 1 2.77.23l2.57.51-2.26 2.11c-2.6.06-5.19.16-7.78.11-4.87-.19-9.58-1.51-14.01-3.46-1.59-.58-3.2-1.12-4.8-1.66l5.06-1.25z"/><path fill="#7cb7ed" d="M286.03 202.88l5.24.71-4 .44-.32 3.98-1.03-.05.11-5.08z"/><path fill="#2c2f31" d="M264.74 208.16l-.13-4.38 3.6.43c-.58 2.08-.97 4.21-1.35 6.34l-2-.58-.12-1.81z"/><path fill="#696768" d="M273.65 208.62l4.6-4.54-1.49 5.27c-1.95 3.15-5.82 2.38-8.82 1.63l-.18-3.93 5.89 1.57z"/><path fill="#baffff" d="M287.27 204.03l4-.44.9.15 1.31 1.05-.77 2.97-5.76.25.32-3.98z"/><path fill="#888a80" d="M229.13 213.26c2.21-3.34 4.35-7.49 8.65-8.36 4.43 1.95 9.14 3.27 14.01 3.46 2.09.58 4.88.62 6.18 2.63 1.14 3.42-.31 7.01-.99 10.39-6.15-2.21-12.69-3.08-19.2-2.43-1.76-.08-3.56-.11-5.26-.61-1.6-.88-2.81-2.28-4.13-3.5l.74-1.58m9.66 4.64c2.87.25 5.95.74 8.66-.55 1.37-1.8.05-4.43-1.57-5.58-3.14.41-7.23 2.46-7.09 6.13z"/><path fill="#474746" d="M304.43 205.25c3.37 1.34 7.35 2.92 7.97 7.01h-4.42l2.01 2.16c-1.17-.03-2.33-.03-3.48-.03l-2.78-3.02c-.01-2.06.16-4.13.7-6.12z"/><path fill="#5d5e5b" d="M261.83 206.14l2.91 2.02.12 1.81c.4 1.22.82 2.45 1.48 3.58 2.46.93 5.15.89 7.73 1.36l.02 1.9-5.22-.54-.7 3.7-3.02-2.82c.3 3.11.14 6.57 2.27 9.12l1.58 1.52 3.17-.74c3.09.11 6.13.67 9.18 1.06l-1.62 2.82c-3.48-.88-6.98-2.16-10.62-1.99-2.11.13-3.69 1.74-4.88 3.33-2.36 3.2-2.8 7.29-3.41 11.11l-3.86-1.98c-1.23 1.52-2.95 3.01-2.74 5.18 2.05 1.74 5.28 2.24 6.18 5.08-2-.08-4-.21-6-.36l1.55 5.67-3.83-1.26c-1.78 3.24-4 6.3-7.14 8.36 1.97-5.7 5.54-10.86 6.22-16.97l-2.38-1.04-4.29 2.29c-.57-1.19-.46-3.24-2.25-3.09-1.7 2.96-3.16 6.25-3.06 9.74.07 2.43-.28 4.88-1.41 7.06l-.92.39-1.87-9.91c.35-1.61.78-3.19 1.19-4.78 2.03-1.56 4.07-3.11 6.02-4.76-2.32-1.25-4.78-2.55-7.5-2.44-2.42-.14-4.32 1.64-5.8 3.33-2.91 3.45-5.25 7.58-5.67 12.14-.56 5.11-.73 10.76 2.52 15.08-1.3-.6-2.62-1.15-3.93-1.7l1.71 5.87-1.92-.24c-1.69-3.43-2.46-7.2-2.98-10.95-.54-3.97-1.78-7.79-3.11-11.55 1.37-.17 2.98-.02 4.03-1.12 2.69-2.38 4.65-5.45 6.49-8.51-1.56.46-3.17.82-4.63 1.56-1.78 1.3-2.82 3.4-4.67 4.62-1.89.65-3.89.81-5.84 1.13-.63-3.68-1.06-7.41-.78-11.15 1.61-2.99 3.46-5.86 4.64-9.07a10.59 10.59 0 0 1 3.77-5.19c-.28 1.21-.5 2.44-.74 3.66l1.97-.35c5.91-.23 11.63-1.87 17.49-2.47 5.12-.13 10.26.13 15.37.59-1.83 2.35-4.7 4.53-4.53 7.81.09 3.26 2.51 5.76 4.29 8.26 1.36-2.51 1.16-5.37.9-8.11l2.98-1.93 1.9 3.15c2.81-2.9 5.05-6.28 7.57-9.42l-6.59 1.13-2.04-3.62-3.63-.47c-5.06-1.33-10.15-2.54-15.36-3.1l-.36-.99c6.51-.65 13.05.22 19.2 2.43 2.11.21 5.11 2.45 6.64.23.18-4.84-4.34-8.41-4.05-13.36l2.26-2.11m-27.08 25.6c-5.28.54-10.58 2.04-14.97 5.09-2.61 2.47-4.89 5.52-5.69 9.09 4.49-2.29 8.21-5.86 12.93-7.79 3.37-.02 6.67-.83 10.03-1.07 3.19-.41 6.81.01 9.4-2.32-.94-1.1-1.61-2.67-3.14-3.05-2.8-.71-5.73-.24-8.56.05m-23.5 11.54v.45h.46v-.45h-.46z"/><path fill="#6f6e6d" d="M315.78 210.66c1.36-1.57 3.28-2.48 5.01-3.57l1.99 3.37-2.79 3.55-4.54.66c.06-1.34.06-2.7.33-4.01z"/><path fill="#727369" d="M251.79 208.36l7.78-.11c-.29 4.95 4.23 8.52 4.05 13.36-1.53 2.22-4.53-.02-6.64-.23.68-3.38 2.13-6.97.99-10.39-1.3-2.01-4.09-2.05-6.18-2.63z"/><path fill="#9f9e9f" d="M285.49 210.63c3.34.43 6.72.58 10.08.34.95.98 1.89 1.97 2.77 3.01-2.33.06-4.66-.08-6.95-.48l-.79 2.54c-1.41-.72-2.83-1.39-4.27-2.03-.26-1.14-.54-2.26-.84-3.38z"/><path fill="#483a36" d="M301.35 214.21l2.38-2.84 2.78 3.02 3.48.03 3.83.34c-.5 1.69-1.05 3.38-1.2 5.15-.33 3.43-.5 6.87-.59 10.32-1.23-5.21.39-10.9-1.87-15.84l-2.13 1.86c-1.19 8.51.87 17.12.33 25.68l-.6.47c-.67-2.41-1.29-4.84-1.76-7.29.89-1.35.98-2.86.25-4.3l-.2-.61-.75-.34-3.16-1.56c-.43-1.49-.93-2.96-1.68-4.32l-1.2-1.11c-1.03-.52-2.04-1.07-3.04-1.62 1.58-.25 3.18-.41 4.79-.51l1.22 1.11-.88-7.64m1.62 11.81l2.18.27c.14-2.99.15-6.07-1.31-8.77-1.82 2.44-1.2 5.69-.87 8.5z"/><path fill="#bc8b6e" d="M322.78 210.46l.4.74.36 2.57c.23 2.88.5 5.78 1.25 8.59 3.32 12.83 6.4 26.01 5.43 39.36l-2.15.26c.2-8.2.26-16.48-1.2-24.59-.85-4.85-2.56-9.48-3.78-14.24-.79-3.13-1.78-6.2-3.1-9.14l2.79-3.55z"/><path fill="#9e9e93" d="M238.79 217.9c-.14-3.67 3.95-5.72 7.09-6.13 1.62 1.15 2.94 3.78 1.57 5.58-2.71 1.29-5.79.8-8.66.55z"/><path fill="#acadb6" d="M291.39 213.5c2.29.4 4.62.54 6.95.48l1.34 1.76-1.61 1.42-5.91-.36-1.56-.76.79-2.54z"/><path fill="#ce997a" d="M315.45 214.67l4.54-.66c1.32 2.94 2.31 6.01 3.1 9.14 1.22 4.76 2.93 9.39 3.78 14.24 1.46 8.11 1.4 16.39 1.2 24.59l-3.77.58c2.46-4.43.94-9.52.54-14.23-1.09-7.64-1.38-15.67-5.07-22.62-.93 2.87-1.38 5.87-1.55 8.89-.22 4.02-1.14 8.08-.39 12.1l2.85 14.62 2.66 1.36c-2.85.6-5.85.31-8.32-1.31.34-2.64.78-5.35.16-7.98-.75-3.49-1.99-6.92-1.98-10.53-.15-7.65.87-15.36-.58-22.95.15-1.77.7-3.46 1.2-5.15l1.63-.09z"/><path fill="#454644" d="M323.54 213.77c2.29 5.81 2.97 12.04 4.41 18.07 1.4 5.6 2.07 11.33 3.03 17 .33 2.75 2.26 4.81 3.81 6.96l-2.34 1.04c1.71 5.34 1.49 11 1.18 16.53l-4.4-1.85c.44-3.25.85-6.52.99-9.8.97-13.35-2.11-26.53-5.43-39.36-.75-2.81-1.02-5.71-1.25-8.59z"/><path fill="#74766d" d="M226.36 218.3l2.03-3.46c1.32 1.22 2.53 2.62 4.13 3.5 1.7.5 3.5.53 5.26.61l.36.99c-6.17 1.15-12.27 2.64-18.42 3.91l1.73-1.4c1.25-.4 2.52-.75 3.8-1.12.35-1.02.72-2.03 1.11-3.03z"/><path fill="#6f7286" d="M274.07 214.91l4.43.96c-.33 2.18-.88 4.31-1.57 6.4l-2.22-.13-.61-4.42-.01-.91-.02-1.9z"/><path opacity=".07" d="M308.03 216.25l2.13-1.86c2.26 4.94.64 10.63 1.87 15.84.55 6.65-.16 13.3-.15 19.96-.59-1.83-1.32-3.6-1.96-5.41l-.08-.76-.64-1.61-.84-.48c.54-8.56-1.52-17.17-.33-25.68z"/><path fill="#424348" d="M268.87 216.27l5.22.54.01.91-.8 3.95-3.19-.54-2.69 5.14c-2.13-2.55-1.97-6.01-2.27-9.12l3.02 2.82.7-3.7z"/><path fill="#5f6278" d="M278.5 215.87l4.87 2.18c1.36 3.19 1.37 6.67.69 10.02l-.98.03-1.73.01c-3.05-.39-6.09-.95-9.18-1.06l1.13-5.38.8-3.95c.16 1.47.39 2.94.61 4.42l2.22.13c.69-2.09 1.24-4.22 1.57-6.4z"/><path fill="#717586" d="M285.23 216.29l2.5.89.13 4.37 2.21 1.99.37.36 1.05 1.06.71 1.86c-2.67.69-5.39 1.17-8.14 1.25.68-3.35.67-6.83-.69-10.02l1.86-1.76m5.05 9v.45h.45v-.45h-.45z"/><path fill="#b0aeb5" d="M292.16 216.8c1.96.22 3.94.28 5.91.36l2.94 3.58-4.79.51-2.55 1.71-2.92-1.87 1.41-4.29z"/><path fill="#383a36" opacity=".75" d="M221.45 222.45l4.91-4.15-1.11 3.03-3.8 1.12z"/><path fill="#87848a" d="M302.97 226.02c-.33-2.81-.95-6.06.87-8.5 1.46 2.7 1.45 5.78 1.31 8.77l-2.18-.27z"/><path fill="#929188" d="M219.72 223.85l18.42-3.91c5.21.56 10.3 1.77 15.36 3.1-6 2.5-12.4-.09-18.58.94-5.17.79-10.42 1.72-15.13 4.14l-1.97.35.74-3.66 1.16-.96z"/><path fill="#90694f" d="M312.62 219.91c1.45 7.59.43 15.3.58 22.95-.01 3.61 1.23 7.04 1.98 10.53.62 2.63.18 5.34-.16 7.98l-2.51-1.58-.44-3.52c-.1-2.03-.12-4.06-.19-6.08-.01-6.66.7-13.31.15-19.96.09-3.45.26-6.89.59-10.32z"/><path fill="#6b7289" d="M270.11 221.13l3.19.54-1.13 5.38-3.17.74-1.58-1.52 2.69-5.14z"/><path fill="#5f6277" d="M293.67 222.96l2.55-1.71 3.04 1.62-.44.73.26.8.8.12.58-.54c.75 1.36 1.25 2.83 1.68 4.32l3.16 1.56c-1.2.3-3.56.96-3.07 2.62 1.5.72 2.99-.73 4.02-1.67.73 1.44.64 2.95-.25 4.3l-3.43 6.58-.58 1.56-.77-.11c-.59-3.33-1.57-6.57-2.63-9.77-.75-2.01-.05-4.12.27-6.14-1.54 1.05-3.11 2.04-4.81 2.78.47-1.43-.78-2.53-1.85-3.19l-.71-1.86c1.8.38 3.61.67 5.44.97-1.07-1.01-2.14-2.02-3.26-2.97z"/><path fill="#72716f" d="M234.92 223.98c6.18-1.03 12.58 1.56 18.58-.94l3.63.47 2.04 3.62 6.59-1.13c-2.52 3.14-4.76 6.52-7.57 9.42l-1.9-3.15-2.98 1.93c.26 2.74.46 5.6-.9 8.11-1.78-2.5-4.2-5-4.29-8.26-.17-3.28 2.7-5.46 4.53-7.81-5.11-.46-10.25-.72-15.37-.59-5.86.6-11.58 2.24-17.49 2.47 4.71-2.42 9.96-3.35 15.13-4.14z"/><path fill="#c2c0cb" d="M290.07 223.54l.37.36-.37-.36z"/><path fill="#d3d0d9" d="M299.26 222.87l1.2 1.11-.58.54-.8-.12-.26-.8.44-.73z"/><path fill="#c2bfc7" d="M290.28 225.29h.45v.45h-.45v-.45z"/><path fill="#e2b093" d="M318.22 234.6c.17-3.02.62-6.02 1.55-8.89 3.69 6.95 3.98 14.98 5.07 22.62.4 4.71 1.92 9.8-.54 14.23l-.96.12-2.66-1.36-2.85-14.62c-.75-4.02.17-8.08.39-12.1z"/><path fill="#555657" d="M284.06 228.07c2.75-.08 5.47-.56 8.14-1.25-.99 1.22.06 4.03 1.85 3.19 1.7-.74 3.27-1.73 4.81-2.78-.32 2.02-1.02 4.13-.27 6.14 1.06 3.2 2.04 6.44 2.63 9.77-.91.87-1.79 1.77-2.63 2.71-2.7-2.23-5.17-4.8-8.21-6.56-2.98-1.22-6.2-1.72-9.25-2.7.31-2.9.89-5.77 1.95-8.49l.98-.03z"/><path fill="#393c48" d="M292.2 226.82c1.07.66 2.32 1.76 1.85 3.19-1.79.84-2.84-1.97-1.85-3.19z"/><path fill="#7d7a73" d="M281.35 228.11l1.73-.01c-1.06 2.72-1.64 5.59-1.95 8.49 3.05.98 6.27 1.48 9.25 2.7 3.04 1.76 5.51 4.33 8.21 6.56-1.72 1.89-1.85 4.5-2.12 6.91l-2.11-.13c-.93 9.99-6.47 18.65-11.11 27.28l2.08 3.15c-.28.17-.82.52-1.1.7l-3.79-1.9c-5.15-1.15-9.64 2.47-14.58 3.17-2.4.68-4.7-.43-6.87-1.29-1.8-.72-3.65-1.28-5.5-1.84-3.44-1.27-6.86-2.67-10.01-4.54-7.62-5.44-11.34-15.83-8.46-24.82.53 3.32 1.2 6.61 1.87 9.91.45 2.2 1.05 4.38 1.93 6.45 1.04 2.58 2.83 4.79 5.18 6.29 1.8.68 3.69 1.06 5.55 1.51 4.48.94 8.15 4.03 12.67 4.89 2.87.53 5.94 1.18 8.82.35 4.77-1.82 8.46-5.7 10.77-10.17 2-3.83 5.07-7.56 4.71-12.13-.24-4.27.55-8.47.93-12.7l.1-1.81-.82-1.37c2.1.41 4.25.63 6.4.55-2.16-1.93-4.59-3.53-7.22-4.71l-1.19-.53-.82.98c-3.76 3.77-4.2 9.31-6.13 14.03-1.79-1.09-3.94-1.89-5.11-3.73-.43-1.19-.22-2.48-.28-3.71l6.35-.49c-.64-2.59-1.51-5.12-2.62-7.54-2.93-.46-5.92-1.57-8.9-.97-2.64 1.48-3.44 4.65-4.54 7.24 1.43 2.15 2.87 4.31 4.15 6.57-1.82-1.24-3.86-2.29-5.23-4.05-.44-1.3-.61-2.67-.77-4.02.61-3.82 1.05-7.91 3.41-11.11 1.19-1.59 2.77-3.2 4.88-3.33 3.64-.17 7.14 1.11 10.62 1.99l1.62-2.82m12.75 16.43c-.37 1.41.13 1.88 1.51 1.39.37-1.42-.14-1.89-1.51-1.39z"/><path fill="#d5d2db" d="M302.23 232.48c-.49-1.66 1.87-2.32 3.07-2.62l.75.34.2.61c-1.03.94-2.52 2.39-4.02 1.67z"/><path fill="#807e75" d="M234.75 231.74c2.83-.29 5.76-.76 8.56-.05 1.53.38 2.2 1.95 3.14 3.05-5.66-.39-11.43-.98-17.06 0-1.95.22-3.24 1.79-4.54 3.09l2.17.3c-4.72 1.93-8.44 5.5-12.93 7.79.8-3.57 3.08-6.62 5.69-9.09 4.39-3.05 9.69-4.55 14.97-5.09z"/><path fill="#9b968d" d="M229.39 234.74c5.63-.98 11.4-.39 17.06 0-2.59 2.33-6.21 1.91-9.4 2.32-3.36.24-6.66 1.05-10.03 1.07l-2.17-.3c1.3-1.3 2.59-2.87 4.54-3.09z"/><path fill="#635049" d="M302.57 241.69c1.02-2.26 2.27-4.4 3.43-6.58l1.76 7.29c.16 1.29.85 1.83 2.08 1.62l.08.76c-1.06 3.31-1.72 6.73-1.92 10.2l-1.45.78c-.41-2.12-.88-4.23-1.47-6.3-.75-2.62-1.69-5.18-2.51-7.77z"/><path fill="#919088" d="M267.21 237.64c2.98-.6 5.97.51 8.9.97 1.11 2.42 1.98 4.95 2.62 7.54l-6.35.49c.06 1.23-.15 2.52.28 3.71 1.17 1.84 3.32 2.64 5.11 3.73 1.93-4.72 2.37-10.26 6.13-14.03l-.34 4.93c-1.73 6.26-4.53 12.15-7.39 17.96l1 2.14c1.83-1.04 3.85-2.09 4.72-4.15 2.16-4.53 3.4-9.45 5.56-13.99-.38 4.23-1.17 8.43-.93 12.7.36 4.57-2.71 8.3-4.71 12.13-2.31 4.47-6 8.35-10.77 10.17-2.88.83-5.95.18-8.82-.35-4.52-.86-8.19-3.95-12.67-4.89-1.86-.45-3.75-.83-5.55-1.51l-.13-1.98-.16-1.74c.96-.48 1.91-.97 2.86-1.49l1.36 3.61 4.62-2.33c4.09-3.55 6.76-8.36 10.37-12.35 1.78-2.18 4.25-4.36 3.9-7.46-1.28-2.26-2.72-4.42-4.15-6.57 1.1-2.59 1.9-5.76 4.54-7.24m2.22 14.67c-2.31 2.83-3.76 6.25-6.02 9.11-1.62 2.27-3.73 4.16-5.23 6.51.1.28.28.83.37 1.1 2.25-2.55 5.59-2.95 8.66-3.85 2.58-1.73 4.81-4 6.63-6.51.79-2.58-1.34-5.08-3.23-6.59l-1.18.23z"/><path fill="#3e3e3c" d="M209.85 250.16c-.98-3.61-.99-7.55.3-11.09-.28 3.74.15 7.47.78 11.15 1.95-.32 3.95-.48 5.84-1.13 1.85-1.22 2.89-3.32 4.67-4.62 1.46-.74 3.07-1.1 4.63-1.56-1.84 3.06-3.8 6.13-6.49 8.51-1.05 1.1-2.66.95-4.03 1.12-1.96-.62-4.01-1.18-5.7-2.38z"/><path fill="#5d5f66" d="M283.9 240.05l.82-.98 1.19.53-.58 1.97 1.4 2.19.82 1.37-3.99-.15.34-4.93z"/><path fill="#747474" d="M228.93 243.89c1.48-1.69 3.38-3.47 5.8-3.33 2.72-.11 5.18 1.19 7.5 2.44l-6.02 4.76c-7.44 5.79-8.23 16.36-7.29 25.06-1.03-.61-2.09-1.16-3.14-1.71-3.25-4.32-3.08-9.97-2.52-15.08.42-4.56 2.76-8.69 5.67-12.14z"/><path fill="#3d3d3d" d="M285.33 241.57l.58-1.97c2.63 1.18 5.06 2.78 7.22 4.71-2.15.08-4.3-.14-6.4-.55l-1.4-2.19z"/><path fill="#727373" d="M256.96 241.4l3.86 1.98c.16 1.35.33 2.72.77 4.02 1.37 1.76 3.41 2.81 5.23 4.05.35 3.1-2.12 5.28-3.9 7.46-3.61 3.99-6.28 8.8-10.37 12.35-.4-1.57-.79-3.13-1.26-4.67-.67-1.37-1.42-2.7-2.17-4.03-2 2.29-4.06 4.54-6.36 6.54l-1.76-4.01 3.18-5.54-6.37 2.51c1.13-2.18 1.48-4.63 1.41-7.06-.1-3.49 1.36-6.78 3.06-9.74 1.79-.15 1.68 1.9 2.25 3.09l4.29-2.29 2.38 1.04c-.68 6.11-4.25 11.27-6.22 16.97 3.14-2.06 5.36-5.12 7.14-8.36l3.83 1.26-1.55-5.67c2 .15 4 .28 6 .36-.9-2.84-4.13-3.34-6.18-5.08-.21-2.17 1.51-3.66 2.74-5.18z"/><path fill="#9da295" d="M301.99 243.25l.58-1.56 2.51 7.77c-.28 2.93-.48 6.09-2.27 8.55l-.82-.05c-.61-4.87-1.03-9.86 0-14.71z"/><path fill="#9a9396" opacity=".97" d="M307.76 242.4l.6-.47.84.48.64 1.61c-1.23.21-1.92-.33-2.08-1.62z"/><path fill="#dad7da" d="M211.25 243.28h.46v.45h-.46v-.45z"/><path fill="#c2cbac" d="M298.59 245.85l2.63-2.71.77.11c-1.03 4.85-.61 9.84 0 14.71l-2.42-.25-3.1-4.95c.27-2.41.4-5.02 2.12-6.91z"/><path fill="#525152" d="M294.1 244.54c1.37-.5 1.88-.03 1.51 1.39-1.38.49-1.88.02-1.51-1.39z"/><path fill="#707584" d="M276.17 262.94c2.86-5.81 5.66-11.7 7.39-17.96l3.99.15-.1 1.81c-2.16 4.54-3.4 9.46-5.56 13.99-.87 2.06-2.89 3.11-4.72 4.15l-1-2.14z"/><path fill="#070605" opacity=".78" d="M308 254.98c.2-3.47.86-6.89 1.92-10.2.64 1.81 1.37 3.58 1.96 5.41l.19 6.08-1.68-.54-2.39-.75z"/><path fill="#524d47" d="M228.92 272.82c-.94-8.7-.15-19.27 7.29-25.06-.41 1.59-.84 3.17-1.19 4.78-2.88 8.99.84 19.38 8.46 24.82 3.15 1.87 6.57 3.27 10.01 4.54-1.43 1.08-2.77 2.74-4.74 2.69-4.16-.01-8.72-.61-11.95-3.47-2.53-2.2-4.9-4.59-7.17-7.05l-.71-1.25z"/><path fill="#646364" d="M302.81 258.01c1.79-2.46 1.99-5.62 2.27-8.55l1.47 6.3 1.45-.78 2.39.75-.53 4.04-3.48 2.88-3.79 2.04-.65 6.93-2.85-2.28.86.05.69-.6-.05-.81-.58-6.27 2.8-3.7z"/><path fill="#a29f95" d="M269.43 252.31l1.18-.23c1.89 1.51 4.02 4.01 3.23 6.59-1.82 2.51-4.05 4.78-6.63 6.51-3.07.9-6.41 1.3-8.66 3.85l-.37-1.1c1.5-2.35 3.61-4.24 5.23-6.51 2.26-2.86 3.71-6.28 6.02-9.11z"/><path fill="#474545" d="M294.36 252.63l2.11.13 3.1 4.95 2.42.25.82.05-2.8 3.7-6.1-.48c-.37 3.26-.39 6.54.06 9.79l3.54-1.91 1.05-.03-.19 1.53-2.46 5.32-3.86.96-2.35.64c-1.24 2-2.53 4.02-4.37 5.53l-2.08-3.15c4.64-8.63 10.18-17.29 11.11-27.28m1.74 3.63l-.43.7.4.73.82.02.43-.71-.39-.72-.83-.02m-5.96 17.03c-1.5.98.15 3.53 1.62 2.35 1.49-.99-.16-3.53-1.62-2.35z"/><path fill="#99998f" d="M296.1 256.26l.83.02.39.72-.43.71-.82-.02-.4-.73.43-.7z"/><path fill="#323230" d="M310.39 255.73l1.68.54.44 3.52c.2 2.25.89 4.56.4 6.81-.75 1.08-1.9 1.79-2.88 2.64-.28-3.15-.42-6.32-.17-9.47l.53-4.04z"/><path fill="#716e6e" d="M332.45 256.84l2.34-1.04c1.06 1.53 1.99 3.14 2.81 4.82-.96 5.26 1.3 10.14 2.5 15.13l-4.3 8.65c-1.02-.87-3.02-1.23-2.86-2.91-.02-2.72.52-5.41.69-8.12.31-5.53.53-11.19-1.18-16.53z"/><path fill="#815c48" d="M237.81 262.06l6.37-2.51-3.18 5.54 1.76 4.01.95 2.37.16 1.74c-1.33-1.81-3.17-3.13-5.05-4.31-.88-2.07-1.48-4.25-1.93-6.45l.92-.39z"/><path fill="#585755" d="M306.38 262.65l3.48-2.88c-.25 3.15-.11 6.32.17 9.47.98-.85 2.13-1.56 2.88-2.64.49-2.25-.2-4.56-.4-6.81l2.51 1.58c2.47 1.62 5.47 1.91 8.32 1.31l.96-.12 3.77-.58 2.15-.26c-.14 3.28-.55 6.55-.99 9.8l4.4 1.85-.69 8.12c-.16 1.68 1.84 2.04 2.86 2.91-6.39.18-12.4 2.32-18.14 4.96.37-1.46.71-2.94.78-4.45-2.04-5.33-4.36-10.87-9.15-14.33-1.62-2.36-2.21-5.21-2.91-7.93m19.85 3.68v.45h.45v-.45h-.45m-6.93 11.93l-.01.45h.45l.01-.45h-.45z"/><path fill="#777372" d="M293.91 261.23l6.1.48.58 6.27-.82-.04-.65.59-.03.81-.53-.26-1.05.03-3.54 1.91c-.45-3.25-.43-6.53-.06-9.79z"/><path fill="#414140" d="M337.6 260.62c2.57 4.52 3.97 10.01 2.5 15.13-1.2-4.99-3.46-9.87-2.5-15.13z"/><path fill="#b2b5b0" d="M242.76 269.1c2.3-2 4.36-4.25 6.36-6.54l2.17 4.03-4.72 3.39-2.86 1.49-.95-2.37z"/><path fill="#5c5d60" d="M302.59 264.69l3.79-2.04c.7 2.72 1.29 5.57 2.91 7.93l-2.93 4.71c-2.22-.91-4.49-1.75-6.56-2.98l-1.43-1.7.19-1.53.53.26 2.85 2.28.65-6.93z"/><path fill="#8b8c8e" d="M326.23 266.33h.45v.45h-.45v-.45z"/><path fill="#606262" d="M246.57 269.98c1.63-1.05 3.17-2.22 4.72-3.39l1.26 4.67-4.62 2.33-1.36-3.61z"/><path fill="#bbb8b8" d="M299.12 268.53l.65-.59.82.04.05.81-.69.6-.86-.05.03-.81z"/><path fill="#3d3f3e" d="M221.85 269.41l3.93 1.7 3.14 1.71.71 1.25-.55 4.67-5.52-3.46-1.71-5.87z"/><path fill="#5f4e43" d="M238.82 268.9c1.88 1.18 3.72 2.5 5.05 4.31l.13 1.98c-2.35-1.5-4.14-3.71-5.18-6.29z"/><path fill="#767579" d="M298.37 270.61l1.43 1.7-2.32 3.24-1.57.38 2.46-5.32z"/><path fill="#cf9a7b" d="M309.29 270.58c4.79 3.46 7.11 9 9.15 14.33-2.23.9-4.52 1.65-6.83 2.27-.44-4.13-.34-9.24-4.5-11.55l-.75-.34 2.93-4.71z"/><path fill="#3a3938" d="M297.48 275.55l2.32-3.24c2.07 1.23 4.34 2.07 6.56 2.98l.75.34c.9 3.83 2.21 7.58 2.61 11.51.25 3.52-2.23 6.37-3.96 9.19l-3.59-1.15.88-5.03 3.78-.84-.21-4.27c-1.38-3.74-4.12-6.82-7.63-8.69l-1.51-.8z"/><path fill="#817e82" d="M290.14 273.29c1.46-1.18 3.11 1.36 1.62 2.35-1.47 1.18-3.12-1.37-1.62-2.35z"/><path fill="#828382" d="M229.08 278.74l.55-4.67c2.27 2.46 4.64 4.85 7.17 7.05 3.23 2.86 7.79 3.46 11.95 3.47 1.97.05 3.31-1.61 4.74-2.69 1.85.56 3.7 1.12 5.5 1.84-1.2-.18-2.41-.29-3.61-.41l-.22 1.51c-2.26 2.47-5.72 2.06-8.72 1.92-3.73-.28-7.5-.44-11.16-1.24-2.37-.52-4.06-2.41-5.86-3.89-2.33-2.11-4.95-3.84-7.42-5.77l-.36-.82 1.92.24c1.94.98 3.73 2.22 5.52 3.46z"/><path fill="#525251" d="M222 275.86l7.42 5.77c1.8 1.48 3.49 3.37 5.86 3.89 3.66.8 7.43.96 11.16 1.24 3 .14 6.46.55 8.72-1.92l1.92 1.69c-4.54 2.34-8.73 5.75-13.84 6.76-4.79.27-9.58-.58-14.38-.18-2.29-2.08-5.17-4.16-8.44-3.48 2.78 2.82 5.61 5.61 8.7 8.09 3.12 1.65 6.38 3.04 9.3 5.04l-4.88 2.48c-2.97-2.69-6.33-4.88-9.41-7.42-2.94-2.35-4.15-6.05-5.15-9.53 3.07-3.43 3.06-8.1 3.02-12.43z"/><path fill="#5f5e5c" d="M292.05 276.89l3.86-.96 1.57-.38 1.51.8-3.09 2.59c1.32 2.38 2.45 5 4.5 6.87 2.05 1.09 4.24-.15 6.22-.77l.21 4.27-3.78.84c-2.1.4-3.98 1.42-5.68 2.68 1.76 2.17 3.95 3.93 6.34 5.37-2.72.34-5.47.68-8.21.44l-.99-1.02c-2.35 1.45-4.8 2.74-7.39 3.71.46-2.36 1.5-4.54 2.81-6.54-2.29-2.34-5-4.26-8.11-5.3l1.21-.96 5.73-4.84c1.93-1.77 2.45-4.45 3.29-6.8z"/><path fill="#555757" d="M307.11 275.63c4.16 2.31 4.06 7.42 4.5 11.55.08 1.71.11 3.42.14 5.14-.03 5.43-1.23 11.16-4.27 15.72l-1.46-1.85c-4.79 3.44-10.32 5.55-15.53 8.22-1.77.81-2.82 2.49-3.93 3.99-1.55 2.19-3.43 4.11-5.55 5.76-1.64 1.28-3.34 2.5-5.02 3.74.57-2.67 1.18-5.57 3.29-7.47 2.4-2.31 5.1-4.43 6.63-7.47 1.12-2.91 1.89-5.96 3.24-8.79 1.2-2.69 4.04-3.97 6.35-5.53 2.74.24 5.49-.1 8.21-.44-2.39-1.44-4.58-3.2-6.34-5.37 1.7-1.26 3.58-2.28 5.68-2.68l-.88 5.03 3.59 1.15c1.73-2.82 4.21-5.67 3.96-9.19-.4-3.93-1.71-7.68-2.61-11.51z"/><path fill="#232425" d="M289.7 277.53l2.35-.64c-.84 2.35-1.36 5.03-3.29 6.8-1.8 1.73-3.8 3.24-5.73 4.84l-4.11-1.16 5.31-3.61 1.1-.7c1.84-1.51 3.13-3.53 4.37-5.53z"/><path fill="#d59e7e" d="M295.9 278.94l3.09-2.59c3.51 1.87 6.25 4.95 7.63 8.69-1.98.62-4.17 1.86-6.22.77-2.05-1.87-3.18-4.49-4.5-6.87z"/><path fill="#a9a7aa" d="M319.3 278.26h.45l-.01.45h-.45l.01-.45z"/><path fill="#6d6c66" d="M265.86 285.03c4.94-.7 9.43-4.32 14.58-3.17-1.43 1.35-2.91 2.65-4.44 3.88l-3.16-.03c-2.08.12-4.21.17-6.21.83-1.81.89-3.04 2.57-4.42 3.99l-.4-2.32c-5.45 4.05-11.01 8.25-17.75 9.88-4.89 1.96-9.95-.26-14.94-.37-3.09-2.48-5.92-5.27-8.7-8.09 3.27-.68 6.15 1.4 8.44 3.48.98 1.04 1.64 2.64 3.22 2.88 4.44.98 9.19.95 13.57-.35 5.17-1.92 9.8-5.12 13.79-8.9l-2.36-.21-1.92-1.69.22-1.51c1.2.12 2.41.23 3.61.41 2.17.86 4.47 1.97 6.87 1.29z"/><path fill="#4f5051" d="M280.44 281.86l3.79 1.9-5.31 3.61 4.11 1.16-1.21.96c-2.42.18-4.84.18-7.25 0l4.03-1.84-2.6-1.91 4.44-3.88z"/><path fill="#b68365" d="M311.61 287.18c2.31-.62 4.6-1.37 6.83-2.27-.07 1.51-.41 2.99-.78 4.45-2.03.86-3.99 1.88-5.91 2.96l-.14-5.14z"/><path fill="#86827b" d="M257.08 286.53l2.36.21c-3.99 3.78-8.62 6.98-13.79 8.9-4.38 1.3-9.13 1.33-13.57.35-1.58-.24-2.24-1.84-3.22-2.88 4.8-.4 9.59.45 14.38.18 5.11-1.01 9.3-4.42 13.84-6.76z"/><path fill="#5e605e" d="M266.63 286.54c2-.66 4.13-.71 6.21-.83l-.24 3.68c-2.18 5.23-6.61 9.21-8.32 14.67 3.35 1.83 7.13 2.5 10.92 2.48-2.84 2.83-4.6 7.08-8.81 8.15-2.96-1.49-6.23-2.59-9.52-1.57l-1.9-1.45-3.88 2.49-1.92-1.53c-1.07-.86-2.14-1.73-3.25-2.54 4.55-2.03 9.36-3.71 13.3-6.86 4.87-3.86 8.63-8.99 11.42-14.5-5.85 3.66-9.72 9.62-15.34 13.59-6.61.01-12.55 3.21-19.02 3.96-.1.26-.3.76-.41 1.02l-2.33-2.06 4.88-2.48c-2.92-2-6.18-3.39-9.3-5.04 4.99.11 10.05 2.33 14.94.37 6.74-1.63 12.3-5.83 17.75-9.88l.4 2.32c1.38-1.42 2.61-3.1 4.42-3.99z"/><path fill="#37393a" d="M272.84 285.71l3.16.03 2.6 1.91-4.03 1.84-1.97-.1.24-3.68z"/><path fill="#908d85" d="M255.3 302.32c5.62-3.97 9.49-9.93 15.34-13.59-2.79 5.51-6.55 10.64-11.42 14.5-3.94 3.15-8.75 4.83-13.3 6.86-1.66-.69-3.35-1.29-5.02-1.91 4.29-3.25 10.23-2.5 14.4-5.86z"/><path fill="#81827a" d="M272.6 289.39l1.97.1c2.41.18 4.83.18 7.25 0 3.11 1.04 5.82 2.96 8.11 5.3-1.31 2-2.35 4.18-2.81 6.54 2.59-.97 5.04-2.26 7.39-3.71l.99 1.02c-2.31 1.56-5.15 2.84-6.35 5.53-1.35 2.83-2.12 5.88-3.24 8.79l-1.24-2.7-7.88 2.23 2.83-5.92c1.42-2.34 2.56-4.83 3.54-7.39-2.77 2.32-5.47 4.74-7.96 7.36-3.79.02-7.57-.65-10.92-2.48 1.71-5.46 6.14-9.44 8.32-14.67z"/><path fill="#2b2d2e" d="M275.2 306.54c2.49-2.62 5.19-5.04 7.96-7.36-.98 2.56-2.12 5.05-3.54 7.39-3.04 2.22-6.37 4.46-7.81 8.12-.85 1.75-1.43 3.67-2.62 5.24-.96.58-2.05.92-3.1 1.28l-5.05 1.5c1.75-2.7 3.48-5.41 5.35-8.02 4.21-1.07 5.97-5.32 8.81-8.15z"/><path fill="#72716b" d="M236.28 306.28c6.47-.75 12.41-3.95 19.02-3.96-4.17 3.36-10.11 2.61-14.4 5.86 1.67.62 3.36 1.22 5.02 1.91 1.11.81 2.18 1.68 3.25 2.54-1.11 2.95-2.5 5.96-2.37 9.19 1.8 3.63 6.3 3.83 9.8 4.43l1.5.89.86-.33.2-1.66 1.33.2c.16.84.28 1.69.39 2.55-1.46-.81-2.8.56-3.25 1.84l-3.44 1.6 1.13 2.65-1.14 1.28c-2.46 2.52-6.1 2.24-9.32 2.01l1.19-4.23c1.59.24 3.19.39 4.79.55 1.5-2.09 2.9-4.25 4.16-6.49-3.79.11-7.64.86-10.58 3.44l-5.31-1.24.79 1.63c-1.26-.52-2.5-1.07-3.74-1.61l.54 6.01c-1.92-1.38-4.07-2.78-5.05-5.04-.97-2.31-1.36-4.82-1.66-7.3 2.08-5.19 4.99-10.09 5.88-15.7.11-.26.31-.76.41-1.02z"/><path fill="#393a39" d="M290.49 314.41c5.21-2.67 10.74-4.78 15.53-8.22l1.46 1.85c-5.37 4.34-11.03 8.3-16.33 12.72l-1.47-2.31-3.12-.05c1.11-1.5 2.16-3.18 3.93-3.99z"/><path fill="#636566" d="M271.81 314.69c1.44-3.66 4.77-5.9 7.81-8.12-1.02 1.93-1.92 3.93-2.83 5.92 2.61-.79 5.24-1.53 7.88-2.23l1.24 2.7c-1.53 3.04-4.23 5.16-6.63 7.47-2.11 1.9-2.72 4.8-3.29 7.47l-.91 5.27-1.68 2.44-3.55-.6c.43-7.23 3.04-13.99 5.3-20.78l-3.34.46z"/><path fill="#4b4c4b" d="M251.09 314.16l3.88-2.49 1.9 1.45c3.29-1.02 6.56.08 9.52 1.57l-5.35 8.02 5.05-1.5c.65 2.47 2.12 5.49.09 7.73-3.41 1.16-6.95 2.27-9.36 5.14l-1.5-.09c-.4-.88-.77-1.77-1.13-2.65l3.44-1.6c1.28.42 3.81.03 3.25-1.84-.11-.86-.23-1.71-.39-2.55l-1.33-.2-.91-.11-1.65 1.21c-3.5-.6-8-.8-9.8-4.43-.13-3.23 1.26-6.24 2.37-9.19l1.92 1.53m-.27 8.87c2.11.05 4.21-.24 6.22-.9l-2.4-1.37.41-4.77c-1.96 1.93-5.04 3.81-4.23 7.04m10.97 5.94l3.39.05c.24-1.39.29-2.79.01-4.17-1.76.79-3.72 1.83-3.4 4.12z"/><path fill="#797a7c" d="M271.81 314.69l3.34-.46c-2.26 6.79-4.87 13.55-5.3 20.78-1.93-.35-3.82-.85-5.7-1.38l-1.95 1.05c-1.5.85-3.08 1.63-4.34 2.82-.47 1.49-.45 3.07-.51 4.62-.05 4.64-.01 9.59-2.35 13.76-1.32 2.36-4.23 2.84-6.52 3.79l-1.67-.55c1.43-.64 2.87-1.28 4.27-1.99l1.55-.97c2.34-4.2 2.65-9.07 3.08-13.75l-3.6-.02c.85-2.09 1.74-4.19 2.08-6.43 1.38.76 2.54-.59 2.63-1.88 2.41-2.87 5.95-3.98 9.36-5.14 2.03-2.24.56-5.26-.09-7.73 1.05-.36 2.14-.7 3.1-1.28 1.19-1.57 1.77-3.49 2.62-5.24z"/><path fill="#73716f" d="M250.82 323.03c-.81-3.23 2.27-5.11 4.23-7.04l-.41 4.77 2.4 1.37c-2.01.66-4.11.95-6.22.9z"/><path fill="#262625" d="M286.56 318.4l3.12.05 1.47 2.31c-3.11 2.69-6.31 5.25-9.67 7.62l-.47-4.22c2.12-1.65 4-3.57 5.55-5.76z"/><path fill="#4e4f4d" d="M229.24 336.92c-.76-4.63-1.12-9.5.75-13.92.3 2.48.69 4.99 1.66 7.3.98 2.26 3.13 3.66 5.05 5.04 2.52 1.3 5.35 1.79 8.16 1.94 3.22.23 6.86.51 9.32-2.01l.01.69c-.34 2.24-1.23 4.34-2.08 6.43l3.6.02c-.43 4.68-.74 9.55-3.08 13.75-1.07-1.14-2.09-2.34-3.34-3.3-1.1-.21-2.23-.06-3.32.05l1.04-1.65c-4.44.23-8.88.01-13.31.03 3.07 2.19 6.92 2.18 10.53 1.88-1.74.36-3.45.79-5.16 1.23 3.67 1.99 7.81 3.09 12.01 2.73-1.4.71-2.84 1.35-4.27 1.99-4.28-1.3-8.92-1.73-12.77-4.18-2.36-1.37-4.17-3.45-5.68-5.67l.36-3.59c1.56.95 3.31 1.49 5.15 1.3 2.37-.21 4.41 1.18 6.63 1.74 2.14.2 4.09-1.02 6.03-1.73-5.11-1.61-10.86-1.9-15.12-5.48-1.55-1.01-1.75-2.97-2.17-4.59z"/><path fill="#414241" opacity=".98" d="M275.99 327.9l5.02-3.74.47 4.22-6.4 4.79.91-5.27z"/><path fill="#8c8d8f" d="M256.6 326.25l1.65-1.21.91.11-.2 1.66-.86.33-1.5-.89z"/><path fill="#313230" d="M261.79 328.97c-.32-2.29 1.64-3.33 3.4-4.12.28 1.38.23 2.78-.01 4.17l-3.39-.05z"/><path fill="#5d5a57" d="M244.42 330.55c2.94-2.58 6.79-3.33 10.58-3.44-1.26 2.24-2.66 4.4-4.16 6.49-1.6-.16-3.2-.31-4.79-.55-2.1-.55-4.15-1.3-6.15-2.11l-.79-1.63 5.31 1.24z"/><path fill="#9b999c" d="M257.63 329.74c.45-1.28 1.79-2.65 3.25-1.84.56 1.87-1.97 2.26-3.25 1.84z"/><path fill="#86867e" d="M236.16 329.33l3.74 1.61c2 .81 4.05 1.56 6.15 2.11l-1.19 4.23c-2.81-.15-5.64-.64-8.16-1.94l-.54-6.01z"/><path opacity=".11" d="M264.15 333.63l5.7 1.38 3.55.6c1.94 1.01 3.73 2.34 5.8 3.06 2.51.62 5.12.31 7.67.47 5.95.12 11.46 2.83 17.39 3.08 5.81.25 11.61.77 17.42 1.08 3.51.13 6.79 1.63 10.27 1.89 2.44-.56 4.64-1.88 7.11-2.34 2.06-.23 4.16.21 6.06 1.01 1.85.62 2.3 2.72 3.18 4.23 1.81-1.68 3.61-3.37 5.35-5.12 1.43 2.67 3.53 4.87 6.21 6.31-.63 2.52-1.41 5-2.26 7.45-2.95.59-5.94.9-8.91 1.27-2.8.35-5.31 1.79-8.04 2.4-1.91-.08-3.66-.96-5.44-1.54-2.99 1.53-6.32 1.64-9.57 1.09-4.35-.75-8.39 1.26-12.57 1.94-5.41.33-10.74 1.87-16.18 1.14-10.84-.07-21.73 2.42-32.53.31 5.5-1.47 11.59-2.95 15.28-7.65 2.09-2.51 2.31-5.94 1.62-9.01-1.84-3.65-5.14-6.47-9.02-7.74-2.65-.73-5.43-.71-8.16-.89l-1.88-3.37 1.95-1.05z"/><path fill="#a9a4a5" d="M255.32 333.99l1.5.09c-.09 1.29-1.25 2.64-2.63 1.88l-.01-.69 1.14-1.28z"/><path fill="#2e2f2f" d="M257.86 337.5c1.26-1.19 2.84-1.97 4.34-2.82l1.88 3.37c2.73.18 5.51.16 8.16.89 3.88 1.27 7.18 4.09 9.02 7.74-2.13-.46-4.26-.96-6.4-1.3-2.28-.11-4.55-.1-6.82-.17-3.45-1.4-6.99-2.59-10.69-3.09.06-1.55.04-3.13.51-4.62m2.1.49c.91 1.46 1.79 3.75 3.98 3.08.78-2.38-2.31-2.88-3.98-3.08z"/><path fill="#646661" d="M229.24 336.92c.42 1.62.62 3.58 2.17 4.59 4.26 3.58 10.01 3.87 15.12 5.48-1.94.71-3.89 1.93-6.03 1.73-2.22-.56-4.26-1.95-6.63-1.74-1.84.19-3.59-.35-5.15-1.3l-.36 3.59c-2.04-4.03 1.13-8.18.88-12.35z"/><path fill="#52504f" d="M259.96 337.99c1.67.2 4.76.7 3.98 3.08-2.19.67-3.07-1.62-3.98-3.08z"/><path fill="#50504e" d="M257.35 342.12c3.7.5 7.24 1.69 10.69 3.09l-1.08.94c.15 1.82.41 3.62.66 5.42l-2.26 1.17-1.05-3.84-2.35.08c.62 2.6.86 5.45 2.42 7.72 5.26 3.24 11.43-1.64 12.93-6.78-.54-1.65-1.55-3.08-2.45-4.54 2.14.34 4.27.84 6.4 1.3.69 3.07.47 6.5-1.62 9.01-3.69 4.7-9.78 6.18-15.28 7.65l-2.7.23c-1.53-.01-3.06-.1-4.59-.18l3.67-1.84c-1.7-.17-3.39-.31-5.09-.4-2.48.04-4.92-.43-7.17-1.48 2.29-.95 5.2-1.43 6.52-3.79 2.34-4.17 2.3-9.12 2.35-13.76z"/><path fill="#6d6968" d="M268.04 345.21l6.82.17c.9 1.46 1.91 2.89 2.45 4.54-1.5 5.14-7.67 10.02-12.93 6.78-1.56-2.27-1.8-5.12-2.42-7.72l2.35-.08 1.05 3.84 2.26-1.17c-.25-1.8-.51-3.6-.66-5.42l1.08-.94m2.14 1.92c-1.59 2.1-.9 5.03 1.12 6.59 1.26.34 2.21-.55 2.76-1.59 1.03-1.5-.18-3.2-.46-4.73l-3.42-.27z"/><path fill="#858488" d="M270.18 347.13l3.42.27c.28 1.53 1.49 3.23.46 4.73-.55 1.04-1.5 1.93-2.76 1.59-2.02-1.56-2.71-4.49-1.12-6.59z"/><path fill="#6e6860" d="M233.7 351.29c4.43-.02 8.87.2 13.31-.03l-1.04 1.65-1.74.26c-3.61.3-7.46.31-10.53-1.88z"/><path fill="#353635" d="M245.97 352.91c1.09-.11 2.22-.26 3.32-.05 1.25.96 2.27 2.16 3.34 3.3l-1.55.97c-4.2.36-8.34-.74-12.01-2.73 1.71-.44 3.42-.87 5.16-1.23l1.74-.26z"/><path fill="#656360" opacity=".95" d="M255.65 361.15l5.09.4-3.67 1.84-1.42-2.24z"/></svg>