<svg xmlns="http://www.w3.org/2000/svg" width="682.667" height="682.667" viewBox="0 0 512 512"  xmlns:v="https://vecta.io/nano"><path fill="#1e1e1e" opacity=".76" d="M349.07 115.06c.85-1.91 1.78-4.34 4.11-4.77 2.21-.21 3.77 1.69 5.23 3.05-3.2-.02-6.36.57-9.34 1.72z"/><path fill="#66676f" d="M349.07 115.06c2.98-1.15 6.14-1.74 9.34-1.72 1.8 2.35 1.51 5.56 2.13 8.34 1 4.7-.38 9.49.45 14.2l4.59.68c1.02 2.69 1.56 5.52 2.24 8.3-1.25 4.32-3.74 8.11-6.24 11.8-1.81 2.88-5.51 3.76-7.33 6.64-2.29 3.17-5.34 5.64-8.48 7.91-.72-2.74.49-5.25 1.84-7.56-.28 1.48-.49 2.98-.68 4.49 2.36-1.66 4.91-3.4 6.19-6.07.83-2.02 1.19-4.17 1.71-6.27-.04 1.37-.03 2.75.02 4.13 1.02-.89 2.18-1.68 2.94-2.83.46-1.44.67-2.94.97-4.41l4.13-2c-.63-1.29-1.3-2.55-2.02-3.79l1.27-1.91c1.22-1.03 2.46-2.04 3.65-3.12-.61-.88-1.27-1.72-1.94-2.54-2.12.16-4.33 1.17-4.74 3.47-.45 1.35-.82 2.73-1.25 4.09-.93 2.35-1.92 4.69-2.59 7.14a8.34 8.34 0 0 0-1.07-3.37c-1.17 1.87-1.82 3.98-2.42 6.08l-1.93 1.27c.2-1.53.04-3.13.61-4.58 1.09-1.72 2.45-3.24 3.47-5.01.69-1.27 1.33-2.59 1.61-4.02l-1.45-1.76c.84-2.5 1.92-4.91 2.89-7.36 1.37-3.18 3.75-6.34 3-10-.57-3.58-.19-7.45-1.86-10.76-2.42 1.83-3.87 4.51-5.02 7.24l-5.28 11.19c-1.74 3.45-3.45 6.9-4.88 10.49-2.26 4.66-4.36 9.39-6.9 13.91-1.7-.72-3.33-1.63-4.37-3.2 2.89-5.41 6.23-10.7 7.86-16.68 1.75-6.68 7.1-11.82 8.09-18.8l1.45-3.61m7.96 25.2l-.41.72.41.71h.82l.41-.71-.41-.72h-.82z"/><path fill="#94988a" d="M353.1 121.76c1.15-2.73 2.6-5.41 5.02-7.24 1.67 3.31 1.29 7.18 1.86 10.76.75 3.66-1.63 6.82-3 10-.14-.34-.44-1.01-.58-1.35-.21-1.79.84-4.23-1.06-5.37.15-1.38.2-2.77.26-4.16-.82-.9-1.65-1.78-2.5-2.64z"/><path fill="#36383c" opacity=".84" d="M335.83 141.71c3.75-7.76 7.35-15.64 11.79-23.04-.99 6.98-6.34 12.12-8.09 18.8-1.63 5.98-4.97 11.27-7.86 16.68-2.26 2.41-7.37.59-7.92 4.67-.73 1.89-.32 5.03-3.02 5.2.82-3.54 2.02-7.01 4.21-9.96 1.57.23 3.16.39 4.75.5 2.45-4.08 3.98-8.62 6.14-12.85z"/><path fill="#61615e" d="M291.39 121.5c2.1-1.71 5.25-1.88 7.58-.54-1.66-.12-3.32-.07-4.97.05 1.17 2.47 4.38 1.51 6.48 1.14 1.88.17 3.85.03 5.65.68 1.81 1.04 1.68 3.36 1.89 5.15.41 4.1-.51 8.17-1.92 11.99-1.11.52-2.22 1.03-3.29 1.61-.23-1.51-.2-3.31-1.86-3.98l1.13-1.13c1.34-1.58 5.2-2.68 3.65-5.2l-3.13-.31 1.14-2.1c-3-.99-5.91.66-8.67 1.66l-1.49-.44c.87-1.87 2.22-3.8 1.39-5.94-4.51 2.31-4.78 8.32-8.95 11.01-.74-1.38-1.41-2.79-2.03-4.23a79.66 79.66 0 0 1 2.73-3.88l-3.54 1.06c2.49-2.49 5.37-4.54 8.21-6.6z"/><path fill="#747575" opacity=".96" d="M294 121.01c1.65-.12 3.31-.17 4.97-.05l1.51 1.19c-2.1.37-5.31 1.33-6.48-1.14z"/><path fill="#a6ae93" d="M353.1 121.76l2.5 2.64-.26 4.16-2.43 4.7-2.63-1.09c.28 2.66.94 5.46-.33 7.99-1.47-2.13-1.75-4.73-2.13-7.21l5.28-11.19z"/><path fill="#4d4e4e" d="M286.02 135.15c4.17-2.69 4.44-8.7 8.95-11.01.83 2.14-.52 4.07-1.39 5.94l1.49.44c-1.38.97-3.14 1.87-3.55 3.66a33.01 33.01 0 0 0 .28 2.63c1.44-1.38 2.39-4.2 4.86-3.53-.01 2.82-.42 5.6-.64 8.4l1.99-.47c-.31 1.54-.51 3.1-.68 4.67 2.59-.21 3.9-2.58 5.48-4.3 1.07-.58 2.18-1.09 3.29-1.61-.75 3.28-3.75 5.19-6.6 6.52-1.86 1.06-3.6-1.01-4.4-2.46l-2.38 1.84h-2.06l.36-4.81c-1.87 1.15-3.41 2.73-5.02 4.2l-3.03-1.36c-.2-1.43.18-3.01-.56-4.3-1.89-1.05-4.19-.75-6.27-.92 1.56-1.5 1.46-3.79 1.86-5.76 1.28-1.36 2.72-2.56 4.11-3.8-.89 1.32-1.68 2.7-2.46 4.09.89 1.4 2.09 2.54 3.44 3.51 1-.48 1.99-.98 2.93-1.57z"/><path fill="#7c7c7c" d="M283.18 128.1l3.54-1.06-2.73 3.88 2.03 4.23c-.94.59-1.93 1.09-2.93 1.57-1.35-.97-2.55-2.11-3.44-3.51l2.46-4.09 1.07-1.02z"/><path fill="#383836" d="M295.07 130.52c2.76-1 5.67-2.65 8.67-1.66l-1.14 2.1-.5.55c-.08.07-.24.19-.32.25v.17c-.04 1.51.11 3.03.3 4.54l-1.13 1.13c-1.04 1.15-2.04 2.35-2.94 3.61l-1.99.47.64-8.4c-2.47-.67-3.42 2.15-4.86 3.53l-.28-2.63c.41-1.79 2.17-2.69 3.55-3.66z"/><path fill="#5d5d5d" d="M355.34 128.56c1.9 1.14.85 3.58 1.06 5.37l-3.47 3.16-.02-3.83 2.43-4.7z"/><path fill="#c9c5c7" d="M301.78 131.76l.32-.25-.32.42v-.17z"/><path fill="#86878a" d="M302.1 131.51l.5-.55 3.13.31c1.55 2.52-2.31 3.62-3.65 5.2-.19-1.51-.34-3.03-.3-4.54l.32-.42z"/><path fill="#84897a" d="M350.28 132.17l2.63 1.09.02 3.83 3.47-3.16.58 1.35-2.89 7.36a31.1 31.1 0 0 0-.94 3.36l.78 2.42c-1.02 1.77-2.38 3.29-3.47 5.01-.57 1.45-.41 3.05-.61 4.58l-2.24 5.64c-1.35 2.31-2.56 4.82-1.84 7.56-.42 1.7-1 3.36-1.56 5.02-1.11.61-2.27 1.16-3.23 1.98-.87 1.58-1.24 3.37-1.83 5.06l-1.44.84-1.29-3.48c.52-3.5 2.03-6.77 3.43-10 1.15-2.75 3.21-5.28 3.23-8.39l-1.8-1.57 1.48-3.49c.41.93 1.25 1.56 2.31 1.39 1.54-2.38 2.82-4.92 4.12-7.44 1.14-2.01 1.53-4.73.01-6.66-1.79-1.2-2.74 1.55-3.87 2.49a62.27 62.27 0 0 1-2.39-3.52c1.43-3.59 3.14-7.04 4.88-10.49.38 2.48.66 5.08 2.13 7.21 1.27-2.53.61-5.33.33-7.99z"/><path fill="#86878b" d="M298.01 141.21c.9-1.26 1.9-2.46 2.94-3.61 1.66.67 1.63 2.47 1.86 3.98-1.58 1.72-2.89 4.09-5.48 4.3l.68-4.67z"/><path fill="#5d5f5d" d="M275.16 139.75l.98-1.07c2.08.17 4.38-.13 6.27.92.74 1.29.36 2.87.56 4.3l-4.51.21-3.3-4.36z"/><path fill="#8d8d93" d="M359.11 142.8c.41-2.3 2.62-3.31 4.74-3.47l1.94 2.54-3.65 3.12-3.03-2.19z"/><path fill="#737474" d="M272.71 142.49l2.45-2.74c1 1.52 2.13 2.96 3.3 4.36 1.51.02 3.01-.11 4.51-.21l3.03 1.36c-2.44 1.01-5.2 1.58-6.99 3.68l-2.84-2.12-1.51-1.86-1.95-2.47z"/><path fill="#a19fa6" d="M357.03 140.26h.82l.41.72-.41.71h-.82l-.41-.71.41-.72z"/><path fill="#3a3c3e" d="M286 145.26c1.61-1.47 3.15-3.05 5.02-4.2l-.36 4.81h2.06c-2.8 2.43-6.14 4.04-9.52 5.47-2.32.86-3.92 2.8-5.45 4.64l-2.81.9c1.69-1.57 3.28-3.26 4.7-5.08l-.63-2.86c1.79-2.1 4.55-2.67 6.99-3.68z"/><path fill="#010101" opacity=".76" d="M330.26 143.24c1.22-1.82 3.71-1.14 5.57-1.53-2.16 4.23-3.69 8.77-6.14 12.85-1.59-.11-3.18-.27-4.75-.5 1.77-3.6 2.95-7.54 5.32-10.82z"/><path fill="#e0ac8a" d="M268.96 144.95l3.75-2.46 1.95 2.47c-4.87.55-7.45 5.03-11.13 7.65-4.6 3.36-7.86 8.25-12.77 11.22-4.82 3.1-10.38 6.25-12.11 12.13-1.72-1.52-2.55-3.64-2.91-5.86l1.3-.96c5.99-3.61 11.64-7.75 17.33-11.82 2.14-1.48 3.99-3.31 5.77-5.2l3.84-3.12c1.93-.99 3.59-2.39 4.98-4.05z"/><path fill="#4f5054" d="M354.09 142.64l1.45 1.76c-.28 1.43-.92 2.75-1.61 4.02l-.78-2.42a31.1 31.1 0 0 1 .94-3.36z"/><path fill="#c4c2c9" d="M359.11 142.8l3.03 2.19-1.27 1.91-3.01-.01 1.25-4.09z"/><path fill="#a6ad98" d="M336.04 157.35c2.54-4.52 4.64-9.25 6.9-13.91a62.27 62.27 0 0 0 2.39 3.52c-5.26 9.23-9.39 19.05-13.87 28.66l-1.38.01.14-1.42c.21-1.5-.59-2.84-1.03-4.22l1.3-2 .94 2.9c2.48-4.15 3.27-8.97 4.61-13.54z"/><path d="M345.33 146.96c1.13-.94 2.08-3.69 3.87-2.49-2.52 4.04-4.34 8.45-6.44 12.71-.52 1.15-.99 2.32-1.48 3.49-1.83 4.29-4.07 8.39-5.78 12.73-.98 2.54-2.32 4.91-3.84 7.16-.42-1.62-.34-3.29-.2-4.94 4.48-9.61 8.61-19.43 13.87-28.66zm-111.27 43.83l3.16.36c-3.85 2.51-9.01 2.41-12.21 5.95-1.41 1.03-2.8 2.08-4.17 3.16a12.09 12.09 0 0 0 1.59 2.3l.61.67-4.47 2.5-1.5-1.72c1.87-2.38 2.91-5.19 2.64-8.24 2.44-.9 4.85-1.85 7.34-2.59 2.38-.67 4.74-1.41 7.01-2.39z" fill="#727374"/><path fill="#624839" opacity=".59" d="M263.98 149c1.5-1.53 3.14-2.94 4.98-4.05-1.39 1.66-3.05 3.06-4.98 4.05z"/><path fill="#f3c3aa" d="M263.53 152.61c3.68-2.62 6.26-7.1 11.13-7.65l1.51 1.86c-1.51 2.55-3.05 5.11-5.02 7.34-3.23 3.78-7.59 6.43-10.54 10.47-1.83 2.44-3.74 4.99-6.62 6.27-4.53 2.12-8.16 5.78-12.92 7.45l-2.42-2.39c1.73-5.88 7.29-9.03 12.11-12.13 4.91-2.97 8.17-7.86 12.77-11.22z"/><path fill="#a7ae96" d="M342.76 157.18c2.1-4.26 3.92-8.67 6.44-12.71 1.52 1.93 1.13 4.65-.01 6.66-1.3 2.52-2.58 5.06-4.12 7.44-1.06.17-1.9-.46-2.31-1.39z"/><path fill="#d8a98b" d="M276.17 146.82l2.84 2.12.63 2.86c-1.42 1.82-3.01 3.51-4.7 5.08-2.28 1.32-4.54 2.77-6.13 4.92-5.24 6.7-11.32 12.67-17.54 18.45-1.32 1.19-2.84 2.12-4.34 3.05-1.97-1.63-4-3.19-5.86-4.95 4.76-1.67 8.39-5.33 12.92-7.45 2.88-1.28 4.79-3.83 6.62-6.27 2.95-4.04 7.31-6.69 10.54-10.47 1.97-2.23 3.51-4.79 5.02-7.34z"/><path fill="#7f7f85" d="M357.86 146.89l3.01.01 2.02 3.79-4.13 2-.97 4.41c-.76 1.15-1.92 1.94-2.94 2.83l-.02-4.13.44-1.77c.67-2.45 1.66-4.79 2.59-7.14z"/><path fill="#39383c" opacity=".95" d="M354.2 150.66a8.34 8.34 0 0 1 1.07 3.37l-3.49 2.71c.6-2.1 1.25-4.21 2.42-6.08z"/><path fill="#755642" opacity=".69" d="M243.52 163.57c5.6-3.73 10.81-8.03 16.62-11.45-1.78 1.89-3.63 3.72-5.77 5.2-5.69 4.07-11.34 8.21-17.33 11.82 1.98-2.05 4.1-3.99 6.48-5.57z"/><path fill="#555461" d="M323.75 158.82c.55-4.08 5.66-2.26 7.92-4.67 1.04 1.57 2.67 2.48 4.37 3.2-1.34 4.57-2.13 9.39-4.61 13.54l-.94-2.9c-.14-.88-.23-1.77-.29-2.65l.54-3.31-.48-1.36c-2.12-.77-4.32-1.29-6.51-1.85z"/><path fill="#010101" opacity=".05" d="M351.78 156.74c1.22-.83 2.37-1.76 3.49-2.71l-.44 1.77c-.52 2.1-.88 4.25-1.71 6.27-1.28 2.67-3.83 4.41-6.19 6.07l.68-4.49 2.24-5.64 1.93-1.27z"/><path opacity=".76" d="M280.03 157.13c1.65-.85 3.31-1.71 5.09-2.26 2.78-.06 5.53.93 7.97 2.2 2.47 3.81 2.35 9.08-.05 12.91-1.33 2.01-3.64 3.22-6.05 3.26a96.39 96.39 0 0 1 .78-4.12c-1.99 1.91-3.98 3.86-6.3 5.38-3.01 2.02-6.44 3.4-9.18 5.8-5.84 5.2-10.15 11.81-15.59 17.38-1.77 1.76-3.04 3.93-3.95 6.24a58.57 58.57 0 0 1-3.9-5.87l-.6-1.59c1.37-.38 2.67-.95 4.05-1.3l-.57-2.12c-.28-1.41-.94-2.82-.75-4.27.64-2.36 1.87-4.52 3.12-6.6l4.89-5.12c4.1-2.44 7.92-5.37 11.34-8.71 2.12-2.04 2.95-5 4.79-7.26 1.45-1.53 3.2-2.74 4.91-3.95z"/><path opacity=".07" d="M274.94 156.88l2.81-.9 2.28 1.15c-1.71 1.21-3.46 2.42-4.91 3.95-1.84 2.26-2.67 5.22-4.79 7.26-3.42 3.34-7.24 6.27-11.34 8.71 5.09-6.9 11.2-13.01 15.95-20.17z"/><path fill="#b88e74" d="M268.81 161.8c1.59-2.15 3.85-3.6 6.13-4.92-4.75 7.16-10.86 13.27-15.95 20.17l-4.89 5.12c-1.74 1.37-3.58 3.07-5.96 2.95l-1.21-1.82c1.5-.93 3.02-1.86 4.34-3.05 6.22-5.78 12.3-11.75 17.54-18.45z"/><path fill="#818285" d="M320.73 164.02c2.7-.17 2.29-3.31 3.02-5.2l6.51 1.85.48 1.36-6.01-.28c.58 2.5 3.52 2.65 5.47 3.59l.29 2.65-1.3 2c.44 1.38 1.24 2.72 1.03 4.22l-1.54-.25-1.62-1.56c-1.57.38-.99 2.42-.88 3.56-2.38.94-5.18-.1-6.9-1.84 1.18-.38 2.53-.61 2.98-1.94l-2.76-3.56c.29-1.56.73-3.09 1.23-4.6z"/><path fill="#979c8f" d="M341.28 160.67l1.8 1.57c-.02 3.11-2.08 5.64-3.23 8.39-1.4 3.23-2.91 6.5-3.43 10 .32 1.19.83 2.33 1.29 3.48-1.18.49-2.39.92-3.59 1.36-.93-1.58-1.88-3.17-2.46-4.91 1.52-2.25 2.86-4.62 3.84-7.16 1.71-4.34 3.95-8.44 5.78-12.73z"/><path fill="#cea762" d="M324.73 161.75l6.01.28-.54 3.31c-1.95-.94-4.89-1.09-5.47-3.59z"/><path fill="#87888d" opacity=".96" d="M318.89 172.4l.61-3.78 2.76 3.56c-.45 1.33-1.8 1.56-2.98 1.94l-.39-1.72z"/><path fill="#63635f" d="M231.74 171.62c1.18-.83 2.67-1.02 4-1.52.36 2.22 1.19 4.34 2.91 5.86l2.42 2.39c1.86 1.76 3.89 3.32 5.86 4.95l1.21 1.82c-3.79-.41-6.92-2.77-10.49-3.9-2.74-.81-5.35.91-7.88 1.71l-3.81.98-8.38 1.83c.85-1.83 1.39-3.9 2.87-5.34 2.02-2.11 4.85-3.07 7.2-4.71 1.53-1.18 2.65-2.79 4.09-4.07z"/><path fill="#4d4d59" d="M311.34 172.27l7.55.13.39 1.72c1.72 1.74 4.52 2.78 6.9 1.84 1.01-.4 1.84-1.07 2.5-2l1.54.25-.14 1.42-1.04.92-3.22 3.1c-1.59-.68-3.16-1.7-4.95-1.53-1.59 2.3-2.24 5.17-2.34 7.94l3.47 1.32c-.58 1.06-1.28 2.05-2.06 2.97-2-.66-3.95-1.47-5.86-2.35 1.41-2.77 2.84-5.59 3.51-8.66l.29-3.18a46.87 46.87 0 0 0-6.01-.6l1.09 2.74-.81-.18-1.66-.68c-.44-1.73-.66-3.89.85-5.17z"/><path fill="#c4c3cb" d="M327.06 172.4l1.62 1.56c-.66.93-1.49 1.6-2.5 2-.11-1.14-.69-3.18.88-3.56z"/><path fill="#8f8e98" d="M311.87 175.56a46.87 46.87 0 0 1 6.01.6l-.29 3.18-4.63-1.04-1.09-2.74z"/><path fill="#7f8178" d="M329.04 176.55l1.04-.92 1.38-.01c-.14 1.65-.22 3.32.2 4.94.58 1.74 1.53 3.33 2.46 4.91l-1.4 2.34c-1.91 2.64-2.69 5.82-3.77 8.84l-2.39-.03c-1.82 2.38-3.62 4.84-6.36 6.24l-.4-2.58.75-3.84c.81-1.19 2.13-2.17 2.36-3.67.56-2.04.34-4.48 1.94-6.09 2.45-2.75 4.93-6.23 4.19-10.13M326.05 192c3.36-2.48 4.51-6.92 4.98-10.88-3.05 2.71-4.17 7.02-4.98 10.88z"/><path fill="#383838" opacity=".74" d="M340.98 178.21c.96-.82 2.12-1.37 3.23-1.98-.79 2.87-2.23 5.71-5.06 7.04.59-1.69.96-3.48 1.83-5.06z"/><path fill="#969b93" d="M325.82 179.65c1-1.11 2.1-2.12 3.22-3.1.74 3.9-1.74 7.38-4.19 10.13-1.6 1.61-1.38 4.05-1.94 6.09-.23 1.5-1.55 2.48-2.36 3.67-.37-1.3-.76-2.58-1.17-3.86-1.63-.58-3.35-.89-5.04-.35-.78 1.81-1.19 3.74-1.6 5.66l-2.68 3.29c-.67-4.76 2.12-9.03 4.02-13.18 1.91.88 3.86 1.69 5.86 2.35.78-.92 1.48-1.91 2.06-2.97 1.41-2.51 2.59-5.13 3.82-7.73m-10.59 10.56l.01.45h.44v-.45h-.45z"/><path opacity=".77" d="M312.15 178.12l.81.18 4.63 1.04c-.67 3.07-2.1 5.89-3.51 8.66-1.9 4.15-4.69 8.42-4.02 13.18l.46.64c1.14.31 2.3.56 3.46.82-1.74.19-3.7-.01-5 1.39l-.39.86-.92 2.07-.76 1.61-2.65 2.69c-1.02-1.56-2.03-3.13-3.11-4.64-2.02-.92-4.27-.86-6.41-1.23l-.9-2.1.88.24c1.79.35 4.04 1.59 5.62.08 1.38-1.63 2.42-3.76 2.17-5.94-1.68-.83-3.53-1.43-4.87-2.78.32-1.2.71-2.39 1.41-3.43l4.61.14c.92-3.31 1.03-6.96 2.94-9.91 1.03-1.6 3.26-.97 4.86-1.42l.69-2.15z"/><path fill="#74747d" d="M320.87 178.12c1.79-.17 3.36.85 4.95 1.53l-3.82 7.73-3.47-1.32c.1-2.77.75-5.64 2.34-7.94z"/><path fill="#4f4946" d="M229.77 182.93c2.53-.8 5.14-2.52 7.88-1.71 3.57 1.13 6.7 3.49 10.49 3.9 2.38.12 4.22-1.58 5.96-2.95-1.25 2.08-2.48 4.24-3.12 6.6-.19 1.45.47 2.86.75 4.27l-1.61-.54c-2.47-.66-4.54 1.38-6.93 1.59-1.94-1.06-3.68-2.78-5.97-2.94l-3.16-.36c1.74-1.56 4.17-1.27 6.33-1.43 1.28-1.53-.42-3.08-1.54-4.07-2.87-1.28-6.06-1.59-9.08-2.36z"/><path fill="#68686d" d="M326.05 192c.81-3.86 1.93-8.17 4.98-10.88-.47 3.96-1.62 8.4-4.98 10.88z"/><path d="M225.96 183.91l3.81-.98c3.02.77 6.21 1.08 9.08 2.36 1.12.99 2.82 2.54 1.54 4.07-2.16.16-4.59-.13-6.33 1.43-2.27.98-4.63 1.72-7.01 2.39-2.69-.29-5.85-.6-7.45-3.11 1.88-2.28 4.05-4.32 6.36-6.16zm10.86 88.24l1.09-1.27c3.49.66 6.37 2.8 8.1 5.88-2.19-.39-4.47-.63-6.49-1.6-1.08-.83-1.85-1.97-2.7-3.01z" fill="#3c3e3d"/><path fill="#515352" d="M217.58 185.74l8.38-1.83c-2.31 1.84-4.48 3.88-6.36 6.16 1.6 2.51 4.76 2.82 7.45 3.11-2.49.74-4.9 1.69-7.34 2.59-1.67.6-3.4 1.07-4.96 1.93-1.35 1.44-2.04 3.37-3.32 4.89.38-2.64.52-5.33 1.26-7.9.98-3.3 3.15-6.04 4.89-8.95z"/><path fill="#555553" d="M328.95 196.65c1.08-3.02 1.86-6.2 3.77-8.84-.84 2.62-2.03 5.24-2.06 8.04.48 1.05 1.37 1.85 2.16 2.69-.47 1.84-.52 3.74.27 5.51l2.68-.17.53-1.8c2.39 5.29 2.37 11.28 2.45 16.98.19 4.18-3.73 7.12-3.64 11.35l-.59-.64-1.55-1.88 1.06-2.14c-1.24-1.15-2.94-2.1-4.66-1.44-1.55.72-2.94 1.73-4.45 2.5-2.06.43-2.75-1.85-3.48-3.25l.34-.81.12-1.7c-.51-1.34-.36-3.47-1.89-4.08-1.85 1.39-1.09 4.13-1.94 6.09-2.59 2.74-3.39 6.65-6 9.34-1.53-1.35-2.88-2.88-4-4.58a3.44 3.44 0 0 1 2.01-2.25l2.39-.09.4-2.35c.97-2.47 2.97-4.26 4.74-6.15-.62-1.76-1.75-3.47-1.5-5.4 1.06-.08 2.14-.14 3.21-.18l.9-1.51.71 1.09c.98 1.94 2.55 3.58 4.92 3.06-.68-2.95-1.79-5.96-1.01-9.02 1.48-2.73 2.99-5.46 4.11-8.37m-1.03 16.36c2.51 3.05 5.17 6.2 8.83 7.91-.81-3.54-.05-7.17-.7-10.7-.9.77-1.61 1.83-2.72 2.31-.68-1.62-1.02-3.46-2.27-4.77-1.29 1.59-2.4 3.33-3.14 5.25z"/><path fill="#cdcccb" d="M315.23 190.21h.45v.45h-.44l-.01-.45z"/><path fill="#5d5956" d="M237.22 191.15c2.29.16 4.03 1.88 5.97 2.94 2.39-.21 4.46-2.25 6.93-1.59l-2.57 1.65c1.39 1.02 3.1 1.02 4.75 1.01-1.38.35-2.68.92-4.05 1.3-2.23.56-4.58.86-6.63 1.94-1.54 1.23-2.67 3.08-4.76 3.47-4.43 1.22-9.29 3.3-13.82 1.36l-.61-.67c3.36-2.95 7.8-3.88 11.87-5.41 2.2-.92 4.6-.79 6.93-.77l-.69-2.03c-5.37-.63-10.28 2.2-15.53 2.75 3.2-3.54 8.36-3.44 12.21-5.95z"/><path fill="#96effd" d="M314.34 192.23c1.69-.54 3.41-.23 5.04.35l-4.4.65-.23 2.73c1.38.91 2.99.38 4.5.17l-.67 2.6-1.74.62-4.1-1.46c.41-1.92.82-3.85 1.6-5.66z"/><path fill="#6c6d71" d="M247.55 194.15l2.57-1.65 1.61.54.57 2.12c-1.65.01-3.36.01-4.75-1.01z"/><path fill="#e2ffff" d="M314.98 193.23l4.4-.65-.13 3.55c-1.51.21-3.12.74-4.5-.17l.23-2.73z"/><path fill="#83adde" d="M319.38 192.58l1.17 3.86-.75 3.84-2.96-.93 1.74-.62.67-2.6.13-3.55z"/><path fill="#999a9f" d="M225.01 197.1c5.25-.55 10.16-3.38 15.53-2.75l.69 2.03c-2.33-.02-4.73-.15-6.93.77-4.07 1.53-8.51 2.46-11.87 5.41a12.09 12.09 0 0 1-1.59-2.3c1.37-1.08 2.76-2.13 4.17-3.16z"/><path fill="#646462" d="M214.75 197.7c1.56-.86 3.29-1.33 4.96-1.93.27 3.05-.77 5.86-2.64 8.24l1.5 1.72c1.37 1.66 3.46 1.59 5.43 1.41-1.6 2.02-2.44 4.46-2.91 6.96-.36 1.43-.7 2.88-1.32 4.23-2.84-1.61-2.84-5.01-3.58-7.81-3.2-.63-5.5 2.49-8.23 3.67 1.13-2.29 2.52-4.43 3.75-6.66.58-1.03.82-3.19-.59-3.64-2.88 3.18-4.33 7.3-5.82 11.25.13-2.79.17-5.74 1.68-8.2.96-1.91 2.91-2.97 4.45-4.35 1.28-1.52 1.97-3.45 3.32-4.89z"/><path fill="#2f2f2b" d="M241.62 198.4c2.05-1.08 4.4-1.38 6.63-1.94l.6 1.59-5.75 3.64c-5.91 3.11-12.51 4.68-19.1 5.45-1.97.18-4.06.25-5.43-1.41l4.47-2.5c4.53 1.94 9.39-.14 13.82-1.36 2.09-.39 3.22-2.24 4.76-3.47z"/><path fill="#98a089" d="M326.56 196.62l2.39.03c-1.12 2.91-2.63 5.64-4.11 8.37-1.48 1.87-2.92 3.78-3.91 5.96l-.71-1.09-1.36-2.07.71-1.39c1.01-.95.73-2.35.63-3.57 2.74-1.4 4.54-3.86 6.36-6.24z"/><path fill="#424354" d="M272.1 199.12c1.29-3.23 5.17-2.52 7.45-.84 1.34 2 1.27 5.52 4.35 5.65l2.94-3.14c1.69-.95 3.79-.77 5.63-.43 1.01.84 1.53 2.1 2.25 3.17l-.88-.24c-2.42-.51-5.04-1.79-7.49-1l-.11 1.53-.12 1.61-3.46 4.58-1.59-.04c-.02-3.99-.43-8.48-3.52-11.37-1.83 0-3.65.23-5.45.52z"/><path fill="#585a57" d="M243.1 201.69l5.75-3.64a58.57 58.57 0 0 0 3.9 5.87c1.12 1.34 2.27 2.72 3.75 3.69 1.66.62 3.7.1 4.43-1.63.83-2.32 1.28-4.75 1.96-7.12.03 3 .02 6.06-.99 8.92-1.39 1.5-2.61 3.57-1.25 5.54l1.55.48.44.1 2.22.5c-2.67 1.72-5.48 3.51-7.02 6.41-3.1 4.74-1.87 11-5.34 15.57 1.02.72 2.96 1.07 2.77 2.71-.08 3.34-1.31 6.54-1.48 9.88.25 2.05 1.5 3.88 1.59 5.94-.48 3.06-1.6 5.98-2.68 8.87-2.58-1.51-4.25-4.11-6.59-5.93.49 2.07 1.08 4.12 1.86 6.11-2.35-2.28-4.36-4.88-6.83-7.03-.22 1.76-.4 3.52-.48 5.3-.93-4.55-.59-9.26.63-13.71 1.75 1.72 1.55 4.27 1.94 6.51 1.17-1 2.07-2.26 2.47-3.77 1.6-4.61 2.88-9.39 3.16-14.29-1.15.99-2.28 2.01-3.4 3.02l-3.82-4.14c1.48-.69 2.99-1.35 4.52-1.95l3.46-1.36c.77-1.59 1.24-3.29 1.6-5.01-2.97.23-5.96.62-8.95.34-.02-1.46-.02-2.91.01-4.36 3.43-2.28 7.6-1.99 11.49-2.57 1.75-.15 2.59-1.92 3.62-3.1-4.01-2.86-9.31-1.02-13.52.55-4.71 1.63-9.61 2.89-13.88 5.57-4.25 2.26-7.67 5.7-11.19 8.93-2.06 1.66-1.83 5.29-4.72 5.95-1.53-1.09-1.48-2.87-1.16-4.52-.75-.5-1.53-.97-2.37-1.31-.75-1.54-1.73-3.61-.6-5.2 2.07-2.51 1.97-5.91 3.04-8.86-.34-1.64-1.04-3.17-1.65-4.72-.51.7-1 1.41-1.47 2.14-.95-.47-1.58-1.2-1.91-2.18 2.73-1.18 5.03-4.3 8.23-3.67.74 2.8.74 6.2 3.58 7.81-1.86 1.85-4.68 3.43-4.6 6.42l.9 1.15c1.28-1.09 2.52-2.22 3.7-3.41l1.44 3.26c4.02-.88 7.57-3.03 10.97-5.26a113.03 113.03 0 0 1 7.87-3.72l8.22-1.8c2.66-.47 5.36-.86 7.87-1.93-1.64-2.74-4.37-4.44-6.73-6.48-2.03-1.72-3.46-4.39-6.31-4.87m6.93 55.56a10.53 10.53 0 0 0 3.31-1.32c-.47-1.95-2.29-4-4.31-4.23-2.51 1.33.29 3.86 1 5.55z"/><path fill="#62657c" d="M262.89 198.86c2.8-2.16 6.23-.49 9.21.26l-.11 2.75a12.59 12.59 0 0 0-1.08 2.5l4.22 5.65-4.9 1.94-8.33-4.18c1.01-2.86 1.02-5.92.99-8.92z"/><path fill="#6f738b" d="M272.1 199.12c1.8-.29 3.62-.52 5.45-.52 3.09 2.89 3.5 7.38 3.52 11.37l-5.94.05c-1.24-2.01-2.83-3.76-4.22-5.65a12.59 12.59 0 0 1 1.08-2.5l.11-2.75m3.2.92c-.33 1.43.19 1.9 1.55 1.43.32-1.43-.2-1.9-1.55-1.43z"/><path fill="#797b7c" d="M310.06 201.18l2.68-3.29 4.1 1.46 2.96.93.4 2.58c.1 1.22.38 2.62-.63 3.57-3.25-1.76-6.94-2.33-10.59-2.4 1.3-1.4 3.26-1.2 5-1.39-1.16-.26-2.32-.51-3.46-.82l-.46-.64z"/><path fill="#696868" opacity=".95" d="M333.09 204.05c-.79-1.77-.74-3.67-.27-5.51 1.2 1.13 2.48 2.21 3.48 3.54l-.53 1.8-2.68.17z"/><path fill="#9796a5" d="M275.3 200.04c1.35-.47 1.87 0 1.55 1.43-1.36.47-1.88 0-1.55-1.43z"/><path fill="#777970" d="M224 207.14c6.59-.77 13.19-2.34 19.1-5.45 2.85.48 4.28 3.15 6.31 4.87 2.36 2.04 5.09 3.74 6.73 6.48-2.51 1.07-5.21 1.46-7.87 1.93.02-3.64-1.68-7.66-5.47-8.68-3 .43-5.58 2.23-8.53 2.85-2.29.29-4.6-.09-6.9.09-2.7.6-4.58 2.85-6.28 4.87.47-2.5 1.31-4.94 2.91-6.96z"/><path fill="#5f6279" d="M286.35 202.29c2.45-.79 5.07.49 7.49 1l.9 2.1c2.14.37 4.39.31 6.41 1.23l-1.31 10.59-1.87 5.79-1.79.35c-1.15-1.06-2.16-2.27-3.05-3.55-.83-3.96-3.03-7.48-3.69-11.5-.13-2.05-1.82-3.23-3.2-4.48l.11-1.53z"/><path fill="#8e8f91" d="M205.3 215.14c1.49-3.95 2.94-8.07 5.82-11.25 1.41.45 1.17 2.61.59 3.64-1.23 2.23-2.62 4.37-3.75 6.66.33.98.96 1.71 1.91 2.18l-.82 3.62c-1.23.86-2.59 1.49-3.92 2.15l.17-7z"/><path fill="#5c5c5c" d="M286.24 203.82c1.38 1.25 3.07 2.43 3.2 4.48.66 4.02 2.86 7.54 3.69 11.5-.04.42-.1 1.26-.13 1.67-.52 3.08.66 6.07 1.8 8.87 1.04 2.57 3.38 4.24 5.18 6.24-.02 1.28-.51 2.48-.85 3.7l-2.79-.59-.94-2.61c-.42 1.53-1.01 3.04-1.04 4.65.91 1.22 2.09 2.21 3.15 3.3l-1.07 3.1 2.55-1.02c.42 2.15-1.6 4.73-3.81 3.8l-.52-5.76a50.24 50.24 0 0 0-4.62.57c1.14-2.41 2.39-4.88 2.27-7.63-.04-3.4.37-7-.78-10.26-2.62-1.56-5.65-2.17-8.42-3.36l-.27-1.39c1.76.45 3.54.85 5.34 1.16l-.72-1.61c-5.37-2.1-11.11-2.93-16.83-3.22l-.88-3.65c-.84-.31-1.69-.61-2.55-.82l3.03-2.98c1.61-.7 3.25-1.34 4.9-1.94l5.94-.05 1.59.04 3.4 1.7c.74-1.02 1.81-2.03 1.71-3.41l-1.65-2.87.12-1.61m-5.03 13.44v.45h.45v-.45h-.45z"/><path fill="#a8a6b0" d="M308.98 204.03c3.65.07 7.34.64 10.59 2.4l-.71 1.39c-3.16-.34-6.4-.47-9.44-1.47l-.83-1.46.39-.86z"/><path fill="#6d6d7a" d="M307.67 206.96l.92-2.07.83 1.46c3.04 1 6.28 1.13 9.44 1.47l1.36 2.07-.9 1.51-3.21.18c-.25 1.93.88 3.64 1.5 5.4-1.77 1.89-3.77 3.68-4.74 6.15l-5.03-1.42c3.84-2.66 7.05-7.27 5.52-12.12-1.85-.98-3.76-1.83-5.69-2.63z"/><path fill="#717170" d="M320.93 210.98c.99-2.18 2.43-4.09 3.91-5.96-.78 3.06.33 6.07 1.01 9.02-2.37.52-3.94-1.12-4.92-3.06z"/><path fill="#8c8f85" d="M234.27 209.14c2.95-.62 5.53-2.42 8.53-2.85 3.79 1.02 5.49 5.04 5.47 8.68l-8.22 1.8c.24-3.16-1.72-6.15-5.01-6.47-2 .54-3.54 2.3-4.45 4.1-.83 2.19.3 4.35 1.59 6.09-3.4 2.23-6.95 4.38-10.97 5.26l-1.44-3.26c-1.18 1.19-2.42 2.32-3.7 3.41l-.9-1.15c-.08-2.99 2.74-4.57 4.6-6.42.62-1.35.96-2.8 1.32-4.23 1.7-2.02 3.58-4.27 6.28-4.87 2.3-.18 4.61.2 6.9-.09z"/><path fill="#74727e" d="M286.12 205.43l1.65 2.87c.1 1.38-.97 2.39-1.71 3.41l-3.4-1.7 3.46-4.58z"/><path fill="#2a2b2f" opacity=".9" d="M301.15 206.62l3.11 4.64c-.78 2.45-1.34 5.55-4.42 5.95.51-3.52.92-7.06 1.31-10.59z"/><path fill="#4e5263" d="M306.91 208.57l.76-1.61 5.69 2.63c1.53 4.85-1.68 9.46-5.52 12.12-1.26-.2-2.52-.38-3.77-.52a68.26 68.26 0 0 1 1.07 2.62l.7 2.52c-2.64.63-4.03-1.49-4.94-3.6 2.24-2.22 4.25-4.76 5.09-7.86.52-2.29 2.2-3.91 3.95-5.35-1.05-.19-2.06-.51-3.03-.95z"/><path fill="#55596e" d="M260.65 213.32c-1.36-1.97-.14-4.04 1.25-5.54l8.33 4.18-3.03 2.98-2.34-.54-2.22-.5-.44-.1-1.55-.48z"/><path fill="#606160" d="M327.92 213.01c.74-1.92 1.85-3.66 3.14-5.25 1.25 1.31 1.59 3.15 2.27 4.77 1.11-.48 1.82-1.54 2.72-2.31.65 3.53-.11 7.16.7 10.7-3.66-1.71-6.32-4.86-8.83-7.91z"/><path fill="#2c2c33" d="M304.26 211.26l2.65-2.69c.97.44 1.98.76 3.03.95-1.75 1.44-3.43 3.06-3.95 5.35-.84 3.1-2.85 5.64-5.09 7.86l-.58.26a61.28 61.28 0 0 0-2.35.01l1.87-5.79c3.08-.4 3.64-3.5 4.42-5.95z"/><path fill="#9e9f94" d="M230.59 214.4c.91-1.8 2.45-3.56 4.45-4.1 3.29.32 5.25 3.31 5.01 6.47l-7.87 3.72c-1.29-1.74-2.42-3.9-1.59-6.09z"/><path fill="#acaab3" d="M262.2 213.8l.44.1-.44-.1z"/><path fill="#666764" d="M209.87 216.37l1.47-2.14c.61 1.55 1.31 3.08 1.65 4.72-1.07 2.95-.97 6.35-3.04 8.86-1.13 1.59-.15 3.66.6 5.2.84.34 1.62.81 2.37 1.31-.32 1.65-.37 3.43 1.16 4.52 2.89-.66 2.66-4.29 4.72-5.95l-.97 4.93c2.82-1.36 5.3-3.29 7.46-5.53 2.52-2.61 5.68-4.42 8.71-6.35 2.85-.44 5.71-1.08 8.28-2.43-.03 1.45-.03 2.9-.01 4.36 2.99.28 5.98-.11 8.95-.34-.36 1.72-.83 3.42-1.6 5.01l-3.46 1.36-.42-1.57c-4.02.66-7.8 2.28-11.54 3.85-4.55 1.67-6.21 6.7-9.41 9.94l-3.49 4.24c-.52-.97-1.08-1.9-1.66-2.82.07-1.87 2.06-3.94.54-5.54-2.09.66-4.13 1.51-6.04 2.6 1.73 2.28 2.28 5.09 1.75 7.89-4.99-.55-10.02-2.16-13.88-5.47-1.97-1.53-1.4-4.28-1.73-6.44 1.85 2.49 3.56 5.13 5.82 7.29 2.45 1.95 6.31 3.39 8.99 1.05-1.83-3.17-6.17-3.74-7.74-7.11-1.71-3.34-4.08-6.29-5.69-9.68 1.3-1.58 2.7-3.08 3.89-4.74.99-.96-.17-2.21-.47-3.19-1.34.55-2.64 1.15-3.92 1.8 1.23-1.37 2.54-2.68 3.97-3.86 1.33-.66 2.69-1.29 3.92-2.15l.82-3.62z"/><path fill="#7f7d76" d="M264.86 214.4l2.34.54c.86.21 1.71.51 2.55.82l.88 3.65c5.72.29 11.46 1.12 16.83 3.22l.72 1.61c-1.8-.31-3.58-.71-5.34-1.16-1.9-.3-4.11-1.44-5.86-.12-1.37 1.31-2.73 2.63-4.22 3.81-3.27-.6-6.82-2.91-10.06-1.03-2.26 1.83-4.17 4.34-4.84 7.2 1.05 2.44 3.5 4 5.19 6.01-.66 2.7-1.52 5.35-2.64 7.9-1.86 4.13-4.09 8.3-4.29 12.92 2.93 2.33 5.92 5.11 9.79 5.63 3.83.5 8.1 1.29 11.62-.81 3.52-1.87 4.39-6.08 5.45-9.57 1.05-4.18 2.5-8.35 2.51-12.7-1.19-1.34-2.49-2.59-3.54-4.05-.8-1.69-1.14-3.56-1.52-5.37.08-1.88.13-3.76.13-5.63a96.06 96.06 0 0 0 2.55-2.8c2.77 1.19 5.8 1.8 8.42 3.36 1.15 3.26.74 6.86.78 10.26.12 2.75-1.13 5.22-2.27 7.63-.95 2.42-.99 5.05-1.39 7.59-.44 3.25-1.69 6.38-1.65 9.71 5.18.34 7.05-5.27 8.98-9-.49 2.91-1.06 5.81-1.69 8.7-1.01 1.18-2.04 2.34-2.98 3.58-1.65-.77-3.32-1.49-5.06-2.02-1.17 1.44-2.07 3.16-3.58 4.29-6.47 3.88-14.56 6.38-21.93 3.55-4.63-2.04-8.92-4.9-12.77-8.16-.78-1.99-1.37-4.04-1.86-6.11 2.34 1.82 4.01 4.42 6.59 5.93 1.08-2.89 2.2-5.81 2.68-8.87-.09-2.06-1.34-3.89-1.59-5.94.17-3.34 1.4-6.54 1.48-9.88.19-1.64-1.75-1.99-2.77-2.71 3.47-4.57 2.24-10.83 5.34-15.57 1.54-2.9 4.35-4.69 7.02-6.41z"/><path fill="#837f74" d="M243.87 218.39c4.21-1.57 9.51-3.41 13.52-.55-1.03 1.18-1.87 2.95-3.62 3.1-3.89.58-8.06.29-11.49 2.57-2.57 1.35-5.43 1.99-8.28 2.43 3.12-3.4 7.79-4.23 11.76-6.19l-1.89-1.36z"/><path fill="#8c8a8c" d="M281.21 217.26h.45v.45h-.45v-.45z"/><path fill="#3d3937" d="M318.07 223.06c.85-1.96.09-4.7 1.94-6.09 1.53.61 1.38 2.74 1.89 4.08l-1.55.1-.33.62.31.65 1.45.33-.34.81c-1.05.9-1.75 2.07-2.2 3.37l-1.94 4.17-.48-4.08 1.25-3.96z"/><path fill="#95938a" d="M229.99 223.96c4.27-2.68 9.17-3.94 13.88-5.57l1.89 1.36c-3.97 1.96-8.64 2.79-11.76 6.19-3.03 1.93-6.19 3.74-8.71 6.35-2.16 2.24-4.64 4.17-7.46 5.53.25-1.66.59-3.31.97-4.93 3.52-3.23 6.94-6.67 11.19-8.93z"/><path fill="#040304" opacity=".79" d="M293.13 219.8c.89 1.28 1.9 2.49 3.05 3.55l1.79-.35 2.35-.01-3.93 7.79c-.9-3.19-2.08-6.27-3.39-9.31l.13-1.67z"/><path fill="#b3b2bc" d="M304.07 221.19l3.77.52 5.03 1.42-.4 2.35-2.39.09-4.94-1.76-1.07-2.62z"/><path fill="#1e1e1e" opacity=".77" d="M320.35 221.15l1.55-.1-.12 1.7-1.45-.33-.31-.65.33-.62z"/><path fill="#3b3d41" d="M276.98 222.96c1.75-1.32 3.96-.18 5.86.12l.27 1.39-2.55 2.8c-1.47-.83-2.74-1.96-3.59-3.41l.01-.9z"/><path fill="#919786" d="M294.8 230.34c-1.14-2.8-2.32-5.79-1.8-8.87 1.31 3.04 2.49 6.12 3.39 9.31 1.46-2.52 2.64-5.19 3.93-7.79l.58-.26c.91 2.11 2.3 4.23 4.94 3.6l-.7-2.52 4.94 1.76a3.44 3.44 0 0 0-2.01 2.25c1.12 1.7 2.47 3.23 4 4.58 2.61-2.69 3.41-6.6 6-9.34-.36 1.34-.8 2.65-1.25 3.96-1.22 2.93-2.54 5.84-4.43 8.41-2.06 2.76-2.79 6.18-4.22 9.25-1.56-.99-2.02-2.76-2.32-4.46l1.74.03c.98-2.56 3.8-5.22 2.51-8.08a36.32 36.32 0 0 0-4.03.95c-.34 2.04-.45 4.12-.42 6.19-.65-1.53-1.47-2.98-1.99-4.56.2-1.84.67-3.65 1.05-5.46l-1.45-1.33c-2.24 2.34-3.99 5.28-3.28 8.62-1.8-2-4.14-3.67-5.18-6.24z"/><path fill="#94928c" d="M272.76 226.77c1.49-1.18 2.85-2.5 4.22-3.81l-.01.9c-.05 3.03-.13 6.07-.7 9.06-2.52-1.12-2.51 2.18-1.46 3.59l-.29.62-.26.58-.93 2.09c-1.66 2.43-2.86 5.21-2.46 8.22l.99-.11 1.66-.25 1.16-1.76.33-.25 2.04 2.31c1.98-4.79 2.33-10.03 3.38-15.06.38 1.81.72 3.68 1.52 5.37 1.05 1.46 2.35 2.71 3.54 4.05-.01 4.35-1.46 8.52-2.51 12.7-1.06 3.49-1.93 7.7-5.45 9.57-3.52 2.1-7.79 1.31-11.62.81-3.87-.52-6.86-3.3-9.79-5.63.2-4.62 2.43-8.79 4.29-12.92l1.58 3.52c3.85-1.24 6.5-4.68 7.99-8.3-.69-1.63-1.71-3.11-3.14-4.16-1.28.31-2.54.65-3.79 1.04-1.69-2.01-4.14-3.57-5.19-6.01.67-2.86 2.58-5.37 4.84-7.2 3.24-1.88 6.79.43 10.06 1.03z"/><path fill="#878882" d="M201.16 226l3.92-1.8c.3.98 1.46 2.23.47 3.19-1.19 1.66-2.59 3.16-3.89 4.74 1.61 3.39 3.98 6.34 5.69 9.68 1.57 3.37 5.91 3.94 7.74 7.11-2.68 2.34-6.54.9-8.99-1.05-2.26-2.16-3.97-4.8-5.82-7.29l-.43-2.05-3.01.91c.01-1.1.06-2.2.13-3.3 1.87-3.18 2.77-6.77 4.19-10.14z"/><path fill="#787e8c" d="M276.97 223.86c.85 1.45 2.12 2.58 3.59 3.41l-.13 5.63c-1.05 5.03-1.4 10.27-3.38 15.06-.68-.78-1.34-1.57-2.04-2.31l-.09-.12c-.06.1-.18.28-.24.37l-1.16 1.76-1.66.25c.95-2.6 1.33-5.36 1.47-8.11l.93-2.09a10.19 10.19 0 0 1 .26-.58l.29-.62c.72-1.11 1.21-2.31 1.46-3.59.57-2.99.65-6.03.7-9.06z"/><path fill="#777574" d="M319.24 226.93c.45-1.3 1.15-2.47 2.2-3.37.73 1.4 1.42 3.68 3.48 3.25l4.45-2.5c1.72-.66 3.42.29 4.66 1.44l-1.06 2.14c-1.98-.02-3.97-.01-5.92.29l-2.99.52c-1.54-.77-3.15-1.38-4.82-1.77z"/><path fill="#4d4d4b" d="M312.39 235.43c1.89-2.57 3.21-5.48 4.43-8.41l.48 4.08c-1.57 3.85-3.37 7.61-4.58 11.59-.8 3.17-1.53 6.37-2.69 9.44-.89 2.48-1.72 4.99-2.2 7.59-.5 2.68.14 5.4.01 8.1-.75 3.23-2.6 6.06-3.52 9.24 1.51-.21 3.37.12 4.45-1.24 2.22-2.23 4.15-4.83 5.21-7.83l.35 2.62c2.76.9 5.67.99 8.53 1.33l-.33 2.01c1.37 2.29 3.34 4.28 5.72 5.53 1.57.33 3.02-.56 4.28-1.39-.36-1.19-.72-2.37-1-3.57l1.2-.85c.64 1.21 1.35 2.41 1.8 3.72-.01 2.73-.69 5.44-.36 8.17.39 3.82 1.33 7.83-.18 11.54.02-1.97-.04-3.93-.08-5.89-1.97 2-4.35 3.49-6.6 5.13-.72 1.49-.98 3.15-1.35 4.75-2.75.24-5.94.62-7.02 3.63-1.34 2.38-1.83 5.63-4.73 6.65-.96-2.55-.15-4.96 1.15-7.17-.75-.78-1.54-1.53-2.36-2.23-2.44 2.22-4.83 4.51-7.6 6.32.24-1.37.38-2.76.45-4.15-.73-1.18-1.5-2.34-2.06-3.61 0-2.28.32-4.54.28-6.82.99-1.23 1.9-2.52 2.85-3.78a54.63 54.63 0 0 0 1.31 3.28c2.12-3.31 3.17-7.16 5.26-10.49-2.54.92-4.69 2.54-6.55 4.47l-.76-.17c.52-1.46 1.02-2.93 1.48-4.41-1.5-.17-3.18.24-4.49-.71-1.04-1.8-1.97-3.66-2.77-5.58l2.19-.95c.65-1.75.61-3.63.65-5.47-2.04.51-1.84 3.56-3.85 4.26-.1-2.28-.92-4.41-3.04-5.51-1.43 1.26-2.75 2.64-4.07 4.02l-2.11 1.4c-1.71.87-3.37 1.93-5.26 2.36-1.22-.22-2.41-.57-3.61-.87-1.83 1.61-3.63 3.28-5.77 4.49l-2.4-.94c-1.84 1.12-3.44 2.57-5.08 3.96-6.14 1.16-12.11 3.54-18.43 3.49-2.96.08-5.59 1.65-8.13 3.02l-.65 3.23c-.54-.66-1.07-1.32-1.58-1.99.99-2.04 2.12-4.04 2.88-6.19.51-2.13-.4-4.21-.87-6.26l6.57 1.54.79.17c2.05 1.16 4.1 2.68 6.57 2.71 2.9.22 5.62-.95 8.25-1.99 4.31-1.81 9.24-2.99 12.51-6.53-5.34-.22-9.78 3.68-15.11 3.66-3.38.57-6.56-.84-9.21-2.81l2.01-1.49c-2.34-1.42-4.82-2.6-7.34-3.65l2.68 4.16c-1.86-.97-3.6-2.14-5.15-3.54-1.27-2.7-2.67-5.41-3.18-8.37.08-1.78.26-3.54.48-5.3 2.47 2.15 4.48 4.75 6.83 7.03 3.85 3.26 8.14 6.12 12.77 8.16 7.37 2.83 15.46.33 21.93-3.55 1.51-1.13 2.41-2.85 3.58-4.29 1.74.53 3.41 1.25 5.06 2.02-.86 1.12-1.65 2.32-2.68 3.3-1.93 1-4.13 1.27-6.18 1.91l-.24 2.4c4.8.19 10.25-1.91 12.31-6.51.86-1.51 0-3.14-.23-4.68.63-2.89 1.2-5.79 1.69-8.7-1.93 3.73-3.8 9.34-8.98 9-.04-3.33 1.21-6.46 1.65-9.71.4-2.54.44-5.17 1.39-7.59a50.24 50.24 0 0 1 4.62-.57l.52 5.76c2.21.93 4.23-1.65 3.81-3.8 1.42-.39 2.85.13 4.21.54 1.14.15 2.29-.02 3.43-.21.54-.9 1.08-1.81 1.54-2.76 1.43-3.07 2.16-6.49 4.22-9.25m-11.17 13.87v.45h.45l-.01-.45h-.44m-8.03 3.05c-1.55.03-2.83 2.74-1.04 3.41 1.73.37 2.74-2.87 1.04-3.41m5.5 6.71l-.21.79-1.63 3.71a27.8 27.8 0 0 0 3.27-.4c.28 1.59.33 4.77 2.59 4.45 1.88-2.97 2.46-6.54 2.86-9.98.26-1.22-.31-2.32-.85-3.36-1.44.04-2.69.76-3.81 1.59l.8-4.1c-3.48.48-2.34 4.84-3.02 7.3m8.49-3.79l-.42.72.41.72h.82l.42-.71-.41-.72-.82-.01m-29.94 19.91c-.49 1.42-.03 1.88 1.38 1.39.48-1.42.02-1.89-1.38-1.39m33.63 3.71l.12 1.89c1.71 1.76 4.33-.04 6.28.95 1.53 1.34 2.63 3.08 3.95 4.62l1.05-1.29c-2.26-3.9-6.79-6.84-11.4-6.17m13.43 2.82c-.07 3.07.81 6.25 3.86 7.61 2.56-2.46-.25-8.13-3.86-7.61z"/><path fill="#010101" opacity=".79" d="M319.24 226.93c1.67.39 3.28 1 4.82 1.77-1.3 6.89-1.65 14.07-4.93 20.41 1.03-6.12 3.4-12.03 3.43-18.29.15-1.27-.58-2.31-1.41-3.16-2.19 2.71-3.87 5.92-4.23 9.43-.82 6.73-.61 13.54-.49 20.3l-.44 1.7c-2.14-2.19-4.21-4.45-5.96-6.96 1.16-3.07 1.89-6.27 2.69-9.44 1.21-3.98 3.01-7.74 4.58-11.59l1.94-4.17z"/><path d="M303.26 227.96l1.45 1.33-1.05 5.46c.52 1.58 1.34 3.03 1.99 4.56l.2.91c.3 1.7.76 3.47 2.32 4.46-.46.95-1 1.86-1.54 2.76-1.14.19-2.29.36-3.43.21l-4.07-7.37c.34-1.22.83-2.42.85-3.7-.71-3.34 1.04-6.28 3.28-8.62zm-120.52 63.07l6.04 3.84c2.91 1.83 6.39.26 9.46-.26l-3.09 2.88c-3.24-.04-6.96.47-9.62-1.84-1.62-1.03-2.17-2.93-2.79-4.62z" fill="#6a6a6b"/><path opacity=".06" d="M316.92 237.09c.36-3.51 2.04-6.72 4.23-9.43.83.85 1.56 1.89 1.41 3.16-.03 6.26-2.4 12.17-3.43 18.29-.77 2.8-1.71 5.55-2.7 8.28-.12-6.76-.33-13.57.49-20.3z"/><path fill="#be8d70" d="M324.06 228.7l2.99-.52c-.47 3.27-.54 6.58-.56 9.89-.03 6.84-2.67 13.28-3.49 20.01-.49 3.94-1.66 7.76-2.22 11.69 1 .77 1.99 1.55 3.03 2.28l-.95-.11c-2.86-.34-5.77-.43-8.53-1.33l-.35-2.62 2.01-8.9.44-1.7c.99-2.73 1.93-5.48 2.7-8.28 3.28-6.34 3.63-13.52 4.93-20.41z"/><path fill="#d9a485" d="M327.05 228.18c1.95-.3 3.94-.31 5.92-.29-.21 5.38-.08 10.76-.15 16.14-.05 4.46-1.1 8.82-1.65 13.22-.61 4.79.04 9.63-.4 14.43-1.67.26-3.35.49-5.04.62-.48-.07-1.44-.19-1.92-.25-1.04-.73-2.03-1.51-3.03-2.28.56-3.93 1.73-7.75 2.22-11.69.82-6.73 3.46-13.17 3.49-20.01.02-3.31.09-6.62.56-9.89z"/><path fill="#b9886c" d="M332.97 227.89l1.55 1.88c-.69 14.37.14 28.83-1.66 43.13-2.39-.08-4.77-.29-7.13-.6 1.69-.13 3.37-.36 5.04-.62.44-4.8-.21-9.64.4-14.43.55-4.4 1.6-8.76 1.65-13.22l.15-16.14z"/><path opacity=".09" d="M334.52 229.77l.59.64c.64 10.33-.71 20.73.32 31.03 3.06 1.39 6.16 2.71 9.36 3.73 1.93.55 3.79-.67 5.72-.69 1.16.68 1.98 1.95 3.28 2.38 2.66.38 5.2-.77 7.64-1.63.09 1.31.23 2.62.41 3.93 2.05-.85 3.87-2.33 6.05-2.81 1.49.55 2.86 1.38 4.37 1.92 2.66.05 5.18-1.69 7.89-1.2 1.94.49 3.8 1.25 5.72 1.83l4.11-2.46 1.54 1.74c2.85-.88 5.53-2.81 8.65-2.35 3.88.23 7.16 2.53 10.78 3.67 1.6-.34 1.42-2.34 1.98-3.53a18.66 18.66 0 0 1 2.32 1.35c.21.94.45 1.89.7 2.84 1.47-1.25 2.51-2.9 3.56-4.5 1.26-.12 2.52.11 3.7.61l.6 2.61c1.78-.41 3.7-.72 5.19-1.85 1.3-1.28 2.33-2.81 3.66-4.05 2.25-.99 4.69-1.44 7.09-1.94-.7 1.97-1.64 3.86-2.09 5.91 0 1.47 1.46 2.31 2.31 3.32 2.67-3.13 2-7.55 3.12-11.29.95 1.22 1.95 2.42 3.02 3.57l4.61-1.34c1.06.97 2.13 1.96 3.16 2.99 4 .18 7.95-.77 11.83-1.63.85-2.38-1.22-4.03-2.43-5.78l1.77-.74c2.49.93 3.52 3.33 3.77 5.8 3.21-1.09 6.09-3 7.65-6.09 3.07 1.28 5.73 3.48 9.1 4.06-.41 1.21-.85 2.41-1.29 3.61 2.47-.49 5.43.66 7.42-1.3-.9-1.5-3.18-1.26-4.17-2.67-.95-1.21-1.78-2.49-2.7-3.71l-3.69-.23.05-2.23c1.95-.32 3.79.83 5.69 1.18l3.15-2.23 3.5 3.11c.93-1 1.54-2.79 3.24-2.41 1.66 1.81 2.81 4.01 4.4 5.88 1.31 1.3 3.16 1.87 4.53 3.1.6.95 1.03 1.99 1.47 3.03l1.66.91c.43-1.14.79-2.31.99-3.51l-2.23-1.94c0-2.38 2.88-2.8 4.41-4v55.01c-1.96 1.07-3.97 2.04-6.03 2.9-3.6.51-6.54-1.81-9.26-3.77-2.74-.35-1.81 4.53-4.61 4.15-3.22-1.18-6.44-2.58-9.91-2.8-.34 1.1-.72 2.2-1.09 3.29l-2.24-3.74c-1.05.58-1.98 1.81-3.31 1.51-2.78-.49-5.53-.05-8.29.27-2.09-.65-3.95-1.86-5.99-2.64l-2.62 2.45-.3-2.96c-3.64-.38-5.87 2.87-8.31 4.97-.45-1.22-.86-2.44-1.24-3.67-2.59.49-5.14 1.17-7.75 1.56-1.41-1.04-2.69-2.23-3.99-3.39-2.07.78-4.01 2.08-6.23 2.37-1.97-.28-3.82-1.08-5.75-1.48-3.41.18-6.59 2.06-10.05 1.61-2.6-.3-5.22-.31-7.81.06-3.57.55-6.77-2.14-10.37-1.41-3.28.07-6.67 2.28-9.83.61-1.65-.76-3.28.62-4.87.99-1.69-.53-3.3-1.31-5.02-1.69-1.45.35-2.83.93-4.27 1.27-2.81.1-5.6-.76-8.41-.31-1.68.1-3.38.63-5.06.29-.97-.84-1.85-1.77-2.75-2.67-1.79.4-2.14 2.23-2.59 3.74-2.79-.02-5.68-.49-8.27.81-3.37 1.55-6.61-1.1-9.79-1.95-2.75 1.44-5.65 2.7-8.82 2.67-3.2.55-6.18-.77-9.21-1.51-1.71.31-3.23 1.28-4.84 1.9l-1.61-1.69 2.7-1.79c2.9-1.02 3.39-4.27 4.73-6.65 3.45-.07 6.95.32 10.36-.36l.96-1.02c1.47-1.93 2.79-4 3.73-6.24 1.51-3.71.57-7.72.18-11.54-.33-2.73.35-5.44.36-8.17-.45-1.31-1.16-2.51-1.8-3.72l.13-.77c1.8-14.3.97-28.76 1.66-43.13z"/><path fill="#9e9a92" d="M234.2 236.18c3.74-1.57 7.52-3.19 11.54-3.85l.42 1.57c-1.53.6-3.04 1.26-4.52 1.95-2.8 1.22-5.21 3.12-7.64 4.94-3.82 1.11-5.49 4.97-8.68 6.94l-.53-1.61c3.2-3.24 4.86-8.27 9.41-9.94z"/><path fill="#b7bbc1" d="M274.81 236.51c-1.05-1.41-1.06-4.71 1.46-3.59-.25 1.28-.74 2.48-1.46 3.59z"/><path fill="#bbc4a6" d="M306.07 233.12a36.32 36.32 0 0 1 4.03-.95c1.29 2.86-1.53 5.52-2.51 8.08l-1.74-.03-.2-.91c-.03-2.07.08-4.15.42-6.19z"/><path fill="#5a5b59" d="M193.4 253.53c1.25-5.77.79-12.05 3.57-17.39-.07 1.1-.12 2.2-.13 3.3l3.01-.91.43 2.05c.33 2.16-.24 4.91 1.73 6.44 3.86 3.31 8.89 4.92 13.88 5.47.53-2.8-.02-5.61-1.75-7.89 1.91-1.09 3.95-1.94 6.04-2.6 1.52 1.6-.47 3.67-.54 5.54.58.92 1.14 1.85 1.66 2.82l.74 3.35 2.26-.34c-.99 2.36-2.81 4.5-5.46 4.87l-4.92-3.61c-2.41 2.87-3.88 6.38-5.96 9.48 1.34.86 2.73 1.66 4.15 2.4l-.61.47c-2.99-1.09-6.01-2.1-9.07-2.97-4.06-.94-6.09-4.65-8.59-7.57l-1.47-.05c-1.24.18-2.64.33-3.4 1.46-2.11 2.5-3.77 5.36-5.23 8.29 3.6-.6 5.62-3.84 8.17-6.08-.43 2.69-.33 5.43.59 8.02.01 1.41-.15 2.83.06 4.24 4.71 1.6 9.77 2.02 14.65 1.08-2.54 1.94-4.94 4.51-8.25 5.04-2.48-.4-4.8-1.42-7.21-2.06.6 1.23.83 2.88 2.27 3.47 2.54 1.06 5.39.93 8.08 1.4l-.33.75c-3.78 2.15-8.45 1.41-12.17-.45-1.08-.62-2.56-1.27-2.68-2.7-.59-3.63-.05-7.32-.17-10.98l-1.74 1.61c-.21 2.69.01 5.41-.29 8.11-.86 1.16-2.13 1.93-3.22 2.85.09 1.91.32 3.82.49 5.73-2-1.49-2.95-3.89-4.03-6.04-.92-3.27-1.97-6.61-1.81-10.05.45-2.65 2.08-4.9 3.33-7.23-.07 1.31 1.87 2.55 2.37.8.11-1.14-.24-2.13-1.06-2.97 1.12-1.76 2.17-3.8 4.22-4.62 2.68-1.19 5.62-1.58 8.39-2.53z"/><path fill="#696968" d="M234 240.79c2.43-1.82 4.84-3.72 7.64-4.94l3.82 4.14c-.39 2.91-1.05 5.81-1.09 8.75-.18 1.08.61 1.85 1.33 2.52-.4 1.51-1.3 2.77-2.47 3.77-.39-2.24-.19-4.79-1.94-6.51-1.25-2.07-2.39-4.45-5.1-4.75l1.5-3.65-3.69.67z"/><path fill="#7e7d7a" d="M245.46 239.99l3.4-3.02c-.28 4.9-1.56 9.68-3.16 14.29-.72-.67-1.51-1.44-1.33-2.52.04-2.94.7-5.84 1.09-8.75z"/><path fill="#c5cbd3" d="M274.26 237.71l.26-.58-.26.58z"/><path fill="#7f7d79" d="M294.36 241.73c.03-1.61.62-3.12 1.04-4.65l.94 2.61 2.79.59c1.48 2.39 2.71 4.91 4.07 7.37-1.36-.41-2.79-.93-4.21-.54l-2.55 1.02 1.07-3.1c-1.06-1.09-2.24-2.08-3.15-3.3z"/><path fill="#a5a297" d="M263.05 238.95l3.79-1.04c1.43 1.05 2.45 2.53 3.14 4.16-1.49 3.62-4.14 7.06-7.99 8.3l-1.58-3.52c1.12-2.55 1.98-5.2 2.64-7.9z"/><path fill="#494a49" d="M234 240.79l3.69-.67-1.5 3.65c-3.66 7.18-3.18 16.02-.27 23.36.63 1.27 1.33 2.49 1.99 3.75l-1.09 1.27c-3.44-3.95-5.99-8.68-9.91-12.2-1.07.16-2.13.36-3.19.61-1.17.74-2.28 1.55-3.39 2.38l-1.31-.47-1.24-.41c-2.02 1.31-3.76 3-5.67 4.45-1.42-.74-2.81-1.54-4.15-2.4 2.08-3.1 3.55-6.61 5.96-9.48 1.66 1.17 3.29 2.39 4.92 3.61 2.65-.37 4.47-2.51 5.46-4.87 1.98-5.15 7.48-7.59 9.7-12.58z"/><path fill="#aeb0b5" d="M270.87 248.02c-.4-3.01.8-5.79 2.46-8.22-.14 2.75-.52 5.51-1.47 8.11l-.99.11z"/><path fill="#75736d" d="M225.32 247.73c3.19-1.97 4.86-5.83 8.68-6.94-2.22 4.99-7.72 7.43-9.7 12.58l-2.26.34-.74-3.35 3.49-4.24.53 1.61z"/><path fill="#757676" d="M236.19 243.77c2.71.3 3.85 2.68 5.1 4.75-1.22 4.45-1.56 9.16-.63 13.71.51 2.96 1.91 5.67 3.18 8.37-3.12.63-5.56-1.85-7.92-3.47-2.91-7.34-3.39-16.18.27-23.36z"/><path fill="#f6f9fa" d="M274.92 245.53l.09.12-.33.25.24-.37z"/><path fill="#8f8e91" d="M301.22 249.3h.44l.01.45h-.45v-.45z"/><path fill="#757775" d="M250.03 257.25c-.71-1.69-3.51-4.22-1-5.55 2.02.23 3.84 2.28 4.31 4.23a10.53 10.53 0 0 1-3.31 1.32z"/><path fill="#814345" d="M293.19 252.35c1.7.54.69 3.78-1.04 3.41-1.79-.67-.51-3.38 1.04-3.41z"/><path fill="#595958" d="M298.69 259.06c.68-2.46-.46-6.82 3.02-7.3l-.8 4.1c-.6 2.06.85 3.87 1.15 5.84l-1.94 1.46a27.8 27.8 0 0 1-3.27.4l1.63-3.71.21-.79z"/><path fill="#1d2025" d="M307.83 259.72c.48-2.6 1.31-5.11 2.2-7.59 1.75 2.51 3.82 4.77 5.96 6.96l-2.01 8.9c-1.06 3-2.99 5.6-5.21 7.83-1.08 1.36-2.94 1.03-4.45 1.24.92-3.18 2.77-6.01 3.52-9.24.13-2.7-.51-5.42-.01-8.1m2.45-.46v.45h.45v-.45h-.45z"/><path fill="#383735" d="M300.91 255.86c1.12-.83 2.37-1.55 3.81-1.59.54 1.04 1.11 2.14.85 3.36-.4 3.44-.98 7.01-2.86 9.98-2.26.32-2.31-2.86-2.59-4.45l1.94-1.46c-.3-1.97-1.75-3.78-1.15-5.84z"/><path fill="#7a7875" d="M307.18 255.27l.82.01.41.72-.42.71h-.82l-.41-.72.42-.72z"/><path fill="#363534" d="M188.97 257.85c.76-1.13 2.16-1.28 3.4-1.46l-.46 3.67c-2.55 2.24-4.57 5.48-8.17 6.08 1.46-2.93 3.12-5.79 5.23-8.29z"/><path fill="#7b7e75" d="M192.37 256.39l1.47.05c2.5 2.92 4.53 6.63 8.59 7.57-.7 2.48-1.5 5.22-3.83 6.67-2.4.54-4.19-1.55-6.1-2.6-.92-2.59-1.02-5.33-.59-8.02l.46-3.67z"/><path fill="#88888b" d="M298.48 259.85l.21-.79-.21.79z"/><path fill="#69696d" d="M310.28 259.26h.45v.45h-.45v-.45z"/><path fill="#65665f" d="M223.72 260.56l3.19-.61c3.92 3.52 6.47 8.25 9.91 12.2.85 1.04 1.62 2.18 2.7 3.01 2.02.97 4.3 1.21 6.49 1.6-1.73-3.08-4.61-5.22-8.1-5.88l-1.99-3.75c2.36 1.62 4.8 4.1 7.92 3.47 1.55 1.4 3.29 2.57 5.15 3.54-.87-1.41-1.77-2.79-2.68-4.16 2.52 1.05 5 2.23 7.34 3.65l-2.01 1.49c-1.8 1.11-2.77 3.02-3.8 4.79-2.2-.46-4.38-1.03-6.57-1.54.47 2.05 1.38 4.13.87 6.26l-.8-.48c-5.18-5.72-10.22-11.66-14.19-18.3-1.08-1.81-2.24-3.56-3.43-5.29z"/><path fill="#7c7975" d="M179.48 262.85l1.31-2.17c.82.84 1.17 1.83 1.06 2.97-.5 1.75-2.44.51-2.37-.8z"/><path fill="#888a82" d="M220.33 262.94l3.39-2.38 3.43 5.29-3.24 2.39c-1.49-1.56-2.53-3.45-3.58-5.3z"/><path fill="#030302" opacity=".8" d="M212.11 266.51l5.67-4.45 1.24.41c-1.83 1.68-3.83 3.25-5.27 5.3-1.38 2.72-1.45 6.09-3.64 8.38-2.37 2.7-4.81 5.4-6.42 8.64-1.87 3.41-2.45 7.33-4.12 10.83-2.35 4.32-7.98 6.34-12.58 4.67 3.06.37 5.96-.68 8.16-2.8 1.07-.92 2.1-1.87 3.09-2.88 1.56-3.39 1.7-7.34 3.84-10.48 2.51-3.95 6.78-7.1 6.98-12.16.72-1.71 1.52-3.39 2.44-4.99l.61-.47z"/><path fill="#2c2f30" d="M294.29 262.72c.23 1.54 1.09 3.17.23 4.68-2.06 4.6-7.51 6.7-12.31 6.51l.24-2.4c2.05-.64 4.25-.91 6.18-1.91 1.03-.98 1.82-2.18 2.68-3.3.94-1.24 1.97-2.4 2.98-3.58z"/><path fill="#6a6c64" d="M202.43 264.01l9.07 2.97c-.92 1.6-1.72 3.28-2.44 4.99l-1.85 1.43c-4.88.94-9.94.52-14.65-1.08-.21-1.41-.05-2.83-.06-4.24 1.91 1.05 3.7 3.14 6.1 2.6 2.33-1.45 3.13-4.19 3.83-6.67z"/><path fill="#3d3e3c" opacity=".85" d="M223.91 268.24l3.24-2.39c3.97 6.64 9.01 12.58 14.19 18.3-3.87-1.79-6.19-5.47-9.22-8.29-2.67-2.61-5.58-4.97-8.21-7.62z"/><path fill="#3e4142" d="M185.01 269.48l1.74-1.61c.12 3.66-.42 7.35.17 10.98.12 1.43 1.6 2.08 2.68 2.7 3.72 1.86 8.39 2.6 12.17.45l.33-.75c-2.69-.47-5.54-.34-8.08-1.4-1.44-.59-1.67-2.24-2.27-3.47 2.41.64 4.73 1.66 7.21 2.06 3.31-.53 5.71-3.1 8.25-5.04l1.85-1.43c-.2 5.06-4.47 8.21-6.98 12.16-2.14 3.14-2.28 7.09-3.84 10.48-3.07.52-6.55 2.09-9.46.26-2.07-1.18-3.99-2.62-6.04-3.84.62 1.69 1.17 3.59 2.79 4.62 2.66 2.31 6.38 1.8 9.62 1.84-2.2 2.12-5.1 3.17-8.16 2.8-1.75-1.28-3.58-2.61-4.63-4.55-2.49-4.85-3.71-10.23-4.4-15.61 1.08 2.15 2.03 4.55 4.03 6.04-.17-1.91-.4-3.82-.49-5.73 1.09-.92 2.36-1.69 3.22-2.85.3-2.7.08-5.42.29-8.11z"/><path fill="#64665e" d="M296.35 268.65c2.12 1.1 2.94 3.23 3.04 5.51 2.01-.7 1.81-3.75 3.85-4.26-.04 1.84 0 3.72-.65 5.47l-2.19.95c.8 1.92 1.73 3.78 2.77 5.58l-8.09-5.15c-1.96 1.98-2.96 4.61-4.28 7.01-2.05 3.8-5.2 6.81-7.67 10.32 2.07 1.02 5.45 1.55 4.92 4.63-1.54 1.45-4.75 2.45-3.86 5.12a22.46 22.46 0 0 0 3.38-.05c1.21-1.86 2.22-3.86 3.65-5.56 1.42-1.02 3.05-1.7 4.59-2.52-1.47 4.44-3.81 8.62-7.03 12.03-5-.71-9.88-2.06-14.9-2.68-2.91-1.37-6.1-1.92-9.28-2.14 3.28-2.4 7.39-3.29 10.62-5.8 5.68-3.19 9.58-8.57 12.84-14.06 1.81-3.25 4.63-6.39 4.22-10.38 1.32-1.38 2.64-2.76 4.07-4.02z"/><path fill="#62615e" d="M322.86 271.94l.95.11 1.92.25 7.13.6-.13.77-1.2.85 1 3.57c-1.26.83-2.71 1.72-4.28 1.39-2.38-1.25-4.35-3.24-5.72-5.53l.33-2.01z"/><path fill="#8f8c84" d="M290.17 274.07l2.11-1.4c.41 3.99-2.41 7.13-4.22 10.38-3.26 5.49-7.16 10.87-12.84 14.06-3.23 2.51-7.34 3.4-10.62 5.8l-1.75.27-1.4-2c1.53-1.34 3.11-2.63 4.8-3.76 4.77-1.91 9.96-3.78 13.22-7.96 4-4.79 9.29-8.99 10.7-15.39z"/><path fill="#858586" d="M260.85 277.93c5.33.02 9.77-3.88 15.11-3.66-3.27 3.54-8.2 4.72-12.51 6.53-1.61-.41-3.26-.56-4.91-.49-3.33.13-6.61-1.06-9.91-.23l-.79-.17c1.03-1.77 2-3.68 3.8-4.79 2.65 1.97 5.83 3.38 9.21 2.81z"/><path fill="#5e605e" d="M284.91 276.43c1.89-.43 3.55-1.49 5.26-2.36-1.41 6.4-6.7 10.6-10.7 15.39-3.26 4.18-8.45 6.05-13.22 7.96l-1.92-.59c-1.27.91-2.5 1.9-3.78 2.81-1.5.73-2.99-.39-4.41-.77l-1.49-2.58c-3.71-1.27-7.95-3.52-11.74-1.26l-2.07-2.22c.2-1.09.42-2.16.65-3.23 2.54-1.37 5.17-2.94 8.13-3.02 6.32.05 12.29-2.33 18.43-3.49-3.29 3.87-8.67 3.28-13 5.06-3.39 1.44-7.09 1.45-10.66 2l.29 1.26c5.69 3.97 13.29 1.55 18.52-2.07 4.61-2.39 8.85-5.39 12.33-9.27 2.14-1.21 3.94-2.88 5.77-4.49 1.2.3 2.39.65 3.61.87z"/><path fill="#767577" d="M277.24 275.18c1.4-.5 1.86-.03 1.38 1.39-1.41.49-1.87.03-1.38-1.39z"/><path fill="#787a72" d="M290.8 283.76c1.32-2.4 2.32-5.03 4.28-7.01 2.85 1.47 5.37 3.47 8.09 5.15 1.31.95 2.99.54 4.49.71l-1.48 4.41c-3.67 2.62-7.6 5.05-10.37 8.68-1.54.82-3.17 1.5-4.59 2.52-1.43 1.7-2.44 3.7-3.65 5.56a22.46 22.46 0 0 1-3.38.05c-.89-2.67 2.32-3.67 3.86-5.12.53-3.08-2.85-3.61-4.92-4.63 2.47-3.51 5.62-6.52 7.67-10.32z"/><path fill="#676969" d="M248.63 280.08c3.3-.83 6.58.36 9.91.23 1.65-.07 3.3.08 4.91.49-2.63 1.04-5.35 2.21-8.25 1.99-2.47-.03-4.52-1.55-6.57-2.71z"/><path fill="#807d74" d="M268.05 283.07c1.64-1.39 3.24-2.84 5.08-3.96l2.4.94c-3.48 3.88-7.72 6.88-12.33 9.27-5.23 3.62-12.83 6.04-18.52 2.07l-.29-1.26c3.57-.55 7.27-.56 10.66-2 4.33-1.78 9.71-1.19 13-5.06z"/><path fill="#7d6050" d="M310.87 278.89c4.61-.67 9.14 2.27 11.4 6.17l-1.05 1.29c-1.32-1.54-2.42-3.28-3.95-4.62-1.95-.99-4.57.81-6.28-.95l-.12-1.89z"/><path fill="#64605b" d="M324.3 281.71c3.61-.52 6.42 5.15 3.86 7.61-3.05-1.36-3.93-4.54-3.86-7.61z"/><path fill="#767678" d="M306.94 287.19c1.86-1.93 4.01-3.55 6.55-4.47-2.09 3.33-3.14 7.18-5.26 10.49a54.63 54.63 0 0 1-1.31-3.28l.02-2.74z"/><path fill="#42403a" d="M306.18 287.02l.76.17-.02 2.74-2.85 3.78c-4.76 3.25-9.23 7.4-11.47 12.82-1.17 2.54-.77 5.38-.9 8.08l-2.35 1.91c.87-2.3 1.24-5.19-.96-6.89-4.2-3.25-10.19-1.51-14.51-4.58 5.02.62 9.9 1.97 14.9 2.68 3.22-3.41 5.56-7.59 7.03-12.03 2.77-3.63 6.7-6.06 10.37-8.68z"/><path fill="#767473" d="M327.31 296.34c2.25-1.64 4.63-3.13 6.6-5.13l.08 5.89c-.94 2.24-2.26 4.31-3.73 6.24l-4.79.68.49-2.93c.37-1.6.63-3.26 1.35-4.75z"/><path fill="#4f504e" d="M242.91 295.03c3.79-2.26 8.03-.01 11.74 1.26l1.49 2.58-2.41 2.09c-3.36-2.54-8.45-2.09-10.82-5.93z"/><path fill="#656663" d="M292.6 306.53c2.24-5.42 6.71-9.57 11.47-12.82.04 2.28-.28 4.54-.28 6.82.56 1.27 1.33 2.43 2.06 3.61-.07 1.39-.21 2.78-.45 4.15-2.49 3.1-4.28 6.67-5.96 10.25-2.38 1.28-5.08 2.18-7.74 1.15 4.31-2.15 5.74-7.04 8.17-10.83 1.93-2.96 2.48-6.51 2.19-9.97l-2.11 1.07c-.96 2.96-1.55 6.08-3.12 8.81-2.03 3.56-4.67 6.73-6.9 10.16l-1.05-.96.47-1.45 2.35-1.91c.13-2.7-.27-5.54.9-8.08z"/><path fill="#747169" d="M264.33 296.83l1.92.59c-1.69 1.13-3.27 2.42-4.8 3.76l1.4 2c-3.28.66-6.62.09-9.12-2.22l2.41-2.09c1.42.38 2.91 1.5 4.41.77l3.78-2.81z"/><path fill="#8f9093" d="M299.95 299.96l2.11-1.07c.29 3.46-.26 7.01-2.19 9.97-2.43 3.79-3.86 8.68-8.17 10.83l-1.77-.76c2.23-3.43 4.87-6.6 6.9-10.16 1.57-2.73 2.16-5.85 3.12-8.81z"/><path fill="#686969" d="M318.94 304.72c1.08-3.01 4.27-3.39 7.02-3.63l-.49 2.93 4.79-.68-.96 1.02c-3.41.68-6.91.29-10.36.36z"/><path fill="#34332f" d="M305.4 308.29c2.77-1.81 5.16-4.1 7.6-6.32.82.7 1.61 1.45 2.36 2.23-1.3 2.21-2.11 4.62-1.15 7.17l-2.7 1.79-12.07 5.38c1.68-3.58 3.47-7.15 5.96-10.25z"/></svg>