<svg xmlns="http://www.w3.org/2000/svg" width="682.667" height="682.667" viewBox="0 0 512 512"  xmlns:v="https://vecta.io/nano"><path fill="#1f160f" opacity=".27" d="M290.9 6.9c1.01-.77 2.39-.53 3.57-.79l.39 2.63-5.94 2.3c.57-1.42 1.14-2.85 1.98-4.14z"/><path fill="#ac8e6c" opacity=".75" d="M288.92 11.04l5.94-2.3.5 2.64c-1.73.56-3.82.58-5.15 1.95-.28 1.59-.33 3.19-.41 4.8.1 2.16-.51 4.21-1.69 6.01 1.3-4.29.09-8.76.81-13.1z"/><path fill="#fff5c8" d="M290.21 13.33c1.33-1.37 3.42-1.39 5.15-1.95.77 2.87.88 5.84.77 8.8-.97-1.8-1.48-4.1-3.18-5.36-1.6.22-2.11 2.27-3.15 3.31l.41-4.8z"/><path d="M289.8 18.13c1.04-1.04 1.55-3.09 3.15-3.31 1.7 1.26 2.21 3.56 3.18 5.36 1.26 3.75 1.9 7.66 1.72 11.63-.07 2.7.19 5.46 1.58 7.83.82 4.06.5 8.22.87 12.32-.06 2.41 2.25 3.67 3.77 5.13l.87 2.98c.83 3.92 5.57 4.92 6.48 8.82l-1.3 1.15c-1.9.72-4.15.89-5.65 2.4-2.22 2.17-4.87 3.87-7.82 4.87a76.23 76.23 0 0 1-4.78.03c-6.39-.62-10-6.54-15.42-9.23.99-2.25 2.23-4.37 3.56-6.43.82-1.35 1.44-2.8 2.05-4.25.93-2.21 2.11-4.32 2.85-6.62.69-2.73.29-5.6.8-8.36.61-2.51 2.13-4.76 2.34-7.36.23-3.65-.22-7.3.06-10.95 1.18-1.8 1.79-3.85 1.69-6.01zm-1.86 109.97l.81.13.1 1.77-1.38.01-.36-.62.83-1.29z" fill="#fff"/><path fill="#553e2c" opacity=".49" d="M286.92 32.8c.52-2.87.48-5.82 1.19-8.66-.28 3.65.17 7.3-.06 10.95-.21 2.6-1.73 4.85-2.34 7.36-.51 2.76-.11 5.63-.8 8.36-.74 2.3-1.92 4.41-2.85 6.62-.39-1.74-1.02-3.5-.87-5.31.62-1.88 1.69-3.58 2.28-5.47.35-2.33-.03-4.7.3-7.03.6-2.46 2.29-4.46 3.15-6.82z"/><path fill="#100a07" opacity=".21" d="M297.85 31.81c1.42 1.31 3.04 2.51 4.03 4.22.8 1.74.99 3.67 1.31 5.54.58 4.49 1.74 8.87 2.86 13.25.51 2.25 1.67 4.27 3.12 6.04-1.23-.72-2.91-1.17-3.42-2.64-1.95-5.31-2.86-10.95-4.89-16.23l-1.43-2.35c-1.39-2.37-1.65-5.13-1.58-7.83z"/><path fill="#be9d76" opacity=".8" d="M299.43 39.64l1.43 2.35c.05 2.53-.39 5.18.53 7.6l2.68 7.5c-1.52-1.46-3.83-2.72-3.77-5.13-.37-4.1-.05-8.26-.87-12.32z"/><path fill="#39291e" opacity=".38" d="M300.86 41.99c2.03 5.28 2.94 10.92 4.89 16.23.51 1.47 2.19 1.92 3.42 2.64 1.59.77 3.28 1.37 4.78 2.33.73 1.28.92 2.84.65 4.28-.87 1.67-2.89 1.97-4.48 2.57l1.3-1.15c.91-1.27 1.71-2.75 1.19-4.36-2.41-1.72-5.15-2.9-7.67-4.46l-.87-2.98c-.68-2.57-1.76-5.01-2.68-7.5-.92-2.42-.48-5.07-.53-7.6z"/><path fill="#c9a67d" opacity=".84" d="M304.94 60.07l7.67 4.46c.52 1.61-.28 3.09-1.19 4.36-.91-3.9-5.65-4.9-6.48-8.82z"/><path fill="#ffecb6" d="M274.16 61.11l5.85.57c-1.33 2.06-2.57 4.18-3.56 6.43-1.04-.88-2.58-1.65-2.61-3.21a32.11 32.11 0 0 1 .32-3.79z"/><path fill="#414242" d="M291.87 77.34l4.78-.03c.9 4.61 5.41 6.67 8.73 9.36.17 3.02.39 6.04.73 9.04 3.38.7 6.95 1.32 9.71 3.56l-.8-.22c-1.86-.52-3.67-1.18-5.45-1.91-1.03 1.54-2.06 3.08-2.96 4.69l.15 3.27.29 3.8c.04 1.79-.01 3.58 0 5.37.03 1.98.3 3.95.73 5.89.49 2.09 1.07 4.16 1.59 6.24l.77 3.91c-1.31.36-2.58.85-3.7 1.63l-.55-.28-1.08-4.59.49-2.14c.97-5.83 1.16-11.93-.25-17.71l-.14-.91-.25-1.72-3.43 2.03c.69-3.58 0-7.64 2.63-10.57-.26 2.04-.58 4.07-.93 6.1l2.2 1.2c.36-4.57.22-9.16-.35-13.7l-1.4.82c-1.06 2.52-1.64 5.26-3.23 7.53.12-3.72.75-7.39 1.2-11.07-.47-1.24-.88-2.53-1.7-3.58-1.44-1.06-3.15-1.64-4.77-2.34l.12-2.88-2.97.01-.16-.8m11.42 9.98v.45h.45v-.45h-.45z"/><path fill="#dddce1" d="M292.03 78.14l2.97-.01-.12 2.88-.03 1.02-2.68-3.11-.14-.78z"/><path fill="#9ea591" d="M292.17 78.92l2.68 3.11c.21 2.85.74 5.66 1.28 8.46l-1.88 2.63.57 3.45a34.39 34.39 0 0 1-4.73-.71l.17-2.23.03-.66.03-1.99v-.58c-.06-2.76.09-5.55.83-8.22l1.02-3.26z"/><path fill="#888d83" d="M294.88 81.01c1.62.7 3.33 1.28 4.77 2.34.82 1.05 1.23 2.34 1.7 3.58l-3.02-.66c-.22 3.1-.57 6.24-.22 9.34l-1.65.81c-.22 2.27 1.6 4 2.56 5.88l.23 3.59-2.52-.88-.62 3.67 1.52 2.14 1.73 2.64.54-5.08 1.73.85 3.28-2.92.14.91c-.65 1.51-1.69 2.97-1.58 4.7.11 4.37-.67 9.12 1.83 13.01l-.49 2.14c-1.27 3.32-.57 6.84-.26 10.26-2.07-1.88-1.42-5.26-3.71-7.08-.23-5.68-.03-11.82-3.09-16.84-.2 5.19-.15 10.4-.71 15.58-.71 2.25-1.3 4.57-1.21 6.96.04 6.43.3 12.87-.07 19.29-.98-8.57-.06-17.2-.53-25.79-1.84.47-3.68.9-5.54 1.25l-.9.17.06-.87-.1-1.77.09-.99.29-1.81.11-.83c1.35-2.31 1.34-5 1.52-7.58 1.71.61 3.44 1.19 5.17 1.74.15-2.87-.83-5.57-2.39-7.94 1.44-4.61 2.5-9.46 1.28-14.25l-.57-3.45 1.88-2.63c-.54-2.8-1.07-5.61-1.28-8.46l.03-1.02z"/><path fill="#4d5260" d="M281.85 82.21c3.08-.47 6.2-.32 9.3-.03-.74 2.67-.89 5.46-.83 8.22v.58l-.03 1.99-.03.66-.17 2.23c-.42 4.62-.74 9.32.27 13.89.55 2.39.62 4.84.4 7.27-.18 2.58-.17 5.27-1.52 7.58.09-9.19-.68-18.37-.37-27.56.08-3.62.04-7.26-.24-10.88-2.08.6-4.07 1.46-5.87 2.66-.13-2.22-.49-4.42-.91-6.61z"/><path opacity=".74" d="M279.34 91.38c.45-3.1.08-6.8 2.51-9.17.42 2.19.78 4.39.91 6.61.1 4.3.01 8.6.04 12.89-.4 3.43-.43 6.88-.49 10.32.05 2.62-1.69 4.76-2.45 7.16-.01 2.18 1.4 4.07 2.19 6.04l-2.56 3.11c-2.9-2.2-6.18-3.83-9.11-5.99l-.8-2.03c1.41-.83 2.89-1.57 4.17-2.62 1.03-1.53 1.47-3.36 2-5.1 1.73-6.97 3.35-14.01 3.59-21.22z"/><path fill="#bdc0ca" d="M282.76 88.82c1.8-1.2 3.79-2.06 5.87-2.66.28 3.62.32 7.26.24 10.88l-1.39-1.36c-1.17 2.53-1.96 5.28-1.61 8.09.58 6.3.32 12.64.66 18.96l2.71 1.87-.11.83-1.8-.18-.48.75.28.85 1.71.39-.09.99-.81-.13-2.25-.33-1.8-6.32c-.37-6.58.71-13.29-1.09-19.74l-.04-12.89m3.56 4.37l-.35.82.35.82.84.34.84-.34.35-.82-.35-.82-.84-.34-.84.34z"/><path fill="#a4a99b" d="M298.33 86.27l3.02.66c-.45 3.68-1.08 7.35-1.2 11.07 1.59-2.27 2.17-5.01 3.23-7.53l1.4-.82c.57 4.54.71 9.13.35 13.7l-2.2-1.2c.35-2.03.67-4.06.93-6.1-2.63 2.93-1.94 6.99-2.63 10.57l3.43-2.03.25 1.72c-1.07 1-2.17 1.96-3.28 2.92l-1.73-.85-.54 5.08-1.73-2.64c.6-1.63 1.18-3.26 1.62-4.93-.03-1.2-.11-2.4-.23-3.59-.17-2.25-.53-4.47-.91-6.69-.35-3.1 0-6.24.22-9.34z"/><path fill="#bab7b0" d="M303.29 87.32h.45v.45h-.45v-.45z"/><path fill="#dcdadc" d="M290.32 90.4v.58-.58z"/><path fill="#e1e0ec" d="M286.32 93.19l.84-.34.84.34.35.82-.35.82-.84.34-.84-.34-.35-.82.35-.82z"/><path fill="#dfdeda" d="M290.29 92.97l-.03.66.03-.66z"/><path fill="#e5e6f2" d="M285.87 103.77c-.35-2.81.44-5.56 1.61-8.09l1.39 1.36c-.31 9.19.46 18.37.37 27.56l-2.71-1.87c-.34-6.32-.08-12.66-.66-18.96z"/><path fill="#aeb69c" d="M290.09 95.86a34.39 34.39 0 0 0 4.73.71c1.22 4.79.16 9.64-1.28 14.25 1.56 2.37 2.54 5.07 2.39 7.94-1.73-.55-3.46-1.13-5.17-1.74.22-2.43.15-4.88-.4-7.27-1.01-4.57-.69-9.27-.27-13.89z"/><path fill="#626363" d="M296.46 96.42l1.65-.81.91 6.69c-.96-1.88-2.78-3.61-2.56-5.88z"/><path fill="#848589" d="M306.61 101.83c.9-1.61 1.93-3.15 2.96-4.69 1.78.73 3.59 1.39 5.45 1.91-.79.34-1.55.74-2.27 1.21-.85 2.83-1.08 5.81-1.15 8.75-.06 2.48 1.63 4.49 2.57 6.66-1.81 1.88-2.52 4.25-1.61 6.74 1.17 7.43-1 14.77-3.82 21.56l-1.16 1.05c-.11-.92-.2-1.85-.28-2.78 1.25-2 2.39-4.11 2.88-6.44l.06-2.07a120.11 120.11 0 0 1-3.8-1.79c1.12-.78 2.39-1.27 3.7-1.63l-.77-3.91c1.39-1.68 1.56-3.83 1.52-5.92l-3.11-.32c-.43-1.94-.7-3.91-.73-5.89l3.37.09.45-4.81-3.82-.65-.29-3.8 4.09.72-.14-4.79c-1.38.24-2.75.5-4.1.8z"/><path fill="#6c6c71" d="M315.02 99.05l.8.22c1.29 1.58 1.45 3.74 1.6 5.7.15 5.4-1.39 10.64-2.11 15.96-.3-1.77-.61-3.54-1.14-5.26-.94-2.17-2.63-4.18-2.57-6.66.07-2.94.3-5.92 1.15-8.75.72-.47 1.48-.87 2.27-1.21z"/><path fill="#9c9ca4" d="M306.61 101.83l4.1-.8.14 4.79-4.09-.72-.15-3.27z"/><path fill="#595b5a" d="M282.31 112.03c.06-3.44.09-6.89.49-10.32 1.8 6.45.72 13.16 1.09 19.74-.55 3.91-.78 7.86-.6 11.81l-3.83-2.82-1.39 3.34c-1.28 1.44-2.68 2.76-4 4.17 1.63-3.3 3.31-6.59 5.42-9.61.83-1.06 1.7-2.08 2.56-3.11-.79-1.97-2.2-3.86-2.19-6.04.76-2.4 2.5-4.54 2.45-7.16z"/><path fill="#646568" d="M296.73 105.01l2.52.88c-.44 1.67-1.02 3.3-1.62 4.93l-1.52-2.14.62-3.67z"/><path fill="#c1bec8" d="M303.47 111.92c-.11-1.73.93-3.19 1.58-4.7 1.41 5.78 1.22 11.88.25 17.71-2.5-3.89-1.72-8.64-1.83-13.01z"/><path fill="#f6f5fc" d="M307.05 108.9l3.82.65-.45 4.81-3.37-.09v-5.37z"/><path fill="#b7bda9" d="M297.75 113.41c3.06 5.02 2.86 11.16 3.09 16.84l-.34 7.56c-.2 6.07.1 12.15.13 18.22l.19 1.75c.61 8.98-.89 17.95-.22 26.93-.07 2.87.74 6.45-1.68 8.6-.32-5.84-.13-11.7-.66-17.53-.32-2.61.34-5.18.55-7.76-.2-2.75-1.23-5.38-1.29-8.16-.32-10.29.21-20.59-.48-30.87.56-5.18.51-10.39.71-15.58z"/><path fill="#505054" opacity=".96" d="M314.17 115.67c.53 1.72.84 3.49 1.14 5.26l-2.75 1.48c-.91-2.49-.2-4.86 1.61-6.74z"/><path fill="#9f9ea5" d="M307.78 120.16l3.11.32c.04 2.09-.13 4.24-1.52 5.92l-1.59-6.24z"/><path fill="#dfe3eb" d="M283.29 133.26c-.18-3.95.05-7.9.6-11.81l1.8 6.32 2.25.33-.83 1.29.36.62 1.38-.01-.06.87a85.02 85.02 0 0 0-1.7.35c-1.43.8-2.69 1.86-3.8 3.05v-1.01z"/><path fill="#f9f8fb" d="M287.33 125.25l1.8.18-.29 1.81-1.71-.39-.28-.85.48-.75z"/><path d="M304.81 127.07l1.08 4.59c.25 3.84.31 7.7.28 11.55l-4 .67c-.65-2-1.26-4.01-1.67-6.07.06-2.52.24-5.04.34-7.56 2.29 1.82 1.64 5.2 3.71 7.08-.31-3.42-1.01-6.94.26-10.26zm-78.44 91.22l2-3.63 2.06 3.92 8.33.42 6.09 2.06c-4.59-.52-9.31-1.03-13.86.11-3.6.92-7.16 1.99-10.71 3.09 1.54-1.17 3.28-2.03 5.01-2.89l1.08-3.08z" fill="#73756c"/><path fill="#afb6a1" d="M289.69 130.7l5.54-1.25c.47 8.59-.45 17.22.53 25.79.06 2.5.04 5-.17 7.5l-3.95.59c-1.29-4.04-.8-8.29-.98-12.45a12.95 12.95 0 0 0-.66 4.14l-1.43-1.71.4-1.48.11-1.79a75.34 75.34 0 0 1-.33-3.66c.33-5.23-.52-10.57.94-15.68z"/><path fill="#6a6b6e" d="M295.83 135.95c-.09-2.39.5-4.71 1.21-6.96.69 10.28.16 20.58.48 30.87.06 2.78 1.09 5.41 1.29 8.16-.21 2.58-.87 5.15-.55 7.76.53 5.83.34 11.69.66 17.53-1.96-1.95-1.95-4.81-2.19-7.36-.29-4.77-1.4-9.45-1.5-14.24-.06-3 .05-5.99.36-8.97.21-2.5.23-5 .17-7.5.37-6.42.11-12.86.07-19.29z"/><path fill="#666667" d="M279.46 130.44l3.83 2.82v1.01l-.03.96-.14 2.4-2.04-.37-3.01-3.48 1.39-3.34z"/><path fill="#b6bac3" d="M283.29 134.27c1.11-1.19 2.37-2.25 3.8-3.05-.08 4.01-.12 8.03.28 12.02.04 1.19.76 2.17 1.38 3.14a75.34 75.34 0 0 0 .33 3.66l-1.8.19-.39.81.37.78 1.71.01-.4 1.48c-1.1 1.9-1.18 4.13-.38 6.16l-1.83 2.19-.85-.95c-.24-5.08.71-10.35-1.42-15.17-.21-3.23-.18-6.46.01-9.69l.8.33.76-.31.03-.76-.72-.4-.83.25-.88.27.03-.96z"/><path fill="#e2e1ea" d="M287.09 131.22l1.7-.35.9-.17c-1.46 5.11-.61 10.45-.94 15.68-.62-.97-1.34-1.95-1.38-3.14-.4-3.99-.36-8.01-.28-12.02z"/><path fill="#5c5e58" opacity=".97" d="M305.89 131.66l.55.28 3.8 1.79-.06 2.07-3.08 1.74.2 4.7.28 2.78-1.49 1.28.08-3.09c.03-3.85-.03-7.71-.28-11.55z"/><path fill="#edbb9b" d="M278.07 133.78l3.01 3.48.18 8.48c-1.64 1.59-3.03 3.43-3.96 5.53-1.83 3.98-4.7 7.33-6.96 11.06-2.04 3.62-5.95 5.43-9.19 7.78-2.06 1.62-4.68 2.02-7.2 2.34-1.03-.86-2.02-1.76-2.98-2.69-.5-2.53.11-4.97 1.53-7.1 1.89-1.09 3.77-2.24 5.34-3.79 3.38-3.34 6.91-6.65 9.24-10.86l2.04-2.78c1.75-2.36 3.44-4.76 4.95-7.28 1.32-1.41 2.72-2.73 4-4.17z"/><path fill="#816759" d="M283.26 135.23l.88-.27-.04.89c-.19 3.23-.22 6.46-.01 9.69-2.37 5.48-1.09 11.51-1.44 17.28l-4.81-.81c3.8-4.55 3.53-10.71 3.42-16.27.03-2.83-.02-5.66-.18-8.48l2.04.37.14-2.4z"/><path fill="#eef0f4" d="M284.14 134.96l.83-.25.72.4-.03.76-.76.31-.8-.33.04-.89z"/><path fill="#1b1c1a" opacity=".39" d="M307.1 137.54l3.08-1.74c-.49 2.33-1.63 4.44-2.88 6.44l-.2-4.7z"/><path fill="#858c77" d="M300.63 156.03c-.03-6.07-.33-12.15-.13-18.22.41 2.06 1.02 4.07 1.67 6.07l4-.67-.08 3.09-.21 5.48c-1.93 1.19-3.69 2.62-5.25 4.25z"/><path fill="#3a3d3e" d="M245.43 150.72c2.64-4.48 7.11-7.56 11.95-9.25 2.18-.77 4.52-.36 6.7.16l-5.21.33c2.54 1.66 5.51 2.35 8.53 2.39l1.72.88-2.04 2.78-.55.43c-2.06-1.24-4.1-2.66-6.46-3.25-2.21.08-4.12 1.42-6.12 2.23-3.19.37-5.08 3.1-7.13 5.24l-1.39-1.94z"/><path fill="#615e5d" opacity=".93" d="M258.87 141.96l5.21-.33 3.32 2.72c-3.02-.04-5.99-.73-8.53-2.39z"/><path fill="#48494b" opacity=".96" d="M307.58 145.02l1.16-1.05.03 3.97c-.78 3.84-1.98 7.61-2.44 11.52l-2.32.58 1.89-1.47-.02-6.79c.03-1.83.13-3.65.21-5.48l1.49-1.28z"/><path d="M253.95 147.42c2-.81 3.91-2.15 6.12-2.23 2.36.59 4.4 2.01 6.46 3.25l-3.16 2.62c-1.52-2.02-3.48-4.03-6.24-3.01-.11 2.49 1.06 4.57 2.86 6.21l-4.7 1.77 1.46 1.88-1.49 1.24-1.67-2.25-5.47-1.1c1.64-2.99 3.74-5.69 5.83-8.38m-2.65 7.91v.45h.45v-.45h-.45zM250.48 322c.48-3.07 3.26-4.94 5.4-6.89-.61 2.56-1.74 5.29-.16 7.75-1.81.05-3.87.73-5.24-.86z" fill="#72706e"/><path fill="#d4a686" d="M277.3 151.27c.93-2.1 2.32-3.94 3.96-5.53.11 5.56.38 11.72-3.42 16.27-3.87 4.69-6.91 9.96-9.99 15.19-2.21-.06-4.41-.29-6.59-.64-2.51-1.24-4.98-2.57-7.31-4.11 2.52-.32 5.14-.72 7.2-2.34 3.24-2.35 7.15-4.16 9.19-7.78 2.26-3.73 5.13-7.08 6.96-11.06z"/><path fill="#65656b" d="M282.65 162.82c.35-5.77-.93-11.8 1.44-17.28.32 4.8.01 9.6.14 14.4-.05 1.87.91 3.51 1.74 5.11-1.41-.11-2.81-.16-4.21-.15-1.11.16-2.21.34-3.31.54-.12 2.48.07 4.97.48 7.42 2.58.13 5.17.21 7.75.07l.44-.78c.16-2.33.08-4.67-.07-7l1.89.22a211.62 211.62 0 0 0-.85 8.33c-2.33.47-4.68.83-7.05.93l-1.07.09a41.3 41.3 0 0 0-1.82.77l-.98-3.44c-.86-.86-1.73-1.7-2.61-2.51 1.3-2.42 2.28-4.99 3.28-7.53l4.81.81z"/><path fill="#a4a7b0" d="M284.09 145.54c2.13 4.82 1.18 10.09 1.42 15.17l.85.95 2.68 2.86-.1.85-1.89-.22-1.08-.1c-.83-1.6-1.79-3.24-1.74-5.11-.13-4.8.18-9.6-.14-14.4z"/><path fill="#50504e" d="M246.82 152.66c2.05-2.14 3.94-4.87 7.13-5.24-2.09 2.69-4.19 5.39-5.83 8.38l5.47 1.1 1.67 2.25-2.33 2c-3.03 1.08-6.29 1.6-9.14 3.16-1.95 1.85-1.49 4.82-.16 6.9.5.72 1.02 1.43 1.55 2.15-1.38 1.58-2.51 3.37-2.25 5.57 4.72.97 9.49-.06 14.17-.75 1.51-.16 2.88-.83 4.16-1.62 2.18.35 4.38.58 6.59.64l3.13-1.15 1.58 2.88 2-2.37 3.09.86.06 4.76-7.48 2.61 1.65-4.83c-2.26 1.53-4.05 3.61-5.19 6.1-3.09-.13-5.99.95-8.61 2.52-2.44-2.85-5.02-6.38-9.19-6.31-3.5.32-7.39 1.91-8.93 5.29 1.52 1.76 2.8 3.72 3.85 5.8 3.85.74 7.76 1.15 11.68 1.36l1.79 2.19a129.79 129.79 0 0 1-1.92.37c-5.9-1.24-11.84-2.21-17.87-2.47-1.25-1.41-2.3-3.54-4.45-3.55-1.47.38-2.84 1.06-4.22 1.66.97-2.82 1.74-5.98 4.09-8.02 1.67-1.61 3.84-2.72 5.25-4.6 1.32-2.98 1.77-6.25 2.25-9.44.58-4.6 1.48-9.15 2.04-13.74.19-2.44 1.65-4.45 2.98-6.4l1.39 1.94z"/><path fill="#89878a" d="M257.13 148.05c2.76-1.02 4.72.99 6.24 3.01l-3.38 3.2c-1.8-1.64-2.97-3.72-2.86-6.21z"/><path fill="#b08e78" d="M266.53 148.44l.55-.43c-2.33 4.21-5.86 7.52-9.24 10.86-1.57 1.55-3.45 2.7-5.34 3.79.1-.38.32-1.13.43-1.51l2.33-2 1.49-1.24-1.46-1.88c1.58-.57 3.16-1.12 4.7-1.77 1.16-1.03 2.25-2.13 3.38-3.2 1-.93 2.07-1.79 3.16-2.62z"/><path opacity=".08" d="M308.77 147.94l8.55 3.77c3.78 2.02 5.83 6.58 10.18 7.61 4.46 1.03 8.77 3.47 13.47 2.31l-1.89 2.74c4.47.07 8.82 1.18 13.21 1.93 1.68.28 3.31.8 4.84 1.56 3.85 1.92 7.97 3.2 11.84 5.09 2.5 1.39 5.27-.52 7.9.13 5.54 1.56 10 5.36 14.89 8.22 1.44.93 3.2.75 4.82.86 2.21.06 4.36.58 6.56.76 3.35.24 6.74-1.06 10.04-.15 1.92 1.01 3.41 2.65 5.27 3.76 2.54.99 5.31 1.1 7.99 1.5.82-.75 1.66-1.48 2.5-2.22l3.25 2.45c6.6.56 13.56.39 19.61 3.48 1.63-.84 3.13-2.21 5.01-2.43 3.49.8 5.52 4.18 8.51 5.92 2.3-.4 4.39-2.15 6.82-1.36 2.26.57 4.55.12 6.74-.54 1.6.75 3.09 2.04 4.9 2.21 2.41-.68 4.66-1.81 6.99-2.72l2.38 4.01 3.75 1.06 1.65 3.09c1.47-1.98 2.68-4.13 3.81-6.32l.27 5.3 2.1-.31c.44-1.95.81-3.91 1.13-5.88l1.23-.88c.48 1.76.86 3.56 1.64 5.22.92 1.07 2.17 1.78 3.27 2.67v29.81c-1.2-3.11-2.99-6.02-5.72-8.01-1.9 1.64-3.96 3.1-6.2 4.24l-1.75-1.58 1.06-3.68c-2.11 1.18-4 2.69-5.72 4.37l-3.86-3.58-1.66 2.53 2.78 2.12c-2.61-.1-5.7-.01-7.57-2.16-.57-1.21-.88-2.52-1.26-3.79-1.59.79-3.1 1.84-4.84 2.27-3.57-.37-6.68-2.37-10.14-3.13-1.88.8-3.09 2.58-4.53 3.96-1.19-.9-2.51-1.59-3.92-2.05-2.43-.8-4.31-2.62-6.36-4.05v4.15c-2.51-1.32-4.89-2.97-7.61-3.82-1.88-.22-3.7.49-5.53.77-3.36.89-6.84-1.18-10.11.47l-2.33-3.09c-3.22.26-6.42.67-9.63 1-1.48-1.3-3.05-2.5-4.67-3.62l-2.69 2.88c-1.88-.55-3.74-1.26-5.69-1.45-1.24.28-2.41.78-3.59 1.24l-.11-2.34a180.42 180.42 0 0 1-8.02 1.23l-2.2-4.19c-2.13.57-4.31 1.73-6.55 1.13l-14.71-3.56c-1.81-.53-3.53.46-5.2 1l-.06-2.29c-4.12.6-8.26 1.08-12.25 2.28l1.85-4.23c-4.04 1.05-8.22 2.02-12.43 1.66-2.52-.48-4.89-1.52-7.38-2.13-.93.62-1.48 2.27-2.78 2.03-.67-.66-1.25-1.4-1.86-2.12-1 1.15-2.6 2.23-2.41 3.96.31 1.66.94 3.25 1.26 4.93-.14 1.95-1.33 3.64-2.03 5.43l-.78-2.34c-.39-4.45-1.06-8.87-2.54-13.11l-.19-.7 2.44-1.6c-.99-3.92-1.71-7.97-3.51-11.61-1.8-3.25-4.21-6.13-6.72-8.85a109.71 109.71 0 0 0-2.58-2.26c-1.58-1.31-3.12-2.67-4.51-4.17l-.42-.66c-.65-1.22-1.59-1.53-2.8-.93-1.84-3.49-1.52-7.52-1.24-11.31.12-.38.34-1.15.46-1.54l.82-.25 2.32-.58c.46-3.91 1.66-7.68 2.44-11.52z"/><path fill="#f0eaf4" d="M287.28 150.23l1.8-.19-.11 1.79c-.42 0-1.28-.01-1.71-.01l-.37-.78.39-.81z"/><path fill="#44413f" d="M290 155.02a12.95 12.95 0 0 1 .66-4.14c.18 4.16-.31 8.41.98 12.45l.4 2.4c-.52 4.69.14 9.38.19 14.08-.52 4.05-1.56 8.07-1.37 12.19.15 3.34.79 6.65.9 10.01l-.9 2.05h-2.98l-.99.29-1.02-2.11 1.89-.01 2.12-.13a100.1 100.1 0 0 0 .39-4.25c.17-3.69.11-7.39-.09-11.08l-.09-1.36.13-5.04c.26-2.46-.66-4.74-2.13-6.67a211.62 211.62 0 0 1 .85-8.33l.1-.85c.75-3.1 1.38-6.29.96-9.5z"/><path fill="#777b71" d="M300.63 156.03c1.56-1.63 3.32-3.06 5.25-4.25l.02 6.79-1.89 1.47-.82.25-2.37-2.51-.19-1.75z"/><path fill="#d2d0d9" d="M288.19 159.47c-.8-2.03-.72-4.26.38-6.16l1.43 1.71c.42 3.21-.21 6.4-.96 9.5l-2.68-2.86 1.83-2.19z"/><path fill="#bebab9" d="M251.3 155.33h.45v.45h-.45v-.45z"/><path fill="#83857b" d="M300.82 157.78l2.37 2.51-.46 1.54c-2.85 9.88.72 20.12.15 30.14-.35 1.31-.81 2.6-.98 3.96 1.01 2.46 2.69 4.56 4.05 6.84-.76 1.66-2.15 3.21-2.15 5.11 1.94 2.12 4.24 3.88 6.24 5.96l-2.15 2.15c-1.3-1.89-2.86-3.58-4.73-4.89-.75 1.54-1.28 3.17-1.4 4.89-.53.12-1.04.25-1.55.4-1.35-2.13-2.7-4.5-5.2-5.44l1.85-1.29c-.85-1.1-1.72-2.19-2.8-3.06l-3.2-2.54.9-2.05c1.48.29 3.05.48 4.25-.63-1.07-2.05-2.68-4-2.88-6.38.22-2.16 1.72-3.92 2.6-5.85.62-2.42.32-4.92 0-7.35l-.09-.74c-1.13-.45-2.27-.85-3.41-1.25-.05-4.7-.71-9.39-.19-14.08.48 3.19.72 6.41 1.07 9.62.73-1.2 1.46-2.4 2.12-3.64.1 4.79 1.21 9.47 1.5 14.24.24 2.55.23 5.41 2.19 7.36 2.42-2.15 1.61-5.73 1.68-8.6-.67-8.98.83-17.95.22-26.93m-1.76 35.98c-.17 3.58-.4 7.17-.41 10.76-.08 1.43.36 2.79 1.21 3.94 1.43-3.66 2.38-7.7 1.58-11.61-.18-1.43-1.05-2.59-2.38-3.09z"/><path fill="#494745" d="M243.79 164.31c2.85-1.56 6.11-2.08 9.14-3.16l-.43 1.51c-1.42 2.13-2.03 4.57-1.53 7.1l-2.29-3.08c-2.89-.26-4.05 2.31-5.05 4.53-1.33-2.08-1.79-5.05.16-6.9z"/><path fill="#a57f68" d="M267.85 177.2c3.08-5.23 6.12-10.5 9.99-15.19-1 2.54-1.98 5.11-3.28 7.53l-1.61 2.6c-.72 1.27-1.35 2.59-1.97 3.91a117.27 117.27 0 0 1-3.13 1.15z"/><path fill="#747372" d="M302.88 191.97c.57-10.02-3-20.26-.15-30.14-.28 3.79-.6 7.82 1.24 11.31.55 1.28 1.48 1.59 2.8.93l.42.66c.08 2.91-1.91 5.06-3.32 7.39-.35 3.28.16 6.68-.99 9.85z"/><path fill="#979d8a" d="M291.64 163.33l3.95-.59c-.31 2.98-.42 5.97-.36 8.97l-2.12 3.64-1.07-9.62-.4-2.4z"/><path fill="#c1c3cf" d="M278.45 165.44l3.31-.54c.17 2.42.41 5.41 2.62 6.86l2.74.39-.44.78c-2.58.14-5.17.06-7.75-.07-.41-2.45-.6-4.94-.48-7.42z"/><path fill="#e2e2f0" d="M281.76 164.9l4.21.15 1.08.1c.15 2.33.23 4.67.07 7l-2.74-.39c-2.21-1.45-2.45-4.44-2.62-6.86z"/><path fill="#61605c" d="M243.63 171.21c1-2.22 2.16-4.79 5.05-4.53l2.29 3.08 2.98 2.69c2.33 1.54 4.8 2.87 7.31 4.11-1.28.79-2.65 1.46-4.16 1.62-4.68.69-9.45 1.72-14.17.75-.26-2.2.87-3.99 2.25-5.57l-1.55-2.15z"/><path fill="#b3b4be" d="M272.95 172.14l1.61-2.6 2.61 2.51-.08 4.11c-2.11-.47-3.21-2.25-4.14-4.02z"/><path fill="#212327" d="M270.98 176.05l1.97-3.91c.93 1.77 2.03 3.55 4.14 4.02l.08-4.11.98 3.44 1.82-.77 1.07-.09-.33 9.86c-.62 2.19-1.52 4.35-1.57 6.66-.08 2.19.86 4.22 1.47 6.27.31 2.31-.03 4.68-1.04 6.79-1.57-6.34-4.08-13.1-9.62-17.03l-2.48 2.74-.78-3.86c1.14-2.49 2.93-4.57 5.19-6.1l-1.65 4.83c2.51-.83 4.99-1.72 7.48-2.61l-.06-4.76-3.09-.86-2 2.37-1.58-2.88z"/><path fill="#302f2e" opacity=".7" d="M303.97 173.14c1.21-.6 2.15-.29 2.8.93-1.32.66-2.25.35-2.8-.93z"/><path fill="#87878b" d="M281.04 174.63c2.37-.1 4.72-.46 7.05-.93 1.47 1.93 2.39 4.21 2.13 6.67-.73.71-1.98 1.18-1.98 2.38.53.94 1.22 1.78 1.85 2.66l.09 1.36c-1.62-.27-3.26-.21-4.82.31-.32 4.97-.4 9.95-.33 14.93l-.88-.27c-.27-2.08-.55-4.15-.72-6.24-.1-3.84.6-8.23-2.72-11.01.19-3.29.17-6.57.33-9.86m1.02 7.85c-.92 1.17-.68 1.84.71 2.02.92-1.17.68-1.85-.71-2.02z"/><path fill="#575654" d="M307.19 174.73c1.39 1.5 2.93 2.86 4.51 4.17-2.02.38-3.7 1.48-4.93 3.1.91 2.4 2.22 4.63 4.16 6.35 1.9-1.98 3.11-4.45 3.35-7.19 2.51 2.72 4.92 5.6 6.72 8.85 1.8 3.64 2.52 7.69 3.51 11.61l-2.44 1.6c-2.48-3.28-4.21-6.99-5.34-10.94-.68-3.79-5.75-2.38-7.35-.07-.35 3.25.3 6.49.64 9.71 3.91 1.49 8.12 1.62 12.24 2 1.48 4.24 2.15 8.66 2.54 13.11-.73-1.96-1.42-3.94-1.96-5.96l-.97-3.81a53.39 53.39 0 0 0-6.52 3l.58 4.6c-1.27.41-2.51.87-3.76 1.34l-1.05-1.18-1.08-1.18c-2-2.08-4.3-3.84-6.24-5.96 0-1.9 1.39-3.45 2.15-5.11-1.36-2.28-3.04-4.38-4.05-6.84.17-1.36.63-2.65.98-3.96 1.15-3.17.64-6.57.99-9.85 1.41-2.33 3.4-4.48 3.32-7.39z"/><path fill="#6b6a69" d="M306.77 182c1.23-1.62 2.91-2.72 4.93-3.1l2.58 2.26c-.24 2.74-1.45 5.21-3.35 7.19-1.94-1.72-3.25-3.95-4.16-6.35z"/><path fill="#a0a593" d="M292.23 179.81l3.41 1.25.09.74c-.64 1.57-1.92 3.08-1.63 4.87.49.86 1.04 1.68 1.63 2.48-.88 1.93-2.38 3.69-2.6 5.85.2 2.38 1.81 4.33 2.88 6.38-1.2 1.11-2.77.92-4.25.63-.11-3.36-.75-6.67-.9-10.01-.19-4.12.85-8.14 1.37-12.19z"/><path fill="#cdccd2" d="M288.24 182.75c0-1.2 1.25-1.67 1.98-2.38l-.13 5.04-1.85-2.66z"/><path fill="#3f3d3b" d="M239.96 187.56c1.54-3.38 5.43-4.97 8.93-5.29 4.17-.07 6.75 3.46 9.19 6.31 2.62-1.57 5.52-2.65 8.61-2.52l.78 3.86 1.79 8.81c-2.52-1.23-4.94-3.83-7.97-3.01l2.53 5.25-1.1 2.75-2.32-.97c-.85-2.04-1.76-4.08-3.12-5.84l-1.79-2.19c-3.92-.21-7.83-.62-11.68-1.36-1.05-2.08-2.33-4.04-3.85-5.8z"/><path fill="#ceced5" d="M282.06 182.48c1.39.17 1.63.85.71 2.02-1.39-.18-1.63-.85-.71-2.02z"/><path fill="#b1b1b5" d="M294.1 186.67c-.29-1.79.99-3.3 1.63-4.87.32 2.43.62 4.93 0 7.35-.59-.8-1.14-1.62-1.63-2.48z"/><path fill="#020202" opacity=".88" d="M279.14 191.15c.05-2.31.95-4.47 1.57-6.66 3.32 2.78 2.62 7.17 2.72 11.01l-2.82 1.92c-.61-2.05-1.55-4.08-1.47-6.27z"/><path fill="#c1c1ca" d="M285.36 187.08c1.56-.52 3.2-.58 4.82-.31.2 3.69.26 7.39.09 11.08l-2.96.48.45 3.9-1.89.01-.84-.23c-.07-4.98.01-9.96.33-14.93z"/><path fill="#494949" d="M267.47 189.92l2.48-2.74c5.54 3.93 8.05 10.69 9.62 17.03l-2.23 4.09-.32-3.36c-1.24 1.17-2.31 2.49-3.25 3.9l-5.73-1.55-.66-.2a45.03 45.03 0 0 1 .67-3.06l1.3-1.48c-1.68-1.04-3.59-1.5-5.53-1.58l-2.53-5.25c3.03-.82 5.45 1.78 7.97 3.01-.52-2.96-1.15-5.88-1.79-8.81z"/><path fill="#676869" d="M309.38 192.21c1.6-2.31 6.67-3.72 7.35.07 1.13 3.95 2.86 7.66 5.34 10.94l.19.7c-4.12-.38-8.33-.51-12.24-2-.34-3.22-.99-6.46-.64-9.71z"/><path fill="#646564" d="M228.82 192.92c1.38-.6 2.75-1.28 4.22-1.66 2.15.01 3.2 2.14 4.45 3.55-.51 1.28-.82 2.67-1.61 3.82-1.29 1.05-2.81 1.76-4.21 2.62 1.91.45 3.86.72 5.82.89l.63.6-5.35.39 5.15 1.88c-4.73-.19-6.47 5-8.73 8.22-.73-4.37-.19-8.79 1.39-12.91l-2.7-1.65c.24-1.93.51-3.86.94-5.75z"/><path fill="#b6bbac" d="M299.06 193.76c1.33.5 2.2 1.66 2.38 3.09.8 3.91-.15 7.95-1.58 11.61-.85-1.15-1.29-2.51-1.21-3.94.01-3.59.24-7.18.41-10.76z"/><path fill="#808284" d="M237.49 194.81c6.03.26 11.97 1.23 17.87 2.47-4.55 1.14-9.08-.66-13.62-.96-.12 1.44.87 2.43 2.29 2.49 4.62.95 9.48 1.2 13.72 3.51l.36 2.46c-6.62-2.02-13.66-3.99-20.62-2.64-1.96-.17-3.91-.44-5.82-.89 1.4-.86 2.92-1.57 4.21-2.62.79-1.15 1.1-2.54 1.61-3.82z"/><path fill="#5a5a55" d="M241.74 196.32c4.54.3 9.07 2.1 13.62.96l1.92-.37c1.36 1.76 2.27 3.8 3.12 5.84l2.32.97 1.1-2.75c1.94.08 3.85.54 5.53 1.58l-1.3 1.48-3.91.09c.59 2.34-.4 6.25 2.56 7.07l.68-4.1.66.2-.02 2.61c2.76 1.8 6.61 1.67 8.92-.83l.47 2.33c1.81 1.29 3.68 2.5 5.61 3.61l3.91-1.94c1.43 1.4 2.96 2.7 4.45 4.04l-.54 2.24c-1.02 2.33 1.47 2.89 3.06 3.67 1.42.64 2.55 1.72 3.22 3.15-2.48.25-4.71-.83-6.61-2.32-.11-.09-.34-.25-.46-.34l-2.36-1.82.13-4.6c-1.65-.8-3.25-.59-4.51.76-2.46-.01-4.34-1.99-6.53-2.86-1.16.45-2.29.96-3.42 1.47-3.33 1.02-5.86 3.41-7.48 6.44.56 1.08 1.11 2.17 1.72 3.23l1.5 1.82c4-1.71 8.28-.84 12.32.19-.57.82-1.12 1.66-1.67 2.49-4.09-1.22-8.29-2.14-12.58-2.04-1.94 2.37-4.01 4.77-4.93 7.76-.85 2.85-1.29 5.8-2.12 8.65l-4.16-2.78-1.55 5.31 5.63 1.77-.72 3.46-4.23-2.42-1.74.58a136.87 136.87 0 0 1 2.89 5.82l-4.04-.06c-2.2 2.46-4.19 5.15-6.8 7.22l-.68.48c1.22-5.81 5.24-10.56 6.52-16.38.74-3.19 1.56-6.38 2.93-9.37l-1.71-4.61c1.58-.58 3.21-1.05 4.87-1.33l-1.04 2.64c4.33-.7 6.15-4.85 7.61-8.47l-2.96.34c-1.93-1.57-3.45-3.92-5.97-4.55-3.39-.44-6.79-.79-10.12-1.59-2.03-.68-4.04-1.45-6.09-2.06 1.65-.05 3.3-.17 4.95-.33 3.06.3 6.11.78 9.08 1.59 3 .87 6.08 1.43 9.21 1.59-.98-4.55-3.34-8.75-3.34-13.49l3.64-2.5c-8.09-.38-16.87 1.37-24.18-3.12l-.63-.6c6.96-1.35 14 .62 20.62 2.64l-.36-2.46c-4.24-2.31-9.1-2.56-13.72-3.51-1.42-.06-2.41-1.05-2.29-2.49z"/><path fill="#010101" opacity=".8" d="M280.61 197.42l2.82-1.92.72 6.24c.27 3.91 1.2 7.75 2.78 11.33l-3.91 1.94c-1.93-1.11-3.8-2.32-5.61-3.61l-.47-2.33.4-.77c.72-1.38 1.49-2.72 2.23-4.09 1.01-2.11 1.35-4.48 1.04-6.79z"/><path fill="#dad8e4" d="M287.31 198.33l2.96-.48-.39 4.25-2.12.13-.45-3.9z"/><path fill="#a2a2a8" d="M284.15 201.74l.88.27.84.23 1.02 2.11c.13 1.7.31 3.41.68 5.08l.88 1.37c2.18.22 4.37.14 6.56.15 2.5.94 3.85 3.31 5.2 5.44l-1.4.4c-2.46.45-4.96.39-7.43.32l-4.45-4.04c-1.58-3.58-2.51-7.42-2.78-11.33z"/><path fill="#42423c" d="M232.77 203.13l5.35-.39c7.31 4.49 16.09 2.74 24.18 3.12l-3.64 2.5c-4.21-.07-8.44.04-12.61-.61-2.87-.42-5.42-1.86-8.13-2.74-1.74-.57-3.47-1.18-5.15-1.88z"/><path fill="#2f3033" d="M264.14 204.12l3.91-.09-.67 3.06-.68 4.1c-2.96-.82-1.97-4.73-2.56-7.07z"/><path fill="#94f8ff" d="M286.89 204.35l.99-.29c-.71 2.74 3.92 2.75 2.98 0l3.2 2.54c-1.65 1.91-4.13 2.41-6.49 2.83-.37-1.67-.55-3.38-.68-5.08z"/><path fill="#edffff" d="M287.88 204.06h2.98c.94 2.75-3.69 2.74-2.98 0z"/><path fill="#84877d" d="M229.19 213.23c2.26-3.22 4-8.41 8.73-8.22 2.71.88 5.26 2.32 8.13 2.74 4.17.65 8.4.54 12.61.61 0 4.74 2.36 8.94 3.34 13.49-3.13-.16-6.21-.72-9.21-1.59l2.66-.92c.44-2.26.99-4.66.2-6.91-.83-1.37-2.21-2.5-3.81-2.79-2.08-.06-4.08.71-6.02 1.35-3.32 1.37-6.49 3.49-7.91 6.93l6.54.38-.74.37c-1.65.16-3.3.28-4.95.33l-8.33-.42-2.06-3.92.82-1.43z"/><path fill="#6e6c6d" d="M273.77 208.84c.94-1.41 2.01-2.73 3.25-3.9l.32 3.36-.4.77c-2.31 2.5-6.16 2.63-8.92.83l.02-2.61 5.73 1.55z"/><path fill="#6a6c6e" d="M294.06 206.6c1.08.87 1.95 1.96 2.8 3.06l-1.85 1.29c-2.19-.01-4.38.07-6.56-.15l-.88-1.37c2.36-.42 4.84-.92 6.49-2.83z"/><path fill="#6f6e6e" d="M315.35 210.26a53.39 53.39 0 0 1 6.52-3l.97 3.81-3.95 3.37-2.1.23-.86.19-.58-4.6z"/><path fill="#919289" d="M245.82 210.99c1.94-.64 3.94-1.41 6.02-1.35 1.6.29 2.98 1.42 3.81 2.79.79 2.25.24 4.65-.2 6.91l-2.66.92c-2.97-.81-6.02-1.29-9.08-1.59l.74-.37 4.19-2.15-2.82-5.16z"/><path fill="#9f9f94" d="M237.91 217.92c1.42-3.44 4.59-5.56 7.91-6.93l2.82 5.16-4.19 2.15-6.54-.38z"/><path fill="#4a3a35" d="M303.16 211.1c1.87 1.31 3.43 3 4.73 4.89-.1 4.29.09 8.59-.2 12.87l-.17.89-2.79-2.47c.23-2.56.37-5.12.26-7.68-.33-1.32-.72-2.62-1.11-3.92l-2.12.31c.12-1.72.65-3.35 1.4-4.89z"/><path fill="#be8a6c" d="M318.89 214.44l3.95-3.37c.54 2.02 1.23 4 1.96 5.96l.78 2.34-.02 1.57c-.43 4.95 1.38 9.67 2.3 14.46 1.05 5.42 1.99 10.9 2.01 16.44l.27 9.22-.04.92-1.98.03c-.35-7.17-.39-14.37-1.01-21.53-.71-6.45-3.19-12.5-4.7-18.76-.73-2.61-.98-5.72-3.52-7.28z"/><path opacity=".07" d="M307.89 215.99l2.15-2.15 1.08 1.18c.27 6.93 1.63 13.81 1.11 20.77-.59 2.17-1.35 4.28-2.04 6.42-3.3-3.64-1.62-8.93-2.5-13.35.29-4.28.1-8.58.2-12.87z"/><path fill="#747687" d="M273.36 216.46l3.42-1.47 2.14 3.28-4.99-.73-.57-1.08z"/><path fill="#61647b" d="M276.78 214.99c2.19.87 4.07 2.85 6.53 2.86 1.24 3.36.53 7.24 2.49 10.35l-2.73-.03-1.65-.03c-4.04-1.03-8.32-1.9-12.32-.19l-1.5-1.82c.65-1.37 1.3-2.74 2.01-4.07.38.27 1.12.83 1.5 1.11l.89-.27.35-.76c.64-1.49 1.17-3.04 1.58-4.6 1.65.3 3.32.52 4.99.73l-2.14-3.28m-3.45 8.24v.44l.45.01v-.45h-.45m5.94.02v.45h.45v-.45h-.45z"/><path fill="#656268" d="M301.76 215.99l2.12-.31 1.11 3.92-1.97 1.81c-.01 2.1-.16 4.45 1.71 5.87l2.79 2.47-.29 1.57-.81-.39-1.56-.78-3.18-1.58-1.39-4.69c-.4-1.37-1.28-1.83-2.66-1.39l-1.51-1.57c1.64.05 3.28.02 4.92-.16 1.03-1.92-1.16-2.81-2.23-3.97l1.4-.4 1.55-.4z"/><path fill="#6c4e3b" opacity=".86" d="M311.12 215.02l1.05 1.18c1.33 7.89.82 15.91.76 23.86.4 7.32 1.08 14.63 1.82 21.93l-.73.48-2.3-6.18a165.52 165.52 0 0 1 .2-9.45c.28-3.68.32-7.36.31-11.05.52-6.96-.84-13.84-1.11-20.77z"/><path fill="#be8b6c" d="M312.17 216.2l3.76-1.34.86-.19c-.54 2.03-1.06 4.12-.74 6.23.55 4.73.85 9.49.59 14.24-.19 3.58-1.48 7.14-.64 10.72.84 4.17 1.13 8.41 1.65 12.63.14 1.84 1.31 3.31 2.34 4.76l-5.24-1.26c-.74-7.3-1.42-14.61-1.82-21.93.06-7.95.57-15.97-.76-23.86z"/><path fill="#d7a182" d="M316.79 214.67l2.1-.23c2.54 1.56 2.79 4.67 3.52 7.28 1.51 6.26 3.99 12.31 4.7 18.76.62 7.16.66 14.36 1.01 21.53-2.7.47-5.39 1.11-8.13 1.24-1.03-1.45-2.2-2.92-2.34-4.76-.52-4.22-.81-8.46-1.65-12.63-.84-3.58.45-7.14.64-10.72.26-4.75-.04-9.51-.59-14.24-.32-2.11.2-4.2.74-6.23m3.36 12.2c-1.87 4.13-1.66 8.74-2.13 13.15-.15 2.31-.66 4.71.09 6.97.94 2.94 1.96 5.89 2.02 9.01.3 1.78-.15 4.12 1.59 5.28 1.2 1.13 2.67-.19 3.92-.51-.44-3.77-.02-7.64-1.01-11.33-1.14-4.34-.5-8.92-1.86-13.23-.97-3.08-.58-6.68-2.62-9.34z"/><path fill="#6d7081" d="M283.31 217.85c1.26-1.35 2.86-1.56 4.51-.76l-.13 4.6 2.36 1.82.46.34c1.9 1.49 4.13 2.57 6.61 2.32-.67-1.43-1.8-2.51-3.22-3.15l1.42-2.35.8.25 1.51 1.57c.5 1.31 1.39 1.77 2.66 1.39l1.39 4.69 3.18 1.58c-1.38.84-2.67 1.82-3.94 2.81l5.5-2.03.81.39c-.32 1.44-.91 2.8-1.64 4.08l-3.73 2.3c-1.31-1.55-2.86-2.99-3.63-4.9.03-1.97.48-3.91.83-5.84-1.53 1.13-3.08 2.3-4.91 2.89.8-1.77-1.24-3.24-2.68-1.97l-5.67.32c-1.96-3.11-1.25-6.99-2.49-10.35z"/><path fill="#47474d" d="M265.88 222.9c1.62-3.03 4.15-5.42 7.48-6.44l.57 1.08c-.41 1.56-.94 3.11-1.58 4.6l-1.47-1.08-.88.27-.39.73-2.01 4.07-1.72-3.23z"/><path fill="#8c8c98" d="M291.38 217.11c2.47.07 4.97.13 7.43-.32 1.07 1.16 3.26 2.05 2.23 3.97-1.64.18-3.28.21-4.92.16l-.8-.25-4.48-1.32.54-2.24m5.76 1.47c-.7 1.27 1.51 2.29 2.33 1.33.67-1.27-1.52-2.28-2.33-1.33z"/><path fill="#595a57" d="M216.43 225.42c2.98-2.81 6.67-4.69 9.94-7.13l-1.08 3.08c-1.73.86-3.47 1.72-5.01 2.89-1.03.84-1.98 1.79-2.93 2.72-1.48 1.1-2.33 2.68-2.39 4.53l4.32.25c-1.52 3.05-3.9 5.88-3.82 9.46-.31 1.59-.8 3.15-1.25 4.71 3.45-2.05 6.28-5.09 10.01-6.68 7.03-2.57 14.86-1.42 21.82-4.28.45-.01 1.35-.01 1.8-.01l.67 1.04c1.61 2.54 2.63 5.42 2.58 8.47-3.01.98-6.34.4-9.27 1.4-1.02 3.6-3.29 7.06-2.71 10.94.15 1.81-.64 3.5-1.16 5.19h-1.01c-1.42-2.83-1.13-5.99-.81-9.02l-2.1 1.32c.15 4.02.42 8.04.68 12.06-1.9-2.78-3.16-5.9-4.75-8.85.71-2.81 1.45-5.85 3.73-7.84 2.56-2.3 5.59-3.98 8.41-5.93-.48-.83-1.01-1.63-1.58-2.4-2.59-.78-5.38-1.13-8.06-.7-2.11 1.14-3.26 3.42-4.58 5.32-4.85 7.29-6.13 17.32-2 25.22l-3.9-1.1 1.61 5.15c-.45-.08-1.36-.26-1.81-.35l-1.13-1.21c-2.11-6.98-2.63-14.35-4.95-21.28l3.21.1c2.89-2.72 5.35-5.89 7.21-9.4-1.81.45-3.74.69-5.34 1.72-1.34 1.25-1.99 3.06-3.3 4.34-1.21.59-2.56.8-3.86 1.06l-3.38-.48c-.54-2.84-1.13-5.78-.47-8.64 1.03-3.25 3.46-5.9 4.08-9.31.64-2.18.69-4.79 2.58-6.36z"/><path fill="#b6b3bf" d="M297.14 218.58c.81-.95 3 .06 2.33 1.33-.82.96-3.03-.06-2.33-1.33z"/><path fill="#918f86" d="M230.99 221.17c4.55-1.14 9.27-.63 13.86-.11 3.33.8 6.73 1.15 10.12 1.59.42.89.37 1.72-.17 2.51-5.48-.72-11-1.03-16.52-1.26-7.15-.31-13.75 4.59-20.93 3.08.95-.93 1.9-1.88 2.93-2.72 3.55-1.1 7.11-2.17 10.71-3.09z"/><path fill="#aeaeb9" d="M293.9 223.02c-1.59-.78-4.08-1.34-3.06-3.67l4.48 1.32-1.42 2.35z"/><path fill="#8a868d" d="M303.02 221.41l1.97-1.81c.11 2.56-.03 5.12-.26 7.68-1.87-1.42-1.72-3.77-1.71-5.87z"/><path fill="#8c8f9b" d="M270 221.33l.88-.27 1.47 1.08-.35.76-.89.27-1.5-1.11.39-.73z"/><path fill="#5f4536" opacity=".69" d="M327.86 235.4c-.92-4.79-2.73-9.51-2.3-14.46 2.2 8.91 4.11 17.9 5.32 27.01.24 2.8 1.46 5.41 3.55 7.32-1.81-.73-3.38-1.87-4.56-3.43-.02-5.54-.96-11.02-2.01-16.44z"/><path fill="#717170" d="M254.97 222.65c2.52.63 4.04 2.98 5.97 4.55l-3.61 5.49c-1.66.28-3.29.75-4.87 1.33l1.71 4.61c-1.37 2.99-2.19 6.18-2.93 9.37l-2.74-1.42c-1.54 1.25-3.16 2.4-4.87 3.41-.31 3.44-1.38 6.73-1.98 10.11l-1.95 1.78-1.75.12c.52-1.69 1.31-3.38 1.16-5.19-.58-3.88 1.69-7.34 2.71-10.94 2.93-1 6.26-.42 9.27-1.4.05-3.05-.97-5.93-2.58-8.47-.05-1.75-.09-3.54.42-5.22 1.67-2.16 3.97-3.69 5.87-5.62.54-.79.59-1.62.17-2.51z"/><path fill="#8b8b97" d="M297.63 222.49c1.38-.44 2.26.02 2.66 1.39-1.27.38-2.16-.08-2.66-1.39z"/><path fill="#636462" d="M217.35 226.98c7.18 1.51 13.78-3.39 20.93-3.08 5.52.23 11.04.54 16.52 1.26-1.9 1.93-4.2 3.46-5.87 5.62-.51 1.68-.47 3.47-.42 5.22l-.67-1.04-1.8.01c-5.51-1.14-11.21-1.94-16.83-1.28-4.99 1.65-9.11 5.15-13.75 7.53-.08-3.58 2.3-6.41 3.82-9.46l-4.32-.25c.06-1.85.91-3.43 2.39-4.53z"/><path fill="#a3a4ac" d="M273.33 223.23h.45v.45l-.45-.01v-.44z"/><path fill="#a8a6b3" d="M279.27 223.25h.45v.45h-.45v-.45z"/><path fill="#cbc8d2" d="M290.05 223.51l.46.34-.46-.34z"/><path fill="#81756d" d="M260.94 227.2l2.96-.34c-1.46 3.62-3.28 7.77-7.61 8.47l1.04-2.64c1.12-1.88 2.39-3.67 3.61-5.49z"/><path fill="#393c47" d="M291.47 227.88c1.44-1.27 3.48.2 2.68 1.97-1.39.17-2.28-.48-2.68-1.97z"/><path fill="#555657" d="M294.15 229.85c1.83-.59 3.38-1.76 4.91-2.89-.35 1.93-.8 3.87-.83 5.84.77 1.91 2.32 3.35 3.63 4.9l3.73-2.3c-1.01 2.02-1.75 4.14-2.67 6.2l-2.49 2.49-1.72 1.96-6.86-5.87c-2.23-1.74-5.18-1.87-7.78-2.73l-2.78-1.13c.07-2.81.71-5.55 1.78-8.15l2.73.03 5.67-.32c.4 1.49 1.29 2.14 2.68 1.97z"/><path fill="#e3b194" d="M320.15 226.87c2.04 2.66 1.65 6.26 2.62 9.34 1.36 4.31.72 8.89 1.86 13.23.99 3.69.57 7.56 1.01 11.33-1.25.32-2.72 1.64-3.92.51-1.74-1.16-1.29-3.5-1.59-5.28-.06-3.12-1.08-6.07-2.02-9.01-.75-2.26-.24-4.66-.09-6.97.47-4.41.26-9.02 2.13-13.15z"/><path fill="#787874" d="M267.17 228.59c4.29-.1 8.49.82 12.58 2.04l1.67-2.49 1.65.03c-1.07 2.6-1.71 5.34-1.78 8.15.92.39 1.84.77 2.78 1.13l-.15 1.75-.06.72c-3.12 4.14-4.62 9.11-6.31 13.93-1.79-.93-3.88-1.64-5.01-3.42a30.68 30.68 0 0 1-.42-3.01l5.87-3.42c-.85-3.27-1.51-6.59-2.15-9.91a169.43 169.43 0 0 0-2.39 4.12c-2.57-.57-5.49-1.4-7.87.23-2.08 2.24-3.16 5.16-4.05 8.03 2.64 1.75 5.25 3.82 5.79 7.15-3.64 4.73-7.7 9.15-10.82 14.26a58.47 58.47 0 0 0-2.05 1.23l-2.89-2.76c-.91-1.05-1.75-2.15-2.59-3.25l-2.72.59-.85.21c2.61-2.07 4.6-4.76 6.8-7.22l4.04.06a136.87 136.87 0 0 0-2.89-5.82l1.74-.58 4.23 2.42.72-3.46-5.63-1.77c.49-1.78 1.01-3.55 1.55-5.31l4.16 2.78c.83-2.85 1.27-5.8 2.12-8.65.92-2.99 2.99-5.39 4.93-7.76z"/><path fill="#624c48" d="M307.52 229.75l.17-.89c.88 4.42-.8 9.71 2.5 13.35-.39 1.94-.58 3.91-.8 5.88-.28 2.33-.83 4.61-1.38 6.89l-3.03.37c1.13-4.7-.49-9.37-2.06-13.75.92-2.06 1.66-4.18 2.67-6.2.73-1.28 1.32-2.64 1.64-4.08l.29-1.57z"/><path fill="#bbb9c5" d="M300.92 232.96l3.94-2.81 1.56.78-5.5 2.03z"/><path fill="#9b968e" d="M215.46 241.22c4.64-2.38 8.76-5.88 13.75-7.53 5.62-.66 11.32.14 16.83 1.28-6.96 2.86-14.79 1.71-21.82 4.28-3.73 1.59-6.56 4.63-10.01 6.68.45-1.56.94-3.12 1.25-4.71z"/><path fill="#908e87" d="M273.45 238.21l2.39-4.12c.64 3.32 1.3 6.64 2.15 9.91l-5.87 3.42a30.68 30.68 0 0 0 .42 3.01c1.13 1.78 3.22 2.49 5.01 3.42 1.69-4.82 3.19-9.79 6.31-13.93l.2 3.72-3.52 9.92c-1.18 3.5-3.64 6.44-4.48 10.07l3.02 1.39c3.67-5.03 5.71-11 7.09-17.02l1.4.4c-.69 3.34-1.47 6.73-1.06 10.17.07 2.17.66 4.52-.43 6.55-1.88 3.72-3.72 7.5-5.98 11.01-3.16 3.97-8.32 6.47-13.43 6.17-3.88-.16-7.96-.54-11.3-2.72-3-1.99-6.36-3.33-9.89-4a272.71 272.71 0 0 1-3.5-7.58l2.74-3.62.68-.48.85-.21c.17 1.88.54 3.73.96 5.57a57.4 57.4 0 0 1-.26 2.89c1.03.47 2.45 1.72 3.5.53 1.42-1.09 2.65-2.39 4-3.57a58.47 58.47 0 0 1 2.05-1.23l1.35 1.67c2.97-.97 6.05-1.51 9.15-1.86 1.22-4.77 6.38-6.91 7.93-11.52-.99-.94-1.91-1.99-3.07-2.72-1.49-.42-3.04.04-4.54.17-.54-3.33-3.15-5.4-5.79-7.15.89-2.87 1.97-5.79 4.05-8.03 2.38-1.63 5.3-.8 7.87-.23z"/><path fill="#17100d" opacity=".46" d="M310.19 242.21l2.04-6.42c.01 3.69-.03 7.37-.31 11.05l-2.53 1.25c.22-1.97.41-3.94.8-5.88z"/><path fill="#808181" d="M283.92 239.2l.15-1.75c2.6.86 5.55.99 7.78 2.73 2.42 1.79 4.62 3.85 6.86 5.87-1.13 2.36-1.54 4.98-1.48 7.58l-1.24-.77-.04-5.88-.96-2.01c-3.33-2.53-7.34-3.95-11.07-5.77z"/><path fill="#2f3030" d="M283.92 239.2c3.73 1.82 7.74 3.24 11.07 5.77l.96 2.01c-2.28-1.63-4.9-3.17-7.8-2.82-1.09.49-2.07 1.17-3.07 1.81l-1.02-2.33-.2-3.72.06-.72z"/><path fill="#737473" d="M232.46 240.64c2.68-.43 5.47-.08 8.06.7.57.77 1.1 1.57 1.58 2.4-2.82 1.95-5.85 3.63-8.41 5.93-2.28 1.99-3.02 5.03-3.73 7.84-1.42 4.69-1.65 9.59-1.4 14.45l-2.68-.78c-4.13-7.9-2.85-17.93 2-25.22 1.32-1.9 2.47-4.18 4.58-5.32z"/><path fill="#929584" d="M300.43 244.09l2.49-2.49c1.57 4.38 3.19 9.05 2.06 13.75-.75 1.56-1.59 3.06-2.42 4.58-1.17-.56-2.36-1.1-3.26-2.05l2.66-.27c-.24-4.27.06-8.57-.32-12.83l-1.21-.69z"/><path fill="#3f403e" d="M220.78 244.81c1.6-1.03 3.53-1.27 5.34-1.72-1.86 3.51-4.32 6.68-7.21 9.4l-3.21-.1-2.08-2.18c1.3-.26 2.65-.47 3.86-1.06 1.31-1.28 1.96-3.09 3.3-4.34z"/><path fill="#6f7583" d="M280.54 253.56l3.52-9.92 1.02 2.33 1.09 2.03c-1.38 6.02-3.42 11.99-7.09 17.02l-3.02-1.39c.84-3.63 3.3-6.57 4.48-10.07z"/><path fill="#77756f" d="M285.08 245.97c1-.64 1.98-1.32 3.07-1.81 2.9-.35 5.52 1.19 7.8 2.82l.04 5.88-1.81-.44c-.35 4.8-1.89 9.36-3.96 13.67-1.31 3.32-2.68 6.61-4.36 9.77-2.86 3.85-6.4 7.13-10.06 10.2l-2.84-.18c-4.88-.26-9.76-.43-14.59-1.11-3.26-.66-5.39 2.67-8.49 2.84-4.7.29-9.72.69-14.07-1.45 2.95-.09 6.04-.11 8.69-1.61 1.43-.29 2.86-.54 4.31-.77l1.32-2.83c-2.64-1.75-5.56-3.09-8.08-5.02-3.09-2.64-5.2-6.18-7.34-9.57l-.68-12.06 2.1-1.32c-.32 3.03-.61 6.19.81 9.02 1.09 4.51 1.76 9.74 6.16 12.36-.3-2.14-.64-4.26-1.12-6.36l3.5 7.58c3.53.67 6.89 2.01 9.89 4 3.34 2.18 7.42 2.56 11.3 2.72 5.11.3 10.27-2.2 13.43-6.17 2.26-3.51 4.1-7.29 5.98-11.01 1.09-2.03.5-4.38.43-6.55-.41-3.44.37-6.83 1.06-10.17l-1.4-.4-1.09-2.03z"/><path fill="#c2cbac" d="M300.43 244.09l1.21.69c.38 4.26.08 8.56.32 12.83l-2.66.27-2.07-4.25c-.06-2.6.35-5.22 1.48-7.58l1.72-1.96z"/><path fill="#817f7b" d="M248.5 246.58l2.74 1.42c-1.28 5.82-5.3 10.57-6.52 16.38l-2.74 3.62a50.1 50.1 0 0 0-1.07-3.48c1.53-1.52 2.81-3.28 3.55-5.32l-2.81.9c.6-3.38 1.67-6.67 1.98-10.11 1.71-1.01 3.33-2.16 4.87-3.41z"/><path fill="#030202" opacity=".78" d="M309.39 248.09l2.53-1.25-.2 9.45-1.53-.55-2.18-.76 1.38-6.89z"/><path fill="#5c5b58" d="M294.18 252.42l1.81.44 1.24.77 2.07 4.25c.9.95 2.09 1.49 3.26 2.05l2.42-4.58 3.03-.37 2.18.76c-.42 4.34-.69 8.72-.35 13.08l2.39 1.55c1.46-2.37 2.14-5.12 1.79-7.9l.73-.48c1.75.37 3.49.84 5.24 1.26 2.74-.13 5.43-.77 8.13-1.24l1.98-.03-.86 9.72 4.49 1.54c-.05 3.31 1.27 6.37 3.23 8.97-.85 2.1-3.05 2.52-5.07 2.55.46-3.24.82-6.49 1.05-9.75l-4.94.09c.12 2.53.4 5.06.84 7.56l-3.66-1.41a42.22 42.22 0 0 1-5.76 4.17l-1.35-2.17c-2.77-4.14-3.7-10.13-9.01-11.91-1.8-3.33-2.19-7.18-3.83-10.58-.44 3.5-.63 7.02-.9 10.53l-2.09.09-1.19-2.3.12-.81c.2-1.85.77-3.8.15-5.62-2.07-1.53-4.78-1.18-7.19-1.26a122.52 122.52 0 0 0-.46 3.42l-3.45 1.28c2.07-4.31 3.61-8.87 3.96-13.67m1.82 3.87l-.42.71.4.72h.83l.41-.71-.4-.72H296m.3 2.82c-.56 1.41-.12 1.89 1.3 1.43.55-1.41.12-1.89-1.3-1.43z"/><path fill="#846857" d="M329.87 251.84c1.18 1.56 2.75 2.7 4.56 3.43l.54.41-2.26 2.49-2.57 2.89-.27-9.22z"/><path fill="#9f9c92" d="M267.32 253.62c1.5-.13 3.05-.59 4.54-.17 1.16.73 2.08 1.78 3.07 2.72-1.55 4.61-6.71 6.75-7.93 11.52-3.1.35-6.18.89-9.15 1.86l-1.35-1.67c3.12-5.11 7.18-9.53 10.82-14.26z"/><path fill="#9c9f91" d="M296 256.29h.82l.4.72-.41.71h-.83l-.4-.72.42-.71z"/><path fill="#393937" d="M310.19 255.74l1.53.55 2.3 6.18c.35 2.78-.33 5.53-1.79 7.9l-2.39-1.55c-.34-4.36-.07-8.74.35-13.08z"/><path fill="#726f6f" d="M332.71 258.17l2.26-2.49.59.54c2.13 6.91 2.51 14.22 3.34 21.37l-1.94 4.62c-1.96-2.6-3.28-5.66-3.23-8.97 0-5.04.73-10.22-1.02-15.07z"/><path fill="#474645" opacity=".87" d="M335.56 256.22c3.53 4.43 4.74 10.29 4.88 15.84.2 1.99-.7 3.79-1.54 5.53-.83-7.15-1.21-14.46-3.34-21.37z"/><path fill="#504b45" d="M229.96 257.51c1.59 2.95 2.85 6.07 4.75 8.85 2.14 3.39 4.25 6.93 7.34 9.57 2.52 1.93 5.44 3.27 8.08 5.02l-1.32 2.83c-1.45.23-2.88.48-4.31.77-2.63-.88-5.53-1.47-7.59-3.48-2.52-2.35-4.96-4.8-7.68-6.92l-.06 4.68c-1.82-1.26-3.63-2.55-5.58-3.6l-1.61-5.15 3.9 1.1 2.68.78c-.25-4.86-.02-9.76 1.4-14.45z"/><path fill="#595754" d="M241.65 260.1l2.81-.9c-.74 2.04-2.02 3.8-3.55 5.32l-1.21-2.64 1.95-1.78z"/><path fill="#383738" d="M296.3 259.11c1.42-.46 1.85.02 1.3 1.43-1.42.46-1.86-.02-1.3-1.43z"/><path fill="#444544" d="M330.14 261.06l2.57-2.89c1.75 4.85 1.02 10.03 1.02 15.07l-4.49-1.54.86-9.72.04-.92z"/><path fill="#74726f" d="M294.13 261.39c2.41.08 5.12-.27 7.19 1.26.62 1.82.05 3.77-.15 5.62l-.81-.38-.8.27-.08.75 1.57.17 1.19 2.3-3.22-1.53-1.18-.56-4.05 1.68-.12-6.16.46-3.42z"/><path fill="#7b7779" d="M305.23 260.76c1.64 3.4 2.03 7.25 3.83 10.58l-2.07 3.41c-.92-1.14-1.79-2.3-2.66-3.46.27-3.51.46-7.03.9-10.53z"/><path fill="#735646" d="M236.94 262h1.01l1.75-.12 1.21 2.64 1.07 3.48 1.12 6.36c-4.4-2.62-5.07-7.85-6.16-12.36z"/><path fill="#b5b8b3" d="M246.25 263.69l2.72-.59 2.59 3.25-4.35 2.91c-.42-1.84-.79-3.69-.96-5.57z"/><path fill="#41403f" d="M290.22 266.09l3.45-1.28.12 6.16 4.05-1.68 1.18.56-1.37 3.35-.38.33-4.07 3.48 1.63 3.31-4.77 2.65c.76-2.07 1.37-4.2 1.91-6.33-1.44.14-2.55 1.01-3.32 2.19l-3.35.1.56-3.07c1.68-3.16 3.05-6.45 4.36-9.77m-.06 7.2c-1.45.97.06 3.62 1.56 2.4 1.44-.98-.07-3.63-1.56-2.4z"/><path fill="#636565" d="M247.21 269.26l4.35-2.91 2.89 2.76-4 3.57c-1.05 1.19-2.47-.06-3.5-.53l.26-2.89z"/><path fill="#a7a5a7" d="M299.56 268.16l.8-.27.81.38-.12.81-1.57-.17.08-.75z"/><path fill="#555656" d="M299.02 269.85l3.22 1.53 2.09-.09 2.66 3.46c1.05 1.32 2.25 2.56 3.1 4.04.99 2.91 1.31 6.01 1.52 9.06l.16 4.54c.32 3.33-.68 6.56-1.4 9.77-.47 1.73-.63 3.72-2.01 5.03l-1.63-3.09c-5.17 3.33-9.74 7.68-15.55 9.94-2.14.66-3.48 2.41-4.65 4.19-1.69 2.4-4.01 4.27-5.63 6.72-.48 1.36-.58 2.81-.83 4.23l-.35.66c-1.54 1.08-3.13 2.1-4.62 3.25.48-4.38.5-9.6 4.1-12.73 2.69-2.39 5.38-4.88 7.09-8.09 1.12-2.63 1.88-5.4 3.05-8 1.1-2.61 3.83-3.84 5.93-5.5l3.76-.07c.21-3.42-3.79-4.11-5.71-6.18-.45-1.32 0-2.73.05-4.07 4.61.07 9.23.14 13.8-.59-2.05 2.32-5.01 4-5.61 7.31 1.22.28 2.78 1.85 3.95.66 2.42-2.31 4.63-5.59 3.98-9.1-.61-4.53-1.5-9.85-5.79-12.39-1.81-1.44-4.18-.66-6.23-.47.05-.17.14-.5.18-.67l1.37-3.35z"/><path fill="#d09a7c" d="M306.99 274.75l2.07-3.41c5.31 1.78 6.24 7.77 9.01 11.91-.47 1.12-.62 2.45-1.48 3.38-1.55.75-3.31.88-4.98 1.22-.21-3.05-.53-6.15-1.52-9.06-.85-1.48-2.05-2.72-3.1-4.04z"/><path fill="#828084" d="M290.16 273.29c1.49-1.23 3 1.42 1.56 2.4-1.5 1.22-3.01-1.43-1.56-2.4z"/><path fill="#a6a4a8" d="M297.65 273.2l-.18.67-.2-.34.38-.33z"/><path fill="#3b3a39" d="M297.47 273.87c2.05-.19 4.42-.97 6.23.47 4.29 2.54 5.18 7.86 5.79 12.39.65 3.51-1.56 6.79-3.98 9.1-1.17 1.19-2.73-.38-3.95-.66.6-3.31 3.56-4.99 5.61-7.31l-.24-.81c-.75-2.42-1.45-4.94-3.04-6.95-1.39-1.51-3.23-2.5-4.9-3.63l-1.52-2.6z"/><path fill="#4c4e4d" d="M221.25 282.88c.34-3.07-.17-6.17-.6-9.21l1.13 1.21c4.11 4.36 8.69 8.5 14.03 11.28 4.35 2.14 9.37 1.74 14.07 1.45 3.1-.17 5.23-3.5 8.49-2.84l.09.88a159.71 159.71 0 0 1-9.41 5.45c-4.36.13-8.7-.41-13.06-.34-2.1-.12-3.75 1.35-5.53 2.22-.37 0-1.11 0-1.48-.01-1.92-3.31-6.21-3.44-9.03-5.69l.07 4.55c-.59-1.23-1.25-2.44-1.56-3.77.76-1.81 1.96-3.4 2.79-5.18z"/><path fill="#7e8081" d="M229.23 274.15c2.72 2.12 5.16 4.57 7.68 6.92 2.06 2.01 4.96 2.6 7.59 3.48-2.65 1.5-5.74 1.52-8.69 1.61-5.34-2.78-9.92-6.92-14.03-11.28l1.81.35c1.95 1.05 3.76 2.34 5.58 3.6l.06-4.68z"/><path fill="#62605d" d="M293.2 277.01l4.07-3.48.2.34 1.52 2.6-3.22 2.53c1.38 2.29 2.44 5 4.75 6.54 2.07.73 4.27.99 6.41 1.51l.24.81c-4.57.73-9.19.66-13.8.59-.05 1.34-.5 2.75-.05 4.07 1.92 2.07 5.92 2.76 5.71 6.18l-3.76.07-.57-1.48-6.77 4.53-.82-1.75 3.09-5.65-2.61.18-.36-2.93a79.67 79.67 0 0 0-2.95-.75c-3.28-.68-6.58-1.27-9.88-1.83 2.8-.32 5.64-.49 8.37-1.22 2.8-1 4.93-3.19 7.29-4.9 1.6-.87 3.22-1.7 4.77-2.65l-1.63-3.31z"/><path fill="#4a4b4a" d="M328 275.1l4.94-.09-1.05 9.75c-2.53.27-5.38-.01-7.41 1.83-2.01 1.75-4.61 2.26-7.16 2.68l2.1-3.85a42.22 42.22 0 0 0 5.76-4.17l3.66 1.41c-.44-2.5-.72-5.03-.84-7.56z"/><path fill="#595959" d="M275.8 286.06c3.66-3.07 7.2-6.35 10.06-10.2l-.56 3.07 3.35-.1c-2.34 4.67-7.53 8.1-12.85 7.23z"/><path fill="#2c2d2e" d="M288.65 278.83c.77-1.18 1.88-2.05 3.32-2.19l-1.91 6.33c-2.36 1.71-4.49 3.9-7.29 4.9-2.73.73-5.57.9-8.37 1.22l-1.5-.05-1.47-.07 1.53-3.09 2.84.18c5.32.87 10.51-2.56 12.85-7.23z"/><path fill="#d39d7d" d="M295.77 279l3.22-2.53c1.67 1.13 3.51 2.12 4.9 3.63 1.59 2.01 2.29 4.53 3.04 6.95-2.14-.52-4.34-.78-6.41-1.51-2.31-1.54-3.37-4.25-4.75-6.54z"/><path fill="#b17f63" d="M318.07 283.25l1.35 2.17-2.1 3.85c-1.91.93-3.72 2.05-5.55 3.12l-.16-4.54c1.67-.34 3.43-.47 4.98-1.22.86-.93 1.01-2.26 1.48-3.38z"/><path fill="#60615e" d="M258.37 284.77c4.83.68 9.71.85 14.59 1.11l-1.53 3.09 1.47.07c-2.38 4.96-5.91 9.22-8.57 14.02 3.08 2.87 7.49 4.21 11.6 3.1-2.93 2.76-5.1 6.3-8.57 8.47-4.22-1.68-8.91-2.24-13.39-1.4-4.13 1.5-6.38 5.54-7.2 9.65-4.76-3.65-8.57-8.41-10.8-14-.88-1.55-1.89-3.03-3.05-4.39 1.8-.51 3.6-1.05 5.38-1.62-2.3-2.88-6.06-3.51-9.25-4.95 2.33-.05 4.65-.26 6.96-.59 4.67-.83 9.72-.77 13.84-3.45 3.02-1.87 6.32-3.45 8.82-6.02l-.21-2.21-.09-.88m3.33 11.95c-2.81 2.45-5.41 5.19-8.46 7.35-3.97.28-7.64 1.98-11.59 2.28a27.43 27.43 0 0 0-3.24.56c-.44 2.3-.44 5.19 1.87 6.54 3.03.39 6.45.74 8.97-1.39a26.73 26.73 0 0 0-2.64-2.13c3.96-2.22 8.7-3 12.09-6.2 4.68-4.03 9.26-8.79 11.34-14.71-3.45 1.76-5.46 5.24-8.34 7.7z"/><path fill="#87847c" d="M249.05 291.1a159.71 159.71 0 0 0 9.41-5.45l.21 2.21c-2.5 2.57-5.8 4.15-8.82 6.02-4.12 2.68-9.17 2.62-13.84 3.45-2.56-1.02-5.45-1.92-7.03-4.36a73.02 73.02 0 0 0 1.48.01c3.83.19 7.64.63 11.48.67 2.6.03 4.86-1.44 7.11-2.55z"/><path fill="#6e6b64" d="M219.95 287.28c2.82 2.25 7.11 2.38 9.03 5.69 1.58 2.44 4.47 3.34 7.03 4.36-2.31.33-4.63.54-6.96.59-2.46-1.75-4.75-4.18-8.01-4.12l-1.02-1.97c-.06-1.52-.06-3.04-.07-4.55z"/><path fill="#8f8c84" d="M261.7 296.72c2.88-2.46 4.89-5.94 8.34-7.7-2.08 5.92-6.66 10.68-11.34 14.71-3.39 3.2-8.13 3.98-12.09 6.2-1.64-.44-3.29-.79-4.94-1.16l-.02-2.42c3.95-.3 7.62-2 11.59-2.28 3.05-2.16 5.65-4.9 8.46-7.35z"/><path fill="#83837c" d="M272.9 289.04l1.5.05 9.88 1.83c-1.26 2.56-2.03 5.33-2.06 8.2-1.88 2.53-4.04 4.84-6.29 7.04-4.11 1.11-8.52-.23-11.6-3.1 2.66-4.8 6.19-9.06 8.57-14.02z"/><path fill="#656663" d="M230.46 292.98c1.78-.87 3.43-2.34 5.53-2.22 4.36-.07 8.7.47 13.06.34-2.25 1.11-4.51 2.58-7.11 2.55-3.84-.04-7.65-.48-11.48-.67z"/><path fill="#757675" d="M284.28 290.92l2.95.75.36 2.93 2.61-.18-3.09 5.65.82 1.75 6.77-4.53.57 1.48c-2.1 1.66-4.83 2.89-5.93 5.5-1.17 2.6-1.93 5.37-3.05 8l-3.11-3.68 1.67-6.33-1.27-1.51-1.36-1.63c.03-2.87.8-5.64 2.06-8.2z"/><path fill="#535553" d="M221.04 293.8c3.26-.06 5.55 2.37 8.01 4.12 3.19 1.44 6.95 2.07 9.25 4.95-1.78.57-3.58 1.11-5.38 1.62-3.96-3.53-9.47-5.69-11.88-10.69z"/><path fill="#2a2c2d" d="M282.22 299.12l1.36 1.63-2.62 3.33c-4.34 4.05-9.87 7.72-10.94 14.03l-1.06 3c-1.02-.02-2.04-.05-3.06 0-1.67.48-3.3 1.06-4.94 1.61 1.8-2.93 3.75-5.85 6.4-8.09 3.47-2.17 5.64-5.71 8.57-8.47 2.25-2.2 4.41-4.51 6.29-7.04z"/><path fill="#848384" d="M283.58 300.75l1.27 1.51-1.67 6.33-2.37 1.31.15-5.82 2.62-3.33z"/><path fill="#666767" d="M270.02 318.11c1.07-6.31 6.6-9.98 10.94-14.03l-.15 5.82 2.37-1.31 3.11 3.68c-1.71 3.21-4.4 5.7-7.09 8.09-3.6 3.13-3.62 8.35-4.1 12.73-1.49 1.37-3.24 2.36-5.31 2.36.69-7.4 2.38-14.66 4.83-21.66-1.59 1.38-3.15 2.79-4.6 4.32z"/><path fill="#3c3d3c" d="M291.18 314.04c5.81-2.26 10.38-6.61 15.55-9.94l1.63 3.09-17.21 13.54c-.87-1.92-2.57-2.69-4.62-2.5 1.17-1.78 2.51-3.53 4.65-4.19z"/><path fill="#74746d" d="M238.41 306.91a27.43 27.43 0 0 1 3.24-.56l.02 2.42 4.94 1.16a26.73 26.73 0 0 1 2.64 2.13c-2.52 2.13-5.94 1.78-8.97 1.39-2.31-1.35-2.31-4.24-1.87-6.54z"/><path fill="#76776f" d="M235.97 308.88c2.23 5.59 6.04 10.35 10.8 14 2.12 1.21 4.29 2.35 6.38 3.62-2.57.84-5.45 1.85-8.05.52-4.43-1.55-7.38-5.31-10.02-8.97.66 1.88 1.01 3.99 2.28 5.59 2.51 2.31 5.93 3.56 7.82 6.54-1.78-.12-3.86.33-5.28-1.03-2.62-2.25-4.87-5.1-6.04-8.36-.23-3.3.6-6.55 1.16-9.76l.95-2.15z"/><path fill="#5d5c58" d="M231.1 320.76c1.24-3.27 2.36-6.6 3.92-9.73-.56 3.21-1.39 6.46-1.16 9.76 1.17 3.26 3.42 6.11 6.04 8.36 1.42 1.36 3.5.91 5.28 1.03-1.89-2.98-5.31-4.23-7.82-6.54-1.27-1.6-1.62-3.71-2.28-5.59 2.64 3.66 5.59 7.42 10.02 8.97 2.6 1.33 5.48.32 8.05-.52l.69-.23c1.5 2.06 3.68 3.34 6.16 3.84 1.47-1.87 1.19-4.31-.85-5.61a47.95 47.95 0 0 1 3.19-.43l.24 1.37-.58 3.58 3.68.55.95-2.29c.39-.8.8-1.59 1.22-2.37.87 2.11.71 4.39.02 6.53l-3.52.57a40.96 40.96 0 0 0-1.17.18l.63-2.65c-2.81.7-4.89 2.76-6.87 4.74l-1.65-.22c-.68-1.26-1.3-2.55-1.91-3.84l-2.68 4.35c-5.27-1.53-10.67-3.25-14.94-6.84-1.45-2.4-2.96-4.75-4.66-6.97z"/><path fill="#494a4a" d="M253.97 313.23c4.48-.84 9.17-.28 13.39 1.4-2.65 2.24-4.6 5.16-6.4 8.09 1.64-.55 3.27-1.13 4.94-1.61.67 1.25 1.35 2.5 1.95 3.8-.42.78-.83 1.57-1.22 2.37l-1.56-2.08-2.49.24-.24-1.37a47.95 47.95 0 0 0-3.19.43c-1.79.54-3.54 1.16-5.31 1.77l-.69.23c-2.09-1.27-4.26-2.41-6.38-3.62.82-4.11 3.07-8.15 7.2-9.65m-3.49 8.77c1.37 1.59 3.43.91 5.24.86-1.58-2.46-.45-5.19.16-7.75-2.14 1.95-4.92 3.82-5.4 6.89z"/><path fill="#87878a" d="M270.02 318.11c1.45-1.53 3.01-2.94 4.6-4.32-2.45 7-4.14 14.26-4.83 21.66-1.95-.46-3.46-1.78-4.94-3.03l-.5-.41 3.52-.57c.69-2.14.85-4.42-.02-6.53-.6-1.3-1.28-2.55-1.95-3.8 1.02-.05 2.04-.02 3.06 0l1.06-3z"/><path fill="#292a28" d="M286.53 318.23c2.05-.19 3.75.58 4.62 2.5-3.6 2.93-6.9 6.32-11.08 8.45.25-1.42.35-2.87.83-4.23 1.62-2.45 3.94-4.32 5.63-6.72z"/><path fill="#75776e" d="M231.1 320.76c1.7 2.22 3.21 4.57 4.66 6.97.91 2.2.9 4.59.03 6.81-4.46-2.08-5.15-7.22-5.71-11.55l1.02-2.23z"/><path fill="#535654" d="M229.73 340.37c-.81-5.73-2.28-11.9.35-17.38.56 4.33 1.25 9.47 5.71 11.55 2.6 1.67 5.54 2.75 8.58 3.28-3.97.8-7.83 2.12-11.56 3.67-1.01-.42-2.05-.77-3.08-1.12z"/><path fill="#6b6d71" d="M253.84 326.27l5.31-1.77c2.04 1.3 2.32 3.74.85 5.61-2.48-.5-4.66-1.78-6.16-3.84z"/><path fill="#383735" d="M262.58 325.44l2.49-.24 1.56 2.08-.95 2.29-3.68-.55.58-3.58z"/><path fill="#84847c" d="M235.79 334.54c.87-2.22.88-4.61-.03-6.81 4.27 3.59 9.67 5.31 14.94 6.84l2.68-4.35c.61 1.29 1.23 2.58 1.91 3.84-.34.27-1.04.8-1.39 1.06-2.57 1-5.24 1.75-7.91 2.46l-1.62.24c-3.04-.53-5.98-1.61-8.58-3.28z"/><path fill="#888482" d="M256.94 334.28c1.98-1.98 4.06-4.04 6.87-4.74l-.63 2.65-2.47 3.41c-1.93 1.24-4.06 2.16-6.32 2.57l-.37-2.33c1.3.72 2.52-.38 2.92-1.56z"/><path opacity=".1" d="M275.1 333.09l4.62-3.25c-.98 1.93-2.12 3.77-3.32 5.57 5.66 2.24 11.75 2.9 17.59 4.5 3.75.99 7.6 1.61 11.48 1.9 3.84.3 7.69-.46 11.54-.02 3.44.29 6.72 1.81 10.22 1.51 1.73-.12 3.4.46 5.11.62 2.93-.35 5.66-1.83 8.65-1.78 2.51.41 4.63 1.99 7.06 2.71 2.01-.44 3.86-1.39 5.84-1.91 1.97 1.08 3.01 3.26 4.41 4.95l2.55-.75-2.57-3.31.57-1.58c1.43 1.04 2.7 2.66 4.62 2.67 1.65.15 3.27.49 4.81 1.11 1.92-.94 3.8-1.94 5.69-2.94.59 1.07 1.16 2.17 1.89 3.17 1.99.67 4.14.27 6.2.23l-2.88-3.85c.84-.16 1.69-.26 2.55-.32 2.71 1.28 5.26 2.91 8.02 4.1l-.83 1.15-3.82-1.01.59 5.18-4.99-.17-.74-2.34-1.19-.13-.39 4.47c-2.91.51-5.37 2.05-7.65 3.84-1.93.07-3.58-1.62-5.34-2.33l-.09 6.23-3.23-4.14-1.91 2.4c-1.56-.53-3.09-1.64-4.78-1.39-1.38 1.43-2.49 3.1-3.64 4.72-2.32-1.02-4.57-2.19-6.74-3.48l-4.93 2.31-4.28-2.13c-2.43.85-4.93 2.06-7.57 1.47-5.71-.93-11.42.36-16.96 1.64-5.87 1.36-11.9.42-17.85.78-6.78.38-13.57.92-20.36.62-1.46.15-2.5-.8-3.45-1.73 3.77-1.6 7.79-3.45 9.97-7.13 1.63-2.43 2.95-5.52 1.63-8.39-1.83-3.65-5.02-6.66-8.88-8.05-3.32-.75-6.88-.22-10.04-1.72.56-1.71 1.45-3.28 2.57-4.67 1.48 1.25 2.99 2.57 4.94 3.03 2.07 0 3.82-.99 5.31-2.36z"/><path fill="#303132" d="M260.71 335.6l2.47-3.41 1.17-.18.5.41c-1.12 1.39-2.01 2.96-2.57 4.67 3.16 1.5 6.72.97 10.04 1.72 3.86 1.39 7.05 4.4 8.88 8.05l-.86-.18a103.8 103.8 0 0 0-3.37-.6c-3.54-.61-7.14-.8-10.69-1.32-3.15-.99-6.23-2.19-9.35-3.29 1.25-1.96 2.46-3.95 3.78-5.87m-.64 2.4c.58 2.32 2.63 3.43 4.94 3.23-.76-2.16-2.78-3.12-4.94-3.23z"/><path fill="#a6a1a2" d="M255.29 334.06l1.65.22c-.4 1.18-1.62 2.28-2.92 1.56l-.12-.72 1.39-1.06z"/><path fill="#5e5d59" d="M245.99 337.58l7.91-2.46.12.72.37 2.33c-1.35 1.31-1.95 3.04-1.88 4.91-.46 1.27-.94 2.63-1.96 3.58-2.46 1.16-5.16 1.69-7.82 2.11-3.49.8-7-2.56-10.18.05l1.93 1.64c4.05 1.35 8.4.93 12.58.59l-1.92 1.95-6 1.1c1.25.99 2.49 2 3.71 3.03-2.1-.42-4.43-.49-6.16-1.92-2.12-1.65-3.98-3.6-5.95-5.42l-2.07.38c-1.2-3.3-.78-6.83 1.06-9.8 1.03.35 2.07.7 3.08 1.12 3.42 2.46 7.66 5.05 12.01 3.52 3.08-.83 3.32-4.41 3.88-7l-2.71-.43z"/><path fill="#6c6a69" d="M254.39 338.17c2.26-.41 4.39-1.33 6.32-2.57l-3.78 5.87-4.42 1.61c-.07-1.87.53-3.6 1.88-4.91z"/><path fill="#464847" d="M232.81 341.49c3.73-1.55 7.59-2.87 11.56-3.67l1.62-.24 2.71.43c-.56 2.59-.8 6.17-3.88 7-4.35 1.53-8.59-1.06-12.01-3.52z"/><path fill="#565453" d="M260.07 338c2.16.11 4.18 1.07 4.94 3.23-2.31.2-4.36-.91-4.94-3.23z"/><path fill="#50514f" d="M252.51 343.08l4.42-1.61 9.35 3.29c.62 1.97 1.36 3.93 1.64 5.99-1.03 1.49-2.58 2.5-3.9 3.71l-.52.23.21.16c1.64 1.36 3.47 2.47 5.42 3.33-2.89.54-5.62 1.77-7.32 4.27l-1.32-.2-2.44-1.46-2.65 1.29c-4.15-1-8.2-2.41-11.92-4.52 2.43-.77 4.97-.88 7.49-.74-1.03.75-2.02 1.56-2.99 2.4 4.33.21 8.47-3.21 8.88-7.54.44-3 1.64-6.19-.01-9.05-1.98 4.3-1.6 9.41-4.46 13.36-.97-1.11-1.89-2.28-3.01-3.24-1.4-.37-2.85.09-4.24.25l1.92-1.95c-4.18.34-8.53.76-12.58-.59l-1.93-1.64c3.18-2.61 6.69.75 10.18-.05 2.66-.42 5.36-.95 7.82-2.11 1.02-.95 1.5-2.31 1.96-3.58m9.53 5.48l-.09 2.26 2.47 1.26 1.44-3.73-3.82.21z"/><path fill="#716e68" d="M252.39 355.99c2.86-3.95 2.48-9.06 4.46-13.36 1.65 2.86.45 6.05.01 9.05-.41 4.33-4.55 7.75-8.88 7.54.97-.84 1.96-1.65 2.99-2.4l1.42-.83z"/><path fill="#6b6967" d="M266.28 344.76c3.55.52 7.15.71 10.69 1.32-.28 3.02-.04 6.42-2.04 8.94-1.32 1.92-3.68 2.55-5.8 3.16-1.95-.86-3.78-1.97-5.42-3.33l.31-.39c1.32-1.21 2.87-2.22 3.9-3.71-.28-2.06-1.02-4.02-1.64-5.99m3.89 2.4c-1.68 2.32-1.03 5.8 1.86 6.74.88-1 1.79-1.96 2.74-2.9l-2.17-3.66-2.43-.18z"/><path fill="#3d3f41" d="M276.97 346.08l3.37.6c-.66 2.8-1.25 5.69-.77 8.57-2.18 3.68-6.2 5.53-9.97 7.13-2.59.29-5.21.52-7.79.07 1.7-2.5 4.43-3.73 7.32-4.27 2.12-.61 4.48-1.24 5.8-3.16 2-2.52 1.76-5.92 2.04-8.94z"/><path fill="#828186" d="M270.17 347.16l2.43.18 2.17 3.66-2.74 2.9c-2.89-.94-3.54-4.42-1.86-6.74z"/><path fill="#4f4c4b" opacity=".78" d="M280.34 346.68l.86.18c1.32 2.87 0 5.96-1.63 8.39-.48-2.88.11-5.77.77-8.57z"/><path fill="#7f7e7e" d="M262.04 348.56l3.82-.21-1.44 3.73-2.47-1.26.09-2.26z"/><path fill="#323333" d="M228.67 350.17l2.07-.38 5.95 5.42c1.73 1.43 4.06 1.5 6.16 1.92l-3.71-3.03 6-1.1c1.39-.16 2.84-.62 4.24-.25 1.12.96 2.04 2.13 3.01 3.24l-1.42.83c-2.52-.14-5.06-.03-7.49.74l-5.48.38c-3.12-2.58-6.9-4.43-9.33-7.77z"/><path fill="#cdc9cb" d="M263.5 354.69l.52-.23-.31.39-.21-.16z"/><path fill="#64615e" opacity=".93" d="M255.4 362.08l2.65-1.29 2.44 1.46-2.41.61-2.68-.78z"/></svg>