<?xml version="1.0" encoding="UTF-8" ?>
<!DOCTYPE svg PUBLIC "-//W3C//DTD SVG 1.1//EN" "http://www.w3.org/Graphics/SVG/1.1/DTD/svg11.dtd">
<svg width="512pt" height="512pt" viewBox="0 0 512 512" version="1.1" xmlns="http://www.w3.org/2000/svg">
<g id="#4f4e4aff">
<path fill="#4f4e4a" opacity="1.00" d=" M 261.58 211.55 C 262.48 208.93 265.86 209.71 268.02 209.42 C 272.52 208.93 275.86 212.48 279.64 214.25 C 276.72 216.21 273.23 215.08 270.11 214.31 C 268.83 212.87 267.83 210.94 265.97 210.20 C 264.98 212.40 264.05 214.63 263.24 216.90 C 264.75 217.55 266.87 217.61 267.56 219.37 C 269.85 223.69 271.17 228.43 272.78 233.03 C 271.53 231.97 270.29 230.91 269.02 229.89 C 263.02 224.89 255.14 222.15 247.33 222.45 C 243.43 222.54 241.07 225.96 238.93 228.73 C 246.28 228.33 253.97 228.95 260.51 232.61 C 263.31 234.21 264.51 237.38 266.18 239.98 C 263.24 237.75 260.50 234.93 256.86 233.90 C 247.23 232.41 236.33 237.73 233.05 247.23 C 232.36 250.08 230.02 250.92 227.33 250.89 C 227.33 246.32 227.57 241.31 230.62 237.62 C 233.02 234.74 235.71 232.11 238.00 229.14 C 236.36 229.28 234.73 229.43 233.10 229.60 C 234.68 227.38 236.05 225.02 237.10 222.51 C 233.28 224.81 230.49 228.35 227.94 231.93 C 225.06 235.92 224.95 241.05 224.55 245.76 C 224.10 250.09 225.73 254.19 226.99 258.24 C 224.21 255.37 222.21 251.89 220.72 248.21 C 221.19 244.22 221.61 240.21 221.38 236.19 C 220.78 230.13 225.28 225.06 224.88 218.98 C 226.11 220.09 227.15 221.88 229.05 221.75 C 235.64 222.05 241.88 219.58 248.27 218.42 C 252.31 217.73 256.20 216.45 260.07 215.12 C 260.55 213.92 261.01 212.71 261.58 211.55 Z" />
</g>
<g id="#616260ff">
<path fill="#616260" opacity="1.00" d=" M 263.24 216.90 C 264.05 214.63 264.98 212.40 265.97 210.20 C 267.83 210.94 268.83 212.87 270.11 214.31 C 273.23 215.08 276.72 216.21 279.64 214.25 C 281.68 214.76 283.98 214.90 285.60 216.39 C 288.81 219.25 290.65 223.26 293.56 226.39 C 291.74 229.69 292.77 233.46 293.06 236.99 C 293.62 243.56 293.09 250.36 290.57 256.51 L 290.26 257.24 C 289.93 256.70 289.28 255.61 288.95 255.06 C 289.81 247.90 292.61 240.82 291.37 233.53 C 290.47 227.41 289.02 220.63 283.74 216.74 C 284.17 223.91 286.43 230.82 287.52 237.89 C 287.19 243.45 286.30 248.97 286.38 254.56 C 287.15 255.01 287.92 255.47 288.70 255.93 C 286.98 259.24 286.16 262.91 287.73 266.46 C 286.50 266.47 285.27 266.47 284.05 266.51 C 284.07 266.83 284.10 267.46 284.11 267.78 C 284.76 270.79 286.01 273.88 284.96 276.96 C 283.63 281.39 283.68 286.04 284.51 290.55 C 281.24 288.52 277.44 287.79 273.65 287.52 C 274.42 285.38 275.24 283.26 275.87 281.08 C 277.86 281.36 279.84 281.66 281.83 281.92 C 280.89 281.32 279.94 280.72 278.99 280.12 C 282.78 277.17 283.96 272.08 282.25 267.65 C 279.53 263.06 273.78 262.27 268.96 261.71 C 266.97 260.29 265.63 258.21 264.36 256.16 C 263.72 257.78 263.11 259.41 262.46 261.03 C 259.38 260.50 255.57 260.08 254.28 256.70 C 252.19 251.99 248.00 247.92 248.33 242.44 C 244.51 242.34 240.51 242.68 237.26 244.91 C 236.93 245.09 236.28 245.46 235.95 245.65 C 234.98 246.18 234.02 246.71 233.05 247.23 C 236.33 237.73 247.23 232.41 256.86 233.90 C 260.50 234.93 263.24 237.75 266.18 239.98 C 266.86 240.59 267.55 241.20 268.24 241.82 C 269.23 240.87 270.21 239.92 271.20 238.97 C 269.60 237.48 268.00 236.00 266.40 234.54 C 267.27 232.99 268.14 231.44 269.02 229.89 C 270.29 230.91 271.53 231.97 272.78 233.03 C 271.17 228.43 269.85 223.69 267.56 219.37 C 266.87 217.61 264.75 217.55 263.24 216.90 M 267.96 215.84 C 269.77 219.66 272.92 222.90 273.60 227.19 C 274.59 233.20 274.66 239.33 275.70 245.34 C 276.22 245.43 277.28 245.62 277.81 245.72 C 278.81 241.14 278.50 236.43 278.63 231.78 C 278.96 228.35 276.60 225.59 275.10 222.74 C 273.34 219.92 271.76 216.16 267.96 215.84 M 250.79 240.34 C 251.84 242.18 252.93 244.00 254.09 245.79 C 252.65 245.61 251.22 245.44 249.79 245.30 C 254.44 248.99 260.29 250.86 266.08 251.86 C 265.51 249.03 263.70 246.75 262.00 244.51 C 263.38 244.15 264.76 243.78 266.13 243.41 C 264.28 241.31 261.28 241.53 258.75 241.00 C 258.64 241.55 258.43 242.65 258.33 243.20 C 255.81 242.25 253.31 241.27 250.79 240.34 M 277.43 250.16 C 278.65 252.69 279.77 255.25 280.85 257.84 C 279.18 257.23 277.52 256.63 275.84 256.07 C 276.88 260.65 281.25 262.51 285.31 263.71 C 284.69 261.79 284.04 259.89 283.38 257.99 C 284.01 256.64 284.64 255.29 285.31 253.96 C 284.21 251.41 282.37 249.36 280.03 247.88 C 279.17 248.65 278.31 249.42 277.43 250.16 Z" />
</g>
<g id="#97948bff">
<path fill="#97948b" opacity="1.00" d=" M 267.96 215.84 C 271.76 216.16 273.34 219.92 275.10 222.74 C 276.60 225.59 278.96 228.35 278.63 231.78 C 278.50 236.43 278.81 241.14 277.81 245.72 C 277.28 245.62 276.22 245.43 275.70 245.34 C 274.66 239.33 274.59 233.20 273.60 227.19 C 272.92 222.90 269.77 219.66 267.96 215.84 Z" />
</g>
<g id="#908e85ff">
<path fill="#908e85" opacity="1.00" d=" M 283.74 216.74 C 289.02 220.63 290.47 227.41 291.37 233.53 C 292.61 240.82 289.81 247.90 288.95 255.06 L 288.70 255.93 C 287.92 255.47 287.15 255.01 286.38 254.56 C 286.30 248.97 287.19 243.45 287.52 237.89 C 286.43 230.82 284.17 223.91 283.74 216.74 Z" />
</g>
<g id="#5d5f5bff">
<path fill="#5d5f5b" opacity="1.00" d=" M 214.21 224.15 C 216.68 220.81 220.93 219.49 224.88 218.98 C 225.28 225.06 220.78 230.13 221.38 236.19 C 221.61 240.21 221.19 244.22 220.72 248.21 C 219.74 245.98 218.44 243.70 218.74 241.17 C 219.20 236.09 218.78 230.97 219.60 225.93 C 214.50 228.94 213.37 235.39 213.29 240.84 C 214.35 249.41 221.32 255.36 225.51 262.41 C 226.67 267.98 228.20 273.62 228.09 279.36 C 227.29 278.48 226.50 277.59 225.73 276.71 C 225.49 275.62 225.26 274.55 225.01 273.48 C 224.58 273.51 223.70 273.57 223.26 273.60 C 218.05 270.04 212.68 266.70 207.77 262.70 C 205.48 266.38 204.89 270.70 204.82 274.96 C 202.61 272.92 199.96 271.25 198.32 268.68 C 197.20 265.55 199.15 262.39 199.39 259.25 C 197.92 256.15 194.08 255.58 191.23 254.33 C 190.62 255.55 189.93 256.72 189.16 257.84 C 188.95 256.04 188.74 254.24 188.47 252.46 C 187.85 252.31 186.60 252.03 185.98 251.89 C 186.86 249.00 188.42 246.26 191.17 244.82 C 193.12 243.95 193.59 241.87 194.02 239.99 C 194.99 239.99 195.97 240.00 196.96 240.02 C 195.92 241.83 194.87 243.63 193.86 245.45 C 194.77 245.23 195.69 245.01 196.60 244.80 C 197.73 246.29 198.87 247.78 200.02 249.27 C 200.61 247.85 201.21 246.43 201.82 245.01 C 203.38 250.33 205.22 255.80 209.01 259.98 C 213.22 264.58 218.10 268.74 223.95 271.08 C 220.02 264.55 213.99 259.74 209.02 254.08 C 210.10 247.65 207.56 240.93 203.50 236.00 C 207.76 232.73 210.99 228.39 214.21 224.15 Z" />
</g>
<g id="#747575ff">
<path fill="#747575" opacity="1.00" d=" M 247.33 222.45 C 255.14 222.15 263.02 224.89 269.02 229.89 C 268.14 231.44 267.27 232.99 266.40 234.54 C 268.00 236.00 269.60 237.48 271.20 238.97 C 270.21 239.92 269.23 240.87 268.24 241.82 C 267.55 241.20 266.86 240.59 266.18 239.98 C 264.51 237.38 263.31 234.21 260.51 232.61 C 253.97 228.95 246.28 228.33 238.93 228.73 C 241.07 225.96 243.43 222.54 247.33 222.45 Z" />
</g>
<g id="#7b7974ff">
<path fill="#7b7974" opacity="1.00" d=" M 227.94 231.93 C 230.49 228.35 233.28 224.81 237.10 222.51 C 236.05 225.02 234.68 227.38 233.10 229.60 C 234.73 229.43 236.36 229.28 238.00 229.14 C 235.71 232.11 233.02 234.74 230.62 237.62 C 227.57 241.31 227.33 246.32 227.33 250.89 C 230.02 250.92 232.36 250.08 233.05 247.23 C 234.02 246.71 234.98 246.18 235.95 245.65 C 235.76 253.30 230.37 259.58 230.27 267.28 C 228.93 273.62 233.73 279.19 238.96 282.01 C 242.48 283.83 245.95 285.92 249.80 286.96 C 253.55 287.37 257.33 286.65 261.09 286.58 C 256.40 284.57 251.62 282.77 246.96 280.69 C 247.84 279.29 248.76 277.92 249.64 276.52 C 252.40 278.13 255.21 279.66 258.08 281.07 C 262.31 282.92 266.84 283.89 271.33 284.90 C 270.14 285.15 268.95 285.40 267.77 285.65 C 267.82 286.85 267.86 288.04 267.89 289.25 C 266.01 289.92 264.15 290.90 262.12 290.96 C 260.16 290.30 258.42 289.15 256.64 288.13 C 255.72 289.10 254.75 290.02 253.74 290.90 C 255.54 291.84 257.34 292.79 259.10 293.81 C 258.40 293.95 256.99 294.21 256.28 294.34 C 250.98 293.43 246.12 291.02 241.28 288.76 C 236.31 286.54 231.47 283.74 228.09 279.36 C 228.20 273.62 226.67 267.98 225.51 262.41 C 221.32 255.36 214.35 249.41 213.29 240.84 C 213.37 235.39 214.50 228.94 219.60 225.93 C 218.78 230.97 219.20 236.09 218.74 241.17 C 218.44 243.70 219.74 245.98 220.72 248.21 C 222.21 251.89 224.21 255.37 226.99 258.24 C 225.73 254.19 224.10 250.09 224.55 245.76 C 224.95 241.05 225.06 235.92 227.94 231.93 Z" />
</g>
<g id="#82847aff">
<path fill="#82847a" opacity="1.00" d=" M 293.06 236.99 C 292.77 233.46 291.74 229.69 293.56 226.39 C 295.01 227.39 296.48 228.35 297.96 229.31 C 300.95 231.29 303.92 233.31 306.90 235.31 C 307.38 238.61 305.51 241.56 304.65 244.62 C 303.18 249.01 303.40 253.70 303.56 258.26 C 299.13 258.96 294.75 259.96 290.30 260.47 C 290.13 260.05 289.78 259.22 289.60 258.80 C 289.77 258.41 290.09 257.63 290.26 257.24 L 290.57 256.51 C 293.44 256.61 296.41 257.00 299.21 256.16 C 301.15 255.26 302.04 253.07 301.81 251.02 C 301.67 247.13 301.61 243.23 301.07 239.37 C 300.59 236.40 297.52 235.16 295.30 233.67 C 294.55 234.77 293.80 235.88 293.06 236.99 Z" />
</g>
<g id="#5e5e5bff">
<path fill="#5e5e5b" opacity="1.00" d=" M 161.19 228.59 C 163.85 227.21 166.74 227.93 169.43 228.77 C 169.69 229.23 170.21 230.14 170.47 230.60 C 167.65 234.98 164.43 240.27 166.39 245.63 C 167.76 248.48 171.06 248.73 173.81 248.88 C 173.87 248.10 174.00 246.56 174.06 245.79 C 174.31 248.75 175.17 251.64 176.61 254.25 C 174.44 253.90 172.26 253.71 170.08 253.51 C 170.04 254.08 169.96 255.23 169.92 255.81 C 168.18 256.75 166.51 258.16 164.50 258.43 C 161.63 257.31 158.81 256.12 155.86 255.22 C 152.97 254.56 152.41 251.26 151.37 248.96 C 152.03 247.22 152.69 245.49 153.25 243.73 C 153.48 246.79 153.33 250.36 155.93 252.54 C 160.05 254.67 164.71 255.30 169.30 254.80 C 166.75 252.14 163.57 249.57 163.10 245.66 C 161.76 241.05 162.83 236.32 163.71 231.75 C 162.58 232.87 160.74 233.54 160.59 235.34 C 159.80 239.42 160.41 243.60 160.74 247.71 C 160.30 247.66 159.42 247.57 158.98 247.52 C 158.20 244.02 157.02 240.41 157.61 236.80 C 158.69 234.01 160.69 231.60 161.19 228.59 Z" />
</g>
<g id="#4b4e4dff">
<path fill="#4b4e4d" opacity="1.00" d=" M 169.43 228.77 C 175.66 229.44 182.16 226.86 188.15 229.69 C 182.55 229.90 177.03 232.61 174.65 237.90 L 174.60 238.80 C 174.43 241.13 174.21 243.46 174.06 245.79 C 174.00 246.56 173.87 248.10 173.81 248.88 C 171.06 248.73 167.76 248.48 166.39 245.63 C 164.43 240.27 167.65 234.98 170.47 230.60 C 170.21 230.14 169.69 229.23 169.43 228.77 Z" />
</g>
<g id="#656666ff">
<path fill="#656666" opacity="1.00" d=" M 313.51 228.13 C 315.50 228.55 317.49 228.99 319.47 229.50 C 319.67 231.65 320.87 234.17 319.29 236.08 C 316.59 239.49 317.05 243.97 316.56 248.04 C 316.30 251.40 315.13 254.59 313.96 257.72 C 312.74 257.60 311.53 257.49 310.33 257.38 C 311.37 251.45 312.43 245.53 313.70 239.65 C 314.33 236.89 311.66 234.92 310.32 232.85 C 310.27 234.92 310.25 236.99 310.29 239.06 C 309.90 236.16 308.85 233.33 306.24 231.76 C 306.46 232.94 306.68 234.12 306.90 235.31 C 303.92 233.31 300.95 231.29 297.96 229.31 C 302.81 229.40 307.84 229.13 312.14 231.77 C 312.59 230.55 313.04 229.34 313.51 228.13 Z" />
</g>
<g id="#393a39ff">
<path fill="#393a39" opacity="1.00" d=" M 153.37 242.95 C 153.79 237.31 156.59 231.93 161.19 228.59 C 160.69 231.60 158.69 234.01 157.61 236.80 C 157.02 240.41 158.20 244.02 158.98 247.52 C 157.99 249.21 156.97 250.88 155.93 252.54 C 153.33 250.36 153.48 246.79 153.25 243.73 L 153.37 242.95 Z" />
</g>
<g id="#73736cff">
<path fill="#73736c" opacity="1.00" d=" M 174.65 237.90 C 177.03 232.61 182.55 229.90 188.15 229.69 C 193.30 231.71 198.34 234.00 203.50 236.00 C 207.56 240.93 210.10 247.65 209.02 254.08 C 206.30 250.07 206.92 244.68 203.65 240.92 C 203.02 242.27 202.41 243.64 201.82 245.01 C 201.21 246.43 200.61 247.85 200.02 249.27 C 198.87 247.78 197.73 246.29 196.60 244.80 C 195.69 245.01 194.77 245.23 193.86 245.45 C 194.87 243.63 195.92 241.83 196.96 240.02 C 195.97 240.00 194.99 239.99 194.02 239.99 C 193.59 241.87 193.12 243.95 191.17 244.82 C 188.42 246.26 186.86 249.00 185.98 251.89 C 186.12 255.25 186.54 258.60 186.88 261.96 C 185.27 261.35 183.67 260.75 182.07 260.14 C 181.42 257.69 181.20 254.04 177.73 254.57 C 177.45 254.49 176.89 254.33 176.61 254.25 C 175.17 251.64 174.31 248.75 174.06 245.79 C 174.21 243.46 174.43 241.13 174.60 238.80 C 174.81 241.63 175.21 245.41 178.78 245.55 C 178.46 247.06 178.22 248.58 177.96 250.10 C 179.85 251.68 181.84 253.15 183.91 254.50 C 184.04 251.10 184.00 247.69 183.88 244.30 C 182.92 244.70 181.97 245.11 181.03 245.52 C 181.13 243.27 181.20 241.02 181.42 238.77 C 182.14 237.25 183.06 235.83 183.97 234.42 C 181.08 236.10 177.93 237.26 174.65 237.90 Z" />
</g>
<g id="#4f504dff">
<path fill="#4f504d" opacity="1.00" d=" M 319.47 229.50 C 323.52 230.63 326.84 233.29 329.50 236.45 C 331.48 239.14 335.05 239.14 337.99 240.01 C 337.32 239.93 335.98 239.79 335.31 239.71 C 335.88 240.63 336.46 241.54 337.04 242.46 C 334.06 243.02 331.07 243.54 328.08 244.02 C 326.76 242.67 325.52 241.27 324.20 239.93 C 322.06 241.87 319.53 243.65 318.39 246.41 C 317.12 249.82 317.77 253.57 316.86 257.06 C 314.71 258.89 311.92 259.68 309.35 260.74 C 309.26 261.76 309.18 262.79 309.11 263.82 C 311.29 264.10 313.39 264.74 315.57 265.05 C 313.81 266.79 311.92 268.42 309.95 269.93 C 313.73 270.84 317.60 270.35 321.35 269.54 C 320.56 271.03 319.78 272.51 319.01 274.00 C 315.27 275.54 311.51 277.02 307.75 278.51 C 306.77 278.08 305.78 277.67 304.79 277.28 C 305.63 277.22 307.32 277.09 308.17 277.03 C 306.41 275.87 304.64 274.75 302.87 273.63 C 303.62 271.93 304.40 270.26 305.25 268.62 C 306.48 267.35 307.57 265.96 308.44 264.43 C 305.88 265.03 301.60 264.45 301.13 267.90 C 300.37 271.25 300.34 275.33 303.89 277.10 C 303.25 276.97 301.96 276.72 301.31 276.60 C 299.77 278.79 298.16 280.93 296.45 282.99 C 297.34 283.77 298.24 284.55 299.14 285.34 C 298.08 287.12 297.03 288.91 296.07 290.74 C 295.53 286.36 293.89 281.84 296.25 277.66 C 296.28 277.57 296.34 277.37 296.36 277.28 C 296.53 276.55 296.85 275.10 297.02 274.38 C 294.97 273.99 292.93 273.62 290.88 273.27 C 290.64 271.99 290.40 270.72 290.17 269.44 C 288.14 268.90 286.13 268.33 284.11 267.78 C 284.10 267.46 284.07 266.83 284.05 266.51 C 285.27 266.47 286.50 266.47 287.73 266.46 C 286.16 262.91 286.98 259.24 288.70 255.93 L 288.95 255.06 C 289.28 255.61 289.93 256.70 290.26 257.24 C 290.09 257.63 289.77 258.41 289.60 258.80 C 287.99 260.83 288.78 264.79 291.83 264.48 C 295.82 263.34 299.50 261.23 303.63 260.49 C 303.61 259.93 303.58 258.82 303.56 258.26 C 303.40 253.70 303.18 249.01 304.65 244.62 C 305.51 241.56 307.38 238.61 306.90 235.31 C 306.68 234.12 306.46 232.94 306.24 231.76 C 308.85 233.33 309.90 236.16 310.29 239.06 C 310.69 245.75 309.04 252.31 307.57 258.78 C 308.49 258.31 309.41 257.84 310.33 257.38 C 311.53 257.49 312.74 257.60 313.96 257.72 C 315.13 254.59 316.30 251.40 316.56 248.04 C 317.05 243.97 316.59 239.49 319.29 236.08 C 320.87 234.17 319.67 231.65 319.47 229.50 Z" />
</g>
<g id="#4b4a49ff">
<path fill="#4b4a49" opacity="1.00" d=" M 160.59 235.34 C 160.74 233.54 162.58 232.87 163.71 231.75 C 162.83 236.32 161.76 241.05 163.10 245.66 C 163.57 249.57 166.75 252.14 169.30 254.80 C 164.71 255.30 160.05 254.67 155.93 252.54 C 156.97 250.88 157.99 249.21 158.98 247.52 C 159.42 247.57 160.30 247.66 160.74 247.71 C 160.41 243.60 159.80 239.42 160.59 235.34 Z" />
</g>
<g id="#999ba0ff">
<path fill="#999ba0" opacity="1.00" d=" M 310.32 232.85 C 311.66 234.92 314.33 236.89 313.70 239.65 C 312.43 245.53 311.37 251.45 310.33 257.38 C 309.41 257.84 308.49 258.31 307.57 258.78 C 309.04 252.31 310.69 245.75 310.29 239.06 C 310.25 236.99 310.27 234.92 310.32 232.85 Z" />
</g>
<g id="#898980ff">
<path fill="#898980" opacity="1.00" d=" M 174.65 237.90 C 177.93 237.26 181.08 236.10 183.97 234.42 C 183.06 235.83 182.14 237.25 181.42 238.77 C 180.36 240.96 179.44 243.21 178.78 245.55 C 175.21 245.41 174.81 241.63 174.60 238.80 L 174.65 237.90 Z" />
</g>
<g id="#92938aff">
<path fill="#92938a" opacity="1.00" d=" M 293.06 236.99 C 293.80 235.88 294.55 234.77 295.30 233.67 C 297.52 235.16 300.59 236.40 301.07 239.37 C 301.61 243.23 301.67 247.13 301.81 251.02 C 302.04 253.07 301.15 255.26 299.21 256.16 C 296.41 257.00 293.44 256.61 290.57 256.51 C 293.09 250.36 293.62 243.56 293.06 236.99 Z" />
</g>
<g id="#5e5c58ff">
<path fill="#5e5c58" opacity="1.00" d=" M 181.42 238.77 C 181.20 241.02 181.13 243.27 181.03 245.52 C 181.97 245.11 182.92 244.70 183.88 244.30 C 184.00 247.69 184.04 251.10 183.91 254.50 C 181.84 253.15 179.85 251.68 177.96 250.10 C 178.22 248.58 178.46 247.06 178.78 245.55 C 179.44 243.21 180.36 240.96 181.42 238.77 Z" />
</g>
<g id="#807e7bff">
<path fill="#807e7b" opacity="1.00" d=" M 250.79 240.34 C 253.31 241.27 255.81 242.25 258.33 243.20 C 258.43 242.65 258.64 241.55 258.75 241.00 C 261.28 241.53 264.28 241.31 266.13 243.41 C 264.76 243.78 263.38 244.15 262.00 244.51 C 263.70 246.75 265.51 249.03 266.08 251.86 C 260.29 250.86 254.44 248.99 249.79 245.30 C 251.22 245.44 252.65 245.61 254.09 245.79 C 252.93 244.00 251.84 242.18 250.79 240.34 Z" />
</g>
<g id="#3f3d3bff">
<path fill="#3f3d3b" opacity="1.00" d=" M 318.39 246.41 C 319.53 243.65 322.06 241.87 324.20 239.93 C 325.52 241.27 326.76 242.67 328.08 244.02 L 328.64 244.58 C 328.84 247.22 329.17 249.94 328.51 252.55 C 327.46 255.02 325.58 256.99 323.95 259.09 C 325.12 260.05 326.30 261.01 327.47 261.98 C 326.59 263.83 325.90 265.76 325.30 267.72 C 324.90 267.92 324.11 268.33 323.71 268.54 C 323.06 269.98 322.40 271.43 321.75 272.88 C 320.83 273.25 319.92 273.63 319.01 274.00 C 319.78 272.51 320.56 271.03 321.35 269.54 C 317.60 270.35 313.73 270.84 309.95 269.93 C 311.92 268.42 313.81 266.79 315.57 265.05 C 313.39 264.74 311.29 264.10 309.11 263.82 C 309.18 262.79 309.26 261.76 309.35 260.74 C 311.92 259.68 314.71 258.89 316.86 257.06 C 317.77 253.57 317.12 249.82 318.39 246.41 Z" />
</g>
<g id="#5d5c59ff">
<path fill="#5d5c59" opacity="1.00" d=" M 335.31 239.71 C 335.98 239.79 337.32 239.93 337.99 240.01 C 340.02 240.34 342.07 240.62 344.12 240.83 C 342.90 241.70 341.68 242.56 340.50 243.47 C 340.33 244.92 340.34 246.38 340.31 247.84 C 341.96 247.38 343.62 246.96 345.27 246.48 C 346.03 247.81 346.71 249.19 347.44 250.56 C 347.96 247.67 347.43 244.82 346.35 242.13 C 348.66 242.26 350.98 242.22 353.30 242.11 C 356.51 242.39 359.59 243.67 362.16 245.60 C 361.33 245.75 359.67 246.07 358.84 246.22 C 362.36 250.35 367.97 254.10 366.91 260.31 C 365.16 257.28 363.28 254.33 361.58 251.28 C 359.88 251.12 358.18 250.96 356.48 250.80 C 356.47 251.92 356.47 253.03 356.46 254.16 C 354.68 254.50 352.90 254.84 351.13 255.18 C 349.03 252.93 346.54 250.15 343.11 250.76 C 340.64 251.48 339.12 253.87 337.86 255.95 C 336.27 258.88 335.04 261.99 334.12 265.19 C 332.83 258.86 332.13 252.41 332.38 245.94 C 331.13 245.50 329.88 245.06 328.64 244.58 L 328.08 244.02 C 331.07 243.54 334.06 243.02 337.04 242.46 C 336.46 241.54 335.88 240.63 335.31 239.71 Z" />
</g>
<g id="#8d8a82ff">
<path fill="#8d8a82" opacity="1.00" d=" M 203.65 240.92 C 206.92 244.68 206.30 250.07 209.02 254.08 C 213.99 259.74 220.02 264.55 223.95 271.08 C 218.10 268.74 213.22 264.58 209.01 259.98 C 205.22 255.80 203.38 250.33 201.82 245.01 C 202.41 243.64 203.02 242.27 203.65 240.92 Z" />
</g>
<g id="#41413ff5">
<path fill="#41413f" opacity="0.96" d=" M 344.12 240.83 C 347.20 241.11 350.25 241.59 353.30 242.11 C 350.98 242.22 348.66 242.26 346.35 242.13 C 347.43 244.82 347.96 247.67 347.44 250.56 C 346.71 249.19 346.03 247.81 345.27 246.48 C 343.74 245.37 342.15 244.37 340.50 243.47 C 341.68 242.56 342.90 241.70 344.12 240.83 Z" />
</g>
<g id="#737574ff">
<path fill="#737574" opacity="1.00" d=" M 237.26 244.91 C 240.51 242.68 244.51 242.34 248.33 242.44 C 248.00 247.92 252.19 251.99 254.28 256.70 C 255.57 260.08 259.38 260.50 262.46 261.03 C 263.11 259.41 263.72 257.78 264.36 256.16 C 265.63 258.21 266.97 260.29 268.96 261.71 C 266.87 261.84 264.89 262.58 263.55 264.23 C 262.56 265.54 261.62 266.90 260.69 268.25 C 258.48 267.65 256.13 267.21 254.40 265.59 C 250.38 262.16 246.17 258.97 242.00 255.73 C 240.52 254.01 238.79 252.24 238.37 249.94 C 238.56 248.27 239.11 246.67 239.57 245.06 C 238.99 245.02 237.84 244.95 237.26 244.91 M 241.98 248.10 C 243.29 249.41 244.62 250.72 245.93 252.03 C 246.99 251.30 248.05 250.57 249.12 249.84 C 247.95 248.67 246.97 247.33 245.84 246.13 C 244.55 246.78 243.26 247.43 241.98 248.10 Z" />
</g>
<g id="#838381ff">
<path fill="#838381" opacity="1.00" d=" M 340.31 247.84 C 340.34 246.38 340.33 244.92 340.50 243.47 C 342.15 244.37 343.74 245.37 345.27 246.48 C 343.62 246.96 341.96 247.38 340.31 247.84 Z" />
</g>
<g id="#908f87ff">
<path fill="#908f87" opacity="1.00" d=" M 235.95 245.65 C 236.28 245.46 236.93 245.09 237.26 244.91 C 237.84 244.95 238.99 245.02 239.57 245.06 C 239.11 246.67 238.56 248.27 238.37 249.94 C 238.79 252.24 240.52 254.01 242.00 255.73 C 241.28 255.92 239.84 256.30 239.12 256.49 C 242.68 260.15 242.59 265.59 245.53 269.59 C 247.09 271.83 246.90 275.18 249.64 276.52 C 248.76 277.92 247.84 279.29 246.96 280.69 C 251.62 282.77 256.40 284.57 261.09 286.58 C 257.33 286.65 253.55 287.37 249.80 286.96 C 245.95 285.92 242.48 283.83 238.96 282.01 C 233.73 279.19 228.93 273.62 230.27 267.28 C 230.37 259.58 235.76 253.30 235.95 245.65 Z" />
</g>
<g id="#4d4a46ff">
<path fill="#4d4a46" opacity="1.00" d=" M 328.64 244.58 C 329.88 245.06 331.13 245.50 332.38 245.94 C 332.13 252.41 332.83 258.86 334.12 265.19 C 334.33 266.89 334.56 268.59 334.80 270.29 C 331.52 269.91 328.37 268.88 325.30 267.72 C 325.90 265.76 326.59 263.83 327.47 261.98 C 326.30 261.01 325.12 260.05 323.95 259.09 C 325.58 256.99 327.46 255.02 328.51 252.55 C 329.17 249.94 328.84 247.22 328.64 244.58 Z" />
</g>
<g id="#b1b4b0ff">
<path fill="#b1b4b0" opacity="1.00" d=" M 241.98 248.10 C 243.26 247.43 244.55 246.78 245.84 246.13 C 246.97 247.33 247.95 248.67 249.12 249.84 C 248.05 250.57 246.99 251.30 245.93 252.03 C 244.62 250.72 243.29 249.41 241.98 248.10 Z" />
</g>
<g id="#424346ff">
<path fill="#424346" opacity="1.00" d=" M 358.84 246.22 C 359.67 246.07 361.33 245.75 362.16 245.60 C 366.38 248.63 370.06 252.88 371.21 258.07 C 372.17 262.26 369.07 265.79 368.35 269.76 C 367.10 268.89 365.93 267.91 364.76 266.94 C 364.64 266.04 364.53 265.15 364.44 264.25 C 365.42 263.06 367.01 262.04 366.91 260.31 C 367.97 254.10 362.36 250.35 358.84 246.22 Z" />
</g>
<g id="#767472ff">
<path fill="#767472" opacity="1.00" d=" M 277.43 250.16 C 278.31 249.42 279.17 248.65 280.03 247.88 C 282.37 249.36 284.21 251.41 285.31 253.96 C 284.64 255.29 284.01 256.64 283.38 257.99 C 284.04 259.89 284.69 261.79 285.31 263.71 C 281.25 262.51 276.88 260.65 275.84 256.07 C 277.52 256.63 279.18 257.23 280.85 257.84 C 279.77 255.25 278.65 252.69 277.43 250.16 Z" />
</g>
<g id="#4f504fff">
<path fill="#4f504f" opacity="1.00" d=" M 148.22 256.14 C 149.72 253.96 150.43 251.39 151.37 248.96 C 152.41 251.26 152.97 254.56 155.86 255.22 C 158.81 256.12 161.63 257.31 164.50 258.43 C 166.51 258.16 168.18 256.75 169.92 255.81 C 171.83 256.79 173.69 257.96 175.03 259.69 C 173.29 258.95 171.52 258.33 169.75 257.68 C 168.56 260.84 167.28 263.98 166.44 267.26 C 166.03 266.80 165.20 265.89 164.79 265.43 C 163.43 266.22 162.09 267.04 160.74 267.84 C 160.23 267.52 159.20 266.86 158.69 266.54 C 158.67 266.46 158.63 266.30 158.61 266.23 C 160.35 265.03 162.30 264.18 164.21 263.28 C 162.72 262.37 161.14 261.36 159.32 262.07 C 157.44 262.87 154.59 262.38 153.79 264.73 C 152.64 267.88 154.57 271.02 156.14 273.65 L 156.92 274.04 C 159.38 275.62 162.31 275.86 165.14 276.08 C 164.84 277.84 164.47 279.59 164.11 281.35 C 160.98 281.29 157.60 280.98 155.10 278.89 C 150.89 275.43 149.11 269.93 148.31 264.72 C 148.26 261.86 148.22 258.99 148.22 256.14 Z" />
</g>
<g id="#eab897ff">
<path fill="#eab897" opacity="1.00" d=" M 337.86 255.95 C 339.12 253.87 340.64 251.48 343.11 250.76 C 346.54 250.15 349.03 252.93 351.13 255.18 C 355.27 259.54 360.32 262.89 364.76 266.94 C 365.93 267.91 367.10 268.89 368.35 269.76 C 368.74 270.00 369.51 270.48 369.90 270.72 C 372.66 272.46 375.41 274.25 378.36 275.68 C 378.08 276.34 377.52 277.67 377.24 278.34 C 370.59 278.34 363.94 278.43 357.30 278.13 C 351.49 273.38 344.12 270.61 339.34 264.59 C 337.06 262.30 337.73 258.84 337.86 255.95 Z" />
</g>
<g id="#7a7676ff">
<path fill="#7a7676" opacity="1.00" d=" M 356.48 250.80 C 358.18 250.96 359.88 251.12 361.58 251.28 C 363.28 254.33 365.16 257.28 366.91 260.31 C 367.01 262.04 365.42 263.06 364.44 264.25 C 364.53 265.15 364.64 266.04 364.76 266.94 C 360.32 262.89 355.27 259.54 351.13 255.18 C 352.90 254.84 354.68 254.50 356.46 254.16 C 356.47 253.03 356.47 251.92 356.48 250.80 Z" />
</g>
<g id="#444647ff">
<path fill="#444647" opacity="1.00" d=" M 185.98 251.89 C 186.60 252.03 187.85 252.31 188.47 252.46 C 188.74 254.24 188.95 256.04 189.16 257.84 C 189.93 256.72 190.62 255.55 191.23 254.33 C 194.08 255.58 197.92 256.15 199.39 259.25 C 199.15 262.39 197.20 265.55 198.32 268.68 C 199.96 271.25 202.61 272.92 204.82 274.96 C 207.85 277.64 210.57 280.66 213.16 283.77 C 211.03 282.99 208.91 282.16 206.88 281.16 C 203.94 277.83 201.39 273.84 197.11 272.09 C 192.11 269.84 187.14 267.45 181.84 265.98 C 181.83 261.79 179.44 258.23 177.73 254.57 C 181.20 254.04 181.42 257.69 182.07 260.14 C 183.67 260.75 185.27 261.35 186.88 261.96 C 186.54 258.60 186.12 255.25 185.98 251.89 Z" />
</g>
<g id="#7e7f7fff">
<path fill="#7e7f7f" opacity="1.00" d=" M 170.08 253.51 C 172.26 253.71 174.44 253.90 176.61 254.25 C 176.89 254.33 177.45 254.49 177.73 254.57 C 179.44 258.23 181.83 261.79 181.84 265.98 C 187.14 267.45 192.11 269.84 197.11 272.09 C 197.38 273.31 197.65 274.54 197.93 275.77 C 190.88 273.27 183.72 270.98 176.33 269.78 C 176.76 268.41 177.31 267.09 177.84 265.77 C 179.46 265.69 179.85 263.55 178.21 263.10 C 177.37 262.28 176.56 261.43 175.80 260.55 C 175.60 260.34 175.22 259.90 175.03 259.69 C 173.69 257.96 171.83 256.79 169.92 255.81 C 169.96 255.23 170.04 254.08 170.08 253.51 Z" />
</g>
<g id="#00000014">
<path fill="#000000" opacity="0.08" d=" M 146.84 257.59 C 147.19 257.22 147.88 256.50 148.22 256.14 C 148.22 258.99 148.26 261.86 148.31 264.72 C 147.85 272.08 148.52 279.50 150.25 286.67 C 150.91 289.61 153.43 291.53 155.05 293.93 C 156.30 295.28 154.66 296.91 154.36 298.35 C 158.37 298.00 162.17 299.37 164.64 302.64 C 167.18 296.23 169.99 289.84 171.08 282.98 C 171.57 279.66 172.70 276.48 174.17 273.47 C 175.03 273.50 175.89 273.54 176.76 273.58 C 177.05 273.89 177.62 274.51 177.91 274.83 C 179.18 276.22 180.41 277.65 181.57 279.14 C 182.45 280.32 183.31 281.52 184.20 282.69 C 182.57 283.30 180.94 283.91 179.31 284.53 C 179.81 286.14 180.32 287.76 180.84 289.37 C 179.53 289.78 178.24 290.20 176.94 290.63 C 176.20 293.66 174.03 295.89 172.03 298.14 C 172.70 299.61 174.43 299.98 175.69 300.79 C 174.38 301.47 173.07 302.18 171.77 302.89 C 173.88 306.52 172.71 310.81 173.36 314.76 C 173.98 317.65 172.44 320.27 171.93 323.04 C 172.02 325.32 172.89 327.47 173.32 329.70 C 174.11 332.81 172.74 335.89 172.72 339.00 C 173.10 341.92 174.96 344.68 174.15 347.70 C 172.78 354.46 175.13 362.19 170.56 368.10 C 172.17 368.42 173.78 368.76 175.40 369.11 C 174.19 371.25 172.75 373.34 172.12 375.75 C 172.18 378.27 175.05 380.33 174.01 382.99 C 173.25 385.50 172.77 388.16 173.67 390.71 C 175.75 397.13 172.95 403.80 174.29 410.30 C 175.08 414.49 175.84 418.72 175.61 423.00 C 174.92 424.43 172.70 423.91 172.32 425.32 C 173.45 427.83 175.62 429.76 177.52 431.77 C 175.69 433.34 173.85 434.91 172.05 436.54 C 173.39 436.77 174.73 437.00 176.07 437.24 C 176.71 440.90 177.10 444.59 177.27 448.31 C 176.15 449.46 175.04 450.61 173.92 451.77 C 175.44 452.76 176.97 453.77 178.50 454.77 C 178.15 456.92 177.83 459.07 177.54 461.23 C 176.29 461.36 175.04 461.48 173.80 461.63 C 174.77 463.36 175.59 465.18 176.49 466.96 C 175.23 467.60 174.01 468.31 172.78 469.01 C 173.73 470.72 175.91 470.23 177.54 470.55 C 176.88 471.75 176.23 472.97 175.59 474.19 C 176.78 475.22 179.15 475.72 178.80 477.72 C 176.99 480.96 174.20 483.89 174.05 487.81 C 174.09 490.67 174.37 493.52 174.54 496.39 C 172.47 494.87 170.04 494.17 167.50 494.56 C 167.78 495.47 168.06 496.38 168.35 497.30 C 166.31 497.04 164.27 496.79 162.22 496.55 C 162.25 492.99 163.66 489.73 165.48 486.74 C 163.02 486.21 160.56 485.67 158.11 485.11 C 158.00 482.86 157.76 480.61 157.42 478.39 C 158.19 478.77 158.97 479.15 159.75 479.55 C 159.67 478.41 159.59 477.27 159.51 476.13 C 160.71 475.05 161.90 473.96 163.09 472.86 C 162.50 472.23 161.91 471.60 161.32 470.98 C 160.34 472.10 159.36 473.23 158.37 474.36 C 157.95 473.24 157.47 472.15 156.99 471.06 C 158.24 468.47 160.12 466.24 161.90 464.00 C 158.97 463.64 156.94 461.78 155.99 459.03 C 156.27 458.55 156.83 457.59 157.11 457.11 C 158.88 457.99 160.65 458.87 162.42 459.77 C 162.63 459.30 163.05 458.35 163.26 457.88 C 161.24 456.36 159.02 455.15 156.59 454.44 C 157.32 452.19 158.08 449.94 158.80 447.69 C 157.73 447.48 156.66 447.27 155.60 447.07 C 155.46 444.40 155.26 441.74 154.97 439.09 C 155.83 438.95 156.70 438.80 157.57 438.67 C 156.88 435.68 155.08 432.55 156.31 429.47 C 157.09 426.76 158.73 424.06 158.22 421.17 C 157.20 418.84 155.38 417.00 153.86 415.02 C 155.09 414.52 156.33 414.03 157.57 413.55 C 153.60 409.21 154.01 402.81 150.62 398.11 C 151.71 397.03 152.79 395.94 153.87 394.85 C 152.09 393.09 150.73 391.00 150.15 388.55 C 149.17 388.59 148.19 388.64 147.21 388.70 C 148.45 387.47 149.70 386.24 150.94 385.02 C 149.68 382.10 148.22 379.26 147.24 376.23 C 146.18 372.97 147.50 369.53 146.74 366.23 C 146.22 363.80 145.63 361.35 145.85 358.85 C 146.33 352.32 145.29 345.80 145.64 339.27 C 145.87 335.17 145.64 331.07 144.96 327.03 C 144.16 323.17 146.63 319.67 146.61 315.86 C 146.55 311.89 145.72 307.95 146.00 303.98 C 146.88 293.67 146.20 283.32 146.10 273.00 C 146.45 267.87 146.92 262.74 146.84 257.59 Z" />
</g>
<g id="#9c9991ff">
<path fill="#9c9991" opacity="1.00" d=" M 239.12 256.49 C 239.84 256.30 241.28 255.92 242.00 255.73 C 246.17 258.97 250.38 262.16 254.40 265.59 C 256.13 267.21 258.48 267.65 260.69 268.25 C 261.62 266.90 262.56 265.54 263.55 264.23 C 265.16 264.27 266.80 264.24 268.40 264.58 C 269.47 265.53 270.35 266.67 271.25 267.78 C 270.01 269.33 268.65 270.77 267.40 272.31 C 264.72 271.50 261.78 271.65 259.75 273.81 C 257.24 275.44 257.88 278.57 258.08 281.07 C 255.21 279.66 252.40 278.13 249.64 276.52 C 246.90 275.18 247.09 271.83 245.53 269.59 C 242.59 265.59 242.68 260.15 239.12 256.49 Z" />
</g>
<g id="#cb9d7eff">
<path fill="#cb9d7e" opacity="1.00" d=" M 334.12 265.19 C 335.04 261.99 336.27 258.88 337.86 255.95 C 337.73 258.84 337.06 262.30 339.34 264.59 C 344.12 270.61 351.49 273.38 357.30 278.13 C 355.23 278.11 353.16 278.14 351.10 278.18 C 350.37 277.58 349.66 276.97 348.95 276.36 C 348.95 276.72 348.93 277.44 348.92 277.80 C 347.25 276.32 345.22 275.46 342.98 275.42 C 343.36 275.19 344.13 274.73 344.52 274.50 C 343.73 273.52 342.96 272.52 342.15 271.56 C 340.88 271.23 339.60 270.97 338.31 270.75 C 337.14 270.59 335.97 270.44 334.80 270.29 C 334.56 268.59 334.33 266.89 334.12 265.19 Z" />
</g>
<g id="#333335ff">
<path fill="#333335" opacity="1.00" d=" M 166.44 267.26 C 167.28 263.98 168.56 260.84 169.75 257.68 C 171.52 258.33 173.29 258.95 175.03 259.69 C 175.22 259.90 175.60 260.34 175.80 260.55 C 171.55 263.93 173.43 269.81 171.35 274.22 C 170.18 277.61 167.05 279.62 164.11 281.35 C 164.47 279.59 164.84 277.84 165.14 276.08 C 165.62 273.14 165.91 270.18 166.44 267.26 Z" />
</g>
<g id="#6a6b62ff">
<path fill="#6a6b62" opacity="1.00" d=" M 290.30 260.47 C 294.75 259.96 299.13 258.96 303.56 258.26 C 303.58 258.82 303.61 259.93 303.63 260.49 C 299.50 261.23 295.82 263.34 291.83 264.48 C 288.78 264.79 287.99 260.83 289.60 258.80 C 289.78 259.22 290.13 260.05 290.30 260.47 Z" />
</g>
<g id="#6b6866ff">
<path fill="#6b6866" opacity="1.00" d=" M 159.32 262.07 C 161.14 261.36 162.72 262.37 164.21 263.28 C 162.30 264.18 160.35 265.03 158.61 266.23 L 158.41 266.36 L 158.69 266.54 C 159.20 266.86 160.23 267.52 160.74 267.84 C 162.09 267.04 163.43 266.22 164.79 265.43 C 165.20 265.89 166.03 266.80 166.44 267.26 C 165.91 270.18 165.62 273.14 165.14 276.08 C 162.31 275.86 159.38 275.62 156.92 274.04 C 158.64 274.30 160.36 274.48 162.09 274.67 C 162.72 272.73 163.38 270.80 163.98 268.85 C 162.22 268.98 160.45 269.05 158.73 269.49 C 157.74 270.79 156.96 272.24 156.14 273.65 C 154.57 271.02 152.64 267.88 153.79 264.73 C 154.59 262.38 157.44 262.87 159.32 262.07 Z" />
</g>
<g id="#00000024">
<path fill="#000000" opacity="0.14" d=" M 171.35 274.22 C 173.43 269.81 171.55 263.93 175.80 260.55 C 176.56 261.43 177.37 262.28 178.21 263.10 C 178.12 263.77 177.94 265.10 177.84 265.77 C 177.31 267.09 176.76 268.41 176.33 269.78 C 176.44 271.04 176.58 272.31 176.76 273.58 C 175.89 273.54 175.03 273.50 174.17 273.47 C 172.70 276.48 171.57 279.66 171.08 282.98 C 169.99 289.84 167.18 296.23 164.64 302.64 C 162.17 299.37 158.37 298.00 154.36 298.35 C 154.66 296.91 156.30 295.28 155.05 293.93 C 153.43 291.53 150.91 289.61 150.25 286.67 C 148.52 279.50 147.85 272.08 148.31 264.72 C 149.11 269.93 150.89 275.43 155.10 278.89 C 157.60 280.98 160.98 281.29 164.11 281.35 C 167.05 279.62 170.18 277.61 171.35 274.22 Z" />
<path fill="#000000" opacity="0.14" d=" M 370.93 303.86 C 373.44 303.35 375.99 303.14 378.54 302.82 C 377.43 303.58 376.88 304.88 375.80 305.68 C 374.14 305.15 372.52 304.53 370.93 303.86 Z" />
</g>
<g id="#86837cff">
<path fill="#86837c" opacity="1.00" d=" M 263.55 264.23 C 264.89 262.58 266.87 261.84 268.96 261.71 C 273.78 262.27 279.53 263.06 282.25 267.65 C 283.96 272.08 282.78 277.17 278.99 280.12 C 279.94 280.72 280.89 281.32 281.83 281.92 C 279.84 281.66 277.86 281.36 275.87 281.08 C 275.24 283.26 274.42 285.38 273.65 287.52 C 272.97 289.20 272.26 290.87 271.28 292.41 L 270.45 292.45 C 270.86 289.94 271.25 287.44 271.33 284.90 C 266.84 283.89 262.31 282.92 258.08 281.07 C 257.88 278.57 257.24 275.44 259.75 273.81 C 261.78 271.65 264.72 271.50 267.40 272.31 C 268.65 270.77 270.01 269.33 271.25 267.78 C 270.35 266.67 269.47 265.53 268.40 264.58 C 266.80 264.24 265.16 264.27 263.55 264.23 Z" />
</g>
<g id="#2727269d">
<path fill="#272726" opacity="0.62" d=" M 178.21 263.10 C 179.85 263.55 179.46 265.69 177.84 265.77 C 177.94 265.10 178.12 263.77 178.21 263.10 Z" />
</g>
<g id="#82837bff">
<path fill="#82837b" opacity="1.00" d=" M 204.82 274.96 C 204.89 270.70 205.48 266.38 207.77 262.70 C 212.68 266.70 218.05 270.04 223.26 273.60 C 223.22 274.64 223.18 275.68 223.14 276.72 C 222.83 278.38 222.35 280.00 221.95 281.64 C 221.34 283.82 220.52 285.94 219.46 287.94 C 217.70 286.53 215.95 285.11 214.20 283.68 C 215.91 286.43 217.54 289.22 218.97 292.13 C 216.46 290.31 214.12 288.29 211.86 286.18 C 210.35 286.92 208.88 287.81 207.23 288.23 C 205.27 288.06 203.41 287.38 201.53 286.86 C 202.07 285.99 202.61 285.11 203.15 284.24 C 201.80 282.25 200.60 280.17 199.51 278.03 C 202.01 278.96 204.47 280.01 206.88 281.16 C 208.91 282.16 211.03 282.99 213.16 283.77 C 210.57 280.66 207.85 277.64 204.82 274.96 Z" />
</g>
<g id="#2f3134ff">
<path fill="#2f3134" opacity="1.00" d=" M 301.13 267.90 C 301.60 264.45 305.88 265.03 308.44 264.43 C 307.57 265.96 306.48 267.35 305.25 268.62 C 304.22 268.44 302.16 268.08 301.13 267.90 Z" />
</g>
<g id="#d7d1d5ff">
<path fill="#d7d1d5" opacity="1.00" d=" M 158.61 266.23 C 158.63 266.30 158.67 266.46 158.69 266.54 L 158.41 266.36 L 158.61 266.23 Z" />
</g>
<g id="#63657bff">
<path fill="#63657b" opacity="1.00" d=" M 284.11 267.78 C 286.13 268.33 288.14 268.90 290.17 269.44 C 290.40 270.72 290.64 271.99 290.88 273.27 C 292.93 273.62 294.97 273.99 297.02 274.38 C 296.85 275.10 296.53 276.55 296.36 277.28 C 296.34 277.37 296.28 277.57 296.25 277.66 C 293.89 281.84 295.53 286.36 296.07 290.74 C 295.94 291.18 295.67 292.07 295.54 292.51 C 294.79 292.32 294.03 292.15 293.28 291.98 C 292.13 291.71 290.98 291.46 289.84 291.22 C 290.05 292.85 290.28 294.48 290.51 296.12 C 290.15 297.27 289.73 298.40 289.30 299.54 C 287.95 297.42 286.56 300.91 288.99 300.32 C 287.11 301.68 284.63 301.93 282.90 303.50 C 281.70 303.18 280.02 301.18 279.40 303.17 C 280.00 304.47 280.87 305.63 281.82 306.71 L 282.44 307.32 C 281.14 307.45 279.84 307.52 278.54 307.59 C 277.35 305.56 275.75 303.82 273.92 302.36 C 275.63 300.92 277.13 299.03 279.31 298.31 C 281.44 298.12 283.54 298.72 285.63 299.07 C 284.36 297.61 283.09 296.15 281.84 294.67 C 282.86 294.22 283.88 293.76 284.90 293.31 C 284.77 292.39 284.64 291.47 284.51 290.55 C 283.68 286.04 283.63 281.39 284.96 276.96 C 286.01 273.88 284.76 270.79 284.11 267.78 M 294.11 277.25 C 292.57 280.24 297.43 277.40 294.11 277.25 M 290.24 285.25 C 290.81 285.82 290.81 285.82 290.24 285.25 M 293.21 286.40 C 292.83 287.80 293.33 288.28 294.74 287.84 C 295.11 286.44 294.60 285.96 293.21 286.40 M 288.18 292.25 C 286.62 292.21 286.28 294.95 287.98 294.98 C 289.51 295.01 289.85 292.28 288.18 292.25 Z" />
</g>
<g id="#6a696aff">
<path fill="#6a696a" opacity="1.00" d=" M 301.13 267.90 C 302.16 268.08 304.22 268.44 305.25 268.62 C 304.40 270.26 303.62 271.93 302.87 273.63 C 304.64 274.75 306.41 275.87 308.17 277.03 C 307.32 277.09 305.63 277.22 304.79 277.28 L 303.89 277.10 C 300.34 275.33 300.37 271.25 301.13 267.90 Z" />
</g>
<g id="#212327ff">
<path fill="#212327" opacity="1.00" d=" M 323.71 268.54 C 324.11 268.33 324.90 267.92 325.30 267.72 C 328.37 268.88 331.52 269.91 334.80 270.29 C 335.97 270.44 337.14 270.59 338.31 270.75 C 337.62 271.09 336.23 271.75 335.53 272.09 C 335.44 273.85 335.36 275.62 335.29 277.39 C 333.22 277.80 331.14 278.17 329.12 278.76 C 328.91 279.23 328.50 280.16 328.29 280.62 L 327.47 280.35 C 321.10 277.27 313.88 282.37 307.75 278.51 C 311.51 277.02 315.27 275.54 319.01 274.00 C 319.92 273.63 320.83 273.25 321.75 272.88 C 322.40 271.43 323.06 269.98 323.71 268.54 Z" />
<path fill="#212327" opacity="1.00" d=" M 348.95 276.36 C 349.66 276.97 350.37 277.58 351.10 278.18 C 355.47 280.24 360.44 279.00 365.10 279.46 C 360.67 279.54 356.26 279.93 351.87 280.39 C 350.86 280.34 349.87 280.27 348.87 280.19 C 348.89 279.59 348.91 278.40 348.92 277.80 C 348.93 277.44 348.95 276.72 348.95 276.36 Z" />
</g>
<g id="#87868bff">
<path fill="#87868b" opacity="1.00" d=" M 158.73 269.49 C 160.45 269.05 162.22 268.98 163.98 268.85 C 163.38 270.80 162.72 272.73 162.09 274.67 C 160.36 274.48 158.64 274.30 156.92 274.04 L 156.14 273.65 C 156.96 272.24 157.74 270.79 158.73 269.49 Z" />
</g>
<g id="#000000be">
<path fill="#000000" opacity="0.75" d=" M 382.04 277.60 C 384.81 274.97 387.17 271.95 389.49 268.92 C 390.37 269.91 391.24 270.91 392.16 271.89 C 394.99 275.75 400.14 274.49 404.24 274.89 C 409.30 275.32 414.43 275.49 419.29 277.14 C 412.18 277.22 405.12 278.14 398.02 278.07 C 395.13 278.04 392.23 278.16 389.38 278.63 C 387.72 278.85 386.06 279.07 384.40 279.22 C 383.62 278.67 382.83 278.13 382.04 277.60 Z" />
<path fill="#000000" opacity="0.75" d=" M 369.90 270.72 C 372.58 270.90 375.27 270.93 377.96 271.03 C 378.37 272.70 378.76 274.38 379.13 276.07 L 378.36 275.68 C 375.41 274.25 372.66 272.46 369.90 270.72 Z" />
</g>
<g id="#646463ff">
<path fill="#646463" opacity="1.00" d=" M 176.33 269.78 C 183.72 270.98 190.88 273.27 197.93 275.77 C 197.65 274.54 197.38 273.31 197.11 272.09 C 201.39 273.84 203.94 277.83 206.88 281.16 C 204.47 280.01 202.01 278.96 199.51 278.03 C 200.60 280.17 201.80 282.25 203.15 284.24 C 202.61 285.11 202.07 285.99 201.53 286.86 C 203.41 287.38 205.27 288.06 207.23 288.23 C 208.88 287.81 210.35 286.92 211.86 286.18 C 214.12 288.29 216.46 290.31 218.97 292.13 C 217.54 289.22 215.91 286.43 214.20 283.68 C 215.95 285.11 217.70 286.53 219.46 287.94 C 220.52 285.94 221.34 283.82 221.95 281.64 C 222.78 284.72 223.63 287.89 225.46 290.55 C 227.28 292.85 229.76 294.51 232.25 296.03 C 230.22 297.44 228.06 298.71 226.30 300.46 C 225.55 302.89 226.30 305.46 226.59 307.91 C 226.02 307.95 224.87 308.03 224.29 308.07 C 224.13 306.69 223.98 305.30 223.87 303.92 C 224.09 301.00 224.47 298.09 224.74 295.18 C 223.31 295.22 221.88 294.99 220.47 295.27 C 218.43 297.47 217.40 300.38 216.65 303.24 C 216.54 303.74 216.32 304.75 216.22 305.25 C 213.93 301.23 213.89 295.93 210.15 292.81 C 208.64 291.11 206.30 291.96 204.35 291.98 C 199.83 287.72 195.24 283.52 190.58 279.42 C 187.12 276.24 182.32 275.69 177.91 274.83 C 177.62 274.51 177.05 273.89 176.76 273.58 C 176.58 272.31 176.44 271.04 176.33 269.78 Z" />
</g>
<g id="#c5c6d0ff">
<path fill="#c5c6d0" opacity="1.00" d=" M 335.53 272.09 C 336.23 271.75 337.62 271.09 338.31 270.75 C 339.60 270.97 340.88 271.23 342.15 271.56 C 341.01 273.79 338.87 274.72 336.50 275.01 C 336.26 274.28 335.77 272.82 335.53 272.09 Z" />
<path fill="#c5c6d0" opacity="1.00" d=" M 311.11 282.95 C 315.77 282.82 320.44 282.74 325.10 282.48 C 326.06 284.02 327.06 285.55 328.03 287.09 C 322.73 287.88 317.37 287.94 312.02 287.97 C 311.72 286.29 311.42 284.62 311.11 282.95 Z" />
</g>
<g id="#494c56ff">
<path fill="#494c56" opacity="1.00" d=" M 342.15 271.56 C 342.96 272.52 343.73 273.52 344.52 274.50 C 344.13 274.73 343.36 275.19 342.98 275.42 C 339.35 276.82 341.09 281.22 340.76 284.19 C 340.27 284.79 339.77 285.39 339.27 285.99 C 339.31 283.60 339.29 281.21 339.24 278.82 C 336.80 278.79 334.35 278.77 331.91 278.67 C 331.21 278.69 329.82 278.74 329.12 278.76 C 331.14 278.17 333.22 277.80 335.29 277.39 C 335.36 275.62 335.44 273.85 335.53 272.09 C 335.77 272.82 336.26 274.28 336.50 275.01 C 338.87 274.72 341.01 273.79 342.15 271.56 Z" />
</g>
<g id="#0000006e">
<path fill="#000000" opacity="0.43" d=" M 392.16 271.89 C 396.21 272.79 400.20 273.94 404.24 274.89 C 400.14 274.49 394.99 275.75 392.16 271.89 Z" />
</g>
<g id="#5842307b">
<path fill="#584230" opacity="0.48" d=" M 442.21 272.44 C 443.62 272.23 445.05 272.19 446.48 272.21 C 446.42 273.54 446.35 274.87 446.32 276.20 C 446.17 275.50 445.86 274.09 445.71 273.39 C 444.54 273.05 443.38 272.74 442.21 272.44 Z" />
</g>
<g id="#2a2b2bff">
<path fill="#2a2b2b" opacity="1.00" d=" M 223.26 273.60 C 223.70 273.57 224.58 273.51 225.01 273.48 C 225.26 274.55 225.49 275.62 225.73 276.71 C 225.43 283.24 229.98 289.46 236.55 290.55 C 236.63 291.15 236.77 292.33 236.85 292.92 C 234.07 292.43 230.78 292.52 228.79 290.19 C 225.21 286.62 224.22 281.46 223.14 276.72 C 223.18 275.68 223.22 274.64 223.26 273.60 Z" />
</g>
<g id="#cfaa80d8">
<path fill="#cfaa80" opacity="0.85" d=" M 441.36 273.61 C 441.57 273.32 442.00 272.74 442.21 272.44 C 443.38 272.74 444.54 273.05 445.71 273.39 C 445.86 274.09 446.17 275.50 446.32 276.20 C 446.34 276.61 446.38 277.44 446.39 277.86 C 444.85 276.29 443.23 274.79 441.36 273.61 Z" />
</g>
<g id="#fffffeff">
<path fill="#fffffe" opacity="1.00" d=" M 441.36 273.61 C 443.23 274.79 444.85 276.29 446.39 277.86 C 447.81 278.52 449.32 278.98 450.83 279.41 C 451.24 279.98 452.07 281.12 452.48 281.69 C 454.46 282.34 456.46 281.32 458.41 281.00 C 460.21 281.03 461.93 281.59 463.60 282.23 C 467.29 283.59 471.26 281.99 475.02 282.89 C 478.00 283.60 481.11 283.25 484.09 283.94 C 483.70 285.27 483.77 286.69 484.15 288.03 C 478.72 288.67 473.42 290.30 467.93 290.28 C 464.71 290.24 461.99 292.15 459.05 293.17 C 457.21 292.52 455.18 292.70 453.61 293.89 C 450.93 295.68 447.01 296.14 445.50 299.28 C 444.61 300.63 444.22 302.93 442.09 302.50 C 439.71 301.21 439.22 298.33 437.60 296.39 C 436.10 294.55 434.91 292.49 433.67 290.47 C 432.77 290.11 431.86 289.78 430.94 289.50 C 431.75 288.37 432.59 287.25 433.33 286.08 C 435.38 281.52 438.93 277.94 441.36 273.61 Z" />
<path fill="#fffffe" opacity="1.00" d=" M 279.40 303.17 C 280.02 301.18 281.70 303.18 282.90 303.50 C 282.63 304.30 282.09 305.91 281.82 306.71 C 280.87 305.63 280.00 304.47 279.40 303.17 Z" />
</g>
<g id="#545555ff">
<path fill="#545555" opacity="1.00" d=" M 177.91 274.83 C 182.32 275.69 187.12 276.24 190.58 279.42 C 195.24 283.52 199.83 287.72 204.35 291.98 C 206.30 291.96 208.64 291.11 210.15 292.81 C 213.89 295.93 213.93 301.23 216.22 305.25 C 219.05 308.17 222.92 311.17 227.26 310.35 C 230.63 309.86 233.98 309.17 237.35 308.64 C 232.73 313.03 226.18 311.08 220.56 312.31 C 216.63 311.99 212.81 311.04 209.01 310.05 C 204.37 309.37 202.55 304.43 199.62 301.39 C 200.24 300.31 200.86 299.23 201.48 298.16 C 198.78 294.82 197.96 290.14 194.33 287.57 C 190.16 284.57 187.38 279.05 181.57 279.14 C 180.41 277.65 179.18 276.22 177.91 274.83 Z" />
</g>
<g id="#d8d8e6ff">
<path fill="#d8d8e6" opacity="1.00" d=" M 340.76 284.19 C 341.09 281.22 339.35 276.82 342.98 275.42 C 345.22 275.46 347.25 276.32 348.92 277.80 C 348.91 278.40 348.89 279.59 348.87 280.19 C 348.85 281.89 348.85 283.59 348.96 285.30 C 346.24 284.80 343.50 284.47 340.76 284.19 Z" />
</g>
<g id="#595652fb">
<path fill="#595652" opacity="1.00" d=" M 378.36 275.68 L 379.13 276.07 C 380.11 276.55 381.08 277.06 382.04 277.60 C 382.83 278.13 383.62 278.67 384.40 279.22 C 381.94 279.43 379.48 279.36 377.02 279.23 L 377.24 278.34 C 377.52 277.67 378.08 276.34 378.36 275.68 Z" />
</g>
<g id="#514e4eff">
<path fill="#514e4e" opacity="1.00" d=" M 221.95 281.64 C 222.35 280.00 222.83 278.38 223.14 276.72 C 224.22 281.46 225.21 286.62 228.79 290.19 C 230.78 292.52 234.07 292.43 236.85 292.92 C 236.77 292.33 236.63 291.15 236.55 290.55 C 229.98 289.46 225.43 283.24 225.73 276.71 C 226.50 277.59 227.29 278.48 228.09 279.36 C 231.47 283.74 236.31 286.54 241.28 288.76 C 246.12 291.02 250.98 293.43 256.28 294.34 C 250.92 294.92 245.54 294.01 240.17 294.11 C 241.65 295.88 242.92 297.81 243.95 299.88 C 240.81 298.75 237.94 296.64 234.48 296.67 C 233.73 296.47 232.99 296.25 232.25 296.03 C 229.76 294.51 227.28 292.85 225.46 290.55 C 223.63 287.89 222.78 284.72 221.95 281.64 Z" />
</g>
<g id="#cbc8d4ff">
<path fill="#cbc8d4" opacity="1.00" d=" M 294.11 277.25 C 297.43 277.40 292.57 280.24 294.11 277.25 Z" />
</g>
<g id="#ffffffff">
<path fill="#ffffff" opacity="1.00" d=" M 296.25 277.66 C 296.28 277.57 296.34 277.37 296.36 277.28 C 296.34 277.37 296.28 277.57 296.25 277.66 Z" />
<path fill="#ffffff" opacity="1.00" d=" M 290.24 285.25 C 290.81 285.82 290.81 285.82 290.24 285.25 Z" />
</g>
<g id="#010101ca">
<path fill="#010101" opacity="0.79" d=" M 296.45 282.99 C 298.16 280.93 299.77 278.79 301.31 276.60 C 301.96 276.72 303.25 276.97 303.89 277.10 L 304.79 277.28 C 305.78 277.67 306.77 278.08 307.75 278.51 C 313.88 282.37 321.10 277.27 327.47 280.35 C 318.92 282.71 309.45 279.96 301.42 284.46 C 300.85 284.68 299.71 285.12 299.14 285.34 C 298.24 284.55 297.34 283.77 296.45 282.99 Z" />
</g>
<g id="#545963ff">
<path fill="#545963" opacity="1.00" d=" M 398.02 278.07 C 405.12 278.14 412.18 277.22 419.29 277.14 C 422.87 277.40 426.47 277.32 430.06 277.36 C 430.38 280.06 430.54 282.78 430.34 285.50 C 428.21 285.10 426.08 284.70 423.93 284.49 L 424.53 283.69 C 425.14 282.10 425.54 280.44 425.89 278.78 C 422.48 278.44 419.13 279.67 415.74 279.21 C 410.59 278.44 405.41 279.18 400.25 279.36 C 396.59 279.45 392.53 281.42 389.38 278.63 C 392.23 278.16 395.13 278.04 398.02 278.07 Z" />
</g>
<g id="#7d6c62ff">
<path fill="#7d6c62" opacity="1.00" d=" M 351.10 278.18 C 353.16 278.14 355.23 278.11 357.30 278.13 C 363.94 278.43 370.59 278.34 377.24 278.34 L 377.02 279.23 L 376.89 279.98 C 368.54 280.10 360.20 281.43 351.87 280.39 C 356.26 279.93 360.67 279.54 365.10 279.46 C 360.44 279.00 355.47 280.24 351.10 278.18 Z" />
</g>
<g id="#333433fe">
<path fill="#333433" opacity="1.00" d=" M 181.57 279.14 C 187.38 279.05 190.16 284.57 194.33 287.57 C 197.96 290.14 198.78 294.82 201.48 298.16 C 200.86 299.23 200.24 300.31 199.62 301.39 C 194.41 295.22 189.31 288.95 184.20 282.69 C 183.31 281.52 182.45 280.32 181.57 279.14 Z" />
</g>
<g id="#b2b2b8fe">
<path fill="#b2b2b8" opacity="1.00" d=" M 328.29 280.62 C 328.50 280.16 328.91 279.23 329.12 278.76 C 329.82 278.74 331.21 278.69 331.91 278.67 C 331.85 280.33 330.12 281.13 328.71 281.40 L 328.29 280.62 Z" />
</g>
<g id="#87888bff">
<path fill="#87888b" opacity="1.00" d=" M 331.91 278.67 C 334.35 278.77 336.80 278.79 339.24 278.82 C 339.29 281.21 339.31 283.60 339.27 285.99 C 338.59 286.30 337.23 286.92 336.55 287.23 C 335.57 287.15 334.59 287.07 333.62 286.99 C 331.98 286.86 330.34 286.85 328.72 287.03 L 328.03 287.09 C 327.06 285.55 326.06 284.02 325.10 282.48 C 326.35 282.26 327.44 281.55 328.71 281.40 C 330.12 281.13 331.85 280.33 331.91 278.67 Z" />
</g>
<g id="#c3c5ceff">
<path fill="#c3c5ce" opacity="1.00" d=" M 377.02 279.23 C 379.48 279.36 381.94 279.43 384.40 279.22 C 386.06 279.07 387.72 278.85 389.38 278.63 C 392.53 281.42 396.59 279.45 400.25 279.36 C 405.41 279.18 410.59 278.44 415.74 279.21 C 419.13 279.67 422.48 278.44 425.89 278.78 C 425.54 280.44 425.14 282.10 424.53 283.69 C 408.47 283.49 392.44 284.90 376.40 285.43 C 367.41 285.68 358.40 286.66 349.42 285.92 C 351.74 282.09 356.49 283.41 360.20 283.04 C 365.63 282.58 371.09 283.04 376.52 282.43 C 376.61 281.81 376.79 280.59 376.89 279.98 L 377.02 279.23 Z" />
<path fill="#c3c5ce" opacity="1.00" d=" M 390.95 298.28 C 395.24 298.35 399.48 299.09 403.75 299.53 C 403.75 299.82 403.75 300.40 403.74 300.69 C 399.04 300.64 394.35 300.97 389.66 301.37 C 389.29 301.25 388.54 301.03 388.16 300.91 C 388.39 300.97 388.85 301.10 389.08 301.16 C 389.71 300.20 390.33 299.24 390.95 298.28 Z" />
</g>
<g id="#6f7174ff">
<path fill="#6f7174" opacity="1.00" d=" M 327.47 280.35 L 328.29 280.62 L 328.71 281.40 C 327.44 281.55 326.35 282.26 325.10 282.48 C 320.44 282.74 315.77 282.82 311.11 282.95 C 311.42 284.62 311.72 286.29 312.02 287.97 C 317.37 287.94 322.73 287.88 328.03 287.09 L 328.72 287.03 C 330.35 287.01 331.98 286.99 333.62 286.99 C 334.59 287.07 335.57 287.15 336.55 287.23 C 336.83 288.25 336.98 289.30 337.00 290.37 C 339.64 292.33 342.93 291.67 345.97 291.47 C 348.72 291.15 351.09 292.90 353.84 292.69 C 359.82 292.29 365.79 291.83 371.79 291.67 C 376.00 291.37 380.21 291.83 384.29 292.87 C 378.16 293.55 372.00 293.67 365.85 293.87 C 351.48 294.80 337.10 295.63 322.73 296.35 C 323.11 295.69 323.88 294.39 324.27 293.73 C 326.69 293.76 329.17 293.96 331.55 293.34 C 333.29 292.89 333.17 290.84 334.33 289.79 C 326.36 288.55 318.14 288.31 310.22 290.01 C 310.05 288.28 309.88 286.55 309.71 284.83 C 308.23 284.91 306.76 284.96 305.29 284.99 C 305.30 287.16 305.33 289.34 305.34 291.52 C 305.69 291.46 306.40 291.34 306.76 291.28 C 307.07 291.76 307.68 292.72 307.99 293.20 C 306.01 293.38 304.05 293.62 302.09 293.94 C 301.53 290.81 301.37 287.63 301.42 284.46 C 309.45 279.96 318.92 282.71 327.47 280.35 Z" />
</g>
<g id="#a6aab5ff">
<path fill="#a6aab5" opacity="1.00" d=" M 348.87 280.19 C 349.87 280.27 350.86 280.34 351.87 280.39 C 360.20 281.43 368.54 280.10 376.89 279.98 C 376.79 280.59 376.61 281.81 376.52 282.43 C 371.09 283.04 365.63 282.58 360.20 283.04 C 356.49 283.41 351.74 282.09 349.42 285.92 L 348.96 285.30 C 348.85 283.59 348.85 281.89 348.87 280.19 Z" />
</g>
<g id="#f0d7a4f1">
<path fill="#f0d7a4" opacity="0.95" d=" M 450.83 279.41 C 453.30 280.15 455.82 280.80 458.41 281.00 C 456.46 281.32 454.46 282.34 452.48 281.69 C 452.07 281.12 451.24 279.98 450.83 279.41 Z" />
</g>
<g id="#848780ff">
<path fill="#848780" opacity="1.00" d=" M 376.40 285.43 C 392.44 284.90 408.47 283.49 424.53 283.69 L 423.93 284.49 C 420.33 285.21 416.65 285.40 412.99 285.29 C 406.43 285.09 399.92 286.03 393.37 286.13 C 394.38 287.88 395.10 289.76 395.10 291.82 C 398.00 291.98 400.42 290.58 402.13 288.29 C 402.43 289.13 402.75 289.98 403.07 290.83 C 402.88 291.41 402.52 292.58 402.33 293.16 C 403.44 293.55 404.56 293.94 405.70 294.27 C 406.80 295.92 407.77 298.10 405.97 299.73 C 409.67 299.90 415.78 302.18 417.12 297.22 C 419.99 297.32 422.97 297.39 425.59 298.70 C 423.09 300.78 419.63 300.17 416.63 300.52 C 416.26 302.72 415.94 304.95 415.08 307.03 C 412.02 307.41 408.94 307.25 405.89 306.88 C 402.44 306.25 399.29 308.12 396.18 309.32 C 394.20 308.34 392.15 307.02 389.84 307.39 C 385.56 307.88 381.21 310.23 376.98 308.06 C 374.22 306.71 371.36 305.55 368.56 304.30 C 369.34 304.16 370.13 304.01 370.93 303.86 C 372.52 304.53 374.14 305.15 375.80 305.68 C 381.81 306.19 387.95 305.32 393.29 302.39 C 392.38 302.13 390.57 301.62 389.66 301.37 C 394.35 300.97 399.04 300.64 403.74 300.69 C 403.75 300.40 403.75 299.82 403.75 299.53 C 399.48 299.09 395.24 298.35 390.95 298.28 C 390.33 299.24 389.71 300.20 389.08 301.16 C 388.85 301.10 388.39 300.97 388.16 300.91 C 387.83 300.82 387.17 300.63 386.84 300.53 C 383.01 298.80 379.08 301.45 375.20 301.72 C 374.48 300.54 374.17 299.17 373.78 297.87 C 373.53 297.98 373.03 298.19 372.78 298.29 C 372.67 299.51 372.56 300.72 372.46 301.95 C 365.50 301.84 358.06 303.35 351.55 300.20 C 351.19 300.04 350.47 299.74 350.11 299.59 C 346.42 298.44 342.50 298.74 338.70 298.48 C 344.52 297.27 350.50 297.99 356.38 297.29 C 367.31 296.22 378.31 295.87 389.27 296.75 C 391.83 297.11 393.74 295.07 395.71 293.81 C 391.94 293.16 388.11 292.95 384.29 292.87 C 380.21 291.83 376.00 291.37 371.79 291.67 C 375.60 291.49 379.47 291.53 383.23 290.77 C 383.91 289.47 384.12 287.99 384.58 286.61 C 378.05 286.56 371.56 287.39 365.03 287.36 C 360.51 287.33 355.98 287.66 351.52 288.42 C 350.99 287.79 349.94 286.54 349.42 285.92 C 358.40 286.66 367.41 285.68 376.40 285.43 M 398.35 303.32 C 397.78 306.61 402.05 305.58 403.96 305.14 C 403.81 304.43 403.51 303.03 403.36 302.32 C 401.67 302.56 399.89 302.49 398.35 303.32 Z" />
</g>
<g id="#464240ff">
<path fill="#464240" opacity="1.00" d=" M 339.27 285.99 C 339.77 285.39 340.27 284.79 340.76 284.19 C 343.50 284.47 346.24 284.80 348.96 285.30 L 349.42 285.92 C 349.94 286.54 350.99 287.79 351.52 288.42 C 346.66 289.04 341.63 288.39 337.00 290.37 C 336.98 289.30 336.83 288.25 336.55 287.23 C 337.23 286.92 338.59 286.30 339.27 285.99 Z" />
</g>
<g id="#a2a996ff">
<path fill="#a2a996" opacity="1.00" d=" M 412.99 285.29 C 416.65 285.40 420.33 285.21 423.93 284.49 C 426.08 284.70 428.21 285.10 430.34 285.50 C 431.33 285.70 432.33 285.89 433.33 286.08 C 432.59 287.25 431.75 288.37 430.94 289.50 C 428.29 289.94 425.68 290.55 423.07 291.17 C 424.83 292.14 426.57 293.13 428.31 294.15 C 424.84 294.82 421.32 295.18 417.83 295.68 C 417.65 296.06 417.30 296.84 417.12 297.22 C 415.78 302.18 409.67 299.90 405.97 299.73 C 407.77 298.10 406.80 295.92 405.70 294.27 C 410.93 294.50 417.13 294.41 420.58 289.77 C 414.74 290.08 408.94 291.36 403.07 290.83 C 402.75 289.98 402.43 289.13 402.13 288.29 C 400.42 290.58 398.00 291.98 395.10 291.82 C 395.10 289.76 394.38 287.88 393.37 286.13 C 399.92 286.03 406.43 285.09 412.99 285.29 Z" />
</g>
<g id="#cb9576ff">
<path fill="#cb9576" opacity="1.00" d=" M 484.09 283.94 C 486.31 284.08 486.38 287.85 484.15 288.03 C 483.77 286.69 483.70 285.27 484.09 283.94 Z" />
<path fill="#cb9576" opacity="1.00" d=" M 238.52 307.83 C 239.50 308.48 240.49 309.15 241.48 309.82 C 240.44 310.86 239.44 311.93 238.40 312.97 C 236.36 314.42 234.13 315.58 231.92 316.75 C 230.11 317.55 228.30 318.82 226.25 318.63 C 225.02 318.00 223.96 317.10 222.91 316.23 C 222.12 314.92 221.33 313.61 220.56 312.31 C 226.18 311.08 232.73 313.03 237.35 308.64 C 237.65 308.44 238.23 308.03 238.52 307.83 Z" />
</g>
<g id="#2a2b2eff">
<path fill="#2a2b2e" opacity="1.00" d=" M 267.77 285.65 C 268.95 285.40 270.14 285.15 271.33 284.90 C 271.25 287.44 270.86 289.94 270.45 292.45 C 269.81 292.47 268.53 292.51 267.89 292.53 C 267.89 291.44 267.90 290.34 267.89 289.25 C 267.86 288.04 267.82 286.85 267.77 285.65 Z" />
</g>
<g id="#a6a5aeff">
<path fill="#a6a5ae" opacity="1.00" d=" M 299.14 285.34 C 299.71 285.12 300.85 284.68 301.42 284.46 C 301.37 287.63 301.53 290.81 302.09 293.94 C 300.20 296.65 297.09 297.92 293.98 298.64 C 293.75 296.41 293.52 294.19 293.28 291.98 C 294.03 292.15 294.79 292.32 295.54 292.51 C 295.67 292.07 295.94 291.18 296.07 290.74 C 297.03 288.91 298.08 287.12 299.14 285.34 Z" />
</g>
<g id="#e8ffffff">
<path fill="#e8ffff" opacity="1.00" d=" M 305.29 284.99 C 306.76 284.96 308.23 284.91 309.71 284.83 C 309.88 286.55 310.05 288.28 310.22 290.01 C 309.66 290.27 308.55 290.78 307.99 291.04 C 307.68 291.10 307.07 291.22 306.76 291.28 C 306.40 291.34 305.69 291.46 305.34 291.52 C 305.33 289.34 305.30 287.16 305.29 284.99 Z" />
</g>
<g id="#c1bfcbff">
<path fill="#c1bfcb" opacity="1.00" d=" M 293.21 286.40 C 294.60 285.96 295.11 286.44 294.74 287.84 C 293.33 288.28 292.83 287.80 293.21 286.40 Z" />
</g>
<g id="#f9f8fdff">
<path fill="#f9f8fd" opacity="1.00" d=" M 328.72 287.03 C 330.34 286.85 331.98 286.86 333.62 286.99 C 331.98 286.99 330.35 287.01 328.72 287.03 Z" />
<path fill="#f9f8fd" opacity="1.00" d=" M 398.35 303.32 C 399.89 302.49 401.67 302.56 403.36 302.32 C 403.51 303.03 403.81 304.43 403.96 305.14 C 402.05 305.58 397.78 306.61 398.35 303.32 Z" />
</g>
<g id="#aeb4a0ff">
<path fill="#aeb4a0" opacity="1.00" d=" M 365.03 287.36 C 371.56 287.39 378.05 286.56 384.58 286.61 C 384.12 287.99 383.91 289.47 383.23 290.77 C 379.47 291.53 375.60 291.49 371.79 291.67 C 365.79 291.83 359.82 292.29 353.84 292.69 C 351.09 292.90 348.72 291.15 345.97 291.47 C 342.93 291.67 339.64 292.33 337.00 290.37 C 341.63 288.39 346.66 289.04 351.52 288.42 C 355.98 287.66 360.51 287.33 365.03 287.36 Z" />
</g>
<g id="#6e6d6aff">
<path fill="#6e6d6a" opacity="1.00" d=" M 253.74 290.90 C 254.75 290.02 255.72 289.10 256.64 288.13 C 258.42 289.15 260.16 290.30 262.12 290.96 C 264.15 290.90 266.01 289.92 267.89 289.25 C 267.90 290.34 267.89 291.44 267.89 292.53 C 268.53 292.51 269.81 292.47 270.45 292.45 L 271.28 292.41 C 270.01 294.57 268.66 296.70 267.60 298.99 C 267.74 299.31 268.01 299.95 268.14 300.27 C 266.26 299.08 264.78 297.21 262.60 296.54 C 259.74 296.74 257.17 298.29 254.47 299.16 C 254.47 300.13 254.48 301.10 254.49 302.07 C 255.68 302.54 256.86 303.01 258.05 303.48 L 257.24 303.88 C 251.72 304.98 246.40 307.11 241.48 309.82 C 240.49 309.15 239.50 308.48 238.52 307.83 C 240.37 306.44 242.19 305.02 244.01 303.58 C 241.99 301.75 239.77 300.16 237.43 298.78 C 236.43 298.09 235.45 297.39 234.48 296.67 C 237.94 296.64 240.81 298.75 243.95 299.88 C 242.92 297.81 241.65 295.88 240.17 294.11 C 245.54 294.01 250.92 294.92 256.28 294.34 C 256.99 294.21 258.40 293.95 259.10 293.81 C 257.34 292.79 255.54 291.84 253.74 290.90 Z" />
</g>
<g id="#565354ff">
<path fill="#565354" opacity="1.00" d=" M 271.28 292.41 C 272.26 290.87 272.97 289.20 273.65 287.52 C 277.44 287.79 281.24 288.52 284.51 290.55 C 284.64 291.47 284.77 292.39 284.90 293.31 C 283.88 293.76 282.86 294.22 281.84 294.67 C 283.09 296.15 284.36 297.61 285.63 299.07 C 283.54 298.72 281.44 298.12 279.31 298.31 C 277.13 299.03 275.63 300.92 273.92 302.36 C 275.75 303.82 277.35 305.56 278.54 307.59 C 276.02 307.61 273.59 308.27 271.20 309.01 C 265.99 309.36 260.21 306.94 255.57 310.27 C 251.95 309.77 248.25 309.06 244.61 309.67 C 243.31 309.82 242.59 310.99 241.88 311.92 C 243.58 314.89 247.76 314.53 250.62 313.73 C 250.41 315.15 250.19 316.58 250.03 318.01 C 248.71 319.06 247.44 320.19 245.92 320.95 C 242.20 319.76 238.70 317.19 238.40 312.97 C 239.44 311.93 240.44 310.86 241.48 309.82 C 246.40 307.11 251.72 304.98 257.24 303.88 C 261.29 305.10 265.42 304.08 269.19 302.46 C 268.93 301.91 268.40 300.82 268.14 300.27 C 268.01 299.95 267.74 299.31 267.60 298.99 C 268.66 296.70 270.01 294.57 271.28 292.41 Z" />
</g>
<g id="#a1a693ff">
<path fill="#a1a693" opacity="1.00" d=" M 310.22 290.01 C 318.14 288.31 326.36 288.55 334.33 289.79 C 333.17 290.84 333.29 292.89 331.55 293.34 C 329.17 293.96 326.69 293.76 324.27 293.73 C 323.06 292.70 322.18 290.76 320.39 290.78 C 317.69 291.08 315.39 292.70 312.82 293.47 C 311.08 292.96 309.58 291.87 307.99 291.04 C 308.55 290.78 309.66 290.27 310.22 290.01 Z" />
</g>
<g id="#747478ff">
<path fill="#747478" opacity="1.00" d=" M 403.07 290.83 C 408.94 291.36 414.74 290.08 420.58 289.77 C 417.13 294.41 410.93 294.50 405.70 294.27 C 404.56 293.94 403.44 293.55 402.33 293.16 C 402.52 292.58 402.88 291.41 403.07 290.83 Z" />
</g>
<g id="#83877aff">
<path fill="#83877a" opacity="1.00" d=" M 320.39 290.78 C 322.18 290.76 323.06 292.70 324.27 293.73 C 323.88 294.39 323.11 295.69 322.73 296.35 C 316.76 297.13 310.41 296.06 304.76 298.43 C 307.88 299.21 311.14 299.96 314.37 299.28 C 321.31 297.78 328.49 297.66 335.55 298.28 C 334.40 299.18 333.28 300.09 332.11 300.97 C 327.91 301.38 323.70 300.95 319.55 300.29 C 315.76 299.30 312.88 302.54 310.00 304.42 C 307.32 302.33 304.23 300.66 300.76 300.52 C 297.65 300.37 294.54 300.62 291.45 300.88 C 291.17 299.61 290.91 298.34 290.67 297.07 C 291.17 297.45 292.16 298.21 292.66 298.59 C 292.99 298.60 293.65 298.63 293.98 298.64 C 297.09 297.92 300.20 296.65 302.09 293.94 C 304.05 293.62 306.01 293.38 307.99 293.20 C 307.68 292.72 307.07 291.76 306.76 291.28 C 307.07 291.22 307.68 291.10 307.99 291.04 C 309.58 291.87 311.08 292.96 312.82 293.47 C 315.39 292.70 317.69 291.08 320.39 290.78 Z" />
</g>
<g id="#71756bff">
<path fill="#71756b" opacity="1.00" d=" M 423.07 291.17 C 425.68 290.55 428.29 289.94 430.94 289.50 C 431.86 289.78 432.77 290.11 433.67 290.47 C 430.00 292.08 428.20 295.88 425.59 298.70 C 422.97 297.39 419.99 297.32 417.12 297.22 C 417.30 296.84 417.65 296.06 417.83 295.68 C 421.32 295.18 424.84 294.82 428.31 294.15 C 426.57 293.13 424.83 292.14 423.07 291.17 Z" />
</g>
<g id="#c3c1cdff">
<path fill="#c3c1cd" opacity="1.00" d=" M 289.84 291.22 C 290.98 291.46 292.13 291.71 293.28 291.98 C 293.52 294.19 293.75 296.41 293.98 298.64 C 293.65 298.63 292.99 298.60 292.66 298.59 C 292.16 298.21 291.17 297.45 290.67 297.07 L 290.51 296.12 C 290.28 294.48 290.05 292.85 289.84 291.22 Z" />
</g>
<g id="#3a3a45ff">
<path fill="#3a3a45" opacity="1.00" d=" M 288.18 292.25 C 289.85 292.28 289.51 295.01 287.98 294.98 C 286.28 294.95 286.62 292.21 288.18 292.25 Z" />
</g>
<g id="#b5bcaaff">
<path fill="#b5bcaa" opacity="1.00" d=" M 322.73 296.35 C 337.10 295.63 351.48 294.80 365.85 293.87 C 372.00 293.67 378.16 293.55 384.29 292.87 C 388.11 292.95 391.94 293.16 395.71 293.81 C 393.74 295.07 391.83 297.11 389.27 296.75 C 378.31 295.87 367.31 296.22 356.38 297.29 C 350.50 297.99 344.52 297.27 338.70 298.48 C 337.64 298.42 336.59 298.35 335.55 298.28 C 328.49 297.66 321.31 297.78 314.37 299.28 C 311.14 299.96 307.88 299.21 304.76 298.43 C 310.41 296.06 316.76 297.13 322.73 296.35 Z" />
</g>
<g id="#291b1357">
<path fill="#291b13" opacity="0.34" d=" M 453.61 293.89 C 455.18 292.70 457.21 292.52 459.05 293.17 C 457.48 294.28 455.33 295.36 453.61 293.89 Z" />
</g>
<g id="#555450ff">
<path fill="#555450" opacity="1.00" d=" M 220.47 295.27 C 221.88 294.99 223.31 295.22 224.74 295.18 C 224.47 298.09 224.09 301.00 223.87 303.92 C 221.50 303.38 219.08 302.92 216.65 303.24 C 217.40 300.38 218.43 297.47 220.47 295.27 Z" />
</g>
<g id="#d39c7dff">
<path fill="#d39c7d" opacity="1.00" d=" M 232.25 296.03 C 232.99 296.25 233.73 296.47 234.48 296.67 C 235.45 297.39 236.43 298.09 237.43 298.78 C 235.46 303.37 231.47 306.77 226.59 307.91 C 226.30 305.46 225.55 302.89 226.30 300.46 C 228.06 298.71 230.22 297.44 232.25 296.03 Z" />
</g>
<g id="#bcc5a9ff">
<path fill="#bcc5a9" opacity="1.00" d=" M 254.47 299.16 C 257.17 298.29 259.74 296.74 262.60 296.54 C 264.78 297.21 266.26 299.08 268.14 300.27 L 267.85 301.13 C 264.63 301.15 260.99 301.68 258.05 303.48 C 256.86 303.01 255.68 302.54 254.49 302.07 C 254.48 301.10 254.47 300.13 254.47 299.16 Z" />
</g>
<g id="#453732fe">
<path fill="#453732" opacity="1.00" d=" M 289.30 299.54 C 289.73 298.40 290.15 297.27 290.51 296.12 L 290.67 297.07 C 290.91 298.34 291.17 299.61 291.45 300.88 C 294.54 300.62 297.65 300.37 300.76 300.52 C 299.90 302.61 298.98 304.68 298.23 306.81 C 292.97 306.13 287.66 306.63 282.44 307.32 L 281.82 306.71 C 282.09 305.91 282.63 304.30 282.90 303.50 C 284.63 301.93 287.11 301.68 288.99 300.32 L 289.30 299.54 M 288.87 304.28 C 291.18 303.93 293.68 303.72 295.41 301.95 C 293.10 301.86 288.35 300.42 288.87 304.28 Z" />
</g>
<g id="#5a5c59f9">
<path fill="#5a5c59" opacity="0.98" d=" M 372.78 298.29 C 373.03 298.19 373.53 297.98 373.78 297.87 C 374.17 299.17 374.48 300.54 375.20 301.72 C 379.08 301.45 383.01 298.80 386.84 300.53 C 384.15 301.54 381.37 302.35 378.54 302.82 C 375.99 303.14 373.44 303.35 370.93 303.86 C 370.13 304.01 369.34 304.16 368.56 304.30 C 367.92 304.35 366.63 304.47 365.99 304.52 C 362.32 304.63 358.74 303.72 355.17 303.01 C 353.48 302.84 352.65 301.24 351.55 300.20 C 358.06 303.35 365.50 301.84 372.46 301.95 C 372.56 300.72 372.67 299.51 372.78 298.29 Z" />
</g>
<g id="#3d3d3bff">
<path fill="#3d3d3b" opacity="1.00" d=" M 237.43 298.78 C 239.77 300.16 241.99 301.75 244.01 303.58 C 242.19 305.02 240.37 306.44 238.52 307.83 C 238.23 308.03 237.65 308.44 237.35 308.64 C 233.98 309.17 230.63 309.86 227.26 310.35 C 222.92 311.17 219.05 308.17 216.22 305.25 C 216.32 304.75 216.54 303.74 216.65 303.24 C 219.08 302.92 221.50 303.38 223.87 303.92 C 223.98 305.30 224.13 306.69 224.29 308.07 C 224.87 308.03 226.02 307.95 226.59 307.91 C 231.47 306.77 235.46 303.37 237.43 298.78 Z" />
</g>
<g id="#dddbe2ff">
<path fill="#dddbe2" opacity="1.00" d=" M 288.99 300.32 C 286.56 300.91 287.95 297.42 289.30 299.54 L 288.99 300.32 Z" />
</g>
<g id="#696867ff">
<path fill="#696867" opacity="1.00" d=" M 332.11 300.97 C 333.28 300.09 334.40 299.18 335.55 298.28 C 336.59 298.35 337.64 298.42 338.70 298.48 C 342.50 298.74 346.42 298.44 350.11 299.59 C 347.24 299.42 344.08 298.87 341.40 300.13 C 337.10 304.09 334.01 309.19 329.90 313.35 C 327.80 311.58 326.17 309.37 324.69 307.08 C 327.64 305.72 331.59 304.78 332.11 300.97 Z" />
</g>
<g id="#8f9180ff">
<path fill="#8f9180" opacity="1.00" d=" M 268.14 300.27 C 268.40 300.82 268.93 301.91 269.19 302.46 C 265.42 304.08 261.29 305.10 257.24 303.88 L 258.05 303.48 C 260.99 301.68 264.63 301.15 267.85 301.13 L 268.14 300.27 Z" />
</g>
<g id="#565653ff">
<path fill="#565653" opacity="1.00" d=" M 310.00 304.42 C 312.88 302.54 315.76 299.30 319.55 300.29 C 323.70 300.95 327.91 301.38 332.11 300.97 C 331.59 304.78 327.64 305.72 324.69 307.08 C 326.17 309.37 327.80 311.58 329.90 313.35 C 325.84 316.73 321.53 320.19 316.25 321.36 C 313.27 322.24 310.25 321.09 307.23 321.25 C 305.09 321.37 302.97 321.63 300.85 321.89 L 301.58 321.57 C 303.05 320.90 304.50 320.20 305.96 319.51 C 305.18 317.84 304.55 316.05 303.38 314.60 C 302.03 313.02 299.69 313.85 297.89 313.65 C 297.56 312.81 297.23 311.97 296.89 311.14 C 296.11 310.95 294.54 310.57 293.75 310.38 L 294.39 310.31 C 295.44 310.15 296.47 309.88 297.48 309.52 C 297.67 308.84 298.04 307.49 298.23 306.81 C 298.98 304.68 299.90 302.61 300.76 300.52 C 304.23 300.66 307.32 302.33 310.00 304.42 M 311.20 308.12 C 309.20 311.29 309.55 315.24 309.76 318.83 C 313.37 316.80 317.34 315.61 321.20 314.18 C 324.77 313.05 323.25 307.26 319.85 307.21 C 316.97 306.84 313.85 306.78 311.20 308.12 Z" />
</g>
<g id="#00000015">
<path fill="#000000" opacity="0.08" d=" M 341.40 300.13 C 344.08 298.87 347.24 299.42 350.11 299.59 C 350.47 299.74 351.19 300.04 351.55 300.20 C 352.65 301.24 353.48 302.84 355.17 303.01 C 358.74 303.72 362.32 304.63 365.99 304.52 C 363.90 308.06 362.19 311.78 360.48 315.51 C 358.57 319.81 354.64 322.83 352.78 327.17 C 350.95 331.44 349.59 336.05 350.06 340.75 C 349.10 339.92 348.14 339.10 347.18 338.29 C 346.69 344.12 346.63 350.10 344.58 355.66 C 342.24 362.61 337.46 368.98 338.12 376.67 C 337.21 377.05 336.31 377.44 335.42 377.83 C 335.95 379.05 336.48 380.26 337.02 381.49 C 335.94 381.50 334.87 381.53 333.81 381.55 C 333.58 384.58 332.26 387.32 331.00 390.03 C 328.03 397.50 329.33 405.75 328.44 413.49 C 325.00 417.81 321.49 424.19 325.55 429.27 C 324.48 430.33 322.50 431.00 322.66 432.79 C 322.37 438.75 321.41 444.65 320.92 450.60 C 320.69 452.80 321.89 454.78 322.29 456.89 C 322.00 458.50 321.03 459.88 320.34 461.33 C 319.64 460.29 318.96 459.25 318.29 458.21 C 317.54 462.40 316.47 466.72 317.69 470.94 C 316.97 471.97 316.24 473.01 315.52 474.04 C 316.40 475.37 317.31 476.69 318.03 478.14 C 317.71 479.92 316.53 481.39 315.66 482.94 C 315.99 483.73 316.33 484.53 316.68 485.33 C 314.95 486.90 313.17 488.42 311.42 489.97 C 312.19 491.85 312.96 493.75 313.72 495.64 C 312.63 496.42 311.56 497.21 310.48 498.00 C 311.05 501.45 312.21 504.80 314.63 507.40 C 313.21 508.93 311.89 510.54 310.40 512.00 L 282.76 512.00 C 285.74 511.06 287.81 508.68 289.58 506.23 C 288.81 505.13 288.05 504.04 287.29 502.95 C 288.75 502.01 290.21 501.07 291.66 500.12 C 291.36 498.04 291.10 495.95 290.87 493.86 C 289.64 493.75 288.40 493.65 287.17 493.57 C 288.32 492.59 289.90 491.96 290.61 490.56 C 291.07 487.85 291.65 485.13 293.07 482.75 C 292.49 481.76 291.91 480.78 291.33 479.81 C 291.75 478.38 292.18 476.95 292.61 475.54 C 291.80 475.44 291.00 475.36 290.19 475.27 C 291.04 472.81 292.14 470.37 292.43 467.76 C 292.14 466.15 291.38 464.68 290.75 463.19 C 292.45 462.02 294.16 460.85 295.87 459.70 C 294.29 458.85 292.71 458.01 291.13 457.19 C 292.56 455.82 294.96 454.83 295.03 452.57 C 295.40 447.72 296.19 442.57 293.99 438.02 C 292.15 435.15 295.36 432.95 296.31 430.45 C 297.02 428.13 296.59 425.67 296.77 423.29 C 296.70 421.28 298.42 419.91 299.49 418.42 C 299.18 413.84 296.99 409.42 297.62 404.82 C 298.68 402.89 300.45 401.37 302.15 399.98 C 301.03 399.63 299.91 399.31 298.79 399.00 C 298.41 397.11 297.94 395.25 297.48 393.38 C 298.81 392.67 300.19 392.02 301.39 391.09 C 301.38 388.28 300.60 385.52 300.68 382.71 C 301.00 380.41 302.13 378.33 302.84 376.14 C 305.03 369.88 305.00 363.16 304.91 356.61 C 304.77 354.80 306.25 353.62 307.30 352.38 C 306.38 346.78 305.00 340.88 306.93 335.33 C 308.27 331.87 308.95 328.24 308.82 324.54 C 304.84 323.80 300.85 323.03 296.80 322.86 C 298.15 322.56 299.50 322.23 300.85 321.89 C 302.97 321.63 305.09 321.37 307.23 321.25 C 310.25 321.09 313.27 322.24 316.25 321.36 C 321.53 320.19 325.84 316.73 329.90 313.35 C 334.01 309.19 337.10 304.09 341.40 300.13 Z" />
</g>
<g id="#363636ff">
<path fill="#363636" opacity="1.00" d=" M 378.54 302.82 C 381.37 302.35 384.15 301.54 386.84 300.53 C 387.17 300.63 387.83 300.82 388.16 300.91 C 388.54 301.03 389.29 301.25 389.66 301.37 C 390.57 301.62 392.38 302.13 393.29 302.39 C 387.95 305.32 381.81 306.19 375.80 305.68 C 376.88 304.88 377.43 303.58 378.54 302.82 Z" />
</g>
<g id="#8a868bff">
<path fill="#8a868b" opacity="1.00" d=" M 288.87 304.28 C 288.35 300.42 293.10 301.86 295.41 301.95 C 293.68 303.72 291.18 303.93 288.87 304.28 Z" />
</g>
<g id="#6c6d72fe">
<path fill="#6c6d72" opacity="1.00" d=" M 405.89 306.88 C 408.94 307.25 412.02 307.41 415.08 307.03 C 414.16 308.98 413.53 311.57 411.08 312.05 C 406.03 311.94 400.68 311.96 396.18 309.32 C 399.29 308.12 402.44 306.25 405.89 306.88 Z" />
</g>
<g id="#00000012">
<path fill="#000000" opacity="0.07" d=" M 282.44 307.32 C 287.66 306.63 292.97 306.13 298.23 306.81 C 298.04 307.49 297.67 308.84 297.48 309.52 C 296.47 309.88 295.44 310.15 294.39 310.31 C 286.67 309.54 278.64 312.02 271.20 309.01 C 273.59 308.27 276.02 307.61 278.54 307.59 C 279.84 307.52 281.14 307.45 282.44 307.32 Z" />
</g>
<g id="#69696aff">
<path fill="#69696a" opacity="1.00" d=" M 311.20 308.12 C 313.85 306.78 316.97 306.84 319.85 307.21 C 323.25 307.26 324.77 313.05 321.20 314.18 C 317.34 315.61 313.37 316.80 309.76 318.83 C 309.55 315.24 309.20 311.29 311.20 308.12 Z" />
</g>
<g id="#565656fc">
<path fill="#565656" opacity="1.00" d=" M 376.98 308.06 C 381.21 310.23 385.56 307.88 389.84 307.39 C 392.15 307.02 394.20 308.34 396.18 309.32 C 400.68 311.96 406.03 311.94 411.08 312.05 C 405.08 313.25 399.08 311.90 393.16 310.92 C 389.52 310.18 385.92 311.54 382.29 311.46 C 380.40 310.52 378.78 309.13 376.98 308.06 Z" />
</g>
<g id="#0d09068b">
<path fill="#0d0906" opacity="0.55" d=" M 255.57 310.27 C 260.21 306.94 265.99 309.36 271.20 309.01 C 278.64 312.02 286.67 309.54 294.39 310.31 L 293.75 310.38 C 283.36 312.36 272.70 311.02 262.19 311.52 C 259.96 311.21 257.77 310.69 255.57 310.27 Z" />
</g>
<g id="#3b3a3aff">
<path fill="#3b3a3a" opacity="1.00" d=" M 244.61 309.67 C 248.25 309.06 251.95 309.77 255.57 310.27 C 257.77 310.69 259.96 311.21 262.19 311.52 C 258.24 311.63 254.36 312.48 250.62 313.73 C 247.76 314.53 243.58 314.89 241.88 311.92 C 242.59 310.99 243.31 309.82 244.61 309.67 Z" />
</g>
<g id="#ba896aff">
<path fill="#ba896a" opacity="1.00" d=" M 262.19 311.52 C 272.70 311.02 283.36 312.36 293.75 310.38 C 294.54 310.57 296.11 310.95 296.89 311.14 C 297.23 311.97 297.56 312.81 297.89 313.65 L 298.16 314.38 C 292.93 312.96 287.89 316.23 282.61 315.62 C 271.70 314.72 260.33 314.87 249.96 318.74 L 250.03 318.01 C 250.19 316.58 250.41 315.15 250.62 313.73 C 254.36 312.48 258.24 311.63 262.19 311.52 Z" />
</g>
<g id="#63615fff">
<path fill="#63615f" opacity="1.00" d=" M 231.92 316.75 C 234.13 315.58 236.36 314.42 238.40 312.97 C 238.70 317.19 242.20 319.76 245.92 320.95 C 247.44 320.19 248.71 319.06 250.03 318.01 L 249.96 318.74 C 250.09 321.30 250.40 323.86 250.69 326.41 L 250.81 327.19 C 247.45 328.31 243.86 328.52 240.70 326.66 C 240.46 328.89 240.18 331.12 239.89 333.36 C 244.51 333.22 249.12 333.06 253.74 332.80 C 254.01 332.50 254.55 331.89 254.82 331.59 C 254.42 331.20 253.61 330.42 253.21 330.03 C 255.46 330.25 257.73 330.32 259.99 330.29 C 258.64 332.44 257.56 335.08 255.03 336.09 C 249.61 338.73 243.36 341.23 237.28 339.85 C 233.57 338.21 227.66 337.36 227.79 332.15 C 231.55 332.44 235.30 332.88 239.03 333.48 C 238.89 331.27 238.79 329.06 238.69 326.86 C 235.66 325.89 232.87 327.45 230.33 328.97 C 231.19 327.49 232.33 326.10 232.75 324.41 C 232.51 321.85 231.94 319.32 231.92 316.75 Z" />
</g>
<g id="#dda98aff">
<path fill="#dda98a" opacity="1.00" d=" M 282.61 315.62 C 287.89 316.23 292.93 312.96 298.16 314.38 C 298.59 315.64 299.06 316.90 299.55 318.16 C 297.05 319.31 294.44 320.18 291.78 320.81 C 286.91 321.94 282.46 324.40 277.54 325.35 C 272.78 326.46 267.88 326.46 263.03 326.75 C 258.92 326.93 254.66 328.01 250.69 326.41 C 250.40 323.86 250.09 321.30 249.96 318.74 C 260.33 314.87 271.70 314.72 282.61 315.62 Z" />
</g>
<g id="#6e6d6dff">
<path fill="#6e6d6d" opacity="1.00" d=" M 297.89 313.65 C 299.69 313.85 302.03 313.02 303.38 314.60 C 304.55 316.05 305.18 317.84 305.96 319.51 C 304.50 320.20 303.05 320.90 301.58 321.57 C 300.88 320.44 300.18 319.32 299.55 318.16 C 299.06 316.90 298.59 315.64 298.16 314.38 L 297.89 313.65 Z" />
</g>
<g id="#4c4d4cff">
<path fill="#4c4d4c" opacity="1.00" d=" M 222.91 316.23 C 223.96 317.10 225.02 318.00 226.25 318.63 C 228.30 318.82 230.11 317.55 231.92 316.75 C 231.94 319.32 232.51 321.85 232.75 324.41 C 232.33 326.10 231.19 327.49 230.33 328.97 C 232.87 327.45 235.66 325.89 238.69 326.86 C 238.79 329.06 238.89 331.27 239.03 333.48 C 235.30 332.88 231.55 332.44 227.79 332.15 C 227.62 329.58 228.10 326.70 226.41 324.51 C 224.64 322.02 223.81 319.09 222.91 316.23 Z" />
</g>
<g id="#bc8a6dff">
<path fill="#bc8a6d" opacity="1.00" d=" M 299.55 318.16 C 300.18 319.32 300.88 320.44 301.58 321.57 L 300.85 321.89 C 299.50 322.23 298.15 322.56 296.80 322.86 C 294.55 323.31 292.31 323.77 290.08 324.24 C 287.85 323.36 285.48 323.98 283.96 325.82 C 279.04 326.98 274.14 328.22 269.14 329.00 C 267.66 328.39 266.01 328.66 264.89 329.83 C 263.25 330.00 261.62 330.18 259.99 330.29 C 257.73 330.32 255.46 330.25 253.21 330.03 C 252.32 329.15 251.56 328.17 250.81 327.19 L 250.69 326.41 C 254.66 328.01 258.92 326.93 263.03 326.75 C 267.88 326.46 272.78 326.46 277.54 325.35 C 282.46 324.40 286.91 321.94 291.78 320.81 C 294.44 320.18 297.05 319.31 299.55 318.16 Z" />
</g>
<g id="#624736b0">
<path fill="#624736" opacity="0.69" d=" M 283.96 325.82 C 285.48 323.98 287.85 323.36 290.08 324.24 C 288.34 325.63 286.14 326.07 283.96 325.82 Z" />
</g>
<g id="#474848ff">
<path fill="#474848" opacity="1.00" d=" M 240.70 326.66 C 243.86 328.52 247.45 328.31 250.81 327.19 C 251.56 328.17 252.32 329.15 253.21 330.03 C 253.61 330.42 254.42 331.20 254.82 331.59 C 254.55 331.89 254.01 332.50 253.74 332.80 C 249.12 333.06 244.51 333.22 239.89 333.36 C 240.18 331.12 240.46 328.89 240.70 326.66 Z" />
</g>
<g id="#49342898">
<path fill="#493428" opacity="0.60" d=" M 264.89 329.83 C 266.01 328.66 267.66 328.39 269.14 329.00 C 268.05 330.22 266.36 330.51 264.89 329.83 Z" />
</g>
</svg>
