<svg xmlns="http://www.w3.org/2000/svg" width="682.667" height="682.667" viewBox="0 0 512 512"  xmlns:v="https://vecta.io/nano"><path fill="#c2bdb6" opacity=".84" d="M285.25 74.89l1.76 3.02.24.83-.01 3.15-3.41-.62.95-4.67.47-1.71z"/><path fill="#56575a" opacity=".78" d="M281.19 84.25c2.33-1.6 2.51-5.13 3.59-7.65l-.95 4.67-.68 2.99c-.94 2.59-1.97 5.19-2.14 7.96-.55-1.62-1.21-3.21-2.15-4.65-2.67-.35-4.43 1.87-4.47 4.36l.58 8.12-.06 1.83c.97 7.8.44 15.72 1.97 23.46-.09 2.08-.28 4.15-.5 6.21l-.23 1.55-.09.73-.72 1.03-4.78-.91-2.81-.4c2.43-.52 4.91-.79 7.38-1.07.79-7.83-.76-15.61-.77-23.44-.05-4.59-.5-9.17-.77-13.75 0-3.01.29-6.01.58-9 2.37-.56 4.75-1.14 7.02-2.04z"/><path fill="#2a2a2c" opacity=".56" d="M287.01 77.91c1.47 2.19 2.6 4.9 5.11 6.1 1.97 1.05 4.08 1.85 6.16 2.69l.88 9.99c3.67 1.15 7.81 1.7 10.83 4.28.7 1.55.52 3.32.71 4.98.16 4.77 1.02 9.48 1.46 14.22.17 2.47 1.15 4.75 2.11 6.99-.84 1.15-1.69 2.31-2.47 3.51l-.13-1.78-.5-4.28-.15-1.79-.38-5.02-.92-9.88c-.25-2.34-.21-4.93-1.59-6.94-1.63-1.39-3.77-2.56-5.97-2.42-1.48.65-2.76 1.67-4.09 2.57.08-1.39.09-2.79.04-4.19-.14-3.1-.45-6.18-.8-9.26-1.69-.59-3.39-1.18-5.05-1.87-2.78-1.41-4.43-4.07-5.01-7.07l-.24-.83z"/><path fill="#8a8e82" d="M287.25 78.74c.58 3 2.23 5.66 5.01 7.07l-.49 1.5c-.77 1.43-1.79 2.77-2.24 4.35-.22 1.95.3 3.87.59 5.78l-3.81.74c-.7-1.96-1.24-3.97-1.68-6l2.9-.53-4.38-7.39.68-2.99 3.41.62.01-3.15z"/><path fill="#1e1f1f" opacity=".54" d="M273.19 85.02l8-.77c-2.27.9-4.65 1.48-7.02 2.04l-.58 9c-.21-3.42-.32-6.85-.4-10.27z"/><path fill="#abb49a" d="M281.01 92.22c.17-2.77 1.2-5.37 2.14-7.96l4.38 7.39-2.9.53c.44 2.03.98 4.04 1.68 6 2.18 5.07 2 10.81-.21 15.82 1.48 2.26 2.42 4.82 2.43 7.55l-4.17-1.04-1.41-.4c-1.17-9.25-1.08-18.6-1.94-27.89z"/><path fill="#787c71" d="M292.26 85.81l5.05 1.87.8 9.26-1.81-.39c-1.52.49-2.99 1.12-4.45 1.75 1.07-3.61 1.58-7.46-.08-10.99l.49-1.5m2.68 1.77c.07 2.45.47 4.88 1.26 7.2.69-1.71 1.55-3.58.88-5.46l-2.14-1.74z"/><path fill="#878990" d="M274.39 91.93c.04-2.49 1.8-4.71 4.47-4.36.94 1.44 1.6 3.03 2.15 4.65.86 9.29.77 18.64 1.94 27.89.65 6.4.18 12.85.69 19.26.58 7.09.55 14.22 1.49 21.28l.3 5.03-2.82 1.59.05-.78c.31-3.33.21-6.67-.06-10l.19-.88.09-1.73-.44-4.56c-.01-6.47-.61-12.92-.65-19.39-.03-3.71-.33-7.42-1.23-11.03l-.14-.64c-.07-3.1-.35-6.19-.77-9.26v-.78c-.01-1.76-.04-3.51-.11-5.26l-.03-.82c.1-2.07.26-4.13.25-6.2l-.19-3.25-.18-2.48a109.06 109.06 0 0 1-3.32 1.5l-1.68.22z"/><path fill="#abb29f" d="M289.53 91.66c.45-1.58 1.47-2.92 2.24-4.35 1.66 3.53 1.15 7.38.08 10.99 1.46-.63 2.93-1.26 4.45-1.75l-.42.99c-2.09 3.68-2.81 7.85-2.68 12.04l-1.88-4.67c-.35-2.5-.75-4.99-1.2-7.47-.29-1.91-.81-3.83-.59-5.78z"/><path fill="#abada5" d="M294.94 87.58l2.14 1.74c.67 1.88-.19 3.75-.88 5.46-.79-2.32-1.19-4.75-1.26-7.2z"/><path fill="#d4d2df" d="M276.07 91.71l3.32-1.5.18 2.48-1.46 2.63-2.04-3.61z"/><path fill="#b4b7c0" d="M274.39 91.93l1.68-.22 2.04 3.61 1.46-2.63.19 3.25-2.76.54c.63 1.97 1.52 3.84 2.51 5.66l.03.82-1.48 2.26c.34 1.09 1.01 2.03 1.59 3v.78c-.53 1.77-1.32 3.5-1.38 5.37-.09 1.61 1.37 2.65 2.15 3.89l.14.64c-2.36 1.68-1.3 4.67-1.21 7.07.77 7.79-.84 16.2 3.09 23.35l.44 4.56c-1.43-.64-2.38-.25-2.86 1.15.57 1.33 1.49 1.53 2.77.58l-.19.88c-.64 1.68-2.01 3.24-1.71 5.15.3 1.71 1.12 3.25 1.77 4.85l-.05.78c-.39 3.45-1.05 6.87-1.56 10.3l-1.12-7.64c-2.71-.02-5.41 0-8.12.12l1.09-1.52 5.78.79-.72-5.15c-.31-8.76.47-17.72-1.91-26.26l-.56-2.3-.15-.75.72-1.03c1.18.68 3.51-1.3 1.48-1.8-.35.26-1.04.8-1.39 1.07l.23-1.55 1.37-2.04-.87-4.17c-1.53-7.74-1-15.66-1.97-23.46l.78-.03.45-.69a61.33 61.33 0 0 1-1.17-1.11l-.58-8.12m2.72 43.34l-.42.71.4.72.83.01.42-.71-.41-.72-.82-.01m4.01 16l-.42.72.42.71h.82l.42-.71-.42-.72h-.82z"/><path fill="#d7d6e0" d="M277 96.48l2.76-.54-.25 6.2c-.99-1.82-1.88-3.69-2.51-5.66z"/><path fill="#767876" d="M286.31 98.18l3.81-.74 1.2 7.47-.39 7.03c-.95 11.15-.65 22.42 1.17 33.48-.83 5.55-.43 11.17.34 16.71.56 4.68.52 9.39.63 14.1.11 3.31.4 6.6.65 9.91.17 2.29.42 4.58.62 6.88l-3.98 1.2c1.07-3.02 1-6.25.55-9.37-.12-2-2.99-1.19-4.36-1.35l.29-3.89c.98-1.09 2.51-2.06 2.29-3.74.05-3.43-.34-6.84-.37-10.26l1.06 1.34c.64-11.95-1.01-23.86-1.38-35.79l-3.47 1.49c-.28-4.05-.24-8.1-.61-12.14 1.38.37 2.77.7 4.17 1.04-.01-2.73-.95-5.29-2.43-7.55 2.21-5.01 2.39-10.75.21-15.82z"/><path fill="#c1c0c4" d="M296.3 96.55l1.81.39-.04 4.19-.35 4.36c-1.56-2.36-1.99-5.17-1.84-7.95l.42-.99z"/><path fill="#848a78" d="M293.2 109.58c-.13-4.19.59-8.36 2.68-12.04-.15 2.78.28 5.59 1.84 7.95-.04 1.41-.03 2.82-.02 4.23-.67 5.48-4.31 10.65-2.37 16.29l.88-3.96 2.81 5.26c.75 2.98 1.59 5.93 2.22 8.94.12 2.48-.02 4.97-.19 7.45l2.81-2.96-1.2 4.17c-1.57 3.55-2.23 7.38-2.32 11.25.03 3.08-2.01 5.52-3.45 8.06-.54-1.85-1.16-3.66-1.78-5.48l-2.67 3.39c-.77-5.54-1.17-11.16-.34-16.71 2.13-5.28 1.09-10.97 1.37-16.49.12-5.77-1.05-11.45-2.54-16.99.09-2.35.29-4.68.39-7.03.59 1.57 1.24 3.12 1.88 4.67m2.14-2.53v.83l.71.41.72-.41v-.83l-.72-.41-.71.41z"/><path fill="#808084" d="M298.07 101.13c1.33-.9 2.61-1.92 4.09-2.57 2.2-.14 4.34 1.03 5.97 2.42 1.38 2.01 1.34 4.6 1.59 6.94l-1.39 4.11-1.7-10.21c-1.59 2.75-2.52 5.82-2.63 9l-3.85-.55.07 5.52 3.45-.17.19-2.94 3.32 2.72-.58 2.1a72.65 72.65 0 0 0-1.62 7.62l.26 2.74.7 7.15-.91 3.74-.96 1.18-.8-6.37c-.47-3.6-1.28-7.13-2.32-10.6l-1.7 1.23c-.42-4.83-1.32-9.62-1.55-14.47l.02-4.23.35-4.36m2.35 1.43l-.38 4.63 3.31-.45c-.44-1.77-1.13-3.45-2.93-4.18z"/><path fill="#e3e9f0" d="M274.97 100.05l1.17 1.11-.45.69-.78.03.06-1.83z"/><path fill="#5e5f63" d="M304 110.82c.11-3.18 1.04-6.25 2.63-9 .65 3.39 1.16 6.8 1.7 10.21l1.39-4.11.92 9.88-2.1-1.1-1.94.8.58-2.1-3.32-2.72.14-1.86z"/><path fill="#e9e9f3" d="M278.06 105.22l1.48-2.26.11 5.26c-.58-.97-1.25-1.91-1.59-3z"/><path fill="#9b9ba2" d="M300.42 102.56c1.8.73 2.49 2.41 2.93 4.18l-3.31.45.38-4.63z"/><path fill="#b2b1b9" d="M295.34 107.05l.71-.41.72.41v.83l-.72.41-.71-.41v-.83z"/><path fill="#dedde7" d="M278.27 114.37c.06-1.87.85-3.6 1.38-5.37.42 3.07.7 6.16.77 9.26-.78-1.24-2.24-2.28-2.15-3.89z"/><path fill="#acacad" d="M295.33 126.01c-1.94-5.64 1.7-10.81 2.37-16.29.23 4.85 1.13 9.64 1.55 14.47a81.79 81.79 0 0 0-.23 3.12c-.89-1.78-1.87-3.51-2.81-5.26l-.88 3.96z"/><path fill="#eeedf4" d="M300.15 110.27l3.85.55-.14 1.86-.19 2.94-3.45.17-.07-5.52z"/><path fill="#cccfbf" d="M290.93 111.94c1.49 5.54 2.66 11.22 2.54 16.99-.28 5.52.76 11.21-1.37 16.49-1.82-11.06-2.12-22.33-1.17-33.48z"/><path fill="#535253" d="M308.54 116.7l2.1 1.1.38 5.02c-1.59.85-3.12 1.81-4.62 2.82l2.52 1.94 2.25-2.97.5 4.28-4.39.54.19 3.55 3.59-.9-2.12 4.04-3-1.11c-.11-2.39-.39-4.78-.7-7.15l1.1-1.06-.08-.81-1.28-.87a72.65 72.65 0 0 1 1.62-7.62l1.94-.8z"/><path fill="#e0dfe5" d="M279.35 125.97c-.09-2.4-1.15-5.39 1.21-7.07.9 3.61 1.2 7.32 1.23 11.03.04 6.47.64 12.92.65 19.39-3.93-7.15-2.32-15.56-3.09-23.35z"/><path fill="#b6bba8" d="M282.95 120.11l1.41.4c.37 4.04.33 8.09.61 12.14l3.47-1.49c.37 11.93 2.02 23.84 1.38 35.79l-1.06-1.34c-.89-1.87-2.1-3.56-3.63-4.96-.94-7.06-.91-14.19-1.49-21.28-.51-6.41-.04-12.86-.69-19.26z"/><path fill="#3d3f3a" opacity=".98" d="M299.25 124.19l1.7-1.23c1.04 3.47 1.85 7 2.32 10.6l-2.03 2.69c-.63-3.01-1.47-5.96-2.22-8.94a81.79 81.79 0 0 1 .23-3.12z"/><path fill="#727273" d="M306.4 125.64l4.62-2.82.15 1.79-2.25 2.97-2.52-1.94z"/><path fill="#272728" d="M304.98 125.12l1.28.87.08.81-1.1 1.06-.26-2.74z"/><path fill="#eef0f3" d="M276.38 131.55l.5-6.21.87 4.17-1.37 2.04z"/><path opacity=".04" d="M311.8 130.67l2.47-3.51c.41 2.42-.38 4.77-1.09 7.05 4.34.53 8.69 1.04 13.06 1.37 4.05.31 7.94 1.58 11.82 2.72 4.27 1.24 8.32 3.4 12.84 3.66 3.7 2.42 7.18 5.44 11.6 6.43 3.22.69 5.72 2.9 8.54 4.44 2.98 1.2 6.32.94 9.36 1.98 2.76.95 5.36 2.32 8.06 3.44l-.02-6.24 3.82 1.6c-.25 1.87-1.41 3.91-.67 5.75 2.18 1.86 5.26 1.2 7.83 2.03 1.67.65 3.15 1.69 4.81 2.39 2.26.02 4.42-.81 6.59-1.36 3.05 2.49 6 5.21 9.59 6.92 1.72 1 3.63.04 5.35-.45l3.4 3.67 3.89-1.89 4.78 3.41c1.45-.55 2.89-1.28 4.46-1.43 1.92.2 3.68 1.06 5.53 1.56 2.26.72 4.65.61 6.99.82 3.04.13 4.93 3.39 7.98 3.43 3.28.02 6.54-.44 9.82-.58l2.3 4.13 4.27-5.11 7.01 3.61c2.01-.61 4.03-1.45 6.17-1.47 2.51.18 4.85 1.25 7.19 2.1l1.48-2.86c3.68 1.19 7.4 2.28 10.97 3.8v186.08c-5.9-3.48-12.85-1.6-19.23-3.03-2.04-.82-3.05 1.27-4.06 2.62l-4.72-2.42c-1.85 1.28-3.7 2.54-5.6 3.74-4.54-1.84-9.51-1.37-14.27-1.96-3.09-.5-5.96 1-8.96 1.33-1.03-.32-1.99-.82-2.95-1.27-4.5.58-8.45 2.85-12.66 4.29-2.13-1.17-3.41-3.35-4.94-5.15-1.94 1.87-4.06 4.38-7.07 3.97-3.82-.55-7.62-1.66-11.52-1.11l-.79 2.33c-4.65-1.58-9.41-.05-13.89 1.34l-4.27-2.78-3.22 3.39c-6.14-1.75-11.83 1.86-17.61 3.28l-1.08-3.53c-4.67-.41-9.28.6-13.44 2.72l-.7-3.13c-3.05 1.05-6.05 2.23-8.96 3.6l-3.57-4.32c-1.75 1.06-3.42 2.33-5.39 2.96-1.97.3-3.94-.24-5.86-.58-6.08-1.44-12.37-1.16-18.5-2.22-2.49-.58-4.85.47-7.06 1.49-7.49-2.71-15.63-1.95-23.39-3.28l-3.78 3.42-.36-2.64c-13.87.5-28.52 1.93-41.54-3.95-5.09-3.19-11.05-4.61-16.15-7.74-1.79-.92-2.47-2.82-2.93-4.63l1.25.96c.65 1.21 1.69 2.32 3.16 2.42 2.27.56 4.52 1.21 6.78 1.81 6.62 2.29 12.84 6.28 20.07 6.22l2.94.16c3.43.28 6.85.85 10.3.74 4.57-.13 8.99-1.41 13.5-2 3.29-.45 6.6-.82 9.88-1.39.84-2.76 2.06-5.38 3.73-7.74l1.23 3.17c3.51-.87 7.14-.48 10.16 1.6l-1.01-4.64c3.07-.68 6.16-1.27 9.26-1.82l.46-1.85c-2.45.26-4.98 1.1-7.42.49-2.3-1.72-3.82-4.68-6.82-5.28-5.62-1.35-11.58-.85-17.05-2.93-5.7-2.13-11.52-3.94-17.47-5.25l.56-2.56c3.99-1.23 7.26-3.85 10.31-6.6l11.92-9.35c5.74-4.21 11.34-8.6 16.99-12.91 1.88-2.36 2.29-5.4 2.78-8.27.48-2.28 1.1-4.52 1.52-6.8 2.13-1.43 4.29-2.84 6.2-4.56 2.46.2 4.84-.49 6.91-1.82 2.5-1.64 5.49-2.02 8.41-2.14 1.29-.13 2.6-.24 3.87-.58 1.35-2.2 2.05-4.73 3.09-7.08l1.08-2.1c1.55-5.66-.93-11.32-3.61-16.21l-.4-.69c-1.57-2.44-3.93-4.19-5.7-6.45-.87-2.16-1.07-4.51-1.48-6.78-1.34-8.77-4.2-17.22-5.86-25.93l-2.22-10.82c-.03-4.23.73-8.52-.45-12.66 1.57-1.32 2.93-3.15 4.96-3.76 2.32.1 4.56.79 6.87 1.04 3.71.46 7.51-.61 11.17.43 2.7.73 5.47 1.17 8.28 1.03 4.48-.19 8.94.84 13.43.33 1.54-.09 3.1-.36 4.65-.14 2.74.66 5.2 2.35 8.06 2.53 3.25.26 6.53-.17 9.77.3 3.65.49 7.03 2.06 10.37 3.55l1.07-4.45 4.52 2.33c2.03.04 4.09-.08 6.1.3 1.7.52 3.13 1.64 4.63 2.57l7.46-1.86 3.51 2.84c2.52-.02 5.05.03 7.57.14l-.95-5.55-3.69-.54.8-1.84 5.33.88c-1.24-3.03-3.06-6.28-6.3-7.47-2.19.07-4.28.96-6.47.91-2.32-.45-4.13-2.15-6.17-3.22-1.73-1.09-3.8-1.3-5.75-1.75-2.58-.54-5-1.68-7.62-2.06-2.71-.42-5.45-.54-8.18-.75l-4.26-6.3c-2.81-.31-5.65-.74-8.2-2.03-5.03-2.47-9.91-5.23-15.05-7.49l-1.98 3.32c-1.57-2.61-3.1-5.5-5.85-7.05-2.97-1.3-6.6-.68-9.23-2.79-2.75-2.12-5.85-3.69-9.13-4.8-1.47-3.06-3.4-6.01-6.51-7.6-4.89-3.58-11.09-3.91-16.55-6.17-3.81-1.53-7.98-1.87-12.03-1.39.36-1.23.66-2.48.91-3.74l3 1.11 2.12-4.04.74-1.41z"/><path fill="#6e6e6f" d="M307.28 129.43l4.39-.54.13 1.78-.74 1.41-3.59.9-.19-3.55z"/><path fill="#eff2f5" d="M277.54 132.03c2.03.5-.3 2.48-1.48 1.8l.09-.73 1.39-1.07z"/><path fill="#3e4141" d="M256.18 141.94c2.79-3.96 6.87-7.1 11.57-8.39l2.81.4c-.7 1.71-1.4 3.42-2.02 5.16l-.82-2.11c-2.54 2.16-5.01 4.42-7.83 6.21-1.06.63-2.16 1.21-3.24 1.8l-.47-3.07z"/><path fill="#262a32" d="M270.56 133.95l4.78.91.15.75-5.53 7.79-1.42-4.29 2.02-5.16z"/><path opacity=".1" d="M301.24 136.25l2.03-2.69.8 6.37.96-1.18c4.05-.48 8.22-.14 12.03 1.39 5.46 2.26 11.66 2.59 16.55 6.17 3.11 1.59 5.04 4.54 6.51 7.6 3.28 1.11 6.38 2.68 9.13 4.8 2.63 2.11 6.26 1.49 9.23 2.79 2.75 1.55 4.28 4.44 5.85 7.05l1.98-3.32c5.14 2.26 10.02 5.02 15.05 7.49 2.55 1.29 5.39 1.72 8.2 2.03 1.45 2.07 2.86 4.18 4.26 6.3 2.73.21 5.47.33 8.18.75 2.62.38 5.04 1.52 7.62 2.06 1.95.45 4.02.66 5.75 1.75 2.04 1.07 3.85 2.77 6.17 3.22 2.19.05 4.28-.84 6.47-.91 3.24 1.19 5.06 4.44 6.3 7.47l-5.33-.88c-.28.61-.54 1.23-.8 1.84l3.69.54.95 5.55c-2.52-.11-5.05-.16-7.57-.14l-3.51-2.84-7.46 1.86c-1.5-.93-2.93-2.05-4.63-2.57-2.01-.38-4.07-.26-6.1-.3l-4.52-2.33-1.07 4.45c-3.34-1.49-6.72-3.06-10.37-3.55-3.24-.47-6.52-.04-9.77-.3-2.86-.18-5.32-1.87-8.06-2.53-1.55-.22-3.11.05-4.65.14-4.49.51-8.95-.52-13.43-.33-2.81.14-5.58-.3-8.28-1.03-3.66-1.04-7.46.03-11.17-.43-2.31-.25-4.55-.94-6.87-1.04-2.03.61-3.39 2.44-4.96 3.76-2.93-5.32-6.11-10.81-11.14-14.42-3.86-3.22-8.06-6.22-11.07-10.29-1.82-3.39.9-6.82 2.28-9.83 2.67-4.82 2.92-10.47 2.19-15.81l1.2-4.17-2.81 2.96c.17-2.48.31-4.97.19-7.45z"/><path fill="#fcfdff" d="M277.11 135.27l.82.01.41.72-.42.71-.83-.01-.4-.72.42-.71z"/><path fill="#bf967d" d="M275.49 135.61l.56 2.3-.92 7.5-1.97-3.78-3.41 3.43.21-1.66c1.58-2.77 3.64-5.23 5.53-7.79z"/><path fill="#767370" d="M259.89 143.21c2.82-1.79 5.29-4.05 7.83-6.21l.82 2.11 1.42 4.29-.21 1.66-5.15 5.48c-2.73-1.56-4.3-4.25-4.71-7.33z"/><path fill="#847b79" d="M276.05 137.91c2.38 8.54 1.6 17.5 1.91 26.26-.79-4.87-1.07-9.8-1.07-14.73-.45.1-1.36.28-1.81.37l.05-4.4c.28-2.5.7-4.99.92-7.5z"/><path fill="#575857" d="M256.18 141.94l.47 3.07 3.24-1.8c.41 3.08 1.98 5.77 4.71 7.33-2.71 3-5.03 6.36-8.1 9.02-1.68-.54-3.38-1.02-5.09-1.45l-.36-.95c1.01-5.27 2.54-10.49 5.13-15.22z"/><path fill="#ebba99" d="M269.75 145.06l3.41-3.43 1.97 3.78-.05 4.4-.02 1.9c-1.49 4.56-3 9.4-6.38 12.97-3.82 3.65-8.37 6.82-13.67 7.79-1.31-1.22-2.54-2.5-3.79-3.76.51-1.92 1-3.84 1.6-5.73 1.19-1.17 2.44-2.29 3.68-3.42 3.07-2.66 5.39-6.02 8.1-9.02 1.74-1.81 3.52-3.57 5.15-5.48z"/><path fill="#656562" d="M300.34 156.16c.09-3.87.75-7.7 2.32-11.25.73 5.34.48 10.99-2.19 15.81-1.38 3.01-4.1 6.44-2.28 9.83 3.01 4.07 7.21 7.07 11.07 10.29l-.63.45-1.16.91c.62 1.48 1.31 2.92 2.01 4.37l-1.91 3.11c-2.31-2.16-4.47-4.47-6.48-6.9l-1.53 2.43c-.63-1.8-1.37-3.55-1.98-5.35-.79-5.18-.79-10.43-.69-15.64 1.44-2.54 3.48-4.98 3.45-8.06z"/><path fill="#4f433c" d="M275.08 149.81l1.81-.37c0 4.93.28 9.86 1.07 14.73.21 1.72.47 3.43.72 5.15l-5.78-.79c4.15-4.67 2.04-11.22 2.16-16.82l.02-1.9z"/><path fill="#e9e6f2" d="M281.12 151.27h.82l.42.72-.42.71h-.82l-.42-.71.42-.72z"/><path fill="#d6a787" d="M268.68 164.68c3.38-3.57 4.89-8.41 6.38-12.97-.12 5.6 1.99 12.15-2.16 16.82l-1.09 1.52c-.86 1.2-1.63 2.47-2.27 3.8-.4 1.4-.77 2.81-1.1 4.23l-5.12-1.08c-2.87-1.33-5.68-2.79-8.31-4.53 5.3-.97 9.85-4.14 13.67-7.79z"/><path fill="#e4e0ea" d="M280.02 155.03c.48-1.4 1.43-1.79 2.86-1.15l-.09 1.73c-1.28.95-2.2.75-2.77-.58z"/><path fill="#40403f" opacity=".98" d="M250.59 156.01l.46 1.15.36.95 5.09 1.45-3.68 3.42-3.33 3.4c.67-3.42.83-6.9 1.1-10.37z"/><path fill="#e2e0ea" d="M280.89 161.64c-.3-1.91 1.07-3.47 1.71-5.15.27 3.33.37 6.67.06 10-.65-1.6-1.47-3.14-1.77-4.85z"/><path fill="#b4baa7" d="M292.44 162.13l2.67-3.39c.49 5.98.67 11.99.48 17.99l-2.52-.5c-.11-4.71-.07-9.42-.63-14.1z"/><path fill="#95998c" d="M295.11 158.74l1.78 5.48c-.1 5.21-.1 10.46.69 15.64-.84.51-1.67 1.02-2.48 1.57-.68 1.5-1.11 3.09-1.38 4.71-.25-3.31-.54-6.6-.65-9.91l2.52.5c.19-6 .01-12.01-.48-17.99m-1.06 19.59l-.42.72.41.71h.83l.41-.71-.41-.72h-.82z"/><path fill="#aab195" d="M285.13 160.65c1.53 1.4 2.74 3.09 3.63 4.96.03 3.42.42 6.83.37 10.26.22 1.68-1.31 2.65-2.29 3.74-.56-4.63-1.24-9.26-1.41-13.93l-.3-5.03z"/><path fill="#605f5c" d="M249.49 166.38c1.05-1.19 2.19-2.3 3.33-3.4l-1.6 5.73 3.79 3.76c2.63 1.74 5.44 3.2 8.31 4.53-6.27 1.04-12.58 1.85-18.86 2.83.06-1.94.03-3.89.4-5.81l2-3.84c1.58 2.1 3.55-1.19 1.23-1.97l1.4-1.83z"/><path fill="#4e4d4b" d="M282.61 167.27l2.82-1.59c.17 4.67.85 9.3 1.41 13.93-.07 1.3-.18 2.6-.29 3.89-.17 2.03-.33 4.07-.84 6.05l-.39 1.5-.21-.87-.22-.88c-.32-1.62-.58-3.24-.78-4.86l-.25-5.39c-2.84-.11-5.67-.15-8.5-.13l-.42 6.29-2.61.27-1.17-4.8-3.28-.99c.06 2.06.12 4.13.28 6.19l-1.38 1.62-3.17-1.46c-.95.88-1.84 1.82-2.86 2.62-3.84-1.29-6.36-5.65-10.73-5.53-3.29-.13-5.91 2.1-8.45 3.86 1.26 2.18 2.12 4.8 4.23 6.33 3.37 1.6 7.24 1.26 10.88 1.4l1.3 3.07-5.88-.46c-3.42-.54-6.82-1.2-10.26-1.63-3.11-1.2-5.95-4.38-9.46-3.71-1.59 1.84-2.73 4.02-3.98 6.1.92-3.9 2.12-7.84 4.5-11.13 2.05-2.97 5.29-4.76 7.87-7.22 1.71-1.62 2.93-3.68 4.09-5.72-.37 1.92-.34 3.87-.4 5.81l18.86-2.83 5.12 1.08 3.21.67-2.11-4.9c.64-1.33 1.41-2.6 2.27-3.8.07 2.59.21 5.18.35 7.77l8.89-.25c.51-3.43 1.17-6.85 1.56-10.3z"/><path fill="#797979" opacity=".88" d="M246.86 170.18l1.23-1.97c2.32.78.35 4.07-1.23 1.97z"/><path fill="#c7c8d6" d="M271.81 170.05l8.12-.12 1.12 7.64-8.89.25-.35-7.77z"/><path fill="#afb2bd" d="M269.54 173.85l2.11 4.9-3.21-.67 1.1-4.23z"/><path fill="#d5d7d2" d="M294.05 178.33h.82l.41.72-.41.71h-.83l-.41-.71.42-.72z"/><path fill="#85868a" d="M275.36 178.92l8.5.13.25 5.39-.92 3.1 1.7 1.76.22.88-5.2 1.03c.15 5.65.4 11.32-.1 16.96-.79-4.97-.09-10.04-.83-15-1.13-2.76-3.35-4.99-4.04-7.96.09-2.1.26-4.19.42-6.29z"/><path fill="#1e2126" d="M267.88 179.69l3.28.99 1.17 4.8 2.61-.27c.69 2.97 2.91 5.2 4.04 7.96.74 4.96.04 10.03.83 15 .81 2.13 1.8 4.17 2.72 6.25l.58 1.29c-2.82-.93-5.6-1.96-8.37-3.01l.53-3.68c.37-3.46-.96-6.7-2.56-9.68-2.06-4.27-3.84-8.75-4.55-13.46-.16-2.06-.22-4.13-.28-6.19z"/><path fill="#83867d" d="M297.58 179.86l1.98 5.35c.66 4.54-.7 9.04-.56 13.57 1.01 2.26 2.76 4.06 4.33 5.94l-1.97 2.6-.95 1.32c-1.02 2.64-1.79 5.38-2.61 8.09l-.45-3.05-2.11.69.53 3.65-2.87.13c0 1.99 0 3.98.12 5.98h-.83c-.2-1.85-.3-3.72-.76-5.52-1.45-1.33-3.25-2.18-4.94-3.16-.98-.61-2.05-.92-3.21-.92l-.75-.11c-.92-2.08-1.91-4.12-2.72-6.25l1.67-.29c.63 1.38 1.21 2.79 1.81 4.2l6.89-.29-3.55-4.92 1.22-.25c1.12-.42 2.68-.3 3.43-1.33.77-2.3.46-4.79.53-7.17l-2.26 3.46-1.76-2.66c.81-1.59 1.74-3.13 2.57-4.7l3.98-1.2c.43 4.69.29 9.41.42 14.11.23 1.46.57 2.91 1.01 4.34l1.62-.76c1.5-3.9.78-8.14-.5-11.99-1.3-5.68-.81-11.57-1.79-17.29.81-.55 1.64-1.06 2.48-1.57z"/><path fill="#adadaf" d="M293.72 186.14c.27-1.62.7-3.21 1.38-4.71.98 5.72.49 11.61 1.79 17.29l-.25 9.29-1.88-.88c-.13-4.7.01-9.42-.42-14.11l-.62-6.88z"/><path fill="#565654" d="M309.26 180.84c5.03 3.61 8.21 9.1 11.14 14.42 1.18 4.14.42 8.43.45 12.66l.03 3.22c-.72-1.1-1.48-2.16-2.24-3.22-1.86 1.31-4.02 2.41-5.32 4.34.01 1.4.34 2.76.6 4.13l-1.51.23c-.5.07-1.51.19-2.01.25-.6-2.38-.74-5.04-2.25-7.07-1.91-1.56-4.44-2-6.79-2.48l1.97-2.6c-1.57-1.88-3.32-3.68-4.33-5.94-.14-4.53 1.22-9.03.56-13.57l1.53-2.43c2.01 2.43 4.17 4.74 6.48 6.9l1.91-3.11 1.61-2.56-2.46-2.72.63-.45m-1.91 11.54c-1.73 3.06-1.89 6.91-1.15 10.29 2.64 2.79 7.05 1.97 10.54 2.34-1.56-4.44-2.31-9.19-4.46-13.41-1.57-.78-3.95-1.01-4.93.78z"/><path fill="#747474" d="M307.47 182.2l1.16-.91 2.46 2.72-1.61 2.56-2.01-4.37z"/><path fill="#3f3d3b" d="M241.57 186.99c2.54-1.76 5.16-3.99 8.45-3.86 4.37-.12 6.89 4.24 10.73 5.53 1.02-.8 1.91-1.74 2.86-2.62 1.06.47 2.11.97 3.17 1.46l1.38-1.62c.71 4.71 2.49 9.19 4.55 13.46l-4.38 2.3-.62.34.97-2.83-3.82-2.34c.19 1.95 1.21 4.2-.08 5.98-.42 1.34-2.15 1.87-3.19.89-1.28-1.3-2.15-2.92-3.04-4.49l-.57-1.4-1.3-3.07c-3.64-.14-7.51.2-10.88-1.4-2.11-1.53-2.97-4.15-4.23-6.33z"/><path fill="#92968d" d="M286.55 183.5c1.37.16 4.24-.65 4.36 1.35l-1.87 6.97-3.33-2.27c.51-1.98.67-4.02.84-6.05z"/><path fill="#ceced6" d="M283.19 187.54l.92-3.1.78 4.86-1.7-1.76z"/><path fill="#979c91" d="M289.04 191.82l1.87-6.97c.45 3.12.52 6.35-.55 9.37l-2.57 4.7c-.26 2.56-.13 5.14.06 7.7l-1.22.25-1.56.31-.34-.92-.2-4.12-.04-.85.6-8.54.23-1.7.39-1.5 3.33 2.27z"/><path fill="#b3b6c0" d="M279.91 191.21l5.2-1.03.21.87-.23 1.7-3.02.63c.54 2.71 1.42 5.33 2.42 7.91l.04.85-1.97 1.13 2.17 2.99.34.92-3.59.7-1.67.29c.5-5.64.25-11.31.1-16.96z"/><path fill="#6b6b6c" d="M307.35 192.38c.98-1.79 3.36-1.56 4.93-.78 2.15 4.22 2.9 8.97 4.46 13.41-3.49-.37-7.9.45-10.54-2.34-.74-3.38-.58-7.23 1.15-10.29z"/><path fill="#636565" d="M232.38 191.99c3.51-.67 6.35 2.51 9.46 3.71-1.32.09-2.63.24-3.94.38l-.12 3.78-4.54.42c-1.64-.68-3.24-1.44-4.84-2.19 1.25-2.08 2.39-4.26 3.98-6.1z"/><path fill="#cccad4" d="M282.07 193.38l3.02-.63-.6 8.54c-1-2.58-1.88-5.2-2.42-7.91z"/><path fill="#939497" d="M241.84 195.7c3.44.43 6.84 1.09 10.26 1.63-3.89-.33-7.81-.16-11.62.68 5.67 2.85 12.13 3.13 18.16 4.85l.02 2.7c-6.38-2.15-13.08-4.13-19.88-3.09l-1.7.15c-1.56-.58-3.09-1.26-4.6-1.93l.76-.41 4.54-.42.12-3.78 3.94-.38z"/><path d="M240.48 198.01c3.81-.84 7.73-1.01 11.62-.68a188.93 188.93 0 0 0 5.88.46l.57 1.4c.06 1.22.08 2.44.09 3.67-6.03-1.72-12.49-2-18.16-4.85zm5.72 72.15l5.35-2.37 1.67 3.47-2.8 2.3-3.88-.53-.34-2.87z" fill="#616362"/><path fill="#575755" d="M264.86 196.81l3.82 2.34-.97 2.83-1.04.64 3.39 8.38 4.68 1.7 8.37 3.01-.58-1.29.75.11c.03 1.79 2.39 2.86 3.21.92 1.69.98 3.49 1.83 4.94 3.16.46 1.8.56 3.67.76 5.52l-3.3.18-.23-4.52-.02-.27-.27-.16-1.79-1-1.89 1.8c-5.81-3.3-12.01-6.61-18.93-6.12 3.2 1.87 6.76 3.16 9.61 5.59l-2.57 3.12c-1.03.68-2.26 1.13-3.06 2.11-.43 1.38-.65 2.82-.91 4.25l4.32-1.51c3.41.52 6.64 1.79 9.63 3.5l1.92-.41c1.86-.42 3.77-.72 5.57-1.37 1.58-1 2.7-2.55 4.05-3.82.97-.83 2.01-1.59 3.04-2.35 1.12.74 2.24 1.48 3.3 2.32-1.7 3.04-3.14 6.6-2.04 10.1.95 2.5 2.99 4.36 4.74 6.31-.8 1.5-1.73 2.93-2.74 4.3-3.2 2.21-5.94-1.6-8.14-3.53l-1.19-1.4c-2.47-.66-5.04-1.07-7.36-2.18-1.8-1.71-2.23-4.41-3.87-6.27-3.59-2.76-8.39-2.51-12.67-2.39l-4.3.14c1.85-1.57 3.49-3.38 5.04-5.25l-7.74 1.49c-2.44-1.91-5.12-3.59-8.22-4.14-6.72-1.31-13.55-3.2-20.43-1.95l.1-2.18c4.7.45 9.42.45 14.12.77 4.01.23 7.81 1.57 11.64 2.63 1.6.41 3.2.75 4.82 1.1-.7-2.96-1.75-5.83-3.28-8.46.17-1.83.12-3.67.02-5.49 1.42-.64 2.8-1.34 4.19-2.04-4.64-.33-9.31-.11-13.94-.59-3.83-.4-7.26-2.25-10.63-3.97 6.8-1.04 13.5.94 19.88 3.09l-.02-2.7c-.01-1.23-.03-2.45-.09-3.67.89 1.57 1.76 3.19 3.04 4.49 1.04.98 2.77.45 3.19-.89 1.29-1.78.27-4.03.08-5.98m2.47 22.27v.82l.71.42.72-.41v-.83l-.71-.41-.72.41z"/><path fill="#a1a792" d="M289.55 201.58l2.26-3.46c-.07 2.38.24 4.87-.53 7.17-.75 1.03-2.31.91-3.43 1.33-.19-2.56-.32-5.14-.06-7.7l1.76 2.66z"/><path fill="#a3aa93" d="M296.89 198.72c1.28 3.85 2 8.09.5 11.99l-1.62.76c-.44-1.43-.78-2.88-1.01-4.34l1.88.88c.01-3.1.17-6.19.25-9.29z"/><path fill="#4d4d4d" d="M268.33 201.64l4.38-2.3c1.6 2.98 2.93 6.22 2.56 9.68-1.45-.64-3.02-1.11-4.27-2.11-1.16-1.61-1.84-3.49-2.67-5.27z"/><path fill="#64625b" d="M230.48 210.27c-1.01-3.37-.72-7.09 2-9.58l4.6 1.93-2.95.4 4.44 2.01c-3.07 1.11-5.72 3.04-8.09 5.24z"/><path fill="#707074" d="M266.67 202.62l1.04-.64.62-.34c.83 1.78 1.51 3.66 2.67 5.27 1.25 1 2.82 1.47 4.27 2.11l-.53 3.68-4.68-1.7-3.39-8.38z"/><path fill="#e2dfeb" d="M282.56 203.27l1.97-1.13.2 4.12-2.17-2.99z"/><path fill="#42423d" d="M234.13 203.02l2.95-.4 1.7-.15c3.37 1.72 6.8 3.57 10.63 3.97 4.63.48 9.3.26 13.94.59-1.39.7-2.77 1.4-4.19 2.04-7.08.47-14.29-.66-20.59-4.04l-4.44-2.01z"/><path fill="#8c8d84" d="M230.48 210.27c2.37-2.2 5.02-4.13 8.09-5.24 6.3 3.38 13.51 4.51 20.59 4.04.1 1.82.15 3.66-.02 5.49l-1.54 7.36c-3.83-1.06-7.63-2.4-11.64-2.63-4.7-.32-9.42-.32-14.12-.77-.13-2.24-.54-4.45-1.01-6.63l-.35-1.62z"/><path fill="#86c8f4" d="M281.48 207.88l3.59-.7 1.56-.31 3.55 4.92-6.89.29-1.81-4.2m1.7-.15l.32 2.93 4.53.15c-.99-1.9-2.75-2.89-4.85-3.08z"/><path fill="#4a4a48" d="M301.36 207.32c2.35.48 4.88.92 6.79 2.48 1.51 2.03 1.65 4.69 2.25 7.07l-1 .16-2.34-1.64-6.65-6.75.95-1.32z"/><path fill="#c5ffff" d="M283.18 207.73c2.1.19 3.86 1.18 4.85 3.08l-4.53-.15-.32-2.93z"/><path fill="#6f6e6d" d="M313.32 212.26c1.3-1.93 3.46-3.03 5.32-4.34l2.24 3.22.13.96c-2.17 1.71-4.49 3.29-7.09 4.29-.26-1.37-.59-2.73-.6-4.13z"/><path fill="#474746" d="M320.85 207.92c.67 3.62 1.52 7.2 2.22 10.82 1.66 8.71 4.52 17.16 5.86 25.93.41 2.27.61 4.62 1.48 6.78 1.77 2.26 4.13 4.01 5.7 6.45-1.17-.89-2.4-1.71-3.61-2.54-.42 5.24.63 10.42.64 15.65l-2.27 2.41-2.95-.65 1.35-10.82c.32-5.06.01-10.16-.77-15.17-.88-5.76-2.89-11.26-4.03-16.96-1.19-5.9-2.69-11.74-3.46-17.72l-.13-.96-.03-3.22z"/><path fill="#6a696e" d="M297.8 216.73l2.61-8.09 6.65 6.75-.87 1.72-4.62-3.28c-1.33 1.46-2.29 3.2-2.74 5.13l-1.47 4.19-1.59-5.13-.53-3.65 2.11-.69.45 3.05m3.53-4.43v.44h.45v-.45l-.45.01z"/><path fill="#676664" d="M225.52 218.47c2.05-1.95 3.65-4.3 5.31-6.58.47 2.18.88 4.39 1.01 6.63l-.1 2.18c-4.89.63-9.98 1.79-13.49 5.52 4.63.2 9.13-1.01 13.65-1.84 6.88-1.3 13.83.18 20.71.79l-.44-2.52c3.1.55 5.78 2.23 8.22 4.14l7.74-1.49c-1.55 1.87-3.19 3.68-5.04 5.25l-1.4 1.16c-2.52 1.12-4.76 2.83-5.75 5.51-1.59 3.04-3.05 6.16-4.19 9.4l-8.33 3.61.53-3.85c2.42-.54 4.74-1.41 7.05-2.28l-1.11-4.54-3.47.12 1.28-4.53-1.27-.12c-5.91-1.37-12.11-1.81-18.09-.64-4.91 1.08-9.08 4.07-13.57 6.19.11-2.99 1.67-5.59 3.37-7.95l-4.41-1.21c.93-2.22 1.29-4.85 3.18-6.51 2.67-2.41 5.99-3.97 8.61-6.44z"/><path fill="#9e9aa0" d="M301.33 212.3l.45-.01v.45h-.45v-.44z"/><path fill="#cb9779" d="M313.92 216.39c2.6-1 4.92-2.58 7.09-4.29.77 5.98 2.27 11.82 3.46 17.72 1.14 5.7 3.15 11.2 4.03 16.96.78 5.01 1.09 10.11.77 15.17l-4.96 1.26c1.86-14.45-2.1-28.95-7.27-42.33-.73 3.18-.55 6.44-.55 9.67.02 4.55-1.13 9.01-1.17 13.56-.03 3.86 1.51 7.47 2.27 11.21.62 2.77.67 5.62.69 8.46-1.08-.89-2.58-1.63-2.82-3.14-.83-3.98-1.32-8.04-2.63-11.91l-.24-1.46c.61-3.73 1.36-7.45 1.45-11.23.33-6.53-1.25-12.93-1.63-19.42.38-.05 1.13-.17 1.51-.23z"/><path fill="#60637a" d="M265.76 214.04c6.92-.49 13.12 2.82 18.93 6.12.46 3.5.45 7.03.01 10.53l-1.92.41c-2.99-1.71-6.22-2.98-9.63-3.5l-.35-4.85 2.57-3.12c-2.85-2.43-6.41-3.72-9.61-5.59m12.43 4.28l-.01.45h.45v-.45h-.44m-4.03 4.94l-.42.72.41.71h.83l.41-.71-.41-.72h-.82z"/><path fill="#9ea590" d="M283.28 214.53c1.16 0 2.23.31 3.21.92-.82 1.94-3.18.87-3.21-.92z"/><path fill="#3d3231" d="M298.83 218.96c.45-1.93 1.41-3.67 2.74-5.13l4.62 3.28c-.78 4.74-.1 9.56.39 14.29-1.1-3.36-2.08-6.82-3.99-9.83l-.57-.45c-1.05-.75-2.13-1.45-3.19-2.16z"/><path fill="#78786f" d="M257.6 221.92l1.54-7.36c1.53 2.63 2.58 5.5 3.28 8.46l-4.82-1.1z"/><path opacity=".08" d="M306.19 217.11l.87-1.72 2.34 1.64c0 9.3 1.72 18.57.62 27.87l-.91.07c-1.12-2.42-1.72-5.06-1.73-7.72l-.12-3.33-.21-.77-.47-1.75c-.49-4.73-1.17-9.55-.39-14.29z"/><path fill="#614635" opacity=".84" d="M309.4 217.03l1-.16c.05 3.66.31 7.32.65 10.96.72 6.47-.14 13.07 1.54 19.44l.24 1.46c-.61 3.71-1.28 7.48-.68 11.25a60.39 60.39 0 0 1-2.12-4.36c.1-2.65-.03-5.3-.12-7.94l.11-2.78c1.1-9.3-.62-18.57-.62-27.87z"/><path fill="#b58466" d="M310.4 216.87l2.01-.25c.38 6.49 1.96 12.89 1.63 19.42-.09 3.78-.84 7.5-1.45 11.23-1.68-6.37-.82-12.97-1.54-19.44-.34-3.64-.6-7.3-.65-10.96z"/><path fill="#a4a2b1" d="M278.19 218.32h.44v.45h-.45l.01-.45z"/><path fill="#6d7084" d="M286.58 218.36l1.79 1 .29.43.23 4.52 3.3-.18h.83l1.3 1.37c-1.35 1.27-2.47 2.82-4.05 3.82-1.8.65-3.71.95-5.57 1.37.44-3.5.45-7.03-.01-10.53l1.89-1.8z"/><path fill="#c3c2cb" d="M292.9 218.15l2.87-.13c.44 1.73 1.01 3.43 1.59 5.13l-3.04 2.35-1.3-1.37-.12-5.98z"/><path fill="#898685" d="M267.33 219.08l.72-.41.71.41v.83l-.72.41-.71-.42v-.82z"/><path d="M288.37 219.36l.27.16.02.27-.29-.43zm35.9 47.92h.46v.46h-.46v-.46z" fill="#fff"/><path fill="#555154" d="M298.83 218.96l3.19 2.16-1.36.96-.04.76.56.44.74-.2.67-1.51c1.91 3.01 2.89 6.47 3.99 9.83l.47 1.75-2.26-1.48c-1.89-1.69-2.86-4.07-4.13-6.2-1.06-.84-2.18-1.58-3.3-2.32a80.06 80.06 0 0 0 1.47-4.19z"/><path fill="#95938a" d="M231.74 220.7c6.88-1.25 13.71.64 20.43 1.95l.44 2.52c-6.88-.61-13.83-2.09-20.71-.79-4.52.83-9.02 2.04-13.65 1.84 3.51-3.73 8.6-4.89 13.49-5.52z"/><path fill="#918f94" d="M300.66 222.08l1.36-.96.57.45-.67 1.51-.74.2-.56-.44.04-.76z"/><path fill="#dfac8e" d="M316.49 230.55c0-3.23-.18-6.49.55-9.67 5.17 13.38 9.13 27.88 7.27 42.33-1.74.32-3.5.57-5.25.72l-.78-.15c-.02-2.84-.07-5.69-.69-8.46-.76-3.74-2.3-7.35-2.27-11.21.04-4.55 1.19-9.01 1.17-13.56z"/><path fill="#70778e" d="M269.74 224.86c.8-.98 2.03-1.43 3.06-2.11l.35 4.85-4.32 1.51.91-4.25z"/><path fill="#898999" d="M274.16 223.26h.82l.41.72-.41.71h-.83l-.41-.71.42-.72z"/><path fill="#626376" d="M298.62 235.57c-1.1-3.5.34-7.06 2.04-10.1 1.27 2.13 2.24 4.51 4.13 6.2l-2.94 3.45 5.41-1.2c.07 1.1.08 2.21.12 3.33l-2.46.67-1.56 3.96c-1.75-1.95-3.79-3.81-4.74-6.31z"/><path fill="#606261" d="M261.69 231.71l1.4-1.16 4.3-.14c-3.82 4.29-5.93 9.82-6 15.56l-3.78 2.05c1.37 1.7 3.69 3.3 3.27 5.78-.09 2.16-2.19 3.64-4.12 4.11-1.81-.09-3.56-.64-5.31-1.1-.71 1.77-1.41 3.53-2.21 5.26l-5.49 2.84c2.94-5.98 6.4-11.75 8-18.29 1.14-3.24 2.6-6.36 4.19-9.4 2.35-1.35 4.18-3.34 5.75-5.51z"/><path fill="#848179" d="M267.39 230.41c4.28-.12 9.08-.37 12.67 2.39 1.64 1.86 2.07 4.56 3.87 6.27 2.32 1.11 4.89 1.52 7.36 2.18l1.19 1.4c-1.25 0-2.5 0-3.74-.05l-2.81-.69-1.88 5.06-1.6 4.1-1.07-1.95-3.58 6.32c-1.78-1.39-3.81-2.62-5-4.59.36-2.44 1.35-4.72 2.21-7l-.62-1.83-2.91 2.46-1.71-2.74c-1.87.7-3.96 1.09-5.51 2.41-.52 1.38-.82 2.83-1.23 4.24l-1.04 1.18c-.21-1.2-.44-2.4-.6-3.6.07-5.74 2.18-11.27 6-15.56z"/><path fill="#5b5c5a" d="M213.73 231.42l4.41 1.21c-1.7 2.36-3.26 4.96-3.37 7.95l-.32 3.44c4.55-2.84 9.2-6.02 14.69-6.57 5.79-.66 11.84.09 17.29-2.42l1.27.12-1.28 4.53 3.47-.12 1.11 4.54c-2.31.87-4.63 1.74-7.05 2.28l-2.52.35c-.34 2.5.68 4.82 1.1 7.23-.58 2.56-1.96 4.85-3.1 7.2l5.62-2.92c-1.96 3.31-3.91 6.89-3.61 10.89-.81-2.25-1.88-4.4-2.93-6.55l-2.71-.5c-.14-3.24-.51-6.48-1.54-9.57l2.06-4.88-1.27.43c2.53-1.73 5.23-3.2 7.92-4.67-1.41-1.28-2.55-3.39-4.67-3.43-6.32-.32-11.94 4.26-14.4 9.83-1.39 3.5-1.79 7.28-2.21 10.99-.21 2.51-.48 5.29 1.05 7.47.93 1.64 2.78 2.31 4.4 3.09.58 1.15 1.22 2.29 1.91 3.4L227 278.2l-6.08-4.16c2.17 2.71 4.41 5.36 6.76 7.92l.55.59c-1.85-.83-3.74-1.55-5.61-2.3l-1.31 5.34c3.32 1.94 6.75 3.91 10.63 4.42 5.02.73 10.1.85 15.16 1.04-2.79 1.08-5.54 3.09-8.68 2.62-6.58-1.08-13.46-1.28-19.45-4.58 2.91 2.36 5.18 5.48 8.38 7.47 5.98 2.76 13.38 2.94 19.3-.07 4.11-3.06 8.53-5.92 11.7-10.01 2.85.22 5.72.65 8.59.41 3.43-.49 6.42-2.52 9.83-3.11 2.3-.3 4.61.12 6.88.43l-1.48-2.36c2.26-3.93 4.59-7.81 6.63-11.85l1.18 5.64-2.1 2.95c-1.18.32-2.32.73-3.46 1.15l2.38 3.17c-2.1 1.51-4.15 3.26-6.7 3.91-2.76.76-5.6 1.13-8.4 1.73 5.35 2.1 11.67.86 16.08-2.74 2.44-1.9 4.19-4.48 5.85-7.05l1.33.81-.01.96c-.53 2.82-2.83 6.85.42 8.87 3.65.42 7.32-.23 10.96-.45-1.19 3.08-2.95 5.89-4.6 8.73l3.03 2.17 4.23-5.8.05 5.83c-.49 2.87-.9 5.91-2.78 8.27l-2.36-2c-3.38 1.8-6.57 3.92-9.73 6.07-3.47 2.43-8.03 3.34-10.6 6.96-1.75 2.09-3.52 4.18-5.62 5.94-1.88 1.48-3.89 2.77-5.91 4.06.62-2.52 1.14-5.23 2.9-7.24 2.65-3.08 6.16-5.5 7.87-9.31 1.67-4.73 3.76-9.56 8.14-12.42-2.52 1.12-5.25 1.63-7.99 1.41 1.6-2.03 3.27-3.99 4.94-5.96l-2.78-.47c-1.24-1.44-2.35-3.37-4.41-3.6-3.5-.7-7.08-.61-10.62-.69-3.42 5.39-7.3 10.46-11.82 14.97 4.32 1.49 8.86 2.17 13.43 2.09-1.5 1.82-2.77 3.82-4.02 5.82l3.6-1.51c-.57 1.22-1.06 2.48-1.55 3.74-2.29 3.98-5.39 7.38-8.3 10.9l-.46.61c-.69-2.21-1.03-4.61.38-6.62 1.29.07 2.6.18 3.9.11 1.46-1.47 1.52-3.67 2.05-5.55l-3.09-.64c-3.14-.56-6.32-1.55-9.54-1.12-1.51 1.12-2.63 2.67-3.75 4.16l.17-1.58c-.99.44-1.97.89-2.92 1.39l-2.26-1.8c-1.89 2.16-3.72 4.37-5.54 6.59.59-3.74 2.2-7.21 4.72-10.05l-1.11-2.32c4.54-1.53 9.07-3.35 12.95-6.23 4.74-3.67 8.64-8.47 11-14-5.83 2.93-9.55 8.52-14.68 12.37-4.68.54-9.36 1.39-13.66 3.39-2.37 1.15-4.99 1.55-7.6 1.2-2.66-4.26-6.8-7.15-10.58-10.3-2.83-2.24-3.8-5.85-4.73-9.17 1.22-1.6 2.65-3.11 3.47-4.97.59-2.45-.05-4.99-.37-7.44-1.48-7.82-2.75-15.69-4.87-23.37 1.86-.65 3.85-1.07 5.52-2.17 2.47-2.01 3.96-4.92 5.51-7.63-5.09 1.73-8.78 5.8-13.24 8.59-1.1-.64-2.21-1.28-3.16-2.11-.95-2.55-1-5.41-.34-8.03 1.02-3.17 3.13-5.81 4.53-8.8z"/><path fill="#9c7d6b" d="M255.94 237.22c.99-2.68 3.23-4.39 5.75-5.51-1.57 2.17-3.4 4.16-5.75 5.51z"/><path fill="#dedde4" d="M301.85 235.12l2.94-3.45 2.26 1.48.21.77-5.41 1.2z"/><path fill="#9a968c" d="M228.34 234.39c5.98-1.17 12.18-.73 18.09.64-5.45 2.51-11.5 1.76-17.29 2.42-5.49.55-10.14 3.73-14.69 6.57l.32-3.44c4.49-2.12 8.66-5.11 13.57-6.19z"/><path fill="#5e4b46" d="M304.92 237.92l2.46-.67c.01 2.66.61 5.3 1.73 7.72-2.03 3.26-2.51 7.28-1.26 10.93l1.69 1.51-3.81 1.19c-.71-1.5-1.51-2.98-2.02-4.56.14-1.52.57-3.07.2-4.58-.9-1.27-2.14-2.24-3.29-3.28 1.01-1.37 1.94-2.8 2.74-4.3.56-1.31 1.06-2.64 1.56-3.96z"/><path fill="#737373" d="M238.3 239.96c2.12.04 3.26 2.15 4.67 3.43l-7.92 4.67c-1.6 1-2.99 2.33-3.94 3.97-3.36 5.8-4.44 12.67-3.97 19.31-1.62-.78-3.47-1.45-4.4-3.09-1.53-2.18-1.26-4.96-1.05-7.47.42-3.71.82-7.49 2.21-10.99 2.46-5.57 8.08-10.15 14.4-9.83z"/><path fill="#414240" d="M212.7 250.36c4.46-2.79 8.15-6.86 13.24-8.59-1.55 2.71-3.04 5.62-5.51 7.63-1.67 1.1-3.66 1.52-5.52 2.17l-2.21-1.21z"/><path fill="#939189" d="M264.26 244.15c1.55-1.32 3.64-1.71 5.51-2.41l1.71 2.74 2.91-2.46.62 1.83c-.86 2.28-1.85 4.56-2.21 7 1.19 1.97 3.22 3.2 5 4.59l3.58-6.32 1.07 1.95c-1.96 4.85-4.28 9.55-6.48 14.29l3.74 1.4c3.12-5.49 4.98-11.56 7.97-17.11-1.32 4.66-1.25 9.53-1.84 14.3-.44 3.53-2.47 6.57-4.37 9.48-2.26 3.45-5.22 6.39-8.49 8.89-7.95-1.43-16.49-2.96-22.56-8.76a103.66 103.66 0 0 1 2.8-2.3c2.04-1.56 4.22-2.94 6.22-4.56l2.16.57c2.58-1.22 5.24-2.25 7.76-3.58 1.99-.89 2.87-3.2 2.9-5.25-.8-1.42-1.91-2.64-2.92-3.9l-2.15 2.32c-.15-3.32-1.34-6.52-4.16-8.47.41-1.41.71-2.86 1.23-4.24z"/><path fill="#36373a" d="M284.05 246.97l1.88-5.06 2.81.69c2.84 1.68 5.47 3.68 8.13 5.62l-1.18.99-6.3-2.8-5.34.56z"/><path fill="#969b84" d="M288.74 242.6l3.74.05c2.2 1.93 4.94 5.74 8.14 3.53 1.15 1.04 2.39 2.01 3.29 3.28.37 1.51-.06 3.06-.2 4.58l-.83 3.71-2.38 4.12c-1.74-1.32-4.27-2.21-4.79-4.58-.47-1.46-.73-2.97-.96-4.47l.94-3.61 1.18-.99-8.13-5.62m7.34 7.41c-.59 3.74-.27 8.67 3.89 10.21-.15-3.46-.38-6.91-.34-10.37l-3.55.16z"/><path fill="#3c2d27" opacity=".85" d="M309.11 244.97l.91-.07-.11 2.78c-.8 2.71-1.7 5.4-2.06 8.22-1.25-3.65-.77-7.67 1.26-10.93z"/><path fill="#83827d" d="M241.43 246.73l2.52-.35-.53 3.85 8.33-3.61c-1.6 6.54-5.06 12.31-8 18.29l5.49-2.84-.36.62c-1.07 1.26-2.19 2.47-3.3 3.7l.62 3.77.34 2.87 3.88.53c6.07 5.8 14.61 7.33 22.56 8.76-4.79 3.2-10.98 2.04-15.78-.49-4.78-2.6-9.96-4.47-14.44-7.59l-1.32-5.11c-.3-4 1.65-7.58 3.61-10.89l-5.62 2.92c1.14-2.35 2.52-4.64 3.1-7.2-.42-2.41-1.44-4.73-1.1-7.23z"/><path fill="#737574" d="M261.39 245.97l.6 3.6 1.04-1.18c2.82 1.95 4.01 5.15 4.16 8.47-2.9 3.02-5.17 6.56-7.75 9.84-2 1.62-4.18 3-6.22 4.56l-1.67-3.47c-.85-1.72-1.76-3.42-2.67-5.1l.36-.62c.8-1.73 1.5-3.49 2.21-5.26 1.75.46 3.5 1.01 5.31 1.1 1.93-.47 4.03-1.95 4.12-4.11.42-2.48-1.9-4.08-3.27-5.78l3.78-2.05z"/><path fill="#6e7380" d="M284.05 246.97l5.34-.56-1.71 3.24c-2.99 5.55-4.85 11.62-7.97 17.11l-3.74-1.4c2.2-4.74 4.52-9.44 6.48-14.29l1.6-4.1z"/><path fill="#787671" d="M289.39 246.41c2.15.81 4.2 1.85 6.3 2.8l-.94 3.61c-1.4 5.63-3.46 11.08-5.58 16.47l-.37.71c-2.04 4.04-4.37 7.92-6.63 11.85l1.48 2.36c-2.27-.31-4.58-.73-6.88-.43-3.41.59-6.4 2.62-9.83 3.11-2.87.24-5.74-.19-8.59-.41-3.17 4.09-7.59 6.95-11.7 10.01-5.92 3.01-13.32 2.83-19.3.07-3.2-1.99-5.47-5.11-8.38-7.47 5.99 3.3 12.87 3.5 19.45 4.58 3.14.47 5.89-1.54 8.68-2.62 3.25-1.34 6.3-3.13 9.08-5.27-5.97 1.26-11.99 3.09-18.15 1.95-3.93-.11-7.25-2.35-9.8-5.18l-.55-.59c4.48-.35 7.95 3.57 12.48 2.8 2.82-.09 5.63-.12 8.45-.06l-.3-3.95c-3.47-1.71-7.15-3.34-9.7-6.36-5.22-5.74-7.59-14.59-4.35-21.88 1.03 3.09 1.4 6.33 1.54 9.57.26 2.35.31 4.92 1.77 6.91s3.33 3.64 5.19 5.25c4.48 3.12 9.66 4.99 14.44 7.59 4.8 2.53 10.99 3.69 15.78.49 3.27-2.5 6.23-5.44 8.49-8.89 1.9-2.91 3.93-5.95 4.37-9.48.59-4.77.52-9.64 1.84-14.3a100.07 100.07 0 0 1 1.71-3.24z"/><path fill="#504c47" d="M231.11 252.03c.95-1.64 2.34-2.97 3.94-3.97l1.27-.43-2.06 4.88c-3.24 7.29-.87 16.14 4.35 21.88 2.55 3.02 6.23 4.65 9.7 6.36l.3 3.95c-2.82-.06-5.63-.03-8.45.06-4.07-2.89-8.14-5.95-11.11-10.02-.69-1.11-1.33-2.25-1.91-3.4-.47-6.64.61-13.51 3.97-19.31z"/><path fill="#0c0908" opacity=".78" d="M307.85 255.9c.36-2.82 1.26-5.51 2.06-8.22l.12 7.94-.49 1.79-1.69-1.51z"/><path fill="#ac7e61" d="M312.83 248.73c1.31 3.87 1.8 7.93 2.63 11.91.24 1.51 1.74 2.25 2.82 3.14l.78.15-4.1.36c-.95-1.43-1.98-2.81-2.81-4.31-.6-3.77.07-7.54.68-11.25z"/><path fill="#c2ccac" d="M296.08 250.01l3.55-.16c-.04 3.46.19 6.91.34 10.37-4.16-1.54-4.48-6.47-3.89-10.21z"/><path fill="#676361" d="M289.17 269.29c2.12-5.39 4.18-10.84 5.58-16.47.23 1.5.49 3.01.96 4.47.52 2.37 3.05 3.26 4.79 4.58l-.99 1.63-6.08.38-.74 1.92c-1.15 1.18-2.37 2.3-3.52 3.49z"/><path fill="#494848" d="M303.71 254.04c.51 1.58 1.31 3.06 2.02 4.56l2.73 3.88 1.08-5.07.49-1.79 2.12 4.36c.83 1.5 1.86 2.88 2.81 4.31 1.13 1.84 2.55 4.37.79 6.31-1.52 1.16-3.47 1.47-5.24 2.04l-3.65-2.39c-1.03-4.26-2.94-8.24-3.98-12.5l.83-3.71z"/><path fill="#a29f94" d="M267.19 256.86l2.15-2.32c1.01 1.26 2.12 2.48 2.92 3.9-.03 2.05-.91 4.36-2.9 5.25-2.52 1.33-5.18 2.36-7.76 3.58l-2.16-.57c2.58-3.28 4.85-6.82 7.75-9.84z"/><path fill="#726f6f" d="M333.14 271.01c-.01-5.23-1.06-10.41-.64-15.65 1.21.83 2.44 1.65 3.61 2.54l.4.69c-.54 5.69 1.11 11.17 3.61 16.21l-1.08 2.1c-1.11 1.4-2.28 2.76-3.42 4.14a133.59 133.59 0 0 1-3.34-4.2l.3-2 .56-3.83z"/><path fill="#6b696e" d="M305.73 258.6l3.81-1.19-1.08 5.07-2.73-3.88z"/><path fill="#737170" d="M300.5 261.87l2.38-4.12c1.04 4.26 2.95 8.24 3.98 12.5l3.65 2.39-.74.2-4.25 1.18c-1.03.3-2.06.63-3.08.96.92-3.31 1.45-6.73 1.4-10.17-1.68 1.61-3.07 3.59-3 6.02l-1.96-.43-1.18.46c-1.91 1.15-3.71 2.47-5.52 3.78.16-2.95.24-5.9.51-8.84l.74-1.92 6.08-.38.99-1.63z"/><path fill="#454545" d="M336.51 258.59c2.68 4.89 5.16 10.55 3.61 16.21-2.5-5.04-4.15-10.52-3.61-16.21z"/><path fill="#805c47" d="M235.8 262.08l2.71.5 2.93 6.55 1.32 5.11c-1.86-1.61-3.73-3.26-5.19-5.25s-1.51-4.56-1.77-6.91z"/><path fill="#5e5c59" d="M324.31 263.21l4.96-1.26c-.36 3.62-.93 7.21-1.35 10.82l2.95.65 2.27-2.41-.56 3.83c-2.05.66-5.08.23-6.2 2.44.18 2.06.83 4.05 1.38 6.05-3.4-.01-6.89.73-9.41 3.17-1.03-1.55-2.05-3.1-3-4.69-1.75-3.06-3.52-6.11-5.58-8.97l.74-.2c1.77-.57 3.72-.88 5.24-2.04 1.76-1.94.34-4.47-.79-6.31l4.1-.36c1.75-.15 3.51-.4 5.25-.72m-.04 4.07v.46h.46v-.46h-.46m-7.17 11l-.41.72.41.71h.83l.41-.72-.42-.71h-.82z"/><path fill="#aeb0ac" d="M248.88 262.69l2.67 5.1-5.35 2.37-.62-3.77 3.3-3.7z"/><path fill="#565558" d="M300.84 270.83c-.07-2.43 1.32-4.41 3-6.02.05 3.44-.48 6.86-1.4 10.17l3.08-.96c.11 4.76 4.08 8.18 4.85 12.79.12 1.82.14 3.66.17 5.5-1.29-2.47-2.43-5.03-3.13-7.73-.66-1.86-.93-4.1-2.6-5.37-2.13-1.6-4.68-2.46-7.12-3.44.95-.63 1.94-1.2 2.92-1.77l.23-3.17z"/><path fill="#2f3233" d="M289.17 269.29l3.52-3.49-.51 8.84 5.52-3.78 1.78 1.36c-2.24 1.9-4.28 4.04-5.85 6.54-1.66 2.57-3.41 5.15-5.85 7.05-4.41 3.6-10.73 4.84-16.08 2.74 2.8-.6 5.64-.97 8.4-1.73 2.55-.65 4.6-2.4 6.7-3.91l-2.38-3.17c1.14-.42 2.28-.83 3.46-1.15l2.85.08-.75-3.03c-.45-1.87-.81-3.76-1.18-5.64l.37-.71z"/><path fill="#7a7777" d="M297.7 270.86l1.18-.46 1.96.43-.23 3.17-2.92 1.77-1.66 3.09 2.04 1.06-3.11-.35-1.33-.81c1.57-2.5 3.61-4.64 5.85-6.54l-1.78-1.36z"/><path fill="#d49f80" d="M305.52 274.02l4.25-1.18c2.06 2.86 3.83 5.91 5.58 8.97l-1.01 4.6-3.97.4c-.77-4.61-4.74-8.03-4.85-12.79z"/><path fill="#7b7d7e" d="M220.92 274.04l6.08 4.16 2.05-3.46c2.97 4.07 7.04 7.13 11.11 10.02-4.53.77-8-3.15-12.48-2.8-2.35-2.56-4.59-5.21-6.76-7.92z"/><path fill="#4a4b4b" d="M326.38 277.28c1.12-2.21 4.15-1.78 6.2-2.44l-.3 2c-.36 2.56-.31 5.15-.2 7.72-2.92.12-5.91.5-8.41 2.14-2.07 1.33-4.45 2.02-6.91 1.82l1.59-2.02c2.52-2.44 6.01-3.18 9.41-3.17-.55-2-1.2-3.99-1.38-6.05z"/><path fill="#827f84" d="M287.88 278.59l2.1-2.95.75 3.03-2.85-.08z"/><path fill="#3b3a39" d="M296.03 278.86l1.66-3.09c2.44.98 4.99 1.84 7.12 3.44 1.67 1.27 1.94 3.51 2.6 5.37.7 2.7 1.84 5.26 3.13 7.73l.02.77-1.52 6.8-.05-5.83-4.23 5.8-3.03-2.17c1.65-2.84 3.41-5.65 4.6-8.73l-.57-.77c-2.68-.42-5.38-.59-8.08-.72l6.92-.48c-.51-1.34-.96-2.71-1.64-3.97-1.34-1.43-3.19-2.2-4.89-3.09l-2.04-1.06z"/><path fill="#5e5d5d" d="M332.08 284.56c-.11-2.57-.16-5.16.2-7.72l3.34 4.2 3.42-4.14c-1.04 2.35-1.74 4.88-3.09 7.08-1.27.34-2.58.45-3.87.58z"/><path fill="#bab8ba" d="M317.1 278.28h.82l.42.71-.41.72h-.83l-.41-.71.41-.72z"/><path fill="#484946" d="M221.31 285.59l1.31-5.34 5.61 2.3c2.55 2.83 5.87 5.07 9.8 5.18 6.16 1.14 12.18-.69 18.15-1.95-2.78 2.14-5.83 3.93-9.08 5.27-5.06-.19-10.14-.31-15.16-1.04-3.88-.51-7.31-2.48-10.63-4.42z"/><path fill="#d5a080" d="M294.96 279.57l3.11.35c1.7.89 3.55 1.66 4.89 3.09.68 1.26 1.13 2.63 1.64 3.97l-6.92.48-2.73-6.93.01-.96z"/><path fill="#746d69" d="M295.37 289.4c-3.25-2.02-.95-6.05-.42-8.87.73 2.37 1.72 4.65 2.73 6.93l8.08.72.57.77c-3.64.22-7.31.87-10.96.45z"/><path fill="#bb8568" d="M315.35 281.81l3 4.69-1.59 2.02c-1.91 1.72-4.07 3.13-6.2 4.56l-.02-.77-.17-5.5 3.97-.4 1.01-4.6z"/><path fill="#8f8c84" d="M253.25 302.23c5.13-3.85 8.85-9.44 14.68-12.37-2.36 5.53-6.26 10.33-11 14-3.88 2.88-8.41 4.7-12.95 6.23-2.1-.44-4.16-1.03-6.21-1.64 2.94-2.04 6.48-2.62 9.95-3.08 2.24-.18 3.9-1.78 5.53-3.14z"/><path fill="#82837b" d="M270.09 290.9c3.54.08 7.12-.01 10.62.69 2.06.23 3.17 2.16 4.41 3.6l2.78.47-4.94 5.96c2.74.22 5.47-.29 7.99-1.41-4.38 2.86-6.47 7.69-8.14 12.42-2.98-.06-5.96.24-8.88.83l2.95-5.57c1.2-2.24 2.16-4.6 3.1-6.95-2.91 2.15-5.79 4.38-8.28 7.02-4.57.08-9.11-.6-13.43-2.09 4.52-4.51 8.4-9.58 11.82-14.97z"/><path fill="#504e49" d="M271.7 307.96c2.49-2.64 5.37-4.87 8.28-7.02-.94 2.35-1.9 4.71-3.1 6.95-1.79 1.56-3.7 2.96-5.6 4.38-1.19.54-2.4 1.02-3.6 1.51 1.25-2 2.52-4 4.02-5.82z"/><path fill="#74756d" d="M239.59 305.62c4.3-2 8.98-2.85 13.66-3.39-1.63 1.36-3.29 2.96-5.53 3.14-3.47.46-7.01 1.04-9.95 3.08 2.05.61 4.11 1.2 6.21 1.64l1.11 2.32c-2.52 2.84-4.13 6.31-4.72 10.05 2.28 2.48 5.22 4.32 8.68 4.45l1.51 3.88c-.88 1.37-1.75 2.76-2.54 4.19l-.68 1.22c-2.56 1.56-5.48 2.39-8.47 2.47-1.29-.1-2.57-.23-3.84-.41 1.63-1.12 3-2.53 4.3-4 1.22.35 2.45.66 3.68.99 1.73-2.22 3.41-4.48 5.06-6.75-3.71-.05-7.75.56-11.13-1.35-3.47-2.13-5.45-5.85-7.52-9.21l-.8 5.52c-.51-2.25-1-4.51-1.31-6.79l.71-2.57c1.21-2.49 2.52-4.93 3.97-7.28 2.61.35 5.23-.05 7.6-1.2z"/><path fill="#3c3d3c" d="M294.17 312.22c3.16-2.15 6.35-4.27 9.73-6.07l2.36 2-16.99 12.91a165.09 165.09 0 0 0-5.7-1.88c2.57-3.62 7.13-4.53 10.6-6.96z"/><path fill="#676969" d="M271.28 312.27l5.6-4.38-2.95 5.57c2.92-.59 5.9-.89 8.88-.83-1.71 3.81-5.22 6.23-7.87 9.31-1.76 2.01-2.28 4.72-2.9 7.24-.34 1.52-.64 3.05-.95 4.59l-3.89-4.05c.89-4.56 1.96-9.09 2.53-13.71.49-1.26.98-2.52 1.55-3.74z"/><path fill="#474849" d="M254.67 313.7c3.22-.43 6.4.56 9.54 1.12l-2.86 6.08c-1.41 2.01-1.07 4.41-.38 6.62l-1.76 2.64-.48-4.28c-1.57 1.37-3.25 2.83-3.58 5.03l.24.67c-2.22 1.61-4.73 2.73-7.37 3.4l2.54-4.19 3.32.62-1.17-4.37-3.66-.13c-3.46-.13-6.4-1.97-8.68-4.45l5.54-6.59 2.26 1.8c-1.71 1.98-2.87 4.33-3.87 6.72 3.37-.11 6.74-.44 10.05-1.15-1.88-.61-3.78-1.12-5.73-1.43l2.3-3.95c1.12-1.49 2.24-3.04 3.75-4.16z"/><path fill="#4d4f4e" d="M222.01 326.76c1.04-4.62 3.68-8.62 6.01-12.66l-.71 2.57c-.68 1.71-1.53 3.35-2.29 5.03-3.08 5.66.36 12.43 5.67 15.23 1.42.51 2.86 1.01 4.34 1.33 1.27.18 2.55.31 3.84.41l3.01.27c-.71 2.41-.97 5.23-2.94 7.01-1.48 1.49-3.76 1.25-5.62.85-3.59-.83-6.5-3.21-9.39-5.34l-2.36 1.12c.29-5.27-.88-10.63.44-15.82z"/><path fill="#2b2d2e" d="M264.21 314.82l3.09.64c-.53 1.88-.59 4.08-2.05 5.55-1.3.07-2.61-.04-3.9-.11l2.86-6.08z"/><path fill="#6f6e6b" d="M248.17 317.67l2.92-1.39-.17 1.58-2.3 3.95c1.95.31 3.85.82 5.73 1.43-3.31.71-6.68 1.04-10.05 1.15 1-2.39 2.16-4.74 3.87-6.72z"/><path fill="#848486" d="M269.73 316.01c-.57 4.62-1.64 9.15-2.53 13.71l-1.2 5.88-3-.78 1.63-3.65-3.2-4.26c2.91-3.52 6.01-6.92 8.3-10.9z"/><path fill="#636361" d="M225.02 321.7l2.29-5.03c.31 2.28.8 4.54 1.31 6.79l.8-5.52c2.07 3.36 4.05 7.08 7.52 9.21 3.38 1.91 7.42 1.3 11.13 1.35-1.65 2.27-3.33 4.53-5.06 6.75l-3.68-.99c-2.19-.76-4.34-1.64-6.41-2.67-3.11-2.89-5.51-6.41-7.9-9.89m6.61 5.33c.96 2.87 3.74 3.76 6.51 3.96-1.64-2.08-3.96-3.35-6.51-3.96z"/><path fill="#262725" d="M283.57 319.18l5.7 1.88-11.92 9.35.6-5.29c2.1-1.76 3.87-3.85 5.62-5.94z"/><path fill="#777970" d="M225.02 321.7c2.39 3.48 4.79 7 7.9 9.89l-2.23 5.34c-5.31-2.8-8.75-9.57-5.67-15.23z"/><path fill="#4e4f50" d="M272.04 329.18l5.91-4.06-.6 5.29c-3.05 2.75-6.32 5.37-10.31 6.6-4.11-1.31-8.56-1.86-12.69-.27l-.71.27 2.74-2.87c2.21.17 4.42.34 6.62.68 1 .23 2 .51 3 .78l1.2-5.88c1.32 1.33 2.61 2.68 3.89 4.05l.95-4.59z"/><path fill="#363533" d="M255.15 330.91c.33-2.2 2.01-3.66 3.58-5.03l.48 4.28-4.06.75z"/><path fill="#84807a" d="M231.63 327.03c2.55.61 4.87 1.88 6.51 3.96-2.77-.2-5.55-1.09-6.51-3.96z"/><path fill="#858589" d="M249.05 326.91l3.66.13 1.17 4.37-3.32-.62-1.51-3.88z"/><path fill="#6a6a6d" d="M260.97 327.52l.46-.61 3.2 4.26-1.63 3.65c-2.2-.34-4.41-.51-6.62-.68l-.99-2.56-.24-.67 4.06-.75 1.76-2.64z"/><path fill="#8a8a82" d="M230.69 336.93l2.23-5.34c2.07 1.03 4.22 1.91 6.41 2.67-1.3 1.47-2.67 2.88-4.3 4-1.48-.32-2.92-.82-4.34-1.33z"/><path fill="#868380" d="M248.02 334.98c2.64-.67 5.15-1.79 7.37-3.4l.99 2.56-2.74 2.87a28.68 28.68 0 0 0-2.33 2.71l-1.87 2.98-4.04 1.14c1.2-2.38 1.75-4.99 1.94-7.64l.68-1.22z"/><path fill="#61605c" d="M238.87 338.67c2.99-.08 5.91-.91 8.47-2.47-.19 2.65-.74 5.26-1.94 7.64l4.04-1.14.61 3.28-1.58-.39-1.43-.27c-2.69 1.68-5.16 3.97-8.38 4.55-5.03 1.04-9.97-.88-14.92-1.47 1.32 1.54 2.4 3.66 4.55 4.17 3.39.88 6.94.62 10.41.55l-.47 2.01-1.89.16c-3.36 0-6.89-.07-9.97-1.58-2.48-1.58-3.8-4.36-5.41-6.71l-.18 5.05c-1.32-3.15-.12-6.4.79-9.47l2.36-1.12c2.89 2.13 5.8 4.51 9.39 5.34 1.86.4 4.14.64 5.62-.85 1.97-1.78 2.23-4.6 2.94-7.01l-3.01-.27z"/><path opacity=".13" d="M254.35 336.74c4.13-1.59 8.58-1.04 12.69.27l-.56 2.56c5.95 1.31 11.77 3.12 17.47 5.25 5.47 2.08 11.43 1.58 17.05 2.93 3 .6 4.52 3.56 6.82 5.28 2.44.61 4.97-.23 7.42-.49l-.46 1.85c-3.1.55-6.19 1.14-9.26 1.82l1.01 4.64c-3.02-2.08-6.65-2.47-10.16-1.6l-1.23-3.17c-1.67 2.36-2.89 4.98-3.73 7.74-3.28.57-6.59.94-9.88 1.39-4.51.59-8.93 1.87-13.5 2-3.45.11-6.87-.46-10.3-.74 4.23-.67 8.29-2.34 11.57-5.14 1.74-1.34 3.53-2.93 4.14-5.12.6-3.5-.14-7.3-2.81-9.8-2.62-3.06-6.71-3.84-10.49-4.35-2.83-.63-5.08-2.44-5.79-5.32z"/><path fill="#1f1e1d" opacity=".7" d="M253.64 337.01l.71-.27c.71 2.88 2.96 4.69 5.79 5.32-3.03-.44-6.01-1.17-8.83-2.34a28.68 28.68 0 0 1 2.33-2.71z"/><path fill="#303132" d="M251.31 339.72c2.82 1.17 5.8 1.9 8.83 2.34 3.78.51 7.87 1.29 10.49 4.35 2.67 2.5 3.41 6.3 2.81 9.8-.17-1.72-.4-3.43-.61-5.14-3.16-1.18-6.44-2.04-9.81-2.31a104.16 104.16 0 0 1-3.55-.42c-3.05-1.12-6.17-2.08-9.42-2.36l-.61-3.28 1.87-2.98m2.27 2.49c-.92 1.13 1.03 2.6 1.93 1.51.92-1.14-1.04-2.6-1.93-1.51z"/><path fill="#5e5b59" d="M253.58 342.21c.89-1.09 2.85.37 1.93 1.51-.9 1.09-2.85-.38-1.93-1.51z"/><path fill="#4e4e4c" d="M238.66 349.87c3.22-.58 5.69-2.87 8.38-4.55l1.43.27c-.75 4.24-1.33 8.74-3.95 12.31-1.96-1.2-4.01-2.32-6.29-2.77l.47-2.01c-3.47.07-7.02.33-10.41-.55-2.15-.51-3.23-2.63-4.55-4.17 4.95.59 9.89 2.51 14.92 1.47z"/><path fill="#6f6d68" d="M248.47 345.59l1.58.39c-.37 3.37-.69 6.77-1.58 10.05-.62 2.28-2.7 3.68-4.27 5.28l-2.2-.95 2.52-2.46c2.62-3.57 3.2-8.07 3.95-12.31z"/><path fill="#525250" d="M250.05 345.98c3.25.28 6.37 1.24 9.42 2.36l.24 5.61-6.04 4.46c1.59.98 3.14 2.42 5.14 2.33 3.94.01 8.59-1.87 9.55-6.09-.83-1.23-1.7-2.43-2.63-3.58-.89-.8-1.8-1.55-2.71-2.31 3.37.27 6.65 1.13 9.81 2.31l.61 5.14c-.61 2.19-2.4 3.78-4.14 5.12l-13.69 2.48-.82 2.5c-7.23.06-13.45-3.93-20.07-6.22 2.15.01 4.3-.09 6.46-.08l.82.35 2.2.95c1.57-1.6 3.65-3 4.27-5.28.89-3.28 1.21-6.68 1.58-10.05m4.03 6.48c-1.31.92.19 3.23 1.52 2.2 1.3-.93-.19-3.24-1.52-2.2z"/><path fill="#524e49" d="M220.96 347c1.61 2.35 2.93 5.13 5.41 6.71 3.08 1.51 6.61 1.58 9.97 1.58-2.12.3-4.24.69-6.35 1.03 3.87.75 7.64 1.95 11.19 3.69-2.16-.01-4.31.09-6.46.08l-6.78-1.81c.3-1.8-1.7-2.58-3.16-2.42l-1.25-.96c-.96-.91-1.88-1.86-2.75-2.85l.18-5.05z"/><path fill="#706c68" d="M259.47 348.34l3.55.42 2.71 2.31-4.5-.14c-.18 2.66.26 5.34 2.35 7.21l4.78-3.49c-.96 4.22-5.61 6.1-9.55 6.09-2 .09-3.55-1.35-5.14-2.33 1.98-1.52 4-3.01 6.04-4.46l-.24-5.61z"/><path fill="#7e7e82" d="M261.23 350.93l4.5.14 2.63 3.58-4.78 3.49c-2.09-1.87-2.53-4.55-2.35-7.21z"/><path fill="#706f6f" d="M254.08 352.46c1.33-1.04 2.82 1.27 1.52 2.2-1.33 1.03-2.83-1.28-1.52-2.2z"/><path fill="#333434" d="M236.34 355.29l1.89-.16c2.28.45 4.33 1.57 6.29 2.77l-2.52 2.46-.82-.35c-3.55-1.74-7.32-2.94-11.19-3.69l6.35-1.03z"/><path fill="#161818" opacity=".65" d="M224.78 355.86c1.46-.16 3.46.62 3.16 2.42-1.47-.1-2.51-1.21-3.16-2.42z"/><path fill="#303234" opacity=".9" d="M255.61 363.81c4.54-.95 9.12-1.68 13.69-2.48-3.28 2.8-7.34 4.47-11.57 5.14l-2.94-.16.82-2.5z"/></svg>