<svg xmlns="http://www.w3.org/2000/svg" width="682.667" height="682.667" viewBox="0 0 512 512"  xmlns:v="https://vecta.io/nano"><path fill="#fff7c8" d="M272.11 50.2l2.23 3.59-2.11-.34-1.3 2.64c.06-2.01.53-3.98 1.18-5.89z"/><path fill="#fffffe" d="M272.23 53.45l2.11.34c1.18 5.76 2.55 11.51 4.77 16.98l2.16 5.25-3.37 3.15a34.04 34.04 0 0 0-1.21 2.93l-1.67-1.32c-1.52-1.09-3.13-2.04-4.69-3.06l-3.87-2.47c1.3-1.61 3.02-3.05 3.54-5.14 1.08-4.59.68-9.35.93-14.02l1.3-2.64z"/><path fill="#e6d6af" opacity=".91" d="M279.11 70.77l4.36 3.26-2.2 1.99-2.16-5.25z"/><path fill="#34363f" d="M270.33 77.72l4.69 3.06c-1.36 2.54-3.03 5.01-3.57 7.89-.63 4.2.29 8.42.83 12.58.46 3.59.48 7.21.73 10.81l-1.15-5.16c-.13-3.84-.75-7.64-1.69-11.36l-.01-.83v-.72l-.29-4.17-.14-1.55c-1.89-.63-3.8-1.17-5.71-1.75l-.05 6.81c-.41-2.59-.69-5.2-.74-7.83 3.34-.5 6.66-1.11 9.99-1.72.47-2.53-1-4.57-2.89-6.06z"/><path fill="#787d72" d="M276.69 82.1l1.21-2.93.62 3.37c2.95 1.27 5.96 2.4 9.11 3.08l.73 2.24-.03 3.15-2.66-4.53c.1 2.72.45 5.46.21 8.19-.75 1.26-1.75 2.34-2.67 3.47l-.61-8.92c-.04-1.6-1.58-2.39-2.57-3.39-.4 3.64-.58 7.34.13 10.96l-2.65 1.81-.69.35-.25-4.59 2.79 1.14c-.93-4.45-3.16-8.75-2.67-13.4z"/><path fill="#a0a797" d="M271.45 88.67c.54-2.88 2.21-5.35 3.57-7.89l1.67 1.32c-.49 4.65 1.74 8.95 2.67 13.4l-2.79-1.14.25 4.59-4.54 2.3c-.54-4.16-1.46-8.38-.83-12.58z"/><path fill="#838898" d="M264.02 86.52l5.71 1.75.14 1.55c-1.91 1.02-3.86 2.07-5.28 3.75l-.56.71-.06-.95.05-6.81z"/><path fill="#aab0a2" d="M280.03 85.83c.99 1 2.53 1.79 2.57 3.39.4 2.95.39 5.94.61 8.92.92-1.13 1.92-2.21 2.67-3.47.24-2.73-.11-5.47-.21-8.19l2.66 4.53-.09 4.28-1.2 1.68c-.6 1.38-1.09 2.81-1.57 4.24l-1.52.37 1.27 3.17-2.01 4.44c-.51-4.24-1.18-8.51-3.05-12.4-.71-3.62-.53-7.32-.13-10.96z"/><path fill="#464742" opacity=".79" d="M288.36 87.86c.94 2.57 1.31 5.3 1.51 8.02l2.37 1.29-2.88 4.12-1.12-6 .09-4.28.03-3.15z"/><path fill="#b8bbc4" d="M264.59 93.57c1.42-1.68 3.37-2.73 5.28-3.75l.29 4.17c-.26-.96-2.11-2.5-2.49-.8.34 1.22 1.17 1.73 2.49 1.52l.01.83-1.8 2.29c1.81 3.77-.9 8.57 2.31 11.68l1.18-2.61c.33 1.73.77 3.43 1.15 5.16l.14.86c.08 2.83-.06 5.66-.01 8.49-2.82 1.33-1.86 4.3-1.29 6.66l2.03-1.03.14 1.53-1.54.99c-.8 2.63-.09 5.43.04 8.11l2.5-.45.16 1.66-2.66.13.55 5.12-2.18-.14c-.67-2.07-1.36-4.15-1.91-6.26-1.62-7.32-.6-14.88-1.7-22.26-.67-4.53-1.01-9.11-.98-13.69a4.35 4.35 0 0 0-.02-.37c-.16-2.69-.91-5.29-1.69-7.84m5.64 19.52l-.35.83.33.84.83.35.83-.34.35-.83-.33-.84-.83-.35-.83.34m.04 3.13l-.36.81.35.82.84.35.85-.34.35-.81-.35-.82-.84-.35-.84.34m.94 2.89c-1.32.7-1.31 1.37.01 2 1.32-.7 1.31-1.37-.01-2z"/><path fill="#e4e0ed" d="M267.67 93.19c.38-1.7 2.23-.16 2.49.8v.72c-1.32.21-2.15-.3-2.49-1.52z"/><path fill="#2a2e34" d="M264.03 94.28l.56-.71c.78 2.55 1.53 5.15 1.69 7.84l.02.37c-.03 4.58.31 9.16.98 13.69 1.1 7.38.08 14.94 1.7 22.26l-2.97 3.92-1.21 1.7c-2.11-1.63-1.04-4.35-1.05-6.57.39-1.71-.95-3-1.72-4.37 2.42-2.53 4.38-5.75 4.39-9.35.32-9.66-2.03-19.15-2.39-28.78z"/><path fill="#d5d4dd" d="M270.17 95.54c.94 3.72 1.56 7.52 1.69 11.36l-1.18 2.61c-3.21-3.11-.5-7.91-2.31-11.68l1.8-2.29z"/><path fill="#cac9cd" d="M287.04 96.97l1.2-1.68 1.12 6c-.14 2.41-.99 4.69-2.25 6.74 1.18-3.63.08-7.38-.07-11.06z"/><path fill="#626265" d="M277.51 98.6l2.65-1.81c1.87 3.89 2.54 8.16 3.05 12.4-.7 1.41-1.52 2.96-3.26 3.12 1.17-4.05 1.9-8.99-1.07-12.49l-1.37-1.22z"/><path fill="#909689" d="M285.47 101.21l1.57-4.24c.15 3.68 1.25 7.43.07 11.06-1.33 3.1.34 6.25 1.07 9.28.53 2.93 1.76 5.67 3.45 8.12l.95 2.47c-2.77 3.33-.46 7.54-1.55 11.32-1.46-2.84-1.7-6.35-4.16-8.59-.55-3.93-1.5-7.79-2.48-11.63l-2.24 1.44c-1.61.99-3.16 2.07-4.66 3.23l-.26 2.99 4.81 1.2c.14-1.97.28-3.95.29-5.93.35 2.7.69 5.4.85 8.11l-2.07-.71-.14 1.55-2.07 2.7-3.25-.48c-.5-3.66-.91-7.33-1.06-11.03l2.5-1.73 3.02 1.18c-.17-1.63-.29-3.27-.65-4.88-.98-.83-2.09-1.48-3.16-2.16.99-1.4 2.49-2.68 2.41-4.56.19-3.36.05-6.73.17-10.1 2.97 3.5 2.24 8.44 1.07 12.49 1.74-.16 2.56-1.71 3.26-3.12l2.01-4.44-1.27-3.17 1.52-.37m-3.33 12l-.41.71.41.72h.82l.42-.71-.41-.72h-.83m.98 3.07l-.41.72.41.71h.83l.41-.71-.42-.72h-.82z"/><path fill="#757579" d="M292.24 97.17l2.1.32c.77 1.52 1.68 3.01 2.19 4.66.16 2.26-.4 4.5-.56 6.75l-2.23-.31-1.89 1.62-.33 4.6-.5 2.59c-.75-2.87-.17-6.58-2.66-8.64l-.18 8.55c-.73-3.03-2.4-6.18-1.07-9.28 1.26-2.05 2.11-4.33 2.25-6.74l2.88-4.12m-1.36 4.51l.05 4.55 4.3-.1.03-3.15c-.3-2.04-3.01-.98-4.38-1.3z"/><path fill="#6b6b71" d="M294.34 97.49c2.09.41 4.73.15 6.09 2.15 3.68 4.11 3.04 10.05 5.09 14.91l-1.38.31-2.95-2.76c-.95 2.92-2.26 5.72-4.23 8.11a199.74 199.74 0 0 1 2.12-5.27l-2.76-2.55a82.44 82.44 0 0 1-.35-3.49c.16-2.25.72-4.49.56-6.75-.51-1.65-1.42-3.14-2.19-4.66z"/><path fill="#afb79b" d="M272.28 101.25l4.54-2.3.69-.35 1.37 1.22c-.12 3.37.02 6.74-.17 10.1.08 1.88-1.42 3.16-2.41 4.56 1.07.68 2.18 1.33 3.16 2.16.36 1.61.48 3.25.65 4.88l-3.02-1.18-2.5 1.73c-.18-3.09-.81-6.13-1.44-9.15l-.14-.86c-.25-3.6-.27-7.22-.73-10.81z"/><path fill="#f0f6fc" d="M266.28 101.41a4.35 4.35 0 0 1 .02.37l-.02-.37z"/><path fill="#88888f" d="M290.88 101.68c1.37.32 4.08-.74 4.38 1.3l-.03 3.15-4.3.1-.05-4.55z"/><path fill="#85868a" d="M293.74 108.59l2.23.31.35 3.49 2.76 2.55-2.12 5.27 1.92 1.16-1.62 2.71c1.6 4.5 1.38 9.32.9 14-.69 1.74-1.37 3.49-1.98 5.26-.17-1.07-.37-2.13-.6-3.18 1.89-2.42 1.82-5.52 1.1-8.36-1.59-5.7-2.53-11.64-5.16-16.99l3.61.02c-.28-2.12-.73-4.21-1.39-6.24z"/><path fill="#b6b4bc" d="M288.36 108.76c2.49 2.06 1.91 5.77 2.66 8.64l.61 8.03c-1.69-2.45-2.92-5.19-3.45-8.12l.18-8.55z"/><path fill="#dad9df" d="M291.85 110.21l1.89-1.62c.66 2.03 1.11 4.12 1.39 6.24l-3.61-.02.33-4.6z"/><path fill="#504f4d" d="M301.19 112.1l2.95 2.76 1.38-.31c.96 3.75 1 7.64 1.08 11.49-.33-2.01-.77-4-1.17-5.99-1.66.25-3.31.5-4.94.82l-1.61.5-1.92-1.16c1.97-2.39 3.28-5.19 4.23-8.11z"/><path fill="#e4e3ee" d="M270.23 113.09l.83-.34.83.35.33.84-.35.83-.83.34-.83-.35-.33-.84.35-.83z"/><path fill="#403d3d" d="M273.15 112.92c.63 3.02 1.26 6.06 1.44 9.15.15 3.7.56 7.37 1.06 11.03l3.12 28.27c.16 2.62.81 5.18 1.85 7.59l-1.17 3.09a35.88 35.88 0 0 1 2.33 11.86c.21 4.56-.36 9.16.51 13.67.56 3.09.98 6.21 1.69 9.27l-2.66.25c.46-1.81.78-3.67.52-5.53-.67-5.61-1.01-11.26-1.95-16.83-.25-1.73-.86-3.38-1.88-4.8l-1.27-1.4c-.1-2.8-.19-5.61-.09-8.41l.22-.75 1.45-4.64a58.1 58.1 0 0 0-.83-2.94l-.25-.8-.26-.83c-.11-7.13-.98-14.21-1.8-21.29l-.16-1.66c-.27-2.89-.63-5.77-1-8.65l-.14-1.53c-.21-1.88-.52-3.75-.74-5.63-.05-2.83.09-5.66.01-8.49z"/><path fill="#cacaca" d="M282.14 113.21h.83l.41.72-.42.71h-.82l-.41-.72.41-.71z"/><path fill="#373637" d="M291.02 117.4l.5-2.59c2.63 5.35 3.57 11.29 5.16 16.99-.74 1.43-1.43 2.88-1.97 4.4-.51-2.81-1.1-5.62-2.13-8.3l-.95-2.47-.61-8.03z"/><path fill="#efeef7" d="M270.27 116.22l.84-.34.84.35.35.82-.35.81-.85.34-.84-.35-.35-.82.36-.81z"/><path fill="silver" d="M283.12 116.28h.82l.42.72-.41.71h-.83l-.41-.71.41-.72z"/><path fill="#e5e4ee" d="M271.21 119.11c1.32.63 1.33 1.3.01 2-1.32-.63-1.33-1.3-.01-2z"/><path fill="#c1c3b7" d="M282.15 120.44l2.24-1.44c.98 3.84 1.93 7.7 2.48 11.63l.54 9.04c-.46 1.63-1.21 3.33-.58 5.03 1.24 4.02 1.66 8.21 2 12.39 1.17 4.09 2.24 8.28 1.98 12.58l-.27 4.1-.69 5.53-1.77-3.45c-1.32-9.12-1.84-18.33-3.21-27.44-.98-6.08-1.52-12.21-1.69-18.37-.16-2.71-.5-5.41-.85-8.11l-.18-1.49z"/><path fill="#707071" d="M300.49 120.87l4.94-.82 1.17 5.99.02 1.49-2.41 6.37-2.98-.83 2.31-1.8-2.07-4.13 3.4-1.88-3.33-.71-1.05-3.68z"/><path fill="#7a7e72" d="M277.49 123.67c1.5-1.16 3.05-2.24 4.66-3.23l.18 1.49-.29 5.93-4.81-1.2.26-2.99z"/><path fill="#232425" d="M298.88 121.37l1.61-.5 1.05 3.68 3.33.71-3.4 1.88 2.07 4.13-2.31 1.8-2.51-2.09.19 6.57-.75.53c.48-4.68.7-9.5-.9-14 .52-.92 1.05-1.83 1.62-2.71z"/><path fill="#efeff3" d="M271.85 128.07c-.57-2.36-1.53-5.33 1.29-6.66l.74 5.63-2.03 1.03z"/><path opacity=".08" d="M306.62 127.53l1.93.27c.84 1.54 1.49 3.24 2.77 4.48 1.86-.3 3.65-.99 5.55-1.06 1.8.4 3.48 1.24 5.3 1.55 2.63.14 5.26-.76 7.88-.28 1.87.55 3.41 1.81 5.04 2.83 3.07-.18 6.07.48 8.9 1.67 5.98 1.78 11.99 3.46 18.05 4.95.17 1.38-.05 2.77-.19 4.15l2.6.31 2.02-2.57c1.42 1.8 2.31 3.91 2.75 6.15 3.56 1.25 7.17 2.57 10.97 2.86 2.79.39 4.88-1.86 7.01-3.29 2.53 2.27 5.19 4.42 8.19 6.05 4 2.12 7.4 5.15 11.34 7.36 1.27-.67 2.36-2.38 3.87-2.25 2.04 1.33 3.57 3.31 5.54 4.76l.41-3.43c1.32 1.32 2.56 2.81 4.26 3.68 1.85.89 3.95.5 5.92.34 1.02 1.79 1.96 3.68 3.46 5.13 2.1-.28 3.88-1.51 5.68-2.53l1.21 3.73c4.26-1.67 8.47.67 12.8.43 1.42-.22 2.24 1.13 3.23 1.9l2.7-2.14 3.45 4.18 1.5-3.25 5.23 1.31c2.29 3.6 7.02 2.49 10.63 3.17l-1.48-2.36 2.39-1.21 5.18 3.88 3.62-3.36.77 4.33c4.53-1.44 9.38-.48 13.9-1.93 1.9.77 3.69 2.08 5.78 2.24 2.14-.48 3.7-2.18 5.22-3.65v33.44c-1.23 2.29-2.59 4.51-3.92 6.74l-3.06-2.91c-1.07 1.25-2.07 2.58-3.34 3.63-1.16.11-2.31.18-3.46.2l1.29-4.17c-3.54.68-6.92 2.01-10.44 2.7-2.71-1.09-4.58-3.61-6.8-5.44-1.17 1.05-2.25 2.23-3.6 3.05-1.73.51-3.57.4-5.35.5l-3.61-3.97-2.85.01-.83-4.76c-2.13 2.02-4.02 4.31-6.33 6.14-1.38.04-2.74-.24-4.1-.43l-.23-4.62c-1.19 1-2.23 2.41-3.88 2.61-2.21.63-4.04-1.01-5.82-2.02l-2.67 2.7c-3.29-1.37-6.26-3.33-9.4-4.98-1.73-.93-3.75-.36-5.61-.37-2.57.22-5.11-.28-7.66-.35-1.86.88-3.18 2.54-4.65 3.92l-3.82-4.25-3 3.68c-1.33-1.95-1.62-4.27-1.55-6.57l-6.39-.87-2.11 3-4.58-2.16-3.15 1.55c-1.73-1.84-3.7-3.48-6.15-4.25l-.79 4.54-1.62-3.75c-4.52-.87-9.33.37-13.64-1.54-4.83.66-9.33-1.61-14.04-2.18-2.85-.37-5.7.14-8.52.54-1.36-1-2.54-2.43-4.2-2.89-3.17-.28-6.33.42-9.5.11-3.95-.26-8.14-1.62-11.92.21-1.41 1.99-.66 4.52-.73 6.78.14 2.1-.62 4.1-1.15 6.1l-2.9-2.53.22-1.42 2.19-1.85c-.55-5.24-2.71-10.18-6.38-13.98 1.76-1.75 4.04-3.06 5.42-5.16.52-2.42.26-4.93.21-7.39 1.65.17 3.32.44 5 .28 1.99-.71 3.4-2.41 4.96-3.75-2.36-1.42-5.14-1.43-7.8-1.42l4.56-5.51-4.12-1.88-2.57 3.08-2.77-1.64 3.21-2.7.05-6.58-3.93 2.62c-2.58-3.68-5.26-7.37-8.87-10.12-2.84-2.07-4.75-5.05-6.39-8.1-.12-2.19-.13-4.38-.19-6.57.82.71 1.65 1.41 2.51 2.09.97.34 1.97.59 2.98.83l2.41-6.37z"/><path fill="#767b6c" d="M291.03 139.22c1.09-3.78-1.22-7.99 1.55-11.32 1.03 2.68 1.62 5.49 2.13 8.3.26 1.33.55 2.65.87 3.96.23 1.05.43 2.11.6 3.18l.1 1.67-2.25 1.19c-.85-1.46-1.79-2.87-2.73-4.27l-1.24 7.59c-1.12-3.21-2-6.51-2.65-9.85l-.54-9.04c2.46 2.24 2.7 5.75 4.16 8.59z"/><path fill="#f9f9fb" d="M272.48 129.56l1.54-.99 1 8.65-2.5.45c-.13-2.68-.84-5.48-.04-8.11z"/><path fill="#707077" d="M281.11 129.33l2.07.71c.17 6.16.71 12.29 1.69 18.37 1.37 9.11 1.89 18.32 3.21 27.44l2.03 17.25-1.94-.16c-.56-3.05-.84-6.13-1.19-9.2l-1.85-16.13c-.59-5.29-1.03-10.6-1.94-15.84-.98-6.94-1.25-13.95-2.22-20.89l.14-1.55z"/><path fill="#b5bba8" d="M278.9 133.58l2.07-2.7c.97 6.94 1.24 13.95 2.22 20.89a101.11 101.11 0 0 1-1.51 5.42c-.61 1.62-1.68 2.98-2.91 4.18-.84-9.45-2.1-18.84-3.12-28.27l3.25.48z"/><path fill="#1e1f1c" opacity=".46" d="M294.71 136.2c.54-1.52 1.23-2.97 1.97-4.4.72 2.84.79 5.94-1.1 8.36l-.87-3.96z"/><path fill="#3b3e42" d="M256.62 137.56c1.2-2.29 3.2-3.89 5.41-5.15.77 1.37 2.11 2.66 1.72 4.37.01 2.22-1.06 4.94 1.05 6.57l-2 3.1-.9-6.63-.18-2.61-5.1.35z"/><path fill="#565756" d="M256.62 137.56l5.1-.35.18 2.61-3.26.95-1.46 4.75 3.41 4.36c-1.59 2.2-3.33 4.27-5.14 6.29l-5.25-1.21.48-4.23c.59-4.93 2.95-9.3 5.94-13.17z"/><path fill="#8b7267" d="M266.01 141.65l2.97-3.92 1.91 6.26.31 5.74-.26 7.04-1.71 3.6-.65-2.56c-.46-4.81.23-9.73-.83-14.46l-1.74-1.7z"/><path opacity=".13" d="M298.16 138.08l.75-.53c1.64 3.05 3.55 6.03 6.39 8.1 3.61 2.75 6.29 6.44 8.87 10.12l3.93-2.62-.05 6.58-3.21 2.7 2.77 1.64 2.57-3.08 4.12 1.88-4.56 5.51c2.66-.01 5.44 0 7.8 1.42-1.56 1.34-2.97 3.04-4.96 3.75-1.68.16-3.35-.11-5-.28.05 2.46.31 4.97-.21 7.39-1.38 2.1-3.66 3.41-5.42 5.16-3.49-4.07-7.31-7.91-11.84-10.81-2.24-1.55-4.76-2.72-6.69-4.66-1.8-3.19-.01-6.92.66-10.19l1.62-.68.7-.31c.98-4.68.97-9.49-.12-14.16l-.1-1.67c.61-1.77 1.29-3.52 1.98-5.26z"/><path fill="#fcfcfe" d="M272.52 139.01l2.66-.13c.82 7.08 1.69 14.16 1.8 21.29l-2.46-1.49c.27-4.9-.06-9.83-1.45-14.55-.23-1.7-.38-3.41-.55-5.12z"/><path fill="#6a6c6d" d="M258.64 140.77l3.26-.95.9 6.63-2.21 3.43-3.41-4.36 1.46-4.75z"/><path fill="#8f9781" d="M286.83 144.7c-.63-1.7.12-3.4.58-5.03.65 3.34 1.53 6.64 2.65 9.85.46-2.52.84-5.05 1.24-7.59.94 1.4 1.88 2.81 2.73 4.27.22 2.53.25 5.07.55 7.6-1.13.05-2.27.03-3.39.25-1.09.71-1.6 2.02-2.36 3.04-.34-4.18-.76-8.37-2-12.39z"/><path fill="#eab999" d="M264.8 143.35l1.21-1.7 1.74 1.7c1.06 4.73.37 9.65.83 14.46-1.35 3-2.33 6.57-5.21 8.5-3.57 2.41-7.34 4.57-11.36 6.14-1.22-.76-2.41-1.57-3.6-2.37.49-3.44 1.52-6.82 3.35-9.79 1.2-1.41 2.45-2.76 3.69-4.12 1.81-2.02 3.55-4.09 5.14-6.29.77-1.12 1.49-2.28 2.21-3.43a90.97 90.97 0 0 1 2-3.1z"/><path fill="#b3b5bf" d="M270.89 143.99l2.18.14c1.39 4.72 1.72 9.65 1.45 14.55l2.46 1.49.26.83-1.89.2-.45.78.3.77.83.24 1.46-1.19a58.1 58.1 0 0 1 .83 2.94c-1.7-.31-3.42-.39-5.14-.24-.87-4.89-1.23-9.86-1.98-14.77l-.31-5.74z"/><path fill="#555550" opacity=".97" d="M294.03 146.2l2.25-1.19c1.09 4.67 1.1 9.48.12 14.16l-.7.31c-.38-1.89-.81-3.78-1.12-5.68-.3-2.53-.33-5.07-.55-7.6z"/><path fill="#93949d" d="M271.2 149.73c.75 4.91 1.11 9.88 1.98 14.77 1.1 1.72 2.39 3.31 3.69 4.88l-.22.75-1.23 3.97-.37-3.69-5.11.44-2.89.25.13 7.08-2.73 1.69-.93-.09.51-2.7 1.14-.96-.04-.81c1.18-1.09 1.27-2.74.91-4.2.25-.24.76-.71 1.01-.94 1.96-.15 3.92-.18 5.88-.23l-1.99-13.17.26-7.04z"/><path fill="#4a3d34" opacity=".67" d="M247.72 165.67c2.33-4.66 1.29-10.08 2.96-14.94a97.65 97.65 0 0 0-.48 4.23c.14 1.87.82 3.62 1.56 5.33-1.83 2.97-2.86 6.35-3.35 9.79l-.69-4.41z"/><path fill="#a8a7ad" d="M283.19 151.77c.91 5.24 1.35 10.55 1.94 15.84l-2.56-.82c.1-3.22-.05-6.47-.89-9.6a101.11 101.11 0 0 0 1.51-5.42z"/><path fill="#7d8272" d="M291.19 154.05c1.12-.22 2.26-.2 3.39-.25l1.12 5.68-1.62.68c-2.98 2.29-2.19 6.53-2.41 9.82l-.86-.31c.26-4.3-.81-8.49-1.98-12.58.76-1.02 1.27-2.33 2.36-3.04z"/><path fill="#4c4946" d="M251.76 160.29c-.74-1.71-1.42-3.46-1.56-5.33l5.25 1.21-3.69 4.12z"/><path fill="#5c4c45" d="M269.23 160.37l1.71-3.6c.56 4.4 1.37 8.77 1.99 13.17-1.96.05-3.92.08-5.88.23 2.17-2.82 2.61-6.36 2.18-9.8z"/><path fill="#a7ad9a" d="M281.68 157.19c.84 3.13.99 6.38.89 9.6l.02 3.11-1.97-.94c-1.04-2.41-1.69-4.97-1.85-7.59 1.23-1.2 2.3-2.56 2.91-4.18z"/><path fill="#d8a988" d="M268.58 157.81l.65 2.56c.43 3.44-.01 6.98-2.18 9.8l-1.01.94c-1.45.83-2.4 2.44-1.76 4.12l-.25 1.85-3.46-.34c-2.88-1.37-5.73-2.82-8.56-4.29 4.02-1.57 7.79-3.73 11.36-6.14 2.88-1.93 3.86-5.5 5.21-8.5z"/><path fill="#565553" d="M291.67 169.98c.22-3.29-.57-7.53 2.41-9.82-.67 3.27-2.46 7-.66 10.19 1.93 1.94 4.45 3.11 6.69 4.66 4.53 2.9 8.35 6.74 11.84 10.81 3.67 3.8 5.83 8.74 6.38 13.98l-2.19 1.85c-3.78-2.86-5.39-7.31-7.68-11.24-1.9-.8-4.36-.25-5.7 1.31-1.18 3.33-.17 6.89.16 10.27 4.19 1.46 8.64 1.26 13 1.08l2.9 2.53c-.24 5.37 2.23 10.37 2.81 15.65-1.36-3.46-2.8-6.89-3.91-10.44l-1.6-4.82c-2.05 1.32-4.03 2.75-5.93 4.27l.44 4.5-1.5.64-1.84 1.23-.63.54-.28-1.63-2.26-.94c-1.5-2.64-3.83-4.58-6.48-5.99.69-1.75 1.42-3.51 1.62-5.4-1.22-1.99-3.03-3.53-4.3-5.48-.17-3.51 1.29-6.94.78-10.45-.42-3.08-1.34-6.06-2.11-9.06l4.32 2.77c.38-1.71.59-3.46.53-5.21l-4.8-1.21-2.01-4.59m9.63 7.21c-.68 2.03-1.46 4.02-2.38 5.95 1.33 1.91 2.11 5.34 4.99 5.12.27-1.13.46-2.28.63-3.43a45.86 45.86 0 0 1 2.92-1.6c-1.96-2.11-4.04-4.1-6.16-6.04z"/><path fill="#eceaf6" d="M275.35 161.2l1.89-.2.25.8-1.46 1.19-.83-.24-.3-.77.45-.78z"/><path fill="#c4c3cd" d="M273.18 164.5c1.72-.15 3.44-.07 5.14.24l-1.45 4.64-3.69-4.88z"/><path fill="#615f5b" d="M244.31 169.13c.57-1.63 1.91-2.7 3.41-3.46l.69 4.41 3.6 2.37 8.56 4.29c-4.03.86-7.66 3.32-11.86 3.32-2.48-.03-4.87.6-7.15 1.51.48-4.23 1.82-8.3 2.75-12.44z"/><path fill="#7c8076" d="M282.57 166.79l2.56.82 1.85 16.13a179.39 179.39 0 0 0-5.2.17 35.88 35.88 0 0 0-2.33-11.86l1.17-3.09 1.97.94-.02-3.11m-.62 5.12c-.46 2.64-.74 5.64 1.03 7.89 2.03-2.07 1.39-5.18.8-7.69l-.87-.49-.96.29z"/><path fill="#4f4e4c" d="M239.13 180.02c2.13-3.41 3.16-7.4 5.18-10.89-.93 4.14-2.27 8.21-2.75 12.44 2.28-.91 4.67-1.54 7.15-1.51 4.2 0 7.83-2.46 11.86-3.32l3.46.34-.51 2.7-.36 2.34c-.36 3.05-1.99 7.24-5.79 6.62-2.5-1.59-3.98-4.87-7.29-5.03-4.19-1.03-8.04 1.43-11.05 4.08 1.65 2.04 3.13 4.25 5.09 6.02 3.62 1.27 7.56 1.16 11.32 1.78l1.21 3.27c-2.71-.83-5.51-1.23-8.28-1.69-3.73-.76-7.51-1.13-11.3-1.23-1.13-1.19-2.19-2.43-3.48-3.43-1.41-.47-2.93.13-4.16.81-1.46 1.81-1.23 4.31-1.59 6.48l-.79-.38c.01-4.91 1.61-9.8 4.84-13.54 1.91-2.53 4.85-3.87 7.24-5.86z"/><path fill="#dedeeb" d="M269.94 170.85l5.11-.44.37 3.69-.52 3.95-1.89.07c-1.18-2.36-2.13-4.82-3.07-7.27z"/><path fill="#6c6e78" d="M275.42 174.1l1.23-3.97.09 8.41 1.27 1.4-6.94.34-.15 6.76.16 1.94-2-8.46-4.63-.65 2.73-1.69 5.83-.06 1.89-.07.52-3.95z"/><path fill="#82857c" d="M290.81 169.67l.86.31 2.01 4.59 4.8 1.21c.06 1.75-.15 3.5-.53 5.21l-4.32-2.77 2.11 9.06c.51 3.51-.95 6.94-.78 10.45 1.27 1.95 3.08 3.49 4.3 5.48-.2 1.89-.93 3.65-1.62 5.4 2.65 1.41 4.98 3.35 6.48 5.99l-1.72.7-5.25-4.15-.63 4.92c-1.56-.55-3.1-1.15-4.63-1.75 1.7 1.57 3.36 3.18 4.97 4.85l-.65 3.16-.57-.39c-1.35-1.52-2.54-3.16-3.7-4.81l-1.34.77-.71.4c-2.4-2.8-.39-7.31-3.68-9.46l-1.13-1 4.12-3.65a28.97 28.97 0 0 1 2.88 8.06c.33.23 1.01.67 1.35.89l.26-3.14c.29-3.83 1.12-7.8-.13-11.54-2.11-6.32-2.78-13.1-1.86-19.7.4-1.79-.36-3.45-1.16-4.99l.27-4.1z"/><path fill="#8f7b73" d="M264.28 175.23c-.64-1.68.31-3.29 1.76-4.12.36 1.46.27 3.11-.91 4.2l-.85-.08z"/><path fill="#bdbfcd" d="M267.05 171.1l2.89-.25 3.07 7.27-5.83.06-.13-7.08z"/><path fill="#a5ae8f" d="M281.95 171.91l.96-.29.87.49c.59 2.51 1.23 5.62-.8 7.69-1.77-2.25-1.49-5.25-1.03-7.89z"/><path fill="#abb29f" d="M290.54 173.77c.8 1.54 1.56 3.2 1.16 4.99-.92 6.6-.25 13.38 1.86 19.7 1.25 3.74.42 7.71.13 11.54-.98-1.99-1.89-4.02-2.52-6.15-.27-3.59-.49-7.19-1.06-10.75-.79-5.74-1.41-11.49-2.03-17.25.56 1.16 1.16 2.3 1.77 3.45l.69-5.53z"/><path fill="#c1c3c9" d="M264.28 175.23l.85.08.04.81-1.14.96.25-1.85z"/><path d="M301.3 177.19l6.16 6.04-2.92 1.6-.63 3.43c-2.88.22-3.66-3.21-4.99-5.12.92-1.93 1.7-3.92 2.38-5.95zm-41.47 173.27l1.43-.94 6.72.66 1.17.98c.09 2.36 1.24 5.27-.92 7.03-2.54 2.8-6.8 5.18-10.49 3.12-1.86-2.21-2.33-5.25-2.84-8 1.3-1.54 3 .31 4.44.72.14-1.2.29-2.39.49-3.57m3.42.56c-.78 2.08-1.09 4.27-.81 6.49l4.01.57c.21-1.88.69-3.8.28-5.68-.74-1.23-2.27-1.12-3.48-1.38z" fill="#686766"/><path fill="#1e2025" d="M263.16 182.12l.36-2.34.93.09 4.63.65 2 8.46 1.06 1.08c1.27 1.05 3.06 2.02 2.87 3.95.31 5.81.85 11.6 2.01 17.31.19 2.39-2.12 3.03-3.91 3.77-.43-3.34-.48-6.74-1.17-10.05-.2-1.25-1.31-2.01-2.17-2.8-.49-2.81-.9-5.65-1.63-8.41-1.08-4.15-3.8-7.61-4.98-11.71z"/><path fill="#848689" d="M271.07 180.28l6.94-.34c1.02 1.42 1.63 3.07 1.88 4.8-1.64.85-1.28 2.8-1.62 4.31-.28 2.35-2.69 4.21-1.95 6.68.85 3.86 1.24 7.81.68 11.74l2.27-.2-.04 4.44 4.01.78c-2.18.52-4.35.02-6.22-1.17-1.16-5.71-1.7-11.5-2.01-17.31.19-1.93-1.6-2.9-2.87-3.95 1.22-.73 2.12-3.45.14-3.77l-1.36.75.15-6.76z"/><path fill="#3f3d3a" d="M263.16 182.12c1.18 4.1 3.9 7.56 4.98 11.71.73 2.76 1.14 5.6 1.63 8.41l-2.81-1.17c-1.2-1.64-2.55-3.16-4.06-4.52.31 2.37.53 4.74.53 7.13l1.62 1.11-1.29 2.33c-2.96-1.83-5.9-3.99-6.81-7.55l-.3-.71c-.43-1.09-.82-2.18-1.21-3.27-3.76-.62-7.7-.51-11.32-1.78-1.96-1.77-3.44-3.98-5.09-6.02 3.01-2.65 6.86-5.11 11.05-4.08 3.31.16 4.79 3.44 7.29 5.03 3.8.62 5.43-3.57 5.79-6.62z"/><path fill="#a1a594" d="M281.78 183.91l5.2-.17 1.19 9.2-3.85 3.16.7 4.68 2.71-2.47.38 4.26 3.06 1.28c.63 2.13 1.54 4.16 2.52 6.15l-.26 3.14-1.35-.89a28.97 28.97 0 0 0-2.88-8.06l-4.12 3.65-1.1-.99-1.69-9.27c-.87-4.51-.3-9.11-.51-13.67z"/><path fill="#c1c1cb" d="M278.27 189.05c.34-1.51-.02-3.46 1.62-4.31.94 5.57 1.28 11.22 1.95 16.83.26 1.86-.06 3.72-.52 5.53-.51.05-1.53.13-2.05.17l-2.27.2c.56-3.93.17-7.88-.68-11.74-.74-2.47 1.67-4.33 1.95-6.68z"/><path fill="#a2a3a9" d="M272.28 186.29c1.98.32 1.08 3.04-.14 3.77l-1.06-1.08-.16-1.94 1.36-.75z"/><path fill="#6c6c6d" d="M302.76 191.72c1.34-1.56 3.8-2.11 5.7-1.31 2.29 3.93 3.9 8.38 7.68 11.24l-.22 1.42c-4.36.18-8.81.38-13-1.08-.33-3.38-1.34-6.94-.16-10.27m.51 5.56l.01.45h.44v-.45h-.45z"/><path fill="#616464" d="M229.43 193.32c1.23-.68 2.75-1.28 4.16-.81 1.29 1 2.35 2.24 3.48 3.43l-1.57 1.35.55 2.16-1.2 1.68-3.48.07-3.53-1.4c.36-2.17.13-4.67 1.59-6.48z"/><path fill="#888d7c" d="M288.17 192.94l1.94.16c.57 3.56.79 7.16 1.06 10.75l-3.06-1.28-.38-4.26-2.71 2.47-.7-4.68c1.26-1.08 2.53-2.16 3.85-3.16z"/><path fill="#727374" d="M237.07 195.94c3.79.1 7.57.47 11.3 1.23-2.7.86-5.59 1.25-8.01 2.81a126.67 126.67 0 0 1-4.31-.53l-.55-2.16 1.57-1.35z"/><path fill="#626463" d="M248.37 197.17l8.28 1.69.3.71-2.08 2.97c-4.84-.81-9.73-1.41-14.51-2.56 2.42-1.56 5.31-1.95 8.01-2.81z"/><path fill="#5a5a54" d="M262.9 196.55c1.51 1.36 2.86 2.88 4.06 4.52l2.81 1.17c.86.79 1.97 1.55 2.17 2.8.69 3.31.74 6.71 1.17 10.05 1.79-.74 4.1-1.38 3.91-3.77 1.87 1.19 4.04 1.69 6.22 1.17 1.16-.15 2.33-.33 3.49-.54l-.52-3.11c3.29 2.15 1.28 6.66 3.68 9.46l-1.68.93-1.39-1.19-.86.17c-1.32.32-2.62.69-3.92 1.04-2.2-1.24-4.58-2.15-7-2.85l-1.14 2.21c-1.49-.01-3.3-.52-4.4.8-2.82 2.37-2.54 6.31-2.99 9.61-1.05 2.94-3.01 5.42-4.17 8.31-1.01 2.99-1.41 6.14-2.06 9.22l-2.68-4.25-4.35 3.05c.38 1.03.73 2.07 1.23 3.06 1.56 1.02 3.36 1.57 5.07 2.27l.49 3-4.22-2.44c-.61 2.64-.08 5.32.44 7.93l-4.19-2.72c-1.22 2.14-2.41 4.3-3.81 6.32-1.37 1.14-2.81 2.18-4.25 3.21 2.55-5.88 5.85-11.47 7.28-17.78.91-3.03 1.64-6.11 2.81-9.06 2-1.84 4.2-3.46 6.26-5.23a68.61 68.61 0 0 1 .64-.89 10.34 10.34 0 0 1 4.33-5.45l.36-2.42-7.53 2.91c-.96-1.43-1.62-3.17-3.03-4.22-2.9-1.27-6.13-1.26-9.21-1.77l-.87-.18c-1.74-.49-3.45-1.09-5.15-1.68 2.09-.18 4.18-.37 6.27-.44 2.3.36 4.53 1.05 6.76 1.72 2.9.8 5.76 1.82 8.76 2.2 1.86-1.31.66-3.82-.01-5.48-1.51-2.9-2.68-5.98-2.83-9.28 1.19-.59 2.34-1.26 3.49-1.95-3.18-.32-6.36-.06-9.52.28-4.19.43-8.25-.93-12.24-2l1.42-2.44c5.21-.08 10.27 1.29 15.23 2.74l-2.36-3.02 2.08-2.97c.91 3.56 3.85 5.72 6.81 7.55l1.46 5.19c.72-1.05 1.42-2.11 2.05-3.21l4.69 1.87.04-2.78-4.75-2.24-2.2-1.16-1.62-1.11c0-2.39-.22-4.76-.53-7.13m1.99 16.17c-.35 3.34 3.82 3.27 6.07 4.13-1.73-1.75-3.4-3.96-6.07-4.13m16.3 1.69c-1.24.97.28 3.28 1.58 2.16 1.23-.97-.29-3.28-1.58-2.16m-14.82 3.75c-.37 1.41.13 1.89 1.52 1.43.37-1.42-.14-1.89-1.52-1.43z"/><path fill="#b6b4b5" d="M303.27 197.28h.45v.45h-.44l-.01-.45z"/><path fill="#989a9d" d="M236.05 199.45l4.31.53c4.78 1.15 9.67 1.75 14.51 2.56l2.36 3.02c-4.96-1.45-10.02-2.82-15.23-2.74-3.42.4-6.88.97-10.31.33l-1.06-1.56.74-.39 3.48-.07 1.2-1.68z"/><path fill="#616361" d="M228.74 203.76c.56-.78 1.19-1.5 1.89-2.17l1.06 1.56-.62 3.24c1.85-.64 3.8-1.36 5.78-.83-3.46 1.29-6.49 4.02-7.33 7.72-.27 2.14.32 4.27.63 6.38 5.34-.1 10.72-.82 16.02.11-2.09.07-4.18.26-6.27.44 1.7.59 3.41 1.19 5.15 1.68-8.44-1.39-17.48-1.15-25.19 2.9-1.69.92-2.7 2.62-3.87 4.07 5.7-1.31 11.37-2.84 17.15-3.74 4.9-.81 9.85.15 14.72.68.99.62 1.97 1.28 2.94 1.94l-4.17 4.42c.1 1.3.2 2.6.22 3.91l-1.32.1c-1.35-1.25-2.64-2.54-3.94-3.83-6.05.29-12.36-.22-18.04 2.32-4.07 1.3-7.11 4.36-9.92 7.43-.02-1.21-.08-2.41-.14-3.61l4.96-4.81c-2.3-1.25-4.59-.16-6.47 1.29.9-2.48 1.35-5.14 2.61-7.48 3.04-4.64 9.34-5.78 12.26-10.54 2.36-4 .78-8.86 1.89-13.18z"/><path fill="#454540" d="M231.69 203.15c3.43.64 6.89.07 10.31-.33l-1.42 2.44c3.99 1.07 8.05 2.43 12.24 2 3.16-.34 6.34-.6 9.52-.28-1.15.69-2.3 1.36-3.49 1.95-3.35.38-6.72.49-10.08.49-4.25-.28-8.3-1.65-11.92-3.86-1.98-.53-3.93.19-5.78.83l.62-3.24z"/><path fill="#2d3034" d="M263.76 207.12l1.29-2.33 2.2 1.16.02 3.15-2.05 3.21-1.46-5.19z"/><path fill="#8f8f86" d="M229.52 213.28c.84-3.7 3.87-6.43 7.33-7.72 3.62 2.21 7.67 3.58 11.92 3.86 2.62.55 5.71 1.34 6.95 4.02 1.16 2.89.77 7.16-2.79 8.05-2.23-.67-4.46-1.36-6.76-1.72-5.3-.93-10.68-.21-16.02-.11-.31-2.11-.9-4.24-.63-6.38z"/><path fill="#737377" d="M267.25 205.95l4.75 2.24-.04 2.78-4.69-1.87-.02-3.15z"/><path fill="#6e6d6d" d="M310.19 210.26c1.9-1.52 3.88-2.95 5.93-4.27l1.6 4.82c-2.18 1.61-4.55 2.97-7.09 3.95l-.44-4.5z"/><path fill="#81c4e4" d="M279.27 207.27l2.05-.17 2.66-.25 1.1.99 1.13 1 .52 3.11-3.49.54-4.01-.78.04-4.44m.56.84c-.34 2.69 2.42 2.01 4.18 2.28l-.06-2.24-4.12-.04z"/><path fill="#d4feff" d="M279.83 208.11l4.12.04.06 2.24c-1.76-.27-4.52.41-4.18-2.28z"/><path fill="#75756b" d="M248.77 209.42c3.36 0 6.73-.11 10.08-.49.15 3.3 1.32 6.38 2.83 9.28.67 1.66 1.87 4.17.01 5.48-3-.38-5.86-1.4-8.76-2.2 3.56-.89 3.95-5.16 2.79-8.05-1.24-2.68-4.33-3.47-6.95-4.02z"/><path fill="#3d3330" d="M297.15 211.15l5.25 4.15 1.72-.7c-.98 5.71-.06 11.69 3.01 16.65l-1.69.69-1.61-1.15c-1.06-.46-2.14-.85-3.21-1.25l1.51-2.68c-.78-.76-1.58-1.49-2.39-2.21-.11-.08-.33-.25-.44-.34-1.01-.7-2.06-1.33-3.09-1.98l.65-3.16c-1.61-1.67-3.27-3.28-4.97-4.85l4.63 1.75.63-4.92m1.04 8.15c-1.35.97.04 3.7 1.56 2.5 1.33-.97-.06-3.7-1.56-2.5z"/><path fill="#ca9677" d="M310.63 214.76c2.54-.98 4.91-2.34 7.09-3.95 1.11 3.55 2.55 6.98 3.91 10.44l.42 1.61c.4 4.19 1.21 8.35 2.88 12.23 3.1 7.35 3.31 15.4 4.21 23.21l-.1.89c-2.65.75-5.32 1.4-7.99 2.03 1.21-.77 2.4-1.59 3.59-2.4-.38-6.62-.99-13.27-2.81-19.68-1.6-5.35-2.37-11.2-6.03-15.66-.76 3.13-.97 6.34-1.01 9.55-.06 4.29-.96 8.67.25 12.89 1.51 5.23 2.54 10.68 5.15 15.52l-4.02.91-3.1-2.28c.03-3.63-.4-7.25-1.19-10.78-2.52-11.14-1.05-22.65-2.75-33.89l1.5-.64z"/><path fill="#6e6d65" d="M264.89 212.72c2.67.17 4.34 2.38 6.07 4.13-2.25-.86-6.42-.79-6.07-4.13z"/><path fill="#8a917f" d="M281.19 214.41c1.29-1.12 2.81 1.19 1.58 2.16-1.3 1.12-2.82-1.19-1.58-2.16z"/><path opacity=".07" d="M304.12 214.6l2.26.94.28 1.63c.44 4.93 1.19 9.87.84 14.84l-.37-.76c-3.07-4.96-3.99-10.94-3.01-16.65z"/><path fill="#8d674e" opacity=".97" d="M307.29 216.63l1.84-1.23c1.7 11.24.23 22.75 2.75 33.89.79 3.53 1.22 7.15 1.19 10.78-2.56-2.77-2.1-6.87-2.91-10.31-.52-4.23-.75-8.48-.83-12.73-.16-6.85-1.28-13.61-2.04-20.4z"/><path fill="#606378" d="M273.9 218.61l1.14-2.21c2.42.7 4.8 1.61 7 2.85l3.92-1.04.18 1.36.72.24 1.35-.58 1.68-.93.71-.4.62 6.07c1.89.85 3.08-1.05 4.42-2.03l.57.39 3.09 1.98.44.34 2.39 2.21-1.51 2.68 3.21 1.25c-1.27.77-2.2 1.94-3.07 3.11l2.79-.21 1.89-1.75 1.69-.69.37.76-.03 2.54-2.51 1.71-3.4 3.59-2.24-2.84c-1.32-2.88-1.18-6.09-1.4-9.17l-.1-.83-.75-.32-.6.54.2.82.73.42-2.21 2.76-3.45-3.65c-1.91-2.21-4.24-4-6.77-5.43l-.85 7.05-1.52.38-1.16.77c-3.15-.92-6.37-1.71-9.66-1.91l.91-5.62c.33-1.42.74-2.83 1.21-4.21m4.34.65l.01.44h.45l-.01-.45-.45.01m14.2 5.79c-.98 1.34 1.36 2.74 2.32 1.58.98-1.34-1.37-2.75-2.32-1.58m6.89 1.2l-.01.45h.45l.01-.44-.45-.01z"/><path fill="#bdbac5" d="M290.6 217.9l1.34-.77 3.7 4.81c-1.34.98-2.53 2.88-4.42 2.03-.33-2.01-.49-4.04-.62-6.07z"/><path fill="#020101" opacity=".16" d="M306.66 217.17l.63-.54c.76 6.79 1.88 13.55 2.04 20.4.08 4.25.31 8.5.83 12.73l-.77 4.52c-2.09-2.97-1.03-6.78-1.32-10.15v-.91l-1.12-1.51c-1.45-1.46-1.66-3.53-1.99-5.45a92.01 92.01 0 0 1 2.51-1.71l.03-2.54c.35-4.97-.4-9.91-.84-14.84z"/><path fill="#807c7b" d="M266.37 218.16c1.38-.46 1.89.01 1.52 1.43-1.39.46-1.89-.02-1.52-1.43z"/><path fill="#40404a" d="M269.5 219.41c1.1-1.32 2.91-.81 4.4-.8l-1.21 4.21-3.57.22-1.29 5.96 3.95-.56c3.29.2 6.51.99 9.66 1.91l-1.72 1.25c-4.34-1.16-8.8-1.75-13.21-2.58.45-3.3.17-7.24 2.99-9.61z"/><path fill="#adacb9" d="M285.96 218.21l.86-.17 1.39 1.19-1.35.58-.72-.24-.18-1.36z"/><path fill="#afadba" d="M278.24 219.26l.45-.01.01.45h-.45l-.01-.44z"/><path fill="#767377" d="M298.19 219.3c1.5-1.2 2.89 1.53 1.56 2.5-1.52 1.2-2.91-1.53-1.56-2.5z"/><path fill="#928f87" d="M219.86 224.79c7.71-4.05 16.75-4.29 25.19-2.9l.87.18c2.84.81 5.86 1.47 8.14 3.46-2.06.19-4.13.33-6.2.27-4.87-.53-9.82-1.49-14.72-.68-5.78.9-11.45 2.43-17.15 3.74 1.17-1.45 2.18-3.15 3.87-4.07z"/><path fill="#706f6d" d="M245.92 222.07c3.08.51 6.31.5 9.21 1.77 1.41 1.05 2.07 2.79 3.03 4.22l7.53-2.91-.36 2.42a10.34 10.34 0 0 0-4.33 5.45l-.64.89-2.25-1.05c-1.61 1.9-3.14 3.92-4.01 6.28-1.17 2.95-1.9 6.03-2.81 9.06-2.72.5-5.25 1.64-7.57 3.12-.31 3.51-1.67 6.78-3.2 9.92l1.28-.51c-1.02.81-2.05 1.62-3.13 2.37l-.83.08c.75-2.18 1.24-4.44 1.66-6.71l-1.95-1.05c2.15-2.61 2.73-5.96 3.89-9.03 2.19-1.31 1.87 2.13 2.4 3.44 2.29-1.69 4.76-3.15 6.86-5.08-.12-1.82-.57-3.6-.94-5.37-1.2-.01-2.4-.01-3.6 0l.69-3.31c-.02-1.31-.12-2.61-.22-3.91l4.17-4.42-2.94-1.94c2.07.06 4.14-.08 6.2-.27-2.28-1.99-5.3-2.65-8.14-3.46z"/><path fill="#727586" d="M284.97 222.15c2.53 1.43 4.86 3.22 6.77 5.43-2.18 1.85-4.94 1.84-7.62 1.62l.85-7.05z"/><path fill="#6d748c" d="M269.12 223.04l3.57-.22c-.4 1.86-.68 3.74-.91 5.62l-3.95.56 1.29-5.96z"/><path fill="#705443" opacity=".82" d="M322.05 222.86c3.64 8.79 5.57 18.11 7.83 27.31.14 1.89 2.32 2.09 3.79 1.83l.38.48c-1.03.68-2.06 1.38-3.02 2.14-.71 1.18-1.34 2.41-1.89 3.68-.9-7.81-1.11-15.86-4.21-23.21-1.67-3.88-2.48-8.04-2.88-12.23z"/><path fill="#fff" d="M299.3 224.31l.44.34-.44-.34z"/><path fill="#dfac8e" d="M314.79 233.03c.04-3.21.25-6.42 1.01-9.55 3.66 4.46 4.43 10.31 6.03 15.66 1.82 6.41 2.43 13.06 2.81 19.68l-3.59 2.4-.86.22c-2.61-4.84-3.64-10.29-5.15-15.52-1.21-4.22-.31-8.6-.25-12.89z"/><path fill="#3f3f4b" d="M292.44 225.05c.95-1.17 3.3.24 2.32 1.58-.96 1.16-3.3-.24-2.32-1.58z"/><path fill="#b0afbd" d="M299.33 226.25l.45.01-.01.44h-.45l.01-.45z"/><path fill="#9795a1" d="M296.47 227.23l.6-.54.75.32.1.83-.52.63-.73-.42-.2-.82z"/><path fill="#565658" d="M284.12 229.2c2.68.22 5.44.23 7.62-1.62l3.45 3.65 2.21-2.76.52-.63c.22 3.08.08 6.29 1.4 9.17-2.05 1.86-2.98 4.48-3.69 7.09-4.26-2.74-8.96-4.56-13.59-6.52-.78-2.63.2-5.37.56-8l1.52-.38z"/><path fill="#84827a" d="M262.34 237.33c1.16-2.89 3.12-5.37 4.17-8.31 4.41.83 8.87 1.42 13.21 2.58l1.72-1.25 1.16-.77c-.36 2.63-1.34 5.37-.56 8 4.63 1.96 9.33 3.78 13.59 6.52l1.15 2.19c-1.71-.64-3.43-1.27-5.11-1.98-2.15-1.36-4.45-2.52-6.91-3.22l-1.15 1.57c-3.63 3.76-3.03 9.64-6.66 13.38-2.06-1.9-4.56-3.65-5.51-6.41-.04-1.77.78-3.41 1.29-5.07-2.17-.57-4.33-1.38-6.59-1.35-1.63.4-2.81 1.74-4.14 2.68l2.92 4.93c-1.99-.87-3.5-2.46-4.64-4.27.65-3.08 1.05-6.23 2.06-9.22z"/><path fill="#ededf0" d="M300.76 233.9c.87-1.17 1.8-2.34 3.07-3.11l1.61 1.15-1.89 1.75-2.79.21z"/><path fill="#7e7d74" d="M223.55 234.66c5.68-2.54 11.99-2.03 18.04-2.32l3.94 3.83-2.16.55c-4.87-3-10.77-2.26-16.14-1.39-2.46.36-4.36 2.05-6.24 3.52l3.18.38c-3.46 2.19-6.91 4.41-10.61 6.2a124.04 124.04 0 0 0 .07-3.34c2.81-3.07 5.85-6.13 9.92-7.43z"/><path fill="#5d5f5c" d="M211.98 234.96c1.88-1.45 4.17-2.54 6.47-1.29l-4.96 4.81.14 3.61-.07 3.34c3.7-1.79 7.15-4.01 10.61-6.2 6.37-1.14 12.92-.95 19.2-2.51l2.16-.55c.33-.02.99-.07 1.32-.1-.2 1.11-.45 2.2-.69 3.31h3.6c.37 1.77.82 3.55.94 5.37-2.1 1.93-4.57 3.39-6.86 5.08-.53-1.31-.21-4.75-2.4-3.44-1.16 3.07-1.74 6.42-3.89 9.03l1.95 1.05c-.42 2.27-.91 4.53-1.66 6.71l-1.96.16c-.56-3.39-.61-6.96-2.27-10.07a39.75 39.75 0 0 1 3.88-6.36l3.6-2.85-1.58-2.89c-3.36.78-6.86 1.04-10.08 2.33-2.17 1.87-3.46 4.55-4.9 6.98-2 3.4-1.93 7.46-2.27 11.27-.08 2.83-.7 6.24 1.62 8.41.8 1.16 2.27.94 3.5 1.03l.49 3.88.12 1.94c-2.04-2.48-4.07-5.15-7.19-6.33-.06 2.07.52 4.04 1.88 5.62l-1.55-.22c2.33 2.57 5.15 4.64 7.64 7.05l.43.69-6.12-1.37-.83 3.54c2.7 2.09 5.65 4.04 9.1 4.53 5.22.79 10.52.77 15.74 1.58-2.7 1.27-5.59 2.86-8.68 2.15-3.85-.75-7.8-.73-11.61.24 4.82 4.2 11.85 3.81 17.55 1.89 4.37-1.83 8.06-5 12.56-6.58 1.3-.5 2.62-.95 3.95-1.4l1.23 3.85c.49-1.48.47-3.29 1.59-4.47 2.67-.94 5.57-.78 8.36-.78-.99.7-3.03.99-2.49 2.63l2.06.46c-1.65 1.94-3.12 4.02-4.43 6.2-1.93 3.27-4.79 5.93-6.39 9.41 4.22 1.44 8.7 2.14 13.15 1.48-2.55 3.01-4.72 6.73-8.74 7.93-2.62-.91-5.26-1.96-8.06-2.06-2.08 1.09-3.57 3-5.02 4.8-1.01.17-2.03.34-3.03.56l-2.71-2.23c-1.65 2.59-3.23 5.22-4.72 7.91-.4-.25-1.22-.74-1.63-.98-1.8-2.56-3.69-5.08-5.1-7.89 3.25-.33 6.54-.73 9.56-2.04l-.6-2.38c4.72-1.55 9.56-3.21 13.39-6.5 4.01-3.53 8.03-7.46 9.8-12.64-1.82.9-3.62 1.9-5 3.42-3.11 3.24-6.39 6.33-9.98 9.03-3.12-.11-6.26-.07-9.29.74-4.01 1.09-8.29 1.57-11.88 3.81l.92-2.67c-2.26-2.74-4.99-5.03-8.01-6.89-3.85-2.24-5.86-6.69-6.53-10.92.78-1.86 1.98-3.51 2.73-5.37.23-2.32-.27-4.63-.57-6.91-1.17-7.05-2.41-14.12-4.49-20.98l-.04-1.59 3.83.96c1.73-4.15 4.23-7.9 7.12-11.33-1.98.59-4.02 1.04-5.86 1.99-1.6 1.08-2.66 2.76-3.9 4.2l-5.2 1.51-2.54-.96c-.07-3.09-.51-6.24.2-9.28.84-1.98 2.21-3.68 3.39-5.46m-.73 5.29v.45h.45v-.45h-.45z"/><path fill="#a17e6b" d="M258.11 232.86l2.25 1.05-6.26 5.23c.87-2.36 2.4-4.38 4.01-6.28z"/><path fill="#99968d" d="M227.23 235.33c5.37-.87 11.27-1.61 16.14 1.39-6.28 1.56-12.83 1.37-19.2 2.51l-3.18-.38c1.88-1.47 3.78-3.16 6.24-3.52z"/><path fill="#504a4c" d="M301.56 239.85l3.4-3.59c.33 1.92.54 3.99 1.99 5.45l-1.04 1.33.41.88 1.75.21c.29 3.37-.77 7.18 1.32 10.15l-.08 1.39-2.01-.74c-.9-3.51-1.35-7.11-1.87-10.69-1.78-.22-3.74-.58-5.13.85-1.42 1.25-2.8 2.55-4.2 3.83-1.44-.91-2.86-1.83-4.26-2.79l-.17-1.82c1.68.71 3.4 1.34 5.11 1.98l-1.15-2.19c.71-2.61 1.64-5.23 3.69-7.09.72.95 1.48 1.89 2.24 2.84z"/><path fill="#c4c1c3" d="M211.25 240.25h.45v.45h-.45v-.45z"/><path fill="#747575" d="M229.43 243.5c3.22-1.29 6.72-1.55 10.08-2.33l1.58 2.89-3.6 2.85c-2.49 1.57-5.38 2.95-6.66 5.78-2.81 5.68-4.59 12.14-3.45 18.5-1.23-.09-2.7.13-3.5-1.03-2.32-2.17-1.7-5.58-1.62-8.41.34-3.81.27-7.87 2.27-11.27 1.44-2.43 2.73-5.11 4.9-6.98z"/><path fill="#6e737f" d="M283.61 242.66l1.15-1.57 2.08 4.31.62 1.53c-1.99 6.54-4.04 13.1-7.11 19.22l-4.39-1.07c3.66-7.02 7.14-14.39 7.65-22.42z"/><path fill="#3b3c3d" d="M284.76 241.09c2.46.7 4.76 1.86 6.91 3.22l.17 1.82-5-.73-2.08-4.31z"/><path fill="#717372" d="M253.25 245.35l4.35-3.05 2.68 4.25c1.14 1.81 2.65 3.4 4.64 4.27l2.14 1.07c-.15 2.32-.01 4.86-1.42 6.87-1.96 2.92-4.85 5.03-7.05 7.75-2.05 2.5-4.2 4.91-6.62 7.05.3-1.99.89-4.14-.19-6.01-.6-.96-1.22-1.91-1.87-2.83a77.17 77.17 0 0 0-1.65-1.95c1.4-2.02 2.59-4.18 3.81-6.32l4.19 2.72c-.52-2.61-1.05-5.29-.44-7.93l4.22 2.44-.49-3c-1.71-.7-3.51-1.25-5.07-2.27-.5-.99-.85-2.03-1.23-3.06z"/><path fill="#696265" opacity=".93" d="M305.91 243.04l1.04-1.33 1.12 1.51v.91l-1.75-.21-.41-.88z"/><path fill="#414240" d="M220.03 244.95c1.84-.95 3.88-1.4 5.86-1.99-2.89 3.43-5.39 7.18-7.12 11.33l-3.83-.96.04 1.59c-.53-1.11-1.1-2.2-1.65-3.29l-2.4-.97 5.2-1.51c1.24-1.44 2.3-3.12 3.9-4.2z"/><path fill="#98968e" d="M262 245.89c1.33-.94 2.51-2.28 4.14-2.68 2.26-.03 4.42.78 6.59 1.35-.51 1.66-1.33 3.3-1.29 5.07.95 2.76 3.45 4.51 5.51 6.41 3.63-3.74 3.03-9.62 6.66-13.38-.51 8.03-3.99 15.4-7.65 22.42-1.38 2.48-4.37 2.39-6.66 3.41-1.67.92-3.03 2.32-4.27 3.75.24 1.45 1.67 2.16 2.64 3.1 1.66 1.3 2.95 2.99 4.14 4.72 2.02-3.35 4.9-6 7.51-8.86 1.31-1.34.85-3.36 1.03-5.05 3.07-6.12 5.12-12.68 7.11-19.22.65 3.18-.63 6.26-1.04 9.37-.6 3.34-.42 6.91-2.04 9.99-2.87 5.64-6.1 11.18-10.52 15.78-2.47-.35-5.07-.49-7.32-1.69-2.62-1.33-5.12-2.96-7.95-3.85-2.31-.75-4.59-1.62-6.62-2.97 2.42-2.14 4.57-4.55 6.62-7.05 2.2-2.72 5.09-4.83 7.05-7.75 1.41-2.01 1.27-4.55 1.42-6.87-.73-.34-1.44-.7-2.14-1.07-1.02-1.62-1.95-3.28-2.92-4.93z"/><path fill="#625250" d="M300.3 245.09c1.39-1.43 3.35-1.07 5.13-.85.52 3.58.97 7.18 1.87 10.69l-2.72 2.37c-1.24-2.81-1.68-5.86-1.35-8.9l-1.33-.43-1.6-2.88z"/><path fill="#777670" d="M286.84 245.4l5 .73 4.26 2.79-1.52 4.8c-1.31 4.55-3.12 8.92-4.81 13.33-2.11 8.14-7.05 15.45-14.03 20.19-1.23-.11-2.47-.19-3.7-.24-2.79 0-5.69-.16-8.36.78-1.12 1.18-1.1 2.99-1.59 4.47l-1.23-3.85-3.95 1.4.93-1.92-1.51-1.28c-5.2.3-10.16 2.46-15.45 2.11-4.45.39-8.69-1.67-11.68-4.89l-.43-.69c4.65 1.64 9.49 3.57 14.5 2.34 1.49-.19 2.98-.47 4.47-.72l1.47-2.7-2.33-1.95-1.1-1.43c6.06-1.19 10.41 4.77 16.25 5.25 3.94.19 8.53.83 11.83-1.85 4.42-4.6 7.65-10.14 10.52-15.78 1.62-3.08 1.44-6.65 2.04-9.99.41-3.11 1.69-6.19 1.04-9.37l-.62-1.53z"/><path fill="#929682" d="M300.3 245.09l1.6 2.88c.31 3.14.87 6.34.39 9.49-.59 2.52-3.38 2.25-5.38 2.28l3.9-1.78c-1.68-2.73-2.55-5.87-1.32-8.96l-3.39-.08 4.2-3.83z"/><path fill="#524c47" d="M230.83 252.69c1.28-2.83 4.17-4.21 6.66-5.78a39.75 39.75 0 0 0-3.88 6.36c-2.27 5.53-.68 11.68 1.2 17.08 2.71 4.53 6.6 8.82 12.07 9.75l2.33 1.95-1.47 2.7c-1.49.25-2.98.53-4.47.72-6.52-1.04-10.62-6.46-15.4-10.4-.14-1.3-.33-2.59-.49-3.88-1.14-6.36.64-12.82 3.45-18.5z"/><path fill="#888780" d="M243.72 251.32c2.32-1.48 4.85-2.62 7.57-3.12-1.43 6.31-4.73 11.9-7.28 17.78 1.44-1.03 2.88-2.07 4.25-3.21a77.17 77.17 0 0 1 1.65 1.95l-4.09 1.38.55 3.61 2.47.35-2.52 2.15 1.09 2.6c1.51-.44 3.03-.87 4.56-1.25 2.03 1.35 4.31 2.22 6.62 2.97 2.83.89 5.33 2.52 7.95 3.85 2.25 1.2 4.85 1.34 7.32 1.69-3.3 2.68-7.89 2.04-11.83 1.85-5.84-.48-10.19-6.44-16.25-5.25-1.08-1.42-2.09-2.88-3.09-4.35-.38-1.64-.71-3.29-1.06-4.93.89-4.27 2.57-8.31 4.32-12.28-1.35 1.24-2.7 2.49-4.15 3.62l-1.28.51c1.53-3.14 2.89-6.41 3.2-9.92z"/><path fill="#646364" d="M301.9 247.97l1.33.43c-.33 3.04.11 6.09 1.35 8.9l2.72-2.37 2.01.74c-.21 3.16-1.51 6.11-2.01 9.21.26 1.84 1.18 3.51 1.91 5.2l-5.51 4.1-1.7-.23c-.9-2.85-1.15-5.85-1.89-8.73-.46-1.76-2.4-2.47-3.65-3.56-1.25-1-1.82-.71-1.73.86-.11 2.63-.62 5.21-1.12 7.78l-.77-4.39-3.07 1.14c1.69-4.41 3.5-8.78 4.81-13.33l2.33 6.02c2-.03 4.79.24 5.38-2.28.48-3.15-.08-6.35-.39-9.49z"/><path fill="#c2cbab" d="M296.1 248.92l3.39.08c-1.23 3.09-.36 6.23 1.32 8.96l-3.9 1.78-2.33-6.02 1.52-4.8z"/><path fill="#494946" d="M310.16 249.76c.81 3.44.35 7.54 2.91 10.31 1.01.79 2.05 1.53 3.1 2.28.2 1.74.53 3.49.38 5.25-.78 1.14-1.74 2.13-2.66 3.15l-4.68-.67c-.73-1.69-1.65-3.36-1.91-5.2.5-3.1 1.8-6.05 2.01-9.21l.08-1.39.77-4.52z"/><path fill="#272625" opacity=".69" d="M329.88 250.17c1.59-.75 3.04.54 3.79 1.83-1.47.26-3.65.06-3.79-1.83z"/><path fill="#72706f" d="M331.03 254.62c.96-.76 1.99-1.46 3.02-2.14l1.02 1.33c.91 3.62 1.12 7.36 1.75 11.03.17 2.03 1.98 3.22 3.27 4.58-.83 2.79-1.53 5.61-2.26 8.42l-1.9 3.55c-1.09-.93-2.36-1.71-3.15-2.91-.02-1.85.36-3.66.56-5.49a30.97 30.97 0 0 0 .06-2.89c-.66-5.17.13-10.71-2.37-15.48z"/><path fill="#777169" d="M234.81 270.35c-1.88-5.4-3.47-11.55-1.2-17.08 1.66 3.11 1.71 6.68 2.27 10.07.35 1.82.81 3.62 1.39 5.38l-2.46 1.63z"/><path fill="#4a4a4a" d="M335.07 253.81c4.08 4.63 6.34 10.86 5.66 17.04-.3 2.56-1.73 4.76-2.9 6.99l2.26-8.42c-1.29-1.36-3.1-2.55-3.27-4.58-.63-3.67-.84-7.41-1.75-11.03z"/><path fill="#464646" d="M329.14 258.3c.55-1.27 1.18-2.5 1.89-3.68 2.5 4.77 1.71 10.31 2.37 15.48-1.83.32-3.7.23-5.52-.11a278.29 278.29 0 0 1 1.16-10.8l.1-.89z"/><path fill="#66645f" d="M241.8 260.73c1.45-1.13 2.8-2.38 4.15-3.62-1.75 3.97-3.43 8.01-4.32 12.28l-2.96-6.29c1.08-.75 2.11-1.56 3.13-2.37z"/><path fill="#5d5c59" d="M321.05 261.22l7.99-2.03a278.29 278.29 0 0 0-1.16 10.8c1.82.34 3.69.43 5.52.11a30.97 30.97 0 0 1-.06 2.89c-2.47-.86-5.12-.04-6.54 2.2.18 2.03 1.02 3.91 1.73 5.8l-4.54-1.8c-2.23 1.79-4.9 3.63-4.88 6.83l-.7-.1-2.19-4.98c-1.85-3.9-3.86-7.83-7.01-10.86l4.68.67c.92-1.02 1.88-2.01 2.66-3.15.15-1.76-.18-3.51-.38-5.25l4.02-.91.86-.22m-2.77 15.05l.01.45h.45l-.01-.45h-.45z"/><path fill="#3d3c3e" d="M294.73 262.52c-.09-1.57.48-1.86 1.73-.86l-1.73.86z"/><path fill="#767370" d="M296.46 261.66c1.25 1.09 3.19 1.8 3.65 3.56l1.89 8.73-1.51-.29-2.74-4.32-3.95 3.14-.19-2.18c.5-2.57 1.01-5.15 1.12-7.78l1.73-.86z"/><path fill="#825d48" d="M235.88 263.34l1.96-.16.83-.08 2.96 6.29 1.06 4.93-5.42-5.6c-.58-1.76-1.04-3.56-1.39-5.38z"/><path fill="#a8aba7" d="M245.82 266.1l4.09-1.38 1.87 2.83-2.94 2.51-2.47-.35-.55-3.61z"/><path fill="#8c8b84" d="M275.96 265.08l4.39 1.07c-.18 1.69.28 3.71-1.03 5.05-2.61 2.86-5.49 5.51-7.51 8.86-1.19-1.73-2.48-3.42-4.14-4.72-.97-.94-2.4-1.65-2.64-3.1 1.24-1.43 2.6-2.83 4.27-3.75 2.29-1.02 5.28-.93 6.66-3.41z"/><path fill="#4b4846" d="M289.77 267.05l3.07-1.14.77 4.39.19 2.18 3.95-3.14 2.74 4.32 1.51.29 1.7.23c3.15 3.07 6.76 6.18 7.38 10.81.5 1.61 1.15 3.17 1.83 4.72l-1.35.83c-2.86-3.58-3.15-8.51-6.02-12.07-2.26-1.76-5.15-2.4-7.76-3.48.49-1.02.96-2.05 1.42-3.08l-3.46 1.91-.94-1.21c-.98 1.44-2 2.85-3.06 4.24l2.16 2.21c-.37 4.29-3.35 7.57-6.17 10.56-.99 1.13-2.59 1.21-3.96 1.53l-2.76-.06c-2.11-.14-4.21-.37-6.31-.62 3.11-1.6 6.69-1.65 9.92-2.86 3.36-1.62 7.1-4.4 6.55-8.62l-.13-3.19-2.63.31-.46 2.48c-.47 1.78-.62 3.93-2.21 5.13-2.8 2.28-6.25 4.28-10 3.52 6.98-4.74 11.92-12.05 14.03-20.19z"/><path fill="#616262" d="M251.78 267.55c1.08 1.87.49 4.02.19 6.01l-4.56 1.25-1.09-2.6 2.52-2.15 2.94-2.51z"/><path fill="#64615c" d="M237.27 268.72c1.7 1.97 3.63 3.71 5.42 5.6l3.09 4.35 1.1 1.43c-5.47-.93-9.36-5.22-12.07-9.75l2.46-1.63z"/><path fill="#d59f80" d="M303.7 274.18l5.51-4.1c3.15 3.03 5.16 6.96 7.01 10.86l-.92 3.39-4.22.66c-.62-4.63-4.23-7.74-7.38-10.81z"/><path fill="#464847" d="M220.8 270.68c3.12 1.18 5.15 3.85 7.19 6.33l.08 2.81-5.39-3.52c-1.36-1.58-1.94-3.55-1.88-5.62z"/><path fill="#7e7e81" d="M295.74 273.82l3.46-1.91-1.42 3.08-1.13 2.2-.7-2.55-.21-.82z"/><path fill="#4b4b4a" d="M326.8 275.19c1.42-2.24 4.07-3.06 6.54-2.2-.2 1.83-.58 3.64-.56 5.49.79 1.2 2.06 1.98 3.15 2.91-2.44.27-4.91.48-7.27 1.16-3.27.95-5.99 3.55-9.55 3.47-.02-3.2 2.65-5.04 4.88-6.83l4.54 1.8c-.71-1.89-1.55-3.77-1.73-5.8z"/><path fill="#272a2d" d="M291.74 276.85l3.06-4.24.94 1.21.21.82-2.05 4.42-2.16-2.21z"/><path fill="#858685" d="M227.87 275.07c4.78 3.94 8.88 9.36 15.4 10.4-5.01 1.23-9.85-.7-14.5-2.34-2.49-2.41-5.31-4.48-7.64-7.05l1.55.22c1.85 1.09 3.63 2.29 5.39 3.52l-.08-2.81-.12-1.94z"/><path fill="#62615f" d="M293.9 279.06c.61-1.51 1.35-2.96 2.05-4.42l.7 2.55.3 1.4-1.63 4.02-1.22 2.56 1.86 3.85-1.85 5.76 8.08 4.63c-2.78 2.6-6.74.7-10.01.46l.44-2.1-7.68 4.94-.44-2.41 3.36-5.37-4.09-3.78c1.37-.32 2.97-.4 3.96-1.53 2.82-2.99 5.8-6.27 6.17-10.56z"/><path fill="#393939" d="M296.65 277.19l1.13-2.2c2.61 1.08 5.5 1.72 7.76 3.48 2.87 3.56 3.16 8.49 6.02 12.07-.42 2.58-.99 5.12-1.47 7.69l-.16-4.41-3.15 4.36-2.38-.8c.01-1.45-.33-2.96.12-4.36.8-.95 2.14-1.16 3.19-1.74-.28-1.72-.59-3.43-1.01-5.11a132.49 132.49 0 0 1-1.05-2.06c-2.27-2.71-5.41-4.4-8.7-5.52l-.3-1.4z"/><path fill="#7f7f84" d="M288.41 276.11l2.63-.31.13 3.19-3.22-.4.46-2.48z"/><path fill="#9f9ea2" d="M318.28 276.27h.45l.01.45h-.45l-.01-.45z"/><path fill="#333435" d="M285.74 283.72c1.59-1.2 1.74-3.35 2.21-5.13l3.22.4c.55 4.22-3.19 7-6.55 8.62-3.23 1.21-6.81 1.26-9.92 2.86a100.29 100.29 0 0 1-3.09-.38l-2.06-.46c-.54-1.64 1.5-1.93 2.49-2.63 1.23.05 2.47.13 3.7.24 3.75.76 7.2-1.24 10-3.52z"/><path fill="#d49f80" d="M295.32 282.61l1.63-4.02c3.29 1.12 6.43 2.81 8.7 5.52-1.28 1.14-2.81 2.05-4.59 1.81-2.51.31-4.09-1.84-5.74-3.31z"/><path fill="#bb8568" d="M316.22 280.94l2.19 4.98-5.5 3.79-1.83-4.72 4.22-.66.92-3.39z"/><path fill="#474745" d="M223.08 282.45l6.12 1.37c2.99 3.22 7.23 5.28 11.68 4.89 5.29.35 10.25-1.81 15.45-2.11-2.94 2.05-6.02 3.92-9.24 5.5-5.22-.81-10.52-.79-15.74-1.58-3.45-.49-6.4-2.44-9.1-4.53l.83-3.54z"/><path fill="#786f6a" d="M294.1 285.17l1.22-2.56c1.65 1.47 3.23 3.62 5.74 3.31 1.78.24 3.31-.67 4.59-1.81l1.05 2.06c-3.2 2.08-7.09 2.24-10.74 2.85l-1.86-3.85z"/><path fill="#575858" d="M306.7 286.17l1.01 5.11c-1.05.58-2.39.79-3.19 1.74-.45 1.4-.11 2.91-.12 4.36l2.38.8 3.15-4.36.16 4.41-.61 6.32-1.99 1.81-1.78-2.2c-4.11 2.31-7.94 5.06-11.57 8.06-1.93 1.81-4.64 2.02-7.01 2.92-1.19 1.3-1.73 3.02-2.54 4.55-1.68 2-3.55 3.82-5.63 5.39-1.44 1.18-3.01 2.25-4.11 3.78-1.01 1.99-1.22 4.26-1.65 6.42-1.57.83-3.33 1.05-5.07.77.21-2.49.47-4.98.82-7.45l2.31 1.11 1.41 3.29c.66-3.3.97-6.78 2.53-9.82 2.53-3.82 7.32-5.85 8.73-10.48 1.05-2.88 1.59-5.98 3.15-8.65 1.37-1.75 3.33-2.89 5.1-4.18 3.27.24 7.23 2.14 10.01-.46l-8.08-4.63 1.85-5.76c3.65-.61 7.54-.77 10.74-2.85z"/><path fill="#8a8880" d="M247.09 292.1c3.22-1.58 6.3-3.45 9.24-5.5l1.51 1.28-.93 1.92c-4.5 1.58-8.19 4.75-12.56 6.58-5.7 1.92-12.73 2.31-17.55-1.89 3.81-.97 7.76-.99 11.61-.24 3.09.71 5.98-.88 8.68-2.15z"/><path fill="#84847c" d="M271.61 290.09l3.09.38 6.31.62c-1.51 3.5-1.52 7.38-2.61 11-1.48 1.71-3.03 3.35-4.46 5.09-4.45.66-8.93-.04-13.15-1.48 1.6-3.48 4.46-6.14 6.39-9.41 1.31-2.18 2.78-4.26 4.43-6.2z"/><path fill="#7b7a70" d="M281.01 291.09l2.76.06 4.09 3.78c-1.68.91-3.45 1.72-4.9 2.99-1.3 1.44-2.05 3.27-3.03 4.93l-1.53-.76c1.09-3.62 1.1-7.5 2.61-11z"/><path fill="#908c85" d="M262.08 295.08c1.38-1.52 3.18-2.52 5-3.42-1.77 5.18-5.79 9.11-9.8 12.64-3.83 3.29-8.67 4.95-13.39 6.5l-3.99-2.14c3.83-2.18 8.5-2.13 12.2-4.55 3.59-2.7 6.87-5.79 9.98-9.03z"/><path fill="#79797a" d="M282.96 297.92c1.45-1.27 3.22-2.08 4.9-2.99l-3.36 5.37.44 2.41 7.68-4.94-.44 2.1c-1.77 1.29-3.73 2.43-5.1 4.18-1.56 2.67-2.1 5.77-3.15 8.65-2.46-.24-5.28-.87-7.41.81-4.54 3.66-6.99 9.37-7.57 15.09-.35 2.47-.61 4.96-.82 7.45l-2.47-.67 1.13-4.93-4.92-1.56c1.13-2.53 2.15-5.11 2.93-7.77.92.13 1.85.28 2.77.45.83-2.96 1.49-6.11 3.5-8.53 2.82-3.51 6.39-6.38 8.86-10.19.98-1.66 1.73-3.49 3.03-4.93z"/><path fill="#292b2c" d="M278.4 302.09l1.53.76c-2.47 3.81-6.04 6.68-8.86 10.19-2.01 2.42-2.67 5.57-3.5 8.53-.92-.17-1.85-.32-2.77-.45l-.93-.1a70.08 70.08 0 0 1 1.33-5.91c4.02-1.2 6.19-4.92 8.74-7.93 1.43-1.74 2.98-3.38 4.46-5.09z"/><path fill="#75756e" d="M242.81 304.85c3.03-.81 6.17-.85 9.29-.74-3.7 2.42-8.37 2.37-12.2 4.55l3.99 2.14.6 2.38c-3.02 1.31-6.31 1.71-9.56 2.04 1.41 2.81 3.3 5.33 5.1 7.89l1.63.98c2.07 1.16 4.13 2.42 6.43 3.06 1.59-.04 3.16-.32 4.74-.52a80.69 80.69 0 0 1 3.38.94l-1.07 2.53c-1.46-.78-2.77.57-3.35 1.79l-2.66 1.45 1.89 2.78c-1.14-.38-2.1-.1-2.89.85-2.14 2.37-5.34 2.55-8.32 2.48-1.32.02-2.65.03-3.97-.01a149.04 149.04 0 0 0 4.39-4.32c1.27.38 2.55.71 3.83 1.06 1.98-2.09 3.67-4.45 4.94-7.04-3.57-.07-7.14-.07-10.71-.05l.4 3.21-5.49-1.35c.11.41.35 1.22.47 1.63-1.18 1.51-2.28 3.08-3.34 4.68-1.98-1.2-3.93-2.73-4.73-4.99-1.66-3.61-.58-7.62.31-11.27 1.9-4.01 3.68-8.1 5.02-12.34 3.59-2.24 7.87-2.72 11.88-3.81z"/><path fill="#404141" d="M294.14 312.22c3.63-3 7.46-5.75 11.57-8.06l1.78 2.2c-5.66 5-11.57 9.71-17.36 14.57l-2.22-3.28c-1.12.66-2.24 1.33-3.32 2.04.81-1.53 1.35-3.25 2.54-4.55 2.37-.9 5.08-1.11 7.01-2.92z"/><path fill="#68696a" d="M276.52 313.51c2.13-1.68 4.95-1.05 7.41-.81-1.41 4.63-6.2 6.66-8.73 10.48-1.56 3.04-1.87 6.52-2.53 9.82l-1.41-3.29-2.31-1.11c.58-5.72 3.03-11.43 7.57-15.09z"/><path fill="#49494a" d="M252.12 317.85c1.45-1.8 2.94-3.71 5.02-4.8 2.8.1 5.44 1.15 8.06 2.06l-1.33 5.91-3.58 1.16c.3 2.42 1.09 4.91.52 7.35-.72.96-1.57 1.82-2.36 2.73.31-2.05 1.48-4.63-.82-5.97-1.61-.27-3.22.13-4.8.34l-4.74.52c-2.3-.64-4.36-1.9-6.43-3.06l4.72-7.91 2.71 2.23c-1.3 1.62-4.02 3.12-3.03 5.54 1.96.17 3.94.13 5.92.13l-2.52-1.57 2.66-4.66z"/><path fill="#7b7976" d="M249.09 318.41l3.03-.56-2.66 4.66 2.52 1.57c-1.98 0-3.96.04-5.92-.13-.99-2.42 1.73-3.92 3.03-5.54z"/><path fill="#272827" d="M284.59 319.69l3.32-2.04 2.22 3.28-10.99 9.15-.18-5c2.08-1.57 3.95-3.39 5.63-5.39z"/><path fill="#4c4f4e" d="M222.97 328.01c.35-2.56 1.77-4.76 2.94-7.01-.89 3.65-1.97 7.66-.31 11.27.8 2.26 2.75 3.79 4.73 4.99 1.79.84 3.62 1.58 5.51 2.18 1.32.04 2.65.03 3.97.01l2.62 1.72c-.64 2.28-.95 4.93-2.91 6.53-2.04.66-4.24.28-6.31-.01-3.53-.54-6.12-3.21-8.8-5.33-.58.77-1.16 1.56-1.72 2.36.41-5.56-.62-11.17.28-16.71z"/><path fill="#69696b" d="M260.29 322.18l3.58-1.16.93.1c-.78 2.66-1.8 5.24-2.93 7.77l4.92 1.56-1.13 4.93c-3.2-.46-6.43.01-9.56.69.69-1.33 1.48-2.6 2.35-3.81l2.36-2.73c.57-2.44-.22-4.93-.52-7.35z"/><path fill="#454546" d="M274.85 328.86c1.1-1.53 2.67-2.6 4.11-3.78l.18 5-5.94 5.2c.43-2.16.64-4.43 1.65-6.42z"/><path fill="#2e2f2f" d="M252.83 326.63c1.58-.21 3.19-.61 4.8-.34 2.3 1.34 1.13 3.92.82 5.97-3.13-.46-5.59 1.6-7.43 3.86l-1.89-2.78 2.66-1.45c1.34.14 3.08-.21 3.35-1.79l1.07-2.53-3.38-.94z"/><path fill="#605d5a" d="M238.29 329.09l10.71.05c-1.27 2.59-2.96 4.95-4.94 7.04l-3.83-1.06c-2.24-.72-4.41-1.62-6.56-2.54l-.47-1.63 5.49 1.35-.4-3.21z"/><path fill="#a9a5a9" d="M251.79 331.89c.58-1.22 1.89-2.57 3.35-1.79-.27 1.58-2.01 1.93-3.35 1.79z"/><path fill="#807f7f" d="M251.02 336.12c1.84-2.26 4.3-4.32 7.43-3.86-.87 1.21-1.66 2.48-2.35 3.81l-.66 1.43-3.86 2.67.48 1.59-1.43 2.3-3.99 1.17c.73-2.46 1.56-4.94 1.53-7.53 1.29.9 2.5-.4 2.85-1.58z"/><path fill="#898880" d="M230.33 337.26l3.34-4.68 6.56 2.54-4.39 4.32c-1.89-.6-3.72-1.34-5.51-2.18z"/><path fill="#aba5a6" d="M248.13 336.97c.79-.95 1.75-1.23 2.89-.85-.35 1.18-1.56 2.48-2.85 1.58l-.04-.73z"/><path fill="#5f5d59" d="M239.81 339.45c2.98.07 6.18-.11 8.32-2.48l.04.73c.03 2.59-.8 5.07-1.53 7.53-.63 1.62-1.25 3.36-2.59 4.56-2.27 1.2-4.9 1.47-7.39 1.93-3.71.69-7.43-.46-11.16-.07 4.92 5 12.74 3.31 18.48.78l-.66 4.45c-4.16-.97-8.41.16-12.56.63 4.08 2.25 8.71 2.92 13.22 3.71-1.06.72-2.16 1.39-3.24 2.09-4.99-1.53-10.19-2.56-14.7-5.34-2.03-2.02-4.56-4.1-4.87-7.14-.39-2.17.68-4.19 1.52-6.11.56-.8 1.14-1.59 1.72-2.36 2.68 2.12 5.27 4.79 8.8 5.33 2.07.29 4.27.67 6.31.01 1.96-1.6 2.27-4.25 2.91-6.53l-2.62-1.72z"/><path fill="#1b1a1a" opacity=".87" d="M251.58 340.17l3.86-2.67-.45 2.69c3.4 2.05 7.41 2.43 11.3 2.47 1.98 1.67 3.96 3.36 5.81 5.18-4.69-2.52-10.03-3.3-15.06-4.88l-.76-.22c-1.4-.36-2.81-.67-4.22-.98l-.48-1.59z"/><path fill="#363737" d="M252.06 341.76l4.22.98-1.07 1.15c.03 1.98 2.7.43 1.83-.93 5.03 1.58 10.37 2.36 15.06 4.88 3.28 2.41 3.13 6.77 1.96 10.26.2-1.94.69-4.12-.31-5.91-1.54-1.53-3.73-1.77-5.77-2.01l-6.72-.66c-3-.98-5.98-2.02-9.04-2.76l-1.59-2.7 1.43-2.3z"/><path fill="#6c6966" d="M255.21 343.89l1.07-1.15.76.22c.87 1.36-1.8 2.91-1.83.93z"/><path opacity=".15" d="M266.29 342.66c7.53-.44 14.83 2.12 21.38 5.62 2.11.97 2.8 3.29 3.69 5.23l4.54-.46-1.73 2.9c-4.33.89-6.26 5.32-9.88 7.38-6.16 3.61-13.55 3.98-20.49 3.44 2.1-1.69 4.35-3.2 6.5-4.85 1.08-.89 2.09-1.86 3.08-2.86l.68-.96c1.17-3.49 1.32-7.85-1.96-10.26-1.85-1.82-3.83-3.51-5.81-5.18z"/><path fill="#4f4f4e" d="M246.64 345.23l3.99-1.17 1.59 2.7c3.06.74 6.04 1.78 9.04 2.76l-1.43.94-.49 3.57c-1.44-.41-3.14-2.26-4.44-.72.51 2.75.98 5.79 2.84 8 3.69 2.06 7.95-.32 10.49-3.12 2.16-1.76 1.01-4.67.92-7.03a55.12 55.12 0 0 1-1.17-.98c2.04.24 4.23.48 5.77 2.01-1.08 2.13-1.08 4.62-.37 6.87-.99 1-2 1.97-3.08 2.86-4.77.22-9.21 2.41-14.03 2.34l.68 2.57c-1.34.02-2.68.03-4.02.12.24-2.25-2.47-2.57-4-1.8-2.59.35-5.12-.3-7.38-1.56 2.86-.68 6.16-1.63 7.48-4.56 1.28-3.1 2.18-6.42 2.39-9.78-.46-1.21-1.19-2.3-1.84-3.41-.72 4.51-1.17 9.18-3.32 13.29l-2.94-2.25.66-4.45c-5.74 2.53-13.56 4.22-18.48-.78 3.73-.39 7.45.76 11.16.07 2.49-.46 5.12-.73 7.39-1.93 1.34-1.2 1.96-2.94 2.59-4.56z"/><path fill="#6f6c67" d="M249.58 345.84c.65 1.11 1.38 2.2 1.84 3.41-.21 3.36-1.11 6.68-2.39 9.78-1.32 2.93-4.62 3.88-7.48 4.56l-.81-.28 3.24-2.09c.78-.67 1.54-1.37 2.28-2.09 2.15-4.11 2.6-8.78 3.32-13.29z"/><path fill="#848387" d="M263.25 351.02c1.21.26 2.74.15 3.48 1.38.41 1.88-.07 3.8-.28 5.68l-4.01-.57c-.28-2.22.03-4.41.81-6.49z"/><path fill="#6a6665" opacity=".91" d="M273.38 359.06c-.71-2.25-.71-4.74.37-6.87 1 1.79.51 3.97.31 5.91l-.68.96z"/><path fill="#2f3131" d="M230.76 357.51c4.15-.47 8.4-1.6 12.56-.63 1 .72 1.96 1.49 2.94 2.25-.74.72-1.5 1.42-2.28 2.09-4.51-.79-9.14-1.46-13.22-3.71z"/><path fill="#37383a" d="M256.27 364.26c4.82.07 9.26-2.12 14.03-2.34-2.15 1.65-4.4 3.16-6.5 4.85-2.29-.01-4.57.04-6.85.06l-.68-2.57z"/><path fill="#6d6b68" d="M248.93 365.15c1.53-.77 4.24-.45 4 1.8-1.5.37-3.88.19-4-1.8z"/></svg>