<svg xmlns="http://www.w3.org/2000/svg" width="682.667" height="682.667" viewBox="0 0 512 512"  xmlns:v="https://vecta.io/nano"><path fill="#5e5f63" d="M297.56 72.28l4.86-.01.88 5.67 8.17.79c.25 4.8.08 9.61.56 14.39.27 1.69.64 3.37.93 5.07.32 2.45.35 4.92.42 7.39 2.32-.85 4.58-1.92 6.53-3.46.91 1.45 1.93 2.84 2.96 4.23-.71 3.8-1.29 7.63-1.57 11.49-1.61 2-3.88 3.83-3.97 6.61-.72-1.62-1.56-3.18-2.38-4.75-.06 1.76-.12 3.52-.09 5.28l-.82-2.71-2.34 2-.77-.39c.53-5.8.81-11.68-.11-17.46-1.73 2.65-2.09 5.85-2.31 8.94-.32-2.85-.76-5.72-.52-8.6l.93-.96a32.89 32.89 0 0 0 2.09-2.17c.69-3.26.01-6.6-.07-9.89.27-3.88.27-7.78.11-11.67l-2.86.15.96 8.23-3.19 5.45c.54-4.19 1.36-8.43.87-12.66-.12-2.27-2.69-2.95-4.17-4.22l-1.3-5.91-3.02-.06.13 2.82c-.12 1.77-.3 3.54-.47 5.31l-5.24-.63 4.32-.44.48-7.83m16.53 34.76c-.82 2.34-.9 4.81-.55 7.25-.63 1.4-.31 3.72 1.54 3.93 2.31.55 4.05-1.61 5.25-3.27-.98-2.78-2.09-5.52-3.4-8.16-.71-1.44-1.91-.17-2.84.25z"/><path fill="#bfc1c8" d="M298.34 73.05l3.02.06-1.97 4.22-.92-1.46-.13-2.82z"/><path fill="#9ca292" d="M301.36 73.11l1.3 5.91c1.48 1.27 4.05 1.95 4.17 4.22.49 4.23-.33 8.47-.87 12.66l3.19-5.45c-.42 5.43-2.94 10.44-3.8 15.81.02-5.5-1.78-10.78-2.17-16.23-.01-2.24.33-4.53-.3-6.71-.79-2.19-2.24-4.05-3.49-5.99l1.97-4.22z"/><path fill="#a0a693" d="M298.47 75.87l.92 1.46c1.25 1.94 2.7 3.8 3.49 5.99.63 2.18.29 4.47.3 6.71-.91 1.1-1.88 2.16-2.55 3.42-.39 4.55 1.24 9.05.76 13.61-.35 2.17-1.46 4.1-2.38 6.06 1.09 1.73 2.82 3.46 2.37 5.71-.12 2.17-2.48 3.01-3.9 4.26-.43-2.45-.86-4.91-1.15-7.38l-.04-3.45c.9-3.38 2.24-6.77 1.94-10.33-.3-3.15-1.45-6.14-2.21-9.2l-.42-3.56.29-6.34-6.75.05.23 2.6 5.18.81.77 2.07c-.11.43-.31 1.31-.41 1.74l-2.01-3.73c-1.68 2.14-3.35 4.31-4.65 6.71.02-3.48-.47-7.06.4-10.47.6-1.7 2.58-1.91 4.11-2.06 1.75.16 3.49.4 5.24.63l.47-5.31z"/><path fill="#8c9183" d="M308.19 82.22l2.86-.15c.16 3.89.16 7.79-.11 11.67-1 3.96-1.56 8.01-2.02 12.06l-.93.96c-.24 2.88.2 5.75.52 8.6.29 2.74.92 5.43 1.61 8.1-.31 1.59-.69 3.17-1.06 4.75l-3.48.26c.53-3.52.2-7.08-.79-10.48l-1.84 1.97c-.07-4.69 1.05-9.25 2.4-13.7.86-5.37 3.38-10.38 3.8-15.81-.26-2.75-.64-5.49-.96-8.23m1.16.97v.44l.45.01v-.45h-.45z"/><path fill="#424550" d="M289.14 82.88l6.75-.05-.29 6.34-.28-.81-.77-2.07-5.18-.81-.23-2.6z"/><path fill="#bec2b2" d="M309.35 83.19h.45v.45l-.45-.01v-.44z"/><path fill="#dad8e4" d="M288.25 93.08c1.3-2.4 2.97-4.57 4.65-6.71l2.01 3.73-.91 3.87-5.14.08c-.05 4.21-.06 8.43-.37 12.63l-.07.73-.02-1c-.14-4.44-.11-8.89-.15-13.33z"/><path fill="#86888c" d="M295.32 88.36l.28.81.42 3.56c-.37 6.51-.41 13.03.27 19.53l.04 3.45-.62 25.04.42 26.76-1.49 1.15c-1.65-11.26-.13-22.67-1.04-33.98l.04-3.21c0-2.18-.09-4.34-.24-6.51l-.04-.77c.82-5.06.8-10.2.07-15.28v-.75c.24-3.21.25-6.43.12-9.65l.22-.82.2-1.81.03-1.91c.28-1.3.58-2.59.91-3.87l.41-1.74z"/><path fill="#727371" d="M300.63 93.45c.67-1.26 1.64-2.32 2.55-3.42.39 5.45 2.19 10.73 2.17 16.23-1.35 4.45-2.47 9.01-2.4 13.7-.2 4.26-.31 8.52-.41 12.77-.8 8.64.44 17.34-.86 25.93-2.54-9.64-.01-19.69-.86-29.48-.5-2.08-2.13-3.64-3.23-5.41l-.11-.68c1.42-1.25 3.78-2.09 3.9-4.26.45-2.25-1.28-3.98-2.37-5.71.92-1.96 2.03-3.89 2.38-6.06.48-4.56-1.15-9.06-.76-13.61z"/><path fill="#b3b9a8" d="M296.02 92.73c.76 3.06 1.91 6.05 2.21 9.2.3 3.56-1.04 6.95-1.94 10.33-.68-6.5-.64-13.02-.27-19.53z"/><path fill="#2d2d2f" opacity=".63" d="M312.03 93.12l11.27 2.7c.78 7.34.97 15.1-2 22.02.28-3.86.86-7.69 1.57-11.49.37-3.12 1.19-6.7-.67-9.51-1.42-1.4-3.67-1.38-5.51-1.83l-3.73 3.18-.93-5.07z"/><path fill="#acafb9" d="M288.86 94.05l5.14-.08-.03 1.91-1.78.12-.42.81.31.82 1.69.06-.22.82c-.7 1.82-1.96 3.56-1.83 5.58.4 1.43 1.12 2.72 1.71 4.07v.75c-2.39 4.76-2.07 10.45-.07 15.28l.04.77c-.56 1-1.15 1.98-1.58 3.05.07 1.35 1.22 2.31 1.82 3.46l-.04 3.21c-.95 2.22-2.04 4.47-2.03 6.94-.14 5.22-.5 10.45-.23 15.67.18 3.6.06 7.22-.51 10.78l-1.77.19c-.35-4.75-.48-9.5-.43-14.26l.1-40.97c-.01-2.12-.16-4.24-.24-6.35.31-4.2.32-8.42.37-12.63z"/><path fill="#a7a6ad" d="M308.92 105.8c.46-4.05 1.02-8.1 2.02-12.06.08 3.29.76 6.63.07 9.89a32.89 32.89 0 0 1-2.09 2.17z"/><path fill="#8b8b92" d="M312.96 98.19l3.73-3.18 3.22 7.11c-1.95 1.54-4.21 2.61-6.53 3.46l-.42-7.39z"/><path fill="#707177" d="M316.69 95.01c1.84.45 4.09.43 5.51 1.83 1.86 2.81 1.04 6.39.67 9.51l-2.96-4.23c-1.25-2.29-2.26-4.7-3.22-7.11z"/><path fill="#d5d3e0" d="M292.19 96l1.78-.12-.2 1.81-1.69-.06-.31-.82.42-.81z"/><path fill="#cfcfda" d="M291.72 104.09c-.13-2.02 1.13-3.76 1.83-5.58.13 3.22.12 6.44-.12 9.65-.59-1.35-1.31-2.64-1.71-4.07z"/><path fill="#646565" opacity=".87" d="M278.58 102.47c1.95-.65 3.92-1.28 5.99-1.42l.5 2.02-6.49-.6z"/><path fill="#5a5b58" d="M264.64 102.37l2.54-.82 2.26 7.23.51-1.42 6.24-4.38 2.39-.51 6.49.6.33 1.75a28.05 28.05 0 0 1-.05 7.38l-3.5-6.15c-1.97 1.51-3.41 3.52-4.65 5.64l-1.08.81-4.23.78-3.39.46-.53 3.36c-.41 3.07-.87 6.17-.68 9.28.1 3 2.41 5.2 4.11 7.44l-.67.33-7.71-2.7 4.23-1.22-8.7-1.28c-1.13-.56-1.87-1.64-2.74-2.51 2.12-3.37 2.37-7.4 3.51-11.11a58.56 58.56 0 0 0-.69 3.25l2.98 1.62c-.3-2.13-.74-4.25-1.49-6.27 2.55-3.38 3.77-7.45 4.52-11.56z"/><path fill="#717271" opacity=".93" d="M271.15 104.2c1.49-.95 3.37-.83 5.04-1.22l-6.24 4.38 1.2-3.16z"/><path fill="#363635" d="M285.4 104.82l3 1.59.02 1-1.17 8.88c-1.46 2.07-4.48.4-6.55.47l6.1 4.77-2.27 2.89-.7-1.58-.72-1.01-4.33-.96-2.66-8.37 1.08-.81c2.32 1.47 4.78 2.71 7.38 3.6l.77-3.09a28.05 28.05 0 0 0 .05-7.38z"/><path fill="#4a4b48" d="M277.2 111.69c1.24-2.12 2.68-4.13 4.65-5.64l3.5 6.15-.77 3.09c-2.6-.89-5.06-2.13-7.38-3.6z"/><path fill="#848589" d="M314.09 107.04c.93-.42 2.13-1.69 2.84-.25 1.31 2.64 2.42 5.38 3.4 8.16-1.2 1.66-2.94 3.82-5.25 3.27-1.85-.21-2.17-2.53-1.54-3.93l3.58-2.14c-.88-1.77-1.91-3.48-3.03-5.11z"/><path fill="#4d5255" d="M288.42 107.41l.07-.73.24 6.35-.1 40.97c-.05 4.76.08 9.51.43 14.26l-1.35.13.08-32.48c.12-4.07-1.7-7.84-3.26-11.49l2.27-2.89c-2.11-1.5-4.13-3.11-6.1-4.77 2.07-.07 5.09 1.6 6.55-.47.65-2.92.87-5.91 1.17-8.88z"/><path fill="#a5a3aa" d="M308.51 115.36c.22-3.09.58-6.29 2.31-8.94.92 5.78.64 11.66.11 17.46l-.81-.42c-.69-2.67-1.32-5.36-1.61-8.1z"/><path fill="#f8f7fc" d="M313.54 114.29c-.35-2.44-.27-4.91.55-7.25 1.12 1.63 2.15 3.34 3.03 5.11l-3.58 2.14z"/><path fill="#ceced9" d="M293.36 124.19c-2-4.83-2.32-10.52.07-15.28.73 5.08.75 10.22-.07 15.28z"/><path fill="#494a4a" d="M271.89 113.28l4.23-.78c.74 2.83 1.68 5.61 2.66 8.37l4.33.96.72 1.01-2.62 2.39c-3.04 3.11-5.52 7.03-9.81 8.59-1.7-2.24-4.01-4.44-4.11-7.44-.19-3.11.27-6.21.68-9.28l4.62-1.52-.7-2.3z"/><path fill="#2f3033" d="M268.5 113.74l3.39-.46.7 2.3-4.62 1.52.53-3.36z"/><path fill="#727373" opacity=".97" d="M259.32 115.33l.8-1.4c.75 2.02 1.19 4.14 1.49 6.27l-2.98-1.62.69-3.25z"/><path fill="#aeb5a0" d="M296.33 115.71l1.15 7.38.11.68-.4 8.52 2.92.55c0 11.42.63 22.92-.82 34.28-.56 4.45.56 9.19-1.88 13.27-.34-4.3-.89-8.58-1.28-12.88-.38-8.91-.35-17.84-.42-26.76l.62-25.04z"/><path fill="#b9c0a8" d="M304.79 117.99c.99 3.4 1.32 6.96.79 10.48-.35 3.01-.4 6.06-.07 9.08-1.7 3.06-.5 6.48.02 9.68l-2.33-.84c-.4-4.54-.67-9.1-.66-13.66l.41-12.77 1.84-1.97z"/><path fill="#7d8373" d="M314.95 119.7l2.38 4.75.09.74c.39 3.6.6 7.38-.67 10.84-1.4 3.83-3.52 7.41-4.18 11.48-.57 3.46-1.32 6.95-3.35 9.89-3.01 4.01-2.54 9.14-2.28 13.84l4.64 1.03-1.13 4.67-3.57-2.74c1.05 4.99 1.69 10.16.5 15.18l-2.27-3.62c.75-8.84 1.12-17.74.69-26.61-.18-3.43-.02-6.85 0-10.28l-.27-1.64c-.52-3.2-1.72-6.62-.02-9.68l2.34 7.45 4.19-8.21a95.76 95.76 0 0 0 .29 4.47c1.46-2.39 3.07-4.81 3.53-7.62.51-2.93-.35-5.83-1-8.66-.03-1.76.03-3.52.09-5.28z"/><path fill="#010101" opacity=".07" d="M311.7 124.27l2.34-2 .82 2.71c.65 2.83 1.51 5.73 1 8.66-.46 2.81-2.07 5.23-3.53 7.62l-.29-4.47c.36-4.17.61-8.41-.34-12.52z"/><path opacity=".77" d="M281.21 125.23l2.62-2.39.7 1.58c1.56 3.65 3.38 7.42 3.26 11.49-.21 10.82-.19 21.65-.08 32.48l-1.7.21c.71-4.4.91-8.85.72-13.29-8.37-3.26-17.27-4.62-26.12-5.8l2.79-5.82 1.96 1.3c3.18-2.42 7.21-2.73 10.9-3.85 2.16-1.43 3.85-3.43 5.62-5.29 1.16-1.42 2.8-2.84 2.6-4.87-.05-2.52-.7-4.98-1.27-7.43l-2 1.68z"/><path fill="#8a8d83" d="M297.19 132.29l.4-8.52c1.1 1.77 2.73 3.33 3.23 5.41.85 9.79-1.68 19.84.86 29.48 1.3-8.59.06-17.29.86-25.93-.01 4.56.26 9.12.66 13.66l2.33.84c.06.41.2 1.23.27 1.64l-2.69.26-.93 10.91c-.91 2.38-2.02 4.68-2.89 7.08 1.45-11.36.82-22.86.82-34.28l-2.92-.55z"/><path fill="#797c6e" d="M309.06 128.21l1.06-4.75.81.42.77.39c.95 4.11.7 8.35.34 12.52l-4.19 8.21-2.34-7.45c-.33-3.02-.28-6.07.07-9.08l3.48-.26z"/><path fill="#cccad4" d="M291.82 128.01c.43-1.07 1.02-2.05 1.58-3.05l.24 6.51c-.6-1.15-1.75-2.11-1.82-3.46z"/><path opacity=".04" d="M317.42 125.19c1.45 1.33 3.18 2.51 4.13 4.28.44 1.52.49 3.12.62 4.69l4.88-.46-2.67 3.63 5.5-.88c-.05-3.42-2.32-5.92-4.82-7.95l2-1.59c2.14 1.05 4.58 1.76 6.29 3.49.93 2.1.04 4.8 1.49 6.64 2.93 1.35 6.27 1.18 9.41 1.68l-7.17 3.9c4.26 2.5 6.81 6.79 9.24 10.92l4.64-3.26c3.4 1.19 7 1.79 10.62 1.47-2.23 4.23-1.42 9.02-.65 13.51l.83-3.34 2.05 2.51c1.57-.79 3.12-1.63 4.79-2.19 1.33 1.2 2.47 2.59 3.65 3.93l-.33-5.79 4.63.65-2.19 4.68c3.24.52 5.5-1.84 7.42-4.08l1.6 1.88-1.93 2.58 3.14 3.66c2.28-2.43 3.67-5.5 3.48-8.87 3.81 2.01 7.27 4.63 10.19 7.82l-1.72 2.61 3.36.16c.48-2.95 1.7-5.71 3.78-7.89l1.45 4.47 3.21 1.03.26 4.79c3.17-1.24 6.24-3.31 9.73-3.36 3.43 1.19 6.23 3.66 9.28 5.57l3.14-3.92c1.17 1.28 1.98 3.16 3.64 3.86 3.39.3 6.77-.38 10.16-.58l-1.09 4.07c.3.03.9.07 1.19.1l2.6-2.21 2.91 1.78c5.95-1.06 12.36-2.04 17.98.85 2.18-1.02 4.51-1.66 6.9-1.96l.96 3.98 2.14-1.16.26-4.82c1.59 2.13 2.93 4.55 5.09 6.17 1.49.53 3.1.63 4.67.85l.26-4.49a34.2 34.2 0 0 1 10.04 1.49c-1.1 1.97-2.39 3.81-3.53 5.75l4.95-.12c.88-2.3 2.35-4.32 4.5-5.58 2.27 1.74 4.88 2.92 7.62 3.69v171.21c-2.31 1.86-4.71 3.61-7.04 5.45l-3.12-3c-2.21 1.07-4.47 2.49-7.03 2.22-4.46-.45-8.91.77-13.35.02-2.69-.52-5.38.12-8.05.48-2.07.36-3.95-.77-5.77-1.55l-1.94 4.04-2.75-4.18-4.02 3.46c-2.3-.93-4.55-2.1-7.01-2.48-2.35.07-4.54 1.02-6.81 1.49-3.23.79-6.57.15-9.83.56-2.64.41-4.91 2.06-7.54 2.44-2.62-.24-5.06-1.48-7.71-1.49-3.12.14-6.04 1.53-9.16 1.63-3.48-.67-6.75-2.18-10.27-2.71l.79 3.79-1.25.38c-1.75-.64-3.45-1.45-5.29-1.73-1.85.29-3.52 1.21-5.33 1.62-2.09-.79-3.82-2.29-5.86-3.17-3.45-.09-6.52 2.2-10 2.09-3.03-.14-5.99-.92-9.02-1.09-3.39-.31-6.8.07-10.19-.17-3.27-.21-6.2-1.96-9.45-2.22-10.49.22-20.99-.91-31.45.33-4.29.8-8.4-1.82-12.66-.64-3.19.77-6.63.44-9.28-1.6-2.75.28-5.52.24-8.28.43-2.59.19-5.21 1.26-7.77.27-5.99-1.84-12.47-2.76-17.62-6.62 3.63.1 7.26.15 10.9.07 1.69.04 3.37.15 5.06.31 2.88.26 5.72.79 8.58 1.26l-1.46 1.05c5.32.42 10.65.29 15.98.29 7.23-.03 14.48.37 21.69-.4 5.71-.63 11.47-.27 17.2-.56 4.05-.24 7.96 1.02 11.96 1.35 3.88.36 7.69-.64 11.55-.88 5-.36 10-1 15.03-.74 4.05.24 7.56-2.32 11.51-2.72 2.69.05 5.32 1.41 8.02.77 3.2-.75 6.22-2.05 9.27-3.23-2.12-1.82-4.55-3.26-7.11-4.36l-3.46 2.46c-1.98-3.1-4.06-6.13-6.28-9.06l-1.51 3.44c-2.35-.54-4.75-.77-7.13-1.02-3.65-.37-6.91-2.56-10.64-2.38-4.14.09-8.3-.25-12.28-1.45-9.11-2.66-18.67-3.05-27.87-5.28-8.06-1.66-16.02-4.11-24.3-4.43-3.36-.07-6.52-1.36-9.29-3.2 3.06-3.24 6.26-6.33 9.47-9.42l6.57-6.53c2.54-2.44 5.4-4.54 7.81-7.11.92-.92 1.54-2.11 1.61-3.42.51-4.27.49-8.58.82-12.86 1.18-.64 2.39-1.24 3.61-1.83 2.79-.99 5.46-2.29 7.96-3.89 3.12-2.06 7.01-2.21 10.31-3.84 1.63-1.69 2.05-4.13 2.7-6.3 1.72-6.75.16-14.03-3.46-19.88-1.04-1.79-3.03-2.64-4.71-3.68-1.58-13.05-5.6-25.63-7.89-38.55l-.19-.87c-.62-4.54.61-9.04.32-13.57-.74-6.55-5.21-11.75-9.43-16.48-3.25-3.69-7.25-6.61-11.32-9.33.3-3.18.68-6.37 1.68-9.42 2.03-2.94 2.78-6.43 3.35-9.89.66-4.07 2.78-7.65 4.18-11.48 1.27-3.46 1.06-7.24.67-10.84z"/><path fill="#7a7979" d="M253.55 130.65l2.26-4.21c.87.87 1.61 1.95 2.74 2.51 2.87.57 5.81.75 8.7 1.28l-4.23 1.22-2.56 3.78-1.11-.58c-2.08-1.12-3.97-2.53-5.8-4z"/><path fill="#efbea0" d="M243.23 147.03c3.27-5.57 7.38-10.61 10.32-16.38 1.83 1.47 3.72 2.88 5.8 4 .77 4.94-2.9 8.69-4.94 12.79-2.96 5.38-4.85 11.4-8.79 16.21-3.42 4.11-7.14 8.06-11.67 10.96-1.82-1.13-3.56-2.39-5.2-3.76.24-6.1 5.25-9.97 8.86-14.25 2.34-2.58 3.79-5.77 5.22-8.9l.4-.67z"/><path fill="#3c3d3e" d="M260.46 135.23l2.56-3.78 7.71 2.7c-1.56 1.24-3.06 2.56-4.42 4.01l-1.87-.96-3.98-1.97z"/><path fill="#d7a889" d="M259.35 134.65l1.11.58 3.98 1.97c-2.32 6.18-6.47 11.47-8.45 17.79-4.29 7.57-8.47 15.21-13.21 22.51l-2.44-.04c-2.19-.82-4.33-1.75-6.39-2.85 4.53-2.9 8.25-6.85 11.67-10.96 3.94-4.81 5.83-10.83 8.79-16.21 2.04-4.1 5.71-7.85 4.94-12.79z"/><path d="M291.57 141.62c-.01-2.47 1.08-4.72 2.03-6.94.91 11.31-.61 22.72 1.04 33.98l-2.79 1.81-1.02-2.4c.57-3.56.69-7.18.51-10.78-.27-5.22.09-10.45.23-15.67zm-.46 52.04l2.58-.88c-.12 3.35-.07 6.71.22 10.06.17 1.75.42 3.51.69 5.26-1.13.04-2.24.12-3.36.24.71-4.88.14-9.8-.13-14.68z" fill="#c4c3ce"/><path fill="#7f624f" opacity=".87" d="M264.44 137.2l1.87.96c-1.07 1.79-1.99 3.66-2.91 5.53l-2.79 5.82-2.63 5.52-2.45 1.72.46-1.76c1.98-6.32 6.13-11.61 8.45-17.79z"/><path fill="#383b3d" d="M222.53 157.68c2.06-4.92 5.89-9.61 11.34-10.74 2.26.81 4.46 1.8 6.65 2.79l-1.12.93c-2.96-.26-6.12-.26-8.5 1.78-3.03 1.94-5.57 4.5-8.08 7.05l-.29-1.81z"/><path fill="#68605d" opacity=".94" d="M233.87 146.94c3.12-.27 6.24-.11 9.36.09l-.4.67-2.31 2.03-6.65-2.79z"/><path fill="#c7997d" d="M240.52 149.73l2.31-2.03c-1.43 3.13-2.88 6.32-5.22 8.9-3.61 4.28-8.62 8.15-8.86 14.25l-2.2-2.09.76-1.39c.63-1.14 1.29-2.26 2-3.35 3.54-4.32 7.08-8.65 10.09-13.36.28-.24.84-.7 1.12-.93z"/><path fill="#abb09f" d="M303.11 149.13l2.69-.26c-.02 3.43-.18 6.85 0 10.28.43 8.87.06 17.77-.69 26.61l-.94 9.15-.83-.24a103.36 103.36 0 0 1-.09-3.52c-.49-10.37-.36-20.76-1.07-31.11l.93-10.91z"/><path fill="#747170" d="M230.9 152.44c2.38-2.04 5.54-2.04 8.5-1.78-3.01 4.71-6.55 9.04-10.09 13.36l-1.78-5.71c1.32-1.83 2.47-3.79 3.37-5.87z"/><path opacity=".85" d="M257.98 155.03l2.63-5.52c8.85 1.18 17.75 2.54 26.12 5.8.19 4.44-.01 8.89-.72 13.29-1.48.39-2.94.89-4.39 1.37a157.93 157.93 0 0 1-3.77-.01c-.04-4.38-.54-8.75-1.23-13.07a332.04 332.04 0 0 0-9 7.71c-1.39 1.33-3.07 2.64-3.42 4.65-.91 3.6-1.49 7.27-2.29 10.89l-1.29-3.75c.93-1.17 1.9-2.33 2.68-3.61.48-2.59-1.12-4.89-2.14-7.13l-2.4.21c-1.52-.45-2.98-1.05-4.43-1.66 1.15-3.08 2.3-6.17 3.65-9.17z"/><path fill="#5c5d5d" d="M222.82 159.49c2.51-2.55 5.05-5.11 8.08-7.05-.9 2.08-2.05 4.04-3.37 5.87.56 1.91 1.16 3.81 1.78 5.71-.71 1.09-1.37 2.21-2 3.35-.75-1.14-1.53-2.26-2.3-3.37l-4.27 2.89c-.03-1.39-.03-2.78-.01-4.17.35-1.76 1.07-3.41 1.8-5.04l.29 1.81z"/><path fill="#b68a6e" d="M242.78 177.5c4.74-7.3 8.92-14.94 13.21-22.51l-.46 1.76c-1.09 4.5-2.65 8.87-4.53 13.1-1.06 2.44-1.96 4.94-2.75 7.47-1.83.09-3.65.17-5.47.18z"/><path fill="#30343b" d="M255.53 156.75l2.45-1.72-3.65 9.17 4.43 1.66-1.72 3.93-.65 1.37-5.39-1.31c1.88-4.23 3.44-8.6 4.53-13.1z"/><path opacity=".15" d="M267.62 164.6a332.04 332.04 0 0 1 9-7.71c.69 4.32 1.19 8.69 1.23 13.07.02 2.02 0 4.05-.03 6.08-.19 6.56-.1 13.12-.19 19.69l-6.74-.15c.78 3.11 1.75 6.17 2.95 9.15.53 1.36 1.05 2.73 1.53 4.12l-1.21 1.35c-2.04-.75-4.07-1.56-5.95-2.66-.69-3.51.65-7.13-.29-10.63-1.56-5.74-3.98-11.19-6.01-16.77.8-3.62 1.38-7.29 2.29-10.89.35-2.01 2.03-3.32 3.42-4.65z"/><path fill="#565654" d="M306.94 171.24c-.26-4.7-.73-9.83 2.28-13.84-1 3.05-1.38 6.24-1.68 9.42 4.07 2.72 8.07 5.64 11.32 9.33 4.22 4.73 8.69 9.93 9.43 16.48.29 4.53-.94 9.03-.32 13.57-.74-1.07-1.53-2.11-2.31-3.14-1.67 1.15-3.46 2.2-4.83 3.72-.66 1.74-.81 3.62-1.09 5.46l-2.78-.4c-.32-2.55-.11-5.73-2.31-7.5-1.86-.9-3.97-1.01-5.98-1.37.57-1.02 1.2-2 1.82-2.99-1.36-1.56-2.94-3.01-3.8-4.92-.06-1.92.39-3.8.69-5.68 1.19-5.02.55-10.19-.5-15.18l3.57 2.74 1.13-4.67-4.64-1.03m12.17 9.88c-.36-2.84-2.68-4.73-4.5-6.69-1.83 2.99 1.39 6.65 4.5 6.69m-2.2 3.93c-.36-2.77-2.53-4.69-4.3-6.62-1.51 2.71 1.05 7.57 4.3 6.62m-2.43 4.48c-.91 3.16-1.44 6.93-.04 9.99 3.08 1.72 6.76 1.39 10.16 1.61-1.4-4.57-2.61-9.21-4.6-13.57-1.89.26-4.81-.44-5.52 1.97z"/><path fill="#737674" d="M299.29 167.12l2.89-7.08c.71 10.35.58 20.74 1.07 31.11l-2.39.84-.34-7.49-3.58-1.71.47-2.4c2.44-4.08 1.32-8.82 1.88-13.27z"/><path d="M220.35 173.1c-.05-3.46-.25-6.95.38-10.38-.02 1.39-.02 2.78.01 4.17l4.27-2.89 2.3 3.37-.76 1.39c-1.9 1.67-4.05 3.03-6.2 4.34zm6.52 109.98c2.29 1.07 4.65 1.97 7.05 2.79 5 1.77 10.35 2.7 15.66 2.2 4.41-.1 8.59-1.53 12.74-2.86-3.74 4.95-8.92 9.3-15.23 10.28-6.06 1.44-12.3.81-18.45.54 2.13 2.04 4.29 4.26 7.19 5.16 3.79 1.5 8.3 1.27 11.62 3.82-1.43 1.21-2.99 2.24-4.56 3.25-3.37-2.07-6.98-3.71-10.36-5.75-2.51-1.5-4.11-4.02-5.73-6.38.63-2.02 1.41-4.02 1.61-6.14.09-2.39-.76-4.69-1.54-6.91z" fill="#515250"/><path fill="#868281" d="M258.76 165.86l2.4-.21c1.02 2.24 2.62 4.54 2.14 7.13-.78 1.28-1.75 2.44-2.68 3.61-1.01-2.3-2.29-4.46-3.58-6.6l1.72-3.93z"/><path fill="#4a4747" d="M281.62 169.97l4.39-1.37 1.7-.21 1.35-.13 1.77-.19 1.02 2.4 2.79-1.81 1.49-1.15 1.28 12.88-.47 2.4-1.25 7.26-1.27-3.24-.26-.7a122.8 122.8 0 0 1-.41-4.22 145.14 145.14 0 0 0-8.85.15l-1.93-1.91 3.75.06 4.63.01-.09-8.15-4.63-.42-5.21-.74.2-.92z"/><path fill="#63635f" d="M220.35 173.1c2.15-1.31 4.3-2.67 6.2-4.34l2.2 2.09c1.64 1.37 3.38 2.63 5.2 3.76 2.06 1.1 4.2 2.03 6.39 2.85-3.4.92-5.41 3.98-8.23 5.8-2.97.97-6.14.95-9.18 1.51l.18-.85-.47-.68-.75.12-.23.8.43.74-.84.15-5.47 1.02c.89-4.55 3.34-8.54 4.57-12.97z"/><path fill="#222528" d="M251 169.85l5.39 1.31c-3.02 6.04-6.78 11.71-8.99 18.13-.59-.89-1.21-1.77-1.69-2.72.39-3.18 1.68-6.17 2.54-9.25.79-2.53 1.69-5.03 2.75-7.47z"/><path fill="#474645" d="M256.39 171.16l.65-1.37 3.58 6.6 1.29 3.75c2.03 5.58 4.45 11.03 6.01 16.77.94 3.5-.4 7.12.29 10.63 1.88 1.1 3.91 1.91 5.95 2.66l-1.37 1.41c-1.68-.19-3.35-.42-5-.72l-.91-.28c.05-1.18.08-2.36.09-3.53l-.04-5.09-3.05 5.35c-2.66-.94-5.28-1.97-7.92-2.95-2.84-1-5.75-1.8-8.64-2.6.5 1.39 1.01 2.8 1.59 4.17l-1.51-.1c-1.6-.11-3.2-.26-4.79-.4-.18-.39-.52-1.19-.69-1.58l-1.95-4.84-1.79.21c-4.02.21-8.04.52-11.99 1.31-1.49-.34-3.02-.61-4.37-1.34-1.11-1.2-1.95-2.61-2.84-3.98 3.51-1.31 5.95-4.14 7.79-7.28l-4.71.98-.81-3.89.84-.15.84-.13c3.04-.56 6.21-.54 9.18-1.51 2.82-1.82 4.83-4.88 8.23-5.8l2.44.04c1.82-.01 3.64-.09 5.47-.18-.86 3.08-2.15 6.07-2.54 9.25.48.95 1.1 1.83 1.69 2.72 2.21-6.42 5.97-12.09 8.99-18.13m-28.56 15.83c1.46 1.22 3.02 2.33 4.76 3.14-1.4 1.65-2.43 3.57-2.7 5.74 2.56-.31 5.09-.75 7.6-1.31l.06-4.15c-2.82-2.13-6.08-3.76-9.72-3.42m18.79 12.12l1.55 2.28c1.83.05 4.33.17 4.07-2.39-1.87-.01-3.75.03-5.62.11z"/><path fill="#b6b7c3" d="M277.85 169.96l3.77.01-.2.92-.57 3.87-3.03 1.28.03-6.08z"/><path fill="#adb1be" d="M280.85 174.76l.57-3.87 5.21.74a84.29 84.29 0 0 0 .09 8.56l-3.75-.06a40.47 40.47 0 0 1-2.12-5.37z"/><path fill="#cbcbd9" d="M286.63 171.63l4.63.42.09 8.15c-1.55 0-3.09 0-4.63-.01l-.09-8.56z"/><path opacity=".86" d="M277.82 176.04l3.03-1.28a40.47 40.47 0 0 0 2.12 5.37l1.93 1.91v4.84c-.22 1.5.51 2.89 1.28 4.13 1.71 4.17 1.09 8.73.91 13.1-4.43-.02-8.85.12-13.25.62-1.2-2.98-2.17-6.04-2.95-9.15l6.74.15.19-19.69z"/><path fill="#717170" d="M319.11 181.12c-3.11-.04-6.33-3.7-4.5-6.69 1.82 1.96 4.14 3.85 4.5 6.69z"/><path fill="#6f6e6e" d="M316.91 185.05c-3.25.95-5.81-3.91-4.3-6.62 1.77 1.93 3.94 3.85 4.3 6.62z"/><path fill="#828386" d="M284.9 182.04l8.85-.15.41 4.22c-2.72.44-2.31 4.09.3 4.31.61 4.7 1.08 9.41 1.2 14.15l-1.75-1.73c-.29-3.35-.34-6.71-.22-10.06l.08-.88c-1.55-.12-3.09-.25-4.62-.44l-2.97-.45c2.14-1.05 1.18-4.68-1.28-4.13v-4.84z"/><path fill="#9d9b9b" d="M221.89 183.36l.75-.12.47.68-.18.85-.84.13-.43-.74.23-.8z"/><path fill="#9ea092" d="M296.94 182.79l3.58 1.71.34 7.49 2.39-.84.09 3.52-2.42-.59-2.22-.47c-.51 1.63-1.13 3.26-1.3 4.98.14 2.34 1.27 4.47 2.08 6.64l-2.6 1.49-1.22-2.15c-.12-4.74-.59-9.45-1.2-14.15.01-1.21 0-2.41-.04-3.61l1.27 3.24 1.25-7.26z"/><path fill="#575958" d="M215.78 186.07l5.47-1.02.81 3.89-3.08 6.3c.89 1.37 1.73 2.78 2.84 3.98 1.35.73 2.88 1 4.37 1.34l-6.07 1.43c-2.19-.56-4.68-2.46-6.85-.9-2.1 1.47-1.89 4.42-2.53 6.65-.66-3.73-1.04-7.65-.1-11.37 1.17-3.69 3.77-6.69 5.14-10.3z"/><path fill="#c4c4cb" d="M294.46 190.42c-2.61-.22-3.02-3.87-.3-4.31l.26.7.04 3.61z"/><path fill="#727073" d="M305.11 185.76l2.27 3.62c-.3 1.88-.75 3.76-.69 5.68.86 1.91 2.44 3.36 3.8 4.92l-1.82 2.99-.15 1.27c1.31 1.78 2.79 3.42 4.2 5.11l-.15 1.06-3.66-.33-2.45 1.53.29-3.57c.28-4.05-.31-8.09-1.28-12.01l-2.75 1.35c-.58-1.12-1.19-2.21-1.8-3.3l2.42.59.83.24.94-9.15z"/><path fill="#3b3a38" d="M227.83 186.99c3.64-.34 6.9 1.29 9.72 3.42l-.06 4.15c-2.51.56-5.04 1-7.6 1.31.27-2.17 1.3-4.09 2.7-5.74-1.74-.81-3.3-1.92-4.76-3.14z"/><path fill="#999a9f" opacity=".97" d="M284.9 186.88c2.46-.55 3.42 3.08 1.28 4.13-.77-1.24-1.5-2.63-1.28-4.13z"/><path fill="#2e302f" d="M222.06 188.94l4.71-.98c-1.84 3.14-4.28 5.97-7.79 7.28l3.08-6.3z"/><path fill="#6c6c6d" d="M314.48 189.53c.71-2.41 3.63-1.71 5.52-1.97 1.99 4.36 3.2 9 4.6 13.57-3.4-.22-7.08.11-10.16-1.61-1.4-3.06-.87-6.83.04-9.99z"/><path fill="#606369" d="M286.18 191.01l2.97.45c-.75 6.32-.65 12.8 1.41 18.88 2.47.53 4.99.33 6.99-1.36 1.13 1.16 2.04 2.51 2.92 3.87l-6.27 1.45c1.78 1.98 3.52 4.02 5.16 6.13l1.87 2.42-5.36-.42c-.44-1.77-.99-3.66-2.88-4.33l-.67-.28-.84.38-.69 1.67c-2.99.23-5.81-.8-7.95-2.89l-1.96-3.77c1.02-1.69-.85-3.53-2.49-2.35l-2.11.76a101.58 101.58 0 0 1 1.04-3.9c1.54.7 3.19 1.23 4.57 2.24 1.64 2.55 3.07 5.25 4.78 7.77l3.39-3.76c-1.34-3.17-2.56-6.42-2.97-9.86.18-4.37.8-8.93-.91-13.1m4.92 21.32l-.34.83.34.83.82.35.84-.34.35-.83-.34-.83-.83-.35-.84.34z"/><path fill="#979ba6" d="M289.15 191.46l4.62.44-.08.88-2.58.88c.27 4.88.84 9.8.13 14.68l-.68 2c-2.06-6.08-2.16-12.56-1.41-18.88z"/><path fill="#8a917d" d="M298.7 193.61l2.22.47 1.8 3.3c.67 4.77.22 9.61.31 14.41l3.72-3.75c-.07 1.19-.17 2.38-.29 3.57l-.34 2.6-3.41-.91.68 1.24-2.92-1.69c-.88-1.36-1.79-2.71-2.92-3.87l-2.95-.88c-.27-1.75-.52-3.51-.69-5.26l1.75 1.73 1.22 2.15 2.6-1.49c-.81-2.17-1.94-4.3-2.08-6.64.17-1.72.79-3.35 1.3-4.98z"/><path fill="#9da28e" d="M302.72 197.38l2.75-1.35c.97 3.92 1.56 7.96 1.28 12.01l-3.72 3.75c-.09-4.8.36-9.64-.31-14.41z"/><path fill="#919396" d="M226.19 200.56c3.95-.79 7.97-1.1 11.99-1.31-5 1.24-10.67 1.21-14.74 4.78 6.18.6 12.41-2.06 18.48-.15l.69 1.58-1.71-.13c-6.24-1.09-12.69.5-18.12 3.63-1.64.31-3.29.61-4.95.82l-2.2-.35 3.99-2.79-.67-3.27 1.17-1.38 6.07-1.43z"/><path fill="#646565" d="M238.18 199.25l1.79-.21 1.95 4.84c-6.07-1.91-12.3.75-18.48.15 4.07-3.57 9.74-3.54 14.74-4.78z"/><path fill="#616162" d="M246.62 199.11l5.62-.11c.26 2.56-2.24 2.44-4.07 2.39l-1.55-2.28z"/><path fill="#646766" d="M213.27 201.09c2.17-1.56 4.66.34 6.85.9l-1.17 1.38.67 3.27-3.99 2.79-4.34-1.08-.55-.61c.64-2.23.43-5.18 2.53-6.65z"/><path fill="#3e3f41" d="M247.32 201.79l8.64 2.6-4.15 2.64-1.31.81-1.59-1.88-1.59-4.17z"/><path fill="#7d7c80" d="M263.88 207.34l3.05-5.35.04 5.09c-2.2 1.14-4.44 2.73-7.05 2.51-2.86-.23-5.45-1.61-8.11-2.56l4.15-2.64 7.92 2.95z"/><path fill="#454443" d="M308.67 202.97c2.01.36 4.12.47 5.98 1.37 2.2 1.77 1.99 4.95 2.31 7.5.3 8.39.27 16.79.31 25.19.6 6.25 1.11 12.5 1.39 18.77.1 1.94.32 3.92-.02 5.85-1.5 1.34-3.69 1.34-5.52 1.91l-.11-3.29 2.76-1.7c-.12-3.46-.2-6.91-.18-10.37.58-4.72.93-9.47.82-14.22-.12-6.24.36-12.51-.43-18.72-.15-2.37-1.81-4.18-3.26-5.91-1.41-1.69-2.89-3.33-4.2-5.11l.15-1.27z"/><path fill="#6e6d6c" d="M320.83 206.78c1.37-1.52 3.16-2.57 4.83-3.72l2.31 3.14.19.87a51.12 51.12 0 0 1-8.42 5.17c.28-1.84.43-3.72 1.09-5.46z"/><path fill="#5b5853" d="M222.78 208.96c5.43-3.13 11.88-4.72 18.12-3.63-2.36 1.53-4.6 3.52-7.45 4.03-3.55.66-7.13-.06-10.67-.4z"/><path fill="#010101" opacity=".81" d="M273.84 204.73c4.4-.5 8.82-.64 13.25-.62.41 3.44 1.63 6.69 2.97 9.86l-3.39 3.76c-1.71-2.52-3.14-5.22-4.78-7.77-1.38-1.01-3.03-1.54-4.57-2.24a101.58 101.58 0 0 0-1.04 3.9l-.4 2.13a60.55 60.55 0 0 1-3.09-2.14l1.37-1.41 1.21-1.35c-.48-1.39-1-2.76-1.53-4.12z"/><path fill="#454540" d="M242.61 205.46l4.79.4-3.58 2c-7.11 4.35-15.65 4.26-23.69 3.99-.71 1.13-1.4 2.27-2.07 3.42 0-1.83-.13-3.66-.23-5.49 1.66-.21 3.31-.51 4.95-.82 3.54.34 7.12 1.06 10.67.4 2.85-.51 5.09-2.5 7.45-4.03a98.32 98.32 0 0 0 1.71.13z"/><path fill="#55554e" d="M243.82 207.86l3.58-2 1.51.1 1.59 1.88 1.31-.81c2.66.95 5.25 2.33 8.11 2.56 2.61.22 4.85-1.37 7.05-2.51l-.09 3.53-.5 3.71c-1.75 2.94-3.73 5.76-5.86 8.45-1.2.81-2.44 1.56-3.67 2.31-2.89-.89-5.89-1.43-8.9-1.65-5.62-.28-11.26.45-16.73 1.63l-1.16-1.84c4.89-1.54 10.02-2.08 15.14-2.2l8-.4c-2.3-4.84-6.36-8.42-9.38-12.76z"/><path fill="#c99577" d="M319.74 212.24a51.12 51.12 0 0 0 8.42-5.17c2.29 12.92 6.31 25.5 7.89 38.55.14 1.65.25 3.29.32 4.94l-.31 4.44c-1.87.9-3.73 1.82-5.64 2.62 1.13-3.02 1.68-6.28 1.04-9.48-1.51-8.93-2.19-18.25-6.33-26.47-2.25 5.49-3.02 11.47-2.84 17.36.3 5.91 2.18 11.58 3.33 17.36 1.28.47 2.56.92 3.86 1.35-1.86.24-3.72.48-5.58.61-1.17-2.54-2.23-5.16-2.58-7.95-.87-6.28-1.44-12.64-.91-18.97.49-6.4.21-12.84-.67-19.19z"/><path fill="#7a7b71" d="M220.13 211.85c8.04.27 16.58.36 23.69-3.99 3.02 4.34 7.08 7.92 9.38 12.76-2.67.18-5.34.3-8 .4-.34-2.07-.58-4.17-1.22-6.18-.52-1.97-2.69-3.47-4.71-2.97-2.97.56-5.67 2.07-8.66 2.49-2.46.04-4.84-.7-7.29-.83-1.28.48-2.3 1.56-2.87 2.79-.09 3.18 1.11 6.22 1.89 9.27l7.72-2.37 1.16 1.84c-4.42 1.32-8.74 3.02-12.81 5.18-.45-1.2-.89-2.4-1.27-3.61-.1-1.42-.13-2.83-.15-4.25.4-2.36.8-4.73 1.07-7.11.67-1.15 1.36-2.29 2.07-3.42z"/><path fill="#beffff" d="M291.24 208.34l3.36-.24 2.95.88c-2 1.69-4.52 1.89-6.99 1.36l.68-2z"/><path fill="#67655f" d="M211.29 208.35l4.34 1.08 2.2.35.23 5.49-1.07 7.11c-2.09-4.6-2.05-10.27-5.7-14.03z"/><path fill="#989a9d" d="M278.39 210.86c1.64-1.18 3.51.66 2.49 2.35-1.26-.11-2.3-1.11-2.49-2.35z"/><path fill="#392e2a" d="M306.46 211.61l2.45-1.53 3.66.33c-1.44 8.1-.94 16.37-.57 24.54-1.69-5.71-.75-11.86-2.87-17.49l-.07-.95.73-1.29-3.67-1.01.34-2.6z"/><path opacity=".07" d="M312.72 209.35c1.45 1.73 3.11 3.54 3.26 5.91.79 6.21.31 12.48.43 18.72.11 4.75-.24 9.5-.82 14.22-.91-2.85-2.01-5.63-2.84-8.5l.05-.87-.18-1.63-.62-2.25c-.37-8.17-.87-16.44.57-24.54l.15-1.06z"/><path fill="#93948a" d="M239.27 211.87c2.02-.5 4.19 1 4.71 2.97.64 2.01.88 4.11 1.22 6.18-5.12.12-10.25.66-15.14 2.2l-7.72 2.37c-.78-3.05-1.98-6.09-1.89-9.27.57-1.23 1.59-2.31 2.87-2.79 2.45.13 4.83.87 7.29.83 2.99-.42 5.69-1.93 8.66-2.49z"/><path fill="#797b8d" d="M266.88 210.61l.91.28c1.19.9 2.32 1.89 3.44 2.89l-4.85.54.5-3.71z"/><path fill="#5e6177" d="M267.79 210.89l5 .72 3.09 2.14.4 2.48.09.52 1.19 6.09c-3.78 1.31-7.79 1.44-11.74 1.77l-2.13.95-3.17-2.79c2.13-2.69 4.11-5.51 5.86-8.45l4.85-.54c-1.12-1-2.25-1.99-3.44-2.89m2.53 5.51c-1.43-.19-3.24.38-3.87 1.76.59 1.78 5.52-.36 3.87-1.76z"/><path fill="#6c7086" d="M276.28 211.62l2.11-.76c.19 1.24 1.23 2.24 2.49 2.35l1.96 3.77 1.52 4.1-6.8 1.76-1.19-6.09-.09-.52-.4-2.48.4-2.13z"/><path fill="#939987" d="M291.1 212.33l.84-.34.83.35.34.83-.35.83-.84.34-.82-.35-.34-.83.34-.83z"/><path fill="#b18264" d="M316.96 211.84l2.78.4c.88 6.35 1.16 12.79.67 19.19-.53 6.33.04 12.69.91 18.97.35 2.79 1.41 5.41 2.58 7.95-1.78-.78-3.51-1.67-5.24-2.55-.28-6.27-.79-12.52-1.39-18.77l-.31-25.19z"/><path fill="#a8a7af" d="M294.2 214.3l6.27-1.45 2.92 1.69.24 4.06-4.27 1.83-5.16-6.13z"/><path fill="#594746" d="M302.71 213.3l3.41.91 3.67 1.01-.73 1.29c-4.16 4.79-2.41 11.61-1.24 17.2 1.08-5.34 1.55-10.81 1.31-16.25 2.12 5.63 1.18 11.78 2.87 17.49l.62 2.25c-2.28-1.05-1.91 2.84.18 1.63l-.05.87c-.38 3.42-.66 6.86-.36 10.3l-2.95 4.94c-.46-1.06-.92-2.11-1.32-3.17-.37-2.59-.68-5.18-1.39-7.69-.65-2.24-1.99-4.44-1.49-6.85 1.04-7.48 2.73-16.02-1.85-22.69l-.68-1.24z"/><path fill="#808188" d="M303.39 214.54c4.58 6.67 2.89 15.21 1.85 22.69-.5 2.41.84 4.61 1.49 6.85.34 2.94-.2 5.89-.7 8.78-.15-3.01.18-6.12-.65-9.06-.9-2.06-2.79-3.45-4.5-4.82a57.32 57.32 0 0 0-4.37.56l1.65-1.61 1.11-1.12c1.45-.16 2.91-.26 4.38-.35.52-5.41 2.62-11.07.34-16.34l-.36-1.52c-.17-1.35-.21-2.71-.24-4.06z"/><path fill="#a8a7b6" d="M270.32 216.4c1.65 1.4-3.28 3.54-3.87 1.76.63-1.38 2.44-1.95 3.87-1.76z"/><path fill="#fff" d="M276.28 216.23l.09.52-.09-.52z"/><path fill="#63657a" d="M282.84 216.98c2.14 2.09 4.96 3.12 7.95 2.89 1.28.12 2.02-.47 2.2-1.77 1.89.67 2.44 2.56 2.88 4.33l5.36.42 1.83 2.38c-.11.84-.17 1.68-.2 2.53l-3.22 1.25-.37 7.8-1.11 1.12-.58-2.09-2.29-1.27c-.89-4.38-3.6-8.29-3.48-12.86-1.47 1.19-3.07 2.27-4.93 2.72.64-1.65-.74-3.56-2.52-3.35-.49-1.37-.97-2.75-1.52-4.1m16.42 7.3v.45l.45-.01v-.45l-.45.01z"/><path fill="#817e83" d="M307.82 233.71c-1.17-5.59-2.92-12.41 1.24-17.2l.07.95c.24 5.44-.23 10.91-1.31 16.25z"/><path fill="#a1a0b0" d="M291.48 218.2l.84-.38.67.28c-.18 1.3-.92 1.89-2.2 1.77l.69-1.67z"/><path fill="#dcd8e4" d="M299.36 220.43l4.27-1.83.36 1.52-.93 5.11-1.83-2.38-1.87-2.42z"/><path fill="#9f9eab" d="M303.99 220.12c2.28 5.27.18 10.93-.34 16.34-1.47.09-2.93.19-4.38.35.24-2.6.33-5.2.37-7.8.61 2.24-.6 6.21 2.6 6.56 1.3-2.43.71-5.2.62-7.81.03-.85.09-1.69.2-2.53l.93-5.11z"/><path fill="#575758" d="M277.56 222.84l6.8-1.76c-.61 1.51.68 4.1 2.52 3.35 1.86-.45 3.46-1.53 4.93-2.72-.12 4.57 2.59 8.48 3.48 12.86l2.29 1.27.58 2.09-1.65 1.61-1.2 1.08c-4.01-.41-7.95-1.44-12-1.44-1.42.36-2.83.78-4.23 1.2l.1-3.95c2.16 1.57 4.72 1.47 7.23 1.03l4.75.38c-4.42-3.69-9.85-5.61-15.44-6.62-1.21-1.53-2.21-3.34-3.91-4.37-1.89-1.01-3.97-1.58-5.99-2.24 3.95-.33 7.96-.46 11.74-1.77z"/><path fill="#3d3f4a" d="M284.36 221.08c1.78-.21 3.16 1.7 2.52 3.35-1.84.75-3.13-1.84-2.52-3.35z"/><path fill="#dca889" d="M325.13 221.67c4.14 8.22 4.82 17.54 6.33 26.47.64 3.2.09 6.46-1.04 9.48l-.94.12c-1.3-.43-2.58-.88-3.86-1.35-1.15-5.78-3.03-11.45-3.33-17.36-.18-5.89.59-11.87 2.84-17.36z"/><path fill="#918f87" d="M231.22 225.06c5.47-1.18 11.11-1.91 16.73-1.63 1.23.16 2.45.37 3.68.58l-2.58 2.98c-4.93-.5-10-1.07-14.84.28-5.05 1.33-9.28 4.49-13.8 6.96-3.15 1.77-6.47 3.2-9.86 4.43 1.64-3.6 4.41-6.52 7.86-8.42 4.07-2.16 8.39-3.86 12.81-5.18z"/><path fill="#6e6e6c" d="M247.95 223.43c3.01.22 6.01.76 8.9 1.65l2.46.75c-2.39 2.8-5.37 4.95-8.26 7.19-1.63 1.1-1.8 3.21-2.31 4.95l-4.61-1.24c1.15-3.46 2.51-6.93 4.92-9.74.84-1.01 1.71-1.99 2.58-2.98l-3.68-.58z"/><path fill="#5a5b59" d="M256.85 225.08l3.67-2.31 3.17 2.79c-2.24 1.37-4.58 2.88-5.88 5.24-1.19 2.25-1.53 4.82-1.84 7.31l-4.96 2.32-.91 4.92 4.72 1.14.1 2-5.44.54 2.63 5.84-3.67-.88c-1.57 4.22-4.39 7.84-8.36 10.05l-3.15-1.05 1.73-2.8c3.1-3.3 6.31-6.66 7.92-10.99-.01-2.01-.13-4.02-.23-6.02l-4.96 3.14c-1.77-1.09-3.49-2.34-5.49-2.95-3.52-.23-6.93 1.83-8.77 4.77-3.58 5.56-4.34 12.43-3.94 18.9.2 2.09.31 4.41 1.73 6.09 1.67 1.98 3.73 3.58 5.5 5.47-1.39-.71-2.81-1.33-4.23-1.96l1.44 4.75-1.14 1.03c-3-5.36-5.75-10.85-8.61-16.28-.47-1.14-.88-2.29-1.29-3.43l3.37-.22c1.14-4.21 2.23-8.45 2.84-12.77-2.58 1.87-4.41 4.48-5.8 7.31-1.12 2.5-3.84 3.48-6.2 4.43-1.29-1.67-1.8-3.72-1.99-5.78l2.91-.94c4.49-1.92 6.86-6.6 11.05-8.97 4.41-2.6 9.3-4.29 14.19-5.75 1.69-.32 3.4-.55 5.11-.69 2.06.34 4.08.9 6.09 1.46l.58-2.82c.51-1.74.68-3.85 2.31-4.95 2.89-2.24 5.87-4.39 8.26-7.19l-2.46-.75z"/><path fill="#cdcbd6" d="M299.26 224.28l.45-.01v.45l-.45.01v-.45z"/><path fill="#817f77" d="M263.69 225.56l2.13-.95c2.02.66 4.1 1.23 5.99 2.24 1.7 1.03 2.7 2.84 3.91 4.37 5.59 1.01 11.02 2.93 15.44 6.62l-4.75-.38-7.13-3.69-1.05 2.24c-1.24.93-2.52 1.79-3.81 2.64-3.39-2.52-7.43-5.77-11.93-4.27-4.15 1.72-5.85 6.86-4.02 10.88l-2.24-1.64-.26-5.51c.31-2.49.65-5.06 1.84-7.31 1.3-2.36 3.64-3.87 5.88-5.24z"/><path fill="#616361" d="M234.21 227.27c4.84-1.35 9.91-.78 14.84-.28-2.41 2.81-3.77 6.28-4.92 9.74l4.61 1.24-.58 2.82c-2.01-.56-4.03-1.12-6.09-1.46l1.01-2.96c-2.2-.38-4.41-1.01-6.66-.83-1.93.5-3.67 1.54-5.46 2.39-2.49 1.17-5 2.3-7.42 3.61-4.57 2.43-7.96 6.55-10.72 10.83-2.5-4.42-3.77-9.43-4.02-14.49 2.1-4.21 5.68-7.42 8.34-11.25.38 1.21.82 2.41 1.27 3.61-3.45 1.9-6.22 4.82-7.86 8.42 3.39-1.23 6.71-2.66 9.86-4.43 4.52-2.47 8.75-5.63 13.8-6.96z"/><path fill="#cfccd9" d="M299.64 229.01l3.22-1.25c.09 2.61.68 5.38-.62 7.81-3.2-.35-1.99-4.32-2.6-6.56z"/><path fill="#919089" d="M262.49 234.38c4.5-1.5 8.54 1.75 11.93 4.27 1.29-.85 2.57-1.71 3.81-2.64-.54 4.49-1.06 9.02-2.64 13.3-.04.12-.13.35-.17.47l-3.22 9.08 3.75 1.12c2.6-4.97 3.92-10.44 5.33-15.83l.93 1.22c-.31 3.85-.16 7.72-.23 11.58-.1 4.53-2.53 8.52-4.55 12.42-1.68 2.9-3.19 6.01-5.69 8.3-2.29 1.6-5.22 1.85-7.92 2.08-7.02.67-12.53-5.05-19.47-5.05l-.92-1.25c-.94-2.1-1.72-4.25-2.44-6.43l2.61-.15c.46-.04 1.39-.14 1.85-.19l-.62 4.4 3.02 1.36 2.72-3.42c2.25-3.1 4.71-6.04 7.09-9.04l.35 2.57c2.62-.79 5.38-1.36 7.73-2.83 2.23-1.8 3.37-4.53 4.82-6.93-2.23-1.37-4.55-2.61-6.98-3.58l-5.11-3.95c-1.83-4.02-.13-9.16 4.02-10.88m4.75 11.9v.45h.45v-.45h-.45m2.05 15.98l-.01.45h.45v-.45h-.44z"/><path fill="#707583" d="M278.23 236.01l1.05-2.24-.1 2.66-.1 3.95 4.23-1.2-1.1 6.19-.93-1.22c-1.41 5.39-2.73 10.86-5.33 15.83l-3.75-1.12 3.22-9.08c.04-.12.13-.35.17-.47 1.58-4.28 2.1-8.81 2.64-13.3z"/><path fill="#3a3b3d" d="M279.28 233.77l7.13 3.69c-2.51.44-5.07.54-7.23-1.03l.1-2.66z"/><path fill="#7c7972" d="M236.42 235.54c2.25-.18 4.46.45 6.66.83l-1.01 2.96c-1.71.14-3.42.37-5.11.69l.95-2.02-6.95-.07c1.79-.85 3.53-1.89 5.46-2.39z"/><path fill="#7f797c" opacity=".98" d="M312.8 238.83c-2.09 1.21-2.46-2.68-.18-1.63l.18 1.63z"/><path fill="#424342" d="M207.65 250.11c.54-4.06.59-8.17 1.15-12.23.25 5.06 1.52 10.07 4.02 14.49a63.87 63.87 0 0 0-1.1 2.37l-2.91.94c.19 2.06.7 4.11 1.99 5.78 2.36-.95 5.08-1.93 6.2-4.43 1.39-2.83 3.22-5.44 5.8-7.31-.61 4.32-1.7 8.56-2.84 12.77l-3.37.22c.41 1.14.82 2.29 1.29 3.43-1.89-3.4-5.58-4.51-9.17-5.12-1.06-3.26-1.83-6.7-1.16-10.13l1.29 1.04c2.01-.16.07-2.67-1.19-1.82z"/><path fill="#9b978f" d="M230.96 237.93l6.95.07-.95 2.02c-4.89 1.46-9.78 3.15-14.19 5.75-4.19 2.37-6.56 7.05-11.05 8.97a63.87 63.87 0 0 1 1.1-2.37c2.76-4.28 6.15-8.4 10.72-10.83 2.42-1.31 4.93-2.44 7.42-3.61z"/><path fill="#727373" d="M251.01 240.43l4.96-2.32.26 5.51 2.24 1.64 5.11 3.95c-1.72 3.72-3.46 7.47-5.92 10.77-2.38 3-4.84 5.94-7.09 9.04-.29-1.65-.67-3.31-1.51-4.77-1.25-.88-2.55-1.69-3.83-2.52l-1.63 5.14-2.61.15-.91-2.98c3.97-2.21 6.79-5.83 8.36-10.05l3.67.88-2.63-5.84 5.44-.54-.1-2-4.72-1.14.91-4.92z"/><path fill="#7a7771" d="M283.31 239.18c4.05 0 7.99 1.03 12 1.44 1.88 2.45 3.36 5.33 2.31 8.47-1.26-1.06-2.86 1.09-1.42 1.97l.61.76c-1.33.38-2.64.78-3.95 1.21l.39-1.59c1.48-2.47 2.42-5.23 1.41-8.07l-2.4 3.96-.79-3.45c-.84 5.33-1.65 10.71-3.48 15.81l-5.8 15.94 3.83 1.32c-.6.75-1.21 1.48-1.83 2.2l-3.38-1.91-5.1 5.62-2.73.24c-2.55.22-5.09.52-7.62.86l1.25 3.22c-3.97.58-5.83 4.47-8.71 6.76-6.28 4.8-14.09 7.72-22.07 7.25-2.9-.9-5.06-3.12-7.19-5.16 6.15.27 12.39.9 18.45-.54 6.31-.98 11.49-5.33 15.23-10.28-4.15 1.33-8.33 2.76-12.74 2.86l.91-1.49c1.73-.91 3.52-1.72 5.2-2.71-.07-.29-.23-.87-.31-1.16-3.41-1.81-7.19-2.74-10.63-4.49l-.4-3.52c6.94 0 12.45 5.72 19.47 5.05 2.7-.23 5.63-.48 7.92-2.08 2.5-2.29 4.01-5.4 5.69-8.3 2.02-3.9 4.45-7.89 4.55-12.42.07-3.86-.08-7.73.23-11.58.33-2.07.72-4.13 1.1-6.19z"/><path fill="#93929a" d="M296.51 239.54l4.37-.56c-1.14 4.29-2.56 9.07-.48 13.31l-1.6-.21-1.99-.26-.61-.76 1.42-1.97c1.05-3.14-.43-6.02-2.31-8.47l1.2-1.08z"/><path fill="#b9bfa7" d="M300.88 238.98c1.71 1.37 3.6 2.76 4.5 4.82.83 2.94.5 6.05.65 9.06.5-2.89 1.04-5.84.7-8.78.71 2.51 1.02 5.1 1.39 7.69-.84 3.65-2.71 6.91-5.19 9.7-.1-3.22-.38-6.61-2.53-9.18-2.08-4.24-.66-9.02.48-13.31z"/><path fill="#1c1919" opacity=".86" d="M312.39 250c-.3-3.44-.02-6.88.36-10.3.83 2.87 1.93 5.65 2.84 8.5-.02 3.46.06 6.91.18 10.37l-2.76 1.7-.3-5.66-.32-4.61z"/><path fill="#727272" d="M227.13 248.14c1.84-2.94 5.25-5 8.77-4.77 2 .61 3.72 1.86 5.49 2.95l4.96-3.14.23 6.02-1.94-3.33c-3.32 4.14-4.81 9.24-5.98 14.32l-1.73 2.8c.78 3.03 1.34 6.25 3.14 8.87.72 1.14 2.21 1.16 3.36 1.59l.92 1.25.4 3.52c-4.69-2.2-7.89-6.42-10.05-11-.52-2.1-.93-4.22-1.36-6.33l2.94-.74c.11-3.29.05-6.59-.3-9.87-1.37 1.19-2.84 2.3-3.93 3.77-1.25 2.28-1.67 4.9-2.59 7.32-.17.36-.53 1.06-.7 1.41-2.53 2.52-3.26 6.34-1.95 9.65.74 1.04 2.07 1.45 3.13 2.12 2.09 2.88 4.62 5.45 7.5 7.56l-3.52 3.76c-2.4-.82-4.76-1.72-7.05-2.79l-.38-.66 1.14-1.03c1.9.34 3.78.77 5.67 1.18-.91-1.35-1.78-2.76-2.88-3.97-1.77-1.89-3.83-3.49-5.5-5.47-1.42-1.68-1.53-4-1.73-6.09-.4-6.47.36-13.34 3.94-18.9z"/><path fill="#4e4a4a" d="M287.99 259.69c1.83-5.1 2.64-10.48 3.48-15.81l.79 3.45.99 4.11-.39 1.59c1.31-.43 2.62-.83 3.95-1.21l1.99.26c-2.08 2.01-4.64 3.39-7.39 4.26-.23 3.47-.08 7.02 1.32 10.26-2.33 3.39-4.22 7.07-6.71 10.35l-3.83-1.32c1.84-5.35 3.93-10.61 5.8-15.94z"/><path fill="#a8ac9c" d="M294.66 243.37c1.01 2.84.07 5.6-1.41 8.07l-.99-4.11 2.4-3.96z"/><path fill="#83837f" d="M238.66 260.19c1.17-5.08 2.66-10.18 5.98-14.32l1.94 3.33c-1.61 4.33-4.82 7.69-7.92 10.99z"/><path fill="#e7e3e4" d="M267.24 246.28h.45v.45h-.45v-.45z"/><path fill="#716e6d" d="M336.05 245.62c1.68 1.04 3.67 1.89 4.71 3.68 3.62 5.85 5.18 13.13 3.46 19.88l-2.26 3.23-2.44-.49-.09-3.07-.11-3.99c-.42-4.79.82-10.56-2.95-14.3-.07-1.65-.18-3.29-.32-4.94z"/><path fill="#cdcbd4" d="M296.2 251.06c-1.44-.88.16-3.03 1.42-1.97l-1.42 1.97z"/><path fill="#edeff3" d="M275.42 249.78l.17-.47-.17.47z"/><path fill="#bab7ba" d="M207.65 250.11c1.26-.85 3.2 1.66 1.19 1.82l-1.29-1.04.1-.78z"/><path fill="#a4a197" d="M263.58 249.21c2.43.97 4.75 2.21 6.98 3.58-1.45 2.4-2.59 5.13-4.82 6.93-2.35 1.47-5.11 2.04-7.73 2.83l-.35-2.57c2.46-3.3 4.2-7.05 5.92-10.77z"/><path fill="#747474" d="M309.44 254.94l2.95-4.94.32 4.61c-.95 1.19-2.03 2.32-2.65 3.73-.25 1.96-.07 3.94.02 5.91l2.41.3c-2.92 2.78-5.4 6-7.1 9.67l-2.6-1.16 1.14-8.23 1.85 5.34c1.95-2.4 2.72-5.38 2.65-8.45l-5.79.49.29-.74c2.48-2.79 4.35-6.05 5.19-9.7.4 1.06.86 2.11 1.32 3.17z"/><path fill="#5b5650" d="M232.05 254.05c1.09-1.47 2.56-2.58 3.93-3.77.35 3.28.41 6.58.3 9.87l-2.94.74 1.36 6.33c-1.6-2.07-3.43-3.96-5.24-5.85.92-2.42 1.34-5.04 2.59-7.32z"/><path fill="#434343" d="M336.37 250.56c3.77 3.74 2.53 9.51 2.95 14.3l-.32 1.63a163.33 163.33 0 0 1-3.86-.63l.92-10.86.31-4.44z"/><path fill="#6b6b6a" d="M298.8 252.08l1.6.21c2.15 2.57 2.43 5.96 2.53 9.18l-.29.74 5.79-.49c.07 3.07-.7 6.05-2.65 8.45l-1.85-5.34-3.84.42-.33 3.98c-.3-1.79-.51-3.59-.62-5.39.82-2.03-1.43-3.31-2.39-1.17l-4.02 3.93c-1.4-3.24-1.55-6.79-1.32-10.26 2.75-.87 5.31-2.25 7.39-4.26z"/><path fill="#5b5a57" d="M310.06 258.34c.62-1.41 1.7-2.54 2.65-3.73l.3 5.66.11 3.29c1.83-.57 4.02-.57 5.52-1.91.34-1.93.12-3.91.02-5.85l5.24 2.55 5.58-.61.94-.12 5.64-2.62-.92 10.86 3.86.63.32-1.63.11 3.99c-2.09.11-4.16.37-6.2.74l1.31 6.05-4.08-.8-5.24 5.87-1.81-5.73c-2.4-4.42-5.34-9.83-10.92-10.43l-2.41-.3c-.09-1.97-.27-3.95-.02-5.91m15.23 13.74l.01.83.72.41.71-.42v-.82l-.72-.41-.72.41z"/><path fill="#a7a5a6" d="M296.75 262.67c.96-2.14 3.21-.86 2.39 1.17l-2.39-1.17z"/><path fill="#4f4a44" d="M228.76 262.78l.7-1.41 5.24 5.85c2.16 4.58 5.36 8.8 10.05 11 3.44 1.75 7.22 2.68 10.63 4.49l.31 1.16c-1.68.99-3.47 1.8-5.2 2.71-4.62-.5-9.32-1.54-13.05-4.47-2.88-2.11-5.41-4.68-7.5-7.56l-1.18-11.77z"/><path fill="#aaada8" d="M245.23 261.73l3.83 2.52-3.61 2.43-1.85.19 1.63-5.14z"/><path fill="#d0cdcc" d="M269.29 262.26h.44v.45h-.45l.01-.45z"/><path fill="#808081" d="M226.81 272.43c-1.31-3.31-.58-7.13 1.95-9.65.31 3.93.73 7.85 1.18 11.77-1.06-.67-2.39-1.08-3.13-2.12z"/><path fill="#6e584b" d="M236.93 262.99l3.15 1.05.91 2.98 2.44 6.43c-1.15-.43-2.64-.45-3.36-1.59-1.8-2.62-2.36-5.84-3.14-8.87z"/><path fill="#272b2c" d="M292.73 266.6l4.02-3.93-2.97 8.11-1.86 3.85c-1.95 3.36-4.26 6.73-7.71 8.7-3.57 2.09-7.79 2.34-11.79 2.78l.56-3.01 2.73-.24c3.24-.01 6.36-1.2 8.48-3.71.62-.72 1.23-1.45 1.83-2.2 2.49-3.28 4.38-6.96 6.71-10.35z"/><path fill="#575857" d="M296.75 262.67l2.39 1.17c.11 1.8.32 3.6.62 5.39.05 1.86 1.25 3.34 3.03 3.83l2.6 1.16c3.87 2.62 7.89 5.04 12.26 6.77l1.27 4.46c-.34 3.52-.81 7.04-1.42 10.53-4.16 1.13-7.42 3.96-10.4 6.93-2.19 1.83-4.83 2.95-7.28 4.37-1.71.91-2.15 3-3.11 4.54-1.56 2.2-3.27 4.3-5.18 6.21-1.44 1.42-2.95 2.77-4.46 4.13.08-2.68.45-5.34 1-7.96 6-3.52 8.42-10.44 12.56-15.7l-2.92-3.53c1.08-1.22 2.21-2.38 3.4-3.48l6.35-3.87c-.55 3.86-3.47 6.68-5.44 9.86 2.59-1.03 5.47-1.96 7.11-4.39 1.84-2.19 1.44-5.24 1.09-7.86-.48-2.61-.95-5.58-3.14-7.36-3.92-3.21-8.66-5.17-13.3-7.09 1.14-2.65 2.08-5.37 2.97-8.11z"/><path fill="#d39d7e" d="M312.49 264.55c5.58.6 8.52 6.01 10.92 10.43-.47 1.64-.87 3.32-1.59 4.88-1.36.47-2.78.78-4.17 1.13-4.37-1.73-8.39-4.15-12.26-6.77 1.7-3.67 4.18-6.89 7.1-9.67z"/><path fill="#5d5f5f" d="M249.06 264.25c.84 1.46 1.22 3.12 1.51 4.77l-2.72 3.42-3.02-1.36.62-4.4 3.61-2.43z"/><path fill="#939397" d="M300.09 265.25l3.84-.42-1.14 8.23c-1.78-.49-2.98-1.97-3.03-3.83l.33-3.98z"/><path d="M333.23 269.59c2.04-.37 4.11-.63 6.2-.74l.09 3.07 2.44.49 2.26-3.23c-.65 2.17-1.07 4.61-2.7 6.3-3.3 1.63-7.19 1.78-10.31 3.84-2.5 1.6-5.17 2.9-7.96 3.89l1.97-2.5c1.62-2.06 3.43-3.97 5.24-5.87l4.08.8-1.31-6.05zm-14.31 15.86l.72-.41c-.33 4.28-.31 8.59-.82 12.86-.07 1.31-.69 2.5-1.61 3.42-2.41 2.57-5.27 4.67-7.81 7.11l-2.3-5.52c2.98-2.97 6.24-5.8 10.4-6.93.61-3.49 1.08-7.01 1.42-10.53z" fill="#474847"/><path fill="#414140" d="M291.92 274.63l1.86-3.85c4.64 1.92 9.38 3.88 13.3 7.09 2.19 1.78 2.66 4.75 3.14 7.36.35 2.62.75 5.67-1.09 7.86-1.64 2.43-4.52 3.36-7.11 4.39 1.97-3.18 4.89-6 5.44-9.86-1.31-3.56-2.78-7.7-6.46-9.42-2.83-.16-5.61.67-8.38 1.09l-.7-4.66z"/><path fill="#aeabaf" d="M325.29 272.08l.72-.41.72.41v.82l-.71.42-.72-.41-.01-.83z"/><path fill="#5e5f5d" d="M291.92 274.63l.7 4.66c2.77-.42 5.55-1.25 8.38-1.09 3.68 1.72 5.15 5.86 6.46 9.42-2.14 1.25-4.25 2.56-6.35 3.87-1.9.55-3.84.97-5.76 1.41l-1.47-1.5c1.86-2.09 3.76-4.17 5.43-6.43-2.33 1.3-4.87 2.5-6.54 4.67-1.44 1.95-1.91 4.39-2.6 6.67l-1.66-.56c-1.27-1.22-2.47-2.52-3.66-3.81l7.87-4c-1.85-1.29-3.81-3.57-6.32-2.61-1.38.76-2.6 1.78-3.84 2.75l-4.03-.57c-1.87 4.35-3.83 8.66-5.94 12.9 3.1 1.54 6.46 2.49 9.93 2.62-1.66 2.38-2.63 5.14-3.49 7.89l-3.29.77-4.37.88-1.02 3.36-2.5-.36c.01-1.31-.01-2.61-.05-3.91-1.38.53-2.9.79-4.1 1.69-.53 2.43-.44 4.94-.48 7.41-2.66-1.1-5.21-2.45-7.8-3.71.2-.5.41-.99.62-1.48l4.02 1.02c.51-1.58.94-3.18 1.33-4.78l-2.33-2.7c8.49-5.02 14.53-13.4 17.53-22.71-5.42 3.76-8.59 9.68-12.56 14.78-3.19.9-6.46 1.75-9.37 3.42-2.4 1.36-3.98 3.69-5.79 5.7l-1.22.47c-1.63-.76-3.2-1.62-4.76-2.51 1.57-1.01 3.13-2.04 4.56-3.25-3.32-2.55-7.83-2.32-11.62-3.82 7.98.47 15.79-2.45 22.07-7.25 2.88-2.29 4.74-6.18 8.71-6.76l-1.25-3.22c2.53-.34 5.07-.64 7.62-.86l-.56 3.01c4-.44 8.22-.69 11.79-2.78 3.45-1.97 5.76-5.34 7.71-8.7z"/><path fill="#ac7b60" d="M323.41 274.98l1.81 5.73-1.97 2.5-3.61 1.83-.72.41-1.27-4.46 4.17-1.13c.72-1.56 1.12-3.24 1.59-4.88z"/><path fill="#424444" d="M226.19 276.64l4.23 1.96c1.1 1.21 1.97 2.62 2.88 3.97l-5.67-1.18-1.44-4.75z"/><path fill="#4f5050" d="M275.71 282.86l5.1-5.62 3.38 1.91c-2.12 2.51-5.24 3.7-8.48 3.71z"/><path fill="#8b8b8a" d="M233.92 285.87l3.52-3.76c3.73 2.93 8.43 3.97 13.05 4.47l-.91 1.49c-5.31.5-10.66-.43-15.66-2.2z"/><path fill="#83847c" d="M282.56 288.08c1.24-.97 2.46-1.99 3.84-2.75 2.51-.96 4.47 1.32 6.32 2.61l-7.87 4 3.66 3.81c-2.16 2.29-4.16 4.72-5.99 7.28-3.47-.13-6.83-1.08-9.93-2.62 2.11-4.24 4.07-8.55 5.94-12.9l4.03.57z"/><path fill="#7c7c7d" d="M292.77 289.64c1.67-2.17 4.21-3.37 6.54-4.67-1.67 2.26-3.57 4.34-5.43 6.43-1.7 4.21-1.69 8.88-3.36 13.11l-3.96.99c1.46-2.66 2.62-5.48 3.38-8.42l.23-.77c.69-2.28 1.16-4.72 2.6-6.67z"/><path fill="#8d8981" d="M264.03 301.18c3.97-5.1 7.14-11.02 12.56-14.78-3 9.31-9.04 17.69-17.53 22.71-2.44 1.02-5.09.83-7.62.33 3.95-3.16 9.45-4.11 12.59-8.26z"/><path fill="#737475" d="M290.52 304.51c1.67-4.23 1.66-8.9 3.36-13.11.36.38 1.1 1.13 1.47 1.5 1.92-.44 3.86-.86 5.76-1.41-1.19 1.1-2.32 2.26-3.4 3.48-1.02 2.71-1.74 5.53-2.49 8.33l-4.7 1.21z"/><path fill="#636465" d="M295.22 303.3l2.49-8.33 2.92 3.53c-4.14 5.26-6.56 12.18-12.56 15.7l.38-1.9-4.52-2.33-1.89-1.01c2.24-4.21 5.44-7.8 7.9-11.88-.76 2.94-1.92 5.76-3.38 8.42l3.96-.99 4.7-1.21z"/><path fill="#4f4f49" d="M288.51 295.75l1.66.56-.23.77c-2.46 4.08-5.66 7.67-7.9 11.88-.7 1.42-1.33 2.87-1.88 4.35l-1.13-2.39c.86-2.75 1.83-5.51 3.49-7.89 1.83-2.56 3.83-4.99 5.99-7.28z"/><path fill="#706f69" d="M254.66 304.6c2.91-1.67 6.18-2.52 9.37-3.42-3.14 4.15-8.64 5.1-12.59 8.26 2.53.5 5.18.69 7.62-.33l2.33 2.7c-.39 1.6-.82 3.2-1.33 4.78l-4.02-1.02-.62 1.48c2.59 1.26 5.14 2.61 7.8 3.71l3.34.47c.46-1.89.93-3.76 1.29-5.66l2.5.36 1.17 2.83c-.93.76-1.85 1.53-2.72 2.35l.28 1.18.47 1.74-7.05 1.83.99 2.94-6.11-.76.06 1.85.22 5.49c-4.26-1.74-9.01-4.57-9.64-9.6-.27-5.18 1.67-10.28.85-15.48 1.81-2.01 3.39-4.34 5.79-5.7z"/><path fill="#3c3d3c" d="M299.82 307.28c2.45-1.42 5.09-2.54 7.28-4.37l2.3 5.52-6.57 6.53-3.79-4.94-2.33 1.8c.96-1.54 1.4-3.63 3.11-4.54z"/><path fill="#7f7f7e" d="M282.04 308.96l1.89 1.01c-.81 4.26-1.65 8.53-1.91 12.87-.03 2.88.17 5.75.37 8.63-1.44.73-2.86 1.51-4.27 2.3 1.69 4.51 2.56 9.6 1.04 14.28-.7 2.61-3.22 3.95-5.26 5.42-1.69-.16-3.37-.27-5.06-.31 1.79-.42 3.55-.94 5.27-1.59.9-.77 1.78-1.56 2.63-2.39 1.9-3.93 2.59-9.44-1.43-12.32-1.92-1.37-1.31-3.85-1.29-5.85.38-.02 1.14-.04 1.51-.05l.31-.72c-.14-.33-.41-1-.54-1.34l-.23-.6c1.34-1.37 3.16-2.4 4.06-4.13.39-2.27.12-4.58.16-6.86.21-1.35.51-2.68.87-4 .55-1.48 1.18-2.93 1.88-4.35z"/><path fill="#707172" d="M283.93 309.97l4.52 2.33-.38 1.9c-.55 2.62-.92 5.28-1 7.96l.11 4.15-1.94.01-.84-4.4-2.38.92c.26-4.34 1.1-8.61 1.91-12.87z"/><path fill="#272826" d="M296.71 311.82l2.33-1.8 3.79 4.94c-3.21 3.09-6.41 6.18-9.47 9.42l-.6-.42c-.55-1.95-.9-3.94-1.23-5.93 1.91-1.91 3.62-4.01 5.18-6.21z"/><path fill="#474949" d="M247.65 310.77l1.22-.47c.82 5.2-1.12 10.3-.85 15.48.63 5.03 5.38 7.86 9.64 9.6 2.17-.02 4.34-.13 6.51-.31 1.68-.16 3.37-.36 5.06-.56.02 1.58.49 3.25-.01 4.79-1.63 2.74-5.12 4.02-8.19 3.71-3.53-.46-6.91-1.63-10.38-2.36-1.2-5.14-4.89-9.79-4.03-15.3.7-4.83 1.78-9.68 1.03-14.58z"/><path fill="#2c2f32" d="M279.03 310.92l1.13 2.39c-.36 1.32-.66 2.65-.87 4l-4.15.36.6-5.98 3.29-.77z"/><path fill="#454543" d="M263.7 313.35c1.2-.9 2.72-1.16 4.1-1.69l.05 3.91-1.29 5.66-3.34-.47c.04-2.47-.05-4.98.48-7.41z"/><path fill="#454645" d="M271.37 312.57l4.37-.88-.6 5.98 4.15-.36c-.04 2.28.23 4.59-.16 6.86-.9 1.73-2.72 2.76-4.06 4.13l-.46-1.32 1.6-1.96 2.09-2.3-1.91-2.72-3.87 1.74-3.44.55-.28-1.18 2.72-2.35-1.17-2.83 1.02-3.36z"/><path fill="#494949" d="M287.07 322.16l4.46-4.13 1.23 5.93-2.94 2.99-2.5 2.22-.14-2.86-.11-4.15z"/><path fill="#828286" d="M272.52 321.74l3.87-1.74 1.91 2.72-2.09 2.3-3.69-3.28z"/><path fill="#5f5d5a" d="M269.08 322.29l3.44-.55 3.69 3.28-1.6 1.96.46 1.32.23.6-1.24 1.27-.04.84c-.02 2-.63 4.48 1.29 5.85-1.45 2.55-2.94 5.32-5.67 6.71-4.52 2.76-9.99 2.19-15.04 2.21 1.64.98 3.09 2.87 5.19 2.62 3.92-.39 7.7-1.73 11.66-1.83l-3.86 2.98c-3.1.34-6.24.88-9.35.45-2.55-.74-4.38-2.83-6.37-4.46l-.34 2.59c-.41-2.48-.58-4.99-.88-7.48 3.47.73 6.85 1.9 10.38 2.36 3.07.31 6.56-.97 8.19-3.71.5-1.54.03-3.21.01-4.79l-5.06.56 1.05-4.64-7.78-.54-.06-1.85 6.11.76-.99-2.94 7.05-1.83-.47-1.74z"/><path fill="#5a5b5c" d="M282.02 322.84l2.38-.92.84 4.4 1.94-.01.14 2.86-4.93 2.3-.37-8.63z"/><path opacity=".1" d="M289.82 326.95l2.94-2.99.6.42c2.77 1.84 5.93 3.13 9.29 3.2 8.28.32 16.24 2.77 24.3 4.43 9.2 2.23 18.76 2.62 27.87 5.28 3.98 1.2 8.14 1.54 12.28 1.45 3.73-.18 6.99 2.01 10.64 2.38 2.38.25 4.78.48 7.13 1.02l1.51-3.44c2.22 2.93 4.3 5.96 6.28 9.06l3.46-2.46c2.56 1.1 4.99 2.54 7.11 4.36-3.05 1.18-6.07 2.48-9.27 3.23-2.7.64-5.33-.72-8.02-.77-3.95.4-7.46 2.96-11.51 2.72-5.03-.26-10.03.38-15.03.74-3.86.24-7.67 1.24-11.55.88-4-.33-7.91-1.59-11.96-1.35-5.73.29-11.49-.07-17.2.56-7.21.77-14.46.37-21.69.4-5.33 0-10.66.13-15.98-.29l1.46-1.05c3.97-1.01 7.89-2.26 11.89-3.17 1.34.06 2.78.61 4.06-.07 3.54-1.68 6.85-3.81 10.06-6.05 4.99-2.87 4.67-11.94-1.01-13.88-2.35-.92-4.85-1.36-7.29-1.93-3.48-.79-6.93-1.75-10.37-2.68z"/><path fill="#323334" d="M287.32 329.17l2.5-2.22c3.44.93 6.89 1.89 10.37 2.68l1.58 3.38c-2.27.13-4.54.27-6.79.56l-6.26 1.13c-3.56.28-7.11-.27-10.6-.93 1.41-.79 2.83-1.57 4.27-2.3 1.63-.8 3.3-1.51 4.93-2.3z"/><path fill="#a5a0a1" d="M274.06 330.17l1.24-1.27.54 1.34-.31.72-1.51.05.04-.84z"/><path fill="#84837b" d="M257.66 335.38l-.22-5.49 7.78.54-1.05 4.64-6.51.31z"/><path opacity=".16" d="M300.19 329.63c2.44.57 4.94 1.01 7.29 1.93 5.68 1.94 6 11.01 1.01 13.88-3.21 2.24-6.52 4.37-10.06 6.05-1.28.68-2.72.13-4.06.07 3.37-2.72 6.72-5.71 8.51-9.76 1.15-2.03.89-4.57-.13-6.59l-.98-2.2-1.58-3.38z"/><path fill="#50504e" d="M294.98 333.57l6.79-.56.98 2.2c-1 2.09-.99 4.54.13 6.59-1.79 4.05-5.14 7.04-8.51 9.76-4 .91-7.92 2.16-11.89 3.17-2.86-.47-5.7-1-8.58-1.26 2.04-1.47 4.56-2.81 5.26-5.42 1.52-4.68.65-9.77-1.04-14.28 3.49.66 7.04 1.21 10.6.93.94 2.42 1.28 5 1.01 7.57l-3.18-3.88-2.78 1.21a34.5 34.5 0 0 1 2.9 3.97l.01 2.57c2.41.33 5.14 1.47 7.35-.09 2.1-1.34 4.09-3.11 5.19-5.39.41-3.04-2.45-5.06-4.24-7.09z"/><path fill="#6c6867" d="M288.72 334.7l6.26-1.13c1.79 2.03 4.65 4.05 4.24 7.09-1.1 2.28-3.09 4.05-5.19 5.39-2.21 1.56-4.94.42-7.35.09l-.01-2.57a34.5 34.5 0 0 0-2.9-3.97l2.78-1.21 3.18 3.88c.27-2.57-.07-5.15-1.01-7.57m3.43 2.02l1 4.2 2.34.32.5-1.83 1.5-.85c-.77-.74-1.5-1.53-2.37-2.13-1-.02-1.99.16-2.97.29z"/><path fill="#6c6968" opacity=".96" d="M302.88 341.8c-1.12-2.05-1.13-4.5-.13-6.59 1.02 2.02 1.28 4.56.13 6.59z"/><path fill="#87868a" d="M292.15 336.72c.98-.13 1.97-.31 2.97-.29.87.6 1.6 1.39 2.37 2.13l-1.5.85-.5 1.83-2.34-.32-1-4.2z"/><path fill="#474644" d="M275.31 336.86c4.02 2.88 3.33 8.39 1.43 12.32-1.75-.91-3.49-1.82-5.29-2.61-3.96.1-7.74 1.44-11.66 1.83-2.1.25-3.55-1.64-5.19-2.62 5.05-.02 10.52.55 15.04-2.21 2.73-1.39 4.22-4.16 5.67-6.71z"/><path fill="#484541" d="M251.87 345.54c1.99 1.63 3.82 3.72 6.37 4.46 3.11.43 6.25-.11 9.35-.45l6.52 2.02c-1.72.65-3.48 1.17-5.27 1.59-3.64.08-7.27.03-10.9-.07-2.21-1.56-4.38-3.18-6.41-4.96l.34-2.59z"/><path fill="#313331" d="M267.59 349.55l3.86-2.98 5.29 2.61-2.63 2.39-6.52-2.02z"/></svg>