<svg xmlns="http://www.w3.org/2000/svg" width="682.667" height="682.667" viewBox="0 0 512 512"  xmlns:v="https://vecta.io/nano"><path fill="#767a7d" d="M325.79 85.79l2.19-.94-.85 4.18c1.94-.28 3.87-.63 5.76-1.19-.65 6.29-2.42 12.36-3.64 18.54-1.51 6.53-2.4 13.18-3.96 19.69-1.7 5.39-2.38 11.02-3.71 16.5-.8 3.37-1.47 6.79-1.75 10.25-.87.42-1.76.8-2.66 1.15 2.69-7.25 3.58-14.96 5.44-22.42.41-1.82.88-3.64.98-5.51-.73-1.79-2.72-.94-4.15-.86-1.15 3.01-.29 7.12-3.43 9.01l-.2-3c-.39-6.09 1.3-12.03 2.52-17.93.81-3.23 1.13-6.58 2.11-9.77.89-1.49 2.43-2.67 2.6-4.5.88-4.41 1.32-8.92 2.75-13.2m3.44 4.61c-2.8 1.28-1.46 4.56-1.84 6.91l-1.79 1.16c-1.14 2.75-.86 5.81-1.65 8.65-1.73 5.49-3 11.12-3.89 16.8 1.23.11 2.47.09 3.71-.05 2.1-8.49 3.85-17.07 5.59-25.64.64-2.64 1.45-5.28 1.4-8.02l-1.53.19z"/><path fill="#33343c" d="M327.98 84.85c2.5-.28 5.16-.38 7.52.64 1.9 1.46 3.09 3.62 4.24 5.68l-2.55-1.77c-.62-.94-1.22-1.89-2-2.71l-2.3 1.15c-1.89.56-3.82.91-5.76 1.19l.85-4.18z"/><path fill="#9da492" d="M332.89 87.84l2.3-1.15c.78.82 1.38 1.77 2 2.71-.12 1.34-.72 2.79-.15 4.1.79.75 1.91 1.17 2.54 2.09-.01 2.97-1.72 5.75-1.35 8.76l2.53 1.2.43 2.51-1.55-2-3.44 3.84-.53-.53c1.46-4.33 1.84-9.24-.3-13.41-.35 3.68-.85 7.34-1.78 10.92l-.64 2.85c-.33 1.23-.63 2.47-.89 3.72-.15 1.34-.18 2.69-.29 4.04-.64 1.28-2.34.65-3.46 1.02-.51 2.64-1.25 5.21-2.06 7.76l-.96-.2c1.56-6.51 2.45-13.16 3.96-19.69 1.22-6.18 2.99-12.25 3.64-18.54z"/><path fill="#a3a4af" d="M329.23 90.4l1.53-.19c.05 2.74-.76 5.38-1.4 8.02l-5.59 25.64c-1.24.14-2.48.16-3.71.05.89-5.68 2.16-11.31 3.89-16.8.79-2.84.51-5.9 1.65-8.65l1.79-1.16c.38-2.35-.96-5.63 1.84-6.91z"/><path fill="#6f716e" d="M337.04 93.5c-.57-1.31.03-2.76.15-4.1l2.55 1.77c1.85 4.49.86 9.58 2 14.26.19.99.6 1.87 1.24 2.64 1.4-.73 2.77-1.51 4.09-2.39.24 1.08.5 2.17.79 3.25l-3.74-.18c-2.06 1.68-1.72 4.53-2.1 6.88-.53 1.23-1.09 2.45-1.67 3.65l-.49-.75a73.9 73.9 0 0 1 .15-6.49c.52-1.28 1.24-2.56 1.18-3.98l-.43-2.51-2.53-1.2c-.37-3.01 1.34-5.79 1.35-8.76-.63-.92-1.75-1.34-2.54-2.09z"/><path fill="#757772" d="M335.37 95.96c2.14 4.17 1.76 9.08.3 13.41a12.74 12.74 0 0 1-2.08-2.49c.93-3.58 1.43-7.24 1.78-10.92z"/><path fill="#2b2a2b" opacity=".6" d="M341.74 105.43c1.77-.02 3.56.04 5.33.25-1.32.88-2.69 1.66-4.09 2.39-.64-.77-1.05-1.65-1.24-2.64z"/><path fill="#81847e" d="M336.2 109.9l3.44-3.84 1.55 2c.06 1.42-.66 2.7-1.18 3.98l-1.48.33a49.01 49.01 0 0 0-1.31 8.07l1.98.39-1.24 1.24-2.8.27c-.63 1.53-.56 3.19-.6 4.81-.64 1.71-1.55 3.29-2.43 4.88.65-2.92 1.26-5.95.83-8.95l-.8-.56-1.44 1.17c-1.8 4.37-.97 9.51-3.65 13.6l-1.03-1.5c.7-3.13 1.14-6.38.21-9.52.81-2.55 1.55-5.12 2.06-7.76 1.12-.37 2.82.26 3.46-1.02.11-1.35.14-2.7.29-4.04 1.09.14 2.28.35 3.04-.68.35-1.64-.32-3.07-2.15-3.04l.64-2.85a12.74 12.74 0 0 0 2.08 2.49l.53.53z"/><path d="M287.32 108.26c1.75-.43 2.05 1.61 2.86 2.67l.26 5.94c1.45-.1 2.6-.88 3.58-1.91 2.17-1.15 4.97-1.55 6.38-3.77 2.79-.18 6.42-1.76 8.59.76.7 3.33 1.26 6.7 1.62 10.09.09 3.97-.42 7.92-.53 11.89-.79.88-1.7 1.63-2.58 2.41l-.12-2.84.43-7.34-4.14 2.04c-.01-1.43.64-2.72 1.52-3.81 2.19-1.35 3.54-3.55 3.53-6.15-1.19-.55-2.5-.58-3.77-.68l-.25-1.26c-3.09.42-3.71 4.21-6.69 4.84l-3.8-.29c-1.36-.03-2.72.04-4.07.2-.19 1.25-.35 2.5-.5 3.76-.4 3.89-.84 7.9-2.77 11.39-2.14-.14-4.35.11-6.43-.5-1.33-.81-2.47-1.88-3.65-2.88 1.05-1.39 2.23-2.67 3.18-4.12.38-2.2.24-4.46.85-6.61a73.73 73.73 0 0 0 .03 3.64l2.23 1.38c1.53-2.12.35-4.33-.96-6.19 1.52-1.4 3.25-2.93 3.38-5.15.65-2.48.17-5.4 1.82-7.51m16.14 4.04c.66 1.22 3.15 1.43 4.49 1.05.14-1.92-3.31-2.03-4.49-1.05m-7.2 5.94c-1.21 1.54 1.59 2.82 2.55 1.5 1.2-1.54-1.6-2.83-2.55-1.5zm-46.41 86.55c1.9-.74 3.66-1.8 5.43-2.8l1.39-.17 2.31 4.67c.4.96 1.48 2.57 2.65 1.45l2.74-1.73c.73 2.52-1.01 4.72-1.96 6.91 1.18.3 2.36.67 3.58.8 1.4-.36 2.06-1.89 2.98-2.89l-2.17 6.06c2.05 2.43 5.38 2.74 8.3 2.11l1 2.18c-3.67 1.33-7.87-.82-11.33 1.36-4.05 3.13-5.98 8.27-5.93 13.3l-.86 1.91c-1.39.66-4.26.55-3.81 2.79.76 1.4 2.58 1.8 3.81 2.73.01.99-.01 1.99-.07 2.99l-4.82.34 3.09 3.38c-.74 1.75-2.81 1.47-4.27 2.12-2.56 2.45-3.84 6.06-6.98 7.96l-2.68-.45c.28-1.28.84-2.46 1.33-3.66l3.24-.93c1.87-3.7 2.58-7.87 3.36-11.91.27-1.47-.2-2.88-.86-4.17-1.4 1-2.41 2.79-4.16 3.14-1.5-1.86-3.1-3.63-4.54-5.53 2.52-.77 5.07-1.42 7.63-2.06 1.11.52 2.3.86 3.49 1.21.76-1.96 1.32-4.01 2.31-5.87 2.78-2.64 6.44-4.28 8.74-7.45-1.87-.34-3.74-.7-5.51-1.37-1.06-.52-2-1.5-3.25-1.42-5.74-.04-11.66 1.49-17.25-.45l4.31-1.3c3.33-.34 6.68-.19 10.03-.07 2.61.08 5.24.02 7.85-.22-.32-1.69-.88-3.34-2.03-4.64-1.92-2.33-3.34-5-4.52-7.77l-2.57-.55z" fill="#595a58"/><path fill="#828286" d="M342.02 115.63c.38-2.35.04-5.2 2.1-6.88l3.74.18 1.52 1.85c-1.82 2.3-3.88 4.75-3.95 7.84-.33 2.01.96 3.73 1.77 5.44l-3.93 2.41c-.61 1.84.4 3.38 1.63 4.67l-2.63 1.3c-.71 6.29-3.13 12.65-8.36 16.55 1.27-3.63 4.37-6.36 5.21-10.17.58-3.17.14-6.4.18-9.59l.67-.55a77.02 77.02 0 0 0 .34 4.3c1.73-1.2 1.45-3.75 1.64-5.62l-2.02-.37c-.5-2.26-.48-4.58-.14-6.86a85.58 85.58 0 0 1 .07-1.6l.49.75c.95.87 1.93 2.08 3.37 1.44.68-1.32.93-2.79 1.06-4.25l-2.76-.84m1.3-3.5c-.99 1.38 1.48 2.61 2.39 1.47 1-1.39-1.49-2.64-2.39-1.47z"/><path fill="#686a68" d="M332.95 109.73c1.83-.03 2.5 1.4 2.15 3.04-.76 1.03-1.95.82-3.04.68l.89-3.72z"/><path fill="#040403" opacity=".18" d="M290.18 110.93l3.32 2.4.52 1.63c-.98 1.03-2.13 1.81-3.58 1.91l-.26-5.94z"/><path fill="#696a6a" opacity=".88" d="M293.5 113.33c1.57-2.45 4.31-2.47 6.9-2.14-1.41 2.22-4.21 2.62-6.38 3.77l-.52-1.63z"/><path fill="#6a6a70" d="M349.38 110.78l.67.54c.28 3.52-.3 7.03-1.35 10.37l-1.5 2.37c-.81-1.71-2.1-3.43-1.77-5.44.07-3.09 2.13-5.54 3.95-7.84z"/><path fill="#1d1d1f" opacity=".45" d="M350.05 111.32l.61.49c.43 3.65-.37 7.32-.91 10.92l-1.05-1.04c1.05-3.34 1.63-6.85 1.35-10.37z"/><path fill="#77797a" d="M303.46 112.3c1.18-.98 4.63-.87 4.49 1.05-1.34.38-3.83.17-4.49-1.05z"/><path fill="#908f99" d="M338.53 112.37l1.48-.33-.15 6.49-.07 1.6-.59.7-1.98-.39a49.01 49.01 0 0 1 1.31-8.07z"/><path fill="#a1a0a6" d="M343.32 112.13c.9-1.17 3.39.08 2.39 1.47-.91 1.14-3.38-.09-2.39-1.47z"/><path fill="#393938" d="M298.01 121.14c2.98-.63 3.6-4.42 6.69-4.84l.25 1.26c-.61 2.28-.54 4.6.24 6.83-.88 1.09-1.53 2.38-1.52 3.81l.22 5.65 3.49-.35.12 2.84-.46.56-2.08-2.01-3.03.99-.73.05c-.37-5.04-1.03-10.16-3.19-14.79z"/><path fill="#f1eff7" d="M340.35 119.28l1.67-3.65 2.76.84c-.13 1.46-.38 2.93-1.06 4.25-1.44.64-2.42-.57-3.37-1.44z"/><path fill="#8a8b8d" d="M304.95 117.56c1.27.1 2.58.13 3.77.68.01 2.6-1.34 4.8-3.53 6.15-.78-2.23-.85-4.55-.24-6.83z"/><path fill="#777778" d="M296.26 118.24c.95-1.33 3.75-.04 2.55 1.5-.96 1.32-3.76.04-2.55-1.5z"/><path fill="#3d3d3e" opacity=".79" d="M339.79 120.13c-.34 2.28-.36 4.6.14 6.86l.04 1.69-.67.55c-1.57 1.54-2.81 3.38-4.23 5.05l-2.1 7.72c.38-2.92.49-5.89 1.34-8.72.87-1.77 2.39-3.19 2.86-5.15l.79-6.06 1.24-1.24.59-.7z"/><path fill="#727372" opacity=".98" d="M280.82 122.09l1.3-1.17c1.31 1.86 2.49 4.07.96 6.19l-2.23-1.38-.03-3.64z"/><path fill="#2e2f31" d="M290.14 121.05c1.35-.16 2.71-.23 4.07-.2l.55 2.61-5.12 1.35.5-3.76z"/><path fill="#4b4b4b" d="M294.21 120.85l3.8.29c2.16 4.63 2.82 9.75 3.19 14.79-1.67 1.2-3.2 2.58-4.9 3.73l-3.43-1.92c.51-1.83 1.56-3.47 1.85-5.35l-2.54-1.07c-1.22 1.03-2.36 2.18-3.02 3.66.93 1.75 1.92 3.46 2.95 5.16l-1.8.68c-1.89-.86-3.73-2.65-5.96-1.83-1.54 1.16-.07 2.99.08 4.47l-3.16-1.7-.77-.57c.82-1.07 1.32-2.78 2.88-2.97 1.84-.27 3.7-.29 5.56-.33-.72-.53-1.41-1.09-2.07-1.69 1.93-3.49 2.37-7.5 2.77-11.39l5.12-1.35-.55-2.61z"/><path fill="#97969a" d="M335.16 122.34l2.8-.27-.79 6.06-2.61-.98c.04-1.62-.03-3.28.6-4.81z"/><path fill="#acb39f" d="M330.72 123.69l1.44-1.17.8.56c.43 3-.18 6.03-.83 8.95-1.1 2.25-1.49 4.73-2.02 7.15l-1.99 1.64-1.05-3.53c2.68-4.09 1.85-9.23 3.65-13.6z"/><path fill="#525357" opacity=".95" d="M343.27 126.47l3.93-2.41c-.6 2.41-1.07 4.89-2.3 7.08-1.23-1.29-2.24-2.83-1.63-4.67z"/><path fill="#9d9fab" d="M319.44 125.18c1.43-.08 3.42-.93 4.15.86-.1 1.87-.57 3.69-.98 5.51-1.86 7.46-2.75 15.17-5.44 22.42l-.67 2.18-.73-2.54a81.63 81.63 0 0 0-3.91-1.83c.75-6 2.72-11.74 4.15-17.59 3.14-1.89 2.28-6 3.43-9.01z"/><path fill="#838487" d="M303.67 128.2l4.14-2.04-.43 7.34-3.49.35-.22-5.65z"/><path fill="#abb39c" d="M325.29 126.07l.96.2c.93 3.14.49 6.39-.21 9.52-1.17 4.76-2.04 9.58-3.06 14.37-.54 2.4-.76 5.06-2.56 6.92a124.49 124.49 0 0 1-.59-4.26c.28-3.46.95-6.88 1.75-10.25 1.33-5.48 2.01-11.11 3.71-16.5z"/><path fill="#7a7e74" d="M332.13 132.03c.88-1.59 1.79-3.17 2.43-4.88l2.61.98c-.47 1.96-1.99 3.38-2.86 5.15-.85 2.83-.96 5.8-1.34 8.72-.88 4.07-2.7 8.48-.68 12.51-.91 2.53-2.32 4.85-3.31 7.35-1.31.82-2.59 1.68-3.86 2.56-.24-.29-.73-.85-.98-1.14 2.2-1.78 1.72-4.74 2.15-7.23.31-3.52 1.88-6.77 2.33-10.26.19-1.51-.2-3.87-2.19-3.66-.43 6.7-2.79 13.05-3.56 19.7-1.85 7.48-2.59 15.17-4.47 22.64-.16 1.22-1.04 2.9.27 3.8l2.23-2.42c-.45 5.34-2.11 10.42-3.72 15.49a110.4 110.4 0 0 0-3.83 2.54c-2.81-.82-5.71-1.4-8.65-1.3.47 1.5 1.49 2.67 2.63 3.72-.93.59-1.84 1.19-2.73 1.81l-1.68-.18c.72-1.88 1.18-3.85 1.22-5.86l-1.99.16c-.26 1.88-.21 3.78-.17 5.68l-.87.01c.1-2.92.32-5.84.8-8.72 1.2.66 2.16-.06 2.33-1.32l.55 1.18c2.29.29 4.59-.17 6.84-.61-.03-1.12-.05-2.24-.13-3.35 1.12-.7 2.67-1.1 3.06-2.54.28-2.47-.36-4.94-.82-7.34.86-1.45 2.01-2.79 2.48-4.43.06-2.95-.63-5.84-.87-8.77.4-1.99.85-3.97 1.5-5.88l.73-.24 1.49 2.57c1.39-3.4 2.04-7.1 1.07-10.71l.28-.68c1.8-1.86 2.02-4.52 2.56-6.92 1.02-4.79 1.89-9.61 3.06-14.37l1.03 1.5 1.05 3.53 1.99-1.64c.53-2.42.92-4.9 2.02-7.15z"/><path fill="#939399" d="M339.93 126.99l2.02.37c-.19 1.87.09 4.42-1.64 5.62l-.34-4.3-.04-1.69z"/><path opacity=".76" d="M310.08 133.93c1.28-1.98 2.72-3.89 4.86-5.01l.87 2.27.2 3c-1.43 5.85-3.4 11.59-4.15 17.59l-3.78.21c-2.06 3.32-2.33 7.28-2.37 11.08-1.5.1-2.99.17-4.47.32-2.69-2.74-.08-6.51.39-9.64.82-4.75 3.19-9.7 1.68-14.51 1.39-.53 2.95-.95 3.73-2.34l.46-.56c.88-.78 1.79-1.53 2.58-2.41z"/><path fill="#39393b" d="M292.18 131.32l2.54 1.07c-.29 1.88-1.34 3.52-1.85 5.35l3.43 1.92c-2.29 1.33-4.73 2.36-7.1 3.54-3.75 1.99-6.38 5.49-8.4 9.13-.63.75-1.35 1.39-2.22.53 1.36-3.51 5.18-5.66 5.85-9.4-.15-1.48-1.62-3.31-.08-4.47 2.23-.82 4.07.97 5.96 1.83l1.8-.68c-1.03-1.7-2.02-3.41-2.95-5.16.66-1.48 1.8-2.63 3.02-3.66z"/><path fill="#888a88" d="M274.89 135.75l1.9-2.93c1.18 1 2.32 2.07 3.65 2.88 2.08.61 4.29.36 6.43.5.66.6 1.35 1.16 2.07 1.69l-5.56.33c-1.56.19-2.06 1.9-2.88 2.97-2.05-1.62-3.86-3.51-5.61-5.44z"/><path fill="#7f7f80" d="M301.93 135.88l3.03-.99 2.08 2.01c-.78 1.39-2.34 1.81-3.73 2.34l-1.38-3.36z"/><path fill="#efbd9e" d="M252.98 157.02c7.82-6.53 15.31-13.5 21.91-21.27 1.75 1.93 3.56 3.82 5.61 5.44l.77.57c-.25 5.38-6.69 6.41-8.55 10.93-2.44 5.01-6.63 8.79-9.63 13.43-1.16 1.92-3.3 2.77-5.18 3.8-3.37 1.65-6.12 4.5-9.87 5.33-1.64-1.07-3.4-2.17-4.37-3.92-.72-1.64-.73-3.46-.98-5.2 3.67-2.76 6.73-6.21 10.29-9.11z"/><path opacity=".04" d="M296.3 139.66c1.7-1.15 3.23-2.53 4.9-3.73l.73-.05 1.38 3.36c1.51 4.81-.86 9.76-1.68 14.51-.47 3.13-3.08 6.9-.39 9.64l-.55.59c-1.18-.28-1.91.16-2.19 1.32-.37 1.24-.54 2.51-.49 3.81.15 4.14-.07 8.38-1.65 12.27-1.35.69-2.99.98-4.05 2.13-.35 1.65-.55 3.33-.83 5l-5.25-.17c-.03 1.59-.04 3.21.52 4.73 1.81.83 4.39 1.02 5.14 3.2 1.33 2.28.11 4.82-.58 7.08-1.08 2.95-1.32 6.11-1.89 9.18l-2.44.82-1.02-5.2-.77-2.3c-2.36-2.06-5.43-.17-7.97.53-2.36-1.03-5.11-2.73-7.55-.88-2.44.86-1.75 4.08-3.57 5.39-.35-3.96-1.76-7.7-4.34-10.75-.06-2.13-.19-4.4 1.24-6.16 4.3-6.29 8.58-12.63 13.55-18.43 1.55-1.92 3.86-2.89 5.96-4.05 2.36-1.23 4.44-2.95 6.84-4.11.62.96 1.22 1.94 1.79 2.95 2.34-.9 3.88-3.28 4.82-5.51.8-4.73-.54-9.52-1.72-14.08-2.63-.64-5.36-1.03-8.07-.8-1.36.16-2 1.59-2.97 2.38h-2.4c2.02-3.64 4.65-7.14 8.4-9.13 2.37-1.18 4.81-2.21 7.1-3.54z"/><path fill="#d1a283" d="M281.27 141.76l3.16 1.7c-.67 3.74-4.49 5.89-5.85 9.4-1.42 2.7-3.3 5.11-5.15 7.53-2.53 3.31-4.17 7.17-6.44 10.66-1.57 2.45-3.4 4.73-4.88 7.24-2.19.91-4.47 1.82-6.89 1.58-2.37-1.58-4.74-3.17-7.18-4.62 3.75-.83 6.5-3.68 9.87-5.33 1.88-1.03 4.02-1.88 5.18-3.8 3-4.64 7.19-8.42 9.63-13.43 1.86-4.52 8.3-5.55 8.55-10.93z"/><path fill="#b1b6a2" d="M326.43 142.13c1.99-.21 2.38 2.15 2.19 3.66-.45 3.49-2.02 6.74-2.33 10.26-.43 2.49.05 5.45-2.15 7.23l-1.27-1.45c.77-6.65 3.13-13 3.56-19.7z"/><path opacity=".76" d="M283.2 152.33c.97-.79 1.61-2.22 2.97-2.38 2.71-.23 5.44.16 8.07.8 1.18 4.56 2.52 9.35 1.72 14.08-.94 2.23-2.48 4.61-4.82 5.51-.57-1.01-1.17-1.99-1.79-2.95-2.4 1.16-4.48 2.88-6.84 4.11-2.1 1.16-4.41 2.13-5.96 4.05-4.97 5.8-9.25 12.14-13.55 18.43-1.43 1.76-1.3 4.03-1.24 6.16l-.87-1.25c-.21-1.13-.39-2.27-.52-3.41.11-3-1.78-5.47-2.35-8.27 1.86-2.74 3.7-5.54 4.09-8.92 1.48-2.51 3.31-4.79 4.88-7.24 2.27-3.49 3.91-7.35 6.44-10.66 1.85-2.42 3.73-4.83 5.15-7.53.87.86 1.59.22 2.22-.53h2.4z"/><path fill="#5b5756" d="M305.71 163.07c.04-3.8.31-7.76 2.37-11.08-.17 2.26-.49 4.54-.09 6.79l1.81.54c1.95.44 3.96.57 5.96.58l.74-3.75.67-2.18c.9-.35 1.79-.73 2.66-1.15a124.49 124.49 0 0 0 .59 4.26l-.28.68c-1.23 2.59-1.95 5.36-2.56 8.14l-.73.24c-.58-1.42-.92-2.97-1.87-4.18-1.6-1.03-3.7-.96-5.5-.62-1.26.91-2.42 1.95-3.59 2.97-1.75-.01-3.48-.14-5.2-.33l.55-.59c1.48-.15 2.97-.22 4.47-.32z"/><path fill="#a8a9b7" d="M308.08 151.99l3.78-.21c.02 2.66.3 5.71-2.06 7.54l-1.81-.54c-.4-2.25-.08-4.53.09-6.79z"/><path fill="#c0bfcd" d="M311.86 151.78l3.91 1.83.73 2.54-.74 3.75c-2-.01-4.01-.14-5.96-.58 2.36-1.83 2.08-4.88 2.06-7.54z"/><path fill="#878d79" d="M317.58 165.9c.61-2.78 1.33-5.55 2.56-8.14.97 3.61.32 7.31-1.07 10.71l-1.49-2.57z"/><path fill="#89898d" d="M305.89 164.31l3.59-2.97c1.8-.34 3.9-.41 5.5.62.95 1.21 1.29 2.76 1.87 4.18-.65 1.91-1.1 3.89-1.5 5.88l-.38-3c-2.77.13-1.71 3.2-1.1 4.85l-6.86-.53a2.83 2.83 0 0 0 1.8 1.86c-.58 4.57-.13 9.22-1.18 13.75-2.73-1.13-2.26-4.6-2.68-6.98.44-3.36 2.33-7.23.44-10.38-2.13-.86-4.32-1.58-6.51-2.25 1.88-.26 4.36.36 5.74-1.27-1.19-2.33-3.88-2.36-6.12-2.77.28-1.16 1.01-1.6 2.19-1.32 1.72.19 3.45.32 5.2.33z"/><path fill="#a0a59b" d="M318.4 184.47c1.88-7.47 2.62-15.16 4.47-22.64l1.27 1.45.98 1.14c-1.36 7.15-3.31 14.19-4.22 21.43l-2.23 2.42c-1.31-.9-.43-2.58-.27-3.8z"/><path fill="#595956" d="M325.12 164.42l3.86-2.56c-.37 2.74-3.42 3.88-3.71 6.65-.72 3.04-1.77 6.15-1.45 9.31.46 4.57 5.48 5.92 8.09 9.05.14 6.55 4.28 12.45 3.43 19.11.07 1.66-1.62 2.05-2.81 2.59.53 2.14 1.35 4.26 1.34 6.51-2.88.98-5.85 1.7-8.88 2.03a61.87 61.87 0 0 1-3.61-.14l-2.57-.9c1.11-.71 1.34-1.57.7-2.56-1.52-.87-1.72 1.34-1.44 2.29l-1.97 5.43c.05-1.71.08-3.42-.11-5.12-.26-2.65-3.91-4.03-3.33-6.89.14-2.88 2.26-4.62 4.63-5.87l-.11-2.01c1.61-5.07 3.27-10.15 3.72-15.49.91-7.24 2.86-14.28 4.22-21.43m.1 19.65c.02 2.1.92 4.02 1.91 5.83 1.23-.28 2.43-.73 3.56-1.31.13-1.01-.2-2.07-1.37-2.14-1.77-.11-2.42-2.52-4.1-2.38m-1.05 15.3c-1.04 2.33 1.45 3.78 2.99 4.98l.79-1.2c-1.23-2.18-1.78-4.6-2.01-7.06-1.56.06-1.27 2.23-1.77 3.28m-.99 15.59c2.85-.18 8.1.39 8.07-3.73-2.78.82-6.44.99-8.07 3.73z"/><path fill="#63625e" d="M235.36 172.44c2.27-2.34 3.6-6.08 7.33-6.31.25 1.74.26 3.56.98 5.2.97 1.75 2.73 2.85 4.37 3.92l7.18 4.62c-2.98-.16-6-.34-8.93.36-3.99.93-8.12.51-12.17.98-1.46-.01-2.93-.12-4.39-.23.92-2.56 2.25-4.93 3.91-7.08-1.88.29-3.74.65-5.6 1.01 2.09-1.67 4.94-1.47 7.32-2.47m2.83-1.14v.45h.45l.01-.45h-.46z"/><path fill="#bebec9" d="M298.01 169.11c-.05-1.3.12-2.57.49-3.81 2.24.41 4.93.44 6.12 2.77-1.38 1.63-3.86 1.01-5.74 1.27l-.87-.23z"/><path opacity=".78" d="M298.01 169.11l.87.23 6.51 2.25c1.89 3.15 0 7.02-.44 10.38-.4 1.27-.86 2.53-1.2 3.83-.93 4.42-1.08 8.95-1.84 13.4-.48 2.88-.7 5.8-.8 8.72-1.25.97-2.49 2.19-4.19 2.13-1.95.23-5.18-.67-5.64 2.05l-.95 2.48c-1.32.35-2.38-.49-3.35-1.23l2.44-.82c.57-3.07.81-6.23 1.89-9.18.69-2.26 1.91-4.8.58-7.08-.75-2.18-3.33-2.37-5.14-3.2-.56-1.52-.55-3.14-.52-4.73l5.25.17c.28-1.67.48-3.35.83-5 1.06-1.15 2.7-1.44 4.05-2.13 1.58-3.89 1.8-8.13 1.65-12.27z"/><path fill="#aaada6" d="M313.87 173.87c-.61-1.65-1.67-4.72 1.1-4.85l.38 3c.24 2.93.93 5.82.87 8.77-.47 1.64-1.62 2.98-2.48 4.43l-1.08-1.52c.32-3.28 2.93-6.6 1.21-9.83z"/><path fill="#bdbcbe" d="M238.19 171.3h.46l-.01.45h-.45v-.45z"/><path fill="#747579" d="M307.01 173.34l6.86.53c1.72 3.23-.89 6.55-1.21 9.83-.68 2.92-.49 6.25-2.61 8.62l-.88-.3c-2.74-1.08-5.22-3.06-5.42-6.22l1.2-3.83c.42 2.38-.05 5.85 2.68 6.98l2.16.88c1.53-4.68 2.64-9.53 2.9-14.45l-3.88-.18a2.83 2.83 0 0 1-1.8-1.86z"/><path fill="#727272" opacity=".95" d="M228.04 174.91l5.6-1.01c-1.66 2.15-2.99 4.52-3.91 7.08l-4.89 4.09 1.15-5 2.54-.67.57-3.06-2.28 1.37 1.22-2.8z"/><path fill="#b3b2bc" d="M308.81 175.2l3.88.18c-.26 4.92-1.37 9.77-2.9 14.45l-2.16-.88c1.05-4.53.6-9.18 1.18-13.75z"/><path fill="#5c5e5e" opacity=".94" d="M226.82 177.71l2.28-1.37-.57 3.06-2.54.67.83-2.36z"/><path fill="#4b4644" d="M255.22 179.87c2.42.24 4.7-.67 6.89-1.58-.39 3.38-2.23 6.18-4.09 8.92.57 2.8 2.46 5.27 2.35 8.27l-4.18.8-.06 2.54 4.76.07.87 1.25c2.58 3.05 3.99 6.79 4.34 10.75 1.82-1.31 1.13-4.53 3.57-5.39 2.44-1.85 5.19-.15 7.55.88 2.54-.7 5.61-2.59 7.97-.53l.77 2.3c-1.89-.5-3.79-1.18-5.76-1.16-1.33.33-2.02 1.66-3 2.5-.81-.76-1.6-1.56-2.51-2.2-1.61-.44-3.3-.07-4.93.05l-.54 2.92-.25.77c-.92 1-1.58 2.53-2.98 2.89-1.22-.13-2.4-.5-3.58-.8.95-2.19 2.69-4.39 1.96-6.91-.9.59-1.82 1.17-2.74 1.73-1.17 1.12-2.25-.49-2.65-1.45 1.69-2.05 1.87-4.94-.04-6.92-1.13.37-1.89 1.12-2.27 2.25l-1.39.17-2.07-1.32c-1.47-2.74-2.96-5.61-5.53-7.48-4.26-.84-8.64.14-12.95.13-3.05-.13-5.12-2.33-6.13-5.06l1.03-.99c1.11 1.3 2.14 2.85 3.84 3.44 4.73 1.87 9.77.11 14.56-.53.5-3.25-2.13-5.78-4.68-7.29-3.57-1.23-7.33.23-10.58 1.73.49-1.13.92-2.27 1.35-3.41 4.05-.47 8.18-.05 12.17-.98 2.93-.7 5.95-.52 8.93-.36z"/><path fill="#515352" d="M224.84 185.07l4.89-4.09 4.39.23-1.35 3.41-3.14 2.65-1.03.99c1.01 2.73 3.08 4.93 6.13 5.06l.47.74-6.14.82-4.05-.95c-1.79.44-3.54 1.09-5.38 1.27.48-1.62 1.02-3.22 1.71-4.76l3.5-5.37z"/><path fill="#3d3d3c" d="M232.77 184.62c3.25-1.5 7.01-2.96 10.58-1.73 2.55 1.51 5.18 4.04 4.68 7.29-4.79.64-9.83 2.4-14.56.53-1.7-.59-2.73-2.14-3.84-3.44 1.02-.92 2.08-1.79 3.14-2.65z"/><path fill="#a0a593" d="M310.05 192.32c2.12-2.37 1.93-5.7 2.61-8.62l1.08 1.52c.46 2.4 1.1 4.87.82 7.34-.39 1.44-1.94 1.84-3.06 2.54l-1.45-2.78z"/><path fill="#727171" d="M325.22 184.07c1.68-.14 2.33 2.27 4.1 2.38 1.17.07 1.5 1.13 1.37 2.14-1.13.58-2.33 1.03-3.56 1.31-.99-1.81-1.89-3.73-1.91-5.83z"/><path fill="#838980" opacity=".98" d="M301.91 199.2c.76-4.45.91-8.98 1.84-13.4.2 3.16 2.68 5.14 5.42 6.22-1.29.03-2.58.09-3.86.2a38.44 38.44 0 0 0-1.07 5.66c-.17 1.26-1.13 1.98-2.33 1.32z"/><path opacity=".05" d="M331.91 186.87c5.17 3.35 4.09 10.22 5.89 15.35 1.36 2.3 3.71 3.86 6.17 4.8 1.22-1 2.14-2.3 3.12-3.53 1.28 1.22 2.59 2.46 4.29 3.1 2.96 1.09 5.12 3.45 7.59 5.32 1.74-.89 3.41-1.92 5.21-2.7 4.54.71 8.34 4.15 13.04 4.31 2.13.02 4.25.3 6.26 1.01l.37-3.05c2.5-1.16 4.21 1.93 6.13 3.05 1.34-.72 2.69-1.45 4.08-2.08l4.76 2.19c1.61-1.28 3.02-2.86 4.9-3.73l1.66 2.34c1.55-.47 3.09-1 4.67-1.38 3.17-.01 6.1 2.37 9.31 1.52.5-1.16 1.06-2.29 1.65-3.41 3.56.51 5.66 5.08 9.56 3.81l1.52-2.82c-1.58-1.01-3.59-.88-5.21-1.81 2.52-1.35 5.41.03 8.02.47-.56 1.13-1.14 2.26-1.6 3.44.25 1.15 1.68 1.45 2.66 1.73 2.42-.65 4.58-2.43 7.18-2.3 1.99.52 3.77 1.64 5.66 2.46.76-1.15 1.57-2.27 2.42-3.36 3.73-.24 7.38.79 11.11.8 1.89-.14 3.69-.8 5.53-1.22 1.31.63 2.43 1.95 3.9 2.09 2.54-1.51 4.84-3.49 7.72-4.35l-.28 3.44 3.39-.53c.96.71 1.91 1.46 2.82 2.25-.09-1.23-.16-2.46-.21-3.69 4.16.79 8.3-.2 12.46-.3-.04 1.35-.02 2.7.07 4.06 1.8-.27 3.71-.55 5.1-1.86l-1.48-2.36c3.69-.39 7.3-1.47 10.65-3.08v148.06c-1.35-.44-2.75-1.77-4.21-1.01-1.34 1-2.44 2.28-3.46 3.59-.83-1.67-1.46-3.63-3.24-4.53l-5.11 3.97c-1.66-.73-3.25-1.61-4.97-2.16-3.76.08-6.66 2.75-9.14 5.28l-2.03-.71 2.61-1.9c-.16-.55-.3-1.11-.44-1.65-3.7.53-7.25-.46-10.84-1.17-.33.68-.68 1.36-.98 2.05l-3.09-1.19c-.95.64-1.87 1.3-2.76 2.01-1.38-.99-2.49-2.73-4.38-2.59-2.49-.4-4.59 1.21-6.88 1.84-2.01-.86-3.83-2.33-6.01-2.66-2.36.56-4.53 2.2-7.03 1.9-3.39-.42-6.84-.19-10.19-.82-3.54-.95-6.85-2.7-10.54-3.03.28 1.21.63 2.42 1.03 3.61l-5.27 1.64-.54-3.08c-3.77-1.57-6.71 2.36-10.35 2.16-1.93-.68-3.72-1.67-5.6-2.46l-.34 3.26c-1.35-.88-2.5-2.02-3.64-3.14a76.97 76.97 0 0 0-4.23 1.07l-1.55-1.91-2.6.96c-.8-1.08-1.36-2.38-2.45-3.19-2.93-.27-5.28 2.37-8.2 2-4.24-.4-8.35-1.68-12.57-2.19-2.54.08-5.07.51-7.61.08-.53.78-1.01 1.61-1.66 2.31-3.07.42-6.18.71-9.1 1.86-2.22-.88-4.04-2.92-6.5-2.99-1.82.78-3.49 1.82-5.24 2.73l-4-3.27c-1.06.75-2.09 1.54-3.08 2.38-1.65-.6-3.09-1.63-4.57-2.53l-2.62 3.23c-1.36.02-2.69-.28-3.97-.67l.79-2.98-1.13-.92c-1.99 3.02-5.72 3.78-9.1 3.44-1.8-.17-1.66-2.43-2.39-3.66-2.39-.4-4.78-.83-7.13-1.42-3.45-1.08-7.04-.04-10.55-.06-2.41-1.92-4.44-4.25-6.73-6.3l-.09 3.09c-3.25-.93-4.43-4.63-7.32-6.17-2.47-1.8-6.34-2.59-7.02-6.02l.72.17 1.23.53c4 3.25 9.47 4.55 14.53 3.66 4.83-.85 9.72-.06 14.59-.3l3.59.14c3.96 1.7 8.27.53 12.41.56 4.16 0 8.33-.89 12.48-.17 2.12.26 4.24.79 6.39.64 2.04-.01 2.38-2.32 3.3-3.67 1.02.82 2.01 1.68 2.96 2.58l1.97-.57.56-3.53c2.19 1.54 4.2 3.32 6.28 5 .79-1.78.52-3.75.54-5.63 1.48-1.26 3.37-1.97 5.28-1.27 1.25.58 2.2-.44 3.03-1.22-.4-1.25-.95-2.44-1.75-3.47-1.3.39-2.59.8-3.88 1.24-.39-1.13-1.01-2.23-.97-3.45.63-1.02 1.34-1.98 2.05-2.95-2.27-2.06-4.71-4.28-7.84-4.84-4.45-.87-8.85-1.97-13.31-2.82-2.51-.61-4.98.26-7.44.63-2.69.45-5.49-1.66-8.02-.08l-3.13-2.84c1.52-1.06 3.15-1.99 4.46-3.32 1.02-1.74 1.24-3.8 1.8-5.71a28.29 28.29 0 0 1 1.29-2.73c1.35-1.67 1.9-3.82 3.16-5.51 2.98-1.67 6.52-1.05 9.78-1.11 3.97.7 6.4-2.98 7.94-6.03 1.06-2.36 1.65-4.94 1.3-7.52-.59-4.78-1.06-9.58-2.06-14.29-.9-.79-1.82-1.54-2.73-2.3-.37-10.6.34-21.23-.6-31.81-.43-5.3-.3-10.62-.02-15.92.01-2.25-.81-4.37-1.34-6.51 1.19-.54 2.88-.93 2.81-2.59.85-6.66-3.29-12.56-3.43-19.11z"/><path fill="#7d7e76" d="M211.72 191.08c3.09-1.31 6.45.3 9.62-.64-.69 1.54-1.23 3.14-1.71 4.76-.94 3.02-1.52 6.22-.84 9.36l1.83-.84a22.52 22.52 0 0 0 1.46 2.19c.65-2.24-.52-4.17-1.6-6.03l3.06-1.54 1.4 3.17.42 1.69c-1.16 1.47-2.2 3.04-3.12 4.67l2.32 2.48-.79 2.2-3.72-.11c.86 1.65 1.3 4.42 3.66 4.36 1.92-3.54 2.66-7.84 5.6-10.75 1.27-.27 2.55-.42 3.85-.45 5.56 1.34 11.14-.31 16.69-.81l2.57.55c1.18 2.77 2.6 5.44 4.52 7.77 1.15 1.3 1.71 2.95 2.03 4.64-2.61.24-5.24.3-7.85.22 1.89-2.98 1.2-7.32-1.98-9.09-5.14-1.65-10.11 2.01-15.31 1.22-2.06-.44-5.27.11-5.38 2.7 1 2.24 1.21 4.68.85 7.09 2.02.51 3.96-.26 5.86-.85l1.62.3c5.59 1.94 11.51.41 17.25.45 1.25-.08 2.19.9 3.25 1.42-.98.73-1.94 1.51-2.99 2.13-3.17.4-6.53-.33-9.43 1.39-3.18 1.23-6.67.57-9.92 1.37-3.29 1.47-6.4 3.48-10.09 3.82 3.65-3.23 8.4-4.74 12.98-6.11 4.67-1.35 9.66-.94 14.27-2.48-4.83-.52-9.71-.35-14.54.03-3.57.23-6.79 2-10.31 2.5-1.67-.01-3.69.17-4.88-1.26-1.69-1.7-3.32-3.5-5.42-4.71-1.86-4.69-2.49-9.71-1.54-14.68-1.96-1.2-3.84-2.51-5.67-3.88 1.34.03 2.69 0 4.04-.04 1.73-2.15 3.82-4.4 4.19-7.23-2.07-.41-4.15-.78-6.25-.98z"/><path fill="#3c3e3e" d="M202.19 200.08c2.04-3.97 5.47-7.17 9.53-9 2.1.2 4.18.57 6.25.98-.37 2.83-2.46 5.08-4.19 7.23-1.35.04-2.7.07-4.04.04-2.55-.19-5.09.08-7.55.75z"/><path fill="#94fcff" d="M305.31 192.22l3.86-.2.88.3 1.45 2.78.13 3.35c-2.25.44-4.55.9-6.84.61l-.55-1.18a38.44 38.44 0 0 1 1.07-5.66m.98.98l-.09 2.64a7.76 7.76 0 0 0 3.65.18c1.01-2.42-1.61-3.54-3.56-2.82z"/><path fill="#646565" d="M234.73 193.32c4.31.01 8.69-.97 12.95-.13 2.57 1.87 4.06 4.74 5.53 7.48l-2.68.18c-.13-2.5-2.21-4.17-4.63-4.21-4.37.08-8.72 1.23-13.09.46l.24-2.09c2.67-.08 5.48.5 8.02-.64-1.96-.17-3.92-.24-5.87-.31l-.47-.74z"/><path fill="#e5ffff" d="M306.29 193.2c1.95-.72 4.57.4 3.56 2.82a7.76 7.76 0 0 1-3.65-.18l.09-2.64z"/><path fill="#5e6161" d="M219.63 195.2c1.84-.18 3.59-.83 5.38-1.27 1.38.18 2.7.63 4.05.95-.37 2.77-1.36 5.46-4.12 6.63l-1.4-3.17-3.06 1.54c1.08 1.86 2.25 3.79 1.6 6.03a22.52 22.52 0 0 1-1.46-2.19l-1.83.84c-.68-3.14-.1-6.34.84-9.36z"/><path fill="#878a8c" d="M229.06 194.88l6.14-.82 5.87.31c-2.54 1.14-5.35.56-8.02.64l-.24 2.09c4.37.77 8.72-.38 13.09-.46 2.42.04 4.5 1.71 4.63 4.21l-.88.07c-1.21-.69-2.1-2.45-3.68-2.13-3.63.65-7.29 1.13-10.98 1.25-1.72-.13-2.93 1.12-4.18 2.07-1.26.3-2.54.5-3.81.74l-1.64.35-.42-1.69c2.76-1.17 3.75-3.86 4.12-6.63z"/><path fill="#696a6f" d="M256.19 196.28l4.18-.8.52 3.41a125.62 125.62 0 0 1-4.76-.07l.06-2.54z"/><path fill="#727272" d="M324.17 199.37c.5-1.05.21-3.22 1.77-3.28.23 2.46.78 4.88 2.01 7.06l-.79 1.2c-1.54-1.2-4.03-2.65-2.99-4.98z"/><path fill="#5d5954" d="M234.99 200.04c3.69-.12 7.35-.6 10.98-1.25 1.58-.32 2.47 1.44 3.68 2.13-1.13 1.22-2.39 2.49-4.17 2.51-4.87.38-10.23 1.27-14.67-1.32 1.25-.95 2.46-2.2 4.18-2.07z"/><path fill="#585956" d="M202.19 200.08c2.46-.67 5-.94 7.55-.75l5.67 3.88c-.95 4.97-.32 9.99 1.54 14.68-2.14-.61-4.61-2.14-6.68-.54-.15 1.71-.14 3.43.16 5.12 2.64 2.06 4.95 4.46 6.83 7.24-.51 1.08-.94 2.19-1.24 3.35l-1.76.3c-2.45-.2-5.21.15-7.29-1.39-2.05-1.59-3.79-3.57-5.97-4.99l-.48 4.72c-.2 1.5-.45 2.99-.68 4.49-.94-4.35-.9-8.81-1.13-13.23-.11-4.98-1.13-10.15.81-14.93 1.33-1.11 5.11-2.52 3.09-4.64l-1.73-.84 1.31-2.47m2.88 9.1c1.34 1.52 3.12 2.55 4.89 3.51.88-2.48.61-5.17.81-7.75-2.53.28-4.05 2.57-5.7 4.24m.24 2.93c-1.34 1.27-1.21 3.18-1.38 4.87 1.73-.79 3.32-2 3.94-3.87a6.35 6.35 0 0 0-2.56-1z"/><path fill="#2a2b2c" d="M256.67 201.82c.38-1.13 1.14-1.88 2.27-2.25 1.91 1.98 1.73 4.87.04 6.92l-2.31-4.67z"/><path fill="#3b3b36" d="M249.65 200.92l.88-.07 2.68-.18 2.07 1.32c-1.77 1-3.53 2.06-5.43 2.8-5.55.5-11.13 2.15-16.69.81-2.38-.34-4.79-.42-7.18-.54l1.02-2.21c1.27-.24 2.55-.44 3.81-.74 4.44 2.59 9.8 1.7 14.67 1.32 1.78-.02 3.04-1.29 4.17-2.51z"/><path fill="#9fa594" d="M302.15 202.23l1.99-.16c-.04 2.01-.5 3.98-1.22 5.86l-.94-.02c-.04-1.9-.09-3.8.17-5.68z"/><path fill="#acaab2" d="M304.7 202.58c2.94-.1 5.84.48 8.65 1.3-1.71 1.44-3.88 1.99-6.02 2.42-1.14-1.05-2.16-2.22-2.63-3.72z"/><path fill="#9998a5" d="M313.35 203.88l3.83-2.54.11 2.01c-2.37 1.25-4.49 2.99-4.63 5.87l-4.32.17-3.74-1.28 2.73-1.81c2.14-.43 4.31-.98 6.02-2.42z"/><path fill="#72716c" d="M200.88 202.55l1.73.84c2.02 2.12-1.76 3.53-3.09 4.64-.22-1.97.23-3.84 1.36-5.48z"/><path fill="#5c5c55" d="M225.36 203.2l1.64-.35-1.02 2.21 7.18.54c-1.3.03-2.58.18-3.85.45-2.94 2.91-3.68 7.21-5.6 10.75-2.36.06-2.8-2.71-3.66-4.36 1.24-.01 2.48.02 3.72.11l.79-2.2-2.32-2.48c.92-1.63 1.96-3.2 3.12-4.67z"/><path fill="#454442" d="M205.07 209.18c1.65-1.67 3.17-3.96 5.7-4.24-.2 2.58.07 5.27-.81 7.75-1.77-.96-3.55-1.99-4.89-3.51z"/><path fill="#62647a" d="M269.76 207.34c1.63-.12 3.32-.49 4.93-.05.91.64 1.7 1.44 2.51 2.2.98-.84 1.67-2.17 3-2.5 1.97-.02 3.87.66 5.76 1.16l1.02 5.2c.97.74 2.03 1.58 3.35 1.23l.95-2.48c2.74.12 5.37.96 7.94 1.85.14-1.72-1.24-2.8-2.3-3.9 1.7.06 2.94-1.16 4.19-2.13l.87-.01.94.02 1.68.18 3.74 1.28-6.52 1.64c-1.09.74-.37 2.25-.46 3.33l2.16 1.72c1.2 1.68 2.98 3.48 2.68 5.71-1.13 1.69-2.58 3.23-3.12 5.23l-.18.83c-3.28-.89-6.28-2.71-8.45-5.34-.34-1.8.25-3.63.46-5.41-1.24 1.44-2.89 2.75-4.83 2.96.25-1.67-.98-3.53-2.83-3l-1.32-3.38c-1.29.84-1.02 2.65-1.5 3.94l-9.33 1.58c-2.92.63-6.25.32-8.3-2.11l2.17-6.06.25-.77c1.24-.37 4.69.25 3.39-2.03l-2.85-.89m12.48.99v.46l.46-.01v-.45h-.46m-12.13 5.47c2.31.02 4.62-.18 6.85-.84.17-1.73-2.04-1.92-3.26-1.62-1.62.04-2.74 1.22-3.59 2.46m9.09-2.77c-1.34.72-1.38 1.4-.11 2.05 1.34-.72 1.38-1.4.11-2.05m16.9 10.33c-.45 1.39.03 1.9 1.44 1.53.44-1.39-.04-1.9-1.44-1.53z"/><path fill="#909189" d="M233.83 210.1c5.2.79 10.17-2.87 15.31-1.22 3.18 1.77 3.87 6.11 1.98 9.09-3.35-.12-6.7-.27-10.03.07 1.05-1.71 2.29-3.54 1.7-5.66-2.32-2.04-5.42-.85-7.23 1.23-.51 1.76-.33 3.62-.4 5.43-1.9.59-3.84 1.36-5.86.85.36-2.41.15-4.85-.85-7.09.11-2.59 3.32-3.14 5.38-2.7z"/><path fill="#75778a" d="M269.22 210.26l.54-2.92 2.85.89c1.3 2.28-2.15 1.66-3.39 2.03z"/><path fill="#fffeff" d="M282.24 208.33h.46v.45l-.46.01v-.46z"/><path fill="#767786" d="M308.34 209.39l4.32-.17c-.58 2.86 3.07 4.24 3.33 6.89.19 1.7.16 3.41.11 5.12l-1.68 11.43c-.62 2.39-1.49 4.79-1.21 7.31.1 2.96.42 6.52-2.02 8.71l-.43-.84c.63-4.43 1.05-8.98.3-13.41l-.59-.59c-1.71-.8-3.49-1.4-5.31-1.83l-1.23 1.71c-.82 2.09-1.42 4.93-4.28 4.61l.13-4.22-1.73-.32a27.37 27.37 0 0 1 2.96-.77c1.5.66 2.93-1.15 1.42-2.19.14-1 .3-1.99.47-2.98l.18-.83c.69 1.33 1.42 2.64 2.27 3.88l2.37.03.55-2.32c2.75-2.71 2.06-6.86 2.94-10.33 3.09-1.61 1.64-6.53-1.22-7.61-2.01.15-3.89.94-5.73 1.69a122.24 122.24 0 0 0-.74 3.72c-.71-.59-1.43-1.17-2.16-1.72.09-1.08-.63-2.59.46-3.33 2.13-.72 4.33-1.17 6.52-1.64z"/><path fill="#5c605c" d="M291.28 212.1c.46-2.72 3.69-1.82 5.64-2.05 1.06 1.1 2.44 2.18 2.3 3.9-2.57-.89-5.2-1.73-7.94-1.85z"/><path fill="#b2b3c1" d="M304.26 212.36c1.84-.75 3.72-1.54 5.73-1.69 2.86 1.08 4.31 6 1.22 7.61-.52-1.96.84-5.81-2.26-5.64-2.81 4.89-2.08 10.77-.68 15.97l-.55 2.32-2.37-.03c-.85-1.24-1.58-2.55-2.27-3.88.54-2 1.99-3.54 3.12-5.23.3-2.23-1.48-4.03-2.68-5.71l.74-3.72z"/><path fill="#9e9f94" d="M235.56 213.61c1.81-2.08 4.91-3.27 7.23-1.23.59 2.12-.65 3.95-1.7 5.66l-4.31 1.3-1.62-.3c.07-1.81-.11-3.67.4-5.43z"/><path fill="#8a8b9e" d="M270.11 213.8c.85-1.24 1.97-2.42 3.59-2.46 1.22-.3 3.43-.11 3.26 1.62-2.23.66-4.54.86-6.85.84z"/><path fill="#9797a8" d="M279.2 211.03c1.27.65 1.23 1.33-.11 2.05-1.27-.65-1.23-1.33.11-2.05z"/><path fill="#838282" d="M323.18 214.96c1.63-2.74 5.29-2.91 8.07-3.73.03 4.12-5.22 3.55-8.07 3.73z"/><path fill="#41413e" d="M205.31 212.11a6.35 6.35 0 0 1 2.56 1c-.62 1.87-2.21 3.08-3.94 3.87.17-1.69.04-3.6 1.38-4.87z"/><path fill="#cac8d6" d="M308.27 228.61c-1.4-5.2-2.13-11.08.68-15.97 3.1-.17 1.74 3.68 2.26 5.64-.88 3.47-.19 7.62-2.94 10.33z"/><path fill="#747277" d="M318.07 215.8c-.28-.95-.08-3.16 1.44-2.29.64.99.41 1.85-.7 2.56l-.74-.27z"/><path fill="#818079" d="M284.43 217.62c.48-1.29.21-3.1 1.5-3.94l1.32 3.38-.42.69c-2.38 1.71-5.38 1.33-8.1 1.95-2.02 1.59-2.34 4.48-2.36 6.89 1.55 1.5 4.15 1.29 6.19 1.74 2.42.68 4.3-1.22 6.13-2.46l-1.92 3.24c.96 1.62 2.94 1.89 4.5 2.69 1.67.56 2.67 2.08 3.88 3.25l-5.95-2.27c-2.28-1.02-4.58-1.99-6.98-2.65l-1.23.88c-1.34.98-2.58 2.09-4.05 2.88-3.52-1.13-6.97-3.09-10.78-2.75-3.51.55-3.46 6.24-7.22 5.93l-.1-1.03c-.05-5.03 1.88-10.17 5.93-13.3 3.46-2.18 7.66-.03 11.33-1.36l-1-2.18c3.09-.63 6.22-1.04 9.33-1.58z"/><path fill="#d09b7c" d="M324.99 217.11c3.03-.33 6-1.05 8.88-2.03-.28 5.3-.41 10.62.02 15.92.94 10.58.23 21.21.6 31.81-.74 2.96-4 2.5-6.35 2.59.72-2.05 1.35-4.17 1.24-6.36-.06-7.98-.49-15.97-.06-23.94.05-5.65-.51-11.28-.55-16.93l-2.56-.03c-.1 4.95.45 9.91-.14 14.84-.41 5.36-1.99 10.57-2 15.97l-.1 16.24-.95-.11c-.81-.74-1.59-1.49-2.35-2.26-.16-3.01.4-5.98.46-8.98.09-3.21-.21-6.44.23-9.64.72-5.02 2.59-9.91 2.22-15.05-.24-4.08.77-8.05 1.41-12.04z"/><path fill="#494c4a" d="M210.27 217.35c2.07-1.6 4.54-.07 6.68.54 2.1 1.21 3.73 3.01 5.42 4.71 1.19 1.43 3.21 1.25 4.88 1.26-3.18 2.2-6.49 4.19-9.99 5.85-1.88-2.78-4.19-5.18-6.83-7.24-.3-1.69-.31-3.41-.16-5.12z"/><path opacity=".12" d="M318.07 215.8l.74.27 2.57.9c-.28 8.7-1.21 17.42-3.5 25.84-.96 3.73-1.24 7.62-2.51 11.28-.51-7.14-.69-14.29-.95-21.43.62-3.81 1.11-7.62 1.68-11.43.6-1.83 1.33-3.61 1.97-5.43z"/><path fill="#393d48" d="M287.25 217.06c1.85-.53 3.08 1.33 2.83 3-1.54.48-2.91-.93-3.25-2.31l.42-.69z"/><path fill="#575759" d="M290.08 220.06c1.94-.21 3.59-1.52 4.83-2.96-.21 1.78-.8 3.61-.46 5.41 2.17 2.63 5.17 4.45 8.45 5.34l-.47 2.98-1.42 2.19a27.37 27.37 0 0 0-2.96.77l-1.46 1.21-1.44.05c-1.21-1.17-2.21-2.69-3.88-3.25-1.56-.8-3.54-1.07-4.5-2.69l1.92-3.24c-1.83 1.24-3.71 3.14-6.13 2.46-2.04-.45-4.64-.24-6.19-1.74.02-2.41.34-5.3 2.36-6.89 2.72-.62 5.72-.24 8.1-1.95.34 1.38 1.71 2.79 3.25 2.31z"/><path fill="#b7886a" d="M321.38 216.97l3.61.14c-.64 3.99-1.65 7.96-1.41 12.04.37 5.14-1.5 10.03-2.22 15.05-.44 3.2-.14 6.43-.23 9.64-.06 3-.62 5.97-.46 8.98.76.77 1.54 1.52 2.35 2.26-1.74-.22-3.48-.43-5.19-.78l-2.08-1.49c.03-6.74 2.32-13.23 2.13-20 2.29-8.42 3.22-17.14 3.5-25.84z"/><path fill="#e9b9a1" d="M326.21 218.14l2.56.03c.04 5.65.6 11.28.55 16.93-.43 7.97 0 15.96.06 23.94.11 2.19-.52 4.31-1.24 6.36a95.38 95.38 0 0 1-4.17-.21l.1-16.24c.01-5.4 1.59-10.61 2-15.97.59-4.93.04-9.89.14-14.84z"/><path fill="#96948c" d="M227.25 223.86c3.52-.5 6.74-2.27 10.31-2.5 4.83-.38 9.71-.55 14.54-.03-4.61 1.54-9.6 1.13-14.27 2.48-4.58 1.37-9.33 2.88-12.98 6.11-1.44.53-2.95.93-4.27 1.73-1.67 1.59-3.03 3.63-5.32 4.38l.76-2.97c.3-1.16.73-2.27 1.24-3.35 3.5-1.66 6.81-3.65 9.99-5.85z"/><path fill="#706f6d" d="M257.28 221.21c1.77.67 3.64 1.03 5.51 1.37-2.3 3.17-5.96 4.81-8.74 7.45-.99 1.86-1.55 3.91-2.31 5.87-1.19-.35-2.38-.69-3.49-1.21l-1.03-1.24c-4.06-.4-8.03 1.3-12.07 1.68a54.65 54.65 0 0 1-4.23-.3c2.63-1.73 5.83-2.16 8.77-3.12 3-1.05 6.17-.32 9.25-.17 1.96-1.78 3.08-4.22 4.03-6.64-2.7-.18-5.41-.25-8.11-.17 2.9-1.72 6.26-.99 9.43-1.39 1.05-.62 2.01-1.4 2.99-2.13z"/><path fill="#8c8a80" d="M296.1 221.36c1.4-.37 1.88.14 1.44 1.53-1.41.37-1.89-.14-1.44-1.53z"/><path fill="#616361" d="M234.94 226.1c3.25-.8 6.74-.14 9.92-1.37 2.7-.08 5.41-.01 8.11.17-.95 2.42-2.07 4.86-4.03 6.64-3.08-.15-6.25-.88-9.25.17-2.94.96-6.14 1.39-8.77 3.12a54.65 54.65 0 0 0 4.23.3c-7.26.92-12.11 7.01-17.33 11.5l-1.33-1.91.24-4.57-1.77-1.56a20.68 20.68 0 0 0-1.66 3.33c-3.72-1.46-8.53.78-11.41-2.66 1.78.16 3.57.29 5.37.26 2.07-.44 4.33-.84 5.98-2.29.45-1.26.69-2.58 1.02-3.87l1.76-.3-.76 2.97c2.29-.75 3.65-2.79 5.32-4.38 1.32-.8 2.83-1.2 4.27-1.73 3.69-.34 6.8-2.35 10.09-3.82z"/><path fill="#2f3131" d="M201 226.98c2.18 1.42 3.92 3.4 5.97 4.99 2.08 1.54 4.84 1.19 7.29 1.39l-1.02 3.87c-1.65 1.45-3.91 1.85-5.98 2.29-3.16-1.7-5.28-4.61-6.74-7.82.19-1.57.32-3.15.48-4.72z"/><path fill="#717784" d="M280.99 231.01l1.23-.88c-.17 2.16-.24 4.33-.17 6.5l2.67-.78.17 3.83c-1.82 5.25-3.11 10.7-5.35 15.81a11.77 11.77 0 0 1-4.76-.35c1.94-4.22 3.49-8.61 4.73-13.08 1.19-3.56 1.77-7.29 1.48-11.05z"/><path fill="#46484e" d="M282.22 230.13c2.4.66 4.7 1.63 6.98 2.65l-.19.76c-1.55.53-3.49.64-4.29 2.31l-2.67.78c-.07-2.17 0-4.34.17-6.5z"/><path fill="#919088" d="M258.94 237.07c3.76.31 3.71-5.38 7.22-5.93 3.81-.34 7.26 1.62 10.78 2.75 1.47-.79 2.71-1.9 4.05-2.88.29 3.76-.29 7.49-1.48 11.05l-1.28-2.02c-1.5 4.84-4.89 9.51-4.23 14.75l.78.35a11.77 11.77 0 0 0 4.76.35c2.24-5.11 3.53-10.56 5.35-15.81.08 2.06.03 4.13.32 6.18.86 1.96 2.21 3.64 3.31 5.46-.47 3.34-1 6.74.52 9.93l-.61 3.02L286 262c-1.18 2.49-1.99 5.19-3.51 7.51-1.81 1.89-4.08 3.26-6.21 4.76-2.71 1.82-5.81 3.56-9.18 3.34-4.62-.65-9.09-2.25-13.07-4.66-1.48-1.05-3.34-.9-5.05-.99-.41-1.21-.76-2.44-1.13-3.65l.95.15.97.16 2.3.65c2.72-3.55 4.89-7.49 6.7-11.57 2.39-1.25 5.09-.97 7.69-1.11 2.16-.27 2.89-2.6 4.13-4.06.9-1.47 2.42-2.75 2.47-4.6-1.55-.73-2.89-1.8-4.35-2.68-1.15-.24-2.35-.26-3.44-.75-2.48-2.16-6.64-3.45-6.33-7.43m5.34-1.78v.45h.45v-.45h-.45z"/><path fill="#cecbd3" d="M302.43 230.83c1.51 1.04.08 2.85-1.42 2.19l1.42-2.19z"/><path fill="#626263" opacity=".97" d="M199.84 236.19l.68-4.49c1.46 3.21 3.58 6.12 6.74 7.82-1.8.03-3.59-.1-5.37-.26-.8-.94-1.52-1.96-2.05-3.07z"/><path fill="#c0caaa" d="M305.16 232.01c1.82.43 3.6 1.03 5.31 1.83-.43 3.63-2.7 7.3-1.32 10.95 1.03 1.87-1.07 3.17-2.21 4.29-1.98-.81-1.37-3.06-1.66-4.72-.43-.97-1.18-1.75-1.82-2.57 1.79-1.86 2.43-4.58 4.71-6.04l-4.24-2.03 1.23-1.71z"/><path fill="#99968d" d="M235.15 235.13c4.04-.38 8.01-2.08 12.07-1.68l1.03 1.24c-2.56.64-5.11 1.29-7.63 2.06-3.75 1.22-7.6 2.14-11.24 3.66-3.08 1.33-5.16 4.06-7.33 6.49-1.2 1.03-2.47 1.97-3.73 2.92-.15-1.07-.32-2.13-.5-3.19 5.22-4.49 10.07-10.58 17.33-11.5z"/><path fill="#4f4d4c" d="M289.2 232.78c1.93.87 3.93 1.59 5.95 2.27l1.41 9.64c1.3.37 2.67.34 4.02.35l2.55.94-1.55 3.82c-1.39.33-2.82.43-4.24.44-.32-1.46.97-3.88-.59-4.68-1.13 1.91-1.83 4.09-1.55 6.34.48 4.03.06 8.08-.56 12.07-1.14 2.66-2.27 5.32-3.52 7.93l-.22-1.4c-1.91.44-3.69 1.3-5.31 2.39l2.5 2.6c-1.09 1.08-2.18 2.21-3.55 2.95-1.84.35-3.73.37-5.59.55.99-.67 1.94-1.38 2.87-2.12 3.11-3.62 5.62-7.89 6.61-12.6l.61-3.02c1.33-3.99 3.47-7.67 4.64-11.71.73-3.44.99-7.02.56-10.52-.42-2.77-3.18-4.06-5.23-5.48l.19-.76z"/><path fill="#020202" opacity=".78" d="M313.21 239.97c-.28-2.52.59-4.92 1.21-7.31l.95 21.43c1.27-3.66 1.55-7.55 2.51-11.28.19 6.77-2.1 13.26-2.13 20l-2-1.04c-1.57.71-1.56 2.58-2.15 3.97-2.45-1.28-1.24-4.59-1.48-6.79.41-2.87-1.75-5.12-2.23-7.82 1.02-1.04 1.98-2.14 2.87-3.29l.43.84c2.44-2.19 2.12-5.75 2.02-8.71z"/><path fill="#7b7871" d="M284.72 235.85c.8-1.67 2.74-1.78 4.29-2.31 2.05 1.42 4.81 2.71 5.23 5.48.43 3.5.17 7.08-.56 10.52-1.17 4.04-3.31 7.72-4.64 11.71-1.52-3.19-.99-6.59-.52-9.93-1.1-1.82-2.45-3.5-3.31-5.46-.29-2.05-.24-4.12-.32-6.18l-.17-3.83z"/><path fill="#9fa299" d="M296.59 235l1.46-1.21 1.73.32-.13 4.22c2.86.32 3.46-2.52 4.28-4.61l4.24 2.03c-2.28 1.46-2.92 4.18-4.71 6.04-1.78-1.84-4.17-1.72-6.47-1.25l-.4-5.54z"/><path fill="#6a6a6a" d="M310.47 233.84l.59.59c.75 4.43.33 8.98-.3 13.41-.89 1.15-1.85 2.25-2.87 3.29l-1.95.83c-1.12 2.32-.99 5.24-2.72 7.22-.57-2.5-.81-5.14-2.04-7.42-1.35-1.63-3.5-.49-4.28 1.06 1.12 1.37 2.26 2.76 2.85 4.46-.88 2.78-3 4.81-5.11 6.69.62-3.99 1.04-8.04.56-12.07-.28-2.25.42-4.43 1.55-6.34 1.56.8.27 3.22.59 4.68 1.42-.01 2.85-.11 4.24-.44.54-1.26 1.08-2.53 1.55-3.82l.28-.83-.37-.87-.92-.33-1.54 1.09c-1.35-.01-2.72.02-4.02-.35-.6-3.2-.84-6.44-1.41-9.64l1.44-.05c.06 1.85.21 3.7.4 5.54 2.3-.47 4.69-.59 6.47 1.25.64.82 1.39 1.6 1.82 2.57.29 1.66-.32 3.91 1.66 4.72 1.14-1.12 3.24-2.42 2.21-4.29-1.38-3.65.89-7.32 1.32-10.95m-12.18 8.43l.01.64.67.45 1.59-.46v-.64l-1.61-.44-.66.45z"/><path fill="#dad7d5" d="M264.28 235.29h.45v.45h-.45v-.45z"/><path fill="#717372" d="M257.98 237.95l.86-1.91.1 1.03c-.31 3.98 3.85 5.27 6.33 7.43-1.06 4.9-4.58 8.66-6.5 13.2-1.81 4.08-3.98 8.02-6.7 11.57l-2.3-.65c2.31-1 3.61-3.22 4.17-5.58l-1.46-1.37c.16-1.77-1.34-2.84-2.5-3.88-2.97.99-2.82 4.73-.43 6.28l-.75 4.39-.95-.15a49.5 49.5 0 0 1-.94-1.1c2.18-.78.89-3.55-1.1-3.22-.26-1.26-.58-2.5-.88-3.73 3.14-1.9 4.42-5.51 6.98-7.96 1.46-.65 3.53-.37 4.27-2.12l-3.09-3.38 4.82-.34c.06-1 .08-2 .07-2.99-1.23-.93-3.05-1.33-3.81-2.73-.45-2.24 2.42-2.13 3.81-2.79z"/><path fill="#717272" d="M229.38 240.41c3.64-1.52 7.49-2.44 11.24-3.66 1.44 1.9 3.04 3.67 4.54 5.53 1.75-.35 2.76-2.14 4.16-3.14.66 1.29 1.13 2.7.86 4.17l-1.83-.9c-.92 2.64-3.32 3.81-5.81 4.64 1.65 2.78 1.24 6.03 1.04 9.1-.49 1.2-1.05 2.38-1.33 3.66 1.19 3.47 2.9 6.77 3.74 10.37-2.7-.55-3.82-3.2-4.86-5.43-.76-1.9-1.92-3.96-1.18-6.04 1.11-3.74 1.02-7.66.92-11.51-2.63 1.67-4.43 4.37-5.08 7.41-1.33 5.81-1.64 12.16.67 17.78 1.06 2.82 4.11 3.97 6.28 5.79-1.69.99-3.36 2.01-5.02 3.05-1.38-.51-2.79-.93-4.2-1.34-.42-.99-.82-2.01-.81-3.1 1.73.71 3.49 1.35 5.27 1.97-.84-3.15-3.19-5.38-5.96-6.91-1.71-2-3.56-4.2-3.68-6.96-.8-8.4.68-17.67 6.58-24.06-3.34.74-6.36 2.39-8.84 4.73l-1.33 1.19-2.7.15c2.17-2.43 4.25-5.16 7.33-6.49z"/><path fill="#5a5a56" d="M213.3 241.92a20.68 20.68 0 0 1 1.66-3.33l1.77 1.56-.24 4.57 1.33 1.91.5 3.19 3.73-2.92 2.7-.15c-1.09 2.2-1.98 4.53-3.45 6.52-1.63 1.33-3.72 1.87-5.69 2.48l-.51.14c-2.5-.45-2.98-3.31-3.53-5.35-.83-3.01.93-5.82 1.73-8.62m-.09 4.26v.45l.45.01v-.46h-.45z"/><path fill="#999ba1" d="M278.23 240.04l1.28 2.02c-1.24 4.47-2.79 8.86-4.73 13.08l-.78-.35c-.66-5.24 2.73-9.91 4.23-14.75z"/><path fill="#4f5150" d="M226.08 245.56c2.48-2.34 5.5-3.99 8.84-4.73-5.9 6.39-7.38 15.66-6.58 24.06.12 2.76 1.97 4.96 3.68 6.96l-2.39 1.36c-1.11-1.9-1.96-3.93-2.9-5.92l-2.64-1.19-.13-.72c1.66-2.89-.6-5.68-1.82-8.24 2.74-2.1 4.6-5.15 5.42-8.48.66-1.36-.28-2.55-1.48-3.1z"/><path fill="#80807e" d="M248.35 242.41l1.83.9c-.78 4.04-1.49 8.21-3.36 11.91-1.09.29-2.17.61-3.24.93.2-3.07.61-6.32-1.04-9.1 2.49-.83 4.89-2 5.81-4.64z"/><path fill="#949398" d="M298.29 242.27l.66-.45 1.61.44v.64l-1.59.46-.67-.45-.01-.64z"/><path fill="#a3a095" d="M265.27 244.5c1.09.49 2.29.51 3.44.75 1.46.88 2.8 1.95 4.35 2.68-.05 1.85-1.57 3.13-2.47 4.6-1.24 1.46-1.97 3.79-4.13 4.06-2.6.14-5.3-.14-7.69 1.11 1.92-4.54 5.44-8.3 6.5-13.2z"/><path fill="#9da28e" d="M300.58 245.04l1.54-1.09.92.33.37.87-.28.83-2.55-.94z"/><path fill="#c1bec1" d="M213.21 246.18h.45v.46l-.45-.01v-.45z"/><path fill="#40413f" d="M226.08 245.56c1.2.55 2.14 1.74 1.48 3.1-.82 3.33-2.68 6.38-5.42 8.48l-2.16.52c-1.7-.39-3.3-1.06-4.88-1.77l.51-.14c1.97-.61 4.06-1.15 5.69-2.48 1.47-1.99 2.36-4.32 3.45-6.52l1.33-1.19z"/><path fill="#514d47" d="M235.79 254.61c.65-3.04 2.45-5.74 5.08-7.41.1 3.85.19 7.77-.92 11.51-.74 2.08.42 4.14 1.18 6.04 1.04 2.23 2.16 4.88 4.86 5.43-.84-3.6-2.55-6.9-3.74-10.37l2.68.45.88 3.73c-.13 1.25.24 2.33 1.1 3.22a49.5 49.5 0 0 0 .94 1.1l1.13 3.65c.53 1.36 1.18 2.78 2.42 3.66 2.61 1.6 5.97 1.64 8.35 3.67l-.01 2.23c-2.97.46-5.98.66-8.97.79-3.15-.33-5.65-2.23-8.03-4.13-2.17-1.82-5.22-2.97-6.28-5.79-2.31-5.62-2-11.97-.67-17.78z"/><path fill="#7e7c79" d="M296.9 252.82c.78-1.55 2.93-2.69 4.28-1.06 1.23 2.28 1.47 4.92 2.04 7.42-1.23-.51-2.41-1.1-3.47-1.9-.59-1.7-1.73-3.09-2.85-4.46z"/><path fill="#444341" d="M305.94 251.96l1.95-.83c.48 2.7 2.64 4.95 2.23 7.82.24 2.2-.97 5.51 1.48 6.79.59-1.39.58-3.26 2.15-3.97l2 1.04 2.08 1.49c.95 2.75 1.86 5.66 1.1 8.58-3.26 1.34-6.22-1.34-9.48-.91l-1.52-7.54c-2.04.69-4 1.59-5.99 2.38l-1.48-.21.53-4.56-3.98 2.18c.3 1.34.43 2.8 1.27 3.95.94.55 2.02.77 3.07 1.07l-.18.63-2.54 5.25-.19.95c1.46 1.27 3.07 2.51 3.63 4.47-1.1.64-2.29 1.22-3.04 2.29l.97 2.46c-3.89 1.33-6.11-2.85-9.05-4.53l-3.41 1-1.51.4a113.36 113.36 0 0 0-1.97-.49c2.58-1.14 5.47-2.22 6.92-4.82 2.19-3.68 4.09-7.61 5.16-11.76l-1.5-1.12c2.11-1.88 4.23-3.91 5.11-6.69 1.06.8 2.24 1.39 3.47 1.9 1.73-1.98 1.6-4.9 2.72-7.22m1.42 4.5c-.89.75-1.42 2.31-.77 3.36 1.67.58 2.52-3.3.77-3.36m-6.1 3.83v.45h.45v-.45h-.45m-4.97 10.94l-.73.35-.6 1.63c.92 2.7 4.02-1.77 1.33-1.98z"/><path fill="#8c8a8a" d="M215.1 255.89l.51-.14-.51.14z"/><path fill="#6e6d71" d="M307.36 256.46c1.75.06.9 3.94-.77 3.36-.65-1.05-.12-2.61.77-3.36z"/><path fill="#69665f" opacity=".97" d="M219.98 257.66l2.16-.52c1.22 2.56 3.48 5.35 1.82 8.24l-3.98-7.72z"/><path fill="#90928e" d="M249.55 264.07c-2.39-1.55-2.54-5.29.43-6.28 1.16 1.04 2.66 2.11 2.5 3.88l-2.93 2.4z"/><path fill="#89888b" d="M301.26 260.29h.45v.45h-.45v-.45z"/><path fill="#5b5d5d" d="M249.55 264.07l2.93-2.4 1.46 1.37c-.56 2.36-1.86 4.58-4.17 5.58l-.97-.16.75-4.39z"/><path fill="#74736c" d="M286 262l2.43 2.27c-.99 4.71-3.5 8.98-6.61 12.6-5.22.59-10.12 2.58-15.27 3.52-1.41.11-1.89 1.58-2.71 2.49-5.56 3.06-12.33 3.9-18.54 2.78-2.55-.28-4.58-1.89-6.27-3.69 5.34.82 10.58 2.64 16.07 1.69l-4.33-1.35c2.99-.13 6-.33 8.97-.79l.01-2.23c-2.38-2.03-5.74-2.07-8.35-3.67-1.24-.88-1.89-2.3-2.42-3.66 1.71.09 3.57-.06 5.05.99 3.98 2.41 8.45 4.01 13.07 4.66 3.37.22 6.47-1.52 9.18-3.34 2.13-1.5 4.4-2.87 6.21-4.76 1.52-2.32 2.33-5.02 3.51-7.51z"/><path fill="#5f6063" d="M297.01 264.22l3.98-2.18-.53 4.56 1.48.21c1.11.2 1.72.86 1.81 1.99l-2.4.44c-1.05-.3-2.13-.52-3.07-1.07-.84-1.15-.97-2.61-1.27-3.95z"/><path fill="#5d5b59" d="M334.49 262.81l2.73 2.3-.52 1.31-4.13-.41c1.22 5.46-1.62 10.52-3.05 15.64-2.38 1.46-5.35.42-7.97.31-1.59-2.6-2.88-5.8-5.8-7.17-3.04-.94-4.76 2.43-6.53 4.26.19-2.36.29-4.72.23-7.08 3.26-.43 6.22 2.25 9.48.91.76-2.92-.15-5.83-1.1-8.58 1.71.35 3.45.56 5.19.78l.95.11a95.38 95.38 0 0 0 4.17.21c2.35-.09 5.61.37 6.35-2.59m-10.2 17.48v.46h.45v-.45l-.45-.01z"/><path fill="#9d9a94" d="M245.81 263.99c1.99-.33 3.28 2.44 1.1 3.22-.86-.89-1.23-1.97-1.1-3.22z"/><path fill="#313335" d="M294.64 263.97l1.5 1.12c-1.07 4.15-2.97 8.08-5.16 11.76-1.45 2.6-4.34 3.68-6.92 4.82-2.78.37-6.33 1.43-8.15-1.48l3.04-1.2c1.86-.18 3.75-.2 5.59-.55 1.37-.74 2.46-1.87 3.55-2.95 1.05-1.17 2.14-2.3 3.03-3.59 1.25-2.61 2.38-5.27 3.52-7.93z"/><path fill="#323331" d="M301.94 266.81l5.99-2.38 1.52 7.54c.06 2.36-.04 4.72-.23 7.08l-1.66 1.92c-2.21 1.91-4.61 3.79-7.56 4.32l-.97-2.46c.75-1.07 1.94-1.65 3.04-2.29l1.82 1.03c2.37-1.77 1.89-4.64 1.64-7.2.06-1.17.79-2.63-.32-3.55-.94-1.22-2.73-.67-4.04-.95l.18-.63 2.4-.44c-.09-1.13-.7-1.79-1.81-1.99z"/><path fill="#4d4d4c" d="M337.22 265.11c1 4.71 1.47 9.51 2.06 14.29.35 2.58-.24 5.16-1.3 7.52.3-5.95.6-12.25-1.49-17.91-1.18 4.71-.69 9.69-2.08 14.36-1.19 3.31-2.84 6.42-4.37 9.58-3.26.06-6.8-.56-9.78 1.11-1.26 1.69-1.81 3.84-3.16 5.51-1.56-2.43-.2-5.08 1.86-6.64 1.19-.76 3.05-.92 3.53-2.48.72-2.84-.28-5.74-.94-8.49 2.62.11 5.59 1.15 7.97-.31 1.43-5.12 4.27-10.18 3.05-15.64l4.13.41.52-1.31z"/><path fill="#65665f" d="M224.09 266.1l2.64 1.19 2.9 5.92 3.08 3.58c-.01 1.09.39 2.11.81 3.1l-.31 4.67-.89.82-3.83-8.96c-1.63-3.37-4.15-6.44-4.4-10.32z"/><path fill="#6d6b6b" d="M336.49 269.01c2.09 5.66 1.79 11.96 1.49 17.91-1.54 3.05-3.97 6.73-7.94 6.03 1.53-3.16 3.18-6.27 4.37-9.58 1.39-4.67.9-9.65 2.08-14.36z"/><path fill="#646363" d="M285.59 272.89c1.62-1.09 3.4-1.95 5.31-2.39l.22 1.4c-.89 1.29-1.98 2.42-3.03 3.59l-2.5-2.6z"/><path fill="#040302" opacity=".8" d="M301.17 269.87c1.31.28 3.1-.27 4.04.95 1.11.92.38 2.38.32 3.55-2.22.64-4.72 2.48-6.9.75.71-1.81 1.72-3.49 2.54-5.25z"/><path fill="#5e5f62" d="M296.29 271.23c2.69.21-.41 4.68-1.33 1.98l.6-1.63.73-.35z"/><path fill="#333534" d="M229.63 273.21l2.39-1.36c2.77 1.53 5.12 3.76 5.96 6.91l-5.27-1.97-3.08-3.58z"/><path fill="#a57e66" d="M298.63 275.12c2.18 1.73 4.68-.11 6.9-.75.25 2.56.73 5.43-1.64 7.2l-1.82-1.03c-.56-1.96-2.17-3.2-3.63-4.47l.19-.95z"/><path fill="#c38f71" d="M309.22 279.05c1.77-1.83 3.49-5.2 6.53-4.26 2.92 1.37 4.21 4.57 5.8 7.17.66 2.75 1.66 5.65.94 8.49-.48 1.56-2.34 1.72-3.53 2.48-.42-2.1-.48-4.38-1.62-6.24-3.15-2.1-7.8-2.1-9.78-5.72l1.66-1.92z"/><path fill="#60625e" d="M266.55 280.39c5.15-.94 10.05-2.93 15.27-3.52-.93.74-1.88 1.45-2.87 2.12l-3.04 1.2c1.82 2.91 5.37 1.85 8.15 1.48l1.97.49c-2.56 2.88-4.18 6.4-6.08 9.71-1.42 2.46-3.93 4.22-4.84 6.97 2.93 3.77 8.07 4.09 12.31 2.69-2.78 2.97-4.71 6.58-6.94 9.96-2.19.22-4.4.32-6.6.43-.29 2.86 3.47 2.36 5.28 3.4.02 1.31-.78 2.35-1.5 3.38 1.61.88 3.16 1.89 4.37 3.29-.52.98-1.07 1.94-1.69 2.86-1.42-.4-2.86-.75-4.33-.76.91-1.13 2.98-2.11 1.72-3.77-5.5-1.12-13.07-1.91-14.93-8.27 4.09 2.01 7.17 6.67 12.21 6.11l-.05-.93c-2.87-1.56-6.6-1.78-8.63-4.62-1.22-2.08-3.96-1.81-5.34-3.65l-1.23-2.41c3.72-2.59 7.88-4.54 11.35-7.49 2.96-2.45 4.74-5.92 6.97-8.98 1.51-2.23 3.49-4.33 3.85-7.12-2.61.27-3.8 2.9-5.26 4.72-2.35 3.58-5.64 6.35-8.53 9.46-1.32 1.31-2.54 2.9-4.42 3.42-4.37 1.43-8.91 2.62-12.76 5.24l1.05 2.09c-2.36-.44-4.68-1.09-6.91-1.98l-1.59-1.86c1.95-1 3.9-2.01 5.77-3.15-1.06-1.83-3.34-1.69-5.13-2.13-1.85-.24-3.58-.93-5.23-1.75 1.48-.26 2.97-.57 4.48-.66 2.5.13 4.97 1.39 7.47.52 4.39-1.28 9.71-2.53 12.04-6.9 1.48-2.81 4.38-4.61 5.43-7.65-1.13.46-2.24.94-3.34 1.45l-1.16-.9c.82-.91 1.3-2.38 2.71-2.49m.55 30.56c.67 2.42 3.62 3.34 5.89 3.14-.86-2.47-3.57-3.09-5.89-3.14z"/><path fill="#8e8e8d" d="M237.72 281.23l5.02-3.05c2.38 1.9 4.88 3.8 8.03 4.13l4.33 1.35c-5.49.95-10.73-.87-16.07-1.69l-1.31-.74z"/><path fill="#484a48" d="M233.21 284.56l.31-4.67 4.2 1.34 1.31.74c1.69 1.8 3.72 3.41 6.27 3.69 6.21 1.12 12.98.28 18.54-2.78l1.16.9c-1.34 1.08-2.64 2.22-4.03 3.25-6.1 1.85-12.54 2.01-18.86 2.45-3.76-.53-7.5-1.78-11.32-.74.52-1.12.98-2.26 1.53-3.36.22-.21.66-.61.89-.82z"/><path fill="#b9b6b9" d="M324.29 280.29l.45.01v.45h-.45v-.46z"/><path fill="#575858" d="M287.54 281.76l3.41-1c2.94 1.68 5.16 5.86 9.05 4.53 2.95-.53 5.35-2.41 7.56-4.32 1.98 3.62 6.63 3.62 9.78 5.72 1.14 1.86 1.2 4.14 1.62 6.24-2.06 1.56-3.42 4.21-1.86 6.64a28.29 28.29 0 0 0-1.29 2.73c-2.21-1.17-4.12-2.8-5.89-4.54-1.61 1.48-2.97 3.18-4.36 4.84-2.02 2.34-4.82 3.79-7.02 5.93-2.14 2.04-4.15 4.22-6.09 6.45-1.1-.79-2.15-1.66-3.18-2.53.12-1.87.56-3.69.86-5.53l-1.23-2.5c1.93-1.78 3.81-3.61 5.69-5.44.06 1.36.52 2.5 1.38 3.43 2.47-2.57 2.46-6.41 4.12-9.43 1.48-1.78 3.2-3.34 4.76-5.04-3.58.52-6.58 2.74-8.16 5.99l-.49-1.22c.02-.98.47-2.05-.03-2.98-1.79-3.63-5.56-5.58-8.63-7.97z"/><path fill="#7d7b73" d="M265 283.78l3.34-1.45c-1.05 3.04-3.95 4.84-5.43 7.65-2.33 4.37-7.65 5.62-12.04 6.9-2.5.87-4.97-.39-7.47-.52-1.51.09-3 .4-4.48.66-1.74-.82-3.52-1.54-5.29-2.27l-.69-.37-.51-2.33c2.61.09 5.2.46 7.81.52 2.39.06 4.63-.98 6.98-1.27 2.03-.16 4.09.23 6.11-.13 2.84-.75 5.32-2.4 7.64-4.14 1.39-1.03 2.69-2.17 4.03-3.25z"/><path fill="#7f8078" d="M286.03 282.16l1.51-.4c3.07 2.39 6.84 4.34 8.63 7.97.5.93.05 2 .03 2.98-3.15 2.71-5.99 5.75-8.78 8.82-4.24 1.4-9.38 1.08-12.31-2.69.91-2.75 3.42-4.51 4.84-6.97 1.9-3.31 3.52-6.83 6.08-9.71z"/><path fill="#8f8c84" d="M276.67 287.68c1.46-1.82 2.65-4.45 5.26-4.72-.36 2.79-2.34 4.89-3.85 7.12-2.23 3.06-4.01 6.53-6.97 8.98-3.47 2.95-7.63 4.9-11.35 7.49-2.54.68-5.12 1.28-7.75 1.34l-1.05-2.09c3.85-2.62 8.39-3.81 12.76-5.24 1.88-.52 3.1-2.11 4.42-3.42 2.89-3.11 6.18-5.88 8.53-9.46z"/><path fill="#5d5e5a" d="M242.11 289.48c6.32-.44 12.76-.6 18.86-2.45-2.32 1.74-4.8 3.39-7.64 4.14-2.02.36-4.08-.03-6.11.13-2.35.29-4.59 1.33-6.98 1.27-2.61-.06-5.2-.43-7.81-.52l.51 2.33.11.52-.91.25c-.93-1.25-2.66-2.3-2.42-4.07l1.07-2.34c3.82-1.04 7.56.21 11.32.74z"/><path fill="#78787a" d="M296.69 293.93c1.58-3.25 4.58-5.47 8.16-5.99-1.56 1.7-3.28 3.26-4.76 5.04-1.66 3.02-1.65 6.86-4.12 9.43-.86-.93-1.32-2.07-1.38-3.43.82-1.63 1.5-3.33 2.1-5.05z"/><path fill="#3b3a35" d="M287.42 301.53c2.79-3.07 5.63-6.11 8.78-8.82l.49 1.22c-.6 1.72-1.28 3.42-2.1 5.05l-5.69 5.44c-4.17 1.84-5.47 6.44-7.18 10.26-1.09 2.17.13 4.51.62 6.67l-.31.64c-1.21-1.4-2.76-2.41-4.37-3.29.72-1.03 1.52-2.07 1.5-3.38-1.81-1.04-5.57-.54-5.28-3.4 2.2-.11 4.41-.21 6.6-.43 2.23-3.38 4.16-6.99 6.94-9.96z"/><path fill="#c9c6c8" d="M232.94 294.38l.69.37-.58.15-.11-.52z"/><path fill="#545552" d="M232.14 295.15l.91-.25.58-.15 5.29 2.27c1.65.82 3.38 1.51 5.23 1.75 1.79.44 4.07.3 5.13 2.13l-5.77 3.15c-2.8-2.34-6.32-3.46-9.49-5.15-1.56-.59-1.37-2.47-1.88-3.75z"/><path fill="#4e4f4e" d="M305.56 302.6l4.36-4.84c1.77 1.74 3.68 3.37 5.89 4.54-.56 1.91-.78 3.97-1.8 5.71-1.31 1.33-2.94 2.26-4.46 3.32-2.23-1.43-4.64-3.05-7.39-2.95-1.32.64-1.41 2.2-1.78 3.44-2.7 3.7-8.08 5.96-8.38 11 3.46-.14 5.78-2.92 8.3-4.9l1.2.21c.46 1.91.91 3.83 1.46 5.73-1.31 1.42-2.66 2.79-3.99 4.19 1.63 2.24 4.6 1.7 6.94 1.26-2.67 1.62-4.86 3.95-5.99 6.88l-.75.44c-.69-2.56-3.45-1.52-4.12.42-4.87.24-9.76-.55-14.59.3-5.06.89-10.53-.41-14.53-3.66 4.79-.08 9.01 4.54 13.87 2.4 2.22-1.01 4.61-1.38 6.96-.58l2.28.52c1.89-1.77 3.43-3.97 4.23-6.44.17-1.67-.72-3.44-2.09-4.41-.32 1.65-.55 3.31-.82 4.97-.19-1.72-.43-3.74-2.25-4.49 1.5-3.54 2.83-7.15 4.34-10.68 1.94-2.23 3.95-4.41 6.09-6.45 2.2-2.14 5-3.59 7.02-5.93m-8.42 19.88c-1.18 1.31.96 3.6 2.3 2.39.79-1.23-1.05-3.19-2.3-2.39z"/><path fill="#696a6c" d="M281.72 314.68c1.71-3.82 3.01-8.42 7.18-10.26l1.23 2.5c-.3 1.84-.74 3.66-.86 5.53 1.03.87 2.08 1.74 3.18 2.53-1.51 3.53-2.84 7.14-4.34 10.68-.94 1.13-1.91 2.23-2.87 3.34l.71-4.66-2.01.54c1.97-4.46 3.28-9.23 3.68-14.11-1.23.51-2.77 1.2-2.9 2.72-.52 2.7-.9 5.48-2.38 7.86-.49-2.16-1.71-4.5-.62-6.67z"/><path fill="#484948" d="M245.1 305.91c2.23.89 4.55 1.54 6.91 1.98 2.63-.06 5.21-.66 7.75-1.34l1.23 2.41c.19 2.18-.01 4.42.52 6.57 1.09 3.47 3.91 6.21 7.13 7.77 2.29 1.13 4.91.76 7.37.79 1.47.01 2.91.36 4.33.76-.64.88-1.31 1.75-2 2.6-1.63 1.63-3.67 3.41-6.16 2.88-3.06-.69-5.6-2.7-8.38-4.06.26 2.3.6 4.59.9 6.89l-.72-.17c-.6-2.53-.67-5.15-1.24-7.68-.74-3-2.69-5.6-3.11-8.7-.31-2.57-.29-5.16-.5-7.74-4.63-.76-10.61 1.2-14.03-2.96z"/><path fill="#383836" d="M302.16 308.38c2.75-.1 5.16 1.52 7.39 2.95l3.13 2.84.61.59c-2.84.92-5.85.85-8.78 1.2l-.17.79 1.92.25c-1.26 1.38-3.04 1.45-4.76 1.13l-1.2-.21c.33-2.03.25-4.07.08-6.1.37-1.24.46-2.8 1.78-3.44z"/><path fill="#7b7b73" d="M260.99 308.96c1.38 1.84 4.12 1.57 5.34 3.65 2.03 2.84 5.76 3.06 8.63 4.62l.05.93c-5.04.56-8.12-4.1-12.21-6.11 1.86 6.36 9.43 7.15 14.93 8.27 1.26 1.66-.81 2.64-1.72 3.77-2.46-.03-5.08.34-7.37-.79-3.22-1.56-6.04-4.3-7.13-7.77-.53-2.15-.33-4.39-.52-6.57z"/><path fill="#787772" d="M267.1 310.95c2.32.05 5.03.67 5.89 3.14-2.27.2-5.22-.72-5.89-3.14z"/><path fill="#8d8e93" d="M284.72 313.49c.13-1.52 1.67-2.21 2.9-2.72-.4 4.88-1.71 9.65-3.68 14.11-1.14 2.24-2.4 5.68-5.58 4.89l-.02-2.32c.69-.85 1.36-1.72 2-2.6.62-.92 1.17-1.88 1.69-2.86l.31-.64c1.48-2.38 1.86-5.16 2.38-7.86z"/><path fill="#292826" d="M300.38 311.82c.17 2.03.25 4.07-.08 6.1-2.52 1.98-4.84 4.76-8.3 4.9.3-5.04 5.68-7.3 8.38-11z"/><path opacity=".13" d="M312.68 314.17c2.53-1.58 5.33.53 8.02.08 2.46-.37 4.93-1.24 7.44-.63 4.46.85 8.86 1.95 13.31 2.82 3.13.56 5.57 2.78 7.84 4.84-.71.97-1.42 1.93-2.05 2.95-.04 1.22.58 2.32.97 3.45 1.29-.44 2.58-.85 3.88-1.24.8 1.03 1.35 2.22 1.75 3.47-.83.78-1.78 1.8-3.03 1.22-1.91-.7-3.8.01-5.28 1.27-.02 1.88.25 3.85-.54 5.63-2.08-1.68-4.09-3.46-6.28-5l-.56 3.53-1.97.57c-.95-.9-1.94-1.76-2.96-2.58-.92 1.35-1.26 3.66-3.3 3.67-2.15.15-4.27-.38-6.39-.64-4.15-.72-8.32.17-12.48.17-4.14-.03-8.45 1.14-12.41-.56l.53-.56.75-.44c5.9-1.75 12.38-4.69 14.96-10.7 1.43-2.82 1.57-6.22 0-9.02a32.16 32.16 0 0 0-1.59-1.71l-.61-.59z"/><path fill="#3c3f42" d="M304.51 315.96c2.93-.35 5.94-.28 8.78-1.2l1.59 1.71c-1.12 2.94-.7 6.04 0 9.02-2.58 6.01-9.06 8.95-14.96 10.7 1.13-2.93 3.32-5.26 5.99-6.88 1.99-1.4 4.3-2.73 5.34-5.05 1.54-3.24-1.06-8.17-4.99-7.26l-1.92-.25.17-.79z"/><path fill="#737275" d="M306.26 317c3.93-.91 6.53 4.02 4.99 7.26-1.04 2.32-3.35 3.65-5.34 5.05-2.34.44-5.31.98-6.94-1.26l3.99-4.19-1.46-5.73c1.72.32 3.5.25 4.76-1.13z"/><path fill="#4f4c4c" opacity=".79" d="M314.88 325.49c-.7-2.98-1.12-6.08 0-9.02 1.57 2.8 1.43 6.2 0 9.02z"/><path fill="#727171" d="M297.14 322.48c1.25-.8 3.09 1.16 2.3 2.39-1.34 1.21-3.48-1.08-2.3-2.39z"/><path fill="#51514e" d="M283.94 324.88l2.01-.54-.71 4.66 2.87-3.34.61 4.95c-.94.96-2.35.81-3.57 1-2.14.04-3.95 1.32-5.57 2.59l.22 1.89c-4.86 2.14-9.08-2.48-13.87-2.4l-1.23-.53-.9-6.89c2.78 1.36 5.32 3.37 8.38 4.06 2.49.53 4.53-1.25 6.16-2.88l.02 2.32c3.18.79 4.44-2.65 5.58-4.89z"/><path fill="#6a6864" d="M291.18 325.18c1.37.97 2.26 2.74 2.09 4.41-.8 2.47-2.34 4.67-4.23 6.44l-2.28-.52c1.54-1.51 3.4-3.05 3.6-5.36l.82-4.97z"/><path fill="#343636" d="M288.11 325.66c1.82.75 2.06 2.77 2.25 4.49-.2 2.31-2.06 3.85-3.6 5.36-2.35-.8-4.74-.43-6.96.58l-.22-1.89c1.62-1.27 3.43-2.55 5.57-2.59 1.22-.19 2.63-.04 3.57-1l-.61-4.95z"/><path fill="#6a6764" d="M295.05 337.05c.67-1.94 3.43-2.98 4.12-.42l-.53.56-3.59-.14z"/></svg>